0, 0, Header, 1, 5, 384
1, 0, Start_track
1, 0, Time_signature, 4, 2, 96, 8
1, 0, Sequencer_specific, 3, 0, 0, 65
1, 0, Sequencer_specific, 5, 0, 0, 119, 14, 0
1, 0, Tempo, 260869
1, 384, Tempo, 517241
1, 8420, Tempo, 555555
1, 9188, Tempo, 517241
1, 9956, Tempo, 555555
1, 10724, Tempo, 517241
1, 14564, Tempo, 555555
1, 15332, Tempo, 517241
1, 16100, Tempo, 555555
1, 16868, Tempo, 517241
1, 35884, Tempo, 555555
1, 36096, Tempo, 517241
1, 37420, Tempo, 555555
1, 37632, Tempo, 517241
1, 40492, Tempo, 555555
1, 40704, Tempo, 517241
1, 42028, Tempo, 555555
1, 42240, Tempo, 517241
1, 77156, Tempo, 555555
1, 77376, Tempo, 517241
1, 139948, Tempo, 555555
1, 140160, Tempo, 517241
1, 141484, Tempo, 555555
1, 141696, Tempo, 517241
1, 144556, Tempo, 555555
1, 144768, Tempo, 517241
1, 146092, Tempo, 555555
1, 146304, Tempo, 517241
1, 209636, Tempo, 555555
1, 211940, Tempo, 517241
1, 212708, Tempo, 555555
1, 213476, Tempo, 517241
1, 297984, Tempo, 566037
1, 298752, Tempo, 638297
1, 299520, Tempo, 750000
1, 301056, Tempo, 517241
1, 316972, Tempo, 555555
1, 317184, Tempo, 517241
1, 318508, Tempo, 555555
1, 318720, Tempo, 517241
1, 321580, Tempo, 555555
1, 321792, Tempo, 517241
1, 323116, Tempo, 555555
1, 323328, Tempo, 517241
1, 327168, Tempo, 612244
1, 327936, Tempo, 769230
1, 327936, End_track
2, 0, Start_track
2, 0, Title_t, "Mozart - Piano Concerto"
2, 0, Control_c, 0, 0, 0
2, 0, Program_c, 0, 0
2, 0, Control_c, 0, 7, 127
2, 0, Control_c, 0, 10, 63
2, 0, Control_c, 0, 91, 70
2, 0, Control_c, 0, 93, 38
2, 0, Key_signature, 0, "major"
2, 0, Control_c, 0, 121, 0
2, 864, Control_c, 0, 10, 63
2, 960, Control_c, 0, 91, 63
2, 1056, Control_c, 0, 93, 35
2, 1152, Program_c, 0, 0
2, 56832, Note_on_c, 0, 72, 99
2, 56832, Note_on_c, 0, 67, 99
2, 56832, Note_on_c, 0, 64, 99
2, 57596, Note_off_c, 0, 72, 64
2, 57596, Note_off_c, 0, 67, 64
2, 57596, Note_off_c, 0, 64, 64
2, 57600, Note_on_c, 0, 75, 77
2, 57692, Note_off_c, 0, 75, 64
2, 57696, Note_on_c, 0, 76, 66
2, 57984, Note_off_c, 0, 76, 64
2, 57984, Note_on_c, 0, 78, 77
2, 58076, Note_off_c, 0, 78, 64
2, 58080, Note_on_c, 0, 79, 66
2, 58368, Note_off_c, 0, 79, 64
2, 58368, Note_on_c, 0, 64, 66
2, 58368, Note_on_c, 0, 60, 66
2, 58368, Note_on_c, 0, 84, 66
2, 58460, Note_off_c, 0, 64, 64
2, 58460, Note_off_c, 0, 60, 64
2, 58556, Note_off_c, 0, 84, 64
2, 58560, Note_on_c, 0, 64, 66
2, 58560, Note_on_c, 0, 60, 66
2, 58560, Note_on_c, 0, 79, 66
2, 58652, Note_off_c, 0, 64, 64
2, 58652, Note_off_c, 0, 60, 64
2, 58748, Note_off_c, 0, 79, 64
2, 58752, Note_on_c, 0, 64, 66
2, 58752, Note_on_c, 0, 60, 66
2, 58752, Note_on_c, 0, 79, 66
2, 58844, Note_off_c, 0, 64, 64
2, 58844, Note_off_c, 0, 60, 64
2, 58944, Note_on_c, 0, 64, 66
2, 58944, Note_on_c, 0, 60, 66
2, 59036, Note_off_c, 0, 64, 64
2, 59036, Note_off_c, 0, 60, 64
2, 59136, Note_on_c, 0, 64, 66
2, 59136, Note_on_c, 0, 60, 66
2, 59228, Note_off_c, 0, 64, 64
2, 59228, Note_off_c, 0, 60, 64
2, 59328, Note_on_c, 0, 64, 66
2, 59328, Note_on_c, 0, 60, 66
2, 59420, Note_off_c, 0, 64, 64
2, 59420, Note_off_c, 0, 60, 64
2, 59516, Note_off_c, 0, 79, 64
2, 59520, Note_on_c, 0, 65, 66
2, 59520, Note_on_c, 0, 60, 66
2, 59520, Note_on_c, 0, 81, 66
2, 59612, Note_off_c, 0, 65, 64
2, 59612, Note_off_c, 0, 60, 64
2, 59612, Note_off_c, 0, 81, 64
2, 59616, Note_on_c, 0, 79, 66
2, 59708, Note_off_c, 0, 79, 64
2, 59712, Note_on_c, 0, 65, 66
2, 59712, Note_on_c, 0, 60, 66
2, 59712, Note_on_c, 0, 81, 66
2, 59804, Note_off_c, 0, 65, 64
2, 59804, Note_off_c, 0, 60, 64
2, 59804, Note_off_c, 0, 81, 64
2, 59808, Note_on_c, 0, 83, 66
2, 59900, Note_off_c, 0, 83, 64
2, 59904, Note_on_c, 0, 64, 66
2, 59904, Note_on_c, 0, 60, 66
2, 59904, Note_on_c, 0, 84, 66
2, 59996, Note_off_c, 0, 64, 64
2, 59996, Note_off_c, 0, 60, 64
2, 60092, Note_off_c, 0, 84, 64
2, 60096, Note_on_c, 0, 64, 66
2, 60096, Note_on_c, 0, 60, 66
2, 60096, Note_on_c, 0, 79, 66
2, 60188, Note_off_c, 0, 64, 64
2, 60188, Note_off_c, 0, 60, 64
2, 60284, Note_off_c, 0, 79, 64
2, 60288, Note_on_c, 0, 65, 66
2, 60288, Note_on_c, 0, 60, 66
2, 60288, Note_on_c, 0, 81, 66
2, 60380, Note_off_c, 0, 65, 64
2, 60380, Note_off_c, 0, 60, 64
2, 60380, Note_off_c, 0, 81, 64
2, 60384, Note_on_c, 0, 79, 66
2, 60476, Note_off_c, 0, 79, 64
2, 60480, Note_on_c, 0, 65, 66
2, 60480, Note_on_c, 0, 60, 66
2, 60480, Note_on_c, 0, 81, 66
2, 60572, Note_off_c, 0, 65, 64
2, 60572, Note_off_c, 0, 60, 64
2, 60572, Note_off_c, 0, 81, 64
2, 60576, Note_on_c, 0, 83, 66
2, 60668, Note_off_c, 0, 83, 64
2, 60672, Note_on_c, 0, 64, 66
2, 60672, Note_on_c, 0, 60, 66
2, 60672, Note_on_c, 0, 84, 66
2, 60764, Note_off_c, 0, 64, 64
2, 60764, Note_off_c, 0, 60, 64
2, 60860, Note_off_c, 0, 84, 64
2, 60864, Note_on_c, 0, 64, 66
2, 60864, Note_on_c, 0, 60, 66
2, 60864, Note_on_c, 0, 79, 66
2, 60956, Note_off_c, 0, 64, 64
2, 60956, Note_off_c, 0, 60, 64
2, 61052, Note_off_c, 0, 79, 64
2, 61056, Note_on_c, 0, 65, 66
2, 61056, Note_on_c, 0, 60, 66
2, 61056, Note_on_c, 0, 81, 66
2, 61148, Note_off_c, 0, 65, 64
2, 61148, Note_off_c, 0, 60, 64
2, 61148, Note_off_c, 0, 81, 64
2, 61152, Note_on_c, 0, 79, 66
2, 61244, Note_off_c, 0, 79, 64
2, 61248, Note_on_c, 0, 65, 66
2, 61248, Note_on_c, 0, 60, 66
2, 61248, Note_on_c, 0, 81, 66
2, 61340, Note_off_c, 0, 65, 64
2, 61340, Note_off_c, 0, 60, 64
2, 61340, Note_off_c, 0, 81, 64
2, 61344, Note_on_c, 0, 83, 66
2, 61436, Note_off_c, 0, 83, 64
2, 61440, Note_on_c, 0, 64, 66
2, 61440, Note_on_c, 0, 60, 66
2, 61440, Note_on_c, 0, 84, 66
2, 61532, Note_off_c, 0, 64, 64
2, 61532, Note_off_c, 0, 60, 64
2, 61628, Note_off_c, 0, 84, 64
2, 61632, Note_on_c, 0, 64, 66
2, 61632, Note_on_c, 0, 60, 66
2, 61632, Note_on_c, 0, 79, 66
2, 61724, Note_off_c, 0, 64, 64
2, 61724, Note_off_c, 0, 60, 64
2, 61820, Note_off_c, 0, 79, 64
2, 61824, Note_on_c, 0, 64, 66
2, 61824, Note_on_c, 0, 60, 66
2, 61824, Note_on_c, 0, 79, 66
2, 61916, Note_off_c, 0, 64, 64
2, 61916, Note_off_c, 0, 60, 64
2, 62016, Note_on_c, 0, 64, 66
2, 62016, Note_on_c, 0, 60, 66
2, 62108, Note_off_c, 0, 64, 64
2, 62108, Note_off_c, 0, 60, 64
2, 62208, Note_on_c, 0, 64, 66
2, 62208, Note_on_c, 0, 60, 66
2, 62396, Note_off_c, 0, 79, 64
2, 62396, Note_off_c, 0, 64, 64
2, 62396, Note_off_c, 0, 60, 64
2, 62400, Note_on_c, 0, 81, 66
2, 62492, Note_off_c, 0, 81, 64
2, 62496, Note_on_c, 0, 79, 66
2, 62588, Note_off_c, 0, 79, 64
2, 62592, Note_on_c, 0, 77, 66
2, 62684, Note_off_c, 0, 77, 64
2, 62688, Note_on_c, 0, 76, 66
2, 62780, Note_off_c, 0, 76, 64
2, 62784, Note_on_c, 0, 74, 66
2, 62876, Note_off_c, 0, 74, 64
2, 62880, Note_on_c, 0, 72, 66
2, 62972, Note_off_c, 0, 72, 64
2, 62976, Note_on_c, 0, 71, 66
2, 63740, Note_off_c, 0, 71, 64
2, 63744, Note_on_c, 0, 72, 66
2, 63788, Note_off_c, 0, 72, 64
2, 63792, Note_on_c, 0, 74, 66
2, 63836, Note_off_c, 0, 74, 64
2, 63840, Note_on_c, 0, 72, 66
2, 63884, Note_off_c, 0, 72, 64
2, 63888, Note_on_c, 0, 74, 66
2, 63932, Note_off_c, 0, 74, 64
2, 63936, Note_on_c, 0, 72, 66
2, 63980, Note_off_c, 0, 72, 64
2, 63984, Note_on_c, 0, 74, 66
2, 64028, Note_off_c, 0, 74, 64
2, 64032, Note_on_c, 0, 72, 66
2, 64076, Note_off_c, 0, 72, 64
2, 64080, Note_on_c, 0, 74, 66
2, 64124, Note_off_c, 0, 74, 64
2, 64128, Note_on_c, 0, 72, 66
2, 64172, Note_off_c, 0, 72, 64
2, 64176, Note_on_c, 0, 74, 66
2, 64220, Note_off_c, 0, 74, 64
2, 64224, Note_on_c, 0, 72, 66
2, 64268, Note_off_c, 0, 72, 64
2, 64272, Note_on_c, 0, 74, 66
2, 64316, Note_off_c, 0, 74, 64
2, 64320, Note_on_c, 0, 71, 66
2, 64412, Note_off_c, 0, 71, 64
2, 64416, Note_on_c, 0, 72, 66
2, 64508, Note_off_c, 0, 72, 64
2, 64512, Note_on_c, 0, 74, 67
2, 65276, Note_off_c, 0, 74, 64
2, 65280, Note_on_c, 0, 76, 80
2, 65324, Note_off_c, 0, 76, 64
2, 65328, Note_on_c, 0, 77, 81
2, 65372, Note_off_c, 0, 77, 64
2, 65376, Note_on_c, 0, 76, 82
2, 65420, Note_off_c, 0, 76, 64
2, 65424, Note_on_c, 0, 77, 82
2, 65468, Note_off_c, 0, 77, 64
2, 65472, Note_on_c, 0, 76, 84
2, 65516, Note_off_c, 0, 76, 64
2, 65520, Note_on_c, 0, 77, 85
2, 65564, Note_off_c, 0, 77, 64
2, 65568, Note_on_c, 0, 76, 88
2, 65612, Note_off_c, 0, 76, 64
2, 65616, Note_on_c, 0, 77, 89
2, 65660, Note_off_c, 0, 77, 64
2, 65664, Note_on_c, 0, 76, 89
2, 65708, Note_off_c, 0, 76, 64
2, 65712, Note_on_c, 0, 77, 90
2, 65756, Note_off_c, 0, 77, 64
2, 65760, Note_on_c, 0, 76, 91
2, 65804, Note_off_c, 0, 76, 64
2, 65808, Note_on_c, 0, 77, 92
2, 65852, Note_off_c, 0, 77, 64
2, 65856, Note_on_c, 0, 74, 92
2, 65948, Note_off_c, 0, 74, 64
2, 65952, Note_on_c, 0, 76, 94
2, 66044, Note_off_c, 0, 76, 64
2, 66048, Note_on_c, 0, 77, 94
2, 66048, Note_on_c, 0, 74, 94
2, 66048, Note_on_c, 0, 67, 94
2, 66236, Note_off_c, 0, 77, 64
2, 66236, Note_off_c, 0, 74, 64
2, 66236, Note_off_c, 0, 67, 64
2, 66432, Note_on_c, 0, 76, 94
2, 66432, Note_on_c, 0, 72, 96
2, 66432, Note_on_c, 0, 67, 96
2, 66620, Note_off_c, 0, 76, 64
2, 66620, Note_off_c, 0, 72, 64
2, 66620, Note_off_c, 0, 67, 64
2, 66816, Note_on_c, 0, 76, 94
2, 67004, Note_off_c, 0, 76, 64
2, 67008, Note_on_c, 0, 74, 88
2, 67196, Note_off_c, 0, 74, 64
2, 67200, Note_on_c, 0, 72, 79
2, 67292, Note_off_c, 0, 72, 64
2, 67392, Note_on_c, 0, 71, 73
2, 67484, Note_off_c, 0, 71, 64
2, 67584, Note_on_c, 0, 72, 66
2, 67772, Note_off_c, 0, 72, 64
2, 67776, Note_on_c, 0, 84, 66
2, 67776, Note_on_c, 0, 72, 66
2, 67964, Note_off_c, 0, 84, 64
2, 67964, Note_off_c, 0, 72, 64
2, 67968, Note_on_c, 0, 83, 66
2, 67968, Note_on_c, 0, 71, 66
2, 68156, Note_off_c, 0, 83, 64
2, 68156, Note_off_c, 0, 71, 64
2, 68160, Note_on_c, 0, 81, 66
2, 68160, Note_on_c, 0, 69, 66
2, 68348, Note_off_c, 0, 81, 64
2, 68348, Note_off_c, 0, 69, 64
2, 68352, Note_on_c, 0, 78, 66
2, 68352, Note_on_c, 0, 66, 66
2, 68540, Note_off_c, 0, 78, 64
2, 68540, Note_off_c, 0, 66, 64
2, 68544, Note_on_c, 0, 79, 66
2, 68544, Note_on_c, 0, 67, 66
2, 68732, Note_off_c, 0, 79, 64
2, 68732, Note_off_c, 0, 67, 64
2, 68736, Note_on_c, 0, 81, 66
2, 68736, Note_on_c, 0, 69, 66
2, 68924, Note_off_c, 0, 81, 64
2, 68924, Note_off_c, 0, 69, 64
2, 68928, Note_on_c, 0, 79, 66
2, 68928, Note_on_c, 0, 67, 66
2, 69116, Note_off_c, 0, 79, 64
2, 69116, Note_off_c, 0, 67, 64
2, 69120, Note_on_c, 0, 79, 66
2, 69120, Note_on_c, 0, 55, 66
2, 69212, Note_off_c, 0, 79, 64
2, 69212, Note_off_c, 0, 55, 64
2, 69216, Note_on_c, 0, 71, 66
2, 69216, Note_on_c, 0, 67, 66
2, 69308, Note_off_c, 0, 67, 64
2, 69312, Note_on_c, 0, 65, 66
2, 69404, Note_off_c, 0, 65, 64
2, 69408, Note_on_c, 0, 67, 66
2, 69500, Note_off_c, 0, 67, 64
2, 69504, Note_on_c, 0, 55, 66
2, 69596, Note_off_c, 0, 55, 64
2, 69600, Note_on_c, 0, 67, 66
2, 69692, Note_off_c, 0, 67, 64
2, 69696, Note_on_c, 0, 65, 66
2, 69788, Note_off_c, 0, 65, 64
2, 69792, Note_on_c, 0, 67, 66
2, 69884, Note_off_c, 0, 71, 64
2, 69884, Note_off_c, 0, 67, 64
2, 69888, Note_on_c, 0, 72, 67
2, 69888, Note_on_c, 0, 57, 67
2, 69932, Note_off_c, 0, 72, 64
2, 69936, Note_on_c, 0, 74, 68
2, 69980, Note_off_c, 0, 57, 64
2, 69980, Note_off_c, 0, 74, 64
2, 69984, Note_on_c, 0, 72, 70
2, 69984, Note_on_c, 0, 67, 70
2, 70028, Note_off_c, 0, 72, 64
2, 70032, Note_on_c, 0, 74, 71
2, 70076, Note_off_c, 0, 67, 64
2, 70076, Note_off_c, 0, 74, 64
2, 70080, Note_on_c, 0, 72, 74
2, 70080, Note_on_c, 0, 65, 74
2, 70124, Note_off_c, 0, 72, 64
2, 70128, Note_on_c, 0, 74, 75
2, 70172, Note_off_c, 0, 65, 64
2, 70172, Note_off_c, 0, 74, 64
2, 70176, Note_on_c, 0, 72, 77
2, 70176, Note_on_c, 0, 67, 77
2, 70220, Note_off_c, 0, 72, 64
2, 70224, Note_on_c, 0, 74, 78
2, 70268, Note_off_c, 0, 67, 64
2, 70268, Note_off_c, 0, 74, 64
2, 70272, Note_on_c, 0, 72, 80
2, 70272, Note_on_c, 0, 55, 80
2, 70316, Note_off_c, 0, 72, 64
2, 70320, Note_on_c, 0, 74, 82
2, 70364, Note_off_c, 0, 55, 64
2, 70364, Note_off_c, 0, 74, 64
2, 70368, Note_on_c, 0, 72, 84
2, 70368, Note_on_c, 0, 67, 84
2, 70412, Note_off_c, 0, 72, 64
2, 70416, Note_on_c, 0, 74, 88
2, 70460, Note_off_c, 0, 67, 64
2, 70460, Note_off_c, 0, 74, 64
2, 70464, Note_on_c, 0, 71, 89
2, 70464, Note_on_c, 0, 65, 89
2, 70556, Note_off_c, 0, 71, 64
2, 70556, Note_off_c, 0, 65, 64
2, 70560, Note_on_c, 0, 72, 92
2, 70560, Note_on_c, 0, 67, 92
2, 70652, Note_off_c, 0, 72, 64
2, 70652, Note_off_c, 0, 67, 64
2, 70656, Note_on_c, 0, 73, 94
2, 70656, Note_on_c, 0, 55, 94
2, 70748, Note_off_c, 0, 73, 64
2, 70748, Note_off_c, 0, 55, 64
2, 70752, Note_on_c, 0, 74, 94
2, 70752, Note_on_c, 0, 67, 94
2, 70844, Note_off_c, 0, 67, 64
2, 70848, Note_on_c, 0, 59, 66
2, 70940, Note_off_c, 0, 59, 64
2, 70944, Note_on_c, 0, 67, 66
2, 71036, Note_off_c, 0, 67, 64
2, 71040, Note_on_c, 0, 55, 66
2, 71132, Note_off_c, 0, 55, 64
2, 71136, Note_on_c, 0, 67, 66
2, 71228, Note_off_c, 0, 67, 64
2, 71232, Note_on_c, 0, 59, 67
2, 71324, Note_off_c, 0, 59, 64
2, 71328, Note_on_c, 0, 67, 69
2, 71420, Note_off_c, 0, 74, 64
2, 71420, Note_off_c, 0, 67, 64
2, 71424, Note_on_c, 0, 55, 73
2, 71424, Note_on_c, 0, 76, 73
2, 71468, Note_off_c, 0, 76, 64
2, 71472, Note_on_c, 0, 77, 74
2, 71516, Note_off_c, 0, 55, 64
2, 71516, Note_off_c, 0, 77, 64
2, 71520, Note_on_c, 0, 67, 75
2, 71520, Note_on_c, 0, 76, 75
2, 71564, Note_off_c, 0, 76, 64
2, 71568, Note_on_c, 0, 77, 75
2, 71612, Note_off_c, 0, 67, 64
2, 71612, Note_off_c, 0, 77, 64
2, 71616, Note_on_c, 0, 59, 78
2, 71616, Note_on_c, 0, 76, 78
2, 71660, Note_off_c, 0, 76, 64
2, 71664, Note_on_c, 0, 77, 79
2, 71708, Note_off_c, 0, 59, 64
2, 71708, Note_off_c, 0, 77, 64
2, 71712, Note_on_c, 0, 67, 80
2, 71712, Note_on_c, 0, 76, 80
2, 71756, Note_off_c, 0, 76, 64
2, 71760, Note_on_c, 0, 77, 81
2, 71804, Note_off_c, 0, 67, 64
2, 71804, Note_off_c, 0, 77, 64
2, 71808, Note_on_c, 0, 55, 84
2, 71808, Note_on_c, 0, 76, 84
2, 71852, Note_off_c, 0, 76, 64
2, 71856, Note_on_c, 0, 77, 85
2, 71900, Note_off_c, 0, 55, 64
2, 71900, Note_off_c, 0, 77, 64
2, 71904, Note_on_c, 0, 67, 88
2, 71904, Note_on_c, 0, 76, 88
2, 71948, Note_off_c, 0, 76, 64
2, 71952, Note_on_c, 0, 77, 89
2, 71996, Note_off_c, 0, 67, 64
2, 71996, Note_off_c, 0, 77, 64
2, 72000, Note_on_c, 0, 59, 91
2, 72000, Note_on_c, 0, 74, 91
2, 72092, Note_off_c, 0, 59, 64
2, 72092, Note_off_c, 0, 74, 64
2, 72096, Note_on_c, 0, 67, 93
2, 72096, Note_on_c, 0, 76, 93
2, 72188, Note_off_c, 0, 67, 64
2, 72188, Note_off_c, 0, 76, 64
2, 72192, Note_on_c, 0, 77, 94
2, 72284, Note_off_c, 0, 77, 64
2, 72288, Note_on_c, 0, 79, 94
2, 72380, Note_off_c, 0, 79, 64
2, 72384, Note_on_c, 0, 81, 94
2, 72476, Note_off_c, 0, 81, 64
2, 72480, Note_on_c, 0, 77, 94
2, 72572, Note_off_c, 0, 77, 64
2, 72576, Note_on_c, 0, 76, 94
2, 72668, Note_off_c, 0, 76, 64
2, 72672, Note_on_c, 0, 77, 94
2, 72764, Note_off_c, 0, 77, 64
2, 72768, Note_on_c, 0, 79, 94
2, 72860, Note_off_c, 0, 79, 64
2, 72864, Note_on_c, 0, 76, 94
2, 72956, Note_off_c, 0, 76, 64
2, 72960, Note_on_c, 0, 76, 94
2, 73148, Note_off_c, 0, 76, 64
2, 73152, Note_on_c, 0, 74, 84
2, 73340, Note_off_c, 0, 74, 64
2, 73344, Note_on_c, 0, 72, 75
2, 73436, Note_off_c, 0, 72, 64
2, 73536, Note_on_c, 0, 71, 66
2, 73628, Note_off_c, 0, 71, 64
2, 73728, Note_on_c, 0, 72, 110
2, 74108, Note_off_c, 0, 72, 64
2, 76992, Note_on_c, 0, 60, 66
2, 77084, Note_off_c, 0, 60, 64
2, 77184, Note_on_c, 0, 76, 66
2, 77184, Note_on_c, 0, 72, 66
2, 77184, Note_on_c, 0, 79, 66
2, 77228, Note_off_c, 0, 79, 64
2, 77232, Note_on_c, 0, 81, 66
2, 77276, Note_off_c, 0, 76, 64
2, 77276, Note_off_c, 0, 72, 64
2, 77276, Note_off_c, 0, 81, 64
2, 77280, Note_on_c, 0, 79, 66
2, 77324, Note_off_c, 0, 79, 64
2, 77328, Note_on_c, 0, 81, 66
2, 77372, Note_off_c, 0, 81, 64
2, 77376, Note_on_c, 0, 79, 66
2, 77376, Note_on_c, 0, 71, 66
2, 77376, Note_on_c, 0, 74, 66
2, 77468, Note_off_c, 0, 79, 64
2, 77468, Note_off_c, 0, 71, 64
2, 77468, Note_off_c, 0, 74, 64
2, 77568, Note_on_c, 0, 79, 78
2, 77568, Note_on_c, 0, 69, 78
2, 77568, Note_on_c, 0, 72, 78
2, 77660, Note_off_c, 0, 79, 64
2, 77664, Note_on_c, 0, 77, 66
2, 77756, Note_off_c, 0, 77, 64
2, 77760, Note_on_c, 0, 77, 66
2, 77852, Note_off_c, 0, 77, 64
2, 77948, Note_off_c, 0, 69, 64
2, 77948, Note_off_c, 0, 72, 64
2, 77952, Note_on_c, 0, 71, 66
2, 77952, Note_on_c, 0, 67, 66
2, 78144, Note_on_c, 0, 76, 66
2, 78236, Note_off_c, 0, 76, 64
2, 78332, Note_off_c, 0, 71, 64
2, 78332, Note_off_c, 0, 67, 64
2, 78336, Note_on_c, 0, 69, 78
2, 78336, Note_on_c, 0, 65, 78
2, 78336, Note_on_c, 0, 76, 78
2, 78428, Note_off_c, 0, 76, 64
2, 78432, Note_on_c, 0, 74, 66
2, 78524, Note_off_c, 0, 74, 64
2, 78528, Note_on_c, 0, 74, 66
2, 78620, Note_off_c, 0, 74, 64
2, 78716, Note_off_c, 0, 69, 64
2, 78716, Note_off_c, 0, 65, 64
2, 78720, Note_on_c, 0, 67, 66
2, 78720, Note_on_c, 0, 64, 66
2, 78912, Note_on_c, 0, 72, 66
2, 79004, Note_off_c, 0, 72, 64
2, 79100, Note_off_c, 0, 67, 64
2, 79100, Note_off_c, 0, 64, 64
2, 79104, Note_on_c, 0, 65, 78
2, 79104, Note_on_c, 0, 62, 78
2, 79104, Note_on_c, 0, 72, 78
2, 79196, Note_off_c, 0, 72, 64
2, 79200, Note_on_c, 0, 71, 66
2, 79292, Note_off_c, 0, 65, 64
2, 79292, Note_off_c, 0, 62, 64
2, 79292, Note_off_c, 0, 71, 64
2, 79296, Note_on_c, 0, 71, 66
2, 79388, Note_off_c, 0, 71, 64
2, 79488, Note_on_c, 0, 64, 66
2, 79488, Note_on_c, 0, 60, 66
2, 79632, Note_on_c, 0, 71, 66
2, 79676, Note_off_c, 0, 71, 64
2, 79680, Note_on_c, 0, 72, 66
2, 79724, Note_off_c, 0, 72, 64
2, 79728, Note_on_c, 0, 71, 66
2, 79772, Note_off_c, 0, 71, 64
2, 79776, Note_on_c, 0, 69, 66
2, 79820, Note_off_c, 0, 69, 64
2, 79824, Note_on_c, 0, 71, 66
2, 79868, Note_off_c, 0, 64, 64
2, 79868, Note_off_c, 0, 60, 64
2, 79868, Note_off_c, 0, 71, 64
2, 79872, Note_on_c, 0, 73, 66
2, 79872, Note_on_c, 0, 59, 66
2, 79872, Note_on_c, 0, 55, 66
2, 80060, Note_off_c, 0, 73, 64
2, 80064, Note_on_c, 0, 74, 66
2, 80252, Note_off_c, 0, 59, 64
2, 80252, Note_off_c, 0, 55, 64
2, 80252, Note_off_c, 0, 74, 64
2, 80256, Note_on_c, 0, 64, 68
2, 80256, Note_on_c, 0, 72, 68
2, 80348, Note_off_c, 0, 72, 64
2, 80352, Note_on_c, 0, 76, 75
2, 80444, Note_off_c, 0, 64, 64
2, 80444, Note_off_c, 0, 76, 64
2, 80448, Note_on_c, 0, 60, 84
2, 80448, Note_on_c, 0, 79, 84
2, 80540, Note_off_c, 0, 79, 64
2, 80544, Note_on_c, 0, 84, 94
2, 80636, Note_off_c, 0, 60, 64
2, 80636, Note_off_c, 0, 84, 64
2, 80640, Note_on_c, 0, 69, 92
2, 80640, Note_on_c, 0, 72, 92
2, 80640, Note_on_c, 0, 79, 92
2, 80732, Note_off_c, 0, 79, 64
2, 80736, Note_on_c, 0, 77, 85
2, 80828, Note_off_c, 0, 77, 64
2, 80832, Note_on_c, 0, 76, 79
2, 80924, Note_off_c, 0, 76, 64
2, 80928, Note_on_c, 0, 77, 74
2, 81020, Note_off_c, 0, 69, 64
2, 81020, Note_off_c, 0, 72, 64
2, 81020, Note_off_c, 0, 77, 64
2, 81024, Note_on_c, 0, 71, 68
2, 81024, Note_on_c, 0, 67, 68
2, 81024, Note_on_c, 0, 77, 68
2, 81116, Note_off_c, 0, 77, 64
2, 81120, Note_on_c, 0, 76, 66
2, 81212, Note_off_c, 0, 76, 64
2, 81216, Note_on_c, 0, 75, 66
2, 81308, Note_off_c, 0, 75, 64
2, 81312, Note_on_c, 0, 76, 66
2, 81404, Note_off_c, 0, 71, 64
2, 81404, Note_off_c, 0, 67, 64
2, 81404, Note_off_c, 0, 76, 64
2, 81408, Note_on_c, 0, 76, 66
2, 81408, Note_on_c, 0, 69, 66
2, 81408, Note_on_c, 0, 65, 66
2, 81500, Note_off_c, 0, 76, 64
2, 81504, Note_on_c, 0, 74, 66
2, 81596, Note_off_c, 0, 74, 64
2, 81600, Note_on_c, 0, 73, 66
2, 81692, Note_off_c, 0, 73, 64
2, 81696, Note_on_c, 0, 74, 66
2, 81788, Note_off_c, 0, 69, 64
2, 81788, Note_off_c, 0, 65, 64
2, 81788, Note_off_c, 0, 74, 64
2, 81792, Note_on_c, 0, 74, 66
2, 81792, Note_on_c, 0, 67, 66
2, 81792, Note_on_c, 0, 64, 66
2, 81884, Note_off_c, 0, 74, 64
2, 81888, Note_on_c, 0, 72, 66
2, 81980, Note_off_c, 0, 72, 64
2, 81984, Note_on_c, 0, 71, 66
2, 82076, Note_off_c, 0, 71, 64
2, 82080, Note_on_c, 0, 72, 66
2, 82172, Note_off_c, 0, 67, 64
2, 82172, Note_off_c, 0, 64, 64
2, 82172, Note_off_c, 0, 72, 64
2, 82176, Note_on_c, 0, 72, 66
2, 82176, Note_on_c, 0, 65, 66
2, 82176, Note_on_c, 0, 62, 66
2, 82268, Note_off_c, 0, 72, 64
2, 82272, Note_on_c, 0, 71, 66
2, 82364, Note_off_c, 0, 71, 64
2, 82368, Note_on_c, 0, 69, 66
2, 82460, Note_off_c, 0, 69, 64
2, 82464, Note_on_c, 0, 71, 66
2, 82556, Note_off_c, 0, 65, 64
2, 82556, Note_off_c, 0, 62, 64
2, 82556, Note_off_c, 0, 71, 64
2, 82560, Note_on_c, 0, 72, 66
2, 82560, Note_on_c, 0, 64, 66
2, 82652, Note_off_c, 0, 72, 64
2, 82652, Note_off_c, 0, 64, 64
2, 82656, Note_on_c, 0, 67, 66
2, 82748, Note_off_c, 0, 67, 64
2, 82752, Note_on_c, 0, 72, 66
2, 82752, Note_on_c, 0, 60, 66
2, 82844, Note_off_c, 0, 72, 64
2, 82844, Note_off_c, 0, 60, 64
2, 82848, Note_on_c, 0, 76, 66
2, 82940, Note_off_c, 0, 76, 64
2, 82944, Note_on_c, 0, 74, 66
2, 82944, Note_on_c, 0, 71, 66
2, 83324, Note_off_c, 0, 74, 64
2, 83324, Note_off_c, 0, 71, 64
2, 87552, Note_on_c, 0, 71, 66
2, 87932, Note_off_c, 0, 71, 64
2, 88128, Note_on_c, 0, 72, 66
2, 88316, Note_off_c, 0, 72, 64
2, 88320, Note_on_c, 0, 73, 66
2, 88508, Note_off_c, 0, 73, 64
2, 88512, Note_on_c, 0, 74, 66
2, 88700, Note_off_c, 0, 74, 64
2, 88704, Note_on_c, 0, 76, 66
2, 88892, Note_off_c, 0, 76, 64
2, 88896, Note_on_c, 0, 78, 66
2, 89084, Note_off_c, 0, 78, 64
2, 89088, Note_on_c, 0, 78, 73
2, 89276, Note_off_c, 0, 78, 64
2, 89280, Note_on_c, 0, 79, 78
2, 89468, Note_off_c, 0, 79, 64
2, 89472, Note_on_c, 0, 79, 85
2, 90236, Note_off_c, 0, 79, 64
2, 90240, Note_on_c, 0, 81, 94
2, 90332, Note_off_c, 0, 81, 64
2, 90336, Note_on_c, 0, 79, 94
2, 90428, Note_off_c, 0, 79, 64
2, 90432, Note_on_c, 0, 77, 94
2, 90524, Note_off_c, 0, 77, 64
2, 90528, Note_on_c, 0, 76, 94
2, 90620, Note_off_c, 0, 76, 64
2, 90624, Note_on_c, 0, 76, 94
2, 90716, Note_off_c, 0, 76, 64
2, 90720, Note_on_c, 0, 74, 94
2, 90812, Note_off_c, 0, 74, 64
2, 90816, Note_on_c, 0, 73, 94
2, 90908, Note_off_c, 0, 73, 64
2, 90912, Note_on_c, 0, 74, 94
2, 91004, Note_off_c, 0, 74, 64
2, 91008, Note_on_c, 0, 73, 94
2, 91100, Note_off_c, 0, 73, 64
2, 91104, Note_on_c, 0, 74, 94
2, 91196, Note_off_c, 0, 74, 64
2, 91200, Note_on_c, 0, 76, 94
2, 91292, Note_off_c, 0, 76, 64
2, 91296, Note_on_c, 0, 74, 94
2, 91388, Note_off_c, 0, 74, 64
2, 91392, Note_on_c, 0, 74, 90
2, 91484, Note_off_c, 0, 74, 64
2, 91488, Note_on_c, 0, 72, 84
2, 91580, Note_off_c, 0, 72, 64
2, 91584, Note_on_c, 0, 71, 79
2, 91676, Note_off_c, 0, 71, 64
2, 91680, Note_on_c, 0, 72, 75
2, 91772, Note_off_c, 0, 72, 64
2, 91776, Note_on_c, 0, 71, 70
2, 91868, Note_off_c, 0, 71, 64
2, 91872, Note_on_c, 0, 72, 67
2, 91964, Note_off_c, 0, 72, 64
2, 91968, Note_on_c, 0, 74, 66
2, 92060, Note_off_c, 0, 74, 64
2, 92064, Note_on_c, 0, 72, 66
2, 92156, Note_off_c, 0, 72, 64
2, 92160, Note_on_c, 0, 72, 66
2, 92252, Note_off_c, 0, 72, 64
2, 92256, Note_on_c, 0, 71, 66
2, 92348, Note_off_c, 0, 71, 64
2, 92352, Note_on_c, 0, 76, 66
2, 92444, Note_off_c, 0, 76, 64
2, 92448, Note_on_c, 0, 74, 66
2, 92540, Note_off_c, 0, 74, 64
2, 92544, Note_on_c, 0, 74, 66
2, 92924, Note_off_c, 0, 74, 64
2, 93696, Note_on_c, 0, 71, 66
2, 94224, Note_off_c, 0, 71, 64
2, 94224, Note_on_c, 0, 71, 66
2, 94268, Note_off_c, 0, 71, 64
2, 94272, Note_on_c, 0, 72, 66
2, 94316, Note_off_c, 0, 72, 64
2, 94320, Note_on_c, 0, 71, 66
2, 94364, Note_off_c, 0, 71, 64
2, 94368, Note_on_c, 0, 69, 66
2, 94412, Note_off_c, 0, 69, 64
2, 94416, Note_on_c, 0, 71, 68
2, 94460, Note_off_c, 0, 71, 64
2, 94464, Note_on_c, 0, 73, 73
2, 94652, Note_off_c, 0, 73, 64
2, 94656, Note_on_c, 0, 74, 79
2, 94844, Note_off_c, 0, 74, 64
2, 94848, Note_on_c, 0, 76, 88
2, 95036, Note_off_c, 0, 76, 64
2, 95040, Note_on_c, 0, 78, 94
2, 95228, Note_off_c, 0, 78, 64
2, 95232, Note_on_c, 0, 78, 94
2, 95420, Note_off_c, 0, 78, 64
2, 95424, Note_on_c, 0, 81, 88
2, 95516, Note_off_c, 0, 81, 64
2, 95520, Note_on_c, 0, 79, 79
2, 95612, Note_off_c, 0, 79, 64
2, 95616, Note_on_c, 0, 79, 73
2, 96188, Note_off_c, 0, 79, 64
2, 96192, Note_on_c, 0, 78, 66
2, 96284, Note_off_c, 0, 78, 64
2, 96288, Note_on_c, 0, 79, 66
2, 96380, Note_off_c, 0, 79, 64
2, 96384, Note_on_c, 0, 81, 66
2, 96476, Note_off_c, 0, 81, 64
2, 96480, Note_on_c, 0, 79, 66
2, 96572, Note_off_c, 0, 79, 64
2, 96576, Note_on_c, 0, 78, 66
2, 96668, Note_off_c, 0, 78, 64
2, 96672, Note_on_c, 0, 76, 66
2, 96764, Note_off_c, 0, 76, 64
2, 96768, Note_on_c, 0, 74, 68
2, 96860, Note_off_c, 0, 74, 64
2, 96864, Note_on_c, 0, 76, 73
2, 96956, Note_off_c, 0, 76, 64
2, 96960, Note_on_c, 0, 78, 75
2, 97052, Note_off_c, 0, 78, 64
2, 97056, Note_on_c, 0, 79, 79
2, 97148, Note_off_c, 0, 79, 64
2, 97152, Note_on_c, 0, 81, 82
2, 97244, Note_off_c, 0, 81, 64
2, 97248, Note_on_c, 0, 83, 88
2, 97340, Note_off_c, 0, 83, 64
2, 97344, Note_on_c, 0, 84, 91
2, 97436, Note_off_c, 0, 84, 64
2, 97440, Note_on_c, 0, 86, 94
2, 97532, Note_off_c, 0, 86, 64
2, 97536, Note_on_c, 0, 84, 94
2, 97628, Note_off_c, 0, 84, 64
2, 97632, Note_on_c, 0, 83, 91
2, 97724, Note_off_c, 0, 83, 64
2, 97728, Note_on_c, 0, 81, 88
2, 97820, Note_off_c, 0, 81, 64
2, 97824, Note_on_c, 0, 79, 82
2, 97916, Note_off_c, 0, 79, 64
2, 97920, Note_on_c, 0, 78, 79
2, 98012, Note_off_c, 0, 78, 64
2, 98016, Note_on_c, 0, 76, 75
2, 98108, Note_off_c, 0, 76, 64
2, 98112, Note_on_c, 0, 74, 73
2, 98204, Note_off_c, 0, 74, 64
2, 98208, Note_on_c, 0, 72, 69
2, 98300, Note_off_c, 0, 72, 64
2, 98304, Note_on_c, 0, 71, 66
2, 98304, Note_on_c, 0, 55, 66
2, 98396, Note_off_c, 0, 55, 64
2, 98400, Note_on_c, 0, 67, 66
2, 98492, Note_off_c, 0, 71, 64
2, 98492, Note_off_c, 0, 67, 64
2, 98496, Note_on_c, 0, 66, 66
2, 98588, Note_off_c, 0, 66, 64
2, 98592, Note_on_c, 0, 67, 66
2, 98684, Note_off_c, 0, 67, 64
2, 98688, Note_on_c, 0, 74, 66
2, 98688, Note_on_c, 0, 59, 66
2, 98780, Note_off_c, 0, 59, 64
2, 98784, Note_on_c, 0, 67, 66
2, 98876, Note_off_c, 0, 74, 64
2, 98876, Note_off_c, 0, 67, 64
2, 98880, Note_on_c, 0, 66, 66
2, 98972, Note_off_c, 0, 66, 64
2, 98976, Note_on_c, 0, 67, 66
2, 99068, Note_off_c, 0, 67, 64
2, 99072, Note_on_c, 0, 55, 66
2, 99164, Note_off_c, 0, 55, 64
2, 99168, Note_on_c, 0, 67, 66
2, 99260, Note_off_c, 0, 67, 64
2, 99264, Note_on_c, 0, 66, 66
2, 99264, Note_on_c, 0, 81, 66
2, 99308, Note_off_c, 0, 81, 64
2, 99312, Note_on_c, 0, 79, 66
2, 99356, Note_off_c, 0, 66, 64
2, 99356, Note_off_c, 0, 79, 64
2, 99360, Note_on_c, 0, 78, 66
2, 99360, Note_on_c, 0, 67, 66
2, 99452, Note_off_c, 0, 78, 64
2, 99452, Note_off_c, 0, 67, 64
2, 99456, Note_on_c, 0, 79, 66
2, 99456, Note_on_c, 0, 59, 66
2, 99548, Note_off_c, 0, 79, 64
2, 99548, Note_off_c, 0, 59, 64
2, 99552, Note_on_c, 0, 67, 66
2, 99644, Note_off_c, 0, 67, 64
2, 99648, Note_on_c, 0, 78, 66
2, 99648, Note_on_c, 0, 66, 66
2, 99740, Note_off_c, 0, 78, 64
2, 99740, Note_off_c, 0, 66, 64
2, 99744, Note_on_c, 0, 67, 66
2, 99836, Note_off_c, 0, 67, 64
2, 99840, Note_on_c, 0, 75, 66
2, 99840, Note_on_c, 0, 55, 66
2, 99932, Note_off_c, 0, 55, 64
2, 99936, Note_on_c, 0, 67, 66
2, 100028, Note_off_c, 0, 75, 64
2, 100028, Note_off_c, 0, 67, 64
2, 100032, Note_on_c, 0, 76, 66
2, 100032, Note_on_c, 0, 66, 66
2, 100124, Note_off_c, 0, 66, 64
2, 100128, Note_on_c, 0, 67, 66
2, 100220, Note_off_c, 0, 76, 64
2, 100220, Note_off_c, 0, 67, 64
2, 100224, Note_on_c, 0, 76, 66
2, 100224, Note_on_c, 0, 60, 66
2, 100316, Note_off_c, 0, 60, 64
2, 100320, Note_on_c, 0, 67, 66
2, 100412, Note_off_c, 0, 67, 64
2, 100416, Note_on_c, 0, 66, 66
2, 100508, Note_off_c, 0, 66, 64
2, 100512, Note_on_c, 0, 67, 66
2, 100604, Note_off_c, 0, 67, 64
2, 100608, Note_on_c, 0, 55, 66
2, 100700, Note_off_c, 0, 55, 64
2, 100704, Note_on_c, 0, 67, 66
2, 100796, Note_off_c, 0, 76, 64
2, 100796, Note_off_c, 0, 67, 64
2, 100800, Note_on_c, 0, 78, 66
2, 100800, Note_on_c, 0, 66, 66
2, 100892, Note_off_c, 0, 78, 64
2, 100892, Note_off_c, 0, 66, 64
2, 100896, Note_on_c, 0, 79, 66
2, 100896, Note_on_c, 0, 67, 66
2, 100988, Note_off_c, 0, 79, 64
2, 100988, Note_off_c, 0, 67, 64
2, 100992, Note_on_c, 0, 78, 66
2, 100992, Note_on_c, 0, 60, 66
2, 101084, Note_off_c, 0, 78, 64
2, 101084, Note_off_c, 0, 60, 64
2, 101088, Note_on_c, 0, 67, 66
2, 101180, Note_off_c, 0, 67, 64
2, 101184, Note_on_c, 0, 76, 66
2, 101184, Note_on_c, 0, 66, 66
2, 101276, Note_off_c, 0, 76, 64
2, 101276, Note_off_c, 0, 66, 64
2, 101280, Note_on_c, 0, 67, 66
2, 101372, Note_off_c, 0, 67, 64
2, 101376, Note_on_c, 0, 73, 66
2, 101376, Note_on_c, 0, 52, 66
2, 101376, Note_on_c, 0, 52, 66
2, 101468, Note_off_c, 0, 52, 64
2, 101472, Note_on_c, 0, 67, 66
2, 101564, Note_off_c, 0, 73, 64
2, 101564, Note_off_c, 0, 67, 64
2, 101568, Note_on_c, 0, 74, 66
2, 101568, Note_on_c, 0, 66, 66
2, 101660, Note_off_c, 0, 66, 64
2, 101664, Note_on_c, 0, 67, 66
2, 101756, Note_off_c, 0, 52, 64
2, 101756, Note_off_c, 0, 74, 64
2, 101756, Note_off_c, 0, 67, 64
2, 101760, Note_on_c, 0, 74, 66
2, 101760, Note_on_c, 0, 59, 66
2, 101760, Note_on_c, 0, 59, 66
2, 101852, Note_off_c, 0, 59, 64
2, 101856, Note_on_c, 0, 67, 66
2, 101948, Note_off_c, 0, 67, 64
2, 101952, Note_on_c, 0, 66, 66
2, 102044, Note_off_c, 0, 66, 64
2, 102048, Note_on_c, 0, 67, 66
2, 102140, Note_off_c, 0, 59, 64
2, 102140, Note_off_c, 0, 67, 64
2, 102144, Note_on_c, 0, 55, 73
2, 102144, Note_on_c, 0, 55, 73
2, 102236, Note_off_c, 0, 55, 64
2, 102240, Note_on_c, 0, 67, 73
2, 102332, Note_off_c, 0, 74, 64
2, 102332, Note_off_c, 0, 67, 64
2, 102336, Note_on_c, 0, 71, 74
2, 102336, Note_on_c, 0, 66, 74
2, 102428, Note_off_c, 0, 66, 64
2, 102432, Note_on_c, 0, 67, 77
2, 102524, Note_off_c, 0, 55, 64
2, 102524, Note_off_c, 0, 71, 64
2, 102524, Note_off_c, 0, 67, 64
2, 102528, Note_on_c, 0, 79, 80
2, 102528, Note_on_c, 0, 59, 80
2, 102528, Note_on_c, 0, 59, 80
2, 102620, Note_off_c, 0, 59, 64
2, 102624, Note_on_c, 0, 67, 88
2, 102716, Note_off_c, 0, 79, 64
2, 102716, Note_off_c, 0, 67, 64
2, 102720, Note_on_c, 0, 77, 91
2, 102720, Note_on_c, 0, 66, 91
2, 102812, Note_off_c, 0, 66, 64
2, 102816, Note_on_c, 0, 67, 94
2, 102908, Note_off_c, 0, 59, 64
2, 102908, Note_off_c, 0, 77, 64
2, 102908, Note_off_c, 0, 67, 64
2, 102912, Note_on_c, 0, 74, 94
2, 102912, Note_on_c, 0, 55, 94
2, 102912, Note_on_c, 0, 55, 94
2, 103004, Note_off_c, 0, 55, 64
2, 103008, Note_on_c, 0, 67, 94
2, 103100, Note_off_c, 0, 74, 64
2, 103100, Note_off_c, 0, 67, 64
2, 103104, Note_on_c, 0, 76, 94
2, 103104, Note_on_c, 0, 66, 94
2, 103196, Note_off_c, 0, 66, 64
2, 103200, Note_on_c, 0, 67, 94
2, 103292, Note_off_c, 0, 55, 64
2, 103292, Note_off_c, 0, 67, 64
2, 103296, Note_on_c, 0, 60, 94
2, 103296, Note_on_c, 0, 60, 94
2, 103388, Note_off_c, 0, 76, 64
2, 103388, Note_off_c, 0, 60, 64
2, 103392, Note_on_c, 0, 79, 94
2, 103392, Note_on_c, 0, 67, 94
2, 103484, Note_off_c, 0, 79, 64
2, 103484, Note_off_c, 0, 67, 64
2, 103488, Note_on_c, 0, 84, 94
2, 103488, Note_on_c, 0, 66, 94
2, 103580, Note_off_c, 0, 84, 64
2, 103580, Note_off_c, 0, 66, 64
2, 103584, Note_on_c, 0, 79, 94
2, 103584, Note_on_c, 0, 67, 94
2, 103676, Note_off_c, 0, 60, 64
2, 103676, Note_off_c, 0, 79, 64
2, 103676, Note_off_c, 0, 67, 64
2, 103680, Note_on_c, 0, 84, 94
2, 103680, Note_on_c, 0, 55, 94
2, 103680, Note_on_c, 0, 55, 94
2, 103772, Note_off_c, 0, 55, 64
2, 103776, Note_on_c, 0, 67, 94
2, 103868, Note_off_c, 0, 84, 64
2, 103868, Note_off_c, 0, 67, 64
2, 103872, Note_on_c, 0, 79, 94
2, 103872, Note_on_c, 0, 66, 94
2, 103964, Note_off_c, 0, 66, 64
2, 103968, Note_on_c, 0, 67, 94
2, 104060, Note_off_c, 0, 55, 64
2, 104060, Note_off_c, 0, 79, 64
2, 104060, Note_off_c, 0, 67, 64
2, 104064, Note_on_c, 0, 78, 94
2, 104064, Note_on_c, 0, 60, 94
2, 104064, Note_on_c, 0, 60, 94
2, 104156, Note_off_c, 0, 60, 64
2, 104160, Note_on_c, 0, 67, 94
2, 104252, Note_off_c, 0, 78, 64
2, 104252, Note_off_c, 0, 67, 64
2, 104256, Note_on_c, 0, 76, 94
2, 104256, Note_on_c, 0, 66, 94
2, 104348, Note_off_c, 0, 66, 64
2, 104352, Note_on_c, 0, 67, 94
2, 104444, Note_off_c, 0, 60, 64
2, 104444, Note_off_c, 0, 76, 64
2, 104444, Note_off_c, 0, 67, 64
2, 104448, Note_on_c, 0, 74, 94
2, 104448, Note_on_c, 0, 55, 94
2, 104448, Note_on_c, 0, 55, 94
2, 104540, Note_off_c, 0, 55, 64
2, 104544, Note_on_c, 0, 67, 94
2, 104636, Note_off_c, 0, 67, 64
2, 104640, Note_on_c, 0, 65, 94
2, 104732, Note_off_c, 0, 74, 64
2, 104732, Note_off_c, 0, 65, 64
2, 104736, Note_on_c, 0, 71, 94
2, 104736, Note_on_c, 0, 67, 94
2, 104828, Note_off_c, 0, 55, 64
2, 104828, Note_off_c, 0, 71, 64
2, 104828, Note_off_c, 0, 67, 64
2, 104832, Note_on_c, 0, 79, 94
2, 104832, Note_on_c, 0, 59, 94
2, 104832, Note_on_c, 0, 59, 94
2, 104924, Note_off_c, 0, 59, 64
2, 104928, Note_on_c, 0, 67, 94
2, 105020, Note_off_c, 0, 67, 64
2, 105024, Note_on_c, 0, 65, 94
2, 105116, Note_off_c, 0, 79, 64
2, 105116, Note_off_c, 0, 65, 64
2, 105120, Note_on_c, 0, 74, 94
2, 105120, Note_on_c, 0, 67, 94
2, 105212, Note_off_c, 0, 59, 64
2, 105212, Note_off_c, 0, 74, 64
2, 105212, Note_off_c, 0, 67, 64
2, 105216, Note_on_c, 0, 83, 94
2, 105216, Note_on_c, 0, 55, 94
2, 105308, Note_off_c, 0, 83, 64
2, 105312, Note_on_c, 0, 81, 94
2, 105404, Note_off_c, 0, 81, 64
2, 105408, Note_on_c, 0, 79, 94
2, 105500, Note_off_c, 0, 79, 64
2, 105504, Note_on_c, 0, 78, 94
2, 105596, Note_off_c, 0, 55, 64
2, 105596, Note_off_c, 0, 78, 64
2, 105600, Note_on_c, 0, 76, 94
2, 105692, Note_off_c, 0, 76, 64
2, 105696, Note_on_c, 0, 74, 94
2, 105788, Note_off_c, 0, 74, 64
2, 105792, Note_on_c, 0, 72, 94
2, 105884, Note_off_c, 0, 72, 64
2, 105888, Note_on_c, 0, 71, 94
2, 105980, Note_off_c, 0, 71, 64
2, 105984, Note_on_c, 0, 69, 94
2, 106076, Note_off_c, 0, 69, 64
2, 106080, Note_on_c, 0, 68, 94
2, 106172, Note_off_c, 0, 68, 64
2, 106176, Note_on_c, 0, 71, 94
2, 106268, Note_off_c, 0, 71, 64
2, 106272, Note_on_c, 0, 69, 94
2, 106364, Note_off_c, 0, 69, 64
2, 106368, Note_on_c, 0, 72, 92
2, 106460, Note_off_c, 0, 72, 64
2, 106464, Note_on_c, 0, 71, 91
2, 106556, Note_off_c, 0, 71, 64
2, 106560, Note_on_c, 0, 74, 89
2, 106652, Note_off_c, 0, 74, 64
2, 106656, Note_on_c, 0, 72, 85
2, 106748, Note_off_c, 0, 72, 64
2, 106752, Note_on_c, 0, 76, 82
2, 106844, Note_off_c, 0, 76, 64
2, 106848, Note_on_c, 0, 74, 80
2, 106940, Note_off_c, 0, 74, 64
2, 106944, Note_on_c, 0, 72, 78
2, 107036, Note_off_c, 0, 72, 64
2, 107040, Note_on_c, 0, 71, 77
2, 107132, Note_off_c, 0, 71, 64
2, 107136, Note_on_c, 0, 69, 75
2, 107228, Note_off_c, 0, 69, 64
2, 107232, Note_on_c, 0, 67, 73
2, 107324, Note_off_c, 0, 67, 64
2, 107328, Note_on_c, 0, 66, 70
2, 107420, Note_off_c, 0, 66, 64
2, 107424, Note_on_c, 0, 67, 68
2, 107516, Note_off_c, 0, 67, 64
2, 107520, Note_on_c, 0, 66, 71
2, 107900, Note_off_c, 0, 66, 64
2, 107904, Note_on_c, 0, 74, 71
2, 107996, Note_off_c, 0, 74, 64
2, 108096, Note_on_c, 0, 74, 71
2, 108188, Note_off_c, 0, 74, 64
2, 108288, Note_on_c, 0, 74, 71
2, 108860, Note_off_c, 0, 74, 64
2, 108864, Note_on_c, 0, 79, 71
2, 109052, Note_off_c, 0, 79, 64
2, 109056, Note_on_c, 0, 78, 71
2, 109100, Note_off_c, 0, 78, 64
2, 109104, Note_on_c, 0, 76, 71
2, 109152, Note_off_c, 0, 76, 64
2, 109152, Note_on_c, 0, 74, 71
2, 109296, Note_off_c, 0, 74, 64
2, 109440, Note_on_c, 0, 74, 71
2, 109532, Note_off_c, 0, 74, 64
2, 109632, Note_on_c, 0, 74, 71
2, 109724, Note_off_c, 0, 74, 64
2, 109824, Note_on_c, 0, 74, 71
2, 110396, Note_off_c, 0, 74, 64
2, 110400, Note_on_c, 0, 79, 71
2, 110588, Note_off_c, 0, 79, 64
2, 110592, Note_on_c, 0, 78, 81
2, 110636, Note_off_c, 0, 78, 64
2, 110640, Note_on_c, 0, 76, 71
2, 110688, Note_off_c, 0, 76, 64
2, 110688, Note_on_c, 0, 74, 71
2, 110972, Note_off_c, 0, 74, 64
2, 112128, Note_on_c, 0, 74, 66
2, 112316, Note_off_c, 0, 74, 64
2, 112320, Note_on_c, 0, 73, 66
2, 112508, Note_off_c, 0, 73, 64
2, 112512, Note_on_c, 0, 74, 66
2, 112700, Note_off_c, 0, 74, 64
2, 112704, Note_on_c, 0, 73, 66
2, 112892, Note_off_c, 0, 73, 64
2, 112896, Note_on_c, 0, 74, 66
2, 113468, Note_off_c, 0, 74, 64
2, 113472, Note_on_c, 0, 71, 66
2, 113660, Note_off_c, 0, 71, 64
2, 113664, Note_on_c, 0, 67, 66
2, 113664, Note_on_c, 0, 62, 66
2, 113756, Note_off_c, 0, 67, 64
2, 113756, Note_off_c, 0, 62, 64
2, 114048, Note_on_c, 0, 69, 75
2, 114048, Note_on_c, 0, 66, 75
2, 114140, Note_off_c, 0, 69, 64
2, 114140, Note_off_c, 0, 66, 64
2, 114432, Note_on_c, 0, 72, 84
2, 114432, Note_on_c, 0, 69, 84
2, 114476, Note_off_c, 0, 72, 64
2, 114476, Note_off_c, 0, 69, 64
2, 114480, Note_on_c, 0, 71, 84
2, 114480, Note_on_c, 0, 67, 84
2, 114572, Note_off_c, 0, 71, 64
2, 114572, Note_off_c, 0, 67, 64
2, 114816, Note_on_c, 0, 69, 75
2, 114816, Note_on_c, 0, 66, 75
2, 114908, Note_off_c, 0, 69, 64
2, 114908, Note_off_c, 0, 66, 64
2, 115200, Note_on_c, 0, 74, 66
2, 115388, Note_off_c, 0, 74, 64
2, 115392, Note_on_c, 0, 73, 66
2, 115580, Note_off_c, 0, 73, 64
2, 115584, Note_on_c, 0, 74, 66
2, 115772, Note_off_c, 0, 74, 64
2, 115776, Note_on_c, 0, 73, 66
2, 115964, Note_off_c, 0, 73, 64
2, 115968, Note_on_c, 0, 74, 73
2, 116540, Note_off_c, 0, 74, 64
2, 116544, Note_on_c, 0, 76, 81
2, 116732, Note_off_c, 0, 76, 64
2, 116736, Note_on_c, 0, 69, 66
2, 116736, Note_on_c, 0, 66, 66
2, 116828, Note_off_c, 0, 69, 64
2, 116828, Note_off_c, 0, 66, 64
2, 117120, Note_on_c, 0, 71, 75
2, 117120, Note_on_c, 0, 67, 75
2, 117212, Note_off_c, 0, 71, 64
2, 117212, Note_off_c, 0, 67, 64
2, 117504, Note_on_c, 0, 74, 84
2, 117504, Note_on_c, 0, 71, 84
2, 117548, Note_off_c, 0, 74, 64
2, 117548, Note_off_c, 0, 71, 64
2, 117552, Note_on_c, 0, 72, 84
2, 117552, Note_on_c, 0, 69, 84
2, 117644, Note_off_c, 0, 72, 64
2, 117644, Note_off_c, 0, 69, 64
2, 117888, Note_on_c, 0, 71, 75
2, 117888, Note_on_c, 0, 67, 75
2, 117980, Note_off_c, 0, 71, 64
2, 117980, Note_off_c, 0, 67, 64
2, 118272, Note_on_c, 0, 79, 94
2, 118460, Note_off_c, 0, 79, 64
2, 118464, Note_on_c, 0, 78, 94
2, 118652, Note_off_c, 0, 78, 64
2, 118656, Note_on_c, 0, 79, 74
2, 118844, Note_off_c, 0, 79, 64
2, 118848, Note_on_c, 0, 78, 77
2, 119036, Note_off_c, 0, 78, 64
2, 119040, Note_on_c, 0, 79, 80
2, 119040, Note_on_c, 0, 59, 80
2, 119132, Note_off_c, 0, 59, 64
2, 119136, Note_on_c, 0, 67, 81
2, 119228, Note_off_c, 0, 67, 64
2, 119232, Note_on_c, 0, 66, 82
2, 119324, Note_off_c, 0, 66, 64
2, 119328, Note_on_c, 0, 67, 85
2, 119420, Note_off_c, 0, 67, 64
2, 119424, Note_on_c, 0, 59, 88
2, 119516, Note_off_c, 0, 59, 64
2, 119520, Note_on_c, 0, 67, 89
2, 119612, Note_off_c, 0, 79, 64
2, 119612, Note_off_c, 0, 67, 64
2, 119616, Note_on_c, 0, 81, 91
2, 119616, Note_on_c, 0, 66, 91
2, 119708, Note_off_c, 0, 66, 64
2, 119712, Note_on_c, 0, 67, 92
2, 119804, Note_off_c, 0, 81, 64
2, 119804, Note_off_c, 0, 67, 64
2, 119808, Note_on_c, 0, 79, 94
2, 119808, Note_on_c, 0, 59, 94
2, 119900, Note_off_c, 0, 59, 64
2, 119904, Note_on_c, 0, 67, 94
2, 119996, Note_off_c, 0, 79, 64
2, 119996, Note_off_c, 0, 67, 64
2, 120000, Note_on_c, 0, 77, 92
2, 120000, Note_on_c, 0, 66, 92
2, 120092, Note_off_c, 0, 66, 64
2, 120096, Note_on_c, 0, 67, 91
2, 120188, Note_off_c, 0, 77, 64
2, 120188, Note_off_c, 0, 67, 64
2, 120192, Note_on_c, 0, 76, 89
2, 120192, Note_on_c, 0, 59, 89
2, 120284, Note_off_c, 0, 59, 64
2, 120288, Note_on_c, 0, 67, 88
2, 120380, Note_off_c, 0, 76, 64
2, 120380, Note_off_c, 0, 67, 64
2, 120384, Note_on_c, 0, 75, 84
2, 120384, Note_on_c, 0, 66, 84
2, 120476, Note_off_c, 0, 66, 64
2, 120480, Note_on_c, 0, 67, 82
2, 120572, Note_off_c, 0, 75, 64
2, 120572, Note_off_c, 0, 67, 64
2, 120576, Note_on_c, 0, 75, 80
2, 120576, Note_on_c, 0, 59, 80
2, 120668, Note_off_c, 0, 59, 64
2, 120672, Note_on_c, 0, 67, 78
2, 120764, Note_off_c, 0, 67, 64
2, 120768, Note_on_c, 0, 66, 77
2, 120860, Note_off_c, 0, 66, 64
2, 120864, Note_on_c, 0, 67, 75
2, 120956, Note_off_c, 0, 75, 64
2, 120956, Note_off_c, 0, 67, 64
2, 120960, Note_on_c, 0, 76, 74
2, 120960, Note_on_c, 0, 59, 74
2, 121052, Note_off_c, 0, 59, 64
2, 121056, Note_on_c, 0, 67, 71
2, 121148, Note_off_c, 0, 76, 64
2, 121148, Note_off_c, 0, 67, 64
2, 121152, Note_on_c, 0, 66, 70
2, 121244, Note_off_c, 0, 66, 64
2, 121248, Note_on_c, 0, 67, 68
2, 121340, Note_off_c, 0, 67, 64
2, 121344, Note_on_c, 0, 76, 66
2, 121344, Note_on_c, 0, 67, 66
2, 121344, Note_on_c, 0, 60, 66
2, 121400, Note_off_c, 0, 76, 64
2, 121408, Note_on_c, 0, 78, 66
2, 121464, Note_off_c, 0, 78, 64
2, 121472, Note_on_c, 0, 79, 66
2, 121724, Note_off_c, 0, 67, 64
2, 121724, Note_off_c, 0, 60, 64
2, 121724, Note_off_c, 0, 79, 64
2, 121728, Note_on_c, 0, 78, 66
2, 121820, Note_off_c, 0, 78, 64
2, 121824, Note_on_c, 0, 76, 66
2, 121916, Note_off_c, 0, 76, 64
2, 121920, Note_on_c, 0, 74, 66
2, 122012, Note_off_c, 0, 74, 64
2, 122016, Note_on_c, 0, 72, 66
2, 122108, Note_off_c, 0, 72, 64
2, 122112, Note_on_c, 0, 72, 66
2, 122112, Note_on_c, 0, 64, 66
2, 122112, Note_on_c, 0, 60, 66
2, 122168, Note_off_c, 0, 72, 64
2, 122176, Note_on_c, 0, 74, 66
2, 122232, Note_off_c, 0, 74, 64
2, 122240, Note_on_c, 0, 76, 66
2, 122492, Note_off_c, 0, 64, 64
2, 122492, Note_off_c, 0, 60, 64
2, 122492, Note_off_c, 0, 76, 64
2, 122496, Note_on_c, 0, 74, 66
2, 122588, Note_off_c, 0, 74, 64
2, 122592, Note_on_c, 0, 72, 66
2, 122684, Note_off_c, 0, 72, 64
2, 122688, Note_on_c, 0, 71, 66
2, 122780, Note_off_c, 0, 71, 64
2, 122784, Note_on_c, 0, 69, 66
2, 122876, Note_off_c, 0, 69, 64
2, 122880, Note_on_c, 0, 68, 66
2, 123068, Note_off_c, 0, 68, 64
2, 123072, Note_on_c, 0, 69, 66
2, 123260, Note_off_c, 0, 69, 64
2, 123264, Note_on_c, 0, 72, 66
2, 123452, Note_off_c, 0, 72, 64
2, 123456, Note_on_c, 0, 69, 66
2, 123644, Note_off_c, 0, 69, 64
2, 123648, Note_on_c, 0, 67, 66
2, 124028, Note_off_c, 0, 67, 64
2, 124032, Note_on_c, 0, 71, 66
2, 124220, Note_off_c, 0, 71, 64
2, 124224, Note_on_c, 0, 69, 66
2, 124412, Note_off_c, 0, 69, 64
2, 124416, Note_on_c, 0, 67, 66
2, 124508, Note_off_c, 0, 67, 64
2, 124512, Note_on_c, 0, 79, 66
2, 124604, Note_off_c, 0, 79, 64
2, 124608, Note_on_c, 0, 78, 66
2, 124700, Note_off_c, 0, 78, 64
2, 124704, Note_on_c, 0, 79, 66
2, 124796, Note_off_c, 0, 79, 64
2, 124800, Note_on_c, 0, 81, 66
2, 124892, Note_off_c, 0, 81, 64
2, 124896, Note_on_c, 0, 79, 66
2, 124988, Note_off_c, 0, 79, 64
2, 124992, Note_on_c, 0, 78, 66
2, 125084, Note_off_c, 0, 78, 64
2, 125088, Note_on_c, 0, 79, 66
2, 125180, Note_off_c, 0, 79, 64
2, 125184, Note_on_c, 0, 83, 66
2, 125276, Note_off_c, 0, 83, 64
2, 125280, Note_on_c, 0, 79, 66
2, 125372, Note_off_c, 0, 79, 64
2, 125376, Note_on_c, 0, 78, 66
2, 125468, Note_off_c, 0, 78, 64
2, 125472, Note_on_c, 0, 79, 66
2, 125564, Note_off_c, 0, 79, 64
2, 125568, Note_on_c, 0, 74, 66
2, 125568, Note_on_c, 0, 74, 66
2, 125568, Note_on_c, 0, 71, 66
2, 125568, Note_on_c, 0, 71, 66
2, 125660, Note_off_c, 0, 74, 64
2, 125660, Note_off_c, 0, 74, 64
2, 125660, Note_off_c, 0, 71, 64
2, 125660, Note_off_c, 0, 71, 64
2, 125664, Note_on_c, 0, 79, 66
2, 125756, Note_off_c, 0, 79, 64
2, 125760, Note_on_c, 0, 76, 66
2, 125760, Note_on_c, 0, 76, 66
2, 125760, Note_on_c, 0, 72, 66
2, 125852, Note_off_c, 0, 76, 64
2, 125852, Note_off_c, 0, 76, 64
2, 125852, Note_off_c, 0, 72, 64
2, 125856, Note_on_c, 0, 79, 66
2, 125948, Note_off_c, 0, 79, 64
2, 125952, Note_on_c, 0, 71, 67
2, 125952, Note_on_c, 0, 74, 67
2, 126044, Note_off_c, 0, 74, 64
2, 126048, Note_on_c, 0, 79, 70
2, 126140, Note_off_c, 0, 71, 64
2, 126140, Note_off_c, 0, 79, 64
2, 126144, Note_on_c, 0, 78, 74
2, 126144, Note_on_c, 0, 74, 74
2, 126236, Note_off_c, 0, 78, 64
2, 126236, Note_off_c, 0, 74, 64
2, 126240, Note_on_c, 0, 79, 78
2, 126332, Note_off_c, 0, 79, 64
2, 126336, Note_on_c, 0, 81, 81
2, 126428, Note_off_c, 0, 81, 64
2, 126432, Note_on_c, 0, 79, 85
2, 126524, Note_off_c, 0, 79, 64
2, 126528, Note_on_c, 0, 78, 91
2, 126620, Note_off_c, 0, 78, 64
2, 126624, Note_on_c, 0, 79, 94
2, 126716, Note_off_c, 0, 79, 64
2, 126720, Note_on_c, 0, 83, 94
2, 126812, Note_off_c, 0, 83, 64
2, 126816, Note_on_c, 0, 79, 91
2, 126908, Note_off_c, 0, 79, 64
2, 126912, Note_on_c, 0, 78, 88
2, 127004, Note_off_c, 0, 78, 64
2, 127008, Note_on_c, 0, 79, 82
2, 127100, Note_off_c, 0, 79, 64
2, 127104, Note_on_c, 0, 71, 79
2, 127104, Note_on_c, 0, 71, 79
2, 127104, Note_on_c, 0, 62, 79
2, 127104, Note_on_c, 0, 59, 79
2, 127196, Note_off_c, 0, 71, 64
2, 127196, Note_off_c, 0, 71, 64
2, 127196, Note_off_c, 0, 62, 64
2, 127196, Note_off_c, 0, 59, 64
2, 127200, Note_on_c, 0, 79, 75
2, 127292, Note_off_c, 0, 79, 64
2, 127296, Note_on_c, 0, 72, 73
2, 127296, Note_on_c, 0, 72, 73
2, 127296, Note_on_c, 0, 64, 73
2, 127296, Note_on_c, 0, 60, 73
2, 127388, Note_off_c, 0, 72, 64
2, 127388, Note_off_c, 0, 72, 64
2, 127388, Note_off_c, 0, 64, 64
2, 127388, Note_off_c, 0, 60, 64
2, 127392, Note_on_c, 0, 79, 69
2, 127484, Note_off_c, 0, 79, 64
2, 127488, Note_on_c, 0, 62, 67
2, 127488, Note_on_c, 0, 71, 67
2, 127580, Note_off_c, 0, 71, 64
2, 127584, Note_on_c, 0, 79, 70
2, 127676, Note_off_c, 0, 79, 64
2, 127680, Note_on_c, 0, 78, 74
2, 127772, Note_off_c, 0, 78, 64
2, 127776, Note_on_c, 0, 79, 78
2, 127868, Note_off_c, 0, 62, 64
2, 127868, Note_off_c, 0, 79, 64
2, 127872, Note_on_c, 0, 81, 81
2, 127964, Note_off_c, 0, 81, 64
2, 127968, Note_on_c, 0, 79, 85
2, 128060, Note_off_c, 0, 79, 64
2, 128064, Note_on_c, 0, 78, 91
2, 128156, Note_off_c, 0, 78, 64
2, 128160, Note_on_c, 0, 79, 94
2, 128252, Note_off_c, 0, 79, 64
2, 128256, Note_on_c, 0, 83, 94
2, 128348, Note_off_c, 0, 83, 64
2, 128352, Note_on_c, 0, 79, 91
2, 128444, Note_off_c, 0, 79, 64
2, 128448, Note_on_c, 0, 78, 88
2, 128540, Note_off_c, 0, 78, 64
2, 128544, Note_on_c, 0, 79, 82
2, 128636, Note_off_c, 0, 79, 64
2, 128640, Note_on_c, 0, 74, 79
2, 128640, Note_on_c, 0, 74, 79
2, 128732, Note_off_c, 0, 74, 64
2, 128732, Note_off_c, 0, 74, 64
2, 128736, Note_on_c, 0, 79, 75
2, 128828, Note_off_c, 0, 79, 64
2, 128832, Note_on_c, 0, 76, 73
2, 128832, Note_on_c, 0, 76, 73
2, 128924, Note_off_c, 0, 76, 64
2, 128924, Note_off_c, 0, 76, 64
2, 128928, Note_on_c, 0, 79, 69
2, 129020, Note_off_c, 0, 79, 64
2, 129024, Note_on_c, 0, 74, 66
2, 129024, Note_on_c, 0, 59, 66
2, 129116, Note_off_c, 0, 59, 64
2, 129120, Note_on_c, 0, 67, 66
2, 129212, Note_off_c, 0, 67, 64
2, 129216, Note_on_c, 0, 62, 66
2, 129308, Note_off_c, 0, 62, 64
2, 129312, Note_on_c, 0, 67, 66
2, 129404, Note_off_c, 0, 74, 64
2, 129404, Note_off_c, 0, 67, 64
2, 129408, Note_on_c, 0, 86, 81
2, 129408, Note_on_c, 0, 59, 81
2, 129500, Note_off_c, 0, 59, 64
2, 129504, Note_on_c, 0, 67, 66
2, 129596, Note_off_c, 0, 67, 64
2, 129600, Note_on_c, 0, 62, 66
2, 129692, Note_off_c, 0, 62, 64
2, 129696, Note_on_c, 0, 67, 66
2, 129788, Note_off_c, 0, 86, 64
2, 129788, Note_off_c, 0, 67, 64
2, 129792, Note_on_c, 0, 84, 71
2, 129792, Note_on_c, 0, 59, 66
2, 129884, Note_off_c, 0, 59, 64
2, 129888, Note_on_c, 0, 67, 66
2, 129980, Note_off_c, 0, 84, 64
2, 129980, Note_off_c, 0, 67, 64
2, 129984, Note_on_c, 0, 83, 66
2, 129984, Note_on_c, 0, 62, 66
2, 130076, Note_off_c, 0, 62, 64
2, 130080, Note_on_c, 0, 67, 66
2, 130172, Note_off_c, 0, 83, 64
2, 130172, Note_off_c, 0, 67, 64
2, 130176, Note_on_c, 0, 81, 66
2, 130176, Note_on_c, 0, 59, 66
2, 130268, Note_off_c, 0, 59, 64
2, 130272, Note_on_c, 0, 67, 66
2, 130364, Note_off_c, 0, 81, 64
2, 130364, Note_off_c, 0, 67, 64
2, 130368, Note_on_c, 0, 79, 66
2, 130368, Note_on_c, 0, 62, 66
2, 130460, Note_off_c, 0, 62, 64
2, 130464, Note_on_c, 0, 67, 66
2, 130556, Note_off_c, 0, 79, 64
2, 130556, Note_off_c, 0, 67, 64
2, 130560, Note_on_c, 0, 78, 66
2, 130560, Note_on_c, 0, 60, 66
2, 130652, Note_off_c, 0, 60, 64
2, 130656, Note_on_c, 0, 67, 66
2, 130748, Note_off_c, 0, 78, 64
2, 130748, Note_off_c, 0, 67, 64
2, 130752, Note_on_c, 0, 62, 66
2, 130752, Note_on_c, 0, 76, 66
2, 130844, Note_off_c, 0, 62, 64
2, 130848, Note_on_c, 0, 67, 66
2, 130940, Note_off_c, 0, 76, 64
2, 130940, Note_off_c, 0, 67, 64
2, 130944, Note_on_c, 0, 76, 66
2, 130944, Note_on_c, 0, 60, 66
2, 131036, Note_off_c, 0, 60, 64
2, 131040, Note_on_c, 0, 67, 66
2, 131132, Note_off_c, 0, 67, 64
2, 131136, Note_on_c, 0, 62, 66
2, 131228, Note_off_c, 0, 62, 64
2, 131232, Note_on_c, 0, 67, 66
2, 131324, Note_off_c, 0, 67, 64
2, 131516, Note_off_c, 0, 76, 64
2, 131520, Note_on_c, 0, 79, 66
2, 131708, Note_off_c, 0, 79, 64
2, 131712, Note_on_c, 0, 78, 66
2, 131900, Note_off_c, 0, 78, 64
2, 131904, Note_on_c, 0, 76, 66
2, 132092, Note_off_c, 0, 76, 64
2, 132096, Note_on_c, 0, 74, 66
2, 132284, Note_off_c, 0, 74, 64
2, 132288, Note_on_c, 0, 76, 66
2, 132380, Note_off_c, 0, 76, 64
2, 132384, Note_on_c, 0, 74, 66
2, 132476, Note_off_c, 0, 74, 64
2, 132480, Note_on_c, 0, 72, 67
2, 132572, Note_off_c, 0, 72, 64
2, 132576, Note_on_c, 0, 71, 69
2, 132668, Note_off_c, 0, 71, 64
2, 132672, Note_on_c, 0, 69, 71
2, 132764, Note_off_c, 0, 69, 64
2, 132768, Note_on_c, 0, 67, 74
2, 132860, Note_off_c, 0, 67, 64
2, 132864, Note_on_c, 0, 69, 77
2, 132908, Note_off_c, 0, 69, 64
2, 132912, Note_on_c, 0, 71, 78
2, 132956, Note_off_c, 0, 71, 64
2, 132960, Note_on_c, 0, 69, 79
2, 133004, Note_off_c, 0, 69, 64
2, 133008, Note_on_c, 0, 71, 80
2, 133052, Note_off_c, 0, 71, 64
2, 133056, Note_on_c, 0, 69, 81
2, 133100, Note_off_c, 0, 69, 64
2, 133104, Note_on_c, 0, 71, 82
2, 133148, Note_off_c, 0, 71, 64
2, 133152, Note_on_c, 0, 69, 84
2, 133196, Note_off_c, 0, 69, 64
2, 133200, Note_on_c, 0, 71, 85
2, 133244, Note_off_c, 0, 71, 64
2, 133248, Note_on_c, 0, 69, 89
2, 133292, Note_off_c, 0, 69, 64
2, 133296, Note_on_c, 0, 71, 90
2, 133340, Note_off_c, 0, 71, 64
2, 133344, Note_on_c, 0, 69, 91
2, 133388, Note_off_c, 0, 69, 64
2, 133392, Note_on_c, 0, 71, 92
2, 133436, Note_off_c, 0, 71, 64
2, 133440, Note_on_c, 0, 67, 93
2, 133532, Note_off_c, 0, 67, 64
2, 133536, Note_on_c, 0, 69, 94
2, 133628, Note_off_c, 0, 69, 64
2, 133632, Note_on_c, 0, 71, 67
2, 133724, Note_off_c, 0, 71, 64
2, 133728, Note_on_c, 0, 67, 69
2, 133820, Note_off_c, 0, 67, 64
2, 133824, Note_on_c, 0, 69, 71
2, 133916, Note_off_c, 0, 69, 64
2, 133920, Note_on_c, 0, 71, 74
2, 134012, Note_off_c, 0, 71, 64
2, 134016, Note_on_c, 0, 72, 75
2, 134108, Note_off_c, 0, 72, 64
2, 134112, Note_on_c, 0, 74, 78
2, 134204, Note_off_c, 0, 74, 64
2, 134208, Note_on_c, 0, 76, 80
2, 134300, Note_off_c, 0, 76, 64
2, 134304, Note_on_c, 0, 78, 82
2, 134396, Note_off_c, 0, 78, 64
2, 134400, Note_on_c, 0, 79, 85
2, 134492, Note_off_c, 0, 79, 64
2, 134496, Note_on_c, 0, 81, 89
2, 134588, Note_off_c, 0, 81, 64
2, 134592, Note_on_c, 0, 83, 91
2, 134684, Note_off_c, 0, 83, 64
2, 134688, Note_on_c, 0, 84, 93
2, 134780, Note_off_c, 0, 84, 64
2, 134784, Note_on_c, 0, 86, 94
2, 134876, Note_off_c, 0, 86, 64
2, 134976, Note_on_c, 0, 77, 79
2, 135068, Note_off_c, 0, 77, 64
2, 135168, Note_on_c, 0, 76, 66
2, 135260, Note_off_c, 0, 76, 64
2, 135264, Note_on_c, 0, 81, 66
2, 135356, Note_off_c, 0, 81, 64
2, 135360, Note_on_c, 0, 80, 66
2, 135452, Note_off_c, 0, 80, 64
2, 135456, Note_on_c, 0, 81, 66
2, 135548, Note_off_c, 0, 81, 64
2, 135552, Note_on_c, 0, 83, 66
2, 135644, Note_off_c, 0, 83, 64
2, 135648, Note_on_c, 0, 81, 66
2, 135740, Note_off_c, 0, 81, 64
2, 135744, Note_on_c, 0, 80, 66
2, 135836, Note_off_c, 0, 80, 64
2, 135840, Note_on_c, 0, 81, 66
2, 135932, Note_off_c, 0, 81, 64
2, 135936, Note_on_c, 0, 84, 67
2, 136028, Note_off_c, 0, 84, 64
2, 136032, Note_on_c, 0, 81, 70
2, 136124, Note_off_c, 0, 81, 64
2, 136128, Note_on_c, 0, 80, 74
2, 136220, Note_off_c, 0, 80, 64
2, 136224, Note_on_c, 0, 81, 77
2, 136316, Note_off_c, 0, 81, 64
2, 136320, Note_on_c, 0, 83, 80
2, 136412, Note_off_c, 0, 83, 64
2, 136416, Note_on_c, 0, 81, 84
2, 136508, Note_off_c, 0, 81, 64
2, 136512, Note_on_c, 0, 80, 89
2, 136604, Note_off_c, 0, 80, 64
2, 136608, Note_on_c, 0, 81, 92
2, 136700, Note_off_c, 0, 81, 64
2, 136704, Note_on_c, 0, 62, 94
2, 136708, Note_on_c, 0, 83, 94
2, 136796, Note_off_c, 0, 62, 64
2, 136800, Note_on_c, 0, 71, 94
2, 136892, Note_off_c, 0, 71, 64
2, 136896, Note_on_c, 0, 67, 94
2, 136988, Note_off_c, 0, 67, 64
2, 136992, Note_off_c, 0, 83, 64
2, 136992, Note_on_c, 0, 79, 94
2, 136992, Note_on_c, 0, 71, 94
2, 137084, Note_off_c, 0, 79, 64
2, 137084, Note_off_c, 0, 71, 64
2, 137088, Note_on_c, 0, 86, 105
2, 137088, Note_on_c, 0, 62, 105
2, 137180, Note_off_c, 0, 62, 64
2, 137184, Note_on_c, 0, 71, 94
2, 137276, Note_off_c, 0, 71, 64
2, 137280, Note_on_c, 0, 67, 94
2, 137372, Note_off_c, 0, 67, 64
2, 137376, Note_on_c, 0, 71, 94
2, 137468, Note_off_c, 0, 71, 64
2, 137472, Note_on_c, 0, 62, 94
2, 137564, Note_off_c, 0, 62, 64
2, 137568, Note_on_c, 0, 71, 94
2, 137660, Note_off_c, 0, 71, 64
2, 137664, Note_on_c, 0, 67, 94
2, 137756, Note_off_c, 0, 67, 64
2, 137760, Note_on_c, 0, 71, 94
2, 137852, Note_off_c, 0, 86, 64
2, 137852, Note_off_c, 0, 71, 64
2, 137856, Note_on_c, 0, 84, 94
2, 137856, Note_on_c, 0, 62, 94
2, 137948, Note_off_c, 0, 84, 64
2, 137948, Note_off_c, 0, 62, 64
2, 137952, Note_on_c, 0, 83, 94
2, 137952, Note_on_c, 0, 71, 94
2, 138044, Note_off_c, 0, 83, 64
2, 138044, Note_off_c, 0, 71, 64
2, 138048, Note_on_c, 0, 81, 94
2, 138048, Note_on_c, 0, 67, 94
2, 138140, Note_off_c, 0, 81, 64
2, 138140, Note_off_c, 0, 67, 64
2, 138144, Note_on_c, 0, 79, 94
2, 138144, Note_on_c, 0, 71, 94
2, 138236, Note_off_c, 0, 79, 64
2, 138236, Note_off_c, 0, 71, 64
2, 138240, Note_on_c, 0, 62, 94
2, 138240, Note_on_c, 0, 62, 94
2, 138240, Note_on_c, 0, 81, 94
2, 138284, Note_off_c, 0, 81, 64
2, 138288, Note_on_c, 0, 83, 94
2, 138332, Note_off_c, 0, 62, 64
2, 138332, Note_off_c, 0, 83, 64
2, 138336, Note_on_c, 0, 81, 94
2, 138336, Note_on_c, 0, 72, 94
2, 138380, Note_off_c, 0, 81, 64
2, 138384, Note_on_c, 0, 83, 94
2, 138428, Note_off_c, 0, 72, 64
2, 138428, Note_off_c, 0, 83, 64
2, 138432, Note_on_c, 0, 81, 94
2, 138432, Note_on_c, 0, 66, 94
2, 138476, Note_off_c, 0, 81, 64
2, 138480, Note_on_c, 0, 83, 94
2, 138524, Note_off_c, 0, 66, 64
2, 138524, Note_off_c, 0, 83, 64
2, 138528, Note_on_c, 0, 81, 94
2, 138528, Note_on_c, 0, 72, 94
2, 138572, Note_off_c, 0, 81, 64
2, 138576, Note_on_c, 0, 83, 94
2, 138620, Note_off_c, 0, 72, 64
2, 138620, Note_off_c, 0, 83, 64
2, 138624, Note_on_c, 0, 62, 94
2, 138624, Note_on_c, 0, 81, 94
2, 138668, Note_off_c, 0, 81, 64
2, 138672, Note_on_c, 0, 83, 94
2, 138716, Note_off_c, 0, 62, 64
2, 138716, Note_off_c, 0, 83, 64
2, 138720, Note_on_c, 0, 81, 94
2, 138720, Note_on_c, 0, 72, 94
2, 138764, Note_off_c, 0, 81, 64
2, 138768, Note_on_c, 0, 83, 94
2, 138812, Note_off_c, 0, 62, 64
2, 138812, Note_off_c, 0, 72, 64
2, 138812, Note_off_c, 0, 83, 64
2, 138816, Note_on_c, 0, 81, 94
2, 138816, Note_on_c, 0, 66, 94
2, 138860, Note_off_c, 0, 81, 64
2, 138864, Note_on_c, 0, 83, 94
2, 138908, Note_off_c, 0, 66, 64
2, 138908, Note_off_c, 0, 83, 64
2, 138912, Note_on_c, 0, 81, 94
2, 138912, Note_on_c, 0, 72, 94
2, 138956, Note_off_c, 0, 81, 64
2, 138960, Note_on_c, 0, 83, 94
2, 139004, Note_off_c, 0, 72, 64
2, 139004, Note_off_c, 0, 83, 64
2, 139008, Note_on_c, 0, 62, 94
2, 139008, Note_on_c, 0, 81, 94
2, 139052, Note_off_c, 0, 81, 64
2, 139056, Note_on_c, 0, 83, 94
2, 139100, Note_off_c, 0, 62, 64
2, 139100, Note_off_c, 0, 83, 64
2, 139104, Note_on_c, 0, 81, 94
2, 139104, Note_on_c, 0, 72, 94
2, 139148, Note_off_c, 0, 81, 64
2, 139152, Note_on_c, 0, 83, 94
2, 139196, Note_off_c, 0, 72, 64
2, 139196, Note_off_c, 0, 83, 64
2, 139200, Note_on_c, 0, 66, 94
2, 139200, Note_on_c, 0, 81, 94
2, 139244, Note_off_c, 0, 81, 64
2, 139248, Note_on_c, 0, 83, 94
2, 139292, Note_off_c, 0, 66, 64
2, 139292, Note_off_c, 0, 83, 64
2, 139296, Note_on_c, 0, 81, 94
2, 139296, Note_on_c, 0, 72, 94
2, 139340, Note_off_c, 0, 81, 64
2, 139344, Note_on_c, 0, 83, 94
2, 139388, Note_off_c, 0, 72, 64
2, 139388, Note_off_c, 0, 83, 64
2, 139392, Note_on_c, 0, 62, 94
2, 139392, Note_on_c, 0, 81, 94
2, 139436, Note_off_c, 0, 81, 64
2, 139440, Note_on_c, 0, 83, 94
2, 139484, Note_off_c, 0, 62, 64
2, 139484, Note_off_c, 0, 83, 64
2, 139488, Note_on_c, 0, 81, 94
2, 139488, Note_on_c, 0, 72, 94
2, 139532, Note_off_c, 0, 81, 64
2, 139536, Note_on_c, 0, 83, 94
2, 139580, Note_off_c, 0, 72, 64
2, 139580, Note_off_c, 0, 83, 64
2, 139584, Note_on_c, 0, 79, 94
2, 139584, Note_on_c, 0, 66, 94
2, 139676, Note_off_c, 0, 79, 64
2, 139676, Note_off_c, 0, 66, 64
2, 139680, Note_on_c, 0, 81, 94
2, 139680, Note_on_c, 0, 72, 94
2, 139772, Note_off_c, 0, 81, 64
2, 139772, Note_off_c, 0, 72, 64
2, 139776, Note_on_c, 0, 79, 110
2, 139776, Note_on_c, 0, 71, 110
2, 139776, Note_on_c, 0, 67, 110
2, 140156, Note_off_c, 0, 79, 64
2, 140156, Note_off_c, 0, 71, 64
2, 140156, Note_off_c, 0, 67, 64
2, 152448, Note_on_c, 0, 74, 66
2, 152448, Note_on_c, 0, 71, 66
2, 152540, Note_off_c, 0, 74, 64
2, 152540, Note_off_c, 0, 71, 64
2, 152544, Note_on_c, 0, 72, 66
2, 152544, Note_on_c, 0, 69, 66
2, 152636, Note_off_c, 0, 72, 64
2, 152636, Note_off_c, 0, 69, 64
2, 152640, Note_on_c, 0, 71, 66
2, 152640, Note_on_c, 0, 74, 66
2, 152732, Note_off_c, 0, 71, 64
2, 152732, Note_off_c, 0, 74, 64
2, 152736, Note_on_c, 0, 76, 66
2, 152736, Note_on_c, 0, 67, 66
2, 152828, Note_off_c, 0, 76, 64
2, 152828, Note_off_c, 0, 67, 64
2, 152832, Note_on_c, 0, 72, 66
2, 152832, Note_on_c, 0, 69, 66
2, 152924, Note_off_c, 0, 72, 64
2, 152924, Note_off_c, 0, 69, 64
2, 153216, Note_on_c, 0, 72, 66
2, 153216, Note_on_c, 0, 69, 66
2, 153308, Note_off_c, 0, 72, 64
2, 153308, Note_off_c, 0, 69, 64
2, 153312, Note_on_c, 0, 71, 66
2, 153312, Note_on_c, 0, 67, 66
2, 153404, Note_off_c, 0, 71, 64
2, 153404, Note_off_c, 0, 67, 64
2, 153408, Note_on_c, 0, 72, 66
2, 153408, Note_on_c, 0, 69, 66
2, 153500, Note_off_c, 0, 72, 64
2, 153500, Note_off_c, 0, 69, 64
2, 153504, Note_on_c, 0, 74, 66
2, 153504, Note_on_c, 0, 66, 66
2, 153596, Note_off_c, 0, 74, 64
2, 153596, Note_off_c, 0, 66, 64
2, 153600, Note_on_c, 0, 71, 66
2, 153600, Note_on_c, 0, 67, 66
2, 153692, Note_off_c, 0, 71, 64
2, 153692, Note_off_c, 0, 67, 64
2, 153984, Note_on_c, 0, 71, 94
2, 153984, Note_on_c, 0, 79, 94
2, 154076, Note_off_c, 0, 79, 64
2, 154080, Note_on_c, 0, 78, 94
2, 154172, Note_off_c, 0, 71, 64
2, 154172, Note_off_c, 0, 78, 64
2, 154176, Note_on_c, 0, 79, 94
2, 154268, Note_off_c, 0, 79, 64
2, 154272, Note_on_c, 0, 83, 94
2, 154364, Note_off_c, 0, 83, 64
2, 154368, Note_on_c, 0, 72, 93
2, 154368, Note_on_c, 0, 81, 93
2, 154460, Note_off_c, 0, 81, 64
2, 154464, Note_on_c, 0, 79, 90
2, 154556, Note_off_c, 0, 72, 64
2, 154556, Note_off_c, 0, 79, 64
2, 154560, Note_on_c, 0, 81, 85
2, 154652, Note_off_c, 0, 81, 64
2, 154656, Note_on_c, 0, 84, 82
2, 154748, Note_off_c, 0, 84, 64
2, 154752, Note_on_c, 0, 74, 79
2, 154752, Note_on_c, 0, 78, 79
2, 154844, Note_off_c, 0, 78, 64
2, 154848, Note_on_c, 0, 76, 75
2, 154940, Note_off_c, 0, 74, 64
2, 154940, Note_off_c, 0, 76, 64
2, 154944, Note_on_c, 0, 78, 73
2, 155036, Note_off_c, 0, 78, 64
2, 155040, Note_on_c, 0, 81, 69
2, 155132, Note_off_c, 0, 81, 64
2, 155136, Note_on_c, 0, 79, 75
2, 155708, Note_off_c, 0, 79, 64
2, 155712, Note_on_c, 0, 74, 79
2, 155900, Note_off_c, 0, 74, 64
2, 155904, Note_on_c, 0, 83, 90
2, 156476, Note_off_c, 0, 83, 64
2, 156480, Note_on_c, 0, 79, 94
2, 156668, Note_off_c, 0, 79, 64
2, 156672, Note_on_c, 0, 86, 97
2, 156860, Note_off_c, 0, 86, 64
2, 156864, Note_on_c, 0, 84, 92
2, 157052, Note_off_c, 0, 84, 64
2, 157056, Note_on_c, 0, 81, 88
2, 157244, Note_off_c, 0, 81, 64
2, 157248, Note_on_c, 0, 78, 81
2, 157436, Note_off_c, 0, 78, 64
2, 157440, Note_on_c, 0, 74, 73
2, 157628, Note_off_c, 0, 74, 64
2, 157632, Note_on_c, 0, 72, 70
2, 157820, Note_off_c, 0, 72, 64
2, 157824, Note_on_c, 0, 69, 68
2, 158012, Note_off_c, 0, 69, 64
2, 158016, Note_on_c, 0, 72, 66
2, 158204, Note_off_c, 0, 72, 64
2, 158208, Note_on_c, 0, 71, 71
2, 158492, Note_off_c, 0, 71, 64
2, 158496, Note_on_c, 0, 67, 74
2, 158588, Note_off_c, 0, 67, 64
2, 158592, Note_on_c, 0, 74, 71
2, 158876, Note_off_c, 0, 74, 64
2, 158880, Note_on_c, 0, 71, 74
2, 158972, Note_off_c, 0, 71, 64
2, 158976, Note_on_c, 0, 79, 72
2, 159260, Note_off_c, 0, 79, 64
2, 159264, Note_on_c, 0, 74, 88
2, 159356, Note_off_c, 0, 74, 64
2, 159360, Note_on_c, 0, 83, 95
2, 159644, Note_off_c, 0, 83, 64
2, 159648, Note_on_c, 0, 79, 105
2, 159740, Note_off_c, 0, 79, 64
2, 159744, Note_on_c, 0, 84, 82
2, 159836, Note_off_c, 0, 84, 64
2, 159840, Note_on_c, 0, 86, 82
2, 159932, Note_off_c, 0, 86, 64
2, 159936, Note_on_c, 0, 84, 82
2, 160028, Note_off_c, 0, 84, 64
2, 160032, Note_on_c, 0, 83, 82
2, 160124, Note_off_c, 0, 83, 64
2, 160128, Note_on_c, 0, 81, 110
2, 160220, Note_off_c, 0, 81, 64
2, 160224, Note_on_c, 0, 83, 110
2, 160316, Note_off_c, 0, 83, 64
2, 160320, Note_on_c, 0, 81, 110
2, 160412, Note_off_c, 0, 81, 64
2, 160416, Note_on_c, 0, 79, 110
2, 160508, Note_off_c, 0, 79, 64
2, 160512, Note_on_c, 0, 78, 110
2, 160604, Note_off_c, 0, 78, 64
2, 160608, Note_on_c, 0, 79, 110
2, 160700, Note_off_c, 0, 79, 64
2, 160704, Note_on_c, 0, 78, 110
2, 160796, Note_off_c, 0, 78, 64
2, 160800, Note_on_c, 0, 76, 110
2, 160892, Note_off_c, 0, 76, 64
2, 160896, Note_on_c, 0, 74, 110
2, 160988, Note_off_c, 0, 74, 64
2, 160992, Note_on_c, 0, 76, 110
2, 161084, Note_off_c, 0, 76, 64
2, 161088, Note_on_c, 0, 74, 110
2, 161180, Note_off_c, 0, 74, 64
2, 161184, Note_on_c, 0, 72, 110
2, 161276, Note_off_c, 0, 72, 64
2, 161280, Note_on_c, 0, 71, 110
2, 161372, Note_off_c, 0, 71, 64
2, 161376, Note_on_c, 0, 74, 110
2, 161468, Note_off_c, 0, 74, 64
2, 161472, Note_on_c, 0, 79, 110
2, 161564, Note_off_c, 0, 79, 64
2, 161568, Note_on_c, 0, 78, 110
2, 161660, Note_off_c, 0, 78, 64
2, 161664, Note_on_c, 0, 79, 110
2, 161756, Note_off_c, 0, 79, 64
2, 161760, Note_on_c, 0, 74, 110
2, 161852, Note_off_c, 0, 74, 64
2, 161856, Note_on_c, 0, 72, 110
2, 161948, Note_off_c, 0, 72, 64
2, 161952, Note_on_c, 0, 71, 110
2, 162044, Note_off_c, 0, 71, 64
2, 162048, Note_on_c, 0, 69, 105
2, 162140, Note_off_c, 0, 69, 64
2, 162144, Note_on_c, 0, 71, 101
2, 162236, Note_off_c, 0, 71, 64
2, 162240, Note_on_c, 0, 72, 97
2, 162332, Note_off_c, 0, 72, 64
2, 162336, Note_on_c, 0, 71, 92
2, 162428, Note_off_c, 0, 71, 64
2, 162432, Note_on_c, 0, 72, 85
2, 162524, Note_off_c, 0, 72, 64
2, 162528, Note_on_c, 0, 69, 80
2, 162620, Note_off_c, 0, 69, 64
2, 162624, Note_on_c, 0, 67, 75
2, 162716, Note_off_c, 0, 67, 64
2, 162720, Note_on_c, 0, 66, 71
2, 162812, Note_off_c, 0, 66, 64
2, 162816, Note_on_c, 0, 67, 66
2, 163196, Note_off_c, 0, 67, 64
2, 164448, Note_on_c, 0, 67, 66
2, 164540, Note_off_c, 0, 67, 64
2, 164544, Note_on_c, 0, 70, 66
2, 164636, Note_off_c, 0, 70, 64
2, 164640, Note_on_c, 0, 74, 66
2, 164732, Note_off_c, 0, 74, 64
2, 164736, Note_on_c, 0, 79, 66
2, 164828, Note_off_c, 0, 79, 64
2, 164832, Note_on_c, 0, 74, 66
2, 164924, Note_off_c, 0, 74, 64
2, 164928, Note_on_c, 0, 70, 66
2, 165020, Note_off_c, 0, 70, 64
2, 165024, Note_on_c, 0, 74, 66
2, 165116, Note_off_c, 0, 74, 64
2, 165216, Note_on_c, 0, 67, 66
2, 165308, Note_off_c, 0, 67, 64
2, 165312, Note_on_c, 0, 70, 66
2, 165404, Note_off_c, 0, 70, 64
2, 165408, Note_on_c, 0, 74, 66
2, 165500, Note_off_c, 0, 74, 64
2, 165504, Note_on_c, 0, 79, 73
2, 165596, Note_off_c, 0, 79, 64
2, 165600, Note_on_c, 0, 74, 79
2, 165692, Note_off_c, 0, 74, 64
2, 165696, Note_on_c, 0, 70, 88
2, 165788, Note_off_c, 0, 70, 64
2, 165792, Note_on_c, 0, 74, 94
2, 165884, Note_off_c, 0, 74, 64
2, 165984, Note_on_c, 0, 67, 94
2, 166076, Note_off_c, 0, 67, 64
2, 166080, Note_on_c, 0, 70, 94
2, 166172, Note_off_c, 0, 70, 64
2, 166176, Note_on_c, 0, 73, 94
2, 166268, Note_off_c, 0, 73, 64
2, 166272, Note_on_c, 0, 79, 94
2, 166364, Note_off_c, 0, 79, 64
2, 166368, Note_on_c, 0, 73, 94
2, 166460, Note_off_c, 0, 73, 64
2, 166464, Note_on_c, 0, 70, 94
2, 166556, Note_off_c, 0, 70, 64
2, 166560, Note_on_c, 0, 73, 94
2, 166652, Note_off_c, 0, 73, 64
2, 166752, Note_on_c, 0, 67, 94
2, 166844, Note_off_c, 0, 67, 64
2, 166848, Note_on_c, 0, 70, 94
2, 166940, Note_off_c, 0, 70, 64
2, 166944, Note_on_c, 0, 74, 94
2, 167036, Note_off_c, 0, 74, 64
2, 167040, Note_on_c, 0, 79, 94
2, 167132, Note_off_c, 0, 79, 64
2, 167136, Note_on_c, 0, 74, 94
2, 167228, Note_off_c, 0, 74, 64
2, 167232, Note_on_c, 0, 70, 94
2, 167324, Note_off_c, 0, 70, 64
2, 167328, Note_on_c, 0, 74, 94
2, 167420, Note_off_c, 0, 74, 64
2, 167424, Note_on_c, 0, 69, 94
2, 167804, Note_off_c, 0, 69, 64
2, 167808, Note_on_c, 0, 88, 105
2, 168284, Note_off_c, 0, 88, 64
2, 168288, Note_on_c, 0, 86, 94
2, 168380, Note_off_c, 0, 86, 64
2, 168384, Note_on_c, 0, 85, 94
2, 168476, Note_off_c, 0, 85, 64
2, 168480, Note_on_c, 0, 82, 94
2, 168572, Note_off_c, 0, 82, 64
2, 168576, Note_on_c, 0, 81, 94
2, 168668, Note_off_c, 0, 81, 64
2, 168672, Note_on_c, 0, 79, 94
2, 168764, Note_off_c, 0, 79, 64
2, 168768, Note_on_c, 0, 77, 94
2, 168860, Note_off_c, 0, 77, 64
2, 168864, Note_on_c, 0, 76, 94
2, 168956, Note_off_c, 0, 76, 64
2, 169056, Note_on_c, 0, 65, 66
2, 169148, Note_off_c, 0, 65, 64
2, 169152, Note_on_c, 0, 69, 66
2, 169244, Note_off_c, 0, 69, 64
2, 169248, Note_on_c, 0, 74, 66
2, 169340, Note_off_c, 0, 74, 64
2, 169344, Note_on_c, 0, 77, 66
2, 169436, Note_off_c, 0, 77, 64
2, 169440, Note_on_c, 0, 74, 66
2, 169532, Note_off_c, 0, 74, 64
2, 169536, Note_on_c, 0, 69, 66
2, 169628, Note_off_c, 0, 69, 64
2, 169632, Note_on_c, 0, 74, 66
2, 169724, Note_off_c, 0, 74, 64
2, 169824, Note_on_c, 0, 65, 66
2, 169916, Note_off_c, 0, 65, 64
2, 169920, Note_on_c, 0, 69, 66
2, 170012, Note_off_c, 0, 69, 64
2, 170016, Note_on_c, 0, 74, 66
2, 170108, Note_off_c, 0, 74, 64
2, 170112, Note_on_c, 0, 77, 66
2, 170204, Note_off_c, 0, 77, 64
2, 170208, Note_on_c, 0, 74, 66
2, 170300, Note_off_c, 0, 74, 64
2, 170304, Note_on_c, 0, 69, 66
2, 170396, Note_off_c, 0, 69, 64
2, 170400, Note_on_c, 0, 74, 66
2, 170492, Note_off_c, 0, 74, 64
2, 170592, Note_on_c, 0, 65, 66
2, 170684, Note_off_c, 0, 65, 64
2, 170688, Note_on_c, 0, 68, 66
2, 170780, Note_off_c, 0, 68, 64
2, 170784, Note_on_c, 0, 74, 66
2, 170876, Note_off_c, 0, 74, 64
2, 170880, Note_on_c, 0, 77, 66
2, 170972, Note_off_c, 0, 77, 64
2, 170976, Note_on_c, 0, 74, 66
2, 171068, Note_off_c, 0, 74, 64
2, 171072, Note_on_c, 0, 68, 66
2, 171164, Note_off_c, 0, 68, 64
2, 171168, Note_on_c, 0, 74, 66
2, 171260, Note_off_c, 0, 74, 64
2, 171360, Note_on_c, 0, 65, 73
2, 171452, Note_off_c, 0, 65, 64
2, 171456, Note_on_c, 0, 69, 79
2, 171548, Note_off_c, 0, 69, 64
2, 171552, Note_on_c, 0, 74, 88
2, 171644, Note_off_c, 0, 74, 64
2, 171648, Note_on_c, 0, 77, 94
2, 171740, Note_off_c, 0, 77, 64
2, 171744, Note_on_c, 0, 74, 94
2, 171836, Note_off_c, 0, 74, 64
2, 171840, Note_on_c, 0, 69, 94
2, 171932, Note_off_c, 0, 69, 64
2, 171936, Note_on_c, 0, 74, 94
2, 172028, Note_off_c, 0, 74, 64
2, 172032, Note_on_c, 0, 71, 94
2, 172412, Note_off_c, 0, 71, 64
2, 172416, Note_on_c, 0, 86, 105
2, 172892, Note_off_c, 0, 86, 64
2, 172896, Note_on_c, 0, 84, 94
2, 172988, Note_off_c, 0, 84, 64
2, 172992, Note_on_c, 0, 83, 94
2, 173084, Note_off_c, 0, 83, 64
2, 173088, Note_on_c, 0, 81, 94
2, 173180, Note_off_c, 0, 81, 64
2, 173184, Note_on_c, 0, 80, 94
2, 173276, Note_off_c, 0, 80, 64
2, 173280, Note_on_c, 0, 77, 94
2, 173372, Note_off_c, 0, 77, 64
2, 173376, Note_on_c, 0, 76, 94
2, 173468, Note_off_c, 0, 76, 64
2, 173472, Note_on_c, 0, 74, 94
2, 173564, Note_off_c, 0, 74, 64
2, 173568, Note_on_c, 0, 72, 94
2, 173948, Note_off_c, 0, 72, 64
2, 177024, Note_on_c, 0, 77, 66
2, 177024, Note_on_c, 0, 72, 66
2, 177116, Note_off_c, 0, 77, 64
2, 177116, Note_off_c, 0, 72, 64
2, 177120, Note_on_c, 0, 74, 66
2, 177120, Note_on_c, 0, 71, 66
2, 177212, Note_off_c, 0, 74, 64
2, 177212, Note_off_c, 0, 71, 64
2, 177216, Note_on_c, 0, 76, 66
2, 177216, Note_on_c, 0, 72, 66
2, 177308, Note_off_c, 0, 76, 64
2, 177308, Note_off_c, 0, 72, 64
2, 177312, Note_on_c, 0, 77, 66
2, 177312, Note_on_c, 0, 69, 66
2, 177404, Note_off_c, 0, 77, 64
2, 177404, Note_off_c, 0, 69, 64
2, 177408, Note_on_c, 0, 74, 66
2, 177408, Note_on_c, 0, 71, 66
2, 177500, Note_off_c, 0, 74, 64
2, 177500, Note_off_c, 0, 71, 64
2, 177792, Note_on_c, 0, 74, 66
2, 177792, Note_on_c, 0, 71, 66
2, 177884, Note_off_c, 0, 74, 64
2, 177884, Note_off_c, 0, 71, 64
2, 177888, Note_on_c, 0, 72, 66
2, 177888, Note_on_c, 0, 69, 66
2, 177980, Note_off_c, 0, 72, 64
2, 177980, Note_off_c, 0, 69, 64
2, 177984, Note_on_c, 0, 74, 66
2, 177984, Note_on_c, 0, 71, 66
2, 178076, Note_off_c, 0, 74, 64
2, 178076, Note_off_c, 0, 71, 64
2, 178080, Note_on_c, 0, 76, 66
2, 178080, Note_on_c, 0, 68, 66
2, 178172, Note_off_c, 0, 76, 64
2, 178172, Note_off_c, 0, 68, 64
2, 178176, Note_on_c, 0, 72, 66
2, 178176, Note_on_c, 0, 69, 66
2, 178268, Note_off_c, 0, 72, 64
2, 178268, Note_off_c, 0, 69, 64
2, 178560, Note_on_c, 0, 72, 66
2, 178560, Note_on_c, 0, 81, 66
2, 178652, Note_off_c, 0, 72, 64
2, 178652, Note_off_c, 0, 81, 64
2, 178656, Note_on_c, 0, 80, 66
2, 178748, Note_off_c, 0, 80, 64
2, 178752, Note_on_c, 0, 81, 66
2, 178844, Note_off_c, 0, 81, 64
2, 178848, Note_on_c, 0, 84, 66
2, 178940, Note_off_c, 0, 84, 64
2, 178944, Note_on_c, 0, 74, 66
2, 178944, Note_on_c, 0, 83, 66
2, 179036, Note_off_c, 0, 74, 64
2, 179036, Note_off_c, 0, 83, 64
2, 179040, Note_on_c, 0, 81, 66
2, 179132, Note_off_c, 0, 81, 64
2, 179136, Note_on_c, 0, 83, 66
2, 179228, Note_off_c, 0, 83, 64
2, 179232, Note_on_c, 0, 86, 66
2, 179324, Note_off_c, 0, 86, 64
2, 179328, Note_on_c, 0, 76, 66
2, 179328, Note_on_c, 0, 80, 66
2, 179420, Note_off_c, 0, 76, 64
2, 179420, Note_off_c, 0, 80, 64
2, 179424, Note_on_c, 0, 78, 66
2, 179516, Note_off_c, 0, 78, 64
2, 179520, Note_on_c, 0, 80, 66
2, 179612, Note_off_c, 0, 80, 64
2, 179616, Note_on_c, 0, 83, 66
2, 179708, Note_off_c, 0, 83, 64
2, 179712, Note_on_c, 0, 81, 67
2, 179904, Note_on_c, 0, 72, 74
2, 179904, Note_on_c, 0, 69, 74
2, 179996, Note_off_c, 0, 72, 64
2, 179996, Note_off_c, 0, 69, 64
2, 180096, Note_on_c, 0, 72, 80
2, 180096, Note_on_c, 0, 69, 80
2, 180188, Note_off_c, 0, 72, 64
2, 180188, Note_off_c, 0, 69, 64
2, 180284, Note_off_c, 0, 81, 64
2, 180288, Note_on_c, 0, 83, 89
2, 180288, Note_on_c, 0, 72, 89
2, 180288, Note_on_c, 0, 69, 89
2, 180380, Note_off_c, 0, 83, 64
2, 180380, Note_off_c, 0, 72, 64
2, 180380, Note_off_c, 0, 69, 64
2, 180384, Note_on_c, 0, 84, 92
2, 180476, Note_off_c, 0, 84, 64
2, 180480, Note_on_c, 0, 83, 94
2, 180480, Note_on_c, 0, 72, 94
2, 180480, Note_on_c, 0, 69, 94
2, 180572, Note_off_c, 0, 72, 64
2, 180572, Note_off_c, 0, 69, 64
2, 180668, Note_off_c, 0, 83, 64
2, 180672, Note_on_c, 0, 81, 88
2, 180672, Note_on_c, 0, 72, 88
2, 180672, Note_on_c, 0, 69, 88
2, 180764, Note_off_c, 0, 72, 64
2, 180764, Note_off_c, 0, 69, 64
2, 180860, Note_off_c, 0, 81, 64
2, 180864, Note_on_c, 0, 79, 79
2, 180864, Note_on_c, 0, 72, 79
2, 180864, Note_on_c, 0, 69, 79
2, 180956, Note_off_c, 0, 72, 64
2, 180956, Note_off_c, 0, 69, 64
2, 181052, Note_off_c, 0, 79, 64
2, 181056, Note_on_c, 0, 77, 73
2, 181056, Note_on_c, 0, 72, 73
2, 181056, Note_on_c, 0, 69, 73
2, 181148, Note_off_c, 0, 72, 64
2, 181148, Note_off_c, 0, 69, 64
2, 181244, Note_off_c, 0, 77, 64
2, 181248, Note_on_c, 0, 76, 66
2, 181436, Note_off_c, 0, 76, 64
2, 181440, Note_on_c, 0, 75, 66
2, 181440, Note_on_c, 0, 69, 66
2, 181440, Note_on_c, 0, 65, 66
2, 181532, Note_off_c, 0, 69, 64
2, 181532, Note_off_c, 0, 65, 64
2, 181628, Note_off_c, 0, 75, 64
2, 181632, Note_on_c, 0, 75, 66
2, 181632, Note_on_c, 0, 69, 66
2, 181632, Note_on_c, 0, 65, 66
2, 181676, Note_off_c, 0, 75, 64
2, 181680, Note_on_c, 0, 76, 66
2, 181724, Note_off_c, 0, 69, 64
2, 181724, Note_off_c, 0, 65, 64
2, 181724, Note_off_c, 0, 76, 64
2, 181728, Note_on_c, 0, 75, 66
2, 181772, Note_off_c, 0, 75, 64
2, 181776, Note_on_c, 0, 76, 66
2, 181820, Note_off_c, 0, 76, 64
2, 181824, Note_on_c, 0, 75, 66
2, 181824, Note_on_c, 0, 69, 66
2, 181824, Note_on_c, 0, 65, 66
2, 181868, Note_off_c, 0, 75, 64
2, 181872, Note_on_c, 0, 76, 66
2, 181916, Note_off_c, 0, 69, 64
2, 181916, Note_off_c, 0, 65, 64
2, 181916, Note_off_c, 0, 76, 64
2, 181920, Note_on_c, 0, 75, 66
2, 181964, Note_off_c, 0, 75, 64
2, 181968, Note_on_c, 0, 76, 66
2, 182012, Note_off_c, 0, 76, 64
2, 182016, Note_on_c, 0, 75, 66
2, 182016, Note_on_c, 0, 71, 66
2, 182016, Note_on_c, 0, 69, 66
2, 182060, Note_off_c, 0, 75, 64
2, 182064, Note_on_c, 0, 76, 66
2, 182108, Note_off_c, 0, 71, 64
2, 182108, Note_off_c, 0, 69, 64
2, 182108, Note_off_c, 0, 76, 64
2, 182112, Note_on_c, 0, 75, 66
2, 182156, Note_off_c, 0, 75, 64
2, 182160, Note_on_c, 0, 76, 66
2, 182204, Note_off_c, 0, 76, 64
2, 182208, Note_on_c, 0, 75, 66
2, 182208, Note_on_c, 0, 71, 66
2, 182208, Note_on_c, 0, 69, 66
2, 182252, Note_off_c, 0, 75, 64
2, 182256, Note_on_c, 0, 76, 66
2, 182300, Note_off_c, 0, 71, 64
2, 182300, Note_off_c, 0, 69, 64
2, 182300, Note_off_c, 0, 76, 64
2, 182304, Note_on_c, 0, 75, 66
2, 182348, Note_off_c, 0, 75, 64
2, 182352, Note_on_c, 0, 76, 66
2, 182396, Note_off_c, 0, 76, 64
2, 182400, Note_on_c, 0, 75, 66
2, 182400, Note_on_c, 0, 71, 66
2, 182400, Note_on_c, 0, 69, 66
2, 182444, Note_off_c, 0, 75, 64
2, 182448, Note_on_c, 0, 76, 66
2, 182492, Note_off_c, 0, 71, 64
2, 182492, Note_off_c, 0, 69, 64
2, 182492, Note_off_c, 0, 76, 64
2, 182496, Note_on_c, 0, 75, 66
2, 182540, Note_off_c, 0, 75, 64
2, 182544, Note_on_c, 0, 76, 66
2, 182588, Note_off_c, 0, 76, 64
2, 182592, Note_on_c, 0, 73, 66
2, 182592, Note_on_c, 0, 71, 66
2, 182592, Note_on_c, 0, 69, 66
2, 182684, Note_off_c, 0, 73, 64
2, 182684, Note_off_c, 0, 71, 64
2, 182684, Note_off_c, 0, 69, 64
2, 182688, Note_on_c, 0, 75, 66
2, 182780, Note_off_c, 0, 75, 64
2, 182784, Note_on_c, 0, 76, 67
2, 182876, Note_off_c, 0, 76, 64
2, 182880, Note_on_c, 0, 75, 70
2, 182972, Note_off_c, 0, 75, 64
2, 182976, Note_on_c, 0, 76, 74
2, 182976, Note_on_c, 0, 71, 74
2, 182976, Note_on_c, 0, 67, 74
2, 183068, Note_off_c, 0, 76, 64
2, 183068, Note_off_c, 0, 71, 64
2, 183068, Note_off_c, 0, 67, 64
2, 183072, Note_on_c, 0, 78, 77
2, 183164, Note_off_c, 0, 78, 64
2, 183168, Note_on_c, 0, 79, 80
2, 183168, Note_on_c, 0, 72, 80
2, 183168, Note_on_c, 0, 67, 80
2, 183168, Note_on_c, 0, 71, 80
2, 183260, Note_off_c, 0, 79, 64
2, 183260, Note_off_c, 0, 72, 64
2, 183260, Note_off_c, 0, 67, 64
2, 183260, Note_off_c, 0, 71, 64
2, 183264, Note_on_c, 0, 78, 84
2, 183356, Note_off_c, 0, 78, 64
2, 183360, Note_on_c, 0, 81, 89
2, 183360, Note_on_c, 0, 71, 89
2, 183360, Note_on_c, 0, 67, 89
2, 183452, Note_off_c, 0, 81, 64
2, 183452, Note_off_c, 0, 71, 64
2, 183452, Note_off_c, 0, 67, 64
2, 183456, Note_on_c, 0, 79, 92
2, 183548, Note_off_c, 0, 79, 64
2, 183552, Note_on_c, 0, 82, 94
2, 183552, Note_on_c, 0, 70, 94
2, 183552, Note_on_c, 0, 67, 94
2, 183644, Note_off_c, 0, 70, 64
2, 183644, Note_off_c, 0, 67, 64
2, 183740, Note_off_c, 0, 82, 64
2, 183744, Note_on_c, 0, 79, 88
2, 183744, Note_on_c, 0, 70, 88
2, 183744, Note_on_c, 0, 67, 88
2, 183836, Note_off_c, 0, 70, 64
2, 183836, Note_off_c, 0, 67, 64
2, 183932, Note_off_c, 0, 79, 64
2, 183936, Note_on_c, 0, 76, 79
2, 183936, Note_on_c, 0, 70, 79
2, 183936, Note_on_c, 0, 67, 79
2, 184028, Note_off_c, 0, 70, 64
2, 184028, Note_off_c, 0, 67, 64
2, 184124, Note_off_c, 0, 76, 64
2, 184128, Note_on_c, 0, 74, 73
2, 184128, Note_on_c, 0, 70, 73
2, 184128, Note_on_c, 0, 67, 73
2, 184220, Note_off_c, 0, 70, 64
2, 184220, Note_off_c, 0, 67, 64
2, 184316, Note_off_c, 0, 74, 64
2, 184320, Note_on_c, 0, 74, 66
2, 184508, Note_off_c, 0, 74, 64
2, 184512, Note_on_c, 0, 73, 66
2, 184512, Note_on_c, 0, 70, 66
2, 184512, Note_on_c, 0, 67, 66
2, 184604, Note_off_c, 0, 70, 64
2, 184604, Note_off_c, 0, 67, 64
2, 184700, Note_off_c, 0, 73, 64
2, 184704, Note_on_c, 0, 73, 66
2, 184704, Note_on_c, 0, 70, 66
2, 184704, Note_on_c, 0, 67, 66
2, 184748, Note_off_c, 0, 73, 64
2, 184752, Note_on_c, 0, 74, 66
2, 184796, Note_off_c, 0, 70, 64
2, 184796, Note_off_c, 0, 67, 64
2, 184796, Note_off_c, 0, 74, 64
2, 184800, Note_on_c, 0, 73, 66
2, 184844, Note_off_c, 0, 73, 64
2, 184848, Note_on_c, 0, 74, 66
2, 184892, Note_off_c, 0, 74, 64
2, 184896, Note_on_c, 0, 73, 66
2, 184896, Note_on_c, 0, 70, 66
2, 184896, Note_on_c, 0, 67, 66
2, 184940, Note_off_c, 0, 73, 64
2, 184944, Note_on_c, 0, 74, 66
2, 184988, Note_off_c, 0, 70, 64
2, 184988, Note_off_c, 0, 67, 64
2, 184988, Note_off_c, 0, 74, 64
2, 184992, Note_on_c, 0, 73, 66
2, 185036, Note_off_c, 0, 73, 64
2, 185040, Note_on_c, 0, 74, 66
2, 185084, Note_off_c, 0, 74, 64
2, 185088, Note_on_c, 0, 73, 66
2, 185088, Note_on_c, 0, 69, 66
2, 185088, Note_on_c, 0, 67, 66
2, 185132, Note_off_c, 0, 73, 64
2, 185136, Note_on_c, 0, 74, 66
2, 185180, Note_off_c, 0, 69, 64
2, 185180, Note_off_c, 0, 67, 64
2, 185180, Note_off_c, 0, 74, 64
2, 185184, Note_on_c, 0, 73, 66
2, 185228, Note_off_c, 0, 73, 64
2, 185232, Note_on_c, 0, 74, 66
2, 185276, Note_off_c, 0, 74, 64
2, 185280, Note_on_c, 0, 73, 66
2, 185280, Note_on_c, 0, 69, 66
2, 185280, Note_on_c, 0, 67, 66
2, 185324, Note_off_c, 0, 73, 64
2, 185328, Note_on_c, 0, 74, 66
2, 185372, Note_off_c, 0, 69, 64
2, 185372, Note_off_c, 0, 67, 64
2, 185372, Note_off_c, 0, 74, 64
2, 185376, Note_on_c, 0, 73, 66
2, 185420, Note_off_c, 0, 73, 64
2, 185424, Note_on_c, 0, 74, 66
2, 185468, Note_off_c, 0, 74, 64
2, 185472, Note_on_c, 0, 73, 66
2, 185472, Note_on_c, 0, 69, 66
2, 185472, Note_on_c, 0, 67, 66
2, 185516, Note_off_c, 0, 73, 64
2, 185520, Note_on_c, 0, 74, 66
2, 185564, Note_off_c, 0, 69, 64
2, 185564, Note_off_c, 0, 67, 64
2, 185564, Note_off_c, 0, 74, 64
2, 185568, Note_on_c, 0, 73, 66
2, 185612, Note_off_c, 0, 73, 64
2, 185616, Note_on_c, 0, 74, 66
2, 185660, Note_off_c, 0, 74, 64
2, 185664, Note_on_c, 0, 71, 66
2, 185664, Note_on_c, 0, 69, 66
2, 185664, Note_on_c, 0, 67, 66
2, 185756, Note_off_c, 0, 71, 64
2, 185756, Note_off_c, 0, 69, 64
2, 185756, Note_off_c, 0, 67, 64
2, 185760, Note_on_c, 0, 73, 66
2, 185852, Note_off_c, 0, 73, 64
2, 185856, Note_on_c, 0, 74, 67
2, 185948, Note_off_c, 0, 74, 64
2, 185952, Note_on_c, 0, 73, 70
2, 186044, Note_off_c, 0, 73, 64
2, 186048, Note_on_c, 0, 74, 74
2, 186140, Note_off_c, 0, 74, 64
2, 186144, Note_on_c, 0, 69, 77
2, 186236, Note_off_c, 0, 69, 64
2, 186240, Note_on_c, 0, 77, 80
2, 186332, Note_off_c, 0, 77, 64
2, 186336, Note_on_c, 0, 76, 84
2, 186428, Note_off_c, 0, 76, 64
2, 186432, Note_on_c, 0, 77, 89
2, 186524, Note_off_c, 0, 77, 64
2, 186528, Note_on_c, 0, 74, 92
2, 186620, Note_off_c, 0, 74, 64
2, 186624, Note_on_c, 0, 81, 94
2, 186812, Note_off_c, 0, 81, 64
2, 186816, Note_on_c, 0, 76, 88
2, 187004, Note_off_c, 0, 76, 64
2, 187008, Note_on_c, 0, 77, 79
2, 187196, Note_off_c, 0, 77, 64
2, 187200, Note_on_c, 0, 74, 73
2, 187388, Note_off_c, 0, 74, 64
2, 187392, Note_on_c, 0, 72, 66
2, 187580, Note_off_c, 0, 72, 64
2, 187584, Note_on_c, 0, 71, 66
2, 187772, Note_off_c, 0, 71, 64
2, 187776, Note_on_c, 0, 71, 66
2, 187820, Note_off_c, 0, 71, 64
2, 187824, Note_on_c, 0, 72, 66
2, 187868, Note_off_c, 0, 72, 64
2, 187872, Note_on_c, 0, 71, 66
2, 187916, Note_off_c, 0, 71, 64
2, 187920, Note_on_c, 0, 72, 66
2, 187964, Note_off_c, 0, 72, 64
2, 187968, Note_on_c, 0, 71, 66
2, 188012, Note_off_c, 0, 71, 64
2, 188016, Note_on_c, 0, 72, 66
2, 188060, Note_off_c, 0, 72, 64
2, 188064, Note_on_c, 0, 71, 66
2, 188108, Note_off_c, 0, 71, 64
2, 188112, Note_on_c, 0, 72, 66
2, 188156, Note_off_c, 0, 72, 64
2, 188160, Note_on_c, 0, 71, 66
2, 188204, Note_off_c, 0, 71, 64
2, 188208, Note_on_c, 0, 72, 66
2, 188252, Note_off_c, 0, 72, 64
2, 188256, Note_on_c, 0, 71, 66
2, 188300, Note_off_c, 0, 71, 64
2, 188304, Note_on_c, 0, 72, 66
2, 188348, Note_off_c, 0, 72, 64
2, 188352, Note_on_c, 0, 71, 66
2, 188396, Note_off_c, 0, 71, 64
2, 188400, Note_on_c, 0, 72, 66
2, 188444, Note_off_c, 0, 72, 64
2, 188448, Note_on_c, 0, 71, 66
2, 188492, Note_off_c, 0, 71, 64
2, 188496, Note_on_c, 0, 72, 66
2, 188540, Note_off_c, 0, 72, 64
2, 188544, Note_on_c, 0, 71, 66
2, 188588, Note_off_c, 0, 71, 64
2, 188592, Note_on_c, 0, 72, 66
2, 188636, Note_off_c, 0, 72, 64
2, 188640, Note_on_c, 0, 71, 66
2, 188684, Note_off_c, 0, 71, 64
2, 188688, Note_on_c, 0, 72, 66
2, 188732, Note_off_c, 0, 72, 64
2, 188736, Note_on_c, 0, 69, 66
2, 188828, Note_off_c, 0, 69, 64
2, 188832, Note_on_c, 0, 71, 66
2, 188924, Note_off_c, 0, 71, 64
2, 188928, Note_on_c, 0, 72, 66
2, 189020, Note_off_c, 0, 72, 64
2, 189024, Note_on_c, 0, 74, 66
2, 189116, Note_off_c, 0, 74, 64
2, 189120, Note_on_c, 0, 72, 66
2, 189212, Note_off_c, 0, 72, 64
2, 189216, Note_on_c, 0, 71, 66
2, 189308, Note_off_c, 0, 71, 64
2, 189312, Note_on_c, 0, 72, 66
2, 189404, Note_off_c, 0, 72, 64
2, 189408, Note_on_c, 0, 67, 66
2, 189500, Note_off_c, 0, 67, 64
2, 189504, Note_on_c, 0, 72, 66
2, 189596, Note_off_c, 0, 72, 64
2, 189600, Note_on_c, 0, 76, 66
2, 189692, Note_off_c, 0, 76, 64
2, 189696, Note_on_c, 0, 74, 66
2, 189788, Note_off_c, 0, 74, 64
2, 189792, Note_on_c, 0, 76, 66
2, 189884, Note_off_c, 0, 76, 64
2, 189888, Note_on_c, 0, 74, 66
2, 189980, Note_off_c, 0, 74, 64
2, 189984, Note_on_c, 0, 73, 66
2, 190076, Note_off_c, 0, 73, 64
2, 190080, Note_on_c, 0, 74, 66
2, 190172, Note_off_c, 0, 74, 64
2, 190176, Note_on_c, 0, 67, 66
2, 190268, Note_off_c, 0, 67, 64
2, 190272, Note_on_c, 0, 74, 66
2, 190364, Note_off_c, 0, 74, 64
2, 190368, Note_on_c, 0, 77, 66
2, 190460, Note_off_c, 0, 77, 64
2, 190464, Note_on_c, 0, 76, 67
2, 190556, Note_off_c, 0, 76, 64
2, 190560, Note_on_c, 0, 77, 68
2, 190652, Note_off_c, 0, 77, 64
2, 190656, Note_on_c, 0, 76, 70
2, 190748, Note_off_c, 0, 76, 64
2, 190752, Note_on_c, 0, 74, 71
2, 190844, Note_off_c, 0, 74, 64
2, 190848, Note_on_c, 0, 76, 74
2, 190940, Note_off_c, 0, 76, 64
2, 190944, Note_on_c, 0, 72, 75
2, 191036, Note_off_c, 0, 72, 64
2, 191040, Note_on_c, 0, 76, 77
2, 191132, Note_off_c, 0, 76, 64
2, 191136, Note_on_c, 0, 79, 78
2, 191228, Note_off_c, 0, 79, 64
2, 191232, Note_on_c, 0, 77, 80
2, 191324, Note_off_c, 0, 77, 64
2, 191328, Note_on_c, 0, 79, 82
2, 191420, Note_off_c, 0, 79, 64
2, 191424, Note_on_c, 0, 77, 84
2, 191516, Note_off_c, 0, 77, 64
2, 191520, Note_on_c, 0, 76, 88
2, 191612, Note_off_c, 0, 76, 64
2, 191616, Note_on_c, 0, 77, 89
2, 191708, Note_off_c, 0, 77, 64
2, 191712, Note_on_c, 0, 72, 91
2, 191804, Note_off_c, 0, 72, 64
2, 191808, Note_on_c, 0, 77, 92
2, 191900, Note_off_c, 0, 77, 64
2, 191904, Note_on_c, 0, 81, 94
2, 191996, Note_off_c, 0, 81, 64
2, 192000, Note_on_c, 0, 79, 110
2, 192092, Note_off_c, 0, 79, 64
2, 192096, Note_on_c, 0, 81, 110
2, 192188, Note_off_c, 0, 81, 64
2, 192192, Note_on_c, 0, 79, 110
2, 192284, Note_off_c, 0, 79, 64
2, 192288, Note_on_c, 0, 78, 110
2, 192380, Note_off_c, 0, 78, 64
2, 192384, Note_on_c, 0, 79, 110
2, 192476, Note_off_c, 0, 79, 64
2, 192480, Note_on_c, 0, 72, 110
2, 192572, Note_off_c, 0, 72, 64
2, 192576, Note_on_c, 0, 79, 110
2, 192668, Note_off_c, 0, 79, 64
2, 192672, Note_on_c, 0, 82, 110
2, 192764, Note_off_c, 0, 82, 64
2, 192768, Note_on_c, 0, 81, 110
2, 192860, Note_off_c, 0, 81, 64
2, 192864, Note_on_c, 0, 77, 110
2, 192956, Note_off_c, 0, 77, 64
2, 192960, Note_on_c, 0, 81, 110
2, 193052, Note_off_c, 0, 81, 64
2, 193056, Note_on_c, 0, 84, 110
2, 193148, Note_off_c, 0, 84, 64
2, 193152, Note_on_c, 0, 83, 110
2, 193244, Note_off_c, 0, 83, 64
2, 193248, Note_on_c, 0, 79, 110
2, 193340, Note_off_c, 0, 79, 64
2, 193344, Note_on_c, 0, 83, 110
2, 193436, Note_off_c, 0, 83, 64
2, 193440, Note_on_c, 0, 86, 110
2, 193532, Note_off_c, 0, 86, 64
2, 193536, Note_on_c, 0, 84, 105
2, 193628, Note_off_c, 0, 84, 64
2, 193632, Note_on_c, 0, 83, 104
2, 193724, Note_off_c, 0, 83, 64
2, 193728, Note_on_c, 0, 81, 101
2, 193820, Note_off_c, 0, 81, 64
2, 193824, Note_on_c, 0, 79, 97
2, 193916, Note_off_c, 0, 79, 64
2, 193920, Note_on_c, 0, 77, 93
2, 194012, Note_off_c, 0, 77, 64
2, 194016, Note_on_c, 0, 76, 90
2, 194108, Note_off_c, 0, 76, 64
2, 194112, Note_on_c, 0, 74, 85
2, 194204, Note_off_c, 0, 74, 64
2, 194208, Note_on_c, 0, 72, 82
2, 194300, Note_off_c, 0, 72, 64
2, 194304, Note_on_c, 0, 77, 66
2, 194304, Note_on_c, 0, 74, 66
2, 194304, Note_on_c, 0, 59, 66
2, 194492, Note_off_c, 0, 77, 64
2, 194492, Note_off_c, 0, 74, 64
2, 194492, Note_off_c, 0, 59, 64
2, 194688, Note_on_c, 0, 76, 66
2, 194688, Note_on_c, 0, 72, 66
2, 194688, Note_on_c, 0, 60, 66
2, 194876, Note_off_c, 0, 76, 64
2, 194876, Note_off_c, 0, 72, 64
2, 194876, Note_off_c, 0, 60, 64
2, 195072, Note_on_c, 0, 74, 66
2, 195072, Note_on_c, 0, 71, 66
2, 195072, Note_on_c, 0, 55, 66
2, 195164, Note_off_c, 0, 74, 64
2, 195164, Note_off_c, 0, 71, 64
2, 195164, Note_off_c, 0, 55, 64
2, 195168, Note_on_c, 0, 67, 66
2, 195260, Note_off_c, 0, 67, 64
2, 195264, Note_on_c, 0, 66, 66
2, 195356, Note_off_c, 0, 66, 64
2, 195360, Note_on_c, 0, 67, 66
2, 195452, Note_off_c, 0, 67, 64
2, 195456, Note_on_c, 0, 69, 66
2, 195548, Note_off_c, 0, 69, 64
2, 195552, Note_on_c, 0, 67, 66
2, 195644, Note_off_c, 0, 67, 64
2, 195648, Note_on_c, 0, 66, 66
2, 195740, Note_off_c, 0, 66, 64
2, 195744, Note_on_c, 0, 67, 66
2, 195836, Note_off_c, 0, 67, 64
2, 195840, Note_on_c, 0, 86, 66
2, 195840, Note_on_c, 0, 83, 66
2, 195840, Note_on_c, 0, 55, 66
2, 195932, Note_off_c, 0, 86, 64
2, 195932, Note_off_c, 0, 83, 64
2, 195932, Note_off_c, 0, 55, 64
2, 195936, Note_on_c, 0, 67, 66
2, 196028, Note_off_c, 0, 67, 64
2, 196032, Note_on_c, 0, 66, 66
2, 196124, Note_off_c, 0, 66, 64
2, 196128, Note_on_c, 0, 67, 66
2, 196220, Note_off_c, 0, 67, 64
2, 196224, Note_on_c, 0, 77, 66
2, 196224, Note_on_c, 0, 74, 66
2, 196224, Note_on_c, 0, 69, 66
2, 196316, Note_off_c, 0, 77, 64
2, 196316, Note_off_c, 0, 74, 64
2, 196316, Note_off_c, 0, 69, 64
2, 196320, Note_on_c, 0, 67, 66
2, 196412, Note_off_c, 0, 67, 64
2, 196416, Note_on_c, 0, 66, 66
2, 196508, Note_off_c, 0, 66, 64
2, 196512, Note_on_c, 0, 67, 66
2, 196604, Note_off_c, 0, 67, 64
2, 196608, Note_on_c, 0, 76, 66
2, 196608, Note_on_c, 0, 72, 66
2, 196608, Note_on_c, 0, 55, 66
2, 196700, Note_off_c, 0, 76, 64
2, 196700, Note_off_c, 0, 72, 64
2, 196700, Note_off_c, 0, 55, 64
2, 196704, Note_on_c, 0, 67, 66
2, 196796, Note_off_c, 0, 67, 64
2, 196800, Note_on_c, 0, 66, 66
2, 196892, Note_off_c, 0, 66, 64
2, 196896, Note_on_c, 0, 67, 66
2, 196988, Note_off_c, 0, 67, 64
2, 196992, Note_on_c, 0, 79, 66
2, 196992, Note_on_c, 0, 76, 66
2, 196992, Note_on_c, 0, 69, 66
2, 197084, Note_off_c, 0, 79, 64
2, 197084, Note_off_c, 0, 76, 64
2, 197084, Note_off_c, 0, 69, 64
2, 197088, Note_on_c, 0, 67, 66
2, 197180, Note_off_c, 0, 67, 64
2, 197184, Note_on_c, 0, 66, 66
2, 197276, Note_off_c, 0, 66, 64
2, 197280, Note_on_c, 0, 67, 66
2, 197372, Note_off_c, 0, 67, 64
2, 197376, Note_on_c, 0, 84, 66
2, 197376, Note_on_c, 0, 76, 66
2, 197376, Note_on_c, 0, 55, 66
2, 197468, Note_off_c, 0, 84, 64
2, 197468, Note_off_c, 0, 76, 64
2, 197468, Note_off_c, 0, 55, 64
2, 197472, Note_on_c, 0, 67, 66
2, 197564, Note_off_c, 0, 67, 64
2, 197568, Note_on_c, 0, 66, 66
2, 197660, Note_off_c, 0, 66, 64
2, 197664, Note_on_c, 0, 67, 66
2, 197756, Note_off_c, 0, 67, 64
2, 197760, Note_on_c, 0, 76, 66
2, 197760, Note_on_c, 0, 72, 66
2, 197760, Note_on_c, 0, 69, 66
2, 197852, Note_off_c, 0, 76, 64
2, 197852, Note_off_c, 0, 72, 64
2, 197852, Note_off_c, 0, 69, 64
2, 197856, Note_on_c, 0, 67, 66
2, 197948, Note_off_c, 0, 67, 64
2, 197952, Note_on_c, 0, 66, 66
2, 198044, Note_off_c, 0, 66, 64
2, 198048, Note_on_c, 0, 67, 66
2, 198140, Note_off_c, 0, 67, 64
2, 198144, Note_on_c, 0, 74, 66
2, 198144, Note_on_c, 0, 71, 66
2, 198144, Note_on_c, 0, 55, 66
2, 198236, Note_off_c, 0, 74, 64
2, 198236, Note_off_c, 0, 71, 64
2, 198236, Note_off_c, 0, 55, 64
2, 198240, Note_on_c, 0, 67, 66
2, 198332, Note_off_c, 0, 67, 64
2, 198336, Note_on_c, 0, 65, 66
2, 198428, Note_off_c, 0, 65, 64
2, 198432, Note_on_c, 0, 67, 66
2, 198524, Note_off_c, 0, 67, 64
2, 198528, Note_on_c, 0, 69, 66
2, 198620, Note_off_c, 0, 69, 64
2, 198624, Note_on_c, 0, 67, 66
2, 198716, Note_off_c, 0, 67, 64
2, 198720, Note_on_c, 0, 65, 66
2, 198812, Note_off_c, 0, 65, 64
2, 198816, Note_on_c, 0, 67, 66
2, 198908, Note_off_c, 0, 67, 64
2, 198912, Note_on_c, 0, 86, 66
2, 198912, Note_on_c, 0, 83, 66
2, 198912, Note_on_c, 0, 55, 66
2, 199004, Note_off_c, 0, 86, 64
2, 199004, Note_off_c, 0, 83, 64
2, 199004, Note_off_c, 0, 55, 64
2, 199008, Note_on_c, 0, 67, 66
2, 199100, Note_off_c, 0, 67, 64
2, 199104, Note_on_c, 0, 65, 66
2, 199196, Note_off_c, 0, 65, 64
2, 199200, Note_on_c, 0, 67, 66
2, 199292, Note_off_c, 0, 67, 64
2, 199296, Note_on_c, 0, 77, 66
2, 199296, Note_on_c, 0, 74, 66
2, 199296, Note_on_c, 0, 69, 66
2, 199388, Note_off_c, 0, 77, 64
2, 199388, Note_off_c, 0, 74, 64
2, 199388, Note_off_c, 0, 69, 64
2, 199392, Note_on_c, 0, 67, 66
2, 199484, Note_off_c, 0, 67, 64
2, 199488, Note_on_c, 0, 65, 66
2, 199580, Note_off_c, 0, 65, 64
2, 199584, Note_on_c, 0, 67, 66
2, 199676, Note_off_c, 0, 67, 64
2, 199680, Note_on_c, 0, 76, 66
2, 199680, Note_on_c, 0, 72, 66
2, 199680, Note_on_c, 0, 55, 66
2, 199772, Note_off_c, 0, 76, 64
2, 199772, Note_off_c, 0, 72, 64
2, 199772, Note_off_c, 0, 55, 64
2, 199776, Note_on_c, 0, 67, 66
2, 199868, Note_off_c, 0, 67, 64
2, 199872, Note_on_c, 0, 66, 66
2, 199964, Note_off_c, 0, 66, 64
2, 199968, Note_on_c, 0, 67, 66
2, 200060, Note_off_c, 0, 67, 64
2, 200064, Note_on_c, 0, 79, 66
2, 200064, Note_on_c, 0, 76, 66
2, 200064, Note_on_c, 0, 69, 66
2, 200156, Note_off_c, 0, 79, 64
2, 200156, Note_off_c, 0, 76, 64
2, 200156, Note_off_c, 0, 69, 64
2, 200160, Note_on_c, 0, 67, 66
2, 200252, Note_off_c, 0, 67, 64
2, 200256, Note_on_c, 0, 66, 66
2, 200348, Note_off_c, 0, 66, 64
2, 200352, Note_on_c, 0, 67, 66
2, 200444, Note_off_c, 0, 67, 64
2, 200448, Note_on_c, 0, 84, 66
2, 200448, Note_on_c, 0, 76, 66
2, 200448, Note_on_c, 0, 55, 66
2, 200540, Note_off_c, 0, 84, 64
2, 200540, Note_off_c, 0, 76, 64
2, 200540, Note_off_c, 0, 55, 64
2, 200544, Note_on_c, 0, 67, 66
2, 200636, Note_off_c, 0, 67, 64
2, 200640, Note_on_c, 0, 66, 66
2, 200732, Note_off_c, 0, 66, 64
2, 200736, Note_on_c, 0, 67, 66
2, 200828, Note_off_c, 0, 67, 64
2, 200832, Note_on_c, 0, 78, 66
2, 200832, Note_on_c, 0, 72, 66
2, 200832, Note_on_c, 0, 69, 66
2, 200924, Note_off_c, 0, 78, 64
2, 200924, Note_off_c, 0, 72, 64
2, 200924, Note_off_c, 0, 69, 64
2, 200928, Note_on_c, 0, 67, 66
2, 201020, Note_off_c, 0, 67, 64
2, 201024, Note_on_c, 0, 66, 66
2, 201116, Note_off_c, 0, 66, 64
2, 201120, Note_on_c, 0, 67, 66
2, 201212, Note_off_c, 0, 67, 64
2, 201216, Note_on_c, 0, 79, 66
2, 201216, Note_on_c, 0, 71, 66
2, 201596, Note_off_c, 0, 79, 64
2, 201596, Note_off_c, 0, 71, 64
2, 202080, Note_on_c, 0, 67, 68
2, 202172, Note_off_c, 0, 67, 64
2, 202176, Note_on_c, 0, 69, 70
2, 202268, Note_off_c, 0, 69, 64
2, 202272, Note_on_c, 0, 71, 73
2, 202364, Note_off_c, 0, 71, 64
2, 202368, Note_on_c, 0, 72, 75
2, 202460, Note_off_c, 0, 72, 64
2, 202464, Note_on_c, 0, 74, 75
2, 202556, Note_off_c, 0, 74, 64
2, 202560, Note_on_c, 0, 76, 78
2, 202652, Note_off_c, 0, 76, 64
2, 202656, Note_on_c, 0, 78, 80
2, 202748, Note_off_c, 0, 78, 64
2, 202752, Note_on_c, 0, 79, 82
2, 202844, Note_off_c, 0, 79, 64
2, 202848, Note_on_c, 0, 81, 84
2, 202940, Note_off_c, 0, 81, 64
2, 202944, Note_on_c, 0, 83, 88
2, 203036, Note_off_c, 0, 83, 64
2, 203040, Note_on_c, 0, 84, 90
2, 203132, Note_off_c, 0, 84, 64
2, 203136, Note_on_c, 0, 86, 92
2, 203228, Note_off_c, 0, 86, 64
2, 203232, Note_on_c, 0, 84, 93
2, 203324, Note_off_c, 0, 84, 64
2, 203328, Note_on_c, 0, 83, 96
2, 203420, Note_off_c, 0, 83, 64
2, 203424, Note_on_c, 0, 81, 99
2, 203516, Note_off_c, 0, 81, 64
2, 203520, Note_on_c, 0, 79, 101
2, 203612, Note_off_c, 0, 79, 64
2, 203616, Note_on_c, 0, 78, 101
2, 203708, Note_off_c, 0, 78, 64
2, 203712, Note_on_c, 0, 79, 104
2, 203804, Note_off_c, 0, 79, 64
2, 203808, Note_on_c, 0, 81, 105
2, 203900, Note_off_c, 0, 81, 64
2, 203904, Note_on_c, 0, 79, 110
2, 203996, Note_off_c, 0, 79, 64
2, 204000, Note_on_c, 0, 77, 112
2, 204092, Note_off_c, 0, 77, 64
2, 204096, Note_on_c, 0, 76, 115
2, 204188, Note_off_c, 0, 76, 64
2, 204192, Note_on_c, 0, 74, 119
2, 204284, Note_off_c, 0, 74, 64
2, 204288, Note_on_c, 0, 72, 122
2, 204668, Note_off_c, 0, 72, 64
2, 215232, Note_on_c, 0, 84, 66
2, 215232, Note_on_c, 0, 72, 66
2, 215420, Note_off_c, 0, 84, 64
2, 215420, Note_off_c, 0, 72, 64
2, 215424, Note_on_c, 0, 83, 66
2, 215424, Note_on_c, 0, 71, 66
2, 215612, Note_off_c, 0, 83, 64
2, 215612, Note_off_c, 0, 71, 64
2, 215616, Note_on_c, 0, 81, 66
2, 215616, Note_on_c, 0, 69, 66
2, 215804, Note_off_c, 0, 81, 64
2, 215804, Note_off_c, 0, 69, 64
2, 215808, Note_on_c, 0, 78, 66
2, 215808, Note_on_c, 0, 66, 66
2, 215996, Note_off_c, 0, 78, 64
2, 215996, Note_off_c, 0, 66, 64
2, 216000, Note_on_c, 0, 79, 66
2, 216000, Note_on_c, 0, 67, 66
2, 216188, Note_off_c, 0, 79, 64
2, 216188, Note_off_c, 0, 67, 64
2, 216192, Note_on_c, 0, 81, 66
2, 216192, Note_on_c, 0, 69, 66
2, 216380, Note_off_c, 0, 81, 64
2, 216380, Note_off_c, 0, 69, 64
2, 216384, Note_on_c, 0, 79, 66
2, 216384, Note_on_c, 0, 67, 66
2, 216572, Note_off_c, 0, 79, 64
2, 216572, Note_off_c, 0, 67, 64
2, 216576, Note_on_c, 0, 79, 66
2, 216576, Note_on_c, 0, 55, 66
2, 216576, Note_on_c, 0, 55, 66
2, 216668, Note_off_c, 0, 79, 64
2, 216668, Note_off_c, 0, 55, 64
2, 216672, Note_on_c, 0, 71, 66
2, 216672, Note_on_c, 0, 67, 66
2, 216764, Note_off_c, 0, 67, 64
2, 216768, Note_on_c, 0, 65, 66
2, 216860, Note_off_c, 0, 65, 64
2, 216864, Note_on_c, 0, 67, 66
2, 216956, Note_off_c, 0, 55, 64
2, 216956, Note_off_c, 0, 67, 64
2, 216960, Note_on_c, 0, 55, 66
2, 217052, Note_off_c, 0, 55, 64
2, 217056, Note_on_c, 0, 67, 66
2, 217148, Note_off_c, 0, 67, 64
2, 217152, Note_on_c, 0, 65, 66
2, 217244, Note_off_c, 0, 65, 64
2, 217248, Note_on_c, 0, 67, 66
2, 217340, Note_off_c, 0, 67, 64
2, 217344, Note_off_c, 0, 71, 64
2, 217344, Note_on_c, 0, 72, 66
2, 217344, Note_on_c, 0, 55, 66
2, 217388, Note_off_c, 0, 72, 64
2, 217392, Note_on_c, 0, 74, 66
2, 217436, Note_off_c, 0, 55, 64
2, 217436, Note_off_c, 0, 74, 64
2, 217440, Note_on_c, 0, 72, 66
2, 217440, Note_on_c, 0, 67, 66
2, 217484, Note_off_c, 0, 72, 64
2, 217488, Note_on_c, 0, 74, 66
2, 217532, Note_off_c, 0, 67, 64
2, 217532, Note_off_c, 0, 74, 64
2, 217536, Note_on_c, 0, 72, 66
2, 217536, Note_on_c, 0, 65, 66
2, 217580, Note_off_c, 0, 72, 64
2, 217584, Note_on_c, 0, 74, 66
2, 217628, Note_off_c, 0, 65, 64
2, 217628, Note_off_c, 0, 74, 64
2, 217632, Note_on_c, 0, 72, 66
2, 217632, Note_on_c, 0, 67, 66
2, 217676, Note_off_c, 0, 72, 64
2, 217680, Note_on_c, 0, 74, 66
2, 217724, Note_off_c, 0, 67, 64
2, 217724, Note_off_c, 0, 74, 64
2, 217728, Note_on_c, 0, 72, 66
2, 217728, Note_on_c, 0, 55, 66
2, 217772, Note_off_c, 0, 72, 64
2, 217776, Note_on_c, 0, 74, 66
2, 217820, Note_off_c, 0, 55, 64
2, 217820, Note_off_c, 0, 74, 64
2, 217824, Note_on_c, 0, 72, 66
2, 217824, Note_on_c, 0, 67, 66
2, 217868, Note_off_c, 0, 72, 64
2, 217872, Note_on_c, 0, 74, 66
2, 217916, Note_off_c, 0, 67, 64
2, 217916, Note_off_c, 0, 74, 64
2, 217920, Note_on_c, 0, 71, 66
2, 217920, Note_on_c, 0, 65, 66
2, 218012, Note_off_c, 0, 71, 64
2, 218012, Note_off_c, 0, 65, 64
2, 218016, Note_on_c, 0, 72, 66
2, 218016, Note_on_c, 0, 67, 66
2, 218108, Note_off_c, 0, 72, 64
2, 218108, Note_off_c, 0, 67, 64
2, 218112, Note_on_c, 0, 73, 66
2, 218112, Note_on_c, 0, 55, 66
2, 218112, Note_on_c, 0, 55, 66
2, 218204, Note_off_c, 0, 73, 64
2, 218204, Note_off_c, 0, 55, 64
2, 218208, Note_on_c, 0, 74, 66
2, 218208, Note_on_c, 0, 67, 66
2, 218300, Note_off_c, 0, 67, 64
2, 218304, Note_on_c, 0, 59, 66
2, 218396, Note_off_c, 0, 59, 64
2, 218400, Note_on_c, 0, 67, 66
2, 218492, Note_off_c, 0, 55, 64
2, 218492, Note_off_c, 0, 67, 64
2, 218496, Note_on_c, 0, 55, 66
2, 218588, Note_off_c, 0, 55, 64
2, 218592, Note_on_c, 0, 67, 66
2, 218684, Note_off_c, 0, 67, 64
2, 218688, Note_on_c, 0, 59, 66
2, 218780, Note_off_c, 0, 59, 64
2, 218784, Note_on_c, 0, 67, 66
2, 218876, Note_off_c, 0, 67, 64
2, 218880, Note_off_c, 0, 74, 64
2, 218880, Note_on_c, 0, 55, 67
2, 218880, Note_on_c, 0, 76, 67
2, 218880, Note_on_c, 0, 55, 67
2, 218924, Note_off_c, 0, 76, 64
2, 218928, Note_on_c, 0, 77, 69
2, 218972, Note_off_c, 0, 55, 64
2, 218972, Note_off_c, 0, 77, 64
2, 218976, Note_on_c, 0, 67, 71
2, 218976, Note_on_c, 0, 76, 71
2, 219020, Note_off_c, 0, 76, 64
2, 219024, Note_on_c, 0, 77, 74
2, 219068, Note_off_c, 0, 67, 64
2, 219068, Note_off_c, 0, 77, 64
2, 219072, Note_on_c, 0, 59, 75
2, 219072, Note_on_c, 0, 76, 75
2, 219116, Note_off_c, 0, 76, 64
2, 219120, Note_on_c, 0, 77, 78
2, 219164, Note_off_c, 0, 59, 64
2, 219164, Note_off_c, 0, 77, 64
2, 219168, Note_on_c, 0, 67, 81
2, 219168, Note_on_c, 0, 76, 81
2, 219212, Note_off_c, 0, 76, 64
2, 219216, Note_on_c, 0, 77, 84
2, 219260, Note_off_c, 0, 55, 64
2, 219260, Note_off_c, 0, 67, 64
2, 219260, Note_off_c, 0, 77, 64
2, 219264, Note_on_c, 0, 55, 88
2, 219264, Note_on_c, 0, 76, 88
2, 219308, Note_off_c, 0, 76, 64
2, 219312, Note_on_c, 0, 77, 90
2, 219356, Note_off_c, 0, 55, 64
2, 219356, Note_off_c, 0, 77, 64
2, 219360, Note_on_c, 0, 67, 92
2, 219360, Note_on_c, 0, 76, 92
2, 219404, Note_off_c, 0, 76, 64
2, 219408, Note_on_c, 0, 77, 96
2, 219452, Note_off_c, 0, 67, 64
2, 219452, Note_off_c, 0, 77, 64
2, 219456, Note_on_c, 0, 59, 100
2, 219456, Note_on_c, 0, 74, 100
2, 219548, Note_off_c, 0, 59, 64
2, 219548, Note_off_c, 0, 74, 64
2, 219552, Note_on_c, 0, 67, 104
2, 219552, Note_on_c, 0, 76, 104
2, 219644, Note_off_c, 0, 67, 64
2, 219644, Note_off_c, 0, 76, 64
2, 219648, Note_on_c, 0, 77, 110
2, 219740, Note_off_c, 0, 77, 64
2, 219744, Note_on_c, 0, 79, 104
2, 219836, Note_off_c, 0, 79, 64
2, 219840, Note_on_c, 0, 81, 99
2, 219932, Note_off_c, 0, 81, 64
2, 219936, Note_on_c, 0, 77, 92
2, 220028, Note_off_c, 0, 77, 64
2, 220032, Note_on_c, 0, 76, 85
2, 220124, Note_off_c, 0, 76, 64
2, 220128, Note_on_c, 0, 77, 80
2, 220220, Note_off_c, 0, 77, 64
2, 220224, Note_on_c, 0, 79, 75
2, 220316, Note_off_c, 0, 79, 64
2, 220320, Note_on_c, 0, 76, 69
2, 220412, Note_off_c, 0, 76, 64
2, 220416, Note_on_c, 0, 76, 66
2, 220604, Note_off_c, 0, 76, 64
2, 220608, Note_on_c, 0, 74, 75
2, 220796, Note_off_c, 0, 74, 64
2, 220800, Note_on_c, 0, 72, 89
2, 220892, Note_off_c, 0, 72, 64
2, 220992, Note_on_c, 0, 71, 101
2, 221084, Note_off_c, 0, 71, 64
2, 221184, Note_on_c, 0, 72, 110
2, 221564, Note_off_c, 0, 72, 64
2, 224448, Note_on_c, 0, 60, 66
2, 224540, Note_off_c, 0, 60, 64
2, 224640, Note_on_c, 0, 79, 66
2, 224640, Note_on_c, 0, 76, 66
2, 224640, Note_on_c, 0, 72, 66
2, 224732, Note_off_c, 0, 79, 64
2, 224732, Note_off_c, 0, 76, 64
2, 224732, Note_off_c, 0, 72, 64
2, 224832, Note_on_c, 0, 79, 66
2, 224832, Note_on_c, 0, 74, 66
2, 224832, Note_on_c, 0, 71, 66
2, 224924, Note_off_c, 0, 79, 64
2, 224924, Note_off_c, 0, 74, 64
2, 224924, Note_off_c, 0, 71, 64
2, 225024, Note_on_c, 0, 79, 66
2, 225024, Note_on_c, 0, 72, 66
2, 225024, Note_on_c, 0, 69, 66
2, 225072, Note_off_c, 0, 79, 64
2, 225072, Note_on_c, 0, 77, 66
2, 225164, Note_off_c, 0, 77, 64
2, 225216, Note_on_c, 0, 77, 66
2, 225308, Note_off_c, 0, 77, 64
2, 225404, Note_off_c, 0, 72, 64
2, 225404, Note_off_c, 0, 69, 64
2, 225408, Note_on_c, 0, 71, 66
2, 225408, Note_on_c, 0, 67, 66
2, 225600, Note_on_c, 0, 76, 66
2, 225788, Note_off_c, 0, 71, 64
2, 225788, Note_off_c, 0, 67, 64
2, 225788, Note_off_c, 0, 76, 64
2, 225792, Note_on_c, 0, 76, 66
2, 225792, Note_on_c, 0, 69, 66
2, 225792, Note_on_c, 0, 65, 66
2, 225836, Note_off_c, 0, 76, 64
2, 225840, Note_on_c, 0, 74, 66
2, 225932, Note_off_c, 0, 74, 64
2, 225984, Note_on_c, 0, 74, 66
2, 226076, Note_off_c, 0, 74, 64
2, 226172, Note_off_c, 0, 69, 64
2, 226172, Note_off_c, 0, 65, 64
2, 226176, Note_on_c, 0, 67, 66
2, 226176, Note_on_c, 0, 64, 66
2, 226368, Note_on_c, 0, 72, 66
2, 226460, Note_off_c, 0, 72, 64
2, 226556, Note_off_c, 0, 67, 64
2, 226556, Note_off_c, 0, 64, 64
2, 226560, Note_on_c, 0, 72, 66
2, 226560, Note_on_c, 0, 65, 66
2, 226560, Note_on_c, 0, 62, 66
2, 226604, Note_off_c, 0, 72, 64
2, 226608, Note_on_c, 0, 71, 66
2, 226700, Note_off_c, 0, 71, 64
2, 226752, Note_on_c, 0, 71, 66
2, 226844, Note_off_c, 0, 71, 64
2, 226940, Note_off_c, 0, 65, 64
2, 226940, Note_off_c, 0, 62, 64
2, 226944, Note_on_c, 0, 64, 66
2, 226944, Note_on_c, 0, 60, 66
2, 227088, Note_on_c, 0, 71, 66
2, 227132, Note_off_c, 0, 71, 64
2, 227136, Note_on_c, 0, 72, 66
2, 227180, Note_off_c, 0, 72, 64
2, 227184, Note_on_c, 0, 71, 66
2, 227228, Note_off_c, 0, 71, 64
2, 227232, Note_on_c, 0, 69, 66
2, 227276, Note_off_c, 0, 69, 64
2, 227280, Note_on_c, 0, 71, 66
2, 227324, Note_off_c, 0, 64, 64
2, 227324, Note_off_c, 0, 60, 64
2, 227324, Note_off_c, 0, 71, 64
2, 227328, Note_on_c, 0, 73, 66
2, 227328, Note_on_c, 0, 59, 66
2, 227328, Note_on_c, 0, 55, 66
2, 227516, Note_off_c, 0, 73, 64
2, 227520, Note_on_c, 0, 74, 66
2, 227708, Note_off_c, 0, 59, 64
2, 227708, Note_off_c, 0, 55, 64
2, 227708, Note_off_c, 0, 74, 64
2, 227712, Note_on_c, 0, 72, 68
2, 227712, Note_on_c, 0, 64, 68
2, 227804, Note_off_c, 0, 72, 64
2, 227808, Note_on_c, 0, 76, 75
2, 227900, Note_off_c, 0, 64, 64
2, 227900, Note_off_c, 0, 76, 64
2, 227904, Note_on_c, 0, 79, 81
2, 227904, Note_on_c, 0, 60, 81
2, 227996, Note_off_c, 0, 79, 64
2, 228000, Note_on_c, 0, 84, 90
2, 228092, Note_off_c, 0, 60, 64
2, 228092, Note_off_c, 0, 84, 64
2, 228096, Note_on_c, 0, 79, 105
2, 228096, Note_on_c, 0, 72, 105
2, 228096, Note_on_c, 0, 69, 105
2, 228188, Note_off_c, 0, 79, 64
2, 228192, Note_on_c, 0, 77, 94
2, 228284, Note_off_c, 0, 77, 64
2, 228288, Note_on_c, 0, 76, 89
2, 228380, Note_off_c, 0, 76, 64
2, 228384, Note_on_c, 0, 77, 82
2, 228476, Note_off_c, 0, 72, 64
2, 228476, Note_off_c, 0, 69, 64
2, 228476, Note_off_c, 0, 77, 64
2, 228480, Note_on_c, 0, 77, 78
2, 228480, Note_on_c, 0, 67, 78
2, 228480, Note_on_c, 0, 71, 78
2, 228572, Note_off_c, 0, 77, 64
2, 228576, Note_on_c, 0, 76, 75
2, 228668, Note_off_c, 0, 76, 64
2, 228672, Note_on_c, 0, 75, 71
2, 228764, Note_off_c, 0, 75, 64
2, 228768, Note_on_c, 0, 76, 68
2, 228860, Note_off_c, 0, 67, 64
2, 228860, Note_off_c, 0, 71, 64
2, 228860, Note_off_c, 0, 76, 64
2, 228864, Note_on_c, 0, 76, 68
2, 228864, Note_on_c, 0, 69, 77
2, 228864, Note_on_c, 0, 65, 77
2, 228956, Note_off_c, 0, 76, 64
2, 228960, Note_on_c, 0, 74, 66
2, 229052, Note_off_c, 0, 74, 64
2, 229056, Note_on_c, 0, 73, 66
2, 229148, Note_off_c, 0, 73, 64
2, 229152, Note_on_c, 0, 74, 66
2, 229244, Note_off_c, 0, 69, 64
2, 229244, Note_off_c, 0, 65, 64
2, 229244, Note_off_c, 0, 74, 64
2, 229248, Note_on_c, 0, 74, 66
2, 229248, Note_on_c, 0, 67, 66
2, 229248, Note_on_c, 0, 64, 67
2, 229340, Note_off_c, 0, 74, 64
2, 229344, Note_on_c, 0, 72, 81
2, 229436, Note_off_c, 0, 72, 64
2, 229440, Note_on_c, 0, 71, 81
2, 229532, Note_off_c, 0, 71, 64
2, 229536, Note_on_c, 0, 72, 81
2, 229628, Note_off_c, 0, 67, 64
2, 229628, Note_off_c, 0, 64, 64
2, 229628, Note_off_c, 0, 72, 64
2, 229632, Note_on_c, 0, 72, 68
2, 229632, Note_on_c, 0, 65, 79
2, 229632, Note_on_c, 0, 62, 79
2, 229724, Note_off_c, 0, 72, 64
2, 229728, Note_on_c, 0, 71, 73
2, 229820, Note_off_c, 0, 71, 64
2, 229824, Note_on_c, 0, 69, 78
2, 229916, Note_off_c, 0, 69, 64
2, 229920, Note_on_c, 0, 71, 82
2, 230012, Note_off_c, 0, 65, 64
2, 230012, Note_off_c, 0, 62, 64
2, 230012, Note_off_c, 0, 71, 64
2, 230016, Note_on_c, 0, 72, 90
2, 230016, Note_on_c, 0, 64, 90
2, 230108, Note_off_c, 0, 72, 64
2, 230112, Note_on_c, 0, 67, 94
2, 230204, Note_off_c, 0, 64, 64
2, 230204, Note_off_c, 0, 67, 64
2, 230208, Note_on_c, 0, 72, 101
2, 230208, Note_on_c, 0, 60, 101
2, 230300, Note_off_c, 0, 72, 64
2, 230304, Note_on_c, 0, 76, 105
2, 230396, Note_off_c, 0, 60, 64
2, 230396, Note_off_c, 0, 76, 64
2, 230400, Note_on_c, 0, 74, 110
2, 230400, Note_on_c, 0, 71, 110
2, 230780, Note_off_c, 0, 74, 64
2, 230780, Note_off_c, 0, 71, 64
2, 235008, Note_on_c, 0, 64, 66
2, 235584, Note_on_c, 0, 65, 66
2, 235772, Note_off_c, 0, 65, 64
2, 235776, Note_on_c, 0, 66, 66
2, 235964, Note_off_c, 0, 66, 64
2, 235968, Note_on_c, 0, 67, 66
2, 236156, Note_off_c, 0, 64, 64
2, 236156, Note_off_c, 0, 67, 64
2, 236160, Note_on_c, 0, 69, 66
2, 236348, Note_off_c, 0, 69, 64
2, 236352, Note_on_c, 0, 71, 66
2, 236540, Note_off_c, 0, 71, 64
2, 236544, Note_on_c, 0, 71, 66
2, 236732, Note_off_c, 0, 71, 64
2, 236736, Note_on_c, 0, 72, 66
2, 236924, Note_off_c, 0, 72, 64
2, 236928, Note_on_c, 0, 72, 66
2, 237692, Note_off_c, 0, 72, 64
2, 237696, Note_on_c, 0, 74, 66
2, 237788, Note_off_c, 0, 74, 64
2, 237792, Note_on_c, 0, 72, 66
2, 237884, Note_off_c, 0, 72, 64
2, 237888, Note_on_c, 0, 71, 66
2, 237980, Note_off_c, 0, 71, 64
2, 237984, Note_on_c, 0, 69, 66
2, 238076, Note_off_c, 0, 69, 64
2, 238080, Note_on_c, 0, 69, 66
2, 238172, Note_off_c, 0, 69, 64
2, 238176, Note_on_c, 0, 67, 66
2, 238268, Note_off_c, 0, 67, 64
2, 238272, Note_on_c, 0, 66, 66
2, 238364, Note_off_c, 0, 66, 64
2, 238368, Note_on_c, 0, 67, 66
2, 238460, Note_off_c, 0, 67, 64
2, 238464, Note_on_c, 0, 66, 66
2, 238556, Note_off_c, 0, 66, 64
2, 238560, Note_on_c, 0, 67, 66
2, 238652, Note_off_c, 0, 67, 64
2, 238656, Note_on_c, 0, 69, 66
2, 238748, Note_off_c, 0, 69, 64
2, 238752, Note_on_c, 0, 67, 66
2, 238844, Note_off_c, 0, 67, 64
2, 238848, Note_on_c, 0, 67, 66
2, 238940, Note_off_c, 0, 67, 64
2, 238944, Note_on_c, 0, 65, 66
2, 239036, Note_off_c, 0, 65, 64
2, 239040, Note_on_c, 0, 64, 66
2, 239132, Note_off_c, 0, 64, 64
2, 239136, Note_on_c, 0, 65, 66
2, 239228, Note_off_c, 0, 65, 64
2, 239232, Note_on_c, 0, 64, 66
2, 239324, Note_off_c, 0, 64, 64
2, 239328, Note_on_c, 0, 65, 66
2, 239420, Note_off_c, 0, 65, 64
2, 239424, Note_on_c, 0, 67, 66
2, 239516, Note_off_c, 0, 67, 64
2, 239520, Note_on_c, 0, 65, 66
2, 239612, Note_off_c, 0, 65, 64
2, 239616, Note_on_c, 0, 65, 66
2, 239708, Note_off_c, 0, 65, 64
2, 239712, Note_on_c, 0, 64, 66
2, 239804, Note_off_c, 0, 64, 64
2, 239808, Note_on_c, 0, 69, 66
2, 239900, Note_off_c, 0, 69, 64
2, 239904, Note_on_c, 0, 67, 66
2, 239996, Note_off_c, 0, 67, 64
2, 240000, Note_on_c, 0, 67, 66
2, 240380, Note_off_c, 0, 67, 64
2, 241152, Note_on_c, 0, 76, 66
2, 241152, Note_on_c, 0, 60, 66
2, 241340, Note_off_c, 0, 60, 64
2, 241344, Note_on_c, 0, 67, 66
2, 241532, Note_off_c, 0, 67, 64
2, 241536, Note_on_c, 0, 64, 66
2, 241680, Note_on_c, 0, 76, 66
2, 241724, Note_off_c, 0, 76, 64
2, 241724, Note_off_c, 0, 64, 64
2, 241724, Note_off_c, 0, 76, 64
2, 241728, Note_on_c, 0, 77, 66
2, 241728, Note_on_c, 0, 67, 66
2, 241772, Note_off_c, 0, 77, 64
2, 241776, Note_on_c, 0, 76, 66
2, 241820, Note_off_c, 0, 76, 64
2, 241824, Note_on_c, 0, 74, 66
2, 241868, Note_off_c, 0, 74, 64
2, 241872, Note_on_c, 0, 76, 66
2, 241916, Note_off_c, 0, 67, 64
2, 241916, Note_off_c, 0, 76, 64
2, 241920, Note_on_c, 0, 77, 68
2, 241920, Note_on_c, 0, 59, 68
2, 242108, Note_off_c, 0, 77, 64
2, 242108, Note_off_c, 0, 59, 64
2, 242112, Note_on_c, 0, 79, 73
2, 242112, Note_on_c, 0, 67, 73
2, 242300, Note_off_c, 0, 79, 64
2, 242300, Note_off_c, 0, 67, 64
2, 242304, Note_on_c, 0, 81, 78
2, 242304, Note_on_c, 0, 62, 78
2, 242492, Note_off_c, 0, 81, 64
2, 242492, Note_off_c, 0, 62, 64
2, 242496, Note_on_c, 0, 83, 85
2, 242496, Note_on_c, 0, 67, 85
2, 242684, Note_off_c, 0, 83, 64
2, 242684, Note_off_c, 0, 67, 64
2, 242688, Note_on_c, 0, 83, 66
2, 242688, Note_on_c, 0, 57, 66
2, 242876, Note_off_c, 0, 83, 64
2, 242876, Note_off_c, 0, 57, 64
2, 242880, Note_on_c, 0, 86, 66
2, 242880, Note_on_c, 0, 64, 66
2, 242972, Note_off_c, 0, 86, 64
2, 242976, Note_on_c, 0, 84, 66
2, 243068, Note_off_c, 0, 64, 64
2, 243068, Note_off_c, 0, 84, 64
2, 243072, Note_on_c, 0, 84, 78
2, 243072, Note_on_c, 0, 60, 78
2, 243260, Note_off_c, 0, 60, 64
2, 243264, Note_on_c, 0, 64, 66
2, 243452, Note_off_c, 0, 64, 64
2, 243644, Note_off_c, 0, 84, 64
2, 243648, Note_on_c, 0, 83, 66
2, 243740, Note_off_c, 0, 83, 64
2, 243744, Note_on_c, 0, 84, 66
2, 243836, Note_off_c, 0, 84, 64
2, 243840, Note_on_c, 0, 86, 66
2, 243932, Note_off_c, 0, 86, 64
2, 243936, Note_on_c, 0, 84, 66
2, 244028, Note_off_c, 0, 84, 64
2, 244032, Note_on_c, 0, 83, 66
2, 244124, Note_off_c, 0, 83, 64
2, 244128, Note_on_c, 0, 81, 66
2, 244220, Note_off_c, 0, 81, 64
2, 244224, Note_on_c, 0, 79, 67
2, 244316, Note_off_c, 0, 79, 64
2, 244320, Note_on_c, 0, 77, 71
2, 244412, Note_off_c, 0, 77, 64
2, 244416, Note_on_c, 0, 76, 77
2, 244508, Note_off_c, 0, 76, 64
2, 244512, Note_on_c, 0, 77, 81
2, 244604, Note_off_c, 0, 77, 64
2, 244608, Note_on_c, 0, 79, 89
2, 244700, Note_off_c, 0, 79, 64
2, 244704, Note_on_c, 0, 81, 94
2, 244796, Note_off_c, 0, 81, 64
2, 244800, Note_on_c, 0, 83, 100
2, 244892, Note_off_c, 0, 83, 64
2, 244896, Note_on_c, 0, 84, 105
2, 244988, Note_off_c, 0, 84, 64
2, 244992, Note_on_c, 0, 83, 105
2, 245084, Note_off_c, 0, 83, 64
2, 245088, Note_on_c, 0, 84, 101
2, 245180, Note_off_c, 0, 84, 64
2, 245184, Note_on_c, 0, 86, 97
2, 245276, Note_off_c, 0, 86, 64
2, 245280, Note_on_c, 0, 83, 92
2, 245372, Note_off_c, 0, 83, 64
2, 245376, Note_on_c, 0, 74, 85
2, 245468, Note_off_c, 0, 74, 64
2, 245472, Note_on_c, 0, 76, 80
2, 245564, Note_off_c, 0, 76, 64
2, 245568, Note_on_c, 0, 77, 75
2, 245660, Note_off_c, 0, 77, 64
2, 245664, Note_on_c, 0, 74, 71
2, 245756, Note_off_c, 0, 74, 64
2, 245760, Note_on_c, 0, 76, 66
2, 245760, Note_on_c, 0, 60, 66
2, 245852, Note_off_c, 0, 76, 64
2, 245852, Note_off_c, 0, 60, 64
2, 245856, Note_on_c, 0, 72, 66
2, 245948, Note_off_c, 0, 72, 64
2, 245952, Note_on_c, 0, 71, 66
2, 246044, Note_off_c, 0, 71, 64
2, 246048, Note_on_c, 0, 72, 66
2, 246140, Note_off_c, 0, 72, 64
2, 246144, Note_on_c, 0, 79, 66
2, 246144, Note_on_c, 0, 64, 66
2, 246236, Note_off_c, 0, 79, 64
2, 246236, Note_off_c, 0, 64, 64
2, 246240, Note_on_c, 0, 72, 66
2, 246332, Note_off_c, 0, 72, 64
2, 246336, Note_on_c, 0, 71, 66
2, 246428, Note_off_c, 0, 71, 64
2, 246432, Note_on_c, 0, 72, 66
2, 246524, Note_off_c, 0, 72, 64
2, 246528, Note_on_c, 0, 60, 66
2, 246620, Note_off_c, 0, 60, 64
2, 246624, Note_on_c, 0, 72, 66
2, 246716, Note_off_c, 0, 72, 64
2, 246720, Note_on_c, 0, 86, 66
2, 246720, Note_on_c, 0, 71, 66
2, 246764, Note_off_c, 0, 86, 64
2, 246768, Note_on_c, 0, 84, 66
2, 246812, Note_off_c, 0, 71, 64
2, 246812, Note_off_c, 0, 84, 64
2, 246816, Note_on_c, 0, 83, 66
2, 246816, Note_on_c, 0, 72, 66
2, 246908, Note_off_c, 0, 83, 64
2, 246908, Note_off_c, 0, 72, 64
2, 246912, Note_on_c, 0, 84, 66
2, 246912, Note_on_c, 0, 64, 66
2, 247004, Note_off_c, 0, 84, 64
2, 247004, Note_off_c, 0, 64, 64
2, 247008, Note_on_c, 0, 72, 66
2, 247100, Note_off_c, 0, 72, 64
2, 247104, Note_on_c, 0, 82, 66
2, 247104, Note_on_c, 0, 71, 66
2, 247196, Note_off_c, 0, 82, 64
2, 247196, Note_off_c, 0, 71, 64
2, 247200, Note_on_c, 0, 72, 66
2, 247292, Note_off_c, 0, 72, 64
2, 247296, Note_on_c, 0, 80, 66
2, 247296, Note_on_c, 0, 60, 66
2, 247388, Note_off_c, 0, 60, 64
2, 247392, Note_on_c, 0, 72, 66
2, 247484, Note_off_c, 0, 80, 64
2, 247484, Note_off_c, 0, 72, 64
2, 247488, Note_on_c, 0, 81, 66
2, 247488, Note_on_c, 0, 71, 66
2, 247580, Note_off_c, 0, 71, 64
2, 247584, Note_on_c, 0, 72, 66
2, 247676, Note_off_c, 0, 81, 64
2, 247676, Note_off_c, 0, 72, 64
2, 247680, Note_on_c, 0, 81, 66
2, 247680, Note_on_c, 0, 65, 66
2, 247772, Note_off_c, 0, 65, 64
2, 247776, Note_on_c, 0, 72, 66
2, 247868, Note_off_c, 0, 72, 64
2, 247872, Note_on_c, 0, 71, 66
2, 247964, Note_off_c, 0, 71, 64
2, 247968, Note_on_c, 0, 72, 66
2, 248060, Note_off_c, 0, 72, 64
2, 248064, Note_on_c, 0, 60, 66
2, 248156, Note_off_c, 0, 60, 64
2, 248160, Note_on_c, 0, 72, 66
2, 248252, Note_off_c, 0, 81, 64
2, 248252, Note_off_c, 0, 72, 64
2, 248256, Note_on_c, 0, 83, 66
2, 248256, Note_on_c, 0, 71, 66
2, 248348, Note_off_c, 0, 83, 64
2, 248348, Note_off_c, 0, 71, 64
2, 248352, Note_on_c, 0, 84, 66
2, 248352, Note_on_c, 0, 72, 66
2, 248444, Note_off_c, 0, 84, 64
2, 248444, Note_off_c, 0, 72, 64
2, 248448, Note_on_c, 0, 83, 66
2, 248448, Note_on_c, 0, 65, 66
2, 248540, Note_off_c, 0, 83, 64
2, 248540, Note_off_c, 0, 65, 64
2, 248544, Note_on_c, 0, 72, 66
2, 248636, Note_off_c, 0, 72, 64
2, 248640, Note_on_c, 0, 81, 66
2, 248640, Note_on_c, 0, 71, 66
2, 248732, Note_off_c, 0, 81, 64
2, 248732, Note_off_c, 0, 71, 64
2, 248736, Note_on_c, 0, 72, 66
2, 248828, Note_off_c, 0, 72, 64
2, 248832, Note_on_c, 0, 78, 66
2, 248832, Note_on_c, 0, 60, 66
2, 248924, Note_off_c, 0, 60, 64
2, 248928, Note_on_c, 0, 72, 66
2, 249020, Note_off_c, 0, 78, 64
2, 249020, Note_off_c, 0, 72, 64
2, 249024, Note_on_c, 0, 79, 66
2, 249024, Note_on_c, 0, 71, 66
2, 249116, Note_off_c, 0, 71, 64
2, 249120, Note_on_c, 0, 72, 66
2, 249212, Note_off_c, 0, 79, 64
2, 249212, Note_off_c, 0, 72, 64
2, 249216, Note_on_c, 0, 64, 66
2, 249216, Note_on_c, 0, 79, 77
2, 249308, Note_off_c, 0, 64, 64
2, 249312, Note_on_c, 0, 72, 66
2, 249404, Note_off_c, 0, 72, 64
2, 249408, Note_on_c, 0, 71, 66
2, 249500, Note_off_c, 0, 71, 64
2, 249504, Note_on_c, 0, 72, 66
2, 249596, Note_off_c, 0, 72, 64
2, 249600, Note_on_c, 0, 60, 66
2, 249692, Note_off_c, 0, 60, 64
2, 249696, Note_on_c, 0, 72, 66
2, 249788, Note_off_c, 0, 79, 64
2, 249788, Note_off_c, 0, 72, 64
2, 249792, Note_on_c, 0, 76, 66
2, 249792, Note_on_c, 0, 71, 66
2, 249884, Note_off_c, 0, 71, 64
2, 249888, Note_on_c, 0, 72, 66
2, 249980, Note_off_c, 0, 76, 64
2, 249980, Note_off_c, 0, 72, 64
2, 249984, Note_on_c, 0, 84, 66
2, 249984, Note_on_c, 0, 64, 66
2, 250076, Note_off_c, 0, 64, 64
2, 250080, Note_on_c, 0, 72, 66
2, 250172, Note_off_c, 0, 84, 64
2, 250172, Note_off_c, 0, 72, 64
2, 250176, Note_on_c, 0, 82, 66
2, 250176, Note_on_c, 0, 71, 66
2, 250268, Note_off_c, 0, 71, 64
2, 250272, Note_on_c, 0, 72, 66
2, 250364, Note_off_c, 0, 82, 64
2, 250364, Note_off_c, 0, 72, 64
2, 250368, Note_on_c, 0, 80, 66
2, 250368, Note_on_c, 0, 60, 66
2, 250460, Note_off_c, 0, 60, 64
2, 250464, Note_on_c, 0, 72, 66
2, 250556, Note_off_c, 0, 80, 64
2, 250556, Note_off_c, 0, 72, 64
2, 250560, Note_on_c, 0, 81, 66
2, 250560, Note_on_c, 0, 71, 66
2, 250652, Note_off_c, 0, 71, 64
2, 250656, Note_on_c, 0, 72, 66
2, 250748, Note_off_c, 0, 81, 64
2, 250748, Note_off_c, 0, 72, 64
2, 250752, Note_on_c, 0, 81, 66
2, 250752, Note_on_c, 0, 65, 66
2, 250844, Note_off_c, 0, 81, 64
2, 250844, Note_off_c, 0, 65, 64
2, 250848, Note_on_c, 0, 77, 66
2, 250848, Note_on_c, 0, 72, 66
2, 250940, Note_off_c, 0, 77, 64
2, 250940, Note_off_c, 0, 72, 64
2, 250944, Note_on_c, 0, 72, 66
2, 250944, Note_on_c, 0, 71, 66
2, 251036, Note_off_c, 0, 72, 64
2, 251036, Note_off_c, 0, 71, 64
2, 251040, Note_on_c, 0, 77, 66
2, 251040, Note_on_c, 0, 72, 66
2, 251132, Note_off_c, 0, 77, 64
2, 251132, Note_off_c, 0, 72, 64
2, 251136, Note_on_c, 0, 81, 66
2, 251136, Note_on_c, 0, 60, 66
2, 251228, Note_off_c, 0, 60, 64
2, 251232, Note_on_c, 0, 72, 66
2, 251324, Note_off_c, 0, 81, 64
2, 251324, Note_off_c, 0, 72, 64
2, 251328, Note_on_c, 0, 77, 66
2, 251328, Note_on_c, 0, 71, 66
2, 251420, Note_off_c, 0, 71, 64
2, 251424, Note_on_c, 0, 72, 66
2, 251516, Note_off_c, 0, 77, 64
2, 251516, Note_off_c, 0, 72, 64
2, 251520, Note_on_c, 0, 84, 66
2, 251520, Note_on_c, 0, 65, 66
2, 251612, Note_off_c, 0, 65, 64
2, 251616, Note_on_c, 0, 72, 66
2, 251708, Note_off_c, 0, 84, 64
2, 251708, Note_off_c, 0, 72, 64
2, 251712, Note_on_c, 0, 81, 66
2, 251712, Note_on_c, 0, 71, 66
2, 251804, Note_off_c, 0, 71, 64
2, 251808, Note_on_c, 0, 72, 66
2, 251900, Note_off_c, 0, 81, 64
2, 251900, Note_off_c, 0, 72, 64
2, 251904, Note_on_c, 0, 79, 68
2, 251904, Note_on_c, 0, 60, 68
2, 251996, Note_off_c, 0, 60, 64
2, 252000, Note_on_c, 0, 72, 73
2, 252092, Note_off_c, 0, 72, 64
2, 252096, Note_on_c, 0, 71, 77
2, 252188, Note_off_c, 0, 79, 64
2, 252188, Note_off_c, 0, 71, 64
2, 252192, Note_on_c, 0, 76, 81
2, 252192, Note_on_c, 0, 72, 81
2, 252284, Note_off_c, 0, 76, 64
2, 252284, Note_off_c, 0, 72, 64
2, 252288, Note_on_c, 0, 84, 105
2, 252384, Note_on_c, 0, 64, 103
2, 252476, Note_off_c, 0, 64, 64
2, 252480, Note_on_c, 0, 72, 100
2, 252572, Note_off_c, 0, 84, 64
2, 252572, Note_off_c, 0, 72, 64
2, 252576, Note_on_c, 0, 79, 96
2, 252576, Note_on_c, 0, 71, 96
2, 252656, Note_on_c, 0, 72, 92
2, 252668, Note_off_c, 0, 79, 64
2, 252668, Note_off_c, 0, 71, 64
2, 252672, Note_on_c, 0, 88, 92
2, 252748, Note_off_c, 0, 72, 64
2, 252764, Note_off_c, 0, 88, 64
2, 252768, Note_on_c, 0, 86, 89
2, 252860, Note_off_c, 0, 86, 64
2, 252864, Note_on_c, 0, 84, 82
2, 252956, Note_off_c, 0, 84, 64
2, 252960, Note_on_c, 0, 83, 79
2, 253052, Note_off_c, 0, 83, 64
2, 253056, Note_on_c, 0, 81, 75
2, 253148, Note_off_c, 0, 81, 64
2, 253152, Note_on_c, 0, 79, 73
2, 253244, Note_off_c, 0, 79, 64
2, 253248, Note_on_c, 0, 77, 69
2, 253340, Note_off_c, 0, 77, 64
2, 253344, Note_on_c, 0, 76, 66
2, 253436, Note_off_c, 0, 76, 64
2, 253440, Note_on_c, 0, 74, 66
2, 253532, Note_off_c, 0, 74, 64
2, 253536, Note_on_c, 0, 72, 70
2, 253628, Note_off_c, 0, 72, 64
2, 253632, Note_on_c, 0, 76, 75
2, 253724, Note_off_c, 0, 76, 64
2, 253728, Note_on_c, 0, 74, 80
2, 253820, Note_off_c, 0, 74, 64
2, 253824, Note_on_c, 0, 77, 88
2, 253916, Note_off_c, 0, 77, 64
2, 253920, Note_on_c, 0, 74, 93
2, 254012, Note_off_c, 0, 74, 64
2, 254016, Note_on_c, 0, 79, 101
2, 254108, Note_off_c, 0, 79, 64
2, 254112, Note_on_c, 0, 77, 105
2, 254204, Note_off_c, 0, 77, 64
2, 254208, Note_on_c, 0, 81, 105
2, 254300, Note_off_c, 0, 81, 64
2, 254304, Note_on_c, 0, 79, 101
2, 254396, Note_off_c, 0, 79, 64
2, 254400, Note_on_c, 0, 77, 96
2, 254492, Note_off_c, 0, 77, 64
2, 254496, Note_on_c, 0, 76, 91
2, 254588, Note_off_c, 0, 76, 64
2, 254592, Note_on_c, 0, 74, 84
2, 254684, Note_off_c, 0, 74, 64
2, 254688, Note_on_c, 0, 72, 79
2, 254780, Note_off_c, 0, 72, 64
2, 254784, Note_on_c, 0, 71, 74
2, 254876, Note_off_c, 0, 71, 64
2, 254880, Note_on_c, 0, 72, 69
2, 254972, Note_off_c, 0, 72, 64
2, 254976, Note_on_c, 0, 71, 66
2, 255356, Note_off_c, 0, 71, 64
2, 255360, Note_on_c, 0, 79, 66
2, 255452, Note_off_c, 0, 79, 64
2, 255552, Note_on_c, 0, 79, 66
2, 255644, Note_off_c, 0, 79, 64
2, 255744, Note_on_c, 0, 79, 66
2, 256316, Note_off_c, 0, 79, 64
2, 256320, Note_on_c, 0, 84, 66
2, 256508, Note_off_c, 0, 84, 64
2, 256512, Note_on_c, 0, 83, 74
2, 256560, Note_off_c, 0, 83, 64
2, 256564, Note_on_c, 0, 81, 66
2, 256612, Note_off_c, 0, 81, 64
2, 256616, Note_on_c, 0, 79, 66
2, 256892, Note_off_c, 0, 79, 64
2, 256896, Note_on_c, 0, 79, 66
2, 256988, Note_off_c, 0, 79, 64
2, 257088, Note_on_c, 0, 79, 66
2, 257180, Note_off_c, 0, 79, 64
2, 257280, Note_on_c, 0, 79, 66
2, 257852, Note_off_c, 0, 79, 64
2, 257856, Note_on_c, 0, 84, 66
2, 258044, Note_off_c, 0, 84, 64
2, 258048, Note_on_c, 0, 83, 81
2, 258096, Note_off_c, 0, 83, 64
2, 258100, Note_on_c, 0, 81, 66
2, 258148, Note_off_c, 0, 81, 64
2, 258152, Note_on_c, 0, 79, 66
2, 258428, Note_off_c, 0, 79, 64
2, 259584, Note_on_c, 0, 79, 69
2, 259772, Note_off_c, 0, 79, 64
2, 259776, Note_on_c, 0, 78, 77
2, 259964, Note_off_c, 0, 78, 64
2, 259968, Note_on_c, 0, 79, 85
2, 260156, Note_off_c, 0, 79, 64
2, 260160, Note_on_c, 0, 78, 96
2, 260348, Note_off_c, 0, 78, 64
2, 260352, Note_on_c, 0, 79, 94
2, 260924, Note_off_c, 0, 79, 64
2, 260928, Note_on_c, 0, 76, 71
2, 261116, Note_off_c, 0, 76, 64
2, 261120, Note_on_c, 0, 72, 66
2, 261120, Note_on_c, 0, 67, 66
2, 261212, Note_off_c, 0, 72, 64
2, 261212, Note_off_c, 0, 67, 64
2, 261504, Note_on_c, 0, 74, 66
2, 261504, Note_on_c, 0, 71, 66
2, 261596, Note_off_c, 0, 74, 64
2, 261596, Note_off_c, 0, 71, 64
2, 261888, Note_on_c, 0, 77, 66
2, 261888, Note_on_c, 0, 74, 66
2, 261932, Note_off_c, 0, 77, 64
2, 261932, Note_off_c, 0, 74, 64
2, 261936, Note_on_c, 0, 76, 66
2, 261936, Note_on_c, 0, 72, 66
2, 262028, Note_off_c, 0, 76, 64
2, 262028, Note_off_c, 0, 72, 64
2, 262272, Note_on_c, 0, 74, 66
2, 262272, Note_on_c, 0, 71, 66
2, 262364, Note_off_c, 0, 74, 64
2, 262364, Note_off_c, 0, 71, 64
2, 262656, Note_on_c, 0, 79, 69
2, 262844, Note_off_c, 0, 79, 64
2, 262848, Note_on_c, 0, 78, 77
2, 263036, Note_off_c, 0, 78, 64
2, 263040, Note_on_c, 0, 79, 85
2, 263228, Note_off_c, 0, 79, 64
2, 263232, Note_on_c, 0, 78, 96
2, 263420, Note_off_c, 0, 78, 64
2, 263424, Note_on_c, 0, 79, 94
2, 263996, Note_off_c, 0, 79, 64
2, 264000, Note_on_c, 0, 81, 71
2, 264188, Note_off_c, 0, 81, 64
2, 264192, Note_on_c, 0, 74, 66
2, 264192, Note_on_c, 0, 71, 66
2, 264192, Note_on_c, 0, 65, 66
2, 264284, Note_off_c, 0, 74, 64
2, 264284, Note_off_c, 0, 71, 64
2, 264284, Note_off_c, 0, 65, 64
2, 264576, Note_on_c, 0, 76, 66
2, 264576, Note_on_c, 0, 72, 66
2, 264576, Note_on_c, 0, 64, 66
2, 264668, Note_off_c, 0, 76, 64
2, 264668, Note_off_c, 0, 72, 64
2, 264668, Note_off_c, 0, 64, 64
2, 264960, Note_on_c, 0, 79, 66
2, 264960, Note_on_c, 0, 76, 66
2, 265004, Note_off_c, 0, 79, 64
2, 265004, Note_off_c, 0, 76, 64
2, 265008, Note_on_c, 0, 77, 66
2, 265008, Note_on_c, 0, 74, 66
2, 265008, Note_on_c, 0, 60, 66
2, 265100, Note_off_c, 0, 77, 64
2, 265100, Note_off_c, 0, 74, 64
2, 265100, Note_off_c, 0, 60, 64
2, 265344, Note_on_c, 0, 76, 66
2, 265344, Note_on_c, 0, 72, 66
2, 265344, Note_on_c, 0, 60, 66
2, 265436, Note_off_c, 0, 76, 64
2, 265436, Note_off_c, 0, 72, 64
2, 265436, Note_off_c, 0, 60, 64
2, 265728, Note_on_c, 0, 84, 66
2, 265916, Note_off_c, 0, 84, 64
2, 265920, Note_on_c, 0, 83, 66
2, 266108, Note_off_c, 0, 83, 64
2, 266112, Note_on_c, 0, 84, 66
2, 266300, Note_off_c, 0, 84, 64
2, 266304, Note_on_c, 0, 83, 66
2, 266492, Note_off_c, 0, 83, 64
2, 266496, Note_on_c, 0, 84, 66
2, 266496, Note_on_c, 0, 64, 66
2, 266588, Note_off_c, 0, 64, 64
2, 266592, Note_on_c, 0, 72, 66
2, 266684, Note_off_c, 0, 72, 64
2, 266688, Note_on_c, 0, 71, 66
2, 266780, Note_off_c, 0, 71, 64
2, 266784, Note_on_c, 0, 72, 66
2, 266876, Note_off_c, 0, 72, 64
2, 266880, Note_on_c, 0, 64, 66
2, 266972, Note_off_c, 0, 64, 64
2, 266976, Note_on_c, 0, 72, 66
2, 267068, Note_off_c, 0, 84, 64
2, 267068, Note_off_c, 0, 72, 64
2, 267072, Note_on_c, 0, 86, 66
2, 267072, Note_on_c, 0, 71, 66
2, 267164, Note_off_c, 0, 71, 64
2, 267168, Note_on_c, 0, 72, 66
2, 267260, Note_off_c, 0, 86, 64
2, 267260, Note_off_c, 0, 72, 64
2, 267264, Note_on_c, 0, 84, 69
2, 267264, Note_on_c, 0, 64, 69
2, 267356, Note_off_c, 0, 64, 64
2, 267360, Note_on_c, 0, 72, 74
2, 267452, Note_off_c, 0, 84, 64
2, 267452, Note_off_c, 0, 72, 64
2, 267456, Note_on_c, 0, 82, 78
2, 267456, Note_on_c, 0, 71, 78
2, 267548, Note_off_c, 0, 71, 64
2, 267552, Note_on_c, 0, 72, 82
2, 267644, Note_off_c, 0, 82, 64
2, 267644, Note_off_c, 0, 72, 64
2, 267648, Note_on_c, 0, 81, 89
2, 267648, Note_on_c, 0, 64, 89
2, 267740, Note_off_c, 0, 64, 64
2, 267744, Note_on_c, 0, 72, 94
2, 267836, Note_off_c, 0, 81, 64
2, 267836, Note_off_c, 0, 72, 64
2, 267840, Note_on_c, 0, 80, 101
2, 267840, Note_on_c, 0, 69, 101
2, 267932, Note_off_c, 0, 69, 64
2, 267936, Note_on_c, 0, 72, 105
2, 268028, Note_off_c, 0, 80, 64
2, 268028, Note_off_c, 0, 72, 64
2, 268032, Note_on_c, 0, 80, 116
2, 268032, Note_on_c, 0, 65, 105
2, 268124, Note_off_c, 0, 65, 64
2, 268128, Note_on_c, 0, 72, 101
2, 268220, Note_off_c, 0, 72, 64
2, 268224, Note_on_c, 0, 71, 94
2, 268316, Note_off_c, 0, 71, 64
2, 268320, Note_on_c, 0, 72, 89
2, 268412, Note_off_c, 0, 80, 64
2, 268412, Note_off_c, 0, 72, 64
2, 268416, Note_on_c, 0, 81, 82
2, 268416, Note_on_c, 0, 65, 82
2, 268508, Note_off_c, 0, 65, 64
2, 268512, Note_on_c, 0, 72, 78
2, 268604, Note_off_c, 0, 81, 64
2, 268604, Note_off_c, 0, 72, 64
2, 268608, Note_on_c, 0, 71, 74
2, 268700, Note_off_c, 0, 71, 64
2, 268704, Note_on_c, 0, 72, 69
2, 268796, Note_off_c, 0, 72, 64
2, 268800, Note_on_c, 0, 72, 66
2, 268800, Note_on_c, 0, 65, 66
2, 268800, Note_on_c, 0, 81, 66
2, 268856, Note_off_c, 0, 81, 64
2, 268864, Note_on_c, 0, 83, 66
2, 268920, Note_off_c, 0, 83, 64
2, 268928, Note_on_c, 0, 84, 66
2, 269180, Note_off_c, 0, 72, 64
2, 269180, Note_off_c, 0, 65, 64
2, 269180, Note_off_c, 0, 84, 64
2, 269184, Note_on_c, 0, 83, 66
2, 269276, Note_off_c, 0, 83, 64
2, 269280, Note_on_c, 0, 81, 66
2, 269372, Note_off_c, 0, 81, 64
2, 269376, Note_on_c, 0, 79, 66
2, 269468, Note_off_c, 0, 79, 64
2, 269472, Note_on_c, 0, 77, 66
2, 269564, Note_off_c, 0, 77, 64
2, 269568, Note_on_c, 0, 69, 66
2, 269568, Note_on_c, 0, 65, 66
2, 269568, Note_on_c, 0, 77, 66
2, 269624, Note_off_c, 0, 77, 64
2, 269632, Note_on_c, 0, 79, 66
2, 269688, Note_off_c, 0, 79, 64
2, 269696, Note_on_c, 0, 81, 66
2, 269948, Note_off_c, 0, 69, 64
2, 269948, Note_off_c, 0, 65, 64
2, 269948, Note_off_c, 0, 81, 64
2, 269952, Note_on_c, 0, 79, 66
2, 270044, Note_off_c, 0, 79, 64
2, 270048, Note_on_c, 0, 77, 66
2, 270140, Note_off_c, 0, 77, 64
2, 270144, Note_on_c, 0, 76, 66
2, 270236, Note_off_c, 0, 76, 64
2, 270240, Note_on_c, 0, 74, 66
2, 270332, Note_off_c, 0, 74, 64
2, 270336, Note_on_c, 0, 73, 68
2, 270524, Note_off_c, 0, 73, 64
2, 270528, Note_on_c, 0, 74, 77
2, 270716, Note_off_c, 0, 74, 64
2, 270720, Note_on_c, 0, 77, 89
2, 270908, Note_off_c, 0, 77, 64
2, 270912, Note_on_c, 0, 74, 99
2, 271100, Note_off_c, 0, 74, 64
2, 271104, Note_on_c, 0, 72, 103
2, 271484, Note_off_c, 0, 72, 64
2, 271488, Note_on_c, 0, 76, 81
2, 271676, Note_off_c, 0, 76, 64
2, 271680, Note_on_c, 0, 74, 71
2, 271868, Note_off_c, 0, 74, 64
2, 271872, Note_on_c, 0, 72, 68
2, 271964, Note_off_c, 0, 72, 64
2, 271968, Note_on_c, 0, 84, 73
2, 272060, Note_off_c, 0, 84, 64
2, 272064, Note_on_c, 0, 83, 77
2, 272156, Note_off_c, 0, 83, 64
2, 272160, Note_on_c, 0, 84, 81
2, 272252, Note_off_c, 0, 84, 64
2, 272256, Note_on_c, 0, 86, 89
2, 272348, Note_off_c, 0, 86, 64
2, 272352, Note_on_c, 0, 84, 93
2, 272444, Note_off_c, 0, 84, 64
2, 272448, Note_on_c, 0, 83, 99
2, 272540, Note_off_c, 0, 83, 64
2, 272544, Note_on_c, 0, 84, 103
2, 272636, Note_off_c, 0, 84, 64
2, 272640, Note_on_c, 0, 88, 103
2, 272732, Note_off_c, 0, 88, 64
2, 272736, Note_on_c, 0, 84, 99
2, 272828, Note_off_c, 0, 84, 64
2, 272832, Note_on_c, 0, 83, 93
2, 272924, Note_off_c, 0, 83, 64
2, 272928, Note_on_c, 0, 84, 88
2, 273020, Note_off_c, 0, 84, 64
2, 273024, Note_on_c, 0, 79, 81
2, 273024, Note_on_c, 0, 76, 81
2, 273116, Note_off_c, 0, 79, 64
2, 273116, Note_off_c, 0, 76, 64
2, 273120, Note_on_c, 0, 84, 77
2, 273212, Note_off_c, 0, 84, 64
2, 273216, Note_on_c, 0, 81, 71
2, 273216, Note_on_c, 0, 77, 71
2, 273308, Note_off_c, 0, 81, 64
2, 273308, Note_off_c, 0, 77, 64
2, 273312, Note_on_c, 0, 84, 67
2, 273404, Note_off_c, 0, 84, 64
2, 273408, Note_on_c, 0, 79, 68
2, 273408, Note_on_c, 0, 76, 68
2, 273500, Note_off_c, 0, 79, 64
2, 273504, Note_on_c, 0, 84, 73
2, 273596, Note_off_c, 0, 84, 64
2, 273600, Note_on_c, 0, 83, 77
2, 273692, Note_off_c, 0, 83, 64
2, 273696, Note_on_c, 0, 84, 81
2, 273788, Note_off_c, 0, 76, 64
2, 273788, Note_off_c, 0, 84, 64
2, 273792, Note_on_c, 0, 86, 89
2, 273884, Note_off_c, 0, 86, 64
2, 273888, Note_on_c, 0, 84, 93
2, 273980, Note_off_c, 0, 84, 64
2, 273984, Note_on_c, 0, 83, 99
2, 274076, Note_off_c, 0, 83, 64
2, 274080, Note_on_c, 0, 84, 103
2, 274172, Note_off_c, 0, 84, 64
2, 274176, Note_on_c, 0, 88, 103
2, 274268, Note_off_c, 0, 88, 64
2, 274272, Note_on_c, 0, 84, 99
2, 274364, Note_off_c, 0, 84, 64
2, 274368, Note_on_c, 0, 83, 93
2, 274460, Note_off_c, 0, 83, 64
2, 274464, Note_on_c, 0, 84, 88
2, 274556, Note_off_c, 0, 84, 64
2, 274560, Note_on_c, 0, 76, 81
2, 274560, Note_on_c, 0, 67, 81
2, 274652, Note_off_c, 0, 76, 64
2, 274652, Note_off_c, 0, 67, 64
2, 274656, Note_on_c, 0, 84, 77
2, 274748, Note_off_c, 0, 84, 64
2, 274752, Note_on_c, 0, 77, 71
2, 274752, Note_on_c, 0, 69, 71
2, 274844, Note_off_c, 0, 77, 64
2, 274844, Note_off_c, 0, 69, 64
2, 274848, Note_on_c, 0, 84, 67
2, 274940, Note_off_c, 0, 84, 64
2, 274944, Note_on_c, 0, 76, 68
2, 274944, Note_on_c, 0, 67, 68
2, 275036, Note_off_c, 0, 76, 64
2, 275040, Note_on_c, 0, 84, 73
2, 275132, Note_off_c, 0, 84, 64
2, 275136, Note_on_c, 0, 83, 77
2, 275228, Note_off_c, 0, 83, 64
2, 275232, Note_on_c, 0, 84, 81
2, 275324, Note_off_c, 0, 67, 64
2, 275324, Note_off_c, 0, 84, 64
2, 275328, Note_on_c, 0, 86, 89
2, 275420, Note_off_c, 0, 86, 64
2, 275424, Note_on_c, 0, 84, 93
2, 275516, Note_off_c, 0, 84, 64
2, 275520, Note_on_c, 0, 83, 99
2, 275612, Note_off_c, 0, 83, 64
2, 275616, Note_on_c, 0, 84, 103
2, 275708, Note_off_c, 0, 84, 64
2, 275712, Note_on_c, 0, 88, 103
2, 275804, Note_off_c, 0, 88, 64
2, 275808, Note_on_c, 0, 84, 99
2, 275900, Note_off_c, 0, 84, 64
2, 275904, Note_on_c, 0, 83, 93
2, 275996, Note_off_c, 0, 83, 64
2, 276000, Note_on_c, 0, 84, 88
2, 276092, Note_off_c, 0, 84, 64
2, 276096, Note_on_c, 0, 79, 81
2, 276096, Note_on_c, 0, 64, 81
2, 276188, Note_off_c, 0, 79, 64
2, 276188, Note_off_c, 0, 64, 64
2, 276192, Note_on_c, 0, 84, 77
2, 276284, Note_off_c, 0, 84, 64
2, 276288, Note_on_c, 0, 81, 71
2, 276288, Note_on_c, 0, 65, 71
2, 276380, Note_off_c, 0, 81, 64
2, 276380, Note_off_c, 0, 65, 64
2, 276384, Note_on_c, 0, 84, 67
2, 276476, Note_off_c, 0, 84, 64
2, 276480, Note_on_c, 0, 79, 66
2, 276480, Note_on_c, 0, 64, 66
2, 276480, Note_on_c, 0, 64, 66
2, 276572, Note_off_c, 0, 64, 64
2, 276576, Note_on_c, 0, 72, 66
2, 276668, Note_off_c, 0, 79, 64
2, 276668, Note_off_c, 0, 72, 64
2, 276672, Note_on_c, 0, 67, 66
2, 276764, Note_off_c, 0, 67, 64
2, 276768, Note_on_c, 0, 72, 66
2, 276860, Note_off_c, 0, 72, 64
2, 276864, Note_on_c, 0, 64, 77
2, 276864, Note_on_c, 0, 84, 66
2, 276956, Note_off_c, 0, 64, 64
2, 276960, Note_on_c, 0, 72, 66
2, 277052, Note_off_c, 0, 72, 64
2, 277056, Note_on_c, 0, 67, 66
2, 277148, Note_off_c, 0, 67, 64
2, 277152, Note_on_c, 0, 72, 66
2, 277244, Note_off_c, 0, 64, 64
2, 277244, Note_off_c, 0, 72, 64
2, 277248, Note_on_c, 0, 64, 66
2, 277340, Note_off_c, 0, 64, 64
2, 277344, Note_on_c, 0, 72, 66
2, 277436, Note_off_c, 0, 84, 64
2, 277436, Note_off_c, 0, 72, 64
2, 277440, Note_on_c, 0, 82, 66
2, 277440, Note_on_c, 0, 67, 66
2, 277532, Note_off_c, 0, 67, 64
2, 277536, Note_on_c, 0, 72, 66
2, 277628, Note_off_c, 0, 82, 64
2, 277628, Note_off_c, 0, 72, 64
2, 277632, Note_on_c, 0, 84, 66
2, 277632, Note_on_c, 0, 64, 66
2, 277724, Note_off_c, 0, 84, 64
2, 277724, Note_off_c, 0, 64, 64
2, 277728, Note_on_c, 0, 82, 66
2, 277728, Note_on_c, 0, 72, 66
2, 277820, Note_off_c, 0, 82, 64
2, 277820, Note_off_c, 0, 72, 64
2, 277824, Note_on_c, 0, 81, 66
2, 277824, Note_on_c, 0, 67, 66
2, 277916, Note_off_c, 0, 81, 64
2, 277916, Note_off_c, 0, 67, 64
2, 277920, Note_on_c, 0, 82, 66
2, 277920, Note_on_c, 0, 72, 66
2, 278012, Note_off_c, 0, 82, 64
2, 278012, Note_off_c, 0, 72, 64
2, 278016, Note_on_c, 0, 80, 66
2, 278016, Note_on_c, 0, 65, 66
2, 278108, Note_off_c, 0, 65, 64
2, 278112, Note_on_c, 0, 72, 66
2, 278204, Note_off_c, 0, 80, 64
2, 278204, Note_off_c, 0, 72, 64
2, 278208, Note_on_c, 0, 81, 66
2, 278208, Note_on_c, 0, 69, 66
2, 278300, Note_off_c, 0, 69, 64
2, 278304, Note_on_c, 0, 72, 66
2, 278396, Note_off_c, 0, 81, 64
2, 278396, Note_off_c, 0, 72, 64
2, 278400, Note_on_c, 0, 81, 77
2, 278400, Note_on_c, 0, 65, 66
2, 278492, Note_off_c, 0, 65, 64
2, 278496, Note_on_c, 0, 72, 66
2, 278588, Note_off_c, 0, 72, 64
2, 278592, Note_on_c, 0, 69, 66
2, 278684, Note_off_c, 0, 69, 64
2, 278688, Note_on_c, 0, 72, 66
2, 278780, Note_off_c, 0, 72, 64
2, 278972, Note_off_c, 0, 81, 64
2, 278976, Note_on_c, 0, 84, 66
2, 279164, Note_off_c, 0, 84, 64
2, 279168, Note_on_c, 0, 83, 66
2, 279356, Note_off_c, 0, 83, 64
2, 279360, Note_on_c, 0, 81, 66
2, 279548, Note_off_c, 0, 81, 64
2, 279552, Note_on_c, 0, 79, 66
2, 279644, Note_off_c, 0, 79, 64
2, 279744, Note_on_c, 0, 81, 66
2, 279836, Note_off_c, 0, 81, 64
2, 279840, Note_on_c, 0, 79, 66
2, 279932, Note_off_c, 0, 79, 64
2, 279936, Note_on_c, 0, 77, 66
2, 280028, Note_off_c, 0, 77, 64
2, 280032, Note_on_c, 0, 76, 66
2, 280124, Note_off_c, 0, 76, 64
2, 280128, Note_on_c, 0, 74, 66
2, 280220, Note_off_c, 0, 74, 64
2, 280224, Note_on_c, 0, 72, 66
2, 280316, Note_off_c, 0, 72, 64
2, 280320, Note_on_c, 0, 74, 68
2, 280364, Note_off_c, 0, 74, 64
2, 280368, Note_on_c, 0, 76, 70
2, 280412, Note_off_c, 0, 76, 64
2, 280416, Note_on_c, 0, 74, 73
2, 280460, Note_off_c, 0, 74, 64
2, 280464, Note_on_c, 0, 76, 75
2, 280508, Note_off_c, 0, 76, 64
2, 280512, Note_on_c, 0, 74, 78
2, 280556, Note_off_c, 0, 74, 64
2, 280560, Note_on_c, 0, 76, 80
2, 280604, Note_off_c, 0, 76, 64
2, 280608, Note_on_c, 0, 74, 82
2, 280652, Note_off_c, 0, 74, 64
2, 280656, Note_on_c, 0, 76, 85
2, 280700, Note_off_c, 0, 76, 64
2, 280704, Note_on_c, 0, 74, 90
2, 280748, Note_off_c, 0, 74, 64
2, 280752, Note_on_c, 0, 76, 92
2, 280796, Note_off_c, 0, 76, 64
2, 280800, Note_on_c, 0, 74, 94
2, 280844, Note_off_c, 0, 74, 64
2, 280848, Note_on_c, 0, 76, 97
2, 280892, Note_off_c, 0, 76, 64
2, 280896, Note_on_c, 0, 72, 101
2, 280988, Note_off_c, 0, 72, 64
2, 280992, Note_on_c, 0, 74, 105
2, 281084, Note_off_c, 0, 74, 64
2, 281088, Note_on_c, 0, 76, 110
2, 281180, Note_off_c, 0, 76, 64
2, 281184, Note_on_c, 0, 72, 110
2, 281276, Note_off_c, 0, 72, 64
2, 281280, Note_on_c, 0, 74, 110
2, 281372, Note_off_c, 0, 74, 64
2, 281376, Note_on_c, 0, 76, 110
2, 281468, Note_off_c, 0, 76, 64
2, 281472, Note_on_c, 0, 77, 110
2, 281564, Note_off_c, 0, 77, 64
2, 281568, Note_on_c, 0, 79, 110
2, 281660, Note_off_c, 0, 79, 64
2, 281664, Note_on_c, 0, 81, 110
2, 281756, Note_off_c, 0, 81, 64
2, 281760, Note_on_c, 0, 83, 110
2, 281852, Note_off_c, 0, 83, 64
2, 281856, Note_on_c, 0, 84, 110
2, 281948, Note_off_c, 0, 84, 64
2, 281952, Note_on_c, 0, 83, 110
2, 282044, Note_off_c, 0, 83, 64
2, 282048, Note_on_c, 0, 84, 110
2, 282140, Note_off_c, 0, 84, 64
2, 282144, Note_on_c, 0, 86, 105
2, 282236, Note_off_c, 0, 86, 64
2, 282240, Note_on_c, 0, 84, 100
2, 282332, Note_off_c, 0, 84, 64
2, 282336, Note_on_c, 0, 82, 91
2, 282428, Note_off_c, 0, 82, 64
2, 282432, Note_on_c, 0, 81, 80
2, 282524, Note_off_c, 0, 81, 64
2, 282528, Note_on_c, 0, 80, 73
2, 282620, Note_off_c, 0, 80, 64
2, 282624, Note_on_c, 0, 81, 66
2, 282716, Note_off_c, 0, 81, 64
2, 282720, Note_on_c, 0, 83, 66
2, 282812, Note_off_c, 0, 83, 64
2, 282816, Note_on_c, 0, 84, 66
2, 282908, Note_off_c, 0, 84, 64
2, 282912, Note_on_c, 0, 81, 66
2, 283004, Note_off_c, 0, 81, 64
2, 283008, Note_on_c, 0, 77, 66
2, 283100, Note_off_c, 0, 77, 64
2, 283104, Note_on_c, 0, 79, 66
2, 283196, Note_off_c, 0, 79, 64
2, 283200, Note_on_c, 0, 81, 66
2, 283292, Note_off_c, 0, 81, 64
2, 283296, Note_on_c, 0, 77, 66
2, 283388, Note_off_c, 0, 77, 64
2, 283392, Note_on_c, 0, 74, 66
2, 283484, Note_off_c, 0, 74, 64
2, 283488, Note_on_c, 0, 76, 66
2, 283580, Note_off_c, 0, 76, 64
2, 283584, Note_on_c, 0, 77, 66
2, 283676, Note_off_c, 0, 77, 64
2, 283680, Note_on_c, 0, 74, 66
2, 283772, Note_off_c, 0, 74, 64
2, 283776, Note_on_c, 0, 80, 66
2, 283868, Note_off_c, 0, 80, 64
2, 283872, Note_on_c, 0, 81, 66
2, 283964, Note_off_c, 0, 81, 64
2, 283968, Note_on_c, 0, 77, 66
2, 284060, Note_off_c, 0, 77, 64
2, 284064, Note_on_c, 0, 74, 66
2, 284156, Note_off_c, 0, 74, 64
2, 284160, Note_on_c, 0, 76, 66
2, 284444, Note_off_c, 0, 76, 64
2, 284448, Note_on_c, 0, 72, 66
2, 284540, Note_off_c, 0, 72, 64
2, 284544, Note_on_c, 0, 79, 66
2, 284828, Note_off_c, 0, 79, 64
2, 284832, Note_on_c, 0, 76, 66
2, 284924, Note_off_c, 0, 76, 64
2, 284928, Note_on_c, 0, 84, 66
2, 285020, Note_off_c, 0, 84, 64
2, 285024, Note_on_c, 0, 83, 66
2, 285116, Note_off_c, 0, 83, 64
2, 285120, Note_on_c, 0, 81, 66
2, 285212, Note_off_c, 0, 81, 64
2, 285216, Note_on_c, 0, 79, 66
2, 285308, Note_off_c, 0, 79, 64
2, 285312, Note_on_c, 0, 77, 66
2, 285404, Note_off_c, 0, 77, 64
2, 285408, Note_on_c, 0, 76, 66
2, 285500, Note_off_c, 0, 76, 64
2, 285504, Note_on_c, 0, 74, 66
2, 285596, Note_off_c, 0, 74, 64
2, 285600, Note_on_c, 0, 72, 66
2, 285692, Note_off_c, 0, 72, 64
2, 285696, Note_on_c, 0, 74, 67
2, 285740, Note_off_c, 0, 74, 64
2, 285744, Note_on_c, 0, 76, 68
2, 285788, Note_off_c, 0, 76, 64
2, 285792, Note_on_c, 0, 74, 69
2, 285836, Note_off_c, 0, 74, 64
2, 285840, Note_on_c, 0, 76, 70
2, 285884, Note_off_c, 0, 76, 64
2, 285888, Note_on_c, 0, 74, 71
2, 285932, Note_off_c, 0, 74, 64
2, 285936, Note_on_c, 0, 76, 73
2, 285980, Note_off_c, 0, 76, 64
2, 285984, Note_on_c, 0, 74, 74
2, 286028, Note_off_c, 0, 74, 64
2, 286032, Note_on_c, 0, 76, 75
2, 286076, Note_off_c, 0, 76, 64
2, 286080, Note_on_c, 0, 74, 77
2, 286124, Note_off_c, 0, 74, 64
2, 286128, Note_on_c, 0, 76, 78
2, 286172, Note_off_c, 0, 76, 64
2, 286176, Note_on_c, 0, 74, 79
2, 286220, Note_off_c, 0, 74, 64
2, 286224, Note_on_c, 0, 76, 80
2, 286268, Note_off_c, 0, 76, 64
2, 286272, Note_on_c, 0, 74, 81
2, 286316, Note_off_c, 0, 74, 64
2, 286320, Note_on_c, 0, 76, 84
2, 286364, Note_off_c, 0, 76, 64
2, 286368, Note_on_c, 0, 74, 85
2, 286412, Note_off_c, 0, 74, 64
2, 286416, Note_on_c, 0, 76, 88
2, 286460, Note_off_c, 0, 76, 64
2, 286464, Note_on_c, 0, 74, 89
2, 286508, Note_off_c, 0, 74, 64
2, 286512, Note_on_c, 0, 76, 90
2, 286556, Note_off_c, 0, 76, 64
2, 286560, Note_on_c, 0, 74, 91
2, 286604, Note_off_c, 0, 74, 64
2, 286608, Note_on_c, 0, 76, 93
2, 286652, Note_off_c, 0, 76, 64
2, 286656, Note_on_c, 0, 74, 94
2, 286700, Note_off_c, 0, 74, 64
2, 286704, Note_on_c, 0, 76, 96
2, 286748, Note_off_c, 0, 76, 64
2, 286752, Note_on_c, 0, 74, 97
2, 286796, Note_off_c, 0, 74, 64
2, 286800, Note_on_c, 0, 76, 99
2, 286844, Note_off_c, 0, 76, 64
2, 286848, Note_on_c, 0, 74, 100
2, 286892, Note_off_c, 0, 74, 64
2, 286896, Note_on_c, 0, 76, 101
2, 286940, Note_off_c, 0, 76, 64
2, 286944, Note_on_c, 0, 74, 103
2, 286988, Note_off_c, 0, 74, 64
2, 286992, Note_on_c, 0, 76, 104
2, 287036, Note_off_c, 0, 76, 64
2, 287040, Note_on_c, 0, 72, 105
2, 287132, Note_off_c, 0, 72, 64
2, 287136, Note_on_c, 0, 74, 106
2, 287228, Note_off_c, 0, 74, 64
2, 287232, Note_on_c, 0, 72, 110
2, 287612, Note_off_c, 0, 72, 64
2, 289152, Note_on_c, 0, 72, 110
2, 289152, Note_on_c, 0, 60, 110
2, 289244, Note_off_c, 0, 72, 64
2, 289244, Note_off_c, 0, 60, 64
2, 289344, Note_on_c, 0, 74, 110
2, 289344, Note_on_c, 0, 71, 110
2, 289344, Note_on_c, 0, 62, 110
2, 289344, Note_on_c, 0, 59, 110
2, 289436, Note_off_c, 0, 74, 64
2, 289436, Note_off_c, 0, 71, 64
2, 289436, Note_off_c, 0, 62, 64
2, 289436, Note_off_c, 0, 59, 64
2, 289536, Note_on_c, 0, 76, 110
2, 289536, Note_on_c, 0, 72, 110
2, 289536, Note_on_c, 0, 64, 110
2, 289536, Note_on_c, 0, 60, 110
2, 289628, Note_off_c, 0, 76, 64
2, 289628, Note_off_c, 0, 72, 64
2, 289628, Note_off_c, 0, 64, 64
2, 289628, Note_off_c, 0, 60, 64
2, 289920, Note_on_c, 0, 76, 110
2, 289920, Note_on_c, 0, 64, 110
2, 289920, Note_on_c, 0, 60, 110
2, 289920, Note_on_c, 0, 72, 110
2, 290012, Note_off_c, 0, 76, 64
2, 290012, Note_off_c, 0, 64, 64
2, 290012, Note_off_c, 0, 60, 64
2, 290012, Note_off_c, 0, 72, 64
2, 290112, Note_on_c, 0, 77, 110
2, 290112, Note_on_c, 0, 74, 110
2, 290112, Note_on_c, 0, 65, 110
2, 290112, Note_on_c, 0, 62, 110
2, 290204, Note_off_c, 0, 77, 64
2, 290204, Note_off_c, 0, 74, 64
2, 290204, Note_off_c, 0, 65, 64
2, 290204, Note_off_c, 0, 62, 64
2, 290304, Note_on_c, 0, 79, 110
2, 290304, Note_on_c, 0, 76, 110
2, 290304, Note_on_c, 0, 67, 110
2, 290304, Note_on_c, 0, 64, 110
2, 290396, Note_off_c, 0, 79, 64
2, 290396, Note_off_c, 0, 76, 64
2, 290396, Note_off_c, 0, 67, 64
2, 290396, Note_off_c, 0, 64, 64
2, 290496, Note_on_c, 0, 81, 110
2, 290496, Note_on_c, 0, 69, 110
2, 290540, Note_off_c, 0, 81, 64
2, 290540, Note_off_c, 0, 69, 64
2, 290544, Note_on_c, 0, 79, 110
2, 290544, Note_on_c, 0, 67, 110
2, 290588, Note_off_c, 0, 79, 64
2, 290588, Note_off_c, 0, 67, 64
2, 290592, Note_on_c, 0, 78, 110
2, 290592, Note_on_c, 0, 66, 110
2, 290684, Note_off_c, 0, 78, 64
2, 290684, Note_off_c, 0, 66, 64
2, 290688, Note_on_c, 0, 67, 110
2, 290688, Note_on_c, 0, 79, 110
2, 290780, Note_off_c, 0, 67, 64
2, 290780, Note_off_c, 0, 79, 64
2, 290880, Note_on_c, 0, 81, 110
2, 290880, Note_on_c, 0, 69, 110
2, 290972, Note_off_c, 0, 81, 64
2, 290972, Note_off_c, 0, 69, 64
2, 291072, Note_on_c, 0, 79, 110
2, 291072, Note_on_c, 0, 76, 110
2, 291072, Note_on_c, 0, 67, 110
2, 291072, Note_on_c, 0, 64, 110
2, 291452, Note_off_c, 0, 79, 64
2, 291452, Note_off_c, 0, 76, 64
2, 291452, Note_off_c, 0, 67, 64
2, 291452, Note_off_c, 0, 64, 64
2, 291456, Note_on_c, 0, 78, 110
2, 291456, Note_on_c, 0, 74, 110
2, 291456, Note_on_c, 0, 62, 110
2, 291456, Note_on_c, 0, 66, 110
2, 291644, Note_off_c, 0, 78, 64
2, 291644, Note_off_c, 0, 74, 64
2, 291644, Note_off_c, 0, 62, 64
2, 291644, Note_off_c, 0, 66, 64
2, 291840, Note_on_c, 0, 77, 110
2, 291840, Note_on_c, 0, 74, 110
2, 291840, Note_on_c, 0, 65, 110
2, 291840, Note_on_c, 0, 62, 110
2, 291932, Note_off_c, 0, 77, 64
2, 291932, Note_off_c, 0, 74, 64
2, 291932, Note_off_c, 0, 65, 64
2, 291932, Note_off_c, 0, 62, 64
2, 292032, Note_on_c, 0, 79, 110
2, 292032, Note_on_c, 0, 67, 110
2, 292076, Note_off_c, 0, 79, 64
2, 292076, Note_off_c, 0, 67, 64
2, 292080, Note_on_c, 0, 77, 110
2, 292080, Note_on_c, 0, 65, 110
2, 292124, Note_off_c, 0, 77, 64
2, 292124, Note_off_c, 0, 65, 64
2, 292128, Note_on_c, 0, 76, 110
2, 292128, Note_on_c, 0, 64, 110
2, 292220, Note_off_c, 0, 76, 64
2, 292220, Note_off_c, 0, 64, 64
2, 292224, Note_on_c, 0, 77, 110
2, 292224, Note_on_c, 0, 65, 110
2, 292316, Note_off_c, 0, 77, 64
2, 292316, Note_off_c, 0, 65, 64
2, 292416, Note_on_c, 0, 79, 110
2, 292416, Note_on_c, 0, 67, 110
2, 292508, Note_off_c, 0, 79, 64
2, 292508, Note_off_c, 0, 67, 64
2, 292608, Note_on_c, 0, 77, 110
2, 292608, Note_on_c, 0, 74, 110
2, 292608, Note_on_c, 0, 65, 110
2, 292608, Note_on_c, 0, 62, 110
2, 292988, Note_off_c, 0, 77, 64
2, 292988, Note_off_c, 0, 74, 64
2, 292988, Note_off_c, 0, 65, 64
2, 292988, Note_off_c, 0, 62, 64
2, 292992, Note_on_c, 0, 76, 110
2, 292992, Note_on_c, 0, 60, 110
2, 292992, Note_on_c, 0, 72, 110
2, 292992, Note_on_c, 0, 64, 110
2, 293180, Note_off_c, 0, 76, 64
2, 293180, Note_off_c, 0, 60, 64
2, 293180, Note_off_c, 0, 72, 64
2, 293180, Note_off_c, 0, 64, 64
2, 299520, Note_on_c, 0, 76, 110
2, 299520, Note_on_c, 0, 72, 110
2, 300484, Note_off_c, 0, 76, 64
2, 300484, Note_off_c, 0, 72, 64
2, 301056, Note_on_c, 0, 86, 66
2, 301056, Note_on_c, 0, 74, 66
2, 301148, Note_off_c, 0, 86, 64
2, 301148, Note_off_c, 0, 74, 64
2, 301152, Note_on_c, 0, 84, 66
2, 301244, Note_off_c, 0, 84, 64
2, 301248, Note_on_c, 0, 83, 66
2, 301340, Note_off_c, 0, 83, 64
2, 301344, Note_on_c, 0, 84, 66
2, 301436, Note_off_c, 0, 84, 64
2, 301440, Note_on_c, 0, 86, 66
2, 301532, Note_off_c, 0, 86, 64
2, 301536, Note_on_c, 0, 84, 66
2, 301628, Note_off_c, 0, 84, 64
2, 301632, Note_on_c, 0, 83, 66
2, 301724, Note_off_c, 0, 83, 64
2, 301728, Note_on_c, 0, 84, 66
2, 301820, Note_off_c, 0, 84, 64
2, 301824, Note_on_c, 0, 88, 66
2, 301916, Note_off_c, 0, 88, 64
2, 301920, Note_on_c, 0, 84, 66
2, 302012, Note_off_c, 0, 84, 64
2, 302016, Note_on_c, 0, 83, 66
2, 302108, Note_off_c, 0, 83, 64
2, 302112, Note_on_c, 0, 84, 66
2, 302204, Note_off_c, 0, 84, 64
2, 302208, Note_on_c, 0, 79, 66
2, 302208, Note_on_c, 0, 76, 66
2, 302300, Note_off_c, 0, 79, 64
2, 302300, Note_off_c, 0, 76, 64
2, 302304, Note_on_c, 0, 84, 66
2, 302396, Note_off_c, 0, 84, 64
2, 302400, Note_on_c, 0, 81, 66
2, 302400, Note_on_c, 0, 77, 66
2, 302492, Note_off_c, 0, 81, 64
2, 302492, Note_off_c, 0, 77, 64
2, 302496, Note_on_c, 0, 84, 66
2, 302588, Note_off_c, 0, 84, 64
2, 302592, Note_on_c, 0, 79, 68
2, 302592, Note_on_c, 0, 76, 68
2, 302684, Note_off_c, 0, 79, 64
2, 302688, Note_on_c, 0, 84, 73
2, 302780, Note_off_c, 0, 84, 64
2, 302784, Note_on_c, 0, 83, 78
2, 302876, Note_off_c, 0, 83, 64
2, 302880, Note_on_c, 0, 84, 82
2, 302972, Note_off_c, 0, 76, 64
2, 302972, Note_off_c, 0, 84, 64
2, 302976, Note_on_c, 0, 86, 90
2, 303068, Note_off_c, 0, 86, 64
2, 303072, Note_on_c, 0, 84, 94
2, 303164, Note_off_c, 0, 84, 64
2, 303168, Note_on_c, 0, 83, 101
2, 303260, Note_off_c, 0, 83, 64
2, 303264, Note_on_c, 0, 84, 105
2, 303356, Note_off_c, 0, 84, 64
2, 303360, Note_on_c, 0, 88, 105
2, 303452, Note_off_c, 0, 88, 64
2, 303456, Note_on_c, 0, 84, 101
2, 303548, Note_off_c, 0, 84, 64
2, 303552, Note_on_c, 0, 83, 96
2, 303644, Note_off_c, 0, 83, 64
2, 303648, Note_on_c, 0, 84, 90
2, 303740, Note_off_c, 0, 84, 64
2, 303744, Note_on_c, 0, 76, 82
2, 303744, Note_on_c, 0, 67, 82
2, 303836, Note_off_c, 0, 76, 64
2, 303836, Note_off_c, 0, 67, 64
2, 303840, Note_on_c, 0, 84, 78
2, 303932, Note_off_c, 0, 84, 64
2, 303936, Note_on_c, 0, 77, 73
2, 303936, Note_on_c, 0, 69, 73
2, 304028, Note_off_c, 0, 77, 64
2, 304028, Note_off_c, 0, 69, 64
2, 304032, Note_on_c, 0, 84, 67
2, 304124, Note_off_c, 0, 84, 64
2, 304128, Note_on_c, 0, 76, 68
2, 304128, Note_on_c, 0, 67, 68
2, 304220, Note_off_c, 0, 76, 64
2, 304224, Note_on_c, 0, 84, 73
2, 304316, Note_off_c, 0, 84, 64
2, 304320, Note_on_c, 0, 83, 78
2, 304412, Note_off_c, 0, 83, 64
2, 304416, Note_on_c, 0, 84, 82
2, 304508, Note_off_c, 0, 67, 64
2, 304508, Note_off_c, 0, 84, 64
2, 304512, Note_on_c, 0, 86, 90
2, 304604, Note_off_c, 0, 86, 64
2, 304608, Note_on_c, 0, 84, 94
2, 304700, Note_off_c, 0, 84, 64
2, 304704, Note_on_c, 0, 83, 101
2, 304796, Note_off_c, 0, 83, 64
2, 304800, Note_on_c, 0, 84, 105
2, 304892, Note_off_c, 0, 84, 64
2, 304896, Note_on_c, 0, 88, 105
2, 304988, Note_off_c, 0, 88, 64
2, 304992, Note_on_c, 0, 84, 101
2, 305084, Note_off_c, 0, 84, 64
2, 305088, Note_on_c, 0, 83, 96
2, 305180, Note_off_c, 0, 83, 64
2, 305184, Note_on_c, 0, 84, 90
2, 305276, Note_off_c, 0, 84, 64
2, 305280, Note_on_c, 0, 79, 82
2, 305280, Note_on_c, 0, 64, 82
2, 305372, Note_off_c, 0, 79, 64
2, 305372, Note_off_c, 0, 64, 64
2, 305376, Note_on_c, 0, 84, 78
2, 305468, Note_off_c, 0, 84, 64
2, 305472, Note_on_c, 0, 81, 73
2, 305472, Note_on_c, 0, 65, 73
2, 305564, Note_off_c, 0, 81, 64
2, 305564, Note_off_c, 0, 65, 64
2, 305568, Note_on_c, 0, 84, 67
2, 305660, Note_off_c, 0, 84, 64
2, 305664, Note_on_c, 0, 79, 66
2, 305664, Note_on_c, 0, 64, 66
2, 305664, Note_on_c, 0, 64, 66
2, 305756, Note_off_c, 0, 64, 64
2, 305760, Note_on_c, 0, 72, 66
2, 305852, Note_off_c, 0, 79, 64
2, 305852, Note_off_c, 0, 72, 64
2, 305856, Note_on_c, 0, 67, 66
2, 305948, Note_off_c, 0, 67, 64
2, 305952, Note_on_c, 0, 72, 66
2, 306044, Note_off_c, 0, 72, 64
2, 306048, Note_on_c, 0, 64, 66
2, 306048, Note_on_c, 0, 84, 66
2, 306140, Note_off_c, 0, 64, 64
2, 306144, Note_on_c, 0, 72, 66
2, 306236, Note_off_c, 0, 72, 64
2, 306240, Note_on_c, 0, 67, 66
2, 306332, Note_off_c, 0, 67, 64
2, 306336, Note_on_c, 0, 72, 66
2, 306428, Note_off_c, 0, 64, 64
2, 306428, Note_off_c, 0, 72, 64
2, 306432, Note_on_c, 0, 64, 66
2, 306524, Note_off_c, 0, 64, 64
2, 306528, Note_on_c, 0, 72, 66
2, 306620, Note_off_c, 0, 84, 64
2, 306620, Note_off_c, 0, 72, 64
2, 306624, Note_on_c, 0, 82, 66
2, 306624, Note_on_c, 0, 67, 66
2, 306716, Note_off_c, 0, 67, 64
2, 306720, Note_on_c, 0, 72, 66
2, 306812, Note_off_c, 0, 82, 64
2, 306812, Note_off_c, 0, 72, 64
2, 306816, Note_on_c, 0, 64, 66
2, 306816, Note_on_c, 0, 84, 66
2, 306908, Note_off_c, 0, 64, 64
2, 306908, Note_off_c, 0, 84, 64
2, 306912, Note_on_c, 0, 82, 66
2, 306912, Note_on_c, 0, 72, 66
2, 307004, Note_off_c, 0, 82, 64
2, 307004, Note_off_c, 0, 72, 64
2, 307008, Note_on_c, 0, 67, 66
2, 307008, Note_on_c, 0, 81, 66
2, 307100, Note_off_c, 0, 67, 64
2, 307100, Note_off_c, 0, 81, 64
2, 307104, Note_on_c, 0, 72, 66
2, 307104, Note_on_c, 0, 82, 66
2, 307196, Note_off_c, 0, 72, 64
2, 307196, Note_off_c, 0, 82, 64
2, 307200, Note_on_c, 0, 80, 66
2, 307200, Note_on_c, 0, 65, 66
2, 307292, Note_off_c, 0, 65, 64
2, 307296, Note_on_c, 0, 72, 66
2, 307388, Note_off_c, 0, 80, 64
2, 307388, Note_off_c, 0, 72, 64
2, 307392, Note_on_c, 0, 81, 66
2, 307392, Note_on_c, 0, 69, 66
2, 307484, Note_off_c, 0, 69, 64
2, 307488, Note_on_c, 0, 72, 66
2, 307580, Note_off_c, 0, 81, 64
2, 307580, Note_off_c, 0, 72, 64
2, 307584, Note_on_c, 0, 65, 66
2, 307584, Note_on_c, 0, 81, 66
2, 307676, Note_off_c, 0, 65, 64
2, 307680, Note_on_c, 0, 72, 66
2, 307772, Note_off_c, 0, 72, 64
2, 307776, Note_on_c, 0, 69, 66
2, 307868, Note_off_c, 0, 69, 64
2, 307872, Note_on_c, 0, 72, 66
2, 307964, Note_off_c, 0, 72, 64
2, 308156, Note_off_c, 0, 81, 64
2, 308160, Note_on_c, 0, 84, 66
2, 308348, Note_off_c, 0, 84, 64
2, 308352, Note_on_c, 0, 83, 66
2, 308540, Note_off_c, 0, 83, 64
2, 308544, Note_on_c, 0, 81, 66
2, 308732, Note_off_c, 0, 81, 64
2, 308736, Note_on_c, 0, 79, 81
2, 308828, Note_off_c, 0, 79, 64
2, 308928, Note_on_c, 0, 81, 81
2, 309020, Note_off_c, 0, 81, 64
2, 309024, Note_on_c, 0, 79, 81
2, 309116, Note_off_c, 0, 79, 64
2, 309120, Note_on_c, 0, 77, 69
2, 309212, Note_off_c, 0, 77, 64
2, 309216, Note_on_c, 0, 76, 75
2, 309308, Note_off_c, 0, 76, 64
2, 309312, Note_on_c, 0, 74, 81
2, 309404, Note_off_c, 0, 74, 64
2, 309408, Note_on_c, 0, 72, 90
2, 309500, Note_off_c, 0, 72, 64
2, 309504, Note_on_c, 0, 74, 94
2, 309548, Note_off_c, 0, 74, 64
2, 309552, Note_on_c, 0, 76, 94
2, 309596, Note_off_c, 0, 76, 64
2, 309600, Note_on_c, 0, 74, 94
2, 309644, Note_off_c, 0, 74, 64
2, 309648, Note_on_c, 0, 76, 94
2, 309692, Note_off_c, 0, 76, 64
2, 309696, Note_on_c, 0, 74, 94
2, 309740, Note_off_c, 0, 74, 64
2, 309744, Note_on_c, 0, 76, 94
2, 309788, Note_off_c, 0, 76, 64
2, 309792, Note_on_c, 0, 74, 94
2, 309836, Note_off_c, 0, 74, 64
2, 309840, Note_on_c, 0, 76, 94
2, 309884, Note_off_c, 0, 76, 64
2, 309888, Note_on_c, 0, 74, 94
2, 309932, Note_off_c, 0, 74, 64
2, 309936, Note_on_c, 0, 76, 94
2, 309980, Note_off_c, 0, 76, 64
2, 309984, Note_on_c, 0, 74, 94
2, 310028, Note_off_c, 0, 74, 64
2, 310032, Note_on_c, 0, 76, 94
2, 310076, Note_off_c, 0, 76, 64
2, 310080, Note_on_c, 0, 72, 94
2, 310172, Note_off_c, 0, 72, 64
2, 310176, Note_on_c, 0, 74, 94
2, 310268, Note_off_c, 0, 74, 64
2, 310272, Note_on_c, 0, 76, 68
2, 310364, Note_off_c, 0, 76, 64
2, 310368, Note_on_c, 0, 72, 70
2, 310460, Note_off_c, 0, 72, 64
2, 310464, Note_on_c, 0, 74, 74
2, 310556, Note_off_c, 0, 74, 64
2, 310560, Note_on_c, 0, 76, 77
2, 310652, Note_off_c, 0, 76, 64
2, 310656, Note_on_c, 0, 77, 80
2, 310748, Note_off_c, 0, 77, 64
2, 310752, Note_on_c, 0, 79, 84
2, 310844, Note_off_c, 0, 79, 64
2, 310848, Note_on_c, 0, 81, 89
2, 310940, Note_off_c, 0, 81, 64
2, 310944, Note_on_c, 0, 83, 91
2, 311036, Note_off_c, 0, 83, 64
2, 311040, Note_on_c, 0, 84, 94
2, 311132, Note_off_c, 0, 84, 64
2, 311136, Note_on_c, 0, 83, 99
2, 311228, Note_off_c, 0, 83, 64
2, 311232, Note_on_c, 0, 84, 101
2, 311324, Note_off_c, 0, 84, 64
2, 311328, Note_on_c, 0, 86, 105
2, 311420, Note_off_c, 0, 86, 64
2, 311424, Note_on_c, 0, 84, 105
2, 311516, Note_off_c, 0, 84, 64
2, 311520, Note_on_c, 0, 82, 96
2, 311612, Note_off_c, 0, 82, 64
2, 311616, Note_on_c, 0, 81, 82
2, 311708, Note_off_c, 0, 81, 64
2, 311712, Note_on_c, 0, 80, 73
2, 311804, Note_off_c, 0, 80, 64
2, 311808, Note_on_c, 0, 81, 66
2, 311808, Note_on_c, 0, 69, 69
2, 311808, Note_on_c, 0, 57, 69
2, 311900, Note_off_c, 0, 81, 64
2, 311904, Note_on_c, 0, 83, 66
2, 311996, Note_off_c, 0, 69, 64
2, 311996, Note_off_c, 0, 57, 64
2, 311996, Note_off_c, 0, 83, 64
2, 312000, Note_on_c, 0, 84, 66
2, 312092, Note_off_c, 0, 84, 64
2, 312096, Note_on_c, 0, 81, 66
2, 312188, Note_off_c, 0, 81, 64
2, 312192, Note_on_c, 0, 77, 66
2, 312192, Note_on_c, 0, 74, 69
2, 312192, Note_on_c, 0, 62, 69
2, 312284, Note_off_c, 0, 77, 64
2, 312288, Note_on_c, 0, 79, 66
2, 312380, Note_off_c, 0, 74, 64
2, 312380, Note_off_c, 0, 62, 64
2, 312380, Note_off_c, 0, 79, 64
2, 312384, Note_on_c, 0, 81, 66
2, 312476, Note_off_c, 0, 81, 64
2, 312480, Note_on_c, 0, 77, 66
2, 312572, Note_off_c, 0, 77, 64
2, 312576, Note_on_c, 0, 74, 69
2, 312576, Note_on_c, 0, 77, 72
2, 312576, Note_on_c, 0, 65, 72
2, 312668, Note_off_c, 0, 74, 64
2, 312672, Note_on_c, 0, 76, 71
2, 312764, Note_off_c, 0, 77, 64
2, 312764, Note_off_c, 0, 65, 64
2, 312764, Note_off_c, 0, 76, 64
2, 312768, Note_on_c, 0, 77, 75
2, 312860, Note_off_c, 0, 77, 64
2, 312864, Note_on_c, 0, 74, 78
2, 312956, Note_off_c, 0, 74, 64
2, 312960, Note_on_c, 0, 80, 81
2, 312960, Note_on_c, 0, 80, 84
2, 312960, Note_on_c, 0, 69, 84
2, 313052, Note_off_c, 0, 80, 64
2, 313056, Note_on_c, 0, 81, 85
2, 313148, Note_off_c, 0, 80, 64
2, 313148, Note_off_c, 0, 69, 64
2, 313148, Note_off_c, 0, 81, 64
2, 313152, Note_on_c, 0, 77, 90
2, 313244, Note_off_c, 0, 77, 64
2, 313248, Note_on_c, 0, 74, 93
2, 313340, Note_off_c, 0, 74, 64
2, 313344, Note_on_c, 0, 76, 100
2, 313628, Note_off_c, 0, 76, 64
2, 313632, Note_on_c, 0, 72, 94
2, 313724, Note_off_c, 0, 72, 64
2, 313728, Note_on_c, 0, 79, 100
2, 314012, Note_off_c, 0, 79, 64
2, 314016, Note_on_c, 0, 76, 94
2, 314108, Note_off_c, 0, 76, 64
2, 314112, Note_on_c, 0, 84, 103
2, 314204, Note_off_c, 0, 84, 64
2, 314208, Note_on_c, 0, 83, 101
2, 314300, Note_off_c, 0, 83, 64
2, 314304, Note_on_c, 0, 81, 101
2, 314396, Note_off_c, 0, 81, 64
2, 314400, Note_on_c, 0, 79, 100
2, 314492, Note_off_c, 0, 79, 64
2, 314496, Note_on_c, 0, 77, 97
2, 314588, Note_off_c, 0, 77, 64
2, 314592, Note_on_c, 0, 76, 96
2, 314684, Note_off_c, 0, 76, 64
2, 314688, Note_on_c, 0, 74, 94
2, 314780, Note_off_c, 0, 74, 64
2, 314784, Note_on_c, 0, 72, 93
2, 314876, Note_off_c, 0, 72, 64
2, 314880, Note_on_c, 0, 74, 96
2, 314924, Note_off_c, 0, 74, 64
2, 314928, Note_on_c, 0, 76, 96
2, 314972, Note_off_c, 0, 76, 64
2, 314976, Note_on_c, 0, 74, 96
2, 315020, Note_off_c, 0, 74, 64
2, 315024, Note_on_c, 0, 76, 97
2, 315068, Note_off_c, 0, 76, 64
2, 315072, Note_on_c, 0, 74, 97
2, 315116, Note_off_c, 0, 74, 64
2, 315120, Note_on_c, 0, 76, 99
2, 315164, Note_off_c, 0, 76, 64
2, 315168, Note_on_c, 0, 74, 99
2, 315212, Note_off_c, 0, 74, 64
2, 315216, Note_on_c, 0, 76, 99
2, 315260, Note_off_c, 0, 76, 64
2, 315264, Note_on_c, 0, 74, 100
2, 315308, Note_off_c, 0, 74, 64
2, 315312, Note_on_c, 0, 76, 100
2, 315356, Note_off_c, 0, 76, 64
2, 315360, Note_on_c, 0, 74, 101
2, 315404, Note_off_c, 0, 74, 64
2, 315408, Note_on_c, 0, 76, 101
2, 315452, Note_off_c, 0, 76, 64
2, 315456, Note_on_c, 0, 74, 101
2, 315500, Note_off_c, 0, 74, 64
2, 315504, Note_on_c, 0, 76, 101
2, 315548, Note_off_c, 0, 76, 64
2, 315552, Note_on_c, 0, 74, 101
2, 315596, Note_off_c, 0, 74, 64
2, 315600, Note_on_c, 0, 76, 103
2, 315644, Note_off_c, 0, 76, 64
2, 315648, Note_on_c, 0, 74, 103
2, 315692, Note_off_c, 0, 74, 64
2, 315696, Note_on_c, 0, 76, 103
2, 315740, Note_off_c, 0, 76, 64
2, 315744, Note_on_c, 0, 74, 104
2, 315788, Note_off_c, 0, 74, 64
2, 315792, Note_on_c, 0, 76, 104
2, 315836, Note_off_c, 0, 76, 64
2, 315840, Note_on_c, 0, 74, 105
2, 315884, Note_off_c, 0, 74, 64
2, 315888, Note_on_c, 0, 76, 105
2, 315932, Note_off_c, 0, 76, 64
2, 315936, Note_on_c, 0, 74, 105
2, 315980, Note_off_c, 0, 74, 64
2, 315984, Note_on_c, 0, 76, 105
2, 316028, Note_off_c, 0, 76, 64
2, 316032, Note_on_c, 0, 74, 105
2, 316076, Note_off_c, 0, 74, 64
2, 316080, Note_on_c, 0, 76, 106
2, 316124, Note_off_c, 0, 76, 64
2, 316128, Note_on_c, 0, 74, 106
2, 316172, Note_off_c, 0, 74, 64
2, 316176, Note_on_c, 0, 76, 106
2, 316220, Note_off_c, 0, 76, 64
2, 316224, Note_on_c, 0, 72, 110
2, 316316, Note_off_c, 0, 72, 64
2, 316320, Note_on_c, 0, 74, 110
2, 316412, Note_off_c, 0, 74, 64
2, 316416, Note_on_c, 0, 72, 112
2, 316988, Note_off_c, 0, 72, 64
2, 316988, End_track
3, 0, Start_track
3, 0, Title_t, "#8 - K246A "
3, 0, Control_c, 1, 0, 0
3, 0, Program_c, 1, 0
3, 0, Control_c, 1, 7, 127
3, 0, Control_c, 1, 10, 66
3, 0, Control_c, 1, 91, 67
3, 0, Control_c, 1, 93, 36
3, 0, Key_signature, 0, "major"
3, 0, Control_c, 1, 121, 0
3, 864, Control_c, 1, 10, 63
3, 960, Control_c, 1, 91, 63
3, 1056, Control_c, 1, 93, 35
3, 1152, Program_c, 1, 0
3, 56832, Note_on_c, 1, 60, 93
3, 56832, Note_on_c, 1, 48, 93
3, 57596, Note_off_c, 1, 60, 64
3, 57596, Note_off_c, 1, 48, 64
3, 62976, Note_on_c, 1, 65, 66
3, 63164, Note_off_c, 1, 65, 64
3, 63168, Note_on_c, 1, 55, 66
3, 63356, Note_off_c, 1, 55, 64
3, 63360, Note_on_c, 1, 65, 66
3, 63548, Note_off_c, 1, 65, 64
3, 63552, Note_on_c, 1, 55, 66
3, 63740, Note_off_c, 1, 55, 64
3, 63744, Note_on_c, 1, 64, 66
3, 63932, Note_off_c, 1, 64, 64
3, 63936, Note_on_c, 1, 55, 66
3, 64124, Note_off_c, 1, 55, 64
3, 64128, Note_on_c, 1, 64, 66
3, 64316, Note_off_c, 1, 64, 64
3, 64320, Note_on_c, 1, 55, 66
3, 64508, Note_off_c, 1, 55, 64
3, 64512, Note_on_c, 1, 59, 67
3, 64700, Note_off_c, 1, 59, 64
3, 64704, Note_on_c, 1, 55, 70
3, 64892, Note_off_c, 1, 55, 64
3, 64896, Note_on_c, 1, 59, 74
3, 65084, Note_off_c, 1, 59, 64
3, 65088, Note_on_c, 1, 55, 77
3, 65276, Note_off_c, 1, 55, 64
3, 65280, Note_on_c, 1, 60, 80
3, 65468, Note_off_c, 1, 60, 64
3, 65472, Note_on_c, 1, 55, 84
3, 65660, Note_off_c, 1, 55, 64
3, 65664, Note_on_c, 1, 60, 89
3, 65852, Note_off_c, 1, 60, 64
3, 65856, Note_on_c, 1, 55, 92
3, 66044, Note_off_c, 1, 55, 64
3, 66048, Note_on_c, 1, 59, 94
3, 66048, Note_on_c, 1, 47, 94
3, 66236, Note_off_c, 1, 59, 64
3, 66236, Note_off_c, 1, 47, 64
3, 66432, Note_on_c, 1, 60, 94
3, 66432, Note_on_c, 1, 48, 94
3, 66620, Note_off_c, 1, 60, 64
3, 66620, Note_off_c, 1, 48, 64
3, 66816, Note_on_c, 1, 53, 92
3, 67196, Note_off_c, 1, 53, 64
3, 67200, Note_on_c, 1, 55, 80
3, 67580, Note_off_c, 1, 55, 64
3, 67584, Note_on_c, 1, 48, 68
3, 67772, Note_off_c, 1, 48, 64
3, 72192, Note_on_c, 1, 59, 110
3, 72192, Note_on_c, 1, 47, 110
3, 72284, Note_off_c, 1, 59, 64
3, 72284, Note_off_c, 1, 47, 64
3, 72576, Note_on_c, 1, 60, 105
3, 72576, Note_on_c, 1, 48, 105
3, 72668, Note_off_c, 1, 60, 64
3, 72668, Note_off_c, 1, 48, 64
3, 72960, Note_on_c, 1, 53, 100
3, 73340, Note_off_c, 1, 53, 64
3, 73344, Note_on_c, 1, 55, 82
3, 73724, Note_off_c, 1, 55, 64
3, 73728, Note_on_c, 1, 48, 110
3, 74108, Note_off_c, 1, 48, 64
3, 82944, Note_on_c, 1, 55, 81
3, 83324, Note_off_c, 1, 55, 64
3, 87552, Note_on_c, 1, 55, 73
3, 87740, Note_off_c, 1, 55, 64
3, 87744, Note_on_c, 1, 62, 73
3, 87932, Note_off_c, 1, 62, 64
3, 87936, Note_on_c, 1, 59, 73
3, 88124, Note_off_c, 1, 59, 64
3, 88128, Note_on_c, 1, 62, 73
3, 88316, Note_off_c, 1, 62, 64
3, 88320, Note_on_c, 1, 54, 73
3, 88508, Note_off_c, 1, 54, 64
3, 88512, Note_on_c, 1, 62, 73
3, 88700, Note_off_c, 1, 62, 64
3, 88704, Note_on_c, 1, 57, 73
3, 88892, Note_off_c, 1, 57, 64
3, 88896, Note_on_c, 1, 62, 73
3, 89084, Note_off_c, 1, 62, 64
3, 89088, Note_on_c, 1, 52, 75
3, 89276, Note_off_c, 1, 52, 64
3, 89280, Note_on_c, 1, 59, 80
3, 89468, Note_off_c, 1, 59, 64
3, 89472, Note_on_c, 1, 55, 85
3, 89660, Note_off_c, 1, 55, 64
3, 89664, Note_on_c, 1, 59, 91
3, 89852, Note_off_c, 1, 59, 64
3, 89856, Note_on_c, 1, 48, 94
3, 90044, Note_off_c, 1, 48, 64
3, 90048, Note_on_c, 1, 55, 94
3, 90236, Note_off_c, 1, 55, 64
3, 90240, Note_on_c, 1, 52, 94
3, 90428, Note_off_c, 1, 52, 64
3, 90432, Note_on_c, 1, 55, 94
3, 90620, Note_off_c, 1, 55, 64
3, 90624, Note_on_c, 1, 50, 94
3, 90812, Note_off_c, 1, 50, 64
3, 90816, Note_on_c, 1, 59, 94
3, 91004, Note_off_c, 1, 59, 64
3, 91008, Note_on_c, 1, 55, 94
3, 91196, Note_off_c, 1, 55, 64
3, 91200, Note_on_c, 1, 59, 94
3, 91388, Note_off_c, 1, 59, 64
3, 91392, Note_on_c, 1, 50, 91
3, 91580, Note_off_c, 1, 50, 64
3, 91584, Note_on_c, 1, 57, 85
3, 91772, Note_off_c, 1, 57, 64
3, 91776, Note_on_c, 1, 54, 80
3, 91964, Note_off_c, 1, 54, 64
3, 91968, Note_on_c, 1, 57, 75
3, 92156, Note_off_c, 1, 57, 64
3, 92160, Note_on_c, 1, 55, 73
3, 92540, Note_off_c, 1, 55, 64
3, 93696, Note_on_c, 1, 55, 73
3, 93884, Note_off_c, 1, 55, 64
3, 93888, Note_on_c, 1, 62, 73
3, 94076, Note_off_c, 1, 62, 64
3, 94080, Note_on_c, 1, 59, 73
3, 94268, Note_off_c, 1, 59, 64
3, 94272, Note_on_c, 1, 62, 77
3, 94460, Note_off_c, 1, 62, 64
3, 94464, Note_on_c, 1, 54, 81
3, 94652, Note_off_c, 1, 54, 64
3, 94656, Note_on_c, 1, 62, 88
3, 94844, Note_off_c, 1, 62, 64
3, 94848, Note_on_c, 1, 57, 91
3, 95036, Note_off_c, 1, 57, 64
3, 95040, Note_on_c, 1, 62, 94
3, 95228, Note_off_c, 1, 62, 64
3, 95232, Note_on_c, 1, 52, 94
3, 95420, Note_off_c, 1, 52, 64
3, 95424, Note_on_c, 1, 59, 89
3, 95612, Note_off_c, 1, 59, 64
3, 95616, Note_on_c, 1, 55, 81
3, 95804, Note_off_c, 1, 55, 64
3, 95808, Note_on_c, 1, 59, 77
3, 95996, Note_off_c, 1, 59, 64
3, 96000, Note_on_c, 1, 48, 73
3, 96188, Note_off_c, 1, 48, 64
3, 96192, Note_on_c, 1, 55, 73
3, 96380, Note_off_c, 1, 55, 64
3, 96384, Note_on_c, 1, 52, 73
3, 96572, Note_off_c, 1, 52, 64
3, 96576, Note_on_c, 1, 55, 73
3, 96764, Note_off_c, 1, 55, 64
3, 96768, Note_on_c, 1, 55, 75
3, 97148, Note_off_c, 1, 55, 64
3, 97152, Note_on_c, 1, 59, 84
3, 97532, Note_off_c, 1, 59, 64
3, 97536, Note_on_c, 1, 54, 94
3, 97916, Note_off_c, 1, 54, 64
3, 97920, Note_on_c, 1, 57, 84
3, 98300, Note_off_c, 1, 57, 64
3, 105984, Note_on_c, 1, 52, 94
3, 105984, Note_on_c, 1, 48, 94
3, 106364, Note_off_c, 1, 52, 64
3, 106364, Note_off_c, 1, 48, 64
3, 107136, Note_on_c, 1, 57, 77
3, 107136, Note_on_c, 1, 49, 77
3, 107516, Note_off_c, 1, 57, 64
3, 107516, Note_off_c, 1, 49, 64
3, 107520, Note_on_c, 1, 50, 66
3, 107520, Note_on_c, 1, 50, 66
3, 107612, Note_off_c, 1, 50, 64
3, 107616, Note_on_c, 1, 57, 66
3, 107708, Note_off_c, 1, 57, 64
3, 107712, Note_on_c, 1, 54, 66
3, 107804, Note_off_c, 1, 54, 64
3, 107808, Note_on_c, 1, 57, 66
3, 107900, Note_off_c, 1, 50, 64
3, 107900, Note_off_c, 1, 57, 64
3, 107904, Note_on_c, 1, 50, 66
3, 107996, Note_off_c, 1, 50, 64
3, 108000, Note_on_c, 1, 60, 66
3, 108092, Note_off_c, 1, 60, 64
3, 108096, Note_on_c, 1, 57, 66
3, 108188, Note_off_c, 1, 57, 64
3, 108192, Note_on_c, 1, 60, 66
3, 108284, Note_off_c, 1, 60, 64
3, 108288, Note_on_c, 1, 50, 66
3, 108288, Note_on_c, 1, 50, 66
3, 108380, Note_off_c, 1, 50, 64
3, 108384, Note_on_c, 1, 59, 66
3, 108476, Note_off_c, 1, 59, 64
3, 108480, Note_on_c, 1, 55, 66
3, 108572, Note_off_c, 1, 55, 64
3, 108576, Note_on_c, 1, 59, 66
3, 108668, Note_off_c, 1, 50, 64
3, 108668, Note_off_c, 1, 59, 64
3, 108672, Note_on_c, 1, 50, 66
3, 108764, Note_off_c, 1, 50, 64
3, 108768, Note_on_c, 1, 59, 66
3, 108860, Note_off_c, 1, 59, 64
3, 108864, Note_on_c, 1, 55, 66
3, 108956, Note_off_c, 1, 55, 64
3, 108960, Note_on_c, 1, 59, 66
3, 109052, Note_off_c, 1, 59, 64
3, 109056, Note_on_c, 1, 50, 66
3, 109148, Note_off_c, 1, 50, 64
3, 109152, Note_on_c, 1, 60, 66
3, 109244, Note_off_c, 1, 60, 64
3, 109248, Note_on_c, 1, 57, 66
3, 109340, Note_off_c, 1, 57, 64
3, 109344, Note_on_c, 1, 60, 66
3, 109436, Note_off_c, 1, 60, 64
3, 109440, Note_on_c, 1, 50, 66
3, 109532, Note_off_c, 1, 50, 64
3, 109536, Note_on_c, 1, 60, 66
3, 109628, Note_off_c, 1, 60, 64
3, 109632, Note_on_c, 1, 57, 66
3, 109724, Note_off_c, 1, 57, 64
3, 109728, Note_on_c, 1, 60, 66
3, 109820, Note_off_c, 1, 60, 64
3, 109824, Note_on_c, 1, 50, 66
3, 109916, Note_off_c, 1, 50, 64
3, 109920, Note_on_c, 1, 59, 66
3, 110012, Note_off_c, 1, 59, 64
3, 110016, Note_on_c, 1, 55, 66
3, 110108, Note_off_c, 1, 55, 64
3, 110112, Note_on_c, 1, 59, 66
3, 110204, Note_off_c, 1, 59, 64
3, 110208, Note_on_c, 1, 50, 66
3, 110300, Note_off_c, 1, 50, 64
3, 110304, Note_on_c, 1, 59, 66
3, 110396, Note_off_c, 1, 59, 64
3, 110400, Note_on_c, 1, 55, 66
3, 110492, Note_off_c, 1, 55, 64
3, 110496, Note_on_c, 1, 59, 66
3, 110588, Note_off_c, 1, 59, 64
3, 110592, Note_on_c, 1, 57, 66
3, 110592, Note_on_c, 1, 54, 66
3, 110592, Note_on_c, 1, 50, 66
3, 110972, Note_off_c, 1, 57, 64
3, 110972, Note_off_c, 1, 54, 64
3, 110972, Note_off_c, 1, 50, 64
3, 113664, Note_on_c, 1, 47, 66
3, 113756, Note_off_c, 1, 47, 64
3, 114048, Note_on_c, 1, 50, 66
3, 114140, Note_off_c, 1, 50, 64
3, 114432, Note_on_c, 1, 55, 66
3, 114524, Note_off_c, 1, 55, 64
3, 114816, Note_on_c, 1, 50, 66
3, 114908, Note_off_c, 1, 50, 64
3, 116736, Note_on_c, 1, 60, 66
3, 116828, Note_off_c, 1, 60, 64
3, 117120, Note_on_c, 1, 59, 75
3, 117212, Note_off_c, 1, 59, 64
3, 117504, Note_on_c, 1, 54, 84
3, 117596, Note_off_c, 1, 54, 64
3, 117888, Note_on_c, 1, 55, 75
3, 117980, Note_off_c, 1, 55, 64
3, 123264, Note_on_c, 1, 57, 66
3, 123264, Note_on_c, 1, 48, 66
3, 123644, Note_off_c, 1, 57, 64
3, 123644, Note_off_c, 1, 48, 64
3, 123648, Note_on_c, 1, 59, 66
3, 123648, Note_on_c, 1, 50, 66
3, 124028, Note_off_c, 1, 59, 64
3, 124032, Note_on_c, 1, 54, 66
3, 124412, Note_off_c, 1, 50, 64
3, 124412, Note_off_c, 1, 54, 64
3, 124416, Note_on_c, 1, 55, 66
3, 124796, Note_off_c, 1, 55, 64
3, 131328, Note_on_c, 1, 48, 66
3, 131420, Note_off_c, 1, 48, 64
3, 131424, Note_on_c, 1, 55, 66
3, 131516, Note_off_c, 1, 55, 64
3, 131520, Note_on_c, 1, 52, 66
3, 131612, Note_off_c, 1, 52, 64
3, 131616, Note_on_c, 1, 55, 66
3, 131708, Note_off_c, 1, 55, 64
3, 131712, Note_on_c, 1, 48, 66
3, 131804, Note_off_c, 1, 48, 64
3, 131808, Note_on_c, 1, 57, 66
3, 131900, Note_off_c, 1, 57, 64
3, 131904, Note_on_c, 1, 52, 66
3, 131996, Note_off_c, 1, 52, 64
3, 132000, Note_on_c, 1, 57, 66
3, 132092, Note_off_c, 1, 57, 64
3, 132096, Note_on_c, 1, 59, 73
3, 132096, Note_on_c, 1, 50, 73
3, 132188, Note_off_c, 1, 59, 64
3, 132188, Note_off_c, 1, 50, 64
3, 132288, Note_on_c, 1, 59, 73
3, 132288, Note_on_c, 1, 50, 73
3, 132380, Note_off_c, 1, 59, 64
3, 132380, Note_off_c, 1, 50, 64
3, 132480, Note_on_c, 1, 55, 67
3, 132480, Note_on_c, 1, 50, 67
3, 132572, Note_off_c, 1, 55, 64
3, 132572, Note_off_c, 1, 50, 64
3, 132672, Note_on_c, 1, 57, 71
3, 132672, Note_on_c, 1, 50, 71
3, 132764, Note_off_c, 1, 57, 64
3, 132764, Note_off_c, 1, 50, 64
3, 132864, Note_on_c, 1, 55, 75
3, 132864, Note_on_c, 1, 50, 75
3, 132956, Note_off_c, 1, 55, 64
3, 132956, Note_off_c, 1, 50, 64
3, 133056, Note_on_c, 1, 55, 80
3, 133056, Note_on_c, 1, 50, 80
3, 133148, Note_off_c, 1, 55, 64
3, 133148, Note_off_c, 1, 50, 64
3, 133248, Note_on_c, 1, 54, 85
3, 133248, Note_on_c, 1, 50, 85
3, 133340, Note_off_c, 1, 54, 64
3, 133340, Note_off_c, 1, 50, 64
3, 133440, Note_on_c, 1, 54, 91
3, 133440, Note_on_c, 1, 50, 91
3, 133532, Note_off_c, 1, 54, 64
3, 133532, Note_off_c, 1, 50, 64
3, 133632, Note_on_c, 1, 55, 67
3, 133632, Note_on_c, 1, 43, 67
3, 133820, Note_off_c, 1, 55, 64
3, 133820, Note_off_c, 1, 43, 64
3, 134016, Note_on_c, 1, 57, 75
3, 134016, Note_on_c, 1, 45, 75
3, 134204, Note_off_c, 1, 57, 64
3, 134204, Note_off_c, 1, 45, 64
3, 134400, Note_on_c, 1, 59, 85
3, 134400, Note_on_c, 1, 47, 85
3, 134588, Note_off_c, 1, 59, 64
3, 134588, Note_off_c, 1, 47, 64
3, 135168, Note_on_c, 1, 60, 66
3, 135168, Note_on_c, 1, 64, 66
3, 135548, Note_off_c, 1, 60, 64
3, 135548, Note_off_c, 1, 64, 64
3, 135552, Note_on_c, 1, 60, 66
3, 135552, Note_on_c, 1, 64, 66
3, 135932, Note_off_c, 1, 60, 64
3, 135932, Note_off_c, 1, 64, 64
3, 135936, Note_on_c, 1, 60, 67
3, 135936, Note_on_c, 1, 64, 67
3, 136316, Note_off_c, 1, 60, 64
3, 136316, Note_off_c, 1, 64, 64
3, 136320, Note_on_c, 1, 60, 80
3, 136320, Note_on_c, 1, 64, 80
3, 136700, Note_off_c, 1, 60, 64
3, 136700, Note_off_c, 1, 64, 64
3, 155136, Note_on_c, 1, 55, 66
3, 155228, Note_off_c, 1, 55, 64
3, 155232, Note_on_c, 1, 62, 66
3, 155324, Note_off_c, 1, 62, 64
3, 155328, Note_on_c, 1, 59, 66
3, 155420, Note_off_c, 1, 59, 64
3, 155424, Note_on_c, 1, 62, 66
3, 155516, Note_off_c, 1, 62, 64
3, 155520, Note_on_c, 1, 55, 66
3, 155612, Note_off_c, 1, 55, 64
3, 155616, Note_on_c, 1, 62, 67
3, 155708, Note_off_c, 1, 62, 64
3, 155712, Note_on_c, 1, 59, 69
3, 155804, Note_off_c, 1, 59, 64
3, 155808, Note_on_c, 1, 62, 71
3, 155900, Note_off_c, 1, 62, 64
3, 155904, Note_on_c, 1, 55, 75
3, 155996, Note_off_c, 1, 55, 64
3, 156000, Note_on_c, 1, 62, 77
3, 156092, Note_off_c, 1, 62, 64
3, 156096, Note_on_c, 1, 59, 80
3, 156188, Note_off_c, 1, 59, 64
3, 156192, Note_on_c, 1, 62, 82
3, 156284, Note_off_c, 1, 62, 64
3, 156288, Note_on_c, 1, 55, 88
3, 156380, Note_off_c, 1, 55, 64
3, 156384, Note_on_c, 1, 62, 90
3, 156476, Note_off_c, 1, 62, 64
3, 156480, Note_on_c, 1, 59, 92
3, 156572, Note_off_c, 1, 59, 64
3, 156576, Note_on_c, 1, 62, 94
3, 156668, Note_off_c, 1, 62, 64
3, 156672, Note_on_c, 1, 54, 94
3, 156764, Note_off_c, 1, 54, 64
3, 156768, Note_on_c, 1, 62, 91
3, 156860, Note_off_c, 1, 62, 64
3, 156864, Note_on_c, 1, 57, 89
3, 156956, Note_off_c, 1, 57, 64
3, 156960, Note_on_c, 1, 62, 84
3, 157052, Note_off_c, 1, 62, 64
3, 157056, Note_on_c, 1, 54, 81
3, 157148, Note_off_c, 1, 54, 64
3, 157152, Note_on_c, 1, 62, 79
3, 157244, Note_off_c, 1, 62, 64
3, 157248, Note_on_c, 1, 57, 75
3, 157340, Note_off_c, 1, 57, 64
3, 157344, Note_on_c, 1, 62, 74
3, 157436, Note_off_c, 1, 62, 64
3, 157440, Note_on_c, 1, 54, 66
3, 157532, Note_off_c, 1, 54, 64
3, 157536, Note_on_c, 1, 62, 66
3, 157628, Note_off_c, 1, 62, 64
3, 157632, Note_on_c, 1, 57, 66
3, 157724, Note_off_c, 1, 57, 64
3, 157728, Note_on_c, 1, 62, 66
3, 157820, Note_off_c, 1, 62, 64
3, 157824, Note_on_c, 1, 54, 66
3, 157916, Note_off_c, 1, 54, 64
3, 157920, Note_on_c, 1, 62, 66
3, 158012, Note_off_c, 1, 62, 64
3, 158016, Note_on_c, 1, 57, 66
3, 158108, Note_off_c, 1, 57, 64
3, 158112, Note_on_c, 1, 62, 66
3, 158204, Note_off_c, 1, 62, 64
3, 158208, Note_on_c, 1, 55, 66
3, 158300, Note_off_c, 1, 55, 64
3, 158304, Note_on_c, 1, 62, 66
3, 158396, Note_off_c, 1, 62, 64
3, 158400, Note_on_c, 1, 59, 66
3, 158492, Note_off_c, 1, 59, 64
3, 158496, Note_on_c, 1, 62, 66
3, 158588, Note_off_c, 1, 62, 64
3, 158592, Note_on_c, 1, 55, 66
3, 158684, Note_off_c, 1, 55, 64
3, 158688, Note_on_c, 1, 62, 66
3, 158780, Note_off_c, 1, 62, 64
3, 158784, Note_on_c, 1, 59, 66
3, 158876, Note_off_c, 1, 59, 64
3, 158880, Note_on_c, 1, 62, 66
3, 158972, Note_off_c, 1, 62, 64
3, 158976, Note_on_c, 1, 55, 67
3, 159068, Note_off_c, 1, 55, 64
3, 159072, Note_on_c, 1, 62, 71
3, 159164, Note_off_c, 1, 62, 64
3, 159168, Note_on_c, 1, 59, 77
3, 159260, Note_off_c, 1, 59, 64
3, 159264, Note_on_c, 1, 62, 81
3, 159356, Note_off_c, 1, 62, 64
3, 159360, Note_on_c, 1, 55, 89
3, 159452, Note_off_c, 1, 55, 64
3, 159456, Note_on_c, 1, 62, 94
3, 159548, Note_off_c, 1, 62, 64
3, 159552, Note_on_c, 1, 59, 100
3, 159644, Note_off_c, 1, 59, 64
3, 159648, Note_on_c, 1, 62, 105
3, 159740, Note_off_c, 1, 62, 64
3, 159744, Note_on_c, 1, 62, 110
3, 159744, Note_on_c, 1, 57, 110
3, 159744, Note_on_c, 1, 54, 110
3, 160124, Note_off_c, 1, 62, 64
3, 160124, Note_off_c, 1, 57, 64
3, 160124, Note_off_c, 1, 54, 64
3, 160512, Note_on_c, 1, 62, 110
3, 160512, Note_on_c, 1, 57, 110
3, 160512, Note_on_c, 1, 50, 110
3, 160892, Note_off_c, 1, 62, 64
3, 160892, Note_off_c, 1, 57, 64
3, 160892, Note_off_c, 1, 50, 64
3, 161280, Note_on_c, 1, 55, 110
3, 161468, Note_off_c, 1, 55, 64
3, 161664, Note_on_c, 1, 59, 110
3, 161852, Note_off_c, 1, 59, 64
3, 162048, Note_on_c, 1, 60, 92
3, 162236, Note_off_c, 1, 60, 64
3, 162432, Note_on_c, 1, 62, 77
3, 162620, Note_off_c, 1, 62, 64
3, 162816, Note_on_c, 1, 59, 66
3, 162816, Note_on_c, 1, 55, 66
3, 163196, Note_off_c, 1, 59, 64
3, 163196, Note_off_c, 1, 55, 64
3, 164352, Note_on_c, 1, 55, 66
3, 164352, Note_on_c, 1, 43, 66
3, 164352, Note_on_c, 1, 43, 66
3, 164352, Note_on_c, 1, 55, 66
3, 164732, Note_off_c, 1, 55, 64
3, 164732, Note_off_c, 1, 43, 64
3, 165116, Note_off_c, 1, 43, 64
3, 165116, Note_off_c, 1, 55, 64
3, 165120, Note_on_c, 1, 53, 68
3, 165120, Note_on_c, 1, 41, 68
3, 165120, Note_on_c, 1, 41, 68
3, 165120, Note_on_c, 1, 53, 68
3, 165500, Note_off_c, 1, 53, 64
3, 165500, Note_off_c, 1, 41, 64
3, 165884, Note_off_c, 1, 41, 64
3, 165884, Note_off_c, 1, 53, 64
3, 165888, Note_on_c, 1, 52, 94
3, 165888, Note_on_c, 1, 40, 94
3, 165888, Note_on_c, 1, 52, 94
3, 165888, Note_on_c, 1, 40, 94
3, 166268, Note_off_c, 1, 52, 64
3, 166268, Note_off_c, 1, 40, 64
3, 166652, Note_off_c, 1, 52, 64
3, 166652, Note_off_c, 1, 40, 64
3, 166656, Note_on_c, 1, 50, 94
3, 166656, Note_on_c, 1, 38, 94
3, 166656, Note_on_c, 1, 50, 94
3, 166656, Note_on_c, 1, 38, 94
3, 167036, Note_off_c, 1, 50, 64
3, 167036, Note_off_c, 1, 38, 64
3, 167420, Note_off_c, 1, 50, 64
3, 167420, Note_off_c, 1, 38, 64
3, 167616, Note_on_c, 1, 64, 94
3, 167616, Note_on_c, 1, 61, 94
3, 167708, Note_off_c, 1, 64, 64
3, 167708, Note_off_c, 1, 61, 64
3, 167808, Note_on_c, 1, 64, 94
3, 167808, Note_on_c, 1, 61, 94
3, 167808, Note_on_c, 1, 61, 94
3, 167808, Note_on_c, 1, 64, 94
3, 167900, Note_off_c, 1, 64, 64
3, 167900, Note_off_c, 1, 61, 64
3, 168000, Note_on_c, 1, 64, 94
3, 168000, Note_on_c, 1, 61, 94
3, 168092, Note_off_c, 1, 61, 64
3, 168092, Note_off_c, 1, 64, 64
3, 168188, Note_off_c, 1, 64, 64
3, 168188, Note_off_c, 1, 61, 64
3, 168192, Note_on_c, 1, 61, 94
3, 168192, Note_on_c, 1, 69, 94
3, 168284, Note_off_c, 1, 61, 64
3, 168284, Note_off_c, 1, 69, 64
3, 168384, Note_on_c, 1, 69, 94
3, 168384, Note_on_c, 1, 61, 94
3, 168476, Note_off_c, 1, 69, 64
3, 168476, Note_off_c, 1, 61, 64
3, 168576, Note_on_c, 1, 69, 94
3, 168576, Note_on_c, 1, 61, 94
3, 168668, Note_off_c, 1, 69, 64
3, 168668, Note_off_c, 1, 61, 64
3, 168768, Note_on_c, 1, 69, 94
3, 168768, Note_on_c, 1, 61, 94
3, 168860, Note_off_c, 1, 69, 64
3, 168860, Note_off_c, 1, 61, 64
3, 168960, Note_on_c, 1, 62, 66
3, 168960, Note_on_c, 1, 50, 66
3, 168960, Note_on_c, 1, 50, 66
3, 168960, Note_on_c, 1, 62, 66
3, 169724, Note_off_c, 1, 62, 64
3, 169724, Note_off_c, 1, 50, 64
3, 169724, Note_off_c, 1, 50, 64
3, 169724, Note_off_c, 1, 62, 64
3, 169728, Note_on_c, 1, 60, 66
3, 169728, Note_on_c, 1, 48, 66
3, 169728, Note_on_c, 1, 60, 66
3, 169728, Note_on_c, 1, 48, 66
3, 170492, Note_off_c, 1, 60, 64
3, 170492, Note_off_c, 1, 48, 64
3, 170492, Note_off_c, 1, 60, 64
3, 170492, Note_off_c, 1, 48, 64
3, 170496, Note_on_c, 1, 59, 66
3, 170496, Note_on_c, 1, 47, 66
3, 170496, Note_on_c, 1, 47, 66
3, 170496, Note_on_c, 1, 59, 66
3, 170876, Note_off_c, 1, 59, 64
3, 170876, Note_off_c, 1, 47, 64
3, 171260, Note_off_c, 1, 47, 64
3, 171260, Note_off_c, 1, 59, 64
3, 171264, Note_on_c, 1, 57, 94
3, 171264, Note_on_c, 1, 45, 94
3, 171264, Note_on_c, 1, 57, 94
3, 171264, Note_on_c, 1, 45, 94
3, 171644, Note_off_c, 1, 57, 64
3, 171644, Note_off_c, 1, 45, 64
3, 172028, Note_off_c, 1, 57, 64
3, 172028, Note_off_c, 1, 45, 64
3, 172224, Note_on_c, 1, 56, 94
3, 172224, Note_on_c, 1, 59, 94
3, 172316, Note_off_c, 1, 56, 64
3, 172316, Note_off_c, 1, 59, 64
3, 172416, Note_on_c, 1, 56, 94
3, 172416, Note_on_c, 1, 59, 94
3, 172416, Note_on_c, 1, 56, 94
3, 172508, Note_off_c, 1, 56, 64
3, 172508, Note_off_c, 1, 59, 64
3, 172608, Note_on_c, 1, 56, 94
3, 172608, Note_on_c, 1, 59, 94
3, 172700, Note_off_c, 1, 56, 64
3, 172700, Note_off_c, 1, 59, 64
3, 172796, Note_off_c, 1, 56, 64
3, 172800, Note_on_c, 1, 56, 94
3, 172800, Note_on_c, 1, 64, 94
3, 172892, Note_off_c, 1, 56, 64
3, 172892, Note_off_c, 1, 64, 64
3, 172992, Note_on_c, 1, 56, 94
3, 172992, Note_on_c, 1, 64, 94
3, 173084, Note_off_c, 1, 56, 64
3, 173084, Note_off_c, 1, 64, 64
3, 173184, Note_on_c, 1, 56, 94
3, 173184, Note_on_c, 1, 64, 94
3, 173276, Note_off_c, 1, 56, 64
3, 173276, Note_off_c, 1, 64, 64
3, 173376, Note_on_c, 1, 56, 94
3, 173376, Note_on_c, 1, 64, 94
3, 173468, Note_off_c, 1, 56, 64
3, 173468, Note_off_c, 1, 64, 64
3, 173568, Note_on_c, 1, 64, 94
3, 173568, Note_on_c, 1, 57, 94
3, 173948, Note_off_c, 1, 64, 64
3, 173948, Note_off_c, 1, 57, 64
3, 186048, Note_on_c, 1, 57, 74
3, 186048, Note_on_c, 1, 53, 74
3, 186140, Note_off_c, 1, 57, 64
3, 186140, Note_off_c, 1, 53, 64
3, 186240, Note_on_c, 1, 57, 80
3, 186240, Note_on_c, 1, 53, 80
3, 186332, Note_off_c, 1, 57, 64
3, 186332, Note_off_c, 1, 53, 64
3, 186432, Note_on_c, 1, 57, 89
3, 186432, Note_on_c, 1, 53, 89
3, 186524, Note_off_c, 1, 57, 64
3, 186524, Note_off_c, 1, 53, 64
3, 186624, Note_on_c, 1, 57, 94
3, 186624, Note_on_c, 1, 53, 94
3, 186716, Note_off_c, 1, 57, 64
3, 186716, Note_off_c, 1, 53, 64
3, 186816, Note_on_c, 1, 57, 88
3, 186816, Note_on_c, 1, 53, 88
3, 186908, Note_off_c, 1, 57, 64
3, 186908, Note_off_c, 1, 53, 64
3, 187008, Note_on_c, 1, 57, 79
3, 187008, Note_on_c, 1, 53, 79
3, 187100, Note_off_c, 1, 57, 64
3, 187100, Note_off_c, 1, 53, 64
3, 187200, Note_on_c, 1, 57, 73
3, 187200, Note_on_c, 1, 53, 73
3, 187292, Note_off_c, 1, 57, 64
3, 187292, Note_off_c, 1, 53, 64
3, 187584, Note_on_c, 1, 56, 66
3, 187584, Note_on_c, 1, 53, 66
3, 187676, Note_off_c, 1, 56, 64
3, 187676, Note_off_c, 1, 53, 64
3, 187776, Note_on_c, 1, 56, 66
3, 187776, Note_on_c, 1, 53, 66
3, 187868, Note_off_c, 1, 56, 64
3, 187868, Note_off_c, 1, 53, 64
3, 187968, Note_on_c, 1, 56, 66
3, 187968, Note_on_c, 1, 53, 66
3, 188060, Note_off_c, 1, 56, 64
3, 188060, Note_off_c, 1, 53, 64
3, 188160, Note_on_c, 1, 55, 66
3, 188160, Note_on_c, 1, 53, 66
3, 188252, Note_off_c, 1, 55, 64
3, 188252, Note_off_c, 1, 53, 64
3, 188352, Note_on_c, 1, 55, 66
3, 188352, Note_on_c, 1, 53, 66
3, 188444, Note_off_c, 1, 55, 64
3, 188444, Note_off_c, 1, 53, 64
3, 188544, Note_on_c, 1, 55, 66
3, 188544, Note_on_c, 1, 53, 66
3, 188636, Note_off_c, 1, 55, 64
3, 188636, Note_off_c, 1, 53, 64
3, 188736, Note_on_c, 1, 55, 66
3, 188736, Note_on_c, 1, 53, 66
3, 188828, Note_off_c, 1, 55, 64
3, 188828, Note_off_c, 1, 53, 64
3, 188928, Note_on_c, 1, 55, 66
3, 188928, Note_on_c, 1, 52, 66
3, 189308, Note_off_c, 1, 55, 64
3, 189308, Note_off_c, 1, 52, 64
3, 189696, Note_on_c, 1, 55, 66
3, 189696, Note_on_c, 1, 47, 66
3, 190076, Note_off_c, 1, 55, 64
3, 190076, Note_off_c, 1, 47, 64
3, 190464, Note_on_c, 1, 60, 67
3, 190464, Note_on_c, 1, 48, 67
3, 190844, Note_off_c, 1, 60, 64
3, 190844, Note_off_c, 1, 48, 64
3, 190848, Note_on_c, 1, 58, 74
3, 190848, Note_on_c, 1, 46, 74
3, 191228, Note_off_c, 1, 58, 64
3, 191228, Note_off_c, 1, 46, 64
3, 191232, Note_on_c, 1, 57, 80
3, 191232, Note_on_c, 1, 45, 80
3, 191612, Note_off_c, 1, 57, 64
3, 191612, Note_off_c, 1, 45, 64
3, 191616, Note_on_c, 1, 53, 89
3, 191616, Note_on_c, 1, 41, 89
3, 191996, Note_off_c, 1, 53, 64
3, 191996, Note_off_c, 1, 41, 64
3, 192000, Note_on_c, 1, 52, 110
3, 192000, Note_on_c, 1, 40, 110
3, 192380, Note_off_c, 1, 52, 64
3, 192380, Note_off_c, 1, 40, 64
3, 192576, Note_on_c, 1, 64, 110
3, 192668, Note_off_c, 1, 64, 64
3, 192768, Note_on_c, 1, 65, 110
3, 192956, Note_off_c, 1, 65, 64
3, 193152, Note_on_c, 1, 65, 110
3, 193340, Note_off_c, 1, 65, 64
3, 193536, Note_on_c, 1, 64, 105
3, 193724, Note_off_c, 1, 64, 64
3, 201312, Note_on_c, 1, 43, 81
3, 201404, Note_off_c, 1, 43, 64
3, 201408, Note_on_c, 1, 45, 81
3, 201500, Note_off_c, 1, 45, 64
3, 201504, Note_on_c, 1, 47, 81
3, 201596, Note_off_c, 1, 47, 64
3, 201600, Note_on_c, 1, 48, 81
3, 201692, Note_off_c, 1, 48, 64
3, 201696, Note_on_c, 1, 50, 81
3, 201788, Note_off_c, 1, 50, 64
3, 201792, Note_on_c, 1, 52, 81
3, 201884, Note_off_c, 1, 52, 64
3, 201888, Note_on_c, 1, 54, 81
3, 201980, Note_off_c, 1, 54, 64
3, 201984, Note_on_c, 1, 55, 81
3, 202364, Note_off_c, 1, 55, 64
3, 219648, Note_on_c, 1, 59, 110
3, 219648, Note_on_c, 1, 47, 110
3, 220028, Note_off_c, 1, 59, 64
3, 220028, Note_off_c, 1, 47, 64
3, 220032, Note_on_c, 1, 60, 85
3, 220032, Note_on_c, 1, 48, 85
3, 220412, Note_off_c, 1, 60, 64
3, 220412, Note_off_c, 1, 48, 64
3, 220416, Note_on_c, 1, 53, 66
3, 220796, Note_off_c, 1, 53, 64
3, 220800, Note_on_c, 1, 55, 89
3, 221180, Note_off_c, 1, 55, 64
3, 221184, Note_on_c, 1, 48, 110
3, 221564, Note_off_c, 1, 48, 64
3, 230400, Note_on_c, 1, 55, 110
3, 230780, Note_off_c, 1, 55, 64
3, 235008, Note_on_c, 1, 48, 66
3, 235196, Note_off_c, 1, 48, 64
3, 235200, Note_on_c, 1, 55, 66
3, 235388, Note_off_c, 1, 55, 64
3, 235392, Note_on_c, 1, 52, 66
3, 235580, Note_off_c, 1, 52, 64
3, 235584, Note_on_c, 1, 55, 66
3, 235772, Note_off_c, 1, 55, 64
3, 235776, Note_on_c, 1, 47, 66
3, 235964, Note_off_c, 1, 47, 64
3, 235968, Note_on_c, 1, 55, 66
3, 236156, Note_off_c, 1, 55, 64
3, 236160, Note_on_c, 1, 50, 66
3, 236348, Note_off_c, 1, 50, 64
3, 236352, Note_on_c, 1, 55, 66
3, 236540, Note_off_c, 1, 55, 64
3, 236544, Note_on_c, 1, 45, 66
3, 236732, Note_off_c, 1, 45, 64
3, 236736, Note_on_c, 1, 52, 66
3, 236924, Note_off_c, 1, 52, 64
3, 236928, Note_on_c, 1, 48, 66
3, 237116, Note_off_c, 1, 48, 64
3, 237120, Note_on_c, 1, 52, 66
3, 237308, Note_off_c, 1, 52, 64
3, 237312, Note_on_c, 1, 41, 66
3, 237500, Note_off_c, 1, 41, 64
3, 237504, Note_on_c, 1, 48, 66
3, 237692, Note_off_c, 1, 48, 64
3, 237696, Note_on_c, 1, 45, 66
3, 237884, Note_off_c, 1, 45, 64
3, 237888, Note_on_c, 1, 48, 66
3, 238076, Note_off_c, 1, 48, 64
3, 238080, Note_on_c, 1, 43, 66
3, 238268, Note_off_c, 1, 43, 64
3, 238272, Note_on_c, 1, 52, 66
3, 238460, Note_off_c, 1, 52, 64
3, 238464, Note_on_c, 1, 48, 66
3, 238652, Note_off_c, 1, 48, 64
3, 238656, Note_on_c, 1, 52, 66
3, 238844, Note_off_c, 1, 52, 64
3, 238848, Note_on_c, 1, 43, 66
3, 239036, Note_off_c, 1, 43, 64
3, 239040, Note_on_c, 1, 50, 66
3, 239228, Note_off_c, 1, 50, 64
3, 239232, Note_on_c, 1, 47, 66
3, 239420, Note_off_c, 1, 47, 64
3, 239424, Note_on_c, 1, 50, 66
3, 239612, Note_off_c, 1, 50, 64
3, 239616, Note_on_c, 1, 48, 66
3, 239996, Note_off_c, 1, 48, 64
3, 243456, Note_on_c, 1, 53, 106
3, 243644, Note_off_c, 1, 53, 64
3, 243648, Note_on_c, 1, 60, 106
3, 243836, Note_off_c, 1, 60, 64
3, 243840, Note_on_c, 1, 57, 106
3, 244028, Note_off_c, 1, 57, 64
3, 244032, Note_on_c, 1, 60, 106
3, 244220, Note_off_c, 1, 60, 64
3, 244224, Note_on_c, 1, 55, 82
3, 244224, Note_on_c, 1, 64, 82
3, 244604, Note_off_c, 1, 64, 64
3, 244608, Note_on_c, 1, 60, 94
3, 244988, Note_off_c, 1, 60, 64
3, 244992, Note_on_c, 1, 62, 106
3, 245372, Note_off_c, 1, 62, 64
3, 245376, Note_on_c, 1, 59, 94
3, 245756, Note_off_c, 1, 55, 64
3, 245756, Note_off_c, 1, 59, 64
3, 253440, Note_on_c, 1, 57, 66
3, 253440, Note_on_c, 1, 53, 66
3, 253820, Note_off_c, 1, 57, 64
3, 253820, Note_off_c, 1, 53, 64
3, 254592, Note_on_c, 1, 62, 75
3, 254592, Note_on_c, 1, 57, 75
3, 254592, Note_on_c, 1, 54, 75
3, 254972, Note_off_c, 1, 62, 64
3, 254972, Note_off_c, 1, 57, 64
3, 254972, Note_off_c, 1, 54, 64
3, 254976, Note_on_c, 1, 55, 66
3, 255068, Note_off_c, 1, 55, 64
3, 255072, Note_on_c, 1, 62, 66
3, 255164, Note_off_c, 1, 62, 64
3, 255168, Note_on_c, 1, 59, 66
3, 255260, Note_off_c, 1, 59, 64
3, 255264, Note_on_c, 1, 62, 66
3, 255356, Note_off_c, 1, 62, 64
3, 255360, Note_on_c, 1, 55, 66
3, 255452, Note_off_c, 1, 55, 64
3, 255456, Note_on_c, 1, 65, 66
3, 255548, Note_off_c, 1, 65, 64
3, 255552, Note_on_c, 1, 62, 66
3, 255644, Note_off_c, 1, 62, 64
3, 255648, Note_on_c, 1, 65, 66
3, 255740, Note_off_c, 1, 65, 64
3, 255744, Note_on_c, 1, 55, 66
3, 255836, Note_off_c, 1, 55, 64
3, 255840, Note_on_c, 1, 64, 66
3, 255932, Note_off_c, 1, 64, 64
3, 255936, Note_on_c, 1, 60, 66
3, 256028, Note_off_c, 1, 60, 64
3, 256032, Note_on_c, 1, 64, 66
3, 256124, Note_off_c, 1, 64, 64
3, 256128, Note_on_c, 1, 55, 66
3, 256220, Note_off_c, 1, 55, 64
3, 256224, Note_on_c, 1, 64, 66
3, 256316, Note_off_c, 1, 64, 64
3, 256320, Note_on_c, 1, 60, 66
3, 256412, Note_off_c, 1, 60, 64
3, 256416, Note_on_c, 1, 64, 66
3, 256508, Note_off_c, 1, 64, 64
3, 256512, Note_on_c, 1, 55, 66
3, 256604, Note_off_c, 1, 55, 64
3, 256608, Note_on_c, 1, 65, 66
3, 256700, Note_off_c, 1, 65, 64
3, 256704, Note_on_c, 1, 62, 66
3, 256796, Note_off_c, 1, 62, 64
3, 256800, Note_on_c, 1, 65, 66
3, 256892, Note_off_c, 1, 65, 64
3, 256896, Note_on_c, 1, 55, 66
3, 256988, Note_off_c, 1, 55, 64
3, 256992, Note_on_c, 1, 65, 66
3, 257084, Note_off_c, 1, 65, 64
3, 257088, Note_on_c, 1, 62, 66
3, 257180, Note_off_c, 1, 62, 64
3, 257184, Note_on_c, 1, 65, 66
3, 257276, Note_off_c, 1, 65, 64
3, 257280, Note_on_c, 1, 55, 66
3, 257372, Note_off_c, 1, 55, 64
3, 257376, Note_on_c, 1, 64, 66
3, 257468, Note_off_c, 1, 64, 64
3, 257472, Note_on_c, 1, 60, 66
3, 257564, Note_off_c, 1, 60, 64
3, 257568, Note_on_c, 1, 64, 66
3, 257660, Note_off_c, 1, 64, 64
3, 257664, Note_on_c, 1, 55, 66
3, 257756, Note_off_c, 1, 55, 64
3, 257760, Note_on_c, 1, 64, 66
3, 257852, Note_off_c, 1, 64, 64
3, 257856, Note_on_c, 1, 60, 66
3, 257948, Note_off_c, 1, 60, 64
3, 257952, Note_on_c, 1, 64, 66
3, 258044, Note_off_c, 1, 64, 64
3, 258048, Note_on_c, 1, 62, 66
3, 258048, Note_on_c, 1, 59, 66
3, 258048, Note_on_c, 1, 55, 66
3, 258428, Note_off_c, 1, 62, 64
3, 258428, Note_off_c, 1, 59, 64
3, 258428, Note_off_c, 1, 55, 64
3, 261120, Note_on_c, 1, 52, 66
3, 261212, Note_off_c, 1, 52, 64
3, 261504, Note_on_c, 1, 55, 66
3, 261596, Note_off_c, 1, 55, 64
3, 261888, Note_on_c, 1, 60, 66
3, 261980, Note_off_c, 1, 60, 64
3, 262272, Note_on_c, 1, 55, 66
3, 262364, Note_off_c, 1, 55, 64
3, 270720, Note_on_c, 1, 62, 89
3, 270720, Note_on_c, 1, 53, 89
3, 271100, Note_off_c, 1, 62, 64
3, 271100, Note_off_c, 1, 53, 64
3, 271104, Note_on_c, 1, 64, 103
3, 271104, Note_on_c, 1, 55, 103
3, 271484, Note_off_c, 1, 64, 64
3, 271488, Note_on_c, 1, 59, 81
3, 271868, Note_off_c, 1, 55, 64
3, 271868, Note_off_c, 1, 59, 64
3, 271872, Note_on_c, 1, 60, 68
3, 272252, Note_off_c, 1, 60, 64
3, 278784, Note_on_c, 1, 53, 66
3, 278876, Note_off_c, 1, 53, 64
3, 278880, Note_on_c, 1, 60, 66
3, 278972, Note_off_c, 1, 60, 64
3, 278976, Note_on_c, 1, 57, 66
3, 279068, Note_off_c, 1, 57, 64
3, 279072, Note_on_c, 1, 60, 66
3, 279164, Note_off_c, 1, 60, 64
3, 279168, Note_on_c, 1, 53, 66
3, 279260, Note_off_c, 1, 53, 64
3, 279264, Note_on_c, 1, 62, 66
3, 279356, Note_off_c, 1, 62, 64
3, 279360, Note_on_c, 1, 57, 66
3, 279452, Note_off_c, 1, 57, 64
3, 279456, Note_on_c, 1, 62, 66
3, 279548, Note_off_c, 1, 62, 64
3, 279552, Note_on_c, 1, 64, 66
3, 279552, Note_on_c, 1, 55, 66
3, 279644, Note_off_c, 1, 64, 64
3, 279644, Note_off_c, 1, 55, 64
3, 279744, Note_on_c, 1, 64, 66
3, 279744, Note_on_c, 1, 55, 66
3, 279836, Note_off_c, 1, 64, 64
3, 279836, Note_off_c, 1, 55, 64
3, 279936, Note_on_c, 1, 60, 66
3, 279936, Note_on_c, 1, 55, 66
3, 280028, Note_off_c, 1, 60, 64
3, 280028, Note_off_c, 1, 55, 64
3, 280128, Note_on_c, 1, 60, 66
3, 280128, Note_on_c, 1, 55, 66
3, 280220, Note_off_c, 1, 60, 64
3, 280220, Note_off_c, 1, 55, 64
3, 280320, Note_on_c, 1, 60, 68
3, 280320, Note_on_c, 1, 55, 68
3, 280412, Note_off_c, 1, 60, 64
3, 280412, Note_off_c, 1, 55, 64
3, 280512, Note_on_c, 1, 60, 78
3, 280512, Note_on_c, 1, 55, 78
3, 280604, Note_off_c, 1, 60, 64
3, 280604, Note_off_c, 1, 55, 64
3, 280704, Note_on_c, 1, 59, 90
3, 280704, Note_on_c, 1, 55, 90
3, 280796, Note_off_c, 1, 59, 64
3, 280796, Note_off_c, 1, 55, 64
3, 280896, Note_on_c, 1, 59, 101
3, 280896, Note_on_c, 1, 55, 101
3, 280988, Note_off_c, 1, 59, 64
3, 280988, Note_off_c, 1, 55, 64
3, 281088, Note_on_c, 1, 60, 110
3, 281088, Note_on_c, 1, 48, 110
3, 281276, Note_off_c, 1, 60, 64
3, 281276, Note_off_c, 1, 48, 64
3, 281472, Note_on_c, 1, 62, 110
3, 281472, Note_on_c, 1, 50, 110
3, 281660, Note_off_c, 1, 62, 64
3, 281660, Note_off_c, 1, 50, 64
3, 281856, Note_on_c, 1, 64, 110
3, 281856, Note_on_c, 1, 52, 110
3, 282044, Note_off_c, 1, 64, 64
3, 282044, Note_off_c, 1, 52, 64
3, 282624, Note_on_c, 1, 57, 66
3, 282624, Note_on_c, 1, 53, 66
3, 282812, Note_off_c, 1, 57, 64
3, 282812, Note_off_c, 1, 53, 64
3, 283008, Note_on_c, 1, 57, 66
3, 283008, Note_on_c, 1, 53, 66
3, 283196, Note_off_c, 1, 57, 64
3, 283196, Note_off_c, 1, 53, 64
3, 283392, Note_on_c, 1, 57, 66
3, 283392, Note_on_c, 1, 53, 66
3, 283580, Note_off_c, 1, 57, 64
3, 283580, Note_off_c, 1, 53, 64
3, 283776, Note_on_c, 1, 57, 66
3, 283776, Note_on_c, 1, 53, 66
3, 283964, Note_off_c, 1, 57, 64
3, 283964, Note_off_c, 1, 53, 64
3, 284160, Note_on_c, 1, 55, 66
3, 284252, Note_off_c, 1, 55, 64
3, 284256, Note_on_c, 1, 64, 66
3, 284348, Note_off_c, 1, 64, 64
3, 284352, Note_on_c, 1, 60, 66
3, 284444, Note_off_c, 1, 60, 64
3, 284448, Note_on_c, 1, 64, 66
3, 284540, Note_off_c, 1, 64, 64
3, 284544, Note_on_c, 1, 55, 66
3, 284636, Note_off_c, 1, 55, 64
3, 284640, Note_on_c, 1, 64, 66
3, 284732, Note_off_c, 1, 64, 64
3, 284736, Note_on_c, 1, 60, 66
3, 284828, Note_off_c, 1, 60, 64
3, 284832, Note_on_c, 1, 64, 66
3, 284924, Note_off_c, 1, 64, 64
3, 284928, Note_on_c, 1, 55, 66
3, 285020, Note_off_c, 1, 55, 64
3, 285024, Note_on_c, 1, 64, 66
3, 285116, Note_off_c, 1, 64, 64
3, 285120, Note_on_c, 1, 60, 66
3, 285212, Note_off_c, 1, 60, 64
3, 285216, Note_on_c, 1, 64, 66
3, 285308, Note_off_c, 1, 64, 64
3, 285312, Note_on_c, 1, 55, 66
3, 285404, Note_off_c, 1, 55, 64
3, 285408, Note_on_c, 1, 64, 66
3, 285500, Note_off_c, 1, 64, 64
3, 285504, Note_on_c, 1, 60, 66
3, 285596, Note_off_c, 1, 60, 64
3, 285600, Note_on_c, 1, 64, 66
3, 285692, Note_off_c, 1, 64, 64
3, 285696, Note_on_c, 1, 55, 67
3, 285788, Note_off_c, 1, 55, 64
3, 285792, Note_on_c, 1, 65, 69
3, 285884, Note_off_c, 1, 65, 64
3, 285888, Note_on_c, 1, 59, 71
3, 285980, Note_off_c, 1, 59, 64
3, 285984, Note_on_c, 1, 65, 74
3, 286076, Note_off_c, 1, 65, 64
3, 286080, Note_on_c, 1, 55, 77
3, 286172, Note_off_c, 1, 55, 64
3, 286176, Note_on_c, 1, 65, 79
3, 286268, Note_off_c, 1, 65, 64
3, 286272, Note_on_c, 1, 59, 81
3, 286364, Note_off_c, 1, 59, 64
3, 286368, Note_on_c, 1, 65, 85
3, 286460, Note_off_c, 1, 65, 64
3, 286464, Note_on_c, 1, 55, 89
3, 286556, Note_off_c, 1, 55, 64
3, 286560, Note_on_c, 1, 65, 91
3, 286652, Note_off_c, 1, 65, 64
3, 286656, Note_on_c, 1, 59, 94
3, 286748, Note_off_c, 1, 59, 64
3, 286752, Note_on_c, 1, 65, 97
3, 286844, Note_off_c, 1, 65, 64
3, 286848, Note_on_c, 1, 55, 100
3, 286940, Note_off_c, 1, 55, 64
3, 286944, Note_on_c, 1, 65, 103
3, 287036, Note_off_c, 1, 65, 64
3, 287040, Note_on_c, 1, 59, 105
3, 287132, Note_off_c, 1, 59, 64
3, 287136, Note_on_c, 1, 65, 106
3, 287228, Note_off_c, 1, 65, 64
3, 287232, Note_on_c, 1, 64, 110
3, 287232, Note_on_c, 1, 60, 110
3, 287612, Note_off_c, 1, 64, 64
3, 287612, Note_off_c, 1, 60, 64
3, 299520, Note_on_c, 1, 55, 110
3, 299520, Note_on_c, 1, 43, 110
3, 300484, Note_off_c, 1, 55, 64
3, 300484, Note_off_c, 1, 43, 64
3, 307968, Note_on_c, 1, 53, 66
3, 308060, Note_off_c, 1, 53, 64
3, 308064, Note_on_c, 1, 60, 66
3, 308156, Note_off_c, 1, 60, 64
3, 308160, Note_on_c, 1, 57, 66
3, 308252, Note_off_c, 1, 57, 64
3, 308256, Note_on_c, 1, 60, 66
3, 308348, Note_off_c, 1, 60, 64
3, 308352, Note_on_c, 1, 53, 66
3, 308444, Note_off_c, 1, 53, 64
3, 308448, Note_on_c, 1, 62, 66
3, 308540, Note_off_c, 1, 62, 64
3, 308544, Note_on_c, 1, 57, 66
3, 308636, Note_off_c, 1, 57, 64
3, 308640, Note_on_c, 1, 62, 66
3, 308732, Note_off_c, 1, 62, 64
3, 308736, Note_on_c, 1, 64, 81
3, 308736, Note_on_c, 1, 55, 81
3, 308736, Note_on_c, 1, 43, 81
3, 308828, Note_off_c, 1, 64, 64
3, 308828, Note_off_c, 1, 55, 64
3, 308828, Note_off_c, 1, 43, 64
3, 308928, Note_on_c, 1, 64, 81
3, 308928, Note_on_c, 1, 55, 81
3, 308928, Note_on_c, 1, 43, 81
3, 309020, Note_off_c, 1, 64, 64
3, 309020, Note_off_c, 1, 55, 64
3, 309020, Note_off_c, 1, 43, 64
3, 309120, Note_on_c, 1, 60, 69
3, 309120, Note_on_c, 1, 55, 69
3, 309120, Note_on_c, 1, 43, 69
3, 309212, Note_off_c, 1, 60, 64
3, 309212, Note_off_c, 1, 55, 64
3, 309212, Note_off_c, 1, 43, 64
3, 309312, Note_on_c, 1, 60, 81
3, 309312, Note_on_c, 1, 55, 81
3, 309312, Note_on_c, 1, 43, 81
3, 309404, Note_off_c, 1, 60, 64
3, 309404, Note_off_c, 1, 55, 64
3, 309404, Note_off_c, 1, 43, 64
3, 309504, Note_on_c, 1, 60, 94
3, 309504, Note_on_c, 1, 55, 94
3, 309504, Note_on_c, 1, 43, 94
3, 309596, Note_off_c, 1, 60, 64
3, 309596, Note_off_c, 1, 55, 64
3, 309596, Note_off_c, 1, 43, 64
3, 309696, Note_on_c, 1, 55, 94
3, 309696, Note_on_c, 1, 43, 94
3, 309696, Note_on_c, 1, 60, 94
3, 309788, Note_off_c, 1, 55, 64
3, 309788, Note_off_c, 1, 43, 64
3, 309788, Note_off_c, 1, 60, 64
3, 309888, Note_on_c, 1, 59, 94
3, 309888, Note_on_c, 1, 55, 94
3, 309888, Note_on_c, 1, 43, 94
3, 309980, Note_off_c, 1, 59, 64
3, 309980, Note_off_c, 1, 55, 64
3, 309980, Note_off_c, 1, 43, 64
3, 310080, Note_on_c, 1, 59, 94
3, 310080, Note_on_c, 1, 55, 94
3, 310080, Note_on_c, 1, 43, 94
3, 310172, Note_off_c, 1, 59, 64
3, 310172, Note_off_c, 1, 55, 64
3, 310172, Note_off_c, 1, 43, 64
3, 310272, Note_on_c, 1, 60, 68
3, 310272, Note_on_c, 1, 48, 68
3, 310272, Note_on_c, 1, 36, 68
3, 310460, Note_off_c, 1, 60, 64
3, 310460, Note_off_c, 1, 48, 64
3, 310460, Note_off_c, 1, 36, 64
3, 310656, Note_on_c, 1, 62, 80
3, 310656, Note_on_c, 1, 50, 80
3, 310656, Note_on_c, 1, 38, 80
3, 310844, Note_off_c, 1, 62, 64
3, 310844, Note_off_c, 1, 50, 64
3, 310844, Note_off_c, 1, 38, 64
3, 311040, Note_on_c, 1, 64, 94
3, 311040, Note_on_c, 1, 52, 94
3, 311040, Note_on_c, 1, 40, 94
3, 311228, Note_off_c, 1, 64, 64
3, 311228, Note_off_c, 1, 52, 64
3, 311228, Note_off_c, 1, 40, 64
3, 313344, Note_on_c, 1, 55, 94
3, 313436, Note_off_c, 1, 55, 64
3, 313440, Note_on_c, 1, 64, 94
3, 313532, Note_off_c, 1, 64, 64
3, 313536, Note_on_c, 1, 60, 94
3, 313628, Note_off_c, 1, 60, 64
3, 313632, Note_on_c, 1, 64, 94
3, 313724, Note_off_c, 1, 64, 64
3, 313728, Note_on_c, 1, 55, 94
3, 313820, Note_off_c, 1, 55, 64
3, 313824, Note_on_c, 1, 64, 94
3, 313916, Note_off_c, 1, 64, 64
3, 313920, Note_on_c, 1, 60, 94
3, 314012, Note_off_c, 1, 60, 64
3, 314016, Note_on_c, 1, 64, 94
3, 314108, Note_off_c, 1, 64, 64
3, 314112, Note_on_c, 1, 55, 94
3, 314204, Note_off_c, 1, 55, 64
3, 314208, Note_on_c, 1, 64, 94
3, 314300, Note_off_c, 1, 64, 64
3, 314304, Note_on_c, 1, 60, 94
3, 314396, Note_off_c, 1, 60, 64
3, 314400, Note_on_c, 1, 64, 94
3, 314492, Note_off_c, 1, 64, 64
3, 314496, Note_on_c, 1, 55, 94
3, 314588, Note_off_c, 1, 55, 64
3, 314592, Note_on_c, 1, 64, 94
3, 314684, Note_off_c, 1, 64, 64
3, 314688, Note_on_c, 1, 60, 94
3, 314780, Note_off_c, 1, 60, 64
3, 314784, Note_on_c, 1, 64, 94
3, 314876, Note_off_c, 1, 64, 64
3, 314880, Note_on_c, 1, 55, 96
3, 314972, Note_off_c, 1, 55, 64
3, 314976, Note_on_c, 1, 65, 96
3, 315068, Note_off_c, 1, 65, 64
3, 315072, Note_on_c, 1, 59, 97
3, 315164, Note_off_c, 1, 59, 64
3, 315168, Note_on_c, 1, 65, 99
3, 315260, Note_off_c, 1, 65, 64
3, 315264, Note_on_c, 1, 55, 100
3, 315356, Note_off_c, 1, 55, 64
3, 315360, Note_on_c, 1, 65, 101
3, 315452, Note_off_c, 1, 65, 64
3, 315456, Note_on_c, 1, 59, 101
3, 315548, Note_off_c, 1, 59, 64
3, 315552, Note_on_c, 1, 65, 101
3, 315644, Note_off_c, 1, 65, 64
3, 315648, Note_on_c, 1, 55, 103
3, 315740, Note_off_c, 1, 55, 64
3, 315744, Note_on_c, 1, 65, 104
3, 315836, Note_off_c, 1, 65, 64
3, 315840, Note_on_c, 1, 59, 105
3, 315932, Note_off_c, 1, 59, 64
3, 315936, Note_on_c, 1, 65, 105
3, 316028, Note_off_c, 1, 65, 64
3, 316032, Note_on_c, 1, 55, 105
3, 316124, Note_off_c, 1, 55, 64
3, 316128, Note_on_c, 1, 65, 106
3, 316220, Note_off_c, 1, 65, 64
3, 316224, Note_on_c, 1, 59, 110
3, 316316, Note_off_c, 1, 59, 64
3, 316320, Note_on_c, 1, 65, 110
3, 316412, Note_off_c, 1, 65, 64
3, 316416, Note_on_c, 1, 64, 113
3, 316416, Note_on_c, 1, 60, 113
3, 316988, Note_off_c, 1, 64, 64
3, 316988, Note_off_c, 1, 60, 64
3, 316988, End_track
4, 0, Start_track
4, 0, Title_t, "Midi by:"
4, 0, Control_c, 2, 0, 0
4, 0, Program_c, 2, 48
4, 0, Control_c, 2, 7, 127
4, 0, Control_c, 2, 10, 43
4, 0, Control_c, 2, 91, 63
4, 0, Control_c, 2, 93, 4
4, 0, Key_signature, 0, "major"
4, 0, Control_c, 2, 121, 0
4, 864, Control_c, 2, 10, 53
4, 960, Control_c, 2, 91, 63
4, 1152, Program_c, 2, 48
4, 1536, Note_on_c, 2, 72, 97
4, 1536, Note_on_c, 2, 64, 91
4, 2300, Note_off_c, 2, 64, 64
4, 2304, Note_on_c, 2, 76, 91
4, 2492, Note_off_c, 2, 76, 64
4, 2688, Note_on_c, 2, 79, 91
4, 2876, Note_off_c, 2, 79, 64
4, 3068, Note_off_c, 2, 72, 64
4, 3072, Note_on_c, 2, 84, 97
4, 3072, Note_on_c, 2, 76, 97
4, 3260, Note_off_c, 2, 84, 64
4, 3264, Note_on_c, 2, 79, 87
4, 3452, Note_off_c, 2, 76, 64
4, 3452, Note_off_c, 2, 79, 64
4, 3456, Note_on_c, 2, 79, 87
4, 3456, Note_on_c, 2, 76, 87
4, 4220, Note_off_c, 2, 79, 64
4, 4220, Note_off_c, 2, 76, 64
4, 4224, Note_on_c, 2, 77, 87
4, 4224, Note_on_c, 2, 81, 87
4, 4316, Note_off_c, 2, 81, 64
4, 4320, Note_on_c, 2, 79, 87
4, 4412, Note_off_c, 2, 79, 64
4, 4416, Note_on_c, 2, 81, 87
4, 4508, Note_off_c, 2, 81, 64
4, 4512, Note_on_c, 2, 83, 87
4, 4604, Note_off_c, 2, 77, 64
4, 4604, Note_off_c, 2, 83, 64
4, 4608, Note_on_c, 2, 84, 87
4, 4608, Note_on_c, 2, 76, 87
4, 4796, Note_off_c, 2, 84, 64
4, 4800, Note_on_c, 2, 79, 87
4, 4988, Note_off_c, 2, 76, 64
4, 4988, Note_off_c, 2, 79, 64
4, 4992, Note_on_c, 2, 77, 87
4, 4992, Note_on_c, 2, 81, 87
4, 5084, Note_off_c, 2, 81, 64
4, 5088, Note_on_c, 2, 79, 87
4, 5180, Note_off_c, 2, 79, 64
4, 5184, Note_on_c, 2, 81, 87
4, 5276, Note_off_c, 2, 81, 64
4, 5280, Note_on_c, 2, 83, 87
4, 5372, Note_off_c, 2, 77, 64
4, 5372, Note_off_c, 2, 83, 64
4, 5376, Note_on_c, 2, 76, 87
4, 5376, Note_on_c, 2, 84, 87
4, 5468, Note_off_c, 2, 84, 64
4, 5568, Note_on_c, 2, 79, 87
4, 5660, Note_off_c, 2, 79, 64
4, 5756, Note_off_c, 2, 76, 64
4, 5760, Note_on_c, 2, 77, 87
4, 5760, Note_on_c, 2, 81, 87
4, 5852, Note_off_c, 2, 81, 64
4, 5856, Note_on_c, 2, 79, 87
4, 5948, Note_off_c, 2, 79, 64
4, 5952, Note_on_c, 2, 81, 87
4, 6044, Note_off_c, 2, 81, 64
4, 6048, Note_on_c, 2, 83, 87
4, 6140, Note_off_c, 2, 77, 64
4, 6140, Note_off_c, 2, 83, 64
4, 6144, Note_on_c, 2, 84, 97
4, 6144, Note_on_c, 2, 76, 97
4, 6332, Note_off_c, 2, 84, 64
4, 6336, Note_on_c, 2, 79, 87
4, 6524, Note_off_c, 2, 76, 64
4, 6524, Note_off_c, 2, 79, 64
4, 6528, Note_on_c, 2, 76, 87
4, 6528, Note_on_c, 2, 79, 87
4, 7100, Note_off_c, 2, 76, 64
4, 7100, Note_off_c, 2, 79, 64
4, 7104, Note_on_c, 2, 81, 70
4, 7196, Note_off_c, 2, 81, 64
4, 7200, Note_on_c, 2, 79, 68
4, 7292, Note_off_c, 2, 79, 64
4, 7296, Note_on_c, 2, 77, 64
4, 7388, Note_off_c, 2, 77, 64
4, 7392, Note_on_c, 2, 76, 63
4, 7484, Note_off_c, 2, 76, 64
4, 7488, Note_on_c, 2, 74, 60
4, 7580, Note_off_c, 2, 74, 64
4, 7584, Note_on_c, 2, 72, 58
4, 7676, Note_off_c, 2, 72, 64
4, 7680, Note_on_c, 2, 71, 70
4, 8444, Note_off_c, 2, 71, 64
4, 8448, Note_on_c, 2, 72, 70
4, 8488, Note_off_c, 2, 72, 64
4, 8492, Note_on_c, 2, 74, 70
4, 8532, Note_off_c, 2, 74, 64
4, 8544, Note_on_c, 2, 72, 70
4, 8584, Note_off_c, 2, 72, 64
4, 8592, Note_on_c, 2, 74, 70
4, 8632, Note_off_c, 2, 74, 64
4, 8640, Note_on_c, 2, 72, 70
4, 8680, Note_off_c, 2, 72, 64
4, 8688, Note_on_c, 2, 74, 70
4, 8728, Note_off_c, 2, 74, 64
4, 8744, Note_on_c, 2, 72, 70
4, 8784, Note_off_c, 2, 72, 64
4, 8784, Note_on_c, 2, 74, 70
4, 8824, Note_off_c, 2, 74, 64
4, 8832, Note_on_c, 2, 72, 70
4, 8872, Note_off_c, 2, 72, 64
4, 8880, Note_on_c, 2, 74, 70
4, 8920, Note_off_c, 2, 74, 64
4, 8928, Note_on_c, 2, 72, 70
4, 8968, Note_off_c, 2, 72, 64
4, 8976, Note_on_c, 2, 74, 70
4, 9016, Note_off_c, 2, 74, 64
4, 9024, Note_on_c, 2, 71, 70
4, 9112, Note_off_c, 2, 71, 64
4, 9120, Note_on_c, 2, 72, 70
4, 9208, Note_off_c, 2, 72, 64
4, 9216, Note_on_c, 2, 74, 70
4, 9980, Note_off_c, 2, 74, 64
4, 9984, Note_on_c, 2, 76, 70
4, 10024, Note_off_c, 2, 76, 64
4, 10032, Note_on_c, 2, 77, 70
4, 10072, Note_off_c, 2, 77, 64
4, 10080, Note_on_c, 2, 76, 70
4, 10120, Note_off_c, 2, 76, 64
4, 10128, Note_on_c, 2, 77, 70
4, 10168, Note_off_c, 2, 77, 64
4, 10176, Note_on_c, 2, 76, 70
4, 10216, Note_off_c, 2, 76, 64
4, 10224, Note_on_c, 2, 77, 70
4, 10264, Note_off_c, 2, 77, 64
4, 10272, Note_on_c, 2, 76, 70
4, 10312, Note_off_c, 2, 76, 64
4, 10320, Note_on_c, 2, 77, 70
4, 10360, Note_off_c, 2, 77, 64
4, 10368, Note_on_c, 2, 76, 70
4, 10408, Note_off_c, 2, 76, 64
4, 10416, Note_on_c, 2, 77, 70
4, 10456, Note_off_c, 2, 77, 64
4, 10464, Note_on_c, 2, 76, 70
4, 10504, Note_off_c, 2, 76, 64
4, 10512, Note_on_c, 2, 77, 70
4, 10552, Note_off_c, 2, 77, 64
4, 10560, Note_on_c, 2, 74, 70
4, 10648, Note_off_c, 2, 74, 64
4, 10656, Note_on_c, 2, 76, 70
4, 10744, Note_off_c, 2, 76, 64
4, 10752, Note_on_c, 2, 77, 87
4, 10752, Note_on_c, 2, 74, 87
4, 10752, Note_on_c, 2, 67, 87
4, 10940, Note_off_c, 2, 77, 64
4, 10940, Note_off_c, 2, 74, 64
4, 10940, Note_off_c, 2, 67, 64
4, 11136, Note_on_c, 2, 76, 87
4, 11136, Note_on_c, 2, 72, 87
4, 11136, Note_on_c, 2, 67, 87
4, 11324, Note_off_c, 2, 76, 64
4, 11324, Note_off_c, 2, 72, 64
4, 11324, Note_off_c, 2, 67, 64
4, 11520, Note_on_c, 2, 76, 87
4, 11520, Note_on_c, 2, 67, 87
4, 11708, Note_off_c, 2, 76, 64
4, 11708, Note_off_c, 2, 67, 64
4, 11712, Note_on_c, 2, 74, 87
4, 11712, Note_on_c, 2, 65, 87
4, 11900, Note_off_c, 2, 74, 64
4, 11900, Note_off_c, 2, 65, 64
4, 11904, Note_on_c, 2, 72, 87
4, 11904, Note_on_c, 2, 64, 87
4, 11996, Note_off_c, 2, 72, 64
4, 11996, Note_off_c, 2, 64, 64
4, 12096, Note_on_c, 2, 71, 87
4, 12096, Note_on_c, 2, 62, 87
4, 12188, Note_off_c, 2, 71, 64
4, 12188, Note_off_c, 2, 62, 64
4, 12288, Note_on_c, 2, 72, 87
4, 12288, Note_on_c, 2, 64, 87
4, 12476, Note_off_c, 2, 72, 64
4, 12476, Note_off_c, 2, 64, 64
4, 12480, Note_on_c, 2, 84, 57
4, 12480, Note_on_c, 2, 72, 57
4, 12668, Note_off_c, 2, 84, 64
4, 12668, Note_off_c, 2, 72, 64
4, 12672, Note_on_c, 2, 83, 57
4, 12672, Note_on_c, 2, 71, 57
4, 12860, Note_off_c, 2, 83, 64
4, 12860, Note_off_c, 2, 71, 64
4, 12864, Note_on_c, 2, 69, 57
4, 12864, Note_on_c, 2, 81, 57
4, 13052, Note_off_c, 2, 69, 64
4, 13052, Note_off_c, 2, 81, 64
4, 13056, Note_on_c, 2, 78, 57
4, 13056, Note_on_c, 2, 66, 57
4, 13244, Note_off_c, 2, 78, 64
4, 13244, Note_off_c, 2, 66, 64
4, 13248, Note_on_c, 2, 67, 57
4, 13248, Note_on_c, 2, 79, 57
4, 13436, Note_off_c, 2, 67, 64
4, 13436, Note_off_c, 2, 79, 64
4, 13440, Note_on_c, 2, 81, 57
4, 13440, Note_on_c, 2, 69, 57
4, 13628, Note_off_c, 2, 81, 64
4, 13628, Note_off_c, 2, 69, 64
4, 13632, Note_on_c, 2, 79, 57
4, 13632, Note_on_c, 2, 67, 57
4, 13820, Note_off_c, 2, 79, 64
4, 13820, Note_off_c, 2, 67, 64
4, 13824, Note_on_c, 2, 65, 57
4, 13824, Note_on_c, 2, 55, 57
4, 13824, Note_on_c, 2, 79, 57
4, 13916, Note_off_c, 2, 79, 64
4, 13920, Note_on_c, 2, 71, 57
4, 14012, Note_off_c, 2, 65, 64
4, 14012, Note_off_c, 2, 55, 64
4, 14016, Note_on_c, 2, 67, 57
4, 14204, Note_off_c, 2, 67, 64
4, 14208, Note_on_c, 2, 65, 57
4, 14208, Note_on_c, 2, 55, 57
4, 14396, Note_off_c, 2, 65, 64
4, 14396, Note_off_c, 2, 55, 64
4, 14400, Note_on_c, 2, 67, 57
4, 14584, Note_off_c, 2, 71, 64
4, 14588, Note_off_c, 2, 67, 64
4, 14592, Note_on_c, 2, 64, 57
4, 14592, Note_on_c, 2, 55, 57
4, 14592, Note_on_c, 2, 72, 70
4, 14632, Note_off_c, 2, 72, 64
4, 14640, Note_on_c, 2, 74, 70
4, 14680, Note_off_c, 2, 74, 64
4, 14688, Note_on_c, 2, 72, 70
4, 14728, Note_off_c, 2, 72, 64
4, 14736, Note_on_c, 2, 74, 70
4, 14776, Note_off_c, 2, 74, 64
4, 14780, Note_off_c, 2, 64, 64
4, 14780, Note_off_c, 2, 55, 64
4, 14784, Note_on_c, 2, 72, 70
4, 14784, Note_on_c, 2, 67, 57
4, 14824, Note_off_c, 2, 72, 64
4, 14832, Note_on_c, 2, 74, 70
4, 14872, Note_off_c, 2, 74, 64
4, 14880, Note_on_c, 2, 72, 70
4, 14920, Note_off_c, 2, 72, 64
4, 14928, Note_on_c, 2, 74, 70
4, 14968, Note_off_c, 2, 74, 64
4, 14972, Note_off_c, 2, 67, 64
4, 14976, Note_on_c, 2, 64, 57
4, 14976, Note_on_c, 2, 55, 57
4, 14976, Note_on_c, 2, 72, 70
4, 15016, Note_off_c, 2, 72, 64
4, 15024, Note_on_c, 2, 74, 70
4, 15064, Note_off_c, 2, 74, 64
4, 15072, Note_on_c, 2, 72, 70
4, 15112, Note_off_c, 2, 72, 64
4, 15120, Note_on_c, 2, 74, 70
4, 15160, Note_off_c, 2, 74, 64
4, 15164, Note_off_c, 2, 64, 64
4, 15164, Note_off_c, 2, 55, 64
4, 15168, Note_on_c, 2, 71, 70
4, 15168, Note_on_c, 2, 67, 57
4, 15256, Note_off_c, 2, 71, 64
4, 15264, Note_on_c, 2, 72, 70
4, 15352, Note_off_c, 2, 67, 64
4, 15356, Note_off_c, 2, 72, 64
4, 15360, Note_on_c, 2, 74, 57
4, 15360, Note_on_c, 2, 65, 57
4, 15360, Note_on_c, 2, 55, 57
4, 15360, Note_on_c, 2, 59, 57
4, 15548, Note_off_c, 2, 65, 64
4, 15548, Note_off_c, 2, 55, 64
4, 15548, Note_off_c, 2, 59, 64
4, 15552, Note_on_c, 2, 67, 57
4, 15740, Note_off_c, 2, 67, 64
4, 15744, Note_on_c, 2, 65, 57
4, 15744, Note_on_c, 2, 55, 57
4, 15744, Note_on_c, 2, 59, 57
4, 15932, Note_off_c, 2, 65, 64
4, 15932, Note_off_c, 2, 55, 64
4, 15932, Note_off_c, 2, 59, 64
4, 15936, Note_on_c, 2, 67, 57
4, 16124, Note_off_c, 2, 74, 64
4, 16124, Note_off_c, 2, 67, 64
4, 16128, Note_on_c, 2, 55, 57
4, 16128, Note_on_c, 2, 64, 57
4, 16128, Note_on_c, 2, 60, 57
4, 16128, Note_on_c, 2, 76, 70
4, 16168, Note_off_c, 2, 76, 64
4, 16176, Note_on_c, 2, 77, 73
4, 16216, Note_off_c, 2, 77, 64
4, 16224, Note_on_c, 2, 76, 75
4, 16264, Note_off_c, 2, 76, 64
4, 16272, Note_on_c, 2, 77, 78
4, 16312, Note_off_c, 2, 77, 64
4, 16316, Note_off_c, 2, 55, 64
4, 16316, Note_off_c, 2, 64, 64
4, 16316, Note_off_c, 2, 60, 64
4, 16320, Note_on_c, 2, 76, 79
4, 16320, Note_on_c, 2, 67, 62
4, 16360, Note_off_c, 2, 76, 64
4, 16368, Note_on_c, 2, 77, 80
4, 16408, Note_off_c, 2, 77, 64
4, 16416, Note_on_c, 2, 76, 80
4, 16456, Note_off_c, 2, 76, 64
4, 16464, Note_on_c, 2, 77, 81
4, 16504, Note_off_c, 2, 77, 64
4, 16508, Note_off_c, 2, 67, 64
4, 16512, Note_on_c, 2, 55, 64
4, 16512, Note_on_c, 2, 60, 64
4, 16512, Note_on_c, 2, 64, 64
4, 16512, Note_on_c, 2, 76, 82
4, 16552, Note_off_c, 2, 76, 64
4, 16560, Note_on_c, 2, 77, 84
4, 16600, Note_off_c, 2, 77, 64
4, 16608, Note_on_c, 2, 76, 86
4, 16648, Note_off_c, 2, 76, 64
4, 16656, Note_on_c, 2, 77, 86
4, 16696, Note_off_c, 2, 77, 64
4, 16700, Note_off_c, 2, 55, 64
4, 16700, Note_off_c, 2, 60, 64
4, 16700, Note_off_c, 2, 64, 64
4, 16704, Note_on_c, 2, 74, 80
4, 16704, Note_on_c, 2, 67, 69
4, 16796, Note_off_c, 2, 74, 64
4, 16800, Note_on_c, 2, 76, 80
4, 16892, Note_off_c, 2, 67, 64
4, 16892, Note_off_c, 2, 76, 64
4, 16896, Note_on_c, 2, 77, 80
4, 16896, Note_on_c, 2, 67, 80
4, 16896, Note_on_c, 2, 62, 80
4, 16896, Note_on_c, 2, 59, 80
4, 17084, Note_off_c, 2, 77, 64
4, 17084, Note_off_c, 2, 67, 64
4, 17084, Note_off_c, 2, 62, 64
4, 17084, Note_off_c, 2, 59, 64
4, 17280, Note_on_c, 2, 76, 81
4, 17280, Note_on_c, 2, 67, 81
4, 17280, Note_on_c, 2, 64, 81
4, 17280, Note_on_c, 2, 60, 81
4, 17468, Note_off_c, 2, 76, 64
4, 17468, Note_off_c, 2, 67, 64
4, 17468, Note_off_c, 2, 64, 64
4, 17468, Note_off_c, 2, 60, 64
4, 17664, Note_on_c, 2, 76, 57
4, 17664, Note_on_c, 2, 67, 57
4, 17852, Note_off_c, 2, 76, 64
4, 17852, Note_off_c, 2, 67, 64
4, 17856, Note_on_c, 2, 74, 57
4, 17856, Note_on_c, 2, 65, 57
4, 18044, Note_off_c, 2, 74, 64
4, 18044, Note_off_c, 2, 65, 64
4, 18048, Note_on_c, 2, 72, 57
4, 18048, Note_on_c, 2, 64, 57
4, 18140, Note_off_c, 2, 72, 64
4, 18140, Note_off_c, 2, 64, 64
4, 18240, Note_on_c, 2, 71, 57
4, 18240, Note_on_c, 2, 62, 57
4, 18332, Note_off_c, 2, 71, 64
4, 18332, Note_off_c, 2, 62, 64
4, 18432, Note_on_c, 2, 72, 87
4, 18432, Note_on_c, 2, 64, 87
4, 18812, Note_off_c, 2, 72, 64
4, 18812, Note_off_c, 2, 64, 64
4, 18816, Note_on_c, 2, 72, 87
4, 18908, Note_off_c, 2, 72, 64
4, 19008, Note_on_c, 2, 71, 87
4, 19100, Note_off_c, 2, 71, 64
4, 19200, Note_on_c, 2, 69, 87
4, 19388, Note_off_c, 2, 69, 64
4, 19488, Note_on_c, 2, 72, 87
4, 19580, Note_off_c, 2, 72, 64
4, 19584, Note_on_c, 2, 77, 87
4, 19676, Note_off_c, 2, 77, 64
4, 19680, Note_on_c, 2, 72, 87
4, 19772, Note_off_c, 2, 72, 64
4, 19776, Note_on_c, 2, 77, 87
4, 19868, Note_off_c, 2, 77, 64
4, 19872, Note_on_c, 2, 81, 87
4, 19964, Note_off_c, 2, 81, 64
4, 19968, Note_on_c, 2, 79, 97
4, 19968, Note_on_c, 2, 76, 97
4, 20156, Note_off_c, 2, 79, 64
4, 20160, Note_on_c, 2, 84, 87
4, 20348, Note_off_c, 2, 76, 64
4, 20348, Note_off_c, 2, 84, 64
4, 20352, Note_on_c, 2, 72, 87
4, 20444, Note_off_c, 2, 72, 64
4, 20544, Note_on_c, 2, 71, 87
4, 20636, Note_off_c, 2, 71, 64
4, 20736, Note_on_c, 2, 69, 87
4, 20924, Note_off_c, 2, 69, 64
4, 21024, Note_on_c, 2, 72, 87
4, 21116, Note_off_c, 2, 72, 64
4, 21120, Note_on_c, 2, 77, 87
4, 21212, Note_off_c, 2, 77, 64
4, 21216, Note_on_c, 2, 72, 87
4, 21308, Note_off_c, 2, 72, 64
4, 21312, Note_on_c, 2, 77, 87
4, 21404, Note_off_c, 2, 77, 64
4, 21408, Note_on_c, 2, 81, 87
4, 21500, Note_off_c, 2, 81, 64
4, 21504, Note_on_c, 2, 79, 100
4, 21504, Note_on_c, 2, 76, 100
4, 21696, Note_on_c, 2, 64, 57
4, 21788, Note_off_c, 2, 64, 64
4, 21884, Note_off_c, 2, 79, 64
4, 21884, Note_off_c, 2, 76, 64
4, 21888, Note_on_c, 2, 79, 57
4, 21888, Note_on_c, 2, 76, 57
4, 21888, Note_on_c, 2, 72, 57
4, 21980, Note_off_c, 2, 79, 64
4, 21980, Note_off_c, 2, 76, 64
4, 21980, Note_off_c, 2, 72, 64
4, 22080, Note_on_c, 2, 79, 57
4, 22080, Note_on_c, 2, 74, 57
4, 22080, Note_on_c, 2, 71, 57
4, 22172, Note_off_c, 2, 79, 64
4, 22172, Note_off_c, 2, 74, 64
4, 22172, Note_off_c, 2, 71, 64
4, 22272, Note_on_c, 2, 79, 70
4, 22272, Note_on_c, 2, 69, 70
4, 22272, Note_on_c, 2, 72, 70
4, 22320, Note_off_c, 2, 79, 64
4, 22320, Note_on_c, 2, 77, 70
4, 22460, Note_off_c, 2, 77, 64
4, 22464, Note_on_c, 2, 77, 57
4, 22556, Note_off_c, 2, 77, 64
4, 22652, Note_off_c, 2, 69, 64
4, 22652, Note_off_c, 2, 72, 64
4, 22656, Note_on_c, 2, 71, 57
4, 22656, Note_on_c, 2, 67, 57
4, 22848, Note_on_c, 2, 76, 57
4, 22940, Note_off_c, 2, 76, 64
4, 23036, Note_off_c, 2, 71, 64
4, 23036, Note_off_c, 2, 67, 64
4, 23040, Note_on_c, 2, 76, 70
4, 23040, Note_on_c, 2, 69, 70
4, 23040, Note_on_c, 2, 65, 70
4, 23088, Note_off_c, 2, 76, 64
4, 23088, Note_on_c, 2, 74, 70
4, 23180, Note_off_c, 2, 74, 64
4, 23232, Note_on_c, 2, 74, 57
4, 23324, Note_off_c, 2, 74, 64
4, 23420, Note_off_c, 2, 69, 64
4, 23420, Note_off_c, 2, 65, 64
4, 23424, Note_on_c, 2, 64, 57
4, 23424, Note_on_c, 2, 67, 57
4, 23616, Note_on_c, 2, 72, 57
4, 23708, Note_off_c, 2, 72, 64
4, 23804, Note_off_c, 2, 64, 64
4, 23804, Note_off_c, 2, 67, 64
4, 23808, Note_on_c, 2, 72, 87
4, 23808, Note_on_c, 2, 62, 87
4, 23808, Note_on_c, 2, 65, 87
4, 23856, Note_off_c, 2, 72, 64
4, 23856, Note_on_c, 2, 71, 87
4, 23948, Note_off_c, 2, 71, 64
4, 24000, Note_on_c, 2, 71, 87
4, 24092, Note_off_c, 2, 71, 64
4, 24188, Note_off_c, 2, 62, 64
4, 24188, Note_off_c, 2, 65, 64
4, 24192, Note_on_c, 2, 64, 87
4, 24192, Note_on_c, 2, 60, 87
4, 24384, Note_on_c, 2, 72, 103
4, 24424, Note_off_c, 2, 72, 64
4, 24432, Note_on_c, 2, 74, 103
4, 24472, Note_off_c, 2, 74, 64
4, 24480, Note_on_c, 2, 72, 103
4, 24520, Note_off_c, 2, 72, 64
4, 24528, Note_on_c, 2, 74, 103
4, 24568, Note_off_c, 2, 74, 64
4, 24572, Note_off_c, 2, 64, 64
4, 24572, Note_off_c, 2, 60, 64
4, 24576, Note_on_c, 2, 74, 87
4, 24576, Note_on_c, 2, 71, 87
4, 24668, Note_off_c, 2, 71, 64
4, 24672, Note_on_c, 2, 69, 87
4, 24764, Note_off_c, 2, 69, 64
4, 24768, Note_on_c, 2, 67, 87
4, 24860, Note_off_c, 2, 67, 64
4, 24864, Note_on_c, 2, 69, 87
4, 24956, Note_off_c, 2, 74, 64
4, 24956, Note_off_c, 2, 69, 64
4, 24960, Note_on_c, 2, 71, 87
4, 24960, Note_on_c, 2, 77, 87
4, 24960, Note_on_c, 2, 79, 87
4, 25052, Note_off_c, 2, 71, 64
4, 25052, Note_off_c, 2, 77, 64
4, 25052, Note_off_c, 2, 79, 64
4, 25056, Note_on_c, 2, 72, 87
4, 25148, Note_off_c, 2, 72, 64
4, 25152, Note_on_c, 2, 74, 87
4, 25152, Note_on_c, 2, 77, 87
4, 25152, Note_on_c, 2, 79, 87
4, 25244, Note_off_c, 2, 74, 64
4, 25244, Note_off_c, 2, 77, 64
4, 25244, Note_off_c, 2, 79, 64
4, 25248, Note_on_c, 2, 71, 87
4, 25340, Note_off_c, 2, 71, 64
4, 25344, Note_on_c, 2, 76, 106
4, 25344, Note_on_c, 2, 79, 106
4, 25436, Note_off_c, 2, 76, 64
4, 25440, Note_on_c, 2, 74, 87
4, 25532, Note_off_c, 2, 74, 64
4, 25536, Note_on_c, 2, 72, 87
4, 25628, Note_off_c, 2, 72, 64
4, 25632, Note_on_c, 2, 74, 87
4, 25724, Note_off_c, 2, 74, 64
4, 25728, Note_on_c, 2, 76, 87
4, 25820, Note_off_c, 2, 76, 64
4, 25824, Note_on_c, 2, 77, 87
4, 25916, Note_off_c, 2, 79, 64
4, 25916, Note_off_c, 2, 77, 64
4, 25920, Note_on_c, 2, 79, 87
4, 25920, Note_on_c, 2, 84, 87
4, 26012, Note_off_c, 2, 79, 64
4, 26016, Note_on_c, 2, 76, 87
4, 26108, Note_off_c, 2, 84, 64
4, 26108, Note_off_c, 2, 76, 64
4, 26112, Note_on_c, 2, 74, 87
4, 26112, Note_on_c, 2, 83, 87
4, 26156, Note_off_c, 2, 83, 64
4, 26160, Note_on_c, 2, 81, 87
4, 26204, Note_off_c, 2, 81, 64
4, 26216, Note_on_c, 2, 79, 87
4, 26300, Note_off_c, 2, 74, 64
4, 26304, Note_on_c, 2, 67, 87
4, 26396, Note_off_c, 2, 67, 64
4, 26400, Note_on_c, 2, 69, 87
4, 26476, Note_off_c, 2, 79, 64
4, 26492, Note_off_c, 2, 69, 64
4, 26496, Note_on_c, 2, 71, 87
4, 26496, Note_on_c, 2, 77, 87
4, 26496, Note_on_c, 2, 79, 87
4, 26588, Note_off_c, 2, 71, 64
4, 26588, Note_off_c, 2, 77, 64
4, 26588, Note_off_c, 2, 79, 64
4, 26592, Note_on_c, 2, 72, 87
4, 26684, Note_off_c, 2, 72, 64
4, 26688, Note_on_c, 2, 77, 87
4, 26688, Note_on_c, 2, 79, 87
4, 26688, Note_on_c, 2, 74, 87
4, 26780, Note_off_c, 2, 77, 64
4, 26780, Note_off_c, 2, 79, 64
4, 26780, Note_off_c, 2, 74, 64
4, 26784, Note_on_c, 2, 71, 87
4, 26876, Note_off_c, 2, 71, 64
4, 26880, Note_on_c, 2, 76, 106
4, 26880, Note_on_c, 2, 79, 106
4, 26972, Note_off_c, 2, 76, 64
4, 26976, Note_on_c, 2, 74, 87
4, 27068, Note_off_c, 2, 74, 64
4, 27072, Note_on_c, 2, 72, 87
4, 27164, Note_off_c, 2, 72, 64
4, 27168, Note_on_c, 2, 74, 87
4, 27260, Note_off_c, 2, 74, 64
4, 27264, Note_on_c, 2, 76, 87
4, 27356, Note_off_c, 2, 76, 64
4, 27360, Note_on_c, 2, 77, 87
4, 27452, Note_off_c, 2, 79, 64
4, 27452, Note_off_c, 2, 77, 64
4, 27456, Note_on_c, 2, 79, 87
4, 27456, Note_on_c, 2, 84, 87
4, 27548, Note_off_c, 2, 79, 64
4, 27552, Note_on_c, 2, 76, 87
4, 27644, Note_off_c, 2, 84, 64
4, 27644, Note_off_c, 2, 76, 64
4, 27648, Note_on_c, 2, 74, 106
4, 27648, Note_on_c, 2, 83, 106
4, 27692, Note_off_c, 2, 74, 64
4, 27692, Note_off_c, 2, 83, 64
4, 27696, Note_on_c, 2, 81, 87
4, 27748, Note_off_c, 2, 81, 64
4, 27752, Note_on_c, 2, 79, 87
4, 28028, Note_off_c, 2, 79, 64
4, 28416, Note_on_c, 2, 74, 106
4, 28416, Note_on_c, 2, 83, 106
4, 28460, Note_off_c, 2, 74, 64
4, 28460, Note_off_c, 2, 83, 64
4, 28464, Note_on_c, 2, 81, 87
4, 28516, Note_off_c, 2, 81, 64
4, 28520, Note_on_c, 2, 79, 87
4, 28796, Note_off_c, 2, 79, 64
4, 29184, Note_on_c, 2, 67, 57
4, 29372, Note_off_c, 2, 67, 64
4, 29376, Note_on_c, 2, 66, 57
4, 29564, Note_off_c, 2, 66, 64
4, 29568, Note_on_c, 2, 67, 57
4, 29756, Note_off_c, 2, 67, 64
4, 29760, Note_on_c, 2, 66, 57
4, 29948, Note_off_c, 2, 66, 64
4, 29952, Note_on_c, 2, 67, 57
4, 30524, Note_off_c, 2, 67, 64
4, 30528, Note_on_c, 2, 64, 57
4, 30716, Note_off_c, 2, 64, 64
4, 30720, Note_on_c, 2, 60, 57
4, 30812, Note_off_c, 2, 60, 64
4, 31104, Note_on_c, 2, 62, 57
4, 31196, Note_off_c, 2, 62, 64
4, 31488, Note_on_c, 2, 65, 57
4, 31532, Note_off_c, 2, 65, 64
4, 31536, Note_on_c, 2, 64, 57
4, 31584, Note_off_c, 2, 64, 64
4, 31872, Note_on_c, 2, 62, 57
4, 31964, Note_off_c, 2, 62, 64
4, 32256, Note_on_c, 2, 67, 57
4, 32444, Note_off_c, 2, 67, 64
4, 32448, Note_on_c, 2, 66, 57
4, 32636, Note_off_c, 2, 66, 64
4, 32640, Note_on_c, 2, 67, 57
4, 32828, Note_off_c, 2, 67, 64
4, 32832, Note_on_c, 2, 66, 57
4, 33020, Note_off_c, 2, 66, 64
4, 33024, Note_on_c, 2, 67, 57
4, 33596, Note_off_c, 2, 67, 64
4, 33600, Note_on_c, 2, 69, 57
4, 33788, Note_off_c, 2, 69, 64
4, 33792, Note_on_c, 2, 62, 58
4, 33792, Note_on_c, 2, 59, 58
4, 33884, Note_off_c, 2, 62, 64
4, 33884, Note_off_c, 2, 59, 64
4, 34176, Note_on_c, 2, 64, 64
4, 34176, Note_on_c, 2, 60, 64
4, 34268, Note_off_c, 2, 64, 64
4, 34268, Note_off_c, 2, 60, 64
4, 34560, Note_on_c, 2, 67, 75
4, 34560, Note_on_c, 2, 64, 75
4, 34604, Note_off_c, 2, 67, 64
4, 34604, Note_off_c, 2, 64, 64
4, 34608, Note_on_c, 2, 65, 75
4, 34608, Note_on_c, 2, 62, 75
4, 34656, Note_off_c, 2, 65, 64
4, 34656, Note_off_c, 2, 62, 64
4, 34944, Note_on_c, 2, 64, 81
4, 34944, Note_on_c, 2, 60, 81
4, 35036, Note_off_c, 2, 64, 64
4, 35036, Note_off_c, 2, 60, 64
4, 35328, Note_on_c, 2, 84, 97
4, 35328, Note_on_c, 2, 79, 97
4, 35328, Note_on_c, 2, 72, 97
4, 35900, Note_off_c, 2, 84, 64
4, 35900, Note_off_c, 2, 79, 64
4, 35900, Note_off_c, 2, 72, 64
4, 35904, Note_on_c, 2, 79, 108
4, 35944, Note_off_c, 2, 79, 64
4, 35952, Note_on_c, 2, 81, 108
4, 35992, Note_off_c, 2, 81, 64
4, 36000, Note_on_c, 2, 78, 108
4, 36040, Note_off_c, 2, 78, 64
4, 36048, Note_on_c, 2, 79, 108
4, 36088, Note_off_c, 2, 79, 64
4, 36096, Note_on_c, 2, 76, 87
4, 36188, Note_off_c, 2, 76, 64
4, 36288, Note_on_c, 2, 72, 87
4, 36380, Note_off_c, 2, 72, 64
4, 36480, Note_on_c, 2, 82, 87
4, 36572, Note_off_c, 2, 82, 64
4, 36672, Note_on_c, 2, 79, 87
4, 36764, Note_off_c, 2, 79, 64
4, 36864, Note_on_c, 2, 77, 97
4, 36864, Note_on_c, 2, 81, 97
4, 37436, Note_off_c, 2, 77, 64
4, 37436, Note_off_c, 2, 81, 64
4, 37440, Note_on_c, 2, 77, 108
4, 37480, Note_off_c, 2, 77, 64
4, 37488, Note_on_c, 2, 79, 108
4, 37528, Note_off_c, 2, 79, 64
4, 37536, Note_on_c, 2, 76, 108
4, 37576, Note_off_c, 2, 76, 64
4, 37584, Note_on_c, 2, 77, 108
4, 37624, Note_off_c, 2, 77, 64
4, 37632, Note_on_c, 2, 74, 87
4, 37724, Note_off_c, 2, 74, 64
4, 37824, Note_on_c, 2, 69, 87
4, 37916, Note_off_c, 2, 69, 64
4, 38016, Note_on_c, 2, 77, 87
4, 38016, Note_on_c, 2, 81, 87
4, 38108, Note_off_c, 2, 77, 64
4, 38108, Note_off_c, 2, 81, 64
4, 38208, Note_on_c, 2, 77, 87
4, 38208, Note_on_c, 2, 74, 87
4, 38300, Note_off_c, 2, 77, 64
4, 38300, Note_off_c, 2, 74, 64
4, 38400, Note_on_c, 2, 76, 87
4, 38400, Note_on_c, 2, 72, 87
4, 38488, Note_off_c, 2, 76, 64
4, 38488, Note_off_c, 2, 72, 64
4, 38496, Note_on_c, 2, 77, 87
4, 38496, Note_on_c, 2, 74, 87
4, 38584, Note_off_c, 2, 77, 64
4, 38584, Note_off_c, 2, 74, 64
4, 38592, Note_on_c, 2, 79, 87
4, 38592, Note_on_c, 2, 76, 87
4, 38652, Note_off_c, 2, 79, 64
4, 38652, Note_off_c, 2, 76, 64
4, 38784, Note_on_c, 2, 79, 97
4, 38784, Note_on_c, 2, 76, 97
4, 39356, Note_off_c, 2, 79, 64
4, 39356, Note_off_c, 2, 76, 64
4, 39360, Note_on_c, 2, 77, 87
4, 39360, Note_on_c, 2, 74, 87
4, 39452, Note_off_c, 2, 77, 64
4, 39452, Note_off_c, 2, 74, 64
4, 39552, Note_on_c, 2, 76, 87
4, 39552, Note_on_c, 2, 72, 87
4, 39644, Note_off_c, 2, 76, 64
4, 39644, Note_off_c, 2, 72, 64
4, 39744, Note_on_c, 2, 74, 87
4, 39744, Note_on_c, 2, 71, 87
4, 39836, Note_off_c, 2, 74, 64
4, 39836, Note_off_c, 2, 71, 64
4, 39936, Note_on_c, 2, 84, 100
4, 39936, Note_on_c, 2, 79, 100
4, 39936, Note_on_c, 2, 72, 100
4, 40508, Note_off_c, 2, 84, 64
4, 40508, Note_off_c, 2, 79, 64
4, 40508, Note_off_c, 2, 72, 64
4, 40512, Note_on_c, 2, 79, 108
4, 40552, Note_off_c, 2, 79, 64
4, 40560, Note_on_c, 2, 81, 108
4, 40600, Note_off_c, 2, 81, 64
4, 40608, Note_on_c, 2, 78, 108
4, 40648, Note_off_c, 2, 78, 64
4, 40656, Note_on_c, 2, 79, 108
4, 40696, Note_off_c, 2, 79, 64
4, 40704, Note_on_c, 2, 76, 87
4, 40792, Note_off_c, 2, 76, 64
4, 40896, Note_on_c, 2, 72, 87
4, 40984, Note_off_c, 2, 72, 64
4, 41088, Note_on_c, 2, 82, 87
4, 41180, Note_off_c, 2, 82, 64
4, 41280, Note_on_c, 2, 79, 87
4, 41372, Note_off_c, 2, 79, 64
4, 41472, Note_on_c, 2, 77, 100
4, 41472, Note_on_c, 2, 81, 100
4, 42044, Note_off_c, 2, 77, 64
4, 42044, Note_off_c, 2, 81, 64
4, 42048, Note_on_c, 2, 77, 108
4, 42088, Note_off_c, 2, 77, 64
4, 42096, Note_on_c, 2, 79, 108
4, 42136, Note_off_c, 2, 79, 64
4, 42144, Note_on_c, 2, 76, 108
4, 42184, Note_off_c, 2, 76, 64
4, 42192, Note_on_c, 2, 77, 108
4, 42232, Note_off_c, 2, 77, 64
4, 42240, Note_on_c, 2, 74, 87
4, 42328, Note_off_c, 2, 74, 64
4, 42432, Note_on_c, 2, 69, 87
4, 42520, Note_off_c, 2, 69, 64
4, 42624, Note_on_c, 2, 77, 87
4, 42624, Note_on_c, 2, 81, 87
4, 42716, Note_off_c, 2, 77, 64
4, 42716, Note_off_c, 2, 81, 64
4, 42816, Note_on_c, 2, 77, 87
4, 42816, Note_on_c, 2, 74, 87
4, 42908, Note_off_c, 2, 77, 64
4, 42908, Note_off_c, 2, 74, 64
4, 43008, Note_on_c, 2, 76, 87
4, 43008, Note_on_c, 2, 72, 87
4, 43100, Note_off_c, 2, 76, 64
4, 43100, Note_off_c, 2, 72, 64
4, 43104, Note_on_c, 2, 77, 87
4, 43104, Note_on_c, 2, 74, 87
4, 43196, Note_off_c, 2, 77, 64
4, 43196, Note_off_c, 2, 74, 64
4, 43200, Note_on_c, 2, 79, 87
4, 43200, Note_on_c, 2, 76, 87
4, 43244, Note_off_c, 2, 79, 64
4, 43244, Note_off_c, 2, 76, 64
4, 43392, Note_on_c, 2, 79, 100
4, 43392, Note_on_c, 2, 76, 100
4, 43964, Note_off_c, 2, 79, 64
4, 43964, Note_off_c, 2, 76, 64
4, 43968, Note_on_c, 2, 77, 87
4, 43968, Note_on_c, 2, 74, 87
4, 44060, Note_off_c, 2, 77, 64
4, 44060, Note_off_c, 2, 74, 64
4, 44160, Note_on_c, 2, 76, 87
4, 44160, Note_on_c, 2, 72, 87
4, 44252, Note_off_c, 2, 76, 64
4, 44252, Note_off_c, 2, 72, 64
4, 44352, Note_on_c, 2, 74, 87
4, 44352, Note_on_c, 2, 71, 87
4, 44444, Note_off_c, 2, 74, 64
4, 44444, Note_off_c, 2, 71, 64
4, 44544, Note_on_c, 2, 72, 87
4, 44924, Note_off_c, 2, 72, 64
4, 44928, Note_on_c, 2, 60, 60
4, 45020, Note_off_c, 2, 60, 64
4, 45120, Note_on_c, 2, 62, 60
4, 45120, Note_on_c, 2, 59, 60
4, 45212, Note_off_c, 2, 62, 64
4, 45212, Note_off_c, 2, 59, 64
4, 45312, Note_on_c, 2, 64, 60
4, 45312, Note_on_c, 2, 60, 60
4, 45692, Note_off_c, 2, 64, 64
4, 45692, Note_off_c, 2, 60, 64
4, 45696, Note_on_c, 2, 64, 60
4, 45696, Note_on_c, 2, 60, 60
4, 45788, Note_off_c, 2, 64, 64
4, 45788, Note_off_c, 2, 60, 64
4, 45888, Note_on_c, 2, 65, 60
4, 45888, Note_on_c, 2, 62, 60
4, 45980, Note_off_c, 2, 65, 64
4, 45980, Note_off_c, 2, 62, 64
4, 46080, Note_on_c, 2, 67, 60
4, 46080, Note_on_c, 2, 64, 60
4, 46172, Note_off_c, 2, 67, 64
4, 46172, Note_off_c, 2, 64, 64
4, 46272, Note_on_c, 2, 69, 60
4, 46272, Note_on_c, 2, 65, 60
4, 46316, Note_off_c, 2, 69, 64
4, 46316, Note_off_c, 2, 65, 64
4, 46320, Note_on_c, 2, 67, 60
4, 46320, Note_on_c, 2, 64, 60
4, 46364, Note_off_c, 2, 67, 64
4, 46364, Note_off_c, 2, 64, 64
4, 46368, Note_on_c, 2, 66, 60
4, 46368, Note_on_c, 2, 62, 60
4, 46460, Note_off_c, 2, 66, 64
4, 46460, Note_off_c, 2, 62, 64
4, 46464, Note_on_c, 2, 67, 60
4, 46464, Note_on_c, 2, 64, 60
4, 46556, Note_off_c, 2, 67, 64
4, 46556, Note_off_c, 2, 64, 64
4, 46656, Note_on_c, 2, 69, 60
4, 46656, Note_on_c, 2, 65, 60
4, 46748, Note_off_c, 2, 69, 64
4, 46748, Note_off_c, 2, 65, 64
4, 46848, Note_on_c, 2, 67, 60
4, 46848, Note_on_c, 2, 64, 60
4, 47228, Note_off_c, 2, 67, 64
4, 47228, Note_off_c, 2, 64, 64
4, 47232, Note_on_c, 2, 65, 60
4, 47232, Note_on_c, 2, 62, 60
4, 47420, Note_off_c, 2, 65, 64
4, 47420, Note_off_c, 2, 62, 64
4, 47616, Note_on_c, 2, 65, 60
4, 47616, Note_on_c, 2, 62, 60
4, 47708, Note_off_c, 2, 65, 64
4, 47708, Note_off_c, 2, 62, 64
4, 47808, Note_on_c, 2, 67, 60
4, 47808, Note_on_c, 2, 64, 60
4, 47852, Note_off_c, 2, 67, 64
4, 47852, Note_off_c, 2, 64, 64
4, 47856, Note_on_c, 2, 65, 60
4, 47856, Note_on_c, 2, 62, 60
4, 47900, Note_off_c, 2, 65, 64
4, 47900, Note_off_c, 2, 62, 64
4, 47904, Note_on_c, 2, 64, 60
4, 47904, Note_on_c, 2, 61, 60
4, 47996, Note_off_c, 2, 64, 64
4, 47996, Note_off_c, 2, 61, 64
4, 48000, Note_on_c, 2, 65, 60
4, 48000, Note_on_c, 2, 62, 60
4, 48092, Note_off_c, 2, 65, 64
4, 48092, Note_off_c, 2, 62, 64
4, 48192, Note_on_c, 2, 67, 60
4, 48192, Note_on_c, 2, 64, 60
4, 48284, Note_off_c, 2, 67, 64
4, 48284, Note_off_c, 2, 64, 64
4, 48384, Note_on_c, 2, 65, 60
4, 48384, Note_on_c, 2, 62, 60
4, 48764, Note_off_c, 2, 65, 64
4, 48764, Note_off_c, 2, 62, 64
4, 48768, Note_on_c, 2, 64, 60
4, 48768, Note_on_c, 2, 60, 60
4, 48956, Note_off_c, 2, 64, 64
4, 48956, Note_off_c, 2, 60, 64
4, 49152, Note_on_c, 2, 83, 87
4, 49152, Note_on_c, 2, 77, 87
4, 49152, Note_on_c, 2, 74, 87
4, 49340, Note_off_c, 2, 83, 64
4, 49340, Note_off_c, 2, 77, 64
4, 49340, Note_off_c, 2, 74, 64
4, 49344, Note_on_c, 2, 77, 87
4, 49344, Note_on_c, 2, 74, 87
4, 49344, Note_on_c, 2, 83, 87
4, 49724, Note_off_c, 2, 77, 64
4, 49724, Note_off_c, 2, 74, 64
4, 49724, Note_off_c, 2, 83, 64
4, 49728, Note_on_c, 2, 83, 87
4, 49728, Note_on_c, 2, 77, 87
4, 49728, Note_on_c, 2, 74, 87
4, 49916, Note_off_c, 2, 83, 64
4, 49916, Note_off_c, 2, 77, 64
4, 49916, Note_off_c, 2, 74, 64
4, 49920, Note_on_c, 2, 83, 87
4, 49920, Note_on_c, 2, 77, 87
4, 49920, Note_on_c, 2, 74, 87
4, 50108, Note_off_c, 2, 83, 64
4, 50108, Note_off_c, 2, 77, 64
4, 50108, Note_off_c, 2, 74, 64
4, 50112, Note_on_c, 2, 83, 87
4, 50112, Note_on_c, 2, 77, 87
4, 50112, Note_on_c, 2, 74, 87
4, 50492, Note_off_c, 2, 83, 64
4, 50492, Note_off_c, 2, 77, 64
4, 50492, Note_off_c, 2, 74, 64
4, 50496, Note_on_c, 2, 83, 87
4, 50496, Note_on_c, 2, 77, 87
4, 50496, Note_on_c, 2, 74, 87
4, 50684, Note_off_c, 2, 83, 64
4, 50684, Note_off_c, 2, 77, 64
4, 50684, Note_off_c, 2, 74, 64
4, 50688, Note_on_c, 2, 76, 87
4, 50688, Note_on_c, 2, 72, 87
4, 50688, Note_on_c, 2, 84, 87
4, 51068, Note_off_c, 2, 76, 64
4, 51068, Note_off_c, 2, 72, 64
4, 51068, Note_off_c, 2, 84, 64
4, 51072, Note_on_c, 2, 79, 87
4, 51164, Note_off_c, 2, 79, 64
4, 51168, Note_on_c, 2, 76, 87
4, 51260, Note_off_c, 2, 76, 64
4, 51264, Note_on_c, 2, 79, 87
4, 51356, Note_off_c, 2, 79, 64
4, 51360, Note_on_c, 2, 76, 87
4, 51452, Note_off_c, 2, 76, 64
4, 51456, Note_on_c, 2, 74, 87
4, 51644, Note_off_c, 2, 74, 64
4, 51648, Note_on_c, 2, 77, 87
4, 51836, Note_off_c, 2, 77, 64
4, 51840, Note_on_c, 2, 74, 87
4, 51932, Note_off_c, 2, 74, 64
4, 51936, Note_on_c, 2, 71, 87
4, 52028, Note_off_c, 2, 71, 64
4, 52032, Note_on_c, 2, 74, 87
4, 52124, Note_off_c, 2, 74, 64
4, 52128, Note_on_c, 2, 71, 87
4, 52220, Note_off_c, 2, 71, 64
4, 52224, Note_on_c, 2, 79, 87
4, 52224, Note_on_c, 2, 72, 87
4, 52412, Note_off_c, 2, 79, 64
4, 52412, Note_off_c, 2, 72, 64
4, 52416, Note_on_c, 2, 84, 87
4, 52604, Note_off_c, 2, 84, 64
4, 52608, Note_on_c, 2, 76, 87
4, 52700, Note_off_c, 2, 76, 64
4, 52704, Note_on_c, 2, 72, 87
4, 52796, Note_off_c, 2, 72, 64
4, 52800, Note_on_c, 2, 76, 87
4, 52892, Note_off_c, 2, 76, 64
4, 52896, Note_on_c, 2, 72, 87
4, 52988, Note_off_c, 2, 72, 64
4, 52992, Note_on_c, 2, 74, 87
4, 53180, Note_off_c, 2, 74, 64
4, 53184, Note_on_c, 2, 77, 87
4, 53372, Note_off_c, 2, 77, 64
4, 53376, Note_on_c, 2, 74, 87
4, 53468, Note_off_c, 2, 74, 64
4, 53472, Note_on_c, 2, 71, 87
4, 53564, Note_off_c, 2, 71, 64
4, 53568, Note_on_c, 2, 74, 87
4, 53660, Note_off_c, 2, 74, 64
4, 53664, Note_on_c, 2, 71, 87
4, 53756, Note_off_c, 2, 71, 64
4, 53760, Note_on_c, 2, 72, 87
4, 54140, Note_off_c, 2, 72, 64
4, 54144, Note_on_c, 2, 76, 87
4, 54236, Note_off_c, 2, 76, 64
4, 54240, Note_on_c, 2, 72, 87
4, 54332, Note_off_c, 2, 72, 64
4, 54336, Note_on_c, 2, 76, 87
4, 54428, Note_off_c, 2, 76, 64
4, 54432, Note_on_c, 2, 72, 87
4, 54524, Note_off_c, 2, 72, 64
4, 54528, Note_on_c, 2, 67, 87
4, 54716, Note_off_c, 2, 67, 64
4, 54720, Note_on_c, 2, 72, 87
4, 54908, Note_off_c, 2, 72, 64
4, 54912, Note_on_c, 2, 67, 87
4, 55004, Note_off_c, 2, 67, 64
4, 55008, Note_on_c, 2, 64, 87
4, 55100, Note_off_c, 2, 64, 64
4, 55104, Note_on_c, 2, 67, 87
4, 55196, Note_off_c, 2, 67, 64
4, 55200, Note_on_c, 2, 64, 87
4, 55292, Note_off_c, 2, 64, 64
4, 55296, Note_on_c, 2, 60, 87
4, 56060, Note_off_c, 2, 60, 64
4, 56064, Note_on_c, 2, 64, 87
4, 56252, Note_off_c, 2, 64, 64
4, 56448, Note_on_c, 2, 67, 87
4, 56636, Note_off_c, 2, 67, 64
4, 56832, Note_on_c, 2, 72, 87
4, 57212, Note_off_c, 2, 72, 64
4, 62976, Note_on_c, 2, 79, 55
4, 66428, Note_off_c, 2, 79, 64
4, 66432, Note_on_c, 2, 67, 73
4, 66432, Note_on_c, 2, 64, 73
4, 66812, Note_off_c, 2, 67, 64
4, 66812, Note_off_c, 2, 64, 64
4, 66816, Note_on_c, 2, 67, 73
4, 66816, Note_on_c, 2, 64, 73
4, 67004, Note_off_c, 2, 67, 64
4, 67004, Note_off_c, 2, 64, 64
4, 67008, Note_on_c, 2, 65, 73
4, 67008, Note_on_c, 2, 62, 73
4, 67196, Note_off_c, 2, 65, 64
4, 67196, Note_off_c, 2, 62, 64
4, 67200, Note_on_c, 2, 64, 73
4, 67200, Note_on_c, 2, 60, 73
4, 67292, Note_off_c, 2, 64, 64
4, 67292, Note_off_c, 2, 60, 64
4, 67392, Note_on_c, 2, 62, 73
4, 67392, Note_on_c, 2, 59, 73
4, 67484, Note_off_c, 2, 62, 64
4, 67484, Note_off_c, 2, 59, 64
4, 67584, Note_on_c, 2, 60, 73
4, 67964, Note_off_c, 2, 60, 64
4, 69120, Note_on_c, 2, 79, 57
4, 72192, Note_on_c, 2, 79, 73
4, 72572, Note_off_c, 2, 79, 64
4, 72572, Note_off_c, 2, 79, 64
4, 72576, Note_on_c, 2, 67, 73
4, 72576, Note_on_c, 2, 64, 73
4, 72956, Note_off_c, 2, 67, 64
4, 72956, Note_off_c, 2, 64, 64
4, 72960, Note_on_c, 2, 67, 68
4, 72960, Note_on_c, 2, 64, 68
4, 73148, Note_off_c, 2, 67, 64
4, 73148, Note_off_c, 2, 64, 64
4, 73152, Note_on_c, 2, 65, 64
4, 73152, Note_on_c, 2, 62, 64
4, 73340, Note_off_c, 2, 65, 64
4, 73340, Note_off_c, 2, 62, 64
4, 73344, Note_on_c, 2, 64, 63
4, 73344, Note_on_c, 2, 60, 63
4, 73436, Note_off_c, 2, 64, 64
4, 73436, Note_off_c, 2, 60, 64
4, 73536, Note_on_c, 2, 62, 58
4, 73536, Note_on_c, 2, 59, 58
4, 73628, Note_off_c, 2, 62, 64
4, 73628, Note_off_c, 2, 59, 64
4, 73728, Note_on_c, 2, 60, 87
4, 73916, Note_off_c, 2, 60, 64
4, 74112, Note_on_c, 2, 72, 87
4, 74204, Note_off_c, 2, 72, 64
4, 74304, Note_on_c, 2, 70, 87
4, 74396, Note_off_c, 2, 70, 64
4, 74496, Note_on_c, 2, 69, 87
4, 74684, Note_off_c, 2, 69, 64
4, 74784, Note_on_c, 2, 72, 87
4, 74876, Note_off_c, 2, 72, 64
4, 74880, Note_on_c, 2, 77, 87
4, 74972, Note_off_c, 2, 77, 64
4, 74976, Note_on_c, 2, 72, 87
4, 75068, Note_off_c, 2, 72, 64
4, 75072, Note_on_c, 2, 77, 87
4, 75164, Note_off_c, 2, 77, 64
4, 75168, Note_on_c, 2, 81, 87
4, 75260, Note_off_c, 2, 81, 64
4, 75264, Note_on_c, 2, 76, 87
4, 75264, Note_on_c, 2, 79, 87
4, 75452, Note_off_c, 2, 79, 64
4, 75456, Note_on_c, 2, 84, 87
4, 75644, Note_off_c, 2, 76, 64
4, 75644, Note_off_c, 2, 84, 64
4, 75648, Note_on_c, 2, 72, 87
4, 75740, Note_off_c, 2, 72, 64
4, 75840, Note_on_c, 2, 70, 87
4, 75932, Note_off_c, 2, 70, 64
4, 76032, Note_on_c, 2, 69, 87
4, 76220, Note_off_c, 2, 69, 64
4, 76320, Note_on_c, 2, 72, 87
4, 76412, Note_off_c, 2, 72, 64
4, 76416, Note_on_c, 2, 77, 87
4, 76508, Note_off_c, 2, 77, 64
4, 76512, Note_on_c, 2, 72, 87
4, 76604, Note_off_c, 2, 72, 64
4, 76608, Note_on_c, 2, 77, 87
4, 76700, Note_off_c, 2, 77, 64
4, 76704, Note_on_c, 2, 81, 87
4, 76796, Note_off_c, 2, 81, 64
4, 76800, Note_on_c, 2, 79, 87
4, 76800, Note_on_c, 2, 76, 87
4, 77180, Note_off_c, 2, 79, 64
4, 77180, Note_off_c, 2, 76, 64
4, 80256, Note_on_c, 2, 72, 60
4, 80256, Note_on_c, 2, 67, 60
4, 80256, Note_on_c, 2, 64, 60
4, 80444, Note_off_c, 2, 72, 64
4, 80444, Note_off_c, 2, 67, 64
4, 80444, Note_off_c, 2, 64, 64
4, 80448, Note_on_c, 2, 76, 60
4, 80448, Note_on_c, 2, 60, 60
4, 80636, Note_off_c, 2, 76, 64
4, 80636, Note_off_c, 2, 60, 64
4, 80640, Note_on_c, 2, 72, 75
4, 80640, Note_on_c, 2, 69, 75
4, 80832, Note_on_c, 2, 77, 57
4, 80924, Note_off_c, 2, 77, 64
4, 81020, Note_off_c, 2, 72, 64
4, 81020, Note_off_c, 2, 69, 64
4, 81024, Note_on_c, 2, 71, 57
4, 81024, Note_on_c, 2, 67, 57
4, 81216, Note_on_c, 2, 76, 57
4, 81308, Note_off_c, 2, 76, 64
4, 81404, Note_off_c, 2, 71, 64
4, 81404, Note_off_c, 2, 67, 64
4, 81408, Note_on_c, 2, 69, 70
4, 81408, Note_on_c, 2, 65, 70
4, 81600, Note_on_c, 2, 74, 57
4, 81692, Note_off_c, 2, 74, 64
4, 81788, Note_off_c, 2, 69, 64
4, 81788, Note_off_c, 2, 65, 64
4, 81792, Note_on_c, 2, 67, 57
4, 81792, Note_on_c, 2, 64, 57
4, 81984, Note_on_c, 2, 72, 57
4, 82076, Note_off_c, 2, 72, 64
4, 82172, Note_off_c, 2, 67, 64
4, 82172, Note_off_c, 2, 64, 64
4, 82176, Note_on_c, 2, 65, 70
4, 82176, Note_on_c, 2, 62, 70
4, 82368, Note_on_c, 2, 71, 57
4, 82460, Note_off_c, 2, 71, 64
4, 82556, Note_off_c, 2, 65, 64
4, 82556, Note_off_c, 2, 62, 64
4, 82560, Note_on_c, 2, 64, 73
4, 82560, Note_on_c, 2, 60, 73
4, 82560, Note_on_c, 2, 72, 73
4, 82652, Note_off_c, 2, 72, 64
4, 82748, Note_off_c, 2, 64, 64
4, 82748, Note_off_c, 2, 60, 64
4, 82752, Note_on_c, 2, 60, 87
4, 82752, Note_on_c, 2, 76, 87
4, 82844, Note_off_c, 2, 60, 64
4, 82844, Note_off_c, 2, 76, 64
4, 82944, Note_on_c, 2, 74, 87
4, 82944, Note_on_c, 2, 71, 87
4, 83036, Note_off_c, 2, 71, 64
4, 83040, Note_on_c, 2, 69, 87
4, 83132, Note_off_c, 2, 69, 64
4, 83136, Note_on_c, 2, 67, 87
4, 83228, Note_off_c, 2, 67, 64
4, 83232, Note_on_c, 2, 69, 87
4, 83324, Note_off_c, 2, 74, 64
4, 83324, Note_off_c, 2, 69, 64
4, 83328, Note_on_c, 2, 71, 87
4, 83328, Note_on_c, 2, 77, 87
4, 83328, Note_on_c, 2, 79, 87
4, 83420, Note_off_c, 2, 71, 64
4, 83420, Note_off_c, 2, 77, 64
4, 83420, Note_off_c, 2, 79, 64
4, 83424, Note_on_c, 2, 72, 87
4, 83516, Note_off_c, 2, 72, 64
4, 83520, Note_on_c, 2, 74, 87
4, 83520, Note_on_c, 2, 77, 87
4, 83520, Note_on_c, 2, 79, 87
4, 83612, Note_off_c, 2, 74, 64
4, 83612, Note_off_c, 2, 77, 64
4, 83612, Note_off_c, 2, 79, 64
4, 83616, Note_on_c, 2, 71, 87
4, 83708, Note_off_c, 2, 71, 64
4, 83712, Note_on_c, 2, 79, 100
4, 83712, Note_on_c, 2, 76, 100
4, 83804, Note_off_c, 2, 76, 64
4, 83808, Note_on_c, 2, 74, 87
4, 83900, Note_off_c, 2, 74, 64
4, 83904, Note_on_c, 2, 72, 87
4, 83996, Note_off_c, 2, 72, 64
4, 84000, Note_on_c, 2, 74, 87
4, 84092, Note_off_c, 2, 74, 64
4, 84096, Note_on_c, 2, 76, 87
4, 84188, Note_off_c, 2, 76, 64
4, 84192, Note_on_c, 2, 77, 87
4, 84284, Note_off_c, 2, 79, 64
4, 84284, Note_off_c, 2, 77, 64
4, 84288, Note_on_c, 2, 79, 87
4, 84288, Note_on_c, 2, 84, 87
4, 84380, Note_off_c, 2, 79, 64
4, 84384, Note_on_c, 2, 76, 87
4, 84476, Note_off_c, 2, 84, 64
4, 84476, Note_off_c, 2, 76, 64
4, 84480, Note_on_c, 2, 74, 112
4, 84480, Note_on_c, 2, 83, 112
4, 84524, Note_off_c, 2, 83, 64
4, 84528, Note_on_c, 2, 81, 88
4, 84580, Note_off_c, 2, 81, 64
4, 84584, Note_on_c, 2, 79, 88
4, 84668, Note_off_c, 2, 74, 64
4, 84672, Note_on_c, 2, 67, 88
4, 84764, Note_off_c, 2, 67, 64
4, 84768, Note_on_c, 2, 69, 88
4, 84860, Note_off_c, 2, 79, 64
4, 84860, Note_off_c, 2, 69, 64
4, 84864, Note_on_c, 2, 71, 88
4, 84864, Note_on_c, 2, 77, 88
4, 84864, Note_on_c, 2, 79, 88
4, 84956, Note_off_c, 2, 71, 64
4, 84956, Note_off_c, 2, 77, 64
4, 84956, Note_off_c, 2, 79, 64
4, 84960, Note_on_c, 2, 72, 88
4, 85052, Note_off_c, 2, 72, 64
4, 85056, Note_on_c, 2, 74, 88
4, 85056, Note_on_c, 2, 77, 88
4, 85056, Note_on_c, 2, 79, 88
4, 85148, Note_off_c, 2, 74, 64
4, 85148, Note_off_c, 2, 77, 64
4, 85148, Note_off_c, 2, 79, 64
4, 85152, Note_on_c, 2, 71, 88
4, 85244, Note_off_c, 2, 71, 64
4, 85248, Note_on_c, 2, 76, 100
4, 85248, Note_on_c, 2, 79, 100
4, 85340, Note_off_c, 2, 76, 64
4, 85344, Note_on_c, 2, 74, 87
4, 85436, Note_off_c, 2, 74, 64
4, 85440, Note_on_c, 2, 72, 87
4, 85532, Note_off_c, 2, 72, 64
4, 85536, Note_on_c, 2, 74, 87
4, 85628, Note_off_c, 2, 74, 64
4, 85632, Note_on_c, 2, 76, 87
4, 85724, Note_off_c, 2, 76, 64
4, 85728, Note_on_c, 2, 77, 87
4, 85820, Note_off_c, 2, 79, 64
4, 85820, Note_off_c, 2, 77, 64
4, 85824, Note_on_c, 2, 79, 87
4, 85824, Note_on_c, 2, 84, 87
4, 85916, Note_off_c, 2, 79, 64
4, 85920, Note_on_c, 2, 76, 87
4, 86012, Note_off_c, 2, 84, 64
4, 86012, Note_off_c, 2, 76, 64
4, 86016, Note_on_c, 2, 83, 106
4, 86016, Note_on_c, 2, 74, 106
4, 86060, Note_off_c, 2, 83, 64
4, 86064, Note_on_c, 2, 81, 87
4, 86116, Note_off_c, 2, 81, 64
4, 86120, Note_on_c, 2, 79, 87
4, 86396, Note_off_c, 2, 74, 64
4, 86396, Note_off_c, 2, 79, 64
4, 86784, Note_on_c, 2, 83, 106
4, 86784, Note_on_c, 2, 74, 106
4, 86828, Note_off_c, 2, 83, 64
4, 86832, Note_on_c, 2, 81, 87
4, 86884, Note_off_c, 2, 81, 64
4, 86888, Note_on_c, 2, 79, 87
4, 87164, Note_off_c, 2, 74, 64
4, 87164, Note_off_c, 2, 79, 64
4, 87552, Note_on_c, 2, 71, 57
4, 87552, Note_on_c, 2, 67, 57
4, 87740, Note_off_c, 2, 71, 64
4, 87740, Note_off_c, 2, 67, 64
4, 88320, Note_on_c, 2, 74, 57
4, 88320, Note_on_c, 2, 69, 57
4, 88508, Note_off_c, 2, 74, 64
4, 88508, Note_off_c, 2, 69, 64
4, 89088, Note_on_c, 2, 79, 57
4, 89088, Note_on_c, 2, 71, 57
4, 89276, Note_off_c, 2, 79, 64
4, 89276, Note_off_c, 2, 71, 64
4, 89856, Note_on_c, 2, 76, 57
4, 89856, Note_on_c, 2, 67, 57
4, 90044, Note_off_c, 2, 76, 64
4, 90044, Note_off_c, 2, 67, 64
4, 90624, Note_on_c, 2, 67, 57
4, 91388, Note_off_c, 2, 67, 64
4, 91392, Note_on_c, 2, 72, 57
4, 92156, Note_off_c, 2, 72, 64
4, 92160, Note_on_c, 2, 71, 57
4, 92540, Note_off_c, 2, 71, 64
4, 92736, Note_on_c, 2, 74, 87
4, 92828, Note_off_c, 2, 74, 64
4, 92928, Note_on_c, 2, 72, 87
4, 93020, Note_off_c, 2, 72, 64
4, 93120, Note_on_c, 2, 69, 87
4, 93212, Note_off_c, 2, 69, 64
4, 93312, Note_on_c, 2, 66, 87
4, 93404, Note_off_c, 2, 66, 64
4, 93504, Note_on_c, 2, 62, 87
4, 93596, Note_off_c, 2, 62, 64
4, 93696, Note_on_c, 2, 71, 57
4, 93696, Note_on_c, 2, 62, 57
4, 93884, Note_off_c, 2, 71, 64
4, 93884, Note_off_c, 2, 62, 64
4, 94464, Note_on_c, 2, 69, 57
4, 94464, Note_on_c, 2, 62, 57
4, 94652, Note_off_c, 2, 69, 64
4, 94652, Note_off_c, 2, 62, 64
4, 95232, Note_on_c, 2, 67, 57
4, 95232, Note_on_c, 2, 59, 57
4, 95420, Note_off_c, 2, 67, 64
4, 95420, Note_off_c, 2, 59, 64
4, 96000, Note_on_c, 2, 76, 57
4, 96000, Note_on_c, 2, 67, 57
4, 96188, Note_off_c, 2, 76, 64
4, 96188, Note_off_c, 2, 67, 64
4, 96768, Note_on_c, 2, 74, 57
4, 96768, Note_on_c, 2, 71, 57
4, 97148, Note_off_c, 2, 74, 64
4, 97148, Note_off_c, 2, 71, 64
4, 97152, Note_on_c, 2, 71, 57
4, 97152, Note_on_c, 2, 67, 57
4, 97532, Note_off_c, 2, 71, 64
4, 97532, Note_off_c, 2, 67, 64
4, 97536, Note_on_c, 2, 72, 57
4, 97536, Note_on_c, 2, 69, 57
4, 97916, Note_off_c, 2, 72, 64
4, 97916, Note_off_c, 2, 69, 64
4, 97920, Note_on_c, 2, 69, 57
4, 97920, Note_on_c, 2, 66, 57
4, 98300, Note_off_c, 2, 69, 64
4, 98300, Note_off_c, 2, 66, 64
4, 98304, Note_on_c, 2, 71, 57
4, 98304, Note_on_c, 2, 67, 57
4, 98684, Note_off_c, 2, 71, 64
4, 98684, Note_off_c, 2, 67, 64
4, 98688, Note_on_c, 2, 78, 63
4, 98732, Note_off_c, 2, 78, 64
4, 98736, Note_on_c, 2, 79, 63
4, 98828, Note_off_c, 2, 79, 64
4, 99072, Note_on_c, 2, 78, 63
4, 99116, Note_off_c, 2, 78, 64
4, 99120, Note_on_c, 2, 79, 63
4, 99212, Note_off_c, 2, 79, 64
4, 99456, Note_on_c, 2, 78, 63
4, 99500, Note_off_c, 2, 78, 64
4, 99504, Note_on_c, 2, 79, 63
4, 99596, Note_off_c, 2, 79, 64
4, 100224, Note_on_c, 2, 78, 63
4, 100268, Note_off_c, 2, 78, 64
4, 100272, Note_on_c, 2, 79, 63
4, 100364, Note_off_c, 2, 79, 64
4, 100608, Note_on_c, 2, 78, 63
4, 100652, Note_off_c, 2, 78, 64
4, 100656, Note_on_c, 2, 79, 63
4, 100748, Note_off_c, 2, 79, 64
4, 100992, Note_on_c, 2, 78, 63
4, 101036, Note_off_c, 2, 78, 64
4, 101040, Note_on_c, 2, 79, 63
4, 101132, Note_off_c, 2, 79, 64
4, 101760, Note_on_c, 2, 78, 63
4, 101804, Note_off_c, 2, 78, 64
4, 101808, Note_on_c, 2, 79, 63
4, 101900, Note_off_c, 2, 79, 64
4, 102144, Note_on_c, 2, 78, 63
4, 102188, Note_off_c, 2, 78, 64
4, 102192, Note_on_c, 2, 79, 63
4, 102284, Note_off_c, 2, 79, 64
4, 102528, Note_on_c, 2, 78, 63
4, 102572, Note_off_c, 2, 78, 64
4, 102576, Note_on_c, 2, 79, 63
4, 102668, Note_off_c, 2, 79, 64
4, 103296, Note_on_c, 2, 78, 63
4, 103340, Note_off_c, 2, 78, 64
4, 103344, Note_on_c, 2, 79, 63
4, 103436, Note_off_c, 2, 79, 64
4, 103680, Note_on_c, 2, 78, 63
4, 103724, Note_off_c, 2, 78, 64
4, 103728, Note_on_c, 2, 79, 63
4, 103820, Note_off_c, 2, 79, 64
4, 104064, Note_on_c, 2, 78, 63
4, 104108, Note_off_c, 2, 78, 64
4, 104112, Note_on_c, 2, 79, 63
4, 104204, Note_off_c, 2, 79, 64
4, 104832, Note_on_c, 2, 78, 63
4, 104876, Note_off_c, 2, 78, 64
4, 104880, Note_on_c, 2, 79, 63
4, 104972, Note_off_c, 2, 79, 64
4, 105216, Note_on_c, 2, 74, 57
4, 105216, Note_on_c, 2, 71, 57
4, 105596, Note_off_c, 2, 74, 64
4, 105596, Note_off_c, 2, 71, 64
4, 105600, Note_on_c, 2, 71, 57
4, 105600, Note_on_c, 2, 62, 57
4, 105980, Note_off_c, 2, 71, 64
4, 105980, Note_off_c, 2, 62, 64
4, 105984, Note_on_c, 2, 69, 57
4, 105984, Note_on_c, 2, 64, 57
4, 106172, Note_off_c, 2, 69, 64
4, 106172, Note_off_c, 2, 64, 64
4, 107136, Note_on_c, 2, 67, 57
4, 107136, Note_on_c, 2, 64, 57
4, 107324, Note_off_c, 2, 67, 64
4, 107324, Note_off_c, 2, 64, 64
4, 107520, Note_on_c, 2, 66, 57
4, 107520, Note_on_c, 2, 62, 57
4, 107900, Note_off_c, 2, 66, 64
4, 107900, Note_off_c, 2, 62, 64
4, 107904, Note_on_c, 2, 69, 57
4, 107904, Note_on_c, 2, 66, 57
4, 108284, Note_off_c, 2, 69, 64
4, 108284, Note_off_c, 2, 66, 64
4, 108288, Note_on_c, 2, 71, 57
4, 108288, Note_on_c, 2, 67, 57
4, 108668, Note_off_c, 2, 71, 64
4, 108668, Note_off_c, 2, 67, 64
4, 108672, Note_on_c, 2, 74, 57
4, 108672, Note_on_c, 2, 71, 57
4, 109052, Note_off_c, 2, 74, 64
4, 109052, Note_off_c, 2, 71, 64
4, 109056, Note_on_c, 2, 66, 57
4, 109056, Note_on_c, 2, 62, 57
4, 109436, Note_off_c, 2, 66, 64
4, 109436, Note_off_c, 2, 62, 64
4, 109440, Note_on_c, 2, 69, 57
4, 109440, Note_on_c, 2, 66, 57
4, 109820, Note_off_c, 2, 69, 64
4, 109820, Note_off_c, 2, 66, 64
4, 109824, Note_on_c, 2, 71, 57
4, 109824, Note_on_c, 2, 67, 57
4, 110204, Note_off_c, 2, 71, 64
4, 110204, Note_off_c, 2, 67, 64
4, 110208, Note_on_c, 2, 74, 57
4, 110208, Note_on_c, 2, 71, 57
4, 110588, Note_off_c, 2, 74, 64
4, 110588, Note_off_c, 2, 71, 64
4, 110592, Note_on_c, 2, 69, 57
4, 110592, Note_on_c, 2, 66, 57
4, 110972, Note_off_c, 2, 69, 64
4, 110972, Note_off_c, 2, 66, 64
4, 111360, Note_on_c, 2, 62, 88
4, 111360, Note_on_c, 2, 69, 88
4, 111360, Note_on_c, 2, 78, 88
4, 111404, Note_off_c, 2, 69, 64
4, 111404, Note_off_c, 2, 78, 64
4, 111408, Note_on_c, 2, 76, 57
4, 111408, Note_on_c, 2, 67, 57
4, 111452, Note_off_c, 2, 76, 64
4, 111452, Note_off_c, 2, 67, 64
4, 111456, Note_on_c, 2, 74, 57
4, 111456, Note_on_c, 2, 66, 57
4, 111740, Note_off_c, 2, 62, 64
4, 111740, Note_off_c, 2, 74, 64
4, 111740, Note_off_c, 2, 66, 64
4, 121344, Note_on_c, 2, 79, 57
4, 121344, Note_on_c, 2, 76, 57
4, 121724, Note_off_c, 2, 79, 64
4, 121724, Note_off_c, 2, 76, 64
4, 121728, Note_on_c, 2, 76, 57
4, 121728, Note_on_c, 2, 72, 57
4, 121916, Note_off_c, 2, 76, 64
4, 121916, Note_off_c, 2, 72, 64
4, 122112, Note_on_c, 2, 76, 57
4, 122112, Note_on_c, 2, 72, 57
4, 122492, Note_off_c, 2, 76, 64
4, 122492, Note_off_c, 2, 72, 64
4, 122496, Note_on_c, 2, 72, 57
4, 122496, Note_on_c, 2, 69, 57
4, 122684, Note_off_c, 2, 72, 64
4, 122684, Note_off_c, 2, 69, 64
4, 123264, Note_on_c, 2, 64, 57
4, 123264, Note_on_c, 2, 60, 57
4, 123644, Note_off_c, 2, 64, 64
4, 123644, Note_off_c, 2, 60, 64
4, 123648, Note_on_c, 2, 67, 57
4, 123648, Note_on_c, 2, 59, 57
4, 124028, Note_off_c, 2, 67, 64
4, 124028, Note_off_c, 2, 59, 64
4, 124032, Note_on_c, 2, 71, 57
4, 124032, Note_on_c, 2, 62, 57
4, 124220, Note_off_c, 2, 71, 64
4, 124220, Note_off_c, 2, 62, 64
4, 124224, Note_on_c, 2, 69, 57
4, 124224, Note_on_c, 2, 60, 57
4, 124412, Note_off_c, 2, 69, 64
4, 124412, Note_off_c, 2, 60, 64
4, 124416, Note_on_c, 2, 67, 57
4, 124416, Note_on_c, 2, 59, 57
4, 124796, Note_off_c, 2, 67, 64
4, 124796, Note_off_c, 2, 59, 64
4, 125568, Note_on_c, 2, 79, 57
4, 125568, Note_on_c, 2, 74, 57
4, 125568, Note_on_c, 2, 71, 57
4, 125568, Note_on_c, 2, 67, 57
4, 125660, Note_off_c, 2, 79, 64
4, 125660, Note_off_c, 2, 74, 64
4, 125660, Note_off_c, 2, 71, 64
4, 125660, Note_off_c, 2, 67, 64
4, 125760, Note_on_c, 2, 79, 57
4, 125760, Note_on_c, 2, 67, 57
4, 125760, Note_on_c, 2, 76, 57
4, 125760, Note_on_c, 2, 72, 57
4, 125852, Note_off_c, 2, 79, 64
4, 125852, Note_off_c, 2, 67, 64
4, 125852, Note_off_c, 2, 76, 64
4, 125852, Note_off_c, 2, 72, 64
4, 125952, Note_on_c, 2, 79, 57
4, 125952, Note_on_c, 2, 74, 57
4, 125952, Note_on_c, 2, 71, 57
4, 125952, Note_on_c, 2, 67, 57
4, 126044, Note_off_c, 2, 79, 64
4, 126044, Note_off_c, 2, 74, 64
4, 126044, Note_off_c, 2, 71, 64
4, 126044, Note_off_c, 2, 67, 64
4, 127104, Note_on_c, 2, 79, 57
4, 127104, Note_on_c, 2, 71, 57
4, 127104, Note_on_c, 2, 67, 57
4, 127104, Note_on_c, 2, 62, 57
4, 127196, Note_off_c, 2, 79, 64
4, 127196, Note_off_c, 2, 71, 64
4, 127196, Note_off_c, 2, 67, 64
4, 127196, Note_off_c, 2, 62, 64
4, 127296, Note_on_c, 2, 79, 57
4, 127296, Note_on_c, 2, 72, 57
4, 127296, Note_on_c, 2, 67, 57
4, 127296, Note_on_c, 2, 64, 57
4, 127388, Note_off_c, 2, 79, 64
4, 127388, Note_off_c, 2, 72, 64
4, 127388, Note_off_c, 2, 67, 64
4, 127388, Note_off_c, 2, 64, 64
4, 127488, Note_on_c, 2, 79, 57
4, 127488, Note_on_c, 2, 71, 57
4, 127488, Note_on_c, 2, 67, 57
4, 127488, Note_on_c, 2, 62, 57
4, 127868, Note_off_c, 2, 79, 64
4, 127868, Note_off_c, 2, 71, 64
4, 127868, Note_off_c, 2, 67, 64
4, 127868, Note_off_c, 2, 62, 64
4, 128640, Note_on_c, 2, 79, 57
4, 128640, Note_on_c, 2, 62, 57
4, 128640, Note_on_c, 2, 59, 57
4, 128640, Note_on_c, 2, 67, 57
4, 128828, Note_off_c, 2, 79, 64
4, 128828, Note_off_c, 2, 62, 64
4, 128828, Note_off_c, 2, 59, 64
4, 128828, Note_off_c, 2, 67, 64
4, 128832, Note_on_c, 2, 79, 57
4, 128832, Note_on_c, 2, 67, 57
4, 128832, Note_on_c, 2, 64, 57
4, 128832, Note_on_c, 2, 60, 57
4, 129020, Note_off_c, 2, 79, 64
4, 129020, Note_off_c, 2, 67, 64
4, 129020, Note_off_c, 2, 64, 64
4, 129020, Note_off_c, 2, 60, 64
4, 129024, Note_on_c, 2, 79, 57
4, 129024, Note_on_c, 2, 67, 57
4, 129024, Note_on_c, 2, 62, 57
4, 129024, Note_on_c, 2, 59, 57
4, 129404, Note_off_c, 2, 79, 64
4, 129404, Note_off_c, 2, 67, 64
4, 129404, Note_off_c, 2, 62, 64
4, 129404, Note_off_c, 2, 59, 64
4, 130560, Note_on_c, 2, 76, 57
4, 130560, Note_on_c, 2, 67, 57
4, 130560, Note_on_c, 2, 60, 57
4, 130940, Note_off_c, 2, 76, 64
4, 130940, Note_off_c, 2, 67, 64
4, 130940, Note_off_c, 2, 60, 64
4, 132096, Note_on_c, 2, 67, 57
4, 132096, Note_on_c, 2, 71, 57
4, 132096, Note_on_c, 2, 62, 57
4, 132188, Note_off_c, 2, 67, 64
4, 132188, Note_off_c, 2, 71, 64
4, 132284, Note_off_c, 2, 62, 64
4, 132288, Note_on_c, 2, 67, 57
4, 132288, Note_on_c, 2, 71, 57
4, 132288, Note_on_c, 2, 62, 57
4, 132380, Note_off_c, 2, 67, 64
4, 132380, Note_off_c, 2, 71, 64
4, 132476, Note_off_c, 2, 62, 64
4, 132480, Note_on_c, 2, 67, 58
4, 132480, Note_on_c, 2, 71, 58
4, 132480, Note_on_c, 2, 62, 58
4, 132572, Note_off_c, 2, 67, 64
4, 132572, Note_off_c, 2, 71, 64
4, 132668, Note_off_c, 2, 62, 64
4, 132672, Note_on_c, 2, 67, 62
4, 132672, Note_on_c, 2, 71, 62
4, 132672, Note_on_c, 2, 62, 62
4, 132764, Note_off_c, 2, 67, 64
4, 132764, Note_off_c, 2, 71, 64
4, 132860, Note_off_c, 2, 62, 64
4, 132864, Note_on_c, 2, 67, 64
4, 132864, Note_on_c, 2, 69, 64
4, 132864, Note_on_c, 2, 62, 64
4, 132956, Note_off_c, 2, 67, 64
4, 132956, Note_off_c, 2, 69, 64
4, 133052, Note_off_c, 2, 62, 64
4, 133056, Note_on_c, 2, 67, 67
4, 133056, Note_on_c, 2, 69, 67
4, 133056, Note_on_c, 2, 62, 67
4, 133148, Note_off_c, 2, 67, 64
4, 133148, Note_off_c, 2, 69, 64
4, 133244, Note_off_c, 2, 62, 64
4, 133248, Note_on_c, 2, 69, 69
4, 133248, Note_on_c, 2, 66, 69
4, 133248, Note_on_c, 2, 62, 69
4, 133340, Note_off_c, 2, 69, 64
4, 133340, Note_off_c, 2, 66, 64
4, 133436, Note_off_c, 2, 62, 64
4, 133440, Note_on_c, 2, 69, 73
4, 133440, Note_on_c, 2, 66, 73
4, 133440, Note_on_c, 2, 62, 73
4, 133532, Note_off_c, 2, 69, 64
4, 133532, Note_off_c, 2, 66, 64
4, 133628, Note_off_c, 2, 62, 64
4, 133632, Note_on_c, 2, 71, 73
4, 133632, Note_on_c, 2, 67, 73
4, 133632, Note_on_c, 2, 62, 73
4, 133632, Note_on_c, 2, 55, 73
4, 133820, Note_off_c, 2, 71, 64
4, 133820, Note_off_c, 2, 67, 64
4, 133820, Note_off_c, 2, 62, 64
4, 133820, Note_off_c, 2, 55, 64
4, 134016, Note_on_c, 2, 69, 73
4, 134016, Note_on_c, 2, 66, 73
4, 134016, Note_on_c, 2, 60, 73
4, 134016, Note_on_c, 2, 57, 73
4, 134204, Note_off_c, 2, 69, 64
4, 134204, Note_off_c, 2, 66, 64
4, 134204, Note_off_c, 2, 60, 64
4, 134204, Note_off_c, 2, 57, 64
4, 134400, Note_on_c, 2, 67, 73
4, 134400, Note_on_c, 2, 62, 73
4, 134400, Note_on_c, 2, 59, 73
4, 134588, Note_off_c, 2, 67, 64
4, 134588, Note_off_c, 2, 62, 64
4, 134588, Note_off_c, 2, 59, 64
4, 135168, Note_on_c, 2, 68, 63
4, 135212, Note_off_c, 2, 68, 64
4, 135216, Note_on_c, 2, 69, 63
4, 135216, Note_on_c, 2, 57, 63
4, 135308, Note_off_c, 2, 69, 64
4, 135308, Note_off_c, 2, 57, 64
4, 135552, Note_on_c, 2, 71, 63
4, 135596, Note_off_c, 2, 71, 64
4, 135600, Note_on_c, 2, 72, 63
4, 135600, Note_on_c, 2, 60, 63
4, 135692, Note_off_c, 2, 72, 64
4, 135692, Note_off_c, 2, 60, 64
4, 135936, Note_on_c, 2, 75, 63
4, 135980, Note_off_c, 2, 75, 64
4, 135984, Note_on_c, 2, 76, 63
4, 135984, Note_on_c, 2, 64, 63
4, 136076, Note_off_c, 2, 76, 64
4, 136076, Note_off_c, 2, 64, 64
4, 136320, Note_on_c, 2, 80, 63
4, 136364, Note_off_c, 2, 80, 64
4, 136368, Note_on_c, 2, 81, 63
4, 136368, Note_on_c, 2, 69, 63
4, 136460, Note_off_c, 2, 81, 64
4, 136460, Note_off_c, 2, 69, 64
4, 136896, Note_on_c, 2, 74, 60
4, 136896, Note_on_c, 2, 71, 60
4, 136896, Note_on_c, 2, 62, 60
4, 136988, Note_off_c, 2, 74, 64
4, 136988, Note_off_c, 2, 71, 64
4, 136988, Note_off_c, 2, 62, 64
4, 137088, Note_on_c, 2, 74, 62
4, 137088, Note_on_c, 2, 71, 62
4, 137088, Note_on_c, 2, 62, 62
4, 137180, Note_off_c, 2, 74, 64
4, 137180, Note_off_c, 2, 71, 64
4, 137180, Note_off_c, 2, 62, 64
4, 137280, Note_on_c, 2, 74, 63
4, 137280, Note_on_c, 2, 71, 63
4, 137280, Note_on_c, 2, 62, 63
4, 137372, Note_off_c, 2, 74, 64
4, 137372, Note_off_c, 2, 71, 64
4, 137372, Note_off_c, 2, 62, 64
4, 137472, Note_on_c, 2, 71, 64
4, 137472, Note_on_c, 2, 62, 64
4, 137472, Note_on_c, 2, 67, 64
4, 137564, Note_off_c, 2, 71, 64
4, 137564, Note_off_c, 2, 62, 64
4, 137564, Note_off_c, 2, 67, 64
4, 137664, Note_on_c, 2, 71, 67
4, 137664, Note_on_c, 2, 62, 67
4, 137664, Note_on_c, 2, 67, 67
4, 137756, Note_off_c, 2, 71, 64
4, 137756, Note_off_c, 2, 62, 64
4, 137756, Note_off_c, 2, 67, 64
4, 137856, Note_on_c, 2, 71, 68
4, 137856, Note_on_c, 2, 67, 68
4, 137856, Note_on_c, 2, 62, 68
4, 137948, Note_off_c, 2, 71, 64
4, 137948, Note_off_c, 2, 67, 64
4, 137948, Note_off_c, 2, 62, 64
4, 138048, Note_on_c, 2, 71, 70
4, 138048, Note_on_c, 2, 67, 70
4, 138048, Note_on_c, 2, 62, 70
4, 138140, Note_off_c, 2, 71, 64
4, 138140, Note_off_c, 2, 67, 64
4, 138140, Note_off_c, 2, 62, 64
4, 138240, Note_on_c, 2, 72, 73
4, 138240, Note_on_c, 2, 66, 73
4, 138332, Note_off_c, 2, 72, 64
4, 138332, Note_off_c, 2, 66, 64
4, 138336, Note_on_c, 2, 62, 75
4, 138428, Note_off_c, 2, 62, 64
4, 138432, Note_on_c, 2, 72, 75
4, 138432, Note_on_c, 2, 66, 75
4, 138524, Note_off_c, 2, 72, 64
4, 138524, Note_off_c, 2, 66, 64
4, 138528, Note_on_c, 2, 62, 78
4, 138620, Note_off_c, 2, 62, 64
4, 138624, Note_on_c, 2, 72, 79
4, 138624, Note_on_c, 2, 66, 79
4, 138716, Note_off_c, 2, 72, 64
4, 138716, Note_off_c, 2, 66, 64
4, 138720, Note_on_c, 2, 62, 79
4, 138812, Note_off_c, 2, 62, 64
4, 138816, Note_on_c, 2, 72, 80
4, 138816, Note_on_c, 2, 66, 80
4, 138908, Note_off_c, 2, 72, 64
4, 138908, Note_off_c, 2, 66, 64
4, 138912, Note_on_c, 2, 62, 80
4, 139004, Note_off_c, 2, 62, 64
4, 139008, Note_on_c, 2, 78, 80
4, 139008, Note_on_c, 2, 74, 80
4, 139008, Note_on_c, 2, 72, 80
4, 139100, Note_off_c, 2, 78, 64
4, 139100, Note_off_c, 2, 74, 64
4, 139100, Note_off_c, 2, 72, 64
4, 139104, Note_on_c, 2, 69, 81
4, 139196, Note_off_c, 2, 69, 64
4, 139200, Note_on_c, 2, 78, 82
4, 139200, Note_on_c, 2, 74, 82
4, 139200, Note_on_c, 2, 72, 82
4, 139292, Note_off_c, 2, 78, 64
4, 139292, Note_off_c, 2, 74, 64
4, 139292, Note_off_c, 2, 72, 64
4, 139296, Note_on_c, 2, 69, 82
4, 139388, Note_off_c, 2, 69, 64
4, 139392, Note_on_c, 2, 74, 84
4, 139392, Note_on_c, 2, 72, 84
4, 139392, Note_on_c, 2, 78, 84
4, 139484, Note_off_c, 2, 74, 64
4, 139484, Note_off_c, 2, 72, 64
4, 139484, Note_off_c, 2, 78, 64
4, 139488, Note_on_c, 2, 69, 86
4, 139580, Note_off_c, 2, 69, 64
4, 139584, Note_on_c, 2, 78, 86
4, 139584, Note_on_c, 2, 74, 86
4, 139584, Note_on_c, 2, 72, 86
4, 139676, Note_off_c, 2, 78, 64
4, 139676, Note_off_c, 2, 74, 64
4, 139676, Note_off_c, 2, 72, 64
4, 139680, Note_on_c, 2, 69, 87
4, 139772, Note_off_c, 2, 69, 64
4, 139776, Note_on_c, 2, 79, 87
4, 139776, Note_on_c, 2, 74, 87
4, 139776, Note_on_c, 2, 71, 87
4, 139776, Note_on_c, 2, 67, 87
4, 140348, Note_off_c, 2, 79, 64
4, 140348, Note_off_c, 2, 74, 64
4, 140348, Note_off_c, 2, 71, 64
4, 140348, Note_off_c, 2, 67, 64
4, 140352, Note_on_c, 2, 74, 100
4, 140396, Note_off_c, 2, 74, 64
4, 140400, Note_on_c, 2, 76, 100
4, 140444, Note_off_c, 2, 76, 64
4, 140448, Note_on_c, 2, 73, 100
4, 140492, Note_off_c, 2, 73, 64
4, 140496, Note_on_c, 2, 74, 100
4, 140540, Note_off_c, 2, 74, 64
4, 140544, Note_on_c, 2, 71, 87
4, 140636, Note_off_c, 2, 71, 64
4, 140736, Note_on_c, 2, 67, 87
4, 140828, Note_off_c, 2, 67, 64
4, 140928, Note_on_c, 2, 77, 87
4, 141020, Note_off_c, 2, 77, 64
4, 141120, Note_on_c, 2, 74, 87
4, 141212, Note_off_c, 2, 74, 64
4, 141312, Note_on_c, 2, 76, 87
4, 141312, Note_on_c, 2, 72, 87
4, 141884, Note_off_c, 2, 76, 64
4, 141884, Note_off_c, 2, 72, 64
4, 141888, Note_on_c, 2, 72, 100
4, 141932, Note_off_c, 2, 72, 64
4, 141936, Note_on_c, 2, 74, 100
4, 141980, Note_off_c, 2, 74, 64
4, 141984, Note_on_c, 2, 71, 100
4, 142028, Note_off_c, 2, 71, 64
4, 142032, Note_on_c, 2, 72, 100
4, 142076, Note_off_c, 2, 72, 64
4, 142080, Note_on_c, 2, 69, 87
4, 142172, Note_off_c, 2, 69, 64
4, 142272, Note_on_c, 2, 64, 87
4, 142364, Note_off_c, 2, 64, 64
4, 142464, Note_on_c, 2, 76, 87
4, 142464, Note_on_c, 2, 72, 87
4, 142556, Note_off_c, 2, 76, 64
4, 142556, Note_off_c, 2, 72, 64
4, 142656, Note_on_c, 2, 72, 87
4, 142656, Note_on_c, 2, 69, 87
4, 142748, Note_off_c, 2, 72, 64
4, 142748, Note_off_c, 2, 69, 64
4, 142848, Note_on_c, 2, 71, 87
4, 142848, Note_on_c, 2, 67, 87
4, 142940, Note_off_c, 2, 71, 64
4, 142940, Note_off_c, 2, 67, 64
4, 142944, Note_on_c, 2, 72, 87
4, 142944, Note_on_c, 2, 69, 87
4, 143036, Note_off_c, 2, 72, 64
4, 143036, Note_off_c, 2, 69, 64
4, 143040, Note_on_c, 2, 74, 93
4, 143040, Note_on_c, 2, 71, 93
4, 143084, Note_off_c, 2, 74, 64
4, 143084, Note_off_c, 2, 71, 64
4, 143232, Note_on_c, 2, 74, 110
4, 143232, Note_on_c, 2, 71, 110
4, 143804, Note_off_c, 2, 74, 64
4, 143804, Note_off_c, 2, 71, 64
4, 143808, Note_on_c, 2, 72, 87
4, 143808, Note_on_c, 2, 69, 87
4, 143900, Note_off_c, 2, 72, 64
4, 143900, Note_off_c, 2, 69, 64
4, 144000, Note_on_c, 2, 71, 87
4, 144000, Note_on_c, 2, 67, 87
4, 144092, Note_off_c, 2, 71, 64
4, 144092, Note_off_c, 2, 67, 64
4, 144192, Note_on_c, 2, 69, 87
4, 144192, Note_on_c, 2, 66, 87
4, 144284, Note_off_c, 2, 69, 64
4, 144284, Note_off_c, 2, 66, 64
4, 144384, Note_on_c, 2, 79, 110
4, 144384, Note_on_c, 2, 74, 110
4, 144384, Note_on_c, 2, 71, 110
4, 144384, Note_on_c, 2, 67, 110
4, 144956, Note_off_c, 2, 79, 64
4, 144956, Note_off_c, 2, 74, 64
4, 144956, Note_off_c, 2, 71, 64
4, 144956, Note_off_c, 2, 67, 64
4, 144960, Note_on_c, 2, 74, 97
4, 145004, Note_off_c, 2, 74, 64
4, 145008, Note_on_c, 2, 76, 97
4, 145052, Note_off_c, 2, 76, 64
4, 145056, Note_on_c, 2, 73, 97
4, 145100, Note_off_c, 2, 73, 64
4, 145104, Note_on_c, 2, 74, 97
4, 145148, Note_off_c, 2, 74, 64
4, 145152, Note_on_c, 2, 71, 87
4, 145244, Note_off_c, 2, 71, 64
4, 145344, Note_on_c, 2, 67, 87
4, 145436, Note_off_c, 2, 67, 64
4, 145536, Note_on_c, 2, 77, 87
4, 145628, Note_off_c, 2, 77, 64
4, 145728, Note_on_c, 2, 74, 87
4, 145820, Note_off_c, 2, 74, 64
4, 145920, Note_on_c, 2, 76, 87
4, 145920, Note_on_c, 2, 72, 87
4, 146492, Note_off_c, 2, 76, 64
4, 146492, Note_off_c, 2, 72, 64
4, 146496, Note_on_c, 2, 72, 97
4, 146540, Note_off_c, 2, 72, 64
4, 146544, Note_on_c, 2, 74, 97
4, 146588, Note_off_c, 2, 74, 64
4, 146592, Note_on_c, 2, 71, 97
4, 146636, Note_off_c, 2, 71, 64
4, 146640, Note_on_c, 2, 72, 97
4, 146684, Note_off_c, 2, 72, 64
4, 146688, Note_on_c, 2, 81, 87
4, 146688, Note_on_c, 2, 69, 87
4, 146780, Note_off_c, 2, 81, 64
4, 146780, Note_off_c, 2, 69, 64
4, 146880, Note_on_c, 2, 76, 87
4, 146972, Note_off_c, 2, 76, 64
4, 147072, Note_on_c, 2, 84, 87
4, 147072, Note_on_c, 2, 72, 87
4, 147164, Note_off_c, 2, 84, 64
4, 147164, Note_off_c, 2, 72, 64
4, 147264, Note_on_c, 2, 81, 87
4, 147356, Note_off_c, 2, 81, 64
4, 147456, Note_on_c, 2, 79, 87
4, 147456, Note_on_c, 2, 83, 87
4, 147548, Note_off_c, 2, 79, 64
4, 147548, Note_off_c, 2, 83, 64
4, 147552, Note_on_c, 2, 81, 87
4, 147552, Note_on_c, 2, 84, 87
4, 147644, Note_off_c, 2, 81, 64
4, 147644, Note_off_c, 2, 84, 64
4, 147648, Note_on_c, 2, 83, 87
4, 147648, Note_on_c, 2, 86, 87
4, 147692, Note_off_c, 2, 83, 64
4, 147692, Note_off_c, 2, 86, 64
4, 147840, Note_on_c, 2, 86, 100
4, 147840, Note_on_c, 2, 83, 100
4, 147840, Note_on_c, 2, 74, 100
4, 148412, Note_off_c, 2, 86, 64
4, 148412, Note_off_c, 2, 83, 64
4, 148412, Note_off_c, 2, 74, 64
4, 148416, Note_on_c, 2, 84, 87
4, 148416, Note_on_c, 2, 81, 87
4, 148416, Note_on_c, 2, 72, 87
4, 148508, Note_off_c, 2, 84, 64
4, 148508, Note_off_c, 2, 81, 64
4, 148508, Note_off_c, 2, 72, 64
4, 148608, Note_on_c, 2, 83, 87
4, 148608, Note_on_c, 2, 79, 87
4, 148608, Note_on_c, 2, 71, 87
4, 148700, Note_off_c, 2, 83, 64
4, 148700, Note_off_c, 2, 79, 64
4, 148700, Note_off_c, 2, 71, 64
4, 148800, Note_on_c, 2, 81, 87
4, 148800, Note_on_c, 2, 78, 87
4, 148800, Note_on_c, 2, 69, 87
4, 148892, Note_off_c, 2, 81, 64
4, 148892, Note_off_c, 2, 78, 64
4, 148892, Note_off_c, 2, 69, 64
4, 148992, Note_on_c, 2, 79, 87
4, 148992, Note_on_c, 2, 71, 87
4, 148992, Note_on_c, 2, 67, 87
4, 149180, Note_off_c, 2, 79, 64
4, 149180, Note_off_c, 2, 71, 64
4, 149180, Note_off_c, 2, 67, 64
4, 149376, Note_on_c, 2, 71, 57
4, 149376, Note_on_c, 2, 74, 57
4, 149660, Note_off_c, 2, 71, 64
4, 149660, Note_off_c, 2, 74, 64
4, 149664, Note_on_c, 2, 76, 57
4, 149664, Note_on_c, 2, 72, 57
4, 149756, Note_off_c, 2, 76, 64
4, 149756, Note_off_c, 2, 72, 64
4, 149760, Note_on_c, 2, 72, 57
4, 149760, Note_on_c, 2, 69, 57
4, 149948, Note_off_c, 2, 72, 64
4, 149948, Note_off_c, 2, 69, 64
4, 150144, Note_on_c, 2, 72, 57
4, 150144, Note_on_c, 2, 69, 57
4, 150428, Note_off_c, 2, 72, 64
4, 150428, Note_off_c, 2, 69, 64
4, 150432, Note_on_c, 2, 74, 57
4, 150432, Note_on_c, 2, 71, 57
4, 150524, Note_off_c, 2, 74, 64
4, 150524, Note_off_c, 2, 71, 64
4, 150528, Note_on_c, 2, 71, 57
4, 150528, Note_on_c, 2, 67, 57
4, 150620, Note_off_c, 2, 71, 64
4, 150620, Note_off_c, 2, 67, 64
4, 150912, Note_on_c, 2, 67, 87
4, 151004, Note_off_c, 2, 67, 64
4, 151008, Note_on_c, 2, 66, 87
4, 151100, Note_off_c, 2, 66, 64
4, 151104, Note_on_c, 2, 67, 87
4, 151196, Note_off_c, 2, 67, 64
4, 151200, Note_on_c, 2, 71, 87
4, 151292, Note_off_c, 2, 71, 64
4, 151296, Note_on_c, 2, 69, 87
4, 151484, Note_off_c, 2, 69, 64
4, 151488, Note_on_c, 2, 72, 87
4, 151676, Note_off_c, 2, 72, 64
4, 151680, Note_on_c, 2, 66, 87
4, 151772, Note_off_c, 2, 66, 64
4, 151776, Note_on_c, 2, 64, 87
4, 151868, Note_off_c, 2, 64, 64
4, 151872, Note_on_c, 2, 66, 87
4, 151964, Note_off_c, 2, 66, 64
4, 151968, Note_on_c, 2, 69, 87
4, 152060, Note_off_c, 2, 69, 64
4, 152064, Note_on_c, 2, 67, 87
4, 152444, Note_off_c, 2, 67, 64
4, 155328, Note_on_c, 2, 74, 57
4, 155328, Note_on_c, 2, 71, 57
4, 155328, Note_on_c, 2, 67, 57
4, 155708, Note_off_c, 2, 74, 64
4, 155708, Note_off_c, 2, 71, 64
4, 155708, Note_off_c, 2, 67, 64
4, 155712, Note_on_c, 2, 74, 57
4, 155712, Note_on_c, 2, 71, 57
4, 155712, Note_on_c, 2, 67, 57
4, 155900, Note_off_c, 2, 74, 64
4, 155900, Note_off_c, 2, 71, 64
4, 155900, Note_off_c, 2, 67, 64
4, 155904, Note_on_c, 2, 74, 57
4, 155904, Note_on_c, 2, 71, 57
4, 155904, Note_on_c, 2, 67, 57
4, 156092, Note_off_c, 2, 74, 64
4, 156092, Note_off_c, 2, 71, 64
4, 156092, Note_off_c, 2, 67, 64
4, 156096, Note_on_c, 2, 71, 57
4, 156096, Note_on_c, 2, 67, 57
4, 156096, Note_on_c, 2, 74, 57
4, 156464, Note_on_c, 2, 67, 57
4, 156476, Note_off_c, 2, 71, 64
4, 156476, Note_off_c, 2, 67, 64
4, 156476, Note_off_c, 2, 74, 64
4, 156480, Note_on_c, 2, 74, 57
4, 156480, Note_on_c, 2, 71, 57
4, 156652, Note_off_c, 2, 67, 64
4, 156668, Note_off_c, 2, 74, 64
4, 156668, Note_off_c, 2, 71, 64
4, 156864, Note_on_c, 2, 74, 57
4, 156864, Note_on_c, 2, 72, 57
4, 156864, Note_on_c, 2, 69, 57
4, 156864, Note_on_c, 2, 66, 57
4, 157244, Note_off_c, 2, 74, 64
4, 157244, Note_off_c, 2, 72, 64
4, 157244, Note_off_c, 2, 69, 64
4, 157244, Note_off_c, 2, 66, 64
4, 157248, Note_on_c, 2, 74, 57
4, 157248, Note_on_c, 2, 72, 57
4, 157248, Note_on_c, 2, 69, 57
4, 157248, Note_on_c, 2, 66, 57
4, 157436, Note_off_c, 2, 74, 64
4, 157436, Note_off_c, 2, 72, 64
4, 157436, Note_off_c, 2, 69, 64
4, 157436, Note_off_c, 2, 66, 64
4, 157440, Note_on_c, 2, 74, 57
4, 157440, Note_on_c, 2, 72, 57
4, 157440, Note_on_c, 2, 69, 57
4, 157440, Note_on_c, 2, 66, 57
4, 157628, Note_off_c, 2, 74, 64
4, 157628, Note_off_c, 2, 72, 64
4, 157628, Note_off_c, 2, 69, 64
4, 157628, Note_off_c, 2, 66, 64
4, 157632, Note_on_c, 2, 74, 57
4, 157632, Note_on_c, 2, 66, 57
4, 157632, Note_on_c, 2, 72, 57
4, 157632, Note_on_c, 2, 69, 57
4, 158012, Note_off_c, 2, 74, 64
4, 158012, Note_off_c, 2, 66, 64
4, 158012, Note_off_c, 2, 72, 64
4, 158012, Note_off_c, 2, 69, 64
4, 158016, Note_on_c, 2, 74, 57
4, 158016, Note_on_c, 2, 72, 57
4, 158016, Note_on_c, 2, 69, 57
4, 158016, Note_on_c, 2, 66, 57
4, 158204, Note_off_c, 2, 74, 64
4, 158204, Note_off_c, 2, 72, 64
4, 158204, Note_off_c, 2, 69, 64
4, 158204, Note_off_c, 2, 66, 64
4, 158400, Note_on_c, 2, 71, 60
4, 158400, Note_on_c, 2, 67, 60
4, 158400, Note_on_c, 2, 74, 60
4, 158780, Note_off_c, 2, 71, 64
4, 158780, Note_off_c, 2, 67, 64
4, 158780, Note_off_c, 2, 74, 64
4, 158784, Note_on_c, 2, 74, 64
4, 158784, Note_on_c, 2, 71, 64
4, 158784, Note_on_c, 2, 67, 64
4, 158972, Note_off_c, 2, 74, 64
4, 158972, Note_off_c, 2, 71, 64
4, 158972, Note_off_c, 2, 67, 64
4, 158976, Note_on_c, 2, 74, 67
4, 158976, Note_on_c, 2, 71, 67
4, 158976, Note_on_c, 2, 67, 67
4, 159164, Note_off_c, 2, 74, 64
4, 159164, Note_off_c, 2, 71, 64
4, 159164, Note_off_c, 2, 67, 64
4, 159168, Note_on_c, 2, 74, 68
4, 159168, Note_on_c, 2, 71, 68
4, 159168, Note_on_c, 2, 67, 68
4, 159548, Note_off_c, 2, 74, 64
4, 159548, Note_off_c, 2, 71, 64
4, 159548, Note_off_c, 2, 67, 64
4, 159552, Note_on_c, 2, 74, 73
4, 159552, Note_on_c, 2, 71, 73
4, 159552, Note_on_c, 2, 67, 73
4, 159740, Note_off_c, 2, 74, 64
4, 159740, Note_off_c, 2, 71, 64
4, 159740, Note_off_c, 2, 67, 64
4, 159936, Note_on_c, 2, 69, 69
4, 159936, Note_on_c, 2, 66, 69
4, 159936, Note_on_c, 2, 74, 69
4, 159936, Note_on_c, 2, 72, 69
4, 160316, Note_off_c, 2, 69, 64
4, 160316, Note_off_c, 2, 66, 64
4, 160316, Note_off_c, 2, 74, 64
4, 160316, Note_off_c, 2, 72, 64
4, 160320, Note_on_c, 2, 74, 64
4, 160320, Note_on_c, 2, 72, 64
4, 160320, Note_on_c, 2, 69, 64
4, 160320, Note_on_c, 2, 66, 64
4, 160508, Note_off_c, 2, 74, 64
4, 160508, Note_off_c, 2, 72, 64
4, 160508, Note_off_c, 2, 69, 64
4, 160508, Note_off_c, 2, 66, 64
4, 160512, Note_on_c, 2, 72, 64
4, 160512, Note_on_c, 2, 69, 64
4, 160512, Note_on_c, 2, 66, 64
4, 160512, Note_on_c, 2, 74, 64
4, 160700, Note_off_c, 2, 72, 64
4, 160700, Note_off_c, 2, 69, 64
4, 160700, Note_off_c, 2, 66, 64
4, 160700, Note_off_c, 2, 74, 64
4, 160704, Note_on_c, 2, 74, 63
4, 160704, Note_on_c, 2, 72, 63
4, 160704, Note_on_c, 2, 69, 63
4, 160704, Note_on_c, 2, 66, 63
4, 161084, Note_off_c, 2, 74, 64
4, 161084, Note_off_c, 2, 72, 64
4, 161084, Note_off_c, 2, 69, 64
4, 161084, Note_off_c, 2, 66, 64
4, 161088, Note_on_c, 2, 74, 58
4, 161088, Note_on_c, 2, 72, 58
4, 161088, Note_on_c, 2, 69, 58
4, 161088, Note_on_c, 2, 66, 58
4, 161276, Note_off_c, 2, 74, 64
4, 161276, Note_off_c, 2, 72, 64
4, 161276, Note_off_c, 2, 69, 64
4, 161276, Note_off_c, 2, 66, 64
4, 161280, Note_on_c, 2, 74, 57
4, 161280, Note_on_c, 2, 71, 57
4, 161280, Note_on_c, 2, 67, 57
4, 161468, Note_off_c, 2, 74, 64
4, 161468, Note_off_c, 2, 71, 64
4, 161468, Note_off_c, 2, 67, 64
4, 161664, Note_on_c, 2, 71, 57
4, 161664, Note_on_c, 2, 67, 57
4, 161664, Note_on_c, 2, 62, 57
4, 161852, Note_off_c, 2, 71, 64
4, 161852, Note_off_c, 2, 67, 64
4, 161852, Note_off_c, 2, 62, 64
4, 162048, Note_on_c, 2, 67, 57
4, 162048, Note_on_c, 2, 64, 57
4, 162048, Note_on_c, 2, 69, 57
4, 162236, Note_off_c, 2, 67, 64
4, 162236, Note_off_c, 2, 64, 64
4, 162236, Note_off_c, 2, 69, 64
4, 162432, Note_on_c, 2, 69, 57
4, 162432, Note_on_c, 2, 66, 57
4, 162432, Note_on_c, 2, 62, 57
4, 162620, Note_off_c, 2, 69, 64
4, 162620, Note_off_c, 2, 66, 64
4, 162620, Note_off_c, 2, 62, 64
4, 162816, Note_on_c, 2, 67, 88
4, 162816, Note_on_c, 2, 62, 88
4, 162816, Note_on_c, 2, 59, 88
4, 162908, Note_off_c, 2, 67, 64
4, 162908, Note_off_c, 2, 62, 64
4, 162908, Note_off_c, 2, 59, 64
4, 163008, Note_on_c, 2, 67, 88
4, 163100, Note_off_c, 2, 67, 64
4, 163200, Note_on_c, 2, 59, 88
4, 163292, Note_off_c, 2, 59, 64
4, 163392, Note_on_c, 2, 67, 88
4, 163484, Note_off_c, 2, 67, 64
4, 163584, Note_on_c, 2, 60, 88
4, 163676, Note_off_c, 2, 60, 64
4, 163776, Note_on_c, 2, 69, 88
4, 163868, Note_off_c, 2, 69, 64
4, 163968, Note_on_c, 2, 62, 88
4, 164060, Note_off_c, 2, 62, 64
4, 164160, Note_on_c, 2, 66, 88
4, 164252, Note_off_c, 2, 66, 64
4, 164352, Note_on_c, 2, 67, 88
4, 164732, Note_off_c, 2, 67, 64
4, 164736, Note_on_c, 2, 70, 57
4, 164736, Note_on_c, 2, 67, 57
4, 165500, Note_off_c, 2, 70, 64
4, 165500, Note_off_c, 2, 67, 64
4, 165504, Note_on_c, 2, 70, 62
4, 165504, Note_on_c, 2, 67, 62
4, 166268, Note_off_c, 2, 67, 64
4, 166268, Note_off_c, 2, 70, 64
4, 166272, Note_on_c, 2, 70, 64
4, 166272, Note_on_c, 2, 67, 64
4, 167036, Note_off_c, 2, 70, 64
4, 167036, Note_off_c, 2, 67, 64
4, 167040, Note_on_c, 2, 70, 69
4, 167040, Note_on_c, 2, 67, 69
4, 167420, Note_off_c, 2, 70, 64
4, 167420, Note_off_c, 2, 67, 64
4, 167424, Note_on_c, 2, 67, 73
4, 167424, Note_on_c, 2, 64, 73
4, 167424, Note_on_c, 2, 69, 73
4, 167804, Note_off_c, 2, 67, 64
4, 167804, Note_off_c, 2, 64, 64
4, 167804, Note_off_c, 2, 69, 64
4, 168960, Note_on_c, 2, 69, 57
4, 168960, Note_on_c, 2, 65, 57
4, 168960, Note_on_c, 2, 62, 57
4, 169340, Note_off_c, 2, 65, 64
4, 169340, Note_off_c, 2, 62, 64
4, 169344, Note_on_c, 2, 62, 57
4, 169344, Note_on_c, 2, 65, 57
4, 170108, Note_off_c, 2, 62, 64
4, 170108, Note_off_c, 2, 65, 64
4, 170112, Note_on_c, 2, 65, 57
4, 170112, Note_on_c, 2, 62, 57
4, 170492, Note_off_c, 2, 69, 64
4, 170496, Note_on_c, 2, 68, 58
4, 170876, Note_off_c, 2, 62, 64
4, 170876, Note_off_c, 2, 65, 64
4, 170880, Note_on_c, 2, 62, 64
4, 170880, Note_on_c, 2, 65, 64
4, 171260, Note_off_c, 2, 68, 64
4, 171264, Note_on_c, 2, 69, 73
4, 171644, Note_off_c, 2, 62, 64
4, 171644, Note_off_c, 2, 65, 64
4, 171648, Note_on_c, 2, 65, 80
4, 171648, Note_on_c, 2, 62, 80
4, 172028, Note_off_c, 2, 69, 64
4, 172028, Note_off_c, 2, 65, 64
4, 172028, Note_off_c, 2, 62, 64
4, 172032, Note_on_c, 2, 71, 88
4, 172032, Note_on_c, 2, 64, 88
4, 172032, Note_on_c, 2, 62, 88
4, 172220, Note_off_c, 2, 71, 64
4, 172220, Note_off_c, 2, 64, 64
4, 172220, Note_off_c, 2, 62, 64
4, 173952, Note_on_c, 2, 76, 57
4, 173952, Note_on_c, 2, 72, 57
4, 174236, Note_off_c, 2, 76, 64
4, 174236, Note_off_c, 2, 72, 64
4, 174240, Note_on_c, 2, 77, 57
4, 174240, Note_on_c, 2, 74, 57
4, 174332, Note_off_c, 2, 77, 64
4, 174332, Note_off_c, 2, 74, 64
4, 174336, Note_on_c, 2, 74, 57
4, 174336, Note_on_c, 2, 71, 57
4, 174428, Note_off_c, 2, 74, 64
4, 174428, Note_off_c, 2, 71, 64
4, 174720, Note_on_c, 2, 74, 57
4, 174720, Note_on_c, 2, 71, 57
4, 175004, Note_off_c, 2, 74, 64
4, 175004, Note_off_c, 2, 71, 64
4, 175008, Note_on_c, 2, 76, 57
4, 175008, Note_on_c, 2, 72, 57
4, 175100, Note_off_c, 2, 76, 64
4, 175100, Note_off_c, 2, 72, 64
4, 175104, Note_on_c, 2, 72, 57
4, 175104, Note_on_c, 2, 69, 57
4, 175196, Note_off_c, 2, 72, 64
4, 175196, Note_off_c, 2, 69, 64
4, 175488, Note_on_c, 2, 69, 88
4, 175580, Note_off_c, 2, 69, 64
4, 175584, Note_on_c, 2, 68, 88
4, 175676, Note_off_c, 2, 68, 64
4, 175680, Note_on_c, 2, 69, 88
4, 175772, Note_off_c, 2, 69, 64
4, 175776, Note_on_c, 2, 72, 88
4, 175868, Note_off_c, 2, 72, 64
4, 175872, Note_on_c, 2, 71, 88
4, 175964, Note_off_c, 2, 71, 64
4, 176064, Note_on_c, 2, 74, 88
4, 176156, Note_off_c, 2, 74, 64
4, 176256, Note_on_c, 2, 68, 88
4, 176348, Note_off_c, 2, 68, 64
4, 176352, Note_on_c, 2, 66, 88
4, 176444, Note_off_c, 2, 66, 64
4, 176448, Note_on_c, 2, 68, 88
4, 176540, Note_off_c, 2, 68, 64
4, 176544, Note_on_c, 2, 71, 88
4, 176636, Note_off_c, 2, 71, 64
4, 176640, Note_on_c, 2, 69, 88
4, 177020, Note_off_c, 2, 69, 64
4, 188928, Note_on_c, 2, 72, 57
4, 188928, Note_on_c, 2, 67, 57
4, 188928, Note_on_c, 2, 64, 57
4, 189116, Note_off_c, 2, 72, 64
4, 189116, Note_off_c, 2, 67, 64
4, 189116, Note_off_c, 2, 64, 64
4, 189696, Note_on_c, 2, 74, 57
4, 189696, Note_on_c, 2, 67, 57
4, 189884, Note_off_c, 2, 74, 64
4, 189884, Note_off_c, 2, 67, 64
4, 190464, Note_on_c, 2, 76, 57
4, 190464, Note_on_c, 2, 72, 57
4, 190464, Note_on_c, 2, 67, 57
4, 190844, Note_off_c, 2, 72, 64
4, 190844, Note_off_c, 2, 67, 64
4, 190848, Note_on_c, 2, 72, 62
4, 190848, Note_on_c, 2, 67, 62
4, 191228, Note_off_c, 2, 76, 64
4, 191228, Note_off_c, 2, 72, 64
4, 191228, Note_off_c, 2, 67, 64
4, 191232, Note_on_c, 2, 77, 70
4, 191232, Note_on_c, 2, 72, 70
4, 191232, Note_on_c, 2, 67, 70
4, 191612, Note_off_c, 2, 77, 64
4, 191612, Note_off_c, 2, 72, 64
4, 191612, Note_off_c, 2, 67, 64
4, 191616, Note_on_c, 2, 81, 80
4, 191616, Note_on_c, 2, 72, 80
4, 191616, Note_on_c, 2, 69, 80
4, 191996, Note_off_c, 2, 81, 64
4, 191996, Note_off_c, 2, 72, 64
4, 191996, Note_off_c, 2, 69, 64
4, 192000, Note_on_c, 2, 79, 88
4, 192000, Note_on_c, 2, 72, 88
4, 192000, Note_on_c, 2, 67, 88
4, 192380, Note_off_c, 2, 79, 64
4, 192380, Note_off_c, 2, 72, 64
4, 192380, Note_off_c, 2, 67, 64
4, 194304, Note_on_c, 2, 77, 55
4, 194304, Note_on_c, 2, 74, 55
4, 194304, Note_on_c, 2, 67, 55
4, 194492, Note_off_c, 2, 77, 64
4, 194492, Note_off_c, 2, 74, 64
4, 194492, Note_off_c, 2, 67, 64
4, 194688, Note_on_c, 2, 76, 57
4, 194688, Note_on_c, 2, 72, 57
4, 194688, Note_on_c, 2, 67, 57
4, 194876, Note_off_c, 2, 76, 64
4, 194876, Note_off_c, 2, 72, 64
4, 194876, Note_off_c, 2, 67, 64
4, 195072, Note_on_c, 2, 74, 57
4, 195072, Note_on_c, 2, 71, 57
4, 195072, Note_on_c, 2, 67, 57
4, 195452, Note_off_c, 2, 74, 64
4, 195452, Note_off_c, 2, 71, 64
4, 195452, Note_off_c, 2, 67, 64
4, 198912, Note_on_c, 2, 77, 57
4, 198912, Note_on_c, 2, 71, 57
4, 199676, Note_off_c, 2, 77, 64
4, 199676, Note_off_c, 2, 71, 64
4, 199680, Note_on_c, 2, 76, 57
4, 199680, Note_on_c, 2, 72, 57
4, 200828, Note_off_c, 2, 76, 64
4, 200832, Note_on_c, 2, 78, 57
4, 201212, Note_off_c, 2, 72, 64
4, 201212, Note_off_c, 2, 78, 64
4, 204288, Note_on_c, 2, 72, 106
4, 204288, Note_on_c, 2, 67, 106
4, 204288, Note_on_c, 2, 64, 106
4, 205052, Note_off_c, 2, 72, 64
4, 205052, Note_off_c, 2, 67, 64
4, 205052, Note_off_c, 2, 64, 64
4, 205056, Note_on_c, 2, 76, 106
4, 205244, Note_off_c, 2, 76, 64
4, 205440, Note_on_c, 2, 79, 106
4, 205628, Note_off_c, 2, 79, 64
4, 205824, Note_on_c, 2, 76, 120
4, 205824, Note_on_c, 2, 84, 120
4, 206012, Note_off_c, 2, 84, 64
4, 206016, Note_on_c, 2, 79, 106
4, 206204, Note_off_c, 2, 76, 64
4, 206204, Note_off_c, 2, 79, 64
4, 206208, Note_on_c, 2, 79, 106
4, 206208, Note_on_c, 2, 76, 106
4, 206972, Note_off_c, 2, 79, 64
4, 206972, Note_off_c, 2, 76, 64
4, 206976, Note_on_c, 2, 77, 106
4, 206976, Note_on_c, 2, 81, 106
4, 207068, Note_off_c, 2, 81, 64
4, 207072, Note_on_c, 2, 79, 106
4, 207164, Note_off_c, 2, 79, 64
4, 207168, Note_on_c, 2, 81, 106
4, 207260, Note_off_c, 2, 81, 64
4, 207264, Note_on_c, 2, 83, 106
4, 207356, Note_off_c, 2, 77, 64
4, 207356, Note_off_c, 2, 83, 64
4, 207360, Note_on_c, 2, 76, 106
4, 207360, Note_on_c, 2, 84, 106
4, 207452, Note_off_c, 2, 84, 64
4, 207552, Note_on_c, 2, 79, 106
4, 207644, Note_off_c, 2, 79, 64
4, 207740, Note_off_c, 2, 76, 64
4, 207744, Note_on_c, 2, 77, 106
4, 207744, Note_on_c, 2, 81, 106
4, 207836, Note_off_c, 2, 81, 64
4, 207840, Note_on_c, 2, 79, 106
4, 207932, Note_off_c, 2, 79, 64
4, 207936, Note_on_c, 2, 79, 106
4, 208028, Note_off_c, 2, 79, 64
4, 208032, Note_on_c, 2, 83, 106
4, 208124, Note_off_c, 2, 77, 64
4, 208124, Note_off_c, 2, 83, 64
4, 208128, Note_on_c, 2, 76, 106
4, 208128, Note_on_c, 2, 84, 106
4, 208220, Note_off_c, 2, 84, 64
4, 208320, Note_on_c, 2, 79, 106
4, 208412, Note_off_c, 2, 79, 64
4, 208508, Note_off_c, 2, 76, 64
4, 208512, Note_on_c, 2, 77, 106
4, 208512, Note_on_c, 2, 81, 106
4, 208604, Note_off_c, 2, 81, 64
4, 208608, Note_on_c, 2, 79, 106
4, 208700, Note_off_c, 2, 79, 64
4, 208704, Note_on_c, 2, 81, 106
4, 208796, Note_off_c, 2, 81, 64
4, 208800, Note_on_c, 2, 83, 106
4, 208892, Note_off_c, 2, 77, 64
4, 208892, Note_off_c, 2, 83, 64
4, 208896, Note_on_c, 2, 84, 120
4, 208896, Note_on_c, 2, 76, 120
4, 209084, Note_off_c, 2, 84, 64
4, 209088, Note_on_c, 2, 79, 106
4, 209276, Note_off_c, 2, 76, 64
4, 209276, Note_off_c, 2, 79, 64
4, 209280, Note_on_c, 2, 79, 106
4, 209280, Note_on_c, 2, 76, 106
4, 209852, Note_off_c, 2, 79, 64
4, 209852, Note_off_c, 2, 76, 64
4, 209856, Note_on_c, 2, 81, 97
4, 209948, Note_off_c, 2, 81, 64
4, 209952, Note_on_c, 2, 79, 97
4, 210044, Note_off_c, 2, 79, 64
4, 210048, Note_on_c, 2, 77, 88
4, 210140, Note_off_c, 2, 77, 64
4, 210144, Note_on_c, 2, 76, 81
4, 210236, Note_off_c, 2, 76, 64
4, 210240, Note_on_c, 2, 74, 73
4, 210332, Note_off_c, 2, 74, 64
4, 210336, Note_on_c, 2, 72, 64
4, 210428, Note_off_c, 2, 72, 64
4, 210432, Note_on_c, 2, 71, 57
4, 210432, Note_on_c, 2, 67, 57
4, 211196, Note_off_c, 2, 71, 64
4, 211200, Note_on_c, 2, 72, 73
4, 211240, Note_off_c, 2, 72, 64
4, 211248, Note_on_c, 2, 74, 73
4, 211288, Note_off_c, 2, 74, 64
4, 211296, Note_on_c, 2, 72, 73
4, 211336, Note_off_c, 2, 72, 64
4, 211344, Note_on_c, 2, 74, 73
4, 211384, Note_off_c, 2, 74, 64
4, 211392, Note_on_c, 2, 72, 73
4, 211432, Note_off_c, 2, 72, 64
4, 211440, Note_on_c, 2, 74, 73
4, 211480, Note_off_c, 2, 74, 64
4, 211488, Note_on_c, 2, 72, 73
4, 211528, Note_off_c, 2, 72, 64
4, 211536, Note_on_c, 2, 74, 73
4, 211576, Note_off_c, 2, 74, 64
4, 211584, Note_on_c, 2, 72, 73
4, 211624, Note_off_c, 2, 72, 64
4, 211632, Note_on_c, 2, 74, 73
4, 211672, Note_off_c, 2, 74, 64
4, 211680, Note_on_c, 2, 72, 73
4, 211720, Note_off_c, 2, 72, 64
4, 211728, Note_on_c, 2, 74, 73
4, 211768, Note_off_c, 2, 74, 64
4, 211776, Note_on_c, 2, 71, 73
4, 211864, Note_off_c, 2, 71, 64
4, 211872, Note_on_c, 2, 72, 73
4, 211960, Note_off_c, 2, 72, 64
4, 211964, Note_off_c, 2, 67, 64
4, 211968, Note_on_c, 2, 74, 57
4, 211968, Note_on_c, 2, 67, 57
4, 212732, Note_off_c, 2, 74, 64
4, 212736, Note_on_c, 2, 76, 73
4, 212776, Note_off_c, 2, 76, 64
4, 212784, Note_on_c, 2, 77, 73
4, 212824, Note_off_c, 2, 77, 64
4, 212832, Note_on_c, 2, 76, 73
4, 212872, Note_off_c, 2, 76, 64
4, 212880, Note_on_c, 2, 77, 73
4, 212920, Note_off_c, 2, 77, 64
4, 212928, Note_on_c, 2, 76, 73
4, 212968, Note_off_c, 2, 76, 64
4, 212976, Note_on_c, 2, 77, 73
4, 213016, Note_off_c, 2, 77, 64
4, 213024, Note_on_c, 2, 76, 73
4, 213064, Note_off_c, 2, 76, 64
4, 213072, Note_on_c, 2, 77, 73
4, 213112, Note_off_c, 2, 77, 64
4, 213120, Note_on_c, 2, 76, 73
4, 213160, Note_off_c, 2, 76, 64
4, 213168, Note_on_c, 2, 77, 73
4, 213208, Note_off_c, 2, 77, 64
4, 213216, Note_on_c, 2, 76, 73
4, 213256, Note_off_c, 2, 76, 64
4, 213264, Note_on_c, 2, 77, 73
4, 213304, Note_off_c, 2, 77, 64
4, 213312, Note_on_c, 2, 74, 73
4, 213400, Note_off_c, 2, 74, 64
4, 213408, Note_on_c, 2, 76, 73
4, 213496, Note_off_c, 2, 76, 64
4, 213500, Note_off_c, 2, 67, 64
4, 213504, Note_on_c, 2, 77, 57
4, 213504, Note_on_c, 2, 74, 57
4, 213504, Note_on_c, 2, 67, 57
4, 213692, Note_off_c, 2, 77, 64
4, 213692, Note_off_c, 2, 74, 64
4, 213692, Note_off_c, 2, 67, 64
4, 213888, Note_on_c, 2, 76, 57
4, 213888, Note_on_c, 2, 72, 57
4, 213888, Note_on_c, 2, 67, 57
4, 214076, Note_off_c, 2, 76, 64
4, 214076, Note_off_c, 2, 72, 64
4, 214076, Note_off_c, 2, 67, 64
4, 214272, Note_on_c, 2, 76, 57
4, 214272, Note_on_c, 2, 67, 57
4, 214460, Note_off_c, 2, 76, 64
4, 214460, Note_off_c, 2, 67, 64
4, 214464, Note_on_c, 2, 74, 57
4, 214464, Note_on_c, 2, 65, 57
4, 214652, Note_off_c, 2, 74, 64
4, 214652, Note_off_c, 2, 65, 64
4, 214656, Note_on_c, 2, 72, 57
4, 214656, Note_on_c, 2, 64, 57
4, 214748, Note_off_c, 2, 72, 64
4, 214748, Note_off_c, 2, 64, 64
4, 214848, Note_on_c, 2, 71, 57
4, 214848, Note_on_c, 2, 62, 57
4, 214940, Note_off_c, 2, 71, 64
4, 214940, Note_off_c, 2, 62, 64
4, 215040, Note_on_c, 2, 72, 57
4, 215040, Note_on_c, 2, 64, 57
4, 215228, Note_off_c, 2, 72, 64
4, 215228, Note_off_c, 2, 64, 64
4, 216576, Note_on_c, 2, 79, 57
4, 220028, Note_off_c, 2, 79, 64
4, 220032, Note_on_c, 2, 67, 57
4, 220032, Note_on_c, 2, 64, 57
4, 220412, Note_off_c, 2, 67, 64
4, 220412, Note_off_c, 2, 64, 64
4, 220416, Note_on_c, 2, 67, 57
4, 220416, Note_on_c, 2, 64, 57
4, 220604, Note_off_c, 2, 67, 64
4, 220604, Note_off_c, 2, 64, 64
4, 220608, Note_on_c, 2, 65, 57
4, 220608, Note_on_c, 2, 62, 57
4, 220796, Note_off_c, 2, 65, 64
4, 220796, Note_off_c, 2, 62, 64
4, 220800, Note_on_c, 2, 64, 57
4, 220800, Note_on_c, 2, 60, 57
4, 220892, Note_off_c, 2, 64, 64
4, 220892, Note_off_c, 2, 60, 64
4, 220992, Note_on_c, 2, 62, 57
4, 220992, Note_on_c, 2, 59, 57
4, 221084, Note_off_c, 2, 62, 64
4, 221084, Note_off_c, 2, 59, 64
4, 221184, Note_on_c, 2, 60, 88
4, 221276, Note_off_c, 2, 60, 64
4, 221568, Note_on_c, 2, 72, 88
4, 221660, Note_off_c, 2, 72, 64
4, 221760, Note_on_c, 2, 70, 88
4, 221852, Note_off_c, 2, 70, 64
4, 221952, Note_on_c, 2, 69, 88
4, 222140, Note_off_c, 2, 69, 64
4, 222240, Note_on_c, 2, 72, 88
4, 222332, Note_off_c, 2, 72, 64
4, 222336, Note_on_c, 2, 77, 88
4, 222428, Note_off_c, 2, 77, 64
4, 222432, Note_on_c, 2, 72, 88
4, 222524, Note_off_c, 2, 72, 64
4, 222528, Note_on_c, 2, 77, 88
4, 222620, Note_off_c, 2, 77, 64
4, 222624, Note_on_c, 2, 81, 88
4, 222716, Note_off_c, 2, 81, 64
4, 222720, Note_on_c, 2, 79, 88
4, 222720, Note_on_c, 2, 76, 88
4, 223100, Note_off_c, 2, 79, 64
4, 223100, Note_off_c, 2, 76, 64
4, 223104, Note_on_c, 2, 72, 88
4, 223196, Note_off_c, 2, 72, 64
4, 223296, Note_on_c, 2, 70, 88
4, 223388, Note_off_c, 2, 70, 64
4, 223488, Note_on_c, 2, 69, 88
4, 223676, Note_off_c, 2, 69, 64
4, 223824, Note_on_c, 2, 72, 88
4, 223868, Note_off_c, 2, 72, 64
4, 223872, Note_on_c, 2, 77, 88
4, 223964, Note_off_c, 2, 77, 64
4, 223968, Note_on_c, 2, 72, 88
4, 224060, Note_off_c, 2, 72, 64
4, 224064, Note_on_c, 2, 77, 88
4, 224156, Note_off_c, 2, 77, 64
4, 224160, Note_on_c, 2, 81, 88
4, 224252, Note_off_c, 2, 81, 64
4, 224256, Note_on_c, 2, 79, 88
4, 224256, Note_on_c, 2, 76, 88
4, 224636, Note_off_c, 2, 79, 64
4, 224636, Note_off_c, 2, 76, 64
4, 227712, Note_on_c, 2, 72, 57
4, 227712, Note_on_c, 2, 64, 57
4, 227712, Note_on_c, 2, 67, 57
4, 227900, Note_off_c, 2, 72, 64
4, 227900, Note_off_c, 2, 64, 64
4, 227904, Note_on_c, 2, 76, 57
4, 227904, Note_on_c, 2, 60, 57
4, 228092, Note_off_c, 2, 67, 64
4, 228092, Note_off_c, 2, 76, 64
4, 228092, Note_off_c, 2, 60, 64
4, 228096, Note_on_c, 2, 72, 73
4, 228096, Note_on_c, 2, 69, 73
4, 228288, Note_on_c, 2, 77, 57
4, 228476, Note_off_c, 2, 72, 64
4, 228476, Note_off_c, 2, 69, 64
4, 228476, Note_off_c, 2, 77, 64
4, 228480, Note_on_c, 2, 71, 57
4, 228480, Note_on_c, 2, 67, 57
4, 228672, Note_on_c, 2, 76, 57
4, 228860, Note_off_c, 2, 71, 64
4, 228860, Note_off_c, 2, 67, 64
4, 228860, Note_off_c, 2, 76, 64
4, 228864, Note_on_c, 2, 69, 73
4, 228864, Note_on_c, 2, 65, 73
4, 229056, Note_on_c, 2, 74, 57
4, 229244, Note_off_c, 2, 69, 64
4, 229244, Note_off_c, 2, 65, 64
4, 229244, Note_off_c, 2, 74, 64
4, 229248, Note_on_c, 2, 67, 57
4, 229248, Note_on_c, 2, 64, 57
4, 229440, Note_on_c, 2, 72, 57
4, 229628, Note_off_c, 2, 67, 64
4, 229628, Note_off_c, 2, 64, 64
4, 229628, Note_off_c, 2, 72, 64
4, 229632, Note_on_c, 2, 65, 73
4, 229632, Note_on_c, 2, 62, 73
4, 229824, Note_on_c, 2, 71, 57
4, 229916, Note_off_c, 2, 71, 64
4, 230012, Note_off_c, 2, 65, 64
4, 230012, Note_off_c, 2, 62, 64
4, 230016, Note_on_c, 2, 72, 68
4, 230016, Note_on_c, 2, 64, 68
4, 230016, Note_on_c, 2, 60, 68
4, 230108, Note_off_c, 2, 72, 64
4, 230204, Note_off_c, 2, 64, 64
4, 230204, Note_off_c, 2, 60, 64
4, 230208, Note_on_c, 2, 76, 81
4, 230208, Note_on_c, 2, 60, 81
4, 230300, Note_off_c, 2, 76, 64
4, 230300, Note_off_c, 2, 60, 64
4, 230400, Note_on_c, 2, 74, 88
4, 230400, Note_on_c, 2, 71, 88
4, 230492, Note_off_c, 2, 71, 64
4, 230496, Note_on_c, 2, 69, 88
4, 230588, Note_off_c, 2, 69, 64
4, 230592, Note_on_c, 2, 67, 88
4, 230684, Note_off_c, 2, 67, 64
4, 230688, Note_on_c, 2, 69, 88
4, 230780, Note_off_c, 2, 74, 64
4, 230780, Note_off_c, 2, 69, 64
4, 230784, Note_on_c, 2, 71, 88
4, 230784, Note_on_c, 2, 77, 88
4, 230784, Note_on_c, 2, 79, 88
4, 230876, Note_off_c, 2, 71, 64
4, 230876, Note_off_c, 2, 77, 64
4, 230876, Note_off_c, 2, 79, 64
4, 230880, Note_on_c, 2, 72, 88
4, 230972, Note_off_c, 2, 72, 64
4, 230976, Note_on_c, 2, 74, 88
4, 230976, Note_on_c, 2, 77, 88
4, 230976, Note_on_c, 2, 79, 88
4, 231068, Note_off_c, 2, 74, 64
4, 231068, Note_off_c, 2, 77, 64
4, 231068, Note_off_c, 2, 79, 64
4, 231072, Note_on_c, 2, 71, 88
4, 231164, Note_off_c, 2, 71, 64
4, 231168, Note_on_c, 2, 76, 106
4, 231168, Note_on_c, 2, 79, 106
4, 231260, Note_off_c, 2, 76, 64
4, 231264, Note_on_c, 2, 74, 88
4, 231356, Note_off_c, 2, 74, 64
4, 231360, Note_on_c, 2, 72, 88
4, 231452, Note_off_c, 2, 72, 64
4, 231456, Note_on_c, 2, 74, 88
4, 231548, Note_off_c, 2, 74, 64
4, 231552, Note_on_c, 2, 76, 88
4, 231644, Note_off_c, 2, 76, 64
4, 231648, Note_on_c, 2, 77, 88
4, 231740, Note_off_c, 2, 79, 64
4, 231740, Note_off_c, 2, 77, 64
4, 231744, Note_on_c, 2, 79, 88
4, 231744, Note_on_c, 2, 84, 88
4, 231836, Note_off_c, 2, 79, 64
4, 231840, Note_on_c, 2, 76, 88
4, 231932, Note_off_c, 2, 84, 64
4, 231932, Note_off_c, 2, 76, 64
4, 231936, Note_on_c, 2, 74, 88
4, 231936, Note_on_c, 2, 83, 88
4, 231980, Note_off_c, 2, 83, 64
4, 231984, Note_on_c, 2, 81, 88
4, 232036, Note_off_c, 2, 81, 64
4, 232040, Note_on_c, 2, 79, 88
4, 232124, Note_off_c, 2, 74, 64
4, 232128, Note_on_c, 2, 67, 88
4, 232220, Note_off_c, 2, 67, 64
4, 232224, Note_on_c, 2, 69, 88
4, 232316, Note_off_c, 2, 79, 64
4, 232316, Note_off_c, 2, 69, 64
4, 232320, Note_on_c, 2, 71, 88
4, 232320, Note_on_c, 2, 77, 88
4, 232320, Note_on_c, 2, 79, 88
4, 232412, Note_off_c, 2, 71, 64
4, 232412, Note_off_c, 2, 77, 64
4, 232412, Note_off_c, 2, 79, 64
4, 232416, Note_on_c, 2, 72, 88
4, 232508, Note_off_c, 2, 72, 64
4, 232512, Note_on_c, 2, 74, 88
4, 232512, Note_on_c, 2, 77, 88
4, 232512, Note_on_c, 2, 79, 88
4, 232604, Note_off_c, 2, 74, 64
4, 232604, Note_off_c, 2, 77, 64
4, 232604, Note_off_c, 2, 79, 64
4, 232608, Note_on_c, 2, 71, 88
4, 232700, Note_off_c, 2, 71, 64
4, 232704, Note_on_c, 2, 76, 106
4, 232704, Note_on_c, 2, 79, 106
4, 232796, Note_off_c, 2, 76, 64
4, 232800, Note_on_c, 2, 74, 88
4, 232892, Note_off_c, 2, 74, 64
4, 232896, Note_on_c, 2, 72, 88
4, 232988, Note_off_c, 2, 72, 64
4, 232992, Note_on_c, 2, 74, 88
4, 233084, Note_off_c, 2, 74, 64
4, 233088, Note_on_c, 2, 76, 88
4, 233180, Note_off_c, 2, 76, 64
4, 233184, Note_on_c, 2, 77, 88
4, 233276, Note_off_c, 2, 79, 64
4, 233276, Note_off_c, 2, 77, 64
4, 233280, Note_on_c, 2, 79, 88
4, 233280, Note_on_c, 2, 84, 88
4, 233372, Note_off_c, 2, 79, 64
4, 233376, Note_on_c, 2, 76, 88
4, 233468, Note_off_c, 2, 84, 64
4, 233468, Note_off_c, 2, 76, 64
4, 233472, Note_on_c, 2, 81, 106
4, 233472, Note_on_c, 2, 74, 106
4, 233516, Note_off_c, 2, 81, 64
4, 233520, Note_on_c, 2, 79, 88
4, 233572, Note_off_c, 2, 79, 64
4, 233576, Note_on_c, 2, 79, 88
4, 233852, Note_off_c, 2, 74, 64
4, 233852, Note_off_c, 2, 79, 64
4, 234240, Note_on_c, 2, 83, 106
4, 234240, Note_on_c, 2, 74, 106
4, 234284, Note_off_c, 2, 83, 64
4, 234288, Note_on_c, 2, 81, 88
4, 234340, Note_off_c, 2, 81, 64
4, 234344, Note_on_c, 2, 79, 88
4, 234620, Note_off_c, 2, 74, 64
4, 234620, Note_off_c, 2, 79, 64
4, 235008, Note_on_c, 2, 64, 57
4, 235008, Note_on_c, 2, 60, 57
4, 235196, Note_off_c, 2, 64, 64
4, 235196, Note_off_c, 2, 60, 64
4, 235776, Note_on_c, 2, 67, 57
4, 235776, Note_on_c, 2, 62, 57
4, 235964, Note_off_c, 2, 67, 64
4, 235964, Note_off_c, 2, 62, 64
4, 236544, Note_on_c, 2, 72, 57
4, 236544, Note_on_c, 2, 64, 57
4, 236732, Note_off_c, 2, 72, 64
4, 236732, Note_off_c, 2, 64, 64
4, 237312, Note_on_c, 2, 69, 57
4, 237312, Note_on_c, 2, 65, 57
4, 237312, Note_on_c, 2, 60, 57
4, 237500, Note_off_c, 2, 69, 64
4, 237500, Note_off_c, 2, 65, 64
4, 237500, Note_off_c, 2, 60, 64
4, 238080, Note_on_c, 2, 60, 57
4, 238080, Note_on_c, 2, 55, 57
4, 238844, Note_off_c, 2, 60, 64
4, 238844, Note_off_c, 2, 55, 64
4, 238848, Note_on_c, 2, 65, 57
4, 238848, Note_on_c, 2, 59, 57
4, 239612, Note_off_c, 2, 65, 64
4, 239612, Note_off_c, 2, 59, 64
4, 239616, Note_on_c, 2, 64, 57
4, 239616, Note_on_c, 2, 60, 57
4, 239996, Note_off_c, 2, 64, 64
4, 239996, Note_off_c, 2, 60, 64
4, 240192, Note_on_c, 2, 79, 88
4, 240284, Note_off_c, 2, 79, 64
4, 240384, Note_on_c, 2, 77, 88
4, 240476, Note_off_c, 2, 77, 64
4, 240576, Note_on_c, 2, 74, 88
4, 240668, Note_off_c, 2, 74, 64
4, 240768, Note_on_c, 2, 71, 88
4, 240860, Note_off_c, 2, 71, 64
4, 240960, Note_on_c, 2, 67, 88
4, 241052, Note_off_c, 2, 67, 64
4, 241152, Note_on_c, 2, 72, 57
4, 241532, Note_off_c, 2, 72, 64
4, 241920, Note_on_c, 2, 74, 57
4, 241920, Note_on_c, 2, 67, 57
4, 242108, Note_off_c, 2, 74, 64
4, 242108, Note_off_c, 2, 67, 64
4, 242688, Note_on_c, 2, 72, 57
4, 242688, Note_on_c, 2, 64, 57
4, 242876, Note_off_c, 2, 72, 64
4, 242876, Note_off_c, 2, 64, 64
4, 243456, Note_on_c, 2, 81, 57
4, 243456, Note_on_c, 2, 72, 57
4, 243644, Note_off_c, 2, 81, 64
4, 243644, Note_off_c, 2, 72, 64
4, 244224, Note_on_c, 2, 79, 73
4, 244224, Note_on_c, 2, 76, 73
4, 244604, Note_off_c, 2, 79, 64
4, 244604, Note_off_c, 2, 76, 64
4, 244608, Note_on_c, 2, 76, 57
4, 244608, Note_on_c, 2, 72, 57
4, 244988, Note_off_c, 2, 76, 64
4, 244988, Note_off_c, 2, 72, 64
4, 244992, Note_on_c, 2, 77, 73
4, 244992, Note_on_c, 2, 74, 73
4, 245372, Note_off_c, 2, 77, 64
4, 245372, Note_off_c, 2, 74, 64
4, 245376, Note_on_c, 2, 74, 57
4, 245376, Note_on_c, 2, 71, 57
4, 245756, Note_off_c, 2, 74, 64
4, 245756, Note_off_c, 2, 71, 64
4, 245760, Note_on_c, 2, 76, 57
4, 245760, Note_on_c, 2, 72, 57
4, 245852, Note_off_c, 2, 76, 64
4, 245852, Note_off_c, 2, 72, 64
4, 246144, Note_on_c, 2, 83, 57
4, 246184, Note_off_c, 2, 83, 64
4, 246192, Note_on_c, 2, 84, 57
4, 246284, Note_off_c, 2, 84, 64
4, 246528, Note_on_c, 2, 83, 57
4, 246568, Note_off_c, 2, 83, 64
4, 246576, Note_on_c, 2, 84, 57
4, 246668, Note_off_c, 2, 84, 64
4, 246912, Note_on_c, 2, 83, 57
4, 246952, Note_off_c, 2, 83, 64
4, 246960, Note_on_c, 2, 84, 57
4, 247052, Note_off_c, 2, 84, 64
4, 247680, Note_on_c, 2, 83, 57
4, 247720, Note_off_c, 2, 83, 64
4, 247728, Note_on_c, 2, 84, 57
4, 247820, Note_off_c, 2, 84, 64
4, 248064, Note_on_c, 2, 83, 57
4, 248104, Note_off_c, 2, 83, 64
4, 248112, Note_on_c, 2, 84, 57
4, 248204, Note_off_c, 2, 84, 64
4, 248448, Note_on_c, 2, 83, 57
4, 248488, Note_off_c, 2, 83, 64
4, 248496, Note_on_c, 2, 84, 57
4, 248588, Note_off_c, 2, 84, 64
4, 249216, Note_on_c, 2, 83, 57
4, 249256, Note_off_c, 2, 83, 64
4, 249264, Note_on_c, 2, 84, 57
4, 249356, Note_off_c, 2, 84, 64
4, 249600, Note_on_c, 2, 83, 57
4, 249640, Note_off_c, 2, 83, 64
4, 249648, Note_on_c, 2, 84, 57
4, 249740, Note_off_c, 2, 84, 64
4, 249984, Note_on_c, 2, 83, 57
4, 250024, Note_off_c, 2, 83, 64
4, 250032, Note_on_c, 2, 84, 57
4, 250124, Note_off_c, 2, 84, 64
4, 250752, Note_on_c, 2, 83, 57
4, 250792, Note_off_c, 2, 83, 64
4, 250800, Note_on_c, 2, 84, 57
4, 250892, Note_off_c, 2, 84, 64
4, 251136, Note_on_c, 2, 83, 57
4, 251176, Note_off_c, 2, 83, 64
4, 251184, Note_on_c, 2, 84, 57
4, 251276, Note_off_c, 2, 84, 64
4, 251520, Note_on_c, 2, 83, 57
4, 251560, Note_off_c, 2, 83, 64
4, 251568, Note_on_c, 2, 84, 57
4, 251660, Note_off_c, 2, 84, 64
4, 252288, Note_on_c, 2, 83, 57
4, 252328, Note_off_c, 2, 83, 64
4, 252336, Note_on_c, 2, 84, 57
4, 252428, Note_off_c, 2, 84, 64
4, 252672, Note_on_c, 2, 79, 57
4, 252672, Note_on_c, 2, 76, 57
4, 253052, Note_off_c, 2, 79, 64
4, 253052, Note_off_c, 2, 76, 64
4, 253056, Note_on_c, 2, 76, 57
4, 253056, Note_on_c, 2, 67, 57
4, 253436, Note_off_c, 2, 76, 64
4, 253436, Note_off_c, 2, 67, 64
4, 253440, Note_on_c, 2, 74, 57
4, 253440, Note_on_c, 2, 69, 57
4, 253440, Note_on_c, 2, 65, 57
4, 253820, Note_off_c, 2, 74, 64
4, 253820, Note_off_c, 2, 69, 64
4, 253820, Note_off_c, 2, 65, 64
4, 254592, Note_on_c, 2, 72, 57
4, 254592, Note_on_c, 2, 69, 57
4, 254592, Note_on_c, 2, 62, 57
4, 254972, Note_off_c, 2, 72, 64
4, 254972, Note_off_c, 2, 69, 64
4, 254972, Note_off_c, 2, 62, 64
4, 254976, Note_on_c, 2, 71, 73
4, 254976, Note_on_c, 2, 67, 73
4, 254976, Note_on_c, 2, 62, 73
4, 255356, Note_off_c, 2, 71, 64
4, 255356, Note_off_c, 2, 67, 64
4, 255356, Note_off_c, 2, 62, 64
4, 255360, Note_on_c, 2, 74, 57
4, 255360, Note_on_c, 2, 71, 57
4, 255740, Note_off_c, 2, 74, 64
4, 255740, Note_off_c, 2, 71, 64
4, 255744, Note_on_c, 2, 76, 73
4, 255744, Note_on_c, 2, 72, 73
4, 255744, Note_on_c, 2, 67, 73
4, 256124, Note_off_c, 2, 76, 64
4, 256124, Note_off_c, 2, 72, 64
4, 256124, Note_off_c, 2, 67, 64
4, 256128, Note_on_c, 2, 79, 57
4, 256128, Note_on_c, 2, 76, 57
4, 256508, Note_off_c, 2, 79, 64
4, 256508, Note_off_c, 2, 76, 64
4, 256512, Note_on_c, 2, 71, 57
4, 256512, Note_on_c, 2, 67, 57
4, 256512, Note_on_c, 2, 62, 57
4, 256892, Note_off_c, 2, 71, 64
4, 256892, Note_off_c, 2, 67, 64
4, 256892, Note_off_c, 2, 62, 64
4, 256896, Note_on_c, 2, 74, 57
4, 256896, Note_on_c, 2, 71, 57
4, 257276, Note_off_c, 2, 74, 64
4, 257276, Note_off_c, 2, 71, 64
4, 257280, Note_on_c, 2, 76, 57
4, 257280, Note_on_c, 2, 72, 57
4, 257660, Note_off_c, 2, 76, 64
4, 257660, Note_off_c, 2, 72, 64
4, 257664, Note_on_c, 2, 79, 57
4, 257664, Note_on_c, 2, 76, 57
4, 257852, Note_off_c, 2, 76, 64
4, 257856, Note_on_c, 2, 72, 57
4, 258044, Note_off_c, 2, 79, 64
4, 258044, Note_off_c, 2, 72, 64
4, 258048, Note_on_c, 2, 74, 57
4, 258048, Note_on_c, 2, 71, 57
4, 258428, Note_off_c, 2, 74, 64
4, 258428, Note_off_c, 2, 71, 64
4, 258816, Note_on_c, 2, 83, 88
4, 258816, Note_on_c, 2, 74, 88
4, 258816, Note_on_c, 2, 67, 88
4, 258860, Note_off_c, 2, 83, 64
4, 258860, Note_off_c, 2, 74, 64
4, 258864, Note_on_c, 2, 81, 57
4, 258864, Note_on_c, 2, 72, 57
4, 258916, Note_off_c, 2, 81, 64
4, 258916, Note_off_c, 2, 72, 64
4, 258920, Note_on_c, 2, 71, 57
4, 258920, Note_on_c, 2, 79, 57
4, 259196, Note_off_c, 2, 67, 64
4, 259196, Note_off_c, 2, 71, 64
4, 259196, Note_off_c, 2, 79, 64
4, 260352, Note_on_c, 2, 67, 57
4, 260540, Note_off_c, 2, 67, 64
4, 260544, Note_on_c, 2, 66, 57
4, 260732, Note_off_c, 2, 66, 64
4, 260736, Note_on_c, 2, 67, 57
4, 260924, Note_off_c, 2, 67, 64
4, 260928, Note_on_c, 2, 66, 57
4, 261116, Note_off_c, 2, 66, 64
4, 261120, Note_on_c, 2, 60, 57
4, 261120, Note_on_c, 2, 55, 57
4, 261120, Note_on_c, 2, 67, 57
4, 261212, Note_off_c, 2, 60, 64
4, 261212, Note_off_c, 2, 55, 64
4, 261504, Note_on_c, 2, 62, 57
4, 261504, Note_on_c, 2, 59, 57
4, 261596, Note_off_c, 2, 62, 64
4, 261596, Note_off_c, 2, 59, 64
4, 261888, Note_on_c, 2, 65, 57
4, 261888, Note_on_c, 2, 62, 57
4, 261932, Note_off_c, 2, 65, 64
4, 261932, Note_off_c, 2, 62, 64
4, 261936, Note_on_c, 2, 64, 57
4, 261936, Note_on_c, 2, 60, 57
4, 262028, Note_off_c, 2, 64, 64
4, 262028, Note_off_c, 2, 60, 64
4, 262272, Note_on_c, 2, 62, 57
4, 262272, Note_on_c, 2, 59, 57
4, 262364, Note_off_c, 2, 62, 64
4, 262364, Note_off_c, 2, 59, 64
4, 262652, Note_off_c, 2, 67, 64
4, 263424, Note_on_c, 2, 67, 57
4, 263612, Note_off_c, 2, 67, 64
4, 263616, Note_on_c, 2, 66, 57
4, 263804, Note_off_c, 2, 66, 64
4, 263808, Note_on_c, 2, 67, 57
4, 263996, Note_off_c, 2, 67, 64
4, 264000, Note_on_c, 2, 66, 57
4, 264188, Note_off_c, 2, 66, 64
4, 264192, Note_on_c, 2, 67, 57
4, 264192, Note_on_c, 2, 62, 57
4, 264192, Note_on_c, 2, 59, 57
4, 264284, Note_off_c, 2, 62, 64
4, 264284, Note_off_c, 2, 59, 64
4, 264576, Note_on_c, 2, 64, 57
4, 264576, Note_on_c, 2, 60, 57
4, 264668, Note_off_c, 2, 64, 64
4, 264668, Note_off_c, 2, 60, 64
4, 264960, Note_on_c, 2, 65, 57
4, 264960, Note_on_c, 2, 62, 57
4, 265052, Note_off_c, 2, 65, 64
4, 265052, Note_off_c, 2, 62, 64
4, 265344, Note_on_c, 2, 64, 57
4, 265436, Note_off_c, 2, 64, 64
4, 265724, Note_off_c, 2, 67, 64
4, 268800, Note_on_c, 2, 81, 73
4, 268800, Note_on_c, 2, 84, 73
4, 269180, Note_off_c, 2, 81, 64
4, 269180, Note_off_c, 2, 84, 64
4, 269184, Note_on_c, 2, 81, 57
4, 269184, Note_on_c, 2, 77, 57
4, 269372, Note_off_c, 2, 81, 64
4, 269372, Note_off_c, 2, 77, 64
4, 269568, Note_on_c, 2, 81, 73
4, 269568, Note_on_c, 2, 77, 73
4, 269948, Note_off_c, 2, 81, 64
4, 269948, Note_off_c, 2, 77, 64
4, 269952, Note_on_c, 2, 77, 57
4, 269952, Note_on_c, 2, 74, 57
4, 270140, Note_off_c, 2, 77, 64
4, 270140, Note_off_c, 2, 74, 64
4, 270720, Note_on_c, 2, 60, 62
4, 270720, Note_on_c, 2, 65, 62
4, 270720, Note_on_c, 2, 69, 62
4, 271100, Note_off_c, 2, 60, 64
4, 271100, Note_off_c, 2, 65, 64
4, 271100, Note_off_c, 2, 69, 64
4, 271104, Note_on_c, 2, 72, 73
4, 271104, Note_on_c, 2, 67, 73
4, 271104, Note_on_c, 2, 64, 73
4, 271484, Note_off_c, 2, 72, 64
4, 271484, Note_off_c, 2, 67, 64
4, 271484, Note_off_c, 2, 64, 64
4, 271488, Note_on_c, 2, 76, 69
4, 271488, Note_on_c, 2, 67, 69
4, 271676, Note_off_c, 2, 76, 64
4, 271676, Note_off_c, 2, 67, 64
4, 271680, Note_on_c, 2, 74, 62
4, 271680, Note_on_c, 2, 65, 62
4, 271868, Note_off_c, 2, 74, 64
4, 271868, Note_off_c, 2, 65, 64
4, 271872, Note_on_c, 2, 72, 57
4, 271872, Note_on_c, 2, 64, 57
4, 272252, Note_off_c, 2, 72, 64
4, 272252, Note_off_c, 2, 64, 64
4, 273024, Note_on_c, 2, 84, 57
4, 273024, Note_on_c, 2, 79, 57
4, 273024, Note_on_c, 2, 76, 57
4, 273116, Note_off_c, 2, 84, 64
4, 273116, Note_off_c, 2, 79, 64
4, 273116, Note_off_c, 2, 76, 64
4, 273216, Note_on_c, 2, 81, 57
4, 273216, Note_on_c, 2, 77, 57
4, 273216, Note_on_c, 2, 84, 57
4, 273308, Note_off_c, 2, 81, 64
4, 273308, Note_off_c, 2, 77, 64
4, 273308, Note_off_c, 2, 84, 64
4, 273408, Note_on_c, 2, 84, 57
4, 273408, Note_on_c, 2, 79, 57
4, 273408, Note_on_c, 2, 76, 57
4, 273788, Note_off_c, 2, 84, 64
4, 273788, Note_off_c, 2, 79, 64
4, 273788, Note_off_c, 2, 76, 64
4, 274560, Note_on_c, 2, 84, 57
4, 274560, Note_on_c, 2, 76, 57
4, 274560, Note_on_c, 2, 67, 57
4, 274652, Note_off_c, 2, 84, 64
4, 274652, Note_off_c, 2, 76, 64
4, 274652, Note_off_c, 2, 67, 64
4, 274752, Note_on_c, 2, 84, 57
4, 274752, Note_on_c, 2, 77, 57
4, 274752, Note_on_c, 2, 69, 57
4, 274844, Note_off_c, 2, 84, 64
4, 274844, Note_off_c, 2, 77, 64
4, 274844, Note_off_c, 2, 69, 64
4, 274944, Note_on_c, 2, 84, 57
4, 274944, Note_on_c, 2, 76, 57
4, 274944, Note_on_c, 2, 67, 57
4, 275324, Note_off_c, 2, 84, 64
4, 275324, Note_off_c, 2, 76, 64
4, 275324, Note_off_c, 2, 67, 64
4, 276096, Note_on_c, 2, 84, 57
4, 276096, Note_on_c, 2, 67, 57
4, 276096, Note_on_c, 2, 64, 57
4, 276096, Note_on_c, 2, 72, 57
4, 276188, Note_off_c, 2, 84, 64
4, 276188, Note_off_c, 2, 67, 64
4, 276188, Note_off_c, 2, 64, 64
4, 276188, Note_off_c, 2, 72, 64
4, 276288, Note_on_c, 2, 84, 57
4, 276288, Note_on_c, 2, 69, 57
4, 276288, Note_on_c, 2, 65, 57
4, 276288, Note_on_c, 2, 72, 57
4, 276380, Note_off_c, 2, 84, 64
4, 276380, Note_off_c, 2, 69, 64
4, 276380, Note_off_c, 2, 65, 64
4, 276380, Note_off_c, 2, 72, 64
4, 276480, Note_on_c, 2, 84, 57
4, 276480, Note_on_c, 2, 72, 57
4, 276480, Note_on_c, 2, 67, 57
4, 276480, Note_on_c, 2, 64, 57
4, 276860, Note_off_c, 2, 84, 64
4, 276860, Note_off_c, 2, 72, 64
4, 276860, Note_off_c, 2, 67, 64
4, 276860, Note_off_c, 2, 64, 64
4, 278016, Note_on_c, 2, 81, 57
4, 278016, Note_on_c, 2, 72, 57
4, 278016, Note_on_c, 2, 65, 57
4, 278396, Note_off_c, 2, 81, 64
4, 278396, Note_off_c, 2, 72, 64
4, 278396, Note_off_c, 2, 65, 64
4, 279552, Note_on_c, 2, 76, 57
4, 279552, Note_on_c, 2, 72, 57
4, 279552, Note_on_c, 2, 67, 57
4, 279644, Note_off_c, 2, 76, 64
4, 279644, Note_off_c, 2, 72, 64
4, 279644, Note_off_c, 2, 67, 64
4, 279744, Note_on_c, 2, 76, 57
4, 279744, Note_on_c, 2, 72, 57
4, 279744, Note_on_c, 2, 67, 57
4, 279836, Note_off_c, 2, 76, 64
4, 279836, Note_off_c, 2, 72, 64
4, 279836, Note_off_c, 2, 67, 64
4, 279936, Note_on_c, 2, 76, 57
4, 279936, Note_on_c, 2, 72, 57
4, 279936, Note_on_c, 2, 67, 57
4, 280028, Note_off_c, 2, 76, 64
4, 280028, Note_off_c, 2, 72, 64
4, 280028, Note_off_c, 2, 67, 64
4, 280128, Note_on_c, 2, 76, 57
4, 280128, Note_on_c, 2, 67, 57
4, 280128, Note_on_c, 2, 72, 57
4, 280220, Note_off_c, 2, 76, 64
4, 280220, Note_off_c, 2, 67, 64
4, 280220, Note_off_c, 2, 72, 64
4, 280320, Note_on_c, 2, 74, 57
4, 280320, Note_on_c, 2, 72, 57
4, 280320, Note_on_c, 2, 67, 57
4, 280412, Note_off_c, 2, 74, 64
4, 280412, Note_off_c, 2, 72, 64
4, 280412, Note_off_c, 2, 67, 64
4, 280512, Note_on_c, 2, 74, 64
4, 280512, Note_on_c, 2, 72, 64
4, 280512, Note_on_c, 2, 67, 64
4, 280604, Note_off_c, 2, 74, 64
4, 280604, Note_off_c, 2, 72, 64
4, 280604, Note_off_c, 2, 67, 64
4, 280704, Note_on_c, 2, 74, 73
4, 280704, Note_on_c, 2, 71, 73
4, 280704, Note_on_c, 2, 67, 73
4, 280796, Note_off_c, 2, 74, 64
4, 280796, Note_off_c, 2, 71, 64
4, 280796, Note_off_c, 2, 67, 64
4, 280896, Note_on_c, 2, 74, 81
4, 280896, Note_on_c, 2, 71, 81
4, 280896, Note_on_c, 2, 67, 81
4, 280988, Note_off_c, 2, 74, 64
4, 280988, Note_off_c, 2, 71, 64
4, 280988, Note_off_c, 2, 67, 64
4, 281088, Note_on_c, 2, 76, 88
4, 281088, Note_on_c, 2, 72, 88
4, 281088, Note_on_c, 2, 67, 88
4, 281276, Note_off_c, 2, 76, 64
4, 281276, Note_off_c, 2, 72, 64
4, 281276, Note_off_c, 2, 67, 64
4, 281472, Note_on_c, 2, 74, 88
4, 281472, Note_on_c, 2, 71, 88
4, 281472, Note_on_c, 2, 65, 88
4, 281660, Note_off_c, 2, 74, 64
4, 281660, Note_off_c, 2, 71, 64
4, 281660, Note_off_c, 2, 65, 64
4, 281856, Note_on_c, 2, 67, 88
4, 281856, Note_on_c, 2, 72, 88
4, 282044, Note_off_c, 2, 67, 64
4, 282044, Note_off_c, 2, 72, 64
4, 282624, Note_on_c, 2, 68, 57
4, 282664, Note_off_c, 2, 68, 64
4, 282672, Note_on_c, 2, 69, 57
4, 282672, Note_on_c, 2, 57, 57
4, 282764, Note_off_c, 2, 69, 64
4, 282764, Note_off_c, 2, 57, 64
4, 283008, Note_on_c, 2, 73, 57
4, 283048, Note_off_c, 2, 73, 64
4, 283056, Note_on_c, 2, 74, 57
4, 283056, Note_on_c, 2, 62, 57
4, 283148, Note_off_c, 2, 74, 64
4, 283148, Note_off_c, 2, 62, 64
4, 283392, Note_on_c, 2, 77, 57
4, 283432, Note_off_c, 2, 77, 64
4, 283440, Note_on_c, 2, 62, 57
4, 283440, Note_on_c, 2, 77, 57
4, 283532, Note_off_c, 2, 62, 64
4, 283532, Note_off_c, 2, 77, 64
4, 283776, Note_on_c, 2, 80, 57
4, 283816, Note_off_c, 2, 80, 64
4, 283824, Note_on_c, 2, 69, 57
4, 283824, Note_on_c, 2, 81, 57
4, 283916, Note_off_c, 2, 69, 64
4, 283916, Note_off_c, 2, 81, 64
4, 284352, Note_on_c, 2, 79, 60
4, 284352, Note_on_c, 2, 76, 60
4, 284352, Note_on_c, 2, 67, 60
4, 284444, Note_off_c, 2, 79, 64
4, 284444, Note_off_c, 2, 76, 64
4, 284444, Note_off_c, 2, 67, 64
4, 284544, Note_on_c, 2, 79, 62
4, 284544, Note_on_c, 2, 76, 62
4, 284544, Note_on_c, 2, 67, 62
4, 284636, Note_off_c, 2, 79, 64
4, 284636, Note_off_c, 2, 76, 64
4, 284636, Note_off_c, 2, 67, 64
4, 284736, Note_on_c, 2, 79, 63
4, 284736, Note_on_c, 2, 76, 63
4, 284736, Note_on_c, 2, 67, 63
4, 284828, Note_off_c, 2, 79, 64
4, 284828, Note_off_c, 2, 76, 64
4, 284828, Note_off_c, 2, 67, 64
4, 284928, Note_on_c, 2, 76, 67
4, 284928, Note_on_c, 2, 72, 67
4, 284928, Note_on_c, 2, 67, 67
4, 285020, Note_off_c, 2, 76, 64
4, 285020, Note_off_c, 2, 72, 64
4, 285020, Note_off_c, 2, 67, 64
4, 285120, Note_on_c, 2, 76, 68
4, 285120, Note_on_c, 2, 72, 68
4, 285120, Note_on_c, 2, 67, 68
4, 285212, Note_off_c, 2, 76, 64
4, 285212, Note_off_c, 2, 72, 64
4, 285212, Note_off_c, 2, 67, 64
4, 285312, Note_on_c, 2, 76, 69
4, 285312, Note_on_c, 2, 72, 69
4, 285312, Note_on_c, 2, 67, 69
4, 285404, Note_off_c, 2, 76, 64
4, 285404, Note_off_c, 2, 72, 64
4, 285404, Note_off_c, 2, 67, 64
4, 285504, Note_on_c, 2, 76, 73
4, 285504, Note_on_c, 2, 72, 73
4, 285504, Note_on_c, 2, 67, 73
4, 285596, Note_off_c, 2, 76, 64
4, 285596, Note_off_c, 2, 72, 64
4, 285596, Note_off_c, 2, 67, 64
4, 285696, Note_on_c, 2, 77, 75
4, 285696, Note_on_c, 2, 71, 75
4, 285788, Note_off_c, 2, 77, 64
4, 285788, Note_off_c, 2, 71, 64
4, 285792, Note_on_c, 2, 67, 78
4, 285884, Note_off_c, 2, 67, 64
4, 285888, Note_on_c, 2, 77, 78
4, 285888, Note_on_c, 2, 71, 78
4, 285980, Note_off_c, 2, 77, 64
4, 285980, Note_off_c, 2, 71, 64
4, 285984, Note_on_c, 2, 67, 79
4, 286076, Note_off_c, 2, 67, 64
4, 286080, Note_on_c, 2, 77, 80
4, 286080, Note_on_c, 2, 71, 80
4, 286172, Note_off_c, 2, 77, 64
4, 286172, Note_off_c, 2, 71, 64
4, 286176, Note_on_c, 2, 67, 80
4, 286268, Note_off_c, 2, 67, 64
4, 286272, Note_on_c, 2, 77, 81
4, 286272, Note_on_c, 2, 71, 81
4, 286364, Note_off_c, 2, 77, 64
4, 286364, Note_off_c, 2, 71, 64
4, 286368, Note_on_c, 2, 67, 82
4, 286460, Note_off_c, 2, 67, 64
4, 286464, Note_on_c, 2, 71, 82
4, 286464, Note_on_c, 2, 67, 82
4, 286464, Note_on_c, 2, 65, 82
4, 286556, Note_off_c, 2, 71, 64
4, 286556, Note_off_c, 2, 67, 64
4, 286556, Note_off_c, 2, 65, 64
4, 286560, Note_on_c, 2, 62, 84
4, 286652, Note_off_c, 2, 62, 64
4, 286656, Note_on_c, 2, 71, 86
4, 286656, Note_on_c, 2, 67, 86
4, 286656, Note_on_c, 2, 65, 86
4, 286748, Note_off_c, 2, 71, 64
4, 286748, Note_off_c, 2, 67, 64
4, 286748, Note_off_c, 2, 65, 64
4, 286752, Note_on_c, 2, 62, 86
4, 286844, Note_off_c, 2, 62, 64
4, 286848, Note_on_c, 2, 71, 87
4, 286848, Note_on_c, 2, 67, 87
4, 286848, Note_on_c, 2, 65, 87
4, 286940, Note_off_c, 2, 71, 64
4, 286940, Note_off_c, 2, 67, 64
4, 286940, Note_off_c, 2, 65, 64
4, 286944, Note_on_c, 2, 62, 88
4, 287036, Note_off_c, 2, 62, 64
4, 287040, Note_on_c, 2, 71, 88
4, 287040, Note_on_c, 2, 67, 88
4, 287040, Note_on_c, 2, 65, 88
4, 287132, Note_off_c, 2, 71, 64
4, 287132, Note_off_c, 2, 67, 64
4, 287132, Note_off_c, 2, 65, 64
4, 287136, Note_on_c, 2, 62, 88
4, 287228, Note_off_c, 2, 62, 64
4, 287232, Note_on_c, 2, 72, 88
4, 287232, Note_on_c, 2, 67, 88
4, 287232, Note_on_c, 2, 64, 88
4, 287612, Note_off_c, 2, 72, 64
4, 287612, Note_off_c, 2, 67, 64
4, 287612, Note_off_c, 2, 64, 64
4, 287616, Note_on_c, 2, 76, 88
4, 287708, Note_off_c, 2, 76, 64
4, 287712, Note_on_c, 2, 72, 88
4, 287804, Note_off_c, 2, 72, 64
4, 287808, Note_on_c, 2, 76, 88
4, 287900, Note_off_c, 2, 76, 64
4, 287904, Note_on_c, 2, 72, 88
4, 287996, Note_off_c, 2, 72, 64
4, 288000, Note_on_c, 2, 67, 88
4, 288188, Note_off_c, 2, 67, 64
4, 288192, Note_on_c, 2, 72, 88
4, 288380, Note_off_c, 2, 72, 64
4, 288384, Note_on_c, 2, 67, 88
4, 288476, Note_off_c, 2, 67, 64
4, 288480, Note_on_c, 2, 64, 88
4, 288572, Note_off_c, 2, 64, 64
4, 288576, Note_on_c, 2, 67, 88
4, 288668, Note_off_c, 2, 67, 64
4, 288672, Note_on_c, 2, 64, 88
4, 288764, Note_off_c, 2, 64, 64
4, 288768, Note_on_c, 2, 60, 88
4, 289148, Note_off_c, 2, 60, 64
4, 290304, Note_on_c, 2, 61, 57
4, 290492, Note_off_c, 2, 61, 64
4, 291072, Note_on_c, 2, 62, 57
4, 291260, Note_off_c, 2, 62, 64
4, 291840, Note_on_c, 2, 59, 57
4, 292028, Note_off_c, 2, 59, 64
4, 292608, Note_on_c, 2, 60, 57
4, 292796, Note_off_c, 2, 60, 64
4, 293376, Note_on_c, 2, 83, 88
4, 293376, Note_on_c, 2, 77, 88
4, 293376, Note_on_c, 2, 74, 88
4, 293564, Note_off_c, 2, 83, 64
4, 293564, Note_off_c, 2, 77, 64
4, 293564, Note_off_c, 2, 74, 64
4, 293568, Note_on_c, 2, 77, 88
4, 293568, Note_on_c, 2, 74, 88
4, 293568, Note_on_c, 2, 83, 88
4, 293948, Note_off_c, 2, 77, 64
4, 293948, Note_off_c, 2, 74, 64
4, 293948, Note_off_c, 2, 83, 64
4, 293952, Note_on_c, 2, 83, 88
4, 293952, Note_on_c, 2, 77, 88
4, 293952, Note_on_c, 2, 74, 88
4, 294140, Note_off_c, 2, 83, 64
4, 294140, Note_off_c, 2, 77, 64
4, 294140, Note_off_c, 2, 74, 64
4, 294144, Note_on_c, 2, 83, 88
4, 294144, Note_on_c, 2, 77, 88
4, 294144, Note_on_c, 2, 74, 88
4, 294332, Note_off_c, 2, 83, 64
4, 294332, Note_off_c, 2, 77, 64
4, 294332, Note_off_c, 2, 74, 64
4, 294336, Note_on_c, 2, 83, 88
4, 294336, Note_on_c, 2, 77, 88
4, 294336, Note_on_c, 2, 74, 88
4, 294716, Note_off_c, 2, 83, 64
4, 294716, Note_off_c, 2, 77, 64
4, 294716, Note_off_c, 2, 74, 64
4, 294720, Note_on_c, 2, 83, 88
4, 294720, Note_on_c, 2, 77, 88
4, 294720, Note_on_c, 2, 74, 88
4, 294908, Note_off_c, 2, 83, 64
4, 294908, Note_off_c, 2, 77, 64
4, 294908, Note_off_c, 2, 74, 64
4, 294912, Note_on_c, 2, 76, 88
4, 294912, Note_on_c, 2, 84, 88
4, 295004, Note_off_c, 2, 84, 64
4, 295008, Note_on_c, 2, 83, 88
4, 295100, Note_off_c, 2, 83, 64
4, 295104, Note_on_c, 2, 84, 88
4, 295196, Note_off_c, 2, 84, 64
4, 295200, Note_on_c, 2, 86, 88
4, 295292, Note_off_c, 2, 76, 64
4, 295292, Note_off_c, 2, 86, 64
4, 295296, Note_on_c, 2, 84, 88
4, 295296, Note_on_c, 2, 76, 88
4, 295388, Note_off_c, 2, 84, 64
4, 295388, Note_off_c, 2, 76, 64
4, 295488, Note_on_c, 2, 84, 88
4, 295488, Note_on_c, 2, 76, 88
4, 295580, Note_off_c, 2, 84, 64
4, 295580, Note_off_c, 2, 76, 64
4, 295680, Note_on_c, 2, 76, 88
4, 295680, Note_on_c, 2, 72, 88
4, 295680, Note_on_c, 2, 82, 88
4, 295772, Note_off_c, 2, 82, 64
4, 295776, Note_on_c, 2, 81, 88
4, 295868, Note_off_c, 2, 81, 64
4, 295872, Note_on_c, 2, 82, 88
4, 295964, Note_off_c, 2, 82, 64
4, 295968, Note_on_c, 2, 84, 88
4, 296060, Note_off_c, 2, 76, 64
4, 296060, Note_off_c, 2, 72, 64
4, 296060, Note_off_c, 2, 84, 64
4, 296064, Note_on_c, 2, 82, 88
4, 296064, Note_on_c, 2, 76, 88
4, 296064, Note_on_c, 2, 72, 88
4, 296156, Note_off_c, 2, 82, 64
4, 296156, Note_off_c, 2, 76, 64
4, 296156, Note_off_c, 2, 72, 64
4, 296256, Note_on_c, 2, 82, 88
4, 296256, Note_on_c, 2, 76, 88
4, 296256, Note_on_c, 2, 72, 88
4, 296348, Note_off_c, 2, 82, 64
4, 296348, Note_off_c, 2, 76, 64
4, 296348, Note_off_c, 2, 72, 64
4, 296448, Note_on_c, 2, 81, 88
4, 296448, Note_on_c, 2, 77, 88
4, 296448, Note_on_c, 2, 72, 88
4, 296540, Note_off_c, 2, 81, 64
4, 296544, Note_on_c, 2, 79, 88
4, 296636, Note_off_c, 2, 79, 64
4, 296640, Note_on_c, 2, 81, 88
4, 296732, Note_off_c, 2, 81, 64
4, 296736, Note_on_c, 2, 82, 88
4, 296828, Note_off_c, 2, 77, 64
4, 296828, Note_off_c, 2, 72, 64
4, 296828, Note_off_c, 2, 82, 64
4, 296832, Note_on_c, 2, 81, 88
4, 296832, Note_on_c, 2, 72, 88
4, 296924, Note_off_c, 2, 81, 64
4, 296924, Note_off_c, 2, 72, 64
4, 297024, Note_on_c, 2, 81, 88
4, 297024, Note_on_c, 2, 72, 88
4, 297116, Note_off_c, 2, 81, 64
4, 297116, Note_off_c, 2, 72, 64
4, 297216, Note_on_c, 2, 79, 88
4, 297216, Note_on_c, 2, 72, 88
4, 297308, Note_off_c, 2, 79, 64
4, 297312, Note_on_c, 2, 78, 88
4, 297404, Note_off_c, 2, 78, 64
4, 297408, Note_on_c, 2, 79, 88
4, 297500, Note_off_c, 2, 79, 64
4, 297504, Note_on_c, 2, 81, 88
4, 297596, Note_off_c, 2, 72, 64
4, 297596, Note_off_c, 2, 81, 64
4, 297600, Note_on_c, 2, 79, 88
4, 297600, Note_on_c, 2, 72, 88
4, 297692, Note_off_c, 2, 79, 64
4, 297692, Note_off_c, 2, 72, 64
4, 297792, Note_on_c, 2, 79, 88
4, 297792, Note_on_c, 2, 72, 88
4, 297884, Note_off_c, 2, 79, 64
4, 297884, Note_off_c, 2, 72, 64
4, 297984, Note_on_c, 2, 72, 88
4, 297984, Note_on_c, 2, 72, 88
4, 298076, Note_off_c, 2, 72, 64
4, 298080, Note_on_c, 2, 84, 88
4, 298172, Note_off_c, 2, 84, 64
4, 298176, Note_on_c, 2, 72, 88
4, 298268, Note_off_c, 2, 72, 64
4, 298272, Note_on_c, 2, 84, 88
4, 298364, Note_off_c, 2, 72, 64
4, 298364, Note_off_c, 2, 84, 64
4, 298368, Note_on_c, 2, 76, 88
4, 298368, Note_on_c, 2, 76, 88
4, 298460, Note_off_c, 2, 76, 64
4, 298464, Note_on_c, 2, 84, 88
4, 298556, Note_off_c, 2, 84, 64
4, 298560, Note_on_c, 2, 72, 88
4, 298652, Note_off_c, 2, 72, 64
4, 298656, Note_on_c, 2, 84, 88
4, 298748, Note_off_c, 2, 76, 64
4, 298748, Note_off_c, 2, 84, 64
4, 298752, Note_on_c, 2, 77, 88
4, 298752, Note_on_c, 2, 77, 88
4, 298844, Note_off_c, 2, 77, 64
4, 298848, Note_on_c, 2, 84, 88
4, 298940, Note_off_c, 2, 84, 64
4, 298944, Note_on_c, 2, 72, 88
4, 299036, Note_off_c, 2, 72, 64
4, 299040, Note_on_c, 2, 84, 88
4, 299132, Note_off_c, 2, 77, 64
4, 299132, Note_off_c, 2, 84, 64
4, 299136, Note_on_c, 2, 74, 88
4, 299136, Note_on_c, 2, 74, 88
4, 299228, Note_off_c, 2, 74, 64
4, 299232, Note_on_c, 2, 84, 88
4, 299324, Note_off_c, 2, 84, 64
4, 299328, Note_on_c, 2, 72, 88
4, 299420, Note_off_c, 2, 72, 64
4, 299424, Note_on_c, 2, 84, 88
4, 299516, Note_off_c, 2, 74, 64
4, 299516, Note_off_c, 2, 84, 64
4, 299520, Note_on_c, 2, 84, 88
4, 299520, Note_on_c, 2, 76, 88
4, 299520, Note_on_c, 2, 72, 88
4, 300484, Note_off_c, 2, 84, 64
4, 300484, Note_off_c, 2, 76, 64
4, 300484, Note_off_c, 2, 72, 64
4, 316416, Note_on_c, 2, 72, 106
4, 316416, Note_on_c, 2, 67, 106
4, 316416, Note_on_c, 2, 64, 106
4, 316988, Note_off_c, 2, 72, 64
4, 316988, Note_off_c, 2, 67, 64
4, 316988, Note_off_c, 2, 64, 64
4, 316992, Note_on_c, 2, 79, 100
4, 317032, Note_off_c, 2, 79, 64
4, 317040, Note_on_c, 2, 81, 100
4, 317080, Note_off_c, 2, 81, 64
4, 317088, Note_on_c, 2, 78, 100
4, 317128, Note_off_c, 2, 78, 64
4, 317136, Note_on_c, 2, 79, 100
4, 317176, Note_off_c, 2, 79, 64
4, 317184, Note_on_c, 2, 76, 88
4, 317276, Note_off_c, 2, 76, 64
4, 317376, Note_on_c, 2, 72, 88
4, 317468, Note_off_c, 2, 72, 64
4, 317568, Note_on_c, 2, 82, 88
4, 317660, Note_off_c, 2, 82, 64
4, 317760, Note_on_c, 2, 79, 88
4, 317852, Note_off_c, 2, 79, 64
4, 317952, Note_on_c, 2, 81, 106
4, 317952, Note_on_c, 2, 77, 106
4, 318524, Note_off_c, 2, 81, 64
4, 318524, Note_off_c, 2, 77, 64
4, 318528, Note_on_c, 2, 77, 100
4, 318568, Note_off_c, 2, 77, 64
4, 318576, Note_on_c, 2, 79, 100
4, 318616, Note_off_c, 2, 79, 64
4, 318624, Note_on_c, 2, 76, 100
4, 318664, Note_off_c, 2, 76, 64
4, 318672, Note_on_c, 2, 77, 100
4, 318712, Note_off_c, 2, 77, 64
4, 318720, Note_on_c, 2, 74, 88
4, 318812, Note_off_c, 2, 74, 64
4, 318912, Note_on_c, 2, 69, 88
4, 319004, Note_off_c, 2, 69, 64
4, 319104, Note_on_c, 2, 77, 88
4, 319104, Note_on_c, 2, 81, 88
4, 319196, Note_off_c, 2, 77, 64
4, 319196, Note_off_c, 2, 81, 64
4, 319296, Note_on_c, 2, 77, 88
4, 319296, Note_on_c, 2, 74, 88
4, 319388, Note_off_c, 2, 77, 64
4, 319388, Note_off_c, 2, 74, 64
4, 319488, Note_on_c, 2, 76, 57
4, 319488, Note_on_c, 2, 72, 57
4, 319580, Note_off_c, 2, 76, 64
4, 319580, Note_off_c, 2, 72, 64
4, 319584, Note_on_c, 2, 77, 57
4, 319584, Note_on_c, 2, 74, 57
4, 319676, Note_off_c, 2, 77, 64
4, 319676, Note_off_c, 2, 74, 64
4, 319680, Note_on_c, 2, 79, 57
4, 319680, Note_on_c, 2, 76, 57
4, 319720, Note_off_c, 2, 79, 64
4, 319720, Note_off_c, 2, 76, 64
4, 319872, Note_on_c, 2, 76, 79
4, 319872, Note_on_c, 2, 79, 79
4, 320348, Note_off_c, 2, 76, 64
4, 320348, Note_off_c, 2, 79, 64
4, 320448, Note_on_c, 2, 77, 69
4, 320448, Note_on_c, 2, 74, 69
4, 320540, Note_off_c, 2, 77, 64
4, 320540, Note_off_c, 2, 74, 64
4, 320640, Note_on_c, 2, 76, 78
4, 320640, Note_on_c, 2, 72, 78
4, 320732, Note_off_c, 2, 76, 64
4, 320732, Note_off_c, 2, 72, 64
4, 320832, Note_on_c, 2, 74, 84
4, 320832, Note_on_c, 2, 71, 84
4, 320924, Note_off_c, 2, 74, 64
4, 320924, Note_off_c, 2, 71, 64
4, 321024, Note_on_c, 2, 84, 106
4, 321024, Note_on_c, 2, 79, 106
4, 321024, Note_on_c, 2, 72, 106
4, 321596, Note_off_c, 2, 84, 64
4, 321596, Note_off_c, 2, 79, 64
4, 321596, Note_off_c, 2, 72, 64
4, 321600, Note_on_c, 2, 79, 100
4, 321640, Note_off_c, 2, 79, 64
4, 321648, Note_on_c, 2, 81, 100
4, 321688, Note_off_c, 2, 81, 64
4, 321696, Note_on_c, 2, 78, 100
4, 321736, Note_off_c, 2, 78, 64
4, 321744, Note_on_c, 2, 79, 100
4, 321784, Note_off_c, 2, 79, 64
4, 321792, Note_on_c, 2, 76, 88
4, 321884, Note_off_c, 2, 76, 64
4, 321984, Note_on_c, 2, 72, 88
4, 322076, Note_off_c, 2, 72, 64
4, 322176, Note_on_c, 2, 82, 88
4, 322268, Note_off_c, 2, 82, 64
4, 322368, Note_on_c, 2, 79, 88
4, 322460, Note_off_c, 2, 79, 64
4, 322560, Note_on_c, 2, 81, 106
4, 322560, Note_on_c, 2, 77, 106
4, 323132, Note_off_c, 2, 81, 64
4, 323132, Note_off_c, 2, 77, 64
4, 323136, Note_on_c, 2, 77, 100
4, 323176, Note_off_c, 2, 77, 64
4, 323184, Note_on_c, 2, 79, 100
4, 323224, Note_off_c, 2, 79, 64
4, 323232, Note_on_c, 2, 76, 100
4, 323272, Note_off_c, 2, 76, 64
4, 323280, Note_on_c, 2, 77, 100
4, 323320, Note_off_c, 2, 77, 64
4, 323328, Note_on_c, 2, 72, 88
4, 323420, Note_off_c, 2, 72, 64
4, 323520, Note_on_c, 2, 69, 88
4, 323612, Note_off_c, 2, 69, 64
4, 323712, Note_on_c, 2, 77, 88
4, 323712, Note_on_c, 2, 81, 88
4, 323804, Note_off_c, 2, 77, 64
4, 323804, Note_off_c, 2, 81, 64
4, 323904, Note_on_c, 2, 77, 88
4, 323904, Note_on_c, 2, 74, 88
4, 323996, Note_off_c, 2, 77, 64
4, 323996, Note_off_c, 2, 74, 64
4, 324096, Note_on_c, 2, 76, 88
4, 324096, Note_on_c, 2, 72, 88
4, 324188, Note_off_c, 2, 76, 64
4, 324188, Note_off_c, 2, 72, 64
4, 324192, Note_on_c, 2, 77, 88
4, 324192, Note_on_c, 2, 74, 88
4, 324284, Note_off_c, 2, 77, 64
4, 324284, Note_off_c, 2, 74, 64
4, 324288, Note_on_c, 2, 79, 88
4, 324288, Note_on_c, 2, 76, 88
4, 324328, Note_off_c, 2, 79, 64
4, 324328, Note_off_c, 2, 76, 64
4, 324480, Note_on_c, 2, 76, 106
4, 324480, Note_on_c, 2, 79, 106
4, 325052, Note_off_c, 2, 76, 64
4, 325052, Note_off_c, 2, 79, 64
4, 325056, Note_on_c, 2, 77, 88
4, 325056, Note_on_c, 2, 74, 88
4, 325148, Note_off_c, 2, 77, 64
4, 325148, Note_off_c, 2, 74, 64
4, 325248, Note_on_c, 2, 76, 88
4, 325248, Note_on_c, 2, 72, 88
4, 325340, Note_off_c, 2, 76, 64
4, 325340, Note_off_c, 2, 72, 64
4, 325440, Note_on_c, 2, 74, 88
4, 325440, Note_on_c, 2, 71, 88
4, 325532, Note_off_c, 2, 74, 64
4, 325532, Note_off_c, 2, 71, 64
4, 325632, Note_on_c, 2, 72, 106
4, 326012, Note_off_c, 2, 72, 64
4, 326016, Note_on_c, 2, 76, 106
4, 326108, Note_off_c, 2, 76, 64
4, 326112, Note_on_c, 2, 72, 106
4, 326204, Note_off_c, 2, 72, 64
4, 326208, Note_on_c, 2, 76, 106
4, 326248, Note_off_c, 2, 76, 64
4, 326304, Note_on_c, 2, 72, 106
4, 326344, Note_off_c, 2, 72, 64
4, 326400, Note_on_c, 2, 67, 106
4, 326588, Note_off_c, 2, 67, 64
4, 326592, Note_on_c, 2, 72, 106
4, 326780, Note_off_c, 2, 72, 64
4, 326784, Note_on_c, 2, 67, 106
4, 326876, Note_off_c, 2, 67, 64
4, 326880, Note_on_c, 2, 64, 106
4, 326972, Note_off_c, 2, 64, 64
4, 326976, Note_on_c, 2, 67, 106
4, 327016, Note_off_c, 2, 67, 64
4, 327072, Note_on_c, 2, 64, 106
4, 327112, Note_off_c, 2, 64, 64
4, 327168, Note_on_c, 2, 60, 106
4, 327356, Note_off_c, 2, 60, 64
4, 327552, Note_on_c, 2, 72, 106
4, 327552, Note_on_c, 2, 67, 106
4, 327552, Note_on_c, 2, 64, 106
4, 327740, Note_off_c, 2, 72, 64
4, 327740, Note_off_c, 2, 67, 64
4, 327740, Note_off_c, 2, 64, 64
4, 327936, Note_on_c, 2, 72, 106
4, 327936, Note_on_c, 2, 67, 106
4, 327936, Note_on_c, 2, 64, 106
4, 328124, Note_off_c, 2, 72, 64
4, 328124, Note_off_c, 2, 67, 64
4, 328124, Note_off_c, 2, 64, 64
4, 328124, End_track
5, 0, Start_track
5, 0, Title_t, "B.Fisher"
5, 0, Control_c, 3, 0, 0
5, 0, Program_c, 3, 48
5, 0, Control_c, 3, 7, 127
5, 0, Control_c, 3, 10, 87
5, 0, Control_c, 3, 91, 63
5, 0, Control_c, 3, 93, 2
5, 0, Key_signature, 0, "major"
5, 0, Control_c, 3, 121, 0
5, 864, Control_c, 3, 10, 73
5, 960, Control_c, 3, 91, 63
5, 1152, Program_c, 3, 48
5, 1536, Note_on_c, 3, 60, 88
5, 1536, Note_on_c, 3, 55, 88
5, 1536, Note_on_c, 3, 48, 88
5, 2300, Note_off_c, 3, 60, 64
5, 2300, Note_off_c, 3, 55, 64
5, 2300, Note_off_c, 3, 48, 64
5, 3072, Note_on_c, 3, 55, 88
5, 3072, Note_on_c, 3, 48, 88
5, 3164, Note_off_c, 3, 55, 64
5, 3164, Note_off_c, 3, 48, 64
5, 3264, Note_on_c, 3, 60, 88
5, 3356, Note_off_c, 3, 60, 64
5, 3456, Note_on_c, 3, 48, 88
5, 3548, Note_off_c, 3, 48, 64
5, 3648, Note_on_c, 3, 60, 88
5, 3740, Note_off_c, 3, 60, 64
5, 3840, Note_on_c, 3, 48, 88
5, 3932, Note_off_c, 3, 48, 64
5, 4032, Note_on_c, 3, 60, 88
5, 4124, Note_off_c, 3, 60, 64
5, 4224, Note_on_c, 3, 48, 88
5, 4316, Note_off_c, 3, 48, 64
5, 4416, Note_on_c, 3, 60, 88
5, 4508, Note_off_c, 3, 60, 64
5, 4608, Note_on_c, 3, 55, 88
5, 4608, Note_on_c, 3, 48, 88
5, 4700, Note_off_c, 3, 55, 64
5, 4700, Note_off_c, 3, 48, 64
5, 4800, Note_on_c, 3, 60, 88
5, 4892, Note_off_c, 3, 60, 64
5, 4992, Note_on_c, 3, 48, 88
5, 5084, Note_off_c, 3, 48, 64
5, 5184, Note_on_c, 3, 60, 88
5, 5276, Note_off_c, 3, 60, 64
5, 5376, Note_on_c, 3, 48, 88
5, 5376, Note_on_c, 3, 55, 88
5, 5468, Note_off_c, 3, 48, 64
5, 5468, Note_off_c, 3, 55, 64
5, 5568, Note_on_c, 3, 60, 88
5, 5660, Note_off_c, 3, 60, 64
5, 5760, Note_on_c, 3, 48, 88
5, 5852, Note_off_c, 3, 48, 64
5, 5952, Note_on_c, 3, 60, 88
5, 6044, Note_off_c, 3, 60, 64
5, 6144, Note_on_c, 3, 55, 88
5, 6144, Note_on_c, 3, 48, 88
5, 6236, Note_off_c, 3, 55, 64
5, 6236, Note_off_c, 3, 48, 64
5, 6336, Note_on_c, 3, 60, 88
5, 6428, Note_off_c, 3, 60, 64
5, 6528, Note_on_c, 3, 55, 88
5, 6620, Note_off_c, 3, 55, 64
5, 6720, Note_on_c, 3, 52, 82
5, 6812, Note_off_c, 3, 52, 64
5, 6912, Note_on_c, 3, 48, 76
5, 7292, Note_off_c, 3, 48, 64
5, 7680, Note_on_c, 3, 65, 60
5, 7868, Note_off_c, 3, 65, 64
5, 7872, Note_on_c, 3, 55, 60
5, 8060, Note_off_c, 3, 55, 64
5, 8064, Note_on_c, 3, 65, 60
5, 8252, Note_off_c, 3, 65, 64
5, 8256, Note_on_c, 3, 55, 60
5, 8444, Note_off_c, 3, 55, 64
5, 8448, Note_on_c, 3, 64, 60
5, 8636, Note_off_c, 3, 64, 64
5, 8640, Note_on_c, 3, 55, 60
5, 8828, Note_off_c, 3, 55, 64
5, 8832, Note_on_c, 3, 64, 60
5, 9020, Note_off_c, 3, 64, 64
5, 9024, Note_on_c, 3, 55, 60
5, 9212, Note_off_c, 3, 55, 64
5, 9216, Note_on_c, 3, 65, 60
5, 9216, Note_on_c, 3, 59, 60
5, 9404, Note_off_c, 3, 65, 64
5, 9404, Note_off_c, 3, 59, 64
5, 9408, Note_on_c, 3, 55, 60
5, 9596, Note_off_c, 3, 55, 64
5, 9600, Note_on_c, 3, 65, 60
5, 9600, Note_on_c, 3, 59, 60
5, 9788, Note_off_c, 3, 65, 64
5, 9788, Note_off_c, 3, 59, 64
5, 9792, Note_on_c, 3, 55, 60
5, 9980, Note_off_c, 3, 55, 64
5, 9984, Note_on_c, 3, 64, 60
5, 9984, Note_on_c, 3, 60, 60
5, 10172, Note_off_c, 3, 64, 64
5, 10172, Note_off_c, 3, 60, 64
5, 10176, Note_on_c, 3, 55, 60
5, 10364, Note_off_c, 3, 55, 64
5, 10368, Note_on_c, 3, 64, 60
5, 10368, Note_on_c, 3, 60, 60
5, 10556, Note_off_c, 3, 64, 64
5, 10556, Note_off_c, 3, 60, 64
5, 10560, Note_on_c, 3, 55, 60
5, 10748, Note_off_c, 3, 55, 64
5, 10752, Note_on_c, 3, 59, 88
5, 10752, Note_on_c, 3, 47, 88
5, 10940, Note_off_c, 3, 59, 64
5, 10940, Note_off_c, 3, 47, 64
5, 11136, Note_on_c, 3, 60, 88
5, 11136, Note_on_c, 3, 48, 88
5, 11324, Note_off_c, 3, 60, 64
5, 11324, Note_off_c, 3, 48, 64
5, 11520, Note_on_c, 3, 53, 88
5, 11520, Note_on_c, 3, 41, 88
5, 11708, Note_off_c, 3, 53, 64
5, 11708, Note_off_c, 3, 41, 64
5, 11904, Note_on_c, 3, 55, 88
5, 11904, Note_on_c, 3, 43, 88
5, 12092, Note_off_c, 3, 55, 64
5, 12092, Note_off_c, 3, 43, 64
5, 12288, Note_on_c, 3, 55, 88
5, 12288, Note_on_c, 3, 48, 88
5, 12476, Note_off_c, 3, 55, 64
5, 12476, Note_off_c, 3, 48, 64
5, 17664, Note_on_c, 3, 57, 60
5, 17664, Note_on_c, 3, 53, 60
5, 17852, Note_off_c, 3, 57, 64
5, 17852, Note_off_c, 3, 53, 64
5, 18048, Note_on_c, 3, 55, 60
5, 18236, Note_off_c, 3, 55, 64
5, 18432, Note_on_c, 3, 55, 62
5, 18432, Note_on_c, 3, 52, 62
5, 18432, Note_on_c, 3, 48, 62
5, 18524, Note_off_c, 3, 55, 64
5, 18524, Note_off_c, 3, 52, 64
5, 18524, Note_off_c, 3, 48, 64
5, 18528, Note_on_c, 3, 60, 68
5, 18620, Note_off_c, 3, 60, 64
5, 18624, Note_on_c, 3, 55, 74
5, 18624, Note_on_c, 3, 52, 74
5, 18624, Note_on_c, 3, 48, 74
5, 18716, Note_off_c, 3, 55, 64
5, 18716, Note_off_c, 3, 52, 64
5, 18716, Note_off_c, 3, 48, 64
5, 18720, Note_on_c, 3, 60, 82
5, 18812, Note_off_c, 3, 60, 64
5, 18816, Note_on_c, 3, 55, 88
5, 18816, Note_on_c, 3, 52, 88
5, 18816, Note_on_c, 3, 48, 88
5, 18908, Note_off_c, 3, 55, 64
5, 18908, Note_off_c, 3, 52, 64
5, 18908, Note_off_c, 3, 48, 64
5, 18912, Note_on_c, 3, 60, 88
5, 19004, Note_off_c, 3, 60, 64
5, 19008, Note_on_c, 3, 57, 88
5, 19008, Note_on_c, 3, 53, 88
5, 19008, Note_on_c, 3, 48, 88
5, 19100, Note_off_c, 3, 57, 64
5, 19100, Note_off_c, 3, 53, 64
5, 19100, Note_off_c, 3, 48, 64
5, 19104, Note_on_c, 3, 60, 88
5, 19196, Note_off_c, 3, 60, 64
5, 19200, Note_on_c, 3, 57, 88
5, 19200, Note_on_c, 3, 53, 88
5, 19200, Note_on_c, 3, 48, 88
5, 19292, Note_off_c, 3, 57, 64
5, 19292, Note_off_c, 3, 53, 64
5, 19292, Note_off_c, 3, 48, 64
5, 19296, Note_on_c, 3, 60, 88
5, 19388, Note_off_c, 3, 60, 64
5, 19392, Note_on_c, 3, 53, 88
5, 19392, Note_on_c, 3, 48, 88
5, 19392, Note_on_c, 3, 57, 88
5, 19484, Note_off_c, 3, 53, 64
5, 19484, Note_off_c, 3, 48, 64
5, 19484, Note_off_c, 3, 57, 64
5, 19488, Note_on_c, 3, 60, 88
5, 19580, Note_off_c, 3, 60, 64
5, 19584, Note_on_c, 3, 57, 88
5, 19584, Note_on_c, 3, 48, 88
5, 19584, Note_on_c, 3, 53, 88
5, 19676, Note_off_c, 3, 57, 64
5, 19676, Note_off_c, 3, 48, 64
5, 19676, Note_off_c, 3, 53, 64
5, 19680, Note_on_c, 3, 60, 88
5, 19772, Note_off_c, 3, 60, 64
5, 19776, Note_on_c, 3, 57, 88
5, 19776, Note_on_c, 3, 53, 88
5, 19776, Note_on_c, 3, 48, 88
5, 19868, Note_off_c, 3, 57, 64
5, 19868, Note_off_c, 3, 53, 64
5, 19868, Note_off_c, 3, 48, 64
5, 19872, Note_on_c, 3, 60, 88
5, 19964, Note_off_c, 3, 60, 64
5, 19968, Note_on_c, 3, 55, 97
5, 19968, Note_on_c, 3, 52, 97
5, 19968, Note_on_c, 3, 48, 97
5, 20060, Note_off_c, 3, 55, 64
5, 20060, Note_off_c, 3, 52, 64
5, 20060, Note_off_c, 3, 48, 64
5, 20064, Note_on_c, 3, 60, 88
5, 20156, Note_off_c, 3, 60, 64
5, 20160, Note_on_c, 3, 55, 88
5, 20160, Note_on_c, 3, 52, 88
5, 20160, Note_on_c, 3, 48, 88
5, 20252, Note_off_c, 3, 55, 64
5, 20252, Note_off_c, 3, 52, 64
5, 20252, Note_off_c, 3, 48, 64
5, 20256, Note_on_c, 3, 60, 88
5, 20348, Note_off_c, 3, 60, 64
5, 20352, Note_on_c, 3, 55, 88
5, 20352, Note_on_c, 3, 52, 88
5, 20352, Note_on_c, 3, 48, 88
5, 20444, Note_off_c, 3, 55, 64
5, 20444, Note_off_c, 3, 52, 64
5, 20444, Note_off_c, 3, 48, 64
5, 20448, Note_on_c, 3, 60, 88
5, 20540, Note_off_c, 3, 60, 64
5, 20544, Note_on_c, 3, 57, 88
5, 20544, Note_on_c, 3, 53, 88
5, 20544, Note_on_c, 3, 48, 88
5, 20636, Note_off_c, 3, 57, 64
5, 20636, Note_off_c, 3, 53, 64
5, 20636, Note_off_c, 3, 48, 64
5, 20640, Note_on_c, 3, 60, 88
5, 20732, Note_off_c, 3, 60, 64
5, 20736, Note_on_c, 3, 57, 88
5, 20736, Note_on_c, 3, 53, 88
5, 20736, Note_on_c, 3, 48, 88
5, 20828, Note_off_c, 3, 57, 64
5, 20828, Note_off_c, 3, 53, 64
5, 20828, Note_off_c, 3, 48, 64
5, 20832, Note_on_c, 3, 60, 88
5, 20924, Note_off_c, 3, 60, 64
5, 20928, Note_on_c, 3, 53, 88
5, 20928, Note_on_c, 3, 48, 88
5, 20928, Note_on_c, 3, 57, 88
5, 21020, Note_off_c, 3, 53, 64
5, 21020, Note_off_c, 3, 48, 64
5, 21020, Note_off_c, 3, 57, 64
5, 21024, Note_on_c, 3, 60, 88
5, 21116, Note_off_c, 3, 60, 64
5, 21120, Note_on_c, 3, 57, 88
5, 21120, Note_on_c, 3, 48, 88
5, 21120, Note_on_c, 3, 53, 88
5, 21212, Note_off_c, 3, 57, 64
5, 21212, Note_off_c, 3, 48, 64
5, 21212, Note_off_c, 3, 53, 64
5, 21216, Note_on_c, 3, 60, 88
5, 21308, Note_off_c, 3, 60, 64
5, 21312, Note_on_c, 3, 57, 88
5, 21312, Note_on_c, 3, 53, 88
5, 21312, Note_on_c, 3, 48, 88
5, 21404, Note_off_c, 3, 57, 64
5, 21404, Note_off_c, 3, 53, 64
5, 21404, Note_off_c, 3, 48, 64
5, 21408, Note_on_c, 3, 60, 88
5, 21500, Note_off_c, 3, 60, 64
5, 21504, Note_on_c, 3, 60, 97
5, 21504, Note_on_c, 3, 55, 97
5, 21504, Note_on_c, 3, 52, 97
5, 21504, Note_on_c, 3, 48, 97
5, 21692, Note_off_c, 3, 60, 64
5, 21692, Note_off_c, 3, 55, 64
5, 21692, Note_off_c, 3, 52, 64
5, 21692, Note_off_c, 3, 48, 64
5, 24576, Note_on_c, 3, 55, 88
5, 24668, Note_off_c, 3, 55, 64
5, 24672, Note_on_c, 3, 57, 88
5, 24764, Note_off_c, 3, 57, 64
5, 24768, Note_on_c, 3, 59, 88
5, 24860, Note_off_c, 3, 59, 64
5, 24864, Note_on_c, 3, 57, 88
5, 24956, Note_off_c, 3, 57, 64
5, 24960, Note_on_c, 3, 55, 88
5, 25052, Note_off_c, 3, 55, 64
5, 25056, Note_on_c, 3, 57, 88
5, 25148, Note_off_c, 3, 57, 64
5, 25152, Note_on_c, 3, 59, 88
5, 25244, Note_off_c, 3, 59, 64
5, 25248, Note_on_c, 3, 55, 88
5, 25340, Note_off_c, 3, 55, 64
5, 25344, Note_on_c, 3, 60, 88
5, 25436, Note_off_c, 3, 60, 64
5, 25440, Note_on_c, 3, 62, 88
5, 25520, Note_on_c, 3, 64, 88
5, 25532, Note_off_c, 3, 62, 64
5, 25612, Note_off_c, 3, 64, 64
5, 25632, Note_on_c, 3, 62, 88
5, 25724, Note_off_c, 3, 62, 64
5, 25728, Note_on_c, 3, 60, 88
5, 25820, Note_off_c, 3, 60, 64
5, 25824, Note_on_c, 3, 62, 88
5, 25916, Note_off_c, 3, 62, 64
5, 25920, Note_on_c, 3, 64, 88
5, 26012, Note_off_c, 3, 64, 64
5, 26016, Note_on_c, 3, 62, 88
5, 26108, Note_off_c, 3, 62, 64
5, 26112, Note_on_c, 3, 55, 88
5, 26204, Note_off_c, 3, 55, 64
5, 26208, Note_on_c, 3, 57, 88
5, 26300, Note_off_c, 3, 57, 64
5, 26304, Note_on_c, 3, 59, 88
5, 26396, Note_off_c, 3, 59, 64
5, 26400, Note_on_c, 3, 57, 88
5, 26492, Note_off_c, 3, 57, 64
5, 26496, Note_on_c, 3, 55, 88
5, 26588, Note_off_c, 3, 55, 64
5, 26592, Note_on_c, 3, 57, 88
5, 26684, Note_off_c, 3, 57, 64
5, 26688, Note_on_c, 3, 59, 88
5, 26780, Note_off_c, 3, 59, 64
5, 26784, Note_on_c, 3, 55, 88
5, 26876, Note_off_c, 3, 55, 64
5, 26880, Note_on_c, 3, 60, 88
5, 26972, Note_off_c, 3, 60, 64
5, 26976, Note_on_c, 3, 62, 88
5, 27068, Note_off_c, 3, 62, 64
5, 27072, Note_on_c, 3, 64, 88
5, 27164, Note_off_c, 3, 64, 64
5, 27168, Note_on_c, 3, 62, 88
5, 27260, Note_off_c, 3, 62, 64
5, 27264, Note_on_c, 3, 60, 88
5, 27356, Note_off_c, 3, 60, 64
5, 27360, Note_on_c, 3, 62, 88
5, 27452, Note_off_c, 3, 62, 64
5, 27456, Note_on_c, 3, 64, 88
5, 27548, Note_off_c, 3, 64, 64
5, 27552, Note_on_c, 3, 60, 88
5, 27644, Note_off_c, 3, 60, 64
5, 27648, Note_on_c, 3, 55, 100
5, 27648, Note_on_c, 3, 62, 100
5, 27692, Note_off_c, 3, 55, 64
5, 27692, Note_off_c, 3, 62, 64
5, 27696, Note_on_c, 3, 60, 88
5, 27748, Note_off_c, 3, 60, 64
5, 27752, Note_on_c, 3, 59, 88
5, 28028, Note_off_c, 3, 59, 64
5, 28416, Note_on_c, 3, 55, 100
5, 28416, Note_on_c, 3, 62, 100
5, 28460, Note_off_c, 3, 55, 64
5, 28460, Note_off_c, 3, 62, 64
5, 28464, Note_on_c, 3, 60, 88
5, 28516, Note_off_c, 3, 60, 64
5, 28520, Note_on_c, 3, 59, 88
5, 28796, Note_off_c, 3, 59, 64
5, 29952, Note_on_c, 3, 55, 60
5, 30140, Note_off_c, 3, 55, 64
5, 30144, Note_on_c, 3, 54, 60
5, 30332, Note_off_c, 3, 54, 64
5, 30336, Note_on_c, 3, 55, 60
5, 30524, Note_off_c, 3, 55, 64
5, 30528, Note_on_c, 3, 54, 60
5, 30716, Note_off_c, 3, 54, 64
5, 30720, Note_on_c, 3, 55, 60
5, 30720, Note_on_c, 3, 52, 60
5, 30812, Note_off_c, 3, 55, 64
5, 30812, Note_off_c, 3, 52, 64
5, 31104, Note_on_c, 3, 59, 60
5, 31104, Note_on_c, 3, 55, 60
5, 31196, Note_off_c, 3, 59, 64
5, 31196, Note_off_c, 3, 55, 64
5, 31488, Note_on_c, 3, 62, 60
5, 31532, Note_off_c, 3, 62, 64
5, 31536, Note_on_c, 3, 60, 60
5, 31584, Note_off_c, 3, 60, 64
5, 31872, Note_on_c, 3, 59, 60
5, 31872, Note_on_c, 3, 55, 60
5, 31964, Note_off_c, 3, 59, 64
5, 31964, Note_off_c, 3, 55, 64
5, 33024, Note_on_c, 3, 55, 60
5, 33212, Note_off_c, 3, 55, 64
5, 33216, Note_on_c, 3, 54, 60
5, 33404, Note_off_c, 3, 54, 64
5, 33408, Note_on_c, 3, 55, 60
5, 33596, Note_off_c, 3, 55, 64
5, 33600, Note_on_c, 3, 54, 60
5, 33788, Note_off_c, 3, 54, 64
5, 33792, Note_on_c, 3, 53, 60
5, 33792, Note_on_c, 3, 55, 66
5, 33884, Note_off_c, 3, 53, 64
5, 34176, Note_on_c, 3, 52, 60
5, 34268, Note_off_c, 3, 52, 64
5, 34560, Note_on_c, 3, 47, 60
5, 34652, Note_off_c, 3, 47, 64
5, 34944, Note_on_c, 3, 48, 60
5, 35036, Note_off_c, 3, 48, 64
5, 35324, Note_off_c, 3, 55, 64
5, 35328, Note_on_c, 3, 55, 88
5, 35328, Note_on_c, 3, 52, 88
5, 35420, Note_off_c, 3, 55, 64
5, 35420, Note_off_c, 3, 52, 64
5, 35424, Note_on_c, 3, 60, 88
5, 35516, Note_off_c, 3, 60, 64
5, 35520, Note_on_c, 3, 55, 88
5, 35520, Note_on_c, 3, 52, 88
5, 35612, Note_off_c, 3, 55, 64
5, 35612, Note_off_c, 3, 52, 64
5, 35616, Note_on_c, 3, 60, 88
5, 35708, Note_off_c, 3, 60, 64
5, 35712, Note_on_c, 3, 55, 88
5, 35712, Note_on_c, 3, 52, 88
5, 35804, Note_off_c, 3, 55, 64
5, 35804, Note_off_c, 3, 52, 64
5, 35808, Note_on_c, 3, 60, 88
5, 35900, Note_off_c, 3, 60, 64
5, 35904, Note_on_c, 3, 55, 88
5, 35904, Note_on_c, 3, 52, 88
5, 35996, Note_off_c, 3, 55, 64
5, 35996, Note_off_c, 3, 52, 64
5, 36000, Note_on_c, 3, 60, 88
5, 36092, Note_off_c, 3, 60, 64
5, 36096, Note_on_c, 3, 55, 88
5, 36096, Note_on_c, 3, 52, 88
5, 36188, Note_off_c, 3, 55, 64
5, 36188, Note_off_c, 3, 52, 64
5, 36192, Note_on_c, 3, 60, 88
5, 36284, Note_off_c, 3, 60, 64
5, 36288, Note_on_c, 3, 55, 88
5, 36288, Note_on_c, 3, 52, 88
5, 36380, Note_off_c, 3, 55, 64
5, 36380, Note_off_c, 3, 52, 64
5, 36384, Note_on_c, 3, 60, 88
5, 36476, Note_off_c, 3, 60, 64
5, 36480, Note_on_c, 3, 55, 88
5, 36480, Note_on_c, 3, 52, 88
5, 36572, Note_off_c, 3, 55, 64
5, 36572, Note_off_c, 3, 52, 64
5, 36576, Note_on_c, 3, 60, 88
5, 36668, Note_off_c, 3, 60, 64
5, 36672, Note_on_c, 3, 55, 88
5, 36672, Note_on_c, 3, 52, 88
5, 36764, Note_off_c, 3, 55, 64
5, 36764, Note_off_c, 3, 52, 64
5, 36768, Note_on_c, 3, 60, 88
5, 36860, Note_off_c, 3, 60, 64
5, 36864, Note_on_c, 3, 57, 88
5, 36864, Note_on_c, 3, 53, 88
5, 36956, Note_off_c, 3, 57, 64
5, 36956, Note_off_c, 3, 53, 64
5, 36960, Note_on_c, 3, 60, 88
5, 37052, Note_off_c, 3, 60, 64
5, 37056, Note_on_c, 3, 57, 88
5, 37056, Note_on_c, 3, 53, 88
5, 37148, Note_off_c, 3, 57, 64
5, 37148, Note_off_c, 3, 53, 64
5, 37152, Note_on_c, 3, 60, 88
5, 37244, Note_off_c, 3, 60, 64
5, 37248, Note_on_c, 3, 57, 88
5, 37248, Note_on_c, 3, 53, 88
5, 37340, Note_off_c, 3, 57, 64
5, 37340, Note_off_c, 3, 53, 64
5, 37344, Note_on_c, 3, 60, 88
5, 37436, Note_off_c, 3, 60, 64
5, 37440, Note_on_c, 3, 57, 88
5, 37440, Note_on_c, 3, 53, 88
5, 37532, Note_off_c, 3, 57, 64
5, 37532, Note_off_c, 3, 53, 64
5, 37536, Note_on_c, 3, 60, 88
5, 37628, Note_off_c, 3, 60, 64
5, 37632, Note_on_c, 3, 57, 88
5, 37632, Note_on_c, 3, 53, 88
5, 37632, Note_on_c, 3, 60, 88
5, 37724, Note_off_c, 3, 57, 64
5, 37724, Note_off_c, 3, 53, 64
5, 37724, Note_off_c, 3, 60, 64
5, 37728, Note_on_c, 3, 62, 88
5, 37820, Note_off_c, 3, 62, 64
5, 37824, Note_on_c, 3, 57, 88
5, 37824, Note_on_c, 3, 53, 88
5, 37824, Note_on_c, 3, 60, 88
5, 37916, Note_off_c, 3, 57, 64
5, 37916, Note_off_c, 3, 53, 64
5, 37916, Note_off_c, 3, 60, 64
5, 37920, Note_on_c, 3, 62, 88
5, 38012, Note_off_c, 3, 62, 64
5, 38016, Note_on_c, 3, 57, 88
5, 38016, Note_on_c, 3, 53, 88
5, 38016, Note_on_c, 3, 60, 88
5, 38108, Note_off_c, 3, 57, 64
5, 38108, Note_off_c, 3, 53, 64
5, 38108, Note_off_c, 3, 60, 64
5, 38112, Note_on_c, 3, 62, 88
5, 38204, Note_off_c, 3, 62, 64
5, 38208, Note_on_c, 3, 57, 88
5, 38208, Note_on_c, 3, 53, 88
5, 38208, Note_on_c, 3, 60, 88
5, 38300, Note_off_c, 3, 57, 64
5, 38300, Note_off_c, 3, 53, 64
5, 38300, Note_off_c, 3, 60, 64
5, 38304, Note_on_c, 3, 62, 88
5, 38396, Note_off_c, 3, 62, 64
5, 38400, Note_on_c, 3, 64, 88
5, 38400, Note_on_c, 3, 60, 88
5, 38400, Note_on_c, 3, 55, 88
5, 38588, Note_off_c, 3, 64, 64
5, 38588, Note_off_c, 3, 60, 64
5, 38588, Note_off_c, 3, 55, 64
5, 38592, Note_on_c, 3, 60, 88
5, 38592, Note_on_c, 3, 55, 88
5, 38780, Note_off_c, 3, 60, 64
5, 38780, Note_off_c, 3, 55, 64
5, 38784, Note_on_c, 3, 60, 88
5, 38784, Note_on_c, 3, 55, 88
5, 38876, Note_off_c, 3, 60, 64
5, 38876, Note_off_c, 3, 55, 64
5, 38976, Note_on_c, 3, 60, 88
5, 38976, Note_on_c, 3, 55, 88
5, 39068, Note_off_c, 3, 60, 64
5, 39068, Note_off_c, 3, 55, 64
5, 39168, Note_on_c, 3, 55, 88
5, 39168, Note_on_c, 3, 43, 88
5, 39260, Note_off_c, 3, 55, 64
5, 39260, Note_off_c, 3, 43, 64
5, 39360, Note_on_c, 3, 55, 88
5, 39360, Note_on_c, 3, 43, 88
5, 39452, Note_off_c, 3, 55, 64
5, 39452, Note_off_c, 3, 43, 64
5, 39552, Note_on_c, 3, 55, 88
5, 39552, Note_on_c, 3, 43, 88
5, 39644, Note_off_c, 3, 55, 64
5, 39644, Note_off_c, 3, 43, 64
5, 39744, Note_on_c, 3, 55, 88
5, 39744, Note_on_c, 3, 43, 88
5, 39836, Note_off_c, 3, 55, 64
5, 39836, Note_off_c, 3, 43, 64
5, 39936, Note_on_c, 3, 55, 88
5, 39936, Note_on_c, 3, 52, 88
5, 40028, Note_off_c, 3, 55, 64
5, 40028, Note_off_c, 3, 52, 64
5, 40032, Note_on_c, 3, 60, 88
5, 40124, Note_off_c, 3, 60, 64
5, 40128, Note_on_c, 3, 55, 88
5, 40128, Note_on_c, 3, 52, 88
5, 40220, Note_off_c, 3, 55, 64
5, 40220, Note_off_c, 3, 52, 64
5, 40224, Note_on_c, 3, 60, 88
5, 40316, Note_off_c, 3, 60, 64
5, 40320, Note_on_c, 3, 55, 88
5, 40320, Note_on_c, 3, 52, 88
5, 40412, Note_off_c, 3, 55, 64
5, 40412, Note_off_c, 3, 52, 64
5, 40416, Note_on_c, 3, 60, 88
5, 40508, Note_off_c, 3, 60, 64
5, 40512, Note_on_c, 3, 55, 88
5, 40512, Note_on_c, 3, 52, 88
5, 40604, Note_off_c, 3, 55, 64
5, 40604, Note_off_c, 3, 52, 64
5, 40608, Note_on_c, 3, 60, 88
5, 40700, Note_off_c, 3, 60, 64
5, 40704, Note_on_c, 3, 55, 88
5, 40704, Note_on_c, 3, 52, 88
5, 40796, Note_off_c, 3, 55, 64
5, 40796, Note_off_c, 3, 52, 64
5, 40800, Note_on_c, 3, 60, 88
5, 40892, Note_off_c, 3, 60, 64
5, 40896, Note_on_c, 3, 55, 88
5, 40896, Note_on_c, 3, 52, 88
5, 40988, Note_off_c, 3, 55, 64
5, 40988, Note_off_c, 3, 52, 64
5, 40992, Note_on_c, 3, 60, 88
5, 41084, Note_off_c, 3, 60, 64
5, 41088, Note_on_c, 3, 55, 88
5, 41088, Note_on_c, 3, 52, 88
5, 41180, Note_off_c, 3, 55, 64
5, 41180, Note_off_c, 3, 52, 64
5, 41184, Note_on_c, 3, 60, 88
5, 41276, Note_off_c, 3, 60, 64
5, 41280, Note_on_c, 3, 55, 88
5, 41280, Note_on_c, 3, 52, 88
5, 41372, Note_off_c, 3, 55, 64
5, 41372, Note_off_c, 3, 52, 64
5, 41376, Note_on_c, 3, 60, 88
5, 41468, Note_off_c, 3, 60, 64
5, 41472, Note_on_c, 3, 57, 88
5, 41472, Note_on_c, 3, 53, 88
5, 41564, Note_off_c, 3, 57, 64
5, 41564, Note_off_c, 3, 53, 64
5, 41568, Note_on_c, 3, 60, 88
5, 41660, Note_off_c, 3, 60, 64
5, 41664, Note_on_c, 3, 57, 88
5, 41664, Note_on_c, 3, 53, 88
5, 41756, Note_off_c, 3, 57, 64
5, 41756, Note_off_c, 3, 53, 64
5, 41760, Note_on_c, 3, 60, 88
5, 41852, Note_off_c, 3, 60, 64
5, 41856, Note_on_c, 3, 57, 88
5, 41856, Note_on_c, 3, 53, 88
5, 41948, Note_off_c, 3, 57, 64
5, 41948, Note_off_c, 3, 53, 64
5, 41952, Note_on_c, 3, 60, 88
5, 42044, Note_off_c, 3, 60, 64
5, 42048, Note_on_c, 3, 57, 88
5, 42048, Note_on_c, 3, 53, 88
5, 42140, Note_off_c, 3, 57, 64
5, 42140, Note_off_c, 3, 53, 64
5, 42144, Note_on_c, 3, 60, 88
5, 42236, Note_off_c, 3, 60, 64
5, 42240, Note_on_c, 3, 60, 88
5, 42240, Note_on_c, 3, 57, 88
5, 42240, Note_on_c, 3, 53, 88
5, 42332, Note_off_c, 3, 60, 64
5, 42332, Note_off_c, 3, 57, 64
5, 42332, Note_off_c, 3, 53, 64
5, 42336, Note_on_c, 3, 62, 88
5, 42428, Note_off_c, 3, 62, 64
5, 42432, Note_on_c, 3, 60, 88
5, 42432, Note_on_c, 3, 57, 88
5, 42432, Note_on_c, 3, 53, 88
5, 42524, Note_off_c, 3, 60, 64
5, 42524, Note_off_c, 3, 57, 64
5, 42524, Note_off_c, 3, 53, 64
5, 42528, Note_on_c, 3, 62, 88
5, 42620, Note_off_c, 3, 62, 64
5, 42624, Note_on_c, 3, 60, 88
5, 42624, Note_on_c, 3, 57, 88
5, 42624, Note_on_c, 3, 53, 88
5, 42716, Note_off_c, 3, 60, 64
5, 42716, Note_off_c, 3, 57, 64
5, 42716, Note_off_c, 3, 53, 64
5, 42720, Note_on_c, 3, 62, 88
5, 42812, Note_off_c, 3, 62, 64
5, 42816, Note_on_c, 3, 60, 88
5, 42816, Note_on_c, 3, 57, 88
5, 42816, Note_on_c, 3, 53, 88
5, 42908, Note_off_c, 3, 60, 64
5, 42908, Note_off_c, 3, 57, 64
5, 42908, Note_off_c, 3, 53, 64
5, 42912, Note_on_c, 3, 62, 88
5, 43004, Note_off_c, 3, 62, 64
5, 43008, Note_on_c, 3, 64, 88
5, 43008, Note_on_c, 3, 60, 88
5, 43008, Note_on_c, 3, 55, 88
5, 43196, Note_off_c, 3, 64, 64
5, 43196, Note_off_c, 3, 60, 64
5, 43196, Note_off_c, 3, 55, 64
5, 43200, Note_on_c, 3, 60, 88
5, 43200, Note_on_c, 3, 55, 88
5, 43384, Note_off_c, 3, 60, 64
5, 43388, Note_off_c, 3, 55, 64
5, 43392, Note_on_c, 3, 60, 88
5, 43392, Note_on_c, 3, 55, 88
5, 43484, Note_off_c, 3, 60, 64
5, 43484, Note_off_c, 3, 55, 64
5, 43584, Note_on_c, 3, 60, 88
5, 43584, Note_on_c, 3, 55, 88
5, 43676, Note_off_c, 3, 60, 64
5, 43676, Note_off_c, 3, 55, 64
5, 43776, Note_on_c, 3, 55, 88
5, 43776, Note_on_c, 3, 43, 88
5, 43868, Note_off_c, 3, 55, 64
5, 43868, Note_off_c, 3, 43, 64
5, 43968, Note_on_c, 3, 55, 88
5, 43968, Note_on_c, 3, 43, 88
5, 44060, Note_off_c, 3, 55, 64
5, 44060, Note_off_c, 3, 43, 64
5, 44160, Note_on_c, 3, 55, 88
5, 44160, Note_on_c, 3, 43, 88
5, 44252, Note_off_c, 3, 55, 64
5, 44252, Note_off_c, 3, 43, 64
5, 44352, Note_on_c, 3, 55, 88
5, 44352, Note_on_c, 3, 43, 88
5, 44444, Note_off_c, 3, 55, 64
5, 44444, Note_off_c, 3, 43, 64
5, 44544, Note_on_c, 3, 60, 88
5, 44544, Note_on_c, 3, 48, 88
5, 44924, Note_off_c, 3, 60, 64
5, 44924, Note_off_c, 3, 48, 64
5, 46080, Note_on_c, 3, 57, 60
5, 46080, Note_on_c, 3, 49, 60
5, 46460, Note_off_c, 3, 57, 64
5, 46460, Note_off_c, 3, 49, 64
5, 46848, Note_on_c, 3, 57, 60
5, 46848, Note_on_c, 3, 50, 60
5, 47228, Note_off_c, 3, 57, 64
5, 47228, Note_off_c, 3, 50, 64
5, 47616, Note_on_c, 3, 55, 60
5, 47616, Note_on_c, 3, 47, 60
5, 47996, Note_off_c, 3, 55, 64
5, 47996, Note_off_c, 3, 47, 64
5, 48384, Note_on_c, 3, 55, 60
5, 48384, Note_on_c, 3, 48, 60
5, 48764, Note_off_c, 3, 55, 64
5, 48764, Note_off_c, 3, 48, 64
5, 49152, Note_on_c, 3, 43, 88
5, 49152, Note_on_c, 3, 43, 88
5, 49340, Note_off_c, 3, 43, 64
5, 49344, Note_on_c, 3, 55, 88
5, 49532, Note_off_c, 3, 55, 64
5, 49536, Note_on_c, 3, 43, 88
5, 49724, Note_off_c, 3, 43, 64
5, 49728, Note_on_c, 3, 55, 88
5, 49916, Note_off_c, 3, 55, 64
5, 49920, Note_on_c, 3, 43, 88
5, 50108, Note_off_c, 3, 43, 64
5, 50112, Note_on_c, 3, 55, 88
5, 50300, Note_off_c, 3, 55, 64
5, 50304, Note_on_c, 3, 43, 88
5, 50492, Note_off_c, 3, 43, 64
5, 50496, Note_on_c, 3, 55, 88
5, 50684, Note_off_c, 3, 43, 64
5, 50684, Note_off_c, 3, 55, 64
5, 50688, Note_on_c, 3, 45, 88
5, 50688, Note_on_c, 3, 45, 88
5, 50876, Note_off_c, 3, 45, 64
5, 50880, Note_on_c, 3, 57, 88
5, 51068, Note_off_c, 3, 45, 64
5, 51068, Note_off_c, 3, 57, 64
5, 51072, Note_on_c, 3, 55, 88
5, 51072, Note_on_c, 3, 52, 88
5, 51072, Note_on_c, 3, 60, 88
5, 51260, Note_off_c, 3, 60, 64
5, 51264, Note_on_c, 3, 64, 88
5, 51452, Note_off_c, 3, 55, 64
5, 51452, Note_off_c, 3, 52, 64
5, 51452, Note_off_c, 3, 64, 64
5, 51456, Note_on_c, 3, 57, 88
5, 51456, Note_on_c, 3, 53, 88
5, 51456, Note_on_c, 3, 60, 88
5, 51644, Note_off_c, 3, 60, 64
5, 51648, Note_on_c, 3, 62, 88
5, 51836, Note_off_c, 3, 57, 64
5, 51836, Note_off_c, 3, 53, 64
5, 51836, Note_off_c, 3, 62, 64
5, 51840, Note_on_c, 3, 55, 88
5, 51840, Note_on_c, 3, 59, 88
5, 52028, Note_off_c, 3, 59, 64
5, 52032, Note_on_c, 3, 62, 88
5, 52220, Note_off_c, 3, 55, 64
5, 52220, Note_off_c, 3, 62, 64
5, 52224, Note_on_c, 3, 52, 88
5, 52224, Note_on_c, 3, 60, 88
5, 52412, Note_off_c, 3, 60, 64
5, 52416, Note_on_c, 3, 64, 88
5, 52604, Note_off_c, 3, 52, 64
5, 52604, Note_off_c, 3, 64, 64
5, 52608, Note_on_c, 3, 57, 88
5, 52608, Note_on_c, 3, 60, 88
5, 52796, Note_off_c, 3, 60, 64
5, 52800, Note_on_c, 3, 64, 88
5, 52988, Note_off_c, 3, 57, 64
5, 52988, Note_off_c, 3, 64, 64
5, 52992, Note_on_c, 3, 57, 88
5, 52992, Note_on_c, 3, 53, 88
5, 52992, Note_on_c, 3, 60, 88
5, 53180, Note_off_c, 3, 60, 64
5, 53184, Note_on_c, 3, 62, 88
5, 53372, Note_off_c, 3, 57, 64
5, 53372, Note_off_c, 3, 53, 64
5, 53372, Note_off_c, 3, 62, 64
5, 53376, Note_on_c, 3, 55, 88
5, 53376, Note_on_c, 3, 59, 88
5, 53564, Note_off_c, 3, 59, 64
5, 53568, Note_on_c, 3, 62, 88
5, 53756, Note_off_c, 3, 55, 64
5, 53756, Note_off_c, 3, 62, 64
5, 53760, Note_on_c, 3, 64, 88
5, 53760, Note_on_c, 3, 60, 88
5, 54140, Note_off_c, 3, 64, 64
5, 54140, Note_off_c, 3, 60, 64
5, 54144, Note_on_c, 3, 64, 88
5, 54236, Note_off_c, 3, 64, 64
5, 54240, Note_on_c, 3, 60, 88
5, 54332, Note_off_c, 3, 60, 64
5, 54336, Note_on_c, 3, 64, 88
5, 54428, Note_off_c, 3, 64, 64
5, 54432, Note_on_c, 3, 60, 88
5, 54524, Note_off_c, 3, 60, 64
5, 54528, Note_on_c, 3, 55, 88
5, 54716, Note_off_c, 3, 55, 64
5, 54720, Note_on_c, 3, 60, 88
5, 54908, Note_off_c, 3, 60, 64
5, 54912, Note_on_c, 3, 55, 88
5, 55004, Note_off_c, 3, 55, 64
5, 55008, Note_on_c, 3, 52, 88
5, 55100, Note_off_c, 3, 52, 64
5, 55104, Note_on_c, 3, 55, 88
5, 55196, Note_off_c, 3, 55, 64
5, 55200, Note_on_c, 3, 52, 88
5, 55292, Note_off_c, 3, 52, 64
5, 55296, Note_on_c, 3, 48, 88
5, 55296, Note_on_c, 3, 36, 88
5, 56060, Note_off_c, 3, 48, 64
5, 56060, Note_off_c, 3, 36, 64
5, 56064, Note_on_c, 3, 52, 88
5, 56064, Note_on_c, 3, 40, 88
5, 56252, Note_off_c, 3, 52, 64
5, 56252, Note_off_c, 3, 40, 64
5, 56448, Note_on_c, 3, 55, 88
5, 56448, Note_on_c, 3, 43, 88
5, 56636, Note_off_c, 3, 55, 64
5, 56636, Note_off_c, 3, 43, 64
5, 56832, Note_on_c, 3, 60, 88
5, 56832, Note_on_c, 3, 48, 88
5, 57212, Note_off_c, 3, 60, 64
5, 57212, Note_off_c, 3, 48, 64
5, 64512, Note_on_c, 3, 65, 62
5, 64512, Note_on_c, 3, 59, 62
5, 64700, Note_off_c, 3, 65, 64
5, 64700, Note_off_c, 3, 59, 64
5, 64704, Note_on_c, 3, 55, 63
5, 64892, Note_off_c, 3, 55, 64
5, 64896, Note_on_c, 3, 65, 64
5, 64896, Note_on_c, 3, 59, 64
5, 65084, Note_off_c, 3, 65, 64
5, 65084, Note_off_c, 3, 59, 64
5, 65088, Note_on_c, 3, 55, 66
5, 65276, Note_off_c, 3, 55, 64
5, 65280, Note_on_c, 3, 64, 67
5, 65280, Note_on_c, 3, 60, 67
5, 65468, Note_off_c, 3, 64, 64
5, 65468, Note_off_c, 3, 60, 64
5, 65472, Note_on_c, 3, 55, 68
5, 65660, Note_off_c, 3, 55, 64
5, 65664, Note_on_c, 3, 64, 69
5, 65664, Note_on_c, 3, 60, 69
5, 65852, Note_off_c, 3, 64, 64
5, 65852, Note_off_c, 3, 60, 64
5, 65856, Note_on_c, 3, 55, 72
5, 66044, Note_off_c, 3, 55, 64
5, 66048, Note_on_c, 3, 59, 74
5, 66048, Note_on_c, 3, 62, 74
5, 66236, Note_off_c, 3, 59, 64
5, 66236, Note_off_c, 3, 62, 64
5, 66432, Note_on_c, 3, 60, 74
5, 66620, Note_off_c, 3, 60, 64
5, 66816, Note_on_c, 3, 53, 74
5, 67004, Note_off_c, 3, 53, 64
5, 67200, Note_on_c, 3, 55, 74
5, 67388, Note_off_c, 3, 55, 64
5, 67584, Note_on_c, 3, 48, 74
5, 67964, Note_off_c, 3, 48, 64
5, 70656, Note_on_c, 3, 65, 60
5, 70656, Note_on_c, 3, 59, 60
5, 70844, Note_off_c, 3, 65, 64
5, 70844, Note_off_c, 3, 59, 64
5, 70848, Note_on_c, 3, 55, 63
5, 71036, Note_off_c, 3, 55, 64
5, 71040, Note_on_c, 3, 59, 64
5, 71040, Note_on_c, 3, 65, 64
5, 71228, Note_off_c, 3, 59, 64
5, 71228, Note_off_c, 3, 65, 64
5, 71232, Note_on_c, 3, 55, 66
5, 71420, Note_off_c, 3, 55, 64
5, 71424, Note_on_c, 3, 60, 67
5, 71424, Note_on_c, 3, 64, 67
5, 71612, Note_off_c, 3, 60, 64
5, 71612, Note_off_c, 3, 64, 64
5, 71616, Note_on_c, 3, 55, 68
5, 71804, Note_off_c, 3, 55, 64
5, 71808, Note_on_c, 3, 60, 69
5, 71808, Note_on_c, 3, 64, 69
5, 71996, Note_off_c, 3, 60, 64
5, 71996, Note_off_c, 3, 64, 64
5, 72000, Note_on_c, 3, 55, 72
5, 72188, Note_off_c, 3, 55, 64
5, 72192, Note_on_c, 3, 59, 74
5, 72192, Note_on_c, 3, 62, 74
5, 72380, Note_off_c, 3, 59, 64
5, 72380, Note_off_c, 3, 62, 64
5, 72576, Note_on_c, 3, 60, 70
5, 72764, Note_off_c, 3, 60, 64
5, 72960, Note_on_c, 3, 53, 68
5, 73148, Note_off_c, 3, 53, 64
5, 73344, Note_on_c, 3, 55, 66
5, 73532, Note_off_c, 3, 55, 64
5, 73728, Note_on_c, 3, 55, 88
5, 73728, Note_on_c, 3, 52, 88
5, 73728, Note_on_c, 3, 48, 88
5, 73824, Note_on_c, 3, 60, 88
5, 73916, Note_off_c, 3, 60, 64
5, 73920, Note_on_c, 3, 55, 88
5, 73920, Note_on_c, 3, 52, 88
5, 73920, Note_on_c, 3, 48, 88
5, 74012, Note_off_c, 3, 55, 64
5, 74012, Note_off_c, 3, 52, 64
5, 74012, Note_off_c, 3, 48, 64
5, 74016, Note_on_c, 3, 60, 88
5, 74108, Note_off_c, 3, 55, 64
5, 74108, Note_off_c, 3, 52, 64
5, 74108, Note_off_c, 3, 48, 64
5, 74108, Note_off_c, 3, 60, 64
5, 74112, Note_on_c, 3, 55, 88
5, 74112, Note_on_c, 3, 52, 88
5, 74112, Note_on_c, 3, 48, 88
5, 74204, Note_off_c, 3, 55, 64
5, 74204, Note_off_c, 3, 52, 64
5, 74204, Note_off_c, 3, 48, 64
5, 74208, Note_on_c, 3, 60, 88
5, 74300, Note_off_c, 3, 60, 64
5, 74304, Note_on_c, 3, 55, 88
5, 74304, Note_on_c, 3, 52, 88
5, 74304, Note_on_c, 3, 48, 88
5, 74396, Note_off_c, 3, 55, 64
5, 74396, Note_off_c, 3, 52, 64
5, 74396, Note_off_c, 3, 48, 64
5, 74400, Note_on_c, 3, 60, 88
5, 74492, Note_off_c, 3, 60, 64
5, 74496, Note_on_c, 3, 57, 88
5, 74496, Note_on_c, 3, 53, 88
5, 74496, Note_on_c, 3, 48, 88
5, 74592, Note_on_c, 3, 60, 88
5, 74684, Note_off_c, 3, 60, 64
5, 74688, Note_on_c, 3, 57, 88
5, 74688, Note_on_c, 3, 53, 88
5, 74688, Note_on_c, 3, 48, 88
5, 74780, Note_off_c, 3, 57, 64
5, 74780, Note_off_c, 3, 53, 64
5, 74780, Note_off_c, 3, 48, 64
5, 74784, Note_on_c, 3, 60, 88
5, 74876, Note_off_c, 3, 57, 64
5, 74876, Note_off_c, 3, 53, 64
5, 74876, Note_off_c, 3, 48, 64
5, 74876, Note_off_c, 3, 60, 64
5, 74880, Note_on_c, 3, 57, 88
5, 74880, Note_on_c, 3, 53, 88
5, 74880, Note_on_c, 3, 48, 88
5, 74972, Note_off_c, 3, 57, 64
5, 74972, Note_off_c, 3, 53, 64
5, 74972, Note_off_c, 3, 48, 64
5, 74976, Note_on_c, 3, 60, 88
5, 75068, Note_off_c, 3, 60, 64
5, 75072, Note_on_c, 3, 57, 88
5, 75072, Note_on_c, 3, 53, 88
5, 75072, Note_on_c, 3, 48, 88
5, 75164, Note_off_c, 3, 57, 64
5, 75164, Note_off_c, 3, 53, 64
5, 75164, Note_off_c, 3, 48, 64
5, 75168, Note_on_c, 3, 60, 88
5, 75260, Note_off_c, 3, 60, 64
5, 75264, Note_on_c, 3, 55, 88
5, 75264, Note_on_c, 3, 52, 88
5, 75264, Note_on_c, 3, 48, 88
5, 75356, Note_off_c, 3, 55, 64
5, 75356, Note_off_c, 3, 52, 64
5, 75356, Note_off_c, 3, 48, 64
5, 75360, Note_on_c, 3, 60, 88
5, 75452, Note_off_c, 3, 60, 64
5, 75456, Note_on_c, 3, 55, 88
5, 75456, Note_on_c, 3, 52, 88
5, 75456, Note_on_c, 3, 48, 88
5, 75548, Note_off_c, 3, 55, 64
5, 75548, Note_off_c, 3, 52, 64
5, 75548, Note_off_c, 3, 48, 64
5, 75552, Note_on_c, 3, 60, 88
5, 75644, Note_off_c, 3, 60, 64
5, 75648, Note_on_c, 3, 55, 88
5, 75648, Note_on_c, 3, 52, 88
5, 75648, Note_on_c, 3, 48, 88
5, 75740, Note_off_c, 3, 55, 64
5, 75740, Note_off_c, 3, 52, 64
5, 75740, Note_off_c, 3, 48, 64
5, 75744, Note_on_c, 3, 60, 88
5, 75836, Note_off_c, 3, 60, 64
5, 75840, Note_on_c, 3, 55, 88
5, 75840, Note_on_c, 3, 52, 88
5, 75840, Note_on_c, 3, 48, 88
5, 75932, Note_off_c, 3, 55, 64
5, 75932, Note_off_c, 3, 52, 64
5, 75932, Note_off_c, 3, 48, 64
5, 75936, Note_on_c, 3, 60, 88
5, 76028, Note_off_c, 3, 60, 64
5, 76032, Note_on_c, 3, 57, 88
5, 76032, Note_on_c, 3, 53, 88
5, 76032, Note_on_c, 3, 48, 88
5, 76124, Note_off_c, 3, 57, 64
5, 76124, Note_off_c, 3, 53, 64
5, 76124, Note_off_c, 3, 48, 64
5, 76128, Note_on_c, 3, 60, 88
5, 76220, Note_off_c, 3, 60, 64
5, 76224, Note_on_c, 3, 57, 88
5, 76224, Note_on_c, 3, 53, 88
5, 76224, Note_on_c, 3, 48, 88
5, 76316, Note_off_c, 3, 57, 64
5, 76316, Note_off_c, 3, 53, 64
5, 76316, Note_off_c, 3, 48, 64
5, 76320, Note_on_c, 3, 60, 88
5, 76412, Note_off_c, 3, 60, 64
5, 76416, Note_on_c, 3, 57, 88
5, 76416, Note_on_c, 3, 53, 88
5, 76416, Note_on_c, 3, 48, 88
5, 76508, Note_off_c, 3, 57, 64
5, 76508, Note_off_c, 3, 53, 64
5, 76508, Note_off_c, 3, 48, 64
5, 76512, Note_on_c, 3, 60, 88
5, 76604, Note_off_c, 3, 60, 64
5, 76608, Note_on_c, 3, 57, 88
5, 76608, Note_on_c, 3, 53, 88
5, 76608, Note_on_c, 3, 48, 88
5, 76700, Note_off_c, 3, 57, 64
5, 76700, Note_off_c, 3, 53, 64
5, 76700, Note_off_c, 3, 48, 64
5, 76704, Note_on_c, 3, 60, 88
5, 76800, Note_on_c, 3, 55, 88
5, 76800, Note_on_c, 3, 52, 88
5, 76800, Note_on_c, 3, 48, 88
5, 77180, Note_off_c, 3, 60, 64
5, 77180, Note_off_c, 3, 55, 64
5, 77180, Note_off_c, 3, 52, 64
5, 77180, Note_off_c, 3, 48, 64
5, 82944, Note_on_c, 3, 55, 88
5, 83036, Note_off_c, 3, 55, 64
5, 83040, Note_on_c, 3, 57, 88
5, 83132, Note_off_c, 3, 57, 64
5, 83136, Note_on_c, 3, 59, 88
5, 83228, Note_off_c, 3, 59, 64
5, 83232, Note_on_c, 3, 57, 88
5, 83324, Note_off_c, 3, 57, 64
5, 83328, Note_on_c, 3, 55, 88
5, 83420, Note_off_c, 3, 55, 64
5, 83424, Note_on_c, 3, 57, 88
5, 83516, Note_off_c, 3, 57, 64
5, 83520, Note_on_c, 3, 59, 88
5, 83612, Note_off_c, 3, 59, 64
5, 83616, Note_on_c, 3, 55, 88
5, 83708, Note_off_c, 3, 55, 64
5, 83712, Note_on_c, 3, 60, 88
5, 83804, Note_off_c, 3, 60, 64
5, 83808, Note_on_c, 3, 62, 88
5, 83900, Note_off_c, 3, 62, 64
5, 83904, Note_on_c, 3, 64, 88
5, 83996, Note_off_c, 3, 64, 64
5, 84000, Note_on_c, 3, 62, 88
5, 84092, Note_off_c, 3, 62, 64
5, 84096, Note_on_c, 3, 60, 88
5, 84188, Note_off_c, 3, 60, 64
5, 84192, Note_on_c, 3, 62, 88
5, 84284, Note_off_c, 3, 62, 64
5, 84288, Note_on_c, 3, 64, 88
5, 84380, Note_off_c, 3, 64, 64
5, 84384, Note_on_c, 3, 60, 88
5, 84476, Note_off_c, 3, 60, 64
5, 84480, Note_on_c, 3, 55, 88
5, 84572, Note_off_c, 3, 55, 64
5, 84576, Note_on_c, 3, 57, 88
5, 84668, Note_off_c, 3, 57, 64
5, 84672, Note_on_c, 3, 59, 88
5, 84764, Note_off_c, 3, 59, 64
5, 84768, Note_on_c, 3, 57, 88
5, 84860, Note_off_c, 3, 57, 64
5, 84864, Note_on_c, 3, 55, 88
5, 84956, Note_off_c, 3, 55, 64
5, 84960, Note_on_c, 3, 57, 88
5, 85052, Note_off_c, 3, 57, 64
5, 85056, Note_on_c, 3, 59, 88
5, 85148, Note_off_c, 3, 59, 64
5, 85152, Note_on_c, 3, 55, 88
5, 85244, Note_off_c, 3, 55, 64
5, 85248, Note_on_c, 3, 60, 88
5, 85340, Note_off_c, 3, 60, 64
5, 85344, Note_on_c, 3, 62, 88
5, 85436, Note_off_c, 3, 62, 64
5, 85440, Note_on_c, 3, 64, 88
5, 85532, Note_off_c, 3, 64, 64
5, 85536, Note_on_c, 3, 62, 88
5, 85628, Note_off_c, 3, 62, 64
5, 85632, Note_on_c, 3, 60, 88
5, 85724, Note_off_c, 3, 60, 64
5, 85728, Note_on_c, 3, 62, 88
5, 85820, Note_off_c, 3, 62, 64
5, 85824, Note_on_c, 3, 64, 88
5, 85916, Note_off_c, 3, 64, 64
5, 85920, Note_on_c, 3, 60, 88
5, 86012, Note_off_c, 3, 60, 64
5, 86016, Note_on_c, 3, 62, 100
5, 86016, Note_on_c, 3, 55, 100
5, 86060, Note_off_c, 3, 62, 64
5, 86064, Note_on_c, 3, 60, 88
5, 86116, Note_off_c, 3, 60, 64
5, 86120, Note_on_c, 3, 59, 88
5, 86396, Note_off_c, 3, 55, 64
5, 86404, Note_off_c, 3, 59, 64
5, 86784, Note_on_c, 3, 62, 100
5, 86784, Note_on_c, 3, 55, 100
5, 86828, Note_off_c, 3, 62, 64
5, 86832, Note_on_c, 3, 60, 88
5, 86884, Note_off_c, 3, 60, 64
5, 86888, Note_on_c, 3, 59, 88
5, 87164, Note_off_c, 3, 55, 64
5, 87172, Note_off_c, 3, 59, 64
5, 87552, Note_on_c, 3, 62, 60
5, 87552, Note_on_c, 3, 55, 60
5, 87740, Note_off_c, 3, 62, 64
5, 87740, Note_off_c, 3, 55, 64
5, 88320, Note_on_c, 3, 66, 60
5, 88320, Note_on_c, 3, 54, 60
5, 88508, Note_off_c, 3, 66, 64
5, 88508, Note_off_c, 3, 54, 64
5, 89088, Note_on_c, 3, 64, 60
5, 89088, Note_on_c, 3, 52, 60
5, 89276, Note_off_c, 3, 64, 64
5, 89276, Note_off_c, 3, 52, 64
5, 89856, Note_on_c, 3, 60, 60
5, 89856, Note_on_c, 3, 48, 60
5, 90044, Note_off_c, 3, 60, 64
5, 90044, Note_off_c, 3, 48, 64
5, 90624, Note_on_c, 3, 59, 60
5, 90624, Note_on_c, 3, 55, 60
5, 90624, Note_on_c, 3, 50, 60
5, 91388, Note_off_c, 3, 59, 64
5, 91388, Note_off_c, 3, 55, 64
5, 91392, Note_on_c, 3, 57, 60
5, 91392, Note_on_c, 3, 54, 60
5, 92156, Note_off_c, 3, 50, 64
5, 92156, Note_off_c, 3, 57, 64
5, 92156, Note_off_c, 3, 54, 64
5, 92160, Note_on_c, 3, 55, 60
5, 92160, Note_on_c, 3, 43, 60
5, 92540, Note_off_c, 3, 55, 64
5, 92540, Note_off_c, 3, 43, 64
5, 92736, Note_on_c, 3, 62, 88
5, 92736, Note_on_c, 3, 50, 88
5, 92828, Note_off_c, 3, 62, 64
5, 92828, Note_off_c, 3, 50, 64
5, 92928, Note_on_c, 3, 60, 88
5, 92928, Note_on_c, 3, 48, 88
5, 93020, Note_off_c, 3, 60, 64
5, 93020, Note_off_c, 3, 48, 64
5, 93120, Note_on_c, 3, 57, 88
5, 93120, Note_on_c, 3, 45, 88
5, 93212, Note_off_c, 3, 57, 64
5, 93212, Note_off_c, 3, 45, 64
5, 93312, Note_on_c, 3, 54, 88
5, 93312, Note_on_c, 3, 42, 88
5, 93404, Note_off_c, 3, 54, 64
5, 93404, Note_off_c, 3, 42, 64
5, 93504, Note_on_c, 3, 50, 88
5, 93504, Note_on_c, 3, 38, 88
5, 93596, Note_off_c, 3, 50, 64
5, 93596, Note_off_c, 3, 38, 64
5, 93696, Note_on_c, 3, 55, 60
5, 93696, Note_on_c, 3, 43, 60
5, 93884, Note_off_c, 3, 55, 64
5, 93884, Note_off_c, 3, 43, 64
5, 94464, Note_on_c, 3, 54, 60
5, 94464, Note_on_c, 3, 42, 60
5, 94652, Note_off_c, 3, 54, 64
5, 94652, Note_off_c, 3, 42, 64
5, 95232, Note_on_c, 3, 52, 60
5, 95232, Note_on_c, 3, 40, 60
5, 95420, Note_off_c, 3, 52, 64
5, 95420, Note_off_c, 3, 40, 64
5, 96000, Note_on_c, 3, 48, 60
5, 96000, Note_on_c, 3, 36, 60
5, 96188, Note_off_c, 3, 48, 64
5, 96188, Note_off_c, 3, 36, 64
5, 96768, Note_on_c, 3, 38, 60
5, 96768, Note_on_c, 3, 50, 60
5, 97148, Note_off_c, 3, 38, 64
5, 98300, Note_off_c, 3, 50, 64
5, 98304, Note_on_c, 3, 43, 60
5, 98684, Note_off_c, 3, 43, 64
5, 98688, Note_on_c, 3, 59, 60
5, 99068, Note_off_c, 3, 59, 64
5, 99072, Note_on_c, 3, 55, 60
5, 99452, Note_off_c, 3, 55, 64
5, 99456, Note_on_c, 3, 59, 60
5, 99836, Note_off_c, 3, 59, 64
5, 99840, Note_on_c, 3, 55, 60
5, 100220, Note_off_c, 3, 55, 64
5, 100224, Note_on_c, 3, 60, 60
5, 100604, Note_off_c, 3, 60, 64
5, 100608, Note_on_c, 3, 55, 60
5, 100988, Note_off_c, 3, 55, 64
5, 100992, Note_on_c, 3, 60, 60
5, 101372, Note_off_c, 3, 60, 64
5, 101376, Note_on_c, 3, 55, 60
5, 101756, Note_off_c, 3, 55, 64
5, 101760, Note_on_c, 3, 59, 60
5, 102140, Note_off_c, 3, 59, 64
5, 102144, Note_on_c, 3, 55, 60
5, 102524, Note_off_c, 3, 55, 64
5, 102528, Note_on_c, 3, 59, 60
5, 102908, Note_off_c, 3, 59, 64
5, 102912, Note_on_c, 3, 55, 60
5, 103292, Note_off_c, 3, 55, 64
5, 103296, Note_on_c, 3, 60, 60
5, 103676, Note_off_c, 3, 60, 64
5, 103680, Note_on_c, 3, 55, 60
5, 104060, Note_off_c, 3, 55, 64
5, 104064, Note_on_c, 3, 60, 60
5, 104444, Note_off_c, 3, 60, 64
5, 104448, Note_on_c, 3, 55, 60
5, 104828, Note_off_c, 3, 55, 64
5, 104832, Note_on_c, 3, 59, 60
5, 105212, Note_off_c, 3, 59, 64
5, 105216, Note_on_c, 3, 55, 60
5, 105596, Note_off_c, 3, 55, 64
5, 105984, Note_on_c, 3, 60, 60
5, 105984, Note_on_c, 3, 48, 60
5, 106172, Note_off_c, 3, 60, 64
5, 106172, Note_off_c, 3, 48, 64
5, 107136, Note_on_c, 3, 57, 60
5, 107136, Note_on_c, 3, 49, 60
5, 107324, Note_off_c, 3, 57, 64
5, 107324, Note_off_c, 3, 49, 64
5, 107520, Note_on_c, 3, 57, 60
5, 107520, Note_on_c, 3, 50, 60
5, 107900, Note_off_c, 3, 57, 64
5, 107904, Note_on_c, 3, 54, 60
5, 108284, Note_off_c, 3, 54, 64
5, 108288, Note_on_c, 3, 62, 60
5, 108668, Note_off_c, 3, 62, 64
5, 108672, Note_on_c, 3, 59, 60
5, 109052, Note_off_c, 3, 50, 64
5, 109052, Note_off_c, 3, 59, 64
5, 109056, Note_on_c, 3, 57, 60
5, 109056, Note_on_c, 3, 50, 60
5, 109436, Note_off_c, 3, 57, 64
5, 109440, Note_on_c, 3, 54, 60
5, 109820, Note_off_c, 3, 54, 64
5, 109824, Note_on_c, 3, 62, 60
5, 110204, Note_off_c, 3, 62, 64
5, 110208, Note_on_c, 3, 59, 60
5, 110396, Note_off_c, 3, 59, 64
5, 110400, Note_on_c, 3, 55, 60
5, 110588, Note_off_c, 3, 50, 64
5, 110588, Note_off_c, 3, 55, 64
5, 110592, Note_on_c, 3, 50, 60
5, 110972, Note_off_c, 3, 50, 64
5, 112896, Note_on_c, 3, 62, 60
5, 113084, Note_off_c, 3, 62, 64
5, 113088, Note_on_c, 3, 61, 60
5, 113276, Note_off_c, 3, 61, 64
5, 113280, Note_on_c, 3, 62, 60
5, 113468, Note_off_c, 3, 62, 64
5, 113472, Note_on_c, 3, 61, 60
5, 113660, Note_off_c, 3, 61, 64
5, 113664, Note_on_c, 3, 55, 60
5, 113664, Note_on_c, 3, 50, 60
5, 113664, Note_on_c, 3, 47, 60
5, 113664, Note_on_c, 3, 35, 60
5, 113756, Note_off_c, 3, 55, 64
5, 113756, Note_off_c, 3, 50, 64
5, 113756, Note_off_c, 3, 47, 64
5, 113756, Note_off_c, 3, 35, 64
5, 114048, Note_on_c, 3, 57, 60
5, 114048, Note_on_c, 3, 54, 60
5, 114048, Note_on_c, 3, 50, 60
5, 114048, Note_on_c, 3, 38, 60
5, 114140, Note_off_c, 3, 57, 64
5, 114140, Note_off_c, 3, 54, 64
5, 114140, Note_off_c, 3, 50, 64
5, 114140, Note_off_c, 3, 38, 64
5, 114432, Note_on_c, 3, 59, 60
5, 114432, Note_on_c, 3, 55, 60
5, 114432, Note_on_c, 3, 43, 60
5, 114524, Note_off_c, 3, 59, 64
5, 114524, Note_off_c, 3, 55, 64
5, 114524, Note_off_c, 3, 43, 64
5, 114816, Note_on_c, 3, 57, 60
5, 114816, Note_on_c, 3, 54, 60
5, 114816, Note_on_c, 3, 50, 60
5, 114816, Note_on_c, 3, 38, 60
5, 114908, Note_off_c, 3, 57, 64
5, 114908, Note_off_c, 3, 54, 64
5, 114908, Note_off_c, 3, 50, 64
5, 114908, Note_off_c, 3, 38, 64
5, 115968, Note_on_c, 3, 62, 60
5, 116156, Note_off_c, 3, 62, 64
5, 116160, Note_on_c, 3, 61, 60
5, 116348, Note_off_c, 3, 61, 64
5, 116352, Note_on_c, 3, 62, 60
5, 116540, Note_off_c, 3, 62, 64
5, 116544, Note_on_c, 3, 61, 60
5, 116732, Note_off_c, 3, 61, 64
5, 116736, Note_on_c, 3, 57, 60
5, 116736, Note_on_c, 3, 54, 60
5, 116736, Note_on_c, 3, 48, 60
5, 116828, Note_off_c, 3, 57, 64
5, 116828, Note_off_c, 3, 54, 64
5, 116828, Note_off_c, 3, 48, 64
5, 117120, Note_on_c, 3, 59, 60
5, 117120, Note_on_c, 3, 55, 60
5, 117120, Note_on_c, 3, 47, 60
5, 117212, Note_off_c, 3, 59, 64
5, 117212, Note_off_c, 3, 55, 64
5, 117212, Note_off_c, 3, 47, 64
5, 117504, Note_on_c, 3, 60, 60
5, 117504, Note_on_c, 3, 57, 60
5, 117504, Note_on_c, 3, 54, 60
5, 117504, Note_on_c, 3, 42, 60
5, 117596, Note_off_c, 3, 60, 64
5, 117596, Note_off_c, 3, 57, 64
5, 117596, Note_off_c, 3, 54, 64
5, 117596, Note_off_c, 3, 42, 64
5, 117888, Note_on_c, 3, 59, 60
5, 117888, Note_on_c, 3, 55, 60
5, 117888, Note_on_c, 3, 43, 60
5, 117980, Note_off_c, 3, 59, 64
5, 117980, Note_off_c, 3, 55, 64
5, 117980, Note_off_c, 3, 43, 64
5, 121344, Note_on_c, 3, 60, 60
5, 121724, Note_off_c, 3, 60, 64
5, 122112, Note_on_c, 3, 60, 60
5, 122492, Note_off_c, 3, 60, 64
5, 123264, Note_on_c, 3, 48, 60
5, 123264, Note_on_c, 3, 36, 60
5, 123644, Note_off_c, 3, 48, 64
5, 123644, Note_off_c, 3, 36, 64
5, 123648, Note_on_c, 3, 50, 60
5, 123648, Note_on_c, 3, 38, 60
5, 124412, Note_off_c, 3, 50, 64
5, 124412, Note_off_c, 3, 38, 64
5, 124416, Note_on_c, 3, 43, 60
5, 124416, Note_on_c, 3, 31, 60
5, 124796, Note_off_c, 3, 43, 64
5, 124796, Note_off_c, 3, 31, 64
5, 135168, Note_on_c, 3, 52, 60
5, 135168, Note_on_c, 3, 48, 60
5, 136700, Note_off_c, 3, 52, 64
5, 136700, Note_off_c, 3, 48, 64
5, 136704, Note_on_c, 3, 50, 62
5, 137084, Note_off_c, 3, 50, 64
5, 137472, Note_on_c, 3, 50, 67
5, 137852, Note_off_c, 3, 50, 64
5, 138240, Note_on_c, 3, 50, 73
5, 138240, Note_on_c, 3, 38, 73
5, 138240, Note_on_c, 3, 38, 73
5, 138428, Note_off_c, 3, 50, 64
5, 138428, Note_off_c, 3, 38, 64
5, 138432, Note_on_c, 3, 50, 74
5, 138432, Note_on_c, 3, 38, 74
5, 138620, Note_off_c, 3, 38, 64
5, 138620, Note_off_c, 3, 50, 64
5, 138624, Note_on_c, 3, 50, 76
5, 138624, Note_on_c, 3, 38, 76
5, 138812, Note_off_c, 3, 38, 64
5, 138812, Note_off_c, 3, 50, 64
5, 138816, Note_on_c, 3, 50, 79
5, 138816, Note_on_c, 3, 38, 79
5, 139004, Note_off_c, 3, 38, 64
5, 139004, Note_off_c, 3, 50, 64
5, 139004, Note_off_c, 3, 38, 64
5, 139008, Note_on_c, 3, 50, 81
5, 139008, Note_on_c, 3, 38, 81
5, 139008, Note_on_c, 3, 38, 81
5, 139196, Note_off_c, 3, 50, 64
5, 139196, Note_off_c, 3, 38, 64
5, 139200, Note_on_c, 3, 50, 82
5, 139200, Note_on_c, 3, 38, 82
5, 139388, Note_off_c, 3, 38, 64
5, 139388, Note_off_c, 3, 50, 64
5, 139392, Note_on_c, 3, 50, 84
5, 139392, Note_on_c, 3, 38, 84
5, 139580, Note_off_c, 3, 38, 64
5, 139580, Note_off_c, 3, 50, 64
5, 139584, Note_on_c, 3, 50, 86
5, 139584, Note_on_c, 3, 38, 86
5, 139772, Note_off_c, 3, 38, 64
5, 139772, Note_off_c, 3, 50, 64
5, 139772, Note_off_c, 3, 38, 64
5, 139776, Note_on_c, 3, 55, 88
5, 139776, Note_on_c, 3, 43, 88
5, 139776, Note_on_c, 3, 43, 88
5, 139964, Note_off_c, 3, 55, 64
5, 139964, Note_off_c, 3, 43, 64
5, 139968, Note_on_c, 3, 50, 88
5, 139968, Note_on_c, 3, 47, 88
5, 139968, Note_on_c, 3, 43, 88
5, 140060, Note_off_c, 3, 43, 64
5, 140060, Note_off_c, 3, 50, 64
5, 140060, Note_off_c, 3, 47, 64
5, 140064, Note_on_c, 3, 55, 88
5, 140156, Note_off_c, 3, 43, 64
5, 140156, Note_off_c, 3, 55, 64
5, 140160, Note_on_c, 3, 50, 88
5, 140160, Note_on_c, 3, 47, 88
5, 140160, Note_on_c, 3, 43, 88
5, 140252, Note_off_c, 3, 50, 64
5, 140252, Note_off_c, 3, 47, 64
5, 140252, Note_off_c, 3, 43, 64
5, 140256, Note_on_c, 3, 55, 88
5, 140348, Note_off_c, 3, 55, 64
5, 140352, Note_on_c, 3, 50, 88
5, 140352, Note_on_c, 3, 47, 88
5, 140352, Note_on_c, 3, 43, 88
5, 140444, Note_off_c, 3, 50, 64
5, 140444, Note_off_c, 3, 47, 64
5, 140444, Note_off_c, 3, 43, 64
5, 140448, Note_on_c, 3, 55, 88
5, 140540, Note_off_c, 3, 55, 64
5, 140544, Note_on_c, 3, 50, 88
5, 140544, Note_on_c, 3, 47, 88
5, 140636, Note_off_c, 3, 50, 64
5, 140636, Note_off_c, 3, 47, 64
5, 140640, Note_on_c, 3, 55, 88
5, 140732, Note_off_c, 3, 55, 64
5, 140736, Note_on_c, 3, 50, 88
5, 140736, Note_on_c, 3, 47, 88
5, 140828, Note_off_c, 3, 50, 64
5, 140828, Note_off_c, 3, 47, 64
5, 140832, Note_on_c, 3, 55, 88
5, 140924, Note_off_c, 3, 55, 64
5, 140928, Note_on_c, 3, 50, 88
5, 140928, Note_on_c, 3, 47, 88
5, 141020, Note_off_c, 3, 50, 64
5, 141020, Note_off_c, 3, 47, 64
5, 141024, Note_on_c, 3, 55, 88
5, 141116, Note_off_c, 3, 55, 64
5, 141120, Note_on_c, 3, 50, 88
5, 141120, Note_on_c, 3, 47, 88
5, 141212, Note_off_c, 3, 50, 64
5, 141212, Note_off_c, 3, 47, 64
5, 141216, Note_on_c, 3, 55, 88
5, 141308, Note_off_c, 3, 55, 64
5, 141312, Note_on_c, 3, 52, 88
5, 141312, Note_on_c, 3, 48, 88
5, 141312, Note_on_c, 3, 48, 88
5, 141312, Note_on_c, 3, 52, 88
5, 141404, Note_off_c, 3, 52, 64
5, 141404, Note_off_c, 3, 48, 64
5, 141408, Note_on_c, 3, 55, 88
5, 141500, Note_off_c, 3, 55, 64
5, 141504, Note_on_c, 3, 52, 88
5, 141504, Note_on_c, 3, 48, 88
5, 141596, Note_off_c, 3, 48, 64
5, 141596, Note_off_c, 3, 52, 64
5, 141600, Note_on_c, 3, 55, 88
5, 141692, Note_off_c, 3, 52, 64
5, 141692, Note_off_c, 3, 48, 64
5, 141692, Note_off_c, 3, 55, 64
5, 141696, Note_on_c, 3, 52, 88
5, 141696, Note_on_c, 3, 48, 88
5, 141788, Note_off_c, 3, 52, 64
5, 141788, Note_off_c, 3, 48, 64
5, 141792, Note_on_c, 3, 55, 88
5, 141884, Note_off_c, 3, 55, 64
5, 141888, Note_on_c, 3, 48, 88
5, 141888, Note_on_c, 3, 52, 88
5, 141980, Note_off_c, 3, 48, 64
5, 141980, Note_off_c, 3, 52, 64
5, 141984, Note_on_c, 3, 55, 88
5, 142076, Note_off_c, 3, 55, 64
5, 142080, Note_on_c, 3, 52, 88
5, 142080, Note_on_c, 3, 48, 88
5, 142080, Note_on_c, 3, 48, 88
5, 142080, Note_on_c, 3, 52, 88
5, 142172, Note_off_c, 3, 52, 64
5, 142172, Note_off_c, 3, 48, 64
5, 142176, Note_on_c, 3, 55, 88
5, 142268, Note_off_c, 3, 55, 64
5, 142272, Note_on_c, 3, 52, 88
5, 142272, Note_on_c, 3, 48, 88
5, 142364, Note_off_c, 3, 48, 64
5, 142364, Note_off_c, 3, 52, 64
5, 142368, Note_on_c, 3, 55, 88
5, 142460, Note_off_c, 3, 52, 64
5, 142460, Note_off_c, 3, 48, 64
5, 142460, Note_off_c, 3, 55, 64
5, 142464, Note_on_c, 3, 52, 88
5, 142464, Note_on_c, 3, 48, 88
5, 142556, Note_off_c, 3, 52, 64
5, 142556, Note_off_c, 3, 48, 64
5, 142560, Note_on_c, 3, 55, 88
5, 142652, Note_off_c, 3, 55, 64
5, 142656, Note_on_c, 3, 52, 88
5, 142656, Note_on_c, 3, 48, 88
5, 142748, Note_off_c, 3, 52, 64
5, 142748, Note_off_c, 3, 48, 64
5, 142752, Note_on_c, 3, 55, 88
5, 142844, Note_off_c, 3, 55, 64
5, 142848, Note_on_c, 3, 57, 88
5, 142848, Note_on_c, 3, 50, 88
5, 142848, Note_on_c, 3, 57, 88
5, 142848, Note_on_c, 3, 50, 88
5, 143036, Note_off_c, 3, 57, 64
5, 143036, Note_off_c, 3, 50, 64
5, 143040, Note_on_c, 3, 62, 88
5, 143040, Note_on_c, 3, 50, 88
5, 143228, Note_off_c, 3, 57, 64
5, 143228, Note_off_c, 3, 50, 64
5, 143228, Note_off_c, 3, 62, 64
5, 143228, Note_off_c, 3, 50, 64
5, 143232, Note_on_c, 3, 62, 88
5, 143232, Note_on_c, 3, 50, 88
5, 143324, Note_off_c, 3, 62, 64
5, 143324, Note_off_c, 3, 50, 64
5, 143424, Note_on_c, 3, 62, 88
5, 143424, Note_on_c, 3, 50, 88
5, 143516, Note_off_c, 3, 62, 64
5, 143516, Note_off_c, 3, 50, 64
5, 143616, Note_on_c, 3, 50, 88
5, 143616, Note_on_c, 3, 38, 88
5, 143708, Note_off_c, 3, 50, 64
5, 143708, Note_off_c, 3, 38, 64
5, 143808, Note_on_c, 3, 50, 88
5, 143808, Note_on_c, 3, 38, 88
5, 143900, Note_off_c, 3, 50, 64
5, 143900, Note_off_c, 3, 38, 64
5, 144000, Note_on_c, 3, 50, 88
5, 144000, Note_on_c, 3, 38, 88
5, 144092, Note_off_c, 3, 50, 64
5, 144092, Note_off_c, 3, 38, 64
5, 144192, Note_on_c, 3, 50, 88
5, 144192, Note_on_c, 3, 38, 88
5, 144284, Note_off_c, 3, 50, 64
5, 144284, Note_off_c, 3, 38, 64
5, 144384, Note_on_c, 3, 50, 88
5, 144384, Note_on_c, 3, 47, 88
5, 144384, Note_on_c, 3, 50, 88
5, 144384, Note_on_c, 3, 47, 88
5, 144476, Note_off_c, 3, 50, 64
5, 144476, Note_off_c, 3, 47, 64
5, 144480, Note_on_c, 3, 55, 88
5, 144572, Note_off_c, 3, 55, 64
5, 144576, Note_on_c, 3, 50, 88
5, 144576, Note_on_c, 3, 47, 88
5, 144668, Note_off_c, 3, 50, 64
5, 144668, Note_off_c, 3, 47, 64
5, 144672, Note_on_c, 3, 55, 88
5, 144764, Note_off_c, 3, 50, 64
5, 144764, Note_off_c, 3, 47, 64
5, 144764, Note_off_c, 3, 55, 64
5, 144768, Note_on_c, 3, 50, 88
5, 144768, Note_on_c, 3, 47, 88
5, 144860, Note_off_c, 3, 50, 64
5, 144860, Note_off_c, 3, 47, 64
5, 144864, Note_on_c, 3, 55, 88
5, 144956, Note_off_c, 3, 55, 64
5, 144960, Note_on_c, 3, 50, 88
5, 144960, Note_on_c, 3, 47, 88
5, 145052, Note_off_c, 3, 50, 64
5, 145052, Note_off_c, 3, 47, 64
5, 145056, Note_on_c, 3, 55, 88
5, 145148, Note_off_c, 3, 55, 64
5, 145152, Note_on_c, 3, 50, 88
5, 145152, Note_on_c, 3, 47, 88
5, 145244, Note_off_c, 3, 50, 64
5, 145244, Note_off_c, 3, 47, 64
5, 145248, Note_on_c, 3, 55, 88
5, 145340, Note_off_c, 3, 55, 64
5, 145344, Note_on_c, 3, 50, 88
5, 145344, Note_on_c, 3, 47, 88
5, 145436, Note_off_c, 3, 50, 64
5, 145436, Note_off_c, 3, 47, 64
5, 145440, Note_on_c, 3, 55, 88
5, 145532, Note_off_c, 3, 55, 64
5, 145536, Note_on_c, 3, 50, 88
5, 145536, Note_on_c, 3, 47, 88
5, 145628, Note_off_c, 3, 50, 64
5, 145628, Note_off_c, 3, 47, 64
5, 145632, Note_on_c, 3, 55, 88
5, 145724, Note_off_c, 3, 55, 64
5, 145728, Note_on_c, 3, 50, 88
5, 145728, Note_on_c, 3, 47, 88
5, 145820, Note_off_c, 3, 50, 64
5, 145820, Note_off_c, 3, 47, 64
5, 145824, Note_on_c, 3, 55, 88
5, 145916, Note_off_c, 3, 55, 64
5, 145920, Note_on_c, 3, 52, 88
5, 145920, Note_on_c, 3, 48, 88
5, 145920, Note_on_c, 3, 52, 88
5, 145920, Note_on_c, 3, 48, 88
5, 146012, Note_off_c, 3, 52, 64
5, 146012, Note_off_c, 3, 48, 64
5, 146016, Note_on_c, 3, 55, 88
5, 146108, Note_off_c, 3, 52, 64
5, 146108, Note_off_c, 3, 48, 64
5, 146108, Note_off_c, 3, 55, 64
5, 146112, Note_on_c, 3, 52, 88
5, 146112, Note_on_c, 3, 48, 88
5, 146204, Note_off_c, 3, 52, 64
5, 146204, Note_off_c, 3, 48, 64
5, 146208, Note_on_c, 3, 55, 88
5, 146300, Note_off_c, 3, 55, 64
5, 146304, Note_on_c, 3, 52, 88
5, 146304, Note_on_c, 3, 48, 88
5, 146396, Note_off_c, 3, 52, 64
5, 146396, Note_off_c, 3, 48, 64
5, 146400, Note_on_c, 3, 55, 88
5, 146492, Note_off_c, 3, 55, 64
5, 146496, Note_on_c, 3, 52, 88
5, 146496, Note_on_c, 3, 48, 88
5, 146588, Note_off_c, 3, 52, 64
5, 146588, Note_off_c, 3, 48, 64
5, 146592, Note_on_c, 3, 55, 88
5, 146684, Note_off_c, 3, 55, 64
5, 146688, Note_on_c, 3, 55, 88
5, 146688, Note_on_c, 3, 52, 88
5, 146688, Note_on_c, 3, 48, 88
5, 146688, Note_on_c, 3, 52, 88
5, 146688, Note_on_c, 3, 48, 88
5, 146780, Note_off_c, 3, 55, 64
5, 146780, Note_off_c, 3, 52, 64
5, 146780, Note_off_c, 3, 48, 64
5, 146784, Note_on_c, 3, 57, 88
5, 146876, Note_off_c, 3, 52, 64
5, 146876, Note_off_c, 3, 48, 64
5, 146876, Note_off_c, 3, 57, 64
5, 146880, Note_on_c, 3, 55, 88
5, 146880, Note_on_c, 3, 52, 88
5, 146880, Note_on_c, 3, 48, 88
5, 146972, Note_off_c, 3, 55, 64
5, 146972, Note_off_c, 3, 52, 64
5, 146972, Note_off_c, 3, 48, 64
5, 146976, Note_on_c, 3, 57, 88
5, 147068, Note_off_c, 3, 57, 64
5, 147072, Note_on_c, 3, 55, 88
5, 147072, Note_on_c, 3, 52, 88
5, 147072, Note_on_c, 3, 48, 88
5, 147164, Note_off_c, 3, 55, 64
5, 147164, Note_off_c, 3, 52, 64
5, 147164, Note_off_c, 3, 48, 64
5, 147168, Note_on_c, 3, 57, 88
5, 147260, Note_off_c, 3, 57, 64
5, 147264, Note_on_c, 3, 55, 88
5, 147264, Note_on_c, 3, 52, 88
5, 147264, Note_on_c, 3, 48, 88
5, 147356, Note_off_c, 3, 55, 64
5, 147356, Note_off_c, 3, 52, 64
5, 147356, Note_off_c, 3, 48, 64
5, 147360, Note_on_c, 3, 57, 88
5, 147452, Note_off_c, 3, 57, 64
5, 147456, Note_on_c, 3, 55, 88
5, 147456, Note_on_c, 3, 50, 88
5, 147456, Note_on_c, 3, 50, 88
5, 147548, Note_off_c, 3, 55, 64
5, 147548, Note_off_c, 3, 50, 64
5, 147552, Note_on_c, 3, 59, 88
5, 147644, Note_off_c, 3, 59, 64
5, 147648, Note_on_c, 3, 55, 88
5, 147648, Note_on_c, 3, 50, 88
5, 147740, Note_off_c, 3, 50, 64
5, 147740, Note_off_c, 3, 55, 64
5, 147744, Note_on_c, 3, 59, 88
5, 147836, Note_off_c, 3, 59, 64
5, 147840, Note_on_c, 3, 55, 88
5, 147840, Note_on_c, 3, 50, 88
5, 147932, Note_off_c, 3, 50, 64
5, 147932, Note_off_c, 3, 55, 64
5, 147936, Note_on_c, 3, 59, 88
5, 148028, Note_off_c, 3, 59, 64
5, 148032, Note_on_c, 3, 55, 88
5, 148032, Note_on_c, 3, 50, 88
5, 148124, Note_off_c, 3, 50, 64
5, 148124, Note_off_c, 3, 55, 64
5, 148128, Note_on_c, 3, 59, 88
5, 148220, Note_off_c, 3, 50, 64
5, 148220, Note_off_c, 3, 59, 64
5, 148224, Note_on_c, 3, 55, 88
5, 148224, Note_on_c, 3, 50, 88
5, 148412, Note_off_c, 3, 55, 64
5, 148412, Note_off_c, 3, 50, 64
5, 148416, Note_on_c, 3, 50, 88
5, 148416, Note_on_c, 3, 38, 88
5, 148508, Note_off_c, 3, 50, 64
5, 148508, Note_off_c, 3, 38, 64
5, 148608, Note_on_c, 3, 50, 88
5, 148608, Note_on_c, 3, 38, 88
5, 148700, Note_off_c, 3, 50, 64
5, 148700, Note_off_c, 3, 38, 64
5, 148800, Note_on_c, 3, 50, 88
5, 148800, Note_on_c, 3, 38, 88
5, 148892, Note_off_c, 3, 50, 64
5, 148892, Note_off_c, 3, 38, 64
5, 148992, Note_on_c, 3, 55, 88
5, 148992, Note_on_c, 3, 43, 88
5, 149084, Note_off_c, 3, 55, 64
5, 149084, Note_off_c, 3, 43, 64
5, 149760, Note_on_c, 3, 50, 60
5, 149760, Note_on_c, 3, 38, 60
5, 149852, Note_off_c, 3, 50, 64
5, 149852, Note_off_c, 3, 38, 64
5, 150528, Note_on_c, 3, 55, 60
5, 150528, Note_on_c, 3, 43, 60
5, 150620, Note_off_c, 3, 55, 64
5, 150620, Note_off_c, 3, 43, 64
5, 150912, Note_on_c, 3, 55, 88
5, 150912, Note_on_c, 3, 50, 88
5, 150912, Note_on_c, 3, 47, 88
5, 151292, Note_off_c, 3, 55, 64
5, 151292, Note_off_c, 3, 50, 64
5, 151292, Note_off_c, 3, 47, 64
5, 151296, Note_on_c, 3, 57, 88
5, 151296, Note_on_c, 3, 52, 88
5, 151296, Note_on_c, 3, 48, 88
5, 151676, Note_off_c, 3, 57, 64
5, 151676, Note_off_c, 3, 52, 64
5, 151676, Note_off_c, 3, 48, 64
5, 151680, Note_on_c, 3, 62, 88
5, 151680, Note_on_c, 3, 60, 88
5, 151680, Note_on_c, 3, 50, 88
5, 152060, Note_off_c, 3, 62, 64
5, 152060, Note_off_c, 3, 60, 64
5, 152060, Note_off_c, 3, 50, 64
5, 152064, Note_on_c, 3, 62, 88
5, 152064, Note_on_c, 3, 59, 88
5, 152064, Note_on_c, 3, 55, 88
5, 152444, Note_off_c, 3, 62, 64
5, 152444, Note_off_c, 3, 59, 64
5, 152444, Note_off_c, 3, 55, 64
5, 155136, Note_on_c, 3, 55, 60
5, 155136, Note_on_c, 3, 43, 60
5, 155516, Note_off_c, 3, 55, 64
5, 155516, Note_off_c, 3, 43, 64
5, 155904, Note_on_c, 3, 55, 60
5, 155904, Note_on_c, 3, 43, 60
5, 156284, Note_off_c, 3, 55, 64
5, 156284, Note_off_c, 3, 43, 64
5, 156672, Note_on_c, 3, 54, 60
5, 156672, Note_on_c, 3, 42, 60
5, 157052, Note_off_c, 3, 54, 64
5, 157052, Note_off_c, 3, 42, 64
5, 157440, Note_on_c, 3, 54, 60
5, 157440, Note_on_c, 3, 42, 60
5, 157820, Note_off_c, 3, 54, 64
5, 157820, Note_off_c, 3, 42, 64
5, 158208, Note_on_c, 3, 55, 62
5, 158208, Note_on_c, 3, 43, 62
5, 158588, Note_off_c, 3, 55, 64
5, 158588, Note_off_c, 3, 43, 64
5, 158976, Note_on_c, 3, 55, 68
5, 158976, Note_on_c, 3, 43, 68
5, 159356, Note_off_c, 3, 55, 64
5, 159356, Note_off_c, 3, 43, 64
5, 159744, Note_on_c, 3, 54, 74
5, 159744, Note_on_c, 3, 42, 74
5, 160124, Note_off_c, 3, 54, 64
5, 160124, Note_off_c, 3, 42, 64
5, 160512, Note_on_c, 3, 50, 67
5, 160512, Note_on_c, 3, 38, 67
5, 160892, Note_off_c, 3, 50, 64
5, 160892, Note_off_c, 3, 38, 64
5, 161280, Note_on_c, 3, 55, 60
5, 161280, Note_on_c, 3, 43, 60
5, 161468, Note_off_c, 3, 55, 64
5, 161468, Note_off_c, 3, 43, 64
5, 161664, Note_on_c, 3, 59, 60
5, 161664, Note_on_c, 3, 47, 60
5, 161852, Note_off_c, 3, 59, 64
5, 161852, Note_off_c, 3, 47, 64
5, 162048, Note_on_c, 3, 60, 60
5, 162048, Note_on_c, 3, 48, 60
5, 162236, Note_off_c, 3, 60, 64
5, 162236, Note_off_c, 3, 48, 64
5, 162432, Note_on_c, 3, 50, 60
5, 162620, Note_off_c, 3, 50, 64
5, 162816, Note_on_c, 3, 55, 88
5, 162816, Note_on_c, 3, 43, 88
5, 162908, Note_off_c, 3, 55, 64
5, 162908, Note_off_c, 3, 43, 64
5, 163008, Note_on_c, 3, 55, 88
5, 163100, Note_off_c, 3, 55, 64
5, 163200, Note_on_c, 3, 47, 88
5, 163292, Note_off_c, 3, 47, 64
5, 163392, Note_on_c, 3, 55, 88
5, 163484, Note_off_c, 3, 55, 64
5, 163584, Note_on_c, 3, 48, 88
5, 163676, Note_off_c, 3, 48, 64
5, 163776, Note_on_c, 3, 57, 88
5, 163868, Note_off_c, 3, 57, 64
5, 163968, Note_on_c, 3, 50, 88
5, 164060, Note_off_c, 3, 50, 64
5, 164160, Note_on_c, 3, 54, 88
5, 164252, Note_off_c, 3, 54, 64
5, 164352, Note_on_c, 3, 55, 88
5, 165116, Note_off_c, 3, 55, 64
5, 165120, Note_on_c, 3, 62, 60
5, 165120, Note_on_c, 3, 53, 60
5, 165884, Note_off_c, 3, 62, 64
5, 165884, Note_off_c, 3, 53, 64
5, 165888, Note_on_c, 3, 61, 66
5, 165888, Note_on_c, 3, 52, 66
5, 166652, Note_off_c, 3, 61, 64
5, 166652, Note_off_c, 3, 52, 64
5, 166656, Note_on_c, 3, 62, 69
5, 166656, Note_on_c, 3, 50, 69
5, 167420, Note_off_c, 3, 62, 64
5, 167420, Note_off_c, 3, 50, 64
5, 167424, Note_on_c, 3, 61, 74
5, 167424, Note_on_c, 3, 49, 74
5, 167804, Note_off_c, 3, 61, 64
5, 167804, Note_off_c, 3, 49, 64
5, 168960, Note_on_c, 3, 50, 60
5, 169724, Note_off_c, 3, 50, 64
5, 169728, Note_on_c, 3, 60, 60
5, 169728, Note_on_c, 3, 48, 60
5, 170492, Note_off_c, 3, 60, 64
5, 170492, Note_off_c, 3, 48, 64
5, 170496, Note_on_c, 3, 59, 62
5, 170496, Note_on_c, 3, 47, 62
5, 171260, Note_off_c, 3, 59, 64
5, 171260, Note_off_c, 3, 47, 64
5, 171264, Note_on_c, 3, 57, 73
5, 171264, Note_on_c, 3, 45, 73
5, 172028, Note_off_c, 3, 57, 64
5, 172028, Note_off_c, 3, 45, 64
5, 172032, Note_on_c, 3, 56, 88
5, 172032, Note_on_c, 3, 44, 88
5, 172412, Note_off_c, 3, 56, 64
5, 172412, Note_off_c, 3, 44, 64
5, 173568, Note_on_c, 3, 57, 88
5, 173568, Note_on_c, 3, 45, 88
5, 173660, Note_off_c, 3, 57, 64
5, 173660, Note_off_c, 3, 45, 64
5, 174336, Note_on_c, 3, 52, 88
5, 174336, Note_on_c, 3, 40, 88
5, 174428, Note_off_c, 3, 52, 64
5, 174428, Note_off_c, 3, 40, 64
5, 175104, Note_on_c, 3, 45, 88
5, 175104, Note_on_c, 3, 33, 88
5, 175196, Note_off_c, 3, 45, 64
5, 175196, Note_off_c, 3, 33, 64
5, 175488, Note_on_c, 3, 57, 88
5, 175488, Note_on_c, 3, 52, 88
5, 175488, Note_on_c, 3, 48, 88
5, 175868, Note_off_c, 3, 57, 64
5, 175868, Note_off_c, 3, 52, 64
5, 175868, Note_off_c, 3, 48, 64
5, 175872, Note_on_c, 3, 59, 88
5, 175872, Note_on_c, 3, 53, 88
5, 175872, Note_on_c, 3, 50, 88
5, 176252, Note_off_c, 3, 59, 64
5, 176252, Note_off_c, 3, 53, 64
5, 176252, Note_off_c, 3, 50, 64
5, 176256, Note_on_c, 3, 64, 88
5, 176256, Note_on_c, 3, 62, 88
5, 176256, Note_on_c, 3, 59, 88
5, 176256, Note_on_c, 3, 52, 88
5, 176636, Note_off_c, 3, 64, 64
5, 176636, Note_off_c, 3, 62, 64
5, 176636, Note_off_c, 3, 59, 64
5, 176636, Note_off_c, 3, 52, 64
5, 176640, Note_on_c, 3, 64, 88
5, 176640, Note_on_c, 3, 60, 88
5, 176640, Note_on_c, 3, 57, 88
5, 177020, Note_off_c, 3, 64, 64
5, 177020, Note_off_c, 3, 60, 64
5, 177020, Note_off_c, 3, 57, 64
5, 188928, Note_on_c, 3, 52, 60
5, 188928, Note_on_c, 3, 40, 60
5, 189116, Note_off_c, 3, 52, 64
5, 189116, Note_off_c, 3, 40, 64
5, 189696, Note_on_c, 3, 47, 60
5, 189696, Note_on_c, 3, 35, 60
5, 189884, Note_off_c, 3, 47, 64
5, 189884, Note_off_c, 3, 35, 64
5, 190464, Note_on_c, 3, 48, 62
5, 190464, Note_on_c, 3, 36, 62
5, 190844, Note_off_c, 3, 48, 64
5, 190844, Note_off_c, 3, 36, 64
5, 190848, Note_on_c, 3, 58, 68
5, 190848, Note_on_c, 3, 46, 68
5, 191228, Note_off_c, 3, 58, 64
5, 191228, Note_off_c, 3, 46, 64
5, 191232, Note_on_c, 3, 57, 74
5, 191232, Note_on_c, 3, 45, 74
5, 191612, Note_off_c, 3, 57, 64
5, 191612, Note_off_c, 3, 45, 64
5, 191616, Note_on_c, 3, 53, 82
5, 191616, Note_on_c, 3, 41, 82
5, 191996, Note_off_c, 3, 53, 64
5, 191996, Note_off_c, 3, 41, 64
5, 192000, Note_on_c, 3, 52, 88
5, 192000, Note_on_c, 3, 40, 88
5, 192380, Note_off_c, 3, 52, 64
5, 192380, Note_off_c, 3, 40, 64
5, 194304, Note_on_c, 3, 59, 60
5, 194304, Note_on_c, 3, 47, 60
5, 194492, Note_off_c, 3, 59, 64
5, 194492, Note_off_c, 3, 47, 64
5, 194688, Note_on_c, 3, 60, 60
5, 194688, Note_on_c, 3, 48, 60
5, 194876, Note_off_c, 3, 60, 64
5, 194876, Note_off_c, 3, 48, 64
5, 195072, Note_on_c, 3, 55, 60
5, 195072, Note_on_c, 3, 43, 60
5, 195452, Note_off_c, 3, 55, 64
5, 195452, Note_off_c, 3, 43, 64
5, 198144, Note_on_c, 3, 55, 60
5, 198144, Note_on_c, 3, 43, 60
5, 201596, Note_off_c, 3, 43, 64
5, 201596, Note_off_c, 3, 55, 64
5, 204288, Note_on_c, 3, 60, 99
5, 204288, Note_on_c, 3, 48, 99
5, 205052, Note_off_c, 3, 60, 64
5, 205052, Note_off_c, 3, 48, 64
5, 205824, Note_on_c, 3, 55, 99
5, 205824, Note_on_c, 3, 48, 99
5, 205916, Note_off_c, 3, 55, 64
5, 205916, Note_off_c, 3, 48, 64
5, 206016, Note_on_c, 3, 60, 99
5, 206108, Note_off_c, 3, 60, 64
5, 206208, Note_on_c, 3, 48, 99
5, 206300, Note_off_c, 3, 48, 64
5, 206400, Note_on_c, 3, 62, 99
5, 206492, Note_off_c, 3, 62, 64
5, 206592, Note_on_c, 3, 55, 99
5, 206592, Note_on_c, 3, 48, 99
5, 206684, Note_off_c, 3, 55, 64
5, 206684, Note_off_c, 3, 48, 64
5, 206784, Note_on_c, 3, 60, 99
5, 206876, Note_off_c, 3, 60, 64
5, 206976, Note_on_c, 3, 48, 99
5, 207068, Note_off_c, 3, 48, 64
5, 207168, Note_on_c, 3, 60, 99
5, 207260, Note_off_c, 3, 60, 64
5, 207360, Note_on_c, 3, 55, 99
5, 207360, Note_on_c, 3, 48, 99
5, 207452, Note_off_c, 3, 55, 64
5, 207452, Note_off_c, 3, 48, 64
5, 207552, Note_on_c, 3, 60, 99
5, 207644, Note_off_c, 3, 60, 64
5, 207744, Note_on_c, 3, 48, 99
5, 207836, Note_off_c, 3, 48, 64
5, 207936, Note_on_c, 3, 60, 99
5, 208028, Note_off_c, 3, 60, 64
5, 208128, Note_on_c, 3, 55, 99
5, 208128, Note_on_c, 3, 48, 99
5, 208220, Note_off_c, 3, 55, 64
5, 208220, Note_off_c, 3, 48, 64
5, 208320, Note_on_c, 3, 60, 99
5, 208412, Note_off_c, 3, 60, 64
5, 208512, Note_on_c, 3, 48, 99
5, 208604, Note_off_c, 3, 48, 64
5, 208704, Note_on_c, 3, 60, 99
5, 208796, Note_off_c, 3, 60, 64
5, 208896, Note_on_c, 3, 55, 99
5, 208896, Note_on_c, 3, 48, 99
5, 208988, Note_off_c, 3, 55, 64
5, 208988, Note_off_c, 3, 48, 64
5, 209088, Note_on_c, 3, 60, 99
5, 209180, Note_off_c, 3, 60, 64
5, 209280, Note_on_c, 3, 55, 90
5, 209372, Note_off_c, 3, 55, 64
5, 209472, Note_on_c, 3, 52, 76
5, 209564, Note_off_c, 3, 52, 64
5, 209664, Note_on_c, 3, 48, 68
5, 210044, Note_off_c, 3, 48, 64
5, 210432, Note_on_c, 3, 65, 60
5, 210620, Note_off_c, 3, 65, 64
5, 210624, Note_on_c, 3, 55, 60
5, 210812, Note_off_c, 3, 55, 64
5, 210816, Note_on_c, 3, 65, 60
5, 211004, Note_off_c, 3, 65, 64
5, 211008, Note_on_c, 3, 55, 60
5, 211196, Note_off_c, 3, 55, 64
5, 211200, Note_on_c, 3, 64, 60
5, 211388, Note_off_c, 3, 64, 64
5, 211392, Note_on_c, 3, 55, 60
5, 211580, Note_off_c, 3, 55, 64
5, 211584, Note_on_c, 3, 64, 60
5, 211772, Note_off_c, 3, 64, 64
5, 211776, Note_on_c, 3, 55, 60
5, 211964, Note_off_c, 3, 55, 64
5, 211968, Note_on_c, 3, 65, 60
5, 211968, Note_on_c, 3, 59, 60
5, 212156, Note_off_c, 3, 65, 64
5, 212156, Note_off_c, 3, 59, 64
5, 212160, Note_on_c, 3, 55, 60
5, 212348, Note_off_c, 3, 55, 64
5, 212352, Note_on_c, 3, 65, 60
5, 212352, Note_on_c, 3, 59, 60
5, 212540, Note_off_c, 3, 65, 64
5, 212540, Note_off_c, 3, 59, 64
5, 212544, Note_on_c, 3, 55, 60
5, 212732, Note_off_c, 3, 55, 64
5, 212736, Note_on_c, 3, 64, 60
5, 212736, Note_on_c, 3, 60, 60
5, 212924, Note_off_c, 3, 64, 64
5, 212924, Note_off_c, 3, 60, 64
5, 212928, Note_on_c, 3, 55, 60
5, 213116, Note_off_c, 3, 55, 64
5, 213120, Note_on_c, 3, 64, 60
5, 213120, Note_on_c, 3, 60, 60
5, 213308, Note_off_c, 3, 64, 64
5, 213308, Note_off_c, 3, 60, 64
5, 213312, Note_on_c, 3, 55, 60
5, 213500, Note_off_c, 3, 55, 64
5, 213504, Note_on_c, 3, 59, 60
5, 213504, Note_on_c, 3, 47, 60
5, 213692, Note_off_c, 3, 59, 64
5, 213692, Note_off_c, 3, 47, 64
5, 213888, Note_on_c, 3, 60, 60
5, 213888, Note_on_c, 3, 48, 60
5, 214076, Note_off_c, 3, 60, 64
5, 214076, Note_off_c, 3, 48, 64
5, 214272, Note_on_c, 3, 53, 60
5, 214272, Note_on_c, 3, 41, 60
5, 214460, Note_off_c, 3, 53, 64
5, 214460, Note_off_c, 3, 41, 64
5, 214656, Note_on_c, 3, 55, 60
5, 214656, Note_on_c, 3, 43, 60
5, 214844, Note_off_c, 3, 55, 64
5, 214844, Note_off_c, 3, 43, 64
5, 215040, Note_on_c, 3, 55, 60
5, 215040, Note_on_c, 3, 48, 60
5, 215228, Note_off_c, 3, 55, 64
5, 215228, Note_off_c, 3, 48, 64
5, 218112, Note_on_c, 3, 65, 60
5, 218300, Note_off_c, 3, 65, 64
5, 218304, Note_on_c, 3, 55, 60
5, 218492, Note_off_c, 3, 55, 64
5, 218496, Note_on_c, 3, 65, 60
5, 218684, Note_off_c, 3, 65, 64
5, 218688, Note_on_c, 3, 55, 60
5, 218876, Note_off_c, 3, 55, 64
5, 218880, Note_on_c, 3, 64, 60
5, 219068, Note_off_c, 3, 64, 64
5, 219072, Note_on_c, 3, 55, 60
5, 219260, Note_off_c, 3, 55, 64
5, 219264, Note_on_c, 3, 64, 60
5, 219452, Note_off_c, 3, 64, 64
5, 219456, Note_on_c, 3, 55, 60
5, 219644, Note_off_c, 3, 55, 64
5, 219648, Note_on_c, 3, 62, 60
5, 220028, Note_off_c, 3, 62, 64
5, 221184, Note_on_c, 3, 55, 88
5, 221184, Note_on_c, 3, 52, 88
5, 221184, Note_on_c, 3, 48, 88
5, 221276, Note_off_c, 3, 55, 64
5, 221276, Note_off_c, 3, 52, 64
5, 221276, Note_off_c, 3, 48, 64
5, 221280, Note_on_c, 3, 60, 88
5, 221372, Note_off_c, 3, 60, 64
5, 221376, Note_on_c, 3, 55, 88
5, 221376, Note_on_c, 3, 52, 88
5, 221376, Note_on_c, 3, 48, 88
5, 221468, Note_off_c, 3, 55, 64
5, 221468, Note_off_c, 3, 52, 64
5, 221468, Note_off_c, 3, 48, 64
5, 221472, Note_on_c, 3, 60, 88
5, 221564, Note_off_c, 3, 60, 64
5, 221568, Note_on_c, 3, 55, 88
5, 221568, Note_on_c, 3, 52, 88
5, 221568, Note_on_c, 3, 48, 88
5, 221660, Note_off_c, 3, 55, 64
5, 221660, Note_off_c, 3, 52, 64
5, 221660, Note_off_c, 3, 48, 64
5, 221664, Note_on_c, 3, 60, 88
5, 221756, Note_off_c, 3, 60, 64
5, 221760, Note_on_c, 3, 55, 88
5, 221760, Note_on_c, 3, 52, 88
5, 221760, Note_on_c, 3, 48, 88
5, 221852, Note_off_c, 3, 55, 64
5, 221852, Note_off_c, 3, 52, 64
5, 221852, Note_off_c, 3, 48, 64
5, 221856, Note_on_c, 3, 60, 88
5, 221948, Note_off_c, 3, 60, 64
5, 221952, Note_on_c, 3, 57, 88
5, 221952, Note_on_c, 3, 53, 88
5, 221952, Note_on_c, 3, 48, 88
5, 222044, Note_off_c, 3, 57, 64
5, 222044, Note_off_c, 3, 53, 64
5, 222044, Note_off_c, 3, 48, 64
5, 222048, Note_on_c, 3, 60, 88
5, 222140, Note_off_c, 3, 60, 64
5, 222144, Note_on_c, 3, 57, 88
5, 222144, Note_on_c, 3, 53, 88
5, 222144, Note_on_c, 3, 48, 88
5, 222236, Note_off_c, 3, 57, 64
5, 222236, Note_off_c, 3, 53, 64
5, 222236, Note_off_c, 3, 48, 64
5, 222240, Note_on_c, 3, 60, 88
5, 222332, Note_off_c, 3, 60, 64
5, 222336, Note_on_c, 3, 57, 88
5, 222336, Note_on_c, 3, 53, 88
5, 222336, Note_on_c, 3, 48, 88
5, 222428, Note_off_c, 3, 57, 64
5, 222428, Note_off_c, 3, 53, 64
5, 222428, Note_off_c, 3, 48, 64
5, 222432, Note_on_c, 3, 60, 88
5, 222524, Note_off_c, 3, 60, 64
5, 222528, Note_on_c, 3, 57, 88
5, 222528, Note_on_c, 3, 53, 88
5, 222528, Note_on_c, 3, 48, 88
5, 222620, Note_off_c, 3, 57, 64
5, 222620, Note_off_c, 3, 53, 64
5, 222620, Note_off_c, 3, 48, 64
5, 222624, Note_on_c, 3, 60, 88
5, 222716, Note_off_c, 3, 60, 64
5, 222720, Note_on_c, 3, 55, 88
5, 222720, Note_on_c, 3, 52, 88
5, 222720, Note_on_c, 3, 48, 88
5, 222812, Note_off_c, 3, 55, 64
5, 222812, Note_off_c, 3, 52, 64
5, 222812, Note_off_c, 3, 48, 64
5, 222816, Note_on_c, 3, 60, 88
5, 222908, Note_off_c, 3, 60, 64
5, 222912, Note_on_c, 3, 55, 88
5, 222912, Note_on_c, 3, 52, 88
5, 222912, Note_on_c, 3, 48, 88
5, 223004, Note_off_c, 3, 55, 64
5, 223004, Note_off_c, 3, 52, 64
5, 223004, Note_off_c, 3, 48, 64
5, 223008, Note_on_c, 3, 60, 88
5, 223100, Note_off_c, 3, 60, 64
5, 223104, Note_on_c, 3, 55, 88
5, 223104, Note_on_c, 3, 52, 88
5, 223104, Note_on_c, 3, 48, 88
5, 223196, Note_off_c, 3, 55, 64
5, 223196, Note_off_c, 3, 52, 64
5, 223196, Note_off_c, 3, 48, 64
5, 223200, Note_on_c, 3, 60, 88
5, 223292, Note_off_c, 3, 60, 64
5, 223296, Note_on_c, 3, 55, 88
5, 223296, Note_on_c, 3, 52, 88
5, 223296, Note_on_c, 3, 48, 88
5, 223388, Note_off_c, 3, 55, 64
5, 223388, Note_off_c, 3, 52, 64
5, 223388, Note_off_c, 3, 48, 64
5, 223392, Note_on_c, 3, 60, 88
5, 223484, Note_off_c, 3, 60, 64
5, 223488, Note_on_c, 3, 57, 88
5, 223488, Note_on_c, 3, 53, 88
5, 223488, Note_on_c, 3, 48, 88
5, 223580, Note_off_c, 3, 57, 64
5, 223580, Note_off_c, 3, 53, 64
5, 223580, Note_off_c, 3, 48, 64
5, 223584, Note_on_c, 3, 60, 88
5, 223676, Note_off_c, 3, 60, 64
5, 223680, Note_on_c, 3, 57, 88
5, 223680, Note_on_c, 3, 53, 88
5, 223680, Note_on_c, 3, 48, 88
5, 223772, Note_off_c, 3, 57, 64
5, 223772, Note_off_c, 3, 53, 64
5, 223772, Note_off_c, 3, 48, 64
5, 223776, Note_on_c, 3, 60, 88
5, 223868, Note_off_c, 3, 60, 64
5, 223872, Note_on_c, 3, 57, 88
5, 223872, Note_on_c, 3, 53, 88
5, 223872, Note_on_c, 3, 48, 88
5, 223964, Note_off_c, 3, 57, 64
5, 223964, Note_off_c, 3, 53, 64
5, 223964, Note_off_c, 3, 48, 64
5, 223968, Note_on_c, 3, 60, 88
5, 224060, Note_off_c, 3, 60, 64
5, 224064, Note_on_c, 3, 57, 88
5, 224064, Note_on_c, 3, 53, 88
5, 224064, Note_on_c, 3, 48, 88
5, 224156, Note_off_c, 3, 57, 64
5, 224156, Note_off_c, 3, 53, 64
5, 224156, Note_off_c, 3, 48, 64
5, 224160, Note_on_c, 3, 60, 88
5, 224252, Note_off_c, 3, 60, 64
5, 224256, Note_on_c, 3, 60, 88
5, 224256, Note_on_c, 3, 55, 88
5, 224256, Note_on_c, 3, 52, 88
5, 224256, Note_on_c, 3, 48, 88
5, 224636, Note_off_c, 3, 60, 64
5, 224636, Note_off_c, 3, 55, 64
5, 224636, Note_off_c, 3, 52, 64
5, 224636, Note_off_c, 3, 48, 64
5, 230400, Note_on_c, 3, 55, 88
5, 230492, Note_off_c, 3, 55, 64
5, 230496, Note_on_c, 3, 57, 88
5, 230588, Note_off_c, 3, 57, 64
5, 230592, Note_on_c, 3, 59, 88
5, 230684, Note_off_c, 3, 59, 64
5, 230688, Note_on_c, 3, 57, 88
5, 230780, Note_off_c, 3, 57, 64
5, 230784, Note_on_c, 3, 55, 88
5, 230876, Note_off_c, 3, 55, 64
5, 230880, Note_on_c, 3, 57, 88
5, 230972, Note_off_c, 3, 57, 64
5, 230976, Note_on_c, 3, 59, 88
5, 231068, Note_off_c, 3, 59, 64
5, 231072, Note_on_c, 3, 55, 88
5, 231164, Note_off_c, 3, 55, 64
5, 231168, Note_on_c, 3, 60, 88
5, 231260, Note_off_c, 3, 60, 64
5, 231264, Note_on_c, 3, 62, 88
5, 231356, Note_off_c, 3, 62, 64
5, 231360, Note_on_c, 3, 64, 88
5, 231452, Note_off_c, 3, 64, 64
5, 231456, Note_on_c, 3, 62, 88
5, 231548, Note_off_c, 3, 62, 64
5, 231552, Note_on_c, 3, 60, 88
5, 231644, Note_off_c, 3, 60, 64
5, 231648, Note_on_c, 3, 62, 88
5, 231740, Note_off_c, 3, 62, 64
5, 231744, Note_on_c, 3, 64, 88
5, 231836, Note_off_c, 3, 64, 64
5, 231840, Note_on_c, 3, 60, 88
5, 231932, Note_off_c, 3, 60, 64
5, 231936, Note_on_c, 3, 55, 88
5, 232028, Note_off_c, 3, 55, 64
5, 232032, Note_on_c, 3, 57, 88
5, 232124, Note_off_c, 3, 57, 64
5, 232128, Note_on_c, 3, 59, 88
5, 232220, Note_off_c, 3, 59, 64
5, 232224, Note_on_c, 3, 57, 88
5, 232316, Note_off_c, 3, 57, 64
5, 232320, Note_on_c, 3, 55, 88
5, 232412, Note_off_c, 3, 55, 64
5, 232416, Note_on_c, 3, 57, 88
5, 232508, Note_off_c, 3, 57, 64
5, 232512, Note_on_c, 3, 59, 88
5, 232604, Note_off_c, 3, 59, 64
5, 232608, Note_on_c, 3, 55, 88
5, 232700, Note_off_c, 3, 55, 64
5, 232704, Note_on_c, 3, 60, 88
5, 232796, Note_off_c, 3, 60, 64
5, 232800, Note_on_c, 3, 62, 88
5, 232892, Note_off_c, 3, 62, 64
5, 232896, Note_on_c, 3, 64, 88
5, 232988, Note_off_c, 3, 64, 64
5, 232992, Note_on_c, 3, 62, 88
5, 233084, Note_off_c, 3, 62, 64
5, 233088, Note_on_c, 3, 60, 88
5, 233180, Note_off_c, 3, 60, 64
5, 233184, Note_on_c, 3, 62, 88
5, 233276, Note_off_c, 3, 62, 64
5, 233280, Note_on_c, 3, 64, 88
5, 233372, Note_off_c, 3, 64, 64
5, 233376, Note_on_c, 3, 60, 88
5, 233468, Note_off_c, 3, 60, 64
5, 233472, Note_on_c, 3, 62, 100
5, 233472, Note_on_c, 3, 55, 100
5, 233516, Note_off_c, 3, 62, 64
5, 233520, Note_on_c, 3, 60, 88
5, 233572, Note_off_c, 3, 60, 64
5, 233576, Note_on_c, 3, 59, 88
5, 233852, Note_off_c, 3, 55, 64
5, 233852, Note_off_c, 3, 59, 64
5, 234240, Note_on_c, 3, 62, 100
5, 234240, Note_on_c, 3, 55, 100
5, 234284, Note_off_c, 3, 62, 64
5, 234288, Note_on_c, 3, 60, 88
5, 234340, Note_off_c, 3, 60, 64
5, 234344, Note_on_c, 3, 59, 88
5, 234620, Note_off_c, 3, 55, 64
5, 234620, Note_off_c, 3, 59, 64
5, 235008, Note_on_c, 3, 55, 60
5, 235008, Note_on_c, 3, 48, 60
5, 235196, Note_off_c, 3, 55, 64
5, 235196, Note_off_c, 3, 48, 64
5, 235776, Note_on_c, 3, 59, 60
5, 235776, Note_on_c, 3, 47, 60
5, 235964, Note_off_c, 3, 59, 64
5, 235964, Note_off_c, 3, 47, 64
5, 236544, Note_on_c, 3, 57, 60
5, 236544, Note_on_c, 3, 45, 60
5, 236924, Note_off_c, 3, 57, 64
5, 236924, Note_off_c, 3, 45, 64
5, 237312, Note_on_c, 3, 53, 60
5, 237312, Note_on_c, 3, 41, 60
5, 237692, Note_off_c, 3, 53, 64
5, 237692, Note_off_c, 3, 41, 64
5, 238080, Note_on_c, 3, 52, 60
5, 238080, Note_on_c, 3, 43, 60
5, 238844, Note_off_c, 3, 52, 64
5, 238848, Note_on_c, 3, 50, 60
5, 239612, Note_off_c, 3, 43, 64
5, 239612, Note_off_c, 3, 50, 64
5, 239616, Note_on_c, 3, 48, 60
5, 239996, Note_off_c, 3, 48, 64
5, 240192, Note_on_c, 3, 67, 88
5, 240192, Note_on_c, 3, 55, 88
5, 240284, Note_off_c, 3, 67, 64
5, 240284, Note_off_c, 3, 55, 64
5, 240384, Note_on_c, 3, 65, 88
5, 240384, Note_on_c, 3, 53, 88
5, 240476, Note_off_c, 3, 65, 64
5, 240476, Note_off_c, 3, 53, 64
5, 240576, Note_on_c, 3, 62, 88
5, 240576, Note_on_c, 3, 50, 88
5, 240668, Note_off_c, 3, 62, 64
5, 240668, Note_off_c, 3, 50, 64
5, 240768, Note_on_c, 3, 59, 88
5, 240768, Note_on_c, 3, 47, 88
5, 240860, Note_off_c, 3, 59, 64
5, 240860, Note_off_c, 3, 47, 64
5, 240960, Note_on_c, 3, 55, 88
5, 240960, Note_on_c, 3, 43, 88
5, 241052, Note_off_c, 3, 55, 64
5, 241052, Note_off_c, 3, 43, 64
5, 241152, Note_on_c, 3, 60, 60
5, 241152, Note_on_c, 3, 48, 60
5, 241532, Note_off_c, 3, 60, 64
5, 241532, Note_off_c, 3, 48, 64
5, 241920, Note_on_c, 3, 59, 60
5, 242108, Note_off_c, 3, 59, 64
5, 242688, Note_on_c, 3, 57, 60
5, 242876, Note_off_c, 3, 57, 64
5, 243456, Note_on_c, 3, 53, 60
5, 243644, Note_off_c, 3, 53, 64
5, 244224, Note_on_c, 3, 55, 60
5, 244224, Note_on_c, 3, 43, 60
5, 245756, Note_off_c, 3, 55, 64
5, 245756, Note_off_c, 3, 43, 64
5, 245760, Note_on_c, 3, 60, 60
5, 245760, Note_on_c, 3, 48, 60
5, 246140, Note_off_c, 3, 60, 64
5, 246140, Note_off_c, 3, 48, 64
5, 246144, Note_on_c, 3, 64, 60
5, 246524, Note_off_c, 3, 64, 64
5, 246528, Note_on_c, 3, 60, 60
5, 246908, Note_off_c, 3, 60, 64
5, 246912, Note_on_c, 3, 64, 60
5, 247292, Note_off_c, 3, 64, 64
5, 247296, Note_on_c, 3, 60, 60
5, 247676, Note_off_c, 3, 60, 64
5, 247680, Note_on_c, 3, 65, 60
5, 248060, Note_off_c, 3, 65, 64
5, 248064, Note_on_c, 3, 60, 60
5, 248444, Note_off_c, 3, 60, 64
5, 248448, Note_on_c, 3, 65, 60
5, 248828, Note_off_c, 3, 65, 64
5, 248832, Note_on_c, 3, 60, 60
5, 249212, Note_off_c, 3, 60, 64
5, 249216, Note_on_c, 3, 64, 60
5, 249596, Note_off_c, 3, 64, 64
5, 249600, Note_on_c, 3, 60, 60
5, 249980, Note_off_c, 3, 60, 64
5, 249984, Note_on_c, 3, 64, 60
5, 250364, Note_off_c, 3, 64, 64
5, 250368, Note_on_c, 3, 60, 60
5, 250748, Note_off_c, 3, 60, 64
5, 250752, Note_on_c, 3, 65, 60
5, 251132, Note_off_c, 3, 65, 64
5, 251136, Note_on_c, 3, 60, 60
5, 251516, Note_off_c, 3, 60, 64
5, 251520, Note_on_c, 3, 65, 60
5, 251900, Note_off_c, 3, 65, 64
5, 251904, Note_on_c, 3, 60, 60
5, 252284, Note_off_c, 3, 60, 64
5, 252288, Note_on_c, 3, 64, 60
5, 252668, Note_off_c, 3, 64, 64
5, 252672, Note_on_c, 3, 60, 60
5, 253052, Note_off_c, 3, 60, 64
5, 253440, Note_on_c, 3, 53, 60
5, 253440, Note_on_c, 3, 41, 60
5, 253820, Note_off_c, 3, 53, 64
5, 253820, Note_off_c, 3, 41, 64
5, 254592, Note_on_c, 3, 54, 60
5, 254592, Note_on_c, 3, 42, 60
5, 254972, Note_off_c, 3, 54, 64
5, 254972, Note_off_c, 3, 42, 64
5, 254976, Note_on_c, 3, 55, 63
5, 254976, Note_on_c, 3, 43, 63
5, 256508, Note_off_c, 3, 55, 64
5, 256508, Note_off_c, 3, 43, 64
5, 256512, Note_on_c, 3, 55, 66
5, 256512, Note_on_c, 3, 43, 66
5, 258044, Note_off_c, 3, 55, 64
5, 258044, Note_off_c, 3, 43, 64
5, 258048, Note_on_c, 3, 55, 68
5, 258048, Note_on_c, 3, 43, 68
5, 258428, Note_off_c, 3, 55, 64
5, 258428, Note_off_c, 3, 43, 64
5, 261120, Note_on_c, 3, 52, 60
5, 261120, Note_on_c, 3, 40, 60
5, 261212, Note_off_c, 3, 52, 64
5, 261212, Note_off_c, 3, 40, 64
5, 261504, Note_on_c, 3, 55, 60
5, 261504, Note_on_c, 3, 43, 60
5, 261596, Note_off_c, 3, 55, 64
5, 261596, Note_off_c, 3, 43, 64
5, 261888, Note_on_c, 3, 48, 60
5, 261980, Note_off_c, 3, 48, 64
5, 262272, Note_on_c, 3, 43, 60
5, 262272, Note_on_c, 3, 55, 60
5, 262364, Note_off_c, 3, 43, 64
5, 262364, Note_off_c, 3, 55, 64
5, 264192, Note_on_c, 3, 53, 60
5, 264284, Note_off_c, 3, 53, 64
5, 264576, Note_on_c, 3, 52, 60
5, 264668, Note_off_c, 3, 52, 64
5, 264960, Note_on_c, 3, 59, 60
5, 264960, Note_on_c, 3, 47, 60
5, 265052, Note_off_c, 3, 59, 64
5, 265052, Note_off_c, 3, 47, 64
5, 265344, Note_on_c, 3, 60, 60
5, 265344, Note_on_c, 3, 48, 60
5, 265436, Note_off_c, 3, 60, 64
5, 265436, Note_off_c, 3, 48, 64
5, 268800, Note_on_c, 3, 65, 60
5, 268988, Note_off_c, 3, 65, 64
5, 269568, Note_on_c, 3, 65, 60
5, 269756, Note_off_c, 3, 65, 64
5, 270720, Note_on_c, 3, 53, 60
5, 270720, Note_on_c, 3, 41, 60
5, 271100, Note_off_c, 3, 53, 64
5, 271100, Note_off_c, 3, 41, 64
5, 271104, Note_on_c, 3, 55, 68
5, 271104, Note_on_c, 3, 43, 68
5, 271868, Note_off_c, 3, 55, 64
5, 271868, Note_off_c, 3, 43, 64
5, 271872, Note_on_c, 3, 48, 60
5, 271872, Note_on_c, 3, 36, 60
5, 272252, Note_off_c, 3, 48, 64
5, 272252, Note_off_c, 3, 36, 64
5, 281088, Note_on_c, 3, 48, 88
5, 281088, Note_on_c, 3, 36, 88
5, 281276, Note_off_c, 3, 48, 64
5, 281276, Note_off_c, 3, 36, 64
5, 281472, Note_on_c, 3, 50, 88
5, 281472, Note_on_c, 3, 38, 88
5, 281660, Note_off_c, 3, 50, 64
5, 281660, Note_off_c, 3, 38, 64
5, 281856, Note_on_c, 3, 52, 88
5, 281856, Note_on_c, 3, 40, 88
5, 282044, Note_off_c, 3, 52, 64
5, 282044, Note_off_c, 3, 40, 64
5, 282624, Note_on_c, 3, 53, 60
5, 282624, Note_on_c, 3, 41, 60
5, 284156, Note_off_c, 3, 53, 64
5, 284156, Note_off_c, 3, 41, 64
5, 284160, Note_on_c, 3, 55, 62
5, 284160, Note_on_c, 3, 43, 62
5, 284348, Note_off_c, 3, 55, 64
5, 284348, Note_off_c, 3, 43, 64
5, 284928, Note_on_c, 3, 55, 68
5, 284928, Note_on_c, 3, 43, 68
5, 285116, Note_off_c, 3, 55, 64
5, 285116, Note_off_c, 3, 43, 64
5, 285696, Note_on_c, 3, 55, 73
5, 285696, Note_on_c, 3, 43, 73
5, 285788, Note_off_c, 3, 55, 64
5, 285788, Note_off_c, 3, 43, 64
5, 285888, Note_on_c, 3, 55, 74
5, 285888, Note_on_c, 3, 43, 74
5, 285980, Note_off_c, 3, 55, 64
5, 285980, Note_off_c, 3, 43, 64
5, 286080, Note_on_c, 3, 55, 76
5, 286080, Note_on_c, 3, 43, 76
5, 286172, Note_off_c, 3, 55, 64
5, 286172, Note_off_c, 3, 43, 64
5, 286272, Note_on_c, 3, 55, 79
5, 286272, Note_on_c, 3, 43, 79
5, 286364, Note_off_c, 3, 55, 64
5, 286364, Note_off_c, 3, 43, 64
5, 286464, Note_on_c, 3, 55, 80
5, 286464, Note_on_c, 3, 43, 80
5, 286556, Note_off_c, 3, 55, 64
5, 286556, Note_off_c, 3, 43, 64
5, 286656, Note_on_c, 3, 55, 82
5, 286656, Note_on_c, 3, 43, 82
5, 286748, Note_off_c, 3, 55, 64
5, 286748, Note_off_c, 3, 43, 64
5, 286848, Note_on_c, 3, 55, 84
5, 286848, Note_on_c, 3, 43, 84
5, 286940, Note_off_c, 3, 55, 64
5, 286940, Note_off_c, 3, 43, 64
5, 287040, Note_on_c, 3, 55, 86
5, 287040, Note_on_c, 3, 43, 86
5, 287132, Note_off_c, 3, 55, 64
5, 287132, Note_off_c, 3, 43, 64
5, 287232, Note_on_c, 3, 48, 88
5, 287612, Note_off_c, 3, 48, 64
5, 287616, Note_on_c, 3, 64, 88
5, 287708, Note_off_c, 3, 64, 64
5, 287712, Note_on_c, 3, 60, 88
5, 287804, Note_off_c, 3, 60, 64
5, 287808, Note_on_c, 3, 64, 88
5, 287900, Note_off_c, 3, 64, 64
5, 287904, Note_on_c, 3, 60, 88
5, 287996, Note_off_c, 3, 60, 64
5, 288000, Note_on_c, 3, 55, 88
5, 288188, Note_off_c, 3, 55, 64
5, 288192, Note_on_c, 3, 60, 88
5, 288380, Note_off_c, 3, 60, 64
5, 288384, Note_on_c, 3, 55, 88
5, 288476, Note_off_c, 3, 55, 64
5, 288480, Note_on_c, 3, 52, 88
5, 288572, Note_off_c, 3, 52, 64
5, 288576, Note_on_c, 3, 55, 88
5, 288668, Note_off_c, 3, 55, 64
5, 288672, Note_on_c, 3, 52, 88
5, 288764, Note_off_c, 3, 52, 64
5, 288768, Note_on_c, 3, 48, 88
5, 289148, Note_off_c, 3, 48, 64
5, 290304, Note_on_c, 3, 49, 60
5, 290492, Note_off_c, 3, 49, 64
5, 291072, Note_on_c, 3, 50, 60
5, 291260, Note_off_c, 3, 50, 64
5, 291840, Note_on_c, 3, 47, 60
5, 292028, Note_off_c, 3, 47, 64
5, 292608, Note_on_c, 3, 48, 60
5, 292796, Note_off_c, 3, 48, 64
5, 293376, Note_on_c, 3, 43, 88
5, 293468, Note_off_c, 3, 43, 64
5, 293568, Note_on_c, 3, 55, 88
5, 293660, Note_off_c, 3, 55, 64
5, 293760, Note_on_c, 3, 43, 88
5, 293852, Note_off_c, 3, 43, 64
5, 293952, Note_on_c, 3, 55, 88
5, 294044, Note_off_c, 3, 55, 64
5, 294144, Note_on_c, 3, 44, 88
5, 294236, Note_off_c, 3, 44, 64
5, 294336, Note_on_c, 3, 56, 88
5, 294428, Note_off_c, 3, 56, 64
5, 294528, Note_on_c, 3, 44, 88
5, 294620, Note_off_c, 3, 44, 64
5, 294720, Note_on_c, 3, 56, 88
5, 294812, Note_off_c, 3, 56, 64
5, 294912, Note_on_c, 3, 45, 88
5, 295004, Note_off_c, 3, 45, 64
5, 295104, Note_on_c, 3, 57, 88
5, 295196, Note_off_c, 3, 57, 64
5, 295296, Note_on_c, 3, 45, 88
5, 295388, Note_off_c, 3, 45, 64
5, 295488, Note_on_c, 3, 57, 88
5, 295580, Note_off_c, 3, 57, 64
5, 295680, Note_on_c, 3, 43, 88
5, 295772, Note_off_c, 3, 43, 64
5, 295872, Note_on_c, 3, 55, 88
5, 295964, Note_off_c, 3, 55, 64
5, 296064, Note_on_c, 3, 43, 88
5, 296156, Note_off_c, 3, 43, 64
5, 296256, Note_on_c, 3, 55, 88
5, 296348, Note_off_c, 3, 55, 64
5, 296448, Note_on_c, 3, 41, 88
5, 296540, Note_off_c, 3, 41, 64
5, 296640, Note_on_c, 3, 53, 88
5, 296732, Note_off_c, 3, 53, 64
5, 296832, Note_on_c, 3, 41, 88
5, 296924, Note_off_c, 3, 41, 64
5, 297024, Note_on_c, 3, 53, 88
5, 297116, Note_off_c, 3, 53, 64
5, 297216, Note_on_c, 3, 40, 88
5, 297308, Note_off_c, 3, 40, 64
5, 297408, Note_on_c, 3, 52, 88
5, 297500, Note_off_c, 3, 52, 64
5, 297600, Note_on_c, 3, 40, 88
5, 297692, Note_off_c, 3, 40, 64
5, 297792, Note_on_c, 3, 52, 88
5, 297884, Note_off_c, 3, 52, 64
5, 297984, Note_on_c, 3, 57, 88
5, 297984, Note_on_c, 3, 45, 88
5, 298364, Note_off_c, 3, 57, 64
5, 298364, Note_off_c, 3, 45, 64
5, 298368, Note_on_c, 3, 55, 88
5, 298368, Note_on_c, 3, 48, 88
5, 298368, Note_on_c, 3, 43, 88
5, 298748, Note_off_c, 3, 55, 64
5, 298748, Note_off_c, 3, 48, 64
5, 298748, Note_off_c, 3, 43, 64
5, 298752, Note_on_c, 3, 57, 88
5, 298752, Note_on_c, 3, 48, 88
5, 298752, Note_on_c, 3, 45, 88
5, 299132, Note_off_c, 3, 57, 64
5, 299132, Note_off_c, 3, 48, 64
5, 299132, Note_off_c, 3, 45, 64
5, 299136, Note_on_c, 3, 54, 88
5, 299136, Note_on_c, 3, 48, 88
5, 299136, Note_on_c, 3, 42, 88
5, 299516, Note_off_c, 3, 54, 64
5, 299516, Note_off_c, 3, 48, 64
5, 299516, Note_off_c, 3, 42, 64
5, 299520, Note_on_c, 3, 55, 88
5, 299520, Note_on_c, 3, 48, 88
5, 299520, Note_on_c, 3, 43, 88
5, 300484, Note_off_c, 3, 55, 64
5, 300484, Note_off_c, 3, 48, 64
5, 300484, Note_off_c, 3, 43, 64
5, 316416, Note_on_c, 3, 55, 88
5, 316416, Note_on_c, 3, 52, 88
5, 316416, Note_on_c, 3, 48, 88
5, 316508, Note_off_c, 3, 55, 64
5, 316508, Note_off_c, 3, 52, 64
5, 316508, Note_off_c, 3, 48, 64
5, 316512, Note_on_c, 3, 60, 88
5, 316604, Note_off_c, 3, 60, 64
5, 316608, Note_on_c, 3, 55, 88
5, 316608, Note_on_c, 3, 52, 88
5, 316608, Note_on_c, 3, 48, 88
5, 316700, Note_off_c, 3, 55, 64
5, 316700, Note_off_c, 3, 52, 64
5, 316700, Note_off_c, 3, 48, 64
5, 316704, Note_on_c, 3, 60, 88
5, 316796, Note_off_c, 3, 60, 64
5, 316800, Note_on_c, 3, 55, 88
5, 316800, Note_on_c, 3, 52, 88
5, 316800, Note_on_c, 3, 48, 88
5, 316892, Note_off_c, 3, 55, 64
5, 316892, Note_off_c, 3, 52, 64
5, 316892, Note_off_c, 3, 48, 64
5, 316896, Note_on_c, 3, 60, 88
5, 316988, Note_off_c, 3, 60, 64
5, 316992, Note_on_c, 3, 55, 88
5, 316992, Note_on_c, 3, 52, 88
5, 316992, Note_on_c, 3, 48, 88
5, 317084, Note_off_c, 3, 55, 64
5, 317084, Note_off_c, 3, 52, 64
5, 317084, Note_off_c, 3, 48, 64
5, 317088, Note_on_c, 3, 60, 88
5, 317180, Note_off_c, 3, 60, 64
5, 317184, Note_on_c, 3, 55, 88
5, 317184, Note_on_c, 3, 52, 88
5, 317276, Note_off_c, 3, 55, 64
5, 317276, Note_off_c, 3, 52, 64
5, 317280, Note_on_c, 3, 60, 88
5, 317372, Note_off_c, 3, 60, 64
5, 317376, Note_on_c, 3, 55, 88
5, 317376, Note_on_c, 3, 52, 88
5, 317468, Note_off_c, 3, 55, 64
5, 317468, Note_off_c, 3, 52, 64
5, 317472, Note_on_c, 3, 60, 88
5, 317564, Note_off_c, 3, 60, 64
5, 317568, Note_on_c, 3, 55, 88
5, 317568, Note_on_c, 3, 52, 88
5, 317660, Note_off_c, 3, 55, 64
5, 317660, Note_off_c, 3, 52, 64
5, 317664, Note_on_c, 3, 60, 88
5, 317756, Note_off_c, 3, 60, 64
5, 317760, Note_on_c, 3, 55, 88
5, 317760, Note_on_c, 3, 52, 88
5, 317852, Note_off_c, 3, 55, 64
5, 317852, Note_off_c, 3, 52, 64
5, 317856, Note_on_c, 3, 60, 88
5, 317948, Note_off_c, 3, 60, 64
5, 317952, Note_on_c, 3, 57, 88
5, 317952, Note_on_c, 3, 53, 88
5, 318044, Note_off_c, 3, 57, 64
5, 318044, Note_off_c, 3, 53, 64
5, 318048, Note_on_c, 3, 60, 88
5, 318140, Note_off_c, 3, 60, 64
5, 318144, Note_on_c, 3, 57, 88
5, 318144, Note_on_c, 3, 53, 88
5, 318236, Note_off_c, 3, 57, 64
5, 318236, Note_off_c, 3, 53, 64
5, 318240, Note_on_c, 3, 60, 88
5, 318332, Note_off_c, 3, 60, 64
5, 318336, Note_on_c, 3, 57, 88
5, 318336, Note_on_c, 3, 53, 88
5, 318428, Note_off_c, 3, 57, 64
5, 318428, Note_off_c, 3, 53, 64
5, 318432, Note_on_c, 3, 60, 88
5, 318524, Note_off_c, 3, 60, 64
5, 318528, Note_on_c, 3, 57, 88
5, 318528, Note_on_c, 3, 53, 88
5, 318620, Note_off_c, 3, 57, 64
5, 318620, Note_off_c, 3, 53, 64
5, 318624, Note_on_c, 3, 60, 88
5, 318716, Note_off_c, 3, 60, 64
5, 318720, Note_on_c, 3, 60, 88
5, 318720, Note_on_c, 3, 57, 88
5, 318720, Note_on_c, 3, 53, 88
5, 318812, Note_off_c, 3, 60, 64
5, 318812, Note_off_c, 3, 57, 64
5, 318812, Note_off_c, 3, 53, 64
5, 318816, Note_on_c, 3, 62, 88
5, 318908, Note_off_c, 3, 62, 64
5, 318912, Note_on_c, 3, 60, 88
5, 318912, Note_on_c, 3, 57, 88
5, 318912, Note_on_c, 3, 53, 88
5, 319004, Note_off_c, 3, 60, 64
5, 319004, Note_off_c, 3, 57, 64
5, 319004, Note_off_c, 3, 53, 64
5, 319008, Note_on_c, 3, 62, 88
5, 319100, Note_off_c, 3, 62, 64
5, 319104, Note_on_c, 3, 60, 88
5, 319104, Note_on_c, 3, 57, 88
5, 319104, Note_on_c, 3, 53, 88
5, 319196, Note_off_c, 3, 60, 64
5, 319196, Note_off_c, 3, 57, 64
5, 319196, Note_off_c, 3, 53, 64
5, 319200, Note_on_c, 3, 62, 88
5, 319292, Note_off_c, 3, 62, 64
5, 319296, Note_on_c, 3, 60, 88
5, 319296, Note_on_c, 3, 57, 88
5, 319296, Note_on_c, 3, 53, 88
5, 319388, Note_off_c, 3, 60, 64
5, 319388, Note_off_c, 3, 57, 64
5, 319388, Note_off_c, 3, 53, 64
5, 319392, Note_on_c, 3, 62, 88
5, 319484, Note_off_c, 3, 62, 64
5, 319488, Note_on_c, 3, 64, 60
5, 319488, Note_on_c, 3, 60, 60
5, 319488, Note_on_c, 3, 55, 60
5, 319676, Note_off_c, 3, 64, 64
5, 319676, Note_off_c, 3, 60, 64
5, 319676, Note_off_c, 3, 55, 64
5, 319680, Note_on_c, 3, 60, 60
5, 319680, Note_on_c, 3, 55, 60
5, 319868, Note_off_c, 3, 60, 64
5, 319868, Note_off_c, 3, 55, 64
5, 319872, Note_on_c, 3, 60, 60
5, 319872, Note_on_c, 3, 55, 60
5, 319964, Note_off_c, 3, 60, 64
5, 319964, Note_off_c, 3, 55, 64
5, 320064, Note_on_c, 3, 60, 63
5, 320064, Note_on_c, 3, 55, 63
5, 320156, Note_off_c, 3, 60, 64
5, 320156, Note_off_c, 3, 55, 64
5, 320256, Note_on_c, 3, 55, 67
5, 320256, Note_on_c, 3, 43, 67
5, 320348, Note_off_c, 3, 55, 64
5, 320348, Note_off_c, 3, 43, 64
5, 320448, Note_on_c, 3, 55, 70
5, 320448, Note_on_c, 3, 43, 70
5, 320540, Note_off_c, 3, 55, 64
5, 320540, Note_off_c, 3, 43, 64
5, 320640, Note_on_c, 3, 55, 75
5, 320640, Note_on_c, 3, 43, 75
5, 320732, Note_off_c, 3, 55, 64
5, 320732, Note_off_c, 3, 43, 64
5, 320832, Note_on_c, 3, 55, 81
5, 320832, Note_on_c, 3, 43, 81
5, 320924, Note_off_c, 3, 55, 64
5, 320924, Note_off_c, 3, 43, 64
5, 321024, Note_on_c, 3, 55, 88
5, 321024, Note_on_c, 3, 52, 88
5, 321116, Note_off_c, 3, 55, 64
5, 321116, Note_off_c, 3, 52, 64
5, 321120, Note_on_c, 3, 60, 88
5, 321212, Note_off_c, 3, 60, 64
5, 321216, Note_on_c, 3, 55, 88
5, 321216, Note_on_c, 3, 52, 88
5, 321308, Note_off_c, 3, 55, 64
5, 321308, Note_off_c, 3, 52, 64
5, 321312, Note_on_c, 3, 60, 88
5, 321404, Note_off_c, 3, 60, 64
5, 321408, Note_on_c, 3, 55, 88
5, 321408, Note_on_c, 3, 52, 88
5, 321500, Note_off_c, 3, 55, 64
5, 321500, Note_off_c, 3, 52, 64
5, 321504, Note_on_c, 3, 60, 88
5, 321596, Note_off_c, 3, 60, 64
5, 321600, Note_on_c, 3, 55, 88
5, 321600, Note_on_c, 3, 52, 88
5, 321692, Note_off_c, 3, 55, 64
5, 321692, Note_off_c, 3, 52, 64
5, 321696, Note_on_c, 3, 60, 88
5, 321788, Note_off_c, 3, 60, 64
5, 321792, Note_on_c, 3, 55, 88
5, 321792, Note_on_c, 3, 52, 88
5, 321884, Note_off_c, 3, 55, 64
5, 321884, Note_off_c, 3, 52, 64
5, 321888, Note_on_c, 3, 60, 88
5, 321980, Note_off_c, 3, 60, 64
5, 321984, Note_on_c, 3, 55, 88
5, 321984, Note_on_c, 3, 52, 88
5, 322076, Note_off_c, 3, 55, 64
5, 322076, Note_off_c, 3, 52, 64
5, 322080, Note_on_c, 3, 60, 88
5, 322172, Note_off_c, 3, 60, 64
5, 322176, Note_on_c, 3, 55, 88
5, 322176, Note_on_c, 3, 52, 88
5, 322268, Note_off_c, 3, 55, 64
5, 322268, Note_off_c, 3, 52, 64
5, 322272, Note_on_c, 3, 60, 88
5, 322364, Note_off_c, 3, 60, 64
5, 322368, Note_on_c, 3, 55, 88
5, 322368, Note_on_c, 3, 52, 88
5, 322460, Note_off_c, 3, 55, 64
5, 322460, Note_off_c, 3, 52, 64
5, 322464, Note_on_c, 3, 60, 88
5, 322556, Note_off_c, 3, 60, 64
5, 322560, Note_on_c, 3, 57, 88
5, 322560, Note_on_c, 3, 53, 88
5, 322652, Note_off_c, 3, 57, 64
5, 322652, Note_off_c, 3, 53, 64
5, 322656, Note_on_c, 3, 60, 88
5, 322748, Note_off_c, 3, 60, 64
5, 322752, Note_on_c, 3, 57, 88
5, 322752, Note_on_c, 3, 53, 88
5, 322844, Note_off_c, 3, 57, 64
5, 322844, Note_off_c, 3, 53, 64
5, 322848, Note_on_c, 3, 60, 88
5, 322940, Note_off_c, 3, 60, 64
5, 322944, Note_on_c, 3, 57, 88
5, 322944, Note_on_c, 3, 53, 88
5, 323036, Note_off_c, 3, 57, 64
5, 323036, Note_off_c, 3, 53, 64
5, 323040, Note_on_c, 3, 60, 88
5, 323132, Note_off_c, 3, 60, 64
5, 323136, Note_on_c, 3, 57, 88
5, 323136, Note_on_c, 3, 53, 88
5, 323228, Note_off_c, 3, 57, 64
5, 323228, Note_off_c, 3, 53, 64
5, 323232, Note_on_c, 3, 60, 88
5, 323324, Note_off_c, 3, 60, 64
5, 323328, Note_on_c, 3, 60, 88
5, 323328, Note_on_c, 3, 57, 88
5, 323328, Note_on_c, 3, 53, 88
5, 323420, Note_off_c, 3, 60, 64
5, 323420, Note_off_c, 3, 57, 64
5, 323420, Note_off_c, 3, 53, 64
5, 323424, Note_on_c, 3, 62, 88
5, 323516, Note_off_c, 3, 62, 64
5, 323520, Note_on_c, 3, 60, 88
5, 323520, Note_on_c, 3, 57, 88
5, 323520, Note_on_c, 3, 53, 88
5, 323612, Note_off_c, 3, 60, 64
5, 323612, Note_off_c, 3, 57, 64
5, 323612, Note_off_c, 3, 53, 64
5, 323616, Note_on_c, 3, 62, 88
5, 323708, Note_off_c, 3, 62, 64
5, 323712, Note_on_c, 3, 60, 88
5, 323712, Note_on_c, 3, 57, 88
5, 323712, Note_on_c, 3, 53, 88
5, 323804, Note_off_c, 3, 60, 64
5, 323804, Note_off_c, 3, 57, 64
5, 323804, Note_off_c, 3, 53, 64
5, 323808, Note_on_c, 3, 62, 88
5, 323900, Note_off_c, 3, 62, 64
5, 323904, Note_on_c, 3, 60, 88
5, 323904, Note_on_c, 3, 57, 88
5, 323904, Note_on_c, 3, 53, 88
5, 323996, Note_off_c, 3, 60, 64
5, 323996, Note_off_c, 3, 57, 64
5, 323996, Note_off_c, 3, 53, 64
5, 324000, Note_on_c, 3, 62, 88
5, 324092, Note_off_c, 3, 62, 64
5, 324096, Note_on_c, 3, 64, 88
5, 324096, Note_on_c, 3, 60, 88
5, 324096, Note_on_c, 3, 55, 88
5, 324284, Note_off_c, 3, 64, 64
5, 324284, Note_off_c, 3, 60, 64
5, 324284, Note_off_c, 3, 55, 64
5, 324288, Note_on_c, 3, 60, 88
5, 324288, Note_on_c, 3, 55, 88
5, 324476, Note_off_c, 3, 60, 64
5, 324476, Note_off_c, 3, 55, 64
5, 324480, Note_on_c, 3, 60, 88
5, 324480, Note_on_c, 3, 55, 88
5, 324572, Note_off_c, 3, 60, 64
5, 324572, Note_off_c, 3, 55, 64
5, 324672, Note_on_c, 3, 60, 88
5, 324672, Note_on_c, 3, 55, 88
5, 324764, Note_off_c, 3, 60, 64
5, 324764, Note_off_c, 3, 55, 64
5, 324864, Note_on_c, 3, 55, 88
5, 324864, Note_on_c, 3, 43, 88
5, 324956, Note_off_c, 3, 55, 64
5, 324956, Note_off_c, 3, 43, 64
5, 325056, Note_on_c, 3, 55, 88
5, 325056, Note_on_c, 3, 43, 88
5, 325148, Note_off_c, 3, 55, 64
5, 325148, Note_off_c, 3, 43, 64
5, 325248, Note_on_c, 3, 55, 88
5, 325248, Note_on_c, 3, 43, 88
5, 325340, Note_off_c, 3, 55, 64
5, 325340, Note_off_c, 3, 43, 64
5, 325440, Note_on_c, 3, 55, 88
5, 325440, Note_on_c, 3, 43, 88
5, 325532, Note_off_c, 3, 55, 64
5, 325532, Note_off_c, 3, 43, 64
5, 325632, Note_on_c, 3, 60, 99
5, 325632, Note_on_c, 3, 48, 99
5, 326012, Note_off_c, 3, 60, 64
5, 326012, Note_off_c, 3, 48, 64
5, 326016, Note_on_c, 3, 64, 99
5, 326108, Note_off_c, 3, 64, 64
5, 326112, Note_on_c, 3, 60, 99
5, 326204, Note_off_c, 3, 60, 64
5, 326208, Note_on_c, 3, 64, 99
5, 326248, Note_off_c, 3, 64, 64
5, 326304, Note_on_c, 3, 60, 99
5, 326344, Note_off_c, 3, 60, 64
5, 326400, Note_on_c, 3, 55, 99
5, 326588, Note_off_c, 3, 55, 64
5, 326592, Note_on_c, 3, 60, 99
5, 326780, Note_off_c, 3, 60, 64
5, 326784, Note_on_c, 3, 55, 99
5, 326876, Note_off_c, 3, 55, 64
5, 326880, Note_on_c, 3, 52, 99
5, 326972, Note_off_c, 3, 52, 64
5, 326976, Note_on_c, 3, 55, 99
5, 327016, Note_off_c, 3, 55, 64
5, 327072, Note_on_c, 3, 52, 99
5, 327112, Note_off_c, 3, 52, 64
5, 327168, Note_on_c, 3, 48, 99
5, 327356, Note_off_c, 3, 48, 64
5, 327552, Note_on_c, 3, 60, 99
5, 327552, Note_on_c, 3, 48, 99
5, 327740, Note_off_c, 3, 60, 64
5, 327740, Note_off_c, 3, 48, 64
5, 327936, Note_on_c, 3, 48, 99
5, 327936, Note_on_c, 3, 36, 99
5, 328124, Note_off_c, 3, 48, 64
5, 328124, Note_off_c, 3, 36, 64
5, 328124, End_track
0, 0, End_of_file
