0, 0, Header, 1, 17, 384
1, 0, Start_track
1, 0, Time_signature, 3, 2, 96, 8
1, 0, Sequencer_specific, 3, 0, 0, 65
1, 0, Tempo, 394736
1, 0, End_track
2, 0, Start_track
2, 0, Title_t, "Mozart - Piano"
2, 0, Control_c, 0, 0, 0
2, 0, Program_c, 0, 0
2, 0, Control_c, 0, 7, 102
2, 0, Control_c, 0, 10, 79
2, 0, Control_c, 0, 91, 44
2, 0, Control_c, 0, 93, 45
2, 0, Key_signature, -1, "minor"
2, 0, Control_c, 0, 121, 0
2, 96, Control_c, 0, 10, 73
2, 144, Control_c, 0, 91, 63
2, 192, Control_c, 0, 93, 40
2, 288, Program_c, 0, 0
2, 1152, Note_on_c, 0, 65, 60
2, 1916, Note_off_c, 0, 65, 0
2, 1920, Note_on_c, 0, 69, 60
2, 2300, Note_off_c, 0, 69, 0
2, 2304, Note_on_c, 0, 72, 60
2, 3068, Note_off_c, 0, 72, 0
2, 3072, Note_on_c, 0, 69, 60
2, 3452, Note_off_c, 0, 69, 0
2, 3456, Note_on_c, 0, 70, 60
2, 4220, Note_off_c, 0, 70, 0
2, 4224, Note_on_c, 0, 79, 60
2, 4604, Note_off_c, 0, 79, 0
2, 4608, Note_on_c, 0, 77, 60
2, 4796, Note_off_c, 0, 77, 0
2, 4800, Note_on_c, 0, 76, 60
2, 4988, Note_off_c, 0, 76, 0
2, 4992, Note_on_c, 0, 76, 60
2, 5372, Note_off_c, 0, 76, 0
2, 5760, Note_on_c, 0, 77, 82
2, 6140, Note_off_c, 0, 77, 0
2, 6144, Note_on_c, 0, 69, 75
2, 6524, Note_off_c, 0, 69, 0
2, 6528, Note_on_c, 0, 74, 67
2, 6908, Note_off_c, 0, 74, 0
2, 6912, Note_on_c, 0, 67, 67
2, 7292, Note_off_c, 0, 67, 0
2, 7296, Note_on_c, 0, 72, 97
2, 7868, Note_off_c, 0, 72, 0
2, 7872, Note_on_c, 0, 69, 60
2, 8060, Note_off_c, 0, 69, 0
2, 8064, Note_on_c, 0, 65, 60
2, 9212, Note_off_c, 0, 65, 0
2, 9216, Note_on_c, 0, 67, 60
2, 9216, Note_on_c, 0, 65, 60
2, 9596, Note_off_c, 0, 65, 0
2, 9600, Note_on_c, 0, 64, 60
2, 9788, Note_off_c, 0, 64, 0
2, 9792, Note_on_c, 0, 62, 60
2, 9980, Note_off_c, 0, 62, 0
2, 9984, Note_on_c, 0, 64, 60
2, 10364, Note_off_c, 0, 67, 0
2, 10364, Note_off_c, 0, 64, 0
2, 10368, Note_on_c, 0, 69, 60
2, 10368, Note_on_c, 0, 65, 60
2, 10748, Note_off_c, 0, 69, 0
2, 10752, Note_on_c, 0, 70, 60
2, 11132, Note_off_c, 0, 70, 0
2, 11136, Note_on_c, 0, 74, 60
2, 11516, Note_off_c, 0, 65, 0
2, 11516, Note_off_c, 0, 74, 0
2, 11520, Note_on_c, 0, 65, 60
2, 11520, Note_on_c, 0, 74, 60
2, 11708, Note_off_c, 0, 74, 0
2, 11712, Note_on_c, 0, 72, 60
2, 11900, Note_off_c, 0, 65, 0
2, 11900, Note_off_c, 0, 72, 0
2, 11904, Note_on_c, 0, 70, 67
2, 12092, Note_off_c, 0, 70, 0
2, 12096, Note_on_c, 0, 69, 75
2, 12284, Note_off_c, 0, 69, 0
2, 12288, Note_on_c, 0, 67, 81
2, 12476, Note_off_c, 0, 67, 0
2, 12480, Note_on_c, 0, 65, 87
2, 12668, Note_off_c, 0, 65, 0
2, 12672, Note_on_c, 0, 67, 90
2, 13052, Note_off_c, 0, 67, 0
2, 13056, Note_on_c, 0, 70, 90
2, 13436, Note_off_c, 0, 70, 0
2, 13440, Note_on_c, 0, 64, 90
2, 13440, Note_on_c, 0, 58, 90
2, 13820, Note_off_c, 0, 64, 0
2, 13820, Note_off_c, 0, 58, 0
2, 13824, Note_on_c, 0, 65, 90
2, 13824, Note_on_c, 0, 57, 90
2, 14204, Note_off_c, 0, 65, 0
2, 14204, Note_off_c, 0, 57, 0
2, 14592, Note_on_c, 0, 84, 60
2, 14592, Note_on_c, 0, 72, 60
2, 14592, Note_on_c, 0, 69, 60
2, 14876, Note_off_c, 0, 84, 0
2, 14876, Note_off_c, 0, 72, 0
2, 14876, Note_off_c, 0, 69, 0
2, 14880, Note_on_c, 0, 82, 60
2, 14880, Note_on_c, 0, 70, 60
2, 14880, Note_on_c, 0, 67, 60
2, 14972, Note_off_c, 0, 82, 0
2, 14972, Note_off_c, 0, 70, 0
2, 14972, Note_off_c, 0, 67, 0
2, 14976, Note_on_c, 0, 81, 60
2, 14976, Note_on_c, 0, 69, 60
2, 14976, Note_on_c, 0, 65, 60
2, 15356, Note_off_c, 0, 81, 0
2, 15356, Note_off_c, 0, 69, 0
2, 15356, Note_off_c, 0, 65, 0
2, 15360, Note_on_c, 0, 81, 60
2, 15360, Note_on_c, 0, 69, 60
2, 15360, Note_on_c, 0, 65, 60
2, 15740, Note_off_c, 0, 81, 0
2, 15740, Note_off_c, 0, 69, 0
2, 15740, Note_off_c, 0, 65, 0
2, 15744, Note_on_c, 0, 81, 60
2, 15744, Note_on_c, 0, 69, 60
2, 15744, Note_on_c, 0, 65, 60
2, 16028, Note_off_c, 0, 81, 0
2, 16028, Note_off_c, 0, 69, 0
2, 16028, Note_off_c, 0, 65, 0
2, 16032, Note_on_c, 0, 79, 60
2, 16032, Note_on_c, 0, 67, 60
2, 16032, Note_on_c, 0, 60, 60
2, 16124, Note_off_c, 0, 79, 0
2, 16124, Note_off_c, 0, 67, 0
2, 16124, Note_off_c, 0, 60, 0
2, 16128, Note_on_c, 0, 77, 60
2, 16128, Note_on_c, 0, 65, 60
2, 16128, Note_on_c, 0, 57, 60
2, 16508, Note_off_c, 0, 77, 0
2, 16508, Note_off_c, 0, 65, 0
2, 16508, Note_off_c, 0, 57, 0
2, 16512, Note_on_c, 0, 77, 60
2, 16512, Note_on_c, 0, 65, 60
2, 16512, Note_on_c, 0, 57, 60
2, 16892, Note_off_c, 0, 77, 0
2, 16892, Note_off_c, 0, 65, 0
2, 16892, Note_off_c, 0, 57, 0
2, 16896, Note_on_c, 0, 77, 60
2, 16896, Note_on_c, 0, 65, 60
2, 16896, Note_on_c, 0, 57, 60
2, 17276, Note_off_c, 0, 77, 0
2, 17276, Note_off_c, 0, 65, 0
2, 17276, Note_off_c, 0, 57, 0
2, 17280, Note_on_c, 0, 79, 60
2, 17280, Note_on_c, 0, 76, 60
2, 17280, Note_on_c, 0, 67, 60
2, 17280, Note_on_c, 0, 60, 60
2, 17660, Note_off_c, 0, 79, 0
2, 17660, Note_off_c, 0, 76, 0
2, 17660, Note_off_c, 0, 67, 0
2, 17660, Note_off_c, 0, 60, 0
2, 17664, Note_on_c, 0, 79, 60
2, 17664, Note_on_c, 0, 76, 60
2, 17664, Note_on_c, 0, 67, 60
2, 17664, Note_on_c, 0, 60, 60
2, 18044, Note_off_c, 0, 79, 0
2, 18044, Note_off_c, 0, 76, 0
2, 18044, Note_off_c, 0, 67, 0
2, 18044, Note_off_c, 0, 60, 0
2, 18048, Note_on_c, 0, 76, 60
2, 18048, Note_on_c, 0, 79, 60
2, 18048, Note_on_c, 0, 67, 60
2, 18048, Note_on_c, 0, 60, 60
2, 18428, Note_off_c, 0, 76, 0
2, 18428, Note_off_c, 0, 79, 0
2, 18428, Note_off_c, 0, 67, 0
2, 18428, Note_off_c, 0, 60, 0
2, 18432, Note_on_c, 0, 79, 60
2, 18432, Note_on_c, 0, 76, 60
2, 18432, Note_on_c, 0, 67, 60
2, 18432, Note_on_c, 0, 60, 60
2, 18812, Note_off_c, 0, 79, 0
2, 18812, Note_off_c, 0, 76, 0
2, 18812, Note_off_c, 0, 67, 0
2, 18812, Note_off_c, 0, 60, 0
2, 18816, Note_on_c, 0, 77, 60
2, 18816, Note_on_c, 0, 81, 60
2, 18816, Note_on_c, 0, 65, 60
2, 18816, Note_on_c, 0, 69, 60
2, 19196, Note_off_c, 0, 77, 0
2, 19196, Note_off_c, 0, 81, 0
2, 19196, Note_off_c, 0, 65, 0
2, 19196, Note_off_c, 0, 69, 0
2, 19200, Note_on_c, 0, 84, 60
2, 19200, Note_on_c, 0, 72, 60
2, 19200, Note_on_c, 0, 69, 60
2, 19292, Note_off_c, 0, 84, 0
2, 19296, Note_on_c, 0, 86, 60
2, 19388, Note_off_c, 0, 86, 0
2, 19392, Note_on_c, 0, 84, 60
2, 19484, Note_off_c, 0, 72, 0
2, 19484, Note_off_c, 0, 69, 0
2, 19484, Note_off_c, 0, 84, 0
2, 19488, Note_on_c, 0, 82, 60
2, 19488, Note_on_c, 0, 70, 60
2, 19488, Note_on_c, 0, 67, 60
2, 19580, Note_off_c, 0, 82, 0
2, 19580, Note_off_c, 0, 70, 0
2, 19580, Note_off_c, 0, 67, 0
2, 19584, Note_on_c, 0, 81, 60
2, 19584, Note_on_c, 0, 65, 60
2, 19584, Note_on_c, 0, 69, 60
2, 19964, Note_off_c, 0, 81, 0
2, 19964, Note_off_c, 0, 65, 0
2, 19964, Note_off_c, 0, 69, 0
2, 19968, Note_on_c, 0, 81, 60
2, 19968, Note_on_c, 0, 65, 60
2, 19968, Note_on_c, 0, 69, 60
2, 20348, Note_off_c, 0, 81, 0
2, 20348, Note_off_c, 0, 65, 0
2, 20348, Note_off_c, 0, 69, 0
2, 20352, Note_on_c, 0, 81, 60
2, 20352, Note_on_c, 0, 69, 60
2, 20352, Note_on_c, 0, 65, 60
2, 20444, Note_off_c, 0, 81, 0
2, 20448, Note_on_c, 0, 82, 60
2, 20540, Note_off_c, 0, 82, 0
2, 20544, Note_on_c, 0, 81, 60
2, 20636, Note_off_c, 0, 69, 0
2, 20636, Note_off_c, 0, 65, 0
2, 20636, Note_off_c, 0, 81, 0
2, 20640, Note_on_c, 0, 79, 60
2, 20640, Note_on_c, 0, 67, 60
2, 20640, Note_on_c, 0, 60, 60
2, 20732, Note_off_c, 0, 79, 0
2, 20732, Note_off_c, 0, 67, 0
2, 20732, Note_off_c, 0, 60, 0
2, 20736, Note_on_c, 0, 77, 60
2, 20736, Note_on_c, 0, 65, 60
2, 20736, Note_on_c, 0, 57, 60
2, 21116, Note_off_c, 0, 77, 0
2, 21116, Note_off_c, 0, 65, 0
2, 21116, Note_off_c, 0, 57, 0
2, 21120, Note_on_c, 0, 77, 60
2, 21120, Note_on_c, 0, 65, 60
2, 21120, Note_on_c, 0, 57, 60
2, 21500, Note_off_c, 0, 77, 0
2, 21500, Note_off_c, 0, 65, 0
2, 21500, Note_off_c, 0, 57, 0
2, 21504, Note_on_c, 0, 77, 60
2, 21504, Note_on_c, 0, 65, 60
2, 21504, Note_on_c, 0, 57, 60
2, 21884, Note_off_c, 0, 77, 0
2, 21884, Note_off_c, 0, 65, 0
2, 21884, Note_off_c, 0, 57, 0
2, 21888, Note_on_c, 0, 79, 60
2, 21888, Note_on_c, 0, 67, 60
2, 21888, Note_on_c, 0, 60, 60
2, 22268, Note_off_c, 0, 79, 0
2, 22268, Note_off_c, 0, 67, 0
2, 22268, Note_off_c, 0, 60, 0
2, 22272, Note_on_c, 0, 82, 60
2, 22652, Note_off_c, 0, 82, 0
2, 22656, Note_on_c, 0, 76, 60
2, 22656, Note_on_c, 0, 70, 60
2, 22656, Note_on_c, 0, 67, 60
2, 22656, Note_on_c, 0, 60, 60
2, 23036, Note_off_c, 0, 76, 0
2, 23036, Note_off_c, 0, 70, 0
2, 23036, Note_off_c, 0, 67, 0
2, 23036, Note_off_c, 0, 60, 0
2, 23040, Note_on_c, 0, 77, 60
2, 23040, Note_on_c, 0, 69, 60
2, 23040, Note_on_c, 0, 65, 60
2, 23420, Note_off_c, 0, 77, 0
2, 23420, Note_off_c, 0, 69, 0
2, 23420, Note_off_c, 0, 65, 0
2, 23808, Note_on_c, 0, 84, 60
2, 23808, Note_on_c, 0, 70, 60
2, 23808, Note_on_c, 0, 64, 60
2, 23808, Note_on_c, 0, 60, 60
2, 24188, Note_off_c, 0, 84, 0
2, 24188, Note_off_c, 0, 70, 0
2, 24188, Note_off_c, 0, 64, 0
2, 24188, Note_off_c, 0, 60, 0
2, 24188, Note_on_c, 0, 69, 60
2, 24192, Note_on_c, 0, 77, 60
2, 24192, Note_on_c, 0, 65, 60
2, 24568, Note_off_c, 0, 69, 0
2, 24572, Note_off_c, 0, 77, 0
2, 24572, Note_off_c, 0, 65, 0
2, 24960, Note_on_c, 0, 72, 60
2, 25340, Note_off_c, 0, 72, 0
2, 25344, Note_on_c, 0, 65, 60
2, 25724, Note_off_c, 0, 65, 0
2, 26112, Note_on_c, 0, 61, 90
2, 26492, Note_off_c, 0, 61, 0
2, 26496, Note_on_c, 0, 62, 90
2, 27068, Note_off_c, 0, 62, 0
2, 27072, Note_on_c, 0, 65, 90
2, 27164, Note_off_c, 0, 65, 0
2, 27168, Note_on_c, 0, 69, 90
2, 27260, Note_off_c, 0, 69, 0
2, 27264, Note_on_c, 0, 74, 90
2, 27452, Note_off_c, 0, 74, 0
2, 27456, Note_on_c, 0, 69, 90
2, 27548, Note_off_c, 0, 69, 0
2, 27552, Note_on_c, 0, 74, 90
2, 27644, Note_off_c, 0, 74, 0
2, 27648, Note_on_c, 0, 77, 90
2, 27836, Note_off_c, 0, 77, 0
2, 27840, Note_on_c, 0, 74, 90
2, 27932, Note_off_c, 0, 74, 0
2, 27936, Note_on_c, 0, 77, 90
2, 28028, Note_off_c, 0, 77, 0
2, 28032, Note_on_c, 0, 81, 90
2, 28220, Note_off_c, 0, 81, 0
2, 28224, Note_on_c, 0, 81, 90
2, 28412, Note_off_c, 0, 81, 0
2, 28416, Note_on_c, 0, 77, 90
2, 28604, Note_off_c, 0, 77, 0
2, 28608, Note_on_c, 0, 74, 90
2, 28796, Note_off_c, 0, 74, 0
2, 28800, Note_on_c, 0, 73, 97
2, 28864, Note_off_c, 0, 73, 0
2, 28864, Note_on_c, 0, 76, 97
2, 28928, Note_off_c, 0, 76, 0
2, 28928, Note_on_c, 0, 79, 97
2, 28992, Note_off_c, 0, 79, 0
2, 28992, Note_on_c, 0, 82, 97
2, 29372, Note_off_c, 0, 82, 0
2, 29376, Note_on_c, 0, 81, 60
2, 29468, Note_off_c, 0, 81, 0
2, 29472, Note_on_c, 0, 79, 60
2, 29564, Note_off_c, 0, 79, 0
2, 29568, Note_on_c, 0, 77, 60
2, 29660, Note_off_c, 0, 77, 0
2, 29664, Note_on_c, 0, 76, 60
2, 29756, Note_off_c, 0, 76, 0
2, 29760, Note_on_c, 0, 74, 60
2, 29852, Note_off_c, 0, 74, 0
2, 29856, Note_on_c, 0, 73, 60
2, 29948, Note_off_c, 0, 73, 0
2, 29952, Note_on_c, 0, 82, 97
2, 30524, Note_off_c, 0, 82, 0
2, 30528, Note_on_c, 0, 81, 60
2, 30620, Note_off_c, 0, 81, 0
2, 30624, Note_on_c, 0, 79, 60
2, 30716, Note_off_c, 0, 79, 0
2, 30720, Note_on_c, 0, 77, 60
2, 30812, Note_off_c, 0, 77, 0
2, 30816, Note_on_c, 0, 76, 60
2, 30908, Note_off_c, 0, 76, 0
2, 30912, Note_on_c, 0, 74, 60
2, 31004, Note_off_c, 0, 74, 0
2, 31008, Note_on_c, 0, 72, 60
2, 31100, Note_off_c, 0, 72, 0
2, 31104, Note_on_c, 0, 74, 90
2, 31676, Note_off_c, 0, 74, 0
2, 31680, Note_on_c, 0, 65, 90
2, 31772, Note_off_c, 0, 65, 0
2, 31776, Note_on_c, 0, 69, 90
2, 31868, Note_off_c, 0, 69, 0
2, 31872, Note_on_c, 0, 74, 90
2, 32060, Note_off_c, 0, 74, 0
2, 32064, Note_on_c, 0, 69, 90
2, 32156, Note_off_c, 0, 69, 0
2, 32160, Note_on_c, 0, 74, 90
2, 32252, Note_off_c, 0, 74, 0
2, 32256, Note_on_c, 0, 77, 90
2, 32444, Note_off_c, 0, 77, 0
2, 32448, Note_on_c, 0, 74, 90
2, 32540, Note_off_c, 0, 74, 0
2, 32544, Note_on_c, 0, 77, 90
2, 32636, Note_off_c, 0, 77, 0
2, 32640, Note_on_c, 0, 81, 90
2, 32828, Note_off_c, 0, 81, 0
2, 32832, Note_on_c, 0, 81, 90
2, 33020, Note_off_c, 0, 81, 0
2, 33024, Note_on_c, 0, 77, 90
2, 33212, Note_off_c, 0, 77, 0
2, 33216, Note_on_c, 0, 74, 90
2, 33404, Note_off_c, 0, 74, 0
2, 33408, Note_on_c, 0, 71, 97
2, 33424, Note_on_c, 0, 74, 97
2, 33444, Note_on_c, 0, 77, 97
2, 33464, Note_on_c, 0, 80, 97
2, 33980, Note_off_c, 0, 71, 0
2, 33984, Note_on_c, 0, 79, 60
2, 33996, Note_off_c, 0, 74, 0
2, 34016, Note_off_c, 0, 77, 0
2, 34036, Note_off_c, 0, 80, 0
2, 34076, Note_off_c, 0, 79, 0
2, 34080, Note_on_c, 0, 77, 60
2, 34172, Note_off_c, 0, 77, 0
2, 34176, Note_on_c, 0, 75, 60
2, 34268, Note_off_c, 0, 75, 0
2, 34272, Note_on_c, 0, 74, 60
2, 34364, Note_off_c, 0, 74, 0
2, 34368, Note_on_c, 0, 72, 60
2, 34460, Note_off_c, 0, 72, 0
2, 34464, Note_on_c, 0, 71, 60
2, 34556, Note_off_c, 0, 71, 0
2, 34560, Note_on_c, 0, 80, 97
2, 35132, Note_off_c, 0, 80, 0
2, 35136, Note_on_c, 0, 79, 60
2, 35228, Note_off_c, 0, 79, 0
2, 35232, Note_on_c, 0, 77, 60
2, 35324, Note_off_c, 0, 77, 0
2, 35328, Note_on_c, 0, 75, 60
2, 35420, Note_off_c, 0, 75, 0
2, 35424, Note_on_c, 0, 74, 60
2, 35516, Note_off_c, 0, 74, 0
2, 35520, Note_on_c, 0, 72, 60
2, 35612, Note_off_c, 0, 72, 0
2, 35616, Note_on_c, 0, 71, 60
2, 35708, Note_off_c, 0, 71, 0
2, 35712, Note_on_c, 0, 72, 90
2, 36092, Note_off_c, 0, 72, 0
2, 36096, Note_on_c, 0, 72, 90
2, 36188, Note_off_c, 0, 72, 0
2, 36192, Note_on_c, 0, 67, 90
2, 36284, Note_off_c, 0, 67, 0
2, 36288, Note_on_c, 0, 72, 90
2, 36380, Note_off_c, 0, 72, 0
2, 36384, Note_on_c, 0, 67, 90
2, 36476, Note_off_c, 0, 67, 0
2, 36480, Note_on_c, 0, 75, 90
2, 36572, Note_off_c, 0, 75, 0
2, 36576, Note_on_c, 0, 72, 90
2, 36668, Note_off_c, 0, 72, 0
2, 36672, Note_on_c, 0, 75, 90
2, 36764, Note_off_c, 0, 75, 0
2, 36768, Note_on_c, 0, 72, 90
2, 36860, Note_off_c, 0, 72, 0
2, 36864, Note_on_c, 0, 79, 90
2, 36956, Note_off_c, 0, 79, 0
2, 36960, Note_on_c, 0, 75, 90
2, 37052, Note_off_c, 0, 75, 0
2, 37056, Note_on_c, 0, 79, 90
2, 37148, Note_off_c, 0, 79, 0
2, 37152, Note_on_c, 0, 75, 90
2, 37244, Note_off_c, 0, 75, 0
2, 37248, Note_on_c, 0, 84, 90
2, 37628, Note_off_c, 0, 84, 0
2, 38016, Note_on_c, 0, 72, 90
2, 38396, Note_off_c, 0, 72, 0
2, 38400, Note_on_c, 0, 72, 90
2, 38492, Note_off_c, 0, 72, 0
2, 38496, Note_on_c, 0, 68, 90
2, 38588, Note_off_c, 0, 68, 0
2, 38592, Note_on_c, 0, 72, 90
2, 38684, Note_off_c, 0, 72, 0
2, 38688, Note_on_c, 0, 68, 90
2, 38780, Note_off_c, 0, 68, 0
2, 38784, Note_on_c, 0, 75, 90
2, 38876, Note_off_c, 0, 75, 0
2, 38880, Note_on_c, 0, 72, 90
2, 38972, Note_off_c, 0, 72, 0
2, 38976, Note_on_c, 0, 75, 90
2, 39068, Note_off_c, 0, 75, 0
2, 39072, Note_on_c, 0, 72, 90
2, 39164, Note_off_c, 0, 72, 0
2, 39168, Note_on_c, 0, 80, 90
2, 39260, Note_off_c, 0, 80, 0
2, 39264, Note_on_c, 0, 75, 90
2, 39356, Note_off_c, 0, 75, 0
2, 39360, Note_on_c, 0, 80, 90
2, 39452, Note_off_c, 0, 80, 0
2, 39456, Note_on_c, 0, 75, 90
2, 39548, Note_off_c, 0, 75, 0
2, 39552, Note_on_c, 0, 84, 90
2, 39932, Note_off_c, 0, 84, 0
2, 40320, Note_on_c, 0, 72, 90
2, 40700, Note_off_c, 0, 72, 0
2, 40704, Note_on_c, 0, 72, 90
2, 40796, Note_off_c, 0, 72, 0
2, 40800, Note_on_c, 0, 66, 90
2, 40892, Note_off_c, 0, 66, 0
2, 40896, Note_on_c, 0, 72, 90
2, 40988, Note_off_c, 0, 72, 0
2, 40992, Note_on_c, 0, 66, 90
2, 41084, Note_off_c, 0, 66, 0
2, 41088, Note_on_c, 0, 75, 90
2, 41180, Note_off_c, 0, 75, 0
2, 41184, Note_on_c, 0, 72, 90
2, 41276, Note_off_c, 0, 72, 0
2, 41280, Note_on_c, 0, 75, 90
2, 41372, Note_off_c, 0, 75, 0
2, 41376, Note_on_c, 0, 72, 90
2, 41468, Note_off_c, 0, 72, 0
2, 41472, Note_on_c, 0, 78, 90
2, 41564, Note_off_c, 0, 78, 0
2, 41568, Note_on_c, 0, 75, 90
2, 41660, Note_off_c, 0, 75, 0
2, 41664, Note_on_c, 0, 78, 90
2, 41756, Note_off_c, 0, 78, 0
2, 41760, Note_on_c, 0, 75, 90
2, 41852, Note_off_c, 0, 75, 0
2, 41856, Note_on_c, 0, 84, 90
2, 42236, Note_off_c, 0, 84, 0
2, 42240, Note_on_c, 0, 78, 90
2, 42620, Note_off_c, 0, 78, 0
2, 42624, Note_on_c, 0, 67, 90
2, 42716, Note_off_c, 0, 67, 0
2, 42720, Note_on_c, 0, 71, 90
2, 42812, Note_off_c, 0, 71, 0
2, 42816, Note_on_c, 0, 74, 90
2, 42908, Note_off_c, 0, 74, 0
2, 42912, Note_on_c, 0, 79, 90
2, 43392, Note_on_c, 0, 77, 90
2, 43484, Note_off_c, 0, 77, 0
2, 43488, Note_on_c, 0, 75, 90
2, 43580, Note_off_c, 0, 75, 0
2, 43584, Note_on_c, 0, 74, 90
2, 43676, Note_off_c, 0, 79, 0
2, 43676, Note_off_c, 0, 74, 0
2, 43680, Note_on_c, 0, 72, 90
2, 43772, Note_off_c, 0, 72, 0
2, 43776, Note_on_c, 0, 79, 90
2, 44540, Note_off_c, 0, 79, 0
2, 44544, Note_on_c, 0, 77, 90
2, 44636, Note_off_c, 0, 77, 0
2, 44640, Note_on_c, 0, 75, 90
2, 44732, Note_off_c, 0, 75, 0
2, 44736, Note_on_c, 0, 74, 90
2, 44828, Note_off_c, 0, 74, 0
2, 44832, Note_on_c, 0, 72, 90
2, 44924, Note_off_c, 0, 72, 0
2, 44928, Note_on_c, 0, 79, 90
2, 45500, Note_off_c, 0, 79, 0
2, 45504, Note_on_c, 0, 80, 90
2, 45596, Note_off_c, 0, 80, 0
2, 45600, Note_on_c, 0, 79, 90
2, 45692, Note_off_c, 0, 79, 0
2, 45696, Note_on_c, 0, 77, 90
2, 45788, Note_off_c, 0, 77, 0
2, 45792, Note_on_c, 0, 75, 90
2, 45884, Note_off_c, 0, 75, 0
2, 45888, Note_on_c, 0, 74, 90
2, 45980, Note_off_c, 0, 74, 0
2, 45984, Note_on_c, 0, 72, 90
2, 46076, Note_off_c, 0, 72, 0
2, 46080, Note_on_c, 0, 79, 97
2, 46460, Note_off_c, 0, 79, 0
2, 46464, Note_on_c, 0, 67, 60
2, 46844, Note_off_c, 0, 67, 0
2, 47232, Note_on_c, 0, 67, 60
2, 47324, Note_off_c, 0, 67, 0
2, 47328, Note_on_c, 0, 76, 60
2, 47516, Note_off_c, 0, 76, 0
2, 47616, Note_on_c, 0, 76, 60
2, 47804, Note_off_c, 0, 76, 0
2, 48000, Note_on_c, 0, 76, 60
2, 48188, Note_off_c, 0, 76, 0
2, 48384, Note_on_c, 0, 71, 60
2, 48476, Note_off_c, 0, 71, 0
2, 48480, Note_on_c, 0, 79, 60
2, 48960, Note_on_c, 0, 77, 60
2, 49052, Note_off_c, 0, 79, 0
2, 49148, Note_off_c, 0, 77, 0
2, 49152, Note_on_c, 0, 74, 60
2, 49532, Note_off_c, 0, 74, 0
2, 49536, Note_on_c, 0, 74, 60
2, 49536, Note_on_c, 0, 64, 60
2, 49724, Note_off_c, 0, 74, 0
2, 49728, Note_on_c, 0, 72, 60
2, 49916, Note_off_c, 0, 64, 0
2, 49916, Note_off_c, 0, 72, 0
2, 49920, Note_on_c, 0, 72, 60
2, 49920, Note_on_c, 0, 67, 60
2, 50492, Note_off_c, 0, 72, 0
2, 50492, Note_off_c, 0, 67, 0
2, 50496, Note_on_c, 0, 74, 60
2, 50496, Note_on_c, 0, 71, 60
2, 50684, Note_off_c, 0, 74, 0
2, 50684, Note_off_c, 0, 71, 0
2, 50688, Note_on_c, 0, 74, 60
2, 50688, Note_on_c, 0, 71, 60
2, 51452, Note_off_c, 0, 74, 0
2, 51452, Note_off_c, 0, 71, 0
2, 51456, Note_on_c, 0, 76, 60
2, 51456, Note_on_c, 0, 72, 60
2, 51836, Note_off_c, 0, 76, 0
2, 51836, Note_off_c, 0, 72, 0
2, 51840, Note_on_c, 0, 77, 60
2, 52272, Note_on_c, 0, 79, 60
2, 52316, Note_off_c, 0, 79, 0
2, 52320, Note_on_c, 0, 77, 60
2, 52364, Note_off_c, 0, 77, 0
2, 52368, Note_on_c, 0, 76, 60
2, 52412, Note_off_c, 0, 77, 0
2, 52412, Note_off_c, 0, 76, 0
2, 52416, Note_on_c, 0, 77, 60
2, 52604, Note_off_c, 0, 77, 0
2, 52608, Note_on_c, 0, 79, 60
2, 52796, Note_off_c, 0, 79, 0
2, 52800, Note_on_c, 0, 81, 60
2, 52988, Note_off_c, 0, 81, 0
2, 52992, Note_on_c, 0, 81, 60
2, 53180, Note_off_c, 0, 81, 0
2, 53184, Note_on_c, 0, 79, 60
2, 53372, Note_off_c, 0, 79, 0
2, 53376, Note_on_c, 0, 78, 60
2, 53564, Note_off_c, 0, 78, 0
2, 53568, Note_on_c, 0, 79, 60
2, 53756, Note_off_c, 0, 79, 0
2, 53760, Note_on_c, 0, 77, 60
2, 53948, Note_off_c, 0, 77, 0
2, 53952, Note_on_c, 0, 74, 60
2, 54140, Note_off_c, 0, 74, 0
2, 54144, Note_on_c, 0, 75, 60
2, 54332, Note_off_c, 0, 75, 0
2, 54336, Note_on_c, 0, 76, 60
2, 54524, Note_off_c, 0, 76, 0
2, 54528, Note_on_c, 0, 77, 60
2, 54716, Note_off_c, 0, 77, 0
2, 54720, Note_on_c, 0, 76, 60
2, 54908, Note_off_c, 0, 76, 0
2, 54912, Note_on_c, 0, 79, 60
2, 55100, Note_off_c, 0, 79, 0
2, 55104, Note_on_c, 0, 77, 60
2, 55292, Note_off_c, 0, 77, 0
2, 55296, Note_on_c, 0, 76, 60
2, 55484, Note_off_c, 0, 76, 0
2, 55488, Note_on_c, 0, 74, 60
2, 55676, Note_off_c, 0, 74, 0
2, 55680, Note_on_c, 0, 72, 60
2, 55868, Note_off_c, 0, 72, 0
2, 55872, Note_on_c, 0, 71, 60
2, 56060, Note_off_c, 0, 71, 0
2, 56064, Note_on_c, 0, 69, 60
2, 56252, Note_off_c, 0, 69, 0
2, 56256, Note_on_c, 0, 67, 60
2, 56444, Note_off_c, 0, 67, 0
2, 56448, Note_on_c, 0, 75, 60
2, 56476, Note_on_c, 0, 60, 60
2, 56568, Note_off_c, 0, 60, 0
2, 56592, Note_on_c, 0, 64, 60
2, 56636, Note_off_c, 0, 75, 0
2, 56640, Note_on_c, 0, 76, 60
2, 56684, Note_off_c, 0, 64, 0
2, 56708, Note_on_c, 0, 67, 60
2, 56800, Note_off_c, 0, 67, 0
2, 56828, Note_off_c, 0, 76, 0
2, 56832, Note_on_c, 0, 75, 60
2, 56860, Note_on_c, 0, 60, 60
2, 56952, Note_off_c, 0, 60, 0
2, 56976, Note_on_c, 0, 64, 60
2, 57020, Note_off_c, 0, 75, 0
2, 57024, Note_on_c, 0, 76, 60
2, 57068, Note_off_c, 0, 64, 0
2, 57092, Note_on_c, 0, 67, 60
2, 57184, Note_off_c, 0, 67, 0
2, 57212, Note_off_c, 0, 76, 0
2, 57216, Note_on_c, 0, 75, 60
2, 57244, Note_on_c, 0, 60, 60
2, 57336, Note_off_c, 0, 60, 0
2, 57360, Note_on_c, 0, 64, 60
2, 57404, Note_off_c, 0, 75, 0
2, 57408, Note_on_c, 0, 76, 60
2, 57452, Note_off_c, 0, 64, 0
2, 57476, Note_on_c, 0, 67, 60
2, 57568, Note_off_c, 0, 67, 0
2, 57596, Note_off_c, 0, 76, 0
2, 57600, Note_on_c, 0, 78, 60
2, 57628, Note_on_c, 0, 60, 60
2, 57720, Note_off_c, 0, 60, 0
2, 57744, Note_on_c, 0, 62, 60
2, 57788, Note_off_c, 0, 78, 0
2, 57792, Note_on_c, 0, 79, 60
2, 57836, Note_off_c, 0, 62, 0
2, 57860, Note_on_c, 0, 67, 60
2, 57952, Note_off_c, 0, 67, 0
2, 57980, Note_off_c, 0, 79, 0
2, 57984, Note_on_c, 0, 78, 60
2, 58012, Note_on_c, 0, 58, 60
2, 58104, Note_off_c, 0, 58, 0
2, 58128, Note_on_c, 0, 62, 60
2, 58172, Note_off_c, 0, 78, 0
2, 58176, Note_on_c, 0, 79, 60
2, 58220, Note_off_c, 0, 62, 0
2, 58244, Note_on_c, 0, 67, 60
2, 58336, Note_off_c, 0, 67, 0
2, 58364, Note_off_c, 0, 79, 0
2, 58368, Note_on_c, 0, 77, 60
2, 58396, Note_on_c, 0, 58, 60
2, 58488, Note_off_c, 0, 58, 0
2, 58512, Note_on_c, 0, 65, 60
2, 58556, Note_off_c, 0, 77, 0
2, 58560, Note_on_c, 0, 74, 60
2, 58604, Note_off_c, 0, 65, 0
2, 58628, Note_on_c, 0, 67, 60
2, 58720, Note_off_c, 0, 67, 0
2, 58748, Note_off_c, 0, 74, 0
2, 58752, Note_on_c, 0, 74, 60
2, 58752, Note_on_c, 0, 64, 60
2, 58752, Note_on_c, 0, 60, 60
2, 58940, Note_off_c, 0, 74, 0
2, 58944, Note_on_c, 0, 72, 60
2, 59132, Note_off_c, 0, 64, 0
2, 59132, Note_off_c, 0, 60, 0
2, 59132, Note_off_c, 0, 72, 0
2, 59136, Note_on_c, 0, 74, 60
2, 59136, Note_on_c, 0, 67, 60
2, 59324, Note_off_c, 0, 74, 0
2, 59328, Note_on_c, 0, 72, 60
2, 59516, Note_off_c, 0, 67, 0
2, 59516, Note_off_c, 0, 72, 0
2, 59520, Note_on_c, 0, 76, 60
2, 59520, Note_on_c, 0, 71, 60
2, 59708, Note_off_c, 0, 76, 0
2, 59712, Note_on_c, 0, 74, 60
2, 59900, Note_off_c, 0, 71, 0
2, 59900, Note_off_c, 0, 74, 0
2, 59904, Note_on_c, 0, 74, 60
2, 59904, Note_on_c, 0, 71, 60
2, 60476, Note_off_c, 0, 74, 0
2, 60480, Note_on_c, 0, 75, 60
2, 60668, Note_off_c, 0, 71, 0
2, 60668, Note_off_c, 0, 75, 0
2, 60672, Note_on_c, 0, 76, 60
2, 60672, Note_on_c, 0, 72, 60
2, 61052, Note_off_c, 0, 76, 0
2, 61052, Note_off_c, 0, 72, 0
2, 61056, Note_on_c, 0, 77, 60
2, 61056, Note_on_c, 0, 57, 60
2, 61244, Note_off_c, 0, 57, 0
2, 61248, Note_on_c, 0, 60, 60
2, 61436, Note_off_c, 0, 60, 0
2, 61440, Note_on_c, 0, 65, 60
2, 61488, Note_on_c, 0, 79, 60
2, 61532, Note_off_c, 0, 79, 0
2, 61536, Note_on_c, 0, 77, 60
2, 61580, Note_off_c, 0, 77, 0
2, 61584, Note_on_c, 0, 76, 60
2, 61628, Note_off_c, 0, 65, 0
2, 61628, Note_off_c, 0, 77, 0
2, 61628, Note_off_c, 0, 76, 0
2, 61632, Note_on_c, 0, 77, 60
2, 61632, Note_on_c, 0, 60, 60
2, 61820, Note_off_c, 0, 77, 0
2, 61820, Note_off_c, 0, 60, 0
2, 61824, Note_on_c, 0, 79, 60
2, 61824, Note_on_c, 0, 57, 60
2, 62012, Note_off_c, 0, 79, 0
2, 62012, Note_off_c, 0, 57, 0
2, 62016, Note_on_c, 0, 81, 60
2, 62016, Note_on_c, 0, 60, 60
2, 62204, Note_off_c, 0, 81, 0
2, 62204, Note_off_c, 0, 60, 0
2, 62208, Note_on_c, 0, 81, 60
2, 62208, Note_on_c, 0, 59, 60
2, 62396, Note_off_c, 0, 81, 0
2, 62396, Note_off_c, 0, 59, 0
2, 62400, Note_on_c, 0, 79, 60
2, 62400, Note_on_c, 0, 62, 60
2, 62588, Note_off_c, 0, 79, 0
2, 62588, Note_off_c, 0, 62, 0
2, 62592, Note_on_c, 0, 78, 60
2, 62592, Note_on_c, 0, 67, 60
2, 62780, Note_off_c, 0, 78, 0
2, 62780, Note_off_c, 0, 67, 0
2, 62784, Note_on_c, 0, 79, 60
2, 62784, Note_on_c, 0, 62, 60
2, 62972, Note_off_c, 0, 79, 0
2, 62972, Note_off_c, 0, 62, 0
2, 62976, Note_on_c, 0, 77, 60
2, 62976, Note_on_c, 0, 58, 60
2, 63164, Note_off_c, 0, 77, 0
2, 63164, Note_off_c, 0, 58, 0
2, 63168, Note_on_c, 0, 74, 60
2, 63168, Note_on_c, 0, 62, 60
2, 63356, Note_off_c, 0, 74, 0
2, 63356, Note_off_c, 0, 62, 0
2, 63360, Note_on_c, 0, 75, 90
2, 63360, Note_on_c, 0, 60, 90
2, 63548, Note_off_c, 0, 75, 0
2, 63552, Note_on_c, 0, 76, 90
2, 63740, Note_off_c, 0, 60, 0
2, 63740, Note_off_c, 0, 76, 0
2, 63744, Note_on_c, 0, 79, 82
2, 63932, Note_off_c, 0, 79, 0
2, 63936, Note_on_c, 0, 77, 76
2, 64124, Note_off_c, 0, 77, 0
2, 64128, Note_on_c, 0, 74, 72
2, 64316, Note_off_c, 0, 74, 0
2, 64320, Note_on_c, 0, 71, 67
2, 64508, Note_off_c, 0, 71, 0
2, 64512, Note_on_c, 0, 72, 60
2, 64700, Note_off_c, 0, 72, 0
2, 64704, Note_on_c, 0, 67, 60
2, 64892, Note_off_c, 0, 67, 0
2, 65088, Note_on_c, 0, 67, 60
2, 65276, Note_off_c, 0, 67, 0
2, 65472, Note_on_c, 0, 67, 60
2, 65660, Note_off_c, 0, 67, 0
2, 65664, Note_on_c, 0, 65, 60
2, 65664, Note_on_c, 0, 67, 60
2, 65852, Note_off_c, 0, 65, 0
2, 65852, Note_off_c, 0, 67, 0
2, 65856, Note_on_c, 0, 65, 60
2, 65856, Note_on_c, 0, 67, 60
2, 66044, Note_off_c, 0, 65, 0
2, 66044, Note_off_c, 0, 67, 0
2, 66240, Note_on_c, 0, 65, 60
2, 66240, Note_on_c, 0, 67, 60
2, 66428, Note_off_c, 0, 65, 0
2, 66428, Note_off_c, 0, 67, 0
2, 66624, Note_on_c, 0, 65, 60
2, 66624, Note_on_c, 0, 67, 60
2, 66812, Note_off_c, 0, 65, 0
2, 66812, Note_off_c, 0, 67, 0
2, 66816, Note_on_c, 0, 63, 60
2, 66816, Note_on_c, 0, 67, 60
2, 67004, Note_off_c, 0, 63, 0
2, 67004, Note_off_c, 0, 67, 0
2, 67008, Note_on_c, 0, 67, 60
2, 67008, Note_on_c, 0, 63, 60
2, 67196, Note_off_c, 0, 67, 0
2, 67196, Note_off_c, 0, 63, 0
2, 67392, Note_on_c, 0, 67, 60
2, 67392, Note_on_c, 0, 63, 60
2, 67580, Note_off_c, 0, 67, 0
2, 67580, Note_off_c, 0, 63, 0
2, 67776, Note_on_c, 0, 67, 60
2, 67776, Note_on_c, 0, 63, 60
2, 67964, Note_off_c, 0, 67, 0
2, 67964, Note_off_c, 0, 63, 0
2, 67968, Note_on_c, 0, 65, 60
2, 67968, Note_on_c, 0, 67, 60
2, 68156, Note_off_c, 0, 65, 0
2, 68156, Note_off_c, 0, 67, 0
2, 68160, Note_on_c, 0, 65, 60
2, 68160, Note_on_c, 0, 67, 60
2, 68348, Note_off_c, 0, 65, 0
2, 68348, Note_off_c, 0, 67, 0
2, 68544, Note_on_c, 0, 65, 60
2, 68544, Note_on_c, 0, 67, 60
2, 68732, Note_off_c, 0, 65, 0
2, 68732, Note_off_c, 0, 67, 0
2, 68928, Note_on_c, 0, 65, 60
2, 68928, Note_on_c, 0, 67, 60
2, 69116, Note_off_c, 0, 65, 0
2, 69116, Note_off_c, 0, 67, 0
2, 69120, Note_on_c, 0, 63, 90
2, 69120, Note_on_c, 0, 67, 90
2, 69308, Note_off_c, 0, 63, 0
2, 69308, Note_off_c, 0, 67, 0
2, 69312, Note_on_c, 0, 63, 90
2, 69312, Note_on_c, 0, 67, 90
2, 69500, Note_off_c, 0, 63, 0
2, 69500, Note_off_c, 0, 67, 0
2, 69696, Note_on_c, 0, 63, 60
2, 69696, Note_on_c, 0, 67, 60
2, 69884, Note_off_c, 0, 63, 0
2, 69884, Note_off_c, 0, 67, 0
2, 70080, Note_on_c, 0, 63, 60
2, 70080, Note_on_c, 0, 67, 60
2, 70268, Note_off_c, 0, 63, 0
2, 70268, Note_off_c, 0, 67, 0
2, 70272, Note_on_c, 0, 63, 90
2, 70272, Note_on_c, 0, 68, 90
2, 70460, Note_off_c, 0, 63, 0
2, 70460, Note_off_c, 0, 68, 0
2, 70464, Note_on_c, 0, 68, 90
2, 70464, Note_on_c, 0, 63, 90
2, 70652, Note_off_c, 0, 68, 0
2, 70652, Note_off_c, 0, 63, 0
2, 70848, Note_on_c, 0, 68, 60
2, 70848, Note_on_c, 0, 63, 60
2, 71036, Note_off_c, 0, 68, 0
2, 71036, Note_off_c, 0, 63, 0
2, 71232, Note_on_c, 0, 68, 60
2, 71232, Note_on_c, 0, 63, 60
2, 71420, Note_off_c, 0, 68, 0
2, 71420, Note_off_c, 0, 63, 0
2, 71424, Note_on_c, 0, 68, 90
2, 71424, Note_on_c, 0, 62, 90
2, 71612, Note_off_c, 0, 68, 0
2, 71612, Note_off_c, 0, 62, 0
2, 71616, Note_on_c, 0, 62, 90
2, 71616, Note_on_c, 0, 68, 90
2, 71804, Note_off_c, 0, 62, 0
2, 71804, Note_off_c, 0, 68, 0
2, 72000, Note_on_c, 0, 68, 60
2, 72000, Note_on_c, 0, 62, 60
2, 72188, Note_off_c, 0, 68, 0
2, 72188, Note_off_c, 0, 62, 0
2, 72384, Note_on_c, 0, 68, 60
2, 72384, Note_on_c, 0, 62, 60
2, 72572, Note_off_c, 0, 68, 0
2, 72572, Note_off_c, 0, 62, 0
2, 72576, Note_on_c, 0, 62, 90
2, 72576, Note_on_c, 0, 67, 90
2, 72764, Note_off_c, 0, 62, 0
2, 72764, Note_off_c, 0, 67, 0
2, 72768, Note_on_c, 0, 67, 90
2, 72768, Note_on_c, 0, 62, 90
2, 72956, Note_off_c, 0, 67, 0
2, 72956, Note_off_c, 0, 62, 0
2, 73152, Note_on_c, 0, 67, 60
2, 73152, Note_on_c, 0, 62, 60
2, 73340, Note_off_c, 0, 67, 0
2, 73340, Note_off_c, 0, 62, 0
2, 73536, Note_on_c, 0, 67, 60
2, 73536, Note_on_c, 0, 62, 60
2, 73724, Note_off_c, 0, 67, 0
2, 73724, Note_off_c, 0, 62, 0
2, 73728, Note_on_c, 0, 67, 90
2, 73728, Note_on_c, 0, 60, 90
2, 73916, Note_off_c, 0, 67, 0
2, 73916, Note_off_c, 0, 60, 0
2, 73920, Note_on_c, 0, 67, 90
2, 73920, Note_on_c, 0, 60, 90
2, 74108, Note_off_c, 0, 67, 0
2, 74108, Note_off_c, 0, 60, 0
2, 74304, Note_on_c, 0, 67, 60
2, 74304, Note_on_c, 0, 60, 60
2, 74492, Note_off_c, 0, 67, 0
2, 74492, Note_off_c, 0, 60, 0
2, 74496, Note_on_c, 0, 65, 90
2, 74496, Note_on_c, 0, 60, 90
2, 74684, Note_off_c, 0, 65, 0
2, 74684, Note_off_c, 0, 60, 0
2, 74688, Note_on_c, 0, 65, 90
2, 74688, Note_on_c, 0, 60, 90
2, 74876, Note_off_c, 0, 65, 0
2, 74876, Note_off_c, 0, 60, 0
2, 75072, Note_on_c, 0, 65, 60
2, 75072, Note_on_c, 0, 60, 60
2, 75260, Note_off_c, 0, 65, 0
2, 75260, Note_off_c, 0, 60, 0
2, 75264, Note_on_c, 0, 65, 90
2, 75264, Note_on_c, 0, 59, 90
2, 75452, Note_off_c, 0, 65, 0
2, 75452, Note_off_c, 0, 59, 0
2, 75456, Note_on_c, 0, 65, 90
2, 75456, Note_on_c, 0, 59, 90
2, 75644, Note_off_c, 0, 65, 0
2, 75644, Note_off_c, 0, 59, 0
2, 75840, Note_on_c, 0, 65, 60
2, 75840, Note_on_c, 0, 59, 60
2, 76028, Note_off_c, 0, 65, 0
2, 76028, Note_off_c, 0, 59, 0
2, 76224, Note_on_c, 0, 63, 60
2, 76224, Note_on_c, 0, 60, 60
2, 76412, Note_off_c, 0, 63, 0
2, 76412, Note_off_c, 0, 60, 0
2, 76608, Note_on_c, 0, 63, 60
2, 76608, Note_on_c, 0, 60, 60
2, 76796, Note_off_c, 0, 63, 0
2, 76796, Note_off_c, 0, 60, 0
2, 76992, Note_on_c, 0, 63, 60
2, 76992, Note_on_c, 0, 60, 60
2, 77180, Note_off_c, 0, 63, 0
2, 77180, Note_off_c, 0, 60, 0
2, 77184, Note_on_c, 0, 62, 60
2, 77184, Note_on_c, 0, 59, 60
2, 77372, Note_off_c, 0, 62, 0
2, 77372, Note_off_c, 0, 59, 0
2, 77376, Note_on_c, 0, 63, 60
2, 77376, Note_on_c, 0, 67, 60
2, 77564, Note_off_c, 0, 63, 0
2, 77564, Note_off_c, 0, 67, 0
2, 77568, Note_on_c, 0, 65, 60
2, 77568, Note_on_c, 0, 62, 60
2, 77756, Note_off_c, 0, 65, 0
2, 77756, Note_off_c, 0, 62, 0
2, 77760, Note_on_c, 0, 63, 60
2, 77760, Note_on_c, 0, 60, 60
2, 77948, Note_off_c, 0, 63, 0
2, 77948, Note_off_c, 0, 60, 0
2, 77952, Note_on_c, 0, 62, 60
2, 77952, Note_on_c, 0, 59, 60
2, 78140, Note_off_c, 0, 62, 0
2, 78140, Note_off_c, 0, 59, 0
2, 78144, Note_on_c, 0, 63, 60
2, 78144, Note_on_c, 0, 60, 60
2, 78332, Note_off_c, 0, 63, 0
2, 78332, Note_off_c, 0, 60, 0
2, 78336, Note_on_c, 0, 62, 60
2, 78336, Note_on_c, 0, 59, 60
2, 78524, Note_off_c, 0, 62, 0
2, 78524, Note_off_c, 0, 59, 0
2, 78528, Note_on_c, 0, 63, 60
2, 78528, Note_on_c, 0, 67, 60
2, 78716, Note_off_c, 0, 63, 0
2, 78716, Note_off_c, 0, 67, 0
2, 78720, Note_on_c, 0, 65, 60
2, 78720, Note_on_c, 0, 62, 60
2, 78908, Note_off_c, 0, 65, 0
2, 78908, Note_off_c, 0, 62, 0
2, 78912, Note_on_c, 0, 63, 60
2, 78912, Note_on_c, 0, 60, 60
2, 79100, Note_off_c, 0, 63, 0
2, 79100, Note_off_c, 0, 60, 0
2, 79104, Note_on_c, 0, 62, 60
2, 79104, Note_on_c, 0, 59, 60
2, 79292, Note_off_c, 0, 62, 0
2, 79292, Note_off_c, 0, 59, 0
2, 79296, Note_on_c, 0, 63, 60
2, 79296, Note_on_c, 0, 60, 60
2, 79484, Note_off_c, 0, 63, 0
2, 79484, Note_off_c, 0, 60, 0
2, 79488, Note_on_c, 0, 62, 60
2, 79488, Note_on_c, 0, 59, 60
2, 79676, Note_off_c, 0, 62, 0
2, 79676, Note_off_c, 0, 59, 0
2, 79680, Note_on_c, 0, 63, 60
2, 79680, Note_on_c, 0, 60, 60
2, 79868, Note_off_c, 0, 63, 0
2, 79868, Note_off_c, 0, 60, 0
2, 79872, Note_on_c, 0, 62, 60
2, 79872, Note_on_c, 0, 59, 60
2, 80060, Note_off_c, 0, 62, 0
2, 80060, Note_off_c, 0, 59, 0
2, 80064, Note_on_c, 0, 63, 60
2, 80064, Note_on_c, 0, 60, 60
2, 80252, Note_off_c, 0, 63, 0
2, 80252, Note_off_c, 0, 60, 0
2, 80256, Note_on_c, 0, 62, 60
2, 80256, Note_on_c, 0, 59, 60
2, 80444, Note_off_c, 0, 62, 0
2, 80444, Note_off_c, 0, 59, 0
2, 80448, Note_on_c, 0, 63, 60
2, 80448, Note_on_c, 0, 60, 60
2, 80636, Note_off_c, 0, 63, 0
2, 80636, Note_off_c, 0, 60, 0
2, 80640, Note_on_c, 0, 62, 60
2, 80640, Note_on_c, 0, 59, 60
2, 80828, Note_off_c, 0, 62, 0
2, 80828, Note_off_c, 0, 59, 0
2, 80832, Note_on_c, 0, 61, 60
2, 80832, Note_on_c, 0, 58, 60
2, 81020, Note_off_c, 0, 61, 0
2, 81020, Note_off_c, 0, 58, 0
2, 81024, Note_on_c, 0, 62, 60
2, 81024, Note_on_c, 0, 59, 60
2, 81212, Note_off_c, 0, 62, 0
2, 81212, Note_off_c, 0, 59, 0
2, 81216, Note_on_c, 0, 64, 60
2, 81216, Note_on_c, 0, 61, 60
2, 81404, Note_off_c, 0, 64, 0
2, 81404, Note_off_c, 0, 61, 0
2, 81408, Note_on_c, 0, 65, 60
2, 81408, Note_on_c, 0, 62, 60
2, 81596, Note_off_c, 0, 65, 0
2, 81596, Note_off_c, 0, 62, 0
2, 81600, Note_on_c, 0, 67, 60
2, 81600, Note_on_c, 0, 64, 60
2, 81788, Note_off_c, 0, 67, 0
2, 81788, Note_off_c, 0, 64, 0
2, 81792, Note_on_c, 0, 69, 82
2, 81792, Note_on_c, 0, 65, 82
2, 82172, Note_off_c, 0, 69, 0
2, 82172, Note_off_c, 0, 65, 0
2, 82176, Note_on_c, 0, 69, 60
2, 82176, Note_on_c, 0, 65, 60
2, 82176, Note_on_c, 0, 60, 60
2, 82556, Note_off_c, 0, 69, 0
2, 82556, Note_off_c, 0, 65, 0
2, 82556, Note_off_c, 0, 60, 0
2, 82560, Note_on_c, 0, 65, 60
2, 82560, Note_on_c, 0, 60, 60
2, 82560, Note_on_c, 0, 69, 60
2, 82940, Note_off_c, 0, 65, 0
2, 82940, Note_off_c, 0, 60, 0
2, 82940, Note_off_c, 0, 69, 0
2, 82944, Note_on_c, 0, 69, 60
2, 82944, Note_on_c, 0, 65, 60
2, 82944, Note_on_c, 0, 60, 60
2, 83708, Note_off_c, 0, 69, 0
2, 83708, Note_off_c, 0, 65, 0
2, 83712, Note_on_c, 0, 67, 60
2, 83712, Note_on_c, 0, 64, 60
2, 84092, Note_off_c, 0, 60, 0
2, 84092, Note_off_c, 0, 67, 0
2, 84092, Note_off_c, 0, 64, 0
2, 84096, Note_on_c, 0, 67, 60
2, 84096, Note_on_c, 0, 62, 60
2, 84096, Note_on_c, 0, 59, 60
2, 84284, Note_off_c, 0, 67, 0
2, 84288, Note_on_c, 0, 65, 60
2, 84476, Note_off_c, 0, 62, 0
2, 84476, Note_off_c, 0, 59, 0
2, 84476, Note_off_c, 0, 65, 0
2, 84480, Note_on_c, 0, 65, 60
2, 84480, Note_on_c, 0, 62, 60
2, 84480, Note_on_c, 0, 59, 60
2, 84860, Note_off_c, 0, 65, 0
2, 84860, Note_off_c, 0, 62, 0
2, 84860, Note_off_c, 0, 59, 0
2, 84864, Note_on_c, 0, 65, 60
2, 84864, Note_on_c, 0, 62, 60
2, 84864, Note_on_c, 0, 59, 60
2, 85244, Note_off_c, 0, 65, 0
2, 85244, Note_off_c, 0, 62, 0
2, 85244, Note_off_c, 0, 59, 0
2, 85248, Note_on_c, 0, 65, 60
2, 85248, Note_on_c, 0, 62, 60
2, 85248, Note_on_c, 0, 59, 60
2, 86012, Note_off_c, 0, 65, 0
2, 86012, Note_off_c, 0, 62, 0
2, 86012, Note_off_c, 0, 59, 0
2, 86016, Note_on_c, 0, 64, 60
2, 86016, Note_on_c, 0, 60, 60
2, 86396, Note_off_c, 0, 64, 0
2, 86396, Note_off_c, 0, 60, 0
2, 86400, Note_on_c, 0, 67, 60
2, 86400, Note_on_c, 0, 64, 60
2, 86588, Note_off_c, 0, 67, 0
2, 86588, Note_off_c, 0, 64, 0
2, 86592, Note_on_c, 0, 65, 60
2, 86592, Note_on_c, 0, 62, 60
2, 86780, Note_off_c, 0, 65, 0
2, 86780, Note_off_c, 0, 62, 0
2, 86784, Note_on_c, 0, 64, 60
2, 86784, Note_on_c, 0, 60, 60
2, 87164, Note_off_c, 0, 64, 0
2, 87164, Note_off_c, 0, 60, 0
2, 87168, Note_on_c, 0, 62, 60
2, 87168, Note_on_c, 0, 59, 60
2, 87548, Note_off_c, 0, 62, 0
2, 87548, Note_off_c, 0, 59, 0
2, 87552, Note_on_c, 0, 64, 60
2, 87552, Note_on_c, 0, 60, 60
2, 87740, Note_off_c, 0, 64, 0
2, 87740, Note_off_c, 0, 60, 0
2, 87744, Note_on_c, 0, 72, 60
2, 87932, Note_off_c, 0, 72, 0
2, 87936, Note_on_c, 0, 74, 60
2, 88124, Note_off_c, 0, 74, 0
2, 88128, Note_on_c, 0, 76, 60
2, 88316, Note_off_c, 0, 76, 0
2, 88320, Note_on_c, 0, 77, 60
2, 88508, Note_off_c, 0, 77, 0
2, 88512, Note_on_c, 0, 79, 60
2, 88700, Note_off_c, 0, 79, 0
2, 88704, Note_on_c, 0, 81, 82
2, 89084, Note_off_c, 0, 81, 0
2, 89088, Note_on_c, 0, 81, 60
2, 89468, Note_off_c, 0, 81, 0
2, 89472, Note_on_c, 0, 81, 60
2, 89852, Note_off_c, 0, 81, 0
2, 89856, Note_on_c, 0, 81, 60
2, 90428, Note_off_c, 0, 81, 0
2, 90432, Note_on_c, 0, 83, 60
2, 90524, Note_off_c, 0, 83, 0
2, 90528, Note_on_c, 0, 81, 60
2, 90620, Note_off_c, 0, 81, 0
2, 90624, Note_on_c, 0, 79, 60
2, 91004, Note_off_c, 0, 79, 0
2, 91008, Note_on_c, 0, 71, 60
2, 91008, Note_on_c, 0, 79, 60
2, 91196, Note_off_c, 0, 79, 0
2, 91200, Note_on_c, 0, 77, 60
2, 91388, Note_off_c, 0, 71, 0
2, 91388, Note_off_c, 0, 77, 0
2, 91392, Note_on_c, 0, 71, 60
2, 91392, Note_on_c, 0, 77, 60
2, 91772, Note_off_c, 0, 71, 0
2, 91772, Note_off_c, 0, 77, 0
2, 91776, Note_on_c, 0, 71, 60
2, 91776, Note_on_c, 0, 77, 60
2, 92156, Note_off_c, 0, 71, 0
2, 92156, Note_off_c, 0, 77, 0
2, 92160, Note_on_c, 0, 77, 60
2, 92160, Note_on_c, 0, 71, 60
2, 92924, Note_off_c, 0, 77, 0
2, 92924, Note_off_c, 0, 71, 0
2, 92928, Note_on_c, 0, 76, 60
2, 92928, Note_on_c, 0, 72, 60
2, 93308, Note_off_c, 0, 76, 0
2, 93308, Note_off_c, 0, 72, 0
2, 93312, Note_on_c, 0, 79, 60
2, 93312, Note_on_c, 0, 76, 60
2, 93500, Note_off_c, 0, 79, 0
2, 93500, Note_off_c, 0, 76, 0
2, 93504, Note_on_c, 0, 77, 60
2, 93504, Note_on_c, 0, 74, 60
2, 93692, Note_off_c, 0, 77, 0
2, 93692, Note_off_c, 0, 74, 0
2, 93696, Note_on_c, 0, 76, 60
2, 93696, Note_on_c, 0, 72, 60
2, 94076, Note_off_c, 0, 76, 0
2, 94076, Note_off_c, 0, 72, 0
2, 94080, Note_on_c, 0, 74, 60
2, 94080, Note_on_c, 0, 71, 60
2, 94460, Note_off_c, 0, 74, 0
2, 94460, Note_off_c, 0, 71, 0
2, 94464, Note_on_c, 0, 76, 90
2, 94464, Note_on_c, 0, 79, 90
2, 94652, Note_off_c, 0, 76, 0
2, 94652, Note_off_c, 0, 79, 0
2, 94656, Note_on_c, 0, 79, 90
2, 94656, Note_on_c, 0, 76, 90
2, 94844, Note_off_c, 0, 79, 0
2, 94844, Note_off_c, 0, 76, 0
2, 95040, Note_on_c, 0, 77, 60
2, 95040, Note_on_c, 0, 74, 60
2, 95228, Note_off_c, 0, 77, 0
2, 95228, Note_off_c, 0, 74, 0
2, 95424, Note_on_c, 0, 76, 60
2, 95424, Note_on_c, 0, 72, 60
2, 95612, Note_off_c, 0, 76, 0
2, 95612, Note_off_c, 0, 72, 0
2, 95808, Note_on_c, 0, 74, 60
2, 95808, Note_on_c, 0, 65, 60
2, 95996, Note_off_c, 0, 74, 0
2, 95996, Note_off_c, 0, 65, 0
2, 96192, Note_on_c, 0, 72, 60
2, 96192, Note_on_c, 0, 64, 60
2, 96380, Note_off_c, 0, 72, 0
2, 96380, Note_off_c, 0, 64, 0
2, 96576, Note_on_c, 0, 71, 60
2, 96576, Note_on_c, 0, 62, 60
2, 96764, Note_off_c, 0, 71, 0
2, 96764, Note_off_c, 0, 62, 0
2, 96864, Note_on_c, 0, 76, 90
2, 96956, Note_off_c, 0, 76, 0
2, 96960, Note_on_c, 0, 79, 90
2, 97052, Note_off_c, 0, 79, 0
2, 97056, Note_on_c, 0, 76, 90
2, 97148, Note_off_c, 0, 76, 0
2, 97248, Note_on_c, 0, 74, 90
2, 97340, Note_off_c, 0, 74, 0
2, 97344, Note_on_c, 0, 77, 90
2, 97436, Note_off_c, 0, 77, 0
2, 97440, Note_on_c, 0, 74, 90
2, 97532, Note_off_c, 0, 74, 0
2, 97632, Note_on_c, 0, 72, 90
2, 97724, Note_off_c, 0, 72, 0
2, 97728, Note_on_c, 0, 76, 90
2, 97820, Note_off_c, 0, 76, 0
2, 97824, Note_on_c, 0, 72, 90
2, 97916, Note_off_c, 0, 72, 0
2, 98016, Note_on_c, 0, 65, 90
2, 98108, Note_off_c, 0, 65, 0
2, 98112, Note_on_c, 0, 74, 90
2, 98204, Note_off_c, 0, 74, 0
2, 98208, Note_on_c, 0, 65, 90
2, 98300, Note_off_c, 0, 65, 0
2, 98400, Note_on_c, 0, 64, 90
2, 98492, Note_off_c, 0, 64, 0
2, 98496, Note_on_c, 0, 72, 90
2, 98588, Note_off_c, 0, 72, 0
2, 98592, Note_on_c, 0, 64, 90
2, 98684, Note_off_c, 0, 64, 0
2, 98784, Note_on_c, 0, 62, 90
2, 98876, Note_off_c, 0, 62, 0
2, 98880, Note_on_c, 0, 71, 90
2, 98972, Note_off_c, 0, 71, 0
2, 98976, Note_on_c, 0, 62, 90
2, 99068, Note_off_c, 0, 62, 0
2, 99072, Note_on_c, 0, 72, 90
2, 99072, Note_on_c, 0, 67, 90
2, 99072, Note_on_c, 0, 64, 90
2, 99452, Note_off_c, 0, 72, 0
2, 99452, Note_off_c, 0, 67, 0
2, 99452, Note_off_c, 0, 64, 0
2, 99840, Note_on_c, 0, 77, 90
2, 99884, Note_off_c, 0, 77, 0
2, 99888, Note_on_c, 0, 76, 90
2, 99932, Note_off_c, 0, 76, 0
2, 99936, Note_on_c, 0, 77, 90
2, 99980, Note_off_c, 0, 77, 0
2, 99984, Note_on_c, 0, 76, 90
2, 100028, Note_off_c, 0, 76, 0
2, 100032, Note_on_c, 0, 74, 90
2, 100076, Note_off_c, 0, 74, 0
2, 100080, Note_on_c, 0, 76, 90
2, 100124, Note_off_c, 0, 76, 0
2, 100128, Note_on_c, 0, 74, 90
2, 100172, Note_off_c, 0, 74, 0
2, 100176, Note_on_c, 0, 72, 90
2, 100220, Note_off_c, 0, 72, 0
2, 100224, Note_on_c, 0, 79, 90
2, 100988, Note_off_c, 0, 79, 0
2, 100992, Note_on_c, 0, 84, 90
2, 101036, Note_off_c, 0, 84, 0
2, 101040, Note_on_c, 0, 83, 90
2, 101084, Note_off_c, 0, 83, 0
2, 101088, Note_on_c, 0, 84, 90
2, 101132, Note_off_c, 0, 84, 0
2, 101136, Note_on_c, 0, 83, 90
2, 101180, Note_off_c, 0, 83, 0
2, 101184, Note_on_c, 0, 81, 90
2, 101228, Note_off_c, 0, 81, 0
2, 101232, Note_on_c, 0, 83, 90
2, 101276, Note_off_c, 0, 83, 0
2, 101280, Note_on_c, 0, 81, 90
2, 101324, Note_off_c, 0, 81, 0
2, 101328, Note_on_c, 0, 79, 90
2, 101372, Note_off_c, 0, 79, 0
2, 101376, Note_on_c, 0, 84, 90
2, 102128, Note_on_c, 0, 77, 90
2, 102140, Note_off_c, 0, 84, 0
2, 102172, Note_off_c, 0, 77, 0
2, 102192, Note_on_c, 0, 76, 90
2, 102224, Note_on_c, 0, 77, 90
2, 102236, Note_off_c, 0, 76, 0
2, 102268, Note_off_c, 0, 77, 0
2, 102288, Note_on_c, 0, 76, 90
2, 102332, Note_off_c, 0, 76, 0
2, 102336, Note_on_c, 0, 74, 90
2, 102380, Note_off_c, 0, 74, 0
2, 102384, Note_on_c, 0, 76, 90
2, 102428, Note_off_c, 0, 76, 0
2, 102432, Note_on_c, 0, 74, 90
2, 102476, Note_off_c, 0, 74, 0
2, 102480, Note_on_c, 0, 72, 90
2, 102524, Note_off_c, 0, 72, 0
2, 102528, Note_on_c, 0, 79, 90
2, 102908, Note_off_c, 0, 79, 0
2, 102912, Note_on_c, 0, 79, 90
2, 103292, Note_off_c, 0, 79, 0
2, 103296, Note_on_c, 0, 84, 90
2, 103340, Note_off_c, 0, 84, 0
2, 103344, Note_on_c, 0, 83, 90
2, 103376, Note_on_c, 0, 84, 90
2, 103388, Note_off_c, 0, 83, 0
2, 103420, Note_off_c, 0, 84, 0
2, 103440, Note_on_c, 0, 83, 90
2, 103484, Note_off_c, 0, 83, 0
2, 103488, Note_on_c, 0, 81, 90
2, 103532, Note_off_c, 0, 81, 0
2, 103536, Note_on_c, 0, 83, 90
2, 103580, Note_off_c, 0, 83, 0
2, 103584, Note_on_c, 0, 81, 90
2, 103628, Note_off_c, 0, 81, 0
2, 103632, Note_on_c, 0, 79, 90
2, 103676, Note_off_c, 0, 79, 0
2, 103680, Note_on_c, 0, 84, 90
2, 104060, Note_off_c, 0, 84, 0
2, 104064, Note_on_c, 0, 88, 97
2, 104636, Note_off_c, 0, 88, 0
2, 104640, Note_on_c, 0, 80, 90
2, 104828, Note_off_c, 0, 80, 0
2, 104832, Note_on_c, 0, 81, 90
2, 105212, Note_off_c, 0, 81, 0
2, 105216, Note_on_c, 0, 84, 97
2, 105788, Note_off_c, 0, 84, 0
2, 105792, Note_on_c, 0, 76, 90
2, 105980, Note_off_c, 0, 76, 0
2, 105984, Note_on_c, 0, 79, 90
2, 106028, Note_off_c, 0, 79, 0
2, 106032, Note_on_c, 0, 77, 90
2, 106076, Note_off_c, 0, 77, 0
2, 106080, Note_on_c, 0, 79, 90
2, 106124, Note_off_c, 0, 79, 0
2, 106128, Note_on_c, 0, 77, 90
2, 106172, Note_off_c, 0, 77, 0
2, 106176, Note_on_c, 0, 76, 90
2, 106220, Note_off_c, 0, 76, 0
2, 106224, Note_on_c, 0, 77, 90
2, 106268, Note_off_c, 0, 77, 0
2, 106272, Note_on_c, 0, 76, 90
2, 106316, Note_off_c, 0, 76, 0
2, 106320, Note_on_c, 0, 74, 90
2, 106364, Note_off_c, 0, 74, 0
2, 106368, Note_on_c, 0, 79, 90
2, 106748, Note_off_c, 0, 79, 0
2, 106752, Note_on_c, 0, 79, 90
2, 106752, Note_on_c, 0, 77, 90
2, 106752, Note_on_c, 0, 74, 90
2, 106752, Note_on_c, 0, 83, 90
2, 107132, Note_off_c, 0, 79, 0
2, 107132, Note_off_c, 0, 77, 0
2, 107132, Note_off_c, 0, 74, 0
2, 107132, Note_off_c, 0, 83, 0
2, 107136, Note_on_c, 0, 84, 90
2, 107136, Note_on_c, 0, 79, 90
2, 107136, Note_on_c, 0, 76, 90
2, 107516, Note_off_c, 0, 84, 0
2, 107516, Note_off_c, 0, 79, 0
2, 107516, Note_off_c, 0, 76, 0
2, 107520, Note_on_c, 0, 60, 90
2, 107900, Note_off_c, 0, 60, 0
2, 108288, Note_on_c, 0, 65, 60
2, 109052, Note_off_c, 0, 65, 0
2, 109056, Note_on_c, 0, 69, 60
2, 109436, Note_off_c, 0, 69, 0
2, 109440, Note_on_c, 0, 72, 60
2, 110204, Note_off_c, 0, 72, 0
2, 110208, Note_on_c, 0, 69, 60
2, 110588, Note_off_c, 0, 69, 0
2, 110592, Note_on_c, 0, 70, 60
2, 111356, Note_off_c, 0, 70, 0
2, 111360, Note_on_c, 0, 79, 60
2, 111740, Note_off_c, 0, 79, 0
2, 111744, Note_on_c, 0, 77, 60
2, 111932, Note_off_c, 0, 77, 0
2, 111936, Note_on_c, 0, 76, 60
2, 112124, Note_off_c, 0, 76, 0
2, 112128, Note_on_c, 0, 76, 60
2, 112508, Note_off_c, 0, 76, 0
2, 112896, Note_on_c, 0, 77, 82
2, 113276, Note_off_c, 0, 77, 0
2, 113280, Note_on_c, 0, 69, 75
2, 113660, Note_off_c, 0, 69, 0
2, 113664, Note_on_c, 0, 74, 67
2, 114044, Note_off_c, 0, 74, 0
2, 114048, Note_on_c, 0, 67, 67
2, 114428, Note_off_c, 0, 67, 0
2, 114432, Note_on_c, 0, 72, 97
2, 115004, Note_off_c, 0, 72, 0
2, 115008, Note_on_c, 0, 69, 60
2, 115196, Note_off_c, 0, 69, 0
2, 115200, Note_on_c, 0, 65, 60
2, 116348, Note_off_c, 0, 65, 0
2, 116352, Note_on_c, 0, 67, 60
2, 116352, Note_on_c, 0, 65, 60
2, 116732, Note_off_c, 0, 65, 0
2, 116736, Note_on_c, 0, 64, 60
2, 116924, Note_off_c, 0, 64, 0
2, 116928, Note_on_c, 0, 62, 60
2, 117116, Note_off_c, 0, 62, 0
2, 117120, Note_on_c, 0, 64, 60
2, 117500, Note_off_c, 0, 67, 0
2, 117500, Note_off_c, 0, 64, 0
2, 117504, Note_on_c, 0, 69, 60
2, 117504, Note_on_c, 0, 65, 60
2, 117884, Note_off_c, 0, 69, 0
2, 117888, Note_on_c, 0, 70, 60
2, 118268, Note_off_c, 0, 70, 0
2, 118272, Note_on_c, 0, 74, 60
2, 118652, Note_off_c, 0, 65, 0
2, 118652, Note_off_c, 0, 74, 0
2, 118656, Note_on_c, 0, 65, 60
2, 118656, Note_on_c, 0, 74, 60
2, 118844, Note_off_c, 0, 74, 0
2, 118848, Note_on_c, 0, 72, 60
2, 119036, Note_off_c, 0, 65, 0
2, 119036, Note_off_c, 0, 72, 0
2, 119040, Note_on_c, 0, 70, 67
2, 119228, Note_off_c, 0, 70, 0
2, 119232, Note_on_c, 0, 69, 75
2, 119420, Note_off_c, 0, 69, 0
2, 119424, Note_on_c, 0, 67, 81
2, 119612, Note_off_c, 0, 67, 0
2, 119616, Note_on_c, 0, 65, 87
2, 119804, Note_off_c, 0, 65, 0
2, 119808, Note_on_c, 0, 67, 90
2, 120188, Note_off_c, 0, 67, 0
2, 120192, Note_on_c, 0, 70, 90
2, 120572, Note_off_c, 0, 70, 0
2, 120576, Note_on_c, 0, 64, 90
2, 120576, Note_on_c, 0, 58, 90
2, 120956, Note_off_c, 0, 64, 0
2, 120956, Note_off_c, 0, 58, 0
2, 120960, Note_on_c, 0, 65, 90
2, 120960, Note_on_c, 0, 57, 90
2, 121340, Note_off_c, 0, 65, 0
2, 121340, Note_off_c, 0, 57, 0
2, 121728, Note_on_c, 0, 84, 60
2, 121728, Note_on_c, 0, 72, 60
2, 121728, Note_on_c, 0, 69, 60
2, 122012, Note_off_c, 0, 84, 0
2, 122012, Note_off_c, 0, 72, 0
2, 122012, Note_off_c, 0, 69, 0
2, 122016, Note_on_c, 0, 82, 60
2, 122016, Note_on_c, 0, 70, 60
2, 122016, Note_on_c, 0, 67, 60
2, 122108, Note_off_c, 0, 82, 0
2, 122108, Note_off_c, 0, 70, 0
2, 122108, Note_off_c, 0, 67, 0
2, 122112, Note_on_c, 0, 81, 60
2, 122112, Note_on_c, 0, 69, 60
2, 122112, Note_on_c, 0, 65, 60
2, 122492, Note_off_c, 0, 81, 0
2, 122492, Note_off_c, 0, 69, 0
2, 122492, Note_off_c, 0, 65, 0
2, 122496, Note_on_c, 0, 81, 60
2, 122496, Note_on_c, 0, 69, 60
2, 122496, Note_on_c, 0, 65, 60
2, 122876, Note_off_c, 0, 81, 0
2, 122876, Note_off_c, 0, 69, 0
2, 122876, Note_off_c, 0, 65, 0
2, 122880, Note_on_c, 0, 81, 60
2, 122880, Note_on_c, 0, 69, 60
2, 122880, Note_on_c, 0, 65, 60
2, 123164, Note_off_c, 0, 81, 0
2, 123164, Note_off_c, 0, 69, 0
2, 123164, Note_off_c, 0, 65, 0
2, 123168, Note_on_c, 0, 79, 60
2, 123168, Note_on_c, 0, 67, 60
2, 123168, Note_on_c, 0, 60, 60
2, 123260, Note_off_c, 0, 79, 0
2, 123260, Note_off_c, 0, 67, 0
2, 123260, Note_off_c, 0, 60, 0
2, 123264, Note_on_c, 0, 77, 60
2, 123264, Note_on_c, 0, 65, 60
2, 123264, Note_on_c, 0, 57, 60
2, 123644, Note_off_c, 0, 77, 0
2, 123644, Note_off_c, 0, 65, 0
2, 123644, Note_off_c, 0, 57, 0
2, 123648, Note_on_c, 0, 77, 60
2, 123648, Note_on_c, 0, 65, 60
2, 123648, Note_on_c, 0, 57, 60
2, 124028, Note_off_c, 0, 77, 0
2, 124028, Note_off_c, 0, 65, 0
2, 124028, Note_off_c, 0, 57, 0
2, 124032, Note_on_c, 0, 77, 60
2, 124032, Note_on_c, 0, 65, 60
2, 124032, Note_on_c, 0, 57, 60
2, 124412, Note_off_c, 0, 77, 0
2, 124412, Note_off_c, 0, 65, 0
2, 124412, Note_off_c, 0, 57, 0
2, 124416, Note_on_c, 0, 79, 60
2, 124416, Note_on_c, 0, 76, 60
2, 124416, Note_on_c, 0, 67, 60
2, 124416, Note_on_c, 0, 60, 60
2, 124796, Note_off_c, 0, 79, 0
2, 124796, Note_off_c, 0, 76, 0
2, 124796, Note_off_c, 0, 67, 0
2, 124796, Note_off_c, 0, 60, 0
2, 124800, Note_on_c, 0, 79, 60
2, 124800, Note_on_c, 0, 76, 60
2, 124800, Note_on_c, 0, 67, 60
2, 124800, Note_on_c, 0, 60, 60
2, 125180, Note_off_c, 0, 79, 0
2, 125180, Note_off_c, 0, 76, 0
2, 125180, Note_off_c, 0, 67, 0
2, 125180, Note_off_c, 0, 60, 0
2, 125184, Note_on_c, 0, 76, 60
2, 125184, Note_on_c, 0, 79, 60
2, 125184, Note_on_c, 0, 67, 60
2, 125184, Note_on_c, 0, 60, 60
2, 125564, Note_off_c, 0, 76, 0
2, 125564, Note_off_c, 0, 79, 0
2, 125564, Note_off_c, 0, 67, 0
2, 125564, Note_off_c, 0, 60, 0
2, 125568, Note_on_c, 0, 79, 60
2, 125568, Note_on_c, 0, 76, 60
2, 125568, Note_on_c, 0, 67, 60
2, 125568, Note_on_c, 0, 60, 60
2, 125948, Note_off_c, 0, 79, 0
2, 125948, Note_off_c, 0, 76, 0
2, 125948, Note_off_c, 0, 67, 0
2, 125948, Note_off_c, 0, 60, 0
2, 125952, Note_on_c, 0, 77, 60
2, 125952, Note_on_c, 0, 81, 60
2, 125952, Note_on_c, 0, 65, 60
2, 125952, Note_on_c, 0, 69, 60
2, 126332, Note_off_c, 0, 77, 0
2, 126332, Note_off_c, 0, 81, 0
2, 126332, Note_off_c, 0, 65, 0
2, 126332, Note_off_c, 0, 69, 0
2, 126336, Note_on_c, 0, 84, 60
2, 126336, Note_on_c, 0, 72, 60
2, 126336, Note_on_c, 0, 69, 60
2, 126428, Note_off_c, 0, 84, 0
2, 126432, Note_on_c, 0, 86, 60
2, 126524, Note_off_c, 0, 86, 0
2, 126528, Note_on_c, 0, 84, 60
2, 126620, Note_off_c, 0, 72, 0
2, 126620, Note_off_c, 0, 69, 0
2, 126620, Note_off_c, 0, 84, 0
2, 126624, Note_on_c, 0, 82, 60
2, 126624, Note_on_c, 0, 70, 60
2, 126624, Note_on_c, 0, 67, 60
2, 126716, Note_off_c, 0, 82, 0
2, 126716, Note_off_c, 0, 70, 0
2, 126716, Note_off_c, 0, 67, 0
2, 126720, Note_on_c, 0, 81, 60
2, 126720, Note_on_c, 0, 65, 60
2, 126720, Note_on_c, 0, 69, 60
2, 127100, Note_off_c, 0, 81, 0
2, 127100, Note_off_c, 0, 65, 0
2, 127100, Note_off_c, 0, 69, 0
2, 127104, Note_on_c, 0, 81, 60
2, 127104, Note_on_c, 0, 65, 60
2, 127104, Note_on_c, 0, 69, 60
2, 127484, Note_off_c, 0, 81, 0
2, 127484, Note_off_c, 0, 65, 0
2, 127484, Note_off_c, 0, 69, 0
2, 127488, Note_on_c, 0, 81, 60
2, 127488, Note_on_c, 0, 69, 60
2, 127488, Note_on_c, 0, 65, 60
2, 127580, Note_off_c, 0, 81, 0
2, 127584, Note_on_c, 0, 82, 60
2, 127676, Note_off_c, 0, 82, 0
2, 127680, Note_on_c, 0, 81, 60
2, 127772, Note_off_c, 0, 69, 0
2, 127772, Note_off_c, 0, 65, 0
2, 127772, Note_off_c, 0, 81, 0
2, 127776, Note_on_c, 0, 79, 60
2, 127776, Note_on_c, 0, 67, 60
2, 127776, Note_on_c, 0, 60, 60
2, 127868, Note_off_c, 0, 79, 0
2, 127868, Note_off_c, 0, 67, 0
2, 127868, Note_off_c, 0, 60, 0
2, 127872, Note_on_c, 0, 77, 60
2, 127872, Note_on_c, 0, 65, 60
2, 127872, Note_on_c, 0, 57, 60
2, 128252, Note_off_c, 0, 77, 0
2, 128252, Note_off_c, 0, 65, 0
2, 128252, Note_off_c, 0, 57, 0
2, 128256, Note_on_c, 0, 77, 60
2, 128256, Note_on_c, 0, 65, 60
2, 128256, Note_on_c, 0, 57, 60
2, 128636, Note_off_c, 0, 77, 0
2, 128636, Note_off_c, 0, 65, 0
2, 128636, Note_off_c, 0, 57, 0
2, 128640, Note_on_c, 0, 77, 60
2, 128640, Note_on_c, 0, 65, 60
2, 128640, Note_on_c, 0, 57, 60
2, 129020, Note_off_c, 0, 77, 0
2, 129020, Note_off_c, 0, 65, 0
2, 129020, Note_off_c, 0, 57, 0
2, 129024, Note_on_c, 0, 79, 60
2, 129024, Note_on_c, 0, 67, 60
2, 129024, Note_on_c, 0, 60, 60
2, 129404, Note_off_c, 0, 79, 0
2, 129404, Note_off_c, 0, 67, 0
2, 129404, Note_off_c, 0, 60, 0
2, 129408, Note_on_c, 0, 82, 60
2, 129788, Note_off_c, 0, 82, 0
2, 129792, Note_on_c, 0, 76, 60
2, 129792, Note_on_c, 0, 70, 60
2, 129792, Note_on_c, 0, 67, 60
2, 129792, Note_on_c, 0, 60, 60
2, 130172, Note_off_c, 0, 76, 0
2, 130172, Note_off_c, 0, 70, 0
2, 130172, Note_off_c, 0, 67, 0
2, 130172, Note_off_c, 0, 60, 0
2, 130176, Note_on_c, 0, 77, 60
2, 130176, Note_on_c, 0, 69, 60
2, 130176, Note_on_c, 0, 65, 60
2, 130556, Note_off_c, 0, 77, 0
2, 130556, Note_off_c, 0, 69, 0
2, 130556, Note_off_c, 0, 65, 0
2, 130944, Note_on_c, 0, 84, 60
2, 130944, Note_on_c, 0, 70, 60
2, 130944, Note_on_c, 0, 64, 60
2, 130944, Note_on_c, 0, 60, 60
2, 131324, Note_off_c, 0, 84, 0
2, 131324, Note_off_c, 0, 70, 0
2, 131324, Note_off_c, 0, 64, 0
2, 131324, Note_off_c, 0, 60, 0
2, 131324, Note_on_c, 0, 69, 60
2, 131328, Note_on_c, 0, 77, 60
2, 131328, Note_on_c, 0, 65, 60
2, 131704, Note_off_c, 0, 69, 0
2, 131708, Note_off_c, 0, 77, 0
2, 131708, Note_off_c, 0, 65, 0
2, 132096, Note_on_c, 0, 72, 60
2, 132476, Note_off_c, 0, 72, 0
2, 132480, Note_on_c, 0, 65, 60
2, 132860, Note_off_c, 0, 65, 0
2, 133248, Note_on_c, 0, 61, 90
2, 133628, Note_off_c, 0, 61, 0
2, 133632, Note_on_c, 0, 62, 90
2, 134204, Note_off_c, 0, 62, 0
2, 134208, Note_on_c, 0, 65, 90
2, 134300, Note_off_c, 0, 65, 0
2, 134304, Note_on_c, 0, 69, 90
2, 134396, Note_off_c, 0, 69, 0
2, 134400, Note_on_c, 0, 74, 90
2, 134588, Note_off_c, 0, 74, 0
2, 134592, Note_on_c, 0, 69, 90
2, 134684, Note_off_c, 0, 69, 0
2, 134688, Note_on_c, 0, 74, 90
2, 134780, Note_off_c, 0, 74, 0
2, 134784, Note_on_c, 0, 77, 90
2, 134972, Note_off_c, 0, 77, 0
2, 134976, Note_on_c, 0, 74, 90
2, 135068, Note_off_c, 0, 74, 0
2, 135072, Note_on_c, 0, 77, 90
2, 135164, Note_off_c, 0, 77, 0
2, 135168, Note_on_c, 0, 81, 90
2, 135356, Note_off_c, 0, 81, 0
2, 135360, Note_on_c, 0, 81, 90
2, 135548, Note_off_c, 0, 81, 0
2, 135552, Note_on_c, 0, 77, 90
2, 135740, Note_off_c, 0, 77, 0
2, 135744, Note_on_c, 0, 74, 90
2, 135932, Note_off_c, 0, 74, 0
2, 135936, Note_on_c, 0, 73, 97
2, 136000, Note_off_c, 0, 73, 0
2, 136000, Note_on_c, 0, 76, 97
2, 136064, Note_off_c, 0, 76, 0
2, 136064, Note_on_c, 0, 79, 97
2, 136128, Note_off_c, 0, 79, 0
2, 136128, Note_on_c, 0, 82, 97
2, 136508, Note_off_c, 0, 82, 0
2, 136512, Note_on_c, 0, 81, 60
2, 136604, Note_off_c, 0, 81, 0
2, 136608, Note_on_c, 0, 79, 60
2, 136700, Note_off_c, 0, 79, 0
2, 136704, Note_on_c, 0, 77, 60
2, 136796, Note_off_c, 0, 77, 0
2, 136800, Note_on_c, 0, 76, 60
2, 136892, Note_off_c, 0, 76, 0
2, 136896, Note_on_c, 0, 74, 60
2, 136988, Note_off_c, 0, 74, 0
2, 136992, Note_on_c, 0, 73, 60
2, 137084, Note_off_c, 0, 73, 0
2, 137088, Note_on_c, 0, 82, 97
2, 137660, Note_off_c, 0, 82, 0
2, 137664, Note_on_c, 0, 81, 60
2, 137756, Note_off_c, 0, 81, 0
2, 137760, Note_on_c, 0, 79, 60
2, 137852, Note_off_c, 0, 79, 0
2, 137856, Note_on_c, 0, 77, 60
2, 137948, Note_off_c, 0, 77, 0
2, 137952, Note_on_c, 0, 76, 60
2, 138044, Note_off_c, 0, 76, 0
2, 138048, Note_on_c, 0, 74, 60
2, 138140, Note_off_c, 0, 74, 0
2, 138144, Note_on_c, 0, 72, 60
2, 138236, Note_off_c, 0, 72, 0
2, 138240, Note_on_c, 0, 74, 90
2, 138812, Note_off_c, 0, 74, 0
2, 138816, Note_on_c, 0, 65, 90
2, 138908, Note_off_c, 0, 65, 0
2, 138912, Note_on_c, 0, 69, 90
2, 139004, Note_off_c, 0, 69, 0
2, 139008, Note_on_c, 0, 74, 90
2, 139196, Note_off_c, 0, 74, 0
2, 139200, Note_on_c, 0, 69, 90
2, 139292, Note_off_c, 0, 69, 0
2, 139296, Note_on_c, 0, 74, 90
2, 139388, Note_off_c, 0, 74, 0
2, 139392, Note_on_c, 0, 77, 90
2, 139580, Note_off_c, 0, 77, 0
2, 139584, Note_on_c, 0, 74, 90
2, 139676, Note_off_c, 0, 74, 0
2, 139680, Note_on_c, 0, 77, 90
2, 139772, Note_off_c, 0, 77, 0
2, 139776, Note_on_c, 0, 81, 90
2, 139964, Note_off_c, 0, 81, 0
2, 139968, Note_on_c, 0, 81, 90
2, 140156, Note_off_c, 0, 81, 0
2, 140160, Note_on_c, 0, 77, 90
2, 140348, Note_off_c, 0, 77, 0
2, 140352, Note_on_c, 0, 74, 90
2, 140540, Note_off_c, 0, 74, 0
2, 140544, Note_on_c, 0, 71, 97
2, 140560, Note_on_c, 0, 74, 97
2, 140580, Note_on_c, 0, 77, 97
2, 140600, Note_on_c, 0, 80, 97
2, 141116, Note_off_c, 0, 71, 0
2, 141120, Note_on_c, 0, 79, 60
2, 141132, Note_off_c, 0, 74, 0
2, 141152, Note_off_c, 0, 77, 0
2, 141172, Note_off_c, 0, 80, 0
2, 141212, Note_off_c, 0, 79, 0
2, 141216, Note_on_c, 0, 77, 60
2, 141308, Note_off_c, 0, 77, 0
2, 141312, Note_on_c, 0, 75, 60
2, 141404, Note_off_c, 0, 75, 0
2, 141408, Note_on_c, 0, 74, 60
2, 141500, Note_off_c, 0, 74, 0
2, 141504, Note_on_c, 0, 72, 60
2, 141596, Note_off_c, 0, 72, 0
2, 141600, Note_on_c, 0, 71, 60
2, 141692, Note_off_c, 0, 71, 0
2, 141696, Note_on_c, 0, 80, 97
2, 142268, Note_off_c, 0, 80, 0
2, 142272, Note_on_c, 0, 79, 60
2, 142364, Note_off_c, 0, 79, 0
2, 142368, Note_on_c, 0, 77, 60
2, 142460, Note_off_c, 0, 77, 0
2, 142464, Note_on_c, 0, 75, 60
2, 142556, Note_off_c, 0, 75, 0
2, 142560, Note_on_c, 0, 74, 60
2, 142652, Note_off_c, 0, 74, 0
2, 142656, Note_on_c, 0, 72, 60
2, 142748, Note_off_c, 0, 72, 0
2, 142752, Note_on_c, 0, 71, 60
2, 142844, Note_off_c, 0, 71, 0
2, 142848, Note_on_c, 0, 72, 90
2, 143228, Note_off_c, 0, 72, 0
2, 143232, Note_on_c, 0, 72, 90
2, 143324, Note_off_c, 0, 72, 0
2, 143328, Note_on_c, 0, 67, 90
2, 143420, Note_off_c, 0, 67, 0
2, 143424, Note_on_c, 0, 72, 90
2, 143516, Note_off_c, 0, 72, 0
2, 143520, Note_on_c, 0, 67, 90
2, 143612, Note_off_c, 0, 67, 0
2, 143616, Note_on_c, 0, 75, 90
2, 143708, Note_off_c, 0, 75, 0
2, 143712, Note_on_c, 0, 72, 90
2, 143804, Note_off_c, 0, 72, 0
2, 143808, Note_on_c, 0, 75, 90
2, 143900, Note_off_c, 0, 75, 0
2, 143904, Note_on_c, 0, 72, 90
2, 143996, Note_off_c, 0, 72, 0
2, 144000, Note_on_c, 0, 79, 90
2, 144092, Note_off_c, 0, 79, 0
2, 144096, Note_on_c, 0, 75, 90
2, 144188, Note_off_c, 0, 75, 0
2, 144192, Note_on_c, 0, 79, 90
2, 144284, Note_off_c, 0, 79, 0
2, 144288, Note_on_c, 0, 75, 90
2, 144380, Note_off_c, 0, 75, 0
2, 144384, Note_on_c, 0, 84, 90
2, 144764, Note_off_c, 0, 84, 0
2, 145152, Note_on_c, 0, 72, 90
2, 145532, Note_off_c, 0, 72, 0
2, 145536, Note_on_c, 0, 72, 90
2, 145628, Note_off_c, 0, 72, 0
2, 145632, Note_on_c, 0, 68, 90
2, 145724, Note_off_c, 0, 68, 0
2, 145728, Note_on_c, 0, 72, 90
2, 145820, Note_off_c, 0, 72, 0
2, 145824, Note_on_c, 0, 68, 90
2, 145916, Note_off_c, 0, 68, 0
2, 145920, Note_on_c, 0, 75, 90
2, 146012, Note_off_c, 0, 75, 0
2, 146016, Note_on_c, 0, 72, 90
2, 146108, Note_off_c, 0, 72, 0
2, 146112, Note_on_c, 0, 75, 90
2, 146204, Note_off_c, 0, 75, 0
2, 146208, Note_on_c, 0, 72, 90
2, 146300, Note_off_c, 0, 72, 0
2, 146304, Note_on_c, 0, 80, 90
2, 146396, Note_off_c, 0, 80, 0
2, 146400, Note_on_c, 0, 75, 90
2, 146492, Note_off_c, 0, 75, 0
2, 146496, Note_on_c, 0, 80, 90
2, 146588, Note_off_c, 0, 80, 0
2, 146592, Note_on_c, 0, 75, 90
2, 146684, Note_off_c, 0, 75, 0
2, 146688, Note_on_c, 0, 84, 90
2, 147068, Note_off_c, 0, 84, 0
2, 147456, Note_on_c, 0, 72, 90
2, 147836, Note_off_c, 0, 72, 0
2, 147840, Note_on_c, 0, 72, 90
2, 147932, Note_off_c, 0, 72, 0
2, 147936, Note_on_c, 0, 66, 90
2, 148028, Note_off_c, 0, 66, 0
2, 148032, Note_on_c, 0, 72, 90
2, 148124, Note_off_c, 0, 72, 0
2, 148128, Note_on_c, 0, 66, 90
2, 148220, Note_off_c, 0, 66, 0
2, 148224, Note_on_c, 0, 75, 90
2, 148316, Note_off_c, 0, 75, 0
2, 148320, Note_on_c, 0, 72, 90
2, 148412, Note_off_c, 0, 72, 0
2, 148416, Note_on_c, 0, 75, 90
2, 148508, Note_off_c, 0, 75, 0
2, 148512, Note_on_c, 0, 72, 90
2, 148604, Note_off_c, 0, 72, 0
2, 148608, Note_on_c, 0, 78, 90
2, 148700, Note_off_c, 0, 78, 0
2, 148704, Note_on_c, 0, 75, 90
2, 148796, Note_off_c, 0, 75, 0
2, 148800, Note_on_c, 0, 78, 90
2, 148892, Note_off_c, 0, 78, 0
2, 148896, Note_on_c, 0, 75, 90
2, 148988, Note_off_c, 0, 75, 0
2, 148992, Note_on_c, 0, 84, 90
2, 149372, Note_off_c, 0, 84, 0
2, 149376, Note_on_c, 0, 78, 90
2, 149756, Note_off_c, 0, 78, 0
2, 149760, Note_on_c, 0, 67, 90
2, 149852, Note_off_c, 0, 67, 0
2, 149856, Note_on_c, 0, 71, 90
2, 149948, Note_off_c, 0, 71, 0
2, 149952, Note_on_c, 0, 74, 90
2, 150044, Note_off_c, 0, 74, 0
2, 150048, Note_on_c, 0, 79, 90
2, 150528, Note_on_c, 0, 77, 90
2, 150620, Note_off_c, 0, 77, 0
2, 150624, Note_on_c, 0, 75, 90
2, 150716, Note_off_c, 0, 75, 0
2, 150720, Note_on_c, 0, 74, 90
2, 150812, Note_off_c, 0, 79, 0
2, 150812, Note_off_c, 0, 74, 0
2, 150816, Note_on_c, 0, 72, 90
2, 150908, Note_off_c, 0, 72, 0
2, 150912, Note_on_c, 0, 79, 90
2, 151676, Note_off_c, 0, 79, 0
2, 151680, Note_on_c, 0, 77, 90
2, 151772, Note_off_c, 0, 77, 0
2, 151776, Note_on_c, 0, 75, 90
2, 151868, Note_off_c, 0, 75, 0
2, 151872, Note_on_c, 0, 74, 90
2, 151964, Note_off_c, 0, 74, 0
2, 151968, Note_on_c, 0, 72, 90
2, 152060, Note_off_c, 0, 72, 0
2, 152064, Note_on_c, 0, 79, 90
2, 152636, Note_off_c, 0, 79, 0
2, 152640, Note_on_c, 0, 80, 90
2, 152732, Note_off_c, 0, 80, 0
2, 152736, Note_on_c, 0, 79, 90
2, 152828, Note_off_c, 0, 79, 0
2, 152832, Note_on_c, 0, 77, 90
2, 152924, Note_off_c, 0, 77, 0
2, 152928, Note_on_c, 0, 75, 90
2, 153020, Note_off_c, 0, 75, 0
2, 153024, Note_on_c, 0, 74, 90
2, 153116, Note_off_c, 0, 74, 0
2, 153120, Note_on_c, 0, 72, 90
2, 153212, Note_off_c, 0, 72, 0
2, 153216, Note_on_c, 0, 79, 97
2, 153596, Note_off_c, 0, 79, 0
2, 153600, Note_on_c, 0, 67, 60
2, 153980, Note_off_c, 0, 67, 0
2, 154368, Note_on_c, 0, 67, 60
2, 154460, Note_off_c, 0, 67, 0
2, 154464, Note_on_c, 0, 76, 60
2, 154652, Note_off_c, 0, 76, 0
2, 154752, Note_on_c, 0, 76, 60
2, 154940, Note_off_c, 0, 76, 0
2, 155136, Note_on_c, 0, 76, 60
2, 155324, Note_off_c, 0, 76, 0
2, 155520, Note_on_c, 0, 71, 60
2, 155612, Note_off_c, 0, 71, 0
2, 155616, Note_on_c, 0, 79, 60
2, 156096, Note_on_c, 0, 77, 60
2, 156188, Note_off_c, 0, 79, 0
2, 156284, Note_off_c, 0, 77, 0
2, 156288, Note_on_c, 0, 74, 60
2, 156668, Note_off_c, 0, 74, 0
2, 156672, Note_on_c, 0, 74, 60
2, 156672, Note_on_c, 0, 64, 60
2, 156860, Note_off_c, 0, 74, 0
2, 156864, Note_on_c, 0, 72, 60
2, 157052, Note_off_c, 0, 64, 0
2, 157052, Note_off_c, 0, 72, 0
2, 157056, Note_on_c, 0, 72, 60
2, 157056, Note_on_c, 0, 67, 60
2, 157628, Note_off_c, 0, 72, 0
2, 157628, Note_off_c, 0, 67, 0
2, 157632, Note_on_c, 0, 74, 60
2, 157632, Note_on_c, 0, 71, 60
2, 157820, Note_off_c, 0, 74, 0
2, 157820, Note_off_c, 0, 71, 0
2, 157824, Note_on_c, 0, 74, 60
2, 157824, Note_on_c, 0, 71, 60
2, 158588, Note_off_c, 0, 74, 0
2, 158588, Note_off_c, 0, 71, 0
2, 158592, Note_on_c, 0, 76, 60
2, 158592, Note_on_c, 0, 72, 60
2, 158972, Note_off_c, 0, 76, 0
2, 158972, Note_off_c, 0, 72, 0
2, 158976, Note_on_c, 0, 77, 60
2, 159408, Note_on_c, 0, 79, 60
2, 159452, Note_off_c, 0, 79, 0
2, 159456, Note_on_c, 0, 77, 60
2, 159500, Note_off_c, 0, 77, 0
2, 159504, Note_on_c, 0, 76, 60
2, 159548, Note_off_c, 0, 77, 0
2, 159548, Note_off_c, 0, 76, 0
2, 159552, Note_on_c, 0, 77, 60
2, 159740, Note_off_c, 0, 77, 0
2, 159744, Note_on_c, 0, 79, 60
2, 159932, Note_off_c, 0, 79, 0
2, 159936, Note_on_c, 0, 81, 60
2, 160124, Note_off_c, 0, 81, 0
2, 160128, Note_on_c, 0, 81, 60
2, 160316, Note_off_c, 0, 81, 0
2, 160320, Note_on_c, 0, 79, 60
2, 160508, Note_off_c, 0, 79, 0
2, 160512, Note_on_c, 0, 78, 60
2, 160700, Note_off_c, 0, 78, 0
2, 160704, Note_on_c, 0, 79, 60
2, 160892, Note_off_c, 0, 79, 0
2, 160896, Note_on_c, 0, 77, 60
2, 161084, Note_off_c, 0, 77, 0
2, 161088, Note_on_c, 0, 74, 60
2, 161276, Note_off_c, 0, 74, 0
2, 161280, Note_on_c, 0, 75, 60
2, 161468, Note_off_c, 0, 75, 0
2, 161472, Note_on_c, 0, 76, 60
2, 161660, Note_off_c, 0, 76, 0
2, 161664, Note_on_c, 0, 77, 60
2, 161852, Note_off_c, 0, 77, 0
2, 161856, Note_on_c, 0, 76, 60
2, 162044, Note_off_c, 0, 76, 0
2, 162048, Note_on_c, 0, 79, 60
2, 162236, Note_off_c, 0, 79, 0
2, 162240, Note_on_c, 0, 77, 60
2, 162428, Note_off_c, 0, 77, 0
2, 162432, Note_on_c, 0, 76, 60
2, 162620, Note_off_c, 0, 76, 0
2, 162624, Note_on_c, 0, 74, 60
2, 162812, Note_off_c, 0, 74, 0
2, 162816, Note_on_c, 0, 72, 60
2, 163004, Note_off_c, 0, 72, 0
2, 163008, Note_on_c, 0, 71, 60
2, 163196, Note_off_c, 0, 71, 0
2, 163200, Note_on_c, 0, 69, 60
2, 163388, Note_off_c, 0, 69, 0
2, 163392, Note_on_c, 0, 67, 60
2, 163580, Note_off_c, 0, 67, 0
2, 163584, Note_on_c, 0, 75, 60
2, 163612, Note_on_c, 0, 60, 60
2, 163704, Note_off_c, 0, 60, 0
2, 163728, Note_on_c, 0, 64, 60
2, 163772, Note_off_c, 0, 75, 0
2, 163776, Note_on_c, 0, 76, 60
2, 163820, Note_off_c, 0, 64, 0
2, 163844, Note_on_c, 0, 67, 60
2, 163936, Note_off_c, 0, 67, 0
2, 163964, Note_off_c, 0, 76, 0
2, 163968, Note_on_c, 0, 75, 60
2, 163996, Note_on_c, 0, 60, 60
2, 164088, Note_off_c, 0, 60, 0
2, 164112, Note_on_c, 0, 64, 60
2, 164156, Note_off_c, 0, 75, 0
2, 164160, Note_on_c, 0, 76, 60
2, 164204, Note_off_c, 0, 64, 0
2, 164228, Note_on_c, 0, 67, 60
2, 164320, Note_off_c, 0, 67, 0
2, 164348, Note_off_c, 0, 76, 0
2, 164352, Note_on_c, 0, 75, 60
2, 164380, Note_on_c, 0, 60, 60
2, 164472, Note_off_c, 0, 60, 0
2, 164496, Note_on_c, 0, 64, 60
2, 164540, Note_off_c, 0, 75, 0
2, 164544, Note_on_c, 0, 76, 60
2, 164588, Note_off_c, 0, 64, 0
2, 164612, Note_on_c, 0, 67, 60
2, 164704, Note_off_c, 0, 67, 0
2, 164732, Note_off_c, 0, 76, 0
2, 164736, Note_on_c, 0, 78, 60
2, 164764, Note_on_c, 0, 60, 60
2, 164856, Note_off_c, 0, 60, 0
2, 164880, Note_on_c, 0, 62, 60
2, 164924, Note_off_c, 0, 78, 0
2, 164928, Note_on_c, 0, 79, 60
2, 164972, Note_off_c, 0, 62, 0
2, 164996, Note_on_c, 0, 67, 60
2, 165088, Note_off_c, 0, 67, 0
2, 165116, Note_off_c, 0, 79, 0
2, 165120, Note_on_c, 0, 78, 60
2, 165148, Note_on_c, 0, 58, 60
2, 165240, Note_off_c, 0, 58, 0
2, 165264, Note_on_c, 0, 62, 60
2, 165308, Note_off_c, 0, 78, 0
2, 165312, Note_on_c, 0, 79, 60
2, 165356, Note_off_c, 0, 62, 0
2, 165380, Note_on_c, 0, 67, 60
2, 165472, Note_off_c, 0, 67, 0
2, 165500, Note_off_c, 0, 79, 0
2, 165504, Note_on_c, 0, 77, 60
2, 165532, Note_on_c, 0, 58, 60
2, 165624, Note_off_c, 0, 58, 0
2, 165648, Note_on_c, 0, 65, 60
2, 165692, Note_off_c, 0, 77, 0
2, 165696, Note_on_c, 0, 74, 60
2, 165740, Note_off_c, 0, 65, 0
2, 165764, Note_on_c, 0, 67, 60
2, 165856, Note_off_c, 0, 67, 0
2, 165884, Note_off_c, 0, 74, 0
2, 165888, Note_on_c, 0, 74, 60
2, 165888, Note_on_c, 0, 64, 60
2, 165888, Note_on_c, 0, 60, 60
2, 166076, Note_off_c, 0, 74, 0
2, 166080, Note_on_c, 0, 72, 60
2, 166268, Note_off_c, 0, 64, 0
2, 166268, Note_off_c, 0, 60, 0
2, 166268, Note_off_c, 0, 72, 0
2, 166272, Note_on_c, 0, 74, 60
2, 166272, Note_on_c, 0, 67, 60
2, 166460, Note_off_c, 0, 74, 0
2, 166464, Note_on_c, 0, 72, 60
2, 166652, Note_off_c, 0, 67, 0
2, 166652, Note_off_c, 0, 72, 0
2, 166656, Note_on_c, 0, 76, 60
2, 166656, Note_on_c, 0, 71, 60
2, 166844, Note_off_c, 0, 76, 0
2, 166848, Note_on_c, 0, 74, 60
2, 167036, Note_off_c, 0, 71, 0
2, 167036, Note_off_c, 0, 74, 0
2, 167040, Note_on_c, 0, 74, 60
2, 167040, Note_on_c, 0, 71, 60
2, 167612, Note_off_c, 0, 74, 0
2, 167616, Note_on_c, 0, 75, 60
2, 167804, Note_off_c, 0, 71, 0
2, 167804, Note_off_c, 0, 75, 0
2, 167808, Note_on_c, 0, 76, 60
2, 167808, Note_on_c, 0, 72, 60
2, 168188, Note_off_c, 0, 76, 0
2, 168188, Note_off_c, 0, 72, 0
2, 168192, Note_on_c, 0, 77, 60
2, 168192, Note_on_c, 0, 57, 60
2, 168380, Note_off_c, 0, 57, 0
2, 168384, Note_on_c, 0, 60, 60
2, 168572, Note_off_c, 0, 60, 0
2, 168576, Note_on_c, 0, 65, 60
2, 168624, Note_on_c, 0, 79, 60
2, 168668, Note_off_c, 0, 79, 0
2, 168672, Note_on_c, 0, 77, 60
2, 168716, Note_off_c, 0, 77, 0
2, 168720, Note_on_c, 0, 76, 60
2, 168764, Note_off_c, 0, 65, 0
2, 168764, Note_off_c, 0, 77, 0
2, 168764, Note_off_c, 0, 76, 0
2, 168768, Note_on_c, 0, 77, 60
2, 168768, Note_on_c, 0, 60, 60
2, 168956, Note_off_c, 0, 77, 0
2, 168956, Note_off_c, 0, 60, 0
2, 168960, Note_on_c, 0, 79, 60
2, 168960, Note_on_c, 0, 57, 60
2, 169148, Note_off_c, 0, 79, 0
2, 169148, Note_off_c, 0, 57, 0
2, 169152, Note_on_c, 0, 81, 60
2, 169152, Note_on_c, 0, 60, 60
2, 169340, Note_off_c, 0, 81, 0
2, 169340, Note_off_c, 0, 60, 0
2, 169344, Note_on_c, 0, 81, 60
2, 169344, Note_on_c, 0, 59, 60
2, 169532, Note_off_c, 0, 81, 0
2, 169532, Note_off_c, 0, 59, 0
2, 169536, Note_on_c, 0, 79, 60
2, 169536, Note_on_c, 0, 62, 60
2, 169724, Note_off_c, 0, 79, 0
2, 169724, Note_off_c, 0, 62, 0
2, 169728, Note_on_c, 0, 78, 60
2, 169728, Note_on_c, 0, 67, 60
2, 169916, Note_off_c, 0, 78, 0
2, 169916, Note_off_c, 0, 67, 0
2, 169920, Note_on_c, 0, 79, 60
2, 169920, Note_on_c, 0, 62, 60
2, 170108, Note_off_c, 0, 79, 0
2, 170108, Note_off_c, 0, 62, 0
2, 170112, Note_on_c, 0, 77, 60
2, 170112, Note_on_c, 0, 58, 60
2, 170300, Note_off_c, 0, 77, 0
2, 170300, Note_off_c, 0, 58, 0
2, 170304, Note_on_c, 0, 74, 60
2, 170304, Note_on_c, 0, 62, 60
2, 170492, Note_off_c, 0, 74, 0
2, 170492, Note_off_c, 0, 62, 0
2, 170496, Note_on_c, 0, 75, 90
2, 170496, Note_on_c, 0, 60, 90
2, 170684, Note_off_c, 0, 75, 0
2, 170688, Note_on_c, 0, 76, 90
2, 170876, Note_off_c, 0, 60, 0
2, 170876, Note_off_c, 0, 76, 0
2, 170880, Note_on_c, 0, 79, 82
2, 171068, Note_off_c, 0, 79, 0
2, 171072, Note_on_c, 0, 77, 76
2, 171260, Note_off_c, 0, 77, 0
2, 171264, Note_on_c, 0, 74, 72
2, 171452, Note_off_c, 0, 74, 0
2, 171456, Note_on_c, 0, 71, 67
2, 171644, Note_off_c, 0, 71, 0
2, 171648, Note_on_c, 0, 72, 60
2, 171836, Note_off_c, 0, 72, 0
2, 171840, Note_on_c, 0, 67, 60
2, 172028, Note_off_c, 0, 67, 0
2, 172224, Note_on_c, 0, 67, 60
2, 172412, Note_off_c, 0, 67, 0
2, 172608, Note_on_c, 0, 67, 60
2, 172796, Note_off_c, 0, 67, 0
2, 172800, Note_on_c, 0, 65, 60
2, 172800, Note_on_c, 0, 67, 60
2, 172988, Note_off_c, 0, 65, 0
2, 172988, Note_off_c, 0, 67, 0
2, 172992, Note_on_c, 0, 65, 60
2, 172992, Note_on_c, 0, 67, 60
2, 173180, Note_off_c, 0, 65, 0
2, 173180, Note_off_c, 0, 67, 0
2, 173376, Note_on_c, 0, 65, 60
2, 173376, Note_on_c, 0, 67, 60
2, 173564, Note_off_c, 0, 65, 0
2, 173564, Note_off_c, 0, 67, 0
2, 173760, Note_on_c, 0, 65, 60
2, 173760, Note_on_c, 0, 67, 60
2, 173948, Note_off_c, 0, 65, 0
2, 173948, Note_off_c, 0, 67, 0
2, 173952, Note_on_c, 0, 63, 60
2, 173952, Note_on_c, 0, 67, 60
2, 174140, Note_off_c, 0, 63, 0
2, 174140, Note_off_c, 0, 67, 0
2, 174144, Note_on_c, 0, 67, 60
2, 174144, Note_on_c, 0, 63, 60
2, 174332, Note_off_c, 0, 67, 0
2, 174332, Note_off_c, 0, 63, 0
2, 174528, Note_on_c, 0, 67, 60
2, 174528, Note_on_c, 0, 63, 60
2, 174716, Note_off_c, 0, 67, 0
2, 174716, Note_off_c, 0, 63, 0
2, 174912, Note_on_c, 0, 67, 60
2, 174912, Note_on_c, 0, 63, 60
2, 175100, Note_off_c, 0, 67, 0
2, 175100, Note_off_c, 0, 63, 0
2, 175104, Note_on_c, 0, 65, 60
2, 175104, Note_on_c, 0, 67, 60
2, 175292, Note_off_c, 0, 65, 0
2, 175292, Note_off_c, 0, 67, 0
2, 175296, Note_on_c, 0, 65, 60
2, 175296, Note_on_c, 0, 67, 60
2, 175484, Note_off_c, 0, 65, 0
2, 175484, Note_off_c, 0, 67, 0
2, 175680, Note_on_c, 0, 65, 60
2, 175680, Note_on_c, 0, 67, 60
2, 175868, Note_off_c, 0, 65, 0
2, 175868, Note_off_c, 0, 67, 0
2, 176064, Note_on_c, 0, 65, 60
2, 176064, Note_on_c, 0, 67, 60
2, 176252, Note_off_c, 0, 65, 0
2, 176252, Note_off_c, 0, 67, 0
2, 176256, Note_on_c, 0, 63, 90
2, 176256, Note_on_c, 0, 67, 90
2, 176444, Note_off_c, 0, 63, 0
2, 176444, Note_off_c, 0, 67, 0
2, 176448, Note_on_c, 0, 63, 90
2, 176448, Note_on_c, 0, 67, 90
2, 176636, Note_off_c, 0, 63, 0
2, 176636, Note_off_c, 0, 67, 0
2, 176832, Note_on_c, 0, 63, 60
2, 176832, Note_on_c, 0, 67, 60
2, 177020, Note_off_c, 0, 63, 0
2, 177020, Note_off_c, 0, 67, 0
2, 177216, Note_on_c, 0, 63, 60
2, 177216, Note_on_c, 0, 67, 60
2, 177404, Note_off_c, 0, 63, 0
2, 177404, Note_off_c, 0, 67, 0
2, 177408, Note_on_c, 0, 63, 90
2, 177408, Note_on_c, 0, 68, 90
2, 177596, Note_off_c, 0, 63, 0
2, 177596, Note_off_c, 0, 68, 0
2, 177600, Note_on_c, 0, 68, 90
2, 177600, Note_on_c, 0, 63, 90
2, 177788, Note_off_c, 0, 68, 0
2, 177788, Note_off_c, 0, 63, 0
2, 177984, Note_on_c, 0, 68, 60
2, 177984, Note_on_c, 0, 63, 60
2, 178172, Note_off_c, 0, 68, 0
2, 178172, Note_off_c, 0, 63, 0
2, 178368, Note_on_c, 0, 68, 60
2, 178368, Note_on_c, 0, 63, 60
2, 178556, Note_off_c, 0, 68, 0
2, 178556, Note_off_c, 0, 63, 0
2, 178560, Note_on_c, 0, 68, 90
2, 178560, Note_on_c, 0, 62, 90
2, 178748, Note_off_c, 0, 68, 0
2, 178748, Note_off_c, 0, 62, 0
2, 178752, Note_on_c, 0, 62, 90
2, 178752, Note_on_c, 0, 68, 90
2, 178940, Note_off_c, 0, 62, 0
2, 178940, Note_off_c, 0, 68, 0
2, 179136, Note_on_c, 0, 68, 60
2, 179136, Note_on_c, 0, 62, 60
2, 179324, Note_off_c, 0, 68, 0
2, 179324, Note_off_c, 0, 62, 0
2, 179520, Note_on_c, 0, 68, 60
2, 179520, Note_on_c, 0, 62, 60
2, 179708, Note_off_c, 0, 68, 0
2, 179708, Note_off_c, 0, 62, 0
2, 179712, Note_on_c, 0, 62, 90
2, 179712, Note_on_c, 0, 67, 90
2, 179900, Note_off_c, 0, 62, 0
2, 179900, Note_off_c, 0, 67, 0
2, 179904, Note_on_c, 0, 67, 90
2, 179904, Note_on_c, 0, 62, 90
2, 180092, Note_off_c, 0, 67, 0
2, 180092, Note_off_c, 0, 62, 0
2, 180288, Note_on_c, 0, 67, 60
2, 180288, Note_on_c, 0, 62, 60
2, 180476, Note_off_c, 0, 67, 0
2, 180476, Note_off_c, 0, 62, 0
2, 180672, Note_on_c, 0, 67, 60
2, 180672, Note_on_c, 0, 62, 60
2, 180860, Note_off_c, 0, 67, 0
2, 180860, Note_off_c, 0, 62, 0
2, 180864, Note_on_c, 0, 67, 90
2, 180864, Note_on_c, 0, 60, 90
2, 181052, Note_off_c, 0, 67, 0
2, 181052, Note_off_c, 0, 60, 0
2, 181056, Note_on_c, 0, 67, 90
2, 181056, Note_on_c, 0, 60, 90
2, 181244, Note_off_c, 0, 67, 0
2, 181244, Note_off_c, 0, 60, 0
2, 181440, Note_on_c, 0, 67, 60
2, 181440, Note_on_c, 0, 60, 60
2, 181628, Note_off_c, 0, 67, 0
2, 181628, Note_off_c, 0, 60, 0
2, 181632, Note_on_c, 0, 65, 90
2, 181632, Note_on_c, 0, 60, 90
2, 181820, Note_off_c, 0, 65, 0
2, 181820, Note_off_c, 0, 60, 0
2, 181824, Note_on_c, 0, 65, 90
2, 181824, Note_on_c, 0, 60, 90
2, 182012, Note_off_c, 0, 65, 0
2, 182012, Note_off_c, 0, 60, 0
2, 182208, Note_on_c, 0, 65, 60
2, 182208, Note_on_c, 0, 60, 60
2, 182396, Note_off_c, 0, 65, 0
2, 182396, Note_off_c, 0, 60, 0
2, 182400, Note_on_c, 0, 65, 90
2, 182400, Note_on_c, 0, 59, 90
2, 182588, Note_off_c, 0, 65, 0
2, 182588, Note_off_c, 0, 59, 0
2, 182592, Note_on_c, 0, 65, 90
2, 182592, Note_on_c, 0, 59, 90
2, 182780, Note_off_c, 0, 65, 0
2, 182780, Note_off_c, 0, 59, 0
2, 182976, Note_on_c, 0, 65, 60
2, 182976, Note_on_c, 0, 59, 60
2, 183164, Note_off_c, 0, 65, 0
2, 183164, Note_off_c, 0, 59, 0
2, 183360, Note_on_c, 0, 63, 60
2, 183360, Note_on_c, 0, 60, 60
2, 183548, Note_off_c, 0, 63, 0
2, 183548, Note_off_c, 0, 60, 0
2, 183744, Note_on_c, 0, 63, 60
2, 183744, Note_on_c, 0, 60, 60
2, 183932, Note_off_c, 0, 63, 0
2, 183932, Note_off_c, 0, 60, 0
2, 184128, Note_on_c, 0, 63, 60
2, 184128, Note_on_c, 0, 60, 60
2, 184316, Note_off_c, 0, 63, 0
2, 184316, Note_off_c, 0, 60, 0
2, 184320, Note_on_c, 0, 62, 60
2, 184320, Note_on_c, 0, 59, 60
2, 184508, Note_off_c, 0, 62, 0
2, 184508, Note_off_c, 0, 59, 0
2, 184512, Note_on_c, 0, 63, 60
2, 184512, Note_on_c, 0, 67, 60
2, 184700, Note_off_c, 0, 63, 0
2, 184700, Note_off_c, 0, 67, 0
2, 184704, Note_on_c, 0, 65, 60
2, 184704, Note_on_c, 0, 62, 60
2, 184892, Note_off_c, 0, 65, 0
2, 184892, Note_off_c, 0, 62, 0
2, 184896, Note_on_c, 0, 63, 60
2, 184896, Note_on_c, 0, 60, 60
2, 185084, Note_off_c, 0, 63, 0
2, 185084, Note_off_c, 0, 60, 0
2, 185088, Note_on_c, 0, 62, 60
2, 185088, Note_on_c, 0, 59, 60
2, 185276, Note_off_c, 0, 62, 0
2, 185276, Note_off_c, 0, 59, 0
2, 185280, Note_on_c, 0, 63, 60
2, 185280, Note_on_c, 0, 60, 60
2, 185468, Note_off_c, 0, 63, 0
2, 185468, Note_off_c, 0, 60, 0
2, 185472, Note_on_c, 0, 62, 60
2, 185472, Note_on_c, 0, 59, 60
2, 185660, Note_off_c, 0, 62, 0
2, 185660, Note_off_c, 0, 59, 0
2, 185664, Note_on_c, 0, 63, 60
2, 185664, Note_on_c, 0, 67, 60
2, 185852, Note_off_c, 0, 63, 0
2, 185852, Note_off_c, 0, 67, 0
2, 185856, Note_on_c, 0, 65, 60
2, 185856, Note_on_c, 0, 62, 60
2, 186044, Note_off_c, 0, 65, 0
2, 186044, Note_off_c, 0, 62, 0
2, 186048, Note_on_c, 0, 63, 60
2, 186048, Note_on_c, 0, 60, 60
2, 186236, Note_off_c, 0, 63, 0
2, 186236, Note_off_c, 0, 60, 0
2, 186240, Note_on_c, 0, 62, 60
2, 186240, Note_on_c, 0, 59, 60
2, 186428, Note_off_c, 0, 62, 0
2, 186428, Note_off_c, 0, 59, 0
2, 186432, Note_on_c, 0, 63, 60
2, 186432, Note_on_c, 0, 60, 60
2, 186620, Note_off_c, 0, 63, 0
2, 186620, Note_off_c, 0, 60, 0
2, 186624, Note_on_c, 0, 62, 60
2, 186624, Note_on_c, 0, 59, 60
2, 186812, Note_off_c, 0, 62, 0
2, 186812, Note_off_c, 0, 59, 0
2, 186816, Note_on_c, 0, 63, 60
2, 186816, Note_on_c, 0, 60, 60
2, 187004, Note_off_c, 0, 63, 0
2, 187004, Note_off_c, 0, 60, 0
2, 187008, Note_on_c, 0, 62, 60
2, 187008, Note_on_c, 0, 59, 60
2, 187196, Note_off_c, 0, 62, 0
2, 187196, Note_off_c, 0, 59, 0
2, 187200, Note_on_c, 0, 63, 60
2, 187200, Note_on_c, 0, 60, 60
2, 187388, Note_off_c, 0, 63, 0
2, 187388, Note_off_c, 0, 60, 0
2, 187392, Note_on_c, 0, 62, 60
2, 187392, Note_on_c, 0, 59, 60
2, 187580, Note_off_c, 0, 62, 0
2, 187580, Note_off_c, 0, 59, 0
2, 187584, Note_on_c, 0, 63, 60
2, 187584, Note_on_c, 0, 60, 60
2, 187772, Note_off_c, 0, 63, 0
2, 187772, Note_off_c, 0, 60, 0
2, 187776, Note_on_c, 0, 62, 60
2, 187776, Note_on_c, 0, 59, 60
2, 187964, Note_off_c, 0, 62, 0
2, 187964, Note_off_c, 0, 59, 0
2, 187968, Note_on_c, 0, 61, 60
2, 187968, Note_on_c, 0, 58, 60
2, 188156, Note_off_c, 0, 61, 0
2, 188156, Note_off_c, 0, 58, 0
2, 188160, Note_on_c, 0, 62, 60
2, 188160, Note_on_c, 0, 59, 60
2, 188348, Note_off_c, 0, 62, 0
2, 188348, Note_off_c, 0, 59, 0
2, 188352, Note_on_c, 0, 64, 60
2, 188352, Note_on_c, 0, 61, 60
2, 188540, Note_off_c, 0, 64, 0
2, 188540, Note_off_c, 0, 61, 0
2, 188544, Note_on_c, 0, 65, 60
2, 188544, Note_on_c, 0, 62, 60
2, 188732, Note_off_c, 0, 65, 0
2, 188732, Note_off_c, 0, 62, 0
2, 188736, Note_on_c, 0, 67, 60
2, 188736, Note_on_c, 0, 64, 60
2, 188924, Note_off_c, 0, 67, 0
2, 188924, Note_off_c, 0, 64, 0
2, 188928, Note_on_c, 0, 69, 82
2, 188928, Note_on_c, 0, 65, 82
2, 189308, Note_off_c, 0, 69, 0
2, 189308, Note_off_c, 0, 65, 0
2, 189312, Note_on_c, 0, 69, 60
2, 189312, Note_on_c, 0, 65, 60
2, 189312, Note_on_c, 0, 60, 60
2, 189692, Note_off_c, 0, 69, 0
2, 189692, Note_off_c, 0, 65, 0
2, 189692, Note_off_c, 0, 60, 0
2, 189696, Note_on_c, 0, 65, 60
2, 189696, Note_on_c, 0, 60, 60
2, 189696, Note_on_c, 0, 69, 60
2, 190076, Note_off_c, 0, 65, 0
2, 190076, Note_off_c, 0, 60, 0
2, 190076, Note_off_c, 0, 69, 0
2, 190080, Note_on_c, 0, 69, 60
2, 190080, Note_on_c, 0, 65, 60
2, 190080, Note_on_c, 0, 60, 60
2, 190844, Note_off_c, 0, 69, 0
2, 190844, Note_off_c, 0, 65, 0
2, 190848, Note_on_c, 0, 67, 60
2, 190848, Note_on_c, 0, 64, 60
2, 191228, Note_off_c, 0, 60, 0
2, 191228, Note_off_c, 0, 67, 0
2, 191228, Note_off_c, 0, 64, 0
2, 191232, Note_on_c, 0, 67, 60
2, 191232, Note_on_c, 0, 62, 60
2, 191232, Note_on_c, 0, 59, 60
2, 191420, Note_off_c, 0, 67, 0
2, 191424, Note_on_c, 0, 65, 60
2, 191612, Note_off_c, 0, 62, 0
2, 191612, Note_off_c, 0, 59, 0
2, 191612, Note_off_c, 0, 65, 0
2, 191616, Note_on_c, 0, 65, 60
2, 191616, Note_on_c, 0, 62, 60
2, 191616, Note_on_c, 0, 59, 60
2, 191996, Note_off_c, 0, 65, 0
2, 191996, Note_off_c, 0, 62, 0
2, 191996, Note_off_c, 0, 59, 0
2, 192000, Note_on_c, 0, 65, 60
2, 192000, Note_on_c, 0, 62, 60
2, 192000, Note_on_c, 0, 59, 60
2, 192380, Note_off_c, 0, 65, 0
2, 192380, Note_off_c, 0, 62, 0
2, 192380, Note_off_c, 0, 59, 0
2, 192384, Note_on_c, 0, 65, 60
2, 192384, Note_on_c, 0, 62, 60
2, 192384, Note_on_c, 0, 59, 60
2, 193148, Note_off_c, 0, 65, 0
2, 193148, Note_off_c, 0, 62, 0
2, 193148, Note_off_c, 0, 59, 0
2, 193152, Note_on_c, 0, 64, 60
2, 193152, Note_on_c, 0, 60, 60
2, 193532, Note_off_c, 0, 64, 0
2, 193532, Note_off_c, 0, 60, 0
2, 193536, Note_on_c, 0, 67, 60
2, 193536, Note_on_c, 0, 64, 60
2, 193724, Note_off_c, 0, 67, 0
2, 193724, Note_off_c, 0, 64, 0
2, 193728, Note_on_c, 0, 65, 60
2, 193728, Note_on_c, 0, 62, 60
2, 193916, Note_off_c, 0, 65, 0
2, 193916, Note_off_c, 0, 62, 0
2, 193920, Note_on_c, 0, 64, 60
2, 193920, Note_on_c, 0, 60, 60
2, 194300, Note_off_c, 0, 64, 0
2, 194300, Note_off_c, 0, 60, 0
2, 194304, Note_on_c, 0, 62, 60
2, 194304, Note_on_c, 0, 59, 60
2, 194684, Note_off_c, 0, 62, 0
2, 194684, Note_off_c, 0, 59, 0
2, 194688, Note_on_c, 0, 64, 60
2, 194688, Note_on_c, 0, 60, 60
2, 194876, Note_off_c, 0, 64, 0
2, 194876, Note_off_c, 0, 60, 0
2, 194880, Note_on_c, 0, 72, 60
2, 195068, Note_off_c, 0, 72, 0
2, 195072, Note_on_c, 0, 74, 60
2, 195260, Note_off_c, 0, 74, 0
2, 195264, Note_on_c, 0, 76, 60
2, 195452, Note_off_c, 0, 76, 0
2, 195456, Note_on_c, 0, 77, 60
2, 195644, Note_off_c, 0, 77, 0
2, 195648, Note_on_c, 0, 79, 60
2, 195836, Note_off_c, 0, 79, 0
2, 195840, Note_on_c, 0, 81, 82
2, 196220, Note_off_c, 0, 81, 0
2, 196224, Note_on_c, 0, 81, 60
2, 196604, Note_off_c, 0, 81, 0
2, 196608, Note_on_c, 0, 81, 60
2, 196988, Note_off_c, 0, 81, 0
2, 196992, Note_on_c, 0, 81, 60
2, 197564, Note_off_c, 0, 81, 0
2, 197568, Note_on_c, 0, 83, 60
2, 197660, Note_off_c, 0, 83, 0
2, 197664, Note_on_c, 0, 81, 60
2, 197756, Note_off_c, 0, 81, 0
2, 197760, Note_on_c, 0, 79, 60
2, 198140, Note_off_c, 0, 79, 0
2, 198144, Note_on_c, 0, 71, 60
2, 198144, Note_on_c, 0, 79, 60
2, 198332, Note_off_c, 0, 79, 0
2, 198336, Note_on_c, 0, 77, 60
2, 198524, Note_off_c, 0, 71, 0
2, 198524, Note_off_c, 0, 77, 0
2, 198528, Note_on_c, 0, 71, 60
2, 198528, Note_on_c, 0, 77, 60
2, 198908, Note_off_c, 0, 71, 0
2, 198908, Note_off_c, 0, 77, 0
2, 198912, Note_on_c, 0, 71, 60
2, 198912, Note_on_c, 0, 77, 60
2, 199292, Note_off_c, 0, 71, 0
2, 199292, Note_off_c, 0, 77, 0
2, 199296, Note_on_c, 0, 77, 60
2, 199296, Note_on_c, 0, 71, 60
2, 200060, Note_off_c, 0, 77, 0
2, 200060, Note_off_c, 0, 71, 0
2, 200064, Note_on_c, 0, 76, 60
2, 200064, Note_on_c, 0, 72, 60
2, 200444, Note_off_c, 0, 76, 0
2, 200444, Note_off_c, 0, 72, 0
2, 200448, Note_on_c, 0, 79, 60
2, 200448, Note_on_c, 0, 76, 60
2, 200636, Note_off_c, 0, 79, 0
2, 200636, Note_off_c, 0, 76, 0
2, 200640, Note_on_c, 0, 77, 60
2, 200640, Note_on_c, 0, 74, 60
2, 200828, Note_off_c, 0, 77, 0
2, 200828, Note_off_c, 0, 74, 0
2, 200832, Note_on_c, 0, 76, 60
2, 200832, Note_on_c, 0, 72, 60
2, 201212, Note_off_c, 0, 76, 0
2, 201212, Note_off_c, 0, 72, 0
2, 201216, Note_on_c, 0, 74, 60
2, 201216, Note_on_c, 0, 71, 60
2, 201596, Note_off_c, 0, 74, 0
2, 201596, Note_off_c, 0, 71, 0
2, 201600, Note_on_c, 0, 76, 90
2, 201600, Note_on_c, 0, 79, 90
2, 201788, Note_off_c, 0, 76, 0
2, 201788, Note_off_c, 0, 79, 0
2, 201792, Note_on_c, 0, 79, 90
2, 201792, Note_on_c, 0, 76, 90
2, 201980, Note_off_c, 0, 79, 0
2, 201980, Note_off_c, 0, 76, 0
2, 202176, Note_on_c, 0, 77, 60
2, 202176, Note_on_c, 0, 74, 60
2, 202364, Note_off_c, 0, 77, 0
2, 202364, Note_off_c, 0, 74, 0
2, 202560, Note_on_c, 0, 76, 60
2, 202560, Note_on_c, 0, 72, 60
2, 202748, Note_off_c, 0, 76, 0
2, 202748, Note_off_c, 0, 72, 0
2, 202944, Note_on_c, 0, 74, 60
2, 202944, Note_on_c, 0, 65, 60
2, 203132, Note_off_c, 0, 74, 0
2, 203132, Note_off_c, 0, 65, 0
2, 203328, Note_on_c, 0, 72, 60
2, 203328, Note_on_c, 0, 64, 60
2, 203516, Note_off_c, 0, 72, 0
2, 203516, Note_off_c, 0, 64, 0
2, 203712, Note_on_c, 0, 71, 60
2, 203712, Note_on_c, 0, 62, 60
2, 203900, Note_off_c, 0, 71, 0
2, 203900, Note_off_c, 0, 62, 0
2, 204000, Note_on_c, 0, 76, 90
2, 204092, Note_off_c, 0, 76, 0
2, 204096, Note_on_c, 0, 79, 90
2, 204188, Note_off_c, 0, 79, 0
2, 204192, Note_on_c, 0, 76, 90
2, 204284, Note_off_c, 0, 76, 0
2, 204384, Note_on_c, 0, 74, 90
2, 204476, Note_off_c, 0, 74, 0
2, 204480, Note_on_c, 0, 77, 90
2, 204572, Note_off_c, 0, 77, 0
2, 204576, Note_on_c, 0, 74, 90
2, 204668, Note_off_c, 0, 74, 0
2, 204768, Note_on_c, 0, 72, 90
2, 204860, Note_off_c, 0, 72, 0
2, 204864, Note_on_c, 0, 76, 90
2, 204956, Note_off_c, 0, 76, 0
2, 204960, Note_on_c, 0, 72, 90
2, 205052, Note_off_c, 0, 72, 0
2, 205152, Note_on_c, 0, 65, 90
2, 205244, Note_off_c, 0, 65, 0
2, 205248, Note_on_c, 0, 74, 90
2, 205340, Note_off_c, 0, 74, 0
2, 205344, Note_on_c, 0, 65, 90
2, 205436, Note_off_c, 0, 65, 0
2, 205536, Note_on_c, 0, 64, 90
2, 205628, Note_off_c, 0, 64, 0
2, 205632, Note_on_c, 0, 72, 90
2, 205724, Note_off_c, 0, 72, 0
2, 205728, Note_on_c, 0, 64, 90
2, 205820, Note_off_c, 0, 64, 0
2, 205920, Note_on_c, 0, 62, 90
2, 206012, Note_off_c, 0, 62, 0
2, 206016, Note_on_c, 0, 71, 90
2, 206108, Note_off_c, 0, 71, 0
2, 206112, Note_on_c, 0, 62, 90
2, 206204, Note_off_c, 0, 62, 0
2, 206208, Note_on_c, 0, 72, 90
2, 206208, Note_on_c, 0, 67, 90
2, 206208, Note_on_c, 0, 64, 90
2, 206588, Note_off_c, 0, 72, 0
2, 206588, Note_off_c, 0, 67, 0
2, 206588, Note_off_c, 0, 64, 0
2, 206976, Note_on_c, 0, 77, 90
2, 207020, Note_off_c, 0, 77, 0
2, 207024, Note_on_c, 0, 76, 90
2, 207068, Note_off_c, 0, 76, 0
2, 207072, Note_on_c, 0, 77, 90
2, 207116, Note_off_c, 0, 77, 0
2, 207120, Note_on_c, 0, 76, 90
2, 207164, Note_off_c, 0, 76, 0
2, 207168, Note_on_c, 0, 74, 90
2, 207212, Note_off_c, 0, 74, 0
2, 207216, Note_on_c, 0, 76, 90
2, 207260, Note_off_c, 0, 76, 0
2, 207264, Note_on_c, 0, 74, 90
2, 207308, Note_off_c, 0, 74, 0
2, 207312, Note_on_c, 0, 72, 90
2, 207356, Note_off_c, 0, 72, 0
2, 207360, Note_on_c, 0, 79, 90
2, 208124, Note_off_c, 0, 79, 0
2, 208128, Note_on_c, 0, 84, 90
2, 208172, Note_off_c, 0, 84, 0
2, 208176, Note_on_c, 0, 83, 90
2, 208220, Note_off_c, 0, 83, 0
2, 208224, Note_on_c, 0, 84, 90
2, 208268, Note_off_c, 0, 84, 0
2, 208272, Note_on_c, 0, 83, 90
2, 208316, Note_off_c, 0, 83, 0
2, 208320, Note_on_c, 0, 81, 90
2, 208364, Note_off_c, 0, 81, 0
2, 208368, Note_on_c, 0, 83, 90
2, 208412, Note_off_c, 0, 83, 0
2, 208416, Note_on_c, 0, 81, 90
2, 208460, Note_off_c, 0, 81, 0
2, 208464, Note_on_c, 0, 79, 90
2, 208508, Note_off_c, 0, 79, 0
2, 208512, Note_on_c, 0, 84, 90
2, 209264, Note_on_c, 0, 77, 90
2, 209276, Note_off_c, 0, 84, 0
2, 209308, Note_off_c, 0, 77, 0
2, 209328, Note_on_c, 0, 76, 90
2, 209360, Note_on_c, 0, 77, 90
2, 209372, Note_off_c, 0, 76, 0
2, 209404, Note_off_c, 0, 77, 0
2, 209424, Note_on_c, 0, 76, 90
2, 209468, Note_off_c, 0, 76, 0
2, 209472, Note_on_c, 0, 74, 90
2, 209516, Note_off_c, 0, 74, 0
2, 209520, Note_on_c, 0, 76, 90
2, 209564, Note_off_c, 0, 76, 0
2, 209568, Note_on_c, 0, 74, 90
2, 209612, Note_off_c, 0, 74, 0
2, 209616, Note_on_c, 0, 72, 90
2, 209660, Note_off_c, 0, 72, 0
2, 209664, Note_on_c, 0, 79, 90
2, 210044, Note_off_c, 0, 79, 0
2, 210048, Note_on_c, 0, 79, 90
2, 210428, Note_off_c, 0, 79, 0
2, 210432, Note_on_c, 0, 84, 90
2, 210476, Note_off_c, 0, 84, 0
2, 210480, Note_on_c, 0, 83, 90
2, 210512, Note_on_c, 0, 84, 90
2, 210524, Note_off_c, 0, 83, 0
2, 210556, Note_off_c, 0, 84, 0
2, 210576, Note_on_c, 0, 83, 90
2, 210620, Note_off_c, 0, 83, 0
2, 210624, Note_on_c, 0, 81, 90
2, 210668, Note_off_c, 0, 81, 0
2, 210672, Note_on_c, 0, 83, 90
2, 210716, Note_off_c, 0, 83, 0
2, 210720, Note_on_c, 0, 81, 90
2, 210764, Note_off_c, 0, 81, 0
2, 210768, Note_on_c, 0, 79, 90
2, 210812, Note_off_c, 0, 79, 0
2, 210816, Note_on_c, 0, 84, 90
2, 211196, Note_off_c, 0, 84, 0
2, 211200, Note_on_c, 0, 88, 97
2, 211772, Note_off_c, 0, 88, 0
2, 211776, Note_on_c, 0, 80, 90
2, 211964, Note_off_c, 0, 80, 0
2, 211968, Note_on_c, 0, 81, 90
2, 212348, Note_off_c, 0, 81, 0
2, 212352, Note_on_c, 0, 84, 97
2, 212924, Note_off_c, 0, 84, 0
2, 212928, Note_on_c, 0, 76, 90
2, 213116, Note_off_c, 0, 76, 0
2, 213120, Note_on_c, 0, 79, 90
2, 213164, Note_off_c, 0, 79, 0
2, 213168, Note_on_c, 0, 77, 90
2, 213212, Note_off_c, 0, 77, 0
2, 213216, Note_on_c, 0, 79, 90
2, 213260, Note_off_c, 0, 79, 0
2, 213264, Note_on_c, 0, 77, 90
2, 213308, Note_off_c, 0, 77, 0
2, 213312, Note_on_c, 0, 76, 90
2, 213356, Note_off_c, 0, 76, 0
2, 213360, Note_on_c, 0, 77, 90
2, 213404, Note_off_c, 0, 77, 0
2, 213408, Note_on_c, 0, 76, 90
2, 213452, Note_off_c, 0, 76, 0
2, 213456, Note_on_c, 0, 74, 90
2, 213500, Note_off_c, 0, 74, 0
2, 213504, Note_on_c, 0, 79, 90
2, 213884, Note_off_c, 0, 79, 0
2, 213888, Note_on_c, 0, 79, 90
2, 213888, Note_on_c, 0, 77, 90
2, 213888, Note_on_c, 0, 74, 90
2, 213888, Note_on_c, 0, 83, 90
2, 214268, Note_off_c, 0, 79, 0
2, 214268, Note_off_c, 0, 77, 0
2, 214268, Note_off_c, 0, 74, 0
2, 214268, Note_off_c, 0, 83, 0
2, 214272, Note_on_c, 0, 84, 90
2, 214272, Note_on_c, 0, 79, 90
2, 214272, Note_on_c, 0, 76, 90
2, 214652, Note_off_c, 0, 84, 0
2, 214652, Note_off_c, 0, 79, 0
2, 214652, Note_off_c, 0, 76, 0
2, 214656, Note_on_c, 0, 60, 90
2, 215036, Note_off_c, 0, 60, 0
2, 215424, Note_on_c, 0, 67, 60
2, 215424, Note_on_c, 0, 67, 60
2, 215804, Note_off_c, 0, 67, 0
2, 215808, Note_on_c, 0, 72, 60
2, 216188, Note_off_c, 0, 72, 0
2, 216192, Note_on_c, 0, 76, 60
2, 216572, Note_off_c, 0, 67, 0
2, 216572, Note_off_c, 0, 76, 0
2, 216576, Note_on_c, 0, 67, 97
2, 216576, Note_on_c, 0, 76, 97
2, 216576, Note_on_c, 0, 72, 97
2, 217340, Note_off_c, 0, 76, 0
2, 217340, Note_off_c, 0, 72, 0
2, 217344, Note_on_c, 0, 74, 60
2, 217344, Note_on_c, 0, 71, 60
2, 217724, Note_off_c, 0, 67, 0
2, 217724, Note_off_c, 0, 74, 0
2, 217724, Note_off_c, 0, 71, 0
2, 217728, Note_on_c, 0, 79, 60
2, 218108, Note_off_c, 0, 79, 0
2, 218112, Note_on_c, 0, 72, 60
2, 218112, Note_on_c, 0, 67, 60
2, 218492, Note_off_c, 0, 72, 0
2, 218496, Note_on_c, 0, 76, 60
2, 218876, Note_off_c, 0, 67, 0
2, 218876, Note_off_c, 0, 76, 0
2, 218880, Note_on_c, 0, 76, 97
2, 218880, Note_on_c, 0, 72, 97
2, 218880, Note_on_c, 0, 67, 97
2, 219644, Note_off_c, 0, 76, 0
2, 219644, Note_off_c, 0, 72, 0
2, 219648, Note_on_c, 0, 74, 60
2, 219648, Note_on_c, 0, 71, 60
2, 220028, Note_off_c, 0, 67, 0
2, 220028, Note_off_c, 0, 74, 0
2, 220028, Note_off_c, 0, 71, 0
2, 220032, Note_on_c, 0, 69, 60
2, 220412, Note_off_c, 0, 69, 0
2, 220416, Note_on_c, 0, 74, 60
2, 220796, Note_off_c, 0, 74, 0
2, 220800, Note_on_c, 0, 77, 60
2, 221180, Note_off_c, 0, 77, 0
2, 221184, Note_on_c, 0, 76, 60
2, 221564, Note_off_c, 0, 76, 0
2, 221568, Note_on_c, 0, 74, 60
2, 221948, Note_off_c, 0, 74, 0
2, 221952, Note_on_c, 0, 81, 97
2, 222332, Note_off_c, 0, 81, 0
2, 222336, Note_on_c, 0, 81, 60
2, 222716, Note_off_c, 0, 81, 0
2, 222720, Note_on_c, 0, 79, 60
2, 223100, Note_off_c, 0, 79, 0
2, 223104, Note_on_c, 0, 71, 60
2, 223484, Note_off_c, 0, 71, 0
2, 223488, Note_on_c, 0, 72, 60
2, 223676, Note_off_c, 0, 72, 0
2, 223680, Note_on_c, 0, 67, 60
2, 223868, Note_off_c, 0, 67, 0
2, 223872, Note_on_c, 0, 64, 60
2, 224060, Note_off_c, 0, 64, 0
2, 224064, Note_on_c, 0, 67, 60
2, 224252, Note_off_c, 0, 67, 0
2, 224256, Note_on_c, 0, 65, 60
2, 224444, Note_off_c, 0, 65, 0
2, 224448, Note_on_c, 0, 62, 60
2, 224636, Note_off_c, 0, 62, 0
2, 224640, Note_on_c, 0, 60, 60
2, 224924, Note_off_c, 0, 60, 0
2, 224928, Note_on_c, 0, 55, 60
2, 225020, Note_off_c, 0, 55, 0
2, 225024, Note_on_c, 0, 60, 60
2, 225404, Note_off_c, 0, 60, 0
2, 225408, Note_on_c, 0, 64, 60
2, 225788, Note_off_c, 0, 64, 0
2, 225792, Note_on_c, 0, 64, 97
2, 225792, Note_on_c, 0, 60, 97
2, 226556, Note_off_c, 0, 64, 0
2, 226556, Note_off_c, 0, 60, 0
2, 226560, Note_on_c, 0, 62, 60
2, 226560, Note_on_c, 0, 59, 60
2, 226940, Note_off_c, 0, 62, 0
2, 226940, Note_off_c, 0, 59, 0
2, 226944, Note_on_c, 0, 67, 60
2, 227324, Note_off_c, 0, 67, 0
2, 227328, Note_on_c, 0, 60, 60
2, 227344, Note_on_c, 0, 55, 60
2, 227708, Note_off_c, 0, 60, 0
2, 227712, Note_on_c, 0, 64, 60
2, 228092, Note_off_c, 0, 64, 0
2, 228096, Note_on_c, 0, 64, 97
2, 228096, Note_on_c, 0, 60, 97
2, 228108, Note_off_c, 0, 55, 0
2, 228860, Note_off_c, 0, 64, 0
2, 228860, Note_off_c, 0, 60, 0
2, 228864, Note_on_c, 0, 62, 60
2, 228864, Note_on_c, 0, 59, 60
2, 229244, Note_off_c, 0, 62, 0
2, 229244, Note_off_c, 0, 59, 0
2, 229248, Note_on_c, 0, 57, 60
2, 229628, Note_off_c, 0, 57, 0
2, 229632, Note_on_c, 0, 62, 60
2, 230012, Note_off_c, 0, 62, 0
2, 230016, Note_on_c, 0, 65, 60
2, 230396, Note_off_c, 0, 65, 0
2, 230400, Note_on_c, 0, 64, 60
2, 230780, Note_off_c, 0, 64, 0
2, 230784, Note_on_c, 0, 62, 60
2, 231164, Note_off_c, 0, 62, 0
2, 231168, Note_on_c, 0, 69, 97
2, 231548, Note_off_c, 0, 69, 0
2, 231552, Note_on_c, 0, 69, 60
2, 231932, Note_off_c, 0, 69, 0
2, 231936, Note_on_c, 0, 67, 60
2, 232316, Note_off_c, 0, 67, 0
2, 232336, Note_on_c, 0, 59, 60
2, 232704, Note_on_c, 0, 60, 60
2, 232716, Note_off_c, 0, 59, 0
2, 232892, Note_off_c, 0, 60, 0
2, 232896, Note_on_c, 0, 67, 60
2, 233084, Note_off_c, 0, 67, 0
2, 233280, Note_on_c, 0, 67, 60
2, 233468, Note_off_c, 0, 67, 0
2, 233664, Note_on_c, 0, 67, 60
2, 233852, Note_off_c, 0, 67, 0
2, 233856, Note_on_c, 0, 65, 60
2, 233856, Note_on_c, 0, 67, 60
2, 234044, Note_off_c, 0, 65, 0
2, 234044, Note_off_c, 0, 67, 0
2, 234048, Note_on_c, 0, 65, 60
2, 234048, Note_on_c, 0, 67, 60
2, 234236, Note_off_c, 0, 65, 0
2, 234236, Note_off_c, 0, 67, 0
2, 234432, Note_on_c, 0, 65, 60
2, 234432, Note_on_c, 0, 67, 60
2, 234620, Note_off_c, 0, 65, 0
2, 234620, Note_off_c, 0, 67, 0
2, 234816, Note_on_c, 0, 65, 60
2, 234816, Note_on_c, 0, 67, 60
2, 235004, Note_off_c, 0, 65, 0
2, 235004, Note_off_c, 0, 67, 0
2, 235008, Note_on_c, 0, 63, 60
2, 235008, Note_on_c, 0, 67, 60
2, 235196, Note_off_c, 0, 63, 0
2, 235196, Note_off_c, 0, 67, 0
2, 235200, Note_on_c, 0, 63, 60
2, 235200, Note_on_c, 0, 67, 60
2, 235388, Note_off_c, 0, 63, 0
2, 235388, Note_off_c, 0, 67, 0
2, 235584, Note_on_c, 0, 63, 60
2, 235584, Note_on_c, 0, 67, 60
2, 235772, Note_off_c, 0, 63, 0
2, 235772, Note_off_c, 0, 67, 0
2, 235968, Note_on_c, 0, 63, 60
2, 235984, Note_on_c, 0, 67, 60
2, 236156, Note_off_c, 0, 63, 0
2, 236160, Note_on_c, 0, 65, 60
2, 236160, Note_on_c, 0, 67, 60
2, 236172, Note_off_c, 0, 67, 0
2, 236348, Note_off_c, 0, 65, 0
2, 236348, Note_off_c, 0, 67, 0
2, 236352, Note_on_c, 0, 65, 60
2, 236368, Note_on_c, 0, 67, 60
2, 236540, Note_off_c, 0, 65, 0
2, 236556, Note_off_c, 0, 67, 0
2, 236736, Note_on_c, 0, 65, 60
2, 236736, Note_on_c, 0, 67, 60
2, 236924, Note_off_c, 0, 65, 0
2, 236924, Note_off_c, 0, 67, 0
2, 237120, Note_on_c, 0, 65, 60
2, 237120, Note_on_c, 0, 67, 60
2, 237308, Note_off_c, 0, 65, 0
2, 237308, Note_off_c, 0, 67, 0
2, 237312, Note_on_c, 0, 63, 90
2, 237312, Note_on_c, 0, 67, 90
2, 237500, Note_off_c, 0, 63, 0
2, 237500, Note_off_c, 0, 67, 0
2, 237504, Note_on_c, 0, 63, 90
2, 237504, Note_on_c, 0, 67, 90
2, 237692, Note_off_c, 0, 63, 0
2, 237692, Note_off_c, 0, 67, 0
2, 237888, Note_on_c, 0, 63, 60
2, 237888, Note_on_c, 0, 67, 60
2, 238076, Note_off_c, 0, 63, 0
2, 238076, Note_off_c, 0, 67, 0
2, 238272, Note_on_c, 0, 63, 60
2, 238272, Note_on_c, 0, 67, 60
2, 238460, Note_off_c, 0, 63, 0
2, 238460, Note_off_c, 0, 67, 0
2, 238464, Note_on_c, 0, 66, 90
2, 238464, Note_on_c, 0, 63, 90
2, 238464, Note_on_c, 0, 60, 90
2, 238652, Note_off_c, 0, 66, 0
2, 238652, Note_off_c, 0, 63, 0
2, 238652, Note_off_c, 0, 60, 0
2, 238656, Note_on_c, 0, 60, 90
2, 238656, Note_on_c, 0, 66, 90
2, 238656, Note_on_c, 0, 63, 90
2, 238844, Note_off_c, 0, 60, 0
2, 238844, Note_off_c, 0, 66, 0
2, 238844, Note_off_c, 0, 63, 0
2, 239040, Note_on_c, 0, 66, 60
2, 239040, Note_on_c, 0, 63, 60
2, 239040, Note_on_c, 0, 60, 60
2, 239228, Note_off_c, 0, 66, 0
2, 239228, Note_off_c, 0, 63, 0
2, 239228, Note_off_c, 0, 60, 0
2, 239424, Note_on_c, 0, 66, 60
2, 239424, Note_on_c, 0, 63, 60
2, 239424, Note_on_c, 0, 60, 60
2, 239612, Note_off_c, 0, 66, 0
2, 239612, Note_off_c, 0, 63, 0
2, 239612, Note_off_c, 0, 60, 0
2, 239616, Note_on_c, 0, 62, 90
2, 239616, Note_on_c, 0, 67, 90
2, 239804, Note_off_c, 0, 62, 0
2, 239804, Note_off_c, 0, 67, 0
2, 239808, Note_on_c, 0, 62, 90
2, 239808, Note_on_c, 0, 67, 90
2, 239996, Note_off_c, 0, 62, 0
2, 239996, Note_off_c, 0, 67, 0
2, 240192, Note_on_c, 0, 67, 60
2, 240192, Note_on_c, 0, 62, 60
2, 240380, Note_off_c, 0, 67, 0
2, 240380, Note_off_c, 0, 62, 0
2, 240576, Note_on_c, 0, 67, 60
2, 240576, Note_on_c, 0, 62, 60
2, 240764, Note_off_c, 0, 67, 0
2, 240764, Note_off_c, 0, 62, 0
2, 240768, Note_on_c, 0, 72, 90
2, 240768, Note_on_c, 0, 69, 90
2, 240768, Note_on_c, 0, 62, 90
2, 240956, Note_off_c, 0, 72, 0
2, 240956, Note_off_c, 0, 69, 0
2, 240956, Note_off_c, 0, 62, 0
2, 240960, Note_on_c, 0, 72, 90
2, 240960, Note_on_c, 0, 69, 90
2, 240960, Note_on_c, 0, 62, 90
2, 241148, Note_off_c, 0, 72, 0
2, 241148, Note_off_c, 0, 69, 0
2, 241148, Note_off_c, 0, 62, 0
2, 241344, Note_on_c, 0, 72, 60
2, 241344, Note_on_c, 0, 62, 60
2, 241344, Note_on_c, 0, 69, 60
2, 241532, Note_off_c, 0, 72, 0
2, 241532, Note_off_c, 0, 62, 0
2, 241532, Note_off_c, 0, 69, 0
2, 241728, Note_on_c, 0, 72, 60
2, 241728, Note_on_c, 0, 62, 60
2, 241728, Note_on_c, 0, 69, 60
2, 241916, Note_off_c, 0, 72, 0
2, 241916, Note_off_c, 0, 62, 0
2, 241916, Note_off_c, 0, 69, 0
2, 241920, Note_on_c, 0, 62, 90
2, 241920, Note_on_c, 0, 67, 90
2, 241920, Note_on_c, 0, 70, 90
2, 242108, Note_off_c, 0, 62, 0
2, 242108, Note_off_c, 0, 67, 0
2, 242108, Note_off_c, 0, 70, 0
2, 242112, Note_on_c, 0, 62, 90
2, 242112, Note_on_c, 0, 67, 90
2, 242112, Note_on_c, 0, 70, 90
2, 242300, Note_off_c, 0, 62, 0
2, 242300, Note_off_c, 0, 67, 0
2, 242300, Note_off_c, 0, 70, 0
2, 242496, Note_on_c, 0, 62, 60
2, 242496, Note_on_c, 0, 67, 60
2, 242496, Note_on_c, 0, 70, 60
2, 242684, Note_off_c, 0, 62, 0
2, 242684, Note_off_c, 0, 67, 0
2, 242684, Note_off_c, 0, 70, 0
2, 242880, Note_on_c, 0, 62, 60
2, 242880, Note_on_c, 0, 67, 60
2, 242880, Note_on_c, 0, 70, 60
2, 243068, Note_off_c, 0, 62, 0
2, 243068, Note_off_c, 0, 67, 0
2, 243068, Note_off_c, 0, 70, 0
2, 243072, Note_on_c, 0, 67, 90
2, 243072, Note_on_c, 0, 70, 90
2, 243072, Note_on_c, 0, 73, 90
2, 243260, Note_off_c, 0, 67, 0
2, 243260, Note_off_c, 0, 70, 0
2, 243260, Note_off_c, 0, 73, 0
2, 243264, Note_on_c, 0, 73, 90
2, 243264, Note_on_c, 0, 70, 90
2, 243264, Note_on_c, 0, 67, 90
2, 243452, Note_off_c, 0, 73, 0
2, 243452, Note_off_c, 0, 70, 0
2, 243452, Note_off_c, 0, 67, 0
2, 243648, Note_on_c, 0, 73, 60
2, 243648, Note_on_c, 0, 70, 60
2, 243648, Note_on_c, 0, 67, 60
2, 243836, Note_off_c, 0, 73, 0
2, 243836, Note_off_c, 0, 70, 0
2, 243836, Note_off_c, 0, 67, 0
2, 244032, Note_on_c, 0, 73, 60
2, 244032, Note_on_c, 0, 67, 60
2, 244032, Note_on_c, 0, 70, 60
2, 244220, Note_off_c, 0, 73, 0
2, 244220, Note_off_c, 0, 67, 0
2, 244220, Note_off_c, 0, 70, 0
2, 244224, Note_on_c, 0, 74, 90
2, 244224, Note_on_c, 0, 69, 90
2, 244412, Note_off_c, 0, 74, 0
2, 244412, Note_off_c, 0, 69, 0
2, 244416, Note_on_c, 0, 74, 90
2, 244416, Note_on_c, 0, 69, 90
2, 244604, Note_off_c, 0, 74, 0
2, 244604, Note_off_c, 0, 69, 0
2, 244800, Note_on_c, 0, 74, 60
2, 244800, Note_on_c, 0, 69, 60
2, 244988, Note_off_c, 0, 74, 0
2, 244988, Note_off_c, 0, 69, 0
2, 245184, Note_on_c, 0, 74, 60
2, 245184, Note_on_c, 0, 69, 60
2, 245372, Note_off_c, 0, 74, 0
2, 245372, Note_off_c, 0, 69, 0
2, 245376, Note_on_c, 0, 79, 90
2, 245376, Note_on_c, 0, 76, 90
2, 245376, Note_on_c, 0, 69, 90
2, 245564, Note_off_c, 0, 79, 0
2, 245564, Note_off_c, 0, 76, 0
2, 245564, Note_off_c, 0, 69, 0
2, 245568, Note_on_c, 0, 79, 90
2, 245568, Note_on_c, 0, 76, 90
2, 245568, Note_on_c, 0, 69, 90
2, 245756, Note_off_c, 0, 79, 0
2, 245756, Note_off_c, 0, 76, 0
2, 245756, Note_off_c, 0, 69, 0
2, 245952, Note_on_c, 0, 79, 60
2, 245952, Note_on_c, 0, 76, 60
2, 245952, Note_on_c, 0, 69, 60
2, 246140, Note_off_c, 0, 79, 0
2, 246140, Note_off_c, 0, 76, 0
2, 246140, Note_off_c, 0, 69, 0
2, 246336, Note_on_c, 0, 79, 60
2, 246336, Note_on_c, 0, 76, 60
2, 246336, Note_on_c, 0, 69, 60
2, 246524, Note_off_c, 0, 79, 0
2, 246524, Note_off_c, 0, 76, 0
2, 246524, Note_off_c, 0, 69, 0
2, 246528, Note_on_c, 0, 77, 90
2, 246528, Note_on_c, 0, 74, 90
2, 246528, Note_on_c, 0, 69, 90
2, 246716, Note_off_c, 0, 77, 0
2, 246716, Note_off_c, 0, 74, 0
2, 246716, Note_off_c, 0, 69, 0
2, 246720, Note_on_c, 0, 77, 90
2, 246720, Note_on_c, 0, 69, 90
2, 246720, Note_on_c, 0, 74, 90
2, 246908, Note_off_c, 0, 77, 0
2, 246908, Note_off_c, 0, 69, 0
2, 246908, Note_off_c, 0, 74, 0
2, 247104, Note_on_c, 0, 77, 60
2, 247104, Note_on_c, 0, 74, 60
2, 247104, Note_on_c, 0, 69, 60
2, 247292, Note_off_c, 0, 77, 0
2, 247292, Note_off_c, 0, 74, 0
2, 247292, Note_off_c, 0, 69, 0
2, 247488, Note_on_c, 0, 77, 60
2, 247488, Note_on_c, 0, 74, 60
2, 247488, Note_on_c, 0, 69, 60
2, 247676, Note_off_c, 0, 77, 0
2, 247676, Note_off_c, 0, 74, 0
2, 247676, Note_off_c, 0, 69, 0
2, 247680, Note_on_c, 0, 80, 90
2, 247680, Note_on_c, 0, 74, 90
2, 247868, Note_off_c, 0, 80, 0
2, 247868, Note_off_c, 0, 74, 0
2, 247872, Note_on_c, 0, 80, 90
2, 247872, Note_on_c, 0, 74, 90
2, 248060, Note_off_c, 0, 80, 0
2, 248060, Note_off_c, 0, 74, 0
2, 248256, Note_on_c, 0, 80, 60
2, 248256, Note_on_c, 0, 74, 60
2, 248444, Note_off_c, 0, 80, 0
2, 248444, Note_off_c, 0, 74, 0
2, 248640, Note_on_c, 0, 80, 60
2, 248640, Note_on_c, 0, 74, 60
2, 248828, Note_off_c, 0, 80, 0
2, 248828, Note_off_c, 0, 74, 0
2, 248832, Note_on_c, 0, 73, 60
2, 248832, Note_on_c, 0, 81, 60
2, 249020, Note_off_c, 0, 73, 0
2, 249020, Note_off_c, 0, 81, 0
2, 249024, Note_on_c, 0, 77, 60
2, 249024, Note_on_c, 0, 81, 60
2, 249212, Note_off_c, 0, 77, 0
2, 249212, Note_off_c, 0, 81, 0
2, 249216, Note_on_c, 0, 76, 60
2, 249216, Note_on_c, 0, 79, 60
2, 249404, Note_off_c, 0, 76, 0
2, 249404, Note_off_c, 0, 79, 0
2, 249408, Note_on_c, 0, 77, 60
2, 249408, Note_on_c, 0, 74, 60
2, 249596, Note_off_c, 0, 77, 0
2, 249596, Note_off_c, 0, 74, 0
2, 249600, Note_on_c, 0, 76, 60
2, 249600, Note_on_c, 0, 73, 60
2, 249788, Note_off_c, 0, 76, 0
2, 249788, Note_off_c, 0, 73, 0
2, 249792, Note_on_c, 0, 77, 60
2, 249792, Note_on_c, 0, 74, 60
2, 249792, Note_on_c, 0, 68, 60
2, 249980, Note_off_c, 0, 77, 0
2, 249980, Note_off_c, 0, 74, 0
2, 249980, Note_off_c, 0, 68, 0
2, 249984, Note_on_c, 0, 76, 60
2, 249984, Note_on_c, 0, 73, 60
2, 249984, Note_on_c, 0, 69, 60
2, 250172, Note_off_c, 0, 76, 0
2, 250172, Note_off_c, 0, 73, 0
2, 250176, Note_on_c, 0, 69, 60
2, 250176, Note_on_c, 0, 65, 60
2, 250364, Note_off_c, 0, 69, 0
2, 250364, Note_off_c, 0, 69, 0
2, 250364, Note_off_c, 0, 65, 0
2, 250368, Note_on_c, 0, 67, 60
2, 250368, Note_on_c, 0, 64, 60
2, 250556, Note_off_c, 0, 67, 0
2, 250556, Note_off_c, 0, 64, 0
2, 250560, Note_on_c, 0, 65, 60
2, 250560, Note_on_c, 0, 62, 60
2, 250748, Note_off_c, 0, 65, 0
2, 250748, Note_off_c, 0, 62, 0
2, 250752, Note_on_c, 0, 64, 60
2, 250752, Note_on_c, 0, 61, 60
2, 250940, Note_off_c, 0, 64, 0
2, 250940, Note_off_c, 0, 61, 0
2, 250944, Note_on_c, 0, 65, 60
2, 250944, Note_on_c, 0, 62, 60
2, 251132, Note_off_c, 0, 65, 0
2, 251132, Note_off_c, 0, 62, 0
2, 251136, Note_on_c, 0, 64, 60
2, 251136, Note_on_c, 0, 61, 60
2, 251324, Note_off_c, 0, 64, 0
2, 251324, Note_off_c, 0, 61, 0
2, 251328, Note_on_c, 0, 65, 60
2, 251328, Note_on_c, 0, 62, 60
2, 251516, Note_off_c, 0, 65, 0
2, 251516, Note_off_c, 0, 62, 0
2, 251520, Note_on_c, 0, 64, 60
2, 251520, Note_on_c, 0, 61, 60
2, 251708, Note_off_c, 0, 64, 0
2, 251708, Note_off_c, 0, 61, 0
2, 251712, Note_on_c, 0, 65, 60
2, 251712, Note_on_c, 0, 62, 60
2, 251900, Note_off_c, 0, 65, 0
2, 251900, Note_off_c, 0, 62, 0
2, 251904, Note_on_c, 0, 64, 60
2, 251904, Note_on_c, 0, 61, 60
2, 252092, Note_off_c, 0, 64, 0
2, 252092, Note_off_c, 0, 61, 0
2, 252096, Note_on_c, 0, 65, 60
2, 252096, Note_on_c, 0, 62, 60
2, 252284, Note_off_c, 0, 65, 0
2, 252284, Note_off_c, 0, 62, 0
2, 252288, Note_on_c, 0, 64, 60
2, 252288, Note_on_c, 0, 61, 60
2, 252668, Note_off_c, 0, 64, 0
2, 252668, Note_off_c, 0, 61, 0
2, 253440, Note_on_c, 0, 64, 45
2, 253440, Note_on_c, 0, 60, 45
2, 253628, Note_off_c, 0, 64, 0
2, 253628, Note_off_c, 0, 60, 0
2, 253632, Note_on_c, 0, 65, 45
2, 253632, Note_on_c, 0, 62, 45
2, 253820, Note_off_c, 0, 65, 0
2, 253820, Note_off_c, 0, 62, 0
2, 253824, Note_on_c, 0, 64, 45
2, 253824, Note_on_c, 0, 60, 45
2, 254012, Note_off_c, 0, 64, 0
2, 254012, Note_off_c, 0, 60, 0
2, 254016, Note_on_c, 0, 65, 45
2, 254016, Note_on_c, 0, 62, 45
2, 254204, Note_off_c, 0, 65, 0
2, 254204, Note_off_c, 0, 62, 0
2, 254208, Note_on_c, 0, 64, 45
2, 254208, Note_on_c, 0, 60, 45
2, 254396, Note_off_c, 0, 64, 0
2, 254396, Note_off_c, 0, 60, 0
2, 254400, Note_on_c, 0, 65, 45
2, 254400, Note_on_c, 0, 62, 45
2, 254588, Note_off_c, 0, 65, 0
2, 254588, Note_off_c, 0, 62, 0
2, 254592, Note_on_c, 0, 64, 45
2, 254592, Note_on_c, 0, 60, 45
2, 254972, Note_off_c, 0, 64, 0
2, 254972, Note_off_c, 0, 60, 0
2, 255744, Note_on_c, 0, 64, 90
2, 255744, Note_on_c, 0, 60, 90
2, 255744, Note_on_c, 0, 58, 90
2, 255932, Note_off_c, 0, 64, 0
2, 255936, Note_on_c, 0, 65, 90
2, 256124, Note_off_c, 0, 65, 0
2, 256144, Note_on_c, 0, 64, 90
2, 256320, Note_on_c, 0, 65, 90
2, 256332, Note_off_c, 0, 64, 0
2, 256508, Note_off_c, 0, 65, 0
2, 256512, Note_on_c, 0, 64, 90
2, 256700, Note_off_c, 0, 64, 0
2, 256704, Note_on_c, 0, 65, 90
2, 256892, Note_off_c, 0, 60, 0
2, 256892, Note_off_c, 0, 58, 0
2, 256892, Note_off_c, 0, 65, 0
2, 256896, Note_on_c, 0, 64, 90
2, 256896, Note_on_c, 0, 60, 90
2, 256896, Note_on_c, 0, 58, 90
2, 257276, Note_off_c, 0, 64, 0
2, 257276, Note_off_c, 0, 60, 0
2, 257276, Note_off_c, 0, 58, 0
2, 258048, Note_on_c, 0, 76, 60
2, 258048, Note_on_c, 0, 82, 60
2, 258048, Note_on_c, 0, 67, 60
2, 258048, Note_on_c, 0, 60, 60
2, 258236, Note_off_c, 0, 82, 0
2, 258236, Note_off_c, 0, 67, 0
2, 258240, Note_on_c, 0, 81, 60
2, 258240, Note_on_c, 0, 66, 60
2, 258428, Note_off_c, 0, 81, 0
2, 258428, Note_off_c, 0, 66, 0
2, 258432, Note_on_c, 0, 82, 60
2, 258432, Note_on_c, 0, 67, 60
2, 258620, Note_off_c, 0, 82, 0
2, 258620, Note_off_c, 0, 67, 0
2, 258624, Note_on_c, 0, 81, 60
2, 258624, Note_on_c, 0, 66, 60
2, 258812, Note_off_c, 0, 81, 0
2, 258812, Note_off_c, 0, 66, 0
2, 258816, Note_on_c, 0, 82, 60
2, 258816, Note_on_c, 0, 67, 60
2, 259004, Note_off_c, 0, 82, 0
2, 259004, Note_off_c, 0, 67, 0
2, 259008, Note_on_c, 0, 81, 60
2, 259008, Note_on_c, 0, 66, 60
2, 259196, Note_off_c, 0, 76, 0
2, 259196, Note_off_c, 0, 60, 0
2, 259196, Note_off_c, 0, 81, 0
2, 259196, Note_off_c, 0, 66, 0
2, 259200, Note_on_c, 0, 82, 60
2, 259200, Note_on_c, 0, 76, 60
2, 259200, Note_on_c, 0, 67, 60
2, 259200, Note_on_c, 0, 60, 60
2, 259580, Note_off_c, 0, 82, 0
2, 259580, Note_off_c, 0, 76, 0
2, 259580, Note_off_c, 0, 67, 0
2, 259580, Note_off_c, 0, 60, 0
2, 260352, Note_on_c, 0, 65, 60
2, 261116, Note_off_c, 0, 65, 0
2, 261120, Note_on_c, 0, 69, 60
2, 261500, Note_off_c, 0, 69, 0
2, 261504, Note_on_c, 0, 72, 60
2, 262268, Note_off_c, 0, 72, 0
2, 262272, Note_on_c, 0, 69, 60
2, 262652, Note_off_c, 0, 69, 0
2, 262656, Note_on_c, 0, 70, 60
2, 263420, Note_off_c, 0, 70, 0
2, 263424, Note_on_c, 0, 79, 60
2, 263804, Note_off_c, 0, 79, 0
2, 263808, Note_on_c, 0, 77, 60
2, 263996, Note_off_c, 0, 77, 0
2, 264000, Note_on_c, 0, 76, 60
2, 264188, Note_off_c, 0, 76, 0
2, 264192, Note_on_c, 0, 76, 60
2, 264572, Note_off_c, 0, 76, 0
2, 264960, Note_on_c, 0, 77, 82
2, 265340, Note_off_c, 0, 77, 0
2, 265344, Note_on_c, 0, 69, 84
2, 265724, Note_off_c, 0, 69, 0
2, 265728, Note_on_c, 0, 74, 82
2, 266108, Note_off_c, 0, 74, 0
2, 266112, Note_on_c, 0, 67, 84
2, 266492, Note_off_c, 0, 67, 0
2, 266512, Note_on_c, 0, 72, 97
2, 267072, Note_on_c, 0, 69, 60
2, 267084, Note_off_c, 0, 72, 0
2, 267260, Note_off_c, 0, 69, 0
2, 267264, Note_on_c, 0, 65, 60
2, 268412, Note_off_c, 0, 65, 0
2, 268416, Note_on_c, 0, 67, 60
2, 268416, Note_on_c, 0, 65, 60
2, 268796, Note_off_c, 0, 65, 0
2, 268800, Note_on_c, 0, 64, 60
2, 268988, Note_off_c, 0, 64, 0
2, 268992, Note_on_c, 0, 62, 60
2, 269180, Note_off_c, 0, 62, 0
2, 269184, Note_on_c, 0, 64, 60
2, 269564, Note_off_c, 0, 67, 0
2, 269564, Note_off_c, 0, 64, 0
2, 269568, Note_on_c, 0, 69, 60
2, 269568, Note_on_c, 0, 65, 60
2, 269948, Note_off_c, 0, 69, 0
2, 269952, Note_on_c, 0, 70, 60
2, 270332, Note_off_c, 0, 70, 0
2, 270336, Note_on_c, 0, 74, 60
2, 270716, Note_off_c, 0, 65, 0
2, 270716, Note_off_c, 0, 74, 0
2, 270720, Note_on_c, 0, 65, 60
2, 270720, Note_on_c, 0, 74, 60
2, 270908, Note_off_c, 0, 74, 0
2, 270912, Note_on_c, 0, 72, 63
2, 271100, Note_off_c, 0, 65, 0
2, 271100, Note_off_c, 0, 72, 0
2, 271104, Note_on_c, 0, 70, 69
2, 271292, Note_off_c, 0, 70, 0
2, 271296, Note_on_c, 0, 69, 75
2, 271484, Note_off_c, 0, 69, 0
2, 271488, Note_on_c, 0, 67, 81
2, 271676, Note_off_c, 0, 67, 0
2, 271680, Note_on_c, 0, 65, 87
2, 271868, Note_off_c, 0, 65, 0
2, 271872, Note_on_c, 0, 67, 90
2, 272252, Note_off_c, 0, 67, 0
2, 272256, Note_on_c, 0, 70, 90
2, 272636, Note_off_c, 0, 70, 0
2, 272640, Note_on_c, 0, 64, 90
2, 272640, Note_on_c, 0, 58, 90
2, 273020, Note_off_c, 0, 64, 0
2, 273020, Note_off_c, 0, 58, 0
2, 273024, Note_on_c, 0, 65, 90
2, 273024, Note_on_c, 0, 57, 90
2, 273404, Note_off_c, 0, 65, 0
2, 273404, Note_off_c, 0, 57, 0
2, 273792, Note_on_c, 0, 69, 60
2, 273792, Note_on_c, 0, 72, 60
2, 273808, Note_on_c, 0, 84, 60
2, 274076, Note_off_c, 0, 69, 0
2, 274076, Note_off_c, 0, 72, 0
2, 274080, Note_on_c, 0, 82, 60
2, 274080, Note_on_c, 0, 70, 60
2, 274080, Note_on_c, 0, 67, 60
2, 274092, Note_off_c, 0, 84, 0
2, 274172, Note_off_c, 0, 82, 0
2, 274172, Note_off_c, 0, 70, 0
2, 274172, Note_off_c, 0, 67, 0
2, 274176, Note_on_c, 0, 81, 60
2, 274176, Note_on_c, 0, 69, 60
2, 274176, Note_on_c, 0, 65, 60
2, 274556, Note_off_c, 0, 81, 0
2, 274556, Note_off_c, 0, 69, 0
2, 274556, Note_off_c, 0, 65, 0
2, 274560, Note_on_c, 0, 81, 60
2, 274560, Note_on_c, 0, 69, 60
2, 274560, Note_on_c, 0, 65, 60
2, 274940, Note_off_c, 0, 81, 0
2, 274940, Note_off_c, 0, 69, 0
2, 274940, Note_off_c, 0, 65, 0
2, 274944, Note_on_c, 0, 81, 60
2, 274944, Note_on_c, 0, 69, 60
2, 274944, Note_on_c, 0, 65, 60
2, 275228, Note_off_c, 0, 81, 0
2, 275228, Note_off_c, 0, 69, 0
2, 275228, Note_off_c, 0, 65, 0
2, 275232, Note_on_c, 0, 79, 60
2, 275232, Note_on_c, 0, 67, 60
2, 275232, Note_on_c, 0, 60, 60
2, 275324, Note_off_c, 0, 79, 0
2, 275324, Note_off_c, 0, 67, 0
2, 275324, Note_off_c, 0, 60, 0
2, 275328, Note_on_c, 0, 77, 60
2, 275328, Note_on_c, 0, 65, 60
2, 275328, Note_on_c, 0, 57, 60
2, 275708, Note_off_c, 0, 77, 0
2, 275708, Note_off_c, 0, 65, 0
2, 275708, Note_off_c, 0, 57, 0
2, 275712, Note_on_c, 0, 77, 60
2, 275712, Note_on_c, 0, 65, 60
2, 275712, Note_on_c, 0, 57, 60
2, 276092, Note_off_c, 0, 77, 0
2, 276092, Note_off_c, 0, 65, 0
2, 276092, Note_off_c, 0, 57, 0
2, 276096, Note_on_c, 0, 77, 60
2, 276096, Note_on_c, 0, 65, 60
2, 276096, Note_on_c, 0, 57, 60
2, 276476, Note_off_c, 0, 77, 0
2, 276476, Note_off_c, 0, 65, 0
2, 276476, Note_off_c, 0, 57, 0
2, 276480, Note_on_c, 0, 79, 60
2, 276480, Note_on_c, 0, 76, 60
2, 276480, Note_on_c, 0, 67, 60
2, 276480, Note_on_c, 0, 60, 60
2, 276860, Note_off_c, 0, 79, 0
2, 276860, Note_off_c, 0, 76, 0
2, 276860, Note_off_c, 0, 67, 0
2, 276860, Note_off_c, 0, 60, 0
2, 276864, Note_on_c, 0, 79, 60
2, 276864, Note_on_c, 0, 67, 60
2, 276864, Note_on_c, 0, 60, 60
2, 276880, Note_on_c, 0, 76, 60
2, 277232, Note_on_c, 0, 76, 60
2, 277244, Note_off_c, 0, 79, 0
2, 277244, Note_off_c, 0, 67, 0
2, 277244, Note_off_c, 0, 60, 0
2, 277248, Note_on_c, 0, 79, 60
2, 277248, Note_on_c, 0, 67, 60
2, 277248, Note_on_c, 0, 60, 60
2, 277260, Note_off_c, 0, 76, 0
2, 277612, Note_off_c, 0, 76, 0
2, 277628, Note_off_c, 0, 79, 0
2, 277628, Note_off_c, 0, 67, 0
2, 277628, Note_off_c, 0, 60, 0
2, 277632, Note_on_c, 0, 79, 60
2, 277632, Note_on_c, 0, 76, 60
2, 277632, Note_on_c, 0, 67, 60
2, 277632, Note_on_c, 0, 60, 60
2, 278012, Note_off_c, 0, 79, 0
2, 278012, Note_off_c, 0, 76, 0
2, 278012, Note_off_c, 0, 67, 0
2, 278012, Note_off_c, 0, 60, 0
2, 278016, Note_on_c, 0, 81, 60
2, 278016, Note_on_c, 0, 65, 60
2, 278016, Note_on_c, 0, 69, 60
2, 278032, Note_on_c, 0, 77, 60
2, 278396, Note_off_c, 0, 81, 0
2, 278396, Note_off_c, 0, 65, 0
2, 278396, Note_off_c, 0, 69, 0
2, 278400, Note_on_c, 0, 84, 60
2, 278400, Note_on_c, 0, 69, 60
2, 278412, Note_off_c, 0, 77, 0
2, 278416, Note_on_c, 0, 72, 60
2, 278492, Note_off_c, 0, 84, 0
2, 278496, Note_on_c, 0, 86, 60
2, 278588, Note_off_c, 0, 86, 0
2, 278592, Note_on_c, 0, 84, 60
2, 278684, Note_off_c, 0, 69, 0
2, 278684, Note_off_c, 0, 84, 0
2, 278688, Note_on_c, 0, 82, 60
2, 278688, Note_on_c, 0, 70, 60
2, 278688, Note_on_c, 0, 67, 60
2, 278700, Note_off_c, 0, 72, 0
2, 278780, Note_off_c, 0, 82, 0
2, 278780, Note_off_c, 0, 70, 0
2, 278780, Note_off_c, 0, 67, 0
2, 278784, Note_on_c, 0, 81, 60
2, 278784, Note_on_c, 0, 69, 60
2, 278784, Note_on_c, 0, 65, 60
2, 279152, Note_on_c, 0, 81, 60
2, 279164, Note_off_c, 0, 81, 0
2, 279164, Note_off_c, 0, 69, 0
2, 279164, Note_off_c, 0, 65, 0
2, 279168, Note_on_c, 0, 69, 60
2, 279168, Note_on_c, 0, 65, 60
2, 279532, Note_off_c, 0, 81, 0
2, 279548, Note_off_c, 0, 69, 0
2, 279548, Note_off_c, 0, 65, 0
2, 279552, Note_on_c, 0, 81, 60
2, 279552, Note_on_c, 0, 69, 60
2, 279552, Note_on_c, 0, 65, 60
2, 279644, Note_off_c, 0, 81, 0
2, 279648, Note_on_c, 0, 82, 60
2, 279740, Note_off_c, 0, 82, 0
2, 279744, Note_on_c, 0, 81, 60
2, 279836, Note_off_c, 0, 69, 0
2, 279836, Note_off_c, 0, 65, 0
2, 279836, Note_off_c, 0, 81, 0
2, 279840, Note_on_c, 0, 79, 60
2, 279840, Note_on_c, 0, 67, 60
2, 279840, Note_on_c, 0, 60, 60
2, 279932, Note_off_c, 0, 79, 0
2, 279932, Note_off_c, 0, 67, 0
2, 279932, Note_off_c, 0, 60, 0
2, 279936, Note_on_c, 0, 77, 60
2, 279936, Note_on_c, 0, 65, 60
2, 279936, Note_on_c, 0, 57, 60
2, 280316, Note_off_c, 0, 77, 0
2, 280316, Note_off_c, 0, 65, 0
2, 280316, Note_off_c, 0, 57, 0
2, 280320, Note_on_c, 0, 77, 60
2, 280320, Note_on_c, 0, 65, 60
2, 280320, Note_on_c, 0, 57, 60
2, 280700, Note_off_c, 0, 77, 0
2, 280700, Note_off_c, 0, 65, 0
2, 280700, Note_off_c, 0, 57, 0
2, 280704, Note_on_c, 0, 77, 60
2, 280704, Note_on_c, 0, 65, 60
2, 280704, Note_on_c, 0, 57, 60
2, 281084, Note_off_c, 0, 77, 0
2, 281084, Note_off_c, 0, 65, 0
2, 281084, Note_off_c, 0, 57, 0
2, 281088, Note_on_c, 0, 79, 60
2, 281088, Note_on_c, 0, 67, 60
2, 281088, Note_on_c, 0, 60, 60
2, 281468, Note_off_c, 0, 79, 0
2, 281468, Note_off_c, 0, 67, 0
2, 281468, Note_off_c, 0, 60, 0
2, 281472, Note_on_c, 0, 82, 60
2, 281852, Note_off_c, 0, 82, 0
2, 281856, Note_on_c, 0, 76, 60
2, 281856, Note_on_c, 0, 70, 60
2, 281856, Note_on_c, 0, 67, 60
2, 281856, Note_on_c, 0, 60, 60
2, 282236, Note_off_c, 0, 76, 0
2, 282236, Note_off_c, 0, 70, 0
2, 282236, Note_off_c, 0, 67, 0
2, 282236, Note_off_c, 0, 60, 0
2, 282240, Note_on_c, 0, 77, 60
2, 282240, Note_on_c, 0, 69, 60
2, 282240, Note_on_c, 0, 65, 60
2, 282620, Note_off_c, 0, 77, 0
2, 282620, Note_off_c, 0, 69, 0
2, 282620, Note_off_c, 0, 65, 0
2, 283008, Note_on_c, 0, 84, 60
2, 283008, Note_on_c, 0, 70, 60
2, 283008, Note_on_c, 0, 64, 60
2, 283008, Note_on_c, 0, 60, 60
2, 283388, Note_off_c, 0, 84, 0
2, 283388, Note_off_c, 0, 70, 0
2, 283388, Note_off_c, 0, 64, 0
2, 283388, Note_off_c, 0, 60, 0
2, 283392, Note_on_c, 0, 77, 60
2, 283392, Note_on_c, 0, 65, 60
2, 283392, Note_on_c, 0, 69, 60
2, 283772, Note_off_c, 0, 77, 0
2, 283772, Note_off_c, 0, 65, 0
2, 283772, Note_off_c, 0, 69, 0
2, 284160, Note_on_c, 0, 72, 60
2, 284540, Note_off_c, 0, 72, 0
2, 284544, Note_on_c, 0, 65, 60
2, 284924, Note_off_c, 0, 65, 0
2, 285312, Note_on_c, 0, 61, 60
2, 285692, Note_off_c, 0, 61, 0
2, 285696, Note_on_c, 0, 62, 90
2, 286268, Note_off_c, 0, 62, 0
2, 286272, Note_on_c, 0, 65, 90
2, 286364, Note_off_c, 0, 65, 0
2, 286368, Note_on_c, 0, 69, 90
2, 286460, Note_off_c, 0, 69, 0
2, 286464, Note_on_c, 0, 74, 90
2, 286652, Note_off_c, 0, 74, 0
2, 286656, Note_on_c, 0, 69, 90
2, 286748, Note_off_c, 0, 69, 0
2, 286752, Note_on_c, 0, 74, 90
2, 286844, Note_off_c, 0, 74, 0
2, 286848, Note_on_c, 0, 77, 90
2, 287036, Note_off_c, 0, 77, 0
2, 287040, Note_on_c, 0, 74, 90
2, 287132, Note_off_c, 0, 74, 0
2, 287136, Note_on_c, 0, 77, 90
2, 287228, Note_off_c, 0, 77, 0
2, 287232, Note_on_c, 0, 81, 90
2, 287420, Note_off_c, 0, 81, 0
2, 287424, Note_on_c, 0, 81, 90
2, 287612, Note_off_c, 0, 81, 0
2, 287616, Note_on_c, 0, 77, 90
2, 287804, Note_off_c, 0, 77, 0
2, 287808, Note_on_c, 0, 74, 90
2, 287996, Note_off_c, 0, 74, 0
2, 288000, Note_on_c, 0, 73, 97
2, 288064, Note_off_c, 0, 73, 0
2, 288064, Note_on_c, 0, 76, 97
2, 288128, Note_off_c, 0, 76, 0
2, 288128, Note_on_c, 0, 79, 97
2, 288192, Note_off_c, 0, 79, 0
2, 288192, Note_on_c, 0, 82, 97
2, 288572, Note_off_c, 0, 82, 0
2, 288576, Note_on_c, 0, 81, 60
2, 288668, Note_off_c, 0, 81, 0
2, 288672, Note_on_c, 0, 79, 60
2, 288764, Note_off_c, 0, 79, 0
2, 288768, Note_on_c, 0, 77, 60
2, 288860, Note_off_c, 0, 77, 0
2, 288864, Note_on_c, 0, 76, 60
2, 288956, Note_off_c, 0, 76, 0
2, 288960, Note_on_c, 0, 74, 60
2, 289052, Note_off_c, 0, 74, 0
2, 289056, Note_on_c, 0, 73, 60
2, 289148, Note_off_c, 0, 73, 0
2, 289152, Note_on_c, 0, 82, 97
2, 289724, Note_off_c, 0, 82, 0
2, 289728, Note_on_c, 0, 81, 60
2, 289820, Note_off_c, 0, 81, 0
2, 289824, Note_on_c, 0, 79, 60
2, 289916, Note_off_c, 0, 79, 0
2, 289920, Note_on_c, 0, 77, 60
2, 290012, Note_off_c, 0, 77, 0
2, 290016, Note_on_c, 0, 76, 60
2, 290108, Note_off_c, 0, 76, 0
2, 290112, Note_on_c, 0, 74, 60
2, 290204, Note_off_c, 0, 74, 0
2, 290208, Note_on_c, 0, 73, 60
2, 290300, Note_off_c, 0, 73, 0
2, 290304, Note_on_c, 0, 74, 90
2, 290876, Note_off_c, 0, 74, 0
2, 290880, Note_on_c, 0, 65, 90
2, 290972, Note_off_c, 0, 65, 0
2, 290976, Note_on_c, 0, 69, 90
2, 291068, Note_off_c, 0, 69, 0
2, 291072, Note_on_c, 0, 74, 90
2, 291260, Note_off_c, 0, 74, 0
2, 291264, Note_on_c, 0, 69, 90
2, 291356, Note_off_c, 0, 69, 0
2, 291360, Note_on_c, 0, 74, 90
2, 291452, Note_off_c, 0, 74, 0
2, 291456, Note_on_c, 0, 77, 90
2, 291644, Note_off_c, 0, 77, 0
2, 291648, Note_on_c, 0, 74, 90
2, 291740, Note_off_c, 0, 74, 0
2, 291744, Note_on_c, 0, 77, 90
2, 291836, Note_off_c, 0, 77, 0
2, 291840, Note_on_c, 0, 81, 90
2, 292028, Note_off_c, 0, 81, 0
2, 292032, Note_on_c, 0, 81, 90
2, 292220, Note_off_c, 0, 81, 0
2, 292240, Note_on_c, 0, 77, 90
2, 292416, Note_on_c, 0, 74, 90
2, 292428, Note_off_c, 0, 77, 0
2, 292604, Note_off_c, 0, 74, 0
2, 292608, Note_on_c, 0, 71, 97
2, 292624, Note_on_c, 0, 74, 97
2, 292644, Note_on_c, 0, 77, 97
2, 292664, Note_on_c, 0, 80, 97
2, 293180, Note_off_c, 0, 71, 0
2, 293184, Note_on_c, 0, 79, 90
2, 293196, Note_off_c, 0, 74, 0
2, 293216, Note_off_c, 0, 77, 0
2, 293236, Note_off_c, 0, 80, 0
2, 293276, Note_off_c, 0, 79, 0
2, 293280, Note_on_c, 0, 77, 90
2, 293372, Note_off_c, 0, 77, 0
2, 293376, Note_on_c, 0, 75, 90
2, 293468, Note_off_c, 0, 75, 0
2, 293472, Note_on_c, 0, 74, 90
2, 293564, Note_off_c, 0, 74, 0
2, 293568, Note_on_c, 0, 72, 90
2, 293660, Note_off_c, 0, 72, 0
2, 293664, Note_on_c, 0, 71, 90
2, 293756, Note_off_c, 0, 71, 0
2, 293760, Note_on_c, 0, 80, 97
2, 294332, Note_off_c, 0, 80, 0
2, 294336, Note_on_c, 0, 79, 90
2, 294428, Note_off_c, 0, 79, 0
2, 294432, Note_on_c, 0, 77, 90
2, 294524, Note_off_c, 0, 77, 0
2, 294528, Note_on_c, 0, 75, 90
2, 294620, Note_off_c, 0, 75, 0
2, 294624, Note_on_c, 0, 74, 90
2, 294716, Note_off_c, 0, 74, 0
2, 294720, Note_on_c, 0, 72, 90
2, 294812, Note_off_c, 0, 72, 0
2, 294816, Note_on_c, 0, 71, 90
2, 294908, Note_off_c, 0, 71, 0
2, 294912, Note_on_c, 0, 72, 90
2, 295484, Note_off_c, 0, 72, 0
2, 295488, Note_on_c, 0, 63, 90
2, 295568, Note_on_c, 0, 67, 90
2, 295580, Note_off_c, 0, 63, 0
2, 295660, Note_off_c, 0, 67, 0
2, 295680, Note_on_c, 0, 72, 90
2, 295868, Note_off_c, 0, 72, 0
2, 295888, Note_on_c, 0, 67, 90
2, 295968, Note_on_c, 0, 72, 90
2, 295980, Note_off_c, 0, 67, 0
2, 296060, Note_off_c, 0, 72, 0
2, 296064, Note_on_c, 0, 75, 90
2, 296252, Note_off_c, 0, 75, 0
2, 296256, Note_on_c, 0, 72, 90
2, 296348, Note_off_c, 0, 72, 0
2, 296352, Note_on_c, 0, 75, 90
2, 296444, Note_off_c, 0, 75, 0
2, 296448, Note_on_c, 0, 79, 90
2, 296636, Note_off_c, 0, 79, 0
2, 296640, Note_on_c, 0, 79, 90
2, 296828, Note_off_c, 0, 79, 0
2, 296832, Note_on_c, 0, 75, 90
2, 297020, Note_off_c, 0, 75, 0
2, 297024, Note_on_c, 0, 72, 90
2, 297212, Note_off_c, 0, 72, 0
2, 297216, Note_on_c, 0, 69, 97
2, 297232, Note_on_c, 0, 72, 97
2, 297252, Note_on_c, 0, 75, 97
2, 297272, Note_on_c, 0, 78, 97
2, 297596, Note_off_c, 0, 69, 0
2, 297612, Note_off_c, 0, 72, 0
2, 297632, Note_off_c, 0, 75, 0
2, 297652, Note_off_c, 0, 78, 0
2, 297792, Note_on_c, 0, 77, 90
2, 297884, Note_off_c, 0, 77, 0
2, 297888, Note_on_c, 0, 76, 90
2, 297980, Note_off_c, 0, 76, 0
2, 297984, Note_on_c, 0, 73, 90
2, 298076, Note_off_c, 0, 73, 0
2, 298080, Note_on_c, 0, 72, 90
2, 298172, Note_off_c, 0, 72, 0
2, 298176, Note_on_c, 0, 70, 90
2, 298268, Note_off_c, 0, 70, 0
2, 298272, Note_on_c, 0, 69, 90
2, 298364, Note_off_c, 0, 69, 0
2, 298368, Note_on_c, 0, 78, 97
2, 298940, Note_off_c, 0, 78, 0
2, 298944, Note_on_c, 0, 77, 90
2, 299036, Note_off_c, 0, 77, 0
2, 299040, Note_on_c, 0, 75, 90
2, 299132, Note_off_c, 0, 75, 0
2, 299136, Note_on_c, 0, 73, 90
2, 299228, Note_off_c, 0, 73, 0
2, 299232, Note_on_c, 0, 72, 90
2, 299324, Note_off_c, 0, 72, 0
2, 299328, Note_on_c, 0, 70, 90
2, 299420, Note_off_c, 0, 70, 0
2, 299424, Note_on_c, 0, 69, 90
2, 299516, Note_off_c, 0, 69, 0
2, 299520, Note_on_c, 0, 70, 90
2, 299900, Note_off_c, 0, 70, 0
2, 299904, Note_on_c, 0, 70, 90
2, 299996, Note_off_c, 0, 70, 0
2, 300000, Note_on_c, 0, 65, 90
2, 300092, Note_off_c, 0, 65, 0
2, 300096, Note_on_c, 0, 70, 90
2, 300188, Note_off_c, 0, 70, 0
2, 300192, Note_on_c, 0, 65, 90
2, 300284, Note_off_c, 0, 65, 0
2, 300288, Note_on_c, 0, 73, 90
2, 300380, Note_off_c, 0, 73, 0
2, 300384, Note_on_c, 0, 70, 90
2, 300476, Note_off_c, 0, 70, 0
2, 300480, Note_on_c, 0, 73, 90
2, 300572, Note_off_c, 0, 73, 0
2, 300576, Note_on_c, 0, 70, 90
2, 300668, Note_off_c, 0, 70, 0
2, 300672, Note_on_c, 0, 77, 90
2, 300764, Note_off_c, 0, 77, 0
2, 300768, Note_on_c, 0, 73, 90
2, 300860, Note_off_c, 0, 73, 0
2, 300864, Note_on_c, 0, 77, 90
2, 300956, Note_off_c, 0, 77, 0
2, 300960, Note_on_c, 0, 73, 90
2, 301052, Note_off_c, 0, 73, 0
2, 301072, Note_on_c, 0, 82, 90
2, 301452, Note_off_c, 0, 82, 0
2, 301824, Note_on_c, 0, 69, 90
2, 302204, Note_off_c, 0, 69, 0
2, 302208, Note_on_c, 0, 69, 90
2, 302300, Note_off_c, 0, 69, 0
2, 302304, Note_on_c, 0, 65, 90
2, 302396, Note_off_c, 0, 65, 0
2, 302400, Note_on_c, 0, 69, 90
2, 302492, Note_off_c, 0, 69, 0
2, 302496, Note_on_c, 0, 65, 90
2, 302588, Note_off_c, 0, 65, 0
2, 302592, Note_on_c, 0, 72, 90
2, 302684, Note_off_c, 0, 72, 0
2, 302688, Note_on_c, 0, 69, 90
2, 302780, Note_off_c, 0, 69, 0
2, 302784, Note_on_c, 0, 72, 90
2, 302876, Note_off_c, 0, 72, 0
2, 302880, Note_on_c, 0, 69, 90
2, 302972, Note_off_c, 0, 69, 0
2, 302976, Note_on_c, 0, 77, 90
2, 303068, Note_off_c, 0, 77, 0
2, 303072, Note_on_c, 0, 72, 90
2, 303164, Note_off_c, 0, 72, 0
2, 303168, Note_on_c, 0, 77, 90
2, 303260, Note_off_c, 0, 77, 0
2, 303264, Note_on_c, 0, 72, 90
2, 303356, Note_off_c, 0, 72, 0
2, 303360, Note_on_c, 0, 81, 90
2, 303740, Note_off_c, 0, 81, 0
2, 304128, Note_on_c, 0, 68, 90
2, 304508, Note_off_c, 0, 68, 0
2, 304512, Note_on_c, 0, 68, 90
2, 304604, Note_off_c, 0, 68, 0
2, 304608, Note_on_c, 0, 65, 90
2, 304700, Note_off_c, 0, 65, 0
2, 304704, Note_on_c, 0, 68, 90
2, 304796, Note_off_c, 0, 68, 0
2, 304800, Note_on_c, 0, 65, 90
2, 304892, Note_off_c, 0, 65, 0
2, 304896, Note_on_c, 0, 74, 90
2, 304988, Note_off_c, 0, 74, 0
2, 304992, Note_on_c, 0, 68, 90
2, 305084, Note_off_c, 0, 68, 0
2, 305088, Note_on_c, 0, 74, 90
2, 305180, Note_off_c, 0, 74, 0
2, 305184, Note_on_c, 0, 68, 90
2, 305276, Note_off_c, 0, 68, 0
2, 305280, Note_on_c, 0, 77, 90
2, 305372, Note_off_c, 0, 77, 0
2, 305376, Note_on_c, 0, 74, 90
2, 305468, Note_off_c, 0, 74, 0
2, 305472, Note_on_c, 0, 77, 90
2, 305564, Note_off_c, 0, 77, 0
2, 305568, Note_on_c, 0, 74, 90
2, 305660, Note_off_c, 0, 74, 0
2, 305664, Note_on_c, 0, 80, 90
2, 306044, Note_off_c, 0, 80, 0
2, 306048, Note_on_c, 0, 77, 90
2, 306428, Note_off_c, 0, 77, 0
2, 306432, Note_on_c, 0, 72, 90
2, 306476, Note_off_c, 0, 72, 0
2, 306480, Note_on_c, 0, 76, 90
2, 306524, Note_off_c, 0, 76, 0
2, 306528, Note_on_c, 0, 79, 90
2, 306572, Note_off_c, 0, 79, 0
2, 306624, Note_on_c, 0, 84, 90
2, 307196, Note_off_c, 0, 84, 0
2, 307200, Note_on_c, 0, 82, 90
2, 307292, Note_off_c, 0, 82, 0
2, 307296, Note_on_c, 0, 80, 90
2, 307388, Note_off_c, 0, 80, 0
2, 307392, Note_on_c, 0, 79, 90
2, 307484, Note_off_c, 0, 79, 0
2, 307488, Note_on_c, 0, 77, 90
2, 307580, Note_off_c, 0, 77, 0
2, 307584, Note_on_c, 0, 84, 90
2, 308348, Note_off_c, 0, 84, 0
2, 308352, Note_on_c, 0, 82, 90
2, 308444, Note_off_c, 0, 82, 0
2, 308448, Note_on_c, 0, 80, 90
2, 308540, Note_off_c, 0, 80, 0
2, 308544, Note_on_c, 0, 79, 90
2, 308636, Note_off_c, 0, 79, 0
2, 308640, Note_on_c, 0, 77, 90
2, 308732, Note_off_c, 0, 77, 0
2, 308736, Note_on_c, 0, 72, 90
2, 309308, Note_off_c, 0, 72, 0
2, 309312, Note_on_c, 0, 73, 90
2, 309404, Note_off_c, 0, 73, 0
2, 309408, Note_on_c, 0, 72, 90
2, 309500, Note_off_c, 0, 72, 0
2, 309504, Note_on_c, 0, 70, 90
2, 309596, Note_off_c, 0, 70, 0
2, 309600, Note_on_c, 0, 68, 90
2, 309692, Note_off_c, 0, 68, 0
2, 309696, Note_on_c, 0, 67, 90
2, 309760, Note_on_c, 0, 65, 90
2, 309788, Note_off_c, 0, 67, 0
2, 309852, Note_off_c, 0, 65, 0
2, 309888, Note_on_c, 0, 72, 97
2, 310268, Note_off_c, 0, 72, 0
2, 310272, Note_on_c, 0, 60, 90
2, 310652, Note_off_c, 0, 60, 0
2, 311040, Note_on_c, 0, 60, 60
2, 311132, Note_off_c, 0, 60, 0
2, 311136, Note_on_c, 0, 69, 60
2, 311324, Note_off_c, 0, 69, 0
2, 311424, Note_on_c, 0, 69, 60
2, 311612, Note_off_c, 0, 69, 0
2, 311808, Note_on_c, 0, 69, 60
2, 311996, Note_off_c, 0, 69, 0
2, 312192, Note_on_c, 0, 64, 60
2, 312284, Note_off_c, 0, 64, 0
2, 312288, Note_on_c, 0, 72, 60
2, 312768, Note_on_c, 0, 70, 60
2, 312860, Note_off_c, 0, 72, 0
2, 312956, Note_off_c, 0, 70, 0
2, 312960, Note_on_c, 0, 67, 60
2, 313340, Note_off_c, 0, 67, 0
2, 313344, Note_on_c, 0, 57, 60
2, 313344, Note_on_c, 0, 67, 60
2, 313532, Note_off_c, 0, 67, 0
2, 313536, Note_on_c, 0, 65, 60
2, 313724, Note_off_c, 0, 57, 0
2, 313724, Note_off_c, 0, 65, 0
2, 313728, Note_on_c, 0, 65, 60
2, 313728, Note_on_c, 0, 60, 60
2, 314300, Note_off_c, 0, 65, 0
2, 314300, Note_off_c, 0, 60, 0
2, 314304, Note_on_c, 0, 67, 60
2, 314304, Note_on_c, 0, 64, 60
2, 314492, Note_off_c, 0, 67, 0
2, 314492, Note_off_c, 0, 64, 0
2, 314496, Note_on_c, 0, 67, 60
2, 314496, Note_on_c, 0, 64, 60
2, 315260, Note_off_c, 0, 67, 0
2, 315260, Note_off_c, 0, 64, 0
2, 315264, Note_on_c, 0, 69, 60
2, 315264, Note_on_c, 0, 65, 60
2, 315644, Note_off_c, 0, 69, 0
2, 315644, Note_off_c, 0, 65, 0
2, 315648, Note_on_c, 0, 70, 60
2, 316080, Note_on_c, 0, 72, 60
2, 316124, Note_off_c, 0, 72, 0
2, 316128, Note_on_c, 0, 70, 60
2, 316172, Note_off_c, 0, 70, 0
2, 316176, Note_on_c, 0, 69, 60
2, 316220, Note_off_c, 0, 70, 0
2, 316220, Note_off_c, 0, 69, 0
2, 316272, Note_on_c, 0, 70, 60
2, 316400, Note_off_c, 0, 70, 0
2, 316416, Note_on_c, 0, 72, 60
2, 316604, Note_off_c, 0, 72, 0
2, 316608, Note_on_c, 0, 74, 60
2, 316796, Note_off_c, 0, 74, 0
2, 316800, Note_on_c, 0, 74, 60
2, 316988, Note_off_c, 0, 74, 0
2, 316992, Note_on_c, 0, 72, 60
2, 317180, Note_off_c, 0, 72, 0
2, 317184, Note_on_c, 0, 71, 60
2, 317372, Note_off_c, 0, 71, 0
2, 317376, Note_on_c, 0, 72, 60
2, 317564, Note_off_c, 0, 72, 0
2, 317568, Note_on_c, 0, 70, 60
2, 317756, Note_off_c, 0, 70, 0
2, 317760, Note_on_c, 0, 67, 60
2, 317948, Note_off_c, 0, 67, 0
2, 317952, Note_on_c, 0, 68, 60
2, 318140, Note_off_c, 0, 68, 0
2, 318144, Note_on_c, 0, 69, 60
2, 318332, Note_off_c, 0, 69, 0
2, 318336, Note_on_c, 0, 70, 60
2, 318524, Note_off_c, 0, 70, 0
2, 318528, Note_on_c, 0, 69, 60
2, 318716, Note_off_c, 0, 69, 0
2, 318736, Note_on_c, 0, 72, 60
2, 318912, Note_on_c, 0, 70, 60
2, 318924, Note_off_c, 0, 72, 0
2, 319100, Note_off_c, 0, 70, 0
2, 319104, Note_on_c, 0, 69, 60
2, 319292, Note_off_c, 0, 69, 0
2, 319296, Note_on_c, 0, 67, 60
2, 319484, Note_off_c, 0, 67, 0
2, 319488, Note_on_c, 0, 65, 60
2, 319676, Note_off_c, 0, 65, 0
2, 319680, Note_on_c, 0, 64, 60
2, 319868, Note_off_c, 0, 64, 0
2, 319872, Note_on_c, 0, 62, 60
2, 320060, Note_off_c, 0, 62, 0
2, 320064, Note_on_c, 0, 60, 60
2, 320252, Note_off_c, 0, 60, 0
2, 320256, Note_on_c, 0, 68, 60
2, 320288, Note_on_c, 0, 80, 60
2, 320444, Note_off_c, 0, 68, 0
2, 320448, Note_on_c, 0, 69, 60
2, 320448, Note_on_c, 0, 81, 60
2, 320476, Note_off_c, 0, 80, 0
2, 320636, Note_off_c, 0, 69, 0
2, 320636, Note_off_c, 0, 81, 0
2, 320640, Note_on_c, 0, 68, 60
2, 320640, Note_on_c, 0, 80, 60
2, 320828, Note_off_c, 0, 68, 0
2, 320828, Note_off_c, 0, 80, 0
2, 320832, Note_on_c, 0, 69, 60
2, 320832, Note_on_c, 0, 81, 60
2, 321020, Note_off_c, 0, 69, 0
2, 321020, Note_off_c, 0, 81, 0
2, 321024, Note_on_c, 0, 68, 60
2, 321040, Note_on_c, 0, 80, 60
2, 321212, Note_off_c, 0, 68, 0
2, 321216, Note_on_c, 0, 69, 60
2, 321216, Note_on_c, 0, 81, 60
2, 321228, Note_off_c, 0, 80, 0
2, 321404, Note_off_c, 0, 69, 0
2, 321404, Note_off_c, 0, 81, 0
2, 321408, Note_on_c, 0, 83, 60
2, 321408, Note_on_c, 0, 71, 60
2, 321596, Note_off_c, 0, 83, 0
2, 321596, Note_off_c, 0, 71, 0
2, 321600, Note_on_c, 0, 84, 60
2, 321600, Note_on_c, 0, 72, 60
2, 321788, Note_off_c, 0, 84, 0
2, 321788, Note_off_c, 0, 72, 0
2, 321792, Note_on_c, 0, 83, 60
2, 321792, Note_on_c, 0, 71, 60
2, 321980, Note_off_c, 0, 83, 0
2, 321980, Note_off_c, 0, 71, 0
2, 321984, Note_on_c, 0, 84, 60
2, 321984, Note_on_c, 0, 72, 60
2, 322172, Note_off_c, 0, 84, 0
2, 322172, Note_off_c, 0, 72, 0
2, 322176, Note_on_c, 0, 82, 60
2, 322364, Note_off_c, 0, 82, 0
2, 322368, Note_on_c, 0, 79, 60
2, 322556, Note_off_c, 0, 79, 0
2, 322560, Note_on_c, 0, 79, 60
2, 322748, Note_off_c, 0, 79, 0
2, 322752, Note_on_c, 0, 77, 60
2, 322940, Note_off_c, 0, 77, 0
2, 322944, Note_on_c, 0, 79, 60
2, 322960, Note_on_c, 0, 72, 60
2, 323132, Note_off_c, 0, 79, 0
2, 323136, Note_on_c, 0, 77, 60
2, 323324, Note_off_c, 0, 77, 0
2, 323328, Note_on_c, 0, 81, 60
2, 323328, Note_on_c, 0, 76, 60
2, 323340, Note_off_c, 0, 72, 0
2, 323516, Note_off_c, 0, 81, 0
2, 323520, Note_on_c, 0, 79, 60
2, 323708, Note_off_c, 0, 76, 0
2, 323708, Note_off_c, 0, 79, 0
2, 323712, Note_on_c, 0, 79, 60
2, 323712, Note_on_c, 0, 76, 60
2, 324284, Note_off_c, 0, 79, 0
2, 324288, Note_on_c, 0, 80, 60
2, 324476, Note_off_c, 0, 76, 0
2, 324476, Note_off_c, 0, 80, 0
2, 324480, Note_on_c, 0, 81, 60
2, 324480, Note_on_c, 0, 77, 60
2, 324860, Note_off_c, 0, 81, 0
2, 324860, Note_off_c, 0, 77, 0
2, 324864, Note_on_c, 0, 82, 60
2, 324864, Note_on_c, 0, 62, 60
2, 325040, Note_on_c, 0, 65, 60
2, 325052, Note_off_c, 0, 62, 0
2, 325228, Note_off_c, 0, 65, 0
2, 325248, Note_on_c, 0, 70, 60
2, 325296, Note_on_c, 0, 84, 60
2, 325340, Note_off_c, 0, 84, 0
2, 325344, Note_on_c, 0, 82, 60
2, 325388, Note_off_c, 0, 82, 0
2, 325392, Note_on_c, 0, 81, 60
2, 325436, Note_off_c, 0, 70, 0
2, 325436, Note_off_c, 0, 82, 0
2, 325436, Note_off_c, 0, 81, 0
2, 325440, Note_on_c, 0, 82, 60
2, 325440, Note_on_c, 0, 65, 60
2, 325628, Note_off_c, 0, 82, 0
2, 325628, Note_off_c, 0, 65, 0
2, 325632, Note_on_c, 0, 84, 60
2, 325632, Note_on_c, 0, 62, 60
2, 325820, Note_off_c, 0, 84, 0
2, 325820, Note_off_c, 0, 62, 0
2, 325824, Note_on_c, 0, 86, 60
2, 325824, Note_on_c, 0, 65, 60
2, 326012, Note_off_c, 0, 86, 0
2, 326012, Note_off_c, 0, 65, 0
2, 326016, Note_on_c, 0, 86, 60
2, 326016, Note_on_c, 0, 64, 60
2, 326204, Note_off_c, 0, 86, 0
2, 326204, Note_off_c, 0, 64, 0
2, 326208, Note_on_c, 0, 84, 60
2, 326208, Note_on_c, 0, 67, 60
2, 326396, Note_off_c, 0, 84, 0
2, 326396, Note_off_c, 0, 67, 0
2, 326400, Note_on_c, 0, 83, 60
2, 326400, Note_on_c, 0, 72, 60
2, 326588, Note_off_c, 0, 83, 0
2, 326588, Note_off_c, 0, 72, 0
2, 326592, Note_on_c, 0, 84, 60
2, 326592, Note_on_c, 0, 67, 60
2, 326780, Note_off_c, 0, 84, 0
2, 326780, Note_off_c, 0, 67, 0
2, 326784, Note_on_c, 0, 82, 60
2, 326784, Note_on_c, 0, 64, 60
2, 326972, Note_off_c, 0, 82, 0
2, 326972, Note_off_c, 0, 64, 0
2, 326976, Note_on_c, 0, 79, 60
2, 326976, Note_on_c, 0, 67, 60
2, 327164, Note_off_c, 0, 79, 0
2, 327164, Note_off_c, 0, 67, 0
2, 327168, Note_on_c, 0, 80, 90
2, 327168, Note_on_c, 0, 65, 90
2, 327356, Note_off_c, 0, 80, 0
2, 327360, Note_on_c, 0, 81, 90
2, 327548, Note_off_c, 0, 65, 0
2, 327548, Note_off_c, 0, 81, 0
2, 327552, Note_on_c, 0, 84, 90
2, 327552, Note_on_c, 0, 67, 90
2, 327552, Note_on_c, 0, 58, 90
2, 327740, Note_off_c, 0, 84, 0
2, 327744, Note_on_c, 0, 82, 85
2, 327932, Note_off_c, 0, 67, 0
2, 327932, Note_off_c, 0, 58, 0
2, 327932, Note_off_c, 0, 82, 0
2, 327936, Note_on_c, 0, 79, 81
2, 327936, Note_on_c, 0, 70, 81
2, 327936, Note_on_c, 0, 60, 81
2, 328124, Note_off_c, 0, 79, 0
2, 328128, Note_on_c, 0, 76, 76
2, 328316, Note_off_c, 0, 70, 0
2, 328316, Note_off_c, 0, 60, 0
2, 328316, Note_off_c, 0, 76, 0
2, 328320, Note_on_c, 0, 77, 72
2, 328320, Note_on_c, 0, 69, 72
2, 328320, Note_on_c, 0, 65, 72
2, 328508, Note_off_c, 0, 77, 0
2, 328512, Note_on_c, 0, 72, 67
2, 328700, Note_off_c, 0, 69, 0
2, 328700, Note_off_c, 0, 65, 0
2, 328700, Note_off_c, 0, 72, 0
2, 328704, Note_on_c, 0, 69, 60
2, 328896, Note_on_c, 0, 72, 60
2, 329084, Note_off_c, 0, 69, 0
2, 329084, Note_off_c, 0, 72, 0
2, 329088, Note_on_c, 0, 65, 60
2, 329280, Note_on_c, 0, 72, 60
2, 329468, Note_off_c, 0, 65, 0
2, 329468, Note_off_c, 0, 72, 0
2, 329472, Note_on_c, 0, 72, 60
2, 329472, Note_on_c, 0, 70, 60
2, 329472, Note_on_c, 0, 67, 60
2, 329660, Note_off_c, 0, 72, 0
2, 329660, Note_off_c, 0, 70, 0
2, 329664, Note_on_c, 0, 72, 60
2, 329664, Note_on_c, 0, 70, 60
2, 329852, Note_off_c, 0, 67, 0
2, 329852, Note_off_c, 0, 72, 0
2, 329852, Note_off_c, 0, 70, 0
2, 329856, Note_on_c, 0, 64, 60
2, 330048, Note_on_c, 0, 72, 60
2, 330048, Note_on_c, 0, 70, 60
2, 330236, Note_off_c, 0, 64, 0
2, 330236, Note_off_c, 0, 72, 0
2, 330236, Note_off_c, 0, 70, 0
2, 330240, Note_on_c, 0, 60, 60
2, 330432, Note_on_c, 0, 72, 60
2, 330432, Note_on_c, 0, 70, 60
2, 330620, Note_off_c, 0, 60, 0
2, 330620, Note_off_c, 0, 72, 0
2, 330620, Note_off_c, 0, 70, 0
2, 330624, Note_on_c, 0, 72, 60
2, 330640, Note_on_c, 0, 68, 60
2, 330812, Note_off_c, 0, 72, 0
2, 330816, Note_on_c, 0, 72, 60
2, 330816, Note_on_c, 0, 68, 60
2, 330828, Note_off_c, 0, 68, 0
2, 331004, Note_off_c, 0, 72, 0
2, 331004, Note_off_c, 0, 68, 0
2, 331200, Note_on_c, 0, 72, 60
2, 331216, Note_on_c, 0, 68, 60
2, 331388, Note_off_c, 0, 72, 0
2, 331404, Note_off_c, 0, 68, 0
2, 331584, Note_on_c, 0, 72, 60
2, 331584, Note_on_c, 0, 68, 60
2, 331772, Note_off_c, 0, 72, 0
2, 331772, Note_off_c, 0, 68, 0
2, 331776, Note_on_c, 0, 72, 60
2, 331776, Note_on_c, 0, 70, 60
2, 331964, Note_off_c, 0, 72, 0
2, 331964, Note_off_c, 0, 70, 0
2, 331968, Note_on_c, 0, 72, 60
2, 331968, Note_on_c, 0, 70, 60
2, 332156, Note_off_c, 0, 72, 0
2, 332156, Note_off_c, 0, 70, 0
2, 332352, Note_on_c, 0, 72, 60
2, 332352, Note_on_c, 0, 70, 60
2, 332540, Note_off_c, 0, 72, 0
2, 332540, Note_off_c, 0, 70, 0
2, 332736, Note_on_c, 0, 72, 60
2, 332736, Note_on_c, 0, 70, 60
2, 332924, Note_off_c, 0, 72, 0
2, 332924, Note_off_c, 0, 70, 0
2, 332928, Note_on_c, 0, 72, 90
2, 332928, Note_on_c, 0, 68, 90
2, 333116, Note_off_c, 0, 72, 0
2, 333116, Note_off_c, 0, 68, 0
2, 333120, Note_on_c, 0, 72, 90
2, 333120, Note_on_c, 0, 68, 90
2, 333308, Note_off_c, 0, 72, 0
2, 333308, Note_off_c, 0, 68, 0
2, 333504, Note_on_c, 0, 72, 60
2, 333504, Note_on_c, 0, 68, 60
2, 333692, Note_off_c, 0, 72, 0
2, 333692, Note_off_c, 0, 68, 0
2, 333888, Note_on_c, 0, 72, 60
2, 333888, Note_on_c, 0, 68, 60
2, 334076, Note_off_c, 0, 72, 0
2, 334076, Note_off_c, 0, 68, 0
2, 334080, Note_on_c, 0, 73, 90
2, 334080, Note_on_c, 0, 68, 90
2, 334268, Note_off_c, 0, 73, 0
2, 334268, Note_off_c, 0, 68, 0
2, 334272, Note_on_c, 0, 73, 90
2, 334272, Note_on_c, 0, 68, 90
2, 334460, Note_off_c, 0, 73, 0
2, 334460, Note_off_c, 0, 68, 0
2, 334656, Note_on_c, 0, 73, 60
2, 334656, Note_on_c, 0, 68, 60
2, 334844, Note_off_c, 0, 73, 0
2, 334844, Note_off_c, 0, 68, 0
2, 335040, Note_on_c, 0, 73, 60
2, 335040, Note_on_c, 0, 68, 60
2, 335228, Note_off_c, 0, 73, 0
2, 335228, Note_off_c, 0, 68, 0
2, 335232, Note_on_c, 0, 73, 90
2, 335232, Note_on_c, 0, 67, 90
2, 335420, Note_off_c, 0, 73, 0
2, 335420, Note_off_c, 0, 67, 0
2, 335424, Note_on_c, 0, 73, 90
2, 335424, Note_on_c, 0, 67, 90
2, 335612, Note_off_c, 0, 73, 0
2, 335612, Note_off_c, 0, 67, 0
2, 335808, Note_on_c, 0, 73, 60
2, 335808, Note_on_c, 0, 67, 60
2, 335996, Note_off_c, 0, 73, 0
2, 335996, Note_off_c, 0, 67, 0
2, 336192, Note_on_c, 0, 73, 60
2, 336192, Note_on_c, 0, 67, 60
2, 336380, Note_off_c, 0, 73, 0
2, 336380, Note_off_c, 0, 67, 0
2, 336384, Note_on_c, 0, 72, 90
2, 336384, Note_on_c, 0, 67, 90
2, 336572, Note_off_c, 0, 72, 0
2, 336572, Note_off_c, 0, 67, 0
2, 336576, Note_on_c, 0, 72, 90
2, 336576, Note_on_c, 0, 67, 90
2, 336764, Note_off_c, 0, 72, 0
2, 336764, Note_off_c, 0, 67, 0
2, 336960, Note_on_c, 0, 72, 60
2, 336960, Note_on_c, 0, 67, 60
2, 337148, Note_off_c, 0, 72, 0
2, 337148, Note_off_c, 0, 67, 0
2, 337328, Note_on_c, 0, 72, 60
2, 337344, Note_on_c, 0, 67, 60
2, 337516, Note_off_c, 0, 72, 0
2, 337532, Note_off_c, 0, 67, 0
2, 337536, Note_on_c, 0, 72, 90
2, 337536, Note_on_c, 0, 65, 90
2, 337724, Note_off_c, 0, 72, 0
2, 337724, Note_off_c, 0, 65, 0
2, 337728, Note_on_c, 0, 72, 90
2, 337728, Note_on_c, 0, 65, 90
2, 337916, Note_off_c, 0, 72, 0
2, 337916, Note_off_c, 0, 65, 0
2, 338112, Note_on_c, 0, 72, 60
2, 338112, Note_on_c, 0, 65, 60
2, 338300, Note_off_c, 0, 72, 0
2, 338300, Note_off_c, 0, 65, 0
2, 338304, Note_on_c, 0, 72, 90
2, 338304, Note_on_c, 0, 65, 90
2, 338496, Note_on_c, 0, 72, 90
2, 338496, Note_on_c, 0, 65, 90
2, 338588, Note_off_c, 0, 72, 0
2, 338588, Note_off_c, 0, 65, 0
2, 338684, Note_off_c, 0, 72, 0
2, 338684, Note_off_c, 0, 65, 0
2, 338880, Note_on_c, 0, 70, 60
2, 338880, Note_on_c, 0, 65, 60
2, 339068, Note_off_c, 0, 70, 0
2, 339068, Note_off_c, 0, 65, 0
2, 339072, Note_on_c, 0, 70, 90
2, 339072, Note_on_c, 0, 64, 90
2, 339260, Note_off_c, 0, 70, 0
2, 339260, Note_off_c, 0, 64, 0
2, 339264, Note_on_c, 0, 70, 90
2, 339264, Note_on_c, 0, 64, 90
2, 339452, Note_off_c, 0, 70, 0
2, 339452, Note_off_c, 0, 64, 0
2, 339648, Note_on_c, 0, 70, 60
2, 339648, Note_on_c, 0, 64, 60
2, 339836, Note_off_c, 0, 70, 0
2, 339836, Note_off_c, 0, 64, 0
2, 340032, Note_on_c, 0, 69, 60
2, 340032, Note_on_c, 0, 65, 60
2, 340220, Note_off_c, 0, 69, 0
2, 340220, Note_off_c, 0, 65, 0
2, 340416, Note_on_c, 0, 69, 60
2, 340416, Note_on_c, 0, 65, 60
2, 340604, Note_off_c, 0, 69, 0
2, 340604, Note_off_c, 0, 65, 0
2, 340800, Note_on_c, 0, 69, 60
2, 340800, Note_on_c, 0, 65, 60
2, 340988, Note_off_c, 0, 69, 0
2, 340988, Note_off_c, 0, 65, 0
2, 340992, Note_on_c, 0, 67, 60
2, 340992, Note_on_c, 0, 64, 60
2, 341180, Note_off_c, 0, 67, 0
2, 341180, Note_off_c, 0, 64, 0
2, 341184, Note_on_c, 0, 68, 60
2, 341184, Note_on_c, 0, 72, 60
2, 341372, Note_off_c, 0, 68, 0
2, 341372, Note_off_c, 0, 72, 0
2, 341376, Note_on_c, 0, 67, 60
2, 341376, Note_on_c, 0, 70, 60
2, 341564, Note_off_c, 0, 67, 0
2, 341564, Note_off_c, 0, 70, 0
2, 341568, Note_on_c, 0, 65, 60
2, 341568, Note_on_c, 0, 68, 60
2, 341756, Note_off_c, 0, 65, 0
2, 341756, Note_off_c, 0, 68, 0
2, 341760, Note_on_c, 0, 64, 60
2, 341760, Note_on_c, 0, 67, 60
2, 341948, Note_off_c, 0, 64, 0
2, 341948, Note_off_c, 0, 67, 0
2, 341952, Note_on_c, 0, 65, 60
2, 341968, Note_on_c, 0, 68, 60
2, 342140, Note_off_c, 0, 65, 0
2, 342144, Note_on_c, 0, 64, 60
2, 342144, Note_on_c, 0, 67, 60
2, 342156, Note_off_c, 0, 68, 0
2, 342332, Note_off_c, 0, 64, 0
2, 342332, Note_off_c, 0, 67, 0
2, 342336, Note_on_c, 0, 68, 60
2, 342336, Note_on_c, 0, 72, 60
2, 342524, Note_off_c, 0, 68, 0
2, 342524, Note_off_c, 0, 72, 0
2, 342528, Note_on_c, 0, 67, 60
2, 342528, Note_on_c, 0, 70, 60
2, 342716, Note_off_c, 0, 67, 0
2, 342716, Note_off_c, 0, 70, 0
2, 342720, Note_on_c, 0, 65, 60
2, 342720, Note_on_c, 0, 68, 60
2, 342908, Note_off_c, 0, 65, 0
2, 342908, Note_off_c, 0, 68, 0
2, 342912, Note_on_c, 0, 64, 60
2, 342912, Note_on_c, 0, 67, 60
2, 343100, Note_off_c, 0, 64, 0
2, 343100, Note_off_c, 0, 67, 0
2, 343104, Note_on_c, 0, 65, 60
2, 343104, Note_on_c, 0, 68, 60
2, 343292, Note_off_c, 0, 65, 0
2, 343292, Note_off_c, 0, 68, 0
2, 343296, Note_on_c, 0, 67, 60
2, 343296, Note_on_c, 0, 64, 60
2, 343484, Note_off_c, 0, 67, 0
2, 343484, Note_off_c, 0, 64, 0
2, 343488, Note_on_c, 0, 68, 60
2, 343488, Note_on_c, 0, 65, 60
2, 343676, Note_off_c, 0, 68, 0
2, 343676, Note_off_c, 0, 65, 0
2, 343680, Note_on_c, 0, 67, 60
2, 343680, Note_on_c, 0, 64, 60
2, 343868, Note_off_c, 0, 67, 0
2, 343868, Note_off_c, 0, 64, 0
2, 343872, Note_on_c, 0, 68, 60
2, 343872, Note_on_c, 0, 65, 60
2, 344060, Note_off_c, 0, 68, 0
2, 344060, Note_off_c, 0, 65, 0
2, 344064, Note_on_c, 0, 67, 60
2, 344064, Note_on_c, 0, 64, 60
2, 344252, Note_off_c, 0, 67, 0
2, 344252, Note_off_c, 0, 64, 0
2, 344256, Note_on_c, 0, 68, 60
2, 344256, Note_on_c, 0, 65, 60
2, 344444, Note_off_c, 0, 68, 0
2, 344444, Note_off_c, 0, 65, 0
2, 344448, Note_on_c, 0, 64, 60
2, 344448, Note_on_c, 0, 67, 60
2, 344636, Note_off_c, 0, 64, 0
2, 344636, Note_off_c, 0, 67, 0
2, 344640, Note_on_c, 0, 66, 60
2, 344640, Note_on_c, 0, 63, 60
2, 344828, Note_off_c, 0, 66, 0
2, 344828, Note_off_c, 0, 63, 0
2, 344832, Note_on_c, 0, 67, 60
2, 344832, Note_on_c, 0, 64, 60
2, 345020, Note_off_c, 0, 67, 0
2, 345020, Note_off_c, 0, 64, 0
2, 345024, Note_on_c, 0, 69, 60
2, 345024, Note_on_c, 0, 66, 60
2, 345212, Note_off_c, 0, 69, 0
2, 345212, Note_off_c, 0, 66, 0
2, 345216, Note_on_c, 0, 70, 60
2, 345216, Note_on_c, 0, 67, 60
2, 345404, Note_off_c, 0, 70, 0
2, 345404, Note_off_c, 0, 67, 0
2, 345408, Note_on_c, 0, 72, 60
2, 345408, Note_on_c, 0, 69, 60
2, 345596, Note_off_c, 0, 72, 0
2, 345596, Note_off_c, 0, 69, 0
2, 345600, Note_on_c, 0, 74, 82
2, 345600, Note_on_c, 0, 70, 82
2, 345788, Note_off_c, 0, 74, 0
2, 345788, Note_off_c, 0, 70, 0
2, 345984, Note_on_c, 0, 74, 60
2, 345984, Note_on_c, 0, 70, 60
2, 345984, Note_on_c, 0, 65, 60
2, 346172, Note_off_c, 0, 74, 0
2, 346172, Note_off_c, 0, 70, 0
2, 346364, Note_off_c, 0, 65, 0
2, 346368, Note_on_c, 0, 74, 60
2, 346368, Note_on_c, 0, 70, 60
2, 346368, Note_on_c, 0, 65, 60
2, 346556, Note_off_c, 0, 74, 0
2, 346556, Note_off_c, 0, 70, 0
2, 346748, Note_off_c, 0, 65, 0
2, 346752, Note_on_c, 0, 74, 60
2, 346752, Note_on_c, 0, 70, 60
2, 346752, Note_on_c, 0, 65, 60
2, 347516, Note_off_c, 0, 74, 0
2, 347516, Note_off_c, 0, 70, 0
2, 347520, Note_on_c, 0, 72, 60
2, 347520, Note_on_c, 0, 69, 60
2, 347900, Note_off_c, 0, 65, 0
2, 347900, Note_off_c, 0, 72, 0
2, 347900, Note_off_c, 0, 69, 0
2, 347904, Note_on_c, 0, 72, 60
2, 347904, Note_on_c, 0, 67, 60
2, 347904, Note_on_c, 0, 64, 60
2, 347996, Note_off_c, 0, 72, 0
2, 348000, Note_on_c, 0, 70, 60
2, 348092, Note_off_c, 0, 70, 0
2, 348272, Note_on_c, 0, 67, 60
2, 348284, Note_off_c, 0, 67, 0
2, 348284, Note_off_c, 0, 64, 0
2, 348288, Note_on_c, 0, 70, 60
2, 348288, Note_on_c, 0, 64, 60
2, 348652, Note_off_c, 0, 67, 0
2, 348668, Note_off_c, 0, 70, 0
2, 348668, Note_off_c, 0, 64, 0
2, 348672, Note_on_c, 0, 70, 60
2, 348672, Note_on_c, 0, 67, 60
2, 348672, Note_on_c, 0, 64, 60
2, 349052, Note_off_c, 0, 70, 0
2, 349052, Note_off_c, 0, 67, 0
2, 349052, Note_off_c, 0, 64, 0
2, 349056, Note_on_c, 0, 70, 60
2, 349056, Note_on_c, 0, 67, 60
2, 349056, Note_on_c, 0, 64, 60
2, 349820, Note_off_c, 0, 70, 0
2, 349820, Note_off_c, 0, 67, 0
2, 349820, Note_off_c, 0, 64, 0
2, 349824, Note_on_c, 0, 69, 60
2, 349824, Note_on_c, 0, 65, 60
2, 350204, Note_off_c, 0, 69, 0
2, 350204, Note_off_c, 0, 65, 0
2, 350208, Note_on_c, 0, 72, 60
2, 350208, Note_on_c, 0, 69, 60
2, 350396, Note_off_c, 0, 72, 0
2, 350396, Note_off_c, 0, 69, 0
2, 350400, Note_on_c, 0, 70, 60
2, 350400, Note_on_c, 0, 67, 60
2, 350588, Note_off_c, 0, 70, 0
2, 350588, Note_off_c, 0, 67, 0
2, 350592, Note_on_c, 0, 69, 60
2, 350592, Note_on_c, 0, 65, 60
2, 350972, Note_off_c, 0, 69, 0
2, 350972, Note_off_c, 0, 65, 0
2, 350976, Note_on_c, 0, 67, 60
2, 350976, Note_on_c, 0, 64, 60
2, 351356, Note_off_c, 0, 67, 0
2, 351356, Note_off_c, 0, 64, 0
2, 351360, Note_on_c, 0, 69, 60
2, 351360, Note_on_c, 0, 65, 60
2, 351548, Note_off_c, 0, 69, 0
2, 351548, Note_off_c, 0, 65, 0
2, 351552, Note_on_c, 0, 77, 60
2, 351740, Note_off_c, 0, 77, 0
2, 351744, Note_on_c, 0, 79, 60
2, 351932, Note_off_c, 0, 79, 0
2, 351936, Note_on_c, 0, 81, 60
2, 352124, Note_off_c, 0, 81, 0
2, 352128, Note_on_c, 0, 82, 60
2, 352316, Note_off_c, 0, 82, 0
2, 352320, Note_on_c, 0, 84, 60
2, 352508, Note_off_c, 0, 84, 0
2, 352512, Note_on_c, 0, 86, 82
2, 352512, Note_on_c, 0, 70, 82
2, 352512, Note_on_c, 0, 65, 82
2, 352892, Note_off_c, 0, 86, 0
2, 352892, Note_off_c, 0, 70, 0
2, 352892, Note_off_c, 0, 65, 0
2, 352896, Note_on_c, 0, 86, 60
2, 352896, Note_on_c, 0, 70, 60
2, 352912, Note_on_c, 0, 65, 60
2, 353276, Note_off_c, 0, 86, 0
2, 353276, Note_off_c, 0, 70, 0
2, 353280, Note_on_c, 0, 86, 60
2, 353280, Note_on_c, 0, 70, 60
2, 353280, Note_on_c, 0, 65, 60
2, 353292, Note_off_c, 0, 65, 0
2, 353660, Note_off_c, 0, 70, 0
2, 353660, Note_off_c, 0, 65, 0
2, 353664, Note_on_c, 0, 86, 60
2, 353664, Note_on_c, 0, 70, 60
2, 353664, Note_on_c, 0, 65, 60
2, 353668, Note_off_c, 0, 86, 0
2, 354236, Note_off_c, 0, 86, 0
2, 354240, Note_on_c, 0, 88, 60
2, 354332, Note_off_c, 0, 88, 0
2, 354336, Note_on_c, 0, 86, 60
2, 354428, Note_off_c, 0, 70, 0
2, 354428, Note_off_c, 0, 86, 0
2, 354432, Note_on_c, 0, 84, 60
2, 354432, Note_on_c, 0, 69, 60
2, 354812, Note_off_c, 0, 65, 0
2, 354812, Note_off_c, 0, 84, 0
2, 354812, Note_off_c, 0, 69, 0
2, 354816, Note_on_c, 0, 76, 60
2, 354816, Note_on_c, 0, 84, 60
2, 354816, Note_on_c, 0, 67, 60
2, 354816, Note_on_c, 0, 60, 60
2, 355004, Note_off_c, 0, 84, 0
2, 355008, Note_on_c, 0, 82, 60
2, 355196, Note_off_c, 0, 76, 0
2, 355196, Note_off_c, 0, 67, 0
2, 355196, Note_off_c, 0, 60, 0
2, 355196, Note_off_c, 0, 82, 0
2, 355200, Note_on_c, 0, 76, 60
2, 355200, Note_on_c, 0, 82, 60
2, 355200, Note_on_c, 0, 67, 60
2, 355216, Note_on_c, 0, 60, 60
2, 355568, Note_on_c, 0, 67, 60
2, 355580, Note_off_c, 0, 76, 0
2, 355580, Note_off_c, 0, 82, 0
2, 355580, Note_off_c, 0, 67, 0
2, 355584, Note_on_c, 0, 76, 60
2, 355584, Note_on_c, 0, 82, 60
2, 355584, Note_on_c, 0, 60, 60
2, 355596, Note_off_c, 0, 60, 0
2, 355948, Note_off_c, 0, 67, 0
2, 355964, Note_off_c, 0, 76, 0
2, 355964, Note_off_c, 0, 82, 0
2, 355964, Note_off_c, 0, 60, 0
2, 355968, Note_on_c, 0, 82, 60
2, 355968, Note_on_c, 0, 76, 60
2, 355968, Note_on_c, 0, 67, 60
2, 355968, Note_on_c, 0, 61, 60
2, 356732, Note_off_c, 0, 82, 0
2, 356732, Note_off_c, 0, 76, 0
2, 356732, Note_off_c, 0, 67, 0
2, 356732, Note_off_c, 0, 61, 0
2, 356736, Note_on_c, 0, 81, 60
2, 356736, Note_on_c, 0, 77, 60
2, 356736, Note_on_c, 0, 65, 60
2, 356736, Note_on_c, 0, 62, 60
2, 357116, Note_off_c, 0, 81, 0
2, 357116, Note_off_c, 0, 65, 0
2, 357116, Note_off_c, 0, 62, 0
2, 357120, Note_on_c, 0, 81, 60
2, 357120, Note_on_c, 0, 84, 60
2, 357124, Note_off_c, 0, 77, 0
2, 357308, Note_off_c, 0, 81, 0
2, 357308, Note_off_c, 0, 84, 0
2, 357312, Note_on_c, 0, 79, 60
2, 357312, Note_on_c, 0, 82, 60
2, 357500, Note_off_c, 0, 79, 0
2, 357500, Note_off_c, 0, 82, 0
2, 357504, Note_on_c, 0, 77, 60
2, 357504, Note_on_c, 0, 81, 60
2, 357884, Note_off_c, 0, 77, 0
2, 357884, Note_off_c, 0, 81, 0
2, 357888, Note_on_c, 0, 76, 60
2, 357888, Note_on_c, 0, 79, 60
2, 358268, Note_off_c, 0, 76, 0
2, 358268, Note_off_c, 0, 79, 0
2, 358272, Note_on_c, 0, 84, 90
2, 358272, Note_on_c, 0, 81, 90
2, 358460, Note_off_c, 0, 84, 0
2, 358460, Note_off_c, 0, 81, 0
2, 358464, Note_on_c, 0, 84, 90
2, 358464, Note_on_c, 0, 81, 90
2, 358652, Note_off_c, 0, 84, 0
2, 358652, Note_off_c, 0, 81, 0
2, 358848, Note_on_c, 0, 79, 60
2, 358848, Note_on_c, 0, 82, 60
2, 359036, Note_off_c, 0, 79, 0
2, 359036, Note_off_c, 0, 82, 0
2, 359232, Note_on_c, 0, 77, 60
2, 359232, Note_on_c, 0, 81, 60
2, 359420, Note_off_c, 0, 77, 0
2, 359420, Note_off_c, 0, 81, 0
2, 359616, Note_on_c, 0, 79, 60
2, 359616, Note_on_c, 0, 70, 60
2, 359804, Note_off_c, 0, 79, 0
2, 359804, Note_off_c, 0, 70, 0
2, 360000, Note_on_c, 0, 77, 60
2, 360000, Note_on_c, 0, 69, 60
2, 360188, Note_off_c, 0, 77, 0
2, 360188, Note_off_c, 0, 69, 0
2, 360384, Note_on_c, 0, 67, 60
2, 360384, Note_on_c, 0, 76, 60
2, 360572, Note_off_c, 0, 67, 0
2, 360572, Note_off_c, 0, 76, 0
2, 360672, Note_on_c, 0, 81, 90
2, 360764, Note_off_c, 0, 81, 0
2, 360768, Note_on_c, 0, 84, 90
2, 360860, Note_off_c, 0, 84, 0
2, 360864, Note_on_c, 0, 81, 90
2, 360956, Note_off_c, 0, 81, 0
2, 361056, Note_on_c, 0, 79, 90
2, 361148, Note_off_c, 0, 79, 0
2, 361152, Note_on_c, 0, 82, 90
2, 361244, Note_off_c, 0, 82, 0
2, 361248, Note_on_c, 0, 79, 90
2, 361340, Note_off_c, 0, 79, 0
2, 361440, Note_on_c, 0, 77, 90
2, 361532, Note_off_c, 0, 77, 0
2, 361536, Note_on_c, 0, 81, 90
2, 361628, Note_off_c, 0, 81, 0
2, 361632, Note_on_c, 0, 77, 90
2, 361724, Note_off_c, 0, 77, 0
2, 361824, Note_on_c, 0, 70, 90
2, 361916, Note_off_c, 0, 70, 0
2, 361920, Note_on_c, 0, 79, 90
2, 362012, Note_off_c, 0, 79, 0
2, 362016, Note_on_c, 0, 70, 90
2, 362108, Note_off_c, 0, 70, 0
2, 362208, Note_on_c, 0, 69, 90
2, 362300, Note_off_c, 0, 69, 0
2, 362304, Note_on_c, 0, 77, 90
2, 362396, Note_off_c, 0, 77, 0
2, 362400, Note_on_c, 0, 69, 90
2, 362492, Note_off_c, 0, 69, 0
2, 362592, Note_on_c, 0, 67, 90
2, 362684, Note_off_c, 0, 67, 0
2, 362688, Note_on_c, 0, 76, 90
2, 362780, Note_off_c, 0, 76, 0
2, 362784, Note_on_c, 0, 67, 90
2, 362876, Note_off_c, 0, 67, 0
2, 362880, Note_on_c, 0, 77, 90
2, 362880, Note_on_c, 0, 72, 90
2, 362880, Note_on_c, 0, 69, 90
2, 363260, Note_off_c, 0, 77, 0
2, 363260, Note_off_c, 0, 72, 0
2, 363260, Note_off_c, 0, 69, 0
2, 363648, Note_on_c, 0, 70, 90
2, 363692, Note_off_c, 0, 70, 0
2, 363696, Note_on_c, 0, 69, 90
2, 363740, Note_off_c, 0, 69, 0
2, 363744, Note_on_c, 0, 70, 90
2, 363788, Note_off_c, 0, 70, 0
2, 363792, Note_on_c, 0, 69, 90
2, 363836, Note_off_c, 0, 69, 0
2, 363840, Note_on_c, 0, 70, 90
2, 363872, Note_on_c, 0, 69, 90
2, 363884, Note_off_c, 0, 70, 0
2, 363916, Note_off_c, 0, 69, 0
2, 363936, Note_on_c, 0, 67, 90
2, 363980, Note_off_c, 0, 67, 0
2, 363984, Note_on_c, 0, 65, 90
2, 364028, Note_off_c, 0, 65, 0
2, 364032, Note_on_c, 0, 72, 90
2, 364796, Note_off_c, 0, 72, 0
2, 364800, Note_on_c, 0, 77, 90
2, 364844, Note_off_c, 0, 77, 0
2, 364848, Note_on_c, 0, 76, 90
2, 364892, Note_off_c, 0, 76, 0
2, 364896, Note_on_c, 0, 77, 90
2, 364940, Note_off_c, 0, 77, 0
2, 364944, Note_on_c, 0, 76, 90
2, 364988, Note_off_c, 0, 76, 0
2, 364992, Note_on_c, 0, 77, 90
2, 365036, Note_off_c, 0, 77, 0
2, 365040, Note_on_c, 0, 76, 90
2, 365084, Note_off_c, 0, 76, 0
2, 365088, Note_on_c, 0, 74, 90
2, 365132, Note_off_c, 0, 74, 0
2, 365136, Note_on_c, 0, 72, 90
2, 365180, Note_off_c, 0, 72, 0
2, 365184, Note_on_c, 0, 77, 90
2, 365948, Note_off_c, 0, 77, 0
2, 365952, Note_on_c, 0, 82, 90
2, 365996, Note_off_c, 0, 82, 0
2, 366000, Note_on_c, 0, 81, 90
2, 366044, Note_off_c, 0, 81, 0
2, 366048, Note_on_c, 0, 82, 90
2, 366092, Note_off_c, 0, 82, 0
2, 366096, Note_on_c, 0, 81, 90
2, 366140, Note_off_c, 0, 81, 0
2, 366144, Note_on_c, 0, 82, 90
2, 366188, Note_off_c, 0, 82, 0
2, 366208, Note_on_c, 0, 81, 90
2, 366240, Note_on_c, 0, 79, 90
2, 366252, Note_off_c, 0, 81, 0
2, 366284, Note_off_c, 0, 79, 0
2, 366304, Note_on_c, 0, 77, 90
2, 366336, Note_on_c, 0, 84, 90
2, 366348, Note_off_c, 0, 77, 0
2, 366716, Note_off_c, 0, 84, 0
2, 366720, Note_on_c, 0, 84, 90
2, 367100, Note_off_c, 0, 84, 0
2, 367104, Note_on_c, 0, 89, 90
2, 367148, Note_off_c, 0, 89, 0
2, 367152, Note_on_c, 0, 88, 90
2, 367196, Note_off_c, 0, 88, 0
2, 367200, Note_on_c, 0, 89, 90
2, 367244, Note_off_c, 0, 89, 0
2, 367248, Note_on_c, 0, 88, 90
2, 367292, Note_off_c, 0, 88, 0
2, 367296, Note_on_c, 0, 89, 90
2, 367340, Note_off_c, 0, 89, 0
2, 367344, Note_on_c, 0, 88, 90
2, 367388, Note_off_c, 0, 88, 0
2, 367392, Note_on_c, 0, 86, 90
2, 367436, Note_off_c, 0, 86, 0
2, 367440, Note_on_c, 0, 84, 90
2, 367484, Note_off_c, 0, 84, 0
2, 367488, Note_on_c, 0, 89, 90
2, 367868, Note_off_c, 0, 89, 0
2, 367872, Note_on_c, 0, 81, 97
2, 368444, Note_off_c, 0, 81, 0
2, 368448, Note_on_c, 0, 73, 90
2, 368636, Note_off_c, 0, 73, 0
2, 368640, Note_on_c, 0, 74, 90
2, 369020, Note_off_c, 0, 74, 0
2, 369024, Note_on_c, 0, 77, 97
2, 369596, Note_off_c, 0, 77, 0
2, 369600, Note_on_c, 0, 69, 90
2, 369788, Note_off_c, 0, 69, 0
2, 369792, Note_on_c, 0, 72, 90
2, 369836, Note_off_c, 0, 72, 0
2, 369840, Note_on_c, 0, 70, 90
2, 369884, Note_off_c, 0, 70, 0
2, 369888, Note_on_c, 0, 72, 90
2, 369932, Note_off_c, 0, 72, 0
2, 369936, Note_on_c, 0, 70, 90
2, 369980, Note_off_c, 0, 70, 0
2, 369984, Note_on_c, 0, 72, 90
2, 370028, Note_off_c, 0, 72, 0
2, 370032, Note_on_c, 0, 70, 90
2, 370076, Note_off_c, 0, 70, 0
2, 370080, Note_on_c, 0, 69, 90
2, 370124, Note_off_c, 0, 69, 0
2, 370128, Note_on_c, 0, 67, 90
2, 370172, Note_off_c, 0, 67, 0
2, 370176, Note_on_c, 0, 72, 90
2, 370556, Note_off_c, 0, 72, 0
2, 370560, Note_on_c, 0, 76, 90
2, 370560, Note_on_c, 0, 72, 90
2, 370560, Note_on_c, 0, 70, 90
2, 370560, Note_on_c, 0, 67, 90
2, 370940, Note_off_c, 0, 76, 0
2, 370940, Note_off_c, 0, 72, 0
2, 370940, Note_off_c, 0, 70, 0
2, 370940, Note_off_c, 0, 67, 0
2, 370944, Note_on_c, 0, 77, 90
2, 370944, Note_on_c, 0, 72, 90
2, 370944, Note_on_c, 0, 69, 90
2, 371324, Note_off_c, 0, 77, 0
2, 371324, Note_off_c, 0, 72, 0
2, 371324, Note_off_c, 0, 69, 0
2, 371328, Note_on_c, 0, 65, 90
2, 371708, Note_off_c, 0, 65, 0
2, 372096, Note_on_c, 0, 67, 60
2, 372096, Note_on_c, 0, 67, 60
2, 372476, Note_off_c, 0, 67, 0
2, 372480, Note_on_c, 0, 72, 60
2, 372860, Note_off_c, 0, 72, 0
2, 372864, Note_on_c, 0, 76, 60
2, 373244, Note_off_c, 0, 67, 0
2, 373244, Note_off_c, 0, 76, 0
2, 373248, Note_on_c, 0, 67, 97
2, 373248, Note_on_c, 0, 76, 97
2, 373248, Note_on_c, 0, 72, 97
2, 374012, Note_off_c, 0, 76, 0
2, 374012, Note_off_c, 0, 72, 0
2, 374016, Note_on_c, 0, 74, 60
2, 374016, Note_on_c, 0, 71, 60
2, 374396, Note_off_c, 0, 67, 0
2, 374396, Note_off_c, 0, 74, 0
2, 374396, Note_off_c, 0, 71, 0
2, 374400, Note_on_c, 0, 79, 60
2, 374780, Note_off_c, 0, 79, 0
2, 374784, Note_on_c, 0, 72, 60
2, 374784, Note_on_c, 0, 67, 60
2, 375164, Note_off_c, 0, 72, 0
2, 375168, Note_on_c, 0, 76, 60
2, 375548, Note_off_c, 0, 67, 0
2, 375548, Note_off_c, 0, 76, 0
2, 375552, Note_on_c, 0, 76, 97
2, 375552, Note_on_c, 0, 72, 97
2, 375552, Note_on_c, 0, 67, 97
2, 376316, Note_off_c, 0, 76, 0
2, 376316, Note_off_c, 0, 72, 0
2, 376320, Note_on_c, 0, 74, 60
2, 376320, Note_on_c, 0, 71, 60
2, 376700, Note_off_c, 0, 67, 0
2, 376700, Note_off_c, 0, 74, 0
2, 376700, Note_off_c, 0, 71, 0
2, 376704, Note_on_c, 0, 69, 60
2, 377084, Note_off_c, 0, 69, 0
2, 377088, Note_on_c, 0, 74, 60
2, 377468, Note_off_c, 0, 74, 0
2, 377472, Note_on_c, 0, 77, 60
2, 377852, Note_off_c, 0, 77, 0
2, 377856, Note_on_c, 0, 76, 60
2, 378236, Note_off_c, 0, 76, 0
2, 378240, Note_on_c, 0, 74, 60
2, 378620, Note_off_c, 0, 74, 0
2, 378624, Note_on_c, 0, 81, 97
2, 379004, Note_off_c, 0, 81, 0
2, 379008, Note_on_c, 0, 81, 60
2, 379388, Note_off_c, 0, 81, 0
2, 379392, Note_on_c, 0, 79, 60
2, 379772, Note_off_c, 0, 79, 0
2, 379776, Note_on_c, 0, 71, 60
2, 380156, Note_off_c, 0, 71, 0
2, 380160, Note_on_c, 0, 72, 60
2, 380348, Note_off_c, 0, 72, 0
2, 380352, Note_on_c, 0, 67, 60
2, 380540, Note_off_c, 0, 67, 0
2, 380544, Note_on_c, 0, 64, 60
2, 380732, Note_off_c, 0, 64, 0
2, 380736, Note_on_c, 0, 67, 60
2, 380924, Note_off_c, 0, 67, 0
2, 380928, Note_on_c, 0, 65, 60
2, 381116, Note_off_c, 0, 65, 0
2, 381120, Note_on_c, 0, 62, 60
2, 381308, Note_off_c, 0, 62, 0
2, 381312, Note_on_c, 0, 60, 60
2, 381596, Note_off_c, 0, 60, 0
2, 381600, Note_on_c, 0, 55, 60
2, 381692, Note_off_c, 0, 55, 0
2, 381696, Note_on_c, 0, 60, 60
2, 382076, Note_off_c, 0, 60, 0
2, 382080, Note_on_c, 0, 64, 60
2, 382460, Note_off_c, 0, 64, 0
2, 382464, Note_on_c, 0, 64, 97
2, 382464, Note_on_c, 0, 60, 97
2, 383228, Note_off_c, 0, 64, 0
2, 383228, Note_off_c, 0, 60, 0
2, 383232, Note_on_c, 0, 62, 60
2, 383232, Note_on_c, 0, 59, 60
2, 383612, Note_off_c, 0, 62, 0
2, 383612, Note_off_c, 0, 59, 0
2, 383616, Note_on_c, 0, 67, 60
2, 383996, Note_off_c, 0, 67, 0
2, 384000, Note_on_c, 0, 60, 60
2, 384016, Note_on_c, 0, 55, 60
2, 384380, Note_off_c, 0, 60, 0
2, 384384, Note_on_c, 0, 64, 60
2, 384764, Note_off_c, 0, 64, 0
2, 384768, Note_on_c, 0, 64, 97
2, 384768, Note_on_c, 0, 60, 97
2, 384780, Note_off_c, 0, 55, 0
2, 385532, Note_off_c, 0, 64, 0
2, 385532, Note_off_c, 0, 60, 0
2, 385536, Note_on_c, 0, 62, 60
2, 385536, Note_on_c, 0, 59, 60
2, 385916, Note_off_c, 0, 62, 0
2, 385916, Note_off_c, 0, 59, 0
2, 385920, Note_on_c, 0, 57, 60
2, 386300, Note_off_c, 0, 57, 0
2, 386304, Note_on_c, 0, 62, 60
2, 386684, Note_off_c, 0, 62, 0
2, 386688, Note_on_c, 0, 65, 60
2, 387068, Note_off_c, 0, 65, 0
2, 387072, Note_on_c, 0, 64, 60
2, 387452, Note_off_c, 0, 64, 0
2, 387456, Note_on_c, 0, 62, 60
2, 387836, Note_off_c, 0, 62, 0
2, 387840, Note_on_c, 0, 69, 97
2, 388220, Note_off_c, 0, 69, 0
2, 388224, Note_on_c, 0, 69, 60
2, 388604, Note_off_c, 0, 69, 0
2, 388608, Note_on_c, 0, 67, 60
2, 388988, Note_off_c, 0, 67, 0
2, 389008, Note_on_c, 0, 59, 60
2, 389376, Note_on_c, 0, 60, 60
2, 389388, Note_off_c, 0, 59, 0
2, 389564, Note_off_c, 0, 60, 0
2, 389568, Note_on_c, 0, 67, 60
2, 389756, Note_off_c, 0, 67, 0
2, 389952, Note_on_c, 0, 67, 60
2, 390140, Note_off_c, 0, 67, 0
2, 390336, Note_on_c, 0, 67, 60
2, 390524, Note_off_c, 0, 67, 0
2, 390528, Note_on_c, 0, 65, 60
2, 390528, Note_on_c, 0, 67, 60
2, 390716, Note_off_c, 0, 65, 0
2, 390716, Note_off_c, 0, 67, 0
2, 390720, Note_on_c, 0, 65, 60
2, 390720, Note_on_c, 0, 67, 60
2, 390908, Note_off_c, 0, 65, 0
2, 390908, Note_off_c, 0, 67, 0
2, 391104, Note_on_c, 0, 65, 60
2, 391104, Note_on_c, 0, 67, 60
2, 391292, Note_off_c, 0, 65, 0
2, 391292, Note_off_c, 0, 67, 0
2, 391488, Note_on_c, 0, 65, 60
2, 391488, Note_on_c, 0, 67, 60
2, 391676, Note_off_c, 0, 65, 0
2, 391676, Note_off_c, 0, 67, 0
2, 391680, Note_on_c, 0, 63, 60
2, 391680, Note_on_c, 0, 67, 60
2, 391868, Note_off_c, 0, 63, 0
2, 391868, Note_off_c, 0, 67, 0
2, 391872, Note_on_c, 0, 63, 60
2, 391872, Note_on_c, 0, 67, 60
2, 392060, Note_off_c, 0, 63, 0
2, 392060, Note_off_c, 0, 67, 0
2, 392256, Note_on_c, 0, 63, 60
2, 392256, Note_on_c, 0, 67, 60
2, 392444, Note_off_c, 0, 63, 0
2, 392444, Note_off_c, 0, 67, 0
2, 392640, Note_on_c, 0, 63, 60
2, 392656, Note_on_c, 0, 67, 60
2, 392828, Note_off_c, 0, 63, 0
2, 392832, Note_on_c, 0, 65, 60
2, 392832, Note_on_c, 0, 67, 60
2, 392844, Note_off_c, 0, 67, 0
2, 393020, Note_off_c, 0, 65, 0
2, 393020, Note_off_c, 0, 67, 0
2, 393024, Note_on_c, 0, 65, 60
2, 393040, Note_on_c, 0, 67, 60
2, 393212, Note_off_c, 0, 65, 0
2, 393228, Note_off_c, 0, 67, 0
2, 393408, Note_on_c, 0, 65, 60
2, 393408, Note_on_c, 0, 67, 60
2, 393596, Note_off_c, 0, 65, 0
2, 393596, Note_off_c, 0, 67, 0
2, 393792, Note_on_c, 0, 65, 60
2, 393792, Note_on_c, 0, 67, 60
2, 393980, Note_off_c, 0, 65, 0
2, 393980, Note_off_c, 0, 67, 0
2, 393984, Note_on_c, 0, 63, 90
2, 393984, Note_on_c, 0, 67, 90
2, 394172, Note_off_c, 0, 63, 0
2, 394172, Note_off_c, 0, 67, 0
2, 394176, Note_on_c, 0, 63, 90
2, 394176, Note_on_c, 0, 67, 90
2, 394364, Note_off_c, 0, 63, 0
2, 394364, Note_off_c, 0, 67, 0
2, 394560, Note_on_c, 0, 63, 60
2, 394560, Note_on_c, 0, 67, 60
2, 394748, Note_off_c, 0, 63, 0
2, 394748, Note_off_c, 0, 67, 0
2, 394944, Note_on_c, 0, 63, 60
2, 394944, Note_on_c, 0, 67, 60
2, 395132, Note_off_c, 0, 63, 0
2, 395132, Note_off_c, 0, 67, 0
2, 395136, Note_on_c, 0, 66, 90
2, 395136, Note_on_c, 0, 63, 90
2, 395136, Note_on_c, 0, 60, 90
2, 395324, Note_off_c, 0, 66, 0
2, 395324, Note_off_c, 0, 63, 0
2, 395324, Note_off_c, 0, 60, 0
2, 395328, Note_on_c, 0, 60, 90
2, 395328, Note_on_c, 0, 66, 90
2, 395328, Note_on_c, 0, 63, 90
2, 395516, Note_off_c, 0, 60, 0
2, 395516, Note_off_c, 0, 66, 0
2, 395516, Note_off_c, 0, 63, 0
2, 395712, Note_on_c, 0, 66, 60
2, 395712, Note_on_c, 0, 63, 60
2, 395712, Note_on_c, 0, 60, 60
2, 395900, Note_off_c, 0, 66, 0
2, 395900, Note_off_c, 0, 63, 0
2, 395900, Note_off_c, 0, 60, 0
2, 396096, Note_on_c, 0, 66, 60
2, 396096, Note_on_c, 0, 63, 60
2, 396096, Note_on_c, 0, 60, 60
2, 396284, Note_off_c, 0, 66, 0
2, 396284, Note_off_c, 0, 63, 0
2, 396284, Note_off_c, 0, 60, 0
2, 396288, Note_on_c, 0, 62, 90
2, 396288, Note_on_c, 0, 67, 90
2, 396476, Note_off_c, 0, 62, 0
2, 396476, Note_off_c, 0, 67, 0
2, 396480, Note_on_c, 0, 62, 90
2, 396480, Note_on_c, 0, 67, 90
2, 396668, Note_off_c, 0, 62, 0
2, 396668, Note_off_c, 0, 67, 0
2, 396864, Note_on_c, 0, 67, 60
2, 396864, Note_on_c, 0, 62, 60
2, 397052, Note_off_c, 0, 67, 0
2, 397052, Note_off_c, 0, 62, 0
2, 397248, Note_on_c, 0, 67, 60
2, 397248, Note_on_c, 0, 62, 60
2, 397436, Note_off_c, 0, 67, 0
2, 397436, Note_off_c, 0, 62, 0
2, 397440, Note_on_c, 0, 72, 90
2, 397440, Note_on_c, 0, 69, 90
2, 397440, Note_on_c, 0, 62, 90
2, 397628, Note_off_c, 0, 72, 0
2, 397628, Note_off_c, 0, 69, 0
2, 397628, Note_off_c, 0, 62, 0
2, 397632, Note_on_c, 0, 72, 90
2, 397632, Note_on_c, 0, 69, 90
2, 397632, Note_on_c, 0, 62, 90
2, 397820, Note_off_c, 0, 72, 0
2, 397820, Note_off_c, 0, 69, 0
2, 397820, Note_off_c, 0, 62, 0
2, 398016, Note_on_c, 0, 72, 60
2, 398016, Note_on_c, 0, 62, 60
2, 398016, Note_on_c, 0, 69, 60
2, 398204, Note_off_c, 0, 72, 0
2, 398204, Note_off_c, 0, 62, 0
2, 398204, Note_off_c, 0, 69, 0
2, 398400, Note_on_c, 0, 72, 60
2, 398400, Note_on_c, 0, 62, 60
2, 398400, Note_on_c, 0, 69, 60
2, 398588, Note_off_c, 0, 72, 0
2, 398588, Note_off_c, 0, 62, 0
2, 398588, Note_off_c, 0, 69, 0
2, 398592, Note_on_c, 0, 62, 90
2, 398592, Note_on_c, 0, 67, 90
2, 398592, Note_on_c, 0, 70, 90
2, 398780, Note_off_c, 0, 62, 0
2, 398780, Note_off_c, 0, 67, 0
2, 398780, Note_off_c, 0, 70, 0
2, 398784, Note_on_c, 0, 62, 90
2, 398784, Note_on_c, 0, 67, 90
2, 398784, Note_on_c, 0, 70, 90
2, 398972, Note_off_c, 0, 62, 0
2, 398972, Note_off_c, 0, 67, 0
2, 398972, Note_off_c, 0, 70, 0
2, 399168, Note_on_c, 0, 62, 60
2, 399168, Note_on_c, 0, 67, 60
2, 399168, Note_on_c, 0, 70, 60
2, 399356, Note_off_c, 0, 62, 0
2, 399356, Note_off_c, 0, 67, 0
2, 399356, Note_off_c, 0, 70, 0
2, 399552, Note_on_c, 0, 62, 60
2, 399552, Note_on_c, 0, 67, 60
2, 399552, Note_on_c, 0, 70, 60
2, 399740, Note_off_c, 0, 62, 0
2, 399740, Note_off_c, 0, 67, 0
2, 399740, Note_off_c, 0, 70, 0
2, 399744, Note_on_c, 0, 67, 90
2, 399744, Note_on_c, 0, 70, 90
2, 399744, Note_on_c, 0, 73, 90
2, 399932, Note_off_c, 0, 67, 0
2, 399932, Note_off_c, 0, 70, 0
2, 399932, Note_off_c, 0, 73, 0
2, 399936, Note_on_c, 0, 73, 90
2, 399936, Note_on_c, 0, 70, 90
2, 399936, Note_on_c, 0, 67, 90
2, 400124, Note_off_c, 0, 73, 0
2, 400124, Note_off_c, 0, 70, 0
2, 400124, Note_off_c, 0, 67, 0
2, 400320, Note_on_c, 0, 73, 60
2, 400320, Note_on_c, 0, 70, 60
2, 400320, Note_on_c, 0, 67, 60
2, 400508, Note_off_c, 0, 73, 0
2, 400508, Note_off_c, 0, 70, 0
2, 400508, Note_off_c, 0, 67, 0
2, 400704, Note_on_c, 0, 73, 60
2, 400704, Note_on_c, 0, 67, 60
2, 400704, Note_on_c, 0, 70, 60
2, 400892, Note_off_c, 0, 73, 0
2, 400892, Note_off_c, 0, 67, 0
2, 400892, Note_off_c, 0, 70, 0
2, 400896, Note_on_c, 0, 74, 90
2, 400896, Note_on_c, 0, 69, 90
2, 401084, Note_off_c, 0, 74, 0
2, 401084, Note_off_c, 0, 69, 0
2, 401088, Note_on_c, 0, 74, 90
2, 401088, Note_on_c, 0, 69, 90
2, 401276, Note_off_c, 0, 74, 0
2, 401276, Note_off_c, 0, 69, 0
2, 401472, Note_on_c, 0, 74, 60
2, 401472, Note_on_c, 0, 69, 60
2, 401660, Note_off_c, 0, 74, 0
2, 401660, Note_off_c, 0, 69, 0
2, 401856, Note_on_c, 0, 74, 60
2, 401856, Note_on_c, 0, 69, 60
2, 402044, Note_off_c, 0, 74, 0
2, 402044, Note_off_c, 0, 69, 0
2, 402048, Note_on_c, 0, 79, 90
2, 402048, Note_on_c, 0, 76, 90
2, 402048, Note_on_c, 0, 69, 90
2, 402236, Note_off_c, 0, 79, 0
2, 402236, Note_off_c, 0, 76, 0
2, 402236, Note_off_c, 0, 69, 0
2, 402240, Note_on_c, 0, 79, 90
2, 402240, Note_on_c, 0, 76, 90
2, 402240, Note_on_c, 0, 69, 90
2, 402428, Note_off_c, 0, 79, 0
2, 402428, Note_off_c, 0, 76, 0
2, 402428, Note_off_c, 0, 69, 0
2, 402624, Note_on_c, 0, 79, 60
2, 402624, Note_on_c, 0, 76, 60
2, 402624, Note_on_c, 0, 69, 60
2, 402812, Note_off_c, 0, 79, 0
2, 402812, Note_off_c, 0, 76, 0
2, 402812, Note_off_c, 0, 69, 0
2, 403008, Note_on_c, 0, 79, 60
2, 403008, Note_on_c, 0, 76, 60
2, 403008, Note_on_c, 0, 69, 60
2, 403196, Note_off_c, 0, 79, 0
2, 403196, Note_off_c, 0, 76, 0
2, 403196, Note_off_c, 0, 69, 0
2, 403200, Note_on_c, 0, 77, 90
2, 403200, Note_on_c, 0, 74, 90
2, 403200, Note_on_c, 0, 69, 90
2, 403388, Note_off_c, 0, 77, 0
2, 403388, Note_off_c, 0, 74, 0
2, 403388, Note_off_c, 0, 69, 0
2, 403392, Note_on_c, 0, 77, 90
2, 403392, Note_on_c, 0, 69, 90
2, 403392, Note_on_c, 0, 74, 90
2, 403580, Note_off_c, 0, 77, 0
2, 403580, Note_off_c, 0, 69, 0
2, 403580, Note_off_c, 0, 74, 0
2, 403776, Note_on_c, 0, 77, 60
2, 403776, Note_on_c, 0, 74, 60
2, 403776, Note_on_c, 0, 69, 60
2, 403964, Note_off_c, 0, 77, 0
2, 403964, Note_off_c, 0, 74, 0
2, 403964, Note_off_c, 0, 69, 0
2, 404160, Note_on_c, 0, 77, 60
2, 404160, Note_on_c, 0, 74, 60
2, 404160, Note_on_c, 0, 69, 60
2, 404348, Note_off_c, 0, 77, 0
2, 404348, Note_off_c, 0, 74, 0
2, 404348, Note_off_c, 0, 69, 0
2, 404352, Note_on_c, 0, 80, 90
2, 404352, Note_on_c, 0, 74, 90
2, 404540, Note_off_c, 0, 80, 0
2, 404540, Note_off_c, 0, 74, 0
2, 404544, Note_on_c, 0, 80, 90
2, 404544, Note_on_c, 0, 74, 90
2, 404732, Note_off_c, 0, 80, 0
2, 404732, Note_off_c, 0, 74, 0
2, 404928, Note_on_c, 0, 80, 60
2, 404928, Note_on_c, 0, 74, 60
2, 405116, Note_off_c, 0, 80, 0
2, 405116, Note_off_c, 0, 74, 0
2, 405312, Note_on_c, 0, 80, 60
2, 405312, Note_on_c, 0, 74, 60
2, 405500, Note_off_c, 0, 80, 0
2, 405500, Note_off_c, 0, 74, 0
2, 405504, Note_on_c, 0, 73, 60
2, 405504, Note_on_c, 0, 81, 60
2, 405692, Note_off_c, 0, 73, 0
2, 405692, Note_off_c, 0, 81, 0
2, 405696, Note_on_c, 0, 77, 60
2, 405696, Note_on_c, 0, 81, 60
2, 405884, Note_off_c, 0, 77, 0
2, 405884, Note_off_c, 0, 81, 0
2, 405888, Note_on_c, 0, 76, 60
2, 405888, Note_on_c, 0, 79, 60
2, 406076, Note_off_c, 0, 76, 0
2, 406076, Note_off_c, 0, 79, 0
2, 406080, Note_on_c, 0, 77, 60
2, 406080, Note_on_c, 0, 74, 60
2, 406268, Note_off_c, 0, 77, 0
2, 406268, Note_off_c, 0, 74, 0
2, 406272, Note_on_c, 0, 76, 60
2, 406272, Note_on_c, 0, 73, 60
2, 406460, Note_off_c, 0, 76, 0
2, 406460, Note_off_c, 0, 73, 0
2, 406464, Note_on_c, 0, 77, 60
2, 406464, Note_on_c, 0, 74, 60
2, 406464, Note_on_c, 0, 68, 60
2, 406652, Note_off_c, 0, 77, 0
2, 406652, Note_off_c, 0, 74, 0
2, 406652, Note_off_c, 0, 68, 0
2, 406656, Note_on_c, 0, 76, 60
2, 406656, Note_on_c, 0, 73, 60
2, 406656, Note_on_c, 0, 69, 60
2, 406844, Note_off_c, 0, 76, 0
2, 406844, Note_off_c, 0, 73, 0
2, 406848, Note_on_c, 0, 69, 60
2, 406848, Note_on_c, 0, 65, 60
2, 407036, Note_off_c, 0, 69, 0
2, 407036, Note_off_c, 0, 69, 0
2, 407036, Note_off_c, 0, 65, 0
2, 407040, Note_on_c, 0, 67, 60
2, 407040, Note_on_c, 0, 64, 60
2, 407228, Note_off_c, 0, 67, 0
2, 407228, Note_off_c, 0, 64, 0
2, 407232, Note_on_c, 0, 65, 60
2, 407232, Note_on_c, 0, 62, 60
2, 407420, Note_off_c, 0, 65, 0
2, 407420, Note_off_c, 0, 62, 0
2, 407424, Note_on_c, 0, 64, 60
2, 407424, Note_on_c, 0, 61, 60
2, 407612, Note_off_c, 0, 64, 0
2, 407612, Note_off_c, 0, 61, 0
2, 407616, Note_on_c, 0, 65, 60
2, 407616, Note_on_c, 0, 62, 60
2, 407804, Note_off_c, 0, 65, 0
2, 407804, Note_off_c, 0, 62, 0
2, 407808, Note_on_c, 0, 64, 60
2, 407808, Note_on_c, 0, 61, 60
2, 407996, Note_off_c, 0, 64, 0
2, 407996, Note_off_c, 0, 61, 0
2, 408000, Note_on_c, 0, 65, 60
2, 408000, Note_on_c, 0, 62, 60
2, 408188, Note_off_c, 0, 65, 0
2, 408188, Note_off_c, 0, 62, 0
2, 408192, Note_on_c, 0, 64, 60
2, 408192, Note_on_c, 0, 61, 60
2, 408380, Note_off_c, 0, 64, 0
2, 408380, Note_off_c, 0, 61, 0
2, 408384, Note_on_c, 0, 65, 60
2, 408384, Note_on_c, 0, 62, 60
2, 408572, Note_off_c, 0, 65, 0
2, 408572, Note_off_c, 0, 62, 0
2, 408576, Note_on_c, 0, 64, 60
2, 408576, Note_on_c, 0, 61, 60
2, 408764, Note_off_c, 0, 64, 0
2, 408764, Note_off_c, 0, 61, 0
2, 408768, Note_on_c, 0, 65, 60
2, 408768, Note_on_c, 0, 62, 60
2, 408956, Note_off_c, 0, 65, 0
2, 408956, Note_off_c, 0, 62, 0
2, 408960, Note_on_c, 0, 64, 60
2, 408960, Note_on_c, 0, 61, 60
2, 409340, Note_off_c, 0, 64, 0
2, 409340, Note_off_c, 0, 61, 0
2, 410112, Note_on_c, 0, 64, 45
2, 410112, Note_on_c, 0, 60, 45
2, 410300, Note_off_c, 0, 64, 0
2, 410300, Note_off_c, 0, 60, 0
2, 410304, Note_on_c, 0, 65, 45
2, 410304, Note_on_c, 0, 62, 45
2, 410492, Note_off_c, 0, 65, 0
2, 410492, Note_off_c, 0, 62, 0
2, 410496, Note_on_c, 0, 64, 45
2, 410496, Note_on_c, 0, 60, 45
2, 410684, Note_off_c, 0, 64, 0
2, 410684, Note_off_c, 0, 60, 0
2, 410688, Note_on_c, 0, 65, 45
2, 410688, Note_on_c, 0, 62, 45
2, 410876, Note_off_c, 0, 65, 0
2, 410876, Note_off_c, 0, 62, 0
2, 410880, Note_on_c, 0, 64, 45
2, 410880, Note_on_c, 0, 60, 45
2, 411068, Note_off_c, 0, 64, 0
2, 411068, Note_off_c, 0, 60, 0
2, 411072, Note_on_c, 0, 65, 45
2, 411072, Note_on_c, 0, 62, 45
2, 411260, Note_off_c, 0, 65, 0
2, 411260, Note_off_c, 0, 62, 0
2, 411264, Note_on_c, 0, 64, 45
2, 411264, Note_on_c, 0, 60, 45
2, 411644, Note_off_c, 0, 64, 0
2, 411644, Note_off_c, 0, 60, 0
2, 412416, Note_on_c, 0, 64, 90
2, 412416, Note_on_c, 0, 60, 90
2, 412416, Note_on_c, 0, 58, 90
2, 412604, Note_off_c, 0, 64, 0
2, 412608, Note_on_c, 0, 65, 90
2, 412796, Note_off_c, 0, 65, 0
2, 412816, Note_on_c, 0, 64, 90
2, 412992, Note_on_c, 0, 65, 90
2, 413004, Note_off_c, 0, 64, 0
2, 413180, Note_off_c, 0, 65, 0
2, 413184, Note_on_c, 0, 64, 90
2, 413372, Note_off_c, 0, 64, 0
2, 413376, Note_on_c, 0, 65, 90
2, 413564, Note_off_c, 0, 60, 0
2, 413564, Note_off_c, 0, 58, 0
2, 413564, Note_off_c, 0, 65, 0
2, 413568, Note_on_c, 0, 64, 90
2, 413568, Note_on_c, 0, 60, 90
2, 413568, Note_on_c, 0, 58, 90
2, 413948, Note_off_c, 0, 64, 0
2, 413948, Note_off_c, 0, 60, 0
2, 413948, Note_off_c, 0, 58, 0
2, 414720, Note_on_c, 0, 76, 60
2, 414720, Note_on_c, 0, 82, 60
2, 414720, Note_on_c, 0, 67, 60
2, 414720, Note_on_c, 0, 60, 60
2, 414908, Note_off_c, 0, 82, 0
2, 414908, Note_off_c, 0, 67, 0
2, 414912, Note_on_c, 0, 81, 60
2, 414912, Note_on_c, 0, 66, 60
2, 415100, Note_off_c, 0, 81, 0
2, 415100, Note_off_c, 0, 66, 0
2, 415104, Note_on_c, 0, 82, 60
2, 415104, Note_on_c, 0, 67, 60
2, 415292, Note_off_c, 0, 82, 0
2, 415292, Note_off_c, 0, 67, 0
2, 415296, Note_on_c, 0, 81, 60
2, 415296, Note_on_c, 0, 66, 60
2, 415484, Note_off_c, 0, 81, 0
2, 415484, Note_off_c, 0, 66, 0
2, 415488, Note_on_c, 0, 82, 60
2, 415488, Note_on_c, 0, 67, 60
2, 415676, Note_off_c, 0, 82, 0
2, 415676, Note_off_c, 0, 67, 0
2, 415680, Note_on_c, 0, 81, 60
2, 415680, Note_on_c, 0, 66, 60
2, 415868, Note_off_c, 0, 76, 0
2, 415868, Note_off_c, 0, 60, 0
2, 415868, Note_off_c, 0, 81, 0
2, 415868, Note_off_c, 0, 66, 0
2, 415872, Note_on_c, 0, 82, 60
2, 415872, Note_on_c, 0, 76, 60
2, 415872, Note_on_c, 0, 67, 60
2, 415872, Note_on_c, 0, 60, 60
2, 416252, Note_off_c, 0, 82, 0
2, 416252, Note_off_c, 0, 76, 0
2, 416252, Note_off_c, 0, 67, 0
2, 416252, Note_off_c, 0, 60, 0
2, 417024, Note_on_c, 0, 65, 60
2, 417788, Note_off_c, 0, 65, 0
2, 417792, Note_on_c, 0, 69, 60
2, 418172, Note_off_c, 0, 69, 0
2, 418176, Note_on_c, 0, 72, 60
2, 418940, Note_off_c, 0, 72, 0
2, 418944, Note_on_c, 0, 69, 60
2, 419324, Note_off_c, 0, 69, 0
2, 419328, Note_on_c, 0, 70, 60
2, 420092, Note_off_c, 0, 70, 0
2, 420096, Note_on_c, 0, 79, 60
2, 420476, Note_off_c, 0, 79, 0
2, 420480, Note_on_c, 0, 77, 60
2, 420668, Note_off_c, 0, 77, 0
2, 420672, Note_on_c, 0, 76, 60
2, 420860, Note_off_c, 0, 76, 0
2, 420864, Note_on_c, 0, 76, 60
2, 421244, Note_off_c, 0, 76, 0
2, 421632, Note_on_c, 0, 77, 82
2, 422012, Note_off_c, 0, 77, 0
2, 422016, Note_on_c, 0, 69, 84
2, 422396, Note_off_c, 0, 69, 0
2, 422400, Note_on_c, 0, 74, 82
2, 422780, Note_off_c, 0, 74, 0
2, 422784, Note_on_c, 0, 67, 84
2, 423164, Note_off_c, 0, 67, 0
2, 423184, Note_on_c, 0, 72, 97
2, 423744, Note_on_c, 0, 69, 60
2, 423756, Note_off_c, 0, 72, 0
2, 423932, Note_off_c, 0, 69, 0
2, 423936, Note_on_c, 0, 65, 60
2, 425084, Note_off_c, 0, 65, 0
2, 425088, Note_on_c, 0, 67, 60
2, 425088, Note_on_c, 0, 65, 60
2, 425468, Note_off_c, 0, 65, 0
2, 425472, Note_on_c, 0, 64, 60
2, 425660, Note_off_c, 0, 64, 0
2, 425664, Note_on_c, 0, 62, 60
2, 425852, Note_off_c, 0, 62, 0
2, 425856, Note_on_c, 0, 64, 60
2, 426236, Note_off_c, 0, 67, 0
2, 426236, Note_off_c, 0, 64, 0
2, 426240, Note_on_c, 0, 69, 60
2, 426240, Note_on_c, 0, 65, 60
2, 426620, Note_off_c, 0, 69, 0
2, 426624, Note_on_c, 0, 70, 60
2, 427004, Note_off_c, 0, 70, 0
2, 427008, Note_on_c, 0, 74, 60
2, 427388, Note_off_c, 0, 65, 0
2, 427388, Note_off_c, 0, 74, 0
2, 427392, Note_on_c, 0, 65, 60
2, 427392, Note_on_c, 0, 74, 60
2, 427580, Note_off_c, 0, 74, 0
2, 427584, Note_on_c, 0, 72, 63
2, 427772, Note_off_c, 0, 65, 0
2, 427772, Note_off_c, 0, 72, 0
2, 427776, Note_on_c, 0, 70, 69
2, 427964, Note_off_c, 0, 70, 0
2, 427968, Note_on_c, 0, 69, 75
2, 428156, Note_off_c, 0, 69, 0
2, 428160, Note_on_c, 0, 67, 81
2, 428348, Note_off_c, 0, 67, 0
2, 428352, Note_on_c, 0, 65, 87
2, 428540, Note_off_c, 0, 65, 0
2, 428544, Note_on_c, 0, 67, 90
2, 428924, Note_off_c, 0, 67, 0
2, 428928, Note_on_c, 0, 70, 90
2, 429308, Note_off_c, 0, 70, 0
2, 429312, Note_on_c, 0, 64, 90
2, 429312, Note_on_c, 0, 58, 90
2, 429692, Note_off_c, 0, 64, 0
2, 429692, Note_off_c, 0, 58, 0
2, 429696, Note_on_c, 0, 65, 90
2, 429696, Note_on_c, 0, 57, 90
2, 430076, Note_off_c, 0, 65, 0
2, 430076, Note_off_c, 0, 57, 0
2, 430464, Note_on_c, 0, 69, 60
2, 430464, Note_on_c, 0, 72, 60
2, 430480, Note_on_c, 0, 84, 60
2, 430748, Note_off_c, 0, 69, 0
2, 430748, Note_off_c, 0, 72, 0
2, 430752, Note_on_c, 0, 82, 60
2, 430752, Note_on_c, 0, 70, 60
2, 430752, Note_on_c, 0, 67, 60
2, 430764, Note_off_c, 0, 84, 0
2, 430844, Note_off_c, 0, 82, 0
2, 430844, Note_off_c, 0, 70, 0
2, 430844, Note_off_c, 0, 67, 0
2, 430848, Note_on_c, 0, 81, 60
2, 430848, Note_on_c, 0, 69, 60
2, 430848, Note_on_c, 0, 65, 60
2, 431228, Note_off_c, 0, 81, 0
2, 431228, Note_off_c, 0, 69, 0
2, 431228, Note_off_c, 0, 65, 0
2, 431232, Note_on_c, 0, 81, 60
2, 431232, Note_on_c, 0, 69, 60
2, 431232, Note_on_c, 0, 65, 60
2, 431612, Note_off_c, 0, 81, 0
2, 431612, Note_off_c, 0, 69, 0
2, 431612, Note_off_c, 0, 65, 0
2, 431616, Note_on_c, 0, 81, 60
2, 431616, Note_on_c, 0, 69, 60
2, 431616, Note_on_c, 0, 65, 60
2, 431900, Note_off_c, 0, 81, 0
2, 431900, Note_off_c, 0, 69, 0
2, 431900, Note_off_c, 0, 65, 0
2, 431904, Note_on_c, 0, 79, 60
2, 431904, Note_on_c, 0, 67, 60
2, 431904, Note_on_c, 0, 60, 60
2, 431996, Note_off_c, 0, 79, 0
2, 431996, Note_off_c, 0, 67, 0
2, 431996, Note_off_c, 0, 60, 0
2, 432000, Note_on_c, 0, 77, 60
2, 432000, Note_on_c, 0, 65, 60
2, 432000, Note_on_c, 0, 57, 60
2, 432380, Note_off_c, 0, 77, 0
2, 432380, Note_off_c, 0, 65, 0
2, 432380, Note_off_c, 0, 57, 0
2, 432384, Note_on_c, 0, 77, 60
2, 432384, Note_on_c, 0, 65, 60
2, 432384, Note_on_c, 0, 57, 60
2, 432764, Note_off_c, 0, 77, 0
2, 432764, Note_off_c, 0, 65, 0
2, 432764, Note_off_c, 0, 57, 0
2, 432768, Note_on_c, 0, 77, 60
2, 432768, Note_on_c, 0, 65, 60
2, 432768, Note_on_c, 0, 57, 60
2, 433148, Note_off_c, 0, 77, 0
2, 433148, Note_off_c, 0, 65, 0
2, 433148, Note_off_c, 0, 57, 0
2, 433152, Note_on_c, 0, 79, 60
2, 433152, Note_on_c, 0, 76, 60
2, 433152, Note_on_c, 0, 67, 60
2, 433152, Note_on_c, 0, 60, 60
2, 433532, Note_off_c, 0, 79, 0
2, 433532, Note_off_c, 0, 76, 0
2, 433532, Note_off_c, 0, 67, 0
2, 433532, Note_off_c, 0, 60, 0
2, 433536, Note_on_c, 0, 79, 60
2, 433536, Note_on_c, 0, 67, 60
2, 433536, Note_on_c, 0, 60, 60
2, 433552, Note_on_c, 0, 76, 60
2, 433904, Note_on_c, 0, 76, 60
2, 433916, Note_off_c, 0, 79, 0
2, 433916, Note_off_c, 0, 67, 0
2, 433916, Note_off_c, 0, 60, 0
2, 433920, Note_on_c, 0, 79, 60
2, 433920, Note_on_c, 0, 67, 60
2, 433920, Note_on_c, 0, 60, 60
2, 433932, Note_off_c, 0, 76, 0
2, 434284, Note_off_c, 0, 76, 0
2, 434300, Note_off_c, 0, 79, 0
2, 434300, Note_off_c, 0, 67, 0
2, 434300, Note_off_c, 0, 60, 0
2, 434304, Note_on_c, 0, 79, 60
2, 434304, Note_on_c, 0, 76, 60
2, 434304, Note_on_c, 0, 67, 60
2, 434304, Note_on_c, 0, 60, 60
2, 434684, Note_off_c, 0, 79, 0
2, 434684, Note_off_c, 0, 76, 0
2, 434684, Note_off_c, 0, 67, 0
2, 434684, Note_off_c, 0, 60, 0
2, 434688, Note_on_c, 0, 81, 60
2, 434688, Note_on_c, 0, 65, 60
2, 434688, Note_on_c, 0, 69, 60
2, 434704, Note_on_c, 0, 77, 60
2, 435068, Note_off_c, 0, 81, 0
2, 435068, Note_off_c, 0, 65, 0
2, 435068, Note_off_c, 0, 69, 0
2, 435072, Note_on_c, 0, 84, 60
2, 435072, Note_on_c, 0, 69, 60
2, 435084, Note_off_c, 0, 77, 0
2, 435088, Note_on_c, 0, 72, 60
2, 435164, Note_off_c, 0, 84, 0
2, 435168, Note_on_c, 0, 86, 60
2, 435260, Note_off_c, 0, 86, 0
2, 435264, Note_on_c, 0, 84, 60
2, 435356, Note_off_c, 0, 69, 0
2, 435356, Note_off_c, 0, 84, 0
2, 435360, Note_on_c, 0, 82, 60
2, 435360, Note_on_c, 0, 70, 60
2, 435360, Note_on_c, 0, 67, 60
2, 435372, Note_off_c, 0, 72, 0
2, 435452, Note_off_c, 0, 82, 0
2, 435452, Note_off_c, 0, 70, 0
2, 435452, Note_off_c, 0, 67, 0
2, 435456, Note_on_c, 0, 81, 60
2, 435456, Note_on_c, 0, 69, 60
2, 435456, Note_on_c, 0, 65, 60
2, 435824, Note_on_c, 0, 81, 60
2, 435836, Note_off_c, 0, 81, 0
2, 435836, Note_off_c, 0, 69, 0
2, 435836, Note_off_c, 0, 65, 0
2, 435840, Note_on_c, 0, 69, 60
2, 435840, Note_on_c, 0, 65, 60
2, 436204, Note_off_c, 0, 81, 0
2, 436220, Note_off_c, 0, 69, 0
2, 436220, Note_off_c, 0, 65, 0
2, 436224, Note_on_c, 0, 81, 60
2, 436224, Note_on_c, 0, 69, 60
2, 436224, Note_on_c, 0, 65, 60
2, 436316, Note_off_c, 0, 81, 0
2, 436320, Note_on_c, 0, 82, 60
2, 436412, Note_off_c, 0, 82, 0
2, 436416, Note_on_c, 0, 81, 60
2, 436508, Note_off_c, 0, 69, 0
2, 436508, Note_off_c, 0, 65, 0
2, 436508, Note_off_c, 0, 81, 0
2, 436512, Note_on_c, 0, 79, 60
2, 436512, Note_on_c, 0, 67, 60
2, 436512, Note_on_c, 0, 60, 60
2, 436604, Note_off_c, 0, 79, 0
2, 436604, Note_off_c, 0, 67, 0
2, 436604, Note_off_c, 0, 60, 0
2, 436608, Note_on_c, 0, 77, 60
2, 436608, Note_on_c, 0, 65, 60
2, 436608, Note_on_c, 0, 57, 60
2, 436988, Note_off_c, 0, 77, 0
2, 436988, Note_off_c, 0, 65, 0
2, 436988, Note_off_c, 0, 57, 0
2, 436992, Note_on_c, 0, 77, 60
2, 436992, Note_on_c, 0, 65, 60
2, 436992, Note_on_c, 0, 57, 60
2, 437372, Note_off_c, 0, 77, 0
2, 437372, Note_off_c, 0, 65, 0
2, 437372, Note_off_c, 0, 57, 0
2, 437376, Note_on_c, 0, 77, 60
2, 437376, Note_on_c, 0, 65, 60
2, 437376, Note_on_c, 0, 57, 60
2, 437756, Note_off_c, 0, 77, 0
2, 437756, Note_off_c, 0, 65, 0
2, 437756, Note_off_c, 0, 57, 0
2, 437760, Note_on_c, 0, 79, 60
2, 437760, Note_on_c, 0, 67, 60
2, 437760, Note_on_c, 0, 60, 60
2, 438140, Note_off_c, 0, 79, 0
2, 438140, Note_off_c, 0, 67, 0
2, 438140, Note_off_c, 0, 60, 0
2, 438144, Note_on_c, 0, 82, 60
2, 438524, Note_off_c, 0, 82, 0
2, 438528, Note_on_c, 0, 76, 60
2, 438528, Note_on_c, 0, 70, 60
2, 438528, Note_on_c, 0, 67, 60
2, 438528, Note_on_c, 0, 60, 60
2, 438908, Note_off_c, 0, 76, 0
2, 438908, Note_off_c, 0, 70, 0
2, 438908, Note_off_c, 0, 67, 0
2, 438908, Note_off_c, 0, 60, 0
2, 438912, Note_on_c, 0, 77, 60
2, 438912, Note_on_c, 0, 69, 60
2, 438912, Note_on_c, 0, 65, 60
2, 439292, Note_off_c, 0, 77, 0
2, 439292, Note_off_c, 0, 69, 0
2, 439292, Note_off_c, 0, 65, 0
2, 439680, Note_on_c, 0, 84, 60
2, 439680, Note_on_c, 0, 70, 60
2, 439680, Note_on_c, 0, 64, 60
2, 439680, Note_on_c, 0, 60, 60
2, 440060, Note_off_c, 0, 84, 0
2, 440060, Note_off_c, 0, 70, 0
2, 440060, Note_off_c, 0, 64, 0
2, 440060, Note_off_c, 0, 60, 0
2, 440064, Note_on_c, 0, 77, 60
2, 440064, Note_on_c, 0, 65, 60
2, 440064, Note_on_c, 0, 69, 60
2, 440444, Note_off_c, 0, 77, 0
2, 440444, Note_off_c, 0, 65, 0
2, 440444, Note_off_c, 0, 69, 0
2, 440832, Note_on_c, 0, 72, 60
2, 441212, Note_off_c, 0, 72, 0
2, 441216, Note_on_c, 0, 65, 60
2, 441596, Note_off_c, 0, 65, 0
2, 441984, Note_on_c, 0, 61, 60
2, 442364, Note_off_c, 0, 61, 0
2, 442368, Note_on_c, 0, 62, 90
2, 442940, Note_off_c, 0, 62, 0
2, 442944, Note_on_c, 0, 65, 90
2, 443036, Note_off_c, 0, 65, 0
2, 443040, Note_on_c, 0, 69, 90
2, 443132, Note_off_c, 0, 69, 0
2, 443136, Note_on_c, 0, 74, 90
2, 443324, Note_off_c, 0, 74, 0
2, 443328, Note_on_c, 0, 69, 90
2, 443420, Note_off_c, 0, 69, 0
2, 443424, Note_on_c, 0, 74, 90
2, 443516, Note_off_c, 0, 74, 0
2, 443520, Note_on_c, 0, 77, 90
2, 443708, Note_off_c, 0, 77, 0
2, 443712, Note_on_c, 0, 74, 90
2, 443804, Note_off_c, 0, 74, 0
2, 443808, Note_on_c, 0, 77, 90
2, 443900, Note_off_c, 0, 77, 0
2, 443904, Note_on_c, 0, 81, 90
2, 444092, Note_off_c, 0, 81, 0
2, 444096, Note_on_c, 0, 81, 90
2, 444284, Note_off_c, 0, 81, 0
2, 444288, Note_on_c, 0, 77, 90
2, 444476, Note_off_c, 0, 77, 0
2, 444480, Note_on_c, 0, 74, 90
2, 444668, Note_off_c, 0, 74, 0
2, 444672, Note_on_c, 0, 73, 97
2, 444736, Note_off_c, 0, 73, 0
2, 444736, Note_on_c, 0, 76, 97
2, 444800, Note_off_c, 0, 76, 0
2, 444800, Note_on_c, 0, 79, 97
2, 444864, Note_off_c, 0, 79, 0
2, 444864, Note_on_c, 0, 82, 97
2, 445244, Note_off_c, 0, 82, 0
2, 445248, Note_on_c, 0, 81, 60
2, 445340, Note_off_c, 0, 81, 0
2, 445344, Note_on_c, 0, 79, 60
2, 445436, Note_off_c, 0, 79, 0
2, 445440, Note_on_c, 0, 77, 60
2, 445532, Note_off_c, 0, 77, 0
2, 445536, Note_on_c, 0, 76, 60
2, 445628, Note_off_c, 0, 76, 0
2, 445632, Note_on_c, 0, 74, 60
2, 445724, Note_off_c, 0, 74, 0
2, 445728, Note_on_c, 0, 73, 60
2, 445820, Note_off_c, 0, 73, 0
2, 445824, Note_on_c, 0, 82, 97
2, 446396, Note_off_c, 0, 82, 0
2, 446400, Note_on_c, 0, 81, 60
2, 446492, Note_off_c, 0, 81, 0
2, 446496, Note_on_c, 0, 79, 60
2, 446588, Note_off_c, 0, 79, 0
2, 446592, Note_on_c, 0, 77, 60
2, 446684, Note_off_c, 0, 77, 0
2, 446688, Note_on_c, 0, 76, 60
2, 446780, Note_off_c, 0, 76, 0
2, 446784, Note_on_c, 0, 74, 60
2, 446876, Note_off_c, 0, 74, 0
2, 446880, Note_on_c, 0, 73, 60
2, 446972, Note_off_c, 0, 73, 0
2, 446976, Note_on_c, 0, 74, 90
2, 447548, Note_off_c, 0, 74, 0
2, 447552, Note_on_c, 0, 65, 90
2, 447644, Note_off_c, 0, 65, 0
2, 447648, Note_on_c, 0, 69, 90
2, 447740, Note_off_c, 0, 69, 0
2, 447744, Note_on_c, 0, 74, 90
2, 447932, Note_off_c, 0, 74, 0
2, 447936, Note_on_c, 0, 69, 90
2, 448028, Note_off_c, 0, 69, 0
2, 448032, Note_on_c, 0, 74, 90
2, 448124, Note_off_c, 0, 74, 0
2, 448128, Note_on_c, 0, 77, 90
2, 448316, Note_off_c, 0, 77, 0
2, 448320, Note_on_c, 0, 74, 90
2, 448412, Note_off_c, 0, 74, 0
2, 448416, Note_on_c, 0, 77, 90
2, 448508, Note_off_c, 0, 77, 0
2, 448512, Note_on_c, 0, 81, 90
2, 448700, Note_off_c, 0, 81, 0
2, 448704, Note_on_c, 0, 81, 90
2, 448892, Note_off_c, 0, 81, 0
2, 448912, Note_on_c, 0, 77, 90
2, 449088, Note_on_c, 0, 74, 90
2, 449100, Note_off_c, 0, 77, 0
2, 449276, Note_off_c, 0, 74, 0
2, 449280, Note_on_c, 0, 71, 97
2, 449296, Note_on_c, 0, 74, 97
2, 449316, Note_on_c, 0, 77, 97
2, 449336, Note_on_c, 0, 80, 97
2, 449852, Note_off_c, 0, 71, 0
2, 449856, Note_on_c, 0, 79, 90
2, 449868, Note_off_c, 0, 74, 0
2, 449888, Note_off_c, 0, 77, 0
2, 449908, Note_off_c, 0, 80, 0
2, 449948, Note_off_c, 0, 79, 0
2, 449952, Note_on_c, 0, 77, 90
2, 450044, Note_off_c, 0, 77, 0
2, 450048, Note_on_c, 0, 75, 90
2, 450140, Note_off_c, 0, 75, 0
2, 450144, Note_on_c, 0, 74, 90
2, 450236, Note_off_c, 0, 74, 0
2, 450240, Note_on_c, 0, 72, 90
2, 450332, Note_off_c, 0, 72, 0
2, 450336, Note_on_c, 0, 71, 90
2, 450428, Note_off_c, 0, 71, 0
2, 450432, Note_on_c, 0, 80, 97
2, 451004, Note_off_c, 0, 80, 0
2, 451008, Note_on_c, 0, 79, 90
2, 451100, Note_off_c, 0, 79, 0
2, 451104, Note_on_c, 0, 77, 90
2, 451196, Note_off_c, 0, 77, 0
2, 451200, Note_on_c, 0, 75, 90
2, 451292, Note_off_c, 0, 75, 0
2, 451296, Note_on_c, 0, 74, 90
2, 451388, Note_off_c, 0, 74, 0
2, 451392, Note_on_c, 0, 72, 90
2, 451484, Note_off_c, 0, 72, 0
2, 451488, Note_on_c, 0, 71, 90
2, 451580, Note_off_c, 0, 71, 0
2, 451584, Note_on_c, 0, 72, 90
2, 452156, Note_off_c, 0, 72, 0
2, 452160, Note_on_c, 0, 63, 90
2, 452240, Note_on_c, 0, 67, 90
2, 452252, Note_off_c, 0, 63, 0
2, 452332, Note_off_c, 0, 67, 0
2, 452352, Note_on_c, 0, 72, 90
2, 452540, Note_off_c, 0, 72, 0
2, 452560, Note_on_c, 0, 67, 90
2, 452640, Note_on_c, 0, 72, 90
2, 452652, Note_off_c, 0, 67, 0
2, 452732, Note_off_c, 0, 72, 0
2, 452736, Note_on_c, 0, 75, 90
2, 452924, Note_off_c, 0, 75, 0
2, 452928, Note_on_c, 0, 72, 90
2, 453020, Note_off_c, 0, 72, 0
2, 453024, Note_on_c, 0, 75, 90
2, 453116, Note_off_c, 0, 75, 0
2, 453120, Note_on_c, 0, 79, 90
2, 453308, Note_off_c, 0, 79, 0
2, 453312, Note_on_c, 0, 79, 90
2, 453500, Note_off_c, 0, 79, 0
2, 453504, Note_on_c, 0, 75, 90
2, 453692, Note_off_c, 0, 75, 0
2, 453696, Note_on_c, 0, 72, 90
2, 453884, Note_off_c, 0, 72, 0
2, 453888, Note_on_c, 0, 69, 97
2, 453904, Note_on_c, 0, 72, 97
2, 453924, Note_on_c, 0, 75, 97
2, 453944, Note_on_c, 0, 78, 97
2, 454268, Note_off_c, 0, 69, 0
2, 454284, Note_off_c, 0, 72, 0
2, 454304, Note_off_c, 0, 75, 0
2, 454324, Note_off_c, 0, 78, 0
2, 454464, Note_on_c, 0, 77, 90
2, 454556, Note_off_c, 0, 77, 0
2, 454560, Note_on_c, 0, 76, 90
2, 454652, Note_off_c, 0, 76, 0
2, 454656, Note_on_c, 0, 73, 90
2, 454748, Note_off_c, 0, 73, 0
2, 454752, Note_on_c, 0, 72, 90
2, 454844, Note_off_c, 0, 72, 0
2, 454848, Note_on_c, 0, 70, 90
2, 454940, Note_off_c, 0, 70, 0
2, 454944, Note_on_c, 0, 69, 90
2, 455036, Note_off_c, 0, 69, 0
2, 455040, Note_on_c, 0, 78, 97
2, 455612, Note_off_c, 0, 78, 0
2, 455616, Note_on_c, 0, 77, 90
2, 455708, Note_off_c, 0, 77, 0
2, 455712, Note_on_c, 0, 75, 90
2, 455804, Note_off_c, 0, 75, 0
2, 455808, Note_on_c, 0, 73, 90
2, 455900, Note_off_c, 0, 73, 0
2, 455904, Note_on_c, 0, 72, 90
2, 455996, Note_off_c, 0, 72, 0
2, 456000, Note_on_c, 0, 70, 90
2, 456092, Note_off_c, 0, 70, 0
2, 456096, Note_on_c, 0, 69, 90
2, 456188, Note_off_c, 0, 69, 0
2, 456192, Note_on_c, 0, 70, 90
2, 456572, Note_off_c, 0, 70, 0
2, 456576, Note_on_c, 0, 70, 90
2, 456668, Note_off_c, 0, 70, 0
2, 456672, Note_on_c, 0, 65, 90
2, 456764, Note_off_c, 0, 65, 0
2, 456768, Note_on_c, 0, 70, 90
2, 456860, Note_off_c, 0, 70, 0
2, 456864, Note_on_c, 0, 65, 90
2, 456956, Note_off_c, 0, 65, 0
2, 456960, Note_on_c, 0, 73, 90
2, 457052, Note_off_c, 0, 73, 0
2, 457056, Note_on_c, 0, 70, 90
2, 457148, Note_off_c, 0, 70, 0
2, 457152, Note_on_c, 0, 73, 90
2, 457244, Note_off_c, 0, 73, 0
2, 457248, Note_on_c, 0, 70, 90
2, 457340, Note_off_c, 0, 70, 0
2, 457344, Note_on_c, 0, 77, 90
2, 457436, Note_off_c, 0, 77, 0
2, 457440, Note_on_c, 0, 73, 90
2, 457532, Note_off_c, 0, 73, 0
2, 457536, Note_on_c, 0, 77, 90
2, 457628, Note_off_c, 0, 77, 0
2, 457632, Note_on_c, 0, 73, 90
2, 457724, Note_off_c, 0, 73, 0
2, 457744, Note_on_c, 0, 82, 90
2, 458124, Note_off_c, 0, 82, 0
2, 458496, Note_on_c, 0, 69, 90
2, 458876, Note_off_c, 0, 69, 0
2, 458880, Note_on_c, 0, 69, 90
2, 458972, Note_off_c, 0, 69, 0
2, 458976, Note_on_c, 0, 65, 90
2, 459068, Note_off_c, 0, 65, 0
2, 459072, Note_on_c, 0, 69, 90
2, 459164, Note_off_c, 0, 69, 0
2, 459168, Note_on_c, 0, 65, 90
2, 459260, Note_off_c, 0, 65, 0
2, 459264, Note_on_c, 0, 72, 90
2, 459356, Note_off_c, 0, 72, 0
2, 459360, Note_on_c, 0, 69, 90
2, 459452, Note_off_c, 0, 69, 0
2, 459456, Note_on_c, 0, 72, 90
2, 459548, Note_off_c, 0, 72, 0
2, 459552, Note_on_c, 0, 69, 90
2, 459644, Note_off_c, 0, 69, 0
2, 459648, Note_on_c, 0, 77, 90
2, 459740, Note_off_c, 0, 77, 0
2, 459744, Note_on_c, 0, 72, 90
2, 459836, Note_off_c, 0, 72, 0
2, 459840, Note_on_c, 0, 77, 90
2, 459932, Note_off_c, 0, 77, 0
2, 459936, Note_on_c, 0, 72, 90
2, 460028, Note_off_c, 0, 72, 0
2, 460032, Note_on_c, 0, 81, 90
2, 460412, Note_off_c, 0, 81, 0
2, 460800, Note_on_c, 0, 68, 90
2, 461180, Note_off_c, 0, 68, 0
2, 461184, Note_on_c, 0, 68, 90
2, 461276, Note_off_c, 0, 68, 0
2, 461280, Note_on_c, 0, 65, 90
2, 461372, Note_off_c, 0, 65, 0
2, 461376, Note_on_c, 0, 68, 90
2, 461468, Note_off_c, 0, 68, 0
2, 461472, Note_on_c, 0, 65, 90
2, 461564, Note_off_c, 0, 65, 0
2, 461568, Note_on_c, 0, 74, 90
2, 461660, Note_off_c, 0, 74, 0
2, 461664, Note_on_c, 0, 68, 90
2, 461756, Note_off_c, 0, 68, 0
2, 461760, Note_on_c, 0, 74, 90
2, 461852, Note_off_c, 0, 74, 0
2, 461856, Note_on_c, 0, 68, 90
2, 461948, Note_off_c, 0, 68, 0
2, 461952, Note_on_c, 0, 77, 90
2, 462044, Note_off_c, 0, 77, 0
2, 462048, Note_on_c, 0, 74, 90
2, 462140, Note_off_c, 0, 74, 0
2, 462144, Note_on_c, 0, 77, 90
2, 462236, Note_off_c, 0, 77, 0
2, 462240, Note_on_c, 0, 74, 90
2, 462332, Note_off_c, 0, 74, 0
2, 462336, Note_on_c, 0, 80, 90
2, 462716, Note_off_c, 0, 80, 0
2, 462720, Note_on_c, 0, 77, 90
2, 463100, Note_off_c, 0, 77, 0
2, 463104, Note_on_c, 0, 72, 90
2, 463148, Note_off_c, 0, 72, 0
2, 463152, Note_on_c, 0, 76, 90
2, 463196, Note_off_c, 0, 76, 0
2, 463200, Note_on_c, 0, 79, 90
2, 463244, Note_off_c, 0, 79, 0
2, 463296, Note_on_c, 0, 84, 90
2, 463868, Note_off_c, 0, 84, 0
2, 463872, Note_on_c, 0, 82, 90
2, 463964, Note_off_c, 0, 82, 0
2, 463968, Note_on_c, 0, 80, 90
2, 464060, Note_off_c, 0, 80, 0
2, 464064, Note_on_c, 0, 79, 90
2, 464156, Note_off_c, 0, 79, 0
2, 464160, Note_on_c, 0, 77, 90
2, 464252, Note_off_c, 0, 77, 0
2, 464256, Note_on_c, 0, 84, 90
2, 465020, Note_off_c, 0, 84, 0
2, 465024, Note_on_c, 0, 82, 90
2, 465116, Note_off_c, 0, 82, 0
2, 465120, Note_on_c, 0, 80, 90
2, 465212, Note_off_c, 0, 80, 0
2, 465216, Note_on_c, 0, 79, 90
2, 465308, Note_off_c, 0, 79, 0
2, 465312, Note_on_c, 0, 77, 90
2, 465404, Note_off_c, 0, 77, 0
2, 465408, Note_on_c, 0, 72, 90
2, 465980, Note_off_c, 0, 72, 0
2, 465984, Note_on_c, 0, 73, 90
2, 466076, Note_off_c, 0, 73, 0
2, 466080, Note_on_c, 0, 72, 90
2, 466172, Note_off_c, 0, 72, 0
2, 466176, Note_on_c, 0, 70, 90
2, 466268, Note_off_c, 0, 70, 0
2, 466272, Note_on_c, 0, 68, 90
2, 466364, Note_off_c, 0, 68, 0
2, 466368, Note_on_c, 0, 67, 90
2, 466432, Note_on_c, 0, 65, 90
2, 466460, Note_off_c, 0, 67, 0
2, 466524, Note_off_c, 0, 65, 0
2, 466560, Note_on_c, 0, 72, 97
2, 466940, Note_off_c, 0, 72, 0
2, 466944, Note_on_c, 0, 60, 90
2, 467324, Note_off_c, 0, 60, 0
2, 467712, Note_on_c, 0, 60, 60
2, 467804, Note_off_c, 0, 60, 0
2, 467808, Note_on_c, 0, 69, 60
2, 467996, Note_off_c, 0, 69, 0
2, 468096, Note_on_c, 0, 69, 60
2, 468284, Note_off_c, 0, 69, 0
2, 468480, Note_on_c, 0, 69, 60
2, 468668, Note_off_c, 0, 69, 0
2, 468864, Note_on_c, 0, 64, 60
2, 468956, Note_off_c, 0, 64, 0
2, 468960, Note_on_c, 0, 72, 60
2, 469440, Note_on_c, 0, 70, 60
2, 469532, Note_off_c, 0, 72, 0
2, 469628, Note_off_c, 0, 70, 0
2, 469632, Note_on_c, 0, 67, 60
2, 470012, Note_off_c, 0, 67, 0
2, 470016, Note_on_c, 0, 57, 60
2, 470016, Note_on_c, 0, 67, 60
2, 470204, Note_off_c, 0, 67, 0
2, 470208, Note_on_c, 0, 65, 60
2, 470396, Note_off_c, 0, 57, 0
2, 470396, Note_off_c, 0, 65, 0
2, 470400, Note_on_c, 0, 65, 60
2, 470400, Note_on_c, 0, 60, 60
2, 470972, Note_off_c, 0, 65, 0
2, 470972, Note_off_c, 0, 60, 0
2, 470976, Note_on_c, 0, 67, 60
2, 470976, Note_on_c, 0, 64, 60
2, 471164, Note_off_c, 0, 67, 0
2, 471164, Note_off_c, 0, 64, 0
2, 471168, Note_on_c, 0, 67, 60
2, 471168, Note_on_c, 0, 64, 60
2, 471932, Note_off_c, 0, 67, 0
2, 471932, Note_off_c, 0, 64, 0
2, 471936, Note_on_c, 0, 69, 60
2, 471936, Note_on_c, 0, 65, 60
2, 472316, Note_off_c, 0, 69, 0
2, 472316, Note_off_c, 0, 65, 0
2, 472320, Note_on_c, 0, 70, 60
2, 472752, Note_on_c, 0, 72, 60
2, 472796, Note_off_c, 0, 72, 0
2, 472800, Note_on_c, 0, 70, 60
2, 472844, Note_off_c, 0, 70, 0
2, 472848, Note_on_c, 0, 69, 60
2, 472892, Note_off_c, 0, 70, 0
2, 472892, Note_off_c, 0, 69, 0
2, 472944, Note_on_c, 0, 70, 60
2, 473072, Note_off_c, 0, 70, 0
2, 473088, Note_on_c, 0, 72, 60
2, 473276, Note_off_c, 0, 72, 0
2, 473280, Note_on_c, 0, 74, 60
2, 473468, Note_off_c, 0, 74, 0
2, 473472, Note_on_c, 0, 74, 60
2, 473660, Note_off_c, 0, 74, 0
2, 473664, Note_on_c, 0, 72, 60
2, 473852, Note_off_c, 0, 72, 0
2, 473856, Note_on_c, 0, 71, 60
2, 474044, Note_off_c, 0, 71, 0
2, 474048, Note_on_c, 0, 72, 60
2, 474236, Note_off_c, 0, 72, 0
2, 474240, Note_on_c, 0, 70, 60
2, 474428, Note_off_c, 0, 70, 0
2, 474432, Note_on_c, 0, 67, 60
2, 474620, Note_off_c, 0, 67, 0
2, 474624, Note_on_c, 0, 68, 60
2, 474812, Note_off_c, 0, 68, 0
2, 474816, Note_on_c, 0, 69, 60
2, 475004, Note_off_c, 0, 69, 0
2, 475008, Note_on_c, 0, 70, 60
2, 475196, Note_off_c, 0, 70, 0
2, 475200, Note_on_c, 0, 69, 60
2, 475388, Note_off_c, 0, 69, 0
2, 475408, Note_on_c, 0, 72, 60
2, 475584, Note_on_c, 0, 70, 60
2, 475596, Note_off_c, 0, 72, 0
2, 475772, Note_off_c, 0, 70, 0
2, 475776, Note_on_c, 0, 69, 60
2, 475964, Note_off_c, 0, 69, 0
2, 475968, Note_on_c, 0, 67, 60
2, 476156, Note_off_c, 0, 67, 0
2, 476160, Note_on_c, 0, 65, 60
2, 476348, Note_off_c, 0, 65, 0
2, 476352, Note_on_c, 0, 64, 60
2, 476540, Note_off_c, 0, 64, 0
2, 476544, Note_on_c, 0, 62, 60
2, 476732, Note_off_c, 0, 62, 0
2, 476736, Note_on_c, 0, 60, 60
2, 476924, Note_off_c, 0, 60, 0
2, 476928, Note_on_c, 0, 68, 60
2, 476960, Note_on_c, 0, 80, 60
2, 477116, Note_off_c, 0, 68, 0
2, 477120, Note_on_c, 0, 69, 60
2, 477120, Note_on_c, 0, 81, 60
2, 477148, Note_off_c, 0, 80, 0
2, 477308, Note_off_c, 0, 69, 0
2, 477308, Note_off_c, 0, 81, 0
2, 477312, Note_on_c, 0, 68, 60
2, 477312, Note_on_c, 0, 80, 60
2, 477500, Note_off_c, 0, 68, 0
2, 477500, Note_off_c, 0, 80, 0
2, 477504, Note_on_c, 0, 69, 60
2, 477504, Note_on_c, 0, 81, 60
2, 477692, Note_off_c, 0, 69, 0
2, 477692, Note_off_c, 0, 81, 0
2, 477696, Note_on_c, 0, 68, 60
2, 477712, Note_on_c, 0, 80, 60
2, 477884, Note_off_c, 0, 68, 0
2, 477888, Note_on_c, 0, 69, 60
2, 477888, Note_on_c, 0, 81, 60
2, 477900, Note_off_c, 0, 80, 0
2, 478076, Note_off_c, 0, 69, 0
2, 478076, Note_off_c, 0, 81, 0
2, 478080, Note_on_c, 0, 83, 60
2, 478080, Note_on_c, 0, 71, 60
2, 478268, Note_off_c, 0, 83, 0
2, 478268, Note_off_c, 0, 71, 0
2, 478272, Note_on_c, 0, 84, 60
2, 478272, Note_on_c, 0, 72, 60
2, 478460, Note_off_c, 0, 84, 0
2, 478460, Note_off_c, 0, 72, 0
2, 478464, Note_on_c, 0, 83, 60
2, 478464, Note_on_c, 0, 71, 60
2, 478652, Note_off_c, 0, 83, 0
2, 478652, Note_off_c, 0, 71, 0
2, 478656, Note_on_c, 0, 84, 60
2, 478656, Note_on_c, 0, 72, 60
2, 478844, Note_off_c, 0, 84, 0
2, 478844, Note_off_c, 0, 72, 0
2, 478848, Note_on_c, 0, 82, 60
2, 479036, Note_off_c, 0, 82, 0
2, 479040, Note_on_c, 0, 79, 60
2, 479228, Note_off_c, 0, 79, 0
2, 479232, Note_on_c, 0, 79, 60
2, 479420, Note_off_c, 0, 79, 0
2, 479424, Note_on_c, 0, 77, 60
2, 479612, Note_off_c, 0, 77, 0
2, 479616, Note_on_c, 0, 79, 60
2, 479632, Note_on_c, 0, 72, 60
2, 479804, Note_off_c, 0, 79, 0
2, 479808, Note_on_c, 0, 77, 60
2, 479996, Note_off_c, 0, 77, 0
2, 480000, Note_on_c, 0, 81, 60
2, 480000, Note_on_c, 0, 76, 60
2, 480012, Note_off_c, 0, 72, 0
2, 480188, Note_off_c, 0, 81, 0
2, 480192, Note_on_c, 0, 79, 60
2, 480380, Note_off_c, 0, 76, 0
2, 480380, Note_off_c, 0, 79, 0
2, 480384, Note_on_c, 0, 79, 60
2, 480384, Note_on_c, 0, 76, 60
2, 480956, Note_off_c, 0, 79, 0
2, 480960, Note_on_c, 0, 80, 60
2, 481148, Note_off_c, 0, 76, 0
2, 481148, Note_off_c, 0, 80, 0
2, 481152, Note_on_c, 0, 81, 60
2, 481152, Note_on_c, 0, 77, 60
2, 481532, Note_off_c, 0, 81, 0
2, 481532, Note_off_c, 0, 77, 0
2, 481536, Note_on_c, 0, 82, 60
2, 481536, Note_on_c, 0, 62, 60
2, 481712, Note_on_c, 0, 65, 60
2, 481724, Note_off_c, 0, 62, 0
2, 481900, Note_off_c, 0, 65, 0
2, 481920, Note_on_c, 0, 70, 60
2, 481968, Note_on_c, 0, 84, 60
2, 482012, Note_off_c, 0, 84, 0
2, 482016, Note_on_c, 0, 82, 60
2, 482060, Note_off_c, 0, 82, 0
2, 482064, Note_on_c, 0, 81, 60
2, 482108, Note_off_c, 0, 70, 0
2, 482108, Note_off_c, 0, 82, 0
2, 482108, Note_off_c, 0, 81, 0
2, 482112, Note_on_c, 0, 82, 60
2, 482112, Note_on_c, 0, 65, 60
2, 482300, Note_off_c, 0, 82, 0
2, 482300, Note_off_c, 0, 65, 0
2, 482304, Note_on_c, 0, 84, 60
2, 482304, Note_on_c, 0, 62, 60
2, 482492, Note_off_c, 0, 84, 0
2, 482492, Note_off_c, 0, 62, 0
2, 482496, Note_on_c, 0, 86, 60
2, 482496, Note_on_c, 0, 65, 60
2, 482684, Note_off_c, 0, 86, 0
2, 482684, Note_off_c, 0, 65, 0
2, 482688, Note_on_c, 0, 86, 60
2, 482688, Note_on_c, 0, 64, 60
2, 482876, Note_off_c, 0, 86, 0
2, 482876, Note_off_c, 0, 64, 0
2, 482880, Note_on_c, 0, 84, 60
2, 482880, Note_on_c, 0, 67, 60
2, 483068, Note_off_c, 0, 84, 0
2, 483068, Note_off_c, 0, 67, 0
2, 483072, Note_on_c, 0, 83, 60
2, 483072, Note_on_c, 0, 72, 60
2, 483260, Note_off_c, 0, 83, 0
2, 483260, Note_off_c, 0, 72, 0
2, 483264, Note_on_c, 0, 84, 60
2, 483264, Note_on_c, 0, 67, 60
2, 483452, Note_off_c, 0, 84, 0
2, 483452, Note_off_c, 0, 67, 0
2, 483456, Note_on_c, 0, 82, 60
2, 483456, Note_on_c, 0, 64, 60
2, 483644, Note_off_c, 0, 82, 0
2, 483644, Note_off_c, 0, 64, 0
2, 483648, Note_on_c, 0, 79, 60
2, 483648, Note_on_c, 0, 67, 60
2, 483836, Note_off_c, 0, 79, 0
2, 483836, Note_off_c, 0, 67, 0
2, 483840, Note_on_c, 0, 80, 90
2, 483840, Note_on_c, 0, 65, 90
2, 484028, Note_off_c, 0, 80, 0
2, 484032, Note_on_c, 0, 81, 90
2, 484220, Note_off_c, 0, 65, 0
2, 484220, Note_off_c, 0, 81, 0
2, 484224, Note_on_c, 0, 84, 90
2, 484224, Note_on_c, 0, 67, 90
2, 484224, Note_on_c, 0, 58, 90
2, 484412, Note_off_c, 0, 84, 0
2, 484416, Note_on_c, 0, 82, 85
2, 484604, Note_off_c, 0, 67, 0
2, 484604, Note_off_c, 0, 58, 0
2, 484604, Note_off_c, 0, 82, 0
2, 484608, Note_on_c, 0, 79, 81
2, 484608, Note_on_c, 0, 70, 81
2, 484608, Note_on_c, 0, 60, 81
2, 484796, Note_off_c, 0, 79, 0
2, 484800, Note_on_c, 0, 76, 76
2, 484988, Note_off_c, 0, 70, 0
2, 484988, Note_off_c, 0, 60, 0
2, 484988, Note_off_c, 0, 76, 0
2, 484992, Note_on_c, 0, 77, 72
2, 484992, Note_on_c, 0, 69, 72
2, 484992, Note_on_c, 0, 65, 72
2, 485180, Note_off_c, 0, 77, 0
2, 485184, Note_on_c, 0, 72, 67
2, 485372, Note_off_c, 0, 69, 0
2, 485372, Note_off_c, 0, 65, 0
2, 485372, Note_off_c, 0, 72, 0
2, 485376, Note_on_c, 0, 69, 60
2, 485568, Note_on_c, 0, 72, 60
2, 485756, Note_off_c, 0, 69, 0
2, 485756, Note_off_c, 0, 72, 0
2, 485760, Note_on_c, 0, 65, 60
2, 485952, Note_on_c, 0, 72, 60
2, 486140, Note_off_c, 0, 65, 0
2, 486140, Note_off_c, 0, 72, 0
2, 486144, Note_on_c, 0, 72, 60
2, 486144, Note_on_c, 0, 70, 60
2, 486144, Note_on_c, 0, 67, 60
2, 486332, Note_off_c, 0, 72, 0
2, 486332, Note_off_c, 0, 70, 0
2, 486336, Note_on_c, 0, 72, 60
2, 486336, Note_on_c, 0, 70, 60
2, 486524, Note_off_c, 0, 67, 0
2, 486524, Note_off_c, 0, 72, 0
2, 486524, Note_off_c, 0, 70, 0
2, 486528, Note_on_c, 0, 64, 60
2, 486720, Note_on_c, 0, 72, 60
2, 486720, Note_on_c, 0, 70, 60
2, 486908, Note_off_c, 0, 64, 0
2, 486908, Note_off_c, 0, 72, 0
2, 486908, Note_off_c, 0, 70, 0
2, 486912, Note_on_c, 0, 60, 60
2, 487104, Note_on_c, 0, 72, 60
2, 487104, Note_on_c, 0, 70, 60
2, 487292, Note_off_c, 0, 60, 0
2, 487292, Note_off_c, 0, 72, 0
2, 487292, Note_off_c, 0, 70, 0
2, 487296, Note_on_c, 0, 72, 60
2, 487312, Note_on_c, 0, 68, 60
2, 487484, Note_off_c, 0, 72, 0
2, 487488, Note_on_c, 0, 72, 60
2, 487488, Note_on_c, 0, 68, 60
2, 487500, Note_off_c, 0, 68, 0
2, 487676, Note_off_c, 0, 72, 0
2, 487676, Note_off_c, 0, 68, 0
2, 487872, Note_on_c, 0, 72, 60
2, 487888, Note_on_c, 0, 68, 60
2, 488060, Note_off_c, 0, 72, 0
2, 488076, Note_off_c, 0, 68, 0
2, 488256, Note_on_c, 0, 72, 60
2, 488256, Note_on_c, 0, 68, 60
2, 488444, Note_off_c, 0, 72, 0
2, 488444, Note_off_c, 0, 68, 0
2, 488448, Note_on_c, 0, 72, 60
2, 488448, Note_on_c, 0, 70, 60
2, 488636, Note_off_c, 0, 72, 0
2, 488636, Note_off_c, 0, 70, 0
2, 488640, Note_on_c, 0, 72, 60
2, 488640, Note_on_c, 0, 70, 60
2, 488828, Note_off_c, 0, 72, 0
2, 488828, Note_off_c, 0, 70, 0
2, 489024, Note_on_c, 0, 72, 60
2, 489024, Note_on_c, 0, 70, 60
2, 489212, Note_off_c, 0, 72, 0
2, 489212, Note_off_c, 0, 70, 0
2, 489408, Note_on_c, 0, 72, 60
2, 489408, Note_on_c, 0, 70, 60
2, 489596, Note_off_c, 0, 72, 0
2, 489596, Note_off_c, 0, 70, 0
2, 489600, Note_on_c, 0, 72, 90
2, 489600, Note_on_c, 0, 68, 90
2, 489788, Note_off_c, 0, 72, 0
2, 489788, Note_off_c, 0, 68, 0
2, 489792, Note_on_c, 0, 72, 90
2, 489792, Note_on_c, 0, 68, 90
2, 489980, Note_off_c, 0, 72, 0
2, 489980, Note_off_c, 0, 68, 0
2, 490176, Note_on_c, 0, 72, 60
2, 490176, Note_on_c, 0, 68, 60
2, 490364, Note_off_c, 0, 72, 0
2, 490364, Note_off_c, 0, 68, 0
2, 490560, Note_on_c, 0, 72, 60
2, 490560, Note_on_c, 0, 68, 60
2, 490748, Note_off_c, 0, 72, 0
2, 490748, Note_off_c, 0, 68, 0
2, 490752, Note_on_c, 0, 73, 90
2, 490752, Note_on_c, 0, 68, 90
2, 490940, Note_off_c, 0, 73, 0
2, 490940, Note_off_c, 0, 68, 0
2, 490944, Note_on_c, 0, 73, 90
2, 490944, Note_on_c, 0, 68, 90
2, 491132, Note_off_c, 0, 73, 0
2, 491132, Note_off_c, 0, 68, 0
2, 491328, Note_on_c, 0, 73, 60
2, 491328, Note_on_c, 0, 68, 60
2, 491516, Note_off_c, 0, 73, 0
2, 491516, Note_off_c, 0, 68, 0
2, 491712, Note_on_c, 0, 73, 60
2, 491712, Note_on_c, 0, 68, 60
2, 491900, Note_off_c, 0, 73, 0
2, 491900, Note_off_c, 0, 68, 0
2, 491904, Note_on_c, 0, 73, 90
2, 491904, Note_on_c, 0, 67, 90
2, 492092, Note_off_c, 0, 73, 0
2, 492092, Note_off_c, 0, 67, 0
2, 492096, Note_on_c, 0, 73, 90
2, 492096, Note_on_c, 0, 67, 90
2, 492284, Note_off_c, 0, 73, 0
2, 492284, Note_off_c, 0, 67, 0
2, 492480, Note_on_c, 0, 73, 60
2, 492480, Note_on_c, 0, 67, 60
2, 492668, Note_off_c, 0, 73, 0
2, 492668, Note_off_c, 0, 67, 0
2, 492864, Note_on_c, 0, 73, 60
2, 492864, Note_on_c, 0, 67, 60
2, 493052, Note_off_c, 0, 73, 0
2, 493052, Note_off_c, 0, 67, 0
2, 493056, Note_on_c, 0, 72, 90
2, 493056, Note_on_c, 0, 67, 90
2, 493244, Note_off_c, 0, 72, 0
2, 493244, Note_off_c, 0, 67, 0
2, 493248, Note_on_c, 0, 72, 90
2, 493248, Note_on_c, 0, 67, 90
2, 493436, Note_off_c, 0, 72, 0
2, 493436, Note_off_c, 0, 67, 0
2, 493632, Note_on_c, 0, 72, 60
2, 493632, Note_on_c, 0, 67, 60
2, 493820, Note_off_c, 0, 72, 0
2, 493820, Note_off_c, 0, 67, 0
2, 494000, Note_on_c, 0, 72, 60
2, 494016, Note_on_c, 0, 67, 60
2, 494188, Note_off_c, 0, 72, 0
2, 494204, Note_off_c, 0, 67, 0
2, 494208, Note_on_c, 0, 72, 90
2, 494208, Note_on_c, 0, 65, 90
2, 494396, Note_off_c, 0, 72, 0
2, 494396, Note_off_c, 0, 65, 0
2, 494400, Note_on_c, 0, 72, 90
2, 494400, Note_on_c, 0, 65, 90
2, 494588, Note_off_c, 0, 72, 0
2, 494588, Note_off_c, 0, 65, 0
2, 494784, Note_on_c, 0, 72, 60
2, 494784, Note_on_c, 0, 65, 60
2, 494972, Note_off_c, 0, 72, 0
2, 494972, Note_off_c, 0, 65, 0
2, 494976, Note_on_c, 0, 72, 90
2, 494976, Note_on_c, 0, 65, 90
2, 495168, Note_on_c, 0, 72, 90
2, 495168, Note_on_c, 0, 65, 90
2, 495260, Note_off_c, 0, 72, 0
2, 495260, Note_off_c, 0, 65, 0
2, 495356, Note_off_c, 0, 72, 0
2, 495356, Note_off_c, 0, 65, 0
2, 495552, Note_on_c, 0, 70, 60
2, 495552, Note_on_c, 0, 65, 60
2, 495740, Note_off_c, 0, 70, 0
2, 495740, Note_off_c, 0, 65, 0
2, 495744, Note_on_c, 0, 70, 90
2, 495744, Note_on_c, 0, 64, 90
2, 495932, Note_off_c, 0, 70, 0
2, 495932, Note_off_c, 0, 64, 0
2, 495936, Note_on_c, 0, 70, 90
2, 495936, Note_on_c, 0, 64, 90
2, 496124, Note_off_c, 0, 70, 0
2, 496124, Note_off_c, 0, 64, 0
2, 496320, Note_on_c, 0, 70, 60
2, 496320, Note_on_c, 0, 64, 60
2, 496508, Note_off_c, 0, 70, 0
2, 496508, Note_off_c, 0, 64, 0
2, 496704, Note_on_c, 0, 69, 60
2, 496704, Note_on_c, 0, 65, 60
2, 496892, Note_off_c, 0, 69, 0
2, 496892, Note_off_c, 0, 65, 0
2, 497088, Note_on_c, 0, 69, 60
2, 497088, Note_on_c, 0, 65, 60
2, 497276, Note_off_c, 0, 69, 0
2, 497276, Note_off_c, 0, 65, 0
2, 497472, Note_on_c, 0, 69, 60
2, 497472, Note_on_c, 0, 65, 60
2, 497660, Note_off_c, 0, 69, 0
2, 497660, Note_off_c, 0, 65, 0
2, 497664, Note_on_c, 0, 67, 60
2, 497664, Note_on_c, 0, 64, 60
2, 497852, Note_off_c, 0, 67, 0
2, 497852, Note_off_c, 0, 64, 0
2, 497856, Note_on_c, 0, 68, 60
2, 497856, Note_on_c, 0, 72, 60
2, 498044, Note_off_c, 0, 68, 0
2, 498044, Note_off_c, 0, 72, 0
2, 498048, Note_on_c, 0, 67, 60
2, 498048, Note_on_c, 0, 70, 60
2, 498236, Note_off_c, 0, 67, 0
2, 498236, Note_off_c, 0, 70, 0
2, 498240, Note_on_c, 0, 65, 60
2, 498240, Note_on_c, 0, 68, 60
2, 498428, Note_off_c, 0, 65, 0
2, 498428, Note_off_c, 0, 68, 0
2, 498432, Note_on_c, 0, 64, 60
2, 498432, Note_on_c, 0, 67, 60
2, 498620, Note_off_c, 0, 64, 0
2, 498620, Note_off_c, 0, 67, 0
2, 498624, Note_on_c, 0, 65, 60
2, 498640, Note_on_c, 0, 68, 60
2, 498812, Note_off_c, 0, 65, 0
2, 498816, Note_on_c, 0, 64, 60
2, 498816, Note_on_c, 0, 67, 60
2, 498828, Note_off_c, 0, 68, 0
2, 499004, Note_off_c, 0, 64, 0
2, 499004, Note_off_c, 0, 67, 0
2, 499008, Note_on_c, 0, 68, 60
2, 499008, Note_on_c, 0, 72, 60
2, 499196, Note_off_c, 0, 68, 0
2, 499196, Note_off_c, 0, 72, 0
2, 499200, Note_on_c, 0, 67, 60
2, 499200, Note_on_c, 0, 70, 60
2, 499388, Note_off_c, 0, 67, 0
2, 499388, Note_off_c, 0, 70, 0
2, 499392, Note_on_c, 0, 65, 60
2, 499392, Note_on_c, 0, 68, 60
2, 499580, Note_off_c, 0, 65, 0
2, 499580, Note_off_c, 0, 68, 0
2, 499584, Note_on_c, 0, 64, 60
2, 499584, Note_on_c, 0, 67, 60
2, 499772, Note_off_c, 0, 64, 0
2, 499772, Note_off_c, 0, 67, 0
2, 499776, Note_on_c, 0, 65, 60
2, 499776, Note_on_c, 0, 68, 60
2, 499964, Note_off_c, 0, 65, 0
2, 499964, Note_off_c, 0, 68, 0
2, 499968, Note_on_c, 0, 67, 60
2, 499968, Note_on_c, 0, 64, 60
2, 500156, Note_off_c, 0, 67, 0
2, 500156, Note_off_c, 0, 64, 0
2, 500160, Note_on_c, 0, 68, 60
2, 500160, Note_on_c, 0, 65, 60
2, 500348, Note_off_c, 0, 68, 0
2, 500348, Note_off_c, 0, 65, 0
2, 500352, Note_on_c, 0, 67, 60
2, 500352, Note_on_c, 0, 64, 60
2, 500540, Note_off_c, 0, 67, 0
2, 500540, Note_off_c, 0, 64, 0
2, 500544, Note_on_c, 0, 68, 60
2, 500544, Note_on_c, 0, 65, 60
2, 500732, Note_off_c, 0, 68, 0
2, 500732, Note_off_c, 0, 65, 0
2, 500736, Note_on_c, 0, 67, 60
2, 500736, Note_on_c, 0, 64, 60
2, 500924, Note_off_c, 0, 67, 0
2, 500924, Note_off_c, 0, 64, 0
2, 500928, Note_on_c, 0, 68, 60
2, 500928, Note_on_c, 0, 65, 60
2, 501116, Note_off_c, 0, 68, 0
2, 501116, Note_off_c, 0, 65, 0
2, 501120, Note_on_c, 0, 64, 60
2, 501120, Note_on_c, 0, 67, 60
2, 501308, Note_off_c, 0, 64, 0
2, 501308, Note_off_c, 0, 67, 0
2, 501312, Note_on_c, 0, 66, 60
2, 501312, Note_on_c, 0, 63, 60
2, 501500, Note_off_c, 0, 66, 0
2, 501500, Note_off_c, 0, 63, 0
2, 501504, Note_on_c, 0, 67, 60
2, 501504, Note_on_c, 0, 64, 60
2, 501692, Note_off_c, 0, 67, 0
2, 501692, Note_off_c, 0, 64, 0
2, 501696, Note_on_c, 0, 69, 60
2, 501696, Note_on_c, 0, 66, 60
2, 501884, Note_off_c, 0, 69, 0
2, 501884, Note_off_c, 0, 66, 0
2, 501888, Note_on_c, 0, 70, 60
2, 501888, Note_on_c, 0, 67, 60
2, 502076, Note_off_c, 0, 70, 0
2, 502076, Note_off_c, 0, 67, 0
2, 502080, Note_on_c, 0, 72, 60
2, 502080, Note_on_c, 0, 69, 60
2, 502268, Note_off_c, 0, 72, 0
2, 502268, Note_off_c, 0, 69, 0
2, 502272, Note_on_c, 0, 74, 82
2, 502272, Note_on_c, 0, 70, 82
2, 502460, Note_off_c, 0, 74, 0
2, 502460, Note_off_c, 0, 70, 0
2, 502656, Note_on_c, 0, 74, 60
2, 502656, Note_on_c, 0, 70, 60
2, 502656, Note_on_c, 0, 65, 60
2, 502844, Note_off_c, 0, 74, 0
2, 502844, Note_off_c, 0, 70, 0
2, 503036, Note_off_c, 0, 65, 0
2, 503040, Note_on_c, 0, 74, 60
2, 503040, Note_on_c, 0, 70, 60
2, 503040, Note_on_c, 0, 65, 60
2, 503228, Note_off_c, 0, 74, 0
2, 503228, Note_off_c, 0, 70, 0
2, 503420, Note_off_c, 0, 65, 0
2, 503424, Note_on_c, 0, 74, 60
2, 503424, Note_on_c, 0, 70, 60
2, 503424, Note_on_c, 0, 65, 60
2, 504188, Note_off_c, 0, 74, 0
2, 504188, Note_off_c, 0, 70, 0
2, 504192, Note_on_c, 0, 72, 60
2, 504192, Note_on_c, 0, 69, 60
2, 504572, Note_off_c, 0, 65, 0
2, 504572, Note_off_c, 0, 72, 0
2, 504572, Note_off_c, 0, 69, 0
2, 504576, Note_on_c, 0, 72, 60
2, 504576, Note_on_c, 0, 67, 60
2, 504576, Note_on_c, 0, 64, 60
2, 504668, Note_off_c, 0, 72, 0
2, 504672, Note_on_c, 0, 70, 60
2, 504764, Note_off_c, 0, 70, 0
2, 504944, Note_on_c, 0, 67, 60
2, 504956, Note_off_c, 0, 67, 0
2, 504956, Note_off_c, 0, 64, 0
2, 504960, Note_on_c, 0, 70, 60
2, 504960, Note_on_c, 0, 64, 60
2, 505324, Note_off_c, 0, 67, 0
2, 505340, Note_off_c, 0, 70, 0
2, 505340, Note_off_c, 0, 64, 0
2, 505344, Note_on_c, 0, 70, 60
2, 505344, Note_on_c, 0, 67, 60
2, 505344, Note_on_c, 0, 64, 60
2, 505724, Note_off_c, 0, 70, 0
2, 505724, Note_off_c, 0, 67, 0
2, 505724, Note_off_c, 0, 64, 0
2, 505728, Note_on_c, 0, 70, 60
2, 505728, Note_on_c, 0, 67, 60
2, 505728, Note_on_c, 0, 64, 60
2, 506492, Note_off_c, 0, 70, 0
2, 506492, Note_off_c, 0, 67, 0
2, 506492, Note_off_c, 0, 64, 0
2, 506496, Note_on_c, 0, 69, 60
2, 506496, Note_on_c, 0, 65, 60
2, 506876, Note_off_c, 0, 69, 0
2, 506876, Note_off_c, 0, 65, 0
2, 506880, Note_on_c, 0, 72, 60
2, 506880, Note_on_c, 0, 69, 60
2, 507068, Note_off_c, 0, 72, 0
2, 507068, Note_off_c, 0, 69, 0
2, 507072, Note_on_c, 0, 70, 60
2, 507072, Note_on_c, 0, 67, 60
2, 507260, Note_off_c, 0, 70, 0
2, 507260, Note_off_c, 0, 67, 0
2, 507264, Note_on_c, 0, 69, 60
2, 507264, Note_on_c, 0, 65, 60
2, 507644, Note_off_c, 0, 69, 0
2, 507644, Note_off_c, 0, 65, 0
2, 507648, Note_on_c, 0, 67, 60
2, 507648, Note_on_c, 0, 64, 60
2, 508028, Note_off_c, 0, 67, 0
2, 508028, Note_off_c, 0, 64, 0
2, 508032, Note_on_c, 0, 69, 60
2, 508032, Note_on_c, 0, 65, 60
2, 508220, Note_off_c, 0, 69, 0
2, 508220, Note_off_c, 0, 65, 0
2, 508224, Note_on_c, 0, 77, 60
2, 508412, Note_off_c, 0, 77, 0
2, 508416, Note_on_c, 0, 79, 60
2, 508604, Note_off_c, 0, 79, 0
2, 508608, Note_on_c, 0, 81, 60
2, 508796, Note_off_c, 0, 81, 0
2, 508800, Note_on_c, 0, 82, 60
2, 508988, Note_off_c, 0, 82, 0
2, 508992, Note_on_c, 0, 84, 60
2, 509180, Note_off_c, 0, 84, 0
2, 509184, Note_on_c, 0, 86, 82
2, 509184, Note_on_c, 0, 70, 82
2, 509184, Note_on_c, 0, 65, 82
2, 509564, Note_off_c, 0, 86, 0
2, 509564, Note_off_c, 0, 70, 0
2, 509564, Note_off_c, 0, 65, 0
2, 509568, Note_on_c, 0, 86, 60
2, 509568, Note_on_c, 0, 70, 60
2, 509584, Note_on_c, 0, 65, 60
2, 509948, Note_off_c, 0, 86, 0
2, 509948, Note_off_c, 0, 70, 0
2, 509952, Note_on_c, 0, 86, 60
2, 509952, Note_on_c, 0, 70, 60
2, 509952, Note_on_c, 0, 65, 60
2, 509964, Note_off_c, 0, 65, 0
2, 510332, Note_off_c, 0, 70, 0
2, 510332, Note_off_c, 0, 65, 0
2, 510336, Note_on_c, 0, 86, 60
2, 510336, Note_on_c, 0, 70, 60
2, 510336, Note_on_c, 0, 65, 60
2, 510340, Note_off_c, 0, 86, 0
2, 510908, Note_off_c, 0, 86, 0
2, 510912, Note_on_c, 0, 88, 60
2, 511004, Note_off_c, 0, 88, 0
2, 511008, Note_on_c, 0, 86, 60
2, 511100, Note_off_c, 0, 70, 0
2, 511100, Note_off_c, 0, 86, 0
2, 511104, Note_on_c, 0, 84, 60
2, 511104, Note_on_c, 0, 69, 60
2, 511484, Note_off_c, 0, 65, 0
2, 511484, Note_off_c, 0, 84, 0
2, 511484, Note_off_c, 0, 69, 0
2, 511488, Note_on_c, 0, 76, 60
2, 511488, Note_on_c, 0, 84, 60
2, 511488, Note_on_c, 0, 67, 60
2, 511488, Note_on_c, 0, 60, 60
2, 511676, Note_off_c, 0, 84, 0
2, 511680, Note_on_c, 0, 82, 60
2, 511868, Note_off_c, 0, 76, 0
2, 511868, Note_off_c, 0, 67, 0
2, 511868, Note_off_c, 0, 60, 0
2, 511868, Note_off_c, 0, 82, 0
2, 511872, Note_on_c, 0, 76, 60
2, 511872, Note_on_c, 0, 82, 60
2, 511872, Note_on_c, 0, 67, 60
2, 511888, Note_on_c, 0, 60, 60
2, 512240, Note_on_c, 0, 67, 60
2, 512252, Note_off_c, 0, 76, 0
2, 512252, Note_off_c, 0, 82, 0
2, 512252, Note_off_c, 0, 67, 0
2, 512256, Note_on_c, 0, 76, 60
2, 512256, Note_on_c, 0, 82, 60
2, 512256, Note_on_c, 0, 60, 60
2, 512268, Note_off_c, 0, 60, 0
2, 512620, Note_off_c, 0, 67, 0
2, 512636, Note_off_c, 0, 76, 0
2, 512636, Note_off_c, 0, 82, 0
2, 512636, Note_off_c, 0, 60, 0
2, 512640, Note_on_c, 0, 82, 60
2, 512640, Note_on_c, 0, 76, 60
2, 512640, Note_on_c, 0, 67, 60
2, 512640, Note_on_c, 0, 61, 60
2, 513404, Note_off_c, 0, 82, 0
2, 513404, Note_off_c, 0, 76, 0
2, 513404, Note_off_c, 0, 67, 0
2, 513404, Note_off_c, 0, 61, 0
2, 513408, Note_on_c, 0, 81, 60
2, 513408, Note_on_c, 0, 77, 60
2, 513408, Note_on_c, 0, 65, 60
2, 513408, Note_on_c, 0, 62, 60
2, 513788, Note_off_c, 0, 81, 0
2, 513788, Note_off_c, 0, 65, 0
2, 513788, Note_off_c, 0, 62, 0
2, 513792, Note_on_c, 0, 81, 60
2, 513792, Note_on_c, 0, 84, 60
2, 513796, Note_off_c, 0, 77, 0
2, 513980, Note_off_c, 0, 81, 0
2, 513980, Note_off_c, 0, 84, 0
2, 513984, Note_on_c, 0, 79, 60
2, 513984, Note_on_c, 0, 82, 60
2, 514172, Note_off_c, 0, 79, 0
2, 514172, Note_off_c, 0, 82, 0
2, 514176, Note_on_c, 0, 77, 60
2, 514176, Note_on_c, 0, 81, 60
2, 514556, Note_off_c, 0, 77, 0
2, 514556, Note_off_c, 0, 81, 0
2, 514560, Note_on_c, 0, 76, 60
2, 514560, Note_on_c, 0, 79, 60
2, 514940, Note_off_c, 0, 76, 0
2, 514940, Note_off_c, 0, 79, 0
2, 514944, Note_on_c, 0, 84, 90
2, 514944, Note_on_c, 0, 81, 90
2, 515132, Note_off_c, 0, 84, 0
2, 515132, Note_off_c, 0, 81, 0
2, 515136, Note_on_c, 0, 84, 90
2, 515136, Note_on_c, 0, 81, 90
2, 515324, Note_off_c, 0, 84, 0
2, 515324, Note_off_c, 0, 81, 0
2, 515520, Note_on_c, 0, 79, 60
2, 515520, Note_on_c, 0, 82, 60
2, 515708, Note_off_c, 0, 79, 0
2, 515708, Note_off_c, 0, 82, 0
2, 515904, Note_on_c, 0, 77, 60
2, 515904, Note_on_c, 0, 81, 60
2, 516092, Note_off_c, 0, 77, 0
2, 516092, Note_off_c, 0, 81, 0
2, 516288, Note_on_c, 0, 79, 60
2, 516288, Note_on_c, 0, 70, 60
2, 516476, Note_off_c, 0, 79, 0
2, 516476, Note_off_c, 0, 70, 0
2, 516672, Note_on_c, 0, 77, 60
2, 516672, Note_on_c, 0, 69, 60
2, 516860, Note_off_c, 0, 77, 0
2, 516860, Note_off_c, 0, 69, 0
2, 517056, Note_on_c, 0, 67, 60
2, 517056, Note_on_c, 0, 76, 60
2, 517244, Note_off_c, 0, 67, 0
2, 517244, Note_off_c, 0, 76, 0
2, 517344, Note_on_c, 0, 81, 90
2, 517436, Note_off_c, 0, 81, 0
2, 517440, Note_on_c, 0, 84, 90
2, 517532, Note_off_c, 0, 84, 0
2, 517536, Note_on_c, 0, 81, 90
2, 517628, Note_off_c, 0, 81, 0
2, 517728, Note_on_c, 0, 79, 90
2, 517820, Note_off_c, 0, 79, 0
2, 517824, Note_on_c, 0, 82, 90
2, 517916, Note_off_c, 0, 82, 0
2, 517920, Note_on_c, 0, 79, 90
2, 518012, Note_off_c, 0, 79, 0
2, 518112, Note_on_c, 0, 77, 90
2, 518204, Note_off_c, 0, 77, 0
2, 518208, Note_on_c, 0, 81, 90
2, 518300, Note_off_c, 0, 81, 0
2, 518304, Note_on_c, 0, 77, 90
2, 518396, Note_off_c, 0, 77, 0
2, 518496, Note_on_c, 0, 70, 90
2, 518588, Note_off_c, 0, 70, 0
2, 518592, Note_on_c, 0, 79, 90
2, 518684, Note_off_c, 0, 79, 0
2, 518688, Note_on_c, 0, 70, 90
2, 518780, Note_off_c, 0, 70, 0
2, 518880, Note_on_c, 0, 69, 90
2, 518972, Note_off_c, 0, 69, 0
2, 518976, Note_on_c, 0, 77, 90
2, 519068, Note_off_c, 0, 77, 0
2, 519072, Note_on_c, 0, 69, 90
2, 519164, Note_off_c, 0, 69, 0
2, 519264, Note_on_c, 0, 67, 90
2, 519356, Note_off_c, 0, 67, 0
2, 519360, Note_on_c, 0, 76, 90
2, 519452, Note_off_c, 0, 76, 0
2, 519456, Note_on_c, 0, 67, 90
2, 519548, Note_off_c, 0, 67, 0
2, 519552, Note_on_c, 0, 77, 90
2, 519552, Note_on_c, 0, 72, 90
2, 519552, Note_on_c, 0, 69, 90
2, 519932, Note_off_c, 0, 77, 0
2, 519932, Note_off_c, 0, 72, 0
2, 519932, Note_off_c, 0, 69, 0
2, 520320, Note_on_c, 0, 70, 90
2, 520364, Note_off_c, 0, 70, 0
2, 520368, Note_on_c, 0, 69, 90
2, 520412, Note_off_c, 0, 69, 0
2, 520416, Note_on_c, 0, 70, 90
2, 520460, Note_off_c, 0, 70, 0
2, 520464, Note_on_c, 0, 69, 90
2, 520508, Note_off_c, 0, 69, 0
2, 520512, Note_on_c, 0, 70, 90
2, 520544, Note_on_c, 0, 69, 90
2, 520556, Note_off_c, 0, 70, 0
2, 520588, Note_off_c, 0, 69, 0
2, 520608, Note_on_c, 0, 67, 90
2, 520652, Note_off_c, 0, 67, 0
2, 520656, Note_on_c, 0, 65, 90
2, 520700, Note_off_c, 0, 65, 0
2, 520704, Note_on_c, 0, 72, 90
2, 521468, Note_off_c, 0, 72, 0
2, 521472, Note_on_c, 0, 77, 90
2, 521516, Note_off_c, 0, 77, 0
2, 521520, Note_on_c, 0, 76, 90
2, 521564, Note_off_c, 0, 76, 0
2, 521568, Note_on_c, 0, 77, 90
2, 521612, Note_off_c, 0, 77, 0
2, 521616, Note_on_c, 0, 76, 90
2, 521660, Note_off_c, 0, 76, 0
2, 521664, Note_on_c, 0, 77, 90
2, 521708, Note_off_c, 0, 77, 0
2, 521712, Note_on_c, 0, 76, 90
2, 521756, Note_off_c, 0, 76, 0
2, 521760, Note_on_c, 0, 74, 90
2, 521804, Note_off_c, 0, 74, 0
2, 521808, Note_on_c, 0, 72, 90
2, 521852, Note_off_c, 0, 72, 0
2, 521856, Note_on_c, 0, 77, 90
2, 522620, Note_off_c, 0, 77, 0
2, 522624, Note_on_c, 0, 82, 90
2, 522668, Note_off_c, 0, 82, 0
2, 522672, Note_on_c, 0, 81, 90
2, 522716, Note_off_c, 0, 81, 0
2, 522720, Note_on_c, 0, 82, 90
2, 522764, Note_off_c, 0, 82, 0
2, 522768, Note_on_c, 0, 81, 90
2, 522812, Note_off_c, 0, 81, 0
2, 522816, Note_on_c, 0, 82, 90
2, 522860, Note_off_c, 0, 82, 0
2, 522880, Note_on_c, 0, 81, 90
2, 522912, Note_on_c, 0, 79, 90
2, 522924, Note_off_c, 0, 81, 0
2, 522956, Note_off_c, 0, 79, 0
2, 522976, Note_on_c, 0, 77, 90
2, 523008, Note_on_c, 0, 84, 90
2, 523020, Note_off_c, 0, 77, 0
2, 523388, Note_off_c, 0, 84, 0
2, 523392, Note_on_c, 0, 84, 90
2, 523772, Note_off_c, 0, 84, 0
2, 523776, Note_on_c, 0, 89, 90
2, 523820, Note_off_c, 0, 89, 0
2, 523824, Note_on_c, 0, 88, 90
2, 523868, Note_off_c, 0, 88, 0
2, 523872, Note_on_c, 0, 89, 90
2, 523916, Note_off_c, 0, 89, 0
2, 523920, Note_on_c, 0, 88, 90
2, 523964, Note_off_c, 0, 88, 0
2, 523968, Note_on_c, 0, 89, 90
2, 524012, Note_off_c, 0, 89, 0
2, 524016, Note_on_c, 0, 88, 90
2, 524060, Note_off_c, 0, 88, 0
2, 524064, Note_on_c, 0, 86, 90
2, 524108, Note_off_c, 0, 86, 0
2, 524112, Note_on_c, 0, 84, 90
2, 524156, Note_off_c, 0, 84, 0
2, 524160, Note_on_c, 0, 89, 90
2, 524540, Note_off_c, 0, 89, 0
2, 524544, Note_on_c, 0, 81, 97
2, 525116, Note_off_c, 0, 81, 0
2, 525120, Note_on_c, 0, 73, 90
2, 525308, Note_off_c, 0, 73, 0
2, 525312, Note_on_c, 0, 74, 90
2, 525692, Note_off_c, 0, 74, 0
2, 525696, Note_on_c, 0, 77, 97
2, 526268, Note_off_c, 0, 77, 0
2, 526272, Note_on_c, 0, 69, 90
2, 526460, Note_off_c, 0, 69, 0
2, 526464, Note_on_c, 0, 72, 90
2, 526508, Note_off_c, 0, 72, 0
2, 526512, Note_on_c, 0, 70, 90
2, 526556, Note_off_c, 0, 70, 0
2, 526560, Note_on_c, 0, 72, 90
2, 526604, Note_off_c, 0, 72, 0
2, 526608, Note_on_c, 0, 70, 90
2, 526652, Note_off_c, 0, 70, 0
2, 526656, Note_on_c, 0, 72, 90
2, 526700, Note_off_c, 0, 72, 0
2, 526704, Note_on_c, 0, 70, 90
2, 526748, Note_off_c, 0, 70, 0
2, 526752, Note_on_c, 0, 69, 90
2, 526796, Note_off_c, 0, 69, 0
2, 526800, Note_on_c, 0, 67, 90
2, 526844, Note_off_c, 0, 67, 0
2, 526848, Note_on_c, 0, 72, 90
2, 527228, Note_off_c, 0, 72, 0
2, 527232, Note_on_c, 0, 76, 90
2, 527232, Note_on_c, 0, 72, 90
2, 527232, Note_on_c, 0, 70, 90
2, 527232, Note_on_c, 0, 67, 90
2, 527612, Note_off_c, 0, 76, 0
2, 527612, Note_off_c, 0, 72, 0
2, 527612, Note_off_c, 0, 70, 0
2, 527612, Note_off_c, 0, 67, 0
2, 527616, Note_on_c, 0, 77, 90
2, 527616, Note_on_c, 0, 72, 90
2, 527616, Note_on_c, 0, 69, 90
2, 527996, Note_off_c, 0, 77, 0
2, 527996, Note_off_c, 0, 72, 0
2, 527996, Note_off_c, 0, 69, 0
2, 528000, Note_on_c, 0, 65, 90
2, 528380, Note_off_c, 0, 65, 0
2, 528380, End_track
3, 0, Start_track
3, 0, Title_t, "Sonata  # 1"
3, 0, Control_c, 1, 0, 0
3, 0, Program_c, 1, 0
3, 0, Control_c, 1, 7, 102
3, 0, Control_c, 1, 10, 54
3, 0, Control_c, 1, 91, 77
3, 0, Control_c, 1, 93, 45
3, 0, Key_signature, -1, "minor"
3, 0, Control_c, 1, 121, 0
3, 96, Control_c, 1, 10, 53
3, 144, Control_c, 1, 91, 63
3, 192, Control_c, 1, 93, 40
3, 288, Program_c, 1, 0
3, 1152, Note_on_c, 1, 53, 60
3, 1340, Note_off_c, 1, 53, 0
3, 1344, Note_on_c, 1, 57, 60
3, 1532, Note_off_c, 1, 57, 0
3, 1536, Note_on_c, 1, 60, 60
3, 1724, Note_off_c, 1, 60, 0
3, 1728, Note_on_c, 1, 57, 60
3, 1916, Note_off_c, 1, 57, 0
3, 1920, Note_on_c, 1, 60, 60
3, 2108, Note_off_c, 1, 60, 0
3, 2112, Note_on_c, 1, 57, 60
3, 2300, Note_off_c, 1, 57, 0
3, 2304, Note_on_c, 1, 53, 60
3, 2492, Note_off_c, 1, 53, 0
3, 2496, Note_on_c, 1, 60, 60
3, 2684, Note_off_c, 1, 60, 0
3, 2688, Note_on_c, 1, 63, 60
3, 2876, Note_off_c, 1, 63, 0
3, 2880, Note_on_c, 1, 60, 60
3, 3068, Note_off_c, 1, 60, 0
3, 3072, Note_on_c, 1, 63, 60
3, 3260, Note_off_c, 1, 63, 0
3, 3264, Note_on_c, 1, 60, 60
3, 3452, Note_off_c, 1, 60, 0
3, 3456, Note_on_c, 1, 53, 60
3, 3644, Note_off_c, 1, 53, 0
3, 3648, Note_on_c, 1, 58, 60
3, 3836, Note_off_c, 1, 58, 0
3, 3840, Note_on_c, 1, 62, 60
3, 4028, Note_off_c, 1, 62, 0
3, 4032, Note_on_c, 1, 58, 60
3, 4220, Note_off_c, 1, 58, 0
3, 4224, Note_on_c, 1, 62, 60
3, 4412, Note_off_c, 1, 62, 0
3, 4416, Note_on_c, 1, 58, 60
3, 4604, Note_off_c, 1, 58, 0
3, 4608, Note_on_c, 1, 53, 60
3, 4796, Note_off_c, 1, 53, 0
3, 4800, Note_on_c, 1, 55, 60
3, 4988, Note_off_c, 1, 55, 0
3, 4992, Note_on_c, 1, 58, 60
3, 5180, Note_off_c, 1, 58, 0
3, 5184, Note_on_c, 1, 55, 60
3, 5372, Note_off_c, 1, 55, 0
3, 5376, Note_on_c, 1, 58, 60
3, 5564, Note_off_c, 1, 58, 0
3, 5568, Note_on_c, 1, 55, 60
3, 5756, Note_off_c, 1, 55, 0
3, 5760, Note_on_c, 1, 57, 82
3, 5760, Note_on_c, 1, 53, 82
3, 6140, Note_off_c, 1, 57, 0
3, 6140, Note_off_c, 1, 53, 0
3, 8064, Note_on_c, 1, 53, 82
3, 8444, Note_off_c, 1, 53, 0
3, 8448, Note_on_c, 1, 45, 82
3, 8828, Note_off_c, 1, 45, 0
3, 8832, Note_on_c, 1, 50, 82
3, 9212, Note_off_c, 1, 50, 0
3, 9216, Note_on_c, 1, 43, 85
3, 9596, Note_off_c, 1, 43, 0
3, 9600, Note_on_c, 1, 48, 102
3, 10172, Note_off_c, 1, 48, 0
3, 10176, Note_on_c, 1, 45, 61
3, 10364, Note_off_c, 1, 45, 0
3, 10368, Note_on_c, 1, 41, 64
3, 10748, Note_off_c, 1, 41, 0
3, 10752, Note_on_c, 1, 50, 60
3, 11132, Note_off_c, 1, 50, 0
3, 11136, Note_on_c, 1, 46, 60
3, 11516, Note_off_c, 1, 46, 0
3, 11520, Note_on_c, 1, 45, 60
3, 11900, Note_off_c, 1, 45, 0
3, 12288, Note_on_c, 1, 50, 60
3, 12668, Note_off_c, 1, 50, 0
3, 12672, Note_on_c, 1, 46, 90
3, 13052, Note_off_c, 1, 46, 0
3, 13440, Note_on_c, 1, 48, 90
3, 13820, Note_off_c, 1, 48, 0
3, 13824, Note_on_c, 1, 41, 90
3, 14204, Note_off_c, 1, 41, 0
3, 24960, Note_on_c, 1, 58, 60
3, 24960, Note_on_c, 1, 52, 60
3, 24960, Note_on_c, 1, 48, 60
3, 25340, Note_off_c, 1, 58, 0
3, 25340, Note_off_c, 1, 52, 0
3, 25340, Note_off_c, 1, 48, 0
3, 25344, Note_on_c, 1, 57, 60
3, 25344, Note_on_c, 1, 53, 60
3, 25724, Note_off_c, 1, 57, 0
3, 25724, Note_off_c, 1, 53, 0
3, 26112, Note_on_c, 1, 37, 90
3, 26112, Note_on_c, 1, 49, 90
3, 26492, Note_off_c, 1, 37, 0
3, 26492, Note_off_c, 1, 49, 0
3, 26496, Note_on_c, 1, 38, 90
3, 26496, Note_on_c, 1, 50, 90
3, 26684, Note_off_c, 1, 38, 0
3, 26684, Note_off_c, 1, 50, 0
3, 26688, Note_on_c, 1, 53, 90
3, 26876, Note_off_c, 1, 53, 0
3, 26880, Note_on_c, 1, 57, 90
3, 27068, Note_off_c, 1, 57, 0
3, 27072, Note_on_c, 1, 53, 90
3, 27260, Note_off_c, 1, 53, 0
3, 27264, Note_on_c, 1, 57, 90
3, 27452, Note_off_c, 1, 57, 0
3, 27456, Note_on_c, 1, 53, 90
3, 27644, Note_off_c, 1, 53, 0
3, 27648, Note_on_c, 1, 50, 90
3, 27836, Note_off_c, 1, 50, 0
3, 27840, Note_on_c, 1, 53, 90
3, 28028, Note_off_c, 1, 53, 0
3, 28032, Note_on_c, 1, 57, 90
3, 28220, Note_off_c, 1, 57, 0
3, 28224, Note_on_c, 1, 53, 90
3, 28412, Note_off_c, 1, 53, 0
3, 28416, Note_on_c, 1, 57, 90
3, 28604, Note_off_c, 1, 57, 0
3, 28608, Note_on_c, 1, 53, 90
3, 28796, Note_off_c, 1, 53, 0
3, 28992, Note_on_c, 1, 52, 90
3, 28992, Note_on_c, 1, 40, 90
3, 29180, Note_off_c, 1, 52, 0
3, 29180, Note_off_c, 1, 40, 0
3, 29184, Note_on_c, 1, 55, 60
3, 29184, Note_on_c, 1, 52, 60
3, 29184, Note_on_c, 1, 61, 60
3, 29184, Note_on_c, 1, 59, 60
3, 29564, Note_off_c, 1, 55, 0
3, 29564, Note_off_c, 1, 52, 0
3, 29564, Note_off_c, 1, 61, 0
3, 29564, Note_off_c, 1, 59, 0
3, 29952, Note_on_c, 1, 52, 90
3, 29952, Note_on_c, 1, 40, 90
3, 30332, Note_off_c, 1, 52, 0
3, 30332, Note_off_c, 1, 40, 0
3, 30336, Note_on_c, 1, 55, 60
3, 30336, Note_on_c, 1, 52, 60
3, 30336, Note_on_c, 1, 58, 60
3, 30336, Note_on_c, 1, 61, 60
3, 30716, Note_off_c, 1, 55, 0
3, 30716, Note_off_c, 1, 52, 0
3, 30716, Note_off_c, 1, 58, 0
3, 30716, Note_off_c, 1, 61, 0
3, 31104, Note_on_c, 1, 53, 90
3, 31292, Note_off_c, 1, 53, 0
3, 31296, Note_on_c, 1, 57, 90
3, 31484, Note_off_c, 1, 57, 0
3, 31488, Note_on_c, 1, 62, 90
3, 31676, Note_off_c, 1, 62, 0
3, 31680, Note_on_c, 1, 57, 90
3, 31868, Note_off_c, 1, 57, 0
3, 31872, Note_on_c, 1, 62, 90
3, 32060, Note_off_c, 1, 62, 0
3, 32064, Note_on_c, 1, 57, 90
3, 32252, Note_off_c, 1, 57, 0
3, 32256, Note_on_c, 1, 53, 90
3, 32444, Note_off_c, 1, 53, 0
3, 32448, Note_on_c, 1, 57, 90
3, 32636, Note_off_c, 1, 57, 0
3, 32640, Note_on_c, 1, 62, 90
3, 32828, Note_off_c, 1, 62, 0
3, 32832, Note_on_c, 1, 57, 90
3, 33020, Note_off_c, 1, 57, 0
3, 33024, Note_on_c, 1, 62, 90
3, 33212, Note_off_c, 1, 62, 0
3, 33216, Note_on_c, 1, 57, 90
3, 33404, Note_off_c, 1, 57, 0
3, 33408, Note_on_c, 1, 50, 90
3, 33408, Note_on_c, 1, 38, 90
3, 33788, Note_off_c, 1, 50, 0
3, 33788, Note_off_c, 1, 38, 0
3, 33792, Note_on_c, 1, 59, 60
3, 33792, Note_on_c, 1, 53, 60
3, 33792, Note_on_c, 1, 50, 60
3, 33792, Note_on_c, 1, 56, 60
3, 34172, Note_off_c, 1, 59, 0
3, 34172, Note_off_c, 1, 53, 0
3, 34172, Note_off_c, 1, 50, 0
3, 34172, Note_off_c, 1, 56, 0
3, 34560, Note_on_c, 1, 50, 90
3, 34560, Note_on_c, 1, 38, 90
3, 34940, Note_off_c, 1, 50, 0
3, 34940, Note_off_c, 1, 38, 0
3, 34944, Note_on_c, 1, 56, 60
3, 34944, Note_on_c, 1, 53, 60
3, 34944, Note_on_c, 1, 50, 60
3, 34960, Note_on_c, 1, 59, 60
3, 35324, Note_off_c, 1, 56, 0
3, 35324, Note_off_c, 1, 53, 0
3, 35324, Note_off_c, 1, 50, 0
3, 35340, Note_off_c, 1, 59, 0
3, 35712, Note_on_c, 1, 51, 90
3, 35900, Note_off_c, 1, 51, 0
3, 35904, Note_on_c, 1, 55, 90
3, 36092, Note_off_c, 1, 55, 0
3, 36096, Note_on_c, 1, 60, 90
3, 36284, Note_off_c, 1, 60, 0
3, 36288, Note_on_c, 1, 55, 90
3, 36476, Note_off_c, 1, 55, 0
3, 36480, Note_on_c, 1, 60, 90
3, 36668, Note_off_c, 1, 60, 0
3, 36672, Note_on_c, 1, 55, 90
3, 36860, Note_off_c, 1, 55, 0
3, 36864, Note_on_c, 1, 51, 90
3, 37052, Note_off_c, 1, 51, 0
3, 37056, Note_on_c, 1, 55, 90
3, 37244, Note_off_c, 1, 55, 0
3, 37248, Note_on_c, 1, 60, 90
3, 37436, Note_off_c, 1, 60, 0
3, 37440, Note_on_c, 1, 55, 90
3, 37628, Note_off_c, 1, 55, 0
3, 37632, Note_on_c, 1, 60, 90
3, 37820, Note_off_c, 1, 60, 0
3, 37824, Note_on_c, 1, 55, 90
3, 38012, Note_off_c, 1, 55, 0
3, 38016, Note_on_c, 1, 48, 90
3, 38204, Note_off_c, 1, 48, 0
3, 38208, Note_on_c, 1, 51, 90
3, 38396, Note_off_c, 1, 51, 0
3, 38400, Note_on_c, 1, 56, 90
3, 38588, Note_off_c, 1, 56, 0
3, 38592, Note_on_c, 1, 51, 90
3, 38780, Note_off_c, 1, 51, 0
3, 38784, Note_on_c, 1, 56, 90
3, 38972, Note_off_c, 1, 56, 0
3, 38976, Note_on_c, 1, 51, 90
3, 39164, Note_off_c, 1, 51, 0
3, 39168, Note_on_c, 1, 48, 90
3, 39356, Note_off_c, 1, 48, 0
3, 39360, Note_on_c, 1, 51, 90
3, 39548, Note_off_c, 1, 51, 0
3, 39552, Note_on_c, 1, 56, 90
3, 39740, Note_off_c, 1, 56, 0
3, 39744, Note_on_c, 1, 51, 90
3, 39932, Note_off_c, 1, 51, 0
3, 39936, Note_on_c, 1, 56, 90
3, 40124, Note_off_c, 1, 56, 0
3, 40128, Note_on_c, 1, 51, 90
3, 40316, Note_off_c, 1, 51, 0
3, 40320, Note_on_c, 1, 44, 90
3, 40508, Note_off_c, 1, 44, 0
3, 40512, Note_on_c, 1, 48, 90
3, 40700, Note_off_c, 1, 48, 0
3, 40704, Note_on_c, 1, 51, 90
3, 40892, Note_off_c, 1, 51, 0
3, 40896, Note_on_c, 1, 48, 90
3, 41084, Note_off_c, 1, 48, 0
3, 41088, Note_on_c, 1, 51, 90
3, 41276, Note_off_c, 1, 51, 0
3, 41280, Note_on_c, 1, 48, 90
3, 41468, Note_off_c, 1, 48, 0
3, 41472, Note_on_c, 1, 44, 90
3, 41660, Note_off_c, 1, 44, 0
3, 41664, Note_on_c, 1, 48, 90
3, 41852, Note_off_c, 1, 48, 0
3, 41856, Note_on_c, 1, 51, 90
3, 42044, Note_off_c, 1, 51, 0
3, 42048, Note_on_c, 1, 48, 90
3, 42236, Note_off_c, 1, 48, 0
3, 42240, Note_on_c, 1, 51, 90
3, 42428, Note_off_c, 1, 51, 0
3, 42432, Note_on_c, 1, 48, 90
3, 42620, Note_off_c, 1, 48, 0
3, 42624, Note_on_c, 1, 43, 90
3, 42812, Note_off_c, 1, 43, 0
3, 42816, Note_on_c, 1, 47, 90
3, 43004, Note_off_c, 1, 47, 0
3, 43008, Note_on_c, 1, 50, 90
3, 43196, Note_off_c, 1, 50, 0
3, 43200, Note_on_c, 1, 55, 90
3, 43388, Note_off_c, 1, 55, 0
3, 43392, Note_on_c, 1, 48, 90
3, 43580, Note_off_c, 1, 48, 0
3, 43584, Note_on_c, 1, 51, 90
3, 43772, Note_off_c, 1, 51, 0
3, 43776, Note_on_c, 1, 43, 90
3, 43964, Note_off_c, 1, 43, 0
3, 43968, Note_on_c, 1, 47, 90
3, 44156, Note_off_c, 1, 47, 0
3, 44160, Note_on_c, 1, 50, 90
3, 44348, Note_off_c, 1, 50, 0
3, 44352, Note_on_c, 1, 55, 90
3, 44540, Note_off_c, 1, 55, 0
3, 44544, Note_on_c, 1, 48, 90
3, 44732, Note_off_c, 1, 48, 0
3, 44736, Note_on_c, 1, 51, 90
3, 44924, Note_off_c, 1, 51, 0
3, 44928, Note_on_c, 1, 55, 90
3, 44928, Note_on_c, 1, 43, 90
3, 45500, Note_off_c, 1, 55, 0
3, 45500, Note_off_c, 1, 43, 0
3, 45504, Note_on_c, 1, 56, 90
3, 45596, Note_off_c, 1, 56, 0
3, 45600, Note_on_c, 1, 55, 90
3, 45692, Note_off_c, 1, 55, 0
3, 45696, Note_on_c, 1, 53, 90
3, 45788, Note_off_c, 1, 53, 0
3, 45792, Note_on_c, 1, 51, 90
3, 45884, Note_off_c, 1, 51, 0
3, 45888, Note_on_c, 1, 50, 90
3, 45980, Note_off_c, 1, 50, 0
3, 45984, Note_on_c, 1, 48, 90
3, 46076, Note_off_c, 1, 48, 0
3, 46080, Note_on_c, 1, 55, 97
3, 46460, Note_off_c, 1, 55, 0
3, 46464, Note_on_c, 1, 43, 60
3, 46844, Note_off_c, 1, 43, 0
3, 47232, Note_on_c, 1, 48, 60
3, 47276, Note_off_c, 1, 48, 0
3, 47280, Note_on_c, 1, 55, 60
3, 47324, Note_off_c, 1, 55, 0
3, 47328, Note_on_c, 1, 60, 60
3, 47708, Note_off_c, 1, 60, 0
3, 48384, Note_on_c, 1, 55, 60
3, 48428, Note_off_c, 1, 55, 0
3, 48432, Note_on_c, 1, 62, 60
3, 48476, Note_off_c, 1, 62, 0
3, 48480, Note_on_c, 1, 65, 60
3, 48860, Note_off_c, 1, 65, 0
3, 49536, Note_on_c, 1, 48, 60
3, 49916, Note_off_c, 1, 48, 0
3, 49920, Note_on_c, 1, 52, 60
3, 50300, Note_off_c, 1, 52, 0
3, 50304, Note_on_c, 1, 55, 60
3, 50684, Note_off_c, 1, 55, 0
3, 50688, Note_on_c, 1, 60, 60
3, 51068, Note_off_c, 1, 60, 0
3, 51072, Note_on_c, 1, 48, 60
3, 51452, Note_off_c, 1, 48, 0
3, 51840, Note_on_c, 1, 57, 60
3, 52224, Note_on_c, 1, 60, 60
3, 52224, Note_on_c, 1, 65, 60
3, 52604, Note_off_c, 1, 57, 0
3, 52604, Note_off_c, 1, 60, 0
3, 52604, Note_off_c, 1, 65, 0
3, 52992, Note_on_c, 1, 59, 60
3, 53376, Note_on_c, 1, 62, 60
3, 53376, Note_on_c, 1, 67, 60
3, 53756, Note_off_c, 1, 59, 0
3, 53756, Note_off_c, 1, 62, 0
3, 53756, Note_off_c, 1, 67, 0
3, 54144, Note_on_c, 1, 60, 60
3, 54524, Note_off_c, 1, 60, 0
3, 54528, Note_on_c, 1, 60, 60
3, 54528, Note_on_c, 1, 57, 60
3, 54908, Note_off_c, 1, 60, 0
3, 54908, Note_off_c, 1, 57, 0
3, 54912, Note_on_c, 1, 53, 60
3, 54912, Note_on_c, 1, 62, 60
3, 55292, Note_off_c, 1, 53, 0
3, 55292, Note_off_c, 1, 62, 0
3, 55296, Note_on_c, 1, 55, 60
3, 55296, Note_on_c, 1, 59, 60
3, 55676, Note_off_c, 1, 55, 0
3, 55676, Note_off_c, 1, 59, 0
3, 59136, Note_on_c, 1, 52, 60
3, 59516, Note_off_c, 1, 52, 0
3, 59520, Note_on_c, 1, 55, 60
3, 59900, Note_off_c, 1, 55, 0
3, 59904, Note_on_c, 1, 60, 60
3, 60284, Note_off_c, 1, 60, 0
3, 60288, Note_on_c, 1, 55, 60
3, 60668, Note_off_c, 1, 55, 0
3, 60672, Note_on_c, 1, 48, 60
3, 61052, Note_off_c, 1, 48, 0
3, 63744, Note_on_c, 1, 53, 90
3, 63744, Note_on_c, 1, 62, 90
3, 64124, Note_off_c, 1, 53, 0
3, 64124, Note_off_c, 1, 62, 0
3, 64128, Note_on_c, 1, 65, 90
3, 64128, Note_on_c, 1, 55, 90
3, 64508, Note_off_c, 1, 65, 0
3, 64508, Note_off_c, 1, 55, 0
3, 64512, Note_on_c, 1, 60, 60
3, 64512, Note_on_c, 1, 64, 60
3, 64892, Note_off_c, 1, 60, 0
3, 64892, Note_off_c, 1, 64, 0
3, 64896, Note_on_c, 1, 64, 60
3, 65276, Note_off_c, 1, 64, 0
3, 65280, Note_on_c, 1, 60, 60
3, 65660, Note_off_c, 1, 60, 0
3, 65664, Note_on_c, 1, 62, 60
3, 66044, Note_off_c, 1, 62, 0
3, 66048, Note_on_c, 1, 59, 60
3, 66428, Note_off_c, 1, 59, 0
3, 66432, Note_on_c, 1, 55, 60
3, 66812, Note_off_c, 1, 55, 0
3, 66816, Note_on_c, 1, 48, 60
3, 67196, Note_off_c, 1, 48, 0
3, 67200, Note_on_c, 1, 51, 60
3, 67580, Note_off_c, 1, 51, 0
3, 67584, Note_on_c, 1, 48, 60
3, 67964, Note_off_c, 1, 48, 0
3, 67968, Note_on_c, 1, 50, 60
3, 68348, Note_off_c, 1, 50, 0
3, 68352, Note_on_c, 1, 47, 60
3, 68732, Note_off_c, 1, 47, 0
3, 68736, Note_on_c, 1, 43, 60
3, 69116, Note_off_c, 1, 43, 0
3, 69120, Note_on_c, 1, 48, 90
3, 69120, Note_on_c, 1, 36, 90
3, 69500, Note_off_c, 1, 48, 0
3, 69500, Note_off_c, 1, 36, 0
3, 69504, Note_on_c, 1, 51, 60
3, 69884, Note_off_c, 1, 51, 0
3, 69888, Note_on_c, 1, 55, 60
3, 70268, Note_off_c, 1, 55, 0
3, 70272, Note_on_c, 1, 53, 90
3, 70272, Note_on_c, 1, 41, 90
3, 70652, Note_off_c, 1, 53, 0
3, 70652, Note_off_c, 1, 41, 0
3, 70656, Note_on_c, 1, 56, 60
3, 71036, Note_off_c, 1, 56, 0
3, 71040, Note_on_c, 1, 60, 60
3, 71420, Note_off_c, 1, 60, 0
3, 71424, Note_on_c, 1, 46, 90
3, 71424, Note_on_c, 1, 34, 90
3, 71804, Note_off_c, 1, 46, 0
3, 71804, Note_off_c, 1, 34, 0
3, 71808, Note_on_c, 1, 50, 60
3, 72188, Note_off_c, 1, 50, 0
3, 72192, Note_on_c, 1, 53, 60
3, 72572, Note_off_c, 1, 53, 0
3, 72576, Note_on_c, 1, 51, 90
3, 72576, Note_on_c, 1, 39, 90
3, 72956, Note_off_c, 1, 51, 0
3, 72956, Note_off_c, 1, 39, 0
3, 72960, Note_on_c, 1, 55, 60
3, 73340, Note_off_c, 1, 55, 0
3, 73344, Note_on_c, 1, 58, 60
3, 73724, Note_off_c, 1, 58, 0
3, 73728, Note_on_c, 1, 44, 90
3, 73728, Note_on_c, 1, 32, 90
3, 74108, Note_off_c, 1, 44, 0
3, 74108, Note_off_c, 1, 32, 0
3, 74112, Note_on_c, 1, 56, 60
3, 74492, Note_off_c, 1, 56, 0
3, 74496, Note_on_c, 1, 50, 90
3, 74496, Note_on_c, 1, 38, 90
3, 74876, Note_off_c, 1, 50, 0
3, 74876, Note_off_c, 1, 38, 0
3, 74880, Note_on_c, 1, 62, 60
3, 75260, Note_off_c, 1, 62, 0
3, 75264, Note_on_c, 1, 43, 90
3, 75264, Note_on_c, 1, 31, 90
3, 75644, Note_off_c, 1, 43, 0
3, 75644, Note_off_c, 1, 31, 0
3, 75648, Note_on_c, 1, 55, 60
3, 76028, Note_off_c, 1, 55, 0
3, 76032, Note_on_c, 1, 56, 60
3, 76412, Note_off_c, 1, 56, 0
3, 76416, Note_on_c, 1, 55, 60
3, 76796, Note_off_c, 1, 55, 0
3, 76800, Note_on_c, 1, 54, 60
3, 77180, Note_off_c, 1, 54, 0
3, 77184, Note_on_c, 1, 55, 60
3, 77564, Note_off_c, 1, 55, 0
3, 78144, Note_on_c, 1, 54, 60
3, 78332, Note_off_c, 1, 54, 0
3, 78336, Note_on_c, 1, 55, 60
3, 78716, Note_off_c, 1, 55, 0
3, 79296, Note_on_c, 1, 54, 60
3, 79484, Note_off_c, 1, 54, 0
3, 79488, Note_on_c, 1, 55, 60
3, 79676, Note_off_c, 1, 55, 0
3, 79680, Note_on_c, 1, 54, 60
3, 79868, Note_off_c, 1, 54, 0
3, 79872, Note_on_c, 1, 55, 60
3, 80060, Note_off_c, 1, 55, 0
3, 80064, Note_on_c, 1, 54, 60
3, 80252, Note_off_c, 1, 54, 0
3, 80256, Note_on_c, 1, 55, 60
3, 80444, Note_off_c, 1, 55, 0
3, 80448, Note_on_c, 1, 54, 60
3, 80636, Note_off_c, 1, 54, 0
3, 80640, Note_on_c, 1, 55, 60
3, 81020, Note_off_c, 1, 55, 0
3, 81792, Note_on_c, 1, 53, 82
3, 82172, Note_off_c, 1, 53, 0
3, 82176, Note_on_c, 1, 53, 60
3, 82556, Note_off_c, 1, 53, 0
3, 82560, Note_on_c, 1, 53, 60
3, 82940, Note_off_c, 1, 53, 0
3, 82944, Note_on_c, 1, 53, 60
3, 83708, Note_off_c, 1, 53, 0
3, 83712, Note_on_c, 1, 48, 60
3, 84092, Note_off_c, 1, 48, 0
3, 85248, Note_on_c, 1, 43, 60
3, 86012, Note_off_c, 1, 43, 0
3, 86016, Note_on_c, 1, 45, 60
3, 86396, Note_off_c, 1, 45, 0
3, 86400, Note_on_c, 1, 41, 60
3, 86780, Note_off_c, 1, 41, 0
3, 86784, Note_on_c, 1, 43, 60
3, 87164, Note_off_c, 1, 43, 0
3, 87168, Note_on_c, 1, 43, 60
3, 87548, Note_off_c, 1, 43, 0
3, 87552, Note_on_c, 1, 48, 60
3, 87932, Note_off_c, 1, 48, 0
3, 88704, Note_on_c, 1, 60, 82
3, 88704, Note_on_c, 1, 65, 82
3, 89084, Note_off_c, 1, 60, 0
3, 89084, Note_off_c, 1, 65, 0
3, 89088, Note_on_c, 1, 60, 60
3, 89088, Note_on_c, 1, 65, 60
3, 89468, Note_off_c, 1, 60, 0
3, 89468, Note_off_c, 1, 65, 0
3, 89472, Note_on_c, 1, 60, 60
3, 89472, Note_on_c, 1, 65, 60
3, 89852, Note_off_c, 1, 60, 0
3, 89852, Note_off_c, 1, 65, 0
3, 89856, Note_on_c, 1, 65, 60
3, 89856, Note_on_c, 1, 60, 60
3, 90620, Note_off_c, 1, 65, 0
3, 90620, Note_off_c, 1, 60, 0
3, 90624, Note_on_c, 1, 64, 60
3, 91004, Note_off_c, 1, 64, 0
3, 91008, Note_on_c, 1, 62, 60
3, 91008, Note_on_c, 1, 55, 60
3, 91388, Note_off_c, 1, 62, 0
3, 91388, Note_off_c, 1, 55, 0
3, 91392, Note_on_c, 1, 55, 60
3, 91392, Note_on_c, 1, 62, 60
3, 91772, Note_off_c, 1, 55, 0
3, 91772, Note_off_c, 1, 62, 0
3, 91776, Note_on_c, 1, 55, 60
3, 91776, Note_on_c, 1, 62, 60
3, 92156, Note_off_c, 1, 55, 0
3, 92156, Note_off_c, 1, 62, 0
3, 92160, Note_on_c, 1, 62, 60
3, 92160, Note_on_c, 1, 56, 60
3, 92924, Note_off_c, 1, 62, 0
3, 92924, Note_off_c, 1, 56, 0
3, 92928, Note_on_c, 1, 60, 60
3, 92928, Note_on_c, 1, 57, 60
3, 93308, Note_off_c, 1, 60, 0
3, 93308, Note_off_c, 1, 57, 0
3, 93312, Note_on_c, 1, 53, 60
3, 93692, Note_off_c, 1, 53, 0
3, 93696, Note_on_c, 1, 55, 60
3, 94076, Note_off_c, 1, 55, 0
3, 94080, Note_on_c, 1, 53, 60
3, 94460, Note_off_c, 1, 53, 0
3, 94464, Note_on_c, 1, 52, 90
3, 94464, Note_on_c, 1, 40, 90
3, 94652, Note_off_c, 1, 52, 0
3, 94652, Note_off_c, 1, 40, 0
3, 94848, Note_on_c, 1, 56, 60
3, 95036, Note_off_c, 1, 56, 0
3, 95232, Note_on_c, 1, 57, 60
3, 95420, Note_off_c, 1, 57, 0
3, 95616, Note_on_c, 1, 53, 60
3, 95804, Note_off_c, 1, 53, 0
3, 96000, Note_on_c, 1, 55, 60
3, 96188, Note_off_c, 1, 55, 0
3, 96384, Note_on_c, 1, 53, 60
3, 96572, Note_off_c, 1, 53, 0
3, 96768, Note_on_c, 1, 52, 90
3, 96768, Note_on_c, 1, 40, 90
3, 97148, Note_off_c, 1, 52, 0
3, 97148, Note_off_c, 1, 40, 0
3, 97152, Note_on_c, 1, 56, 90
3, 97152, Note_on_c, 1, 44, 90
3, 97532, Note_off_c, 1, 56, 0
3, 97532, Note_off_c, 1, 44, 0
3, 97536, Note_on_c, 1, 57, 90
3, 97536, Note_on_c, 1, 45, 90
3, 97916, Note_off_c, 1, 57, 0
3, 97916, Note_off_c, 1, 45, 0
3, 97920, Note_on_c, 1, 53, 90
3, 97920, Note_on_c, 1, 41, 90
3, 98300, Note_off_c, 1, 53, 0
3, 98300, Note_off_c, 1, 41, 0
3, 98304, Note_on_c, 1, 55, 90
3, 98304, Note_on_c, 1, 43, 90
3, 98684, Note_off_c, 1, 55, 0
3, 98684, Note_off_c, 1, 43, 0
3, 98688, Note_on_c, 1, 55, 90
3, 98688, Note_on_c, 1, 43, 90
3, 99068, Note_off_c, 1, 55, 0
3, 99068, Note_off_c, 1, 43, 0
3, 99072, Note_on_c, 1, 48, 90
3, 99164, Note_off_c, 1, 48, 0
3, 99168, Note_on_c, 1, 52, 90
3, 99260, Note_off_c, 1, 52, 0
3, 99264, Note_on_c, 1, 55, 90
3, 99356, Note_off_c, 1, 55, 0
3, 99360, Note_on_c, 1, 60, 90
3, 99452, Note_off_c, 1, 60, 0
3, 99456, Note_on_c, 1, 48, 90
3, 99548, Note_off_c, 1, 48, 0
3, 99552, Note_on_c, 1, 52, 90
3, 99644, Note_off_c, 1, 52, 0
3, 99648, Note_on_c, 1, 55, 90
3, 99740, Note_off_c, 1, 55, 0
3, 99744, Note_on_c, 1, 60, 90
3, 99836, Note_off_c, 1, 60, 0
3, 99840, Note_on_c, 1, 48, 90
3, 99932, Note_off_c, 1, 48, 0
3, 99936, Note_on_c, 1, 52, 90
3, 100028, Note_off_c, 1, 52, 0
3, 100032, Note_on_c, 1, 55, 90
3, 100124, Note_off_c, 1, 55, 0
3, 100128, Note_on_c, 1, 60, 90
3, 100220, Note_off_c, 1, 60, 0
3, 100224, Note_on_c, 1, 48, 90
3, 100316, Note_off_c, 1, 48, 0
3, 100320, Note_on_c, 1, 52, 90
3, 100412, Note_off_c, 1, 52, 0
3, 100416, Note_on_c, 1, 55, 90
3, 100508, Note_off_c, 1, 55, 0
3, 100512, Note_on_c, 1, 60, 90
3, 100604, Note_off_c, 1, 60, 0
3, 100608, Note_on_c, 1, 48, 90
3, 100700, Note_off_c, 1, 48, 0
3, 100704, Note_on_c, 1, 52, 90
3, 100796, Note_off_c, 1, 52, 0
3, 100800, Note_on_c, 1, 55, 90
3, 100892, Note_off_c, 1, 55, 0
3, 100896, Note_on_c, 1, 60, 90
3, 100988, Note_off_c, 1, 60, 0
3, 100992, Note_on_c, 1, 48, 90
3, 101084, Note_off_c, 1, 48, 0
3, 101088, Note_on_c, 1, 53, 90
3, 101180, Note_off_c, 1, 53, 0
3, 101184, Note_on_c, 1, 55, 90
3, 101276, Note_off_c, 1, 55, 0
3, 101280, Note_on_c, 1, 60, 90
3, 101372, Note_off_c, 1, 60, 0
3, 101376, Note_on_c, 1, 48, 90
3, 101468, Note_off_c, 1, 48, 0
3, 101472, Note_on_c, 1, 52, 90
3, 101564, Note_off_c, 1, 52, 0
3, 101568, Note_on_c, 1, 55, 90
3, 101660, Note_off_c, 1, 55, 0
3, 101664, Note_on_c, 1, 60, 90
3, 101756, Note_off_c, 1, 60, 0
3, 101760, Note_on_c, 1, 48, 90
3, 101852, Note_off_c, 1, 48, 0
3, 101856, Note_on_c, 1, 52, 90
3, 101948, Note_off_c, 1, 52, 0
3, 101952, Note_on_c, 1, 55, 90
3, 102044, Note_off_c, 1, 55, 0
3, 102048, Note_on_c, 1, 60, 90
3, 102140, Note_off_c, 1, 60, 0
3, 102144, Note_on_c, 1, 48, 90
3, 102236, Note_off_c, 1, 48, 0
3, 102240, Note_on_c, 1, 52, 90
3, 102332, Note_off_c, 1, 52, 0
3, 102336, Note_on_c, 1, 55, 90
3, 102428, Note_off_c, 1, 55, 0
3, 102432, Note_on_c, 1, 60, 90
3, 102524, Note_off_c, 1, 60, 0
3, 102528, Note_on_c, 1, 48, 90
3, 102620, Note_off_c, 1, 48, 0
3, 102624, Note_on_c, 1, 52, 90
3, 102716, Note_off_c, 1, 52, 0
3, 102720, Note_on_c, 1, 55, 90
3, 102812, Note_off_c, 1, 55, 0
3, 102816, Note_on_c, 1, 60, 90
3, 102908, Note_off_c, 1, 60, 0
3, 102912, Note_on_c, 1, 48, 90
3, 103004, Note_off_c, 1, 48, 0
3, 103008, Note_on_c, 1, 52, 90
3, 103100, Note_off_c, 1, 52, 0
3, 103104, Note_on_c, 1, 55, 90
3, 103196, Note_off_c, 1, 55, 0
3, 103200, Note_on_c, 1, 60, 90
3, 103292, Note_off_c, 1, 60, 0
3, 103296, Note_on_c, 1, 48, 90
3, 103388, Note_off_c, 1, 48, 0
3, 103392, Note_on_c, 1, 53, 90
3, 103484, Note_off_c, 1, 53, 0
3, 103488, Note_on_c, 1, 55, 90
3, 103580, Note_off_c, 1, 55, 0
3, 103584, Note_on_c, 1, 60, 90
3, 103676, Note_off_c, 1, 60, 0
3, 103680, Note_on_c, 1, 60, 90
3, 103680, Note_on_c, 1, 55, 90
3, 103680, Note_on_c, 1, 52, 90
3, 103680, Note_on_c, 1, 48, 90
3, 104060, Note_off_c, 1, 60, 0
3, 104060, Note_off_c, 1, 55, 0
3, 104060, Note_off_c, 1, 52, 0
3, 104060, Note_off_c, 1, 48, 0
3, 104064, Note_on_c, 1, 64, 97
3, 104064, Note_on_c, 1, 52, 97
3, 104636, Note_off_c, 1, 64, 0
3, 104636, Note_off_c, 1, 52, 0
3, 104640, Note_on_c, 1, 56, 90
3, 104640, Note_on_c, 1, 44, 90
3, 104828, Note_off_c, 1, 56, 0
3, 104828, Note_off_c, 1, 44, 0
3, 104832, Note_on_c, 1, 57, 90
3, 104832, Note_on_c, 1, 45, 90
3, 105212, Note_off_c, 1, 57, 0
3, 105212, Note_off_c, 1, 45, 0
3, 105216, Note_on_c, 1, 48, 97
3, 105216, Note_on_c, 1, 60, 97
3, 105788, Note_off_c, 1, 48, 0
3, 105788, Note_off_c, 1, 60, 0
3, 105792, Note_on_c, 1, 52, 90
3, 105980, Note_off_c, 1, 52, 0
3, 105984, Note_on_c, 1, 55, 90
3, 106028, Note_off_c, 1, 55, 0
3, 106032, Note_on_c, 1, 53, 90
3, 106076, Note_off_c, 1, 53, 0
3, 106080, Note_on_c, 1, 55, 90
3, 106124, Note_off_c, 1, 55, 0
3, 106128, Note_on_c, 1, 53, 90
3, 106172, Note_off_c, 1, 53, 0
3, 106176, Note_on_c, 1, 52, 90
3, 106220, Note_off_c, 1, 52, 0
3, 106224, Note_on_c, 1, 53, 90
3, 106268, Note_off_c, 1, 53, 0
3, 106272, Note_on_c, 1, 52, 90
3, 106316, Note_off_c, 1, 52, 0
3, 106320, Note_on_c, 1, 50, 90
3, 106364, Note_off_c, 1, 50, 0
3, 106368, Note_on_c, 1, 55, 90
3, 106748, Note_off_c, 1, 55, 0
3, 106752, Note_on_c, 1, 55, 90
3, 106752, Note_on_c, 1, 43, 90
3, 107132, Note_off_c, 1, 55, 0
3, 107132, Note_off_c, 1, 43, 0
3, 107136, Note_on_c, 1, 60, 90
3, 107136, Note_on_c, 1, 48, 90
3, 107516, Note_off_c, 1, 60, 0
3, 107516, Note_off_c, 1, 48, 0
3, 107520, Note_on_c, 1, 48, 90
3, 107520, Note_on_c, 1, 36, 90
3, 107900, Note_off_c, 1, 48, 0
3, 107900, Note_off_c, 1, 36, 0
3, 108288, Note_on_c, 1, 53, 60
3, 108476, Note_off_c, 1, 53, 0
3, 108480, Note_on_c, 1, 57, 60
3, 108668, Note_off_c, 1, 57, 0
3, 108672, Note_on_c, 1, 60, 60
3, 108860, Note_off_c, 1, 60, 0
3, 108864, Note_on_c, 1, 57, 60
3, 109052, Note_off_c, 1, 57, 0
3, 109056, Note_on_c, 1, 60, 60
3, 109244, Note_off_c, 1, 60, 0
3, 109248, Note_on_c, 1, 57, 60
3, 109436, Note_off_c, 1, 57, 0
3, 109440, Note_on_c, 1, 53, 60
3, 109628, Note_off_c, 1, 53, 0
3, 109632, Note_on_c, 1, 60, 60
3, 109820, Note_off_c, 1, 60, 0
3, 109824, Note_on_c, 1, 63, 60
3, 110012, Note_off_c, 1, 63, 0
3, 110016, Note_on_c, 1, 60, 60
3, 110204, Note_off_c, 1, 60, 0
3, 110208, Note_on_c, 1, 63, 60
3, 110396, Note_off_c, 1, 63, 0
3, 110400, Note_on_c, 1, 60, 60
3, 110588, Note_off_c, 1, 60, 0
3, 110592, Note_on_c, 1, 53, 60
3, 110780, Note_off_c, 1, 53, 0
3, 110784, Note_on_c, 1, 58, 60
3, 110972, Note_off_c, 1, 58, 0
3, 110976, Note_on_c, 1, 62, 60
3, 111164, Note_off_c, 1, 62, 0
3, 111168, Note_on_c, 1, 58, 60
3, 111356, Note_off_c, 1, 58, 0
3, 111360, Note_on_c, 1, 62, 60
3, 111548, Note_off_c, 1, 62, 0
3, 111552, Note_on_c, 1, 58, 60
3, 111740, Note_off_c, 1, 58, 0
3, 111744, Note_on_c, 1, 53, 60
3, 111932, Note_off_c, 1, 53, 0
3, 111936, Note_on_c, 1, 55, 60
3, 112124, Note_off_c, 1, 55, 0
3, 112128, Note_on_c, 1, 58, 60
3, 112316, Note_off_c, 1, 58, 0
3, 112320, Note_on_c, 1, 55, 60
3, 112508, Note_off_c, 1, 55, 0
3, 112512, Note_on_c, 1, 58, 60
3, 112700, Note_off_c, 1, 58, 0
3, 112704, Note_on_c, 1, 55, 60
3, 112892, Note_off_c, 1, 55, 0
3, 112896, Note_on_c, 1, 57, 82
3, 112896, Note_on_c, 1, 53, 82
3, 113276, Note_off_c, 1, 57, 0
3, 113276, Note_off_c, 1, 53, 0
3, 115200, Note_on_c, 1, 53, 82
3, 115580, Note_off_c, 1, 53, 0
3, 115584, Note_on_c, 1, 45, 82
3, 115964, Note_off_c, 1, 45, 0
3, 115968, Note_on_c, 1, 50, 82
3, 116348, Note_off_c, 1, 50, 0
3, 116352, Note_on_c, 1, 43, 85
3, 116732, Note_off_c, 1, 43, 0
3, 116736, Note_on_c, 1, 48, 102
3, 117308, Note_off_c, 1, 48, 0
3, 117312, Note_on_c, 1, 45, 61
3, 117500, Note_off_c, 1, 45, 0
3, 117504, Note_on_c, 1, 41, 64
3, 117884, Note_off_c, 1, 41, 0
3, 117888, Note_on_c, 1, 50, 60
3, 118268, Note_off_c, 1, 50, 0
3, 118272, Note_on_c, 1, 46, 60
3, 118652, Note_off_c, 1, 46, 0
3, 118656, Note_on_c, 1, 45, 60
3, 119036, Note_off_c, 1, 45, 0
3, 119424, Note_on_c, 1, 50, 60
3, 119804, Note_off_c, 1, 50, 0
3, 119808, Note_on_c, 1, 46, 90
3, 120188, Note_off_c, 1, 46, 0
3, 120576, Note_on_c, 1, 48, 90
3, 120956, Note_off_c, 1, 48, 0
3, 120960, Note_on_c, 1, 41, 90
3, 121340, Note_off_c, 1, 41, 0
3, 132096, Note_on_c, 1, 58, 60
3, 132096, Note_on_c, 1, 52, 60
3, 132096, Note_on_c, 1, 48, 60
3, 132476, Note_off_c, 1, 58, 0
3, 132476, Note_off_c, 1, 52, 0
3, 132476, Note_off_c, 1, 48, 0
3, 132480, Note_on_c, 1, 57, 60
3, 132480, Note_on_c, 1, 53, 60
3, 132860, Note_off_c, 1, 57, 0
3, 132860, Note_off_c, 1, 53, 0
3, 133248, Note_on_c, 1, 37, 90
3, 133248, Note_on_c, 1, 49, 90
3, 133628, Note_off_c, 1, 37, 0
3, 133628, Note_off_c, 1, 49, 0
3, 133632, Note_on_c, 1, 38, 90
3, 133632, Note_on_c, 1, 50, 90
3, 133820, Note_off_c, 1, 38, 0
3, 133820, Note_off_c, 1, 50, 0
3, 133824, Note_on_c, 1, 53, 90
3, 134012, Note_off_c, 1, 53, 0
3, 134016, Note_on_c, 1, 57, 90
3, 134204, Note_off_c, 1, 57, 0
3, 134208, Note_on_c, 1, 53, 90
3, 134396, Note_off_c, 1, 53, 0
3, 134400, Note_on_c, 1, 57, 90
3, 134588, Note_off_c, 1, 57, 0
3, 134592, Note_on_c, 1, 53, 90
3, 134780, Note_off_c, 1, 53, 0
3, 134784, Note_on_c, 1, 50, 90
3, 134972, Note_off_c, 1, 50, 0
3, 134976, Note_on_c, 1, 53, 90
3, 135164, Note_off_c, 1, 53, 0
3, 135168, Note_on_c, 1, 57, 90
3, 135356, Note_off_c, 1, 57, 0
3, 135360, Note_on_c, 1, 53, 90
3, 135548, Note_off_c, 1, 53, 0
3, 135552, Note_on_c, 1, 57, 90
3, 135740, Note_off_c, 1, 57, 0
3, 135744, Note_on_c, 1, 53, 90
3, 135932, Note_off_c, 1, 53, 0
3, 136128, Note_on_c, 1, 52, 90
3, 136128, Note_on_c, 1, 40, 90
3, 136316, Note_off_c, 1, 52, 0
3, 136316, Note_off_c, 1, 40, 0
3, 136320, Note_on_c, 1, 55, 60
3, 136320, Note_on_c, 1, 52, 60
3, 136320, Note_on_c, 1, 61, 60
3, 136320, Note_on_c, 1, 59, 60
3, 136700, Note_off_c, 1, 55, 0
3, 136700, Note_off_c, 1, 52, 0
3, 136700, Note_off_c, 1, 61, 0
3, 136700, Note_off_c, 1, 59, 0
3, 137088, Note_on_c, 1, 52, 90
3, 137088, Note_on_c, 1, 40, 90
3, 137468, Note_off_c, 1, 52, 0
3, 137468, Note_off_c, 1, 40, 0
3, 137472, Note_on_c, 1, 55, 60
3, 137472, Note_on_c, 1, 52, 60
3, 137472, Note_on_c, 1, 58, 60
3, 137472, Note_on_c, 1, 61, 60
3, 137852, Note_off_c, 1, 55, 0
3, 137852, Note_off_c, 1, 52, 0
3, 137852, Note_off_c, 1, 58, 0
3, 137852, Note_off_c, 1, 61, 0
3, 138240, Note_on_c, 1, 53, 90
3, 138428, Note_off_c, 1, 53, 0
3, 138432, Note_on_c, 1, 57, 90
3, 138620, Note_off_c, 1, 57, 0
3, 138624, Note_on_c, 1, 62, 90
3, 138812, Note_off_c, 1, 62, 0
3, 138816, Note_on_c, 1, 57, 90
3, 139004, Note_off_c, 1, 57, 0
3, 139008, Note_on_c, 1, 62, 90
3, 139196, Note_off_c, 1, 62, 0
3, 139200, Note_on_c, 1, 57, 90
3, 139388, Note_off_c, 1, 57, 0
3, 139392, Note_on_c, 1, 53, 90
3, 139580, Note_off_c, 1, 53, 0
3, 139584, Note_on_c, 1, 57, 90
3, 139772, Note_off_c, 1, 57, 0
3, 139776, Note_on_c, 1, 62, 90
3, 139964, Note_off_c, 1, 62, 0
3, 139968, Note_on_c, 1, 57, 90
3, 140156, Note_off_c, 1, 57, 0
3, 140160, Note_on_c, 1, 62, 90
3, 140348, Note_off_c, 1, 62, 0
3, 140352, Note_on_c, 1, 57, 90
3, 140540, Note_off_c, 1, 57, 0
3, 140544, Note_on_c, 1, 50, 90
3, 140544, Note_on_c, 1, 38, 90
3, 140924, Note_off_c, 1, 50, 0
3, 140924, Note_off_c, 1, 38, 0
3, 140928, Note_on_c, 1, 59, 60
3, 140928, Note_on_c, 1, 53, 60
3, 140928, Note_on_c, 1, 50, 60
3, 140928, Note_on_c, 1, 56, 60
3, 141308, Note_off_c, 1, 59, 0
3, 141308, Note_off_c, 1, 53, 0
3, 141308, Note_off_c, 1, 50, 0
3, 141308, Note_off_c, 1, 56, 0
3, 141696, Note_on_c, 1, 50, 90
3, 141696, Note_on_c, 1, 38, 90
3, 142076, Note_off_c, 1, 50, 0
3, 142076, Note_off_c, 1, 38, 0
3, 142080, Note_on_c, 1, 56, 60
3, 142080, Note_on_c, 1, 53, 60
3, 142080, Note_on_c, 1, 50, 60
3, 142096, Note_on_c, 1, 59, 60
3, 142460, Note_off_c, 1, 56, 0
3, 142460, Note_off_c, 1, 53, 0
3, 142460, Note_off_c, 1, 50, 0
3, 142476, Note_off_c, 1, 59, 0
3, 142848, Note_on_c, 1, 51, 90
3, 143036, Note_off_c, 1, 51, 0
3, 143040, Note_on_c, 1, 55, 90
3, 143228, Note_off_c, 1, 55, 0
3, 143232, Note_on_c, 1, 60, 90
3, 143420, Note_off_c, 1, 60, 0
3, 143424, Note_on_c, 1, 55, 90
3, 143612, Note_off_c, 1, 55, 0
3, 143616, Note_on_c, 1, 60, 90
3, 143804, Note_off_c, 1, 60, 0
3, 143808, Note_on_c, 1, 55, 90
3, 143996, Note_off_c, 1, 55, 0
3, 144000, Note_on_c, 1, 51, 90
3, 144188, Note_off_c, 1, 51, 0
3, 144192, Note_on_c, 1, 55, 90
3, 144380, Note_off_c, 1, 55, 0
3, 144384, Note_on_c, 1, 60, 90
3, 144572, Note_off_c, 1, 60, 0
3, 144576, Note_on_c, 1, 55, 90
3, 144764, Note_off_c, 1, 55, 0
3, 144768, Note_on_c, 1, 60, 90
3, 144956, Note_off_c, 1, 60, 0
3, 144960, Note_on_c, 1, 55, 90
3, 145148, Note_off_c, 1, 55, 0
3, 145152, Note_on_c, 1, 48, 90
3, 145340, Note_off_c, 1, 48, 0
3, 145344, Note_on_c, 1, 51, 90
3, 145532, Note_off_c, 1, 51, 0
3, 145536, Note_on_c, 1, 56, 90
3, 145724, Note_off_c, 1, 56, 0
3, 145728, Note_on_c, 1, 51, 90
3, 145916, Note_off_c, 1, 51, 0
3, 145920, Note_on_c, 1, 56, 90
3, 146108, Note_off_c, 1, 56, 0
3, 146112, Note_on_c, 1, 51, 90
3, 146300, Note_off_c, 1, 51, 0
3, 146304, Note_on_c, 1, 48, 90
3, 146492, Note_off_c, 1, 48, 0
3, 146496, Note_on_c, 1, 51, 90
3, 146684, Note_off_c, 1, 51, 0
3, 146688, Note_on_c, 1, 56, 90
3, 146876, Note_off_c, 1, 56, 0
3, 146880, Note_on_c, 1, 51, 90
3, 147068, Note_off_c, 1, 51, 0
3, 147072, Note_on_c, 1, 56, 90
3, 147260, Note_off_c, 1, 56, 0
3, 147264, Note_on_c, 1, 51, 90
3, 147452, Note_off_c, 1, 51, 0
3, 147456, Note_on_c, 1, 44, 90
3, 147644, Note_off_c, 1, 44, 0
3, 147648, Note_on_c, 1, 48, 90
3, 147836, Note_off_c, 1, 48, 0
3, 147840, Note_on_c, 1, 51, 90
3, 148028, Note_off_c, 1, 51, 0
3, 148032, Note_on_c, 1, 48, 90
3, 148220, Note_off_c, 1, 48, 0
3, 148224, Note_on_c, 1, 51, 90
3, 148412, Note_off_c, 1, 51, 0
3, 148416, Note_on_c, 1, 48, 90
3, 148604, Note_off_c, 1, 48, 0
3, 148608, Note_on_c, 1, 44, 90
3, 148796, Note_off_c, 1, 44, 0
3, 148800, Note_on_c, 1, 48, 90
3, 148988, Note_off_c, 1, 48, 0
3, 148992, Note_on_c, 1, 51, 90
3, 149180, Note_off_c, 1, 51, 0
3, 149184, Note_on_c, 1, 48, 90
3, 149372, Note_off_c, 1, 48, 0
3, 149376, Note_on_c, 1, 51, 90
3, 149564, Note_off_c, 1, 51, 0
3, 149568, Note_on_c, 1, 48, 90
3, 149756, Note_off_c, 1, 48, 0
3, 149760, Note_on_c, 1, 43, 90
3, 149948, Note_off_c, 1, 43, 0
3, 149952, Note_on_c, 1, 47, 90
3, 150140, Note_off_c, 1, 47, 0
3, 150144, Note_on_c, 1, 50, 90
3, 150332, Note_off_c, 1, 50, 0
3, 150336, Note_on_c, 1, 55, 90
3, 150524, Note_off_c, 1, 55, 0
3, 150528, Note_on_c, 1, 48, 90
3, 150716, Note_off_c, 1, 48, 0
3, 150720, Note_on_c, 1, 51, 90
3, 150908, Note_off_c, 1, 51, 0
3, 150912, Note_on_c, 1, 43, 90
3, 151100, Note_off_c, 1, 43, 0
3, 151104, Note_on_c, 1, 47, 90
3, 151292, Note_off_c, 1, 47, 0
3, 151296, Note_on_c, 1, 50, 90
3, 151484, Note_off_c, 1, 50, 0
3, 151488, Note_on_c, 1, 55, 90
3, 151676, Note_off_c, 1, 55, 0
3, 151680, Note_on_c, 1, 48, 90
3, 151868, Note_off_c, 1, 48, 0
3, 151872, Note_on_c, 1, 51, 90
3, 152060, Note_off_c, 1, 51, 0
3, 152064, Note_on_c, 1, 55, 90
3, 152064, Note_on_c, 1, 43, 90
3, 152636, Note_off_c, 1, 55, 0
3, 152636, Note_off_c, 1, 43, 0
3, 152640, Note_on_c, 1, 56, 90
3, 152732, Note_off_c, 1, 56, 0
3, 152736, Note_on_c, 1, 55, 90
3, 152828, Note_off_c, 1, 55, 0
3, 152832, Note_on_c, 1, 53, 90
3, 152924, Note_off_c, 1, 53, 0
3, 152928, Note_on_c, 1, 51, 90
3, 153020, Note_off_c, 1, 51, 0
3, 153024, Note_on_c, 1, 50, 90
3, 153116, Note_off_c, 1, 50, 0
3, 153120, Note_on_c, 1, 48, 90
3, 153212, Note_off_c, 1, 48, 0
3, 153216, Note_on_c, 1, 55, 97
3, 153596, Note_off_c, 1, 55, 0
3, 153600, Note_on_c, 1, 43, 60
3, 153980, Note_off_c, 1, 43, 0
3, 154368, Note_on_c, 1, 48, 60
3, 154412, Note_off_c, 1, 48, 0
3, 154416, Note_on_c, 1, 55, 60
3, 154460, Note_off_c, 1, 55, 0
3, 154464, Note_on_c, 1, 60, 60
3, 154844, Note_off_c, 1, 60, 0
3, 155520, Note_on_c, 1, 55, 60
3, 155564, Note_off_c, 1, 55, 0
3, 155568, Note_on_c, 1, 62, 60
3, 155612, Note_off_c, 1, 62, 0
3, 155616, Note_on_c, 1, 65, 60
3, 155996, Note_off_c, 1, 65, 0
3, 156672, Note_on_c, 1, 48, 60
3, 157052, Note_off_c, 1, 48, 0
3, 157056, Note_on_c, 1, 52, 60
3, 157436, Note_off_c, 1, 52, 0
3, 157440, Note_on_c, 1, 55, 60
3, 157820, Note_off_c, 1, 55, 0
3, 157824, Note_on_c, 1, 60, 60
3, 158204, Note_off_c, 1, 60, 0
3, 158208, Note_on_c, 1, 48, 60
3, 158588, Note_off_c, 1, 48, 0
3, 158976, Note_on_c, 1, 57, 60
3, 159360, Note_on_c, 1, 60, 60
3, 159360, Note_on_c, 1, 65, 60
3, 159740, Note_off_c, 1, 57, 0
3, 159740, Note_off_c, 1, 60, 0
3, 159740, Note_off_c, 1, 65, 0
3, 160128, Note_on_c, 1, 59, 60
3, 160512, Note_on_c, 1, 62, 60
3, 160512, Note_on_c, 1, 67, 60
3, 160892, Note_off_c, 1, 59, 0
3, 160892, Note_off_c, 1, 62, 0
3, 160892, Note_off_c, 1, 67, 0
3, 161280, Note_on_c, 1, 60, 60
3, 161660, Note_off_c, 1, 60, 0
3, 161664, Note_on_c, 1, 60, 60
3, 161664, Note_on_c, 1, 57, 60
3, 162044, Note_off_c, 1, 60, 0
3, 162044, Note_off_c, 1, 57, 0
3, 162048, Note_on_c, 1, 53, 60
3, 162048, Note_on_c, 1, 62, 60
3, 162428, Note_off_c, 1, 53, 0
3, 162428, Note_off_c, 1, 62, 0
3, 162432, Note_on_c, 1, 55, 60
3, 162432, Note_on_c, 1, 59, 60
3, 162812, Note_off_c, 1, 55, 0
3, 162812, Note_off_c, 1, 59, 0
3, 166272, Note_on_c, 1, 52, 60
3, 166652, Note_off_c, 1, 52, 0
3, 166656, Note_on_c, 1, 55, 60
3, 167036, Note_off_c, 1, 55, 0
3, 167040, Note_on_c, 1, 60, 60
3, 167420, Note_off_c, 1, 60, 0
3, 167424, Note_on_c, 1, 55, 60
3, 167804, Note_off_c, 1, 55, 0
3, 167808, Note_on_c, 1, 48, 60
3, 168188, Note_off_c, 1, 48, 0
3, 170880, Note_on_c, 1, 53, 90
3, 170880, Note_on_c, 1, 62, 90
3, 171260, Note_off_c, 1, 53, 0
3, 171260, Note_off_c, 1, 62, 0
3, 171264, Note_on_c, 1, 65, 90
3, 171264, Note_on_c, 1, 55, 90
3, 171644, Note_off_c, 1, 65, 0
3, 171644, Note_off_c, 1, 55, 0
3, 171648, Note_on_c, 1, 60, 60
3, 171648, Note_on_c, 1, 64, 60
3, 172028, Note_off_c, 1, 60, 0
3, 172028, Note_off_c, 1, 64, 0
3, 172032, Note_on_c, 1, 64, 60
3, 172412, Note_off_c, 1, 64, 0
3, 172416, Note_on_c, 1, 60, 60
3, 172796, Note_off_c, 1, 60, 0
3, 172800, Note_on_c, 1, 62, 60
3, 173180, Note_off_c, 1, 62, 0
3, 173184, Note_on_c, 1, 59, 60
3, 173564, Note_off_c, 1, 59, 0
3, 173568, Note_on_c, 1, 55, 60
3, 173948, Note_off_c, 1, 55, 0
3, 173952, Note_on_c, 1, 48, 60
3, 174332, Note_off_c, 1, 48, 0
3, 174336, Note_on_c, 1, 51, 60
3, 174716, Note_off_c, 1, 51, 0
3, 174720, Note_on_c, 1, 48, 60
3, 175100, Note_off_c, 1, 48, 0
3, 175104, Note_on_c, 1, 50, 60
3, 175484, Note_off_c, 1, 50, 0
3, 175488, Note_on_c, 1, 47, 60
3, 175868, Note_off_c, 1, 47, 0
3, 175872, Note_on_c, 1, 43, 60
3, 176252, Note_off_c, 1, 43, 0
3, 176256, Note_on_c, 1, 48, 90
3, 176256, Note_on_c, 1, 36, 90
3, 176636, Note_off_c, 1, 48, 0
3, 176636, Note_off_c, 1, 36, 0
3, 176640, Note_on_c, 1, 51, 60
3, 177020, Note_off_c, 1, 51, 0
3, 177024, Note_on_c, 1, 55, 60
3, 177404, Note_off_c, 1, 55, 0
3, 177408, Note_on_c, 1, 53, 90
3, 177408, Note_on_c, 1, 41, 90
3, 177788, Note_off_c, 1, 53, 0
3, 177788, Note_off_c, 1, 41, 0
3, 177792, Note_on_c, 1, 56, 60
3, 178172, Note_off_c, 1, 56, 0
3, 178176, Note_on_c, 1, 60, 60
3, 178556, Note_off_c, 1, 60, 0
3, 178560, Note_on_c, 1, 46, 90
3, 178560, Note_on_c, 1, 34, 90
3, 178940, Note_off_c, 1, 46, 0
3, 178940, Note_off_c, 1, 34, 0
3, 178944, Note_on_c, 1, 50, 60
3, 179324, Note_off_c, 1, 50, 0
3, 179328, Note_on_c, 1, 53, 60
3, 179708, Note_off_c, 1, 53, 0
3, 179712, Note_on_c, 1, 51, 90
3, 179712, Note_on_c, 1, 39, 90
3, 180092, Note_off_c, 1, 51, 0
3, 180092, Note_off_c, 1, 39, 0
3, 180096, Note_on_c, 1, 55, 60
3, 180476, Note_off_c, 1, 55, 0
3, 180480, Note_on_c, 1, 58, 60
3, 180860, Note_off_c, 1, 58, 0
3, 180864, Note_on_c, 1, 44, 90
3, 180864, Note_on_c, 1, 32, 90
3, 181244, Note_off_c, 1, 44, 0
3, 181244, Note_off_c, 1, 32, 0
3, 181248, Note_on_c, 1, 56, 60
3, 181628, Note_off_c, 1, 56, 0
3, 181632, Note_on_c, 1, 50, 90
3, 181632, Note_on_c, 1, 38, 90
3, 182012, Note_off_c, 1, 50, 0
3, 182012, Note_off_c, 1, 38, 0
3, 182016, Note_on_c, 1, 62, 60
3, 182396, Note_off_c, 1, 62, 0
3, 182400, Note_on_c, 1, 43, 90
3, 182400, Note_on_c, 1, 31, 90
3, 182780, Note_off_c, 1, 43, 0
3, 182780, Note_off_c, 1, 31, 0
3, 182784, Note_on_c, 1, 55, 60
3, 183164, Note_off_c, 1, 55, 0
3, 183168, Note_on_c, 1, 56, 60
3, 183548, Note_off_c, 1, 56, 0
3, 183552, Note_on_c, 1, 55, 60
3, 183932, Note_off_c, 1, 55, 0
3, 183936, Note_on_c, 1, 54, 60
3, 184316, Note_off_c, 1, 54, 0
3, 184320, Note_on_c, 1, 55, 60
3, 184700, Note_off_c, 1, 55, 0
3, 185280, Note_on_c, 1, 54, 60
3, 185468, Note_off_c, 1, 54, 0
3, 185472, Note_on_c, 1, 55, 60
3, 185852, Note_off_c, 1, 55, 0
3, 186432, Note_on_c, 1, 54, 60
3, 186620, Note_off_c, 1, 54, 0
3, 186624, Note_on_c, 1, 55, 60
3, 186812, Note_off_c, 1, 55, 0
3, 186816, Note_on_c, 1, 54, 60
3, 187004, Note_off_c, 1, 54, 0
3, 187008, Note_on_c, 1, 55, 60
3, 187196, Note_off_c, 1, 55, 0
3, 187200, Note_on_c, 1, 54, 60
3, 187388, Note_off_c, 1, 54, 0
3, 187392, Note_on_c, 1, 55, 60
3, 187580, Note_off_c, 1, 55, 0
3, 187584, Note_on_c, 1, 54, 60
3, 187772, Note_off_c, 1, 54, 0
3, 187776, Note_on_c, 1, 55, 60
3, 188156, Note_off_c, 1, 55, 0
3, 188928, Note_on_c, 1, 53, 82
3, 189308, Note_off_c, 1, 53, 0
3, 189312, Note_on_c, 1, 53, 60
3, 189692, Note_off_c, 1, 53, 0
3, 189696, Note_on_c, 1, 53, 60
3, 190076, Note_off_c, 1, 53, 0
3, 190080, Note_on_c, 1, 53, 60
3, 190844, Note_off_c, 1, 53, 0
3, 190848, Note_on_c, 1, 48, 60
3, 191228, Note_off_c, 1, 48, 0
3, 192384, Note_on_c, 1, 43, 60
3, 193148, Note_off_c, 1, 43, 0
3, 193152, Note_on_c, 1, 45, 60
3, 193532, Note_off_c, 1, 45, 0
3, 193536, Note_on_c, 1, 41, 60
3, 193916, Note_off_c, 1, 41, 0
3, 193920, Note_on_c, 1, 43, 60
3, 194300, Note_off_c, 1, 43, 0
3, 194304, Note_on_c, 1, 43, 60
3, 194684, Note_off_c, 1, 43, 0
3, 194688, Note_on_c, 1, 48, 60
3, 195068, Note_off_c, 1, 48, 0
3, 195840, Note_on_c, 1, 60, 82
3, 195840, Note_on_c, 1, 65, 82
3, 196220, Note_off_c, 1, 60, 0
3, 196220, Note_off_c, 1, 65, 0
3, 196224, Note_on_c, 1, 60, 60
3, 196224, Note_on_c, 1, 65, 60
3, 196604, Note_off_c, 1, 60, 0
3, 196604, Note_off_c, 1, 65, 0
3, 196608, Note_on_c, 1, 60, 60
3, 196608, Note_on_c, 1, 65, 60
3, 196988, Note_off_c, 1, 60, 0
3, 196988, Note_off_c, 1, 65, 0
3, 196992, Note_on_c, 1, 65, 60
3, 196992, Note_on_c, 1, 60, 60
3, 197756, Note_off_c, 1, 65, 0
3, 197756, Note_off_c, 1, 60, 0
3, 197760, Note_on_c, 1, 64, 60
3, 198140, Note_off_c, 1, 64, 0
3, 198144, Note_on_c, 1, 62, 60
3, 198144, Note_on_c, 1, 55, 60
3, 198524, Note_off_c, 1, 62, 0
3, 198524, Note_off_c, 1, 55, 0
3, 198528, Note_on_c, 1, 55, 60
3, 198528, Note_on_c, 1, 62, 60
3, 198908, Note_off_c, 1, 55, 0
3, 198908, Note_off_c, 1, 62, 0
3, 198912, Note_on_c, 1, 55, 60
3, 198912, Note_on_c, 1, 62, 60
3, 199292, Note_off_c, 1, 55, 0
3, 199292, Note_off_c, 1, 62, 0
3, 199296, Note_on_c, 1, 62, 60
3, 199296, Note_on_c, 1, 56, 60
3, 200060, Note_off_c, 1, 62, 0
3, 200060, Note_off_c, 1, 56, 0
3, 200064, Note_on_c, 1, 60, 60
3, 200064, Note_on_c, 1, 57, 60
3, 200444, Note_off_c, 1, 60, 0
3, 200444, Note_off_c, 1, 57, 0
3, 200448, Note_on_c, 1, 53, 60
3, 200828, Note_off_c, 1, 53, 0
3, 200832, Note_on_c, 1, 55, 60
3, 201212, Note_off_c, 1, 55, 0
3, 201216, Note_on_c, 1, 53, 60
3, 201596, Note_off_c, 1, 53, 0
3, 201600, Note_on_c, 1, 52, 90
3, 201600, Note_on_c, 1, 40, 90
3, 201788, Note_off_c, 1, 52, 0
3, 201788, Note_off_c, 1, 40, 0
3, 201984, Note_on_c, 1, 56, 60
3, 202172, Note_off_c, 1, 56, 0
3, 202368, Note_on_c, 1, 57, 60
3, 202556, Note_off_c, 1, 57, 0
3, 202752, Note_on_c, 1, 53, 60
3, 202940, Note_off_c, 1, 53, 0
3, 203136, Note_on_c, 1, 55, 60
3, 203324, Note_off_c, 1, 55, 0
3, 203520, Note_on_c, 1, 53, 60
3, 203708, Note_off_c, 1, 53, 0
3, 203904, Note_on_c, 1, 52, 90
3, 203904, Note_on_c, 1, 40, 90
3, 204284, Note_off_c, 1, 52, 0
3, 204284, Note_off_c, 1, 40, 0
3, 204288, Note_on_c, 1, 56, 90
3, 204288, Note_on_c, 1, 44, 90
3, 204668, Note_off_c, 1, 56, 0
3, 204668, Note_off_c, 1, 44, 0
3, 204672, Note_on_c, 1, 57, 90
3, 204672, Note_on_c, 1, 45, 90
3, 205052, Note_off_c, 1, 57, 0
3, 205052, Note_off_c, 1, 45, 0
3, 205056, Note_on_c, 1, 53, 90
3, 205056, Note_on_c, 1, 41, 90
3, 205436, Note_off_c, 1, 53, 0
3, 205436, Note_off_c, 1, 41, 0
3, 205440, Note_on_c, 1, 55, 90
3, 205440, Note_on_c, 1, 43, 90
3, 205820, Note_off_c, 1, 55, 0
3, 205820, Note_off_c, 1, 43, 0
3, 205824, Note_on_c, 1, 55, 90
3, 205824, Note_on_c, 1, 43, 90
3, 206204, Note_off_c, 1, 55, 0
3, 206204, Note_off_c, 1, 43, 0
3, 206208, Note_on_c, 1, 48, 90
3, 206300, Note_off_c, 1, 48, 0
3, 206304, Note_on_c, 1, 52, 90
3, 206396, Note_off_c, 1, 52, 0
3, 206400, Note_on_c, 1, 55, 90
3, 206492, Note_off_c, 1, 55, 0
3, 206496, Note_on_c, 1, 60, 90
3, 206588, Note_off_c, 1, 60, 0
3, 206592, Note_on_c, 1, 48, 90
3, 206684, Note_off_c, 1, 48, 0
3, 206688, Note_on_c, 1, 52, 90
3, 206780, Note_off_c, 1, 52, 0
3, 206784, Note_on_c, 1, 55, 90
3, 206876, Note_off_c, 1, 55, 0
3, 206880, Note_on_c, 1, 60, 90
3, 206972, Note_off_c, 1, 60, 0
3, 206976, Note_on_c, 1, 48, 90
3, 207068, Note_off_c, 1, 48, 0
3, 207072, Note_on_c, 1, 52, 90
3, 207164, Note_off_c, 1, 52, 0
3, 207168, Note_on_c, 1, 55, 90
3, 207260, Note_off_c, 1, 55, 0
3, 207264, Note_on_c, 1, 60, 90
3, 207356, Note_off_c, 1, 60, 0
3, 207360, Note_on_c, 1, 48, 90
3, 207452, Note_off_c, 1, 48, 0
3, 207456, Note_on_c, 1, 52, 90
3, 207548, Note_off_c, 1, 52, 0
3, 207552, Note_on_c, 1, 55, 90
3, 207644, Note_off_c, 1, 55, 0
3, 207648, Note_on_c, 1, 60, 90
3, 207740, Note_off_c, 1, 60, 0
3, 207744, Note_on_c, 1, 48, 90
3, 207836, Note_off_c, 1, 48, 0
3, 207840, Note_on_c, 1, 52, 90
3, 207932, Note_off_c, 1, 52, 0
3, 207936, Note_on_c, 1, 55, 90
3, 208028, Note_off_c, 1, 55, 0
3, 208032, Note_on_c, 1, 60, 90
3, 208124, Note_off_c, 1, 60, 0
3, 208128, Note_on_c, 1, 48, 90
3, 208220, Note_off_c, 1, 48, 0
3, 208224, Note_on_c, 1, 53, 90
3, 208316, Note_off_c, 1, 53, 0
3, 208320, Note_on_c, 1, 55, 90
3, 208412, Note_off_c, 1, 55, 0
3, 208416, Note_on_c, 1, 60, 90
3, 208508, Note_off_c, 1, 60, 0
3, 208512, Note_on_c, 1, 48, 90
3, 208604, Note_off_c, 1, 48, 0
3, 208608, Note_on_c, 1, 52, 90
3, 208700, Note_off_c, 1, 52, 0
3, 208704, Note_on_c, 1, 55, 90
3, 208796, Note_off_c, 1, 55, 0
3, 208800, Note_on_c, 1, 60, 90
3, 208892, Note_off_c, 1, 60, 0
3, 208896, Note_on_c, 1, 48, 90
3, 208988, Note_off_c, 1, 48, 0
3, 208992, Note_on_c, 1, 52, 90
3, 209084, Note_off_c, 1, 52, 0
3, 209088, Note_on_c, 1, 55, 90
3, 209180, Note_off_c, 1, 55, 0
3, 209184, Note_on_c, 1, 60, 90
3, 209276, Note_off_c, 1, 60, 0
3, 209280, Note_on_c, 1, 48, 90
3, 209372, Note_off_c, 1, 48, 0
3, 209376, Note_on_c, 1, 52, 90
3, 209468, Note_off_c, 1, 52, 0
3, 209472, Note_on_c, 1, 55, 90
3, 209564, Note_off_c, 1, 55, 0
3, 209568, Note_on_c, 1, 60, 90
3, 209660, Note_off_c, 1, 60, 0
3, 209664, Note_on_c, 1, 48, 90
3, 209756, Note_off_c, 1, 48, 0
3, 209760, Note_on_c, 1, 52, 90
3, 209852, Note_off_c, 1, 52, 0
3, 209856, Note_on_c, 1, 55, 90
3, 209948, Note_off_c, 1, 55, 0
3, 209952, Note_on_c, 1, 60, 90
3, 210044, Note_off_c, 1, 60, 0
3, 210048, Note_on_c, 1, 48, 90
3, 210140, Note_off_c, 1, 48, 0
3, 210144, Note_on_c, 1, 52, 90
3, 210236, Note_off_c, 1, 52, 0
3, 210240, Note_on_c, 1, 55, 90
3, 210332, Note_off_c, 1, 55, 0
3, 210336, Note_on_c, 1, 60, 90
3, 210428, Note_off_c, 1, 60, 0
3, 210432, Note_on_c, 1, 48, 90
3, 210524, Note_off_c, 1, 48, 0
3, 210528, Note_on_c, 1, 53, 90
3, 210620, Note_off_c, 1, 53, 0
3, 210624, Note_on_c, 1, 55, 90
3, 210716, Note_off_c, 1, 55, 0
3, 210720, Note_on_c, 1, 60, 90
3, 210812, Note_off_c, 1, 60, 0
3, 210816, Note_on_c, 1, 60, 90
3, 210816, Note_on_c, 1, 55, 90
3, 210816, Note_on_c, 1, 52, 90
3, 210816, Note_on_c, 1, 48, 90
3, 211196, Note_off_c, 1, 60, 0
3, 211196, Note_off_c, 1, 55, 0
3, 211196, Note_off_c, 1, 52, 0
3, 211196, Note_off_c, 1, 48, 0
3, 211200, Note_on_c, 1, 64, 97
3, 211200, Note_on_c, 1, 52, 97
3, 211772, Note_off_c, 1, 64, 0
3, 211772, Note_off_c, 1, 52, 0
3, 211776, Note_on_c, 1, 56, 90
3, 211776, Note_on_c, 1, 44, 90
3, 211964, Note_off_c, 1, 56, 0
3, 211964, Note_off_c, 1, 44, 0
3, 211968, Note_on_c, 1, 57, 90
3, 211968, Note_on_c, 1, 45, 90
3, 212348, Note_off_c, 1, 57, 0
3, 212348, Note_off_c, 1, 45, 0
3, 212352, Note_on_c, 1, 48, 97
3, 212352, Note_on_c, 1, 60, 97
3, 212924, Note_off_c, 1, 48, 0
3, 212924, Note_off_c, 1, 60, 0
3, 212928, Note_on_c, 1, 52, 90
3, 213116, Note_off_c, 1, 52, 0
3, 213120, Note_on_c, 1, 55, 90
3, 213164, Note_off_c, 1, 55, 0
3, 213168, Note_on_c, 1, 53, 90
3, 213212, Note_off_c, 1, 53, 0
3, 213216, Note_on_c, 1, 55, 90
3, 213260, Note_off_c, 1, 55, 0
3, 213264, Note_on_c, 1, 53, 90
3, 213308, Note_off_c, 1, 53, 0
3, 213312, Note_on_c, 1, 52, 90
3, 213356, Note_off_c, 1, 52, 0
3, 213360, Note_on_c, 1, 53, 90
3, 213404, Note_off_c, 1, 53, 0
3, 213408, Note_on_c, 1, 52, 90
3, 213452, Note_off_c, 1, 52, 0
3, 213456, Note_on_c, 1, 50, 90
3, 213500, Note_off_c, 1, 50, 0
3, 213504, Note_on_c, 1, 55, 90
3, 213884, Note_off_c, 1, 55, 0
3, 213888, Note_on_c, 1, 55, 90
3, 213888, Note_on_c, 1, 43, 90
3, 214268, Note_off_c, 1, 55, 0
3, 214268, Note_off_c, 1, 43, 0
3, 214272, Note_on_c, 1, 60, 90
3, 214272, Note_on_c, 1, 48, 90
3, 214652, Note_off_c, 1, 60, 0
3, 214652, Note_off_c, 1, 48, 0
3, 214656, Note_on_c, 1, 48, 90
3, 214656, Note_on_c, 1, 36, 90
3, 215036, Note_off_c, 1, 48, 0
3, 215036, Note_off_c, 1, 36, 0
3, 215808, Note_on_c, 1, 52, 60
3, 216188, Note_off_c, 1, 52, 0
3, 216192, Note_on_c, 1, 48, 60
3, 216572, Note_off_c, 1, 48, 0
3, 216576, Note_on_c, 1, 55, 97
3, 217724, Note_off_c, 1, 55, 0
3, 218112, Note_on_c, 1, 52, 60
3, 218492, Note_off_c, 1, 52, 0
3, 218496, Note_on_c, 1, 48, 60
3, 218876, Note_off_c, 1, 48, 0
3, 218880, Note_on_c, 1, 55, 97
3, 220028, Note_off_c, 1, 55, 0
3, 220032, Note_on_c, 1, 62, 60
3, 220032, Note_on_c, 1, 57, 60
3, 220032, Note_on_c, 1, 53, 60
3, 220412, Note_off_c, 1, 62, 0
3, 220412, Note_off_c, 1, 57, 0
3, 220412, Note_off_c, 1, 53, 0
3, 221184, Note_on_c, 1, 62, 60
3, 221184, Note_on_c, 1, 57, 60
3, 221184, Note_on_c, 1, 53, 60
3, 221564, Note_off_c, 1, 62, 0
3, 221564, Note_off_c, 1, 57, 0
3, 221564, Note_off_c, 1, 53, 0
3, 222336, Note_on_c, 1, 65, 60
3, 222336, Note_on_c, 1, 62, 60
3, 222336, Note_on_c, 1, 55, 60
3, 223484, Note_off_c, 1, 65, 0
3, 223484, Note_off_c, 1, 62, 0
3, 223484, Note_off_c, 1, 55, 0
3, 223488, Note_on_c, 1, 60, 60
3, 223488, Note_on_c, 1, 64, 60
3, 223868, Note_off_c, 1, 60, 0
3, 223868, Note_off_c, 1, 64, 0
3, 225024, Note_on_c, 1, 52, 60
3, 225404, Note_off_c, 1, 52, 0
3, 225408, Note_on_c, 1, 48, 60
3, 225788, Note_off_c, 1, 48, 0
3, 225792, Note_on_c, 1, 55, 97
3, 225792, Note_on_c, 1, 43, 97
3, 226940, Note_off_c, 1, 55, 0
3, 226940, Note_off_c, 1, 43, 0
3, 227328, Note_on_c, 1, 52, 60
3, 227708, Note_off_c, 1, 52, 0
3, 227712, Note_on_c, 1, 48, 60
3, 228092, Note_off_c, 1, 48, 0
3, 228096, Note_on_c, 1, 55, 97
3, 228096, Note_on_c, 1, 43, 97
3, 229244, Note_off_c, 1, 55, 0
3, 229244, Note_off_c, 1, 43, 0
3, 229248, Note_on_c, 1, 50, 60
3, 229248, Note_on_c, 1, 45, 60
3, 229248, Note_on_c, 1, 41, 60
3, 229628, Note_off_c, 1, 50, 0
3, 229628, Note_off_c, 1, 45, 0
3, 229628, Note_off_c, 1, 41, 0
3, 230400, Note_on_c, 1, 50, 60
3, 230400, Note_on_c, 1, 45, 60
3, 230400, Note_on_c, 1, 41, 60
3, 230780, Note_off_c, 1, 50, 0
3, 230780, Note_off_c, 1, 45, 0
3, 230780, Note_off_c, 1, 41, 0
3, 231552, Note_on_c, 1, 50, 60
3, 231552, Note_on_c, 1, 43, 60
3, 231552, Note_on_c, 1, 53, 60
3, 231932, Note_off_c, 1, 50, 0
3, 231932, Note_off_c, 1, 43, 0
3, 231932, Note_off_c, 1, 53, 0
3, 232704, Note_on_c, 1, 48, 60
3, 232704, Note_on_c, 1, 52, 60
3, 233084, Note_off_c, 1, 48, 0
3, 233084, Note_off_c, 1, 52, 0
3, 233088, Note_on_c, 1, 64, 60
3, 233468, Note_off_c, 1, 64, 0
3, 233472, Note_on_c, 1, 60, 60
3, 233852, Note_off_c, 1, 60, 0
3, 233856, Note_on_c, 1, 62, 60
3, 234236, Note_off_c, 1, 62, 0
3, 234240, Note_on_c, 1, 59, 60
3, 234620, Note_off_c, 1, 59, 0
3, 234624, Note_on_c, 1, 55, 60
3, 235004, Note_off_c, 1, 55, 0
3, 235008, Note_on_c, 1, 48, 60
3, 235388, Note_off_c, 1, 48, 0
3, 235392, Note_on_c, 1, 51, 60
3, 235772, Note_off_c, 1, 51, 0
3, 235776, Note_on_c, 1, 48, 60
3, 236156, Note_off_c, 1, 48, 0
3, 236160, Note_on_c, 1, 50, 60
3, 236540, Note_off_c, 1, 50, 0
3, 236544, Note_on_c, 1, 47, 60
3, 236924, Note_off_c, 1, 47, 0
3, 236928, Note_on_c, 1, 43, 60
3, 237308, Note_off_c, 1, 43, 0
3, 237312, Note_on_c, 1, 48, 90
3, 237312, Note_on_c, 1, 36, 90
3, 237692, Note_off_c, 1, 48, 0
3, 237692, Note_off_c, 1, 36, 0
3, 237696, Note_on_c, 1, 60, 60
3, 238076, Note_off_c, 1, 60, 0
3, 238080, Note_on_c, 1, 48, 60
3, 238460, Note_off_c, 1, 48, 0
3, 238464, Note_on_c, 1, 45, 90
3, 238464, Note_on_c, 1, 33, 90
3, 238844, Note_off_c, 1, 45, 0
3, 238844, Note_off_c, 1, 33, 0
3, 238848, Note_on_c, 1, 57, 60
3, 239228, Note_off_c, 1, 57, 0
3, 239232, Note_on_c, 1, 45, 60
3, 239612, Note_off_c, 1, 45, 0
3, 239616, Note_on_c, 1, 46, 90
3, 239616, Note_on_c, 1, 34, 90
3, 239996, Note_off_c, 1, 46, 0
3, 239996, Note_off_c, 1, 34, 0
3, 240000, Note_on_c, 1, 58, 60
3, 240380, Note_off_c, 1, 58, 0
3, 240384, Note_on_c, 1, 46, 60
3, 240764, Note_off_c, 1, 46, 0
3, 240768, Note_on_c, 1, 42, 90
3, 240768, Note_on_c, 1, 30, 90
3, 241148, Note_off_c, 1, 42, 0
3, 241148, Note_off_c, 1, 30, 0
3, 241152, Note_on_c, 1, 54, 60
3, 241532, Note_off_c, 1, 54, 0
3, 241536, Note_on_c, 1, 42, 60
3, 241916, Note_off_c, 1, 42, 0
3, 241920, Note_on_c, 1, 43, 90
3, 241920, Note_on_c, 1, 31, 90
3, 242300, Note_off_c, 1, 43, 0
3, 242300, Note_off_c, 1, 31, 0
3, 242304, Note_on_c, 1, 55, 60
3, 242684, Note_off_c, 1, 55, 0
3, 242688, Note_on_c, 1, 43, 60
3, 243068, Note_off_c, 1, 43, 0
3, 243072, Note_on_c, 1, 52, 90
3, 243072, Note_on_c, 1, 40, 90
3, 243452, Note_off_c, 1, 52, 0
3, 243452, Note_off_c, 1, 40, 0
3, 243456, Note_on_c, 1, 64, 60
3, 243836, Note_off_c, 1, 64, 0
3, 243840, Note_on_c, 1, 52, 60
3, 244220, Note_off_c, 1, 52, 0
3, 244224, Note_on_c, 1, 53, 90
3, 244224, Note_on_c, 1, 41, 90
3, 244604, Note_off_c, 1, 53, 0
3, 244604, Note_off_c, 1, 41, 0
3, 244608, Note_on_c, 1, 65, 60
3, 244988, Note_off_c, 1, 65, 0
3, 244992, Note_on_c, 1, 53, 60
3, 245372, Note_off_c, 1, 53, 0
3, 245376, Note_on_c, 1, 49, 90
3, 245376, Note_on_c, 1, 37, 90
3, 245756, Note_off_c, 1, 49, 0
3, 245756, Note_off_c, 1, 37, 0
3, 245760, Note_on_c, 1, 61, 60
3, 246140, Note_off_c, 1, 61, 0
3, 246144, Note_on_c, 1, 49, 60
3, 246524, Note_off_c, 1, 49, 0
3, 246528, Note_on_c, 1, 50, 90
3, 246528, Note_on_c, 1, 38, 90
3, 246908, Note_off_c, 1, 50, 0
3, 246908, Note_off_c, 1, 38, 0
3, 246912, Note_on_c, 1, 62, 60
3, 247292, Note_off_c, 1, 62, 0
3, 247296, Note_on_c, 1, 50, 60
3, 247676, Note_off_c, 1, 50, 0
3, 247680, Note_on_c, 1, 46, 90
3, 247680, Note_on_c, 1, 34, 90
3, 248060, Note_off_c, 1, 46, 0
3, 248060, Note_off_c, 1, 34, 0
3, 248064, Note_on_c, 1, 58, 60
3, 248444, Note_off_c, 1, 58, 0
3, 248448, Note_on_c, 1, 46, 60
3, 248828, Note_off_c, 1, 46, 0
3, 248832, Note_on_c, 1, 45, 60
3, 249212, Note_off_c, 1, 45, 0
3, 250944, Note_on_c, 1, 56, 60
3, 251132, Note_off_c, 1, 56, 0
3, 251136, Note_on_c, 1, 57, 60
3, 251324, Note_off_c, 1, 57, 0
3, 251328, Note_on_c, 1, 56, 60
3, 251516, Note_off_c, 1, 56, 0
3, 251520, Note_on_c, 1, 57, 60
3, 251708, Note_off_c, 1, 57, 0
3, 251712, Note_on_c, 1, 56, 60
3, 251900, Note_off_c, 1, 56, 0
3, 251904, Note_on_c, 1, 57, 60
3, 252092, Note_off_c, 1, 57, 0
3, 252096, Note_on_c, 1, 56, 60
3, 252284, Note_off_c, 1, 56, 0
3, 252288, Note_on_c, 1, 57, 60
3, 252668, Note_off_c, 1, 57, 0
3, 253440, Note_on_c, 1, 57, 45
3, 253628, Note_off_c, 1, 57, 0
3, 253632, Note_on_c, 1, 56, 45
3, 253820, Note_off_c, 1, 56, 0
3, 253824, Note_on_c, 1, 57, 45
3, 254012, Note_off_c, 1, 57, 0
3, 254016, Note_on_c, 1, 56, 45
3, 254204, Note_off_c, 1, 56, 0
3, 254208, Note_on_c, 1, 57, 45
3, 254396, Note_off_c, 1, 57, 0
3, 254400, Note_on_c, 1, 56, 45
3, 254588, Note_off_c, 1, 56, 0
3, 254592, Note_on_c, 1, 57, 45
3, 254972, Note_off_c, 1, 57, 0
3, 255744, Note_on_c, 1, 55, 90
3, 255932, Note_off_c, 1, 55, 0
3, 255936, Note_on_c, 1, 57, 90
3, 256124, Note_off_c, 1, 57, 0
3, 256128, Note_on_c, 1, 55, 90
3, 256316, Note_off_c, 1, 55, 0
3, 256320, Note_on_c, 1, 57, 90
3, 256508, Note_off_c, 1, 57, 0
3, 256512, Note_on_c, 1, 55, 90
3, 256700, Note_off_c, 1, 55, 0
3, 256704, Note_on_c, 1, 57, 90
3, 256892, Note_off_c, 1, 57, 0
3, 256896, Note_on_c, 1, 55, 90
3, 257276, Note_off_c, 1, 55, 0
3, 260352, Note_on_c, 1, 53, 60
3, 260540, Note_off_c, 1, 53, 0
3, 260544, Note_on_c, 1, 57, 60
3, 260732, Note_off_c, 1, 57, 0
3, 260736, Note_on_c, 1, 60, 60
3, 260924, Note_off_c, 1, 60, 0
3, 260928, Note_on_c, 1, 57, 60
3, 261116, Note_off_c, 1, 57, 0
3, 261120, Note_on_c, 1, 60, 60
3, 261308, Note_off_c, 1, 60, 0
3, 261312, Note_on_c, 1, 57, 60
3, 261500, Note_off_c, 1, 57, 0
3, 261504, Note_on_c, 1, 53, 60
3, 261692, Note_off_c, 1, 53, 0
3, 261696, Note_on_c, 1, 60, 60
3, 261884, Note_off_c, 1, 60, 0
3, 261888, Note_on_c, 1, 63, 60
3, 262076, Note_off_c, 1, 63, 0
3, 262080, Note_on_c, 1, 60, 60
3, 262268, Note_off_c, 1, 60, 0
3, 262272, Note_on_c, 1, 63, 60
3, 262460, Note_off_c, 1, 63, 0
3, 262464, Note_on_c, 1, 60, 60
3, 262652, Note_off_c, 1, 60, 0
3, 262656, Note_on_c, 1, 53, 60
3, 262844, Note_off_c, 1, 53, 0
3, 262848, Note_on_c, 1, 58, 60
3, 263036, Note_off_c, 1, 58, 0
3, 263040, Note_on_c, 1, 62, 60
3, 263228, Note_off_c, 1, 62, 0
3, 263232, Note_on_c, 1, 58, 60
3, 263420, Note_off_c, 1, 58, 0
3, 263424, Note_on_c, 1, 62, 60
3, 263612, Note_off_c, 1, 62, 0
3, 263616, Note_on_c, 1, 58, 60
3, 263804, Note_off_c, 1, 58, 0
3, 263808, Note_on_c, 1, 53, 60
3, 263996, Note_off_c, 1, 53, 0
3, 264000, Note_on_c, 1, 55, 60
3, 264188, Note_off_c, 1, 55, 0
3, 264192, Note_on_c, 1, 58, 60
3, 264380, Note_off_c, 1, 58, 0
3, 264384, Note_on_c, 1, 55, 60
3, 264572, Note_off_c, 1, 55, 0
3, 264576, Note_on_c, 1, 58, 60
3, 264764, Note_off_c, 1, 58, 0
3, 264768, Note_on_c, 1, 55, 60
3, 264956, Note_off_c, 1, 55, 0
3, 264960, Note_on_c, 1, 57, 82
3, 264960, Note_on_c, 1, 53, 82
3, 265340, Note_off_c, 1, 57, 0
3, 265340, Note_off_c, 1, 53, 0
3, 267264, Note_on_c, 1, 53, 82
3, 267644, Note_off_c, 1, 53, 0
3, 267648, Note_on_c, 1, 45, 82
3, 268028, Note_off_c, 1, 45, 0
3, 268032, Note_on_c, 1, 50, 82
3, 268412, Note_off_c, 1, 50, 0
3, 268416, Note_on_c, 1, 43, 85
3, 268796, Note_off_c, 1, 43, 0
3, 268800, Note_on_c, 1, 48, 102
3, 269372, Note_off_c, 1, 48, 0
3, 269376, Note_on_c, 1, 45, 61
3, 269564, Note_off_c, 1, 45, 0
3, 269568, Note_on_c, 1, 41, 63
3, 269948, Note_off_c, 1, 41, 0
3, 269952, Note_on_c, 1, 50, 60
3, 270332, Note_off_c, 1, 50, 0
3, 270336, Note_on_c, 1, 46, 60
3, 270716, Note_off_c, 1, 46, 0
3, 270720, Note_on_c, 1, 45, 60
3, 271100, Note_off_c, 1, 45, 0
3, 271488, Note_on_c, 1, 50, 75
3, 271868, Note_off_c, 1, 50, 0
3, 271872, Note_on_c, 1, 46, 90
3, 272252, Note_off_c, 1, 46, 0
3, 272640, Note_on_c, 1, 48, 90
3, 273020, Note_off_c, 1, 48, 0
3, 273024, Note_on_c, 1, 41, 90
3, 273404, Note_off_c, 1, 41, 0
3, 284160, Note_on_c, 1, 58, 60
3, 284160, Note_on_c, 1, 52, 60
3, 284160, Note_on_c, 1, 48, 60
3, 284540, Note_off_c, 1, 58, 0
3, 284540, Note_off_c, 1, 52, 0
3, 284540, Note_off_c, 1, 48, 0
3, 284544, Note_on_c, 1, 57, 60
3, 284544, Note_on_c, 1, 53, 60
3, 284924, Note_off_c, 1, 57, 0
3, 284924, Note_off_c, 1, 53, 0
3, 285312, Note_on_c, 1, 37, 90
3, 285312, Note_on_c, 1, 49, 90
3, 285692, Note_off_c, 1, 37, 0
3, 285692, Note_off_c, 1, 49, 0
3, 285696, Note_on_c, 1, 50, 90
3, 285696, Note_on_c, 1, 41, 90
3, 285884, Note_off_c, 1, 50, 0
3, 285884, Note_off_c, 1, 41, 0
3, 285888, Note_on_c, 1, 53, 90
3, 286076, Note_off_c, 1, 53, 0
3, 286080, Note_on_c, 1, 57, 90
3, 286268, Note_off_c, 1, 57, 0
3, 286272, Note_on_c, 1, 53, 90
3, 286460, Note_off_c, 1, 53, 0
3, 286464, Note_on_c, 1, 57, 90
3, 286652, Note_off_c, 1, 57, 0
3, 286656, Note_on_c, 1, 53, 90
3, 286844, Note_off_c, 1, 53, 0
3, 286848, Note_on_c, 1, 50, 90
3, 287036, Note_off_c, 1, 50, 0
3, 287040, Note_on_c, 1, 53, 90
3, 287228, Note_off_c, 1, 53, 0
3, 287232, Note_on_c, 1, 57, 90
3, 287420, Note_off_c, 1, 57, 0
3, 287424, Note_on_c, 1, 53, 90
3, 287612, Note_off_c, 1, 53, 0
3, 287616, Note_on_c, 1, 57, 90
3, 287804, Note_off_c, 1, 57, 0
3, 287808, Note_on_c, 1, 53, 90
3, 287996, Note_off_c, 1, 53, 0
3, 288192, Note_on_c, 1, 52, 97
3, 288192, Note_on_c, 1, 40, 97
3, 288380, Note_off_c, 1, 52, 0
3, 288380, Note_off_c, 1, 40, 0
3, 288384, Note_on_c, 1, 61, 60
3, 288384, Note_on_c, 1, 58, 60
3, 288384, Note_on_c, 1, 55, 60
3, 288384, Note_on_c, 1, 52, 60
3, 288764, Note_off_c, 1, 61, 0
3, 288764, Note_off_c, 1, 58, 0
3, 288764, Note_off_c, 1, 55, 0
3, 288764, Note_off_c, 1, 52, 0
3, 289152, Note_on_c, 1, 52, 97
3, 289152, Note_on_c, 1, 40, 97
3, 289532, Note_off_c, 1, 52, 0
3, 289532, Note_off_c, 1, 40, 0
3, 289536, Note_on_c, 1, 58, 60
3, 289536, Note_on_c, 1, 61, 60
3, 289536, Note_on_c, 1, 55, 60
3, 289552, Note_on_c, 1, 52, 60
3, 289916, Note_off_c, 1, 58, 0
3, 289916, Note_off_c, 1, 61, 0
3, 289916, Note_off_c, 1, 55, 0
3, 289932, Note_off_c, 1, 52, 0
3, 290304, Note_on_c, 1, 53, 90
3, 290492, Note_off_c, 1, 53, 0
3, 290496, Note_on_c, 1, 57, 90
3, 290684, Note_off_c, 1, 57, 0
3, 290688, Note_on_c, 1, 62, 90
3, 290876, Note_off_c, 1, 62, 0
3, 290880, Note_on_c, 1, 57, 90
3, 291068, Note_off_c, 1, 57, 0
3, 291072, Note_on_c, 1, 62, 90
3, 291260, Note_off_c, 1, 62, 0
3, 291264, Note_on_c, 1, 57, 90
3, 291452, Note_off_c, 1, 57, 0
3, 291456, Note_on_c, 1, 53, 90
3, 291644, Note_off_c, 1, 53, 0
3, 291648, Note_on_c, 1, 57, 90
3, 291836, Note_off_c, 1, 57, 0
3, 291840, Note_on_c, 1, 62, 90
3, 292028, Note_off_c, 1, 62, 0
3, 292032, Note_on_c, 1, 57, 90
3, 292220, Note_off_c, 1, 57, 0
3, 292224, Note_on_c, 1, 62, 90
3, 292412, Note_off_c, 1, 62, 0
3, 292416, Note_on_c, 1, 57, 90
3, 292604, Note_off_c, 1, 57, 0
3, 292608, Note_on_c, 1, 50, 97
3, 292608, Note_on_c, 1, 38, 97
3, 292988, Note_off_c, 1, 50, 0
3, 292988, Note_off_c, 1, 38, 0
3, 292992, Note_on_c, 1, 56, 90
3, 292992, Note_on_c, 1, 53, 90
3, 292992, Note_on_c, 1, 50, 90
3, 293008, Note_on_c, 1, 59, 90
3, 293372, Note_off_c, 1, 56, 0
3, 293372, Note_off_c, 1, 53, 0
3, 293372, Note_off_c, 1, 50, 0
3, 293388, Note_off_c, 1, 59, 0
3, 293760, Note_on_c, 1, 50, 97
3, 293760, Note_on_c, 1, 38, 97
3, 294140, Note_off_c, 1, 50, 0
3, 294140, Note_off_c, 1, 38, 0
3, 294144, Note_on_c, 1, 56, 90
3, 294144, Note_on_c, 1, 59, 90
3, 294144, Note_on_c, 1, 53, 90
3, 294144, Note_on_c, 1, 50, 90
3, 294524, Note_off_c, 1, 56, 0
3, 294524, Note_off_c, 1, 59, 0
3, 294524, Note_off_c, 1, 53, 0
3, 294524, Note_off_c, 1, 50, 0
3, 294912, Note_on_c, 1, 51, 90
3, 295100, Note_off_c, 1, 51, 0
3, 295104, Note_on_c, 1, 55, 90
3, 295292, Note_off_c, 1, 55, 0
3, 295296, Note_on_c, 1, 60, 90
3, 295484, Note_off_c, 1, 60, 0
3, 295488, Note_on_c, 1, 55, 90
3, 295676, Note_off_c, 1, 55, 0
3, 295680, Note_on_c, 1, 60, 90
3, 295868, Note_off_c, 1, 60, 0
3, 295872, Note_on_c, 1, 55, 90
3, 296060, Note_off_c, 1, 55, 0
3, 296064, Note_on_c, 1, 51, 90
3, 296252, Note_off_c, 1, 51, 0
3, 296256, Note_on_c, 1, 55, 90
3, 296444, Note_off_c, 1, 55, 0
3, 296480, Note_on_c, 1, 60, 90
3, 296624, Note_on_c, 1, 55, 90
3, 296668, Note_off_c, 1, 60, 0
3, 296812, Note_off_c, 1, 55, 0
3, 296832, Note_on_c, 1, 60, 90
3, 297020, Note_off_c, 1, 60, 0
3, 297024, Note_on_c, 1, 55, 90
3, 297212, Note_off_c, 1, 55, 0
3, 297216, Note_on_c, 1, 39, 97
3, 297596, Note_off_c, 1, 39, 0
3, 297600, Note_on_c, 1, 51, 90
3, 297600, Note_on_c, 1, 57, 90
3, 297600, Note_on_c, 1, 60, 90
3, 297600, Note_on_c, 1, 54, 90
3, 297980, Note_off_c, 1, 51, 0
3, 297980, Note_off_c, 1, 57, 0
3, 297980, Note_off_c, 1, 60, 0
3, 297980, Note_off_c, 1, 54, 0
3, 298368, Note_on_c, 1, 39, 97
3, 298556, Note_off_c, 1, 39, 0
3, 298752, Note_on_c, 1, 54, 90
3, 298752, Note_on_c, 1, 57, 90
3, 298752, Note_on_c, 1, 60, 90
3, 298784, Note_on_c, 1, 51, 90
3, 298940, Note_off_c, 1, 54, 0
3, 298940, Note_off_c, 1, 57, 0
3, 298940, Note_off_c, 1, 60, 0
3, 298972, Note_off_c, 1, 51, 0
3, 299520, Note_on_c, 1, 49, 90
3, 299708, Note_off_c, 1, 49, 0
3, 299712, Note_on_c, 1, 53, 90
3, 299900, Note_off_c, 1, 53, 0
3, 299904, Note_on_c, 1, 58, 90
3, 300092, Note_off_c, 1, 58, 0
3, 300096, Note_on_c, 1, 53, 90
3, 300284, Note_off_c, 1, 53, 0
3, 300288, Note_on_c, 1, 58, 90
3, 300476, Note_off_c, 1, 58, 0
3, 300480, Note_on_c, 1, 53, 90
3, 300668, Note_off_c, 1, 53, 0
3, 300672, Note_on_c, 1, 49, 90
3, 300860, Note_off_c, 1, 49, 0
3, 300864, Note_on_c, 1, 53, 90
3, 301052, Note_off_c, 1, 53, 0
3, 301056, Note_on_c, 1, 58, 90
3, 301244, Note_off_c, 1, 58, 0
3, 301248, Note_on_c, 1, 53, 90
3, 301436, Note_off_c, 1, 53, 0
3, 301440, Note_on_c, 1, 58, 90
3, 301628, Note_off_c, 1, 58, 0
3, 301648, Note_on_c, 1, 53, 90
3, 301824, Note_on_c, 1, 48, 90
3, 301836, Note_off_c, 1, 53, 0
3, 302012, Note_off_c, 1, 48, 0
3, 302016, Note_on_c, 1, 53, 90
3, 302204, Note_off_c, 1, 53, 0
3, 302208, Note_on_c, 1, 57, 90
3, 302396, Note_off_c, 1, 57, 0
3, 302400, Note_on_c, 1, 53, 90
3, 302588, Note_off_c, 1, 53, 0
3, 302592, Note_on_c, 1, 57, 90
3, 302780, Note_off_c, 1, 57, 0
3, 302784, Note_on_c, 1, 53, 90
3, 302972, Note_off_c, 1, 53, 0
3, 302976, Note_on_c, 1, 48, 90
3, 303164, Note_off_c, 1, 48, 0
3, 303168, Note_on_c, 1, 53, 90
3, 303356, Note_off_c, 1, 53, 0
3, 303360, Note_on_c, 1, 57, 90
3, 303548, Note_off_c, 1, 57, 0
3, 303552, Note_on_c, 1, 53, 90
3, 303740, Note_off_c, 1, 53, 0
3, 303744, Note_on_c, 1, 57, 90
3, 303932, Note_off_c, 1, 57, 0
3, 303936, Note_on_c, 1, 53, 90
3, 304124, Note_off_c, 1, 53, 0
3, 304128, Note_on_c, 1, 47, 90
3, 304316, Note_off_c, 1, 47, 0
3, 304320, Note_on_c, 1, 53, 90
3, 304508, Note_off_c, 1, 53, 0
3, 304512, Note_on_c, 1, 56, 90
3, 304700, Note_off_c, 1, 56, 0
3, 304704, Note_on_c, 1, 53, 90
3, 304892, Note_off_c, 1, 53, 0
3, 304896, Note_on_c, 1, 56, 90
3, 305084, Note_off_c, 1, 56, 0
3, 305088, Note_on_c, 1, 53, 90
3, 305276, Note_off_c, 1, 53, 0
3, 305280, Note_on_c, 1, 47, 90
3, 305468, Note_off_c, 1, 47, 0
3, 305472, Note_on_c, 1, 53, 90
3, 305660, Note_off_c, 1, 53, 0
3, 305664, Note_on_c, 1, 56, 90
3, 305852, Note_off_c, 1, 56, 0
3, 305856, Note_on_c, 1, 53, 90
3, 306044, Note_off_c, 1, 53, 0
3, 306048, Note_on_c, 1, 56, 90
3, 306236, Note_off_c, 1, 56, 0
3, 306240, Note_on_c, 1, 53, 90
3, 306428, Note_off_c, 1, 53, 0
3, 306432, Note_on_c, 1, 48, 90
3, 306620, Note_off_c, 1, 48, 0
3, 306624, Note_on_c, 1, 52, 90
3, 306812, Note_off_c, 1, 52, 0
3, 306832, Note_on_c, 1, 55, 90
3, 307008, Note_on_c, 1, 60, 90
3, 307020, Note_off_c, 1, 55, 0
3, 307196, Note_off_c, 1, 60, 0
3, 307216, Note_on_c, 1, 53, 90
3, 307404, Note_off_c, 1, 53, 0
3, 307408, Note_on_c, 1, 56, 90
3, 307584, Note_on_c, 1, 48, 90
3, 307596, Note_off_c, 1, 56, 0
3, 307772, Note_off_c, 1, 48, 0
3, 307776, Note_on_c, 1, 52, 90
3, 307964, Note_off_c, 1, 52, 0
3, 307968, Note_on_c, 1, 55, 90
3, 308156, Note_off_c, 1, 55, 0
3, 308160, Note_on_c, 1, 60, 90
3, 308348, Note_off_c, 1, 60, 0
3, 308352, Note_on_c, 1, 53, 90
3, 308540, Note_off_c, 1, 53, 0
3, 308544, Note_on_c, 1, 56, 90
3, 308732, Note_off_c, 1, 56, 0
3, 308736, Note_on_c, 1, 60, 90
3, 308736, Note_on_c, 1, 48, 90
3, 309308, Note_off_c, 1, 60, 0
3, 309308, Note_off_c, 1, 48, 0
3, 309312, Note_on_c, 1, 61, 90
3, 309404, Note_off_c, 1, 61, 0
3, 309408, Note_on_c, 1, 60, 90
3, 309500, Note_off_c, 1, 60, 0
3, 309504, Note_on_c, 1, 58, 90
3, 309596, Note_off_c, 1, 58, 0
3, 309600, Note_on_c, 1, 56, 90
3, 309692, Note_off_c, 1, 56, 0
3, 309696, Note_on_c, 1, 55, 90
3, 309788, Note_off_c, 1, 55, 0
3, 309792, Note_on_c, 1, 53, 90
3, 309884, Note_off_c, 1, 53, 0
3, 309888, Note_on_c, 1, 60, 97
3, 310268, Note_off_c, 1, 60, 0
3, 310272, Note_on_c, 1, 48, 90
3, 310272, Note_on_c, 1, 36, 90
3, 310652, Note_off_c, 1, 48, 0
3, 310652, Note_off_c, 1, 36, 0
3, 311040, Note_on_c, 1, 41, 60
3, 311084, Note_off_c, 1, 41, 0
3, 311088, Note_on_c, 1, 48, 60
3, 311132, Note_off_c, 1, 48, 0
3, 311136, Note_on_c, 1, 53, 60
3, 311516, Note_off_c, 1, 53, 0
3, 312192, Note_on_c, 1, 48, 60
3, 312236, Note_off_c, 1, 48, 0
3, 312240, Note_on_c, 1, 55, 60
3, 312284, Note_off_c, 1, 55, 0
3, 312288, Note_on_c, 1, 58, 60
3, 312668, Note_off_c, 1, 58, 0
3, 314496, Note_on_c, 1, 53, 60
3, 314876, Note_off_c, 1, 53, 0
3, 314880, Note_on_c, 1, 41, 60
3, 315260, Note_off_c, 1, 41, 0
3, 315648, Note_on_c, 1, 50, 60
3, 316032, Note_on_c, 1, 58, 60
3, 316032, Note_on_c, 1, 53, 60
3, 316412, Note_off_c, 1, 50, 0
3, 316412, Note_off_c, 1, 58, 0
3, 316412, Note_off_c, 1, 53, 0
3, 316800, Note_on_c, 1, 52, 60
3, 317184, Note_on_c, 1, 55, 60
3, 317184, Note_on_c, 1, 60, 60
3, 317564, Note_off_c, 1, 52, 0
3, 317564, Note_off_c, 1, 55, 0
3, 317564, Note_off_c, 1, 60, 0
3, 317952, Note_on_c, 1, 53, 60
3, 318332, Note_off_c, 1, 53, 0
3, 318336, Note_on_c, 1, 53, 60
3, 318336, Note_on_c, 1, 50, 60
3, 318716, Note_off_c, 1, 53, 0
3, 318716, Note_off_c, 1, 50, 0
3, 318720, Note_on_c, 1, 55, 60
3, 318720, Note_on_c, 1, 46, 60
3, 319100, Note_off_c, 1, 55, 0
3, 319100, Note_off_c, 1, 46, 0
3, 319104, Note_on_c, 1, 52, 60
3, 319104, Note_on_c, 1, 48, 60
3, 319484, Note_off_c, 1, 52, 0
3, 319484, Note_off_c, 1, 48, 0
3, 320284, Note_on_c, 1, 53, 60
3, 320376, Note_off_c, 1, 53, 0
3, 320400, Note_on_c, 1, 57, 60
3, 320492, Note_off_c, 1, 57, 0
3, 320516, Note_on_c, 1, 60, 60
3, 320608, Note_off_c, 1, 60, 0
3, 320668, Note_on_c, 1, 53, 60
3, 320760, Note_off_c, 1, 53, 0
3, 320784, Note_on_c, 1, 57, 60
3, 320876, Note_off_c, 1, 57, 0
3, 320900, Note_on_c, 1, 60, 60
3, 320992, Note_off_c, 1, 60, 0
3, 321052, Note_on_c, 1, 53, 60
3, 321144, Note_off_c, 1, 53, 0
3, 321168, Note_on_c, 1, 57, 60
3, 321260, Note_off_c, 1, 57, 0
3, 321284, Note_on_c, 1, 60, 60
3, 321376, Note_off_c, 1, 60, 0
3, 321436, Note_on_c, 1, 52, 60
3, 321528, Note_off_c, 1, 52, 0
3, 321552, Note_on_c, 1, 55, 60
3, 321644, Note_off_c, 1, 55, 0
3, 321668, Note_on_c, 1, 60, 60
3, 321760, Note_off_c, 1, 60, 0
3, 321820, Note_on_c, 1, 52, 60
3, 321912, Note_off_c, 1, 52, 0
3, 321936, Note_on_c, 1, 55, 60
3, 322028, Note_off_c, 1, 55, 0
3, 322052, Note_on_c, 1, 60, 60
3, 322144, Note_off_c, 1, 60, 0
3, 322204, Note_on_c, 1, 52, 60
3, 322296, Note_off_c, 1, 52, 0
3, 322320, Note_on_c, 1, 58, 60
3, 322412, Note_off_c, 1, 58, 0
3, 322436, Note_on_c, 1, 60, 60
3, 322528, Note_off_c, 1, 60, 0
3, 322560, Note_on_c, 1, 57, 60
3, 322560, Note_on_c, 1, 53, 60
3, 322940, Note_off_c, 1, 57, 0
3, 322940, Note_off_c, 1, 53, 0
3, 322944, Note_on_c, 1, 57, 60
3, 323324, Note_off_c, 1, 57, 0
3, 323328, Note_on_c, 1, 60, 60
3, 323708, Note_off_c, 1, 60, 0
3, 323712, Note_on_c, 1, 65, 60
3, 324092, Note_off_c, 1, 65, 0
3, 324096, Note_on_c, 1, 60, 60
3, 324476, Note_off_c, 1, 60, 0
3, 324480, Note_on_c, 1, 53, 60
3, 324860, Note_off_c, 1, 53, 0
3, 330624, Note_on_c, 1, 53, 60
3, 331004, Note_off_c, 1, 53, 0
3, 331008, Note_on_c, 1, 56, 60
3, 331388, Note_off_c, 1, 56, 0
3, 331392, Note_on_c, 1, 53, 60
3, 331772, Note_off_c, 1, 53, 0
3, 331776, Note_on_c, 1, 55, 60
3, 332156, Note_off_c, 1, 55, 0
3, 332160, Note_on_c, 1, 52, 60
3, 332540, Note_off_c, 1, 52, 0
3, 332544, Note_on_c, 1, 48, 60
3, 332924, Note_off_c, 1, 48, 0
3, 332928, Note_on_c, 1, 53, 90
3, 332928, Note_on_c, 1, 41, 90
3, 333308, Note_off_c, 1, 53, 0
3, 333308, Note_off_c, 1, 41, 0
3, 333312, Note_on_c, 1, 56, 60
3, 333692, Note_off_c, 1, 56, 0
3, 333696, Note_on_c, 1, 60, 60
3, 334076, Note_off_c, 1, 60, 0
3, 334080, Note_on_c, 1, 58, 90
3, 334080, Note_on_c, 1, 46, 90
3, 334460, Note_off_c, 1, 58, 0
3, 334460, Note_off_c, 1, 46, 0
3, 334464, Note_on_c, 1, 61, 60
3, 334844, Note_off_c, 1, 61, 0
3, 334848, Note_on_c, 1, 65, 60
3, 335228, Note_off_c, 1, 65, 0
3, 335232, Note_on_c, 1, 51, 90
3, 335232, Note_on_c, 1, 39, 90
3, 335612, Note_off_c, 1, 51, 0
3, 335612, Note_off_c, 1, 39, 0
3, 335616, Note_on_c, 1, 55, 60
3, 335996, Note_off_c, 1, 55, 0
3, 336000, Note_on_c, 1, 58, 60
3, 336380, Note_off_c, 1, 58, 0
3, 336384, Note_on_c, 1, 56, 90
3, 336384, Note_on_c, 1, 44, 90
3, 336764, Note_off_c, 1, 56, 0
3, 336764, Note_off_c, 1, 44, 0
3, 336768, Note_on_c, 1, 60, 60
3, 337148, Note_off_c, 1, 60, 0
3, 337152, Note_on_c, 1, 63, 60
3, 337532, Note_off_c, 1, 63, 0
3, 337536, Note_on_c, 1, 49, 90
3, 337536, Note_on_c, 1, 37, 90
3, 337916, Note_off_c, 1, 49, 0
3, 337916, Note_off_c, 1, 37, 0
3, 337920, Note_on_c, 1, 61, 60
3, 338300, Note_off_c, 1, 61, 0
3, 338304, Note_on_c, 1, 55, 90
3, 338304, Note_on_c, 1, 43, 90
3, 338684, Note_off_c, 1, 55, 0
3, 338684, Note_off_c, 1, 43, 0
3, 338688, Note_on_c, 1, 67, 60
3, 339068, Note_off_c, 1, 67, 0
3, 339072, Note_on_c, 1, 48, 90
3, 339072, Note_on_c, 1, 36, 90
3, 339452, Note_off_c, 1, 48, 0
3, 339452, Note_off_c, 1, 36, 0
3, 339456, Note_on_c, 1, 60, 60
3, 339836, Note_off_c, 1, 60, 0
3, 339840, Note_on_c, 1, 61, 60
3, 340220, Note_off_c, 1, 61, 0
3, 340224, Note_on_c, 1, 60, 60
3, 340604, Note_off_c, 1, 60, 0
3, 340608, Note_on_c, 1, 59, 60
3, 340988, Note_off_c, 1, 59, 0
3, 340992, Note_on_c, 1, 60, 60
3, 341372, Note_off_c, 1, 60, 0
3, 341952, Note_on_c, 1, 59, 60
3, 342140, Note_off_c, 1, 59, 0
3, 342144, Note_on_c, 1, 60, 60
3, 342524, Note_off_c, 1, 60, 0
3, 343104, Note_on_c, 1, 59, 60
3, 343292, Note_off_c, 1, 59, 0
3, 343296, Note_on_c, 1, 60, 60
3, 343484, Note_off_c, 1, 60, 0
3, 343488, Note_on_c, 1, 59, 60
3, 343676, Note_off_c, 1, 59, 0
3, 343680, Note_on_c, 1, 60, 60
3, 343868, Note_off_c, 1, 60, 0
3, 343872, Note_on_c, 1, 59, 60
3, 344060, Note_off_c, 1, 59, 0
3, 344064, Note_on_c, 1, 60, 60
3, 344252, Note_off_c, 1, 60, 0
3, 344256, Note_on_c, 1, 59, 60
3, 344444, Note_off_c, 1, 59, 0
3, 344448, Note_on_c, 1, 60, 60
3, 344828, Note_off_c, 1, 60, 0
3, 345600, Note_on_c, 1, 58, 82
3, 345980, Note_off_c, 1, 58, 0
3, 345984, Note_on_c, 1, 58, 60
3, 346364, Note_off_c, 1, 58, 0
3, 346368, Note_on_c, 1, 58, 60
3, 346748, Note_off_c, 1, 58, 0
3, 346752, Note_on_c, 1, 58, 60
3, 347516, Note_off_c, 1, 58, 0
3, 347520, Note_on_c, 1, 53, 60
3, 347900, Note_off_c, 1, 53, 0
3, 347904, Note_on_c, 1, 48, 60
3, 348284, Note_off_c, 1, 48, 0
3, 348288, Note_on_c, 1, 48, 60
3, 348668, Note_off_c, 1, 48, 0
3, 348672, Note_on_c, 1, 48, 60
3, 349052, Note_off_c, 1, 48, 0
3, 349056, Note_on_c, 1, 48, 60
3, 349820, Note_off_c, 1, 48, 0
3, 349824, Note_on_c, 1, 50, 60
3, 350204, Note_off_c, 1, 50, 0
3, 350208, Note_on_c, 1, 46, 60
3, 350588, Note_off_c, 1, 46, 0
3, 350592, Note_on_c, 1, 48, 60
3, 350972, Note_off_c, 1, 48, 0
3, 350976, Note_on_c, 1, 48, 60
3, 351356, Note_off_c, 1, 48, 0
3, 351360, Note_on_c, 1, 53, 60
3, 351740, Note_off_c, 1, 53, 0
3, 357120, Note_on_c, 1, 58, 60
3, 357500, Note_off_c, 1, 58, 0
3, 357504, Note_on_c, 1, 60, 60
3, 357884, Note_off_c, 1, 60, 0
3, 357888, Note_on_c, 1, 58, 60
3, 358268, Note_off_c, 1, 58, 0
3, 358272, Note_on_c, 1, 57, 90
3, 358272, Note_on_c, 1, 45, 90
3, 358460, Note_off_c, 1, 57, 0
3, 358460, Note_off_c, 1, 45, 0
3, 358848, Note_on_c, 1, 61, 60
3, 359036, Note_off_c, 1, 61, 0
3, 359232, Note_on_c, 1, 62, 60
3, 359420, Note_off_c, 1, 62, 0
3, 359424, Note_on_c, 1, 58, 60
3, 359612, Note_off_c, 1, 58, 0
3, 359808, Note_on_c, 1, 60, 60
3, 359996, Note_off_c, 1, 60, 0
3, 360192, Note_on_c, 1, 58, 60
3, 360380, Note_off_c, 1, 58, 0
3, 360576, Note_on_c, 1, 57, 90
3, 360576, Note_on_c, 1, 45, 90
3, 360764, Note_off_c, 1, 57, 0
3, 360764, Note_off_c, 1, 45, 0
3, 360960, Note_on_c, 1, 61, 90
3, 360960, Note_on_c, 1, 49, 90
3, 361148, Note_off_c, 1, 61, 0
3, 361148, Note_off_c, 1, 49, 0
3, 361344, Note_on_c, 1, 62, 90
3, 361344, Note_on_c, 1, 50, 90
3, 361532, Note_off_c, 1, 62, 0
3, 361532, Note_off_c, 1, 50, 0
3, 361728, Note_on_c, 1, 58, 90
3, 361728, Note_on_c, 1, 46, 90
3, 361916, Note_off_c, 1, 58, 0
3, 361916, Note_off_c, 1, 46, 0
3, 362112, Note_on_c, 1, 60, 90
3, 362112, Note_on_c, 1, 48, 90
3, 362300, Note_off_c, 1, 60, 0
3, 362300, Note_off_c, 1, 48, 0
3, 362496, Note_on_c, 1, 48, 90
3, 362512, Note_on_c, 1, 36, 90
3, 362684, Note_off_c, 1, 48, 0
3, 362700, Note_off_c, 1, 36, 0
3, 362880, Note_on_c, 1, 41, 90
3, 362972, Note_off_c, 1, 41, 0
3, 362976, Note_on_c, 1, 45, 90
3, 363068, Note_off_c, 1, 45, 0
3, 363072, Note_on_c, 1, 48, 90
3, 363164, Note_off_c, 1, 48, 0
3, 363168, Note_on_c, 1, 53, 90
3, 363260, Note_off_c, 1, 53, 0
3, 363264, Note_on_c, 1, 41, 90
3, 363356, Note_off_c, 1, 41, 0
3, 363360, Note_on_c, 1, 45, 90
3, 363452, Note_off_c, 1, 45, 0
3, 363456, Note_on_c, 1, 48, 90
3, 363548, Note_off_c, 1, 48, 0
3, 363552, Note_on_c, 1, 53, 90
3, 363644, Note_off_c, 1, 53, 0
3, 363648, Note_on_c, 1, 41, 90
3, 363740, Note_off_c, 1, 41, 0
3, 363744, Note_on_c, 1, 45, 90
3, 363836, Note_off_c, 1, 45, 0
3, 363840, Note_on_c, 1, 48, 90
3, 363932, Note_off_c, 1, 48, 0
3, 363936, Note_on_c, 1, 53, 90
3, 364028, Note_off_c, 1, 53, 0
3, 364032, Note_on_c, 1, 41, 90
3, 364124, Note_off_c, 1, 41, 0
3, 364128, Note_on_c, 1, 45, 90
3, 364220, Note_off_c, 1, 45, 0
3, 364224, Note_on_c, 1, 48, 90
3, 364316, Note_off_c, 1, 48, 0
3, 364320, Note_on_c, 1, 53, 90
3, 364412, Note_off_c, 1, 53, 0
3, 364416, Note_on_c, 1, 41, 90
3, 364508, Note_off_c, 1, 41, 0
3, 364512, Note_on_c, 1, 45, 90
3, 364604, Note_off_c, 1, 45, 0
3, 364608, Note_on_c, 1, 48, 90
3, 364700, Note_off_c, 1, 48, 0
3, 364704, Note_on_c, 1, 53, 90
3, 364796, Note_off_c, 1, 53, 0
3, 364800, Note_on_c, 1, 41, 90
3, 364892, Note_off_c, 1, 41, 0
3, 364896, Note_on_c, 1, 46, 90
3, 364988, Note_off_c, 1, 46, 0
3, 364992, Note_on_c, 1, 48, 90
3, 365084, Note_off_c, 1, 48, 0
3, 365088, Note_on_c, 1, 55, 90
3, 365180, Note_off_c, 1, 55, 0
3, 365184, Note_on_c, 1, 41, 90
3, 365276, Note_off_c, 1, 41, 0
3, 365280, Note_on_c, 1, 45, 90
3, 365372, Note_off_c, 1, 45, 0
3, 365376, Note_on_c, 1, 48, 90
3, 365468, Note_off_c, 1, 48, 0
3, 365472, Note_on_c, 1, 53, 90
3, 365564, Note_off_c, 1, 53, 0
3, 365568, Note_on_c, 1, 41, 90
3, 365660, Note_off_c, 1, 41, 0
3, 365664, Note_on_c, 1, 45, 90
3, 365756, Note_off_c, 1, 45, 0
3, 365760, Note_on_c, 1, 48, 90
3, 365852, Note_off_c, 1, 48, 0
3, 365856, Note_on_c, 1, 53, 90
3, 365948, Note_off_c, 1, 53, 0
3, 365952, Note_on_c, 1, 41, 90
3, 366032, Note_on_c, 1, 45, 90
3, 366044, Note_off_c, 1, 41, 0
3, 366124, Note_off_c, 1, 45, 0
3, 366144, Note_on_c, 1, 48, 90
3, 366236, Note_off_c, 1, 48, 0
3, 366240, Note_on_c, 1, 53, 90
3, 366332, Note_off_c, 1, 53, 0
3, 366336, Note_on_c, 1, 41, 90
3, 366428, Note_off_c, 1, 41, 0
3, 366432, Note_on_c, 1, 45, 90
3, 366524, Note_off_c, 1, 45, 0
3, 366528, Note_on_c, 1, 48, 90
3, 366620, Note_off_c, 1, 48, 0
3, 366624, Note_on_c, 1, 53, 90
3, 366716, Note_off_c, 1, 53, 0
3, 366720, Note_on_c, 1, 41, 90
3, 366812, Note_off_c, 1, 41, 0
3, 366816, Note_on_c, 1, 45, 90
3, 366908, Note_off_c, 1, 45, 0
3, 366912, Note_on_c, 1, 48, 90
3, 367004, Note_off_c, 1, 48, 0
3, 367008, Note_on_c, 1, 53, 90
3, 367100, Note_off_c, 1, 53, 0
3, 367104, Note_on_c, 1, 41, 90
3, 367196, Note_off_c, 1, 41, 0
3, 367200, Note_on_c, 1, 46, 90
3, 367292, Note_off_c, 1, 46, 0
3, 367296, Note_on_c, 1, 48, 90
3, 367388, Note_off_c, 1, 48, 0
3, 367392, Note_on_c, 1, 55, 90
3, 367484, Note_off_c, 1, 55, 0
3, 367488, Note_on_c, 1, 45, 90
3, 367488, Note_on_c, 1, 41, 90
3, 367488, Note_on_c, 1, 48, 90
3, 367488, Note_on_c, 1, 53, 90
3, 367868, Note_off_c, 1, 45, 0
3, 367868, Note_off_c, 1, 41, 0
3, 367868, Note_off_c, 1, 48, 0
3, 367868, Note_off_c, 1, 53, 0
3, 367872, Note_on_c, 1, 57, 97
3, 367872, Note_on_c, 1, 45, 97
3, 368444, Note_off_c, 1, 57, 0
3, 368444, Note_off_c, 1, 45, 0
3, 368448, Note_on_c, 1, 61, 90
3, 368448, Note_on_c, 1, 49, 90
3, 368636, Note_off_c, 1, 61, 0
3, 368636, Note_off_c, 1, 49, 0
3, 368640, Note_on_c, 1, 62, 90
3, 368640, Note_on_c, 1, 50, 90
3, 369020, Note_off_c, 1, 62, 0
3, 369020, Note_off_c, 1, 50, 0
3, 369024, Note_on_c, 1, 65, 97
3, 369024, Note_on_c, 1, 53, 97
3, 369596, Note_off_c, 1, 65, 0
3, 369596, Note_off_c, 1, 53, 0
3, 369600, Note_on_c, 1, 57, 90
3, 369788, Note_off_c, 1, 57, 0
3, 369792, Note_on_c, 1, 60, 90
3, 369836, Note_off_c, 1, 60, 0
3, 369840, Note_on_c, 1, 58, 90
3, 369884, Note_off_c, 1, 58, 0
3, 369888, Note_on_c, 1, 60, 90
3, 369932, Note_off_c, 1, 60, 0
3, 369936, Note_on_c, 1, 58, 90
3, 369980, Note_off_c, 1, 58, 0
3, 369984, Note_on_c, 1, 60, 90
3, 370028, Note_off_c, 1, 60, 0
3, 370032, Note_on_c, 1, 58, 90
3, 370076, Note_off_c, 1, 58, 0
3, 370080, Note_on_c, 1, 57, 90
3, 370124, Note_off_c, 1, 57, 0
3, 370128, Note_on_c, 1, 55, 90
3, 370172, Note_off_c, 1, 55, 0
3, 370176, Note_on_c, 1, 60, 90
3, 370556, Note_off_c, 1, 60, 0
3, 370560, Note_on_c, 1, 60, 90
3, 370560, Note_on_c, 1, 48, 90
3, 370940, Note_off_c, 1, 60, 0
3, 370940, Note_off_c, 1, 48, 0
3, 370944, Note_on_c, 1, 65, 90
3, 370944, Note_on_c, 1, 53, 90
3, 371324, Note_off_c, 1, 65, 0
3, 371324, Note_off_c, 1, 53, 0
3, 371328, Note_on_c, 1, 53, 90
3, 371328, Note_on_c, 1, 41, 90
3, 371708, Note_off_c, 1, 53, 0
3, 371708, Note_off_c, 1, 41, 0
3, 372480, Note_on_c, 1, 52, 60
3, 372860, Note_off_c, 1, 52, 0
3, 372864, Note_on_c, 1, 48, 60
3, 373244, Note_off_c, 1, 48, 0
3, 373248, Note_on_c, 1, 55, 97
3, 374396, Note_off_c, 1, 55, 0
3, 374784, Note_on_c, 1, 52, 60
3, 375164, Note_off_c, 1, 52, 0
3, 375168, Note_on_c, 1, 48, 60
3, 375548, Note_off_c, 1, 48, 0
3, 375552, Note_on_c, 1, 55, 97
3, 376700, Note_off_c, 1, 55, 0
3, 376704, Note_on_c, 1, 62, 60
3, 376704, Note_on_c, 1, 57, 60
3, 376704, Note_on_c, 1, 53, 60
3, 377084, Note_off_c, 1, 62, 0
3, 377084, Note_off_c, 1, 57, 0
3, 377084, Note_off_c, 1, 53, 0
3, 377856, Note_on_c, 1, 62, 60
3, 377856, Note_on_c, 1, 57, 60
3, 377856, Note_on_c, 1, 53, 60
3, 378236, Note_off_c, 1, 62, 0
3, 378236, Note_off_c, 1, 57, 0
3, 378236, Note_off_c, 1, 53, 0
3, 379008, Note_on_c, 1, 65, 60
3, 379008, Note_on_c, 1, 62, 60
3, 379008, Note_on_c, 1, 55, 60
3, 380156, Note_off_c, 1, 65, 0
3, 380156, Note_off_c, 1, 62, 0
3, 380156, Note_off_c, 1, 55, 0
3, 380160, Note_on_c, 1, 60, 60
3, 380160, Note_on_c, 1, 64, 60
3, 380540, Note_off_c, 1, 60, 0
3, 380540, Note_off_c, 1, 64, 0
3, 381696, Note_on_c, 1, 52, 60
3, 382076, Note_off_c, 1, 52, 0
3, 382080, Note_on_c, 1, 48, 60
3, 382460, Note_off_c, 1, 48, 0
3, 382464, Note_on_c, 1, 55, 97
3, 382464, Note_on_c, 1, 43, 97
3, 383612, Note_off_c, 1, 55, 0
3, 383612, Note_off_c, 1, 43, 0
3, 384000, Note_on_c, 1, 52, 60
3, 384380, Note_off_c, 1, 52, 0
3, 384384, Note_on_c, 1, 48, 60
3, 384764, Note_off_c, 1, 48, 0
3, 384768, Note_on_c, 1, 55, 97
3, 384768, Note_on_c, 1, 43, 97
3, 385916, Note_off_c, 1, 55, 0
3, 385916, Note_off_c, 1, 43, 0
3, 385920, Note_on_c, 1, 50, 60
3, 385920, Note_on_c, 1, 45, 60
3, 385920, Note_on_c, 1, 41, 60
3, 386300, Note_off_c, 1, 50, 0
3, 386300, Note_off_c, 1, 45, 0
3, 386300, Note_off_c, 1, 41, 0
3, 387072, Note_on_c, 1, 50, 60
3, 387072, Note_on_c, 1, 45, 60
3, 387072, Note_on_c, 1, 41, 60
3, 387452, Note_off_c, 1, 50, 0
3, 387452, Note_off_c, 1, 45, 0
3, 387452, Note_off_c, 1, 41, 0
3, 388224, Note_on_c, 1, 50, 60
3, 388224, Note_on_c, 1, 43, 60
3, 388224, Note_on_c, 1, 53, 60
3, 388604, Note_off_c, 1, 50, 0
3, 388604, Note_off_c, 1, 43, 0
3, 388604, Note_off_c, 1, 53, 0
3, 389376, Note_on_c, 1, 48, 60
3, 389376, Note_on_c, 1, 52, 60
3, 389756, Note_off_c, 1, 48, 0
3, 389756, Note_off_c, 1, 52, 0
3, 389760, Note_on_c, 1, 64, 60
3, 390140, Note_off_c, 1, 64, 0
3, 390144, Note_on_c, 1, 60, 60
3, 390524, Note_off_c, 1, 60, 0
3, 390528, Note_on_c, 1, 62, 60
3, 390908, Note_off_c, 1, 62, 0
3, 390912, Note_on_c, 1, 59, 60
3, 391292, Note_off_c, 1, 59, 0
3, 391296, Note_on_c, 1, 55, 60
3, 391676, Note_off_c, 1, 55, 0
3, 391680, Note_on_c, 1, 48, 60
3, 392060, Note_off_c, 1, 48, 0
3, 392064, Note_on_c, 1, 51, 60
3, 392444, Note_off_c, 1, 51, 0
3, 392448, Note_on_c, 1, 48, 60
3, 392828, Note_off_c, 1, 48, 0
3, 392832, Note_on_c, 1, 50, 60
3, 393212, Note_off_c, 1, 50, 0
3, 393216, Note_on_c, 1, 47, 60
3, 393596, Note_off_c, 1, 47, 0
3, 393600, Note_on_c, 1, 43, 60
3, 393980, Note_off_c, 1, 43, 0
3, 393984, Note_on_c, 1, 48, 90
3, 393984, Note_on_c, 1, 36, 90
3, 394364, Note_off_c, 1, 48, 0
3, 394364, Note_off_c, 1, 36, 0
3, 394368, Note_on_c, 1, 60, 60
3, 394748, Note_off_c, 1, 60, 0
3, 394752, Note_on_c, 1, 48, 60
3, 395132, Note_off_c, 1, 48, 0
3, 395136, Note_on_c, 1, 45, 90
3, 395136, Note_on_c, 1, 33, 90
3, 395516, Note_off_c, 1, 45, 0
3, 395516, Note_off_c, 1, 33, 0
3, 395520, Note_on_c, 1, 57, 60
3, 395900, Note_off_c, 1, 57, 0
3, 395904, Note_on_c, 1, 45, 60
3, 396284, Note_off_c, 1, 45, 0
3, 396288, Note_on_c, 1, 46, 90
3, 396288, Note_on_c, 1, 34, 90
3, 396668, Note_off_c, 1, 46, 0
3, 396668, Note_off_c, 1, 34, 0
3, 396672, Note_on_c, 1, 58, 60
3, 397052, Note_off_c, 1, 58, 0
3, 397056, Note_on_c, 1, 46, 60
3, 397436, Note_off_c, 1, 46, 0
3, 397440, Note_on_c, 1, 42, 90
3, 397440, Note_on_c, 1, 30, 90
3, 397820, Note_off_c, 1, 42, 0
3, 397820, Note_off_c, 1, 30, 0
3, 397824, Note_on_c, 1, 54, 60
3, 398204, Note_off_c, 1, 54, 0
3, 398208, Note_on_c, 1, 42, 60
3, 398588, Note_off_c, 1, 42, 0
3, 398592, Note_on_c, 1, 43, 90
3, 398592, Note_on_c, 1, 31, 90
3, 398972, Note_off_c, 1, 43, 0
3, 398972, Note_off_c, 1, 31, 0
3, 398976, Note_on_c, 1, 55, 60
3, 399356, Note_off_c, 1, 55, 0
3, 399360, Note_on_c, 1, 43, 60
3, 399740, Note_off_c, 1, 43, 0
3, 399744, Note_on_c, 1, 52, 90
3, 399744, Note_on_c, 1, 40, 90
3, 400124, Note_off_c, 1, 52, 0
3, 400124, Note_off_c, 1, 40, 0
3, 400128, Note_on_c, 1, 64, 60
3, 400508, Note_off_c, 1, 64, 0
3, 400512, Note_on_c, 1, 52, 60
3, 400892, Note_off_c, 1, 52, 0
3, 400896, Note_on_c, 1, 53, 90
3, 400896, Note_on_c, 1, 41, 90
3, 401276, Note_off_c, 1, 53, 0
3, 401276, Note_off_c, 1, 41, 0
3, 401280, Note_on_c, 1, 65, 60
3, 401660, Note_off_c, 1, 65, 0
3, 401664, Note_on_c, 1, 53, 60
3, 402044, Note_off_c, 1, 53, 0
3, 402048, Note_on_c, 1, 49, 90
3, 402048, Note_on_c, 1, 37, 90
3, 402428, Note_off_c, 1, 49, 0
3, 402428, Note_off_c, 1, 37, 0
3, 402432, Note_on_c, 1, 61, 60
3, 402812, Note_off_c, 1, 61, 0
3, 402816, Note_on_c, 1, 49, 60
3, 403196, Note_off_c, 1, 49, 0
3, 403200, Note_on_c, 1, 50, 90
3, 403200, Note_on_c, 1, 38, 90
3, 403580, Note_off_c, 1, 50, 0
3, 403580, Note_off_c, 1, 38, 0
3, 403584, Note_on_c, 1, 62, 60
3, 403964, Note_off_c, 1, 62, 0
3, 403968, Note_on_c, 1, 50, 60
3, 404348, Note_off_c, 1, 50, 0
3, 404352, Note_on_c, 1, 46, 90
3, 404352, Note_on_c, 1, 34, 90
3, 404732, Note_off_c, 1, 46, 0
3, 404732, Note_off_c, 1, 34, 0
3, 404736, Note_on_c, 1, 58, 60
3, 405116, Note_off_c, 1, 58, 0
3, 405120, Note_on_c, 1, 46, 60
3, 405500, Note_off_c, 1, 46, 0
3, 405504, Note_on_c, 1, 45, 60
3, 405884, Note_off_c, 1, 45, 0
3, 407616, Note_on_c, 1, 56, 60
3, 407804, Note_off_c, 1, 56, 0
3, 407808, Note_on_c, 1, 57, 60
3, 407996, Note_off_c, 1, 57, 0
3, 408000, Note_on_c, 1, 56, 60
3, 408188, Note_off_c, 1, 56, 0
3, 408192, Note_on_c, 1, 57, 60
3, 408380, Note_off_c, 1, 57, 0
3, 408384, Note_on_c, 1, 56, 60
3, 408572, Note_off_c, 1, 56, 0
3, 408576, Note_on_c, 1, 57, 60
3, 408764, Note_off_c, 1, 57, 0
3, 408768, Note_on_c, 1, 56, 60
3, 408956, Note_off_c, 1, 56, 0
3, 408960, Note_on_c, 1, 57, 60
3, 409340, Note_off_c, 1, 57, 0
3, 410112, Note_on_c, 1, 57, 45
3, 410300, Note_off_c, 1, 57, 0
3, 410304, Note_on_c, 1, 56, 45
3, 410492, Note_off_c, 1, 56, 0
3, 410496, Note_on_c, 1, 57, 45
3, 410684, Note_off_c, 1, 57, 0
3, 410688, Note_on_c, 1, 56, 45
3, 410876, Note_off_c, 1, 56, 0
3, 410880, Note_on_c, 1, 57, 45
3, 411068, Note_off_c, 1, 57, 0
3, 411072, Note_on_c, 1, 56, 45
3, 411260, Note_off_c, 1, 56, 0
3, 411264, Note_on_c, 1, 57, 45
3, 411644, Note_off_c, 1, 57, 0
3, 412416, Note_on_c, 1, 55, 90
3, 412604, Note_off_c, 1, 55, 0
3, 412608, Note_on_c, 1, 57, 90
3, 412796, Note_off_c, 1, 57, 0
3, 412800, Note_on_c, 1, 55, 90
3, 412988, Note_off_c, 1, 55, 0
3, 412992, Note_on_c, 1, 57, 90
3, 413180, Note_off_c, 1, 57, 0
3, 413184, Note_on_c, 1, 55, 90
3, 413372, Note_off_c, 1, 55, 0
3, 413376, Note_on_c, 1, 57, 90
3, 413564, Note_off_c, 1, 57, 0
3, 413568, Note_on_c, 1, 55, 90
3, 413948, Note_off_c, 1, 55, 0
3, 417024, Note_on_c, 1, 53, 60
3, 417212, Note_off_c, 1, 53, 0
3, 417216, Note_on_c, 1, 57, 60
3, 417404, Note_off_c, 1, 57, 0
3, 417408, Note_on_c, 1, 60, 60
3, 417596, Note_off_c, 1, 60, 0
3, 417600, Note_on_c, 1, 57, 60
3, 417788, Note_off_c, 1, 57, 0
3, 417792, Note_on_c, 1, 60, 60
3, 417980, Note_off_c, 1, 60, 0
3, 417984, Note_on_c, 1, 57, 60
3, 418172, Note_off_c, 1, 57, 0
3, 418176, Note_on_c, 1, 53, 60
3, 418364, Note_off_c, 1, 53, 0
3, 418368, Note_on_c, 1, 60, 60
3, 418556, Note_off_c, 1, 60, 0
3, 418560, Note_on_c, 1, 63, 60
3, 418748, Note_off_c, 1, 63, 0
3, 418752, Note_on_c, 1, 60, 60
3, 418940, Note_off_c, 1, 60, 0
3, 418944, Note_on_c, 1, 63, 60
3, 419132, Note_off_c, 1, 63, 0
3, 419136, Note_on_c, 1, 60, 60
3, 419324, Note_off_c, 1, 60, 0
3, 419328, Note_on_c, 1, 53, 60
3, 419516, Note_off_c, 1, 53, 0
3, 419520, Note_on_c, 1, 58, 60
3, 419708, Note_off_c, 1, 58, 0
3, 419712, Note_on_c, 1, 62, 60
3, 419900, Note_off_c, 1, 62, 0
3, 419904, Note_on_c, 1, 58, 60
3, 420092, Note_off_c, 1, 58, 0
3, 420096, Note_on_c, 1, 62, 60
3, 420284, Note_off_c, 1, 62, 0
3, 420288, Note_on_c, 1, 58, 60
3, 420476, Note_off_c, 1, 58, 0
3, 420480, Note_on_c, 1, 53, 60
3, 420668, Note_off_c, 1, 53, 0
3, 420672, Note_on_c, 1, 55, 60
3, 420860, Note_off_c, 1, 55, 0
3, 420864, Note_on_c, 1, 58, 60
3, 421052, Note_off_c, 1, 58, 0
3, 421056, Note_on_c, 1, 55, 60
3, 421244, Note_off_c, 1, 55, 0
3, 421248, Note_on_c, 1, 58, 60
3, 421436, Note_off_c, 1, 58, 0
3, 421440, Note_on_c, 1, 55, 60
3, 421628, Note_off_c, 1, 55, 0
3, 421632, Note_on_c, 1, 57, 82
3, 421632, Note_on_c, 1, 53, 82
3, 422012, Note_off_c, 1, 57, 0
3, 422012, Note_off_c, 1, 53, 0
3, 423936, Note_on_c, 1, 53, 82
3, 424316, Note_off_c, 1, 53, 0
3, 424320, Note_on_c, 1, 45, 82
3, 424700, Note_off_c, 1, 45, 0
3, 424704, Note_on_c, 1, 50, 82
3, 425084, Note_off_c, 1, 50, 0
3, 425088, Note_on_c, 1, 43, 85
3, 425468, Note_off_c, 1, 43, 0
3, 425472, Note_on_c, 1, 48, 102
3, 426044, Note_off_c, 1, 48, 0
3, 426048, Note_on_c, 1, 45, 61
3, 426236, Note_off_c, 1, 45, 0
3, 426240, Note_on_c, 1, 41, 63
3, 426620, Note_off_c, 1, 41, 0
3, 426624, Note_on_c, 1, 50, 60
3, 427004, Note_off_c, 1, 50, 0
3, 427008, Note_on_c, 1, 46, 60
3, 427388, Note_off_c, 1, 46, 0
3, 427392, Note_on_c, 1, 45, 60
3, 427772, Note_off_c, 1, 45, 0
3, 428160, Note_on_c, 1, 50, 75
3, 428540, Note_off_c, 1, 50, 0
3, 428544, Note_on_c, 1, 46, 90
3, 428924, Note_off_c, 1, 46, 0
3, 429312, Note_on_c, 1, 48, 90
3, 429692, Note_off_c, 1, 48, 0
3, 429696, Note_on_c, 1, 41, 90
3, 430076, Note_off_c, 1, 41, 0
3, 440832, Note_on_c, 1, 58, 60
3, 440832, Note_on_c, 1, 52, 60
3, 440832, Note_on_c, 1, 48, 60
3, 441212, Note_off_c, 1, 58, 0
3, 441212, Note_off_c, 1, 52, 0
3, 441212, Note_off_c, 1, 48, 0
3, 441216, Note_on_c, 1, 57, 60
3, 441216, Note_on_c, 1, 53, 60
3, 441596, Note_off_c, 1, 57, 0
3, 441596, Note_off_c, 1, 53, 0
3, 441984, Note_on_c, 1, 37, 90
3, 441984, Note_on_c, 1, 49, 90
3, 442364, Note_off_c, 1, 37, 0
3, 442364, Note_off_c, 1, 49, 0
3, 442368, Note_on_c, 1, 50, 90
3, 442368, Note_on_c, 1, 41, 90
3, 442556, Note_off_c, 1, 50, 0
3, 442556, Note_off_c, 1, 41, 0
3, 442560, Note_on_c, 1, 53, 90
3, 442748, Note_off_c, 1, 53, 0
3, 442752, Note_on_c, 1, 57, 90
3, 442940, Note_off_c, 1, 57, 0
3, 442944, Note_on_c, 1, 53, 90
3, 443132, Note_off_c, 1, 53, 0
3, 443136, Note_on_c, 1, 57, 90
3, 443324, Note_off_c, 1, 57, 0
3, 443328, Note_on_c, 1, 53, 90
3, 443516, Note_off_c, 1, 53, 0
3, 443520, Note_on_c, 1, 50, 90
3, 443708, Note_off_c, 1, 50, 0
3, 443712, Note_on_c, 1, 53, 90
3, 443900, Note_off_c, 1, 53, 0
3, 443904, Note_on_c, 1, 57, 90
3, 444092, Note_off_c, 1, 57, 0
3, 444096, Note_on_c, 1, 53, 90
3, 444284, Note_off_c, 1, 53, 0
3, 444288, Note_on_c, 1, 57, 90
3, 444476, Note_off_c, 1, 57, 0
3, 444480, Note_on_c, 1, 53, 90
3, 444668, Note_off_c, 1, 53, 0
3, 444864, Note_on_c, 1, 52, 97
3, 444864, Note_on_c, 1, 40, 97
3, 445052, Note_off_c, 1, 52, 0
3, 445052, Note_off_c, 1, 40, 0
3, 445056, Note_on_c, 1, 61, 60
3, 445056, Note_on_c, 1, 58, 60
3, 445056, Note_on_c, 1, 55, 60
3, 445056, Note_on_c, 1, 52, 60
3, 445436, Note_off_c, 1, 61, 0
3, 445436, Note_off_c, 1, 58, 0
3, 445436, Note_off_c, 1, 55, 0
3, 445436, Note_off_c, 1, 52, 0
3, 445824, Note_on_c, 1, 52, 97
3, 445824, Note_on_c, 1, 40, 97
3, 446204, Note_off_c, 1, 52, 0
3, 446204, Note_off_c, 1, 40, 0
3, 446208, Note_on_c, 1, 58, 60
3, 446208, Note_on_c, 1, 61, 60
3, 446208, Note_on_c, 1, 55, 60
3, 446224, Note_on_c, 1, 52, 60
3, 446588, Note_off_c, 1, 58, 0
3, 446588, Note_off_c, 1, 61, 0
3, 446588, Note_off_c, 1, 55, 0
3, 446604, Note_off_c, 1, 52, 0
3, 446976, Note_on_c, 1, 53, 90
3, 447164, Note_off_c, 1, 53, 0
3, 447168, Note_on_c, 1, 57, 90
3, 447356, Note_off_c, 1, 57, 0
3, 447360, Note_on_c, 1, 62, 90
3, 447548, Note_off_c, 1, 62, 0
3, 447552, Note_on_c, 1, 57, 90
3, 447740, Note_off_c, 1, 57, 0
3, 447744, Note_on_c, 1, 62, 90
3, 447932, Note_off_c, 1, 62, 0
3, 447936, Note_on_c, 1, 57, 90
3, 448124, Note_off_c, 1, 57, 0
3, 448128, Note_on_c, 1, 53, 90
3, 448316, Note_off_c, 1, 53, 0
3, 448320, Note_on_c, 1, 57, 90
3, 448508, Note_off_c, 1, 57, 0
3, 448512, Note_on_c, 1, 62, 90
3, 448700, Note_off_c, 1, 62, 0
3, 448704, Note_on_c, 1, 57, 90
3, 448892, Note_off_c, 1, 57, 0
3, 448896, Note_on_c, 1, 62, 90
3, 449084, Note_off_c, 1, 62, 0
3, 449088, Note_on_c, 1, 57, 90
3, 449276, Note_off_c, 1, 57, 0
3, 449280, Note_on_c, 1, 50, 97
3, 449280, Note_on_c, 1, 38, 97
3, 449660, Note_off_c, 1, 50, 0
3, 449660, Note_off_c, 1, 38, 0
3, 449664, Note_on_c, 1, 56, 90
3, 449664, Note_on_c, 1, 53, 90
3, 449664, Note_on_c, 1, 50, 90
3, 449680, Note_on_c, 1, 59, 90
3, 450044, Note_off_c, 1, 56, 0
3, 450044, Note_off_c, 1, 53, 0
3, 450044, Note_off_c, 1, 50, 0
3, 450060, Note_off_c, 1, 59, 0
3, 450432, Note_on_c, 1, 50, 97
3, 450432, Note_on_c, 1, 38, 97
3, 450812, Note_off_c, 1, 50, 0
3, 450812, Note_off_c, 1, 38, 0
3, 450816, Note_on_c, 1, 56, 90
3, 450816, Note_on_c, 1, 59, 90
3, 450816, Note_on_c, 1, 53, 90
3, 450816, Note_on_c, 1, 50, 90
3, 451196, Note_off_c, 1, 56, 0
3, 451196, Note_off_c, 1, 59, 0
3, 451196, Note_off_c, 1, 53, 0
3, 451196, Note_off_c, 1, 50, 0
3, 451584, Note_on_c, 1, 51, 90
3, 451772, Note_off_c, 1, 51, 0
3, 451776, Note_on_c, 1, 55, 90
3, 451964, Note_off_c, 1, 55, 0
3, 451968, Note_on_c, 1, 60, 90
3, 452156, Note_off_c, 1, 60, 0
3, 452160, Note_on_c, 1, 55, 90
3, 452348, Note_off_c, 1, 55, 0
3, 452352, Note_on_c, 1, 60, 90
3, 452540, Note_off_c, 1, 60, 0
3, 452544, Note_on_c, 1, 55, 90
3, 452732, Note_off_c, 1, 55, 0
3, 452736, Note_on_c, 1, 51, 90
3, 452924, Note_off_c, 1, 51, 0
3, 452928, Note_on_c, 1, 55, 90
3, 453116, Note_off_c, 1, 55, 0
3, 453152, Note_on_c, 1, 60, 90
3, 453296, Note_on_c, 1, 55, 90
3, 453340, Note_off_c, 1, 60, 0
3, 453484, Note_off_c, 1, 55, 0
3, 453504, Note_on_c, 1, 60, 90
3, 453692, Note_off_c, 1, 60, 0
3, 453696, Note_on_c, 1, 55, 90
3, 453884, Note_off_c, 1, 55, 0
3, 453888, Note_on_c, 1, 39, 97
3, 454268, Note_off_c, 1, 39, 0
3, 454272, Note_on_c, 1, 51, 90
3, 454272, Note_on_c, 1, 57, 90
3, 454272, Note_on_c, 1, 60, 90
3, 454272, Note_on_c, 1, 54, 90
3, 454652, Note_off_c, 1, 51, 0
3, 454652, Note_off_c, 1, 57, 0
3, 454652, Note_off_c, 1, 60, 0
3, 454652, Note_off_c, 1, 54, 0
3, 455040, Note_on_c, 1, 39, 97
3, 455228, Note_off_c, 1, 39, 0
3, 455424, Note_on_c, 1, 54, 90
3, 455424, Note_on_c, 1, 57, 90
3, 455424, Note_on_c, 1, 60, 90
3, 455456, Note_on_c, 1, 51, 90
3, 455612, Note_off_c, 1, 54, 0
3, 455612, Note_off_c, 1, 57, 0
3, 455612, Note_off_c, 1, 60, 0
3, 455644, Note_off_c, 1, 51, 0
3, 456192, Note_on_c, 1, 49, 90
3, 456380, Note_off_c, 1, 49, 0
3, 456384, Note_on_c, 1, 53, 90
3, 456572, Note_off_c, 1, 53, 0
3, 456576, Note_on_c, 1, 58, 90
3, 456764, Note_off_c, 1, 58, 0
3, 456768, Note_on_c, 1, 53, 90
3, 456956, Note_off_c, 1, 53, 0
3, 456960, Note_on_c, 1, 58, 90
3, 457148, Note_off_c, 1, 58, 0
3, 457152, Note_on_c, 1, 53, 90
3, 457340, Note_off_c, 1, 53, 0
3, 457344, Note_on_c, 1, 49, 90
3, 457532, Note_off_c, 1, 49, 0
3, 457536, Note_on_c, 1, 53, 90
3, 457724, Note_off_c, 1, 53, 0
3, 457728, Note_on_c, 1, 58, 90
3, 457916, Note_off_c, 1, 58, 0
3, 457920, Note_on_c, 1, 53, 90
3, 458108, Note_off_c, 1, 53, 0
3, 458112, Note_on_c, 1, 58, 90
3, 458300, Note_off_c, 1, 58, 0
3, 458320, Note_on_c, 1, 53, 90
3, 458496, Note_on_c, 1, 48, 90
3, 458508, Note_off_c, 1, 53, 0
3, 458684, Note_off_c, 1, 48, 0
3, 458688, Note_on_c, 1, 53, 90
3, 458876, Note_off_c, 1, 53, 0
3, 458880, Note_on_c, 1, 57, 90
3, 459068, Note_off_c, 1, 57, 0
3, 459072, Note_on_c, 1, 53, 90
3, 459260, Note_off_c, 1, 53, 0
3, 459264, Note_on_c, 1, 57, 90
3, 459452, Note_off_c, 1, 57, 0
3, 459456, Note_on_c, 1, 53, 90
3, 459644, Note_off_c, 1, 53, 0
3, 459648, Note_on_c, 1, 48, 90
3, 459836, Note_off_c, 1, 48, 0
3, 459840, Note_on_c, 1, 53, 90
3, 460028, Note_off_c, 1, 53, 0
3, 460032, Note_on_c, 1, 57, 90
3, 460220, Note_off_c, 1, 57, 0
3, 460224, Note_on_c, 1, 53, 90
3, 460412, Note_off_c, 1, 53, 0
3, 460416, Note_on_c, 1, 57, 90
3, 460604, Note_off_c, 1, 57, 0
3, 460608, Note_on_c, 1, 53, 90
3, 460796, Note_off_c, 1, 53, 0
3, 460800, Note_on_c, 1, 47, 90
3, 460988, Note_off_c, 1, 47, 0
3, 460992, Note_on_c, 1, 53, 90
3, 461180, Note_off_c, 1, 53, 0
3, 461184, Note_on_c, 1, 56, 90
3, 461372, Note_off_c, 1, 56, 0
3, 461376, Note_on_c, 1, 53, 90
3, 461564, Note_off_c, 1, 53, 0
3, 461568, Note_on_c, 1, 56, 90
3, 461756, Note_off_c, 1, 56, 0
3, 461760, Note_on_c, 1, 53, 90
3, 461948, Note_off_c, 1, 53, 0
3, 461952, Note_on_c, 1, 47, 90
3, 462140, Note_off_c, 1, 47, 0
3, 462144, Note_on_c, 1, 53, 90
3, 462332, Note_off_c, 1, 53, 0
3, 462336, Note_on_c, 1, 56, 90
3, 462524, Note_off_c, 1, 56, 0
3, 462528, Note_on_c, 1, 53, 90
3, 462716, Note_off_c, 1, 53, 0
3, 462720, Note_on_c, 1, 56, 90
3, 462908, Note_off_c, 1, 56, 0
3, 462912, Note_on_c, 1, 53, 90
3, 463100, Note_off_c, 1, 53, 0
3, 463104, Note_on_c, 1, 48, 90
3, 463292, Note_off_c, 1, 48, 0
3, 463296, Note_on_c, 1, 52, 90
3, 463484, Note_off_c, 1, 52, 0
3, 463504, Note_on_c, 1, 55, 90
3, 463680, Note_on_c, 1, 60, 90
3, 463692, Note_off_c, 1, 55, 0
3, 463868, Note_off_c, 1, 60, 0
3, 463888, Note_on_c, 1, 53, 90
3, 464076, Note_off_c, 1, 53, 0
3, 464080, Note_on_c, 1, 56, 90
3, 464256, Note_on_c, 1, 48, 90
3, 464268, Note_off_c, 1, 56, 0
3, 464444, Note_off_c, 1, 48, 0
3, 464448, Note_on_c, 1, 52, 90
3, 464636, Note_off_c, 1, 52, 0
3, 464640, Note_on_c, 1, 55, 90
3, 464828, Note_off_c, 1, 55, 0
3, 464832, Note_on_c, 1, 60, 90
3, 465020, Note_off_c, 1, 60, 0
3, 465024, Note_on_c, 1, 53, 90
3, 465212, Note_off_c, 1, 53, 0
3, 465216, Note_on_c, 1, 56, 90
3, 465404, Note_off_c, 1, 56, 0
3, 465408, Note_on_c, 1, 60, 90
3, 465408, Note_on_c, 1, 48, 90
3, 465980, Note_off_c, 1, 60, 0
3, 465980, Note_off_c, 1, 48, 0
3, 465984, Note_on_c, 1, 61, 90
3, 466076, Note_off_c, 1, 61, 0
3, 466080, Note_on_c, 1, 60, 90
3, 466172, Note_off_c, 1, 60, 0
3, 466176, Note_on_c, 1, 58, 90
3, 466268, Note_off_c, 1, 58, 0
3, 466272, Note_on_c, 1, 56, 90
3, 466364, Note_off_c, 1, 56, 0
3, 466368, Note_on_c, 1, 55, 90
3, 466460, Note_off_c, 1, 55, 0
3, 466464, Note_on_c, 1, 53, 90
3, 466556, Note_off_c, 1, 53, 0
3, 466560, Note_on_c, 1, 60, 97
3, 466940, Note_off_c, 1, 60, 0
3, 466944, Note_on_c, 1, 48, 90
3, 466944, Note_on_c, 1, 36, 90
3, 467324, Note_off_c, 1, 48, 0
3, 467324, Note_off_c, 1, 36, 0
3, 467712, Note_on_c, 1, 41, 60
3, 467756, Note_off_c, 1, 41, 0
3, 467760, Note_on_c, 1, 48, 60
3, 467804, Note_off_c, 1, 48, 0
3, 467808, Note_on_c, 1, 53, 60
3, 468188, Note_off_c, 1, 53, 0
3, 468864, Note_on_c, 1, 48, 60
3, 468908, Note_off_c, 1, 48, 0
3, 468912, Note_on_c, 1, 55, 60
3, 468956, Note_off_c, 1, 55, 0
3, 468960, Note_on_c, 1, 58, 60
3, 469340, Note_off_c, 1, 58, 0
3, 471168, Note_on_c, 1, 53, 60
3, 471548, Note_off_c, 1, 53, 0
3, 471552, Note_on_c, 1, 41, 60
3, 471932, Note_off_c, 1, 41, 0
3, 472320, Note_on_c, 1, 50, 60
3, 472704, Note_on_c, 1, 58, 60
3, 472704, Note_on_c, 1, 53, 60
3, 473084, Note_off_c, 1, 50, 0
3, 473084, Note_off_c, 1, 58, 0
3, 473084, Note_off_c, 1, 53, 0
3, 473472, Note_on_c, 1, 52, 60
3, 473856, Note_on_c, 1, 55, 60
3, 473856, Note_on_c, 1, 60, 60
3, 474236, Note_off_c, 1, 52, 0
3, 474236, Note_off_c, 1, 55, 0
3, 474236, Note_off_c, 1, 60, 0
3, 474624, Note_on_c, 1, 53, 60
3, 475004, Note_off_c, 1, 53, 0
3, 475008, Note_on_c, 1, 53, 60
3, 475008, Note_on_c, 1, 50, 60
3, 475388, Note_off_c, 1, 53, 0
3, 475388, Note_off_c, 1, 50, 0
3, 475392, Note_on_c, 1, 55, 60
3, 475392, Note_on_c, 1, 46, 60
3, 475772, Note_off_c, 1, 55, 0
3, 475772, Note_off_c, 1, 46, 0
3, 475776, Note_on_c, 1, 52, 60
3, 475776, Note_on_c, 1, 48, 60
3, 476156, Note_off_c, 1, 52, 0
3, 476156, Note_off_c, 1, 48, 0
3, 476956, Note_on_c, 1, 53, 60
3, 477048, Note_off_c, 1, 53, 0
3, 477072, Note_on_c, 1, 57, 60
3, 477164, Note_off_c, 1, 57, 0
3, 477188, Note_on_c, 1, 60, 60
3, 477280, Note_off_c, 1, 60, 0
3, 477340, Note_on_c, 1, 53, 60
3, 477432, Note_off_c, 1, 53, 0
3, 477456, Note_on_c, 1, 57, 60
3, 477548, Note_off_c, 1, 57, 0
3, 477572, Note_on_c, 1, 60, 60
3, 477664, Note_off_c, 1, 60, 0
3, 477724, Note_on_c, 1, 53, 60
3, 477816, Note_off_c, 1, 53, 0
3, 477840, Note_on_c, 1, 57, 60
3, 477932, Note_off_c, 1, 57, 0
3, 477956, Note_on_c, 1, 60, 60
3, 478048, Note_off_c, 1, 60, 0
3, 478108, Note_on_c, 1, 52, 60
3, 478200, Note_off_c, 1, 52, 0
3, 478224, Note_on_c, 1, 55, 60
3, 478316, Note_off_c, 1, 55, 0
3, 478340, Note_on_c, 1, 60, 60
3, 478432, Note_off_c, 1, 60, 0
3, 478492, Note_on_c, 1, 52, 60
3, 478584, Note_off_c, 1, 52, 0
3, 478608, Note_on_c, 1, 55, 60
3, 478700, Note_off_c, 1, 55, 0
3, 478724, Note_on_c, 1, 60, 60
3, 478816, Note_off_c, 1, 60, 0
3, 478876, Note_on_c, 1, 52, 60
3, 478968, Note_off_c, 1, 52, 0
3, 478992, Note_on_c, 1, 58, 60
3, 479084, Note_off_c, 1, 58, 0
3, 479108, Note_on_c, 1, 60, 60
3, 479200, Note_off_c, 1, 60, 0
3, 479232, Note_on_c, 1, 57, 60
3, 479232, Note_on_c, 1, 53, 60
3, 479612, Note_off_c, 1, 57, 0
3, 479612, Note_off_c, 1, 53, 0
3, 479616, Note_on_c, 1, 57, 60
3, 479996, Note_off_c, 1, 57, 0
3, 480000, Note_on_c, 1, 60, 60
3, 480380, Note_off_c, 1, 60, 0
3, 480384, Note_on_c, 1, 65, 60
3, 480764, Note_off_c, 1, 65, 0
3, 480768, Note_on_c, 1, 60, 60
3, 481148, Note_off_c, 1, 60, 0
3, 481152, Note_on_c, 1, 53, 60
3, 481532, Note_off_c, 1, 53, 0
3, 487296, Note_on_c, 1, 53, 60
3, 487676, Note_off_c, 1, 53, 0
3, 487680, Note_on_c, 1, 56, 60
3, 488060, Note_off_c, 1, 56, 0
3, 488064, Note_on_c, 1, 53, 60
3, 488444, Note_off_c, 1, 53, 0
3, 488448, Note_on_c, 1, 55, 60
3, 488828, Note_off_c, 1, 55, 0
3, 488832, Note_on_c, 1, 52, 60
3, 489212, Note_off_c, 1, 52, 0
3, 489216, Note_on_c, 1, 48, 60
3, 489596, Note_off_c, 1, 48, 0
3, 489600, Note_on_c, 1, 53, 90
3, 489600, Note_on_c, 1, 41, 90
3, 489980, Note_off_c, 1, 53, 0
3, 489980, Note_off_c, 1, 41, 0
3, 489984, Note_on_c, 1, 56, 60
3, 490364, Note_off_c, 1, 56, 0
3, 490368, Note_on_c, 1, 60, 60
3, 490748, Note_off_c, 1, 60, 0
3, 490752, Note_on_c, 1, 58, 90
3, 490752, Note_on_c, 1, 46, 90
3, 491132, Note_off_c, 1, 58, 0
3, 491132, Note_off_c, 1, 46, 0
3, 491136, Note_on_c, 1, 61, 60
3, 491516, Note_off_c, 1, 61, 0
3, 491520, Note_on_c, 1, 65, 60
3, 491900, Note_off_c, 1, 65, 0
3, 491904, Note_on_c, 1, 51, 90
3, 491904, Note_on_c, 1, 39, 90
3, 492284, Note_off_c, 1, 51, 0
3, 492284, Note_off_c, 1, 39, 0
3, 492288, Note_on_c, 1, 55, 60
3, 492668, Note_off_c, 1, 55, 0
3, 492672, Note_on_c, 1, 58, 60
3, 493052, Note_off_c, 1, 58, 0
3, 493056, Note_on_c, 1, 56, 90
3, 493056, Note_on_c, 1, 44, 90
3, 493436, Note_off_c, 1, 56, 0
3, 493436, Note_off_c, 1, 44, 0
3, 493440, Note_on_c, 1, 60, 60
3, 493820, Note_off_c, 1, 60, 0
3, 493824, Note_on_c, 1, 63, 60
3, 494204, Note_off_c, 1, 63, 0
3, 494208, Note_on_c, 1, 49, 90
3, 494208, Note_on_c, 1, 37, 90
3, 494588, Note_off_c, 1, 49, 0
3, 494588, Note_off_c, 1, 37, 0
3, 494592, Note_on_c, 1, 61, 60
3, 494972, Note_off_c, 1, 61, 0
3, 494976, Note_on_c, 1, 55, 90
3, 494976, Note_on_c, 1, 43, 90
3, 495356, Note_off_c, 1, 55, 0
3, 495356, Note_off_c, 1, 43, 0
3, 495360, Note_on_c, 1, 67, 60
3, 495740, Note_off_c, 1, 67, 0
3, 495744, Note_on_c, 1, 48, 90
3, 495744, Note_on_c, 1, 36, 90
3, 496124, Note_off_c, 1, 48, 0
3, 496124, Note_off_c, 1, 36, 0
3, 496128, Note_on_c, 1, 60, 60
3, 496508, Note_off_c, 1, 60, 0
3, 496512, Note_on_c, 1, 61, 60
3, 496892, Note_off_c, 1, 61, 0
3, 496896, Note_on_c, 1, 60, 60
3, 497276, Note_off_c, 1, 60, 0
3, 497280, Note_on_c, 1, 59, 60
3, 497660, Note_off_c, 1, 59, 0
3, 497664, Note_on_c, 1, 60, 60
3, 498044, Note_off_c, 1, 60, 0
3, 498624, Note_on_c, 1, 59, 60
3, 498812, Note_off_c, 1, 59, 0
3, 498816, Note_on_c, 1, 60, 60
3, 499196, Note_off_c, 1, 60, 0
3, 499776, Note_on_c, 1, 59, 60
3, 499964, Note_off_c, 1, 59, 0
3, 499968, Note_on_c, 1, 60, 60
3, 500156, Note_off_c, 1, 60, 0
3, 500160, Note_on_c, 1, 59, 60
3, 500348, Note_off_c, 1, 59, 0
3, 500352, Note_on_c, 1, 60, 60
3, 500540, Note_off_c, 1, 60, 0
3, 500544, Note_on_c, 1, 59, 60
3, 500732, Note_off_c, 1, 59, 0
3, 500736, Note_on_c, 1, 60, 60
3, 500924, Note_off_c, 1, 60, 0
3, 500928, Note_on_c, 1, 59, 60
3, 501116, Note_off_c, 1, 59, 0
3, 501120, Note_on_c, 1, 60, 60
3, 501500, Note_off_c, 1, 60, 0
3, 502272, Note_on_c, 1, 58, 82
3, 502652, Note_off_c, 1, 58, 0
3, 502656, Note_on_c, 1, 58, 60
3, 503036, Note_off_c, 1, 58, 0
3, 503040, Note_on_c, 1, 58, 60
3, 503420, Note_off_c, 1, 58, 0
3, 503424, Note_on_c, 1, 58, 60
3, 504188, Note_off_c, 1, 58, 0
3, 504192, Note_on_c, 1, 53, 60
3, 504572, Note_off_c, 1, 53, 0
3, 504576, Note_on_c, 1, 48, 60
3, 504956, Note_off_c, 1, 48, 0
3, 504960, Note_on_c, 1, 48, 60
3, 505340, Note_off_c, 1, 48, 0
3, 505344, Note_on_c, 1, 48, 60
3, 505724, Note_off_c, 1, 48, 0
3, 505728, Note_on_c, 1, 48, 60
3, 506492, Note_off_c, 1, 48, 0
3, 506496, Note_on_c, 1, 50, 60
3, 506876, Note_off_c, 1, 50, 0
3, 506880, Note_on_c, 1, 46, 60
3, 507260, Note_off_c, 1, 46, 0
3, 507264, Note_on_c, 1, 48, 60
3, 507644, Note_off_c, 1, 48, 0
3, 507648, Note_on_c, 1, 48, 60
3, 508028, Note_off_c, 1, 48, 0
3, 508032, Note_on_c, 1, 53, 60
3, 508412, Note_off_c, 1, 53, 0
3, 513792, Note_on_c, 1, 58, 60
3, 514172, Note_off_c, 1, 58, 0
3, 514176, Note_on_c, 1, 60, 60
3, 514556, Note_off_c, 1, 60, 0
3, 514560, Note_on_c, 1, 58, 60
3, 514940, Note_off_c, 1, 58, 0
3, 514944, Note_on_c, 1, 57, 90
3, 514944, Note_on_c, 1, 45, 90
3, 515132, Note_off_c, 1, 57, 0
3, 515132, Note_off_c, 1, 45, 0
3, 515520, Note_on_c, 1, 61, 60
3, 515708, Note_off_c, 1, 61, 0
3, 515904, Note_on_c, 1, 62, 60
3, 516092, Note_off_c, 1, 62, 0
3, 516096, Note_on_c, 1, 58, 60
3, 516284, Note_off_c, 1, 58, 0
3, 516480, Note_on_c, 1, 60, 60
3, 516668, Note_off_c, 1, 60, 0
3, 516864, Note_on_c, 1, 58, 60
3, 517052, Note_off_c, 1, 58, 0
3, 517248, Note_on_c, 1, 57, 90
3, 517248, Note_on_c, 1, 45, 90
3, 517436, Note_off_c, 1, 57, 0
3, 517436, Note_off_c, 1, 45, 0
3, 517632, Note_on_c, 1, 61, 90
3, 517632, Note_on_c, 1, 49, 90
3, 517820, Note_off_c, 1, 61, 0
3, 517820, Note_off_c, 1, 49, 0
3, 518016, Note_on_c, 1, 62, 90
3, 518016, Note_on_c, 1, 50, 90
3, 518204, Note_off_c, 1, 62, 0
3, 518204, Note_off_c, 1, 50, 0
3, 518400, Note_on_c, 1, 58, 90
3, 518400, Note_on_c, 1, 46, 90
3, 518588, Note_off_c, 1, 58, 0
3, 518588, Note_off_c, 1, 46, 0
3, 518784, Note_on_c, 1, 60, 90
3, 518784, Note_on_c, 1, 48, 90
3, 518972, Note_off_c, 1, 60, 0
3, 518972, Note_off_c, 1, 48, 0
3, 519168, Note_on_c, 1, 48, 90
3, 519184, Note_on_c, 1, 36, 90
3, 519356, Note_off_c, 1, 48, 0
3, 519372, Note_off_c, 1, 36, 0
3, 519552, Note_on_c, 1, 41, 90
3, 519644, Note_off_c, 1, 41, 0
3, 519648, Note_on_c, 1, 45, 90
3, 519740, Note_off_c, 1, 45, 0
3, 519744, Note_on_c, 1, 48, 90
3, 519836, Note_off_c, 1, 48, 0
3, 519840, Note_on_c, 1, 53, 90
3, 519932, Note_off_c, 1, 53, 0
3, 519936, Note_on_c, 1, 41, 90
3, 520028, Note_off_c, 1, 41, 0
3, 520032, Note_on_c, 1, 45, 90
3, 520124, Note_off_c, 1, 45, 0
3, 520128, Note_on_c, 1, 48, 90
3, 520220, Note_off_c, 1, 48, 0
3, 520224, Note_on_c, 1, 53, 90
3, 520316, Note_off_c, 1, 53, 0
3, 520320, Note_on_c, 1, 41, 90
3, 520412, Note_off_c, 1, 41, 0
3, 520416, Note_on_c, 1, 45, 90
3, 520508, Note_off_c, 1, 45, 0
3, 520512, Note_on_c, 1, 48, 90
3, 520604, Note_off_c, 1, 48, 0
3, 520608, Note_on_c, 1, 53, 90
3, 520700, Note_off_c, 1, 53, 0
3, 520704, Note_on_c, 1, 41, 90
3, 520796, Note_off_c, 1, 41, 0
3, 520800, Note_on_c, 1, 45, 90
3, 520892, Note_off_c, 1, 45, 0
3, 520896, Note_on_c, 1, 48, 90
3, 520988, Note_off_c, 1, 48, 0
3, 520992, Note_on_c, 1, 53, 90
3, 521084, Note_off_c, 1, 53, 0
3, 521088, Note_on_c, 1, 41, 90
3, 521180, Note_off_c, 1, 41, 0
3, 521184, Note_on_c, 1, 45, 90
3, 521276, Note_off_c, 1, 45, 0
3, 521280, Note_on_c, 1, 48, 90
3, 521372, Note_off_c, 1, 48, 0
3, 521376, Note_on_c, 1, 53, 90
3, 521468, Note_off_c, 1, 53, 0
3, 521472, Note_on_c, 1, 41, 90
3, 521564, Note_off_c, 1, 41, 0
3, 521568, Note_on_c, 1, 46, 90
3, 521660, Note_off_c, 1, 46, 0
3, 521664, Note_on_c, 1, 48, 90
3, 521756, Note_off_c, 1, 48, 0
3, 521760, Note_on_c, 1, 55, 90
3, 521852, Note_off_c, 1, 55, 0
3, 521856, Note_on_c, 1, 41, 90
3, 521948, Note_off_c, 1, 41, 0
3, 521952, Note_on_c, 1, 45, 90
3, 522044, Note_off_c, 1, 45, 0
3, 522048, Note_on_c, 1, 48, 90
3, 522140, Note_off_c, 1, 48, 0
3, 522144, Note_on_c, 1, 53, 90
3, 522236, Note_off_c, 1, 53, 0
3, 522240, Note_on_c, 1, 41, 90
3, 522332, Note_off_c, 1, 41, 0
3, 522336, Note_on_c, 1, 45, 90
3, 522428, Note_off_c, 1, 45, 0
3, 522432, Note_on_c, 1, 48, 90
3, 522524, Note_off_c, 1, 48, 0
3, 522528, Note_on_c, 1, 53, 90
3, 522620, Note_off_c, 1, 53, 0
3, 522624, Note_on_c, 1, 41, 90
3, 522704, Note_on_c, 1, 45, 90
3, 522716, Note_off_c, 1, 41, 0
3, 522796, Note_off_c, 1, 45, 0
3, 522816, Note_on_c, 1, 48, 90
3, 522908, Note_off_c, 1, 48, 0
3, 522912, Note_on_c, 1, 53, 90
3, 523004, Note_off_c, 1, 53, 0
3, 523008, Note_on_c, 1, 41, 90
3, 523100, Note_off_c, 1, 41, 0
3, 523104, Note_on_c, 1, 45, 90
3, 523196, Note_off_c, 1, 45, 0
3, 523200, Note_on_c, 1, 48, 90
3, 523292, Note_off_c, 1, 48, 0
3, 523296, Note_on_c, 1, 53, 90
3, 523388, Note_off_c, 1, 53, 0
3, 523392, Note_on_c, 1, 41, 90
3, 523484, Note_off_c, 1, 41, 0
3, 523488, Note_on_c, 1, 45, 90
3, 523580, Note_off_c, 1, 45, 0
3, 523584, Note_on_c, 1, 48, 90
3, 523676, Note_off_c, 1, 48, 0
3, 523680, Note_on_c, 1, 53, 90
3, 523772, Note_off_c, 1, 53, 0
3, 523776, Note_on_c, 1, 41, 90
3, 523868, Note_off_c, 1, 41, 0
3, 523872, Note_on_c, 1, 46, 90
3, 523964, Note_off_c, 1, 46, 0
3, 523968, Note_on_c, 1, 48, 90
3, 524060, Note_off_c, 1, 48, 0
3, 524064, Note_on_c, 1, 55, 90
3, 524156, Note_off_c, 1, 55, 0
3, 524160, Note_on_c, 1, 45, 90
3, 524160, Note_on_c, 1, 41, 90
3, 524160, Note_on_c, 1, 48, 90
3, 524160, Note_on_c, 1, 53, 90
3, 524540, Note_off_c, 1, 45, 0
3, 524540, Note_off_c, 1, 41, 0
3, 524540, Note_off_c, 1, 48, 0
3, 524540, Note_off_c, 1, 53, 0
3, 524544, Note_on_c, 1, 57, 97
3, 524544, Note_on_c, 1, 45, 97
3, 525116, Note_off_c, 1, 57, 0
3, 525116, Note_off_c, 1, 45, 0
3, 525120, Note_on_c, 1, 61, 90
3, 525120, Note_on_c, 1, 49, 90
3, 525308, Note_off_c, 1, 61, 0
3, 525308, Note_off_c, 1, 49, 0
3, 525312, Note_on_c, 1, 62, 90
3, 525312, Note_on_c, 1, 50, 90
3, 525692, Note_off_c, 1, 62, 0
3, 525692, Note_off_c, 1, 50, 0
3, 525696, Note_on_c, 1, 65, 97
3, 525696, Note_on_c, 1, 53, 97
3, 526268, Note_off_c, 1, 65, 0
3, 526268, Note_off_c, 1, 53, 0
3, 526272, Note_on_c, 1, 57, 90
3, 526460, Note_off_c, 1, 57, 0
3, 526464, Note_on_c, 1, 60, 90
3, 526508, Note_off_c, 1, 60, 0
3, 526512, Note_on_c, 1, 58, 90
3, 526556, Note_off_c, 1, 58, 0
3, 526560, Note_on_c, 1, 60, 90
3, 526604, Note_off_c, 1, 60, 0
3, 526608, Note_on_c, 1, 58, 90
3, 526652, Note_off_c, 1, 58, 0
3, 526656, Note_on_c, 1, 60, 90
3, 526700, Note_off_c, 1, 60, 0
3, 526704, Note_on_c, 1, 58, 90
3, 526748, Note_off_c, 1, 58, 0
3, 526752, Note_on_c, 1, 57, 90
3, 526796, Note_off_c, 1, 57, 0
3, 526800, Note_on_c, 1, 55, 90
3, 526844, Note_off_c, 1, 55, 0
3, 526848, Note_on_c, 1, 60, 90
3, 527228, Note_off_c, 1, 60, 0
3, 527232, Note_on_c, 1, 60, 90
3, 527232, Note_on_c, 1, 48, 90
3, 527612, Note_off_c, 1, 60, 0
3, 527612, Note_off_c, 1, 48, 0
3, 527616, Note_on_c, 1, 65, 90
3, 527616, Note_on_c, 1, 53, 90
3, 527996, Note_off_c, 1, 65, 0
3, 527996, Note_off_c, 1, 53, 0
3, 528000, Note_on_c, 1, 53, 90
3, 528000, Note_on_c, 1, 41, 90
3, 528380, Note_off_c, 1, 53, 0
3, 528380, Note_off_c, 1, 41, 0
3, 528380, End_track
4, 0, Start_track
4, 0, Title_t, "K332 -a -Allegro"
4, 0, Key_signature, -1, "minor"
4, 0, End_track
5, 0, Start_track
5, 0, Title_t, "Midi by:"
5, 0, Key_signature, -1, "minor"
5, 0, End_track
6, 0, Start_track
6, 0, Title_t, "B.Fisher"
6, 0, Key_signature, -1, "minor"
6, 0, End_track
7, 0, Start_track
7, 0, Key_signature, -1, "minor"
7, 0, End_track
8, 0, Start_track
8, 0, Key_signature, -1, "minor"
8, 0, End_track
9, 0, Start_track
9, 0, Key_signature, -1, "minor"
9, 0, End_track
10, 0, Start_track
10, 0, Key_signature, -1, "minor"
10, 0, End_track
11, 0, Start_track
11, 0, Key_signature, -1, "minor"
11, 0, End_track
12, 0, Start_track
12, 0, Key_signature, -1, "minor"
12, 0, End_track
13, 0, Start_track
13, 0, Key_signature, -1, "minor"
13, 0, End_track
14, 0, Start_track
14, 0, Key_signature, -1, "minor"
14, 0, End_track
15, 0, Start_track
15, 0, Key_signature, 0, "major"
15, 0, End_track
16, 0, Start_track
16, 0, Key_signature, 0, "major"
16, 0, End_track
17, 0, Start_track
17, 0, Key_signature, 0, "major"
17, 0, End_track
0, 0, End_of_file
