0, 0, Header, 1, 5, 384
1, 0, Start_track
1, 0, Time_signature, 4, 2, 96, 8
1, 0, Sequencer_specific, 3, 0, 0, 65
1, 0, Sequencer_specific, 5, 0, 0, 119, 14, 0
1, 0, Tempo, 280373
1, 9600, Tempo, 300000
1, 10752, Tempo, 280373
1, 11136, Tempo, 300000
1, 12288, Tempo, 280373
1, 14208, Tempo, 300000
1, 15360, Tempo, 280373
1, 69504, Tempo, 300000
1, 70656, Tempo, 280373
1, 71040, Tempo, 300000
1, 72192, Tempo, 280373
1, 72576, Tempo, 300000
1, 73728, Tempo, 280373
1, 74112, Tempo, 300000
1, 75264, Tempo, 280373
1, 75648, Tempo, 300000
1, 76800, Tempo, 280373
1, 102144, Tempo, 300000
1, 102912, Tempo, 280373
1, 168960, Tempo, 297029
1, 170496, Tempo, 280373
1, 188928, Tempo, 297029
1, 192000, Tempo, 280373
1, 247680, Tempo, 300000
1, 248832, Tempo, 280373
1, 256896, Tempo, 300000
1, 258048, Tempo, 280373
1, 258432, Tempo, 300000
1, 259584, Tempo, 280373
1, 259968, Tempo, 300000
1, 261120, Tempo, 280373
1, 261504, Tempo, 300000
1, 262656, Tempo, 280373
1, 263040, Tempo, 300000
1, 264192, Tempo, 280373
1, 304896, Tempo, 300000
1, 305664, Tempo, 280373
1, 307968, Tempo, 300000
1, 308736, Tempo, 280373
1, 311040, Tempo, 300000
1, 311808, Tempo, 280373
1, 374784, Tempo, 297029
1, 376320, Tempo, 280373
1, 394752, Tempo, 297029
1, 397824, Tempo, 280373
1, 401280, Tempo, 300000
1, 402432, Tempo, 280373
1, 402816, Tempo, 300000
1, 403968, Tempo, 280373
1, 404352, Tempo, 300000
1, 405504, Tempo, 280373
1, 405888, Tempo, 300000
1, 407040, Tempo, 280373
1, 407424, Tempo, 300000
1, 408576, Tempo, 280373
1, 408960, Tempo, 300000
1, 410112, Tempo, 280373
1, 410496, Tempo, 300000
1, 411648, Tempo, 280373
1, 412032, Tempo, 300000
1, 413184, Tempo, 280373
1, 414720, Tempo, 400000
1, 416256, Tempo, 545454
1, 417792, Tempo, 280373
1, 450048, Tempo, 291262
1, 453120, Tempo, 280373
1, 463872, Tempo, 285714
1, 465408, Tempo, 333333
1, 465408, End_track
2, 0, Start_track
2, 0, Title_t, "Mozart Piano Concerto"
2, 0, Control_c, 0, 0, 0
2, 0, Program_c, 0, 0
2, 0, Control_c, 0, 7, 127
2, 0, Control_c, 0, 10, 67
2, 0, Control_c, 0, 91, 66
2, 0, Control_c, 0, 93, 55
2, 0, Key_signature, 2, "major"
2, 0, Control_c, 0, 121, 0
2, 384, Control_c, 0, 10, 63
2, 480, Control_c, 0, 91, 63
2, 576, Control_c, 0, 93, 35
2, 672, Program_c, 0, 0
2, 61440, Note_on_c, 0, 74, 99
2, 61628, Note_off_c, 0, 74, 64
2, 61632, Note_on_c, 0, 78, 99
2, 61820, Note_off_c, 0, 78, 64
2, 61824, Note_on_c, 0, 81, 99
2, 62012, Note_off_c, 0, 81, 64
2, 62016, Note_on_c, 0, 86, 99
2, 62204, Note_off_c, 0, 86, 64
2, 62208, Note_on_c, 0, 74, 99
2, 62396, Note_off_c, 0, 74, 64
2, 62400, Note_on_c, 0, 86, 99
2, 62588, Note_off_c, 0, 86, 64
2, 62592, Note_on_c, 0, 85, 99
2, 62780, Note_off_c, 0, 85, 64
2, 62784, Note_on_c, 0, 83, 99
2, 62972, Note_off_c, 0, 83, 64
2, 62976, Note_on_c, 0, 81, 99
2, 63164, Note_off_c, 0, 81, 64
2, 63168, Note_on_c, 0, 83, 99
2, 63356, Note_off_c, 0, 83, 64
2, 63360, Note_on_c, 0, 81, 99
2, 63548, Note_off_c, 0, 81, 64
2, 63552, Note_on_c, 0, 83, 99
2, 63740, Note_off_c, 0, 83, 64
2, 63744, Note_on_c, 0, 81, 99
2, 63932, Note_off_c, 0, 81, 64
2, 63936, Note_on_c, 0, 79, 99
2, 64124, Note_off_c, 0, 79, 64
2, 64128, Note_on_c, 0, 78, 99
2, 64316, Note_off_c, 0, 78, 64
2, 64320, Note_on_c, 0, 76, 99
2, 64508, Note_off_c, 0, 76, 64
2, 64512, Note_on_c, 0, 78, 99
2, 64892, Note_off_c, 0, 78, 64
2, 64896, Note_on_c, 0, 74, 99
2, 65276, Note_off_c, 0, 74, 64
2, 65472, Note_on_c, 0, 78, 99
2, 65660, Note_off_c, 0, 78, 64
2, 65664, Note_on_c, 0, 76, 99
2, 65852, Note_off_c, 0, 76, 64
2, 65856, Note_on_c, 0, 74, 99
2, 66044, Note_off_c, 0, 74, 64
2, 66048, Note_on_c, 0, 76, 99
2, 66428, Note_off_c, 0, 76, 64
2, 66432, Note_on_c, 0, 69, 99
2, 66812, Note_off_c, 0, 69, 64
2, 66816, Note_on_c, 0, 76, 99
2, 67196, Note_off_c, 0, 76, 64
2, 67200, Note_on_c, 0, 73, 99
2, 67580, Note_off_c, 0, 73, 64
2, 67584, Note_on_c, 0, 74, 99
2, 67772, Note_off_c, 0, 74, 64
2, 67776, Note_on_c, 0, 69, 99
2, 67964, Note_off_c, 0, 69, 64
2, 67968, Note_on_c, 0, 66, 99
2, 68156, Note_off_c, 0, 66, 64
2, 68160, Note_on_c, 0, 69, 99
2, 68348, Note_off_c, 0, 69, 64
2, 68352, Note_on_c, 0, 62, 99
2, 68540, Note_off_c, 0, 62, 64
2, 68544, Note_on_c, 0, 74, 99
2, 68732, Note_off_c, 0, 74, 64
2, 68736, Note_on_c, 0, 76, 99
2, 68924, Note_off_c, 0, 76, 64
2, 68928, Note_on_c, 0, 78, 99
2, 69116, Note_off_c, 0, 78, 64
2, 69120, Note_on_c, 0, 76, 99
2, 69308, Note_off_c, 0, 76, 64
2, 69312, Note_on_c, 0, 69, 99
2, 69500, Note_off_c, 0, 69, 64
2, 69504, Note_on_c, 0, 73, 99
2, 69692, Note_off_c, 0, 73, 64
2, 69696, Note_on_c, 0, 76, 99
2, 69884, Note_off_c, 0, 76, 64
2, 69888, Note_on_c, 0, 79, 99
2, 69948, Note_off_c, 0, 79, 64
2, 69952, Note_on_c, 0, 81, 99
2, 70012, Note_off_c, 0, 81, 64
2, 70016, Note_on_c, 0, 79, 99
2, 70076, Note_off_c, 0, 79, 64
2, 70080, Note_on_c, 0, 81, 99
2, 70140, Note_off_c, 0, 81, 64
2, 70144, Note_on_c, 0, 79, 99
2, 70204, Note_off_c, 0, 79, 64
2, 70208, Note_on_c, 0, 81, 99
2, 70268, Note_off_c, 0, 81, 64
2, 70272, Note_on_c, 0, 79, 99
2, 70332, Note_off_c, 0, 79, 64
2, 70336, Note_on_c, 0, 81, 99
2, 70396, Note_off_c, 0, 81, 64
2, 70400, Note_on_c, 0, 78, 99
2, 70524, Note_off_c, 0, 78, 64
2, 70528, Note_on_c, 0, 79, 99
2, 70652, Note_off_c, 0, 79, 64
2, 70656, Note_on_c, 0, 78, 99
2, 71036, Note_off_c, 0, 78, 64
2, 71040, Note_on_c, 0, 74, 99
2, 71420, Note_off_c, 0, 74, 64
2, 71616, Note_on_c, 0, 78, 99
2, 71804, Note_off_c, 0, 78, 64
2, 71808, Note_on_c, 0, 76, 99
2, 71996, Note_off_c, 0, 76, 64
2, 72000, Note_on_c, 0, 74, 99
2, 72188, Note_off_c, 0, 74, 64
2, 72192, Note_on_c, 0, 73, 99
2, 72572, Note_off_c, 0, 73, 64
2, 72576, Note_on_c, 0, 69, 99
2, 72956, Note_off_c, 0, 69, 64
2, 72960, Note_on_c, 0, 76, 99
2, 73340, Note_off_c, 0, 76, 64
2, 73344, Note_on_c, 0, 73, 99
2, 73724, Note_off_c, 0, 73, 64
2, 73728, Note_on_c, 0, 74, 99
2, 73916, Note_off_c, 0, 74, 64
2, 73920, Note_on_c, 0, 69, 99
2, 74108, Note_off_c, 0, 69, 64
2, 74112, Note_on_c, 0, 66, 99
2, 74300, Note_off_c, 0, 66, 64
2, 74304, Note_on_c, 0, 69, 99
2, 74492, Note_off_c, 0, 69, 64
2, 74496, Note_on_c, 0, 62, 99
2, 74684, Note_off_c, 0, 62, 64
2, 74688, Note_on_c, 0, 74, 99
2, 74876, Note_off_c, 0, 74, 64
2, 74880, Note_on_c, 0, 76, 99
2, 75068, Note_off_c, 0, 76, 64
2, 75072, Note_on_c, 0, 78, 99
2, 75260, Note_off_c, 0, 78, 64
2, 75264, Note_on_c, 0, 76, 99
2, 75452, Note_off_c, 0, 76, 64
2, 75456, Note_on_c, 0, 69, 99
2, 75644, Note_off_c, 0, 69, 64
2, 75648, Note_on_c, 0, 73, 99
2, 75836, Note_off_c, 0, 73, 64
2, 75840, Note_on_c, 0, 76, 99
2, 76028, Note_off_c, 0, 76, 64
2, 76032, Note_on_c, 0, 79, 99
2, 76092, Note_off_c, 0, 79, 64
2, 76096, Note_on_c, 0, 81, 99
2, 76156, Note_off_c, 0, 81, 64
2, 76160, Note_on_c, 0, 79, 99
2, 76220, Note_off_c, 0, 79, 64
2, 76224, Note_on_c, 0, 81, 99
2, 76284, Note_off_c, 0, 81, 64
2, 76288, Note_on_c, 0, 79, 99
2, 76348, Note_off_c, 0, 79, 64
2, 76352, Note_on_c, 0, 81, 99
2, 76412, Note_off_c, 0, 81, 64
2, 76416, Note_on_c, 0, 79, 99
2, 76476, Note_off_c, 0, 79, 64
2, 76480, Note_on_c, 0, 81, 99
2, 76540, Note_off_c, 0, 81, 64
2, 76544, Note_on_c, 0, 78, 99
2, 76668, Note_off_c, 0, 78, 64
2, 76672, Note_on_c, 0, 79, 99
2, 76796, Note_off_c, 0, 79, 64
2, 76800, Note_on_c, 0, 78, 99
2, 76988, Note_off_c, 0, 78, 64
2, 76992, Note_on_c, 0, 81, 99
2, 77180, Note_off_c, 0, 81, 64
2, 77184, Note_on_c, 0, 79, 99
2, 77372, Note_off_c, 0, 79, 64
2, 77376, Note_on_c, 0, 78, 99
2, 77564, Note_off_c, 0, 78, 64
2, 77568, Note_on_c, 0, 76, 99
2, 77756, Note_off_c, 0, 76, 64
2, 77760, Note_on_c, 0, 79, 99
2, 77948, Note_off_c, 0, 79, 64
2, 77952, Note_on_c, 0, 83, 99
2, 78140, Note_off_c, 0, 83, 64
2, 78144, Note_on_c, 0, 79, 99
2, 78332, Note_off_c, 0, 79, 64
2, 78336, Note_on_c, 0, 78, 99
2, 78524, Note_off_c, 0, 78, 64
2, 78528, Note_on_c, 0, 81, 99
2, 78716, Note_off_c, 0, 81, 64
2, 78720, Note_on_c, 0, 74, 99
2, 78908, Note_off_c, 0, 74, 64
2, 78912, Note_on_c, 0, 78, 99
2, 79100, Note_off_c, 0, 78, 64
2, 79104, Note_on_c, 0, 76, 99
2, 79292, Note_off_c, 0, 76, 64
2, 79296, Note_on_c, 0, 79, 99
2, 79484, Note_off_c, 0, 79, 64
2, 79488, Note_on_c, 0, 73, 99
2, 79676, Note_off_c, 0, 73, 64
2, 79680, Note_on_c, 0, 76, 99
2, 79868, Note_off_c, 0, 76, 64
2, 79872, Note_on_c, 0, 74, 99
2, 80252, Note_off_c, 0, 74, 64
2, 82944, Note_on_c, 0, 62, 99
2, 83132, Note_off_c, 0, 62, 64
2, 83136, Note_on_c, 0, 57, 99
2, 83324, Note_off_c, 0, 57, 64
2, 83328, Note_on_c, 0, 66, 99
2, 83516, Note_off_c, 0, 66, 64
2, 83520, Note_on_c, 0, 62, 99
2, 83708, Note_off_c, 0, 62, 64
2, 83712, Note_on_c, 0, 69, 99
2, 83900, Note_off_c, 0, 69, 64
2, 83904, Note_on_c, 0, 66, 99
2, 84092, Note_off_c, 0, 66, 64
2, 84096, Note_on_c, 0, 74, 99
2, 84284, Note_off_c, 0, 74, 64
2, 84288, Note_on_c, 0, 69, 99
2, 84476, Note_off_c, 0, 69, 64
2, 84480, Note_on_c, 0, 78, 99
2, 84668, Note_off_c, 0, 78, 64
2, 84672, Note_on_c, 0, 74, 99
2, 84860, Note_off_c, 0, 74, 64
2, 84864, Note_on_c, 0, 81, 99
2, 85052, Note_off_c, 0, 81, 64
2, 85056, Note_on_c, 0, 78, 99
2, 85244, Note_off_c, 0, 78, 64
2, 85248, Note_on_c, 0, 86, 99
2, 85436, Note_off_c, 0, 86, 64
2, 85440, Note_on_c, 0, 81, 99
2, 85628, Note_off_c, 0, 81, 64
2, 85632, Note_on_c, 0, 78, 99
2, 85820, Note_off_c, 0, 78, 64
2, 85824, Note_on_c, 0, 74, 99
2, 86012, Note_off_c, 0, 74, 64
2, 86016, Note_on_c, 0, 76, 99
2, 86016, Note_on_c, 0, 73, 99
2, 86780, Note_off_c, 0, 76, 64
2, 86780, Note_off_c, 0, 73, 64
2, 89856, Note_on_c, 0, 64, 99
2, 90044, Note_off_c, 0, 64, 64
2, 90048, Note_on_c, 0, 61, 99
2, 90236, Note_off_c, 0, 61, 64
2, 90240, Note_on_c, 0, 69, 99
2, 90428, Note_off_c, 0, 69, 64
2, 90432, Note_on_c, 0, 64, 99
2, 90620, Note_off_c, 0, 64, 64
2, 90624, Note_on_c, 0, 73, 99
2, 90812, Note_off_c, 0, 73, 64
2, 90816, Note_on_c, 0, 69, 99
2, 91004, Note_off_c, 0, 69, 64
2, 91008, Note_on_c, 0, 76, 99
2, 91196, Note_off_c, 0, 76, 64
2, 91200, Note_on_c, 0, 73, 99
2, 91388, Note_off_c, 0, 73, 64
2, 91392, Note_on_c, 0, 81, 99
2, 91580, Note_off_c, 0, 81, 64
2, 91584, Note_on_c, 0, 76, 99
2, 91772, Note_off_c, 0, 76, 64
2, 91776, Note_on_c, 0, 73, 99
2, 91964, Note_off_c, 0, 73, 64
2, 91968, Note_on_c, 0, 69, 99
2, 92156, Note_off_c, 0, 69, 64
2, 92160, Note_on_c, 0, 74, 99
2, 92160, Note_on_c, 0, 71, 99
2, 92160, Note_on_c, 0, 68, 99
2, 92924, Note_off_c, 0, 74, 64
2, 92924, Note_off_c, 0, 71, 64
2, 92924, Note_off_c, 0, 68, 64
2, 95232, Note_on_c, 0, 62, 99
2, 95420, Note_off_c, 0, 62, 64
2, 95424, Note_on_c, 0, 59, 99
2, 95612, Note_off_c, 0, 59, 64
2, 95616, Note_on_c, 0, 68, 99
2, 95804, Note_off_c, 0, 68, 64
2, 95808, Note_on_c, 0, 64, 99
2, 95996, Note_off_c, 0, 64, 64
2, 96000, Note_on_c, 0, 71, 99
2, 96188, Note_off_c, 0, 71, 64
2, 96192, Note_on_c, 0, 68, 99
2, 96380, Note_off_c, 0, 68, 64
2, 96384, Note_on_c, 0, 76, 99
2, 96572, Note_off_c, 0, 76, 64
2, 96576, Note_on_c, 0, 71, 99
2, 96764, Note_off_c, 0, 71, 64
2, 96768, Note_on_c, 0, 80, 99
2, 96956, Note_off_c, 0, 80, 64
2, 96960, Note_on_c, 0, 76, 99
2, 97148, Note_off_c, 0, 76, 64
2, 97152, Note_on_c, 0, 83, 99
2, 97340, Note_off_c, 0, 83, 64
2, 97344, Note_on_c, 0, 80, 99
2, 97532, Note_off_c, 0, 80, 64
2, 97536, Note_on_c, 0, 86, 99
2, 97724, Note_off_c, 0, 86, 64
2, 97728, Note_on_c, 0, 83, 99
2, 97916, Note_off_c, 0, 83, 64
2, 97920, Note_on_c, 0, 80, 99
2, 98108, Note_off_c, 0, 80, 64
2, 98112, Note_on_c, 0, 74, 99
2, 98300, Note_off_c, 0, 74, 64
2, 98304, Note_on_c, 0, 73, 99
2, 98304, Note_on_c, 0, 57, 99
2, 98492, Note_off_c, 0, 57, 64
2, 98496, Note_on_c, 0, 64, 99
2, 98684, Note_off_c, 0, 73, 64
2, 98684, Note_off_c, 0, 64, 64
2, 98688, Note_on_c, 0, 61, 90
2, 98876, Note_off_c, 0, 61, 64
2, 98880, Note_on_c, 0, 64, 90
2, 99068, Note_off_c, 0, 64, 64
2, 99072, Note_on_c, 0, 57, 70
2, 99260, Note_off_c, 0, 57, 64
2, 99264, Note_on_c, 0, 64, 70
2, 99452, Note_off_c, 0, 64, 64
2, 99456, Note_on_c, 0, 76, 70
2, 99456, Note_on_c, 0, 61, 70
2, 99644, Note_off_c, 0, 61, 64
2, 99648, Note_on_c, 0, 64, 70
2, 99836, Note_off_c, 0, 76, 64
2, 99836, Note_off_c, 0, 64, 64
2, 99840, Note_on_c, 0, 78, 70
2, 99840, Note_on_c, 0, 57, 70
2, 100028, Note_off_c, 0, 78, 64
2, 100028, Note_off_c, 0, 57, 64
2, 100032, Note_on_c, 0, 74, 70
2, 100032, Note_on_c, 0, 66, 70
2, 100220, Note_off_c, 0, 74, 64
2, 100220, Note_off_c, 0, 66, 64
2, 100224, Note_on_c, 0, 81, 70
2, 100224, Note_on_c, 0, 62, 70
2, 100412, Note_off_c, 0, 81, 64
2, 100412, Note_off_c, 0, 62, 64
2, 100416, Note_on_c, 0, 78, 70
2, 100416, Note_on_c, 0, 66, 70
2, 100604, Note_off_c, 0, 78, 64
2, 100604, Note_off_c, 0, 66, 64
2, 100608, Note_on_c, 0, 86, 70
2, 100608, Note_on_c, 0, 57, 70
2, 100796, Note_off_c, 0, 57, 64
2, 100800, Note_on_c, 0, 66, 70
2, 100988, Note_off_c, 0, 86, 64
2, 100988, Note_off_c, 0, 66, 64
2, 100992, Note_on_c, 0, 78, 70
2, 100992, Note_on_c, 0, 62, 70
2, 101180, Note_off_c, 0, 62, 64
2, 101184, Note_on_c, 0, 66, 70
2, 101372, Note_off_c, 0, 78, 64
2, 101372, Note_off_c, 0, 66, 64
2, 101376, Note_on_c, 0, 76, 70
2, 101376, Note_on_c, 0, 57, 70
2, 101564, Note_off_c, 0, 76, 64
2, 101564, Note_off_c, 0, 57, 64
2, 101568, Note_on_c, 0, 73, 70
2, 101568, Note_on_c, 0, 64, 70
2, 101756, Note_off_c, 0, 73, 64
2, 101756, Note_off_c, 0, 64, 64
2, 101760, Note_on_c, 0, 69, 70
2, 101760, Note_on_c, 0, 61, 70
2, 101948, Note_off_c, 0, 61, 64
2, 101952, Note_on_c, 0, 64, 70
2, 102140, Note_off_c, 0, 69, 64
2, 102140, Note_off_c, 0, 64, 64
2, 102144, Note_on_c, 0, 57, 70
2, 102332, Note_off_c, 0, 57, 64
2, 102336, Note_on_c, 0, 64, 70
2, 102524, Note_off_c, 0, 64, 64
2, 102528, Note_on_c, 0, 61, 70
2, 102528, Note_on_c, 0, 76, 70
2, 102588, Note_off_c, 0, 76, 64
2, 102592, Note_on_c, 0, 78, 70
2, 102652, Note_off_c, 0, 78, 64
2, 102656, Note_on_c, 0, 76, 70
2, 102716, Note_off_c, 0, 61, 64
2, 102716, Note_off_c, 0, 76, 64
2, 102720, Note_on_c, 0, 64, 70
2, 102720, Note_on_c, 0, 78, 70
2, 102780, Note_off_c, 0, 78, 64
2, 102784, Note_on_c, 0, 74, 70
2, 102844, Note_off_c, 0, 74, 64
2, 102848, Note_on_c, 0, 76, 70
2, 102908, Note_off_c, 0, 64, 64
2, 102908, Note_off_c, 0, 76, 64
2, 102912, Note_on_c, 0, 78, 70
2, 102912, Note_on_c, 0, 57, 70
2, 103100, Note_off_c, 0, 78, 64
2, 103100, Note_off_c, 0, 57, 64
2, 103104, Note_on_c, 0, 74, 70
2, 103104, Note_on_c, 0, 66, 70
2, 103292, Note_off_c, 0, 74, 64
2, 103292, Note_off_c, 0, 66, 64
2, 103296, Note_on_c, 0, 81, 70
2, 103296, Note_on_c, 0, 62, 70
2, 103484, Note_off_c, 0, 81, 64
2, 103484, Note_off_c, 0, 62, 64
2, 103488, Note_on_c, 0, 78, 70
2, 103488, Note_on_c, 0, 66, 70
2, 103676, Note_off_c, 0, 78, 64
2, 103676, Note_off_c, 0, 66, 64
2, 103680, Note_on_c, 0, 86, 70
2, 103680, Note_on_c, 0, 57, 70
2, 103868, Note_off_c, 0, 86, 64
2, 103868, Note_off_c, 0, 57, 64
2, 103872, Note_on_c, 0, 81, 70
2, 103872, Note_on_c, 0, 66, 70
2, 104060, Note_off_c, 0, 81, 64
2, 104060, Note_off_c, 0, 66, 64
2, 104064, Note_on_c, 0, 78, 70
2, 104064, Note_on_c, 0, 62, 70
2, 104252, Note_off_c, 0, 78, 64
2, 104252, Note_off_c, 0, 62, 64
2, 104256, Note_on_c, 0, 74, 70
2, 104256, Note_on_c, 0, 66, 70
2, 104444, Note_off_c, 0, 74, 64
2, 104444, Note_off_c, 0, 66, 64
2, 104448, Note_on_c, 0, 76, 70
2, 104448, Note_on_c, 0, 54, 70
2, 104636, Note_off_c, 0, 76, 64
2, 104636, Note_off_c, 0, 54, 64
2, 104640, Note_on_c, 0, 73, 70
2, 104640, Note_on_c, 0, 64, 70
2, 104828, Note_off_c, 0, 73, 64
2, 104828, Note_off_c, 0, 64, 64
2, 104832, Note_on_c, 0, 69, 70
2, 104832, Note_on_c, 0, 61, 70
2, 105020, Note_off_c, 0, 61, 64
2, 105024, Note_on_c, 0, 64, 70
2, 105212, Note_off_c, 0, 69, 64
2, 105212, Note_off_c, 0, 64, 64
2, 105216, Note_on_c, 0, 57, 70
2, 105404, Note_off_c, 0, 57, 64
2, 105408, Note_on_c, 0, 64, 70
2, 105596, Note_off_c, 0, 64, 64
2, 105600, Note_on_c, 0, 61, 70
2, 105600, Note_on_c, 0, 76, 70
2, 105788, Note_off_c, 0, 61, 64
2, 105792, Note_on_c, 0, 64, 70
2, 105980, Note_off_c, 0, 76, 64
2, 105980, Note_off_c, 0, 64, 64
2, 105984, Note_on_c, 0, 74, 70
2, 105984, Note_on_c, 0, 56, 70
2, 106172, Note_off_c, 0, 74, 64
2, 106172, Note_off_c, 0, 56, 64
2, 106176, Note_on_c, 0, 71, 70
2, 106176, Note_on_c, 0, 64, 70
2, 106364, Note_off_c, 0, 71, 64
2, 106364, Note_off_c, 0, 64, 64
2, 106368, Note_on_c, 0, 80, 70
2, 106368, Note_on_c, 0, 59, 70
2, 106556, Note_off_c, 0, 80, 64
2, 106556, Note_off_c, 0, 59, 64
2, 106560, Note_on_c, 0, 76, 70
2, 106560, Note_on_c, 0, 64, 70
2, 106748, Note_off_c, 0, 76, 64
2, 106748, Note_off_c, 0, 64, 64
2, 106752, Note_on_c, 0, 83, 70
2, 106752, Note_on_c, 0, 56, 70
2, 106940, Note_off_c, 0, 83, 64
2, 106940, Note_off_c, 0, 56, 64
2, 106944, Note_on_c, 0, 80, 70
2, 106944, Note_on_c, 0, 64, 70
2, 107132, Note_off_c, 0, 80, 64
2, 107132, Note_off_c, 0, 64, 64
2, 107136, Note_on_c, 0, 76, 70
2, 107136, Note_on_c, 0, 59, 70
2, 107324, Note_off_c, 0, 76, 64
2, 107324, Note_off_c, 0, 59, 64
2, 107328, Note_on_c, 0, 74, 70
2, 107328, Note_on_c, 0, 64, 70
2, 107516, Note_off_c, 0, 74, 64
2, 107516, Note_off_c, 0, 64, 64
2, 107520, Note_on_c, 0, 73, 70
2, 107520, Note_on_c, 0, 57, 70
2, 107708, Note_off_c, 0, 73, 64
2, 107708, Note_off_c, 0, 57, 64
2, 107712, Note_on_c, 0, 69, 70
2, 107712, Note_on_c, 0, 64, 70
2, 107900, Note_off_c, 0, 69, 64
2, 107900, Note_off_c, 0, 64, 64
2, 107904, Note_on_c, 0, 76, 70
2, 107904, Note_on_c, 0, 61, 70
2, 108092, Note_off_c, 0, 76, 64
2, 108092, Note_off_c, 0, 61, 64
2, 108096, Note_on_c, 0, 73, 70
2, 108096, Note_on_c, 0, 64, 70
2, 108284, Note_off_c, 0, 73, 64
2, 108284, Note_off_c, 0, 64, 64
2, 108288, Note_on_c, 0, 81, 70
2, 108288, Note_on_c, 0, 57, 70
2, 108476, Note_off_c, 0, 81, 64
2, 108476, Note_off_c, 0, 57, 64
2, 108480, Note_on_c, 0, 76, 70
2, 108480, Note_on_c, 0, 64, 70
2, 108668, Note_off_c, 0, 76, 64
2, 108668, Note_off_c, 0, 64, 64
2, 108672, Note_on_c, 0, 73, 70
2, 108672, Note_on_c, 0, 61, 70
2, 108860, Note_off_c, 0, 73, 64
2, 108860, Note_off_c, 0, 61, 64
2, 108864, Note_on_c, 0, 69, 70
2, 108864, Note_on_c, 0, 64, 70
2, 109052, Note_off_c, 0, 69, 64
2, 109052, Note_off_c, 0, 64, 64
2, 109056, Note_on_c, 0, 71, 70
2, 109244, Note_off_c, 0, 71, 64
2, 109248, Note_on_c, 0, 66, 70
2, 109436, Note_off_c, 0, 66, 64
2, 109440, Note_on_c, 0, 74, 71
2, 109628, Note_off_c, 0, 74, 64
2, 109632, Note_on_c, 0, 71, 74
2, 109820, Note_off_c, 0, 71, 64
2, 109824, Note_on_c, 0, 78, 78
2, 110012, Note_off_c, 0, 78, 64
2, 110016, Note_on_c, 0, 74, 81
2, 110204, Note_off_c, 0, 74, 64
2, 110208, Note_on_c, 0, 71, 85
2, 110396, Note_off_c, 0, 71, 64
2, 110400, Note_on_c, 0, 69, 88
2, 110588, Note_off_c, 0, 69, 64
2, 110592, Note_on_c, 0, 76, 90
2, 110592, Note_on_c, 0, 71, 90
2, 110592, Note_on_c, 0, 68, 90
2, 111356, Note_off_c, 0, 76, 64
2, 111356, Note_off_c, 0, 71, 64
2, 111356, Note_off_c, 0, 68, 64
2, 124608, Note_on_c, 0, 76, 70
2, 124796, Note_off_c, 0, 76, 64
2, 124800, Note_on_c, 0, 75, 70
2, 124988, Note_off_c, 0, 75, 64
2, 124992, Note_on_c, 0, 76, 70
2, 125180, Note_off_c, 0, 76, 64
2, 125184, Note_on_c, 0, 78, 70
2, 125372, Note_off_c, 0, 78, 64
2, 125376, Note_on_c, 0, 76, 70
2, 125564, Note_off_c, 0, 76, 64
2, 125568, Note_on_c, 0, 75, 70
2, 125756, Note_off_c, 0, 75, 64
2, 125760, Note_on_c, 0, 76, 70
2, 125948, Note_off_c, 0, 76, 64
2, 125952, Note_on_c, 0, 75, 70
2, 126140, Note_off_c, 0, 75, 64
2, 126144, Note_on_c, 0, 76, 70
2, 126332, Note_off_c, 0, 76, 64
2, 126336, Note_on_c, 0, 78, 70
2, 126524, Note_off_c, 0, 78, 64
2, 126528, Note_on_c, 0, 76, 70
2, 126716, Note_off_c, 0, 76, 64
2, 126720, Note_on_c, 0, 74, 70
2, 126908, Note_off_c, 0, 74, 64
2, 126912, Note_on_c, 0, 73, 70
2, 127100, Note_off_c, 0, 73, 64
2, 127104, Note_on_c, 0, 71, 70
2, 127292, Note_off_c, 0, 71, 64
2, 127296, Note_on_c, 0, 69, 70
2, 127484, Note_off_c, 0, 69, 64
2, 127488, Note_on_c, 0, 68, 70
2, 127676, Note_off_c, 0, 68, 64
2, 127680, Note_on_c, 0, 71, 70
2, 127868, Note_off_c, 0, 71, 64
2, 127872, Note_on_c, 0, 69, 70
2, 128060, Note_off_c, 0, 69, 64
2, 128064, Note_on_c, 0, 73, 70
2, 128252, Note_off_c, 0, 73, 64
2, 128256, Note_on_c, 0, 71, 70
2, 128444, Note_off_c, 0, 71, 64
2, 128448, Note_on_c, 0, 74, 70
2, 128636, Note_off_c, 0, 74, 64
2, 128640, Note_on_c, 0, 73, 70
2, 128828, Note_off_c, 0, 73, 64
2, 128832, Note_on_c, 0, 74, 70
2, 129020, Note_off_c, 0, 74, 64
2, 129024, Note_on_c, 0, 74, 70
2, 129212, Note_off_c, 0, 74, 64
2, 129216, Note_on_c, 0, 73, 70
2, 129404, Note_off_c, 0, 73, 64
2, 129408, Note_on_c, 0, 71, 70
2, 129596, Note_off_c, 0, 71, 64
2, 129600, Note_on_c, 0, 73, 70
2, 129788, Note_off_c, 0, 73, 64
2, 129792, Note_on_c, 0, 74, 70
2, 129980, Note_off_c, 0, 74, 64
2, 129984, Note_on_c, 0, 78, 70
2, 130172, Note_off_c, 0, 78, 64
2, 130176, Note_on_c, 0, 76, 70
2, 130364, Note_off_c, 0, 76, 64
2, 130368, Note_on_c, 0, 74, 70
2, 130556, Note_off_c, 0, 74, 64
2, 130560, Note_on_c, 0, 73, 70
2, 130748, Note_off_c, 0, 73, 64
2, 130752, Note_on_c, 0, 69, 70
2, 130940, Note_off_c, 0, 69, 64
2, 130944, Note_on_c, 0, 71, 71
2, 131132, Note_off_c, 0, 71, 64
2, 131136, Note_on_c, 0, 73, 73
2, 131324, Note_off_c, 0, 73, 64
2, 131328, Note_on_c, 0, 74, 76
2, 131516, Note_off_c, 0, 74, 64
2, 131520, Note_on_c, 0, 76, 78
2, 131708, Note_off_c, 0, 76, 64
2, 131712, Note_on_c, 0, 78, 81
2, 131900, Note_off_c, 0, 78, 64
2, 131904, Note_on_c, 0, 80, 84
2, 132092, Note_off_c, 0, 80, 64
2, 132096, Note_on_c, 0, 83, 86
2, 132284, Note_off_c, 0, 83, 64
2, 132288, Note_on_c, 0, 81, 89
2, 132476, Note_off_c, 0, 81, 64
2, 132480, Note_on_c, 0, 80, 90
2, 132668, Note_off_c, 0, 80, 64
2, 132672, Note_on_c, 0, 81, 90
2, 132860, Note_off_c, 0, 81, 64
2, 132864, Note_on_c, 0, 80, 90
2, 133052, Note_off_c, 0, 80, 64
2, 133056, Note_on_c, 0, 78, 90
2, 133244, Note_off_c, 0, 78, 64
2, 133248, Note_on_c, 0, 76, 90
2, 133436, Note_off_c, 0, 76, 64
2, 133440, Note_on_c, 0, 74, 90
2, 133628, Note_off_c, 0, 74, 64
2, 133632, Note_on_c, 0, 73, 90
2, 133820, Note_off_c, 0, 73, 64
2, 133824, Note_on_c, 0, 74, 90
2, 134012, Note_off_c, 0, 74, 64
2, 134016, Note_on_c, 0, 75, 90
2, 134204, Note_off_c, 0, 75, 64
2, 134208, Note_on_c, 0, 76, 90
2, 134396, Note_off_c, 0, 76, 64
2, 134400, Note_on_c, 0, 74, 90
2, 134588, Note_off_c, 0, 74, 64
2, 134592, Note_on_c, 0, 73, 90
2, 134780, Note_off_c, 0, 73, 64
2, 134784, Note_on_c, 0, 71, 90
2, 134972, Note_off_c, 0, 71, 64
2, 134976, Note_on_c, 0, 69, 90
2, 135164, Note_off_c, 0, 69, 64
2, 135168, Note_on_c, 0, 70, 89
2, 135356, Note_off_c, 0, 70, 64
2, 135360, Note_on_c, 0, 71, 87
2, 135548, Note_off_c, 0, 71, 64
2, 135552, Note_on_c, 0, 73, 84
2, 135740, Note_off_c, 0, 73, 64
2, 135744, Note_on_c, 0, 74, 82
2, 135932, Note_off_c, 0, 74, 64
2, 135936, Note_on_c, 0, 73, 79
2, 136124, Note_off_c, 0, 73, 64
2, 136128, Note_on_c, 0, 71, 76
2, 136316, Note_off_c, 0, 71, 64
2, 136320, Note_on_c, 0, 69, 74
2, 136508, Note_off_c, 0, 69, 64
2, 136512, Note_on_c, 0, 68, 71
2, 136700, Note_off_c, 0, 68, 64
2, 136704, Note_on_c, 0, 69, 70
2, 137084, Note_off_c, 0, 69, 64
2, 137088, Note_on_c, 0, 69, 70
2, 137468, Note_off_c, 0, 69, 64
2, 137472, Note_on_c, 0, 69, 70
2, 137852, Note_off_c, 0, 69, 64
2, 137856, Note_on_c, 0, 69, 70
2, 138236, Note_off_c, 0, 69, 64
2, 138240, Note_on_c, 0, 69, 70
2, 138428, Note_off_c, 0, 69, 64
2, 138432, Note_on_c, 0, 68, 70
2, 138620, Note_off_c, 0, 68, 64
2, 138624, Note_on_c, 0, 71, 70
2, 138812, Note_off_c, 0, 71, 64
2, 138816, Note_on_c, 0, 69, 70
2, 139004, Note_off_c, 0, 69, 64
2, 139008, Note_on_c, 0, 68, 70
2, 139772, Note_off_c, 0, 68, 64
2, 140160, Note_on_c, 0, 69, 70
2, 140540, Note_off_c, 0, 69, 64
2, 140544, Note_on_c, 0, 69, 70
2, 140924, Note_off_c, 0, 69, 64
2, 140928, Note_on_c, 0, 73, 70
2, 141116, Note_off_c, 0, 73, 64
2, 141120, Note_on_c, 0, 69, 70
2, 141308, Note_off_c, 0, 69, 64
2, 141312, Note_on_c, 0, 76, 70
2, 142076, Note_off_c, 0, 76, 64
2, 142080, Note_on_c, 0, 74, 70
2, 142460, Note_off_c, 0, 74, 64
2, 143232, Note_on_c, 0, 69, 70
2, 143612, Note_off_c, 0, 69, 64
2, 143616, Note_on_c, 0, 69, 70
2, 143996, Note_off_c, 0, 69, 64
2, 144000, Note_on_c, 0, 69, 70
2, 144380, Note_off_c, 0, 69, 64
2, 144384, Note_on_c, 0, 69, 70
2, 144572, Note_off_c, 0, 69, 64
2, 144576, Note_on_c, 0, 68, 70
2, 144764, Note_off_c, 0, 68, 64
2, 144768, Note_on_c, 0, 71, 70
2, 144956, Note_off_c, 0, 71, 64
2, 144960, Note_on_c, 0, 69, 70
2, 145148, Note_off_c, 0, 69, 64
2, 145152, Note_on_c, 0, 68, 70
2, 145916, Note_off_c, 0, 68, 64
2, 146304, Note_on_c, 0, 69, 70
2, 146684, Note_off_c, 0, 69, 64
2, 146688, Note_on_c, 0, 69, 70
2, 147068, Note_off_c, 0, 69, 64
2, 147072, Note_on_c, 0, 73, 70
2, 147260, Note_off_c, 0, 73, 64
2, 147264, Note_on_c, 0, 69, 70
2, 147452, Note_off_c, 0, 69, 64
2, 147456, Note_on_c, 0, 76, 70
2, 148220, Note_off_c, 0, 76, 64
2, 148224, Note_on_c, 0, 74, 70
2, 148604, Note_off_c, 0, 74, 64
2, 148992, Note_on_c, 0, 73, 70
2, 149180, Note_off_c, 0, 73, 64
2, 149184, Note_on_c, 0, 69, 70
2, 149372, Note_off_c, 0, 69, 64
2, 149376, Note_on_c, 0, 73, 70
2, 149564, Note_off_c, 0, 73, 64
2, 149568, Note_on_c, 0, 76, 70
2, 149756, Note_off_c, 0, 76, 64
2, 149760, Note_on_c, 0, 81, 70
2, 149948, Note_off_c, 0, 81, 64
2, 149952, Note_on_c, 0, 79, 70
2, 150140, Note_off_c, 0, 79, 64
2, 150144, Note_on_c, 0, 78, 70
2, 150332, Note_off_c, 0, 78, 64
2, 150336, Note_on_c, 0, 77, 70
2, 150524, Note_off_c, 0, 77, 64
2, 150528, Note_on_c, 0, 78, 70
2, 150716, Note_off_c, 0, 78, 64
2, 150720, Note_on_c, 0, 66, 70
2, 150908, Note_off_c, 0, 66, 64
2, 150912, Note_on_c, 0, 69, 70
2, 151100, Note_off_c, 0, 69, 64
2, 151104, Note_on_c, 0, 74, 70
2, 151292, Note_off_c, 0, 74, 64
2, 151296, Note_on_c, 0, 78, 70
2, 151484, Note_off_c, 0, 78, 64
2, 151488, Note_on_c, 0, 76, 70
2, 151676, Note_off_c, 0, 76, 64
2, 151680, Note_on_c, 0, 74, 70
2, 151868, Note_off_c, 0, 74, 64
2, 151872, Note_on_c, 0, 73, 70
2, 152060, Note_off_c, 0, 73, 64
2, 152064, Note_on_c, 0, 74, 70
2, 152252, Note_off_c, 0, 74, 64
2, 152256, Note_on_c, 0, 62, 70
2, 152444, Note_off_c, 0, 62, 64
2, 152448, Note_on_c, 0, 66, 70
2, 152636, Note_off_c, 0, 66, 64
2, 152640, Note_on_c, 0, 71, 70
2, 152828, Note_off_c, 0, 71, 64
2, 152832, Note_on_c, 0, 74, 70
2, 153020, Note_off_c, 0, 74, 64
2, 153024, Note_on_c, 0, 73, 70
2, 153212, Note_off_c, 0, 73, 64
2, 153216, Note_on_c, 0, 71, 70
2, 153404, Note_off_c, 0, 71, 64
2, 153408, Note_on_c, 0, 70, 70
2, 153596, Note_off_c, 0, 70, 64
2, 153600, Note_on_c, 0, 71, 70
2, 153788, Note_off_c, 0, 71, 64
2, 153792, Note_on_c, 0, 74, 70
2, 153980, Note_off_c, 0, 74, 64
2, 153984, Note_on_c, 0, 78, 70
2, 154172, Note_off_c, 0, 78, 64
2, 154176, Note_on_c, 0, 74, 70
2, 154364, Note_off_c, 0, 74, 64
2, 154368, Note_on_c, 0, 71, 70
2, 154556, Note_off_c, 0, 71, 64
2, 154560, Note_on_c, 0, 69, 70
2, 154748, Note_off_c, 0, 69, 64
2, 154752, Note_on_c, 0, 71, 70
2, 154940, Note_off_c, 0, 71, 64
2, 154944, Note_on_c, 0, 68, 70
2, 155132, Note_off_c, 0, 68, 64
2, 155136, Note_on_c, 0, 69, 70
2, 155136, Note_on_c, 0, 64, 70
2, 155136, Note_on_c, 0, 61, 70
2, 155900, Note_off_c, 0, 69, 64
2, 155900, Note_off_c, 0, 64, 64
2, 155900, Note_off_c, 0, 61, 64
2, 156288, Note_on_c, 0, 73, 80
2, 156288, Note_on_c, 0, 69, 80
2, 156288, Note_on_c, 0, 64, 80
2, 156668, Note_off_c, 0, 73, 64
2, 156668, Note_off_c, 0, 69, 64
2, 156668, Note_off_c, 0, 64, 64
2, 156672, Note_on_c, 0, 74, 80
2, 156672, Note_on_c, 0, 69, 80
2, 156672, Note_on_c, 0, 66, 80
2, 157436, Note_off_c, 0, 74, 64
2, 157436, Note_off_c, 0, 69, 64
2, 157436, Note_off_c, 0, 66, 64
2, 157824, Note_on_c, 0, 76, 80
2, 157824, Note_on_c, 0, 69, 80
2, 158204, Note_off_c, 0, 76, 64
2, 158204, Note_off_c, 0, 69, 64
2, 158208, Note_on_c, 0, 78, 80
2, 158208, Note_on_c, 0, 74, 80
2, 158208, Note_on_c, 0, 69, 80
2, 158972, Note_off_c, 0, 78, 64
2, 158972, Note_off_c, 0, 74, 64
2, 158972, Note_off_c, 0, 69, 64
2, 158976, Note_on_c, 0, 80, 84
2, 158976, Note_on_c, 0, 74, 84
2, 158976, Note_on_c, 0, 71, 84
2, 159356, Note_off_c, 0, 80, 64
2, 159356, Note_off_c, 0, 74, 64
2, 159356, Note_off_c, 0, 71, 64
2, 159360, Note_on_c, 0, 81, 88
2, 159360, Note_on_c, 0, 76, 88
2, 159360, Note_on_c, 0, 73, 88
2, 159740, Note_off_c, 0, 81, 64
2, 159740, Note_off_c, 0, 76, 64
2, 159740, Note_off_c, 0, 73, 64
2, 159744, Note_on_c, 0, 83, 99
2, 159932, Note_off_c, 0, 83, 64
2, 159936, Note_on_c, 0, 81, 99
2, 160124, Note_off_c, 0, 81, 64
2, 160128, Note_on_c, 0, 80, 99
2, 160316, Note_off_c, 0, 80, 64
2, 160320, Note_on_c, 0, 78, 99
2, 160508, Note_off_c, 0, 78, 64
2, 160512, Note_on_c, 0, 76, 99
2, 160700, Note_off_c, 0, 76, 64
2, 160704, Note_on_c, 0, 74, 99
2, 160892, Note_off_c, 0, 74, 64
2, 160896, Note_on_c, 0, 73, 99
2, 161084, Note_off_c, 0, 73, 64
2, 161088, Note_on_c, 0, 71, 99
2, 161276, Note_off_c, 0, 71, 64
2, 161280, Note_on_c, 0, 69, 99
2, 161468, Note_off_c, 0, 69, 64
2, 161472, Note_on_c, 0, 81, 99
2, 161660, Note_off_c, 0, 81, 64
2, 161664, Note_on_c, 0, 68, 99
2, 161852, Note_off_c, 0, 68, 64
2, 161856, Note_on_c, 0, 80, 99
2, 162044, Note_off_c, 0, 80, 64
2, 162048, Note_on_c, 0, 69, 99
2, 162236, Note_off_c, 0, 69, 64
2, 162240, Note_on_c, 0, 81, 99
2, 162428, Note_off_c, 0, 81, 64
2, 162432, Note_on_c, 0, 68, 99
2, 162620, Note_off_c, 0, 68, 64
2, 162624, Note_on_c, 0, 80, 99
2, 162812, Note_off_c, 0, 80, 64
2, 162816, Note_on_c, 0, 69, 99
2, 163004, Note_off_c, 0, 69, 64
2, 163008, Note_on_c, 0, 81, 99
2, 163196, Note_off_c, 0, 81, 64
2, 163200, Note_on_c, 0, 73, 99
2, 163388, Note_off_c, 0, 73, 64
2, 163392, Note_on_c, 0, 85, 99
2, 163580, Note_off_c, 0, 85, 64
2, 163584, Note_on_c, 0, 69, 99
2, 163772, Note_off_c, 0, 69, 64
2, 163776, Note_on_c, 0, 81, 99
2, 163964, Note_off_c, 0, 81, 64
2, 163968, Note_on_c, 0, 65, 99
2, 164156, Note_off_c, 0, 65, 64
2, 164160, Note_on_c, 0, 77, 99
2, 164348, Note_off_c, 0, 77, 64
2, 164352, Note_on_c, 0, 66, 99
2, 164540, Note_off_c, 0, 66, 64
2, 164544, Note_on_c, 0, 78, 99
2, 164732, Note_off_c, 0, 78, 64
2, 164736, Note_on_c, 0, 65, 99
2, 164924, Note_off_c, 0, 65, 64
2, 164928, Note_on_c, 0, 77, 99
2, 165116, Note_off_c, 0, 77, 64
2, 165120, Note_on_c, 0, 66, 99
2, 165308, Note_off_c, 0, 66, 64
2, 165312, Note_on_c, 0, 78, 99
2, 165500, Note_off_c, 0, 78, 64
2, 165504, Note_on_c, 0, 65, 99
2, 165692, Note_off_c, 0, 65, 64
2, 165696, Note_on_c, 0, 77, 99
2, 165884, Note_off_c, 0, 77, 64
2, 165888, Note_on_c, 0, 66, 99
2, 166076, Note_off_c, 0, 66, 64
2, 166080, Note_on_c, 0, 78, 99
2, 166268, Note_off_c, 0, 78, 64
2, 166272, Note_on_c, 0, 69, 90
2, 166460, Note_off_c, 0, 69, 64
2, 166464, Note_on_c, 0, 81, 90
2, 166652, Note_off_c, 0, 81, 64
2, 166656, Note_on_c, 0, 66, 90
2, 166844, Note_off_c, 0, 66, 64
2, 166848, Note_on_c, 0, 78, 90
2, 167036, Note_off_c, 0, 78, 64
2, 167040, Note_on_c, 0, 62, 90
2, 167228, Note_off_c, 0, 62, 64
2, 167232, Note_on_c, 0, 74, 90
2, 167420, Note_off_c, 0, 74, 64
2, 167424, Note_on_c, 0, 61, 80
2, 167612, Note_off_c, 0, 61, 64
2, 167616, Note_on_c, 0, 64, 80
2, 167804, Note_off_c, 0, 64, 64
2, 167808, Note_on_c, 0, 69, 80
2, 167996, Note_off_c, 0, 69, 64
2, 168000, Note_on_c, 0, 73, 80
2, 168188, Note_off_c, 0, 73, 64
2, 168192, Note_on_c, 0, 76, 80
2, 168380, Note_off_c, 0, 76, 64
2, 168384, Note_on_c, 0, 73, 80
2, 168572, Note_off_c, 0, 73, 64
2, 168576, Note_on_c, 0, 71, 80
2, 168764, Note_off_c, 0, 71, 64
2, 168768, Note_on_c, 0, 69, 80
2, 168956, Note_off_c, 0, 69, 64
2, 168960, Note_on_c, 0, 71, 80
2, 169020, Note_off_c, 0, 71, 64
2, 169024, Note_on_c, 0, 73, 80
2, 169084, Note_off_c, 0, 73, 64
2, 169088, Note_on_c, 0, 71, 80
2, 169148, Note_off_c, 0, 71, 64
2, 169152, Note_on_c, 0, 73, 80
2, 169212, Note_off_c, 0, 73, 64
2, 169216, Note_on_c, 0, 71, 80
2, 169276, Note_off_c, 0, 71, 64
2, 169280, Note_on_c, 0, 73, 80
2, 169340, Note_off_c, 0, 73, 64
2, 169344, Note_on_c, 0, 71, 80
2, 169404, Note_off_c, 0, 71, 64
2, 169408, Note_on_c, 0, 73, 80
2, 169468, Note_off_c, 0, 73, 64
2, 169472, Note_on_c, 0, 71, 80
2, 169532, Note_off_c, 0, 71, 64
2, 169536, Note_on_c, 0, 73, 80
2, 169596, Note_off_c, 0, 73, 64
2, 169600, Note_on_c, 0, 71, 80
2, 169660, Note_off_c, 0, 71, 64
2, 169664, Note_on_c, 0, 73, 80
2, 169724, Note_off_c, 0, 73, 64
2, 169728, Note_on_c, 0, 71, 79
2, 169788, Note_off_c, 0, 71, 64
2, 169792, Note_on_c, 0, 73, 79
2, 169852, Note_off_c, 0, 73, 64
2, 169856, Note_on_c, 0, 71, 78
2, 169916, Note_off_c, 0, 71, 64
2, 169920, Note_on_c, 0, 73, 77
2, 169980, Note_off_c, 0, 73, 64
2, 169984, Note_on_c, 0, 71, 76
2, 170044, Note_off_c, 0, 71, 64
2, 170048, Note_on_c, 0, 73, 75
2, 170108, Note_off_c, 0, 73, 64
2, 170112, Note_on_c, 0, 71, 74
2, 170172, Note_off_c, 0, 71, 64
2, 170176, Note_on_c, 0, 73, 74
2, 170236, Note_off_c, 0, 73, 64
2, 170240, Note_on_c, 0, 69, 73
2, 170364, Note_off_c, 0, 69, 64
2, 170368, Note_on_c, 0, 71, 71
2, 170492, Note_off_c, 0, 71, 64
2, 170496, Note_on_c, 0, 69, 70
2, 170496, Note_on_c, 0, 64, 70
2, 170496, Note_on_c, 0, 61, 70
2, 170876, Note_off_c, 0, 69, 64
2, 170876, Note_off_c, 0, 64, 64
2, 170876, Note_off_c, 0, 61, 64
2, 173184, Note_on_c, 0, 73, 74
2, 173184, Note_on_c, 0, 69, 74
2, 173564, Note_off_c, 0, 73, 64
2, 173564, Note_off_c, 0, 69, 64
2, 173568, Note_on_c, 0, 69, 75
2, 173568, Note_on_c, 0, 74, 75
2, 173948, Note_off_c, 0, 74, 64
2, 173952, Note_on_c, 0, 73, 76
2, 173952, Note_on_c, 0, 76, 76
2, 174332, Note_off_c, 0, 73, 64
2, 174332, Note_off_c, 0, 76, 64
2, 174336, Note_on_c, 0, 78, 77
2, 174336, Note_on_c, 0, 74, 77
2, 174716, Note_off_c, 0, 78, 64
2, 174716, Note_off_c, 0, 74, 64
2, 174720, Note_on_c, 0, 79, 78
2, 174720, Note_on_c, 0, 76, 78
2, 175100, Note_off_c, 0, 69, 64
2, 175100, Note_off_c, 0, 79, 64
2, 175100, Note_off_c, 0, 76, 64
2, 175104, Note_on_c, 0, 69, 79
2, 175104, Note_on_c, 0, 78, 79
2, 175104, Note_on_c, 0, 74, 79
2, 175484, Note_off_c, 0, 78, 64
2, 175484, Note_off_c, 0, 74, 64
2, 175488, Note_on_c, 0, 76, 80
2, 175488, Note_on_c, 0, 73, 80
2, 175868, Note_off_c, 0, 76, 64
2, 175868, Note_off_c, 0, 73, 64
2, 175872, Note_on_c, 0, 74, 81
2, 176252, Note_off_c, 0, 74, 64
2, 176256, Note_on_c, 0, 73, 82
2, 176636, Note_off_c, 0, 69, 64
2, 176636, Note_off_c, 0, 73, 64
2, 176640, Note_on_c, 0, 69, 83
2, 176640, Note_on_c, 0, 74, 83
2, 177020, Note_off_c, 0, 74, 64
2, 177024, Note_on_c, 0, 76, 84
2, 177024, Note_on_c, 0, 73, 84
2, 177404, Note_off_c, 0, 76, 64
2, 177404, Note_off_c, 0, 73, 64
2, 177408, Note_on_c, 0, 78, 85
2, 177408, Note_on_c, 0, 74, 85
2, 177788, Note_off_c, 0, 78, 64
2, 177788, Note_off_c, 0, 74, 64
2, 177792, Note_on_c, 0, 79, 86
2, 177792, Note_on_c, 0, 76, 86
2, 178172, Note_off_c, 0, 69, 64
2, 178172, Note_off_c, 0, 79, 64
2, 178172, Note_off_c, 0, 76, 64
2, 178176, Note_on_c, 0, 69, 87
2, 178176, Note_on_c, 0, 78, 87
2, 178176, Note_on_c, 0, 74, 87
2, 178556, Note_off_c, 0, 78, 64
2, 178556, Note_off_c, 0, 74, 64
2, 178560, Note_on_c, 0, 74, 88
2, 178940, Note_off_c, 0, 74, 64
2, 178944, Note_on_c, 0, 73, 89
2, 179324, Note_off_c, 0, 73, 64
2, 179328, Note_on_c, 0, 71, 90
2, 179708, Note_off_c, 0, 69, 64
2, 179708, Note_off_c, 0, 71, 64
2, 179712, Note_on_c, 0, 73, 99
2, 179712, Note_on_c, 0, 69, 99
2, 179900, Note_off_c, 0, 73, 64
2, 179900, Note_off_c, 0, 69, 64
2, 179904, Note_on_c, 0, 64, 99
2, 180092, Note_off_c, 0, 64, 64
2, 180096, Note_on_c, 0, 66, 99
2, 180284, Note_off_c, 0, 66, 64
2, 180288, Note_on_c, 0, 68, 99
2, 180476, Note_off_c, 0, 68, 64
2, 180480, Note_on_c, 0, 69, 99
2, 180668, Note_off_c, 0, 69, 64
2, 180672, Note_on_c, 0, 71, 99
2, 180860, Note_off_c, 0, 71, 64
2, 180864, Note_on_c, 0, 73, 99
2, 181052, Note_off_c, 0, 73, 64
2, 181056, Note_on_c, 0, 74, 99
2, 181244, Note_off_c, 0, 74, 64
2, 181248, Note_on_c, 0, 76, 99
2, 181436, Note_off_c, 0, 76, 64
2, 181440, Note_on_c, 0, 69, 99
2, 181628, Note_off_c, 0, 69, 64
2, 181632, Note_on_c, 0, 71, 99
2, 181820, Note_off_c, 0, 71, 64
2, 181824, Note_on_c, 0, 73, 99
2, 182012, Note_off_c, 0, 73, 64
2, 182016, Note_on_c, 0, 74, 99
2, 182204, Note_off_c, 0, 74, 64
2, 182208, Note_on_c, 0, 76, 99
2, 182396, Note_off_c, 0, 76, 64
2, 182400, Note_on_c, 0, 78, 99
2, 182588, Note_off_c, 0, 78, 64
2, 182592, Note_on_c, 0, 80, 99
2, 182780, Note_off_c, 0, 80, 64
2, 182784, Note_on_c, 0, 81, 99
2, 182972, Note_off_c, 0, 81, 64
2, 182976, Note_on_c, 0, 85, 99
2, 183164, Note_off_c, 0, 85, 64
2, 183168, Note_on_c, 0, 81, 99
2, 183356, Note_off_c, 0, 81, 64
2, 183360, Note_on_c, 0, 75, 99
2, 183548, Note_off_c, 0, 75, 64
2, 183552, Note_on_c, 0, 76, 99
2, 183740, Note_off_c, 0, 76, 64
2, 183744, Note_on_c, 0, 81, 99
2, 183932, Note_off_c, 0, 81, 64
2, 183936, Note_on_c, 0, 76, 99
2, 184124, Note_off_c, 0, 76, 64
2, 184128, Note_on_c, 0, 72, 99
2, 184316, Note_off_c, 0, 72, 64
2, 184320, Note_on_c, 0, 73, 99
2, 184508, Note_off_c, 0, 73, 64
2, 184512, Note_on_c, 0, 76, 99
2, 184700, Note_off_c, 0, 76, 64
2, 184704, Note_on_c, 0, 73, 99
2, 184892, Note_off_c, 0, 73, 64
2, 184896, Note_on_c, 0, 68, 99
2, 185084, Note_off_c, 0, 68, 64
2, 185088, Note_on_c, 0, 69, 99
2, 185276, Note_off_c, 0, 69, 64
2, 185280, Note_on_c, 0, 73, 99
2, 185468, Note_off_c, 0, 73, 64
2, 185472, Note_on_c, 0, 69, 99
2, 185660, Note_off_c, 0, 69, 64
2, 185664, Note_on_c, 0, 63, 99
2, 185852, Note_off_c, 0, 63, 64
2, 185856, Note_on_c, 0, 64, 99
2, 187968, Note_on_c, 0, 66, 99
2, 188060, Note_off_c, 0, 66, 64
2, 188064, Note_on_c, 0, 68, 99
2, 188156, Note_off_c, 0, 68, 64
2, 188160, Note_on_c, 0, 69, 99
2, 188252, Note_off_c, 0, 69, 64
2, 188256, Note_on_c, 0, 71, 99
2, 188348, Note_off_c, 0, 71, 64
2, 188352, Note_on_c, 0, 73, 99
2, 188444, Note_off_c, 0, 73, 64
2, 188448, Note_on_c, 0, 74, 99
2, 188540, Note_off_c, 0, 74, 64
2, 188544, Note_on_c, 0, 76, 99
2, 188636, Note_off_c, 0, 76, 64
2, 188640, Note_on_c, 0, 78, 99
2, 188732, Note_off_c, 0, 78, 64
2, 188736, Note_on_c, 0, 80, 99
2, 188828, Note_off_c, 0, 80, 64
2, 188832, Note_on_c, 0, 81, 99
2, 188924, Note_off_c, 0, 64, 64
2, 188924, Note_off_c, 0, 81, 64
2, 188928, Note_on_c, 0, 83, 99
2, 188988, Note_off_c, 0, 83, 64
2, 188992, Note_on_c, 0, 85, 99
2, 189052, Note_off_c, 0, 85, 64
2, 189056, Note_on_c, 0, 83, 99
2, 189116, Note_off_c, 0, 83, 64
2, 189120, Note_on_c, 0, 85, 99
2, 189180, Note_off_c, 0, 85, 64
2, 189184, Note_on_c, 0, 83, 99
2, 189244, Note_off_c, 0, 83, 64
2, 189248, Note_on_c, 0, 85, 99
2, 189308, Note_off_c, 0, 85, 64
2, 189312, Note_on_c, 0, 83, 99
2, 189372, Note_off_c, 0, 83, 64
2, 189376, Note_on_c, 0, 85, 99
2, 189436, Note_off_c, 0, 85, 64
2, 189440, Note_on_c, 0, 83, 99
2, 189500, Note_off_c, 0, 83, 64
2, 189504, Note_on_c, 0, 85, 99
2, 189564, Note_off_c, 0, 85, 64
2, 189568, Note_on_c, 0, 83, 99
2, 189628, Note_off_c, 0, 83, 64
2, 189632, Note_on_c, 0, 85, 99
2, 189692, Note_off_c, 0, 85, 64
2, 189696, Note_on_c, 0, 83, 99
2, 189756, Note_off_c, 0, 83, 64
2, 189760, Note_on_c, 0, 85, 99
2, 189820, Note_off_c, 0, 85, 64
2, 189828, Note_on_c, 0, 83, 99
2, 189888, Note_off_c, 0, 83, 64
2, 189888, Note_on_c, 0, 85, 99
2, 189948, Note_off_c, 0, 85, 64
2, 189952, Note_on_c, 0, 83, 99
2, 190012, Note_off_c, 0, 83, 64
2, 190016, Note_on_c, 0, 85, 99
2, 190076, Note_off_c, 0, 85, 64
2, 190080, Note_on_c, 0, 83, 99
2, 190140, Note_off_c, 0, 83, 64
2, 190144, Note_on_c, 0, 85, 99
2, 190204, Note_off_c, 0, 85, 64
2, 190208, Note_on_c, 0, 83, 99
2, 190268, Note_off_c, 0, 83, 64
2, 190272, Note_on_c, 0, 85, 99
2, 190332, Note_off_c, 0, 85, 64
2, 190336, Note_on_c, 0, 83, 99
2, 190396, Note_off_c, 0, 83, 64
2, 190400, Note_on_c, 0, 85, 99
2, 190460, Note_off_c, 0, 85, 64
2, 190464, Note_on_c, 0, 83, 99
2, 190524, Note_off_c, 0, 83, 64
2, 190528, Note_on_c, 0, 85, 99
2, 190588, Note_off_c, 0, 85, 64
2, 190592, Note_on_c, 0, 83, 99
2, 190652, Note_off_c, 0, 83, 64
2, 190656, Note_on_c, 0, 85, 99
2, 190716, Note_off_c, 0, 85, 64
2, 190720, Note_on_c, 0, 83, 99
2, 190780, Note_off_c, 0, 83, 64
2, 190784, Note_on_c, 0, 85, 99
2, 190844, Note_off_c, 0, 85, 64
2, 190848, Note_on_c, 0, 83, 99
2, 190908, Note_off_c, 0, 83, 64
2, 190912, Note_on_c, 0, 85, 99
2, 190972, Note_off_c, 0, 85, 64
2, 190976, Note_on_c, 0, 83, 99
2, 191036, Note_off_c, 0, 83, 64
2, 191040, Note_on_c, 0, 85, 99
2, 191100, Note_off_c, 0, 85, 64
2, 191104, Note_on_c, 0, 83, 99
2, 191164, Note_off_c, 0, 83, 64
2, 191168, Note_on_c, 0, 85, 99
2, 191228, Note_off_c, 0, 85, 64
2, 191232, Note_on_c, 0, 83, 99
2, 191292, Note_off_c, 0, 83, 64
2, 191296, Note_on_c, 0, 85, 99
2, 191356, Note_off_c, 0, 85, 64
2, 191360, Note_on_c, 0, 83, 99
2, 191420, Note_off_c, 0, 83, 64
2, 191424, Note_on_c, 0, 85, 99
2, 191484, Note_off_c, 0, 85, 64
2, 191488, Note_on_c, 0, 83, 99
2, 191548, Note_off_c, 0, 83, 64
2, 191552, Note_on_c, 0, 85, 99
2, 191612, Note_off_c, 0, 85, 64
2, 191616, Note_on_c, 0, 83, 99
2, 191676, Note_off_c, 0, 83, 64
2, 191680, Note_on_c, 0, 85, 99
2, 191740, Note_off_c, 0, 85, 64
2, 191744, Note_on_c, 0, 81, 99
2, 191868, Note_off_c, 0, 81, 64
2, 191872, Note_on_c, 0, 83, 99
2, 191996, Note_off_c, 0, 83, 64
2, 192000, Note_on_c, 0, 81, 99
2, 192764, Note_off_c, 0, 81, 64
2, 205824, Note_on_c, 0, 57, 66
2, 206012, Note_off_c, 0, 57, 64
2, 206016, Note_on_c, 0, 64, 66
2, 206204, Note_off_c, 0, 64, 64
2, 206208, Note_on_c, 0, 61, 66
2, 206396, Note_off_c, 0, 61, 64
2, 206400, Note_on_c, 0, 64, 66
2, 206588, Note_off_c, 0, 64, 64
2, 206592, Note_on_c, 0, 57, 66
2, 206780, Note_off_c, 0, 57, 64
2, 206784, Note_on_c, 0, 64, 66
2, 206972, Note_off_c, 0, 64, 64
2, 206976, Note_on_c, 0, 61, 66
2, 206976, Note_on_c, 0, 81, 88
2, 207164, Note_off_c, 0, 61, 64
2, 207168, Note_on_c, 0, 64, 66
2, 207356, Note_off_c, 0, 81, 64
2, 207356, Note_off_c, 0, 64, 64
2, 207360, Note_on_c, 0, 85, 88
2, 207360, Note_on_c, 0, 57, 66
2, 207548, Note_off_c, 0, 57, 64
2, 207552, Note_on_c, 0, 64, 66
2, 207740, Note_off_c, 0, 64, 64
2, 207744, Note_on_c, 0, 61, 66
2, 207932, Note_off_c, 0, 85, 64
2, 207932, Note_off_c, 0, 61, 64
2, 207936, Note_on_c, 0, 81, 88
2, 207936, Note_on_c, 0, 64, 66
2, 208124, Note_off_c, 0, 81, 64
2, 208124, Note_off_c, 0, 64, 64
2, 208128, Note_on_c, 0, 76, 88
2, 208128, Note_on_c, 0, 57, 66
2, 208316, Note_off_c, 0, 57, 64
2, 208320, Note_on_c, 0, 64, 66
2, 208508, Note_off_c, 0, 76, 64
2, 208508, Note_off_c, 0, 64, 64
2, 208512, Note_on_c, 0, 61, 66
2, 208700, Note_off_c, 0, 61, 64
2, 208704, Note_on_c, 0, 64, 66
2, 208892, Note_off_c, 0, 64, 64
2, 208896, Note_on_c, 0, 57, 66
2, 209084, Note_off_c, 0, 57, 64
2, 209088, Note_on_c, 0, 64, 66
2, 209276, Note_off_c, 0, 64, 64
2, 209280, Note_on_c, 0, 61, 66
2, 209468, Note_off_c, 0, 61, 64
2, 209472, Note_on_c, 0, 64, 66
2, 209660, Note_off_c, 0, 64, 64
2, 209664, Note_on_c, 0, 57, 66
2, 209852, Note_off_c, 0, 57, 64
2, 209856, Note_on_c, 0, 64, 66
2, 210044, Note_off_c, 0, 64, 64
2, 210048, Note_on_c, 0, 61, 66
2, 210048, Note_on_c, 0, 81, 88
2, 210236, Note_off_c, 0, 61, 64
2, 210240, Note_on_c, 0, 64, 66
2, 210428, Note_off_c, 0, 81, 64
2, 210428, Note_off_c, 0, 64, 64
2, 210432, Note_on_c, 0, 85, 88
2, 210432, Note_on_c, 0, 57, 66
2, 210620, Note_off_c, 0, 57, 64
2, 210624, Note_on_c, 0, 64, 66
2, 210812, Note_off_c, 0, 64, 64
2, 210816, Note_on_c, 0, 61, 66
2, 211004, Note_off_c, 0, 85, 64
2, 211004, Note_off_c, 0, 61, 64
2, 211008, Note_on_c, 0, 81, 88
2, 211008, Note_on_c, 0, 64, 66
2, 211196, Note_off_c, 0, 81, 64
2, 211196, Note_off_c, 0, 64, 64
2, 211200, Note_on_c, 0, 76, 88
2, 211200, Note_on_c, 0, 57, 66
2, 211388, Note_off_c, 0, 57, 64
2, 211392, Note_on_c, 0, 64, 66
2, 211580, Note_off_c, 0, 76, 64
2, 211580, Note_off_c, 0, 64, 64
2, 211584, Note_on_c, 0, 61, 66
2, 211772, Note_off_c, 0, 61, 64
2, 211776, Note_on_c, 0, 64, 66
2, 211964, Note_off_c, 0, 64, 64
2, 211968, Note_on_c, 0, 57, 66
2, 212156, Note_off_c, 0, 57, 64
2, 212160, Note_on_c, 0, 66, 66
2, 212348, Note_off_c, 0, 66, 64
2, 212352, Note_on_c, 0, 62, 66
2, 212540, Note_off_c, 0, 62, 64
2, 212544, Note_on_c, 0, 66, 66
2, 212732, Note_off_c, 0, 66, 64
2, 212736, Note_on_c, 0, 57, 66
2, 212924, Note_off_c, 0, 57, 64
2, 212928, Note_on_c, 0, 66, 66
2, 213116, Note_off_c, 0, 66, 64
2, 213120, Note_on_c, 0, 62, 66
2, 213120, Note_on_c, 0, 81, 88
2, 213308, Note_off_c, 0, 62, 64
2, 213312, Note_on_c, 0, 66, 66
2, 213500, Note_off_c, 0, 81, 64
2, 213500, Note_off_c, 0, 66, 64
2, 213504, Note_on_c, 0, 86, 88
2, 213504, Note_on_c, 0, 57, 66
2, 213692, Note_off_c, 0, 57, 64
2, 213696, Note_on_c, 0, 66, 66
2, 213884, Note_off_c, 0, 66, 64
2, 213888, Note_on_c, 0, 62, 66
2, 214076, Note_off_c, 0, 86, 64
2, 214076, Note_off_c, 0, 62, 64
2, 214080, Note_on_c, 0, 81, 88
2, 214080, Note_on_c, 0, 66, 66
2, 214268, Note_off_c, 0, 81, 64
2, 214268, Note_off_c, 0, 66, 64
2, 214272, Note_on_c, 0, 78, 88
2, 214272, Note_on_c, 0, 57, 66
2, 214460, Note_off_c, 0, 57, 64
2, 214464, Note_on_c, 0, 66, 66
2, 214652, Note_off_c, 0, 78, 64
2, 214652, Note_off_c, 0, 66, 64
2, 214656, Note_on_c, 0, 62, 66
2, 214844, Note_off_c, 0, 62, 64
2, 214848, Note_on_c, 0, 66, 66
2, 215036, Note_off_c, 0, 66, 64
2, 215040, Note_on_c, 0, 57, 66
2, 215228, Note_off_c, 0, 57, 64
2, 215232, Note_on_c, 0, 66, 66
2, 215420, Note_off_c, 0, 66, 64
2, 215424, Note_on_c, 0, 62, 66
2, 215612, Note_off_c, 0, 62, 64
2, 215616, Note_on_c, 0, 66, 66
2, 215804, Note_off_c, 0, 66, 64
2, 215808, Note_on_c, 0, 57, 66
2, 215996, Note_off_c, 0, 57, 64
2, 216000, Note_on_c, 0, 66, 66
2, 216188, Note_off_c, 0, 66, 64
2, 216192, Note_on_c, 0, 62, 66
2, 216192, Note_on_c, 0, 81, 88
2, 216380, Note_off_c, 0, 62, 64
2, 216384, Note_on_c, 0, 66, 66
2, 216572, Note_off_c, 0, 81, 64
2, 216572, Note_off_c, 0, 66, 64
2, 216576, Note_on_c, 0, 86, 88
2, 216576, Note_on_c, 0, 62, 66
2, 216764, Note_off_c, 0, 62, 64
2, 216768, Note_on_c, 0, 69, 66
2, 216956, Note_off_c, 0, 69, 64
2, 216960, Note_on_c, 0, 66, 66
2, 217148, Note_off_c, 0, 86, 64
2, 217148, Note_off_c, 0, 66, 64
2, 217152, Note_on_c, 0, 81, 88
2, 217152, Note_on_c, 0, 69, 66
2, 217340, Note_off_c, 0, 81, 64
2, 217340, Note_off_c, 0, 69, 64
2, 217344, Note_on_c, 0, 78, 88
2, 217344, Note_on_c, 0, 62, 66
2, 217532, Note_off_c, 0, 62, 64
2, 217536, Note_on_c, 0, 69, 66
2, 217724, Note_off_c, 0, 78, 64
2, 217724, Note_off_c, 0, 69, 64
2, 217728, Note_on_c, 0, 66, 66
2, 217916, Note_off_c, 0, 66, 64
2, 217920, Note_on_c, 0, 69, 66
2, 218108, Note_off_c, 0, 69, 64
2, 218112, Note_on_c, 0, 62, 66
2, 218300, Note_off_c, 0, 62, 64
2, 218304, Note_on_c, 0, 71, 66
2, 218492, Note_off_c, 0, 71, 64
2, 218496, Note_on_c, 0, 67, 66
2, 218684, Note_off_c, 0, 67, 64
2, 218688, Note_on_c, 0, 71, 66
2, 218876, Note_off_c, 0, 71, 64
2, 218880, Note_on_c, 0, 62, 66
2, 219068, Note_off_c, 0, 62, 64
2, 219072, Note_on_c, 0, 71, 66
2, 219260, Note_off_c, 0, 71, 64
2, 219264, Note_on_c, 0, 67, 66
2, 219264, Note_on_c, 0, 79, 88
2, 219452, Note_off_c, 0, 67, 64
2, 219456, Note_on_c, 0, 71, 66
2, 219644, Note_off_c, 0, 79, 64
2, 219644, Note_off_c, 0, 71, 64
2, 219648, Note_on_c, 0, 86, 88
2, 219648, Note_on_c, 0, 62, 66
2, 219836, Note_off_c, 0, 62, 64
2, 219840, Note_on_c, 0, 71, 66
2, 220028, Note_off_c, 0, 71, 64
2, 220032, Note_on_c, 0, 67, 66
2, 220220, Note_off_c, 0, 86, 64
2, 220220, Note_off_c, 0, 67, 64
2, 220224, Note_on_c, 0, 83, 88
2, 220224, Note_on_c, 0, 71, 66
2, 220412, Note_off_c, 0, 83, 64
2, 220412, Note_off_c, 0, 71, 64
2, 220416, Note_on_c, 0, 79, 88
2, 220416, Note_on_c, 0, 62, 66
2, 220604, Note_off_c, 0, 62, 64
2, 220608, Note_on_c, 0, 71, 66
2, 220796, Note_off_c, 0, 79, 64
2, 220796, Note_off_c, 0, 71, 64
2, 220800, Note_on_c, 0, 67, 66
2, 220988, Note_off_c, 0, 67, 64
2, 220992, Note_on_c, 0, 71, 66
2, 221180, Note_off_c, 0, 71, 64
2, 221184, Note_on_c, 0, 63, 66
2, 221372, Note_off_c, 0, 63, 64
2, 221376, Note_on_c, 0, 71, 66
2, 221564, Note_off_c, 0, 71, 64
2, 221568, Note_on_c, 0, 66, 66
2, 221756, Note_off_c, 0, 66, 64
2, 221760, Note_on_c, 0, 71, 66
2, 221948, Note_off_c, 0, 71, 64
2, 221952, Note_on_c, 0, 63, 66
2, 222140, Note_off_c, 0, 63, 64
2, 222144, Note_on_c, 0, 71, 66
2, 222332, Note_off_c, 0, 71, 64
2, 222336, Note_on_c, 0, 66, 66
2, 222336, Note_on_c, 0, 78, 88
2, 222524, Note_off_c, 0, 66, 64
2, 222528, Note_on_c, 0, 71, 66
2, 222716, Note_off_c, 0, 78, 64
2, 222716, Note_off_c, 0, 71, 64
2, 222720, Note_on_c, 0, 81, 88
2, 222720, Note_on_c, 0, 63, 66
2, 222908, Note_off_c, 0, 63, 64
2, 222912, Note_on_c, 0, 71, 66
2, 223100, Note_off_c, 0, 71, 64
2, 223104, Note_on_c, 0, 66, 66
2, 223292, Note_off_c, 0, 81, 64
2, 223292, Note_off_c, 0, 66, 64
2, 223296, Note_on_c, 0, 78, 88
2, 223296, Note_on_c, 0, 71, 66
2, 223484, Note_off_c, 0, 78, 64
2, 223484, Note_off_c, 0, 71, 64
2, 223488, Note_on_c, 0, 75, 88
2, 223488, Note_on_c, 0, 66, 66
2, 223676, Note_off_c, 0, 66, 64
2, 223680, Note_on_c, 0, 71, 66
2, 223868, Note_off_c, 0, 75, 64
2, 223868, Note_off_c, 0, 71, 64
2, 223872, Note_on_c, 0, 69, 66
2, 224060, Note_off_c, 0, 69, 64
2, 224064, Note_on_c, 0, 71, 66
2, 224252, Note_off_c, 0, 71, 64
2, 224256, Note_on_c, 0, 64, 66
2, 224444, Note_off_c, 0, 64, 64
2, 224448, Note_on_c, 0, 71, 66
2, 224636, Note_off_c, 0, 71, 64
2, 224640, Note_on_c, 0, 67, 66
2, 224828, Note_off_c, 0, 67, 64
2, 224832, Note_on_c, 0, 71, 66
2, 225020, Note_off_c, 0, 71, 64
2, 225024, Note_on_c, 0, 64, 66
2, 225212, Note_off_c, 0, 64, 64
2, 225216, Note_on_c, 0, 71, 66
2, 225404, Note_off_c, 0, 71, 64
2, 225408, Note_on_c, 0, 67, 66
2, 225408, Note_on_c, 0, 79, 88
2, 225596, Note_off_c, 0, 67, 64
2, 225600, Note_on_c, 0, 71, 66
2, 225788, Note_off_c, 0, 79, 64
2, 225788, Note_off_c, 0, 71, 64
2, 225792, Note_on_c, 0, 83, 88
2, 225792, Note_on_c, 0, 64, 66
2, 225980, Note_off_c, 0, 64, 64
2, 225984, Note_on_c, 0, 71, 66
2, 226172, Note_off_c, 0, 71, 64
2, 226176, Note_on_c, 0, 67, 66
2, 226364, Note_off_c, 0, 83, 64
2, 226364, Note_off_c, 0, 67, 64
2, 226368, Note_on_c, 0, 79, 88
2, 226368, Note_on_c, 0, 71, 66
2, 226556, Note_off_c, 0, 79, 64
2, 226556, Note_off_c, 0, 71, 64
2, 226560, Note_on_c, 0, 76, 88
2, 226560, Note_on_c, 0, 64, 66
2, 226748, Note_off_c, 0, 64, 64
2, 226752, Note_on_c, 0, 71, 66
2, 226940, Note_off_c, 0, 76, 64
2, 226940, Note_off_c, 0, 71, 64
2, 226944, Note_on_c, 0, 67, 66
2, 227132, Note_off_c, 0, 67, 64
2, 227136, Note_on_c, 0, 71, 66
2, 227324, Note_off_c, 0, 71, 64
2, 227328, Note_on_c, 0, 64, 66
2, 227516, Note_off_c, 0, 64, 64
2, 227520, Note_on_c, 0, 69, 66
2, 227708, Note_off_c, 0, 69, 64
2, 227712, Note_on_c, 0, 67, 66
2, 227900, Note_off_c, 0, 67, 64
2, 227904, Note_on_c, 0, 69, 66
2, 228092, Note_off_c, 0, 69, 64
2, 228096, Note_on_c, 0, 61, 66
2, 228284, Note_off_c, 0, 61, 64
2, 228288, Note_on_c, 0, 69, 66
2, 228476, Note_off_c, 0, 69, 64
2, 228480, Note_on_c, 0, 64, 66
2, 228480, Note_on_c, 0, 79, 88
2, 228668, Note_off_c, 0, 64, 64
2, 228672, Note_on_c, 0, 69, 66
2, 228860, Note_off_c, 0, 79, 64
2, 228860, Note_off_c, 0, 69, 64
2, 228864, Note_on_c, 0, 81, 88
2, 228864, Note_on_c, 0, 61, 66
2, 229052, Note_off_c, 0, 61, 64
2, 229056, Note_on_c, 0, 69, 66
2, 229244, Note_off_c, 0, 69, 64
2, 229248, Note_on_c, 0, 64, 66
2, 229436, Note_off_c, 0, 81, 64
2, 229436, Note_off_c, 0, 64, 64
2, 229440, Note_on_c, 0, 79, 88
2, 229440, Note_on_c, 0, 69, 66
2, 229628, Note_off_c, 0, 79, 64
2, 229628, Note_off_c, 0, 69, 64
2, 229632, Note_on_c, 0, 76, 88
2, 229632, Note_on_c, 0, 64, 66
2, 229820, Note_off_c, 0, 64, 64
2, 229824, Note_on_c, 0, 69, 66
2, 230012, Note_off_c, 0, 76, 64
2, 230012, Note_off_c, 0, 69, 64
2, 230016, Note_on_c, 0, 67, 66
2, 230204, Note_off_c, 0, 67, 64
2, 230208, Note_on_c, 0, 69, 66
2, 230396, Note_off_c, 0, 69, 64
2, 230400, Note_on_c, 0, 66, 99
2, 230588, Note_off_c, 0, 66, 64
2, 230592, Note_on_c, 0, 69, 99
2, 230780, Note_off_c, 0, 69, 64
2, 230784, Note_on_c, 0, 74, 99
2, 230972, Note_off_c, 0, 74, 64
2, 230976, Note_on_c, 0, 78, 99
2, 231164, Note_off_c, 0, 78, 64
2, 231168, Note_on_c, 0, 81, 99
2, 231356, Note_off_c, 0, 81, 64
2, 231360, Note_on_c, 0, 78, 99
2, 231548, Note_off_c, 0, 78, 64
2, 231552, Note_on_c, 0, 86, 99
2, 231740, Note_off_c, 0, 86, 64
2, 231744, Note_on_c, 0, 78, 99
2, 231932, Note_off_c, 0, 78, 64
2, 231936, Note_on_c, 0, 76, 99
2, 232124, Note_off_c, 0, 76, 64
2, 232128, Note_on_c, 0, 79, 99
2, 232316, Note_off_c, 0, 79, 64
2, 232320, Note_on_c, 0, 83, 99
2, 232508, Note_off_c, 0, 83, 64
2, 232512, Note_on_c, 0, 81, 99
2, 232700, Note_off_c, 0, 81, 64
2, 232704, Note_on_c, 0, 79, 99
2, 232892, Note_off_c, 0, 79, 64
2, 232896, Note_on_c, 0, 78, 99
2, 233084, Note_off_c, 0, 78, 64
2, 233088, Note_on_c, 0, 76, 99
2, 233276, Note_off_c, 0, 76, 64
2, 233280, Note_on_c, 0, 74, 99
2, 233468, Note_off_c, 0, 74, 64
2, 233472, Note_on_c, 0, 73, 99
2, 233660, Note_off_c, 0, 73, 64
2, 233664, Note_on_c, 0, 69, 99
2, 233852, Note_off_c, 0, 69, 64
2, 233856, Note_on_c, 0, 76, 99
2, 234044, Note_off_c, 0, 76, 64
2, 234048, Note_on_c, 0, 73, 99
2, 234236, Note_off_c, 0, 73, 64
2, 234240, Note_on_c, 0, 74, 99
2, 234428, Note_off_c, 0, 74, 64
2, 234432, Note_on_c, 0, 69, 99
2, 234620, Note_off_c, 0, 69, 64
2, 234624, Note_on_c, 0, 66, 99
2, 234812, Note_off_c, 0, 66, 64
2, 234816, Note_on_c, 0, 62, 99
2, 235004, Note_off_c, 0, 62, 64
2, 235008, Note_on_c, 0, 64, 89
2, 235196, Note_off_c, 0, 64, 64
2, 235200, Note_on_c, 0, 67, 86
2, 235388, Note_off_c, 0, 67, 64
2, 235392, Note_on_c, 0, 71, 83
2, 235580, Note_off_c, 0, 71, 64
2, 235584, Note_on_c, 0, 69, 80
2, 235772, Note_off_c, 0, 69, 64
2, 235776, Note_on_c, 0, 67, 77
2, 235964, Note_off_c, 0, 67, 64
2, 235968, Note_on_c, 0, 66, 74
2, 236156, Note_off_c, 0, 66, 64
2, 236160, Note_on_c, 0, 64, 71
2, 236348, Note_off_c, 0, 64, 64
2, 236352, Note_on_c, 0, 62, 68
2, 236540, Note_off_c, 0, 62, 64
2, 236544, Note_on_c, 0, 61, 66
2, 236732, Note_off_c, 0, 61, 64
2, 236736, Note_on_c, 0, 57, 68
2, 236924, Note_off_c, 0, 57, 64
2, 236928, Note_on_c, 0, 62, 70
2, 237116, Note_off_c, 0, 62, 64
2, 237120, Note_on_c, 0, 59, 72
2, 237308, Note_off_c, 0, 59, 64
2, 237312, Note_on_c, 0, 64, 74
2, 237500, Note_off_c, 0, 64, 64
2, 237504, Note_on_c, 0, 61, 76
2, 237692, Note_off_c, 0, 61, 64
2, 237696, Note_on_c, 0, 66, 79
2, 237884, Note_off_c, 0, 66, 64
2, 237888, Note_on_c, 0, 62, 81
2, 238076, Note_off_c, 0, 62, 64
2, 238080, Note_on_c, 0, 67, 83
2, 238268, Note_off_c, 0, 67, 64
2, 238272, Note_on_c, 0, 64, 85
2, 238460, Note_off_c, 0, 64, 64
2, 238464, Note_on_c, 0, 69, 87
2, 238652, Note_off_c, 0, 69, 64
2, 238656, Note_on_c, 0, 66, 89
2, 238844, Note_off_c, 0, 66, 64
2, 238848, Note_on_c, 0, 71, 92
2, 239036, Note_off_c, 0, 71, 64
2, 239040, Note_on_c, 0, 67, 94
2, 239228, Note_off_c, 0, 67, 64
2, 239232, Note_on_c, 0, 73, 96
2, 239420, Note_off_c, 0, 73, 64
2, 239424, Note_on_c, 0, 69, 98
2, 239612, Note_off_c, 0, 69, 64
2, 239616, Note_on_c, 0, 69, 99
2, 239616, Note_on_c, 0, 66, 99
2, 239616, Note_on_c, 0, 74, 99
2, 240380, Note_off_c, 0, 69, 64
2, 240380, Note_off_c, 0, 66, 64
2, 240380, Note_off_c, 0, 74, 64
2, 248832, Note_on_c, 0, 74, 99
2, 249020, Note_off_c, 0, 74, 64
2, 249024, Note_on_c, 0, 78, 99
2, 249212, Note_off_c, 0, 78, 64
2, 249216, Note_on_c, 0, 81, 99
2, 249404, Note_off_c, 0, 81, 64
2, 249408, Note_on_c, 0, 86, 99
2, 249596, Note_off_c, 0, 86, 64
2, 249600, Note_on_c, 0, 74, 99
2, 249788, Note_off_c, 0, 74, 64
2, 249792, Note_on_c, 0, 86, 99
2, 249980, Note_off_c, 0, 86, 64
2, 249984, Note_on_c, 0, 85, 99
2, 250172, Note_off_c, 0, 85, 64
2, 250176, Note_on_c, 0, 83, 99
2, 250364, Note_off_c, 0, 83, 64
2, 250368, Note_on_c, 0, 81, 99
2, 250556, Note_off_c, 0, 81, 64
2, 250560, Note_on_c, 0, 83, 99
2, 250748, Note_off_c, 0, 83, 64
2, 250752, Note_on_c, 0, 81, 99
2, 250940, Note_off_c, 0, 81, 64
2, 250944, Note_on_c, 0, 83, 99
2, 251132, Note_off_c, 0, 83, 64
2, 251136, Note_on_c, 0, 81, 99
2, 251324, Note_off_c, 0, 81, 64
2, 251328, Note_on_c, 0, 79, 99
2, 251516, Note_off_c, 0, 79, 64
2, 251520, Note_on_c, 0, 78, 99
2, 251708, Note_off_c, 0, 78, 64
2, 251712, Note_on_c, 0, 76, 99
2, 251900, Note_off_c, 0, 76, 64
2, 251904, Note_on_c, 0, 78, 99
2, 252284, Note_off_c, 0, 78, 64
2, 252288, Note_on_c, 0, 74, 99
2, 252668, Note_off_c, 0, 74, 64
2, 252864, Note_on_c, 0, 78, 99
2, 253052, Note_off_c, 0, 78, 64
2, 253056, Note_on_c, 0, 76, 99
2, 253244, Note_off_c, 0, 76, 64
2, 253248, Note_on_c, 0, 74, 99
2, 253436, Note_off_c, 0, 74, 64
2, 253440, Note_on_c, 0, 73, 99
2, 253820, Note_off_c, 0, 73, 64
2, 253824, Note_on_c, 0, 69, 99
2, 254204, Note_off_c, 0, 69, 64
2, 254208, Note_on_c, 0, 76, 99
2, 254588, Note_off_c, 0, 76, 64
2, 254592, Note_on_c, 0, 73, 99
2, 254972, Note_off_c, 0, 73, 64
2, 254976, Note_on_c, 0, 74, 99
2, 255164, Note_off_c, 0, 74, 64
2, 255168, Note_on_c, 0, 69, 99
2, 255356, Note_off_c, 0, 69, 64
2, 255360, Note_on_c, 0, 66, 99
2, 255548, Note_off_c, 0, 66, 64
2, 255552, Note_on_c, 0, 69, 99
2, 255740, Note_off_c, 0, 69, 64
2, 255744, Note_on_c, 0, 62, 99
2, 255932, Note_off_c, 0, 62, 64
2, 255936, Note_on_c, 0, 74, 99
2, 256124, Note_off_c, 0, 74, 64
2, 256128, Note_on_c, 0, 76, 99
2, 256316, Note_off_c, 0, 76, 64
2, 256320, Note_on_c, 0, 78, 99
2, 256508, Note_off_c, 0, 78, 64
2, 256512, Note_on_c, 0, 76, 99
2, 256700, Note_off_c, 0, 76, 64
2, 256704, Note_on_c, 0, 69, 99
2, 256892, Note_off_c, 0, 69, 64
2, 256896, Note_on_c, 0, 73, 99
2, 257084, Note_off_c, 0, 73, 64
2, 257088, Note_on_c, 0, 76, 99
2, 257276, Note_off_c, 0, 76, 64
2, 257280, Note_on_c, 0, 79, 99
2, 257340, Note_off_c, 0, 79, 64
2, 257344, Note_on_c, 0, 81, 99
2, 257404, Note_off_c, 0, 81, 64
2, 257408, Note_on_c, 0, 79, 99
2, 257468, Note_off_c, 0, 79, 64
2, 257472, Note_on_c, 0, 81, 99
2, 257532, Note_off_c, 0, 81, 64
2, 257536, Note_on_c, 0, 79, 99
2, 257596, Note_off_c, 0, 79, 64
2, 257600, Note_on_c, 0, 81, 99
2, 257660, Note_off_c, 0, 81, 64
2, 257664, Note_on_c, 0, 79, 99
2, 257724, Note_off_c, 0, 79, 64
2, 257728, Note_on_c, 0, 81, 99
2, 257788, Note_off_c, 0, 81, 64
2, 257792, Note_on_c, 0, 78, 99
2, 257916, Note_off_c, 0, 78, 64
2, 257920, Note_on_c, 0, 79, 99
2, 258044, Note_off_c, 0, 79, 64
2, 258048, Note_on_c, 0, 78, 99
2, 258428, Note_off_c, 0, 78, 64
2, 258432, Note_on_c, 0, 74, 99
2, 258812, Note_off_c, 0, 74, 64
2, 259008, Note_on_c, 0, 78, 99
2, 259196, Note_off_c, 0, 78, 64
2, 259200, Note_on_c, 0, 76, 99
2, 259388, Note_off_c, 0, 76, 64
2, 259392, Note_on_c, 0, 74, 99
2, 259580, Note_off_c, 0, 74, 64
2, 259584, Note_on_c, 0, 73, 99
2, 259964, Note_off_c, 0, 73, 64
2, 259968, Note_on_c, 0, 69, 99
2, 260348, Note_off_c, 0, 69, 64
2, 260352, Note_on_c, 0, 76, 99
2, 260732, Note_off_c, 0, 76, 64
2, 260736, Note_on_c, 0, 73, 99
2, 261116, Note_off_c, 0, 73, 64
2, 261120, Note_on_c, 0, 74, 99
2, 261308, Note_off_c, 0, 74, 64
2, 261312, Note_on_c, 0, 69, 99
2, 261500, Note_off_c, 0, 69, 64
2, 261504, Note_on_c, 0, 66, 99
2, 261692, Note_off_c, 0, 66, 64
2, 261696, Note_on_c, 0, 69, 99
2, 261884, Note_off_c, 0, 69, 64
2, 261888, Note_on_c, 0, 62, 99
2, 262076, Note_off_c, 0, 62, 64
2, 262080, Note_on_c, 0, 74, 99
2, 262268, Note_off_c, 0, 74, 64
2, 262272, Note_on_c, 0, 76, 99
2, 262460, Note_off_c, 0, 76, 64
2, 262464, Note_on_c, 0, 78, 99
2, 262652, Note_off_c, 0, 78, 64
2, 262656, Note_on_c, 0, 76, 99
2, 262844, Note_off_c, 0, 76, 64
2, 262848, Note_on_c, 0, 69, 99
2, 263036, Note_off_c, 0, 69, 64
2, 263040, Note_on_c, 0, 73, 99
2, 263228, Note_off_c, 0, 73, 64
2, 263232, Note_on_c, 0, 76, 99
2, 263420, Note_off_c, 0, 76, 64
2, 263424, Note_on_c, 0, 79, 99
2, 263484, Note_off_c, 0, 79, 64
2, 263488, Note_on_c, 0, 81, 99
2, 263548, Note_off_c, 0, 81, 64
2, 263552, Note_on_c, 0, 79, 99
2, 263612, Note_off_c, 0, 79, 64
2, 263616, Note_on_c, 0, 81, 99
2, 263676, Note_off_c, 0, 81, 64
2, 263680, Note_on_c, 0, 79, 99
2, 263740, Note_off_c, 0, 79, 64
2, 263744, Note_on_c, 0, 81, 99
2, 263804, Note_off_c, 0, 81, 64
2, 263808, Note_on_c, 0, 79, 99
2, 263868, Note_off_c, 0, 79, 64
2, 263872, Note_on_c, 0, 81, 99
2, 263932, Note_off_c, 0, 81, 64
2, 263936, Note_on_c, 0, 78, 99
2, 264060, Note_off_c, 0, 78, 64
2, 264064, Note_on_c, 0, 79, 99
2, 264188, Note_off_c, 0, 79, 64
2, 264192, Note_on_c, 0, 78, 99
2, 264380, Note_off_c, 0, 78, 64
2, 264384, Note_on_c, 0, 81, 99
2, 264572, Note_off_c, 0, 81, 64
2, 264576, Note_on_c, 0, 79, 99
2, 264764, Note_off_c, 0, 79, 64
2, 264768, Note_on_c, 0, 78, 99
2, 264956, Note_off_c, 0, 78, 64
2, 264960, Note_on_c, 0, 78, 99
2, 265148, Note_off_c, 0, 78, 64
2, 265152, Note_on_c, 0, 79, 99
2, 265340, Note_off_c, 0, 79, 64
2, 265344, Note_on_c, 0, 83, 99
2, 265532, Note_off_c, 0, 83, 64
2, 265536, Note_on_c, 0, 79, 99
2, 265724, Note_off_c, 0, 79, 64
2, 265728, Note_on_c, 0, 78, 99
2, 265916, Note_off_c, 0, 78, 64
2, 265920, Note_on_c, 0, 81, 99
2, 266108, Note_off_c, 0, 81, 64
2, 266112, Note_on_c, 0, 74, 99
2, 266300, Note_off_c, 0, 74, 64
2, 266304, Note_on_c, 0, 78, 99
2, 266492, Note_off_c, 0, 78, 64
2, 266496, Note_on_c, 0, 76, 99
2, 266684, Note_off_c, 0, 76, 64
2, 266688, Note_on_c, 0, 79, 99
2, 266876, Note_off_c, 0, 79, 64
2, 266880, Note_on_c, 0, 73, 99
2, 267068, Note_off_c, 0, 73, 64
2, 267072, Note_on_c, 0, 76, 99
2, 267260, Note_off_c, 0, 76, 64
2, 267264, Note_on_c, 0, 74, 99
2, 267644, Note_off_c, 0, 74, 64
2, 270336, Note_on_c, 0, 62, 99
2, 270524, Note_off_c, 0, 62, 64
2, 270528, Note_on_c, 0, 57, 99
2, 270716, Note_off_c, 0, 57, 64
2, 270720, Note_on_c, 0, 66, 99
2, 270908, Note_off_c, 0, 66, 64
2, 270912, Note_on_c, 0, 62, 99
2, 271100, Note_off_c, 0, 62, 64
2, 271104, Note_on_c, 0, 69, 99
2, 271292, Note_off_c, 0, 69, 64
2, 271296, Note_on_c, 0, 66, 99
2, 271484, Note_off_c, 0, 66, 64
2, 271488, Note_on_c, 0, 74, 99
2, 271676, Note_off_c, 0, 74, 64
2, 271680, Note_on_c, 0, 69, 99
2, 271868, Note_off_c, 0, 69, 64
2, 271872, Note_on_c, 0, 78, 99
2, 272060, Note_off_c, 0, 78, 64
2, 272064, Note_on_c, 0, 74, 99
2, 272252, Note_off_c, 0, 74, 64
2, 272256, Note_on_c, 0, 81, 99
2, 272444, Note_off_c, 0, 81, 64
2, 272448, Note_on_c, 0, 78, 99
2, 272636, Note_off_c, 0, 78, 64
2, 272640, Note_on_c, 0, 86, 99
2, 272828, Note_off_c, 0, 86, 64
2, 272832, Note_on_c, 0, 81, 99
2, 273020, Note_off_c, 0, 81, 64
2, 273024, Note_on_c, 0, 78, 99
2, 273212, Note_off_c, 0, 78, 64
2, 273216, Note_on_c, 0, 74, 99
2, 273404, Note_off_c, 0, 74, 64
2, 273408, Note_on_c, 0, 84, 99
2, 273408, Note_on_c, 0, 81, 99
2, 273408, Note_on_c, 0, 78, 99
2, 273408, Note_on_c, 0, 74, 99
2, 274172, Note_off_c, 0, 84, 64
2, 274172, Note_off_c, 0, 81, 64
2, 274172, Note_off_c, 0, 78, 64
2, 274172, Note_off_c, 0, 74, 64
2, 276480, Note_on_c, 0, 60, 99
2, 276668, Note_off_c, 0, 60, 64
2, 276672, Note_on_c, 0, 57, 99
2, 276860, Note_off_c, 0, 57, 64
2, 276864, Note_on_c, 0, 66, 99
2, 277052, Note_off_c, 0, 66, 64
2, 277056, Note_on_c, 0, 60, 99
2, 277244, Note_off_c, 0, 60, 64
2, 277248, Note_on_c, 0, 69, 99
2, 277436, Note_off_c, 0, 69, 64
2, 277440, Note_on_c, 0, 66, 99
2, 277628, Note_off_c, 0, 66, 64
2, 277632, Note_on_c, 0, 72, 99
2, 277820, Note_off_c, 0, 72, 64
2, 277824, Note_on_c, 0, 69, 99
2, 278012, Note_off_c, 0, 69, 64
2, 278016, Note_on_c, 0, 78, 99
2, 278204, Note_off_c, 0, 78, 64
2, 278208, Note_on_c, 0, 74, 99
2, 278396, Note_off_c, 0, 74, 64
2, 278400, Note_on_c, 0, 81, 99
2, 278588, Note_off_c, 0, 81, 64
2, 278592, Note_on_c, 0, 78, 99
2, 278780, Note_off_c, 0, 78, 64
2, 278784, Note_on_c, 0, 84, 99
2, 278972, Note_off_c, 0, 84, 64
2, 278976, Note_on_c, 0, 81, 99
2, 279164, Note_off_c, 0, 81, 64
2, 279168, Note_on_c, 0, 78, 99
2, 279356, Note_off_c, 0, 78, 64
2, 279360, Note_on_c, 0, 74, 99
2, 279548, Note_off_c, 0, 74, 64
2, 279552, Note_on_c, 0, 83, 99
2, 279552, Note_on_c, 0, 79, 99
2, 279552, Note_on_c, 0, 74, 99
2, 280316, Note_off_c, 0, 83, 64
2, 280316, Note_off_c, 0, 79, 64
2, 280316, Note_off_c, 0, 74, 64
2, 282624, Note_on_c, 0, 59, 99
2, 282812, Note_off_c, 0, 59, 64
2, 282816, Note_on_c, 0, 55, 99
2, 283004, Note_off_c, 0, 55, 64
2, 283008, Note_on_c, 0, 62, 99
2, 283196, Note_off_c, 0, 62, 64
2, 283200, Note_on_c, 0, 59, 99
2, 283388, Note_off_c, 0, 59, 64
2, 283392, Note_on_c, 0, 67, 99
2, 283580, Note_off_c, 0, 67, 64
2, 283584, Note_on_c, 0, 62, 99
2, 283772, Note_off_c, 0, 62, 64
2, 283776, Note_on_c, 0, 71, 99
2, 283964, Note_off_c, 0, 71, 64
2, 283968, Note_on_c, 0, 67, 99
2, 284156, Note_off_c, 0, 67, 64
2, 284160, Note_on_c, 0, 74, 99
2, 284348, Note_off_c, 0, 74, 64
2, 284352, Note_on_c, 0, 71, 99
2, 284540, Note_off_c, 0, 71, 64
2, 284544, Note_on_c, 0, 79, 99
2, 284732, Note_off_c, 0, 79, 64
2, 284736, Note_on_c, 0, 74, 99
2, 284924, Note_off_c, 0, 74, 64
2, 284928, Note_on_c, 0, 83, 99
2, 285116, Note_off_c, 0, 83, 64
2, 285120, Note_on_c, 0, 79, 99
2, 285308, Note_off_c, 0, 79, 64
2, 285312, Note_on_c, 0, 74, 99
2, 285500, Note_off_c, 0, 74, 64
2, 285504, Note_on_c, 0, 71, 99
2, 285692, Note_off_c, 0, 71, 64
2, 285696, Note_on_c, 0, 81, 99
2, 285696, Note_on_c, 0, 78, 99
2, 285696, Note_on_c, 0, 75, 99
2, 285696, Note_on_c, 0, 69, 99
2, 286460, Note_off_c, 0, 81, 64
2, 286460, Note_off_c, 0, 78, 64
2, 286460, Note_off_c, 0, 75, 64
2, 286460, Note_off_c, 0, 69, 64
2, 288768, Note_on_c, 0, 59, 99
2, 288956, Note_off_c, 0, 59, 64
2, 288960, Note_on_c, 0, 55, 99
2, 289148, Note_off_c, 0, 55, 64
2, 289152, Note_on_c, 0, 63, 99
2, 289340, Note_off_c, 0, 63, 64
2, 289344, Note_on_c, 0, 59, 99
2, 289532, Note_off_c, 0, 59, 64
2, 289536, Note_on_c, 0, 66, 99
2, 289724, Note_off_c, 0, 66, 64
2, 289728, Note_on_c, 0, 63, 99
2, 289916, Note_off_c, 0, 63, 64
2, 289920, Note_on_c, 0, 71, 99
2, 290108, Note_off_c, 0, 71, 64
2, 290112, Note_on_c, 0, 66, 99
2, 290300, Note_off_c, 0, 66, 64
2, 290304, Note_on_c, 0, 75, 99
2, 290492, Note_off_c, 0, 75, 64
2, 290496, Note_on_c, 0, 71, 99
2, 290684, Note_off_c, 0, 71, 64
2, 290688, Note_on_c, 0, 78, 99
2, 290876, Note_off_c, 0, 78, 64
2, 290880, Note_on_c, 0, 75, 99
2, 291068, Note_off_c, 0, 75, 64
2, 291072, Note_on_c, 0, 81, 99
2, 291260, Note_off_c, 0, 81, 64
2, 291264, Note_on_c, 0, 78, 99
2, 291452, Note_off_c, 0, 78, 64
2, 291456, Note_on_c, 0, 75, 99
2, 291644, Note_off_c, 0, 75, 64
2, 291648, Note_on_c, 0, 71, 99
2, 291836, Note_off_c, 0, 71, 64
2, 291840, Note_on_c, 0, 79, 99
2, 291840, Note_on_c, 0, 76, 99
2, 291840, Note_on_c, 0, 71, 99
2, 292604, Note_off_c, 0, 79, 64
2, 292604, Note_off_c, 0, 76, 64
2, 292604, Note_off_c, 0, 71, 64
2, 294912, Note_on_c, 0, 64, 99
2, 295100, Note_off_c, 0, 64, 64
2, 295104, Note_on_c, 0, 59, 99
2, 295292, Note_off_c, 0, 59, 64
2, 295296, Note_on_c, 0, 69, 99
2, 295484, Note_off_c, 0, 69, 64
2, 295488, Note_on_c, 0, 64, 99
2, 295676, Note_off_c, 0, 64, 64
2, 295680, Note_on_c, 0, 71, 99
2, 295868, Note_off_c, 0, 71, 64
2, 295872, Note_on_c, 0, 67, 99
2, 296060, Note_off_c, 0, 67, 64
2, 296064, Note_on_c, 0, 76, 99
2, 296252, Note_off_c, 0, 76, 64
2, 296256, Note_on_c, 0, 71, 99
2, 296444, Note_off_c, 0, 71, 64
2, 296448, Note_on_c, 0, 79, 99
2, 296636, Note_off_c, 0, 79, 64
2, 296640, Note_on_c, 0, 76, 99
2, 296828, Note_off_c, 0, 76, 64
2, 296832, Note_on_c, 0, 83, 99
2, 297020, Note_off_c, 0, 83, 64
2, 297024, Note_on_c, 0, 79, 99
2, 297212, Note_off_c, 0, 79, 64
2, 297216, Note_on_c, 0, 76, 99
2, 297404, Note_off_c, 0, 76, 64
2, 297408, Note_on_c, 0, 71, 99
2, 297596, Note_off_c, 0, 71, 64
2, 297600, Note_on_c, 0, 67, 99
2, 297788, Note_off_c, 0, 67, 64
2, 297792, Note_on_c, 0, 64, 99
2, 297980, Note_off_c, 0, 64, 64
2, 297984, Note_on_c, 0, 79, 99
2, 297984, Note_on_c, 0, 76, 99
2, 297984, Note_on_c, 0, 73, 99
2, 297984, Note_on_c, 0, 69, 99
2, 298748, Note_off_c, 0, 79, 64
2, 298748, Note_off_c, 0, 76, 64
2, 298748, Note_off_c, 0, 73, 64
2, 298748, Note_off_c, 0, 69, 64
2, 301824, Note_on_c, 0, 64, 99
2, 302012, Note_off_c, 0, 64, 64
2, 302016, Note_on_c, 0, 61, 99
2, 302204, Note_off_c, 0, 61, 64
2, 302208, Note_on_c, 0, 69, 99
2, 302396, Note_off_c, 0, 69, 64
2, 302400, Note_on_c, 0, 64, 99
2, 302588, Note_off_c, 0, 64, 64
2, 302592, Note_on_c, 0, 73, 99
2, 302780, Note_off_c, 0, 73, 64
2, 302784, Note_on_c, 0, 69, 99
2, 302972, Note_off_c, 0, 69, 64
2, 302976, Note_on_c, 0, 76, 99
2, 303164, Note_off_c, 0, 76, 64
2, 303168, Note_on_c, 0, 73, 99
2, 303356, Note_off_c, 0, 73, 64
2, 303360, Note_on_c, 0, 79, 99
2, 303548, Note_off_c, 0, 79, 64
2, 303552, Note_on_c, 0, 76, 99
2, 303740, Note_off_c, 0, 76, 64
2, 303744, Note_on_c, 0, 73, 99
2, 303932, Note_off_c, 0, 73, 64
2, 303936, Note_on_c, 0, 67, 99
2, 304124, Note_off_c, 0, 67, 64
2, 304128, Note_on_c, 0, 66, 99
2, 304128, Note_on_c, 0, 62, 99
2, 304316, Note_off_c, 0, 62, 64
2, 304320, Note_on_c, 0, 69, 99
2, 304508, Note_off_c, 0, 66, 64
2, 304508, Note_off_c, 0, 69, 64
2, 304512, Note_on_c, 0, 66, 66
2, 304700, Note_off_c, 0, 66, 64
2, 304704, Note_on_c, 0, 69, 66
2, 304892, Note_off_c, 0, 69, 64
2, 304896, Note_on_c, 0, 62, 70
2, 305084, Note_off_c, 0, 62, 64
2, 305088, Note_on_c, 0, 69, 70
2, 305276, Note_off_c, 0, 69, 64
2, 305280, Note_on_c, 0, 66, 70
2, 305280, Note_on_c, 0, 81, 70
2, 305340, Note_off_c, 0, 81, 64
2, 305344, Note_on_c, 0, 83, 70
2, 305404, Note_off_c, 0, 83, 64
2, 305408, Note_on_c, 0, 81, 70
2, 305468, Note_off_c, 0, 66, 64
2, 305468, Note_off_c, 0, 81, 64
2, 305472, Note_on_c, 0, 69, 70
2, 305472, Note_on_c, 0, 83, 70
2, 305532, Note_off_c, 0, 83, 64
2, 305536, Note_on_c, 0, 79, 70
2, 305596, Note_off_c, 0, 79, 64
2, 305600, Note_on_c, 0, 81, 70
2, 305660, Note_off_c, 0, 69, 64
2, 305660, Note_off_c, 0, 81, 64
2, 305664, Note_on_c, 0, 83, 70
2, 305664, Note_on_c, 0, 62, 70
2, 305852, Note_off_c, 0, 62, 64
2, 305856, Note_on_c, 0, 71, 70
2, 306044, Note_off_c, 0, 83, 64
2, 306044, Note_off_c, 0, 71, 64
2, 306048, Note_on_c, 0, 79, 70
2, 306048, Note_on_c, 0, 67, 70
2, 306236, Note_off_c, 0, 67, 64
2, 306240, Note_on_c, 0, 71, 70
2, 306428, Note_off_c, 0, 79, 64
2, 306428, Note_off_c, 0, 71, 64
2, 306432, Note_on_c, 0, 74, 70
2, 306432, Note_on_c, 0, 62, 70
2, 306620, Note_off_c, 0, 62, 64
2, 306624, Note_on_c, 0, 71, 70
2, 306812, Note_off_c, 0, 74, 64
2, 306812, Note_off_c, 0, 71, 64
2, 306816, Note_on_c, 0, 83, 70
2, 306816, Note_on_c, 0, 67, 70
2, 307004, Note_off_c, 0, 67, 64
2, 307008, Note_on_c, 0, 71, 70
2, 307196, Note_off_c, 0, 83, 64
2, 307196, Note_off_c, 0, 71, 64
2, 307200, Note_on_c, 0, 81, 70
2, 307200, Note_on_c, 0, 62, 70
2, 307388, Note_off_c, 0, 81, 64
2, 307388, Note_off_c, 0, 62, 64
2, 307392, Note_on_c, 0, 78, 70
2, 307392, Note_on_c, 0, 69, 70
2, 307580, Note_off_c, 0, 78, 64
2, 307580, Note_off_c, 0, 69, 64
2, 307584, Note_on_c, 0, 74, 70
2, 307584, Note_on_c, 0, 66, 70
2, 307772, Note_off_c, 0, 66, 64
2, 307776, Note_on_c, 0, 69, 70
2, 307964, Note_off_c, 0, 74, 64
2, 307964, Note_off_c, 0, 69, 64
2, 307968, Note_on_c, 0, 62, 70
2, 308156, Note_off_c, 0, 62, 64
2, 308160, Note_on_c, 0, 69, 70
2, 308348, Note_off_c, 0, 69, 64
2, 308352, Note_on_c, 0, 66, 70
2, 308352, Note_on_c, 0, 81, 70
2, 308412, Note_off_c, 0, 81, 64
2, 308416, Note_on_c, 0, 83, 70
2, 308476, Note_off_c, 0, 83, 64
2, 308480, Note_on_c, 0, 81, 70
2, 308540, Note_off_c, 0, 66, 64
2, 308540, Note_off_c, 0, 81, 64
2, 308544, Note_on_c, 0, 69, 70
2, 308544, Note_on_c, 0, 83, 70
2, 308604, Note_off_c, 0, 83, 64
2, 308608, Note_on_c, 0, 79, 70
2, 308668, Note_off_c, 0, 79, 64
2, 308672, Note_on_c, 0, 81, 70
2, 308732, Note_off_c, 0, 69, 64
2, 308732, Note_off_c, 0, 81, 64
2, 308736, Note_on_c, 0, 83, 70
2, 308736, Note_on_c, 0, 62, 70
2, 308924, Note_off_c, 0, 83, 64
2, 308924, Note_off_c, 0, 62, 64
2, 308928, Note_on_c, 0, 79, 70
2, 308928, Note_on_c, 0, 71, 70
2, 309116, Note_off_c, 0, 79, 64
2, 309116, Note_off_c, 0, 71, 64
2, 309120, Note_on_c, 0, 74, 70
2, 309120, Note_on_c, 0, 67, 70
2, 309308, Note_off_c, 0, 74, 64
2, 309308, Note_off_c, 0, 67, 64
2, 309312, Note_on_c, 0, 74, 70
2, 309312, Note_on_c, 0, 71, 70
2, 309500, Note_off_c, 0, 74, 64
2, 309500, Note_off_c, 0, 71, 64
2, 309504, Note_on_c, 0, 74, 70
2, 309504, Note_on_c, 0, 62, 70
2, 309692, Note_off_c, 0, 62, 64
2, 309696, Note_on_c, 0, 71, 70
2, 309884, Note_off_c, 0, 74, 64
2, 309884, Note_off_c, 0, 71, 64
2, 309888, Note_on_c, 0, 83, 70
2, 309888, Note_on_c, 0, 67, 70
2, 310076, Note_off_c, 0, 67, 64
2, 310080, Note_on_c, 0, 71, 70
2, 310268, Note_off_c, 0, 83, 64
2, 310268, Note_off_c, 0, 71, 64
2, 310272, Note_on_c, 0, 81, 70
2, 310272, Note_on_c, 0, 62, 70
2, 310460, Note_off_c, 0, 81, 64
2, 310460, Note_off_c, 0, 62, 64
2, 310464, Note_on_c, 0, 78, 70
2, 310464, Note_on_c, 0, 69, 70
2, 310652, Note_off_c, 0, 78, 64
2, 310652, Note_off_c, 0, 69, 64
2, 310656, Note_on_c, 0, 74, 70
2, 310656, Note_on_c, 0, 66, 70
2, 310844, Note_off_c, 0, 66, 64
2, 310848, Note_on_c, 0, 69, 70
2, 311036, Note_off_c, 0, 74, 64
2, 311036, Note_off_c, 0, 69, 64
2, 311040, Note_on_c, 0, 62, 70
2, 311228, Note_off_c, 0, 62, 64
2, 311232, Note_on_c, 0, 69, 70
2, 311420, Note_off_c, 0, 69, 64
2, 311424, Note_on_c, 0, 66, 70
2, 311424, Note_on_c, 0, 81, 70
2, 311484, Note_off_c, 0, 81, 64
2, 311488, Note_on_c, 0, 83, 70
2, 311548, Note_off_c, 0, 83, 64
2, 311552, Note_on_c, 0, 81, 70
2, 311612, Note_off_c, 0, 66, 64
2, 311612, Note_off_c, 0, 81, 64
2, 311616, Note_on_c, 0, 69, 70
2, 311616, Note_on_c, 0, 83, 70
2, 311676, Note_off_c, 0, 83, 64
2, 311680, Note_on_c, 0, 81, 70
2, 311740, Note_off_c, 0, 81, 64
2, 311744, Note_on_c, 0, 83, 70
2, 311804, Note_off_c, 0, 69, 64
2, 311808, Note_on_c, 0, 79, 70
2, 311808, Note_on_c, 0, 61, 70
2, 311812, Note_off_c, 0, 83, 64
2, 311996, Note_off_c, 0, 79, 64
2, 311996, Note_off_c, 0, 61, 64
2, 312000, Note_on_c, 0, 76, 70
2, 312000, Note_on_c, 0, 69, 70
2, 312188, Note_off_c, 0, 76, 64
2, 312188, Note_off_c, 0, 69, 64
2, 312192, Note_on_c, 0, 73, 70
2, 312192, Note_on_c, 0, 64, 70
2, 312380, Note_off_c, 0, 73, 64
2, 312380, Note_off_c, 0, 64, 64
2, 312384, Note_on_c, 0, 76, 70
2, 312384, Note_on_c, 0, 69, 70
2, 312572, Note_off_c, 0, 76, 64
2, 312572, Note_off_c, 0, 69, 64
2, 312576, Note_on_c, 0, 69, 70
2, 312576, Note_on_c, 0, 61, 70
2, 312764, Note_off_c, 0, 69, 64
2, 312764, Note_off_c, 0, 61, 64
2, 312768, Note_on_c, 0, 73, 70
2, 312768, Note_on_c, 0, 69, 70
2, 312956, Note_off_c, 0, 73, 64
2, 312956, Note_off_c, 0, 69, 64
2, 312960, Note_on_c, 0, 76, 70
2, 312960, Note_on_c, 0, 64, 70
2, 313148, Note_off_c, 0, 76, 64
2, 313148, Note_off_c, 0, 64, 64
2, 313152, Note_on_c, 0, 79, 70
2, 313152, Note_on_c, 0, 69, 70
2, 313340, Note_off_c, 0, 79, 64
2, 313340, Note_off_c, 0, 69, 64
2, 313344, Note_on_c, 0, 78, 70
2, 313344, Note_on_c, 0, 62, 70
2, 313532, Note_off_c, 0, 78, 64
2, 313532, Note_off_c, 0, 62, 64
2, 313536, Note_on_c, 0, 74, 70
2, 313536, Note_on_c, 0, 69, 70
2, 313724, Note_off_c, 0, 74, 64
2, 313724, Note_off_c, 0, 69, 64
2, 313728, Note_on_c, 0, 81, 70
2, 313728, Note_on_c, 0, 66, 70
2, 313916, Note_off_c, 0, 81, 64
2, 313916, Note_off_c, 0, 66, 64
2, 313920, Note_on_c, 0, 78, 70
2, 313920, Note_on_c, 0, 69, 70
2, 314108, Note_off_c, 0, 78, 64
2, 314108, Note_off_c, 0, 69, 64
2, 314112, Note_on_c, 0, 86, 70
2, 314112, Note_on_c, 0, 62, 70
2, 314300, Note_off_c, 0, 86, 64
2, 314300, Note_off_c, 0, 62, 64
2, 314304, Note_on_c, 0, 81, 70
2, 314304, Note_on_c, 0, 69, 70
2, 314492, Note_off_c, 0, 81, 64
2, 314492, Note_off_c, 0, 69, 64
2, 314496, Note_on_c, 0, 78, 70
2, 314496, Note_on_c, 0, 66, 70
2, 314684, Note_off_c, 0, 78, 64
2, 314684, Note_off_c, 0, 66, 64
2, 314688, Note_on_c, 0, 74, 70
2, 314688, Note_on_c, 0, 69, 70
2, 314876, Note_off_c, 0, 74, 64
2, 314876, Note_off_c, 0, 69, 64
2, 314880, Note_on_c, 0, 76, 70
2, 315068, Note_off_c, 0, 76, 64
2, 315072, Note_on_c, 0, 71, 70
2, 315260, Note_off_c, 0, 71, 64
2, 315264, Note_on_c, 0, 79, 70
2, 315452, Note_off_c, 0, 79, 64
2, 315456, Note_on_c, 0, 76, 70
2, 315644, Note_off_c, 0, 76, 64
2, 315648, Note_on_c, 0, 83, 70
2, 315836, Note_off_c, 0, 83, 64
2, 315840, Note_on_c, 0, 79, 70
2, 316028, Note_off_c, 0, 79, 64
2, 316032, Note_on_c, 0, 76, 70
2, 316220, Note_off_c, 0, 76, 64
2, 316224, Note_on_c, 0, 74, 70
2, 316412, Note_off_c, 0, 74, 64
2, 316416, Note_on_c, 0, 81, 70
2, 316416, Note_on_c, 0, 76, 70
2, 316416, Note_on_c, 0, 73, 70
2, 317180, Note_off_c, 0, 81, 64
2, 317180, Note_off_c, 0, 76, 64
2, 317180, Note_off_c, 0, 73, 64
2, 330432, Note_on_c, 0, 81, 70
2, 330620, Note_off_c, 0, 81, 64
2, 330624, Note_on_c, 0, 80, 70
2, 330812, Note_off_c, 0, 80, 64
2, 330816, Note_on_c, 0, 81, 70
2, 331004, Note_off_c, 0, 81, 64
2, 331008, Note_on_c, 0, 83, 70
2, 331196, Note_off_c, 0, 83, 64
2, 331200, Note_on_c, 0, 81, 70
2, 331388, Note_off_c, 0, 81, 64
2, 331392, Note_on_c, 0, 80, 70
2, 331580, Note_off_c, 0, 80, 64
2, 331584, Note_on_c, 0, 81, 70
2, 331772, Note_off_c, 0, 81, 64
2, 331776, Note_on_c, 0, 80, 70
2, 331964, Note_off_c, 0, 80, 64
2, 331968, Note_on_c, 0, 81, 70
2, 332156, Note_off_c, 0, 81, 64
2, 332160, Note_on_c, 0, 83, 70
2, 332348, Note_off_c, 0, 83, 64
2, 332352, Note_on_c, 0, 81, 70
2, 332540, Note_off_c, 0, 81, 64
2, 332544, Note_on_c, 0, 79, 70
2, 332732, Note_off_c, 0, 79, 64
2, 332736, Note_on_c, 0, 78, 70
2, 332924, Note_off_c, 0, 78, 64
2, 332928, Note_on_c, 0, 76, 70
2, 333116, Note_off_c, 0, 76, 64
2, 333120, Note_on_c, 0, 74, 70
2, 333308, Note_off_c, 0, 74, 64
2, 333312, Note_on_c, 0, 73, 70
2, 333500, Note_off_c, 0, 73, 64
2, 333504, Note_on_c, 0, 76, 70
2, 333692, Note_off_c, 0, 76, 64
2, 333696, Note_on_c, 0, 74, 70
2, 333884, Note_off_c, 0, 74, 64
2, 333888, Note_on_c, 0, 78, 70
2, 334076, Note_off_c, 0, 78, 64
2, 334080, Note_on_c, 0, 76, 70
2, 334268, Note_off_c, 0, 76, 64
2, 334272, Note_on_c, 0, 79, 70
2, 334460, Note_off_c, 0, 79, 64
2, 334464, Note_on_c, 0, 78, 70
2, 334652, Note_off_c, 0, 78, 64
2, 334656, Note_on_c, 0, 81, 70
2, 334844, Note_off_c, 0, 81, 64
2, 334848, Note_on_c, 0, 79, 70
2, 335036, Note_off_c, 0, 79, 64
2, 335040, Note_on_c, 0, 78, 70
2, 335228, Note_off_c, 0, 78, 64
2, 335232, Note_on_c, 0, 76, 70
2, 335420, Note_off_c, 0, 76, 64
2, 335424, Note_on_c, 0, 74, 70
2, 335612, Note_off_c, 0, 74, 64
2, 335616, Note_on_c, 0, 73, 70
2, 335804, Note_off_c, 0, 73, 64
2, 335808, Note_on_c, 0, 71, 70
2, 335996, Note_off_c, 0, 71, 64
2, 336000, Note_on_c, 0, 69, 70
2, 336188, Note_off_c, 0, 69, 64
2, 336192, Note_on_c, 0, 67, 70
2, 336380, Note_off_c, 0, 67, 64
2, 336384, Note_on_c, 0, 66, 70
2, 336572, Note_off_c, 0, 66, 64
2, 336576, Note_on_c, 0, 81, 70
2, 336764, Note_off_c, 0, 81, 64
2, 336768, Note_on_c, 0, 79, 70
2, 336956, Note_off_c, 0, 79, 64
2, 336960, Note_on_c, 0, 78, 70
2, 337148, Note_off_c, 0, 78, 64
2, 337152, Note_on_c, 0, 76, 70
2, 337340, Note_off_c, 0, 76, 64
2, 337344, Note_on_c, 0, 74, 70
2, 337532, Note_off_c, 0, 74, 64
2, 337536, Note_on_c, 0, 73, 70
2, 337724, Note_off_c, 0, 73, 64
2, 337728, Note_on_c, 0, 74, 70
2, 337916, Note_off_c, 0, 74, 64
2, 337920, Note_on_c, 0, 79, 71
2, 338108, Note_off_c, 0, 79, 64
2, 338112, Note_on_c, 0, 86, 74
2, 338300, Note_off_c, 0, 86, 64
2, 338304, Note_on_c, 0, 85, 78
2, 338492, Note_off_c, 0, 85, 64
2, 338496, Note_on_c, 0, 83, 81
2, 338684, Note_off_c, 0, 83, 64
2, 338688, Note_on_c, 0, 81, 85
2, 338876, Note_off_c, 0, 81, 64
2, 338880, Note_on_c, 0, 79, 88
2, 339068, Note_off_c, 0, 79, 64
2, 339072, Note_on_c, 0, 78, 92
2, 339260, Note_off_c, 0, 78, 64
2, 339264, Note_on_c, 0, 79, 95
2, 339452, Note_off_c, 0, 79, 64
2, 339456, Note_on_c, 0, 78, 99
2, 339644, Note_off_c, 0, 78, 64
2, 339648, Note_on_c, 0, 79, 99
2, 339836, Note_off_c, 0, 79, 64
2, 339840, Note_on_c, 0, 80, 99
2, 340028, Note_off_c, 0, 80, 64
2, 340032, Note_on_c, 0, 81, 99
2, 340220, Note_off_c, 0, 81, 64
2, 340224, Note_on_c, 0, 79, 99
2, 340412, Note_off_c, 0, 79, 64
2, 340416, Note_on_c, 0, 78, 99
2, 340604, Note_off_c, 0, 78, 64
2, 340608, Note_on_c, 0, 76, 99
2, 340796, Note_off_c, 0, 76, 64
2, 340800, Note_on_c, 0, 74, 99
2, 340988, Note_off_c, 0, 74, 64
2, 340992, Note_on_c, 0, 75, 97
2, 341180, Note_off_c, 0, 75, 64
2, 341184, Note_on_c, 0, 76, 94
2, 341372, Note_off_c, 0, 76, 64
2, 341376, Note_on_c, 0, 78, 90
2, 341564, Note_off_c, 0, 78, 64
2, 341568, Note_on_c, 0, 79, 87
2, 341756, Note_off_c, 0, 79, 64
2, 341760, Note_on_c, 0, 78, 83
2, 341948, Note_off_c, 0, 78, 64
2, 341952, Note_on_c, 0, 76, 79
2, 342140, Note_off_c, 0, 76, 64
2, 342144, Note_on_c, 0, 74, 76
2, 342332, Note_off_c, 0, 74, 64
2, 342336, Note_on_c, 0, 73, 72
2, 342524, Note_off_c, 0, 73, 64
2, 342528, Note_on_c, 0, 74, 70
2, 342528, Note_on_c, 0, 62, 70
2, 342716, Note_off_c, 0, 62, 64
2, 342720, Note_on_c, 0, 69, 70
2, 342908, Note_off_c, 0, 74, 64
2, 342908, Note_off_c, 0, 69, 64
2, 342912, Note_on_c, 0, 74, 70
2, 342912, Note_on_c, 0, 66, 70
2, 343100, Note_off_c, 0, 66, 64
2, 343104, Note_on_c, 0, 69, 70
2, 343104, Note_on_c, 0, 69, 70
2, 343292, Note_off_c, 0, 74, 64
2, 343292, Note_off_c, 0, 69, 64
2, 343292, Note_off_c, 0, 69, 64
2, 343296, Note_on_c, 0, 74, 70
2, 343296, Note_on_c, 0, 62, 70
2, 343484, Note_off_c, 0, 62, 64
2, 343488, Note_on_c, 0, 69, 70
2, 343676, Note_off_c, 0, 74, 64
2, 343676, Note_off_c, 0, 69, 64
2, 343680, Note_on_c, 0, 74, 70
2, 343680, Note_on_c, 0, 66, 70
2, 343868, Note_off_c, 0, 66, 64
2, 343872, Note_on_c, 0, 69, 70
2, 344060, Note_off_c, 0, 74, 64
2, 344060, Note_off_c, 0, 69, 64
2, 344064, Note_on_c, 0, 74, 70
2, 344064, Note_on_c, 0, 64, 70
2, 344252, Note_off_c, 0, 74, 64
2, 344252, Note_off_c, 0, 64, 64
2, 344256, Note_on_c, 0, 73, 70
2, 344256, Note_on_c, 0, 69, 70
2, 344444, Note_off_c, 0, 73, 64
2, 344444, Note_off_c, 0, 69, 64
2, 344448, Note_on_c, 0, 76, 70
2, 344448, Note_on_c, 0, 67, 70
2, 344636, Note_off_c, 0, 76, 64
2, 344636, Note_off_c, 0, 67, 64
2, 344640, Note_on_c, 0, 74, 70
2, 344640, Note_on_c, 0, 69, 70
2, 344828, Note_off_c, 0, 74, 64
2, 344828, Note_off_c, 0, 69, 64
2, 344832, Note_on_c, 0, 73, 70
2, 344832, Note_on_c, 0, 64, 70
2, 345020, Note_off_c, 0, 64, 64
2, 345024, Note_on_c, 0, 69, 70
2, 345212, Note_off_c, 0, 69, 64
2, 345216, Note_on_c, 0, 67, 70
2, 345404, Note_off_c, 0, 67, 64
2, 345408, Note_on_c, 0, 69, 70
2, 345596, Note_off_c, 0, 73, 64
2, 345596, Note_off_c, 0, 69, 64
2, 345600, Note_on_c, 0, 62, 70
2, 345788, Note_off_c, 0, 62, 64
2, 345792, Note_on_c, 0, 69, 70
2, 345980, Note_off_c, 0, 69, 64
2, 345984, Note_on_c, 0, 74, 70
2, 345984, Note_on_c, 0, 66, 70
2, 346172, Note_off_c, 0, 66, 64
2, 346176, Note_on_c, 0, 69, 70
2, 346364, Note_off_c, 0, 74, 64
2, 346364, Note_off_c, 0, 69, 64
2, 346368, Note_on_c, 0, 74, 70
2, 346368, Note_on_c, 0, 62, 70
2, 346556, Note_off_c, 0, 62, 64
2, 346560, Note_on_c, 0, 69, 70
2, 346748, Note_off_c, 0, 74, 64
2, 346748, Note_off_c, 0, 69, 64
2, 346752, Note_on_c, 0, 78, 70
2, 346752, Note_on_c, 0, 66, 70
2, 346940, Note_off_c, 0, 78, 64
2, 346940, Note_off_c, 0, 66, 64
2, 346944, Note_on_c, 0, 74, 70
2, 346944, Note_on_c, 0, 69, 70
2, 347132, Note_off_c, 0, 74, 64
2, 347132, Note_off_c, 0, 69, 64
2, 347136, Note_on_c, 0, 81, 70
2, 347136, Note_on_c, 0, 61, 70
2, 347324, Note_off_c, 0, 61, 64
2, 347328, Note_on_c, 0, 69, 70
2, 347516, Note_off_c, 0, 69, 64
2, 347520, Note_on_c, 0, 64, 70
2, 347708, Note_off_c, 0, 64, 64
2, 347712, Note_on_c, 0, 69, 70
2, 347900, Note_off_c, 0, 81, 64
2, 347900, Note_off_c, 0, 69, 64
2, 347904, Note_on_c, 0, 79, 70
2, 347904, Note_on_c, 0, 61, 70
2, 348092, Note_off_c, 0, 61, 64
2, 348096, Note_on_c, 0, 69, 70
2, 348284, Note_off_c, 0, 79, 64
2, 348284, Note_off_c, 0, 69, 64
2, 348288, Note_on_c, 0, 64, 70
2, 348476, Note_off_c, 0, 64, 64
2, 348480, Note_on_c, 0, 69, 70
2, 348668, Note_off_c, 0, 69, 64
2, 348672, Note_on_c, 0, 62, 70
2, 348860, Note_off_c, 0, 62, 64
2, 348864, Note_on_c, 0, 69, 70
2, 349052, Note_off_c, 0, 69, 64
2, 349056, Note_on_c, 0, 74, 70
2, 349056, Note_on_c, 0, 66, 70
2, 349244, Note_off_c, 0, 66, 64
2, 349248, Note_on_c, 0, 69, 70
2, 349436, Note_off_c, 0, 74, 64
2, 349436, Note_off_c, 0, 69, 64
2, 349440, Note_on_c, 0, 74, 70
2, 349440, Note_on_c, 0, 62, 70
2, 349628, Note_off_c, 0, 62, 64
2, 349632, Note_on_c, 0, 69, 70
2, 349820, Note_off_c, 0, 74, 64
2, 349820, Note_off_c, 0, 69, 64
2, 349824, Note_on_c, 0, 74, 70
2, 349824, Note_on_c, 0, 66, 70
2, 350012, Note_off_c, 0, 66, 64
2, 350016, Note_on_c, 0, 69, 70
2, 350204, Note_off_c, 0, 74, 64
2, 350204, Note_off_c, 0, 69, 64
2, 350208, Note_on_c, 0, 74, 70
2, 350208, Note_on_c, 0, 64, 70
2, 350396, Note_off_c, 0, 74, 64
2, 350396, Note_off_c, 0, 64, 64
2, 350400, Note_on_c, 0, 73, 70
2, 350400, Note_on_c, 0, 69, 70
2, 350588, Note_off_c, 0, 73, 64
2, 350588, Note_off_c, 0, 69, 64
2, 350592, Note_on_c, 0, 76, 70
2, 350592, Note_on_c, 0, 67, 70
2, 350780, Note_off_c, 0, 76, 64
2, 350780, Note_off_c, 0, 67, 64
2, 350784, Note_on_c, 0, 74, 70
2, 350784, Note_on_c, 0, 69, 70
2, 350972, Note_off_c, 0, 74, 64
2, 350972, Note_off_c, 0, 69, 64
2, 350976, Note_on_c, 0, 73, 70
2, 350976, Note_on_c, 0, 64, 70
2, 351164, Note_off_c, 0, 64, 64
2, 351168, Note_on_c, 0, 69, 70
2, 351356, Note_off_c, 0, 69, 64
2, 351360, Note_on_c, 0, 67, 70
2, 351548, Note_off_c, 0, 67, 64
2, 351552, Note_on_c, 0, 69, 70
2, 351740, Note_off_c, 0, 73, 64
2, 351740, Note_off_c, 0, 69, 64
2, 351744, Note_on_c, 0, 62, 70
2, 351932, Note_off_c, 0, 62, 64
2, 351936, Note_on_c, 0, 69, 70
2, 352124, Note_off_c, 0, 69, 64
2, 352128, Note_on_c, 0, 74, 70
2, 352128, Note_on_c, 0, 66, 70
2, 352316, Note_off_c, 0, 66, 64
2, 352320, Note_on_c, 0, 69, 70
2, 352508, Note_off_c, 0, 74, 64
2, 352508, Note_off_c, 0, 69, 64
2, 352512, Note_on_c, 0, 74, 70
2, 352512, Note_on_c, 0, 62, 70
2, 352700, Note_off_c, 0, 62, 64
2, 352704, Note_on_c, 0, 69, 70
2, 352892, Note_off_c, 0, 74, 64
2, 352892, Note_off_c, 0, 69, 64
2, 352896, Note_on_c, 0, 78, 70
2, 352896, Note_on_c, 0, 66, 70
2, 353084, Note_off_c, 0, 78, 64
2, 353084, Note_off_c, 0, 66, 64
2, 353088, Note_on_c, 0, 74, 70
2, 353088, Note_on_c, 0, 69, 70
2, 353276, Note_off_c, 0, 74, 64
2, 353276, Note_off_c, 0, 69, 64
2, 353280, Note_on_c, 0, 81, 70
2, 353280, Note_on_c, 0, 61, 70
2, 353468, Note_off_c, 0, 61, 64
2, 353472, Note_on_c, 0, 69, 70
2, 353660, Note_off_c, 0, 69, 64
2, 353664, Note_on_c, 0, 64, 70
2, 353852, Note_off_c, 0, 64, 64
2, 353856, Note_on_c, 0, 69, 70
2, 354044, Note_off_c, 0, 81, 64
2, 354044, Note_off_c, 0, 69, 64
2, 354048, Note_on_c, 0, 79, 70
2, 354048, Note_on_c, 0, 61, 70
2, 354236, Note_off_c, 0, 61, 64
2, 354240, Note_on_c, 0, 69, 70
2, 354428, Note_off_c, 0, 79, 64
2, 354428, Note_off_c, 0, 69, 64
2, 354432, Note_on_c, 0, 64, 70
2, 354620, Note_off_c, 0, 64, 64
2, 354624, Note_on_c, 0, 69, 70
2, 354812, Note_off_c, 0, 69, 64
2, 354816, Note_on_c, 0, 62, 88
2, 354816, Note_on_c, 0, 78, 88
2, 355004, Note_off_c, 0, 78, 64
2, 355008, Note_on_c, 0, 74, 88
2, 355196, Note_off_c, 0, 74, 64
2, 355200, Note_on_c, 0, 78, 88
2, 355388, Note_off_c, 0, 78, 64
2, 355392, Note_on_c, 0, 81, 88
2, 355580, Note_off_c, 0, 62, 64
2, 355580, Note_off_c, 0, 81, 64
2, 355584, Note_on_c, 0, 86, 88
2, 355772, Note_off_c, 0, 86, 64
2, 355776, Note_on_c, 0, 84, 88
2, 355964, Note_off_c, 0, 84, 64
2, 355968, Note_on_c, 0, 83, 88
2, 356156, Note_off_c, 0, 83, 64
2, 356160, Note_on_c, 0, 82, 88
2, 356348, Note_off_c, 0, 82, 64
2, 356352, Note_on_c, 0, 83, 88
2, 356540, Note_off_c, 0, 83, 64
2, 356544, Note_on_c, 0, 71, 88
2, 356732, Note_off_c, 0, 71, 64
2, 356736, Note_on_c, 0, 74, 88
2, 356924, Note_off_c, 0, 74, 64
2, 356928, Note_on_c, 0, 79, 88
2, 357116, Note_off_c, 0, 79, 64
2, 357120, Note_on_c, 0, 83, 88
2, 357308, Note_off_c, 0, 83, 64
2, 357312, Note_on_c, 0, 81, 88
2, 357500, Note_off_c, 0, 81, 64
2, 357504, Note_on_c, 0, 79, 88
2, 357692, Note_off_c, 0, 79, 64
2, 357696, Note_on_c, 0, 78, 88
2, 357884, Note_off_c, 0, 78, 64
2, 357888, Note_on_c, 0, 79, 88
2, 358076, Note_off_c, 0, 79, 64
2, 358080, Note_on_c, 0, 67, 88
2, 358268, Note_off_c, 0, 67, 64
2, 358272, Note_on_c, 0, 71, 88
2, 358460, Note_off_c, 0, 71, 64
2, 358464, Note_on_c, 0, 76, 88
2, 358652, Note_off_c, 0, 76, 64
2, 358656, Note_on_c, 0, 79, 88
2, 358844, Note_off_c, 0, 79, 64
2, 358848, Note_on_c, 0, 78, 88
2, 359036, Note_off_c, 0, 78, 64
2, 359040, Note_on_c, 0, 76, 88
2, 359228, Note_off_c, 0, 76, 64
2, 359232, Note_on_c, 0, 75, 88
2, 359420, Note_off_c, 0, 75, 64
2, 359424, Note_on_c, 0, 76, 87
2, 359612, Note_off_c, 0, 76, 64
2, 359616, Note_on_c, 0, 79, 85
2, 359804, Note_off_c, 0, 79, 64
2, 359808, Note_on_c, 0, 83, 83
2, 359996, Note_off_c, 0, 83, 64
2, 360000, Note_on_c, 0, 79, 80
2, 360188, Note_off_c, 0, 79, 64
2, 360192, Note_on_c, 0, 78, 78
2, 360380, Note_off_c, 0, 78, 64
2, 360384, Note_on_c, 0, 74, 76
2, 360572, Note_off_c, 0, 74, 64
2, 360576, Note_on_c, 0, 76, 73
2, 360764, Note_off_c, 0, 76, 64
2, 360768, Note_on_c, 0, 73, 71
2, 360956, Note_off_c, 0, 73, 64
2, 360960, Note_on_c, 0, 74, 70
2, 360960, Note_on_c, 0, 69, 70
2, 360960, Note_on_c, 0, 66, 70
2, 361724, Note_off_c, 0, 74, 64
2, 361724, Note_off_c, 0, 69, 64
2, 361724, Note_off_c, 0, 66, 64
2, 362112, Note_on_c, 0, 78, 70
2, 362112, Note_on_c, 0, 74, 70
2, 362112, Note_on_c, 0, 69, 70
2, 362492, Note_off_c, 0, 78, 64
2, 362492, Note_off_c, 0, 74, 64
2, 362492, Note_off_c, 0, 69, 64
2, 362496, Note_on_c, 0, 79, 71
2, 362496, Note_on_c, 0, 74, 71
2, 362496, Note_on_c, 0, 71, 71
2, 363260, Note_off_c, 0, 79, 64
2, 363260, Note_off_c, 0, 74, 64
2, 363260, Note_off_c, 0, 71, 64
2, 363648, Note_on_c, 0, 81, 78
2, 363648, Note_on_c, 0, 74, 78
2, 364028, Note_off_c, 0, 81, 64
2, 364028, Note_off_c, 0, 74, 64
2, 364032, Note_on_c, 0, 83, 81
2, 364032, Note_on_c, 0, 79, 81
2, 364032, Note_on_c, 0, 74, 81
2, 364796, Note_off_c, 0, 83, 64
2, 364796, Note_off_c, 0, 79, 64
2, 364796, Note_off_c, 0, 74, 64
2, 364800, Note_on_c, 0, 85, 86
2, 364800, Note_on_c, 0, 79, 86
2, 364800, Note_on_c, 0, 76, 86
2, 365180, Note_off_c, 0, 85, 64
2, 365180, Note_off_c, 0, 79, 64
2, 365180, Note_off_c, 0, 76, 64
2, 365184, Note_on_c, 0, 86, 89
2, 365184, Note_on_c, 0, 78, 89
2, 365184, Note_on_c, 0, 74, 89
2, 365564, Note_off_c, 0, 86, 64
2, 365564, Note_off_c, 0, 78, 64
2, 365564, Note_off_c, 0, 74, 64
2, 365568, Note_on_c, 0, 79, 91
2, 365756, Note_off_c, 0, 79, 64
2, 365760, Note_on_c, 0, 76, 92
2, 365948, Note_off_c, 0, 76, 64
2, 365952, Note_on_c, 0, 73, 94
2, 366140, Note_off_c, 0, 73, 64
2, 366144, Note_on_c, 0, 76, 95
2, 366332, Note_off_c, 0, 76, 64
2, 366336, Note_on_c, 0, 69, 96
2, 366524, Note_off_c, 0, 69, 64
2, 366528, Note_on_c, 0, 76, 98
2, 366716, Note_off_c, 0, 76, 64
2, 366720, Note_on_c, 0, 79, 99
2, 366908, Note_off_c, 0, 79, 64
2, 366912, Note_on_c, 0, 76, 100
2, 367100, Note_off_c, 0, 76, 64
2, 367104, Note_on_c, 0, 74, 99
2, 367292, Note_off_c, 0, 74, 64
2, 367296, Note_on_c, 0, 86, 99
2, 367484, Note_off_c, 0, 86, 64
2, 367488, Note_on_c, 0, 73, 99
2, 367676, Note_off_c, 0, 73, 64
2, 367680, Note_on_c, 0, 85, 99
2, 367868, Note_off_c, 0, 85, 64
2, 367872, Note_on_c, 0, 74, 99
2, 368060, Note_off_c, 0, 74, 64
2, 368064, Note_on_c, 0, 86, 99
2, 368252, Note_off_c, 0, 86, 64
2, 368256, Note_on_c, 0, 73, 99
2, 368444, Note_off_c, 0, 73, 64
2, 368448, Note_on_c, 0, 85, 99
2, 368636, Note_off_c, 0, 85, 64
2, 368640, Note_on_c, 0, 74, 99
2, 368828, Note_off_c, 0, 74, 64
2, 368832, Note_on_c, 0, 86, 99
2, 369020, Note_off_c, 0, 86, 64
2, 369024, Note_on_c, 0, 72, 99
2, 369212, Note_off_c, 0, 72, 64
2, 369216, Note_on_c, 0, 84, 99
2, 369404, Note_off_c, 0, 84, 64
2, 369408, Note_on_c, 0, 71, 99
2, 369596, Note_off_c, 0, 71, 64
2, 369600, Note_on_c, 0, 83, 99
2, 369788, Note_off_c, 0, 83, 64
2, 369792, Note_on_c, 0, 70, 99
2, 369980, Note_off_c, 0, 70, 64
2, 369984, Note_on_c, 0, 82, 99
2, 370172, Note_off_c, 0, 82, 64
2, 370176, Note_on_c, 0, 71, 99
2, 370364, Note_off_c, 0, 71, 64
2, 370368, Note_on_c, 0, 83, 99
2, 370556, Note_off_c, 0, 83, 64
2, 370560, Note_on_c, 0, 70, 99
2, 370748, Note_off_c, 0, 70, 64
2, 370752, Note_on_c, 0, 82, 99
2, 370940, Note_off_c, 0, 82, 64
2, 370944, Note_on_c, 0, 71, 99
2, 371132, Note_off_c, 0, 71, 64
2, 371136, Note_on_c, 0, 83, 99
2, 371324, Note_off_c, 0, 83, 64
2, 371328, Note_on_c, 0, 70, 99
2, 371516, Note_off_c, 0, 70, 64
2, 371520, Note_on_c, 0, 82, 99
2, 371708, Note_off_c, 0, 82, 64
2, 371712, Note_on_c, 0, 71, 99
2, 371900, Note_off_c, 0, 71, 64
2, 371904, Note_on_c, 0, 83, 99
2, 372092, Note_off_c, 0, 83, 64
2, 372096, Note_on_c, 0, 67, 99
2, 372284, Note_off_c, 0, 67, 64
2, 372288, Note_on_c, 0, 79, 99
2, 372476, Note_off_c, 0, 79, 64
2, 372480, Note_on_c, 0, 66, 97
2, 372668, Note_off_c, 0, 66, 64
2, 372672, Note_on_c, 0, 78, 90
2, 372860, Note_off_c, 0, 78, 64
2, 372864, Note_on_c, 0, 64, 83
2, 373052, Note_off_c, 0, 64, 64
2, 373056, Note_on_c, 0, 76, 76
2, 373244, Note_off_c, 0, 76, 64
2, 373248, Note_on_c, 0, 78, 70
2, 373436, Note_off_c, 0, 78, 64
2, 373440, Note_on_c, 0, 74, 70
2, 373628, Note_off_c, 0, 74, 64
2, 373632, Note_on_c, 0, 81, 70
2, 373820, Note_off_c, 0, 81, 64
2, 373824, Note_on_c, 0, 78, 70
2, 374012, Note_off_c, 0, 78, 64
2, 374016, Note_on_c, 0, 86, 70
2, 374204, Note_off_c, 0, 86, 64
2, 374208, Note_on_c, 0, 81, 70
2, 374396, Note_off_c, 0, 81, 64
2, 374400, Note_on_c, 0, 78, 70
2, 374588, Note_off_c, 0, 78, 64
2, 374592, Note_on_c, 0, 74, 70
2, 374780, Note_off_c, 0, 74, 64
2, 374784, Note_on_c, 0, 76, 70
2, 374844, Note_off_c, 0, 76, 64
2, 374848, Note_on_c, 0, 78, 70
2, 374908, Note_off_c, 0, 78, 64
2, 374912, Note_on_c, 0, 76, 70
2, 374972, Note_off_c, 0, 76, 64
2, 374976, Note_on_c, 0, 78, 70
2, 375036, Note_off_c, 0, 78, 64
2, 375040, Note_on_c, 0, 76, 70
2, 375100, Note_off_c, 0, 76, 64
2, 375104, Note_on_c, 0, 78, 70
2, 375164, Note_off_c, 0, 78, 64
2, 375168, Note_on_c, 0, 76, 70
2, 375228, Note_off_c, 0, 76, 64
2, 375232, Note_on_c, 0, 78, 70
2, 375292, Note_off_c, 0, 78, 64
2, 375296, Note_on_c, 0, 76, 70
2, 375356, Note_off_c, 0, 76, 64
2, 375360, Note_on_c, 0, 78, 70
2, 375420, Note_off_c, 0, 78, 64
2, 375424, Note_on_c, 0, 76, 70
2, 375484, Note_off_c, 0, 76, 64
2, 375488, Note_on_c, 0, 78, 70
2, 375548, Note_off_c, 0, 78, 64
2, 375552, Note_on_c, 0, 76, 70
2, 375612, Note_off_c, 0, 76, 64
2, 375616, Note_on_c, 0, 78, 70
2, 375676, Note_off_c, 0, 78, 64
2, 375680, Note_on_c, 0, 76, 70
2, 375740, Note_off_c, 0, 76, 64
2, 375744, Note_on_c, 0, 78, 70
2, 375804, Note_off_c, 0, 78, 64
2, 375808, Note_on_c, 0, 76, 70
2, 375868, Note_off_c, 0, 76, 64
2, 375872, Note_on_c, 0, 78, 70
2, 375932, Note_off_c, 0, 78, 64
2, 375936, Note_on_c, 0, 76, 70
2, 375984, Note_off_c, 0, 76, 64
2, 376000, Note_on_c, 0, 78, 70
2, 376048, Note_off_c, 0, 78, 64
2, 376064, Note_on_c, 0, 74, 70
2, 376192, Note_off_c, 0, 74, 64
2, 376192, Note_on_c, 0, 76, 70
2, 376320, Note_on_c, 0, 74, 70
2, 376320, Note_on_c, 0, 69, 70
2, 376320, Note_on_c, 0, 66, 70
2, 376324, Note_off_c, 0, 76, 64
2, 377084, Note_off_c, 0, 74, 64
2, 377084, Note_off_c, 0, 69, 64
2, 377084, Note_off_c, 0, 66, 64
2, 379008, Note_on_c, 0, 78, 99
2, 379008, Note_on_c, 0, 69, 99
2, 379008, Note_on_c, 0, 66, 99
2, 379008, Note_on_c, 0, 74, 99
2, 379388, Note_off_c, 0, 78, 64
2, 379388, Note_off_c, 0, 69, 64
2, 379388, Note_off_c, 0, 66, 64
2, 379388, Note_off_c, 0, 74, 64
2, 379392, Note_on_c, 0, 79, 99
2, 379392, Note_on_c, 0, 74, 99
2, 379392, Note_on_c, 0, 71, 99
2, 379392, Note_on_c, 0, 67, 99
2, 379772, Note_off_c, 0, 79, 64
2, 379772, Note_off_c, 0, 74, 64
2, 379772, Note_off_c, 0, 71, 64
2, 379772, Note_off_c, 0, 67, 64
2, 379776, Note_on_c, 0, 81, 99
2, 379776, Note_on_c, 0, 78, 99
2, 379776, Note_on_c, 0, 69, 99
2, 379776, Note_on_c, 0, 74, 99
2, 380156, Note_off_c, 0, 81, 64
2, 380156, Note_off_c, 0, 78, 64
2, 380156, Note_off_c, 0, 69, 64
2, 380160, Note_on_c, 0, 83, 99
2, 380160, Note_on_c, 0, 79, 99
2, 380160, Note_on_c, 0, 71, 99
2, 380540, Note_off_c, 0, 83, 64
2, 380540, Note_off_c, 0, 79, 64
2, 380540, Note_off_c, 0, 71, 64
2, 380544, Note_on_c, 0, 81, 99
2, 380544, Note_on_c, 0, 84, 99
2, 380544, Note_on_c, 0, 72, 99
2, 380924, Note_off_c, 0, 74, 64
2, 380924, Note_off_c, 0, 81, 64
2, 380924, Note_off_c, 0, 84, 64
2, 380924, Note_off_c, 0, 72, 64
2, 380928, Note_on_c, 0, 79, 99
2, 380928, Note_on_c, 0, 83, 99
2, 380928, Note_on_c, 0, 71, 99
2, 381308, Note_off_c, 0, 79, 64
2, 381308, Note_off_c, 0, 83, 64
2, 381308, Note_off_c, 0, 71, 64
2, 381312, Note_on_c, 0, 78, 99
2, 381312, Note_on_c, 0, 81, 99
2, 381312, Note_on_c, 0, 69, 99
2, 381312, Note_on_c, 0, 74, 99
2, 381692, Note_off_c, 0, 78, 64
2, 381692, Note_off_c, 0, 81, 64
2, 381692, Note_off_c, 0, 69, 64
2, 381696, Note_on_c, 0, 79, 99
2, 381696, Note_on_c, 0, 67, 99
2, 382076, Note_off_c, 0, 79, 64
2, 382076, Note_off_c, 0, 67, 64
2, 382080, Note_on_c, 0, 78, 99
2, 382080, Note_on_c, 0, 69, 99
2, 382080, Note_on_c, 0, 66, 99
2, 382460, Note_off_c, 0, 74, 64
2, 382460, Note_off_c, 0, 78, 64
2, 382460, Note_off_c, 0, 69, 64
2, 382460, Note_off_c, 0, 66, 64
2, 382464, Note_on_c, 0, 79, 99
2, 382464, Note_on_c, 0, 74, 99
2, 382464, Note_on_c, 0, 71, 99
2, 382464, Note_on_c, 0, 67, 99
2, 382844, Note_off_c, 0, 79, 64
2, 382844, Note_off_c, 0, 74, 64
2, 382844, Note_off_c, 0, 71, 64
2, 382844, Note_off_c, 0, 67, 64
2, 382848, Note_on_c, 0, 81, 99
2, 382848, Note_on_c, 0, 78, 99
2, 382848, Note_on_c, 0, 69, 99
2, 382848, Note_on_c, 0, 74, 99
2, 383228, Note_off_c, 0, 81, 64
2, 383228, Note_off_c, 0, 78, 64
2, 383228, Note_off_c, 0, 69, 64
2, 383232, Note_on_c, 0, 83, 99
2, 383232, Note_on_c, 0, 79, 99
2, 383232, Note_on_c, 0, 71, 99
2, 383612, Note_off_c, 0, 83, 64
2, 383612, Note_off_c, 0, 79, 64
2, 383612, Note_off_c, 0, 71, 64
2, 383616, Note_on_c, 0, 84, 99
2, 383616, Note_on_c, 0, 81, 99
2, 383616, Note_on_c, 0, 72, 99
2, 383996, Note_off_c, 0, 74, 64
2, 383996, Note_off_c, 0, 84, 64
2, 383996, Note_off_c, 0, 81, 64
2, 383996, Note_off_c, 0, 72, 64
2, 384000, Note_on_c, 0, 83, 99
2, 384000, Note_on_c, 0, 79, 99
2, 384000, Note_on_c, 0, 74, 99
2, 384000, Note_on_c, 0, 71, 99
2, 384380, Note_off_c, 0, 83, 64
2, 384380, Note_off_c, 0, 79, 64
2, 384380, Note_off_c, 0, 74, 64
2, 384380, Note_off_c, 0, 71, 64
2, 384384, Note_on_c, 0, 79, 99
2, 384384, Note_on_c, 0, 67, 99
2, 384384, Note_on_c, 0, 74, 99
2, 384764, Note_off_c, 0, 79, 64
2, 384764, Note_off_c, 0, 67, 64
2, 384768, Note_on_c, 0, 78, 99
2, 384768, Note_on_c, 0, 69, 99
2, 385148, Note_off_c, 0, 78, 64
2, 385148, Note_off_c, 0, 69, 64
2, 385152, Note_on_c, 0, 76, 99
2, 385152, Note_on_c, 0, 71, 99
2, 385532, Note_off_c, 0, 74, 64
2, 385532, Note_off_c, 0, 76, 64
2, 385532, Note_off_c, 0, 71, 64
2, 385536, Note_on_c, 0, 78, 99
2, 385536, Note_on_c, 0, 74, 99
2, 385536, Note_on_c, 0, 69, 99
2, 385724, Note_off_c, 0, 78, 64
2, 385724, Note_off_c, 0, 74, 64
2, 385724, Note_off_c, 0, 69, 64
2, 385728, Note_on_c, 0, 57, 99
2, 385916, Note_off_c, 0, 57, 64
2, 385920, Note_on_c, 0, 59, 99
2, 386108, Note_off_c, 0, 59, 64
2, 386112, Note_on_c, 0, 61, 99
2, 386300, Note_off_c, 0, 61, 64
2, 386304, Note_on_c, 0, 62, 99
2, 386492, Note_off_c, 0, 62, 64
2, 386496, Note_on_c, 0, 64, 99
2, 386684, Note_off_c, 0, 64, 64
2, 386688, Note_on_c, 0, 66, 99
2, 386876, Note_off_c, 0, 66, 64
2, 386880, Note_on_c, 0, 67, 99
2, 387068, Note_off_c, 0, 67, 64
2, 387072, Note_on_c, 0, 69, 99
2, 387260, Note_off_c, 0, 69, 64
2, 387264, Note_on_c, 0, 62, 99
2, 387452, Note_off_c, 0, 62, 64
2, 387456, Note_on_c, 0, 64, 99
2, 387644, Note_off_c, 0, 64, 64
2, 387648, Note_on_c, 0, 66, 99
2, 387836, Note_off_c, 0, 66, 64
2, 387840, Note_on_c, 0, 67, 99
2, 388028, Note_off_c, 0, 67, 64
2, 388032, Note_on_c, 0, 69, 99
2, 388220, Note_off_c, 0, 69, 64
2, 388224, Note_on_c, 0, 71, 99
2, 388412, Note_off_c, 0, 71, 64
2, 388416, Note_on_c, 0, 73, 99
2, 388604, Note_off_c, 0, 73, 64
2, 388608, Note_on_c, 0, 74, 99
2, 388796, Note_off_c, 0, 74, 64
2, 388800, Note_on_c, 0, 78, 99
2, 388988, Note_off_c, 0, 78, 64
2, 388992, Note_on_c, 0, 74, 99
2, 389180, Note_off_c, 0, 74, 64
2, 389184, Note_on_c, 0, 68, 99
2, 389372, Note_off_c, 0, 68, 64
2, 389376, Note_on_c, 0, 69, 99
2, 389564, Note_off_c, 0, 69, 64
2, 389568, Note_on_c, 0, 74, 99
2, 389756, Note_off_c, 0, 74, 64
2, 389760, Note_on_c, 0, 69, 99
2, 389948, Note_off_c, 0, 69, 64
2, 389952, Note_on_c, 0, 65, 99
2, 390140, Note_off_c, 0, 65, 64
2, 390144, Note_on_c, 0, 66, 99
2, 390332, Note_off_c, 0, 66, 64
2, 390336, Note_on_c, 0, 69, 99
2, 390524, Note_off_c, 0, 69, 64
2, 390528, Note_on_c, 0, 66, 99
2, 390716, Note_off_c, 0, 66, 64
2, 390720, Note_on_c, 0, 61, 99
2, 390908, Note_off_c, 0, 61, 64
2, 390912, Note_on_c, 0, 62, 99
2, 391100, Note_off_c, 0, 62, 64
2, 391104, Note_on_c, 0, 66, 99
2, 391292, Note_off_c, 0, 66, 64
2, 391296, Note_on_c, 0, 62, 99
2, 391484, Note_off_c, 0, 62, 64
2, 391488, Note_on_c, 0, 56, 99
2, 391676, Note_off_c, 0, 56, 64
2, 391680, Note_on_c, 0, 57, 99
2, 393212, Note_off_c, 0, 57, 64
2, 393216, Note_on_c, 0, 57, 99
2, 393792, Note_on_c, 0, 59, 99
2, 393884, Note_off_c, 0, 59, 64
2, 393888, Note_on_c, 0, 61, 99
2, 393980, Note_off_c, 0, 61, 64
2, 393984, Note_on_c, 0, 62, 99
2, 394076, Note_off_c, 0, 62, 64
2, 394080, Note_on_c, 0, 64, 99
2, 394172, Note_off_c, 0, 64, 64
2, 394176, Note_on_c, 0, 66, 99
2, 394268, Note_off_c, 0, 66, 64
2, 394272, Note_on_c, 0, 67, 99
2, 394364, Note_off_c, 0, 67, 64
2, 394368, Note_on_c, 0, 69, 99
2, 394460, Note_off_c, 0, 69, 64
2, 394464, Note_on_c, 0, 71, 99
2, 394556, Note_off_c, 0, 71, 64
2, 394560, Note_on_c, 0, 73, 99
2, 394652, Note_off_c, 0, 73, 64
2, 394656, Note_on_c, 0, 74, 99
2, 394748, Note_off_c, 0, 57, 64
2, 394748, Note_off_c, 0, 74, 64
2, 394752, Note_on_c, 0, 76, 99
2, 394812, Note_off_c, 0, 76, 64
2, 394816, Note_on_c, 0, 78, 99
2, 394876, Note_off_c, 0, 78, 64
2, 394880, Note_on_c, 0, 76, 99
2, 394940, Note_off_c, 0, 76, 64
2, 394944, Note_on_c, 0, 78, 99
2, 395004, Note_off_c, 0, 78, 64
2, 395008, Note_on_c, 0, 76, 99
2, 395068, Note_off_c, 0, 76, 64
2, 395072, Note_on_c, 0, 78, 99
2, 395132, Note_off_c, 0, 78, 64
2, 395136, Note_on_c, 0, 76, 99
2, 395196, Note_off_c, 0, 76, 64
2, 395200, Note_on_c, 0, 78, 99
2, 395260, Note_off_c, 0, 78, 64
2, 395264, Note_on_c, 0, 76, 99
2, 395324, Note_off_c, 0, 76, 64
2, 395328, Note_on_c, 0, 78, 99
2, 395388, Note_off_c, 0, 78, 64
2, 395392, Note_on_c, 0, 76, 99
2, 395452, Note_off_c, 0, 76, 64
2, 395456, Note_on_c, 0, 78, 99
2, 395516, Note_off_c, 0, 78, 64
2, 395520, Note_on_c, 0, 76, 99
2, 395580, Note_off_c, 0, 76, 64
2, 395584, Note_on_c, 0, 78, 99
2, 395644, Note_off_c, 0, 78, 64
2, 395648, Note_on_c, 0, 76, 99
2, 395708, Note_off_c, 0, 76, 64
2, 395712, Note_on_c, 0, 78, 99
2, 395772, Note_off_c, 0, 78, 64
2, 395776, Note_on_c, 0, 76, 99
2, 395836, Note_off_c, 0, 76, 64
2, 395840, Note_on_c, 0, 78, 99
2, 395900, Note_off_c, 0, 78, 64
2, 395904, Note_on_c, 0, 76, 99
2, 395964, Note_off_c, 0, 76, 64
2, 395968, Note_on_c, 0, 78, 99
2, 396028, Note_off_c, 0, 78, 64
2, 396032, Note_on_c, 0, 76, 99
2, 396092, Note_off_c, 0, 76, 64
2, 396096, Note_on_c, 0, 78, 99
2, 396156, Note_off_c, 0, 78, 64
2, 396160, Note_on_c, 0, 76, 99
2, 396220, Note_off_c, 0, 76, 64
2, 396224, Note_on_c, 0, 78, 99
2, 396284, Note_off_c, 0, 78, 64
2, 396288, Note_on_c, 0, 76, 99
2, 396348, Note_off_c, 0, 76, 64
2, 396352, Note_on_c, 0, 78, 99
2, 396412, Note_off_c, 0, 78, 64
2, 396416, Note_on_c, 0, 76, 99
2, 396476, Note_off_c, 0, 76, 64
2, 396480, Note_on_c, 0, 78, 99
2, 396540, Note_off_c, 0, 78, 64
2, 396544, Note_on_c, 0, 76, 99
2, 396604, Note_off_c, 0, 76, 64
2, 396608, Note_on_c, 0, 78, 99
2, 396668, Note_off_c, 0, 78, 64
2, 396672, Note_on_c, 0, 76, 99
2, 396732, Note_off_c, 0, 76, 64
2, 396736, Note_on_c, 0, 78, 99
2, 396796, Note_off_c, 0, 78, 64
2, 396800, Note_on_c, 0, 76, 99
2, 396860, Note_off_c, 0, 76, 64
2, 396864, Note_on_c, 0, 78, 99
2, 396924, Note_off_c, 0, 78, 64
2, 396928, Note_on_c, 0, 76, 99
2, 396988, Note_off_c, 0, 76, 64
2, 396992, Note_on_c, 0, 78, 99
2, 397052, Note_off_c, 0, 78, 64
2, 397056, Note_on_c, 0, 76, 99
2, 397116, Note_off_c, 0, 76, 64
2, 397120, Note_on_c, 0, 78, 99
2, 397180, Note_off_c, 0, 78, 64
2, 397184, Note_on_c, 0, 76, 99
2, 397244, Note_off_c, 0, 76, 64
2, 397248, Note_on_c, 0, 78, 99
2, 397308, Note_off_c, 0, 78, 64
2, 397312, Note_on_c, 0, 76, 99
2, 397372, Note_off_c, 0, 76, 64
2, 397376, Note_on_c, 0, 78, 99
2, 397436, Note_off_c, 0, 78, 64
2, 397440, Note_on_c, 0, 76, 99
2, 397500, Note_off_c, 0, 76, 64
2, 397504, Note_on_c, 0, 78, 99
2, 397564, Note_off_c, 0, 78, 64
2, 397568, Note_on_c, 0, 74, 99
2, 397692, Note_off_c, 0, 74, 64
2, 397696, Note_on_c, 0, 76, 99
2, 397820, Note_off_c, 0, 76, 64
2, 397824, Note_on_c, 0, 74, 99
2, 398588, Note_off_c, 0, 74, 64
2, 420864, Note_on_c, 0, 74, 70
2, 421244, Note_off_c, 0, 74, 64
2, 421248, Note_on_c, 0, 74, 70
2, 421628, Note_off_c, 0, 74, 64
2, 421632, Note_on_c, 0, 74, 70
2, 422012, Note_off_c, 0, 74, 64
2, 422016, Note_on_c, 0, 74, 70
2, 422396, Note_off_c, 0, 74, 64
2, 422400, Note_on_c, 0, 74, 70
2, 422588, Note_off_c, 0, 74, 64
2, 422592, Note_on_c, 0, 73, 70
2, 422780, Note_off_c, 0, 73, 64
2, 422784, Note_on_c, 0, 76, 70
2, 422972, Note_off_c, 0, 76, 64
2, 422976, Note_on_c, 0, 74, 70
2, 423164, Note_off_c, 0, 74, 64
2, 423168, Note_on_c, 0, 73, 70
2, 423932, Note_off_c, 0, 73, 64
2, 424320, Note_on_c, 0, 74, 70
2, 424700, Note_off_c, 0, 74, 64
2, 424704, Note_on_c, 0, 74, 70
2, 425084, Note_off_c, 0, 74, 64
2, 425088, Note_on_c, 0, 78, 70
2, 425276, Note_off_c, 0, 78, 64
2, 425280, Note_on_c, 0, 74, 70
2, 425468, Note_off_c, 0, 74, 64
2, 425472, Note_on_c, 0, 81, 70
2, 426236, Note_off_c, 0, 81, 64
2, 426240, Note_on_c, 0, 79, 70
2, 426620, Note_off_c, 0, 79, 64
2, 427392, Note_on_c, 0, 74, 70
2, 427772, Note_off_c, 0, 74, 64
2, 427776, Note_on_c, 0, 74, 70
2, 428156, Note_off_c, 0, 74, 64
2, 428160, Note_on_c, 0, 74, 70
2, 428540, Note_off_c, 0, 74, 64
2, 428544, Note_on_c, 0, 74, 70
2, 428732, Note_off_c, 0, 74, 64
2, 428736, Note_on_c, 0, 73, 70
2, 428924, Note_off_c, 0, 73, 64
2, 428928, Note_on_c, 0, 76, 70
2, 429116, Note_off_c, 0, 76, 64
2, 429120, Note_on_c, 0, 74, 70
2, 429308, Note_off_c, 0, 74, 64
2, 429312, Note_on_c, 0, 73, 70
2, 430076, Note_off_c, 0, 73, 64
2, 430080, Note_on_c, 0, 74, 70
2, 430460, Note_off_c, 0, 74, 64
2, 430464, Note_on_c, 0, 74, 70
2, 430464, Note_on_c, 0, 65, 70
2, 430652, Note_off_c, 0, 65, 64
2, 430656, Note_on_c, 0, 69, 70
2, 430844, Note_off_c, 0, 74, 64
2, 430844, Note_off_c, 0, 69, 64
2, 430848, Note_on_c, 0, 74, 70
2, 430848, Note_on_c, 0, 65, 70
2, 431036, Note_off_c, 0, 65, 64
2, 431040, Note_on_c, 0, 69, 70
2, 431228, Note_off_c, 0, 74, 64
2, 431228, Note_off_c, 0, 69, 64
2, 431232, Note_on_c, 0, 77, 70
2, 431232, Note_on_c, 0, 69, 70
2, 431420, Note_off_c, 0, 77, 64
2, 431424, Note_on_c, 0, 74, 70
2, 431612, Note_off_c, 0, 69, 64
2, 431612, Note_off_c, 0, 74, 64
2, 431616, Note_on_c, 0, 81, 70
2, 431616, Note_on_c, 0, 69, 70
2, 431616, Note_on_c, 0, 62, 70
2, 431804, Note_off_c, 0, 62, 64
2, 431808, Note_on_c, 0, 61, 70
2, 431996, Note_off_c, 0, 61, 64
2, 432000, Note_on_c, 0, 64, 70
2, 432188, Note_off_c, 0, 64, 64
2, 432192, Note_on_c, 0, 62, 70
2, 432380, Note_off_c, 0, 81, 64
2, 432380, Note_off_c, 0, 69, 64
2, 432380, Note_off_c, 0, 62, 64
2, 432384, Note_on_c, 0, 69, 70
2, 432384, Note_on_c, 0, 61, 70
2, 432384, Note_on_c, 0, 61, 70
2, 432384, Note_on_c, 0, 79, 70
2, 432572, Note_off_c, 0, 69, 64
2, 432576, Note_on_c, 0, 68, 70
2, 432764, Note_off_c, 0, 79, 64
2, 432764, Note_off_c, 0, 68, 64
2, 432768, Note_on_c, 0, 70, 70
2, 432956, Note_off_c, 0, 70, 64
2, 432960, Note_on_c, 0, 69, 70
2, 433148, Note_off_c, 0, 61, 64
2, 433148, Note_off_c, 0, 61, 64
2, 433148, Note_off_c, 0, 69, 64
2, 433152, Note_on_c, 0, 78, 70
2, 433152, Note_on_c, 0, 74, 70
2, 433152, Note_on_c, 0, 69, 70
2, 433152, Note_on_c, 0, 60, 70
2, 433340, Note_off_c, 0, 78, 64
2, 433344, Note_on_c, 0, 77, 70
2, 433532, Note_off_c, 0, 60, 64
2, 433532, Note_off_c, 0, 77, 64
2, 433536, Note_on_c, 0, 79, 70
2, 433536, Note_on_c, 0, 60, 70
2, 433724, Note_off_c, 0, 79, 64
2, 433728, Note_on_c, 0, 78, 70
2, 433916, Note_off_c, 0, 74, 64
2, 433916, Note_off_c, 0, 69, 64
2, 433916, Note_off_c, 0, 60, 64
2, 433916, Note_off_c, 0, 78, 64
2, 433920, Note_on_c, 0, 78, 70
2, 433920, Note_on_c, 0, 60, 70
2, 433920, Note_on_c, 0, 74, 70
2, 433920, Note_on_c, 0, 69, 70
2, 434108, Note_off_c, 0, 60, 64
2, 434112, Note_on_c, 0, 59, 70
2, 434300, Note_off_c, 0, 59, 64
2, 434304, Note_on_c, 0, 62, 70
2, 434492, Note_off_c, 0, 62, 64
2, 434496, Note_on_c, 0, 60, 70
2, 434684, Note_off_c, 0, 78, 64
2, 434684, Note_off_c, 0, 74, 64
2, 434684, Note_off_c, 0, 69, 64
2, 434684, Note_off_c, 0, 60, 64
2, 434688, Note_on_c, 0, 79, 71
2, 434688, Note_on_c, 0, 74, 71
2, 434688, Note_on_c, 0, 67, 71
2, 434688, Note_on_c, 0, 59, 71
2, 434876, Note_off_c, 0, 79, 64
2, 434880, Note_on_c, 0, 78, 72
2, 435068, Note_off_c, 0, 59, 64
2, 435068, Note_off_c, 0, 78, 64
2, 435072, Note_on_c, 0, 81, 73
2, 435072, Note_on_c, 0, 59, 73
2, 435260, Note_off_c, 0, 81, 64
2, 435264, Note_on_c, 0, 79, 74
2, 435452, Note_off_c, 0, 74, 64
2, 435452, Note_off_c, 0, 67, 64
2, 435452, Note_off_c, 0, 59, 64
2, 435452, Note_off_c, 0, 79, 64
2, 435456, Note_on_c, 0, 79, 71
2, 435456, Note_on_c, 0, 74, 71
2, 435456, Note_on_c, 0, 59, 71
2, 435644, Note_off_c, 0, 59, 64
2, 435648, Note_on_c, 0, 58, 72
2, 435836, Note_off_c, 0, 58, 64
2, 435840, Note_on_c, 0, 60, 73
2, 436028, Note_off_c, 0, 60, 64
2, 436032, Note_on_c, 0, 59, 74
2, 436220, Note_off_c, 0, 79, 64
2, 436220, Note_off_c, 0, 74, 64
2, 436220, Note_off_c, 0, 59, 64
2, 436224, Note_on_c, 0, 81, 75
2, 436224, Note_on_c, 0, 74, 75
2, 436412, Note_off_c, 0, 81, 64
2, 436416, Note_on_c, 0, 79, 76
2, 436604, Note_off_c, 0, 79, 64
2, 436608, Note_on_c, 0, 83, 77
2, 436796, Note_off_c, 0, 83, 64
2, 436800, Note_on_c, 0, 81, 79
2, 436988, Note_off_c, 0, 74, 64
2, 436988, Note_off_c, 0, 81, 64
2, 436992, Note_on_c, 0, 81, 80
2, 436992, Note_on_c, 0, 74, 80
2, 437756, Note_off_c, 0, 81, 64
2, 437756, Note_off_c, 0, 74, 64
2, 437760, Note_on_c, 0, 83, 84
2, 437760, Note_on_c, 0, 79, 84
2, 437760, Note_on_c, 0, 74, 84
2, 437948, Note_off_c, 0, 83, 64
2, 437952, Note_on_c, 0, 81, 85
2, 438140, Note_off_c, 0, 81, 64
2, 438144, Note_on_c, 0, 85, 87
2, 438332, Note_off_c, 0, 85, 64
2, 438336, Note_on_c, 0, 83, 88
2, 438524, Note_off_c, 0, 79, 64
2, 438524, Note_off_c, 0, 74, 64
2, 438524, Note_off_c, 0, 83, 64
2, 438528, Note_on_c, 0, 83, 89
2, 438528, Note_on_c, 0, 79, 89
2, 438528, Note_on_c, 0, 74, 89
2, 439292, Note_off_c, 0, 83, 64
2, 439292, Note_off_c, 0, 79, 64
2, 439292, Note_off_c, 0, 74, 64
2, 439296, Note_on_c, 0, 86, 93
2, 439296, Note_on_c, 0, 83, 93
2, 439296, Note_on_c, 0, 77, 93
2, 439484, Note_off_c, 0, 86, 64
2, 439488, Note_on_c, 0, 85, 95
2, 439676, Note_off_c, 0, 85, 64
2, 439680, Note_on_c, 0, 88, 96
2, 439868, Note_off_c, 0, 88, 64
2, 439872, Note_on_c, 0, 86, 97
2, 440060, Note_off_c, 0, 83, 64
2, 440060, Note_off_c, 0, 77, 64
2, 440060, Note_off_c, 0, 86, 64
2, 440064, Note_on_c, 0, 83, 98
2, 440064, Note_on_c, 0, 77, 98
2, 440064, Note_on_c, 0, 86, 98
2, 440828, Note_off_c, 0, 83, 64
2, 440828, Note_off_c, 0, 77, 64
2, 440828, Note_off_c, 0, 86, 64
2, 440832, Note_on_c, 0, 86, 99
2, 440832, Note_on_c, 0, 81, 99
2, 440832, Note_on_c, 0, 78, 99
2, 440832, Note_on_c, 0, 74, 99
2, 442364, Note_off_c, 0, 86, 64
2, 442364, Note_off_c, 0, 81, 64
2, 442364, Note_off_c, 0, 78, 64
2, 442364, Note_off_c, 0, 74, 64
2, 442368, Note_on_c, 0, 81, 99
2, 442368, Note_on_c, 0, 78, 99
2, 442368, Note_on_c, 0, 74, 99
2, 442368, Note_on_c, 0, 69, 99
2, 443900, Note_off_c, 0, 81, 64
2, 443900, Note_off_c, 0, 78, 64
2, 443900, Note_off_c, 0, 74, 64
2, 443900, Note_off_c, 0, 69, 64
2, 443904, Note_on_c, 0, 78, 99
2, 443904, Note_on_c, 0, 74, 99
2, 443904, Note_on_c, 0, 69, 99
2, 444284, Note_off_c, 0, 78, 64
2, 444284, Note_off_c, 0, 74, 64
2, 444284, Note_off_c, 0, 69, 64
2, 444672, Note_on_c, 0, 74, 99
2, 444672, Note_on_c, 0, 69, 99
2, 444672, Note_on_c, 0, 66, 99
2, 445052, Note_off_c, 0, 74, 64
2, 445052, Note_off_c, 0, 69, 64
2, 445052, Note_off_c, 0, 66, 64
2, 446976, Note_on_c, 0, 73, 99
2, 447164, Note_off_c, 0, 73, 64
2, 447168, Note_on_c, 0, 72, 99
2, 447356, Note_off_c, 0, 72, 64
2, 447360, Note_on_c, 0, 74, 99
2, 447548, Note_off_c, 0, 74, 64
2, 447552, Note_on_c, 0, 73, 99
2, 447740, Note_off_c, 0, 73, 64
2, 447744, Note_on_c, 0, 76, 100
2, 447932, Note_off_c, 0, 76, 64
2, 447936, Note_on_c, 0, 75, 100
2, 448124, Note_off_c, 0, 75, 64
2, 448128, Note_on_c, 0, 78, 100
2, 448316, Note_off_c, 0, 78, 64
2, 448320, Note_on_c, 0, 76, 101
2, 448508, Note_off_c, 0, 76, 64
2, 448512, Note_on_c, 0, 79, 101
2, 448700, Note_off_c, 0, 79, 64
2, 448704, Note_on_c, 0, 78, 101
2, 448892, Note_off_c, 0, 78, 64
2, 448896, Note_on_c, 0, 81, 102
2, 449084, Note_off_c, 0, 81, 64
2, 449088, Note_on_c, 0, 79, 102
2, 449276, Note_off_c, 0, 79, 64
2, 449280, Note_on_c, 0, 85, 102
2, 449468, Note_off_c, 0, 85, 64
2, 449472, Note_on_c, 0, 84, 103
2, 449660, Note_off_c, 0, 84, 64
2, 449664, Note_on_c, 0, 86, 103
2, 449852, Note_off_c, 0, 86, 64
2, 449856, Note_on_c, 0, 85, 103
2, 450044, Note_off_c, 0, 85, 64
2, 450048, Note_on_c, 0, 79, 104
2, 450048, Note_on_c, 0, 85, 104
2, 450048, Note_on_c, 0, 88, 104
2, 450108, Note_off_c, 0, 88, 64
2, 450112, Note_on_c, 0, 90, 104
2, 450172, Note_off_c, 0, 90, 64
2, 450176, Note_on_c, 0, 88, 104
2, 450236, Note_off_c, 0, 88, 64
2, 450240, Note_on_c, 0, 90, 104
2, 450300, Note_off_c, 0, 90, 64
2, 450304, Note_on_c, 0, 88, 104
2, 450364, Note_off_c, 0, 88, 64
2, 450368, Note_on_c, 0, 90, 104
2, 450428, Note_off_c, 0, 79, 64
2, 450428, Note_off_c, 0, 85, 64
2, 450428, Note_off_c, 0, 90, 64
2, 450432, Note_on_c, 0, 88, 104
2, 450492, Note_off_c, 0, 88, 64
2, 450496, Note_on_c, 0, 90, 104
2, 450556, Note_off_c, 0, 90, 64
2, 450560, Note_on_c, 0, 88, 105
2, 450620, Note_off_c, 0, 88, 64
2, 450624, Note_on_c, 0, 90, 105
2, 450684, Note_off_c, 0, 90, 64
2, 450688, Note_on_c, 0, 88, 105
2, 450748, Note_off_c, 0, 88, 64
2, 450752, Note_on_c, 0, 90, 105
2, 450812, Note_off_c, 0, 90, 64
2, 450816, Note_on_c, 0, 88, 105
2, 450876, Note_off_c, 0, 88, 64
2, 450880, Note_on_c, 0, 90, 105
2, 450940, Note_off_c, 0, 90, 64
2, 450944, Note_on_c, 0, 88, 105
2, 451004, Note_off_c, 0, 88, 64
2, 451008, Note_on_c, 0, 90, 105
2, 451068, Note_off_c, 0, 90, 64
2, 451072, Note_on_c, 0, 88, 105
2, 451132, Note_off_c, 0, 88, 64
2, 451136, Note_on_c, 0, 90, 106
2, 451196, Note_off_c, 0, 90, 64
2, 451200, Note_on_c, 0, 88, 106
2, 451260, Note_off_c, 0, 88, 64
2, 451264, Note_on_c, 0, 90, 106
2, 451324, Note_off_c, 0, 90, 64
2, 451328, Note_on_c, 0, 88, 106
2, 451388, Note_off_c, 0, 88, 64
2, 451392, Note_on_c, 0, 90, 106
2, 451452, Note_off_c, 0, 90, 64
2, 451456, Note_on_c, 0, 88, 106
2, 451516, Note_off_c, 0, 88, 64
2, 451520, Note_on_c, 0, 90, 106
2, 451580, Note_off_c, 0, 90, 64
2, 451584, Note_on_c, 0, 88, 106
2, 451644, Note_off_c, 0, 88, 64
2, 451648, Note_on_c, 0, 90, 106
2, 451708, Note_off_c, 0, 90, 64
2, 451712, Note_on_c, 0, 88, 107
2, 451772, Note_off_c, 0, 88, 64
2, 451776, Note_on_c, 0, 90, 107
2, 451836, Note_off_c, 0, 90, 64
2, 451840, Note_on_c, 0, 88, 107
2, 451900, Note_off_c, 0, 88, 64
2, 451904, Note_on_c, 0, 90, 107
2, 451964, Note_off_c, 0, 90, 64
2, 451968, Note_on_c, 0, 88, 107
2, 452028, Note_off_c, 0, 88, 64
2, 452032, Note_on_c, 0, 90, 107
2, 452092, Note_off_c, 0, 90, 64
2, 452096, Note_on_c, 0, 88, 107
2, 452156, Note_off_c, 0, 88, 64
2, 452160, Note_on_c, 0, 90, 107
2, 452220, Note_off_c, 0, 90, 64
2, 452224, Note_on_c, 0, 88, 107
2, 452284, Note_off_c, 0, 88, 64
2, 452288, Note_on_c, 0, 90, 107
2, 452348, Note_off_c, 0, 90, 64
2, 452352, Note_on_c, 0, 88, 108
2, 452412, Note_off_c, 0, 88, 64
2, 452416, Note_on_c, 0, 90, 108
2, 452476, Note_off_c, 0, 90, 64
2, 452480, Note_on_c, 0, 88, 108
2, 452540, Note_off_c, 0, 88, 64
2, 452544, Note_on_c, 0, 90, 108
2, 452604, Note_off_c, 0, 90, 64
2, 452608, Note_on_c, 0, 88, 109
2, 452668, Note_off_c, 0, 88, 64
2, 452672, Note_on_c, 0, 90, 109
2, 452732, Note_off_c, 0, 90, 64
2, 452736, Note_on_c, 0, 88, 109
2, 452796, Note_off_c, 0, 88, 64
2, 452800, Note_on_c, 0, 90, 109
2, 452860, Note_off_c, 0, 90, 64
2, 452864, Note_on_c, 0, 86, 109
2, 452988, Note_off_c, 0, 86, 64
2, 452992, Note_on_c, 0, 88, 109
2, 453116, Note_off_c, 0, 88, 64
2, 453120, Note_on_c, 0, 86, 110
2, 453120, Note_on_c, 0, 81, 110
2, 453120, Note_on_c, 0, 78, 110
2, 453120, Note_on_c, 0, 74, 110
2, 453884, Note_off_c, 0, 86, 64
2, 453884, Note_off_c, 0, 81, 64
2, 453884, Note_off_c, 0, 78, 64
2, 453884, Note_off_c, 0, 74, 64
2, 453884, End_track
3, 0, Start_track
3, 0, Title_t, "K175c - #5"
3, 0, Control_c, 1, 0, 0
3, 0, Program_c, 1, 0
3, 0, Control_c, 1, 7, 127
3, 0, Control_c, 1, 10, 67
3, 0, Control_c, 1, 91, 67
3, 0, Control_c, 1, 93, 47
3, 0, Key_signature, 2, "major"
3, 0, Control_c, 1, 121, 0
3, 384, Control_c, 1, 10, 63
3, 480, Control_c, 1, 91, 63
3, 576, Control_c, 1, 93, 35
3, 672, Program_c, 1, 0
3, 64512, Note_on_c, 1, 50, 99
3, 64700, Note_off_c, 1, 50, 64
3, 64704, Note_on_c, 1, 54, 99
3, 64892, Note_off_c, 1, 54, 64
3, 64896, Note_on_c, 1, 57, 99
3, 65084, Note_off_c, 1, 57, 64
3, 65088, Note_on_c, 1, 62, 99
3, 65276, Note_off_c, 1, 62, 64
3, 65280, Note_on_c, 1, 50, 99
3, 65468, Note_off_c, 1, 50, 64
3, 65472, Note_on_c, 1, 62, 99
3, 65660, Note_off_c, 1, 62, 64
3, 65664, Note_on_c, 1, 61, 99
3, 65852, Note_off_c, 1, 61, 64
3, 65856, Note_on_c, 1, 59, 99
3, 66044, Note_off_c, 1, 59, 64
3, 66048, Note_on_c, 1, 57, 99
3, 66236, Note_off_c, 1, 57, 64
3, 66240, Note_on_c, 1, 59, 99
3, 66428, Note_off_c, 1, 59, 64
3, 66432, Note_on_c, 1, 57, 99
3, 66620, Note_off_c, 1, 57, 64
3, 66624, Note_on_c, 1, 59, 99
3, 66812, Note_off_c, 1, 59, 64
3, 66816, Note_on_c, 1, 57, 99
3, 67004, Note_off_c, 1, 57, 64
3, 67008, Note_on_c, 1, 55, 99
3, 67196, Note_off_c, 1, 55, 64
3, 67200, Note_on_c, 1, 54, 99
3, 67388, Note_off_c, 1, 54, 64
3, 67392, Note_on_c, 1, 52, 99
3, 67580, Note_off_c, 1, 52, 64
3, 67584, Note_on_c, 1, 54, 99
3, 67964, Note_off_c, 1, 54, 64
3, 67968, Note_on_c, 1, 50, 99
3, 68348, Note_off_c, 1, 50, 64
3, 68544, Note_on_c, 1, 54, 99
3, 68732, Note_off_c, 1, 54, 64
3, 68736, Note_on_c, 1, 52, 99
3, 68924, Note_off_c, 1, 52, 64
3, 68928, Note_on_c, 1, 50, 99
3, 69116, Note_off_c, 1, 50, 64
3, 69120, Note_on_c, 1, 49, 99
3, 69500, Note_off_c, 1, 49, 64
3, 69504, Note_on_c, 1, 45, 99
3, 69884, Note_off_c, 1, 45, 64
3, 69888, Note_on_c, 1, 52, 99
3, 70268, Note_off_c, 1, 52, 64
3, 70272, Note_on_c, 1, 49, 99
3, 70652, Note_off_c, 1, 49, 64
3, 70656, Note_on_c, 1, 50, 99
3, 70844, Note_off_c, 1, 50, 64
3, 70848, Note_on_c, 1, 45, 99
3, 71036, Note_off_c, 1, 45, 64
3, 71040, Note_on_c, 1, 42, 99
3, 71228, Note_off_c, 1, 42, 64
3, 71232, Note_on_c, 1, 45, 99
3, 71420, Note_off_c, 1, 45, 64
3, 71424, Note_on_c, 1, 38, 99
3, 71612, Note_off_c, 1, 38, 64
3, 71616, Note_on_c, 1, 50, 99
3, 71804, Note_off_c, 1, 50, 64
3, 71808, Note_on_c, 1, 52, 99
3, 71996, Note_off_c, 1, 52, 64
3, 72000, Note_on_c, 1, 54, 99
3, 72188, Note_off_c, 1, 54, 64
3, 72192, Note_on_c, 1, 52, 99
3, 72380, Note_off_c, 1, 52, 64
3, 72384, Note_on_c, 1, 45, 99
3, 72572, Note_off_c, 1, 45, 64
3, 72576, Note_on_c, 1, 49, 99
3, 72764, Note_off_c, 1, 49, 64
3, 72768, Note_on_c, 1, 52, 99
3, 72956, Note_off_c, 1, 52, 64
3, 72960, Note_on_c, 1, 55, 99
3, 73020, Note_off_c, 1, 55, 64
3, 73024, Note_on_c, 1, 57, 99
3, 73084, Note_off_c, 1, 57, 64
3, 73088, Note_on_c, 1, 55, 99
3, 73148, Note_off_c, 1, 55, 64
3, 73152, Note_on_c, 1, 57, 99
3, 73212, Note_off_c, 1, 57, 64
3, 73216, Note_on_c, 1, 55, 99
3, 73276, Note_off_c, 1, 55, 64
3, 73280, Note_on_c, 1, 57, 99
3, 73340, Note_off_c, 1, 57, 64
3, 73344, Note_on_c, 1, 55, 99
3, 73404, Note_off_c, 1, 55, 64
3, 73408, Note_on_c, 1, 57, 99
3, 73468, Note_off_c, 1, 57, 64
3, 73472, Note_on_c, 1, 54, 99
3, 73596, Note_off_c, 1, 54, 64
3, 73600, Note_on_c, 1, 55, 99
3, 73724, Note_off_c, 1, 55, 64
3, 73728, Note_on_c, 1, 54, 99
3, 74108, Note_off_c, 1, 54, 64
3, 74112, Note_on_c, 1, 50, 99
3, 74492, Note_off_c, 1, 50, 64
3, 74688, Note_on_c, 1, 54, 99
3, 74876, Note_off_c, 1, 54, 64
3, 74880, Note_on_c, 1, 52, 99
3, 75068, Note_off_c, 1, 52, 64
3, 75072, Note_on_c, 1, 50, 99
3, 75260, Note_off_c, 1, 50, 64
3, 75264, Note_on_c, 1, 49, 99
3, 75644, Note_off_c, 1, 49, 64
3, 75648, Note_on_c, 1, 45, 99
3, 76028, Note_off_c, 1, 45, 64
3, 76032, Note_on_c, 1, 52, 99
3, 76412, Note_off_c, 1, 52, 64
3, 76416, Note_on_c, 1, 49, 99
3, 76796, Note_off_c, 1, 49, 64
3, 76800, Note_on_c, 1, 57, 99
3, 76800, Note_on_c, 1, 54, 99
3, 76800, Note_on_c, 1, 50, 99
3, 77564, Note_off_c, 1, 57, 64
3, 77564, Note_off_c, 1, 54, 64
3, 77564, Note_off_c, 1, 50, 64
3, 77568, Note_on_c, 1, 59, 99
3, 77568, Note_on_c, 1, 55, 99
3, 78332, Note_off_c, 1, 59, 64
3, 78332, Note_off_c, 1, 55, 64
3, 78336, Note_on_c, 1, 66, 99
3, 78336, Note_on_c, 1, 62, 99
3, 78336, Note_on_c, 1, 57, 99
3, 79100, Note_off_c, 1, 66, 64
3, 79100, Note_off_c, 1, 62, 64
3, 79100, Note_off_c, 1, 57, 64
3, 79104, Note_on_c, 1, 67, 99
3, 79104, Note_on_c, 1, 64, 99
3, 79104, Note_on_c, 1, 57, 99
3, 79868, Note_off_c, 1, 67, 64
3, 79868, Note_off_c, 1, 64, 64
3, 79868, Note_off_c, 1, 57, 64
3, 79872, Note_on_c, 1, 66, 99
3, 79872, Note_on_c, 1, 62, 99
3, 80252, Note_off_c, 1, 66, 64
3, 80252, Note_off_c, 1, 62, 64
3, 82944, Note_on_c, 1, 50, 99
3, 82944, Note_on_c, 1, 38, 99
3, 83324, Note_off_c, 1, 50, 64
3, 83324, Note_off_c, 1, 38, 64
3, 86016, Note_on_c, 1, 57, 99
3, 86016, Note_on_c, 1, 45, 99
3, 86780, Note_off_c, 1, 57, 64
3, 86780, Note_off_c, 1, 45, 64
3, 89088, Note_on_c, 1, 45, 99
3, 89088, Note_on_c, 1, 33, 99
3, 89088, Note_on_c, 1, 57, 99
3, 89276, Note_off_c, 1, 57, 64
3, 89280, Note_on_c, 1, 52, 99
3, 89468, Note_off_c, 1, 45, 64
3, 89468, Note_off_c, 1, 33, 64
3, 89468, Note_off_c, 1, 52, 64
3, 89472, Note_on_c, 1, 61, 99
3, 89660, Note_off_c, 1, 61, 64
3, 89664, Note_on_c, 1, 57, 99
3, 89852, Note_off_c, 1, 57, 64
3, 92160, Note_on_c, 1, 52, 99
3, 92160, Note_on_c, 1, 40, 99
3, 92924, Note_off_c, 1, 52, 64
3, 92924, Note_off_c, 1, 40, 64
3, 95232, Note_on_c, 1, 52, 99
3, 95232, Note_on_c, 1, 40, 99
3, 95612, Note_off_c, 1, 52, 64
3, 95612, Note_off_c, 1, 40, 64
3, 109056, Note_on_c, 1, 50, 70
3, 109244, Note_off_c, 1, 50, 64
3, 109248, Note_on_c, 1, 59, 70
3, 109436, Note_off_c, 1, 59, 64
3, 109440, Note_on_c, 1, 54, 71
3, 109628, Note_off_c, 1, 54, 64
3, 109632, Note_on_c, 1, 59, 74
3, 109820, Note_off_c, 1, 59, 64
3, 109824, Note_on_c, 1, 50, 78
3, 110012, Note_off_c, 1, 50, 64
3, 110016, Note_on_c, 1, 59, 81
3, 110204, Note_off_c, 1, 59, 64
3, 110208, Note_on_c, 1, 51, 85
3, 110396, Note_off_c, 1, 51, 64
3, 110400, Note_on_c, 1, 59, 88
3, 110588, Note_off_c, 1, 59, 64
3, 110592, Note_on_c, 1, 52, 90
3, 110780, Note_off_c, 1, 52, 64
3, 110784, Note_on_c, 1, 64, 88
3, 110972, Note_off_c, 1, 64, 64
3, 110976, Note_on_c, 1, 50, 85
3, 111164, Note_off_c, 1, 50, 64
3, 111168, Note_on_c, 1, 62, 82
3, 111356, Note_off_c, 1, 62, 64
3, 111360, Note_on_c, 1, 49, 79
3, 111548, Note_off_c, 1, 49, 64
3, 111552, Note_on_c, 1, 61, 77
3, 111740, Note_off_c, 1, 61, 64
3, 111744, Note_on_c, 1, 47, 74
3, 111932, Note_off_c, 1, 47, 64
3, 111936, Note_on_c, 1, 59, 71
3, 112124, Note_off_c, 1, 59, 64
3, 112128, Note_on_c, 1, 45, 70
3, 113660, Note_off_c, 1, 45, 64
3, 124416, Note_on_c, 1, 57, 70
3, 124416, Note_on_c, 1, 45, 70
3, 125948, Note_off_c, 1, 57, 64
3, 125948, Note_off_c, 1, 45, 64
3, 125952, Note_on_c, 1, 64, 70
3, 125952, Note_on_c, 1, 61, 70
3, 127484, Note_off_c, 1, 64, 64
3, 127484, Note_off_c, 1, 61, 64
3, 127488, Note_on_c, 1, 62, 70
3, 127488, Note_on_c, 1, 59, 70
3, 129020, Note_off_c, 1, 62, 64
3, 129020, Note_off_c, 1, 59, 64
3, 129024, Note_on_c, 1, 56, 70
3, 129024, Note_on_c, 1, 52, 70
3, 130556, Note_off_c, 1, 56, 64
3, 130556, Note_off_c, 1, 52, 64
3, 130560, Note_on_c, 1, 57, 70
3, 130560, Note_on_c, 1, 45, 70
3, 132092, Note_off_c, 1, 57, 64
3, 132092, Note_off_c, 1, 45, 64
3, 132096, Note_on_c, 1, 62, 86
3, 132096, Note_on_c, 1, 57, 86
3, 132096, Note_on_c, 1, 54, 86
3, 133628, Note_off_c, 1, 62, 64
3, 133628, Note_off_c, 1, 57, 64
3, 133628, Note_off_c, 1, 54, 64
3, 133632, Note_on_c, 1, 61, 90
3, 133632, Note_on_c, 1, 57, 90
3, 133632, Note_on_c, 1, 52, 90
3, 135164, Note_off_c, 1, 61, 64
3, 135164, Note_off_c, 1, 57, 64
3, 135164, Note_off_c, 1, 52, 64
3, 135168, Note_on_c, 1, 62, 89
3, 135168, Note_on_c, 1, 56, 89
3, 135168, Note_on_c, 1, 52, 89
3, 136700, Note_off_c, 1, 62, 64
3, 136700, Note_off_c, 1, 56, 64
3, 136700, Note_off_c, 1, 52, 64
3, 136704, Note_on_c, 1, 57, 70
3, 136892, Note_off_c, 1, 57, 64
3, 136896, Note_on_c, 1, 64, 70
3, 137084, Note_off_c, 1, 64, 64
3, 137088, Note_on_c, 1, 61, 70
3, 137276, Note_off_c, 1, 61, 64
3, 137280, Note_on_c, 1, 64, 70
3, 137468, Note_off_c, 1, 64, 64
3, 137472, Note_on_c, 1, 57, 70
3, 137660, Note_off_c, 1, 57, 64
3, 137664, Note_on_c, 1, 64, 70
3, 137852, Note_off_c, 1, 64, 64
3, 137856, Note_on_c, 1, 61, 70
3, 138044, Note_off_c, 1, 61, 64
3, 138048, Note_on_c, 1, 64, 70
3, 138236, Note_off_c, 1, 64, 64
3, 138240, Note_on_c, 1, 59, 70
3, 138428, Note_off_c, 1, 59, 64
3, 138432, Note_on_c, 1, 64, 70
3, 138620, Note_off_c, 1, 64, 64
3, 138624, Note_on_c, 1, 62, 70
3, 138812, Note_off_c, 1, 62, 64
3, 138816, Note_on_c, 1, 64, 70
3, 139004, Note_off_c, 1, 64, 64
3, 139008, Note_on_c, 1, 59, 70
3, 139196, Note_off_c, 1, 59, 64
3, 139200, Note_on_c, 1, 64, 70
3, 139388, Note_off_c, 1, 64, 64
3, 139392, Note_on_c, 1, 62, 70
3, 139580, Note_off_c, 1, 62, 64
3, 139584, Note_on_c, 1, 64, 70
3, 139772, Note_off_c, 1, 64, 64
3, 139776, Note_on_c, 1, 57, 70
3, 139964, Note_off_c, 1, 57, 64
3, 139968, Note_on_c, 1, 64, 70
3, 140156, Note_off_c, 1, 64, 64
3, 140160, Note_on_c, 1, 61, 70
3, 140348, Note_off_c, 1, 61, 64
3, 140352, Note_on_c, 1, 64, 70
3, 140540, Note_off_c, 1, 64, 64
3, 140544, Note_on_c, 1, 57, 70
3, 140732, Note_off_c, 1, 57, 64
3, 140736, Note_on_c, 1, 64, 70
3, 140924, Note_off_c, 1, 64, 64
3, 140928, Note_on_c, 1, 61, 70
3, 141116, Note_off_c, 1, 61, 64
3, 141120, Note_on_c, 1, 64, 70
3, 141308, Note_off_c, 1, 64, 64
3, 141312, Note_on_c, 1, 56, 70
3, 141500, Note_off_c, 1, 56, 64
3, 141504, Note_on_c, 1, 64, 70
3, 141692, Note_off_c, 1, 64, 64
3, 141696, Note_on_c, 1, 59, 70
3, 141884, Note_off_c, 1, 59, 64
3, 141888, Note_on_c, 1, 64, 70
3, 142076, Note_off_c, 1, 64, 64
3, 142080, Note_on_c, 1, 56, 70
3, 142268, Note_off_c, 1, 56, 64
3, 142272, Note_on_c, 1, 64, 70
3, 142460, Note_off_c, 1, 64, 64
3, 142464, Note_on_c, 1, 59, 70
3, 142652, Note_off_c, 1, 59, 64
3, 142656, Note_on_c, 1, 64, 70
3, 142844, Note_off_c, 1, 64, 64
3, 142848, Note_on_c, 1, 57, 70
3, 143036, Note_off_c, 1, 57, 64
3, 143040, Note_on_c, 1, 64, 70
3, 143228, Note_off_c, 1, 64, 64
3, 143232, Note_on_c, 1, 61, 70
3, 143420, Note_off_c, 1, 61, 64
3, 143424, Note_on_c, 1, 64, 70
3, 143612, Note_off_c, 1, 64, 64
3, 143616, Note_on_c, 1, 57, 70
3, 143804, Note_off_c, 1, 57, 64
3, 143808, Note_on_c, 1, 64, 70
3, 143996, Note_off_c, 1, 64, 64
3, 144000, Note_on_c, 1, 61, 70
3, 144188, Note_off_c, 1, 61, 64
3, 144192, Note_on_c, 1, 64, 70
3, 144380, Note_off_c, 1, 64, 64
3, 144384, Note_on_c, 1, 59, 70
3, 144572, Note_off_c, 1, 59, 64
3, 144576, Note_on_c, 1, 64, 70
3, 144764, Note_off_c, 1, 64, 64
3, 144768, Note_on_c, 1, 62, 70
3, 144956, Note_off_c, 1, 62, 64
3, 144960, Note_on_c, 1, 64, 70
3, 145148, Note_off_c, 1, 64, 64
3, 145152, Note_on_c, 1, 59, 70
3, 145340, Note_off_c, 1, 59, 64
3, 145344, Note_on_c, 1, 64, 70
3, 145532, Note_off_c, 1, 64, 64
3, 145536, Note_on_c, 1, 62, 70
3, 145724, Note_off_c, 1, 62, 64
3, 145728, Note_on_c, 1, 64, 70
3, 145916, Note_off_c, 1, 64, 64
3, 145920, Note_on_c, 1, 57, 70
3, 146108, Note_off_c, 1, 57, 64
3, 146112, Note_on_c, 1, 64, 70
3, 146300, Note_off_c, 1, 64, 64
3, 146304, Note_on_c, 1, 61, 70
3, 146492, Note_off_c, 1, 61, 64
3, 146496, Note_on_c, 1, 64, 70
3, 146684, Note_off_c, 1, 64, 64
3, 146688, Note_on_c, 1, 57, 70
3, 146876, Note_off_c, 1, 57, 64
3, 146880, Note_on_c, 1, 64, 70
3, 147068, Note_off_c, 1, 64, 64
3, 147072, Note_on_c, 1, 61, 70
3, 147260, Note_off_c, 1, 61, 64
3, 147264, Note_on_c, 1, 64, 70
3, 147452, Note_off_c, 1, 64, 64
3, 147456, Note_on_c, 1, 56, 70
3, 147644, Note_off_c, 1, 56, 64
3, 147648, Note_on_c, 1, 64, 70
3, 147836, Note_off_c, 1, 64, 64
3, 147840, Note_on_c, 1, 59, 70
3, 148028, Note_off_c, 1, 59, 64
3, 148032, Note_on_c, 1, 64, 70
3, 148220, Note_off_c, 1, 64, 64
3, 148224, Note_on_c, 1, 56, 70
3, 148412, Note_off_c, 1, 56, 64
3, 148416, Note_on_c, 1, 64, 70
3, 148604, Note_off_c, 1, 64, 64
3, 148608, Note_on_c, 1, 59, 70
3, 148796, Note_off_c, 1, 59, 64
3, 148800, Note_on_c, 1, 64, 70
3, 148988, Note_off_c, 1, 64, 64
3, 148992, Note_on_c, 1, 57, 70
3, 149756, Note_off_c, 1, 57, 64
3, 150144, Note_on_c, 1, 57, 70
3, 150144, Note_on_c, 1, 49, 70
3, 150524, Note_off_c, 1, 57, 64
3, 150524, Note_off_c, 1, 49, 64
3, 150528, Note_on_c, 1, 57, 70
3, 150528, Note_on_c, 1, 50, 70
3, 151292, Note_off_c, 1, 57, 64
3, 151292, Note_off_c, 1, 50, 64
3, 151680, Note_on_c, 1, 58, 70
3, 151680, Note_on_c, 1, 46, 70
3, 152060, Note_off_c, 1, 58, 64
3, 152060, Note_off_c, 1, 46, 64
3, 152064, Note_on_c, 1, 57, 70
3, 152064, Note_on_c, 1, 47, 70
3, 152828, Note_off_c, 1, 57, 64
3, 152828, Note_off_c, 1, 47, 64
3, 153216, Note_on_c, 1, 52, 70
3, 153216, Note_on_c, 1, 49, 70
3, 153596, Note_off_c, 1, 52, 64
3, 153596, Note_off_c, 1, 49, 64
3, 153600, Note_on_c, 1, 54, 70
3, 153600, Note_on_c, 1, 50, 70
3, 154364, Note_off_c, 1, 54, 64
3, 154364, Note_off_c, 1, 50, 64
3, 154368, Note_on_c, 1, 57, 70
3, 154368, Note_on_c, 1, 61, 70
3, 154368, Note_on_c, 1, 52, 70
3, 154748, Note_off_c, 1, 57, 64
3, 154748, Note_off_c, 1, 61, 64
3, 154748, Note_off_c, 1, 52, 64
3, 154752, Note_on_c, 1, 62, 70
3, 154752, Note_on_c, 1, 56, 70
3, 154752, Note_on_c, 1, 52, 70
3, 155132, Note_off_c, 1, 62, 64
3, 155132, Note_off_c, 1, 56, 64
3, 155132, Note_off_c, 1, 52, 64
3, 155136, Note_on_c, 1, 57, 80
3, 155324, Note_off_c, 1, 57, 64
3, 155328, Note_on_c, 1, 45, 80
3, 155516, Note_off_c, 1, 45, 64
3, 155520, Note_on_c, 1, 49, 80
3, 155708, Note_off_c, 1, 49, 64
3, 155712, Note_on_c, 1, 52, 80
3, 155900, Note_off_c, 1, 52, 64
3, 155904, Note_on_c, 1, 57, 80
3, 156092, Note_off_c, 1, 57, 64
3, 156096, Note_on_c, 1, 55, 80
3, 156284, Note_off_c, 1, 55, 64
3, 156288, Note_on_c, 1, 54, 80
3, 156476, Note_off_c, 1, 54, 64
3, 156480, Note_on_c, 1, 52, 80
3, 156668, Note_off_c, 1, 52, 64
3, 156672, Note_on_c, 1, 54, 80
3, 156860, Note_off_c, 1, 54, 64
3, 156864, Note_on_c, 1, 42, 80
3, 157052, Note_off_c, 1, 42, 64
3, 157056, Note_on_c, 1, 45, 80
3, 157244, Note_off_c, 1, 45, 64
3, 157248, Note_on_c, 1, 50, 80
3, 157436, Note_off_c, 1, 50, 64
3, 157440, Note_on_c, 1, 54, 80
3, 157628, Note_off_c, 1, 54, 64
3, 157632, Note_on_c, 1, 52, 80
3, 157820, Note_off_c, 1, 52, 64
3, 157824, Note_on_c, 1, 50, 80
3, 158012, Note_off_c, 1, 50, 64
3, 158016, Note_on_c, 1, 49, 80
3, 158204, Note_off_c, 1, 49, 64
3, 158208, Note_on_c, 1, 50, 80
3, 158396, Note_off_c, 1, 50, 64
3, 158400, Note_on_c, 1, 50, 80
3, 158588, Note_off_c, 1, 50, 64
3, 158592, Note_on_c, 1, 54, 81
3, 158780, Note_off_c, 1, 54, 64
3, 158784, Note_on_c, 1, 57, 82
3, 158972, Note_off_c, 1, 57, 64
3, 158976, Note_on_c, 1, 62, 84
3, 159164, Note_off_c, 1, 62, 64
3, 159168, Note_on_c, 1, 61, 86
3, 159356, Note_off_c, 1, 61, 64
3, 159360, Note_on_c, 1, 59, 88
3, 159548, Note_off_c, 1, 59, 64
3, 159552, Note_on_c, 1, 57, 90
3, 159740, Note_off_c, 1, 57, 64
3, 159744, Note_on_c, 1, 56, 99
3, 160508, Note_off_c, 1, 56, 64
3, 160896, Note_on_c, 1, 64, 99
3, 160896, Note_on_c, 1, 56, 99
3, 161276, Note_off_c, 1, 64, 64
3, 161276, Note_off_c, 1, 56, 64
3, 161280, Note_on_c, 1, 61, 99
3, 161280, Note_on_c, 1, 57, 99
3, 161660, Note_off_c, 1, 61, 64
3, 161660, Note_off_c, 1, 57, 64
3, 164352, Note_on_c, 1, 57, 99
3, 164352, Note_on_c, 1, 54, 99
3, 164352, Note_on_c, 1, 50, 99
3, 164732, Note_off_c, 1, 57, 64
3, 164732, Note_off_c, 1, 54, 64
3, 164732, Note_off_c, 1, 50, 64
3, 167424, Note_on_c, 1, 52, 80
3, 167612, Note_off_c, 1, 52, 64
3, 167616, Note_on_c, 1, 61, 80
3, 167804, Note_off_c, 1, 61, 64
3, 167808, Note_on_c, 1, 57, 80
3, 167996, Note_off_c, 1, 57, 64
3, 168000, Note_on_c, 1, 61, 80
3, 168188, Note_off_c, 1, 61, 64
3, 168192, Note_on_c, 1, 52, 80
3, 168380, Note_off_c, 1, 52, 64
3, 168384, Note_on_c, 1, 61, 80
3, 168572, Note_off_c, 1, 61, 64
3, 168576, Note_on_c, 1, 57, 80
3, 168764, Note_off_c, 1, 57, 64
3, 168768, Note_on_c, 1, 61, 80
3, 168956, Note_off_c, 1, 61, 64
3, 168960, Note_on_c, 1, 52, 80
3, 169148, Note_off_c, 1, 52, 64
3, 169152, Note_on_c, 1, 62, 80
3, 169340, Note_off_c, 1, 62, 64
3, 169344, Note_on_c, 1, 56, 80
3, 169532, Note_off_c, 1, 56, 64
3, 169536, Note_on_c, 1, 62, 80
3, 169724, Note_off_c, 1, 62, 64
3, 169728, Note_on_c, 1, 52, 79
3, 169916, Note_off_c, 1, 52, 64
3, 169920, Note_on_c, 1, 62, 77
3, 170108, Note_off_c, 1, 62, 64
3, 170112, Note_on_c, 1, 56, 74
3, 170300, Note_off_c, 1, 56, 64
3, 170304, Note_on_c, 1, 62, 72
3, 170492, Note_off_c, 1, 62, 64
3, 170496, Note_on_c, 1, 45, 70
3, 170684, Note_off_c, 1, 45, 64
3, 170688, Note_on_c, 1, 57, 70
3, 170876, Note_off_c, 1, 57, 64
3, 170880, Note_on_c, 1, 44, 70
3, 171068, Note_off_c, 1, 44, 64
3, 171072, Note_on_c, 1, 56, 70
3, 171260, Note_off_c, 1, 56, 64
3, 171264, Note_on_c, 1, 45, 70
3, 171452, Note_off_c, 1, 45, 64
3, 171456, Note_on_c, 1, 57, 70
3, 171644, Note_off_c, 1, 57, 64
3, 171648, Note_on_c, 1, 44, 70
3, 171836, Note_off_c, 1, 44, 64
3, 171840, Note_on_c, 1, 56, 71
3, 172028, Note_off_c, 1, 56, 64
3, 172032, Note_on_c, 1, 45, 71
3, 172220, Note_off_c, 1, 45, 64
3, 172224, Note_on_c, 1, 57, 72
3, 172412, Note_off_c, 1, 57, 64
3, 172416, Note_on_c, 1, 49, 72
3, 172604, Note_off_c, 1, 49, 64
3, 172608, Note_on_c, 1, 61, 73
3, 172796, Note_off_c, 1, 61, 64
3, 172800, Note_on_c, 1, 52, 73
3, 172988, Note_off_c, 1, 52, 64
3, 172992, Note_on_c, 1, 64, 74
3, 173180, Note_off_c, 1, 64, 64
3, 173184, Note_on_c, 1, 55, 74
3, 173372, Note_off_c, 1, 55, 64
3, 173376, Note_on_c, 1, 67, 75
3, 173564, Note_off_c, 1, 67, 64
3, 173568, Note_on_c, 1, 54, 75
3, 173756, Note_off_c, 1, 54, 64
3, 173760, Note_on_c, 1, 66, 76
3, 173948, Note_off_c, 1, 66, 64
3, 173952, Note_on_c, 1, 52, 76
3, 174140, Note_off_c, 1, 52, 64
3, 174144, Note_on_c, 1, 64, 77
3, 174332, Note_off_c, 1, 64, 64
3, 174336, Note_on_c, 1, 50, 77
3, 174524, Note_off_c, 1, 50, 64
3, 174528, Note_on_c, 1, 62, 78
3, 174716, Note_off_c, 1, 62, 64
3, 174720, Note_on_c, 1, 49, 78
3, 174908, Note_off_c, 1, 49, 64
3, 174912, Note_on_c, 1, 61, 79
3, 175100, Note_off_c, 1, 61, 64
3, 175104, Note_on_c, 1, 50, 79
3, 175292, Note_off_c, 1, 50, 64
3, 175296, Note_on_c, 1, 62, 80
3, 175484, Note_off_c, 1, 62, 64
3, 175488, Note_on_c, 1, 52, 80
3, 175676, Note_off_c, 1, 52, 64
3, 175680, Note_on_c, 1, 64, 80
3, 175868, Note_off_c, 1, 64, 64
3, 175872, Note_on_c, 1, 54, 81
3, 176060, Note_off_c, 1, 54, 64
3, 176064, Note_on_c, 1, 66, 81
3, 176252, Note_off_c, 1, 66, 64
3, 176256, Note_on_c, 1, 55, 82
3, 176444, Note_off_c, 1, 55, 64
3, 176448, Note_on_c, 1, 67, 82
3, 176636, Note_off_c, 1, 67, 64
3, 176640, Note_on_c, 1, 54, 83
3, 176828, Note_off_c, 1, 54, 64
3, 176832, Note_on_c, 1, 66, 83
3, 177020, Note_off_c, 1, 66, 64
3, 177024, Note_on_c, 1, 52, 84
3, 177212, Note_off_c, 1, 52, 64
3, 177216, Note_on_c, 1, 64, 84
3, 177404, Note_off_c, 1, 64, 64
3, 177408, Note_on_c, 1, 50, 85
3, 177596, Note_off_c, 1, 50, 64
3, 177600, Note_on_c, 1, 62, 85
3, 177788, Note_off_c, 1, 62, 64
3, 177792, Note_on_c, 1, 49, 86
3, 177980, Note_off_c, 1, 49, 64
3, 177984, Note_on_c, 1, 61, 86
3, 178172, Note_off_c, 1, 61, 64
3, 178176, Note_on_c, 1, 50, 87
3, 178364, Note_off_c, 1, 50, 64
3, 178368, Note_on_c, 1, 62, 87
3, 178556, Note_off_c, 1, 62, 64
3, 178560, Note_on_c, 1, 54, 88
3, 178748, Note_off_c, 1, 54, 64
3, 178752, Note_on_c, 1, 66, 88
3, 178940, Note_off_c, 1, 66, 64
3, 178944, Note_on_c, 1, 52, 89
3, 179132, Note_off_c, 1, 52, 64
3, 179136, Note_on_c, 1, 64, 89
3, 179324, Note_off_c, 1, 64, 64
3, 179328, Note_on_c, 1, 51, 90
3, 179516, Note_off_c, 1, 51, 64
3, 179520, Note_on_c, 1, 63, 90
3, 179708, Note_off_c, 1, 63, 64
3, 179712, Note_on_c, 1, 64, 99
3, 179712, Note_on_c, 1, 52, 99
3, 180476, Note_off_c, 1, 64, 64
3, 180476, Note_off_c, 1, 52, 64
3, 185856, Note_on_c, 1, 52, 99
3, 186044, Note_off_c, 1, 52, 64
3, 186048, Note_on_c, 1, 61, 99
3, 186236, Note_off_c, 1, 61, 64
3, 186240, Note_on_c, 1, 57, 99
3, 186428, Note_off_c, 1, 57, 64
3, 186432, Note_on_c, 1, 61, 99
3, 186620, Note_off_c, 1, 61, 64
3, 186624, Note_on_c, 1, 52, 99
3, 186812, Note_off_c, 1, 52, 64
3, 186816, Note_on_c, 1, 61, 99
3, 187004, Note_off_c, 1, 61, 64
3, 187008, Note_on_c, 1, 57, 99
3, 187196, Note_off_c, 1, 57, 64
3, 187200, Note_on_c, 1, 61, 99
3, 187388, Note_off_c, 1, 61, 64
3, 187392, Note_on_c, 1, 52, 99
3, 187580, Note_off_c, 1, 52, 64
3, 187584, Note_on_c, 1, 61, 99
3, 187772, Note_off_c, 1, 61, 64
3, 187776, Note_on_c, 1, 57, 99
3, 187964, Note_off_c, 1, 57, 64
3, 187968, Note_on_c, 1, 61, 99
3, 188156, Note_off_c, 1, 61, 64
3, 188160, Note_on_c, 1, 52, 99
3, 188348, Note_off_c, 1, 52, 64
3, 188352, Note_on_c, 1, 61, 99
3, 188540, Note_off_c, 1, 61, 64
3, 188544, Note_on_c, 1, 57, 99
3, 188732, Note_off_c, 1, 57, 64
3, 188736, Note_on_c, 1, 61, 99
3, 188924, Note_off_c, 1, 61, 64
3, 188928, Note_on_c, 1, 52, 99
3, 189116, Note_off_c, 1, 52, 64
3, 189120, Note_on_c, 1, 62, 99
3, 189308, Note_off_c, 1, 62, 64
3, 189312, Note_on_c, 1, 56, 99
3, 189500, Note_off_c, 1, 56, 64
3, 189504, Note_on_c, 1, 62, 99
3, 189692, Note_off_c, 1, 62, 64
3, 189696, Note_on_c, 1, 52, 99
3, 189884, Note_off_c, 1, 52, 64
3, 189888, Note_on_c, 1, 62, 99
3, 190076, Note_off_c, 1, 62, 64
3, 190080, Note_on_c, 1, 56, 99
3, 190268, Note_off_c, 1, 56, 64
3, 190272, Note_on_c, 1, 62, 99
3, 190460, Note_off_c, 1, 62, 64
3, 190464, Note_on_c, 1, 52, 99
3, 190652, Note_off_c, 1, 52, 64
3, 190656, Note_on_c, 1, 62, 99
3, 190844, Note_off_c, 1, 62, 64
3, 190848, Note_on_c, 1, 56, 99
3, 191036, Note_off_c, 1, 56, 64
3, 191040, Note_on_c, 1, 62, 99
3, 191228, Note_off_c, 1, 62, 64
3, 191232, Note_on_c, 1, 52, 99
3, 191420, Note_off_c, 1, 52, 64
3, 191424, Note_on_c, 1, 62, 99
3, 191612, Note_off_c, 1, 62, 64
3, 191616, Note_on_c, 1, 56, 99
3, 191804, Note_off_c, 1, 56, 64
3, 191808, Note_on_c, 1, 62, 99
3, 191996, Note_off_c, 1, 62, 64
3, 192000, Note_on_c, 1, 57, 99
3, 192000, Note_on_c, 1, 61, 99
3, 192764, Note_off_c, 1, 57, 64
3, 192764, Note_off_c, 1, 61, 64
3, 208896, Note_on_c, 1, 45, 99
3, 208896, Note_on_c, 1, 33, 99
3, 209660, Note_off_c, 1, 45, 64
3, 209660, Note_off_c, 1, 33, 64
3, 211968, Note_on_c, 1, 50, 99
3, 211968, Note_on_c, 1, 38, 99
3, 212732, Note_off_c, 1, 50, 64
3, 212732, Note_off_c, 1, 38, 64
3, 215040, Note_on_c, 1, 48, 99
3, 215040, Note_on_c, 1, 36, 99
3, 215804, Note_off_c, 1, 48, 64
3, 215804, Note_off_c, 1, 36, 64
3, 218112, Note_on_c, 1, 47, 99
3, 218112, Note_on_c, 1, 35, 99
3, 218876, Note_off_c, 1, 47, 64
3, 218876, Note_off_c, 1, 35, 64
3, 221184, Note_on_c, 1, 51, 99
3, 221184, Note_on_c, 1, 39, 99
3, 221948, Note_off_c, 1, 51, 64
3, 221948, Note_off_c, 1, 39, 64
3, 224256, Note_on_c, 1, 52, 99
3, 224256, Note_on_c, 1, 40, 99
3, 225020, Note_off_c, 1, 52, 64
3, 225020, Note_off_c, 1, 40, 64
3, 227328, Note_on_c, 1, 49, 99
3, 227328, Note_on_c, 1, 37, 99
3, 228092, Note_off_c, 1, 49, 64
3, 228092, Note_off_c, 1, 37, 64
3, 230400, Note_on_c, 1, 50, 99
3, 230400, Note_on_c, 1, 38, 99
3, 230780, Note_off_c, 1, 50, 64
3, 230780, Note_off_c, 1, 38, 64
3, 231552, Note_on_c, 1, 54, 99
3, 231932, Note_off_c, 1, 54, 64
3, 231936, Note_on_c, 1, 55, 99
3, 233084, Note_off_c, 1, 55, 64
3, 233088, Note_on_c, 1, 56, 99
3, 233468, Note_off_c, 1, 56, 64
3, 233472, Note_on_c, 1, 57, 99
3, 233852, Note_off_c, 1, 57, 64
3, 233856, Note_on_c, 1, 55, 99
3, 234236, Note_off_c, 1, 55, 64
3, 234240, Note_on_c, 1, 54, 99
3, 234620, Note_off_c, 1, 54, 64
3, 234624, Note_on_c, 1, 50, 99
3, 235004, Note_off_c, 1, 50, 64
3, 235008, Note_on_c, 1, 43, 98
3, 236156, Note_off_c, 1, 43, 64
3, 236160, Note_on_c, 1, 44, 76
3, 236540, Note_off_c, 1, 44, 64
3, 236544, Note_on_c, 1, 45, 66
3, 236924, Note_off_c, 1, 45, 64
3, 251904, Note_on_c, 1, 50, 99
3, 252092, Note_off_c, 1, 50, 64
3, 252096, Note_on_c, 1, 54, 99
3, 252284, Note_off_c, 1, 54, 64
3, 252288, Note_on_c, 1, 57, 99
3, 252476, Note_off_c, 1, 57, 64
3, 252480, Note_on_c, 1, 62, 99
3, 252668, Note_off_c, 1, 62, 64
3, 252672, Note_on_c, 1, 50, 99
3, 252860, Note_off_c, 1, 50, 64
3, 252864, Note_on_c, 1, 62, 99
3, 253052, Note_off_c, 1, 62, 64
3, 253056, Note_on_c, 1, 61, 99
3, 253244, Note_off_c, 1, 61, 64
3, 253248, Note_on_c, 1, 59, 99
3, 253436, Note_off_c, 1, 59, 64
3, 253440, Note_on_c, 1, 57, 99
3, 253628, Note_off_c, 1, 57, 64
3, 253632, Note_on_c, 1, 59, 99
3, 253820, Note_off_c, 1, 59, 64
3, 253824, Note_on_c, 1, 57, 99
3, 254012, Note_off_c, 1, 57, 64
3, 254016, Note_on_c, 1, 59, 99
3, 254204, Note_off_c, 1, 59, 64
3, 254208, Note_on_c, 1, 57, 99
3, 254396, Note_off_c, 1, 57, 64
3, 254400, Note_on_c, 1, 55, 99
3, 254588, Note_off_c, 1, 55, 64
3, 254592, Note_on_c, 1, 54, 99
3, 254780, Note_off_c, 1, 54, 64
3, 254784, Note_on_c, 1, 52, 99
3, 254972, Note_off_c, 1, 52, 64
3, 254976, Note_on_c, 1, 54, 99
3, 255356, Note_off_c, 1, 54, 64
3, 255360, Note_on_c, 1, 50, 99
3, 255740, Note_off_c, 1, 50, 64
3, 255936, Note_on_c, 1, 54, 99
3, 256124, Note_off_c, 1, 54, 64
3, 256128, Note_on_c, 1, 52, 99
3, 256316, Note_off_c, 1, 52, 64
3, 256320, Note_on_c, 1, 50, 99
3, 256508, Note_off_c, 1, 50, 64
3, 256512, Note_on_c, 1, 49, 99
3, 256892, Note_off_c, 1, 49, 64
3, 256896, Note_on_c, 1, 45, 99
3, 257276, Note_off_c, 1, 45, 64
3, 257280, Note_on_c, 1, 52, 99
3, 257660, Note_off_c, 1, 52, 64
3, 257664, Note_on_c, 1, 49, 99
3, 258044, Note_off_c, 1, 49, 64
3, 258048, Note_on_c, 1, 50, 99
3, 258236, Note_off_c, 1, 50, 64
3, 258240, Note_on_c, 1, 45, 99
3, 258428, Note_off_c, 1, 45, 64
3, 258432, Note_on_c, 1, 42, 99
3, 258620, Note_off_c, 1, 42, 64
3, 258624, Note_on_c, 1, 45, 99
3, 258812, Note_off_c, 1, 45, 64
3, 258816, Note_on_c, 1, 38, 99
3, 259004, Note_off_c, 1, 38, 64
3, 259008, Note_on_c, 1, 50, 99
3, 259196, Note_off_c, 1, 50, 64
3, 259200, Note_on_c, 1, 52, 99
3, 259388, Note_off_c, 1, 52, 64
3, 259392, Note_on_c, 1, 54, 99
3, 259580, Note_off_c, 1, 54, 64
3, 259584, Note_on_c, 1, 52, 99
3, 259772, Note_off_c, 1, 52, 64
3, 259776, Note_on_c, 1, 45, 99
3, 259964, Note_off_c, 1, 45, 64
3, 259968, Note_on_c, 1, 49, 99
3, 260156, Note_off_c, 1, 49, 64
3, 260160, Note_on_c, 1, 52, 99
3, 260348, Note_off_c, 1, 52, 64
3, 260352, Note_on_c, 1, 55, 99
3, 260412, Note_off_c, 1, 55, 64
3, 260416, Note_on_c, 1, 57, 99
3, 260476, Note_off_c, 1, 57, 64
3, 260480, Note_on_c, 1, 55, 99
3, 260540, Note_off_c, 1, 55, 64
3, 260544, Note_on_c, 1, 57, 99
3, 260604, Note_off_c, 1, 57, 64
3, 260608, Note_on_c, 1, 55, 99
3, 260668, Note_off_c, 1, 55, 64
3, 260672, Note_on_c, 1, 57, 99
3, 260732, Note_off_c, 1, 57, 64
3, 260736, Note_on_c, 1, 55, 99
3, 260796, Note_off_c, 1, 55, 64
3, 260800, Note_on_c, 1, 57, 99
3, 260860, Note_off_c, 1, 57, 64
3, 260864, Note_on_c, 1, 54, 99
3, 260988, Note_off_c, 1, 54, 64
3, 260992, Note_on_c, 1, 55, 99
3, 261116, Note_off_c, 1, 55, 64
3, 261120, Note_on_c, 1, 54, 99
3, 261500, Note_off_c, 1, 54, 64
3, 261504, Note_on_c, 1, 50, 99
3, 261884, Note_off_c, 1, 50, 64
3, 262080, Note_on_c, 1, 54, 99
3, 262268, Note_off_c, 1, 54, 64
3, 262272, Note_on_c, 1, 52, 99
3, 262460, Note_off_c, 1, 52, 64
3, 262464, Note_on_c, 1, 50, 99
3, 262652, Note_off_c, 1, 50, 64
3, 262656, Note_on_c, 1, 49, 99
3, 263036, Note_off_c, 1, 49, 64
3, 263040, Note_on_c, 1, 45, 99
3, 263420, Note_off_c, 1, 45, 64
3, 263424, Note_on_c, 1, 52, 99
3, 263804, Note_off_c, 1, 52, 64
3, 263808, Note_on_c, 1, 49, 99
3, 264188, Note_off_c, 1, 49, 64
3, 264192, Note_on_c, 1, 57, 99
3, 264192, Note_on_c, 1, 54, 99
3, 264192, Note_on_c, 1, 50, 99
3, 264956, Note_off_c, 1, 57, 64
3, 264956, Note_off_c, 1, 54, 64
3, 264956, Note_off_c, 1, 50, 64
3, 264960, Note_on_c, 1, 59, 99
3, 264960, Note_on_c, 1, 55, 99
3, 265724, Note_off_c, 1, 59, 64
3, 265724, Note_off_c, 1, 55, 64
3, 265728, Note_on_c, 1, 66, 99
3, 265728, Note_on_c, 1, 62, 99
3, 265728, Note_on_c, 1, 57, 99
3, 266492, Note_off_c, 1, 66, 64
3, 266492, Note_off_c, 1, 62, 64
3, 266492, Note_off_c, 1, 57, 64
3, 266496, Note_on_c, 1, 67, 99
3, 266496, Note_on_c, 1, 64, 99
3, 266496, Note_on_c, 1, 57, 99
3, 267260, Note_off_c, 1, 67, 64
3, 267260, Note_off_c, 1, 64, 64
3, 267260, Note_off_c, 1, 57, 64
3, 267264, Note_on_c, 1, 62, 99
3, 267264, Note_on_c, 1, 66, 99
3, 267644, Note_off_c, 1, 62, 64
3, 267644, Note_off_c, 1, 66, 64
3, 270336, Note_on_c, 1, 50, 99
3, 270336, Note_on_c, 1, 38, 99
3, 270716, Note_off_c, 1, 50, 64
3, 270716, Note_off_c, 1, 38, 64
3, 273408, Note_on_c, 1, 62, 99
3, 273408, Note_on_c, 1, 50, 99
3, 274172, Note_off_c, 1, 62, 64
3, 274172, Note_off_c, 1, 50, 64
3, 276480, Note_on_c, 1, 50, 99
3, 276480, Note_on_c, 1, 38, 99
3, 276860, Note_off_c, 1, 50, 64
3, 276860, Note_off_c, 1, 38, 64
3, 279552, Note_on_c, 1, 55, 99
3, 279552, Note_on_c, 1, 43, 99
3, 280316, Note_off_c, 1, 55, 64
3, 280316, Note_off_c, 1, 43, 64
3, 282624, Note_on_c, 1, 55, 99
3, 282624, Note_on_c, 1, 43, 99
3, 283004, Note_off_c, 1, 55, 64
3, 283004, Note_off_c, 1, 43, 64
3, 285696, Note_on_c, 1, 59, 99
3, 285696, Note_on_c, 1, 47, 99
3, 286460, Note_off_c, 1, 59, 64
3, 286460, Note_off_c, 1, 47, 64
3, 288768, Note_on_c, 1, 47, 99
3, 288768, Note_on_c, 1, 35, 99
3, 289532, Note_off_c, 1, 47, 64
3, 289532, Note_off_c, 1, 35, 64
3, 291840, Note_on_c, 1, 52, 99
3, 291840, Note_on_c, 1, 40, 99
3, 292604, Note_off_c, 1, 52, 64
3, 292604, Note_off_c, 1, 40, 64
3, 294912, Note_on_c, 1, 52, 99
3, 294912, Note_on_c, 1, 40, 99
3, 295292, Note_off_c, 1, 52, 64
3, 295292, Note_off_c, 1, 40, 64
3, 297984, Note_on_c, 1, 57, 99
3, 297984, Note_on_c, 1, 45, 99
3, 298748, Note_off_c, 1, 57, 64
3, 298748, Note_off_c, 1, 45, 64
3, 301056, Note_on_c, 1, 45, 99
3, 301056, Note_on_c, 1, 33, 99
3, 301056, Note_on_c, 1, 57, 99
3, 301244, Note_off_c, 1, 57, 64
3, 301248, Note_on_c, 1, 52, 99
3, 301436, Note_off_c, 1, 45, 64
3, 301436, Note_off_c, 1, 33, 64
3, 301436, Note_off_c, 1, 52, 64
3, 301440, Note_on_c, 1, 61, 99
3, 301628, Note_off_c, 1, 61, 64
3, 301632, Note_on_c, 1, 57, 99
3, 301820, Note_off_c, 1, 57, 64
3, 314880, Note_on_c, 1, 55, 70
3, 315068, Note_off_c, 1, 55, 64
3, 315072, Note_on_c, 1, 64, 70
3, 315260, Note_off_c, 1, 64, 64
3, 315264, Note_on_c, 1, 59, 71
3, 315452, Note_off_c, 1, 59, 64
3, 315456, Note_on_c, 1, 64, 76
3, 315644, Note_off_c, 1, 64, 64
3, 315648, Note_on_c, 1, 55, 81
3, 315836, Note_off_c, 1, 55, 64
3, 315840, Note_on_c, 1, 64, 86
3, 316028, Note_off_c, 1, 64, 64
3, 316032, Note_on_c, 1, 56, 91
3, 316220, Note_off_c, 1, 56, 64
3, 316224, Note_on_c, 1, 64, 97
3, 316412, Note_off_c, 1, 64, 64
3, 316416, Note_on_c, 1, 57, 99
3, 316604, Note_off_c, 1, 57, 64
3, 316608, Note_on_c, 1, 69, 96
3, 316796, Note_off_c, 1, 69, 64
3, 316800, Note_on_c, 1, 55, 92
3, 316988, Note_off_c, 1, 55, 64
3, 316992, Note_on_c, 1, 67, 88
3, 317180, Note_off_c, 1, 67, 64
3, 317184, Note_on_c, 1, 54, 84
3, 317372, Note_off_c, 1, 54, 64
3, 317376, Note_on_c, 1, 66, 80
3, 317564, Note_off_c, 1, 66, 64
3, 317568, Note_on_c, 1, 52, 76
3, 317756, Note_off_c, 1, 52, 64
3, 317760, Note_on_c, 1, 64, 72
3, 317948, Note_off_c, 1, 64, 64
3, 317952, Note_on_c, 1, 50, 70
3, 319484, Note_off_c, 1, 50, 64
3, 330240, Note_on_c, 1, 50, 70
3, 330240, Note_on_c, 1, 38, 70
3, 331772, Note_off_c, 1, 50, 64
3, 331772, Note_off_c, 1, 38, 64
3, 331776, Note_on_c, 1, 57, 70
3, 331776, Note_on_c, 1, 54, 70
3, 333308, Note_off_c, 1, 57, 64
3, 333308, Note_off_c, 1, 54, 64
3, 333312, Note_on_c, 1, 55, 70
3, 333312, Note_on_c, 1, 52, 70
3, 334844, Note_off_c, 1, 55, 64
3, 334844, Note_off_c, 1, 52, 64
3, 334848, Note_on_c, 1, 61, 70
3, 334848, Note_on_c, 1, 57, 70
3, 336380, Note_off_c, 1, 61, 64
3, 336380, Note_off_c, 1, 57, 64
3, 336384, Note_on_c, 1, 62, 70
3, 336384, Note_on_c, 1, 50, 70
3, 337916, Note_off_c, 1, 62, 64
3, 337916, Note_off_c, 1, 50, 64
3, 337920, Note_on_c, 1, 62, 71
3, 337920, Note_on_c, 1, 59, 71
3, 339452, Note_off_c, 1, 62, 64
3, 339452, Note_off_c, 1, 59, 64
3, 339456, Note_on_c, 1, 66, 99
3, 339456, Note_on_c, 1, 62, 99
3, 339456, Note_on_c, 1, 57, 99
3, 340988, Note_off_c, 1, 66, 64
3, 340988, Note_off_c, 1, 62, 64
3, 340988, Note_off_c, 1, 57, 64
3, 340992, Note_on_c, 1, 67, 97
3, 340992, Note_on_c, 1, 61, 97
3, 340992, Note_on_c, 1, 57, 97
3, 342524, Note_off_c, 1, 67, 64
3, 342524, Note_off_c, 1, 61, 64
3, 342524, Note_off_c, 1, 57, 64
3, 355968, Note_on_c, 1, 62, 88
3, 355968, Note_on_c, 1, 54, 88
3, 356348, Note_off_c, 1, 62, 64
3, 356348, Note_off_c, 1, 54, 64
3, 356352, Note_on_c, 1, 62, 88
3, 356352, Note_on_c, 1, 55, 88
3, 357116, Note_off_c, 1, 62, 64
3, 357116, Note_off_c, 1, 55, 64
3, 357504, Note_on_c, 1, 63, 88
3, 357504, Note_on_c, 1, 51, 88
3, 357884, Note_off_c, 1, 63, 64
3, 357884, Note_off_c, 1, 51, 64
3, 357888, Note_on_c, 1, 64, 88
3, 357888, Note_on_c, 1, 52, 88
3, 358652, Note_off_c, 1, 64, 64
3, 358652, Note_off_c, 1, 52, 64
3, 359040, Note_on_c, 1, 57, 88
3, 359040, Note_on_c, 1, 54, 88
3, 359420, Note_off_c, 1, 57, 64
3, 359420, Note_off_c, 1, 54, 64
3, 359424, Note_on_c, 1, 59, 87
3, 359424, Note_on_c, 1, 55, 87
3, 360188, Note_off_c, 1, 59, 64
3, 360188, Note_off_c, 1, 55, 64
3, 360192, Note_on_c, 1, 66, 78
3, 360192, Note_on_c, 1, 62, 78
3, 360192, Note_on_c, 1, 57, 78
3, 360572, Note_off_c, 1, 66, 64
3, 360572, Note_off_c, 1, 62, 64
3, 360572, Note_off_c, 1, 57, 64
3, 360576, Note_on_c, 1, 67, 73
3, 360576, Note_on_c, 1, 64, 73
3, 360576, Note_on_c, 1, 57, 73
3, 360956, Note_off_c, 1, 67, 64
3, 360956, Note_off_c, 1, 64, 64
3, 360956, Note_off_c, 1, 57, 64
3, 360960, Note_on_c, 1, 62, 70
3, 361148, Note_off_c, 1, 62, 64
3, 361152, Note_on_c, 1, 50, 70
3, 361340, Note_off_c, 1, 50, 64
3, 361344, Note_on_c, 1, 54, 70
3, 361532, Note_off_c, 1, 54, 64
3, 361536, Note_on_c, 1, 57, 70
3, 361724, Note_off_c, 1, 57, 64
3, 361728, Note_on_c, 1, 62, 70
3, 361916, Note_off_c, 1, 62, 64
3, 361920, Note_on_c, 1, 61, 70
3, 362108, Note_off_c, 1, 61, 64
3, 362112, Note_on_c, 1, 59, 70
3, 362300, Note_off_c, 1, 59, 64
3, 362304, Note_on_c, 1, 57, 70
3, 362492, Note_off_c, 1, 57, 64
3, 362496, Note_on_c, 1, 59, 71
3, 362684, Note_off_c, 1, 59, 64
3, 362688, Note_on_c, 1, 47, 72
3, 362876, Note_off_c, 1, 47, 64
3, 362880, Note_on_c, 1, 50, 73
3, 363068, Note_off_c, 1, 50, 64
3, 363072, Note_on_c, 1, 55, 74
3, 363260, Note_off_c, 1, 55, 64
3, 363264, Note_on_c, 1, 59, 76
3, 363452, Note_off_c, 1, 59, 64
3, 363456, Note_on_c, 1, 57, 77
3, 363644, Note_off_c, 1, 57, 64
3, 363648, Note_on_c, 1, 55, 78
3, 363836, Note_off_c, 1, 55, 64
3, 363840, Note_on_c, 1, 54, 80
3, 364028, Note_off_c, 1, 54, 64
3, 364032, Note_on_c, 1, 55, 81
3, 364220, Note_off_c, 1, 55, 64
3, 364224, Note_on_c, 1, 43, 82
3, 364412, Note_off_c, 1, 43, 64
3, 364416, Note_on_c, 1, 47, 83
3, 364604, Note_off_c, 1, 47, 64
3, 364608, Note_on_c, 1, 50, 85
3, 364796, Note_off_c, 1, 50, 64
3, 364800, Note_on_c, 1, 55, 86
3, 364988, Note_off_c, 1, 55, 64
3, 364992, Note_on_c, 1, 54, 87
3, 365180, Note_off_c, 1, 54, 64
3, 365184, Note_on_c, 1, 52, 89
3, 365372, Note_off_c, 1, 52, 64
3, 365376, Note_on_c, 1, 50, 90
3, 365564, Note_off_c, 1, 50, 64
3, 365568, Note_on_c, 1, 49, 91
3, 366332, Note_off_c, 1, 49, 64
3, 366720, Note_on_c, 1, 57, 99
3, 366720, Note_on_c, 1, 52, 99
3, 366720, Note_on_c, 1, 49, 99
3, 367100, Note_off_c, 1, 57, 64
3, 367100, Note_off_c, 1, 52, 64
3, 367100, Note_off_c, 1, 49, 64
3, 367104, Note_on_c, 1, 57, 99
3, 367104, Note_on_c, 1, 54, 99
3, 367104, Note_on_c, 1, 50, 99
3, 367484, Note_off_c, 1, 57, 64
3, 367484, Note_off_c, 1, 54, 64
3, 367484, Note_off_c, 1, 50, 64
3, 370176, Note_on_c, 1, 62, 99
3, 370176, Note_on_c, 1, 59, 99
3, 370176, Note_on_c, 1, 55, 99
3, 370556, Note_off_c, 1, 62, 64
3, 370556, Note_off_c, 1, 59, 64
3, 370556, Note_off_c, 1, 55, 64
3, 373248, Note_on_c, 1, 57, 70
3, 373436, Note_off_c, 1, 57, 64
3, 373440, Note_on_c, 1, 66, 70
3, 373628, Note_off_c, 1, 66, 64
3, 373632, Note_on_c, 1, 62, 70
3, 373820, Note_off_c, 1, 62, 64
3, 373824, Note_on_c, 1, 66, 70
3, 374012, Note_off_c, 1, 66, 64
3, 374016, Note_on_c, 1, 57, 70
3, 374204, Note_off_c, 1, 57, 64
3, 374208, Note_on_c, 1, 66, 70
3, 374396, Note_off_c, 1, 66, 64
3, 374400, Note_on_c, 1, 62, 70
3, 374588, Note_off_c, 1, 62, 64
3, 374592, Note_on_c, 1, 66, 70
3, 374780, Note_off_c, 1, 66, 64
3, 374784, Note_on_c, 1, 57, 70
3, 374972, Note_off_c, 1, 57, 64
3, 374976, Note_on_c, 1, 67, 70
3, 375164, Note_off_c, 1, 67, 64
3, 375168, Note_on_c, 1, 61, 70
3, 375356, Note_off_c, 1, 61, 64
3, 375360, Note_on_c, 1, 67, 70
3, 375548, Note_off_c, 1, 67, 64
3, 375552, Note_on_c, 1, 57, 70
3, 375740, Note_off_c, 1, 57, 64
3, 375744, Note_on_c, 1, 67, 70
3, 375932, Note_off_c, 1, 67, 64
3, 375936, Note_on_c, 1, 61, 70
3, 376124, Note_off_c, 1, 61, 64
3, 376128, Note_on_c, 1, 67, 70
3, 376316, Note_off_c, 1, 67, 64
3, 376320, Note_on_c, 1, 38, 99
3, 376508, Note_off_c, 1, 38, 64
3, 376512, Note_on_c, 1, 50, 99
3, 376700, Note_off_c, 1, 50, 64
3, 376704, Note_on_c, 1, 37, 99
3, 376892, Note_off_c, 1, 37, 64
3, 376896, Note_on_c, 1, 49, 99
3, 377084, Note_off_c, 1, 49, 64
3, 377088, Note_on_c, 1, 38, 99
3, 377276, Note_off_c, 1, 38, 64
3, 377280, Note_on_c, 1, 50, 99
3, 377468, Note_off_c, 1, 50, 64
3, 377472, Note_on_c, 1, 37, 99
3, 377660, Note_off_c, 1, 37, 64
3, 377664, Note_on_c, 1, 49, 99
3, 377852, Note_off_c, 1, 49, 64
3, 377856, Note_on_c, 1, 38, 99
3, 378044, Note_off_c, 1, 38, 64
3, 378048, Note_on_c, 1, 50, 99
3, 378236, Note_off_c, 1, 50, 64
3, 378240, Note_on_c, 1, 42, 99
3, 378428, Note_off_c, 1, 42, 64
3, 378432, Note_on_c, 1, 54, 99
3, 378620, Note_off_c, 1, 54, 64
3, 378624, Note_on_c, 1, 45, 99
3, 378812, Note_off_c, 1, 45, 64
3, 378816, Note_on_c, 1, 57, 99
3, 379004, Note_off_c, 1, 57, 64
3, 379008, Note_on_c, 1, 48, 99
3, 379196, Note_off_c, 1, 48, 64
3, 379200, Note_on_c, 1, 60, 99
3, 379388, Note_off_c, 1, 60, 64
3, 379392, Note_on_c, 1, 47, 99
3, 379580, Note_off_c, 1, 47, 64
3, 379584, Note_on_c, 1, 59, 99
3, 379772, Note_off_c, 1, 59, 64
3, 379776, Note_on_c, 1, 45, 99
3, 379964, Note_off_c, 1, 45, 64
3, 379968, Note_on_c, 1, 57, 99
3, 380156, Note_off_c, 1, 57, 64
3, 380160, Note_on_c, 1, 43, 99
3, 380348, Note_off_c, 1, 43, 64
3, 380352, Note_on_c, 1, 55, 99
3, 380540, Note_off_c, 1, 55, 64
3, 380544, Note_on_c, 1, 42, 99
3, 380732, Note_off_c, 1, 42, 64
3, 380736, Note_on_c, 1, 54, 99
3, 380924, Note_off_c, 1, 54, 64
3, 380928, Note_on_c, 1, 43, 99
3, 381116, Note_off_c, 1, 43, 64
3, 381120, Note_on_c, 1, 55, 99
3, 381308, Note_off_c, 1, 55, 64
3, 381312, Note_on_c, 1, 45, 99
3, 381500, Note_off_c, 1, 45, 64
3, 381504, Note_on_c, 1, 57, 99
3, 381692, Note_off_c, 1, 57, 64
3, 381696, Note_on_c, 1, 47, 99
3, 381884, Note_off_c, 1, 47, 64
3, 381888, Note_on_c, 1, 59, 99
3, 382076, Note_off_c, 1, 59, 64
3, 382080, Note_on_c, 1, 48, 99
3, 382268, Note_off_c, 1, 48, 64
3, 382272, Note_on_c, 1, 60, 99
3, 382460, Note_off_c, 1, 60, 64
3, 382464, Note_on_c, 1, 47, 99
3, 382652, Note_off_c, 1, 47, 64
3, 382656, Note_on_c, 1, 59, 99
3, 382844, Note_off_c, 1, 59, 64
3, 382848, Note_on_c, 1, 45, 99
3, 383036, Note_off_c, 1, 45, 64
3, 383040, Note_on_c, 1, 57, 99
3, 383228, Note_off_c, 1, 57, 64
3, 383232, Note_on_c, 1, 43, 99
3, 383420, Note_off_c, 1, 43, 64
3, 383424, Note_on_c, 1, 55, 99
3, 383612, Note_off_c, 1, 55, 64
3, 383616, Note_on_c, 1, 42, 99
3, 383804, Note_off_c, 1, 42, 64
3, 383808, Note_on_c, 1, 54, 99
3, 383996, Note_off_c, 1, 54, 64
3, 384000, Note_on_c, 1, 43, 99
3, 384188, Note_off_c, 1, 43, 64
3, 384192, Note_on_c, 1, 55, 99
3, 384380, Note_off_c, 1, 55, 64
3, 384384, Note_on_c, 1, 47, 99
3, 384572, Note_off_c, 1, 47, 64
3, 384576, Note_on_c, 1, 59, 99
3, 384764, Note_off_c, 1, 59, 64
3, 384768, Note_on_c, 1, 45, 99
3, 384956, Note_off_c, 1, 45, 64
3, 384960, Note_on_c, 1, 57, 99
3, 385148, Note_off_c, 1, 57, 64
3, 385152, Note_on_c, 1, 44, 99
3, 385340, Note_off_c, 1, 44, 64
3, 385344, Note_on_c, 1, 56, 99
3, 385532, Note_off_c, 1, 56, 64
3, 385536, Note_on_c, 1, 57, 99
3, 385536, Note_on_c, 1, 45, 99
3, 386300, Note_off_c, 1, 57, 64
3, 386300, Note_off_c, 1, 45, 64
3, 391680, Note_on_c, 1, 45, 99
3, 391868, Note_off_c, 1, 45, 64
3, 391872, Note_on_c, 1, 54, 99
3, 392060, Note_off_c, 1, 54, 64
3, 392064, Note_on_c, 1, 50, 99
3, 392252, Note_off_c, 1, 50, 64
3, 392256, Note_on_c, 1, 54, 99
3, 392444, Note_off_c, 1, 54, 64
3, 392448, Note_on_c, 1, 45, 99
3, 392636, Note_off_c, 1, 45, 64
3, 392640, Note_on_c, 1, 54, 99
3, 392828, Note_off_c, 1, 54, 64
3, 392832, Note_on_c, 1, 50, 99
3, 393020, Note_off_c, 1, 50, 64
3, 393024, Note_on_c, 1, 54, 99
3, 393212, Note_off_c, 1, 54, 64
3, 393216, Note_on_c, 1, 45, 99
3, 393404, Note_off_c, 1, 45, 64
3, 393408, Note_on_c, 1, 54, 99
3, 393596, Note_off_c, 1, 54, 64
3, 393600, Note_on_c, 1, 50, 99
3, 393788, Note_off_c, 1, 50, 64
3, 393792, Note_on_c, 1, 54, 99
3, 393980, Note_off_c, 1, 54, 64
3, 393984, Note_on_c, 1, 45, 99
3, 394172, Note_off_c, 1, 45, 64
3, 394176, Note_on_c, 1, 54, 99
3, 394364, Note_off_c, 1, 54, 64
3, 394368, Note_on_c, 1, 50, 99
3, 394556, Note_off_c, 1, 50, 64
3, 394560, Note_on_c, 1, 54, 99
3, 394748, Note_off_c, 1, 54, 64
3, 394752, Note_on_c, 1, 45, 99
3, 394940, Note_off_c, 1, 45, 64
3, 394944, Note_on_c, 1, 55, 99
3, 395132, Note_off_c, 1, 55, 64
3, 395136, Note_on_c, 1, 49, 99
3, 395324, Note_off_c, 1, 49, 64
3, 395328, Note_on_c, 1, 55, 99
3, 395516, Note_off_c, 1, 55, 64
3, 395520, Note_on_c, 1, 45, 99
3, 395708, Note_off_c, 1, 45, 64
3, 395712, Note_on_c, 1, 55, 99
3, 395900, Note_off_c, 1, 55, 64
3, 395904, Note_on_c, 1, 49, 99
3, 396092, Note_off_c, 1, 49, 64
3, 396096, Note_on_c, 1, 55, 99
3, 396284, Note_off_c, 1, 55, 64
3, 396288, Note_on_c, 1, 45, 99
3, 396476, Note_off_c, 1, 45, 64
3, 396480, Note_on_c, 1, 55, 99
3, 396668, Note_off_c, 1, 55, 64
3, 396672, Note_on_c, 1, 49, 99
3, 396860, Note_off_c, 1, 49, 64
3, 396864, Note_on_c, 1, 55, 99
3, 397052, Note_off_c, 1, 55, 64
3, 397056, Note_on_c, 1, 45, 99
3, 397244, Note_off_c, 1, 45, 64
3, 397248, Note_on_c, 1, 55, 99
3, 397436, Note_off_c, 1, 55, 64
3, 397440, Note_on_c, 1, 49, 99
3, 397628, Note_off_c, 1, 49, 64
3, 397632, Note_on_c, 1, 55, 99
3, 397820, Note_off_c, 1, 55, 64
3, 397824, Note_on_c, 1, 54, 99
3, 397824, Note_on_c, 1, 50, 99
3, 398588, Note_off_c, 1, 54, 64
3, 398588, Note_off_c, 1, 50, 64
3, 417792, Note_on_c, 1, 57, 88
3, 417980, Note_off_c, 1, 57, 64
3, 417984, Note_on_c, 1, 66, 88
3, 418172, Note_off_c, 1, 66, 64
3, 418176, Note_on_c, 1, 62, 88
3, 418364, Note_off_c, 1, 62, 64
3, 418368, Note_on_c, 1, 66, 88
3, 418556, Note_off_c, 1, 66, 64
3, 418560, Note_on_c, 1, 57, 87
3, 418748, Note_off_c, 1, 57, 64
3, 418752, Note_on_c, 1, 66, 86
3, 418940, Note_off_c, 1, 66, 64
3, 418944, Note_on_c, 1, 62, 84
3, 419132, Note_off_c, 1, 62, 64
3, 419136, Note_on_c, 1, 66, 83
3, 419324, Note_off_c, 1, 66, 64
3, 419328, Note_on_c, 1, 57, 81
3, 419516, Note_off_c, 1, 57, 64
3, 419520, Note_on_c, 1, 66, 80
3, 419708, Note_off_c, 1, 66, 64
3, 419712, Note_on_c, 1, 62, 78
3, 419900, Note_off_c, 1, 62, 64
3, 419904, Note_on_c, 1, 66, 76
3, 420092, Note_off_c, 1, 66, 64
3, 420096, Note_on_c, 1, 57, 75
3, 420284, Note_off_c, 1, 57, 64
3, 420288, Note_on_c, 1, 66, 73
3, 420476, Note_off_c, 1, 66, 64
3, 420480, Note_on_c, 1, 62, 72
3, 420668, Note_off_c, 1, 62, 64
3, 420672, Note_on_c, 1, 66, 70
3, 420860, Note_off_c, 1, 66, 64
3, 420864, Note_on_c, 1, 57, 70
3, 421052, Note_off_c, 1, 57, 64
3, 421056, Note_on_c, 1, 66, 70
3, 421244, Note_off_c, 1, 66, 64
3, 421248, Note_on_c, 1, 62, 70
3, 421436, Note_off_c, 1, 62, 64
3, 421440, Note_on_c, 1, 66, 70
3, 421628, Note_off_c, 1, 66, 64
3, 421632, Note_on_c, 1, 57, 70
3, 421820, Note_off_c, 1, 57, 64
3, 421824, Note_on_c, 1, 66, 70
3, 422012, Note_off_c, 1, 66, 64
3, 422016, Note_on_c, 1, 62, 70
3, 422204, Note_off_c, 1, 62, 64
3, 422208, Note_on_c, 1, 66, 70
3, 422396, Note_off_c, 1, 66, 64
3, 422400, Note_on_c, 1, 55, 70
3, 422588, Note_off_c, 1, 55, 64
3, 422592, Note_on_c, 1, 64, 70
3, 422780, Note_off_c, 1, 64, 64
3, 422784, Note_on_c, 1, 57, 70
3, 422972, Note_off_c, 1, 57, 64
3, 422976, Note_on_c, 1, 64, 70
3, 423164, Note_off_c, 1, 64, 64
3, 423168, Note_on_c, 1, 55, 70
3, 423356, Note_off_c, 1, 55, 64
3, 423360, Note_on_c, 1, 64, 70
3, 423548, Note_off_c, 1, 64, 64
3, 423552, Note_on_c, 1, 57, 70
3, 423740, Note_off_c, 1, 57, 64
3, 423744, Note_on_c, 1, 64, 70
3, 423932, Note_off_c, 1, 64, 64
3, 423936, Note_on_c, 1, 54, 70
3, 424124, Note_off_c, 1, 54, 64
3, 424128, Note_on_c, 1, 62, 70
3, 424316, Note_off_c, 1, 62, 64
3, 424320, Note_on_c, 1, 57, 70
3, 424508, Note_off_c, 1, 57, 64
3, 424512, Note_on_c, 1, 62, 70
3, 424700, Note_off_c, 1, 62, 64
3, 424704, Note_on_c, 1, 54, 70
3, 424892, Note_off_c, 1, 54, 64
3, 424896, Note_on_c, 1, 62, 70
3, 425084, Note_off_c, 1, 62, 64
3, 425088, Note_on_c, 1, 57, 70
3, 425276, Note_off_c, 1, 57, 64
3, 425280, Note_on_c, 1, 62, 70
3, 425468, Note_off_c, 1, 62, 64
3, 425472, Note_on_c, 1, 52, 70
3, 425660, Note_off_c, 1, 52, 64
3, 425664, Note_on_c, 1, 61, 70
3, 425852, Note_off_c, 1, 61, 64
3, 425856, Note_on_c, 1, 57, 70
3, 426044, Note_off_c, 1, 57, 64
3, 426048, Note_on_c, 1, 61, 70
3, 426236, Note_off_c, 1, 61, 64
3, 426240, Note_on_c, 1, 52, 70
3, 426428, Note_off_c, 1, 52, 64
3, 426432, Note_on_c, 1, 61, 70
3, 426620, Note_off_c, 1, 61, 64
3, 426624, Note_on_c, 1, 57, 70
3, 426812, Note_off_c, 1, 57, 64
3, 426816, Note_on_c, 1, 61, 70
3, 427004, Note_off_c, 1, 61, 64
3, 427008, Note_on_c, 1, 53, 70
3, 427196, Note_off_c, 1, 53, 64
3, 427200, Note_on_c, 1, 62, 70
3, 427388, Note_off_c, 1, 62, 64
3, 427392, Note_on_c, 1, 57, 70
3, 427580, Note_off_c, 1, 57, 64
3, 427584, Note_on_c, 1, 62, 70
3, 427772, Note_off_c, 1, 62, 64
3, 427776, Note_on_c, 1, 53, 70
3, 427964, Note_off_c, 1, 53, 64
3, 427968, Note_on_c, 1, 62, 70
3, 428156, Note_off_c, 1, 62, 64
3, 428160, Note_on_c, 1, 57, 70
3, 428348, Note_off_c, 1, 57, 64
3, 428352, Note_on_c, 1, 62, 70
3, 428540, Note_off_c, 1, 62, 64
3, 428544, Note_on_c, 1, 55, 70
3, 428732, Note_off_c, 1, 55, 64
3, 428736, Note_on_c, 1, 64, 70
3, 428924, Note_off_c, 1, 64, 64
3, 428928, Note_on_c, 1, 57, 70
3, 429116, Note_off_c, 1, 57, 64
3, 429120, Note_on_c, 1, 64, 70
3, 429308, Note_off_c, 1, 64, 64
3, 429312, Note_on_c, 1, 55, 70
3, 429500, Note_off_c, 1, 55, 64
3, 429504, Note_on_c, 1, 64, 70
3, 429692, Note_off_c, 1, 64, 64
3, 429696, Note_on_c, 1, 57, 70
3, 429884, Note_off_c, 1, 57, 64
3, 429888, Note_on_c, 1, 64, 70
3, 430076, Note_off_c, 1, 64, 64
3, 430080, Note_on_c, 1, 62, 70
3, 430080, Note_on_c, 1, 53, 70
3, 430460, Note_off_c, 1, 62, 64
3, 430460, Note_off_c, 1, 53, 64
3, 430464, Note_on_c, 1, 62, 70
3, 430844, Note_off_c, 1, 62, 64
3, 430848, Note_on_c, 1, 62, 70
3, 431228, Note_off_c, 1, 62, 64
3, 431232, Note_on_c, 1, 62, 70
3, 431612, Note_off_c, 1, 62, 64
3, 436224, Note_on_c, 1, 54, 75
3, 436604, Note_off_c, 1, 54, 64
3, 436608, Note_on_c, 1, 54, 77
3, 436988, Note_off_c, 1, 54, 64
3, 436992, Note_on_c, 1, 54, 80
3, 437180, Note_off_c, 1, 54, 64
3, 437184, Note_on_c, 1, 53, 81
3, 437372, Note_off_c, 1, 53, 64
3, 437376, Note_on_c, 1, 55, 82
3, 437564, Note_off_c, 1, 55, 64
3, 437568, Note_on_c, 1, 54, 83
3, 437756, Note_off_c, 1, 54, 64
3, 437760, Note_on_c, 1, 55, 84
3, 438140, Note_off_c, 1, 55, 64
3, 438144, Note_on_c, 1, 55, 87
3, 438524, Note_off_c, 1, 55, 64
3, 438528, Note_on_c, 1, 55, 89
3, 438716, Note_off_c, 1, 55, 64
3, 438720, Note_on_c, 1, 54, 90
3, 438908, Note_off_c, 1, 54, 64
3, 438912, Note_on_c, 1, 57, 91
3, 439100, Note_off_c, 1, 57, 64
3, 439104, Note_on_c, 1, 55, 92
3, 439292, Note_off_c, 1, 55, 64
3, 439296, Note_on_c, 1, 56, 93
3, 439676, Note_off_c, 1, 56, 64
3, 439680, Note_on_c, 1, 56, 96
3, 440060, Note_off_c, 1, 56, 64
3, 440064, Note_on_c, 1, 56, 98
3, 440252, Note_off_c, 1, 56, 64
3, 440256, Note_on_c, 1, 55, 99
3, 440444, Note_off_c, 1, 55, 64
3, 440448, Note_on_c, 1, 57, 99
3, 440636, Note_off_c, 1, 57, 64
3, 440640, Note_on_c, 1, 56, 99
3, 440828, Note_off_c, 1, 56, 64
3, 440832, Note_on_c, 1, 45, 99
3, 441020, Note_off_c, 1, 45, 64
3, 441024, Note_on_c, 1, 57, 99
3, 441212, Note_off_c, 1, 57, 64
3, 441216, Note_on_c, 1, 44, 99
3, 441404, Note_off_c, 1, 44, 64
3, 441408, Note_on_c, 1, 56, 99
3, 441596, Note_off_c, 1, 56, 64
3, 441600, Note_on_c, 1, 47, 99
3, 441788, Note_off_c, 1, 47, 64
3, 441792, Note_on_c, 1, 59, 99
3, 441980, Note_off_c, 1, 59, 64
3, 441984, Note_on_c, 1, 45, 99
3, 442172, Note_off_c, 1, 45, 64
3, 442176, Note_on_c, 1, 57, 99
3, 442364, Note_off_c, 1, 57, 64
3, 442368, Note_on_c, 1, 42, 99
3, 442556, Note_off_c, 1, 42, 64
3, 442560, Note_on_c, 1, 54, 99
3, 442748, Note_off_c, 1, 54, 64
3, 442752, Note_on_c, 1, 41, 99
3, 442940, Note_off_c, 1, 41, 64
3, 442944, Note_on_c, 1, 53, 99
3, 443132, Note_off_c, 1, 53, 64
3, 443136, Note_on_c, 1, 43, 99
3, 443324, Note_off_c, 1, 43, 64
3, 443328, Note_on_c, 1, 55, 99
3, 443516, Note_off_c, 1, 55, 64
3, 443520, Note_on_c, 1, 42, 99
3, 443708, Note_off_c, 1, 42, 64
3, 443712, Note_on_c, 1, 54, 99
3, 443900, Note_off_c, 1, 54, 64
3, 443904, Note_on_c, 1, 40, 99
3, 444092, Note_off_c, 1, 40, 64
3, 444096, Note_on_c, 1, 52, 99
3, 444284, Note_off_c, 1, 52, 64
3, 444288, Note_on_c, 1, 38, 99
3, 444476, Note_off_c, 1, 38, 64
3, 444480, Note_on_c, 1, 50, 99
3, 444668, Note_off_c, 1, 50, 64
3, 444672, Note_on_c, 1, 37, 99
3, 444860, Note_off_c, 1, 37, 64
3, 444864, Note_on_c, 1, 49, 99
3, 445052, Note_off_c, 1, 49, 64
3, 445056, Note_on_c, 1, 38, 99
3, 445244, Note_off_c, 1, 38, 64
3, 445248, Note_on_c, 1, 50, 99
3, 445436, Note_off_c, 1, 50, 64
3, 445440, Note_on_c, 1, 42, 99
3, 445628, Note_off_c, 1, 42, 64
3, 445632, Note_on_c, 1, 54, 99
3, 445820, Note_off_c, 1, 54, 64
3, 445824, Note_on_c, 1, 45, 99
3, 446012, Note_off_c, 1, 45, 64
3, 446016, Note_on_c, 1, 57, 99
3, 446204, Note_off_c, 1, 57, 64
3, 446208, Note_on_c, 1, 50, 99
3, 446396, Note_off_c, 1, 50, 64
3, 446400, Note_on_c, 1, 62, 99
3, 446588, Note_off_c, 1, 62, 64
3, 446592, Note_on_c, 1, 54, 99
3, 446780, Note_off_c, 1, 54, 64
3, 446784, Note_on_c, 1, 66, 99
3, 446972, Note_off_c, 1, 66, 64
3, 446976, Note_on_c, 1, 67, 99
3, 446976, Note_on_c, 1, 55, 99
3, 448508, Note_off_c, 1, 67, 64
3, 448508, Note_off_c, 1, 55, 64
3, 448512, Note_on_c, 1, 64, 101
3, 448512, Note_on_c, 1, 52, 101
3, 450044, Note_off_c, 1, 64, 64
3, 450044, Note_off_c, 1, 52, 64
3, 450048, Note_on_c, 1, 61, 104
3, 450048, Note_on_c, 1, 49, 104
3, 450428, Note_off_c, 1, 61, 64
3, 450428, Note_off_c, 1, 49, 64
3, 450816, Note_on_c, 1, 57, 105
3, 450816, Note_on_c, 1, 45, 105
3, 451196, Note_off_c, 1, 57, 64
3, 451196, Note_off_c, 1, 45, 64
3, 451584, Note_on_c, 1, 45, 106
3, 451584, Note_on_c, 1, 33, 106
3, 451676, Note_off_c, 1, 45, 64
3, 451676, Note_off_c, 1, 33, 64
3, 451680, Note_on_c, 1, 57, 106
3, 451680, Note_on_c, 1, 64, 106
3, 451680, Note_on_c, 1, 67, 106
3, 452828, Note_off_c, 1, 57, 64
3, 452828, Note_off_c, 1, 64, 64
3, 452828, Note_off_c, 1, 67, 64
3, 453120, Note_on_c, 1, 50, 110
3, 453140, Note_on_c, 1, 57, 110
3, 453160, Note_on_c, 1, 66, 110
3, 453884, Note_off_c, 1, 50, 64
3, 453904, Note_off_c, 1, 57, 64
3, 453924, Note_off_c, 1, 66, 64
3, 453924, End_track
4, 0, Start_track
4, 0, Title_t, "Midi by:"
4, 0, Control_c, 2, 0, 0
4, 0, Program_c, 2, 48
4, 0, Control_c, 2, 7, 127
4, 0, Control_c, 2, 10, 39
4, 0, Control_c, 2, 91, 70
4, 0, Control_c, 2, 93, 54
4, 0, Key_signature, 2, "major"
4, 0, Control_c, 2, 121, 0
4, 384, Control_c, 2, 10, 53
4, 480, Control_c, 2, 91, 63
4, 672, Program_c, 2, 48
4, 1536, Note_on_c, 2, 86, 95
4, 3068, Note_off_c, 2, 86, 64
4, 3072, Note_on_c, 2, 81, 90
4, 4604, Note_off_c, 2, 81, 64
4, 4608, Note_on_c, 2, 78, 85
4, 4988, Note_off_c, 2, 78, 64
4, 4992, Note_on_c, 2, 74, 85
4, 5372, Note_off_c, 2, 74, 64
4, 5760, Note_on_c, 2, 74, 85
4, 6140, Note_off_c, 2, 74, 64
4, 6144, Note_on_c, 2, 73, 85
4, 6524, Note_off_c, 2, 73, 64
4, 6528, Note_on_c, 2, 69, 85
4, 6908, Note_off_c, 2, 69, 64
4, 6912, Note_on_c, 2, 76, 85
4, 7292, Note_off_c, 2, 76, 64
4, 7296, Note_on_c, 2, 73, 85
4, 7676, Note_off_c, 2, 73, 64
4, 7680, Note_on_c, 2, 74, 85
4, 8060, Note_off_c, 2, 74, 64
4, 8064, Note_on_c, 2, 69, 85
4, 8444, Note_off_c, 2, 69, 64
4, 8448, Note_on_c, 2, 81, 85
4, 9980, Note_off_c, 2, 81, 64
4, 9984, Note_on_c, 2, 76, 85
4, 9984, Note_on_c, 2, 69, 85
4, 9984, Note_on_c, 2, 79, 85
4, 10044, Note_off_c, 2, 79, 64
4, 10048, Note_on_c, 2, 81, 85
4, 10108, Note_off_c, 2, 81, 64
4, 10112, Note_on_c, 2, 79, 85
4, 10172, Note_off_c, 2, 79, 64
4, 10176, Note_on_c, 2, 81, 85
4, 10236, Note_off_c, 2, 81, 64
4, 10240, Note_on_c, 2, 79, 85
4, 10300, Note_off_c, 2, 79, 64
4, 10304, Note_on_c, 2, 81, 85
4, 10364, Note_off_c, 2, 81, 64
4, 10368, Note_on_c, 2, 79, 85
4, 10428, Note_off_c, 2, 79, 64
4, 10432, Note_on_c, 2, 81, 85
4, 10492, Note_off_c, 2, 81, 64
4, 10496, Note_on_c, 2, 78, 85
4, 10620, Note_off_c, 2, 78, 64
4, 10624, Note_on_c, 2, 79, 85
4, 10748, Note_off_c, 2, 76, 64
4, 10748, Note_off_c, 2, 69, 64
4, 10748, Note_off_c, 2, 79, 64
4, 10752, Note_on_c, 2, 78, 85
4, 10752, Note_on_c, 2, 74, 85
4, 11132, Note_off_c, 2, 78, 64
4, 11132, Note_off_c, 2, 74, 64
4, 11136, Note_on_c, 2, 78, 85
4, 11516, Note_off_c, 2, 78, 64
4, 11520, Note_on_c, 2, 78, 85
4, 11580, Note_off_c, 2, 78, 64
4, 11584, Note_on_c, 2, 79, 85
4, 11644, Note_off_c, 2, 79, 64
4, 11648, Note_on_c, 2, 78, 85
4, 11708, Note_off_c, 2, 78, 64
4, 11712, Note_on_c, 2, 79, 85
4, 11772, Note_off_c, 2, 79, 64
4, 11776, Note_on_c, 2, 76, 85
4, 11836, Note_off_c, 2, 76, 64
4, 11840, Note_on_c, 2, 78, 85
4, 11900, Note_off_c, 2, 78, 64
4, 11904, Note_on_c, 2, 76, 85
4, 12092, Note_off_c, 2, 76, 64
4, 12096, Note_on_c, 2, 74, 85
4, 12284, Note_off_c, 2, 74, 64
4, 12288, Note_on_c, 2, 73, 85
4, 12668, Note_off_c, 2, 73, 64
4, 12672, Note_on_c, 2, 69, 85
4, 13052, Note_off_c, 2, 69, 64
4, 13056, Note_on_c, 2, 76, 85
4, 13056, Note_on_c, 2, 69, 85
4, 13436, Note_off_c, 2, 76, 64
4, 13440, Note_on_c, 2, 73, 85
4, 13820, Note_off_c, 2, 69, 64
4, 13820, Note_off_c, 2, 73, 64
4, 13824, Note_on_c, 2, 74, 85
4, 13824, Note_on_c, 2, 69, 85
4, 14204, Note_off_c, 2, 74, 64
4, 14204, Note_off_c, 2, 69, 64
4, 14208, Note_on_c, 2, 69, 85
4, 14588, Note_off_c, 2, 69, 64
4, 14592, Note_on_c, 2, 81, 85
4, 16124, Note_off_c, 2, 81, 64
4, 16128, Note_on_c, 2, 79, 85
4, 16128, Note_on_c, 2, 76, 85
4, 16128, Note_on_c, 2, 69, 85
4, 16892, Note_off_c, 2, 79, 64
4, 16892, Note_off_c, 2, 76, 64
4, 16892, Note_off_c, 2, 69, 64
4, 16896, Note_on_c, 2, 78, 85
4, 16896, Note_on_c, 2, 74, 85
4, 17084, Note_off_c, 2, 78, 64
4, 17084, Note_off_c, 2, 74, 64
4, 17088, Note_on_c, 2, 69, 85
4, 17276, Note_off_c, 2, 69, 64
4, 17280, Note_on_c, 2, 78, 85
4, 17280, Note_on_c, 2, 74, 85
4, 17468, Note_off_c, 2, 78, 64
4, 17468, Note_off_c, 2, 74, 64
4, 17472, Note_on_c, 2, 69, 85
4, 17660, Note_off_c, 2, 69, 64
4, 17664, Note_on_c, 2, 79, 85
4, 17664, Note_on_c, 2, 76, 85
4, 17852, Note_off_c, 2, 79, 64
4, 17852, Note_off_c, 2, 76, 64
4, 17856, Note_on_c, 2, 69, 85
4, 18044, Note_off_c, 2, 69, 64
4, 18048, Note_on_c, 2, 79, 85
4, 18048, Note_on_c, 2, 76, 85
4, 18236, Note_off_c, 2, 79, 64
4, 18236, Note_off_c, 2, 76, 64
4, 18240, Note_on_c, 2, 69, 85
4, 18240, Note_on_c, 2, 69, 85
4, 18428, Note_off_c, 2, 69, 64
4, 18428, Note_off_c, 2, 69, 64
4, 18432, Note_on_c, 2, 78, 85
4, 18432, Note_on_c, 2, 74, 85
4, 18620, Note_off_c, 2, 78, 64
4, 18620, Note_off_c, 2, 74, 64
4, 18624, Note_on_c, 2, 69, 85
4, 18812, Note_off_c, 2, 69, 64
4, 18816, Note_on_c, 2, 78, 85
4, 18816, Note_on_c, 2, 74, 85
4, 19004, Note_off_c, 2, 78, 64
4, 19004, Note_off_c, 2, 74, 64
4, 19008, Note_on_c, 2, 69, 85
4, 19196, Note_off_c, 2, 69, 64
4, 19200, Note_on_c, 2, 76, 85
4, 19200, Note_on_c, 2, 73, 85
4, 19388, Note_off_c, 2, 76, 64
4, 19388, Note_off_c, 2, 73, 64
4, 19392, Note_on_c, 2, 69, 85
4, 19580, Note_off_c, 2, 69, 64
4, 19584, Note_on_c, 2, 76, 85
4, 19584, Note_on_c, 2, 73, 85
4, 19772, Note_off_c, 2, 76, 64
4, 19772, Note_off_c, 2, 73, 64
4, 19776, Note_on_c, 2, 69, 85
4, 19964, Note_off_c, 2, 69, 64
4, 19968, Note_on_c, 2, 78, 85
4, 19968, Note_on_c, 2, 74, 85
4, 20156, Note_off_c, 2, 78, 64
4, 20156, Note_off_c, 2, 74, 64
4, 20160, Note_on_c, 2, 69, 85
4, 20348, Note_off_c, 2, 69, 64
4, 20352, Note_on_c, 2, 78, 85
4, 20352, Note_on_c, 2, 74, 85
4, 20540, Note_off_c, 2, 78, 64
4, 20540, Note_off_c, 2, 74, 64
4, 20544, Note_on_c, 2, 69, 85
4, 20732, Note_off_c, 2, 69, 64
4, 20736, Note_on_c, 2, 80, 85
4, 20736, Note_on_c, 2, 76, 85
4, 20924, Note_off_c, 2, 80, 64
4, 20924, Note_off_c, 2, 76, 64
4, 20928, Note_on_c, 2, 74, 85
4, 21116, Note_off_c, 2, 74, 64
4, 21120, Note_on_c, 2, 80, 85
4, 21120, Note_on_c, 2, 76, 85
4, 21308, Note_off_c, 2, 80, 64
4, 21308, Note_off_c, 2, 76, 64
4, 21312, Note_on_c, 2, 74, 85
4, 21500, Note_off_c, 2, 74, 64
4, 21504, Note_on_c, 2, 81, 85
4, 21504, Note_on_c, 2, 76, 85
4, 21504, Note_on_c, 2, 73, 85
4, 22268, Note_off_c, 2, 81, 64
4, 22268, Note_off_c, 2, 76, 64
4, 22268, Note_off_c, 2, 73, 64
4, 23808, Note_on_c, 2, 81, 60
4, 23808, Note_on_c, 2, 69, 60
4, 24956, Note_off_c, 2, 69, 64
4, 24956, Note_off_c, 2, 81, 64
4, 24960, Note_on_c, 2, 78, 60
4, 24960, Note_on_c, 2, 66, 60
4, 25340, Note_off_c, 2, 78, 64
4, 25340, Note_off_c, 2, 66, 64
4, 25344, Note_on_c, 2, 74, 60
4, 25344, Note_on_c, 2, 62, 60
4, 26492, Note_off_c, 2, 62, 64
4, 26492, Note_off_c, 2, 74, 64
4, 26496, Note_on_c, 2, 73, 60
4, 26496, Note_on_c, 2, 61, 60
4, 26876, Note_off_c, 2, 73, 64
4, 26876, Note_off_c, 2, 61, 64
4, 26880, Note_on_c, 2, 79, 60
4, 26880, Note_on_c, 2, 67, 60
4, 28028, Note_off_c, 2, 67, 64
4, 28028, Note_off_c, 2, 79, 64
4, 28032, Note_on_c, 2, 78, 60
4, 28220, Note_off_c, 2, 78, 64
4, 28224, Note_on_c, 2, 79, 60
4, 28412, Note_off_c, 2, 79, 64
4, 28416, Note_on_c, 2, 81, 60
4, 28416, Note_on_c, 2, 69, 60
4, 28796, Note_off_c, 2, 81, 64
4, 28796, Note_off_c, 2, 69, 64
4, 28800, Note_on_c, 2, 79, 60
4, 28800, Note_on_c, 2, 67, 60
4, 29180, Note_off_c, 2, 79, 64
4, 29180, Note_off_c, 2, 67, 64
4, 29184, Note_on_c, 2, 78, 60
4, 29184, Note_on_c, 2, 66, 60
4, 29948, Note_off_c, 2, 78, 64
4, 29948, Note_off_c, 2, 66, 64
4, 29952, Note_on_c, 2, 86, 60
4, 29952, Note_on_c, 2, 74, 60
4, 31100, Note_off_c, 2, 74, 64
4, 31100, Note_off_c, 2, 86, 64
4, 31104, Note_on_c, 2, 83, 60
4, 31104, Note_on_c, 2, 71, 60
4, 31484, Note_off_c, 2, 83, 64
4, 31484, Note_off_c, 2, 71, 64
4, 31488, Note_on_c, 2, 79, 60
4, 31488, Note_on_c, 2, 67, 60
4, 32636, Note_off_c, 2, 67, 64
4, 32636, Note_off_c, 2, 79, 64
4, 32640, Note_on_c, 2, 78, 60
4, 32640, Note_on_c, 2, 66, 60
4, 33020, Note_off_c, 2, 78, 64
4, 33020, Note_off_c, 2, 66, 64
4, 33024, Note_on_c, 2, 74, 60
4, 33024, Note_on_c, 2, 62, 60
4, 33024, Note_on_c, 2, 66, 60
4, 34172, Note_off_c, 2, 62, 64
4, 34172, Note_off_c, 2, 66, 64
4, 34172, Note_off_c, 2, 74, 64
4, 34176, Note_on_c, 2, 67, 60
4, 34176, Note_on_c, 2, 64, 60
4, 34176, Note_on_c, 2, 76, 60
4, 34940, Note_off_c, 2, 67, 64
4, 34940, Note_off_c, 2, 64, 64
4, 34940, Note_off_c, 2, 76, 64
4, 34944, Note_on_c, 2, 73, 60
4, 34944, Note_on_c, 2, 64, 60
4, 34944, Note_on_c, 2, 61, 60
4, 35324, Note_off_c, 2, 73, 64
4, 35324, Note_off_c, 2, 64, 64
4, 35324, Note_off_c, 2, 61, 64
4, 35328, Note_on_c, 2, 74, 60
4, 35328, Note_on_c, 2, 62, 60
4, 35708, Note_off_c, 2, 74, 64
4, 35708, Note_off_c, 2, 62, 64
4, 35712, Note_on_c, 2, 74, 60
4, 35712, Note_on_c, 2, 66, 60
4, 35900, Note_off_c, 2, 66, 64
4, 35904, Note_on_c, 2, 69, 60
4, 36092, Note_off_c, 2, 74, 64
4, 36092, Note_off_c, 2, 69, 64
4, 36096, Note_on_c, 2, 74, 60
4, 36096, Note_on_c, 2, 62, 60
4, 36284, Note_off_c, 2, 62, 64
4, 36288, Note_on_c, 2, 69, 60
4, 36476, Note_off_c, 2, 74, 64
4, 36476, Note_off_c, 2, 69, 64
4, 36480, Note_on_c, 2, 74, 60
4, 36480, Note_on_c, 2, 66, 60
4, 36668, Note_off_c, 2, 66, 64
4, 36672, Note_on_c, 2, 69, 60
4, 36860, Note_off_c, 2, 74, 64
4, 36860, Note_off_c, 2, 69, 64
4, 36864, Note_on_c, 2, 74, 60
4, 36864, Note_on_c, 2, 64, 60
4, 36864, Note_on_c, 2, 57, 60
4, 37052, Note_off_c, 2, 74, 64
4, 37052, Note_off_c, 2, 64, 64
4, 37052, Note_off_c, 2, 57, 64
4, 37056, Note_on_c, 2, 73, 60
4, 37056, Note_on_c, 2, 69, 60
4, 37244, Note_off_c, 2, 73, 64
4, 37244, Note_off_c, 2, 69, 64
4, 37248, Note_on_c, 2, 76, 60
4, 37248, Note_on_c, 2, 67, 60
4, 37436, Note_off_c, 2, 76, 64
4, 37436, Note_off_c, 2, 67, 64
4, 37440, Note_on_c, 2, 74, 60
4, 37440, Note_on_c, 2, 69, 60
4, 37628, Note_off_c, 2, 74, 64
4, 37628, Note_off_c, 2, 69, 64
4, 37632, Note_on_c, 2, 73, 60
4, 37632, Note_on_c, 2, 64, 60
4, 37820, Note_off_c, 2, 64, 64
4, 37824, Note_on_c, 2, 69, 60
4, 38012, Note_off_c, 2, 69, 64
4, 38016, Note_on_c, 2, 67, 60
4, 38204, Note_off_c, 2, 67, 64
4, 38208, Note_on_c, 2, 69, 60
4, 38396, Note_off_c, 2, 73, 64
4, 38396, Note_off_c, 2, 69, 64
4, 38784, Note_on_c, 2, 74, 60
4, 38784, Note_on_c, 2, 66, 60
4, 38972, Note_off_c, 2, 66, 64
4, 38976, Note_on_c, 2, 69, 60
4, 39164, Note_off_c, 2, 74, 64
4, 39164, Note_off_c, 2, 69, 64
4, 39168, Note_on_c, 2, 74, 60
4, 39168, Note_on_c, 2, 62, 60
4, 39356, Note_off_c, 2, 62, 64
4, 39360, Note_on_c, 2, 69, 60
4, 39548, Note_off_c, 2, 74, 64
4, 39548, Note_off_c, 2, 69, 64
4, 39552, Note_on_c, 2, 78, 60
4, 39552, Note_on_c, 2, 66, 60
4, 39740, Note_off_c, 2, 78, 64
4, 39740, Note_off_c, 2, 66, 64
4, 39744, Note_on_c, 2, 74, 60
4, 39744, Note_on_c, 2, 69, 60
4, 39932, Note_off_c, 2, 74, 64
4, 39932, Note_off_c, 2, 69, 64
4, 39936, Note_on_c, 2, 81, 60
4, 39936, Note_on_c, 2, 61, 60
4, 39936, Note_on_c, 2, 57, 60
4, 40124, Note_off_c, 2, 61, 64
4, 40124, Note_off_c, 2, 57, 64
4, 40128, Note_on_c, 2, 69, 60
4, 40316, Note_off_c, 2, 69, 64
4, 40320, Note_on_c, 2, 64, 60
4, 40508, Note_off_c, 2, 64, 64
4, 40512, Note_on_c, 2, 69, 60
4, 40700, Note_off_c, 2, 81, 64
4, 40700, Note_off_c, 2, 69, 64
4, 40704, Note_on_c, 2, 79, 60
4, 40704, Note_on_c, 2, 61, 60
4, 40892, Note_off_c, 2, 61, 64
4, 40896, Note_on_c, 2, 69, 60
4, 41084, Note_off_c, 2, 79, 64
4, 41084, Note_off_c, 2, 69, 64
4, 41088, Note_on_c, 2, 64, 60
4, 41276, Note_off_c, 2, 64, 64
4, 41280, Note_on_c, 2, 69, 60
4, 41468, Note_off_c, 2, 69, 64
4, 41856, Note_on_c, 2, 74, 60
4, 41856, Note_on_c, 2, 66, 60
4, 42044, Note_off_c, 2, 66, 64
4, 42048, Note_on_c, 2, 69, 60
4, 42236, Note_off_c, 2, 74, 64
4, 42236, Note_off_c, 2, 69, 64
4, 42240, Note_on_c, 2, 74, 60
4, 42240, Note_on_c, 2, 62, 60
4, 42428, Note_off_c, 2, 62, 64
4, 42432, Note_on_c, 2, 69, 60
4, 42620, Note_off_c, 2, 74, 64
4, 42620, Note_off_c, 2, 69, 64
4, 42624, Note_on_c, 2, 74, 60
4, 42624, Note_on_c, 2, 66, 60
4, 42812, Note_off_c, 2, 66, 64
4, 42816, Note_on_c, 2, 69, 60
4, 43004, Note_off_c, 2, 74, 64
4, 43004, Note_off_c, 2, 69, 64
4, 43008, Note_on_c, 2, 74, 60
4, 43008, Note_on_c, 2, 64, 60
4, 43008, Note_on_c, 2, 57, 60
4, 43196, Note_off_c, 2, 74, 64
4, 43196, Note_off_c, 2, 64, 64
4, 43196, Note_off_c, 2, 57, 64
4, 43200, Note_on_c, 2, 73, 60
4, 43200, Note_on_c, 2, 69, 60
4, 43388, Note_off_c, 2, 73, 64
4, 43388, Note_off_c, 2, 69, 64
4, 43392, Note_on_c, 2, 76, 60
4, 43392, Note_on_c, 2, 67, 60
4, 43580, Note_off_c, 2, 76, 64
4, 43580, Note_off_c, 2, 67, 64
4, 43584, Note_on_c, 2, 74, 60
4, 43584, Note_on_c, 2, 69, 60
4, 43772, Note_off_c, 2, 74, 64
4, 43772, Note_off_c, 2, 69, 64
4, 43776, Note_on_c, 2, 73, 60
4, 43776, Note_on_c, 2, 64, 60
4, 43964, Note_off_c, 2, 64, 64
4, 43968, Note_on_c, 2, 69, 60
4, 44156, Note_off_c, 2, 69, 64
4, 44160, Note_on_c, 2, 67, 60
4, 44348, Note_off_c, 2, 67, 64
4, 44352, Note_on_c, 2, 69, 60
4, 44540, Note_off_c, 2, 73, 64
4, 44540, Note_off_c, 2, 69, 64
4, 44928, Note_on_c, 2, 74, 60
4, 44928, Note_on_c, 2, 66, 60
4, 45116, Note_off_c, 2, 66, 64
4, 45120, Note_on_c, 2, 69, 60
4, 45308, Note_off_c, 2, 74, 64
4, 45308, Note_off_c, 2, 69, 64
4, 45312, Note_on_c, 2, 74, 60
4, 45312, Note_on_c, 2, 62, 60
4, 45500, Note_off_c, 2, 62, 64
4, 45504, Note_on_c, 2, 69, 60
4, 45692, Note_off_c, 2, 74, 64
4, 45692, Note_off_c, 2, 69, 64
4, 45696, Note_on_c, 2, 78, 60
4, 45696, Note_on_c, 2, 66, 60
4, 45884, Note_off_c, 2, 78, 64
4, 45884, Note_off_c, 2, 66, 64
4, 45888, Note_on_c, 2, 74, 60
4, 45888, Note_on_c, 2, 69, 60
4, 46076, Note_off_c, 2, 74, 64
4, 46076, Note_off_c, 2, 69, 64
4, 46080, Note_on_c, 2, 81, 60
4, 46080, Note_on_c, 2, 61, 60
4, 46080, Note_on_c, 2, 57, 60
4, 46268, Note_off_c, 2, 61, 64
4, 46268, Note_off_c, 2, 57, 64
4, 46272, Note_on_c, 2, 69, 60
4, 46460, Note_off_c, 2, 69, 64
4, 46464, Note_on_c, 2, 64, 60
4, 46652, Note_off_c, 2, 64, 64
4, 46656, Note_on_c, 2, 69, 60
4, 46844, Note_off_c, 2, 81, 64
4, 46844, Note_off_c, 2, 69, 64
4, 46848, Note_on_c, 2, 79, 60
4, 46848, Note_on_c, 2, 61, 60
4, 47036, Note_off_c, 2, 61, 64
4, 47040, Note_on_c, 2, 69, 60
4, 47228, Note_off_c, 2, 79, 64
4, 47228, Note_off_c, 2, 69, 64
4, 47232, Note_on_c, 2, 64, 60
4, 47420, Note_off_c, 2, 64, 64
4, 47424, Note_on_c, 2, 69, 60
4, 47612, Note_off_c, 2, 69, 64
4, 47616, Note_on_c, 2, 78, 85
4, 47616, Note_on_c, 2, 74, 85
4, 47616, Note_on_c, 2, 69, 85
4, 47804, Note_off_c, 2, 78, 64
4, 47804, Note_off_c, 2, 74, 64
4, 47804, Note_off_c, 2, 69, 64
4, 47808, Note_on_c, 2, 66, 85
4, 47996, Note_off_c, 2, 66, 64
4, 48000, Note_on_c, 2, 78, 85
4, 48000, Note_on_c, 2, 69, 85
4, 48000, Note_on_c, 2, 74, 85
4, 48188, Note_off_c, 2, 78, 64
4, 48188, Note_off_c, 2, 69, 64
4, 48188, Note_off_c, 2, 74, 64
4, 48192, Note_on_c, 2, 66, 85
4, 48380, Note_off_c, 2, 66, 64
4, 48384, Note_on_c, 2, 78, 85
4, 48384, Note_on_c, 2, 74, 85
4, 48384, Note_on_c, 2, 69, 85
4, 48572, Note_off_c, 2, 78, 64
4, 48572, Note_off_c, 2, 74, 64
4, 48572, Note_off_c, 2, 69, 64
4, 48576, Note_on_c, 2, 66, 85
4, 48764, Note_off_c, 2, 66, 64
4, 48768, Note_on_c, 2, 78, 85
4, 48768, Note_on_c, 2, 74, 85
4, 48768, Note_on_c, 2, 69, 85
4, 48956, Note_off_c, 2, 78, 64
4, 48956, Note_off_c, 2, 74, 64
4, 48956, Note_off_c, 2, 69, 64
4, 48960, Note_on_c, 2, 66, 85
4, 49148, Note_off_c, 2, 66, 64
4, 49152, Note_on_c, 2, 78, 85
4, 49152, Note_on_c, 2, 74, 85
4, 49340, Note_off_c, 2, 78, 64
4, 49340, Note_off_c, 2, 74, 64
4, 49344, Note_on_c, 2, 66, 85
4, 49532, Note_off_c, 2, 66, 64
4, 49536, Note_on_c, 2, 78, 85
4, 49536, Note_on_c, 2, 74, 85
4, 49724, Note_off_c, 2, 78, 64
4, 49724, Note_off_c, 2, 74, 64
4, 49728, Note_on_c, 2, 66, 85
4, 49916, Note_off_c, 2, 66, 64
4, 49920, Note_on_c, 2, 78, 85
4, 49920, Note_on_c, 2, 74, 85
4, 50108, Note_off_c, 2, 78, 64
4, 50108, Note_off_c, 2, 74, 64
4, 50112, Note_on_c, 2, 66, 85
4, 50300, Note_off_c, 2, 66, 64
4, 50304, Note_on_c, 2, 78, 85
4, 50304, Note_on_c, 2, 74, 85
4, 50492, Note_off_c, 2, 78, 64
4, 50492, Note_off_c, 2, 74, 64
4, 50496, Note_on_c, 2, 66, 85
4, 50684, Note_off_c, 2, 66, 64
4, 50688, Note_on_c, 2, 76, 85
4, 50688, Note_on_c, 2, 74, 85
4, 50688, Note_on_c, 2, 71, 85
4, 50876, Note_off_c, 2, 76, 64
4, 50876, Note_off_c, 2, 74, 64
4, 50876, Note_off_c, 2, 71, 64
4, 50880, Note_on_c, 2, 67, 85
4, 51068, Note_off_c, 2, 67, 64
4, 51072, Note_on_c, 2, 76, 85
4, 51072, Note_on_c, 2, 71, 85
4, 51072, Note_on_c, 2, 74, 85
4, 51260, Note_off_c, 2, 76, 64
4, 51260, Note_off_c, 2, 71, 64
4, 51260, Note_off_c, 2, 74, 64
4, 51264, Note_on_c, 2, 67, 85
4, 51452, Note_off_c, 2, 67, 64
4, 51456, Note_on_c, 2, 76, 85
4, 51456, Note_on_c, 2, 73, 85
4, 51456, Note_on_c, 2, 69, 85
4, 51644, Note_off_c, 2, 76, 64
4, 51644, Note_off_c, 2, 73, 64
4, 51644, Note_off_c, 2, 69, 64
4, 51648, Note_on_c, 2, 67, 85
4, 51836, Note_off_c, 2, 67, 64
4, 51840, Note_on_c, 2, 76, 85
4, 51840, Note_on_c, 2, 73, 85
4, 51840, Note_on_c, 2, 69, 85
4, 52028, Note_off_c, 2, 76, 64
4, 52028, Note_off_c, 2, 73, 64
4, 52028, Note_off_c, 2, 69, 64
4, 52032, Note_on_c, 2, 67, 85
4, 52220, Note_off_c, 2, 67, 64
4, 52224, Note_on_c, 2, 86, 85
4, 52224, Note_on_c, 2, 81, 85
4, 52224, Note_on_c, 2, 78, 85
4, 52412, Note_off_c, 2, 86, 64
4, 52412, Note_off_c, 2, 81, 64
4, 52412, Note_off_c, 2, 78, 64
4, 52416, Note_on_c, 2, 74, 85
4, 52604, Note_off_c, 2, 74, 64
4, 52608, Note_on_c, 2, 86, 85
4, 52608, Note_on_c, 2, 81, 85
4, 52608, Note_on_c, 2, 78, 85
4, 52796, Note_off_c, 2, 86, 64
4, 52796, Note_off_c, 2, 81, 64
4, 52796, Note_off_c, 2, 78, 64
4, 52800, Note_on_c, 2, 74, 85
4, 52988, Note_off_c, 2, 74, 64
4, 52992, Note_on_c, 2, 86, 85
4, 52992, Note_on_c, 2, 81, 85
4, 52992, Note_on_c, 2, 78, 85
4, 53180, Note_off_c, 2, 86, 64
4, 53180, Note_off_c, 2, 81, 64
4, 53180, Note_off_c, 2, 78, 64
4, 53184, Note_on_c, 2, 74, 85
4, 53372, Note_off_c, 2, 74, 64
4, 53376, Note_on_c, 2, 86, 85
4, 53376, Note_on_c, 2, 81, 85
4, 53376, Note_on_c, 2, 78, 85
4, 53564, Note_off_c, 2, 86, 64
4, 53564, Note_off_c, 2, 81, 64
4, 53564, Note_off_c, 2, 78, 64
4, 53568, Note_on_c, 2, 74, 85
4, 53756, Note_off_c, 2, 74, 64
4, 53760, Note_on_c, 2, 78, 85
4, 53760, Note_on_c, 2, 86, 85
4, 53948, Note_off_c, 2, 78, 64
4, 53948, Note_off_c, 2, 86, 64
4, 53952, Note_on_c, 2, 74, 85
4, 54140, Note_off_c, 2, 74, 64
4, 54144, Note_on_c, 2, 78, 85
4, 54144, Note_on_c, 2, 86, 85
4, 54332, Note_off_c, 2, 78, 64
4, 54332, Note_off_c, 2, 86, 64
4, 54336, Note_on_c, 2, 74, 85
4, 54524, Note_off_c, 2, 74, 64
4, 54528, Note_on_c, 2, 78, 85
4, 54528, Note_on_c, 2, 86, 85
4, 54716, Note_off_c, 2, 78, 64
4, 54716, Note_off_c, 2, 86, 64
4, 54720, Note_on_c, 2, 74, 85
4, 54908, Note_off_c, 2, 74, 64
4, 54912, Note_on_c, 2, 78, 85
4, 54912, Note_on_c, 2, 86, 85
4, 55100, Note_off_c, 2, 78, 64
4, 55100, Note_off_c, 2, 86, 64
4, 55104, Note_on_c, 2, 74, 85
4, 55292, Note_off_c, 2, 74, 64
4, 55296, Note_on_c, 2, 83, 85
4, 55296, Note_on_c, 2, 86, 85
4, 55484, Note_off_c, 2, 83, 64
4, 55484, Note_off_c, 2, 86, 64
4, 55488, Note_on_c, 2, 76, 85
4, 55676, Note_off_c, 2, 76, 64
4, 55680, Note_on_c, 2, 83, 85
4, 55680, Note_on_c, 2, 86, 85
4, 55868, Note_off_c, 2, 83, 64
4, 55868, Note_off_c, 2, 86, 64
4, 55872, Note_on_c, 2, 76, 85
4, 56060, Note_off_c, 2, 76, 64
4, 56064, Note_on_c, 2, 79, 85
4, 56064, Note_on_c, 2, 85, 85
4, 56252, Note_off_c, 2, 79, 64
4, 56252, Note_off_c, 2, 85, 64
4, 56256, Note_on_c, 2, 76, 85
4, 56444, Note_off_c, 2, 76, 64
4, 56448, Note_on_c, 2, 79, 85
4, 56448, Note_on_c, 2, 85, 85
4, 56636, Note_off_c, 2, 79, 64
4, 56636, Note_off_c, 2, 85, 64
4, 56640, Note_on_c, 2, 76, 85
4, 56828, Note_off_c, 2, 76, 64
4, 56832, Note_on_c, 2, 74, 85
4, 56832, Note_on_c, 2, 78, 85
4, 56832, Note_on_c, 2, 86, 85
4, 57212, Note_off_c, 2, 74, 64
4, 57212, Note_off_c, 2, 78, 64
4, 57212, Note_off_c, 2, 86, 64
4, 57600, Note_on_c, 2, 79, 85
4, 57600, Note_on_c, 2, 76, 85
4, 57600, Note_on_c, 2, 73, 85
4, 57600, Note_on_c, 2, 69, 85
4, 57980, Note_off_c, 2, 79, 64
4, 57980, Note_off_c, 2, 76, 64
4, 57980, Note_off_c, 2, 73, 64
4, 57980, Note_off_c, 2, 69, 64
4, 58368, Note_on_c, 2, 78, 85
4, 58368, Note_on_c, 2, 74, 85
4, 58368, Note_on_c, 2, 69, 85
4, 58748, Note_off_c, 2, 78, 64
4, 58748, Note_off_c, 2, 74, 64
4, 58748, Note_off_c, 2, 69, 64
4, 59136, Note_on_c, 2, 85, 85
4, 59136, Note_on_c, 2, 79, 85
4, 59136, Note_on_c, 2, 76, 85
4, 59516, Note_off_c, 2, 85, 64
4, 59516, Note_off_c, 2, 79, 64
4, 59516, Note_off_c, 2, 76, 64
4, 59904, Note_on_c, 2, 86, 85
4, 59904, Note_on_c, 2, 78, 85
4, 59904, Note_on_c, 2, 74, 85
4, 60668, Note_off_c, 2, 86, 64
4, 60668, Note_off_c, 2, 78, 64
4, 60668, Note_off_c, 2, 74, 64
4, 61440, Note_on_c, 2, 74, 60
4, 62972, Note_off_c, 2, 74, 64
4, 62976, Note_on_c, 2, 69, 60
4, 64508, Note_off_c, 2, 69, 64
4, 64512, Note_on_c, 2, 66, 60
4, 64892, Note_off_c, 2, 66, 64
4, 64896, Note_on_c, 2, 62, 60
4, 65276, Note_off_c, 2, 62, 64
4, 65664, Note_on_c, 2, 62, 60
4, 66044, Note_off_c, 2, 62, 64
4, 66048, Note_on_c, 2, 61, 60
4, 66428, Note_off_c, 2, 61, 64
4, 66432, Note_on_c, 2, 57, 60
4, 66812, Note_off_c, 2, 57, 64
4, 66816, Note_on_c, 2, 64, 60
4, 67196, Note_off_c, 2, 64, 64
4, 67200, Note_on_c, 2, 61, 60
4, 67580, Note_off_c, 2, 61, 64
4, 67584, Note_on_c, 2, 62, 60
4, 67964, Note_off_c, 2, 62, 64
4, 67968, Note_on_c, 2, 57, 60
4, 68348, Note_off_c, 2, 57, 64
4, 68352, Note_on_c, 2, 69, 60
4, 69884, Note_off_c, 2, 69, 64
4, 69888, Note_on_c, 2, 67, 67
4, 69948, Note_off_c, 2, 67, 64
4, 69952, Note_on_c, 2, 69, 67
4, 70012, Note_off_c, 2, 69, 64
4, 70016, Note_on_c, 2, 67, 67
4, 70076, Note_off_c, 2, 67, 64
4, 70080, Note_on_c, 2, 69, 67
4, 70140, Note_off_c, 2, 69, 64
4, 70144, Note_on_c, 2, 67, 67
4, 70204, Note_off_c, 2, 67, 64
4, 70208, Note_on_c, 2, 69, 67
4, 70268, Note_off_c, 2, 69, 64
4, 70272, Note_on_c, 2, 67, 67
4, 70332, Note_off_c, 2, 67, 64
4, 70336, Note_on_c, 2, 69, 67
4, 70396, Note_off_c, 2, 69, 64
4, 70400, Note_on_c, 2, 66, 67
4, 70524, Note_off_c, 2, 66, 64
4, 70528, Note_on_c, 2, 67, 67
4, 70652, Note_off_c, 2, 67, 64
4, 70656, Note_on_c, 2, 66, 60
4, 71036, Note_off_c, 2, 66, 64
4, 71040, Note_on_c, 2, 66, 60
4, 71420, Note_off_c, 2, 66, 64
4, 71424, Note_on_c, 2, 66, 67
4, 71484, Note_off_c, 2, 66, 64
4, 71488, Note_on_c, 2, 67, 67
4, 71548, Note_off_c, 2, 67, 64
4, 71560, Note_on_c, 2, 66, 67
4, 71616, Note_on_c, 2, 67, 67
4, 71620, Note_off_c, 2, 66, 64
4, 71676, Note_off_c, 2, 67, 64
4, 71680, Note_on_c, 2, 64, 67
4, 71740, Note_off_c, 2, 64, 64
4, 71744, Note_on_c, 2, 66, 67
4, 71804, Note_off_c, 2, 66, 64
4, 71808, Note_on_c, 2, 64, 67
4, 71996, Note_off_c, 2, 64, 64
4, 72000, Note_on_c, 2, 62, 67
4, 72188, Note_off_c, 2, 62, 64
4, 72192, Note_on_c, 2, 61, 60
4, 72572, Note_off_c, 2, 61, 64
4, 72576, Note_on_c, 2, 57, 60
4, 72956, Note_off_c, 2, 57, 64
4, 72960, Note_on_c, 2, 64, 60
4, 73340, Note_off_c, 2, 64, 64
4, 73344, Note_on_c, 2, 61, 60
4, 73724, Note_off_c, 2, 61, 64
4, 73728, Note_on_c, 2, 62, 60
4, 74108, Note_off_c, 2, 62, 64
4, 74112, Note_on_c, 2, 57, 60
4, 74492, Note_off_c, 2, 57, 64
4, 74496, Note_on_c, 2, 69, 60
4, 76028, Note_off_c, 2, 69, 64
4, 76032, Note_on_c, 2, 67, 67
4, 76092, Note_off_c, 2, 67, 64
4, 76096, Note_on_c, 2, 69, 67
4, 76156, Note_off_c, 2, 69, 64
4, 76160, Note_on_c, 2, 67, 67
4, 76220, Note_off_c, 2, 67, 64
4, 76224, Note_on_c, 2, 69, 67
4, 76284, Note_off_c, 2, 69, 64
4, 76288, Note_on_c, 2, 67, 67
4, 76348, Note_off_c, 2, 67, 64
4, 76352, Note_on_c, 2, 69, 67
4, 76412, Note_off_c, 2, 69, 64
4, 76416, Note_on_c, 2, 67, 67
4, 76476, Note_off_c, 2, 67, 64
4, 76480, Note_on_c, 2, 69, 67
4, 76540, Note_off_c, 2, 69, 64
4, 76544, Note_on_c, 2, 66, 67
4, 76668, Note_off_c, 2, 66, 64
4, 76672, Note_on_c, 2, 67, 67
4, 76796, Note_off_c, 2, 67, 64
4, 76800, Note_on_c, 2, 69, 60
4, 76800, Note_on_c, 2, 66, 60
4, 77564, Note_off_c, 2, 69, 64
4, 77564, Note_off_c, 2, 66, 64
4, 77568, Note_on_c, 2, 67, 60
4, 77568, Note_on_c, 2, 64, 60
4, 78332, Note_off_c, 2, 67, 64
4, 78332, Note_off_c, 2, 64, 64
4, 78336, Note_on_c, 2, 66, 60
4, 78336, Note_on_c, 2, 62, 60
4, 79100, Note_off_c, 2, 66, 64
4, 79100, Note_off_c, 2, 62, 64
4, 79104, Note_on_c, 2, 64, 60
4, 79104, Note_on_c, 2, 61, 60
4, 79868, Note_off_c, 2, 64, 64
4, 79868, Note_off_c, 2, 61, 64
4, 79872, Note_on_c, 2, 86, 85
4, 79872, Note_on_c, 2, 74, 85
4, 81404, Note_off_c, 2, 86, 64
4, 81404, Note_off_c, 2, 74, 64
4, 81408, Note_on_c, 2, 81, 85
4, 81408, Note_on_c, 2, 69, 85
4, 82940, Note_off_c, 2, 81, 64
4, 82940, Note_off_c, 2, 69, 64
4, 82944, Note_on_c, 2, 78, 85
4, 82944, Note_on_c, 2, 66, 85
4, 83324, Note_off_c, 2, 78, 64
4, 83324, Note_off_c, 2, 66, 64
4, 83328, Note_on_c, 2, 74, 85
4, 83328, Note_on_c, 2, 62, 85
4, 83708, Note_off_c, 2, 74, 64
4, 83708, Note_off_c, 2, 62, 64
4, 86016, Note_on_c, 2, 81, 85
4, 86016, Note_on_c, 2, 69, 85
4, 87548, Note_off_c, 2, 81, 64
4, 87548, Note_off_c, 2, 69, 64
4, 87552, Note_on_c, 2, 76, 85
4, 87552, Note_on_c, 2, 64, 85
4, 89084, Note_off_c, 2, 76, 64
4, 89084, Note_off_c, 2, 64, 64
4, 89088, Note_on_c, 2, 73, 85
4, 89088, Note_on_c, 2, 61, 85
4, 89468, Note_off_c, 2, 73, 64
4, 89468, Note_off_c, 2, 61, 64
4, 89472, Note_on_c, 2, 69, 85
4, 89472, Note_on_c, 2, 57, 85
4, 89852, Note_off_c, 2, 69, 64
4, 89852, Note_off_c, 2, 57, 64
4, 92160, Note_on_c, 2, 86, 85
4, 92160, Note_on_c, 2, 74, 85
4, 93692, Note_off_c, 2, 86, 64
4, 93692, Note_off_c, 2, 74, 64
4, 93696, Note_on_c, 2, 83, 85
4, 93696, Note_on_c, 2, 71, 85
4, 95228, Note_off_c, 2, 83, 64
4, 95228, Note_off_c, 2, 71, 64
4, 95232, Note_on_c, 2, 80, 85
4, 95232, Note_on_c, 2, 68, 85
4, 95612, Note_off_c, 2, 80, 64
4, 95612, Note_off_c, 2, 68, 64
4, 95616, Note_on_c, 2, 76, 85
4, 95616, Note_on_c, 2, 64, 85
4, 95996, Note_off_c, 2, 76, 64
4, 95996, Note_off_c, 2, 64, 64
4, 98304, Note_on_c, 2, 76, 60
4, 98304, Note_on_c, 2, 73, 60
4, 98304, Note_on_c, 2, 69, 60
4, 98684, Note_off_c, 2, 69, 64
4, 99836, Note_off_c, 2, 76, 64
4, 99836, Note_off_c, 2, 73, 64
4, 99840, Note_on_c, 2, 78, 60
4, 99840, Note_on_c, 2, 74, 60
4, 99840, Note_on_c, 2, 69, 60
4, 100220, Note_off_c, 2, 69, 64
4, 101372, Note_off_c, 2, 78, 64
4, 101372, Note_off_c, 2, 74, 64
4, 101376, Note_on_c, 2, 76, 60
4, 101376, Note_on_c, 2, 73, 60
4, 101376, Note_on_c, 2, 69, 60
4, 101756, Note_off_c, 2, 69, 64
4, 102908, Note_off_c, 2, 76, 64
4, 102908, Note_off_c, 2, 73, 64
4, 102912, Note_on_c, 2, 78, 60
4, 102912, Note_on_c, 2, 74, 60
4, 102912, Note_on_c, 2, 69, 60
4, 103292, Note_off_c, 2, 69, 64
4, 104444, Note_off_c, 2, 78, 64
4, 104444, Note_off_c, 2, 74, 64
4, 104448, Note_on_c, 2, 69, 60
4, 104448, Note_on_c, 2, 76, 60
4, 104448, Note_on_c, 2, 73, 60
4, 104828, Note_off_c, 2, 69, 64
4, 105980, Note_off_c, 2, 76, 64
4, 105980, Note_off_c, 2, 73, 64
4, 105984, Note_on_c, 2, 74, 60
4, 105984, Note_on_c, 2, 71, 60
4, 105984, Note_on_c, 2, 68, 60
4, 105984, Note_on_c, 2, 64, 60
4, 106364, Note_off_c, 2, 68, 64
4, 106364, Note_off_c, 2, 64, 64
4, 107516, Note_off_c, 2, 74, 64
4, 107516, Note_off_c, 2, 71, 64
4, 107520, Note_on_c, 2, 73, 60
4, 107520, Note_on_c, 2, 69, 60
4, 109052, Note_off_c, 2, 73, 64
4, 109052, Note_off_c, 2, 69, 64
4, 109056, Note_on_c, 2, 69, 60
4, 109056, Note_on_c, 2, 66, 60
4, 109056, Note_on_c, 2, 71, 60
4, 110588, Note_off_c, 2, 69, 64
4, 110588, Note_off_c, 2, 66, 64
4, 110592, Note_on_c, 2, 68, 60
4, 110972, Note_off_c, 2, 71, 64
4, 110972, Note_off_c, 2, 68, 64
4, 112896, Note_on_c, 2, 76, 67
4, 114044, Note_off_c, 2, 76, 64
4, 114048, Note_on_c, 2, 73, 67
4, 114428, Note_off_c, 2, 73, 64
4, 114432, Note_on_c, 2, 69, 67
4, 115580, Note_off_c, 2, 69, 64
4, 115584, Note_on_c, 2, 68, 67
4, 115964, Note_off_c, 2, 68, 64
4, 115968, Note_on_c, 2, 74, 67
4, 117116, Note_off_c, 2, 74, 64
4, 117120, Note_on_c, 2, 73, 67
4, 117308, Note_off_c, 2, 73, 64
4, 117312, Note_on_c, 2, 74, 67
4, 117500, Note_off_c, 2, 74, 64
4, 117504, Note_on_c, 2, 76, 67
4, 117884, Note_off_c, 2, 76, 64
4, 117888, Note_on_c, 2, 74, 67
4, 118268, Note_off_c, 2, 74, 64
4, 118272, Note_on_c, 2, 73, 67
4, 119036, Note_off_c, 2, 73, 64
4, 119040, Note_on_c, 2, 81, 67
4, 120188, Note_off_c, 2, 81, 64
4, 120192, Note_on_c, 2, 78, 67
4, 120572, Note_off_c, 2, 78, 64
4, 120576, Note_on_c, 2, 74, 67
4, 121724, Note_off_c, 2, 74, 64
4, 121728, Note_on_c, 2, 73, 67
4, 122108, Note_off_c, 2, 73, 64
4, 122112, Note_on_c, 2, 69, 67
4, 122112, Note_on_c, 2, 61, 67
4, 123260, Note_off_c, 2, 61, 64
4, 123260, Note_off_c, 2, 69, 64
4, 123264, Note_on_c, 2, 71, 67
4, 123264, Note_on_c, 2, 62, 67
4, 124028, Note_off_c, 2, 71, 64
4, 124028, Note_off_c, 2, 62, 64
4, 124032, Note_on_c, 2, 68, 67
4, 124032, Note_on_c, 2, 59, 67
4, 124220, Note_off_c, 2, 68, 64
4, 124220, Note_off_c, 2, 59, 64
4, 124416, Note_on_c, 2, 69, 67
4, 124416, Note_on_c, 2, 61, 67
4, 124796, Note_off_c, 2, 69, 64
4, 124796, Note_off_c, 2, 61, 64
4, 125952, Note_on_c, 2, 81, 60
4, 125952, Note_on_c, 2, 76, 60
4, 127484, Note_off_c, 2, 81, 64
4, 127484, Note_off_c, 2, 76, 64
4, 127488, Note_on_c, 2, 80, 60
4, 127488, Note_on_c, 2, 74, 60
4, 130556, Note_off_c, 2, 74, 64
4, 130556, Note_off_c, 2, 80, 64
4, 130560, Note_on_c, 2, 73, 60
4, 130560, Note_on_c, 2, 81, 60
4, 132092, Note_off_c, 2, 73, 64
4, 132096, Note_on_c, 2, 74, 60
4, 133628, Note_off_c, 2, 74, 64
4, 133632, Note_on_c, 2, 73, 60
4, 135164, Note_off_c, 2, 81, 64
4, 135164, Note_off_c, 2, 73, 64
4, 135168, Note_on_c, 2, 80, 60
4, 135168, Note_on_c, 2, 71, 60
4, 136700, Note_off_c, 2, 80, 64
4, 136700, Note_off_c, 2, 71, 64
4, 136704, Note_on_c, 2, 81, 60
4, 136704, Note_on_c, 2, 69, 60
4, 137084, Note_off_c, 2, 81, 64
4, 137084, Note_off_c, 2, 69, 64
4, 150144, Note_on_c, 2, 69, 60
4, 150144, Note_on_c, 2, 65, 60
4, 150524, Note_off_c, 2, 65, 64
4, 150528, Note_on_c, 2, 66, 60
4, 151292, Note_off_c, 2, 69, 64
4, 151292, Note_off_c, 2, 66, 64
4, 151680, Note_on_c, 2, 66, 60
4, 151680, Note_on_c, 2, 61, 60
4, 152060, Note_off_c, 2, 61, 64
4, 152064, Note_on_c, 2, 62, 60
4, 152828, Note_off_c, 2, 66, 64
4, 152828, Note_off_c, 2, 62, 64
4, 153216, Note_on_c, 2, 70, 60
4, 153216, Note_on_c, 2, 64, 60
4, 153596, Note_off_c, 2, 70, 64
4, 153596, Note_off_c, 2, 64, 64
4, 153600, Note_on_c, 2, 71, 60
4, 153600, Note_on_c, 2, 66, 60
4, 153980, Note_off_c, 2, 71, 64
4, 153984, Note_on_c, 2, 74, 60
4, 154364, Note_off_c, 2, 66, 64
4, 154364, Note_off_c, 2, 74, 64
4, 154368, Note_on_c, 2, 73, 60
4, 154368, Note_on_c, 2, 64, 60
4, 154748, Note_off_c, 2, 73, 64
4, 154748, Note_off_c, 2, 64, 64
4, 154752, Note_on_c, 2, 68, 60
4, 154752, Note_on_c, 2, 62, 60
4, 155132, Note_off_c, 2, 68, 64
4, 155132, Note_off_c, 2, 62, 64
4, 155136, Note_on_c, 2, 69, 60
4, 155136, Note_on_c, 2, 64, 60
4, 155136, Note_on_c, 2, 61, 60
4, 155900, Note_off_c, 2, 69, 64
4, 155900, Note_off_c, 2, 64, 64
4, 155900, Note_off_c, 2, 61, 64
4, 156288, Note_on_c, 2, 73, 60
4, 156288, Note_on_c, 2, 64, 60
4, 156288, Note_on_c, 2, 57, 60
4, 156668, Note_off_c, 2, 73, 64
4, 156668, Note_off_c, 2, 64, 64
4, 156668, Note_off_c, 2, 57, 64
4, 156672, Note_on_c, 2, 74, 60
4, 156672, Note_on_c, 2, 66, 60
4, 156672, Note_on_c, 2, 57, 60
4, 157436, Note_off_c, 2, 74, 64
4, 157436, Note_off_c, 2, 66, 64
4, 157436, Note_off_c, 2, 57, 64
4, 157824, Note_on_c, 2, 76, 60
4, 157824, Note_on_c, 2, 69, 60
4, 158204, Note_off_c, 2, 76, 64
4, 158204, Note_off_c, 2, 69, 64
4, 158208, Note_on_c, 2, 78, 60
4, 158208, Note_on_c, 2, 69, 60
4, 158588, Note_off_c, 2, 69, 64
4, 158592, Note_on_c, 2, 66, 60
4, 158972, Note_off_c, 2, 78, 64
4, 158972, Note_off_c, 2, 66, 64
4, 158976, Note_on_c, 2, 80, 60
4, 158976, Note_on_c, 2, 66, 60
4, 159164, Note_off_c, 2, 66, 64
4, 159168, Note_on_c, 2, 64, 60
4, 159356, Note_off_c, 2, 80, 64
4, 159356, Note_off_c, 2, 64, 64
4, 159360, Note_on_c, 2, 81, 60
4, 159360, Note_on_c, 2, 62, 60
4, 159548, Note_off_c, 2, 62, 64
4, 159552, Note_on_c, 2, 61, 60
4, 159740, Note_off_c, 2, 81, 64
4, 159740, Note_off_c, 2, 61, 64
4, 159744, Note_on_c, 2, 74, 60
4, 159744, Note_on_c, 2, 59, 60
4, 159744, Note_on_c, 2, 64, 60
4, 160508, Note_off_c, 2, 74, 64
4, 160508, Note_off_c, 2, 59, 64
4, 160896, Note_on_c, 2, 74, 60
4, 160896, Note_on_c, 2, 71, 60
4, 161276, Note_off_c, 2, 64, 64
4, 161276, Note_off_c, 2, 74, 64
4, 161276, Note_off_c, 2, 71, 64
4, 161280, Note_on_c, 2, 73, 60
4, 161280, Note_on_c, 2, 69, 60
4, 161280, Note_on_c, 2, 64, 60
4, 161660, Note_off_c, 2, 73, 64
4, 161660, Note_off_c, 2, 69, 64
4, 161660, Note_off_c, 2, 64, 64
4, 164352, Note_on_c, 2, 74, 60
4, 164352, Note_on_c, 2, 69, 60
4, 164352, Note_on_c, 2, 66, 60
4, 164732, Note_off_c, 2, 74, 64
4, 164732, Note_off_c, 2, 69, 64
4, 164732, Note_off_c, 2, 66, 64
4, 167424, Note_on_c, 2, 73, 60
4, 167424, Note_on_c, 2, 69, 60
4, 167424, Note_on_c, 2, 64, 60
4, 167804, Note_off_c, 2, 73, 64
4, 167804, Note_off_c, 2, 69, 64
4, 167804, Note_off_c, 2, 64, 64
4, 167808, Note_on_c, 2, 73, 60
4, 167808, Note_on_c, 2, 69, 60
4, 167808, Note_on_c, 2, 64, 60
4, 168188, Note_off_c, 2, 73, 64
4, 168188, Note_off_c, 2, 69, 64
4, 168188, Note_off_c, 2, 64, 64
4, 168192, Note_on_c, 2, 73, 60
4, 168192, Note_on_c, 2, 69, 60
4, 168192, Note_on_c, 2, 64, 60
4, 168572, Note_off_c, 2, 73, 64
4, 168572, Note_off_c, 2, 69, 64
4, 168572, Note_off_c, 2, 64, 64
4, 168576, Note_on_c, 2, 73, 60
4, 168576, Note_on_c, 2, 69, 60
4, 168576, Note_on_c, 2, 64, 60
4, 168956, Note_off_c, 2, 73, 64
4, 168956, Note_off_c, 2, 69, 64
4, 168956, Note_off_c, 2, 64, 64
4, 168960, Note_on_c, 2, 71, 60
4, 168960, Note_on_c, 2, 68, 60
4, 168960, Note_on_c, 2, 62, 60
4, 169340, Note_off_c, 2, 71, 64
4, 169340, Note_off_c, 2, 68, 64
4, 169340, Note_off_c, 2, 62, 64
4, 169344, Note_on_c, 2, 71, 60
4, 169344, Note_on_c, 2, 68, 60
4, 169344, Note_on_c, 2, 62, 60
4, 169724, Note_off_c, 2, 71, 64
4, 169724, Note_off_c, 2, 68, 64
4, 169724, Note_off_c, 2, 62, 64
4, 169728, Note_on_c, 2, 71, 60
4, 169728, Note_on_c, 2, 68, 60
4, 169728, Note_on_c, 2, 62, 60
4, 170108, Note_off_c, 2, 71, 64
4, 170108, Note_off_c, 2, 68, 64
4, 170108, Note_off_c, 2, 62, 64
4, 170112, Note_on_c, 2, 71, 60
4, 170112, Note_on_c, 2, 68, 60
4, 170112, Note_on_c, 2, 62, 60
4, 170492, Note_off_c, 2, 71, 64
4, 170492, Note_off_c, 2, 68, 64
4, 170492, Note_off_c, 2, 62, 64
4, 170496, Note_on_c, 2, 69, 60
4, 170496, Note_on_c, 2, 64, 60
4, 170496, Note_on_c, 2, 61, 60
4, 171260, Note_off_c, 2, 69, 64
4, 171260, Note_off_c, 2, 64, 64
4, 171260, Note_off_c, 2, 61, 64
4, 178560, Note_on_c, 2, 74, 60
4, 178560, Note_on_c, 2, 62, 60
4, 178940, Note_off_c, 2, 74, 64
4, 178940, Note_off_c, 2, 62, 64
4, 178944, Note_on_c, 2, 73, 60
4, 178944, Note_on_c, 2, 64, 60
4, 179324, Note_off_c, 2, 73, 64
4, 179324, Note_off_c, 2, 64, 64
4, 179328, Note_on_c, 2, 71, 60
4, 179328, Note_on_c, 2, 66, 60
4, 179708, Note_off_c, 2, 71, 64
4, 179708, Note_off_c, 2, 66, 64
4, 179712, Note_on_c, 2, 73, 60
4, 179712, Note_on_c, 2, 64, 60
4, 180476, Note_off_c, 2, 73, 64
4, 180476, Note_off_c, 2, 64, 64
4, 186240, Note_on_c, 2, 73, 60
4, 186240, Note_on_c, 2, 69, 60
4, 186240, Note_on_c, 2, 64, 60
4, 186620, Note_off_c, 2, 73, 64
4, 186620, Note_off_c, 2, 69, 64
4, 186620, Note_off_c, 2, 64, 64
4, 186624, Note_on_c, 2, 73, 60
4, 186624, Note_on_c, 2, 69, 60
4, 186624, Note_on_c, 2, 64, 60
4, 187004, Note_off_c, 2, 73, 64
4, 187004, Note_off_c, 2, 69, 64
4, 187004, Note_off_c, 2, 64, 64
4, 187008, Note_on_c, 2, 73, 60
4, 187008, Note_on_c, 2, 69, 60
4, 187008, Note_on_c, 2, 64, 60
4, 187388, Note_off_c, 2, 73, 64
4, 187388, Note_off_c, 2, 69, 64
4, 187388, Note_off_c, 2, 64, 64
4, 187392, Note_on_c, 2, 73, 60
4, 187392, Note_on_c, 2, 69, 60
4, 187392, Note_on_c, 2, 64, 60
4, 187772, Note_off_c, 2, 73, 64
4, 187772, Note_off_c, 2, 69, 64
4, 187772, Note_off_c, 2, 64, 64
4, 187776, Note_on_c, 2, 64, 60
4, 187776, Note_on_c, 2, 69, 60
4, 187776, Note_on_c, 2, 73, 60
4, 188156, Note_off_c, 2, 64, 64
4, 188156, Note_off_c, 2, 69, 64
4, 188156, Note_off_c, 2, 73, 64
4, 188160, Note_on_c, 2, 73, 60
4, 188160, Note_on_c, 2, 69, 60
4, 188160, Note_on_c, 2, 64, 60
4, 188540, Note_off_c, 2, 73, 64
4, 188540, Note_off_c, 2, 69, 64
4, 188540, Note_off_c, 2, 64, 64
4, 188544, Note_on_c, 2, 73, 60
4, 188544, Note_on_c, 2, 69, 60
4, 188544, Note_on_c, 2, 64, 60
4, 188924, Note_off_c, 2, 73, 64
4, 188924, Note_off_c, 2, 69, 64
4, 188924, Note_off_c, 2, 64, 64
4, 188928, Note_on_c, 2, 71, 60
4, 188928, Note_on_c, 2, 68, 60
4, 188928, Note_on_c, 2, 62, 60
4, 189308, Note_off_c, 2, 71, 64
4, 189308, Note_off_c, 2, 68, 64
4, 189308, Note_off_c, 2, 62, 64
4, 189312, Note_on_c, 2, 68, 60
4, 189312, Note_on_c, 2, 71, 60
4, 189500, Note_off_c, 2, 68, 64
4, 189500, Note_off_c, 2, 71, 64
4, 189504, Note_on_c, 2, 62, 60
4, 189692, Note_off_c, 2, 62, 64
4, 189696, Note_on_c, 2, 71, 60
4, 189696, Note_on_c, 2, 68, 60
4, 189884, Note_off_c, 2, 71, 64
4, 189884, Note_off_c, 2, 68, 64
4, 189888, Note_on_c, 2, 62, 60
4, 190076, Note_off_c, 2, 62, 64
4, 190080, Note_on_c, 2, 71, 60
4, 190080, Note_on_c, 2, 68, 60
4, 190268, Note_off_c, 2, 71, 64
4, 190268, Note_off_c, 2, 68, 64
4, 190272, Note_on_c, 2, 62, 60
4, 190460, Note_off_c, 2, 62, 64
4, 190464, Note_on_c, 2, 80, 60
4, 190464, Note_on_c, 2, 74, 60
4, 190652, Note_off_c, 2, 80, 64
4, 190652, Note_off_c, 2, 74, 64
4, 190656, Note_on_c, 2, 71, 60
4, 190844, Note_off_c, 2, 71, 64
4, 190848, Note_on_c, 2, 74, 60
4, 190848, Note_on_c, 2, 80, 60
4, 191036, Note_off_c, 2, 74, 64
4, 191036, Note_off_c, 2, 80, 64
4, 191040, Note_on_c, 2, 71, 60
4, 191228, Note_off_c, 2, 71, 64
4, 191232, Note_on_c, 2, 80, 60
4, 191232, Note_on_c, 2, 74, 60
4, 191420, Note_off_c, 2, 80, 64
4, 191420, Note_off_c, 2, 74, 64
4, 191424, Note_on_c, 2, 71, 60
4, 191612, Note_off_c, 2, 71, 64
4, 191616, Note_on_c, 2, 80, 60
4, 191616, Note_on_c, 2, 74, 60
4, 191804, Note_off_c, 2, 80, 64
4, 191804, Note_off_c, 2, 74, 64
4, 191808, Note_on_c, 2, 71, 60
4, 191996, Note_off_c, 2, 71, 64
4, 192000, Note_on_c, 2, 81, 85
4, 192000, Note_on_c, 2, 73, 85
4, 192188, Note_off_c, 2, 81, 64
4, 192188, Note_off_c, 2, 73, 64
4, 192192, Note_on_c, 2, 69, 85
4, 192380, Note_off_c, 2, 69, 64
4, 192384, Note_on_c, 2, 81, 85
4, 192384, Note_on_c, 2, 73, 85
4, 192572, Note_off_c, 2, 81, 64
4, 192572, Note_off_c, 2, 73, 64
4, 192576, Note_on_c, 2, 69, 85
4, 192764, Note_off_c, 2, 69, 64
4, 192768, Note_on_c, 2, 81, 85
4, 192768, Note_on_c, 2, 73, 85
4, 192956, Note_off_c, 2, 81, 64
4, 192956, Note_off_c, 2, 73, 64
4, 192960, Note_on_c, 2, 69, 85
4, 193148, Note_off_c, 2, 69, 64
4, 193152, Note_on_c, 2, 81, 85
4, 193152, Note_on_c, 2, 73, 85
4, 193340, Note_off_c, 2, 81, 64
4, 193340, Note_off_c, 2, 73, 64
4, 193344, Note_on_c, 2, 69, 85
4, 193532, Note_off_c, 2, 69, 64
4, 193536, Note_on_c, 2, 81, 85
4, 193536, Note_on_c, 2, 73, 85
4, 193724, Note_off_c, 2, 81, 64
4, 193724, Note_off_c, 2, 73, 64
4, 193728, Note_on_c, 2, 69, 85
4, 193916, Note_off_c, 2, 69, 64
4, 193920, Note_on_c, 2, 81, 85
4, 193920, Note_on_c, 2, 73, 85
4, 194108, Note_off_c, 2, 81, 64
4, 194108, Note_off_c, 2, 73, 64
4, 194112, Note_on_c, 2, 69, 85
4, 194300, Note_off_c, 2, 69, 64
4, 194304, Note_on_c, 2, 81, 85
4, 194304, Note_on_c, 2, 73, 85
4, 194492, Note_off_c, 2, 81, 64
4, 194492, Note_off_c, 2, 73, 64
4, 194496, Note_on_c, 2, 69, 85
4, 194684, Note_off_c, 2, 69, 64
4, 194688, Note_on_c, 2, 81, 85
4, 194688, Note_on_c, 2, 73, 85
4, 194876, Note_off_c, 2, 81, 64
4, 194876, Note_off_c, 2, 73, 64
4, 194880, Note_on_c, 2, 69, 85
4, 195068, Note_off_c, 2, 69, 64
4, 195072, Note_on_c, 2, 81, 85
4, 195072, Note_on_c, 2, 78, 85
4, 195260, Note_off_c, 2, 81, 64
4, 195260, Note_off_c, 2, 78, 64
4, 195264, Note_on_c, 2, 71, 85
4, 195452, Note_off_c, 2, 71, 64
4, 195456, Note_on_c, 2, 81, 85
4, 195456, Note_on_c, 2, 78, 85
4, 195644, Note_off_c, 2, 81, 64
4, 195644, Note_off_c, 2, 78, 64
4, 195648, Note_on_c, 2, 71, 85
4, 195836, Note_off_c, 2, 71, 64
4, 195840, Note_on_c, 2, 80, 85
4, 195840, Note_on_c, 2, 76, 85
4, 196028, Note_off_c, 2, 80, 64
4, 196028, Note_off_c, 2, 76, 64
4, 196032, Note_on_c, 2, 71, 85
4, 196220, Note_off_c, 2, 71, 64
4, 196224, Note_on_c, 2, 80, 85
4, 196224, Note_on_c, 2, 76, 85
4, 196412, Note_off_c, 2, 80, 64
4, 196412, Note_off_c, 2, 76, 64
4, 196416, Note_on_c, 2, 71, 85
4, 196604, Note_off_c, 2, 71, 64
4, 196608, Note_on_c, 2, 85, 85
4, 196608, Note_on_c, 2, 76, 85
4, 196796, Note_off_c, 2, 85, 64
4, 196796, Note_off_c, 2, 76, 64
4, 196800, Note_on_c, 2, 73, 85
4, 196988, Note_off_c, 2, 73, 64
4, 196992, Note_on_c, 2, 76, 85
4, 196992, Note_on_c, 2, 85, 85
4, 197180, Note_off_c, 2, 76, 64
4, 197180, Note_off_c, 2, 85, 64
4, 197184, Note_on_c, 2, 73, 85
4, 197372, Note_off_c, 2, 73, 64
4, 197376, Note_on_c, 2, 76, 85
4, 197376, Note_on_c, 2, 85, 85
4, 197564, Note_off_c, 2, 76, 64
4, 197564, Note_off_c, 2, 85, 64
4, 197568, Note_on_c, 2, 73, 85
4, 197756, Note_off_c, 2, 73, 64
4, 197760, Note_on_c, 2, 76, 85
4, 197760, Note_on_c, 2, 85, 85
4, 197948, Note_off_c, 2, 76, 64
4, 197948, Note_off_c, 2, 85, 64
4, 197952, Note_on_c, 2, 73, 85
4, 198140, Note_off_c, 2, 73, 64
4, 198144, Note_on_c, 2, 85, 85
4, 198144, Note_on_c, 2, 81, 85
4, 198332, Note_off_c, 2, 85, 64
4, 198332, Note_off_c, 2, 81, 64
4, 198336, Note_on_c, 2, 73, 85
4, 198524, Note_off_c, 2, 73, 64
4, 198528, Note_on_c, 2, 81, 85
4, 198528, Note_on_c, 2, 85, 85
4, 198716, Note_off_c, 2, 81, 64
4, 198716, Note_off_c, 2, 85, 64
4, 198720, Note_on_c, 2, 73, 85
4, 198908, Note_off_c, 2, 73, 64
4, 198912, Note_on_c, 2, 85, 85
4, 198912, Note_on_c, 2, 81, 85
4, 199100, Note_off_c, 2, 85, 64
4, 199100, Note_off_c, 2, 81, 64
4, 199104, Note_on_c, 2, 73, 85
4, 199292, Note_off_c, 2, 73, 64
4, 199296, Note_on_c, 2, 85, 85
4, 199296, Note_on_c, 2, 81, 85
4, 199484, Note_off_c, 2, 85, 64
4, 199484, Note_off_c, 2, 81, 64
4, 199488, Note_on_c, 2, 73, 85
4, 199676, Note_off_c, 2, 73, 64
4, 199680, Note_on_c, 2, 81, 85
4, 199680, Note_on_c, 2, 78, 85
4, 199868, Note_off_c, 2, 81, 64
4, 199868, Note_off_c, 2, 78, 64
4, 199872, Note_on_c, 2, 71, 85
4, 200060, Note_off_c, 2, 71, 64
4, 200064, Note_on_c, 2, 78, 85
4, 200064, Note_on_c, 2, 81, 85
4, 200252, Note_off_c, 2, 78, 64
4, 200252, Note_off_c, 2, 81, 64
4, 200256, Note_on_c, 2, 71, 85
4, 200444, Note_off_c, 2, 71, 64
4, 200448, Note_on_c, 2, 76, 85
4, 200448, Note_on_c, 2, 80, 85
4, 200636, Note_off_c, 2, 76, 64
4, 200636, Note_off_c, 2, 80, 64
4, 200640, Note_on_c, 2, 71, 85
4, 200828, Note_off_c, 2, 71, 64
4, 200832, Note_on_c, 2, 76, 85
4, 200832, Note_on_c, 2, 80, 85
4, 201020, Note_off_c, 2, 76, 64
4, 201020, Note_off_c, 2, 80, 64
4, 201024, Note_on_c, 2, 71, 85
4, 201212, Note_off_c, 2, 71, 64
4, 201216, Note_on_c, 2, 81, 85
4, 201216, Note_on_c, 2, 76, 85
4, 201216, Note_on_c, 2, 73, 85
4, 201596, Note_off_c, 2, 81, 64
4, 201596, Note_off_c, 2, 76, 64
4, 201596, Note_off_c, 2, 73, 64
4, 201984, Note_on_c, 2, 74, 85
4, 201984, Note_on_c, 2, 71, 85
4, 201984, Note_on_c, 2, 68, 85
4, 202364, Note_off_c, 2, 74, 64
4, 202364, Note_off_c, 2, 71, 64
4, 202364, Note_off_c, 2, 68, 64
4, 202752, Note_on_c, 2, 73, 85
4, 202752, Note_on_c, 2, 69, 85
4, 202752, Note_on_c, 2, 64, 85
4, 203132, Note_off_c, 2, 73, 64
4, 203132, Note_off_c, 2, 69, 64
4, 203132, Note_off_c, 2, 64, 64
4, 203520, Note_on_c, 2, 80, 85
4, 203520, Note_on_c, 2, 74, 85
4, 203520, Note_on_c, 2, 71, 85
4, 203900, Note_off_c, 2, 80, 64
4, 203900, Note_off_c, 2, 74, 64
4, 203900, Note_off_c, 2, 71, 64
4, 204288, Note_on_c, 2, 81, 85
4, 204288, Note_on_c, 2, 76, 85
4, 204288, Note_on_c, 2, 73, 85
4, 205052, Note_off_c, 2, 81, 64
4, 205052, Note_off_c, 2, 76, 64
4, 205052, Note_off_c, 2, 73, 64
4, 205824, Note_on_c, 2, 69, 60
4, 206588, Note_off_c, 2, 69, 64
4, 208512, Note_on_c, 2, 81, 60
4, 208512, Note_on_c, 2, 73, 60
4, 208892, Note_off_c, 2, 81, 64
4, 208892, Note_off_c, 2, 73, 64
4, 208896, Note_on_c, 2, 81, 60
4, 208896, Note_on_c, 2, 73, 60
4, 209276, Note_off_c, 2, 81, 64
4, 209276, Note_off_c, 2, 73, 64
4, 209280, Note_on_c, 2, 81, 60
4, 209280, Note_on_c, 2, 73, 60
4, 209660, Note_off_c, 2, 81, 64
4, 209660, Note_off_c, 2, 73, 64
4, 211584, Note_on_c, 2, 81, 60
4, 211584, Note_on_c, 2, 73, 60
4, 211964, Note_off_c, 2, 81, 64
4, 211964, Note_off_c, 2, 73, 64
4, 211968, Note_on_c, 2, 81, 60
4, 211968, Note_on_c, 2, 74, 60
4, 212348, Note_off_c, 2, 81, 64
4, 212348, Note_off_c, 2, 74, 64
4, 212352, Note_on_c, 2, 81, 60
4, 212352, Note_on_c, 2, 74, 60
4, 212732, Note_off_c, 2, 81, 64
4, 212732, Note_off_c, 2, 74, 64
4, 214656, Note_on_c, 2, 78, 60
4, 214656, Note_on_c, 2, 69, 60
4, 215036, Note_off_c, 2, 78, 64
4, 215036, Note_off_c, 2, 69, 64
4, 215040, Note_on_c, 2, 78, 60
4, 215040, Note_on_c, 2, 69, 60
4, 215420, Note_off_c, 2, 78, 64
4, 215420, Note_off_c, 2, 69, 64
4, 215424, Note_on_c, 2, 78, 60
4, 215424, Note_on_c, 2, 69, 60
4, 215804, Note_off_c, 2, 78, 64
4, 215804, Note_off_c, 2, 69, 64
4, 217728, Note_on_c, 2, 78, 60
4, 217728, Note_on_c, 2, 69, 60
4, 218108, Note_off_c, 2, 78, 64
4, 218108, Note_off_c, 2, 69, 64
4, 218112, Note_on_c, 2, 79, 60
4, 218112, Note_on_c, 2, 71, 60
4, 218492, Note_off_c, 2, 79, 64
4, 218492, Note_off_c, 2, 71, 64
4, 218496, Note_on_c, 2, 79, 60
4, 218496, Note_on_c, 2, 71, 60
4, 218876, Note_off_c, 2, 79, 64
4, 218876, Note_off_c, 2, 71, 64
4, 220800, Note_on_c, 2, 79, 60
4, 220800, Note_on_c, 2, 71, 60
4, 220800, Note_on_c, 2, 67, 60
4, 220800, Note_on_c, 2, 62, 60
4, 221180, Note_off_c, 2, 79, 64
4, 221180, Note_off_c, 2, 71, 64
4, 221180, Note_off_c, 2, 67, 64
4, 221180, Note_off_c, 2, 62, 64
4, 221184, Note_on_c, 2, 78, 60
4, 221184, Note_on_c, 2, 71, 60
4, 221184, Note_on_c, 2, 69, 60
4, 221184, Note_on_c, 2, 66, 60
4, 221564, Note_off_c, 2, 78, 64
4, 221564, Note_off_c, 2, 71, 64
4, 221564, Note_off_c, 2, 69, 64
4, 221564, Note_off_c, 2, 66, 64
4, 221568, Note_on_c, 2, 78, 60
4, 221568, Note_on_c, 2, 71, 60
4, 221568, Note_on_c, 2, 69, 60
4, 221568, Note_on_c, 2, 66, 60
4, 221948, Note_off_c, 2, 78, 64
4, 221948, Note_off_c, 2, 71, 64
4, 221948, Note_off_c, 2, 69, 64
4, 221948, Note_off_c, 2, 66, 64
4, 223872, Note_on_c, 2, 78, 60
4, 223872, Note_on_c, 2, 71, 60
4, 223872, Note_on_c, 2, 69, 60
4, 223872, Note_on_c, 2, 66, 60
4, 224252, Note_off_c, 2, 78, 64
4, 224252, Note_off_c, 2, 71, 64
4, 224252, Note_off_c, 2, 69, 64
4, 224252, Note_off_c, 2, 66, 64
4, 224256, Note_on_c, 2, 79, 60
4, 224256, Note_on_c, 2, 71, 60
4, 224256, Note_on_c, 2, 67, 60
4, 224256, Note_on_c, 2, 64, 60
4, 224636, Note_off_c, 2, 79, 64
4, 224636, Note_off_c, 2, 71, 64
4, 224636, Note_off_c, 2, 67, 64
4, 224636, Note_off_c, 2, 64, 64
4, 224640, Note_on_c, 2, 79, 60
4, 224640, Note_on_c, 2, 71, 60
4, 224640, Note_on_c, 2, 64, 60
4, 224640, Note_on_c, 2, 67, 60
4, 225020, Note_off_c, 2, 79, 64
4, 225020, Note_off_c, 2, 71, 64
4, 225020, Note_off_c, 2, 64, 64
4, 225020, Note_off_c, 2, 67, 64
4, 226944, Note_on_c, 2, 79, 60
4, 226944, Note_on_c, 2, 71, 60
4, 226944, Note_on_c, 2, 67, 60
4, 226944, Note_on_c, 2, 64, 60
4, 227324, Note_off_c, 2, 79, 64
4, 227324, Note_off_c, 2, 71, 64
4, 227324, Note_off_c, 2, 67, 64
4, 227324, Note_off_c, 2, 64, 64
4, 227328, Note_on_c, 2, 79, 60
4, 227328, Note_on_c, 2, 69, 60
4, 227328, Note_on_c, 2, 64, 60
4, 227328, Note_on_c, 2, 57, 60
4, 227708, Note_off_c, 2, 79, 64
4, 227708, Note_off_c, 2, 69, 64
4, 227708, Note_off_c, 2, 64, 64
4, 227708, Note_off_c, 2, 57, 64
4, 227712, Note_on_c, 2, 79, 60
4, 227712, Note_on_c, 2, 69, 60
4, 227712, Note_on_c, 2, 64, 60
4, 227712, Note_on_c, 2, 57, 60
4, 228092, Note_off_c, 2, 79, 64
4, 228092, Note_off_c, 2, 69, 64
4, 228092, Note_off_c, 2, 64, 64
4, 228092, Note_off_c, 2, 57, 64
4, 230016, Note_on_c, 2, 79, 60
4, 230016, Note_on_c, 2, 69, 60
4, 230396, Note_off_c, 2, 79, 64
4, 230396, Note_off_c, 2, 69, 64
4, 230400, Note_on_c, 2, 81, 60
4, 230400, Note_on_c, 2, 78, 60
4, 230400, Note_on_c, 2, 69, 60
4, 231548, Note_off_c, 2, 81, 64
4, 231548, Note_off_c, 2, 78, 64
4, 231548, Note_off_c, 2, 69, 64
4, 231552, Note_on_c, 2, 78, 60
4, 231552, Note_on_c, 2, 69, 60
4, 231932, Note_off_c, 2, 78, 64
4, 231932, Note_off_c, 2, 69, 64
4, 231936, Note_on_c, 2, 76, 60
4, 231936, Note_on_c, 2, 71, 60
4, 233084, Note_off_c, 2, 76, 64
4, 233088, Note_on_c, 2, 74, 60
4, 233468, Note_off_c, 2, 71, 64
4, 233468, Note_off_c, 2, 74, 64
4, 233472, Note_on_c, 2, 73, 60
4, 233472, Note_on_c, 2, 69, 60
4, 233472, Note_on_c, 2, 64, 60
4, 234236, Note_off_c, 2, 73, 64
4, 234236, Note_off_c, 2, 69, 64
4, 234236, Note_off_c, 2, 64, 64
4, 234240, Note_on_c, 2, 74, 60
4, 234240, Note_on_c, 2, 69, 60
4, 234240, Note_on_c, 2, 62, 60
4, 234620, Note_off_c, 2, 74, 64
4, 234620, Note_off_c, 2, 69, 64
4, 234624, Note_on_c, 2, 66, 60
4, 235004, Note_off_c, 2, 62, 64
4, 235004, Note_off_c, 2, 66, 64
4, 235008, Note_on_c, 2, 64, 60
4, 235008, Note_on_c, 2, 59, 60
4, 236156, Note_off_c, 2, 64, 64
4, 236160, Note_on_c, 2, 62, 60
4, 236540, Note_off_c, 2, 59, 64
4, 236540, Note_off_c, 2, 62, 64
4, 236544, Note_on_c, 2, 61, 60
4, 236544, Note_on_c, 2, 57, 60
4, 236924, Note_off_c, 2, 61, 64
4, 236924, Note_off_c, 2, 57, 64
4, 239616, Note_on_c, 2, 86, 95
4, 241148, Note_off_c, 2, 86, 64
4, 241152, Note_on_c, 2, 81, 90
4, 242684, Note_off_c, 2, 81, 64
4, 242688, Note_on_c, 2, 78, 85
4, 243068, Note_off_c, 2, 78, 64
4, 243072, Note_on_c, 2, 74, 85
4, 243452, Note_off_c, 2, 74, 64
4, 243840, Note_on_c, 2, 74, 85
4, 244220, Note_off_c, 2, 74, 64
4, 244224, Note_on_c, 2, 73, 85
4, 244604, Note_off_c, 2, 73, 64
4, 244608, Note_on_c, 2, 69, 85
4, 244988, Note_off_c, 2, 69, 64
4, 244992, Note_on_c, 2, 76, 85
4, 245372, Note_off_c, 2, 76, 64
4, 245376, Note_on_c, 2, 73, 85
4, 245756, Note_off_c, 2, 73, 64
4, 245760, Note_on_c, 2, 74, 85
4, 246140, Note_off_c, 2, 74, 64
4, 246144, Note_on_c, 2, 69, 85
4, 246524, Note_off_c, 2, 69, 64
4, 246528, Note_on_c, 2, 81, 85
4, 246528, Note_on_c, 2, 81, 85
4, 246908, Note_off_c, 2, 81, 64
4, 246912, Note_on_c, 2, 78, 85
4, 247292, Note_off_c, 2, 78, 64
4, 247296, Note_on_c, 2, 76, 85
4, 247676, Note_off_c, 2, 76, 64
4, 247680, Note_on_c, 2, 73, 85
4, 248060, Note_off_c, 2, 81, 64
4, 248060, Note_off_c, 2, 73, 64
4, 248064, Note_on_c, 2, 76, 85
4, 248064, Note_on_c, 2, 69, 85
4, 248064, Note_on_c, 2, 79, 85
4, 248124, Note_off_c, 2, 79, 64
4, 248128, Note_on_c, 2, 81, 85
4, 248188, Note_off_c, 2, 81, 64
4, 248192, Note_on_c, 2, 79, 85
4, 248252, Note_off_c, 2, 79, 64
4, 248256, Note_on_c, 2, 81, 85
4, 248316, Note_off_c, 2, 81, 64
4, 248320, Note_on_c, 2, 79, 85
4, 248380, Note_off_c, 2, 79, 64
4, 248384, Note_on_c, 2, 81, 85
4, 248444, Note_off_c, 2, 81, 64
4, 248448, Note_on_c, 2, 79, 85
4, 248508, Note_off_c, 2, 79, 64
4, 248512, Note_on_c, 2, 81, 85
4, 248572, Note_off_c, 2, 81, 64
4, 248576, Note_on_c, 2, 78, 85
4, 248700, Note_off_c, 2, 78, 64
4, 248704, Note_on_c, 2, 79, 85
4, 248828, Note_off_c, 2, 76, 64
4, 248828, Note_off_c, 2, 69, 64
4, 248828, Note_off_c, 2, 79, 64
4, 248832, Note_on_c, 2, 78, 60
4, 248832, Note_on_c, 2, 74, 60
4, 249212, Note_off_c, 2, 78, 64
4, 250364, Note_off_c, 2, 74, 64
4, 250368, Note_on_c, 2, 69, 60
4, 251900, Note_off_c, 2, 69, 64
4, 251904, Note_on_c, 2, 66, 60
4, 252284, Note_off_c, 2, 66, 64
4, 252288, Note_on_c, 2, 62, 60
4, 252668, Note_off_c, 2, 62, 64
4, 253056, Note_on_c, 2, 62, 60
4, 253436, Note_off_c, 2, 62, 64
4, 253440, Note_on_c, 2, 61, 60
4, 253820, Note_off_c, 2, 61, 64
4, 253824, Note_on_c, 2, 57, 60
4, 254204, Note_off_c, 2, 57, 64
4, 254208, Note_on_c, 2, 64, 60
4, 254588, Note_off_c, 2, 64, 64
4, 254592, Note_on_c, 2, 61, 60
4, 254972, Note_off_c, 2, 61, 64
4, 254976, Note_on_c, 2, 62, 60
4, 255356, Note_off_c, 2, 62, 64
4, 255360, Note_on_c, 2, 57, 60
4, 255740, Note_off_c, 2, 57, 64
4, 255744, Note_on_c, 2, 69, 60
4, 257276, Note_off_c, 2, 69, 64
4, 257280, Note_on_c, 2, 67, 67
4, 257340, Note_off_c, 2, 67, 64
4, 257344, Note_on_c, 2, 69, 67
4, 257404, Note_off_c, 2, 69, 64
4, 257408, Note_on_c, 2, 67, 67
4, 257468, Note_off_c, 2, 67, 64
4, 257472, Note_on_c, 2, 69, 67
4, 257532, Note_off_c, 2, 69, 64
4, 257536, Note_on_c, 2, 67, 67
4, 257596, Note_off_c, 2, 67, 64
4, 257600, Note_on_c, 2, 69, 67
4, 257660, Note_off_c, 2, 69, 64
4, 257664, Note_on_c, 2, 67, 67
4, 257724, Note_off_c, 2, 67, 64
4, 257728, Note_on_c, 2, 69, 67
4, 257788, Note_off_c, 2, 69, 64
4, 257792, Note_on_c, 2, 66, 67
4, 257916, Note_off_c, 2, 66, 64
4, 257920, Note_on_c, 2, 67, 67
4, 258044, Note_off_c, 2, 67, 64
4, 258048, Note_on_c, 2, 66, 60
4, 258428, Note_off_c, 2, 66, 64
4, 258432, Note_on_c, 2, 66, 60
4, 258812, Note_off_c, 2, 66, 64
4, 258816, Note_on_c, 2, 66, 67
4, 258876, Note_off_c, 2, 66, 64
4, 258880, Note_on_c, 2, 67, 67
4, 258940, Note_off_c, 2, 67, 64
4, 258944, Note_on_c, 2, 66, 67
4, 259004, Note_off_c, 2, 66, 64
4, 259008, Note_on_c, 2, 67, 67
4, 259068, Note_off_c, 2, 67, 64
4, 259072, Note_on_c, 2, 64, 67
4, 259132, Note_off_c, 2, 64, 64
4, 259136, Note_on_c, 2, 66, 67
4, 259196, Note_off_c, 2, 66, 64
4, 259200, Note_on_c, 2, 64, 67
4, 259388, Note_off_c, 2, 64, 64
4, 259392, Note_on_c, 2, 62, 67
4, 259580, Note_off_c, 2, 62, 64
4, 259584, Note_on_c, 2, 61, 60
4, 259964, Note_off_c, 2, 61, 64
4, 259968, Note_on_c, 2, 57, 60
4, 260348, Note_off_c, 2, 57, 64
4, 260352, Note_on_c, 2, 64, 60
4, 260732, Note_off_c, 2, 64, 64
4, 260736, Note_on_c, 2, 61, 60
4, 261116, Note_off_c, 2, 61, 64
4, 261120, Note_on_c, 2, 62, 60
4, 261500, Note_off_c, 2, 62, 64
4, 261504, Note_on_c, 2, 57, 60
4, 261884, Note_off_c, 2, 57, 64
4, 261888, Note_on_c, 2, 69, 60
4, 263420, Note_off_c, 2, 69, 64
4, 263424, Note_on_c, 2, 67, 67
4, 263484, Note_off_c, 2, 67, 64
4, 263488, Note_on_c, 2, 69, 67
4, 263548, Note_off_c, 2, 69, 64
4, 263552, Note_on_c, 2, 67, 67
4, 263612, Note_off_c, 2, 67, 64
4, 263616, Note_on_c, 2, 69, 67
4, 263676, Note_off_c, 2, 69, 64
4, 263680, Note_on_c, 2, 67, 67
4, 263740, Note_off_c, 2, 67, 64
4, 263744, Note_on_c, 2, 69, 67
4, 263804, Note_off_c, 2, 69, 64
4, 263808, Note_on_c, 2, 67, 67
4, 263868, Note_off_c, 2, 67, 64
4, 263872, Note_on_c, 2, 69, 67
4, 263932, Note_off_c, 2, 69, 64
4, 263936, Note_on_c, 2, 66, 67
4, 264060, Note_off_c, 2, 66, 64
4, 264064, Note_on_c, 2, 67, 67
4, 264188, Note_off_c, 2, 67, 64
4, 264192, Note_on_c, 2, 69, 60
4, 264192, Note_on_c, 2, 66, 60
4, 264956, Note_off_c, 2, 69, 64
4, 264956, Note_off_c, 2, 66, 64
4, 264960, Note_on_c, 2, 67, 60
4, 264960, Note_on_c, 2, 64, 60
4, 265724, Note_off_c, 2, 67, 64
4, 265724, Note_off_c, 2, 64, 64
4, 265728, Note_on_c, 2, 66, 60
4, 265728, Note_on_c, 2, 62, 60
4, 266492, Note_off_c, 2, 66, 64
4, 266492, Note_off_c, 2, 62, 64
4, 266496, Note_on_c, 2, 64, 60
4, 266496, Note_on_c, 2, 61, 60
4, 267260, Note_off_c, 2, 64, 64
4, 267260, Note_off_c, 2, 61, 64
4, 267264, Note_on_c, 2, 86, 85
4, 267264, Note_on_c, 2, 74, 85
4, 268796, Note_off_c, 2, 86, 64
4, 268796, Note_off_c, 2, 74, 64
4, 268800, Note_on_c, 2, 81, 85
4, 268800, Note_on_c, 2, 69, 85
4, 270332, Note_off_c, 2, 81, 64
4, 270332, Note_off_c, 2, 69, 64
4, 270336, Note_on_c, 2, 78, 85
4, 270336, Note_on_c, 2, 66, 85
4, 270716, Note_off_c, 2, 78, 64
4, 270716, Note_off_c, 2, 66, 64
4, 270720, Note_on_c, 2, 74, 85
4, 270720, Note_on_c, 2, 62, 85
4, 271100, Note_off_c, 2, 74, 64
4, 271100, Note_off_c, 2, 62, 64
4, 273408, Note_on_c, 2, 84, 85
4, 273408, Note_on_c, 2, 72, 85
4, 274940, Note_off_c, 2, 84, 64
4, 274940, Note_off_c, 2, 72, 64
4, 274944, Note_on_c, 2, 81, 85
4, 274944, Note_on_c, 2, 69, 85
4, 276476, Note_off_c, 2, 81, 64
4, 276476, Note_off_c, 2, 69, 64
4, 276480, Note_on_c, 2, 78, 85
4, 276480, Note_on_c, 2, 66, 85
4, 276860, Note_off_c, 2, 78, 64
4, 276860, Note_off_c, 2, 66, 64
4, 276864, Note_on_c, 2, 74, 85
4, 276864, Note_on_c, 2, 62, 85
4, 277244, Note_off_c, 2, 74, 64
4, 277244, Note_off_c, 2, 62, 64
4, 279552, Note_on_c, 2, 79, 85
4, 279552, Note_on_c, 2, 67, 85
4, 281084, Note_off_c, 2, 79, 64
4, 281084, Note_off_c, 2, 67, 64
4, 281088, Note_on_c, 2, 74, 85
4, 281088, Note_on_c, 2, 62, 85
4, 282620, Note_off_c, 2, 74, 64
4, 282620, Note_off_c, 2, 62, 64
4, 282624, Note_on_c, 2, 71, 85
4, 282624, Note_on_c, 2, 59, 85
4, 283004, Note_off_c, 2, 71, 64
4, 283004, Note_off_c, 2, 59, 64
4, 283008, Note_on_c, 2, 67, 85
4, 283008, Note_on_c, 2, 55, 85
4, 283388, Note_off_c, 2, 67, 64
4, 283388, Note_off_c, 2, 55, 64
4, 285696, Note_on_c, 2, 81, 85
4, 285696, Note_on_c, 2, 69, 85
4, 287228, Note_off_c, 2, 81, 64
4, 287228, Note_off_c, 2, 69, 64
4, 287232, Note_on_c, 2, 78, 85
4, 287232, Note_on_c, 2, 66, 85
4, 288764, Note_off_c, 2, 78, 64
4, 288764, Note_off_c, 2, 66, 64
4, 288768, Note_on_c, 2, 75, 85
4, 288768, Note_on_c, 2, 63, 85
4, 289148, Note_off_c, 2, 75, 64
4, 289148, Note_off_c, 2, 63, 64
4, 289152, Note_on_c, 2, 71, 85
4, 289152, Note_on_c, 2, 59, 85
4, 289532, Note_off_c, 2, 71, 64
4, 289532, Note_off_c, 2, 59, 64
4, 291840, Note_on_c, 2, 88, 85
4, 291840, Note_on_c, 2, 76, 85
4, 293372, Note_off_c, 2, 88, 64
4, 293372, Note_off_c, 2, 76, 64
4, 293376, Note_on_c, 2, 83, 85
4, 293376, Note_on_c, 2, 71, 85
4, 294908, Note_off_c, 2, 83, 64
4, 294908, Note_off_c, 2, 71, 64
4, 294912, Note_on_c, 2, 79, 85
4, 294912, Note_on_c, 2, 67, 85
4, 295292, Note_off_c, 2, 79, 64
4, 295292, Note_off_c, 2, 67, 64
4, 295296, Note_on_c, 2, 76, 85
4, 295296, Note_on_c, 2, 64, 85
4, 295676, Note_off_c, 2, 76, 64
4, 295676, Note_off_c, 2, 64, 64
4, 297984, Note_on_c, 2, 79, 85
4, 297984, Note_on_c, 2, 67, 85
4, 299516, Note_off_c, 2, 79, 64
4, 299516, Note_off_c, 2, 67, 64
4, 299520, Note_on_c, 2, 76, 85
4, 299520, Note_on_c, 2, 64, 85
4, 301052, Note_off_c, 2, 76, 64
4, 301052, Note_off_c, 2, 64, 64
4, 301056, Note_on_c, 2, 73, 85
4, 301056, Note_on_c, 2, 61, 85
4, 301436, Note_off_c, 2, 73, 64
4, 301436, Note_off_c, 2, 61, 64
4, 301440, Note_on_c, 2, 69, 85
4, 301440, Note_on_c, 2, 57, 85
4, 301820, Note_off_c, 2, 69, 64
4, 301820, Note_off_c, 2, 57, 64
4, 304128, Note_on_c, 2, 81, 60
4, 304128, Note_on_c, 2, 78, 60
4, 304128, Note_on_c, 2, 62, 60
4, 304508, Note_off_c, 2, 62, 64
4, 305660, Note_off_c, 2, 81, 64
4, 305660, Note_off_c, 2, 78, 64
4, 305664, Note_on_c, 2, 83, 60
4, 305664, Note_on_c, 2, 79, 60
4, 305664, Note_on_c, 2, 62, 60
4, 306044, Note_off_c, 2, 62, 64
4, 307196, Note_off_c, 2, 83, 64
4, 307196, Note_off_c, 2, 79, 64
4, 307200, Note_on_c, 2, 62, 60
4, 307200, Note_on_c, 2, 81, 60
4, 307200, Note_on_c, 2, 78, 60
4, 307580, Note_off_c, 2, 62, 64
4, 308732, Note_off_c, 2, 81, 64
4, 308732, Note_off_c, 2, 78, 64
4, 308736, Note_on_c, 2, 62, 60
4, 308736, Note_on_c, 2, 83, 60
4, 308736, Note_on_c, 2, 79, 60
4, 309116, Note_off_c, 2, 62, 64
4, 310268, Note_off_c, 2, 83, 64
4, 310268, Note_off_c, 2, 79, 64
4, 310272, Note_on_c, 2, 81, 60
4, 310272, Note_on_c, 2, 78, 60
4, 310272, Note_on_c, 2, 62, 60
4, 310652, Note_off_c, 2, 62, 64
4, 311804, Note_off_c, 2, 81, 64
4, 311804, Note_off_c, 2, 78, 64
4, 311808, Note_on_c, 2, 79, 60
4, 311808, Note_on_c, 2, 76, 60
4, 311808, Note_on_c, 2, 73, 60
4, 311808, Note_on_c, 2, 69, 60
4, 312188, Note_off_c, 2, 73, 64
4, 312188, Note_off_c, 2, 69, 64
4, 313340, Note_off_c, 2, 79, 64
4, 313340, Note_off_c, 2, 76, 64
4, 313344, Note_on_c, 2, 78, 60
4, 313344, Note_on_c, 2, 69, 60
4, 313344, Note_on_c, 2, 62, 60
4, 313344, Note_on_c, 2, 74, 60
4, 313724, Note_off_c, 2, 69, 64
4, 313724, Note_off_c, 2, 62, 64
4, 314876, Note_off_c, 2, 78, 64
4, 314880, Note_on_c, 2, 71, 60
4, 314880, Note_on_c, 2, 76, 60
4, 316412, Note_off_c, 2, 74, 64
4, 316412, Note_off_c, 2, 71, 64
4, 316416, Note_on_c, 2, 73, 60
4, 316796, Note_off_c, 2, 76, 64
4, 316796, Note_off_c, 2, 73, 64
4, 316800, Note_on_c, 2, 71, 60
4, 317180, Note_off_c, 2, 71, 64
4, 317184, Note_on_c, 2, 69, 60
4, 317564, Note_off_c, 2, 69, 64
4, 317568, Note_on_c, 2, 67, 60
4, 317948, Note_off_c, 2, 67, 64
4, 317952, Note_on_c, 2, 66, 67
4, 318332, Note_off_c, 2, 66, 64
4, 318720, Note_on_c, 2, 81, 67
4, 318720, Note_on_c, 2, 69, 67
4, 319868, Note_off_c, 2, 69, 64
4, 319868, Note_off_c, 2, 81, 64
4, 319872, Note_on_c, 2, 78, 66
4, 319872, Note_on_c, 2, 66, 66
4, 320252, Note_off_c, 2, 78, 64
4, 320252, Note_off_c, 2, 66, 64
4, 320256, Note_on_c, 2, 74, 66
4, 320256, Note_on_c, 2, 62, 66
4, 321404, Note_off_c, 2, 62, 64
4, 321404, Note_off_c, 2, 74, 64
4, 321408, Note_on_c, 2, 73, 66
4, 321408, Note_on_c, 2, 61, 66
4, 321788, Note_off_c, 2, 73, 64
4, 321788, Note_off_c, 2, 61, 64
4, 321792, Note_on_c, 2, 79, 66
4, 321792, Note_on_c, 2, 67, 66
4, 322940, Note_off_c, 2, 67, 64
4, 322940, Note_off_c, 2, 79, 64
4, 322944, Note_on_c, 2, 78, 66
4, 323132, Note_off_c, 2, 78, 64
4, 323136, Note_on_c, 2, 79, 66
4, 323324, Note_off_c, 2, 79, 64
4, 323328, Note_on_c, 2, 81, 66
4, 323328, Note_on_c, 2, 69, 66
4, 323708, Note_off_c, 2, 81, 64
4, 323708, Note_off_c, 2, 69, 64
4, 323712, Note_on_c, 2, 79, 66
4, 323712, Note_on_c, 2, 67, 66
4, 324092, Note_off_c, 2, 79, 64
4, 324092, Note_off_c, 2, 67, 64
4, 324096, Note_on_c, 2, 78, 66
4, 324096, Note_on_c, 2, 66, 66
4, 324860, Note_off_c, 2, 78, 64
4, 324860, Note_off_c, 2, 66, 64
4, 324864, Note_on_c, 2, 86, 66
4, 324864, Note_on_c, 2, 74, 66
4, 326012, Note_off_c, 2, 74, 64
4, 326012, Note_off_c, 2, 86, 64
4, 326016, Note_on_c, 2, 83, 66
4, 326016, Note_on_c, 2, 71, 66
4, 326396, Note_off_c, 2, 83, 64
4, 326396, Note_off_c, 2, 71, 64
4, 326400, Note_on_c, 2, 79, 66
4, 326400, Note_on_c, 2, 67, 66
4, 327548, Note_off_c, 2, 67, 64
4, 327548, Note_off_c, 2, 79, 64
4, 327552, Note_on_c, 2, 78, 66
4, 327552, Note_on_c, 2, 66, 66
4, 327932, Note_off_c, 2, 78, 64
4, 327932, Note_off_c, 2, 66, 64
4, 327936, Note_on_c, 2, 74, 66
4, 327936, Note_on_c, 2, 62, 66
4, 327936, Note_on_c, 2, 66, 66
4, 329084, Note_off_c, 2, 62, 64
4, 329084, Note_off_c, 2, 66, 64
4, 329084, Note_off_c, 2, 74, 64
4, 329088, Note_on_c, 2, 67, 66
4, 329088, Note_on_c, 2, 64, 66
4, 329088, Note_on_c, 2, 76, 66
4, 329852, Note_off_c, 2, 67, 64
4, 329852, Note_off_c, 2, 64, 64
4, 329852, Note_off_c, 2, 76, 64
4, 329856, Note_on_c, 2, 64, 66
4, 329856, Note_on_c, 2, 61, 66
4, 329856, Note_on_c, 2, 73, 66
4, 330236, Note_off_c, 2, 64, 64
4, 330236, Note_off_c, 2, 61, 64
4, 330236, Note_off_c, 2, 73, 64
4, 330240, Note_on_c, 2, 74, 67
4, 330240, Note_on_c, 2, 66, 67
4, 330240, Note_on_c, 2, 62, 67
4, 330620, Note_off_c, 2, 74, 64
4, 330620, Note_off_c, 2, 66, 64
4, 330620, Note_off_c, 2, 62, 64
4, 331776, Note_on_c, 2, 74, 60
4, 331776, Note_on_c, 2, 69, 60
4, 333308, Note_off_c, 2, 74, 64
4, 333308, Note_off_c, 2, 69, 64
4, 333312, Note_on_c, 2, 79, 60
4, 333312, Note_on_c, 2, 73, 60
4, 334844, Note_off_c, 2, 79, 64
4, 334844, Note_off_c, 2, 73, 64
4, 334848, Note_on_c, 2, 85, 60
4, 334848, Note_on_c, 2, 79, 60
4, 336380, Note_off_c, 2, 85, 64
4, 336380, Note_off_c, 2, 79, 64
4, 336384, Note_on_c, 2, 86, 60
4, 336384, Note_on_c, 2, 78, 60
4, 337916, Note_off_c, 2, 86, 64
4, 337916, Note_off_c, 2, 78, 64
4, 337920, Note_on_c, 2, 79, 60
4, 337920, Note_on_c, 2, 74, 60
4, 339452, Note_off_c, 2, 79, 64
4, 339456, Note_on_c, 2, 78, 60
4, 340988, Note_off_c, 2, 74, 64
4, 340988, Note_off_c, 2, 78, 64
4, 340992, Note_on_c, 2, 76, 60
4, 340992, Note_on_c, 2, 73, 60
4, 342524, Note_off_c, 2, 76, 64
4, 342524, Note_off_c, 2, 73, 64
4, 342528, Note_on_c, 2, 74, 60
4, 342528, Note_on_c, 2, 69, 60
4, 342528, Note_on_c, 2, 66, 60
4, 342908, Note_off_c, 2, 74, 64
4, 344060, Note_off_c, 2, 69, 64
4, 344060, Note_off_c, 2, 66, 64
4, 344064, Note_on_c, 2, 67, 60
4, 344064, Note_on_c, 2, 64, 60
4, 345596, Note_off_c, 2, 67, 64
4, 345596, Note_off_c, 2, 64, 64
4, 345600, Note_on_c, 2, 66, 60
4, 345600, Note_on_c, 2, 62, 60
4, 347132, Note_off_c, 2, 66, 64
4, 347132, Note_off_c, 2, 62, 64
4, 347136, Note_on_c, 2, 61, 60
4, 347136, Note_on_c, 2, 64, 60
4, 348668, Note_off_c, 2, 61, 64
4, 348668, Note_off_c, 2, 64, 64
4, 348672, Note_on_c, 2, 69, 60
4, 348672, Note_on_c, 2, 66, 60
4, 350204, Note_off_c, 2, 69, 64
4, 350204, Note_off_c, 2, 66, 64
4, 350208, Note_on_c, 2, 67, 60
4, 350208, Note_on_c, 2, 64, 60
4, 351740, Note_off_c, 2, 67, 64
4, 351740, Note_off_c, 2, 64, 64
4, 351744, Note_on_c, 2, 66, 60
4, 351744, Note_on_c, 2, 62, 60
4, 353276, Note_off_c, 2, 66, 64
4, 353276, Note_off_c, 2, 62, 64
4, 354816, Note_on_c, 2, 66, 66
4, 354816, Note_on_c, 2, 62, 66
4, 355580, Note_off_c, 2, 66, 64
4, 355580, Note_off_c, 2, 62, 64
4, 355968, Note_on_c, 2, 74, 66
4, 355968, Note_on_c, 2, 70, 66
4, 356348, Note_off_c, 2, 70, 64
4, 356352, Note_on_c, 2, 71, 66
4, 357116, Note_off_c, 2, 74, 64
4, 357116, Note_off_c, 2, 71, 64
4, 357504, Note_on_c, 2, 71, 66
4, 357504, Note_on_c, 2, 66, 66
4, 357884, Note_off_c, 2, 66, 64
4, 357888, Note_on_c, 2, 67, 66
4, 358652, Note_off_c, 2, 71, 64
4, 358652, Note_off_c, 2, 67, 64
4, 359040, Note_on_c, 2, 75, 66
4, 359040, Note_on_c, 2, 69, 66
4, 359420, Note_off_c, 2, 75, 64
4, 359420, Note_off_c, 2, 69, 64
4, 359424, Note_on_c, 2, 76, 66
4, 359424, Note_on_c, 2, 71, 66
4, 359804, Note_off_c, 2, 76, 64
4, 359808, Note_on_c, 2, 79, 66
4, 360188, Note_off_c, 2, 71, 64
4, 360188, Note_off_c, 2, 79, 64
4, 360192, Note_on_c, 2, 78, 66
4, 360192, Note_on_c, 2, 69, 66
4, 360572, Note_off_c, 2, 78, 64
4, 360572, Note_off_c, 2, 69, 64
4, 360576, Note_on_c, 2, 73, 66
4, 360576, Note_on_c, 2, 67, 66
4, 360956, Note_off_c, 2, 73, 64
4, 360956, Note_off_c, 2, 67, 64
4, 360960, Note_on_c, 2, 74, 66
4, 360960, Note_on_c, 2, 69, 66
4, 360960, Note_on_c, 2, 66, 66
4, 361724, Note_off_c, 2, 74, 64
4, 361724, Note_off_c, 2, 69, 64
4, 361724, Note_off_c, 2, 66, 64
4, 362112, Note_on_c, 2, 66, 66
4, 362112, Note_on_c, 2, 62, 66
4, 362112, Note_on_c, 2, 57, 66
4, 362492, Note_off_c, 2, 66, 64
4, 362492, Note_off_c, 2, 62, 64
4, 362492, Note_off_c, 2, 57, 64
4, 362496, Note_on_c, 2, 67, 66
4, 362496, Note_on_c, 2, 62, 66
4, 362496, Note_on_c, 2, 55, 66
4, 363260, Note_off_c, 2, 67, 64
4, 363260, Note_off_c, 2, 62, 64
4, 363260, Note_off_c, 2, 55, 64
4, 363648, Note_on_c, 2, 69, 66
4, 363648, Note_on_c, 2, 62, 66
4, 364028, Note_off_c, 2, 69, 64
4, 364032, Note_on_c, 2, 71, 66
4, 364412, Note_off_c, 2, 62, 64
4, 364796, Note_off_c, 2, 71, 64
4, 364800, Note_on_c, 2, 73, 66
4, 364992, Note_on_c, 2, 69, 66
4, 365180, Note_off_c, 2, 73, 64
4, 365180, Note_off_c, 2, 69, 64
4, 365184, Note_on_c, 2, 74, 66
4, 365184, Note_on_c, 2, 67, 66
4, 365372, Note_off_c, 2, 67, 64
4, 365376, Note_on_c, 2, 66, 66
4, 365564, Note_off_c, 2, 74, 64
4, 365564, Note_off_c, 2, 66, 64
4, 365568, Note_on_c, 2, 67, 66
4, 365568, Note_on_c, 2, 64, 66
4, 365568, Note_on_c, 2, 57, 66
4, 366332, Note_off_c, 2, 67, 64
4, 366332, Note_off_c, 2, 64, 64
4, 366720, Note_on_c, 2, 79, 66
4, 366720, Note_on_c, 2, 76, 66
4, 367100, Note_off_c, 2, 79, 64
4, 367100, Note_off_c, 2, 76, 64
4, 367104, Note_on_c, 2, 78, 66
4, 367104, Note_on_c, 2, 74, 66
4, 367484, Note_off_c, 2, 57, 64
4, 367484, Note_off_c, 2, 78, 64
4, 367484, Note_off_c, 2, 74, 64
4, 370176, Note_on_c, 2, 74, 66
4, 370176, Note_on_c, 2, 71, 66
4, 370176, Note_on_c, 2, 55, 66
4, 370556, Note_off_c, 2, 74, 64
4, 370556, Note_off_c, 2, 71, 64
4, 370556, Note_off_c, 2, 55, 64
4, 373248, Note_on_c, 2, 78, 66
4, 373248, Note_on_c, 2, 74, 66
4, 373248, Note_on_c, 2, 69, 66
4, 373628, Note_off_c, 2, 78, 64
4, 373628, Note_off_c, 2, 74, 64
4, 373628, Note_off_c, 2, 69, 64
4, 373632, Note_on_c, 2, 78, 66
4, 373632, Note_on_c, 2, 74, 66
4, 373632, Note_on_c, 2, 69, 66
4, 374012, Note_off_c, 2, 78, 64
4, 374012, Note_off_c, 2, 74, 64
4, 374012, Note_off_c, 2, 69, 64
4, 374016, Note_on_c, 2, 78, 66
4, 374016, Note_on_c, 2, 74, 66
4, 374016, Note_on_c, 2, 69, 66
4, 374396, Note_off_c, 2, 78, 64
4, 374396, Note_off_c, 2, 74, 64
4, 374396, Note_off_c, 2, 69, 64
4, 374400, Note_on_c, 2, 78, 66
4, 374400, Note_on_c, 2, 74, 66
4, 374400, Note_on_c, 2, 69, 66
4, 374780, Note_off_c, 2, 78, 64
4, 374780, Note_off_c, 2, 74, 64
4, 374780, Note_off_c, 2, 69, 64
4, 374784, Note_on_c, 2, 76, 66
4, 374784, Note_on_c, 2, 73, 66
4, 374784, Note_on_c, 2, 67, 66
4, 375164, Note_off_c, 2, 76, 64
4, 375164, Note_off_c, 2, 73, 64
4, 375164, Note_off_c, 2, 67, 64
4, 375168, Note_on_c, 2, 76, 66
4, 375168, Note_on_c, 2, 73, 66
4, 375168, Note_on_c, 2, 67, 66
4, 375548, Note_off_c, 2, 76, 64
4, 375548, Note_off_c, 2, 73, 64
4, 375548, Note_off_c, 2, 67, 64
4, 375552, Note_on_c, 2, 76, 66
4, 375552, Note_on_c, 2, 73, 66
4, 375552, Note_on_c, 2, 67, 66
4, 375932, Note_off_c, 2, 76, 64
4, 375932, Note_off_c, 2, 73, 64
4, 375932, Note_off_c, 2, 67, 64
4, 375936, Note_on_c, 2, 76, 66
4, 375936, Note_on_c, 2, 73, 66
4, 375936, Note_on_c, 2, 67, 66
4, 376316, Note_off_c, 2, 76, 64
4, 376316, Note_off_c, 2, 73, 64
4, 376316, Note_off_c, 2, 67, 64
4, 376320, Note_on_c, 2, 66, 66
4, 376320, Note_on_c, 2, 74, 66
4, 376700, Note_off_c, 2, 66, 64
4, 376700, Note_off_c, 2, 74, 64
4, 384384, Note_on_c, 2, 79, 66
4, 384384, Note_on_c, 2, 67, 66
4, 384764, Note_off_c, 2, 79, 64
4, 384764, Note_off_c, 2, 67, 64
4, 384768, Note_on_c, 2, 78, 66
4, 384768, Note_on_c, 2, 69, 66
4, 385148, Note_off_c, 2, 78, 64
4, 385148, Note_off_c, 2, 69, 64
4, 385152, Note_on_c, 2, 76, 66
4, 385152, Note_on_c, 2, 71, 66
4, 385532, Note_off_c, 2, 76, 64
4, 385532, Note_off_c, 2, 71, 64
4, 385536, Note_on_c, 2, 78, 66
4, 385536, Note_on_c, 2, 69, 66
4, 386300, Note_off_c, 2, 78, 64
4, 386300, Note_off_c, 2, 69, 64
4, 392064, Note_on_c, 2, 78, 66
4, 392064, Note_on_c, 2, 69, 66
4, 392064, Note_on_c, 2, 74, 66
4, 392444, Note_off_c, 2, 78, 64
4, 392444, Note_off_c, 2, 69, 64
4, 392444, Note_off_c, 2, 74, 64
4, 392448, Note_on_c, 2, 78, 66
4, 392448, Note_on_c, 2, 74, 66
4, 392448, Note_on_c, 2, 69, 66
4, 392828, Note_off_c, 2, 78, 64
4, 392828, Note_off_c, 2, 74, 64
4, 392828, Note_off_c, 2, 69, 64
4, 392832, Note_on_c, 2, 78, 66
4, 392832, Note_on_c, 2, 69, 66
4, 392832, Note_on_c, 2, 74, 66
4, 393212, Note_off_c, 2, 78, 64
4, 393212, Note_off_c, 2, 69, 64
4, 393212, Note_off_c, 2, 74, 64
4, 393216, Note_on_c, 2, 78, 66
4, 393216, Note_on_c, 2, 74, 66
4, 393216, Note_on_c, 2, 69, 66
4, 393596, Note_off_c, 2, 78, 64
4, 393596, Note_off_c, 2, 74, 64
4, 393596, Note_off_c, 2, 69, 64
4, 393600, Note_on_c, 2, 78, 66
4, 393600, Note_on_c, 2, 74, 66
4, 393600, Note_on_c, 2, 69, 66
4, 393980, Note_off_c, 2, 78, 64
4, 393980, Note_off_c, 2, 74, 64
4, 393980, Note_off_c, 2, 69, 64
4, 393984, Note_on_c, 2, 78, 66
4, 393984, Note_on_c, 2, 74, 66
4, 393984, Note_on_c, 2, 69, 66
4, 394364, Note_off_c, 2, 78, 64
4, 394364, Note_off_c, 2, 74, 64
4, 394364, Note_off_c, 2, 69, 64
4, 394368, Note_on_c, 2, 78, 66
4, 394368, Note_on_c, 2, 74, 66
4, 394368, Note_on_c, 2, 69, 66
4, 394748, Note_off_c, 2, 78, 64
4, 394748, Note_off_c, 2, 74, 64
4, 394748, Note_off_c, 2, 69, 64
4, 394752, Note_on_c, 2, 73, 66
4, 394752, Note_on_c, 2, 67, 66
4, 394940, Note_off_c, 2, 73, 64
4, 394940, Note_off_c, 2, 67, 64
4, 394944, Note_on_c, 2, 76, 66
4, 395132, Note_off_c, 2, 76, 64
4, 395136, Note_on_c, 2, 73, 66
4, 395136, Note_on_c, 2, 67, 66
4, 395324, Note_off_c, 2, 73, 64
4, 395324, Note_off_c, 2, 67, 64
4, 395328, Note_on_c, 2, 76, 66
4, 395516, Note_off_c, 2, 76, 64
4, 395520, Note_on_c, 2, 73, 66
4, 395520, Note_on_c, 2, 67, 66
4, 395708, Note_off_c, 2, 73, 64
4, 395708, Note_off_c, 2, 67, 64
4, 395712, Note_on_c, 2, 76, 66
4, 395900, Note_off_c, 2, 76, 64
4, 395904, Note_on_c, 2, 73, 66
4, 395904, Note_on_c, 2, 67, 66
4, 396092, Note_off_c, 2, 73, 64
4, 396092, Note_off_c, 2, 67, 64
4, 396096, Note_on_c, 2, 76, 66
4, 396284, Note_off_c, 2, 76, 64
4, 396288, Note_on_c, 2, 73, 66
4, 396288, Note_on_c, 2, 67, 66
4, 396476, Note_off_c, 2, 73, 64
4, 396476, Note_off_c, 2, 67, 64
4, 396480, Note_on_c, 2, 76, 66
4, 396668, Note_off_c, 2, 76, 64
4, 396672, Note_on_c, 2, 73, 66
4, 396672, Note_on_c, 2, 67, 66
4, 396860, Note_off_c, 2, 73, 64
4, 396860, Note_off_c, 2, 67, 64
4, 396864, Note_on_c, 2, 76, 66
4, 397052, Note_off_c, 2, 76, 64
4, 397056, Note_on_c, 2, 73, 66
4, 397056, Note_on_c, 2, 67, 66
4, 397244, Note_off_c, 2, 73, 64
4, 397244, Note_off_c, 2, 67, 64
4, 397248, Note_on_c, 2, 76, 66
4, 397436, Note_off_c, 2, 76, 64
4, 397440, Note_on_c, 2, 73, 66
4, 397440, Note_on_c, 2, 67, 66
4, 397628, Note_off_c, 2, 73, 64
4, 397628, Note_off_c, 2, 67, 64
4, 397632, Note_on_c, 2, 76, 66
4, 397820, Note_off_c, 2, 76, 64
4, 397824, Note_on_c, 2, 78, 85
4, 397824, Note_on_c, 2, 74, 85
4, 397920, Note_off_c, 2, 78, 64
4, 397920, Note_off_c, 2, 74, 64
4, 397920, Note_on_c, 2, 86, 85
4, 399360, Note_on_c, 2, 84, 85
4, 399388, Note_off_c, 2, 86, 64
4, 400892, Note_off_c, 2, 84, 64
4, 400896, Note_on_c, 2, 83, 85
4, 400896, Note_on_c, 2, 74, 85
4, 401276, Note_off_c, 2, 83, 64
4, 401280, Note_on_c, 2, 83, 85
4, 401660, Note_off_c, 2, 83, 64
4, 401664, Note_on_c, 2, 83, 85
4, 401724, Note_off_c, 2, 83, 64
4, 401728, Note_on_c, 2, 85, 85
4, 401788, Note_off_c, 2, 85, 64
4, 401792, Note_on_c, 2, 83, 85
4, 401852, Note_off_c, 2, 83, 64
4, 401856, Note_on_c, 2, 85, 85
4, 401916, Note_off_c, 2, 85, 64
4, 401920, Note_on_c, 2, 81, 85
4, 401980, Note_off_c, 2, 81, 64
4, 401984, Note_on_c, 2, 83, 85
4, 402044, Note_off_c, 2, 83, 64
4, 402048, Note_on_c, 2, 81, 85
4, 402236, Note_off_c, 2, 81, 64
4, 402240, Note_on_c, 2, 79, 85
4, 402428, Note_off_c, 2, 74, 64
4, 402428, Note_off_c, 2, 79, 64
4, 402432, Note_on_c, 2, 78, 85
4, 402432, Note_on_c, 2, 72, 85
4, 402812, Note_off_c, 2, 78, 64
4, 402816, Note_on_c, 2, 78, 85
4, 403196, Note_off_c, 2, 78, 64
4, 403200, Note_on_c, 2, 78, 85
4, 403260, Note_off_c, 2, 78, 64
4, 403264, Note_on_c, 2, 79, 85
4, 403324, Note_off_c, 2, 79, 64
4, 403328, Note_on_c, 2, 78, 85
4, 403388, Note_off_c, 2, 78, 64
4, 403392, Note_on_c, 2, 79, 85
4, 403452, Note_off_c, 2, 79, 64
4, 403456, Note_on_c, 2, 76, 85
4, 403516, Note_off_c, 2, 76, 64
4, 403520, Note_on_c, 2, 78, 85
4, 403580, Note_off_c, 2, 78, 64
4, 403584, Note_on_c, 2, 76, 85
4, 403772, Note_off_c, 2, 76, 64
4, 403776, Note_on_c, 2, 74, 85
4, 403964, Note_off_c, 2, 72, 64
4, 403964, Note_off_c, 2, 74, 64
4, 403968, Note_on_c, 2, 79, 85
4, 403968, Note_on_c, 2, 71, 85
4, 403968, Note_on_c, 2, 62, 85
4, 404348, Note_off_c, 2, 79, 64
4, 404348, Note_off_c, 2, 71, 64
4, 404352, Note_on_c, 2, 79, 85
4, 404352, Note_on_c, 2, 71, 85
4, 404732, Note_off_c, 2, 79, 64
4, 404732, Note_off_c, 2, 71, 64
4, 404736, Note_on_c, 2, 79, 85
4, 404736, Note_on_c, 2, 71, 85
4, 404796, Note_off_c, 2, 79, 64
4, 404796, Note_off_c, 2, 71, 64
4, 404800, Note_on_c, 2, 81, 85
4, 404800, Note_on_c, 2, 73, 85
4, 404860, Note_off_c, 2, 81, 64
4, 404860, Note_off_c, 2, 73, 64
4, 404864, Note_on_c, 2, 79, 85
4, 404864, Note_on_c, 2, 71, 85
4, 404924, Note_off_c, 2, 79, 64
4, 404924, Note_off_c, 2, 71, 64
4, 404928, Note_on_c, 2, 81, 85
4, 404928, Note_on_c, 2, 73, 85
4, 404988, Note_off_c, 2, 81, 64
4, 404988, Note_off_c, 2, 73, 64
4, 404992, Note_on_c, 2, 78, 85
4, 404992, Note_on_c, 2, 69, 85
4, 405052, Note_off_c, 2, 78, 64
4, 405052, Note_off_c, 2, 69, 64
4, 405056, Note_on_c, 2, 71, 85
4, 405056, Note_on_c, 2, 79, 85
4, 405116, Note_off_c, 2, 71, 64
4, 405116, Note_off_c, 2, 79, 64
4, 405120, Note_on_c, 2, 78, 85
4, 405120, Note_on_c, 2, 69, 85
4, 405308, Note_off_c, 2, 78, 64
4, 405308, Note_off_c, 2, 69, 64
4, 405312, Note_on_c, 2, 79, 85
4, 405312, Note_on_c, 2, 67, 85
4, 405500, Note_off_c, 2, 62, 64
4, 405500, Note_off_c, 2, 79, 64
4, 405500, Note_off_c, 2, 67, 64
4, 405504, Note_on_c, 2, 81, 85
4, 405504, Note_on_c, 2, 66, 85
4, 405504, Note_on_c, 2, 60, 85
4, 405884, Note_off_c, 2, 81, 64
4, 405884, Note_off_c, 2, 66, 64
4, 405888, Note_on_c, 2, 81, 85
4, 405888, Note_on_c, 2, 66, 85
4, 406268, Note_off_c, 2, 81, 64
4, 406268, Note_off_c, 2, 66, 64
4, 406272, Note_on_c, 2, 81, 85
4, 406272, Note_on_c, 2, 66, 85
4, 406332, Note_off_c, 2, 81, 64
4, 406332, Note_off_c, 2, 66, 64
4, 406336, Note_on_c, 2, 83, 85
4, 406336, Note_on_c, 2, 67, 85
4, 406396, Note_off_c, 2, 83, 64
4, 406396, Note_off_c, 2, 67, 64
4, 406400, Note_on_c, 2, 81, 85
4, 406400, Note_on_c, 2, 66, 85
4, 406460, Note_off_c, 2, 81, 64
4, 406460, Note_off_c, 2, 66, 64
4, 406464, Note_on_c, 2, 83, 85
4, 406464, Note_on_c, 2, 67, 85
4, 406524, Note_off_c, 2, 83, 64
4, 406524, Note_off_c, 2, 67, 64
4, 406528, Note_on_c, 2, 79, 85
4, 406528, Note_on_c, 2, 64, 85
4, 406588, Note_off_c, 2, 79, 64
4, 406588, Note_off_c, 2, 64, 64
4, 406592, Note_on_c, 2, 81, 85
4, 406592, Note_on_c, 2, 66, 85
4, 406652, Note_off_c, 2, 81, 64
4, 406652, Note_off_c, 2, 66, 64
4, 406656, Note_on_c, 2, 79, 85
4, 406656, Note_on_c, 2, 64, 85
4, 406844, Note_off_c, 2, 79, 64
4, 406844, Note_off_c, 2, 64, 64
4, 406848, Note_on_c, 2, 81, 85
4, 406848, Note_on_c, 2, 62, 85
4, 407036, Note_off_c, 2, 60, 64
4, 407036, Note_off_c, 2, 81, 64
4, 407036, Note_off_c, 2, 62, 64
4, 407040, Note_on_c, 2, 79, 85
4, 407040, Note_on_c, 2, 83, 85
4, 407420, Note_off_c, 2, 79, 64
4, 407420, Note_off_c, 2, 83, 64
4, 407424, Note_on_c, 2, 67, 85
4, 407804, Note_off_c, 2, 67, 64
4, 407808, Note_on_c, 2, 74, 85
4, 407808, Note_on_c, 2, 67, 85
4, 407868, Note_off_c, 2, 67, 64
4, 407872, Note_on_c, 2, 69, 85
4, 407932, Note_off_c, 2, 69, 64
4, 407936, Note_on_c, 2, 67, 85
4, 407996, Note_off_c, 2, 67, 64
4, 408000, Note_on_c, 2, 69, 85
4, 408060, Note_off_c, 2, 69, 64
4, 408064, Note_on_c, 2, 66, 85
4, 408124, Note_off_c, 2, 66, 64
4, 408128, Note_on_c, 2, 67, 85
4, 408188, Note_off_c, 2, 67, 64
4, 408192, Note_on_c, 2, 66, 85
4, 408380, Note_off_c, 2, 66, 64
4, 408384, Note_on_c, 2, 67, 85
4, 408572, Note_off_c, 2, 67, 64
4, 408576, Note_on_c, 2, 69, 85
4, 408956, Note_off_c, 2, 74, 64
4, 408956, Note_off_c, 2, 69, 64
4, 408960, Note_on_c, 2, 69, 85
4, 409340, Note_off_c, 2, 69, 64
4, 409344, Note_on_c, 2, 69, 85
4, 409404, Note_off_c, 2, 69, 64
4, 409408, Note_on_c, 2, 71, 85
4, 409468, Note_off_c, 2, 71, 64
4, 409472, Note_on_c, 2, 69, 85
4, 409532, Note_off_c, 2, 69, 64
4, 409536, Note_on_c, 2, 71, 85
4, 409596, Note_off_c, 2, 71, 64
4, 409600, Note_on_c, 2, 67, 85
4, 409660, Note_off_c, 2, 67, 64
4, 409664, Note_on_c, 2, 69, 85
4, 409712, Note_on_c, 2, 67, 85
4, 409724, Note_off_c, 2, 69, 64
4, 409900, Note_off_c, 2, 67, 64
4, 409920, Note_on_c, 2, 69, 85
4, 410108, Note_off_c, 2, 69, 64
4, 410112, Note_on_c, 2, 67, 85
4, 410112, Note_on_c, 2, 74, 85
4, 410492, Note_off_c, 2, 67, 64
4, 410496, Note_on_c, 2, 67, 85
4, 410876, Note_off_c, 2, 67, 64
4, 410880, Note_on_c, 2, 67, 85
4, 410940, Note_off_c, 2, 67, 64
4, 410944, Note_on_c, 2, 69, 85
4, 411004, Note_off_c, 2, 69, 64
4, 411008, Note_on_c, 2, 67, 85
4, 411068, Note_off_c, 2, 67, 64
4, 411072, Note_on_c, 2, 69, 85
4, 411132, Note_off_c, 2, 69, 64
4, 411136, Note_on_c, 2, 66, 85
4, 411196, Note_off_c, 2, 66, 64
4, 411200, Note_on_c, 2, 67, 85
4, 411260, Note_off_c, 2, 67, 64
4, 411264, Note_on_c, 2, 66, 85
4, 411452, Note_off_c, 2, 66, 64
4, 411456, Note_on_c, 2, 67, 85
4, 411644, Note_off_c, 2, 74, 64
4, 411644, Note_off_c, 2, 67, 64
4, 411648, Note_on_c, 2, 74, 85
4, 411648, Note_on_c, 2, 72, 85
4, 411648, Note_on_c, 2, 69, 85
4, 412028, Note_off_c, 2, 69, 64
4, 412032, Note_on_c, 2, 69, 85
4, 412412, Note_off_c, 2, 69, 64
4, 412416, Note_on_c, 2, 69, 85
4, 412476, Note_off_c, 2, 69, 64
4, 412480, Note_on_c, 2, 71, 85
4, 412540, Note_off_c, 2, 71, 64
4, 412544, Note_on_c, 2, 69, 85
4, 412604, Note_off_c, 2, 69, 64
4, 412608, Note_on_c, 2, 71, 85
4, 412668, Note_off_c, 2, 71, 64
4, 412672, Note_on_c, 2, 67, 85
4, 412732, Note_off_c, 2, 67, 64
4, 412736, Note_on_c, 2, 69, 85
4, 412796, Note_off_c, 2, 69, 64
4, 412800, Note_on_c, 2, 67, 85
4, 412988, Note_off_c, 2, 67, 64
4, 412992, Note_on_c, 2, 69, 85
4, 413180, Note_off_c, 2, 74, 64
4, 413180, Note_off_c, 2, 72, 64
4, 413180, Note_off_c, 2, 69, 64
4, 413184, Note_on_c, 2, 74, 85
4, 413184, Note_on_c, 2, 71, 85
4, 413948, Note_off_c, 2, 74, 64
4, 413948, Note_off_c, 2, 71, 64
4, 413952, Note_on_c, 2, 79, 85
4, 413952, Note_on_c, 2, 74, 85
4, 414140, Note_off_c, 2, 79, 64
4, 414140, Note_off_c, 2, 74, 64
4, 414144, Note_on_c, 2, 71, 85
4, 414332, Note_off_c, 2, 71, 64
4, 414336, Note_on_c, 2, 79, 85
4, 414336, Note_on_c, 2, 74, 85
4, 414524, Note_off_c, 2, 79, 64
4, 414524, Note_off_c, 2, 74, 64
4, 414528, Note_on_c, 2, 71, 85
4, 414716, Note_off_c, 2, 71, 64
4, 414720, Note_on_c, 2, 78, 85
4, 414720, Note_on_c, 2, 74, 85
4, 414908, Note_off_c, 2, 78, 64
4, 414908, Note_off_c, 2, 74, 64
4, 414912, Note_on_c, 2, 69, 85
4, 415100, Note_off_c, 2, 69, 64
4, 415104, Note_on_c, 2, 78, 85
4, 415104, Note_on_c, 2, 74, 85
4, 415292, Note_off_c, 2, 78, 64
4, 415292, Note_off_c, 2, 74, 64
4, 415296, Note_on_c, 2, 69, 85
4, 415472, Note_on_c, 2, 74, 85
4, 415484, Note_off_c, 2, 69, 64
4, 415488, Note_on_c, 2, 76, 85
4, 415660, Note_off_c, 2, 74, 64
4, 415676, Note_off_c, 2, 76, 64
4, 415680, Note_on_c, 2, 71, 85
4, 415868, Note_off_c, 2, 71, 64
4, 415872, Note_on_c, 2, 76, 85
4, 415872, Note_on_c, 2, 74, 85
4, 416060, Note_off_c, 2, 76, 64
4, 416060, Note_off_c, 2, 74, 64
4, 416064, Note_on_c, 2, 71, 85
4, 416252, Note_off_c, 2, 71, 64
4, 416252, Control_c, 2, 64, 127
4, 416256, Note_on_c, 2, 78, 85
4, 416256, Note_on_c, 2, 74, 85
4, 416256, Note_on_c, 2, 69, 85
4, 417404, Note_off_c, 2, 78, 64
4, 417404, Note_off_c, 2, 74, 64
4, 417404, Note_off_c, 2, 69, 64
4, 417404, Control_c, 2, 64, 0
4, 453120, Note_on_c, 2, 78, 85
4, 453120, Note_on_c, 2, 74, 85
4, 453120, Note_on_c, 2, 69, 85
4, 453308, Note_off_c, 2, 78, 64
4, 453308, Note_off_c, 2, 74, 64
4, 453308, Note_off_c, 2, 69, 64
4, 453312, Note_on_c, 2, 66, 85
4, 453500, Note_off_c, 2, 66, 64
4, 453504, Note_on_c, 2, 78, 85
4, 453504, Note_on_c, 2, 74, 85
4, 453504, Note_on_c, 2, 69, 85
4, 453692, Note_off_c, 2, 78, 64
4, 453692, Note_off_c, 2, 74, 64
4, 453692, Note_off_c, 2, 69, 64
4, 453696, Note_on_c, 2, 66, 85
4, 453884, Note_off_c, 2, 66, 64
4, 453888, Note_on_c, 2, 78, 85
4, 453888, Note_on_c, 2, 74, 85
4, 453888, Note_on_c, 2, 69, 85
4, 454076, Note_off_c, 2, 78, 64
4, 454076, Note_off_c, 2, 74, 64
4, 454076, Note_off_c, 2, 69, 64
4, 454080, Note_on_c, 2, 66, 85
4, 454268, Note_off_c, 2, 66, 64
4, 454272, Note_on_c, 2, 78, 85
4, 454272, Note_on_c, 2, 74, 85
4, 454272, Note_on_c, 2, 69, 85
4, 454460, Note_off_c, 2, 78, 64
4, 454460, Note_off_c, 2, 74, 64
4, 454460, Note_off_c, 2, 69, 64
4, 454464, Note_on_c, 2, 66, 85
4, 454652, Note_off_c, 2, 66, 64
4, 454656, Note_on_c, 2, 78, 85
4, 454656, Note_on_c, 2, 74, 85
4, 454844, Note_off_c, 2, 78, 64
4, 454844, Note_off_c, 2, 74, 64
4, 454848, Note_on_c, 2, 66, 85
4, 455036, Note_off_c, 2, 66, 64
4, 455040, Note_on_c, 2, 78, 85
4, 455040, Note_on_c, 2, 74, 85
4, 455228, Note_off_c, 2, 78, 64
4, 455228, Note_off_c, 2, 74, 64
4, 455232, Note_on_c, 2, 66, 85
4, 455420, Note_off_c, 2, 66, 64
4, 455424, Note_on_c, 2, 78, 85
4, 455424, Note_on_c, 2, 74, 85
4, 455612, Note_off_c, 2, 78, 64
4, 455612, Note_off_c, 2, 74, 64
4, 455616, Note_on_c, 2, 66, 85
4, 455804, Note_off_c, 2, 66, 64
4, 455808, Note_on_c, 2, 78, 85
4, 455808, Note_on_c, 2, 74, 85
4, 455996, Note_off_c, 2, 78, 64
4, 455996, Note_off_c, 2, 74, 64
4, 456000, Note_on_c, 2, 66, 85
4, 456188, Note_off_c, 2, 66, 64
4, 456192, Note_on_c, 2, 76, 85
4, 456192, Note_on_c, 2, 74, 85
4, 456192, Note_on_c, 2, 71, 85
4, 456380, Note_off_c, 2, 76, 64
4, 456380, Note_off_c, 2, 74, 64
4, 456380, Note_off_c, 2, 71, 64
4, 456384, Note_on_c, 2, 67, 85
4, 456572, Note_off_c, 2, 67, 64
4, 456576, Note_on_c, 2, 76, 85
4, 456576, Note_on_c, 2, 71, 85
4, 456576, Note_on_c, 2, 74, 85
4, 456764, Note_off_c, 2, 76, 64
4, 456764, Note_off_c, 2, 71, 64
4, 456764, Note_off_c, 2, 74, 64
4, 456768, Note_on_c, 2, 67, 85
4, 456956, Note_off_c, 2, 67, 64
4, 456960, Note_on_c, 2, 76, 85
4, 456960, Note_on_c, 2, 73, 85
4, 456960, Note_on_c, 2, 69, 85
4, 457148, Note_off_c, 2, 76, 64
4, 457148, Note_off_c, 2, 73, 64
4, 457148, Note_off_c, 2, 69, 64
4, 457152, Note_on_c, 2, 67, 85
4, 457340, Note_off_c, 2, 67, 64
4, 457344, Note_on_c, 2, 76, 85
4, 457344, Note_on_c, 2, 73, 85
4, 457344, Note_on_c, 2, 69, 85
4, 457532, Note_off_c, 2, 76, 64
4, 457532, Note_off_c, 2, 73, 64
4, 457532, Note_off_c, 2, 69, 64
4, 457536, Note_on_c, 2, 67, 85
4, 457724, Note_off_c, 2, 67, 64
4, 457728, Note_on_c, 2, 86, 85
4, 457728, Note_on_c, 2, 81, 85
4, 457728, Note_on_c, 2, 78, 85
4, 457916, Note_off_c, 2, 86, 64
4, 457916, Note_off_c, 2, 81, 64
4, 457916, Note_off_c, 2, 78, 64
4, 457920, Note_on_c, 2, 74, 85
4, 458108, Note_off_c, 2, 74, 64
4, 458112, Note_on_c, 2, 86, 85
4, 458112, Note_on_c, 2, 81, 85
4, 458112, Note_on_c, 2, 78, 85
4, 458300, Note_off_c, 2, 86, 64
4, 458300, Note_off_c, 2, 81, 64
4, 458300, Note_off_c, 2, 78, 64
4, 458304, Note_on_c, 2, 74, 85
4, 458492, Note_off_c, 2, 74, 64
4, 458496, Note_on_c, 2, 86, 85
4, 458496, Note_on_c, 2, 81, 85
4, 458496, Note_on_c, 2, 78, 85
4, 458684, Note_off_c, 2, 86, 64
4, 458684, Note_off_c, 2, 81, 64
4, 458684, Note_off_c, 2, 78, 64
4, 458688, Note_on_c, 2, 74, 85
4, 458876, Note_off_c, 2, 74, 64
4, 458880, Note_on_c, 2, 86, 85
4, 458880, Note_on_c, 2, 81, 85
4, 458880, Note_on_c, 2, 78, 85
4, 459068, Note_off_c, 2, 86, 64
4, 459068, Note_off_c, 2, 81, 64
4, 459068, Note_off_c, 2, 78, 64
4, 459072, Note_on_c, 2, 74, 85
4, 459260, Note_off_c, 2, 74, 64
4, 459264, Note_on_c, 2, 78, 85
4, 459264, Note_on_c, 2, 86, 85
4, 459452, Note_off_c, 2, 78, 64
4, 459452, Note_off_c, 2, 86, 64
4, 459456, Note_on_c, 2, 74, 85
4, 459644, Note_off_c, 2, 74, 64
4, 459648, Note_on_c, 2, 78, 85
4, 459648, Note_on_c, 2, 86, 85
4, 459836, Note_off_c, 2, 78, 64
4, 459836, Note_off_c, 2, 86, 64
4, 459840, Note_on_c, 2, 74, 85
4, 460028, Note_off_c, 2, 74, 64
4, 460032, Note_on_c, 2, 78, 85
4, 460032, Note_on_c, 2, 86, 85
4, 460220, Note_off_c, 2, 78, 64
4, 460220, Note_off_c, 2, 86, 64
4, 460224, Note_on_c, 2, 74, 85
4, 460412, Note_off_c, 2, 74, 64
4, 460416, Note_on_c, 2, 78, 85
4, 460416, Note_on_c, 2, 86, 85
4, 460604, Note_off_c, 2, 78, 64
4, 460604, Note_off_c, 2, 86, 64
4, 460608, Note_on_c, 2, 74, 85
4, 460796, Note_off_c, 2, 74, 64
4, 460800, Note_on_c, 2, 86, 85
4, 460800, Note_on_c, 2, 83, 85
4, 460988, Note_off_c, 2, 86, 64
4, 460988, Note_off_c, 2, 83, 64
4, 460992, Note_on_c, 2, 76, 85
4, 461180, Note_off_c, 2, 76, 64
4, 461184, Note_on_c, 2, 86, 85
4, 461184, Note_on_c, 2, 83, 85
4, 461372, Note_off_c, 2, 86, 64
4, 461372, Note_off_c, 2, 83, 64
4, 461376, Note_on_c, 2, 76, 85
4, 461564, Note_off_c, 2, 76, 64
4, 461568, Note_on_c, 2, 85, 85
4, 461568, Note_on_c, 2, 79, 85
4, 461756, Note_off_c, 2, 85, 64
4, 461756, Note_off_c, 2, 79, 64
4, 461760, Note_on_c, 2, 76, 85
4, 461948, Note_off_c, 2, 76, 64
4, 461952, Note_on_c, 2, 85, 85
4, 461952, Note_on_c, 2, 79, 85
4, 462140, Note_off_c, 2, 85, 64
4, 462140, Note_off_c, 2, 79, 64
4, 462144, Note_on_c, 2, 76, 85
4, 462332, Note_off_c, 2, 76, 64
4, 462336, Note_on_c, 2, 86, 95
4, 462336, Note_on_c, 2, 78, 95
4, 462336, Note_on_c, 2, 74, 95
4, 462716, Note_off_c, 2, 86, 64
4, 462716, Note_off_c, 2, 78, 64
4, 462716, Note_off_c, 2, 74, 64
4, 463104, Note_on_c, 2, 79, 95
4, 463104, Note_on_c, 2, 76, 95
4, 463104, Note_on_c, 2, 73, 95
4, 463104, Note_on_c, 2, 69, 95
4, 463484, Note_off_c, 2, 79, 64
4, 463484, Note_off_c, 2, 76, 64
4, 463484, Note_off_c, 2, 73, 64
4, 463484, Note_off_c, 2, 69, 64
4, 463872, Note_on_c, 2, 78, 95
4, 463872, Note_on_c, 2, 74, 95
4, 463872, Note_on_c, 2, 69, 95
4, 464252, Note_off_c, 2, 78, 64
4, 464252, Note_off_c, 2, 74, 64
4, 464252, Note_off_c, 2, 69, 64
4, 464640, Note_on_c, 2, 85, 95
4, 464640, Note_on_c, 2, 79, 95
4, 464640, Note_on_c, 2, 76, 95
4, 465020, Note_off_c, 2, 85, 64
4, 465020, Note_off_c, 2, 79, 64
4, 465020, Note_off_c, 2, 76, 64
4, 465408, Note_on_c, 2, 86, 95
4, 465408, Note_on_c, 2, 78, 95
4, 465408, Note_on_c, 2, 74, 95
4, 466172, Note_off_c, 2, 86, 64
4, 466172, Note_off_c, 2, 78, 64
4, 466172, Note_off_c, 2, 74, 64
4, 466172, End_track
5, 0, Start_track
5, 0, Title_t, "B.Fisher"
5, 0, Control_c, 3, 0, 0
5, 0, Program_c, 3, 48
5, 0, Control_c, 3, 7, 127
5, 0, Control_c, 3, 10, 94
5, 0, Control_c, 3, 91, 63
5, 0, Control_c, 3, 93, 55
5, 0, Key_signature, 2, "major"
5, 0, Control_c, 3, 121, 0
5, 384, Control_c, 3, 10, 73
5, 480, Control_c, 3, 91, 63
5, 672, Program_c, 3, 48
5, 4608, Note_on_c, 3, 62, 88
5, 6140, Note_off_c, 3, 62, 64
5, 6144, Note_on_c, 3, 57, 86
5, 7676, Note_off_c, 3, 57, 64
5, 7680, Note_on_c, 3, 54, 85
5, 8060, Note_off_c, 3, 54, 64
5, 8064, Note_on_c, 3, 50, 85
5, 8444, Note_off_c, 3, 50, 64
5, 8832, Note_on_c, 3, 50, 85
5, 9212, Note_off_c, 3, 50, 63
5, 9216, Note_on_c, 3, 49, 85
5, 9596, Note_off_c, 3, 49, 64
5, 9600, Note_on_c, 3, 45, 85
5, 9980, Note_off_c, 3, 45, 64
5, 9984, Note_on_c, 3, 52, 85
5, 10364, Note_off_c, 3, 52, 64
5, 10368, Note_on_c, 3, 49, 85
5, 10748, Note_off_c, 3, 49, 64
5, 10752, Note_on_c, 3, 50, 85
5, 11132, Note_off_c, 3, 50, 64
5, 11136, Note_on_c, 3, 45, 85
5, 11516, Note_off_c, 3, 45, 64
5, 11520, Note_on_c, 3, 57, 85
5, 13052, Note_off_c, 3, 57, 64
5, 13056, Note_on_c, 3, 55, 85
5, 13820, Note_off_c, 3, 55, 64
5, 13824, Note_on_c, 3, 54, 85
5, 14204, Note_off_c, 3, 54, 64
5, 14208, Note_on_c, 3, 54, 85
5, 14588, Note_off_c, 3, 54, 64
5, 14592, Note_on_c, 3, 54, 85
5, 14652, Note_off_c, 3, 54, 64
5, 14656, Note_on_c, 3, 55, 85
5, 14716, Note_off_c, 3, 55, 64
5, 14720, Note_on_c, 3, 54, 85
5, 14780, Note_off_c, 3, 54, 64
5, 14784, Note_on_c, 3, 55, 85
5, 14844, Note_off_c, 3, 55, 64
5, 14848, Note_on_c, 3, 52, 85
5, 14908, Note_off_c, 3, 52, 64
5, 14912, Note_on_c, 3, 54, 85
5, 14972, Note_off_c, 3, 54, 64
5, 14976, Note_on_c, 3, 52, 85
5, 15164, Note_off_c, 3, 52, 64
5, 15168, Note_on_c, 3, 50, 85
5, 15356, Note_off_c, 3, 50, 64
5, 15360, Note_on_c, 3, 49, 85
5, 15740, Note_off_c, 3, 49, 64
5, 15744, Note_on_c, 3, 45, 85
5, 16124, Note_off_c, 3, 45, 64
5, 16128, Note_on_c, 3, 52, 85
5, 16508, Note_off_c, 3, 52, 64
5, 16512, Note_on_c, 3, 49, 85
5, 16892, Note_off_c, 3, 49, 64
5, 16896, Note_on_c, 3, 50, 85
5, 16896, Note_on_c, 3, 38, 85
5, 17660, Note_off_c, 3, 50, 64
5, 17660, Note_off_c, 3, 38, 64
5, 17664, Note_on_c, 3, 49, 85
5, 17664, Note_on_c, 3, 37, 85
5, 18428, Note_off_c, 3, 49, 64
5, 18428, Note_off_c, 3, 37, 64
5, 18432, Note_on_c, 3, 50, 85
5, 18432, Note_on_c, 3, 38, 85
5, 19196, Note_off_c, 3, 50, 64
5, 19196, Note_off_c, 3, 38, 64
5, 19200, Note_on_c, 3, 57, 85
5, 19200, Note_on_c, 3, 45, 85
5, 19964, Note_off_c, 3, 57, 64
5, 19964, Note_off_c, 3, 45, 64
5, 19968, Note_on_c, 3, 62, 85
5, 19968, Note_on_c, 3, 50, 85
5, 20732, Note_off_c, 3, 62, 64
5, 20732, Note_off_c, 3, 50, 64
5, 20736, Note_on_c, 3, 59, 85
5, 20736, Note_on_c, 3, 47, 85
5, 21500, Note_off_c, 3, 59, 64
5, 21500, Note_off_c, 3, 47, 64
5, 21504, Note_on_c, 3, 57, 85
5, 21504, Note_on_c, 3, 45, 85
5, 22268, Note_off_c, 3, 57, 64
5, 22268, Note_off_c, 3, 45, 64
5, 23040, Note_on_c, 3, 54, 60
5, 23040, Note_on_c, 3, 50, 60
5, 24572, Note_off_c, 3, 54, 64
5, 24572, Note_off_c, 3, 50, 64
5, 24576, Note_on_c, 3, 57, 60
5, 24576, Note_on_c, 3, 54, 60
5, 26108, Note_off_c, 3, 57, 64
5, 26108, Note_off_c, 3, 54, 64
5, 26112, Note_on_c, 3, 55, 60
5, 26112, Note_on_c, 3, 52, 60
5, 27260, Note_off_c, 3, 55, 64
5, 27260, Note_off_c, 3, 52, 64
5, 27264, Note_on_c, 3, 54, 60
5, 27264, Note_on_c, 3, 50, 60
5, 27644, Note_off_c, 3, 54, 64
5, 27644, Note_off_c, 3, 50, 64
5, 27648, Note_on_c, 3, 52, 60
5, 27648, Note_on_c, 3, 49, 60
5, 28412, Note_off_c, 3, 52, 64
5, 28412, Note_off_c, 3, 49, 64
5, 28416, Note_on_c, 3, 49, 60
5, 28416, Note_on_c, 3, 45, 60
5, 29180, Note_off_c, 3, 49, 64
5, 29180, Note_off_c, 3, 45, 64
5, 29184, Note_on_c, 3, 57, 60
5, 29184, Note_on_c, 3, 50, 60
5, 29948, Note_off_c, 3, 57, 64
5, 29948, Note_off_c, 3, 50, 64
5, 30720, Note_on_c, 3, 50, 60
5, 30720, Note_on_c, 3, 47, 60
5, 31868, Note_off_c, 3, 50, 64
5, 31868, Note_off_c, 3, 47, 64
5, 31872, Note_on_c, 3, 52, 60
5, 31872, Note_on_c, 3, 49, 60
5, 32252, Note_off_c, 3, 52, 64
5, 32252, Note_off_c, 3, 49, 64
5, 32256, Note_on_c, 3, 57, 60
5, 32256, Note_on_c, 3, 50, 60
5, 33020, Note_off_c, 3, 57, 64
5, 33404, Note_off_c, 3, 50, 64
5, 33408, Note_on_c, 3, 59, 60
5, 33408, Note_on_c, 3, 47, 60
5, 33788, Note_off_c, 3, 59, 64
5, 33788, Note_off_c, 3, 47, 64
5, 33792, Note_on_c, 3, 55, 60
5, 33792, Note_on_c, 3, 43, 60
5, 34556, Note_off_c, 3, 55, 64
5, 34556, Note_off_c, 3, 43, 64
5, 34560, Note_on_c, 3, 57, 60
5, 34560, Note_on_c, 3, 45, 60
5, 35324, Note_off_c, 3, 57, 64
5, 35324, Note_off_c, 3, 45, 64
5, 35328, Note_on_c, 3, 50, 60
5, 35328, Note_on_c, 3, 38, 60
5, 35516, Note_off_c, 3, 50, 64
5, 35516, Note_off_c, 3, 38, 64
5, 38400, Note_on_c, 3, 50, 60
5, 38588, Note_off_c, 3, 50, 64
5, 41472, Note_on_c, 3, 50, 60
5, 41660, Note_off_c, 3, 50, 64
5, 44544, Note_on_c, 3, 50, 60
5, 44732, Note_off_c, 3, 50, 64
5, 47616, Note_on_c, 3, 62, 85
5, 47616, Note_on_c, 3, 50, 85
5, 47996, Note_off_c, 3, 62, 64
5, 47996, Note_off_c, 3, 50, 64
5, 48000, Note_on_c, 3, 62, 85
5, 48000, Note_on_c, 3, 50, 85
5, 48380, Note_off_c, 3, 62, 64
5, 48380, Note_off_c, 3, 50, 64
5, 48384, Note_on_c, 3, 62, 85
5, 48384, Note_on_c, 3, 50, 85
5, 48764, Note_off_c, 3, 62, 64
5, 48764, Note_off_c, 3, 50, 64
5, 48768, Note_on_c, 3, 54, 85
5, 48956, Note_off_c, 3, 54, 64
5, 48960, Note_on_c, 3, 50, 85
5, 49148, Note_off_c, 3, 50, 64
5, 49152, Note_on_c, 3, 59, 85
5, 49152, Note_on_c, 3, 47, 85
5, 49532, Note_off_c, 3, 59, 64
5, 49532, Note_off_c, 3, 47, 64
5, 49536, Note_on_c, 3, 59, 85
5, 49536, Note_on_c, 3, 47, 85
5, 49916, Note_off_c, 3, 59, 64
5, 49916, Note_off_c, 3, 47, 64
5, 49920, Note_on_c, 3, 59, 85
5, 49920, Note_on_c, 3, 47, 85
5, 50300, Note_off_c, 3, 59, 64
5, 50300, Note_off_c, 3, 47, 64
5, 50304, Note_on_c, 3, 50, 85
5, 50492, Note_off_c, 3, 50, 64
5, 50496, Note_on_c, 3, 47, 85
5, 50684, Note_off_c, 3, 47, 64
5, 50688, Note_on_c, 3, 43, 85
5, 51068, Note_off_c, 3, 43, 64
5, 51072, Note_on_c, 3, 40, 85
5, 51452, Note_off_c, 3, 40, 64
5, 51456, Note_on_c, 3, 45, 85
5, 51836, Note_off_c, 3, 45, 64
5, 51840, Note_on_c, 3, 57, 85
5, 51840, Note_on_c, 3, 45, 85
5, 52220, Note_off_c, 3, 57, 64
5, 52220, Note_off_c, 3, 45, 64
5, 52224, Note_on_c, 3, 62, 85
5, 52224, Note_on_c, 3, 50, 85
5, 52604, Note_off_c, 3, 62, 64
5, 52604, Note_off_c, 3, 50, 64
5, 52608, Note_on_c, 3, 50, 85
5, 52608, Note_on_c, 3, 62, 85
5, 52988, Note_off_c, 3, 50, 64
5, 52988, Note_off_c, 3, 62, 64
5, 52992, Note_on_c, 3, 62, 85
5, 52992, Note_on_c, 3, 50, 85
5, 53372, Note_off_c, 3, 62, 64
5, 53372, Note_off_c, 3, 50, 64
5, 53376, Note_on_c, 3, 66, 85
5, 53564, Note_off_c, 3, 66, 64
5, 53568, Note_on_c, 3, 62, 85
5, 53756, Note_off_c, 3, 62, 64
5, 53760, Note_on_c, 3, 59, 85
5, 53760, Note_on_c, 3, 47, 85
5, 54140, Note_off_c, 3, 59, 64
5, 54140, Note_off_c, 3, 47, 64
5, 54144, Note_on_c, 3, 59, 85
5, 54144, Note_on_c, 3, 47, 85
5, 54524, Note_off_c, 3, 59, 64
5, 54524, Note_off_c, 3, 47, 64
5, 54528, Note_on_c, 3, 59, 85
5, 54528, Note_on_c, 3, 47, 85
5, 54908, Note_off_c, 3, 59, 64
5, 54908, Note_off_c, 3, 47, 64
5, 54912, Note_on_c, 3, 62, 85
5, 55100, Note_off_c, 3, 62, 64
5, 55104, Note_on_c, 3, 59, 85
5, 55292, Note_off_c, 3, 59, 64
5, 55296, Note_on_c, 3, 55, 85
5, 55676, Note_off_c, 3, 55, 64
5, 55680, Note_on_c, 3, 52, 85
5, 55680, Note_on_c, 3, 40, 85
5, 56060, Note_off_c, 3, 52, 64
5, 56060, Note_off_c, 3, 40, 64
5, 56064, Note_on_c, 3, 57, 85
5, 56064, Note_on_c, 3, 45, 85
5, 56444, Note_off_c, 3, 57, 64
5, 56444, Note_off_c, 3, 45, 64
5, 56448, Note_on_c, 3, 45, 85
5, 56448, Note_on_c, 3, 33, 85
5, 56828, Note_off_c, 3, 45, 64
5, 56828, Note_off_c, 3, 33, 64
5, 56832, Note_on_c, 3, 50, 85
5, 56832, Note_on_c, 3, 38, 85
5, 57212, Note_off_c, 3, 50, 64
5, 57212, Note_off_c, 3, 38, 64
5, 57600, Note_on_c, 3, 45, 85
5, 57600, Note_on_c, 3, 33, 85
5, 57980, Note_off_c, 3, 45, 64
5, 57980, Note_off_c, 3, 33, 64
5, 58368, Note_on_c, 3, 50, 85
5, 58368, Note_on_c, 3, 38, 85
5, 58748, Note_off_c, 3, 50, 64
5, 58748, Note_off_c, 3, 38, 64
5, 59136, Note_on_c, 3, 57, 85
5, 59136, Note_on_c, 3, 45, 85
5, 59516, Note_off_c, 3, 57, 64
5, 59516, Note_off_c, 3, 45, 64
5, 59904, Note_on_c, 3, 50, 85
5, 59904, Note_on_c, 3, 38, 85
5, 60668, Note_off_c, 3, 50, 64
5, 60668, Note_off_c, 3, 38, 64
5, 64512, Note_on_c, 3, 50, 60
5, 66044, Note_off_c, 3, 50, 64
5, 66048, Note_on_c, 3, 45, 60
5, 67580, Note_off_c, 3, 45, 64
5, 67584, Note_on_c, 3, 54, 60
5, 67964, Note_off_c, 3, 54, 64
5, 67968, Note_on_c, 3, 50, 60
5, 68348, Note_off_c, 3, 50, 64
5, 68736, Note_on_c, 3, 50, 60
5, 69116, Note_off_c, 3, 50, 64
5, 69120, Note_on_c, 3, 49, 60
5, 69884, Note_off_c, 3, 49, 64
5, 69888, Note_on_c, 3, 52, 60
5, 70268, Note_off_c, 3, 52, 64
5, 70272, Note_on_c, 3, 49, 60
5, 70652, Note_off_c, 3, 49, 64
5, 70656, Note_on_c, 3, 50, 60
5, 71420, Note_off_c, 3, 50, 64
5, 71424, Note_on_c, 3, 57, 60
5, 72956, Note_off_c, 3, 57, 64
5, 72960, Note_on_c, 3, 55, 66
5, 73020, Note_off_c, 3, 55, 64
5, 73024, Note_on_c, 3, 57, 66
5, 73084, Note_off_c, 3, 57, 64
5, 73088, Note_on_c, 3, 55, 66
5, 73148, Note_off_c, 3, 55, 64
5, 73152, Note_on_c, 3, 57, 66
5, 73212, Note_off_c, 3, 57, 64
5, 73216, Note_on_c, 3, 55, 66
5, 73276, Note_off_c, 3, 55, 64
5, 73280, Note_on_c, 3, 57, 66
5, 73340, Note_off_c, 3, 57, 64
5, 73344, Note_on_c, 3, 55, 66
5, 73404, Note_off_c, 3, 55, 64
5, 73408, Note_on_c, 3, 57, 66
5, 73468, Note_off_c, 3, 57, 64
5, 73472, Note_on_c, 3, 54, 66
5, 73596, Note_off_c, 3, 54, 64
5, 73600, Note_on_c, 3, 55, 66
5, 73724, Note_off_c, 3, 55, 64
5, 73728, Note_on_c, 3, 54, 60
5, 74108, Note_off_c, 3, 54, 64
5, 74112, Note_on_c, 3, 54, 60
5, 74492, Note_off_c, 3, 54, 64
5, 74496, Note_on_c, 3, 54, 66
5, 74556, Note_off_c, 3, 54, 64
5, 74560, Note_on_c, 3, 55, 66
5, 74620, Note_off_c, 3, 55, 64
5, 74624, Note_on_c, 3, 54, 66
5, 74684, Note_off_c, 3, 54, 64
5, 74688, Note_on_c, 3, 55, 66
5, 74748, Note_off_c, 3, 55, 64
5, 74752, Note_on_c, 3, 54, 66
5, 74812, Note_off_c, 3, 54, 64
5, 74816, Note_on_c, 3, 55, 66
5, 74876, Note_off_c, 3, 55, 64
5, 74880, Note_on_c, 3, 52, 66
5, 75068, Note_off_c, 3, 52, 64
5, 75072, Note_on_c, 3, 50, 66
5, 75260, Note_off_c, 3, 50, 64
5, 75264, Note_on_c, 3, 49, 60
5, 76028, Note_off_c, 3, 49, 64
5, 76032, Note_on_c, 3, 52, 60
5, 76412, Note_off_c, 3, 52, 64
5, 76416, Note_on_c, 3, 49, 60
5, 76796, Note_off_c, 3, 49, 64
5, 76800, Note_on_c, 3, 50, 60
5, 77564, Note_off_c, 3, 50, 64
5, 77568, Note_on_c, 3, 55, 60
5, 78332, Note_off_c, 3, 55, 64
5, 78336, Note_on_c, 3, 57, 60
5, 79868, Note_off_c, 3, 57, 64
5, 79872, Note_on_c, 3, 62, 85
5, 79872, Note_on_c, 3, 50, 85
5, 81404, Note_off_c, 3, 62, 64
5, 81404, Note_off_c, 3, 50, 64
5, 81408, Note_on_c, 3, 57, 85
5, 81408, Note_on_c, 3, 45, 85
5, 82940, Note_off_c, 3, 57, 64
5, 82940, Note_off_c, 3, 45, 64
5, 82944, Note_on_c, 3, 54, 85
5, 82944, Note_on_c, 3, 42, 85
5, 83324, Note_off_c, 3, 54, 64
5, 83324, Note_off_c, 3, 42, 64
5, 83328, Note_on_c, 3, 50, 85
5, 83328, Note_on_c, 3, 38, 85
5, 83708, Note_off_c, 3, 50, 64
5, 83708, Note_off_c, 3, 38, 64
5, 86016, Note_on_c, 3, 57, 85
5, 86016, Note_on_c, 3, 45, 85
5, 87548, Note_off_c, 3, 57, 64
5, 87548, Note_off_c, 3, 45, 64
5, 87552, Note_on_c, 3, 52, 85
5, 87552, Note_on_c, 3, 40, 85
5, 89084, Note_off_c, 3, 52, 64
5, 89084, Note_off_c, 3, 40, 64
5, 89088, Note_on_c, 3, 49, 85
5, 89088, Note_on_c, 3, 37, 85
5, 89468, Note_off_c, 3, 49, 64
5, 89468, Note_off_c, 3, 37, 64
5, 89472, Note_on_c, 3, 45, 85
5, 89472, Note_on_c, 3, 33, 85
5, 89852, Note_off_c, 3, 45, 64
5, 89852, Note_off_c, 3, 33, 64
5, 92160, Note_on_c, 3, 62, 85
5, 92160, Note_on_c, 3, 50, 85
5, 93692, Note_off_c, 3, 62, 64
5, 93692, Note_off_c, 3, 50, 64
5, 93696, Note_on_c, 3, 59, 85
5, 93696, Note_on_c, 3, 47, 85
5, 95228, Note_off_c, 3, 59, 64
5, 95228, Note_off_c, 3, 47, 64
5, 95232, Note_on_c, 3, 56, 85
5, 95232, Note_on_c, 3, 44, 85
5, 95612, Note_off_c, 3, 56, 64
5, 95612, Note_off_c, 3, 44, 64
5, 95616, Note_on_c, 3, 52, 85
5, 95616, Note_on_c, 3, 40, 85
5, 95996, Note_off_c, 3, 52, 64
5, 95996, Note_off_c, 3, 40, 64
5, 107520, Note_on_c, 3, 57, 60
5, 107520, Note_on_c, 3, 64, 60
5, 107900, Note_off_c, 3, 57, 64
5, 107900, Note_off_c, 3, 64, 64
5, 109056, Note_on_c, 3, 62, 60
5, 110204, Note_off_c, 3, 62, 64
5, 110208, Note_on_c, 3, 63, 60
5, 110588, Note_off_c, 3, 63, 64
5, 110592, Note_on_c, 3, 64, 60
5, 110972, Note_off_c, 3, 64, 64
5, 110976, Note_on_c, 3, 66, 60
5, 111356, Note_off_c, 3, 66, 64
5, 111360, Note_on_c, 3, 64, 60
5, 111740, Note_off_c, 3, 64, 64
5, 111744, Note_on_c, 3, 62, 60
5, 112124, Note_off_c, 3, 62, 64
5, 112128, Note_on_c, 3, 57, 66
5, 112128, Note_on_c, 3, 61, 66
5, 113660, Note_off_c, 3, 57, 64
5, 113660, Note_off_c, 3, 61, 64
5, 113664, Note_on_c, 3, 61, 66
5, 113664, Note_on_c, 3, 64, 66
5, 115196, Note_off_c, 3, 61, 64
5, 115196, Note_off_c, 3, 64, 64
5, 115200, Note_on_c, 3, 59, 66
5, 115200, Note_on_c, 3, 62, 66
5, 116348, Note_off_c, 3, 59, 64
5, 116348, Note_off_c, 3, 62, 64
5, 116352, Note_on_c, 3, 57, 66
5, 116352, Note_on_c, 3, 61, 66
5, 116732, Note_off_c, 3, 57, 64
5, 116732, Note_off_c, 3, 61, 64
5, 116736, Note_on_c, 3, 59, 66
5, 116736, Note_on_c, 3, 56, 66
5, 117500, Note_off_c, 3, 59, 64
5, 117500, Note_off_c, 3, 56, 64
5, 117504, Note_on_c, 3, 56, 66
5, 117504, Note_on_c, 3, 52, 66
5, 118268, Note_off_c, 3, 56, 64
5, 118268, Note_off_c, 3, 52, 64
5, 118272, Note_on_c, 3, 57, 66
5, 118272, Note_on_c, 3, 64, 66
5, 119036, Note_off_c, 3, 57, 64
5, 119036, Note_off_c, 3, 64, 64
5, 119808, Note_on_c, 3, 57, 66
5, 119808, Note_on_c, 3, 54, 66
5, 120956, Note_off_c, 3, 57, 64
5, 120956, Note_off_c, 3, 54, 64
5, 120960, Note_on_c, 3, 56, 66
5, 120960, Note_on_c, 3, 59, 66
5, 121340, Note_off_c, 3, 56, 64
5, 121340, Note_off_c, 3, 59, 64
5, 121344, Note_on_c, 3, 64, 66
5, 121344, Note_on_c, 3, 57, 66
5, 122108, Note_off_c, 3, 64, 64
5, 122492, Note_off_c, 3, 57, 64
5, 122496, Note_on_c, 3, 54, 66
5, 122876, Note_off_c, 3, 54, 64
5, 122880, Note_on_c, 3, 50, 66
5, 123644, Note_off_c, 3, 50, 64
5, 123648, Note_on_c, 3, 52, 66
5, 124412, Note_off_c, 3, 52, 64
5, 124416, Note_on_c, 3, 57, 66
5, 124416, Note_on_c, 3, 45, 66
5, 124796, Note_off_c, 3, 57, 64
5, 124796, Note_off_c, 3, 45, 64
5, 125952, Note_on_c, 3, 64, 60
5, 130556, Note_off_c, 3, 64, 64
5, 130560, Note_on_c, 3, 64, 60
5, 130560, Note_on_c, 3, 57, 60
5, 132092, Note_off_c, 3, 64, 64
5, 132096, Note_on_c, 3, 62, 60
5, 133628, Note_off_c, 3, 57, 64
5, 133628, Note_off_c, 3, 62, 64
5, 133632, Note_on_c, 3, 64, 60
5, 136700, Note_off_c, 3, 64, 64
5, 136704, Note_on_c, 3, 57, 60
5, 136704, Note_on_c, 3, 64, 60
5, 136704, Note_on_c, 3, 61, 60
5, 137084, Note_off_c, 3, 57, 64
5, 138236, Note_off_c, 3, 64, 64
5, 138236, Note_off_c, 3, 61, 64
5, 138240, Note_on_c, 3, 59, 60
5, 138240, Note_on_c, 3, 62, 60
5, 139772, Note_off_c, 3, 59, 64
5, 139772, Note_off_c, 3, 62, 64
5, 139776, Note_on_c, 3, 57, 60
5, 139776, Note_on_c, 3, 61, 60
5, 141308, Note_off_c, 3, 57, 64
5, 141308, Note_off_c, 3, 61, 64
5, 141312, Note_on_c, 3, 59, 60
5, 141312, Note_on_c, 3, 56, 60
5, 142844, Note_off_c, 3, 59, 64
5, 142844, Note_off_c, 3, 56, 64
5, 142848, Note_on_c, 3, 61, 60
5, 142848, Note_on_c, 3, 64, 60
5, 144380, Note_off_c, 3, 61, 64
5, 144380, Note_off_c, 3, 64, 64
5, 144384, Note_on_c, 3, 59, 60
5, 144384, Note_on_c, 3, 62, 60
5, 145916, Note_off_c, 3, 59, 64
5, 145916, Note_off_c, 3, 62, 64
5, 145920, Note_on_c, 3, 61, 60
5, 145920, Note_on_c, 3, 57, 60
5, 147452, Note_off_c, 3, 61, 64
5, 147452, Note_off_c, 3, 57, 64
5, 147456, Note_on_c, 3, 59, 60
5, 147456, Note_on_c, 3, 56, 60
5, 148988, Note_off_c, 3, 59, 64
5, 148988, Note_off_c, 3, 56, 64
5, 148992, Note_on_c, 3, 61, 60
5, 148992, Note_on_c, 3, 57, 60
5, 149756, Note_off_c, 3, 61, 64
5, 149756, Note_off_c, 3, 57, 64
5, 178560, Note_on_c, 3, 54, 60
5, 178940, Note_off_c, 3, 54, 64
5, 178944, Note_on_c, 3, 52, 60
5, 179324, Note_off_c, 3, 52, 64
5, 179328, Note_on_c, 3, 51, 60
5, 179708, Note_off_c, 3, 51, 64
5, 179712, Note_on_c, 3, 52, 60
5, 180476, Note_off_c, 3, 52, 64
5, 188928, Note_on_c, 3, 52, 60
5, 189308, Note_off_c, 3, 52, 64
5, 189312, Note_on_c, 3, 52, 60
5, 189692, Note_off_c, 3, 52, 64
5, 189696, Note_on_c, 3, 52, 60
5, 190076, Note_off_c, 3, 52, 64
5, 190080, Note_on_c, 3, 52, 60
5, 190460, Note_off_c, 3, 52, 64
5, 190464, Note_on_c, 3, 52, 60
5, 190464, Note_on_c, 3, 40, 60
5, 190844, Note_off_c, 3, 52, 64
5, 190844, Note_off_c, 3, 40, 64
5, 190848, Note_on_c, 3, 52, 60
5, 190848, Note_on_c, 3, 40, 60
5, 191228, Note_off_c, 3, 52, 64
5, 191228, Note_off_c, 3, 40, 64
5, 191232, Note_on_c, 3, 52, 60
5, 191232, Note_on_c, 3, 40, 60
5, 191612, Note_off_c, 3, 52, 64
5, 191612, Note_off_c, 3, 40, 64
5, 191616, Note_on_c, 3, 52, 60
5, 191616, Note_on_c, 3, 40, 60
5, 191996, Note_off_c, 3, 52, 64
5, 191996, Note_off_c, 3, 40, 64
5, 192000, Note_on_c, 3, 57, 85
5, 192000, Note_on_c, 3, 45, 85
5, 192380, Note_off_c, 3, 57, 64
5, 192380, Note_off_c, 3, 45, 64
5, 192384, Note_on_c, 3, 57, 85
5, 192384, Note_on_c, 3, 45, 85
5, 192764, Note_off_c, 3, 57, 64
5, 192764, Note_off_c, 3, 45, 64
5, 192768, Note_on_c, 3, 57, 85
5, 192768, Note_on_c, 3, 45, 85
5, 193148, Note_off_c, 3, 57, 64
5, 193148, Note_off_c, 3, 45, 64
5, 193152, Note_on_c, 3, 61, 85
5, 193340, Note_off_c, 3, 61, 64
5, 193344, Note_on_c, 3, 57, 85
5, 193532, Note_off_c, 3, 57, 64
5, 193536, Note_on_c, 3, 54, 85
5, 193536, Note_on_c, 3, 42, 85
5, 193916, Note_off_c, 3, 54, 64
5, 193916, Note_off_c, 3, 42, 64
5, 193920, Note_on_c, 3, 54, 85
5, 193920, Note_on_c, 3, 42, 85
5, 194300, Note_off_c, 3, 54, 64
5, 194300, Note_off_c, 3, 42, 64
5, 194304, Note_on_c, 3, 54, 85
5, 194304, Note_on_c, 3, 42, 85
5, 194684, Note_off_c, 3, 54, 64
5, 194684, Note_off_c, 3, 42, 64
5, 194688, Note_on_c, 3, 57, 85
5, 194876, Note_off_c, 3, 57, 64
5, 194880, Note_on_c, 3, 54, 85
5, 195068, Note_off_c, 3, 54, 64
5, 195072, Note_on_c, 3, 50, 85
5, 195452, Note_off_c, 3, 50, 64
5, 195456, Note_on_c, 3, 47, 85
5, 195836, Note_off_c, 3, 47, 64
5, 195840, Note_on_c, 3, 52, 85
5, 196220, Note_off_c, 3, 52, 64
5, 196224, Note_on_c, 3, 52, 85
5, 196604, Note_off_c, 3, 52, 64
5, 196608, Note_on_c, 3, 57, 85
5, 196608, Note_on_c, 3, 45, 85
5, 196988, Note_off_c, 3, 57, 64
5, 196988, Note_off_c, 3, 45, 64
5, 196992, Note_on_c, 3, 57, 85
5, 196992, Note_on_c, 3, 45, 85
5, 197372, Note_off_c, 3, 57, 64
5, 197372, Note_off_c, 3, 45, 64
5, 197376, Note_on_c, 3, 57, 85
5, 197376, Note_on_c, 3, 45, 85
5, 197756, Note_off_c, 3, 57, 64
5, 197756, Note_off_c, 3, 45, 64
5, 197760, Note_on_c, 3, 61, 85
5, 197948, Note_off_c, 3, 61, 64
5, 197952, Note_on_c, 3, 57, 85
5, 198140, Note_off_c, 3, 57, 64
5, 198144, Note_on_c, 3, 54, 85
5, 198144, Note_on_c, 3, 42, 85
5, 198524, Note_off_c, 3, 54, 64
5, 198524, Note_off_c, 3, 42, 64
5, 198528, Note_on_c, 3, 54, 85
5, 198528, Note_on_c, 3, 42, 85
5, 198908, Note_off_c, 3, 54, 64
5, 198908, Note_off_c, 3, 42, 64
5, 198912, Note_on_c, 3, 54, 85
5, 198912, Note_on_c, 3, 42, 85
5, 199292, Note_off_c, 3, 54, 64
5, 199292, Note_off_c, 3, 42, 64
5, 199296, Note_on_c, 3, 57, 85
5, 199484, Note_off_c, 3, 57, 64
5, 199488, Note_on_c, 3, 54, 85
5, 199676, Note_off_c, 3, 54, 64
5, 199680, Note_on_c, 3, 50, 85
5, 200060, Note_off_c, 3, 50, 64
5, 200064, Note_on_c, 3, 47, 85
5, 200444, Note_off_c, 3, 47, 64
5, 200448, Note_on_c, 3, 52, 85
5, 200828, Note_off_c, 3, 52, 64
5, 200832, Note_on_c, 3, 52, 85
5, 201212, Note_off_c, 3, 52, 64
5, 201216, Note_on_c, 3, 45, 85
5, 201216, Note_on_c, 3, 33, 85
5, 201596, Note_off_c, 3, 45, 64
5, 201596, Note_off_c, 3, 33, 64
5, 201984, Note_on_c, 3, 52, 85
5, 201984, Note_on_c, 3, 40, 85
5, 202364, Note_off_c, 3, 52, 64
5, 202364, Note_off_c, 3, 40, 64
5, 202752, Note_on_c, 3, 57, 85
5, 202752, Note_on_c, 3, 45, 85
5, 203132, Note_off_c, 3, 57, 64
5, 203132, Note_off_c, 3, 45, 64
5, 203520, Note_on_c, 3, 52, 85
5, 203520, Note_on_c, 3, 40, 85
5, 203900, Note_off_c, 3, 52, 64
5, 203900, Note_off_c, 3, 40, 64
5, 204288, Note_on_c, 3, 45, 85
5, 204288, Note_on_c, 3, 33, 85
5, 205052, Note_off_c, 3, 45, 64
5, 205052, Note_off_c, 3, 33, 64
5, 205824, Note_on_c, 3, 57, 60
5, 205824, Note_on_c, 3, 45, 60
5, 206588, Note_off_c, 3, 57, 64
5, 206588, Note_off_c, 3, 45, 64
5, 208512, Note_on_c, 3, 64, 60
5, 208512, Note_on_c, 3, 57, 60
5, 208892, Note_off_c, 3, 64, 64
5, 208892, Note_off_c, 3, 57, 64
5, 208896, Note_on_c, 3, 64, 60
5, 208896, Note_on_c, 3, 57, 60
5, 209276, Note_off_c, 3, 64, 64
5, 209276, Note_off_c, 3, 57, 64
5, 209280, Note_on_c, 3, 64, 60
5, 209280, Note_on_c, 3, 57, 60
5, 209660, Note_off_c, 3, 64, 64
5, 209660, Note_off_c, 3, 57, 64
5, 211584, Note_on_c, 3, 64, 60
5, 211584, Note_on_c, 3, 57, 60
5, 211964, Note_off_c, 3, 64, 64
5, 211964, Note_off_c, 3, 57, 64
5, 211968, Note_on_c, 3, 62, 60
5, 211968, Note_on_c, 3, 66, 60
5, 212348, Note_off_c, 3, 62, 64
5, 212348, Note_off_c, 3, 66, 64
5, 212352, Note_on_c, 3, 62, 60
5, 212352, Note_on_c, 3, 66, 60
5, 212732, Note_off_c, 3, 62, 64
5, 212732, Note_off_c, 3, 66, 64
5, 214656, Note_on_c, 3, 62, 60
5, 214656, Note_on_c, 3, 50, 60
5, 215036, Note_off_c, 3, 62, 64
5, 215036, Note_off_c, 3, 50, 64
5, 215040, Note_on_c, 3, 62, 60
5, 215040, Note_on_c, 3, 50, 60
5, 215420, Note_off_c, 3, 62, 64
5, 215420, Note_off_c, 3, 50, 64
5, 215424, Note_on_c, 3, 62, 60
5, 215424, Note_on_c, 3, 50, 60
5, 215804, Note_off_c, 3, 62, 64
5, 215804, Note_off_c, 3, 50, 64
5, 217728, Note_on_c, 3, 62, 60
5, 217728, Note_on_c, 3, 50, 60
5, 218108, Note_off_c, 3, 62, 64
5, 218108, Note_off_c, 3, 50, 64
5, 218112, Note_on_c, 3, 62, 60
5, 218112, Note_on_c, 3, 50, 60
5, 218492, Note_off_c, 3, 62, 64
5, 218492, Note_off_c, 3, 50, 64
5, 218496, Note_on_c, 3, 62, 60
5, 218496, Note_on_c, 3, 50, 60
5, 218876, Note_off_c, 3, 62, 64
5, 218876, Note_off_c, 3, 50, 64
5, 230016, Note_on_c, 3, 64, 60
5, 230016, Note_on_c, 3, 57, 60
5, 230396, Note_off_c, 3, 64, 64
5, 230396, Note_off_c, 3, 57, 64
5, 230400, Note_on_c, 3, 50, 60
5, 231164, Note_off_c, 3, 50, 64
5, 231168, Note_on_c, 3, 54, 60
5, 231168, Note_on_c, 3, 62, 60
5, 231932, Note_off_c, 3, 54, 64
5, 231936, Note_on_c, 3, 55, 60
5, 232316, Note_off_c, 3, 62, 64
5, 233084, Note_off_c, 3, 55, 64
5, 233472, Note_on_c, 3, 57, 60
5, 233852, Note_off_c, 3, 57, 64
5, 233856, Note_on_c, 3, 55, 60
5, 234236, Note_off_c, 3, 55, 64
5, 234240, Note_on_c, 3, 54, 60
5, 234620, Note_off_c, 3, 54, 64
5, 234624, Note_on_c, 3, 57, 60
5, 234624, Note_on_c, 3, 50, 60
5, 235004, Note_off_c, 3, 57, 64
5, 235004, Note_off_c, 3, 50, 64
5, 235008, Note_on_c, 3, 55, 60
5, 235008, Note_on_c, 3, 43, 60
5, 235772, Note_off_c, 3, 55, 64
5, 235776, Note_on_c, 3, 52, 60
5, 236156, Note_off_c, 3, 43, 64
5, 236160, Note_on_c, 3, 44, 60
5, 236540, Note_off_c, 3, 52, 64
5, 236540, Note_off_c, 3, 44, 64
5, 236544, Note_on_c, 3, 52, 60
5, 236544, Note_on_c, 3, 45, 60
5, 236924, Note_off_c, 3, 52, 64
5, 236924, Note_off_c, 3, 45, 64
5, 242688, Note_on_c, 3, 62, 85
5, 244220, Note_off_c, 3, 62, 64
5, 244224, Note_on_c, 3, 57, 85
5, 245756, Note_off_c, 3, 57, 64
5, 245760, Note_on_c, 3, 54, 85
5, 246140, Note_off_c, 3, 54, 64
5, 246144, Note_on_c, 3, 50, 85
5, 246524, Note_off_c, 3, 50, 64
5, 246912, Note_on_c, 3, 50, 85
5, 247292, Note_off_c, 3, 50, 64
5, 247296, Note_on_c, 3, 49, 85
5, 247676, Note_off_c, 3, 49, 64
5, 247680, Note_on_c, 3, 45, 85
5, 248060, Note_off_c, 3, 45, 64
5, 248064, Note_on_c, 3, 52, 85
5, 248444, Note_off_c, 3, 52, 64
5, 248448, Note_on_c, 3, 49, 85
5, 248828, Note_off_c, 3, 49, 64
5, 248832, Note_on_c, 3, 57, 60
5, 248832, Note_on_c, 3, 50, 60
5, 249212, Note_off_c, 3, 57, 64
5, 249212, Note_off_c, 3, 50, 64
5, 251904, Note_on_c, 3, 50, 60
5, 253436, Note_off_c, 3, 50, 64
5, 253440, Note_on_c, 3, 45, 60
5, 254972, Note_off_c, 3, 45, 64
5, 254976, Note_on_c, 3, 54, 60
5, 255356, Note_off_c, 3, 54, 64
5, 255360, Note_on_c, 3, 50, 60
5, 255740, Note_off_c, 3, 50, 64
5, 256128, Note_on_c, 3, 50, 60
5, 256508, Note_off_c, 3, 50, 64
5, 256512, Note_on_c, 3, 49, 60
5, 257276, Note_off_c, 3, 49, 64
5, 257280, Note_on_c, 3, 52, 60
5, 257660, Note_off_c, 3, 52, 64
5, 257664, Note_on_c, 3, 49, 60
5, 258044, Note_off_c, 3, 49, 64
5, 258048, Note_on_c, 3, 50, 60
5, 258812, Note_off_c, 3, 50, 64
5, 258816, Note_on_c, 3, 57, 60
5, 260348, Note_off_c, 3, 57, 64
5, 260352, Note_on_c, 3, 55, 66
5, 260412, Note_off_c, 3, 55, 64
5, 260416, Note_on_c, 3, 57, 66
5, 260476, Note_off_c, 3, 57, 64
5, 260480, Note_on_c, 3, 55, 66
5, 260540, Note_off_c, 3, 55, 64
5, 260544, Note_on_c, 3, 57, 66
5, 260604, Note_off_c, 3, 57, 64
5, 260608, Note_on_c, 3, 55, 66
5, 260668, Note_off_c, 3, 55, 64
5, 260672, Note_on_c, 3, 57, 66
5, 260732, Note_off_c, 3, 57, 64
5, 260736, Note_on_c, 3, 55, 66
5, 260796, Note_off_c, 3, 55, 64
5, 260800, Note_on_c, 3, 57, 66
5, 260860, Note_off_c, 3, 57, 64
5, 260864, Note_on_c, 3, 54, 66
5, 260988, Note_off_c, 3, 54, 64
5, 260992, Note_on_c, 3, 55, 66
5, 261116, Note_off_c, 3, 55, 64
5, 261120, Note_on_c, 3, 54, 60
5, 261500, Note_off_c, 3, 54, 64
5, 261504, Note_on_c, 3, 54, 60
5, 261884, Note_off_c, 3, 54, 64
5, 261888, Note_on_c, 3, 54, 66
5, 261948, Note_off_c, 3, 54, 64
5, 261952, Note_on_c, 3, 55, 66
5, 262012, Note_off_c, 3, 55, 64
5, 262016, Note_on_c, 3, 54, 66
5, 262076, Note_off_c, 3, 54, 64
5, 262080, Note_on_c, 3, 55, 66
5, 262140, Note_off_c, 3, 55, 64
5, 262144, Note_on_c, 3, 52, 66
5, 262204, Note_off_c, 3, 52, 64
5, 262208, Note_on_c, 3, 54, 66
5, 262268, Note_off_c, 3, 54, 64
5, 262272, Note_on_c, 3, 52, 60
5, 262460, Note_off_c, 3, 52, 64
5, 262464, Note_on_c, 3, 50, 60
5, 262652, Note_off_c, 3, 50, 64
5, 262656, Note_on_c, 3, 49, 60
5, 263420, Note_off_c, 3, 49, 64
5, 263424, Note_on_c, 3, 52, 60
5, 263804, Note_off_c, 3, 52, 64
5, 263808, Note_on_c, 3, 49, 60
5, 264188, Note_off_c, 3, 49, 64
5, 264192, Note_on_c, 3, 50, 60
5, 264956, Note_off_c, 3, 50, 64
5, 264960, Note_on_c, 3, 55, 60
5, 265724, Note_off_c, 3, 55, 64
5, 265728, Note_on_c, 3, 57, 60
5, 267260, Note_off_c, 3, 57, 64
5, 267264, Note_on_c, 3, 62, 85
5, 267264, Note_on_c, 3, 50, 85
5, 268796, Note_off_c, 3, 62, 64
5, 268796, Note_off_c, 3, 50, 64
5, 268800, Note_on_c, 3, 57, 85
5, 268800, Note_on_c, 3, 45, 85
5, 270332, Note_off_c, 3, 57, 64
5, 270332, Note_off_c, 3, 45, 64
5, 270336, Note_on_c, 3, 54, 85
5, 270336, Note_on_c, 3, 42, 85
5, 270716, Note_off_c, 3, 54, 64
5, 270716, Note_off_c, 3, 42, 64
5, 270720, Note_on_c, 3, 50, 85
5, 270720, Note_on_c, 3, 38, 85
5, 271100, Note_off_c, 3, 50, 64
5, 271100, Note_off_c, 3, 38, 64
5, 273408, Note_on_c, 3, 60, 85
5, 273408, Note_on_c, 3, 48, 85
5, 274940, Note_off_c, 3, 60, 64
5, 274940, Note_off_c, 3, 48, 64
5, 274944, Note_on_c, 3, 57, 85
5, 274944, Note_on_c, 3, 45, 85
5, 276476, Note_off_c, 3, 57, 64
5, 276476, Note_off_c, 3, 45, 64
5, 276480, Note_on_c, 3, 54, 85
5, 276480, Note_on_c, 3, 42, 85
5, 276860, Note_off_c, 3, 54, 64
5, 276860, Note_off_c, 3, 42, 64
5, 276864, Note_on_c, 3, 50, 85
5, 276864, Note_on_c, 3, 38, 85
5, 277244, Note_off_c, 3, 50, 64
5, 277244, Note_off_c, 3, 38, 64
5, 279552, Note_on_c, 3, 55, 85
5, 279552, Note_on_c, 3, 43, 85
5, 281084, Note_off_c, 3, 55, 64
5, 281084, Note_off_c, 3, 43, 64
5, 281088, Note_on_c, 3, 50, 85
5, 281088, Note_on_c, 3, 38, 85
5, 282620, Note_off_c, 3, 50, 64
5, 282620, Note_off_c, 3, 38, 64
5, 282624, Note_on_c, 3, 47, 85
5, 282624, Note_on_c, 3, 35, 85
5, 283004, Note_off_c, 3, 47, 64
5, 283004, Note_off_c, 3, 35, 64
5, 283008, Note_on_c, 3, 43, 85
5, 283008, Note_on_c, 3, 31, 85
5, 283388, Note_off_c, 3, 43, 64
5, 283388, Note_off_c, 3, 31, 64
5, 285696, Note_on_c, 3, 57, 85
5, 285696, Note_on_c, 3, 45, 85
5, 287228, Note_off_c, 3, 57, 64
5, 287228, Note_off_c, 3, 45, 64
5, 287232, Note_on_c, 3, 54, 85
5, 287232, Note_on_c, 3, 42, 85
5, 288764, Note_off_c, 3, 54, 64
5, 288764, Note_off_c, 3, 42, 64
5, 288768, Note_on_c, 3, 51, 85
5, 288768, Note_on_c, 3, 39, 85
5, 289148, Note_off_c, 3, 51, 64
5, 289148, Note_off_c, 3, 39, 64
5, 289152, Note_on_c, 3, 47, 85
5, 289152, Note_on_c, 3, 35, 85
5, 289532, Note_off_c, 3, 47, 64
5, 289532, Note_off_c, 3, 35, 64
5, 291840, Note_on_c, 3, 64, 85
5, 291840, Note_on_c, 3, 52, 85
5, 293372, Note_off_c, 3, 64, 64
5, 293372, Note_off_c, 3, 52, 64
5, 293376, Note_on_c, 3, 59, 85
5, 293376, Note_on_c, 3, 47, 85
5, 294908, Note_off_c, 3, 59, 64
5, 294908, Note_off_c, 3, 47, 64
5, 294912, Note_on_c, 3, 55, 85
5, 294912, Note_on_c, 3, 43, 85
5, 295292, Note_off_c, 3, 55, 64
5, 295292, Note_off_c, 3, 43, 64
5, 295296, Note_on_c, 3, 52, 85
5, 295296, Note_on_c, 3, 40, 85
5, 295676, Note_off_c, 3, 52, 64
5, 295676, Note_off_c, 3, 40, 64
5, 297984, Note_on_c, 3, 55, 85
5, 297984, Note_on_c, 3, 43, 85
5, 299516, Note_off_c, 3, 55, 64
5, 299516, Note_off_c, 3, 43, 64
5, 299520, Note_on_c, 3, 52, 85
5, 299520, Note_on_c, 3, 40, 85
5, 301052, Note_off_c, 3, 52, 64
5, 301052, Note_off_c, 3, 40, 64
5, 301056, Note_on_c, 3, 49, 85
5, 301056, Note_on_c, 3, 37, 85
5, 301436, Note_off_c, 3, 49, 64
5, 301436, Note_off_c, 3, 37, 64
5, 301440, Note_on_c, 3, 45, 85
5, 301440, Note_on_c, 3, 33, 85
5, 301820, Note_off_c, 3, 45, 64
5, 301820, Note_off_c, 3, 33, 64
5, 314880, Note_on_c, 3, 47, 60
5, 316028, Note_off_c, 3, 47, 64
5, 316416, Note_on_c, 3, 49, 60
5, 316796, Note_off_c, 3, 49, 64
5, 317952, Note_on_c, 3, 54, 66
5, 317952, Note_on_c, 3, 50, 66
5, 319484, Note_off_c, 3, 54, 64
5, 319484, Note_off_c, 3, 50, 64
5, 319488, Note_on_c, 3, 57, 66
5, 319488, Note_on_c, 3, 54, 66
5, 321020, Note_off_c, 3, 57, 64
5, 321020, Note_off_c, 3, 54, 64
5, 321024, Note_on_c, 3, 55, 66
5, 321024, Note_on_c, 3, 52, 66
5, 322172, Note_off_c, 3, 55, 64
5, 322172, Note_off_c, 3, 52, 64
5, 322176, Note_on_c, 3, 54, 66
5, 322176, Note_on_c, 3, 50, 66
5, 322556, Note_off_c, 3, 54, 64
5, 322556, Note_off_c, 3, 50, 64
5, 322560, Note_on_c, 3, 52, 66
5, 322560, Note_on_c, 3, 49, 66
5, 323324, Note_off_c, 3, 52, 64
5, 323324, Note_off_c, 3, 49, 64
5, 323328, Note_on_c, 3, 49, 66
5, 323328, Note_on_c, 3, 45, 66
5, 324092, Note_off_c, 3, 49, 64
5, 324092, Note_off_c, 3, 45, 64
5, 324096, Note_on_c, 3, 57, 66
5, 324096, Note_on_c, 3, 50, 66
5, 324860, Note_off_c, 3, 57, 64
5, 324860, Note_off_c, 3, 50, 64
5, 325632, Note_on_c, 3, 50, 66
5, 325632, Note_on_c, 3, 47, 66
5, 326780, Note_off_c, 3, 50, 64
5, 326780, Note_off_c, 3, 47, 64
5, 326784, Note_on_c, 3, 52, 66
5, 326784, Note_on_c, 3, 49, 66
5, 327164, Note_off_c, 3, 52, 64
5, 327164, Note_off_c, 3, 49, 64
5, 327168, Note_on_c, 3, 57, 66
5, 327168, Note_on_c, 3, 50, 66
5, 327932, Note_off_c, 3, 57, 64
5, 328316, Note_off_c, 3, 50, 64
5, 328320, Note_on_c, 3, 59, 66
5, 328320, Note_on_c, 3, 47, 66
5, 328700, Note_off_c, 3, 59, 64
5, 328700, Note_off_c, 3, 47, 64
5, 328704, Note_on_c, 3, 55, 66
5, 328704, Note_on_c, 3, 43, 66
5, 329468, Note_off_c, 3, 55, 64
5, 329468, Note_off_c, 3, 43, 64
5, 329472, Note_on_c, 3, 57, 66
5, 329472, Note_on_c, 3, 45, 66
5, 330236, Note_off_c, 3, 57, 64
5, 330236, Note_off_c, 3, 45, 64
5, 330240, Note_on_c, 3, 50, 66
5, 330240, Note_on_c, 3, 38, 66
5, 330620, Note_off_c, 3, 50, 64
5, 330620, Note_off_c, 3, 38, 64
5, 331776, Note_on_c, 3, 57, 60
5, 331776, Note_on_c, 3, 45, 60
5, 336380, Note_off_c, 3, 45, 64
5, 336384, Note_on_c, 3, 50, 60
5, 337916, Note_off_c, 3, 57, 64
5, 337920, Note_on_c, 3, 62, 60
5, 339452, Note_off_c, 3, 50, 64
5, 339452, Note_off_c, 3, 62, 64
5, 339456, Note_on_c, 3, 57, 60
5, 339456, Note_on_c, 3, 45, 60
5, 342524, Note_off_c, 3, 45, 64
5, 342528, Note_on_c, 3, 50, 60
5, 342908, Note_off_c, 3, 57, 64
5, 342908, Note_off_c, 3, 50, 64
5, 384384, Note_on_c, 3, 59, 66
5, 384764, Note_off_c, 3, 59, 64
5, 384768, Note_on_c, 3, 57, 66
5, 385148, Note_off_c, 3, 57, 64
5, 385152, Note_on_c, 3, 56, 66
5, 385532, Note_off_c, 3, 56, 64
5, 385536, Note_on_c, 3, 57, 66
5, 386300, Note_off_c, 3, 57, 64
5, 394752, Note_on_c, 3, 57, 66
5, 395132, Note_off_c, 3, 57, 64
5, 395136, Note_on_c, 3, 57, 66
5, 395516, Note_off_c, 3, 57, 64
5, 395520, Note_on_c, 3, 57, 66
5, 395900, Note_off_c, 3, 57, 64
5, 395904, Note_on_c, 3, 57, 66
5, 396284, Note_off_c, 3, 57, 64
5, 396288, Note_on_c, 3, 57, 66
5, 396288, Note_on_c, 3, 45, 66
5, 396668, Note_off_c, 3, 57, 64
5, 396668, Note_off_c, 3, 45, 64
5, 396672, Note_on_c, 3, 57, 66
5, 396672, Note_on_c, 3, 45, 66
5, 397052, Note_off_c, 3, 57, 64
5, 397052, Note_off_c, 3, 45, 64
5, 397056, Note_on_c, 3, 57, 66
5, 397056, Note_on_c, 3, 45, 66
5, 397436, Note_off_c, 3, 57, 64
5, 397436, Note_off_c, 3, 45, 64
5, 397440, Note_on_c, 3, 57, 66
5, 397440, Note_on_c, 3, 45, 66
5, 397820, Note_off_c, 3, 57, 64
5, 397820, Note_off_c, 3, 45, 64
5, 397824, Note_on_c, 3, 50, 85
5, 397824, Note_on_c, 3, 38, 85
5, 398204, Note_off_c, 3, 50, 64
5, 398204, Note_off_c, 3, 38, 64
5, 407040, Note_on_c, 3, 59, 85
5, 407040, Note_on_c, 3, 50, 85
5, 407420, Note_off_c, 3, 59, 64
5, 407424, Note_on_c, 3, 59, 85
5, 407804, Note_off_c, 3, 59, 64
5, 407808, Note_on_c, 3, 59, 85
5, 407868, Note_off_c, 3, 59, 64
5, 407872, Note_on_c, 3, 61, 85
5, 407932, Note_off_c, 3, 61, 64
5, 407936, Note_on_c, 3, 59, 85
5, 407996, Note_off_c, 3, 59, 64
5, 408000, Note_on_c, 3, 61, 85
5, 408060, Note_off_c, 3, 61, 64
5, 408064, Note_on_c, 3, 57, 85
5, 408124, Note_off_c, 3, 57, 64
5, 408128, Note_on_c, 3, 59, 85
5, 408188, Note_off_c, 3, 59, 64
5, 408192, Note_on_c, 3, 57, 85
5, 408380, Note_off_c, 3, 57, 64
5, 408384, Note_on_c, 3, 55, 85
5, 408572, Note_off_c, 3, 50, 64
5, 408572, Note_off_c, 3, 55, 64
5, 408576, Note_on_c, 3, 54, 85
5, 408576, Note_on_c, 3, 48, 85
5, 408956, Note_off_c, 3, 54, 64
5, 408960, Note_on_c, 3, 54, 85
5, 409340, Note_off_c, 3, 54, 64
5, 409344, Note_on_c, 3, 54, 85
5, 409404, Note_off_c, 3, 54, 64
5, 409408, Note_on_c, 3, 55, 85
5, 409468, Note_off_c, 3, 55, 64
5, 409472, Note_on_c, 3, 54, 85
5, 409532, Note_off_c, 3, 54, 64
5, 409536, Note_on_c, 3, 55, 85
5, 409596, Note_off_c, 3, 55, 64
5, 409600, Note_on_c, 3, 52, 85
5, 409660, Note_off_c, 3, 52, 64
5, 409664, Note_on_c, 3, 54, 85
5, 409724, Note_off_c, 3, 54, 64
5, 409728, Note_on_c, 3, 52, 85
5, 409916, Note_off_c, 3, 52, 64
5, 409920, Note_on_c, 3, 50, 85
5, 410108, Note_off_c, 3, 48, 64
5, 410108, Note_off_c, 3, 50, 64
5, 410112, Note_on_c, 3, 47, 85
5, 410492, Note_off_c, 3, 47, 64
5, 410496, Note_on_c, 3, 47, 85
5, 410876, Note_off_c, 3, 47, 64
5, 410880, Note_on_c, 3, 47, 85
5, 411260, Note_off_c, 3, 47, 64
5, 411264, Note_on_c, 3, 45, 85
5, 411452, Note_off_c, 3, 45, 64
5, 411456, Note_on_c, 3, 43, 85
5, 411644, Note_off_c, 3, 43, 64
5, 411648, Note_on_c, 3, 42, 85
5, 412028, Note_off_c, 3, 42, 64
5, 412032, Note_on_c, 3, 42, 85
5, 412412, Note_off_c, 3, 42, 64
5, 412416, Note_on_c, 3, 42, 85
5, 412796, Note_off_c, 3, 42, 64
5, 412800, Note_on_c, 3, 40, 85
5, 412988, Note_off_c, 3, 40, 64
5, 412992, Note_on_c, 3, 38, 85
5, 413180, Note_off_c, 3, 38, 64
5, 413184, Note_on_c, 3, 43, 85
5, 413948, Note_off_c, 3, 43, 64
5, 413952, Note_on_c, 3, 59, 85
5, 413952, Note_on_c, 3, 47, 85
5, 414716, Note_off_c, 3, 59, 64
5, 414716, Note_off_c, 3, 47, 64
5, 414720, Note_on_c, 3, 57, 85
5, 414720, Note_on_c, 3, 45, 85
5, 415484, Note_off_c, 3, 57, 64
5, 415484, Note_off_c, 3, 45, 64
5, 415488, Note_on_c, 3, 56, 85
5, 415488, Note_on_c, 3, 44, 85
5, 416252, Note_off_c, 3, 56, 64
5, 416252, Note_off_c, 3, 44, 64
5, 416252, Control_c, 3, 64, 127
5, 416256, Note_on_c, 3, 57, 85
5, 416256, Note_on_c, 3, 45, 85
5, 417404, Note_off_c, 3, 57, 64
5, 417404, Note_off_c, 3, 45, 64
5, 417404, Control_c, 3, 64, 0
5, 453120, Note_on_c, 3, 62, 92
5, 453120, Note_on_c, 3, 50, 92
5, 453500, Note_off_c, 3, 62, 64
5, 453500, Note_off_c, 3, 50, 64
5, 453504, Note_on_c, 3, 62, 92
5, 453504, Note_on_c, 3, 50, 92
5, 453884, Note_off_c, 3, 62, 64
5, 453884, Note_off_c, 3, 50, 64
5, 453888, Note_on_c, 3, 62, 92
5, 453888, Note_on_c, 3, 50, 92
5, 454268, Note_off_c, 3, 62, 64
5, 454268, Note_off_c, 3, 50, 64
5, 454272, Note_on_c, 3, 54, 92
5, 454460, Note_off_c, 3, 54, 64
5, 454464, Note_on_c, 3, 50, 92
5, 454652, Note_off_c, 3, 50, 64
5, 454656, Note_on_c, 3, 59, 92
5, 454656, Note_on_c, 3, 47, 92
5, 455036, Note_off_c, 3, 59, 64
5, 455036, Note_off_c, 3, 47, 64
5, 455040, Note_on_c, 3, 59, 92
5, 455040, Note_on_c, 3, 47, 92
5, 455420, Note_off_c, 3, 59, 64
5, 455420, Note_off_c, 3, 47, 64
5, 455424, Note_on_c, 3, 47, 92
5, 455424, Note_on_c, 3, 59, 92
5, 455804, Note_off_c, 3, 47, 64
5, 455804, Note_off_c, 3, 59, 64
5, 455808, Note_on_c, 3, 59, 92
5, 455808, Note_on_c, 3, 47, 92
5, 456188, Note_off_c, 3, 59, 64
5, 456188, Note_off_c, 3, 47, 64
5, 456192, Note_on_c, 3, 43, 92
5, 456572, Note_off_c, 3, 43, 64
5, 456576, Note_on_c, 3, 40, 92
5, 456956, Note_off_c, 3, 40, 64
5, 456960, Note_on_c, 3, 45, 92
5, 457340, Note_off_c, 3, 45, 64
5, 457344, Note_on_c, 3, 57, 92
5, 457344, Note_on_c, 3, 45, 92
5, 457724, Note_off_c, 3, 57, 64
5, 457724, Note_off_c, 3, 45, 64
5, 457728, Note_on_c, 3, 62, 92
5, 457728, Note_on_c, 3, 50, 92
5, 458108, Note_off_c, 3, 62, 64
5, 458108, Note_off_c, 3, 50, 64
5, 458112, Note_on_c, 3, 62, 92
5, 458112, Note_on_c, 3, 50, 92
5, 458492, Note_off_c, 3, 62, 64
5, 458492, Note_off_c, 3, 50, 64
5, 458496, Note_on_c, 3, 62, 92
5, 458496, Note_on_c, 3, 50, 92
5, 458876, Note_off_c, 3, 62, 64
5, 458876, Note_off_c, 3, 50, 64
5, 458880, Note_on_c, 3, 66, 92
5, 459068, Note_off_c, 3, 66, 64
5, 459072, Note_on_c, 3, 62, 92
5, 459260, Note_off_c, 3, 62, 64
5, 459264, Note_on_c, 3, 59, 92
5, 459264, Note_on_c, 3, 47, 92
5, 459644, Note_off_c, 3, 59, 64
5, 459644, Note_off_c, 3, 47, 64
5, 459648, Note_on_c, 3, 59, 92
5, 459648, Note_on_c, 3, 47, 92
5, 460028, Note_off_c, 3, 59, 64
5, 460028, Note_off_c, 3, 47, 64
5, 460032, Note_on_c, 3, 59, 92
5, 460032, Note_on_c, 3, 47, 92
5, 460412, Note_off_c, 3, 59, 64
5, 460412, Note_off_c, 3, 47, 64
5, 460416, Note_on_c, 3, 62, 92
5, 460604, Note_off_c, 3, 62, 64
5, 460608, Note_on_c, 3, 59, 92
5, 460796, Note_off_c, 3, 59, 64
5, 460800, Note_on_c, 3, 55, 92
5, 461180, Note_off_c, 3, 55, 64
5, 461184, Note_on_c, 3, 52, 92
5, 461184, Note_on_c, 3, 40, 92
5, 461564, Note_off_c, 3, 52, 64
5, 461564, Note_off_c, 3, 40, 64
5, 461568, Note_on_c, 3, 57, 92
5, 461568, Note_on_c, 3, 45, 92
5, 461948, Note_off_c, 3, 57, 64
5, 461948, Note_off_c, 3, 45, 64
5, 461952, Note_on_c, 3, 45, 92
5, 461952, Note_on_c, 3, 33, 92
5, 462332, Note_off_c, 3, 45, 64
5, 462332, Note_off_c, 3, 33, 64
5, 462336, Note_on_c, 3, 50, 95
5, 462336, Note_on_c, 3, 38, 95
5, 462716, Note_off_c, 3, 50, 64
5, 462716, Note_off_c, 3, 38, 64
5, 463104, Note_on_c, 3, 45, 95
5, 463104, Note_on_c, 3, 33, 95
5, 463484, Note_off_c, 3, 45, 64
5, 463484, Note_off_c, 3, 33, 64
5, 463872, Note_on_c, 3, 50, 95
5, 463872, Note_on_c, 3, 38, 95
5, 464252, Note_off_c, 3, 50, 64
5, 464252, Note_off_c, 3, 38, 64
5, 464640, Note_on_c, 3, 57, 95
5, 464640, Note_on_c, 3, 45, 95
5, 465020, Note_off_c, 3, 57, 64
5, 465020, Note_off_c, 3, 45, 64
5, 465408, Note_on_c, 3, 50, 95
5, 465408, Note_on_c, 3, 38, 95
5, 466172, Note_off_c, 3, 50, 64
5, 466172, Note_off_c, 3, 38, 64
5, 466172, End_track
0, 0, End_of_file
