0, 0, Header, 1, 6, 384
1, 0, Start_track
1, 0, Sequencer_specific, 3, 0, 0, 65
1, 0, Time_signature, 3, 2, 24, 8
1, 0, Key_signature, 0, "major"
1, 0, Tempo, 468750
1, 18048, Tempo, 500000
1, 18432, Tempo, 468750
1, 43776, Tempo, 526316
1, 45696, Tempo, 600000
1, 46080, Tempo, 468750
1, 62976, Tempo, 500000
1, 63360, Tempo, 468750
1, 67584, Tempo, 500000
1, 67968, Tempo, 468750
1, 77184, Tempo, 500000
1, 77568, Tempo, 468750
1, 79488, Tempo, 500000
1, 79872, Tempo, 468750
1, 85632, Tempo, 500000
1, 86400, Tempo, 468750
1, 101376, Tempo, 545455
1, 103296, Tempo, 468750
1, 120576, Tempo, 500000
1, 120960, Tempo, 468750
1, 130944, Tempo, 500000
1, 131328, Tempo, 468750
1, 132864, Tempo, 500000
1, 133632, Tempo, 468750
1, 135168, Tempo, 500000
1, 135936, Tempo, 468750
1, 140544, Tempo, 500000
1, 140928, Tempo, 468750
1, 148992, Tempo, 500000
1, 149760, Tempo, 468750
1, 161280, Tempo, 545455
1, 162432, Tempo, 666667
1, 163200, Tempo, 468750
1, 165888, Tempo, 500000
1, 168192, Tempo, 468750
1, 170496, Tempo, 500000
1, 173952, Tempo, 468750
1, 178560, Tempo, 566038
1, 179712, Tempo, 416667
1, 188928, Tempo, 500000
1, 191808, Tempo, 857143
1, 193536, Tempo, 468750
1, 201600, Time_signature, 4, 2, 24, 8
1, 203136, Time_signature, 3, 2, 24, 8
1, 205440, Tempo, 600000
1, 205824, Tempo, 468750
1, 208896, Tempo, 500000
1, 210048, Tempo, 468750
1, 235008, Tempo, 500000
1, 235776, Tempo, 468750
1, 238848, Tempo, 500000
1, 240000, Tempo, 468750
1, 247680, Tempo, 500000
1, 248064, Tempo, 468750
1, 248832, Tempo, 500000
1, 249984, Tempo, 500000
1, 250368, Tempo, 468750
1, 250752, Tempo, 540541
1, 250752, End_track
2, 0, Start_track
2, 0, MIDI_port, 0
2, 0, Title_t, "Mozart - Violin"
2, 0, Control_c, 0, 0, 0
2, 0, Control_c, 0, 32, 0
2, 0, Program_c, 0, 40
2, 0, Control_c, 0, 7, 127
2, 0, Control_c, 0, 10, 63
2, 0, Control_c, 0, 91, 67
2, 0, Control_c, 0, 93, 36
2, 0, Control_c, 0, 121, 0
2, 192, Control_c, 0, 10, 63
2, 384, Control_c, 0, 91, 73
2, 480, Control_c, 0, 93, 35
2, 576, Program_c, 0, 40
2, 672, Control_c, 0, 1, 55
2, 1152, Note_on_c, 0, 78, 65
2, 1728, Note_on_c, 0, 78, 0
2, 1728, Note_on_c, 0, 79, 65
2, 1916, Note_on_c, 0, 79, 0
2, 1920, Note_on_c, 0, 80, 65
2, 2108, Note_on_c, 0, 80, 0
2, 2112, Note_on_c, 0, 81, 65
2, 2296, Note_on_c, 0, 81, 0
2, 2304, Note_on_c, 0, 83, 65
2, 2496, Note_on_c, 0, 83, 0
2, 2496, Note_on_c, 0, 81, 65
2, 2680, Note_on_c, 0, 81, 0
2, 2688, Note_on_c, 0, 79, 65
2, 2788, Note_on_c, 0, 79, 0
2, 2880, Note_on_c, 0, 78, 65
2, 2980, Note_on_c, 0, 78, 0
2, 3072, Note_on_c, 0, 76, 65
2, 3172, Note_on_c, 0, 76, 0
2, 3264, Note_on_c, 0, 74, 65
2, 3364, Note_on_c, 0, 74, 0
2, 3456, Note_on_c, 0, 76, 65
2, 3644, Note_on_c, 0, 76, 0
2, 3840, Note_on_c, 0, 76, 65
2, 4032, Note_on_c, 0, 76, 0
2, 4224, Note_on_c, 0, 78, 65
2, 4408, Note_on_c, 0, 78, 0
2, 4608, Note_on_c, 0, 78, 65
2, 4896, Note_on_c, 0, 78, 0
2, 4896, Note_on_c, 0, 79, 65
2, 4976, Note_on_c, 0, 79, 0
2, 4992, Note_on_c, 0, 76, 65
2, 5180, Note_on_c, 0, 76, 0
2, 5760, Note_on_c, 0, 74, 65
2, 5952, Note_on_c, 0, 74, 0
2, 5952, Note_on_c, 0, 76, 65
2, 6140, Note_on_c, 0, 76, 0
2, 6144, Note_on_c, 0, 78, 65
2, 6332, Note_on_c, 0, 78, 0
2, 6336, Note_on_c, 0, 74, 65
2, 6524, Note_on_c, 0, 74, 0
2, 6528, Note_on_c, 0, 73, 65
2, 6716, Note_on_c, 0, 73, 0
2, 6720, Note_on_c, 0, 69, 65
2, 6900, Note_on_c, 0, 69, 0
2, 6912, Note_on_c, 0, 74, 65
2, 7104, Note_on_c, 0, 74, 0
2, 7104, Note_on_c, 0, 76, 65
2, 7292, Note_on_c, 0, 76, 0
2, 7296, Note_on_c, 0, 78, 65
2, 7484, Note_on_c, 0, 78, 0
2, 7488, Note_on_c, 0, 74, 65
2, 7676, Note_on_c, 0, 74, 0
2, 7680, Note_on_c, 0, 73, 65
2, 7868, Note_on_c, 0, 73, 0
2, 7872, Note_on_c, 0, 69, 65
2, 8052, Note_on_c, 0, 69, 0
2, 8064, Note_on_c, 0, 74, 65
2, 8256, Note_on_c, 0, 74, 0
2, 8256, Note_on_c, 0, 78, 65
2, 8436, Note_on_c, 0, 78, 0
2, 8448, Note_on_c, 0, 81, 65
2, 8640, Note_on_c, 0, 81, 0
2, 8640, Note_on_c, 0, 78, 65
2, 8820, Note_on_c, 0, 78, 0
2, 8832, Note_on_c, 0, 83, 65
2, 9024, Note_on_c, 0, 83, 0
2, 9024, Note_on_c, 0, 79, 65
2, 9204, Note_on_c, 0, 79, 0
2, 9216, Note_on_c, 0, 78, 65
2, 9984, Note_on_c, 0, 78, 0
2, 9984, Note_on_c, 0, 76, 65
2, 10356, Note_on_c, 0, 76, 0
2, 19584, Note_on_c, 0, 78, 85
2, 20348, Note_on_c, 0, 78, 0
2, 20352, Note_on_c, 0, 79, 85
2, 20440, Note_on_c, 0, 79, 0
2, 20448, Note_on_c, 0, 78, 85
2, 20536, Note_on_c, 0, 78, 0
2, 20544, Note_on_c, 0, 76, 85
2, 20632, Note_on_c, 0, 76, 0
2, 20640, Note_on_c, 0, 74, 85
2, 20728, Note_on_c, 0, 74, 0
2, 20736, Note_on_c, 0, 81, 85
2, 20928, Note_on_c, 0, 81, 0
2, 20928, Note_on_c, 0, 79, 85
2, 21108, Note_on_c, 0, 79, 0
2, 21312, Note_on_c, 0, 79, 85
2, 21412, Note_on_c, 0, 79, 0
2, 21504, Note_on_c, 0, 79, 85
2, 21604, Note_on_c, 0, 79, 0
2, 21696, Note_on_c, 0, 79, 85
2, 21796, Note_on_c, 0, 79, 0
2, 21888, Note_on_c, 0, 77, 85
2, 22080, Note_on_c, 0, 77, 0
2, 22080, Note_on_c, 0, 78, 85
2, 22260, Note_on_c, 0, 78, 0
2, 22464, Note_on_c, 0, 78, 85
2, 22652, Note_on_c, 0, 78, 0
2, 22656, Note_on_c, 0, 79, 65
2, 22752, Note_on_c, 0, 78, 65
2, 22756, Note_on_c, 0, 79, 0
2, 22844, Note_on_c, 0, 78, 0
2, 22848, Note_on_c, 0, 76, 65
2, 22940, Note_on_c, 0, 76, 0
2, 22944, Note_on_c, 0, 74, 65
2, 23024, Note_on_c, 0, 74, 0
2, 23040, Note_on_c, 0, 81, 65
2, 23232, Note_on_c, 0, 81, 0
2, 23232, Note_on_c, 0, 79, 65
2, 23412, Note_on_c, 0, 79, 0
2, 23616, Note_on_c, 0, 79, 65
2, 23716, Note_on_c, 0, 79, 0
2, 23808, Note_on_c, 0, 79, 65
2, 23908, Note_on_c, 0, 79, 0
2, 24000, Note_on_c, 0, 79, 65
2, 24100, Note_on_c, 0, 79, 0
2, 24192, Note_on_c, 0, 78, 66
2, 24316, Note_on_c, 0, 78, 0
2, 24320, Note_on_c, 0, 81, 67
2, 24444, Note_on_c, 0, 81, 0
2, 24448, Note_on_c, 0, 79, 68
2, 24572, Note_on_c, 0, 79, 0
2, 24576, Note_on_c, 0, 78, 74
2, 24632, Note_on_c, 0, 78, 0
2, 24640, Note_on_c, 0, 79, 74
2, 24696, Note_on_c, 0, 79, 0
2, 24704, Note_on_c, 0, 76, 70
2, 24824, Note_on_c, 0, 76, 0
2, 24832, Note_on_c, 0, 78, 71
2, 24952, Note_on_c, 0, 78, 0
2, 24960, Note_on_c, 0, 80, 72
2, 25084, Note_on_c, 0, 80, 0
2, 25088, Note_on_c, 0, 81, 73
2, 25212, Note_on_c, 0, 81, 0
2, 25216, Note_on_c, 0, 83, 74
2, 25340, Note_on_c, 0, 83, 0
2, 25344, Note_on_c, 0, 81, 76
2, 25468, Note_on_c, 0, 81, 0
2, 25472, Note_on_c, 0, 85, 77
2, 25596, Note_on_c, 0, 85, 0
2, 25600, Note_on_c, 0, 83, 78
2, 25724, Note_on_c, 0, 83, 0
2, 25728, Note_on_c, 0, 81, 84
2, 25784, Note_on_c, 0, 81, 0
2, 25792, Note_on_c, 0, 83, 84
2, 25848, Note_on_c, 0, 83, 0
2, 25856, Note_on_c, 0, 80, 80
2, 25976, Note_on_c, 0, 80, 0
2, 25984, Note_on_c, 0, 81, 81
2, 26104, Note_on_c, 0, 81, 0
2, 26112, Note_on_c, 0, 83, 82
2, 26236, Note_on_c, 0, 83, 0
2, 26240, Note_on_c, 0, 85, 83
2, 26364, Note_on_c, 0, 85, 0
2, 26368, Note_on_c, 0, 86, 84
2, 26492, Note_on_c, 0, 86, 0
2, 26496, Note_on_c, 0, 85, 85
2, 26620, Note_on_c, 0, 85, 0
2, 26624, Note_on_c, 0, 86, 85
2, 26748, Note_on_c, 0, 86, 0
2, 26752, Note_on_c, 0, 88, 85
2, 26876, Note_on_c, 0, 88, 0
2, 26880, Note_on_c, 0, 88, 85
2, 27008, Note_on_c, 0, 88, 0
2, 27008, Note_on_c, 0, 86, 85
2, 27124, Note_on_c, 0, 86, 0
2, 27136, Note_on_c, 0, 85, 85
2, 27200, Note_on_c, 0, 85, 0
2, 27264, Note_on_c, 0, 85, 85
2, 27392, Note_on_c, 0, 85, 0
2, 27392, Note_on_c, 0, 83, 85
2, 27508, Note_on_c, 0, 83, 0
2, 27520, Note_on_c, 0, 81, 85
2, 27584, Note_on_c, 0, 81, 0
2, 27648, Note_on_c, 0, 81, 85
2, 27744, Note_on_c, 0, 81, 0
2, 27744, Note_on_c, 0, 79, 85
2, 27836, Note_on_c, 0, 79, 0
2, 27840, Note_on_c, 0, 78, 85
2, 27932, Note_on_c, 0, 78, 0
2, 27936, Note_on_c, 0, 76, 85
2, 28016, Note_on_c, 0, 76, 0
2, 28032, Note_on_c, 0, 76, 85
2, 28412, Note_on_c, 0, 76, 0
2, 28800, Note_on_c, 0, 76, 65
2, 28928, Note_on_c, 0, 76, 0
2, 28928, Note_on_c, 0, 83, 65
2, 29052, Note_on_c, 0, 83, 0
2, 29056, Note_on_c, 0, 86, 65
2, 29168, Note_on_c, 0, 86, 0
2, 29184, Note_on_c, 0, 86, 65
2, 29948, Note_on_c, 0, 86, 0
2, 29952, Note_on_c, 0, 85, 65
2, 30080, Note_on_c, 0, 85, 0
2, 30080, Note_on_c, 0, 81, 65
2, 30204, Note_on_c, 0, 81, 0
2, 30208, Note_on_c, 0, 76, 65
2, 30320, Note_on_c, 0, 76, 0
2, 30336, Note_on_c, 0, 76, 65
2, 31100, Note_on_c, 0, 76, 0
2, 31104, Note_on_c, 0, 76, 65
2, 31232, Note_on_c, 0, 76, 0
2, 31232, Note_on_c, 0, 83, 65
2, 31356, Note_on_c, 0, 83, 0
2, 31360, Note_on_c, 0, 86, 65
2, 31472, Note_on_c, 0, 86, 0
2, 31488, Note_on_c, 0, 86, 65
2, 31552, Note_on_c, 0, 86, 0
2, 31616, Note_on_c, 0, 86, 65
2, 31680, Note_on_c, 0, 86, 0
2, 31744, Note_on_c, 0, 86, 65
2, 31808, Note_on_c, 0, 86, 0
2, 31872, Note_on_c, 0, 86, 65
2, 31936, Note_on_c, 0, 86, 0
2, 32000, Note_on_c, 0, 86, 65
2, 32064, Note_on_c, 0, 86, 0
2, 32128, Note_on_c, 0, 86, 65
2, 32192, Note_on_c, 0, 86, 0
2, 32256, Note_on_c, 0, 86, 65
2, 32384, Note_on_c, 0, 86, 0
2, 32384, Note_on_c, 0, 81, 65
2, 32508, Note_on_c, 0, 81, 0
2, 32512, Note_on_c, 0, 76, 65
2, 32624, Note_on_c, 0, 76, 0
2, 32640, Note_on_c, 0, 76, 65
2, 32704, Note_on_c, 0, 76, 0
2, 32768, Note_on_c, 0, 76, 65
2, 32832, Note_on_c, 0, 76, 0
2, 32896, Note_on_c, 0, 76, 65
2, 32960, Note_on_c, 0, 76, 0
2, 33024, Note_on_c, 0, 76, 65
2, 33088, Note_on_c, 0, 76, 0
2, 33152, Note_on_c, 0, 76, 65
2, 33216, Note_on_c, 0, 76, 0
2, 33280, Note_on_c, 0, 76, 65
2, 33344, Note_on_c, 0, 76, 0
2, 33408, Note_on_c, 0, 78, 85
2, 33536, Note_on_c, 0, 78, 0
2, 33536, Note_on_c, 0, 81, 85
2, 33660, Note_on_c, 0, 81, 0
2, 33664, Note_on_c, 0, 80, 85
2, 33788, Note_on_c, 0, 80, 0
2, 33792, Note_on_c, 0, 81, 85
2, 33904, Note_on_c, 0, 81, 0
2, 33920, Note_on_c, 0, 80, 85
2, 34048, Note_on_c, 0, 80, 0
2, 34048, Note_on_c, 0, 78, 85
2, 34176, Note_on_c, 0, 78, 0
2, 34176, Note_on_c, 0, 76, 85
2, 34556, Note_on_c, 0, 76, 0
2, 34560, Note_on_c, 0, 74, 85
2, 34688, Note_on_c, 0, 74, 0
2, 34688, Note_on_c, 0, 78, 85
2, 34812, Note_on_c, 0, 78, 0
2, 34816, Note_on_c, 0, 76, 85
2, 34940, Note_on_c, 0, 76, 0
2, 34944, Note_on_c, 0, 78, 85
2, 35060, Note_on_c, 0, 78, 0
2, 35072, Note_on_c, 0, 76, 85
2, 35200, Note_on_c, 0, 76, 0
2, 35200, Note_on_c, 0, 74, 85
2, 35328, Note_on_c, 0, 74, 0
2, 35328, Note_on_c, 0, 73, 85
2, 35708, Note_on_c, 0, 73, 0
2, 35712, Note_on_c, 0, 73, 85
2, 35804, Note_on_c, 0, 73, 0
2, 35808, Note_on_c, 0, 71, 85
2, 35900, Note_on_c, 0, 71, 0
2, 35904, Note_on_c, 0, 74, 85
2, 35996, Note_on_c, 0, 74, 0
2, 36000, Note_on_c, 0, 71, 85
2, 36092, Note_on_c, 0, 71, 0
2, 36096, Note_on_c, 0, 69, 85
2, 36476, Note_on_c, 0, 69, 0
2, 36480, Note_on_c, 0, 71, 85
2, 36860, Note_on_c, 0, 71, 0
2, 36864, Note_on_c, 0, 71, 85
2, 37436, Note_on_c, 0, 71, 0
2, 37440, Note_on_c, 0, 72, 85
2, 37628, Note_on_c, 0, 72, 0
2, 37632, Note_on_c, 0, 73, 85
2, 38012, Note_on_c, 0, 73, 0
2, 38016, Note_on_c, 0, 78, 85
2, 38144, Note_on_c, 0, 78, 0
2, 38144, Note_on_c, 0, 81, 85
2, 38268, Note_on_c, 0, 81, 0
2, 38272, Note_on_c, 0, 80, 85
2, 38396, Note_on_c, 0, 80, 0
2, 38400, Note_on_c, 0, 81, 85
2, 38516, Note_on_c, 0, 81, 0
2, 38528, Note_on_c, 0, 80, 85
2, 38656, Note_on_c, 0, 80, 0
2, 38656, Note_on_c, 0, 78, 85
2, 38784, Note_on_c, 0, 78, 0
2, 38784, Note_on_c, 0, 76, 85
2, 38912, Note_on_c, 0, 76, 0
2, 38912, Note_on_c, 0, 74, 85
2, 39040, Note_on_c, 0, 74, 0
2, 39040, Note_on_c, 0, 73, 85
2, 39168, Note_on_c, 0, 73, 0
2, 39168, Note_on_c, 0, 74, 85
2, 39296, Note_on_c, 0, 74, 0
2, 39296, Note_on_c, 0, 78, 85
2, 39420, Note_on_c, 0, 78, 0
2, 39424, Note_on_c, 0, 76, 85
2, 39548, Note_on_c, 0, 76, 0
2, 39552, Note_on_c, 0, 74, 85
2, 39668, Note_on_c, 0, 74, 0
2, 39680, Note_on_c, 0, 73, 85
2, 39808, Note_on_c, 0, 73, 0
2, 39808, Note_on_c, 0, 71, 85
2, 39936, Note_on_c, 0, 71, 0
2, 39936, Note_on_c, 0, 73, 85
2, 40064, Note_on_c, 0, 73, 0
2, 40064, Note_on_c, 0, 74, 85
2, 40192, Note_on_c, 0, 74, 0
2, 40192, Note_on_c, 0, 76, 85
2, 40320, Note_on_c, 0, 76, 0
2, 40320, Note_on_c, 0, 78, 85
2, 40448, Note_on_c, 0, 78, 0
2, 40448, Note_on_c, 0, 80, 85
2, 40564, Note_on_c, 0, 80, 0
2, 40576, Note_on_c, 0, 81, 85
2, 40636, Note_on_c, 0, 81, 0
2, 40704, Note_on_c, 0, 81, 95
2, 40800, Note_on_c, 0, 81, 0
2, 40800, Note_on_c, 0, 80, 85
2, 40892, Note_on_c, 0, 80, 0
2, 40896, Note_on_c, 0, 78, 85
2, 40988, Note_on_c, 0, 78, 0
2, 40992, Note_on_c, 0, 76, 85
2, 41072, Note_on_c, 0, 76, 0
2, 41088, Note_on_c, 0, 76, 95
2, 41184, Note_on_c, 0, 76, 0
2, 41184, Note_on_c, 0, 74, 85
2, 41276, Note_on_c, 0, 74, 0
2, 41280, Note_on_c, 0, 73, 85
2, 41372, Note_on_c, 0, 73, 0
2, 41376, Note_on_c, 0, 71, 85
2, 41456, Note_on_c, 0, 71, 0
2, 41472, Note_on_c, 0, 71, 92
2, 41552, Note_on_c, 0, 71, 0
2, 41568, Note_on_c, 0, 69, 96
2, 42044, Note_on_c, 0, 69, 0
2, 42048, Note_on_c, 0, 71, 85
2, 42144, Note_on_c, 0, 71, 0
2, 42144, Note_on_c, 0, 73, 85
2, 42236, Note_on_c, 0, 73, 0
2, 42240, Note_on_c, 0, 76, 85
2, 42332, Note_on_c, 0, 76, 0
2, 42336, Note_on_c, 0, 74, 85
2, 42428, Note_on_c, 0, 74, 0
2, 42432, Note_on_c, 0, 73, 85
2, 42524, Note_on_c, 0, 73, 0
2, 42528, Note_on_c, 0, 71, 85
2, 42608, Note_on_c, 0, 71, 0
2, 42624, Note_on_c, 0, 71, 92
2, 42704, Note_on_c, 0, 71, 0
2, 42720, Note_on_c, 0, 69, 96
2, 43196, Note_on_c, 0, 69, 0
2, 43200, Note_on_c, 0, 71, 85
2, 43296, Note_on_c, 0, 71, 0
2, 43296, Note_on_c, 0, 73, 85
2, 43388, Note_on_c, 0, 73, 0
2, 43392, Note_on_c, 0, 76, 85
2, 43484, Note_on_c, 0, 76, 0
2, 43488, Note_on_c, 0, 74, 85
2, 43580, Note_on_c, 0, 74, 0
2, 43584, Note_on_c, 0, 73, 85
2, 43676, Note_on_c, 0, 73, 0
2, 43680, Note_on_c, 0, 71, 85
2, 43760, Note_on_c, 0, 71, 0
2, 43776, Note_on_c, 0, 71, 92
2, 43864, Note_on_c, 0, 71, 0
2, 43872, Note_on_c, 0, 69, 85
2, 44160, Note_on_c, 0, 69, 80
2, 44164, Note_on_c, 0, 69, 0
2, 44540, Note_on_c, 0, 69, 0
2, 44544, Note_on_c, 0, 69, 75
2, 44924, Note_on_c, 0, 69, 0
2, 44928, Note_on_c, 0, 69, 70
2, 44976, Note_on_c, 0, 69, 0
2, 44976, Note_on_c, 0, 71, 70
2, 45020, Note_on_c, 0, 71, 0
2, 45024, Note_on_c, 0, 69, 70
2, 45068, Note_on_c, 0, 69, 0
2, 45072, Note_on_c, 0, 71, 70
2, 45116, Note_on_c, 0, 71, 0
2, 45120, Note_on_c, 0, 69, 70
2, 45164, Note_on_c, 0, 69, 0
2, 45168, Note_on_c, 0, 71, 70
2, 45212, Note_on_c, 0, 71, 0
2, 45216, Note_on_c, 0, 69, 70
2, 45260, Note_on_c, 0, 69, 0
2, 45264, Note_on_c, 0, 71, 70
2, 45308, Note_on_c, 0, 71, 0
2, 45312, Note_on_c, 0, 69, 70
2, 45356, Note_on_c, 0, 69, 0
2, 45360, Note_on_c, 0, 71, 70
2, 45404, Note_on_c, 0, 71, 0
2, 45408, Note_on_c, 0, 69, 70
2, 45452, Note_on_c, 0, 69, 0
2, 45456, Note_on_c, 0, 71, 70
2, 45500, Note_on_c, 0, 71, 0
2, 45504, Note_on_c, 0, 69, 70
2, 45548, Note_on_c, 0, 69, 0
2, 45552, Note_on_c, 0, 71, 70
2, 45596, Note_on_c, 0, 71, 0
2, 45600, Note_on_c, 0, 69, 70
2, 45644, Note_on_c, 0, 69, 0
2, 45648, Note_on_c, 0, 71, 70
2, 45692, Note_on_c, 0, 71, 0
2, 45696, Note_on_c, 0, 68, 66
2, 45788, Note_on_c, 0, 68, 0
2, 45792, Note_on_c, 0, 69, 66
2, 45884, Note_on_c, 0, 69, 0
2, 45888, Note_on_c, 0, 71, 66
2, 45980, Note_on_c, 0, 71, 0
2, 45984, Note_on_c, 0, 69, 66
2, 46064, Note_on_c, 0, 69, 0
2, 46080, Note_on_c, 0, 78, 65
2, 46656, Note_on_c, 0, 78, 0
2, 46656, Note_on_c, 0, 79, 65
2, 46844, Note_on_c, 0, 79, 0
2, 46848, Note_on_c, 0, 80, 65
2, 47036, Note_on_c, 0, 80, 0
2, 47040, Note_on_c, 0, 81, 65
2, 47220, Note_on_c, 0, 81, 0
2, 47232, Note_on_c, 0, 83, 65
2, 47424, Note_on_c, 0, 83, 0
2, 47424, Note_on_c, 0, 81, 65
2, 47604, Note_on_c, 0, 81, 0
2, 47616, Note_on_c, 0, 79, 65
2, 47716, Note_on_c, 0, 79, 0
2, 47808, Note_on_c, 0, 78, 65
2, 47908, Note_on_c, 0, 78, 0
2, 48000, Note_on_c, 0, 76, 65
2, 48100, Note_on_c, 0, 76, 0
2, 48192, Note_on_c, 0, 74, 65
2, 48292, Note_on_c, 0, 74, 0
2, 48384, Note_on_c, 0, 76, 65
2, 48572, Note_on_c, 0, 76, 0
2, 48768, Note_on_c, 0, 76, 65
2, 48960, Note_on_c, 0, 76, 0
2, 49152, Note_on_c, 0, 78, 65
2, 49524, Note_on_c, 0, 78, 0
2, 49536, Note_on_c, 0, 78, 65
2, 49824, Note_on_c, 0, 78, 0
2, 49824, Note_on_c, 0, 79, 65
2, 49904, Note_on_c, 0, 79, 0
2, 49920, Note_on_c, 0, 76, 65
2, 50300, Note_on_c, 0, 76, 0
2, 50688, Note_on_c, 0, 74, 65
2, 50876, Note_on_c, 0, 74, 0
2, 50880, Note_on_c, 0, 76, 65
2, 51068, Note_on_c, 0, 76, 0
2, 51072, Note_on_c, 0, 78, 65
2, 51260, Note_on_c, 0, 78, 0
2, 51264, Note_on_c, 0, 74, 65
2, 51452, Note_on_c, 0, 74, 0
2, 51456, Note_on_c, 0, 73, 65
2, 51644, Note_on_c, 0, 73, 0
2, 51648, Note_on_c, 0, 69, 65
2, 51836, Note_on_c, 0, 69, 0
2, 51840, Note_on_c, 0, 74, 65
2, 52028, Note_on_c, 0, 74, 0
2, 52032, Note_on_c, 0, 76, 65
2, 52220, Note_on_c, 0, 76, 0
2, 52224, Note_on_c, 0, 78, 65
2, 52412, Note_on_c, 0, 78, 0
2, 52416, Note_on_c, 0, 74, 65
2, 52604, Note_on_c, 0, 74, 0
2, 52608, Note_on_c, 0, 73, 65
2, 52796, Note_on_c, 0, 73, 0
2, 52800, Note_on_c, 0, 69, 65
2, 52988, Note_on_c, 0, 69, 0
2, 52992, Note_on_c, 0, 74, 65
2, 53180, Note_on_c, 0, 74, 0
2, 53184, Note_on_c, 0, 78, 65
2, 53372, Note_on_c, 0, 78, 0
2, 53376, Note_on_c, 0, 81, 65
2, 53564, Note_on_c, 0, 81, 0
2, 53568, Note_on_c, 0, 78, 65
2, 53756, Note_on_c, 0, 78, 0
2, 53760, Note_on_c, 0, 83, 65
2, 53948, Note_on_c, 0, 83, 0
2, 53952, Note_on_c, 0, 79, 65
2, 54140, Note_on_c, 0, 79, 0
2, 54144, Note_on_c, 0, 78, 65
2, 54908, Note_on_c, 0, 78, 0
2, 54912, Note_on_c, 0, 76, 65
2, 55292, Note_on_c, 0, 76, 0
2, 64512, Note_on_c, 0, 79, 95
2, 65660, Note_on_c, 0, 79, 0
2, 65664, Note_on_c, 0, 83, 95
2, 66812, Note_on_c, 0, 83, 0
2, 66816, Note_on_c, 0, 86, 95
2, 67580, Note_on_c, 0, 86, 0
2, 67584, Note_on_c, 0, 84, 85
2, 67676, Note_on_c, 0, 84, 0
2, 67680, Note_on_c, 0, 83, 85
2, 67772, Note_on_c, 0, 83, 0
2, 67776, Note_on_c, 0, 81, 85
2, 67868, Note_on_c, 0, 81, 0
2, 67872, Note_on_c, 0, 79, 85
2, 67964, Note_on_c, 0, 79, 0
2, 67968, Note_on_c, 0, 81, 85
2, 68008, Note_on_c, 0, 81, 0
2, 68016, Note_on_c, 0, 79, 85
2, 68056, Note_on_c, 0, 79, 0
2, 68064, Note_on_c, 0, 81, 85
2, 68104, Note_on_c, 0, 81, 0
2, 68112, Note_on_c, 0, 79, 85
2, 68152, Note_on_c, 0, 79, 0
2, 68160, Note_on_c, 0, 78, 85
2, 68348, Note_on_c, 0, 78, 0
2, 68352, Note_on_c, 0, 78, 85
2, 68732, Note_on_c, 0, 78, 0
2, 69120, Note_on_c, 0, 84, 85
2, 69220, Note_on_c, 0, 84, 0
2, 69312, Note_on_c, 0, 81, 85
2, 69412, Note_on_c, 0, 81, 0
2, 69504, Note_on_c, 0, 84, 85
2, 69604, Note_on_c, 0, 84, 0
2, 69696, Note_on_c, 0, 78, 85
2, 69796, Note_on_c, 0, 78, 0
2, 69888, Note_on_c, 0, 84, 85
2, 69988, Note_on_c, 0, 84, 0
2, 70080, Note_on_c, 0, 74, 85
2, 70180, Note_on_c, 0, 74, 0
2, 70272, Note_on_c, 0, 74, 95
2, 70844, Note_on_c, 0, 74, 0
2, 70848, Note_on_c, 0, 76, 85
2, 70944, Note_on_c, 0, 76, 0
2, 70944, Note_on_c, 0, 74, 85
2, 71024, Note_on_c, 0, 74, 0
2, 71040, Note_on_c, 0, 73, 85
2, 71088, Note_on_c, 0, 73, 0
2, 71136, Note_on_c, 0, 71, 85
2, 71184, Note_on_c, 0, 71, 0
2, 71232, Note_on_c, 0, 69, 85
2, 71280, Note_on_c, 0, 69, 0
2, 71328, Note_on_c, 0, 67, 85
2, 71376, Note_on_c, 0, 67, 0
2, 71424, Note_on_c, 0, 66, 85
2, 71524, Note_on_c, 0, 66, 0
2, 71616, Note_on_c, 0, 69, 85
2, 71808, Note_on_c, 0, 69, 0
2, 71808, Note_on_c, 0, 74, 85
2, 71988, Note_on_c, 0, 74, 0
2, 72000, Note_on_c, 0, 78, 85
2, 72192, Note_on_c, 0, 78, 0
2, 72192, Note_on_c, 0, 81, 85
2, 72372, Note_on_c, 0, 81, 0
2, 72384, Note_on_c, 0, 84, 85
2, 72484, Note_on_c, 0, 84, 0
2, 72576, Note_on_c, 0, 82, 85
2, 72768, Note_on_c, 0, 82, 0
2, 72768, Note_on_c, 0, 83, 85
2, 72948, Note_on_c, 0, 83, 0
2, 72960, Note_on_c, 0, 83, 85
2, 73148, Note_on_c, 0, 83, 0
2, 73728, Note_on_c, 0, 84, 85
2, 73828, Note_on_c, 0, 84, 0
2, 73920, Note_on_c, 0, 81, 85
2, 74020, Note_on_c, 0, 81, 0
2, 74112, Note_on_c, 0, 84, 85
2, 74212, Note_on_c, 0, 84, 0
2, 74304, Note_on_c, 0, 78, 85
2, 74404, Note_on_c, 0, 78, 0
2, 74496, Note_on_c, 0, 84, 85
2, 74596, Note_on_c, 0, 84, 0
2, 74688, Note_on_c, 0, 74, 85
2, 74788, Note_on_c, 0, 74, 0
2, 74880, Note_on_c, 0, 74, 95
2, 75452, Note_on_c, 0, 74, 0
2, 75456, Note_on_c, 0, 76, 85
2, 75552, Note_on_c, 0, 76, 0
2, 75552, Note_on_c, 0, 74, 85
2, 75632, Note_on_c, 0, 74, 0
2, 75648, Note_on_c, 0, 72, 85
2, 75744, Note_on_c, 0, 72, 0
2, 75744, Note_on_c, 0, 71, 85
2, 75840, Note_on_c, 0, 71, 0
2, 75840, Note_on_c, 0, 69, 85
2, 75936, Note_on_c, 0, 69, 0
2, 75936, Note_on_c, 0, 67, 85
2, 76032, Note_on_c, 0, 67, 0
2, 76032, Note_on_c, 0, 66, 85
2, 76128, Note_on_c, 0, 66, 0
2, 76128, Note_on_c, 0, 67, 85
2, 76208, Note_on_c, 0, 67, 0
2, 76224, Note_on_c, 0, 69, 85
2, 76320, Note_on_c, 0, 69, 0
2, 76320, Note_on_c, 0, 71, 85
2, 76416, Note_on_c, 0, 71, 0
2, 76416, Note_on_c, 0, 72, 85
2, 76512, Note_on_c, 0, 72, 0
2, 76512, Note_on_c, 0, 71, 85
2, 76592, Note_on_c, 0, 71, 0
2, 76608, Note_on_c, 0, 69, 85
2, 76704, Note_on_c, 0, 69, 0
2, 76704, Note_on_c, 0, 67, 85
2, 76800, Note_on_c, 0, 67, 0
2, 76800, Note_on_c, 0, 66, 85
2, 76896, Note_on_c, 0, 66, 0
2, 76896, Note_on_c, 0, 64, 85
2, 76992, Note_on_c, 0, 64, 0
2, 76992, Note_on_c, 0, 62, 85
2, 77088, Note_on_c, 0, 62, 0
2, 77088, Note_on_c, 0, 60, 85
2, 77184, Note_on_c, 0, 60, 0
2, 77184, Note_on_c, 0, 59, 85
2, 77476, Note_on_c, 0, 59, 0
2, 77568, Note_on_c, 0, 82, 72
2, 77648, Note_on_c, 0, 82, 0
2, 77664, Note_on_c, 0, 83, 65
2, 77948, Note_on_c, 0, 83, 0
2, 77952, Note_on_c, 0, 82, 72
2, 78032, Note_on_c, 0, 82, 0
2, 78048, Note_on_c, 0, 83, 65
2, 78332, Note_on_c, 0, 83, 0
2, 78336, Note_on_c, 0, 84, 72
2, 78416, Note_on_c, 0, 84, 0
2, 78432, Note_on_c, 0, 83, 65
2, 79100, Note_on_c, 0, 83, 0
2, 79104, Note_on_c, 0, 81, 65
2, 79200, Note_on_c, 0, 81, 0
2, 79200, Note_on_c, 0, 79, 65
2, 79288, Note_on_c, 0, 79, 0
2, 79296, Note_on_c, 0, 78, 65
2, 79384, Note_on_c, 0, 78, 0
2, 79392, Note_on_c, 0, 76, 65
2, 79472, Note_on_c, 0, 76, 0
2, 79488, Note_on_c, 0, 75, 65
2, 79780, Note_on_c, 0, 75, 0
2, 79872, Note_on_c, 0, 83, 72
2, 79952, Note_on_c, 0, 83, 0
2, 79968, Note_on_c, 0, 84, 65
2, 80252, Note_on_c, 0, 84, 0
2, 80256, Note_on_c, 0, 83, 72
2, 80336, Note_on_c, 0, 83, 0
2, 80352, Note_on_c, 0, 84, 65
2, 80636, Note_on_c, 0, 84, 0
2, 80640, Note_on_c, 0, 86, 72
2, 80720, Note_on_c, 0, 86, 0
2, 80736, Note_on_c, 0, 84, 65
2, 81404, Note_on_c, 0, 84, 0
2, 81408, Note_on_c, 0, 83, 65
2, 81504, Note_on_c, 0, 83, 0
2, 81504, Note_on_c, 0, 81, 65
2, 81592, Note_on_c, 0, 81, 0
2, 81600, Note_on_c, 0, 79, 65
2, 81688, Note_on_c, 0, 79, 0
2, 81696, Note_on_c, 0, 78, 65
2, 81776, Note_on_c, 0, 78, 0
2, 81792, Note_on_c, 0, 79, 65
2, 82172, Note_on_c, 0, 79, 0
2, 82560, Note_on_c, 0, 78, 65
2, 82656, Note_on_c, 0, 78, 0
2, 82656, Note_on_c, 0, 79, 65
2, 82748, Note_on_c, 0, 79, 0
2, 82752, Note_on_c, 0, 81, 65
2, 82844, Note_on_c, 0, 81, 0
2, 82848, Note_on_c, 0, 79, 65
2, 82928, Note_on_c, 0, 79, 0
2, 82944, Note_on_c, 0, 84, 65
2, 83324, Note_on_c, 0, 84, 0
2, 83712, Note_on_c, 0, 83, 67
2, 83808, Note_on_c, 0, 83, 0
2, 83808, Note_on_c, 0, 84, 67
2, 83896, Note_on_c, 0, 84, 0
2, 83904, Note_on_c, 0, 86, 68
2, 83992, Note_on_c, 0, 86, 0
2, 84000, Note_on_c, 0, 84, 69
2, 84080, Note_on_c, 0, 84, 0
2, 84096, Note_on_c, 0, 88, 70
2, 84476, Note_on_c, 0, 88, 0
2, 84864, Note_on_c, 0, 87, 78
2, 84960, Note_on_c, 0, 87, 0
2, 84960, Note_on_c, 0, 88, 79
2, 85048, Note_on_c, 0, 88, 0
2, 85056, Note_on_c, 0, 90, 80
2, 85144, Note_on_c, 0, 90, 0
2, 85152, Note_on_c, 0, 88, 81
2, 85232, Note_on_c, 0, 88, 0
2, 85248, Note_on_c, 0, 91, 82
2, 85628, Note_on_c, 0, 91, 0
2, 85632, Note_on_c, 0, 83, 85
2, 85676, Note_on_c, 0, 83, 0
2, 85680, Note_on_c, 0, 85, 85
2, 85724, Note_on_c, 0, 85, 0
2, 85728, Note_on_c, 0, 83, 85
2, 85772, Note_on_c, 0, 83, 0
2, 85776, Note_on_c, 0, 85, 85
2, 85820, Note_on_c, 0, 85, 0
2, 85824, Note_on_c, 0, 83, 85
2, 85872, Note_on_c, 0, 83, 0
2, 85872, Note_on_c, 0, 85, 85
2, 85920, Note_on_c, 0, 85, 0
2, 85920, Note_on_c, 0, 83, 85
2, 85968, Note_on_c, 0, 83, 0
2, 85968, Note_on_c, 0, 85, 85
2, 86016, Note_on_c, 0, 85, 0
2, 86016, Note_on_c, 0, 83, 85
2, 86064, Note_on_c, 0, 83, 0
2, 86064, Note_on_c, 0, 85, 85
2, 86112, Note_on_c, 0, 85, 0
2, 86112, Note_on_c, 0, 83, 85
2, 86160, Note_on_c, 0, 83, 0
2, 86160, Note_on_c, 0, 85, 85
2, 86208, Note_on_c, 0, 85, 0
2, 86208, Note_on_c, 0, 82, 85
2, 86304, Note_on_c, 0, 82, 0
2, 86304, Note_on_c, 0, 83, 85
2, 86400, Note_on_c, 0, 83, 0
2, 86400, Note_on_c, 0, 82, 65
2, 86592, Note_on_c, 0, 82, 0
2, 86592, Note_on_c, 0, 85, 65
2, 86960, Note_on_c, 0, 85, 0
2, 86976, Note_on_c, 0, 79, 65
2, 87168, Note_on_c, 0, 79, 0
2, 87168, Note_on_c, 0, 78, 65
2, 87356, Note_on_c, 0, 78, 0
2, 87360, Note_on_c, 0, 76, 65
2, 87540, Note_on_c, 0, 76, 0
2, 87552, Note_on_c, 0, 74, 85
2, 87680, Note_on_c, 0, 74, 0
2, 87680, Note_on_c, 0, 78, 85
2, 87800, Note_on_c, 0, 78, 0
2, 87808, Note_on_c, 0, 78, 85
2, 87872, Note_on_c, 0, 78, 0
2, 87936, Note_on_c, 0, 83, 85
2, 88064, Note_on_c, 0, 83, 0
2, 88064, Note_on_c, 0, 78, 85
2, 88184, Note_on_c, 0, 78, 0
2, 88192, Note_on_c, 0, 78, 85
2, 88256, Note_on_c, 0, 78, 0
2, 88320, Note_on_c, 0, 74, 85
2, 88448, Note_on_c, 0, 74, 0
2, 88448, Note_on_c, 0, 78, 85
2, 88568, Note_on_c, 0, 78, 0
2, 88576, Note_on_c, 0, 78, 85
2, 88640, Note_on_c, 0, 78, 0
2, 88704, Note_on_c, 0, 73, 85
2, 88832, Note_on_c, 0, 73, 0
2, 88832, Note_on_c, 0, 78, 85
2, 88952, Note_on_c, 0, 78, 0
2, 88960, Note_on_c, 0, 78, 85
2, 89024, Note_on_c, 0, 78, 0
2, 89088, Note_on_c, 0, 85, 85
2, 89216, Note_on_c, 0, 85, 0
2, 89216, Note_on_c, 0, 78, 85
2, 89336, Note_on_c, 0, 78, 0
2, 89344, Note_on_c, 0, 78, 85
2, 89408, Note_on_c, 0, 78, 0
2, 89472, Note_on_c, 0, 76, 85
2, 89600, Note_on_c, 0, 76, 0
2, 89600, Note_on_c, 0, 78, 85
2, 89720, Note_on_c, 0, 78, 0
2, 89728, Note_on_c, 0, 78, 85
2, 89792, Note_on_c, 0, 78, 0
2, 89856, Note_on_c, 0, 74, 65
2, 89984, Note_on_c, 0, 74, 0
2, 89984, Note_on_c, 0, 78, 65
2, 90104, Note_on_c, 0, 78, 0
2, 90112, Note_on_c, 0, 78, 65
2, 90176, Note_on_c, 0, 78, 0
2, 90240, Note_on_c, 0, 83, 65
2, 90368, Note_on_c, 0, 83, 0
2, 90368, Note_on_c, 0, 78, 65
2, 90488, Note_on_c, 0, 78, 0
2, 90496, Note_on_c, 0, 78, 65
2, 90560, Note_on_c, 0, 78, 0
2, 90624, Note_on_c, 0, 74, 65
2, 90752, Note_on_c, 0, 74, 0
2, 90752, Note_on_c, 0, 78, 65
2, 90872, Note_on_c, 0, 78, 0
2, 90880, Note_on_c, 0, 78, 65
2, 90944, Note_on_c, 0, 78, 0
2, 91008, Note_on_c, 0, 73, 65
2, 91136, Note_on_c, 0, 73, 0
2, 91136, Note_on_c, 0, 78, 65
2, 91256, Note_on_c, 0, 78, 0
2, 91264, Note_on_c, 0, 78, 65
2, 91328, Note_on_c, 0, 78, 0
2, 91392, Note_on_c, 0, 85, 65
2, 91520, Note_on_c, 0, 85, 0
2, 91520, Note_on_c, 0, 78, 65
2, 91640, Note_on_c, 0, 78, 0
2, 91648, Note_on_c, 0, 78, 65
2, 91712, Note_on_c, 0, 78, 0
2, 91776, Note_on_c, 0, 76, 65
2, 91904, Note_on_c, 0, 76, 0
2, 91904, Note_on_c, 0, 78, 65
2, 92024, Note_on_c, 0, 78, 0
2, 92032, Note_on_c, 0, 78, 65
2, 92096, Note_on_c, 0, 78, 0
2, 92160, Note_on_c, 0, 74, 85
2, 92288, Note_on_c, 0, 74, 0
2, 92288, Note_on_c, 0, 78, 85
2, 92412, Note_on_c, 0, 78, 0
2, 92416, Note_on_c, 0, 74, 85
2, 92536, Note_on_c, 0, 74, 0
2, 92544, Note_on_c, 0, 83, 95
2, 92672, Note_on_c, 0, 83, 0
2, 92672, Note_on_c, 0, 78, 85
2, 92800, Note_on_c, 0, 78, 0
2, 92800, Note_on_c, 0, 74, 85
2, 92928, Note_on_c, 0, 74, 0
2, 92928, Note_on_c, 0, 78, 85
2, 93056, Note_on_c, 0, 78, 0
2, 93056, Note_on_c, 0, 74, 85
2, 93184, Note_on_c, 0, 74, 0
2, 93184, Note_on_c, 0, 71, 85
2, 93312, Note_on_c, 0, 71, 0
2, 93312, Note_on_c, 0, 74, 85
2, 93440, Note_on_c, 0, 74, 0
2, 93440, Note_on_c, 0, 71, 85
2, 93568, Note_on_c, 0, 71, 0
2, 93568, Note_on_c, 0, 66, 85
2, 93696, Note_on_c, 0, 66, 0
2, 93696, Note_on_c, 0, 71, 85
2, 93824, Note_on_c, 0, 71, 0
2, 93824, Note_on_c, 0, 66, 85
2, 93952, Note_on_c, 0, 66, 0
2, 93952, Note_on_c, 0, 62, 85
2, 94080, Note_on_c, 0, 62, 0
2, 94080, Note_on_c, 0, 66, 85
2, 94208, Note_on_c, 0, 66, 0
2, 94208, Note_on_c, 0, 62, 86
2, 94336, Note_on_c, 0, 62, 0
2, 94336, Note_on_c, 0, 59, 87
2, 94464, Note_on_c, 0, 59, 0
2, 94464, Note_on_c, 0, 55, 88
2, 94844, Note_on_c, 0, 55, 0
2, 94848, Note_on_c, 0, 83, 95
2, 95612, Note_on_c, 0, 83, 0
2, 95616, Note_on_c, 0, 82, 85
2, 95988, Note_on_c, 0, 82, 0
2, 96000, Note_on_c, 0, 79, 85
2, 96384, Note_on_c, 0, 79, 0
2, 96384, Note_on_c, 0, 78, 85
2, 96752, Note_on_c, 0, 78, 0
2, 96768, Note_on_c, 0, 78, 85
2, 96960, Note_on_c, 0, 78, 0
2, 96960, Note_on_c, 0, 76, 85
2, 97148, Note_on_c, 0, 76, 0
2, 97152, Note_on_c, 0, 74, 85
2, 97532, Note_on_c, 0, 74, 0
2, 97536, Note_on_c, 0, 73, 85
2, 97908, Note_on_c, 0, 73, 0
2, 97920, Note_on_c, 0, 72, 95
2, 99068, Note_on_c, 0, 72, 0
2, 99072, Note_on_c, 0, 71, 95
2, 100220, Note_on_c, 0, 71, 0
2, 100224, Note_on_c, 0, 70, 67
2, 100608, Note_on_c, 0, 70, 0
2, 100608, Note_on_c, 0, 67, 70
2, 100988, Note_on_c, 0, 67, 0
2, 100992, Note_on_c, 0, 66, 73
2, 101364, Note_on_c, 0, 66, 0
2, 101376, Note_on_c, 0, 66, 76
2, 101568, Note_on_c, 0, 66, 0
2, 101568, Note_on_c, 0, 64, 78
2, 101748, Note_on_c, 0, 64, 0
2, 101760, Note_on_c, 0, 62, 79
2, 102144, Note_on_c, 0, 62, 0
2, 102144, Note_on_c, 0, 61, 82
2, 102516, Note_on_c, 0, 61, 0
2, 102528, Note_on_c, 0, 59, 90
2, 103288, Note_on_c, 0, 59, 0
2, 103680, Note_on_c, 0, 66, 65
2, 104256, Note_on_c, 0, 66, 0
2, 104256, Note_on_c, 0, 67, 65
2, 104444, Note_on_c, 0, 67, 0
2, 104448, Note_on_c, 0, 68, 65
2, 104636, Note_on_c, 0, 68, 0
2, 104640, Note_on_c, 0, 69, 65
2, 104820, Note_on_c, 0, 69, 0
2, 104832, Note_on_c, 0, 71, 65
2, 105024, Note_on_c, 0, 71, 0
2, 105024, Note_on_c, 0, 69, 65
2, 105204, Note_on_c, 0, 69, 0
2, 105216, Note_on_c, 0, 67, 65
2, 105316, Note_on_c, 0, 67, 0
2, 105408, Note_on_c, 0, 66, 65
2, 105508, Note_on_c, 0, 66, 0
2, 105600, Note_on_c, 0, 64, 65
2, 105700, Note_on_c, 0, 64, 0
2, 105792, Note_on_c, 0, 62, 65
2, 105892, Note_on_c, 0, 62, 0
2, 105984, Note_on_c, 0, 64, 65
2, 106172, Note_on_c, 0, 64, 0
2, 106368, Note_on_c, 0, 64, 65
2, 106560, Note_on_c, 0, 64, 0
2, 106752, Note_on_c, 0, 66, 65
2, 106932, Note_on_c, 0, 66, 0
2, 107136, Note_on_c, 0, 66, 65
2, 107424, Note_on_c, 0, 66, 0
2, 107424, Note_on_c, 0, 67, 65
2, 107504, Note_on_c, 0, 67, 0
2, 107520, Note_on_c, 0, 64, 65
2, 107708, Note_on_c, 0, 64, 0
2, 108288, Note_on_c, 0, 62, 65
2, 108480, Note_on_c, 0, 62, 0
2, 108480, Note_on_c, 0, 64, 65
2, 108660, Note_on_c, 0, 64, 0
2, 108672, Note_on_c, 0, 66, 65
2, 108852, Note_on_c, 0, 66, 0
2, 108864, Note_on_c, 0, 62, 65
2, 109044, Note_on_c, 0, 62, 0
2, 109056, Note_on_c, 0, 61, 65
2, 109236, Note_on_c, 0, 61, 0
2, 109248, Note_on_c, 0, 57, 65
2, 109420, Note_on_c, 0, 57, 0
2, 109440, Note_on_c, 0, 62, 65
2, 109632, Note_on_c, 0, 62, 0
2, 109632, Note_on_c, 0, 64, 65
2, 109812, Note_on_c, 0, 64, 0
2, 109824, Note_on_c, 0, 66, 65
2, 110016, Note_on_c, 0, 66, 0
2, 110016, Note_on_c, 0, 62, 65
2, 110196, Note_on_c, 0, 62, 0
2, 110208, Note_on_c, 0, 61, 65
2, 110400, Note_on_c, 0, 61, 0
2, 110400, Note_on_c, 0, 57, 65
2, 110580, Note_on_c, 0, 57, 0
2, 110592, Note_on_c, 0, 62, 65
2, 110784, Note_on_c, 0, 62, 0
2, 110784, Note_on_c, 0, 66, 65
2, 110964, Note_on_c, 0, 66, 0
2, 110976, Note_on_c, 0, 69, 65
2, 111156, Note_on_c, 0, 69, 0
2, 111168, Note_on_c, 0, 66, 65
2, 111340, Note_on_c, 0, 66, 0
2, 111360, Note_on_c, 0, 71, 65
2, 111552, Note_on_c, 0, 71, 0
2, 111552, Note_on_c, 0, 67, 65
2, 111732, Note_on_c, 0, 67, 0
2, 111744, Note_on_c, 0, 66, 65
2, 112512, Note_on_c, 0, 66, 0
2, 112512, Note_on_c, 0, 64, 65
2, 112884, Note_on_c, 0, 64, 0
2, 122112, Note_on_c, 0, 74, 85
2, 122876, Note_on_c, 0, 74, 0
2, 122880, Note_on_c, 0, 86, 85
2, 123260, Note_on_c, 0, 86, 0
2, 123264, Note_on_c, 0, 86, 85
2, 124028, Note_on_c, 0, 86, 0
2, 124032, Note_on_c, 0, 84, 85
2, 124120, Note_on_c, 0, 84, 0
2, 124128, Note_on_c, 0, 82, 85
2, 124216, Note_on_c, 0, 82, 0
2, 124224, Note_on_c, 0, 81, 85
2, 124312, Note_on_c, 0, 81, 0
2, 124320, Note_on_c, 0, 79, 85
2, 124408, Note_on_c, 0, 79, 0
2, 124416, Note_on_c, 0, 77, 85
2, 124796, Note_on_c, 0, 77, 0
2, 124800, Note_on_c, 0, 76, 85
2, 125180, Note_on_c, 0, 76, 0
2, 125184, Note_on_c, 0, 84, 85
2, 125468, Note_on_c, 0, 84, 0
2, 125472, Note_on_c, 0, 84, 85
2, 125564, Note_on_c, 0, 84, 0
2, 125568, Note_on_c, 0, 84, 95
2, 126332, Note_on_c, 0, 84, 0
2, 126336, Note_on_c, 0, 82, 85
2, 126428, Note_on_c, 0, 82, 0
2, 126432, Note_on_c, 0, 81, 85
2, 126524, Note_on_c, 0, 81, 0
2, 126528, Note_on_c, 0, 79, 85
2, 126620, Note_on_c, 0, 79, 0
2, 126624, Note_on_c, 0, 77, 85
2, 126716, Note_on_c, 0, 77, 0
2, 126720, Note_on_c, 0, 76, 85
2, 127100, Note_on_c, 0, 76, 0
2, 127104, Note_on_c, 0, 74, 85
2, 127484, Note_on_c, 0, 74, 0
2, 127488, Note_on_c, 0, 82, 85
2, 127772, Note_on_c, 0, 82, 0
2, 127776, Note_on_c, 0, 82, 85
2, 127868, Note_on_c, 0, 82, 0
2, 127872, Note_on_c, 0, 82, 95
2, 128636, Note_on_c, 0, 82, 0
2, 128640, Note_on_c, 0, 81, 85
2, 128728, Note_on_c, 0, 81, 0
2, 128736, Note_on_c, 0, 79, 85
2, 128824, Note_on_c, 0, 79, 0
2, 128832, Note_on_c, 0, 77, 85
2, 128920, Note_on_c, 0, 77, 0
2, 128928, Note_on_c, 0, 76, 85
2, 129016, Note_on_c, 0, 76, 0
2, 129024, Note_on_c, 0, 74, 85
2, 129408, Note_on_c, 0, 74, 0
2, 129408, Note_on_c, 0, 73, 85
2, 129780, Note_on_c, 0, 73, 0
2, 129792, Note_on_c, 0, 81, 85
2, 129980, Note_on_c, 0, 81, 0
2, 130176, Note_on_c, 0, 79, 85
2, 130944, Note_on_c, 0, 79, 0
2, 130944, Note_on_c, 0, 77, 85
2, 130988, Note_on_c, 0, 77, 0
2, 130992, Note_on_c, 0, 79, 85
2, 131036, Note_on_c, 0, 79, 0
2, 131040, Note_on_c, 0, 77, 85
2, 131084, Note_on_c, 0, 77, 0
2, 131088, Note_on_c, 0, 79, 85
2, 131132, Note_on_c, 0, 79, 0
2, 131136, Note_on_c, 0, 77, 85
2, 131180, Note_on_c, 0, 77, 0
2, 131184, Note_on_c, 0, 79, 85
2, 131228, Note_on_c, 0, 79, 0
2, 131232, Note_on_c, 0, 76, 85
2, 131276, Note_on_c, 0, 76, 0
2, 131280, Note_on_c, 0, 77, 85
2, 131324, Note_on_c, 0, 77, 0
2, 131328, Note_on_c, 0, 76, 85
2, 131508, Note_on_c, 0, 76, 0
2, 131520, Note_on_c, 0, 69, 83
2, 131712, Note_on_c, 0, 69, 0
2, 131712, Note_on_c, 0, 68, 82
2, 131900, Note_on_c, 0, 68, 0
2, 131904, Note_on_c, 0, 69, 80
2, 132092, Note_on_c, 0, 69, 0
2, 132096, Note_on_c, 0, 68, 79
2, 132284, Note_on_c, 0, 68, 0
2, 132288, Note_on_c, 0, 69, 77
2, 132468, Note_on_c, 0, 69, 0
2, 132480, Note_on_c, 0, 67, 76
2, 132860, Note_on_c, 0, 67, 0
2, 132864, Note_on_c, 0, 65, 72
2, 132908, Note_on_c, 0, 65, 0
2, 132912, Note_on_c, 0, 67, 72
2, 132956, Note_on_c, 0, 67, 0
2, 132960, Note_on_c, 0, 65, 72
2, 133004, Note_on_c, 0, 65, 0
2, 133008, Note_on_c, 0, 67, 71
2, 133052, Note_on_c, 0, 67, 0
2, 133056, Note_on_c, 0, 65, 71
2, 133100, Note_on_c, 0, 65, 0
2, 133104, Note_on_c, 0, 67, 70
2, 133148, Note_on_c, 0, 67, 0
2, 133152, Note_on_c, 0, 65, 70
2, 133196, Note_on_c, 0, 65, 0
2, 133200, Note_on_c, 0, 67, 70
2, 133244, Note_on_c, 0, 67, 0
2, 133248, Note_on_c, 0, 65, 69
2, 133292, Note_on_c, 0, 65, 0
2, 133296, Note_on_c, 0, 67, 69
2, 133340, Note_on_c, 0, 67, 0
2, 133344, Note_on_c, 0, 65, 68
2, 133388, Note_on_c, 0, 65, 0
2, 133392, Note_on_c, 0, 67, 68
2, 133436, Note_on_c, 0, 67, 0
2, 133440, Note_on_c, 0, 64, 68
2, 133532, Note_on_c, 0, 64, 0
2, 133536, Note_on_c, 0, 65, 67
2, 133628, Note_on_c, 0, 65, 0
2, 133632, Note_on_c, 0, 64, 66
2, 133820, Note_on_c, 0, 64, 0
2, 133824, Note_on_c, 0, 81, 65
2, 134012, Note_on_c, 0, 81, 0
2, 134016, Note_on_c, 0, 80, 65
2, 134204, Note_on_c, 0, 80, 0
2, 134208, Note_on_c, 0, 81, 65
2, 134396, Note_on_c, 0, 81, 0
2, 134400, Note_on_c, 0, 80, 65
2, 134588, Note_on_c, 0, 80, 0
2, 134592, Note_on_c, 0, 81, 65
2, 134780, Note_on_c, 0, 81, 0
2, 134784, Note_on_c, 0, 79, 65
2, 135164, Note_on_c, 0, 79, 0
2, 135168, Note_on_c, 0, 77, 65
2, 135212, Note_on_c, 0, 77, 0
2, 135216, Note_on_c, 0, 79, 65
2, 135260, Note_on_c, 0, 79, 0
2, 135264, Note_on_c, 0, 77, 65
2, 135308, Note_on_c, 0, 77, 0
2, 135312, Note_on_c, 0, 79, 65
2, 135356, Note_on_c, 0, 79, 0
2, 135360, Note_on_c, 0, 77, 65
2, 135404, Note_on_c, 0, 77, 0
2, 135408, Note_on_c, 0, 79, 65
2, 135452, Note_on_c, 0, 79, 0
2, 135456, Note_on_c, 0, 77, 65
2, 135500, Note_on_c, 0, 77, 0
2, 135504, Note_on_c, 0, 79, 65
2, 135548, Note_on_c, 0, 79, 0
2, 135552, Note_on_c, 0, 77, 65
2, 135596, Note_on_c, 0, 77, 0
2, 135600, Note_on_c, 0, 79, 65
2, 135644, Note_on_c, 0, 79, 0
2, 135648, Note_on_c, 0, 77, 65
2, 135692, Note_on_c, 0, 77, 0
2, 135696, Note_on_c, 0, 79, 65
2, 135740, Note_on_c, 0, 79, 0
2, 135744, Note_on_c, 0, 76, 65
2, 135836, Note_on_c, 0, 76, 0
2, 135840, Note_on_c, 0, 77, 65
2, 135932, Note_on_c, 0, 77, 0
2, 135936, Note_on_c, 0, 76, 65
2, 136412, Note_on_c, 0, 76, 0
2, 136416, Note_on_c, 0, 79, 73
2, 136512, Note_on_c, 0, 79, 0
2, 136512, Note_on_c, 0, 78, 75
2, 136604, Note_on_c, 0, 78, 0
2, 136608, Note_on_c, 0, 79, 77
2, 136700, Note_on_c, 0, 79, 0
2, 136704, Note_on_c, 0, 81, 79
2, 136796, Note_on_c, 0, 81, 0
2, 136800, Note_on_c, 0, 79, 80
2, 136892, Note_on_c, 0, 79, 0
2, 136896, Note_on_c, 0, 78, 82
2, 136988, Note_on_c, 0, 78, 0
2, 136992, Note_on_c, 0, 76, 84
2, 137072, Note_on_c, 0, 76, 0
2, 137088, Note_on_c, 0, 74, 95
2, 138236, Note_on_c, 0, 74, 0
2, 138240, Note_on_c, 0, 78, 95
2, 139388, Note_on_c, 0, 78, 0
2, 139392, Note_on_c, 0, 81, 95
2, 140156, Note_on_c, 0, 81, 0
2, 140160, Note_on_c, 0, 79, 85
2, 140256, Note_on_c, 0, 79, 0
2, 140256, Note_on_c, 0, 78, 85
2, 140348, Note_on_c, 0, 78, 0
2, 140352, Note_on_c, 0, 76, 85
2, 140444, Note_on_c, 0, 76, 0
2, 140448, Note_on_c, 0, 74, 85
2, 140528, Note_on_c, 0, 74, 0
2, 140544, Note_on_c, 0, 74, 85
2, 140588, Note_on_c, 0, 74, 0
2, 140592, Note_on_c, 0, 76, 85
2, 140636, Note_on_c, 0, 76, 0
2, 140640, Note_on_c, 0, 74, 85
2, 140684, Note_on_c, 0, 74, 0
2, 140688, Note_on_c, 0, 76, 85
2, 140732, Note_on_c, 0, 76, 0
2, 140736, Note_on_c, 0, 73, 85
2, 140924, Note_on_c, 0, 73, 0
2, 140928, Note_on_c, 0, 73, 85
2, 141308, Note_on_c, 0, 73, 0
2, 141696, Note_on_c, 0, 79, 85
2, 141796, Note_on_c, 0, 79, 0
2, 141888, Note_on_c, 0, 76, 85
2, 141988, Note_on_c, 0, 76, 0
2, 142080, Note_on_c, 0, 79, 85
2, 142180, Note_on_c, 0, 79, 0
2, 142272, Note_on_c, 0, 73, 85
2, 142372, Note_on_c, 0, 73, 0
2, 142464, Note_on_c, 0, 79, 85
2, 142564, Note_on_c, 0, 79, 0
2, 142656, Note_on_c, 0, 69, 85
2, 142756, Note_on_c, 0, 69, 0
2, 142848, Note_on_c, 0, 69, 85
2, 143420, Note_on_c, 0, 69, 0
2, 143424, Note_on_c, 0, 71, 85
2, 143520, Note_on_c, 0, 71, 0
2, 143520, Note_on_c, 0, 69, 85
2, 143600, Note_on_c, 0, 69, 0
2, 143616, Note_on_c, 0, 67, 85
2, 143712, Note_on_c, 0, 67, 0
2, 143712, Note_on_c, 0, 66, 85
2, 143808, Note_on_c, 0, 66, 0
2, 143808, Note_on_c, 0, 64, 85
2, 143904, Note_on_c, 0, 64, 0
2, 143904, Note_on_c, 0, 62, 85
2, 144000, Note_on_c, 0, 62, 0
2, 144000, Note_on_c, 0, 61, 85
2, 144100, Note_on_c, 0, 61, 0
2, 144192, Note_on_c, 0, 64, 85
2, 144384, Note_on_c, 0, 64, 0
2, 144384, Note_on_c, 0, 69, 85
2, 144564, Note_on_c, 0, 69, 0
2, 144576, Note_on_c, 0, 73, 85
2, 144768, Note_on_c, 0, 73, 0
2, 144768, Note_on_c, 0, 76, 85
2, 144948, Note_on_c, 0, 76, 0
2, 144960, Note_on_c, 0, 79, 85
2, 145060, Note_on_c, 0, 79, 0
2, 145152, Note_on_c, 0, 77, 85
2, 145344, Note_on_c, 0, 77, 0
2, 145344, Note_on_c, 0, 78, 85
2, 145524, Note_on_c, 0, 78, 0
2, 145536, Note_on_c, 0, 78, 85
2, 145724, Note_on_c, 0, 78, 0
2, 146304, Note_on_c, 0, 79, 85
2, 146404, Note_on_c, 0, 79, 0
2, 146496, Note_on_c, 0, 76, 85
2, 146596, Note_on_c, 0, 76, 0
2, 146688, Note_on_c, 0, 79, 85
2, 146788, Note_on_c, 0, 79, 0
2, 146880, Note_on_c, 0, 73, 85
2, 146980, Note_on_c, 0, 73, 0
2, 147072, Note_on_c, 0, 79, 85
2, 147172, Note_on_c, 0, 79, 0
2, 147264, Note_on_c, 0, 69, 85
2, 147364, Note_on_c, 0, 69, 0
2, 147456, Note_on_c, 0, 69, 85
2, 148028, Note_on_c, 0, 69, 0
2, 148032, Note_on_c, 0, 71, 85
2, 148128, Note_on_c, 0, 71, 0
2, 148128, Note_on_c, 0, 69, 85
2, 148208, Note_on_c, 0, 69, 0
2, 148224, Note_on_c, 0, 67, 85
2, 148320, Note_on_c, 0, 67, 0
2, 148320, Note_on_c, 0, 66, 85
2, 148416, Note_on_c, 0, 66, 0
2, 148416, Note_on_c, 0, 64, 85
2, 148512, Note_on_c, 0, 64, 0
2, 148512, Note_on_c, 0, 62, 85
2, 148608, Note_on_c, 0, 62, 0
2, 148608, Note_on_c, 0, 61, 85
2, 148992, Note_on_c, 0, 61, 0
2, 148992, Note_on_c, 0, 79, 95
2, 149036, Note_on_c, 0, 79, 0
2, 149040, Note_on_c, 0, 81, 90
2, 149084, Note_on_c, 0, 81, 0
2, 149088, Note_on_c, 0, 79, 85
2, 149132, Note_on_c, 0, 79, 0
2, 149136, Note_on_c, 0, 81, 85
2, 149180, Note_on_c, 0, 81, 0
2, 149184, Note_on_c, 0, 79, 85
2, 149228, Note_on_c, 0, 79, 0
2, 149232, Note_on_c, 0, 81, 85
2, 149276, Note_on_c, 0, 81, 0
2, 149280, Note_on_c, 0, 79, 85
2, 149324, Note_on_c, 0, 79, 0
2, 149328, Note_on_c, 0, 81, 85
2, 149372, Note_on_c, 0, 81, 0
2, 149376, Note_on_c, 0, 79, 85
2, 149420, Note_on_c, 0, 79, 0
2, 149424, Note_on_c, 0, 81, 85
2, 149468, Note_on_c, 0, 81, 0
2, 149472, Note_on_c, 0, 79, 85
2, 149516, Note_on_c, 0, 79, 0
2, 149520, Note_on_c, 0, 81, 85
2, 149564, Note_on_c, 0, 81, 0
2, 149568, Note_on_c, 0, 78, 85
2, 149660, Note_on_c, 0, 78, 0
2, 149664, Note_on_c, 0, 79, 85
2, 149744, Note_on_c, 0, 79, 0
2, 149760, Note_on_c, 0, 78, 85
2, 150528, Note_on_c, 0, 78, 0
2, 150528, Note_on_c, 0, 79, 85
2, 150624, Note_on_c, 0, 79, 0
2, 150624, Note_on_c, 0, 78, 85
2, 150716, Note_on_c, 0, 78, 0
2, 150720, Note_on_c, 0, 76, 85
2, 150812, Note_on_c, 0, 76, 0
2, 150816, Note_on_c, 0, 74, 85
2, 150896, Note_on_c, 0, 74, 0
2, 150912, Note_on_c, 0, 81, 95
2, 151104, Note_on_c, 0, 81, 0
2, 151104, Note_on_c, 0, 79, 85
2, 151284, Note_on_c, 0, 79, 0
2, 151488, Note_on_c, 0, 79, 85
2, 151592, Note_on_c, 0, 79, 0
2, 151680, Note_on_c, 0, 79, 85
2, 151780, Note_on_c, 0, 79, 0
2, 151872, Note_on_c, 0, 79, 85
2, 151960, Note_on_c, 0, 79, 0
2, 152064, Note_on_c, 0, 77, 95
2, 152256, Note_on_c, 0, 77, 0
2, 152256, Note_on_c, 0, 78, 85
2, 152432, Note_on_c, 0, 78, 0
2, 152640, Note_on_c, 0, 78, 65
2, 152740, Note_on_c, 0, 78, 0
2, 152832, Note_on_c, 0, 79, 65
2, 152928, Note_on_c, 0, 79, 0
2, 152928, Note_on_c, 0, 78, 65
2, 153020, Note_on_c, 0, 78, 0
2, 153024, Note_on_c, 0, 76, 65
2, 153116, Note_on_c, 0, 76, 0
2, 153120, Note_on_c, 0, 74, 65
2, 153200, Note_on_c, 0, 74, 0
2, 153216, Note_on_c, 0, 81, 75
2, 153408, Note_on_c, 0, 81, 0
2, 153408, Note_on_c, 0, 79, 65
2, 153588, Note_on_c, 0, 79, 0
2, 153792, Note_on_c, 0, 79, 65
2, 153896, Note_on_c, 0, 79, 0
2, 153984, Note_on_c, 0, 79, 65
2, 154084, Note_on_c, 0, 79, 0
2, 154176, Note_on_c, 0, 79, 65
2, 154268, Note_on_c, 0, 79, 0
2, 154368, Note_on_c, 0, 76, 75
2, 154560, Note_on_c, 0, 76, 0
2, 154560, Note_on_c, 0, 78, 65
2, 154740, Note_on_c, 0, 78, 0
2, 154944, Note_on_c, 0, 78, 65
2, 155044, Note_on_c, 0, 78, 0
2, 155136, Note_on_c, 0, 79, 65
2, 155232, Note_on_c, 0, 79, 0
2, 155232, Note_on_c, 0, 78, 65
2, 155324, Note_on_c, 0, 78, 0
2, 155328, Note_on_c, 0, 76, 65
2, 155420, Note_on_c, 0, 76, 0
2, 155424, Note_on_c, 0, 74, 65
2, 155504, Note_on_c, 0, 74, 0
2, 155520, Note_on_c, 0, 81, 65
2, 155712, Note_on_c, 0, 81, 0
2, 155712, Note_on_c, 0, 80, 65
2, 155892, Note_on_c, 0, 80, 0
2, 156096, Note_on_c, 0, 80, 65
2, 156200, Note_on_c, 0, 80, 0
2, 156288, Note_on_c, 0, 80, 66
2, 156388, Note_on_c, 0, 80, 0
2, 156480, Note_on_c, 0, 80, 68
2, 156568, Note_on_c, 0, 80, 0
2, 156672, Note_on_c, 0, 83, 71
2, 156864, Note_on_c, 0, 83, 0
2, 156864, Note_on_c, 0, 81, 73
2, 157044, Note_on_c, 0, 81, 0
2, 157248, Note_on_c, 0, 81, 78
2, 157352, Note_on_c, 0, 81, 0
2, 157440, Note_on_c, 0, 81, 81
2, 157540, Note_on_c, 0, 81, 0
2, 157632, Note_on_c, 0, 81, 83
2, 157720, Note_on_c, 0, 81, 0
2, 157824, Note_on_c, 0, 86, 65
2, 158016, Note_on_c, 0, 86, 0
2, 158016, Note_on_c, 0, 80, 65
2, 158196, Note_on_c, 0, 80, 0
2, 158400, Note_on_c, 0, 80, 65
2, 158592, Note_on_c, 0, 80, 0
2, 158592, Note_on_c, 0, 80, 85
2, 158784, Note_on_c, 0, 80, 0
2, 158784, Note_on_c, 0, 80, 85
2, 158976, Note_on_c, 0, 80, 0
2, 158976, Note_on_c, 0, 83, 85
2, 159168, Note_on_c, 0, 83, 0
2, 159168, Note_on_c, 0, 81, 85
2, 159348, Note_on_c, 0, 81, 0
2, 159552, Note_on_c, 0, 81, 85
2, 159744, Note_on_c, 0, 81, 0
2, 159744, Note_on_c, 0, 83, 85
2, 159936, Note_on_c, 0, 83, 0
2, 159936, Note_on_c, 0, 80, 85
2, 160128, Note_on_c, 0, 80, 0
2, 160128, Note_on_c, 0, 83, 85
2, 160320, Note_on_c, 0, 83, 0
2, 160320, Note_on_c, 0, 81, 85
2, 160500, Note_on_c, 0, 81, 0
2, 160704, Note_on_c, 0, 81, 85
2, 160896, Note_on_c, 0, 81, 0
2, 160896, Note_on_c, 0, 83, 85
2, 161088, Note_on_c, 0, 83, 0
2, 161088, Note_on_c, 0, 80, 85
2, 161280, Note_on_c, 0, 80, 0
2, 161280, Note_on_c, 0, 83, 85
2, 161472, Note_on_c, 0, 83, 0
2, 161472, Note_on_c, 0, 81, 85
2, 161652, Note_on_c, 0, 81, 0
2, 161664, Note_on_c, 0, 83, 85
2, 161856, Note_on_c, 0, 83, 0
2, 161856, Note_on_c, 0, 81, 85
2, 162036, Note_on_c, 0, 81, 0
2, 162048, Note_on_c, 0, 83, 85
2, 162240, Note_on_c, 0, 83, 0
2, 162240, Note_on_c, 0, 81, 85
2, 162420, Note_on_c, 0, 81, 0
2, 162432, Note_on_c, 0, 81, 85
2, 163004, Note_on_c, 0, 81, 0
2, 163200, Note_on_c, 0, 81, 85
2, 163580, Note_on_c, 0, 81, 0
2, 163584, Note_on_c, 0, 83, 85
2, 163776, Note_on_c, 0, 83, 0
2, 163776, Note_on_c, 0, 81, 85
2, 163956, Note_on_c, 0, 81, 0
2, 163968, Note_on_c, 0, 71, 85
2, 164160, Note_on_c, 0, 71, 0
2, 164160, Note_on_c, 0, 69, 85
2, 164340, Note_on_c, 0, 69, 0
2, 164352, Note_on_c, 0, 59, 85
2, 164544, Note_on_c, 0, 59, 0
2, 164544, Note_on_c, 0, 57, 85
2, 164724, Note_on_c, 0, 57, 0
2, 164736, Note_on_c, 0, 71, 85
2, 164928, Note_on_c, 0, 71, 0
2, 164928, Note_on_c, 0, 69, 85
2, 165108, Note_on_c, 0, 69, 0
2, 165120, Note_on_c, 0, 83, 85
2, 165312, Note_on_c, 0, 83, 0
2, 165312, Note_on_c, 0, 81, 85
2, 165492, Note_on_c, 0, 81, 0
2, 165504, Note_on_c, 0, 95, 85
2, 165696, Note_on_c, 0, 95, 0
2, 165696, Note_on_c, 0, 93, 85
2, 165876, Note_on_c, 0, 93, 0
2, 165888, Note_on_c, 0, 93, 85
2, 165932, Note_on_c, 0, 93, 0
2, 165936, Note_on_c, 0, 95, 85
2, 165980, Note_on_c, 0, 95, 0
2, 165984, Note_on_c, 0, 93, 85
2, 166028, Note_on_c, 0, 93, 0
2, 166032, Note_on_c, 0, 95, 85
2, 166076, Note_on_c, 0, 95, 0
2, 166080, Note_on_c, 0, 93, 85
2, 166124, Note_on_c, 0, 93, 0
2, 166128, Note_on_c, 0, 95, 85
2, 166172, Note_on_c, 0, 95, 0
2, 166176, Note_on_c, 0, 93, 85
2, 166220, Note_on_c, 0, 93, 0
2, 166224, Note_on_c, 0, 95, 85
2, 166268, Note_on_c, 0, 95, 0
2, 166272, Note_on_c, 0, 93, 85
2, 166316, Note_on_c, 0, 93, 0
2, 166320, Note_on_c, 0, 95, 85
2, 166364, Note_on_c, 0, 95, 0
2, 166368, Note_on_c, 0, 93, 85
2, 166412, Note_on_c, 0, 93, 0
2, 166416, Note_on_c, 0, 95, 85
2, 166460, Note_on_c, 0, 95, 0
2, 166464, Note_on_c, 0, 93, 85
2, 166508, Note_on_c, 0, 93, 0
2, 166512, Note_on_c, 0, 95, 85
2, 166556, Note_on_c, 0, 95, 0
2, 166560, Note_on_c, 0, 93, 85
2, 166604, Note_on_c, 0, 93, 0
2, 166608, Note_on_c, 0, 95, 85
2, 166652, Note_on_c, 0, 95, 0
2, 166656, Note_on_c, 0, 93, 85
2, 166700, Note_on_c, 0, 93, 0
2, 166704, Note_on_c, 0, 95, 85
2, 166748, Note_on_c, 0, 95, 0
2, 166752, Note_on_c, 0, 93, 85
2, 166796, Note_on_c, 0, 93, 0
2, 166800, Note_on_c, 0, 95, 85
2, 166844, Note_on_c, 0, 95, 0
2, 166848, Note_on_c, 0, 93, 85
2, 166892, Note_on_c, 0, 93, 0
2, 166896, Note_on_c, 0, 95, 85
2, 166940, Note_on_c, 0, 95, 0
2, 166944, Note_on_c, 0, 91, 85
2, 166988, Note_on_c, 0, 91, 0
2, 166992, Note_on_c, 0, 93, 85
2, 167036, Note_on_c, 0, 93, 0
2, 167040, Note_on_c, 0, 81, 85
2, 167084, Note_on_c, 0, 81, 0
2, 167088, Note_on_c, 0, 83, 85
2, 167132, Note_on_c, 0, 83, 0
2, 167136, Note_on_c, 0, 81, 85
2, 167180, Note_on_c, 0, 81, 0
2, 167184, Note_on_c, 0, 83, 85
2, 167228, Note_on_c, 0, 83, 0
2, 167232, Note_on_c, 0, 81, 85
2, 167276, Note_on_c, 0, 81, 0
2, 167280, Note_on_c, 0, 83, 85
2, 167324, Note_on_c, 0, 83, 0
2, 167328, Note_on_c, 0, 81, 85
2, 167372, Note_on_c, 0, 81, 0
2, 167376, Note_on_c, 0, 83, 85
2, 167420, Note_on_c, 0, 83, 0
2, 167424, Note_on_c, 0, 81, 85
2, 167468, Note_on_c, 0, 81, 0
2, 167472, Note_on_c, 0, 83, 85
2, 167516, Note_on_c, 0, 83, 0
2, 167520, Note_on_c, 0, 81, 85
2, 167564, Note_on_c, 0, 81, 0
2, 167568, Note_on_c, 0, 83, 85
2, 167612, Note_on_c, 0, 83, 0
2, 167616, Note_on_c, 0, 81, 85
2, 167660, Note_on_c, 0, 81, 0
2, 167664, Note_on_c, 0, 83, 85
2, 167708, Note_on_c, 0, 83, 0
2, 167712, Note_on_c, 0, 81, 85
2, 167756, Note_on_c, 0, 81, 0
2, 167760, Note_on_c, 0, 83, 85
2, 167804, Note_on_c, 0, 83, 0
2, 167808, Note_on_c, 0, 81, 85
2, 167852, Note_on_c, 0, 81, 0
2, 167856, Note_on_c, 0, 83, 85
2, 167900, Note_on_c, 0, 83, 0
2, 167904, Note_on_c, 0, 81, 85
2, 167948, Note_on_c, 0, 81, 0
2, 167952, Note_on_c, 0, 83, 85
2, 167996, Note_on_c, 0, 83, 0
2, 168000, Note_on_c, 0, 81, 85
2, 168044, Note_on_c, 0, 81, 0
2, 168048, Note_on_c, 0, 83, 85
2, 168092, Note_on_c, 0, 83, 0
2, 168096, Note_on_c, 0, 79, 85
2, 168140, Note_on_c, 0, 79, 0
2, 168144, Note_on_c, 0, 81, 85
2, 168188, Note_on_c, 0, 81, 0
2, 168192, Note_on_c, 0, 82, 85
2, 168384, Note_on_c, 0, 82, 0
2, 168384, Note_on_c, 0, 81, 85
2, 168564, Note_on_c, 0, 81, 0
2, 168576, Note_on_c, 0, 70, 85
2, 168768, Note_on_c, 0, 70, 0
2, 168768, Note_on_c, 0, 69, 85
2, 168948, Note_on_c, 0, 69, 0
2, 168960, Note_on_c, 0, 58, 85
2, 169152, Note_on_c, 0, 58, 0
2, 169152, Note_on_c, 0, 57, 85
2, 169332, Note_on_c, 0, 57, 0
2, 169344, Note_on_c, 0, 70, 85
2, 169536, Note_on_c, 0, 70, 0
2, 169536, Note_on_c, 0, 69, 85
2, 169716, Note_on_c, 0, 69, 0
2, 169728, Note_on_c, 0, 82, 85
2, 169920, Note_on_c, 0, 82, 0
2, 169920, Note_on_c, 0, 81, 85
2, 170100, Note_on_c, 0, 81, 0
2, 170112, Note_on_c, 0, 94, 85
2, 170304, Note_on_c, 0, 94, 0
2, 170304, Note_on_c, 0, 93, 85
2, 170484, Note_on_c, 0, 93, 0
2, 170496, Note_on_c, 0, 93, 85
2, 170540, Note_on_c, 0, 93, 0
2, 170544, Note_on_c, 0, 94, 85
2, 170588, Note_on_c, 0, 94, 0
2, 170592, Note_on_c, 0, 93, 85
2, 170636, Note_on_c, 0, 93, 0
2, 170640, Note_on_c, 0, 94, 85
2, 170684, Note_on_c, 0, 94, 0
2, 170688, Note_on_c, 0, 93, 85
2, 170732, Note_on_c, 0, 93, 0
2, 170736, Note_on_c, 0, 94, 85
2, 170780, Note_on_c, 0, 94, 0
2, 170784, Note_on_c, 0, 93, 85
2, 170828, Note_on_c, 0, 93, 0
2, 170832, Note_on_c, 0, 94, 85
2, 170876, Note_on_c, 0, 94, 0
2, 170880, Note_on_c, 0, 93, 85
2, 170924, Note_on_c, 0, 93, 0
2, 170928, Note_on_c, 0, 94, 85
2, 170972, Note_on_c, 0, 94, 0
2, 170976, Note_on_c, 0, 93, 85
2, 171020, Note_on_c, 0, 93, 0
2, 171024, Note_on_c, 0, 94, 85
2, 171068, Note_on_c, 0, 94, 0
2, 171072, Note_on_c, 0, 93, 85
2, 171116, Note_on_c, 0, 93, 0
2, 171120, Note_on_c, 0, 94, 85
2, 171164, Note_on_c, 0, 94, 0
2, 171168, Note_on_c, 0, 93, 85
2, 171212, Note_on_c, 0, 93, 0
2, 171216, Note_on_c, 0, 94, 85
2, 171260, Note_on_c, 0, 94, 0
2, 171264, Note_on_c, 0, 93, 85
2, 171308, Note_on_c, 0, 93, 0
2, 171312, Note_on_c, 0, 94, 85
2, 171356, Note_on_c, 0, 94, 0
2, 171360, Note_on_c, 0, 93, 85
2, 171404, Note_on_c, 0, 93, 0
2, 171408, Note_on_c, 0, 94, 85
2, 171452, Note_on_c, 0, 94, 0
2, 171456, Note_on_c, 0, 93, 85
2, 171500, Note_on_c, 0, 93, 0
2, 171504, Note_on_c, 0, 94, 85
2, 171548, Note_on_c, 0, 94, 0
2, 171552, Note_on_c, 0, 91, 85
2, 171596, Note_on_c, 0, 91, 0
2, 171600, Note_on_c, 0, 93, 85
2, 171644, Note_on_c, 0, 93, 0
2, 171648, Note_on_c, 0, 81, 84
2, 171692, Note_on_c, 0, 81, 0
2, 171696, Note_on_c, 0, 82, 84
2, 171740, Note_on_c, 0, 82, 0
2, 171744, Note_on_c, 0, 81, 84
2, 171788, Note_on_c, 0, 81, 0
2, 171792, Note_on_c, 0, 82, 83
2, 171836, Note_on_c, 0, 82, 0
2, 171840, Note_on_c, 0, 81, 83
2, 171884, Note_on_c, 0, 81, 0
2, 171888, Note_on_c, 0, 82, 82
2, 171932, Note_on_c, 0, 82, 0
2, 171936, Note_on_c, 0, 81, 82
2, 171980, Note_on_c, 0, 81, 0
2, 171984, Note_on_c, 0, 82, 82
2, 172028, Note_on_c, 0, 82, 0
2, 172032, Note_on_c, 0, 81, 81
2, 172076, Note_on_c, 0, 81, 0
2, 172080, Note_on_c, 0, 82, 81
2, 172124, Note_on_c, 0, 82, 0
2, 172128, Note_on_c, 0, 81, 80
2, 172172, Note_on_c, 0, 81, 0
2, 172176, Note_on_c, 0, 82, 80
2, 172220, Note_on_c, 0, 82, 0
2, 172224, Note_on_c, 0, 81, 79
2, 172268, Note_on_c, 0, 81, 0
2, 172272, Note_on_c, 0, 82, 79
2, 172316, Note_on_c, 0, 82, 0
2, 172320, Note_on_c, 0, 81, 79
2, 172364, Note_on_c, 0, 81, 0
2, 172368, Note_on_c, 0, 82, 78
2, 172412, Note_on_c, 0, 82, 0
2, 172416, Note_on_c, 0, 81, 78
2, 172460, Note_on_c, 0, 81, 0
2, 172464, Note_on_c, 0, 82, 77
2, 172508, Note_on_c, 0, 82, 0
2, 172512, Note_on_c, 0, 81, 77
2, 172556, Note_on_c, 0, 81, 0
2, 172560, Note_on_c, 0, 82, 77
2, 172604, Note_on_c, 0, 82, 0
2, 172608, Note_on_c, 0, 81, 76
2, 172652, Note_on_c, 0, 81, 0
2, 172656, Note_on_c, 0, 82, 76
2, 172700, Note_on_c, 0, 82, 0
2, 172704, Note_on_c, 0, 79, 75
2, 172748, Note_on_c, 0, 79, 0
2, 172752, Note_on_c, 0, 81, 75
2, 172796, Note_on_c, 0, 81, 0
2, 172800, Note_on_c, 0, 69, 74
2, 172844, Note_on_c, 0, 69, 0
2, 172848, Note_on_c, 0, 70, 74
2, 172892, Note_on_c, 0, 70, 0
2, 172896, Note_on_c, 0, 69, 74
2, 172940, Note_on_c, 0, 69, 0
2, 172944, Note_on_c, 0, 70, 73
2, 172988, Note_on_c, 0, 70, 0
2, 172992, Note_on_c, 0, 69, 73
2, 173036, Note_on_c, 0, 69, 0
2, 173040, Note_on_c, 0, 70, 72
2, 173084, Note_on_c, 0, 70, 0
2, 173088, Note_on_c, 0, 69, 72
2, 173132, Note_on_c, 0, 69, 0
2, 173136, Note_on_c, 0, 70, 72
2, 173180, Note_on_c, 0, 70, 0
2, 173184, Note_on_c, 0, 69, 71
2, 173228, Note_on_c, 0, 69, 0
2, 173232, Note_on_c, 0, 70, 71
2, 173276, Note_on_c, 0, 70, 0
2, 173280, Note_on_c, 0, 69, 70
2, 173324, Note_on_c, 0, 69, 0
2, 173328, Note_on_c, 0, 70, 70
2, 173372, Note_on_c, 0, 70, 0
2, 173376, Note_on_c, 0, 69, 69
2, 173420, Note_on_c, 0, 69, 0
2, 173424, Note_on_c, 0, 70, 69
2, 173468, Note_on_c, 0, 70, 0
2, 173472, Note_on_c, 0, 69, 69
2, 173516, Note_on_c, 0, 69, 0
2, 173520, Note_on_c, 0, 70, 68
2, 173564, Note_on_c, 0, 70, 0
2, 173568, Note_on_c, 0, 69, 68
2, 173612, Note_on_c, 0, 69, 0
2, 173616, Note_on_c, 0, 70, 67
2, 173660, Note_on_c, 0, 70, 0
2, 173664, Note_on_c, 0, 69, 67
2, 173708, Note_on_c, 0, 69, 0
2, 173712, Note_on_c, 0, 70, 67
2, 173756, Note_on_c, 0, 70, 0
2, 173760, Note_on_c, 0, 69, 66
2, 173804, Note_on_c, 0, 69, 0
2, 173808, Note_on_c, 0, 70, 66
2, 173852, Note_on_c, 0, 70, 0
2, 173856, Note_on_c, 0, 67, 65
2, 173900, Note_on_c, 0, 67, 0
2, 173904, Note_on_c, 0, 69, 65
2, 173948, Note_on_c, 0, 69, 0
2, 173952, Note_on_c, 0, 65, 65
2, 174020, Note_on_c, 0, 65, 0
2, 174020, Note_on_c, 0, 72, 65
2, 174084, Note_on_c, 0, 72, 0
2, 174088, Note_on_c, 0, 81, 65
2, 174520, Note_on_c, 0, 81, 0
2, 174528, Note_on_c, 0, 82, 65
2, 174720, Note_on_c, 0, 82, 0
2, 174720, Note_on_c, 0, 83, 65
2, 174908, Note_on_c, 0, 83, 0
2, 174912, Note_on_c, 0, 84, 65
2, 175092, Note_on_c, 0, 84, 0
2, 175104, Note_on_c, 0, 86, 65
2, 175296, Note_on_c, 0, 86, 0
2, 175296, Note_on_c, 0, 84, 65
2, 175476, Note_on_c, 0, 84, 0
2, 175488, Note_on_c, 0, 82, 65
2, 175592, Note_on_c, 0, 82, 0
2, 175680, Note_on_c, 0, 81, 65
2, 175780, Note_on_c, 0, 81, 0
2, 175872, Note_on_c, 0, 79, 65
2, 175972, Note_on_c, 0, 79, 0
2, 176064, Note_on_c, 0, 77, 65
2, 176156, Note_on_c, 0, 77, 0
2, 176256, Note_on_c, 0, 81, 65
2, 176256, Note_on_c, 0, 77, 65
2, 176444, Note_on_c, 0, 77, 0
2, 176444, Note_on_c, 0, 81, 0
2, 176640, Note_on_c, 0, 81, 65
2, 176640, Note_on_c, 0, 77, 65
2, 176832, Note_on_c, 0, 77, 0
2, 176832, Note_on_c, 0, 81, 0
2, 177024, Note_on_c, 0, 82, 65
2, 177024, Note_on_c, 0, 78, 65
2, 177196, Note_on_c, 0, 78, 0
2, 177196, Note_on_c, 0, 82, 0
2, 177408, Note_on_c, 0, 81, 65
2, 177408, Note_on_c, 0, 77, 65
2, 177600, Note_on_c, 0, 77, 0
2, 177600, Note_on_c, 0, 81, 0
2, 177600, Note_on_c, 0, 82, 65
2, 177600, Note_on_c, 0, 79, 65
2, 177780, Note_on_c, 0, 79, 0
2, 177780, Note_on_c, 0, 82, 0
2, 177792, Note_on_c, 0, 79, 65
2, 177792, Note_on_c, 0, 72, 65
2, 178556, Note_on_c, 0, 72, 0
2, 178556, Note_on_c, 0, 79, 0
2, 178560, Note_on_c, 0, 69, 50
2, 178560, Note_on_c, 0, 65, 50
2, 178752, Note_on_c, 0, 65, 0
2, 178752, Note_on_c, 0, 69, 0
2, 178752, Note_on_c, 0, 70, 50
2, 178752, Note_on_c, 0, 67, 50
2, 178932, Note_on_c, 0, 67, 0
2, 178932, Note_on_c, 0, 70, 0
2, 178944, Note_on_c, 0, 67, 50
2, 178944, Note_on_c, 0, 60, 50
2, 179708, Note_on_c, 0, 60, 0
2, 179708, Note_on_c, 0, 67, 0
2, 179712, Note_on_c, 0, 80, 70
2, 179712, Note_on_c, 0, 77, 70
2, 180284, Note_on_c, 0, 77, 0
2, 180284, Note_on_c, 0, 80, 0
2, 180288, Note_on_c, 0, 82, 70
2, 180480, Note_on_c, 0, 82, 0
2, 180480, Note_on_c, 0, 83, 70
2, 180668, Note_on_c, 0, 83, 0
2, 180672, Note_on_c, 0, 84, 70
2, 180852, Note_on_c, 0, 84, 0
2, 180864, Note_on_c, 0, 85, 70
2, 181056, Note_on_c, 0, 85, 0
2, 181056, Note_on_c, 0, 84, 70
2, 181236, Note_on_c, 0, 84, 0
2, 181248, Note_on_c, 0, 82, 70
2, 181352, Note_on_c, 0, 82, 0
2, 181440, Note_on_c, 0, 80, 70
2, 181540, Note_on_c, 0, 80, 0
2, 181632, Note_on_c, 0, 79, 70
2, 181732, Note_on_c, 0, 79, 0
2, 181824, Note_on_c, 0, 77, 70
2, 181916, Note_on_c, 0, 77, 0
2, 182016, Note_on_c, 0, 82, 70
2, 182208, Note_on_c, 0, 82, 0
2, 182208, Note_on_c, 0, 80, 70
2, 182388, Note_on_c, 0, 80, 0
2, 182400, Note_on_c, 0, 79, 70
2, 182504, Note_on_c, 0, 79, 0
2, 182592, Note_on_c, 0, 77, 70
2, 182692, Note_on_c, 0, 77, 0
2, 182784, Note_on_c, 0, 75, 70
2, 182884, Note_on_c, 0, 75, 0
2, 182976, Note_on_c, 0, 73, 70
2, 183068, Note_on_c, 0, 73, 0
2, 183168, Note_on_c, 0, 77, 70
2, 183296, Note_on_c, 0, 77, 0
2, 183296, Note_on_c, 0, 75, 70
2, 183420, Note_on_c, 0, 75, 0
2, 183424, Note_on_c, 0, 72, 70
2, 183540, Note_on_c, 0, 72, 0
2, 183552, Note_on_c, 0, 75, 70
2, 183680, Note_on_c, 0, 75, 0
2, 183680, Note_on_c, 0, 73, 70
2, 183804, Note_on_c, 0, 73, 0
2, 183808, Note_on_c, 0, 70, 70
2, 183924, Note_on_c, 0, 70, 0
2, 183936, Note_on_c, 0, 73, 70
2, 184064, Note_on_c, 0, 73, 0
2, 184064, Note_on_c, 0, 72, 70
2, 184188, Note_on_c, 0, 72, 0
2, 184192, Note_on_c, 0, 68, 70
2, 184308, Note_on_c, 0, 68, 0
2, 184320, Note_on_c, 0, 72, 70
2, 184448, Note_on_c, 0, 72, 0
2, 184448, Note_on_c, 0, 70, 70
2, 184572, Note_on_c, 0, 70, 0
2, 184576, Note_on_c, 0, 67, 70
2, 184692, Note_on_c, 0, 67, 0
2, 184704, Note_on_c, 0, 70, 70
2, 184832, Note_on_c, 0, 70, 0
2, 184832, Note_on_c, 0, 68, 70
2, 184956, Note_on_c, 0, 68, 0
2, 184960, Note_on_c, 0, 65, 70
2, 185076, Note_on_c, 0, 65, 0
2, 185088, Note_on_c, 0, 68, 71
2, 185216, Note_on_c, 0, 68, 0
2, 185216, Note_on_c, 0, 65, 77
2, 185340, Note_on_c, 0, 65, 0
2, 185344, Note_on_c, 0, 62, 83
2, 185460, Note_on_c, 0, 62, 0
2, 185472, Note_on_c, 0, 59, 90
2, 187100, Note_on_c, 0, 59, 0
2, 187104, Note_on_c, 0, 62, 70
2, 187200, Note_on_c, 0, 62, 0
2, 187200, Note_on_c, 0, 65, 70
2, 187292, Note_on_c, 0, 65, 0
2, 187296, Note_on_c, 0, 63, 70
2, 187388, Note_on_c, 0, 63, 0
2, 187392, Note_on_c, 0, 62, 70
2, 187484, Note_on_c, 0, 62, 0
2, 187488, Note_on_c, 0, 65, 70
2, 187580, Note_on_c, 0, 65, 0
2, 187584, Note_on_c, 0, 68, 70
2, 187676, Note_on_c, 0, 68, 0
2, 187680, Note_on_c, 0, 67, 70
2, 187772, Note_on_c, 0, 67, 0
2, 187776, Note_on_c, 0, 65, 70
2, 187868, Note_on_c, 0, 65, 0
2, 187872, Note_on_c, 0, 71, 70
2, 187964, Note_on_c, 0, 71, 0
2, 187968, Note_on_c, 0, 74, 70
2, 188060, Note_on_c, 0, 74, 0
2, 188064, Note_on_c, 0, 72, 70
2, 188144, Note_on_c, 0, 72, 0
2, 188160, Note_on_c, 0, 71, 70
2, 188256, Note_on_c, 0, 71, 0
2, 188256, Note_on_c, 0, 74, 70
2, 188348, Note_on_c, 0, 74, 0
2, 188352, Note_on_c, 0, 77, 70
2, 188444, Note_on_c, 0, 77, 0
2, 188448, Note_on_c, 0, 75, 70
2, 188528, Note_on_c, 0, 75, 0
2, 188544, Note_on_c, 0, 74, 70
2, 188640, Note_on_c, 0, 74, 0
2, 188640, Note_on_c, 0, 77, 70
2, 188732, Note_on_c, 0, 77, 0
2, 188736, Note_on_c, 0, 80, 70
2, 188828, Note_on_c, 0, 80, 0
2, 188832, Note_on_c, 0, 79, 70
2, 188912, Note_on_c, 0, 79, 0
2, 188928, Note_on_c, 0, 77, 70
2, 189024, Note_on_c, 0, 77, 0
2, 189024, Note_on_c, 0, 83, 70
2, 189116, Note_on_c, 0, 83, 0
2, 189120, Note_on_c, 0, 86, 70
2, 189212, Note_on_c, 0, 86, 0
2, 189216, Note_on_c, 0, 88, 70
2, 189296, Note_on_c, 0, 88, 0
2, 189312, Note_on_c, 0, 89, 70
2, 189356, Note_on_c, 0, 89, 0
2, 189360, Note_on_c, 0, 91, 70
2, 189404, Note_on_c, 0, 91, 0
2, 189408, Note_on_c, 0, 89, 70
2, 189452, Note_on_c, 0, 89, 0
2, 189456, Note_on_c, 0, 91, 70
2, 189500, Note_on_c, 0, 91, 0
2, 189504, Note_on_c, 0, 89, 70
2, 189548, Note_on_c, 0, 89, 0
2, 189552, Note_on_c, 0, 91, 70
2, 189596, Note_on_c, 0, 91, 0
2, 189600, Note_on_c, 0, 89, 70
2, 189644, Note_on_c, 0, 89, 0
2, 189648, Note_on_c, 0, 91, 70
2, 189692, Note_on_c, 0, 91, 0
2, 189696, Note_on_c, 0, 90, 70
2, 189740, Note_on_c, 0, 90, 0
2, 189744, Note_on_c, 0, 91, 70
2, 189788, Note_on_c, 0, 91, 0
2, 189792, Note_on_c, 0, 90, 70
2, 189836, Note_on_c, 0, 90, 0
2, 189840, Note_on_c, 0, 91, 70
2, 189884, Note_on_c, 0, 91, 0
2, 189888, Note_on_c, 0, 90, 70
2, 189932, Note_on_c, 0, 90, 0
2, 189936, Note_on_c, 0, 91, 70
2, 189980, Note_on_c, 0, 91, 0
2, 189984, Note_on_c, 0, 90, 70
2, 190028, Note_on_c, 0, 90, 0
2, 190032, Note_on_c, 0, 91, 70
2, 190076, Note_on_c, 0, 91, 0
2, 190080, Note_on_c, 0, 91, 70
2, 190124, Note_on_c, 0, 91, 0
2, 190128, Note_on_c, 0, 93, 70
2, 190172, Note_on_c, 0, 93, 0
2, 190176, Note_on_c, 0, 91, 70
2, 190220, Note_on_c, 0, 91, 0
2, 190224, Note_on_c, 0, 93, 70
2, 190268, Note_on_c, 0, 93, 0
2, 190272, Note_on_c, 0, 91, 70
2, 190316, Note_on_c, 0, 91, 0
2, 190320, Note_on_c, 0, 93, 70
2, 190364, Note_on_c, 0, 93, 0
2, 190368, Note_on_c, 0, 91, 70
2, 190412, Note_on_c, 0, 91, 0
2, 190416, Note_on_c, 0, 93, 70
2, 190460, Note_on_c, 0, 93, 0
2, 190464, Note_on_c, 0, 91, 70
2, 190508, Note_on_c, 0, 91, 0
2, 190512, Note_on_c, 0, 93, 70
2, 190556, Note_on_c, 0, 93, 0
2, 190560, Note_on_c, 0, 91, 70
2, 190604, Note_on_c, 0, 91, 0
2, 190608, Note_on_c, 0, 93, 70
2, 190652, Note_on_c, 0, 93, 0
2, 190656, Note_on_c, 0, 91, 70
2, 190700, Note_on_c, 0, 91, 0
2, 190704, Note_on_c, 0, 93, 70
2, 190748, Note_on_c, 0, 93, 0
2, 190752, Note_on_c, 0, 91, 70
2, 190796, Note_on_c, 0, 91, 0
2, 190800, Note_on_c, 0, 93, 70
2, 190844, Note_on_c, 0, 93, 0
2, 190848, Note_on_c, 0, 91, 70
2, 190892, Note_on_c, 0, 91, 0
2, 190896, Note_on_c, 0, 93, 70
2, 190940, Note_on_c, 0, 93, 0
2, 190944, Note_on_c, 0, 91, 70
2, 190988, Note_on_c, 0, 91, 0
2, 190992, Note_on_c, 0, 93, 70
2, 191036, Note_on_c, 0, 93, 0
2, 191040, Note_on_c, 0, 91, 70
2, 191084, Note_on_c, 0, 91, 0
2, 191088, Note_on_c, 0, 93, 70
2, 191132, Note_on_c, 0, 93, 0
2, 191136, Note_on_c, 0, 91, 70
2, 191180, Note_on_c, 0, 91, 0
2, 191184, Note_on_c, 0, 93, 70
2, 191228, Note_on_c, 0, 93, 0
2, 191232, Note_on_c, 0, 91, 70
2, 191276, Note_on_c, 0, 91, 0
2, 191280, Note_on_c, 0, 93, 70
2, 191324, Note_on_c, 0, 93, 0
2, 191328, Note_on_c, 0, 91, 70
2, 191372, Note_on_c, 0, 91, 0
2, 191376, Note_on_c, 0, 93, 70
2, 191420, Note_on_c, 0, 93, 0
2, 191424, Note_on_c, 0, 91, 70
2, 191468, Note_on_c, 0, 91, 0
2, 191472, Note_on_c, 0, 93, 70
2, 191516, Note_on_c, 0, 93, 0
2, 191520, Note_on_c, 0, 91, 70
2, 191564, Note_on_c, 0, 91, 0
2, 191568, Note_on_c, 0, 93, 70
2, 191612, Note_on_c, 0, 93, 0
2, 191616, Note_on_c, 0, 91, 70
2, 191660, Note_on_c, 0, 91, 0
2, 191664, Note_on_c, 0, 93, 70
2, 191708, Note_on_c, 0, 93, 0
2, 191712, Note_on_c, 0, 89, 70
2, 191808, Note_on_c, 0, 89, 0
2, 191808, Note_on_c, 0, 86, 80
2, 191900, Note_on_c, 0, 86, 0
2, 191904, Note_on_c, 0, 83, 79
2, 191996, Note_on_c, 0, 83, 0
2, 192000, Note_on_c, 0, 79, 78
2, 192092, Note_on_c, 0, 79, 0
2, 192096, Note_on_c, 0, 77, 77
2, 192188, Note_on_c, 0, 77, 0
2, 192192, Note_on_c, 0, 74, 76
2, 192284, Note_on_c, 0, 74, 0
2, 192288, Note_on_c, 0, 71, 75
2, 192368, Note_on_c, 0, 71, 0
2, 192384, Note_on_c, 0, 67, 75
2, 192572, Note_on_c, 0, 67, 0
2, 192576, Note_on_c, 0, 67, 74
2, 192576, Note_on_c, 0, 55, 74
2, 192768, Note_on_c, 0, 55, 0
2, 192768, Note_on_c, 0, 56, 72
2, 192956, Note_on_c, 0, 56, 0
2, 192960, Note_on_c, 0, 57, 70
2, 193148, Note_on_c, 0, 57, 0
2, 193152, Note_on_c, 0, 58, 69
2, 193340, Note_on_c, 0, 58, 0
2, 193344, Note_on_c, 0, 59, 67
2, 193524, Note_on_c, 0, 59, 0
2, 193532, Note_on_c, 0, 67, 0
2, 193536, Note_on_c, 0, 60, 65
2, 193604, Note_on_c, 0, 60, 0
2, 193604, Note_on_c, 0, 67, 65
2, 193668, Note_on_c, 0, 67, 0
2, 193668, Note_on_c, 0, 72, 65
2, 193728, Note_on_c, 0, 64, 65
2, 193920, Note_on_c, 0, 64, 0
2, 193920, Note_on_c, 0, 67, 65
2, 194108, Note_on_c, 0, 67, 0
2, 194112, Note_on_c, 0, 64, 65
2, 194300, Note_on_c, 0, 64, 0
2, 194304, Note_on_c, 0, 67, 65
2, 194492, Note_on_c, 0, 67, 0
2, 194496, Note_on_c, 0, 64, 65
2, 194620, Note_on_c, 0, 72, 0
2, 194684, Note_on_c, 0, 64, 0
2, 194688, Note_on_c, 0, 76, 65
2, 194880, Note_on_c, 0, 67, 65
2, 195068, Note_on_c, 0, 67, 0
2, 195072, Note_on_c, 0, 70, 65
2, 195260, Note_on_c, 0, 70, 0
2, 195264, Note_on_c, 0, 67, 65
2, 195452, Note_on_c, 0, 67, 0
2, 195456, Note_on_c, 0, 76, 0
2, 195456, Note_on_c, 0, 70, 62
2, 195644, Note_on_c, 0, 70, 0
2, 195648, Note_on_c, 0, 67, 65
2, 195836, Note_on_c, 0, 67, 0
2, 195840, Note_on_c, 0, 79, 65
2, 196032, Note_on_c, 0, 70, 65
2, 196220, Note_on_c, 0, 70, 0
2, 196224, Note_on_c, 0, 73, 65
2, 196400, Note_on_c, 0, 70, 65
2, 196412, Note_on_c, 0, 73, 0
2, 196608, Note_on_c, 0, 79, 0
2, 196608, Note_on_c, 0, 80, 65
2, 196700, Note_on_c, 0, 80, 0
2, 196704, Note_on_c, 0, 79, 65
2, 196780, Note_on_c, 0, 70, 0
2, 196796, Note_on_c, 0, 79, 0
2, 196800, Note_on_c, 0, 77, 65
2, 196892, Note_on_c, 0, 77, 0
2, 196896, Note_on_c, 0, 76, 65
2, 196976, Note_on_c, 0, 76, 0
2, 196992, Note_on_c, 0, 76, 65
2, 197184, Note_on_c, 0, 76, 0
2, 197184, Note_on_c, 0, 77, 65
2, 197372, Note_on_c, 0, 77, 0
2, 197376, Note_on_c, 0, 72, 65
2, 197568, Note_on_c, 0, 65, 65
2, 197760, Note_on_c, 0, 65, 0
2, 197760, Note_on_c, 0, 68, 65
2, 197948, Note_on_c, 0, 68, 0
2, 197952, Note_on_c, 0, 65, 65
2, 198132, Note_on_c, 0, 65, 0
2, 198132, Note_on_c, 0, 72, 0
2, 198144, Note_on_c, 0, 73, 65
2, 198272, Note_on_c, 0, 64, 65
2, 198400, Note_on_c, 0, 64, 0
2, 198400, Note_on_c, 0, 69, 65
2, 198524, Note_on_c, 0, 69, 0
2, 198528, Note_on_c, 0, 64, 65
2, 198652, Note_on_c, 0, 64, 0
2, 198656, Note_on_c, 0, 69, 65
2, 198780, Note_on_c, 0, 69, 0
2, 198784, Note_on_c, 0, 64, 65
2, 198908, Note_on_c, 0, 64, 0
2, 198912, Note_on_c, 0, 69, 65
2, 199036, Note_on_c, 0, 69, 0
2, 199040, Note_on_c, 0, 64, 65
2, 199164, Note_on_c, 0, 64, 0
2, 199168, Note_on_c, 0, 69, 65
2, 199284, Note_on_c, 0, 69, 0
2, 199296, Note_on_c, 0, 73, 0
2, 199296, Note_on_c, 0, 76, 65
2, 199424, Note_on_c, 0, 69, 65
2, 199552, Note_on_c, 0, 69, 0
2, 199552, Note_on_c, 0, 73, 65
2, 199676, Note_on_c, 0, 73, 0
2, 199680, Note_on_c, 0, 69, 65
2, 199804, Note_on_c, 0, 69, 0
2, 199808, Note_on_c, 0, 73, 65
2, 199932, Note_on_c, 0, 73, 0
2, 199936, Note_on_c, 0, 69, 65
2, 200060, Note_on_c, 0, 69, 0
2, 200064, Note_on_c, 0, 73, 65
2, 200188, Note_on_c, 0, 73, 0
2, 200192, Note_on_c, 0, 69, 65
2, 200316, Note_on_c, 0, 69, 0
2, 200320, Note_on_c, 0, 73, 65
2, 200436, Note_on_c, 0, 73, 0
2, 200448, Note_on_c, 0, 76, 0
2, 200448, Note_on_c, 0, 79, 65
2, 200448, Note_on_c, 0, 69, 65
2, 201212, Note_on_c, 0, 69, 0
2, 201212, Note_on_c, 0, 79, 0
2, 201216, Note_on_c, 0, 78, 66
2, 201312, Note_on_c, 0, 78, 0
2, 201312, Note_on_c, 0, 76, 69
2, 201404, Note_on_c, 0, 76, 0
2, 201408, Note_on_c, 0, 74, 72
2, 201500, Note_on_c, 0, 74, 0
2, 201504, Note_on_c, 0, 73, 75
2, 201584, Note_on_c, 0, 73, 0
2, 201600, Note_on_c, 0, 83, 65
2, 201600, Note_on_c, 0, 73, 65
2, 201980, Note_on_c, 0, 73, 0
2, 201980, Note_on_c, 0, 83, 0
2, 201984, Note_on_c, 0, 81, 65
2, 202080, Note_on_c, 0, 81, 0
2, 202080, Note_on_c, 0, 79, 65
2, 202172, Note_on_c, 0, 79, 0
2, 202176, Note_on_c, 0, 78, 65
2, 202268, Note_on_c, 0, 78, 0
2, 202272, Note_on_c, 0, 76, 65
2, 202352, Note_on_c, 0, 76, 0
2, 202368, Note_on_c, 0, 73, 75
2, 202432, Note_on_c, 0, 73, 0
2, 202436, Note_on_c, 0, 88, 65
2, 202748, Note_on_c, 0, 88, 0
2, 202752, Note_on_c, 0, 86, 65
2, 202848, Note_on_c, 0, 86, 0
2, 202848, Note_on_c, 0, 85, 65
2, 202940, Note_on_c, 0, 85, 0
2, 202944, Note_on_c, 0, 83, 65
2, 203036, Note_on_c, 0, 83, 0
2, 203040, Note_on_c, 0, 81, 65
2, 203120, Note_on_c, 0, 81, 0
2, 203136, Note_on_c, 0, 69, 80
2, 203172, Note_on_c, 0, 69, 0
2, 203176, Note_on_c, 0, 91, 75
2, 203232, Note_on_c, 0, 91, 0
2, 203232, Note_on_c, 0, 88, 65
2, 203324, Note_on_c, 0, 88, 0
2, 203328, Note_on_c, 0, 91, 65
2, 203420, Note_on_c, 0, 91, 0
2, 203424, Note_on_c, 0, 88, 65
2, 203504, Note_on_c, 0, 88, 0
2, 203520, Note_on_c, 0, 85, 75
2, 203616, Note_on_c, 0, 85, 0
2, 203616, Note_on_c, 0, 88, 65
2, 203708, Note_on_c, 0, 88, 0
2, 203712, Note_on_c, 0, 85, 65
2, 203804, Note_on_c, 0, 85, 0
2, 203808, Note_on_c, 0, 88, 65
2, 203888, Note_on_c, 0, 88, 0
2, 203904, Note_on_c, 0, 81, 75
2, 204000, Note_on_c, 0, 81, 0
2, 204000, Note_on_c, 0, 85, 65
2, 204092, Note_on_c, 0, 85, 0
2, 204096, Note_on_c, 0, 81, 65
2, 204188, Note_on_c, 0, 81, 0
2, 204192, Note_on_c, 0, 85, 65
2, 204272, Note_on_c, 0, 85, 0
2, 204288, Note_on_c, 0, 79, 65
2, 204384, Note_on_c, 0, 79, 0
2, 204384, Note_on_c, 0, 81, 65
2, 204476, Note_on_c, 0, 81, 0
2, 204480, Note_on_c, 0, 76, 66
2, 204572, Note_on_c, 0, 76, 0
2, 204576, Note_on_c, 0, 79, 68
2, 204656, Note_on_c, 0, 79, 0
2, 204672, Note_on_c, 0, 73, 70
2, 204768, Note_on_c, 0, 73, 0
2, 204768, Note_on_c, 0, 76, 72
2, 204848, Note_on_c, 0, 76, 0
2, 204864, Note_on_c, 0, 69, 75
2, 204960, Note_on_c, 0, 69, 0
2, 204960, Note_on_c, 0, 73, 77
2, 205040, Note_on_c, 0, 73, 0
2, 205056, Note_on_c, 0, 67, 79
2, 205152, Note_on_c, 0, 67, 0
2, 205152, Note_on_c, 0, 69, 81
2, 205232, Note_on_c, 0, 69, 0
2, 205248, Note_on_c, 0, 64, 83
2, 205344, Note_on_c, 0, 64, 0
2, 205344, Note_on_c, 0, 67, 84
2, 205424, Note_on_c, 0, 67, 0
2, 205440, Note_on_c, 0, 61, 85
2, 206012, Note_on_c, 0, 61, 0
2, 206016, Note_on_c, 0, 64, 85
2, 206208, Note_on_c, 0, 64, 0
2, 206208, Note_on_c, 0, 69, 85
2, 206396, Note_on_c, 0, 69, 0
2, 206400, Note_on_c, 0, 71, 85
2, 206580, Note_on_c, 0, 71, 0
2, 206592, Note_on_c, 0, 73, 85
2, 206784, Note_on_c, 0, 73, 0
2, 206784, Note_on_c, 0, 69, 85
2, 206960, Note_on_c, 0, 73, 85
2, 206964, Note_on_c, 0, 69, 0
2, 207344, Note_on_c, 0, 73, 0
2, 207360, Note_on_c, 0, 74, 85
2, 207732, Note_on_c, 0, 74, 0
2, 207744, Note_on_c, 0, 76, 84
2, 208892, Note_on_c, 0, 76, 0
2, 208896, Note_on_c, 0, 77, 74
2, 208940, Note_on_c, 0, 77, 0
2, 208944, Note_on_c, 0, 78, 74
2, 208988, Note_on_c, 0, 78, 0
2, 208992, Note_on_c, 0, 76, 74
2, 209036, Note_on_c, 0, 76, 0
2, 209040, Note_on_c, 0, 78, 73
2, 209084, Note_on_c, 0, 78, 0
2, 209088, Note_on_c, 0, 77, 73
2, 209132, Note_on_c, 0, 77, 0
2, 209136, Note_on_c, 0, 78, 72
2, 209180, Note_on_c, 0, 78, 0
2, 209184, Note_on_c, 0, 77, 72
2, 209228, Note_on_c, 0, 77, 0
2, 209232, Note_on_c, 0, 78, 72
2, 209276, Note_on_c, 0, 78, 0
2, 209280, Note_on_c, 0, 77, 71
2, 209324, Note_on_c, 0, 77, 0
2, 209328, Note_on_c, 0, 78, 71
2, 209372, Note_on_c, 0, 78, 0
2, 209376, Note_on_c, 0, 77, 70
2, 209420, Note_on_c, 0, 77, 0
2, 209424, Note_on_c, 0, 78, 70
2, 209468, Note_on_c, 0, 78, 0
2, 209472, Note_on_c, 0, 77, 69
2, 209516, Note_on_c, 0, 77, 0
2, 209520, Note_on_c, 0, 78, 69
2, 209564, Note_on_c, 0, 78, 0
2, 209568, Note_on_c, 0, 77, 69
2, 209612, Note_on_c, 0, 77, 0
2, 209616, Note_on_c, 0, 78, 68
2, 209660, Note_on_c, 0, 78, 0
2, 209664, Note_on_c, 0, 77, 68
2, 209708, Note_on_c, 0, 77, 0
2, 209712, Note_on_c, 0, 78, 67
2, 209756, Note_on_c, 0, 78, 0
2, 209760, Note_on_c, 0, 77, 67
2, 209804, Note_on_c, 0, 77, 0
2, 209808, Note_on_c, 0, 78, 67
2, 209852, Note_on_c, 0, 78, 0
2, 209856, Note_on_c, 0, 76, 66
2, 209944, Note_on_c, 0, 76, 0
2, 209952, Note_on_c, 0, 77, 65
2, 210040, Note_on_c, 0, 77, 0
2, 210048, Note_on_c, 0, 78, 65
2, 210624, Note_on_c, 0, 78, 0
2, 210624, Note_on_c, 0, 79, 65
2, 210812, Note_on_c, 0, 79, 0
2, 210816, Note_on_c, 0, 80, 65
2, 211004, Note_on_c, 0, 80, 0
2, 211008, Note_on_c, 0, 81, 65
2, 211188, Note_on_c, 0, 81, 0
2, 211200, Note_on_c, 0, 83, 65
2, 211304, Note_on_c, 0, 83, 0
2, 211392, Note_on_c, 0, 81, 65
2, 211480, Note_on_c, 0, 81, 0
2, 211584, Note_on_c, 0, 79, 65
2, 211684, Note_on_c, 0, 79, 0
2, 211776, Note_on_c, 0, 78, 65
2, 211876, Note_on_c, 0, 78, 0
2, 211968, Note_on_c, 0, 76, 65
2, 212068, Note_on_c, 0, 76, 0
2, 212160, Note_on_c, 0, 74, 65
2, 212260, Note_on_c, 0, 74, 0
2, 212352, Note_on_c, 0, 76, 65
2, 212540, Note_on_c, 0, 76, 0
2, 212736, Note_on_c, 0, 76, 65
2, 212928, Note_on_c, 0, 76, 0
2, 213120, Note_on_c, 0, 78, 65
2, 213292, Note_on_c, 0, 78, 0
2, 213504, Note_on_c, 0, 78, 65
2, 213792, Note_on_c, 0, 78, 0
2, 213792, Note_on_c, 0, 79, 65
2, 213872, Note_on_c, 0, 79, 0
2, 213888, Note_on_c, 0, 76, 65
2, 214076, Note_on_c, 0, 76, 0
2, 214656, Note_on_c, 0, 74, 65
2, 214848, Note_on_c, 0, 74, 0
2, 214848, Note_on_c, 0, 76, 65
2, 215036, Note_on_c, 0, 76, 0
2, 215040, Note_on_c, 0, 78, 65
2, 215228, Note_on_c, 0, 78, 0
2, 215232, Note_on_c, 0, 74, 65
2, 215420, Note_on_c, 0, 74, 0
2, 215424, Note_on_c, 0, 73, 65
2, 215612, Note_on_c, 0, 73, 0
2, 215616, Note_on_c, 0, 69, 65
2, 215796, Note_on_c, 0, 69, 0
2, 215808, Note_on_c, 0, 74, 65
2, 216000, Note_on_c, 0, 74, 0
2, 216000, Note_on_c, 0, 76, 65
2, 216188, Note_on_c, 0, 76, 0
2, 216192, Note_on_c, 0, 78, 65
2, 216380, Note_on_c, 0, 78, 0
2, 216384, Note_on_c, 0, 74, 65
2, 216572, Note_on_c, 0, 74, 0
2, 216576, Note_on_c, 0, 73, 65
2, 216764, Note_on_c, 0, 73, 0
2, 216768, Note_on_c, 0, 69, 65
2, 216948, Note_on_c, 0, 69, 0
2, 216960, Note_on_c, 0, 74, 65
2, 217152, Note_on_c, 0, 74, 0
2, 217152, Note_on_c, 0, 78, 65
2, 217332, Note_on_c, 0, 78, 0
2, 217344, Note_on_c, 0, 81, 65
2, 217536, Note_on_c, 0, 81, 0
2, 217536, Note_on_c, 0, 78, 65
2, 217716, Note_on_c, 0, 78, 0
2, 217728, Note_on_c, 0, 83, 65
2, 217920, Note_on_c, 0, 83, 0
2, 217920, Note_on_c, 0, 79, 65
2, 218100, Note_on_c, 0, 79, 0
2, 218112, Note_on_c, 0, 78, 65
2, 218880, Note_on_c, 0, 78, 0
2, 218880, Note_on_c, 0, 76, 65
2, 219252, Note_on_c, 0, 76, 0
2, 223872, Note_on_c, 0, 78, 85
2, 224000, Note_on_c, 0, 78, 0
2, 224000, Note_on_c, 0, 81, 85
2, 224116, Note_on_c, 0, 81, 0
2, 224128, Note_on_c, 0, 81, 85
2, 224192, Note_on_c, 0, 81, 0
2, 224256, Note_on_c, 0, 86, 85
2, 224384, Note_on_c, 0, 86, 0
2, 224384, Note_on_c, 0, 81, 85
2, 224500, Note_on_c, 0, 81, 0
2, 224512, Note_on_c, 0, 81, 85
2, 224576, Note_on_c, 0, 81, 0
2, 224640, Note_on_c, 0, 78, 85
2, 224768, Note_on_c, 0, 78, 0
2, 224768, Note_on_c, 0, 81, 85
2, 224884, Note_on_c, 0, 81, 0
2, 224896, Note_on_c, 0, 81, 85
2, 224960, Note_on_c, 0, 81, 0
2, 225024, Note_on_c, 0, 76, 85
2, 225152, Note_on_c, 0, 76, 0
2, 225152, Note_on_c, 0, 81, 85
2, 225268, Note_on_c, 0, 81, 0
2, 225280, Note_on_c, 0, 81, 85
2, 225344, Note_on_c, 0, 81, 0
2, 225408, Note_on_c, 0, 88, 85
2, 225536, Note_on_c, 0, 88, 0
2, 225536, Note_on_c, 0, 81, 85
2, 225652, Note_on_c, 0, 81, 0
2, 225664, Note_on_c, 0, 81, 85
2, 225728, Note_on_c, 0, 81, 0
2, 225792, Note_on_c, 0, 79, 85
2, 225920, Note_on_c, 0, 79, 0
2, 225920, Note_on_c, 0, 81, 85
2, 226036, Note_on_c, 0, 81, 0
2, 226048, Note_on_c, 0, 81, 85
2, 226112, Note_on_c, 0, 81, 0
2, 226176, Note_on_c, 0, 78, 65
2, 226304, Note_on_c, 0, 78, 0
2, 226304, Note_on_c, 0, 81, 65
2, 226420, Note_on_c, 0, 81, 0
2, 226432, Note_on_c, 0, 81, 65
2, 226496, Note_on_c, 0, 81, 0
2, 226560, Note_on_c, 0, 86, 65
2, 226688, Note_on_c, 0, 86, 0
2, 226688, Note_on_c, 0, 81, 65
2, 226804, Note_on_c, 0, 81, 0
2, 226816, Note_on_c, 0, 81, 65
2, 226880, Note_on_c, 0, 81, 0
2, 226944, Note_on_c, 0, 78, 65
2, 227072, Note_on_c, 0, 78, 0
2, 227072, Note_on_c, 0, 81, 65
2, 227188, Note_on_c, 0, 81, 0
2, 227200, Note_on_c, 0, 81, 65
2, 227264, Note_on_c, 0, 81, 0
2, 227328, Note_on_c, 0, 76, 65
2, 227456, Note_on_c, 0, 76, 0
2, 227456, Note_on_c, 0, 81, 65
2, 227572, Note_on_c, 0, 81, 0
2, 227584, Note_on_c, 0, 81, 65
2, 227648, Note_on_c, 0, 81, 0
2, 227712, Note_on_c, 0, 88, 65
2, 227840, Note_on_c, 0, 88, 0
2, 227840, Note_on_c, 0, 81, 65
2, 227956, Note_on_c, 0, 81, 0
2, 227968, Note_on_c, 0, 81, 65
2, 228032, Note_on_c, 0, 81, 0
2, 228096, Note_on_c, 0, 79, 65
2, 228224, Note_on_c, 0, 79, 0
2, 228224, Note_on_c, 0, 81, 65
2, 228340, Note_on_c, 0, 81, 0
2, 228352, Note_on_c, 0, 81, 65
2, 228416, Note_on_c, 0, 81, 0
2, 228480, Note_on_c, 0, 78, 65
2, 229056, Note_on_c, 0, 78, 0
2, 229056, Note_on_c, 0, 79, 65
2, 229244, Note_on_c, 0, 79, 0
2, 229248, Note_on_c, 0, 80, 65
2, 229436, Note_on_c, 0, 80, 0
2, 229440, Note_on_c, 0, 81, 65
2, 229620, Note_on_c, 0, 81, 0
2, 229632, Note_on_c, 0, 83, 75
2, 229824, Note_on_c, 0, 83, 0
2, 229824, Note_on_c, 0, 81, 65
2, 230004, Note_on_c, 0, 81, 0
2, 230016, Note_on_c, 0, 79, 65
2, 230116, Note_on_c, 0, 79, 0
2, 230208, Note_on_c, 0, 78, 65
2, 230308, Note_on_c, 0, 78, 0
2, 230400, Note_on_c, 0, 76, 65
2, 230500, Note_on_c, 0, 76, 0
2, 230592, Note_on_c, 0, 74, 65
2, 230692, Note_on_c, 0, 74, 0
2, 230784, Note_on_c, 0, 76, 65
2, 231072, Note_on_c, 0, 76, 0
2, 231072, Note_on_c, 0, 78, 65
2, 231120, Note_on_c, 0, 78, 0
2, 231120, Note_on_c, 0, 79, 65
2, 231160, Note_on_c, 0, 79, 0
2, 231168, Note_on_c, 0, 78, 65
2, 231552, Note_on_c, 0, 78, 0
2, 231552, Note_on_c, 0, 76, 65
2, 231936, Note_on_c, 0, 76, 0
2, 231936, Note_on_c, 0, 78, 66
2, 232512, Note_on_c, 0, 78, 0
2, 232512, Note_on_c, 0, 79, 69
2, 232696, Note_on_c, 0, 79, 0
2, 232704, Note_on_c, 0, 80, 70
2, 232888, Note_on_c, 0, 80, 0
2, 232896, Note_on_c, 0, 81, 71
2, 233076, Note_on_c, 0, 81, 0
2, 233088, Note_on_c, 0, 83, 72
2, 233280, Note_on_c, 0, 83, 0
2, 233280, Note_on_c, 0, 81, 73
2, 233460, Note_on_c, 0, 81, 0
2, 233472, Note_on_c, 0, 79, 74
2, 233572, Note_on_c, 0, 79, 0
2, 233664, Note_on_c, 0, 78, 75
2, 233764, Note_on_c, 0, 78, 0
2, 233856, Note_on_c, 0, 76, 76
2, 233956, Note_on_c, 0, 76, 0
2, 234048, Note_on_c, 0, 74, 77
2, 234148, Note_on_c, 0, 74, 0
2, 234240, Note_on_c, 0, 86, 78
2, 234368, Note_on_c, 0, 86, 0
2, 234368, Note_on_c, 0, 83, 79
2, 234484, Note_on_c, 0, 83, 0
2, 234496, Note_on_c, 0, 79, 80
2, 234560, Note_on_c, 0, 79, 0
2, 234624, Note_on_c, 0, 78, 80
2, 235004, Note_on_c, 0, 78, 0
2, 235008, Note_on_c, 0, 76, 82
2, 235056, Note_on_c, 0, 76, 0
2, 235056, Note_on_c, 0, 78, 83
2, 235100, Note_on_c, 0, 78, 0
2, 235104, Note_on_c, 0, 76, 83
2, 235148, Note_on_c, 0, 76, 0
2, 235152, Note_on_c, 0, 78, 83
2, 235196, Note_on_c, 0, 78, 0
2, 235200, Note_on_c, 0, 76, 83
2, 235244, Note_on_c, 0, 76, 0
2, 235248, Note_on_c, 0, 78, 84
2, 235292, Note_on_c, 0, 78, 0
2, 235296, Note_on_c, 0, 74, 84
2, 235340, Note_on_c, 0, 74, 0
2, 235344, Note_on_c, 0, 76, 84
2, 235392, Note_on_c, 0, 76, 0
2, 235392, Note_on_c, 0, 86, 85
2, 235440, Note_on_c, 0, 86, 0
2, 235440, Note_on_c, 0, 88, 85
2, 235484, Note_on_c, 0, 88, 0
2, 235488, Note_on_c, 0, 85, 85
2, 235580, Note_on_c, 0, 85, 0
2, 235584, Note_on_c, 0, 86, 85
2, 235676, Note_on_c, 0, 86, 0
2, 235680, Note_on_c, 0, 88, 85
2, 235760, Note_on_c, 0, 88, 0
2, 235776, Note_on_c, 0, 90, 85
2, 235964, Note_on_c, 0, 90, 0
2, 236544, Note_on_c, 0, 83, 85
2, 236592, Note_on_c, 0, 83, 0
2, 236592, Note_on_c, 0, 85, 85
2, 236636, Note_on_c, 0, 85, 0
2, 236640, Note_on_c, 0, 81, 85
2, 236732, Note_on_c, 0, 81, 0
2, 236736, Note_on_c, 0, 83, 85
2, 236828, Note_on_c, 0, 83, 0
2, 236832, Note_on_c, 0, 85, 85
2, 236912, Note_on_c, 0, 85, 0
2, 236928, Note_on_c, 0, 86, 85
2, 237116, Note_on_c, 0, 86, 0
2, 237696, Note_on_c, 0, 81, 85
2, 238268, Note_on_c, 0, 81, 0
2, 238272, Note_on_c, 0, 83, 85
2, 238368, Note_on_c, 0, 83, 0
2, 238368, Note_on_c, 0, 81, 85
2, 238448, Note_on_c, 0, 81, 0
2, 238464, Note_on_c, 0, 79, 85
2, 238560, Note_on_c, 0, 79, 0
2, 238560, Note_on_c, 0, 78, 85
2, 238640, Note_on_c, 0, 78, 0
2, 238656, Note_on_c, 0, 76, 85
2, 238752, Note_on_c, 0, 76, 0
2, 238752, Note_on_c, 0, 74, 85
2, 238832, Note_on_c, 0, 74, 0
2, 238848, Note_on_c, 0, 76, 85
2, 238892, Note_on_c, 0, 76, 0
2, 238896, Note_on_c, 0, 78, 85
2, 238940, Note_on_c, 0, 78, 0
2, 238944, Note_on_c, 0, 76, 85
2, 238988, Note_on_c, 0, 76, 0
2, 238992, Note_on_c, 0, 78, 85
2, 239036, Note_on_c, 0, 78, 0
2, 239040, Note_on_c, 0, 76, 85
2, 239084, Note_on_c, 0, 76, 0
2, 239088, Note_on_c, 0, 78, 85
2, 239132, Note_on_c, 0, 78, 0
2, 239136, Note_on_c, 0, 76, 85
2, 239180, Note_on_c, 0, 76, 0
2, 239184, Note_on_c, 0, 78, 85
2, 239228, Note_on_c, 0, 78, 0
2, 239232, Note_on_c, 0, 76, 85
2, 239276, Note_on_c, 0, 76, 0
2, 239280, Note_on_c, 0, 78, 85
2, 239324, Note_on_c, 0, 78, 0
2, 239328, Note_on_c, 0, 76, 85
2, 239372, Note_on_c, 0, 76, 0
2, 239376, Note_on_c, 0, 78, 85
2, 239420, Note_on_c, 0, 78, 0
2, 239424, Note_on_c, 0, 76, 85
2, 239468, Note_on_c, 0, 76, 0
2, 239472, Note_on_c, 0, 78, 85
2, 239516, Note_on_c, 0, 78, 0
2, 239520, Note_on_c, 0, 76, 85
2, 239564, Note_on_c, 0, 76, 0
2, 239568, Note_on_c, 0, 78, 85
2, 239612, Note_on_c, 0, 78, 0
2, 239616, Note_on_c, 0, 76, 85
2, 239660, Note_on_c, 0, 76, 0
2, 239664, Note_on_c, 0, 78, 85
2, 239708, Note_on_c, 0, 78, 0
2, 239712, Note_on_c, 0, 76, 85
2, 239756, Note_on_c, 0, 76, 0
2, 239760, Note_on_c, 0, 78, 85
2, 239804, Note_on_c, 0, 78, 0
2, 239808, Note_on_c, 0, 74, 85
2, 239900, Note_on_c, 0, 74, 0
2, 239904, Note_on_c, 0, 76, 85
2, 239996, Note_on_c, 0, 76, 0
2, 240000, Note_on_c, 0, 74, 85
2, 240380, Note_on_c, 0, 74, 0
2, 240380, End_track
3, 0, Start_track
3, 0, MIDI_port, 0
3, 0, Title_t, "Concerto  #2"
3, 0, Control_c, 1, 0, 0
3, 0, Control_c, 1, 32, 0
3, 0, Program_c, 1, 48
3, 0, Control_c, 1, 7, 127
3, 0, Control_c, 1, 10, 48
3, 0, Control_c, 1, 91, 72
3, 0, Control_c, 1, 93, 0
3, 0, Control_c, 1, 121, 0
3, 192, Control_c, 1, 10, 53
3, 384, Control_c, 1, 91, 73
3, 576, Program_c, 1, 48
3, 1152, Note_on_c, 1, 62, 65
3, 1728, Note_on_c, 1, 62, 0
3, 1728, Note_on_c, 1, 64, 65
3, 1916, Note_on_c, 1, 64, 0
3, 1920, Note_on_c, 1, 65, 65
3, 2108, Note_on_c, 1, 65, 0
3, 2112, Note_on_c, 1, 66, 65
3, 2296, Note_on_c, 1, 66, 0
3, 2304, Note_on_c, 1, 66, 65
3, 2492, Note_on_c, 1, 66, 0
3, 3456, Note_on_c, 1, 61, 65
3, 3456, Note_on_c, 1, 57, 65
3, 3644, Note_on_c, 1, 57, 0
3, 3644, Note_on_c, 1, 61, 0
3, 3840, Note_on_c, 1, 61, 65
3, 4028, Note_on_c, 1, 61, 0
3, 4224, Note_on_c, 1, 62, 65
3, 4412, Note_on_c, 1, 62, 0
3, 4608, Note_on_c, 1, 62, 65
3, 4896, Note_on_c, 1, 62, 0
3, 4896, Note_on_c, 1, 64, 65
3, 4976, Note_on_c, 1, 64, 0
3, 4992, Note_on_c, 1, 61, 65
3, 4992, Note_on_c, 1, 57, 65
3, 5188, Note_on_c, 1, 61, 0
3, 5368, Note_on_c, 1, 57, 0
3, 5376, Note_on_c, 1, 67, 65
3, 5744, Note_on_c, 1, 67, 0
3, 5760, Note_on_c, 1, 66, 65
3, 5760, Note_on_c, 1, 69, 65
3, 6144, Note_on_c, 1, 66, 0
3, 6144, Note_on_c, 1, 62, 65
3, 6516, Note_on_c, 1, 62, 0
3, 6528, Note_on_c, 1, 67, 65
3, 6716, Note_on_c, 1, 67, 0
3, 6912, Note_on_c, 1, 66, 65
3, 7296, Note_on_c, 1, 66, 0
3, 7296, Note_on_c, 1, 62, 65
3, 7668, Note_on_c, 1, 62, 0
3, 7680, Note_on_c, 1, 67, 65
3, 7868, Note_on_c, 1, 67, 0
3, 8064, Note_on_c, 1, 66, 65
3, 8252, Note_on_c, 1, 66, 0
3, 8448, Note_on_c, 1, 69, 0
3, 8448, Note_on_c, 1, 62, 65
3, 8448, Note_on_c, 1, 66, 65
3, 8636, Note_on_c, 1, 62, 0
3, 8640, Note_on_c, 1, 66, 0
3, 8640, Note_on_c, 1, 69, 65
3, 8828, Note_on_c, 1, 69, 0
3, 8832, Note_on_c, 1, 67, 65
3, 9020, Note_on_c, 1, 67, 0
3, 9024, Note_on_c, 1, 64, 65
3, 9204, Note_on_c, 1, 64, 0
3, 9216, Note_on_c, 1, 62, 65
3, 9984, Note_on_c, 1, 62, 0
3, 9984, Note_on_c, 1, 61, 65
3, 10356, Note_on_c, 1, 61, 0
3, 10368, Note_on_c, 1, 78, 85
3, 10368, Note_on_c, 1, 74, 85
3, 10944, Note_on_c, 1, 74, 0
3, 10944, Note_on_c, 1, 78, 0
3, 10944, Note_on_c, 1, 79, 85
3, 10944, Note_on_c, 1, 76, 85
3, 11132, Note_on_c, 1, 76, 0
3, 11132, Note_on_c, 1, 79, 0
3, 11136, Note_on_c, 1, 80, 85
3, 11136, Note_on_c, 1, 77, 85
3, 11324, Note_on_c, 1, 77, 0
3, 11324, Note_on_c, 1, 80, 0
3, 11328, Note_on_c, 1, 78, 85
3, 11328, Note_on_c, 1, 81, 85
3, 11508, Note_on_c, 1, 81, 0
3, 11508, Note_on_c, 1, 78, 0
3, 11520, Note_on_c, 1, 78, 85
3, 11520, Note_on_c, 1, 83, 85
3, 11520, Note_on_c, 1, 74, 85
3, 11712, Note_on_c, 1, 83, 0
3, 11712, Note_on_c, 1, 81, 85
3, 11892, Note_on_c, 1, 81, 0
3, 11900, Note_on_c, 1, 74, 0
3, 11900, Note_on_c, 1, 78, 0
3, 11904, Note_on_c, 1, 79, 85
3, 12004, Note_on_c, 1, 79, 0
3, 12096, Note_on_c, 1, 78, 85
3, 12196, Note_on_c, 1, 78, 0
3, 12288, Note_on_c, 1, 76, 85
3, 12388, Note_on_c, 1, 76, 0
3, 12480, Note_on_c, 1, 74, 85
3, 12580, Note_on_c, 1, 74, 0
3, 12672, Note_on_c, 1, 76, 85
3, 12672, Note_on_c, 1, 73, 85
3, 12672, Note_on_c, 1, 69, 85
3, 12860, Note_on_c, 1, 69, 0
3, 12860, Note_on_c, 1, 73, 0
3, 12860, Note_on_c, 1, 76, 0
3, 13056, Note_on_c, 1, 76, 85
3, 13056, Note_on_c, 1, 73, 85
3, 13056, Note_on_c, 1, 64, 85
3, 13244, Note_on_c, 1, 64, 0
3, 13244, Note_on_c, 1, 73, 0
3, 13244, Note_on_c, 1, 76, 0
3, 13440, Note_on_c, 1, 78, 85
3, 13440, Note_on_c, 1, 74, 85
3, 13440, Note_on_c, 1, 66, 85
3, 13628, Note_on_c, 1, 66, 0
3, 13628, Note_on_c, 1, 74, 0
3, 13628, Note_on_c, 1, 78, 0
3, 13824, Note_on_c, 1, 78, 85
3, 13824, Note_on_c, 1, 74, 85
3, 13824, Note_on_c, 1, 66, 85
3, 14112, Note_on_c, 1, 66, 0
3, 14112, Note_on_c, 1, 74, 0
3, 14112, Note_on_c, 1, 78, 0
3, 14112, Note_on_c, 1, 79, 85
3, 14112, Note_on_c, 1, 76, 85
3, 14192, Note_on_c, 1, 76, 0
3, 14192, Note_on_c, 1, 79, 0
3, 14208, Note_on_c, 1, 76, 85
3, 14208, Note_on_c, 1, 73, 85
3, 14208, Note_on_c, 1, 64, 85
3, 14396, Note_on_c, 1, 64, 0
3, 14396, Note_on_c, 1, 73, 0
3, 14396, Note_on_c, 1, 76, 0
3, 14976, Note_on_c, 1, 74, 85
3, 15168, Note_on_c, 1, 74, 0
3, 15168, Note_on_c, 1, 86, 85
3, 15348, Note_on_c, 1, 86, 0
3, 15360, Note_on_c, 1, 85, 85
3, 15552, Note_on_c, 1, 85, 0
3, 15552, Note_on_c, 1, 86, 85
3, 15732, Note_on_c, 1, 86, 0
3, 15744, Note_on_c, 1, 83, 85
3, 15936, Note_on_c, 1, 83, 0
3, 15936, Note_on_c, 1, 85, 85
3, 16116, Note_on_c, 1, 85, 0
3, 16128, Note_on_c, 1, 76, 85
3, 16128, Note_on_c, 1, 81, 85
3, 16320, Note_on_c, 1, 81, 0
3, 16320, Note_on_c, 1, 83, 85
3, 16500, Note_on_c, 1, 83, 0
3, 16508, Note_on_c, 1, 76, 0
3, 16512, Note_on_c, 1, 73, 85
3, 16512, Note_on_c, 1, 79, 85
3, 16704, Note_on_c, 1, 79, 0
3, 16704, Note_on_c, 1, 81, 85
3, 16884, Note_on_c, 1, 81, 0
3, 16892, Note_on_c, 1, 73, 0
3, 16896, Note_on_c, 1, 74, 85
3, 16896, Note_on_c, 1, 78, 85
3, 17088, Note_on_c, 1, 78, 0
3, 17088, Note_on_c, 1, 79, 85
3, 17268, Note_on_c, 1, 79, 0
3, 17276, Note_on_c, 1, 74, 0
3, 17280, Note_on_c, 1, 78, 85
3, 17280, Note_on_c, 1, 71, 85
3, 17472, Note_on_c, 1, 78, 0
3, 17472, Note_on_c, 1, 76, 85
3, 17652, Note_on_c, 1, 76, 0
3, 17664, Note_on_c, 1, 79, 85
3, 17856, Note_on_c, 1, 79, 0
3, 17856, Note_on_c, 1, 71, 0
3, 17856, Note_on_c, 1, 76, 85
3, 17856, Note_on_c, 1, 67, 85
3, 18036, Note_on_c, 1, 67, 0
3, 18036, Note_on_c, 1, 76, 0
3, 18048, Note_on_c, 1, 66, 85
3, 18048, Note_on_c, 1, 74, 88
3, 18088, Note_on_c, 1, 74, 0
3, 18096, Note_on_c, 1, 76, 88
3, 18136, Note_on_c, 1, 76, 0
3, 18144, Note_on_c, 1, 74, 88
3, 18184, Note_on_c, 1, 74, 0
3, 18192, Note_on_c, 1, 76, 88
3, 18232, Note_on_c, 1, 76, 0
3, 18240, Note_on_c, 1, 66, 0
3, 18240, Note_on_c, 1, 73, 85
3, 18240, Note_on_c, 1, 67, 85
3, 18240, Note_on_c, 1, 64, 85
3, 18420, Note_on_c, 1, 64, 0
3, 18420, Note_on_c, 1, 67, 0
3, 18420, Note_on_c, 1, 73, 0
3, 18432, Note_on_c, 1, 73, 85
3, 18432, Note_on_c, 1, 67, 85
3, 18432, Note_on_c, 1, 64, 85
3, 18520, Note_on_c, 1, 64, 0
3, 18520, Note_on_c, 1, 67, 0
3, 18520, Note_on_c, 1, 73, 0
3, 18528, Note_on_c, 1, 74, 85
3, 18528, Note_on_c, 1, 66, 85
3, 18812, Note_on_c, 1, 66, 0
3, 18812, Note_on_c, 1, 74, 0
3, 18816, Note_on_c, 1, 62, 85
3, 19004, Note_on_c, 1, 62, 0
3, 19776, Note_on_c, 1, 69, 75
3, 19776, Note_on_c, 1, 66, 75
3, 19776, Note_on_c, 1, 62, 75
3, 19964, Note_on_c, 1, 62, 0
3, 19964, Note_on_c, 1, 66, 0
3, 19964, Note_on_c, 1, 69, 0
3, 19968, Note_on_c, 1, 69, 75
3, 19968, Note_on_c, 1, 66, 75
3, 19968, Note_on_c, 1, 62, 75
3, 20156, Note_on_c, 1, 62, 0
3, 20156, Note_on_c, 1, 66, 0
3, 20156, Note_on_c, 1, 69, 0
3, 20160, Note_on_c, 1, 69, 75
3, 20160, Note_on_c, 1, 66, 75
3, 20348, Note_on_c, 1, 66, 0
3, 20348, Note_on_c, 1, 69, 0
3, 20352, Note_on_c, 1, 69, 75
3, 20352, Note_on_c, 1, 66, 75
3, 20540, Note_on_c, 1, 66, 0
3, 20540, Note_on_c, 1, 69, 0
3, 20544, Note_on_c, 1, 69, 75
3, 20544, Note_on_c, 1, 66, 75
3, 20732, Note_on_c, 1, 66, 0
3, 20732, Note_on_c, 1, 69, 0
3, 20928, Note_on_c, 1, 69, 75
3, 20928, Note_on_c, 1, 67, 75
3, 20928, Note_on_c, 1, 64, 75
3, 21116, Note_on_c, 1, 64, 0
3, 21116, Note_on_c, 1, 67, 0
3, 21116, Note_on_c, 1, 69, 0
3, 21120, Note_on_c, 1, 69, 75
3, 21120, Note_on_c, 1, 67, 75
3, 21120, Note_on_c, 1, 64, 75
3, 21308, Note_on_c, 1, 64, 0
3, 21308, Note_on_c, 1, 67, 0
3, 21308, Note_on_c, 1, 69, 0
3, 21312, Note_on_c, 1, 69, 75
3, 21312, Note_on_c, 1, 67, 75
3, 21312, Note_on_c, 1, 64, 75
3, 21500, Note_on_c, 1, 64, 0
3, 21500, Note_on_c, 1, 67, 0
3, 21500, Note_on_c, 1, 69, 0
3, 21504, Note_on_c, 1, 69, 75
3, 21504, Note_on_c, 1, 67, 75
3, 21504, Note_on_c, 1, 64, 75
3, 21692, Note_on_c, 1, 64, 0
3, 21692, Note_on_c, 1, 67, 0
3, 21692, Note_on_c, 1, 69, 0
3, 21696, Note_on_c, 1, 69, 75
3, 21696, Note_on_c, 1, 67, 75
3, 21696, Note_on_c, 1, 64, 75
3, 21884, Note_on_c, 1, 64, 0
3, 21884, Note_on_c, 1, 67, 0
3, 21884, Note_on_c, 1, 69, 0
3, 22080, Note_on_c, 1, 66, 65
3, 22080, Note_on_c, 1, 62, 65
3, 22080, Note_on_c, 1, 69, 65
3, 22268, Note_on_c, 1, 69, 0
3, 22268, Note_on_c, 1, 62, 0
3, 22268, Note_on_c, 1, 66, 0
3, 22272, Note_on_c, 1, 69, 65
3, 22272, Note_on_c, 1, 66, 65
3, 22272, Note_on_c, 1, 62, 65
3, 22460, Note_on_c, 1, 62, 0
3, 22460, Note_on_c, 1, 66, 0
3, 22460, Note_on_c, 1, 69, 0
3, 22464, Note_on_c, 1, 69, 65
3, 22464, Note_on_c, 1, 66, 65
3, 22652, Note_on_c, 1, 66, 0
3, 22652, Note_on_c, 1, 69, 0
3, 22656, Note_on_c, 1, 66, 65
3, 22656, Note_on_c, 1, 69, 65
3, 22844, Note_on_c, 1, 69, 0
3, 22844, Note_on_c, 1, 66, 0
3, 22848, Note_on_c, 1, 69, 65
3, 22848, Note_on_c, 1, 66, 65
3, 23036, Note_on_c, 1, 66, 0
3, 23036, Note_on_c, 1, 69, 0
3, 23232, Note_on_c, 1, 69, 65
3, 23232, Note_on_c, 1, 67, 65
3, 23232, Note_on_c, 1, 64, 65
3, 23420, Note_on_c, 1, 64, 0
3, 23420, Note_on_c, 1, 67, 0
3, 23420, Note_on_c, 1, 69, 0
3, 23424, Note_on_c, 1, 69, 65
3, 23424, Note_on_c, 1, 67, 65
3, 23424, Note_on_c, 1, 64, 65
3, 23612, Note_on_c, 1, 64, 0
3, 23612, Note_on_c, 1, 67, 0
3, 23612, Note_on_c, 1, 69, 0
3, 23616, Note_on_c, 1, 69, 65
3, 23616, Note_on_c, 1, 67, 65
3, 23616, Note_on_c, 1, 64, 65
3, 23804, Note_on_c, 1, 64, 0
3, 23804, Note_on_c, 1, 67, 0
3, 23804, Note_on_c, 1, 69, 0
3, 23808, Note_on_c, 1, 69, 65
3, 23808, Note_on_c, 1, 67, 65
3, 23808, Note_on_c, 1, 64, 65
3, 23996, Note_on_c, 1, 64, 0
3, 23996, Note_on_c, 1, 67, 0
3, 23996, Note_on_c, 1, 69, 0
3, 24000, Note_on_c, 1, 69, 65
3, 24000, Note_on_c, 1, 67, 65
3, 24000, Note_on_c, 1, 64, 65
3, 24188, Note_on_c, 1, 64, 0
3, 24188, Note_on_c, 1, 67, 0
3, 24188, Note_on_c, 1, 69, 0
3, 24192, Note_on_c, 1, 69, 65
3, 24192, Note_on_c, 1, 66, 65
3, 24192, Note_on_c, 1, 62, 65
3, 24572, Note_on_c, 1, 62, 0
3, 24572, Note_on_c, 1, 66, 0
3, 24572, Note_on_c, 1, 69, 0
3, 24960, Note_on_c, 1, 74, 65
3, 24960, Note_on_c, 1, 64, 65
3, 25340, Note_on_c, 1, 64, 0
3, 25340, Note_on_c, 1, 74, 0
3, 25344, Note_on_c, 1, 73, 65
3, 25344, Note_on_c, 1, 69, 65
3, 25344, Note_on_c, 1, 66, 65
3, 25724, Note_on_c, 1, 66, 0
3, 25724, Note_on_c, 1, 69, 0
3, 25724, Note_on_c, 1, 73, 0
3, 26112, Note_on_c, 1, 76, 65
3, 26492, Note_on_c, 1, 76, 0
3, 26496, Note_on_c, 1, 76, 75
3, 26876, Note_on_c, 1, 76, 0
3, 26880, Note_on_c, 1, 69, 75
3, 27260, Note_on_c, 1, 69, 0
3, 27264, Note_on_c, 1, 66, 75
3, 27552, Note_on_c, 1, 66, 0
3, 27552, Note_on_c, 1, 71, 75
3, 27632, Note_on_c, 1, 71, 0
3, 27648, Note_on_c, 1, 73, 75
3, 27744, Note_on_c, 1, 73, 0
3, 27744, Note_on_c, 1, 71, 75
3, 27836, Note_on_c, 1, 71, 0
3, 27840, Note_on_c, 1, 69, 75
3, 27932, Note_on_c, 1, 69, 0
3, 27936, Note_on_c, 1, 68, 75
3, 28016, Note_on_c, 1, 68, 0
3, 28032, Note_on_c, 1, 68, 75
3, 28412, Note_on_c, 1, 68, 0
3, 28800, Note_on_c, 1, 71, 65
3, 28992, Note_on_c, 1, 71, 0
3, 28992, Note_on_c, 1, 76, 65
3, 29180, Note_on_c, 1, 76, 0
3, 29184, Note_on_c, 1, 74, 65
3, 29372, Note_on_c, 1, 74, 0
3, 29376, Note_on_c, 1, 76, 65
3, 29564, Note_on_c, 1, 76, 0
3, 29568, Note_on_c, 1, 71, 65
3, 29568, Note_on_c, 1, 68, 65
3, 29756, Note_on_c, 1, 71, 0
3, 29760, Note_on_c, 1, 76, 65
3, 29940, Note_on_c, 1, 76, 0
3, 29948, Note_on_c, 1, 68, 0
3, 29952, Note_on_c, 1, 69, 65
3, 30144, Note_on_c, 1, 76, 65
3, 30332, Note_on_c, 1, 69, 0
3, 30336, Note_on_c, 1, 76, 0
3, 30336, Note_on_c, 1, 73, 65
3, 30524, Note_on_c, 1, 73, 0
3, 30528, Note_on_c, 1, 76, 65
3, 30716, Note_on_c, 1, 76, 0
3, 30720, Note_on_c, 1, 69, 65
3, 30720, Note_on_c, 1, 57, 65
3, 30908, Note_on_c, 1, 69, 0
3, 30912, Note_on_c, 1, 76, 65
3, 31092, Note_on_c, 1, 76, 0
3, 31100, Note_on_c, 1, 57, 0
3, 31104, Note_on_c, 1, 71, 65
3, 31104, Note_on_c, 1, 56, 65
3, 31296, Note_on_c, 1, 71, 0
3, 31296, Note_on_c, 1, 76, 65
3, 31484, Note_on_c, 1, 76, 0
3, 31484, Note_on_c, 1, 56, 0
3, 31488, Note_on_c, 1, 74, 65
3, 31676, Note_on_c, 1, 74, 0
3, 31680, Note_on_c, 1, 76, 65
3, 31680, Note_on_c, 1, 68, 65
3, 31868, Note_on_c, 1, 68, 0
3, 31868, Note_on_c, 1, 76, 0
3, 31872, Note_on_c, 1, 71, 65
3, 31872, Note_on_c, 1, 68, 65
3, 32060, Note_on_c, 1, 68, 0
3, 32060, Note_on_c, 1, 71, 0
3, 32064, Note_on_c, 1, 76, 65
3, 32064, Note_on_c, 1, 68, 65
3, 32244, Note_on_c, 1, 68, 0
3, 32252, Note_on_c, 1, 76, 0
3, 32256, Note_on_c, 1, 69, 65
3, 32448, Note_on_c, 1, 76, 65
3, 32636, Note_on_c, 1, 69, 0
3, 32640, Note_on_c, 1, 76, 0
3, 32640, Note_on_c, 1, 73, 65
3, 32828, Note_on_c, 1, 73, 0
3, 32832, Note_on_c, 1, 76, 65
3, 32832, Note_on_c, 1, 57, 65
3, 33020, Note_on_c, 1, 57, 0
3, 33020, Note_on_c, 1, 76, 0
3, 33024, Note_on_c, 1, 69, 65
3, 33024, Note_on_c, 1, 57, 65
3, 33212, Note_on_c, 1, 57, 0
3, 33212, Note_on_c, 1, 69, 0
3, 33216, Note_on_c, 1, 76, 65
3, 33216, Note_on_c, 1, 61, 65
3, 33396, Note_on_c, 1, 61, 0
3, 33396, Note_on_c, 1, 76, 0
3, 33408, Note_on_c, 1, 74, 65
3, 33408, Note_on_c, 1, 62, 65
3, 33788, Note_on_c, 1, 62, 0
3, 33788, Note_on_c, 1, 74, 0
3, 33792, Note_on_c, 1, 62, 65
3, 34172, Note_on_c, 1, 62, 0
3, 34176, Note_on_c, 1, 61, 65
3, 34176, Note_on_c, 1, 69, 65
3, 34556, Note_on_c, 1, 69, 0
3, 34556, Note_on_c, 1, 61, 0
3, 34560, Note_on_c, 1, 69, 65
3, 34560, Note_on_c, 1, 59, 65
3, 34940, Note_on_c, 1, 59, 0
3, 34940, Note_on_c, 1, 69, 0
3, 34944, Note_on_c, 1, 68, 65
3, 34944, Note_on_c, 1, 64, 65
3, 35324, Note_on_c, 1, 64, 0
3, 35324, Note_on_c, 1, 68, 0
3, 35328, Note_on_c, 1, 69, 65
3, 35328, Note_on_c, 1, 66, 65
3, 35708, Note_on_c, 1, 66, 0
3, 35708, Note_on_c, 1, 69, 0
3, 35712, Note_on_c, 1, 62, 65
3, 36000, Note_on_c, 1, 74, 65
3, 36092, Note_on_c, 1, 74, 0
3, 36092, Note_on_c, 1, 62, 0
3, 36096, Note_on_c, 1, 73, 65
3, 36096, Note_on_c, 1, 64, 65
3, 36476, Note_on_c, 1, 64, 0
3, 36476, Note_on_c, 1, 73, 0
3, 36480, Note_on_c, 1, 68, 65
3, 36480, Note_on_c, 1, 64, 65
3, 36860, Note_on_c, 1, 64, 0
3, 36860, Note_on_c, 1, 68, 0
3, 36864, Note_on_c, 1, 68, 65
3, 37248, Note_on_c, 1, 64, 65
3, 37628, Note_on_c, 1, 64, 0
3, 37628, Note_on_c, 1, 68, 0
3, 37632, Note_on_c, 1, 69, 65
3, 37632, Note_on_c, 1, 57, 65
3, 38012, Note_on_c, 1, 57, 0
3, 38012, Note_on_c, 1, 69, 0
3, 38016, Note_on_c, 1, 62, 75
3, 38396, Note_on_c, 1, 62, 0
3, 38400, Note_on_c, 1, 69, 75
3, 38400, Note_on_c, 1, 62, 75
3, 38780, Note_on_c, 1, 62, 0
3, 38780, Note_on_c, 1, 69, 0
3, 38784, Note_on_c, 1, 69, 75
3, 38784, Note_on_c, 1, 61, 75
3, 39164, Note_on_c, 1, 61, 0
3, 39164, Note_on_c, 1, 69, 0
3, 39168, Note_on_c, 1, 66, 75
3, 39168, Note_on_c, 1, 59, 75
3, 39548, Note_on_c, 1, 59, 0
3, 39548, Note_on_c, 1, 66, 0
3, 39552, Note_on_c, 1, 68, 75
3, 39552, Note_on_c, 1, 64, 75
3, 39932, Note_on_c, 1, 64, 0
3, 39932, Note_on_c, 1, 68, 0
3, 39936, Note_on_c, 1, 69, 75
3, 39936, Note_on_c, 1, 57, 75
3, 40060, Note_on_c, 1, 69, 0
3, 40064, Note_on_c, 1, 71, 75
3, 40188, Note_on_c, 1, 71, 0
3, 40192, Note_on_c, 1, 73, 75
3, 40316, Note_on_c, 1, 73, 0
3, 40316, Note_on_c, 1, 57, 0
3, 40320, Note_on_c, 1, 74, 75
3, 40444, Note_on_c, 1, 74, 0
3, 40448, Note_on_c, 1, 76, 75
3, 40572, Note_on_c, 1, 76, 0
3, 40576, Note_on_c, 1, 78, 75
3, 40608, Note_on_c, 1, 63, 75
3, 40700, Note_on_c, 1, 63, 0
3, 40700, Note_on_c, 1, 78, 0
3, 40704, Note_on_c, 1, 64, 75
3, 40704, Note_on_c, 1, 78, 85
3, 40796, Note_on_c, 1, 78, 0
3, 40800, Note_on_c, 1, 76, 75
3, 40892, Note_on_c, 1, 76, 0
3, 40896, Note_on_c, 1, 74, 75
3, 40988, Note_on_c, 1, 74, 0
3, 40992, Note_on_c, 1, 73, 75
3, 41084, Note_on_c, 1, 73, 0
3, 41084, Note_on_c, 1, 64, 0
3, 41088, Note_on_c, 1, 64, 75
3, 41088, Note_on_c, 1, 73, 85
3, 41180, Note_on_c, 1, 73, 0
3, 41184, Note_on_c, 1, 71, 75
3, 41276, Note_on_c, 1, 71, 0
3, 41280, Note_on_c, 1, 69, 75
3, 41372, Note_on_c, 1, 69, 0
3, 41376, Note_on_c, 1, 68, 75
3, 41468, Note_on_c, 1, 68, 0
3, 41468, Note_on_c, 1, 64, 0
3, 41472, Note_on_c, 1, 69, 75
3, 41852, Note_on_c, 1, 69, 0
3, 41856, Note_on_c, 1, 69, 75
3, 41856, Note_on_c, 1, 61, 75
3, 42236, Note_on_c, 1, 61, 0
3, 42236, Note_on_c, 1, 69, 0
3, 42240, Note_on_c, 1, 68, 75
3, 42240, Note_on_c, 1, 62, 75
3, 42620, Note_on_c, 1, 62, 0
3, 42620, Note_on_c, 1, 68, 0
3, 43008, Note_on_c, 1, 69, 75
3, 43008, Note_on_c, 1, 61, 75
3, 43388, Note_on_c, 1, 61, 0
3, 43388, Note_on_c, 1, 69, 0
3, 43392, Note_on_c, 1, 68, 75
3, 43392, Note_on_c, 1, 62, 75
3, 43772, Note_on_c, 1, 62, 0
3, 43772, Note_on_c, 1, 68, 0
3, 43776, Note_on_c, 1, 69, 75
3, 43776, Note_on_c, 1, 61, 75
3, 44156, Note_on_c, 1, 61, 0
3, 44156, Note_on_c, 1, 69, 0
3, 44160, Note_on_c, 1, 64, 65
3, 44160, Note_on_c, 1, 61, 65
3, 44444, Note_on_c, 1, 61, 0
3, 44444, Note_on_c, 1, 64, 0
3, 44448, Note_on_c, 1, 66, 65
3, 44448, Note_on_c, 1, 62, 65
3, 44540, Note_on_c, 1, 62, 0
3, 44540, Note_on_c, 1, 66, 0
3, 44544, Note_on_c, 1, 64, 65
3, 44544, Note_on_c, 1, 61, 65
3, 44828, Note_on_c, 1, 61, 0
3, 44828, Note_on_c, 1, 64, 0
3, 44832, Note_on_c, 1, 66, 65
3, 44832, Note_on_c, 1, 62, 65
3, 44924, Note_on_c, 1, 62, 0
3, 44924, Note_on_c, 1, 66, 0
3, 44928, Note_on_c, 1, 64, 65
3, 44928, Note_on_c, 1, 61, 65
3, 45692, Note_on_c, 1, 61, 0
3, 45692, Note_on_c, 1, 64, 0
3, 46080, Note_on_c, 1, 62, 65
3, 46652, Note_on_c, 1, 62, 0
3, 46656, Note_on_c, 1, 64, 65
3, 46844, Note_on_c, 1, 64, 0
3, 46848, Note_on_c, 1, 65, 65
3, 47036, Note_on_c, 1, 65, 0
3, 47040, Note_on_c, 1, 66, 65
3, 47228, Note_on_c, 1, 66, 0
3, 47232, Note_on_c, 1, 66, 65
3, 47420, Note_on_c, 1, 66, 0
3, 48384, Note_on_c, 1, 61, 65
3, 48572, Note_on_c, 1, 61, 0
3, 48768, Note_on_c, 1, 61, 65
3, 48956, Note_on_c, 1, 61, 0
3, 49152, Note_on_c, 1, 62, 65
3, 49340, Note_on_c, 1, 62, 0
3, 49536, Note_on_c, 1, 62, 65
3, 49824, Note_on_c, 1, 62, 0
3, 49824, Note_on_c, 1, 64, 65
3, 49904, Note_on_c, 1, 64, 0
3, 49920, Note_on_c, 1, 61, 65
3, 49920, Note_on_c, 1, 57, 65
3, 50108, Note_on_c, 1, 57, 0
3, 50108, Note_on_c, 1, 61, 0
3, 50304, Note_on_c, 1, 67, 65
3, 50684, Note_on_c, 1, 67, 0
3, 50688, Note_on_c, 1, 69, 65
3, 50688, Note_on_c, 1, 66, 65
3, 51068, Note_on_c, 1, 66, 0
3, 51072, Note_on_c, 1, 62, 65
3, 51452, Note_on_c, 1, 62, 0
3, 51456, Note_on_c, 1, 67, 65
3, 51644, Note_on_c, 1, 67, 0
3, 51840, Note_on_c, 1, 66, 65
3, 52220, Note_on_c, 1, 66, 0
3, 52224, Note_on_c, 1, 62, 65
3, 52604, Note_on_c, 1, 62, 0
3, 52608, Note_on_c, 1, 67, 65
3, 52796, Note_on_c, 1, 67, 0
3, 52992, Note_on_c, 1, 66, 65
3, 53180, Note_on_c, 1, 66, 0
3, 53372, Note_on_c, 1, 69, 0
3, 53376, Note_on_c, 1, 62, 65
3, 53376, Note_on_c, 1, 66, 65
3, 53564, Note_on_c, 1, 66, 0
3, 53564, Note_on_c, 1, 62, 0
3, 53568, Note_on_c, 1, 69, 65
3, 53756, Note_on_c, 1, 69, 0
3, 53760, Note_on_c, 1, 67, 65
3, 53948, Note_on_c, 1, 67, 0
3, 53952, Note_on_c, 1, 64, 65
3, 54140, Note_on_c, 1, 64, 0
3, 54144, Note_on_c, 1, 62, 65
3, 54908, Note_on_c, 1, 62, 0
3, 54912, Note_on_c, 1, 61, 65
3, 55292, Note_on_c, 1, 61, 0
3, 55296, Note_on_c, 1, 78, 85
3, 55296, Note_on_c, 1, 74, 85
3, 55872, Note_on_c, 1, 74, 0
3, 55872, Note_on_c, 1, 78, 0
3, 55872, Note_on_c, 1, 76, 85
3, 55872, Note_on_c, 1, 79, 85
3, 56060, Note_on_c, 1, 79, 0
3, 56060, Note_on_c, 1, 76, 0
3, 56064, Note_on_c, 1, 80, 85
3, 56064, Note_on_c, 1, 77, 85
3, 56252, Note_on_c, 1, 77, 0
3, 56252, Note_on_c, 1, 80, 0
3, 56256, Note_on_c, 1, 78, 85
3, 56256, Note_on_c, 1, 81, 85
3, 56436, Note_on_c, 1, 81, 0
3, 56436, Note_on_c, 1, 78, 0
3, 56448, Note_on_c, 1, 78, 85
3, 56448, Note_on_c, 1, 74, 85
3, 56448, Note_on_c, 1, 83, 85
3, 56640, Note_on_c, 1, 83, 0
3, 56640, Note_on_c, 1, 81, 85
3, 56820, Note_on_c, 1, 81, 0
3, 56828, Note_on_c, 1, 74, 0
3, 56828, Note_on_c, 1, 78, 0
3, 56832, Note_on_c, 1, 79, 85
3, 56932, Note_on_c, 1, 79, 0
3, 57024, Note_on_c, 1, 78, 85
3, 57124, Note_on_c, 1, 78, 0
3, 57216, Note_on_c, 1, 76, 85
3, 57316, Note_on_c, 1, 76, 0
3, 57408, Note_on_c, 1, 74, 85
3, 57508, Note_on_c, 1, 74, 0
3, 57600, Note_on_c, 1, 76, 85
3, 57600, Note_on_c, 1, 73, 85
3, 57788, Note_on_c, 1, 73, 0
3, 57788, Note_on_c, 1, 76, 0
3, 57984, Note_on_c, 1, 76, 85
3, 57984, Note_on_c, 1, 73, 85
3, 58172, Note_on_c, 1, 73, 0
3, 58172, Note_on_c, 1, 76, 0
3, 58368, Note_on_c, 1, 78, 85
3, 58368, Note_on_c, 1, 74, 85
3, 58556, Note_on_c, 1, 74, 0
3, 58556, Note_on_c, 1, 78, 0
3, 58752, Note_on_c, 1, 78, 85
3, 58752, Note_on_c, 1, 74, 85
3, 59036, Note_on_c, 1, 74, 0
3, 59036, Note_on_c, 1, 78, 0
3, 59040, Note_on_c, 1, 79, 85
3, 59040, Note_on_c, 1, 76, 85
3, 59132, Note_on_c, 1, 76, 0
3, 59132, Note_on_c, 1, 79, 0
3, 59136, Note_on_c, 1, 76, 85
3, 59136, Note_on_c, 1, 73, 85
3, 59324, Note_on_c, 1, 73, 0
3, 59324, Note_on_c, 1, 76, 0
3, 59904, Note_on_c, 1, 74, 85
3, 60096, Note_on_c, 1, 74, 0
3, 60096, Note_on_c, 1, 86, 85
3, 60276, Note_on_c, 1, 86, 0
3, 60288, Note_on_c, 1, 85, 85
3, 60480, Note_on_c, 1, 85, 0
3, 60480, Note_on_c, 1, 86, 85
3, 60660, Note_on_c, 1, 86, 0
3, 60672, Note_on_c, 1, 83, 85
3, 60864, Note_on_c, 1, 83, 0
3, 60864, Note_on_c, 1, 85, 85
3, 61044, Note_on_c, 1, 85, 0
3, 61056, Note_on_c, 1, 81, 85
3, 61056, Note_on_c, 1, 76, 85
3, 61248, Note_on_c, 1, 81, 0
3, 61248, Note_on_c, 1, 83, 85
3, 61428, Note_on_c, 1, 83, 0
3, 61436, Note_on_c, 1, 76, 0
3, 61440, Note_on_c, 1, 79, 85
3, 61440, Note_on_c, 1, 73, 85
3, 61632, Note_on_c, 1, 79, 0
3, 61632, Note_on_c, 1, 81, 85
3, 61812, Note_on_c, 1, 81, 0
3, 61820, Note_on_c, 1, 73, 0
3, 61824, Note_on_c, 1, 78, 85
3, 61824, Note_on_c, 1, 74, 85
3, 62016, Note_on_c, 1, 78, 0
3, 62016, Note_on_c, 1, 79, 85
3, 62196, Note_on_c, 1, 79, 0
3, 62204, Note_on_c, 1, 74, 0
3, 62208, Note_on_c, 1, 78, 85
3, 62208, Note_on_c, 1, 71, 85
3, 62400, Note_on_c, 1, 78, 0
3, 62400, Note_on_c, 1, 76, 85
3, 62580, Note_on_c, 1, 76, 0
3, 62592, Note_on_c, 1, 79, 85
3, 62780, Note_on_c, 1, 71, 0
3, 62784, Note_on_c, 1, 79, 0
3, 62784, Note_on_c, 1, 76, 85
3, 62784, Note_on_c, 1, 67, 85
3, 62972, Note_on_c, 1, 67, 0
3, 62972, Note_on_c, 1, 76, 0
3, 62976, Note_on_c, 1, 66, 85
3, 62976, Note_on_c, 1, 74, 88
3, 63016, Note_on_c, 1, 74, 0
3, 63024, Note_on_c, 1, 76, 88
3, 63064, Note_on_c, 1, 76, 0
3, 63072, Note_on_c, 1, 74, 88
3, 63112, Note_on_c, 1, 74, 0
3, 63120, Note_on_c, 1, 76, 88
3, 63160, Note_on_c, 1, 76, 0
3, 63168, Note_on_c, 1, 66, 0
3, 63168, Note_on_c, 1, 73, 85
3, 63168, Note_on_c, 1, 67, 85
3, 63168, Note_on_c, 1, 64, 85
3, 63348, Note_on_c, 1, 64, 0
3, 63348, Note_on_c, 1, 67, 0
3, 63348, Note_on_c, 1, 73, 0
3, 63360, Note_on_c, 1, 73, 85
3, 63360, Note_on_c, 1, 67, 85
3, 63452, Note_on_c, 1, 67, 0
3, 63452, Note_on_c, 1, 73, 0
3, 63552, Note_on_c, 1, 74, 85
3, 63552, Note_on_c, 1, 66, 85
3, 63744, Note_on_c, 1, 62, 85
3, 63832, Note_on_c, 1, 66, 0
3, 63832, Note_on_c, 1, 74, 0
3, 63932, Note_on_c, 1, 62, 0
3, 64704, Note_on_c, 1, 67, 70
3, 64704, Note_on_c, 1, 59, 70
3, 64892, Note_on_c, 1, 59, 0
3, 64892, Note_on_c, 1, 67, 0
3, 64896, Note_on_c, 1, 71, 70
3, 64896, Note_on_c, 1, 62, 70
3, 65084, Note_on_c, 1, 62, 0
3, 65084, Note_on_c, 1, 71, 0
3, 65088, Note_on_c, 1, 67, 70
3, 65088, Note_on_c, 1, 59, 70
3, 65276, Note_on_c, 1, 59, 0
3, 65276, Note_on_c, 1, 67, 0
3, 65280, Note_on_c, 1, 71, 70
3, 65280, Note_on_c, 1, 62, 70
3, 65468, Note_on_c, 1, 62, 0
3, 65468, Note_on_c, 1, 71, 0
3, 65472, Note_on_c, 1, 67, 70
3, 65472, Note_on_c, 1, 59, 70
3, 65660, Note_on_c, 1, 59, 0
3, 65660, Note_on_c, 1, 67, 0
3, 65856, Note_on_c, 1, 67, 70
3, 65856, Note_on_c, 1, 59, 70
3, 66044, Note_on_c, 1, 59, 0
3, 66044, Note_on_c, 1, 67, 0
3, 66048, Note_on_c, 1, 71, 70
3, 66048, Note_on_c, 1, 62, 70
3, 66236, Note_on_c, 1, 62, 0
3, 66236, Note_on_c, 1, 71, 0
3, 66240, Note_on_c, 1, 67, 70
3, 66240, Note_on_c, 1, 59, 70
3, 66428, Note_on_c, 1, 59, 0
3, 66428, Note_on_c, 1, 67, 0
3, 66432, Note_on_c, 1, 71, 70
3, 66432, Note_on_c, 1, 62, 70
3, 66620, Note_on_c, 1, 62, 0
3, 66620, Note_on_c, 1, 71, 0
3, 66624, Note_on_c, 1, 67, 70
3, 66624, Note_on_c, 1, 59, 70
3, 66812, Note_on_c, 1, 59, 0
3, 66812, Note_on_c, 1, 67, 0
3, 67008, Note_on_c, 1, 62, 70
3, 67008, Note_on_c, 1, 59, 70
3, 67196, Note_on_c, 1, 59, 0
3, 67196, Note_on_c, 1, 62, 0
3, 67200, Note_on_c, 1, 62, 70
3, 67200, Note_on_c, 1, 59, 70
3, 67388, Note_on_c, 1, 59, 0
3, 67388, Note_on_c, 1, 62, 0
3, 67392, Note_on_c, 1, 62, 70
3, 67392, Note_on_c, 1, 59, 70
3, 67580, Note_on_c, 1, 59, 0
3, 67580, Note_on_c, 1, 62, 0
3, 67584, Note_on_c, 1, 62, 70
3, 67584, Note_on_c, 1, 59, 70
3, 67772, Note_on_c, 1, 59, 0
3, 67772, Note_on_c, 1, 62, 0
3, 67776, Note_on_c, 1, 62, 70
3, 67776, Note_on_c, 1, 59, 70
3, 67964, Note_on_c, 1, 59, 0
3, 67964, Note_on_c, 1, 62, 0
3, 68160, Note_on_c, 1, 62, 70
3, 68160, Note_on_c, 1, 57, 70
3, 68160, Note_on_c, 1, 60, 70
3, 68348, Note_on_c, 1, 60, 0
3, 68348, Note_on_c, 1, 57, 0
3, 68348, Note_on_c, 1, 62, 0
3, 68352, Note_on_c, 1, 62, 70
3, 68352, Note_on_c, 1, 60, 70
3, 68352, Note_on_c, 1, 57, 70
3, 68540, Note_on_c, 1, 57, 0
3, 68540, Note_on_c, 1, 60, 0
3, 68540, Note_on_c, 1, 62, 0
3, 68544, Note_on_c, 1, 62, 70
3, 68544, Note_on_c, 1, 60, 70
3, 68544, Note_on_c, 1, 57, 70
3, 68732, Note_on_c, 1, 57, 0
3, 68732, Note_on_c, 1, 60, 0
3, 68732, Note_on_c, 1, 62, 0
3, 68736, Note_on_c, 1, 62, 70
3, 68736, Note_on_c, 1, 60, 70
3, 68736, Note_on_c, 1, 57, 70
3, 68924, Note_on_c, 1, 57, 0
3, 68924, Note_on_c, 1, 60, 0
3, 68924, Note_on_c, 1, 62, 0
3, 68928, Note_on_c, 1, 62, 70
3, 68928, Note_on_c, 1, 60, 70
3, 68928, Note_on_c, 1, 57, 70
3, 69116, Note_on_c, 1, 57, 0
3, 69116, Note_on_c, 1, 60, 0
3, 69116, Note_on_c, 1, 62, 0
3, 69120, Note_on_c, 1, 66, 70
3, 69120, Note_on_c, 1, 62, 70
3, 69120, Note_on_c, 1, 60, 70
3, 69120, Note_on_c, 1, 57, 70
3, 69500, Note_on_c, 1, 57, 0
3, 69500, Note_on_c, 1, 66, 0
3, 69500, Note_on_c, 1, 62, 0
3, 69500, Note_on_c, 1, 60, 0
3, 70272, Note_on_c, 1, 69, 70
3, 70272, Note_on_c, 1, 57, 70
3, 70460, Note_on_c, 1, 57, 0
3, 70460, Note_on_c, 1, 69, 0
3, 70464, Note_on_c, 1, 67, 70
3, 70464, Note_on_c, 1, 59, 70
3, 70652, Note_on_c, 1, 59, 0
3, 70652, Note_on_c, 1, 67, 0
3, 70656, Note_on_c, 1, 66, 70
3, 70656, Note_on_c, 1, 60, 70
3, 70844, Note_on_c, 1, 60, 0
3, 70844, Note_on_c, 1, 66, 0
3, 71424, Note_on_c, 1, 66, 70
3, 71424, Note_on_c, 1, 62, 70
3, 71424, Note_on_c, 1, 57, 70
3, 71804, Note_on_c, 1, 57, 0
3, 71804, Note_on_c, 1, 62, 0
3, 71804, Note_on_c, 1, 66, 0
3, 72576, Note_on_c, 1, 62, 70
3, 72576, Note_on_c, 1, 59, 70
3, 72956, Note_on_c, 1, 59, 0
3, 72956, Note_on_c, 1, 62, 0
3, 73152, Note_on_c, 1, 67, 70
3, 73152, Note_on_c, 1, 62, 70
3, 73340, Note_on_c, 1, 62, 0
3, 73340, Note_on_c, 1, 67, 0
3, 73344, Note_on_c, 1, 60, 70
3, 73344, Note_on_c, 1, 66, 70
3, 73532, Note_on_c, 1, 66, 0
3, 73532, Note_on_c, 1, 60, 0
3, 73536, Note_on_c, 1, 67, 70
3, 73536, Note_on_c, 1, 59, 70
3, 73724, Note_on_c, 1, 59, 0
3, 73724, Note_on_c, 1, 67, 0
3, 73728, Note_on_c, 1, 66, 70
3, 73728, Note_on_c, 1, 62, 70
3, 73728, Note_on_c, 1, 61, 70
3, 74108, Note_on_c, 1, 61, 0
3, 74108, Note_on_c, 1, 62, 0
3, 74108, Note_on_c, 1, 66, 0
3, 74880, Note_on_c, 1, 69, 70
3, 74880, Note_on_c, 1, 57, 70
3, 75068, Note_on_c, 1, 57, 0
3, 75068, Note_on_c, 1, 69, 0
3, 75072, Note_on_c, 1, 67, 70
3, 75072, Note_on_c, 1, 59, 70
3, 75260, Note_on_c, 1, 59, 0
3, 75260, Note_on_c, 1, 67, 0
3, 75264, Note_on_c, 1, 66, 70
3, 75264, Note_on_c, 1, 60, 70
3, 75452, Note_on_c, 1, 60, 0
3, 75452, Note_on_c, 1, 66, 0
3, 76032, Note_on_c, 1, 66, 70
3, 76032, Note_on_c, 1, 62, 70
3, 76412, Note_on_c, 1, 62, 0
3, 76412, Note_on_c, 1, 66, 0
3, 77184, Note_on_c, 1, 67, 70
3, 77184, Note_on_c, 1, 62, 70
3, 77476, Note_on_c, 1, 62, 0
3, 77476, Note_on_c, 1, 67, 0
3, 78528, Note_on_c, 1, 64, 65
3, 78528, Note_on_c, 1, 59, 65
3, 78716, Note_on_c, 1, 59, 0
3, 78716, Note_on_c, 1, 64, 0
3, 78720, Note_on_c, 1, 64, 65
3, 78720, Note_on_c, 1, 59, 65
3, 78908, Note_on_c, 1, 59, 0
3, 78908, Note_on_c, 1, 64, 0
3, 78912, Note_on_c, 1, 64, 65
3, 78912, Note_on_c, 1, 59, 65
3, 79100, Note_on_c, 1, 59, 0
3, 79100, Note_on_c, 1, 64, 0
3, 79104, Note_on_c, 1, 64, 65
3, 79104, Note_on_c, 1, 59, 65
3, 79292, Note_on_c, 1, 59, 0
3, 79292, Note_on_c, 1, 64, 0
3, 79296, Note_on_c, 1, 64, 65
3, 79296, Note_on_c, 1, 59, 65
3, 79484, Note_on_c, 1, 59, 0
3, 79484, Note_on_c, 1, 64, 0
3, 79488, Note_on_c, 1, 66, 65
3, 79488, Note_on_c, 1, 60, 65
3, 79780, Note_on_c, 1, 60, 0
3, 79780, Note_on_c, 1, 66, 0
3, 80832, Note_on_c, 1, 66, 65
3, 80832, Note_on_c, 1, 57, 65
3, 81020, Note_on_c, 1, 57, 0
3, 81020, Note_on_c, 1, 66, 0
3, 81024, Note_on_c, 1, 66, 65
3, 81024, Note_on_c, 1, 57, 65
3, 81212, Note_on_c, 1, 57, 0
3, 81212, Note_on_c, 1, 66, 0
3, 81216, Note_on_c, 1, 66, 65
3, 81216, Note_on_c, 1, 57, 65
3, 81404, Note_on_c, 1, 57, 0
3, 81404, Note_on_c, 1, 66, 0
3, 81408, Note_on_c, 1, 66, 65
3, 81408, Note_on_c, 1, 57, 65
3, 81596, Note_on_c, 1, 57, 0
3, 81596, Note_on_c, 1, 66, 0
3, 81600, Note_on_c, 1, 66, 65
3, 81600, Note_on_c, 1, 57, 65
3, 81788, Note_on_c, 1, 57, 0
3, 81788, Note_on_c, 1, 66, 0
3, 81792, Note_on_c, 1, 71, 65
3, 81792, Note_on_c, 1, 67, 65
3, 81792, Note_on_c, 1, 59, 65
3, 81980, Note_on_c, 1, 59, 0
3, 81980, Note_on_c, 1, 67, 0
3, 81980, Note_on_c, 1, 71, 0
3, 81984, Note_on_c, 1, 71, 65
3, 81984, Note_on_c, 1, 59, 65
3, 82172, Note_on_c, 1, 59, 0
3, 82172, Note_on_c, 1, 71, 0
3, 82176, Note_on_c, 1, 71, 65
3, 82176, Note_on_c, 1, 59, 65
3, 82364, Note_on_c, 1, 59, 0
3, 82364, Note_on_c, 1, 71, 0
3, 82368, Note_on_c, 1, 71, 65
3, 82368, Note_on_c, 1, 59, 65
3, 82556, Note_on_c, 1, 59, 0
3, 82556, Note_on_c, 1, 71, 0
3, 82560, Note_on_c, 1, 71, 65
3, 82560, Note_on_c, 1, 59, 65
3, 82940, Note_on_c, 1, 59, 0
3, 82940, Note_on_c, 1, 71, 0
3, 83136, Note_on_c, 1, 67, 65
3, 83136, Note_on_c, 1, 61, 65
3, 83324, Note_on_c, 1, 61, 0
3, 83324, Note_on_c, 1, 67, 0
3, 83328, Note_on_c, 1, 67, 65
3, 83328, Note_on_c, 1, 61, 65
3, 83516, Note_on_c, 1, 61, 0
3, 83516, Note_on_c, 1, 67, 0
3, 83520, Note_on_c, 1, 67, 65
3, 83520, Note_on_c, 1, 61, 65
3, 83708, Note_on_c, 1, 61, 0
3, 83708, Note_on_c, 1, 67, 0
3, 83712, Note_on_c, 1, 67, 65
3, 83712, Note_on_c, 1, 61, 65
3, 84092, Note_on_c, 1, 61, 0
3, 84092, Note_on_c, 1, 67, 0
3, 84288, Note_on_c, 1, 73, 70
3, 84288, Note_on_c, 1, 67, 70
3, 84288, Note_on_c, 1, 64, 70
3, 84476, Note_on_c, 1, 64, 0
3, 84476, Note_on_c, 1, 67, 0
3, 84476, Note_on_c, 1, 73, 0
3, 84480, Note_on_c, 1, 73, 73
3, 84480, Note_on_c, 1, 67, 73
3, 84480, Note_on_c, 1, 64, 73
3, 84668, Note_on_c, 1, 64, 0
3, 84668, Note_on_c, 1, 67, 0
3, 84668, Note_on_c, 1, 73, 0
3, 84672, Note_on_c, 1, 73, 76
3, 84672, Note_on_c, 1, 67, 76
3, 84672, Note_on_c, 1, 64, 76
3, 84860, Note_on_c, 1, 64, 0
3, 84860, Note_on_c, 1, 67, 0
3, 84860, Note_on_c, 1, 73, 0
3, 84864, Note_on_c, 1, 73, 79
3, 84864, Note_on_c, 1, 67, 79
3, 84864, Note_on_c, 1, 64, 79
3, 85244, Note_on_c, 1, 64, 0
3, 85244, Note_on_c, 1, 67, 0
3, 85244, Note_on_c, 1, 73, 0
3, 85632, Note_on_c, 1, 62, 85
3, 85632, Note_on_c, 1, 59, 85
3, 85632, Note_on_c, 1, 68, 85
3, 86396, Note_on_c, 1, 59, 0
3, 86396, Note_on_c, 1, 62, 0
3, 86400, Note_on_c, 1, 66, 65
3, 86400, Note_on_c, 1, 61, 65
3, 86404, Note_on_c, 1, 68, 0
3, 86588, Note_on_c, 1, 61, 0
3, 86588, Note_on_c, 1, 66, 0
3, 86592, Note_on_c, 1, 64, 65
3, 86972, Note_on_c, 1, 64, 0
3, 86976, Note_on_c, 1, 64, 65
3, 87164, Note_on_c, 1, 64, 0
3, 87168, Note_on_c, 1, 62, 65
3, 87356, Note_on_c, 1, 62, 0
3, 87360, Note_on_c, 1, 61, 65
3, 87548, Note_on_c, 1, 61, 0
3, 87552, Note_on_c, 1, 62, 65
3, 87552, Note_on_c, 1, 59, 65
3, 87740, Note_on_c, 1, 59, 0
3, 87740, Note_on_c, 1, 62, 0
3, 88320, Note_on_c, 1, 66, 65
3, 88320, Note_on_c, 1, 62, 65
3, 88320, Note_on_c, 1, 59, 65
3, 88508, Note_on_c, 1, 59, 0
3, 88508, Note_on_c, 1, 62, 0
3, 88508, Note_on_c, 1, 66, 0
3, 88704, Note_on_c, 1, 66, 65
3, 88704, Note_on_c, 1, 64, 65
3, 88704, Note_on_c, 1, 61, 65
3, 88892, Note_on_c, 1, 61, 0
3, 88892, Note_on_c, 1, 64, 0
3, 88892, Note_on_c, 1, 66, 0
3, 89472, Note_on_c, 1, 64, 65
3, 89472, Note_on_c, 1, 61, 65
3, 89472, Note_on_c, 1, 66, 65
3, 89660, Note_on_c, 1, 66, 0
3, 89660, Note_on_c, 1, 61, 0
3, 89660, Note_on_c, 1, 64, 0
3, 89856, Note_on_c, 1, 66, 65
3, 89856, Note_on_c, 1, 62, 65
3, 89856, Note_on_c, 1, 59, 65
3, 90044, Note_on_c, 1, 59, 0
3, 90044, Note_on_c, 1, 62, 0
3, 90044, Note_on_c, 1, 66, 0
3, 90624, Note_on_c, 1, 66, 65
3, 90624, Note_on_c, 1, 62, 65
3, 90624, Note_on_c, 1, 59, 65
3, 90812, Note_on_c, 1, 59, 0
3, 90812, Note_on_c, 1, 62, 0
3, 90812, Note_on_c, 1, 66, 0
3, 91008, Note_on_c, 1, 66, 65
3, 91008, Note_on_c, 1, 64, 65
3, 91008, Note_on_c, 1, 61, 65
3, 91196, Note_on_c, 1, 61, 0
3, 91196, Note_on_c, 1, 64, 0
3, 91196, Note_on_c, 1, 66, 0
3, 91776, Note_on_c, 1, 66, 65
3, 91776, Note_on_c, 1, 64, 65
3, 91776, Note_on_c, 1, 61, 65
3, 91964, Note_on_c, 1, 61, 0
3, 91964, Note_on_c, 1, 64, 0
3, 91964, Note_on_c, 1, 66, 0
3, 92160, Note_on_c, 1, 66, 65
3, 92160, Note_on_c, 1, 62, 65
3, 92160, Note_on_c, 1, 59, 65
3, 92348, Note_on_c, 1, 59, 0
3, 92348, Note_on_c, 1, 62, 0
3, 92348, Note_on_c, 1, 66, 0
3, 94848, Note_on_c, 1, 77, 85
3, 95612, Note_on_c, 1, 77, 0
3, 95616, Note_on_c, 1, 78, 75
3, 95996, Note_on_c, 1, 78, 0
3, 96000, Note_on_c, 1, 73, 75
3, 96000, Note_on_c, 1, 70, 75
3, 96380, Note_on_c, 1, 70, 0
3, 96380, Note_on_c, 1, 73, 0
3, 96384, Note_on_c, 1, 74, 75
3, 96384, Note_on_c, 1, 71, 75
3, 96764, Note_on_c, 1, 71, 0
3, 96764, Note_on_c, 1, 74, 0
3, 96768, Note_on_c, 1, 73, 75
3, 96768, Note_on_c, 1, 67, 75
3, 97148, Note_on_c, 1, 67, 0
3, 97148, Note_on_c, 1, 73, 0
3, 97152, Note_on_c, 1, 71, 75
3, 97152, Note_on_c, 1, 66, 75
3, 97340, Note_on_c, 1, 66, 0
3, 97532, Note_on_c, 1, 71, 0
3, 97536, Note_on_c, 1, 70, 75
3, 97536, Note_on_c, 1, 64, 75
3, 97916, Note_on_c, 1, 64, 0
3, 97916, Note_on_c, 1, 70, 0
3, 97920, Note_on_c, 1, 69, 75
3, 97920, Note_on_c, 1, 63, 75
3, 98108, Note_on_c, 1, 63, 0
3, 98108, Note_on_c, 1, 69, 0
3, 98112, Note_on_c, 1, 69, 75
3, 98112, Note_on_c, 1, 63, 75
3, 98300, Note_on_c, 1, 63, 0
3, 98300, Note_on_c, 1, 69, 0
3, 98304, Note_on_c, 1, 69, 75
3, 98304, Note_on_c, 1, 63, 75
3, 98492, Note_on_c, 1, 63, 0
3, 98492, Note_on_c, 1, 69, 0
3, 98496, Note_on_c, 1, 69, 75
3, 98496, Note_on_c, 1, 63, 75
3, 98684, Note_on_c, 1, 63, 0
3, 98684, Note_on_c, 1, 69, 0
3, 98688, Note_on_c, 1, 69, 75
3, 98688, Note_on_c, 1, 63, 75
3, 98876, Note_on_c, 1, 63, 0
3, 98876, Note_on_c, 1, 69, 0
3, 98880, Note_on_c, 1, 69, 75
3, 98880, Note_on_c, 1, 63, 75
3, 99068, Note_on_c, 1, 63, 0
3, 99068, Note_on_c, 1, 69, 0
3, 99072, Note_on_c, 1, 67, 75
3, 99072, Note_on_c, 1, 64, 75
3, 99260, Note_on_c, 1, 64, 0
3, 99260, Note_on_c, 1, 67, 0
3, 99264, Note_on_c, 1, 67, 75
3, 99264, Note_on_c, 1, 64, 75
3, 99452, Note_on_c, 1, 64, 0
3, 99452, Note_on_c, 1, 67, 0
3, 99456, Note_on_c, 1, 65, 75
3, 99456, Note_on_c, 1, 59, 75
3, 99644, Note_on_c, 1, 59, 0
3, 99644, Note_on_c, 1, 65, 0
3, 99648, Note_on_c, 1, 65, 75
3, 99648, Note_on_c, 1, 59, 75
3, 99836, Note_on_c, 1, 59, 0
3, 99836, Note_on_c, 1, 65, 0
3, 99840, Note_on_c, 1, 65, 75
3, 99840, Note_on_c, 1, 59, 75
3, 100028, Note_on_c, 1, 59, 0
3, 100028, Note_on_c, 1, 65, 0
3, 100032, Note_on_c, 1, 65, 75
3, 100032, Note_on_c, 1, 59, 75
3, 100220, Note_on_c, 1, 59, 0
3, 100220, Note_on_c, 1, 65, 0
3, 102528, Note_on_c, 1, 74, 85
3, 102528, Note_on_c, 1, 71, 85
3, 102528, Note_on_c, 1, 83, 85
3, 103292, Note_on_c, 1, 83, 0
3, 103292, Note_on_c, 1, 71, 0
3, 103292, Note_on_c, 1, 74, 0
3, 103680, Note_on_c, 1, 78, 65
3, 104252, Note_on_c, 1, 78, 0
3, 104256, Note_on_c, 1, 79, 65
3, 104444, Note_on_c, 1, 79, 0
3, 104448, Note_on_c, 1, 80, 65
3, 104636, Note_on_c, 1, 80, 0
3, 104640, Note_on_c, 1, 81, 65
3, 104828, Note_on_c, 1, 81, 0
3, 104832, Note_on_c, 1, 83, 65
3, 105024, Note_on_c, 1, 83, 0
3, 105024, Note_on_c, 1, 81, 65
3, 105204, Note_on_c, 1, 81, 0
3, 105216, Note_on_c, 1, 79, 65
3, 105316, Note_on_c, 1, 79, 0
3, 105408, Note_on_c, 1, 78, 65
3, 105508, Note_on_c, 1, 78, 0
3, 105600, Note_on_c, 1, 76, 65
3, 105700, Note_on_c, 1, 76, 0
3, 105792, Note_on_c, 1, 74, 65
3, 105892, Note_on_c, 1, 74, 0
3, 105984, Note_on_c, 1, 76, 65
3, 106172, Note_on_c, 1, 76, 0
3, 106368, Note_on_c, 1, 76, 65
3, 106556, Note_on_c, 1, 76, 0
3, 106752, Note_on_c, 1, 78, 65
3, 106940, Note_on_c, 1, 78, 0
3, 107136, Note_on_c, 1, 78, 65
3, 107420, Note_on_c, 1, 78, 0
3, 107424, Note_on_c, 1, 79, 65
3, 107516, Note_on_c, 1, 79, 0
3, 107520, Note_on_c, 1, 76, 65
3, 107708, Note_on_c, 1, 76, 0
3, 108288, Note_on_c, 1, 74, 65
3, 108480, Note_on_c, 1, 74, 0
3, 108480, Note_on_c, 1, 76, 65
3, 108668, Note_on_c, 1, 76, 0
3, 108672, Note_on_c, 1, 78, 65
3, 108860, Note_on_c, 1, 78, 0
3, 108864, Note_on_c, 1, 74, 65
3, 109052, Note_on_c, 1, 74, 0
3, 109056, Note_on_c, 1, 73, 65
3, 109244, Note_on_c, 1, 73, 0
3, 109248, Note_on_c, 1, 69, 65
3, 109428, Note_on_c, 1, 69, 0
3, 109440, Note_on_c, 1, 74, 65
3, 109632, Note_on_c, 1, 74, 0
3, 109632, Note_on_c, 1, 76, 65
3, 109812, Note_on_c, 1, 76, 0
3, 109824, Note_on_c, 1, 78, 65
3, 110016, Note_on_c, 1, 78, 0
3, 110016, Note_on_c, 1, 74, 65
3, 110196, Note_on_c, 1, 74, 0
3, 110208, Note_on_c, 1, 73, 65
3, 110400, Note_on_c, 1, 73, 0
3, 110400, Note_on_c, 1, 69, 65
3, 110580, Note_on_c, 1, 69, 0
3, 110592, Note_on_c, 1, 74, 65
3, 110784, Note_on_c, 1, 74, 0
3, 110784, Note_on_c, 1, 78, 65
3, 110972, Note_on_c, 1, 78, 0
3, 110976, Note_on_c, 1, 81, 65
3, 111164, Note_on_c, 1, 81, 0
3, 111168, Note_on_c, 1, 78, 65
3, 111348, Note_on_c, 1, 78, 0
3, 111360, Note_on_c, 1, 83, 65
3, 111552, Note_on_c, 1, 83, 0
3, 111552, Note_on_c, 1, 79, 65
3, 111732, Note_on_c, 1, 79, 0
3, 111744, Note_on_c, 1, 78, 65
3, 112512, Note_on_c, 1, 78, 0
3, 112512, Note_on_c, 1, 76, 65
3, 112884, Note_on_c, 1, 76, 0
3, 112896, Note_on_c, 1, 78, 85
3, 112896, Note_on_c, 1, 74, 85
3, 113472, Note_on_c, 1, 74, 0
3, 113472, Note_on_c, 1, 78, 0
3, 113472, Note_on_c, 1, 76, 85
3, 113472, Note_on_c, 1, 79, 85
3, 113660, Note_on_c, 1, 79, 0
3, 113660, Note_on_c, 1, 76, 0
3, 113664, Note_on_c, 1, 80, 85
3, 113664, Note_on_c, 1, 77, 85
3, 113852, Note_on_c, 1, 77, 0
3, 113852, Note_on_c, 1, 80, 0
3, 113856, Note_on_c, 1, 78, 85
3, 113856, Note_on_c, 1, 81, 85
3, 114036, Note_on_c, 1, 81, 0
3, 114036, Note_on_c, 1, 78, 0
3, 114048, Note_on_c, 1, 83, 85
3, 114048, Note_on_c, 1, 78, 85
3, 114240, Note_on_c, 1, 83, 0
3, 114240, Note_on_c, 1, 81, 85
3, 114420, Note_on_c, 1, 81, 0
3, 114428, Note_on_c, 1, 78, 0
3, 114432, Note_on_c, 1, 79, 85
3, 114532, Note_on_c, 1, 79, 0
3, 114624, Note_on_c, 1, 78, 85
3, 114724, Note_on_c, 1, 78, 0
3, 114816, Note_on_c, 1, 76, 85
3, 114916, Note_on_c, 1, 76, 0
3, 115008, Note_on_c, 1, 74, 85
3, 115108, Note_on_c, 1, 74, 0
3, 115200, Note_on_c, 1, 76, 85
3, 115200, Note_on_c, 1, 73, 85
3, 115388, Note_on_c, 1, 73, 0
3, 115388, Note_on_c, 1, 76, 0
3, 115584, Note_on_c, 1, 76, 85
3, 115584, Note_on_c, 1, 73, 85
3, 115772, Note_on_c, 1, 73, 0
3, 115772, Note_on_c, 1, 76, 0
3, 115968, Note_on_c, 1, 78, 85
3, 115968, Note_on_c, 1, 74, 85
3, 116156, Note_on_c, 1, 74, 0
3, 116156, Note_on_c, 1, 78, 0
3, 116352, Note_on_c, 1, 78, 85
3, 116352, Note_on_c, 1, 74, 85
3, 116640, Note_on_c, 1, 74, 0
3, 116640, Note_on_c, 1, 78, 0
3, 116640, Note_on_c, 1, 79, 85
3, 116640, Note_on_c, 1, 76, 85
3, 116720, Note_on_c, 1, 76, 0
3, 116720, Note_on_c, 1, 79, 0
3, 116736, Note_on_c, 1, 76, 85
3, 116736, Note_on_c, 1, 73, 85
3, 116924, Note_on_c, 1, 73, 0
3, 116924, Note_on_c, 1, 76, 0
3, 117504, Note_on_c, 1, 74, 85
3, 117696, Note_on_c, 1, 74, 0
3, 117696, Note_on_c, 1, 86, 85
3, 117876, Note_on_c, 1, 86, 0
3, 117888, Note_on_c, 1, 85, 85
3, 118080, Note_on_c, 1, 85, 0
3, 118080, Note_on_c, 1, 86, 85
3, 118260, Note_on_c, 1, 86, 0
3, 118272, Note_on_c, 1, 83, 85
3, 118464, Note_on_c, 1, 83, 0
3, 118464, Note_on_c, 1, 85, 85
3, 118644, Note_on_c, 1, 85, 0
3, 118656, Note_on_c, 1, 76, 85
3, 118656, Note_on_c, 1, 81, 85
3, 118848, Note_on_c, 1, 81, 0
3, 118848, Note_on_c, 1, 83, 85
3, 119028, Note_on_c, 1, 83, 0
3, 119036, Note_on_c, 1, 76, 0
3, 119040, Note_on_c, 1, 73, 85
3, 119040, Note_on_c, 1, 79, 85
3, 119232, Note_on_c, 1, 79, 0
3, 119232, Note_on_c, 1, 81, 85
3, 119412, Note_on_c, 1, 81, 0
3, 119420, Note_on_c, 1, 73, 0
3, 119424, Note_on_c, 1, 74, 85
3, 119424, Note_on_c, 1, 78, 85
3, 119616, Note_on_c, 1, 78, 0
3, 119616, Note_on_c, 1, 79, 85
3, 119796, Note_on_c, 1, 79, 0
3, 119804, Note_on_c, 1, 74, 0
3, 119808, Note_on_c, 1, 71, 85
3, 119808, Note_on_c, 1, 78, 85
3, 120000, Note_on_c, 1, 78, 0
3, 120000, Note_on_c, 1, 76, 85
3, 120180, Note_on_c, 1, 76, 0
3, 120192, Note_on_c, 1, 79, 85
3, 120380, Note_on_c, 1, 79, 0
3, 120380, Note_on_c, 1, 71, 0
3, 120384, Note_on_c, 1, 76, 85
3, 120384, Note_on_c, 1, 67, 85
3, 120564, Note_on_c, 1, 67, 0
3, 120576, Note_on_c, 1, 76, 0
3, 120576, Note_on_c, 1, 66, 85
3, 120576, Note_on_c, 1, 74, 85
3, 120616, Note_on_c, 1, 74, 0
3, 120624, Note_on_c, 1, 76, 85
3, 120664, Note_on_c, 1, 76, 0
3, 120672, Note_on_c, 1, 74, 85
3, 120712, Note_on_c, 1, 74, 0
3, 120720, Note_on_c, 1, 76, 85
3, 120760, Note_on_c, 1, 76, 0
3, 120768, Note_on_c, 1, 66, 0
3, 120768, Note_on_c, 1, 73, 85
3, 120768, Note_on_c, 1, 67, 85
3, 120768, Note_on_c, 1, 64, 85
3, 120948, Note_on_c, 1, 64, 0
3, 120948, Note_on_c, 1, 67, 0
3, 120948, Note_on_c, 1, 73, 0
3, 120960, Note_on_c, 1, 73, 85
3, 120960, Note_on_c, 1, 67, 85
3, 121052, Note_on_c, 1, 67, 0
3, 121052, Note_on_c, 1, 73, 0
3, 121056, Note_on_c, 1, 74, 85
3, 121056, Note_on_c, 1, 66, 85
3, 121340, Note_on_c, 1, 66, 0
3, 121340, Note_on_c, 1, 74, 0
3, 121344, Note_on_c, 1, 62, 85
3, 121532, Note_on_c, 1, 62, 0
3, 122304, Note_on_c, 1, 65, 85
3, 122404, Note_on_c, 1, 65, 0
3, 122496, Note_on_c, 1, 69, 85
3, 122596, Note_on_c, 1, 69, 0
3, 122688, Note_on_c, 1, 74, 85
3, 122788, Note_on_c, 1, 74, 0
3, 122880, Note_on_c, 1, 77, 85
3, 123072, Note_on_c, 1, 77, 0
3, 123072, Note_on_c, 1, 81, 85
3, 123252, Note_on_c, 1, 81, 0
3, 123456, Note_on_c, 1, 67, 65
3, 123556, Note_on_c, 1, 67, 0
3, 123648, Note_on_c, 1, 70, 65
3, 123748, Note_on_c, 1, 70, 0
3, 123840, Note_on_c, 1, 74, 65
3, 123940, Note_on_c, 1, 74, 0
3, 124032, Note_on_c, 1, 79, 85
3, 124224, Note_on_c, 1, 79, 0
3, 124224, Note_on_c, 1, 82, 85
3, 124404, Note_on_c, 1, 82, 0
3, 124608, Note_on_c, 1, 60, 65
3, 124708, Note_on_c, 1, 60, 0
3, 124800, Note_on_c, 1, 67, 65
3, 124900, Note_on_c, 1, 67, 0
3, 124992, Note_on_c, 1, 72, 65
3, 125092, Note_on_c, 1, 72, 0
3, 125184, Note_on_c, 1, 76, 85
3, 125376, Note_on_c, 1, 76, 0
3, 125376, Note_on_c, 1, 79, 85
3, 125556, Note_on_c, 1, 79, 0
3, 125760, Note_on_c, 1, 65, 65
3, 125860, Note_on_c, 1, 65, 0
3, 125952, Note_on_c, 1, 69, 65
3, 126052, Note_on_c, 1, 69, 0
3, 126144, Note_on_c, 1, 72, 65
3, 126244, Note_on_c, 1, 72, 0
3, 126336, Note_on_c, 1, 77, 85
3, 126528, Note_on_c, 1, 77, 0
3, 126528, Note_on_c, 1, 81, 85
3, 126708, Note_on_c, 1, 81, 0
3, 126912, Note_on_c, 1, 58, 65
3, 127012, Note_on_c, 1, 58, 0
3, 127104, Note_on_c, 1, 65, 65
3, 127204, Note_on_c, 1, 65, 0
3, 127296, Note_on_c, 1, 70, 65
3, 127396, Note_on_c, 1, 70, 0
3, 127488, Note_on_c, 1, 74, 85
3, 127680, Note_on_c, 1, 74, 0
3, 127680, Note_on_c, 1, 77, 85
3, 127860, Note_on_c, 1, 77, 0
3, 128064, Note_on_c, 1, 64, 65
3, 128164, Note_on_c, 1, 64, 0
3, 128256, Note_on_c, 1, 67, 65
3, 128356, Note_on_c, 1, 67, 0
3, 128448, Note_on_c, 1, 70, 65
3, 128548, Note_on_c, 1, 70, 0
3, 128640, Note_on_c, 1, 76, 85
3, 128832, Note_on_c, 1, 76, 0
3, 128832, Note_on_c, 1, 79, 85
3, 129012, Note_on_c, 1, 79, 0
3, 129408, Note_on_c, 1, 64, 65
3, 129792, Note_on_c, 1, 64, 0
3, 129792, Note_on_c, 1, 61, 65
3, 130164, Note_on_c, 1, 61, 0
3, 130176, Note_on_c, 1, 62, 65
3, 130364, Note_on_c, 1, 62, 0
3, 130560, Note_on_c, 1, 58, 65
3, 130748, Note_on_c, 1, 58, 0
3, 130944, Note_on_c, 1, 56, 65
3, 131132, Note_on_c, 1, 56, 0
3, 131328, Note_on_c, 1, 57, 65
3, 131516, Note_on_c, 1, 57, 0
3, 132480, Note_on_c, 1, 64, 65
3, 132860, Note_on_c, 1, 64, 0
3, 132864, Note_on_c, 1, 62, 63
3, 132904, Note_on_c, 1, 62, 0
3, 132912, Note_on_c, 1, 64, 63
3, 132952, Note_on_c, 1, 64, 0
3, 132960, Note_on_c, 1, 62, 62
3, 133000, Note_on_c, 1, 62, 0
3, 133008, Note_on_c, 1, 64, 62
3, 133048, Note_on_c, 1, 64, 0
3, 133056, Note_on_c, 1, 62, 62
3, 133096, Note_on_c, 1, 62, 0
3, 133104, Note_on_c, 1, 64, 61
3, 133144, Note_on_c, 1, 64, 0
3, 133152, Note_on_c, 1, 62, 61
3, 133192, Note_on_c, 1, 62, 0
3, 133200, Note_on_c, 1, 64, 61
3, 133240, Note_on_c, 1, 64, 0
3, 133248, Note_on_c, 1, 62, 60
3, 133288, Note_on_c, 1, 62, 0
3, 133296, Note_on_c, 1, 64, 60
3, 133336, Note_on_c, 1, 64, 0
3, 133344, Note_on_c, 1, 62, 60
3, 133384, Note_on_c, 1, 62, 0
3, 133392, Note_on_c, 1, 64, 60
3, 133432, Note_on_c, 1, 64, 0
3, 133440, Note_on_c, 1, 61, 59
3, 133528, Note_on_c, 1, 61, 0
3, 133536, Note_on_c, 1, 62, 59
3, 133624, Note_on_c, 1, 62, 0
3, 133632, Note_on_c, 1, 61, 58
3, 134012, Note_on_c, 1, 61, 0
3, 134784, Note_on_c, 1, 76, 50
3, 135164, Note_on_c, 1, 76, 0
3, 135168, Note_on_c, 1, 74, 50
3, 135208, Note_on_c, 1, 74, 0
3, 135216, Note_on_c, 1, 76, 50
3, 135256, Note_on_c, 1, 76, 0
3, 135264, Note_on_c, 1, 74, 50
3, 135304, Note_on_c, 1, 74, 0
3, 135312, Note_on_c, 1, 76, 50
3, 135352, Note_on_c, 1, 76, 0
3, 135360, Note_on_c, 1, 74, 50
3, 135400, Note_on_c, 1, 74, 0
3, 135408, Note_on_c, 1, 76, 50
3, 135448, Note_on_c, 1, 76, 0
3, 135456, Note_on_c, 1, 74, 50
3, 135496, Note_on_c, 1, 74, 0
3, 135504, Note_on_c, 1, 76, 50
3, 135544, Note_on_c, 1, 76, 0
3, 135552, Note_on_c, 1, 74, 50
3, 135592, Note_on_c, 1, 74, 0
3, 135600, Note_on_c, 1, 76, 50
3, 135640, Note_on_c, 1, 76, 0
3, 135648, Note_on_c, 1, 74, 50
3, 135688, Note_on_c, 1, 74, 0
3, 135696, Note_on_c, 1, 76, 50
3, 135736, Note_on_c, 1, 76, 0
3, 135744, Note_on_c, 1, 73, 50
3, 135832, Note_on_c, 1, 73, 0
3, 135840, Note_on_c, 1, 74, 50
3, 135928, Note_on_c, 1, 74, 0
3, 135936, Note_on_c, 1, 73, 50
3, 136316, Note_on_c, 1, 73, 0
3, 137280, Note_on_c, 1, 62, 70
3, 137472, Note_on_c, 1, 62, 0
3, 137472, Note_on_c, 1, 66, 70
3, 137472, Note_on_c, 1, 69, 70
3, 137660, Note_on_c, 1, 69, 0
3, 137660, Note_on_c, 1, 66, 0
3, 137664, Note_on_c, 1, 62, 70
3, 137852, Note_on_c, 1, 62, 0
3, 137856, Note_on_c, 1, 66, 70
3, 137856, Note_on_c, 1, 69, 70
3, 138044, Note_on_c, 1, 69, 0
3, 138044, Note_on_c, 1, 66, 0
3, 138048, Note_on_c, 1, 62, 70
3, 138228, Note_on_c, 1, 62, 0
3, 138432, Note_on_c, 1, 62, 70
3, 138624, Note_on_c, 1, 62, 0
3, 138624, Note_on_c, 1, 69, 70
3, 138624, Note_on_c, 1, 66, 70
3, 138812, Note_on_c, 1, 66, 0
3, 138812, Note_on_c, 1, 69, 0
3, 138816, Note_on_c, 1, 62, 70
3, 139004, Note_on_c, 1, 62, 0
3, 139008, Note_on_c, 1, 66, 70
3, 139008, Note_on_c, 1, 69, 70
3, 139196, Note_on_c, 1, 69, 0
3, 139196, Note_on_c, 1, 66, 0
3, 139200, Note_on_c, 1, 62, 70
3, 139380, Note_on_c, 1, 62, 0
3, 139584, Note_on_c, 1, 69, 70
3, 139584, Note_on_c, 1, 66, 70
3, 139584, Note_on_c, 1, 62, 70
3, 139772, Note_on_c, 1, 62, 0
3, 139772, Note_on_c, 1, 66, 0
3, 139772, Note_on_c, 1, 69, 0
3, 139776, Note_on_c, 1, 69, 70
3, 139776, Note_on_c, 1, 66, 70
3, 139776, Note_on_c, 1, 62, 70
3, 139964, Note_on_c, 1, 62, 0
3, 139964, Note_on_c, 1, 66, 0
3, 139964, Note_on_c, 1, 69, 0
3, 139968, Note_on_c, 1, 69, 70
3, 139968, Note_on_c, 1, 66, 70
3, 139968, Note_on_c, 1, 62, 70
3, 140156, Note_on_c, 1, 62, 0
3, 140156, Note_on_c, 1, 66, 0
3, 140156, Note_on_c, 1, 69, 0
3, 140160, Note_on_c, 1, 69, 70
3, 140160, Note_on_c, 1, 66, 70
3, 140160, Note_on_c, 1, 62, 70
3, 140348, Note_on_c, 1, 62, 0
3, 140348, Note_on_c, 1, 66, 0
3, 140348, Note_on_c, 1, 69, 0
3, 140352, Note_on_c, 1, 69, 70
3, 140352, Note_on_c, 1, 66, 70
3, 140352, Note_on_c, 1, 62, 70
3, 140540, Note_on_c, 1, 62, 0
3, 140540, Note_on_c, 1, 66, 0
3, 140540, Note_on_c, 1, 69, 0
3, 140736, Note_on_c, 1, 69, 70
3, 140736, Note_on_c, 1, 67, 70
3, 140736, Note_on_c, 1, 64, 70
3, 140924, Note_on_c, 1, 64, 0
3, 140924, Note_on_c, 1, 67, 0
3, 140924, Note_on_c, 1, 69, 0
3, 140928, Note_on_c, 1, 69, 70
3, 140928, Note_on_c, 1, 67, 70
3, 140928, Note_on_c, 1, 64, 70
3, 141116, Note_on_c, 1, 64, 0
3, 141116, Note_on_c, 1, 67, 0
3, 141116, Note_on_c, 1, 69, 0
3, 141120, Note_on_c, 1, 69, 70
3, 141120, Note_on_c, 1, 67, 70
3, 141120, Note_on_c, 1, 64, 70
3, 141308, Note_on_c, 1, 64, 0
3, 141308, Note_on_c, 1, 67, 0
3, 141308, Note_on_c, 1, 69, 0
3, 141312, Note_on_c, 1, 69, 70
3, 141312, Note_on_c, 1, 67, 70
3, 141312, Note_on_c, 1, 64, 70
3, 141500, Note_on_c, 1, 64, 0
3, 141500, Note_on_c, 1, 67, 0
3, 141500, Note_on_c, 1, 69, 0
3, 141504, Note_on_c, 1, 69, 70
3, 141504, Note_on_c, 1, 67, 70
3, 141504, Note_on_c, 1, 64, 70
3, 141692, Note_on_c, 1, 64, 0
3, 141692, Note_on_c, 1, 67, 0
3, 141692, Note_on_c, 1, 69, 0
3, 141696, Note_on_c, 1, 73, 70
3, 141696, Note_on_c, 1, 69, 70
3, 141696, Note_on_c, 1, 67, 70
3, 141696, Note_on_c, 1, 64, 70
3, 142076, Note_on_c, 1, 64, 0
3, 142076, Note_on_c, 1, 73, 0
3, 142076, Note_on_c, 1, 69, 0
3, 142076, Note_on_c, 1, 67, 0
3, 142848, Note_on_c, 1, 64, 70
3, 142848, Note_on_c, 1, 61, 70
3, 142940, Note_on_c, 1, 61, 0
3, 142940, Note_on_c, 1, 64, 0
3, 143040, Note_on_c, 1, 66, 70
3, 143040, Note_on_c, 1, 62, 70
3, 143132, Note_on_c, 1, 62, 0
3, 143132, Note_on_c, 1, 66, 0
3, 143232, Note_on_c, 1, 67, 70
3, 143232, Note_on_c, 1, 61, 70
3, 143324, Note_on_c, 1, 61, 0
3, 143324, Note_on_c, 1, 67, 0
3, 144000, Note_on_c, 1, 64, 70
3, 144000, Note_on_c, 1, 61, 70
3, 144380, Note_on_c, 1, 61, 0
3, 144380, Note_on_c, 1, 64, 0
3, 145728, Note_on_c, 1, 74, 70
3, 145728, Note_on_c, 1, 69, 70
3, 145728, Note_on_c, 1, 66, 70
3, 145920, Note_on_c, 1, 66, 0
3, 145920, Note_on_c, 1, 69, 0
3, 145920, Note_on_c, 1, 74, 0
3, 145920, Note_on_c, 1, 64, 70
3, 145920, Note_on_c, 1, 67, 70
3, 145920, Note_on_c, 1, 73, 70
3, 146108, Note_on_c, 1, 73, 0
3, 146108, Note_on_c, 1, 67, 0
3, 146108, Note_on_c, 1, 64, 0
3, 146112, Note_on_c, 1, 74, 70
3, 146112, Note_on_c, 1, 62, 70
3, 146112, Note_on_c, 1, 66, 70
3, 146292, Note_on_c, 1, 66, 0
3, 146292, Note_on_c, 1, 62, 0
3, 146292, Note_on_c, 1, 74, 0
3, 146304, Note_on_c, 1, 57, 70
3, 146304, Note_on_c, 1, 73, 70
3, 146304, Note_on_c, 1, 69, 70
3, 146304, Note_on_c, 1, 67, 70
3, 146304, Note_on_c, 1, 64, 70
3, 146684, Note_on_c, 1, 64, 0
3, 146684, Note_on_c, 1, 69, 0
3, 146684, Note_on_c, 1, 57, 0
3, 146684, Note_on_c, 1, 73, 0
3, 146684, Note_on_c, 1, 67, 0
3, 147456, Note_on_c, 1, 64, 70
3, 147456, Note_on_c, 1, 61, 70
3, 147648, Note_on_c, 1, 61, 0
3, 147648, Note_on_c, 1, 64, 0
3, 147648, Note_on_c, 1, 66, 70
3, 147648, Note_on_c, 1, 62, 70
3, 147828, Note_on_c, 1, 62, 0
3, 147828, Note_on_c, 1, 66, 0
3, 147840, Note_on_c, 1, 67, 70
3, 147840, Note_on_c, 1, 61, 70
3, 148028, Note_on_c, 1, 61, 0
3, 148028, Note_on_c, 1, 67, 0
3, 148608, Note_on_c, 1, 64, 70
3, 148608, Note_on_c, 1, 61, 70
3, 148988, Note_on_c, 1, 61, 0
3, 148988, Note_on_c, 1, 64, 0
3, 149184, Note_on_c, 1, 73, 70
3, 149372, Note_on_c, 1, 73, 0
3, 149376, Note_on_c, 1, 74, 70
3, 149564, Note_on_c, 1, 74, 0
3, 149568, Note_on_c, 1, 76, 70
3, 149756, Note_on_c, 1, 76, 0
3, 149760, Note_on_c, 1, 69, 70
3, 149948, Note_on_c, 1, 69, 0
3, 149952, Note_on_c, 1, 69, 70
3, 149952, Note_on_c, 1, 66, 70
3, 149952, Note_on_c, 1, 62, 70
3, 150140, Note_on_c, 1, 62, 0
3, 150140, Note_on_c, 1, 66, 0
3, 150140, Note_on_c, 1, 69, 0
3, 150144, Note_on_c, 1, 69, 70
3, 150144, Note_on_c, 1, 66, 70
3, 150144, Note_on_c, 1, 62, 70
3, 150332, Note_on_c, 1, 62, 0
3, 150332, Note_on_c, 1, 66, 0
3, 150332, Note_on_c, 1, 69, 0
3, 150336, Note_on_c, 1, 69, 70
3, 150336, Note_on_c, 1, 66, 70
3, 150336, Note_on_c, 1, 62, 70
3, 150524, Note_on_c, 1, 62, 0
3, 150524, Note_on_c, 1, 66, 0
3, 150524, Note_on_c, 1, 69, 0
3, 150528, Note_on_c, 1, 69, 70
3, 150528, Note_on_c, 1, 66, 70
3, 150716, Note_on_c, 1, 66, 0
3, 150716, Note_on_c, 1, 69, 0
3, 150720, Note_on_c, 1, 69, 70
3, 150720, Note_on_c, 1, 66, 70
3, 150908, Note_on_c, 1, 66, 0
3, 150908, Note_on_c, 1, 69, 0
3, 151088, Note_on_c, 1, 64, 70
3, 151104, Note_on_c, 1, 69, 70
3, 151104, Note_on_c, 1, 67, 70
3, 151276, Note_on_c, 1, 64, 0
3, 151292, Note_on_c, 1, 67, 0
3, 151292, Note_on_c, 1, 69, 0
3, 151296, Note_on_c, 1, 69, 70
3, 151296, Note_on_c, 1, 67, 70
3, 151296, Note_on_c, 1, 64, 70
3, 151484, Note_on_c, 1, 64, 0
3, 151484, Note_on_c, 1, 67, 0
3, 151484, Note_on_c, 1, 69, 0
3, 151488, Note_on_c, 1, 69, 70
3, 151488, Note_on_c, 1, 67, 70
3, 151488, Note_on_c, 1, 64, 70
3, 151676, Note_on_c, 1, 64, 0
3, 151676, Note_on_c, 1, 67, 0
3, 151676, Note_on_c, 1, 69, 0
3, 151680, Note_on_c, 1, 69, 68
3, 151680, Note_on_c, 1, 67, 68
3, 151680, Note_on_c, 1, 64, 68
3, 151868, Note_on_c, 1, 64, 0
3, 151868, Note_on_c, 1, 67, 0
3, 151868, Note_on_c, 1, 69, 0
3, 151872, Note_on_c, 1, 69, 66
3, 151872, Note_on_c, 1, 67, 66
3, 151872, Note_on_c, 1, 64, 66
3, 152060, Note_on_c, 1, 64, 0
3, 152060, Note_on_c, 1, 67, 0
3, 152060, Note_on_c, 1, 69, 0
3, 152256, Note_on_c, 1, 69, 65
3, 152256, Note_on_c, 1, 66, 65
3, 152256, Note_on_c, 1, 62, 65
3, 152444, Note_on_c, 1, 62, 0
3, 152444, Note_on_c, 1, 66, 0
3, 152444, Note_on_c, 1, 69, 0
3, 152448, Note_on_c, 1, 69, 65
3, 152448, Note_on_c, 1, 66, 65
3, 152448, Note_on_c, 1, 62, 65
3, 152636, Note_on_c, 1, 62, 0
3, 152636, Note_on_c, 1, 66, 0
3, 152636, Note_on_c, 1, 69, 0
3, 152640, Note_on_c, 1, 69, 65
3, 152640, Note_on_c, 1, 66, 65
3, 152640, Note_on_c, 1, 62, 65
3, 152828, Note_on_c, 1, 62, 0
3, 152828, Note_on_c, 1, 66, 0
3, 152828, Note_on_c, 1, 69, 0
3, 152832, Note_on_c, 1, 69, 65
3, 152832, Note_on_c, 1, 66, 65
3, 153020, Note_on_c, 1, 66, 0
3, 153020, Note_on_c, 1, 69, 0
3, 153024, Note_on_c, 1, 69, 65
3, 153024, Note_on_c, 1, 66, 65
3, 153212, Note_on_c, 1, 66, 0
3, 153212, Note_on_c, 1, 69, 0
3, 153408, Note_on_c, 1, 69, 65
3, 153408, Note_on_c, 1, 67, 65
3, 153408, Note_on_c, 1, 64, 65
3, 153596, Note_on_c, 1, 64, 0
3, 153596, Note_on_c, 1, 67, 0
3, 153596, Note_on_c, 1, 69, 0
3, 153600, Note_on_c, 1, 69, 65
3, 153600, Note_on_c, 1, 67, 65
3, 153600, Note_on_c, 1, 64, 65
3, 153788, Note_on_c, 1, 64, 0
3, 153788, Note_on_c, 1, 67, 0
3, 153788, Note_on_c, 1, 69, 0
3, 153792, Note_on_c, 1, 69, 65
3, 153792, Note_on_c, 1, 67, 65
3, 153792, Note_on_c, 1, 64, 65
3, 153980, Note_on_c, 1, 64, 0
3, 153980, Note_on_c, 1, 67, 0
3, 153980, Note_on_c, 1, 69, 0
3, 153984, Note_on_c, 1, 69, 65
3, 153984, Note_on_c, 1, 67, 65
3, 153984, Note_on_c, 1, 64, 65
3, 154172, Note_on_c, 1, 64, 0
3, 154172, Note_on_c, 1, 67, 0
3, 154172, Note_on_c, 1, 69, 0
3, 154176, Note_on_c, 1, 69, 65
3, 154176, Note_on_c, 1, 67, 65
3, 154176, Note_on_c, 1, 64, 65
3, 154364, Note_on_c, 1, 64, 0
3, 154364, Note_on_c, 1, 67, 0
3, 154364, Note_on_c, 1, 69, 0
3, 154560, Note_on_c, 1, 69, 65
3, 154560, Note_on_c, 1, 66, 65
3, 154560, Note_on_c, 1, 62, 65
3, 154748, Note_on_c, 1, 62, 0
3, 154748, Note_on_c, 1, 66, 0
3, 154748, Note_on_c, 1, 69, 0
3, 154752, Note_on_c, 1, 69, 65
3, 154752, Note_on_c, 1, 66, 65
3, 154752, Note_on_c, 1, 62, 65
3, 154940, Note_on_c, 1, 62, 0
3, 154940, Note_on_c, 1, 66, 0
3, 154940, Note_on_c, 1, 69, 0
3, 154944, Note_on_c, 1, 69, 65
3, 154944, Note_on_c, 1, 66, 65
3, 154944, Note_on_c, 1, 62, 65
3, 155132, Note_on_c, 1, 62, 0
3, 155132, Note_on_c, 1, 66, 0
3, 155132, Note_on_c, 1, 69, 0
3, 155136, Note_on_c, 1, 69, 65
3, 155136, Note_on_c, 1, 66, 65
3, 155324, Note_on_c, 1, 66, 0
3, 155324, Note_on_c, 1, 69, 0
3, 155328, Note_on_c, 1, 69, 65
3, 155328, Note_on_c, 1, 66, 65
3, 155516, Note_on_c, 1, 66, 0
3, 155516, Note_on_c, 1, 69, 0
3, 155712, Note_on_c, 1, 74, 65
3, 155712, Note_on_c, 1, 64, 65
3, 155900, Note_on_c, 1, 64, 0
3, 155900, Note_on_c, 1, 74, 0
3, 155904, Note_on_c, 1, 74, 65
3, 155904, Note_on_c, 1, 64, 65
3, 156092, Note_on_c, 1, 64, 0
3, 156092, Note_on_c, 1, 74, 0
3, 156096, Note_on_c, 1, 74, 65
3, 156096, Note_on_c, 1, 64, 65
3, 156284, Note_on_c, 1, 64, 0
3, 156284, Note_on_c, 1, 74, 0
3, 156288, Note_on_c, 1, 74, 66
3, 156288, Note_on_c, 1, 64, 66
3, 156476, Note_on_c, 1, 64, 0
3, 156476, Note_on_c, 1, 74, 0
3, 156480, Note_on_c, 1, 74, 67
3, 156480, Note_on_c, 1, 64, 67
3, 156668, Note_on_c, 1, 64, 0
3, 156668, Note_on_c, 1, 74, 0
3, 156864, Note_on_c, 1, 73, 69
3, 156864, Note_on_c, 1, 64, 69
3, 157052, Note_on_c, 1, 64, 0
3, 157052, Note_on_c, 1, 73, 0
3, 157056, Note_on_c, 1, 73, 71
3, 157056, Note_on_c, 1, 64, 71
3, 157244, Note_on_c, 1, 64, 0
3, 157244, Note_on_c, 1, 73, 0
3, 157248, Note_on_c, 1, 73, 72
3, 157248, Note_on_c, 1, 64, 72
3, 157436, Note_on_c, 1, 64, 0
3, 157436, Note_on_c, 1, 73, 0
3, 157440, Note_on_c, 1, 73, 73
3, 157440, Note_on_c, 1, 64, 73
3, 157628, Note_on_c, 1, 64, 0
3, 157628, Note_on_c, 1, 73, 0
3, 157632, Note_on_c, 1, 73, 74
3, 157632, Note_on_c, 1, 64, 74
3, 157820, Note_on_c, 1, 64, 0
3, 157820, Note_on_c, 1, 73, 0
3, 158016, Note_on_c, 1, 74, 65
3, 158016, Note_on_c, 1, 64, 65
3, 158204, Note_on_c, 1, 64, 0
3, 158204, Note_on_c, 1, 74, 0
3, 158208, Note_on_c, 1, 74, 65
3, 158208, Note_on_c, 1, 64, 65
3, 158396, Note_on_c, 1, 64, 0
3, 158396, Note_on_c, 1, 74, 0
3, 158400, Note_on_c, 1, 74, 65
3, 158400, Note_on_c, 1, 64, 65
3, 158588, Note_on_c, 1, 64, 0
3, 158588, Note_on_c, 1, 74, 0
3, 158592, Note_on_c, 1, 74, 75
3, 158592, Note_on_c, 1, 64, 75
3, 158780, Note_on_c, 1, 64, 0
3, 158780, Note_on_c, 1, 74, 0
3, 158784, Note_on_c, 1, 74, 75
3, 158784, Note_on_c, 1, 64, 75
3, 158972, Note_on_c, 1, 64, 0
3, 158972, Note_on_c, 1, 74, 0
3, 159168, Note_on_c, 1, 73, 75
3, 159168, Note_on_c, 1, 64, 75
3, 159356, Note_on_c, 1, 64, 0
3, 159356, Note_on_c, 1, 73, 0
3, 159360, Note_on_c, 1, 64, 75
3, 159360, Note_on_c, 1, 61, 75
3, 159548, Note_on_c, 1, 61, 0
3, 159548, Note_on_c, 1, 64, 0
3, 159552, Note_on_c, 1, 64, 75
3, 159552, Note_on_c, 1, 61, 75
3, 159740, Note_on_c, 1, 61, 0
3, 159740, Note_on_c, 1, 64, 0
3, 159744, Note_on_c, 1, 64, 75
3, 159744, Note_on_c, 1, 62, 75
3, 159932, Note_on_c, 1, 62, 0
3, 159932, Note_on_c, 1, 64, 0
3, 159936, Note_on_c, 1, 64, 75
3, 159936, Note_on_c, 1, 59, 75
3, 160124, Note_on_c, 1, 59, 0
3, 160124, Note_on_c, 1, 64, 0
3, 160320, Note_on_c, 1, 64, 75
3, 160320, Note_on_c, 1, 61, 75
3, 160508, Note_on_c, 1, 61, 0
3, 160508, Note_on_c, 1, 64, 0
3, 160512, Note_on_c, 1, 64, 75
3, 160512, Note_on_c, 1, 61, 75
3, 160700, Note_on_c, 1, 61, 0
3, 160700, Note_on_c, 1, 64, 0
3, 160704, Note_on_c, 1, 64, 75
3, 160704, Note_on_c, 1, 61, 75
3, 160892, Note_on_c, 1, 61, 0
3, 160892, Note_on_c, 1, 64, 0
3, 160896, Note_on_c, 1, 64, 75
3, 160896, Note_on_c, 1, 62, 75
3, 161084, Note_on_c, 1, 62, 0
3, 161084, Note_on_c, 1, 64, 0
3, 161088, Note_on_c, 1, 64, 75
3, 161088, Note_on_c, 1, 59, 75
3, 161276, Note_on_c, 1, 59, 0
3, 161276, Note_on_c, 1, 64, 0
3, 161280, Note_on_c, 1, 64, 75
3, 161280, Note_on_c, 1, 61, 75
3, 161660, Note_on_c, 1, 61, 0
3, 161660, Note_on_c, 1, 64, 0
3, 161664, Note_on_c, 1, 64, 75
3, 161664, Note_on_c, 1, 61, 75
3, 162044, Note_on_c, 1, 61, 0
3, 162044, Note_on_c, 1, 64, 0
3, 162048, Note_on_c, 1, 64, 75
3, 162048, Note_on_c, 1, 61, 75
3, 162428, Note_on_c, 1, 61, 0
3, 162428, Note_on_c, 1, 64, 0
3, 162432, Note_on_c, 1, 64, 75
3, 162432, Note_on_c, 1, 61, 75
3, 163004, Note_on_c, 1, 61, 0
3, 163004, Note_on_c, 1, 64, 0
3, 208896, Program_c, 1, 48
3, 210048, Note_on_c, 1, 62, 65
3, 210624, Note_on_c, 1, 62, 0
3, 210624, Note_on_c, 1, 64, 65
3, 210812, Note_on_c, 1, 64, 0
3, 210816, Note_on_c, 1, 65, 65
3, 211004, Note_on_c, 1, 65, 0
3, 211008, Note_on_c, 1, 66, 65
3, 211188, Note_on_c, 1, 66, 0
3, 211200, Note_on_c, 1, 66, 65
3, 211388, Note_on_c, 1, 66, 0
3, 212352, Note_on_c, 1, 64, 65
3, 212352, Note_on_c, 1, 61, 65
3, 212540, Note_on_c, 1, 61, 0
3, 212540, Note_on_c, 1, 64, 0
3, 212736, Note_on_c, 1, 64, 65
3, 212736, Note_on_c, 1, 61, 65
3, 212924, Note_on_c, 1, 61, 0
3, 212924, Note_on_c, 1, 64, 0
3, 213120, Note_on_c, 1, 66, 65
3, 213120, Note_on_c, 1, 62, 65
3, 213308, Note_on_c, 1, 62, 0
3, 213308, Note_on_c, 1, 66, 0
3, 213504, Note_on_c, 1, 66, 65
3, 213504, Note_on_c, 1, 62, 65
3, 213792, Note_on_c, 1, 62, 0
3, 213792, Note_on_c, 1, 66, 0
3, 213792, Note_on_c, 1, 67, 65
3, 213792, Note_on_c, 1, 64, 65
3, 213872, Note_on_c, 1, 64, 0
3, 213872, Note_on_c, 1, 67, 0
3, 213888, Note_on_c, 1, 64, 65
3, 213888, Note_on_c, 1, 61, 65
3, 214076, Note_on_c, 1, 61, 0
3, 214076, Note_on_c, 1, 64, 0
3, 214656, Note_on_c, 1, 69, 65
3, 214656, Note_on_c, 1, 62, 65
3, 215420, Note_on_c, 1, 62, 0
3, 215424, Note_on_c, 1, 64, 65
3, 215804, Note_on_c, 1, 64, 0
3, 215804, Note_on_c, 1, 69, 0
3, 215808, Note_on_c, 1, 69, 65
3, 215808, Note_on_c, 1, 62, 65
3, 216572, Note_on_c, 1, 62, 0
3, 216576, Note_on_c, 1, 64, 65
3, 216956, Note_on_c, 1, 64, 0
3, 216956, Note_on_c, 1, 69, 0
3, 216960, Note_on_c, 1, 69, 65
3, 216960, Note_on_c, 1, 62, 65
3, 217340, Note_on_c, 1, 62, 0
3, 217340, Note_on_c, 1, 69, 0
3, 217344, Note_on_c, 1, 66, 65
3, 217536, Note_on_c, 1, 66, 0
3, 217536, Note_on_c, 1, 69, 65
3, 217724, Note_on_c, 1, 69, 0
3, 217728, Note_on_c, 1, 67, 65
3, 217916, Note_on_c, 1, 67, 0
3, 217920, Note_on_c, 1, 64, 65
3, 218100, Note_on_c, 1, 64, 0
3, 218112, Note_on_c, 1, 66, 65
3, 218112, Note_on_c, 1, 62, 65
3, 218880, Note_on_c, 1, 62, 0
3, 218880, Note_on_c, 1, 66, 0
3, 218880, Note_on_c, 1, 64, 65
3, 218880, Note_on_c, 1, 61, 65
3, 219252, Note_on_c, 1, 61, 0
3, 219252, Note_on_c, 1, 64, 0
3, 219264, Note_on_c, 1, 78, 85
3, 219264, Note_on_c, 1, 74, 85
3, 219840, Note_on_c, 1, 74, 0
3, 219840, Note_on_c, 1, 78, 0
3, 219840, Note_on_c, 1, 79, 85
3, 219840, Note_on_c, 1, 76, 85
3, 220024, Note_on_c, 1, 76, 0
3, 220024, Note_on_c, 1, 79, 0
3, 220032, Note_on_c, 1, 80, 85
3, 220032, Note_on_c, 1, 77, 85
3, 220216, Note_on_c, 1, 77, 0
3, 220216, Note_on_c, 1, 80, 0
3, 220224, Note_on_c, 1, 81, 85
3, 220224, Note_on_c, 1, 78, 85
3, 220404, Note_on_c, 1, 78, 0
3, 220404, Note_on_c, 1, 81, 0
3, 220416, Note_on_c, 1, 83, 85
3, 220416, Note_on_c, 1, 78, 85
3, 220608, Note_on_c, 1, 83, 0
3, 220608, Note_on_c, 1, 81, 85
3, 220788, Note_on_c, 1, 81, 0
3, 220796, Note_on_c, 1, 78, 0
3, 220800, Note_on_c, 1, 79, 85
3, 220900, Note_on_c, 1, 79, 0
3, 220992, Note_on_c, 1, 78, 85
3, 221092, Note_on_c, 1, 78, 0
3, 221184, Note_on_c, 1, 76, 85
3, 221284, Note_on_c, 1, 76, 0
3, 221376, Note_on_c, 1, 74, 85
3, 221476, Note_on_c, 1, 74, 0
3, 221568, Note_on_c, 1, 76, 85
3, 221568, Note_on_c, 1, 73, 85
3, 221756, Note_on_c, 1, 73, 0
3, 221756, Note_on_c, 1, 76, 0
3, 221952, Note_on_c, 1, 76, 85
3, 221952, Note_on_c, 1, 73, 85
3, 222140, Note_on_c, 1, 73, 0
3, 222140, Note_on_c, 1, 76, 0
3, 222336, Note_on_c, 1, 78, 85
3, 222336, Note_on_c, 1, 74, 85
3, 222524, Note_on_c, 1, 74, 0
3, 222524, Note_on_c, 1, 78, 0
3, 222720, Note_on_c, 1, 78, 85
3, 222720, Note_on_c, 1, 74, 85
3, 223008, Note_on_c, 1, 74, 0
3, 223008, Note_on_c, 1, 78, 0
3, 223008, Note_on_c, 1, 76, 85
3, 223008, Note_on_c, 1, 79, 85
3, 223088, Note_on_c, 1, 79, 0
3, 223088, Note_on_c, 1, 76, 0
3, 223104, Note_on_c, 1, 76, 85
3, 223104, Note_on_c, 1, 73, 85
3, 223104, Note_on_c, 1, 69, 85
3, 223292, Note_on_c, 1, 73, 0
3, 223292, Note_on_c, 1, 76, 0
3, 223388, Note_on_c, 1, 69, 0
3, 223392, Note_on_c, 1, 67, 85
3, 223480, Note_on_c, 1, 67, 0
3, 223488, Note_on_c, 1, 66, 85
3, 223772, Note_on_c, 1, 66, 0
3, 223776, Note_on_c, 1, 64, 85
3, 223864, Note_on_c, 1, 64, 0
3, 223872, Note_on_c, 1, 69, 75
3, 223872, Note_on_c, 1, 66, 75
3, 223872, Note_on_c, 1, 62, 75
3, 224252, Note_on_c, 1, 62, 0
3, 224252, Note_on_c, 1, 66, 0
3, 224252, Note_on_c, 1, 69, 0
3, 224640, Note_on_c, 1, 69, 75
3, 224640, Note_on_c, 1, 66, 75
3, 224640, Note_on_c, 1, 62, 75
3, 225020, Note_on_c, 1, 62, 0
3, 225020, Note_on_c, 1, 66, 0
3, 225020, Note_on_c, 1, 69, 0
3, 225024, Note_on_c, 1, 69, 75
3, 225024, Note_on_c, 1, 67, 75
3, 225024, Note_on_c, 1, 64, 75
3, 225404, Note_on_c, 1, 64, 0
3, 225404, Note_on_c, 1, 67, 0
3, 225404, Note_on_c, 1, 69, 0
3, 225792, Note_on_c, 1, 69, 75
3, 225792, Note_on_c, 1, 67, 75
3, 225792, Note_on_c, 1, 64, 75
3, 226172, Note_on_c, 1, 64, 0
3, 226172, Note_on_c, 1, 67, 0
3, 226172, Note_on_c, 1, 69, 0
3, 226176, Note_on_c, 1, 69, 65
3, 226176, Note_on_c, 1, 66, 65
3, 226176, Note_on_c, 1, 62, 65
3, 226556, Note_on_c, 1, 62, 0
3, 226556, Note_on_c, 1, 66, 0
3, 226556, Note_on_c, 1, 69, 0
3, 226944, Note_on_c, 1, 69, 65
3, 226944, Note_on_c, 1, 66, 65
3, 226944, Note_on_c, 1, 62, 65
3, 227324, Note_on_c, 1, 62, 0
3, 227324, Note_on_c, 1, 66, 0
3, 227324, Note_on_c, 1, 69, 0
3, 227328, Note_on_c, 1, 69, 65
3, 227328, Note_on_c, 1, 67, 65
3, 227328, Note_on_c, 1, 64, 65
3, 227708, Note_on_c, 1, 64, 0
3, 227708, Note_on_c, 1, 67, 0
3, 227708, Note_on_c, 1, 69, 0
3, 228096, Note_on_c, 1, 69, 65
3, 228096, Note_on_c, 1, 64, 65
3, 228096, Note_on_c, 1, 67, 65
3, 228476, Note_on_c, 1, 67, 0
3, 228476, Note_on_c, 1, 64, 0
3, 228476, Note_on_c, 1, 69, 0
3, 228480, Note_on_c, 1, 69, 65
3, 228480, Note_on_c, 1, 66, 65
3, 228480, Note_on_c, 1, 62, 65
3, 228860, Note_on_c, 1, 62, 0
3, 228860, Note_on_c, 1, 66, 0
3, 228860, Note_on_c, 1, 69, 0
3, 228864, Note_on_c, 1, 62, 65
3, 229056, Note_on_c, 1, 62, 0
3, 229056, Note_on_c, 1, 64, 65
3, 229244, Note_on_c, 1, 64, 0
3, 229248, Note_on_c, 1, 65, 65
3, 229436, Note_on_c, 1, 65, 0
3, 229440, Note_on_c, 1, 66, 65
3, 229620, Note_on_c, 1, 66, 0
3, 229632, Note_on_c, 1, 67, 75
3, 229824, Note_on_c, 1, 67, 0
3, 229824, Note_on_c, 1, 66, 65
3, 230004, Note_on_c, 1, 66, 0
3, 230016, Note_on_c, 1, 71, 65
3, 230116, Note_on_c, 1, 71, 0
3, 230208, Note_on_c, 1, 69, 65
3, 230308, Note_on_c, 1, 69, 0
3, 230400, Note_on_c, 1, 67, 65
3, 230500, Note_on_c, 1, 67, 0
3, 230592, Note_on_c, 1, 66, 65
3, 230692, Note_on_c, 1, 66, 0
3, 230784, Note_on_c, 1, 67, 65
3, 231072, Note_on_c, 1, 71, 65
3, 231164, Note_on_c, 1, 71, 0
3, 231164, Note_on_c, 1, 67, 0
3, 231168, Note_on_c, 1, 74, 65
3, 231168, Note_on_c, 1, 69, 65
3, 231548, Note_on_c, 1, 69, 0
3, 231548, Note_on_c, 1, 74, 0
3, 231552, Note_on_c, 1, 73, 65
3, 231932, Note_on_c, 1, 73, 0
3, 231936, Note_on_c, 1, 74, 66
3, 232508, Note_on_c, 1, 74, 0
3, 232512, Note_on_c, 1, 64, 67
3, 232700, Note_on_c, 1, 64, 0
3, 232704, Note_on_c, 1, 65, 68
3, 232892, Note_on_c, 1, 65, 0
3, 232896, Note_on_c, 1, 66, 68
3, 233084, Note_on_c, 1, 66, 0
3, 233088, Note_on_c, 1, 67, 69
3, 233276, Note_on_c, 1, 67, 0
3, 233280, Note_on_c, 1, 66, 69
3, 233468, Note_on_c, 1, 66, 0
3, 233472, Note_on_c, 1, 71, 70
3, 233660, Note_on_c, 1, 71, 0
3, 233664, Note_on_c, 1, 69, 70
3, 233852, Note_on_c, 1, 69, 0
3, 233856, Note_on_c, 1, 67, 71
3, 234044, Note_on_c, 1, 67, 0
3, 234048, Note_on_c, 1, 66, 71
3, 234236, Note_on_c, 1, 66, 0
3, 234240, Note_on_c, 1, 67, 72
3, 234528, Note_on_c, 1, 71, 72
3, 234620, Note_on_c, 1, 71, 0
3, 234620, Note_on_c, 1, 67, 0
3, 234624, Note_on_c, 1, 74, 73
3, 234624, Note_on_c, 1, 69, 73
3, 235004, Note_on_c, 1, 69, 0
3, 235004, Note_on_c, 1, 74, 0
3, 235008, Note_on_c, 1, 67, 74
3, 235008, Note_on_c, 1, 73, 74
3, 235048, Note_on_c, 1, 73, 0
3, 235056, Note_on_c, 1, 74, 74
3, 235096, Note_on_c, 1, 74, 0
3, 235104, Note_on_c, 1, 73, 74
3, 235144, Note_on_c, 1, 73, 0
3, 235152, Note_on_c, 1, 74, 74
3, 235192, Note_on_c, 1, 74, 0
3, 235200, Note_on_c, 1, 73, 74
3, 235240, Note_on_c, 1, 73, 0
3, 235248, Note_on_c, 1, 74, 74
3, 235288, Note_on_c, 1, 74, 0
3, 235296, Note_on_c, 1, 71, 74
3, 235336, Note_on_c, 1, 71, 0
3, 235344, Note_on_c, 1, 73, 74
3, 235384, Note_on_c, 1, 73, 0
3, 235388, Note_on_c, 1, 67, 0
3, 235392, Note_on_c, 1, 74, 75
3, 235392, Note_on_c, 1, 66, 75
3, 235772, Note_on_c, 1, 66, 0
3, 235772, Note_on_c, 1, 74, 0
3, 235968, Note_on_c, 1, 69, 75
3, 235968, Note_on_c, 1, 66, 75
3, 236156, Note_on_c, 1, 66, 0
3, 236156, Note_on_c, 1, 69, 0
3, 236160, Note_on_c, 1, 69, 75
3, 236160, Note_on_c, 1, 66, 75
3, 236348, Note_on_c, 1, 66, 0
3, 236348, Note_on_c, 1, 69, 0
3, 236352, Note_on_c, 1, 69, 75
3, 236352, Note_on_c, 1, 66, 75
3, 236540, Note_on_c, 1, 66, 0
3, 236540, Note_on_c, 1, 69, 0
3, 236544, Note_on_c, 1, 71, 75
3, 236544, Note_on_c, 1, 67, 75
3, 236924, Note_on_c, 1, 67, 0
3, 236924, Note_on_c, 1, 71, 0
3, 237120, Note_on_c, 1, 74, 75
3, 237120, Note_on_c, 1, 64, 75
3, 237308, Note_on_c, 1, 64, 0
3, 237308, Note_on_c, 1, 74, 0
3, 237312, Note_on_c, 1, 74, 75
3, 237312, Note_on_c, 1, 64, 75
3, 237500, Note_on_c, 1, 64, 0
3, 237500, Note_on_c, 1, 74, 0
3, 237504, Note_on_c, 1, 74, 75
3, 237504, Note_on_c, 1, 64, 75
3, 237692, Note_on_c, 1, 64, 0
3, 237692, Note_on_c, 1, 74, 0
3, 237696, Note_on_c, 1, 74, 75
3, 237696, Note_on_c, 1, 66, 75
3, 237884, Note_on_c, 1, 66, 0
3, 237884, Note_on_c, 1, 74, 0
3, 237888, Note_on_c, 1, 74, 75
3, 237888, Note_on_c, 1, 66, 75
3, 238076, Note_on_c, 1, 66, 0
3, 238076, Note_on_c, 1, 74, 0
3, 238080, Note_on_c, 1, 74, 75
3, 238080, Note_on_c, 1, 66, 75
3, 238268, Note_on_c, 1, 66, 0
3, 238268, Note_on_c, 1, 74, 0
3, 238272, Note_on_c, 1, 74, 75
3, 238272, Note_on_c, 1, 66, 75
3, 238460, Note_on_c, 1, 66, 0
3, 238460, Note_on_c, 1, 74, 0
3, 238464, Note_on_c, 1, 74, 75
3, 238464, Note_on_c, 1, 66, 75
3, 238652, Note_on_c, 1, 66, 0
3, 238652, Note_on_c, 1, 74, 0
3, 238656, Note_on_c, 1, 74, 75
3, 238656, Note_on_c, 1, 66, 75
3, 238844, Note_on_c, 1, 66, 0
3, 238844, Note_on_c, 1, 74, 0
3, 238848, Note_on_c, 1, 73, 75
3, 238848, Note_on_c, 1, 67, 75
3, 239036, Note_on_c, 1, 67, 0
3, 239036, Note_on_c, 1, 73, 0
3, 239040, Note_on_c, 1, 73, 75
3, 239040, Note_on_c, 1, 67, 75
3, 239228, Note_on_c, 1, 67, 0
3, 239228, Note_on_c, 1, 73, 0
3, 239232, Note_on_c, 1, 73, 75
3, 239232, Note_on_c, 1, 67, 75
3, 239420, Note_on_c, 1, 67, 0
3, 239420, Note_on_c, 1, 73, 0
3, 239424, Note_on_c, 1, 73, 75
3, 239424, Note_on_c, 1, 67, 75
3, 239612, Note_on_c, 1, 67, 0
3, 239612, Note_on_c, 1, 73, 0
3, 239616, Note_on_c, 1, 73, 75
3, 239616, Note_on_c, 1, 67, 75
3, 239804, Note_on_c, 1, 67, 0
3, 239804, Note_on_c, 1, 73, 0
3, 239808, Note_on_c, 1, 73, 75
3, 239808, Note_on_c, 1, 67, 75
3, 239996, Note_on_c, 1, 67, 0
3, 239996, Note_on_c, 1, 73, 0
3, 240000, Note_on_c, 1, 66, 95
3, 240092, Note_on_c, 1, 66, 0
3, 240096, Note_on_c, 1, 74, 85
3, 240096, Note_on_c, 1, 78, 85
3, 240572, Note_on_c, 1, 78, 0
3, 240572, Note_on_c, 1, 74, 0
3, 240576, Note_on_c, 1, 79, 85
3, 240576, Note_on_c, 1, 76, 85
3, 240764, Note_on_c, 1, 76, 0
3, 240764, Note_on_c, 1, 79, 0
3, 240768, Note_on_c, 1, 80, 85
3, 240768, Note_on_c, 1, 77, 85
3, 240956, Note_on_c, 1, 77, 0
3, 240956, Note_on_c, 1, 80, 0
3, 240960, Note_on_c, 1, 81, 85
3, 240960, Note_on_c, 1, 78, 85
3, 241148, Note_on_c, 1, 78, 0
3, 241148, Note_on_c, 1, 81, 0
3, 241152, Note_on_c, 1, 83, 85
3, 241152, Note_on_c, 1, 78, 85
3, 241344, Note_on_c, 1, 83, 0
3, 241344, Note_on_c, 1, 81, 85
3, 241524, Note_on_c, 1, 81, 0
3, 241532, Note_on_c, 1, 78, 0
3, 241536, Note_on_c, 1, 79, 85
3, 241636, Note_on_c, 1, 79, 0
3, 241728, Note_on_c, 1, 78, 85
3, 241828, Note_on_c, 1, 78, 0
3, 241920, Note_on_c, 1, 76, 85
3, 242020, Note_on_c, 1, 76, 0
3, 242112, Note_on_c, 1, 74, 85
3, 242212, Note_on_c, 1, 74, 0
3, 242304, Note_on_c, 1, 76, 85
3, 242304, Note_on_c, 1, 73, 85
3, 242492, Note_on_c, 1, 73, 0
3, 242492, Note_on_c, 1, 76, 0
3, 242688, Note_on_c, 1, 76, 85
3, 242688, Note_on_c, 1, 73, 85
3, 242876, Note_on_c, 1, 73, 0
3, 242876, Note_on_c, 1, 76, 0
3, 243072, Note_on_c, 1, 78, 85
3, 243072, Note_on_c, 1, 74, 85
3, 243260, Note_on_c, 1, 74, 0
3, 243260, Note_on_c, 1, 78, 0
3, 243456, Note_on_c, 1, 78, 85
3, 243456, Note_on_c, 1, 74, 85
3, 243744, Note_on_c, 1, 74, 0
3, 243744, Note_on_c, 1, 78, 0
3, 243744, Note_on_c, 1, 79, 85
3, 243744, Note_on_c, 1, 76, 85
3, 243824, Note_on_c, 1, 76, 0
3, 243824, Note_on_c, 1, 79, 0
3, 243840, Note_on_c, 1, 76, 85
3, 243840, Note_on_c, 1, 73, 85
3, 244028, Note_on_c, 1, 73, 0
3, 244028, Note_on_c, 1, 76, 0
3, 244608, Note_on_c, 1, 74, 85
3, 244800, Note_on_c, 1, 74, 0
3, 244800, Note_on_c, 1, 86, 85
3, 244980, Note_on_c, 1, 86, 0
3, 244992, Note_on_c, 1, 85, 85
3, 245184, Note_on_c, 1, 85, 0
3, 245184, Note_on_c, 1, 86, 85
3, 245364, Note_on_c, 1, 86, 0
3, 245376, Note_on_c, 1, 83, 85
3, 245568, Note_on_c, 1, 83, 0
3, 245568, Note_on_c, 1, 85, 85
3, 245748, Note_on_c, 1, 85, 0
3, 245760, Note_on_c, 1, 76, 85
3, 245760, Note_on_c, 1, 81, 85
3, 245952, Note_on_c, 1, 81, 0
3, 245952, Note_on_c, 1, 83, 85
3, 246132, Note_on_c, 1, 83, 0
3, 246140, Note_on_c, 1, 76, 0
3, 246144, Note_on_c, 1, 73, 85
3, 246144, Note_on_c, 1, 79, 85
3, 246336, Note_on_c, 1, 79, 0
3, 246336, Note_on_c, 1, 81, 85
3, 246516, Note_on_c, 1, 81, 0
3, 246524, Note_on_c, 1, 73, 0
3, 246528, Note_on_c, 1, 74, 85
3, 246528, Note_on_c, 1, 78, 85
3, 246720, Note_on_c, 1, 78, 0
3, 246720, Note_on_c, 1, 79, 85
3, 246900, Note_on_c, 1, 79, 0
3, 246908, Note_on_c, 1, 74, 0
3, 246912, Note_on_c, 1, 78, 85
3, 246912, Note_on_c, 1, 71, 85
3, 247104, Note_on_c, 1, 78, 0
3, 247104, Note_on_c, 1, 76, 85
3, 247284, Note_on_c, 1, 76, 0
3, 247296, Note_on_c, 1, 79, 85
3, 247484, Note_on_c, 1, 71, 0
3, 247488, Note_on_c, 1, 79, 0
3, 247488, Note_on_c, 1, 76, 85
3, 247488, Note_on_c, 1, 67, 85
3, 247668, Note_on_c, 1, 76, 0
3, 247676, Note_on_c, 1, 67, 0
3, 247680, Note_on_c, 1, 66, 85
3, 247684, Note_on_c, 1, 74, 85
3, 247724, Note_on_c, 1, 74, 0
3, 247728, Note_on_c, 1, 76, 85
3, 247768, Note_on_c, 1, 76, 0
3, 247776, Note_on_c, 1, 73, 85
3, 247816, Note_on_c, 1, 73, 0
3, 247824, Note_on_c, 1, 74, 85
3, 247864, Note_on_c, 1, 74, 0
3, 247872, Note_on_c, 1, 66, 0
3, 247872, Note_on_c, 1, 73, 85
3, 247872, Note_on_c, 1, 67, 85
3, 247872, Note_on_c, 1, 64, 85
3, 248056, Note_on_c, 1, 67, 0
3, 248056, Note_on_c, 1, 73, 0
3, 248060, Note_on_c, 1, 64, 0
3, 248064, Note_on_c, 1, 74, 85
3, 248064, Note_on_c, 1, 66, 85
3, 248348, Note_on_c, 1, 66, 0
3, 248348, Note_on_c, 1, 74, 0
3, 248352, Note_on_c, 1, 69, 85
3, 248444, Note_on_c, 1, 69, 0
3, 248448, Note_on_c, 1, 81, 85
3, 248828, Note_on_c, 1, 81, 0
3, 248832, Note_on_c, 1, 79, 85
3, 248832, Note_on_c, 1, 85, 85
3, 248872, Note_on_c, 1, 85, 0
3, 248880, Note_on_c, 1, 86, 85
3, 248920, Note_on_c, 1, 86, 0
3, 248928, Note_on_c, 1, 85, 85
3, 248968, Note_on_c, 1, 85, 0
3, 248976, Note_on_c, 1, 86, 85
3, 249016, Note_on_c, 1, 86, 0
3, 249024, Note_on_c, 1, 85, 85
3, 249064, Note_on_c, 1, 85, 0
3, 249072, Note_on_c, 1, 86, 85
3, 249112, Note_on_c, 1, 86, 0
3, 249120, Note_on_c, 1, 83, 85
3, 249160, Note_on_c, 1, 83, 0
3, 249168, Note_on_c, 1, 85, 85
3, 249208, Note_on_c, 1, 85, 0
3, 249212, Note_on_c, 1, 79, 0
3, 249216, Note_on_c, 1, 86, 85
3, 249216, Note_on_c, 1, 78, 85
3, 249500, Note_on_c, 1, 78, 0
3, 249500, Note_on_c, 1, 86, 0
3, 249504, Note_on_c, 1, 69, 85
3, 249596, Note_on_c, 1, 69, 0
3, 249600, Note_on_c, 1, 81, 85
3, 249980, Note_on_c, 1, 81, 0
3, 249984, Note_on_c, 1, 79, 85
3, 249984, Note_on_c, 1, 85, 85
3, 250024, Note_on_c, 1, 85, 0
3, 250032, Note_on_c, 1, 86, 85
3, 250072, Note_on_c, 1, 86, 0
3, 250080, Note_on_c, 1, 85, 85
3, 250120, Note_on_c, 1, 85, 0
3, 250128, Note_on_c, 1, 86, 85
3, 250168, Note_on_c, 1, 86, 0
3, 250176, Note_on_c, 1, 85, 85
3, 250216, Note_on_c, 1, 85, 0
3, 250224, Note_on_c, 1, 86, 85
3, 250264, Note_on_c, 1, 86, 0
3, 250272, Note_on_c, 1, 83, 85
3, 250312, Note_on_c, 1, 83, 0
3, 250320, Note_on_c, 1, 85, 85
3, 250360, Note_on_c, 1, 85, 0
3, 250364, Note_on_c, 1, 79, 0
3, 250368, Note_on_c, 1, 86, 85
3, 250368, Note_on_c, 1, 78, 85
3, 250748, Note_on_c, 1, 78, 0
3, 250748, Note_on_c, 1, 86, 0
3, 250752, Note_on_c, 1, 78, 85
3, 250752, Note_on_c, 1, 74, 85
3, 250752, Note_on_c, 1, 69, 85
3, 251132, Note_on_c, 1, 69, 0
3, 251132, Note_on_c, 1, 74, 0
3, 251132, Note_on_c, 1, 78, 0
3, 251136, Note_on_c, 1, 69, 85
3, 251136, Note_on_c, 1, 74, 85
3, 251136, Note_on_c, 1, 78, 85
3, 251516, Note_on_c, 1, 78, 0
3, 251516, Note_on_c, 1, 74, 0
3, 251516, Note_on_c, 1, 69, 0
3, 251520, Note_on_c, 1, 78, 85
3, 251520, Note_on_c, 1, 74, 85
3, 251520, Note_on_c, 1, 69, 85
3, 252284, Note_on_c, 1, 69, 0
3, 252284, Note_on_c, 1, 74, 0
3, 252284, Note_on_c, 1, 78, 0
3, 252284, End_track
4, 0, Start_track
4, 0, MIDI_port, 0
4, 0, Title_t, "K211 -c -Rondo Allegro Vivo"
4, 0, Control_c, 2, 0, 0
4, 0, Control_c, 2, 32, 0
4, 0, Program_c, 2, 48
4, 0, Control_c, 2, 7, 127
4, 0, Control_c, 2, 10, 87
4, 0, Control_c, 2, 91, 67
4, 0, Control_c, 2, 93, 0
4, 0, Control_c, 2, 121, 0
4, 192, Control_c, 2, 10, 73
4, 384, Control_c, 2, 91, 73
4, 576, Program_c, 2, 48
4, 1152, Note_on_c, 2, 50, 65
4, 1340, Note_on_c, 2, 50, 0
4, 1536, Note_on_c, 2, 38, 65
4, 1724, Note_on_c, 2, 38, 0
4, 2304, Note_on_c, 2, 50, 65
4, 2492, Note_on_c, 2, 50, 0
4, 8832, Note_on_c, 2, 55, 65
4, 9020, Note_on_c, 2, 55, 0
4, 9216, Note_on_c, 2, 57, 65
4, 9404, Note_on_c, 2, 57, 0
4, 9600, Note_on_c, 2, 45, 65
4, 9788, Note_on_c, 2, 45, 0
4, 9984, Note_on_c, 2, 57, 65
4, 10172, Note_on_c, 2, 57, 0
4, 10368, Note_on_c, 2, 62, 85
4, 10748, Note_on_c, 2, 62, 0
4, 10752, Note_on_c, 2, 50, 85
4, 11132, Note_on_c, 2, 50, 0
4, 11520, Note_on_c, 2, 62, 85
4, 11520, Note_on_c, 2, 50, 85
4, 11900, Note_on_c, 2, 50, 0
4, 11900, Note_on_c, 2, 62, 0
4, 12672, Note_on_c, 2, 64, 85
4, 12672, Note_on_c, 2, 57, 85
4, 13052, Note_on_c, 2, 57, 0
4, 13052, Note_on_c, 2, 64, 0
4, 13056, Note_on_c, 2, 57, 85
4, 13056, Note_on_c, 2, 64, 85
4, 13244, Note_on_c, 2, 64, 0
4, 13436, Note_on_c, 2, 57, 0
4, 13440, Note_on_c, 2, 62, 85
4, 13440, Note_on_c, 2, 66, 85
4, 13628, Note_on_c, 2, 66, 0
4, 13820, Note_on_c, 2, 62, 0
4, 13824, Note_on_c, 2, 62, 85
4, 13824, Note_on_c, 2, 66, 85
4, 14112, Note_on_c, 2, 66, 0
4, 14112, Note_on_c, 2, 62, 0
4, 14112, Note_on_c, 2, 67, 85
4, 14112, Note_on_c, 2, 64, 85
4, 14192, Note_on_c, 2, 64, 0
4, 14192, Note_on_c, 2, 67, 0
4, 14208, Note_on_c, 2, 64, 85
4, 14208, Note_on_c, 2, 57, 85
4, 14396, Note_on_c, 2, 57, 0
4, 14396, Note_on_c, 2, 64, 0
4, 14592, Note_on_c, 2, 61, 85
4, 14592, Note_on_c, 2, 55, 85
4, 14592, Note_on_c, 2, 64, 85
4, 14972, Note_on_c, 2, 64, 0
4, 14972, Note_on_c, 2, 55, 0
4, 14972, Note_on_c, 2, 61, 0
4, 14976, Note_on_c, 2, 62, 85
4, 14976, Note_on_c, 2, 57, 85
4, 14976, Note_on_c, 2, 54, 85
4, 15356, Note_on_c, 2, 54, 0
4, 15356, Note_on_c, 2, 57, 0
4, 15356, Note_on_c, 2, 62, 0
4, 15360, Note_on_c, 2, 57, 85
4, 15380, Note_on_c, 2, 64, 85
4, 15400, Note_on_c, 2, 61, 85
4, 15728, Note_on_c, 2, 64, 0
4, 15732, Note_on_c, 2, 61, 0
4, 15736, Note_on_c, 2, 57, 0
4, 15744, Note_on_c, 2, 66, 85
4, 15744, Note_on_c, 2, 62, 85
4, 16124, Note_on_c, 2, 62, 0
4, 16124, Note_on_c, 2, 66, 0
4, 16128, Note_on_c, 2, 64, 85
4, 16128, Note_on_c, 2, 49, 85
4, 16508, Note_on_c, 2, 49, 0
4, 16512, Note_on_c, 2, 45, 85
4, 16892, Note_on_c, 2, 45, 0
4, 16892, Note_on_c, 2, 64, 0
4, 16896, Note_on_c, 2, 62, 85
4, 16896, Note_on_c, 2, 50, 85
4, 17276, Note_on_c, 2, 50, 0
4, 17276, Note_on_c, 2, 62, 0
4, 17280, Note_on_c, 2, 55, 85
4, 17660, Note_on_c, 2, 55, 0
4, 17664, Note_on_c, 2, 52, 85
4, 17664, Note_on_c, 2, 59, 85
4, 18044, Note_on_c, 2, 59, 0
4, 18044, Note_on_c, 2, 52, 0
4, 18048, Note_on_c, 2, 57, 85
4, 18428, Note_on_c, 2, 57, 0
4, 18432, Note_on_c, 2, 57, 85
4, 18432, Note_on_c, 2, 50, 85
4, 18812, Note_on_c, 2, 50, 0
4, 18812, Note_on_c, 2, 57, 0
4, 19008, Note_on_c, 2, 62, 85
4, 19100, Note_on_c, 2, 62, 0
4, 19200, Note_on_c, 2, 57, 85
4, 19292, Note_on_c, 2, 57, 0
4, 19392, Note_on_c, 2, 54, 85
4, 19484, Note_on_c, 2, 54, 0
4, 19584, Note_on_c, 2, 50, 75
4, 19964, Note_on_c, 2, 50, 0
4, 20352, Note_on_c, 2, 62, 75
4, 20732, Note_on_c, 2, 62, 0
4, 20736, Note_on_c, 2, 61, 75
4, 21116, Note_on_c, 2, 61, 0
4, 21504, Note_on_c, 2, 49, 75
4, 21884, Note_on_c, 2, 49, 0
4, 21888, Note_on_c, 2, 50, 65
4, 22268, Note_on_c, 2, 50, 0
4, 22656, Note_on_c, 2, 62, 65
4, 23040, Note_on_c, 2, 62, 0
4, 23040, Note_on_c, 2, 61, 65
4, 23412, Note_on_c, 2, 61, 0
4, 23808, Note_on_c, 2, 49, 65
4, 24192, Note_on_c, 2, 49, 0
4, 24192, Note_on_c, 2, 50, 65
4, 24564, Note_on_c, 2, 50, 0
4, 24960, Note_on_c, 2, 64, 65
4, 25344, Note_on_c, 2, 64, 0
4, 25344, Note_on_c, 2, 66, 65
4, 25716, Note_on_c, 2, 66, 0
4, 26112, Note_on_c, 2, 68, 65
4, 26492, Note_on_c, 2, 68, 0
4, 26496, Note_on_c, 2, 69, 75
4, 26876, Note_on_c, 2, 69, 0
4, 26880, Note_on_c, 2, 66, 75
4, 27260, Note_on_c, 2, 66, 0
4, 27264, Note_on_c, 2, 63, 75
4, 27644, Note_on_c, 2, 63, 0
4, 27648, Note_on_c, 2, 64, 75
4, 28028, Note_on_c, 2, 64, 0
4, 28224, Note_on_c, 2, 64, 75
4, 28412, Note_on_c, 2, 64, 0
4, 28416, Note_on_c, 2, 63, 73
4, 28604, Note_on_c, 2, 63, 0
4, 28608, Note_on_c, 2, 64, 68
4, 28796, Note_on_c, 2, 64, 0
4, 28800, Note_on_c, 2, 52, 65
4, 29180, Note_on_c, 2, 52, 0
4, 41472, Note_on_c, 2, 52, 75
4, 41472, Note_on_c, 2, 45, 75
4, 41472, Note_on_c, 2, 57, 75
4, 43776, Note_on_c, 2, 57, 75
4, 43776, Note_on_c, 2, 52, 75
4, 43776, Note_on_c, 2, 45, 75
4, 44156, Note_on_c, 2, 45, 0
4, 44156, Note_on_c, 2, 45, 0
4, 44156, Note_on_c, 2, 57, 0
4, 44156, Note_on_c, 2, 52, 0
4, 44156, Note_on_c, 2, 52, 0
4, 44156, Note_on_c, 2, 57, 0
4, 44160, Note_on_c, 2, 57, 65
4, 44160, Note_on_c, 2, 45, 65
4, 44540, Note_on_c, 2, 45, 0
4, 44540, Note_on_c, 2, 57, 0
4, 44544, Note_on_c, 2, 57, 65
4, 44544, Note_on_c, 2, 45, 65
4, 44924, Note_on_c, 2, 45, 0
4, 44924, Note_on_c, 2, 57, 0
4, 44928, Note_on_c, 2, 57, 65
4, 44928, Note_on_c, 2, 45, 65
4, 44928, Note_on_c, 2, 33, 65
4, 45692, Note_on_c, 2, 33, 0
4, 45692, Note_on_c, 2, 45, 0
4, 45692, Note_on_c, 2, 57, 0
4, 46080, Note_on_c, 2, 50, 65
4, 46268, Note_on_c, 2, 50, 0
4, 46464, Note_on_c, 2, 38, 65
4, 46464, Note_on_c, 2, 50, 65
4, 46652, Note_on_c, 2, 50, 0
4, 46652, Note_on_c, 2, 38, 0
4, 47232, Note_on_c, 2, 50, 65
4, 47420, Note_on_c, 2, 50, 0
4, 48384, Note_on_c, 2, 57, 65
4, 48572, Note_on_c, 2, 57, 0
4, 53760, Note_on_c, 2, 55, 65
4, 53948, Note_on_c, 2, 55, 0
4, 54144, Note_on_c, 2, 57, 65
4, 54332, Note_on_c, 2, 57, 0
4, 54528, Note_on_c, 2, 45, 65
4, 54716, Note_on_c, 2, 45, 0
4, 54912, Note_on_c, 2, 57, 65
4, 55100, Note_on_c, 2, 57, 0
4, 55296, Note_on_c, 2, 62, 85
4, 55676, Note_on_c, 2, 62, 0
4, 55680, Note_on_c, 2, 50, 85
4, 56060, Note_on_c, 2, 50, 0
4, 56448, Note_on_c, 2, 62, 85
4, 56828, Note_on_c, 2, 62, 0
4, 57600, Note_on_c, 2, 64, 85
4, 57600, Note_on_c, 2, 57, 85
4, 57788, Note_on_c, 2, 57, 0
4, 57788, Note_on_c, 2, 64, 0
4, 57984, Note_on_c, 2, 57, 85
4, 57984, Note_on_c, 2, 64, 85
4, 58172, Note_on_c, 2, 64, 0
4, 58172, Note_on_c, 2, 57, 0
4, 58368, Note_on_c, 2, 62, 85
4, 58368, Note_on_c, 2, 66, 85
4, 58556, Note_on_c, 2, 66, 0
4, 58556, Note_on_c, 2, 62, 0
4, 58752, Note_on_c, 2, 62, 85
4, 58752, Note_on_c, 2, 66, 85
4, 59036, Note_on_c, 2, 66, 0
4, 59036, Note_on_c, 2, 62, 0
4, 59040, Note_on_c, 2, 64, 85
4, 59040, Note_on_c, 2, 67, 85
4, 59132, Note_on_c, 2, 67, 0
4, 59132, Note_on_c, 2, 64, 0
4, 59136, Note_on_c, 2, 57, 85
4, 59136, Note_on_c, 2, 64, 85
4, 59324, Note_on_c, 2, 64, 0
4, 59324, Note_on_c, 2, 57, 0
4, 59520, Note_on_c, 2, 64, 85
4, 59520, Note_on_c, 2, 61, 85
4, 59520, Note_on_c, 2, 55, 85
4, 59900, Note_on_c, 2, 55, 0
4, 59900, Note_on_c, 2, 61, 0
4, 59900, Note_on_c, 2, 64, 0
4, 59904, Note_on_c, 2, 62, 85
4, 59904, Note_on_c, 2, 57, 85
4, 59904, Note_on_c, 2, 54, 85
4, 60284, Note_on_c, 2, 54, 0
4, 60284, Note_on_c, 2, 57, 0
4, 60284, Note_on_c, 2, 62, 0
4, 60288, Note_on_c, 2, 52, 85
4, 60304, Note_on_c, 2, 57, 85
4, 60320, Note_on_c, 2, 67, 85
4, 60668, Note_on_c, 2, 52, 0
4, 60672, Note_on_c, 2, 66, 85
4, 60672, Note_on_c, 2, 50, 85
4, 60684, Note_on_c, 2, 57, 0
4, 60700, Note_on_c, 2, 67, 0
4, 61052, Note_on_c, 2, 66, 0
4, 61052, Note_on_c, 2, 50, 0
4, 61056, Note_on_c, 2, 64, 85
4, 61056, Note_on_c, 2, 49, 85
4, 61436, Note_on_c, 2, 49, 0
4, 61440, Note_on_c, 2, 57, 85
4, 61440, Note_on_c, 2, 52, 85
4, 61440, Note_on_c, 2, 49, 85
4, 61440, Note_on_c, 2, 45, 85
4, 61820, Note_on_c, 2, 45, 0
4, 61820, Note_on_c, 2, 52, 0
4, 61820, Note_on_c, 2, 64, 0
4, 61820, Note_on_c, 2, 57, 0
4, 61820, Note_on_c, 2, 49, 0
4, 61824, Note_on_c, 2, 50, 85
4, 61824, Note_on_c, 2, 62, 85
4, 62204, Note_on_c, 2, 62, 0
4, 62204, Note_on_c, 2, 50, 0
4, 62208, Note_on_c, 2, 55, 85
4, 62588, Note_on_c, 2, 55, 0
4, 62592, Note_on_c, 2, 52, 85
4, 62592, Note_on_c, 2, 59, 85
4, 62972, Note_on_c, 2, 59, 0
4, 62972, Note_on_c, 2, 52, 0
4, 62976, Note_on_c, 2, 57, 85
4, 63356, Note_on_c, 2, 57, 0
4, 63360, Note_on_c, 2, 57, 85
4, 63360, Note_on_c, 2, 50, 85
4, 63740, Note_on_c, 2, 50, 0
4, 63740, Note_on_c, 2, 57, 0
4, 63936, Note_on_c, 2, 60, 85
4, 64124, Note_on_c, 2, 60, 0
4, 64128, Note_on_c, 2, 59, 85
4, 64316, Note_on_c, 2, 59, 0
4, 64320, Note_on_c, 2, 57, 85
4, 64508, Note_on_c, 2, 57, 0
4, 64512, Note_on_c, 2, 55, 70
4, 64892, Note_on_c, 2, 55, 0
4, 65664, Note_on_c, 2, 55, 70
4, 66044, Note_on_c, 2, 55, 0
4, 66816, Note_on_c, 2, 55, 70
4, 67196, Note_on_c, 2, 55, 0
4, 67968, Note_on_c, 2, 50, 70
4, 68348, Note_on_c, 2, 50, 0
4, 69120, Note_on_c, 2, 50, 70
4, 69500, Note_on_c, 2, 50, 0
4, 70272, Note_on_c, 2, 54, 70
4, 70272, Note_on_c, 2, 50, 70
4, 70460, Note_on_c, 2, 54, 0
4, 70464, Note_on_c, 2, 55, 70
4, 70652, Note_on_c, 2, 55, 0
4, 70656, Note_on_c, 2, 57, 70
4, 70844, Note_on_c, 2, 57, 0
4, 70844, Note_on_c, 2, 50, 0
4, 71424, Note_on_c, 2, 50, 70
4, 71804, Note_on_c, 2, 50, 0
4, 72576, Note_on_c, 2, 55, 70
4, 72576, Note_on_c, 2, 43, 70
4, 72956, Note_on_c, 2, 43, 0
4, 72956, Note_on_c, 2, 55, 0
4, 73152, Note_on_c, 2, 59, 70
4, 73340, Note_on_c, 2, 59, 0
4, 73344, Note_on_c, 2, 57, 70
4, 73532, Note_on_c, 2, 57, 0
4, 73536, Note_on_c, 2, 55, 70
4, 73724, Note_on_c, 2, 55, 0
4, 73728, Note_on_c, 2, 57, 70
4, 73728, Note_on_c, 2, 50, 70
4, 74108, Note_on_c, 2, 50, 0
4, 74108, Note_on_c, 2, 57, 0
4, 74880, Note_on_c, 2, 54, 70
4, 74880, Note_on_c, 2, 50, 70
4, 75068, Note_on_c, 2, 54, 0
4, 75072, Note_on_c, 2, 55, 70
4, 75260, Note_on_c, 2, 55, 0
4, 75264, Note_on_c, 2, 57, 70
4, 75452, Note_on_c, 2, 57, 0
4, 75452, Note_on_c, 2, 50, 0
4, 76032, Note_on_c, 2, 57, 70
4, 76032, Note_on_c, 2, 50, 70
4, 76412, Note_on_c, 2, 50, 0
4, 76412, Note_on_c, 2, 57, 0
4, 77184, Note_on_c, 2, 59, 70
4, 77184, Note_on_c, 2, 55, 70
4, 77476, Note_on_c, 2, 55, 0
4, 77476, Note_on_c, 2, 59, 0
4, 78528, Note_on_c, 2, 55, 65
4, 78716, Note_on_c, 2, 55, 0
4, 78720, Note_on_c, 2, 55, 65
4, 78908, Note_on_c, 2, 55, 0
4, 78912, Note_on_c, 2, 55, 65
4, 79100, Note_on_c, 2, 55, 0
4, 79104, Note_on_c, 2, 55, 65
4, 79292, Note_on_c, 2, 55, 0
4, 79296, Note_on_c, 2, 55, 65
4, 79484, Note_on_c, 2, 55, 0
4, 79488, Note_on_c, 2, 57, 65
4, 79488, Note_on_c, 2, 45, 65
4, 79780, Note_on_c, 2, 45, 0
4, 79780, Note_on_c, 2, 57, 0
4, 80832, Note_on_c, 2, 51, 65
4, 81020, Note_on_c, 2, 51, 0
4, 81024, Note_on_c, 2, 51, 65
4, 81212, Note_on_c, 2, 51, 0
4, 81216, Note_on_c, 2, 51, 65
4, 81404, Note_on_c, 2, 51, 0
4, 81408, Note_on_c, 2, 51, 65
4, 81596, Note_on_c, 2, 51, 0
4, 81600, Note_on_c, 2, 51, 65
4, 81788, Note_on_c, 2, 51, 0
4, 81792, Note_on_c, 2, 52, 65
4, 81792, Note_on_c, 2, 40, 65
4, 82172, Note_on_c, 2, 40, 0
4, 82172, Note_on_c, 2, 52, 0
4, 82944, Note_on_c, 2, 52, 65
4, 82944, Note_on_c, 2, 40, 65
4, 83324, Note_on_c, 2, 40, 0
4, 83324, Note_on_c, 2, 52, 0
4, 84096, Note_on_c, 2, 52, 67
4, 84096, Note_on_c, 2, 40, 67
4, 84476, Note_on_c, 2, 40, 0
4, 84476, Note_on_c, 2, 52, 0
4, 85632, Note_on_c, 2, 53, 85
4, 85632, Note_on_c, 2, 41, 85
4, 86396, Note_on_c, 2, 41, 0
4, 86396, Note_on_c, 2, 53, 0
4, 86400, Note_on_c, 2, 54, 65
4, 86400, Note_on_c, 2, 42, 65
4, 86780, Note_on_c, 2, 42, 0
4, 86780, Note_on_c, 2, 54, 0
4, 86784, Note_on_c, 2, 46, 85
4, 86976, Note_on_c, 2, 49, 65
4, 87164, Note_on_c, 2, 49, 0
4, 87168, Note_on_c, 2, 54, 65
4, 87356, Note_on_c, 2, 54, 0
4, 87360, Note_on_c, 2, 54, 65
4, 87548, Note_on_c, 2, 54, 0
4, 87548, Note_on_c, 2, 46, 0
4, 87552, Note_on_c, 2, 54, 65
4, 87552, Note_on_c, 2, 47, 65
4, 87740, Note_on_c, 2, 47, 0
4, 87740, Note_on_c, 2, 54, 0
4, 88320, Note_on_c, 2, 47, 65
4, 88508, Note_on_c, 2, 47, 0
4, 88704, Note_on_c, 2, 46, 65
4, 88892, Note_on_c, 2, 46, 0
4, 89472, Note_on_c, 2, 46, 65
4, 89660, Note_on_c, 2, 46, 0
4, 89856, Note_on_c, 2, 47, 65
4, 90044, Note_on_c, 2, 47, 0
4, 90624, Note_on_c, 2, 47, 65
4, 90812, Note_on_c, 2, 47, 0
4, 91008, Note_on_c, 2, 46, 65
4, 91196, Note_on_c, 2, 46, 0
4, 91776, Note_on_c, 2, 46, 65
4, 91964, Note_on_c, 2, 46, 0
4, 92160, Note_on_c, 2, 47, 65
4, 92348, Note_on_c, 2, 47, 0
4, 94656, Note_on_c, 2, 67, 75
4, 94844, Note_on_c, 2, 67, 0
4, 94848, Note_on_c, 2, 67, 75
4, 95036, Note_on_c, 2, 67, 0
4, 95040, Note_on_c, 2, 67, 75
4, 95228, Note_on_c, 2, 67, 0
4, 95232, Note_on_c, 2, 67, 75
4, 95420, Note_on_c, 2, 67, 0
4, 95424, Note_on_c, 2, 67, 75
4, 95612, Note_on_c, 2, 67, 0
4, 95616, Note_on_c, 2, 66, 75
4, 95804, Note_on_c, 2, 66, 0
4, 95808, Note_on_c, 2, 66, 75
4, 95996, Note_on_c, 2, 66, 0
4, 96000, Note_on_c, 2, 64, 75
4, 96188, Note_on_c, 2, 64, 0
4, 96192, Note_on_c, 2, 64, 75
4, 96380, Note_on_c, 2, 64, 0
4, 96384, Note_on_c, 2, 62, 75
4, 96572, Note_on_c, 2, 62, 0
4, 96576, Note_on_c, 2, 62, 75
4, 96764, Note_on_c, 2, 62, 0
4, 96768, Note_on_c, 2, 64, 75
4, 96956, Note_on_c, 2, 64, 0
4, 96960, Note_on_c, 2, 64, 75
4, 97148, Note_on_c, 2, 64, 0
4, 97344, Note_on_c, 2, 66, 75
4, 97532, Note_on_c, 2, 66, 0
4, 97536, Note_on_c, 2, 54, 75
4, 97724, Note_on_c, 2, 54, 0
4, 97728, Note_on_c, 2, 54, 75
4, 97916, Note_on_c, 2, 54, 0
4, 97920, Note_on_c, 2, 54, 75
4, 98108, Note_on_c, 2, 54, 0
4, 98112, Note_on_c, 2, 54, 75
4, 98300, Note_on_c, 2, 54, 0
4, 98304, Note_on_c, 2, 54, 75
4, 98492, Note_on_c, 2, 54, 0
4, 98496, Note_on_c, 2, 54, 75
4, 98684, Note_on_c, 2, 54, 0
4, 98688, Note_on_c, 2, 54, 75
4, 98876, Note_on_c, 2, 54, 0
4, 98880, Note_on_c, 2, 54, 75
4, 99068, Note_on_c, 2, 54, 0
4, 99072, Note_on_c, 2, 55, 75
4, 99260, Note_on_c, 2, 55, 0
4, 99264, Note_on_c, 2, 55, 75
4, 99452, Note_on_c, 2, 55, 0
4, 99456, Note_on_c, 2, 55, 75
4, 99644, Note_on_c, 2, 55, 0
4, 99648, Note_on_c, 2, 55, 75
4, 99836, Note_on_c, 2, 55, 0
4, 99840, Note_on_c, 2, 55, 75
4, 100028, Note_on_c, 2, 55, 0
4, 100032, Note_on_c, 2, 55, 75
4, 100220, Note_on_c, 2, 55, 0
4, 100224, Note_on_c, 2, 61, 76
4, 100224, Note_on_c, 2, 66, 76
4, 100224, Note_on_c, 2, 54, 76
4, 100412, Note_on_c, 2, 66, 0
4, 100412, Note_on_c, 2, 61, 0
4, 100416, Note_on_c, 2, 61, 76
4, 100416, Note_on_c, 2, 66, 76
4, 100604, Note_on_c, 2, 66, 0
4, 100604, Note_on_c, 2, 61, 0
4, 100604, Note_on_c, 2, 54, 0
4, 100608, Note_on_c, 2, 58, 77
4, 100608, Note_on_c, 2, 61, 77
4, 100608, Note_on_c, 2, 52, 77
4, 100796, Note_on_c, 2, 61, 0
4, 100796, Note_on_c, 2, 58, 0
4, 100800, Note_on_c, 2, 58, 78
4, 100800, Note_on_c, 2, 61, 78
4, 100988, Note_on_c, 2, 61, 0
4, 100988, Note_on_c, 2, 58, 0
4, 100988, Note_on_c, 2, 52, 0
4, 100992, Note_on_c, 2, 59, 79
4, 100992, Note_on_c, 2, 62, 79
4, 100992, Note_on_c, 2, 50, 79
4, 101180, Note_on_c, 2, 62, 0
4, 101180, Note_on_c, 2, 59, 0
4, 101184, Note_on_c, 2, 59, 79
4, 101184, Note_on_c, 2, 62, 79
4, 101372, Note_on_c, 2, 62, 0
4, 101372, Note_on_c, 2, 59, 0
4, 101372, Note_on_c, 2, 50, 0
4, 101376, Note_on_c, 2, 55, 80
4, 101376, Note_on_c, 2, 61, 80
4, 101376, Note_on_c, 2, 52, 80
4, 101564, Note_on_c, 2, 52, 0
4, 101564, Note_on_c, 2, 61, 0
4, 101564, Note_on_c, 2, 55, 0
4, 101568, Note_on_c, 2, 61, 81
4, 101568, Note_on_c, 2, 55, 81
4, 101568, Note_on_c, 2, 40, 81
4, 101756, Note_on_c, 2, 40, 0
4, 101756, Note_on_c, 2, 55, 0
4, 101756, Note_on_c, 2, 61, 0
4, 101760, Note_on_c, 2, 42, 82
4, 101760, Note_on_c, 2, 59, 82
4, 101760, Note_on_c, 2, 54, 82
4, 101948, Note_on_c, 2, 54, 0
4, 101948, Note_on_c, 2, 59, 0
4, 101952, Note_on_c, 2, 59, 82
4, 101952, Note_on_c, 2, 54, 82
4, 102140, Note_on_c, 2, 54, 0
4, 102140, Note_on_c, 2, 59, 0
4, 102140, Note_on_c, 2, 42, 0
4, 102144, Note_on_c, 2, 42, 83
4, 102144, Note_on_c, 2, 58, 83
4, 102144, Note_on_c, 2, 54, 83
4, 102144, Note_on_c, 2, 52, 83
4, 102332, Note_on_c, 2, 52, 0
4, 102332, Note_on_c, 2, 54, 0
4, 102332, Note_on_c, 2, 58, 0
4, 102336, Note_on_c, 2, 58, 84
4, 102336, Note_on_c, 2, 54, 84
4, 102336, Note_on_c, 2, 52, 84
4, 102524, Note_on_c, 2, 52, 0
4, 102524, Note_on_c, 2, 42, 0
4, 102524, Note_on_c, 2, 58, 0
4, 102524, Note_on_c, 2, 54, 0
4, 102528, Note_on_c, 2, 47, 85
4, 102528, Note_on_c, 2, 35, 85
4, 103292, Note_on_c, 2, 35, 0
4, 103292, Note_on_c, 2, 47, 0
4, 103680, Note_on_c, 2, 62, 65
4, 103680, Note_on_c, 2, 62, 65
4, 104060, Note_on_c, 2, 62, 0
4, 104064, Note_on_c, 2, 50, 65
4, 104252, Note_on_c, 2, 62, 0
4, 104256, Note_on_c, 2, 64, 65
4, 104444, Note_on_c, 2, 64, 0
4, 104444, Note_on_c, 2, 50, 0
4, 104448, Note_on_c, 2, 65, 65
4, 104636, Note_on_c, 2, 65, 0
4, 104640, Note_on_c, 2, 66, 65
4, 104828, Note_on_c, 2, 66, 0
4, 104832, Note_on_c, 2, 62, 65
4, 104832, Note_on_c, 2, 66, 65
4, 105212, Note_on_c, 2, 66, 0
4, 105212, Note_on_c, 2, 62, 0
4, 105984, Note_on_c, 2, 61, 65
4, 105984, Note_on_c, 2, 57, 65
4, 106172, Note_on_c, 2, 57, 0
4, 106172, Note_on_c, 2, 61, 0
4, 106368, Note_on_c, 2, 61, 65
4, 106556, Note_on_c, 2, 61, 0
4, 106752, Note_on_c, 2, 62, 65
4, 106940, Note_on_c, 2, 62, 0
4, 107136, Note_on_c, 2, 62, 65
4, 107424, Note_on_c, 2, 62, 0
4, 107424, Note_on_c, 2, 64, 65
4, 107504, Note_on_c, 2, 64, 0
4, 107520, Note_on_c, 2, 61, 65
4, 107520, Note_on_c, 2, 57, 65
4, 107708, Note_on_c, 2, 57, 0
4, 107708, Note_on_c, 2, 61, 0
4, 107904, Note_on_c, 2, 55, 65
4, 108276, Note_on_c, 2, 55, 0
4, 108288, Note_on_c, 2, 57, 65
4, 108288, Note_on_c, 2, 54, 65
4, 108672, Note_on_c, 2, 54, 0
4, 108672, Note_on_c, 2, 50, 65
4, 109044, Note_on_c, 2, 50, 0
4, 109056, Note_on_c, 2, 55, 65
4, 109436, Note_on_c, 2, 55, 0
4, 109436, Note_on_c, 2, 57, 0
4, 109440, Note_on_c, 2, 57, 65
4, 109440, Note_on_c, 2, 54, 65
4, 109824, Note_on_c, 2, 54, 0
4, 109824, Note_on_c, 2, 50, 65
4, 110196, Note_on_c, 2, 50, 0
4, 110208, Note_on_c, 2, 55, 65
4, 110588, Note_on_c, 2, 55, 0
4, 110588, Note_on_c, 2, 57, 0
4, 110592, Note_on_c, 2, 59, 65
4, 110592, Note_on_c, 2, 54, 65
4, 110784, Note_on_c, 2, 59, 0
4, 110784, Note_on_c, 2, 62, 65
4, 110972, Note_on_c, 2, 62, 0
4, 110972, Note_on_c, 2, 54, 0
4, 110976, Note_on_c, 2, 66, 65
4, 110976, Note_on_c, 2, 62, 65
4, 111164, Note_on_c, 2, 66, 0
4, 111168, Note_on_c, 2, 69, 65
4, 111348, Note_on_c, 2, 69, 0
4, 111356, Note_on_c, 2, 62, 0
4, 111360, Note_on_c, 2, 67, 65
4, 111360, Note_on_c, 2, 55, 65
4, 111552, Note_on_c, 2, 67, 0
4, 111552, Note_on_c, 2, 64, 65
4, 111732, Note_on_c, 2, 64, 0
4, 111740, Note_on_c, 2, 55, 0
4, 111744, Note_on_c, 2, 62, 65
4, 111744, Note_on_c, 2, 57, 65
4, 112124, Note_on_c, 2, 57, 0
4, 112128, Note_on_c, 2, 57, 65
4, 112508, Note_on_c, 2, 57, 0
4, 112512, Note_on_c, 2, 62, 0
4, 112512, Note_on_c, 2, 61, 65
4, 112512, Note_on_c, 2, 57, 65
4, 112892, Note_on_c, 2, 57, 0
4, 112892, Note_on_c, 2, 61, 0
4, 112896, Note_on_c, 2, 62, 85
4, 113276, Note_on_c, 2, 62, 0
4, 113280, Note_on_c, 2, 50, 85
4, 113660, Note_on_c, 2, 50, 0
4, 114048, Note_on_c, 2, 62, 85
4, 114048, Note_on_c, 2, 50, 85
4, 114428, Note_on_c, 2, 50, 0
4, 114428, Note_on_c, 2, 62, 0
4, 115200, Note_on_c, 2, 64, 85
4, 115200, Note_on_c, 2, 57, 85
4, 115388, Note_on_c, 2, 57, 0
4, 115388, Note_on_c, 2, 64, 0
4, 115584, Note_on_c, 2, 57, 85
4, 115584, Note_on_c, 2, 64, 85
4, 115772, Note_on_c, 2, 64, 0
4, 115772, Note_on_c, 2, 57, 0
4, 115968, Note_on_c, 2, 62, 85
4, 115968, Note_on_c, 2, 66, 85
4, 116156, Note_on_c, 2, 66, 0
4, 116156, Note_on_c, 2, 62, 0
4, 116352, Note_on_c, 2, 62, 85
4, 116352, Note_on_c, 2, 66, 85
4, 116640, Note_on_c, 2, 66, 0
4, 116640, Note_on_c, 2, 62, 0
4, 116640, Note_on_c, 2, 64, 85
4, 116640, Note_on_c, 2, 67, 85
4, 116720, Note_on_c, 2, 64, 0
4, 116732, Note_on_c, 2, 67, 0
4, 116736, Note_on_c, 2, 57, 85
4, 116736, Note_on_c, 2, 64, 85
4, 116924, Note_on_c, 2, 64, 0
4, 116924, Note_on_c, 2, 57, 0
4, 117120, Note_on_c, 2, 64, 85
4, 117120, Note_on_c, 2, 61, 85
4, 117120, Note_on_c, 2, 55, 85
4, 117500, Note_on_c, 2, 55, 0
4, 117500, Note_on_c, 2, 61, 0
4, 117500, Note_on_c, 2, 64, 0
4, 117504, Note_on_c, 2, 62, 85
4, 117504, Note_on_c, 2, 57, 85
4, 117504, Note_on_c, 2, 54, 85
4, 117884, Note_on_c, 2, 54, 0
4, 117884, Note_on_c, 2, 57, 0
4, 117884, Note_on_c, 2, 62, 0
4, 117888, Note_on_c, 2, 57, 85
4, 117904, Note_on_c, 2, 52, 85
4, 117920, Note_on_c, 2, 67, 85
4, 118268, Note_on_c, 2, 57, 0
4, 118272, Note_on_c, 2, 62, 85
4, 118272, Note_on_c, 2, 66, 85
4, 118272, Note_on_c, 2, 50, 85
4, 118284, Note_on_c, 2, 52, 0
4, 118300, Note_on_c, 2, 67, 0
4, 118652, Note_on_c, 2, 66, 0
4, 118652, Note_on_c, 2, 62, 0
4, 118652, Note_on_c, 2, 50, 0
4, 118656, Note_on_c, 2, 64, 85
4, 118656, Note_on_c, 2, 49, 85
4, 119036, Note_on_c, 2, 49, 0
4, 119040, Note_on_c, 2, 45, 85
4, 119420, Note_on_c, 2, 45, 0
4, 119420, Note_on_c, 2, 64, 0
4, 119424, Note_on_c, 2, 62, 85
4, 119424, Note_on_c, 2, 50, 85
4, 119804, Note_on_c, 2, 50, 0
4, 119804, Note_on_c, 2, 62, 0
4, 119808, Note_on_c, 2, 55, 85
4, 119808, Note_on_c, 2, 59, 85
4, 120188, Note_on_c, 2, 55, 0
4, 120192, Note_on_c, 2, 59, 85
4, 120192, Note_on_c, 2, 52, 85
4, 120572, Note_on_c, 2, 52, 0
4, 120572, Note_on_c, 2, 59, 0
4, 120572, Note_on_c, 2, 59, 0
4, 120576, Note_on_c, 2, 57, 85
4, 120956, Note_on_c, 2, 57, 0
4, 120960, Note_on_c, 2, 50, 85
4, 120960, Note_on_c, 2, 57, 85
4, 121340, Note_on_c, 2, 57, 0
4, 121340, Note_on_c, 2, 50, 0
4, 121536, Note_on_c, 2, 62, 85
4, 121728, Note_on_c, 2, 62, 0
4, 121728, Note_on_c, 2, 61, 85
4, 121920, Note_on_c, 2, 61, 0
4, 121920, Note_on_c, 2, 62, 85
4, 122100, Note_on_c, 2, 62, 0
4, 122112, Note_on_c, 2, 50, 85
4, 122304, Note_on_c, 2, 57, 85
4, 122404, Note_on_c, 2, 57, 0
4, 122492, Note_on_c, 2, 50, 0
4, 122496, Note_on_c, 2, 62, 85
4, 122596, Note_on_c, 2, 62, 0
4, 122688, Note_on_c, 2, 62, 85
4, 122788, Note_on_c, 2, 62, 0
4, 122880, Note_on_c, 2, 69, 85
4, 123072, Note_on_c, 2, 69, 0
4, 123072, Note_on_c, 2, 66, 85
4, 123252, Note_on_c, 2, 66, 0
4, 123264, Note_on_c, 2, 46, 65
4, 123456, Note_on_c, 2, 50, 65
4, 123556, Note_on_c, 2, 50, 0
4, 123644, Note_on_c, 2, 46, 0
4, 123648, Note_on_c, 2, 55, 65
4, 123748, Note_on_c, 2, 55, 0
4, 123840, Note_on_c, 2, 59, 65
4, 123940, Note_on_c, 2, 59, 0
4, 124032, Note_on_c, 2, 62, 85
4, 124224, Note_on_c, 2, 62, 0
4, 124224, Note_on_c, 2, 67, 85
4, 124404, Note_on_c, 2, 67, 0
4, 124416, Note_on_c, 2, 48, 65
4, 124608, Note_on_c, 2, 55, 65
4, 124708, Note_on_c, 2, 55, 0
4, 124796, Note_on_c, 2, 48, 0
4, 124800, Note_on_c, 2, 60, 65
4, 124900, Note_on_c, 2, 60, 0
4, 124992, Note_on_c, 2, 64, 65
4, 125092, Note_on_c, 2, 64, 0
4, 125184, Note_on_c, 2, 67, 85
4, 125376, Note_on_c, 2, 67, 0
4, 125376, Note_on_c, 2, 64, 85
4, 125556, Note_on_c, 2, 64, 0
4, 125568, Note_on_c, 2, 45, 65
4, 125760, Note_on_c, 2, 48, 65
4, 125860, Note_on_c, 2, 48, 0
4, 125948, Note_on_c, 2, 45, 0
4, 125952, Note_on_c, 2, 53, 65
4, 126052, Note_on_c, 2, 53, 0
4, 126144, Note_on_c, 2, 57, 65
4, 126244, Note_on_c, 2, 57, 0
4, 126336, Note_on_c, 2, 60, 85
4, 126528, Note_on_c, 2, 60, 0
4, 126528, Note_on_c, 2, 65, 85
4, 126708, Note_on_c, 2, 65, 0
4, 126720, Note_on_c, 2, 46, 65
4, 126912, Note_on_c, 2, 53, 65
4, 127012, Note_on_c, 2, 53, 0
4, 127100, Note_on_c, 2, 46, 0
4, 127104, Note_on_c, 2, 58, 65
4, 127204, Note_on_c, 2, 58, 0
4, 127296, Note_on_c, 2, 62, 65
4, 127396, Note_on_c, 2, 62, 0
4, 127488, Note_on_c, 2, 65, 85
4, 127680, Note_on_c, 2, 65, 0
4, 127680, Note_on_c, 2, 62, 85
4, 127860, Note_on_c, 2, 62, 0
4, 127872, Note_on_c, 2, 43, 65
4, 128064, Note_on_c, 2, 46, 65
4, 128164, Note_on_c, 2, 46, 0
4, 128252, Note_on_c, 2, 43, 0
4, 128256, Note_on_c, 2, 52, 65
4, 128356, Note_on_c, 2, 52, 0
4, 128448, Note_on_c, 2, 55, 65
4, 128548, Note_on_c, 2, 55, 0
4, 128640, Note_on_c, 2, 59, 85
4, 128832, Note_on_c, 2, 59, 0
4, 128832, Note_on_c, 2, 64, 85
4, 129012, Note_on_c, 2, 64, 0
4, 129024, Note_on_c, 2, 45, 65
4, 129404, Note_on_c, 2, 45, 0
4, 132672, Note_on_c, 2, 49, 64
4, 132864, Note_on_c, 2, 49, 0
4, 132864, Note_on_c, 2, 50, 63
4, 133052, Note_on_c, 2, 50, 0
4, 133056, Note_on_c, 2, 46, 62
4, 133244, Note_on_c, 2, 46, 0
4, 133248, Note_on_c, 2, 45, 60
4, 133436, Note_on_c, 2, 45, 0
4, 133440, Note_on_c, 2, 44, 59
4, 133620, Note_on_c, 2, 44, 0
4, 133632, Note_on_c, 2, 45, 58
4, 134012, Note_on_c, 2, 45, 0
4, 134976, Note_on_c, 2, 61, 50
4, 135168, Note_on_c, 2, 61, 0
4, 135168, Note_on_c, 2, 62, 50
4, 135356, Note_on_c, 2, 62, 0
4, 135360, Note_on_c, 2, 58, 50
4, 135548, Note_on_c, 2, 58, 0
4, 135552, Note_on_c, 2, 57, 50
4, 135740, Note_on_c, 2, 57, 0
4, 135744, Note_on_c, 2, 56, 50
4, 135924, Note_on_c, 2, 56, 0
4, 135936, Note_on_c, 2, 57, 50
4, 136316, Note_on_c, 2, 57, 0
4, 137088, Note_on_c, 2, 50, 70
4, 137468, Note_on_c, 2, 50, 0
4, 138240, Note_on_c, 2, 38, 70
4, 138620, Note_on_c, 2, 38, 0
4, 139392, Note_on_c, 2, 50, 70
4, 139772, Note_on_c, 2, 50, 0
4, 140544, Note_on_c, 2, 57, 70
4, 140924, Note_on_c, 2, 57, 0
4, 141696, Note_on_c, 2, 57, 70
4, 142076, Note_on_c, 2, 57, 0
4, 142848, Note_on_c, 2, 55, 70
4, 142848, Note_on_c, 2, 45, 70
4, 142940, Note_on_c, 2, 55, 0
4, 143040, Note_on_c, 2, 54, 70
4, 143132, Note_on_c, 2, 54, 0
4, 143228, Note_on_c, 2, 45, 0
4, 143232, Note_on_c, 2, 52, 70
4, 143324, Note_on_c, 2, 52, 0
4, 144000, Note_on_c, 2, 57, 70
4, 144380, Note_on_c, 2, 57, 0
4, 145152, Note_on_c, 2, 57, 70
4, 145152, Note_on_c, 2, 50, 70
4, 145532, Note_on_c, 2, 50, 0
4, 145532, Note_on_c, 2, 57, 0
4, 147456, Note_on_c, 2, 55, 70
4, 147456, Note_on_c, 2, 45, 70
4, 147648, Note_on_c, 2, 55, 0
4, 147648, Note_on_c, 2, 54, 70
4, 147828, Note_on_c, 2, 54, 0
4, 147836, Note_on_c, 2, 45, 0
4, 147840, Note_on_c, 2, 52, 70
4, 148028, Note_on_c, 2, 52, 0
4, 148608, Note_on_c, 2, 57, 70
4, 148988, Note_on_c, 2, 57, 0
4, 149184, Note_on_c, 2, 57, 70
4, 149372, Note_on_c, 2, 57, 0
4, 149376, Note_on_c, 2, 59, 70
4, 149564, Note_on_c, 2, 59, 0
4, 149568, Note_on_c, 2, 61, 70
4, 149756, Note_on_c, 2, 61, 0
4, 149760, Note_on_c, 2, 62, 70
4, 149760, Note_on_c, 2, 50, 70
4, 150140, Note_on_c, 2, 50, 0
4, 150140, Note_on_c, 2, 62, 0
4, 150528, Note_on_c, 2, 62, 70
4, 150912, Note_on_c, 2, 62, 0
4, 150912, Note_on_c, 2, 61, 70
4, 151284, Note_on_c, 2, 61, 0
4, 151680, Note_on_c, 2, 49, 68
4, 152064, Note_on_c, 2, 49, 0
4, 152064, Note_on_c, 2, 50, 65
4, 152436, Note_on_c, 2, 50, 0
4, 152832, Note_on_c, 2, 62, 65
4, 153216, Note_on_c, 2, 62, 0
4, 153216, Note_on_c, 2, 61, 65
4, 153588, Note_on_c, 2, 61, 0
4, 153984, Note_on_c, 2, 49, 65
4, 154368, Note_on_c, 2, 49, 0
4, 154368, Note_on_c, 2, 50, 65
4, 154740, Note_on_c, 2, 50, 0
4, 155136, Note_on_c, 2, 62, 65
4, 155520, Note_on_c, 2, 62, 0
4, 155520, Note_on_c, 2, 59, 65
4, 155892, Note_on_c, 2, 59, 0
4, 156288, Note_on_c, 2, 59, 66
4, 156668, Note_on_c, 2, 59, 0
4, 156672, Note_on_c, 2, 57, 68
4, 157052, Note_on_c, 2, 57, 0
4, 157440, Note_on_c, 2, 57, 73
4, 157820, Note_on_c, 2, 57, 0
4, 157824, Note_on_c, 2, 59, 65
4, 158204, Note_on_c, 2, 59, 0
4, 158592, Note_on_c, 2, 59, 75
4, 158972, Note_on_c, 2, 59, 0
4, 158976, Note_on_c, 2, 57, 75
4, 159356, Note_on_c, 2, 57, 0
4, 159744, Note_on_c, 2, 52, 75
4, 160124, Note_on_c, 2, 52, 0
4, 160128, Note_on_c, 2, 57, 75
4, 160508, Note_on_c, 2, 57, 0
4, 160896, Note_on_c, 2, 52, 75
4, 161276, Note_on_c, 2, 52, 0
4, 161280, Note_on_c, 2, 57, 75
4, 161660, Note_on_c, 2, 57, 0
4, 161664, Note_on_c, 2, 57, 75
4, 162044, Note_on_c, 2, 57, 0
4, 162048, Note_on_c, 2, 57, 75
4, 162428, Note_on_c, 2, 57, 0
4, 162432, Note_on_c, 2, 57, 75
4, 163004, Note_on_c, 2, 57, 0
4, 208896, Program_c, 2, 48
4, 210048, Note_on_c, 2, 50, 65
4, 210236, Note_on_c, 2, 50, 0
4, 210432, Note_on_c, 2, 38, 65
4, 210620, Note_on_c, 2, 38, 0
4, 211200, Note_on_c, 2, 50, 65
4, 211388, Note_on_c, 2, 50, 0
4, 212352, Note_on_c, 2, 57, 65
4, 212540, Note_on_c, 2, 57, 0
4, 213888, Note_on_c, 2, 57, 65
4, 214272, Note_on_c, 2, 57, 0
4, 214272, Note_on_c, 2, 55, 65
4, 214644, Note_on_c, 2, 55, 0
4, 214656, Note_on_c, 2, 54, 65
4, 215040, Note_on_c, 2, 54, 0
4, 215040, Note_on_c, 2, 50, 65
4, 215412, Note_on_c, 2, 50, 0
4, 215424, Note_on_c, 2, 55, 65
4, 215612, Note_on_c, 2, 55, 0
4, 215808, Note_on_c, 2, 54, 65
4, 216192, Note_on_c, 2, 54, 0
4, 216192, Note_on_c, 2, 50, 65
4, 216564, Note_on_c, 2, 50, 0
4, 216576, Note_on_c, 2, 55, 65
4, 216764, Note_on_c, 2, 55, 0
4, 216960, Note_on_c, 2, 54, 65
4, 217344, Note_on_c, 2, 54, 0
4, 217344, Note_on_c, 2, 50, 65
4, 217716, Note_on_c, 2, 50, 0
4, 217728, Note_on_c, 2, 55, 65
4, 217916, Note_on_c, 2, 55, 0
4, 218112, Note_on_c, 2, 57, 65
4, 218300, Note_on_c, 2, 57, 0
4, 218496, Note_on_c, 2, 45, 65
4, 218684, Note_on_c, 2, 45, 0
4, 218880, Note_on_c, 2, 57, 65
4, 219068, Note_on_c, 2, 57, 0
4, 219264, Note_on_c, 2, 62, 85
4, 219644, Note_on_c, 2, 62, 0
4, 219648, Note_on_c, 2, 50, 85
4, 220028, Note_on_c, 2, 50, 0
4, 220416, Note_on_c, 2, 62, 85
4, 220416, Note_on_c, 2, 50, 85
4, 220796, Note_on_c, 2, 50, 0
4, 220796, Note_on_c, 2, 62, 0
4, 221568, Note_on_c, 2, 64, 85
4, 221568, Note_on_c, 2, 57, 85
4, 221756, Note_on_c, 2, 57, 0
4, 221756, Note_on_c, 2, 64, 0
4, 221952, Note_on_c, 2, 64, 85
4, 221952, Note_on_c, 2, 57, 85
4, 222140, Note_on_c, 2, 57, 0
4, 222140, Note_on_c, 2, 64, 0
4, 222336, Note_on_c, 2, 62, 85
4, 222336, Note_on_c, 2, 66, 85
4, 222524, Note_on_c, 2, 66, 0
4, 222524, Note_on_c, 2, 62, 0
4, 222720, Note_on_c, 2, 62, 85
4, 222720, Note_on_c, 2, 66, 85
4, 223008, Note_on_c, 2, 66, 0
4, 223008, Note_on_c, 2, 62, 0
4, 223008, Note_on_c, 2, 64, 85
4, 223008, Note_on_c, 2, 67, 85
4, 223088, Note_on_c, 2, 67, 0
4, 223088, Note_on_c, 2, 64, 0
4, 223104, Note_on_c, 2, 64, 85
4, 223104, Note_on_c, 2, 57, 85
4, 223388, Note_on_c, 2, 57, 0
4, 223388, Note_on_c, 2, 64, 0
4, 223392, Note_on_c, 2, 55, 85
4, 223480, Note_on_c, 2, 55, 0
4, 223488, Note_on_c, 2, 54, 85
4, 223772, Note_on_c, 2, 54, 0
4, 223776, Note_on_c, 2, 52, 85
4, 223864, Note_on_c, 2, 52, 0
4, 223872, Note_on_c, 2, 50, 75
4, 224252, Note_on_c, 2, 50, 0
4, 224640, Note_on_c, 2, 50, 75
4, 225020, Note_on_c, 2, 50, 0
4, 225024, Note_on_c, 2, 49, 75
4, 225404, Note_on_c, 2, 49, 0
4, 225792, Note_on_c, 2, 49, 75
4, 226172, Note_on_c, 2, 49, 0
4, 226176, Note_on_c, 2, 50, 65
4, 226556, Note_on_c, 2, 50, 0
4, 226944, Note_on_c, 2, 50, 65
4, 227324, Note_on_c, 2, 50, 0
4, 227328, Note_on_c, 2, 49, 65
4, 227708, Note_on_c, 2, 49, 0
4, 228096, Note_on_c, 2, 49, 65
4, 228476, Note_on_c, 2, 49, 0
4, 228480, Note_on_c, 2, 50, 65
4, 228860, Note_on_c, 2, 50, 0
4, 228864, Note_on_c, 2, 38, 65
4, 229244, Note_on_c, 2, 38, 0
4, 229632, Note_on_c, 2, 62, 65
4, 230012, Note_on_c, 2, 62, 0
4, 230016, Note_on_c, 2, 50, 65
4, 230396, Note_on_c, 2, 50, 0
4, 231552, Note_on_c, 2, 57, 65
4, 231932, Note_on_c, 2, 57, 0
4, 231936, Note_on_c, 2, 62, 66
4, 232316, Note_on_c, 2, 62, 0
4, 232320, Note_on_c, 2, 50, 67
4, 232700, Note_on_c, 2, 50, 0
4, 233088, Note_on_c, 2, 62, 69
4, 233468, Note_on_c, 2, 62, 0
4, 233472, Note_on_c, 2, 50, 70
4, 233852, Note_on_c, 2, 50, 0
4, 237120, Note_on_c, 2, 56, 75
4, 237308, Note_on_c, 2, 56, 0
4, 237312, Note_on_c, 2, 56, 75
4, 237500, Note_on_c, 2, 56, 0
4, 237504, Note_on_c, 2, 56, 75
4, 237692, Note_on_c, 2, 56, 0
4, 237696, Note_on_c, 2, 57, 75
4, 237884, Note_on_c, 2, 57, 0
4, 237888, Note_on_c, 2, 57, 75
4, 238076, Note_on_c, 2, 57, 0
4, 238080, Note_on_c, 2, 57, 75
4, 238268, Note_on_c, 2, 57, 0
4, 238272, Note_on_c, 2, 57, 75
4, 238460, Note_on_c, 2, 57, 0
4, 238464, Note_on_c, 2, 57, 75
4, 238652, Note_on_c, 2, 57, 0
4, 238656, Note_on_c, 2, 57, 75
4, 238844, Note_on_c, 2, 57, 0
4, 238848, Note_on_c, 2, 57, 75
4, 239036, Note_on_c, 2, 57, 0
4, 239040, Note_on_c, 2, 57, 75
4, 239228, Note_on_c, 2, 57, 0
4, 239232, Note_on_c, 2, 57, 75
4, 239420, Note_on_c, 2, 57, 0
4, 239424, Note_on_c, 2, 57, 75
4, 239612, Note_on_c, 2, 57, 0
4, 239616, Note_on_c, 2, 57, 75
4, 239804, Note_on_c, 2, 57, 0
4, 239808, Note_on_c, 2, 57, 75
4, 239996, Note_on_c, 2, 57, 0
4, 240000, Note_on_c, 2, 62, 85
4, 240000, Note_on_c, 2, 57, 85
4, 240000, Note_on_c, 2, 50, 85
4, 240380, Note_on_c, 2, 50, 0
4, 240380, Note_on_c, 2, 57, 0
4, 240380, Note_on_c, 2, 62, 0
4, 240384, Note_on_c, 2, 50, 85
4, 240384, Note_on_c, 2, 38, 85
4, 240764, Note_on_c, 2, 38, 0
4, 240764, Note_on_c, 2, 50, 0
4, 241152, Note_on_c, 2, 62, 85
4, 241152, Note_on_c, 2, 50, 85
4, 241532, Note_on_c, 2, 50, 0
4, 241532, Note_on_c, 2, 62, 0
4, 242304, Note_on_c, 2, 64, 85
4, 242304, Note_on_c, 2, 57, 85
4, 242492, Note_on_c, 2, 57, 0
4, 242492, Note_on_c, 2, 64, 0
4, 242688, Note_on_c, 2, 64, 85
4, 242688, Note_on_c, 2, 57, 85
4, 242876, Note_on_c, 2, 57, 0
4, 242876, Note_on_c, 2, 64, 0
4, 243072, Note_on_c, 2, 62, 85
4, 243072, Note_on_c, 2, 66, 85
4, 243260, Note_on_c, 2, 66, 0
4, 243260, Note_on_c, 2, 62, 0
4, 243456, Note_on_c, 2, 66, 85
4, 243456, Note_on_c, 2, 62, 85
4, 243744, Note_on_c, 2, 62, 0
4, 243744, Note_on_c, 2, 66, 0
4, 243744, Note_on_c, 2, 67, 85
4, 243744, Note_on_c, 2, 64, 85
4, 243824, Note_on_c, 2, 64, 0
4, 243824, Note_on_c, 2, 67, 0
4, 243840, Note_on_c, 2, 64, 85
4, 243840, Note_on_c, 2, 57, 85
4, 244028, Note_on_c, 2, 57, 0
4, 244028, Note_on_c, 2, 64, 0
4, 244224, Note_on_c, 2, 55, 85
4, 244224, Note_on_c, 2, 61, 85
4, 244224, Note_on_c, 2, 64, 85
4, 244604, Note_on_c, 2, 64, 0
4, 244604, Note_on_c, 2, 61, 0
4, 244604, Note_on_c, 2, 55, 0
4, 244608, Note_on_c, 2, 57, 85
4, 244608, Note_on_c, 2, 54, 85
4, 244608, Note_on_c, 2, 62, 85
4, 244988, Note_on_c, 2, 62, 0
4, 244988, Note_on_c, 2, 54, 0
4, 244988, Note_on_c, 2, 57, 0
4, 244992, Note_on_c, 2, 57, 85
4, 245012, Note_on_c, 2, 52, 85
4, 245032, Note_on_c, 2, 67, 85
4, 245372, Note_on_c, 2, 57, 0
4, 245376, Note_on_c, 2, 66, 85
4, 245376, Note_on_c, 2, 50, 85
4, 245392, Note_on_c, 2, 52, 0
4, 245412, Note_on_c, 2, 67, 0
4, 245756, Note_on_c, 2, 66, 0
4, 245756, Note_on_c, 2, 50, 0
4, 245760, Note_on_c, 2, 64, 85
4, 245760, Note_on_c, 2, 49, 85
4, 246140, Note_on_c, 2, 49, 0
4, 246144, Note_on_c, 2, 45, 85
4, 246524, Note_on_c, 2, 45, 0
4, 246524, Note_on_c, 2, 64, 0
4, 246528, Note_on_c, 2, 50, 85
4, 246528, Note_on_c, 2, 62, 85
4, 246908, Note_on_c, 2, 62, 0
4, 246908, Note_on_c, 2, 50, 0
4, 246912, Note_on_c, 2, 55, 85
4, 247292, Note_on_c, 2, 55, 0
4, 247296, Note_on_c, 2, 59, 85
4, 247296, Note_on_c, 2, 52, 85
4, 247676, Note_on_c, 2, 52, 0
4, 247676, Note_on_c, 2, 59, 0
4, 247680, Note_on_c, 2, 57, 85
4, 248060, Note_on_c, 2, 57, 0
4, 248064, Note_on_c, 2, 57, 85
4, 248064, Note_on_c, 2, 50, 85
4, 248444, Note_on_c, 2, 50, 0
4, 248444, Note_on_c, 2, 57, 0
4, 248640, Note_on_c, 2, 57, 85
4, 248640, Note_on_c, 2, 54, 85
4, 248828, Note_on_c, 2, 54, 0
4, 248828, Note_on_c, 2, 57, 0
4, 248832, Note_on_c, 2, 57, 85
4, 248832, Note_on_c, 2, 52, 85
4, 248832, Note_on_c, 2, 45, 85
4, 249020, Note_on_c, 2, 45, 0
4, 249020, Note_on_c, 2, 52, 0
4, 249020, Note_on_c, 2, 57, 0
4, 249024, Note_on_c, 2, 57, 85
4, 249024, Note_on_c, 2, 52, 85
4, 249024, Note_on_c, 2, 45, 85
4, 249212, Note_on_c, 2, 45, 0
4, 249212, Note_on_c, 2, 52, 0
4, 249212, Note_on_c, 2, 57, 0
4, 249216, Note_on_c, 2, 57, 85
4, 249216, Note_on_c, 2, 50, 85
4, 249596, Note_on_c, 2, 50, 0
4, 249596, Note_on_c, 2, 57, 0
4, 249792, Note_on_c, 2, 57, 85
4, 249792, Note_on_c, 2, 54, 85
4, 249980, Note_on_c, 2, 54, 0
4, 249980, Note_on_c, 2, 57, 0
4, 249984, Note_on_c, 2, 57, 85
4, 249984, Note_on_c, 2, 52, 85
4, 249984, Note_on_c, 2, 45, 85
4, 250172, Note_on_c, 2, 45, 0
4, 250172, Note_on_c, 2, 52, 0
4, 250172, Note_on_c, 2, 57, 0
4, 250176, Note_on_c, 2, 57, 85
4, 250176, Note_on_c, 2, 52, 85
4, 250176, Note_on_c, 2, 45, 85
4, 250364, Note_on_c, 2, 45, 0
4, 250364, Note_on_c, 2, 52, 0
4, 250364, Note_on_c, 2, 57, 0
4, 250368, Note_on_c, 2, 57, 85
4, 250368, Note_on_c, 2, 50, 85
4, 250748, Note_on_c, 2, 50, 0
4, 250748, Note_on_c, 2, 57, 0
4, 250752, Note_on_c, 2, 50, 85
4, 250752, Note_on_c, 2, 38, 85
4, 251132, Note_on_c, 2, 38, 0
4, 251132, Note_on_c, 2, 50, 0
4, 251136, Note_on_c, 2, 50, 85
4, 251136, Note_on_c, 2, 38, 85
4, 251516, Note_on_c, 2, 38, 0
4, 251516, Note_on_c, 2, 50, 0
4, 251520, Note_on_c, 2, 50, 85
4, 251520, Note_on_c, 2, 38, 85
4, 252284, Note_on_c, 2, 38, 0
4, 252284, Note_on_c, 2, 50, 0
4, 252284, End_track
5, 0, Start_track
5, 0, MIDI_port, 0
5, 0, Title_t, "Midi by:"
5, 0, End_track
6, 0, Start_track
6, 0, MIDI_port, 0
6, 0, Title_t, "B.Fisher"
6, 0, End_track
0, 0, End_of_file
