0, 0, Header, 1, 16, 384
1, 0, Start_track
1, 0, Time_signature, 3, 2, 96, 8
1, 0, Sequencer_specific, 3, 0, 0, 65
1, 0, Tempo, 1200000
1, 0, End_track
2, 0, Start_track
2, 0, Title_t, "Mozart"
2, 0, Control_c, 0, 0, 0
2, 0, Program_c, 0, 0
2, 0, Control_c, 0, 7, 121
2, 0, Control_c, 0, 10, 79
2, 0, Control_c, 0, 91, 70
2, 0, Control_c, 0, 93, 39
2, 0, Key_signature, -1, "minor"
2, 0, Control_c, 0, 121, 0
2, 384, Control_c, 0, 10, 73
2, 480, Control_c, 0, 91, 63
2, 576, Control_c, 0, 93, 40
2, 672, Program_c, 0, 0
2, 1152, Note_on_c, 0, 69, 50
2, 1248, Note_off_c, 0, 69, 100
2, 1296, Note_on_c, 0, 65, 50
2, 1328, Note_off_c, 0, 65, 100
2, 1344, Note_on_c, 0, 70, 50
2, 1440, Note_off_c, 0, 70, 100
2, 1488, Note_on_c, 0, 67, 50
2, 1520, Note_off_c, 0, 67, 100
2, 1536, Note_on_c, 0, 72, 75
2, 1728, Note_off_c, 0, 72, 100
2, 1824, Note_on_c, 0, 69, 50
2, 1888, Note_off_c, 0, 69, 100
2, 1920, Note_on_c, 0, 65, 50
2, 2048, Note_off_c, 0, 65, 100
2, 2304, Note_on_c, 0, 74, 50
2, 2400, Note_off_c, 0, 74, 100
2, 2448, Note_on_c, 0, 70, 50
2, 2480, Note_off_c, 0, 70, 100
2, 2496, Note_on_c, 0, 76, 50
2, 2592, Note_off_c, 0, 76, 100
2, 2640, Note_on_c, 0, 72, 50
2, 2672, Note_off_c, 0, 72, 100
2, 2688, Note_on_c, 0, 77, 75
2, 2880, Note_off_c, 0, 77, 100
2, 2976, Note_on_c, 0, 72, 50
2, 3040, Note_off_c, 0, 72, 100
2, 3072, Note_on_c, 0, 69, 50
2, 3200, Note_off_c, 0, 69, 100
2, 3456, Note_on_c, 0, 77, 75
2, 3552, Note_off_c, 0, 77, 100
2, 3600, Note_on_c, 0, 72, 75
2, 3632, Note_off_c, 0, 72, 100
2, 3648, Note_on_c, 0, 79, 75
2, 3744, Note_off_c, 0, 79, 100
2, 3792, Note_on_c, 0, 76, 75
2, 3824, Note_off_c, 0, 76, 100
2, 3840, Note_on_c, 0, 81, 75
2, 3936, Note_off_c, 0, 81, 100
2, 3984, Note_on_c, 0, 79, 75
2, 4016, Note_off_c, 0, 79, 100
2, 4032, Note_on_c, 0, 77, 75
2, 4128, Note_off_c, 0, 77, 100
2, 4176, Note_on_c, 0, 76, 75
2, 4208, Note_off_c, 0, 76, 100
2, 4224, Note_on_c, 0, 77, 75
2, 4320, Note_off_c, 0, 77, 100
2, 4368, Note_on_c, 0, 72, 75
2, 4400, Note_off_c, 0, 72, 100
2, 4432, Note_on_c, 0, 74, 75
2, 4528, Note_off_c, 0, 74, 100
2, 4560, Note_on_c, 0, 69, 75
2, 4592, Note_off_c, 0, 69, 100
2, 4608, Note_on_c, 0, 62, 75
2, 4608, Note_on_c, 0, 72, 75
2, 4736, Note_off_c, 0, 62, 100
2, 4736, Note_off_c, 0, 72, 100
2, 4800, Note_on_c, 0, 64, 75
2, 4800, Note_on_c, 0, 70, 75
2, 4820, Note_off_c, 0, 70, 0
2, 4824, Note_on_c, 0, 72, 75
2, 4844, Note_off_c, 0, 72, 0
2, 4848, Note_on_c, 0, 70, 75
2, 4868, Note_off_c, 0, 70, 0
2, 4872, Note_on_c, 0, 72, 75
2, 4892, Note_off_c, 0, 72, 0
2, 4896, Note_on_c, 0, 70, 75
2, 4916, Note_off_c, 0, 70, 0
2, 4920, Note_on_c, 0, 72, 75
2, 4928, Note_off_c, 0, 64, 100
2, 4940, Note_off_c, 0, 72, 0
2, 4944, Note_on_c, 0, 69, 75
2, 4964, Note_off_c, 0, 69, 0
2, 4968, Note_on_c, 0, 70, 75
2, 4988, Note_off_c, 0, 70, 0
2, 4992, Note_on_c, 0, 69, 75
2, 4992, Note_on_c, 0, 65, 75
2, 5180, Note_off_c, 0, 69, 0
2, 5180, Note_off_c, 0, 65, 0
2, 5376, Note_on_c, 0, 69, 50
2, 5468, Note_off_c, 0, 69, 0
2, 5472, Note_on_c, 0, 70, 50
2, 5564, Note_off_c, 0, 70, 0
2, 5568, Note_on_c, 0, 71, 50
2, 5660, Note_off_c, 0, 71, 0
2, 5664, Note_on_c, 0, 72, 50
2, 5756, Note_off_c, 0, 72, 0
2, 5760, Note_on_c, 0, 65, 75
2, 5952, Note_off_c, 0, 65, 100
2, 6048, Note_on_c, 0, 67, 50
2, 6080, Note_off_c, 0, 67, 100
2, 6096, Note_on_c, 0, 65, 50
2, 6128, Note_off_c, 0, 65, 100
2, 6144, Note_on_c, 0, 64, 50
2, 6272, Note_off_c, 0, 64, 100
2, 6432, Note_on_c, 0, 76, 50
2, 6496, Note_off_c, 0, 76, 100
2, 6528, Note_on_c, 0, 79, 50
2, 6592, Note_off_c, 0, 79, 100
2, 6624, Note_on_c, 0, 77, 50
2, 6688, Note_off_c, 0, 77, 100
2, 6720, Note_on_c, 0, 76, 50
2, 6784, Note_off_c, 0, 76, 100
2, 6816, Note_on_c, 0, 74, 50
2, 6880, Note_off_c, 0, 74, 100
2, 6912, Note_on_c, 0, 72, 50
2, 7104, Note_off_c, 0, 72, 100
2, 7200, Note_on_c, 0, 74, 50
2, 7232, Note_off_c, 0, 74, 100
2, 7248, Note_on_c, 0, 72, 50
2, 7280, Note_off_c, 0, 72, 100
2, 7296, Note_on_c, 0, 71, 50
2, 7424, Note_off_c, 0, 71, 100
2, 7584, Note_on_c, 0, 70, 75
2, 7648, Note_off_c, 0, 70, 100
2, 7680, Note_on_c, 0, 82, 50
2, 7744, Note_off_c, 0, 82, 100
2, 7776, Note_on_c, 0, 79, 50
2, 7840, Note_off_c, 0, 79, 100
2, 7872, Note_on_c, 0, 77, 50
2, 7936, Note_off_c, 0, 77, 100
2, 7968, Note_on_c, 0, 76, 50
2, 8032, Note_off_c, 0, 76, 100
2, 8064, Note_on_c, 0, 77, 50
2, 8096, Note_off_c, 0, 77, 100
2, 8112, Note_on_c, 0, 79, 50
2, 8144, Note_off_c, 0, 79, 100
2, 8160, Note_on_c, 0, 77, 50
2, 8192, Note_off_c, 0, 77, 100
2, 8208, Note_on_c, 0, 79, 50
2, 8240, Note_off_c, 0, 79, 100
2, 8256, Note_on_c, 0, 81, 50
2, 8288, Note_off_c, 0, 81, 100
2, 8304, Note_on_c, 0, 82, 50
2, 8336, Note_off_c, 0, 82, 100
2, 8352, Note_on_c, 0, 81, 50
2, 8384, Note_off_c, 0, 81, 100
2, 8400, Note_on_c, 0, 82, 50
2, 8432, Note_off_c, 0, 82, 100
2, 8448, Note_on_c, 0, 84, 50
2, 8576, Note_off_c, 0, 84, 100
2, 8688, Note_on_c, 0, 72, 50
2, 8688, Note_on_c, 0, 65, 50
2, 8752, Note_off_c, 0, 72, 100
2, 8752, Note_off_c, 0, 65, 100
2, 8832, Note_on_c, 0, 76, 50
2, 8876, Note_off_c, 0, 76, 0
2, 8880, Note_on_c, 0, 74, 50
2, 8880, Note_on_c, 0, 65, 50
2, 9008, Note_off_c, 0, 74, 100
2, 9008, Note_off_c, 0, 65, 100
2, 9024, Note_on_c, 0, 72, 50
2, 9068, Note_off_c, 0, 72, 0
2, 9072, Note_on_c, 0, 70, 50
2, 9072, Note_on_c, 0, 65, 50
2, 9200, Note_off_c, 0, 70, 100
2, 9200, Note_off_c, 0, 65, 100
2, 9216, Note_on_c, 0, 69, 75
2, 9216, Note_on_c, 0, 65, 75
2, 9408, Note_off_c, 0, 69, 100
2, 9472, Note_off_c, 0, 65, 100
2, 9504, Note_on_c, 0, 70, 75
2, 9536, Note_off_c, 0, 70, 100
2, 9552, Note_on_c, 0, 69, 75
2, 9584, Note_off_c, 0, 69, 100
2, 9600, Note_on_c, 0, 67, 75
2, 9600, Note_on_c, 0, 64, 75
2, 9856, Note_off_c, 0, 67, 100
2, 9856, Note_off_c, 0, 64, 100
2, 10368, Note_on_c, 0, 69, 50
2, 10464, Note_off_c, 0, 69, 100
2, 10512, Note_on_c, 0, 65, 50
2, 10544, Note_off_c, 0, 65, 100
2, 10560, Note_on_c, 0, 70, 50
2, 10656, Note_off_c, 0, 70, 100
2, 10704, Note_on_c, 0, 67, 50
2, 10736, Note_off_c, 0, 67, 100
2, 10752, Note_on_c, 0, 72, 75
2, 10944, Note_off_c, 0, 72, 100
2, 11040, Note_on_c, 0, 69, 50
2, 11104, Note_off_c, 0, 69, 100
2, 11136, Note_on_c, 0, 65, 50
2, 11264, Note_off_c, 0, 65, 100
2, 11520, Note_on_c, 0, 74, 50
2, 11616, Note_off_c, 0, 74, 100
2, 11664, Note_on_c, 0, 70, 50
2, 11696, Note_off_c, 0, 70, 100
2, 11712, Note_on_c, 0, 76, 50
2, 11808, Note_off_c, 0, 76, 100
2, 11856, Note_on_c, 0, 72, 50
2, 11888, Note_off_c, 0, 72, 100
2, 11904, Note_on_c, 0, 77, 75
2, 12096, Note_off_c, 0, 77, 100
2, 12192, Note_on_c, 0, 72, 50
2, 12256, Note_off_c, 0, 72, 100
2, 12288, Note_on_c, 0, 69, 50
2, 12416, Note_off_c, 0, 69, 100
2, 12672, Note_on_c, 0, 84, 75
2, 12768, Note_off_c, 0, 84, 100
2, 12816, Note_on_c, 0, 81, 75
2, 12848, Note_off_c, 0, 81, 100
2, 12864, Note_on_c, 0, 82, 75
2, 12960, Note_off_c, 0, 82, 100
2, 13008, Note_on_c, 0, 79, 75
2, 13040, Note_off_c, 0, 79, 100
2, 13056, Note_on_c, 0, 81, 75
2, 13056, Note_on_c, 0, 72, 75
2, 13152, Note_off_c, 0, 81, 100
2, 13152, Note_off_c, 0, 72, 100
2, 13200, Note_on_c, 0, 77, 75
2, 13200, Note_on_c, 0, 69, 75
2, 13232, Note_off_c, 0, 77, 100
2, 13232, Note_off_c, 0, 69, 100
2, 13248, Note_on_c, 0, 79, 75
2, 13248, Note_on_c, 0, 70, 75
2, 13344, Note_off_c, 0, 79, 100
2, 13344, Note_off_c, 0, 70, 100
2, 13392, Note_on_c, 0, 76, 75
2, 13392, Note_on_c, 0, 67, 75
2, 13424, Note_off_c, 0, 76, 100
2, 13424, Note_off_c, 0, 67, 100
2, 13440, Note_on_c, 0, 77, 75
2, 13440, Note_on_c, 0, 69, 75
2, 13536, Note_off_c, 0, 77, 100
2, 13568, Note_off_c, 0, 69, 100
2, 13584, Note_on_c, 0, 72, 75
2, 13616, Note_off_c, 0, 72, 100
2, 13632, Note_on_c, 0, 74, 75
2, 13632, Note_on_c, 0, 66, 75
2, 13728, Note_off_c, 0, 74, 100
2, 13760, Note_off_c, 0, 66, 100
2, 13776, Note_on_c, 0, 69, 75
2, 13808, Note_off_c, 0, 69, 100
2, 13824, Note_on_c, 0, 72, 75
2, 13824, Note_on_c, 0, 67, 75
2, 13952, Note_off_c, 0, 72, 100
2, 13952, Note_off_c, 0, 67, 100
2, 14016, Note_on_c, 0, 70, 75
2, 14016, Note_on_c, 0, 64, 75
2, 14036, Note_off_c, 0, 70, 0
2, 14040, Note_on_c, 0, 72, 75
2, 14060, Note_off_c, 0, 72, 0
2, 14064, Note_on_c, 0, 70, 75
2, 14084, Note_off_c, 0, 70, 0
2, 14088, Note_on_c, 0, 72, 75
2, 14108, Note_off_c, 0, 72, 0
2, 14112, Note_on_c, 0, 70, 75
2, 14132, Note_off_c, 0, 70, 0
2, 14136, Note_on_c, 0, 72, 75
2, 14144, Note_off_c, 0, 64, 100
2, 14156, Note_off_c, 0, 72, 0
2, 14160, Note_on_c, 0, 69, 75
2, 14180, Note_off_c, 0, 69, 0
2, 14184, Note_on_c, 0, 70, 75
2, 14204, Note_off_c, 0, 70, 0
2, 14208, Note_on_c, 0, 69, 75
2, 14208, Note_on_c, 0, 65, 75
2, 14336, Note_off_c, 0, 69, 100
2, 14336, Note_off_c, 0, 65, 100
2, 14592, Note_on_c, 0, 69, 50
2, 14656, Note_off_c, 0, 69, 100
2, 14688, Note_on_c, 0, 70, 50
2, 14752, Note_off_c, 0, 70, 100
2, 14784, Note_on_c, 0, 71, 50
2, 14848, Note_off_c, 0, 71, 100
2, 14880, Note_on_c, 0, 72, 50
2, 14944, Note_off_c, 0, 72, 100
2, 14976, Note_on_c, 0, 65, 75
2, 15168, Note_off_c, 0, 65, 100
2, 15264, Note_on_c, 0, 67, 50
2, 15296, Note_off_c, 0, 67, 100
2, 15312, Note_on_c, 0, 65, 50
2, 15344, Note_off_c, 0, 65, 100
2, 15360, Note_on_c, 0, 64, 50
2, 15488, Note_off_c, 0, 64, 100
2, 15648, Note_on_c, 0, 76, 50
2, 15712, Note_off_c, 0, 76, 100
2, 15744, Note_on_c, 0, 79, 50
2, 15808, Note_off_c, 0, 79, 100
2, 15840, Note_on_c, 0, 77, 50
2, 15904, Note_off_c, 0, 77, 100
2, 15920, Note_on_c, 0, 76, 50
2, 15984, Note_off_c, 0, 76, 100
2, 16032, Note_on_c, 0, 74, 50
2, 16096, Note_off_c, 0, 74, 100
2, 16128, Note_on_c, 0, 72, 75
2, 16192, Note_off_c, 0, 72, 100
2, 16224, Note_on_c, 0, 71, 50
2, 16288, Note_off_c, 0, 71, 100
2, 16316, Note_on_c, 0, 70, 50
2, 16444, Note_off_c, 0, 70, 100
2, 16800, Note_on_c, 0, 67, 50
2, 16864, Note_off_c, 0, 67, 100
2, 16896, Note_on_c, 0, 60, 50
2, 16896, Note_on_c, 0, 69, 50
2, 16988, Note_off_c, 0, 69, 0
2, 16992, Note_on_c, 0, 70, 50
2, 17036, Note_off_c, 0, 70, 0
2, 17040, Note_on_c, 0, 69, 50
2, 17084, Note_off_c, 0, 69, 0
2, 17088, Note_on_c, 0, 67, 50
2, 17132, Note_off_c, 0, 67, 0
2, 17136, Note_on_c, 0, 69, 50
2, 17152, Note_off_c, 0, 60, 100
2, 17180, Note_off_c, 0, 69, 0
2, 17184, Note_on_c, 0, 70, 50
2, 17276, Note_off_c, 0, 70, 0
2, 17280, Note_on_c, 0, 65, 50
2, 17280, Note_on_c, 0, 72, 50
2, 17372, Note_off_c, 0, 72, 0
2, 17376, Note_on_c, 0, 74, 56
2, 17420, Note_off_c, 0, 74, 0
2, 17424, Note_on_c, 0, 72, 56
2, 17468, Note_off_c, 0, 72, 0
2, 17472, Note_on_c, 0, 70, 56
2, 17516, Note_off_c, 0, 70, 0
2, 17520, Note_on_c, 0, 72, 56
2, 17536, Note_off_c, 0, 65, 100
2, 17564, Note_off_c, 0, 72, 0
2, 17568, Note_on_c, 0, 74, 62
2, 17632, Note_off_c, 0, 74, 100
2, 17664, Note_on_c, 0, 65, 62
2, 17664, Note_on_c, 0, 57, 62
2, 17792, Note_off_c, 0, 65, 100
2, 17792, Note_off_c, 0, 57, 100
2, 18048, Note_on_c, 0, 67, 67
2, 18048, Note_on_c, 0, 58, 67
2, 18176, Note_off_c, 0, 67, 100
2, 18240, Note_on_c, 0, 65, 72
2, 18304, Note_off_c, 0, 58, 100
2, 18304, Note_off_c, 0, 65, 100
2, 18336, Note_on_c, 0, 67, 72
2, 18400, Note_off_c, 0, 67, 100
2, 18432, Note_on_c, 0, 58, 75
2, 18432, Note_on_c, 0, 67, 75
2, 18688, Note_off_c, 0, 58, 100
2, 18688, Note_off_c, 0, 67, 100
2, 18816, Note_on_c, 0, 65, 75
2, 18816, Note_on_c, 0, 57, 75
2, 18944, Note_off_c, 0, 65, 100
2, 18944, Note_off_c, 0, 57, 100
2, 19008, Note_on_c, 0, 60, 75
2, 19136, Note_off_c, 0, 60, 100
2, 19200, Note_on_c, 0, 57, 75
2, 19328, Note_off_c, 0, 57, 100
2, 19392, Note_on_c, 0, 60, 75
2, 19520, Note_off_c, 0, 60, 100
2, 19584, Note_on_c, 0, 65, 75
2, 19604, Note_off_c, 0, 65, 0
2, 19604, Note_on_c, 0, 69, 75
2, 19700, Note_off_c, 0, 69, 100
2, 19728, Note_on_c, 0, 65, 75
2, 19760, Note_off_c, 0, 65, 100
2, 19776, Note_on_c, 0, 67, 75
2, 19796, Note_off_c, 0, 67, 0
2, 19800, Note_on_c, 0, 70, 75
2, 19896, Note_off_c, 0, 70, 100
2, 19920, Note_on_c, 0, 67, 75
2, 19952, Note_off_c, 0, 67, 100
2, 19968, Note_on_c, 0, 69, 50
2, 19988, Note_off_c, 0, 69, 0
2, 19988, Note_on_c, 0, 72, 50
2, 20180, Note_off_c, 0, 72, 100
2, 20256, Note_on_c, 0, 69, 50
2, 20320, Note_off_c, 0, 69, 100
2, 20352, Note_on_c, 0, 65, 50
2, 20480, Note_off_c, 0, 65, 100
2, 20736, Note_on_c, 0, 70, 50
2, 20756, Note_off_c, 0, 70, 0
2, 20756, Note_on_c, 0, 74, 50
2, 20852, Note_off_c, 0, 74, 100
2, 20880, Note_on_c, 0, 70, 50
2, 20912, Note_off_c, 0, 70, 100
2, 20928, Note_on_c, 0, 72, 50
2, 20948, Note_off_c, 0, 72, 0
2, 20952, Note_on_c, 0, 76, 50
2, 21048, Note_off_c, 0, 76, 100
2, 21072, Note_on_c, 0, 72, 50
2, 21104, Note_off_c, 0, 72, 100
2, 21120, Note_on_c, 0, 72, 75
2, 21140, Note_off_c, 0, 72, 0
2, 21140, Note_on_c, 0, 77, 75
2, 21332, Note_off_c, 0, 77, 100
2, 21408, Note_on_c, 0, 72, 50
2, 21472, Note_off_c, 0, 72, 100
2, 21504, Note_on_c, 0, 69, 50
2, 21632, Note_off_c, 0, 69, 100
2, 21888, Note_on_c, 0, 72, 75
2, 21908, Note_off_c, 0, 72, 0
2, 21908, Note_on_c, 0, 77, 75
2, 22004, Note_off_c, 0, 77, 100
2, 22032, Note_on_c, 0, 72, 75
2, 22064, Note_off_c, 0, 72, 100
2, 22080, Note_on_c, 0, 76, 75
2, 22100, Note_off_c, 0, 76, 0
2, 22104, Note_on_c, 0, 79, 75
2, 22200, Note_off_c, 0, 79, 100
2, 22224, Note_on_c, 0, 76, 75
2, 22256, Note_off_c, 0, 76, 100
2, 22272, Note_on_c, 0, 77, 75
2, 22292, Note_off_c, 0, 77, 0
2, 22292, Note_on_c, 0, 81, 75
2, 22388, Note_off_c, 0, 81, 100
2, 22416, Note_on_c, 0, 79, 75
2, 22448, Note_off_c, 0, 79, 100
2, 22464, Note_on_c, 0, 79, 75
2, 22484, Note_off_c, 0, 79, 0
2, 22488, Note_on_c, 0, 77, 75
2, 22584, Note_off_c, 0, 77, 100
2, 22608, Note_on_c, 0, 76, 75
2, 22640, Note_off_c, 0, 76, 100
2, 22656, Note_on_c, 0, 76, 75
2, 22676, Note_off_c, 0, 76, 0
2, 22676, Note_on_c, 0, 74, 75
2, 22772, Note_off_c, 0, 74, 100
2, 22800, Note_on_c, 0, 72, 75
2, 22832, Note_off_c, 0, 72, 100
2, 22848, Note_on_c, 0, 72, 50
2, 22868, Note_off_c, 0, 72, 0
2, 22872, Note_on_c, 0, 70, 50
2, 22968, Note_off_c, 0, 70, 100
2, 22992, Note_on_c, 0, 69, 50
2, 23024, Note_off_c, 0, 69, 100
2, 23040, Note_on_c, 0, 72, 50
2, 23104, Note_off_c, 0, 72, 100
2, 23136, Note_on_c, 0, 71, 50
2, 23200, Note_off_c, 0, 71, 100
2, 23232, Note_on_c, 0, 72, 50
2, 23296, Note_off_c, 0, 72, 100
2, 23328, Note_on_c, 0, 70, 50
2, 23392, Note_off_c, 0, 70, 100
2, 23424, Note_on_c, 0, 69, 50
2, 23552, Note_off_c, 0, 69, 100
2, 23808, Note_on_c, 0, 69, 75
2, 23840, Note_off_c, 0, 69, 100
2, 23856, Note_on_c, 0, 70, 75
2, 23888, Note_off_c, 0, 70, 100
2, 23904, Note_on_c, 0, 69, 75
2, 23936, Note_off_c, 0, 69, 100
2, 23952, Note_on_c, 0, 70, 75
2, 23984, Note_off_c, 0, 70, 100
2, 24000, Note_on_c, 0, 71, 75
2, 24032, Note_off_c, 0, 71, 100
2, 24048, Note_on_c, 0, 72, 75
2, 24080, Note_off_c, 0, 72, 100
2, 24096, Note_on_c, 0, 71, 75
2, 24128, Note_off_c, 0, 71, 100
2, 24144, Note_on_c, 0, 72, 75
2, 24176, Note_off_c, 0, 72, 100
2, 24192, Note_on_c, 0, 65, 75
2, 24384, Note_off_c, 0, 65, 100
2, 24464, Note_on_c, 0, 67, 50
2, 24496, Note_off_c, 0, 67, 100
2, 24528, Note_on_c, 0, 65, 50
2, 24560, Note_off_c, 0, 65, 100
2, 24576, Note_on_c, 0, 64, 50
2, 24704, Note_off_c, 0, 64, 100
2, 24864, Note_on_c, 0, 76, 50
2, 24928, Note_off_c, 0, 76, 100
2, 24960, Note_on_c, 0, 79, 50
2, 24992, Note_off_c, 0, 79, 100
2, 25008, Note_on_c, 0, 77, 50
2, 25040, Note_off_c, 0, 77, 100
2, 25056, Note_on_c, 0, 76, 50
2, 25088, Note_off_c, 0, 76, 100
2, 25104, Note_on_c, 0, 77, 50
2, 25136, Note_off_c, 0, 77, 100
2, 25152, Note_on_c, 0, 79, 50
2, 25184, Note_off_c, 0, 79, 100
2, 25200, Note_on_c, 0, 77, 50
2, 25232, Note_off_c, 0, 77, 100
2, 25248, Note_on_c, 0, 76, 50
2, 25280, Note_off_c, 0, 76, 100
2, 25296, Note_on_c, 0, 74, 50
2, 25328, Note_off_c, 0, 74, 100
2, 25344, Note_on_c, 0, 72, 75
2, 25632, Note_on_c, 0, 74, 50
2, 25664, Note_off_c, 0, 74, 100
2, 25680, Note_on_c, 0, 72, 50
2, 25712, Note_off_c, 0, 72, 100
2, 25728, Note_off_c, 0, 72, 100
2, 25728, Note_on_c, 0, 71, 50
2, 25856, Note_off_c, 0, 71, 100
2, 26016, Note_on_c, 0, 70, 75
2, 26080, Note_off_c, 0, 70, 100
2, 26112, Note_on_c, 0, 82, 75
2, 26144, Note_off_c, 0, 82, 100
2, 26160, Note_on_c, 0, 81, 75
2, 26192, Note_off_c, 0, 81, 100
2, 26208, Note_on_c, 0, 82, 75
2, 26240, Note_off_c, 0, 82, 100
2, 26256, Note_on_c, 0, 81, 75
2, 26288, Note_off_c, 0, 81, 100
2, 26304, Note_on_c, 0, 82, 75
2, 26336, Note_off_c, 0, 82, 100
2, 26352, Note_on_c, 0, 79, 75
2, 26384, Note_off_c, 0, 79, 100
2, 26400, Note_on_c, 0, 77, 75
2, 26432, Note_off_c, 0, 77, 100
2, 26448, Note_on_c, 0, 76, 75
2, 26480, Note_off_c, 0, 76, 100
2, 26496, Note_on_c, 0, 77, 75
2, 26540, Note_off_c, 0, 77, 0
2, 26544, Note_on_c, 0, 79, 75
2, 26564, Note_off_c, 0, 79, 0
2, 26568, Note_on_c, 0, 77, 75
2, 26588, Note_off_c, 0, 77, 0
2, 26592, Note_on_c, 0, 76, 75
2, 26612, Note_off_c, 0, 76, 0
2, 26616, Note_on_c, 0, 77, 75
2, 26636, Note_off_c, 0, 77, 0
2, 26640, Note_on_c, 0, 79, 75
2, 26684, Note_off_c, 0, 79, 100
2, 26688, Note_on_c, 0, 81, 75
2, 26732, Note_off_c, 0, 81, 0
2, 26736, Note_on_c, 0, 82, 75
2, 26756, Note_off_c, 0, 82, 0
2, 26756, Note_on_c, 0, 81, 75
2, 26776, Note_off_c, 0, 81, 0
2, 26784, Note_on_c, 0, 79, 75
2, 26804, Note_off_c, 0, 79, 0
2, 26808, Note_on_c, 0, 81, 75
2, 26828, Note_off_c, 0, 81, 0
2, 26832, Note_on_c, 0, 82, 75
2, 26876, Note_off_c, 0, 82, 100
2, 26880, Note_on_c, 0, 84, 50
2, 26944, Note_off_c, 0, 84, 100
2, 26976, Note_on_c, 0, 77, 50
2, 27040, Note_off_c, 0, 77, 100
2, 27072, Note_on_c, 0, 76, 50
2, 27136, Note_off_c, 0, 76, 100
2, 27168, Note_on_c, 0, 75, 50
2, 27232, Note_off_c, 0, 75, 100
2, 27264, Note_on_c, 0, 74, 50
2, 27328, Note_off_c, 0, 74, 100
2, 27360, Note_on_c, 0, 73, 50
2, 27424, Note_off_c, 0, 73, 100
2, 27456, Note_on_c, 0, 72, 50
2, 27520, Note_off_c, 0, 72, 100
2, 27552, Note_on_c, 0, 70, 50
2, 27616, Note_off_c, 0, 70, 100
2, 27648, Note_on_c, 0, 69, 50
2, 27840, Note_off_c, 0, 69, 100
2, 27936, Note_on_c, 0, 70, 50
2, 27968, Note_off_c, 0, 70, 100
2, 27984, Note_on_c, 0, 69, 50
2, 28016, Note_off_c, 0, 69, 100
2, 28032, Note_on_c, 0, 67, 50
2, 28288, Note_off_c, 0, 67, 100
2, 28800, Note_on_c, 0, 69, 50
2, 28832, Note_off_c, 0, 69, 100
2, 28848, Note_on_c, 0, 67, 50
2, 28880, Note_off_c, 0, 67, 100
2, 28896, Note_on_c, 0, 69, 50
2, 28928, Note_off_c, 0, 69, 100
2, 28944, Note_on_c, 0, 65, 50
2, 28976, Note_off_c, 0, 65, 100
2, 28992, Note_on_c, 0, 70, 50
2, 29024, Note_off_c, 0, 70, 100
2, 29040, Note_on_c, 0, 69, 50
2, 29072, Note_off_c, 0, 69, 100
2, 29088, Note_on_c, 0, 70, 50
2, 29120, Note_off_c, 0, 70, 100
2, 29136, Note_on_c, 0, 67, 50
2, 29168, Note_off_c, 0, 67, 100
2, 29184, Note_on_c, 0, 72, 75
2, 29312, Note_off_c, 0, 72, 100
2, 29376, Note_on_c, 0, 72, 50
2, 29408, Note_off_c, 0, 72, 100
2, 29424, Note_on_c, 0, 71, 50
2, 29456, Note_off_c, 0, 71, 100
2, 29472, Note_on_c, 0, 72, 50
2, 29504, Note_off_c, 0, 72, 100
2, 29520, Note_on_c, 0, 69, 50
2, 29552, Note_off_c, 0, 69, 100
2, 29568, Note_on_c, 0, 65, 50
2, 29696, Note_off_c, 0, 65, 100
2, 29952, Note_on_c, 0, 74, 50
2, 29984, Note_off_c, 0, 74, 100
2, 30000, Note_on_c, 0, 72, 50
2, 30032, Note_off_c, 0, 72, 100
2, 30048, Note_on_c, 0, 74, 50
2, 30080, Note_off_c, 0, 74, 100
2, 30096, Note_on_c, 0, 70, 50
2, 30128, Note_off_c, 0, 70, 100
2, 30144, Note_on_c, 0, 76, 50
2, 30176, Note_off_c, 0, 76, 100
2, 30192, Note_on_c, 0, 74, 50
2, 30224, Note_off_c, 0, 74, 100
2, 30240, Note_on_c, 0, 76, 50
2, 30272, Note_off_c, 0, 76, 100
2, 30288, Note_on_c, 0, 72, 50
2, 30320, Note_off_c, 0, 72, 100
2, 30336, Note_on_c, 0, 77, 75
2, 30464, Note_off_c, 0, 77, 100
2, 30528, Note_on_c, 0, 77, 50
2, 30560, Note_off_c, 0, 77, 100
2, 30576, Note_on_c, 0, 76, 50
2, 30608, Note_off_c, 0, 76, 100
2, 30624, Note_on_c, 0, 77, 50
2, 30656, Note_off_c, 0, 77, 100
2, 30672, Note_on_c, 0, 72, 50
2, 30704, Note_off_c, 0, 72, 100
2, 30720, Note_on_c, 0, 69, 50
2, 30848, Note_off_c, 0, 69, 100
2, 31104, Note_on_c, 0, 84, 75
2, 31136, Note_off_c, 0, 84, 100
2, 31152, Note_on_c, 0, 82, 75
2, 31184, Note_off_c, 0, 82, 100
2, 31200, Note_on_c, 0, 84, 75
2, 31232, Note_off_c, 0, 84, 100
2, 31248, Note_on_c, 0, 81, 75
2, 31280, Note_off_c, 0, 81, 100
2, 31296, Note_on_c, 0, 82, 75
2, 31328, Note_off_c, 0, 82, 100
2, 31344, Note_on_c, 0, 81, 75
2, 31376, Note_off_c, 0, 81, 100
2, 31392, Note_on_c, 0, 82, 75
2, 31424, Note_off_c, 0, 82, 100
2, 31440, Note_on_c, 0, 79, 75
2, 31472, Note_off_c, 0, 79, 100
2, 31488, Note_on_c, 0, 81, 75
2, 31488, Note_on_c, 0, 72, 75
2, 31520, Note_off_c, 0, 81, 100
2, 31520, Note_off_c, 0, 72, 100
2, 31536, Note_on_c, 0, 79, 75
2, 31536, Note_on_c, 0, 70, 75
2, 31568, Note_off_c, 0, 79, 100
2, 31568, Note_off_c, 0, 70, 100
2, 31584, Note_on_c, 0, 81, 75
2, 31584, Note_on_c, 0, 72, 75
2, 31616, Note_off_c, 0, 81, 100
2, 31616, Note_off_c, 0, 72, 100
2, 31632, Note_on_c, 0, 77, 75
2, 31632, Note_on_c, 0, 69, 75
2, 31664, Note_off_c, 0, 77, 100
2, 31664, Note_off_c, 0, 69, 100
2, 31680, Note_on_c, 0, 79, 75
2, 31680, Note_on_c, 0, 70, 75
2, 31712, Note_off_c, 0, 79, 100
2, 31712, Note_off_c, 0, 70, 100
2, 31728, Note_on_c, 0, 77, 75
2, 31728, Note_on_c, 0, 69, 75
2, 31760, Note_off_c, 0, 77, 100
2, 31760, Note_off_c, 0, 69, 100
2, 31776, Note_on_c, 0, 79, 75
2, 31776, Note_on_c, 0, 70, 75
2, 31808, Note_off_c, 0, 79, 100
2, 31808, Note_off_c, 0, 70, 100
2, 31824, Note_on_c, 0, 76, 75
2, 31824, Note_on_c, 0, 67, 75
2, 31856, Note_off_c, 0, 76, 100
2, 31856, Note_off_c, 0, 67, 100
2, 31872, Note_on_c, 0, 77, 75
2, 31872, Note_on_c, 0, 69, 75
2, 31904, Note_off_c, 0, 77, 100
2, 31920, Note_on_c, 0, 79, 75
2, 31952, Note_off_c, 0, 79, 100
2, 31968, Note_on_c, 0, 81, 75
2, 32000, Note_off_c, 0, 81, 100
2, 32016, Note_on_c, 0, 76, 75
2, 32048, Note_off_c, 0, 76, 100
2, 32064, Note_off_c, 0, 69, 100
2, 32064, Note_on_c, 0, 77, 75
2, 32096, Note_off_c, 0, 77, 100
2, 32112, Note_on_c, 0, 72, 75
2, 32144, Note_off_c, 0, 72, 100
2, 32160, Note_on_c, 0, 74, 75
2, 32160, Note_on_c, 0, 65, 75
2, 32192, Note_off_c, 0, 74, 100
2, 32208, Note_on_c, 0, 69, 75
2, 32224, Note_off_c, 0, 65, 100
2, 32240, Note_off_c, 0, 69, 100
2, 32256, Note_on_c, 0, 72, 75
2, 32256, Note_on_c, 0, 67, 75
2, 32384, Note_off_c, 0, 67, 100
2, 32400, Note_on_c, 0, 70, 75
2, 32432, Note_off_c, 0, 70, 100
2, 32448, Note_off_c, 0, 72, 100
2, 32448, Note_on_c, 0, 79, 75
2, 32448, Note_on_c, 0, 64, 75
2, 32576, Note_off_c, 0, 64, 100
2, 32592, Note_on_c, 0, 70, 75
2, 32624, Note_off_c, 0, 70, 100
2, 32640, Note_off_c, 0, 79, 100
2, 32640, Note_on_c, 0, 69, 75
2, 32640, Note_on_c, 0, 65, 75
2, 32768, Note_off_c, 0, 69, 100
2, 32768, Note_off_c, 0, 65, 100
2, 33024, Note_on_c, 0, 69, 50
2, 33084, Note_off_c, 0, 69, 0
2, 33088, Note_on_c, 0, 70, 50
2, 33148, Note_off_c, 0, 70, 0
2, 33152, Note_on_c, 0, 71, 50
2, 33212, Note_off_c, 0, 71, 0
2, 33216, Note_on_c, 0, 72, 50
2, 33276, Note_off_c, 0, 72, 0
2, 33280, Note_on_c, 0, 73, 50
2, 33340, Note_off_c, 0, 73, 0
2, 33344, Note_on_c, 0, 74, 50
2, 33404, Note_off_c, 0, 74, 0
2, 33408, Note_on_c, 0, 65, 75
2, 33600, Note_off_c, 0, 65, 100
2, 33696, Note_on_c, 0, 67, 50
2, 33728, Note_off_c, 0, 67, 100
2, 33744, Note_on_c, 0, 65, 50
2, 33776, Note_off_c, 0, 65, 100
2, 33792, Note_on_c, 0, 64, 50
2, 33920, Note_off_c, 0, 64, 100
2, 34080, Note_on_c, 0, 76, 50
2, 34144, Note_off_c, 0, 76, 100
2, 34176, Note_on_c, 0, 79, 50
2, 34236, Note_off_c, 0, 79, 100
2, 34240, Note_on_c, 0, 78, 50
2, 34300, Note_off_c, 0, 78, 100
2, 34304, Note_on_c, 0, 77, 50
2, 34364, Note_off_c, 0, 77, 100
2, 34368, Note_on_c, 0, 76, 50
2, 34428, Note_off_c, 0, 76, 100
2, 34432, Note_on_c, 0, 75, 50
2, 34492, Note_off_c, 0, 75, 100
2, 34496, Note_on_c, 0, 74, 50
2, 34556, Note_off_c, 0, 74, 100
2, 34560, Note_on_c, 0, 72, 75
2, 34592, Note_off_c, 0, 72, 100
2, 34608, Note_on_c, 0, 70, 75
2, 34640, Note_off_c, 0, 70, 100
2, 34656, Note_on_c, 0, 79, 75
2, 34688, Note_off_c, 0, 79, 100
2, 34752, Note_on_c, 0, 70, 75
2, 34880, Note_off_c, 0, 70, 100
2, 38016, Note_on_c, 0, 64, 50
2, 38080, Note_off_c, 0, 64, 100
2, 38112, Note_on_c, 0, 67, 50
2, 38176, Note_off_c, 0, 67, 100
2, 38208, Note_on_c, 0, 72, 50
2, 38272, Note_off_c, 0, 72, 100
2, 38304, Note_on_c, 0, 76, 50
2, 38368, Note_off_c, 0, 76, 100
2, 38400, Note_on_c, 0, 79, 50
2, 38592, Note_on_c, 0, 64, 50
2, 38592, Note_on_c, 0, 60, 50
2, 38656, Note_off_c, 0, 79, 100
2, 38720, Note_off_c, 0, 64, 100
2, 38720, Note_off_c, 0, 60, 100
2, 38784, Note_on_c, 0, 79, 50
2, 38784, Note_on_c, 0, 64, 50
2, 38784, Note_on_c, 0, 60, 50
2, 38876, Note_off_c, 0, 79, 0
2, 38880, Note_on_c, 0, 81, 50
2, 38912, Note_off_c, 0, 64, 100
2, 38912, Note_off_c, 0, 60, 100
2, 38924, Note_off_c, 0, 81, 0
2, 38928, Note_on_c, 0, 79, 50
2, 38972, Note_off_c, 0, 79, 0
2, 38976, Note_on_c, 0, 78, 50
2, 38976, Note_on_c, 0, 64, 50
2, 38976, Note_on_c, 0, 60, 50
2, 39020, Note_off_c, 0, 78, 0
2, 39024, Note_on_c, 0, 79, 50
2, 39068, Note_off_c, 0, 79, 0
2, 39088, Note_on_c, 0, 81, 50
2, 39104, Note_off_c, 0, 64, 100
2, 39104, Note_off_c, 0, 60, 100
2, 39152, Note_off_c, 0, 81, 100
2, 39168, Note_on_c, 0, 72, 50
2, 39360, Note_on_c, 0, 65, 50
2, 39360, Note_on_c, 0, 62, 50
2, 39424, Note_off_c, 0, 72, 100
2, 39488, Note_off_c, 0, 65, 100
2, 39488, Note_off_c, 0, 62, 100
2, 39552, Note_on_c, 0, 71, 50
2, 39552, Note_on_c, 0, 65, 50
2, 39552, Note_on_c, 0, 62, 50
2, 39680, Note_off_c, 0, 71, 100
2, 39680, Note_off_c, 0, 65, 100
2, 39680, Note_off_c, 0, 62, 100
2, 39744, Note_on_c, 0, 65, 50
2, 39744, Note_on_c, 0, 62, 50
2, 39872, Note_off_c, 0, 65, 100
2, 39872, Note_off_c, 0, 62, 100
2, 39936, Note_on_c, 0, 70, 50
2, 39936, Note_on_c, 0, 65, 50
2, 39936, Note_on_c, 0, 62, 50
2, 40000, Note_off_c, 0, 70, 100
2, 40032, Note_on_c, 0, 74, 50
2, 40064, Note_off_c, 0, 65, 100
2, 40064, Note_off_c, 0, 62, 100
2, 40096, Note_off_c, 0, 74, 100
2, 40128, Note_on_c, 0, 77, 50
2, 40128, Note_on_c, 0, 65, 50
2, 40128, Note_on_c, 0, 62, 50
2, 40192, Note_off_c, 0, 77, 100
2, 40224, Note_on_c, 0, 83, 50
2, 40256, Note_off_c, 0, 65, 100
2, 40256, Note_off_c, 0, 62, 100
2, 40288, Note_off_c, 0, 83, 100
2, 40320, Note_on_c, 0, 86, 50
2, 40512, Note_off_c, 0, 86, 100
2, 40608, Note_on_c, 0, 83, 50
2, 40672, Note_off_c, 0, 83, 100
2, 40704, Note_on_c, 0, 89, 50
2, 40768, Note_off_c, 0, 89, 100
2, 40800, Note_on_c, 0, 86, 50
2, 40864, Note_off_c, 0, 86, 100
2, 40896, Note_on_c, 0, 83, 50
2, 40960, Note_off_c, 0, 83, 100
2, 40992, Note_on_c, 0, 79, 50
2, 41056, Note_off_c, 0, 79, 100
2, 41088, Note_on_c, 0, 78, 50
2, 41152, Note_off_c, 0, 78, 100
2, 41184, Note_on_c, 0, 79, 50
2, 41248, Note_off_c, 0, 79, 100
2, 41280, Note_on_c, 0, 81, 50
2, 41344, Note_off_c, 0, 81, 100
2, 41376, Note_on_c, 0, 77, 50
2, 41440, Note_off_c, 0, 77, 100
2, 41472, Note_on_c, 0, 75, 50
2, 41728, Note_off_c, 0, 75, 100
2, 41856, Note_on_c, 0, 76, 50
2, 41984, Note_off_c, 0, 76, 100
2, 42240, Note_on_c, 0, 72, 75
2, 42304, Note_off_c, 0, 72, 100
2, 42336, Note_on_c, 0, 76, 75
2, 42400, Note_off_c, 0, 76, 100
2, 42432, Note_on_c, 0, 79, 75
2, 42496, Note_off_c, 0, 79, 100
2, 42528, Note_on_c, 0, 84, 75
2, 42624, Note_on_c, 0, 84, 75
2, 42624, Note_on_c, 0, 72, 75
2, 42628, Note_off_c, 0, 84, 100
2, 42688, Note_off_c, 0, 84, 100
2, 42720, Note_on_c, 0, 74, 75
2, 42784, Note_off_c, 0, 74, 100
2, 42816, Note_on_c, 0, 74, 75
2, 42880, Note_off_c, 0, 72, 100
2, 42944, Note_off_c, 0, 74, 100
2, 43008, Note_on_c, 0, 74, 75
2, 43008, Note_on_c, 0, 72, 75
2, 43072, Note_off_c, 0, 74, 100
2, 43104, Note_on_c, 0, 84, 75
2, 43168, Note_off_c, 0, 84, 100
2, 43200, Note_on_c, 0, 75, 75
2, 43264, Note_off_c, 0, 72, 100
2, 43264, Note_off_c, 0, 75, 100
2, 43296, Note_on_c, 0, 84, 75
2, 43360, Note_off_c, 0, 84, 100
2, 43392, Note_on_c, 0, 72, 75
2, 43392, Note_on_c, 0, 72, 75
2, 43456, Note_off_c, 0, 72, 100
2, 43488, Note_on_c, 0, 76, 75
2, 43552, Note_off_c, 0, 76, 100
2, 43584, Note_on_c, 0, 79, 75
2, 43648, Note_off_c, 0, 72, 100
2, 43648, Note_off_c, 0, 79, 100
2, 43680, Note_on_c, 0, 84, 75
2, 43744, Note_off_c, 0, 84, 100
2, 43776, Note_on_c, 0, 84, 75
2, 43776, Note_on_c, 0, 72, 75
2, 43840, Note_off_c, 0, 84, 100
2, 43872, Note_on_c, 0, 77, 75
2, 43936, Note_off_c, 0, 77, 100
2, 43968, Note_on_c, 0, 77, 75
2, 44032, Note_off_c, 0, 72, 100
2, 44096, Note_off_c, 0, 77, 100
2, 44160, Note_on_c, 0, 77, 75
2, 44160, Note_on_c, 0, 72, 75
2, 44224, Note_off_c, 0, 77, 100
2, 44240, Note_on_c, 0, 84, 75
2, 44304, Note_off_c, 0, 84, 100
2, 44352, Note_on_c, 0, 77, 75
2, 44416, Note_off_c, 0, 72, 100
2, 44416, Note_off_c, 0, 77, 100
2, 44448, Note_on_c, 0, 84, 75
2, 44512, Note_off_c, 0, 84, 100
2, 44544, Note_on_c, 0, 72, 75
2, 44544, Note_on_c, 0, 72, 75
2, 44608, Note_off_c, 0, 72, 100
2, 44640, Note_on_c, 0, 76, 75
2, 44704, Note_off_c, 0, 76, 100
2, 44736, Note_on_c, 0, 79, 75
2, 44800, Note_off_c, 0, 72, 100
2, 44800, Note_off_c, 0, 79, 100
2, 44832, Note_on_c, 0, 82, 75
2, 44896, Note_off_c, 0, 82, 100
2, 44928, Note_on_c, 0, 79, 50
2, 44992, Note_off_c, 0, 79, 100
2, 45024, Note_on_c, 0, 81, 50
2, 45088, Note_off_c, 0, 81, 100
2, 45120, Note_on_c, 0, 77, 50
2, 45184, Note_off_c, 0, 77, 100
2, 45216, Note_on_c, 0, 74, 50
2, 45280, Note_off_c, 0, 74, 100
2, 45312, Note_on_c, 0, 72, 50
2, 45568, Note_off_c, 0, 72, 100
2, 45696, Note_on_c, 0, 74, 50
2, 45696, Note_on_c, 0, 71, 50
2, 45888, Note_off_c, 0, 74, 100
2, 45952, Note_off_c, 0, 71, 100
2, 45984, Note_on_c, 0, 72, 50
2, 46048, Note_off_c, 0, 72, 100
2, 46080, Note_on_c, 0, 72, 50
2, 46080, Note_on_c, 0, 72, 50
2, 46592, Note_off_c, 0, 72, 100
2, 46848, Note_off_c, 0, 72, 100
2, 46848, Note_on_c, 0, 72, 50
2, 46976, Note_off_c, 0, 72, 100
2, 47040, Note_on_c, 0, 73, 75
2, 47168, Note_off_c, 0, 73, 100
2, 47232, Note_on_c, 0, 74, 50
2, 47232, Note_on_c, 0, 72, 50
2, 47488, Note_off_c, 0, 74, 100
2, 47488, Note_off_c, 0, 72, 100
2, 47616, Note_on_c, 0, 74, 50
2, 47616, Note_on_c, 0, 70, 50
2, 47808, Note_off_c, 0, 74, 100
2, 47904, Note_on_c, 0, 76, 50
2, 47936, Note_off_c, 0, 76, 100
2, 47952, Note_on_c, 0, 78, 50
2, 47984, Note_off_c, 0, 78, 100
2, 48000, Note_on_c, 0, 79, 75
2, 48128, Note_off_c, 0, 70, 100
2, 48128, Note_off_c, 0, 79, 100
2, 48192, Note_on_c, 0, 74, 75
2, 48320, Note_off_c, 0, 74, 100
2, 48384, Note_on_c, 0, 72, 75
2, 48384, Note_on_c, 0, 70, 75
2, 48640, Note_off_c, 0, 72, 100
2, 48640, Note_off_c, 0, 70, 100
2, 48768, Note_on_c, 0, 72, 75
2, 48768, Note_on_c, 0, 69, 75
2, 48960, Note_off_c, 0, 72, 100
2, 49056, Note_on_c, 0, 74, 75
2, 49088, Note_off_c, 0, 74, 100
2, 49104, Note_on_c, 0, 76, 75
2, 49136, Note_off_c, 0, 76, 100
2, 49152, Note_on_c, 0, 77, 75
2, 49280, Note_off_c, 0, 69, 100
2, 49280, Note_off_c, 0, 77, 100
2, 49344, Note_on_c, 0, 72, 75
2, 49472, Note_off_c, 0, 72, 100
2, 49536, Note_on_c, 0, 70, 75
2, 49536, Note_on_c, 0, 69, 75
2, 49664, Note_off_c, 0, 69, 100
2, 49728, Note_on_c, 0, 67, 75
2, 49792, Note_off_c, 0, 70, 100
2, 49792, Note_off_c, 0, 67, 100
2, 49824, Note_on_c, 0, 66, 75
2, 49888, Note_off_c, 0, 66, 100
2, 49920, Note_on_c, 0, 70, 50
2, 49920, Note_on_c, 0, 67, 50
2, 50048, Note_off_c, 0, 70, 100
2, 50048, Note_off_c, 0, 67, 100
2, 50112, Note_on_c, 0, 72, 50
2, 50112, Note_on_c, 0, 64, 50
2, 50160, Note_on_c, 0, 70, 50
2, 50176, Note_off_c, 0, 72, 100
2, 50224, Note_off_c, 0, 70, 100
2, 50240, Note_off_c, 0, 64, 100
2, 50304, Note_on_c, 0, 69, 50
2, 50304, Note_on_c, 0, 66, 50
2, 50432, Note_off_c, 0, 69, 100
2, 50432, Note_off_c, 0, 66, 100
2, 50448, Note_on_c, 0, 72, 50
2, 50448, Note_on_c, 0, 69, 50
2, 50492, Note_off_c, 0, 72, 0
2, 50492, Note_off_c, 0, 69, 0
2, 50496, Note_on_c, 0, 70, 50
2, 50496, Note_on_c, 0, 67, 50
2, 50624, Note_off_c, 0, 70, 100
2, 50624, Note_off_c, 0, 67, 100
2, 50688, Note_on_c, 0, 69, 50
2, 50688, Note_on_c, 0, 65, 50
2, 50944, Note_off_c, 0, 69, 100
2, 50944, Note_off_c, 0, 65, 100
2, 51072, Note_on_c, 0, 67, 50
2, 51072, Note_on_c, 0, 64, 50
2, 51200, Note_off_c, 0, 67, 100
2, 51200, Note_off_c, 0, 64, 100
2, 51840, Note_on_c, 0, 69, 50
2, 51872, Note_off_c, 0, 69, 100
2, 51888, Note_on_c, 0, 65, 50
2, 51984, Note_off_c, 0, 65, 100
2, 52032, Note_on_c, 0, 70, 50
2, 52064, Note_off_c, 0, 70, 100
2, 52080, Note_on_c, 0, 67, 50
2, 52176, Note_off_c, 0, 67, 100
2, 52224, Note_on_c, 0, 72, 75
2, 52352, Note_off_c, 0, 72, 100
2, 52464, Note_on_c, 0, 70, 50
2, 52496, Note_off_c, 0, 70, 100
2, 52512, Note_on_c, 0, 69, 50
2, 52544, Note_off_c, 0, 69, 100
2, 52560, Note_on_c, 0, 67, 50
2, 52592, Note_off_c, 0, 67, 100
2, 52608, Note_on_c, 0, 65, 50
2, 52736, Note_off_c, 0, 65, 100
2, 52992, Note_on_c, 0, 74, 50
2, 53024, Note_off_c, 0, 74, 100
2, 53040, Note_on_c, 0, 70, 50
2, 53136, Note_off_c, 0, 70, 100
2, 53184, Note_on_c, 0, 76, 50
2, 53216, Note_off_c, 0, 76, 100
2, 53232, Note_on_c, 0, 72, 50
2, 53328, Note_off_c, 0, 72, 100
2, 53376, Note_on_c, 0, 77, 75
2, 53504, Note_off_c, 0, 77, 100
2, 53568, Note_on_c, 0, 76, 50
2, 53600, Note_off_c, 0, 76, 100
2, 53616, Note_on_c, 0, 74, 50
2, 53648, Note_off_c, 0, 74, 100
2, 53664, Note_on_c, 0, 72, 50
2, 53696, Note_off_c, 0, 72, 100
2, 53712, Note_on_c, 0, 70, 50
2, 53744, Note_off_c, 0, 70, 100
2, 53760, Note_on_c, 0, 69, 50
2, 53888, Note_off_c, 0, 69, 100
2, 54144, Note_on_c, 0, 77, 75
2, 54176, Note_off_c, 0, 77, 100
2, 54192, Note_on_c, 0, 74, 75
2, 54288, Note_off_c, 0, 74, 100
2, 54336, Note_on_c, 0, 81, 75
2, 54368, Note_off_c, 0, 81, 100
2, 54384, Note_on_c, 0, 77, 75
2, 54480, Note_off_c, 0, 77, 100
2, 54528, Note_on_c, 0, 84, 75
2, 54560, Note_off_c, 0, 84, 100
2, 54576, Note_on_c, 0, 80, 75
2, 54672, Note_off_c, 0, 80, 100
2, 54720, Note_on_c, 0, 81, 75
2, 54752, Note_off_c, 0, 81, 100
2, 54768, Note_on_c, 0, 76, 75
2, 54864, Note_off_c, 0, 76, 100
2, 54912, Note_on_c, 0, 77, 75
2, 54944, Note_off_c, 0, 77, 100
2, 54960, Note_on_c, 0, 72, 75
2, 55056, Note_off_c, 0, 72, 100
2, 55104, Note_on_c, 0, 74, 75
2, 55136, Note_off_c, 0, 74, 100
2, 55152, Note_on_c, 0, 69, 75
2, 55248, Note_off_c, 0, 69, 100
2, 55296, Note_on_c, 0, 72, 75
2, 55328, Note_off_c, 0, 72, 100
2, 55344, Note_on_c, 0, 71, 75
2, 55440, Note_off_c, 0, 71, 100
2, 55488, Note_on_c, 0, 72, 75
2, 55520, Note_off_c, 0, 72, 100
2, 55536, Note_on_c, 0, 70, 75
2, 55632, Note_off_c, 0, 70, 100
2, 55680, Note_on_c, 0, 69, 75
2, 55808, Note_off_c, 0, 69, 100
2, 56064, Note_on_c, 0, 69, 50
2, 56064, Note_on_c, 0, 81, 50
2, 56128, Note_off_c, 0, 69, 100
2, 56128, Note_off_c, 0, 81, 100
2, 56160, Note_on_c, 0, 82, 50
2, 56160, Note_on_c, 0, 70, 50
2, 56224, Note_off_c, 0, 82, 100
2, 56224, Note_off_c, 0, 70, 100
2, 56256, Note_on_c, 0, 83, 50
2, 56256, Note_on_c, 0, 71, 50
2, 56320, Note_off_c, 0, 83, 100
2, 56320, Note_off_c, 0, 71, 100
2, 56352, Note_on_c, 0, 84, 50
2, 56352, Note_on_c, 0, 72, 50
2, 56416, Note_off_c, 0, 84, 100
2, 56416, Note_off_c, 0, 72, 100
2, 56448, Note_on_c, 0, 77, 75
2, 56448, Note_on_c, 0, 65, 75
2, 56640, Note_off_c, 0, 77, 100
2, 56704, Note_off_c, 0, 65, 100
2, 56736, Note_on_c, 0, 79, 50
2, 56768, Note_off_c, 0, 79, 100
2, 56784, Note_on_c, 0, 77, 50
2, 56816, Note_off_c, 0, 77, 100
2, 56832, Note_on_c, 0, 76, 50
2, 56832, Note_on_c, 0, 64, 50
2, 56960, Note_off_c, 0, 76, 100
2, 56960, Note_off_c, 0, 64, 100
2, 57120, Note_on_c, 0, 76, 50
2, 57120, Note_on_c, 0, 64, 50
2, 57184, Note_off_c, 0, 76, 100
2, 57184, Note_off_c, 0, 64, 100
2, 57216, Note_on_c, 0, 79, 50
2, 57216, Note_on_c, 0, 67, 50
2, 57280, Note_off_c, 0, 79, 100
2, 57280, Note_off_c, 0, 67, 100
2, 57312, Note_on_c, 0, 65, 50
2, 57312, Note_on_c, 0, 77, 50
2, 57376, Note_off_c, 0, 65, 100
2, 57376, Note_off_c, 0, 77, 100
2, 57408, Note_on_c, 0, 64, 50
2, 57408, Note_on_c, 0, 76, 50
2, 57472, Note_off_c, 0, 64, 100
2, 57472, Note_off_c, 0, 76, 100
2, 57504, Note_on_c, 0, 62, 50
2, 57504, Note_on_c, 0, 74, 50
2, 57568, Note_off_c, 0, 62, 100
2, 57568, Note_off_c, 0, 74, 100
2, 57600, Note_on_c, 0, 72, 75
2, 57600, Note_on_c, 0, 60, 75
2, 57664, Note_off_c, 0, 72, 100
2, 57664, Note_off_c, 0, 60, 100
2, 57696, Note_on_c, 0, 70, 50
2, 57696, Note_on_c, 0, 58, 50
2, 57760, Note_off_c, 0, 70, 100
2, 57760, Note_off_c, 0, 58, 100
2, 57792, Note_on_c, 0, 70, 50
2, 57792, Note_on_c, 0, 58, 50
2, 57920, Note_off_c, 0, 70, 100
2, 57920, Note_off_c, 0, 58, 100
2, 58272, Note_on_c, 0, 79, 50
2, 58336, Note_off_c, 0, 79, 100
2, 58368, Note_on_c, 0, 84, 50
2, 58464, Note_off_c, 0, 84, 100
2, 58512, Note_on_c, 0, 81, 50
2, 58544, Note_off_c, 0, 81, 100
2, 58560, Note_on_c, 0, 82, 50
2, 58656, Note_off_c, 0, 82, 100
2, 58704, Note_on_c, 0, 76, 50
2, 58736, Note_off_c, 0, 76, 100
2, 58752, Note_on_c, 0, 77, 56
2, 58848, Note_off_c, 0, 77, 100
2, 58896, Note_on_c, 0, 72, 62
2, 58928, Note_off_c, 0, 72, 100
2, 58944, Note_on_c, 0, 74, 67
2, 59040, Note_off_c, 0, 74, 100
2, 59088, Note_on_c, 0, 65, 71
2, 59120, Note_off_c, 0, 65, 100
2, 59136, Note_on_c, 0, 65, 75
2, 59264, Note_off_c, 0, 65, 100
2, 59472, Note_on_c, 0, 69, 50
2, 59516, Note_off_c, 0, 69, 0
2, 59520, Note_on_c, 0, 67, 50
2, 59520, Note_on_c, 0, 64, 50
2, 59648, Note_off_c, 0, 67, 100
2, 59712, Note_on_c, 0, 65, 50
2, 59776, Note_off_c, 0, 64, 100
2, 59776, Note_off_c, 0, 65, 100
2, 59808, Note_on_c, 0, 67, 50
2, 59872, Note_off_c, 0, 67, 100
2, 59904, Note_on_c, 0, 64, 50
2, 59904, Note_on_c, 0, 67, 50
2, 60096, Note_on_c, 0, 65, 50
2, 60160, Note_off_c, 0, 64, 100
2, 60160, Note_off_c, 0, 67, 100
2, 60224, Note_off_c, 0, 65, 100
2, 61056, Note_on_c, 0, 64, 75
2, 61088, Note_off_c, 0, 64, 100
2, 61104, Note_on_c, 0, 67, 75
2, 61136, Note_off_c, 0, 67, 100
2, 61152, Note_on_c, 0, 65, 75
2, 61184, Note_off_c, 0, 65, 100
2, 61200, Note_on_c, 0, 64, 75
2, 61232, Note_off_c, 0, 64, 100
2, 61248, Note_on_c, 0, 65, 75
2, 61280, Note_off_c, 0, 65, 100
2, 61296, Note_on_c, 0, 67, 75
2, 61328, Note_off_c, 0, 67, 100
2, 61344, Note_on_c, 0, 69, 75
2, 61376, Note_off_c, 0, 69, 100
2, 61392, Note_on_c, 0, 71, 75
2, 61424, Note_off_c, 0, 71, 100
2, 61440, Note_on_c, 0, 72, 75
2, 61472, Note_off_c, 0, 72, 100
2, 61488, Note_on_c, 0, 74, 75
2, 61520, Note_off_c, 0, 74, 100
2, 61536, Note_on_c, 0, 72, 75
2, 61568, Note_off_c, 0, 72, 100
2, 61584, Note_on_c, 0, 71, 75
2, 61616, Note_off_c, 0, 71, 100
2, 61632, Note_on_c, 0, 72, 75
2, 61632, Note_on_c, 0, 60, 75
2, 61632, Note_on_c, 0, 64, 75
2, 61664, Note_off_c, 0, 72, 100
2, 61680, Note_on_c, 0, 74, 75
2, 61712, Note_off_c, 0, 74, 100
2, 61728, Note_on_c, 0, 76, 75
2, 61760, Note_off_c, 0, 60, 100
2, 61760, Note_off_c, 0, 64, 100
2, 61760, Note_off_c, 0, 76, 100
2, 61776, Note_on_c, 0, 77, 75
2, 61808, Note_off_c, 0, 77, 100
2, 61824, Note_on_c, 0, 79, 75
2, 61824, Note_on_c, 0, 64, 75
2, 61824, Note_on_c, 0, 60, 75
2, 61856, Note_off_c, 0, 79, 100
2, 61872, Note_on_c, 0, 81, 75
2, 61904, Note_off_c, 0, 81, 100
2, 61920, Note_on_c, 0, 79, 75
2, 61952, Note_off_c, 0, 64, 100
2, 61952, Note_off_c, 0, 60, 100
2, 61952, Note_off_c, 0, 79, 100
2, 61968, Note_on_c, 0, 78, 75
2, 62000, Note_off_c, 0, 78, 100
2, 62016, Note_on_c, 0, 79, 75
2, 62016, Note_on_c, 0, 64, 75
2, 62016, Note_on_c, 0, 60, 75
2, 62048, Note_off_c, 0, 79, 100
2, 62064, Note_on_c, 0, 81, 75
2, 62096, Note_off_c, 0, 81, 100
2, 62112, Note_on_c, 0, 79, 75
2, 62144, Note_off_c, 0, 64, 100
2, 62144, Note_off_c, 0, 60, 100
2, 62144, Note_off_c, 0, 79, 100
2, 62176, Note_on_c, 0, 81, 75
2, 62208, Note_off_c, 0, 81, 100
2, 62208, Note_on_c, 0, 72, 50
2, 62400, Note_off_c, 0, 72, 100
2, 62400, Note_on_c, 0, 62, 50
2, 62400, Note_on_c, 0, 65, 50
2, 62496, Note_on_c, 0, 74, 50
2, 62528, Note_off_c, 0, 62, 100
2, 62528, Note_off_c, 0, 65, 100
2, 62528, Note_off_c, 0, 74, 100
2, 62544, Note_on_c, 0, 72, 50
2, 62576, Note_off_c, 0, 72, 100
2, 62592, Note_on_c, 0, 71, 50
2, 62592, Note_on_c, 0, 65, 50
2, 62592, Note_on_c, 0, 62, 50
2, 62720, Note_off_c, 0, 71, 100
2, 62720, Note_off_c, 0, 65, 100
2, 62720, Note_off_c, 0, 62, 100
2, 62784, Note_on_c, 0, 65, 50
2, 62784, Note_on_c, 0, 62, 50
2, 62912, Note_off_c, 0, 65, 100
2, 62912, Note_off_c, 0, 62, 100
2, 62976, Note_on_c, 0, 65, 50
2, 62976, Note_on_c, 0, 62, 50
2, 63072, Note_on_c, 0, 70, 50
2, 63104, Note_off_c, 0, 65, 100
2, 63104, Note_off_c, 0, 62, 100
2, 63136, Note_off_c, 0, 70, 100
2, 63168, Note_on_c, 0, 74, 50
2, 63168, Note_on_c, 0, 65, 50
2, 63168, Note_on_c, 0, 62, 50
2, 63232, Note_off_c, 0, 74, 100
2, 63264, Note_on_c, 0, 77, 50
2, 63296, Note_off_c, 0, 65, 100
2, 63296, Note_off_c, 0, 62, 100
2, 63328, Note_off_c, 0, 77, 100
2, 63360, Note_on_c, 0, 83, 52
2, 63456, Note_off_c, 0, 83, 100
2, 63504, Note_on_c, 0, 77, 55
2, 63536, Note_off_c, 0, 77, 100
2, 63552, Note_on_c, 0, 86, 57
2, 63648, Note_off_c, 0, 86, 100
2, 63696, Note_on_c, 0, 83, 60
2, 63728, Note_off_c, 0, 83, 100
2, 63744, Note_on_c, 0, 89, 62
2, 63776, Note_off_c, 0, 89, 100
2, 63792, Note_on_c, 0, 88, 65
2, 63824, Note_off_c, 0, 88, 100
2, 63840, Note_on_c, 0, 86, 67
2, 63872, Note_off_c, 0, 86, 100
2, 63888, Note_on_c, 0, 88, 70
2, 63920, Note_off_c, 0, 88, 100
2, 63936, Note_on_c, 0, 86, 71
2, 63968, Note_off_c, 0, 86, 100
2, 63984, Note_on_c, 0, 84, 72
2, 64016, Note_off_c, 0, 84, 100
2, 64032, Note_on_c, 0, 83, 73
2, 64064, Note_off_c, 0, 83, 100
2, 64080, Note_on_c, 0, 84, 75
2, 64112, Note_off_c, 0, 84, 100
2, 64128, Note_on_c, 0, 83, 75
2, 64160, Note_off_c, 0, 83, 100
2, 64176, Note_on_c, 0, 84, 75
2, 64208, Note_off_c, 0, 84, 100
2, 64224, Note_on_c, 0, 86, 75
2, 64256, Note_off_c, 0, 86, 100
2, 64272, Note_on_c, 0, 84, 75
2, 64304, Note_off_c, 0, 84, 100
2, 64320, Note_on_c, 0, 83, 75
2, 64352, Note_off_c, 0, 83, 100
2, 64368, Note_on_c, 0, 81, 75
2, 64400, Note_off_c, 0, 81, 100
2, 64416, Note_on_c, 0, 79, 75
2, 64448, Note_off_c, 0, 79, 100
2, 64464, Note_on_c, 0, 77, 75
2, 64496, Note_off_c, 0, 77, 100
2, 64512, Note_on_c, 0, 75, 50
2, 64576, Note_off_c, 0, 75, 100
2, 64608, Note_on_c, 0, 76, 50
2, 64672, Note_off_c, 0, 76, 100
2, 64704, Note_on_c, 0, 77, 50
2, 64768, Note_off_c, 0, 77, 100
2, 64800, Note_on_c, 0, 76, 50
2, 64864, Note_off_c, 0, 76, 100
2, 64896, Note_on_c, 0, 76, 50
2, 65024, Note_off_c, 0, 76, 100
2, 65280, Note_on_c, 0, 72, 75
2, 65312, Note_off_c, 0, 72, 100
2, 65328, Note_on_c, 0, 74, 75
2, 65360, Note_off_c, 0, 74, 100
2, 65376, Note_on_c, 0, 76, 75
2, 65408, Note_off_c, 0, 76, 100
2, 65424, Note_on_c, 0, 77, 75
2, 65456, Note_off_c, 0, 77, 100
2, 65472, Note_on_c, 0, 79, 75
2, 65504, Note_off_c, 0, 79, 100
2, 65520, Note_on_c, 0, 81, 75
2, 65552, Note_off_c, 0, 81, 100
2, 65568, Note_on_c, 0, 83, 75
2, 65600, Note_off_c, 0, 83, 100
2, 65616, Note_on_c, 0, 84, 75
2, 65648, Note_off_c, 0, 84, 100
2, 65664, Note_on_c, 0, 84, 75
2, 65664, Note_on_c, 0, 72, 75
2, 65728, Note_off_c, 0, 84, 100
2, 65760, Note_on_c, 0, 74, 75
2, 65824, Note_off_c, 0, 74, 100
2, 65856, Note_on_c, 0, 74, 75
2, 65920, Note_off_c, 0, 72, 100
2, 65984, Note_off_c, 0, 74, 100
2, 66048, Note_on_c, 0, 74, 75
2, 66048, Note_on_c, 0, 72, 75
2, 66144, Note_off_c, 0, 74, 100
2, 66192, Note_on_c, 0, 84, 75
2, 66224, Note_off_c, 0, 84, 100
2, 66240, Note_on_c, 0, 75, 75
2, 66304, Note_off_c, 0, 72, 100
2, 66336, Note_off_c, 0, 75, 100
2, 66384, Note_on_c, 0, 84, 75
2, 66416, Note_off_c, 0, 84, 100
2, 66432, Note_on_c, 0, 72, 75
2, 66432, Note_on_c, 0, 72, 75
2, 66464, Note_off_c, 0, 72, 100
2, 66480, Note_on_c, 0, 74, 75
2, 66512, Note_off_c, 0, 74, 100
2, 66528, Note_on_c, 0, 76, 75
2, 66560, Note_off_c, 0, 76, 100
2, 66576, Note_on_c, 0, 77, 75
2, 66608, Note_off_c, 0, 77, 100
2, 66624, Note_on_c, 0, 79, 75
2, 66656, Note_off_c, 0, 79, 100
2, 66672, Note_on_c, 0, 81, 75
2, 66688, Note_off_c, 0, 72, 100
2, 66704, Note_off_c, 0, 81, 100
2, 66720, Note_on_c, 0, 83, 75
2, 66752, Note_off_c, 0, 83, 100
2, 66768, Note_on_c, 0, 84, 75
2, 66800, Note_off_c, 0, 84, 100
2, 66816, Note_on_c, 0, 84, 75
2, 66816, Note_on_c, 0, 72, 75
2, 66880, Note_off_c, 0, 84, 100
2, 66912, Note_on_c, 0, 77, 75
2, 66976, Note_off_c, 0, 77, 100
2, 67008, Note_on_c, 0, 77, 75
2, 67072, Note_off_c, 0, 72, 100
2, 67136, Note_off_c, 0, 77, 100
2, 67200, Note_on_c, 0, 77, 75
2, 67200, Note_on_c, 0, 72, 75
2, 67296, Note_off_c, 0, 77, 100
2, 67344, Note_on_c, 0, 84, 75
2, 67376, Note_off_c, 0, 84, 100
2, 67392, Note_on_c, 0, 78, 75
2, 67456, Note_off_c, 0, 72, 100
2, 67536, Note_on_c, 0, 84, 75
2, 67568, Note_off_c, 0, 84, 100
2, 67584, Note_on_c, 0, 72, 75
2, 67584, Note_on_c, 0, 72, 75
2, 67616, Note_off_c, 0, 72, 100
2, 67632, Note_on_c, 0, 74, 75
2, 67664, Note_off_c, 0, 74, 100
2, 67680, Note_on_c, 0, 76, 75
2, 67712, Note_off_c, 0, 76, 100
2, 67728, Note_on_c, 0, 77, 75
2, 67760, Note_off_c, 0, 77, 100
2, 67776, Note_on_c, 0, 79, 75
2, 67808, Note_off_c, 0, 79, 100
2, 67824, Note_on_c, 0, 81, 75
2, 67840, Note_off_c, 0, 72, 100
2, 67856, Note_off_c, 0, 81, 100
2, 67872, Note_off_c, 0, 78, 100
2, 67872, Note_on_c, 0, 83, 75
2, 67904, Note_off_c, 0, 83, 100
2, 67920, Note_on_c, 0, 84, 75
2, 67952, Note_off_c, 0, 84, 100
2, 67968, Note_on_c, 0, 80, 50
2, 68000, Note_off_c, 0, 80, 100
2, 68016, Note_on_c, 0, 81, 50
2, 68048, Note_off_c, 0, 81, 100
2, 68064, Note_on_c, 0, 83, 50
2, 68096, Note_off_c, 0, 83, 100
2, 68112, Note_on_c, 0, 81, 50
2, 68144, Note_off_c, 0, 81, 100
2, 68160, Note_on_c, 0, 79, 50
2, 68192, Note_off_c, 0, 79, 100
2, 68208, Note_on_c, 0, 77, 50
2, 68240, Note_off_c, 0, 77, 100
2, 68256, Note_on_c, 0, 76, 50
2, 68288, Note_off_c, 0, 76, 100
2, 68304, Note_on_c, 0, 74, 50
2, 68336, Note_off_c, 0, 74, 100
2, 68352, Note_on_c, 0, 72, 50
2, 68608, Note_off_c, 0, 72, 100
2, 68688, Note_on_c, 0, 76, 50
2, 68732, Note_off_c, 0, 76, 0
2, 68736, Note_on_c, 0, 74, 50
2, 68736, Note_on_c, 0, 71, 50
2, 68928, Note_off_c, 0, 74, 100
2, 68992, Note_off_c, 0, 71, 100
2, 69024, Note_on_c, 0, 72, 50
2, 69088, Note_off_c, 0, 72, 100
2, 69120, Note_on_c, 0, 72, 75
2, 69120, Note_on_c, 0, 72, 75
2, 69632, Note_off_c, 0, 72, 100
2, 69888, Note_off_c, 0, 72, 100
2, 69888, Note_on_c, 0, 72, 75
2, 70016, Note_off_c, 0, 72, 100
2, 70080, Note_on_c, 0, 73, 75
2, 70208, Note_off_c, 0, 73, 100
2, 70272, Note_on_c, 0, 74, 75
2, 70528, Note_off_c, 0, 74, 100
2, 70656, Note_on_c, 0, 74, 75
2, 70656, Note_on_c, 0, 70, 75
2, 70848, Note_off_c, 0, 74, 100
2, 70944, Note_on_c, 0, 76, 75
2, 70976, Note_off_c, 0, 76, 100
2, 70992, Note_on_c, 0, 78, 75
2, 71024, Note_off_c, 0, 78, 100
2, 71040, Note_on_c, 0, 79, 75
2, 71104, Note_off_c, 0, 79, 100
2, 71136, Note_on_c, 0, 81, 75
2, 71168, Note_off_c, 0, 70, 100
2, 71200, Note_off_c, 0, 81, 100
2, 71232, Note_on_c, 0, 82, 75
2, 71296, Note_off_c, 0, 82, 100
2, 71328, Note_on_c, 0, 74, 75
2, 71392, Note_off_c, 0, 74, 100
2, 71424, Note_on_c, 0, 72, 75
2, 71680, Note_off_c, 0, 72, 100
2, 71808, Note_on_c, 0, 72, 75
2, 71808, Note_on_c, 0, 69, 75
2, 72000, Note_off_c, 0, 72, 100
2, 72096, Note_on_c, 0, 74, 75
2, 72128, Note_off_c, 0, 74, 100
2, 72144, Note_on_c, 0, 76, 75
2, 72176, Note_off_c, 0, 76, 100
2, 72192, Note_on_c, 0, 77, 75
2, 72256, Note_off_c, 0, 77, 100
2, 72288, Note_on_c, 0, 79, 75
2, 72320, Note_off_c, 0, 69, 100
2, 72352, Note_off_c, 0, 79, 100
2, 72384, Note_on_c, 0, 81, 75
2, 72448, Note_off_c, 0, 81, 100
2, 72480, Note_on_c, 0, 72, 75
2, 72544, Note_off_c, 0, 72, 100
2, 72576, Note_on_c, 0, 69, 75
2, 72576, Note_on_c, 0, 70, 75
2, 72704, Note_off_c, 0, 69, 100
2, 72768, Note_on_c, 0, 67, 75
2, 72832, Note_off_c, 0, 70, 100
2, 72832, Note_off_c, 0, 67, 100
2, 72864, Note_on_c, 0, 66, 75
2, 72928, Note_off_c, 0, 66, 100
2, 72960, Note_on_c, 0, 70, 50
2, 72960, Note_on_c, 0, 67, 50
2, 73088, Note_off_c, 0, 70, 100
2, 73152, Note_on_c, 0, 74, 50
2, 73216, Note_off_c, 0, 67, 100
2, 73216, Note_off_c, 0, 74, 100
2, 73248, Note_on_c, 0, 72, 50
2, 73312, Note_off_c, 0, 72, 100
2, 73344, Note_on_c, 0, 70, 50
2, 73344, Note_on_c, 0, 67, 50
2, 73408, Note_off_c, 0, 70, 100
2, 73408, Note_off_c, 0, 67, 100
2, 73440, Note_on_c, 0, 65, 50
2, 73440, Note_on_c, 0, 69, 50
2, 73504, Note_off_c, 0, 65, 100
2, 73504, Note_off_c, 0, 69, 100
2, 73536, Note_on_c, 0, 69, 50
2, 73536, Note_on_c, 0, 72, 50
2, 73600, Note_off_c, 0, 69, 100
2, 73600, Note_off_c, 0, 72, 100
2, 73632, Note_on_c, 0, 67, 50
2, 73632, Note_on_c, 0, 70, 50
2, 73696, Note_off_c, 0, 67, 100
2, 73696, Note_off_c, 0, 70, 100
2, 73728, Note_on_c, 0, 69, 50
2, 73728, Note_on_c, 0, 65, 50
2, 73856, Note_off_c, 0, 69, 100
2, 73920, Note_on_c, 0, 67, 50
2, 73952, Note_off_c, 0, 67, 100
2, 73968, Note_on_c, 0, 69, 50
2, 73984, Note_off_c, 0, 65, 100
2, 74000, Note_off_c, 0, 69, 100
2, 74016, Note_on_c, 0, 70, 50
2, 74048, Note_off_c, 0, 70, 100
2, 74064, Note_on_c, 0, 69, 50
2, 74096, Note_off_c, 0, 69, 100
2, 74112, Note_on_c, 0, 67, 50
2, 74112, Note_on_c, 0, 64, 50
2, 74240, Note_off_c, 0, 67, 100
2, 74240, Note_off_c, 0, 64, 100
2, 74880, Note_on_c, 0, 70, 50
2, 74912, Note_off_c, 0, 70, 100
2, 74928, Note_on_c, 0, 69, 50
2, 74960, Note_off_c, 0, 69, 100
2, 74976, Note_on_c, 0, 68, 50
2, 75008, Note_off_c, 0, 68, 100
2, 75024, Note_on_c, 0, 69, 50
2, 75056, Note_off_c, 0, 69, 100
2, 75072, Note_on_c, 0, 72, 50
2, 75104, Note_off_c, 0, 72, 100
2, 75120, Note_on_c, 0, 70, 50
2, 75152, Note_off_c, 0, 70, 100
2, 75168, Note_on_c, 0, 69, 50
2, 75200, Note_off_c, 0, 69, 100
2, 75216, Note_on_c, 0, 70, 50
2, 75248, Note_off_c, 0, 70, 100
2, 75264, Note_on_c, 0, 72, 75
2, 75392, Note_off_c, 0, 72, 100
2, 75456, Note_on_c, 0, 72, 50
2, 75488, Note_off_c, 0, 72, 100
2, 75504, Note_on_c, 0, 69, 50
2, 75536, Note_off_c, 0, 69, 100
2, 75552, Note_on_c, 0, 72, 50
2, 75584, Note_off_c, 0, 72, 100
2, 75600, Note_on_c, 0, 69, 50
2, 75632, Note_off_c, 0, 69, 100
2, 75648, Note_on_c, 0, 65, 50
2, 75776, Note_off_c, 0, 65, 100
2, 76032, Note_on_c, 0, 76, 50
2, 76064, Note_off_c, 0, 76, 100
2, 76080, Note_on_c, 0, 74, 50
2, 76112, Note_off_c, 0, 74, 100
2, 76128, Note_on_c, 0, 73, 50
2, 76160, Note_off_c, 0, 73, 100
2, 76176, Note_on_c, 0, 74, 50
2, 76208, Note_off_c, 0, 74, 100
2, 76224, Note_on_c, 0, 77, 50
2, 76256, Note_off_c, 0, 77, 100
2, 76272, Note_on_c, 0, 76, 50
2, 76304, Note_off_c, 0, 76, 100
2, 76320, Note_on_c, 0, 74, 50
2, 76352, Note_off_c, 0, 74, 100
2, 76368, Note_on_c, 0, 76, 50
2, 76400, Note_off_c, 0, 76, 100
2, 76416, Note_on_c, 0, 77, 75
2, 76544, Note_off_c, 0, 77, 100
2, 76608, Note_on_c, 0, 77, 50
2, 76640, Note_off_c, 0, 77, 100
2, 76656, Note_on_c, 0, 72, 50
2, 76688, Note_off_c, 0, 72, 100
2, 76704, Note_on_c, 0, 77, 50
2, 76736, Note_off_c, 0, 77, 100
2, 76752, Note_on_c, 0, 72, 50
2, 76784, Note_off_c, 0, 72, 100
2, 76800, Note_on_c, 0, 69, 50
2, 76928, Note_off_c, 0, 69, 100
2, 77184, Note_on_c, 0, 79, 75
2, 77216, Note_off_c, 0, 79, 100
2, 77232, Note_on_c, 0, 77, 75
2, 77264, Note_off_c, 0, 77, 100
2, 77280, Note_on_c, 0, 76, 75
2, 77312, Note_off_c, 0, 76, 100
2, 77328, Note_on_c, 0, 77, 75
2, 77360, Note_off_c, 0, 77, 100
2, 77376, Note_on_c, 0, 81, 75
2, 77408, Note_off_c, 0, 81, 100
2, 77424, Note_on_c, 0, 79, 75
2, 77456, Note_off_c, 0, 79, 100
2, 77472, Note_on_c, 0, 78, 75
2, 77504, Note_off_c, 0, 78, 100
2, 77520, Note_on_c, 0, 79, 75
2, 77552, Note_off_c, 0, 79, 100
2, 77568, Note_on_c, 0, 81, 75
2, 77600, Note_off_c, 0, 81, 100
2, 77616, Note_on_c, 0, 82, 75
2, 77648, Note_off_c, 0, 82, 100
2, 77664, Note_on_c, 0, 84, 75
2, 77696, Note_off_c, 0, 84, 100
2, 77712, Note_on_c, 0, 82, 75
2, 77744, Note_off_c, 0, 82, 100
2, 77760, Note_on_c, 0, 81, 75
2, 77792, Note_off_c, 0, 81, 100
2, 77808, Note_on_c, 0, 79, 75
2, 77840, Note_off_c, 0, 79, 100
2, 77856, Note_on_c, 0, 77, 75
2, 77888, Note_off_c, 0, 77, 100
2, 77904, Note_on_c, 0, 76, 75
2, 77936, Note_off_c, 0, 76, 100
2, 77952, Note_on_c, 0, 77, 75
2, 77984, Note_off_c, 0, 77, 100
2, 78000, Note_on_c, 0, 79, 75
2, 78032, Note_off_c, 0, 79, 100
2, 78048, Note_on_c, 0, 81, 75
2, 78080, Note_off_c, 0, 81, 100
2, 78096, Note_on_c, 0, 76, 75
2, 78128, Note_off_c, 0, 76, 100
2, 78144, Note_on_c, 0, 77, 75
2, 78176, Note_off_c, 0, 77, 100
2, 78192, Note_on_c, 0, 72, 75
2, 78224, Note_off_c, 0, 72, 100
2, 78240, Note_on_c, 0, 74, 75
2, 78272, Note_off_c, 0, 74, 100
2, 78288, Note_on_c, 0, 69, 75
2, 78320, Note_off_c, 0, 69, 100
2, 78336, Note_on_c, 0, 72, 75
2, 78368, Note_off_c, 0, 72, 100
2, 78384, Note_on_c, 0, 70, 75
2, 78416, Note_off_c, 0, 70, 100
2, 78432, Note_on_c, 0, 69, 75
2, 78464, Note_off_c, 0, 69, 100
2, 78480, Note_on_c, 0, 70, 75
2, 78512, Note_off_c, 0, 70, 100
2, 78528, Note_on_c, 0, 72, 75
2, 78560, Note_off_c, 0, 72, 100
2, 78576, Note_on_c, 0, 70, 75
2, 78608, Note_off_c, 0, 70, 100
2, 78624, Note_on_c, 0, 69, 75
2, 78656, Note_off_c, 0, 69, 100
2, 78672, Note_on_c, 0, 70, 75
2, 78704, Note_off_c, 0, 70, 100
2, 78720, Note_on_c, 0, 69, 75
2, 78848, Note_off_c, 0, 69, 100
2, 79488, Note_on_c, 0, 72, 75
2, 79488, Note_on_c, 0, 69, 75
2, 79552, Note_off_c, 0, 72, 100
2, 79552, Note_off_c, 0, 69, 100
2, 79584, Note_on_c, 0, 72, 50
2, 79584, Note_on_c, 0, 69, 50
2, 79648, Note_off_c, 0, 72, 100
2, 79648, Note_off_c, 0, 69, 100
2, 79680, Note_on_c, 0, 69, 50
2, 79680, Note_on_c, 0, 72, 50
2, 79744, Note_off_c, 0, 69, 100
2, 79744, Note_off_c, 0, 72, 100
2, 79776, Note_on_c, 0, 72, 50
2, 79776, Note_on_c, 0, 69, 50
2, 79840, Note_off_c, 0, 72, 100
2, 79840, Note_off_c, 0, 69, 100
2, 79872, Note_on_c, 0, 72, 50
2, 79872, Note_on_c, 0, 70, 50
2, 79936, Note_off_c, 0, 72, 100
2, 79936, Note_off_c, 0, 70, 100
2, 79968, Note_on_c, 0, 70, 50
2, 79968, Note_on_c, 0, 72, 50
2, 80032, Note_off_c, 0, 70, 100
2, 80032, Note_off_c, 0, 72, 100
2, 80064, Note_on_c, 0, 70, 50
2, 80064, Note_on_c, 0, 72, 50
2, 80112, Note_on_c, 0, 72, 50
2, 80128, Note_off_c, 0, 70, 100
2, 80128, Note_off_c, 0, 72, 100
2, 80160, Note_on_c, 0, 70, 50
2, 80176, Note_off_c, 0, 72, 100
2, 80224, Note_off_c, 0, 70, 100
2, 80256, Note_on_c, 0, 72, 55
2, 80256, Note_on_c, 0, 70, 55
2, 80320, Note_off_c, 0, 72, 100
2, 80320, Note_off_c, 0, 70, 100
2, 80352, Note_on_c, 0, 72, 60
2, 80352, Note_on_c, 0, 69, 60
2, 80416, Note_off_c, 0, 72, 100
2, 80416, Note_off_c, 0, 69, 100
2, 80448, Note_on_c, 0, 67, 65
2, 80448, Note_on_c, 0, 72, 65
2, 80512, Note_off_c, 0, 67, 100
2, 80512, Note_off_c, 0, 72, 100
2, 80544, Note_on_c, 0, 72, 70
2, 80544, Note_on_c, 0, 65, 70
2, 80608, Note_off_c, 0, 72, 100
2, 80608, Note_off_c, 0, 65, 100
2, 80640, Note_on_c, 0, 72, 75
2, 80640, Note_on_c, 0, 64, 75
2, 80704, Note_off_c, 0, 72, 100
2, 80704, Note_off_c, 0, 64, 100
2, 80736, Note_on_c, 0, 74, 75
2, 80736, Note_on_c, 0, 65, 75
2, 80800, Note_off_c, 0, 74, 100
2, 80800, Note_off_c, 0, 65, 100
2, 80832, Note_on_c, 0, 76, 75
2, 80832, Note_on_c, 0, 67, 75
2, 80960, Note_off_c, 0, 76, 100
2, 80960, Note_off_c, 0, 67, 100
2, 81216, Note_on_c, 0, 77, 50
2, 81216, Note_on_c, 0, 65, 50
2, 81344, Note_off_c, 0, 77, 100
2, 81344, Note_off_c, 0, 65, 100
2, 81600, Note_on_c, 0, 74, 50
2, 81600, Note_on_c, 0, 65, 50
2, 81728, Note_off_c, 0, 74, 100
2, 81728, Note_off_c, 0, 65, 100
2, 81984, Note_on_c, 0, 72, 50
2, 81984, Note_on_c, 0, 65, 50
2, 82112, Note_off_c, 0, 72, 100
2, 82112, Note_off_c, 0, 65, 100
2, 82368, Note_on_c, 0, 65, 50
2, 82368, Note_on_c, 0, 60, 50
2, 82496, Note_off_c, 0, 65, 100
2, 82496, Note_off_c, 0, 60, 100
2, 82512, Note_on_c, 0, 69, 50
2, 82556, Note_off_c, 0, 69, 0
2, 82560, Note_on_c, 0, 67, 50
2, 82608, Note_on_c, 0, 64, 50
2, 82688, Note_off_c, 0, 67, 100
2, 82736, Note_off_c, 0, 64, 100
2, 82752, Note_on_c, 0, 65, 50
2, 82752, Note_on_c, 0, 62, 50
2, 82816, Note_off_c, 0, 65, 100
2, 82816, Note_off_c, 0, 62, 100
2, 82848, Note_on_c, 0, 67, 50
2, 82848, Note_on_c, 0, 64, 50
2, 82912, Note_off_c, 0, 67, 100
2, 82912, Note_off_c, 0, 64, 100
2, 82944, Note_on_c, 0, 67, 50
2, 82944, Note_on_c, 0, 64, 50
2, 83072, Note_off_c, 0, 67, 100
2, 83136, Note_on_c, 0, 68, 50
2, 83200, Note_off_c, 0, 64, 100
2, 83264, Note_off_c, 0, 68, 100
2, 83328, Note_on_c, 0, 69, 50
2, 83328, Note_on_c, 0, 65, 50
2, 83456, Note_off_c, 0, 69, 100
2, 83456, Note_off_c, 0, 65, 100
2, 83712, Note_on_c, 0, 69, 75
2, 83744, Note_off_c, 0, 69, 100
2, 83760, Note_on_c, 0, 81, 75
2, 83792, Note_off_c, 0, 81, 100
2, 83808, Note_on_c, 0, 70, 75
2, 83840, Note_off_c, 0, 70, 100
2, 83856, Note_on_c, 0, 82, 75
2, 83888, Note_off_c, 0, 82, 100
2, 83904, Note_on_c, 0, 71, 75
2, 83936, Note_off_c, 0, 71, 100
2, 83952, Note_on_c, 0, 83, 75
2, 83984, Note_off_c, 0, 83, 100
2, 84000, Note_on_c, 0, 72, 75
2, 84032, Note_off_c, 0, 72, 100
2, 84048, Note_on_c, 0, 84, 75
2, 84080, Note_off_c, 0, 84, 100
2, 84096, Note_on_c, 0, 65, 75
2, 84140, Note_off_c, 0, 65, 0
2, 84144, Note_on_c, 0, 77, 75
2, 84336, Note_off_c, 0, 77, 100
2, 84384, Note_on_c, 0, 79, 50
2, 84416, Note_off_c, 0, 79, 100
2, 84432, Note_on_c, 0, 77, 50
2, 84464, Note_off_c, 0, 77, 100
2, 84480, Note_on_c, 0, 76, 50
2, 84608, Note_off_c, 0, 76, 100
2, 84768, Note_on_c, 0, 76, 75
2, 84800, Note_off_c, 0, 76, 100
2, 84816, Note_on_c, 0, 88, 75
2, 84848, Note_off_c, 0, 88, 100
2, 84864, Note_on_c, 0, 77, 75
2, 84896, Note_off_c, 0, 77, 100
2, 84912, Note_on_c, 0, 89, 75
2, 84944, Note_off_c, 0, 89, 100
2, 84960, Note_on_c, 0, 76, 75
2, 84992, Note_off_c, 0, 76, 100
2, 85008, Note_on_c, 0, 88, 75
2, 85040, Note_off_c, 0, 88, 100
2, 85056, Note_on_c, 0, 77, 75
2, 85088, Note_off_c, 0, 77, 100
2, 85104, Note_on_c, 0, 89, 75
2, 85136, Note_off_c, 0, 89, 100
2, 85152, Note_on_c, 0, 74, 75
2, 85184, Note_off_c, 0, 74, 100
2, 85200, Note_on_c, 0, 86, 75
2, 85232, Note_off_c, 0, 86, 100
2, 85248, Note_on_c, 0, 72, 75
2, 85280, Note_off_c, 0, 72, 100
2, 85296, Note_on_c, 0, 84, 75
2, 85328, Note_off_c, 0, 84, 100
2, 85344, Note_on_c, 0, 70, 75
2, 85376, Note_off_c, 0, 70, 100
2, 85392, Note_on_c, 0, 82, 75
2, 85424, Note_off_c, 0, 82, 100
2, 85440, Note_on_c, 0, 70, 75
2, 85472, Note_off_c, 0, 70, 100
2, 85488, Note_on_c, 0, 82, 75
2, 85520, Note_off_c, 0, 82, 100
2, 85920, Note_on_c, 0, 79, 50
2, 85984, Note_off_c, 0, 79, 100
2, 86016, Note_on_c, 0, 84, 50
2, 86048, Note_off_c, 0, 84, 100
2, 86064, Note_on_c, 0, 81, 50
2, 86096, Note_off_c, 0, 81, 100
2, 86112, Note_on_c, 0, 77, 50
2, 86144, Note_off_c, 0, 77, 100
2, 86208, Note_on_c, 0, 82, 50
2, 86240, Note_off_c, 0, 82, 100
2, 86256, Note_on_c, 0, 79, 50
2, 86288, Note_off_c, 0, 79, 100
2, 86304, Note_on_c, 0, 76, 50
2, 86336, Note_off_c, 0, 76, 100
2, 86400, Note_on_c, 0, 77, 75
2, 86432, Note_off_c, 0, 77, 100
2, 86448, Note_on_c, 0, 72, 50
2, 86480, Note_off_c, 0, 72, 100
2, 86496, Note_on_c, 0, 69, 50
2, 86528, Note_off_c, 0, 69, 100
2, 86592, Note_on_c, 0, 74, 50
2, 86624, Note_off_c, 0, 74, 100
2, 86640, Note_on_c, 0, 70, 50
2, 86672, Note_off_c, 0, 70, 100
2, 86688, Note_on_c, 0, 67, 50
2, 86720, Note_off_c, 0, 67, 100
2, 86784, Note_on_c, 0, 65, 50
2, 86912, Note_off_c, 0, 65, 100
2, 87120, Note_on_c, 0, 69, 50
2, 87164, Note_off_c, 0, 69, 0
2, 87168, Note_on_c, 0, 67, 50
2, 87168, Note_on_c, 0, 64, 50
2, 87296, Note_off_c, 0, 67, 100
2, 87360, Note_on_c, 0, 65, 50
2, 87424, Note_off_c, 0, 64, 100
2, 87424, Note_off_c, 0, 65, 100
2, 87456, Note_on_c, 0, 67, 50
2, 87520, Note_off_c, 0, 67, 100
2, 87552, Note_on_c, 0, 65, 50
2, 87616, Note_off_c, 0, 65, 100
2, 87648, Note_on_c, 0, 72, 75
2, 87712, Note_off_c, 0, 72, 100
2, 87744, Note_on_c, 0, 71, 70
2, 87808, Note_off_c, 0, 71, 100
2, 87840, Note_on_c, 0, 70, 67
2, 87904, Note_off_c, 0, 70, 100
2, 87936, Note_on_c, 0, 69, 65
2, 88000, Note_off_c, 0, 69, 100
2, 88032, Note_on_c, 0, 68, 60
2, 88096, Note_off_c, 0, 68, 100
2, 88128, Note_on_c, 0, 67, 55
2, 88192, Note_off_c, 0, 67, 100
2, 88224, Note_on_c, 0, 65, 52
2, 88288, Note_off_c, 0, 65, 100
2, 88320, Note_on_c, 0, 69, 50
2, 88364, Note_off_c, 0, 69, 0
2, 88368, Note_on_c, 0, 67, 50
2, 88368, Note_on_c, 0, 64, 50
2, 88496, Note_off_c, 0, 67, 100
2, 88512, Note_on_c, 0, 65, 50
2, 88576, Note_off_c, 0, 65, 100
2, 88608, Note_on_c, 0, 67, 50
2, 88672, Note_off_c, 0, 67, 100
2, 88692, Note_off_c, 0, 64, 0
2, 88704, Note_on_c, 0, 65, 50
2, 88768, Note_off_c, 0, 65, 100
2, 88800, Note_on_c, 0, 72, 75
2, 88864, Note_off_c, 0, 72, 100
2, 88896, Note_on_c, 0, 71, 70
2, 88960, Note_off_c, 0, 71, 100
2, 88992, Note_on_c, 0, 70, 67
2, 89056, Note_off_c, 0, 70, 100
2, 89088, Note_on_c, 0, 69, 65
2, 89152, Note_off_c, 0, 69, 100
2, 89184, Note_on_c, 0, 68, 60
2, 89248, Note_off_c, 0, 68, 100
2, 89280, Note_on_c, 0, 67, 55
2, 89344, Note_off_c, 0, 67, 100
2, 89376, Note_on_c, 0, 65, 52
2, 89440, Note_off_c, 0, 65, 100
2, 89472, Note_on_c, 0, 69, 50
2, 89516, Note_off_c, 0, 69, 0
2, 89520, Note_on_c, 0, 67, 50
2, 89520, Note_on_c, 0, 64, 50
2, 89648, Note_off_c, 0, 67, 100
2, 89664, Note_on_c, 0, 65, 50
2, 89728, Note_off_c, 0, 65, 100
2, 89760, Note_on_c, 0, 67, 50
2, 89824, Note_off_c, 0, 67, 100
2, 89844, Note_off_c, 0, 64, 0
2, 89856, Note_on_c, 0, 65, 50
2, 89984, Note_off_c, 0, 65, 100
2, 89984, End_track
3, 0, Start_track
3, 0, Title_t, "K309-b - Andante"
3, 0, Control_c, 1, 0, 0
3, 0, Program_c, 1, 0
3, 0, Control_c, 1, 7, 121
3, 0, Control_c, 1, 10, 54
3, 0, Control_c, 1, 91, 67
3, 0, Control_c, 1, 93, 35
3, 0, Key_signature, -1, "minor"
3, 0, Control_c, 1, 121, 0
3, 384, Control_c, 1, 10, 53
3, 480, Control_c, 1, 91, 63
3, 576, Control_c, 1, 93, 40
3, 672, Program_c, 1, 0
3, 1536, Note_on_c, 1, 53, 75
3, 1536, Note_on_c, 1, 57, 75
3, 1728, Note_off_c, 1, 57, 100
3, 1792, Note_off_c, 1, 53, 100
3, 1824, Note_on_c, 1, 60, 50
3, 1888, Note_off_c, 1, 60, 100
3, 1920, Note_on_c, 1, 53, 50
3, 1920, Note_on_c, 1, 57, 50
3, 2048, Note_off_c, 1, 53, 100
3, 2048, Note_off_c, 1, 57, 100
3, 2688, Note_on_c, 1, 57, 75
3, 2688, Note_on_c, 1, 60, 75
3, 2880, Note_off_c, 1, 60, 100
3, 2944, Note_off_c, 1, 57, 100
3, 2976, Note_on_c, 1, 65, 50
3, 3040, Note_off_c, 1, 65, 100
3, 3072, Note_on_c, 1, 57, 50
3, 3072, Note_on_c, 1, 60, 50
3, 3200, Note_off_c, 1, 57, 100
3, 3200, Note_off_c, 1, 60, 100
3, 4416, Note_on_c, 1, 57, 75
3, 4416, Note_on_c, 1, 53, 75
3, 4544, Note_off_c, 1, 57, 100
3, 4544, Note_off_c, 1, 53, 100
3, 4608, Note_on_c, 1, 55, 75
3, 4736, Note_off_c, 1, 55, 100
3, 4800, Note_on_c, 1, 48, 75
3, 4928, Note_off_c, 1, 48, 100
3, 4992, Note_on_c, 1, 53, 75
3, 5120, Note_off_c, 1, 53, 100
3, 5760, Note_on_c, 1, 57, 75
3, 5760, Note_on_c, 1, 48, 75
3, 6016, Note_off_c, 1, 57, 100
3, 6140, Note_off_c, 1, 48, 0
3, 6144, Note_on_c, 1, 55, 50
3, 6144, Note_on_c, 1, 48, 50
3, 6272, Note_off_c, 1, 55, 100
3, 6272, Note_off_c, 1, 48, 100
3, 6336, Note_on_c, 1, 58, 50
3, 6464, Note_off_c, 1, 58, 100
3, 6528, Note_on_c, 1, 57, 50
3, 6656, Note_off_c, 1, 57, 100
3, 6720, Note_on_c, 1, 57, 50
3, 6720, Note_on_c, 1, 53, 50
3, 6848, Note_off_c, 1, 57, 100
3, 6848, Note_off_c, 1, 53, 100
3, 6912, Note_on_c, 1, 62, 50
3, 6912, Note_on_c, 1, 55, 50
3, 7296, Note_off_c, 1, 62, 100
3, 7296, Note_off_c, 1, 55, 100
3, 7488, Note_on_c, 1, 61, 50
3, 7488, Note_on_c, 1, 53, 50
3, 7616, Note_off_c, 1, 61, 100
3, 7616, Note_off_c, 1, 53, 100
3, 7680, Note_on_c, 1, 60, 50
3, 7680, Note_on_c, 1, 52, 50
3, 7808, Note_off_c, 1, 52, 100
3, 7872, Note_on_c, 1, 58, 50
3, 7936, Note_off_c, 1, 60, 100
3, 8000, Note_off_c, 1, 58, 100
3, 8064, Note_on_c, 1, 60, 50
3, 8064, Note_on_c, 1, 57, 50
3, 8320, Note_off_c, 1, 60, 100
3, 8320, Note_off_c, 1, 57, 100
3, 8640, Note_on_c, 1, 45, 50
3, 8768, Note_off_c, 1, 45, 100
3, 8832, Note_on_c, 1, 46, 50
3, 8960, Note_off_c, 1, 46, 100
3, 9024, Note_on_c, 1, 50, 50
3, 9152, Note_off_c, 1, 50, 100
3, 9216, Note_on_c, 1, 48, 75
3, 9600, Note_off_c, 1, 48, 100
3, 9792, Note_on_c, 1, 46, 75
3, 9920, Note_off_c, 1, 46, 100
3, 9984, Note_on_c, 1, 45, 75
3, 10112, Note_off_c, 1, 45, 100
3, 10176, Note_on_c, 1, 43, 75
3, 10304, Note_off_c, 1, 43, 100
3, 10368, Note_on_c, 1, 41, 50
3, 10496, Note_off_c, 1, 41, 100
3, 10752, Note_on_c, 1, 57, 75
3, 10752, Note_on_c, 1, 53, 75
3, 10944, Note_off_c, 1, 57, 100
3, 11008, Note_off_c, 1, 53, 100
3, 11040, Note_on_c, 1, 60, 50
3, 11104, Note_off_c, 1, 60, 100
3, 11136, Note_on_c, 1, 53, 50
3, 11136, Note_on_c, 1, 57, 50
3, 11264, Note_off_c, 1, 53, 100
3, 11264, Note_off_c, 1, 57, 100
3, 11904, Note_on_c, 1, 57, 75
3, 11904, Note_on_c, 1, 60, 75
3, 12096, Note_off_c, 1, 60, 100
3, 12160, Note_off_c, 1, 57, 100
3, 12192, Note_on_c, 1, 65, 50
3, 12256, Note_off_c, 1, 65, 100
3, 12288, Note_on_c, 1, 60, 50
3, 12288, Note_on_c, 1, 57, 50
3, 12416, Note_off_c, 1, 60, 100
3, 12416, Note_off_c, 1, 57, 100
3, 14976, Note_on_c, 1, 57, 75
3, 14976, Note_on_c, 1, 48, 75
3, 15232, Note_off_c, 1, 57, 100
3, 15232, Note_off_c, 1, 48, 100
3, 15360, Note_on_c, 1, 55, 50
3, 15360, Note_on_c, 1, 48, 50
3, 15488, Note_off_c, 1, 55, 100
3, 15488, Note_off_c, 1, 48, 100
3, 16128, Note_on_c, 1, 62, 75
3, 16128, Note_on_c, 1, 55, 75
3, 16256, Note_off_c, 1, 62, 100
3, 16256, Note_off_c, 1, 55, 100
3, 16320, Note_on_c, 1, 60, 50
3, 16320, Note_on_c, 1, 52, 50
3, 16448, Note_off_c, 1, 60, 100
3, 16448, Note_off_c, 1, 52, 100
3, 16800, Note_on_c, 1, 40, 50
3, 16864, Note_off_c, 1, 40, 100
3, 16896, Note_on_c, 1, 41, 50
3, 17088, Note_off_c, 1, 41, 100
3, 17184, Note_on_c, 1, 43, 50
3, 17248, Note_off_c, 1, 43, 100
3, 17280, Note_on_c, 1, 45, 50
3, 17472, Note_off_c, 1, 45, 100
3, 17568, Note_on_c, 1, 46, 56
3, 17632, Note_off_c, 1, 46, 100
3, 17664, Note_on_c, 1, 48, 62
3, 17792, Note_off_c, 1, 48, 100
3, 18048, Note_on_c, 1, 36, 68
3, 18304, Note_off_c, 1, 36, 100
3, 18432, Note_on_c, 1, 41, 75
3, 18816, Note_off_c, 1, 41, 100
3, 19008, Note_on_c, 1, 48, 75
3, 19136, Note_off_c, 1, 48, 100
3, 19200, Note_on_c, 1, 45, 75
3, 19328, Note_off_c, 1, 45, 100
3, 19392, Note_on_c, 1, 48, 75
3, 19520, Note_off_c, 1, 48, 100
3, 19584, Note_on_c, 1, 41, 75
3, 19772, Note_off_c, 1, 41, 0
3, 19968, Note_on_c, 1, 53, 75
3, 19988, Note_off_c, 1, 53, 0
3, 19988, Note_on_c, 1, 53, 75
3, 19988, Note_on_c, 1, 57, 75
3, 20180, Note_off_c, 1, 57, 100
3, 20244, Note_off_c, 1, 53, 100
3, 20256, Note_on_c, 1, 60, 50
3, 20320, Note_off_c, 1, 60, 100
3, 20352, Note_on_c, 1, 57, 50
3, 20352, Note_on_c, 1, 53, 50
3, 20480, Note_off_c, 1, 57, 100
3, 20480, Note_off_c, 1, 53, 100
3, 21120, Note_on_c, 1, 57, 75
3, 21140, Note_off_c, 1, 57, 0
3, 21140, Note_on_c, 1, 57, 75
3, 21140, Note_on_c, 1, 60, 75
3, 21332, Note_off_c, 1, 60, 100
3, 21396, Note_off_c, 1, 57, 100
3, 21408, Note_on_c, 1, 65, 50
3, 21472, Note_off_c, 1, 65, 100
3, 21504, Note_on_c, 1, 57, 50
3, 21504, Note_on_c, 1, 60, 50
3, 21632, Note_off_c, 1, 57, 100
3, 21632, Note_off_c, 1, 60, 100
3, 22848, Note_on_c, 1, 53, 50
3, 22848, Note_on_c, 1, 60, 50
3, 22976, Note_off_c, 1, 53, 100
3, 22976, Note_off_c, 1, 60, 100
3, 23040, Note_on_c, 1, 55, 50
3, 23040, Note_on_c, 1, 60, 50
3, 23168, Note_off_c, 1, 55, 100
3, 23232, Note_on_c, 1, 52, 50
3, 23296, Note_off_c, 1, 60, 100
3, 23360, Note_off_c, 1, 52, 100
3, 23424, Note_on_c, 1, 60, 50
3, 23424, Note_on_c, 1, 53, 50
3, 23552, Note_off_c, 1, 53, 100
3, 23680, Note_off_c, 1, 60, 100
3, 24192, Note_on_c, 1, 57, 75
3, 24192, Note_on_c, 1, 53, 75
3, 24192, Note_on_c, 1, 48, 75
3, 24448, Note_off_c, 1, 57, 100
3, 24448, Note_off_c, 1, 53, 100
3, 24448, Note_off_c, 1, 48, 100
3, 24576, Note_on_c, 1, 58, 50
3, 24576, Note_on_c, 1, 55, 50
3, 24576, Note_on_c, 1, 48, 50
3, 24704, Note_off_c, 1, 58, 100
3, 24704, Note_off_c, 1, 55, 100
3, 24704, Note_off_c, 1, 48, 100
3, 24768, Note_on_c, 1, 60, 50
3, 24768, Note_on_c, 1, 58, 50
3, 24896, Note_off_c, 1, 58, 100
3, 24960, Note_on_c, 1, 57, 50
3, 25024, Note_off_c, 1, 60, 100
3, 25088, Note_off_c, 1, 57, 100
3, 25152, Note_on_c, 1, 57, 50
3, 25152, Note_on_c, 1, 53, 50
3, 25280, Note_off_c, 1, 57, 100
3, 25280, Note_off_c, 1, 53, 100
3, 25344, Note_on_c, 1, 62, 75
3, 25344, Note_on_c, 1, 55, 75
3, 25728, Note_off_c, 1, 62, 100
3, 25728, Note_off_c, 1, 55, 100
3, 25920, Note_on_c, 1, 61, 50
3, 25920, Note_on_c, 1, 53, 50
3, 26048, Note_off_c, 1, 61, 100
3, 26048, Note_off_c, 1, 53, 100
3, 26112, Note_on_c, 1, 60, 75
3, 26112, Note_on_c, 1, 52, 75
3, 26240, Note_off_c, 1, 60, 100
3, 26240, Note_off_c, 1, 52, 100
3, 26304, Note_on_c, 1, 60, 75
3, 26304, Note_on_c, 1, 58, 75
3, 26432, Note_off_c, 1, 60, 100
3, 26432, Note_off_c, 1, 58, 100
3, 26496, Note_on_c, 1, 57, 75
3, 26496, Note_on_c, 1, 60, 75
3, 26752, Note_off_c, 1, 57, 100
3, 26752, Note_off_c, 1, 60, 100
3, 27072, Note_on_c, 1, 53, 50
3, 27072, Note_on_c, 1, 45, 50
3, 27200, Note_off_c, 1, 45, 100
3, 27264, Note_on_c, 1, 46, 50
3, 27328, Note_off_c, 1, 53, 100
3, 27392, Note_off_c, 1, 46, 100
3, 27456, Note_on_c, 1, 53, 50
3, 27584, Note_off_c, 1, 53, 100
3, 27648, Note_on_c, 1, 53, 50
3, 27648, Note_on_c, 1, 48, 50
3, 27904, Note_off_c, 1, 53, 100
3, 27904, Note_off_c, 1, 48, 100
3, 28032, Note_on_c, 1, 52, 50
3, 28032, Note_on_c, 1, 48, 50
3, 28160, Note_off_c, 1, 52, 100
3, 28160, Note_off_c, 1, 48, 100
3, 28224, Note_on_c, 1, 46, 75
3, 28256, Note_off_c, 1, 46, 100
3, 28272, Note_on_c, 1, 48, 75
3, 28304, Note_off_c, 1, 48, 100
3, 28320, Note_on_c, 1, 46, 75
3, 28352, Note_off_c, 1, 46, 100
3, 28416, Note_on_c, 1, 45, 75
3, 28448, Note_off_c, 1, 45, 100
3, 28464, Note_on_c, 1, 46, 75
3, 28496, Note_off_c, 1, 46, 100
3, 28512, Note_on_c, 1, 45, 75
3, 28544, Note_off_c, 1, 45, 100
3, 28608, Note_on_c, 1, 43, 75
3, 28640, Note_off_c, 1, 43, 100
3, 28656, Note_on_c, 1, 45, 75
3, 28688, Note_off_c, 1, 45, 100
3, 28704, Note_on_c, 1, 43, 75
3, 28736, Note_off_c, 1, 43, 100
3, 28800, Note_on_c, 1, 41, 50
3, 28928, Note_off_c, 1, 41, 100
3, 29184, Note_on_c, 1, 57, 75
3, 29184, Note_on_c, 1, 53, 75
3, 29440, Note_off_c, 1, 57, 100
3, 29440, Note_off_c, 1, 53, 100
3, 29568, Note_on_c, 1, 57, 50
3, 29568, Note_on_c, 1, 53, 50
3, 29696, Note_off_c, 1, 57, 100
3, 29696, Note_off_c, 1, 53, 100
3, 30336, Note_on_c, 1, 60, 75
3, 30336, Note_on_c, 1, 57, 75
3, 30592, Note_off_c, 1, 60, 100
3, 30592, Note_off_c, 1, 57, 100
3, 30720, Note_on_c, 1, 60, 50
3, 30720, Note_on_c, 1, 57, 50
3, 30848, Note_off_c, 1, 60, 100
3, 30848, Note_off_c, 1, 57, 100
3, 33408, Note_on_c, 1, 57, 75
3, 33408, Note_on_c, 1, 48, 75
3, 33664, Note_off_c, 1, 57, 100
3, 33664, Note_off_c, 1, 48, 100
3, 33792, Note_on_c, 1, 48, 50
3, 33792, Note_on_c, 1, 55, 50
3, 33920, Note_off_c, 1, 48, 100
3, 33920, Note_off_c, 1, 55, 100
3, 34560, Note_on_c, 1, 62, 75
3, 34560, Note_on_c, 1, 55, 75
3, 34688, Note_off_c, 1, 62, 100
3, 34688, Note_off_c, 1, 55, 100
3, 34752, Note_on_c, 1, 60, 75
3, 34752, Note_on_c, 1, 52, 75
3, 34880, Note_off_c, 1, 60, 100
3, 34880, Note_off_c, 1, 52, 100
3, 35232, Note_on_c, 1, 40, 50
3, 35232, Note_on_c, 1, 55, 50
3, 35296, Note_off_c, 1, 40, 100
3, 35296, Note_off_c, 1, 55, 100
3, 35328, Note_on_c, 1, 41, 50
3, 35328, Note_on_c, 1, 57, 50
3, 35360, Note_off_c, 1, 57, 100
3, 35376, Note_on_c, 1, 58, 50
3, 35408, Note_off_c, 1, 58, 100
3, 35424, Note_on_c, 1, 57, 50
3, 35456, Note_off_c, 1, 57, 100
3, 35472, Note_on_c, 1, 55, 50
3, 35504, Note_off_c, 1, 55, 100
3, 35520, Note_off_c, 1, 41, 100
3, 35520, Note_on_c, 1, 57, 50
3, 35552, Note_off_c, 1, 57, 100
3, 35568, Note_on_c, 1, 58, 50
3, 35600, Note_off_c, 1, 58, 100
3, 35616, Note_on_c, 1, 43, 50
3, 35616, Note_on_c, 1, 57, 50
3, 35648, Note_off_c, 1, 57, 100
3, 35664, Note_on_c, 1, 58, 50
3, 35680, Note_off_c, 1, 43, 100
3, 35696, Note_off_c, 1, 58, 100
3, 35712, Note_on_c, 1, 60, 50
3, 35712, Note_on_c, 1, 45, 50
3, 35744, Note_off_c, 1, 60, 100
3, 35760, Note_on_c, 1, 62, 50
3, 35792, Note_off_c, 1, 62, 100
3, 35808, Note_on_c, 1, 60, 50
3, 35840, Note_off_c, 1, 60, 100
3, 35856, Note_on_c, 1, 58, 50
3, 35888, Note_off_c, 1, 58, 100
3, 35904, Note_off_c, 1, 45, 100
3, 35904, Note_on_c, 1, 60, 50
3, 35936, Note_off_c, 1, 60, 100
3, 35952, Note_on_c, 1, 62, 50
3, 35984, Note_off_c, 1, 62, 100
3, 36000, Note_on_c, 1, 60, 50
3, 36000, Note_on_c, 1, 46, 50
3, 36032, Note_off_c, 1, 60, 100
3, 36048, Note_on_c, 1, 62, 50
3, 36064, Note_off_c, 1, 46, 100
3, 36080, Note_off_c, 1, 62, 100
3, 36096, Note_on_c, 1, 53, 50
3, 36096, Note_on_c, 1, 48, 50
3, 36224, Note_off_c, 1, 53, 100
3, 36224, Note_off_c, 1, 48, 100
3, 36432, Note_on_c, 1, 57, 50
3, 36476, Note_off_c, 1, 57, 0
3, 36480, Note_on_c, 1, 46, 50
3, 36480, Note_on_c, 1, 36, 50
3, 36480, Note_on_c, 1, 52, 50
3, 36480, Note_on_c, 1, 55, 50
3, 36608, Note_off_c, 1, 55, 100
3, 36672, Note_on_c, 1, 53, 50
3, 36736, Note_off_c, 1, 46, 100
3, 36736, Note_off_c, 1, 36, 100
3, 36736, Note_off_c, 1, 52, 100
3, 36736, Note_off_c, 1, 53, 100
3, 36768, Note_on_c, 1, 55, 50
3, 36832, Note_off_c, 1, 55, 100
3, 36864, Note_on_c, 1, 55, 75
3, 36864, Note_on_c, 1, 52, 75
3, 36864, Note_on_c, 1, 46, 75
3, 36864, Note_on_c, 1, 41, 75
3, 37120, Note_off_c, 1, 55, 100
3, 37120, Note_off_c, 1, 52, 100
3, 37120, Note_off_c, 1, 46, 100
3, 37120, Note_off_c, 1, 41, 100
3, 37248, Note_on_c, 1, 53, 50
3, 37248, Note_on_c, 1, 45, 50
3, 37248, Note_on_c, 1, 41, 50
3, 37376, Note_off_c, 1, 53, 100
3, 37376, Note_off_c, 1, 45, 100
3, 37376, Note_off_c, 1, 41, 100
3, 37440, Note_on_c, 1, 53, 50
3, 37440, Note_on_c, 1, 41, 50
3, 37568, Note_off_c, 1, 53, 100
3, 37568, Note_off_c, 1, 41, 100
3, 37632, Note_on_c, 1, 52, 50
3, 37632, Note_on_c, 1, 40, 50
3, 37760, Note_off_c, 1, 52, 100
3, 37760, Note_off_c, 1, 40, 100
3, 37824, Note_on_c, 1, 50, 50
3, 37824, Note_on_c, 1, 38, 50
3, 37952, Note_off_c, 1, 50, 100
3, 37952, Note_off_c, 1, 38, 100
3, 38016, Note_on_c, 1, 48, 50
3, 38016, Note_on_c, 1, 36, 50
3, 38272, Note_off_c, 1, 48, 100
3, 38272, Note_off_c, 1, 36, 100
3, 40512, Note_on_c, 1, 59, 50
3, 40512, Note_on_c, 1, 55, 50
3, 40640, Note_off_c, 1, 59, 100
3, 40640, Note_off_c, 1, 55, 100
3, 40704, Note_on_c, 1, 59, 50
3, 40704, Note_on_c, 1, 55, 50
3, 40832, Note_off_c, 1, 59, 100
3, 40832, Note_off_c, 1, 55, 100
3, 40896, Note_on_c, 1, 59, 50
3, 40896, Note_on_c, 1, 55, 50
3, 41024, Note_off_c, 1, 59, 100
3, 41024, Note_off_c, 1, 55, 100
3, 41088, Note_on_c, 1, 59, 50
3, 41088, Note_on_c, 1, 55, 50
3, 41216, Note_off_c, 1, 59, 100
3, 41216, Note_off_c, 1, 55, 100
3, 41280, Note_on_c, 1, 59, 50
3, 41280, Note_on_c, 1, 55, 50
3, 41408, Note_off_c, 1, 59, 100
3, 41408, Note_off_c, 1, 55, 100
3, 41664, Note_on_c, 1, 60, 50
3, 41664, Note_on_c, 1, 48, 50
3, 41792, Note_off_c, 1, 60, 100
3, 41792, Note_off_c, 1, 48, 100
3, 41856, Note_on_c, 1, 60, 50
3, 41856, Note_on_c, 1, 48, 50
3, 41984, Note_off_c, 1, 60, 100
3, 41984, Note_off_c, 1, 48, 100
3, 42048, Note_on_c, 1, 48, 50
3, 42048, Note_on_c, 1, 60, 50
3, 42176, Note_off_c, 1, 48, 100
3, 42176, Note_off_c, 1, 60, 100
3, 42240, Note_on_c, 1, 40, 75
3, 42368, Note_off_c, 1, 40, 100
3, 42432, Note_on_c, 1, 52, 75
3, 42560, Note_off_c, 1, 52, 100
3, 42624, Note_on_c, 1, 41, 75
3, 42752, Note_off_c, 1, 41, 100
3, 42816, Note_on_c, 1, 53, 75
3, 42912, Note_off_c, 1, 53, 100
3, 42960, Note_on_c, 1, 52, 75
3, 42992, Note_off_c, 1, 52, 100
3, 43008, Note_on_c, 1, 53, 75
3, 43136, Note_off_c, 1, 53, 100
3, 43200, Note_on_c, 1, 54, 75
3, 43328, Note_off_c, 1, 54, 100
3, 43392, Note_on_c, 1, 55, 75
3, 43520, Note_off_c, 1, 55, 100
3, 43584, Note_on_c, 1, 43, 75
3, 43712, Note_off_c, 1, 43, 100
3, 43776, Note_on_c, 1, 45, 75
3, 43904, Note_off_c, 1, 45, 100
3, 43968, Note_on_c, 1, 57, 75
3, 44032, Note_off_c, 1, 57, 100
3, 44064, Note_on_c, 1, 56, 75
3, 44128, Note_off_c, 1, 56, 100
3, 44160, Note_on_c, 1, 57, 75
3, 44288, Note_off_c, 1, 57, 100
3, 44352, Note_on_c, 1, 45, 75
3, 44480, Note_off_c, 1, 45, 100
3, 44544, Note_on_c, 1, 40, 75
3, 44672, Note_off_c, 1, 40, 100
3, 44736, Note_on_c, 1, 52, 75
3, 44864, Note_off_c, 1, 52, 100
3, 44928, Note_on_c, 1, 60, 50
3, 44928, Note_on_c, 1, 52, 50
3, 45056, Note_off_c, 1, 60, 100
3, 45120, Note_on_c, 1, 62, 50
3, 45184, Note_off_c, 1, 52, 100
3, 45248, Note_off_c, 1, 62, 100
3, 45312, Note_on_c, 1, 55, 50
3, 45312, Note_on_c, 1, 64, 50
3, 45568, Note_off_c, 1, 55, 100
3, 45568, Note_off_c, 1, 64, 100
3, 45696, Note_on_c, 1, 55, 50
3, 45696, Note_on_c, 1, 65, 50
3, 45952, Note_off_c, 1, 55, 100
3, 45952, Note_off_c, 1, 65, 100
3, 46080, Note_on_c, 1, 60, 50
3, 46080, Note_on_c, 1, 64, 50
3, 46208, Note_off_c, 1, 60, 100
3, 46208, Note_off_c, 1, 64, 100
3, 46272, Note_on_c, 1, 48, 75
3, 46460, Note_off_c, 1, 48, 0
3, 46464, Note_on_c, 1, 60, 50
3, 46652, Note_off_c, 1, 60, 0
3, 46656, Note_on_c, 1, 58, 50
3, 46844, Note_off_c, 1, 58, 0
3, 46848, Note_on_c, 1, 57, 50
3, 47036, Note_off_c, 1, 57, 0
3, 47040, Note_on_c, 1, 55, 50
3, 47228, Note_off_c, 1, 55, 0
3, 47232, Note_on_c, 1, 54, 50
3, 47420, Note_off_c, 1, 54, 0
3, 47424, Note_on_c, 1, 50, 50
3, 47612, Note_off_c, 1, 50, 0
3, 47616, Note_on_c, 1, 58, 50
3, 47804, Note_off_c, 1, 58, 0
3, 47808, Note_on_c, 1, 57, 50
3, 47996, Note_off_c, 1, 57, 0
3, 48000, Note_on_c, 1, 55, 75
3, 48188, Note_off_c, 1, 55, 0
3, 48192, Note_on_c, 1, 53, 75
3, 48380, Note_off_c, 1, 53, 0
3, 48384, Note_on_c, 1, 52, 75
3, 48572, Note_off_c, 1, 52, 0
3, 48576, Note_on_c, 1, 48, 75
3, 48764, Note_off_c, 1, 48, 0
3, 48768, Note_on_c, 1, 57, 75
3, 48956, Note_off_c, 1, 57, 0
3, 48960, Note_on_c, 1, 55, 75
3, 49148, Note_off_c, 1, 55, 0
3, 49152, Note_on_c, 1, 53, 75
3, 49340, Note_off_c, 1, 53, 0
3, 49344, Note_on_c, 1, 52, 75
3, 49532, Note_off_c, 1, 52, 0
3, 49536, Note_on_c, 1, 50, 75
3, 49792, Note_off_c, 1, 50, 100
3, 49920, Note_on_c, 1, 52, 50
3, 50048, Note_off_c, 1, 52, 100
3, 50112, Note_on_c, 1, 48, 50
3, 50240, Note_off_c, 1, 48, 100
3, 50304, Note_on_c, 1, 50, 50
3, 50432, Note_off_c, 1, 50, 100
3, 50496, Note_on_c, 1, 46, 50
3, 50624, Note_off_c, 1, 46, 100
3, 50688, Note_on_c, 1, 48, 50
3, 50816, Note_off_c, 1, 48, 100
3, 50880, Note_on_c, 1, 60, 50
3, 51008, Note_off_c, 1, 60, 100
3, 51072, Note_on_c, 1, 60, 75
3, 51136, Note_off_c, 1, 60, 100
3, 51168, Note_on_c, 1, 48, 50
3, 51232, Note_off_c, 1, 48, 100
3, 51264, Note_on_c, 1, 58, 50
3, 51328, Note_off_c, 1, 58, 100
3, 51360, Note_on_c, 1, 46, 50
3, 51424, Note_off_c, 1, 46, 100
3, 51456, Note_on_c, 1, 57, 50
3, 51520, Note_off_c, 1, 57, 100
3, 51552, Note_on_c, 1, 45, 50
3, 51616, Note_off_c, 1, 45, 100
3, 51648, Note_on_c, 1, 55, 50
3, 51712, Note_off_c, 1, 55, 100
3, 51744, Note_on_c, 1, 43, 50
3, 51808, Note_off_c, 1, 43, 100
3, 51840, Note_on_c, 1, 53, 50
3, 51840, Note_on_c, 1, 41, 50
3, 51968, Note_off_c, 1, 53, 100
3, 51968, Note_off_c, 1, 41, 100
3, 52224, Note_on_c, 1, 57, 75
3, 52224, Note_on_c, 1, 53, 75
3, 52480, Note_off_c, 1, 57, 100
3, 52480, Note_off_c, 1, 53, 100
3, 52608, Note_on_c, 1, 57, 50
3, 52608, Note_on_c, 1, 53, 50
3, 52736, Note_off_c, 1, 57, 100
3, 52736, Note_off_c, 1, 53, 100
3, 53376, Note_on_c, 1, 57, 75
3, 53376, Note_on_c, 1, 60, 75
3, 53632, Note_off_c, 1, 57, 100
3, 53632, Note_off_c, 1, 60, 100
3, 53760, Note_on_c, 1, 57, 50
3, 53760, Note_on_c, 1, 60, 50
3, 53888, Note_off_c, 1, 57, 100
3, 53888, Note_off_c, 1, 60, 100
3, 55104, Note_on_c, 1, 57, 75
3, 55104, Note_on_c, 1, 53, 75
3, 55232, Note_off_c, 1, 57, 100
3, 55232, Note_off_c, 1, 53, 100
3, 55296, Note_on_c, 1, 50, 75
3, 55296, Note_on_c, 1, 53, 75
3, 55424, Note_off_c, 1, 50, 100
3, 55424, Note_off_c, 1, 53, 100
3, 55488, Note_on_c, 1, 55, 75
3, 55488, Note_on_c, 1, 52, 75
3, 55616, Note_off_c, 1, 55, 100
3, 55616, Note_off_c, 1, 52, 100
3, 55680, Note_on_c, 1, 60, 75
3, 55680, Note_on_c, 1, 53, 75
3, 55808, Note_off_c, 1, 60, 100
3, 55808, Note_off_c, 1, 53, 100
3, 56448, Note_on_c, 1, 57, 75
3, 56448, Note_on_c, 1, 48, 75
3, 56704, Note_off_c, 1, 57, 100
3, 56704, Note_off_c, 1, 48, 100
3, 56832, Note_on_c, 1, 55, 50
3, 56832, Note_on_c, 1, 48, 50
3, 56960, Note_off_c, 1, 55, 100
3, 56960, Note_off_c, 1, 48, 100
3, 57600, Note_on_c, 1, 53, 75
3, 57600, Note_on_c, 1, 50, 75
3, 57728, Note_off_c, 1, 53, 100
3, 57728, Note_off_c, 1, 50, 100
3, 57792, Note_on_c, 1, 55, 50
3, 57792, Note_on_c, 1, 52, 50
3, 57920, Note_off_c, 1, 55, 100
3, 57920, Note_off_c, 1, 52, 100
3, 58368, Note_on_c, 1, 41, 50
3, 58368, Note_on_c, 1, 45, 50
3, 58496, Note_off_c, 1, 41, 100
3, 58496, Note_off_c, 1, 45, 100
3, 58560, Note_on_c, 1, 43, 56
3, 58560, Note_on_c, 1, 48, 56
3, 58688, Note_off_c, 1, 43, 100
3, 58688, Note_off_c, 1, 48, 100
3, 58752, Note_on_c, 1, 45, 62
3, 58752, Note_on_c, 1, 48, 62
3, 58880, Note_off_c, 1, 45, 100
3, 58880, Note_off_c, 1, 48, 100
3, 58944, Note_on_c, 1, 53, 68
3, 58944, Note_on_c, 1, 46, 68
3, 59072, Note_off_c, 1, 53, 100
3, 59072, Note_off_c, 1, 46, 100
3, 59136, Note_on_c, 1, 57, 75
3, 59136, Note_on_c, 1, 48, 75
3, 59264, Note_off_c, 1, 57, 100
3, 59264, Note_off_c, 1, 48, 100
3, 59520, Note_on_c, 1, 58, 50
3, 59520, Note_on_c, 1, 48, 50
3, 59776, Note_off_c, 1, 58, 100
3, 59776, Note_off_c, 1, 48, 100
3, 59904, Note_on_c, 1, 58, 50
3, 59904, Note_on_c, 1, 53, 50
3, 60096, Note_on_c, 1, 57, 50
3, 60096, Note_on_c, 1, 53, 50
3, 60160, Note_off_c, 1, 58, 100
3, 60160, Note_off_c, 1, 53, 100
3, 60224, Note_off_c, 1, 57, 100
3, 60224, Note_off_c, 1, 53, 100
3, 60480, Note_on_c, 1, 41, 50
3, 60512, Note_off_c, 1, 41, 100
3, 60528, Note_on_c, 1, 53, 50
3, 60624, Note_off_c, 1, 53, 100
3, 60672, Note_on_c, 1, 40, 50
3, 60704, Note_off_c, 1, 40, 100
3, 60720, Note_on_c, 1, 52, 50
3, 60816, Note_off_c, 1, 52, 100
3, 60864, Note_on_c, 1, 38, 50
3, 60896, Note_off_c, 1, 38, 100
3, 60912, Note_on_c, 1, 50, 50
3, 61008, Note_off_c, 1, 50, 100
3, 61056, Note_on_c, 1, 48, 75
3, 61056, Note_on_c, 1, 36, 75
3, 61312, Note_off_c, 1, 48, 100
3, 61312, Note_off_c, 1, 36, 100
3, 63552, Note_on_c, 1, 55, 62
3, 63552, Note_on_c, 1, 59, 62
3, 63680, Note_off_c, 1, 55, 100
3, 63680, Note_off_c, 1, 59, 100
3, 63744, Note_on_c, 1, 55, 66
3, 63744, Note_on_c, 1, 59, 66
3, 63872, Note_off_c, 1, 55, 100
3, 63872, Note_off_c, 1, 59, 100
3, 63936, Note_on_c, 1, 55, 70
3, 63936, Note_on_c, 1, 59, 70
3, 64064, Note_off_c, 1, 55, 100
3, 64064, Note_off_c, 1, 59, 100
3, 64128, Note_on_c, 1, 55, 75
3, 64128, Note_on_c, 1, 59, 75
3, 64256, Note_off_c, 1, 55, 100
3, 64256, Note_off_c, 1, 59, 100
3, 64320, Note_on_c, 1, 55, 75
3, 64320, Note_on_c, 1, 59, 75
3, 64448, Note_off_c, 1, 55, 100
3, 64448, Note_off_c, 1, 59, 100
3, 64704, Note_on_c, 1, 60, 50
3, 64704, Note_on_c, 1, 48, 50
3, 64832, Note_off_c, 1, 60, 100
3, 64832, Note_off_c, 1, 48, 100
3, 64896, Note_on_c, 1, 60, 50
3, 64896, Note_on_c, 1, 48, 50
3, 65024, Note_off_c, 1, 60, 100
3, 65024, Note_off_c, 1, 48, 100
3, 65088, Note_on_c, 1, 60, 50
3, 65088, Note_on_c, 1, 48, 50
3, 65216, Note_off_c, 1, 60, 100
3, 65216, Note_off_c, 1, 48, 100
3, 65280, Note_on_c, 1, 40, 75
3, 65408, Note_off_c, 1, 40, 100
3, 65472, Note_on_c, 1, 52, 75
3, 65600, Note_off_c, 1, 52, 100
3, 65664, Note_on_c, 1, 41, 75
3, 65792, Note_off_c, 1, 41, 100
3, 65856, Note_on_c, 1, 53, 75
3, 65876, Note_off_c, 1, 53, 0
3, 65880, Note_on_c, 1, 55, 75
3, 65900, Note_off_c, 1, 55, 0
3, 65904, Note_on_c, 1, 53, 75
3, 65924, Note_off_c, 1, 53, 0
3, 65928, Note_on_c, 1, 55, 75
3, 65948, Note_off_c, 1, 55, 0
3, 65952, Note_on_c, 1, 52, 75
3, 65972, Note_off_c, 1, 52, 0
3, 65976, Note_on_c, 1, 53, 75
3, 65996, Note_off_c, 1, 53, 0
3, 66000, Note_on_c, 1, 52, 75
3, 66044, Note_off_c, 1, 52, 100
3, 66048, Note_on_c, 1, 53, 75
3, 66176, Note_off_c, 1, 53, 100
3, 66240, Note_on_c, 1, 54, 75
3, 66368, Note_off_c, 1, 54, 100
3, 66432, Note_on_c, 1, 55, 75
3, 66560, Note_off_c, 1, 55, 100
3, 66624, Note_on_c, 1, 43, 75
3, 66752, Note_off_c, 1, 43, 100
3, 66816, Note_on_c, 1, 45, 75
3, 66944, Note_off_c, 1, 45, 100
3, 67008, Note_on_c, 1, 57, 75
3, 67028, Note_off_c, 1, 57, 0
3, 67032, Note_on_c, 1, 58, 75
3, 67052, Note_off_c, 1, 58, 0
3, 67056, Note_on_c, 1, 57, 75
3, 67076, Note_off_c, 1, 57, 0
3, 67080, Note_on_c, 1, 58, 75
3, 67100, Note_off_c, 1, 58, 0
3, 67104, Note_on_c, 1, 55, 75
3, 67124, Note_off_c, 1, 55, 0
3, 67128, Note_on_c, 1, 57, 75
3, 67148, Note_off_c, 1, 57, 0
3, 67152, Note_on_c, 1, 56, 75
3, 67196, Note_off_c, 1, 56, 100
3, 67200, Note_on_c, 1, 57, 75
3, 67328, Note_off_c, 1, 57, 100
3, 67392, Note_on_c, 1, 45, 75
3, 67520, Note_off_c, 1, 45, 100
3, 67584, Note_on_c, 1, 40, 75
3, 67712, Note_off_c, 1, 40, 100
3, 67776, Note_on_c, 1, 52, 75
3, 67904, Note_off_c, 1, 52, 100
3, 67968, Note_on_c, 1, 53, 50
3, 67968, Note_on_c, 1, 57, 50
3, 68064, Note_on_c, 1, 61, 50
3, 68096, Note_off_c, 1, 53, 100
3, 68096, Note_off_c, 1, 57, 100
3, 68128, Note_off_c, 1, 61, 100
3, 68160, Note_on_c, 1, 53, 50
3, 68160, Note_on_c, 1, 62, 50
3, 68224, Note_off_c, 1, 62, 100
3, 68288, Note_off_c, 1, 53, 100
3, 68352, Note_on_c, 1, 55, 50
3, 68352, Note_on_c, 1, 64, 50
3, 68480, Note_off_c, 1, 55, 100
3, 68480, Note_off_c, 1, 64, 100
3, 68544, Note_on_c, 1, 55, 50
3, 68544, Note_on_c, 1, 64, 50
3, 68672, Note_off_c, 1, 55, 100
3, 68672, Note_off_c, 1, 64, 100
3, 68736, Note_on_c, 1, 55, 50
3, 68736, Note_on_c, 1, 65, 50
3, 68864, Note_off_c, 1, 55, 100
3, 68864, Note_off_c, 1, 65, 100
3, 68896, Note_on_c, 1, 65, 50
3, 68928, Note_on_c, 1, 55, 50
3, 69024, Note_off_c, 1, 65, 100
3, 69056, Note_off_c, 1, 55, 100
3, 69120, Note_on_c, 1, 64, 75
3, 69120, Note_on_c, 1, 60, 75
3, 69248, Note_off_c, 1, 64, 100
3, 69248, Note_off_c, 1, 60, 100
3, 69312, Note_on_c, 1, 48, 75
3, 69440, Note_off_c, 1, 48, 100
3, 69504, Note_on_c, 1, 60, 75
3, 69536, Note_off_c, 1, 60, 100
3, 69552, Note_on_c, 1, 62, 75
3, 69584, Note_off_c, 1, 62, 100
3, 69600, Note_on_c, 1, 60, 75
3, 69632, Note_off_c, 1, 60, 100
3, 69696, Note_on_c, 1, 58, 75
3, 69728, Note_off_c, 1, 58, 100
3, 69744, Note_on_c, 1, 60, 75
3, 69776, Note_off_c, 1, 60, 100
3, 69792, Note_on_c, 1, 58, 75
3, 69824, Note_off_c, 1, 58, 100
3, 69888, Note_on_c, 1, 57, 75
3, 69920, Note_off_c, 1, 57, 100
3, 69936, Note_on_c, 1, 58, 75
3, 69968, Note_off_c, 1, 58, 100
3, 69984, Note_on_c, 1, 57, 75
3, 70016, Note_off_c, 1, 57, 100
3, 70080, Note_on_c, 1, 55, 75
3, 70112, Note_off_c, 1, 55, 100
3, 70128, Note_on_c, 1, 57, 75
3, 70160, Note_off_c, 1, 57, 100
3, 70176, Note_on_c, 1, 55, 75
3, 70208, Note_off_c, 1, 55, 100
3, 70272, Note_on_c, 1, 54, 75
3, 70304, Note_off_c, 1, 54, 100
3, 70320, Note_on_c, 1, 55, 75
3, 70352, Note_off_c, 1, 55, 100
3, 70352, Note_on_c, 1, 54, 75
3, 70384, Note_off_c, 1, 54, 100
3, 70464, Note_on_c, 1, 50, 75
3, 70496, Note_off_c, 1, 50, 100
3, 70512, Note_on_c, 1, 52, 75
3, 70544, Note_off_c, 1, 52, 100
3, 70560, Note_on_c, 1, 50, 75
3, 70592, Note_off_c, 1, 50, 100
3, 70656, Note_on_c, 1, 58, 75
3, 70688, Note_off_c, 1, 58, 100
3, 70704, Note_on_c, 1, 60, 75
3, 70736, Note_off_c, 1, 60, 100
3, 70752, Note_on_c, 1, 58, 75
3, 70784, Note_off_c, 1, 58, 100
3, 70848, Note_on_c, 1, 57, 75
3, 70880, Note_off_c, 1, 57, 100
3, 70896, Note_on_c, 1, 58, 75
3, 70928, Note_off_c, 1, 58, 100
3, 70944, Note_on_c, 1, 57, 75
3, 70976, Note_off_c, 1, 57, 100
3, 71040, Note_on_c, 1, 55, 75
3, 71072, Note_off_c, 1, 55, 100
3, 71088, Note_on_c, 1, 57, 75
3, 71120, Note_off_c, 1, 57, 100
3, 71136, Note_on_c, 1, 55, 75
3, 71168, Note_off_c, 1, 55, 100
3, 71232, Note_on_c, 1, 53, 75
3, 71264, Note_off_c, 1, 53, 100
3, 71280, Note_on_c, 1, 55, 75
3, 71312, Note_off_c, 1, 55, 100
3, 71328, Note_on_c, 1, 53, 75
3, 71360, Note_off_c, 1, 53, 100
3, 71424, Note_on_c, 1, 52, 75
3, 71456, Note_off_c, 1, 52, 100
3, 71472, Note_on_c, 1, 53, 75
3, 71504, Note_off_c, 1, 53, 100
3, 71520, Note_on_c, 1, 52, 75
3, 71552, Note_off_c, 1, 52, 100
3, 71616, Note_on_c, 1, 48, 75
3, 71648, Note_off_c, 1, 48, 100
3, 71664, Note_on_c, 1, 50, 75
3, 71696, Note_off_c, 1, 50, 100
3, 71712, Note_on_c, 1, 48, 75
3, 71744, Note_off_c, 1, 48, 100
3, 71808, Note_on_c, 1, 57, 75
3, 71840, Note_off_c, 1, 57, 100
3, 71856, Note_on_c, 1, 58, 75
3, 71888, Note_off_c, 1, 58, 100
3, 71904, Note_on_c, 1, 57, 75
3, 71936, Note_off_c, 1, 57, 100
3, 72000, Note_on_c, 1, 55, 75
3, 72032, Note_off_c, 1, 55, 100
3, 72048, Note_on_c, 1, 57, 75
3, 72080, Note_off_c, 1, 57, 100
3, 72096, Note_on_c, 1, 55, 75
3, 72128, Note_off_c, 1, 55, 100
3, 72192, Note_on_c, 1, 53, 75
3, 72224, Note_off_c, 1, 53, 100
3, 72240, Note_on_c, 1, 55, 75
3, 72272, Note_off_c, 1, 55, 100
3, 72288, Note_on_c, 1, 53, 75
3, 72320, Note_off_c, 1, 53, 100
3, 72384, Note_on_c, 1, 52, 75
3, 72416, Note_off_c, 1, 52, 100
3, 72432, Note_on_c, 1, 53, 75
3, 72464, Note_off_c, 1, 53, 100
3, 72480, Note_on_c, 1, 52, 75
3, 72512, Note_off_c, 1, 52, 100
3, 72576, Note_on_c, 1, 50, 75
3, 72832, Note_off_c, 1, 50, 100
3, 72960, Note_on_c, 1, 52, 50
3, 73088, Note_off_c, 1, 52, 100
3, 73152, Note_on_c, 1, 48, 50
3, 73280, Note_off_c, 1, 48, 100
3, 73344, Note_on_c, 1, 50, 50
3, 73472, Note_off_c, 1, 50, 100
3, 73536, Note_on_c, 1, 46, 50
3, 73664, Note_off_c, 1, 46, 100
3, 73728, Note_on_c, 1, 48, 50
3, 73856, Note_off_c, 1, 48, 100
3, 73920, Note_on_c, 1, 60, 50
3, 74048, Note_off_c, 1, 60, 100
3, 74112, Note_on_c, 1, 58, 50
3, 74144, Note_off_c, 1, 58, 100
3, 74160, Note_on_c, 1, 62, 50
3, 74192, Note_off_c, 1, 62, 100
3, 74208, Note_on_c, 1, 48, 50
3, 74240, Note_off_c, 1, 48, 100
3, 74304, Note_on_c, 1, 57, 50
3, 74336, Note_off_c, 1, 57, 100
3, 74352, Note_on_c, 1, 58, 50
3, 74384, Note_off_c, 1, 58, 100
3, 74400, Note_on_c, 1, 46, 50
3, 74432, Note_off_c, 1, 46, 100
3, 74496, Note_on_c, 1, 55, 50
3, 74528, Note_off_c, 1, 55, 100
3, 74544, Note_on_c, 1, 57, 50
3, 74576, Note_off_c, 1, 57, 100
3, 74592, Note_on_c, 1, 45, 50
3, 74624, Note_off_c, 1, 45, 100
3, 74688, Note_on_c, 1, 53, 50
3, 74720, Note_off_c, 1, 53, 100
3, 74736, Note_on_c, 1, 55, 50
3, 74768, Note_off_c, 1, 55, 100
3, 74784, Note_on_c, 1, 43, 50
3, 74816, Note_off_c, 1, 43, 100
3, 74880, Note_on_c, 1, 41, 50
3, 75008, Note_off_c, 1, 41, 100
3, 75264, Note_on_c, 1, 53, 50
3, 75264, Note_on_c, 1, 57, 50
3, 75392, Note_off_c, 1, 57, 100
3, 75456, Note_on_c, 1, 57, 50
3, 75488, Note_off_c, 1, 57, 100
3, 75504, Note_on_c, 1, 60, 50
3, 75520, Note_off_c, 1, 53, 100
3, 75536, Note_off_c, 1, 60, 100
3, 75552, Note_on_c, 1, 57, 50
3, 75584, Note_off_c, 1, 57, 100
3, 75600, Note_on_c, 1, 60, 50
3, 75632, Note_off_c, 1, 60, 100
3, 75648, Note_on_c, 1, 53, 50
3, 75648, Note_on_c, 1, 57, 50
3, 75776, Note_off_c, 1, 53, 100
3, 75776, Note_off_c, 1, 57, 100
3, 76416, Note_on_c, 1, 57, 50
3, 76416, Note_on_c, 1, 60, 50
3, 76544, Note_off_c, 1, 60, 100
3, 76608, Note_on_c, 1, 60, 50
3, 76640, Note_off_c, 1, 60, 100
3, 76656, Note_on_c, 1, 65, 50
3, 76672, Note_off_c, 1, 57, 100
3, 76688, Note_off_c, 1, 65, 100
3, 76704, Note_on_c, 1, 60, 50
3, 76736, Note_off_c, 1, 60, 100
3, 76752, Note_on_c, 1, 65, 50
3, 76784, Note_off_c, 1, 65, 100
3, 76800, Note_on_c, 1, 57, 50
3, 76800, Note_on_c, 1, 60, 50
3, 76928, Note_off_c, 1, 57, 100
3, 76928, Note_off_c, 1, 60, 100
3, 77568, Note_on_c, 1, 57, 50
3, 77568, Note_on_c, 1, 60, 50
3, 77824, Note_off_c, 1, 57, 100
3, 77824, Note_off_c, 1, 60, 100
3, 77952, Note_on_c, 1, 57, 75
3, 77952, Note_on_c, 1, 60, 75
3, 78080, Note_off_c, 1, 60, 100
3, 78144, Note_on_c, 1, 62, 75
3, 78208, Note_off_c, 1, 57, 100
3, 78272, Note_off_c, 1, 62, 100
3, 78336, Note_on_c, 1, 55, 75
3, 78336, Note_on_c, 1, 62, 75
3, 78464, Note_off_c, 1, 55, 100
3, 78464, Note_off_c, 1, 62, 100
3, 78528, Note_on_c, 1, 60, 75
3, 78528, Note_on_c, 1, 64, 75
3, 78656, Note_off_c, 1, 60, 100
3, 78656, Note_off_c, 1, 64, 100
3, 78720, Note_on_c, 1, 53, 75
3, 78720, Note_on_c, 1, 65, 75
3, 78848, Note_off_c, 1, 53, 100
3, 78848, Note_off_c, 1, 65, 100
3, 79104, Note_on_c, 1, 45, 50
3, 79104, Note_on_c, 1, 57, 50
3, 79168, Note_off_c, 1, 45, 100
3, 79168, Note_off_c, 1, 57, 100
3, 79200, Note_on_c, 1, 46, 50
3, 79200, Note_on_c, 1, 58, 50
3, 79264, Note_off_c, 1, 46, 100
3, 79264, Note_off_c, 1, 58, 100
3, 79296, Note_on_c, 1, 47, 50
3, 79296, Note_on_c, 1, 59, 50
3, 79360, Note_off_c, 1, 47, 100
3, 79360, Note_off_c, 1, 59, 100
3, 79392, Note_on_c, 1, 48, 50
3, 79392, Note_on_c, 1, 60, 50
3, 79456, Note_off_c, 1, 48, 100
3, 79484, Note_off_c, 1, 60, 0
3, 79488, Note_on_c, 1, 53, 75
3, 79488, Note_on_c, 1, 41, 75
3, 79680, Note_off_c, 1, 53, 100
3, 79680, Note_off_c, 1, 41, 100
3, 79776, Note_on_c, 1, 55, 50
3, 79808, Note_off_c, 1, 55, 100
3, 79824, Note_on_c, 1, 53, 50
3, 79856, Note_off_c, 1, 53, 100
3, 79872, Note_on_c, 1, 52, 50
3, 79872, Note_on_c, 1, 40, 50
3, 80000, Note_off_c, 1, 52, 100
3, 80000, Note_off_c, 1, 40, 100
3, 80112, Note_on_c, 1, 52, 50
3, 80160, Note_on_c, 1, 64, 50
3, 80176, Note_off_c, 1, 52, 100
3, 80224, Note_off_c, 1, 64, 100
3, 80256, Note_on_c, 1, 67, 50
3, 80256, Note_on_c, 1, 55, 50
3, 80320, Note_off_c, 1, 67, 100
3, 80320, Note_off_c, 1, 55, 100
3, 80352, Note_on_c, 1, 65, 50
3, 80352, Note_on_c, 1, 53, 50
3, 80416, Note_off_c, 1, 65, 100
3, 80416, Note_off_c, 1, 53, 100
3, 80448, Note_on_c, 1, 64, 50
3, 80448, Note_on_c, 1, 52, 50
3, 80512, Note_off_c, 1, 64, 100
3, 80512, Note_off_c, 1, 52, 100
3, 80544, Note_on_c, 1, 62, 50
3, 80544, Note_on_c, 1, 50, 50
3, 80608, Note_off_c, 1, 62, 100
3, 80636, Note_off_c, 1, 50, 0
3, 80640, Note_on_c, 1, 60, 75
3, 80640, Note_on_c, 1, 48, 75
3, 80704, Note_off_c, 1, 60, 100
3, 80704, Note_off_c, 1, 48, 100
3, 80736, Note_on_c, 1, 59, 75
3, 80736, Note_on_c, 1, 47, 75
3, 80800, Note_off_c, 1, 59, 100
3, 80800, Note_off_c, 1, 47, 100
3, 80832, Note_on_c, 1, 58, 75
3, 80832, Note_on_c, 1, 46, 75
3, 80960, Note_off_c, 1, 58, 100
3, 80960, Note_off_c, 1, 46, 100
3, 81216, Note_on_c, 1, 57, 50
3, 81216, Note_on_c, 1, 45, 50
3, 81344, Note_off_c, 1, 57, 100
3, 81344, Note_off_c, 1, 45, 100
3, 81600, Note_on_c, 1, 56, 50
3, 81600, Note_on_c, 1, 47, 50
3, 81728, Note_off_c, 1, 56, 100
3, 81728, Note_off_c, 1, 47, 100
3, 81984, Note_on_c, 1, 48, 50
3, 81984, Note_on_c, 1, 57, 50
3, 82112, Note_off_c, 1, 48, 100
3, 82112, Note_off_c, 1, 57, 100
3, 82368, Note_on_c, 1, 57, 50
3, 82368, Note_on_c, 1, 48, 50
3, 82496, Note_off_c, 1, 57, 100
3, 82496, Note_off_c, 1, 48, 100
3, 82560, Note_on_c, 1, 58, 50
3, 82560, Note_on_c, 1, 48, 50
3, 82688, Note_off_c, 1, 58, 100
3, 82688, Note_off_c, 1, 48, 100
3, 82752, Note_on_c, 1, 58, 50
3, 82752, Note_on_c, 1, 48, 50
3, 82880, Note_off_c, 1, 58, 100
3, 82880, Note_off_c, 1, 48, 100
3, 82944, Note_on_c, 1, 58, 50
3, 82944, Note_on_c, 1, 53, 50
3, 83200, Note_off_c, 1, 58, 100
3, 83200, Note_off_c, 1, 53, 100
3, 83328, Note_on_c, 1, 57, 50
3, 83328, Note_on_c, 1, 53, 50
3, 83456, Note_off_c, 1, 57, 100
3, 83456, Note_off_c, 1, 53, 100
3, 84096, Note_on_c, 1, 36, 75
3, 84096, Note_on_c, 1, 48, 75
3, 84160, Note_off_c, 1, 36, 100
3, 84160, Note_off_c, 1, 48, 100
3, 84192, Note_on_c, 1, 38, 50
3, 84192, Note_on_c, 1, 50, 50
3, 84256, Note_off_c, 1, 38, 100
3, 84256, Note_off_c, 1, 50, 100
3, 84288, Note_on_c, 1, 52, 50
3, 84288, Note_on_c, 1, 40, 50
3, 84416, Note_off_c, 1, 52, 100
3, 84416, Note_off_c, 1, 40, 100
3, 85248, Note_on_c, 1, 48, 75
3, 85248, Note_on_c, 1, 36, 75
3, 85312, Note_off_c, 1, 48, 100
3, 85312, Note_off_c, 1, 36, 100
3, 85344, Note_on_c, 1, 50, 75
3, 85344, Note_on_c, 1, 38, 75
3, 85408, Note_off_c, 1, 50, 100
3, 85408, Note_off_c, 1, 38, 100
3, 85440, Note_on_c, 1, 52, 75
3, 85440, Note_on_c, 1, 40, 75
3, 85568, Note_off_c, 1, 52, 100
3, 85568, Note_off_c, 1, 40, 100
3, 85920, Note_on_c, 1, 58, 50
3, 85920, Note_on_c, 1, 52, 50
3, 85984, Note_off_c, 1, 58, 100
3, 85984, Note_off_c, 1, 52, 100
3, 86016, Note_on_c, 1, 57, 50
3, 86016, Note_on_c, 1, 53, 50
3, 86144, Note_off_c, 1, 57, 100
3, 86144, Note_off_c, 1, 53, 100
3, 86208, Note_on_c, 1, 58, 50
3, 86208, Note_on_c, 1, 55, 50
3, 86336, Note_off_c, 1, 58, 100
3, 86336, Note_off_c, 1, 55, 100
3, 86400, Note_on_c, 1, 60, 75
3, 86400, Note_on_c, 1, 57, 75
3, 86528, Note_off_c, 1, 60, 100
3, 86528, Note_off_c, 1, 57, 100
3, 86592, Note_on_c, 1, 55, 50
3, 86592, Note_on_c, 1, 46, 50
3, 86720, Note_off_c, 1, 55, 100
3, 86720, Note_off_c, 1, 46, 100
3, 86784, Note_on_c, 1, 57, 50
3, 86784, Note_on_c, 1, 48, 50
3, 86912, Note_off_c, 1, 57, 100
3, 86912, Note_off_c, 1, 48, 100
3, 87168, Note_on_c, 1, 58, 50
3, 87168, Note_on_c, 1, 48, 50
3, 87424, Note_off_c, 1, 58, 100
3, 87424, Note_off_c, 1, 48, 100
3, 87552, Note_on_c, 1, 57, 75
3, 87552, Note_on_c, 1, 53, 75
3, 87680, Note_off_c, 1, 57, 100
3, 87680, Note_off_c, 1, 53, 100
3, 88320, Note_on_c, 1, 58, 50
3, 88320, Note_on_c, 1, 48, 50
3, 88576, Note_off_c, 1, 58, 100
3, 88576, Note_off_c, 1, 48, 100
3, 88704, Note_on_c, 1, 57, 75
3, 88704, Note_on_c, 1, 53, 75
3, 88832, Note_off_c, 1, 57, 100
3, 88832, Note_off_c, 1, 53, 100
3, 89856, Note_on_c, 1, 57, 50
3, 89856, Note_on_c, 1, 53, 50
3, 89984, Note_off_c, 1, 57, 100
3, 89984, Note_off_c, 1, 53, 100
3, 90240, Note_on_c, 1, 60, 37
3, 90432, Note_on_c, 1, 45, 37
3, 90432, Note_on_c, 1, 33, 37
3, 90432, Note_on_c, 1, 57, 37
3, 90432, Note_on_c, 1, 53, 37
3, 90496, Note_off_c, 1, 60, 100
3, 90560, Note_off_c, 1, 45, 100
3, 90560, Note_off_c, 1, 33, 100
3, 90560, Note_off_c, 1, 57, 100
3, 90560, Note_off_c, 1, 53, 100
3, 90624, Note_on_c, 1, 55, 37
3, 90624, Note_on_c, 1, 52, 37
3, 90752, Note_off_c, 1, 55, 100
3, 90752, Note_off_c, 1, 52, 100
3, 90816, Note_on_c, 1, 48, 37
3, 90816, Note_on_c, 1, 36, 37
3, 90816, Note_on_c, 1, 58, 37
3, 90816, Note_on_c, 1, 55, 37
3, 90944, Note_off_c, 1, 48, 100
3, 90944, Note_off_c, 1, 36, 100
3, 90944, Note_off_c, 1, 58, 100
3, 90944, Note_off_c, 1, 55, 100
3, 91008, Note_on_c, 1, 58, 37
3, 91008, Note_on_c, 1, 55, 37
3, 91008, Note_on_c, 1, 52, 37
3, 91008, Note_on_c, 1, 48, 37
3, 91008, Note_on_c, 1, 41, 37
3, 91520, Note_off_c, 1, 58, 100
3, 91520, Note_off_c, 1, 55, 100
3, 91520, Note_off_c, 1, 52, 100
3, 91520, Note_off_c, 1, 48, 100
3, 91520, Note_off_c, 1, 41, 100
3, 91776, Note_on_c, 1, 57, 37
3, 91776, Note_on_c, 1, 48, 37
3, 91776, Note_on_c, 1, 41, 37
3, 91776, Note_on_c, 1, 53, 37
3, 91904, Note_off_c, 1, 57, 100
3, 91904, Note_off_c, 1, 48, 100
3, 91904, Note_off_c, 1, 41, 100
3, 91904, Note_off_c, 1, 53, 100
3, 91904, End_track
4, 0, Start_track
4, 0, Title_t, "Sonata # 10"
4, 0, Key_signature, -1, "minor"
4, 0, End_track
5, 0, Start_track
5, 0, Title_t, "by Bob"
5, 0, Key_signature, -1, "minor"
5, 0, End_track
6, 0, Start_track
6, 0, Title_t, "Fisher"
6, 0, Key_signature, -1, "minor"
6, 0, End_track
7, 0, Start_track
7, 0, Key_signature, -1, "minor"
7, 0, End_track
8, 0, Start_track
8, 0, Key_signature, -1, "minor"
8, 0, End_track
9, 0, Start_track
9, 0, Key_signature, -1, "minor"
9, 0, End_track
10, 0, Start_track
10, 0, Key_signature, -1, "minor"
10, 0, End_track
11, 0, Start_track
11, 0, Key_signature, -1, "minor"
11, 0, End_track
12, 0, Start_track
12, 0, Key_signature, -1, "minor"
12, 0, End_track
13, 0, Start_track
13, 0, Key_signature, -1, "minor"
13, 0, End_track
14, 0, Start_track
14, 0, Key_signature, -1, "minor"
14, 0, End_track
15, 0, Start_track
15, 0, Key_signature, -1, "minor"
15, 0, End_track
16, 0, Start_track
16, 0, Key_signature, -1, "minor"
16, 0, End_track
0, 0, End_of_file
