0, 0, Header, 1, 17, 384
1, 0, Start_track
1, 0, Time_signature, 4, 2, 96, 8
1, 0, Sequencer_specific, 3, 0, 0, 65
1, 0, Tempo, 441176
1, 0, End_track
2, 0, Start_track
2, 0, Title_t, "Mozart"
2, 0, Control_c, 0, 0, 0
2, 0, Program_c, 0, 0
2, 0, Control_c, 0, 7, 126
2, 0, Control_c, 0, 10, 84
2, 0, Control_c, 0, 91, 67
2, 0, Control_c, 0, 93, 35
2, 0, Key_signature, 0, "major"
2, 0, Control_c, 0, 121, 0
2, 384, Control_c, 0, 10, 73
2, 480, Control_c, 0, 91, 63
2, 576, Control_c, 0, 93, 40
2, 672, Program_c, 0, 0
2, 1536, Note_on_c, 0, 60, 72
2, 1584, Note_off_c, 0, 60, 0
2, 1584, Note_on_c, 0, 64, 72
2, 1632, Note_off_c, 0, 64, 0
2, 1632, Note_on_c, 0, 67, 72
2, 1680, Note_off_c, 0, 67, 0
2, 1680, Note_on_c, 0, 72, 72
2, 2284, Note_off_c, 0, 72, 0
2, 2304, Note_on_c, 0, 67, 72
2, 3068, Note_off_c, 0, 67, 100
2, 3072, Note_on_c, 0, 76, 72
2, 3648, Note_off_c, 0, 76, 100
2, 3648, Note_on_c, 0, 77, 72
2, 3740, Note_off_c, 0, 77, 100
2, 3744, Note_on_c, 0, 74, 72
2, 3836, Note_off_c, 0, 74, 100
2, 3840, Note_on_c, 0, 72, 72
2, 4220, Note_off_c, 0, 72, 100
2, 4608, Note_on_c, 0, 79, 51
2, 4608, Note_on_c, 0, 64, 51
2, 4752, Note_off_c, 0, 64, 100
2, 4800, Note_on_c, 0, 67, 51
2, 4944, Note_off_c, 0, 67, 100
2, 4988, Note_off_c, 0, 79, 100
2, 4992, Note_on_c, 0, 79, 51
2, 4992, Note_on_c, 0, 64, 51
2, 5136, Note_off_c, 0, 64, 100
2, 5184, Note_on_c, 0, 67, 51
2, 5328, Note_off_c, 0, 67, 100
2, 5372, Note_off_c, 0, 79, 100
2, 5376, Note_on_c, 0, 61, 51
2, 5520, Note_off_c, 0, 61, 100
2, 5568, Note_on_c, 0, 67, 51
2, 5712, Note_off_c, 0, 67, 100
2, 5760, Note_on_c, 0, 81, 51
2, 5760, Note_on_c, 0, 61, 51
2, 5904, Note_off_c, 0, 61, 100
2, 5952, Note_on_c, 0, 67, 51
2, 6096, Note_off_c, 0, 67, 100
2, 6140, Note_off_c, 0, 81, 100
2, 6144, Note_on_c, 0, 79, 51
2, 6192, Note_off_c, 0, 79, 100
2, 6192, Note_on_c, 0, 77, 51
2, 6192, Note_on_c, 0, 62, 51
2, 6336, Note_off_c, 0, 62, 100
2, 6336, Note_on_c, 0, 67, 51
2, 6480, Note_off_c, 0, 67, 100
2, 6524, Note_off_c, 0, 77, 100
2, 6528, Note_on_c, 0, 77, 51
2, 6528, Note_on_c, 0, 62, 51
2, 6672, Note_off_c, 0, 62, 100
2, 6720, Note_on_c, 0, 67, 51
2, 6864, Note_off_c, 0, 67, 100
2, 6908, Note_off_c, 0, 77, 100
2, 6912, Note_on_c, 0, 59, 51
2, 7056, Note_off_c, 0, 59, 100
2, 7104, Note_on_c, 0, 67, 51
2, 7248, Note_off_c, 0, 67, 100
2, 7296, Note_on_c, 0, 79, 51
2, 7296, Note_on_c, 0, 59, 51
2, 7440, Note_off_c, 0, 59, 100
2, 7488, Note_on_c, 0, 67, 51
2, 7632, Note_off_c, 0, 67, 100
2, 7676, Note_off_c, 0, 79, 100
2, 7680, Note_on_c, 0, 77, 51
2, 7728, Note_off_c, 0, 77, 100
2, 7728, Note_on_c, 0, 76, 51
2, 7728, Note_on_c, 0, 60, 51
2, 7872, Note_off_c, 0, 60, 100
2, 7872, Note_on_c, 0, 67, 51
2, 8016, Note_off_c, 0, 67, 100
2, 8060, Note_off_c, 0, 76, 100
2, 8064, Note_on_c, 0, 76, 51
2, 8064, Note_on_c, 0, 60, 51
2, 8208, Note_off_c, 0, 60, 100
2, 8256, Note_on_c, 0, 67, 51
2, 8400, Note_off_c, 0, 67, 100
2, 8444, Note_off_c, 0, 76, 100
2, 8448, Note_on_c, 0, 64, 51
2, 8592, Note_off_c, 0, 64, 100
2, 8640, Note_on_c, 0, 67, 51
2, 8784, Note_off_c, 0, 67, 100
2, 8832, Note_on_c, 0, 79, 51
2, 8832, Note_on_c, 0, 64, 51
2, 8976, Note_off_c, 0, 64, 100
2, 9024, Note_off_c, 0, 79, 100
2, 9024, Note_on_c, 0, 76, 51
2, 9024, Note_on_c, 0, 67, 51
2, 9168, Note_off_c, 0, 67, 100
2, 9216, Note_off_c, 0, 76, 100
2, 9216, Note_on_c, 0, 73, 51
2, 9216, Note_on_c, 0, 69, 51
2, 9216, Note_on_c, 0, 65, 51
2, 9360, Note_off_c, 0, 73, 100
2, 9408, Note_on_c, 0, 74, 51
2, 9552, Note_off_c, 0, 74, 100
2, 9600, Note_on_c, 0, 77, 51
2, 9744, Note_off_c, 0, 77, 100
2, 9792, Note_on_c, 0, 76, 51
2, 9936, Note_off_c, 0, 76, 100
2, 9984, Note_on_c, 0, 73, 51
2, 10128, Note_off_c, 0, 73, 100
2, 10176, Note_on_c, 0, 74, 51
2, 10320, Note_off_c, 0, 74, 100
2, 10368, Note_on_c, 0, 77, 51
2, 10512, Note_off_c, 0, 77, 100
2, 10560, Note_on_c, 0, 76, 51
2, 10704, Note_off_c, 0, 76, 100
2, 10748, Note_off_c, 0, 69, 100
2, 10748, Note_off_c, 0, 65, 100
2, 10752, Note_on_c, 0, 73, 51
2, 10896, Note_off_c, 0, 73, 100
2, 10944, Note_on_c, 0, 74, 51
2, 11088, Note_off_c, 0, 74, 100
2, 11136, Note_on_c, 0, 77, 51
2, 11280, Note_off_c, 0, 77, 100
2, 11328, Note_on_c, 0, 81, 51
2, 11472, Note_off_c, 0, 81, 100
2, 11520, Note_on_c, 0, 79, 51
2, 11664, Note_off_c, 0, 79, 100
2, 11712, Note_on_c, 0, 76, 51
2, 11856, Note_off_c, 0, 76, 100
2, 11904, Note_on_c, 0, 77, 51
2, 12048, Note_off_c, 0, 77, 100
2, 12096, Note_on_c, 0, 74, 51
2, 12240, Note_off_c, 0, 74, 100
2, 12288, Note_on_c, 0, 60, 72
2, 12336, Note_off_c, 0, 60, 0
2, 12336, Note_on_c, 0, 64, 72
2, 12384, Note_off_c, 0, 64, 0
2, 12384, Note_on_c, 0, 67, 72
2, 12432, Note_off_c, 0, 67, 0
2, 12432, Note_on_c, 0, 72, 72
2, 13036, Note_off_c, 0, 72, 0
2, 13056, Note_on_c, 0, 67, 72
2, 13820, Note_off_c, 0, 67, 100
2, 13824, Note_on_c, 0, 76, 72
2, 14396, Note_off_c, 0, 76, 100
2, 14400, Note_on_c, 0, 77, 72
2, 14492, Note_off_c, 0, 77, 100
2, 14496, Note_on_c, 0, 74, 72
2, 14588, Note_off_c, 0, 74, 100
2, 14592, Note_on_c, 0, 72, 72
2, 14972, Note_off_c, 0, 72, 100
2, 15360, Note_on_c, 0, 79, 51
2, 15360, Note_on_c, 0, 64, 51
2, 15504, Note_off_c, 0, 64, 100
2, 15552, Note_on_c, 0, 67, 51
2, 15696, Note_off_c, 0, 67, 100
2, 15740, Note_off_c, 0, 79, 100
2, 15744, Note_on_c, 0, 79, 51
2, 15744, Note_on_c, 0, 64, 51
2, 15888, Note_off_c, 0, 64, 100
2, 15936, Note_on_c, 0, 67, 51
2, 16080, Note_off_c, 0, 67, 100
2, 16124, Note_off_c, 0, 79, 100
2, 16128, Note_on_c, 0, 61, 51
2, 16272, Note_off_c, 0, 61, 100
2, 16320, Note_on_c, 0, 67, 51
2, 16464, Note_off_c, 0, 67, 100
2, 16512, Note_on_c, 0, 61, 51
2, 16512, Note_on_c, 0, 81, 51
2, 16656, Note_off_c, 0, 61, 100
2, 16704, Note_on_c, 0, 67, 51
2, 16848, Note_off_c, 0, 67, 100
2, 16892, Note_off_c, 0, 81, 100
2, 16896, Note_on_c, 0, 79, 51
2, 16944, Note_off_c, 0, 79, 100
2, 16944, Note_on_c, 0, 77, 51
2, 16944, Note_on_c, 0, 62, 51
2, 17088, Note_off_c, 0, 62, 100
2, 17088, Note_on_c, 0, 67, 51
2, 17232, Note_off_c, 0, 67, 100
2, 17276, Note_off_c, 0, 77, 100
2, 17280, Note_on_c, 0, 77, 51
2, 17280, Note_on_c, 0, 62, 51
2, 17424, Note_off_c, 0, 62, 100
2, 17472, Note_on_c, 0, 67, 51
2, 17616, Note_off_c, 0, 67, 100
2, 17660, Note_off_c, 0, 77, 100
2, 17664, Note_on_c, 0, 59, 51
2, 17808, Note_off_c, 0, 59, 100
2, 17856, Note_on_c, 0, 78, 51
2, 17856, Note_on_c, 0, 67, 51
2, 18000, Note_off_c, 0, 78, 100
2, 18000, Note_off_c, 0, 67, 100
2, 18048, Note_on_c, 0, 81, 51
2, 18048, Note_on_c, 0, 59, 51
2, 18192, Note_off_c, 0, 81, 100
2, 18192, Note_off_c, 0, 59, 100
2, 18240, Note_on_c, 0, 79, 51
2, 18240, Note_on_c, 0, 67, 51
2, 18384, Note_off_c, 0, 79, 100
2, 18384, Note_off_c, 0, 67, 100
2, 18432, Note_on_c, 0, 77, 51
2, 18476, Note_off_c, 0, 77, 100
2, 18480, Note_on_c, 0, 76, 51
2, 18480, Note_on_c, 0, 60, 51
2, 18624, Note_off_c, 0, 60, 100
2, 18624, Note_on_c, 0, 67, 51
2, 18768, Note_off_c, 0, 67, 100
2, 18812, Note_off_c, 0, 76, 100
2, 18816, Note_on_c, 0, 76, 51
2, 18816, Note_on_c, 0, 60, 51
2, 18960, Note_off_c, 0, 60, 100
2, 19008, Note_on_c, 0, 67, 51
2, 19152, Note_off_c, 0, 67, 100
2, 19196, Note_off_c, 0, 76, 100
2, 19200, Note_on_c, 0, 64, 51
2, 19344, Note_off_c, 0, 64, 100
2, 19392, Note_on_c, 0, 76, 51
2, 19392, Note_on_c, 0, 67, 51
2, 19536, Note_off_c, 0, 76, 100
2, 19536, Note_off_c, 0, 67, 100
2, 19584, Note_on_c, 0, 79, 51
2, 19584, Note_on_c, 0, 64, 51
2, 19728, Note_off_c, 0, 79, 100
2, 19728, Note_off_c, 0, 64, 100
2, 19776, Note_on_c, 0, 76, 51
2, 19776, Note_on_c, 0, 67, 51
2, 19920, Note_off_c, 0, 76, 100
2, 19920, Note_off_c, 0, 67, 100
2, 19968, Note_on_c, 0, 73, 72
2, 19968, Note_on_c, 0, 67, 51
2, 19968, Note_on_c, 0, 70, 51
2, 20496, Note_off_c, 0, 67, 100
2, 20496, Note_off_c, 0, 70, 100
2, 20540, Note_off_c, 0, 73, 100
2, 20544, Note_on_c, 0, 74, 51
2, 20636, Note_off_c, 0, 74, 100
2, 20640, Note_on_c, 0, 76, 51
2, 20732, Note_off_c, 0, 76, 100
2, 20736, Note_on_c, 0, 74, 51
2, 20736, Note_on_c, 0, 65, 51
2, 20736, Note_on_c, 0, 69, 51
2, 21116, Note_off_c, 0, 74, 100
2, 21116, Note_off_c, 0, 65, 100
2, 21116, Note_off_c, 0, 69, 100
2, 21312, Note_on_c, 0, 77, 51
2, 21456, Note_off_c, 0, 77, 100
2, 21504, Note_on_c, 0, 76, 72
2, 21504, Note_on_c, 0, 71, 51
2, 21504, Note_on_c, 0, 67, 51
2, 22032, Note_off_c, 0, 71, 100
2, 22032, Note_off_c, 0, 67, 100
2, 22076, Note_off_c, 0, 76, 100
2, 22080, Note_on_c, 0, 77, 51
2, 22172, Note_off_c, 0, 77, 100
2, 22176, Note_on_c, 0, 79, 51
2, 22268, Note_off_c, 0, 79, 100
2, 22272, Note_on_c, 0, 77, 51
2, 22272, Note_on_c, 0, 72, 51
2, 22272, Note_on_c, 0, 69, 51
2, 22652, Note_off_c, 0, 77, 100
2, 22652, Note_off_c, 0, 72, 100
2, 22652, Note_off_c, 0, 69, 100
2, 23040, Note_on_c, 0, 84, 72
2, 23040, Note_on_c, 0, 72, 72
2, 23184, Note_off_c, 0, 84, 100
2, 23184, Note_off_c, 0, 72, 100
2, 23232, Note_on_c, 0, 84, 72
2, 23232, Note_on_c, 0, 72, 72
2, 23376, Note_off_c, 0, 84, 100
2, 23376, Note_off_c, 0, 72, 100
2, 23424, Note_on_c, 0, 84, 72
2, 23424, Note_on_c, 0, 72, 72
2, 24188, Note_off_c, 0, 84, 100
2, 24188, Note_off_c, 0, 72, 100
2, 24192, Note_on_c, 0, 83, 51
2, 24380, Note_off_c, 0, 83, 100
2, 24384, Note_on_c, 0, 81, 51
2, 24572, Note_off_c, 0, 81, 100
2, 24576, Note_on_c, 0, 79, 72
2, 24576, Note_on_c, 0, 72, 72
2, 24720, Note_off_c, 0, 79, 100
2, 24720, Note_off_c, 0, 72, 100
2, 24768, Note_on_c, 0, 72, 72
2, 24768, Note_on_c, 0, 79, 72
2, 24912, Note_off_c, 0, 72, 100
2, 24912, Note_off_c, 0, 79, 100
2, 24960, Note_on_c, 0, 79, 72
2, 24960, Note_on_c, 0, 72, 72
2, 25488, Note_off_c, 0, 79, 100
2, 25488, Note_off_c, 0, 72, 100
2, 25728, Note_on_c, 0, 77, 51
2, 25872, Note_off_c, 0, 77, 100
2, 25920, Note_on_c, 0, 76, 51
2, 26064, Note_off_c, 0, 76, 100
2, 26112, Note_on_c, 0, 76, 51
2, 26204, Note_off_c, 0, 76, 100
2, 26208, Note_on_c, 0, 74, 51
2, 26300, Note_off_c, 0, 74, 97
2, 26304, Note_on_c, 0, 77, 51
2, 26396, Note_off_c, 0, 77, 100
2, 26400, Note_on_c, 0, 81, 51
2, 26492, Note_off_c, 0, 81, 100
2, 26496, Note_on_c, 0, 79, 51
2, 26540, Note_off_c, 0, 79, 100
2, 26544, Note_on_c, 0, 77, 51
2, 26684, Note_off_c, 0, 77, 100
2, 26688, Note_on_c, 0, 76, 51
2, 26780, Note_off_c, 0, 76, 100
2, 26784, Note_on_c, 0, 74, 51
2, 26876, Note_off_c, 0, 74, 100
2, 26880, Note_on_c, 0, 72, 51
2, 27260, Note_off_c, 0, 72, 100
2, 27264, Note_on_c, 0, 71, 51
2, 27308, Note_off_c, 0, 71, 0
2, 27312, Note_on_c, 0, 72, 51
2, 27356, Note_off_c, 0, 72, 0
2, 27360, Note_on_c, 0, 71, 51
2, 27404, Note_off_c, 0, 71, 0
2, 27408, Note_on_c, 0, 72, 51
2, 27452, Note_off_c, 0, 72, 0
2, 27456, Note_on_c, 0, 69, 51
2, 27548, Note_off_c, 0, 69, 0
2, 27552, Note_on_c, 0, 72, 51
2, 27644, Note_off_c, 0, 72, 0
2, 27648, Note_on_c, 0, 84, 72
2, 27648, Note_on_c, 0, 72, 72
2, 27792, Note_off_c, 0, 84, 100
2, 27792, Note_off_c, 0, 72, 100
2, 27840, Note_on_c, 0, 84, 72
2, 27840, Note_on_c, 0, 72, 72
2, 27984, Note_off_c, 0, 84, 100
2, 27984, Note_off_c, 0, 72, 100
2, 28032, Note_on_c, 0, 84, 72
2, 28032, Note_on_c, 0, 72, 72
2, 28604, Note_off_c, 0, 84, 100
2, 28604, Note_off_c, 0, 72, 100
2, 28608, Note_on_c, 0, 86, 51
2, 28700, Note_off_c, 0, 86, 100
2, 28704, Note_on_c, 0, 84, 51
2, 28796, Note_off_c, 0, 84, 100
2, 28800, Note_on_c, 0, 83, 51
2, 28944, Note_off_c, 0, 83, 100
2, 28992, Note_on_c, 0, 81, 51
2, 29136, Note_off_c, 0, 81, 100
2, 29184, Note_on_c, 0, 79, 72
2, 29184, Note_on_c, 0, 72, 72
2, 29328, Note_off_c, 0, 79, 100
2, 29328, Note_off_c, 0, 72, 100
2, 29376, Note_on_c, 0, 72, 72
2, 29376, Note_on_c, 0, 79, 72
2, 29520, Note_off_c, 0, 72, 100
2, 29520, Note_off_c, 0, 79, 100
2, 29568, Note_on_c, 0, 79, 72
2, 29568, Note_on_c, 0, 72, 72
2, 30140, Note_off_c, 0, 79, 100
2, 30140, Note_off_c, 0, 72, 100
2, 30144, Note_on_c, 0, 81, 51
2, 30236, Note_off_c, 0, 81, 100
2, 30240, Note_on_c, 0, 79, 51
2, 30332, Note_off_c, 0, 79, 100
2, 30336, Note_on_c, 0, 77, 51
2, 30480, Note_off_c, 0, 77, 100
2, 30528, Note_on_c, 0, 76, 51
2, 30672, Note_off_c, 0, 76, 100
2, 30720, Note_on_c, 0, 76, 51
2, 30812, Note_off_c, 0, 76, 100
2, 30816, Note_on_c, 0, 71, 51
2, 30908, Note_off_c, 0, 71, 100
2, 30912, Note_on_c, 0, 81, 51
2, 31004, Note_off_c, 0, 81, 100
2, 31008, Note_on_c, 0, 80, 51
2, 31100, Note_off_c, 0, 80, 100
2, 31104, Note_on_c, 0, 83, 51
2, 31148, Note_off_c, 0, 83, 100
2, 31152, Note_on_c, 0, 81, 51
2, 31292, Note_off_c, 0, 81, 100
2, 31296, Note_on_c, 0, 79, 51
2, 31388, Note_off_c, 0, 79, 100
2, 31392, Note_on_c, 0, 77, 51
2, 31484, Note_off_c, 0, 77, 100
2, 31488, Note_on_c, 0, 76, 51
2, 31868, Note_off_c, 0, 76, 100
2, 31872, Note_on_c, 0, 74, 51
2, 31916, Note_off_c, 0, 74, 0
2, 31920, Note_on_c, 0, 76, 51
2, 31952, Note_on_c, 0, 74, 51
2, 31964, Note_off_c, 0, 76, 0
2, 31996, Note_off_c, 0, 74, 0
2, 32016, Note_on_c, 0, 76, 51
2, 32060, Note_off_c, 0, 76, 0
2, 32064, Note_on_c, 0, 72, 51
2, 32156, Note_off_c, 0, 72, 0
2, 32160, Note_on_c, 0, 74, 51
2, 32252, Note_off_c, 0, 74, 0
2, 32256, Note_on_c, 0, 72, 72
2, 32636, Note_off_c, 0, 72, 100
2, 32784, Note_on_c, 0, 74, 51
2, 32832, Note_off_c, 0, 74, 100
2, 32832, Note_on_c, 0, 72, 51
2, 32924, Note_off_c, 0, 72, 100
2, 32928, Note_on_c, 0, 71, 51
2, 33020, Note_off_c, 0, 71, 100
2, 33024, Note_on_c, 0, 72, 51
2, 33168, Note_off_c, 0, 72, 100
2, 33216, Note_on_c, 0, 75, 51
2, 33360, Note_off_c, 0, 75, 100
2, 33408, Note_on_c, 0, 76, 51
2, 33552, Note_off_c, 0, 76, 100
2, 33600, Note_on_c, 0, 78, 51
2, 33744, Note_off_c, 0, 78, 100
2, 33792, Note_on_c, 0, 79, 51
2, 33936, Note_off_c, 0, 79, 100
2, 33984, Note_on_c, 0, 83, 51
2, 34128, Note_off_c, 0, 83, 100
2, 34176, Note_on_c, 0, 84, 51
2, 34320, Note_off_c, 0, 84, 100
2, 34368, Note_on_c, 0, 87, 51
2, 34512, Note_off_c, 0, 87, 100
2, 34560, Note_on_c, 0, 88, 51
2, 34940, Note_off_c, 0, 88, 100
2, 35328, Note_on_c, 0, 74, 72
2, 35344, Note_on_c, 0, 79, 72
2, 35364, Note_on_c, 0, 86, 72
2, 35708, Note_off_c, 0, 74, 100
2, 35724, Note_off_c, 0, 79, 100
2, 35744, Note_off_c, 0, 86, 100
2, 35856, Note_on_c, 0, 72, 51
2, 35904, Note_off_c, 0, 72, 0
2, 35904, Note_on_c, 0, 71, 51
2, 35996, Note_off_c, 0, 71, 100
2, 36000, Note_on_c, 0, 69, 51
2, 36092, Note_off_c, 0, 69, 100
2, 36096, Note_on_c, 0, 71, 51
2, 36240, Note_off_c, 0, 71, 100
2, 36288, Note_on_c, 0, 73, 51
2, 36432, Note_off_c, 0, 73, 100
2, 36480, Note_on_c, 0, 74, 51
2, 36624, Note_off_c, 0, 74, 100
2, 36672, Note_on_c, 0, 78, 51
2, 36816, Note_off_c, 0, 78, 100
2, 36864, Note_on_c, 0, 79, 51
2, 37008, Note_off_c, 0, 79, 100
2, 37056, Note_on_c, 0, 82, 51
2, 37200, Note_off_c, 0, 82, 100
2, 37248, Note_on_c, 0, 83, 51
2, 37392, Note_off_c, 0, 83, 100
2, 37440, Note_on_c, 0, 85, 51
2, 37584, Note_off_c, 0, 85, 100
2, 37632, Note_on_c, 0, 86, 51
2, 38012, Note_off_c, 0, 86, 100
2, 38400, Note_on_c, 0, 72, 72
2, 38416, Note_on_c, 0, 78, 72
2, 38436, Note_on_c, 0, 81, 72
2, 38456, Note_on_c, 0, 84, 72
2, 38780, Note_off_c, 0, 72, 100
2, 38796, Note_off_c, 0, 78, 100
2, 38816, Note_off_c, 0, 81, 100
2, 38836, Note_off_c, 0, 84, 100
2, 38928, Note_on_c, 0, 71, 51
2, 38976, Note_off_c, 0, 71, 100
2, 38976, Note_on_c, 0, 69, 51
2, 39068, Note_off_c, 0, 69, 100
2, 39072, Note_on_c, 0, 68, 56
2, 39164, Note_off_c, 0, 68, 100
2, 39168, Note_on_c, 0, 69, 62
2, 39312, Note_off_c, 0, 69, 100
2, 39360, Note_on_c, 0, 71, 63
2, 39504, Note_off_c, 0, 71, 100
2, 39552, Note_on_c, 0, 72, 65
2, 39696, Note_off_c, 0, 72, 100
2, 39744, Note_on_c, 0, 77, 66
2, 39888, Note_off_c, 0, 77, 100
2, 39936, Note_on_c, 0, 78, 67
2, 40080, Note_off_c, 0, 78, 100
2, 40128, Note_on_c, 0, 80, 68
2, 40272, Note_off_c, 0, 80, 100
2, 40320, Note_on_c, 0, 81, 70
2, 40464, Note_off_c, 0, 81, 100
2, 40512, Note_on_c, 0, 83, 71
2, 40656, Note_off_c, 0, 83, 100
2, 40704, Note_on_c, 0, 84, 72
2, 41084, Note_off_c, 0, 84, 100
2, 41472, Note_on_c, 0, 84, 75
2, 41516, Note_off_c, 0, 84, 100
2, 41520, Note_on_c, 0, 83, 51
2, 41660, Note_off_c, 0, 83, 100
2, 41664, Note_on_c, 0, 81, 51
2, 41756, Note_off_c, 0, 81, 100
2, 41760, Note_on_c, 0, 79, 51
2, 41852, Note_off_c, 0, 79, 100
2, 41856, Note_on_c, 0, 79, 51
2, 41900, Note_off_c, 0, 79, 100
2, 41904, Note_on_c, 0, 78, 51
2, 42044, Note_off_c, 0, 78, 100
2, 42048, Note_on_c, 0, 76, 51
2, 42140, Note_off_c, 0, 76, 100
2, 42144, Note_on_c, 0, 74, 51
2, 42236, Note_off_c, 0, 74, 100
2, 42240, Note_on_c, 0, 74, 51
2, 42272, Note_off_c, 0, 74, 0
2, 42288, Note_on_c, 0, 78, 51
2, 42320, Note_off_c, 0, 78, 0
2, 42336, Note_on_c, 0, 81, 51
2, 42368, Note_off_c, 0, 81, 0
2, 42384, Note_on_c, 0, 84, 75
2, 43008, Note_on_c, 0, 84, 68
2, 43028, Note_off_c, 0, 84, 0
2, 43052, Note_off_c, 0, 84, 100
2, 43056, Note_on_c, 0, 83, 51
2, 43196, Note_off_c, 0, 83, 100
2, 43200, Note_on_c, 0, 81, 51
2, 43292, Note_off_c, 0, 81, 100
2, 43296, Note_on_c, 0, 79, 51
2, 43388, Note_off_c, 0, 79, 100
2, 43392, Note_on_c, 0, 79, 51
2, 43436, Note_off_c, 0, 79, 100
2, 43440, Note_on_c, 0, 78, 51
2, 43580, Note_off_c, 0, 78, 100
2, 43584, Note_on_c, 0, 76, 51
2, 43676, Note_off_c, 0, 76, 100
2, 43680, Note_on_c, 0, 74, 51
2, 43772, Note_off_c, 0, 74, 100
2, 43776, Note_on_c, 0, 74, 51
2, 43808, Note_off_c, 0, 74, 0
2, 43824, Note_on_c, 0, 78, 51
2, 43856, Note_off_c, 0, 78, 0
2, 43872, Note_on_c, 0, 81, 51
2, 43904, Note_off_c, 0, 81, 0
2, 43920, Note_on_c, 0, 84, 75
2, 44544, Note_on_c, 0, 83, 72
2, 44564, Note_off_c, 0, 84, 0
2, 44636, Note_off_c, 0, 83, 100
2, 44640, Note_on_c, 0, 81, 72
2, 44732, Note_off_c, 0, 81, 100
2, 44736, Note_on_c, 0, 84, 72
2, 44828, Note_off_c, 0, 84, 100
2, 44832, Note_on_c, 0, 83, 72
2, 44924, Note_off_c, 0, 83, 100
2, 44928, Note_on_c, 0, 86, 72
2, 45072, Note_off_c, 0, 86, 100
2, 45072, Note_on_c, 0, 78, 72
2, 45216, Note_off_c, 0, 78, 100
2, 45312, Note_on_c, 0, 79, 72
2, 45404, Note_off_c, 0, 79, 100
2, 45408, Note_on_c, 0, 78, 72
2, 45500, Note_off_c, 0, 78, 100
2, 45504, Note_on_c, 0, 81, 72
2, 45596, Note_off_c, 0, 81, 100
2, 45600, Note_on_c, 0, 79, 72
2, 45692, Note_off_c, 0, 79, 100
2, 45696, Note_on_c, 0, 83, 72
2, 45840, Note_off_c, 0, 83, 100
2, 45888, Note_on_c, 0, 75, 72
2, 46032, Note_off_c, 0, 75, 100
2, 46080, Note_on_c, 0, 76, 72
2, 46172, Note_off_c, 0, 76, 100
2, 46176, Note_on_c, 0, 75, 72
2, 46268, Note_off_c, 0, 75, 100
2, 46272, Note_on_c, 0, 78, 72
2, 46364, Note_off_c, 0, 78, 100
2, 46368, Note_on_c, 0, 76, 72
2, 46460, Note_off_c, 0, 76, 100
2, 46464, Note_on_c, 0, 79, 72
2, 46608, Note_off_c, 0, 79, 100
2, 46656, Note_on_c, 0, 71, 72
2, 46800, Note_off_c, 0, 71, 100
2, 46848, Note_on_c, 0, 72, 72
2, 46940, Note_off_c, 0, 72, 100
2, 46944, Note_on_c, 0, 71, 72
2, 47036, Note_off_c, 0, 71, 100
2, 47040, Note_on_c, 0, 74, 72
2, 47132, Note_off_c, 0, 74, 100
2, 47136, Note_on_c, 0, 72, 72
2, 47228, Note_off_c, 0, 72, 100
2, 47232, Note_on_c, 0, 76, 72
2, 47376, Note_off_c, 0, 76, 100
2, 47424, Note_on_c, 0, 68, 72
2, 47568, Note_off_c, 0, 68, 100
2, 47616, Note_on_c, 0, 69, 72
2, 47900, Note_off_c, 0, 69, 100
2, 47904, Note_on_c, 0, 71, 72
2, 47996, Note_off_c, 0, 71, 100
2, 48000, Note_on_c, 0, 72, 72
2, 48284, Note_off_c, 0, 72, 100
2, 48288, Note_on_c, 0, 71, 72
2, 48380, Note_off_c, 0, 71, 100
2, 48384, Note_on_c, 0, 69, 72
2, 48668, Note_off_c, 0, 69, 100
2, 48672, Note_on_c, 0, 67, 72
2, 48764, Note_off_c, 0, 67, 100
2, 48768, Note_on_c, 0, 66, 72
2, 49052, Note_off_c, 0, 66, 100
2, 49056, Note_on_c, 0, 64, 72
2, 49148, Note_off_c, 0, 64, 100
2, 49152, Note_on_c, 0, 62, 72
2, 49340, Note_off_c, 0, 62, 100
2, 49344, Note_on_c, 0, 66, 72
2, 49436, Note_off_c, 0, 66, 100
2, 49440, Note_on_c, 0, 69, 72
2, 49532, Note_off_c, 0, 69, 100
2, 49536, Note_on_c, 0, 74, 72
2, 49680, Note_off_c, 0, 74, 100
2, 49728, Note_on_c, 0, 74, 72
2, 49872, Note_off_c, 0, 74, 100
2, 49920, Note_on_c, 0, 74, 72
2, 50300, Note_off_c, 0, 74, 100
2, 53760, Note_on_c, 0, 83, 51
2, 53904, Note_off_c, 0, 83, 100
2, 53904, Note_on_c, 0, 84, 51
2, 54048, Note_off_c, 0, 84, 100
2, 54144, Note_on_c, 0, 86, 51
2, 54288, Note_off_c, 0, 86, 100
2, 54336, Note_on_c, 0, 83, 51
2, 54480, Note_off_c, 0, 83, 100
2, 54528, Note_on_c, 0, 79, 51
2, 55292, Note_off_c, 0, 79, 100
2, 55296, Note_on_c, 0, 81, 51
2, 55440, Note_off_c, 0, 81, 100
2, 55488, Note_on_c, 0, 83, 51
2, 55632, Note_off_c, 0, 83, 100
2, 55680, Note_on_c, 0, 84, 51
2, 55824, Note_off_c, 0, 84, 100
2, 55872, Note_on_c, 0, 81, 51
2, 56016, Note_off_c, 0, 81, 100
2, 56064, Note_on_c, 0, 78, 51
2, 56828, Note_off_c, 0, 78, 100
2, 56832, Note_on_c, 0, 79, 51
2, 56924, Note_off_c, 0, 79, 100
2, 56928, Note_on_c, 0, 78, 51
2, 57116, Note_off_c, 0, 78, 100
2, 57216, Note_on_c, 0, 76, 51
2, 57308, Note_off_c, 0, 76, 100
2, 57312, Note_on_c, 0, 74, 51
2, 57500, Note_off_c, 0, 74, 100
2, 57600, Note_on_c, 0, 71, 51
2, 57692, Note_off_c, 0, 71, 100
2, 57696, Note_on_c, 0, 72, 51
2, 57884, Note_off_c, 0, 72, 100
2, 58368, Note_on_c, 0, 72, 51
2, 58460, Note_off_c, 0, 72, 100
2, 58464, Note_on_c, 0, 71, 51
2, 58652, Note_off_c, 0, 71, 100
2, 58752, Note_on_c, 0, 69, 51
2, 58844, Note_off_c, 0, 69, 100
2, 58848, Note_on_c, 0, 67, 51
2, 59036, Note_off_c, 0, 67, 100
2, 59136, Note_on_c, 0, 71, 51
2, 59228, Note_off_c, 0, 71, 100
2, 59232, Note_on_c, 0, 69, 51
2, 59420, Note_off_c, 0, 69, 100
2, 59904, Note_on_c, 0, 83, 51
2, 60048, Note_off_c, 0, 83, 100
2, 60096, Note_on_c, 0, 84, 51
2, 60240, Note_off_c, 0, 84, 100
2, 60288, Note_on_c, 0, 86, 51
2, 60432, Note_off_c, 0, 86, 100
2, 60480, Note_on_c, 0, 83, 51
2, 60624, Note_off_c, 0, 83, 100
2, 60672, Note_on_c, 0, 79, 51
2, 61200, Note_off_c, 0, 79, 100
2, 61440, Note_on_c, 0, 81, 51
2, 61584, Note_off_c, 0, 81, 100
2, 61632, Note_on_c, 0, 83, 51
2, 61776, Note_off_c, 0, 83, 100
2, 61824, Note_on_c, 0, 84, 51
2, 61968, Note_off_c, 0, 84, 100
2, 62016, Note_on_c, 0, 81, 51
2, 62160, Note_off_c, 0, 81, 100
2, 62208, Note_on_c, 0, 78, 51
2, 62736, Note_off_c, 0, 78, 100
2, 62976, Note_on_c, 0, 79, 51
2, 63068, Note_off_c, 0, 79, 100
2, 63072, Note_on_c, 0, 78, 51
2, 63260, Note_off_c, 0, 78, 100
2, 63360, Note_on_c, 0, 76, 51
2, 63452, Note_off_c, 0, 76, 100
2, 63456, Note_on_c, 0, 74, 51
2, 63644, Note_off_c, 0, 74, 100
2, 63744, Note_on_c, 0, 71, 51
2, 63836, Note_off_c, 0, 71, 100
2, 63840, Note_on_c, 0, 72, 51
2, 64028, Note_off_c, 0, 72, 100
2, 64512, Note_on_c, 0, 72, 51
2, 64604, Note_off_c, 0, 72, 100
2, 64608, Note_on_c, 0, 71, 51
2, 64796, Note_off_c, 0, 71, 100
2, 64896, Note_on_c, 0, 69, 51
2, 64988, Note_off_c, 0, 69, 100
2, 64992, Note_on_c, 0, 67, 51
2, 65180, Note_off_c, 0, 67, 100
2, 65280, Note_on_c, 0, 76, 51
2, 65372, Note_off_c, 0, 76, 100
2, 65376, Note_on_c, 0, 74, 51
2, 65564, Note_off_c, 0, 74, 100
2, 66048, Note_on_c, 0, 86, 72
2, 66048, Note_on_c, 0, 74, 72
2, 66812, Note_off_c, 0, 86, 100
2, 66812, Note_off_c, 0, 74, 100
2, 66816, Note_on_c, 0, 84, 72
2, 66960, Note_off_c, 0, 84, 100
2, 67008, Note_on_c, 0, 83, 72
2, 67152, Note_off_c, 0, 83, 100
2, 67200, Note_on_c, 0, 81, 72
2, 67344, Note_off_c, 0, 81, 100
2, 67392, Note_on_c, 0, 79, 72
2, 67536, Note_off_c, 0, 79, 100
2, 67584, Note_on_c, 0, 88, 72
2, 67584, Note_on_c, 0, 76, 72
2, 68348, Note_off_c, 0, 88, 100
2, 68348, Note_off_c, 0, 76, 100
2, 68352, Note_on_c, 0, 86, 72
2, 68496, Note_off_c, 0, 86, 100
2, 68544, Note_on_c, 0, 84, 72
2, 68688, Note_off_c, 0, 84, 100
2, 68736, Note_on_c, 0, 83, 72
2, 68880, Note_off_c, 0, 83, 100
2, 68928, Note_on_c, 0, 81, 72
2, 69072, Note_off_c, 0, 81, 100
2, 69120, Note_on_c, 0, 83, 51
2, 69212, Note_off_c, 0, 83, 100
2, 69216, Note_on_c, 0, 84, 51
2, 69308, Note_off_c, 0, 84, 100
2, 69312, Note_on_c, 0, 86, 51
2, 69404, Note_off_c, 0, 86, 100
2, 69408, Note_on_c, 0, 83, 51
2, 69500, Note_off_c, 0, 83, 100
2, 69504, Note_on_c, 0, 79, 51
2, 69692, Note_off_c, 0, 79, 100
2, 69888, Note_on_c, 0, 81, 51
2, 69980, Note_off_c, 0, 81, 100
2, 69984, Note_on_c, 0, 83, 51
2, 70076, Note_off_c, 0, 83, 100
2, 70080, Note_on_c, 0, 84, 51
2, 70172, Note_off_c, 0, 84, 100
2, 70176, Note_on_c, 0, 81, 51
2, 70268, Note_off_c, 0, 81, 100
2, 70272, Note_on_c, 0, 78, 51
2, 70460, Note_off_c, 0, 78, 100
2, 70656, Note_on_c, 0, 86, 72
2, 70656, Note_on_c, 0, 74, 72
2, 71420, Note_off_c, 0, 86, 100
2, 71420, Note_off_c, 0, 74, 100
2, 71424, Note_on_c, 0, 84, 72
2, 71516, Note_off_c, 0, 84, 100
2, 71520, Note_on_c, 0, 86, 72
2, 71612, Note_off_c, 0, 86, 100
2, 71616, Note_on_c, 0, 84, 72
2, 71708, Note_off_c, 0, 84, 100
2, 71712, Note_on_c, 0, 83, 72
2, 71804, Note_off_c, 0, 83, 100
2, 71808, Note_on_c, 0, 81, 72
2, 71900, Note_off_c, 0, 81, 100
2, 71904, Note_on_c, 0, 83, 72
2, 71996, Note_off_c, 0, 83, 100
2, 72000, Note_on_c, 0, 81, 72
2, 72092, Note_off_c, 0, 81, 100
2, 72096, Note_on_c, 0, 79, 72
2, 72188, Note_off_c, 0, 79, 100
2, 72192, Note_on_c, 0, 88, 72
2, 72192, Note_on_c, 0, 76, 72
2, 72956, Note_off_c, 0, 88, 100
2, 72956, Note_off_c, 0, 76, 100
2, 72960, Note_on_c, 0, 86, 72
2, 73052, Note_off_c, 0, 86, 100
2, 73056, Note_on_c, 0, 88, 72
2, 73148, Note_off_c, 0, 88, 100
2, 73152, Note_on_c, 0, 86, 72
2, 73244, Note_off_c, 0, 86, 100
2, 73248, Note_on_c, 0, 84, 72
2, 73340, Note_off_c, 0, 84, 100
2, 73344, Note_on_c, 0, 83, 72
2, 73436, Note_off_c, 0, 83, 100
2, 73440, Note_on_c, 0, 84, 72
2, 73532, Note_off_c, 0, 84, 100
2, 73536, Note_on_c, 0, 83, 72
2, 73628, Note_off_c, 0, 83, 100
2, 73632, Note_on_c, 0, 81, 72
2, 73724, Note_off_c, 0, 81, 100
2, 73728, Note_on_c, 0, 83, 51
2, 73728, Note_on_c, 0, 62, 51
2, 73872, Note_off_c, 0, 83, 100
2, 73872, Note_off_c, 0, 62, 100
2, 73920, Note_on_c, 0, 79, 51
2, 73920, Note_on_c, 0, 67, 51
2, 74064, Note_off_c, 0, 79, 100
2, 74064, Note_off_c, 0, 67, 100
2, 74112, Note_on_c, 0, 64, 51
2, 74112, Note_on_c, 0, 84, 77
2, 74256, Note_off_c, 0, 64, 100
2, 74304, Note_on_c, 0, 67, 51
2, 74448, Note_off_c, 0, 67, 100
2, 74492, Note_off_c, 0, 84, 100
2, 74496, Note_on_c, 0, 83, 51
2, 74496, Note_on_c, 0, 62, 51
2, 74640, Note_off_c, 0, 83, 100
2, 74640, Note_off_c, 0, 62, 100
2, 74688, Note_on_c, 0, 79, 51
2, 74688, Note_on_c, 0, 67, 51
2, 74832, Note_off_c, 0, 79, 100
2, 74832, Note_off_c, 0, 67, 100
2, 74880, Note_on_c, 0, 88, 77
2, 74880, Note_on_c, 0, 60, 51
2, 75024, Note_off_c, 0, 60, 100
2, 75072, Note_on_c, 0, 67, 51
2, 75216, Note_off_c, 0, 67, 100
2, 75260, Note_off_c, 0, 88, 100
2, 75264, Note_on_c, 0, 86, 51
2, 75264, Note_on_c, 0, 59, 51
2, 75408, Note_off_c, 0, 86, 100
2, 75408, Note_off_c, 0, 59, 100
2, 75456, Note_on_c, 0, 79, 51
2, 75456, Note_on_c, 0, 67, 51
2, 75600, Note_off_c, 0, 79, 100
2, 75600, Note_off_c, 0, 67, 100
2, 75648, Note_on_c, 0, 84, 77
2, 75648, Note_on_c, 0, 64, 51
2, 75792, Note_off_c, 0, 64, 100
2, 75840, Note_on_c, 0, 67, 51
2, 75984, Note_off_c, 0, 67, 100
2, 76028, Note_off_c, 0, 84, 100
2, 76032, Note_on_c, 0, 83, 51
2, 76032, Note_on_c, 0, 62, 51
2, 76176, Note_off_c, 0, 83, 100
2, 76176, Note_off_c, 0, 62, 100
2, 76224, Note_on_c, 0, 79, 51
2, 76224, Note_on_c, 0, 67, 51
2, 76368, Note_off_c, 0, 79, 100
2, 76368, Note_off_c, 0, 67, 100
2, 76416, Note_on_c, 0, 88, 77
2, 76416, Note_on_c, 0, 60, 51
2, 76560, Note_off_c, 0, 60, 100
2, 76608, Note_on_c, 0, 67, 51
2, 76752, Note_off_c, 0, 67, 100
2, 76796, Note_off_c, 0, 88, 100
2, 76800, Note_on_c, 0, 89, 72
2, 76800, Note_on_c, 0, 77, 72
2, 76800, Note_on_c, 0, 68, 66
2, 76800, Note_on_c, 0, 62, 66
2, 76800, Note_on_c, 0, 59, 66
2, 76944, Note_off_c, 0, 68, 100
2, 76944, Note_off_c, 0, 62, 100
2, 76944, Note_off_c, 0, 59, 100
2, 76992, Note_on_c, 0, 68, 66
2, 76992, Note_on_c, 0, 62, 66
2, 76992, Note_on_c, 0, 59, 66
2, 77136, Note_off_c, 0, 68, 100
2, 77136, Note_off_c, 0, 62, 100
2, 77136, Note_off_c, 0, 59, 100
2, 77184, Note_on_c, 0, 68, 66
2, 77184, Note_on_c, 0, 62, 66
2, 77184, Note_on_c, 0, 59, 66
2, 77328, Note_off_c, 0, 68, 100
2, 77328, Note_off_c, 0, 62, 100
2, 77328, Note_off_c, 0, 59, 100
2, 77376, Note_on_c, 0, 68, 66
2, 77376, Note_on_c, 0, 62, 66
2, 77376, Note_on_c, 0, 59, 66
2, 77520, Note_off_c, 0, 68, 100
2, 77520, Note_off_c, 0, 62, 100
2, 77520, Note_off_c, 0, 59, 100
2, 77564, Note_off_c, 0, 89, 100
2, 77564, Note_off_c, 0, 77, 100
2, 77568, Note_on_c, 0, 89, 72
2, 77568, Note_on_c, 0, 77, 72
2, 77568, Note_on_c, 0, 68, 66
2, 77568, Note_on_c, 0, 62, 66
2, 77568, Note_on_c, 0, 59, 66
2, 77712, Note_off_c, 0, 68, 100
2, 77712, Note_off_c, 0, 62, 100
2, 77712, Note_off_c, 0, 59, 100
2, 77760, Note_on_c, 0, 68, 66
2, 77760, Note_on_c, 0, 62, 66
2, 77760, Note_on_c, 0, 59, 66
2, 77904, Note_off_c, 0, 68, 100
2, 77904, Note_off_c, 0, 62, 100
2, 77904, Note_off_c, 0, 59, 100
2, 77948, Note_off_c, 0, 89, 100
2, 77948, Note_off_c, 0, 77, 100
2, 77952, Note_on_c, 0, 89, 72
2, 77952, Note_on_c, 0, 77, 72
2, 77952, Note_on_c, 0, 68, 66
2, 77952, Note_on_c, 0, 62, 66
2, 77952, Note_on_c, 0, 59, 66
2, 78096, Note_off_c, 0, 68, 100
2, 78096, Note_off_c, 0, 62, 100
2, 78096, Note_off_c, 0, 59, 100
2, 78144, Note_on_c, 0, 68, 66
2, 78144, Note_on_c, 0, 62, 66
2, 78144, Note_on_c, 0, 59, 66
2, 78288, Note_off_c, 0, 68, 100
2, 78288, Note_off_c, 0, 62, 100
2, 78288, Note_off_c, 0, 59, 100
2, 78332, Note_off_c, 0, 89, 100
2, 78332, Note_off_c, 0, 77, 100
2, 78336, Note_on_c, 0, 88, 72
2, 78336, Note_on_c, 0, 76, 72
2, 78336, Note_on_c, 0, 68, 66
2, 78336, Note_on_c, 0, 62, 66
2, 78336, Note_on_c, 0, 59, 66
2, 78480, Note_off_c, 0, 88, 100
2, 78480, Note_off_c, 0, 76, 100
2, 78480, Note_off_c, 0, 68, 100
2, 78480, Note_off_c, 0, 62, 100
2, 78480, Note_off_c, 0, 59, 100
2, 78528, Note_on_c, 0, 86, 72
2, 78672, Note_off_c, 0, 86, 100
2, 78720, Note_on_c, 0, 84, 72
2, 78768, Note_off_c, 0, 84, 0
2, 78768, Note_on_c, 0, 86, 72
2, 78816, Note_off_c, 0, 86, 0
2, 78816, Note_on_c, 0, 84, 72
2, 78864, Note_off_c, 0, 84, 0
2, 78864, Note_on_c, 0, 86, 72
2, 78912, Note_off_c, 0, 86, 0
2, 78912, Note_on_c, 0, 83, 66
2, 79100, Note_off_c, 0, 83, 100
2, 79104, Note_on_c, 0, 81, 72
2, 79152, Note_off_c, 0, 81, 0
2, 79152, Note_on_c, 0, 83, 72
2, 79200, Note_off_c, 0, 83, 0
2, 79200, Note_on_c, 0, 81, 72
2, 79248, Note_off_c, 0, 81, 0
2, 79248, Note_on_c, 0, 83, 72
2, 79296, Note_off_c, 0, 83, 0
2, 79296, Note_on_c, 0, 79, 66
2, 79484, Note_off_c, 0, 79, 100
2, 79488, Note_on_c, 0, 78, 72
2, 79536, Note_off_c, 0, 78, 0
2, 79536, Note_on_c, 0, 79, 72
2, 79584, Note_off_c, 0, 79, 0
2, 79584, Note_on_c, 0, 78, 72
2, 79632, Note_off_c, 0, 78, 0
2, 79632, Note_on_c, 0, 79, 72
2, 79680, Note_off_c, 0, 79, 0
2, 79680, Note_on_c, 0, 76, 66
2, 79868, Note_off_c, 0, 76, 100
2, 79872, Note_on_c, 0, 74, 72
2, 80016, Note_off_c, 0, 74, 100
2, 80064, Note_on_c, 0, 76, 72
2, 80156, Note_off_c, 0, 76, 100
2, 80160, Note_on_c, 0, 78, 72
2, 80252, Note_off_c, 0, 78, 100
2, 80256, Note_on_c, 0, 79, 72
2, 80348, Note_off_c, 0, 79, 100
2, 80352, Note_on_c, 0, 81, 72
2, 80444, Note_off_c, 0, 81, 100
2, 80448, Note_on_c, 0, 83, 72
2, 80540, Note_off_c, 0, 83, 100
2, 80544, Note_on_c, 0, 84, 72
2, 80636, Note_off_c, 0, 84, 100
2, 80640, Note_on_c, 0, 86, 72
2, 80732, Note_off_c, 0, 86, 100
2, 80736, Note_on_c, 0, 84, 72
2, 80828, Note_off_c, 0, 84, 100
2, 80832, Note_on_c, 0, 83, 72
2, 80924, Note_off_c, 0, 83, 100
2, 80928, Note_on_c, 0, 84, 72
2, 81020, Note_off_c, 0, 84, 100
2, 81024, Note_on_c, 0, 86, 72
2, 81116, Note_off_c, 0, 86, 100
2, 81120, Note_on_c, 0, 83, 72
2, 81212, Note_off_c, 0, 83, 100
2, 81216, Note_on_c, 0, 81, 72
2, 81308, Note_off_c, 0, 81, 100
2, 81312, Note_on_c, 0, 79, 72
2, 81404, Note_off_c, 0, 79, 100
2, 81408, Note_on_c, 0, 81, 66
2, 81452, Note_off_c, 0, 81, 100
2, 81456, Note_on_c, 0, 83, 66
2, 81500, Note_off_c, 0, 83, 100
2, 81504, Note_on_c, 0, 81, 66
2, 81548, Note_off_c, 0, 81, 100
2, 81552, Note_on_c, 0, 83, 66
2, 81596, Note_off_c, 0, 83, 100
2, 81600, Note_on_c, 0, 81, 66
2, 81644, Note_off_c, 0, 81, 100
2, 81648, Note_on_c, 0, 83, 66
2, 81692, Note_off_c, 0, 83, 100
2, 81696, Note_on_c, 0, 81, 66
2, 81740, Note_off_c, 0, 81, 100
2, 81744, Note_on_c, 0, 83, 66
2, 81788, Note_off_c, 0, 83, 100
2, 81792, Note_on_c, 0, 81, 66
2, 81836, Note_off_c, 0, 81, 100
2, 81840, Note_on_c, 0, 83, 66
2, 81884, Note_off_c, 0, 83, 100
2, 81888, Note_on_c, 0, 81, 66
2, 81932, Note_off_c, 0, 81, 100
2, 81936, Note_on_c, 0, 83, 66
2, 81980, Note_off_c, 0, 83, 100
2, 81984, Note_on_c, 0, 81, 66
2, 82028, Note_off_c, 0, 81, 100
2, 82032, Note_on_c, 0, 83, 66
2, 82076, Note_off_c, 0, 83, 100
2, 82080, Note_on_c, 0, 81, 66
2, 82124, Note_off_c, 0, 81, 100
2, 82128, Note_on_c, 0, 83, 66
2, 82172, Note_off_c, 0, 83, 100
2, 82176, Note_on_c, 0, 81, 66
2, 82220, Note_off_c, 0, 81, 100
2, 82224, Note_on_c, 0, 83, 66
2, 82268, Note_off_c, 0, 83, 100
2, 82272, Note_on_c, 0, 81, 66
2, 82316, Note_off_c, 0, 81, 100
2, 82320, Note_on_c, 0, 83, 66
2, 82364, Note_off_c, 0, 83, 100
2, 82368, Note_on_c, 0, 81, 66
2, 82412, Note_off_c, 0, 81, 100
2, 82416, Note_on_c, 0, 83, 66
2, 82460, Note_off_c, 0, 83, 100
2, 82464, Note_on_c, 0, 81, 66
2, 82508, Note_off_c, 0, 81, 100
2, 82512, Note_on_c, 0, 83, 66
2, 82556, Note_off_c, 0, 83, 100
2, 82560, Note_on_c, 0, 81, 66
2, 82604, Note_off_c, 0, 81, 100
2, 82608, Note_on_c, 0, 83, 66
2, 82652, Note_off_c, 0, 83, 100
2, 82656, Note_on_c, 0, 81, 66
2, 82700, Note_off_c, 0, 81, 100
2, 82704, Note_on_c, 0, 83, 66
2, 82748, Note_off_c, 0, 83, 100
2, 82752, Note_on_c, 0, 79, 66
2, 82844, Note_off_c, 0, 79, 0
2, 82848, Note_on_c, 0, 81, 66
2, 82940, Note_off_c, 0, 81, 0
2, 82944, Note_on_c, 0, 79, 66
2, 83324, Note_off_c, 0, 79, 100
2, 83328, Note_on_c, 0, 67, 51
2, 83472, Note_on_c, 0, 71, 51
2, 83616, Note_off_c, 0, 71, 100
2, 83708, Note_off_c, 0, 67, 100
2, 83712, Note_on_c, 0, 74, 51
2, 83712, Note_on_c, 0, 69, 51
2, 83856, Note_off_c, 0, 74, 100
2, 83904, Note_on_c, 0, 72, 51
2, 84048, Note_off_c, 0, 72, 100
2, 84092, Note_off_c, 0, 69, 100
2, 84096, Note_on_c, 0, 66, 51
2, 84288, Note_on_c, 0, 69, 51
2, 84432, Note_off_c, 0, 69, 100
2, 84476, Note_off_c, 0, 66, 100
2, 84480, Note_on_c, 0, 72, 51
2, 84480, Note_on_c, 0, 67, 51
2, 84624, Note_off_c, 0, 72, 100
2, 84672, Note_on_c, 0, 71, 51
2, 84816, Note_off_c, 0, 71, 100
2, 84860, Note_off_c, 0, 67, 100
2, 84864, Note_on_c, 0, 64, 51
2, 85056, Note_on_c, 0, 67, 51
2, 85200, Note_off_c, 0, 67, 100
2, 85244, Note_off_c, 0, 64, 100
2, 85248, Note_on_c, 0, 71, 51
2, 85248, Note_on_c, 0, 60, 51
2, 85392, Note_off_c, 0, 71, 100
2, 85440, Note_on_c, 0, 69, 51
2, 85584, Note_off_c, 0, 69, 100
2, 85628, Note_off_c, 0, 60, 100
2, 85632, Note_on_c, 0, 62, 51
2, 85824, Note_on_c, 0, 66, 51
2, 85968, Note_off_c, 0, 66, 100
2, 86012, Note_off_c, 0, 62, 100
2, 86016, Note_on_c, 0, 69, 51
2, 86016, Note_on_c, 0, 59, 51
2, 86160, Note_off_c, 0, 69, 100
2, 86208, Note_on_c, 0, 67, 51
2, 86352, Note_off_c, 0, 67, 100
2, 86396, Note_off_c, 0, 59, 100
2, 86400, Note_on_c, 0, 71, 72
2, 86492, Note_off_c, 0, 71, 100
2, 86496, Note_on_c, 0, 72, 72
2, 86588, Note_off_c, 0, 72, 100
2, 86592, Note_on_c, 0, 74, 72
2, 86684, Note_off_c, 0, 74, 100
2, 86688, Note_on_c, 0, 71, 72
2, 86780, Note_off_c, 0, 71, 100
2, 86784, Note_on_c, 0, 72, 72
2, 86876, Note_off_c, 0, 72, 100
2, 86880, Note_on_c, 0, 74, 72
2, 86972, Note_off_c, 0, 74, 100
2, 86976, Note_on_c, 0, 76, 72
2, 87068, Note_off_c, 0, 76, 100
2, 87072, Note_on_c, 0, 72, 72
2, 87164, Note_off_c, 0, 72, 100
2, 87168, Note_on_c, 0, 81, 72
2, 87260, Note_off_c, 0, 81, 100
2, 87264, Note_on_c, 0, 83, 72
2, 87356, Note_off_c, 0, 83, 100
2, 87360, Note_on_c, 0, 84, 72
2, 87452, Note_off_c, 0, 84, 100
2, 87456, Note_on_c, 0, 81, 72
2, 87548, Note_off_c, 0, 81, 100
2, 87552, Note_on_c, 0, 83, 72
2, 87644, Note_off_c, 0, 83, 100
2, 87648, Note_on_c, 0, 84, 72
2, 87740, Note_off_c, 0, 84, 100
2, 87744, Note_on_c, 0, 86, 72
2, 87836, Note_off_c, 0, 86, 100
2, 87840, Note_on_c, 0, 83, 72
2, 87932, Note_off_c, 0, 83, 100
2, 87936, Note_on_c, 0, 67, 72
2, 88028, Note_off_c, 0, 67, 100
2, 88032, Note_on_c, 0, 69, 72
2, 88124, Note_off_c, 0, 69, 100
2, 88128, Note_on_c, 0, 71, 72
2, 88220, Note_off_c, 0, 71, 100
2, 88224, Note_on_c, 0, 67, 72
2, 88316, Note_off_c, 0, 67, 100
2, 88320, Note_on_c, 0, 69, 72
2, 88412, Note_off_c, 0, 69, 100
2, 88416, Note_on_c, 0, 71, 72
2, 88508, Note_off_c, 0, 71, 100
2, 88512, Note_on_c, 0, 72, 72
2, 88604, Note_off_c, 0, 72, 100
2, 88608, Note_on_c, 0, 69, 72
2, 88700, Note_off_c, 0, 69, 100
2, 88704, Note_on_c, 0, 78, 72
2, 88796, Note_off_c, 0, 78, 100
2, 88800, Note_on_c, 0, 79, 72
2, 88892, Note_off_c, 0, 79, 100
2, 88896, Note_on_c, 0, 81, 72
2, 88988, Note_off_c, 0, 81, 100
2, 88992, Note_on_c, 0, 78, 72
2, 89084, Note_off_c, 0, 78, 100
2, 89088, Note_on_c, 0, 79, 77
2, 89468, Note_off_c, 0, 79, 100
2, 89472, Note_on_c, 0, 74, 77
2, 89488, Note_on_c, 0, 79, 77
2, 89508, Note_on_c, 0, 83, 77
2, 89852, Note_off_c, 0, 74, 100
2, 89856, Note_on_c, 0, 71, 77
2, 89868, Note_off_c, 0, 79, 100
2, 89872, Note_on_c, 0, 74, 77
2, 89888, Note_off_c, 0, 83, 100
2, 89892, Note_on_c, 0, 79, 77
2, 90236, Note_off_c, 0, 71, 100
2, 90252, Note_off_c, 0, 74, 100
2, 90272, Note_off_c, 0, 79, 100
2, 90624, Note_on_c, 0, 60, 72
2, 90672, Note_off_c, 0, 60, 0
2, 90672, Note_on_c, 0, 64, 72
2, 90720, Note_off_c, 0, 64, 0
2, 90720, Note_on_c, 0, 67, 72
2, 90768, Note_off_c, 0, 67, 0
2, 90768, Note_on_c, 0, 72, 72
2, 91372, Note_off_c, 0, 72, 0
2, 91392, Note_on_c, 0, 67, 72
2, 92156, Note_off_c, 0, 67, 100
2, 92160, Note_on_c, 0, 76, 72
2, 92736, Note_off_c, 0, 76, 100
2, 92736, Note_on_c, 0, 77, 72
2, 92828, Note_off_c, 0, 77, 100
2, 92832, Note_on_c, 0, 74, 72
2, 92924, Note_off_c, 0, 74, 100
2, 92928, Note_on_c, 0, 72, 72
2, 93308, Note_off_c, 0, 72, 100
2, 93696, Note_on_c, 0, 79, 51
2, 93696, Note_on_c, 0, 64, 51
2, 93840, Note_off_c, 0, 64, 100
2, 93888, Note_on_c, 0, 67, 51
2, 94032, Note_off_c, 0, 67, 100
2, 94076, Note_off_c, 0, 79, 100
2, 94080, Note_on_c, 0, 79, 51
2, 94080, Note_on_c, 0, 64, 51
2, 94224, Note_off_c, 0, 64, 100
2, 94272, Note_on_c, 0, 67, 51
2, 94416, Note_off_c, 0, 67, 100
2, 94460, Note_off_c, 0, 79, 100
2, 94464, Note_on_c, 0, 61, 51
2, 94608, Note_off_c, 0, 61, 100
2, 94656, Note_on_c, 0, 67, 51
2, 94800, Note_off_c, 0, 67, 100
2, 94848, Note_on_c, 0, 81, 51
2, 94848, Note_on_c, 0, 61, 51
2, 94992, Note_off_c, 0, 61, 100
2, 95040, Note_on_c, 0, 67, 51
2, 95184, Note_off_c, 0, 67, 100
2, 95228, Note_off_c, 0, 81, 100
2, 95232, Note_on_c, 0, 79, 51
2, 95280, Note_off_c, 0, 79, 100
2, 95280, Note_on_c, 0, 77, 51
2, 95280, Note_on_c, 0, 62, 51
2, 95424, Note_off_c, 0, 62, 100
2, 95424, Note_on_c, 0, 67, 51
2, 95568, Note_off_c, 0, 67, 100
2, 95612, Note_off_c, 0, 77, 100
2, 95616, Note_on_c, 0, 77, 51
2, 95616, Note_on_c, 0, 62, 51
2, 95760, Note_off_c, 0, 62, 100
2, 95808, Note_on_c, 0, 67, 51
2, 95952, Note_off_c, 0, 67, 100
2, 95996, Note_off_c, 0, 77, 100
2, 96000, Note_on_c, 0, 59, 51
2, 96144, Note_off_c, 0, 59, 100
2, 96192, Note_on_c, 0, 67, 51
2, 96336, Note_off_c, 0, 67, 100
2, 96384, Note_on_c, 0, 79, 51
2, 96384, Note_on_c, 0, 59, 51
2, 96528, Note_off_c, 0, 59, 100
2, 96576, Note_on_c, 0, 67, 51
2, 96720, Note_off_c, 0, 67, 100
2, 96764, Note_off_c, 0, 79, 100
2, 96768, Note_on_c, 0, 77, 51
2, 96816, Note_off_c, 0, 77, 100
2, 96816, Note_on_c, 0, 76, 51
2, 96816, Note_on_c, 0, 60, 51
2, 96960, Note_off_c, 0, 60, 100
2, 96960, Note_on_c, 0, 67, 51
2, 97104, Note_off_c, 0, 67, 100
2, 97148, Note_off_c, 0, 76, 100
2, 97152, Note_on_c, 0, 76, 51
2, 97152, Note_on_c, 0, 60, 51
2, 97296, Note_off_c, 0, 60, 100
2, 97344, Note_on_c, 0, 67, 51
2, 97488, Note_off_c, 0, 67, 100
2, 97532, Note_off_c, 0, 76, 100
2, 97536, Note_on_c, 0, 64, 51
2, 97680, Note_off_c, 0, 64, 100
2, 97728, Note_on_c, 0, 67, 51
2, 97872, Note_off_c, 0, 67, 100
2, 97920, Note_on_c, 0, 79, 51
2, 97920, Note_on_c, 0, 64, 51
2, 98064, Note_off_c, 0, 64, 100
2, 98112, Note_off_c, 0, 79, 100
2, 98112, Note_on_c, 0, 76, 51
2, 98112, Note_on_c, 0, 67, 51
2, 98256, Note_off_c, 0, 67, 100
2, 98304, Note_off_c, 0, 76, 100
2, 98304, Note_on_c, 0, 73, 51
2, 98304, Note_on_c, 0, 69, 51
2, 98304, Note_on_c, 0, 65, 51
2, 98448, Note_off_c, 0, 73, 100
2, 98496, Note_on_c, 0, 74, 51
2, 98640, Note_off_c, 0, 74, 100
2, 98688, Note_on_c, 0, 77, 51
2, 98832, Note_off_c, 0, 77, 100
2, 98880, Note_on_c, 0, 76, 51
2, 99024, Note_off_c, 0, 76, 100
2, 99072, Note_on_c, 0, 73, 51
2, 99216, Note_off_c, 0, 73, 100
2, 99264, Note_on_c, 0, 74, 51
2, 99408, Note_off_c, 0, 74, 100
2, 99456, Note_on_c, 0, 77, 51
2, 99600, Note_off_c, 0, 77, 100
2, 99648, Note_on_c, 0, 76, 51
2, 99792, Note_off_c, 0, 76, 100
2, 99836, Note_off_c, 0, 69, 100
2, 99836, Note_off_c, 0, 65, 100
2, 99840, Note_on_c, 0, 73, 51
2, 99984, Note_off_c, 0, 73, 100
2, 100032, Note_on_c, 0, 74, 51
2, 100176, Note_off_c, 0, 74, 100
2, 100224, Note_on_c, 0, 77, 51
2, 100368, Note_off_c, 0, 77, 100
2, 100416, Note_on_c, 0, 81, 51
2, 100560, Note_off_c, 0, 81, 100
2, 100608, Note_on_c, 0, 79, 51
2, 100752, Note_off_c, 0, 79, 100
2, 100800, Note_on_c, 0, 76, 51
2, 100944, Note_off_c, 0, 76, 100
2, 100992, Note_on_c, 0, 77, 51
2, 101136, Note_off_c, 0, 77, 100
2, 101184, Note_on_c, 0, 74, 51
2, 101328, Note_off_c, 0, 74, 100
2, 101376, Note_on_c, 0, 60, 72
2, 101424, Note_off_c, 0, 60, 0
2, 101424, Note_on_c, 0, 64, 72
2, 101472, Note_off_c, 0, 64, 0
2, 101472, Note_on_c, 0, 67, 72
2, 101520, Note_off_c, 0, 67, 0
2, 101520, Note_on_c, 0, 72, 72
2, 102124, Note_off_c, 0, 72, 0
2, 102144, Note_on_c, 0, 67, 72
2, 102908, Note_off_c, 0, 67, 100
2, 102912, Note_on_c, 0, 76, 72
2, 103484, Note_off_c, 0, 76, 100
2, 103488, Note_on_c, 0, 77, 72
2, 103580, Note_off_c, 0, 77, 100
2, 103584, Note_on_c, 0, 74, 72
2, 103676, Note_off_c, 0, 74, 100
2, 103680, Note_on_c, 0, 72, 72
2, 104060, Note_off_c, 0, 72, 100
2, 104448, Note_on_c, 0, 79, 51
2, 104448, Note_on_c, 0, 64, 51
2, 104592, Note_off_c, 0, 64, 100
2, 104640, Note_on_c, 0, 67, 51
2, 104784, Note_off_c, 0, 67, 100
2, 104828, Note_off_c, 0, 79, 100
2, 104832, Note_on_c, 0, 79, 51
2, 104832, Note_on_c, 0, 64, 51
2, 104976, Note_off_c, 0, 64, 100
2, 105024, Note_on_c, 0, 67, 51
2, 105168, Note_off_c, 0, 67, 100
2, 105212, Note_off_c, 0, 79, 100
2, 105216, Note_on_c, 0, 61, 51
2, 105360, Note_off_c, 0, 61, 100
2, 105408, Note_on_c, 0, 67, 51
2, 105552, Note_off_c, 0, 67, 100
2, 105600, Note_on_c, 0, 61, 51
2, 105600, Note_on_c, 0, 81, 51
2, 105744, Note_off_c, 0, 61, 100
2, 105792, Note_on_c, 0, 67, 51
2, 105936, Note_off_c, 0, 67, 100
2, 105980, Note_off_c, 0, 81, 100
2, 105984, Note_on_c, 0, 79, 51
2, 106032, Note_off_c, 0, 79, 100
2, 106032, Note_on_c, 0, 77, 51
2, 106032, Note_on_c, 0, 62, 51
2, 106176, Note_off_c, 0, 62, 100
2, 106176, Note_on_c, 0, 67, 51
2, 106320, Note_off_c, 0, 67, 100
2, 106364, Note_off_c, 0, 77, 100
2, 106368, Note_on_c, 0, 77, 51
2, 106368, Note_on_c, 0, 62, 51
2, 106512, Note_off_c, 0, 62, 100
2, 106560, Note_on_c, 0, 67, 51
2, 106704, Note_off_c, 0, 67, 100
2, 106748, Note_off_c, 0, 77, 100
2, 106752, Note_on_c, 0, 59, 51
2, 106896, Note_off_c, 0, 59, 100
2, 106944, Note_on_c, 0, 78, 51
2, 106944, Note_on_c, 0, 67, 51
2, 107088, Note_off_c, 0, 78, 100
2, 107088, Note_off_c, 0, 67, 100
2, 107136, Note_on_c, 0, 81, 51
2, 107136, Note_on_c, 0, 59, 51
2, 107280, Note_off_c, 0, 81, 100
2, 107280, Note_off_c, 0, 59, 100
2, 107328, Note_on_c, 0, 79, 51
2, 107328, Note_on_c, 0, 67, 51
2, 107472, Note_off_c, 0, 79, 100
2, 107472, Note_off_c, 0, 67, 100
2, 107520, Note_on_c, 0, 77, 51
2, 107564, Note_off_c, 0, 77, 100
2, 107568, Note_on_c, 0, 76, 51
2, 107568, Note_on_c, 0, 60, 51
2, 107712, Note_off_c, 0, 60, 100
2, 107712, Note_on_c, 0, 67, 51
2, 107856, Note_off_c, 0, 67, 100
2, 107900, Note_off_c, 0, 76, 100
2, 107904, Note_on_c, 0, 76, 51
2, 107904, Note_on_c, 0, 60, 51
2, 108048, Note_off_c, 0, 60, 100
2, 108096, Note_on_c, 0, 67, 51
2, 108240, Note_off_c, 0, 67, 100
2, 108284, Note_off_c, 0, 76, 100
2, 108288, Note_on_c, 0, 64, 51
2, 108432, Note_off_c, 0, 64, 100
2, 108480, Note_on_c, 0, 76, 51
2, 108480, Note_on_c, 0, 67, 51
2, 108624, Note_off_c, 0, 76, 100
2, 108624, Note_off_c, 0, 67, 100
2, 108672, Note_on_c, 0, 79, 51
2, 108672, Note_on_c, 0, 64, 51
2, 108816, Note_off_c, 0, 79, 100
2, 108816, Note_off_c, 0, 64, 100
2, 108864, Note_on_c, 0, 76, 51
2, 108864, Note_on_c, 0, 67, 51
2, 109008, Note_off_c, 0, 76, 100
2, 109008, Note_off_c, 0, 67, 100
2, 109056, Note_on_c, 0, 73, 72
2, 109056, Note_on_c, 0, 67, 51
2, 109056, Note_on_c, 0, 70, 51
2, 109584, Note_off_c, 0, 67, 100
2, 109584, Note_off_c, 0, 70, 100
2, 109628, Note_off_c, 0, 73, 100
2, 109632, Note_on_c, 0, 74, 51
2, 109724, Note_off_c, 0, 74, 100
2, 109728, Note_on_c, 0, 76, 51
2, 109820, Note_off_c, 0, 76, 100
2, 109824, Note_on_c, 0, 74, 51
2, 109824, Note_on_c, 0, 65, 51
2, 109824, Note_on_c, 0, 69, 51
2, 110204, Note_off_c, 0, 74, 100
2, 110204, Note_off_c, 0, 65, 100
2, 110204, Note_off_c, 0, 69, 100
2, 110400, Note_on_c, 0, 77, 51
2, 110544, Note_off_c, 0, 77, 100
2, 110592, Note_on_c, 0, 76, 72
2, 110592, Note_on_c, 0, 71, 51
2, 110592, Note_on_c, 0, 67, 51
2, 111120, Note_off_c, 0, 71, 100
2, 111120, Note_off_c, 0, 67, 100
2, 111164, Note_off_c, 0, 76, 100
2, 111168, Note_on_c, 0, 77, 51
2, 111260, Note_off_c, 0, 77, 100
2, 111264, Note_on_c, 0, 79, 51
2, 111356, Note_off_c, 0, 79, 100
2, 111360, Note_on_c, 0, 77, 51
2, 111360, Note_on_c, 0, 72, 51
2, 111360, Note_on_c, 0, 69, 51
2, 111740, Note_off_c, 0, 77, 100
2, 111740, Note_off_c, 0, 72, 100
2, 111740, Note_off_c, 0, 69, 100
2, 112128, Note_on_c, 0, 84, 72
2, 112128, Note_on_c, 0, 72, 72
2, 112272, Note_off_c, 0, 84, 100
2, 112272, Note_off_c, 0, 72, 100
2, 112320, Note_on_c, 0, 84, 72
2, 112320, Note_on_c, 0, 72, 72
2, 112464, Note_off_c, 0, 84, 100
2, 112464, Note_off_c, 0, 72, 100
2, 112512, Note_on_c, 0, 84, 72
2, 112512, Note_on_c, 0, 72, 72
2, 113276, Note_off_c, 0, 84, 100
2, 113276, Note_off_c, 0, 72, 100
2, 113280, Note_on_c, 0, 83, 51
2, 113468, Note_off_c, 0, 83, 100
2, 113472, Note_on_c, 0, 81, 51
2, 113660, Note_off_c, 0, 81, 100
2, 113664, Note_on_c, 0, 79, 72
2, 113664, Note_on_c, 0, 72, 72
2, 113808, Note_off_c, 0, 79, 100
2, 113808, Note_off_c, 0, 72, 100
2, 113856, Note_on_c, 0, 72, 72
2, 113856, Note_on_c, 0, 79, 72
2, 114000, Note_off_c, 0, 72, 100
2, 114000, Note_off_c, 0, 79, 100
2, 114048, Note_on_c, 0, 79, 72
2, 114048, Note_on_c, 0, 72, 72
2, 114576, Note_off_c, 0, 79, 100
2, 114576, Note_off_c, 0, 72, 100
2, 114816, Note_on_c, 0, 77, 51
2, 114960, Note_off_c, 0, 77, 100
2, 115008, Note_on_c, 0, 76, 51
2, 115152, Note_off_c, 0, 76, 100
2, 115200, Note_on_c, 0, 76, 51
2, 115292, Note_off_c, 0, 76, 100
2, 115296, Note_on_c, 0, 74, 51
2, 115388, Note_off_c, 0, 74, 100
2, 115392, Note_on_c, 0, 77, 51
2, 115484, Note_off_c, 0, 77, 100
2, 115488, Note_on_c, 0, 81, 51
2, 115580, Note_off_c, 0, 81, 100
2, 115584, Note_on_c, 0, 79, 51
2, 115628, Note_off_c, 0, 79, 100
2, 115632, Note_on_c, 0, 77, 51
2, 115772, Note_off_c, 0, 77, 100
2, 115776, Note_on_c, 0, 76, 51
2, 115868, Note_off_c, 0, 76, 100
2, 115872, Note_on_c, 0, 74, 51
2, 115964, Note_off_c, 0, 74, 100
2, 115968, Note_on_c, 0, 72, 51
2, 116348, Note_off_c, 0, 72, 100
2, 116352, Note_on_c, 0, 71, 51
2, 116396, Note_off_c, 0, 71, 0
2, 116400, Note_on_c, 0, 72, 51
2, 116444, Note_off_c, 0, 72, 0
2, 116448, Note_on_c, 0, 71, 51
2, 116492, Note_off_c, 0, 71, 0
2, 116496, Note_on_c, 0, 72, 51
2, 116540, Note_off_c, 0, 72, 0
2, 116544, Note_on_c, 0, 69, 51
2, 116636, Note_off_c, 0, 69, 0
2, 116640, Note_on_c, 0, 71, 51
2, 116732, Note_off_c, 0, 71, 0
2, 116736, Note_on_c, 0, 84, 72
2, 116736, Note_on_c, 0, 72, 72
2, 116880, Note_off_c, 0, 84, 100
2, 116880, Note_off_c, 0, 72, 100
2, 116928, Note_on_c, 0, 84, 72
2, 116928, Note_on_c, 0, 72, 72
2, 117072, Note_off_c, 0, 84, 100
2, 117072, Note_off_c, 0, 72, 100
2, 117120, Note_on_c, 0, 84, 72
2, 117120, Note_on_c, 0, 72, 72
2, 117692, Note_off_c, 0, 84, 100
2, 117692, Note_off_c, 0, 72, 100
2, 117696, Note_on_c, 0, 86, 51
2, 117788, Note_off_c, 0, 86, 100
2, 117792, Note_on_c, 0, 84, 51
2, 117884, Note_off_c, 0, 84, 100
2, 117888, Note_on_c, 0, 83, 51
2, 118032, Note_off_c, 0, 83, 100
2, 118080, Note_on_c, 0, 81, 51
2, 118224, Note_off_c, 0, 81, 100
2, 118272, Note_on_c, 0, 79, 72
2, 118272, Note_on_c, 0, 72, 72
2, 118416, Note_off_c, 0, 79, 100
2, 118416, Note_off_c, 0, 72, 100
2, 118464, Note_on_c, 0, 72, 72
2, 118464, Note_on_c, 0, 79, 72
2, 118608, Note_off_c, 0, 72, 100
2, 118608, Note_off_c, 0, 79, 100
2, 118656, Note_on_c, 0, 79, 72
2, 118656, Note_on_c, 0, 72, 72
2, 119228, Note_off_c, 0, 79, 100
2, 119228, Note_off_c, 0, 72, 100
2, 119232, Note_on_c, 0, 81, 51
2, 119324, Note_off_c, 0, 81, 100
2, 119328, Note_on_c, 0, 79, 51
2, 119420, Note_off_c, 0, 79, 100
2, 119424, Note_on_c, 0, 77, 51
2, 119568, Note_off_c, 0, 77, 100
2, 119616, Note_on_c, 0, 76, 51
2, 119760, Note_off_c, 0, 76, 100
2, 119808, Note_on_c, 0, 76, 51
2, 119900, Note_off_c, 0, 76, 100
2, 119904, Note_on_c, 0, 71, 51
2, 119996, Note_off_c, 0, 71, 100
2, 120000, Note_on_c, 0, 81, 51
2, 120092, Note_off_c, 0, 81, 100
2, 120096, Note_on_c, 0, 80, 51
2, 120188, Note_off_c, 0, 80, 100
2, 120192, Note_on_c, 0, 83, 51
2, 120236, Note_off_c, 0, 83, 100
2, 120240, Note_on_c, 0, 81, 51
2, 120380, Note_off_c, 0, 81, 100
2, 120384, Note_on_c, 0, 79, 51
2, 120476, Note_off_c, 0, 79, 100
2, 120480, Note_on_c, 0, 77, 51
2, 120572, Note_off_c, 0, 77, 100
2, 120576, Note_on_c, 0, 76, 51
2, 120956, Note_off_c, 0, 76, 100
2, 120960, Note_on_c, 0, 74, 51
2, 121004, Note_off_c, 0, 74, 0
2, 121008, Note_on_c, 0, 76, 51
2, 121040, Note_on_c, 0, 74, 51
2, 121052, Note_off_c, 0, 76, 0
2, 121084, Note_off_c, 0, 74, 0
2, 121104, Note_on_c, 0, 76, 51
2, 121148, Note_off_c, 0, 76, 0
2, 121152, Note_on_c, 0, 74, 51
2, 121244, Note_off_c, 0, 74, 0
2, 121248, Note_on_c, 0, 76, 51
2, 121340, Note_off_c, 0, 76, 0
2, 121344, Note_on_c, 0, 72, 72
2, 121724, Note_off_c, 0, 72, 100
2, 121872, Note_on_c, 0, 74, 51
2, 121920, Note_off_c, 0, 74, 100
2, 121920, Note_on_c, 0, 72, 51
2, 122012, Note_off_c, 0, 72, 100
2, 122016, Note_on_c, 0, 71, 51
2, 122108, Note_off_c, 0, 71, 100
2, 122112, Note_on_c, 0, 72, 51
2, 122256, Note_off_c, 0, 72, 100
2, 122304, Note_on_c, 0, 75, 51
2, 122448, Note_off_c, 0, 75, 100
2, 122496, Note_on_c, 0, 76, 51
2, 122640, Note_off_c, 0, 76, 100
2, 122688, Note_on_c, 0, 78, 51
2, 122832, Note_off_c, 0, 78, 100
2, 122880, Note_on_c, 0, 79, 51
2, 123024, Note_off_c, 0, 79, 100
2, 123072, Note_on_c, 0, 83, 51
2, 123216, Note_off_c, 0, 83, 100
2, 123264, Note_on_c, 0, 84, 51
2, 123408, Note_off_c, 0, 84, 100
2, 123456, Note_on_c, 0, 87, 51
2, 123600, Note_off_c, 0, 87, 100
2, 123648, Note_on_c, 0, 88, 51
2, 124028, Note_off_c, 0, 88, 100
2, 124416, Note_on_c, 0, 74, 72
2, 124432, Note_on_c, 0, 79, 72
2, 124452, Note_on_c, 0, 86, 72
2, 124796, Note_off_c, 0, 74, 100
2, 124812, Note_off_c, 0, 79, 100
2, 124832, Note_off_c, 0, 86, 100
2, 124944, Note_on_c, 0, 72, 51
2, 124992, Note_off_c, 0, 72, 0
2, 124992, Note_on_c, 0, 71, 51
2, 125084, Note_off_c, 0, 71, 100
2, 125088, Note_on_c, 0, 69, 51
2, 125180, Note_off_c, 0, 69, 100
2, 125184, Note_on_c, 0, 71, 51
2, 125328, Note_off_c, 0, 71, 100
2, 125376, Note_on_c, 0, 73, 51
2, 125520, Note_off_c, 0, 73, 100
2, 125568, Note_on_c, 0, 74, 51
2, 125712, Note_off_c, 0, 74, 100
2, 125760, Note_on_c, 0, 78, 51
2, 125904, Note_off_c, 0, 78, 100
2, 125952, Note_on_c, 0, 79, 51
2, 126096, Note_off_c, 0, 79, 100
2, 126144, Note_on_c, 0, 82, 51
2, 126288, Note_off_c, 0, 82, 100
2, 126336, Note_on_c, 0, 83, 51
2, 126480, Note_off_c, 0, 83, 100
2, 126528, Note_on_c, 0, 85, 51
2, 126672, Note_off_c, 0, 85, 100
2, 126720, Note_on_c, 0, 86, 51
2, 127100, Note_off_c, 0, 86, 100
2, 127488, Note_on_c, 0, 72, 72
2, 127504, Note_on_c, 0, 78, 72
2, 127524, Note_on_c, 0, 81, 72
2, 127544, Note_on_c, 0, 84, 72
2, 127868, Note_off_c, 0, 72, 100
2, 127884, Note_off_c, 0, 78, 100
2, 127904, Note_off_c, 0, 81, 100
2, 127924, Note_off_c, 0, 84, 100
2, 128016, Note_on_c, 0, 71, 51
2, 128064, Note_off_c, 0, 71, 100
2, 128064, Note_on_c, 0, 69, 51
2, 128156, Note_off_c, 0, 69, 100
2, 128160, Note_on_c, 0, 68, 56
2, 128252, Note_off_c, 0, 68, 100
2, 128256, Note_on_c, 0, 69, 62
2, 128400, Note_off_c, 0, 69, 100
2, 128448, Note_on_c, 0, 71, 63
2, 128592, Note_off_c, 0, 71, 100
2, 128640, Note_on_c, 0, 72, 65
2, 128784, Note_off_c, 0, 72, 100
2, 128832, Note_on_c, 0, 77, 66
2, 128976, Note_off_c, 0, 77, 100
2, 129024, Note_on_c, 0, 78, 67
2, 129168, Note_off_c, 0, 78, 100
2, 129216, Note_on_c, 0, 80, 68
2, 129360, Note_off_c, 0, 80, 100
2, 129408, Note_on_c, 0, 81, 70
2, 129552, Note_off_c, 0, 81, 100
2, 129600, Note_on_c, 0, 83, 71
2, 129744, Note_off_c, 0, 83, 100
2, 129792, Note_on_c, 0, 84, 72
2, 130032, Note_off_c, 0, 84, 100
2, 130560, Note_on_c, 0, 84, 75
2, 130604, Note_off_c, 0, 84, 100
2, 130608, Note_on_c, 0, 83, 51
2, 130748, Note_off_c, 0, 83, 100
2, 130752, Note_on_c, 0, 81, 51
2, 130844, Note_off_c, 0, 81, 100
2, 130848, Note_on_c, 0, 79, 51
2, 130940, Note_off_c, 0, 79, 100
2, 130944, Note_on_c, 0, 79, 51
2, 130988, Note_off_c, 0, 79, 100
2, 130992, Note_on_c, 0, 78, 51
2, 131132, Note_off_c, 0, 78, 100
2, 131136, Note_on_c, 0, 76, 51
2, 131228, Note_off_c, 0, 76, 100
2, 131232, Note_on_c, 0, 74, 51
2, 131324, Note_off_c, 0, 74, 100
2, 131328, Note_on_c, 0, 74, 51
2, 131360, Note_off_c, 0, 74, 0
2, 131376, Note_on_c, 0, 78, 51
2, 131408, Note_off_c, 0, 78, 0
2, 131424, Note_on_c, 0, 81, 51
2, 131456, Note_off_c, 0, 81, 0
2, 131472, Note_on_c, 0, 84, 75
2, 132096, Note_on_c, 0, 84, 68
2, 132116, Note_off_c, 0, 84, 0
2, 132140, Note_off_c, 0, 84, 100
2, 132144, Note_on_c, 0, 83, 51
2, 132284, Note_off_c, 0, 83, 100
2, 132288, Note_on_c, 0, 81, 51
2, 132380, Note_off_c, 0, 81, 100
2, 132384, Note_on_c, 0, 79, 51
2, 132476, Note_off_c, 0, 79, 100
2, 132480, Note_on_c, 0, 79, 51
2, 132524, Note_off_c, 0, 79, 100
2, 132528, Note_on_c, 0, 78, 51
2, 132668, Note_off_c, 0, 78, 100
2, 132672, Note_on_c, 0, 76, 51
2, 132764, Note_off_c, 0, 76, 100
2, 132768, Note_on_c, 0, 74, 51
2, 132860, Note_off_c, 0, 74, 100
2, 132864, Note_on_c, 0, 74, 51
2, 132896, Note_off_c, 0, 74, 0
2, 132912, Note_on_c, 0, 78, 51
2, 132944, Note_off_c, 0, 78, 0
2, 132960, Note_on_c, 0, 81, 51
2, 132992, Note_off_c, 0, 81, 0
2, 133008, Note_on_c, 0, 84, 75
2, 133632, Note_on_c, 0, 83, 72
2, 133652, Note_off_c, 0, 84, 0
2, 133724, Note_off_c, 0, 83, 100
2, 133728, Note_on_c, 0, 81, 72
2, 133820, Note_off_c, 0, 81, 100
2, 133824, Note_on_c, 0, 84, 72
2, 133916, Note_off_c, 0, 84, 100
2, 133920, Note_on_c, 0, 83, 72
2, 134012, Note_off_c, 0, 83, 100
2, 134016, Note_on_c, 0, 86, 72
2, 134160, Note_off_c, 0, 86, 100
2, 134160, Note_on_c, 0, 78, 72
2, 134304, Note_off_c, 0, 78, 100
2, 134400, Note_on_c, 0, 79, 72
2, 134492, Note_off_c, 0, 79, 100
2, 134496, Note_on_c, 0, 78, 72
2, 134588, Note_off_c, 0, 78, 100
2, 134592, Note_on_c, 0, 81, 72
2, 134684, Note_off_c, 0, 81, 100
2, 134688, Note_on_c, 0, 79, 72
2, 134780, Note_off_c, 0, 79, 100
2, 134784, Note_on_c, 0, 83, 72
2, 134928, Note_off_c, 0, 83, 100
2, 134976, Note_on_c, 0, 75, 72
2, 135120, Note_off_c, 0, 75, 100
2, 135168, Note_on_c, 0, 76, 72
2, 135260, Note_off_c, 0, 76, 100
2, 135264, Note_on_c, 0, 75, 72
2, 135356, Note_off_c, 0, 75, 100
2, 135360, Note_on_c, 0, 78, 72
2, 135452, Note_off_c, 0, 78, 100
2, 135456, Note_on_c, 0, 76, 72
2, 135548, Note_off_c, 0, 76, 100
2, 135552, Note_on_c, 0, 79, 72
2, 135696, Note_off_c, 0, 79, 100
2, 135744, Note_on_c, 0, 71, 72
2, 135888, Note_off_c, 0, 71, 100
2, 135936, Note_on_c, 0, 72, 72
2, 136028, Note_off_c, 0, 72, 100
2, 136032, Note_on_c, 0, 71, 72
2, 136124, Note_off_c, 0, 71, 100
2, 136128, Note_on_c, 0, 74, 72
2, 136220, Note_off_c, 0, 74, 100
2, 136224, Note_on_c, 0, 72, 72
2, 136316, Note_off_c, 0, 72, 100
2, 136320, Note_on_c, 0, 76, 72
2, 136464, Note_off_c, 0, 76, 100
2, 136512, Note_on_c, 0, 68, 72
2, 136656, Note_off_c, 0, 68, 100
2, 136704, Note_on_c, 0, 69, 72
2, 136988, Note_off_c, 0, 69, 100
2, 136992, Note_on_c, 0, 71, 72
2, 137084, Note_off_c, 0, 71, 100
2, 137088, Note_on_c, 0, 72, 72
2, 137372, Note_off_c, 0, 72, 100
2, 137376, Note_on_c, 0, 71, 72
2, 137468, Note_off_c, 0, 71, 100
2, 137472, Note_on_c, 0, 69, 72
2, 137756, Note_off_c, 0, 69, 100
2, 137760, Note_on_c, 0, 67, 72
2, 137852, Note_off_c, 0, 67, 100
2, 137856, Note_on_c, 0, 66, 72
2, 138140, Note_off_c, 0, 66, 100
2, 138144, Note_on_c, 0, 64, 72
2, 138236, Note_off_c, 0, 64, 100
2, 138240, Note_on_c, 0, 62, 72
2, 138428, Note_off_c, 0, 62, 100
2, 138432, Note_on_c, 0, 66, 72
2, 138524, Note_off_c, 0, 66, 100
2, 138528, Note_on_c, 0, 69, 72
2, 138620, Note_off_c, 0, 69, 100
2, 138624, Note_on_c, 0, 74, 72
2, 138768, Note_off_c, 0, 74, 100
2, 138816, Note_on_c, 0, 74, 72
2, 138960, Note_off_c, 0, 74, 100
2, 139008, Note_on_c, 0, 74, 72
2, 139388, Note_off_c, 0, 74, 100
2, 142848, Note_on_c, 0, 83, 51
2, 142992, Note_off_c, 0, 83, 100
2, 142992, Note_on_c, 0, 84, 51
2, 143136, Note_off_c, 0, 84, 100
2, 143232, Note_on_c, 0, 86, 51
2, 143376, Note_off_c, 0, 86, 100
2, 143424, Note_on_c, 0, 83, 51
2, 143568, Note_off_c, 0, 83, 100
2, 143616, Note_on_c, 0, 79, 51
2, 144380, Note_off_c, 0, 79, 100
2, 144384, Note_on_c, 0, 81, 51
2, 144528, Note_off_c, 0, 81, 100
2, 144576, Note_on_c, 0, 83, 51
2, 144720, Note_off_c, 0, 83, 100
2, 144768, Note_on_c, 0, 84, 51
2, 144912, Note_off_c, 0, 84, 100
2, 144960, Note_on_c, 0, 81, 51
2, 145104, Note_off_c, 0, 81, 100
2, 145152, Note_on_c, 0, 78, 51
2, 145916, Note_off_c, 0, 78, 100
2, 145920, Note_on_c, 0, 79, 51
2, 146012, Note_off_c, 0, 79, 100
2, 146016, Note_on_c, 0, 78, 51
2, 146204, Note_off_c, 0, 78, 100
2, 146304, Note_on_c, 0, 76, 51
2, 146396, Note_off_c, 0, 76, 100
2, 146400, Note_on_c, 0, 74, 51
2, 146588, Note_off_c, 0, 74, 100
2, 146688, Note_on_c, 0, 71, 51
2, 146780, Note_off_c, 0, 71, 100
2, 146784, Note_on_c, 0, 72, 51
2, 146972, Note_off_c, 0, 72, 100
2, 147456, Note_on_c, 0, 72, 51
2, 147548, Note_off_c, 0, 72, 100
2, 147552, Note_on_c, 0, 71, 51
2, 147740, Note_off_c, 0, 71, 100
2, 147840, Note_on_c, 0, 69, 51
2, 147932, Note_off_c, 0, 69, 100
2, 147936, Note_on_c, 0, 67, 51
2, 148124, Note_off_c, 0, 67, 100
2, 148224, Note_on_c, 0, 71, 51
2, 148316, Note_off_c, 0, 71, 100
2, 148320, Note_on_c, 0, 69, 51
2, 148508, Note_off_c, 0, 69, 100
2, 148992, Note_on_c, 0, 83, 51
2, 149136, Note_off_c, 0, 83, 100
2, 149184, Note_on_c, 0, 84, 51
2, 149328, Note_off_c, 0, 84, 100
2, 149376, Note_on_c, 0, 86, 51
2, 149520, Note_off_c, 0, 86, 100
2, 149568, Note_on_c, 0, 83, 51
2, 149712, Note_off_c, 0, 83, 100
2, 149760, Note_on_c, 0, 79, 51
2, 150288, Note_off_c, 0, 79, 100
2, 150528, Note_on_c, 0, 81, 51
2, 150672, Note_off_c, 0, 81, 100
2, 150720, Note_on_c, 0, 83, 51
2, 150864, Note_off_c, 0, 83, 100
2, 150912, Note_on_c, 0, 84, 51
2, 151056, Note_off_c, 0, 84, 100
2, 151104, Note_on_c, 0, 81, 51
2, 151248, Note_off_c, 0, 81, 100
2, 151296, Note_on_c, 0, 78, 51
2, 151824, Note_off_c, 0, 78, 100
2, 152064, Note_on_c, 0, 79, 51
2, 152156, Note_off_c, 0, 79, 100
2, 152160, Note_on_c, 0, 78, 51
2, 152348, Note_off_c, 0, 78, 100
2, 152448, Note_on_c, 0, 76, 51
2, 152540, Note_off_c, 0, 76, 100
2, 152544, Note_on_c, 0, 74, 51
2, 152732, Note_off_c, 0, 74, 100
2, 152832, Note_on_c, 0, 71, 51
2, 152924, Note_off_c, 0, 71, 100
2, 152928, Note_on_c, 0, 72, 51
2, 153116, Note_off_c, 0, 72, 100
2, 153600, Note_on_c, 0, 72, 51
2, 153692, Note_off_c, 0, 72, 100
2, 153696, Note_on_c, 0, 71, 51
2, 153884, Note_off_c, 0, 71, 100
2, 153984, Note_on_c, 0, 69, 51
2, 154076, Note_off_c, 0, 69, 100
2, 154080, Note_on_c, 0, 67, 51
2, 154268, Note_off_c, 0, 67, 100
2, 154368, Note_on_c, 0, 76, 51
2, 154460, Note_off_c, 0, 76, 100
2, 154464, Note_on_c, 0, 74, 51
2, 154652, Note_off_c, 0, 74, 100
2, 155136, Note_on_c, 0, 86, 72
2, 155136, Note_on_c, 0, 74, 72
2, 155900, Note_off_c, 0, 86, 100
2, 155900, Note_off_c, 0, 74, 100
2, 155904, Note_on_c, 0, 84, 72
2, 156048, Note_off_c, 0, 84, 100
2, 156096, Note_on_c, 0, 83, 72
2, 156240, Note_off_c, 0, 83, 100
2, 156288, Note_on_c, 0, 81, 72
2, 156432, Note_off_c, 0, 81, 100
2, 156480, Note_on_c, 0, 79, 72
2, 156624, Note_off_c, 0, 79, 100
2, 156672, Note_on_c, 0, 88, 72
2, 156672, Note_on_c, 0, 76, 72
2, 157436, Note_off_c, 0, 88, 100
2, 157436, Note_off_c, 0, 76, 100
2, 157440, Note_on_c, 0, 86, 72
2, 157584, Note_off_c, 0, 86, 100
2, 157632, Note_on_c, 0, 84, 72
2, 157776, Note_off_c, 0, 84, 100
2, 157824, Note_on_c, 0, 83, 72
2, 157968, Note_off_c, 0, 83, 100
2, 158016, Note_on_c, 0, 81, 72
2, 158160, Note_off_c, 0, 81, 100
2, 158208, Note_on_c, 0, 83, 51
2, 158300, Note_off_c, 0, 83, 100
2, 158304, Note_on_c, 0, 84, 51
2, 158396, Note_off_c, 0, 84, 100
2, 158400, Note_on_c, 0, 86, 51
2, 158492, Note_off_c, 0, 86, 100
2, 158496, Note_on_c, 0, 83, 51
2, 158588, Note_off_c, 0, 83, 100
2, 158592, Note_on_c, 0, 79, 51
2, 158780, Note_off_c, 0, 79, 100
2, 158976, Note_on_c, 0, 81, 51
2, 159068, Note_off_c, 0, 81, 100
2, 159072, Note_on_c, 0, 83, 51
2, 159164, Note_off_c, 0, 83, 100
2, 159168, Note_on_c, 0, 84, 51
2, 159260, Note_off_c, 0, 84, 100
2, 159264, Note_on_c, 0, 81, 51
2, 159356, Note_off_c, 0, 81, 100
2, 159360, Note_on_c, 0, 78, 51
2, 159548, Note_off_c, 0, 78, 100
2, 159744, Note_on_c, 0, 86, 72
2, 159744, Note_on_c, 0, 74, 72
2, 160508, Note_off_c, 0, 86, 100
2, 160508, Note_off_c, 0, 74, 100
2, 160512, Note_on_c, 0, 84, 72
2, 160604, Note_off_c, 0, 84, 100
2, 160608, Note_on_c, 0, 86, 72
2, 160700, Note_off_c, 0, 86, 100
2, 160704, Note_on_c, 0, 84, 72
2, 160796, Note_off_c, 0, 84, 100
2, 160800, Note_on_c, 0, 83, 72
2, 160892, Note_off_c, 0, 83, 100
2, 160896, Note_on_c, 0, 81, 72
2, 160988, Note_off_c, 0, 81, 100
2, 160992, Note_on_c, 0, 83, 72
2, 161084, Note_off_c, 0, 83, 100
2, 161088, Note_on_c, 0, 81, 72
2, 161180, Note_off_c, 0, 81, 100
2, 161184, Note_on_c, 0, 79, 72
2, 161276, Note_off_c, 0, 79, 100
2, 161280, Note_on_c, 0, 88, 72
2, 161280, Note_on_c, 0, 76, 72
2, 162044, Note_off_c, 0, 88, 100
2, 162044, Note_off_c, 0, 76, 100
2, 162048, Note_on_c, 0, 86, 72
2, 162140, Note_off_c, 0, 86, 100
2, 162144, Note_on_c, 0, 88, 72
2, 162236, Note_off_c, 0, 88, 100
2, 162240, Note_on_c, 0, 86, 72
2, 162332, Note_off_c, 0, 86, 100
2, 162336, Note_on_c, 0, 84, 72
2, 162428, Note_off_c, 0, 84, 100
2, 162432, Note_on_c, 0, 83, 72
2, 162524, Note_off_c, 0, 83, 100
2, 162528, Note_on_c, 0, 84, 72
2, 162620, Note_off_c, 0, 84, 100
2, 162624, Note_on_c, 0, 83, 72
2, 162716, Note_off_c, 0, 83, 100
2, 162720, Note_on_c, 0, 81, 72
2, 162812, Note_off_c, 0, 81, 100
2, 162816, Note_on_c, 0, 83, 51
2, 162816, Note_on_c, 0, 62, 51
2, 162960, Note_off_c, 0, 83, 100
2, 162960, Note_off_c, 0, 62, 100
2, 163008, Note_on_c, 0, 79, 51
2, 163008, Note_on_c, 0, 67, 51
2, 163152, Note_off_c, 0, 79, 100
2, 163152, Note_off_c, 0, 67, 100
2, 163200, Note_on_c, 0, 64, 51
2, 163200, Note_on_c, 0, 84, 77
2, 163344, Note_off_c, 0, 64, 100
2, 163392, Note_on_c, 0, 67, 51
2, 163536, Note_off_c, 0, 67, 100
2, 163580, Note_off_c, 0, 84, 100
2, 163584, Note_on_c, 0, 83, 51
2, 163584, Note_on_c, 0, 62, 51
2, 163728, Note_off_c, 0, 83, 100
2, 163728, Note_off_c, 0, 62, 100
2, 163776, Note_on_c, 0, 79, 51
2, 163776, Note_on_c, 0, 67, 51
2, 163920, Note_off_c, 0, 79, 100
2, 163920, Note_off_c, 0, 67, 100
2, 163968, Note_on_c, 0, 88, 77
2, 163968, Note_on_c, 0, 60, 51
2, 164112, Note_off_c, 0, 60, 100
2, 164160, Note_on_c, 0, 67, 51
2, 164304, Note_off_c, 0, 67, 100
2, 164348, Note_off_c, 0, 88, 100
2, 164352, Note_on_c, 0, 86, 51
2, 164352, Note_on_c, 0, 59, 51
2, 164496, Note_off_c, 0, 86, 100
2, 164496, Note_off_c, 0, 59, 100
2, 164544, Note_on_c, 0, 79, 51
2, 164544, Note_on_c, 0, 67, 51
2, 164688, Note_off_c, 0, 79, 100
2, 164688, Note_off_c, 0, 67, 100
2, 164736, Note_on_c, 0, 84, 77
2, 164736, Note_on_c, 0, 64, 51
2, 164880, Note_off_c, 0, 64, 100
2, 164928, Note_on_c, 0, 67, 51
2, 165072, Note_off_c, 0, 67, 100
2, 165116, Note_off_c, 0, 84, 100
2, 165120, Note_on_c, 0, 83, 51
2, 165120, Note_on_c, 0, 62, 51
2, 165264, Note_off_c, 0, 83, 100
2, 165264, Note_off_c, 0, 62, 100
2, 165312, Note_on_c, 0, 79, 51
2, 165312, Note_on_c, 0, 67, 51
2, 165456, Note_off_c, 0, 79, 100
2, 165456, Note_off_c, 0, 67, 100
2, 165504, Note_on_c, 0, 88, 77
2, 165504, Note_on_c, 0, 60, 51
2, 165648, Note_off_c, 0, 60, 100
2, 165696, Note_on_c, 0, 67, 51
2, 165840, Note_off_c, 0, 67, 100
2, 165884, Note_off_c, 0, 88, 100
2, 165888, Note_on_c, 0, 89, 72
2, 165888, Note_on_c, 0, 77, 72
2, 165888, Note_on_c, 0, 68, 66
2, 165888, Note_on_c, 0, 62, 66
2, 165888, Note_on_c, 0, 59, 66
2, 166032, Note_off_c, 0, 68, 100
2, 166032, Note_off_c, 0, 62, 100
2, 166032, Note_off_c, 0, 59, 100
2, 166080, Note_on_c, 0, 68, 66
2, 166080, Note_on_c, 0, 62, 66
2, 166080, Note_on_c, 0, 59, 66
2, 166224, Note_off_c, 0, 68, 100
2, 166224, Note_off_c, 0, 62, 100
2, 166224, Note_off_c, 0, 59, 100
2, 166272, Note_on_c, 0, 68, 66
2, 166272, Note_on_c, 0, 62, 66
2, 166272, Note_on_c, 0, 59, 66
2, 166416, Note_off_c, 0, 68, 100
2, 166416, Note_off_c, 0, 62, 100
2, 166416, Note_off_c, 0, 59, 100
2, 166464, Note_on_c, 0, 68, 66
2, 166464, Note_on_c, 0, 62, 66
2, 166464, Note_on_c, 0, 59, 66
2, 166608, Note_off_c, 0, 68, 100
2, 166608, Note_off_c, 0, 62, 100
2, 166608, Note_off_c, 0, 59, 100
2, 166652, Note_off_c, 0, 89, 100
2, 166652, Note_off_c, 0, 77, 100
2, 166656, Note_on_c, 0, 89, 72
2, 166656, Note_on_c, 0, 77, 72
2, 166656, Note_on_c, 0, 68, 66
2, 166656, Note_on_c, 0, 62, 66
2, 166656, Note_on_c, 0, 59, 66
2, 166800, Note_off_c, 0, 68, 100
2, 166800, Note_off_c, 0, 62, 100
2, 166800, Note_off_c, 0, 59, 100
2, 166848, Note_on_c, 0, 68, 66
2, 166848, Note_on_c, 0, 62, 66
2, 166848, Note_on_c, 0, 59, 66
2, 166992, Note_off_c, 0, 68, 100
2, 166992, Note_off_c, 0, 62, 100
2, 166992, Note_off_c, 0, 59, 100
2, 167036, Note_off_c, 0, 89, 100
2, 167036, Note_off_c, 0, 77, 100
2, 167040, Note_on_c, 0, 89, 72
2, 167040, Note_on_c, 0, 77, 72
2, 167040, Note_on_c, 0, 68, 66
2, 167040, Note_on_c, 0, 62, 66
2, 167040, Note_on_c, 0, 59, 66
2, 167184, Note_off_c, 0, 68, 100
2, 167184, Note_off_c, 0, 62, 100
2, 167184, Note_off_c, 0, 59, 100
2, 167232, Note_on_c, 0, 68, 66
2, 167232, Note_on_c, 0, 62, 66
2, 167232, Note_on_c, 0, 59, 66
2, 167376, Note_off_c, 0, 68, 100
2, 167376, Note_off_c, 0, 62, 100
2, 167376, Note_off_c, 0, 59, 100
2, 167420, Note_off_c, 0, 89, 100
2, 167420, Note_off_c, 0, 77, 100
2, 167424, Note_on_c, 0, 88, 72
2, 167424, Note_on_c, 0, 76, 72
2, 167424, Note_on_c, 0, 68, 66
2, 167424, Note_on_c, 0, 62, 66
2, 167424, Note_on_c, 0, 59, 66
2, 167568, Note_off_c, 0, 88, 100
2, 167568, Note_off_c, 0, 76, 100
2, 167568, Note_off_c, 0, 68, 100
2, 167568, Note_off_c, 0, 62, 100
2, 167568, Note_off_c, 0, 59, 100
2, 167616, Note_on_c, 0, 86, 72
2, 167760, Note_off_c, 0, 86, 100
2, 167808, Note_on_c, 0, 84, 72
2, 167856, Note_off_c, 0, 84, 0
2, 167856, Note_on_c, 0, 86, 72
2, 167904, Note_off_c, 0, 86, 0
2, 167904, Note_on_c, 0, 84, 72
2, 167952, Note_off_c, 0, 84, 0
2, 167952, Note_on_c, 0, 86, 72
2, 168000, Note_off_c, 0, 86, 0
2, 168000, Note_on_c, 0, 83, 66
2, 168188, Note_off_c, 0, 83, 100
2, 168192, Note_on_c, 0, 81, 72
2, 168240, Note_off_c, 0, 81, 0
2, 168240, Note_on_c, 0, 83, 72
2, 168288, Note_off_c, 0, 83, 0
2, 168288, Note_on_c, 0, 81, 72
2, 168336, Note_off_c, 0, 81, 0
2, 168336, Note_on_c, 0, 83, 72
2, 168384, Note_off_c, 0, 83, 0
2, 168384, Note_on_c, 0, 79, 66
2, 168572, Note_off_c, 0, 79, 100
2, 168576, Note_on_c, 0, 78, 72
2, 168624, Note_off_c, 0, 78, 0
2, 168624, Note_on_c, 0, 79, 72
2, 168672, Note_off_c, 0, 79, 0
2, 168672, Note_on_c, 0, 78, 72
2, 168720, Note_off_c, 0, 78, 0
2, 168720, Note_on_c, 0, 79, 72
2, 168768, Note_off_c, 0, 79, 0
2, 168768, Note_on_c, 0, 76, 66
2, 168956, Note_off_c, 0, 76, 100
2, 168960, Note_on_c, 0, 74, 72
2, 169104, Note_off_c, 0, 74, 100
2, 169152, Note_on_c, 0, 76, 72
2, 169244, Note_off_c, 0, 76, 100
2, 169248, Note_on_c, 0, 78, 72
2, 169340, Note_off_c, 0, 78, 100
2, 169344, Note_on_c, 0, 79, 72
2, 169436, Note_off_c, 0, 79, 100
2, 169440, Note_on_c, 0, 81, 72
2, 169532, Note_off_c, 0, 81, 100
2, 169536, Note_on_c, 0, 83, 72
2, 169628, Note_off_c, 0, 83, 100
2, 169632, Note_on_c, 0, 84, 72
2, 169724, Note_off_c, 0, 84, 100
2, 169728, Note_on_c, 0, 86, 72
2, 169820, Note_off_c, 0, 86, 100
2, 169824, Note_on_c, 0, 84, 72
2, 169916, Note_off_c, 0, 84, 100
2, 169920, Note_on_c, 0, 83, 72
2, 170012, Note_off_c, 0, 83, 100
2, 170016, Note_on_c, 0, 84, 72
2, 170108, Note_off_c, 0, 84, 100
2, 170112, Note_on_c, 0, 86, 72
2, 170204, Note_off_c, 0, 86, 100
2, 170208, Note_on_c, 0, 83, 72
2, 170300, Note_off_c, 0, 83, 100
2, 170304, Note_on_c, 0, 81, 72
2, 170396, Note_off_c, 0, 81, 100
2, 170400, Note_on_c, 0, 79, 72
2, 170492, Note_off_c, 0, 79, 100
2, 170496, Note_on_c, 0, 81, 66
2, 170540, Note_off_c, 0, 81, 100
2, 170544, Note_on_c, 0, 83, 66
2, 170588, Note_off_c, 0, 83, 100
2, 170592, Note_on_c, 0, 81, 66
2, 170636, Note_off_c, 0, 81, 100
2, 170640, Note_on_c, 0, 83, 66
2, 170684, Note_off_c, 0, 83, 100
2, 170688, Note_on_c, 0, 81, 66
2, 170732, Note_off_c, 0, 81, 100
2, 170736, Note_on_c, 0, 83, 66
2, 170780, Note_off_c, 0, 83, 100
2, 170784, Note_on_c, 0, 81, 66
2, 170828, Note_off_c, 0, 81, 100
2, 170832, Note_on_c, 0, 83, 66
2, 170876, Note_off_c, 0, 83, 100
2, 170880, Note_on_c, 0, 81, 66
2, 170924, Note_off_c, 0, 81, 100
2, 170928, Note_on_c, 0, 83, 66
2, 170972, Note_off_c, 0, 83, 100
2, 170976, Note_on_c, 0, 81, 66
2, 171020, Note_off_c, 0, 81, 100
2, 171024, Note_on_c, 0, 83, 66
2, 171068, Note_off_c, 0, 83, 100
2, 171072, Note_on_c, 0, 81, 66
2, 171116, Note_off_c, 0, 81, 100
2, 171120, Note_on_c, 0, 83, 66
2, 171164, Note_off_c, 0, 83, 100
2, 171168, Note_on_c, 0, 81, 66
2, 171212, Note_off_c, 0, 81, 100
2, 171216, Note_on_c, 0, 83, 66
2, 171260, Note_off_c, 0, 83, 100
2, 171264, Note_on_c, 0, 81, 66
2, 171308, Note_off_c, 0, 81, 100
2, 171312, Note_on_c, 0, 83, 66
2, 171356, Note_off_c, 0, 83, 100
2, 171360, Note_on_c, 0, 81, 66
2, 171404, Note_off_c, 0, 81, 100
2, 171408, Note_on_c, 0, 83, 66
2, 171452, Note_off_c, 0, 83, 100
2, 171456, Note_on_c, 0, 81, 66
2, 171500, Note_off_c, 0, 81, 100
2, 171504, Note_on_c, 0, 83, 66
2, 171548, Note_off_c, 0, 83, 100
2, 171552, Note_on_c, 0, 81, 66
2, 171596, Note_off_c, 0, 81, 100
2, 171600, Note_on_c, 0, 83, 66
2, 171644, Note_off_c, 0, 83, 100
2, 171648, Note_on_c, 0, 81, 66
2, 171692, Note_off_c, 0, 81, 100
2, 171696, Note_on_c, 0, 83, 66
2, 171740, Note_off_c, 0, 83, 100
2, 171744, Note_on_c, 0, 81, 66
2, 171788, Note_off_c, 0, 81, 100
2, 171792, Note_on_c, 0, 83, 66
2, 171836, Note_off_c, 0, 83, 100
2, 171840, Note_on_c, 0, 79, 66
2, 171932, Note_off_c, 0, 79, 0
2, 171936, Note_on_c, 0, 81, 66
2, 172028, Note_off_c, 0, 81, 0
2, 172032, Note_on_c, 0, 79, 66
2, 172412, Note_off_c, 0, 79, 100
2, 172416, Note_on_c, 0, 67, 51
2, 172560, Note_on_c, 0, 71, 51
2, 172704, Note_off_c, 0, 71, 100
2, 172796, Note_off_c, 0, 67, 100
2, 172800, Note_on_c, 0, 74, 51
2, 172800, Note_on_c, 0, 69, 51
2, 172944, Note_off_c, 0, 74, 100
2, 172992, Note_on_c, 0, 72, 51
2, 173136, Note_off_c, 0, 72, 100
2, 173180, Note_off_c, 0, 69, 100
2, 173184, Note_on_c, 0, 66, 51
2, 173376, Note_on_c, 0, 69, 51
2, 173520, Note_off_c, 0, 69, 100
2, 173564, Note_off_c, 0, 66, 100
2, 173568, Note_on_c, 0, 72, 51
2, 173568, Note_on_c, 0, 67, 51
2, 173712, Note_off_c, 0, 72, 100
2, 173760, Note_on_c, 0, 71, 51
2, 173904, Note_off_c, 0, 71, 100
2, 173948, Note_off_c, 0, 67, 100
2, 173952, Note_on_c, 0, 64, 51
2, 174144, Note_on_c, 0, 67, 51
2, 174288, Note_off_c, 0, 67, 100
2, 174332, Note_off_c, 0, 64, 100
2, 174336, Note_on_c, 0, 71, 51
2, 174336, Note_on_c, 0, 60, 51
2, 174480, Note_off_c, 0, 71, 100
2, 174528, Note_on_c, 0, 69, 51
2, 174672, Note_off_c, 0, 69, 100
2, 174716, Note_off_c, 0, 60, 100
2, 174720, Note_on_c, 0, 62, 51
2, 174912, Note_on_c, 0, 66, 51
2, 175056, Note_off_c, 0, 66, 100
2, 175100, Note_off_c, 0, 62, 100
2, 175104, Note_on_c, 0, 69, 51
2, 175104, Note_on_c, 0, 59, 51
2, 175248, Note_off_c, 0, 69, 100
2, 175296, Note_on_c, 0, 67, 51
2, 175440, Note_off_c, 0, 67, 100
2, 175484, Note_off_c, 0, 59, 100
2, 175488, Note_on_c, 0, 71, 72
2, 175580, Note_off_c, 0, 71, 100
2, 175584, Note_on_c, 0, 72, 72
2, 175676, Note_off_c, 0, 72, 100
2, 175680, Note_on_c, 0, 74, 72
2, 175772, Note_off_c, 0, 74, 100
2, 175776, Note_on_c, 0, 71, 72
2, 175868, Note_off_c, 0, 71, 100
2, 175872, Note_on_c, 0, 72, 72
2, 175964, Note_off_c, 0, 72, 100
2, 175968, Note_on_c, 0, 74, 72
2, 176060, Note_off_c, 0, 74, 100
2, 176064, Note_on_c, 0, 76, 72
2, 176156, Note_off_c, 0, 76, 100
2, 176160, Note_on_c, 0, 72, 72
2, 176252, Note_off_c, 0, 72, 100
2, 176256, Note_on_c, 0, 81, 72
2, 176348, Note_off_c, 0, 81, 100
2, 176352, Note_on_c, 0, 83, 72
2, 176444, Note_off_c, 0, 83, 100
2, 176448, Note_on_c, 0, 84, 72
2, 176540, Note_off_c, 0, 84, 100
2, 176544, Note_on_c, 0, 81, 72
2, 176636, Note_off_c, 0, 81, 100
2, 176640, Note_on_c, 0, 83, 72
2, 176732, Note_off_c, 0, 83, 100
2, 176736, Note_on_c, 0, 84, 72
2, 176828, Note_off_c, 0, 84, 100
2, 176832, Note_on_c, 0, 86, 72
2, 176924, Note_off_c, 0, 86, 100
2, 176928, Note_on_c, 0, 83, 72
2, 177020, Note_off_c, 0, 83, 100
2, 177024, Note_on_c, 0, 67, 72
2, 177116, Note_off_c, 0, 67, 100
2, 177120, Note_on_c, 0, 69, 72
2, 177212, Note_off_c, 0, 69, 100
2, 177216, Note_on_c, 0, 71, 72
2, 177308, Note_off_c, 0, 71, 100
2, 177312, Note_on_c, 0, 67, 72
2, 177404, Note_off_c, 0, 67, 100
2, 177408, Note_on_c, 0, 69, 72
2, 177500, Note_off_c, 0, 69, 100
2, 177504, Note_on_c, 0, 71, 72
2, 177596, Note_off_c, 0, 71, 100
2, 177600, Note_on_c, 0, 72, 72
2, 177692, Note_off_c, 0, 72, 100
2, 177696, Note_on_c, 0, 69, 72
2, 177788, Note_off_c, 0, 69, 100
2, 177792, Note_on_c, 0, 78, 72
2, 177884, Note_off_c, 0, 78, 100
2, 177888, Note_on_c, 0, 79, 72
2, 177980, Note_off_c, 0, 79, 100
2, 177984, Note_on_c, 0, 81, 72
2, 178076, Note_off_c, 0, 81, 100
2, 178080, Note_on_c, 0, 78, 72
2, 178172, Note_off_c, 0, 78, 100
2, 178176, Note_on_c, 0, 79, 77
2, 178556, Note_off_c, 0, 79, 100
2, 178560, Note_on_c, 0, 74, 77
2, 178576, Note_on_c, 0, 79, 77
2, 178596, Note_on_c, 0, 83, 77
2, 178940, Note_off_c, 0, 74, 100
2, 178944, Note_on_c, 0, 71, 77
2, 178956, Note_off_c, 0, 79, 100
2, 178960, Note_on_c, 0, 74, 77
2, 178976, Note_off_c, 0, 83, 100
2, 178980, Note_on_c, 0, 79, 77
2, 179324, Note_off_c, 0, 71, 100
2, 179340, Note_off_c, 0, 74, 100
2, 179360, Note_off_c, 0, 79, 100
2, 179712, Note_on_c, 0, 55, 72
2, 179760, Note_off_c, 0, 55, 0
2, 179760, Note_on_c, 0, 58, 72
2, 179808, Note_off_c, 0, 58, 0
2, 179808, Note_on_c, 0, 62, 72
2, 179856, Note_off_c, 0, 62, 0
2, 179856, Note_on_c, 0, 67, 72
2, 180460, Note_off_c, 0, 67, 100
2, 180480, Note_on_c, 0, 62, 72
2, 181244, Note_off_c, 0, 62, 100
2, 181248, Note_on_c, 0, 70, 72
2, 181820, Note_off_c, 0, 70, 100
2, 181824, Note_on_c, 0, 72, 72
2, 181916, Note_off_c, 0, 72, 100
2, 181920, Note_on_c, 0, 69, 72
2, 182012, Note_off_c, 0, 69, 100
2, 182016, Note_on_c, 0, 67, 72
2, 182396, Note_off_c, 0, 67, 100
2, 182784, Note_on_c, 0, 74, 51
2, 182784, Note_on_c, 0, 70, 51
2, 183356, Note_off_c, 0, 74, 100
2, 183356, Note_off_c, 0, 70, 100
2, 183360, Note_on_c, 0, 75, 51
2, 183360, Note_on_c, 0, 72, 51
2, 183452, Note_off_c, 0, 75, 100
2, 183452, Note_off_c, 0, 72, 100
2, 183456, Note_on_c, 0, 72, 51
2, 183456, Note_on_c, 0, 69, 51
2, 183548, Note_off_c, 0, 72, 100
2, 183548, Note_off_c, 0, 69, 100
2, 183552, Note_on_c, 0, 70, 51
2, 183552, Note_on_c, 0, 67, 51
2, 183932, Note_off_c, 0, 70, 100
2, 183932, Note_off_c, 0, 67, 100
2, 184320, Note_on_c, 0, 82, 41
2, 184320, Note_on_c, 0, 74, 41
2, 184892, Note_off_c, 0, 82, 100
2, 184892, Note_off_c, 0, 74, 100
2, 184896, Note_on_c, 0, 84, 41
2, 184896, Note_on_c, 0, 75, 41
2, 184988, Note_off_c, 0, 84, 100
2, 184988, Note_off_c, 0, 75, 100
2, 184992, Note_on_c, 0, 81, 41
2, 184992, Note_on_c, 0, 72, 41
2, 185084, Note_off_c, 0, 81, 100
2, 185084, Note_off_c, 0, 72, 100
2, 185088, Note_on_c, 0, 79, 41
2, 185088, Note_on_c, 0, 70, 41
2, 185468, Note_off_c, 0, 79, 100
2, 185468, Note_off_c, 0, 70, 100
2, 185856, Note_on_c, 0, 62, 51
2, 185856, Note_on_c, 0, 58, 51
2, 186000, Note_off_c, 0, 62, 100
2, 186000, Note_off_c, 0, 58, 100
2, 186048, Note_on_c, 0, 67, 51
2, 186192, Note_off_c, 0, 67, 100
2, 186240, Note_on_c, 0, 79, 51
2, 186240, Note_on_c, 0, 62, 51
2, 186240, Note_on_c, 0, 58, 51
2, 186384, Note_off_c, 0, 62, 100
2, 186384, Note_off_c, 0, 58, 100
2, 186432, Note_on_c, 0, 67, 51
2, 186576, Note_off_c, 0, 67, 100
2, 186620, Note_off_c, 0, 79, 100
2, 186624, Note_on_c, 0, 86, 51
2, 186624, Note_on_c, 0, 62, 51
2, 186624, Note_on_c, 0, 58, 51
2, 186768, Note_off_c, 0, 62, 100
2, 186768, Note_off_c, 0, 58, 100
2, 186816, Note_on_c, 0, 67, 51
2, 186960, Note_off_c, 0, 67, 100
2, 187004, Note_off_c, 0, 86, 100
2, 187008, Note_on_c, 0, 62, 51
2, 187008, Note_on_c, 0, 58, 51
2, 187008, Note_on_c, 0, 88, 51
2, 187152, Note_off_c, 0, 62, 100
2, 187152, Note_off_c, 0, 58, 100
2, 187200, Note_on_c, 0, 67, 51
2, 187344, Note_off_c, 0, 67, 100
2, 187388, Note_off_c, 0, 88, 100
2, 187392, Note_on_c, 0, 86, 51
2, 187392, Note_on_c, 0, 64, 51
2, 187392, Note_on_c, 0, 57, 51
2, 187536, Note_off_c, 0, 64, 100
2, 187536, Note_off_c, 0, 57, 100
2, 187584, Note_on_c, 0, 67, 51
2, 187728, Note_off_c, 0, 67, 100
2, 187776, Note_on_c, 0, 64, 51
2, 187776, Note_on_c, 0, 57, 51
2, 187920, Note_off_c, 0, 86, 100
2, 187920, Note_off_c, 0, 64, 100
2, 187920, Note_off_c, 0, 57, 100
2, 187968, Note_on_c, 0, 67, 51
2, 188112, Note_off_c, 0, 67, 100
2, 188160, Note_on_c, 0, 85, 51
2, 188160, Note_on_c, 0, 64, 51
2, 188160, Note_on_c, 0, 57, 51
2, 188304, Note_off_c, 0, 64, 100
2, 188304, Note_off_c, 0, 57, 100
2, 188352, Note_on_c, 0, 67, 51
2, 188496, Note_off_c, 0, 67, 100
2, 188540, Note_off_c, 0, 85, 100
2, 188544, Note_on_c, 0, 64, 51
2, 188544, Note_on_c, 0, 57, 51
2, 188688, Note_off_c, 0, 64, 100
2, 188688, Note_off_c, 0, 57, 100
2, 188736, Note_on_c, 0, 67, 51
2, 188880, Note_off_c, 0, 67, 100
2, 188928, Note_on_c, 0, 62, 51
2, 188928, Note_on_c, 0, 58, 51
2, 189072, Note_off_c, 0, 62, 100
2, 189072, Note_off_c, 0, 58, 100
2, 189120, Note_on_c, 0, 67, 51
2, 189216, Note_on_c, 0, 79, 51
2, 189264, Note_off_c, 0, 67, 100
2, 189308, Note_off_c, 0, 79, 100
2, 189312, Note_on_c, 0, 62, 51
2, 189312, Note_on_c, 0, 58, 51
2, 189312, Note_on_c, 0, 79, 51
2, 189356, Note_off_c, 0, 79, 0
2, 189360, Note_on_c, 0, 81, 51
2, 189404, Note_off_c, 0, 81, 0
2, 189408, Note_on_c, 0, 79, 51
2, 189452, Note_off_c, 0, 79, 0
2, 189456, Note_off_c, 0, 62, 100
2, 189456, Note_off_c, 0, 58, 100
2, 189456, Note_on_c, 0, 81, 51
2, 189500, Note_off_c, 0, 81, 0
2, 189504, Note_on_c, 0, 78, 51
2, 189504, Note_on_c, 0, 67, 51
2, 189548, Note_off_c, 0, 78, 100
2, 189600, Note_on_c, 0, 79, 51
2, 189644, Note_off_c, 0, 79, 100
2, 189648, Note_off_c, 0, 67, 100
2, 189696, Note_on_c, 0, 86, 51
2, 189696, Note_on_c, 0, 62, 51
2, 189696, Note_on_c, 0, 58, 51
2, 189840, Note_off_c, 0, 62, 100
2, 189840, Note_off_c, 0, 58, 100
2, 189888, Note_on_c, 0, 67, 51
2, 190032, Note_off_c, 0, 67, 100
2, 190076, Note_off_c, 0, 86, 100
2, 190080, Note_on_c, 0, 88, 51
2, 190080, Note_on_c, 0, 62, 51
2, 190080, Note_on_c, 0, 58, 51
2, 190224, Note_off_c, 0, 62, 100
2, 190224, Note_off_c, 0, 58, 100
2, 190272, Note_on_c, 0, 67, 51
2, 190416, Note_off_c, 0, 67, 100
2, 190460, Note_off_c, 0, 88, 100
2, 190464, Note_on_c, 0, 86, 51
2, 190464, Note_on_c, 0, 64, 51
2, 190464, Note_on_c, 0, 57, 51
2, 190608, Note_off_c, 0, 64, 100
2, 190608, Note_off_c, 0, 57, 100
2, 190656, Note_on_c, 0, 67, 51
2, 190800, Note_off_c, 0, 67, 100
2, 190848, Note_on_c, 0, 64, 51
2, 190848, Note_on_c, 0, 57, 51
2, 190992, Note_off_c, 0, 64, 100
2, 190992, Note_off_c, 0, 57, 100
2, 191040, Note_on_c, 0, 67, 51
2, 191184, Note_off_c, 0, 67, 100
2, 191228, Note_off_c, 0, 86, 100
2, 191232, Note_on_c, 0, 85, 51
2, 191232, Note_on_c, 0, 64, 51
2, 191232, Note_on_c, 0, 57, 51
2, 191376, Note_off_c, 0, 64, 100
2, 191376, Note_off_c, 0, 57, 100
2, 191424, Note_on_c, 0, 67, 51
2, 191568, Note_off_c, 0, 67, 100
2, 191612, Note_off_c, 0, 85, 100
2, 191616, Note_on_c, 0, 64, 51
2, 191616, Note_on_c, 0, 57, 51
2, 191760, Note_off_c, 0, 64, 100
2, 191760, Note_off_c, 0, 57, 100
2, 191808, Note_on_c, 0, 67, 51
2, 191952, Note_off_c, 0, 67, 100
2, 193536, Note_on_c, 0, 65, 72
2, 194108, Note_off_c, 0, 65, 100
2, 194112, Note_on_c, 0, 67, 72
2, 194204, Note_off_c, 0, 67, 100
2, 194208, Note_on_c, 0, 64, 72
2, 194300, Note_off_c, 0, 64, 100
2, 194304, Note_on_c, 0, 62, 72
2, 195068, Note_off_c, 0, 62, 100
2, 195360, Note_on_c, 0, 74, 51
2, 195452, Note_off_c, 0, 74, 100
2, 195456, Note_on_c, 0, 76, 51
2, 195500, Note_off_c, 0, 76, 0
2, 195504, Note_on_c, 0, 74, 51
2, 195548, Note_off_c, 0, 74, 0
2, 195552, Note_on_c, 0, 73, 51
2, 195596, Note_off_c, 0, 73, 0
2, 195600, Note_on_c, 0, 74, 51
2, 195644, Note_off_c, 0, 74, 0
2, 195648, Note_on_c, 0, 73, 51
2, 195740, Note_off_c, 0, 73, 100
2, 195744, Note_on_c, 0, 74, 51
2, 195836, Note_off_c, 0, 74, 100
2, 195840, Note_on_c, 0, 81, 51
2, 196220, Note_off_c, 0, 81, 100
2, 196224, Note_on_c, 0, 83, 51
2, 196604, Note_off_c, 0, 83, 100
2, 196608, Note_on_c, 0, 81, 51
2, 197372, Note_off_c, 0, 81, 100
2, 197376, Note_on_c, 0, 80, 51
2, 197756, Note_off_c, 0, 80, 100
2, 198336, Note_on_c, 0, 81, 51
2, 198480, Note_off_c, 0, 81, 100
2, 198528, Note_on_c, 0, 86, 51
2, 198672, Note_off_c, 0, 86, 100
2, 198720, Note_on_c, 0, 85, 51
2, 198864, Note_off_c, 0, 85, 100
2, 198912, Note_on_c, 0, 88, 51
2, 199056, Note_off_c, 0, 88, 100
2, 199104, Note_on_c, 0, 86, 51
2, 199248, Note_off_c, 0, 86, 100
2, 199296, Note_on_c, 0, 84, 51
2, 199440, Note_off_c, 0, 84, 100
2, 199488, Note_on_c, 0, 83, 51
2, 199632, Note_off_c, 0, 83, 100
2, 199680, Note_on_c, 0, 81, 51
2, 200352, Note_off_c, 0, 81, 100
2, 200352, Note_on_c, 0, 83, 51
2, 200400, Note_off_c, 0, 83, 0
2, 200400, Note_on_c, 0, 81, 51
2, 200448, Note_off_c, 0, 81, 0
2, 200448, Note_on_c, 0, 80, 51
2, 200828, Note_off_c, 0, 80, 100
2, 201216, Note_on_c, 0, 84, 51
2, 201216, Note_on_c, 0, 72, 51
2, 201980, Note_off_c, 0, 84, 100
2, 201980, Note_off_c, 0, 72, 100
2, 201984, Note_on_c, 0, 81, 51
2, 201984, Note_on_c, 0, 69, 51
2, 202748, Note_off_c, 0, 81, 100
2, 202748, Note_off_c, 0, 69, 100
2, 202752, Note_on_c, 0, 87, 51
2, 203324, Note_off_c, 0, 87, 100
2, 203328, Note_on_c, 0, 88, 51
2, 203420, Note_off_c, 0, 88, 100
2, 203424, Note_on_c, 0, 87, 51
2, 203516, Note_off_c, 0, 87, 100
2, 203520, Note_on_c, 0, 88, 51
2, 203900, Note_off_c, 0, 88, 100
2, 204288, Note_on_c, 0, 82, 51
2, 204288, Note_on_c, 0, 70, 51
2, 205052, Note_off_c, 0, 82, 100
2, 205052, Note_off_c, 0, 70, 100
2, 205056, Note_on_c, 0, 79, 51
2, 205056, Note_on_c, 0, 67, 51
2, 205820, Note_off_c, 0, 79, 100
2, 205820, Note_off_c, 0, 67, 100
2, 205824, Note_on_c, 0, 85, 51
2, 206396, Note_off_c, 0, 85, 100
2, 206400, Note_on_c, 0, 86, 51
2, 206492, Note_off_c, 0, 86, 100
2, 206496, Note_on_c, 0, 85, 51
2, 206588, Note_off_c, 0, 85, 100
2, 206592, Note_on_c, 0, 86, 51
2, 206972, Note_off_c, 0, 86, 100
2, 207360, Note_on_c, 0, 83, 51
2, 207932, Note_off_c, 0, 83, 100
2, 207936, Note_on_c, 0, 84, 51
2, 208028, Note_off_c, 0, 84, 100
2, 208032, Note_on_c, 0, 83, 51
2, 208124, Note_off_c, 0, 83, 100
2, 208128, Note_on_c, 0, 84, 51
2, 208508, Note_off_c, 0, 84, 100
2, 208896, Note_on_c, 0, 80, 51
2, 209468, Note_off_c, 0, 80, 100
2, 209472, Note_on_c, 0, 81, 51
2, 209564, Note_off_c, 0, 81, 100
2, 209568, Note_on_c, 0, 80, 51
2, 209660, Note_off_c, 0, 80, 100
2, 209664, Note_on_c, 0, 81, 51
2, 210044, Note_off_c, 0, 81, 100
2, 210624, Note_on_c, 0, 81, 51
2, 210768, Note_off_c, 0, 81, 100
2, 210816, Note_on_c, 0, 84, 51
2, 210960, Note_off_c, 0, 84, 100
2, 211008, Note_on_c, 0, 78, 51
2, 211152, Note_off_c, 0, 78, 100
2, 211200, Note_on_c, 0, 81, 51
2, 211344, Note_off_c, 0, 81, 100
2, 211392, Note_on_c, 0, 75, 51
2, 211536, Note_off_c, 0, 75, 100
2, 211584, Note_on_c, 0, 78, 51
2, 211728, Note_off_c, 0, 78, 100
2, 211776, Note_on_c, 0, 72, 51
2, 211920, Note_off_c, 0, 72, 100
2, 211968, Note_on_c, 0, 75, 51
2, 212112, Note_off_c, 0, 75, 100
2, 212160, Note_on_c, 0, 69, 51
2, 212304, Note_off_c, 0, 69, 100
2, 212352, Note_on_c, 0, 72, 51
2, 212496, Note_off_c, 0, 72, 100
2, 212544, Note_on_c, 0, 66, 51
2, 212688, Note_off_c, 0, 66, 100
2, 212736, Note_on_c, 0, 69, 51
2, 212880, Note_off_c, 0, 69, 100
2, 212928, Note_on_c, 0, 63, 51
2, 213072, Note_off_c, 0, 63, 100
2, 213120, Note_on_c, 0, 66, 51
2, 213264, Note_off_c, 0, 66, 100
2, 213312, Note_on_c, 0, 57, 51
2, 213456, Note_off_c, 0, 57, 100
2, 214656, Note_on_c, 0, 80, 51
2, 214656, Note_on_c, 0, 76, 51
2, 214656, Note_on_c, 0, 71, 51
2, 214656, Note_on_c, 0, 74, 51
2, 215036, Note_off_c, 0, 80, 100
2, 215036, Note_off_c, 0, 76, 100
2, 215036, Note_off_c, 0, 71, 100
2, 215036, Note_off_c, 0, 74, 100
2, 215040, Note_on_c, 0, 81, 51
2, 215040, Note_on_c, 0, 76, 51
2, 215040, Note_on_c, 0, 72, 51
2, 215420, Note_off_c, 0, 81, 100
2, 215420, Note_off_c, 0, 76, 100
2, 215420, Note_off_c, 0, 72, 100
2, 215424, Note_on_c, 0, 69, 51
2, 215616, Note_on_c, 0, 72, 51
2, 215760, Note_off_c, 0, 72, 100
2, 215804, Note_off_c, 0, 69, 100
2, 215808, Note_on_c, 0, 76, 51
2, 215808, Note_on_c, 0, 71, 51
2, 215952, Note_off_c, 0, 76, 100
2, 216000, Note_on_c, 0, 74, 51
2, 216144, Note_off_c, 0, 74, 100
2, 216188, Note_off_c, 0, 71, 100
2, 216192, Note_on_c, 0, 68, 51
2, 216384, Note_on_c, 0, 71, 51
2, 216528, Note_off_c, 0, 71, 100
2, 216572, Note_off_c, 0, 68, 100
2, 216576, Note_on_c, 0, 74, 51
2, 216576, Note_on_c, 0, 69, 51
2, 216720, Note_off_c, 0, 74, 100
2, 216768, Note_on_c, 0, 72, 51
2, 216912, Note_off_c, 0, 72, 100
2, 216956, Note_off_c, 0, 69, 100
2, 216960, Note_on_c, 0, 65, 51
2, 217152, Note_on_c, 0, 69, 51
2, 217296, Note_off_c, 0, 69, 100
2, 217340, Note_off_c, 0, 65, 100
2, 217344, Note_on_c, 0, 72, 51
2, 217344, Note_on_c, 0, 62, 51
2, 217488, Note_off_c, 0, 72, 100
2, 217536, Note_on_c, 0, 71, 51
2, 217680, Note_off_c, 0, 71, 100
2, 217724, Note_off_c, 0, 62, 100
2, 217728, Note_on_c, 0, 64, 51
2, 217920, Note_on_c, 0, 68, 51
2, 218064, Note_off_c, 0, 68, 100
2, 218108, Note_off_c, 0, 64, 100
2, 218112, Note_on_c, 0, 71, 51
2, 218112, Note_on_c, 0, 60, 51
2, 218256, Note_off_c, 0, 71, 100
2, 218304, Note_on_c, 0, 69, 51
2, 218448, Note_off_c, 0, 69, 100
2, 218492, Note_off_c, 0, 60, 100
2, 218496, Note_on_c, 0, 72, 72
2, 218588, Note_off_c, 0, 72, 100
2, 218592, Note_on_c, 0, 74, 72
2, 218684, Note_off_c, 0, 74, 100
2, 218688, Note_on_c, 0, 76, 72
2, 218780, Note_off_c, 0, 76, 100
2, 218784, Note_on_c, 0, 72, 72
2, 218876, Note_off_c, 0, 72, 100
2, 218880, Note_on_c, 0, 74, 72
2, 218972, Note_off_c, 0, 74, 100
2, 218976, Note_on_c, 0, 76, 72
2, 219068, Note_off_c, 0, 76, 100
2, 219072, Note_on_c, 0, 77, 72
2, 219164, Note_off_c, 0, 77, 100
2, 219168, Note_on_c, 0, 74, 72
2, 219260, Note_off_c, 0, 74, 100
2, 219264, Note_on_c, 0, 71, 72
2, 219356, Note_off_c, 0, 71, 100
2, 219360, Note_on_c, 0, 72, 72
2, 219452, Note_off_c, 0, 72, 100
2, 219456, Note_on_c, 0, 74, 72
2, 219548, Note_off_c, 0, 74, 100
2, 219552, Note_on_c, 0, 71, 72
2, 219644, Note_off_c, 0, 71, 100
2, 219648, Note_on_c, 0, 72, 72
2, 219740, Note_off_c, 0, 72, 100
2, 219744, Note_on_c, 0, 74, 72
2, 219836, Note_off_c, 0, 74, 100
2, 219840, Note_on_c, 0, 76, 72
2, 219932, Note_off_c, 0, 76, 100
2, 219936, Note_on_c, 0, 72, 72
2, 220028, Note_off_c, 0, 72, 100
2, 220032, Note_on_c, 0, 69, 72
2, 220124, Note_off_c, 0, 69, 100
2, 220128, Note_on_c, 0, 71, 72
2, 220220, Note_off_c, 0, 71, 100
2, 220224, Note_on_c, 0, 72, 72
2, 220316, Note_off_c, 0, 72, 100
2, 220320, Note_on_c, 0, 69, 72
2, 220412, Note_off_c, 0, 69, 100
2, 220416, Note_on_c, 0, 71, 72
2, 220508, Note_off_c, 0, 71, 100
2, 220512, Note_on_c, 0, 72, 72
2, 220604, Note_off_c, 0, 72, 100
2, 220608, Note_on_c, 0, 74, 72
2, 220700, Note_off_c, 0, 74, 100
2, 220704, Note_on_c, 0, 71, 72
2, 220796, Note_off_c, 0, 71, 100
2, 220800, Note_on_c, 0, 68, 72
2, 220892, Note_off_c, 0, 68, 100
2, 220896, Note_on_c, 0, 69, 72
2, 220988, Note_off_c, 0, 69, 100
2, 220992, Note_on_c, 0, 71, 72
2, 221084, Note_off_c, 0, 71, 100
2, 221088, Note_on_c, 0, 68, 72
2, 221180, Note_off_c, 0, 68, 100
2, 221184, Note_on_c, 0, 57, 72
2, 221228, Note_off_c, 0, 57, 0
2, 221232, Note_on_c, 0, 60, 72
2, 221276, Note_off_c, 0, 60, 0
2, 221280, Note_on_c, 0, 64, 72
2, 221324, Note_off_c, 0, 64, 0
2, 221328, Note_on_c, 0, 69, 72
2, 221932, Note_off_c, 0, 69, 100
2, 221952, Note_on_c, 0, 64, 72
2, 222716, Note_off_c, 0, 64, 100
2, 222720, Note_on_c, 0, 72, 72
2, 223292, Note_off_c, 0, 72, 100
2, 223296, Note_on_c, 0, 74, 72
2, 223344, Note_off_c, 0, 74, 100
2, 223392, Note_on_c, 0, 71, 72
2, 223440, Note_off_c, 0, 71, 100
2, 223488, Note_on_c, 0, 69, 72
2, 223868, Note_off_c, 0, 69, 100
2, 224256, Note_on_c, 0, 76, 51
2, 224256, Note_on_c, 0, 72, 51
2, 224828, Note_off_c, 0, 76, 100
2, 224828, Note_off_c, 0, 72, 100
2, 224832, Note_on_c, 0, 77, 51
2, 224832, Note_on_c, 0, 74, 51
2, 224924, Note_off_c, 0, 77, 100
2, 224924, Note_off_c, 0, 74, 100
2, 224928, Note_on_c, 0, 74, 51
2, 224928, Note_on_c, 0, 71, 51
2, 225020, Note_off_c, 0, 74, 100
2, 225020, Note_off_c, 0, 71, 100
2, 225024, Note_on_c, 0, 72, 51
2, 225024, Note_on_c, 0, 69, 51
2, 225404, Note_off_c, 0, 72, 100
2, 225404, Note_off_c, 0, 69, 100
2, 225792, Note_on_c, 0, 84, 41
2, 225792, Note_on_c, 0, 76, 41
2, 226364, Note_off_c, 0, 84, 100
2, 226364, Note_off_c, 0, 76, 100
2, 226368, Note_on_c, 0, 86, 41
2, 226368, Note_on_c, 0, 77, 41
2, 226460, Note_off_c, 0, 86, 100
2, 226460, Note_off_c, 0, 77, 100
2, 226464, Note_on_c, 0, 83, 41
2, 226464, Note_on_c, 0, 74, 41
2, 226556, Note_off_c, 0, 83, 100
2, 226556, Note_off_c, 0, 74, 100
2, 226560, Note_on_c, 0, 81, 41
2, 226560, Note_on_c, 0, 72, 41
2, 226940, Note_off_c, 0, 81, 100
2, 226940, Note_off_c, 0, 72, 100
2, 227328, Note_on_c, 0, 59, 72
2, 227376, Note_off_c, 0, 59, 0
2, 227376, Note_on_c, 0, 62, 72
2, 227424, Note_off_c, 0, 62, 0
2, 227424, Note_on_c, 0, 67, 72
2, 227472, Note_off_c, 0, 67, 0
2, 227472, Note_on_c, 0, 71, 72
2, 228076, Note_off_c, 0, 71, 100
2, 228096, Note_on_c, 0, 67, 72
2, 228860, Note_off_c, 0, 67, 100
2, 228864, Note_on_c, 0, 74, 72
2, 229436, Note_off_c, 0, 74, 100
2, 229440, Note_on_c, 0, 76, 72
2, 229532, Note_off_c, 0, 76, 100
2, 229536, Note_on_c, 0, 72, 72
2, 229628, Note_off_c, 0, 72, 100
2, 229632, Note_on_c, 0, 71, 72
2, 230012, Note_off_c, 0, 71, 100
2, 230400, Note_on_c, 0, 77, 51
2, 230400, Note_on_c, 0, 74, 51
2, 230972, Note_off_c, 0, 77, 100
2, 230972, Note_off_c, 0, 74, 100
2, 230976, Note_on_c, 0, 79, 51
2, 230976, Note_on_c, 0, 76, 51
2, 231068, Note_off_c, 0, 79, 100
2, 231068, Note_off_c, 0, 76, 100
2, 231072, Note_on_c, 0, 76, 51
2, 231072, Note_on_c, 0, 72, 51
2, 231164, Note_off_c, 0, 76, 100
2, 231164, Note_off_c, 0, 72, 100
2, 231168, Note_on_c, 0, 74, 51
2, 231168, Note_on_c, 0, 71, 51
2, 231548, Note_off_c, 0, 74, 100
2, 231548, Note_off_c, 0, 71, 100
2, 231936, Note_on_c, 0, 86, 41
2, 231936, Note_on_c, 0, 77, 41
2, 232508, Note_off_c, 0, 86, 100
2, 232508, Note_off_c, 0, 77, 100
2, 232512, Note_on_c, 0, 88, 41
2, 232512, Note_on_c, 0, 79, 41
2, 232604, Note_off_c, 0, 88, 100
2, 232604, Note_off_c, 0, 79, 100
2, 232608, Note_on_c, 0, 84, 41
2, 232608, Note_on_c, 0, 76, 41
2, 232700, Note_off_c, 0, 84, 100
2, 232700, Note_off_c, 0, 76, 100
2, 232704, Note_on_c, 0, 83, 41
2, 232704, Note_on_c, 0, 74, 41
2, 233084, Note_off_c, 0, 83, 100
2, 233084, Note_off_c, 0, 74, 100
2, 233472, Note_on_c, 0, 60, 72
2, 233520, Note_off_c, 0, 60, 0
2, 233520, Note_on_c, 0, 64, 72
2, 233568, Note_off_c, 0, 64, 0
2, 233568, Note_on_c, 0, 67, 72
2, 233616, Note_off_c, 0, 67, 0
2, 233616, Note_on_c, 0, 72, 72
2, 234220, Note_off_c, 0, 72, 100
2, 234240, Note_on_c, 0, 67, 72
2, 235004, Note_off_c, 0, 67, 100
2, 235008, Note_on_c, 0, 76, 72
2, 235580, Note_off_c, 0, 76, 100
2, 235584, Note_on_c, 0, 77, 72
2, 235676, Note_off_c, 0, 77, 100
2, 235680, Note_on_c, 0, 74, 72
2, 235772, Note_off_c, 0, 74, 100
2, 235776, Note_on_c, 0, 72, 72
2, 236156, Note_off_c, 0, 72, 100
2, 236544, Note_on_c, 0, 79, 51
2, 236544, Note_on_c, 0, 64, 51
2, 236688, Note_off_c, 0, 64, 100
2, 236736, Note_on_c, 0, 67, 51
2, 236880, Note_off_c, 0, 67, 100
2, 236924, Note_off_c, 0, 79, 100
2, 236928, Note_on_c, 0, 79, 51
2, 236928, Note_on_c, 0, 64, 51
2, 237072, Note_off_c, 0, 64, 100
2, 237120, Note_on_c, 0, 67, 51
2, 237264, Note_off_c, 0, 67, 100
2, 237308, Note_off_c, 0, 79, 100
2, 237312, Note_on_c, 0, 61, 51
2, 237456, Note_off_c, 0, 61, 100
2, 237504, Note_on_c, 0, 67, 51
2, 237648, Note_off_c, 0, 67, 100
2, 237696, Note_on_c, 0, 81, 51
2, 237696, Note_on_c, 0, 61, 51
2, 237840, Note_off_c, 0, 61, 100
2, 237888, Note_on_c, 0, 67, 51
2, 238032, Note_off_c, 0, 67, 100
2, 238076, Note_off_c, 0, 81, 100
2, 238080, Note_on_c, 0, 79, 51
2, 238080, Note_on_c, 0, 62, 51
2, 238128, Note_on_c, 0, 77, 51
2, 238224, Note_off_c, 0, 79, 100
2, 238224, Note_off_c, 0, 62, 100
2, 238272, Note_on_c, 0, 67, 51
2, 238416, Note_off_c, 0, 67, 100
2, 238464, Note_on_c, 0, 77, 51
2, 238464, Note_on_c, 0, 62, 51
2, 238508, Note_off_c, 0, 77, 100
2, 238608, Note_off_c, 0, 62, 100
2, 238656, Note_on_c, 0, 67, 51
2, 238800, Note_off_c, 0, 67, 100
2, 238844, Note_off_c, 0, 77, 100
2, 238848, Note_on_c, 0, 59, 51
2, 238992, Note_off_c, 0, 59, 100
2, 239040, Note_on_c, 0, 67, 51
2, 239184, Note_off_c, 0, 67, 100
2, 239232, Note_on_c, 0, 79, 51
2, 239232, Note_on_c, 0, 59, 51
2, 239376, Note_off_c, 0, 59, 100
2, 239424, Note_on_c, 0, 67, 51
2, 239472, Note_off_c, 0, 79, 100
2, 239568, Note_off_c, 0, 67, 100
2, 239616, Note_on_c, 0, 77, 51
2, 239616, Note_on_c, 0, 60, 51
2, 239664, Note_on_c, 0, 76, 51
2, 239760, Note_off_c, 0, 77, 100
2, 239760, Note_off_c, 0, 60, 100
2, 239808, Note_on_c, 0, 67, 51
2, 239952, Note_off_c, 0, 67, 100
2, 240000, Note_on_c, 0, 76, 51
2, 240000, Note_on_c, 0, 60, 51
2, 240044, Note_off_c, 0, 76, 100
2, 240144, Note_off_c, 0, 60, 100
2, 240192, Note_on_c, 0, 67, 51
2, 240336, Note_off_c, 0, 67, 100
2, 240380, Note_off_c, 0, 76, 100
2, 240384, Note_on_c, 0, 64, 51
2, 240528, Note_off_c, 0, 64, 100
2, 240576, Note_on_c, 0, 67, 51
2, 240720, Note_off_c, 0, 67, 100
2, 240768, Note_on_c, 0, 79, 51
2, 240768, Note_on_c, 0, 64, 51
2, 240912, Note_off_c, 0, 79, 100
2, 240912, Note_off_c, 0, 64, 100
2, 240960, Note_on_c, 0, 76, 51
2, 240960, Note_on_c, 0, 67, 51
2, 241104, Note_off_c, 0, 76, 100
2, 241104, Note_off_c, 0, 67, 100
2, 241152, Note_on_c, 0, 73, 51
2, 241152, Note_on_c, 0, 69, 51
2, 241152, Note_on_c, 0, 65, 51
2, 241296, Note_off_c, 0, 73, 100
2, 241344, Note_on_c, 0, 74, 51
2, 241488, Note_off_c, 0, 74, 100
2, 241536, Note_on_c, 0, 77, 51
2, 241680, Note_off_c, 0, 77, 100
2, 241728, Note_on_c, 0, 76, 51
2, 241872, Note_off_c, 0, 76, 100
2, 241920, Note_on_c, 0, 73, 51
2, 242064, Note_off_c, 0, 73, 100
2, 242112, Note_on_c, 0, 74, 51
2, 242256, Note_off_c, 0, 74, 100
2, 242304, Note_on_c, 0, 77, 51
2, 242448, Note_off_c, 0, 77, 100
2, 242496, Note_on_c, 0, 76, 51
2, 242640, Note_off_c, 0, 76, 100
2, 242684, Note_off_c, 0, 69, 100
2, 242684, Note_off_c, 0, 65, 100
2, 242688, Note_on_c, 0, 73, 51
2, 242832, Note_off_c, 0, 73, 100
2, 242880, Note_on_c, 0, 74, 51
2, 243024, Note_off_c, 0, 74, 100
2, 243072, Note_on_c, 0, 77, 51
2, 243216, Note_off_c, 0, 77, 100
2, 243264, Note_on_c, 0, 81, 51
2, 243408, Note_off_c, 0, 81, 100
2, 243456, Note_on_c, 0, 79, 51
2, 243600, Note_off_c, 0, 79, 100
2, 243648, Note_on_c, 0, 76, 51
2, 243792, Note_off_c, 0, 76, 100
2, 243840, Note_on_c, 0, 77, 51
2, 243984, Note_off_c, 0, 77, 100
2, 244032, Note_on_c, 0, 74, 51
2, 244176, Note_off_c, 0, 74, 100
2, 244224, Note_on_c, 0, 60, 72
2, 244272, Note_off_c, 0, 60, 0
2, 244272, Note_on_c, 0, 63, 72
2, 244320, Note_off_c, 0, 63, 0
2, 244320, Note_on_c, 0, 67, 72
2, 244368, Note_off_c, 0, 67, 0
2, 244368, Note_on_c, 0, 72, 72
2, 244972, Note_off_c, 0, 72, 100
2, 244992, Note_on_c, 0, 67, 72
2, 245756, Note_off_c, 0, 67, 100
2, 245760, Note_on_c, 0, 75, 72
2, 246332, Note_off_c, 0, 75, 100
2, 246336, Note_on_c, 0, 77, 72
2, 246428, Note_off_c, 0, 77, 100
2, 246432, Note_on_c, 0, 74, 72
2, 246524, Note_off_c, 0, 74, 100
2, 246528, Note_on_c, 0, 72, 72
2, 246908, Note_off_c, 0, 72, 100
2, 247296, Note_on_c, 0, 63, 51
2, 247296, Note_on_c, 0, 78, 51
2, 247340, Note_off_c, 0, 78, 100
2, 247344, Note_on_c, 0, 79, 51
2, 247440, Note_off_c, 0, 63, 100
2, 247488, Note_on_c, 0, 67, 51
2, 247632, Note_off_c, 0, 67, 100
2, 247680, Note_on_c, 0, 79, 51
2, 247680, Note_on_c, 0, 63, 51
2, 247684, Note_off_c, 0, 79, 100
2, 247824, Note_off_c, 0, 63, 100
2, 247872, Note_on_c, 0, 67, 51
2, 248016, Note_off_c, 0, 67, 100
2, 248060, Note_off_c, 0, 79, 100
2, 248064, Note_on_c, 0, 60, 51
2, 248208, Note_off_c, 0, 60, 100
2, 248256, Note_on_c, 0, 72, 51
2, 248256, Note_on_c, 0, 67, 51
2, 248400, Note_off_c, 0, 72, 100
2, 248400, Note_off_c, 0, 67, 100
2, 248448, Note_on_c, 0, 84, 51
2, 248448, Note_on_c, 0, 60, 51
2, 248592, Note_off_c, 0, 84, 100
2, 248592, Note_off_c, 0, 60, 100
2, 248640, Note_on_c, 0, 80, 51
2, 248640, Note_on_c, 0, 67, 51
2, 248784, Note_off_c, 0, 80, 100
2, 248784, Note_off_c, 0, 67, 100
2, 248832, Note_on_c, 0, 79, 51
2, 248832, Note_on_c, 0, 62, 51
2, 248976, Note_off_c, 0, 79, 100
2, 248976, Note_off_c, 0, 62, 100
2, 249024, Note_on_c, 0, 78, 51
2, 249024, Note_on_c, 0, 67, 51
2, 249168, Note_off_c, 0, 78, 100
2, 249168, Note_off_c, 0, 67, 100
2, 249216, Note_on_c, 0, 77, 51
2, 249216, Note_on_c, 0, 62, 51
2, 249360, Note_off_c, 0, 62, 100
2, 249408, Note_on_c, 0, 67, 51
2, 249552, Note_off_c, 0, 67, 100
2, 249596, Note_off_c, 0, 77, 100
2, 249600, Note_on_c, 0, 59, 51
2, 249744, Note_off_c, 0, 59, 100
2, 249792, Note_on_c, 0, 77, 51
2, 249792, Note_on_c, 0, 67, 51
2, 249936, Note_off_c, 0, 77, 100
2, 249936, Note_off_c, 0, 67, 100
2, 249984, Note_on_c, 0, 80, 51
2, 249984, Note_on_c, 0, 59, 51
2, 250128, Note_off_c, 0, 80, 100
2, 250128, Note_off_c, 0, 59, 100
2, 250176, Note_on_c, 0, 77, 51
2, 250176, Note_on_c, 0, 67, 51
2, 250320, Note_off_c, 0, 77, 100
2, 250320, Note_off_c, 0, 67, 100
2, 250368, Note_on_c, 0, 77, 72
2, 250368, Note_on_c, 0, 61, 51
2, 250368, Note_on_c, 0, 58, 51
2, 250512, Note_off_c, 0, 77, 100
2, 250512, Note_off_c, 0, 61, 100
2, 250512, Note_off_c, 0, 58, 100
2, 250560, Note_on_c, 0, 76, 72
2, 250560, Note_on_c, 0, 67, 51
2, 250704, Note_off_c, 0, 76, 100
2, 250704, Note_off_c, 0, 67, 100
2, 250752, Note_on_c, 0, 85, 51
2, 250752, Note_on_c, 0, 61, 51
2, 250752, Note_on_c, 0, 58, 51
2, 250896, Note_off_c, 0, 61, 100
2, 250896, Note_off_c, 0, 58, 100
2, 250944, Note_on_c, 0, 67, 51
2, 251088, Note_off_c, 0, 67, 100
2, 251136, Note_on_c, 0, 61, 51
2, 251136, Note_on_c, 0, 58, 51
2, 251280, Note_off_c, 0, 61, 100
2, 251280, Note_off_c, 0, 58, 100
2, 251328, Note_on_c, 0, 67, 51
2, 251472, Note_off_c, 0, 67, 100
2, 251516, Note_off_c, 0, 85, 100
2, 251520, Note_on_c, 0, 61, 51
2, 251520, Note_on_c, 0, 58, 51
2, 251520, Note_on_c, 0, 76, 51
2, 251664, Note_off_c, 0, 61, 100
2, 251664, Note_off_c, 0, 58, 100
2, 251712, Note_on_c, 0, 67, 51
2, 251856, Note_off_c, 0, 67, 100
2, 251900, Note_off_c, 0, 76, 100
2, 251904, Note_on_c, 0, 79, 51
2, 251904, Note_on_c, 0, 60, 51
2, 251904, Note_on_c, 0, 56, 51
2, 252048, Note_off_c, 0, 60, 100
2, 252048, Note_off_c, 0, 56, 100
2, 252096, Note_on_c, 0, 64, 51
2, 252240, Note_off_c, 0, 64, 100
2, 252284, Note_off_c, 0, 79, 100
2, 252288, Note_on_c, 0, 77, 51
2, 252288, Note_on_c, 0, 60, 51
2, 252288, Note_on_c, 0, 56, 51
2, 252432, Note_off_c, 0, 60, 100
2, 252432, Note_off_c, 0, 56, 100
2, 252480, Note_on_c, 0, 65, 51
2, 252624, Note_off_c, 0, 65, 100
2, 252668, Note_off_c, 0, 77, 100
2, 252672, Note_on_c, 0, 60, 51
2, 252672, Note_on_c, 0, 56, 51
2, 252816, Note_off_c, 0, 60, 100
2, 252816, Note_off_c, 0, 56, 100
2, 252864, Note_on_c, 0, 77, 51
2, 252864, Note_on_c, 0, 65, 51
2, 253008, Note_off_c, 0, 77, 100
2, 253008, Note_off_c, 0, 65, 100
2, 253056, Note_on_c, 0, 84, 51
2, 253056, Note_on_c, 0, 60, 51
2, 253056, Note_on_c, 0, 56, 51
2, 253200, Note_off_c, 0, 84, 100
2, 253200, Note_off_c, 0, 60, 100
2, 253200, Note_off_c, 0, 56, 100
2, 253248, Note_on_c, 0, 80, 51
2, 253248, Note_on_c, 0, 65, 51
2, 253392, Note_off_c, 0, 80, 100
2, 253392, Note_off_c, 0, 65, 100
2, 253440, Note_on_c, 0, 79, 72
2, 253440, Note_on_c, 0, 63, 51
2, 253440, Note_on_c, 0, 60, 51
2, 253584, Note_off_c, 0, 79, 100
2, 253584, Note_off_c, 0, 63, 100
2, 253584, Note_off_c, 0, 60, 100
2, 253632, Note_on_c, 0, 78, 72
2, 253632, Note_on_c, 0, 69, 51
2, 253776, Note_off_c, 0, 78, 100
2, 253776, Note_off_c, 0, 69, 100
2, 253824, Note_on_c, 0, 63, 51
2, 253824, Note_on_c, 0, 60, 51
2, 253824, Note_on_c, 0, 87, 51
2, 253968, Note_off_c, 0, 63, 100
2, 253968, Note_off_c, 0, 60, 100
2, 254016, Note_on_c, 0, 69, 51
2, 254160, Note_off_c, 0, 69, 100
2, 254208, Note_on_c, 0, 63, 51
2, 254208, Note_on_c, 0, 60, 51
2, 254352, Note_off_c, 0, 63, 100
2, 254352, Note_off_c, 0, 60, 100
2, 254400, Note_on_c, 0, 69, 51
2, 254544, Note_off_c, 0, 69, 100
2, 254588, Note_off_c, 0, 87, 100
2, 254592, Note_on_c, 0, 63, 51
2, 254592, Note_on_c, 0, 60, 51
2, 254592, Note_on_c, 0, 78, 51
2, 254736, Note_off_c, 0, 63, 100
2, 254736, Note_off_c, 0, 60, 100
2, 254784, Note_on_c, 0, 69, 51
2, 254928, Note_off_c, 0, 69, 100
2, 254972, Note_off_c, 0, 78, 100
2, 254976, Note_on_c, 0, 81, 41
2, 254976, Note_on_c, 0, 62, 41
2, 254976, Note_on_c, 0, 59, 41
2, 255120, Note_off_c, 0, 81, 100
2, 255168, Note_on_c, 0, 79, 41
2, 255312, Note_off_c, 0, 79, 100
2, 255356, Note_off_c, 0, 62, 100
2, 255356, Note_off_c, 0, 59, 100
2, 255360, Note_on_c, 0, 78, 41
2, 255504, Note_off_c, 0, 78, 100
2, 255552, Note_on_c, 0, 79, 41
2, 255696, Note_off_c, 0, 79, 100
2, 255744, Note_on_c, 0, 78, 41
2, 255888, Note_off_c, 0, 78, 100
2, 255936, Note_on_c, 0, 79, 41
2, 256080, Note_off_c, 0, 79, 100
2, 256128, Note_on_c, 0, 78, 41
2, 256272, Note_off_c, 0, 78, 100
2, 256320, Note_on_c, 0, 79, 41
2, 256464, Note_off_c, 0, 79, 100
2, 256512, Note_on_c, 0, 77, 46
2, 256656, Note_off_c, 0, 77, 100
2, 256704, Note_on_c, 0, 79, 51
2, 256704, Note_on_c, 0, 67, 51
2, 256848, Note_off_c, 0, 79, 100
2, 256848, Note_off_c, 0, 67, 100
2, 256896, Note_on_c, 0, 77, 55
2, 256896, Note_on_c, 0, 66, 55
2, 257040, Note_off_c, 0, 77, 100
2, 257040, Note_off_c, 0, 66, 100
2, 257088, Note_on_c, 0, 79, 57
2, 257088, Note_on_c, 0, 67, 57
2, 257232, Note_off_c, 0, 79, 100
2, 257232, Note_off_c, 0, 67, 100
2, 257280, Note_on_c, 0, 80, 61
2, 257280, Note_on_c, 0, 68, 61
2, 257424, Note_off_c, 0, 80, 100
2, 257424, Note_off_c, 0, 68, 100
2, 257472, Note_on_c, 0, 81, 66
2, 257472, Note_on_c, 0, 69, 66
2, 257616, Note_off_c, 0, 81, 100
2, 257616, Note_off_c, 0, 69, 100
2, 257664, Note_on_c, 0, 82, 67
2, 257664, Note_on_c, 0, 70, 67
2, 257808, Note_off_c, 0, 82, 100
2, 257808, Note_off_c, 0, 70, 100
2, 257856, Note_on_c, 0, 83, 70
2, 257856, Note_on_c, 0, 71, 70
2, 258000, Note_off_c, 0, 83, 100
2, 258000, Note_off_c, 0, 71, 100
2, 258048, Note_on_c, 0, 84, 72
2, 258048, Note_on_c, 0, 72, 72
2, 258192, Note_off_c, 0, 84, 100
2, 258192, Note_off_c, 0, 72, 100
2, 258240, Note_on_c, 0, 84, 72
2, 258240, Note_on_c, 0, 72, 72
2, 258384, Note_off_c, 0, 84, 100
2, 258384, Note_off_c, 0, 72, 100
2, 258432, Note_on_c, 0, 84, 72
2, 258432, Note_on_c, 0, 72, 72
2, 259196, Note_off_c, 0, 84, 100
2, 259196, Note_off_c, 0, 72, 100
2, 259200, Note_on_c, 0, 83, 51
2, 259344, Note_off_c, 0, 83, 100
2, 259392, Note_on_c, 0, 81, 51
2, 259536, Note_off_c, 0, 81, 100
2, 259584, Note_on_c, 0, 79, 72
2, 259584, Note_on_c, 0, 72, 72
2, 259728, Note_off_c, 0, 79, 100
2, 259728, Note_off_c, 0, 72, 100
2, 259776, Note_on_c, 0, 79, 72
2, 259776, Note_on_c, 0, 72, 72
2, 259920, Note_off_c, 0, 79, 100
2, 259920, Note_off_c, 0, 72, 100
2, 259968, Note_on_c, 0, 79, 72
2, 259968, Note_on_c, 0, 72, 72
2, 260732, Note_off_c, 0, 79, 100
2, 260732, Note_off_c, 0, 72, 100
2, 260736, Note_on_c, 0, 77, 51
2, 260880, Note_off_c, 0, 77, 100
2, 260928, Note_on_c, 0, 76, 51
2, 261072, Note_off_c, 0, 76, 100
2, 261120, Note_on_c, 0, 76, 51
2, 261212, Note_off_c, 0, 76, 100
2, 261216, Note_on_c, 0, 74, 51
2, 261308, Note_off_c, 0, 74, 100
2, 261312, Note_on_c, 0, 77, 51
2, 261404, Note_off_c, 0, 77, 100
2, 261408, Note_on_c, 0, 76, 51
2, 261500, Note_off_c, 0, 76, 100
2, 261504, Note_on_c, 0, 79, 51
2, 261548, Note_off_c, 0, 79, 100
2, 261552, Note_on_c, 0, 77, 51
2, 261692, Note_off_c, 0, 77, 100
2, 261696, Note_on_c, 0, 76, 51
2, 261788, Note_off_c, 0, 76, 100
2, 261792, Note_on_c, 0, 74, 51
2, 261884, Note_off_c, 0, 74, 100
2, 261888, Note_on_c, 0, 72, 51
2, 262268, Note_off_c, 0, 72, 100
2, 262272, Note_on_c, 0, 71, 51
2, 262316, Note_off_c, 0, 71, 0
2, 262320, Note_on_c, 0, 72, 51
2, 262364, Note_off_c, 0, 72, 0
2, 262368, Note_on_c, 0, 71, 51
2, 262412, Note_off_c, 0, 71, 0
2, 262416, Note_on_c, 0, 72, 51
2, 262460, Note_off_c, 0, 72, 0
2, 262464, Note_on_c, 0, 69, 51
2, 262556, Note_off_c, 0, 69, 0
2, 262560, Note_on_c, 0, 71, 51
2, 262652, Note_off_c, 0, 71, 0
2, 262656, Note_on_c, 0, 84, 72
2, 262656, Note_on_c, 0, 72, 72
2, 262800, Note_off_c, 0, 84, 100
2, 262800, Note_off_c, 0, 72, 100
2, 262848, Note_on_c, 0, 84, 72
2, 262848, Note_on_c, 0, 72, 72
2, 262992, Note_off_c, 0, 84, 100
2, 262992, Note_off_c, 0, 72, 100
2, 263040, Note_on_c, 0, 84, 72
2, 263040, Note_on_c, 0, 72, 72
2, 263612, Note_off_c, 0, 84, 100
2, 263612, Note_off_c, 0, 72, 100
2, 263616, Note_on_c, 0, 86, 51
2, 263708, Note_off_c, 0, 86, 100
2, 263712, Note_on_c, 0, 84, 51
2, 263804, Note_off_c, 0, 84, 100
2, 263808, Note_on_c, 0, 83, 51
2, 263996, Note_off_c, 0, 83, 100
2, 264000, Note_on_c, 0, 81, 51
2, 264188, Note_off_c, 0, 81, 100
2, 264192, Note_on_c, 0, 79, 72
2, 264192, Note_on_c, 0, 72, 72
2, 264336, Note_off_c, 0, 79, 100
2, 264336, Note_off_c, 0, 72, 100
2, 264384, Note_on_c, 0, 79, 72
2, 264384, Note_on_c, 0, 72, 72
2, 264528, Note_off_c, 0, 79, 100
2, 264528, Note_off_c, 0, 72, 100
2, 264576, Note_on_c, 0, 79, 72
2, 264576, Note_on_c, 0, 72, 72
2, 265148, Note_off_c, 0, 79, 100
2, 265148, Note_off_c, 0, 72, 100
2, 265152, Note_on_c, 0, 81, 51
2, 265244, Note_off_c, 0, 81, 100
2, 265248, Note_on_c, 0, 79, 51
2, 265340, Note_off_c, 0, 79, 100
2, 265344, Note_on_c, 0, 77, 51
2, 265532, Note_off_c, 0, 77, 100
2, 265536, Note_on_c, 0, 76, 51
2, 265724, Note_off_c, 0, 76, 100
2, 265728, Note_on_c, 0, 76, 51
2, 265820, Note_off_c, 0, 76, 100
2, 265824, Note_on_c, 0, 74, 51
2, 265916, Note_off_c, 0, 74, 100
2, 265920, Note_on_c, 0, 81, 51
2, 266012, Note_off_c, 0, 81, 100
2, 266016, Note_on_c, 0, 80, 51
2, 266108, Note_off_c, 0, 80, 100
2, 266112, Note_on_c, 0, 83, 51
2, 266156, Note_off_c, 0, 83, 100
2, 266160, Note_on_c, 0, 81, 51
2, 266300, Note_off_c, 0, 81, 100
2, 266304, Note_on_c, 0, 79, 51
2, 266396, Note_off_c, 0, 79, 100
2, 266400, Note_on_c, 0, 77, 51
2, 266492, Note_off_c, 0, 77, 100
2, 266496, Note_on_c, 0, 76, 51
2, 266876, Note_off_c, 0, 76, 100
2, 266880, Note_on_c, 0, 74, 51
2, 266924, Note_off_c, 0, 74, 0
2, 266928, Note_on_c, 0, 76, 51
2, 266972, Note_off_c, 0, 76, 0
2, 266976, Note_on_c, 0, 74, 51
2, 267020, Note_off_c, 0, 74, 0
2, 267024, Note_on_c, 0, 76, 51
2, 267068, Note_off_c, 0, 76, 0
2, 267072, Note_on_c, 0, 72, 51
2, 267164, Note_off_c, 0, 72, 0
2, 267168, Note_on_c, 0, 74, 51
2, 267260, Note_off_c, 0, 74, 0
2, 267264, Note_on_c, 0, 72, 72
2, 267504, Note_off_c, 0, 72, 100
2, 267792, Note_on_c, 0, 74, 51
2, 267836, Note_off_c, 0, 74, 0
2, 267840, Note_on_c, 0, 72, 51
2, 267932, Note_off_c, 0, 72, 100
2, 267936, Note_on_c, 0, 71, 51
2, 268028, Note_off_c, 0, 71, 100
2, 268032, Note_on_c, 0, 72, 51
2, 268176, Note_off_c, 0, 72, 100
2, 268224, Note_on_c, 0, 75, 51
2, 268368, Note_off_c, 0, 75, 100
2, 268416, Note_on_c, 0, 76, 51
2, 268560, Note_off_c, 0, 76, 100
2, 268608, Note_on_c, 0, 78, 51
2, 268752, Note_off_c, 0, 78, 100
2, 268800, Note_on_c, 0, 79, 51
2, 268944, Note_off_c, 0, 79, 100
2, 268992, Note_on_c, 0, 83, 51
2, 269136, Note_off_c, 0, 83, 100
2, 269136, Note_on_c, 0, 84, 51
2, 269280, Note_off_c, 0, 84, 100
2, 269376, Note_on_c, 0, 87, 51
2, 269520, Note_off_c, 0, 87, 100
2, 269568, Note_on_c, 0, 88, 51
2, 269948, Note_off_c, 0, 88, 100
2, 270336, Note_on_c, 0, 74, 72
2, 270352, Note_on_c, 0, 79, 72
2, 270372, Note_on_c, 0, 86, 72
2, 270716, Note_off_c, 0, 74, 100
2, 270732, Note_off_c, 0, 79, 100
2, 270752, Note_off_c, 0, 86, 100
2, 270864, Note_on_c, 0, 72, 51
2, 270908, Note_off_c, 0, 72, 100
2, 270912, Note_on_c, 0, 71, 51
2, 271004, Note_off_c, 0, 71, 100
2, 271008, Note_on_c, 0, 69, 51
2, 271100, Note_off_c, 0, 69, 100
2, 271104, Note_on_c, 0, 71, 51
2, 271248, Note_off_c, 0, 71, 100
2, 271296, Note_on_c, 0, 73, 51
2, 271440, Note_off_c, 0, 73, 100
2, 271488, Note_on_c, 0, 74, 51
2, 271632, Note_off_c, 0, 74, 100
2, 271680, Note_on_c, 0, 78, 51
2, 271824, Note_off_c, 0, 78, 100
2, 271872, Note_on_c, 0, 79, 51
2, 272016, Note_off_c, 0, 79, 100
2, 272064, Note_on_c, 0, 81, 51
2, 272208, Note_off_c, 0, 81, 100
2, 272256, Note_on_c, 0, 83, 51
2, 272400, Note_off_c, 0, 83, 100
2, 272448, Note_on_c, 0, 85, 51
2, 272592, Note_off_c, 0, 85, 100
2, 272640, Note_on_c, 0, 86, 51
2, 273020, Note_off_c, 0, 86, 100
2, 273408, Note_on_c, 0, 72, 72
2, 273424, Note_on_c, 0, 78, 72
2, 273444, Note_on_c, 0, 84, 72
2, 273788, Note_off_c, 0, 72, 100
2, 273804, Note_off_c, 0, 78, 100
2, 273824, Note_off_c, 0, 84, 100
2, 273936, Note_on_c, 0, 71, 51
2, 273980, Note_off_c, 0, 71, 100
2, 273984, Note_on_c, 0, 69, 51
2, 274076, Note_off_c, 0, 69, 100
2, 274080, Note_on_c, 0, 68, 51
2, 274172, Note_off_c, 0, 68, 100
2, 274176, Note_on_c, 0, 69, 51
2, 274320, Note_off_c, 0, 69, 100
2, 274368, Note_on_c, 0, 71, 51
2, 274512, Note_off_c, 0, 71, 100
2, 274560, Note_on_c, 0, 72, 51
2, 274704, Note_off_c, 0, 72, 100
2, 274752, Note_on_c, 0, 77, 51
2, 274896, Note_off_c, 0, 77, 100
2, 274944, Note_on_c, 0, 78, 51
2, 275088, Note_off_c, 0, 78, 100
2, 275136, Note_on_c, 0, 80, 51
2, 275280, Note_off_c, 0, 80, 100
2, 275328, Note_on_c, 0, 81, 51
2, 275472, Note_off_c, 0, 81, 100
2, 275520, Note_on_c, 0, 83, 51
2, 275664, Note_off_c, 0, 83, 100
2, 275712, Note_on_c, 0, 84, 51
2, 276092, Note_off_c, 0, 84, 100
2, 276480, Note_on_c, 0, 83, 72
2, 276572, Note_off_c, 0, 83, 100
2, 276576, Note_on_c, 0, 81, 72
2, 276668, Note_off_c, 0, 81, 100
2, 276672, Note_on_c, 0, 84, 72
2, 276764, Note_off_c, 0, 84, 100
2, 276768, Note_on_c, 0, 83, 72
2, 276860, Note_off_c, 0, 83, 100
2, 276864, Note_on_c, 0, 86, 72
2, 277008, Note_off_c, 0, 86, 100
2, 277056, Note_on_c, 0, 78, 72
2, 277200, Note_off_c, 0, 78, 100
2, 277248, Note_on_c, 0, 79, 72
2, 277340, Note_off_c, 0, 79, 100
2, 277344, Note_on_c, 0, 78, 72
2, 277436, Note_off_c, 0, 78, 100
2, 277440, Note_on_c, 0, 81, 72
2, 277532, Note_off_c, 0, 81, 100
2, 277536, Note_on_c, 0, 79, 72
2, 277628, Note_off_c, 0, 79, 100
2, 277632, Note_on_c, 0, 83, 72
2, 277776, Note_off_c, 0, 83, 100
2, 277824, Note_on_c, 0, 74, 72
2, 277968, Note_off_c, 0, 74, 100
2, 278016, Note_on_c, 0, 76, 72
2, 278108, Note_off_c, 0, 76, 100
2, 278112, Note_on_c, 0, 75, 72
2, 278204, Note_off_c, 0, 75, 100
2, 278208, Note_on_c, 0, 78, 72
2, 278300, Note_off_c, 0, 78, 100
2, 278304, Note_on_c, 0, 76, 72
2, 278396, Note_off_c, 0, 76, 100
2, 278400, Note_on_c, 0, 79, 72
2, 278544, Note_off_c, 0, 79, 100
2, 278592, Note_on_c, 0, 71, 72
2, 278736, Note_off_c, 0, 71, 100
2, 278784, Note_on_c, 0, 72, 72
2, 278876, Note_off_c, 0, 72, 100
2, 278880, Note_on_c, 0, 71, 72
2, 278972, Note_off_c, 0, 71, 100
2, 278976, Note_on_c, 0, 74, 72
2, 279068, Note_off_c, 0, 74, 100
2, 279072, Note_on_c, 0, 72, 72
2, 279164, Note_off_c, 0, 72, 100
2, 279168, Note_on_c, 0, 76, 72
2, 279312, Note_off_c, 0, 76, 100
2, 279360, Note_on_c, 0, 69, 72
2, 279504, Note_off_c, 0, 69, 100
2, 279552, Note_on_c, 0, 71, 72
2, 279644, Note_off_c, 0, 71, 100
2, 279648, Note_on_c, 0, 69, 72
2, 279740, Note_off_c, 0, 69, 100
2, 279744, Note_on_c, 0, 72, 72
2, 279836, Note_off_c, 0, 72, 100
2, 279840, Note_on_c, 0, 71, 72
2, 279932, Note_off_c, 0, 71, 100
2, 279936, Note_on_c, 0, 74, 72
2, 280080, Note_off_c, 0, 74, 100
2, 280128, Note_on_c, 0, 66, 72
2, 280272, Note_off_c, 0, 66, 100
2, 280320, Note_on_c, 0, 67, 72
2, 280412, Note_off_c, 0, 67, 100
2, 280416, Note_on_c, 0, 66, 72
2, 280508, Note_off_c, 0, 66, 100
2, 280512, Note_on_c, 0, 69, 72
2, 280604, Note_off_c, 0, 69, 100
2, 280608, Note_on_c, 0, 67, 72
2, 280700, Note_off_c, 0, 67, 100
2, 280704, Note_on_c, 0, 71, 72
2, 280848, Note_off_c, 0, 71, 100
2, 280896, Note_on_c, 0, 62, 72
2, 281040, Note_off_c, 0, 62, 100
2, 281088, Note_on_c, 0, 64, 72
2, 281372, Note_off_c, 0, 64, 100
2, 281376, Note_on_c, 0, 62, 72
2, 281468, Note_off_c, 0, 62, 100
2, 281472, Note_on_c, 0, 60, 72
2, 281756, Note_off_c, 0, 60, 100
2, 281760, Note_on_c, 0, 59, 72
2, 281852, Note_off_c, 0, 59, 100
2, 281856, Note_on_c, 0, 60, 72
2, 282140, Note_off_c, 0, 60, 100
2, 282912, Note_on_c, 0, 62, 72
2, 283004, Note_off_c, 0, 62, 100
2, 283008, Note_on_c, 0, 67, 72
2, 283152, Note_off_c, 0, 67, 100
2, 283200, Note_on_c, 0, 67, 72
2, 283344, Note_off_c, 0, 67, 100
2, 283392, Note_on_c, 0, 67, 72
2, 283772, Note_off_c, 0, 67, 100
2, 284160, Note_on_c, 0, 78, 51
2, 284304, Note_off_c, 0, 78, 100
2, 284352, Note_on_c, 0, 79, 51
2, 284496, Note_off_c, 0, 79, 100
2, 284544, Note_on_c, 0, 78, 51
2, 284688, Note_off_c, 0, 78, 100
2, 284736, Note_on_c, 0, 79, 51
2, 284880, Note_off_c, 0, 79, 100
2, 284928, Note_on_c, 0, 78, 51
2, 285072, Note_off_c, 0, 78, 100
2, 285120, Note_on_c, 0, 79, 51
2, 285264, Note_off_c, 0, 79, 100
2, 285312, Note_on_c, 0, 78, 51
2, 285456, Note_off_c, 0, 78, 100
2, 285504, Note_on_c, 0, 79, 51
2, 285648, Note_off_c, 0, 79, 100
2, 285696, Note_on_c, 0, 77, 51
2, 285840, Note_off_c, 0, 77, 100
2, 285888, Note_on_c, 0, 79, 51
2, 286032, Note_off_c, 0, 79, 100
2, 286080, Note_on_c, 0, 76, 51
2, 286224, Note_off_c, 0, 76, 100
2, 286272, Note_on_c, 0, 79, 51
2, 286416, Note_off_c, 0, 79, 100
2, 286464, Note_on_c, 0, 77, 51
2, 286608, Note_off_c, 0, 77, 100
2, 286656, Note_on_c, 0, 79, 51
2, 286800, Note_off_c, 0, 79, 100
2, 286848, Note_on_c, 0, 74, 51
2, 286992, Note_off_c, 0, 74, 100
2, 287040, Note_on_c, 0, 79, 51
2, 287184, Note_off_c, 0, 79, 100
2, 287232, Note_on_c, 0, 72, 51
2, 287232, Note_on_c, 0, 64, 51
2, 287376, Note_off_c, 0, 72, 100
2, 287376, Note_off_c, 0, 64, 100
2, 287424, Note_on_c, 0, 79, 51
2, 287424, Note_on_c, 0, 65, 51
2, 287568, Note_off_c, 0, 79, 100
2, 287568, Note_off_c, 0, 65, 100
2, 287616, Note_on_c, 0, 72, 51
2, 287616, Note_on_c, 0, 67, 51
2, 287760, Note_off_c, 0, 72, 100
2, 287760, Note_off_c, 0, 67, 100
2, 287808, Note_on_c, 0, 79, 51
2, 287808, Note_on_c, 0, 64, 51
2, 287952, Note_off_c, 0, 79, 100
2, 287952, Note_off_c, 0, 64, 100
2, 288000, Note_on_c, 0, 76, 51
2, 288000, Note_on_c, 0, 60, 51
2, 288144, Note_off_c, 0, 76, 100
2, 288192, Note_on_c, 0, 79, 51
2, 288336, Note_off_c, 0, 79, 100
2, 288384, Note_on_c, 0, 76, 51
2, 288528, Note_off_c, 0, 60, 100
2, 288528, Note_off_c, 0, 76, 100
2, 288576, Note_on_c, 0, 79, 51
2, 288720, Note_off_c, 0, 79, 100
2, 288768, Note_on_c, 0, 77, 51
2, 288768, Note_on_c, 0, 62, 51
2, 288912, Note_off_c, 0, 77, 100
2, 288912, Note_off_c, 0, 62, 100
2, 288960, Note_on_c, 0, 79, 51
2, 288960, Note_on_c, 0, 64, 51
2, 289104, Note_off_c, 0, 79, 100
2, 289104, Note_off_c, 0, 64, 100
2, 289152, Note_on_c, 0, 77, 51
2, 289152, Note_on_c, 0, 65, 51
2, 289296, Note_off_c, 0, 77, 100
2, 289296, Note_off_c, 0, 65, 100
2, 289344, Note_on_c, 0, 79, 51
2, 289344, Note_on_c, 0, 62, 51
2, 289488, Note_off_c, 0, 79, 100
2, 289488, Note_off_c, 0, 62, 100
2, 289536, Note_on_c, 0, 74, 51
2, 289536, Note_on_c, 0, 59, 51
2, 289680, Note_off_c, 0, 74, 100
2, 289728, Note_on_c, 0, 79, 51
2, 289872, Note_off_c, 0, 79, 100
2, 289920, Note_on_c, 0, 74, 51
2, 290064, Note_off_c, 0, 59, 100
2, 290064, Note_off_c, 0, 74, 100
2, 290112, Note_on_c, 0, 79, 51
2, 290256, Note_off_c, 0, 79, 100
2, 290304, Note_on_c, 0, 76, 51
2, 290304, Note_on_c, 0, 62, 51
2, 290396, Note_off_c, 0, 62, 0
2, 290400, Note_on_c, 0, 60, 51
2, 290448, Note_off_c, 0, 76, 100
2, 290496, Note_on_c, 0, 79, 51
2, 290544, Note_off_c, 0, 60, 0
2, 290640, Note_off_c, 0, 79, 100
2, 290688, Note_on_c, 0, 72, 51
2, 290688, Note_on_c, 0, 65, 51
2, 290780, Note_off_c, 0, 65, 0
2, 290784, Note_on_c, 0, 64, 51
2, 290832, Note_off_c, 0, 72, 0
2, 290880, Note_on_c, 0, 79, 51
2, 290928, Note_off_c, 0, 64, 0
2, 291024, Note_off_c, 0, 79, 100
2, 291072, Note_on_c, 0, 71, 51
2, 291072, Note_on_c, 0, 61, 51
2, 291164, Note_off_c, 0, 61, 0
2, 291168, Note_on_c, 0, 62, 51
2, 291216, Note_off_c, 0, 71, 0
2, 291264, Note_on_c, 0, 79, 51
2, 291312, Note_off_c, 0, 62, 0
2, 291408, Note_off_c, 0, 79, 100
2, 291456, Note_on_c, 0, 74, 51
2, 291600, Note_off_c, 0, 74, 100
2, 291648, Note_on_c, 0, 79, 51
2, 291792, Note_off_c, 0, 79, 100
2, 291840, Note_on_c, 0, 72, 51
2, 291840, Note_on_c, 0, 65, 51
2, 291932, Note_off_c, 0, 65, 0
2, 291936, Note_on_c, 0, 64, 51
2, 291984, Note_off_c, 0, 72, 100
2, 292032, Note_on_c, 0, 79, 51
2, 292080, Note_off_c, 0, 64, 0
2, 292176, Note_off_c, 0, 79, 100
2, 292224, Note_on_c, 0, 72, 51
2, 292224, Note_on_c, 0, 67, 51
2, 292316, Note_off_c, 0, 72, 100
2, 292320, Note_on_c, 0, 66, 51
2, 292368, Note_off_c, 0, 67, 0
2, 292416, Note_on_c, 0, 81, 51
2, 292464, Note_off_c, 0, 66, 0
2, 292560, Note_off_c, 0, 81, 100
2, 292608, Note_on_c, 0, 71, 51
2, 292608, Note_on_c, 0, 69, 51
2, 292700, Note_off_c, 0, 69, 0
2, 292704, Note_on_c, 0, 67, 51
2, 292752, Note_off_c, 0, 71, 0
2, 292800, Note_on_c, 0, 74, 51
2, 292848, Note_off_c, 0, 67, 0
2, 292944, Note_off_c, 0, 74, 100
2, 292992, Note_on_c, 0, 78, 51
2, 293136, Note_off_c, 0, 78, 100
2, 293184, Note_on_c, 0, 79, 51
2, 293328, Note_off_c, 0, 79, 100
2, 293376, Note_on_c, 0, 76, 51
2, 293520, Note_off_c, 0, 76, 100
2, 293568, Note_on_c, 0, 77, 51
2, 293712, Note_off_c, 0, 77, 100
2, 293760, Note_on_c, 0, 79, 51
2, 293904, Note_off_c, 0, 79, 100
2, 293952, Note_on_c, 0, 76, 51
2, 294096, Note_off_c, 0, 76, 100
2, 294144, Note_on_c, 0, 72, 51
2, 294908, Note_off_c, 0, 72, 100
2, 294912, Note_on_c, 0, 74, 51
2, 295056, Note_off_c, 0, 74, 100
2, 295104, Note_on_c, 0, 76, 51
2, 295248, Note_off_c, 0, 76, 100
2, 295296, Note_on_c, 0, 77, 51
2, 295440, Note_off_c, 0, 77, 100
2, 295440, Note_on_c, 0, 74, 51
2, 295584, Note_off_c, 0, 74, 100
2, 295680, Note_on_c, 0, 83, 51
2, 296444, Note_off_c, 0, 83, 100
2, 296448, Note_on_c, 0, 84, 51
2, 296540, Note_off_c, 0, 84, 100
2, 296544, Note_on_c, 0, 83, 51
2, 296828, Note_off_c, 0, 83, 100
2, 296832, Note_on_c, 0, 81, 51
2, 296924, Note_off_c, 0, 81, 100
2, 296928, Note_on_c, 0, 79, 51
2, 297212, Note_off_c, 0, 79, 100
2, 297216, Note_on_c, 0, 76, 51
2, 297308, Note_off_c, 0, 76, 100
2, 297312, Note_on_c, 0, 77, 51
2, 297596, Note_off_c, 0, 77, 100
2, 297984, Note_on_c, 0, 77, 51
2, 298076, Note_off_c, 0, 77, 100
2, 298080, Note_on_c, 0, 76, 51
2, 298364, Note_off_c, 0, 76, 100
2, 298368, Note_on_c, 0, 74, 51
2, 298460, Note_off_c, 0, 74, 100
2, 298464, Note_on_c, 0, 72, 51
2, 298748, Note_off_c, 0, 72, 100
2, 298752, Note_on_c, 0, 81, 51
2, 298844, Note_off_c, 0, 81, 100
2, 298848, Note_on_c, 0, 79, 51
2, 299132, Note_off_c, 0, 79, 100
2, 299520, Note_on_c, 0, 79, 72
2, 299520, Note_on_c, 0, 67, 72
2, 300284, Note_off_c, 0, 79, 100
2, 300284, Note_off_c, 0, 67, 100
2, 300288, Note_on_c, 0, 77, 51
2, 300432, Note_off_c, 0, 77, 100
2, 300480, Note_on_c, 0, 76, 51
2, 300624, Note_off_c, 0, 76, 100
2, 300672, Note_on_c, 0, 74, 51
2, 300816, Note_off_c, 0, 74, 100
2, 300864, Note_on_c, 0, 72, 51
2, 301008, Note_off_c, 0, 72, 100
2, 301056, Note_on_c, 0, 81, 51
2, 301056, Note_on_c, 0, 69, 51
2, 301436, Note_off_c, 0, 81, 100
2, 301436, Note_off_c, 0, 69, 100
2, 301824, Note_on_c, 0, 79, 51
2, 301968, Note_off_c, 0, 79, 100
2, 302016, Note_on_c, 0, 77, 51
2, 302160, Note_off_c, 0, 77, 100
2, 302208, Note_on_c, 0, 76, 51
2, 302352, Note_off_c, 0, 76, 100
2, 302400, Note_on_c, 0, 74, 51
2, 302544, Note_off_c, 0, 74, 100
2, 302592, Note_on_c, 0, 76, 51
2, 302684, Note_off_c, 0, 76, 100
2, 302688, Note_on_c, 0, 77, 51
2, 302780, Note_off_c, 0, 77, 100
2, 302784, Note_on_c, 0, 79, 51
2, 302876, Note_off_c, 0, 79, 100
2, 302880, Note_on_c, 0, 76, 51
2, 302972, Note_off_c, 0, 76, 100
2, 302976, Note_on_c, 0, 72, 51
2, 303120, Note_off_c, 0, 72, 100
2, 303360, Note_on_c, 0, 74, 51
2, 303452, Note_off_c, 0, 74, 100
2, 303456, Note_on_c, 0, 76, 51
2, 303548, Note_off_c, 0, 76, 100
2, 303552, Note_on_c, 0, 77, 51
2, 303644, Note_off_c, 0, 77, 100
2, 303648, Note_on_c, 0, 74, 51
2, 303740, Note_off_c, 0, 74, 100
2, 303744, Note_on_c, 0, 71, 51
2, 303888, Note_off_c, 0, 71, 100
2, 304128, Note_on_c, 0, 79, 72
2, 304128, Note_on_c, 0, 67, 72
2, 304892, Note_off_c, 0, 79, 100
2, 304892, Note_off_c, 0, 67, 100
2, 304896, Note_on_c, 0, 77, 51
2, 304988, Note_off_c, 0, 77, 100
2, 304992, Note_on_c, 0, 79, 51
2, 305084, Note_off_c, 0, 79, 100
2, 305088, Note_on_c, 0, 77, 51
2, 305180, Note_off_c, 0, 77, 100
2, 305184, Note_on_c, 0, 76, 51
2, 305276, Note_off_c, 0, 76, 100
2, 305280, Note_on_c, 0, 74, 51
2, 305372, Note_off_c, 0, 74, 100
2, 305376, Note_on_c, 0, 76, 51
2, 305468, Note_off_c, 0, 76, 100
2, 305472, Note_on_c, 0, 74, 51
2, 305564, Note_off_c, 0, 74, 100
2, 305568, Note_on_c, 0, 72, 51
2, 305660, Note_off_c, 0, 72, 100
2, 305664, Note_on_c, 0, 84, 51
2, 305664, Note_on_c, 0, 72, 51
2, 306428, Note_off_c, 0, 84, 100
2, 306428, Note_off_c, 0, 72, 100
2, 306432, Note_on_c, 0, 83, 51
2, 306524, Note_off_c, 0, 83, 100
2, 306528, Note_on_c, 0, 84, 51
2, 306620, Note_off_c, 0, 84, 100
2, 306624, Note_on_c, 0, 83, 51
2, 306716, Note_off_c, 0, 83, 100
2, 306720, Note_on_c, 0, 81, 51
2, 306812, Note_off_c, 0, 81, 100
2, 306816, Note_on_c, 0, 79, 51
2, 306908, Note_off_c, 0, 79, 100
2, 306912, Note_on_c, 0, 81, 51
2, 307004, Note_off_c, 0, 81, 100
2, 307008, Note_on_c, 0, 79, 51
2, 307100, Note_off_c, 0, 79, 100
2, 307104, Note_on_c, 0, 77, 51
2, 307196, Note_off_c, 0, 77, 100
2, 307200, Note_on_c, 0, 76, 51
2, 307344, Note_off_c, 0, 76, 100
2, 307392, Note_on_c, 0, 72, 51
2, 307536, Note_off_c, 0, 72, 100
2, 307584, Note_on_c, 0, 77, 72
2, 307964, Note_off_c, 0, 77, 100
2, 307968, Note_on_c, 0, 76, 51
2, 308112, Note_off_c, 0, 76, 100
2, 308160, Note_on_c, 0, 72, 51
2, 308304, Note_off_c, 0, 72, 100
2, 308352, Note_on_c, 0, 81, 72
2, 308732, Note_off_c, 0, 81, 100
2, 308736, Note_on_c, 0, 79, 51
2, 308880, Note_off_c, 0, 79, 100
2, 308928, Note_on_c, 0, 72, 51
2, 309072, Note_off_c, 0, 72, 100
2, 309120, Note_on_c, 0, 77, 72
2, 309500, Note_off_c, 0, 77, 100
2, 309504, Note_on_c, 0, 76, 51
2, 309648, Note_off_c, 0, 76, 100
2, 309696, Note_on_c, 0, 72, 51
2, 309840, Note_off_c, 0, 72, 100
2, 309888, Note_on_c, 0, 81, 72
2, 310268, Note_off_c, 0, 81, 100
2, 310272, Note_on_c, 0, 82, 72
2, 310272, Note_on_c, 0, 70, 72
2, 311036, Note_off_c, 0, 82, 100
2, 311036, Note_off_c, 0, 70, 100
2, 311040, Note_on_c, 0, 82, 72
2, 311040, Note_on_c, 0, 70, 72
2, 311420, Note_off_c, 0, 82, 100
2, 311420, Note_off_c, 0, 70, 100
2, 311424, Note_on_c, 0, 82, 72
2, 311424, Note_on_c, 0, 70, 72
2, 311804, Note_off_c, 0, 82, 100
2, 311804, Note_off_c, 0, 70, 100
2, 311808, Note_on_c, 0, 81, 72
2, 311808, Note_on_c, 0, 69, 72
2, 311952, Note_off_c, 0, 81, 100
2, 311952, Note_off_c, 0, 69, 100
2, 312000, Note_on_c, 0, 79, 72
2, 312144, Note_off_c, 0, 79, 100
2, 312192, Note_on_c, 0, 77, 72
2, 312236, Note_off_c, 0, 77, 0
2, 312240, Note_on_c, 0, 79, 72
2, 312284, Note_off_c, 0, 79, 0
2, 312288, Note_on_c, 0, 77, 72
2, 312332, Note_off_c, 0, 77, 0
2, 312336, Note_on_c, 0, 79, 72
2, 312380, Note_off_c, 0, 79, 0
2, 312384, Note_on_c, 0, 76, 72
2, 312528, Note_off_c, 0, 76, 100
2, 312576, Note_on_c, 0, 74, 72
2, 312620, Note_off_c, 0, 74, 0
2, 312624, Note_on_c, 0, 76, 72
2, 312668, Note_off_c, 0, 76, 0
2, 312672, Note_on_c, 0, 74, 72
2, 312716, Note_off_c, 0, 74, 0
2, 312720, Note_on_c, 0, 76, 72
2, 312764, Note_off_c, 0, 76, 0
2, 312768, Note_on_c, 0, 72, 72
2, 312912, Note_off_c, 0, 72, 100
2, 312960, Note_on_c, 0, 71, 66
2, 313004, Note_off_c, 0, 71, 0
2, 313008, Note_on_c, 0, 72, 66
2, 313052, Note_off_c, 0, 72, 0
2, 313056, Note_on_c, 0, 71, 66
2, 313100, Note_off_c, 0, 71, 0
2, 313104, Note_on_c, 0, 72, 66
2, 313148, Note_off_c, 0, 72, 0
2, 313152, Note_on_c, 0, 69, 66
2, 313296, Note_off_c, 0, 69, 100
2, 313344, Note_on_c, 0, 67, 66
2, 313488, Note_off_c, 0, 67, 100
2, 313536, Note_on_c, 0, 69, 66
2, 313628, Note_off_c, 0, 69, 100
2, 313632, Note_on_c, 0, 71, 66
2, 313724, Note_off_c, 0, 71, 100
2, 313728, Note_on_c, 0, 72, 66
2, 313820, Note_off_c, 0, 72, 100
2, 313824, Note_on_c, 0, 74, 66
2, 313916, Note_off_c, 0, 74, 100
2, 313920, Note_on_c, 0, 76, 66
2, 314012, Note_off_c, 0, 76, 100
2, 314016, Note_on_c, 0, 77, 66
2, 314108, Note_off_c, 0, 77, 100
2, 314112, Note_on_c, 0, 78, 66
2, 314204, Note_off_c, 0, 78, 100
2, 314208, Note_on_c, 0, 79, 66
2, 314300, Note_off_c, 0, 79, 100
2, 314304, Note_on_c, 0, 81, 66
2, 314396, Note_off_c, 0, 81, 100
2, 314400, Note_on_c, 0, 79, 66
2, 314492, Note_off_c, 0, 79, 100
2, 314496, Note_on_c, 0, 78, 66
2, 314540, Note_off_c, 0, 78, 100
2, 314544, Note_on_c, 0, 76, 66
2, 314684, Note_off_c, 0, 76, 100
2, 314688, Note_on_c, 0, 74, 66
2, 314780, Note_off_c, 0, 74, 100
2, 314784, Note_on_c, 0, 72, 66
2, 314876, Note_off_c, 0, 72, 100
2, 314880, Note_on_c, 0, 74, 66
2, 314924, Note_off_c, 0, 74, 100
2, 314928, Note_on_c, 0, 76, 66
2, 314972, Note_off_c, 0, 76, 100
2, 314976, Note_on_c, 0, 74, 66
2, 315020, Note_off_c, 0, 74, 100
2, 315024, Note_on_c, 0, 76, 66
2, 315068, Note_off_c, 0, 76, 100
2, 315072, Note_on_c, 0, 74, 66
2, 315116, Note_off_c, 0, 74, 100
2, 315120, Note_on_c, 0, 76, 66
2, 315164, Note_off_c, 0, 76, 100
2, 315168, Note_on_c, 0, 74, 66
2, 315212, Note_off_c, 0, 74, 100
2, 315216, Note_on_c, 0, 76, 66
2, 315260, Note_off_c, 0, 76, 100
2, 315264, Note_on_c, 0, 74, 66
2, 315308, Note_off_c, 0, 74, 100
2, 315312, Note_on_c, 0, 76, 66
2, 315356, Note_off_c, 0, 76, 100
2, 315360, Note_on_c, 0, 74, 66
2, 315404, Note_off_c, 0, 74, 100
2, 315408, Note_on_c, 0, 76, 66
2, 315452, Note_off_c, 0, 76, 100
2, 315456, Note_on_c, 0, 74, 66
2, 315500, Note_off_c, 0, 74, 100
2, 315504, Note_on_c, 0, 76, 66
2, 315548, Note_off_c, 0, 76, 100
2, 315552, Note_on_c, 0, 74, 66
2, 315596, Note_off_c, 0, 74, 100
2, 315600, Note_on_c, 0, 76, 66
2, 315644, Note_off_c, 0, 76, 100
2, 315648, Note_on_c, 0, 74, 66
2, 315692, Note_off_c, 0, 74, 100
2, 315696, Note_on_c, 0, 76, 66
2, 315740, Note_off_c, 0, 76, 100
2, 315744, Note_on_c, 0, 74, 66
2, 315788, Note_off_c, 0, 74, 100
2, 315792, Note_on_c, 0, 76, 66
2, 315836, Note_off_c, 0, 76, 100
2, 315840, Note_on_c, 0, 74, 66
2, 315884, Note_off_c, 0, 74, 100
2, 315888, Note_on_c, 0, 76, 66
2, 315932, Note_off_c, 0, 76, 100
2, 315936, Note_on_c, 0, 74, 66
2, 315980, Note_off_c, 0, 74, 100
2, 315984, Note_on_c, 0, 76, 66
2, 316028, Note_off_c, 0, 76, 100
2, 316032, Note_on_c, 0, 74, 66
2, 316076, Note_off_c, 0, 74, 100
2, 316080, Note_on_c, 0, 76, 66
2, 316124, Note_off_c, 0, 76, 100
2, 316128, Note_on_c, 0, 74, 66
2, 316172, Note_off_c, 0, 74, 100
2, 316176, Note_on_c, 0, 76, 66
2, 316220, Note_off_c, 0, 76, 100
2, 316224, Note_on_c, 0, 72, 66
2, 316316, Note_off_c, 0, 72, 0
2, 316320, Note_on_c, 0, 74, 66
2, 316412, Note_off_c, 0, 74, 0
2, 316416, Note_on_c, 0, 72, 51
2, 316796, Note_off_c, 0, 72, 100
2, 316800, Note_on_c, 0, 72, 51
2, 316992, Note_on_c, 0, 76, 51
2, 317136, Note_off_c, 0, 76, 100
2, 317180, Note_off_c, 0, 72, 100
2, 317184, Note_on_c, 0, 79, 51
2, 317184, Note_on_c, 0, 74, 51
2, 317328, Note_off_c, 0, 79, 100
2, 317376, Note_on_c, 0, 77, 51
2, 317520, Note_off_c, 0, 77, 100
2, 317564, Note_off_c, 0, 74, 100
2, 317568, Note_on_c, 0, 71, 51
2, 317760, Note_on_c, 0, 74, 51
2, 317904, Note_off_c, 0, 74, 100
2, 317948, Note_off_c, 0, 71, 100
2, 317952, Note_on_c, 0, 77, 51
2, 317952, Note_on_c, 0, 72, 51
2, 318096, Note_off_c, 0, 77, 100
2, 318144, Note_on_c, 0, 76, 51
2, 318288, Note_off_c, 0, 76, 100
2, 318332, Note_off_c, 0, 72, 100
2, 318336, Note_on_c, 0, 69, 51
2, 318528, Note_on_c, 0, 72, 51
2, 318672, Note_off_c, 0, 72, 100
2, 318716, Note_off_c, 0, 69, 100
2, 318720, Note_on_c, 0, 76, 51
2, 318720, Note_on_c, 0, 65, 51
2, 318864, Note_off_c, 0, 76, 100
2, 318912, Note_on_c, 0, 74, 51
2, 319056, Note_off_c, 0, 74, 100
2, 319100, Note_off_c, 0, 65, 100
2, 319104, Note_on_c, 0, 67, 51
2, 319296, Note_on_c, 0, 71, 51
2, 319440, Note_off_c, 0, 71, 100
2, 319484, Note_off_c, 0, 67, 100
2, 319488, Note_on_c, 0, 74, 51
2, 319488, Note_on_c, 0, 64, 51
2, 319632, Note_off_c, 0, 74, 100
2, 319680, Note_on_c, 0, 72, 51
2, 319824, Note_off_c, 0, 72, 100
2, 319868, Note_off_c, 0, 64, 100
2, 319872, Note_on_c, 0, 76, 72
2, 319964, Note_off_c, 0, 76, 100
2, 319968, Note_on_c, 0, 77, 72
2, 320060, Note_off_c, 0, 77, 100
2, 320064, Note_on_c, 0, 79, 72
2, 320156, Note_off_c, 0, 79, 100
2, 320160, Note_on_c, 0, 76, 72
2, 320252, Note_off_c, 0, 76, 100
2, 320256, Note_on_c, 0, 77, 72
2, 320348, Note_off_c, 0, 77, 100
2, 320352, Note_on_c, 0, 79, 72
2, 320444, Note_off_c, 0, 79, 100
2, 320448, Note_on_c, 0, 81, 72
2, 320540, Note_off_c, 0, 81, 100
2, 320544, Note_on_c, 0, 77, 72
2, 320636, Note_off_c, 0, 77, 100
2, 320640, Note_on_c, 0, 74, 72
2, 320732, Note_off_c, 0, 74, 100
2, 320736, Note_on_c, 0, 76, 72
2, 320828, Note_off_c, 0, 76, 100
2, 320832, Note_on_c, 0, 77, 72
2, 320924, Note_off_c, 0, 77, 100
2, 320928, Note_on_c, 0, 74, 72
2, 321020, Note_off_c, 0, 74, 100
2, 321024, Note_on_c, 0, 76, 72
2, 321116, Note_off_c, 0, 76, 100
2, 321120, Note_on_c, 0, 77, 72
2, 321212, Note_off_c, 0, 77, 100
2, 321216, Note_on_c, 0, 79, 72
2, 321308, Note_off_c, 0, 79, 100
2, 321312, Note_on_c, 0, 76, 72
2, 321404, Note_off_c, 0, 76, 100
2, 321408, Note_on_c, 0, 72, 72
2, 321500, Note_off_c, 0, 72, 100
2, 321504, Note_on_c, 0, 74, 72
2, 321596, Note_off_c, 0, 74, 100
2, 321600, Note_on_c, 0, 76, 72
2, 321692, Note_off_c, 0, 76, 100
2, 321696, Note_on_c, 0, 72, 72
2, 321788, Note_off_c, 0, 72, 100
2, 321792, Note_on_c, 0, 74, 72
2, 321884, Note_off_c, 0, 74, 100
2, 321888, Note_on_c, 0, 76, 72
2, 321980, Note_off_c, 0, 76, 100
2, 321984, Note_on_c, 0, 77, 72
2, 322076, Note_off_c, 0, 77, 100
2, 322080, Note_on_c, 0, 74, 72
2, 322172, Note_off_c, 0, 74, 100
2, 322176, Note_on_c, 0, 71, 72
2, 322268, Note_off_c, 0, 71, 100
2, 322272, Note_on_c, 0, 72, 72
2, 322364, Note_off_c, 0, 72, 100
2, 322368, Note_on_c, 0, 74, 72
2, 322416, Note_on_c, 0, 71, 72
2, 322460, Note_off_c, 0, 74, 100
2, 322508, Note_off_c, 0, 71, 100
2, 322560, Note_on_c, 0, 60, 72
2, 322604, Note_off_c, 0, 60, 0
2, 322608, Note_on_c, 0, 64, 72
2, 322652, Note_off_c, 0, 64, 0
2, 322656, Note_on_c, 0, 67, 72
2, 322700, Note_off_c, 0, 67, 0
2, 322704, Note_on_c, 0, 72, 72
2, 323308, Note_off_c, 0, 72, 100
2, 323328, Note_on_c, 0, 67, 72
2, 324092, Note_off_c, 0, 67, 100
2, 324096, Note_on_c, 0, 76, 72
2, 324668, Note_off_c, 0, 76, 100
2, 324672, Note_on_c, 0, 77, 72
2, 324764, Note_off_c, 0, 77, 100
2, 324768, Note_on_c, 0, 74, 72
2, 324860, Note_off_c, 0, 74, 100
2, 324864, Note_on_c, 0, 72, 72
2, 325244, Note_off_c, 0, 72, 100
2, 325248, Note_on_c, 0, 74, 73
2, 325340, Note_off_c, 0, 74, 100
2, 325344, Note_on_c, 0, 77, 75
2, 325436, Note_off_c, 0, 77, 100
2, 325440, Note_on_c, 0, 79, 76
2, 325532, Note_off_c, 0, 79, 100
2, 325536, Note_on_c, 0, 83, 77
2, 325628, Note_off_c, 0, 83, 100
2, 325632, Note_on_c, 0, 72, 77
2, 325724, Note_off_c, 0, 72, 100
2, 325728, Note_on_c, 0, 76, 77
2, 325820, Note_off_c, 0, 76, 100
2, 325824, Note_on_c, 0, 79, 77
2, 325916, Note_off_c, 0, 79, 100
2, 325920, Note_on_c, 0, 83, 77
2, 326012, Note_off_c, 0, 83, 100
2, 326016, Note_on_c, 0, 74, 77
2, 326108, Note_off_c, 0, 74, 100
2, 326112, Note_on_c, 0, 77, 77
2, 326204, Note_off_c, 0, 77, 100
2, 326208, Note_on_c, 0, 79, 77
2, 326300, Note_off_c, 0, 79, 100
2, 326304, Note_on_c, 0, 83, 77
2, 326396, Note_off_c, 0, 83, 100
2, 326400, Note_on_c, 0, 72, 77
2, 326492, Note_off_c, 0, 72, 100
2, 326496, Note_on_c, 0, 76, 77
2, 326588, Note_off_c, 0, 76, 100
2, 326592, Note_on_c, 0, 79, 77
2, 326684, Note_off_c, 0, 79, 100
2, 326688, Note_on_c, 0, 84, 77
2, 326780, Note_off_c, 0, 84, 100
2, 326784, Note_on_c, 0, 74, 77
2, 326876, Note_off_c, 0, 74, 100
2, 326880, Note_on_c, 0, 77, 77
2, 326972, Note_off_c, 0, 77, 100
2, 326976, Note_on_c, 0, 79, 77
2, 327068, Note_off_c, 0, 79, 100
2, 327072, Note_on_c, 0, 83, 77
2, 327164, Note_off_c, 0, 83, 100
2, 327168, Note_on_c, 0, 84, 77
2, 327168, Note_on_c, 0, 76, 77
2, 327548, Note_off_c, 0, 84, 100
2, 327548, Note_off_c, 0, 76, 100
2, 327552, Note_on_c, 0, 64, 77
2, 327552, Note_on_c, 0, 67, 77
2, 327552, Note_on_c, 0, 72, 77
2, 327932, Note_off_c, 0, 64, 100
2, 327932, Note_off_c, 0, 67, 100
2, 327932, Note_off_c, 0, 72, 100
2, 327936, Note_on_c, 0, 72, 77
2, 327936, Note_on_c, 0, 67, 77
2, 327936, Note_on_c, 0, 64, 77
2, 328316, Note_off_c, 0, 72, 100
2, 328316, Note_off_c, 0, 67, 100
2, 328316, Note_off_c, 0, 64, 100
2, 328704, Note_on_c, 0, 55, 72
2, 328752, Note_off_c, 0, 55, 0
2, 328752, Note_on_c, 0, 58, 72
2, 328800, Note_off_c, 0, 58, 0
2, 328800, Note_on_c, 0, 62, 72
2, 328848, Note_off_c, 0, 62, 0
2, 328848, Note_on_c, 0, 67, 72
2, 329452, Note_off_c, 0, 67, 100
2, 329472, Note_on_c, 0, 62, 72
2, 330236, Note_off_c, 0, 62, 100
2, 330240, Note_on_c, 0, 70, 72
2, 330812, Note_off_c, 0, 70, 100
2, 330816, Note_on_c, 0, 72, 72
2, 330908, Note_off_c, 0, 72, 100
2, 330912, Note_on_c, 0, 69, 72
2, 331004, Note_off_c, 0, 69, 100
2, 331008, Note_on_c, 0, 67, 72
2, 331388, Note_off_c, 0, 67, 100
2, 331776, Note_on_c, 0, 74, 51
2, 331776, Note_on_c, 0, 70, 51
2, 332348, Note_off_c, 0, 74, 100
2, 332348, Note_off_c, 0, 70, 100
2, 332352, Note_on_c, 0, 75, 51
2, 332352, Note_on_c, 0, 72, 51
2, 332444, Note_off_c, 0, 75, 100
2, 332444, Note_off_c, 0, 72, 100
2, 332448, Note_on_c, 0, 72, 51
2, 332448, Note_on_c, 0, 69, 51
2, 332540, Note_off_c, 0, 72, 100
2, 332540, Note_off_c, 0, 69, 100
2, 332544, Note_on_c, 0, 70, 51
2, 332544, Note_on_c, 0, 67, 51
2, 332924, Note_off_c, 0, 70, 100
2, 332924, Note_off_c, 0, 67, 100
2, 333312, Note_on_c, 0, 82, 41
2, 333312, Note_on_c, 0, 74, 41
2, 333884, Note_off_c, 0, 82, 100
2, 333884, Note_off_c, 0, 74, 100
2, 333888, Note_on_c, 0, 84, 41
2, 333888, Note_on_c, 0, 75, 41
2, 333980, Note_off_c, 0, 84, 100
2, 333980, Note_off_c, 0, 75, 100
2, 333984, Note_on_c, 0, 81, 41
2, 333984, Note_on_c, 0, 72, 41
2, 334076, Note_off_c, 0, 81, 100
2, 334076, Note_off_c, 0, 72, 100
2, 334080, Note_on_c, 0, 79, 41
2, 334080, Note_on_c, 0, 70, 41
2, 334460, Note_off_c, 0, 79, 100
2, 334460, Note_off_c, 0, 70, 100
2, 334848, Note_on_c, 0, 62, 51
2, 334848, Note_on_c, 0, 58, 51
2, 334992, Note_off_c, 0, 62, 100
2, 334992, Note_off_c, 0, 58, 100
2, 335040, Note_on_c, 0, 67, 51
2, 335184, Note_off_c, 0, 67, 100
2, 335232, Note_on_c, 0, 79, 51
2, 335232, Note_on_c, 0, 62, 51
2, 335232, Note_on_c, 0, 58, 51
2, 335376, Note_off_c, 0, 62, 100
2, 335376, Note_off_c, 0, 58, 100
2, 335424, Note_on_c, 0, 67, 51
2, 335568, Note_off_c, 0, 67, 100
2, 335612, Note_off_c, 0, 79, 100
2, 335616, Note_on_c, 0, 86, 51
2, 335616, Note_on_c, 0, 62, 51
2, 335616, Note_on_c, 0, 58, 51
2, 335760, Note_off_c, 0, 62, 100
2, 335760, Note_off_c, 0, 58, 100
2, 335808, Note_on_c, 0, 67, 51
2, 335952, Note_off_c, 0, 67, 100
2, 335996, Note_off_c, 0, 86, 100
2, 336000, Note_on_c, 0, 62, 51
2, 336000, Note_on_c, 0, 58, 51
2, 336000, Note_on_c, 0, 88, 51
2, 336144, Note_off_c, 0, 62, 100
2, 336144, Note_off_c, 0, 58, 100
2, 336192, Note_on_c, 0, 67, 51
2, 336336, Note_off_c, 0, 67, 100
2, 336380, Note_off_c, 0, 88, 100
2, 336384, Note_on_c, 0, 86, 51
2, 336384, Note_on_c, 0, 64, 51
2, 336384, Note_on_c, 0, 57, 51
2, 336528, Note_off_c, 0, 64, 100
2, 336528, Note_off_c, 0, 57, 100
2, 336576, Note_on_c, 0, 67, 51
2, 336720, Note_off_c, 0, 67, 100
2, 336768, Note_on_c, 0, 64, 51
2, 336768, Note_on_c, 0, 57, 51
2, 336912, Note_off_c, 0, 86, 100
2, 336912, Note_off_c, 0, 64, 100
2, 336912, Note_off_c, 0, 57, 100
2, 336960, Note_on_c, 0, 67, 51
2, 337104, Note_off_c, 0, 67, 100
2, 337152, Note_on_c, 0, 85, 51
2, 337152, Note_on_c, 0, 64, 51
2, 337152, Note_on_c, 0, 57, 51
2, 337296, Note_off_c, 0, 64, 100
2, 337296, Note_off_c, 0, 57, 100
2, 337344, Note_on_c, 0, 67, 51
2, 337488, Note_off_c, 0, 67, 100
2, 337532, Note_off_c, 0, 85, 100
2, 337536, Note_on_c, 0, 64, 51
2, 337536, Note_on_c, 0, 57, 51
2, 337680, Note_off_c, 0, 64, 100
2, 337680, Note_off_c, 0, 57, 100
2, 337728, Note_on_c, 0, 67, 51
2, 337872, Note_off_c, 0, 67, 100
2, 337920, Note_on_c, 0, 62, 51
2, 337920, Note_on_c, 0, 58, 51
2, 338064, Note_off_c, 0, 62, 100
2, 338064, Note_off_c, 0, 58, 100
2, 338112, Note_on_c, 0, 67, 51
2, 338208, Note_on_c, 0, 79, 51
2, 338256, Note_off_c, 0, 67, 100
2, 338300, Note_off_c, 0, 79, 100
2, 338304, Note_on_c, 0, 62, 51
2, 338304, Note_on_c, 0, 58, 51
2, 338304, Note_on_c, 0, 79, 51
2, 338348, Note_off_c, 0, 79, 0
2, 338352, Note_on_c, 0, 81, 51
2, 338396, Note_off_c, 0, 81, 0
2, 338400, Note_on_c, 0, 79, 51
2, 338444, Note_off_c, 0, 79, 0
2, 338448, Note_off_c, 0, 62, 100
2, 338448, Note_off_c, 0, 58, 100
2, 338448, Note_on_c, 0, 81, 51
2, 338492, Note_off_c, 0, 81, 0
2, 338496, Note_on_c, 0, 78, 51
2, 338496, Note_on_c, 0, 67, 51
2, 338540, Note_off_c, 0, 78, 100
2, 338592, Note_on_c, 0, 79, 51
2, 338636, Note_off_c, 0, 79, 100
2, 338640, Note_off_c, 0, 67, 100
2, 338688, Note_on_c, 0, 86, 51
2, 338688, Note_on_c, 0, 62, 51
2, 338688, Note_on_c, 0, 58, 51
2, 338832, Note_off_c, 0, 62, 100
2, 338832, Note_off_c, 0, 58, 100
2, 338880, Note_on_c, 0, 67, 51
2, 339024, Note_off_c, 0, 67, 100
2, 339068, Note_off_c, 0, 86, 100
2, 339072, Note_on_c, 0, 88, 51
2, 339072, Note_on_c, 0, 62, 51
2, 339072, Note_on_c, 0, 58, 51
2, 339216, Note_off_c, 0, 62, 100
2, 339216, Note_off_c, 0, 58, 100
2, 339264, Note_on_c, 0, 67, 51
2, 339408, Note_off_c, 0, 67, 100
2, 339452, Note_off_c, 0, 88, 100
2, 339456, Note_on_c, 0, 86, 51
2, 339456, Note_on_c, 0, 64, 51
2, 339456, Note_on_c, 0, 57, 51
2, 339600, Note_off_c, 0, 64, 100
2, 339600, Note_off_c, 0, 57, 100
2, 339648, Note_on_c, 0, 67, 51
2, 339792, Note_off_c, 0, 67, 100
2, 339840, Note_on_c, 0, 64, 51
2, 339840, Note_on_c, 0, 57, 51
2, 339984, Note_off_c, 0, 64, 100
2, 339984, Note_off_c, 0, 57, 100
2, 340032, Note_on_c, 0, 67, 51
2, 340176, Note_off_c, 0, 67, 100
2, 340220, Note_off_c, 0, 86, 100
2, 340224, Note_on_c, 0, 85, 51
2, 340224, Note_on_c, 0, 64, 51
2, 340224, Note_on_c, 0, 57, 51
2, 340368, Note_off_c, 0, 64, 100
2, 340368, Note_off_c, 0, 57, 100
2, 340416, Note_on_c, 0, 67, 51
2, 340560, Note_off_c, 0, 67, 100
2, 340604, Note_off_c, 0, 85, 100
2, 340608, Note_on_c, 0, 64, 51
2, 340608, Note_on_c, 0, 57, 51
2, 340752, Note_off_c, 0, 64, 100
2, 340752, Note_off_c, 0, 57, 100
2, 340800, Note_on_c, 0, 67, 51
2, 340944, Note_off_c, 0, 67, 100
2, 342528, Note_on_c, 0, 65, 72
2, 343100, Note_off_c, 0, 65, 100
2, 343104, Note_on_c, 0, 67, 72
2, 343196, Note_off_c, 0, 67, 100
2, 343200, Note_on_c, 0, 64, 72
2, 343292, Note_off_c, 0, 64, 100
2, 343296, Note_on_c, 0, 62, 72
2, 344060, Note_off_c, 0, 62, 100
2, 344352, Note_on_c, 0, 74, 51
2, 344444, Note_off_c, 0, 74, 100
2, 344448, Note_on_c, 0, 76, 51
2, 344492, Note_off_c, 0, 76, 0
2, 344496, Note_on_c, 0, 74, 51
2, 344540, Note_off_c, 0, 74, 0
2, 344544, Note_on_c, 0, 73, 51
2, 344588, Note_off_c, 0, 73, 0
2, 344592, Note_on_c, 0, 74, 51
2, 344636, Note_off_c, 0, 74, 0
2, 344640, Note_on_c, 0, 73, 51
2, 344732, Note_off_c, 0, 73, 100
2, 344736, Note_on_c, 0, 74, 51
2, 344828, Note_off_c, 0, 74, 100
2, 344832, Note_on_c, 0, 81, 51
2, 345212, Note_off_c, 0, 81, 100
2, 345216, Note_on_c, 0, 83, 51
2, 345596, Note_off_c, 0, 83, 100
2, 345600, Note_on_c, 0, 81, 51
2, 346364, Note_off_c, 0, 81, 100
2, 346368, Note_on_c, 0, 80, 51
2, 346748, Note_off_c, 0, 80, 100
2, 347328, Note_on_c, 0, 81, 51
2, 347472, Note_off_c, 0, 81, 100
2, 347520, Note_on_c, 0, 86, 51
2, 347664, Note_off_c, 0, 86, 100
2, 347712, Note_on_c, 0, 85, 51
2, 347856, Note_off_c, 0, 85, 100
2, 347904, Note_on_c, 0, 88, 51
2, 348048, Note_off_c, 0, 88, 100
2, 348096, Note_on_c, 0, 86, 51
2, 348240, Note_off_c, 0, 86, 100
2, 348288, Note_on_c, 0, 84, 51
2, 348432, Note_off_c, 0, 84, 100
2, 348480, Note_on_c, 0, 83, 51
2, 348624, Note_off_c, 0, 83, 100
2, 348672, Note_on_c, 0, 81, 51
2, 349344, Note_off_c, 0, 81, 100
2, 349344, Note_on_c, 0, 83, 51
2, 349392, Note_off_c, 0, 83, 0
2, 349392, Note_on_c, 0, 81, 51
2, 349440, Note_off_c, 0, 81, 0
2, 349440, Note_on_c, 0, 80, 51
2, 349820, Note_off_c, 0, 80, 100
2, 350208, Note_on_c, 0, 84, 51
2, 350208, Note_on_c, 0, 72, 51
2, 350972, Note_off_c, 0, 84, 100
2, 350972, Note_off_c, 0, 72, 100
2, 350976, Note_on_c, 0, 81, 51
2, 350976, Note_on_c, 0, 69, 51
2, 351740, Note_off_c, 0, 81, 100
2, 351740, Note_off_c, 0, 69, 100
2, 351744, Note_on_c, 0, 87, 51
2, 352316, Note_off_c, 0, 87, 100
2, 352320, Note_on_c, 0, 88, 51
2, 352412, Note_off_c, 0, 88, 100
2, 352416, Note_on_c, 0, 87, 51
2, 352508, Note_off_c, 0, 87, 100
2, 352512, Note_on_c, 0, 88, 51
2, 352892, Note_off_c, 0, 88, 100
2, 353280, Note_on_c, 0, 82, 51
2, 353280, Note_on_c, 0, 70, 51
2, 354044, Note_off_c, 0, 82, 100
2, 354044, Note_off_c, 0, 70, 100
2, 354048, Note_on_c, 0, 79, 51
2, 354048, Note_on_c, 0, 67, 51
2, 354812, Note_off_c, 0, 79, 100
2, 354812, Note_off_c, 0, 67, 100
2, 354816, Note_on_c, 0, 85, 51
2, 355388, Note_off_c, 0, 85, 100
2, 355392, Note_on_c, 0, 86, 51
2, 355484, Note_off_c, 0, 86, 100
2, 355488, Note_on_c, 0, 85, 51
2, 355580, Note_off_c, 0, 85, 100
2, 355584, Note_on_c, 0, 86, 51
2, 355964, Note_off_c, 0, 86, 100
2, 356352, Note_on_c, 0, 83, 51
2, 356924, Note_off_c, 0, 83, 100
2, 356928, Note_on_c, 0, 84, 51
2, 357020, Note_off_c, 0, 84, 100
2, 357024, Note_on_c, 0, 83, 51
2, 357116, Note_off_c, 0, 83, 100
2, 357120, Note_on_c, 0, 84, 51
2, 357500, Note_off_c, 0, 84, 100
2, 357888, Note_on_c, 0, 80, 51
2, 358460, Note_off_c, 0, 80, 100
2, 358464, Note_on_c, 0, 81, 51
2, 358556, Note_off_c, 0, 81, 100
2, 358560, Note_on_c, 0, 80, 51
2, 358652, Note_off_c, 0, 80, 100
2, 358656, Note_on_c, 0, 81, 51
2, 359036, Note_off_c, 0, 81, 100
2, 359616, Note_on_c, 0, 81, 51
2, 359760, Note_off_c, 0, 81, 100
2, 359808, Note_on_c, 0, 84, 51
2, 359952, Note_off_c, 0, 84, 100
2, 360000, Note_on_c, 0, 78, 51
2, 360144, Note_off_c, 0, 78, 100
2, 360192, Note_on_c, 0, 81, 51
2, 360336, Note_off_c, 0, 81, 100
2, 360384, Note_on_c, 0, 75, 51
2, 360528, Note_off_c, 0, 75, 100
2, 360576, Note_on_c, 0, 78, 51
2, 360720, Note_off_c, 0, 78, 100
2, 360768, Note_on_c, 0, 72, 51
2, 360912, Note_off_c, 0, 72, 100
2, 360960, Note_on_c, 0, 75, 51
2, 361104, Note_off_c, 0, 75, 100
2, 361152, Note_on_c, 0, 69, 51
2, 361296, Note_off_c, 0, 69, 100
2, 361344, Note_on_c, 0, 72, 51
2, 361488, Note_off_c, 0, 72, 100
2, 361536, Note_on_c, 0, 66, 51
2, 361680, Note_off_c, 0, 66, 100
2, 361728, Note_on_c, 0, 69, 51
2, 361872, Note_off_c, 0, 69, 100
2, 361920, Note_on_c, 0, 63, 51
2, 362064, Note_off_c, 0, 63, 100
2, 362112, Note_on_c, 0, 66, 51
2, 362256, Note_off_c, 0, 66, 100
2, 362304, Note_on_c, 0, 57, 51
2, 362448, Note_off_c, 0, 57, 100
2, 363648, Note_on_c, 0, 80, 51
2, 363648, Note_on_c, 0, 76, 51
2, 363648, Note_on_c, 0, 71, 51
2, 363648, Note_on_c, 0, 74, 51
2, 364028, Note_off_c, 0, 80, 100
2, 364028, Note_off_c, 0, 76, 100
2, 364028, Note_off_c, 0, 71, 100
2, 364028, Note_off_c, 0, 74, 100
2, 364032, Note_on_c, 0, 81, 51
2, 364032, Note_on_c, 0, 76, 51
2, 364032, Note_on_c, 0, 72, 51
2, 364412, Note_off_c, 0, 81, 100
2, 364412, Note_off_c, 0, 76, 100
2, 364412, Note_off_c, 0, 72, 100
2, 364416, Note_on_c, 0, 69, 51
2, 364608, Note_on_c, 0, 72, 51
2, 364752, Note_off_c, 0, 72, 100
2, 364796, Note_off_c, 0, 69, 100
2, 364800, Note_on_c, 0, 76, 51
2, 364800, Note_on_c, 0, 71, 51
2, 364944, Note_off_c, 0, 76, 100
2, 364992, Note_on_c, 0, 74, 51
2, 365136, Note_off_c, 0, 74, 100
2, 365180, Note_off_c, 0, 71, 100
2, 365184, Note_on_c, 0, 68, 51
2, 365376, Note_on_c, 0, 71, 51
2, 365520, Note_off_c, 0, 71, 100
2, 365564, Note_off_c, 0, 68, 100
2, 365568, Note_on_c, 0, 74, 51
2, 365568, Note_on_c, 0, 69, 51
2, 365712, Note_off_c, 0, 74, 100
2, 365760, Note_on_c, 0, 72, 51
2, 365904, Note_off_c, 0, 72, 100
2, 365948, Note_off_c, 0, 69, 100
2, 365952, Note_on_c, 0, 65, 51
2, 366144, Note_on_c, 0, 69, 51
2, 366288, Note_off_c, 0, 69, 100
2, 366332, Note_off_c, 0, 65, 100
2, 366336, Note_on_c, 0, 72, 51
2, 366336, Note_on_c, 0, 62, 51
2, 366480, Note_off_c, 0, 72, 100
2, 366528, Note_on_c, 0, 71, 51
2, 366672, Note_off_c, 0, 71, 100
2, 366716, Note_off_c, 0, 62, 100
2, 366720, Note_on_c, 0, 64, 51
2, 366912, Note_on_c, 0, 68, 51
2, 367056, Note_off_c, 0, 68, 100
2, 367100, Note_off_c, 0, 64, 100
2, 367104, Note_on_c, 0, 71, 51
2, 367104, Note_on_c, 0, 60, 51
2, 367248, Note_off_c, 0, 71, 100
2, 367296, Note_on_c, 0, 69, 51
2, 367440, Note_off_c, 0, 69, 100
2, 367484, Note_off_c, 0, 60, 100
2, 367488, Note_on_c, 0, 72, 72
2, 367580, Note_off_c, 0, 72, 100
2, 367584, Note_on_c, 0, 74, 72
2, 367676, Note_off_c, 0, 74, 100
2, 367680, Note_on_c, 0, 76, 72
2, 367772, Note_off_c, 0, 76, 100
2, 367776, Note_on_c, 0, 72, 72
2, 367868, Note_off_c, 0, 72, 100
2, 367872, Note_on_c, 0, 74, 72
2, 367964, Note_off_c, 0, 74, 100
2, 367968, Note_on_c, 0, 76, 72
2, 368060, Note_off_c, 0, 76, 100
2, 368064, Note_on_c, 0, 77, 72
2, 368156, Note_off_c, 0, 77, 100
2, 368160, Note_on_c, 0, 74, 72
2, 368252, Note_off_c, 0, 74, 100
2, 368256, Note_on_c, 0, 71, 72
2, 368348, Note_off_c, 0, 71, 100
2, 368352, Note_on_c, 0, 72, 72
2, 368444, Note_off_c, 0, 72, 100
2, 368448, Note_on_c, 0, 74, 72
2, 368540, Note_off_c, 0, 74, 100
2, 368544, Note_on_c, 0, 71, 72
2, 368636, Note_off_c, 0, 71, 100
2, 368640, Note_on_c, 0, 72, 72
2, 368732, Note_off_c, 0, 72, 100
2, 368736, Note_on_c, 0, 74, 72
2, 368828, Note_off_c, 0, 74, 100
2, 368832, Note_on_c, 0, 76, 72
2, 368924, Note_off_c, 0, 76, 100
2, 368928, Note_on_c, 0, 72, 72
2, 369020, Note_off_c, 0, 72, 100
2, 369024, Note_on_c, 0, 69, 72
2, 369116, Note_off_c, 0, 69, 100
2, 369120, Note_on_c, 0, 71, 72
2, 369212, Note_off_c, 0, 71, 100
2, 369216, Note_on_c, 0, 72, 72
2, 369308, Note_off_c, 0, 72, 100
2, 369312, Note_on_c, 0, 69, 72
2, 369404, Note_off_c, 0, 69, 100
2, 369408, Note_on_c, 0, 71, 72
2, 369500, Note_off_c, 0, 71, 100
2, 369504, Note_on_c, 0, 72, 72
2, 369596, Note_off_c, 0, 72, 100
2, 369600, Note_on_c, 0, 74, 72
2, 369692, Note_off_c, 0, 74, 100
2, 369696, Note_on_c, 0, 71, 72
2, 369788, Note_off_c, 0, 71, 100
2, 369792, Note_on_c, 0, 68, 72
2, 369884, Note_off_c, 0, 68, 100
2, 369888, Note_on_c, 0, 69, 72
2, 369980, Note_off_c, 0, 69, 100
2, 369984, Note_on_c, 0, 71, 72
2, 370076, Note_off_c, 0, 71, 100
2, 370080, Note_on_c, 0, 68, 72
2, 370172, Note_off_c, 0, 68, 100
2, 370176, Note_on_c, 0, 57, 72
2, 370220, Note_off_c, 0, 57, 0
2, 370224, Note_on_c, 0, 60, 72
2, 370268, Note_off_c, 0, 60, 0
2, 370272, Note_on_c, 0, 64, 72
2, 370316, Note_off_c, 0, 64, 0
2, 370320, Note_on_c, 0, 69, 72
2, 370924, Note_off_c, 0, 69, 100
2, 370944, Note_on_c, 0, 64, 72
2, 371708, Note_off_c, 0, 64, 100
2, 371712, Note_on_c, 0, 72, 72
2, 372284, Note_off_c, 0, 72, 100
2, 372288, Note_on_c, 0, 74, 72
2, 372336, Note_off_c, 0, 74, 100
2, 372384, Note_on_c, 0, 71, 72
2, 372432, Note_off_c, 0, 71, 100
2, 372480, Note_on_c, 0, 69, 72
2, 372860, Note_off_c, 0, 69, 100
2, 373248, Note_on_c, 0, 76, 51
2, 373248, Note_on_c, 0, 72, 51
2, 373820, Note_off_c, 0, 76, 100
2, 373820, Note_off_c, 0, 72, 100
2, 373824, Note_on_c, 0, 77, 51
2, 373824, Note_on_c, 0, 74, 51
2, 373916, Note_off_c, 0, 77, 100
2, 373916, Note_off_c, 0, 74, 100
2, 373920, Note_on_c, 0, 74, 51
2, 373920, Note_on_c, 0, 71, 51
2, 374012, Note_off_c, 0, 74, 100
2, 374012, Note_off_c, 0, 71, 100
2, 374016, Note_on_c, 0, 72, 51
2, 374016, Note_on_c, 0, 69, 51
2, 374396, Note_off_c, 0, 72, 100
2, 374396, Note_off_c, 0, 69, 100
2, 374784, Note_on_c, 0, 84, 41
2, 374784, Note_on_c, 0, 76, 41
2, 375356, Note_off_c, 0, 84, 100
2, 375356, Note_off_c, 0, 76, 100
2, 375360, Note_on_c, 0, 86, 41
2, 375360, Note_on_c, 0, 77, 41
2, 375452, Note_off_c, 0, 86, 100
2, 375452, Note_off_c, 0, 77, 100
2, 375456, Note_on_c, 0, 83, 41
2, 375456, Note_on_c, 0, 74, 41
2, 375548, Note_off_c, 0, 83, 100
2, 375548, Note_off_c, 0, 74, 100
2, 375552, Note_on_c, 0, 81, 41
2, 375552, Note_on_c, 0, 72, 41
2, 375932, Note_off_c, 0, 81, 100
2, 375932, Note_off_c, 0, 72, 100
2, 376320, Note_on_c, 0, 59, 72
2, 376368, Note_off_c, 0, 59, 0
2, 376368, Note_on_c, 0, 62, 72
2, 376416, Note_off_c, 0, 62, 0
2, 376416, Note_on_c, 0, 67, 72
2, 376464, Note_off_c, 0, 67, 0
2, 376464, Note_on_c, 0, 71, 72
2, 377068, Note_off_c, 0, 71, 100
2, 377088, Note_on_c, 0, 67, 72
2, 377852, Note_off_c, 0, 67, 100
2, 377856, Note_on_c, 0, 74, 72
2, 378428, Note_off_c, 0, 74, 100
2, 378432, Note_on_c, 0, 76, 72
2, 378524, Note_off_c, 0, 76, 100
2, 378528, Note_on_c, 0, 72, 72
2, 378620, Note_off_c, 0, 72, 100
2, 378624, Note_on_c, 0, 71, 72
2, 379004, Note_off_c, 0, 71, 100
2, 379392, Note_on_c, 0, 77, 51
2, 379392, Note_on_c, 0, 74, 51
2, 379964, Note_off_c, 0, 77, 100
2, 379964, Note_off_c, 0, 74, 100
2, 379968, Note_on_c, 0, 79, 51
2, 379968, Note_on_c, 0, 76, 51
2, 380060, Note_off_c, 0, 79, 100
2, 380060, Note_off_c, 0, 76, 100
2, 380064, Note_on_c, 0, 76, 51
2, 380064, Note_on_c, 0, 72, 51
2, 380156, Note_off_c, 0, 76, 100
2, 380156, Note_off_c, 0, 72, 100
2, 380160, Note_on_c, 0, 74, 51
2, 380160, Note_on_c, 0, 71, 51
2, 380540, Note_off_c, 0, 74, 100
2, 380540, Note_off_c, 0, 71, 100
2, 380928, Note_on_c, 0, 86, 41
2, 380928, Note_on_c, 0, 77, 41
2, 381500, Note_off_c, 0, 86, 100
2, 381500, Note_off_c, 0, 77, 100
2, 381504, Note_on_c, 0, 88, 41
2, 381504, Note_on_c, 0, 79, 41
2, 381596, Note_off_c, 0, 88, 100
2, 381596, Note_off_c, 0, 79, 100
2, 381600, Note_on_c, 0, 84, 41
2, 381600, Note_on_c, 0, 76, 41
2, 381692, Note_off_c, 0, 84, 100
2, 381692, Note_off_c, 0, 76, 100
2, 381696, Note_on_c, 0, 83, 41
2, 381696, Note_on_c, 0, 74, 41
2, 382076, Note_off_c, 0, 83, 100
2, 382076, Note_off_c, 0, 74, 100
2, 382464, Note_on_c, 0, 60, 72
2, 382512, Note_off_c, 0, 60, 0
2, 382512, Note_on_c, 0, 64, 72
2, 382560, Note_off_c, 0, 64, 0
2, 382560, Note_on_c, 0, 67, 72
2, 382608, Note_off_c, 0, 67, 0
2, 382608, Note_on_c, 0, 72, 72
2, 383212, Note_off_c, 0, 72, 100
2, 383232, Note_on_c, 0, 67, 72
2, 383996, Note_off_c, 0, 67, 100
2, 384000, Note_on_c, 0, 76, 72
2, 384572, Note_off_c, 0, 76, 100
2, 384576, Note_on_c, 0, 77, 72
2, 384668, Note_off_c, 0, 77, 100
2, 384672, Note_on_c, 0, 74, 72
2, 384764, Note_off_c, 0, 74, 100
2, 384768, Note_on_c, 0, 72, 72
2, 385148, Note_off_c, 0, 72, 100
2, 385536, Note_on_c, 0, 79, 51
2, 385536, Note_on_c, 0, 64, 51
2, 385680, Note_off_c, 0, 64, 100
2, 385728, Note_on_c, 0, 67, 51
2, 385872, Note_off_c, 0, 67, 100
2, 385916, Note_off_c, 0, 79, 100
2, 385920, Note_on_c, 0, 79, 51
2, 385920, Note_on_c, 0, 64, 51
2, 386064, Note_off_c, 0, 64, 100
2, 386112, Note_on_c, 0, 67, 51
2, 386256, Note_off_c, 0, 67, 100
2, 386300, Note_off_c, 0, 79, 100
2, 386304, Note_on_c, 0, 61, 51
2, 386448, Note_off_c, 0, 61, 100
2, 386496, Note_on_c, 0, 67, 51
2, 386640, Note_off_c, 0, 67, 100
2, 386688, Note_on_c, 0, 81, 51
2, 386688, Note_on_c, 0, 61, 51
2, 386832, Note_off_c, 0, 61, 100
2, 386880, Note_on_c, 0, 67, 51
2, 387024, Note_off_c, 0, 67, 100
2, 387068, Note_off_c, 0, 81, 100
2, 387072, Note_on_c, 0, 79, 51
2, 387072, Note_on_c, 0, 62, 51
2, 387120, Note_on_c, 0, 77, 51
2, 387216, Note_off_c, 0, 79, 100
2, 387216, Note_off_c, 0, 62, 100
2, 387264, Note_on_c, 0, 67, 51
2, 387408, Note_off_c, 0, 67, 100
2, 387456, Note_on_c, 0, 77, 51
2, 387456, Note_on_c, 0, 62, 51
2, 387500, Note_off_c, 0, 77, 100
2, 387600, Note_off_c, 0, 62, 100
2, 387648, Note_on_c, 0, 67, 51
2, 387792, Note_off_c, 0, 67, 100
2, 387836, Note_off_c, 0, 77, 100
2, 387840, Note_on_c, 0, 59, 51
2, 387984, Note_off_c, 0, 59, 100
2, 388032, Note_on_c, 0, 67, 51
2, 388176, Note_off_c, 0, 67, 100
2, 388224, Note_on_c, 0, 79, 51
2, 388224, Note_on_c, 0, 59, 51
2, 388368, Note_off_c, 0, 59, 100
2, 388416, Note_on_c, 0, 67, 51
2, 388464, Note_off_c, 0, 79, 100
2, 388560, Note_off_c, 0, 67, 100
2, 388608, Note_on_c, 0, 77, 51
2, 388608, Note_on_c, 0, 60, 51
2, 388656, Note_on_c, 0, 76, 51
2, 388752, Note_off_c, 0, 77, 100
2, 388752, Note_off_c, 0, 60, 100
2, 388800, Note_on_c, 0, 67, 51
2, 388944, Note_off_c, 0, 67, 100
2, 388992, Note_on_c, 0, 76, 51
2, 388992, Note_on_c, 0, 60, 51
2, 389036, Note_off_c, 0, 76, 100
2, 389136, Note_off_c, 0, 60, 100
2, 389184, Note_on_c, 0, 67, 51
2, 389328, Note_off_c, 0, 67, 100
2, 389372, Note_off_c, 0, 76, 100
2, 389376, Note_on_c, 0, 64, 51
2, 389520, Note_off_c, 0, 64, 100
2, 389568, Note_on_c, 0, 67, 51
2, 389712, Note_off_c, 0, 67, 100
2, 389760, Note_on_c, 0, 79, 51
2, 389760, Note_on_c, 0, 64, 51
2, 389904, Note_off_c, 0, 79, 100
2, 389904, Note_off_c, 0, 64, 100
2, 389952, Note_on_c, 0, 76, 51
2, 389952, Note_on_c, 0, 67, 51
2, 390096, Note_off_c, 0, 76, 100
2, 390096, Note_off_c, 0, 67, 100
2, 390144, Note_on_c, 0, 73, 51
2, 390144, Note_on_c, 0, 69, 51
2, 390144, Note_on_c, 0, 65, 51
2, 390288, Note_off_c, 0, 73, 100
2, 390336, Note_on_c, 0, 74, 51
2, 390480, Note_off_c, 0, 74, 100
2, 390528, Note_on_c, 0, 77, 51
2, 390672, Note_off_c, 0, 77, 100
2, 390720, Note_on_c, 0, 76, 51
2, 390864, Note_off_c, 0, 76, 100
2, 390912, Note_on_c, 0, 73, 51
2, 391056, Note_off_c, 0, 73, 100
2, 391104, Note_on_c, 0, 74, 51
2, 391248, Note_off_c, 0, 74, 100
2, 391296, Note_on_c, 0, 77, 51
2, 391440, Note_off_c, 0, 77, 100
2, 391488, Note_on_c, 0, 76, 51
2, 391632, Note_off_c, 0, 76, 100
2, 391676, Note_off_c, 0, 69, 100
2, 391676, Note_off_c, 0, 65, 100
2, 391680, Note_on_c, 0, 73, 51
2, 391824, Note_off_c, 0, 73, 100
2, 391872, Note_on_c, 0, 74, 51
2, 392016, Note_off_c, 0, 74, 100
2, 392064, Note_on_c, 0, 77, 51
2, 392208, Note_off_c, 0, 77, 100
2, 392256, Note_on_c, 0, 81, 51
2, 392400, Note_off_c, 0, 81, 100
2, 392448, Note_on_c, 0, 79, 51
2, 392592, Note_off_c, 0, 79, 100
2, 392640, Note_on_c, 0, 76, 51
2, 392784, Note_off_c, 0, 76, 100
2, 392832, Note_on_c, 0, 77, 51
2, 392976, Note_off_c, 0, 77, 100
2, 393024, Note_on_c, 0, 74, 51
2, 393168, Note_off_c, 0, 74, 100
2, 393216, Note_on_c, 0, 60, 72
2, 393264, Note_off_c, 0, 60, 0
2, 393264, Note_on_c, 0, 63, 72
2, 393312, Note_off_c, 0, 63, 0
2, 393312, Note_on_c, 0, 67, 72
2, 393360, Note_off_c, 0, 67, 0
2, 393360, Note_on_c, 0, 72, 72
2, 393964, Note_off_c, 0, 72, 100
2, 393984, Note_on_c, 0, 67, 72
2, 394748, Note_off_c, 0, 67, 100
2, 394752, Note_on_c, 0, 75, 72
2, 395324, Note_off_c, 0, 75, 100
2, 395328, Note_on_c, 0, 77, 72
2, 395420, Note_off_c, 0, 77, 100
2, 395424, Note_on_c, 0, 74, 72
2, 395516, Note_off_c, 0, 74, 100
2, 395520, Note_on_c, 0, 72, 72
2, 395900, Note_off_c, 0, 72, 100
2, 396288, Note_on_c, 0, 78, 51
2, 396332, Note_off_c, 0, 78, 100
2, 396336, Note_on_c, 0, 79, 51
2, 396336, Note_on_c, 0, 63, 51
2, 396480, Note_off_c, 0, 63, 100
2, 396480, Note_on_c, 0, 67, 51
2, 396624, Note_off_c, 0, 67, 100
2, 396672, Note_on_c, 0, 79, 51
2, 396672, Note_on_c, 0, 63, 51
2, 396676, Note_off_c, 0, 79, 100
2, 396816, Note_off_c, 0, 63, 100
2, 396864, Note_on_c, 0, 67, 51
2, 397008, Note_off_c, 0, 67, 100
2, 397052, Note_off_c, 0, 79, 100
2, 397056, Note_on_c, 0, 60, 51
2, 397200, Note_off_c, 0, 60, 100
2, 397248, Note_on_c, 0, 72, 51
2, 397248, Note_on_c, 0, 67, 51
2, 397392, Note_off_c, 0, 72, 100
2, 397392, Note_off_c, 0, 67, 100
2, 397440, Note_on_c, 0, 84, 51
2, 397440, Note_on_c, 0, 60, 51
2, 397584, Note_off_c, 0, 84, 100
2, 397584, Note_off_c, 0, 60, 100
2, 397632, Note_on_c, 0, 80, 51
2, 397632, Note_on_c, 0, 67, 51
2, 397776, Note_off_c, 0, 80, 100
2, 397776, Note_off_c, 0, 67, 100
2, 397824, Note_on_c, 0, 79, 51
2, 397824, Note_on_c, 0, 62, 51
2, 397968, Note_off_c, 0, 79, 100
2, 397968, Note_off_c, 0, 62, 100
2, 398016, Note_on_c, 0, 78, 51
2, 398016, Note_on_c, 0, 67, 51
2, 398160, Note_off_c, 0, 78, 100
2, 398160, Note_off_c, 0, 67, 100
2, 398208, Note_on_c, 0, 77, 51
2, 398208, Note_on_c, 0, 62, 51
2, 398352, Note_off_c, 0, 62, 100
2, 398400, Note_on_c, 0, 67, 51
2, 398544, Note_off_c, 0, 67, 100
2, 398588, Note_off_c, 0, 77, 100
2, 398592, Note_on_c, 0, 59, 51
2, 398736, Note_off_c, 0, 59, 100
2, 398784, Note_on_c, 0, 77, 51
2, 398784, Note_on_c, 0, 67, 51
2, 398928, Note_off_c, 0, 77, 100
2, 398928, Note_off_c, 0, 67, 100
2, 398976, Note_on_c, 0, 80, 51
2, 398976, Note_on_c, 0, 59, 51
2, 399120, Note_off_c, 0, 80, 100
2, 399120, Note_off_c, 0, 59, 100
2, 399168, Note_on_c, 0, 77, 51
2, 399168, Note_on_c, 0, 67, 51
2, 399312, Note_off_c, 0, 77, 100
2, 399312, Note_off_c, 0, 67, 100
2, 399360, Note_on_c, 0, 77, 72
2, 399360, Note_on_c, 0, 61, 51
2, 399360, Note_on_c, 0, 58, 51
2, 399504, Note_off_c, 0, 77, 100
2, 399504, Note_off_c, 0, 61, 100
2, 399504, Note_off_c, 0, 58, 100
2, 399552, Note_on_c, 0, 76, 72
2, 399552, Note_on_c, 0, 67, 51
2, 399696, Note_off_c, 0, 76, 100
2, 399696, Note_off_c, 0, 67, 100
2, 399744, Note_on_c, 0, 85, 51
2, 399744, Note_on_c, 0, 61, 51
2, 399744, Note_on_c, 0, 58, 51
2, 399888, Note_off_c, 0, 61, 100
2, 399888, Note_off_c, 0, 58, 100
2, 399936, Note_on_c, 0, 67, 51
2, 400080, Note_off_c, 0, 67, 100
2, 400128, Note_on_c, 0, 61, 51
2, 400128, Note_on_c, 0, 58, 51
2, 400272, Note_off_c, 0, 61, 100
2, 400272, Note_off_c, 0, 58, 100
2, 400320, Note_on_c, 0, 67, 51
2, 400464, Note_off_c, 0, 67, 100
2, 400508, Note_off_c, 0, 85, 100
2, 400512, Note_on_c, 0, 61, 51
2, 400512, Note_on_c, 0, 58, 51
2, 400512, Note_on_c, 0, 76, 51
2, 400656, Note_off_c, 0, 61, 100
2, 400656, Note_off_c, 0, 58, 100
2, 400704, Note_on_c, 0, 67, 51
2, 400848, Note_off_c, 0, 67, 100
2, 400892, Note_off_c, 0, 76, 100
2, 400896, Note_on_c, 0, 79, 51
2, 400896, Note_on_c, 0, 60, 51
2, 400896, Note_on_c, 0, 56, 51
2, 401040, Note_off_c, 0, 60, 100
2, 401040, Note_off_c, 0, 56, 100
2, 401088, Note_on_c, 0, 64, 51
2, 401232, Note_off_c, 0, 64, 100
2, 401276, Note_off_c, 0, 79, 100
2, 401280, Note_on_c, 0, 77, 51
2, 401280, Note_on_c, 0, 60, 51
2, 401280, Note_on_c, 0, 56, 51
2, 401424, Note_off_c, 0, 60, 100
2, 401424, Note_off_c, 0, 56, 100
2, 401472, Note_on_c, 0, 65, 51
2, 401616, Note_off_c, 0, 65, 100
2, 401660, Note_off_c, 0, 77, 100
2, 401664, Note_on_c, 0, 60, 51
2, 401664, Note_on_c, 0, 56, 51
2, 401808, Note_off_c, 0, 60, 100
2, 401808, Note_off_c, 0, 56, 100
2, 401856, Note_on_c, 0, 77, 51
2, 401856, Note_on_c, 0, 65, 51
2, 402000, Note_off_c, 0, 77, 100
2, 402000, Note_off_c, 0, 65, 100
2, 402048, Note_on_c, 0, 84, 51
2, 402048, Note_on_c, 0, 60, 51
2, 402048, Note_on_c, 0, 56, 51
2, 402192, Note_off_c, 0, 84, 100
2, 402192, Note_off_c, 0, 60, 100
2, 402192, Note_off_c, 0, 56, 100
2, 402240, Note_on_c, 0, 80, 51
2, 402240, Note_on_c, 0, 65, 51
2, 402384, Note_off_c, 0, 80, 100
2, 402384, Note_off_c, 0, 65, 100
2, 402432, Note_on_c, 0, 79, 72
2, 402432, Note_on_c, 0, 63, 51
2, 402432, Note_on_c, 0, 60, 51
2, 402576, Note_off_c, 0, 79, 100
2, 402576, Note_off_c, 0, 63, 100
2, 402576, Note_off_c, 0, 60, 100
2, 402624, Note_on_c, 0, 78, 72
2, 402624, Note_on_c, 0, 69, 51
2, 402768, Note_off_c, 0, 78, 100
2, 402768, Note_off_c, 0, 69, 100
2, 402816, Note_on_c, 0, 63, 51
2, 402816, Note_on_c, 0, 60, 51
2, 402816, Note_on_c, 0, 87, 51
2, 402960, Note_off_c, 0, 63, 100
2, 402960, Note_off_c, 0, 60, 100
2, 403008, Note_on_c, 0, 69, 51
2, 403152, Note_off_c, 0, 69, 100
2, 403200, Note_on_c, 0, 63, 51
2, 403200, Note_on_c, 0, 60, 51
2, 403344, Note_off_c, 0, 63, 100
2, 403344, Note_off_c, 0, 60, 100
2, 403392, Note_on_c, 0, 69, 51
2, 403536, Note_off_c, 0, 69, 100
2, 403580, Note_off_c, 0, 87, 100
2, 403584, Note_on_c, 0, 63, 51
2, 403584, Note_on_c, 0, 60, 51
2, 403584, Note_on_c, 0, 78, 51
2, 403728, Note_off_c, 0, 63, 100
2, 403728, Note_off_c, 0, 60, 100
2, 403776, Note_on_c, 0, 69, 51
2, 403920, Note_off_c, 0, 69, 100
2, 403964, Note_off_c, 0, 78, 100
2, 403968, Note_on_c, 0, 81, 41
2, 403968, Note_on_c, 0, 62, 41
2, 403968, Note_on_c, 0, 59, 41
2, 404112, Note_off_c, 0, 81, 100
2, 404160, Note_on_c, 0, 79, 41
2, 404304, Note_off_c, 0, 79, 100
2, 404348, Note_off_c, 0, 62, 100
2, 404348, Note_off_c, 0, 59, 100
2, 404352, Note_on_c, 0, 78, 41
2, 404496, Note_off_c, 0, 78, 100
2, 404544, Note_on_c, 0, 79, 41
2, 404688, Note_off_c, 0, 79, 100
2, 404736, Note_on_c, 0, 78, 41
2, 404880, Note_off_c, 0, 78, 100
2, 404928, Note_on_c, 0, 79, 41
2, 405072, Note_off_c, 0, 79, 100
2, 405120, Note_on_c, 0, 78, 41
2, 405264, Note_off_c, 0, 78, 100
2, 405312, Note_on_c, 0, 79, 41
2, 405456, Note_off_c, 0, 79, 100
2, 405504, Note_on_c, 0, 77, 46
2, 405648, Note_off_c, 0, 77, 100
2, 405696, Note_on_c, 0, 79, 51
2, 405696, Note_on_c, 0, 67, 51
2, 405840, Note_off_c, 0, 79, 100
2, 405840, Note_off_c, 0, 67, 100
2, 405888, Note_on_c, 0, 77, 55
2, 405888, Note_on_c, 0, 66, 55
2, 406032, Note_off_c, 0, 77, 100
2, 406032, Note_off_c, 0, 66, 100
2, 406080, Note_on_c, 0, 79, 57
2, 406080, Note_on_c, 0, 67, 57
2, 406224, Note_off_c, 0, 79, 100
2, 406224, Note_off_c, 0, 67, 100
2, 406272, Note_on_c, 0, 80, 61
2, 406272, Note_on_c, 0, 68, 61
2, 406416, Note_off_c, 0, 80, 100
2, 406416, Note_off_c, 0, 68, 100
2, 406464, Note_on_c, 0, 81, 66
2, 406464, Note_on_c, 0, 69, 66
2, 406608, Note_off_c, 0, 81, 100
2, 406608, Note_off_c, 0, 69, 100
2, 406656, Note_on_c, 0, 82, 67
2, 406656, Note_on_c, 0, 70, 67
2, 406800, Note_off_c, 0, 82, 100
2, 406800, Note_off_c, 0, 70, 100
2, 406848, Note_on_c, 0, 83, 70
2, 406848, Note_on_c, 0, 71, 70
2, 406992, Note_off_c, 0, 83, 100
2, 406992, Note_off_c, 0, 71, 100
2, 407040, Note_on_c, 0, 84, 72
2, 407040, Note_on_c, 0, 72, 72
2, 407184, Note_off_c, 0, 84, 100
2, 407184, Note_off_c, 0, 72, 100
2, 407232, Note_on_c, 0, 84, 72
2, 407232, Note_on_c, 0, 72, 72
2, 407376, Note_off_c, 0, 84, 100
2, 407376, Note_off_c, 0, 72, 100
2, 407424, Note_on_c, 0, 84, 72
2, 407424, Note_on_c, 0, 72, 72
2, 408188, Note_off_c, 0, 84, 100
2, 408188, Note_off_c, 0, 72, 100
2, 408192, Note_on_c, 0, 83, 51
2, 408336, Note_off_c, 0, 83, 100
2, 408384, Note_on_c, 0, 81, 51
2, 408528, Note_off_c, 0, 81, 100
2, 408576, Note_on_c, 0, 79, 72
2, 408576, Note_on_c, 0, 72, 72
2, 408720, Note_off_c, 0, 79, 100
2, 408720, Note_off_c, 0, 72, 100
2, 408768, Note_on_c, 0, 79, 72
2, 408768, Note_on_c, 0, 72, 72
2, 408912, Note_off_c, 0, 79, 100
2, 408912, Note_off_c, 0, 72, 100
2, 408960, Note_on_c, 0, 79, 72
2, 408960, Note_on_c, 0, 72, 72
2, 409724, Note_off_c, 0, 79, 100
2, 409724, Note_off_c, 0, 72, 100
2, 409728, Note_on_c, 0, 77, 51
2, 409872, Note_off_c, 0, 77, 100
2, 409920, Note_on_c, 0, 76, 51
2, 410064, Note_off_c, 0, 76, 100
2, 410112, Note_on_c, 0, 76, 51
2, 410204, Note_off_c, 0, 76, 100
2, 410208, Note_on_c, 0, 74, 51
2, 410300, Note_off_c, 0, 74, 100
2, 410304, Note_on_c, 0, 77, 51
2, 410396, Note_off_c, 0, 77, 100
2, 410400, Note_on_c, 0, 76, 51
2, 410492, Note_off_c, 0, 76, 100
2, 410496, Note_on_c, 0, 79, 51
2, 410588, Note_off_c, 0, 79, 100
2, 410592, Note_on_c, 0, 77, 51
2, 410684, Note_off_c, 0, 77, 100
2, 410688, Note_on_c, 0, 76, 51
2, 410780, Note_off_c, 0, 76, 100
2, 410784, Note_on_c, 0, 74, 51
2, 410876, Note_off_c, 0, 74, 100
2, 410880, Note_on_c, 0, 72, 51
2, 411260, Note_off_c, 0, 72, 100
2, 411264, Note_on_c, 0, 71, 51
2, 411308, Note_off_c, 0, 71, 0
2, 411312, Note_on_c, 0, 72, 51
2, 411356, Note_off_c, 0, 72, 0
2, 411360, Note_on_c, 0, 71, 51
2, 411404, Note_off_c, 0, 71, 0
2, 411408, Note_on_c, 0, 72, 51
2, 411452, Note_off_c, 0, 72, 0
2, 411456, Note_on_c, 0, 69, 51
2, 411548, Note_off_c, 0, 69, 0
2, 411552, Note_on_c, 0, 71, 51
2, 411644, Note_off_c, 0, 71, 0
2, 411648, Note_on_c, 0, 84, 72
2, 411648, Note_on_c, 0, 72, 72
2, 411792, Note_off_c, 0, 84, 100
2, 411792, Note_off_c, 0, 72, 100
2, 411840, Note_on_c, 0, 84, 72
2, 411840, Note_on_c, 0, 72, 72
2, 411984, Note_off_c, 0, 84, 100
2, 411984, Note_off_c, 0, 72, 100
2, 412032, Note_on_c, 0, 84, 72
2, 412032, Note_on_c, 0, 72, 72
2, 412604, Note_off_c, 0, 84, 100
2, 412604, Note_off_c, 0, 72, 100
2, 412608, Note_on_c, 0, 86, 51
2, 412700, Note_off_c, 0, 86, 100
2, 412704, Note_on_c, 0, 84, 51
2, 412796, Note_off_c, 0, 84, 100
2, 412800, Note_on_c, 0, 83, 51
2, 412988, Note_off_c, 0, 83, 100
2, 412992, Note_on_c, 0, 81, 51
2, 413180, Note_off_c, 0, 81, 100
2, 413184, Note_on_c, 0, 79, 72
2, 413184, Note_on_c, 0, 72, 72
2, 413328, Note_off_c, 0, 79, 100
2, 413328, Note_off_c, 0, 72, 100
2, 413376, Note_on_c, 0, 79, 72
2, 413376, Note_on_c, 0, 72, 72
2, 413520, Note_off_c, 0, 79, 100
2, 413520, Note_off_c, 0, 72, 100
2, 413568, Note_on_c, 0, 79, 72
2, 413568, Note_on_c, 0, 72, 72
2, 414140, Note_off_c, 0, 79, 100
2, 414140, Note_off_c, 0, 72, 100
2, 414144, Note_on_c, 0, 81, 51
2, 414236, Note_off_c, 0, 81, 100
2, 414240, Note_on_c, 0, 79, 51
2, 414332, Note_off_c, 0, 79, 100
2, 414336, Note_on_c, 0, 77, 51
2, 414524, Note_off_c, 0, 77, 100
2, 414528, Note_on_c, 0, 76, 51
2, 414716, Note_off_c, 0, 76, 100
2, 414720, Note_on_c, 0, 76, 51
2, 414812, Note_off_c, 0, 76, 100
2, 414816, Note_on_c, 0, 74, 51
2, 414908, Note_off_c, 0, 74, 100
2, 414912, Note_on_c, 0, 81, 51
2, 415004, Note_off_c, 0, 81, 100
2, 415008, Note_on_c, 0, 80, 51
2, 415100, Note_off_c, 0, 80, 100
2, 415104, Note_on_c, 0, 83, 51
2, 415148, Note_off_c, 0, 83, 100
2, 415152, Note_on_c, 0, 81, 51
2, 415292, Note_off_c, 0, 81, 100
2, 415296, Note_on_c, 0, 79, 51
2, 415388, Note_off_c, 0, 79, 100
2, 415392, Note_on_c, 0, 77, 51
2, 415484, Note_off_c, 0, 77, 100
2, 415488, Note_on_c, 0, 76, 51
2, 415868, Note_off_c, 0, 76, 100
2, 415872, Note_on_c, 0, 74, 51
2, 415916, Note_off_c, 0, 74, 0
2, 415920, Note_on_c, 0, 76, 51
2, 415964, Note_off_c, 0, 76, 0
2, 415968, Note_on_c, 0, 74, 51
2, 416012, Note_off_c, 0, 74, 0
2, 416016, Note_on_c, 0, 76, 51
2, 416060, Note_off_c, 0, 76, 0
2, 416064, Note_on_c, 0, 72, 51
2, 416156, Note_off_c, 0, 72, 0
2, 416160, Note_on_c, 0, 74, 51
2, 416252, Note_off_c, 0, 74, 0
2, 416256, Note_on_c, 0, 72, 72
2, 416496, Note_off_c, 0, 72, 100
2, 416784, Note_on_c, 0, 74, 51
2, 416828, Note_off_c, 0, 74, 0
2, 416832, Note_on_c, 0, 72, 51
2, 416924, Note_off_c, 0, 72, 100
2, 416928, Note_on_c, 0, 71, 51
2, 417020, Note_off_c, 0, 71, 100
2, 417024, Note_on_c, 0, 72, 51
2, 417168, Note_off_c, 0, 72, 100
2, 417216, Note_on_c, 0, 75, 51
2, 417360, Note_off_c, 0, 75, 100
2, 417408, Note_on_c, 0, 76, 51
2, 417552, Note_off_c, 0, 76, 100
2, 417600, Note_on_c, 0, 78, 51
2, 417744, Note_off_c, 0, 78, 100
2, 417792, Note_on_c, 0, 79, 51
2, 417936, Note_off_c, 0, 79, 100
2, 417984, Note_on_c, 0, 83, 51
2, 418128, Note_off_c, 0, 83, 100
2, 418128, Note_on_c, 0, 84, 51
2, 418272, Note_off_c, 0, 84, 100
2, 418368, Note_on_c, 0, 87, 51
2, 418512, Note_off_c, 0, 87, 100
2, 418560, Note_on_c, 0, 88, 51
2, 418940, Note_off_c, 0, 88, 100
2, 419328, Note_on_c, 0, 74, 72
2, 419344, Note_on_c, 0, 79, 72
2, 419364, Note_on_c, 0, 86, 72
2, 419708, Note_off_c, 0, 74, 100
2, 419724, Note_off_c, 0, 79, 100
2, 419744, Note_off_c, 0, 86, 100
2, 419856, Note_on_c, 0, 72, 51
2, 419900, Note_off_c, 0, 72, 100
2, 419904, Note_on_c, 0, 71, 51
2, 419996, Note_off_c, 0, 71, 100
2, 420000, Note_on_c, 0, 69, 51
2, 420092, Note_off_c, 0, 69, 100
2, 420096, Note_on_c, 0, 71, 51
2, 420240, Note_off_c, 0, 71, 100
2, 420288, Note_on_c, 0, 73, 51
2, 420432, Note_off_c, 0, 73, 100
2, 420480, Note_on_c, 0, 74, 51
2, 420624, Note_off_c, 0, 74, 100
2, 420672, Note_on_c, 0, 78, 51
2, 420816, Note_off_c, 0, 78, 100
2, 420864, Note_on_c, 0, 79, 51
2, 421008, Note_off_c, 0, 79, 100
2, 421056, Note_on_c, 0, 81, 51
2, 421200, Note_off_c, 0, 81, 100
2, 421248, Note_on_c, 0, 83, 51
2, 421392, Note_off_c, 0, 83, 100
2, 421440, Note_on_c, 0, 85, 51
2, 421584, Note_off_c, 0, 85, 100
2, 421632, Note_on_c, 0, 86, 51
2, 422012, Note_off_c, 0, 86, 100
2, 422400, Note_on_c, 0, 72, 72
2, 422416, Note_on_c, 0, 78, 72
2, 422436, Note_on_c, 0, 84, 72
2, 422780, Note_off_c, 0, 72, 100
2, 422796, Note_off_c, 0, 78, 100
2, 422816, Note_off_c, 0, 84, 100
2, 422928, Note_on_c, 0, 71, 51
2, 422972, Note_off_c, 0, 71, 100
2, 422976, Note_on_c, 0, 69, 51
2, 423068, Note_off_c, 0, 69, 100
2, 423072, Note_on_c, 0, 68, 51
2, 423164, Note_off_c, 0, 68, 100
2, 423168, Note_on_c, 0, 69, 51
2, 423312, Note_off_c, 0, 69, 100
2, 423360, Note_on_c, 0, 71, 51
2, 423504, Note_off_c, 0, 71, 100
2, 423552, Note_on_c, 0, 72, 51
2, 423696, Note_off_c, 0, 72, 100
2, 423744, Note_on_c, 0, 77, 51
2, 423888, Note_off_c, 0, 77, 100
2, 423936, Note_on_c, 0, 78, 51
2, 424080, Note_off_c, 0, 78, 100
2, 424128, Note_on_c, 0, 80, 51
2, 424272, Note_off_c, 0, 80, 100
2, 424320, Note_on_c, 0, 81, 51
2, 424464, Note_off_c, 0, 81, 100
2, 424512, Note_on_c, 0, 83, 51
2, 424656, Note_off_c, 0, 83, 100
2, 424704, Note_on_c, 0, 84, 51
2, 425084, Note_off_c, 0, 84, 100
2, 425472, Note_on_c, 0, 83, 72
2, 425564, Note_off_c, 0, 83, 100
2, 425568, Note_on_c, 0, 81, 72
2, 425660, Note_off_c, 0, 81, 100
2, 425664, Note_on_c, 0, 84, 72
2, 425756, Note_off_c, 0, 84, 100
2, 425760, Note_on_c, 0, 83, 72
2, 425852, Note_off_c, 0, 83, 100
2, 425856, Note_on_c, 0, 86, 72
2, 426000, Note_off_c, 0, 86, 100
2, 426048, Note_on_c, 0, 78, 72
2, 426192, Note_off_c, 0, 78, 100
2, 426240, Note_on_c, 0, 79, 72
2, 426332, Note_off_c, 0, 79, 100
2, 426336, Note_on_c, 0, 78, 72
2, 426428, Note_off_c, 0, 78, 100
2, 426432, Note_on_c, 0, 81, 72
2, 426524, Note_off_c, 0, 81, 100
2, 426528, Note_on_c, 0, 79, 72
2, 426620, Note_off_c, 0, 79, 100
2, 426624, Note_on_c, 0, 83, 72
2, 426768, Note_off_c, 0, 83, 100
2, 426816, Note_on_c, 0, 74, 72
2, 426960, Note_off_c, 0, 74, 100
2, 427008, Note_on_c, 0, 76, 72
2, 427100, Note_off_c, 0, 76, 100
2, 427104, Note_on_c, 0, 75, 72
2, 427196, Note_off_c, 0, 75, 100
2, 427200, Note_on_c, 0, 78, 72
2, 427292, Note_off_c, 0, 78, 100
2, 427296, Note_on_c, 0, 76, 72
2, 427388, Note_off_c, 0, 76, 100
2, 427392, Note_on_c, 0, 79, 72
2, 427536, Note_off_c, 0, 79, 100
2, 427584, Note_on_c, 0, 71, 72
2, 427728, Note_off_c, 0, 71, 100
2, 427776, Note_on_c, 0, 72, 72
2, 427868, Note_off_c, 0, 72, 100
2, 427872, Note_on_c, 0, 71, 72
2, 427964, Note_off_c, 0, 71, 100
2, 427968, Note_on_c, 0, 74, 72
2, 428060, Note_off_c, 0, 74, 100
2, 428064, Note_on_c, 0, 72, 72
2, 428156, Note_off_c, 0, 72, 100
2, 428160, Note_on_c, 0, 76, 72
2, 428304, Note_off_c, 0, 76, 100
2, 428352, Note_on_c, 0, 69, 72
2, 428496, Note_off_c, 0, 69, 100
2, 428544, Note_on_c, 0, 71, 72
2, 428636, Note_off_c, 0, 71, 100
2, 428640, Note_on_c, 0, 69, 72
2, 428732, Note_off_c, 0, 69, 100
2, 428736, Note_on_c, 0, 72, 72
2, 428828, Note_off_c, 0, 72, 100
2, 428832, Note_on_c, 0, 71, 72
2, 428924, Note_off_c, 0, 71, 100
2, 428928, Note_on_c, 0, 74, 72
2, 429072, Note_off_c, 0, 74, 100
2, 429120, Note_on_c, 0, 66, 72
2, 429264, Note_off_c, 0, 66, 100
2, 429312, Note_on_c, 0, 67, 72
2, 429404, Note_off_c, 0, 67, 100
2, 429408, Note_on_c, 0, 66, 72
2, 429500, Note_off_c, 0, 66, 100
2, 429504, Note_on_c, 0, 69, 72
2, 429596, Note_off_c, 0, 69, 100
2, 429600, Note_on_c, 0, 67, 72
2, 429692, Note_off_c, 0, 67, 100
2, 429696, Note_on_c, 0, 71, 72
2, 429840, Note_off_c, 0, 71, 100
2, 429888, Note_on_c, 0, 62, 72
2, 430032, Note_off_c, 0, 62, 100
2, 430080, Note_on_c, 0, 64, 72
2, 430364, Note_off_c, 0, 64, 100
2, 430368, Note_on_c, 0, 62, 72
2, 430460, Note_off_c, 0, 62, 100
2, 430464, Note_on_c, 0, 60, 72
2, 430748, Note_off_c, 0, 60, 100
2, 430752, Note_on_c, 0, 59, 72
2, 430844, Note_off_c, 0, 59, 100
2, 430848, Note_on_c, 0, 60, 72
2, 431132, Note_off_c, 0, 60, 100
2, 431904, Note_on_c, 0, 62, 72
2, 431996, Note_off_c, 0, 62, 100
2, 432000, Note_on_c, 0, 67, 72
2, 432144, Note_off_c, 0, 67, 100
2, 432192, Note_on_c, 0, 67, 72
2, 432336, Note_off_c, 0, 67, 100
2, 432384, Note_on_c, 0, 67, 72
2, 432764, Note_off_c, 0, 67, 100
2, 433152, Note_on_c, 0, 78, 51
2, 433296, Note_off_c, 0, 78, 100
2, 433344, Note_on_c, 0, 79, 51
2, 433488, Note_off_c, 0, 79, 100
2, 433536, Note_on_c, 0, 78, 51
2, 433680, Note_off_c, 0, 78, 100
2, 433728, Note_on_c, 0, 79, 51
2, 433872, Note_off_c, 0, 79, 100
2, 433920, Note_on_c, 0, 78, 51
2, 434064, Note_off_c, 0, 78, 100
2, 434112, Note_on_c, 0, 79, 51
2, 434256, Note_off_c, 0, 79, 100
2, 434304, Note_on_c, 0, 78, 51
2, 434448, Note_off_c, 0, 78, 100
2, 434496, Note_on_c, 0, 79, 51
2, 434640, Note_off_c, 0, 79, 100
2, 434688, Note_on_c, 0, 77, 51
2, 434832, Note_off_c, 0, 77, 100
2, 434880, Note_on_c, 0, 79, 51
2, 435024, Note_off_c, 0, 79, 100
2, 435072, Note_on_c, 0, 76, 51
2, 435216, Note_off_c, 0, 76, 100
2, 435264, Note_on_c, 0, 79, 51
2, 435408, Note_off_c, 0, 79, 100
2, 435456, Note_on_c, 0, 77, 51
2, 435600, Note_off_c, 0, 77, 100
2, 435648, Note_on_c, 0, 79, 51
2, 435792, Note_off_c, 0, 79, 100
2, 435840, Note_on_c, 0, 74, 51
2, 435984, Note_off_c, 0, 74, 100
2, 436032, Note_on_c, 0, 79, 51
2, 436176, Note_off_c, 0, 79, 100
2, 436224, Note_on_c, 0, 72, 51
2, 436224, Note_on_c, 0, 64, 51
2, 436368, Note_off_c, 0, 72, 100
2, 436368, Note_off_c, 0, 64, 100
2, 436416, Note_on_c, 0, 79, 51
2, 436416, Note_on_c, 0, 65, 51
2, 436560, Note_off_c, 0, 79, 100
2, 436560, Note_off_c, 0, 65, 100
2, 436608, Note_on_c, 0, 72, 51
2, 436608, Note_on_c, 0, 67, 51
2, 436752, Note_off_c, 0, 72, 100
2, 436752, Note_off_c, 0, 67, 100
2, 436800, Note_on_c, 0, 79, 51
2, 436800, Note_on_c, 0, 64, 51
2, 436944, Note_off_c, 0, 79, 100
2, 436944, Note_off_c, 0, 64, 100
2, 436992, Note_on_c, 0, 76, 51
2, 436992, Note_on_c, 0, 60, 51
2, 437136, Note_off_c, 0, 76, 100
2, 437184, Note_on_c, 0, 79, 51
2, 437328, Note_off_c, 0, 79, 100
2, 437376, Note_on_c, 0, 76, 51
2, 437520, Note_off_c, 0, 60, 100
2, 437520, Note_off_c, 0, 76, 100
2, 437568, Note_on_c, 0, 79, 51
2, 437712, Note_off_c, 0, 79, 100
2, 437760, Note_on_c, 0, 77, 51
2, 437760, Note_on_c, 0, 62, 51
2, 437904, Note_off_c, 0, 77, 100
2, 437904, Note_off_c, 0, 62, 100
2, 437952, Note_on_c, 0, 79, 51
2, 437952, Note_on_c, 0, 64, 51
2, 438096, Note_off_c, 0, 79, 100
2, 438096, Note_off_c, 0, 64, 100
2, 438144, Note_on_c, 0, 77, 51
2, 438144, Note_on_c, 0, 65, 51
2, 438288, Note_off_c, 0, 77, 100
2, 438288, Note_off_c, 0, 65, 100
2, 438336, Note_on_c, 0, 79, 51
2, 438336, Note_on_c, 0, 62, 51
2, 438480, Note_off_c, 0, 79, 100
2, 438480, Note_off_c, 0, 62, 100
2, 438528, Note_on_c, 0, 74, 51
2, 438528, Note_on_c, 0, 59, 51
2, 438672, Note_off_c, 0, 74, 100
2, 438720, Note_on_c, 0, 79, 51
2, 438864, Note_off_c, 0, 79, 100
2, 438912, Note_on_c, 0, 74, 51
2, 439056, Note_off_c, 0, 59, 100
2, 439056, Note_off_c, 0, 74, 100
2, 439104, Note_on_c, 0, 79, 51
2, 439248, Note_off_c, 0, 79, 100
2, 439296, Note_on_c, 0, 76, 51
2, 439296, Note_on_c, 0, 62, 51
2, 439388, Note_off_c, 0, 62, 0
2, 439392, Note_on_c, 0, 60, 51
2, 439440, Note_off_c, 0, 76, 100
2, 439488, Note_on_c, 0, 79, 51
2, 439536, Note_off_c, 0, 60, 0
2, 439632, Note_off_c, 0, 79, 100
2, 439680, Note_on_c, 0, 72, 51
2, 439680, Note_on_c, 0, 65, 51
2, 439772, Note_off_c, 0, 65, 0
2, 439776, Note_on_c, 0, 64, 51
2, 439824, Note_off_c, 0, 72, 0
2, 439872, Note_on_c, 0, 79, 51
2, 439920, Note_off_c, 0, 64, 0
2, 440016, Note_off_c, 0, 79, 100
2, 440064, Note_on_c, 0, 71, 51
2, 440064, Note_on_c, 0, 61, 51
2, 440156, Note_off_c, 0, 61, 0
2, 440160, Note_on_c, 0, 62, 51
2, 440208, Note_off_c, 0, 71, 0
2, 440256, Note_on_c, 0, 79, 51
2, 440304, Note_off_c, 0, 62, 0
2, 440400, Note_off_c, 0, 79, 100
2, 440448, Note_on_c, 0, 74, 51
2, 440592, Note_off_c, 0, 74, 100
2, 440640, Note_on_c, 0, 79, 51
2, 440784, Note_off_c, 0, 79, 100
2, 440832, Note_on_c, 0, 72, 51
2, 440832, Note_on_c, 0, 65, 51
2, 440924, Note_off_c, 0, 65, 0
2, 440928, Note_on_c, 0, 64, 51
2, 440976, Note_off_c, 0, 72, 100
2, 441024, Note_on_c, 0, 79, 51
2, 441072, Note_off_c, 0, 64, 0
2, 441168, Note_off_c, 0, 79, 100
2, 441216, Note_on_c, 0, 72, 51
2, 441216, Note_on_c, 0, 67, 51
2, 441308, Note_off_c, 0, 72, 100
2, 441312, Note_on_c, 0, 66, 51
2, 441360, Note_off_c, 0, 67, 0
2, 441408, Note_on_c, 0, 81, 51
2, 441456, Note_off_c, 0, 66, 0
2, 441552, Note_off_c, 0, 81, 100
2, 441600, Note_on_c, 0, 71, 51
2, 441600, Note_on_c, 0, 69, 51
2, 441692, Note_off_c, 0, 69, 0
2, 441696, Note_on_c, 0, 67, 51
2, 441744, Note_off_c, 0, 71, 0
2, 441792, Note_on_c, 0, 74, 51
2, 441840, Note_off_c, 0, 67, 0
2, 441936, Note_off_c, 0, 74, 100
2, 441984, Note_on_c, 0, 78, 51
2, 442128, Note_off_c, 0, 78, 100
2, 442176, Note_on_c, 0, 79, 51
2, 442320, Note_off_c, 0, 79, 100
2, 442368, Note_on_c, 0, 76, 51
2, 442512, Note_off_c, 0, 76, 100
2, 442560, Note_on_c, 0, 77, 51
2, 442704, Note_off_c, 0, 77, 100
2, 442752, Note_on_c, 0, 79, 51
2, 442896, Note_off_c, 0, 79, 100
2, 442944, Note_on_c, 0, 76, 51
2, 443088, Note_off_c, 0, 76, 100
2, 443136, Note_on_c, 0, 72, 51
2, 443900, Note_off_c, 0, 72, 100
2, 443904, Note_on_c, 0, 74, 51
2, 444048, Note_off_c, 0, 74, 100
2, 444096, Note_on_c, 0, 76, 51
2, 444240, Note_off_c, 0, 76, 100
2, 444288, Note_on_c, 0, 77, 51
2, 444432, Note_off_c, 0, 77, 100
2, 444432, Note_on_c, 0, 74, 51
2, 444576, Note_off_c, 0, 74, 100
2, 444672, Note_on_c, 0, 83, 51
2, 445436, Note_off_c, 0, 83, 100
2, 445440, Note_on_c, 0, 84, 51
2, 445532, Note_off_c, 0, 84, 100
2, 445536, Note_on_c, 0, 83, 51
2, 445820, Note_off_c, 0, 83, 100
2, 445824, Note_on_c, 0, 81, 51
2, 445916, Note_off_c, 0, 81, 100
2, 445920, Note_on_c, 0, 79, 51
2, 446204, Note_off_c, 0, 79, 100
2, 446208, Note_on_c, 0, 76, 51
2, 446300, Note_off_c, 0, 76, 100
2, 446304, Note_on_c, 0, 77, 51
2, 446588, Note_off_c, 0, 77, 100
2, 446976, Note_on_c, 0, 77, 51
2, 447068, Note_off_c, 0, 77, 100
2, 447072, Note_on_c, 0, 76, 51
2, 447356, Note_off_c, 0, 76, 100
2, 447360, Note_on_c, 0, 74, 51
2, 447452, Note_off_c, 0, 74, 100
2, 447456, Note_on_c, 0, 72, 51
2, 447740, Note_off_c, 0, 72, 100
2, 447744, Note_on_c, 0, 81, 51
2, 447836, Note_off_c, 0, 81, 100
2, 447840, Note_on_c, 0, 79, 51
2, 448124, Note_off_c, 0, 79, 100
2, 448512, Note_on_c, 0, 79, 72
2, 448512, Note_on_c, 0, 67, 72
2, 449276, Note_off_c, 0, 79, 100
2, 449276, Note_off_c, 0, 67, 100
2, 449280, Note_on_c, 0, 77, 51
2, 449424, Note_off_c, 0, 77, 100
2, 449472, Note_on_c, 0, 76, 51
2, 449616, Note_off_c, 0, 76, 100
2, 449664, Note_on_c, 0, 74, 51
2, 449808, Note_off_c, 0, 74, 100
2, 449856, Note_on_c, 0, 72, 51
2, 450000, Note_off_c, 0, 72, 100
2, 450048, Note_on_c, 0, 81, 51
2, 450048, Note_on_c, 0, 69, 51
2, 450428, Note_off_c, 0, 81, 100
2, 450428, Note_off_c, 0, 69, 100
2, 450816, Note_on_c, 0, 79, 51
2, 450960, Note_off_c, 0, 79, 100
2, 451008, Note_on_c, 0, 77, 51
2, 451152, Note_off_c, 0, 77, 100
2, 451200, Note_on_c, 0, 76, 51
2, 451344, Note_off_c, 0, 76, 100
2, 451392, Note_on_c, 0, 74, 51
2, 451536, Note_off_c, 0, 74, 100
2, 451584, Note_on_c, 0, 76, 51
2, 451676, Note_off_c, 0, 76, 100
2, 451680, Note_on_c, 0, 77, 51
2, 451772, Note_off_c, 0, 77, 100
2, 451776, Note_on_c, 0, 79, 51
2, 451868, Note_off_c, 0, 79, 100
2, 451872, Note_on_c, 0, 76, 51
2, 451964, Note_off_c, 0, 76, 100
2, 451968, Note_on_c, 0, 72, 51
2, 452112, Note_off_c, 0, 72, 100
2, 452352, Note_on_c, 0, 74, 51
2, 452444, Note_off_c, 0, 74, 100
2, 452448, Note_on_c, 0, 76, 51
2, 452540, Note_off_c, 0, 76, 100
2, 452544, Note_on_c, 0, 77, 51
2, 452636, Note_off_c, 0, 77, 100
2, 452640, Note_on_c, 0, 74, 51
2, 452732, Note_off_c, 0, 74, 100
2, 452736, Note_on_c, 0, 71, 51
2, 452880, Note_off_c, 0, 71, 100
2, 453120, Note_on_c, 0, 79, 72
2, 453120, Note_on_c, 0, 67, 72
2, 453884, Note_off_c, 0, 79, 100
2, 453884, Note_off_c, 0, 67, 100
2, 453888, Note_on_c, 0, 77, 51
2, 453980, Note_off_c, 0, 77, 100
2, 453984, Note_on_c, 0, 79, 51
2, 454076, Note_off_c, 0, 79, 100
2, 454080, Note_on_c, 0, 77, 51
2, 454172, Note_off_c, 0, 77, 100
2, 454176, Note_on_c, 0, 76, 51
2, 454268, Note_off_c, 0, 76, 100
2, 454272, Note_on_c, 0, 74, 51
2, 454364, Note_off_c, 0, 74, 100
2, 454368, Note_on_c, 0, 76, 51
2, 454460, Note_off_c, 0, 76, 100
2, 454464, Note_on_c, 0, 74, 51
2, 454556, Note_off_c, 0, 74, 100
2, 454560, Note_on_c, 0, 72, 51
2, 454652, Note_off_c, 0, 72, 100
2, 454656, Note_on_c, 0, 84, 51
2, 454656, Note_on_c, 0, 72, 51
2, 455420, Note_off_c, 0, 84, 100
2, 455420, Note_off_c, 0, 72, 100
2, 455424, Note_on_c, 0, 83, 51
2, 455516, Note_off_c, 0, 83, 100
2, 455520, Note_on_c, 0, 84, 51
2, 455612, Note_off_c, 0, 84, 100
2, 455616, Note_on_c, 0, 83, 51
2, 455708, Note_off_c, 0, 83, 100
2, 455712, Note_on_c, 0, 81, 51
2, 455804, Note_off_c, 0, 81, 100
2, 455808, Note_on_c, 0, 79, 51
2, 455900, Note_off_c, 0, 79, 100
2, 455904, Note_on_c, 0, 81, 51
2, 455996, Note_off_c, 0, 81, 100
2, 456000, Note_on_c, 0, 79, 51
2, 456092, Note_off_c, 0, 79, 100
2, 456096, Note_on_c, 0, 77, 51
2, 456188, Note_off_c, 0, 77, 100
2, 456192, Note_on_c, 0, 76, 51
2, 456336, Note_off_c, 0, 76, 100
2, 456384, Note_on_c, 0, 72, 51
2, 456528, Note_off_c, 0, 72, 100
2, 456576, Note_on_c, 0, 77, 72
2, 456956, Note_off_c, 0, 77, 100
2, 456960, Note_on_c, 0, 76, 51
2, 457104, Note_off_c, 0, 76, 100
2, 457152, Note_on_c, 0, 72, 51
2, 457296, Note_off_c, 0, 72, 100
2, 457344, Note_on_c, 0, 81, 72
2, 457724, Note_off_c, 0, 81, 100
2, 457728, Note_on_c, 0, 79, 51
2, 457872, Note_off_c, 0, 79, 100
2, 457920, Note_on_c, 0, 72, 51
2, 458064, Note_off_c, 0, 72, 100
2, 458112, Note_on_c, 0, 77, 72
2, 458492, Note_off_c, 0, 77, 100
2, 458496, Note_on_c, 0, 76, 51
2, 458640, Note_off_c, 0, 76, 100
2, 458688, Note_on_c, 0, 72, 51
2, 458832, Note_off_c, 0, 72, 100
2, 458880, Note_on_c, 0, 81, 72
2, 459260, Note_off_c, 0, 81, 100
2, 459264, Note_on_c, 0, 82, 72
2, 459264, Note_on_c, 0, 70, 72
2, 460028, Note_off_c, 0, 82, 100
2, 460028, Note_off_c, 0, 70, 100
2, 460032, Note_on_c, 0, 82, 72
2, 460032, Note_on_c, 0, 70, 72
2, 460412, Note_off_c, 0, 82, 100
2, 460412, Note_off_c, 0, 70, 100
2, 460416, Note_on_c, 0, 82, 72
2, 460416, Note_on_c, 0, 70, 72
2, 460796, Note_off_c, 0, 82, 100
2, 460796, Note_off_c, 0, 70, 100
2, 460800, Note_on_c, 0, 81, 72
2, 460800, Note_on_c, 0, 69, 72
2, 460944, Note_off_c, 0, 81, 100
2, 460944, Note_off_c, 0, 69, 100
2, 460992, Note_on_c, 0, 79, 72
2, 461136, Note_off_c, 0, 79, 100
2, 461184, Note_on_c, 0, 77, 72
2, 461228, Note_off_c, 0, 77, 0
2, 461232, Note_on_c, 0, 79, 72
2, 461276, Note_off_c, 0, 79, 0
2, 461280, Note_on_c, 0, 77, 72
2, 461324, Note_off_c, 0, 77, 0
2, 461328, Note_on_c, 0, 79, 72
2, 461372, Note_off_c, 0, 79, 0
2, 461376, Note_on_c, 0, 76, 72
2, 461520, Note_off_c, 0, 76, 100
2, 461568, Note_on_c, 0, 74, 72
2, 461612, Note_off_c, 0, 74, 0
2, 461616, Note_on_c, 0, 76, 72
2, 461660, Note_off_c, 0, 76, 0
2, 461664, Note_on_c, 0, 74, 72
2, 461708, Note_off_c, 0, 74, 0
2, 461712, Note_on_c, 0, 76, 72
2, 461756, Note_off_c, 0, 76, 0
2, 461760, Note_on_c, 0, 72, 72
2, 461904, Note_off_c, 0, 72, 100
2, 461952, Note_on_c, 0, 71, 66
2, 461996, Note_off_c, 0, 71, 0
2, 462000, Note_on_c, 0, 72, 66
2, 462044, Note_off_c, 0, 72, 0
2, 462048, Note_on_c, 0, 71, 66
2, 462092, Note_off_c, 0, 71, 0
2, 462096, Note_on_c, 0, 72, 66
2, 462140, Note_off_c, 0, 72, 0
2, 462144, Note_on_c, 0, 69, 66
2, 462288, Note_off_c, 0, 69, 100
2, 462336, Note_on_c, 0, 67, 66
2, 462480, Note_off_c, 0, 67, 100
2, 462528, Note_on_c, 0, 69, 66
2, 462620, Note_off_c, 0, 69, 100
2, 462624, Note_on_c, 0, 71, 66
2, 462716, Note_off_c, 0, 71, 100
2, 462720, Note_on_c, 0, 72, 66
2, 462812, Note_off_c, 0, 72, 100
2, 462816, Note_on_c, 0, 74, 66
2, 462908, Note_off_c, 0, 74, 100
2, 462912, Note_on_c, 0, 76, 66
2, 463004, Note_off_c, 0, 76, 100
2, 463008, Note_on_c, 0, 77, 66
2, 463100, Note_off_c, 0, 77, 100
2, 463104, Note_on_c, 0, 78, 66
2, 463196, Note_off_c, 0, 78, 100
2, 463200, Note_on_c, 0, 79, 66
2, 463292, Note_off_c, 0, 79, 100
2, 463296, Note_on_c, 0, 81, 66
2, 463388, Note_off_c, 0, 81, 100
2, 463392, Note_on_c, 0, 79, 66
2, 463484, Note_off_c, 0, 79, 100
2, 463488, Note_on_c, 0, 78, 66
2, 463532, Note_off_c, 0, 78, 100
2, 463536, Note_on_c, 0, 76, 66
2, 463676, Note_off_c, 0, 76, 100
2, 463680, Note_on_c, 0, 74, 66
2, 463772, Note_off_c, 0, 74, 100
2, 463776, Note_on_c, 0, 72, 66
2, 463868, Note_off_c, 0, 72, 100
2, 463872, Note_on_c, 0, 74, 66
2, 463916, Note_off_c, 0, 74, 100
2, 463920, Note_on_c, 0, 76, 66
2, 463964, Note_off_c, 0, 76, 100
2, 463968, Note_on_c, 0, 74, 66
2, 464012, Note_off_c, 0, 74, 100
2, 464016, Note_on_c, 0, 76, 66
2, 464060, Note_off_c, 0, 76, 100
2, 464064, Note_on_c, 0, 74, 66
2, 464108, Note_off_c, 0, 74, 100
2, 464112, Note_on_c, 0, 76, 66
2, 464156, Note_off_c, 0, 76, 100
2, 464160, Note_on_c, 0, 74, 66
2, 464204, Note_off_c, 0, 74, 100
2, 464208, Note_on_c, 0, 76, 66
2, 464252, Note_off_c, 0, 76, 100
2, 464256, Note_on_c, 0, 74, 66
2, 464300, Note_off_c, 0, 74, 100
2, 464304, Note_on_c, 0, 76, 66
2, 464348, Note_off_c, 0, 76, 100
2, 464352, Note_on_c, 0, 74, 66
2, 464396, Note_off_c, 0, 74, 100
2, 464400, Note_on_c, 0, 76, 66
2, 464444, Note_off_c, 0, 76, 100
2, 464448, Note_on_c, 0, 74, 66
2, 464492, Note_off_c, 0, 74, 100
2, 464496, Note_on_c, 0, 76, 66
2, 464540, Note_off_c, 0, 76, 100
2, 464544, Note_on_c, 0, 74, 66
2, 464588, Note_off_c, 0, 74, 100
2, 464592, Note_on_c, 0, 76, 66
2, 464636, Note_off_c, 0, 76, 100
2, 464640, Note_on_c, 0, 74, 66
2, 464684, Note_off_c, 0, 74, 100
2, 464688, Note_on_c, 0, 76, 66
2, 464732, Note_off_c, 0, 76, 100
2, 464736, Note_on_c, 0, 74, 66
2, 464780, Note_off_c, 0, 74, 100
2, 464784, Note_on_c, 0, 76, 66
2, 464828, Note_off_c, 0, 76, 100
2, 464832, Note_on_c, 0, 74, 66
2, 464876, Note_off_c, 0, 74, 100
2, 464880, Note_on_c, 0, 76, 66
2, 464924, Note_off_c, 0, 76, 100
2, 464928, Note_on_c, 0, 74, 66
2, 464972, Note_off_c, 0, 74, 100
2, 464976, Note_on_c, 0, 76, 66
2, 465020, Note_off_c, 0, 76, 100
2, 465024, Note_on_c, 0, 74, 66
2, 465068, Note_off_c, 0, 74, 100
2, 465072, Note_on_c, 0, 76, 66
2, 465116, Note_off_c, 0, 76, 100
2, 465120, Note_on_c, 0, 74, 66
2, 465164, Note_off_c, 0, 74, 100
2, 465168, Note_on_c, 0, 76, 66
2, 465212, Note_off_c, 0, 76, 100
2, 465216, Note_on_c, 0, 72, 66
2, 465308, Note_off_c, 0, 72, 0
2, 465312, Note_on_c, 0, 74, 66
2, 465404, Note_off_c, 0, 74, 0
2, 465408, Note_on_c, 0, 72, 51
2, 465788, Note_off_c, 0, 72, 100
2, 465792, Note_on_c, 0, 72, 51
2, 465984, Note_on_c, 0, 76, 51
2, 466128, Note_off_c, 0, 76, 100
2, 466172, Note_off_c, 0, 72, 100
2, 466176, Note_on_c, 0, 79, 51
2, 466176, Note_on_c, 0, 74, 51
2, 466320, Note_off_c, 0, 79, 100
2, 466368, Note_on_c, 0, 77, 51
2, 466512, Note_off_c, 0, 77, 100
2, 466556, Note_off_c, 0, 74, 100
2, 466560, Note_on_c, 0, 71, 51
2, 466752, Note_on_c, 0, 74, 51
2, 466896, Note_off_c, 0, 74, 100
2, 466940, Note_off_c, 0, 71, 100
2, 466944, Note_on_c, 0, 77, 51
2, 466944, Note_on_c, 0, 72, 51
2, 467088, Note_off_c, 0, 77, 100
2, 467136, Note_on_c, 0, 76, 51
2, 467280, Note_off_c, 0, 76, 100
2, 467324, Note_off_c, 0, 72, 100
2, 467328, Note_on_c, 0, 69, 51
2, 467520, Note_on_c, 0, 72, 51
2, 467664, Note_off_c, 0, 72, 100
2, 467708, Note_off_c, 0, 69, 100
2, 467712, Note_on_c, 0, 76, 51
2, 467712, Note_on_c, 0, 65, 51
2, 467856, Note_off_c, 0, 76, 100
2, 467904, Note_on_c, 0, 74, 51
2, 468048, Note_off_c, 0, 74, 100
2, 468092, Note_off_c, 0, 65, 100
2, 468096, Note_on_c, 0, 67, 51
2, 468288, Note_on_c, 0, 71, 51
2, 468432, Note_off_c, 0, 71, 100
2, 468476, Note_off_c, 0, 67, 100
2, 468480, Note_on_c, 0, 74, 51
2, 468480, Note_on_c, 0, 64, 51
2, 468624, Note_off_c, 0, 74, 100
2, 468672, Note_on_c, 0, 72, 51
2, 468816, Note_off_c, 0, 72, 100
2, 468860, Note_off_c, 0, 64, 100
2, 468864, Note_on_c, 0, 76, 72
2, 468956, Note_off_c, 0, 76, 100
2, 468960, Note_on_c, 0, 77, 72
2, 469052, Note_off_c, 0, 77, 100
2, 469056, Note_on_c, 0, 79, 72
2, 469148, Note_off_c, 0, 79, 100
2, 469152, Note_on_c, 0, 76, 72
2, 469244, Note_off_c, 0, 76, 100
2, 469248, Note_on_c, 0, 77, 72
2, 469340, Note_off_c, 0, 77, 100
2, 469344, Note_on_c, 0, 79, 72
2, 469436, Note_off_c, 0, 79, 100
2, 469440, Note_on_c, 0, 81, 72
2, 469532, Note_off_c, 0, 81, 100
2, 469536, Note_on_c, 0, 77, 72
2, 469628, Note_off_c, 0, 77, 100
2, 469632, Note_on_c, 0, 74, 72
2, 469724, Note_off_c, 0, 74, 100
2, 469728, Note_on_c, 0, 76, 72
2, 469820, Note_off_c, 0, 76, 100
2, 469824, Note_on_c, 0, 77, 72
2, 469916, Note_off_c, 0, 77, 100
2, 469920, Note_on_c, 0, 74, 72
2, 470012, Note_off_c, 0, 74, 100
2, 470016, Note_on_c, 0, 76, 72
2, 470108, Note_off_c, 0, 76, 100
2, 470112, Note_on_c, 0, 77, 72
2, 470204, Note_off_c, 0, 77, 100
2, 470208, Note_on_c, 0, 79, 72
2, 470300, Note_off_c, 0, 79, 100
2, 470304, Note_on_c, 0, 76, 72
2, 470396, Note_off_c, 0, 76, 100
2, 470400, Note_on_c, 0, 72, 72
2, 470492, Note_off_c, 0, 72, 100
2, 470496, Note_on_c, 0, 74, 72
2, 470588, Note_off_c, 0, 74, 100
2, 470592, Note_on_c, 0, 76, 72
2, 470684, Note_off_c, 0, 76, 100
2, 470688, Note_on_c, 0, 72, 72
2, 470780, Note_off_c, 0, 72, 100
2, 470784, Note_on_c, 0, 74, 72
2, 470876, Note_off_c, 0, 74, 100
2, 470880, Note_on_c, 0, 76, 72
2, 470972, Note_off_c, 0, 76, 100
2, 470976, Note_on_c, 0, 77, 72
2, 471068, Note_off_c, 0, 77, 100
2, 471072, Note_on_c, 0, 74, 72
2, 471164, Note_off_c, 0, 74, 100
2, 471168, Note_on_c, 0, 71, 72
2, 471260, Note_off_c, 0, 71, 100
2, 471264, Note_on_c, 0, 72, 72
2, 471356, Note_off_c, 0, 72, 100
2, 471360, Note_on_c, 0, 74, 72
2, 471408, Note_on_c, 0, 71, 72
2, 471452, Note_off_c, 0, 74, 100
2, 471500, Note_off_c, 0, 71, 100
2, 471552, Note_on_c, 0, 60, 72
2, 471596, Note_off_c, 0, 60, 0
2, 471600, Note_on_c, 0, 64, 72
2, 471644, Note_off_c, 0, 64, 0
2, 471648, Note_on_c, 0, 67, 72
2, 471692, Note_off_c, 0, 67, 0
2, 471696, Note_on_c, 0, 72, 72
2, 472300, Note_off_c, 0, 72, 100
2, 472320, Note_on_c, 0, 67, 72
2, 473084, Note_off_c, 0, 67, 100
2, 473088, Note_on_c, 0, 76, 72
2, 473660, Note_off_c, 0, 76, 100
2, 473664, Note_on_c, 0, 77, 72
2, 473756, Note_off_c, 0, 77, 100
2, 473760, Note_on_c, 0, 74, 72
2, 473852, Note_off_c, 0, 74, 100
2, 473856, Note_on_c, 0, 72, 72
2, 474236, Note_off_c, 0, 72, 100
2, 474240, Note_on_c, 0, 74, 73
2, 474332, Note_off_c, 0, 74, 100
2, 474336, Note_on_c, 0, 77, 75
2, 474428, Note_off_c, 0, 77, 100
2, 474432, Note_on_c, 0, 79, 76
2, 474524, Note_off_c, 0, 79, 100
2, 474528, Note_on_c, 0, 83, 77
2, 474620, Note_off_c, 0, 83, 100
2, 474624, Note_on_c, 0, 72, 77
2, 474716, Note_off_c, 0, 72, 100
2, 474720, Note_on_c, 0, 76, 77
2, 474812, Note_off_c, 0, 76, 100
2, 474816, Note_on_c, 0, 79, 77
2, 474908, Note_off_c, 0, 79, 100
2, 474912, Note_on_c, 0, 83, 77
2, 475004, Note_off_c, 0, 83, 100
2, 475008, Note_on_c, 0, 74, 77
2, 475100, Note_off_c, 0, 74, 100
2, 475104, Note_on_c, 0, 77, 77
2, 475196, Note_off_c, 0, 77, 100
2, 475200, Note_on_c, 0, 79, 77
2, 475292, Note_off_c, 0, 79, 100
2, 475296, Note_on_c, 0, 83, 77
2, 475388, Note_off_c, 0, 83, 100
2, 475392, Note_on_c, 0, 72, 77
2, 475484, Note_off_c, 0, 72, 100
2, 475488, Note_on_c, 0, 76, 77
2, 475580, Note_off_c, 0, 76, 100
2, 475584, Note_on_c, 0, 79, 77
2, 475676, Note_off_c, 0, 79, 100
2, 475680, Note_on_c, 0, 84, 77
2, 475772, Note_off_c, 0, 84, 100
2, 475776, Note_on_c, 0, 74, 77
2, 475868, Note_off_c, 0, 74, 100
2, 475872, Note_on_c, 0, 77, 77
2, 475964, Note_off_c, 0, 77, 100
2, 475968, Note_on_c, 0, 79, 77
2, 476060, Note_off_c, 0, 79, 100
2, 476064, Note_on_c, 0, 83, 77
2, 476156, Note_off_c, 0, 83, 100
2, 476160, Note_on_c, 0, 84, 77
2, 476160, Note_on_c, 0, 76, 77
2, 476540, Note_off_c, 0, 84, 100
2, 476540, Note_off_c, 0, 76, 100
2, 476544, Note_on_c, 0, 64, 77
2, 476544, Note_on_c, 0, 67, 77
2, 476544, Note_on_c, 0, 72, 77
2, 476924, Note_off_c, 0, 64, 100
2, 476924, Note_off_c, 0, 67, 100
2, 476924, Note_off_c, 0, 72, 100
2, 476928, Note_on_c, 0, 72, 77
2, 476928, Note_on_c, 0, 67, 77
2, 476928, Note_on_c, 0, 64, 77
2, 477308, Note_off_c, 0, 72, 100
2, 477308, Note_off_c, 0, 67, 100
2, 477308, Note_off_c, 0, 64, 100
2, 477308, End_track
3, 0, Start_track
3, 0, Title_t, "K309-a -Allegro Con Spirito"
3, 0, Control_c, 1, 0, 0
3, 0, Program_c, 1, 0
3, 0, Control_c, 1, 7, 126
3, 0, Control_c, 1, 10, 53
3, 0, Control_c, 1, 91, 66
3, 0, Control_c, 1, 93, 37
3, 0, Key_signature, 0, "major"
3, 0, Control_c, 1, 121, 0
3, 384, Control_c, 1, 10, 53
3, 480, Control_c, 1, 91, 63
3, 576, Control_c, 1, 93, 40
3, 672, Program_c, 1, 0
3, 1680, Note_on_c, 1, 48, 72
3, 1680, Note_on_c, 1, 36, 72
3, 2284, Note_off_c, 1, 48, 100
3, 2284, Note_off_c, 1, 36, 100
3, 2304, Note_on_c, 1, 43, 72
3, 2304, Note_on_c, 1, 31, 72
3, 3068, Note_off_c, 1, 43, 100
3, 3068, Note_off_c, 1, 31, 100
3, 3072, Note_on_c, 1, 52, 72
3, 3644, Note_off_c, 1, 52, 100
3, 3648, Note_on_c, 1, 53, 72
3, 3740, Note_off_c, 1, 53, 100
3, 3744, Note_on_c, 1, 50, 72
3, 3836, Note_off_c, 1, 50, 100
3, 3840, Note_on_c, 1, 48, 72
3, 4220, Note_off_c, 1, 48, 100
3, 11136, Note_on_c, 1, 62, 51
3, 11136, Note_on_c, 1, 57, 51
3, 11136, Note_on_c, 1, 53, 51
3, 11516, Note_off_c, 1, 62, 100
3, 11516, Note_off_c, 1, 57, 100
3, 11516, Note_off_c, 1, 53, 100
3, 11520, Note_on_c, 1, 64, 51
3, 11520, Note_on_c, 1, 55, 51
3, 11520, Note_on_c, 1, 60, 51
3, 11900, Note_off_c, 1, 64, 100
3, 11900, Note_off_c, 1, 55, 100
3, 11900, Note_off_c, 1, 60, 100
3, 11904, Note_on_c, 1, 62, 51
3, 11904, Note_on_c, 1, 59, 51
3, 11904, Note_on_c, 1, 55, 51
3, 12284, Note_off_c, 1, 62, 100
3, 12284, Note_off_c, 1, 59, 100
3, 12284, Note_off_c, 1, 55, 100
3, 12432, Note_on_c, 1, 48, 72
3, 12432, Note_on_c, 1, 36, 72
3, 13036, Note_off_c, 1, 48, 100
3, 13036, Note_off_c, 1, 36, 100
3, 13056, Note_on_c, 1, 43, 72
3, 13056, Note_on_c, 1, 31, 72
3, 13820, Note_off_c, 1, 43, 100
3, 13820, Note_off_c, 1, 31, 100
3, 13824, Note_on_c, 1, 52, 72
3, 14396, Note_off_c, 1, 52, 100
3, 14400, Note_on_c, 1, 53, 72
3, 14492, Note_off_c, 1, 53, 100
3, 14496, Note_on_c, 1, 50, 72
3, 14576, Note_on_c, 1, 48, 72
3, 14588, Note_off_c, 1, 50, 100
3, 14956, Note_off_c, 1, 48, 100
3, 23040, Note_on_c, 1, 57, 72
3, 23184, Note_off_c, 1, 57, 100
3, 23232, Note_on_c, 1, 60, 72
3, 23376, Note_off_c, 1, 60, 100
3, 23424, Note_on_c, 1, 57, 72
3, 23568, Note_off_c, 1, 57, 100
3, 23616, Note_on_c, 1, 60, 72
3, 23760, Note_off_c, 1, 60, 100
3, 23808, Note_on_c, 1, 53, 51
3, 23952, Note_off_c, 1, 53, 100
3, 24000, Note_on_c, 1, 60, 51
3, 24144, Note_off_c, 1, 60, 100
3, 24192, Note_on_c, 1, 53, 51
3, 24336, Note_off_c, 1, 53, 100
3, 24384, Note_on_c, 1, 60, 51
3, 24528, Note_off_c, 1, 60, 100
3, 24576, Note_on_c, 1, 52, 72
3, 24720, Note_off_c, 1, 52, 100
3, 24768, Note_on_c, 1, 60, 72
3, 24912, Note_off_c, 1, 60, 100
3, 24960, Note_on_c, 1, 52, 72
3, 25104, Note_off_c, 1, 52, 100
3, 25152, Note_on_c, 1, 60, 72
3, 25296, Note_off_c, 1, 60, 100
3, 25344, Note_on_c, 1, 48, 51
3, 25488, Note_off_c, 1, 48, 100
3, 25536, Note_on_c, 1, 60, 51
3, 25680, Note_off_c, 1, 60, 100
3, 25728, Note_on_c, 1, 48, 51
3, 25872, Note_off_c, 1, 48, 100
3, 25920, Note_on_c, 1, 60, 51
3, 26064, Note_off_c, 1, 60, 100
3, 26112, Note_on_c, 1, 53, 51
3, 26256, Note_off_c, 1, 53, 100
3, 26304, Note_on_c, 1, 57, 51
3, 26448, Note_off_c, 1, 57, 100
3, 26496, Note_on_c, 1, 53, 51
3, 26640, Note_off_c, 1, 53, 100
3, 26688, Note_on_c, 1, 62, 51
3, 26832, Note_off_c, 1, 62, 100
3, 26880, Note_on_c, 1, 55, 51
3, 27024, Note_off_c, 1, 55, 100
3, 27072, Note_on_c, 1, 64, 51
3, 27216, Note_off_c, 1, 64, 100
3, 27264, Note_on_c, 1, 55, 51
3, 27408, Note_off_c, 1, 55, 100
3, 27456, Note_on_c, 1, 62, 51
3, 27600, Note_off_c, 1, 62, 100
3, 27648, Note_on_c, 1, 57, 72
3, 27792, Note_off_c, 1, 57, 100
3, 27840, Note_on_c, 1, 60, 72
3, 27984, Note_off_c, 1, 60, 100
3, 28032, Note_on_c, 1, 57, 72
3, 28176, Note_off_c, 1, 57, 100
3, 28224, Note_on_c, 1, 60, 72
3, 28368, Note_off_c, 1, 60, 100
3, 28416, Note_on_c, 1, 53, 51
3, 28560, Note_off_c, 1, 53, 100
3, 28608, Note_on_c, 1, 60, 51
3, 28752, Note_off_c, 1, 60, 100
3, 28800, Note_on_c, 1, 53, 51
3, 28944, Note_off_c, 1, 53, 100
3, 28992, Note_on_c, 1, 60, 51
3, 29136, Note_off_c, 1, 60, 100
3, 29184, Note_on_c, 1, 52, 72
3, 29328, Note_off_c, 1, 52, 100
3, 29376, Note_on_c, 1, 60, 72
3, 29520, Note_off_c, 1, 60, 100
3, 29568, Note_on_c, 1, 52, 72
3, 29712, Note_off_c, 1, 52, 100
3, 29760, Note_on_c, 1, 60, 72
3, 29904, Note_off_c, 1, 60, 100
3, 29952, Note_on_c, 1, 48, 51
3, 30096, Note_off_c, 1, 48, 100
3, 30144, Note_on_c, 1, 60, 51
3, 30288, Note_off_c, 1, 60, 100
3, 30336, Note_on_c, 1, 48, 51
3, 30480, Note_off_c, 1, 48, 100
3, 30528, Note_on_c, 1, 60, 51
3, 30672, Note_off_c, 1, 60, 100
3, 30720, Note_on_c, 1, 53, 51
3, 30864, Note_off_c, 1, 53, 100
3, 30912, Note_on_c, 1, 60, 51
3, 31056, Note_off_c, 1, 60, 100
3, 31104, Note_on_c, 1, 53, 51
3, 31248, Note_off_c, 1, 53, 100
3, 31296, Note_on_c, 1, 62, 51
3, 31440, Note_off_c, 1, 62, 100
3, 31488, Note_on_c, 1, 55, 51
3, 31632, Note_off_c, 1, 55, 100
3, 31680, Note_on_c, 1, 60, 51
3, 31824, Note_off_c, 1, 60, 100
3, 31872, Note_on_c, 1, 55, 51
3, 32016, Note_off_c, 1, 55, 100
3, 32064, Note_on_c, 1, 59, 51
3, 32208, Note_off_c, 1, 59, 100
3, 32256, Note_on_c, 1, 64, 72
3, 32256, Note_on_c, 1, 60, 72
3, 32400, Note_off_c, 1, 64, 100
3, 32400, Note_off_c, 1, 60, 100
3, 32448, Note_on_c, 1, 64, 51
3, 32448, Note_on_c, 1, 60, 51
3, 32592, Note_off_c, 1, 64, 100
3, 32592, Note_off_c, 1, 60, 100
3, 32640, Note_on_c, 1, 64, 51
3, 32640, Note_on_c, 1, 60, 51
3, 32784, Note_off_c, 1, 64, 100
3, 32784, Note_off_c, 1, 60, 100
3, 32832, Note_on_c, 1, 60, 51
3, 32832, Note_on_c, 1, 64, 51
3, 32976, Note_off_c, 1, 60, 100
3, 32976, Note_off_c, 1, 64, 100
3, 33024, Note_on_c, 1, 64, 51
3, 33024, Note_on_c, 1, 60, 51
3, 33168, Note_off_c, 1, 64, 100
3, 33168, Note_off_c, 1, 60, 100
3, 33216, Note_on_c, 1, 64, 51
3, 33216, Note_on_c, 1, 60, 51
3, 33360, Note_off_c, 1, 64, 100
3, 33360, Note_off_c, 1, 60, 100
3, 33408, Note_on_c, 1, 64, 51
3, 33408, Note_on_c, 1, 60, 51
3, 33552, Note_off_c, 1, 64, 100
3, 33552, Note_off_c, 1, 60, 100
3, 33600, Note_on_c, 1, 64, 51
3, 33600, Note_on_c, 1, 60, 51
3, 33744, Note_off_c, 1, 64, 100
3, 33744, Note_off_c, 1, 60, 100
3, 33792, Note_on_c, 1, 64, 51
3, 33792, Note_on_c, 1, 60, 51
3, 33936, Note_off_c, 1, 64, 100
3, 33936, Note_off_c, 1, 60, 100
3, 33984, Note_on_c, 1, 64, 51
3, 33984, Note_on_c, 1, 60, 51
3, 34128, Note_off_c, 1, 64, 100
3, 34128, Note_off_c, 1, 60, 100
3, 34176, Note_on_c, 1, 64, 51
3, 34176, Note_on_c, 1, 60, 51
3, 34320, Note_off_c, 1, 64, 100
3, 34320, Note_off_c, 1, 60, 100
3, 34368, Note_on_c, 1, 60, 51
3, 34368, Note_on_c, 1, 64, 51
3, 34512, Note_off_c, 1, 60, 100
3, 34512, Note_off_c, 1, 64, 100
3, 34560, Note_on_c, 1, 64, 51
3, 34560, Note_on_c, 1, 60, 51
3, 34704, Note_off_c, 1, 64, 100
3, 34704, Note_off_c, 1, 60, 100
3, 34752, Note_on_c, 1, 64, 51
3, 34752, Note_on_c, 1, 60, 51
3, 34896, Note_off_c, 1, 64, 100
3, 34896, Note_off_c, 1, 60, 100
3, 34944, Note_on_c, 1, 64, 51
3, 34944, Note_on_c, 1, 60, 51
3, 35088, Note_off_c, 1, 64, 100
3, 35088, Note_off_c, 1, 60, 100
3, 35136, Note_on_c, 1, 64, 51
3, 35136, Note_on_c, 1, 60, 51
3, 35280, Note_off_c, 1, 64, 100
3, 35280, Note_off_c, 1, 60, 100
3, 35328, Note_on_c, 1, 59, 72
3, 35328, Note_on_c, 1, 62, 72
3, 35472, Note_off_c, 1, 59, 100
3, 35472, Note_off_c, 1, 62, 100
3, 35520, Note_on_c, 1, 59, 51
3, 35520, Note_on_c, 1, 62, 51
3, 35664, Note_off_c, 1, 59, 100
3, 35664, Note_off_c, 1, 62, 100
3, 35712, Note_on_c, 1, 59, 51
3, 35712, Note_on_c, 1, 62, 51
3, 35856, Note_off_c, 1, 59, 100
3, 35856, Note_off_c, 1, 62, 100
3, 35904, Note_on_c, 1, 59, 51
3, 35904, Note_on_c, 1, 62, 51
3, 36048, Note_off_c, 1, 59, 100
3, 36048, Note_off_c, 1, 62, 100
3, 36096, Note_on_c, 1, 59, 51
3, 36096, Note_on_c, 1, 62, 51
3, 36240, Note_off_c, 1, 59, 100
3, 36240, Note_off_c, 1, 62, 100
3, 36288, Note_on_c, 1, 59, 51
3, 36288, Note_on_c, 1, 62, 51
3, 36432, Note_off_c, 1, 59, 100
3, 36432, Note_off_c, 1, 62, 100
3, 36480, Note_on_c, 1, 62, 51
3, 36480, Note_on_c, 1, 59, 51
3, 36624, Note_off_c, 1, 62, 100
3, 36624, Note_off_c, 1, 59, 100
3, 36672, Note_on_c, 1, 59, 51
3, 36672, Note_on_c, 1, 62, 51
3, 36816, Note_off_c, 1, 59, 100
3, 36816, Note_off_c, 1, 62, 100
3, 36864, Note_on_c, 1, 62, 51
3, 36864, Note_on_c, 1, 59, 51
3, 37008, Note_off_c, 1, 62, 100
3, 37008, Note_off_c, 1, 59, 100
3, 37056, Note_on_c, 1, 62, 51
3, 37056, Note_on_c, 1, 59, 51
3, 37200, Note_off_c, 1, 62, 100
3, 37200, Note_off_c, 1, 59, 100
3, 37248, Note_on_c, 1, 62, 51
3, 37248, Note_on_c, 1, 59, 51
3, 37392, Note_off_c, 1, 62, 100
3, 37392, Note_off_c, 1, 59, 100
3, 37440, Note_on_c, 1, 59, 51
3, 37440, Note_on_c, 1, 62, 51
3, 37584, Note_off_c, 1, 59, 100
3, 37584, Note_off_c, 1, 62, 100
3, 37632, Note_on_c, 1, 62, 51
3, 37632, Note_on_c, 1, 59, 51
3, 37776, Note_off_c, 1, 62, 100
3, 37776, Note_off_c, 1, 59, 100
3, 37824, Note_on_c, 1, 62, 51
3, 37824, Note_on_c, 1, 59, 51
3, 37968, Note_off_c, 1, 62, 100
3, 37968, Note_off_c, 1, 59, 100
3, 38016, Note_on_c, 1, 62, 51
3, 38016, Note_on_c, 1, 59, 51
3, 38160, Note_off_c, 1, 62, 100
3, 38160, Note_off_c, 1, 59, 100
3, 38208, Note_on_c, 1, 62, 51
3, 38208, Note_on_c, 1, 59, 51
3, 38352, Note_off_c, 1, 62, 100
3, 38352, Note_off_c, 1, 59, 100
3, 38400, Note_on_c, 1, 54, 72
3, 38400, Note_on_c, 1, 57, 72
3, 38400, Note_on_c, 1, 62, 72
3, 38544, Note_off_c, 1, 54, 100
3, 38544, Note_off_c, 1, 57, 100
3, 38544, Note_off_c, 1, 62, 100
3, 38592, Note_on_c, 1, 54, 51
3, 38592, Note_on_c, 1, 57, 51
3, 38592, Note_on_c, 1, 62, 51
3, 38736, Note_off_c, 1, 54, 100
3, 38736, Note_off_c, 1, 57, 100
3, 38736, Note_off_c, 1, 62, 100
3, 38784, Note_on_c, 1, 54, 51
3, 38784, Note_on_c, 1, 62, 51
3, 38784, Note_on_c, 1, 57, 51
3, 38928, Note_off_c, 1, 54, 100
3, 38928, Note_off_c, 1, 62, 100
3, 38928, Note_off_c, 1, 57, 100
3, 38976, Note_on_c, 1, 54, 51
3, 38976, Note_on_c, 1, 57, 51
3, 38976, Note_on_c, 1, 62, 51
3, 39120, Note_off_c, 1, 54, 100
3, 39120, Note_off_c, 1, 57, 100
3, 39120, Note_off_c, 1, 62, 100
3, 39168, Note_on_c, 1, 54, 51
3, 39168, Note_on_c, 1, 57, 51
3, 39168, Note_on_c, 1, 62, 51
3, 39312, Note_off_c, 1, 54, 100
3, 39312, Note_off_c, 1, 57, 100
3, 39312, Note_off_c, 1, 62, 100
3, 39360, Note_on_c, 1, 54, 51
3, 39360, Note_on_c, 1, 57, 51
3, 39360, Note_on_c, 1, 62, 51
3, 39504, Note_off_c, 1, 54, 100
3, 39504, Note_off_c, 1, 57, 100
3, 39504, Note_off_c, 1, 62, 100
3, 39552, Note_on_c, 1, 57, 51
3, 39552, Note_on_c, 1, 62, 51
3, 39552, Note_on_c, 1, 54, 51
3, 39696, Note_off_c, 1, 57, 100
3, 39696, Note_off_c, 1, 62, 100
3, 39696, Note_off_c, 1, 54, 100
3, 39744, Note_on_c, 1, 54, 51
3, 39744, Note_on_c, 1, 57, 51
3, 39744, Note_on_c, 1, 62, 51
3, 39888, Note_off_c, 1, 54, 100
3, 39888, Note_off_c, 1, 57, 100
3, 39888, Note_off_c, 1, 62, 100
3, 39936, Note_on_c, 1, 54, 51
3, 39936, Note_on_c, 1, 57, 51
3, 39936, Note_on_c, 1, 62, 51
3, 40080, Note_off_c, 1, 54, 100
3, 40080, Note_off_c, 1, 57, 100
3, 40080, Note_off_c, 1, 62, 100
3, 40128, Note_on_c, 1, 54, 51
3, 40128, Note_on_c, 1, 57, 51
3, 40128, Note_on_c, 1, 62, 51
3, 40272, Note_off_c, 1, 54, 100
3, 40272, Note_off_c, 1, 57, 100
3, 40272, Note_off_c, 1, 62, 100
3, 40320, Note_on_c, 1, 54, 51
3, 40320, Note_on_c, 1, 57, 51
3, 40320, Note_on_c, 1, 62, 51
3, 40464, Note_off_c, 1, 54, 100
3, 40464, Note_off_c, 1, 57, 100
3, 40464, Note_off_c, 1, 62, 100
3, 40512, Note_on_c, 1, 54, 51
3, 40512, Note_on_c, 1, 57, 51
3, 40512, Note_on_c, 1, 62, 51
3, 40656, Note_off_c, 1, 54, 100
3, 40656, Note_off_c, 1, 57, 100
3, 40656, Note_off_c, 1, 62, 100
3, 40704, Note_on_c, 1, 54, 51
3, 40704, Note_on_c, 1, 57, 51
3, 40704, Note_on_c, 1, 62, 51
3, 40848, Note_off_c, 1, 54, 100
3, 40848, Note_off_c, 1, 57, 100
3, 40848, Note_off_c, 1, 62, 100
3, 40896, Note_on_c, 1, 54, 51
3, 40896, Note_on_c, 1, 57, 51
3, 40896, Note_on_c, 1, 62, 51
3, 41040, Note_off_c, 1, 54, 100
3, 41040, Note_off_c, 1, 57, 100
3, 41040, Note_off_c, 1, 62, 100
3, 41088, Note_on_c, 1, 54, 51
3, 41088, Note_on_c, 1, 57, 51
3, 41088, Note_on_c, 1, 62, 51
3, 41232, Note_off_c, 1, 54, 100
3, 41232, Note_off_c, 1, 57, 100
3, 41232, Note_off_c, 1, 62, 100
3, 41280, Note_on_c, 1, 54, 51
3, 41280, Note_on_c, 1, 62, 51
3, 41280, Note_on_c, 1, 57, 51
3, 41424, Note_off_c, 1, 54, 100
3, 41424, Note_off_c, 1, 62, 100
3, 41424, Note_off_c, 1, 57, 100
3, 41472, Note_on_c, 1, 55, 72
3, 41616, Note_off_c, 1, 55, 100
3, 41664, Note_on_c, 1, 62, 72
3, 41808, Note_off_c, 1, 62, 100
3, 41856, Note_on_c, 1, 57, 51
3, 42000, Note_off_c, 1, 57, 100
3, 42048, Note_on_c, 1, 62, 51
3, 42192, Note_off_c, 1, 62, 100
3, 42240, Note_on_c, 1, 54, 72
3, 42384, Note_off_c, 1, 54, 100
3, 42432, Note_on_c, 1, 62, 51
3, 42576, Note_off_c, 1, 62, 100
3, 42624, Note_on_c, 1, 50, 51
3, 42768, Note_off_c, 1, 50, 100
3, 42816, Note_on_c, 1, 62, 51
3, 42960, Note_off_c, 1, 62, 100
3, 43008, Note_on_c, 1, 55, 51
3, 43152, Note_off_c, 1, 55, 100
3, 43200, Note_on_c, 1, 62, 51
3, 43344, Note_off_c, 1, 62, 100
3, 43392, Note_on_c, 1, 59, 51
3, 43536, Note_off_c, 1, 59, 100
3, 43584, Note_on_c, 1, 62, 51
3, 43728, Note_off_c, 1, 62, 100
3, 43776, Note_on_c, 1, 54, 72
3, 43920, Note_off_c, 1, 54, 100
3, 43968, Note_on_c, 1, 62, 51
3, 44112, Note_off_c, 1, 62, 100
3, 44160, Note_on_c, 1, 50, 51
3, 44304, Note_off_c, 1, 50, 100
3, 44352, Note_on_c, 1, 62, 51
3, 44496, Note_off_c, 1, 62, 100
3, 44544, Note_on_c, 1, 62, 72
3, 44544, Note_on_c, 1, 55, 72
3, 44924, Note_off_c, 1, 62, 100
3, 44924, Note_off_c, 1, 55, 100
3, 45312, Note_on_c, 1, 59, 72
3, 45312, Note_on_c, 1, 62, 72
3, 45692, Note_off_c, 1, 59, 100
3, 45692, Note_off_c, 1, 62, 100
3, 46080, Note_on_c, 1, 60, 72
3, 46080, Note_on_c, 1, 67, 72
3, 46460, Note_off_c, 1, 60, 100
3, 46460, Note_off_c, 1, 67, 100
3, 46848, Note_on_c, 1, 67, 72
3, 46848, Note_on_c, 1, 64, 72
3, 47228, Note_off_c, 1, 67, 100
3, 47228, Note_off_c, 1, 64, 100
3, 47616, Note_on_c, 1, 57, 72
3, 47900, Note_off_c, 1, 57, 100
3, 47904, Note_on_c, 1, 59, 72
3, 47996, Note_off_c, 1, 59, 100
3, 48000, Note_on_c, 1, 60, 72
3, 48284, Note_off_c, 1, 60, 100
3, 48288, Note_on_c, 1, 59, 72
3, 48380, Note_off_c, 1, 59, 100
3, 48384, Note_on_c, 1, 57, 72
3, 48668, Note_off_c, 1, 57, 100
3, 48672, Note_on_c, 1, 55, 72
3, 48764, Note_off_c, 1, 55, 100
3, 48768, Note_on_c, 1, 54, 72
3, 49052, Note_off_c, 1, 54, 100
3, 49056, Note_on_c, 1, 52, 72
3, 49148, Note_off_c, 1, 52, 100
3, 49152, Note_on_c, 1, 50, 72
3, 49340, Note_off_c, 1, 50, 100
3, 49344, Note_on_c, 1, 54, 72
3, 49436, Note_off_c, 1, 54, 100
3, 49440, Note_on_c, 1, 57, 72
3, 49532, Note_off_c, 1, 57, 100
3, 49536, Note_on_c, 1, 62, 72
3, 49680, Note_off_c, 1, 62, 100
3, 49728, Note_on_c, 1, 62, 72
3, 49872, Note_off_c, 1, 62, 100
3, 49920, Note_on_c, 1, 62, 72
3, 50300, Note_off_c, 1, 62, 100
3, 50688, Note_on_c, 1, 61, 51
3, 50832, Note_off_c, 1, 61, 100
3, 50880, Note_on_c, 1, 62, 51
3, 51024, Note_off_c, 1, 62, 100
3, 51072, Note_on_c, 1, 61, 51
3, 51216, Note_off_c, 1, 61, 100
3, 51264, Note_on_c, 1, 62, 51
3, 51408, Note_off_c, 1, 62, 100
3, 51456, Note_on_c, 1, 61, 51
3, 51600, Note_off_c, 1, 61, 100
3, 51648, Note_on_c, 1, 62, 51
3, 51792, Note_off_c, 1, 62, 100
3, 51840, Note_on_c, 1, 61, 51
3, 51984, Note_off_c, 1, 61, 100
3, 52032, Note_on_c, 1, 62, 52
3, 52176, Note_off_c, 1, 62, 100
3, 52224, Note_on_c, 1, 60, 55
3, 52368, Note_off_c, 1, 60, 100
3, 52416, Note_on_c, 1, 62, 57
3, 52560, Note_off_c, 1, 62, 100
3, 52608, Note_on_c, 1, 59, 60
3, 52752, Note_off_c, 1, 59, 100
3, 52800, Note_on_c, 1, 62, 62
3, 52944, Note_off_c, 1, 62, 100
3, 52992, Note_on_c, 1, 60, 65
3, 53136, Note_off_c, 1, 60, 100
3, 53184, Note_on_c, 1, 62, 67
3, 53328, Note_off_c, 1, 62, 100
3, 53376, Note_on_c, 1, 57, 70
3, 53520, Note_off_c, 1, 57, 100
3, 53568, Note_on_c, 1, 62, 72
3, 53712, Note_off_c, 1, 62, 100
3, 53760, Note_on_c, 1, 55, 51
3, 53904, Note_off_c, 1, 55, 100
3, 53952, Note_on_c, 1, 62, 51
3, 54096, Note_off_c, 1, 62, 100
3, 54144, Note_on_c, 1, 55, 51
3, 54288, Note_off_c, 1, 55, 100
3, 54336, Note_on_c, 1, 62, 51
3, 54480, Note_off_c, 1, 62, 100
3, 54528, Note_on_c, 1, 59, 51
3, 54672, Note_off_c, 1, 59, 100
3, 54720, Note_on_c, 1, 62, 51
3, 54864, Note_off_c, 1, 62, 100
3, 54912, Note_on_c, 1, 59, 51
3, 55056, Note_off_c, 1, 59, 100
3, 55104, Note_on_c, 1, 62, 51
3, 55248, Note_off_c, 1, 62, 100
3, 55296, Note_on_c, 1, 60, 51
3, 55440, Note_off_c, 1, 60, 100
3, 55488, Note_on_c, 1, 62, 51
3, 55632, Note_off_c, 1, 62, 100
3, 55680, Note_on_c, 1, 60, 51
3, 55824, Note_off_c, 1, 60, 100
3, 55872, Note_on_c, 1, 62, 51
3, 56016, Note_off_c, 1, 62, 100
3, 56064, Note_on_c, 1, 57, 51
3, 56208, Note_off_c, 1, 57, 100
3, 56256, Note_on_c, 1, 62, 51
3, 56400, Note_off_c, 1, 62, 100
3, 56448, Note_on_c, 1, 57, 51
3, 56592, Note_off_c, 1, 57, 100
3, 56640, Note_on_c, 1, 62, 51
3, 56784, Note_off_c, 1, 62, 100
3, 56832, Note_on_c, 1, 59, 51
3, 56976, Note_off_c, 1, 59, 100
3, 57024, Note_on_c, 1, 62, 51
3, 57168, Note_off_c, 1, 62, 100
3, 57216, Note_on_c, 1, 55, 51
3, 57360, Note_off_c, 1, 55, 100
3, 57408, Note_on_c, 1, 62, 51
3, 57552, Note_off_c, 1, 62, 100
3, 57600, Note_on_c, 1, 57, 51
3, 57744, Note_off_c, 1, 57, 100
3, 57792, Note_on_c, 1, 62, 51
3, 57936, Note_off_c, 1, 62, 100
3, 57984, Note_on_c, 1, 54, 51
3, 58128, Note_off_c, 1, 54, 100
3, 58176, Note_on_c, 1, 62, 51
3, 58320, Note_off_c, 1, 62, 100
3, 58368, Note_on_c, 1, 55, 51
3, 58512, Note_off_c, 1, 55, 100
3, 58560, Note_on_c, 1, 62, 51
3, 58704, Note_off_c, 1, 62, 100
3, 58752, Note_on_c, 1, 52, 51
3, 58896, Note_off_c, 1, 52, 100
3, 58944, Note_on_c, 1, 61, 51
3, 59088, Note_off_c, 1, 61, 100
3, 59136, Note_on_c, 1, 50, 51
3, 59280, Note_off_c, 1, 50, 100
3, 59328, Note_on_c, 1, 62, 51
3, 59472, Note_off_c, 1, 62, 100
3, 59520, Note_on_c, 1, 60, 51
3, 59664, Note_off_c, 1, 60, 100
3, 59712, Note_on_c, 1, 57, 51
3, 59856, Note_off_c, 1, 57, 100
3, 59904, Note_on_c, 1, 55, 51
3, 60048, Note_off_c, 1, 55, 100
3, 60096, Note_on_c, 1, 62, 51
3, 60240, Note_off_c, 1, 62, 100
3, 60288, Note_on_c, 1, 55, 51
3, 60432, Note_off_c, 1, 55, 100
3, 60480, Note_on_c, 1, 62, 51
3, 60624, Note_off_c, 1, 62, 100
3, 60672, Note_on_c, 1, 59, 51
3, 60816, Note_off_c, 1, 59, 100
3, 60864, Note_on_c, 1, 62, 51
3, 61008, Note_off_c, 1, 62, 100
3, 61056, Note_on_c, 1, 59, 51
3, 61200, Note_off_c, 1, 59, 100
3, 61248, Note_on_c, 1, 62, 51
3, 61392, Note_off_c, 1, 62, 100
3, 61440, Note_on_c, 1, 60, 51
3, 61584, Note_off_c, 1, 60, 100
3, 61632, Note_on_c, 1, 62, 51
3, 61776, Note_off_c, 1, 62, 100
3, 61824, Note_on_c, 1, 60, 51
3, 61968, Note_off_c, 1, 60, 100
3, 62016, Note_on_c, 1, 62, 51
3, 62160, Note_off_c, 1, 62, 100
3, 62208, Note_on_c, 1, 57, 51
3, 62352, Note_off_c, 1, 57, 100
3, 62400, Note_on_c, 1, 62, 51
3, 62544, Note_off_c, 1, 62, 100
3, 62592, Note_on_c, 1, 57, 51
3, 62736, Note_off_c, 1, 57, 100
3, 62784, Note_on_c, 1, 62, 51
3, 62928, Note_off_c, 1, 62, 100
3, 62976, Note_on_c, 1, 59, 51
3, 63120, Note_off_c, 1, 59, 100
3, 63168, Note_on_c, 1, 62, 51
3, 63312, Note_off_c, 1, 62, 100
3, 63360, Note_on_c, 1, 55, 51
3, 63504, Note_off_c, 1, 55, 100
3, 63552, Note_on_c, 1, 62, 51
3, 63696, Note_off_c, 1, 62, 100
3, 63744, Note_on_c, 1, 57, 51
3, 63888, Note_off_c, 1, 57, 100
3, 63936, Note_on_c, 1, 62, 51
3, 64080, Note_off_c, 1, 62, 100
3, 64128, Note_on_c, 1, 54, 51
3, 64272, Note_off_c, 1, 54, 100
3, 64320, Note_on_c, 1, 62, 51
3, 64464, Note_off_c, 1, 62, 100
3, 64512, Note_on_c, 1, 55, 51
3, 64656, Note_off_c, 1, 55, 100
3, 64704, Note_on_c, 1, 62, 51
3, 64848, Note_off_c, 1, 62, 100
3, 64896, Note_on_c, 1, 52, 51
3, 65040, Note_off_c, 1, 52, 100
3, 65088, Note_on_c, 1, 61, 51
3, 65232, Note_off_c, 1, 61, 100
3, 65280, Note_on_c, 1, 50, 51
3, 65424, Note_off_c, 1, 50, 100
3, 65472, Note_on_c, 1, 62, 51
3, 65616, Note_off_c, 1, 62, 100
3, 65664, Note_on_c, 1, 48, 51
3, 65808, Note_off_c, 1, 48, 100
3, 65856, Note_on_c, 1, 60, 51
3, 66000, Note_off_c, 1, 60, 100
3, 66048, Note_on_c, 1, 47, 72
3, 66140, Note_off_c, 1, 47, 100
3, 66144, Note_on_c, 1, 55, 72
3, 66236, Note_off_c, 1, 55, 100
3, 66240, Note_on_c, 1, 54, 72
3, 66332, Note_off_c, 1, 54, 100
3, 66336, Note_on_c, 1, 55, 72
3, 66428, Note_off_c, 1, 55, 100
3, 66432, Note_on_c, 1, 57, 72
3, 66524, Note_off_c, 1, 57, 100
3, 66528, Note_on_c, 1, 55, 72
3, 66620, Note_off_c, 1, 55, 100
3, 66624, Note_on_c, 1, 54, 72
3, 66716, Note_off_c, 1, 54, 100
3, 66720, Note_on_c, 1, 55, 72
3, 66812, Note_off_c, 1, 55, 100
3, 66816, Note_on_c, 1, 47, 72
3, 67196, Note_off_c, 1, 47, 100
3, 67584, Note_on_c, 1, 48, 72
3, 67676, Note_off_c, 1, 48, 100
3, 67680, Note_on_c, 1, 55, 72
3, 67772, Note_off_c, 1, 55, 100
3, 67776, Note_on_c, 1, 54, 72
3, 67868, Note_off_c, 1, 54, 100
3, 67872, Note_on_c, 1, 55, 72
3, 67964, Note_off_c, 1, 55, 100
3, 67968, Note_on_c, 1, 57, 72
3, 68060, Note_off_c, 1, 57, 100
3, 68064, Note_on_c, 1, 55, 72
3, 68156, Note_off_c, 1, 55, 100
3, 68160, Note_on_c, 1, 54, 72
3, 68252, Note_off_c, 1, 54, 100
3, 68256, Note_on_c, 1, 55, 72
3, 68348, Note_off_c, 1, 55, 100
3, 68352, Note_on_c, 1, 48, 72
3, 68732, Note_off_c, 1, 48, 100
3, 69120, Note_on_c, 1, 50, 51
3, 69264, Note_off_c, 1, 50, 100
3, 69312, Note_on_c, 1, 55, 51
3, 69456, Note_off_c, 1, 55, 100
3, 69504, Note_on_c, 1, 59, 51
3, 69648, Note_off_c, 1, 59, 100
3, 69696, Note_on_c, 1, 55, 51
3, 69840, Note_off_c, 1, 55, 100
3, 69888, Note_on_c, 1, 50, 51
3, 70032, Note_off_c, 1, 50, 100
3, 70080, Note_on_c, 1, 57, 51
3, 70224, Note_off_c, 1, 57, 100
3, 70272, Note_on_c, 1, 60, 51
3, 70416, Note_off_c, 1, 60, 100
3, 70464, Note_on_c, 1, 57, 51
3, 70608, Note_off_c, 1, 57, 100
3, 70656, Note_on_c, 1, 48, 72
3, 70748, Note_off_c, 1, 48, 100
3, 70752, Note_on_c, 1, 55, 51
3, 70844, Note_off_c, 1, 55, 100
3, 70848, Note_on_c, 1, 54, 51
3, 70940, Note_off_c, 1, 54, 100
3, 70944, Note_on_c, 1, 55, 51
3, 71036, Note_off_c, 1, 55, 100
3, 71040, Note_on_c, 1, 57, 51
3, 71132, Note_off_c, 1, 57, 100
3, 71136, Note_on_c, 1, 55, 51
3, 71228, Note_off_c, 1, 55, 100
3, 71232, Note_on_c, 1, 54, 51
3, 71324, Note_off_c, 1, 54, 100
3, 71328, Note_on_c, 1, 55, 51
3, 71420, Note_off_c, 1, 55, 100
3, 71424, Note_on_c, 1, 47, 51
3, 71804, Note_off_c, 1, 47, 100
3, 72192, Note_on_c, 1, 48, 51
3, 72284, Note_off_c, 1, 48, 100
3, 72288, Note_on_c, 1, 55, 51
3, 72380, Note_off_c, 1, 55, 100
3, 72384, Note_on_c, 1, 54, 51
3, 72476, Note_off_c, 1, 54, 100
3, 72480, Note_on_c, 1, 55, 51
3, 72572, Note_off_c, 1, 55, 100
3, 72576, Note_on_c, 1, 57, 51
3, 72668, Note_off_c, 1, 57, 100
3, 72672, Note_on_c, 1, 55, 51
3, 72764, Note_off_c, 1, 55, 100
3, 72768, Note_on_c, 1, 54, 51
3, 72860, Note_off_c, 1, 54, 100
3, 72864, Note_on_c, 1, 55, 51
3, 72956, Note_off_c, 1, 55, 100
3, 72960, Note_on_c, 1, 48, 51
3, 73340, Note_off_c, 1, 48, 100
3, 79872, Note_on_c, 1, 50, 66
3, 79964, Note_off_c, 1, 50, 100
3, 79968, Note_on_c, 1, 59, 66
3, 80060, Note_off_c, 1, 59, 100
3, 80064, Note_on_c, 1, 55, 66
3, 80156, Note_off_c, 1, 55, 100
3, 80160, Note_on_c, 1, 59, 66
3, 80252, Note_off_c, 1, 59, 100
3, 80256, Note_on_c, 1, 50, 66
3, 80348, Note_off_c, 1, 50, 100
3, 80352, Note_on_c, 1, 59, 66
3, 80444, Note_off_c, 1, 59, 100
3, 80448, Note_on_c, 1, 55, 66
3, 80540, Note_off_c, 1, 55, 100
3, 80544, Note_on_c, 1, 59, 66
3, 80636, Note_off_c, 1, 59, 100
3, 80640, Note_on_c, 1, 50, 66
3, 80732, Note_off_c, 1, 50, 100
3, 80736, Note_on_c, 1, 59, 66
3, 80828, Note_off_c, 1, 59, 100
3, 80832, Note_on_c, 1, 55, 66
3, 80924, Note_off_c, 1, 55, 100
3, 80928, Note_on_c, 1, 59, 66
3, 81020, Note_off_c, 1, 59, 100
3, 81024, Note_on_c, 1, 50, 66
3, 81116, Note_off_c, 1, 50, 100
3, 81120, Note_on_c, 1, 59, 66
3, 81212, Note_off_c, 1, 59, 100
3, 81216, Note_on_c, 1, 55, 66
3, 81308, Note_off_c, 1, 55, 100
3, 81312, Note_on_c, 1, 59, 66
3, 81404, Note_off_c, 1, 59, 100
3, 81408, Note_on_c, 1, 50, 61
3, 81500, Note_off_c, 1, 50, 100
3, 81504, Note_on_c, 1, 60, 61
3, 81596, Note_off_c, 1, 60, 100
3, 81600, Note_on_c, 1, 53, 61
3, 81692, Note_off_c, 1, 53, 100
3, 81696, Note_on_c, 1, 60, 61
3, 81788, Note_off_c, 1, 60, 100
3, 81792, Note_on_c, 1, 50, 61
3, 81884, Note_off_c, 1, 50, 100
3, 81888, Note_on_c, 1, 60, 61
3, 81980, Note_off_c, 1, 60, 100
3, 81984, Note_on_c, 1, 53, 61
3, 82076, Note_off_c, 1, 53, 100
3, 82080, Note_on_c, 1, 60, 61
3, 82172, Note_off_c, 1, 60, 100
3, 82176, Note_on_c, 1, 50, 61
3, 82268, Note_off_c, 1, 50, 100
3, 82272, Note_on_c, 1, 60, 61
3, 82364, Note_off_c, 1, 60, 100
3, 82368, Note_on_c, 1, 53, 61
3, 82460, Note_off_c, 1, 53, 100
3, 82464, Note_on_c, 1, 60, 61
3, 82556, Note_off_c, 1, 60, 100
3, 82560, Note_on_c, 1, 50, 61
3, 82652, Note_off_c, 1, 50, 100
3, 82656, Note_on_c, 1, 60, 61
3, 82748, Note_off_c, 1, 60, 100
3, 82752, Note_on_c, 1, 53, 61
3, 82844, Note_off_c, 1, 53, 100
3, 82848, Note_on_c, 1, 60, 61
3, 82940, Note_off_c, 1, 60, 100
3, 82944, Note_on_c, 1, 59, 51
3, 82944, Note_on_c, 1, 55, 51
3, 83324, Note_off_c, 1, 59, 100
3, 83324, Note_off_c, 1, 55, 100
3, 86400, Note_on_c, 1, 43, 77
3, 86400, Note_on_c, 1, 55, 77
3, 86780, Note_off_c, 1, 43, 100
3, 86780, Note_off_c, 1, 55, 100
3, 86784, Note_on_c, 1, 57, 77
3, 86784, Note_on_c, 1, 45, 77
3, 87164, Note_off_c, 1, 57, 100
3, 87164, Note_off_c, 1, 45, 100
3, 87168, Note_on_c, 1, 42, 77
3, 87168, Note_on_c, 1, 54, 77
3, 87548, Note_off_c, 1, 42, 100
3, 87548, Note_off_c, 1, 54, 100
3, 87552, Note_on_c, 1, 55, 77
3, 87552, Note_on_c, 1, 43, 77
3, 87932, Note_off_c, 1, 55, 100
3, 87932, Note_off_c, 1, 43, 100
3, 87936, Note_on_c, 1, 52, 77
3, 87936, Note_on_c, 1, 40, 77
3, 88316, Note_off_c, 1, 52, 100
3, 88316, Note_off_c, 1, 40, 100
3, 88320, Note_on_c, 1, 48, 77
3, 88320, Note_on_c, 1, 36, 77
3, 88700, Note_off_c, 1, 48, 100
3, 88700, Note_off_c, 1, 36, 100
3, 88704, Note_on_c, 1, 50, 77
3, 88704, Note_on_c, 1, 38, 77
3, 88944, Note_off_c, 1, 50, 100
3, 88944, Note_off_c, 1, 38, 100
3, 89088, Note_on_c, 1, 43, 77
3, 89328, Note_off_c, 1, 43, 100
3, 89472, Note_on_c, 1, 55, 77
3, 89472, Note_on_c, 1, 43, 77
3, 89712, Note_off_c, 1, 55, 100
3, 89712, Note_off_c, 1, 43, 100
3, 89856, Note_on_c, 1, 55, 77
3, 89856, Note_on_c, 1, 43, 77
3, 90096, Note_off_c, 1, 55, 100
3, 90096, Note_off_c, 1, 43, 100
3, 90768, Note_on_c, 1, 48, 72
3, 90768, Note_on_c, 1, 36, 72
3, 91372, Note_off_c, 1, 48, 100
3, 91372, Note_off_c, 1, 36, 100
3, 91392, Note_on_c, 1, 43, 72
3, 91392, Note_on_c, 1, 31, 72
3, 92156, Note_off_c, 1, 43, 100
3, 92156, Note_off_c, 1, 31, 100
3, 92160, Note_on_c, 1, 52, 72
3, 92732, Note_off_c, 1, 52, 100
3, 92736, Note_on_c, 1, 53, 72
3, 92828, Note_off_c, 1, 53, 100
3, 92832, Note_on_c, 1, 50, 72
3, 92924, Note_off_c, 1, 50, 100
3, 92928, Note_on_c, 1, 48, 72
3, 93308, Note_off_c, 1, 48, 100
3, 100224, Note_on_c, 1, 62, 51
3, 100224, Note_on_c, 1, 57, 51
3, 100224, Note_on_c, 1, 53, 51
3, 100604, Note_off_c, 1, 62, 100
3, 100604, Note_off_c, 1, 57, 100
3, 100604, Note_off_c, 1, 53, 100
3, 100608, Note_on_c, 1, 64, 51
3, 100608, Note_on_c, 1, 55, 51
3, 100608, Note_on_c, 1, 60, 51
3, 100988, Note_off_c, 1, 64, 100
3, 100988, Note_off_c, 1, 55, 100
3, 100988, Note_off_c, 1, 60, 100
3, 100992, Note_on_c, 1, 62, 51
3, 100992, Note_on_c, 1, 59, 51
3, 100992, Note_on_c, 1, 55, 51
3, 101372, Note_off_c, 1, 62, 100
3, 101372, Note_off_c, 1, 59, 100
3, 101372, Note_off_c, 1, 55, 100
3, 101520, Note_on_c, 1, 48, 72
3, 101520, Note_on_c, 1, 36, 72
3, 102124, Note_off_c, 1, 48, 100
3, 102124, Note_off_c, 1, 36, 100
3, 102144, Note_on_c, 1, 43, 72
3, 102144, Note_on_c, 1, 31, 72
3, 102908, Note_off_c, 1, 43, 100
3, 102908, Note_off_c, 1, 31, 100
3, 102912, Note_on_c, 1, 52, 72
3, 103484, Note_off_c, 1, 52, 100
3, 103488, Note_on_c, 1, 53, 72
3, 103580, Note_off_c, 1, 53, 100
3, 103584, Note_on_c, 1, 50, 72
3, 103664, Note_on_c, 1, 48, 72
3, 103676, Note_off_c, 1, 50, 100
3, 104044, Note_off_c, 1, 48, 100
3, 112128, Note_on_c, 1, 57, 72
3, 112272, Note_off_c, 1, 57, 100
3, 112320, Note_on_c, 1, 60, 72
3, 112464, Note_off_c, 1, 60, 100
3, 112512, Note_on_c, 1, 57, 72
3, 112656, Note_off_c, 1, 57, 100
3, 112704, Note_on_c, 1, 60, 72
3, 112848, Note_off_c, 1, 60, 100
3, 112896, Note_on_c, 1, 53, 51
3, 113040, Note_off_c, 1, 53, 100
3, 113088, Note_on_c, 1, 60, 51
3, 113232, Note_off_c, 1, 60, 100
3, 113280, Note_on_c, 1, 53, 51
3, 113424, Note_off_c, 1, 53, 100
3, 113472, Note_on_c, 1, 60, 51
3, 113616, Note_off_c, 1, 60, 100
3, 113664, Note_on_c, 1, 52, 72
3, 113808, Note_off_c, 1, 52, 100
3, 113856, Note_on_c, 1, 60, 72
3, 114000, Note_off_c, 1, 60, 100
3, 114048, Note_on_c, 1, 52, 72
3, 114192, Note_off_c, 1, 52, 100
3, 114240, Note_on_c, 1, 60, 72
3, 114384, Note_off_c, 1, 60, 100
3, 114432, Note_on_c, 1, 48, 51
3, 114576, Note_off_c, 1, 48, 100
3, 114624, Note_on_c, 1, 60, 51
3, 114768, Note_off_c, 1, 60, 100
3, 114816, Note_on_c, 1, 48, 51
3, 114960, Note_off_c, 1, 48, 100
3, 115008, Note_on_c, 1, 60, 51
3, 115152, Note_off_c, 1, 60, 100
3, 115200, Note_on_c, 1, 53, 51
3, 115344, Note_off_c, 1, 53, 100
3, 115392, Note_on_c, 1, 57, 51
3, 115536, Note_off_c, 1, 57, 100
3, 115584, Note_on_c, 1, 53, 51
3, 115728, Note_off_c, 1, 53, 100
3, 115776, Note_on_c, 1, 62, 51
3, 115920, Note_off_c, 1, 62, 100
3, 115968, Note_on_c, 1, 55, 51
3, 116112, Note_off_c, 1, 55, 100
3, 116160, Note_on_c, 1, 64, 51
3, 116304, Note_off_c, 1, 64, 100
3, 116352, Note_on_c, 1, 55, 51
3, 116496, Note_off_c, 1, 55, 100
3, 116544, Note_on_c, 1, 62, 51
3, 116688, Note_off_c, 1, 62, 100
3, 116736, Note_on_c, 1, 57, 72
3, 116880, Note_off_c, 1, 57, 100
3, 116928, Note_on_c, 1, 60, 72
3, 117072, Note_off_c, 1, 60, 100
3, 117120, Note_on_c, 1, 57, 72
3, 117264, Note_off_c, 1, 57, 100
3, 117312, Note_on_c, 1, 60, 72
3, 117456, Note_off_c, 1, 60, 100
3, 117504, Note_on_c, 1, 53, 51
3, 117648, Note_off_c, 1, 53, 100
3, 117696, Note_on_c, 1, 60, 51
3, 117840, Note_off_c, 1, 60, 100
3, 117888, Note_on_c, 1, 53, 51
3, 118032, Note_off_c, 1, 53, 100
3, 118080, Note_on_c, 1, 60, 51
3, 118224, Note_off_c, 1, 60, 100
3, 118272, Note_on_c, 1, 52, 72
3, 118416, Note_off_c, 1, 52, 100
3, 118464, Note_on_c, 1, 60, 72
3, 118608, Note_off_c, 1, 60, 100
3, 118656, Note_on_c, 1, 52, 72
3, 118800, Note_off_c, 1, 52, 100
3, 118848, Note_on_c, 1, 60, 72
3, 118992, Note_off_c, 1, 60, 100
3, 119040, Note_on_c, 1, 48, 51
3, 119184, Note_off_c, 1, 48, 100
3, 119232, Note_on_c, 1, 60, 51
3, 119376, Note_off_c, 1, 60, 100
3, 119424, Note_on_c, 1, 48, 51
3, 119568, Note_off_c, 1, 48, 100
3, 119616, Note_on_c, 1, 60, 51
3, 119760, Note_off_c, 1, 60, 100
3, 119808, Note_on_c, 1, 53, 51
3, 119952, Note_off_c, 1, 53, 100
3, 120000, Note_on_c, 1, 60, 51
3, 120144, Note_off_c, 1, 60, 100
3, 120192, Note_on_c, 1, 53, 51
3, 120336, Note_off_c, 1, 53, 100
3, 120384, Note_on_c, 1, 62, 51
3, 120528, Note_off_c, 1, 62, 100
3, 120576, Note_on_c, 1, 55, 51
3, 120720, Note_off_c, 1, 55, 100
3, 120768, Note_on_c, 1, 60, 51
3, 120912, Note_off_c, 1, 60, 100
3, 120960, Note_on_c, 1, 55, 51
3, 121104, Note_off_c, 1, 55, 100
3, 121152, Note_on_c, 1, 59, 51
3, 121296, Note_off_c, 1, 59, 100
3, 121344, Note_on_c, 1, 64, 72
3, 121344, Note_on_c, 1, 60, 72
3, 121488, Note_off_c, 1, 64, 100
3, 121488, Note_off_c, 1, 60, 100
3, 121536, Note_on_c, 1, 64, 51
3, 121536, Note_on_c, 1, 60, 51
3, 121680, Note_off_c, 1, 64, 100
3, 121680, Note_off_c, 1, 60, 100
3, 121728, Note_on_c, 1, 64, 51
3, 121728, Note_on_c, 1, 60, 51
3, 121872, Note_off_c, 1, 64, 100
3, 121872, Note_off_c, 1, 60, 100
3, 121920, Note_on_c, 1, 60, 51
3, 121920, Note_on_c, 1, 64, 51
3, 122064, Note_off_c, 1, 60, 100
3, 122064, Note_off_c, 1, 64, 100
3, 122112, Note_on_c, 1, 64, 51
3, 122112, Note_on_c, 1, 60, 51
3, 122256, Note_off_c, 1, 64, 100
3, 122256, Note_off_c, 1, 60, 100
3, 122304, Note_on_c, 1, 64, 51
3, 122304, Note_on_c, 1, 60, 51
3, 122448, Note_off_c, 1, 64, 100
3, 122448, Note_off_c, 1, 60, 100
3, 122496, Note_on_c, 1, 64, 51
3, 122496, Note_on_c, 1, 60, 51
3, 122640, Note_off_c, 1, 64, 100
3, 122640, Note_off_c, 1, 60, 100
3, 122688, Note_on_c, 1, 64, 51
3, 122688, Note_on_c, 1, 60, 51
3, 122832, Note_off_c, 1, 64, 100
3, 122832, Note_off_c, 1, 60, 100
3, 122880, Note_on_c, 1, 64, 51
3, 122880, Note_on_c, 1, 60, 51
3, 123024, Note_off_c, 1, 64, 100
3, 123024, Note_off_c, 1, 60, 100
3, 123072, Note_on_c, 1, 64, 51
3, 123072, Note_on_c, 1, 60, 51
3, 123216, Note_off_c, 1, 64, 100
3, 123216, Note_off_c, 1, 60, 100
3, 123264, Note_on_c, 1, 64, 51
3, 123264, Note_on_c, 1, 60, 51
3, 123408, Note_off_c, 1, 64, 100
3, 123408, Note_off_c, 1, 60, 100
3, 123456, Note_on_c, 1, 60, 51
3, 123456, Note_on_c, 1, 64, 51
3, 123600, Note_off_c, 1, 60, 100
3, 123600, Note_off_c, 1, 64, 100
3, 123648, Note_on_c, 1, 64, 51
3, 123648, Note_on_c, 1, 60, 51
3, 123792, Note_off_c, 1, 64, 100
3, 123792, Note_off_c, 1, 60, 100
3, 123840, Note_on_c, 1, 64, 51
3, 123840, Note_on_c, 1, 60, 51
3, 123984, Note_off_c, 1, 64, 100
3, 123984, Note_off_c, 1, 60, 100
3, 124032, Note_on_c, 1, 64, 51
3, 124032, Note_on_c, 1, 60, 51
3, 124176, Note_off_c, 1, 64, 100
3, 124176, Note_off_c, 1, 60, 100
3, 124224, Note_on_c, 1, 64, 51
3, 124224, Note_on_c, 1, 60, 51
3, 124368, Note_off_c, 1, 64, 100
3, 124368, Note_off_c, 1, 60, 100
3, 124416, Note_on_c, 1, 59, 72
3, 124416, Note_on_c, 1, 62, 72
3, 124560, Note_off_c, 1, 59, 100
3, 124560, Note_off_c, 1, 62, 100
3, 124608, Note_on_c, 1, 59, 51
3, 124608, Note_on_c, 1, 62, 51
3, 124752, Note_off_c, 1, 59, 100
3, 124752, Note_off_c, 1, 62, 100
3, 124800, Note_on_c, 1, 59, 51
3, 124800, Note_on_c, 1, 62, 51
3, 124944, Note_off_c, 1, 59, 100
3, 124944, Note_off_c, 1, 62, 100
3, 124992, Note_on_c, 1, 59, 51
3, 124992, Note_on_c, 1, 62, 51
3, 125136, Note_off_c, 1, 59, 100
3, 125136, Note_off_c, 1, 62, 100
3, 125184, Note_on_c, 1, 59, 51
3, 125184, Note_on_c, 1, 62, 51
3, 125328, Note_off_c, 1, 59, 100
3, 125328, Note_off_c, 1, 62, 100
3, 125376, Note_on_c, 1, 59, 51
3, 125376, Note_on_c, 1, 62, 51
3, 125520, Note_off_c, 1, 59, 100
3, 125520, Note_off_c, 1, 62, 100
3, 125568, Note_on_c, 1, 62, 51
3, 125568, Note_on_c, 1, 59, 51
3, 125712, Note_off_c, 1, 62, 100
3, 125712, Note_off_c, 1, 59, 100
3, 125760, Note_on_c, 1, 59, 51
3, 125760, Note_on_c, 1, 62, 51
3, 125904, Note_off_c, 1, 59, 100
3, 125904, Note_off_c, 1, 62, 100
3, 125952, Note_on_c, 1, 62, 51
3, 125952, Note_on_c, 1, 59, 51
3, 126096, Note_off_c, 1, 62, 100
3, 126096, Note_off_c, 1, 59, 100
3, 126144, Note_on_c, 1, 62, 51
3, 126144, Note_on_c, 1, 59, 51
3, 126288, Note_off_c, 1, 62, 100
3, 126288, Note_off_c, 1, 59, 100
3, 126336, Note_on_c, 1, 62, 51
3, 126336, Note_on_c, 1, 59, 51
3, 126480, Note_off_c, 1, 62, 100
3, 126480, Note_off_c, 1, 59, 100
3, 126528, Note_on_c, 1, 59, 51
3, 126528, Note_on_c, 1, 62, 51
3, 126672, Note_off_c, 1, 59, 100
3, 126672, Note_off_c, 1, 62, 100
3, 126720, Note_on_c, 1, 62, 51
3, 126720, Note_on_c, 1, 59, 51
3, 126864, Note_off_c, 1, 62, 100
3, 126864, Note_off_c, 1, 59, 100
3, 126912, Note_on_c, 1, 62, 51
3, 126912, Note_on_c, 1, 59, 51
3, 127056, Note_off_c, 1, 62, 100
3, 127056, Note_off_c, 1, 59, 100
3, 127104, Note_on_c, 1, 62, 51
3, 127104, Note_on_c, 1, 59, 51
3, 127248, Note_off_c, 1, 62, 100
3, 127248, Note_off_c, 1, 59, 100
3, 127296, Note_on_c, 1, 62, 51
3, 127296, Note_on_c, 1, 59, 51
3, 127440, Note_off_c, 1, 62, 100
3, 127440, Note_off_c, 1, 59, 100
3, 127488, Note_on_c, 1, 54, 72
3, 127488, Note_on_c, 1, 57, 72
3, 127488, Note_on_c, 1, 62, 72
3, 127632, Note_off_c, 1, 54, 100
3, 127632, Note_off_c, 1, 57, 100
3, 127632, Note_off_c, 1, 62, 100
3, 127680, Note_on_c, 1, 54, 51
3, 127680, Note_on_c, 1, 57, 51
3, 127680, Note_on_c, 1, 62, 51
3, 127824, Note_off_c, 1, 54, 100
3, 127824, Note_off_c, 1, 57, 100
3, 127824, Note_off_c, 1, 62, 100
3, 127872, Note_on_c, 1, 54, 51
3, 127872, Note_on_c, 1, 62, 51
3, 127872, Note_on_c, 1, 57, 51
3, 128016, Note_off_c, 1, 54, 100
3, 128016, Note_off_c, 1, 62, 100
3, 128016, Note_off_c, 1, 57, 100
3, 128064, Note_on_c, 1, 54, 51
3, 128064, Note_on_c, 1, 57, 51
3, 128064, Note_on_c, 1, 62, 51
3, 128208, Note_off_c, 1, 54, 100
3, 128208, Note_off_c, 1, 57, 100
3, 128208, Note_off_c, 1, 62, 100
3, 128256, Note_on_c, 1, 54, 51
3, 128256, Note_on_c, 1, 57, 51
3, 128256, Note_on_c, 1, 62, 51
3, 128400, Note_off_c, 1, 54, 100
3, 128400, Note_off_c, 1, 57, 100
3, 128400, Note_off_c, 1, 62, 100
3, 128448, Note_on_c, 1, 54, 51
3, 128448, Note_on_c, 1, 57, 51
3, 128448, Note_on_c, 1, 62, 51
3, 128592, Note_off_c, 1, 54, 100
3, 128592, Note_off_c, 1, 57, 100
3, 128592, Note_off_c, 1, 62, 100
3, 128640, Note_on_c, 1, 57, 51
3, 128640, Note_on_c, 1, 62, 51
3, 128640, Note_on_c, 1, 54, 51
3, 128784, Note_off_c, 1, 57, 100
3, 128784, Note_off_c, 1, 62, 100
3, 128784, Note_off_c, 1, 54, 100
3, 128832, Note_on_c, 1, 54, 51
3, 128832, Note_on_c, 1, 57, 51
3, 128832, Note_on_c, 1, 62, 51
3, 128976, Note_off_c, 1, 54, 100
3, 128976, Note_off_c, 1, 57, 100
3, 128976, Note_off_c, 1, 62, 100
3, 129024, Note_on_c, 1, 54, 51
3, 129024, Note_on_c, 1, 57, 51
3, 129024, Note_on_c, 1, 62, 51
3, 129168, Note_off_c, 1, 54, 100
3, 129168, Note_off_c, 1, 57, 100
3, 129168, Note_off_c, 1, 62, 100
3, 129216, Note_on_c, 1, 54, 51
3, 129216, Note_on_c, 1, 57, 51
3, 129216, Note_on_c, 1, 62, 51
3, 129360, Note_off_c, 1, 54, 100
3, 129360, Note_off_c, 1, 57, 100
3, 129360, Note_off_c, 1, 62, 100
3, 129408, Note_on_c, 1, 54, 51
3, 129408, Note_on_c, 1, 57, 51
3, 129408, Note_on_c, 1, 62, 51
3, 129552, Note_off_c, 1, 54, 100
3, 129552, Note_off_c, 1, 57, 100
3, 129552, Note_off_c, 1, 62, 100
3, 129600, Note_on_c, 1, 54, 51
3, 129600, Note_on_c, 1, 57, 51
3, 129600, Note_on_c, 1, 62, 51
3, 129744, Note_off_c, 1, 54, 100
3, 129744, Note_off_c, 1, 57, 100
3, 129744, Note_off_c, 1, 62, 100
3, 129792, Note_on_c, 1, 54, 51
3, 129792, Note_on_c, 1, 57, 51
3, 129792, Note_on_c, 1, 62, 51
3, 129936, Note_off_c, 1, 54, 100
3, 129936, Note_off_c, 1, 57, 100
3, 129936, Note_off_c, 1, 62, 100
3, 129984, Note_on_c, 1, 54, 51
3, 129984, Note_on_c, 1, 57, 51
3, 129984, Note_on_c, 1, 62, 51
3, 130128, Note_off_c, 1, 54, 100
3, 130128, Note_off_c, 1, 57, 100
3, 130128, Note_off_c, 1, 62, 100
3, 130176, Note_on_c, 1, 54, 51
3, 130176, Note_on_c, 1, 57, 51
3, 130176, Note_on_c, 1, 62, 51
3, 130320, Note_off_c, 1, 54, 100
3, 130320, Note_off_c, 1, 57, 100
3, 130320, Note_off_c, 1, 62, 100
3, 130368, Note_on_c, 1, 54, 51
3, 130368, Note_on_c, 1, 62, 51
3, 130368, Note_on_c, 1, 57, 51
3, 130512, Note_off_c, 1, 54, 100
3, 130512, Note_off_c, 1, 62, 100
3, 130512, Note_off_c, 1, 57, 100
3, 130560, Note_on_c, 1, 55, 72
3, 130704, Note_off_c, 1, 55, 100
3, 130752, Note_on_c, 1, 62, 72
3, 130896, Note_off_c, 1, 62, 100
3, 130944, Note_on_c, 1, 57, 51
3, 131088, Note_off_c, 1, 57, 100
3, 131136, Note_on_c, 1, 62, 51
3, 131280, Note_off_c, 1, 62, 100
3, 131328, Note_on_c, 1, 54, 72
3, 131472, Note_off_c, 1, 54, 100
3, 131520, Note_on_c, 1, 62, 51
3, 131664, Note_off_c, 1, 62, 100
3, 131712, Note_on_c, 1, 50, 51
3, 131856, Note_off_c, 1, 50, 100
3, 131904, Note_on_c, 1, 62, 51
3, 132048, Note_off_c, 1, 62, 100
3, 132096, Note_on_c, 1, 55, 51
3, 132240, Note_off_c, 1, 55, 100
3, 132288, Note_on_c, 1, 62, 51
3, 132432, Note_off_c, 1, 62, 100
3, 132480, Note_on_c, 1, 59, 51
3, 132624, Note_off_c, 1, 59, 100
3, 132672, Note_on_c, 1, 62, 51
3, 132816, Note_off_c, 1, 62, 100
3, 132864, Note_on_c, 1, 54, 72
3, 133008, Note_off_c, 1, 54, 100
3, 133056, Note_on_c, 1, 62, 51
3, 133200, Note_off_c, 1, 62, 100
3, 133248, Note_on_c, 1, 50, 51
3, 133392, Note_off_c, 1, 50, 100
3, 133440, Note_on_c, 1, 62, 51
3, 133584, Note_off_c, 1, 62, 100
3, 133632, Note_on_c, 1, 62, 72
3, 133632, Note_on_c, 1, 55, 72
3, 134012, Note_off_c, 1, 62, 100
3, 134012, Note_off_c, 1, 55, 100
3, 134400, Note_on_c, 1, 59, 72
3, 134400, Note_on_c, 1, 62, 72
3, 134780, Note_off_c, 1, 59, 100
3, 134780, Note_off_c, 1, 62, 100
3, 135168, Note_on_c, 1, 60, 72
3, 135168, Note_on_c, 1, 67, 72
3, 135548, Note_off_c, 1, 60, 100
3, 135548, Note_off_c, 1, 67, 100
3, 135936, Note_on_c, 1, 67, 72
3, 135936, Note_on_c, 1, 64, 72
3, 136316, Note_off_c, 1, 67, 100
3, 136316, Note_off_c, 1, 64, 100
3, 136704, Note_on_c, 1, 57, 72
3, 136988, Note_off_c, 1, 57, 100
3, 136992, Note_on_c, 1, 59, 72
3, 137084, Note_off_c, 1, 59, 100
3, 137088, Note_on_c, 1, 60, 72
3, 137372, Note_off_c, 1, 60, 100
3, 137376, Note_on_c, 1, 59, 72
3, 137468, Note_off_c, 1, 59, 100
3, 137472, Note_on_c, 1, 57, 72
3, 137756, Note_off_c, 1, 57, 100
3, 137760, Note_on_c, 1, 55, 72
3, 137852, Note_off_c, 1, 55, 100
3, 137856, Note_on_c, 1, 54, 72
3, 138140, Note_off_c, 1, 54, 100
3, 138144, Note_on_c, 1, 52, 72
3, 138236, Note_off_c, 1, 52, 100
3, 138240, Note_on_c, 1, 50, 72
3, 138428, Note_off_c, 1, 50, 100
3, 138432, Note_on_c, 1, 54, 72
3, 138524, Note_off_c, 1, 54, 100
3, 138528, Note_on_c, 1, 57, 72
3, 138620, Note_off_c, 1, 57, 100
3, 138624, Note_on_c, 1, 62, 72
3, 138768, Note_off_c, 1, 62, 100
3, 138816, Note_on_c, 1, 62, 72
3, 138960, Note_off_c, 1, 62, 100
3, 139008, Note_on_c, 1, 62, 72
3, 139388, Note_off_c, 1, 62, 100
3, 139776, Note_on_c, 1, 61, 51
3, 139920, Note_off_c, 1, 61, 100
3, 139968, Note_on_c, 1, 62, 51
3, 140112, Note_off_c, 1, 62, 100
3, 140160, Note_on_c, 1, 61, 51
3, 140304, Note_off_c, 1, 61, 100
3, 140352, Note_on_c, 1, 62, 51
3, 140496, Note_off_c, 1, 62, 100
3, 140544, Note_on_c, 1, 61, 51
3, 140688, Note_off_c, 1, 61, 100
3, 140736, Note_on_c, 1, 62, 51
3, 140880, Note_off_c, 1, 62, 100
3, 140928, Note_on_c, 1, 61, 51
3, 141072, Note_off_c, 1, 61, 100
3, 141120, Note_on_c, 1, 62, 52
3, 141264, Note_off_c, 1, 62, 100
3, 141312, Note_on_c, 1, 60, 55
3, 141456, Note_off_c, 1, 60, 100
3, 141504, Note_on_c, 1, 62, 57
3, 141648, Note_off_c, 1, 62, 100
3, 141696, Note_on_c, 1, 59, 60
3, 141840, Note_off_c, 1, 59, 100
3, 141888, Note_on_c, 1, 62, 62
3, 142032, Note_off_c, 1, 62, 100
3, 142080, Note_on_c, 1, 60, 65
3, 142224, Note_off_c, 1, 60, 100
3, 142272, Note_on_c, 1, 62, 67
3, 142416, Note_off_c, 1, 62, 100
3, 142464, Note_on_c, 1, 57, 70
3, 142608, Note_off_c, 1, 57, 100
3, 142656, Note_on_c, 1, 62, 72
3, 142800, Note_off_c, 1, 62, 100
3, 142848, Note_on_c, 1, 55, 51
3, 142992, Note_off_c, 1, 55, 100
3, 143040, Note_on_c, 1, 62, 51
3, 143184, Note_off_c, 1, 62, 100
3, 143232, Note_on_c, 1, 55, 51
3, 143376, Note_off_c, 1, 55, 100
3, 143424, Note_on_c, 1, 62, 51
3, 143568, Note_off_c, 1, 62, 100
3, 143616, Note_on_c, 1, 59, 51
3, 143760, Note_off_c, 1, 59, 100
3, 143808, Note_on_c, 1, 62, 51
3, 143952, Note_off_c, 1, 62, 100
3, 144000, Note_on_c, 1, 59, 51
3, 144144, Note_off_c, 1, 59, 100
3, 144192, Note_on_c, 1, 62, 51
3, 144336, Note_off_c, 1, 62, 100
3, 144384, Note_on_c, 1, 60, 51
3, 144528, Note_off_c, 1, 60, 100
3, 144576, Note_on_c, 1, 62, 51
3, 144720, Note_off_c, 1, 62, 100
3, 144768, Note_on_c, 1, 60, 51
3, 144912, Note_off_c, 1, 60, 100
3, 144960, Note_on_c, 1, 62, 51
3, 145104, Note_off_c, 1, 62, 100
3, 145152, Note_on_c, 1, 57, 51
3, 145296, Note_off_c, 1, 57, 100
3, 145344, Note_on_c, 1, 62, 51
3, 145488, Note_off_c, 1, 62, 100
3, 145536, Note_on_c, 1, 57, 51
3, 145680, Note_off_c, 1, 57, 100
3, 145728, Note_on_c, 1, 62, 51
3, 145872, Note_off_c, 1, 62, 100
3, 145920, Note_on_c, 1, 59, 51
3, 146064, Note_off_c, 1, 59, 100
3, 146112, Note_on_c, 1, 62, 51
3, 146256, Note_off_c, 1, 62, 100
3, 146304, Note_on_c, 1, 55, 51
3, 146448, Note_off_c, 1, 55, 100
3, 146496, Note_on_c, 1, 62, 51
3, 146640, Note_off_c, 1, 62, 100
3, 146688, Note_on_c, 1, 57, 51
3, 146832, Note_off_c, 1, 57, 100
3, 146880, Note_on_c, 1, 62, 51
3, 147024, Note_off_c, 1, 62, 100
3, 147072, Note_on_c, 1, 54, 51
3, 147216, Note_off_c, 1, 54, 100
3, 147264, Note_on_c, 1, 62, 51
3, 147408, Note_off_c, 1, 62, 100
3, 147456, Note_on_c, 1, 55, 51
3, 147600, Note_off_c, 1, 55, 100
3, 147648, Note_on_c, 1, 62, 51
3, 147792, Note_off_c, 1, 62, 100
3, 147840, Note_on_c, 1, 52, 51
3, 147984, Note_off_c, 1, 52, 100
3, 148032, Note_on_c, 1, 61, 51
3, 148176, Note_off_c, 1, 61, 100
3, 148224, Note_on_c, 1, 50, 51
3, 148368, Note_off_c, 1, 50, 100
3, 148416, Note_on_c, 1, 62, 51
3, 148560, Note_off_c, 1, 62, 100
3, 148608, Note_on_c, 1, 60, 51
3, 148752, Note_off_c, 1, 60, 100
3, 148800, Note_on_c, 1, 57, 51
3, 148944, Note_off_c, 1, 57, 100
3, 148992, Note_on_c, 1, 55, 51
3, 149136, Note_off_c, 1, 55, 100
3, 149184, Note_on_c, 1, 62, 51
3, 149328, Note_off_c, 1, 62, 100
3, 149376, Note_on_c, 1, 55, 51
3, 149520, Note_off_c, 1, 55, 100
3, 149568, Note_on_c, 1, 62, 51
3, 149712, Note_off_c, 1, 62, 100
3, 149760, Note_on_c, 1, 59, 51
3, 149904, Note_off_c, 1, 59, 100
3, 149952, Note_on_c, 1, 62, 51
3, 150096, Note_off_c, 1, 62, 100
3, 150144, Note_on_c, 1, 59, 51
3, 150288, Note_off_c, 1, 59, 100
3, 150336, Note_on_c, 1, 62, 51
3, 150480, Note_off_c, 1, 62, 100
3, 150528, Note_on_c, 1, 60, 51
3, 150672, Note_off_c, 1, 60, 100
3, 150720, Note_on_c, 1, 62, 51
3, 150864, Note_off_c, 1, 62, 100
3, 150912, Note_on_c, 1, 60, 51
3, 151056, Note_off_c, 1, 60, 100
3, 151104, Note_on_c, 1, 62, 51
3, 151248, Note_off_c, 1, 62, 100
3, 151296, Note_on_c, 1, 57, 51
3, 151440, Note_off_c, 1, 57, 100
3, 151488, Note_on_c, 1, 62, 51
3, 151632, Note_off_c, 1, 62, 100
3, 151680, Note_on_c, 1, 57, 51
3, 151824, Note_off_c, 1, 57, 100
3, 151872, Note_on_c, 1, 62, 51
3, 152016, Note_off_c, 1, 62, 100
3, 152064, Note_on_c, 1, 59, 51
3, 152208, Note_off_c, 1, 59, 100
3, 152256, Note_on_c, 1, 62, 51
3, 152400, Note_off_c, 1, 62, 100
3, 152448, Note_on_c, 1, 55, 51
3, 152592, Note_off_c, 1, 55, 100
3, 152640, Note_on_c, 1, 62, 51
3, 152784, Note_off_c, 1, 62, 100
3, 152832, Note_on_c, 1, 57, 51
3, 152976, Note_off_c, 1, 57, 100
3, 153024, Note_on_c, 1, 62, 51
3, 153168, Note_off_c, 1, 62, 100
3, 153216, Note_on_c, 1, 54, 51
3, 153360, Note_off_c, 1, 54, 100
3, 153408, Note_on_c, 1, 62, 51
3, 153552, Note_off_c, 1, 62, 100
3, 153600, Note_on_c, 1, 55, 51
3, 153744, Note_off_c, 1, 55, 100
3, 153792, Note_on_c, 1, 62, 51
3, 153936, Note_off_c, 1, 62, 100
3, 153984, Note_on_c, 1, 52, 51
3, 154128, Note_off_c, 1, 52, 100
3, 154176, Note_on_c, 1, 61, 51
3, 154320, Note_off_c, 1, 61, 100
3, 154368, Note_on_c, 1, 50, 51
3, 154512, Note_off_c, 1, 50, 100
3, 154560, Note_on_c, 1, 62, 51
3, 154704, Note_off_c, 1, 62, 100
3, 154752, Note_on_c, 1, 48, 51
3, 154896, Note_off_c, 1, 48, 100
3, 154944, Note_on_c, 1, 60, 51
3, 155088, Note_off_c, 1, 60, 100
3, 155136, Note_on_c, 1, 47, 72
3, 155228, Note_off_c, 1, 47, 100
3, 155232, Note_on_c, 1, 55, 72
3, 155324, Note_off_c, 1, 55, 100
3, 155328, Note_on_c, 1, 54, 72
3, 155420, Note_off_c, 1, 54, 100
3, 155424, Note_on_c, 1, 55, 72
3, 155516, Note_off_c, 1, 55, 100
3, 155520, Note_on_c, 1, 57, 72
3, 155612, Note_off_c, 1, 57, 100
3, 155616, Note_on_c, 1, 55, 72
3, 155708, Note_off_c, 1, 55, 100
3, 155712, Note_on_c, 1, 54, 72
3, 155804, Note_off_c, 1, 54, 100
3, 155808, Note_on_c, 1, 55, 72
3, 155900, Note_off_c, 1, 55, 100
3, 155904, Note_on_c, 1, 47, 72
3, 156284, Note_off_c, 1, 47, 100
3, 156672, Note_on_c, 1, 48, 72
3, 156764, Note_off_c, 1, 48, 100
3, 156768, Note_on_c, 1, 55, 72
3, 156860, Note_off_c, 1, 55, 100
3, 156864, Note_on_c, 1, 54, 72
3, 156956, Note_off_c, 1, 54, 100
3, 156960, Note_on_c, 1, 55, 72
3, 157052, Note_off_c, 1, 55, 100
3, 157056, Note_on_c, 1, 57, 72
3, 157148, Note_off_c, 1, 57, 100
3, 157152, Note_on_c, 1, 55, 72
3, 157244, Note_off_c, 1, 55, 100
3, 157248, Note_on_c, 1, 54, 72
3, 157340, Note_off_c, 1, 54, 100
3, 157344, Note_on_c, 1, 55, 72
3, 157436, Note_off_c, 1, 55, 100
3, 157440, Note_on_c, 1, 48, 72
3, 157820, Note_off_c, 1, 48, 100
3, 158208, Note_on_c, 1, 50, 51
3, 158352, Note_off_c, 1, 50, 100
3, 158400, Note_on_c, 1, 55, 51
3, 158544, Note_off_c, 1, 55, 100
3, 158592, Note_on_c, 1, 59, 51
3, 158736, Note_off_c, 1, 59, 100
3, 158784, Note_on_c, 1, 55, 51
3, 158928, Note_off_c, 1, 55, 100
3, 158976, Note_on_c, 1, 50, 51
3, 159120, Note_off_c, 1, 50, 100
3, 159168, Note_on_c, 1, 57, 51
3, 159312, Note_off_c, 1, 57, 100
3, 159360, Note_on_c, 1, 60, 51
3, 159504, Note_off_c, 1, 60, 100
3, 159552, Note_on_c, 1, 57, 51
3, 159696, Note_off_c, 1, 57, 100
3, 159744, Note_on_c, 1, 48, 72
3, 159836, Note_off_c, 1, 48, 100
3, 159840, Note_on_c, 1, 55, 51
3, 159932, Note_off_c, 1, 55, 100
3, 159936, Note_on_c, 1, 54, 51
3, 160028, Note_off_c, 1, 54, 100
3, 160032, Note_on_c, 1, 55, 51
3, 160124, Note_off_c, 1, 55, 100
3, 160128, Note_on_c, 1, 57, 51
3, 160220, Note_off_c, 1, 57, 100
3, 160224, Note_on_c, 1, 55, 51
3, 160316, Note_off_c, 1, 55, 100
3, 160320, Note_on_c, 1, 54, 51
3, 160412, Note_off_c, 1, 54, 100
3, 160416, Note_on_c, 1, 55, 51
3, 160508, Note_off_c, 1, 55, 100
3, 160512, Note_on_c, 1, 47, 51
3, 160892, Note_off_c, 1, 47, 100
3, 161280, Note_on_c, 1, 48, 51
3, 161372, Note_off_c, 1, 48, 100
3, 161376, Note_on_c, 1, 55, 51
3, 161468, Note_off_c, 1, 55, 100
3, 161472, Note_on_c, 1, 54, 51
3, 161564, Note_off_c, 1, 54, 100
3, 161568, Note_on_c, 1, 55, 51
3, 161660, Note_off_c, 1, 55, 100
3, 161664, Note_on_c, 1, 57, 51
3, 161756, Note_off_c, 1, 57, 100
3, 161760, Note_on_c, 1, 55, 51
3, 161852, Note_off_c, 1, 55, 100
3, 161856, Note_on_c, 1, 54, 51
3, 161948, Note_off_c, 1, 54, 100
3, 161952, Note_on_c, 1, 55, 51
3, 162044, Note_off_c, 1, 55, 100
3, 162048, Note_on_c, 1, 48, 51
3, 162428, Note_off_c, 1, 48, 100
3, 168960, Note_on_c, 1, 50, 66
3, 169052, Note_off_c, 1, 50, 100
3, 169056, Note_on_c, 1, 59, 66
3, 169148, Note_off_c, 1, 59, 100
3, 169152, Note_on_c, 1, 55, 66
3, 169244, Note_off_c, 1, 55, 100
3, 169248, Note_on_c, 1, 59, 66
3, 169340, Note_off_c, 1, 59, 100
3, 169344, Note_on_c, 1, 50, 66
3, 169436, Note_off_c, 1, 50, 100
3, 169440, Note_on_c, 1, 59, 66
3, 169532, Note_off_c, 1, 59, 100
3, 169536, Note_on_c, 1, 55, 66
3, 169628, Note_off_c, 1, 55, 100
3, 169632, Note_on_c, 1, 59, 66
3, 169724, Note_off_c, 1, 59, 100
3, 169728, Note_on_c, 1, 50, 66
3, 169820, Note_off_c, 1, 50, 100
3, 169824, Note_on_c, 1, 59, 66
3, 169916, Note_off_c, 1, 59, 100
3, 169920, Note_on_c, 1, 55, 66
3, 170012, Note_off_c, 1, 55, 100
3, 170016, Note_on_c, 1, 59, 66
3, 170108, Note_off_c, 1, 59, 100
3, 170112, Note_on_c, 1, 50, 66
3, 170204, Note_off_c, 1, 50, 100
3, 170208, Note_on_c, 1, 59, 66
3, 170300, Note_off_c, 1, 59, 100
3, 170304, Note_on_c, 1, 55, 66
3, 170396, Note_off_c, 1, 55, 100
3, 170400, Note_on_c, 1, 59, 66
3, 170492, Note_off_c, 1, 59, 100
3, 170496, Note_on_c, 1, 50, 61
3, 170588, Note_off_c, 1, 50, 100
3, 170592, Note_on_c, 1, 60, 61
3, 170684, Note_off_c, 1, 60, 100
3, 170688, Note_on_c, 1, 53, 61
3, 170780, Note_off_c, 1, 53, 100
3, 170784, Note_on_c, 1, 60, 61
3, 170876, Note_off_c, 1, 60, 100
3, 170880, Note_on_c, 1, 50, 61
3, 170972, Note_off_c, 1, 50, 100
3, 170976, Note_on_c, 1, 60, 61
3, 171068, Note_off_c, 1, 60, 100
3, 171072, Note_on_c, 1, 53, 61
3, 171164, Note_off_c, 1, 53, 100
3, 171168, Note_on_c, 1, 60, 61
3, 171260, Note_off_c, 1, 60, 100
3, 171264, Note_on_c, 1, 50, 61
3, 171356, Note_off_c, 1, 50, 100
3, 171360, Note_on_c, 1, 60, 61
3, 171452, Note_off_c, 1, 60, 100
3, 171456, Note_on_c, 1, 53, 61
3, 171548, Note_off_c, 1, 53, 100
3, 171552, Note_on_c, 1, 60, 61
3, 171644, Note_off_c, 1, 60, 100
3, 171648, Note_on_c, 1, 50, 61
3, 171740, Note_off_c, 1, 50, 100
3, 171744, Note_on_c, 1, 60, 61
3, 171836, Note_off_c, 1, 60, 100
3, 171840, Note_on_c, 1, 53, 61
3, 171932, Note_off_c, 1, 53, 100
3, 171936, Note_on_c, 1, 60, 61
3, 172028, Note_off_c, 1, 60, 100
3, 172032, Note_on_c, 1, 59, 51
3, 172032, Note_on_c, 1, 55, 51
3, 172412, Note_off_c, 1, 59, 100
3, 172412, Note_off_c, 1, 55, 100
3, 175488, Note_on_c, 1, 43, 77
3, 175488, Note_on_c, 1, 55, 77
3, 175868, Note_off_c, 1, 43, 100
3, 175868, Note_off_c, 1, 55, 100
3, 175872, Note_on_c, 1, 57, 77
3, 175872, Note_on_c, 1, 45, 77
3, 176252, Note_off_c, 1, 57, 100
3, 176252, Note_off_c, 1, 45, 100
3, 176256, Note_on_c, 1, 42, 77
3, 176256, Note_on_c, 1, 54, 77
3, 176636, Note_off_c, 1, 42, 100
3, 176636, Note_off_c, 1, 54, 100
3, 176640, Note_on_c, 1, 55, 77
3, 176640, Note_on_c, 1, 43, 77
3, 177020, Note_off_c, 1, 55, 100
3, 177020, Note_off_c, 1, 43, 100
3, 177024, Note_on_c, 1, 52, 77
3, 177024, Note_on_c, 1, 40, 77
3, 177404, Note_off_c, 1, 52, 100
3, 177404, Note_off_c, 1, 40, 100
3, 177408, Note_on_c, 1, 48, 77
3, 177408, Note_on_c, 1, 36, 77
3, 177788, Note_off_c, 1, 48, 100
3, 177788, Note_off_c, 1, 36, 100
3, 177792, Note_on_c, 1, 50, 77
3, 177792, Note_on_c, 1, 38, 77
3, 178172, Note_off_c, 1, 50, 100
3, 178172, Note_off_c, 1, 38, 100
3, 178176, Note_on_c, 1, 43, 77
3, 178556, Note_off_c, 1, 43, 100
3, 178560, Note_on_c, 1, 55, 77
3, 178560, Note_on_c, 1, 43, 77
3, 178940, Note_off_c, 1, 55, 100
3, 178940, Note_off_c, 1, 43, 100
3, 178944, Note_on_c, 1, 55, 77
3, 178944, Note_on_c, 1, 43, 77
3, 179324, Note_off_c, 1, 55, 100
3, 179324, Note_off_c, 1, 43, 100
3, 179856, Note_on_c, 1, 43, 72
3, 179856, Note_on_c, 1, 31, 72
3, 180480, Note_on_c, 1, 38, 72
3, 180620, Note_off_c, 1, 43, 100
3, 180620, Note_off_c, 1, 31, 100
3, 181244, Note_off_c, 1, 38, 100
3, 181248, Note_on_c, 1, 46, 72
3, 181820, Note_off_c, 1, 46, 100
3, 181824, Note_on_c, 1, 48, 72
3, 181916, Note_off_c, 1, 48, 100
3, 181920, Note_on_c, 1, 45, 72
3, 182012, Note_off_c, 1, 45, 100
3, 182016, Note_on_c, 1, 43, 72
3, 182396, Note_off_c, 1, 43, 100
3, 192000, Note_on_c, 1, 50, 72
3, 192044, Note_off_c, 1, 50, 0
3, 192048, Note_on_c, 1, 53, 72
3, 192092, Note_off_c, 1, 53, 0
3, 192096, Note_on_c, 1, 57, 72
3, 192140, Note_off_c, 1, 57, 0
3, 192144, Note_on_c, 1, 38, 72
3, 192144, Note_on_c, 1, 62, 72
3, 192144, Note_on_c, 1, 50, 72
3, 192748, Note_off_c, 1, 38, 100
3, 192748, Note_off_c, 1, 62, 100
3, 192748, Note_off_c, 1, 50, 100
3, 192768, Note_on_c, 1, 45, 72
3, 192768, Note_on_c, 1, 57, 72
3, 193532, Note_off_c, 1, 45, 100
3, 193532, Note_off_c, 1, 57, 100
3, 193536, Note_on_c, 1, 53, 72
3, 194108, Note_off_c, 1, 53, 100
3, 194112, Note_on_c, 1, 55, 72
3, 194204, Note_off_c, 1, 55, 100
3, 194208, Note_on_c, 1, 52, 72
3, 194300, Note_off_c, 1, 52, 100
3, 194304, Note_on_c, 1, 50, 72
3, 194684, Note_off_c, 1, 50, 100
3, 195072, Note_on_c, 1, 57, 51
3, 195072, Note_on_c, 1, 53, 51
3, 195216, Note_off_c, 1, 57, 100
3, 195264, Note_on_c, 1, 62, 51
3, 195408, Note_off_c, 1, 62, 100
3, 195452, Note_off_c, 1, 53, 0
3, 195456, Note_on_c, 1, 57, 51
3, 195456, Note_on_c, 1, 53, 51
3, 195600, Note_off_c, 1, 57, 100
3, 195648, Note_on_c, 1, 62, 51
3, 195792, Note_off_c, 1, 62, 100
3, 195836, Note_off_c, 1, 53, 0
3, 195840, Note_on_c, 1, 57, 51
3, 195840, Note_on_c, 1, 53, 51
3, 195984, Note_off_c, 1, 57, 100
3, 196032, Note_on_c, 1, 62, 51
3, 196176, Note_off_c, 1, 62, 100
3, 196220, Note_off_c, 1, 53, 0
3, 196224, Note_on_c, 1, 57, 51
3, 196224, Note_on_c, 1, 53, 51
3, 196368, Note_off_c, 1, 57, 100
3, 196416, Note_on_c, 1, 62, 51
3, 196560, Note_off_c, 1, 62, 100
3, 196604, Note_off_c, 1, 53, 0
3, 196608, Note_on_c, 1, 59, 51
3, 196608, Note_on_c, 1, 52, 51
3, 196752, Note_off_c, 1, 59, 100
3, 196800, Note_on_c, 1, 62, 51
3, 196944, Note_off_c, 1, 62, 100
3, 196988, Note_off_c, 1, 52, 0
3, 196992, Note_on_c, 1, 59, 51
3, 196992, Note_on_c, 1, 52, 51
3, 197136, Note_off_c, 1, 59, 100
3, 197184, Note_on_c, 1, 62, 51
3, 197328, Note_off_c, 1, 62, 100
3, 197372, Note_off_c, 1, 52, 0
3, 197376, Note_on_c, 1, 59, 51
3, 197376, Note_on_c, 1, 52, 51
3, 197520, Note_off_c, 1, 59, 100
3, 197568, Note_on_c, 1, 62, 51
3, 197712, Note_off_c, 1, 62, 100
3, 197756, Note_off_c, 1, 52, 0
3, 197760, Note_on_c, 1, 59, 51
3, 197760, Note_on_c, 1, 52, 51
3, 197904, Note_off_c, 1, 59, 100
3, 197952, Note_on_c, 1, 62, 51
3, 198096, Note_off_c, 1, 62, 100
3, 198140, Note_off_c, 1, 52, 0
3, 198144, Note_on_c, 1, 57, 51
3, 198144, Note_on_c, 1, 53, 51
3, 198160, Note_on_c, 1, 53, 51
3, 198288, Note_off_c, 1, 57, 100
3, 198336, Note_on_c, 1, 62, 51
3, 198480, Note_off_c, 1, 62, 100
3, 198524, Note_off_c, 1, 53, 0
3, 198528, Note_on_c, 1, 57, 51
3, 198528, Note_on_c, 1, 53, 51
3, 198540, Note_off_c, 1, 53, 0
3, 198672, Note_off_c, 1, 57, 100
3, 198720, Note_on_c, 1, 62, 51
3, 198864, Note_off_c, 1, 62, 100
3, 198908, Note_off_c, 1, 53, 0
3, 198912, Note_on_c, 1, 57, 51
3, 198912, Note_on_c, 1, 53, 51
3, 199056, Note_off_c, 1, 57, 100
3, 199104, Note_on_c, 1, 62, 51
3, 199248, Note_off_c, 1, 62, 100
3, 199292, Note_off_c, 1, 53, 0
3, 199296, Note_on_c, 1, 57, 51
3, 199296, Note_on_c, 1, 53, 51
3, 199440, Note_off_c, 1, 57, 100
3, 199488, Note_on_c, 1, 62, 51
3, 199632, Note_off_c, 1, 62, 100
3, 199676, Note_off_c, 1, 53, 0
3, 199680, Note_on_c, 1, 59, 51
3, 199680, Note_on_c, 1, 52, 51
3, 199824, Note_off_c, 1, 59, 100
3, 199872, Note_on_c, 1, 62, 51
3, 200016, Note_off_c, 1, 62, 100
3, 200060, Note_off_c, 1, 52, 0
3, 200064, Note_on_c, 1, 59, 51
3, 200064, Note_on_c, 1, 52, 51
3, 200208, Note_off_c, 1, 59, 100
3, 200256, Note_on_c, 1, 62, 51
3, 200400, Note_off_c, 1, 62, 100
3, 200444, Note_off_c, 1, 52, 0
3, 200448, Note_on_c, 1, 59, 51
3, 200448, Note_on_c, 1, 52, 51
3, 200592, Note_off_c, 1, 59, 100
3, 200640, Note_on_c, 1, 62, 51
3, 200784, Note_off_c, 1, 62, 100
3, 200828, Note_off_c, 1, 52, 0
3, 200832, Note_on_c, 1, 59, 51
3, 200832, Note_on_c, 1, 52, 51
3, 200976, Note_off_c, 1, 59, 100
3, 201024, Note_on_c, 1, 62, 51
3, 201168, Note_off_c, 1, 62, 100
3, 201212, Note_off_c, 1, 52, 0
3, 201216, Note_on_c, 1, 57, 72
3, 201308, Note_off_c, 1, 57, 100
3, 201312, Note_on_c, 1, 64, 72
3, 201404, Note_off_c, 1, 64, 100
3, 201408, Note_on_c, 1, 60, 72
3, 201500, Note_off_c, 1, 60, 100
3, 201504, Note_on_c, 1, 64, 72
3, 201596, Note_off_c, 1, 64, 100
3, 201600, Note_on_c, 1, 57, 72
3, 201692, Note_off_c, 1, 57, 100
3, 201696, Note_on_c, 1, 64, 72
3, 201788, Note_off_c, 1, 64, 100
3, 201792, Note_on_c, 1, 60, 72
3, 201884, Note_off_c, 1, 60, 100
3, 201888, Note_on_c, 1, 64, 72
3, 201980, Note_off_c, 1, 64, 100
3, 201984, Note_on_c, 1, 57, 72
3, 202076, Note_off_c, 1, 57, 100
3, 202080, Note_on_c, 1, 64, 72
3, 202172, Note_off_c, 1, 64, 100
3, 202176, Note_on_c, 1, 60, 72
3, 202268, Note_off_c, 1, 60, 100
3, 202272, Note_on_c, 1, 64, 72
3, 202364, Note_off_c, 1, 64, 100
3, 202368, Note_on_c, 1, 57, 72
3, 202460, Note_off_c, 1, 57, 100
3, 202464, Note_on_c, 1, 64, 72
3, 202556, Note_off_c, 1, 64, 100
3, 202560, Note_on_c, 1, 60, 72
3, 202652, Note_off_c, 1, 60, 100
3, 202656, Note_on_c, 1, 64, 72
3, 202748, Note_off_c, 1, 64, 100
3, 202752, Note_on_c, 1, 57, 72
3, 202844, Note_off_c, 1, 57, 100
3, 202848, Note_on_c, 1, 66, 72
3, 202940, Note_off_c, 1, 66, 100
3, 202944, Note_on_c, 1, 60, 72
3, 203036, Note_off_c, 1, 60, 100
3, 203040, Note_on_c, 1, 66, 72
3, 203132, Note_off_c, 1, 66, 100
3, 203136, Note_on_c, 1, 57, 72
3, 203228, Note_off_c, 1, 57, 100
3, 203232, Note_on_c, 1, 66, 72
3, 203324, Note_off_c, 1, 66, 100
3, 203328, Note_on_c, 1, 60, 72
3, 203420, Note_off_c, 1, 60, 100
3, 203424, Note_on_c, 1, 66, 72
3, 203516, Note_off_c, 1, 66, 100
3, 203520, Note_on_c, 1, 57, 72
3, 203612, Note_off_c, 1, 57, 100
3, 203616, Note_on_c, 1, 66, 72
3, 203708, Note_off_c, 1, 66, 100
3, 203712, Note_on_c, 1, 59, 72
3, 203804, Note_off_c, 1, 59, 100
3, 203808, Note_on_c, 1, 66, 72
3, 203900, Note_off_c, 1, 66, 100
3, 203904, Note_on_c, 1, 57, 72
3, 203996, Note_off_c, 1, 57, 100
3, 204000, Note_on_c, 1, 66, 72
3, 204092, Note_off_c, 1, 66, 100
3, 204096, Note_on_c, 1, 59, 72
3, 204188, Note_off_c, 1, 59, 100
3, 204192, Note_on_c, 1, 66, 72
3, 204284, Note_off_c, 1, 66, 100
3, 204288, Note_on_c, 1, 55, 72
3, 204380, Note_off_c, 1, 55, 100
3, 204384, Note_on_c, 1, 62, 72
3, 204476, Note_off_c, 1, 62, 100
3, 204480, Note_on_c, 1, 58, 72
3, 204572, Note_off_c, 1, 58, 100
3, 204576, Note_on_c, 1, 62, 72
3, 204668, Note_off_c, 1, 62, 100
3, 204672, Note_on_c, 1, 55, 72
3, 204764, Note_off_c, 1, 55, 100
3, 204768, Note_on_c, 1, 62, 72
3, 204860, Note_off_c, 1, 62, 100
3, 204864, Note_on_c, 1, 58, 72
3, 204956, Note_off_c, 1, 58, 100
3, 204960, Note_on_c, 1, 62, 72
3, 205052, Note_off_c, 1, 62, 100
3, 205056, Note_on_c, 1, 55, 72
3, 205148, Note_off_c, 1, 55, 100
3, 205152, Note_on_c, 1, 61, 72
3, 205244, Note_off_c, 1, 61, 100
3, 205248, Note_on_c, 1, 58, 72
3, 205340, Note_off_c, 1, 58, 100
3, 205344, Note_on_c, 1, 61, 72
3, 205436, Note_off_c, 1, 61, 100
3, 205440, Note_on_c, 1, 55, 72
3, 205532, Note_off_c, 1, 55, 100
3, 205536, Note_on_c, 1, 61, 72
3, 205628, Note_off_c, 1, 61, 100
3, 205632, Note_on_c, 1, 58, 72
3, 205724, Note_off_c, 1, 58, 100
3, 205728, Note_on_c, 1, 61, 72
3, 205820, Note_off_c, 1, 61, 100
3, 205824, Note_on_c, 1, 55, 72
3, 205916, Note_off_c, 1, 55, 100
3, 205920, Note_on_c, 1, 64, 72
3, 206012, Note_off_c, 1, 64, 100
3, 206016, Note_on_c, 1, 58, 72
3, 206108, Note_off_c, 1, 58, 100
3, 206112, Note_on_c, 1, 64, 72
3, 206204, Note_off_c, 1, 64, 100
3, 206208, Note_on_c, 1, 55, 72
3, 206300, Note_off_c, 1, 55, 100
3, 206304, Note_on_c, 1, 64, 72
3, 206396, Note_off_c, 1, 64, 100
3, 206400, Note_on_c, 1, 58, 72
3, 206492, Note_off_c, 1, 58, 100
3, 206496, Note_on_c, 1, 64, 72
3, 206588, Note_off_c, 1, 64, 100
3, 206592, Note_on_c, 1, 54, 72
3, 206684, Note_off_c, 1, 54, 100
3, 206688, Note_on_c, 1, 62, 72
3, 206780, Note_off_c, 1, 62, 100
3, 206784, Note_on_c, 1, 57, 72
3, 206876, Note_off_c, 1, 57, 100
3, 206880, Note_on_c, 1, 62, 72
3, 206972, Note_off_c, 1, 62, 100
3, 206976, Note_on_c, 1, 54, 72
3, 207068, Note_off_c, 1, 54, 100
3, 207072, Note_on_c, 1, 62, 72
3, 207164, Note_off_c, 1, 62, 100
3, 207168, Note_on_c, 1, 57, 72
3, 207260, Note_off_c, 1, 57, 100
3, 207264, Note_on_c, 1, 62, 72
3, 207356, Note_off_c, 1, 62, 100
3, 207360, Note_on_c, 1, 53, 72
3, 207452, Note_off_c, 1, 53, 100
3, 207456, Note_on_c, 1, 60, 72
3, 207548, Note_off_c, 1, 60, 100
3, 207552, Note_on_c, 1, 56, 72
3, 207644, Note_off_c, 1, 56, 100
3, 207648, Note_on_c, 1, 62, 72
3, 207740, Note_off_c, 1, 62, 100
3, 207744, Note_on_c, 1, 53, 72
3, 207836, Note_off_c, 1, 53, 100
3, 207840, Note_on_c, 1, 60, 72
3, 207932, Note_off_c, 1, 60, 100
3, 207936, Note_on_c, 1, 56, 72
3, 208028, Note_off_c, 1, 56, 100
3, 208032, Note_on_c, 1, 60, 72
3, 208124, Note_off_c, 1, 60, 100
3, 208128, Note_on_c, 1, 52, 72
3, 208220, Note_off_c, 1, 52, 100
3, 208224, Note_on_c, 1, 60, 72
3, 208316, Note_off_c, 1, 60, 100
3, 208320, Note_on_c, 1, 55, 72
3, 208412, Note_off_c, 1, 55, 100
3, 208416, Note_on_c, 1, 60, 72
3, 208508, Note_off_c, 1, 60, 100
3, 208512, Note_on_c, 1, 52, 72
3, 208604, Note_off_c, 1, 52, 100
3, 208608, Note_on_c, 1, 60, 72
3, 208700, Note_off_c, 1, 60, 100
3, 208704, Note_on_c, 1, 55, 72
3, 208796, Note_off_c, 1, 55, 100
3, 208800, Note_on_c, 1, 60, 72
3, 208892, Note_off_c, 1, 60, 100
3, 208896, Note_on_c, 1, 50, 72
3, 208988, Note_off_c, 1, 50, 100
3, 208992, Note_on_c, 1, 59, 72
3, 209084, Note_off_c, 1, 59, 100
3, 209088, Note_on_c, 1, 53, 72
3, 209180, Note_off_c, 1, 53, 100
3, 209184, Note_on_c, 1, 59, 72
3, 209276, Note_off_c, 1, 59, 100
3, 209280, Note_on_c, 1, 50, 72
3, 209372, Note_off_c, 1, 50, 100
3, 209376, Note_on_c, 1, 59, 72
3, 209468, Note_off_c, 1, 59, 100
3, 209472, Note_on_c, 1, 53, 72
3, 209564, Note_off_c, 1, 53, 100
3, 209568, Note_on_c, 1, 59, 72
3, 209660, Note_off_c, 1, 59, 100
3, 209664, Note_on_c, 1, 48, 72
3, 209756, Note_off_c, 1, 48, 100
3, 209760, Note_on_c, 1, 57, 72
3, 209852, Note_off_c, 1, 57, 100
3, 209856, Note_on_c, 1, 52, 72
3, 209948, Note_off_c, 1, 52, 100
3, 209952, Note_on_c, 1, 57, 72
3, 210044, Note_off_c, 1, 57, 100
3, 210048, Note_on_c, 1, 48, 72
3, 210140, Note_off_c, 1, 48, 100
3, 210144, Note_on_c, 1, 57, 72
3, 210236, Note_off_c, 1, 57, 100
3, 210240, Note_on_c, 1, 52, 72
3, 210332, Note_off_c, 1, 52, 100
3, 210336, Note_on_c, 1, 57, 72
3, 210428, Note_off_c, 1, 57, 100
3, 210432, Note_on_c, 1, 51, 72
3, 210432, Note_on_c, 1, 39, 72
3, 210812, Note_off_c, 1, 51, 100
3, 210812, Note_off_c, 1, 39, 100
3, 212160, Note_on_c, 1, 57, 72
3, 212304, Note_off_c, 1, 57, 100
3, 212352, Note_on_c, 1, 60, 72
3, 212496, Note_off_c, 1, 60, 100
3, 212544, Note_on_c, 1, 54, 72
3, 212688, Note_off_c, 1, 54, 100
3, 212736, Note_on_c, 1, 57, 72
3, 212880, Note_off_c, 1, 57, 100
3, 212928, Note_on_c, 1, 51, 72
3, 213072, Note_off_c, 1, 51, 100
3, 213120, Note_on_c, 1, 54, 72
3, 213264, Note_off_c, 1, 54, 100
3, 213312, Note_on_c, 1, 45, 72
3, 213456, Note_off_c, 1, 45, 100
3, 213504, Note_on_c, 1, 60, 72
3, 213504, Note_on_c, 1, 48, 72
3, 213648, Note_off_c, 1, 60, 100
3, 213648, Note_off_c, 1, 48, 100
3, 213696, Note_on_c, 1, 54, 72
3, 213696, Note_on_c, 1, 42, 72
3, 213840, Note_off_c, 1, 54, 100
3, 213840, Note_off_c, 1, 42, 100
3, 213888, Note_on_c, 1, 57, 72
3, 213888, Note_on_c, 1, 45, 72
3, 214032, Note_off_c, 1, 57, 100
3, 214032, Note_off_c, 1, 45, 100
3, 214080, Note_on_c, 1, 51, 72
3, 214080, Note_on_c, 1, 39, 72
3, 214224, Note_off_c, 1, 51, 100
3, 214224, Note_off_c, 1, 39, 100
3, 214272, Note_on_c, 1, 52, 72
3, 214272, Note_on_c, 1, 40, 72
3, 214652, Note_off_c, 1, 52, 100
3, 214652, Note_off_c, 1, 40, 100
3, 214656, Note_on_c, 1, 52, 72
3, 214656, Note_on_c, 1, 40, 72
3, 215036, Note_off_c, 1, 52, 100
3, 215036, Note_off_c, 1, 40, 100
3, 215040, Note_on_c, 1, 57, 51
3, 215040, Note_on_c, 1, 45, 51
3, 215420, Note_off_c, 1, 57, 100
3, 215420, Note_off_c, 1, 45, 100
3, 218496, Note_on_c, 1, 45, 72
3, 218496, Note_on_c, 1, 57, 72
3, 218876, Note_off_c, 1, 45, 100
3, 218876, Note_off_c, 1, 57, 100
3, 218880, Note_on_c, 1, 59, 72
3, 218880, Note_on_c, 1, 47, 72
3, 219260, Note_off_c, 1, 59, 100
3, 219260, Note_off_c, 1, 47, 100
3, 219264, Note_on_c, 1, 44, 72
3, 219264, Note_on_c, 1, 56, 72
3, 219644, Note_off_c, 1, 44, 100
3, 219644, Note_off_c, 1, 56, 100
3, 219648, Note_on_c, 1, 57, 72
3, 219648, Note_on_c, 1, 45, 72
3, 220028, Note_off_c, 1, 57, 100
3, 220028, Note_off_c, 1, 45, 100
3, 220032, Note_on_c, 1, 53, 72
3, 220032, Note_on_c, 1, 41, 72
3, 220412, Note_off_c, 1, 53, 100
3, 220412, Note_off_c, 1, 41, 100
3, 220416, Note_on_c, 1, 50, 72
3, 220416, Note_on_c, 1, 38, 72
3, 220796, Note_off_c, 1, 50, 100
3, 220796, Note_off_c, 1, 38, 100
3, 220800, Note_on_c, 1, 40, 72
3, 220800, Note_on_c, 1, 52, 72
3, 221180, Note_off_c, 1, 40, 100
3, 221180, Note_off_c, 1, 52, 100
3, 221328, Note_on_c, 1, 45, 72
3, 221328, Note_on_c, 1, 33, 72
3, 221952, Note_on_c, 1, 40, 72
3, 222092, Note_off_c, 1, 45, 100
3, 222092, Note_off_c, 1, 33, 100
3, 222716, Note_off_c, 1, 40, 100
3, 222720, Note_on_c, 1, 48, 72
3, 223292, Note_off_c, 1, 48, 100
3, 223296, Note_on_c, 1, 50, 72
3, 223388, Note_off_c, 1, 50, 100
3, 223392, Note_on_c, 1, 47, 72
3, 223484, Note_off_c, 1, 47, 100
3, 223488, Note_on_c, 1, 45, 72
3, 223868, Note_off_c, 1, 45, 100
3, 227472, Note_on_c, 1, 47, 72
3, 227472, Note_on_c, 1, 35, 72
3, 228076, Note_off_c, 1, 47, 100
3, 228076, Note_off_c, 1, 35, 100
3, 228096, Note_on_c, 1, 43, 72
3, 228096, Note_on_c, 1, 31, 72
3, 228860, Note_off_c, 1, 43, 100
3, 228860, Note_off_c, 1, 31, 100
3, 228864, Note_on_c, 1, 50, 72
3, 229436, Note_off_c, 1, 50, 100
3, 229440, Note_on_c, 1, 52, 72
3, 229532, Note_off_c, 1, 52, 100
3, 229536, Note_on_c, 1, 48, 72
3, 229628, Note_off_c, 1, 48, 100
3, 229632, Note_on_c, 1, 47, 72
3, 230012, Note_off_c, 1, 47, 100
3, 233616, Note_on_c, 1, 48, 51
3, 233616, Note_on_c, 1, 36, 51
3, 234144, Note_off_c, 1, 48, 100
3, 234144, Note_off_c, 1, 36, 100
3, 234240, Note_on_c, 1, 43, 51
3, 234240, Note_on_c, 1, 31, 51
3, 234768, Note_off_c, 1, 43, 100
3, 234768, Note_off_c, 1, 31, 100
3, 235008, Note_on_c, 1, 52, 51
3, 235580, Note_off_c, 1, 52, 100
3, 235584, Note_on_c, 1, 55, 51
3, 235676, Note_off_c, 1, 55, 100
3, 235680, Note_on_c, 1, 50, 51
3, 235772, Note_off_c, 1, 50, 100
3, 235776, Note_on_c, 1, 48, 51
3, 236156, Note_off_c, 1, 48, 100
3, 243072, Note_on_c, 1, 62, 51
3, 243072, Note_on_c, 1, 53, 51
3, 243072, Note_on_c, 1, 57, 51
3, 243452, Note_off_c, 1, 62, 100
3, 243452, Note_off_c, 1, 53, 100
3, 243452, Note_off_c, 1, 57, 100
3, 243456, Note_on_c, 1, 64, 51
3, 243456, Note_on_c, 1, 60, 51
3, 243456, Note_on_c, 1, 55, 51
3, 243836, Note_off_c, 1, 64, 100
3, 243836, Note_off_c, 1, 60, 100
3, 243836, Note_off_c, 1, 55, 100
3, 243840, Note_on_c, 1, 62, 51
3, 243840, Note_on_c, 1, 59, 51
3, 243840, Note_on_c, 1, 55, 51
3, 244220, Note_off_c, 1, 62, 100
3, 244220, Note_off_c, 1, 59, 100
3, 244220, Note_off_c, 1, 55, 100
3, 244368, Note_on_c, 1, 48, 72
3, 244368, Note_on_c, 1, 36, 72
3, 244972, Note_off_c, 1, 48, 100
3, 244972, Note_off_c, 1, 36, 100
3, 244992, Note_on_c, 1, 43, 72
3, 244992, Note_on_c, 1, 31, 72
3, 245756, Note_off_c, 1, 43, 100
3, 245756, Note_off_c, 1, 31, 100
3, 245760, Note_on_c, 1, 51, 72
3, 246332, Note_off_c, 1, 51, 100
3, 246336, Note_on_c, 1, 53, 72
3, 246428, Note_off_c, 1, 53, 100
3, 246432, Note_on_c, 1, 50, 72
3, 246524, Note_off_c, 1, 50, 100
3, 246528, Note_on_c, 1, 48, 72
3, 246908, Note_off_c, 1, 48, 100
3, 258048, Note_on_c, 1, 57, 72
3, 258192, Note_off_c, 1, 57, 100
3, 258240, Note_on_c, 1, 60, 72
3, 258384, Note_off_c, 1, 60, 100
3, 258432, Note_on_c, 1, 57, 72
3, 258576, Note_off_c, 1, 57, 100
3, 258624, Note_on_c, 1, 60, 72
3, 258768, Note_off_c, 1, 60, 100
3, 258816, Note_on_c, 1, 53, 51
3, 258960, Note_off_c, 1, 53, 100
3, 259008, Note_on_c, 1, 60, 51
3, 259152, Note_off_c, 1, 60, 100
3, 259200, Note_on_c, 1, 53, 51
3, 259344, Note_off_c, 1, 53, 100
3, 259392, Note_on_c, 1, 60, 51
3, 259536, Note_off_c, 1, 60, 100
3, 259584, Note_on_c, 1, 52, 72
3, 259728, Note_off_c, 1, 52, 100
3, 259776, Note_on_c, 1, 60, 72
3, 259920, Note_off_c, 1, 60, 100
3, 259968, Note_on_c, 1, 52, 72
3, 260112, Note_off_c, 1, 52, 100
3, 260160, Note_on_c, 1, 60, 72
3, 260304, Note_off_c, 1, 60, 100
3, 260352, Note_on_c, 1, 48, 51
3, 260496, Note_off_c, 1, 48, 100
3, 260544, Note_on_c, 1, 60, 51
3, 260688, Note_off_c, 1, 60, 100
3, 260736, Note_on_c, 1, 48, 51
3, 260880, Note_off_c, 1, 48, 100
3, 260928, Note_on_c, 1, 60, 51
3, 261072, Note_off_c, 1, 60, 100
3, 261120, Note_on_c, 1, 53, 51
3, 261264, Note_off_c, 1, 53, 100
3, 261312, Note_on_c, 1, 57, 51
3, 261456, Note_off_c, 1, 57, 100
3, 261504, Note_on_c, 1, 53, 51
3, 261648, Note_off_c, 1, 53, 100
3, 261696, Note_on_c, 1, 62, 51
3, 261840, Note_off_c, 1, 62, 100
3, 261888, Note_on_c, 1, 55, 51
3, 262032, Note_off_c, 1, 55, 100
3, 262080, Note_on_c, 1, 64, 51
3, 262224, Note_off_c, 1, 64, 100
3, 262272, Note_on_c, 1, 55, 51
3, 262416, Note_off_c, 1, 55, 100
3, 262464, Note_on_c, 1, 62, 51
3, 262608, Note_off_c, 1, 62, 100
3, 262656, Note_on_c, 1, 57, 72
3, 262800, Note_off_c, 1, 57, 100
3, 262848, Note_on_c, 1, 60, 72
3, 262992, Note_off_c, 1, 60, 100
3, 263040, Note_on_c, 1, 57, 72
3, 263184, Note_off_c, 1, 57, 100
3, 263232, Note_on_c, 1, 60, 72
3, 263376, Note_off_c, 1, 60, 100
3, 263424, Note_on_c, 1, 53, 51
3, 263568, Note_off_c, 1, 53, 100
3, 263616, Note_on_c, 1, 60, 51
3, 263760, Note_off_c, 1, 60, 100
3, 263808, Note_on_c, 1, 53, 51
3, 263952, Note_off_c, 1, 53, 100
3, 264000, Note_on_c, 1, 60, 51
3, 264144, Note_off_c, 1, 60, 100
3, 264192, Note_on_c, 1, 52, 72
3, 264336, Note_off_c, 1, 52, 100
3, 264384, Note_on_c, 1, 60, 72
3, 264528, Note_off_c, 1, 60, 100
3, 264576, Note_on_c, 1, 52, 72
3, 264720, Note_off_c, 1, 52, 100
3, 264768, Note_on_c, 1, 62, 72
3, 264912, Note_off_c, 1, 62, 100
3, 264960, Note_on_c, 1, 48, 51
3, 265104, Note_off_c, 1, 48, 100
3, 265152, Note_on_c, 1, 60, 51
3, 265296, Note_off_c, 1, 60, 100
3, 265344, Note_on_c, 1, 48, 51
3, 265488, Note_off_c, 1, 48, 100
3, 265536, Note_on_c, 1, 60, 51
3, 265680, Note_off_c, 1, 60, 100
3, 265728, Note_on_c, 1, 53, 51
3, 265872, Note_off_c, 1, 53, 100
3, 265920, Note_on_c, 1, 60, 51
3, 266064, Note_off_c, 1, 60, 100
3, 266112, Note_on_c, 1, 53, 51
3, 266256, Note_off_c, 1, 53, 100
3, 266304, Note_on_c, 1, 60, 51
3, 266448, Note_off_c, 1, 60, 100
3, 266496, Note_on_c, 1, 55, 51
3, 266640, Note_off_c, 1, 55, 100
3, 266688, Note_on_c, 1, 60, 51
3, 266832, Note_off_c, 1, 60, 100
3, 266880, Note_on_c, 1, 55, 51
3, 267024, Note_off_c, 1, 55, 100
3, 267072, Note_on_c, 1, 60, 51
3, 267216, Note_off_c, 1, 60, 100
3, 267264, Note_on_c, 1, 64, 51
3, 267264, Note_on_c, 1, 60, 51
3, 267408, Note_off_c, 1, 64, 100
3, 267408, Note_off_c, 1, 60, 100
3, 267456, Note_on_c, 1, 64, 51
3, 267456, Note_on_c, 1, 60, 51
3, 267600, Note_off_c, 1, 64, 100
3, 267600, Note_off_c, 1, 60, 100
3, 267648, Note_on_c, 1, 60, 51
3, 267648, Note_on_c, 1, 64, 51
3, 267792, Note_off_c, 1, 60, 100
3, 267792, Note_off_c, 1, 64, 100
3, 267840, Note_on_c, 1, 64, 51
3, 267840, Note_on_c, 1, 60, 51
3, 267984, Note_off_c, 1, 64, 100
3, 267984, Note_off_c, 1, 60, 100
3, 268032, Note_on_c, 1, 64, 51
3, 268032, Note_on_c, 1, 60, 51
3, 268176, Note_off_c, 1, 64, 100
3, 268176, Note_off_c, 1, 60, 100
3, 268224, Note_on_c, 1, 64, 51
3, 268224, Note_on_c, 1, 60, 51
3, 268368, Note_off_c, 1, 64, 100
3, 268368, Note_off_c, 1, 60, 100
3, 268416, Note_on_c, 1, 64, 51
3, 268416, Note_on_c, 1, 60, 51
3, 268560, Note_off_c, 1, 64, 100
3, 268560, Note_off_c, 1, 60, 100
3, 268608, Note_on_c, 1, 60, 51
3, 268608, Note_on_c, 1, 64, 51
3, 268752, Note_off_c, 1, 60, 100
3, 268752, Note_off_c, 1, 64, 100
3, 268800, Note_on_c, 1, 60, 51
3, 268800, Note_on_c, 1, 64, 51
3, 268944, Note_off_c, 1, 60, 100
3, 268944, Note_off_c, 1, 64, 100
3, 268992, Note_on_c, 1, 64, 51
3, 268992, Note_on_c, 1, 60, 51
3, 269136, Note_off_c, 1, 64, 100
3, 269136, Note_off_c, 1, 60, 100
3, 269184, Note_on_c, 1, 64, 51
3, 269184, Note_on_c, 1, 60, 51
3, 269328, Note_off_c, 1, 64, 100
3, 269328, Note_off_c, 1, 60, 100
3, 269376, Note_on_c, 1, 64, 51
3, 269376, Note_on_c, 1, 60, 51
3, 269520, Note_off_c, 1, 64, 100
3, 269520, Note_off_c, 1, 60, 100
3, 269568, Note_on_c, 1, 64, 51
3, 269568, Note_on_c, 1, 60, 51
3, 269712, Note_off_c, 1, 64, 100
3, 269712, Note_off_c, 1, 60, 100
3, 269760, Note_on_c, 1, 64, 51
3, 269760, Note_on_c, 1, 60, 51
3, 269904, Note_off_c, 1, 64, 100
3, 269904, Note_off_c, 1, 60, 100
3, 269952, Note_on_c, 1, 60, 51
3, 269952, Note_on_c, 1, 64, 51
3, 270096, Note_off_c, 1, 60, 100
3, 270096, Note_off_c, 1, 64, 100
3, 270144, Note_on_c, 1, 64, 51
3, 270144, Note_on_c, 1, 60, 51
3, 270288, Note_off_c, 1, 64, 100
3, 270288, Note_off_c, 1, 60, 100
3, 270336, Note_on_c, 1, 59, 51
3, 270336, Note_on_c, 1, 62, 51
3, 270480, Note_off_c, 1, 59, 100
3, 270480, Note_off_c, 1, 62, 100
3, 270528, Note_on_c, 1, 59, 51
3, 270528, Note_on_c, 1, 62, 51
3, 270672, Note_off_c, 1, 59, 100
3, 270672, Note_off_c, 1, 62, 100
3, 270720, Note_on_c, 1, 59, 51
3, 270720, Note_on_c, 1, 62, 51
3, 270864, Note_off_c, 1, 59, 100
3, 270864, Note_off_c, 1, 62, 100
3, 270912, Note_on_c, 1, 59, 51
3, 270912, Note_on_c, 1, 62, 51
3, 271056, Note_off_c, 1, 59, 100
3, 271056, Note_off_c, 1, 62, 100
3, 271104, Note_on_c, 1, 59, 51
3, 271104, Note_on_c, 1, 62, 51
3, 271248, Note_off_c, 1, 59, 100
3, 271248, Note_off_c, 1, 62, 100
3, 271296, Note_on_c, 1, 59, 51
3, 271296, Note_on_c, 1, 62, 51
3, 271440, Note_off_c, 1, 59, 100
3, 271440, Note_off_c, 1, 62, 100
3, 271488, Note_on_c, 1, 59, 51
3, 271488, Note_on_c, 1, 62, 51
3, 271632, Note_off_c, 1, 59, 100
3, 271632, Note_off_c, 1, 62, 100
3, 271680, Note_on_c, 1, 59, 51
3, 271680, Note_on_c, 1, 62, 51
3, 271824, Note_off_c, 1, 59, 100
3, 271824, Note_off_c, 1, 62, 100
3, 271872, Note_on_c, 1, 59, 51
3, 271872, Note_on_c, 1, 62, 51
3, 272016, Note_off_c, 1, 59, 100
3, 272016, Note_off_c, 1, 62, 100
3, 272064, Note_on_c, 1, 59, 51
3, 272064, Note_on_c, 1, 62, 51
3, 272208, Note_off_c, 1, 59, 100
3, 272208, Note_off_c, 1, 62, 100
3, 272256, Note_on_c, 1, 59, 51
3, 272256, Note_on_c, 1, 62, 51
3, 272400, Note_off_c, 1, 59, 100
3, 272400, Note_off_c, 1, 62, 100
3, 272448, Note_on_c, 1, 59, 51
3, 272448, Note_on_c, 1, 62, 51
3, 272592, Note_off_c, 1, 59, 100
3, 272592, Note_off_c, 1, 62, 100
3, 272640, Note_on_c, 1, 59, 51
3, 272640, Note_on_c, 1, 62, 51
3, 272784, Note_off_c, 1, 59, 100
3, 272784, Note_off_c, 1, 62, 100
3, 272832, Note_on_c, 1, 59, 51
3, 272832, Note_on_c, 1, 62, 51
3, 272976, Note_off_c, 1, 59, 100
3, 272976, Note_off_c, 1, 62, 100
3, 273024, Note_on_c, 1, 59, 51
3, 273024, Note_on_c, 1, 62, 51
3, 273168, Note_off_c, 1, 59, 100
3, 273168, Note_off_c, 1, 62, 100
3, 273216, Note_on_c, 1, 59, 51
3, 273216, Note_on_c, 1, 62, 51
3, 273360, Note_off_c, 1, 59, 100
3, 273360, Note_off_c, 1, 62, 100
3, 273408, Note_on_c, 1, 54, 51
3, 273408, Note_on_c, 1, 57, 51
3, 273408, Note_on_c, 1, 62, 51
3, 273552, Note_off_c, 1, 54, 100
3, 273552, Note_off_c, 1, 57, 100
3, 273552, Note_off_c, 1, 62, 100
3, 273600, Note_on_c, 1, 54, 51
3, 273600, Note_on_c, 1, 57, 51
3, 273600, Note_on_c, 1, 62, 51
3, 273744, Note_off_c, 1, 54, 100
3, 273744, Note_off_c, 1, 57, 100
3, 273744, Note_off_c, 1, 62, 100
3, 273792, Note_on_c, 1, 54, 51
3, 273792, Note_on_c, 1, 57, 51
3, 273792, Note_on_c, 1, 62, 51
3, 273936, Note_off_c, 1, 54, 100
3, 273936, Note_off_c, 1, 57, 100
3, 273936, Note_off_c, 1, 62, 100
3, 273984, Note_on_c, 1, 54, 51
3, 273984, Note_on_c, 1, 57, 51
3, 273984, Note_on_c, 1, 62, 51
3, 274128, Note_off_c, 1, 54, 100
3, 274128, Note_off_c, 1, 57, 100
3, 274128, Note_off_c, 1, 62, 100
3, 274176, Note_on_c, 1, 54, 51
3, 274176, Note_on_c, 1, 57, 51
3, 274176, Note_on_c, 1, 62, 51
3, 274320, Note_off_c, 1, 54, 100
3, 274320, Note_off_c, 1, 57, 100
3, 274320, Note_off_c, 1, 62, 100
3, 274368, Note_on_c, 1, 54, 51
3, 274368, Note_on_c, 1, 57, 51
3, 274368, Note_on_c, 1, 62, 51
3, 274512, Note_off_c, 1, 54, 100
3, 274512, Note_off_c, 1, 57, 100
3, 274512, Note_off_c, 1, 62, 100
3, 274560, Note_on_c, 1, 54, 51
3, 274560, Note_on_c, 1, 57, 51
3, 274560, Note_on_c, 1, 62, 51
3, 274704, Note_off_c, 1, 54, 100
3, 274704, Note_off_c, 1, 57, 100
3, 274704, Note_off_c, 1, 62, 100
3, 274752, Note_on_c, 1, 54, 51
3, 274752, Note_on_c, 1, 57, 51
3, 274752, Note_on_c, 1, 62, 51
3, 274896, Note_off_c, 1, 54, 100
3, 274896, Note_off_c, 1, 57, 100
3, 274896, Note_off_c, 1, 62, 100
3, 274944, Note_on_c, 1, 54, 51
3, 274944, Note_on_c, 1, 57, 51
3, 274944, Note_on_c, 1, 62, 51
3, 275088, Note_off_c, 1, 54, 100
3, 275088, Note_off_c, 1, 57, 100
3, 275088, Note_off_c, 1, 62, 100
3, 275136, Note_on_c, 1, 54, 51
3, 275136, Note_on_c, 1, 57, 51
3, 275136, Note_on_c, 1, 62, 51
3, 275280, Note_off_c, 1, 54, 100
3, 275280, Note_off_c, 1, 57, 100
3, 275280, Note_off_c, 1, 62, 100
3, 275328, Note_on_c, 1, 54, 51
3, 275328, Note_on_c, 1, 57, 51
3, 275328, Note_on_c, 1, 62, 51
3, 275472, Note_off_c, 1, 54, 100
3, 275472, Note_off_c, 1, 57, 100
3, 275472, Note_off_c, 1, 62, 100
3, 275520, Note_on_c, 1, 54, 51
3, 275520, Note_on_c, 1, 57, 51
3, 275520, Note_on_c, 1, 62, 51
3, 275664, Note_off_c, 1, 54, 100
3, 275664, Note_off_c, 1, 57, 100
3, 275664, Note_off_c, 1, 62, 100
3, 275712, Note_on_c, 1, 54, 51
3, 275712, Note_on_c, 1, 57, 51
3, 275712, Note_on_c, 1, 62, 51
3, 275856, Note_off_c, 1, 54, 100
3, 275856, Note_off_c, 1, 57, 100
3, 275856, Note_off_c, 1, 62, 100
3, 275904, Note_on_c, 1, 54, 51
3, 275904, Note_on_c, 1, 57, 51
3, 275904, Note_on_c, 1, 62, 51
3, 276048, Note_off_c, 1, 54, 100
3, 276048, Note_off_c, 1, 57, 100
3, 276048, Note_off_c, 1, 62, 100
3, 276096, Note_on_c, 1, 54, 51
3, 276096, Note_on_c, 1, 57, 51
3, 276096, Note_on_c, 1, 62, 51
3, 276240, Note_off_c, 1, 54, 100
3, 276240, Note_off_c, 1, 57, 100
3, 276240, Note_off_c, 1, 62, 100
3, 276288, Note_on_c, 1, 57, 51
3, 276288, Note_on_c, 1, 62, 51
3, 276288, Note_on_c, 1, 54, 51
3, 276432, Note_off_c, 1, 57, 100
3, 276432, Note_off_c, 1, 62, 100
3, 276432, Note_off_c, 1, 54, 100
3, 276480, Note_on_c, 1, 62, 72
3, 276480, Note_on_c, 1, 55, 72
3, 277008, Note_off_c, 1, 62, 100
3, 277008, Note_off_c, 1, 55, 100
3, 277248, Note_on_c, 1, 59, 72
3, 277248, Note_on_c, 1, 55, 72
3, 277776, Note_off_c, 1, 59, 100
3, 277776, Note_off_c, 1, 55, 100
3, 278016, Note_on_c, 1, 60, 72
3, 278016, Note_on_c, 1, 55, 72
3, 278544, Note_off_c, 1, 60, 100
3, 278544, Note_off_c, 1, 55, 100
3, 278784, Note_on_c, 1, 55, 72
3, 278784, Note_on_c, 1, 64, 72
3, 279312, Note_off_c, 1, 55, 100
3, 279312, Note_off_c, 1, 64, 100
3, 279552, Note_on_c, 1, 67, 72
3, 279552, Note_on_c, 1, 55, 72
3, 279932, Note_off_c, 1, 67, 100
3, 279932, Note_off_c, 1, 55, 100
3, 280128, Note_on_c, 1, 54, 72
3, 280272, Note_off_c, 1, 54, 100
3, 280320, Note_on_c, 1, 55, 72
3, 280412, Note_off_c, 1, 55, 100
3, 280416, Note_on_c, 1, 54, 72
3, 280508, Note_off_c, 1, 54, 100
3, 280512, Note_on_c, 1, 57, 72
3, 280604, Note_off_c, 1, 57, 100
3, 280608, Note_on_c, 1, 55, 72
3, 280700, Note_off_c, 1, 55, 100
3, 280704, Note_on_c, 1, 59, 72
3, 280848, Note_off_c, 1, 59, 100
3, 280896, Note_on_c, 1, 50, 72
3, 281040, Note_off_c, 1, 50, 100
3, 281088, Note_on_c, 1, 52, 72
3, 281372, Note_off_c, 1, 52, 100
3, 281376, Note_on_c, 1, 50, 72
3, 281468, Note_off_c, 1, 50, 100
3, 281472, Note_on_c, 1, 48, 72
3, 281756, Note_off_c, 1, 48, 100
3, 281760, Note_on_c, 1, 47, 72
3, 281852, Note_off_c, 1, 47, 100
3, 281856, Note_on_c, 1, 48, 72
3, 282140, Note_off_c, 1, 48, 100
3, 282144, Note_on_c, 1, 45, 72
3, 282144, Note_on_c, 1, 57, 72
3, 282236, Note_off_c, 1, 45, 100
3, 282236, Note_off_c, 1, 57, 100
3, 282240, Note_on_c, 1, 43, 72
3, 282240, Note_on_c, 1, 55, 72
3, 282524, Note_off_c, 1, 43, 100
3, 282524, Note_off_c, 1, 55, 100
3, 282528, Note_on_c, 1, 53, 72
3, 282528, Note_on_c, 1, 41, 72
3, 282620, Note_off_c, 1, 53, 100
3, 282620, Note_off_c, 1, 41, 100
3, 282624, Note_on_c, 1, 43, 72
3, 282624, Note_on_c, 1, 55, 72
3, 282768, Note_off_c, 1, 43, 100
3, 282768, Note_off_c, 1, 55, 100
3, 282816, Note_on_c, 1, 47, 72
3, 282816, Note_on_c, 1, 59, 72
3, 282908, Note_off_c, 1, 47, 100
3, 282908, Note_off_c, 1, 59, 100
3, 282912, Note_on_c, 1, 50, 72
3, 283004, Note_off_c, 1, 50, 100
3, 283008, Note_on_c, 1, 55, 72
3, 283152, Note_off_c, 1, 55, 100
3, 283200, Note_on_c, 1, 55, 72
3, 283344, Note_off_c, 1, 55, 100
3, 283392, Note_on_c, 1, 55, 72
3, 283772, Note_off_c, 1, 55, 100
3, 293376, Note_on_c, 1, 48, 51
3, 293520, Note_off_c, 1, 48, 100
3, 293568, Note_on_c, 1, 55, 51
3, 293712, Note_off_c, 1, 55, 100
3, 293760, Note_on_c, 1, 48, 51
3, 293904, Note_off_c, 1, 48, 100
3, 293952, Note_on_c, 1, 55, 51
3, 294096, Note_off_c, 1, 55, 100
3, 294144, Note_on_c, 1, 52, 51
3, 294288, Note_off_c, 1, 52, 100
3, 294336, Note_on_c, 1, 55, 51
3, 294480, Note_off_c, 1, 55, 100
3, 294528, Note_on_c, 1, 52, 51
3, 294672, Note_off_c, 1, 52, 100
3, 294720, Note_on_c, 1, 55, 51
3, 294864, Note_off_c, 1, 55, 100
3, 294912, Note_on_c, 1, 53, 51
3, 295056, Note_off_c, 1, 53, 100
3, 295104, Note_on_c, 1, 55, 51
3, 295248, Note_off_c, 1, 55, 100
3, 295296, Note_on_c, 1, 53, 51
3, 295440, Note_off_c, 1, 53, 100
3, 295488, Note_on_c, 1, 55, 51
3, 295632, Note_off_c, 1, 55, 100
3, 295680, Note_on_c, 1, 50, 51
3, 295824, Note_off_c, 1, 50, 100
3, 295872, Note_on_c, 1, 55, 51
3, 296016, Note_off_c, 1, 55, 100
3, 296064, Note_on_c, 1, 50, 51
3, 296208, Note_off_c, 1, 50, 100
3, 296256, Note_on_c, 1, 55, 51
3, 296400, Note_off_c, 1, 55, 100
3, 296448, Note_on_c, 1, 52, 51
3, 296592, Note_off_c, 1, 52, 100
3, 296640, Note_on_c, 1, 55, 51
3, 296784, Note_off_c, 1, 55, 100
3, 296832, Note_on_c, 1, 48, 51
3, 296976, Note_off_c, 1, 48, 100
3, 297024, Note_on_c, 1, 55, 51
3, 297168, Note_off_c, 1, 55, 100
3, 297216, Note_on_c, 1, 50, 51
3, 297360, Note_off_c, 1, 50, 100
3, 297408, Note_on_c, 1, 55, 51
3, 297552, Note_off_c, 1, 55, 100
3, 297600, Note_on_c, 1, 47, 51
3, 297744, Note_off_c, 1, 47, 100
3, 297792, Note_on_c, 1, 55, 51
3, 297936, Note_off_c, 1, 55, 100
3, 297984, Note_on_c, 1, 48, 51
3, 298128, Note_off_c, 1, 48, 100
3, 298176, Note_on_c, 1, 55, 51
3, 298320, Note_off_c, 1, 55, 100
3, 298368, Note_on_c, 1, 45, 51
3, 298512, Note_off_c, 1, 45, 100
3, 298560, Note_on_c, 1, 54, 51
3, 298704, Note_off_c, 1, 54, 100
3, 298752, Note_on_c, 1, 43, 51
3, 298896, Note_off_c, 1, 43, 100
3, 298944, Note_on_c, 1, 55, 51
3, 299088, Note_off_c, 1, 55, 100
3, 299136, Note_on_c, 1, 41, 51
3, 299280, Note_off_c, 1, 41, 100
3, 299328, Note_on_c, 1, 53, 51
3, 299472, Note_off_c, 1, 53, 100
3, 299520, Note_on_c, 1, 40, 51
3, 299612, Note_off_c, 1, 40, 100
3, 299616, Note_on_c, 1, 48, 51
3, 299708, Note_off_c, 1, 48, 100
3, 299712, Note_on_c, 1, 47, 51
3, 299804, Note_off_c, 1, 47, 100
3, 299808, Note_on_c, 1, 48, 51
3, 299900, Note_off_c, 1, 48, 100
3, 299904, Note_on_c, 1, 50, 51
3, 299996, Note_off_c, 1, 50, 100
3, 300000, Note_on_c, 1, 48, 51
3, 300092, Note_off_c, 1, 48, 100
3, 300096, Note_on_c, 1, 47, 51
3, 300188, Note_off_c, 1, 47, 100
3, 300192, Note_on_c, 1, 48, 51
3, 300284, Note_off_c, 1, 48, 100
3, 300288, Note_on_c, 1, 40, 51
3, 300528, Note_off_c, 1, 40, 100
3, 301056, Note_on_c, 1, 41, 51
3, 301148, Note_off_c, 1, 41, 100
3, 301152, Note_on_c, 1, 48, 51
3, 301244, Note_off_c, 1, 48, 100
3, 301248, Note_on_c, 1, 47, 51
3, 301340, Note_off_c, 1, 47, 100
3, 301344, Note_on_c, 1, 48, 51
3, 301436, Note_off_c, 1, 48, 100
3, 301440, Note_on_c, 1, 50, 51
3, 301532, Note_off_c, 1, 50, 100
3, 301536, Note_on_c, 1, 48, 51
3, 301628, Note_off_c, 1, 48, 100
3, 301632, Note_on_c, 1, 47, 51
3, 301724, Note_off_c, 1, 47, 100
3, 301728, Note_on_c, 1, 48, 51
3, 301820, Note_off_c, 1, 48, 100
3, 301824, Note_on_c, 1, 41, 51
3, 302204, Note_off_c, 1, 41, 100
3, 302592, Note_on_c, 1, 43, 51
3, 302736, Note_off_c, 1, 43, 100
3, 302784, Note_on_c, 1, 48, 51
3, 302928, Note_off_c, 1, 48, 100
3, 302976, Note_on_c, 1, 52, 51
3, 303120, Note_off_c, 1, 52, 100
3, 303168, Note_on_c, 1, 48, 51
3, 303312, Note_off_c, 1, 48, 100
3, 303360, Note_on_c, 1, 43, 51
3, 303504, Note_off_c, 1, 43, 100
3, 303552, Note_on_c, 1, 50, 51
3, 303696, Note_off_c, 1, 50, 100
3, 303744, Note_on_c, 1, 53, 51
3, 303888, Note_off_c, 1, 53, 100
3, 303936, Note_on_c, 1, 50, 51
3, 304080, Note_off_c, 1, 50, 100
3, 304128, Note_on_c, 1, 52, 51
3, 304220, Note_off_c, 1, 52, 100
3, 304224, Note_on_c, 1, 60, 51
3, 304316, Note_off_c, 1, 60, 100
3, 304320, Note_on_c, 1, 59, 51
3, 304412, Note_off_c, 1, 59, 100
3, 304416, Note_on_c, 1, 60, 51
3, 304508, Note_off_c, 1, 60, 100
3, 304512, Note_on_c, 1, 62, 51
3, 304604, Note_off_c, 1, 62, 100
3, 304608, Note_on_c, 1, 60, 51
3, 304700, Note_off_c, 1, 60, 100
3, 304704, Note_on_c, 1, 59, 51
3, 304796, Note_off_c, 1, 59, 100
3, 304800, Note_on_c, 1, 60, 51
3, 304892, Note_off_c, 1, 60, 100
3, 304896, Note_on_c, 1, 52, 51
3, 305276, Note_off_c, 1, 52, 100
3, 305664, Note_on_c, 1, 57, 51
3, 305756, Note_off_c, 1, 57, 100
3, 305760, Note_on_c, 1, 65, 51
3, 305852, Note_off_c, 1, 65, 100
3, 305856, Note_on_c, 1, 64, 51
3, 305948, Note_off_c, 1, 64, 100
3, 305952, Note_on_c, 1, 65, 51
3, 306044, Note_off_c, 1, 65, 100
3, 306048, Note_on_c, 1, 67, 51
3, 306140, Note_off_c, 1, 67, 100
3, 306144, Note_on_c, 1, 65, 51
3, 306236, Note_off_c, 1, 65, 100
3, 306240, Note_on_c, 1, 64, 51
3, 306332, Note_off_c, 1, 64, 100
3, 306336, Note_on_c, 1, 65, 51
3, 306428, Note_off_c, 1, 65, 100
3, 306432, Note_on_c, 1, 57, 51
3, 306812, Note_off_c, 1, 57, 100
3, 307200, Note_on_c, 1, 55, 51
3, 307344, Note_off_c, 1, 55, 100
3, 307392, Note_on_c, 1, 60, 51
3, 307536, Note_off_c, 1, 60, 100
3, 307584, Note_on_c, 1, 57, 51
3, 307728, Note_off_c, 1, 57, 100
3, 307776, Note_on_c, 1, 60, 51
3, 307920, Note_off_c, 1, 60, 100
3, 307968, Note_on_c, 1, 55, 51
3, 308112, Note_off_c, 1, 55, 100
3, 308160, Note_on_c, 1, 60, 51
3, 308304, Note_off_c, 1, 60, 100
3, 308352, Note_on_c, 1, 53, 51
3, 308496, Note_off_c, 1, 53, 100
3, 308544, Note_on_c, 1, 60, 51
3, 308688, Note_off_c, 1, 60, 100
3, 308736, Note_on_c, 1, 52, 51
3, 308880, Note_off_c, 1, 52, 100
3, 308928, Note_on_c, 1, 60, 51
3, 309072, Note_off_c, 1, 60, 100
3, 309120, Note_on_c, 1, 57, 51
3, 309264, Note_off_c, 1, 57, 100
3, 309312, Note_on_c, 1, 60, 51
3, 309456, Note_off_c, 1, 60, 100
3, 309504, Note_on_c, 1, 55, 51
3, 309648, Note_off_c, 1, 55, 100
3, 309696, Note_on_c, 1, 60, 51
3, 309840, Note_off_c, 1, 60, 100
3, 309888, Note_on_c, 1, 53, 51
3, 310032, Note_off_c, 1, 53, 100
3, 310080, Note_on_c, 1, 60, 51
3, 310224, Note_off_c, 1, 60, 100
3, 310272, Note_on_c, 1, 52, 66
3, 310272, Note_on_c, 1, 55, 66
3, 310272, Note_on_c, 1, 61, 66
3, 310416, Note_off_c, 1, 52, 100
3, 310416, Note_off_c, 1, 55, 100
3, 310416, Note_off_c, 1, 61, 100
3, 310464, Note_on_c, 1, 52, 66
3, 310464, Note_on_c, 1, 55, 66
3, 310464, Note_on_c, 1, 61, 66
3, 310608, Note_off_c, 1, 52, 100
3, 310608, Note_off_c, 1, 55, 100
3, 310608, Note_off_c, 1, 61, 100
3, 310656, Note_on_c, 1, 55, 66
3, 310656, Note_on_c, 1, 52, 66
3, 310656, Note_on_c, 1, 61, 66
3, 310800, Note_off_c, 1, 55, 100
3, 310800, Note_off_c, 1, 52, 100
3, 310800, Note_off_c, 1, 61, 100
3, 310848, Note_on_c, 1, 52, 66
3, 310848, Note_on_c, 1, 55, 66
3, 310848, Note_on_c, 1, 61, 66
3, 310992, Note_off_c, 1, 52, 100
3, 310992, Note_off_c, 1, 55, 100
3, 310992, Note_off_c, 1, 61, 100
3, 311040, Note_on_c, 1, 52, 66
3, 311040, Note_on_c, 1, 55, 66
3, 311040, Note_on_c, 1, 61, 66
3, 311184, Note_off_c, 1, 52, 100
3, 311184, Note_off_c, 1, 55, 100
3, 311184, Note_off_c, 1, 61, 100
3, 311232, Note_on_c, 1, 61, 66
3, 311232, Note_on_c, 1, 55, 66
3, 311232, Note_on_c, 1, 52, 66
3, 311376, Note_off_c, 1, 61, 100
3, 311376, Note_off_c, 1, 55, 100
3, 311376, Note_off_c, 1, 52, 100
3, 311424, Note_on_c, 1, 55, 66
3, 311424, Note_on_c, 1, 61, 66
3, 311424, Note_on_c, 1, 52, 66
3, 311568, Note_off_c, 1, 55, 100
3, 311568, Note_off_c, 1, 61, 100
3, 311568, Note_off_c, 1, 52, 100
3, 311616, Note_on_c, 1, 52, 66
3, 311616, Note_on_c, 1, 55, 66
3, 311616, Note_on_c, 1, 61, 66
3, 311760, Note_off_c, 1, 52, 100
3, 311760, Note_off_c, 1, 55, 100
3, 311760, Note_off_c, 1, 61, 100
3, 311808, Note_on_c, 1, 62, 65
3, 311808, Note_on_c, 1, 57, 65
3, 311808, Note_on_c, 1, 53, 65
3, 312188, Note_off_c, 1, 62, 100
3, 312188, Note_off_c, 1, 57, 100
3, 312188, Note_off_c, 1, 53, 100
3, 313344, Note_on_c, 1, 55, 61
3, 313436, Note_off_c, 1, 55, 100
3, 313440, Note_on_c, 1, 64, 61
3, 313532, Note_off_c, 1, 64, 100
3, 313536, Note_on_c, 1, 60, 61
3, 313628, Note_off_c, 1, 60, 100
3, 313632, Note_on_c, 1, 64, 61
3, 313724, Note_off_c, 1, 64, 100
3, 313728, Note_on_c, 1, 55, 61
3, 313820, Note_off_c, 1, 55, 100
3, 313824, Note_on_c, 1, 64, 61
3, 313916, Note_off_c, 1, 64, 100
3, 313920, Note_on_c, 1, 60, 61
3, 314012, Note_off_c, 1, 60, 100
3, 314016, Note_on_c, 1, 64, 61
3, 314108, Note_off_c, 1, 64, 100
3, 314112, Note_on_c, 1, 55, 61
3, 314204, Note_off_c, 1, 55, 100
3, 314208, Note_on_c, 1, 64, 61
3, 314300, Note_off_c, 1, 64, 100
3, 314304, Note_on_c, 1, 60, 61
3, 314396, Note_off_c, 1, 60, 100
3, 314400, Note_on_c, 1, 64, 61
3, 314492, Note_off_c, 1, 64, 100
3, 314496, Note_on_c, 1, 55, 61
3, 314588, Note_off_c, 1, 55, 100
3, 314592, Note_on_c, 1, 64, 61
3, 314684, Note_off_c, 1, 64, 100
3, 314688, Note_on_c, 1, 60, 61
3, 314780, Note_off_c, 1, 60, 100
3, 314784, Note_on_c, 1, 64, 61
3, 314876, Note_off_c, 1, 64, 100
3, 314880, Note_on_c, 1, 55, 61
3, 314972, Note_off_c, 1, 55, 100
3, 314976, Note_on_c, 1, 65, 61
3, 315068, Note_off_c, 1, 65, 100
3, 315072, Note_on_c, 1, 59, 61
3, 315136, Note_on_c, 1, 65, 61
3, 315164, Note_off_c, 1, 59, 100
3, 315228, Note_off_c, 1, 65, 100
3, 315264, Note_on_c, 1, 55, 61
3, 315356, Note_off_c, 1, 55, 100
3, 315360, Note_on_c, 1, 65, 61
3, 315452, Note_off_c, 1, 65, 100
3, 315456, Note_on_c, 1, 59, 61
3, 315548, Note_off_c, 1, 59, 100
3, 315552, Note_on_c, 1, 65, 61
3, 315644, Note_off_c, 1, 65, 100
3, 315648, Note_on_c, 1, 55, 61
3, 315712, Note_on_c, 1, 65, 61
3, 315740, Note_off_c, 1, 55, 100
3, 315804, Note_off_c, 1, 65, 100
3, 315840, Note_on_c, 1, 59, 61
3, 315932, Note_off_c, 1, 59, 100
3, 315936, Note_on_c, 1, 65, 61
3, 316028, Note_off_c, 1, 65, 100
3, 316032, Note_on_c, 1, 55, 61
3, 316124, Note_off_c, 1, 55, 100
3, 316128, Note_on_c, 1, 65, 61
3, 316220, Note_off_c, 1, 65, 100
3, 316224, Note_on_c, 1, 59, 61
3, 316316, Note_off_c, 1, 59, 100
3, 316320, Note_on_c, 1, 65, 61
3, 316412, Note_off_c, 1, 65, 100
3, 316416, Note_on_c, 1, 64, 61
3, 316416, Note_on_c, 1, 60, 61
3, 316796, Note_off_c, 1, 64, 100
3, 316796, Note_off_c, 1, 60, 100
3, 319872, Note_on_c, 1, 60, 72
3, 319872, Note_on_c, 1, 48, 72
3, 320252, Note_off_c, 1, 60, 100
3, 320252, Note_off_c, 1, 48, 100
3, 320256, Note_on_c, 1, 62, 72
3, 320256, Note_on_c, 1, 50, 72
3, 320636, Note_off_c, 1, 62, 100
3, 320636, Note_off_c, 1, 50, 100
3, 320640, Note_on_c, 1, 59, 72
3, 320640, Note_on_c, 1, 47, 72
3, 321020, Note_off_c, 1, 59, 100
3, 321020, Note_off_c, 1, 47, 100
3, 321024, Note_on_c, 1, 60, 72
3, 321024, Note_on_c, 1, 48, 72
3, 321404, Note_off_c, 1, 60, 100
3, 321404, Note_off_c, 1, 48, 100
3, 321408, Note_on_c, 1, 57, 72
3, 321408, Note_on_c, 1, 45, 72
3, 321788, Note_off_c, 1, 57, 100
3, 321788, Note_off_c, 1, 45, 100
3, 321792, Note_on_c, 1, 53, 72
3, 321792, Note_on_c, 1, 41, 72
3, 322172, Note_off_c, 1, 53, 100
3, 322172, Note_off_c, 1, 41, 100
3, 322176, Note_on_c, 1, 55, 72
3, 322176, Note_on_c, 1, 43, 72
3, 322556, Note_off_c, 1, 55, 100
3, 322556, Note_off_c, 1, 43, 100
3, 322704, Note_on_c, 1, 48, 72
3, 322704, Note_on_c, 1, 36, 72
3, 323328, Note_on_c, 1, 43, 72
3, 323468, Note_off_c, 1, 48, 100
3, 323468, Note_off_c, 1, 36, 100
3, 324092, Note_off_c, 1, 43, 100
3, 324096, Note_on_c, 1, 52, 72
3, 324668, Note_off_c, 1, 52, 100
3, 324672, Note_on_c, 1, 53, 72
3, 324764, Note_off_c, 1, 53, 100
3, 324768, Note_on_c, 1, 50, 72
3, 324860, Note_off_c, 1, 50, 100
3, 324864, Note_on_c, 1, 48, 72
3, 325244, Note_off_c, 1, 48, 100
3, 325248, Note_on_c, 1, 55, 77
3, 325248, Note_on_c, 1, 43, 77
3, 325628, Note_off_c, 1, 55, 100
3, 325628, Note_off_c, 1, 43, 100
3, 325632, Note_on_c, 1, 60, 77
3, 326012, Note_off_c, 1, 60, 100
3, 326016, Note_on_c, 1, 55, 77
3, 326016, Note_on_c, 1, 43, 77
3, 326396, Note_off_c, 1, 55, 100
3, 326396, Note_off_c, 1, 43, 100
3, 326400, Note_on_c, 1, 60, 77
3, 326400, Note_on_c, 1, 48, 77
3, 326780, Note_off_c, 1, 60, 100
3, 326780, Note_off_c, 1, 48, 100
3, 326784, Note_on_c, 1, 55, 77
3, 326784, Note_on_c, 1, 43, 77
3, 327164, Note_off_c, 1, 55, 100
3, 327164, Note_off_c, 1, 43, 100
3, 327168, Note_on_c, 1, 60, 77
3, 327168, Note_on_c, 1, 48, 77
3, 327548, Note_off_c, 1, 60, 100
3, 327548, Note_off_c, 1, 48, 100
3, 327552, Note_on_c, 1, 48, 77
3, 327552, Note_on_c, 1, 36, 77
3, 327932, Note_off_c, 1, 48, 100
3, 327932, Note_off_c, 1, 36, 100
3, 327936, Note_on_c, 1, 48, 77
3, 327936, Note_on_c, 1, 36, 77
3, 328316, Note_off_c, 1, 48, 100
3, 328316, Note_off_c, 1, 36, 100
3, 328848, Note_on_c, 1, 43, 72
3, 328848, Note_on_c, 1, 31, 72
3, 329472, Note_on_c, 1, 38, 72
3, 329612, Note_off_c, 1, 43, 100
3, 329612, Note_off_c, 1, 31, 100
3, 330236, Note_off_c, 1, 38, 100
3, 330240, Note_on_c, 1, 46, 72
3, 330812, Note_off_c, 1, 46, 100
3, 330816, Note_on_c, 1, 48, 72
3, 330908, Note_off_c, 1, 48, 100
3, 330912, Note_on_c, 1, 45, 72
3, 331004, Note_off_c, 1, 45, 100
3, 331008, Note_on_c, 1, 43, 72
3, 331388, Note_off_c, 1, 43, 100
3, 340992, Note_on_c, 1, 50, 72
3, 341036, Note_off_c, 1, 50, 0
3, 341040, Note_on_c, 1, 53, 72
3, 341084, Note_off_c, 1, 53, 0
3, 341088, Note_on_c, 1, 57, 72
3, 341132, Note_off_c, 1, 57, 0
3, 341136, Note_on_c, 1, 38, 72
3, 341136, Note_on_c, 1, 62, 72
3, 341136, Note_on_c, 1, 50, 72
3, 341740, Note_off_c, 1, 38, 100
3, 341740, Note_off_c, 1, 62, 100
3, 341740, Note_off_c, 1, 50, 100
3, 341760, Note_on_c, 1, 45, 72
3, 341760, Note_on_c, 1, 57, 72
3, 342524, Note_off_c, 1, 45, 100
3, 342524, Note_off_c, 1, 57, 100
3, 342528, Note_on_c, 1, 53, 72
3, 343100, Note_off_c, 1, 53, 100
3, 343104, Note_on_c, 1, 55, 72
3, 343196, Note_off_c, 1, 55, 100
3, 343200, Note_on_c, 1, 52, 72
3, 343292, Note_off_c, 1, 52, 100
3, 343296, Note_on_c, 1, 50, 72
3, 343676, Note_off_c, 1, 50, 100
3, 344064, Note_on_c, 1, 57, 51
3, 344064, Note_on_c, 1, 53, 51
3, 344208, Note_off_c, 1, 57, 100
3, 344256, Note_on_c, 1, 62, 51
3, 344400, Note_off_c, 1, 62, 100
3, 344444, Note_off_c, 1, 53, 0
3, 344448, Note_on_c, 1, 57, 51
3, 344448, Note_on_c, 1, 53, 51
3, 344592, Note_off_c, 1, 57, 100
3, 344640, Note_on_c, 1, 62, 51
3, 344784, Note_off_c, 1, 62, 100
3, 344828, Note_off_c, 1, 53, 0
3, 344832, Note_on_c, 1, 57, 51
3, 344832, Note_on_c, 1, 53, 51
3, 344976, Note_off_c, 1, 57, 100
3, 345024, Note_on_c, 1, 62, 51
3, 345168, Note_off_c, 1, 62, 100
3, 345212, Note_off_c, 1, 53, 0
3, 345216, Note_on_c, 1, 57, 51
3, 345216, Note_on_c, 1, 53, 51
3, 345360, Note_off_c, 1, 57, 100
3, 345408, Note_on_c, 1, 62, 51
3, 345552, Note_off_c, 1, 62, 100
3, 345596, Note_off_c, 1, 53, 0
3, 345600, Note_on_c, 1, 59, 51
3, 345600, Note_on_c, 1, 52, 51
3, 345744, Note_off_c, 1, 59, 100
3, 345792, Note_on_c, 1, 62, 51
3, 345936, Note_off_c, 1, 62, 100
3, 345980, Note_off_c, 1, 52, 0
3, 345984, Note_on_c, 1, 59, 51
3, 345984, Note_on_c, 1, 52, 51
3, 346128, Note_off_c, 1, 59, 100
3, 346176, Note_on_c, 1, 62, 51
3, 346320, Note_off_c, 1, 62, 100
3, 346364, Note_off_c, 1, 52, 0
3, 346368, Note_on_c, 1, 59, 51
3, 346368, Note_on_c, 1, 52, 51
3, 346512, Note_off_c, 1, 59, 100
3, 346560, Note_on_c, 1, 62, 51
3, 346704, Note_off_c, 1, 62, 100
3, 346748, Note_off_c, 1, 52, 0
3, 346752, Note_on_c, 1, 59, 51
3, 346752, Note_on_c, 1, 52, 51
3, 346896, Note_off_c, 1, 59, 100
3, 346944, Note_on_c, 1, 62, 51
3, 347088, Note_off_c, 1, 62, 100
3, 347132, Note_off_c, 1, 52, 0
3, 347136, Note_on_c, 1, 57, 51
3, 347136, Note_on_c, 1, 53, 51
3, 347152, Note_on_c, 1, 53, 51
3, 347280, Note_off_c, 1, 57, 100
3, 347328, Note_on_c, 1, 62, 51
3, 347472, Note_off_c, 1, 62, 100
3, 347516, Note_off_c, 1, 53, 0
3, 347520, Note_on_c, 1, 57, 51
3, 347520, Note_on_c, 1, 53, 51
3, 347532, Note_off_c, 1, 53, 0
3, 347664, Note_off_c, 1, 57, 100
3, 347712, Note_on_c, 1, 62, 51
3, 347856, Note_off_c, 1, 62, 100
3, 347900, Note_off_c, 1, 53, 0
3, 347904, Note_on_c, 1, 57, 51
3, 347904, Note_on_c, 1, 53, 51
3, 348048, Note_off_c, 1, 57, 100
3, 348096, Note_on_c, 1, 62, 51
3, 348240, Note_off_c, 1, 62, 100
3, 348284, Note_off_c, 1, 53, 0
3, 348288, Note_on_c, 1, 57, 51
3, 348288, Note_on_c, 1, 53, 51
3, 348432, Note_off_c, 1, 57, 100
3, 348480, Note_on_c, 1, 62, 51
3, 348624, Note_off_c, 1, 62, 100
3, 348668, Note_off_c, 1, 53, 0
3, 348672, Note_on_c, 1, 59, 51
3, 348672, Note_on_c, 1, 52, 51
3, 348816, Note_off_c, 1, 59, 100
3, 348864, Note_on_c, 1, 62, 51
3, 349008, Note_off_c, 1, 62, 100
3, 349052, Note_off_c, 1, 52, 0
3, 349056, Note_on_c, 1, 59, 51
3, 349056, Note_on_c, 1, 52, 51
3, 349200, Note_off_c, 1, 59, 100
3, 349248, Note_on_c, 1, 62, 51
3, 349392, Note_off_c, 1, 62, 100
3, 349436, Note_off_c, 1, 52, 0
3, 349440, Note_on_c, 1, 59, 51
3, 349440, Note_on_c, 1, 52, 51
3, 349584, Note_off_c, 1, 59, 100
3, 349632, Note_on_c, 1, 62, 51
3, 349776, Note_off_c, 1, 62, 100
3, 349820, Note_off_c, 1, 52, 0
3, 349824, Note_on_c, 1, 59, 51
3, 349824, Note_on_c, 1, 52, 51
3, 349968, Note_off_c, 1, 59, 100
3, 350016, Note_on_c, 1, 62, 51
3, 350160, Note_off_c, 1, 62, 100
3, 350204, Note_off_c, 1, 52, 0
3, 350208, Note_on_c, 1, 57, 72
3, 350300, Note_off_c, 1, 57, 100
3, 350304, Note_on_c, 1, 64, 72
3, 350396, Note_off_c, 1, 64, 100
3, 350400, Note_on_c, 1, 60, 72
3, 350492, Note_off_c, 1, 60, 100
3, 350496, Note_on_c, 1, 64, 72
3, 350588, Note_off_c, 1, 64, 100
3, 350592, Note_on_c, 1, 57, 72
3, 350684, Note_off_c, 1, 57, 100
3, 350688, Note_on_c, 1, 64, 72
3, 350780, Note_off_c, 1, 64, 100
3, 350784, Note_on_c, 1, 60, 72
3, 350876, Note_off_c, 1, 60, 100
3, 350880, Note_on_c, 1, 64, 72
3, 350972, Note_off_c, 1, 64, 100
3, 350976, Note_on_c, 1, 57, 72
3, 351068, Note_off_c, 1, 57, 100
3, 351072, Note_on_c, 1, 64, 72
3, 351164, Note_off_c, 1, 64, 100
3, 351168, Note_on_c, 1, 60, 72
3, 351260, Note_off_c, 1, 60, 100
3, 351264, Note_on_c, 1, 64, 72
3, 351356, Note_off_c, 1, 64, 100
3, 351360, Note_on_c, 1, 57, 72
3, 351452, Note_off_c, 1, 57, 100
3, 351456, Note_on_c, 1, 64, 72
3, 351548, Note_off_c, 1, 64, 100
3, 351552, Note_on_c, 1, 60, 72
3, 351644, Note_off_c, 1, 60, 100
3, 351648, Note_on_c, 1, 64, 72
3, 351740, Note_off_c, 1, 64, 100
3, 351744, Note_on_c, 1, 57, 72
3, 351836, Note_off_c, 1, 57, 100
3, 351840, Note_on_c, 1, 66, 72
3, 351932, Note_off_c, 1, 66, 100
3, 351936, Note_on_c, 1, 60, 72
3, 352028, Note_off_c, 1, 60, 100
3, 352032, Note_on_c, 1, 66, 72
3, 352124, Note_off_c, 1, 66, 100
3, 352128, Note_on_c, 1, 57, 72
3, 352220, Note_off_c, 1, 57, 100
3, 352224, Note_on_c, 1, 66, 72
3, 352316, Note_off_c, 1, 66, 100
3, 352320, Note_on_c, 1, 60, 72
3, 352412, Note_off_c, 1, 60, 100
3, 352416, Note_on_c, 1, 66, 72
3, 352508, Note_off_c, 1, 66, 100
3, 352512, Note_on_c, 1, 57, 72
3, 352604, Note_off_c, 1, 57, 100
3, 352608, Note_on_c, 1, 66, 72
3, 352700, Note_off_c, 1, 66, 100
3, 352704, Note_on_c, 1, 59, 72
3, 352796, Note_off_c, 1, 59, 100
3, 352800, Note_on_c, 1, 66, 72
3, 352892, Note_off_c, 1, 66, 100
3, 352896, Note_on_c, 1, 57, 72
3, 352988, Note_off_c, 1, 57, 100
3, 352992, Note_on_c, 1, 66, 72
3, 353084, Note_off_c, 1, 66, 100
3, 353088, Note_on_c, 1, 59, 72
3, 353180, Note_off_c, 1, 59, 100
3, 353184, Note_on_c, 1, 66, 72
3, 353276, Note_off_c, 1, 66, 100
3, 353280, Note_on_c, 1, 55, 72
3, 353372, Note_off_c, 1, 55, 100
3, 353376, Note_on_c, 1, 62, 72
3, 353468, Note_off_c, 1, 62, 100
3, 353472, Note_on_c, 1, 58, 72
3, 353564, Note_off_c, 1, 58, 100
3, 353568, Note_on_c, 1, 62, 72
3, 353660, Note_off_c, 1, 62, 100
3, 353664, Note_on_c, 1, 55, 72
3, 353756, Note_off_c, 1, 55, 100
3, 353760, Note_on_c, 1, 62, 72
3, 353852, Note_off_c, 1, 62, 100
3, 353856, Note_on_c, 1, 58, 72
3, 353948, Note_off_c, 1, 58, 100
3, 353952, Note_on_c, 1, 62, 72
3, 354044, Note_off_c, 1, 62, 100
3, 354048, Note_on_c, 1, 55, 72
3, 354140, Note_off_c, 1, 55, 100
3, 354144, Note_on_c, 1, 61, 72
3, 354236, Note_off_c, 1, 61, 100
3, 354240, Note_on_c, 1, 58, 72
3, 354332, Note_off_c, 1, 58, 100
3, 354336, Note_on_c, 1, 61, 72
3, 354428, Note_off_c, 1, 61, 100
3, 354432, Note_on_c, 1, 55, 72
3, 354524, Note_off_c, 1, 55, 100
3, 354528, Note_on_c, 1, 61, 72
3, 354620, Note_off_c, 1, 61, 100
3, 354624, Note_on_c, 1, 58, 72
3, 354716, Note_off_c, 1, 58, 100
3, 354720, Note_on_c, 1, 61, 72
3, 354812, Note_off_c, 1, 61, 100
3, 354816, Note_on_c, 1, 55, 72
3, 354908, Note_off_c, 1, 55, 100
3, 354912, Note_on_c, 1, 64, 72
3, 355004, Note_off_c, 1, 64, 100
3, 355008, Note_on_c, 1, 58, 72
3, 355100, Note_off_c, 1, 58, 100
3, 355104, Note_on_c, 1, 64, 72
3, 355196, Note_off_c, 1, 64, 100
3, 355200, Note_on_c, 1, 55, 72
3, 355292, Note_off_c, 1, 55, 100
3, 355296, Note_on_c, 1, 64, 72
3, 355388, Note_off_c, 1, 64, 100
3, 355392, Note_on_c, 1, 58, 72
3, 355484, Note_off_c, 1, 58, 100
3, 355488, Note_on_c, 1, 64, 72
3, 355580, Note_off_c, 1, 64, 100
3, 355584, Note_on_c, 1, 54, 72
3, 355676, Note_off_c, 1, 54, 100
3, 355680, Note_on_c, 1, 62, 72
3, 355772, Note_off_c, 1, 62, 100
3, 355776, Note_on_c, 1, 57, 72
3, 355868, Note_off_c, 1, 57, 100
3, 355872, Note_on_c, 1, 62, 72
3, 355964, Note_off_c, 1, 62, 100
3, 355968, Note_on_c, 1, 54, 72
3, 356060, Note_off_c, 1, 54, 100
3, 356064, Note_on_c, 1, 62, 72
3, 356156, Note_off_c, 1, 62, 100
3, 356160, Note_on_c, 1, 57, 72
3, 356252, Note_off_c, 1, 57, 100
3, 356256, Note_on_c, 1, 62, 72
3, 356348, Note_off_c, 1, 62, 100
3, 356352, Note_on_c, 1, 53, 72
3, 356444, Note_off_c, 1, 53, 100
3, 356448, Note_on_c, 1, 60, 72
3, 356540, Note_off_c, 1, 60, 100
3, 356544, Note_on_c, 1, 56, 72
3, 356636, Note_off_c, 1, 56, 100
3, 356640, Note_on_c, 1, 62, 72
3, 356732, Note_off_c, 1, 62, 100
3, 356736, Note_on_c, 1, 53, 72
3, 356828, Note_off_c, 1, 53, 100
3, 356832, Note_on_c, 1, 60, 72
3, 356924, Note_off_c, 1, 60, 100
3, 356928, Note_on_c, 1, 56, 72
3, 357020, Note_off_c, 1, 56, 100
3, 357024, Note_on_c, 1, 60, 72
3, 357116, Note_off_c, 1, 60, 100
3, 357120, Note_on_c, 1, 52, 72
3, 357212, Note_off_c, 1, 52, 100
3, 357216, Note_on_c, 1, 60, 72
3, 357308, Note_off_c, 1, 60, 100
3, 357312, Note_on_c, 1, 55, 72
3, 357404, Note_off_c, 1, 55, 100
3, 357408, Note_on_c, 1, 60, 72
3, 357500, Note_off_c, 1, 60, 100
3, 357504, Note_on_c, 1, 52, 72
3, 357596, Note_off_c, 1, 52, 100
3, 357600, Note_on_c, 1, 60, 72
3, 357692, Note_off_c, 1, 60, 100
3, 357696, Note_on_c, 1, 55, 72
3, 357788, Note_off_c, 1, 55, 100
3, 357792, Note_on_c, 1, 60, 72
3, 357884, Note_off_c, 1, 60, 100
3, 357888, Note_on_c, 1, 50, 72
3, 357980, Note_off_c, 1, 50, 100
3, 357984, Note_on_c, 1, 59, 72
3, 358076, Note_off_c, 1, 59, 100
3, 358080, Note_on_c, 1, 53, 72
3, 358172, Note_off_c, 1, 53, 100
3, 358176, Note_on_c, 1, 59, 72
3, 358268, Note_off_c, 1, 59, 100
3, 358272, Note_on_c, 1, 50, 72
3, 358364, Note_off_c, 1, 50, 100
3, 358368, Note_on_c, 1, 59, 72
3, 358460, Note_off_c, 1, 59, 100
3, 358464, Note_on_c, 1, 53, 72
3, 358556, Note_off_c, 1, 53, 100
3, 358560, Note_on_c, 1, 59, 72
3, 358652, Note_off_c, 1, 59, 100
3, 358656, Note_on_c, 1, 48, 72
3, 358748, Note_off_c, 1, 48, 100
3, 358752, Note_on_c, 1, 57, 72
3, 358844, Note_off_c, 1, 57, 100
3, 358848, Note_on_c, 1, 52, 72
3, 358940, Note_off_c, 1, 52, 100
3, 358944, Note_on_c, 1, 57, 72
3, 359036, Note_off_c, 1, 57, 100
3, 359040, Note_on_c, 1, 48, 72
3, 359132, Note_off_c, 1, 48, 100
3, 359136, Note_on_c, 1, 57, 72
3, 359228, Note_off_c, 1, 57, 100
3, 359232, Note_on_c, 1, 52, 72
3, 359324, Note_off_c, 1, 52, 100
3, 359328, Note_on_c, 1, 57, 72
3, 359420, Note_off_c, 1, 57, 100
3, 359424, Note_on_c, 1, 51, 72
3, 359424, Note_on_c, 1, 39, 72
3, 359804, Note_off_c, 1, 51, 100
3, 359804, Note_off_c, 1, 39, 100
3, 361152, Note_on_c, 1, 57, 72
3, 361296, Note_off_c, 1, 57, 100
3, 361344, Note_on_c, 1, 60, 72
3, 361488, Note_off_c, 1, 60, 100
3, 361536, Note_on_c, 1, 54, 72
3, 361680, Note_off_c, 1, 54, 100
3, 361728, Note_on_c, 1, 57, 72
3, 361872, Note_off_c, 1, 57, 100
3, 361920, Note_on_c, 1, 51, 72
3, 362064, Note_off_c, 1, 51, 100
3, 362112, Note_on_c, 1, 54, 72
3, 362256, Note_off_c, 1, 54, 100
3, 362304, Note_on_c, 1, 45, 72
3, 362448, Note_off_c, 1, 45, 100
3, 362496, Note_on_c, 1, 60, 72
3, 362496, Note_on_c, 1, 48, 72
3, 362640, Note_off_c, 1, 60, 100
3, 362640, Note_off_c, 1, 48, 100
3, 362688, Note_on_c, 1, 54, 72
3, 362688, Note_on_c, 1, 42, 72
3, 362832, Note_off_c, 1, 54, 100
3, 362832, Note_off_c, 1, 42, 100
3, 362880, Note_on_c, 1, 57, 72
3, 362880, Note_on_c, 1, 45, 72
3, 363024, Note_off_c, 1, 57, 100
3, 363024, Note_off_c, 1, 45, 100
3, 363072, Note_on_c, 1, 51, 72
3, 363072, Note_on_c, 1, 39, 72
3, 363216, Note_off_c, 1, 51, 100
3, 363216, Note_off_c, 1, 39, 100
3, 363264, Note_on_c, 1, 52, 72
3, 363264, Note_on_c, 1, 40, 72
3, 363644, Note_off_c, 1, 52, 100
3, 363644, Note_off_c, 1, 40, 100
3, 363648, Note_on_c, 1, 52, 72
3, 363648, Note_on_c, 1, 40, 72
3, 364028, Note_off_c, 1, 52, 100
3, 364028, Note_off_c, 1, 40, 100
3, 364032, Note_on_c, 1, 57, 51
3, 364032, Note_on_c, 1, 45, 51
3, 364412, Note_off_c, 1, 57, 100
3, 364412, Note_off_c, 1, 45, 100
3, 367488, Note_on_c, 1, 45, 72
3, 367488, Note_on_c, 1, 57, 72
3, 367868, Note_off_c, 1, 45, 100
3, 367868, Note_off_c, 1, 57, 100
3, 367872, Note_on_c, 1, 59, 72
3, 367872, Note_on_c, 1, 47, 72
3, 368252, Note_off_c, 1, 59, 100
3, 368252, Note_off_c, 1, 47, 100
3, 368256, Note_on_c, 1, 44, 72
3, 368256, Note_on_c, 1, 56, 72
3, 368636, Note_off_c, 1, 44, 100
3, 368636, Note_off_c, 1, 56, 100
3, 368640, Note_on_c, 1, 57, 72
3, 368640, Note_on_c, 1, 45, 72
3, 369020, Note_off_c, 1, 57, 100
3, 369020, Note_off_c, 1, 45, 100
3, 369024, Note_on_c, 1, 53, 72
3, 369024, Note_on_c, 1, 41, 72
3, 369404, Note_off_c, 1, 53, 100
3, 369404, Note_off_c, 1, 41, 100
3, 369408, Note_on_c, 1, 50, 72
3, 369408, Note_on_c, 1, 38, 72
3, 369788, Note_off_c, 1, 50, 100
3, 369788, Note_off_c, 1, 38, 100
3, 369792, Note_on_c, 1, 40, 72
3, 369792, Note_on_c, 1, 52, 72
3, 370172, Note_off_c, 1, 40, 100
3, 370172, Note_off_c, 1, 52, 100
3, 370320, Note_on_c, 1, 45, 72
3, 370320, Note_on_c, 1, 33, 72
3, 370944, Note_on_c, 1, 40, 72
3, 371084, Note_off_c, 1, 45, 100
3, 371084, Note_off_c, 1, 33, 100
3, 371708, Note_off_c, 1, 40, 100
3, 371712, Note_on_c, 1, 48, 72
3, 372284, Note_off_c, 1, 48, 100
3, 372288, Note_on_c, 1, 50, 72
3, 372380, Note_off_c, 1, 50, 100
3, 372384, Note_on_c, 1, 47, 72
3, 372476, Note_off_c, 1, 47, 100
3, 372480, Note_on_c, 1, 45, 72
3, 372860, Note_off_c, 1, 45, 100
3, 376464, Note_on_c, 1, 47, 72
3, 376464, Note_on_c, 1, 35, 72
3, 377068, Note_off_c, 1, 47, 100
3, 377068, Note_off_c, 1, 35, 100
3, 377088, Note_on_c, 1, 43, 72
3, 377088, Note_on_c, 1, 31, 72
3, 377852, Note_off_c, 1, 43, 100
3, 377852, Note_off_c, 1, 31, 100
3, 377856, Note_on_c, 1, 50, 72
3, 378428, Note_off_c, 1, 50, 100
3, 378432, Note_on_c, 1, 52, 72
3, 378524, Note_off_c, 1, 52, 100
3, 378528, Note_on_c, 1, 48, 72
3, 378620, Note_off_c, 1, 48, 100
3, 378624, Note_on_c, 1, 47, 72
3, 379004, Note_off_c, 1, 47, 100
3, 382608, Note_on_c, 1, 48, 51
3, 382608, Note_on_c, 1, 36, 51
3, 383136, Note_off_c, 1, 48, 100
3, 383136, Note_off_c, 1, 36, 100
3, 383232, Note_on_c, 1, 43, 51
3, 383232, Note_on_c, 1, 31, 51
3, 383760, Note_off_c, 1, 43, 100
3, 383760, Note_off_c, 1, 31, 100
3, 384000, Note_on_c, 1, 52, 51
3, 384572, Note_off_c, 1, 52, 100
3, 384576, Note_on_c, 1, 55, 51
3, 384668, Note_off_c, 1, 55, 100
3, 384672, Note_on_c, 1, 50, 51
3, 384764, Note_off_c, 1, 50, 100
3, 384768, Note_on_c, 1, 48, 51
3, 385148, Note_off_c, 1, 48, 100
3, 392064, Note_on_c, 1, 62, 51
3, 392064, Note_on_c, 1, 53, 51
3, 392064, Note_on_c, 1, 57, 51
3, 392444, Note_off_c, 1, 62, 100
3, 392444, Note_off_c, 1, 53, 100
3, 392444, Note_off_c, 1, 57, 100
3, 392448, Note_on_c, 1, 64, 51
3, 392448, Note_on_c, 1, 60, 51
3, 392448, Note_on_c, 1, 55, 51
3, 392828, Note_off_c, 1, 64, 100
3, 392828, Note_off_c, 1, 60, 100
3, 392828, Note_off_c, 1, 55, 100
3, 392832, Note_on_c, 1, 62, 51
3, 392832, Note_on_c, 1, 59, 51
3, 392832, Note_on_c, 1, 55, 51
3, 393212, Note_off_c, 1, 62, 100
3, 393212, Note_off_c, 1, 59, 100
3, 393212, Note_off_c, 1, 55, 100
3, 393360, Note_on_c, 1, 48, 72
3, 393360, Note_on_c, 1, 36, 72
3, 393964, Note_off_c, 1, 48, 100
3, 393964, Note_off_c, 1, 36, 100
3, 393984, Note_on_c, 1, 43, 72
3, 393984, Note_on_c, 1, 31, 72
3, 394748, Note_off_c, 1, 43, 100
3, 394748, Note_off_c, 1, 31, 100
3, 394752, Note_on_c, 1, 51, 72
3, 395324, Note_off_c, 1, 51, 100
3, 395328, Note_on_c, 1, 53, 72
3, 395420, Note_off_c, 1, 53, 100
3, 395424, Note_on_c, 1, 50, 72
3, 395516, Note_off_c, 1, 50, 100
3, 395520, Note_on_c, 1, 48, 72
3, 395900, Note_off_c, 1, 48, 100
3, 407040, Note_on_c, 1, 57, 72
3, 407184, Note_off_c, 1, 57, 100
3, 407232, Note_on_c, 1, 60, 72
3, 407376, Note_off_c, 1, 60, 100
3, 407424, Note_on_c, 1, 57, 72
3, 407568, Note_off_c, 1, 57, 100
3, 407616, Note_on_c, 1, 60, 72
3, 407760, Note_off_c, 1, 60, 100
3, 407808, Note_on_c, 1, 53, 51
3, 407952, Note_off_c, 1, 53, 100
3, 408000, Note_on_c, 1, 60, 51
3, 408144, Note_off_c, 1, 60, 100
3, 408192, Note_on_c, 1, 53, 51
3, 408336, Note_off_c, 1, 53, 100
3, 408384, Note_on_c, 1, 60, 51
3, 408528, Note_off_c, 1, 60, 100
3, 408576, Note_on_c, 1, 52, 72
3, 408720, Note_off_c, 1, 52, 100
3, 408768, Note_on_c, 1, 60, 72
3, 408912, Note_off_c, 1, 60, 100
3, 408960, Note_on_c, 1, 52, 72
3, 409104, Note_off_c, 1, 52, 100
3, 409152, Note_on_c, 1, 60, 72
3, 409296, Note_off_c, 1, 60, 100
3, 409344, Note_on_c, 1, 48, 51
3, 409488, Note_off_c, 1, 48, 100
3, 409536, Note_on_c, 1, 60, 51
3, 409680, Note_off_c, 1, 60, 100
3, 409728, Note_on_c, 1, 48, 51
3, 409872, Note_off_c, 1, 48, 100
3, 409920, Note_on_c, 1, 60, 51
3, 410064, Note_off_c, 1, 60, 100
3, 410112, Note_on_c, 1, 53, 51
3, 410256, Note_off_c, 1, 53, 100
3, 410304, Note_on_c, 1, 57, 51
3, 410448, Note_off_c, 1, 57, 100
3, 410496, Note_on_c, 1, 53, 51
3, 410640, Note_off_c, 1, 53, 100
3, 410688, Note_on_c, 1, 62, 51
3, 410832, Note_off_c, 1, 62, 100
3, 410880, Note_on_c, 1, 55, 51
3, 411024, Note_off_c, 1, 55, 100
3, 411072, Note_on_c, 1, 64, 51
3, 411216, Note_off_c, 1, 64, 100
3, 411264, Note_on_c, 1, 55, 51
3, 411408, Note_off_c, 1, 55, 100
3, 411456, Note_on_c, 1, 62, 51
3, 411600, Note_off_c, 1, 62, 100
3, 411648, Note_on_c, 1, 57, 72
3, 411792, Note_off_c, 1, 57, 100
3, 411840, Note_on_c, 1, 60, 72
3, 411984, Note_off_c, 1, 60, 100
3, 412032, Note_on_c, 1, 57, 72
3, 412176, Note_off_c, 1, 57, 100
3, 412224, Note_on_c, 1, 60, 72
3, 412368, Note_off_c, 1, 60, 100
3, 412416, Note_on_c, 1, 53, 51
3, 412560, Note_off_c, 1, 53, 100
3, 412608, Note_on_c, 1, 60, 51
3, 412752, Note_off_c, 1, 60, 100
3, 412800, Note_on_c, 1, 53, 51
3, 412944, Note_off_c, 1, 53, 100
3, 412992, Note_on_c, 1, 60, 51
3, 413136, Note_off_c, 1, 60, 100
3, 413184, Note_on_c, 1, 52, 72
3, 413328, Note_off_c, 1, 52, 100
3, 413376, Note_on_c, 1, 60, 72
3, 413520, Note_off_c, 1, 60, 100
3, 413568, Note_on_c, 1, 52, 72
3, 413712, Note_off_c, 1, 52, 100
3, 413760, Note_on_c, 1, 62, 72
3, 413904, Note_off_c, 1, 62, 100
3, 413952, Note_on_c, 1, 48, 51
3, 414096, Note_off_c, 1, 48, 100
3, 414144, Note_on_c, 1, 60, 51
3, 414288, Note_off_c, 1, 60, 100
3, 414336, Note_on_c, 1, 48, 51
3, 414480, Note_off_c, 1, 48, 100
3, 414528, Note_on_c, 1, 60, 51
3, 414672, Note_off_c, 1, 60, 100
3, 414720, Note_on_c, 1, 53, 51
3, 414864, Note_off_c, 1, 53, 100
3, 414912, Note_on_c, 1, 60, 51
3, 415056, Note_off_c, 1, 60, 100
3, 415104, Note_on_c, 1, 53, 51
3, 415248, Note_off_c, 1, 53, 100
3, 415296, Note_on_c, 1, 60, 51
3, 415440, Note_off_c, 1, 60, 100
3, 415488, Note_on_c, 1, 55, 51
3, 415632, Note_off_c, 1, 55, 100
3, 415680, Note_on_c, 1, 60, 51
3, 415824, Note_off_c, 1, 60, 100
3, 415872, Note_on_c, 1, 55, 51
3, 416016, Note_off_c, 1, 55, 100
3, 416064, Note_on_c, 1, 60, 51
3, 416208, Note_off_c, 1, 60, 100
3, 416256, Note_on_c, 1, 64, 51
3, 416256, Note_on_c, 1, 60, 51
3, 416400, Note_off_c, 1, 64, 100
3, 416400, Note_off_c, 1, 60, 100
3, 416448, Note_on_c, 1, 64, 51
3, 416448, Note_on_c, 1, 60, 51
3, 416592, Note_off_c, 1, 64, 100
3, 416592, Note_off_c, 1, 60, 100
3, 416640, Note_on_c, 1, 60, 51
3, 416640, Note_on_c, 1, 64, 51
3, 416784, Note_off_c, 1, 60, 100
3, 416784, Note_off_c, 1, 64, 100
3, 416832, Note_on_c, 1, 64, 51
3, 416832, Note_on_c, 1, 60, 51
3, 416976, Note_off_c, 1, 64, 100
3, 416976, Note_off_c, 1, 60, 100
3, 417024, Note_on_c, 1, 64, 51
3, 417024, Note_on_c, 1, 60, 51
3, 417168, Note_off_c, 1, 64, 100
3, 417168, Note_off_c, 1, 60, 100
3, 417216, Note_on_c, 1, 64, 51
3, 417216, Note_on_c, 1, 60, 51
3, 417360, Note_off_c, 1, 64, 100
3, 417360, Note_off_c, 1, 60, 100
3, 417408, Note_on_c, 1, 64, 51
3, 417408, Note_on_c, 1, 60, 51
3, 417552, Note_off_c, 1, 64, 100
3, 417552, Note_off_c, 1, 60, 100
3, 417600, Note_on_c, 1, 60, 51
3, 417600, Note_on_c, 1, 64, 51
3, 417744, Note_off_c, 1, 60, 100
3, 417744, Note_off_c, 1, 64, 100
3, 417792, Note_on_c, 1, 60, 51
3, 417792, Note_on_c, 1, 64, 51
3, 417936, Note_off_c, 1, 60, 100
3, 417936, Note_off_c, 1, 64, 100
3, 417984, Note_on_c, 1, 64, 51
3, 417984, Note_on_c, 1, 60, 51
3, 418128, Note_off_c, 1, 64, 100
3, 418128, Note_off_c, 1, 60, 100
3, 418176, Note_on_c, 1, 64, 51
3, 418176, Note_on_c, 1, 60, 51
3, 418320, Note_off_c, 1, 64, 100
3, 418320, Note_off_c, 1, 60, 100
3, 418368, Note_on_c, 1, 64, 51
3, 418368, Note_on_c, 1, 60, 51
3, 418512, Note_off_c, 1, 64, 100
3, 418512, Note_off_c, 1, 60, 100
3, 418560, Note_on_c, 1, 64, 51
3, 418560, Note_on_c, 1, 60, 51
3, 418704, Note_off_c, 1, 64, 100
3, 418704, Note_off_c, 1, 60, 100
3, 418752, Note_on_c, 1, 64, 51
3, 418752, Note_on_c, 1, 60, 51
3, 418896, Note_off_c, 1, 64, 100
3, 418896, Note_off_c, 1, 60, 100
3, 418944, Note_on_c, 1, 60, 51
3, 418944, Note_on_c, 1, 64, 51
3, 419088, Note_off_c, 1, 60, 100
3, 419088, Note_off_c, 1, 64, 100
3, 419136, Note_on_c, 1, 64, 51
3, 419136, Note_on_c, 1, 60, 51
3, 419280, Note_off_c, 1, 64, 100
3, 419280, Note_off_c, 1, 60, 100
3, 419328, Note_on_c, 1, 59, 51
3, 419328, Note_on_c, 1, 62, 51
3, 419472, Note_off_c, 1, 59, 100
3, 419472, Note_off_c, 1, 62, 100
3, 419520, Note_on_c, 1, 59, 51
3, 419520, Note_on_c, 1, 62, 51
3, 419664, Note_off_c, 1, 59, 100
3, 419664, Note_off_c, 1, 62, 100
3, 419712, Note_on_c, 1, 59, 51
3, 419712, Note_on_c, 1, 62, 51
3, 419856, Note_off_c, 1, 59, 100
3, 419856, Note_off_c, 1, 62, 100
3, 419904, Note_on_c, 1, 59, 51
3, 419904, Note_on_c, 1, 62, 51
3, 420048, Note_off_c, 1, 59, 100
3, 420048, Note_off_c, 1, 62, 100
3, 420096, Note_on_c, 1, 59, 51
3, 420096, Note_on_c, 1, 62, 51
3, 420240, Note_off_c, 1, 59, 100
3, 420240, Note_off_c, 1, 62, 100
3, 420288, Note_on_c, 1, 59, 51
3, 420288, Note_on_c, 1, 62, 51
3, 420432, Note_off_c, 1, 59, 100
3, 420432, Note_off_c, 1, 62, 100
3, 420480, Note_on_c, 1, 59, 51
3, 420480, Note_on_c, 1, 62, 51
3, 420624, Note_off_c, 1, 59, 100
3, 420624, Note_off_c, 1, 62, 100
3, 420672, Note_on_c, 1, 59, 51
3, 420672, Note_on_c, 1, 62, 51
3, 420816, Note_off_c, 1, 59, 100
3, 420816, Note_off_c, 1, 62, 100
3, 420864, Note_on_c, 1, 59, 51
3, 420864, Note_on_c, 1, 62, 51
3, 421008, Note_off_c, 1, 59, 100
3, 421008, Note_off_c, 1, 62, 100
3, 421056, Note_on_c, 1, 59, 51
3, 421056, Note_on_c, 1, 62, 51
3, 421200, Note_off_c, 1, 59, 100
3, 421200, Note_off_c, 1, 62, 100
3, 421248, Note_on_c, 1, 59, 51
3, 421248, Note_on_c, 1, 62, 51
3, 421392, Note_off_c, 1, 59, 100
3, 421392, Note_off_c, 1, 62, 100
3, 421440, Note_on_c, 1, 59, 51
3, 421440, Note_on_c, 1, 62, 51
3, 421584, Note_off_c, 1, 59, 100
3, 421584, Note_off_c, 1, 62, 100
3, 421632, Note_on_c, 1, 59, 51
3, 421632, Note_on_c, 1, 62, 51
3, 421776, Note_off_c, 1, 59, 100
3, 421776, Note_off_c, 1, 62, 100
3, 421824, Note_on_c, 1, 59, 51
3, 421824, Note_on_c, 1, 62, 51
3, 421968, Note_off_c, 1, 59, 100
3, 421968, Note_off_c, 1, 62, 100
3, 422016, Note_on_c, 1, 59, 51
3, 422016, Note_on_c, 1, 62, 51
3, 422160, Note_off_c, 1, 59, 100
3, 422160, Note_off_c, 1, 62, 100
3, 422208, Note_on_c, 1, 59, 51
3, 422208, Note_on_c, 1, 62, 51
3, 422352, Note_off_c, 1, 59, 100
3, 422352, Note_off_c, 1, 62, 100
3, 422400, Note_on_c, 1, 54, 51
3, 422400, Note_on_c, 1, 57, 51
3, 422400, Note_on_c, 1, 62, 51
3, 422544, Note_off_c, 1, 54, 100
3, 422544, Note_off_c, 1, 57, 100
3, 422544, Note_off_c, 1, 62, 100
3, 422592, Note_on_c, 1, 54, 51
3, 422592, Note_on_c, 1, 57, 51
3, 422592, Note_on_c, 1, 62, 51
3, 422736, Note_off_c, 1, 54, 100
3, 422736, Note_off_c, 1, 57, 100
3, 422736, Note_off_c, 1, 62, 100
3, 422784, Note_on_c, 1, 54, 51
3, 422784, Note_on_c, 1, 57, 51
3, 422784, Note_on_c, 1, 62, 51
3, 422928, Note_off_c, 1, 54, 100
3, 422928, Note_off_c, 1, 57, 100
3, 422928, Note_off_c, 1, 62, 100
3, 422976, Note_on_c, 1, 54, 51
3, 422976, Note_on_c, 1, 57, 51
3, 422976, Note_on_c, 1, 62, 51
3, 423120, Note_off_c, 1, 54, 100
3, 423120, Note_off_c, 1, 57, 100
3, 423120, Note_off_c, 1, 62, 100
3, 423168, Note_on_c, 1, 54, 51
3, 423168, Note_on_c, 1, 57, 51
3, 423168, Note_on_c, 1, 62, 51
3, 423312, Note_off_c, 1, 54, 100
3, 423312, Note_off_c, 1, 57, 100
3, 423312, Note_off_c, 1, 62, 100
3, 423360, Note_on_c, 1, 54, 51
3, 423360, Note_on_c, 1, 57, 51
3, 423360, Note_on_c, 1, 62, 51
3, 423504, Note_off_c, 1, 54, 100
3, 423504, Note_off_c, 1, 57, 100
3, 423504, Note_off_c, 1, 62, 100
3, 423552, Note_on_c, 1, 54, 51
3, 423552, Note_on_c, 1, 57, 51
3, 423552, Note_on_c, 1, 62, 51
3, 423696, Note_off_c, 1, 54, 100
3, 423696, Note_off_c, 1, 57, 100
3, 423696, Note_off_c, 1, 62, 100
3, 423744, Note_on_c, 1, 54, 51
3, 423744, Note_on_c, 1, 57, 51
3, 423744, Note_on_c, 1, 62, 51
3, 423888, Note_off_c, 1, 54, 100
3, 423888, Note_off_c, 1, 57, 100
3, 423888, Note_off_c, 1, 62, 100
3, 423936, Note_on_c, 1, 54, 51
3, 423936, Note_on_c, 1, 57, 51
3, 423936, Note_on_c, 1, 62, 51
3, 424080, Note_off_c, 1, 54, 100
3, 424080, Note_off_c, 1, 57, 100
3, 424080, Note_off_c, 1, 62, 100
3, 424128, Note_on_c, 1, 54, 51
3, 424128, Note_on_c, 1, 57, 51
3, 424128, Note_on_c, 1, 62, 51
3, 424272, Note_off_c, 1, 54, 100
3, 424272, Note_off_c, 1, 57, 100
3, 424272, Note_off_c, 1, 62, 100
3, 424320, Note_on_c, 1, 54, 51
3, 424320, Note_on_c, 1, 57, 51
3, 424320, Note_on_c, 1, 62, 51
3, 424464, Note_off_c, 1, 54, 100
3, 424464, Note_off_c, 1, 57, 100
3, 424464, Note_off_c, 1, 62, 100
3, 424512, Note_on_c, 1, 54, 51
3, 424512, Note_on_c, 1, 57, 51
3, 424512, Note_on_c, 1, 62, 51
3, 424656, Note_off_c, 1, 54, 100
3, 424656, Note_off_c, 1, 57, 100
3, 424656, Note_off_c, 1, 62, 100
3, 424704, Note_on_c, 1, 54, 51
3, 424704, Note_on_c, 1, 57, 51
3, 424704, Note_on_c, 1, 62, 51
3, 424848, Note_off_c, 1, 54, 100
3, 424848, Note_off_c, 1, 57, 100
3, 424848, Note_off_c, 1, 62, 100
3, 424896, Note_on_c, 1, 54, 51
3, 424896, Note_on_c, 1, 57, 51
3, 424896, Note_on_c, 1, 62, 51
3, 425040, Note_off_c, 1, 54, 100
3, 425040, Note_off_c, 1, 57, 100
3, 425040, Note_off_c, 1, 62, 100
3, 425088, Note_on_c, 1, 54, 51
3, 425088, Note_on_c, 1, 57, 51
3, 425088, Note_on_c, 1, 62, 51
3, 425232, Note_off_c, 1, 54, 100
3, 425232, Note_off_c, 1, 57, 100
3, 425232, Note_off_c, 1, 62, 100
3, 425280, Note_on_c, 1, 57, 51
3, 425280, Note_on_c, 1, 62, 51
3, 425280, Note_on_c, 1, 54, 51
3, 425424, Note_off_c, 1, 57, 100
3, 425424, Note_off_c, 1, 62, 100
3, 425424, Note_off_c, 1, 54, 100
3, 425472, Note_on_c, 1, 62, 72
3, 425472, Note_on_c, 1, 55, 72
3, 426000, Note_off_c, 1, 62, 100
3, 426000, Note_off_c, 1, 55, 100
3, 426240, Note_on_c, 1, 59, 72
3, 426240, Note_on_c, 1, 55, 72
3, 426768, Note_off_c, 1, 59, 100
3, 426768, Note_off_c, 1, 55, 100
3, 427008, Note_on_c, 1, 60, 72
3, 427008, Note_on_c, 1, 55, 72
3, 427536, Note_off_c, 1, 60, 100
3, 427536, Note_off_c, 1, 55, 100
3, 427776, Note_on_c, 1, 55, 72
3, 427776, Note_on_c, 1, 64, 72
3, 428304, Note_off_c, 1, 55, 100
3, 428304, Note_off_c, 1, 64, 100
3, 428544, Note_on_c, 1, 67, 72
3, 428544, Note_on_c, 1, 55, 72
3, 428924, Note_off_c, 1, 67, 100
3, 428924, Note_off_c, 1, 55, 100
3, 429120, Note_on_c, 1, 54, 72
3, 429264, Note_off_c, 1, 54, 100
3, 429312, Note_on_c, 1, 55, 72
3, 429404, Note_off_c, 1, 55, 100
3, 429408, Note_on_c, 1, 54, 72
3, 429500, Note_off_c, 1, 54, 100
3, 429504, Note_on_c, 1, 57, 72
3, 429596, Note_off_c, 1, 57, 100
3, 429600, Note_on_c, 1, 55, 72
3, 429692, Note_off_c, 1, 55, 100
3, 429696, Note_on_c, 1, 59, 72
3, 429840, Note_off_c, 1, 59, 100
3, 429888, Note_on_c, 1, 50, 72
3, 430032, Note_off_c, 1, 50, 100
3, 430080, Note_on_c, 1, 52, 72
3, 430364, Note_off_c, 1, 52, 100
3, 430368, Note_on_c, 1, 50, 72
3, 430460, Note_off_c, 1, 50, 100
3, 430464, Note_on_c, 1, 48, 72
3, 430748, Note_off_c, 1, 48, 100
3, 430752, Note_on_c, 1, 47, 72
3, 430844, Note_off_c, 1, 47, 100
3, 430848, Note_on_c, 1, 48, 72
3, 431132, Note_off_c, 1, 48, 100
3, 431136, Note_on_c, 1, 45, 72
3, 431136, Note_on_c, 1, 57, 72
3, 431228, Note_off_c, 1, 45, 100
3, 431228, Note_off_c, 1, 57, 100
3, 431232, Note_on_c, 1, 43, 72
3, 431232, Note_on_c, 1, 55, 72
3, 431516, Note_off_c, 1, 43, 100
3, 431516, Note_off_c, 1, 55, 100
3, 431520, Note_on_c, 1, 53, 72
3, 431520, Note_on_c, 1, 41, 72
3, 431612, Note_off_c, 1, 53, 100
3, 431612, Note_off_c, 1, 41, 100
3, 431616, Note_on_c, 1, 43, 72
3, 431616, Note_on_c, 1, 55, 72
3, 431760, Note_off_c, 1, 43, 100
3, 431760, Note_off_c, 1, 55, 100
3, 431808, Note_on_c, 1, 47, 72
3, 431808, Note_on_c, 1, 59, 72
3, 431900, Note_off_c, 1, 47, 100
3, 431900, Note_off_c, 1, 59, 100
3, 431904, Note_on_c, 1, 50, 72
3, 431996, Note_off_c, 1, 50, 100
3, 432000, Note_on_c, 1, 55, 72
3, 432144, Note_off_c, 1, 55, 100
3, 432192, Note_on_c, 1, 55, 72
3, 432336, Note_off_c, 1, 55, 100
3, 432384, Note_on_c, 1, 55, 72
3, 432764, Note_off_c, 1, 55, 100
3, 442368, Note_on_c, 1, 48, 51
3, 442512, Note_off_c, 1, 48, 100
3, 442560, Note_on_c, 1, 55, 51
3, 442704, Note_off_c, 1, 55, 100
3, 442752, Note_on_c, 1, 48, 51
3, 442896, Note_off_c, 1, 48, 100
3, 442944, Note_on_c, 1, 55, 51
3, 443088, Note_off_c, 1, 55, 100
3, 443136, Note_on_c, 1, 52, 51
3, 443280, Note_off_c, 1, 52, 100
3, 443328, Note_on_c, 1, 55, 51
3, 443472, Note_off_c, 1, 55, 100
3, 443520, Note_on_c, 1, 52, 51
3, 443664, Note_off_c, 1, 52, 100
3, 443712, Note_on_c, 1, 55, 51
3, 443856, Note_off_c, 1, 55, 100
3, 443904, Note_on_c, 1, 53, 51
3, 444048, Note_off_c, 1, 53, 100
3, 444096, Note_on_c, 1, 55, 51
3, 444240, Note_off_c, 1, 55, 100
3, 444288, Note_on_c, 1, 53, 51
3, 444432, Note_off_c, 1, 53, 100
3, 444480, Note_on_c, 1, 55, 51
3, 444624, Note_off_c, 1, 55, 100
3, 444672, Note_on_c, 1, 50, 51
3, 444816, Note_off_c, 1, 50, 100
3, 444864, Note_on_c, 1, 55, 51
3, 445008, Note_off_c, 1, 55, 100
3, 445056, Note_on_c, 1, 50, 51
3, 445200, Note_off_c, 1, 50, 100
3, 445248, Note_on_c, 1, 55, 51
3, 445392, Note_off_c, 1, 55, 100
3, 445440, Note_on_c, 1, 52, 51
3, 445584, Note_off_c, 1, 52, 100
3, 445632, Note_on_c, 1, 55, 51
3, 445776, Note_off_c, 1, 55, 100
3, 445824, Note_on_c, 1, 48, 51
3, 445968, Note_off_c, 1, 48, 100
3, 446016, Note_on_c, 1, 55, 51
3, 446160, Note_off_c, 1, 55, 100
3, 446208, Note_on_c, 1, 50, 51
3, 446352, Note_off_c, 1, 50, 100
3, 446400, Note_on_c, 1, 55, 51
3, 446544, Note_off_c, 1, 55, 100
3, 446592, Note_on_c, 1, 47, 51
3, 446736, Note_off_c, 1, 47, 100
3, 446784, Note_on_c, 1, 55, 51
3, 446928, Note_off_c, 1, 55, 100
3, 446976, Note_on_c, 1, 48, 51
3, 447120, Note_off_c, 1, 48, 100
3, 447168, Note_on_c, 1, 55, 51
3, 447312, Note_off_c, 1, 55, 100
3, 447360, Note_on_c, 1, 45, 51
3, 447504, Note_off_c, 1, 45, 100
3, 447552, Note_on_c, 1, 54, 51
3, 447696, Note_off_c, 1, 54, 100
3, 447744, Note_on_c, 1, 43, 51
3, 447888, Note_off_c, 1, 43, 100
3, 447936, Note_on_c, 1, 55, 51
3, 448080, Note_off_c, 1, 55, 100
3, 448128, Note_on_c, 1, 41, 51
3, 448272, Note_off_c, 1, 41, 100
3, 448320, Note_on_c, 1, 53, 51
3, 448464, Note_off_c, 1, 53, 100
3, 448512, Note_on_c, 1, 40, 51
3, 448604, Note_off_c, 1, 40, 100
3, 448608, Note_on_c, 1, 48, 51
3, 448700, Note_off_c, 1, 48, 100
3, 448704, Note_on_c, 1, 47, 51
3, 448796, Note_off_c, 1, 47, 100
3, 448800, Note_on_c, 1, 48, 51
3, 448892, Note_off_c, 1, 48, 100
3, 448896, Note_on_c, 1, 50, 51
3, 448988, Note_off_c, 1, 50, 100
3, 448992, Note_on_c, 1, 48, 51
3, 449084, Note_off_c, 1, 48, 100
3, 449088, Note_on_c, 1, 47, 51
3, 449180, Note_off_c, 1, 47, 100
3, 449184, Note_on_c, 1, 48, 51
3, 449276, Note_off_c, 1, 48, 100
3, 449280, Note_on_c, 1, 40, 51
3, 449520, Note_off_c, 1, 40, 100
3, 450048, Note_on_c, 1, 41, 51
3, 450140, Note_off_c, 1, 41, 100
3, 450144, Note_on_c, 1, 48, 51
3, 450236, Note_off_c, 1, 48, 100
3, 450240, Note_on_c, 1, 47, 51
3, 450332, Note_off_c, 1, 47, 100
3, 450336, Note_on_c, 1, 48, 51
3, 450428, Note_off_c, 1, 48, 100
3, 450432, Note_on_c, 1, 50, 51
3, 450524, Note_off_c, 1, 50, 100
3, 450528, Note_on_c, 1, 48, 51
3, 450620, Note_off_c, 1, 48, 100
3, 450624, Note_on_c, 1, 47, 51
3, 450716, Note_off_c, 1, 47, 100
3, 450720, Note_on_c, 1, 48, 51
3, 450812, Note_off_c, 1, 48, 100
3, 450816, Note_on_c, 1, 41, 51
3, 451196, Note_off_c, 1, 41, 100
3, 451584, Note_on_c, 1, 43, 51
3, 451728, Note_off_c, 1, 43, 100
3, 451776, Note_on_c, 1, 48, 51
3, 451920, Note_off_c, 1, 48, 100
3, 451968, Note_on_c, 1, 52, 51
3, 452112, Note_off_c, 1, 52, 100
3, 452160, Note_on_c, 1, 48, 51
3, 452304, Note_off_c, 1, 48, 100
3, 452352, Note_on_c, 1, 43, 51
3, 452496, Note_off_c, 1, 43, 100
3, 452544, Note_on_c, 1, 50, 51
3, 452688, Note_off_c, 1, 50, 100
3, 452736, Note_on_c, 1, 53, 51
3, 452880, Note_off_c, 1, 53, 100
3, 452928, Note_on_c, 1, 50, 51
3, 453072, Note_off_c, 1, 50, 100
3, 453120, Note_on_c, 1, 52, 51
3, 453212, Note_off_c, 1, 52, 100
3, 453216, Note_on_c, 1, 60, 51
3, 453308, Note_off_c, 1, 60, 100
3, 453312, Note_on_c, 1, 59, 51
3, 453404, Note_off_c, 1, 59, 100
3, 453408, Note_on_c, 1, 60, 51
3, 453500, Note_off_c, 1, 60, 100
3, 453504, Note_on_c, 1, 62, 51
3, 453596, Note_off_c, 1, 62, 100
3, 453600, Note_on_c, 1, 60, 51
3, 453692, Note_off_c, 1, 60, 100
3, 453696, Note_on_c, 1, 59, 51
3, 453788, Note_off_c, 1, 59, 100
3, 453792, Note_on_c, 1, 60, 51
3, 453884, Note_off_c, 1, 60, 100
3, 453888, Note_on_c, 1, 52, 51
3, 454268, Note_off_c, 1, 52, 100
3, 454656, Note_on_c, 1, 57, 51
3, 454748, Note_off_c, 1, 57, 100
3, 454752, Note_on_c, 1, 65, 51
3, 454844, Note_off_c, 1, 65, 100
3, 454848, Note_on_c, 1, 64, 51
3, 454940, Note_off_c, 1, 64, 100
3, 454944, Note_on_c, 1, 65, 51
3, 455036, Note_off_c, 1, 65, 100
3, 455040, Note_on_c, 1, 67, 51
3, 455132, Note_off_c, 1, 67, 100
3, 455136, Note_on_c, 1, 65, 51
3, 455228, Note_off_c, 1, 65, 100
3, 455232, Note_on_c, 1, 64, 51
3, 455324, Note_off_c, 1, 64, 100
3, 455328, Note_on_c, 1, 65, 51
3, 455420, Note_off_c, 1, 65, 100
3, 455424, Note_on_c, 1, 57, 51
3, 455804, Note_off_c, 1, 57, 100
3, 456192, Note_on_c, 1, 55, 51
3, 456336, Note_off_c, 1, 55, 100
3, 456384, Note_on_c, 1, 60, 51
3, 456528, Note_off_c, 1, 60, 100
3, 456576, Note_on_c, 1, 57, 51
3, 456720, Note_off_c, 1, 57, 100
3, 456768, Note_on_c, 1, 60, 51
3, 456912, Note_off_c, 1, 60, 100
3, 456960, Note_on_c, 1, 55, 51
3, 457104, Note_off_c, 1, 55, 100
3, 457152, Note_on_c, 1, 60, 51
3, 457296, Note_off_c, 1, 60, 100
3, 457344, Note_on_c, 1, 53, 51
3, 457488, Note_off_c, 1, 53, 100
3, 457536, Note_on_c, 1, 60, 51
3, 457680, Note_off_c, 1, 60, 100
3, 457728, Note_on_c, 1, 52, 51
3, 457872, Note_off_c, 1, 52, 100
3, 457920, Note_on_c, 1, 60, 51
3, 458064, Note_off_c, 1, 60, 100
3, 458112, Note_on_c, 1, 57, 51
3, 458256, Note_off_c, 1, 57, 100
3, 458304, Note_on_c, 1, 60, 51
3, 458448, Note_off_c, 1, 60, 100
3, 458496, Note_on_c, 1, 55, 51
3, 458640, Note_off_c, 1, 55, 100
3, 458688, Note_on_c, 1, 60, 51
3, 458832, Note_off_c, 1, 60, 100
3, 458880, Note_on_c, 1, 53, 51
3, 459024, Note_off_c, 1, 53, 100
3, 459072, Note_on_c, 1, 60, 51
3, 459216, Note_off_c, 1, 60, 100
3, 459264, Note_on_c, 1, 52, 66
3, 459264, Note_on_c, 1, 55, 66
3, 459264, Note_on_c, 1, 61, 66
3, 459408, Note_off_c, 1, 52, 100
3, 459408, Note_off_c, 1, 55, 100
3, 459408, Note_off_c, 1, 61, 100
3, 459456, Note_on_c, 1, 52, 66
3, 459456, Note_on_c, 1, 55, 66
3, 459456, Note_on_c, 1, 61, 66
3, 459600, Note_off_c, 1, 52, 100
3, 459600, Note_off_c, 1, 55, 100
3, 459600, Note_off_c, 1, 61, 100
3, 459648, Note_on_c, 1, 55, 66
3, 459648, Note_on_c, 1, 52, 66
3, 459648, Note_on_c, 1, 61, 66
3, 459792, Note_off_c, 1, 55, 100
3, 459792, Note_off_c, 1, 52, 100
3, 459792, Note_off_c, 1, 61, 100
3, 459840, Note_on_c, 1, 52, 66
3, 459840, Note_on_c, 1, 55, 66
3, 459840, Note_on_c, 1, 61, 66
3, 459984, Note_off_c, 1, 52, 100
3, 459984, Note_off_c, 1, 55, 100
3, 459984, Note_off_c, 1, 61, 100
3, 460032, Note_on_c, 1, 52, 66
3, 460032, Note_on_c, 1, 55, 66
3, 460032, Note_on_c, 1, 61, 66
3, 460176, Note_off_c, 1, 52, 100
3, 460176, Note_off_c, 1, 55, 100
3, 460176, Note_off_c, 1, 61, 100
3, 460224, Note_on_c, 1, 61, 66
3, 460224, Note_on_c, 1, 55, 66
3, 460224, Note_on_c, 1, 52, 66
3, 460368, Note_off_c, 1, 61, 100
3, 460368, Note_off_c, 1, 55, 100
3, 460368, Note_off_c, 1, 52, 100
3, 460416, Note_on_c, 1, 55, 66
3, 460416, Note_on_c, 1, 61, 66
3, 460416, Note_on_c, 1, 52, 66
3, 460560, Note_off_c, 1, 55, 100
3, 460560, Note_off_c, 1, 61, 100
3, 460560, Note_off_c, 1, 52, 100
3, 460608, Note_on_c, 1, 52, 66
3, 460608, Note_on_c, 1, 55, 66
3, 460608, Note_on_c, 1, 61, 66
3, 460752, Note_off_c, 1, 52, 100
3, 460752, Note_off_c, 1, 55, 100
3, 460752, Note_off_c, 1, 61, 100
3, 460800, Note_on_c, 1, 62, 65
3, 460800, Note_on_c, 1, 57, 65
3, 460800, Note_on_c, 1, 53, 65
3, 461180, Note_off_c, 1, 62, 100
3, 461180, Note_off_c, 1, 57, 100
3, 461180, Note_off_c, 1, 53, 100
3, 462336, Note_on_c, 1, 55, 61
3, 462428, Note_off_c, 1, 55, 100
3, 462432, Note_on_c, 1, 64, 61
3, 462524, Note_off_c, 1, 64, 100
3, 462528, Note_on_c, 1, 60, 61
3, 462620, Note_off_c, 1, 60, 100
3, 462624, Note_on_c, 1, 64, 61
3, 462716, Note_off_c, 1, 64, 100
3, 462720, Note_on_c, 1, 55, 61
3, 462812, Note_off_c, 1, 55, 100
3, 462816, Note_on_c, 1, 64, 61
3, 462908, Note_off_c, 1, 64, 100
3, 462912, Note_on_c, 1, 60, 61
3, 463004, Note_off_c, 1, 60, 100
3, 463008, Note_on_c, 1, 64, 61
3, 463100, Note_off_c, 1, 64, 100
3, 463104, Note_on_c, 1, 55, 61
3, 463196, Note_off_c, 1, 55, 100
3, 463200, Note_on_c, 1, 64, 61
3, 463292, Note_off_c, 1, 64, 100
3, 463296, Note_on_c, 1, 60, 61
3, 463388, Note_off_c, 1, 60, 100
3, 463392, Note_on_c, 1, 64, 61
3, 463484, Note_off_c, 1, 64, 100
3, 463488, Note_on_c, 1, 55, 61
3, 463580, Note_off_c, 1, 55, 100
3, 463584, Note_on_c, 1, 64, 61
3, 463676, Note_off_c, 1, 64, 100
3, 463680, Note_on_c, 1, 60, 61
3, 463772, Note_off_c, 1, 60, 100
3, 463776, Note_on_c, 1, 64, 61
3, 463868, Note_off_c, 1, 64, 100
3, 463872, Note_on_c, 1, 55, 61
3, 463964, Note_off_c, 1, 55, 100
3, 463968, Note_on_c, 1, 65, 61
3, 464060, Note_off_c, 1, 65, 100
3, 464064, Note_on_c, 1, 59, 61
3, 464128, Note_on_c, 1, 65, 61
3, 464156, Note_off_c, 1, 59, 100
3, 464220, Note_off_c, 1, 65, 100
3, 464256, Note_on_c, 1, 55, 61
3, 464348, Note_off_c, 1, 55, 100
3, 464352, Note_on_c, 1, 65, 61
3, 464444, Note_off_c, 1, 65, 100
3, 464448, Note_on_c, 1, 59, 61
3, 464540, Note_off_c, 1, 59, 100
3, 464544, Note_on_c, 1, 65, 61
3, 464636, Note_off_c, 1, 65, 100
3, 464640, Note_on_c, 1, 55, 61
3, 464704, Note_on_c, 1, 65, 61
3, 464732, Note_off_c, 1, 55, 100
3, 464796, Note_off_c, 1, 65, 100
3, 464832, Note_on_c, 1, 59, 61
3, 464924, Note_off_c, 1, 59, 100
3, 464928, Note_on_c, 1, 65, 61
3, 465020, Note_off_c, 1, 65, 100
3, 465024, Note_on_c, 1, 55, 61
3, 465116, Note_off_c, 1, 55, 100
3, 465120, Note_on_c, 1, 65, 61
3, 465212, Note_off_c, 1, 65, 100
3, 465216, Note_on_c, 1, 59, 61
3, 465308, Note_off_c, 1, 59, 100
3, 465312, Note_on_c, 1, 65, 61
3, 465404, Note_off_c, 1, 65, 100
3, 465408, Note_on_c, 1, 64, 61
3, 465408, Note_on_c, 1, 60, 61
3, 465788, Note_off_c, 1, 64, 100
3, 465788, Note_off_c, 1, 60, 100
3, 468864, Note_on_c, 1, 60, 72
3, 468864, Note_on_c, 1, 48, 72
3, 469244, Note_off_c, 1, 60, 100
3, 469244, Note_off_c, 1, 48, 100
3, 469248, Note_on_c, 1, 62, 72
3, 469248, Note_on_c, 1, 50, 72
3, 469628, Note_off_c, 1, 62, 100
3, 469628, Note_off_c, 1, 50, 100
3, 469632, Note_on_c, 1, 59, 72
3, 469632, Note_on_c, 1, 47, 72
3, 470012, Note_off_c, 1, 59, 100
3, 470012, Note_off_c, 1, 47, 100
3, 470016, Note_on_c, 1, 60, 72
3, 470016, Note_on_c, 1, 48, 72
3, 470396, Note_off_c, 1, 60, 100
3, 470396, Note_off_c, 1, 48, 100
3, 470400, Note_on_c, 1, 57, 72
3, 470400, Note_on_c, 1, 45, 72
3, 470780, Note_off_c, 1, 57, 100
3, 470780, Note_off_c, 1, 45, 100
3, 470784, Note_on_c, 1, 53, 72
3, 470784, Note_on_c, 1, 41, 72
3, 471164, Note_off_c, 1, 53, 100
3, 471164, Note_off_c, 1, 41, 100
3, 471168, Note_on_c, 1, 55, 72
3, 471168, Note_on_c, 1, 43, 72
3, 471548, Note_off_c, 1, 55, 100
3, 471548, Note_off_c, 1, 43, 100
3, 471696, Note_on_c, 1, 48, 72
3, 471696, Note_on_c, 1, 36, 72
3, 472320, Note_on_c, 1, 43, 72
3, 472460, Note_off_c, 1, 48, 100
3, 472460, Note_off_c, 1, 36, 100
3, 473084, Note_off_c, 1, 43, 100
3, 473088, Note_on_c, 1, 52, 72
3, 473660, Note_off_c, 1, 52, 100
3, 473664, Note_on_c, 1, 53, 72
3, 473756, Note_off_c, 1, 53, 100
3, 473760, Note_on_c, 1, 50, 72
3, 473852, Note_off_c, 1, 50, 100
3, 473856, Note_on_c, 1, 48, 72
3, 474236, Note_off_c, 1, 48, 100
3, 474240, Note_on_c, 1, 55, 77
3, 474240, Note_on_c, 1, 43, 77
3, 474620, Note_off_c, 1, 55, 100
3, 474620, Note_off_c, 1, 43, 100
3, 474624, Note_on_c, 1, 60, 77
3, 475004, Note_off_c, 1, 60, 100
3, 475008, Note_on_c, 1, 55, 77
3, 475008, Note_on_c, 1, 43, 77
3, 475388, Note_off_c, 1, 55, 100
3, 475388, Note_off_c, 1, 43, 100
3, 475392, Note_on_c, 1, 60, 77
3, 475392, Note_on_c, 1, 48, 77
3, 475772, Note_off_c, 1, 60, 100
3, 475772, Note_off_c, 1, 48, 100
3, 475776, Note_on_c, 1, 55, 77
3, 475776, Note_on_c, 1, 43, 77
3, 476156, Note_off_c, 1, 55, 100
3, 476156, Note_off_c, 1, 43, 100
3, 476160, Note_on_c, 1, 60, 77
3, 476160, Note_on_c, 1, 48, 77
3, 476540, Note_off_c, 1, 60, 100
3, 476540, Note_off_c, 1, 48, 100
3, 476544, Note_on_c, 1, 48, 77
3, 476544, Note_on_c, 1, 36, 77
3, 476924, Note_off_c, 1, 48, 100
3, 476924, Note_off_c, 1, 36, 100
3, 476928, Note_on_c, 1, 48, 77
3, 476928, Note_on_c, 1, 36, 77
3, 477308, Note_off_c, 1, 48, 100
3, 477308, Note_off_c, 1, 36, 100
3, 477308, End_track
4, 0, Start_track
4, 0, Title_t, "Sonata # 10"
4, 0, Key_signature, 0, "major"
4, 0, End_track
5, 0, Start_track
5, 0, Title_t, "by Bob"
5, 0, Key_signature, 0, "major"
5, 0, End_track
6, 0, Start_track
6, 0, Title_t, "Fisher"
6, 0, Key_signature, 0, "major"
6, 0, End_track
7, 0, Start_track
7, 0, Key_signature, 0, "major"
7, 0, End_track
8, 0, Start_track
8, 0, Key_signature, 0, "major"
8, 0, End_track
9, 0, Start_track
9, 0, Key_signature, 0, "major"
9, 0, End_track
10, 0, Start_track
10, 0, Key_signature, 0, "major"
10, 0, End_track
11, 0, Start_track
11, 0, Key_signature, 0, "major"
11, 0, End_track
12, 0, Start_track
12, 0, Key_signature, 0, "major"
12, 0, End_track
13, 0, Start_track
13, 0, Key_signature, 0, "major"
13, 0, End_track
14, 0, Start_track
14, 0, Key_signature, 0, "major"
14, 0, End_track
15, 0, Start_track
15, 0, Key_signature, 0, "major"
15, 0, End_track
16, 0, Start_track
16, 0, Key_signature, 0, "major"
16, 0, End_track
17, 0, Start_track
17, 0, Key_signature, 0, "major"
17, 0, End_track
0, 0, End_of_file
