0, 0, Header, 1, 5, 384
1, 0, Start_track
1, 0, Time_signature, 3, 2, 96, 8
1, 0, Sequencer_specific, 3, 0, 0, 65
1, 0, Sequencer_specific, 5, 0, 0, 119, 14, 0
1, 0, Tempo, 1111111
1, 17280, Tempo, 1200000
1, 18432, Tempo, 1111111
1, 57600, Tempo, 1200000
1, 58752, Tempo, 1111111
1, 115200, Tempo, 1200000
1, 116352, Tempo, 1111111
1, 124416, Tempo, 1200000
1, 125568, Tempo, 1304347
1, 126720, Tempo, 1363636
1, 127872, Tempo, 1111111
1, 130176, Tempo, 1153846
1, 135936, Tempo, 1250000
1, 138240, Tempo, 2000000
1, 138624, Tempo, 1000000
1, 138812, Tempo, 833333
1, 139196, Tempo, 1000000
1, 139628, Tempo, 1111111
1, 147456, Tempo, 1153846
1, 148608, Tempo, 1176470
1, 148608, End_track
2, 0, Start_track
2, 0, Title_t, "Mozart  Piano Concerto"
2, 0, Control_c, 0, 0, 0
2, 0, Program_c, 0, 0
2, 0, Control_c, 0, 7, 118
2, 0, Control_c, 0, 10, 63
2, 0, Control_c, 0, 91, 72
2, 0, Control_c, 0, 93, 51
2, 0, Key_signature, 1, "major"
2, 0, Control_c, 0, 121, 0
2, 384, Control_c, 0, 10, 63
2, 480, Control_c, 0, 91, 63
2, 576, Control_c, 0, 93, 35
2, 672, Program_c, 0, 0
2, 26496, Note_on_c, 0, 74, 69
2, 26496, Note_on_c, 0, 71, 69
2, 26876, Note_off_c, 0, 74, 0
2, 26876, Note_off_c, 0, 71, 0
2, 26880, Note_on_c, 0, 72, 69
2, 26880, Note_on_c, 0, 69, 69
2, 27068, Note_off_c, 0, 72, 0
2, 27068, Note_off_c, 0, 69, 0
2, 27072, Note_on_c, 0, 71, 69
2, 27072, Note_on_c, 0, 67, 69
2, 27260, Note_off_c, 0, 71, 0
2, 27260, Note_off_c, 0, 67, 0
2, 27264, Note_on_c, 0, 76, 69
2, 27264, Note_on_c, 0, 72, 69
2, 27452, Note_off_c, 0, 76, 0
2, 27452, Note_off_c, 0, 72, 0
2, 27456, Note_on_c, 0, 74, 69
2, 27456, Note_on_c, 0, 71, 69
2, 27644, Note_off_c, 0, 74, 0
2, 27644, Note_off_c, 0, 71, 0
2, 27648, Note_on_c, 0, 74, 69
2, 27648, Note_on_c, 0, 71, 69
2, 28028, Note_off_c, 0, 74, 0
2, 28028, Note_off_c, 0, 71, 0
2, 28032, Note_on_c, 0, 79, 69
2, 28032, Note_on_c, 0, 76, 69
2, 28604, Note_off_c, 0, 79, 0
2, 28604, Note_off_c, 0, 76, 0
2, 28608, Note_on_c, 0, 78, 69
2, 28608, Note_on_c, 0, 74, 69
2, 28796, Note_off_c, 0, 78, 0
2, 28796, Note_off_c, 0, 74, 0
2, 28800, Note_on_c, 0, 78, 69
2, 28800, Note_on_c, 0, 74, 69
2, 28988, Note_off_c, 0, 78, 0
2, 28988, Note_off_c, 0, 74, 0
2, 28992, Note_on_c, 0, 76, 69
2, 28992, Note_on_c, 0, 72, 69
2, 29180, Note_off_c, 0, 76, 0
2, 29180, Note_off_c, 0, 72, 0
2, 29184, Note_on_c, 0, 71, 69
2, 29184, Note_on_c, 0, 74, 69
2, 29564, Note_off_c, 0, 71, 0
2, 29564, Note_off_c, 0, 74, 0
2, 31104, Note_on_c, 0, 74, 69
2, 31484, Note_off_c, 0, 74, 0
2, 31488, Note_on_c, 0, 74, 69
2, 31580, Note_off_c, 0, 74, 0
2, 31584, Note_on_c, 0, 76, 69
2, 31628, Note_off_c, 0, 76, 0
2, 31632, Note_on_c, 0, 78, 69
2, 31676, Note_off_c, 0, 78, 0
2, 31680, Note_on_c, 0, 79, 69
2, 31724, Note_off_c, 0, 79, 0
2, 31728, Note_on_c, 0, 81, 69
2, 31772, Note_off_c, 0, 81, 0
2, 31776, Note_on_c, 0, 83, 69
2, 31820, Note_off_c, 0, 83, 0
2, 31824, Note_on_c, 0, 84, 69
2, 31868, Note_off_c, 0, 84, 0
2, 31872, Note_on_c, 0, 86, 69
2, 31932, Note_off_c, 0, 86, 0
2, 31936, Note_on_c, 0, 83, 69
2, 31996, Note_off_c, 0, 83, 0
2, 32000, Note_on_c, 0, 79, 69
2, 32060, Note_off_c, 0, 79, 0
2, 32064, Note_on_c, 0, 83, 69
2, 32124, Note_off_c, 0, 83, 0
2, 32128, Note_on_c, 0, 79, 69
2, 32188, Note_off_c, 0, 79, 0
2, 32192, Note_on_c, 0, 74, 69
2, 32252, Note_off_c, 0, 74, 0
2, 32256, Note_on_c, 0, 76, 69
2, 32316, Note_off_c, 0, 76, 0
2, 32320, Note_on_c, 0, 78, 69
2, 32380, Note_off_c, 0, 78, 0
2, 32384, Note_on_c, 0, 79, 69
2, 32444, Note_off_c, 0, 79, 0
2, 32448, Note_on_c, 0, 69, 69
2, 32508, Note_off_c, 0, 69, 0
2, 32512, Note_on_c, 0, 72, 69
2, 32572, Note_off_c, 0, 72, 0
2, 32576, Note_on_c, 0, 76, 69
2, 32636, Note_off_c, 0, 76, 0
2, 32640, Note_on_c, 0, 67, 69
2, 33020, Note_off_c, 0, 67, 0
2, 33024, Note_on_c, 0, 69, 69
2, 33044, Note_off_c, 0, 69, 0
2, 33048, Note_on_c, 0, 71, 69
2, 33068, Note_off_c, 0, 71, 0
2, 33072, Note_on_c, 0, 69, 69
2, 33092, Note_off_c, 0, 69, 0
2, 33096, Note_on_c, 0, 71, 69
2, 33116, Note_off_c, 0, 71, 0
2, 33120, Note_on_c, 0, 69, 69
2, 33140, Note_off_c, 0, 69, 0
2, 33144, Note_on_c, 0, 71, 69
2, 33164, Note_off_c, 0, 71, 0
2, 33168, Note_on_c, 0, 69, 69
2, 33188, Note_off_c, 0, 69, 0
2, 33192, Note_on_c, 0, 71, 69
2, 33212, Note_off_c, 0, 71, 0
2, 33216, Note_on_c, 0, 69, 69
2, 33236, Note_off_c, 0, 69, 0
2, 33240, Note_on_c, 0, 71, 69
2, 33260, Note_off_c, 0, 71, 0
2, 33264, Note_on_c, 0, 69, 69
2, 33284, Note_off_c, 0, 69, 0
2, 33288, Note_on_c, 0, 71, 69
2, 33308, Note_off_c, 0, 71, 0
2, 33312, Note_on_c, 0, 67, 69
2, 33356, Note_off_c, 0, 67, 0
2, 33360, Note_on_c, 0, 69, 69
2, 33404, Note_off_c, 0, 69, 0
2, 33408, Note_on_c, 0, 67, 69
2, 33788, Note_off_c, 0, 67, 0
2, 35712, Note_on_c, 0, 71, 69
2, 36092, Note_off_c, 0, 71, 0
2, 36288, Note_on_c, 0, 74, 69
2, 36476, Note_off_c, 0, 74, 0
2, 36480, Note_on_c, 0, 79, 69
2, 36668, Note_off_c, 0, 79, 0
2, 36672, Note_on_c, 0, 83, 69
2, 36860, Note_off_c, 0, 83, 0
2, 36864, Note_on_c, 0, 83, 69
2, 36956, Note_off_c, 0, 83, 0
2, 36960, Note_on_c, 0, 81, 69
2, 37052, Note_off_c, 0, 81, 0
2, 37056, Note_on_c, 0, 79, 69
2, 37148, Note_off_c, 0, 79, 0
2, 37152, Note_on_c, 0, 78, 69
2, 37244, Note_off_c, 0, 78, 0
2, 37248, Note_on_c, 0, 76, 69
2, 37436, Note_off_c, 0, 76, 0
2, 37440, Note_on_c, 0, 74, 69
2, 37628, Note_off_c, 0, 74, 0
2, 37824, Note_on_c, 0, 74, 69
2, 38012, Note_off_c, 0, 74, 0
2, 38016, Note_on_c, 0, 74, 69
2, 38396, Note_off_c, 0, 74, 0
2, 38400, Note_on_c, 0, 73, 69
2, 38492, Note_off_c, 0, 73, 0
2, 38496, Note_on_c, 0, 74, 69
2, 38588, Note_off_c, 0, 74, 0
2, 38592, Note_on_c, 0, 76, 69
2, 38684, Note_off_c, 0, 76, 0
2, 38688, Note_on_c, 0, 78, 69
2, 38780, Note_off_c, 0, 78, 0
2, 38784, Note_on_c, 0, 79, 69
2, 38876, Note_off_c, 0, 79, 0
2, 38880, Note_on_c, 0, 76, 69
2, 38972, Note_off_c, 0, 76, 0
2, 38976, Note_on_c, 0, 73, 69
2, 39068, Note_off_c, 0, 73, 0
2, 39072, Note_on_c, 0, 67, 69
2, 39164, Note_off_c, 0, 67, 0
2, 39168, Note_on_c, 0, 67, 69
2, 39188, Note_off_c, 0, 67, 0
2, 39192, Note_on_c, 0, 69, 69
2, 39212, Note_off_c, 0, 69, 0
2, 39216, Note_on_c, 0, 67, 69
2, 39236, Note_off_c, 0, 67, 0
2, 39240, Note_on_c, 0, 69, 69
2, 39260, Note_off_c, 0, 69, 0
2, 39264, Note_on_c, 0, 67, 69
2, 39284, Note_off_c, 0, 67, 0
2, 39288, Note_on_c, 0, 69, 69
2, 39308, Note_off_c, 0, 69, 0
2, 39312, Note_on_c, 0, 69, 69
2, 39332, Note_off_c, 0, 69, 0
2, 39336, Note_on_c, 0, 67, 69
2, 39356, Note_off_c, 0, 67, 0
2, 39360, Note_on_c, 0, 67, 69
2, 39380, Note_off_c, 0, 67, 0
2, 39384, Note_on_c, 0, 69, 69
2, 39404, Note_off_c, 0, 69, 0
2, 39408, Note_on_c, 0, 67, 69
2, 39428, Note_off_c, 0, 67, 0
2, 39432, Note_on_c, 0, 69, 69
2, 39452, Note_off_c, 0, 69, 0
2, 39456, Note_on_c, 0, 66, 69
2, 39500, Note_off_c, 0, 66, 0
2, 39504, Note_on_c, 0, 67, 69
2, 39548, Note_off_c, 0, 67, 0
2, 39552, Note_on_c, 0, 66, 69
2, 39932, Note_off_c, 0, 66, 0
2, 40032, Note_on_c, 0, 81, 69
2, 40124, Note_off_c, 0, 81, 0
2, 40128, Note_on_c, 0, 79, 69
2, 40220, Note_off_c, 0, 79, 0
2, 40224, Note_on_c, 0, 78, 69
2, 40316, Note_off_c, 0, 78, 0
2, 40320, Note_on_c, 0, 78, 69
2, 40508, Note_off_c, 0, 78, 65
2, 40512, Note_on_c, 0, 76, 69
2, 40700, Note_off_c, 0, 76, 65
2, 40704, Note_on_c, 0, 76, 69
2, 41276, Note_off_c, 0, 76, 65
2, 41280, Note_on_c, 0, 78, 69
2, 41468, Note_off_c, 0, 78, 65
2, 41472, Note_on_c, 0, 78, 69
2, 41660, Note_off_c, 0, 78, 65
2, 41664, Note_on_c, 0, 79, 69
2, 41852, Note_off_c, 0, 79, 65
2, 41856, Note_on_c, 0, 79, 69
2, 42428, Note_off_c, 0, 79, 65
2, 42432, Note_on_c, 0, 78, 69
2, 42620, Note_off_c, 0, 78, 65
2, 42624, Note_on_c, 0, 77, 69
2, 43004, Note_off_c, 0, 77, 65
2, 43008, Note_on_c, 0, 76, 69
2, 43388, Note_off_c, 0, 76, 65
2, 43392, Note_on_c, 0, 74, 69
2, 43772, Note_off_c, 0, 74, 65
2, 43776, Note_on_c, 0, 74, 69
2, 43868, Note_off_c, 0, 74, 65
2, 43872, Note_on_c, 0, 73, 69
2, 43964, Note_off_c, 0, 73, 65
2, 43968, Note_on_c, 0, 71, 69
2, 44060, Note_off_c, 0, 71, 65
2, 44064, Note_on_c, 0, 69, 69
2, 44156, Note_off_c, 0, 69, 65
2, 44160, Note_on_c, 0, 69, 69
2, 44540, Note_off_c, 0, 69, 65
2, 47232, Note_on_c, 0, 62, 69
2, 47324, Note_off_c, 0, 62, 65
2, 47328, Note_on_c, 0, 69, 69
2, 47420, Note_off_c, 0, 69, 65
2, 47424, Note_on_c, 0, 81, 69
2, 47424, Note_on_c, 0, 66, 69
2, 47516, Note_off_c, 0, 66, 65
2, 47520, Note_on_c, 0, 69, 69
2, 47612, Note_off_c, 0, 81, 65
2, 47612, Note_off_c, 0, 69, 65
2, 47616, Note_on_c, 0, 81, 69
2, 47616, Note_on_c, 0, 62, 69
2, 47708, Note_off_c, 0, 62, 65
2, 47712, Note_on_c, 0, 69, 69
2, 47804, Note_off_c, 0, 81, 65
2, 47804, Note_off_c, 0, 69, 65
2, 47808, Note_on_c, 0, 81, 69
2, 47808, Note_on_c, 0, 66, 69
2, 47900, Note_off_c, 0, 66, 65
2, 47904, Note_on_c, 0, 69, 69
2, 47996, Note_off_c, 0, 81, 65
2, 47996, Note_off_c, 0, 69, 65
2, 48000, Note_on_c, 0, 73, 69
2, 48000, Note_on_c, 0, 64, 69
2, 48092, Note_off_c, 0, 64, 65
2, 48096, Note_on_c, 0, 69, 69
2, 48188, Note_off_c, 0, 69, 65
2, 48192, Note_on_c, 0, 67, 69
2, 48284, Note_off_c, 0, 73, 65
2, 48284, Note_off_c, 0, 67, 65
2, 48288, Note_on_c, 0, 74, 69
2, 48288, Note_on_c, 0, 69, 69
2, 48332, Note_off_c, 0, 74, 65
2, 48336, Note_on_c, 0, 76, 69
2, 48380, Note_off_c, 0, 69, 65
2, 48380, Note_off_c, 0, 76, 65
2, 48384, Note_on_c, 0, 74, 69
2, 48384, Note_on_c, 0, 66, 69
2, 48476, Note_off_c, 0, 74, 65
2, 48476, Note_off_c, 0, 66, 65
2, 48480, Note_on_c, 0, 69, 69
2, 48480, Note_on_c, 0, 62, 69
2, 48560, Note_on_c, 0, 66, 69
2, 48572, Note_off_c, 0, 69, 65
2, 48572, Note_off_c, 0, 62, 65
2, 48576, Note_on_c, 0, 74, 69
2, 48652, Note_off_c, 0, 66, 65
2, 48668, Note_off_c, 0, 74, 65
2, 48672, Note_on_c, 0, 78, 69
2, 48672, Note_on_c, 0, 69, 69
2, 48764, Note_off_c, 0, 78, 65
2, 48764, Note_off_c, 0, 69, 65
2, 48768, Note_on_c, 0, 81, 69
2, 48768, Note_on_c, 0, 62, 69
2, 48860, Note_off_c, 0, 62, 65
2, 48864, Note_on_c, 0, 69, 69
2, 48956, Note_off_c, 0, 81, 65
2, 48956, Note_off_c, 0, 69, 65
2, 48960, Note_on_c, 0, 81, 69
2, 48960, Note_on_c, 0, 66, 69
2, 49052, Note_off_c, 0, 66, 65
2, 49056, Note_on_c, 0, 69, 69
2, 49148, Note_off_c, 0, 81, 65
2, 49148, Note_off_c, 0, 69, 65
2, 49152, Note_on_c, 0, 73, 69
2, 49152, Note_on_c, 0, 67, 69
2, 49244, Note_off_c, 0, 67, 65
2, 49248, Note_on_c, 0, 69, 69
2, 49340, Note_off_c, 0, 69, 65
2, 49344, Note_on_c, 0, 64, 69
2, 49436, Note_off_c, 0, 73, 65
2, 49436, Note_off_c, 0, 64, 65
2, 49440, Note_on_c, 0, 74, 69
2, 49440, Note_on_c, 0, 67, 69
2, 49484, Note_off_c, 0, 74, 65
2, 49488, Note_on_c, 0, 76, 69
2, 49532, Note_off_c, 0, 67, 65
2, 49532, Note_off_c, 0, 76, 65
2, 49536, Note_on_c, 0, 74, 69
2, 49536, Note_on_c, 0, 66, 69
2, 49916, Note_off_c, 0, 74, 65
2, 49916, Note_off_c, 0, 66, 65
2, 51840, Note_on_c, 0, 79, 69
2, 51860, Note_off_c, 0, 79, 65
2, 51864, Note_on_c, 0, 81, 69
2, 51884, Note_off_c, 0, 81, 65
2, 51888, Note_on_c, 0, 79, 69
2, 51908, Note_off_c, 0, 79, 65
2, 51912, Note_on_c, 0, 81, 69
2, 51932, Note_off_c, 0, 81, 65
2, 51936, Note_on_c, 0, 79, 69
2, 51956, Note_off_c, 0, 79, 65
2, 51960, Note_on_c, 0, 81, 69
2, 51980, Note_off_c, 0, 81, 65
2, 51984, Note_on_c, 0, 79, 69
2, 52004, Note_off_c, 0, 79, 65
2, 52008, Note_on_c, 0, 81, 69
2, 52028, Note_off_c, 0, 81, 65
2, 52032, Note_on_c, 0, 79, 69
2, 52052, Note_off_c, 0, 79, 65
2, 52056, Note_on_c, 0, 81, 69
2, 52076, Note_off_c, 0, 81, 65
2, 52080, Note_on_c, 0, 78, 69
2, 52100, Note_off_c, 0, 78, 65
2, 52104, Note_on_c, 0, 79, 69
2, 52124, Note_off_c, 0, 79, 65
2, 52128, Note_on_c, 0, 81, 69
2, 52220, Note_off_c, 0, 81, 65
2, 52224, Note_on_c, 0, 83, 69
2, 52316, Note_off_c, 0, 83, 65
2, 52320, Note_on_c, 0, 79, 69
2, 52412, Note_off_c, 0, 79, 65
2, 52416, Note_on_c, 0, 78, 69
2, 52508, Note_off_c, 0, 78, 65
2, 52512, Note_on_c, 0, 76, 69
2, 52604, Note_off_c, 0, 76, 65
2, 52608, Note_on_c, 0, 75, 69
2, 52700, Note_off_c, 0, 75, 65
2, 52704, Note_on_c, 0, 76, 69
2, 52796, Note_off_c, 0, 76, 65
2, 52800, Note_on_c, 0, 78, 69
2, 52892, Note_off_c, 0, 78, 65
2, 52896, Note_on_c, 0, 79, 69
2, 52988, Note_off_c, 0, 79, 65
2, 52992, Note_on_c, 0, 78, 69
2, 53012, Note_off_c, 0, 78, 65
2, 53016, Note_on_c, 0, 79, 69
2, 53036, Note_off_c, 0, 79, 65
2, 53040, Note_on_c, 0, 78, 69
2, 53060, Note_off_c, 0, 78, 65
2, 53060, Note_on_c, 0, 79, 69
2, 53080, Note_off_c, 0, 79, 65
2, 53088, Note_on_c, 0, 78, 69
2, 53108, Note_off_c, 0, 78, 65
2, 53112, Note_on_c, 0, 79, 69
2, 53132, Note_off_c, 0, 79, 65
2, 53136, Note_on_c, 0, 78, 69
2, 53156, Note_off_c, 0, 78, 65
2, 53160, Note_on_c, 0, 79, 69
2, 53180, Note_off_c, 0, 79, 65
2, 53184, Note_on_c, 0, 78, 69
2, 53204, Note_off_c, 0, 78, 65
2, 53208, Note_on_c, 0, 79, 69
2, 53228, Note_off_c, 0, 79, 65
2, 53232, Note_on_c, 0, 76, 69
2, 53252, Note_off_c, 0, 76, 65
2, 53256, Note_on_c, 0, 78, 69
2, 53276, Note_off_c, 0, 78, 65
2, 53280, Note_on_c, 0, 79, 69
2, 53372, Note_off_c, 0, 79, 65
2, 53376, Note_on_c, 0, 81, 69
2, 53468, Note_off_c, 0, 81, 65
2, 53472, Note_on_c, 0, 78, 69
2, 53564, Note_off_c, 0, 78, 65
2, 53568, Note_on_c, 0, 76, 69
2, 53660, Note_off_c, 0, 76, 65
2, 53664, Note_on_c, 0, 74, 69
2, 53756, Note_off_c, 0, 74, 65
2, 53760, Note_on_c, 0, 73, 69
2, 53852, Note_off_c, 0, 73, 65
2, 53856, Note_on_c, 0, 74, 69
2, 53948, Note_off_c, 0, 74, 65
2, 53952, Note_on_c, 0, 76, 69
2, 54044, Note_off_c, 0, 76, 65
2, 54048, Note_on_c, 0, 78, 69
2, 54140, Note_off_c, 0, 78, 65
2, 54144, Note_on_c, 0, 78, 69
2, 54236, Note_off_c, 0, 78, 65
2, 54240, Note_on_c, 0, 71, 69
2, 54332, Note_off_c, 0, 71, 65
2, 54336, Note_on_c, 0, 79, 69
2, 54428, Note_off_c, 0, 79, 65
2, 54432, Note_on_c, 0, 76, 69
2, 54524, Note_off_c, 0, 76, 65
2, 54528, Note_on_c, 0, 74, 69
2, 54908, Note_off_c, 0, 74, 65
2, 54912, Note_on_c, 0, 73, 69
2, 54936, Note_off_c, 0, 73, 65
2, 54936, Note_on_c, 0, 74, 69
2, 54960, Note_off_c, 0, 74, 65
2, 54960, Note_on_c, 0, 73, 69
2, 54984, Note_off_c, 0, 73, 65
2, 54984, Note_on_c, 0, 74, 69
2, 55008, Note_off_c, 0, 74, 65
2, 55008, Note_on_c, 0, 73, 69
2, 55032, Note_off_c, 0, 73, 65
2, 55032, Note_on_c, 0, 74, 69
2, 55056, Note_off_c, 0, 74, 65
2, 55056, Note_on_c, 0, 73, 69
2, 55080, Note_off_c, 0, 73, 65
2, 55080, Note_on_c, 0, 74, 69
2, 55104, Note_off_c, 0, 74, 65
2, 55104, Note_on_c, 0, 71, 69
2, 55196, Note_off_c, 0, 71, 65
2, 55200, Note_on_c, 0, 73, 69
2, 55292, Note_off_c, 0, 73, 65
2, 55296, Note_on_c, 0, 74, 69
2, 55484, Note_off_c, 0, 74, 65
2, 55488, Note_on_c, 0, 80, 69
2, 55676, Note_off_c, 0, 80, 65
2, 55680, Note_on_c, 0, 80, 69
2, 56444, Note_off_c, 0, 80, 65
2, 56448, Note_on_c, 0, 81, 69
2, 56540, Note_off_c, 0, 81, 65
2, 56544, Note_on_c, 0, 83, 69
2, 56636, Note_off_c, 0, 83, 65
2, 56640, Note_on_c, 0, 78, 69
2, 56732, Note_off_c, 0, 78, 65
2, 56736, Note_on_c, 0, 79, 69
2, 56828, Note_off_c, 0, 79, 65
2, 56832, Note_on_c, 0, 79, 69
2, 56852, Note_off_c, 0, 79, 65
2, 56856, Note_on_c, 0, 81, 69
2, 56876, Note_off_c, 0, 81, 65
2, 56880, Note_on_c, 0, 79, 69
2, 56900, Note_off_c, 0, 79, 65
2, 56904, Note_on_c, 0, 81, 69
2, 56924, Note_off_c, 0, 81, 65
2, 56928, Note_on_c, 0, 79, 69
2, 56948, Note_off_c, 0, 79, 65
2, 56952, Note_on_c, 0, 81, 69
2, 56972, Note_off_c, 0, 81, 65
2, 56976, Note_on_c, 0, 79, 69
2, 56996, Note_off_c, 0, 79, 65
2, 57000, Note_on_c, 0, 81, 69
2, 57020, Note_off_c, 0, 81, 65
2, 57024, Note_on_c, 0, 79, 69
2, 57044, Note_off_c, 0, 79, 65
2, 57048, Note_on_c, 0, 81, 69
2, 57068, Note_off_c, 0, 81, 65
2, 57072, Note_on_c, 0, 79, 69
2, 57092, Note_off_c, 0, 79, 65
2, 57096, Note_on_c, 0, 81, 69
2, 57116, Note_off_c, 0, 81, 65
2, 57120, Note_on_c, 0, 79, 69
2, 57140, Note_off_c, 0, 79, 65
2, 57144, Note_on_c, 0, 81, 69
2, 57164, Note_off_c, 0, 81, 65
2, 57168, Note_on_c, 0, 79, 69
2, 57188, Note_off_c, 0, 79, 65
2, 57192, Note_on_c, 0, 81, 69
2, 57212, Note_off_c, 0, 81, 65
2, 57216, Note_on_c, 0, 79, 69
2, 57236, Note_off_c, 0, 79, 65
2, 57240, Note_on_c, 0, 81, 69
2, 57260, Note_off_c, 0, 81, 65
2, 57264, Note_on_c, 0, 79, 69
2, 57284, Note_off_c, 0, 79, 65
2, 57288, Note_on_c, 0, 81, 69
2, 57308, Note_off_c, 0, 81, 65
2, 57312, Note_on_c, 0, 79, 69
2, 57332, Note_off_c, 0, 79, 65
2, 57336, Note_on_c, 0, 81, 69
2, 57356, Note_off_c, 0, 81, 65
2, 57360, Note_on_c, 0, 79, 69
2, 57380, Note_off_c, 0, 79, 65
2, 57384, Note_on_c, 0, 81, 69
2, 57404, Note_off_c, 0, 81, 65
2, 57408, Note_on_c, 0, 78, 69
2, 57500, Note_off_c, 0, 78, 65
2, 57504, Note_on_c, 0, 79, 69
2, 57596, Note_off_c, 0, 79, 65
2, 57600, Note_on_c, 0, 78, 69
2, 57600, Note_on_c, 0, 74, 69
2, 57600, Note_on_c, 0, 69, 69
2, 57788, Note_off_c, 0, 78, 65
2, 57788, Note_off_c, 0, 74, 65
2, 57788, Note_off_c, 0, 69, 65
2, 57792, Note_on_c, 0, 79, 69
2, 57792, Note_on_c, 0, 71, 69
2, 57792, Note_on_c, 0, 67, 69
2, 57792, Note_on_c, 0, 74, 69
2, 57980, Note_off_c, 0, 79, 65
2, 57980, Note_off_c, 0, 71, 65
2, 57980, Note_off_c, 0, 67, 65
2, 57980, Note_off_c, 0, 74, 65
2, 57984, Note_on_c, 0, 81, 69
2, 57984, Note_on_c, 0, 74, 69
2, 57984, Note_on_c, 0, 69, 69
2, 58172, Note_off_c, 0, 81, 65
2, 58172, Note_off_c, 0, 74, 65
2, 58172, Note_off_c, 0, 69, 65
2, 58176, Note_on_c, 0, 83, 69
2, 58176, Note_on_c, 0, 79, 69
2, 58176, Note_on_c, 0, 74, 69
2, 58176, Note_on_c, 0, 71, 69
2, 58364, Note_off_c, 0, 83, 65
2, 58364, Note_off_c, 0, 79, 65
2, 58364, Note_off_c, 0, 74, 65
2, 58364, Note_off_c, 0, 71, 65
2, 58752, Note_on_c, 0, 74, 69
2, 59516, Note_off_c, 0, 74, 65
2, 59520, Note_on_c, 0, 76, 69
2, 59540, Note_off_c, 0, 76, 65
2, 59544, Note_on_c, 0, 78, 69
2, 59564, Note_off_c, 0, 78, 65
2, 59568, Note_on_c, 0, 76, 69
2, 59588, Note_off_c, 0, 76, 65
2, 59592, Note_on_c, 0, 78, 69
2, 59612, Note_off_c, 0, 78, 65
2, 59616, Note_on_c, 0, 76, 69
2, 59636, Note_off_c, 0, 76, 65
2, 59640, Note_on_c, 0, 78, 69
2, 59660, Note_off_c, 0, 78, 65
2, 59664, Note_on_c, 0, 76, 69
2, 59684, Note_off_c, 0, 76, 65
2, 59688, Note_on_c, 0, 78, 69
2, 59708, Note_off_c, 0, 78, 65
2, 59712, Note_on_c, 0, 76, 69
2, 59732, Note_off_c, 0, 76, 65
2, 59736, Note_on_c, 0, 78, 69
2, 59756, Note_off_c, 0, 78, 65
2, 59760, Note_on_c, 0, 76, 69
2, 59780, Note_off_c, 0, 76, 65
2, 59784, Note_on_c, 0, 78, 69
2, 59804, Note_off_c, 0, 78, 65
2, 59808, Note_on_c, 0, 74, 69
2, 59852, Note_off_c, 0, 74, 65
2, 59856, Note_on_c, 0, 76, 69
2, 59900, Note_off_c, 0, 76, 65
2, 59904, Note_on_c, 0, 81, 103
2, 59904, Note_on_c, 0, 78, 103
2, 59904, Note_on_c, 0, 74, 103
2, 59904, Note_on_c, 0, 69, 103
2, 60284, Note_off_c, 0, 81, 65
2, 60284, Note_off_c, 0, 78, 65
2, 60284, Note_off_c, 0, 74, 65
2, 60284, Note_off_c, 0, 69, 65
2, 60288, Note_on_c, 0, 81, 69
2, 60316, Note_off_c, 0, 81, 65
2, 60320, Note_on_c, 0, 83, 69
2, 60348, Note_off_c, 0, 83, 65
2, 60352, Note_on_c, 0, 81, 69
2, 60380, Note_off_c, 0, 81, 65
2, 60384, Note_on_c, 0, 79, 69
2, 60476, Note_off_c, 0, 79, 65
2, 60480, Note_on_c, 0, 78, 69
2, 60508, Note_off_c, 0, 78, 65
2, 60512, Note_on_c, 0, 79, 69
2, 60540, Note_off_c, 0, 79, 65
2, 60544, Note_on_c, 0, 78, 69
2, 60572, Note_off_c, 0, 78, 65
2, 60576, Note_on_c, 0, 76, 69
2, 60668, Note_off_c, 0, 76, 65
2, 60672, Note_on_c, 0, 74, 69
2, 60700, Note_off_c, 0, 74, 65
2, 60704, Note_on_c, 0, 76, 69
2, 60732, Note_off_c, 0, 76, 65
2, 60736, Note_on_c, 0, 74, 69
2, 60764, Note_off_c, 0, 74, 65
2, 60768, Note_on_c, 0, 73, 69
2, 60860, Note_off_c, 0, 73, 65
2, 60864, Note_on_c, 0, 71, 69
2, 60892, Note_off_c, 0, 71, 65
2, 60896, Note_on_c, 0, 73, 69
2, 60924, Note_off_c, 0, 73, 65
2, 60928, Note_on_c, 0, 71, 69
2, 60956, Note_off_c, 0, 71, 65
2, 60960, Note_on_c, 0, 69, 69
2, 61052, Note_off_c, 0, 69, 65
2, 61056, Note_on_c, 0, 83, 103
2, 61056, Note_on_c, 0, 79, 103
2, 61056, Note_on_c, 0, 74, 103
2, 61056, Note_on_c, 0, 71, 103
2, 61436, Note_off_c, 0, 83, 65
2, 61436, Note_off_c, 0, 79, 65
2, 61436, Note_off_c, 0, 74, 65
2, 61436, Note_off_c, 0, 71, 65
2, 61440, Note_on_c, 0, 83, 69
2, 61468, Note_off_c, 0, 83, 65
2, 61472, Note_on_c, 0, 85, 69
2, 61500, Note_off_c, 0, 85, 65
2, 61504, Note_on_c, 0, 83, 69
2, 61532, Note_off_c, 0, 83, 65
2, 61536, Note_on_c, 0, 81, 69
2, 61628, Note_off_c, 0, 81, 65
2, 61632, Note_on_c, 0, 79, 69
2, 61660, Note_off_c, 0, 79, 65
2, 61664, Note_on_c, 0, 81, 69
2, 61692, Note_off_c, 0, 81, 65
2, 61696, Note_on_c, 0, 79, 69
2, 61724, Note_off_c, 0, 79, 65
2, 61728, Note_on_c, 0, 78, 69
2, 61820, Note_off_c, 0, 78, 65
2, 61824, Note_on_c, 0, 76, 69
2, 61852, Note_off_c, 0, 76, 65
2, 61856, Note_on_c, 0, 78, 69
2, 61884, Note_off_c, 0, 78, 65
2, 61888, Note_on_c, 0, 76, 69
2, 61916, Note_off_c, 0, 76, 65
2, 61920, Note_on_c, 0, 74, 69
2, 62012, Note_off_c, 0, 74, 65
2, 62016, Note_on_c, 0, 73, 69
2, 62044, Note_off_c, 0, 73, 65
2, 62048, Note_on_c, 0, 74, 69
2, 62076, Note_off_c, 0, 74, 65
2, 62080, Note_on_c, 0, 73, 69
2, 62108, Note_off_c, 0, 73, 65
2, 62112, Note_on_c, 0, 71, 69
2, 62204, Note_off_c, 0, 71, 65
2, 62208, Note_on_c, 0, 69, 69
2, 62588, Note_off_c, 0, 69, 65
2, 62592, Note_on_c, 0, 69, 69
2, 62780, Note_off_c, 0, 69, 65
2, 62784, Note_on_c, 0, 71, 69
2, 62812, Note_off_c, 0, 71, 65
2, 62816, Note_on_c, 0, 73, 69
2, 62844, Note_off_c, 0, 73, 65
2, 62848, Note_on_c, 0, 74, 69
2, 62876, Note_off_c, 0, 74, 65
2, 62880, Note_on_c, 0, 76, 69
2, 62908, Note_off_c, 0, 76, 65
2, 62912, Note_on_c, 0, 78, 69
2, 62940, Note_off_c, 0, 78, 65
2, 62944, Note_on_c, 0, 79, 69
2, 62972, Note_off_c, 0, 79, 65
2, 62976, Note_on_c, 0, 81, 69
2, 63068, Note_off_c, 0, 81, 65
2, 63072, Note_on_c, 0, 78, 69
2, 63164, Note_off_c, 0, 78, 65
2, 63168, Note_on_c, 0, 78, 69
2, 63260, Note_off_c, 0, 78, 65
2, 63264, Note_on_c, 0, 74, 69
2, 63356, Note_off_c, 0, 74, 65
2, 63360, Note_on_c, 0, 76, 70
2, 63380, Note_off_c, 0, 76, 65
2, 63384, Note_on_c, 0, 78, 70
2, 63404, Note_off_c, 0, 78, 65
2, 63408, Note_on_c, 0, 76, 71
2, 63428, Note_off_c, 0, 76, 65
2, 63432, Note_on_c, 0, 78, 71
2, 63452, Note_off_c, 0, 78, 65
2, 63456, Note_on_c, 0, 76, 72
2, 63476, Note_off_c, 0, 76, 65
2, 63480, Note_on_c, 0, 78, 73
2, 63500, Note_off_c, 0, 78, 65
2, 63504, Note_on_c, 0, 76, 73
2, 63524, Note_off_c, 0, 76, 65
2, 63528, Note_on_c, 0, 78, 74
2, 63548, Note_off_c, 0, 78, 65
2, 63552, Note_on_c, 0, 76, 74
2, 63572, Note_off_c, 0, 76, 65
2, 63576, Note_on_c, 0, 78, 75
2, 63596, Note_off_c, 0, 78, 65
2, 63600, Note_on_c, 0, 76, 76
2, 63620, Note_off_c, 0, 76, 65
2, 63624, Note_on_c, 0, 78, 76
2, 63644, Note_off_c, 0, 78, 65
2, 63648, Note_on_c, 0, 76, 77
2, 63668, Note_off_c, 0, 76, 65
2, 63672, Note_on_c, 0, 78, 77
2, 63692, Note_off_c, 0, 78, 65
2, 63696, Note_on_c, 0, 76, 78
2, 63716, Note_off_c, 0, 76, 65
2, 63720, Note_on_c, 0, 78, 80
2, 63740, Note_off_c, 0, 78, 65
2, 63744, Note_on_c, 0, 76, 80
2, 63764, Note_off_c, 0, 76, 65
2, 63768, Note_on_c, 0, 78, 81
2, 63788, Note_off_c, 0, 78, 65
2, 63792, Note_on_c, 0, 76, 81
2, 63812, Note_off_c, 0, 76, 65
2, 63816, Note_on_c, 0, 78, 82
2, 63836, Note_off_c, 0, 78, 65
2, 63840, Note_on_c, 0, 76, 84
2, 63860, Note_off_c, 0, 76, 65
2, 63864, Note_on_c, 0, 78, 84
2, 63884, Note_off_c, 0, 78, 65
2, 63888, Note_on_c, 0, 76, 85
2, 63908, Note_off_c, 0, 76, 65
2, 63912, Note_on_c, 0, 78, 86
2, 63932, Note_off_c, 0, 78, 65
2, 63936, Note_on_c, 0, 76, 86
2, 63956, Note_off_c, 0, 76, 65
2, 63960, Note_on_c, 0, 78, 87
2, 63980, Note_off_c, 0, 78, 65
2, 63984, Note_on_c, 0, 76, 87
2, 64004, Note_off_c, 0, 76, 65
2, 64008, Note_on_c, 0, 78, 88
2, 64028, Note_off_c, 0, 78, 65
2, 64032, Note_on_c, 0, 76, 89
2, 64052, Note_off_c, 0, 76, 65
2, 64056, Note_on_c, 0, 78, 89
2, 64076, Note_off_c, 0, 78, 65
2, 64080, Note_on_c, 0, 76, 90
2, 64100, Note_off_c, 0, 76, 65
2, 64104, Note_on_c, 0, 78, 90
2, 64124, Note_off_c, 0, 78, 65
2, 64128, Note_on_c, 0, 76, 92
2, 64148, Note_off_c, 0, 76, 65
2, 64152, Note_on_c, 0, 78, 93
2, 64172, Note_off_c, 0, 78, 65
2, 64176, Note_on_c, 0, 76, 93
2, 64196, Note_off_c, 0, 76, 65
2, 64200, Note_on_c, 0, 78, 94
2, 64220, Note_off_c, 0, 78, 65
2, 64224, Note_on_c, 0, 76, 95
2, 64244, Note_off_c, 0, 76, 65
2, 64248, Note_on_c, 0, 78, 96
2, 64268, Note_off_c, 0, 78, 65
2, 64272, Note_on_c, 0, 76, 97
2, 64292, Note_off_c, 0, 76, 65
2, 64296, Note_on_c, 0, 78, 98
2, 64316, Note_off_c, 0, 78, 65
2, 64320, Note_on_c, 0, 74, 99
2, 64412, Note_off_c, 0, 74, 65
2, 64416, Note_on_c, 0, 76, 100
2, 64508, Note_off_c, 0, 76, 65
2, 64512, Note_on_c, 0, 74, 103
2, 64892, Note_off_c, 0, 74, 65
2, 70272, Note_on_c, 0, 74, 92
2, 70272, Note_on_c, 0, 62, 92
2, 70364, Note_off_c, 0, 62, 65
2, 70368, Note_on_c, 0, 69, 92
2, 70460, Note_off_c, 0, 69, 65
2, 70464, Note_on_c, 0, 66, 92
2, 70556, Note_off_c, 0, 66, 65
2, 70560, Note_on_c, 0, 69, 92
2, 70652, Note_off_c, 0, 74, 65
2, 70652, Note_off_c, 0, 69, 65
2, 70656, Note_on_c, 0, 74, 92
2, 70656, Note_on_c, 0, 62, 92
2, 70748, Note_off_c, 0, 62, 65
2, 70752, Note_on_c, 0, 69, 92
2, 70844, Note_off_c, 0, 69, 65
2, 70848, Note_on_c, 0, 66, 92
2, 70940, Note_off_c, 0, 66, 65
2, 70944, Note_on_c, 0, 69, 92
2, 71036, Note_off_c, 0, 69, 65
2, 71040, Note_on_c, 0, 62, 92
2, 71132, Note_off_c, 0, 62, 65
2, 71136, Note_on_c, 0, 69, 92
2, 71228, Note_off_c, 0, 74, 65
2, 71228, Note_off_c, 0, 69, 65
2, 71232, Note_on_c, 0, 86, 92
2, 71232, Note_on_c, 0, 66, 92
2, 71324, Note_off_c, 0, 66, 65
2, 71328, Note_on_c, 0, 69, 92
2, 71420, Note_off_c, 0, 86, 65
2, 71420, Note_off_c, 0, 69, 65
2, 71424, Note_on_c, 0, 86, 92
2, 71424, Note_on_c, 0, 62, 92
2, 71516, Note_off_c, 0, 62, 65
2, 71520, Note_on_c, 0, 71, 92
2, 71612, Note_off_c, 0, 86, 65
2, 71612, Note_off_c, 0, 71, 65
2, 71616, Note_on_c, 0, 76, 92
2, 71616, Note_on_c, 0, 68, 92
2, 71708, Note_off_c, 0, 68, 65
2, 71712, Note_on_c, 0, 71, 92
2, 71804, Note_off_c, 0, 76, 65
2, 71804, Note_off_c, 0, 71, 65
2, 71808, Note_on_c, 0, 76, 92
2, 71808, Note_on_c, 0, 62, 92
2, 71900, Note_off_c, 0, 62, 65
2, 71904, Note_on_c, 0, 71, 92
2, 71996, Note_off_c, 0, 71, 65
2, 72000, Note_on_c, 0, 68, 92
2, 72092, Note_off_c, 0, 68, 65
2, 72096, Note_on_c, 0, 71, 92
2, 72188, Note_off_c, 0, 71, 65
2, 72192, Note_on_c, 0, 62, 90
2, 72284, Note_off_c, 0, 62, 65
2, 72288, Note_on_c, 0, 72, 90
2, 72380, Note_off_c, 0, 76, 65
2, 72380, Note_off_c, 0, 72, 65
2, 72384, Note_on_c, 0, 84, 89
2, 72384, Note_on_c, 0, 69, 89
2, 72476, Note_off_c, 0, 69, 65
2, 72480, Note_on_c, 0, 72, 88
2, 72572, Note_off_c, 0, 84, 65
2, 72572, Note_off_c, 0, 72, 65
2, 72576, Note_on_c, 0, 84, 87
2, 72576, Note_on_c, 0, 62, 87
2, 72668, Note_off_c, 0, 62, 65
2, 72672, Note_on_c, 0, 69, 87
2, 72764, Note_off_c, 0, 84, 65
2, 72764, Note_off_c, 0, 69, 65
2, 72768, Note_on_c, 0, 74, 86
2, 72768, Note_on_c, 0, 66, 86
2, 72860, Note_off_c, 0, 66, 65
2, 72864, Note_on_c, 0, 69, 85
2, 72956, Note_off_c, 0, 74, 65
2, 72956, Note_off_c, 0, 69, 65
2, 72960, Note_on_c, 0, 74, 84
2, 72960, Note_on_c, 0, 62, 84
2, 73052, Note_off_c, 0, 62, 65
2, 73056, Note_on_c, 0, 69, 84
2, 73148, Note_off_c, 0, 69, 65
2, 73152, Note_on_c, 0, 66, 82
2, 73244, Note_off_c, 0, 66, 65
2, 73248, Note_on_c, 0, 69, 81
2, 73340, Note_off_c, 0, 69, 65
2, 73344, Note_on_c, 0, 62, 80
2, 73436, Note_off_c, 0, 62, 65
2, 73440, Note_on_c, 0, 71, 80
2, 73532, Note_off_c, 0, 74, 65
2, 73532, Note_off_c, 0, 71, 65
2, 73536, Note_on_c, 0, 83, 78
2, 73536, Note_on_c, 0, 67, 78
2, 73628, Note_off_c, 0, 67, 65
2, 73632, Note_on_c, 0, 71, 77
2, 73724, Note_off_c, 0, 83, 65
2, 73724, Note_off_c, 0, 71, 65
2, 73728, Note_on_c, 0, 62, 76
2, 73728, Note_on_c, 0, 74, 76
2, 73820, Note_off_c, 0, 62, 65
2, 73824, Note_on_c, 0, 69, 76
2, 73916, Note_off_c, 0, 74, 65
2, 73916, Note_off_c, 0, 69, 65
2, 73920, Note_on_c, 0, 66, 75
2, 73920, Note_on_c, 0, 72, 75
2, 74012, Note_off_c, 0, 66, 65
2, 74016, Note_on_c, 0, 69, 74
2, 74108, Note_off_c, 0, 72, 65
2, 74108, Note_off_c, 0, 69, 65
2, 74112, Note_on_c, 0, 62, 73
2, 74112, Note_on_c, 0, 81, 73
2, 74204, Note_off_c, 0, 62, 65
2, 74208, Note_on_c, 0, 69, 73
2, 74300, Note_off_c, 0, 81, 65
2, 74300, Note_off_c, 0, 69, 65
2, 74304, Note_on_c, 0, 66, 72
2, 74304, Note_on_c, 0, 72, 72
2, 74396, Note_off_c, 0, 66, 65
2, 74400, Note_on_c, 0, 69, 71
2, 74492, Note_off_c, 0, 72, 65
2, 74492, Note_off_c, 0, 69, 65
2, 74496, Note_on_c, 0, 62, 70
2, 74496, Note_on_c, 0, 71, 70
2, 74588, Note_off_c, 0, 62, 65
2, 74592, Note_on_c, 0, 67, 70
2, 74684, Note_off_c, 0, 71, 65
2, 74684, Note_off_c, 0, 67, 65
2, 74688, Note_on_c, 0, 71, 69
2, 74688, Note_on_c, 0, 79, 69
2, 74780, Note_off_c, 0, 71, 65
2, 74784, Note_on_c, 0, 67, 69
2, 74876, Note_off_c, 0, 79, 65
2, 74876, Note_off_c, 0, 67, 65
2, 74880, Note_on_c, 0, 62, 69
2, 74880, Note_on_c, 0, 71, 69
2, 74880, Note_on_c, 0, 67, 69
2, 74904, Note_off_c, 0, 71, 65
2, 74904, Note_off_c, 0, 67, 65
2, 74904, Note_on_c, 0, 72, 69
2, 74904, Note_on_c, 0, 69, 69
2, 74928, Note_off_c, 0, 72, 65
2, 74928, Note_off_c, 0, 69, 65
2, 74928, Note_on_c, 0, 71, 69
2, 74928, Note_on_c, 0, 67, 69
2, 74952, Note_off_c, 0, 71, 65
2, 74952, Note_off_c, 0, 67, 65
2, 74952, Note_on_c, 0, 72, 69
2, 74952, Note_on_c, 0, 69, 69
2, 74976, Note_off_c, 0, 72, 65
2, 74976, Note_off_c, 0, 69, 65
2, 74976, Note_on_c, 0, 71, 69
2, 74976, Note_on_c, 0, 67, 69
2, 75000, Note_off_c, 0, 71, 65
2, 75000, Note_off_c, 0, 67, 65
2, 75000, Note_on_c, 0, 72, 69
2, 75000, Note_on_c, 0, 69, 69
2, 75024, Note_off_c, 0, 72, 65
2, 75024, Note_off_c, 0, 69, 65
2, 75024, Note_on_c, 0, 71, 69
2, 75024, Note_on_c, 0, 67, 69
2, 75048, Note_off_c, 0, 71, 65
2, 75048, Note_off_c, 0, 67, 65
2, 75048, Note_on_c, 0, 72, 69
2, 75048, Note_on_c, 0, 69, 69
2, 75072, Note_off_c, 0, 72, 65
2, 75072, Note_off_c, 0, 69, 65
2, 75072, Note_on_c, 0, 71, 69
2, 75072, Note_on_c, 0, 67, 69
2, 75096, Note_off_c, 0, 71, 65
2, 75096, Note_off_c, 0, 67, 65
2, 75096, Note_on_c, 0, 72, 69
2, 75096, Note_on_c, 0, 69, 69
2, 75120, Note_off_c, 0, 72, 65
2, 75120, Note_off_c, 0, 69, 65
2, 75120, Note_on_c, 0, 71, 69
2, 75120, Note_on_c, 0, 67, 69
2, 75144, Note_off_c, 0, 71, 65
2, 75144, Note_off_c, 0, 67, 65
2, 75144, Note_on_c, 0, 72, 69
2, 75144, Note_on_c, 0, 69, 69
2, 75168, Note_off_c, 0, 72, 65
2, 75168, Note_off_c, 0, 69, 65
2, 75168, Note_on_c, 0, 69, 69
2, 75168, Note_on_c, 0, 66, 69
2, 75212, Note_off_c, 0, 69, 65
2, 75212, Note_off_c, 0, 66, 65
2, 75216, Note_on_c, 0, 71, 69
2, 75216, Note_on_c, 0, 67, 69
2, 75260, Note_off_c, 0, 62, 65
2, 75260, Note_off_c, 0, 71, 65
2, 75260, Note_off_c, 0, 67, 65
2, 75264, Note_on_c, 0, 69, 69
2, 75264, Note_on_c, 0, 66, 69
2, 75264, Note_on_c, 0, 62, 69
2, 75644, Note_off_c, 0, 69, 65
2, 75644, Note_off_c, 0, 66, 65
2, 75644, Note_off_c, 0, 62, 65
2, 81792, Note_on_c, 0, 74, 69
2, 81792, Note_on_c, 0, 71, 69
2, 82172, Note_off_c, 0, 74, 65
2, 82172, Note_off_c, 0, 71, 65
2, 82176, Note_on_c, 0, 72, 69
2, 82176, Note_on_c, 0, 69, 69
2, 82364, Note_off_c, 0, 72, 65
2, 82364, Note_off_c, 0, 69, 65
2, 82368, Note_on_c, 0, 71, 69
2, 82368, Note_on_c, 0, 67, 69
2, 82556, Note_off_c, 0, 71, 65
2, 82556, Note_off_c, 0, 67, 65
2, 82560, Note_on_c, 0, 72, 69
2, 82560, Note_on_c, 0, 76, 69
2, 82748, Note_off_c, 0, 72, 65
2, 82748, Note_off_c, 0, 76, 65
2, 82752, Note_on_c, 0, 74, 69
2, 82752, Note_on_c, 0, 71, 69
2, 82940, Note_off_c, 0, 74, 65
2, 82940, Note_off_c, 0, 71, 65
2, 82944, Note_on_c, 0, 74, 69
2, 82944, Note_on_c, 0, 71, 69
2, 83324, Note_off_c, 0, 74, 65
2, 83324, Note_off_c, 0, 71, 65
2, 83328, Note_on_c, 0, 79, 69
2, 83328, Note_on_c, 0, 76, 69
2, 83900, Note_off_c, 0, 79, 65
2, 83900, Note_off_c, 0, 76, 65
2, 83904, Note_on_c, 0, 78, 69
2, 83904, Note_on_c, 0, 74, 69
2, 84092, Note_off_c, 0, 78, 65
2, 84092, Note_off_c, 0, 74, 65
2, 84096, Note_on_c, 0, 78, 69
2, 84096, Note_on_c, 0, 74, 69
2, 84284, Note_off_c, 0, 78, 65
2, 84284, Note_off_c, 0, 74, 65
2, 84288, Note_on_c, 0, 76, 69
2, 84288, Note_on_c, 0, 72, 69
2, 84476, Note_off_c, 0, 76, 65
2, 84476, Note_off_c, 0, 72, 65
2, 84480, Note_on_c, 0, 74, 69
2, 84480, Note_on_c, 0, 71, 69
2, 84860, Note_off_c, 0, 74, 65
2, 84860, Note_off_c, 0, 71, 65
2, 86400, Note_on_c, 0, 74, 69
2, 86780, Note_off_c, 0, 74, 65
2, 86784, Note_on_c, 0, 74, 69
2, 86876, Note_off_c, 0, 74, 65
2, 86880, Note_on_c, 0, 76, 69
2, 86924, Note_off_c, 0, 76, 65
2, 86928, Note_on_c, 0, 78, 69
2, 86972, Note_off_c, 0, 78, 65
2, 86976, Note_on_c, 0, 79, 69
2, 87020, Note_off_c, 0, 79, 65
2, 87024, Note_on_c, 0, 81, 69
2, 87068, Note_off_c, 0, 81, 65
2, 87072, Note_on_c, 0, 83, 69
2, 87116, Note_off_c, 0, 83, 65
2, 87120, Note_on_c, 0, 84, 69
2, 87164, Note_off_c, 0, 84, 65
2, 87168, Note_on_c, 0, 86, 69
2, 87228, Note_off_c, 0, 86, 65
2, 87232, Note_on_c, 0, 83, 69
2, 87292, Note_off_c, 0, 83, 65
2, 87296, Note_on_c, 0, 79, 69
2, 87356, Note_off_c, 0, 79, 65
2, 87360, Note_on_c, 0, 83, 69
2, 87420, Note_off_c, 0, 83, 65
2, 87424, Note_on_c, 0, 79, 69
2, 87484, Note_off_c, 0, 79, 65
2, 87488, Note_on_c, 0, 74, 69
2, 87548, Note_off_c, 0, 74, 65
2, 87552, Note_on_c, 0, 76, 69
2, 87612, Note_off_c, 0, 76, 65
2, 87616, Note_on_c, 0, 78, 69
2, 87676, Note_off_c, 0, 78, 65
2, 87680, Note_on_c, 0, 79, 69
2, 87740, Note_off_c, 0, 79, 65
2, 87744, Note_on_c, 0, 69, 69
2, 87804, Note_off_c, 0, 69, 65
2, 87808, Note_on_c, 0, 72, 69
2, 87868, Note_off_c, 0, 72, 65
2, 87872, Note_on_c, 0, 76, 69
2, 87932, Note_off_c, 0, 76, 65
2, 87936, Note_on_c, 0, 67, 69
2, 88316, Note_off_c, 0, 67, 65
2, 88320, Note_on_c, 0, 69, 69
2, 88340, Note_off_c, 0, 69, 65
2, 88344, Note_on_c, 0, 71, 69
2, 88364, Note_off_c, 0, 71, 65
2, 88368, Note_on_c, 0, 69, 69
2, 88388, Note_off_c, 0, 69, 65
2, 88392, Note_on_c, 0, 71, 69
2, 88412, Note_off_c, 0, 71, 65
2, 88416, Note_on_c, 0, 69, 69
2, 88436, Note_off_c, 0, 69, 65
2, 88440, Note_on_c, 0, 71, 69
2, 88460, Note_off_c, 0, 71, 65
2, 88464, Note_on_c, 0, 69, 69
2, 88484, Note_off_c, 0, 69, 65
2, 88488, Note_on_c, 0, 71, 69
2, 88508, Note_off_c, 0, 71, 65
2, 88512, Note_on_c, 0, 69, 69
2, 88532, Note_off_c, 0, 69, 65
2, 88536, Note_on_c, 0, 71, 69
2, 88556, Note_off_c, 0, 71, 65
2, 88560, Note_on_c, 0, 69, 69
2, 88580, Note_off_c, 0, 69, 65
2, 88584, Note_on_c, 0, 71, 69
2, 88604, Note_off_c, 0, 71, 65
2, 88608, Note_on_c, 0, 67, 69
2, 88652, Note_off_c, 0, 67, 65
2, 88656, Note_on_c, 0, 69, 69
2, 88700, Note_off_c, 0, 69, 65
2, 88704, Note_on_c, 0, 67, 69
2, 89084, Note_off_c, 0, 67, 65
2, 91008, Note_on_c, 0, 79, 69
2, 91028, Note_off_c, 0, 79, 65
2, 91032, Note_on_c, 0, 81, 69
2, 91052, Note_off_c, 0, 81, 65
2, 91056, Note_on_c, 0, 79, 69
2, 91076, Note_off_c, 0, 79, 65
2, 91080, Note_on_c, 0, 81, 69
2, 91100, Note_off_c, 0, 81, 65
2, 91104, Note_on_c, 0, 79, 69
2, 91124, Note_off_c, 0, 79, 65
2, 91128, Note_on_c, 0, 81, 69
2, 91148, Note_off_c, 0, 81, 65
2, 91152, Note_on_c, 0, 79, 69
2, 91172, Note_off_c, 0, 79, 65
2, 91176, Note_on_c, 0, 81, 69
2, 91196, Note_off_c, 0, 81, 65
2, 91200, Note_on_c, 0, 79, 69
2, 91220, Note_off_c, 0, 79, 65
2, 91224, Note_on_c, 0, 81, 69
2, 91244, Note_off_c, 0, 81, 65
2, 91248, Note_on_c, 0, 79, 69
2, 91268, Note_off_c, 0, 79, 65
2, 91272, Note_on_c, 0, 81, 69
2, 91292, Note_off_c, 0, 81, 65
2, 91296, Note_on_c, 0, 79, 69
2, 91316, Note_off_c, 0, 79, 65
2, 91320, Note_on_c, 0, 81, 69
2, 91340, Note_off_c, 0, 81, 65
2, 91344, Note_on_c, 0, 79, 69
2, 91364, Note_off_c, 0, 79, 65
2, 91368, Note_on_c, 0, 81, 69
2, 91388, Note_off_c, 0, 81, 65
2, 91392, Note_on_c, 0, 79, 69
2, 91412, Note_off_c, 0, 79, 65
2, 91416, Note_on_c, 0, 81, 69
2, 91436, Note_off_c, 0, 81, 65
2, 91440, Note_on_c, 0, 79, 69
2, 91460, Note_off_c, 0, 79, 65
2, 91464, Note_on_c, 0, 81, 69
2, 91484, Note_off_c, 0, 81, 65
2, 91488, Note_on_c, 0, 79, 69
2, 91508, Note_off_c, 0, 79, 65
2, 91512, Note_on_c, 0, 81, 69
2, 91532, Note_off_c, 0, 81, 65
2, 91536, Note_on_c, 0, 79, 69
2, 91556, Note_off_c, 0, 79, 65
2, 91560, Note_on_c, 0, 81, 69
2, 91580, Note_off_c, 0, 81, 65
2, 91584, Note_on_c, 0, 79, 69
2, 91628, Note_off_c, 0, 79, 65
2, 91632, Note_on_c, 0, 78, 69
2, 91676, Note_off_c, 0, 78, 65
2, 91680, Note_on_c, 0, 79, 69
2, 91724, Note_off_c, 0, 79, 65
2, 91728, Note_on_c, 0, 81, 69
2, 91772, Note_off_c, 0, 81, 65
2, 91776, Note_on_c, 0, 79, 69
2, 91964, Note_off_c, 0, 79, 65
2, 91968, Note_on_c, 0, 71, 69
2, 92156, Note_off_c, 0, 71, 65
2, 92160, Note_on_c, 0, 74, 69
2, 92348, Note_off_c, 0, 74, 65
2, 92352, Note_on_c, 0, 72, 69
2, 92540, Note_off_c, 0, 72, 65
2, 92544, Note_on_c, 0, 72, 69
2, 93116, Note_off_c, 0, 72, 65
2, 93120, Note_on_c, 0, 72, 69
2, 93308, Note_off_c, 0, 72, 65
2, 93312, Note_on_c, 0, 72, 69
2, 93692, Note_off_c, 0, 72, 65
2, 93696, Note_on_c, 0, 71, 69
2, 93788, Note_off_c, 0, 71, 65
2, 93792, Note_on_c, 0, 72, 69
2, 93884, Note_off_c, 0, 72, 65
2, 93888, Note_on_c, 0, 74, 69
2, 93980, Note_off_c, 0, 74, 65
2, 93984, Note_on_c, 0, 76, 69
2, 94076, Note_off_c, 0, 76, 65
2, 94080, Note_on_c, 0, 77, 69
2, 94172, Note_off_c, 0, 77, 65
2, 94176, Note_on_c, 0, 74, 69
2, 94268, Note_off_c, 0, 74, 65
2, 94272, Note_on_c, 0, 71, 69
2, 94364, Note_off_c, 0, 71, 65
2, 94368, Note_on_c, 0, 65, 69
2, 94460, Note_off_c, 0, 65, 65
2, 94464, Note_on_c, 0, 65, 69
2, 94484, Note_off_c, 0, 65, 65
2, 94488, Note_on_c, 0, 67, 69
2, 94508, Note_off_c, 0, 67, 65
2, 94512, Note_on_c, 0, 65, 69
2, 94532, Note_off_c, 0, 65, 65
2, 94536, Note_on_c, 0, 67, 69
2, 94556, Note_off_c, 0, 67, 65
2, 94560, Note_on_c, 0, 65, 69
2, 94580, Note_off_c, 0, 65, 65
2, 94584, Note_on_c, 0, 67, 69
2, 94604, Note_off_c, 0, 67, 65
2, 94608, Note_on_c, 0, 65, 69
2, 94628, Note_off_c, 0, 65, 65
2, 94632, Note_on_c, 0, 67, 69
2, 94652, Note_off_c, 0, 67, 65
2, 94656, Note_on_c, 0, 65, 69
2, 94676, Note_off_c, 0, 65, 65
2, 94680, Note_on_c, 0, 67, 69
2, 94700, Note_off_c, 0, 67, 65
2, 94704, Note_on_c, 0, 65, 69
2, 94724, Note_off_c, 0, 65, 65
2, 94728, Note_on_c, 0, 67, 69
2, 94748, Note_off_c, 0, 67, 65
2, 94752, Note_on_c, 0, 64, 69
2, 94796, Note_off_c, 0, 64, 65
2, 94800, Note_on_c, 0, 65, 69
2, 94844, Note_off_c, 0, 65, 65
2, 94848, Note_on_c, 0, 64, 69
2, 95228, Note_off_c, 0, 64, 65
2, 95328, Note_on_c, 0, 76, 69
2, 95420, Note_off_c, 0, 76, 65
2, 95424, Note_on_c, 0, 74, 69
2, 95516, Note_off_c, 0, 74, 65
2, 95520, Note_on_c, 0, 72, 69
2, 95612, Note_off_c, 0, 72, 65
2, 95616, Note_on_c, 0, 71, 69
2, 95804, Note_off_c, 0, 71, 65
2, 95808, Note_on_c, 0, 69, 69
2, 95996, Note_off_c, 0, 69, 65
2, 96000, Note_on_c, 0, 69, 69
2, 96572, Note_off_c, 0, 69, 65
2, 96576, Note_on_c, 0, 71, 69
2, 96764, Note_off_c, 0, 71, 65
2, 96768, Note_on_c, 0, 71, 69
2, 96956, Note_off_c, 0, 71, 65
2, 96960, Note_on_c, 0, 72, 69
2, 97148, Note_off_c, 0, 72, 65
2, 97152, Note_on_c, 0, 72, 69
2, 97724, Note_off_c, 0, 72, 65
2, 97728, Note_on_c, 0, 71, 69
2, 97916, Note_off_c, 0, 71, 65
2, 97920, Note_on_c, 0, 69, 69
2, 98016, Note_on_c, 0, 67, 69
2, 98108, Note_off_c, 0, 69, 65
2, 98108, Note_off_c, 0, 67, 65
2, 98112, Note_on_c, 0, 81, 69
2, 98112, Note_on_c, 0, 66, 69
2, 98204, Note_off_c, 0, 66, 65
2, 98208, Note_on_c, 0, 67, 69
2, 98300, Note_off_c, 0, 81, 65
2, 98300, Note_off_c, 0, 67, 65
2, 98304, Note_on_c, 0, 81, 69
2, 98304, Note_on_c, 0, 60, 69
2, 98396, Note_off_c, 0, 60, 65
2, 98400, Note_on_c, 0, 67, 69
2, 98492, Note_off_c, 0, 67, 65
2, 98496, Note_on_c, 0, 66, 69
2, 98588, Note_off_c, 0, 66, 65
2, 98592, Note_on_c, 0, 67, 69
2, 98684, Note_off_c, 0, 67, 65
2, 98688, Note_on_c, 0, 60, 69
2, 98780, Note_off_c, 0, 60, 65
2, 98784, Note_on_c, 0, 67, 69
2, 98876, Note_off_c, 0, 81, 65
2, 98876, Note_off_c, 0, 67, 65
2, 98880, Note_on_c, 0, 83, 69
2, 98880, Note_on_c, 0, 62, 69
2, 98972, Note_off_c, 0, 62, 65
2, 98976, Note_on_c, 0, 67, 69
2, 99068, Note_off_c, 0, 83, 65
2, 99068, Note_off_c, 0, 67, 65
2, 99072, Note_on_c, 0, 64, 69
2, 99072, Note_on_c, 0, 83, 69
2, 99164, Note_off_c, 0, 64, 65
2, 99168, Note_on_c, 0, 67, 69
2, 99260, Note_off_c, 0, 83, 65
2, 99260, Note_off_c, 0, 67, 65
2, 99264, Note_on_c, 0, 66, 69
2, 99264, Note_on_c, 0, 84, 69
2, 99356, Note_off_c, 0, 66, 65
2, 99360, Note_on_c, 0, 67, 69
2, 99452, Note_off_c, 0, 84, 65
2, 99452, Note_off_c, 0, 67, 65
2, 99456, Note_on_c, 0, 64, 69
2, 99456, Note_on_c, 0, 84, 69
2, 99548, Note_off_c, 0, 64, 65
2, 99552, Note_on_c, 0, 67, 69
2, 99644, Note_off_c, 0, 67, 65
2, 99648, Note_on_c, 0, 66, 69
2, 99740, Note_off_c, 0, 66, 65
2, 99744, Note_on_c, 0, 67, 69
2, 99836, Note_off_c, 0, 67, 65
2, 99840, Note_on_c, 0, 64, 69
2, 99932, Note_off_c, 0, 64, 65
2, 99936, Note_on_c, 0, 67, 69
2, 100028, Note_off_c, 0, 84, 65
2, 100028, Note_off_c, 0, 67, 65
2, 100032, Note_on_c, 0, 62, 69
2, 100032, Note_on_c, 0, 83, 69
2, 100124, Note_off_c, 0, 62, 65
2, 100128, Note_on_c, 0, 67, 69
2, 100220, Note_off_c, 0, 83, 65
2, 100220, Note_off_c, 0, 67, 65
2, 100224, Note_on_c, 0, 82, 69
2, 100224, Note_on_c, 0, 61, 69
2, 100316, Note_off_c, 0, 61, 65
2, 100320, Note_on_c, 0, 67, 69
2, 100412, Note_off_c, 0, 67, 65
2, 100416, Note_on_c, 0, 64, 69
2, 100508, Note_off_c, 0, 64, 65
2, 100512, Note_on_c, 0, 67, 69
2, 100604, Note_off_c, 0, 82, 65
2, 100604, Note_off_c, 0, 67, 65
2, 100608, Note_on_c, 0, 81, 69
2, 100608, Note_on_c, 0, 61, 69
2, 100700, Note_off_c, 0, 61, 65
2, 100704, Note_on_c, 0, 69, 69
2, 100796, Note_off_c, 0, 69, 65
2, 100800, Note_on_c, 0, 64, 69
2, 100892, Note_off_c, 0, 64, 65
2, 100896, Note_on_c, 0, 69, 69
2, 100988, Note_off_c, 0, 81, 65
2, 100988, Note_off_c, 0, 69, 65
2, 100992, Note_on_c, 0, 79, 69
2, 100992, Note_on_c, 0, 61, 69
2, 101084, Note_off_c, 0, 61, 65
2, 101088, Note_on_c, 0, 70, 69
2, 101180, Note_off_c, 0, 70, 65
2, 101184, Note_on_c, 0, 64, 69
2, 101276, Note_off_c, 0, 64, 65
2, 101280, Note_on_c, 0, 70, 69
2, 101372, Note_off_c, 0, 79, 65
2, 101372, Note_off_c, 0, 70, 65
2, 101376, Note_on_c, 0, 79, 69
2, 101376, Note_on_c, 0, 69, 69
2, 101376, Note_on_c, 0, 62, 69
2, 101468, Note_off_c, 0, 79, 65
2, 101472, Note_on_c, 0, 78, 69
2, 101564, Note_off_c, 0, 78, 65
2, 101568, Note_on_c, 0, 76, 69
2, 101660, Note_off_c, 0, 76, 65
2, 101664, Note_on_c, 0, 74, 69
2, 101756, Note_off_c, 0, 69, 65
2, 101756, Note_off_c, 0, 62, 65
2, 101756, Note_off_c, 0, 74, 65
2, 101760, Note_on_c, 0, 74, 69
2, 101952, Note_on_c, 0, 64, 69
2, 101952, Note_on_c, 0, 60, 69
2, 102140, Note_off_c, 0, 74, 65
2, 102140, Note_off_c, 0, 64, 65
2, 102140, Note_off_c, 0, 60, 65
2, 102144, Note_on_c, 0, 62, 69
2, 102144, Note_on_c, 0, 59, 69
2, 102332, Note_off_c, 0, 62, 65
2, 102332, Note_off_c, 0, 59, 65
2, 102336, Note_on_c, 0, 60, 69
2, 102336, Note_on_c, 0, 57, 69
2, 102524, Note_off_c, 0, 60, 65
2, 102524, Note_off_c, 0, 57, 65
2, 102528, Note_on_c, 0, 59, 69
2, 102528, Note_on_c, 0, 55, 69
2, 102908, Note_off_c, 0, 59, 65
2, 102908, Note_off_c, 0, 55, 65
2, 104832, Note_on_c, 0, 67, 69
2, 104924, Note_off_c, 0, 67, 65
2, 104928, Note_on_c, 0, 74, 69
2, 105020, Note_off_c, 0, 74, 65
2, 105024, Note_on_c, 0, 86, 69
2, 105024, Note_on_c, 0, 71, 69
2, 105116, Note_off_c, 0, 71, 65
2, 105120, Note_on_c, 0, 74, 69
2, 105212, Note_off_c, 0, 86, 65
2, 105212, Note_off_c, 0, 74, 65
2, 105216, Note_on_c, 0, 86, 69
2, 105216, Note_on_c, 0, 67, 69
2, 105308, Note_off_c, 0, 67, 65
2, 105312, Note_on_c, 0, 74, 69
2, 105404, Note_off_c, 0, 86, 65
2, 105404, Note_off_c, 0, 74, 65
2, 105408, Note_on_c, 0, 86, 69
2, 105408, Note_on_c, 0, 71, 69
2, 105500, Note_off_c, 0, 71, 65
2, 105504, Note_on_c, 0, 74, 69
2, 105596, Note_off_c, 0, 86, 65
2, 105596, Note_off_c, 0, 74, 65
2, 105600, Note_on_c, 0, 78, 69
2, 105600, Note_on_c, 0, 69, 69
2, 105692, Note_off_c, 0, 69, 65
2, 105696, Note_on_c, 0, 74, 69
2, 105788, Note_off_c, 0, 74, 65
2, 105792, Note_on_c, 0, 72, 69
2, 105884, Note_off_c, 0, 78, 65
2, 105884, Note_off_c, 0, 72, 65
2, 105888, Note_on_c, 0, 79, 69
2, 105888, Note_on_c, 0, 74, 69
2, 105932, Note_off_c, 0, 79, 65
2, 105936, Note_on_c, 0, 81, 69
2, 105980, Note_off_c, 0, 74, 65
2, 105980, Note_off_c, 0, 81, 65
2, 105984, Note_on_c, 0, 79, 69
2, 105984, Note_on_c, 0, 71, 69
2, 106076, Note_off_c, 0, 79, 65
2, 106076, Note_off_c, 0, 71, 65
2, 106080, Note_on_c, 0, 71, 69
2, 106080, Note_on_c, 0, 67, 69
2, 106172, Note_off_c, 0, 71, 65
2, 106172, Note_off_c, 0, 67, 65
2, 106176, Note_on_c, 0, 79, 69
2, 106176, Note_on_c, 0, 71, 69
2, 106268, Note_off_c, 0, 79, 65
2, 106268, Note_off_c, 0, 71, 65
2, 106272, Note_on_c, 0, 83, 69
2, 106272, Note_on_c, 0, 74, 69
2, 106364, Note_off_c, 0, 83, 65
2, 106364, Note_off_c, 0, 74, 65
2, 106368, Note_on_c, 0, 86, 69
2, 106368, Note_on_c, 0, 67, 69
2, 106460, Note_off_c, 0, 67, 65
2, 106464, Note_on_c, 0, 74, 69
2, 106556, Note_off_c, 0, 86, 65
2, 106556, Note_off_c, 0, 74, 65
2, 106560, Note_on_c, 0, 86, 69
2, 106560, Note_on_c, 0, 71, 69
2, 106652, Note_off_c, 0, 71, 65
2, 106656, Note_on_c, 0, 74, 69
2, 106748, Note_off_c, 0, 86, 65
2, 106748, Note_off_c, 0, 74, 65
2, 106752, Note_on_c, 0, 78, 69
2, 106752, Note_on_c, 0, 72, 69
2, 106844, Note_off_c, 0, 72, 65
2, 106848, Note_on_c, 0, 74, 69
2, 106940, Note_off_c, 0, 74, 65
2, 106944, Note_on_c, 0, 69, 69
2, 107036, Note_off_c, 0, 78, 65
2, 107036, Note_off_c, 0, 69, 65
2, 107040, Note_on_c, 0, 79, 69
2, 107040, Note_on_c, 0, 72, 69
2, 107084, Note_off_c, 0, 79, 65
2, 107088, Note_on_c, 0, 81, 69
2, 107132, Note_off_c, 0, 72, 65
2, 107132, Note_off_c, 0, 81, 65
2, 107136, Note_on_c, 0, 79, 69
2, 107136, Note_on_c, 0, 71, 69
2, 107516, Note_off_c, 0, 79, 65
2, 107516, Note_off_c, 0, 71, 65
2, 109440, Note_on_c, 0, 72, 69
2, 109460, Note_off_c, 0, 72, 65
2, 109464, Note_on_c, 0, 74, 69
2, 109484, Note_off_c, 0, 74, 65
2, 109488, Note_on_c, 0, 72, 69
2, 109508, Note_off_c, 0, 72, 65
2, 109512, Note_on_c, 0, 74, 69
2, 109532, Note_off_c, 0, 74, 65
2, 109536, Note_on_c, 0, 72, 69
2, 109556, Note_off_c, 0, 72, 65
2, 109560, Note_on_c, 0, 74, 69
2, 109580, Note_off_c, 0, 74, 65
2, 109584, Note_on_c, 0, 72, 69
2, 109604, Note_off_c, 0, 72, 65
2, 109608, Note_on_c, 0, 74, 69
2, 109628, Note_off_c, 0, 74, 65
2, 109632, Note_on_c, 0, 72, 69
2, 109652, Note_off_c, 0, 72, 65
2, 109656, Note_on_c, 0, 74, 69
2, 109676, Note_off_c, 0, 74, 65
2, 109680, Note_on_c, 0, 72, 69
2, 109700, Note_off_c, 0, 72, 65
2, 109704, Note_on_c, 0, 74, 69
2, 109724, Note_off_c, 0, 74, 65
2, 109728, Note_on_c, 0, 74, 69
2, 109820, Note_off_c, 0, 74, 65
2, 109824, Note_on_c, 0, 76, 69
2, 109916, Note_off_c, 0, 76, 65
2, 109920, Note_on_c, 0, 72, 69
2, 110012, Note_off_c, 0, 72, 65
2, 110016, Note_on_c, 0, 71, 69
2, 110108, Note_off_c, 0, 71, 65
2, 110112, Note_on_c, 0, 69, 69
2, 110204, Note_off_c, 0, 69, 65
2, 110208, Note_on_c, 0, 68, 69
2, 110300, Note_off_c, 0, 68, 65
2, 110304, Note_on_c, 0, 69, 69
2, 110396, Note_off_c, 0, 69, 65
2, 110400, Note_on_c, 0, 71, 69
2, 110492, Note_off_c, 0, 71, 65
2, 110496, Note_on_c, 0, 72, 69
2, 110588, Note_off_c, 0, 72, 65
2, 110592, Note_on_c, 0, 71, 69
2, 110612, Note_off_c, 0, 71, 65
2, 110616, Note_on_c, 0, 72, 69
2, 110636, Note_off_c, 0, 72, 65
2, 110640, Note_on_c, 0, 71, 69
2, 110660, Note_off_c, 0, 71, 65
2, 110664, Note_on_c, 0, 72, 69
2, 110684, Note_off_c, 0, 72, 65
2, 110688, Note_on_c, 0, 71, 69
2, 110708, Note_off_c, 0, 71, 65
2, 110712, Note_on_c, 0, 72, 69
2, 110732, Note_off_c, 0, 72, 65
2, 110736, Note_on_c, 0, 71, 69
2, 110756, Note_off_c, 0, 71, 65
2, 110760, Note_on_c, 0, 72, 69
2, 110780, Note_off_c, 0, 72, 65
2, 110784, Note_on_c, 0, 71, 69
2, 110804, Note_off_c, 0, 71, 65
2, 110808, Note_on_c, 0, 72, 69
2, 110828, Note_off_c, 0, 72, 65
2, 110832, Note_on_c, 0, 71, 69
2, 110852, Note_off_c, 0, 71, 65
2, 110856, Note_on_c, 0, 72, 69
2, 110876, Note_off_c, 0, 72, 65
2, 110880, Note_on_c, 0, 72, 69
2, 110972, Note_off_c, 0, 72, 65
2, 110976, Note_on_c, 0, 74, 69
2, 111068, Note_off_c, 0, 74, 65
2, 111072, Note_on_c, 0, 72, 69
2, 111164, Note_off_c, 0, 72, 65
2, 111168, Note_on_c, 0, 71, 69
2, 111260, Note_off_c, 0, 71, 65
2, 111264, Note_on_c, 0, 69, 69
2, 111356, Note_off_c, 0, 69, 65
2, 111360, Note_on_c, 0, 67, 69
2, 111452, Note_off_c, 0, 67, 65
2, 111456, Note_on_c, 0, 71, 69
2, 111548, Note_off_c, 0, 71, 65
2, 111552, Note_on_c, 0, 74, 69
2, 111644, Note_off_c, 0, 74, 65
2, 111648, Note_on_c, 0, 79, 69
2, 111740, Note_off_c, 0, 79, 65
2, 111744, Note_on_c, 0, 76, 69
2, 111836, Note_off_c, 0, 76, 65
2, 111840, Note_on_c, 0, 72, 69
2, 111932, Note_off_c, 0, 72, 65
2, 111936, Note_on_c, 0, 71, 69
2, 112028, Note_off_c, 0, 71, 65
2, 112032, Note_on_c, 0, 69, 69
2, 112124, Note_off_c, 0, 69, 65
2, 112128, Note_on_c, 0, 67, 69
2, 112508, Note_off_c, 0, 67, 65
2, 112512, Note_on_c, 0, 66, 69
2, 112532, Note_off_c, 0, 66, 65
2, 112536, Note_on_c, 0, 67, 69
2, 112556, Note_off_c, 0, 67, 65
2, 112560, Note_on_c, 0, 66, 69
2, 112580, Note_off_c, 0, 66, 65
2, 112584, Note_on_c, 0, 67, 69
2, 112604, Note_off_c, 0, 67, 65
2, 112608, Note_on_c, 0, 66, 69
2, 112628, Note_off_c, 0, 66, 65
2, 112632, Note_on_c, 0, 67, 69
2, 112652, Note_off_c, 0, 67, 65
2, 112656, Note_on_c, 0, 66, 69
2, 112676, Note_off_c, 0, 66, 65
2, 112680, Note_on_c, 0, 67, 69
2, 112700, Note_off_c, 0, 67, 65
2, 112704, Note_on_c, 0, 64, 69
2, 112796, Note_off_c, 0, 64, 65
2, 112800, Note_on_c, 0, 66, 69
2, 112892, Note_off_c, 0, 66, 65
2, 112896, Note_on_c, 0, 67, 69
2, 113084, Note_off_c, 0, 67, 65
2, 113088, Note_on_c, 0, 73, 69
2, 113276, Note_off_c, 0, 73, 65
2, 113280, Note_on_c, 0, 73, 69
2, 114044, Note_off_c, 0, 73, 65
2, 114048, Note_on_c, 0, 74, 69
2, 114140, Note_off_c, 0, 74, 65
2, 114144, Note_on_c, 0, 76, 69
2, 114236, Note_off_c, 0, 76, 65
2, 114240, Note_on_c, 0, 71, 69
2, 114332, Note_off_c, 0, 71, 65
2, 114336, Note_on_c, 0, 72, 69
2, 114428, Note_off_c, 0, 72, 65
2, 114432, Note_on_c, 0, 72, 69
2, 114452, Note_off_c, 0, 72, 65
2, 114456, Note_on_c, 0, 74, 69
2, 114476, Note_off_c, 0, 74, 65
2, 114480, Note_on_c, 0, 72, 69
2, 114500, Note_off_c, 0, 72, 65
2, 114504, Note_on_c, 0, 74, 69
2, 114524, Note_off_c, 0, 74, 65
2, 114528, Note_on_c, 0, 72, 69
2, 114548, Note_off_c, 0, 72, 65
2, 114552, Note_on_c, 0, 74, 69
2, 114572, Note_off_c, 0, 74, 65
2, 114576, Note_on_c, 0, 72, 69
2, 114596, Note_off_c, 0, 72, 65
2, 114600, Note_on_c, 0, 74, 69
2, 114620, Note_off_c, 0, 74, 65
2, 114624, Note_on_c, 0, 72, 69
2, 114644, Note_off_c, 0, 72, 65
2, 114648, Note_on_c, 0, 74, 69
2, 114668, Note_off_c, 0, 74, 65
2, 114672, Note_on_c, 0, 72, 69
2, 114692, Note_off_c, 0, 72, 65
2, 114696, Note_on_c, 0, 74, 69
2, 114716, Note_off_c, 0, 74, 65
2, 114720, Note_on_c, 0, 72, 69
2, 114740, Note_off_c, 0, 72, 65
2, 114744, Note_on_c, 0, 74, 69
2, 114764, Note_off_c, 0, 74, 65
2, 114768, Note_on_c, 0, 72, 69
2, 114788, Note_off_c, 0, 72, 65
2, 114792, Note_on_c, 0, 74, 69
2, 114812, Note_off_c, 0, 74, 65
2, 114816, Note_on_c, 0, 72, 69
2, 114836, Note_off_c, 0, 72, 65
2, 114840, Note_on_c, 0, 74, 69
2, 114860, Note_off_c, 0, 74, 65
2, 114864, Note_on_c, 0, 72, 69
2, 114884, Note_off_c, 0, 72, 65
2, 114888, Note_on_c, 0, 74, 69
2, 114908, Note_off_c, 0, 74, 65
2, 114912, Note_on_c, 0, 72, 69
2, 114932, Note_off_c, 0, 72, 65
2, 114936, Note_on_c, 0, 74, 69
2, 114956, Note_off_c, 0, 74, 65
2, 114960, Note_on_c, 0, 72, 69
2, 114980, Note_off_c, 0, 72, 65
2, 114984, Note_on_c, 0, 74, 69
2, 115004, Note_off_c, 0, 74, 65
2, 115008, Note_on_c, 0, 71, 69
2, 115100, Note_off_c, 0, 71, 65
2, 115104, Note_on_c, 0, 72, 69
2, 115196, Note_off_c, 0, 72, 65
2, 115200, Note_on_c, 0, 71, 69
2, 115200, Note_on_c, 0, 67, 69
2, 115200, Note_on_c, 0, 62, 69
2, 115200, Note_on_c, 0, 59, 69
2, 115388, Note_off_c, 0, 71, 65
2, 115388, Note_off_c, 0, 67, 65
2, 115388, Note_off_c, 0, 62, 65
2, 115388, Note_off_c, 0, 59, 65
2, 115392, Note_on_c, 0, 72, 69
2, 115392, Note_on_c, 0, 67, 69
2, 115392, Note_on_c, 0, 64, 69
2, 115392, Note_on_c, 0, 60, 69
2, 115580, Note_off_c, 0, 72, 65
2, 115580, Note_off_c, 0, 67, 65
2, 115580, Note_off_c, 0, 64, 65
2, 115580, Note_off_c, 0, 60, 65
2, 115584, Note_on_c, 0, 74, 69
2, 115584, Note_on_c, 0, 67, 69
2, 115584, Note_on_c, 0, 62, 69
2, 115772, Note_off_c, 0, 74, 65
2, 115772, Note_off_c, 0, 67, 65
2, 115772, Note_off_c, 0, 62, 65
2, 115776, Note_on_c, 0, 76, 69
2, 115776, Note_on_c, 0, 72, 69
2, 115776, Note_on_c, 0, 67, 69
2, 115776, Note_on_c, 0, 64, 69
2, 115964, Note_off_c, 0, 76, 65
2, 115964, Note_off_c, 0, 72, 65
2, 115964, Note_off_c, 0, 67, 65
2, 115964, Note_off_c, 0, 64, 65
2, 116352, Note_on_c, 0, 67, 69
2, 117116, Note_off_c, 0, 67, 65
2, 117120, Note_on_c, 0, 69, 69
2, 117140, Note_off_c, 0, 69, 65
2, 117144, Note_on_c, 0, 71, 69
2, 117164, Note_off_c, 0, 71, 65
2, 117168, Note_on_c, 0, 69, 69
2, 117188, Note_off_c, 0, 69, 65
2, 117192, Note_on_c, 0, 71, 69
2, 117212, Note_off_c, 0, 71, 65
2, 117216, Note_on_c, 0, 69, 69
2, 117236, Note_off_c, 0, 69, 65
2, 117240, Note_on_c, 0, 71, 69
2, 117260, Note_off_c, 0, 71, 65
2, 117264, Note_on_c, 0, 69, 69
2, 117284, Note_off_c, 0, 69, 65
2, 117288, Note_on_c, 0, 71, 69
2, 117308, Note_off_c, 0, 71, 65
2, 117312, Note_on_c, 0, 69, 69
2, 117332, Note_off_c, 0, 69, 65
2, 117336, Note_on_c, 0, 71, 69
2, 117356, Note_off_c, 0, 71, 65
2, 117360, Note_on_c, 0, 69, 69
2, 117380, Note_off_c, 0, 69, 65
2, 117384, Note_on_c, 0, 71, 69
2, 117404, Note_off_c, 0, 71, 65
2, 117408, Note_on_c, 0, 67, 69
2, 117452, Note_off_c, 0, 67, 65
2, 117456, Note_on_c, 0, 69, 69
2, 117500, Note_off_c, 0, 69, 65
2, 117504, Note_on_c, 0, 74, 103
2, 117504, Note_on_c, 0, 71, 103
2, 117504, Note_on_c, 0, 67, 103
2, 117504, Note_on_c, 0, 62, 103
2, 117884, Note_off_c, 0, 74, 65
2, 117884, Note_off_c, 0, 71, 65
2, 117884, Note_off_c, 0, 67, 65
2, 117884, Note_off_c, 0, 62, 65
2, 117888, Note_on_c, 0, 74, 69
2, 117980, Note_off_c, 0, 74, 65
2, 117984, Note_on_c, 0, 76, 69
2, 118028, Note_off_c, 0, 76, 65
2, 118032, Note_on_c, 0, 78, 69
2, 118076, Note_off_c, 0, 78, 65
2, 118080, Note_on_c, 0, 79, 69
2, 118124, Note_off_c, 0, 79, 65
2, 118128, Note_on_c, 0, 81, 69
2, 118172, Note_off_c, 0, 81, 65
2, 118176, Note_on_c, 0, 83, 69
2, 118220, Note_off_c, 0, 83, 65
2, 118224, Note_on_c, 0, 84, 69
2, 118268, Note_off_c, 0, 84, 65
2, 118272, Note_on_c, 0, 86, 69
2, 118364, Note_off_c, 0, 86, 65
2, 118368, Note_on_c, 0, 83, 69
2, 118460, Note_off_c, 0, 83, 65
2, 118464, Note_on_c, 0, 79, 69
2, 118556, Note_off_c, 0, 79, 65
2, 118560, Note_on_c, 0, 74, 69
2, 118652, Note_off_c, 0, 74, 65
2, 118656, Note_on_c, 0, 76, 103
2, 118656, Note_on_c, 0, 72, 103
2, 118656, Note_on_c, 0, 67, 103
2, 118656, Note_on_c, 0, 64, 103
2, 119036, Note_off_c, 0, 76, 65
2, 119036, Note_off_c, 0, 72, 65
2, 119036, Note_off_c, 0, 67, 65
2, 119036, Note_off_c, 0, 64, 65
2, 119040, Note_on_c, 0, 76, 69
2, 119132, Note_off_c, 0, 76, 65
2, 119136, Note_on_c, 0, 78, 69
2, 119180, Note_off_c, 0, 78, 65
2, 119184, Note_on_c, 0, 79, 69
2, 119228, Note_off_c, 0, 79, 65
2, 119232, Note_on_c, 0, 81, 69
2, 119276, Note_off_c, 0, 81, 65
2, 119280, Note_on_c, 0, 83, 69
2, 119324, Note_off_c, 0, 83, 65
2, 119328, Note_on_c, 0, 84, 69
2, 119372, Note_off_c, 0, 84, 65
2, 119376, Note_on_c, 0, 83, 69
2, 119420, Note_off_c, 0, 83, 65
2, 119424, Note_on_c, 0, 86, 69
2, 119468, Note_off_c, 0, 86, 65
2, 119472, Note_on_c, 0, 84, 69
2, 119516, Note_off_c, 0, 84, 65
2, 119520, Note_on_c, 0, 83, 69
2, 119564, Note_off_c, 0, 83, 65
2, 119568, Note_on_c, 0, 81, 69
2, 119612, Note_off_c, 0, 81, 65
2, 119616, Note_on_c, 0, 81, 69
2, 119660, Note_off_c, 0, 81, 65
2, 119664, Note_on_c, 0, 79, 69
2, 119708, Note_off_c, 0, 79, 65
2, 119712, Note_on_c, 0, 78, 69
2, 119756, Note_off_c, 0, 78, 65
2, 119760, Note_on_c, 0, 76, 69
2, 119804, Note_off_c, 0, 76, 65
2, 119808, Note_on_c, 0, 74, 69
2, 120188, Note_off_c, 0, 74, 65
2, 120192, Note_on_c, 0, 74, 69
2, 120284, Note_off_c, 0, 74, 65
2, 120288, Note_on_c, 0, 76, 69
2, 120332, Note_off_c, 0, 76, 65
2, 120336, Note_on_c, 0, 78, 69
2, 120380, Note_off_c, 0, 78, 65
2, 120384, Note_on_c, 0, 79, 69
2, 120428, Note_off_c, 0, 79, 65
2, 120432, Note_on_c, 0, 81, 69
2, 120476, Note_off_c, 0, 81, 65
2, 120480, Note_on_c, 0, 83, 69
2, 120524, Note_off_c, 0, 83, 65
2, 120528, Note_on_c, 0, 84, 69
2, 120572, Note_off_c, 0, 84, 65
2, 120576, Note_on_c, 0, 86, 69
2, 120636, Note_off_c, 0, 86, 65
2, 120640, Note_on_c, 0, 83, 69
2, 120700, Note_off_c, 0, 83, 65
2, 120704, Note_on_c, 0, 78, 69
2, 120764, Note_off_c, 0, 78, 65
2, 120768, Note_on_c, 0, 79, 69
2, 120828, Note_off_c, 0, 79, 65
2, 120832, Note_on_c, 0, 74, 69
2, 120892, Note_off_c, 0, 74, 65
2, 120896, Note_on_c, 0, 71, 69
2, 120956, Note_off_c, 0, 71, 65
2, 120960, Note_on_c, 0, 69, 69
2, 120980, Note_off_c, 0, 69, 65
2, 120984, Note_on_c, 0, 71, 69
2, 121004, Note_off_c, 0, 71, 65
2, 121008, Note_on_c, 0, 69, 69
2, 121028, Note_off_c, 0, 69, 65
2, 121032, Note_on_c, 0, 71, 69
2, 121052, Note_off_c, 0, 71, 65
2, 121056, Note_on_c, 0, 69, 69
2, 121076, Note_off_c, 0, 69, 65
2, 121080, Note_on_c, 0, 71, 69
2, 121100, Note_off_c, 0, 71, 65
2, 121104, Note_on_c, 0, 69, 69
2, 121124, Note_off_c, 0, 69, 65
2, 121128, Note_on_c, 0, 71, 69
2, 121148, Note_off_c, 0, 71, 65
2, 121152, Note_on_c, 0, 69, 69
2, 121172, Note_off_c, 0, 69, 65
2, 121176, Note_on_c, 0, 71, 69
2, 121196, Note_off_c, 0, 71, 65
2, 121200, Note_on_c, 0, 69, 69
2, 121220, Note_off_c, 0, 69, 65
2, 121224, Note_on_c, 0, 71, 69
2, 121244, Note_off_c, 0, 71, 65
2, 121248, Note_on_c, 0, 69, 69
2, 121268, Note_off_c, 0, 69, 65
2, 121272, Note_on_c, 0, 71, 69
2, 121292, Note_off_c, 0, 71, 65
2, 121296, Note_on_c, 0, 69, 69
2, 121316, Note_off_c, 0, 69, 65
2, 121320, Note_on_c, 0, 71, 69
2, 121340, Note_off_c, 0, 71, 65
2, 121344, Note_on_c, 0, 69, 69
2, 121364, Note_off_c, 0, 69, 65
2, 121368, Note_on_c, 0, 71, 69
2, 121388, Note_off_c, 0, 71, 65
2, 121392, Note_on_c, 0, 69, 69
2, 121412, Note_off_c, 0, 69, 65
2, 121416, Note_on_c, 0, 71, 69
2, 121436, Note_off_c, 0, 71, 65
2, 121440, Note_on_c, 0, 69, 69
2, 121460, Note_off_c, 0, 69, 65
2, 121464, Note_on_c, 0, 71, 69
2, 121484, Note_off_c, 0, 71, 65
2, 121488, Note_on_c, 0, 69, 69
2, 121508, Note_off_c, 0, 69, 65
2, 121512, Note_on_c, 0, 71, 69
2, 121532, Note_off_c, 0, 71, 65
2, 121536, Note_on_c, 0, 69, 69
2, 121556, Note_off_c, 0, 69, 65
2, 121560, Note_on_c, 0, 71, 69
2, 121580, Note_off_c, 0, 71, 65
2, 121584, Note_on_c, 0, 69, 69
2, 121604, Note_off_c, 0, 69, 65
2, 121608, Note_on_c, 0, 71, 69
2, 121628, Note_off_c, 0, 71, 65
2, 121632, Note_on_c, 0, 69, 69
2, 121652, Note_off_c, 0, 69, 65
2, 121656, Note_on_c, 0, 71, 69
2, 121676, Note_off_c, 0, 71, 65
2, 121680, Note_on_c, 0, 69, 69
2, 121700, Note_off_c, 0, 69, 65
2, 121704, Note_on_c, 0, 71, 69
2, 121724, Note_off_c, 0, 71, 65
2, 121728, Note_on_c, 0, 69, 69
2, 121748, Note_off_c, 0, 69, 65
2, 121752, Note_on_c, 0, 71, 69
2, 121772, Note_off_c, 0, 71, 65
2, 121776, Note_on_c, 0, 69, 69
2, 121796, Note_off_c, 0, 69, 65
2, 121800, Note_on_c, 0, 71, 69
2, 121820, Note_off_c, 0, 71, 65
2, 121824, Note_on_c, 0, 69, 69
2, 121844, Note_off_c, 0, 69, 65
2, 121848, Note_on_c, 0, 71, 69
2, 121868, Note_off_c, 0, 71, 65
2, 121872, Note_on_c, 0, 69, 69
2, 121892, Note_off_c, 0, 69, 65
2, 121896, Note_on_c, 0, 71, 69
2, 121916, Note_off_c, 0, 71, 65
2, 121920, Note_on_c, 0, 67, 69
2, 122012, Note_off_c, 0, 67, 65
2, 122016, Note_on_c, 0, 69, 69
2, 122108, Note_off_c, 0, 69, 65
2, 122112, Note_on_c, 0, 67, 69
2, 122492, Note_off_c, 0, 67, 65
2, 127872, Note_on_c, 0, 62, 69
2, 127964, Note_off_c, 0, 62, 65
2, 127968, Note_on_c, 0, 71, 69
2, 128060, Note_off_c, 0, 71, 65
2, 128064, Note_on_c, 0, 67, 69
2, 128064, Note_on_c, 0, 86, 69
2, 128156, Note_off_c, 0, 67, 65
2, 128160, Note_on_c, 0, 71, 69
2, 128248, Note_off_c, 0, 86, 65
2, 128252, Note_off_c, 0, 71, 65
2, 128256, Note_on_c, 0, 62, 69
2, 128256, Note_on_c, 0, 86, 69
2, 128348, Note_off_c, 0, 62, 65
2, 128352, Note_on_c, 0, 71, 69
2, 128440, Note_off_c, 0, 86, 65
2, 128444, Note_off_c, 0, 71, 65
2, 128448, Note_on_c, 0, 67, 69
2, 128448, Note_on_c, 0, 86, 69
2, 128540, Note_off_c, 0, 67, 65
2, 128544, Note_on_c, 0, 71, 69
2, 128632, Note_off_c, 0, 86, 65
2, 128636, Note_off_c, 0, 71, 65
2, 128640, Note_on_c, 0, 62, 69
2, 128640, Note_on_c, 0, 78, 69
2, 128732, Note_off_c, 0, 62, 65
2, 128736, Note_on_c, 0, 72, 69
2, 128828, Note_off_c, 0, 72, 65
2, 128832, Note_on_c, 0, 69, 69
2, 128924, Note_off_c, 0, 78, 65
2, 128924, Note_off_c, 0, 69, 65
2, 128928, Note_on_c, 0, 72, 69
2, 128928, Note_on_c, 0, 79, 69
2, 128972, Note_off_c, 0, 79, 65
2, 128976, Note_on_c, 0, 81, 69
2, 129020, Note_off_c, 0, 72, 65
2, 129020, Note_off_c, 0, 81, 65
2, 129024, Note_on_c, 0, 79, 69
2, 129024, Note_on_c, 0, 62, 69
2, 129044, Note_off_c, 0, 62, 65
2, 129068, Note_off_c, 0, 79, 65
2, 129072, Note_on_c, 0, 74, 69
2, 129092, Note_off_c, 0, 74, 65
2, 129120, Note_on_c, 0, 76, 69
2, 129120, Note_on_c, 0, 71, 69
2, 129140, Note_off_c, 0, 76, 65
2, 129140, Note_off_c, 0, 71, 65
2, 129168, Note_on_c, 0, 78, 69
2, 129188, Note_off_c, 0, 78, 65
2, 129216, Note_on_c, 0, 79, 69
2, 129216, Note_on_c, 0, 67, 69
2, 129236, Note_off_c, 0, 79, 65
2, 129236, Note_off_c, 0, 67, 65
2, 129264, Note_on_c, 0, 81, 69
2, 129284, Note_off_c, 0, 81, 65
2, 129312, Note_on_c, 0, 83, 69
2, 129312, Note_on_c, 0, 71, 69
2, 129332, Note_off_c, 0, 83, 65
2, 129332, Note_off_c, 0, 71, 65
2, 129360, Note_on_c, 0, 84, 69
2, 129380, Note_off_c, 0, 84, 65
2, 129408, Note_on_c, 0, 86, 69
2, 129408, Note_on_c, 0, 62, 69
2, 129452, Note_off_c, 0, 86, 65
2, 129452, Note_off_c, 0, 62, 65
2, 129504, Note_on_c, 0, 86, 69
2, 129504, Note_on_c, 0, 71, 69
2, 129548, Note_off_c, 0, 86, 65
2, 129548, Note_off_c, 0, 71, 65
2, 129600, Note_on_c, 0, 86, 57
2, 129600, Note_on_c, 0, 67, 57
2, 129644, Note_off_c, 0, 86, 65
2, 129644, Note_off_c, 0, 67, 65
2, 129696, Note_on_c, 0, 86, 57
2, 129696, Note_on_c, 0, 71, 57
2, 129740, Note_off_c, 0, 86, 65
2, 129740, Note_off_c, 0, 71, 65
2, 129792, Note_on_c, 0, 78, 57
2, 129792, Note_on_c, 0, 62, 57
2, 129884, Note_off_c, 0, 62, 65
2, 129888, Note_on_c, 0, 72, 57
2, 129980, Note_off_c, 0, 72, 65
2, 129984, Note_on_c, 0, 69, 57
2, 130076, Note_off_c, 0, 78, 65
2, 130076, Note_off_c, 0, 69, 65
2, 130080, Note_on_c, 0, 79, 57
2, 130080, Note_on_c, 0, 72, 57
2, 130124, Note_off_c, 0, 79, 65
2, 130128, Note_on_c, 0, 81, 57
2, 130172, Note_off_c, 0, 72, 65
2, 130172, Note_off_c, 0, 81, 65
2, 130176, Note_on_c, 0, 79, 69
2, 130176, Note_on_c, 0, 63, 69
2, 130268, Note_off_c, 0, 63, 65
2, 130272, Note_on_c, 0, 70, 69
2, 130364, Note_off_c, 0, 79, 65
2, 130364, Note_off_c, 0, 70, 65
2, 130368, Note_on_c, 0, 67, 69
2, 130460, Note_off_c, 0, 67, 65
2, 130464, Note_on_c, 0, 79, 69
2, 130464, Note_on_c, 0, 70, 69
2, 130556, Note_off_c, 0, 79, 65
2, 130556, Note_off_c, 0, 70, 65
2, 130560, Note_on_c, 0, 82, 69
2, 130560, Note_on_c, 0, 62, 69
2, 130652, Note_off_c, 0, 82, 65
2, 130652, Note_off_c, 0, 62, 65
2, 130656, Note_on_c, 0, 80, 69
2, 130656, Note_on_c, 0, 70, 69
2, 130748, Note_off_c, 0, 80, 65
2, 130748, Note_off_c, 0, 70, 65
2, 130752, Note_on_c, 0, 65, 69
2, 130844, Note_off_c, 0, 65, 65
2, 130848, Note_on_c, 0, 80, 69
2, 130848, Note_on_c, 0, 70, 69
2, 130940, Note_off_c, 0, 80, 65
2, 130940, Note_off_c, 0, 70, 65
2, 130944, Note_on_c, 0, 78, 69
2, 130944, Note_on_c, 0, 63, 69
2, 131036, Note_off_c, 0, 78, 65
2, 131036, Note_off_c, 0, 63, 65
2, 131040, Note_on_c, 0, 79, 69
2, 131040, Note_on_c, 0, 70, 69
2, 131132, Note_off_c, 0, 79, 65
2, 131132, Note_off_c, 0, 70, 65
2, 131136, Note_on_c, 0, 67, 69
2, 131228, Note_off_c, 0, 67, 65
2, 131232, Note_on_c, 0, 79, 69
2, 131232, Note_on_c, 0, 70, 69
2, 131324, Note_off_c, 0, 79, 65
2, 131324, Note_off_c, 0, 70, 65
2, 131328, Note_on_c, 0, 82, 69
2, 131328, Note_on_c, 0, 62, 69
2, 131420, Note_off_c, 0, 82, 65
2, 131420, Note_off_c, 0, 62, 65
2, 131424, Note_on_c, 0, 80, 69
2, 131424, Note_on_c, 0, 71, 69
2, 131516, Note_off_c, 0, 80, 65
2, 131516, Note_off_c, 0, 71, 65
2, 131520, Note_on_c, 0, 65, 69
2, 131612, Note_off_c, 0, 65, 65
2, 131616, Note_on_c, 0, 80, 69
2, 131616, Note_on_c, 0, 71, 69
2, 131708, Note_off_c, 0, 80, 65
2, 131708, Note_off_c, 0, 71, 65
2, 131712, Note_on_c, 0, 78, 69
2, 131712, Note_on_c, 0, 63, 69
2, 131804, Note_off_c, 0, 78, 65
2, 131804, Note_off_c, 0, 63, 65
2, 131808, Note_on_c, 0, 79, 69
2, 131808, Note_on_c, 0, 72, 69
2, 131900, Note_off_c, 0, 79, 65
2, 131900, Note_off_c, 0, 72, 65
2, 131904, Note_on_c, 0, 67, 69
2, 131996, Note_off_c, 0, 67, 65
2, 132000, Note_on_c, 0, 79, 69
2, 132000, Note_on_c, 0, 72, 69
2, 132092, Note_off_c, 0, 79, 65
2, 132092, Note_off_c, 0, 72, 65
2, 132096, Note_on_c, 0, 76, 69
2, 132096, Note_on_c, 0, 59, 69
2, 132188, Note_off_c, 0, 76, 65
2, 132188, Note_off_c, 0, 59, 65
2, 132192, Note_on_c, 0, 77, 69
2, 132192, Note_on_c, 0, 67, 69
2, 132284, Note_off_c, 0, 77, 65
2, 132284, Note_off_c, 0, 67, 65
2, 132288, Note_on_c, 0, 62, 69
2, 132380, Note_off_c, 0, 62, 65
2, 132384, Note_on_c, 0, 77, 69
2, 132384, Note_on_c, 0, 67, 69
2, 132476, Note_off_c, 0, 77, 65
2, 132476, Note_off_c, 0, 67, 65
2, 132480, Note_on_c, 0, 77, 70
2, 132480, Note_on_c, 0, 60, 70
2, 132572, Note_off_c, 0, 77, 65
2, 132572, Note_off_c, 0, 60, 65
2, 132576, Note_on_c, 0, 75, 73
2, 132576, Note_on_c, 0, 67, 73
2, 132668, Note_off_c, 0, 75, 65
2, 132668, Note_off_c, 0, 67, 65
2, 132672, Note_on_c, 0, 75, 77
2, 132672, Note_on_c, 0, 58, 77
2, 132764, Note_off_c, 0, 75, 65
2, 132764, Note_off_c, 0, 58, 65
2, 132768, Note_on_c, 0, 74, 81
2, 132768, Note_on_c, 0, 67, 81
2, 132860, Note_off_c, 0, 74, 65
2, 132860, Note_off_c, 0, 67, 65
2, 132864, Note_on_c, 0, 74, 86
2, 132864, Note_on_c, 0, 67, 86
2, 132864, Note_on_c, 0, 57, 86
2, 132956, Note_off_c, 0, 74, 65
2, 132960, Note_on_c, 0, 73, 89
2, 133052, Note_off_c, 0, 67, 65
2, 133052, Note_off_c, 0, 57, 65
2, 133052, Note_off_c, 0, 73, 65
2, 133152, Note_on_c, 0, 73, 88
2, 133244, Note_off_c, 0, 73, 65
2, 133248, Note_on_c, 0, 66, 84
2, 133248, Note_on_c, 0, 62, 84
2, 133248, Note_on_c, 0, 81, 84
2, 133340, Note_off_c, 0, 81, 65
2, 133344, Note_on_c, 0, 72, 78
2, 133436, Note_off_c, 0, 66, 65
2, 133436, Note_off_c, 0, 62, 65
2, 133436, Note_off_c, 0, 72, 65
2, 133536, Note_on_c, 0, 72, 71
2, 133628, Note_off_c, 0, 72, 65
2, 133632, Note_on_c, 0, 70, 69
2, 133632, Note_on_c, 0, 67, 69
2, 133632, Note_on_c, 0, 64, 69
2, 133724, Note_off_c, 0, 70, 65
2, 133728, Note_on_c, 0, 71, 70
2, 133820, Note_off_c, 0, 67, 65
2, 133820, Note_off_c, 0, 64, 65
2, 133820, Note_off_c, 0, 71, 65
2, 133920, Note_on_c, 0, 71, 74
2, 134012, Note_off_c, 0, 71, 65
2, 134016, Note_on_c, 0, 75, 75
2, 134016, Note_on_c, 0, 67, 75
2, 134016, Note_on_c, 0, 60, 75
2, 134108, Note_off_c, 0, 75, 65
2, 134112, Note_on_c, 0, 76, 77
2, 134204, Note_off_c, 0, 67, 65
2, 134204, Note_off_c, 0, 60, 65
2, 134204, Note_off_c, 0, 76, 65
2, 134304, Note_on_c, 0, 76, 81
2, 134396, Note_off_c, 0, 76, 65
2, 134400, Note_on_c, 0, 78, 84
2, 134400, Note_on_c, 0, 70, 84
2, 134400, Note_on_c, 0, 61, 84
2, 134492, Note_off_c, 0, 78, 65
2, 134496, Note_on_c, 0, 79, 86
2, 134588, Note_off_c, 0, 70, 65
2, 134588, Note_off_c, 0, 61, 65
2, 134588, Note_off_c, 0, 79, 65
2, 134688, Note_on_c, 0, 79, 89
2, 134780, Note_off_c, 0, 79, 65
2, 134784, Note_on_c, 0, 70, 46
2, 134784, Note_on_c, 0, 67, 46
2, 134784, Note_on_c, 0, 62, 46
2, 134876, Note_off_c, 0, 70, 65
2, 134880, Note_on_c, 0, 71, 46
2, 134972, Note_off_c, 0, 67, 65
2, 134972, Note_off_c, 0, 62, 65
2, 134972, Note_off_c, 0, 71, 65
2, 135072, Note_on_c, 0, 71, 46
2, 135164, Note_off_c, 0, 71, 65
2, 135168, Note_on_c, 0, 75, 46
2, 135168, Note_on_c, 0, 67, 46
2, 135168, Note_on_c, 0, 60, 46
2, 135260, Note_off_c, 0, 75, 65
2, 135264, Note_on_c, 0, 76, 46
2, 135356, Note_off_c, 0, 67, 65
2, 135356, Note_off_c, 0, 60, 65
2, 135356, Note_off_c, 0, 76, 65
2, 135456, Note_on_c, 0, 76, 46
2, 135548, Note_off_c, 0, 76, 65
2, 135552, Note_on_c, 0, 78, 46
2, 135552, Note_on_c, 0, 70, 46
2, 135552, Note_on_c, 0, 61, 46
2, 135644, Note_off_c, 0, 78, 65
2, 135648, Note_on_c, 0, 79, 46
2, 135740, Note_off_c, 0, 70, 65
2, 135740, Note_off_c, 0, 61, 65
2, 135740, Note_off_c, 0, 79, 65
2, 135840, Note_on_c, 0, 79, 46
2, 135932, Note_off_c, 0, 79, 65
2, 135936, Note_on_c, 0, 79, 47
2, 135936, Note_on_c, 0, 71, 47
2, 135936, Note_on_c, 0, 62, 47
2, 136028, Note_off_c, 0, 79, 65
2, 136032, Note_on_c, 0, 81, 53
2, 136060, Note_off_c, 0, 81, 65
2, 136064, Note_on_c, 0, 79, 55
2, 136092, Note_off_c, 0, 79, 65
2, 136096, Note_on_c, 0, 78, 58
2, 136124, Note_off_c, 0, 78, 65
2, 136128, Note_on_c, 0, 79, 60
2, 136220, Note_off_c, 0, 79, 65
2, 136224, Note_on_c, 0, 81, 69
2, 136316, Note_off_c, 0, 71, 65
2, 136316, Note_off_c, 0, 62, 65
2, 136316, Note_off_c, 0, 81, 65
2, 136320, Note_on_c, 0, 83, 69
2, 136508, Note_off_c, 0, 83, 65
2, 136512, Note_on_c, 0, 75, 69
2, 136512, Note_on_c, 0, 63, 69
2, 136700, Note_off_c, 0, 75, 65
2, 136700, Note_off_c, 0, 63, 65
2, 136704, Note_on_c, 0, 76, 69
2, 136704, Note_on_c, 0, 64, 69
2, 136892, Note_off_c, 0, 76, 65
2, 136892, Note_off_c, 0, 64, 65
2, 136896, Note_on_c, 0, 79, 69
2, 136896, Note_on_c, 0, 67, 69
2, 137084, Note_off_c, 0, 79, 65
2, 137084, Note_off_c, 0, 67, 65
2, 137088, Note_on_c, 0, 72, 69
2, 137088, Note_on_c, 0, 60, 69
2, 137180, Note_off_c, 0, 72, 65
2, 137180, Note_off_c, 0, 60, 65
2, 137184, Note_on_c, 0, 74, 69
2, 137184, Note_on_c, 0, 62, 69
2, 137212, Note_off_c, 0, 74, 65
2, 137212, Note_off_c, 0, 62, 65
2, 137216, Note_on_c, 0, 72, 69
2, 137216, Note_on_c, 0, 60, 69
2, 137244, Note_off_c, 0, 72, 65
2, 137244, Note_off_c, 0, 60, 65
2, 137248, Note_on_c, 0, 71, 69
2, 137248, Note_on_c, 0, 59, 69
2, 137276, Note_off_c, 0, 71, 65
2, 137276, Note_off_c, 0, 59, 65
2, 137280, Note_on_c, 0, 72, 69
2, 137280, Note_on_c, 0, 60, 69
2, 137372, Note_off_c, 0, 72, 65
2, 137372, Note_off_c, 0, 60, 65
2, 137376, Note_on_c, 0, 74, 69
2, 137376, Note_on_c, 0, 62, 69
2, 137468, Note_off_c, 0, 74, 65
2, 137468, Note_off_c, 0, 62, 65
2, 137472, Note_on_c, 0, 76, 69
2, 137472, Note_on_c, 0, 64, 69
2, 137660, Note_off_c, 0, 76, 65
2, 137660, Note_off_c, 0, 64, 65
2, 137664, Note_on_c, 0, 68, 69
2, 137852, Note_off_c, 0, 68, 65
2, 137856, Note_on_c, 0, 69, 69
2, 138044, Note_off_c, 0, 69, 65
2, 138048, Note_on_c, 0, 70, 69
2, 138236, Note_off_c, 0, 70, 65
2, 138240, Note_on_c, 0, 71, 69
2, 138620, Note_off_c, 0, 71, 65
2, 138624, Note_on_c, 0, 71, 65
2, 138704, Note_off_c, 0, 71, 65
2, 138720, Note_on_c, 0, 74, 63
2, 138800, Note_off_c, 0, 74, 65
2, 138816, Note_on_c, 0, 78, 61
2, 138856, Note_off_c, 0, 78, 65
2, 138864, Note_on_c, 0, 79, 60
2, 138904, Note_off_c, 0, 79, 65
2, 138912, Note_on_c, 0, 82, 59
2, 138952, Note_off_c, 0, 82, 65
2, 138960, Note_on_c, 0, 83, 59
2, 139000, Note_off_c, 0, 83, 65
2, 139008, Note_on_c, 0, 85, 58
2, 139048, Note_off_c, 0, 85, 65
2, 139056, Note_on_c, 0, 86, 57
2, 139188, Note_off_c, 0, 86, 65
2, 139296, Note_on_c, 0, 79, 53
2, 139388, Note_off_c, 0, 79, 65
2, 139392, Note_on_c, 0, 80, 52
2, 139484, Note_off_c, 0, 80, 65
2, 139488, Note_on_c, 0, 81, 55
2, 139580, Note_off_c, 0, 81, 65
2, 139584, Note_on_c, 0, 83, 60
2, 139676, Note_off_c, 0, 83, 65
2, 139680, Note_on_c, 0, 81, 64
2, 139700, Note_off_c, 0, 81, 65
2, 139704, Note_on_c, 0, 83, 65
2, 139724, Note_off_c, 0, 83, 65
2, 139728, Note_on_c, 0, 81, 66
2, 139748, Note_off_c, 0, 81, 65
2, 139752, Note_on_c, 0, 83, 67
2, 139772, Note_off_c, 0, 83, 65
2, 139776, Note_on_c, 0, 81, 69
2, 139776, Note_on_c, 0, 78, 69
2, 139776, Note_on_c, 0, 66, 69
2, 139776, Note_on_c, 0, 62, 69
2, 139800, Note_off_c, 0, 81, 65
2, 139800, Note_on_c, 0, 83, 69
2, 139820, Note_off_c, 0, 83, 65
2, 139824, Note_on_c, 0, 81, 69
2, 139844, Note_off_c, 0, 81, 65
2, 139848, Note_on_c, 0, 83, 67
2, 139868, Note_off_c, 0, 83, 65
2, 139872, Note_on_c, 0, 81, 67
2, 139892, Note_off_c, 0, 81, 65
2, 139896, Note_on_c, 0, 83, 67
2, 139916, Note_off_c, 0, 83, 65
2, 139920, Note_on_c, 0, 81, 66
2, 139940, Note_off_c, 0, 81, 65
2, 139944, Note_on_c, 0, 83, 66
2, 139964, Note_off_c, 0, 83, 65
2, 139968, Note_on_c, 0, 81, 66
2, 139988, Note_off_c, 0, 81, 65
2, 139992, Note_on_c, 0, 83, 65
2, 140012, Note_off_c, 0, 83, 65
2, 140016, Note_on_c, 0, 81, 65
2, 140036, Note_off_c, 0, 81, 65
2, 140040, Note_on_c, 0, 83, 65
2, 140060, Note_off_c, 0, 83, 65
2, 140064, Note_on_c, 0, 81, 64
2, 140084, Note_off_c, 0, 81, 65
2, 140088, Note_on_c, 0, 83, 64
2, 140108, Note_off_c, 0, 83, 65
2, 140112, Note_on_c, 0, 81, 64
2, 140132, Note_off_c, 0, 81, 65
2, 140136, Note_on_c, 0, 83, 63
2, 140156, Note_off_c, 0, 83, 65
2, 140160, Note_on_c, 0, 81, 63
2, 140180, Note_off_c, 0, 81, 65
2, 140184, Note_on_c, 0, 83, 63
2, 140204, Note_off_c, 0, 83, 65
2, 140208, Note_on_c, 0, 81, 61
2, 140228, Note_off_c, 0, 81, 65
2, 140232, Note_on_c, 0, 83, 61
2, 140252, Note_off_c, 0, 83, 65
2, 140256, Note_on_c, 0, 81, 61
2, 140276, Note_off_c, 0, 81, 65
2, 140280, Note_on_c, 0, 83, 60
2, 140300, Note_off_c, 0, 83, 65
2, 140304, Note_on_c, 0, 81, 60
2, 140324, Note_off_c, 0, 81, 65
2, 140328, Note_on_c, 0, 83, 60
2, 140348, Note_off_c, 0, 83, 65
2, 140352, Note_on_c, 0, 79, 59
2, 140444, Note_off_c, 0, 79, 65
2, 140448, Note_on_c, 0, 81, 58
2, 140540, Note_off_c, 0, 78, 64
2, 140540, Note_off_c, 0, 66, 64
2, 140540, Note_off_c, 0, 62, 64
2, 140540, Note_off_c, 0, 81, 65
2, 140544, Note_on_c, 0, 79, 57
2, 140544, Note_on_c, 0, 71, 57
2, 140544, Note_on_c, 0, 67, 57
2, 140924, Note_off_c, 0, 79, 65
2, 140924, Note_off_c, 0, 71, 65
2, 140924, Note_off_c, 0, 67, 65
2, 140924, End_track
3, 0, Start_track
3, 0, Title_t, "K175b - #5"
3, 0, Control_c, 1, 0, 0
3, 0, Program_c, 1, 0
3, 0, Control_c, 1, 7, 118
3, 0, Control_c, 1, 10, 63
3, 0, Control_c, 1, 91, 63
3, 0, Control_c, 1, 93, 53
3, 0, Key_signature, 1, "major"
3, 0, Control_c, 1, 121, 0
3, 384, Control_c, 1, 10, 63
3, 480, Control_c, 1, 91, 63
3, 576, Control_c, 1, 93, 35
3, 672, Program_c, 1, 0
3, 26496, Note_on_c, 1, 55, 69
3, 26496, Note_on_c, 1, 43, 69
3, 26856, Note_off_c, 1, 55, 0
3, 26856, Note_off_c, 1, 43, 0
3, 27840, Note_on_c, 1, 55, 69
3, 27840, Note_on_c, 1, 43, 69
3, 28020, Note_off_c, 1, 55, 0
3, 28020, Note_off_c, 1, 43, 0
3, 28032, Note_on_c, 1, 43, 69
3, 28032, Note_on_c, 1, 55, 69
3, 28212, Note_off_c, 1, 43, 0
3, 28212, Note_off_c, 1, 55, 0
3, 28224, Note_on_c, 1, 55, 69
3, 28224, Note_on_c, 1, 43, 69
3, 28404, Note_off_c, 1, 55, 0
3, 28404, Note_off_c, 1, 43, 0
3, 28416, Note_on_c, 1, 55, 69
3, 28416, Note_on_c, 1, 43, 69
3, 28596, Note_off_c, 1, 55, 0
3, 28596, Note_off_c, 1, 43, 0
3, 28608, Note_on_c, 1, 55, 69
3, 28608, Note_on_c, 1, 43, 69
3, 28788, Note_off_c, 1, 55, 0
3, 28788, Note_off_c, 1, 43, 0
3, 28800, Note_on_c, 1, 55, 69
3, 28800, Note_on_c, 1, 43, 69
3, 29180, Note_off_c, 1, 55, 0
3, 29180, Note_off_c, 1, 43, 0
3, 31296, Note_on_c, 1, 57, 69
3, 31484, Note_off_c, 1, 57, 0
3, 31488, Note_on_c, 1, 50, 69
3, 31676, Note_off_c, 1, 50, 0
3, 31680, Note_on_c, 1, 54, 69
3, 31868, Note_off_c, 1, 54, 0
3, 31872, Note_on_c, 1, 55, 69
3, 32060, Note_off_c, 1, 55, 0
3, 32064, Note_on_c, 1, 47, 69
3, 32252, Note_off_c, 1, 47, 0
3, 32256, Note_on_c, 1, 48, 69
3, 32636, Note_off_c, 1, 48, 0
3, 32640, Note_on_c, 1, 50, 69
3, 32828, Note_off_c, 1, 50, 0
3, 32832, Note_on_c, 1, 59, 69
3, 32832, Note_on_c, 1, 55, 69
3, 32832, Note_on_c, 1, 50, 69
3, 33020, Note_off_c, 1, 59, 0
3, 33020, Note_off_c, 1, 55, 0
3, 33020, Note_off_c, 1, 50, 0
3, 33024, Note_on_c, 1, 60, 69
3, 33024, Note_on_c, 1, 54, 69
3, 33024, Note_on_c, 1, 50, 69
3, 33212, Note_off_c, 1, 60, 0
3, 33212, Note_off_c, 1, 54, 0
3, 33212, Note_off_c, 1, 50, 0
3, 33216, Note_on_c, 1, 60, 69
3, 33216, Note_on_c, 1, 54, 69
3, 33216, Note_on_c, 1, 50, 69
3, 33404, Note_off_c, 1, 60, 0
3, 33404, Note_off_c, 1, 54, 0
3, 33404, Note_off_c, 1, 50, 0
3, 33408, Note_on_c, 1, 59, 69
3, 33408, Note_on_c, 1, 55, 69
3, 33788, Note_off_c, 1, 59, 0
3, 33788, Note_off_c, 1, 55, 0
3, 35712, Note_on_c, 1, 62, 69
3, 35712, Note_on_c, 1, 59, 69
3, 35712, Note_on_c, 1, 55, 69
3, 36092, Note_off_c, 1, 62, 0
3, 36092, Note_off_c, 1, 59, 0
3, 36092, Note_off_c, 1, 55, 0
3, 36096, Note_on_c, 1, 62, 69
3, 36096, Note_on_c, 1, 59, 69
3, 36096, Note_on_c, 1, 55, 69
3, 36476, Note_off_c, 1, 62, 0
3, 36476, Note_off_c, 1, 59, 0
3, 36476, Note_off_c, 1, 55, 0
3, 36480, Note_on_c, 1, 62, 69
3, 36480, Note_on_c, 1, 59, 69
3, 36480, Note_on_c, 1, 55, 69
3, 36860, Note_off_c, 1, 62, 0
3, 36860, Note_off_c, 1, 59, 0
3, 36860, Note_off_c, 1, 55, 0
3, 36864, Note_on_c, 1, 62, 69
3, 36864, Note_on_c, 1, 57, 69
3, 36864, Note_on_c, 1, 54, 69
3, 37244, Note_off_c, 1, 62, 0
3, 37244, Note_off_c, 1, 57, 0
3, 37244, Note_off_c, 1, 54, 0
3, 37248, Note_on_c, 1, 62, 69
3, 37248, Note_on_c, 1, 57, 69
3, 37248, Note_on_c, 1, 54, 69
3, 37628, Note_off_c, 1, 62, 0
3, 37628, Note_off_c, 1, 57, 0
3, 37628, Note_off_c, 1, 54, 0
3, 37632, Note_on_c, 1, 57, 69
3, 37632, Note_on_c, 1, 54, 69
3, 37632, Note_on_c, 1, 62, 69
3, 38012, Note_off_c, 1, 57, 0
3, 38012, Note_off_c, 1, 54, 0
3, 38012, Note_off_c, 1, 62, 0
3, 38016, Note_on_c, 1, 55, 69
3, 38016, Note_on_c, 1, 52, 69
3, 38396, Note_off_c, 1, 55, 0
3, 38396, Note_off_c, 1, 52, 0
3, 38400, Note_on_c, 1, 57, 69
3, 38780, Note_off_c, 1, 57, 0
3, 38784, Note_on_c, 1, 45, 69
3, 39164, Note_off_c, 1, 45, 0
3, 39168, Note_on_c, 1, 50, 69
3, 39548, Note_off_c, 1, 50, 0
3, 39552, Note_on_c, 1, 38, 69
3, 39932, Note_off_c, 1, 38, 0
3, 39936, Note_on_c, 1, 57, 69
3, 39936, Note_on_c, 1, 54, 69
3, 40316, Note_off_c, 1, 57, 0
3, 40316, Note_off_c, 1, 54, 0
3, 40320, Note_on_c, 1, 55, 69
3, 40412, Note_off_c, 1, 55, 67
3, 40416, Note_on_c, 1, 62, 69
3, 40508, Note_off_c, 1, 62, 67
3, 40512, Note_on_c, 1, 61, 69
3, 40604, Note_off_c, 1, 61, 67
3, 40608, Note_on_c, 1, 62, 69
3, 40700, Note_off_c, 1, 62, 67
3, 40704, Note_on_c, 1, 55, 69
3, 40796, Note_off_c, 1, 55, 67
3, 40800, Note_on_c, 1, 62, 69
3, 40892, Note_off_c, 1, 62, 67
3, 40896, Note_on_c, 1, 61, 69
3, 40988, Note_off_c, 1, 61, 67
3, 40992, Note_on_c, 1, 62, 69
3, 41084, Note_off_c, 1, 62, 67
3, 41088, Note_on_c, 1, 55, 69
3, 41180, Note_off_c, 1, 55, 67
3, 41184, Note_on_c, 1, 62, 69
3, 41276, Note_off_c, 1, 62, 67
3, 41280, Note_on_c, 1, 57, 69
3, 41372, Note_off_c, 1, 57, 67
3, 41376, Note_on_c, 1, 62, 69
3, 41468, Note_off_c, 1, 62, 67
3, 41472, Note_on_c, 1, 59, 69
3, 41564, Note_off_c, 1, 59, 67
3, 41568, Note_on_c, 1, 62, 69
3, 41660, Note_off_c, 1, 62, 67
3, 41664, Note_on_c, 1, 61, 69
3, 41756, Note_off_c, 1, 61, 67
3, 41760, Note_on_c, 1, 62, 69
3, 41852, Note_off_c, 1, 62, 67
3, 41856, Note_on_c, 1, 59, 69
3, 41948, Note_off_c, 1, 59, 67
3, 41952, Note_on_c, 1, 62, 69
3, 42044, Note_off_c, 1, 62, 67
3, 42048, Note_on_c, 1, 61, 69
3, 42140, Note_off_c, 1, 61, 67
3, 42144, Note_on_c, 1, 62, 69
3, 42236, Note_off_c, 1, 62, 67
3, 42240, Note_on_c, 1, 59, 69
3, 42332, Note_off_c, 1, 59, 67
3, 42336, Note_on_c, 1, 62, 69
3, 42428, Note_off_c, 1, 62, 67
3, 42432, Note_on_c, 1, 57, 69
3, 42524, Note_off_c, 1, 57, 67
3, 42528, Note_on_c, 1, 62, 69
3, 42620, Note_off_c, 1, 62, 67
3, 42624, Note_on_c, 1, 56, 69
3, 42716, Note_off_c, 1, 56, 67
3, 42720, Note_on_c, 1, 62, 69
3, 42812, Note_off_c, 1, 62, 67
3, 42816, Note_on_c, 1, 59, 69
3, 42908, Note_off_c, 1, 59, 67
3, 42912, Note_on_c, 1, 62, 69
3, 43004, Note_off_c, 1, 62, 67
3, 43008, Note_on_c, 1, 56, 69
3, 43100, Note_off_c, 1, 56, 67
3, 43104, Note_on_c, 1, 64, 69
3, 43196, Note_off_c, 1, 64, 67
3, 43200, Note_on_c, 1, 59, 69
3, 43292, Note_off_c, 1, 59, 67
3, 43296, Note_on_c, 1, 64, 69
3, 43388, Note_off_c, 1, 64, 67
3, 43392, Note_on_c, 1, 56, 69
3, 43484, Note_off_c, 1, 56, 67
3, 43488, Note_on_c, 1, 65, 69
3, 43580, Note_off_c, 1, 65, 67
3, 43584, Note_on_c, 1, 59, 69
3, 43676, Note_off_c, 1, 59, 67
3, 43680, Note_on_c, 1, 65, 69
3, 43772, Note_off_c, 1, 65, 67
3, 43776, Note_on_c, 1, 57, 69
3, 44156, Note_off_c, 1, 57, 67
3, 44352, Note_on_c, 1, 59, 69
3, 44352, Note_on_c, 1, 55, 69
3, 44540, Note_off_c, 1, 59, 67
3, 44540, Note_off_c, 1, 55, 67
3, 44544, Note_on_c, 1, 57, 69
3, 44544, Note_on_c, 1, 54, 69
3, 44732, Note_off_c, 1, 57, 67
3, 44732, Note_off_c, 1, 54, 67
3, 44736, Note_on_c, 1, 55, 69
3, 44736, Note_on_c, 1, 52, 69
3, 44924, Note_off_c, 1, 55, 67
3, 44924, Note_off_c, 1, 52, 67
3, 44928, Note_on_c, 1, 54, 69
3, 44928, Note_on_c, 1, 50, 69
3, 45308, Note_off_c, 1, 54, 67
3, 45308, Note_off_c, 1, 50, 67
3, 47232, Note_on_c, 1, 42, 69
3, 47324, Note_off_c, 1, 42, 67
3, 51840, Note_on_c, 1, 57, 69
3, 51840, Note_on_c, 1, 52, 69
3, 51840, Note_on_c, 1, 49, 69
3, 52220, Note_off_c, 1, 57, 67
3, 52220, Note_off_c, 1, 52, 67
3, 52220, Note_off_c, 1, 49, 67
3, 52992, Note_on_c, 1, 57, 69
3, 52992, Note_on_c, 1, 54, 69
3, 52992, Note_on_c, 1, 50, 69
3, 53372, Note_off_c, 1, 57, 67
3, 53372, Note_off_c, 1, 54, 67
3, 53372, Note_off_c, 1, 50, 67
3, 53760, Note_on_c, 1, 57, 69
3, 53760, Note_on_c, 1, 54, 69
3, 54140, Note_off_c, 1, 57, 67
3, 54140, Note_off_c, 1, 54, 67
3, 54144, Note_on_c, 1, 55, 69
3, 54236, Note_off_c, 1, 55, 67
3, 54240, Note_on_c, 1, 64, 69
3, 54332, Note_off_c, 1, 64, 67
3, 54336, Note_on_c, 1, 59, 69
3, 54428, Note_off_c, 1, 59, 67
3, 54432, Note_on_c, 1, 64, 69
3, 54524, Note_off_c, 1, 64, 67
3, 54528, Note_on_c, 1, 57, 69
3, 54620, Note_off_c, 1, 57, 67
3, 54624, Note_on_c, 1, 66, 69
3, 54716, Note_off_c, 1, 66, 67
3, 54720, Note_on_c, 1, 62, 69
3, 54812, Note_off_c, 1, 62, 67
3, 54816, Note_on_c, 1, 66, 69
3, 54908, Note_off_c, 1, 66, 67
3, 54912, Note_on_c, 1, 57, 69
3, 55004, Note_off_c, 1, 57, 67
3, 55008, Note_on_c, 1, 67, 69
3, 55100, Note_off_c, 1, 67, 67
3, 55104, Note_on_c, 1, 64, 69
3, 55196, Note_off_c, 1, 64, 67
3, 55200, Note_on_c, 1, 67, 69
3, 55292, Note_off_c, 1, 67, 67
3, 55296, Note_on_c, 1, 59, 69
3, 55296, Note_on_c, 1, 62, 69
3, 55676, Note_off_c, 1, 59, 67
3, 55676, Note_off_c, 1, 62, 67
3, 55872, Note_on_c, 1, 62, 69
3, 55872, Note_on_c, 1, 59, 69
3, 56060, Note_off_c, 1, 62, 67
3, 56060, Note_off_c, 1, 59, 67
3, 56064, Note_on_c, 1, 62, 69
3, 56064, Note_on_c, 1, 59, 69
3, 56252, Note_off_c, 1, 62, 67
3, 56252, Note_off_c, 1, 59, 67
3, 56256, Note_on_c, 1, 62, 69
3, 56256, Note_on_c, 1, 59, 69
3, 56444, Note_off_c, 1, 62, 67
3, 56444, Note_off_c, 1, 59, 67
3, 56448, Note_on_c, 1, 64, 69
3, 56448, Note_on_c, 1, 61, 69
3, 56828, Note_off_c, 1, 64, 67
3, 56828, Note_off_c, 1, 61, 67
3, 57024, Note_on_c, 1, 57, 69
3, 57024, Note_on_c, 1, 52, 69
3, 57024, Note_on_c, 1, 49, 69
3, 57212, Note_off_c, 1, 57, 67
3, 57212, Note_off_c, 1, 52, 67
3, 57212, Note_off_c, 1, 49, 67
3, 57216, Note_on_c, 1, 57, 69
3, 57216, Note_on_c, 1, 52, 69
3, 57216, Note_on_c, 1, 49, 69
3, 57404, Note_off_c, 1, 57, 67
3, 57404, Note_off_c, 1, 52, 67
3, 57404, Note_off_c, 1, 49, 67
3, 57408, Note_on_c, 1, 57, 69
3, 57408, Note_on_c, 1, 52, 69
3, 57408, Note_on_c, 1, 49, 69
3, 57596, Note_off_c, 1, 57, 67
3, 57596, Note_off_c, 1, 52, 67
3, 57596, Note_off_c, 1, 49, 67
3, 57600, Note_on_c, 1, 62, 69
3, 57600, Note_on_c, 1, 50, 69
3, 57788, Note_off_c, 1, 62, 67
3, 57788, Note_off_c, 1, 50, 67
3, 57792, Note_on_c, 1, 59, 69
3, 57792, Note_on_c, 1, 47, 69
3, 57980, Note_off_c, 1, 59, 67
3, 57980, Note_off_c, 1, 47, 67
3, 57984, Note_on_c, 1, 54, 69
3, 57984, Note_on_c, 1, 42, 69
3, 58172, Note_off_c, 1, 54, 67
3, 58172, Note_off_c, 1, 42, 67
3, 58176, Note_on_c, 1, 55, 69
3, 58176, Note_on_c, 1, 43, 69
3, 58364, Note_off_c, 1, 55, 67
3, 58364, Note_off_c, 1, 43, 67
3, 58752, Note_on_c, 1, 57, 69
3, 58844, Note_off_c, 1, 57, 67
3, 58848, Note_on_c, 1, 66, 69
3, 58940, Note_off_c, 1, 66, 67
3, 58944, Note_on_c, 1, 62, 69
3, 59036, Note_off_c, 1, 62, 67
3, 59040, Note_on_c, 1, 66, 69
3, 59132, Note_off_c, 1, 66, 67
3, 59136, Note_on_c, 1, 57, 69
3, 59228, Note_off_c, 1, 57, 67
3, 59232, Note_on_c, 1, 66, 69
3, 59324, Note_off_c, 1, 66, 67
3, 59328, Note_on_c, 1, 62, 69
3, 59420, Note_off_c, 1, 62, 67
3, 59424, Note_on_c, 1, 66, 69
3, 59516, Note_off_c, 1, 66, 67
3, 59520, Note_on_c, 1, 55, 69
3, 59612, Note_off_c, 1, 55, 67
3, 59616, Note_on_c, 1, 64, 69
3, 59708, Note_off_c, 1, 64, 67
3, 59712, Note_on_c, 1, 61, 69
3, 59804, Note_off_c, 1, 61, 67
3, 59808, Note_on_c, 1, 64, 69
3, 59900, Note_off_c, 1, 64, 67
3, 59904, Note_on_c, 1, 54, 103
3, 59996, Note_off_c, 1, 54, 67
3, 60000, Note_on_c, 1, 62, 69
3, 60092, Note_off_c, 1, 62, 67
3, 60096, Note_on_c, 1, 57, 69
3, 60188, Note_off_c, 1, 57, 67
3, 60192, Note_on_c, 1, 62, 69
3, 60284, Note_off_c, 1, 62, 67
3, 60288, Note_on_c, 1, 54, 69
3, 60476, Note_off_c, 1, 54, 67
3, 60672, Note_on_c, 1, 54, 69
3, 60672, Note_on_c, 1, 57, 69
3, 60860, Note_off_c, 1, 54, 67
3, 60860, Note_off_c, 1, 57, 67
3, 61056, Note_on_c, 1, 55, 103
3, 61148, Note_off_c, 1, 55, 67
3, 61152, Note_on_c, 1, 62, 69
3, 61244, Note_off_c, 1, 62, 67
3, 61248, Note_on_c, 1, 59, 69
3, 61340, Note_off_c, 1, 59, 67
3, 61344, Note_on_c, 1, 62, 69
3, 61436, Note_off_c, 1, 62, 67
3, 61440, Note_on_c, 1, 55, 69
3, 61628, Note_off_c, 1, 55, 67
3, 61824, Note_on_c, 1, 55, 69
3, 61824, Note_on_c, 1, 59, 69
3, 62012, Note_off_c, 1, 55, 67
3, 62012, Note_off_c, 1, 59, 67
3, 62208, Note_on_c, 1, 57, 69
3, 62300, Note_off_c, 1, 57, 67
3, 62304, Note_on_c, 1, 66, 69
3, 62396, Note_off_c, 1, 66, 67
3, 62400, Note_on_c, 1, 62, 69
3, 62492, Note_off_c, 1, 62, 67
3, 62496, Note_on_c, 1, 66, 69
3, 62588, Note_off_c, 1, 66, 67
3, 62592, Note_on_c, 1, 57, 69
3, 62684, Note_off_c, 1, 57, 67
3, 62688, Note_on_c, 1, 66, 69
3, 62780, Note_off_c, 1, 66, 67
3, 62784, Note_on_c, 1, 62, 69
3, 62876, Note_off_c, 1, 62, 67
3, 62880, Note_on_c, 1, 66, 69
3, 62972, Note_off_c, 1, 66, 67
3, 62976, Note_on_c, 1, 57, 69
3, 63068, Note_off_c, 1, 57, 67
3, 63072, Note_on_c, 1, 66, 69
3, 63164, Note_off_c, 1, 66, 67
3, 63168, Note_on_c, 1, 62, 69
3, 63260, Note_off_c, 1, 62, 67
3, 63264, Note_on_c, 1, 66, 69
3, 63356, Note_off_c, 1, 66, 67
3, 63360, Note_on_c, 1, 57, 70
3, 63452, Note_off_c, 1, 57, 67
3, 63456, Note_on_c, 1, 67, 72
3, 63548, Note_off_c, 1, 67, 67
3, 63552, Note_on_c, 1, 61, 74
3, 63644, Note_off_c, 1, 61, 67
3, 63648, Note_on_c, 1, 67, 77
3, 63740, Note_off_c, 1, 67, 67
3, 63744, Note_on_c, 1, 57, 80
3, 63836, Note_off_c, 1, 57, 67
3, 63840, Note_on_c, 1, 67, 84
3, 63932, Note_off_c, 1, 67, 67
3, 63936, Note_on_c, 1, 61, 86
3, 64028, Note_off_c, 1, 61, 67
3, 64032, Note_on_c, 1, 67, 89
3, 64124, Note_off_c, 1, 67, 67
3, 64128, Note_on_c, 1, 57, 92
3, 64220, Note_off_c, 1, 57, 67
3, 64224, Note_on_c, 1, 67, 94
3, 64316, Note_off_c, 1, 67, 67
3, 64320, Note_on_c, 1, 61, 97
3, 64412, Note_off_c, 1, 61, 67
3, 64416, Note_on_c, 1, 67, 99
3, 64508, Note_off_c, 1, 67, 67
3, 64512, Note_on_c, 1, 66, 103
3, 64512, Note_on_c, 1, 62, 103
3, 64892, Note_off_c, 1, 66, 67
3, 64892, Note_off_c, 1, 62, 67
3, 81792, Note_on_c, 1, 55, 69
3, 81792, Note_on_c, 1, 43, 69
3, 82172, Note_off_c, 1, 55, 67
3, 82172, Note_off_c, 1, 43, 67
3, 83136, Note_on_c, 1, 55, 69
3, 83136, Note_on_c, 1, 43, 69
3, 83324, Note_off_c, 1, 55, 67
3, 83324, Note_off_c, 1, 43, 67
3, 83328, Note_on_c, 1, 55, 69
3, 83328, Note_on_c, 1, 43, 69
3, 83516, Note_off_c, 1, 55, 67
3, 83516, Note_off_c, 1, 43, 67
3, 83520, Note_on_c, 1, 55, 69
3, 83520, Note_on_c, 1, 43, 69
3, 83708, Note_off_c, 1, 55, 67
3, 83708, Note_off_c, 1, 43, 67
3, 83712, Note_on_c, 1, 55, 69
3, 83712, Note_on_c, 1, 43, 69
3, 83900, Note_off_c, 1, 55, 67
3, 83900, Note_off_c, 1, 43, 67
3, 83904, Note_on_c, 1, 55, 69
3, 83904, Note_on_c, 1, 43, 69
3, 84092, Note_off_c, 1, 55, 67
3, 84092, Note_off_c, 1, 43, 67
3, 84096, Note_on_c, 1, 55, 69
3, 84096, Note_on_c, 1, 43, 69
3, 84476, Note_off_c, 1, 55, 67
3, 84476, Note_off_c, 1, 43, 67
3, 86592, Note_on_c, 1, 57, 69
3, 86780, Note_off_c, 1, 57, 67
3, 86784, Note_on_c, 1, 50, 69
3, 86972, Note_off_c, 1, 50, 67
3, 86976, Note_on_c, 1, 54, 69
3, 87164, Note_off_c, 1, 54, 67
3, 87168, Note_on_c, 1, 55, 69
3, 87356, Note_off_c, 1, 55, 67
3, 87360, Note_on_c, 1, 47, 69
3, 87548, Note_off_c, 1, 47, 67
3, 87552, Note_on_c, 1, 48, 69
3, 87932, Note_off_c, 1, 48, 67
3, 87936, Note_on_c, 1, 50, 69
3, 88124, Note_off_c, 1, 50, 67
3, 88128, Note_on_c, 1, 59, 69
3, 88128, Note_on_c, 1, 55, 69
3, 88128, Note_on_c, 1, 50, 69
3, 88316, Note_off_c, 1, 59, 67
3, 88316, Note_off_c, 1, 55, 67
3, 88316, Note_off_c, 1, 50, 67
3, 88320, Note_on_c, 1, 60, 69
3, 88320, Note_on_c, 1, 54, 69
3, 88320, Note_on_c, 1, 50, 69
3, 88508, Note_off_c, 1, 60, 67
3, 88508, Note_off_c, 1, 54, 67
3, 88508, Note_off_c, 1, 50, 67
3, 88512, Note_on_c, 1, 60, 69
3, 88512, Note_on_c, 1, 54, 69
3, 88512, Note_on_c, 1, 50, 69
3, 88700, Note_off_c, 1, 60, 67
3, 88700, Note_off_c, 1, 54, 67
3, 88700, Note_off_c, 1, 50, 67
3, 88704, Note_on_c, 1, 59, 69
3, 88704, Note_on_c, 1, 55, 69
3, 89084, Note_off_c, 1, 59, 67
3, 89084, Note_off_c, 1, 55, 67
3, 91008, Note_on_c, 1, 62, 69
3, 91008, Note_on_c, 1, 59, 69
3, 91008, Note_on_c, 1, 55, 69
3, 91388, Note_off_c, 1, 62, 67
3, 91388, Note_off_c, 1, 59, 67
3, 91388, Note_off_c, 1, 55, 67
3, 91392, Note_on_c, 1, 62, 69
3, 91392, Note_on_c, 1, 59, 69
3, 91392, Note_on_c, 1, 55, 69
3, 91772, Note_off_c, 1, 62, 67
3, 91772, Note_off_c, 1, 59, 67
3, 91772, Note_off_c, 1, 55, 67
3, 91776, Note_on_c, 1, 62, 69
3, 91776, Note_on_c, 1, 55, 69
3, 91776, Note_on_c, 1, 53, 69
3, 92156, Note_off_c, 1, 62, 67
3, 92156, Note_off_c, 1, 55, 67
3, 92156, Note_off_c, 1, 53, 67
3, 92160, Note_on_c, 1, 60, 69
3, 92160, Note_on_c, 1, 55, 69
3, 92160, Note_on_c, 1, 52, 69
3, 92540, Note_off_c, 1, 60, 67
3, 92540, Note_off_c, 1, 55, 67
3, 92540, Note_off_c, 1, 52, 67
3, 92544, Note_on_c, 1, 60, 69
3, 92544, Note_on_c, 1, 55, 69
3, 92544, Note_on_c, 1, 52, 69
3, 92924, Note_off_c, 1, 60, 67
3, 92924, Note_off_c, 1, 55, 67
3, 92924, Note_off_c, 1, 52, 67
3, 92928, Note_on_c, 1, 55, 69
3, 92928, Note_on_c, 1, 52, 69
3, 92928, Note_on_c, 1, 60, 69
3, 93308, Note_off_c, 1, 55, 67
3, 93308, Note_off_c, 1, 52, 67
3, 93308, Note_off_c, 1, 60, 67
3, 93312, Note_on_c, 1, 53, 69
3, 93312, Note_on_c, 1, 50, 69
3, 93692, Note_off_c, 1, 53, 67
3, 93692, Note_off_c, 1, 50, 67
3, 93696, Note_on_c, 1, 50, 69
3, 93696, Note_on_c, 1, 43, 69
3, 94076, Note_off_c, 1, 50, 67
3, 94076, Note_off_c, 1, 43, 67
3, 94080, Note_on_c, 1, 55, 69
3, 94080, Note_on_c, 1, 47, 69
3, 94460, Note_off_c, 1, 55, 67
3, 94460, Note_off_c, 1, 47, 67
3, 94464, Note_on_c, 1, 48, 69
3, 94844, Note_off_c, 1, 48, 67
3, 94848, Note_on_c, 1, 36, 69
3, 95228, Note_off_c, 1, 36, 67
3, 95232, Note_on_c, 1, 55, 69
3, 95232, Note_on_c, 1, 52, 69
3, 95232, Note_on_c, 1, 48, 69
3, 95612, Note_off_c, 1, 55, 67
3, 95612, Note_off_c, 1, 52, 67
3, 95612, Note_off_c, 1, 48, 67
3, 95616, Note_on_c, 1, 48, 69
3, 95708, Note_off_c, 1, 48, 67
3, 95712, Note_on_c, 1, 55, 69
3, 95804, Note_off_c, 1, 55, 67
3, 95808, Note_on_c, 1, 54, 69
3, 95900, Note_off_c, 1, 54, 67
3, 95904, Note_on_c, 1, 55, 69
3, 95996, Note_off_c, 1, 55, 67
3, 96000, Note_on_c, 1, 48, 69
3, 96092, Note_off_c, 1, 48, 67
3, 96096, Note_on_c, 1, 55, 69
3, 96188, Note_off_c, 1, 55, 67
3, 96192, Note_on_c, 1, 54, 69
3, 96284, Note_off_c, 1, 54, 67
3, 96288, Note_on_c, 1, 55, 69
3, 96380, Note_off_c, 1, 55, 67
3, 96384, Note_on_c, 1, 48, 69
3, 96476, Note_off_c, 1, 48, 67
3, 96480, Note_on_c, 1, 55, 69
3, 96572, Note_off_c, 1, 55, 67
3, 96576, Note_on_c, 1, 50, 69
3, 96668, Note_off_c, 1, 50, 67
3, 96672, Note_on_c, 1, 55, 69
3, 96764, Note_off_c, 1, 55, 67
3, 96768, Note_on_c, 1, 52, 69
3, 96860, Note_off_c, 1, 52, 67
3, 96864, Note_on_c, 1, 55, 69
3, 96956, Note_off_c, 1, 55, 67
3, 96960, Note_on_c, 1, 54, 69
3, 97052, Note_off_c, 1, 54, 67
3, 97056, Note_on_c, 1, 55, 69
3, 97148, Note_off_c, 1, 55, 67
3, 97152, Note_on_c, 1, 52, 69
3, 97244, Note_off_c, 1, 52, 67
3, 97248, Note_on_c, 1, 55, 69
3, 97340, Note_off_c, 1, 55, 67
3, 97344, Note_on_c, 1, 54, 69
3, 97436, Note_off_c, 1, 54, 67
3, 97440, Note_on_c, 1, 55, 69
3, 97532, Note_off_c, 1, 55, 67
3, 97536, Note_on_c, 1, 52, 69
3, 97628, Note_off_c, 1, 52, 67
3, 97632, Note_on_c, 1, 55, 69
3, 97724, Note_off_c, 1, 55, 67
3, 97728, Note_on_c, 1, 50, 69
3, 97820, Note_off_c, 1, 50, 67
3, 97824, Note_on_c, 1, 55, 69
3, 97916, Note_off_c, 1, 55, 67
3, 97920, Note_on_c, 1, 48, 69
3, 98012, Note_off_c, 1, 48, 67
3, 109440, Note_on_c, 1, 62, 69
3, 109440, Note_on_c, 1, 57, 69
3, 109440, Note_on_c, 1, 54, 69
3, 109820, Note_off_c, 1, 62, 67
3, 109820, Note_off_c, 1, 57, 67
3, 109820, Note_off_c, 1, 54, 67
3, 110592, Note_on_c, 1, 62, 69
3, 110592, Note_on_c, 1, 59, 69
3, 110592, Note_on_c, 1, 55, 69
3, 110972, Note_off_c, 1, 62, 67
3, 110972, Note_off_c, 1, 59, 67
3, 110972, Note_off_c, 1, 55, 67
3, 111360, Note_on_c, 1, 55, 69
3, 111360, Note_on_c, 1, 50, 69
3, 111360, Note_on_c, 1, 47, 69
3, 111740, Note_off_c, 1, 55, 67
3, 111740, Note_off_c, 1, 50, 67
3, 111740, Note_off_c, 1, 47, 67
3, 111744, Note_on_c, 1, 48, 69
3, 111836, Note_off_c, 1, 48, 67
3, 111840, Note_on_c, 1, 57, 69
3, 111932, Note_off_c, 1, 57, 67
3, 111936, Note_on_c, 1, 52, 69
3, 112028, Note_off_c, 1, 52, 67
3, 112032, Note_on_c, 1, 60, 69
3, 112124, Note_off_c, 1, 60, 67
3, 112128, Note_on_c, 1, 50, 69
3, 112220, Note_off_c, 1, 50, 67
3, 112224, Note_on_c, 1, 59, 69
3, 112316, Note_off_c, 1, 59, 67
3, 112320, Note_on_c, 1, 55, 69
3, 112412, Note_off_c, 1, 55, 67
3, 112416, Note_on_c, 1, 59, 69
3, 112508, Note_off_c, 1, 59, 67
3, 112512, Note_on_c, 1, 50, 69
3, 112604, Note_off_c, 1, 50, 67
3, 112608, Note_on_c, 1, 60, 69
3, 112700, Note_off_c, 1, 60, 67
3, 112704, Note_on_c, 1, 57, 69
3, 112796, Note_off_c, 1, 57, 67
3, 112800, Note_on_c, 1, 60, 69
3, 112892, Note_off_c, 1, 60, 67
3, 112896, Note_on_c, 1, 55, 69
3, 112896, Note_on_c, 1, 52, 69
3, 113276, Note_off_c, 1, 55, 67
3, 113276, Note_off_c, 1, 52, 67
3, 113472, Note_on_c, 1, 55, 69
3, 113472, Note_on_c, 1, 52, 69
3, 113660, Note_off_c, 1, 55, 67
3, 113660, Note_off_c, 1, 52, 67
3, 113664, Note_on_c, 1, 55, 69
3, 113664, Note_on_c, 1, 52, 69
3, 113852, Note_off_c, 1, 55, 67
3, 113852, Note_off_c, 1, 52, 67
3, 113856, Note_on_c, 1, 55, 69
3, 113856, Note_on_c, 1, 52, 69
3, 114044, Note_off_c, 1, 55, 67
3, 114044, Note_off_c, 1, 52, 67
3, 114048, Note_on_c, 1, 57, 69
3, 114048, Note_on_c, 1, 54, 69
3, 114428, Note_off_c, 1, 57, 67
3, 114428, Note_off_c, 1, 54, 67
3, 114624, Note_on_c, 1, 57, 69
3, 114624, Note_on_c, 1, 54, 69
3, 114624, Note_on_c, 1, 62, 69
3, 114812, Note_off_c, 1, 57, 67
3, 114812, Note_off_c, 1, 54, 67
3, 114812, Note_off_c, 1, 62, 67
3, 114816, Note_on_c, 1, 62, 69
3, 114816, Note_on_c, 1, 57, 69
3, 114816, Note_on_c, 1, 54, 69
3, 115004, Note_off_c, 1, 62, 67
3, 115004, Note_off_c, 1, 57, 67
3, 115004, Note_off_c, 1, 54, 67
3, 115008, Note_on_c, 1, 62, 69
3, 115008, Note_on_c, 1, 57, 69
3, 115008, Note_on_c, 1, 54, 69
3, 115196, Note_off_c, 1, 62, 67
3, 115196, Note_off_c, 1, 57, 67
3, 115196, Note_off_c, 1, 54, 67
3, 115200, Note_on_c, 1, 55, 69
3, 115200, Note_on_c, 1, 43, 69
3, 115388, Note_off_c, 1, 55, 67
3, 115388, Note_off_c, 1, 43, 67
3, 115392, Note_on_c, 1, 52, 69
3, 115392, Note_on_c, 1, 40, 69
3, 115580, Note_off_c, 1, 52, 67
3, 115580, Note_off_c, 1, 40, 67
3, 115584, Note_on_c, 1, 59, 69
3, 115584, Note_on_c, 1, 47, 69
3, 115772, Note_off_c, 1, 59, 67
3, 115772, Note_off_c, 1, 47, 67
3, 115776, Note_on_c, 1, 60, 69
3, 115776, Note_on_c, 1, 48, 69
3, 115964, Note_off_c, 1, 60, 67
3, 115964, Note_off_c, 1, 48, 67
3, 116352, Note_on_c, 1, 50, 69
3, 116444, Note_off_c, 1, 50, 67
3, 116448, Note_on_c, 1, 59, 69
3, 116540, Note_off_c, 1, 59, 67
3, 116544, Note_on_c, 1, 55, 69
3, 116636, Note_off_c, 1, 55, 67
3, 116640, Note_on_c, 1, 59, 69
3, 116732, Note_off_c, 1, 59, 67
3, 116736, Note_on_c, 1, 50, 69
3, 116828, Note_off_c, 1, 50, 67
3, 116832, Note_on_c, 1, 59, 69
3, 116924, Note_off_c, 1, 59, 67
3, 116928, Note_on_c, 1, 55, 69
3, 117020, Note_off_c, 1, 55, 67
3, 117024, Note_on_c, 1, 59, 69
3, 117116, Note_off_c, 1, 59, 67
3, 117120, Note_on_c, 1, 50, 69
3, 117212, Note_off_c, 1, 50, 67
3, 117216, Note_on_c, 1, 57, 69
3, 117308, Note_off_c, 1, 57, 67
3, 117312, Note_on_c, 1, 54, 69
3, 117404, Note_off_c, 1, 54, 67
3, 117408, Note_on_c, 1, 57, 69
3, 117500, Note_off_c, 1, 57, 67
3, 117504, Note_on_c, 1, 47, 103
3, 117596, Note_off_c, 1, 47, 67
3, 117600, Note_on_c, 1, 55, 69
3, 117692, Note_off_c, 1, 55, 67
3, 117696, Note_on_c, 1, 50, 69
3, 117788, Note_off_c, 1, 50, 67
3, 117792, Note_on_c, 1, 55, 69
3, 117884, Note_off_c, 1, 55, 67
3, 117888, Note_on_c, 1, 47, 69
3, 118076, Note_off_c, 1, 47, 67
3, 118272, Note_on_c, 1, 55, 69
3, 118272, Note_on_c, 1, 47, 69
3, 118460, Note_off_c, 1, 55, 67
3, 118460, Note_off_c, 1, 47, 67
3, 118656, Note_on_c, 1, 48, 103
3, 118748, Note_off_c, 1, 48, 67
3, 118752, Note_on_c, 1, 55, 69
3, 118844, Note_off_c, 1, 55, 67
3, 118848, Note_on_c, 1, 52, 69
3, 118940, Note_off_c, 1, 52, 67
3, 118944, Note_on_c, 1, 55, 69
3, 119036, Note_off_c, 1, 55, 67
3, 119040, Note_on_c, 1, 48, 69
3, 119228, Note_off_c, 1, 48, 67
3, 119424, Note_on_c, 1, 57, 69
3, 119424, Note_on_c, 1, 52, 69
3, 119424, Note_on_c, 1, 48, 69
3, 119612, Note_off_c, 1, 57, 67
3, 119612, Note_off_c, 1, 52, 67
3, 119612, Note_off_c, 1, 48, 67
3, 119808, Note_on_c, 1, 50, 69
3, 119900, Note_off_c, 1, 50, 67
3, 119904, Note_on_c, 1, 59, 69
3, 119996, Note_off_c, 1, 59, 67
3, 120000, Note_on_c, 1, 55, 69
3, 120092, Note_off_c, 1, 55, 67
3, 120096, Note_on_c, 1, 59, 69
3, 120188, Note_off_c, 1, 59, 67
3, 120192, Note_on_c, 1, 50, 69
3, 120284, Note_off_c, 1, 50, 67
3, 120288, Note_on_c, 1, 59, 69
3, 120380, Note_off_c, 1, 59, 67
3, 120384, Note_on_c, 1, 55, 69
3, 120476, Note_off_c, 1, 55, 67
3, 120480, Note_on_c, 1, 59, 69
3, 120572, Note_off_c, 1, 59, 67
3, 120576, Note_on_c, 1, 50, 69
3, 120668, Note_off_c, 1, 50, 67
3, 120672, Note_on_c, 1, 59, 69
3, 120764, Note_off_c, 1, 59, 67
3, 120768, Note_on_c, 1, 55, 69
3, 120860, Note_off_c, 1, 55, 67
3, 120864, Note_on_c, 1, 59, 69
3, 120956, Note_off_c, 1, 59, 67
3, 120960, Note_on_c, 1, 50, 69
3, 121052, Note_off_c, 1, 50, 67
3, 121056, Note_on_c, 1, 60, 69
3, 121148, Note_off_c, 1, 60, 67
3, 121152, Note_on_c, 1, 54, 69
3, 121244, Note_off_c, 1, 54, 67
3, 121248, Note_on_c, 1, 60, 69
3, 121340, Note_off_c, 1, 60, 67
3, 121344, Note_on_c, 1, 50, 69
3, 121436, Note_off_c, 1, 50, 67
3, 121440, Note_on_c, 1, 60, 69
3, 121532, Note_off_c, 1, 60, 67
3, 121536, Note_on_c, 1, 54, 69
3, 121628, Note_off_c, 1, 54, 67
3, 121632, Note_on_c, 1, 60, 69
3, 121724, Note_off_c, 1, 60, 67
3, 121728, Note_on_c, 1, 50, 69
3, 121820, Note_off_c, 1, 50, 67
3, 121824, Note_on_c, 1, 60, 69
3, 121916, Note_off_c, 1, 60, 67
3, 121920, Note_on_c, 1, 54, 69
3, 122012, Note_off_c, 1, 54, 67
3, 122016, Note_on_c, 1, 60, 69
3, 122108, Note_off_c, 1, 60, 67
3, 122112, Note_on_c, 1, 59, 69
3, 122112, Note_on_c, 1, 55, 69
3, 122492, Note_off_c, 1, 59, 67
3, 122492, Note_off_c, 1, 55, 67
3, 137664, Note_on_c, 1, 56, 69
3, 137852, Note_off_c, 1, 56, 67
3, 137856, Note_on_c, 1, 57, 69
3, 138044, Note_off_c, 1, 57, 67
3, 138048, Note_on_c, 1, 58, 69
3, 138048, Note_on_c, 1, 55, 69
3, 138048, Note_on_c, 1, 52, 69
3, 138048, Note_on_c, 1, 49, 69
3, 138236, Note_off_c, 1, 58, 67
3, 138236, Note_off_c, 1, 55, 67
3, 138236, Note_off_c, 1, 52, 67
3, 138236, Note_off_c, 1, 49, 67
3, 138240, Note_on_c, 1, 59, 69
3, 138240, Note_on_c, 1, 55, 69
3, 138240, Note_on_c, 1, 50, 69
3, 139004, Note_off_c, 1, 59, 67
3, 139004, Note_off_c, 1, 55, 67
3, 139004, Note_off_c, 1, 50, 67
3, 139004, End_track
4, 0, Start_track
4, 0, Title_t, "Midi by:"
4, 0, Control_c, 2, 0, 0
4, 0, Program_c, 2, 0
4, 0, Control_c, 2, 7, 118
4, 0, Control_c, 2, 10, 33
4, 0, Control_c, 2, 91, 67
4, 0, Control_c, 2, 93, 0
4, 0, Key_signature, 1, "major"
4, 0, Control_c, 2, 121, 0
4, 384, Control_c, 2, 10, 53
4, 480, Control_c, 2, 91, 63
4, 672, Program_c, 2, 48
4, 1152, Note_on_c, 2, 74, 93
4, 1152, Note_on_c, 2, 71, 93
4, 1512, Note_off_c, 2, 74, 0
4, 1512, Note_off_c, 2, 71, 0
4, 1536, Note_on_c, 2, 72, 93
4, 1536, Note_on_c, 2, 69, 93
4, 1716, Note_off_c, 2, 72, 0
4, 1716, Note_off_c, 2, 69, 0
4, 1728, Note_on_c, 2, 71, 93
4, 1728, Note_on_c, 2, 67, 93
4, 1908, Note_off_c, 2, 71, 0
4, 1908, Note_off_c, 2, 67, 0
4, 1920, Note_on_c, 2, 76, 93
4, 1920, Note_on_c, 2, 72, 93
4, 2100, Note_off_c, 2, 76, 0
4, 2100, Note_off_c, 2, 72, 0
4, 2112, Note_on_c, 2, 74, 93
4, 2112, Note_on_c, 2, 71, 93
4, 2292, Note_off_c, 2, 74, 0
4, 2292, Note_off_c, 2, 71, 0
4, 2304, Note_on_c, 2, 74, 93
4, 2304, Note_on_c, 2, 71, 93
4, 2664, Note_off_c, 2, 74, 0
4, 2664, Note_off_c, 2, 71, 0
4, 2688, Note_on_c, 2, 79, 93
4, 2688, Note_on_c, 2, 76, 93
4, 3252, Note_off_c, 2, 79, 0
4, 3252, Note_off_c, 2, 76, 0
4, 3264, Note_on_c, 2, 78, 93
4, 3264, Note_on_c, 2, 74, 93
4, 3444, Note_off_c, 2, 78, 0
4, 3444, Note_off_c, 2, 74, 0
4, 3456, Note_on_c, 2, 78, 93
4, 3456, Note_on_c, 2, 74, 93
4, 3636, Note_off_c, 2, 78, 0
4, 3636, Note_off_c, 2, 74, 0
4, 3648, Note_on_c, 2, 76, 93
4, 3648, Note_on_c, 2, 72, 93
4, 3828, Note_off_c, 2, 76, 0
4, 3828, Note_off_c, 2, 72, 0
4, 3840, Note_on_c, 2, 74, 93
4, 3840, Note_on_c, 2, 71, 93
4, 4200, Note_off_c, 2, 74, 0
4, 4200, Note_off_c, 2, 71, 0
4, 4608, Note_on_c, 2, 72, 93
4, 4968, Note_off_c, 2, 72, 0
4, 4992, Note_on_c, 2, 69, 93
4, 5076, Note_off_c, 2, 69, 0
4, 5088, Note_on_c, 2, 66, 93
4, 5172, Note_off_c, 2, 66, 0
4, 5184, Note_on_c, 2, 62, 93
4, 5184, Note_on_c, 2, 57, 93
4, 5268, Note_off_c, 2, 62, 0
4, 5280, Note_on_c, 2, 60, 93
4, 5364, Note_off_c, 2, 57, 0
4, 5364, Note_off_c, 2, 60, 0
4, 5376, Note_on_c, 2, 59, 93
4, 5460, Note_off_c, 2, 59, 0
4, 5472, Note_on_c, 2, 62, 93
4, 5556, Note_off_c, 2, 62, 0
4, 5568, Note_on_c, 2, 67, 93
4, 5652, Note_off_c, 2, 67, 0
4, 5664, Note_on_c, 2, 71, 93
4, 5752, Note_off_c, 2, 71, 0
4, 5760, Note_on_c, 2, 72, 93
4, 5760, Note_on_c, 2, 62, 93
4, 6120, Note_off_c, 2, 72, 0
4, 6120, Note_off_c, 2, 62, 0
4, 6144, Note_on_c, 2, 69, 93
4, 6228, Note_off_c, 2, 69, 0
4, 6240, Note_on_c, 2, 66, 93
4, 6324, Note_off_c, 2, 66, 0
4, 6336, Note_on_c, 2, 62, 93
4, 6336, Note_on_c, 2, 57, 93
4, 6420, Note_off_c, 2, 62, 0
4, 6432, Note_on_c, 2, 60, 93
4, 6516, Note_off_c, 2, 57, 0
4, 6516, Note_off_c, 2, 60, 0
4, 6528, Note_on_c, 2, 59, 93
4, 6612, Note_off_c, 2, 59, 0
4, 6624, Note_on_c, 2, 62, 93
4, 6708, Note_off_c, 2, 62, 0
4, 6720, Note_on_c, 2, 67, 93
4, 6804, Note_off_c, 2, 67, 0
4, 6816, Note_on_c, 2, 71, 93
4, 6900, Note_off_c, 2, 71, 0
4, 6912, Note_on_c, 2, 64, 93
4, 7092, Note_off_c, 2, 64, 0
4, 7104, Note_on_c, 2, 69, 93
4, 7104, Note_on_c, 2, 64, 93
4, 7104, Note_on_c, 2, 60, 93
4, 7284, Note_off_c, 2, 69, 0
4, 7284, Note_off_c, 2, 64, 0
4, 7284, Note_off_c, 2, 60, 0
4, 7296, Note_on_c, 2, 69, 93
4, 7296, Note_on_c, 2, 60, 93
4, 7296, Note_on_c, 2, 64, 93
4, 7860, Note_off_c, 2, 69, 0
4, 7860, Note_off_c, 2, 60, 0
4, 7872, Note_on_c, 2, 67, 93
4, 7872, Note_on_c, 2, 59, 93
4, 8040, Note_off_c, 2, 64, 0
4, 8052, Note_off_c, 2, 67, 0
4, 8052, Note_off_c, 2, 59, 0
4, 8064, Note_on_c, 2, 67, 93
4, 8064, Note_on_c, 2, 59, 93
4, 8808, Note_off_c, 2, 67, 0
4, 8808, Note_off_c, 2, 59, 0
4, 8832, Note_on_c, 2, 66, 93
4, 8832, Note_on_c, 2, 57, 93
4, 9192, Note_off_c, 2, 66, 0
4, 9192, Note_off_c, 2, 57, 0
4, 9408, Note_on_c, 2, 86, 69
4, 9588, Note_off_c, 2, 86, 0
4, 9600, Note_on_c, 2, 86, 69
4, 9780, Note_off_c, 2, 86, 0
4, 9792, Note_on_c, 2, 86, 69
4, 9972, Note_off_c, 2, 86, 0
4, 9984, Note_on_c, 2, 78, 93
4, 10256, Note_off_c, 2, 78, 0
4, 10272, Note_on_c, 2, 79, 93
4, 10312, Note_off_c, 2, 79, 0
4, 10320, Note_on_c, 2, 81, 93
4, 10360, Note_off_c, 2, 81, 0
4, 10368, Note_on_c, 2, 79, 66
4, 10452, Note_off_c, 2, 79, 0
4, 10464, Note_on_c, 2, 74, 66
4, 10548, Note_off_c, 2, 74, 0
4, 10560, Note_on_c, 2, 79, 66
4, 10644, Note_off_c, 2, 79, 0
4, 10656, Note_on_c, 2, 83, 66
4, 10740, Note_off_c, 2, 83, 0
4, 10752, Note_on_c, 2, 86, 69
4, 10932, Note_off_c, 2, 86, 0
4, 10944, Note_on_c, 2, 86, 69
4, 11124, Note_off_c, 2, 86, 0
4, 11136, Note_on_c, 2, 78, 93
4, 11408, Note_off_c, 2, 78, 0
4, 11424, Note_on_c, 2, 79, 93
4, 11464, Note_off_c, 2, 79, 0
4, 11472, Note_on_c, 2, 81, 93
4, 11512, Note_off_c, 2, 81, 0
4, 11520, Note_on_c, 2, 79, 66
4, 11520, Note_on_c, 2, 67, 66
4, 11792, Note_off_c, 2, 79, 0
4, 11792, Note_off_c, 2, 67, 0
4, 11808, Note_on_c, 2, 81, 66
4, 11808, Note_on_c, 2, 69, 66
4, 11892, Note_off_c, 2, 81, 0
4, 11892, Note_off_c, 2, 69, 0
4, 11904, Note_on_c, 2, 83, 66
4, 11904, Note_on_c, 2, 71, 66
4, 12084, Note_off_c, 2, 83, 0
4, 12084, Note_off_c, 2, 71, 0
4, 12096, Note_on_c, 2, 75, 66
4, 12276, Note_off_c, 2, 75, 0
4, 12288, Note_on_c, 2, 76, 66
4, 12468, Note_off_c, 2, 76, 0
4, 12480, Note_on_c, 2, 79, 66
4, 12660, Note_off_c, 2, 79, 0
4, 12672, Note_on_c, 2, 72, 66
4, 12944, Note_off_c, 2, 72, 0
4, 12960, Note_on_c, 2, 74, 66
4, 13044, Note_off_c, 2, 74, 0
4, 13056, Note_on_c, 2, 76, 66
4, 13236, Note_off_c, 2, 76, 0
4, 13248, Note_on_c, 2, 68, 66
4, 13428, Note_off_c, 2, 68, 0
4, 13440, Note_on_c, 2, 69, 66
4, 13620, Note_off_c, 2, 69, 0
4, 13632, Note_on_c, 2, 72, 66
4, 13812, Note_off_c, 2, 72, 0
4, 13824, Note_on_c, 2, 64, 66
4, 13824, Note_on_c, 2, 64, 66
4, 14096, Note_off_c, 2, 64, 0
4, 14112, Note_on_c, 2, 69, 66
4, 14184, Note_off_c, 2, 64, 0
4, 14196, Note_off_c, 2, 69, 0
4, 14208, Note_on_c, 2, 67, 66
4, 14208, Note_on_c, 2, 62, 66
4, 14568, Note_off_c, 2, 67, 0
4, 14592, Note_on_c, 2, 66, 66
4, 14952, Note_off_c, 2, 62, 0
4, 14952, Note_off_c, 2, 66, 0
4, 14976, Note_on_c, 2, 67, 93
4, 15156, Note_off_c, 2, 67, 0
4, 15168, Note_on_c, 2, 73, 93
4, 15168, Note_on_c, 2, 69, 93
4, 15168, Note_on_c, 2, 67, 93
4, 15348, Note_off_c, 2, 73, 0
4, 15348, Note_off_c, 2, 69, 0
4, 15348, Note_off_c, 2, 67, 0
4, 15360, Note_on_c, 2, 69, 93
4, 15360, Note_on_c, 2, 67, 93
4, 15360, Note_on_c, 2, 73, 93
4, 15540, Note_off_c, 2, 69, 0
4, 15540, Note_off_c, 2, 67, 0
4, 15552, Note_on_c, 2, 69, 93
4, 15552, Note_on_c, 2, 67, 93
4, 15732, Note_off_c, 2, 69, 0
4, 15732, Note_off_c, 2, 67, 0
4, 15744, Note_on_c, 2, 69, 93
4, 15744, Note_on_c, 2, 67, 93
4, 15924, Note_off_c, 2, 69, 0
4, 15924, Note_off_c, 2, 67, 0
4, 15936, Note_on_c, 2, 69, 93
4, 15936, Note_on_c, 2, 67, 93
4, 16104, Note_off_c, 2, 73, 64
4, 16116, Note_off_c, 2, 69, 0
4, 16116, Note_off_c, 2, 67, 0
4, 16128, Note_on_c, 2, 81, 69
4, 16308, Note_off_c, 2, 81, 0
4, 16320, Note_on_c, 2, 69, 66
4, 16320, Note_on_c, 2, 72, 66
4, 16500, Note_off_c, 2, 69, 0
4, 16500, Note_off_c, 2, 72, 0
4, 16512, Note_on_c, 2, 69, 66
4, 16512, Note_on_c, 2, 72, 66
4, 16692, Note_off_c, 2, 69, 0
4, 16704, Note_on_c, 2, 69, 66
4, 16884, Note_off_c, 2, 69, 0
4, 16896, Note_on_c, 2, 69, 66
4, 17076, Note_off_c, 2, 69, 0
4, 17088, Note_on_c, 2, 69, 66
4, 17256, Note_off_c, 2, 72, 0
4, 17268, Note_off_c, 2, 69, 0
4, 17280, Note_on_c, 2, 71, 93
4, 17280, Note_on_c, 2, 67, 93
4, 17280, Note_on_c, 2, 59, 93
4, 17460, Note_off_c, 2, 71, 0
4, 17460, Note_off_c, 2, 67, 0
4, 17460, Note_off_c, 2, 59, 0
4, 17472, Note_on_c, 2, 72, 93
4, 17472, Note_on_c, 2, 67, 93
4, 17472, Note_on_c, 2, 60, 93
4, 17652, Note_off_c, 2, 72, 0
4, 17652, Note_off_c, 2, 67, 0
4, 17652, Note_off_c, 2, 60, 0
4, 17664, Note_on_c, 2, 74, 93
4, 17664, Note_on_c, 2, 67, 93
4, 17664, Note_on_c, 2, 62, 93
4, 17844, Note_off_c, 2, 74, 0
4, 17844, Note_off_c, 2, 67, 0
4, 17844, Note_off_c, 2, 62, 0
4, 17856, Note_on_c, 2, 76, 93
4, 17856, Note_on_c, 2, 67, 93
4, 17856, Note_on_c, 2, 64, 93
4, 18036, Note_off_c, 2, 76, 0
4, 18036, Note_off_c, 2, 67, 0
4, 18036, Note_off_c, 2, 64, 0
4, 18432, Note_on_c, 2, 67, 66
4, 18624, Note_on_c, 2, 62, 66
4, 18624, Note_on_c, 2, 59, 66
4, 18804, Note_off_c, 2, 62, 0
4, 18804, Note_off_c, 2, 59, 0
4, 18816, Note_on_c, 2, 62, 66
4, 18816, Note_on_c, 2, 59, 66
4, 18996, Note_off_c, 2, 62, 0
4, 18996, Note_off_c, 2, 59, 0
4, 19008, Note_on_c, 2, 62, 66
4, 19008, Note_on_c, 2, 59, 66
4, 19176, Note_off_c, 2, 67, 0
4, 19188, Note_off_c, 2, 62, 0
4, 19188, Note_off_c, 2, 59, 0
4, 19200, Note_on_c, 2, 60, 66
4, 19200, Note_on_c, 2, 66, 66
4, 19200, Note_on_c, 2, 69, 69
4, 19220, Note_off_c, 2, 69, 0
4, 19224, Note_on_c, 2, 71, 69
4, 19244, Note_off_c, 2, 71, 0
4, 19248, Note_on_c, 2, 69, 69
4, 19268, Note_off_c, 2, 69, 0
4, 19272, Note_on_c, 2, 71, 69
4, 19292, Note_off_c, 2, 71, 0
4, 19296, Note_on_c, 2, 69, 69
4, 19316, Note_off_c, 2, 69, 0
4, 19320, Note_on_c, 2, 71, 69
4, 19340, Note_off_c, 2, 71, 0
4, 19344, Note_on_c, 2, 69, 69
4, 19364, Note_off_c, 2, 69, 0
4, 19368, Note_on_c, 2, 71, 69
4, 19388, Note_off_c, 2, 71, 0
4, 19392, Note_on_c, 2, 69, 69
4, 19412, Note_off_c, 2, 69, 0
4, 19416, Note_on_c, 2, 71, 69
4, 19436, Note_off_c, 2, 71, 0
4, 19440, Note_on_c, 2, 69, 69
4, 19460, Note_off_c, 2, 69, 0
4, 19464, Note_on_c, 2, 71, 69
4, 19484, Note_off_c, 2, 71, 0
4, 19488, Note_on_c, 2, 67, 66
4, 19528, Note_off_c, 2, 67, 0
4, 19536, Note_on_c, 2, 69, 66
4, 19560, Note_off_c, 2, 60, 0
4, 19560, Note_off_c, 2, 66, 0
4, 19576, Note_off_c, 2, 69, 0
4, 19584, Note_on_c, 2, 67, 93
4, 19764, Note_off_c, 2, 67, 0
4, 19776, Note_on_c, 2, 67, 93
4, 19776, Note_on_c, 2, 72, 93
4, 19776, Note_on_c, 2, 60, 93
4, 19956, Note_off_c, 2, 67, 0
4, 19968, Note_on_c, 2, 66, 93
4, 20136, Note_off_c, 2, 72, 0
4, 20136, Note_off_c, 2, 60, 0
4, 20148, Note_off_c, 2, 66, 0
4, 20160, Note_on_c, 2, 71, 93
4, 20200, Note_off_c, 2, 71, 0
4, 20208, Note_on_c, 2, 72, 93
4, 20340, Note_off_c, 2, 72, 0
4, 20352, Note_on_c, 2, 74, 93
4, 20392, Note_off_c, 2, 74, 0
4, 20400, Note_on_c, 2, 72, 93
4, 20532, Note_off_c, 2, 72, 0
4, 20544, Note_on_c, 2, 71, 93
4, 20584, Note_off_c, 2, 71, 0
4, 20592, Note_on_c, 2, 69, 93
4, 20724, Note_off_c, 2, 69, 0
4, 20736, Note_on_c, 2, 67, 93
4, 20916, Note_off_c, 2, 67, 0
4, 20928, Note_on_c, 2, 79, 93
4, 20928, Note_on_c, 2, 72, 93
4, 20928, Note_on_c, 2, 84, 93
4, 21108, Note_off_c, 2, 79, 0
4, 21108, Note_off_c, 2, 72, 0
4, 21120, Note_on_c, 2, 78, 93
4, 21120, Note_on_c, 2, 72, 93
4, 21288, Note_off_c, 2, 84, 0
4, 21300, Note_off_c, 2, 78, 0
4, 21300, Note_off_c, 2, 72, 0
4, 21312, Note_on_c, 2, 83, 93
4, 21352, Note_off_c, 2, 83, 0
4, 21360, Note_on_c, 2, 84, 93
4, 21492, Note_off_c, 2, 84, 0
4, 21504, Note_on_c, 2, 86, 93
4, 21544, Note_off_c, 2, 86, 0
4, 21552, Note_on_c, 2, 84, 93
4, 21684, Note_off_c, 2, 84, 0
4, 21696, Note_on_c, 2, 83, 93
4, 21736, Note_off_c, 2, 83, 0
4, 21744, Note_on_c, 2, 81, 93
4, 21876, Note_off_c, 2, 81, 0
4, 21888, Note_on_c, 2, 79, 93
4, 21972, Note_off_c, 2, 79, 0
4, 21984, Note_on_c, 2, 74, 93
4, 22068, Note_off_c, 2, 74, 0
4, 22080, Note_on_c, 2, 71, 93
4, 22080, Note_on_c, 2, 62, 93
4, 22164, Note_off_c, 2, 71, 0
4, 22176, Note_on_c, 2, 67, 93
4, 22260, Note_off_c, 2, 62, 0
4, 22260, Note_off_c, 2, 67, 0
4, 22272, Note_on_c, 2, 67, 93
4, 22272, Note_on_c, 2, 62, 93
4, 22272, Note_on_c, 2, 59, 93
4, 22356, Note_off_c, 2, 62, 0
4, 22356, Note_off_c, 2, 59, 0
4, 22368, Note_on_c, 2, 62, 93
4, 22368, Note_on_c, 2, 59, 93
4, 22452, Note_off_c, 2, 62, 0
4, 22452, Note_off_c, 2, 59, 0
4, 22464, Note_on_c, 2, 62, 93
4, 22464, Note_on_c, 2, 59, 93
4, 22548, Note_off_c, 2, 62, 0
4, 22548, Note_off_c, 2, 59, 0
4, 22560, Note_on_c, 2, 62, 93
4, 22560, Note_on_c, 2, 59, 93
4, 22632, Note_off_c, 2, 67, 0
4, 22644, Note_off_c, 2, 62, 0
4, 22644, Note_off_c, 2, 59, 0
4, 22656, Note_on_c, 2, 66, 93
4, 22656, Note_on_c, 2, 60, 93
4, 22656, Note_on_c, 2, 69, 95
4, 22676, Note_off_c, 2, 69, 0
4, 22680, Note_on_c, 2, 71, 95
4, 22700, Note_off_c, 2, 71, 0
4, 22704, Note_on_c, 2, 69, 95
4, 22724, Note_off_c, 2, 69, 0
4, 22728, Note_on_c, 2, 71, 95
4, 22748, Note_off_c, 2, 71, 0
4, 22752, Note_on_c, 2, 69, 95
4, 22772, Note_off_c, 2, 69, 0
4, 22776, Note_on_c, 2, 71, 95
4, 22796, Note_off_c, 2, 71, 0
4, 22800, Note_on_c, 2, 69, 95
4, 22820, Note_off_c, 2, 69, 0
4, 22824, Note_on_c, 2, 71, 95
4, 22844, Note_off_c, 2, 71, 0
4, 22848, Note_on_c, 2, 69, 95
4, 22868, Note_off_c, 2, 69, 0
4, 22872, Note_on_c, 2, 71, 95
4, 22892, Note_off_c, 2, 71, 0
4, 22896, Note_on_c, 2, 69, 95
4, 22916, Note_off_c, 2, 69, 0
4, 22920, Note_on_c, 2, 71, 95
4, 22940, Note_off_c, 2, 71, 0
4, 22944, Note_on_c, 2, 67, 93
4, 22984, Note_off_c, 2, 67, 0
4, 22992, Note_on_c, 2, 69, 93
4, 23016, Note_off_c, 2, 66, 0
4, 23016, Note_off_c, 2, 60, 0
4, 23032, Note_off_c, 2, 69, 0
4, 23040, Note_on_c, 2, 67, 93
4, 23040, Note_on_c, 2, 59, 93
4, 23220, Note_off_c, 2, 67, 0
4, 23220, Note_off_c, 2, 59, 0
4, 23232, Note_on_c, 2, 62, 93
4, 23232, Note_on_c, 2, 59, 93
4, 23364, Note_off_c, 2, 62, 0
4, 23364, Note_off_c, 2, 59, 0
4, 23376, Note_on_c, 2, 64, 93
4, 23376, Note_on_c, 2, 60, 93
4, 23416, Note_off_c, 2, 64, 0
4, 23416, Note_off_c, 2, 60, 0
4, 23424, Note_on_c, 2, 62, 92
4, 23424, Note_on_c, 2, 59, 92
4, 23604, Note_off_c, 2, 62, 0
4, 23604, Note_off_c, 2, 59, 0
4, 23616, Note_on_c, 2, 62, 85
4, 23616, Note_on_c, 2, 59, 85
4, 23796, Note_off_c, 2, 62, 0
4, 23796, Note_off_c, 2, 59, 0
4, 23808, Note_on_c, 2, 62, 78
4, 23808, Note_on_c, 2, 59, 78
4, 23988, Note_off_c, 2, 62, 0
4, 23988, Note_off_c, 2, 59, 0
4, 24000, Note_on_c, 2, 62, 71
4, 24000, Note_on_c, 2, 59, 71
4, 24180, Note_off_c, 2, 62, 0
4, 24180, Note_off_c, 2, 59, 0
4, 24192, Note_on_c, 2, 62, 66
4, 24192, Note_on_c, 2, 59, 66
4, 24464, Note_off_c, 2, 62, 0
4, 24464, Note_off_c, 2, 59, 0
4, 24480, Note_on_c, 2, 59, 66
4, 24480, Note_on_c, 2, 55, 66
4, 24564, Note_off_c, 2, 59, 0
4, 24564, Note_off_c, 2, 55, 0
4, 24576, Note_on_c, 2, 62, 66
4, 24576, Note_on_c, 2, 59, 66
4, 24848, Note_off_c, 2, 62, 0
4, 24848, Note_off_c, 2, 59, 0
4, 24864, Note_on_c, 2, 59, 66
4, 24864, Note_on_c, 2, 55, 66
4, 24948, Note_off_c, 2, 59, 0
4, 24948, Note_off_c, 2, 55, 0
4, 24960, Note_on_c, 2, 62, 66
4, 24960, Note_on_c, 2, 59, 66
4, 25232, Note_off_c, 2, 62, 0
4, 25232, Note_off_c, 2, 59, 0
4, 25248, Note_on_c, 2, 59, 66
4, 25248, Note_on_c, 2, 55, 66
4, 25332, Note_off_c, 2, 59, 0
4, 25332, Note_off_c, 2, 55, 0
4, 25344, Note_on_c, 2, 67, 68
4, 25344, Note_on_c, 2, 62, 68
4, 25344, Note_on_c, 2, 59, 68
4, 25704, Note_off_c, 2, 67, 0
4, 25704, Note_off_c, 2, 62, 0
4, 25728, Note_on_c, 2, 62, 70
4, 26088, Note_off_c, 2, 59, 0
4, 26088, Note_off_c, 2, 62, 0
4, 26112, Note_on_c, 2, 59, 72
4, 26472, Note_off_c, 2, 59, 0
4, 26496, Note_on_c, 2, 62, 66
4, 26496, Note_on_c, 2, 59, 66
4, 26856, Note_off_c, 2, 62, 0
4, 26856, Note_off_c, 2, 59, 0
4, 26880, Note_on_c, 2, 60, 66
4, 26880, Note_on_c, 2, 57, 66
4, 27060, Note_off_c, 2, 60, 0
4, 27060, Note_off_c, 2, 57, 0
4, 27072, Note_on_c, 2, 59, 66
4, 27072, Note_on_c, 2, 55, 66
4, 27252, Note_off_c, 2, 59, 0
4, 27252, Note_off_c, 2, 55, 0
4, 27264, Note_on_c, 2, 64, 66
4, 27264, Note_on_c, 2, 60, 66
4, 27444, Note_off_c, 2, 64, 0
4, 27444, Note_off_c, 2, 60, 0
4, 27456, Note_on_c, 2, 62, 66
4, 27456, Note_on_c, 2, 59, 66
4, 27636, Note_off_c, 2, 62, 0
4, 27636, Note_off_c, 2, 59, 0
4, 27648, Note_on_c, 2, 62, 66
4, 27648, Note_on_c, 2, 59, 66
4, 28008, Note_off_c, 2, 62, 0
4, 28008, Note_off_c, 2, 59, 0
4, 28032, Note_on_c, 2, 67, 66
4, 28032, Note_on_c, 2, 64, 66
4, 28596, Note_off_c, 2, 67, 0
4, 28596, Note_off_c, 2, 64, 0
4, 28608, Note_on_c, 2, 66, 66
4, 28608, Note_on_c, 2, 62, 66
4, 28788, Note_off_c, 2, 66, 0
4, 28788, Note_off_c, 2, 62, 0
4, 28800, Note_on_c, 2, 66, 66
4, 28800, Note_on_c, 2, 62, 66
4, 28980, Note_off_c, 2, 66, 0
4, 28980, Note_off_c, 2, 62, 0
4, 28992, Note_on_c, 2, 64, 66
4, 28992, Note_on_c, 2, 60, 66
4, 29172, Note_off_c, 2, 64, 0
4, 29172, Note_off_c, 2, 60, 0
4, 29184, Note_on_c, 2, 62, 66
4, 29184, Note_on_c, 2, 59, 66
4, 29364, Note_off_c, 2, 62, 0
4, 29364, Note_off_c, 2, 59, 0
4, 29376, Note_on_c, 2, 62, 66
4, 29556, Note_off_c, 2, 62, 0
4, 29568, Note_on_c, 2, 59, 66
4, 29748, Note_off_c, 2, 59, 0
4, 29760, Note_on_c, 2, 55, 66
4, 29940, Note_off_c, 2, 55, 0
4, 29952, Note_on_c, 2, 72, 66
4, 29952, Note_on_c, 2, 62, 66
4, 30132, Note_off_c, 2, 62, 0
4, 30312, Note_off_c, 2, 72, 0
4, 30336, Note_on_c, 2, 69, 66
4, 30420, Note_off_c, 2, 69, 0
4, 30432, Note_on_c, 2, 66, 66
4, 30516, Note_off_c, 2, 66, 0
4, 30528, Note_on_c, 2, 62, 66
4, 30528, Note_on_c, 2, 57, 66
4, 30612, Note_off_c, 2, 62, 0
4, 30624, Note_on_c, 2, 60, 66
4, 30708, Note_off_c, 2, 57, 0
4, 30708, Note_off_c, 2, 60, 0
4, 30720, Note_on_c, 2, 59, 66
4, 30804, Note_off_c, 2, 59, 0
4, 30816, Note_on_c, 2, 62, 66
4, 30900, Note_off_c, 2, 62, 0
4, 30912, Note_on_c, 2, 67, 66
4, 30996, Note_off_c, 2, 67, 0
4, 31008, Note_on_c, 2, 71, 66
4, 31092, Note_off_c, 2, 71, 0
4, 31104, Note_on_c, 2, 72, 66
4, 31464, Note_off_c, 2, 72, 0
4, 31488, Note_on_c, 2, 69, 66
4, 31572, Note_off_c, 2, 69, 0
4, 31584, Note_on_c, 2, 66, 66
4, 31668, Note_off_c, 2, 66, 0
4, 31680, Note_on_c, 2, 62, 66
4, 31680, Note_on_c, 2, 57, 66
4, 31764, Note_off_c, 2, 62, 0
4, 31776, Note_on_c, 2, 60, 66
4, 31860, Note_off_c, 2, 57, 0
4, 31860, Note_off_c, 2, 60, 0
4, 31872, Note_on_c, 2, 59, 66
4, 31956, Note_off_c, 2, 59, 0
4, 31968, Note_on_c, 2, 62, 66
4, 32052, Note_off_c, 2, 62, 0
4, 32064, Note_on_c, 2, 67, 66
4, 32148, Note_off_c, 2, 67, 0
4, 32160, Note_on_c, 2, 71, 66
4, 32244, Note_off_c, 2, 71, 0
4, 32256, Note_on_c, 2, 69, 66
4, 32256, Note_on_c, 2, 64, 66
4, 32616, Note_off_c, 2, 69, 0
4, 32616, Note_off_c, 2, 64, 0
4, 32640, Note_on_c, 2, 67, 66
4, 32640, Note_on_c, 2, 59, 66
4, 33000, Note_off_c, 2, 67, 0
4, 33000, Note_off_c, 2, 59, 0
4, 33024, Note_on_c, 2, 66, 66
4, 33024, Note_on_c, 2, 60, 66
4, 33024, Note_on_c, 2, 57, 66
4, 33384, Note_off_c, 2, 66, 0
4, 33384, Note_off_c, 2, 60, 0
4, 33384, Note_off_c, 2, 57, 0
4, 33408, Note_on_c, 2, 67, 66
4, 33408, Note_on_c, 2, 59, 66
4, 33588, Note_off_c, 2, 67, 0
4, 33588, Note_off_c, 2, 59, 0
4, 33600, Note_on_c, 2, 67, 93
4, 33600, Note_on_c, 2, 60, 93
4, 33600, Note_on_c, 2, 72, 93
4, 33780, Note_off_c, 2, 67, 0
4, 33792, Note_on_c, 2, 66, 93
4, 33960, Note_off_c, 2, 60, 0
4, 33960, Note_off_c, 2, 72, 0
4, 33972, Note_off_c, 2, 66, 0
4, 33984, Note_on_c, 2, 71, 93
4, 34024, Note_off_c, 2, 71, 0
4, 34032, Note_on_c, 2, 72, 93
4, 34164, Note_off_c, 2, 72, 0
4, 34176, Note_on_c, 2, 74, 93
4, 34216, Note_off_c, 2, 74, 0
4, 34220, Note_on_c, 2, 72, 93
4, 34352, Note_off_c, 2, 72, 0
4, 34368, Note_on_c, 2, 71, 93
4, 34408, Note_off_c, 2, 71, 0
4, 34416, Note_on_c, 2, 69, 93
4, 34548, Note_off_c, 2, 69, 0
4, 34560, Note_on_c, 2, 67, 93
4, 34740, Note_off_c, 2, 67, 0
4, 34752, Note_on_c, 2, 79, 93
4, 34752, Note_on_c, 2, 72, 93
4, 34752, Note_on_c, 2, 84, 93
4, 34932, Note_off_c, 2, 79, 0
4, 34932, Note_off_c, 2, 72, 0
4, 34944, Note_on_c, 2, 78, 93
4, 34944, Note_on_c, 2, 72, 93
4, 35112, Note_off_c, 2, 84, 0
4, 35124, Note_off_c, 2, 78, 0
4, 35124, Note_off_c, 2, 72, 0
4, 35136, Note_on_c, 2, 83, 93
4, 35176, Note_off_c, 2, 83, 0
4, 35184, Note_on_c, 2, 84, 93
4, 35316, Note_off_c, 2, 84, 0
4, 35328, Note_on_c, 2, 86, 93
4, 35368, Note_off_c, 2, 86, 0
4, 35392, Note_on_c, 2, 84, 93
4, 35520, Note_on_c, 2, 83, 93
4, 35524, Note_off_c, 2, 84, 0
4, 35564, Note_off_c, 2, 83, 0
4, 35568, Note_on_c, 2, 81, 93
4, 35708, Note_off_c, 2, 81, 0
4, 35712, Note_on_c, 2, 79, 66
4, 35892, Note_off_c, 2, 79, 0
4, 35904, Note_on_c, 2, 71, 66
4, 35904, Note_on_c, 2, 62, 66
4, 36084, Note_off_c, 2, 71, 0
4, 36084, Note_off_c, 2, 62, 0
4, 36096, Note_on_c, 2, 71, 66
4, 36096, Note_on_c, 2, 62, 66
4, 36276, Note_off_c, 2, 71, 0
4, 36276, Note_off_c, 2, 62, 0
4, 36288, Note_on_c, 2, 71, 66
4, 36288, Note_on_c, 2, 62, 66
4, 36468, Note_off_c, 2, 71, 0
4, 36468, Note_off_c, 2, 62, 0
4, 36480, Note_on_c, 2, 71, 66
4, 36480, Note_on_c, 2, 62, 66
4, 36660, Note_off_c, 2, 71, 0
4, 36660, Note_off_c, 2, 62, 0
4, 36672, Note_on_c, 2, 71, 66
4, 36672, Note_on_c, 2, 62, 66
4, 36852, Note_off_c, 2, 71, 0
4, 36852, Note_off_c, 2, 62, 0
4, 37056, Note_on_c, 2, 69, 66
4, 37056, Note_on_c, 2, 62, 66
4, 37236, Note_off_c, 2, 69, 0
4, 37236, Note_off_c, 2, 62, 0
4, 37248, Note_on_c, 2, 69, 66
4, 37248, Note_on_c, 2, 62, 66
4, 37428, Note_off_c, 2, 69, 0
4, 37428, Note_off_c, 2, 62, 0
4, 37440, Note_on_c, 2, 69, 66
4, 37440, Note_on_c, 2, 62, 66
4, 37620, Note_off_c, 2, 69, 0
4, 37620, Note_off_c, 2, 62, 0
4, 37632, Note_on_c, 2, 69, 66
4, 37632, Note_on_c, 2, 62, 66
4, 37812, Note_off_c, 2, 69, 0
4, 37812, Note_off_c, 2, 62, 0
4, 37824, Note_on_c, 2, 69, 66
4, 37824, Note_on_c, 2, 62, 66
4, 38004, Note_off_c, 2, 69, 0
4, 38004, Note_off_c, 2, 62, 0
4, 38208, Note_on_c, 2, 67, 66
4, 38208, Note_on_c, 2, 62, 66
4, 38208, Note_on_c, 2, 59, 66
4, 38388, Note_off_c, 2, 67, 0
4, 38388, Note_off_c, 2, 62, 0
4, 38388, Note_off_c, 2, 59, 0
4, 38400, Note_on_c, 2, 67, 66
4, 38400, Note_on_c, 2, 61, 66
4, 38400, Note_on_c, 2, 57, 66
4, 38580, Note_off_c, 2, 67, 0
4, 38580, Note_off_c, 2, 61, 0
4, 38580, Note_off_c, 2, 57, 0
4, 38592, Note_on_c, 2, 67, 66
4, 38592, Note_on_c, 2, 61, 66
4, 38592, Note_on_c, 2, 57, 66
4, 38772, Note_off_c, 2, 67, 0
4, 38772, Note_off_c, 2, 61, 0
4, 38772, Note_off_c, 2, 57, 0
4, 38784, Note_on_c, 2, 67, 66
4, 38784, Note_on_c, 2, 64, 66
4, 38784, Note_on_c, 2, 61, 66
4, 38964, Note_off_c, 2, 67, 0
4, 38964, Note_off_c, 2, 64, 0
4, 38964, Note_off_c, 2, 61, 0
4, 38976, Note_on_c, 2, 67, 66
4, 38976, Note_on_c, 2, 64, 66
4, 38976, Note_on_c, 2, 61, 66
4, 39156, Note_off_c, 2, 67, 0
4, 39156, Note_off_c, 2, 64, 0
4, 39156, Note_off_c, 2, 61, 0
4, 39360, Note_on_c, 2, 67, 66
4, 39360, Note_on_c, 2, 64, 66
4, 39360, Note_on_c, 2, 61, 66
4, 39540, Note_off_c, 2, 67, 0
4, 39540, Note_off_c, 2, 64, 0
4, 39540, Note_off_c, 2, 61, 0
4, 39552, Note_on_c, 2, 66, 66
4, 39552, Note_on_c, 2, 62, 66
4, 39732, Note_off_c, 2, 66, 0
4, 39732, Note_off_c, 2, 62, 0
4, 39744, Note_on_c, 2, 69, 66
4, 39744, Note_on_c, 2, 66, 66
4, 39744, Note_on_c, 2, 62, 66
4, 39924, Note_off_c, 2, 69, 0
4, 39924, Note_off_c, 2, 66, 0
4, 39924, Note_off_c, 2, 62, 0
4, 39936, Note_on_c, 2, 74, 66
4, 39936, Note_on_c, 2, 69, 66
4, 40116, Note_off_c, 2, 74, 0
4, 40116, Note_off_c, 2, 69, 0
4, 40128, Note_on_c, 2, 74, 66
4, 40128, Note_on_c, 2, 69, 66
4, 40308, Note_off_c, 2, 74, 0
4, 40308, Note_off_c, 2, 69, 0
4, 40320, Note_on_c, 2, 74, 66
4, 40320, Note_on_c, 2, 71, 66
4, 40680, Note_off_c, 2, 71, 65
4, 40704, Note_on_c, 2, 71, 66
4, 41268, Note_off_c, 2, 71, 65
4, 41280, Note_on_c, 2, 69, 66
4, 41448, Note_off_c, 2, 74, 65
4, 41460, Note_off_c, 2, 69, 65
4, 41472, Note_on_c, 2, 74, 66
4, 41472, Note_on_c, 2, 67, 66
4, 41832, Note_off_c, 2, 67, 65
4, 41856, Note_on_c, 2, 67, 66
4, 42420, Note_off_c, 2, 67, 65
4, 42432, Note_on_c, 2, 69, 66
4, 42600, Note_off_c, 2, 74, 65
4, 42612, Note_off_c, 2, 69, 65
4, 42624, Note_on_c, 2, 71, 66
4, 42624, Note_on_c, 2, 62, 66
4, 42984, Note_off_c, 2, 62, 65
4, 43008, Note_on_c, 2, 64, 66
4, 43368, Note_off_c, 2, 64, 65
4, 43392, Note_on_c, 2, 65, 66
4, 43752, Note_off_c, 2, 71, 65
4, 43752, Note_off_c, 2, 65, 65
4, 43776, Note_on_c, 2, 69, 66
4, 43776, Note_on_c, 2, 64, 66
4, 44136, Note_off_c, 2, 69, 65
4, 44136, Note_off_c, 2, 64, 65
4, 44352, Note_on_c, 2, 59, 66
4, 44532, Note_off_c, 2, 59, 65
4, 44544, Note_on_c, 2, 57, 66
4, 44724, Note_off_c, 2, 57, 65
4, 44736, Note_on_c, 2, 55, 66
4, 44916, Note_off_c, 2, 55, 65
4, 45120, Note_on_c, 2, 81, 69
4, 45300, Note_off_c, 2, 81, 65
4, 45312, Note_on_c, 2, 81, 69
4, 45492, Note_off_c, 2, 81, 65
4, 45504, Note_on_c, 2, 81, 69
4, 45684, Note_off_c, 2, 81, 65
4, 45696, Note_on_c, 2, 73, 93
4, 45968, Note_off_c, 2, 73, 65
4, 45984, Note_on_c, 2, 74, 93
4, 46024, Note_off_c, 2, 74, 65
4, 46032, Note_on_c, 2, 76, 93
4, 46072, Note_off_c, 2, 76, 65
4, 46080, Note_on_c, 2, 74, 66
4, 46164, Note_off_c, 2, 74, 65
4, 46176, Note_on_c, 2, 69, 66
4, 46260, Note_off_c, 2, 69, 65
4, 46272, Note_on_c, 2, 74, 66
4, 46356, Note_off_c, 2, 74, 65
4, 46368, Note_on_c, 2, 78, 66
4, 46452, Note_off_c, 2, 78, 65
4, 46464, Note_on_c, 2, 81, 69
4, 46644, Note_off_c, 2, 81, 65
4, 46656, Note_on_c, 2, 81, 69
4, 46832, Note_on_c, 2, 73, 93
4, 46836, Note_off_c, 2, 81, 65
4, 47104, Note_off_c, 2, 73, 65
4, 47136, Note_on_c, 2, 74, 93
4, 47176, Note_off_c, 2, 74, 65
4, 47184, Note_on_c, 2, 76, 93
4, 47224, Note_off_c, 2, 76, 65
4, 47232, Note_on_c, 2, 74, 66
4, 47412, Note_off_c, 2, 74, 65
4, 47616, Note_on_c, 2, 78, 66
4, 47616, Note_on_c, 2, 81, 66
4, 47796, Note_off_c, 2, 78, 65
4, 47796, Note_off_c, 2, 81, 65
4, 48000, Note_on_c, 2, 73, 66
4, 48180, Note_off_c, 2, 73, 65
4, 48384, Note_on_c, 2, 74, 66
4, 48564, Note_off_c, 2, 74, 65
4, 48768, Note_on_c, 2, 78, 66
4, 48768, Note_on_c, 2, 81, 66
4, 48948, Note_off_c, 2, 78, 65
4, 48948, Note_off_c, 2, 81, 65
4, 49152, Note_on_c, 2, 73, 66
4, 49332, Note_off_c, 2, 73, 65
4, 49536, Note_on_c, 2, 74, 66
4, 49808, Note_off_c, 2, 74, 65
4, 49824, Note_on_c, 2, 76, 66
4, 49908, Note_off_c, 2, 76, 65
4, 49920, Note_on_c, 2, 78, 66
4, 50100, Note_off_c, 2, 78, 65
4, 50112, Note_on_c, 2, 70, 66
4, 50292, Note_off_c, 2, 70, 65
4, 50304, Note_on_c, 2, 71, 66
4, 50484, Note_off_c, 2, 71, 65
4, 50496, Note_on_c, 2, 74, 66
4, 50676, Note_off_c, 2, 74, 65
4, 50688, Note_on_c, 2, 67, 66
4, 50960, Note_off_c, 2, 67, 65
4, 50976, Note_on_c, 2, 69, 66
4, 51060, Note_off_c, 2, 69, 65
4, 51072, Note_on_c, 2, 71, 66
4, 51252, Note_off_c, 2, 71, 65
4, 51264, Note_on_c, 2, 75, 66
4, 51444, Note_off_c, 2, 75, 65
4, 51456, Note_on_c, 2, 76, 66
4, 51636, Note_off_c, 2, 76, 65
4, 51648, Note_on_c, 2, 78, 66
4, 51828, Note_off_c, 2, 78, 65
4, 51840, Note_on_c, 2, 79, 66
4, 51840, Note_on_c, 2, 67, 66
4, 52200, Note_off_c, 2, 79, 65
4, 52200, Note_off_c, 2, 67, 65
4, 52992, Note_on_c, 2, 78, 66
4, 52992, Note_on_c, 2, 66, 66
4, 53352, Note_off_c, 2, 78, 65
4, 53352, Note_off_c, 2, 66, 65
4, 53760, Note_on_c, 2, 74, 66
4, 53760, Note_on_c, 2, 69, 66
4, 54120, Note_off_c, 2, 74, 65
4, 54120, Note_off_c, 2, 69, 65
4, 54144, Note_on_c, 2, 71, 66
4, 54144, Note_on_c, 2, 67, 66
4, 54504, Note_off_c, 2, 71, 65
4, 54504, Note_off_c, 2, 67, 65
4, 54528, Note_on_c, 2, 69, 66
4, 54528, Note_on_c, 2, 66, 66
4, 54888, Note_off_c, 2, 69, 65
4, 54888, Note_off_c, 2, 66, 65
4, 54912, Note_on_c, 2, 67, 66
4, 54912, Note_on_c, 2, 64, 66
4, 55272, Note_off_c, 2, 67, 65
4, 55272, Note_off_c, 2, 64, 65
4, 55296, Note_on_c, 2, 66, 66
4, 55296, Note_on_c, 2, 62, 66
4, 55656, Note_off_c, 2, 66, 65
4, 55656, Note_off_c, 2, 62, 65
4, 55872, Note_on_c, 2, 74, 66
4, 55872, Note_on_c, 2, 68, 66
4, 55872, Note_on_c, 2, 64, 66
4, 56052, Note_off_c, 2, 74, 65
4, 56052, Note_off_c, 2, 68, 65
4, 56052, Note_off_c, 2, 64, 65
4, 56064, Note_on_c, 2, 74, 66
4, 56064, Note_on_c, 2, 68, 66
4, 56064, Note_on_c, 2, 64, 66
4, 56244, Note_off_c, 2, 74, 65
4, 56244, Note_off_c, 2, 68, 65
4, 56244, Note_off_c, 2, 64, 65
4, 56256, Note_on_c, 2, 74, 66
4, 56256, Note_on_c, 2, 68, 66
4, 56256, Note_on_c, 2, 64, 66
4, 56436, Note_off_c, 2, 74, 65
4, 56436, Note_off_c, 2, 68, 65
4, 56436, Note_off_c, 2, 64, 65
4, 56448, Note_on_c, 2, 76, 66
4, 56448, Note_on_c, 2, 69, 66
4, 56448, Note_on_c, 2, 67, 66
4, 56808, Note_off_c, 2, 76, 65
4, 56808, Note_off_c, 2, 69, 65
4, 56808, Note_off_c, 2, 67, 65
4, 58752, Note_on_c, 2, 74, 66
4, 58752, Note_on_c, 2, 66, 66
4, 58932, Note_off_c, 2, 74, 65
4, 58932, Note_off_c, 2, 66, 65
4, 59136, Note_on_c, 2, 74, 66
4, 59136, Note_on_c, 2, 66, 66
4, 59316, Note_off_c, 2, 74, 65
4, 59316, Note_off_c, 2, 66, 65
4, 59520, Note_on_c, 2, 73, 66
4, 59520, Note_on_c, 2, 64, 66
4, 59708, Note_off_c, 2, 73, 65
4, 59708, Note_off_c, 2, 64, 65
4, 59904, Note_on_c, 2, 81, 93
4, 59904, Note_on_c, 2, 74, 93
4, 59904, Note_on_c, 2, 69, 93
4, 60176, Note_off_c, 2, 81, 65
4, 60176, Note_off_c, 2, 74, 65
4, 60176, Note_off_c, 2, 69, 65
4, 60192, Note_on_c, 2, 74, 66
4, 60192, Note_on_c, 2, 69, 66
4, 60276, Note_off_c, 2, 74, 65
4, 60276, Note_off_c, 2, 69, 65
4, 60288, Note_on_c, 2, 74, 66
4, 60288, Note_on_c, 2, 69, 66
4, 60468, Note_off_c, 2, 74, 65
4, 60468, Note_off_c, 2, 69, 65
4, 60672, Note_on_c, 2, 74, 66
4, 60672, Note_on_c, 2, 69, 66
4, 60852, Note_off_c, 2, 74, 65
4, 60852, Note_off_c, 2, 69, 65
4, 61056, Note_on_c, 2, 83, 93
4, 61056, Note_on_c, 2, 74, 93
4, 61056, Note_on_c, 2, 71, 93
4, 61328, Note_off_c, 2, 83, 65
4, 61328, Note_off_c, 2, 74, 65
4, 61328, Note_off_c, 2, 71, 65
4, 61344, Note_on_c, 2, 74, 66
4, 61344, Note_on_c, 2, 71, 66
4, 61428, Note_off_c, 2, 74, 65
4, 61428, Note_off_c, 2, 71, 65
4, 61440, Note_on_c, 2, 74, 66
4, 61440, Note_on_c, 2, 71, 66
4, 61620, Note_off_c, 2, 74, 65
4, 61620, Note_off_c, 2, 71, 65
4, 61824, Note_on_c, 2, 74, 66
4, 61824, Note_on_c, 2, 71, 66
4, 62004, Note_off_c, 2, 74, 65
4, 62004, Note_off_c, 2, 71, 65
4, 62208, Note_on_c, 2, 78, 66
4, 62208, Note_on_c, 2, 74, 66
4, 62208, Note_on_c, 2, 69, 66
4, 62292, Note_off_c, 2, 78, 65
4, 62292, Note_off_c, 2, 74, 65
4, 62292, Note_off_c, 2, 69, 65
4, 62304, Note_on_c, 2, 78, 66
4, 62304, Note_on_c, 2, 74, 66
4, 62304, Note_on_c, 2, 69, 66
4, 62388, Note_off_c, 2, 78, 65
4, 62388, Note_off_c, 2, 74, 65
4, 62388, Note_off_c, 2, 69, 65
4, 62400, Note_on_c, 2, 78, 66
4, 62400, Note_on_c, 2, 74, 66
4, 62400, Note_on_c, 2, 69, 66
4, 62484, Note_off_c, 2, 78, 65
4, 62484, Note_off_c, 2, 74, 65
4, 62484, Note_off_c, 2, 69, 65
4, 62496, Note_on_c, 2, 78, 66
4, 62496, Note_on_c, 2, 74, 66
4, 62496, Note_on_c, 2, 69, 66
4, 62580, Note_off_c, 2, 78, 65
4, 62580, Note_off_c, 2, 74, 65
4, 62580, Note_off_c, 2, 69, 65
4, 62592, Note_on_c, 2, 78, 66
4, 62592, Note_on_c, 2, 74, 66
4, 62592, Note_on_c, 2, 69, 66
4, 62676, Note_off_c, 2, 78, 65
4, 62676, Note_off_c, 2, 74, 65
4, 62676, Note_off_c, 2, 69, 65
4, 62688, Note_on_c, 2, 78, 66
4, 62688, Note_on_c, 2, 74, 66
4, 62688, Note_on_c, 2, 69, 66
4, 62772, Note_off_c, 2, 78, 65
4, 62772, Note_off_c, 2, 74, 65
4, 62772, Note_off_c, 2, 69, 65
4, 62784, Note_on_c, 2, 78, 66
4, 62784, Note_on_c, 2, 74, 66
4, 62784, Note_on_c, 2, 69, 66
4, 62868, Note_off_c, 2, 78, 65
4, 62868, Note_off_c, 2, 74, 65
4, 62868, Note_off_c, 2, 69, 65
4, 62880, Note_on_c, 2, 78, 66
4, 62880, Note_on_c, 2, 74, 66
4, 62880, Note_on_c, 2, 69, 66
4, 62964, Note_off_c, 2, 78, 65
4, 62964, Note_off_c, 2, 74, 65
4, 62964, Note_off_c, 2, 69, 65
4, 62976, Note_on_c, 2, 78, 66
4, 62976, Note_on_c, 2, 74, 66
4, 62976, Note_on_c, 2, 69, 66
4, 63060, Note_off_c, 2, 78, 65
4, 63060, Note_off_c, 2, 74, 65
4, 63060, Note_off_c, 2, 69, 65
4, 63072, Note_on_c, 2, 78, 66
4, 63072, Note_on_c, 2, 74, 66
4, 63072, Note_on_c, 2, 69, 66
4, 63156, Note_off_c, 2, 78, 65
4, 63156, Note_off_c, 2, 74, 65
4, 63156, Note_off_c, 2, 69, 65
4, 63168, Note_on_c, 2, 78, 66
4, 63168, Note_on_c, 2, 74, 66
4, 63168, Note_on_c, 2, 69, 66
4, 63252, Note_off_c, 2, 78, 65
4, 63252, Note_off_c, 2, 74, 65
4, 63252, Note_off_c, 2, 69, 65
4, 63264, Note_on_c, 2, 78, 66
4, 63264, Note_on_c, 2, 74, 66
4, 63264, Note_on_c, 2, 69, 66
4, 63348, Note_off_c, 2, 78, 65
4, 63348, Note_off_c, 2, 74, 65
4, 63348, Note_off_c, 2, 69, 65
4, 63360, Note_on_c, 2, 76, 66
4, 63360, Note_on_c, 2, 73, 66
4, 63360, Note_on_c, 2, 67, 66
4, 63444, Note_off_c, 2, 76, 65
4, 63444, Note_off_c, 2, 73, 65
4, 63444, Note_off_c, 2, 67, 65
4, 63456, Note_on_c, 2, 76, 66
4, 63456, Note_on_c, 2, 73, 66
4, 63456, Note_on_c, 2, 67, 66
4, 63540, Note_off_c, 2, 76, 65
4, 63540, Note_off_c, 2, 73, 65
4, 63540, Note_off_c, 2, 67, 65
4, 63552, Note_on_c, 2, 76, 66
4, 63552, Note_on_c, 2, 73, 66
4, 63552, Note_on_c, 2, 67, 66
4, 63636, Note_off_c, 2, 76, 65
4, 63636, Note_off_c, 2, 73, 65
4, 63636, Note_off_c, 2, 67, 65
4, 63648, Note_on_c, 2, 76, 66
4, 63648, Note_on_c, 2, 73, 66
4, 63648, Note_on_c, 2, 67, 66
4, 63732, Note_off_c, 2, 76, 65
4, 63732, Note_off_c, 2, 73, 65
4, 63732, Note_off_c, 2, 67, 65
4, 63744, Note_on_c, 2, 76, 66
4, 63744, Note_on_c, 2, 73, 66
4, 63744, Note_on_c, 2, 67, 66
4, 63828, Note_off_c, 2, 76, 65
4, 63828, Note_off_c, 2, 73, 65
4, 63828, Note_off_c, 2, 67, 65
4, 63840, Note_on_c, 2, 76, 66
4, 63840, Note_on_c, 2, 73, 66
4, 63840, Note_on_c, 2, 67, 66
4, 63924, Note_off_c, 2, 76, 65
4, 63924, Note_off_c, 2, 73, 65
4, 63924, Note_off_c, 2, 67, 65
4, 63936, Note_on_c, 2, 76, 66
4, 63936, Note_on_c, 2, 73, 66
4, 63936, Note_on_c, 2, 67, 66
4, 64020, Note_off_c, 2, 76, 65
4, 64020, Note_off_c, 2, 73, 65
4, 64020, Note_off_c, 2, 67, 65
4, 64032, Note_on_c, 2, 76, 66
4, 64032, Note_on_c, 2, 73, 66
4, 64032, Note_on_c, 2, 67, 66
4, 64116, Note_off_c, 2, 76, 65
4, 64116, Note_off_c, 2, 73, 65
4, 64116, Note_off_c, 2, 67, 65
4, 64128, Note_on_c, 2, 76, 66
4, 64128, Note_on_c, 2, 73, 66
4, 64128, Note_on_c, 2, 67, 66
4, 64212, Note_off_c, 2, 76, 65
4, 64212, Note_off_c, 2, 73, 65
4, 64212, Note_off_c, 2, 67, 65
4, 64224, Note_on_c, 2, 76, 66
4, 64224, Note_on_c, 2, 73, 66
4, 64224, Note_on_c, 2, 67, 66
4, 64308, Note_off_c, 2, 76, 65
4, 64308, Note_off_c, 2, 73, 65
4, 64308, Note_off_c, 2, 67, 65
4, 64320, Note_on_c, 2, 76, 66
4, 64320, Note_on_c, 2, 73, 66
4, 64320, Note_on_c, 2, 67, 66
4, 64404, Note_off_c, 2, 76, 65
4, 64404, Note_off_c, 2, 73, 65
4, 64404, Note_off_c, 2, 67, 65
4, 64416, Note_on_c, 2, 76, 66
4, 64416, Note_on_c, 2, 73, 66
4, 64416, Note_on_c, 2, 67, 66
4, 64500, Note_off_c, 2, 76, 65
4, 64500, Note_off_c, 2, 73, 65
4, 64500, Note_off_c, 2, 67, 65
4, 64512, Note_on_c, 2, 74, 93
4, 64512, Note_on_c, 2, 66, 93
4, 64692, Note_off_c, 2, 74, 65
4, 64692, Note_off_c, 2, 66, 65
4, 64704, Note_on_c, 2, 74, 93
4, 64704, Note_on_c, 2, 69, 93
4, 64704, Note_on_c, 2, 66, 93
4, 65064, Note_off_c, 2, 74, 65
4, 65064, Note_off_c, 2, 69, 65
4, 65064, Note_off_c, 2, 66, 65
4, 65088, Note_on_c, 2, 74, 93
4, 65088, Note_on_c, 2, 69, 93
4, 65088, Note_on_c, 2, 66, 93
4, 65448, Note_off_c, 2, 74, 65
4, 65448, Note_off_c, 2, 69, 65
4, 65448, Note_off_c, 2, 66, 65
4, 65456, Note_on_c, 2, 67, 93
4, 65472, Note_on_c, 2, 76, 93
4, 65472, Note_on_c, 2, 69, 93
4, 65588, Note_off_c, 2, 67, 65
4, 65604, Note_off_c, 2, 76, 65
4, 65616, Note_on_c, 2, 73, 93
4, 65616, Note_on_c, 2, 64, 93
4, 65652, Note_off_c, 2, 69, 65
4, 65656, Note_off_c, 2, 73, 65
4, 65656, Note_off_c, 2, 64, 65
4, 65664, Note_on_c, 2, 74, 93
4, 65664, Note_on_c, 2, 69, 93
4, 65664, Note_on_c, 2, 66, 93
4, 65844, Note_off_c, 2, 74, 65
4, 65844, Note_off_c, 2, 69, 65
4, 65844, Note_off_c, 2, 66, 65
4, 65856, Note_on_c, 2, 69, 93
4, 65856, Note_on_c, 2, 74, 93
4, 65856, Note_on_c, 2, 78, 93
4, 66216, Note_off_c, 2, 69, 65
4, 66216, Note_off_c, 2, 74, 65
4, 66216, Note_off_c, 2, 78, 65
4, 66240, Note_on_c, 2, 74, 93
4, 66240, Note_on_c, 2, 69, 93
4, 66240, Note_on_c, 2, 78, 93
4, 66600, Note_off_c, 2, 74, 65
4, 66600, Note_off_c, 2, 69, 65
4, 66600, Note_off_c, 2, 78, 65
4, 66624, Note_on_c, 2, 76, 93
4, 66624, Note_on_c, 2, 69, 93
4, 66624, Note_on_c, 2, 79, 93
4, 66756, Note_off_c, 2, 76, 65
4, 66756, Note_off_c, 2, 79, 65
4, 66768, Note_on_c, 2, 76, 93
4, 66768, Note_on_c, 2, 73, 93
4, 66804, Note_off_c, 2, 69, 65
4, 66808, Note_off_c, 2, 76, 65
4, 66808, Note_off_c, 2, 73, 65
4, 66816, Note_on_c, 2, 81, 93
4, 66816, Note_on_c, 2, 74, 93
4, 66912, Note_on_c, 2, 79, 93
4, 66952, Note_off_c, 2, 79, 65
4, 66960, Note_on_c, 2, 81, 93
4, 66996, Note_off_c, 2, 81, 65
4, 66996, Note_off_c, 2, 74, 65
4, 67000, Note_off_c, 2, 81, 65
4, 67008, Note_on_c, 2, 83, 93
4, 67008, Note_on_c, 2, 74, 93
4, 67092, Note_off_c, 2, 83, 65
4, 67104, Note_on_c, 2, 71, 93
4, 67188, Note_off_c, 2, 74, 65
4, 67188, Note_off_c, 2, 71, 65
4, 67200, Note_on_c, 2, 69, 93
4, 67200, Note_on_c, 2, 66, 93
4, 67284, Note_off_c, 2, 66, 65
4, 67296, Note_on_c, 2, 62, 93
4, 67380, Note_off_c, 2, 62, 65
4, 67392, Note_on_c, 2, 66, 93
4, 67476, Note_off_c, 2, 66, 65
4, 67488, Note_on_c, 2, 62, 93
4, 67560, Note_off_c, 2, 69, 65
4, 67572, Note_off_c, 2, 62, 65
4, 67584, Note_on_c, 2, 73, 93
4, 67584, Note_on_c, 2, 67, 93
4, 67584, Note_on_c, 2, 76, 96
4, 67604, Note_off_c, 2, 76, 65
4, 67608, Note_on_c, 2, 78, 96
4, 67628, Note_off_c, 2, 78, 65
4, 67632, Note_on_c, 2, 76, 96
4, 67652, Note_off_c, 2, 76, 65
4, 67656, Note_on_c, 2, 78, 96
4, 67676, Note_off_c, 2, 78, 65
4, 67680, Note_on_c, 2, 76, 96
4, 67700, Note_off_c, 2, 76, 65
4, 67704, Note_on_c, 2, 78, 96
4, 67724, Note_off_c, 2, 78, 65
4, 67728, Note_on_c, 2, 76, 96
4, 67748, Note_off_c, 2, 76, 65
4, 67752, Note_on_c, 2, 78, 96
4, 67772, Note_off_c, 2, 78, 65
4, 67776, Note_on_c, 2, 74, 93
4, 67860, Note_off_c, 2, 74, 65
4, 67872, Note_on_c, 2, 76, 93
4, 67944, Note_off_c, 2, 73, 65
4, 67944, Note_off_c, 2, 67, 65
4, 67956, Note_off_c, 2, 76, 65
4, 67968, Note_on_c, 2, 74, 93
4, 67968, Note_on_c, 2, 69, 93
4, 67968, Note_on_c, 2, 66, 93
4, 68148, Note_off_c, 2, 74, 65
4, 68148, Note_off_c, 2, 69, 65
4, 68148, Note_off_c, 2, 66, 65
4, 68160, Note_on_c, 2, 62, 93
4, 68160, Note_on_c, 2, 67, 93
4, 68340, Note_off_c, 2, 62, 65
4, 68352, Note_on_c, 2, 61, 93
4, 68520, Note_off_c, 2, 67, 65
4, 68532, Note_off_c, 2, 61, 65
4, 68544, Note_on_c, 2, 66, 93
4, 68584, Note_off_c, 2, 66, 65
4, 68592, Note_on_c, 2, 67, 93
4, 68724, Note_off_c, 2, 67, 65
4, 68736, Note_on_c, 2, 69, 93
4, 68776, Note_off_c, 2, 69, 65
4, 68784, Note_on_c, 2, 67, 93
4, 68916, Note_off_c, 2, 67, 65
4, 68928, Note_on_c, 2, 66, 93
4, 68968, Note_off_c, 2, 66, 65
4, 68976, Note_on_c, 2, 64, 93
4, 69116, Note_off_c, 2, 64, 65
4, 69120, Note_on_c, 2, 62, 93
4, 69300, Note_off_c, 2, 62, 65
4, 69312, Note_on_c, 2, 74, 93
4, 69312, Note_on_c, 2, 79, 93
4, 69492, Note_off_c, 2, 74, 65
4, 69504, Note_on_c, 2, 73, 93
4, 69672, Note_off_c, 2, 79, 65
4, 69684, Note_off_c, 2, 73, 65
4, 69696, Note_on_c, 2, 78, 93
4, 69736, Note_off_c, 2, 78, 65
4, 69744, Note_on_c, 2, 79, 93
4, 69876, Note_off_c, 2, 79, 65
4, 69888, Note_on_c, 2, 81, 93
4, 69928, Note_off_c, 2, 81, 65
4, 69936, Note_on_c, 2, 79, 93
4, 70068, Note_off_c, 2, 79, 65
4, 70080, Note_on_c, 2, 78, 93
4, 70120, Note_off_c, 2, 78, 65
4, 70128, Note_on_c, 2, 76, 93
4, 70260, Note_off_c, 2, 76, 65
4, 70272, Note_on_c, 2, 74, 66
4, 70656, Note_on_c, 2, 66, 66
4, 70656, Note_on_c, 2, 69, 66
4, 71016, Note_off_c, 2, 74, 65
4, 71016, Note_off_c, 2, 66, 65
4, 71016, Note_off_c, 2, 69, 65
4, 71040, Note_on_c, 2, 66, 66
4, 71040, Note_on_c, 2, 69, 66
4, 71220, Note_off_c, 2, 69, 65
4, 71232, Note_on_c, 2, 74, 66
4, 71400, Note_off_c, 2, 66, 65
4, 71412, Note_off_c, 2, 74, 65
4, 71424, Note_on_c, 2, 76, 66
4, 71424, Note_on_c, 2, 74, 66
4, 71424, Note_on_c, 2, 71, 66
4, 71424, Note_on_c, 2, 68, 66
4, 72168, Note_off_c, 2, 74, 65
4, 72168, Note_off_c, 2, 71, 65
4, 72168, Note_off_c, 2, 68, 65
4, 72192, Note_on_c, 2, 72, 66
4, 72192, Note_on_c, 2, 69, 66
4, 72552, Note_off_c, 2, 76, 65
4, 72552, Note_off_c, 2, 72, 65
4, 72552, Note_off_c, 2, 69, 65
4, 72576, Note_on_c, 2, 74, 66
4, 72576, Note_on_c, 2, 72, 66
4, 72576, Note_on_c, 2, 69, 66
4, 72576, Note_on_c, 2, 66, 66
4, 73320, Note_off_c, 2, 72, 65
4, 73320, Note_off_c, 2, 69, 65
4, 73320, Note_off_c, 2, 66, 65
4, 73344, Note_on_c, 2, 71, 66
4, 73344, Note_on_c, 2, 67, 66
4, 73704, Note_off_c, 2, 74, 65
4, 73704, Note_off_c, 2, 71, 65
4, 73704, Note_off_c, 2, 67, 65
4, 73728, Note_on_c, 2, 72, 66
4, 73728, Note_on_c, 2, 69, 66
4, 73728, Note_on_c, 2, 66, 66
4, 74472, Note_off_c, 2, 72, 65
4, 74472, Note_off_c, 2, 69, 65
4, 74472, Note_off_c, 2, 66, 65
4, 74496, Note_on_c, 2, 71, 66
4, 74496, Note_on_c, 2, 67, 66
4, 74856, Note_off_c, 2, 71, 65
4, 74856, Note_off_c, 2, 67, 65
4, 74880, Note_on_c, 2, 71, 66
4, 74880, Note_on_c, 2, 67, 66
4, 75240, Note_off_c, 2, 71, 65
4, 75240, Note_off_c, 2, 67, 65
4, 75264, Note_on_c, 2, 69, 66
4, 75264, Note_on_c, 2, 66, 66
4, 75624, Note_off_c, 2, 69, 65
4, 75624, Note_off_c, 2, 66, 65
4, 76992, Note_on_c, 2, 74, 93
4, 77172, Note_off_c, 2, 74, 65
4, 77184, Note_on_c, 2, 74, 93
4, 77364, Note_off_c, 2, 74, 65
4, 77376, Note_on_c, 2, 64, 93
4, 77556, Note_off_c, 2, 64, 65
4, 77568, Note_on_c, 2, 64, 93
4, 78132, Note_off_c, 2, 64, 65
4, 78144, Note_on_c, 2, 72, 93
4, 78324, Note_off_c, 2, 72, 65
4, 78336, Note_on_c, 2, 72, 93
4, 78516, Note_off_c, 2, 72, 65
4, 78528, Note_on_c, 2, 62, 93
4, 78708, Note_off_c, 2, 62, 65
4, 78720, Note_on_c, 2, 62, 93
4, 79284, Note_off_c, 2, 62, 65
4, 79296, Note_on_c, 2, 71, 93
4, 79476, Note_off_c, 2, 71, 65
4, 79488, Note_on_c, 2, 62, 93
4, 79848, Note_off_c, 2, 62, 65
4, 79872, Note_on_c, 2, 60, 93
4, 80232, Note_off_c, 2, 60, 65
4, 80256, Note_on_c, 2, 59, 93
4, 80616, Note_off_c, 2, 59, 65
4, 80640, Note_on_c, 2, 59, 93
4, 80660, Note_off_c, 2, 59, 65
4, 80664, Note_on_c, 2, 60, 93
4, 80684, Note_off_c, 2, 60, 65
4, 80688, Note_on_c, 2, 59, 93
4, 80708, Note_off_c, 2, 59, 65
4, 80712, Note_on_c, 2, 60, 93
4, 80732, Note_off_c, 2, 60, 65
4, 80736, Note_on_c, 2, 59, 93
4, 80756, Note_off_c, 2, 59, 65
4, 80760, Note_on_c, 2, 60, 93
4, 80780, Note_off_c, 2, 60, 65
4, 80784, Note_on_c, 2, 59, 93
4, 80804, Note_off_c, 2, 59, 65
4, 80808, Note_on_c, 2, 60, 93
4, 80828, Note_off_c, 2, 60, 65
4, 80832, Note_on_c, 2, 59, 93
4, 80852, Note_off_c, 2, 59, 65
4, 80856, Note_on_c, 2, 60, 93
4, 80876, Note_off_c, 2, 60, 65
4, 80880, Note_on_c, 2, 59, 93
4, 80900, Note_off_c, 2, 59, 65
4, 80904, Note_on_c, 2, 60, 93
4, 80924, Note_off_c, 2, 60, 65
4, 80928, Note_on_c, 2, 57, 93
4, 80968, Note_off_c, 2, 57, 65
4, 80976, Note_on_c, 2, 59, 93
4, 81016, Note_off_c, 2, 59, 65
4, 81024, Note_on_c, 2, 57, 93
4, 81384, Note_off_c, 2, 57, 65
4, 81792, Note_on_c, 2, 62, 66
4, 81792, Note_on_c, 2, 59, 66
4, 82152, Note_off_c, 2, 62, 65
4, 82152, Note_off_c, 2, 59, 65
4, 82176, Note_on_c, 2, 60, 66
4, 82176, Note_on_c, 2, 57, 66
4, 82356, Note_off_c, 2, 60, 65
4, 82356, Note_off_c, 2, 57, 65
4, 82368, Note_on_c, 2, 59, 66
4, 82368, Note_on_c, 2, 55, 66
4, 82548, Note_off_c, 2, 59, 65
4, 82548, Note_off_c, 2, 55, 65
4, 82560, Note_on_c, 2, 64, 66
4, 82560, Note_on_c, 2, 60, 66
4, 82740, Note_off_c, 2, 64, 65
4, 82740, Note_off_c, 2, 60, 65
4, 82752, Note_on_c, 2, 62, 66
4, 82752, Note_on_c, 2, 59, 66
4, 82932, Note_off_c, 2, 62, 65
4, 82932, Note_off_c, 2, 59, 65
4, 82944, Note_on_c, 2, 62, 66
4, 82944, Note_on_c, 2, 59, 66
4, 83304, Note_off_c, 2, 62, 65
4, 83304, Note_off_c, 2, 59, 65
4, 83328, Note_on_c, 2, 64, 66
4, 83328, Note_on_c, 2, 67, 66
4, 83892, Note_off_c, 2, 64, 65
4, 83892, Note_off_c, 2, 67, 65
4, 83904, Note_on_c, 2, 66, 66
4, 83904, Note_on_c, 2, 62, 66
4, 84084, Note_off_c, 2, 66, 65
4, 84084, Note_off_c, 2, 62, 65
4, 84096, Note_on_c, 2, 66, 66
4, 84096, Note_on_c, 2, 62, 66
4, 84276, Note_off_c, 2, 66, 65
4, 84276, Note_off_c, 2, 62, 65
4, 84288, Note_on_c, 2, 64, 66
4, 84288, Note_on_c, 2, 60, 66
4, 84468, Note_off_c, 2, 64, 65
4, 84468, Note_off_c, 2, 60, 65
4, 84480, Note_on_c, 2, 62, 66
4, 84480, Note_on_c, 2, 59, 66
4, 84660, Note_off_c, 2, 62, 65
4, 84660, Note_off_c, 2, 59, 65
4, 84672, Note_on_c, 2, 62, 66
4, 84852, Note_off_c, 2, 62, 65
4, 84864, Note_on_c, 2, 59, 66
4, 85044, Note_off_c, 2, 59, 65
4, 85056, Note_on_c, 2, 55, 66
4, 85236, Note_off_c, 2, 55, 65
4, 85248, Note_on_c, 2, 62, 66
4, 85248, Note_on_c, 2, 72, 66
4, 85428, Note_off_c, 2, 62, 65
4, 85608, Note_off_c, 2, 72, 65
4, 85632, Note_on_c, 2, 69, 66
4, 85716, Note_off_c, 2, 69, 65
4, 85728, Note_on_c, 2, 66, 66
4, 85812, Note_off_c, 2, 66, 65
4, 85824, Note_on_c, 2, 62, 66
4, 85824, Note_on_c, 2, 57, 66
4, 85908, Note_off_c, 2, 62, 65
4, 85920, Note_on_c, 2, 60, 66
4, 86004, Note_off_c, 2, 57, 65
4, 86004, Note_off_c, 2, 60, 65
4, 86016, Note_on_c, 2, 59, 66
4, 86100, Note_off_c, 2, 59, 65
4, 86112, Note_on_c, 2, 62, 66
4, 86196, Note_off_c, 2, 62, 65
4, 86208, Note_on_c, 2, 67, 66
4, 86292, Note_off_c, 2, 67, 65
4, 86304, Note_on_c, 2, 71, 66
4, 86388, Note_off_c, 2, 71, 65
4, 86400, Note_on_c, 2, 72, 66
4, 86760, Note_off_c, 2, 72, 65
4, 86784, Note_on_c, 2, 69, 66
4, 86868, Note_off_c, 2, 69, 65
4, 86880, Note_on_c, 2, 66, 66
4, 86964, Note_off_c, 2, 66, 65
4, 86976, Note_on_c, 2, 62, 66
4, 87060, Note_off_c, 2, 62, 65
4, 87072, Note_on_c, 2, 60, 66
4, 87156, Note_off_c, 2, 60, 65
4, 87168, Note_on_c, 2, 59, 66
4, 87252, Note_off_c, 2, 59, 65
4, 87264, Note_on_c, 2, 62, 66
4, 87348, Note_off_c, 2, 62, 65
4, 87360, Note_on_c, 2, 67, 66
4, 87444, Note_off_c, 2, 67, 65
4, 87456, Note_on_c, 2, 71, 66
4, 87540, Note_off_c, 2, 71, 65
4, 87552, Note_on_c, 2, 69, 66
4, 87552, Note_on_c, 2, 64, 66
4, 87912, Note_off_c, 2, 69, 65
4, 87912, Note_off_c, 2, 64, 65
4, 87936, Note_on_c, 2, 67, 66
4, 87936, Note_on_c, 2, 59, 66
4, 88296, Note_off_c, 2, 67, 65
4, 88296, Note_off_c, 2, 59, 65
4, 88320, Note_on_c, 2, 66, 66
4, 88320, Note_on_c, 2, 60, 66
4, 88320, Note_on_c, 2, 57, 66
4, 88680, Note_off_c, 2, 66, 65
4, 88680, Note_off_c, 2, 60, 65
4, 88680, Note_off_c, 2, 57, 65
4, 88704, Note_on_c, 2, 67, 66
4, 88704, Note_on_c, 2, 59, 66
4, 88884, Note_off_c, 2, 67, 65
4, 88884, Note_off_c, 2, 59, 65
4, 88896, Note_on_c, 2, 67, 66
4, 88896, Note_on_c, 2, 60, 66
4, 88896, Note_on_c, 2, 72, 66
4, 89076, Note_off_c, 2, 67, 65
4, 89076, Note_off_c, 2, 60, 65
4, 89088, Note_on_c, 2, 66, 66
4, 89088, Note_on_c, 2, 60, 66
4, 89256, Note_off_c, 2, 72, 65
4, 89268, Note_off_c, 2, 66, 65
4, 89268, Note_off_c, 2, 60, 65
4, 89280, Note_on_c, 2, 71, 66
4, 89320, Note_off_c, 2, 71, 65
4, 89328, Note_on_c, 2, 72, 66
4, 89460, Note_off_c, 2, 72, 65
4, 89472, Note_on_c, 2, 74, 66
4, 89512, Note_off_c, 2, 74, 65
4, 89520, Note_on_c, 2, 72, 66
4, 89652, Note_off_c, 2, 72, 65
4, 89664, Note_on_c, 2, 71, 66
4, 89704, Note_off_c, 2, 71, 65
4, 89712, Note_on_c, 2, 69, 66
4, 89844, Note_off_c, 2, 69, 65
4, 89856, Note_on_c, 2, 67, 66
4, 90036, Note_off_c, 2, 67, 65
4, 90048, Note_on_c, 2, 79, 66
4, 90048, Note_on_c, 2, 72, 66
4, 90048, Note_on_c, 2, 84, 66
4, 90228, Note_off_c, 2, 79, 65
4, 90228, Note_off_c, 2, 72, 65
4, 90240, Note_on_c, 2, 78, 66
4, 90240, Note_on_c, 2, 72, 66
4, 90408, Note_off_c, 2, 84, 65
4, 90420, Note_off_c, 2, 78, 65
4, 90420, Note_off_c, 2, 72, 65
4, 90432, Note_on_c, 2, 83, 66
4, 90472, Note_off_c, 2, 83, 65
4, 90480, Note_on_c, 2, 84, 66
4, 90612, Note_off_c, 2, 84, 65
4, 90624, Note_on_c, 2, 86, 66
4, 90664, Note_off_c, 2, 86, 65
4, 90672, Note_on_c, 2, 84, 66
4, 90804, Note_off_c, 2, 84, 65
4, 90816, Note_on_c, 2, 83, 66
4, 90856, Note_off_c, 2, 83, 65
4, 90864, Note_on_c, 2, 81, 66
4, 90996, Note_off_c, 2, 81, 65
4, 91008, Note_on_c, 2, 79, 66
4, 91188, Note_off_c, 2, 79, 65
4, 91200, Note_on_c, 2, 71, 66
4, 91200, Note_on_c, 2, 62, 66
4, 91380, Note_off_c, 2, 71, 65
4, 91380, Note_off_c, 2, 62, 65
4, 91392, Note_on_c, 2, 71, 66
4, 91392, Note_on_c, 2, 62, 66
4, 91572, Note_off_c, 2, 71, 65
4, 91572, Note_off_c, 2, 62, 65
4, 91584, Note_on_c, 2, 71, 66
4, 91584, Note_on_c, 2, 62, 66
4, 91764, Note_off_c, 2, 71, 65
4, 91764, Note_off_c, 2, 62, 65
4, 91776, Note_on_c, 2, 71, 66
4, 91776, Note_on_c, 2, 62, 66
4, 91956, Note_off_c, 2, 71, 65
4, 91956, Note_off_c, 2, 62, 65
4, 91968, Note_on_c, 2, 71, 66
4, 91968, Note_on_c, 2, 62, 66
4, 92148, Note_off_c, 2, 71, 65
4, 92148, Note_off_c, 2, 62, 65
4, 92352, Note_on_c, 2, 72, 66
4, 92352, Note_on_c, 2, 67, 66
4, 92532, Note_off_c, 2, 72, 65
4, 92532, Note_off_c, 2, 67, 65
4, 92544, Note_on_c, 2, 72, 66
4, 92544, Note_on_c, 2, 67, 66
4, 92724, Note_off_c, 2, 72, 65
4, 92724, Note_off_c, 2, 67, 65
4, 92736, Note_on_c, 2, 72, 66
4, 92736, Note_on_c, 2, 67, 66
4, 92916, Note_off_c, 2, 72, 65
4, 92916, Note_off_c, 2, 67, 65
4, 92928, Note_on_c, 2, 72, 66
4, 92928, Note_on_c, 2, 67, 66
4, 93108, Note_off_c, 2, 72, 65
4, 93108, Note_off_c, 2, 67, 65
4, 93120, Note_on_c, 2, 72, 66
4, 93120, Note_on_c, 2, 67, 66
4, 93300, Note_off_c, 2, 72, 65
4, 93300, Note_off_c, 2, 67, 65
4, 93504, Note_on_c, 2, 72, 66
4, 93504, Note_on_c, 2, 69, 66
4, 93504, Note_on_c, 2, 65, 66
4, 93684, Note_off_c, 2, 72, 65
4, 93684, Note_off_c, 2, 69, 65
4, 93684, Note_off_c, 2, 65, 65
4, 93696, Note_on_c, 2, 71, 66
4, 93696, Note_on_c, 2, 67, 66
4, 93696, Note_on_c, 2, 65, 66
4, 93876, Note_off_c, 2, 71, 65
4, 93876, Note_off_c, 2, 67, 65
4, 93876, Note_off_c, 2, 65, 65
4, 93888, Note_on_c, 2, 71, 66
4, 93888, Note_on_c, 2, 67, 66
4, 93888, Note_on_c, 2, 65, 66
4, 94068, Note_off_c, 2, 71, 65
4, 94068, Note_off_c, 2, 67, 65
4, 94072, Note_off_c, 2, 65, 65
4, 94080, Note_on_c, 2, 74, 66
4, 94080, Note_on_c, 2, 65, 66
4, 94260, Note_off_c, 2, 74, 65
4, 94260, Note_off_c, 2, 65, 65
4, 94272, Note_on_c, 2, 65, 66
4, 94272, Note_on_c, 2, 62, 66
4, 94452, Note_off_c, 2, 65, 65
4, 94452, Note_off_c, 2, 62, 65
4, 94656, Note_on_c, 2, 65, 66
4, 94656, Note_on_c, 2, 59, 66
4, 94656, Note_on_c, 2, 62, 66
4, 94836, Note_off_c, 2, 65, 65
4, 94836, Note_off_c, 2, 59, 65
4, 94836, Note_off_c, 2, 62, 65
4, 94848, Note_on_c, 2, 64, 66
4, 94848, Note_on_c, 2, 60, 66
4, 95028, Note_off_c, 2, 64, 65
4, 95028, Note_off_c, 2, 60, 65
4, 95040, Note_on_c, 2, 64, 66
4, 95040, Note_on_c, 2, 67, 66
4, 95220, Note_off_c, 2, 64, 65
4, 95220, Note_off_c, 2, 67, 65
4, 95232, Note_on_c, 2, 67, 66
4, 95232, Note_on_c, 2, 72, 66
4, 95412, Note_off_c, 2, 67, 65
4, 95412, Note_off_c, 2, 72, 65
4, 95424, Note_on_c, 2, 67, 66
4, 95424, Note_on_c, 2, 64, 66
4, 95604, Note_off_c, 2, 67, 65
4, 95604, Note_off_c, 2, 64, 65
4, 95616, Note_on_c, 2, 64, 66
4, 95616, Note_on_c, 2, 67, 66
4, 95976, Note_off_c, 2, 64, 65
4, 96000, Note_on_c, 2, 64, 66
4, 96564, Note_off_c, 2, 64, 65
4, 96576, Note_on_c, 2, 62, 66
4, 96756, Note_off_c, 2, 62, 65
4, 96768, Note_on_c, 2, 60, 66
4, 97128, Note_off_c, 2, 60, 65
4, 97152, Note_on_c, 2, 60, 66
4, 97716, Note_off_c, 2, 60, 65
4, 97728, Note_on_c, 2, 62, 66
4, 97896, Note_off_c, 2, 67, 64
4, 97908, Note_off_c, 2, 62, 65
4, 97920, Note_on_c, 2, 67, 66
4, 97920, Note_on_c, 2, 64, 66
4, 98100, Note_off_c, 2, 64, 65
4, 98112, Note_on_c, 2, 76, 66
4, 98280, Note_off_c, 2, 67, 65
4, 98292, Note_off_c, 2, 76, 65
4, 98304, Note_on_c, 2, 76, 66
4, 98304, Note_on_c, 2, 79, 66
4, 98868, Note_off_c, 2, 76, 65
4, 98880, Note_on_c, 2, 74, 66
4, 99060, Note_off_c, 2, 74, 65
4, 99072, Note_on_c, 2, 72, 66
4, 99432, Note_off_c, 2, 72, 65
4, 99456, Note_on_c, 2, 72, 66
4, 100020, Note_off_c, 2, 72, 65
4, 100032, Note_on_c, 2, 74, 66
4, 100200, Note_off_c, 2, 79, 64
4, 100212, Note_off_c, 2, 74, 65
4, 100224, Note_on_c, 2, 76, 66
4, 100224, Note_on_c, 2, 70, 66
4, 100584, Note_off_c, 2, 76, 65
4, 100584, Note_off_c, 2, 70, 65
4, 100608, Note_on_c, 2, 69, 66
4, 100608, Note_on_c, 2, 64, 66
4, 100968, Note_off_c, 2, 69, 65
4, 100992, Note_on_c, 2, 67, 66
4, 101352, Note_off_c, 2, 64, 65
4, 101352, Note_off_c, 2, 67, 65
4, 101376, Note_on_c, 2, 66, 66
4, 101376, Note_on_c, 2, 62, 66
4, 101736, Note_off_c, 2, 66, 65
4, 101736, Note_off_c, 2, 62, 65
4, 102720, Note_on_c, 2, 86, 69
4, 102900, Note_off_c, 2, 86, 65
4, 102912, Note_on_c, 2, 86, 69
4, 103092, Note_off_c, 2, 86, 65
4, 103104, Note_on_c, 2, 86, 69
4, 103284, Note_off_c, 2, 86, 65
4, 103296, Note_on_c, 2, 78, 93
4, 103568, Note_off_c, 2, 78, 65
4, 103584, Note_on_c, 2, 79, 93
4, 103624, Note_off_c, 2, 79, 65
4, 103632, Note_on_c, 2, 81, 93
4, 103672, Note_off_c, 2, 81, 65
4, 103680, Note_on_c, 2, 79, 66
4, 103764, Note_off_c, 2, 79, 65
4, 103776, Note_on_c, 2, 74, 66
4, 103860, Note_off_c, 2, 74, 65
4, 103872, Note_on_c, 2, 79, 66
4, 103956, Note_off_c, 2, 79, 65
4, 103968, Note_on_c, 2, 83, 66
4, 104052, Note_off_c, 2, 83, 65
4, 104064, Note_on_c, 2, 86, 69
4, 104244, Note_off_c, 2, 86, 65
4, 104256, Note_on_c, 2, 86, 69
4, 104436, Note_off_c, 2, 86, 65
4, 104448, Note_on_c, 2, 78, 93
4, 104720, Note_off_c, 2, 78, 65
4, 104736, Note_on_c, 2, 79, 93
4, 104776, Note_off_c, 2, 79, 65
4, 104784, Note_on_c, 2, 81, 93
4, 104824, Note_off_c, 2, 81, 65
4, 104832, Note_on_c, 2, 79, 66
4, 105012, Note_off_c, 2, 79, 65
4, 105216, Note_on_c, 2, 83, 66
4, 105216, Note_on_c, 2, 86, 66
4, 105396, Note_off_c, 2, 83, 65
4, 105396, Note_off_c, 2, 86, 65
4, 105600, Note_on_c, 2, 78, 66
4, 105600, Note_on_c, 2, 72, 66
4, 105600, Note_on_c, 2, 69, 66
4, 105780, Note_off_c, 2, 78, 65
4, 105780, Note_off_c, 2, 72, 65
4, 105780, Note_off_c, 2, 69, 65
4, 105984, Note_on_c, 2, 79, 66
4, 105984, Note_on_c, 2, 71, 66
4, 105984, Note_on_c, 2, 67, 66
4, 106164, Note_off_c, 2, 79, 65
4, 106164, Note_off_c, 2, 71, 65
4, 106164, Note_off_c, 2, 67, 65
4, 106368, Note_on_c, 2, 83, 66
4, 106368, Note_on_c, 2, 86, 66
4, 106548, Note_off_c, 2, 83, 65
4, 106548, Note_off_c, 2, 86, 65
4, 106752, Note_on_c, 2, 78, 66
4, 106752, Note_on_c, 2, 69, 66
4, 106752, Note_on_c, 2, 60, 66
4, 106932, Note_off_c, 2, 78, 65
4, 106932, Note_off_c, 2, 69, 65
4, 106932, Note_off_c, 2, 60, 65
4, 107136, Note_on_c, 2, 79, 66
4, 107136, Note_on_c, 2, 67, 66
4, 107136, Note_on_c, 2, 59, 66
4, 107408, Note_off_c, 2, 79, 65
4, 107408, Note_off_c, 2, 67, 65
4, 107424, Note_on_c, 2, 81, 66
4, 107424, Note_on_c, 2, 69, 66
4, 107496, Note_off_c, 2, 59, 65
4, 107508, Note_off_c, 2, 81, 65
4, 107508, Note_off_c, 2, 69, 65
4, 107520, Note_on_c, 2, 83, 66
4, 107520, Note_on_c, 2, 71, 66
4, 107700, Note_off_c, 2, 83, 65
4, 107700, Note_off_c, 2, 71, 65
4, 107712, Note_on_c, 2, 75, 66
4, 107712, Note_on_c, 2, 63, 66
4, 107892, Note_off_c, 2, 75, 65
4, 107892, Note_off_c, 2, 63, 65
4, 107904, Note_on_c, 2, 76, 66
4, 107904, Note_on_c, 2, 64, 66
4, 108084, Note_off_c, 2, 76, 65
4, 108084, Note_off_c, 2, 64, 65
4, 108096, Note_on_c, 2, 79, 66
4, 108096, Note_on_c, 2, 67, 66
4, 108276, Note_off_c, 2, 79, 65
4, 108276, Note_off_c, 2, 67, 65
4, 108288, Note_on_c, 2, 72, 66
4, 108288, Note_on_c, 2, 60, 66
4, 108560, Note_off_c, 2, 72, 65
4, 108560, Note_off_c, 2, 60, 65
4, 108576, Note_on_c, 2, 74, 66
4, 108576, Note_on_c, 2, 62, 66
4, 108660, Note_off_c, 2, 74, 65
4, 108660, Note_off_c, 2, 62, 65
4, 108672, Note_on_c, 2, 76, 66
4, 108672, Note_on_c, 2, 64, 66
4, 108852, Note_off_c, 2, 76, 65
4, 108852, Note_off_c, 2, 64, 65
4, 108864, Note_on_c, 2, 68, 66
4, 108864, Note_on_c, 2, 56, 66
4, 109044, Note_off_c, 2, 68, 65
4, 109044, Note_off_c, 2, 56, 65
4, 109056, Note_on_c, 2, 69, 66
4, 109056, Note_on_c, 2, 57, 66
4, 109236, Note_off_c, 2, 69, 65
4, 109236, Note_off_c, 2, 57, 65
4, 109248, Note_on_c, 2, 71, 66
4, 109248, Note_on_c, 2, 59, 66
4, 109428, Note_off_c, 2, 71, 65
4, 109428, Note_off_c, 2, 59, 65
4, 109440, Note_on_c, 2, 72, 66
4, 109800, Note_off_c, 2, 72, 65
4, 110592, Note_on_c, 2, 71, 66
4, 110592, Note_on_c, 2, 59, 66
4, 110952, Note_off_c, 2, 71, 65
4, 110952, Note_off_c, 2, 59, 65
4, 111360, Note_on_c, 2, 74, 66
4, 111360, Note_on_c, 2, 67, 66
4, 111720, Note_off_c, 2, 74, 65
4, 111720, Note_off_c, 2, 67, 65
4, 111744, Note_on_c, 2, 72, 66
4, 111744, Note_on_c, 2, 69, 66
4, 111744, Note_on_c, 2, 64, 66
4, 112104, Note_off_c, 2, 72, 65
4, 112104, Note_off_c, 2, 69, 65
4, 112104, Note_off_c, 2, 64, 65
4, 112128, Note_on_c, 2, 71, 66
4, 112128, Note_on_c, 2, 67, 66
4, 112128, Note_on_c, 2, 62, 66
4, 112488, Note_off_c, 2, 71, 65
4, 112488, Note_off_c, 2, 67, 65
4, 112488, Note_off_c, 2, 62, 65
4, 112512, Note_on_c, 2, 69, 66
4, 112512, Note_on_c, 2, 66, 66
4, 112512, Note_on_c, 2, 60, 66
4, 112872, Note_off_c, 2, 69, 65
4, 112872, Note_off_c, 2, 66, 65
4, 112872, Note_off_c, 2, 60, 65
4, 112896, Note_on_c, 2, 67, 66
4, 112896, Note_on_c, 2, 59, 66
4, 113256, Note_off_c, 2, 67, 65
4, 113256, Note_off_c, 2, 59, 65
4, 113472, Note_on_c, 2, 69, 66
4, 113472, Note_on_c, 2, 67, 66
4, 113472, Note_on_c, 2, 61, 66
4, 113652, Note_off_c, 2, 69, 65
4, 113652, Note_off_c, 2, 67, 65
4, 113652, Note_off_c, 2, 61, 65
4, 113664, Note_on_c, 2, 69, 66
4, 113664, Note_on_c, 2, 67, 66
4, 113664, Note_on_c, 2, 61, 66
4, 113844, Note_off_c, 2, 69, 65
4, 113844, Note_off_c, 2, 67, 65
4, 113844, Note_off_c, 2, 61, 65
4, 113856, Note_on_c, 2, 69, 66
4, 113856, Note_on_c, 2, 67, 66
4, 113856, Note_on_c, 2, 61, 66
4, 114036, Note_off_c, 2, 69, 65
4, 114036, Note_off_c, 2, 67, 65
4, 114036, Note_off_c, 2, 61, 65
4, 114048, Note_on_c, 2, 69, 66
4, 114048, Note_on_c, 2, 62, 66
4, 114048, Note_on_c, 2, 60, 66
4, 114408, Note_off_c, 2, 69, 65
4, 114408, Note_off_c, 2, 62, 65
4, 114408, Note_off_c, 2, 60, 65
4, 116352, Note_on_c, 2, 67, 66
4, 116532, Note_off_c, 2, 67, 65
4, 116736, Note_on_c, 2, 67, 66
4, 116916, Note_off_c, 2, 67, 65
4, 117120, Note_on_c, 2, 66, 66
4, 117300, Note_off_c, 2, 66, 65
4, 117504, Note_on_c, 2, 79, 93
4, 117504, Note_on_c, 2, 74, 93
4, 117504, Note_on_c, 2, 67, 93
4, 117684, Note_off_c, 2, 79, 65
4, 117684, Note_off_c, 2, 74, 65
4, 117684, Note_off_c, 2, 67, 65
4, 117696, Note_on_c, 2, 74, 66
4, 117696, Note_on_c, 2, 67, 66
4, 117876, Note_off_c, 2, 74, 65
4, 117876, Note_off_c, 2, 67, 65
4, 117888, Note_on_c, 2, 74, 66
4, 117888, Note_on_c, 2, 67, 66
4, 118068, Note_off_c, 2, 74, 65
4, 118068, Note_off_c, 2, 67, 65
4, 118272, Note_on_c, 2, 74, 66
4, 118272, Note_on_c, 2, 67, 66
4, 118452, Note_off_c, 2, 74, 65
4, 118452, Note_off_c, 2, 67, 65
4, 118656, Note_on_c, 2, 79, 93
4, 118656, Note_on_c, 2, 76, 93
4, 118656, Note_on_c, 2, 67, 93
4, 118836, Note_off_c, 2, 79, 65
4, 118836, Note_off_c, 2, 76, 65
4, 118836, Note_off_c, 2, 67, 65
4, 118848, Note_on_c, 2, 76, 66
4, 118848, Note_on_c, 2, 67, 66
4, 119028, Note_off_c, 2, 76, 65
4, 119028, Note_off_c, 2, 67, 65
4, 119040, Note_on_c, 2, 76, 66
4, 119040, Note_on_c, 2, 67, 66
4, 119220, Note_off_c, 2, 76, 65
4, 119220, Note_off_c, 2, 67, 65
4, 119424, Note_on_c, 2, 76, 66
4, 119424, Note_on_c, 2, 67, 66
4, 119604, Note_off_c, 2, 76, 65
4, 119604, Note_off_c, 2, 67, 65
4, 119808, Note_on_c, 2, 71, 66
4, 119808, Note_on_c, 2, 67, 66
4, 119808, Note_on_c, 2, 62, 66
4, 119892, Note_off_c, 2, 71, 65
4, 119892, Note_off_c, 2, 67, 65
4, 119892, Note_off_c, 2, 62, 65
4, 119904, Note_on_c, 2, 71, 66
4, 119904, Note_on_c, 2, 67, 66
4, 119904, Note_on_c, 2, 62, 66
4, 119988, Note_off_c, 2, 71, 65
4, 119988, Note_off_c, 2, 67, 65
4, 119988, Note_off_c, 2, 62, 65
4, 120000, Note_on_c, 2, 71, 66
4, 120000, Note_on_c, 2, 67, 66
4, 120000, Note_on_c, 2, 62, 66
4, 120084, Note_off_c, 2, 71, 65
4, 120084, Note_off_c, 2, 67, 65
4, 120084, Note_off_c, 2, 62, 65
4, 120096, Note_on_c, 2, 71, 66
4, 120096, Note_on_c, 2, 67, 66
4, 120096, Note_on_c, 2, 62, 66
4, 120180, Note_off_c, 2, 71, 65
4, 120180, Note_off_c, 2, 67, 65
4, 120180, Note_off_c, 2, 62, 65
4, 120192, Note_on_c, 2, 71, 66
4, 120192, Note_on_c, 2, 67, 66
4, 120192, Note_on_c, 2, 62, 66
4, 120276, Note_off_c, 2, 71, 65
4, 120276, Note_off_c, 2, 67, 65
4, 120276, Note_off_c, 2, 62, 65
4, 120288, Note_on_c, 2, 71, 66
4, 120288, Note_on_c, 2, 67, 66
4, 120288, Note_on_c, 2, 62, 66
4, 120372, Note_off_c, 2, 71, 65
4, 120372, Note_off_c, 2, 67, 65
4, 120372, Note_off_c, 2, 62, 65
4, 120384, Note_on_c, 2, 71, 66
4, 120384, Note_on_c, 2, 67, 66
4, 120384, Note_on_c, 2, 62, 66
4, 120468, Note_off_c, 2, 71, 65
4, 120468, Note_off_c, 2, 67, 65
4, 120468, Note_off_c, 2, 62, 65
4, 120480, Note_on_c, 2, 71, 66
4, 120480, Note_on_c, 2, 67, 66
4, 120480, Note_on_c, 2, 62, 66
4, 120564, Note_off_c, 2, 71, 65
4, 120564, Note_off_c, 2, 67, 65
4, 120564, Note_off_c, 2, 62, 65
4, 120576, Note_on_c, 2, 71, 66
4, 120576, Note_on_c, 2, 67, 66
4, 120576, Note_on_c, 2, 62, 66
4, 120660, Note_off_c, 2, 71, 65
4, 120660, Note_off_c, 2, 67, 65
4, 120660, Note_off_c, 2, 62, 65
4, 120672, Note_on_c, 2, 71, 66
4, 120672, Note_on_c, 2, 67, 66
4, 120672, Note_on_c, 2, 62, 66
4, 120756, Note_off_c, 2, 71, 65
4, 120756, Note_off_c, 2, 67, 65
4, 120756, Note_off_c, 2, 62, 65
4, 120768, Note_on_c, 2, 71, 66
4, 120768, Note_on_c, 2, 67, 66
4, 120768, Note_on_c, 2, 62, 66
4, 120852, Note_off_c, 2, 71, 65
4, 120852, Note_off_c, 2, 67, 65
4, 120852, Note_off_c, 2, 62, 65
4, 120864, Note_on_c, 2, 71, 66
4, 120864, Note_on_c, 2, 67, 66
4, 120864, Note_on_c, 2, 62, 66
4, 120948, Note_off_c, 2, 71, 65
4, 120948, Note_off_c, 2, 67, 65
4, 120948, Note_off_c, 2, 62, 65
4, 120960, Note_on_c, 2, 69, 66
4, 120960, Note_on_c, 2, 66, 66
4, 120960, Note_on_c, 2, 60, 66
4, 121044, Note_off_c, 2, 69, 65
4, 121044, Note_off_c, 2, 66, 65
4, 121044, Note_off_c, 2, 60, 65
4, 121056, Note_on_c, 2, 69, 66
4, 121056, Note_on_c, 2, 66, 66
4, 121056, Note_on_c, 2, 60, 66
4, 121140, Note_off_c, 2, 69, 65
4, 121140, Note_off_c, 2, 66, 65
4, 121140, Note_off_c, 2, 60, 65
4, 121152, Note_on_c, 2, 69, 66
4, 121152, Note_on_c, 2, 66, 66
4, 121152, Note_on_c, 2, 60, 66
4, 121236, Note_off_c, 2, 69, 65
4, 121236, Note_off_c, 2, 66, 65
4, 121236, Note_off_c, 2, 60, 65
4, 121248, Note_on_c, 2, 69, 66
4, 121248, Note_on_c, 2, 66, 66
4, 121248, Note_on_c, 2, 60, 66
4, 121332, Note_off_c, 2, 69, 65
4, 121332, Note_off_c, 2, 66, 65
4, 121332, Note_off_c, 2, 60, 65
4, 121344, Note_on_c, 2, 69, 66
4, 121344, Note_on_c, 2, 66, 66
4, 121344, Note_on_c, 2, 60, 66
4, 121428, Note_off_c, 2, 69, 65
4, 121428, Note_off_c, 2, 66, 65
4, 121428, Note_off_c, 2, 60, 65
4, 121440, Note_on_c, 2, 69, 66
4, 121440, Note_on_c, 2, 66, 66
4, 121440, Note_on_c, 2, 60, 66
4, 121524, Note_off_c, 2, 69, 65
4, 121524, Note_off_c, 2, 66, 65
4, 121524, Note_off_c, 2, 60, 65
4, 121536, Note_on_c, 2, 69, 66
4, 121536, Note_on_c, 2, 66, 66
4, 121536, Note_on_c, 2, 60, 66
4, 121620, Note_off_c, 2, 69, 65
4, 121620, Note_off_c, 2, 66, 65
4, 121620, Note_off_c, 2, 60, 65
4, 121632, Note_on_c, 2, 69, 66
4, 121632, Note_on_c, 2, 66, 66
4, 121632, Note_on_c, 2, 60, 66
4, 121716, Note_off_c, 2, 69, 65
4, 121716, Note_off_c, 2, 66, 65
4, 121716, Note_off_c, 2, 60, 65
4, 121728, Note_on_c, 2, 69, 66
4, 121728, Note_on_c, 2, 66, 66
4, 121728, Note_on_c, 2, 60, 66
4, 121812, Note_off_c, 2, 69, 65
4, 121812, Note_off_c, 2, 66, 65
4, 121812, Note_off_c, 2, 60, 65
4, 121824, Note_on_c, 2, 69, 66
4, 121824, Note_on_c, 2, 66, 66
4, 121824, Note_on_c, 2, 60, 66
4, 121908, Note_off_c, 2, 69, 65
4, 121908, Note_off_c, 2, 66, 65
4, 121908, Note_off_c, 2, 60, 65
4, 121920, Note_on_c, 2, 69, 66
4, 121920, Note_on_c, 2, 66, 66
4, 121920, Note_on_c, 2, 60, 66
4, 122004, Note_off_c, 2, 69, 65
4, 122004, Note_off_c, 2, 66, 65
4, 122004, Note_off_c, 2, 60, 65
4, 122016, Note_on_c, 2, 69, 66
4, 122016, Note_on_c, 2, 66, 66
4, 122016, Note_on_c, 2, 60, 66
4, 122100, Note_off_c, 2, 69, 65
4, 122100, Note_off_c, 2, 66, 65
4, 122100, Note_off_c, 2, 60, 65
4, 122112, Note_on_c, 2, 67, 93
4, 122112, Note_on_c, 2, 59, 93
4, 122292, Note_off_c, 2, 67, 65
4, 122292, Note_off_c, 2, 59, 65
4, 122304, Note_on_c, 2, 79, 93
4, 122304, Note_on_c, 2, 74, 93
4, 122304, Note_on_c, 2, 71, 93
4, 122664, Note_off_c, 2, 79, 65
4, 122664, Note_off_c, 2, 74, 65
4, 122664, Note_off_c, 2, 71, 65
4, 122688, Note_on_c, 2, 79, 93
4, 122688, Note_on_c, 2, 74, 93
4, 122688, Note_on_c, 2, 71, 93
4, 123048, Note_off_c, 2, 79, 65
4, 123048, Note_off_c, 2, 74, 65
4, 123048, Note_off_c, 2, 71, 65
4, 123072, Note_on_c, 2, 81, 93
4, 123072, Note_on_c, 2, 74, 93
4, 123072, Note_on_c, 2, 72, 93
4, 123204, Note_off_c, 2, 81, 65
4, 123204, Note_off_c, 2, 74, 65
4, 123204, Note_off_c, 2, 72, 65
4, 123216, Note_on_c, 2, 78, 93
4, 123216, Note_on_c, 2, 69, 93
4, 123256, Note_off_c, 2, 78, 65
4, 123256, Note_off_c, 2, 69, 65
4, 123264, Note_on_c, 2, 79, 93
4, 123264, Note_on_c, 2, 71, 93
4, 123444, Note_off_c, 2, 79, 65
4, 123444, Note_off_c, 2, 71, 65
4, 123456, Note_on_c, 2, 83, 93
4, 123456, Note_on_c, 2, 74, 93
4, 123456, Note_on_c, 2, 79, 93
4, 123816, Note_off_c, 2, 83, 65
4, 123816, Note_off_c, 2, 74, 65
4, 123816, Note_off_c, 2, 79, 65
4, 123840, Note_on_c, 2, 83, 93
4, 123840, Note_on_c, 2, 74, 93
4, 123840, Note_on_c, 2, 79, 93
4, 124200, Note_off_c, 2, 83, 65
4, 124200, Note_off_c, 2, 74, 65
4, 124200, Note_off_c, 2, 79, 65
4, 124224, Note_on_c, 2, 74, 93
4, 124224, Note_on_c, 2, 81, 93
4, 124224, Note_on_c, 2, 84, 93
4, 124356, Note_off_c, 2, 81, 65
4, 124356, Note_off_c, 2, 84, 65
4, 124368, Note_on_c, 2, 81, 93
4, 124368, Note_on_c, 2, 78, 93
4, 124404, Note_off_c, 2, 74, 65
4, 124408, Note_off_c, 2, 81, 65
4, 124408, Note_off_c, 2, 78, 65
4, 124416, Note_on_c, 2, 74, 93
4, 124416, Note_on_c, 2, 79, 93
4, 124416, Note_on_c, 2, 83, 93
4, 124596, Note_off_c, 2, 74, 65
4, 124596, Note_off_c, 2, 79, 65
4, 124596, Note_off_c, 2, 83, 65
4, 124608, Note_on_c, 2, 79, 93
4, 124608, Note_on_c, 2, 84, 93
4, 124608, Note_on_c, 2, 72, 93
4, 124788, Note_off_c, 2, 79, 65
4, 124788, Note_off_c, 2, 84, 65
4, 124788, Note_off_c, 2, 72, 65
4, 124800, Note_on_c, 2, 83, 93
4, 124800, Note_on_c, 2, 79, 93
4, 124800, Note_on_c, 2, 74, 93
4, 124980, Note_off_c, 2, 83, 65
4, 124980, Note_off_c, 2, 79, 65
4, 124980, Note_off_c, 2, 74, 65
4, 124992, Note_on_c, 2, 84, 93
4, 124992, Note_on_c, 2, 79, 93
4, 124992, Note_on_c, 2, 72, 93
4, 125172, Note_off_c, 2, 84, 65
4, 125172, Note_off_c, 2, 79, 65
4, 125172, Note_off_c, 2, 72, 65
4, 125184, Note_on_c, 2, 83, 93
4, 125184, Note_on_c, 2, 79, 93
4, 125184, Note_on_c, 2, 74, 93
4, 125364, Note_off_c, 2, 83, 65
4, 125364, Note_off_c, 2, 79, 65
4, 125364, Note_off_c, 2, 74, 65
4, 125376, Note_on_c, 2, 79, 93
4, 125376, Note_on_c, 2, 81, 93
4, 125376, Note_on_c, 2, 76, 93
4, 125556, Note_off_c, 2, 79, 65
4, 125556, Note_off_c, 2, 81, 65
4, 125556, Note_off_c, 2, 76, 65
4, 125568, Note_on_c, 2, 74, 93
4, 125568, Note_on_c, 2, 83, 93
4, 125652, Note_off_c, 2, 83, 65
4, 125664, Note_on_c, 2, 79, 93
4, 125748, Note_off_c, 2, 74, 65
4, 125748, Note_off_c, 2, 79, 65
4, 125760, Note_on_c, 2, 72, 93
4, 125760, Note_on_c, 2, 79, 93
4, 125940, Note_off_c, 2, 72, 65
4, 125952, Note_on_c, 2, 71, 93
4, 126120, Note_off_c, 2, 79, 65
4, 126132, Note_off_c, 2, 71, 65
4, 126144, Note_on_c, 2, 72, 93
4, 126144, Note_on_c, 2, 79, 93
4, 126324, Note_off_c, 2, 72, 65
4, 126336, Note_on_c, 2, 71, 93
4, 126504, Note_off_c, 2, 79, 65
4, 126516, Note_off_c, 2, 71, 65
4, 126528, Note_on_c, 2, 69, 93
4, 126528, Note_on_c, 2, 79, 93
4, 126528, Note_on_c, 2, 76, 93
4, 126708, Note_off_c, 2, 69, 65
4, 126708, Note_off_c, 2, 79, 65
4, 126708, Note_off_c, 2, 76, 65
4, 126720, Note_on_c, 2, 79, 93
4, 126720, Note_on_c, 2, 74, 93
4, 126720, Note_on_c, 2, 71, 93
4, 127484, Note_off_c, 2, 79, 65
4, 127484, Note_off_c, 2, 74, 65
4, 127484, Note_off_c, 2, 71, 65
4, 140544, Note_on_c, 2, 79, 66
4, 140544, Note_on_c, 2, 67, 66
4, 140816, Note_off_c, 2, 79, 65
4, 140816, Note_off_c, 2, 67, 65
4, 140832, Note_on_c, 2, 81, 66
4, 140832, Note_on_c, 2, 69, 66
4, 140916, Note_off_c, 2, 81, 65
4, 140916, Note_off_c, 2, 69, 65
4, 140928, Note_on_c, 2, 83, 66
4, 140928, Note_on_c, 2, 71, 66
4, 141108, Note_off_c, 2, 83, 65
4, 141108, Note_off_c, 2, 71, 65
4, 141120, Note_on_c, 2, 75, 66
4, 141120, Note_on_c, 2, 63, 66
4, 141300, Note_off_c, 2, 75, 65
4, 141300, Note_off_c, 2, 63, 65
4, 141312, Note_on_c, 2, 76, 66
4, 141312, Note_on_c, 2, 64, 66
4, 141492, Note_off_c, 2, 76, 65
4, 141492, Note_off_c, 2, 64, 65
4, 141504, Note_on_c, 2, 79, 66
4, 141504, Note_on_c, 2, 67, 66
4, 141684, Note_off_c, 2, 79, 65
4, 141684, Note_off_c, 2, 67, 65
4, 141696, Note_on_c, 2, 72, 66
4, 141696, Note_on_c, 2, 60, 66
4, 141968, Note_off_c, 2, 72, 65
4, 141968, Note_off_c, 2, 60, 65
4, 141984, Note_on_c, 2, 74, 66
4, 141984, Note_on_c, 2, 62, 66
4, 142068, Note_off_c, 2, 74, 65
4, 142068, Note_off_c, 2, 62, 65
4, 142080, Note_on_c, 2, 76, 66
4, 142080, Note_on_c, 2, 64, 66
4, 142260, Note_off_c, 2, 76, 65
4, 142260, Note_off_c, 2, 64, 65
4, 142272, Note_on_c, 2, 68, 66
4, 142272, Note_on_c, 2, 56, 66
4, 142452, Note_off_c, 2, 68, 65
4, 142452, Note_off_c, 2, 56, 65
4, 142464, Note_on_c, 2, 69, 66
4, 142464, Note_on_c, 2, 57, 66
4, 142644, Note_off_c, 2, 69, 65
4, 142644, Note_off_c, 2, 57, 65
4, 142656, Note_on_c, 2, 72, 66
4, 142656, Note_on_c, 2, 60, 66
4, 142836, Note_off_c, 2, 72, 65
4, 142836, Note_off_c, 2, 60, 65
4, 142848, Note_on_c, 2, 64, 66
4, 142848, Note_on_c, 2, 64, 66
4, 143120, Note_off_c, 2, 64, 65
4, 143136, Note_on_c, 2, 69, 66
4, 143208, Note_off_c, 2, 64, 65
4, 143220, Note_off_c, 2, 69, 65
4, 143232, Note_on_c, 2, 67, 66
4, 143232, Note_on_c, 2, 62, 66
4, 143592, Note_off_c, 2, 67, 65
4, 143616, Note_on_c, 2, 66, 66
4, 143976, Note_off_c, 2, 62, 65
4, 143976, Note_off_c, 2, 66, 65
4, 144000, Note_on_c, 2, 67, 93
4, 144180, Note_off_c, 2, 67, 65
4, 144192, Note_on_c, 2, 67, 93
4, 144192, Note_on_c, 2, 60, 93
4, 144192, Note_on_c, 2, 72, 93
4, 144372, Note_off_c, 2, 67, 65
4, 144372, Note_off_c, 2, 60, 65
4, 144384, Note_on_c, 2, 66, 93
4, 144384, Note_on_c, 2, 60, 93
4, 144552, Note_off_c, 2, 72, 65
4, 144564, Note_off_c, 2, 66, 65
4, 144564, Note_off_c, 2, 60, 65
4, 144576, Note_on_c, 2, 71, 93
4, 144616, Note_off_c, 2, 71, 65
4, 144624, Note_on_c, 2, 72, 93
4, 144756, Note_off_c, 2, 72, 65
4, 144768, Note_on_c, 2, 74, 93
4, 144808, Note_off_c, 2, 74, 65
4, 144816, Note_on_c, 2, 72, 93
4, 144948, Note_off_c, 2, 72, 65
4, 144960, Note_on_c, 2, 71, 93
4, 145000, Note_off_c, 2, 71, 65
4, 145008, Note_on_c, 2, 69, 93
4, 145140, Note_off_c, 2, 69, 65
4, 145152, Note_on_c, 2, 67, 93
4, 145332, Note_off_c, 2, 67, 65
4, 145344, Note_on_c, 2, 79, 93
4, 145344, Note_on_c, 2, 72, 93
4, 145344, Note_on_c, 2, 84, 93
4, 145524, Note_off_c, 2, 79, 65
4, 145524, Note_off_c, 2, 72, 65
4, 145536, Note_on_c, 2, 78, 93
4, 145536, Note_on_c, 2, 72, 93
4, 145704, Note_off_c, 2, 84, 65
4, 145716, Note_off_c, 2, 78, 65
4, 145716, Note_off_c, 2, 72, 65
4, 145728, Note_on_c, 2, 83, 93
4, 145768, Note_off_c, 2, 83, 65
4, 145776, Note_on_c, 2, 84, 93
4, 145908, Note_off_c, 2, 84, 65
4, 145920, Note_on_c, 2, 86, 93
4, 145960, Note_off_c, 2, 86, 65
4, 145968, Note_on_c, 2, 84, 93
4, 146100, Note_off_c, 2, 84, 65
4, 146112, Note_on_c, 2, 83, 93
4, 146152, Note_off_c, 2, 83, 65
4, 146160, Note_on_c, 2, 81, 93
4, 146292, Note_off_c, 2, 81, 65
4, 146304, Note_on_c, 2, 79, 93
4, 146388, Note_off_c, 2, 79, 65
4, 146400, Note_on_c, 2, 74, 93
4, 146484, Note_off_c, 2, 74, 65
4, 146496, Note_on_c, 2, 71, 93
4, 146496, Note_on_c, 2, 62, 93
4, 146580, Note_off_c, 2, 71, 65
4, 146592, Note_on_c, 2, 67, 93
4, 146676, Note_off_c, 2, 62, 65
4, 146676, Note_off_c, 2, 67, 65
4, 146688, Note_on_c, 2, 67, 93
4, 146688, Note_on_c, 2, 62, 93
4, 146688, Note_on_c, 2, 59, 93
4, 146772, Note_off_c, 2, 62, 65
4, 146772, Note_off_c, 2, 59, 65
4, 146784, Note_on_c, 2, 62, 93
4, 146784, Note_on_c, 2, 59, 93
4, 146868, Note_off_c, 2, 62, 65
4, 146868, Note_off_c, 2, 59, 65
4, 146880, Note_on_c, 2, 62, 93
4, 146880, Note_on_c, 2, 59, 93
4, 146964, Note_off_c, 2, 62, 65
4, 146964, Note_off_c, 2, 59, 65
4, 146976, Note_on_c, 2, 62, 93
4, 146976, Note_on_c, 2, 59, 93
4, 147048, Note_off_c, 2, 67, 65
4, 147060, Note_off_c, 2, 62, 65
4, 147060, Note_off_c, 2, 59, 65
4, 147072, Note_on_c, 2, 66, 93
4, 147072, Note_on_c, 2, 60, 93
4, 147072, Note_on_c, 2, 69, 96
4, 147092, Note_off_c, 2, 69, 65
4, 147096, Note_on_c, 2, 71, 96
4, 147116, Note_off_c, 2, 71, 65
4, 147120, Note_on_c, 2, 69, 96
4, 147140, Note_off_c, 2, 69, 65
4, 147144, Note_on_c, 2, 71, 96
4, 147164, Note_off_c, 2, 71, 65
4, 147168, Note_on_c, 2, 69, 96
4, 147188, Note_off_c, 2, 69, 65
4, 147192, Note_on_c, 2, 71, 96
4, 147212, Note_off_c, 2, 71, 65
4, 147216, Note_on_c, 2, 69, 96
4, 147236, Note_off_c, 2, 69, 65
4, 147240, Note_on_c, 2, 71, 96
4, 147260, Note_off_c, 2, 71, 65
4, 147264, Note_on_c, 2, 69, 96
4, 147284, Note_off_c, 2, 69, 65
4, 147288, Note_on_c, 2, 71, 96
4, 147308, Note_off_c, 2, 71, 65
4, 147312, Note_on_c, 2, 69, 93
4, 147332, Note_off_c, 2, 69, 65
4, 147336, Note_on_c, 2, 71, 93
4, 147356, Note_off_c, 2, 71, 65
4, 147360, Note_on_c, 2, 67, 93
4, 147400, Note_off_c, 2, 67, 65
4, 147408, Note_on_c, 2, 69, 93
4, 147432, Note_off_c, 2, 66, 65
4, 147432, Note_off_c, 2, 60, 65
4, 147448, Note_off_c, 2, 69, 65
4, 147456, Note_on_c, 2, 59, 93
4, 147456, Note_on_c, 2, 67, 93
4, 147636, Note_off_c, 2, 59, 65
4, 147636, Note_off_c, 2, 67, 65
4, 147648, Note_on_c, 2, 59, 93
4, 147648, Note_on_c, 2, 62, 93
4, 147780, Note_off_c, 2, 59, 65
4, 147780, Note_off_c, 2, 62, 65
4, 147792, Note_on_c, 2, 64, 93
4, 147792, Note_on_c, 2, 60, 93
4, 147832, Note_off_c, 2, 64, 65
4, 147832, Note_off_c, 2, 60, 65
4, 147840, Note_on_c, 2, 62, 91
4, 147840, Note_on_c, 2, 59, 91
4, 148020, Note_off_c, 2, 62, 65
4, 148020, Note_off_c, 2, 59, 65
4, 148032, Note_on_c, 2, 62, 85
4, 148032, Note_on_c, 2, 59, 85
4, 148212, Note_off_c, 2, 62, 65
4, 148212, Note_off_c, 2, 59, 65
4, 148224, Note_on_c, 2, 62, 80
4, 148224, Note_on_c, 2, 59, 80
4, 148404, Note_off_c, 2, 62, 65
4, 148404, Note_off_c, 2, 59, 65
4, 148416, Note_on_c, 2, 62, 74
4, 148416, Note_on_c, 2, 59, 74
4, 148596, Note_off_c, 2, 62, 65
4, 148596, Note_off_c, 2, 59, 65
4, 148608, Note_on_c, 2, 62, 66
4, 148608, Note_on_c, 2, 59, 66
4, 148880, Note_off_c, 2, 62, 65
4, 148880, Note_off_c, 2, 59, 65
4, 148896, Note_on_c, 2, 59, 66
4, 148896, Note_on_c, 2, 55, 66
4, 148980, Note_off_c, 2, 59, 65
4, 148980, Note_off_c, 2, 55, 65
4, 148992, Note_on_c, 2, 59, 66
4, 148992, Note_on_c, 2, 62, 66
4, 149264, Note_off_c, 2, 59, 65
4, 149264, Note_off_c, 2, 62, 65
4, 149280, Note_on_c, 2, 59, 66
4, 149280, Note_on_c, 2, 55, 66
4, 149364, Note_off_c, 2, 59, 65
4, 149364, Note_off_c, 2, 55, 65
4, 149376, Note_on_c, 2, 59, 66
4, 149376, Note_on_c, 2, 62, 66
4, 149648, Note_off_c, 2, 59, 65
4, 149648, Note_off_c, 2, 62, 65
4, 149664, Note_on_c, 2, 59, 66
4, 149664, Note_on_c, 2, 55, 66
4, 149748, Note_off_c, 2, 59, 65
4, 149748, Note_off_c, 2, 55, 65
4, 149760, Note_on_c, 2, 62, 66
4, 149760, Note_on_c, 2, 59, 66
4, 150504, Note_off_c, 2, 62, 65
4, 150504, Note_off_c, 2, 59, 65
4, 150504, End_track
5, 0, Start_track
5, 0, Title_t, "B.Fisher"
5, 0, Control_c, 3, 0, 0
5, 0, Program_c, 3, 0
5, 0, Control_c, 3, 7, 118
5, 0, Control_c, 3, 10, 94
5, 0, Control_c, 3, 91, 67
5, 0, Control_c, 3, 93, 0
5, 0, Key_signature, 1, "major"
5, 0, Control_c, 3, 121, 0
5, 384, Control_c, 3, 10, 73
5, 480, Control_c, 3, 91, 63
5, 672, Program_c, 3, 48
5, 1152, Note_on_c, 3, 55, 93
5, 1152, Note_on_c, 3, 43, 93
5, 1512, Note_off_c, 3, 55, 0
5, 1512, Note_off_c, 3, 43, 0
5, 2304, Note_on_c, 3, 55, 93
5, 2304, Note_on_c, 3, 43, 93
5, 2484, Note_off_c, 3, 55, 0
5, 2484, Note_off_c, 3, 43, 0
5, 2496, Note_on_c, 3, 55, 93
5, 2496, Note_on_c, 3, 43, 93
5, 2676, Note_off_c, 3, 55, 0
5, 2676, Note_off_c, 3, 43, 0
5, 2688, Note_on_c, 3, 55, 93
5, 2688, Note_on_c, 3, 43, 93
5, 2868, Note_off_c, 3, 55, 0
5, 2868, Note_off_c, 3, 43, 0
5, 2880, Note_on_c, 3, 55, 93
5, 2880, Note_on_c, 3, 43, 93
5, 3060, Note_off_c, 3, 55, 0
5, 3060, Note_off_c, 3, 43, 0
5, 3072, Note_on_c, 3, 55, 93
5, 3072, Note_on_c, 3, 43, 93
5, 3252, Note_off_c, 3, 55, 0
5, 3252, Note_off_c, 3, 43, 0
5, 3264, Note_on_c, 3, 55, 93
5, 3264, Note_on_c, 3, 43, 93
5, 3444, Note_off_c, 3, 55, 0
5, 3444, Note_off_c, 3, 43, 0
5, 3456, Note_on_c, 3, 55, 93
5, 3456, Note_on_c, 3, 43, 93
5, 3816, Note_off_c, 3, 55, 0
5, 3816, Note_off_c, 3, 43, 0
5, 4032, Note_on_c, 3, 62, 93
5, 4212, Note_off_c, 3, 62, 0
5, 4224, Note_on_c, 3, 59, 93
5, 4404, Note_off_c, 3, 59, 0
5, 4416, Note_on_c, 3, 55, 93
5, 4596, Note_off_c, 3, 55, 0
5, 4608, Note_on_c, 3, 62, 93
5, 4608, Note_on_c, 3, 50, 93
5, 4788, Note_off_c, 3, 62, 0
5, 4788, Note_off_c, 3, 50, 0
5, 4800, Note_on_c, 3, 57, 93
5, 4800, Note_on_c, 3, 54, 93
5, 4800, Note_on_c, 3, 45, 93
5, 4980, Note_off_c, 3, 57, 0
5, 4980, Note_off_c, 3, 54, 0
5, 4980, Note_off_c, 3, 45, 0
5, 4992, Note_on_c, 3, 50, 93
5, 4992, Note_on_c, 3, 38, 93
5, 5172, Note_off_c, 3, 50, 0
5, 5172, Note_off_c, 3, 38, 0
5, 5184, Note_on_c, 3, 54, 93
5, 5184, Note_on_c, 3, 42, 93
5, 5364, Note_off_c, 3, 54, 0
5, 5364, Note_off_c, 3, 42, 0
5, 5376, Note_on_c, 3, 55, 93
5, 5376, Note_on_c, 3, 50, 93
5, 5376, Note_on_c, 3, 43, 93
5, 5736, Note_off_c, 3, 55, 0
5, 5736, Note_off_c, 3, 50, 0
5, 5736, Note_off_c, 3, 43, 0
5, 5952, Note_on_c, 3, 57, 93
5, 5952, Note_on_c, 3, 54, 93
5, 5952, Note_on_c, 3, 45, 93
5, 6132, Note_off_c, 3, 57, 0
5, 6132, Note_off_c, 3, 54, 0
5, 6132, Note_off_c, 3, 45, 0
5, 6144, Note_on_c, 3, 50, 93
5, 6144, Note_on_c, 3, 38, 93
5, 6324, Note_off_c, 3, 50, 0
5, 6324, Note_off_c, 3, 38, 0
5, 6336, Note_on_c, 3, 54, 93
5, 6336, Note_on_c, 3, 42, 93
5, 6516, Note_off_c, 3, 54, 0
5, 6516, Note_off_c, 3, 42, 0
5, 6528, Note_on_c, 3, 55, 93
5, 6528, Note_on_c, 3, 50, 93
5, 6528, Note_on_c, 3, 43, 93
5, 6888, Note_off_c, 3, 55, 0
5, 6888, Note_off_c, 3, 50, 0
5, 6888, Note_off_c, 3, 43, 0
5, 6912, Note_on_c, 3, 48, 93
5, 6912, Note_on_c, 3, 36, 93
5, 7092, Note_off_c, 3, 48, 0
5, 7092, Note_off_c, 3, 36, 0
5, 7104, Note_on_c, 3, 48, 93
5, 7104, Note_on_c, 3, 36, 93
5, 7284, Note_off_c, 3, 48, 0
5, 7284, Note_off_c, 3, 36, 0
5, 7296, Note_on_c, 3, 48, 93
5, 7296, Note_on_c, 3, 36, 93
5, 7476, Note_off_c, 3, 48, 0
5, 7476, Note_off_c, 3, 36, 0
5, 7488, Note_on_c, 3, 48, 93
5, 7488, Note_on_c, 3, 36, 93
5, 7668, Note_off_c, 3, 48, 0
5, 7668, Note_off_c, 3, 36, 0
5, 7680, Note_on_c, 3, 48, 93
5, 7680, Note_on_c, 3, 36, 93
5, 7860, Note_off_c, 3, 48, 0
5, 7860, Note_off_c, 3, 36, 0
5, 7872, Note_on_c, 3, 49, 93
5, 7872, Note_on_c, 3, 37, 93
5, 8052, Note_off_c, 3, 49, 0
5, 8052, Note_off_c, 3, 37, 0
5, 8064, Note_on_c, 3, 50, 93
5, 8064, Note_on_c, 3, 38, 93
5, 8244, Note_off_c, 3, 50, 0
5, 8244, Note_off_c, 3, 38, 0
5, 8256, Note_on_c, 3, 50, 93
5, 8256, Note_on_c, 3, 62, 93
5, 8436, Note_off_c, 3, 50, 0
5, 8436, Note_off_c, 3, 62, 0
5, 8448, Note_on_c, 3, 50, 93
5, 8448, Note_on_c, 3, 38, 93
5, 8628, Note_off_c, 3, 50, 0
5, 8628, Note_off_c, 3, 38, 0
5, 8640, Note_on_c, 3, 50, 93
5, 8640, Note_on_c, 3, 38, 93
5, 8820, Note_off_c, 3, 50, 0
5, 8820, Note_off_c, 3, 38, 0
5, 8832, Note_on_c, 3, 50, 93
5, 8832, Note_on_c, 3, 38, 93
5, 9192, Note_off_c, 3, 50, 0
5, 9192, Note_off_c, 3, 38, 0
5, 9216, Note_on_c, 3, 59, 66
5, 9216, Note_on_c, 3, 55, 66
5, 9300, Note_off_c, 3, 59, 0
5, 9312, Note_on_c, 3, 62, 66
5, 9396, Note_off_c, 3, 62, 0
5, 9408, Note_on_c, 3, 59, 66
5, 9492, Note_off_c, 3, 59, 0
5, 9504, Note_on_c, 3, 62, 66
5, 9576, Note_off_c, 3, 55, 0
5, 9588, Note_off_c, 3, 62, 0
5, 9600, Note_on_c, 3, 59, 66
5, 9684, Note_off_c, 3, 59, 0
5, 9696, Note_on_c, 3, 62, 66
5, 9780, Note_off_c, 3, 62, 0
5, 9792, Note_on_c, 3, 59, 66
5, 9792, Note_on_c, 3, 55, 66
5, 9876, Note_off_c, 3, 59, 0
5, 9888, Note_on_c, 3, 62, 66
5, 9972, Note_off_c, 3, 55, 0
5, 9972, Note_off_c, 3, 62, 0
5, 9984, Note_on_c, 3, 60, 93
5, 9984, Note_on_c, 3, 57, 93
5, 10068, Note_off_c, 3, 60, 0
5, 10080, Note_on_c, 3, 62, 93
5, 10164, Note_off_c, 3, 57, 0
5, 10164, Note_off_c, 3, 62, 0
5, 10176, Note_on_c, 3, 60, 93
5, 10176, Note_on_c, 3, 50, 93
5, 10176, Note_on_c, 3, 57, 93
5, 10260, Note_off_c, 3, 60, 0
5, 10260, Note_off_c, 3, 57, 0
5, 10272, Note_on_c, 3, 62, 93
5, 10356, Note_off_c, 3, 50, 0
5, 10356, Note_off_c, 3, 62, 0
5, 10368, Note_on_c, 3, 59, 66
5, 10368, Note_on_c, 3, 55, 66
5, 10452, Note_off_c, 3, 59, 0
5, 10464, Note_on_c, 3, 62, 66
5, 10548, Note_off_c, 3, 62, 0
5, 10560, Note_on_c, 3, 59, 66
5, 10644, Note_off_c, 3, 59, 0
5, 10656, Note_on_c, 3, 62, 66
5, 10728, Note_off_c, 3, 55, 0
5, 10740, Note_off_c, 3, 62, 0
5, 10752, Note_on_c, 3, 59, 66
5, 10836, Note_off_c, 3, 59, 0
5, 10848, Note_on_c, 3, 62, 66
5, 10932, Note_off_c, 3, 62, 0
5, 10944, Note_on_c, 3, 59, 66
5, 10944, Note_on_c, 3, 55, 66
5, 11028, Note_off_c, 3, 59, 0
5, 11040, Note_on_c, 3, 62, 66
5, 11124, Note_off_c, 3, 55, 0
5, 11124, Note_off_c, 3, 62, 0
5, 11136, Note_on_c, 3, 60, 93
5, 11136, Note_on_c, 3, 57, 93
5, 11220, Note_off_c, 3, 60, 0
5, 11232, Note_on_c, 3, 62, 93
5, 11316, Note_off_c, 3, 57, 0
5, 11316, Note_off_c, 3, 62, 0
5, 11328, Note_on_c, 3, 60, 93
5, 11328, Note_on_c, 3, 50, 93
5, 11328, Note_on_c, 3, 57, 93
5, 11412, Note_off_c, 3, 60, 0
5, 11412, Note_off_c, 3, 57, 0
5, 11424, Note_on_c, 3, 62, 93
5, 11508, Note_off_c, 3, 50, 0
5, 11508, Note_off_c, 3, 62, 0
5, 11520, Note_on_c, 3, 62, 66
5, 11520, Note_on_c, 3, 59, 66
5, 11520, Note_on_c, 3, 55, 66
5, 11880, Note_off_c, 3, 62, 0
5, 11880, Note_off_c, 3, 59, 0
5, 11880, Note_off_c, 3, 55, 0
5, 12096, Note_on_c, 3, 63, 66
5, 12276, Note_off_c, 3, 63, 0
5, 12288, Note_on_c, 3, 64, 66
5, 12468, Note_off_c, 3, 64, 0
5, 12480, Note_on_c, 3, 67, 66
5, 12660, Note_off_c, 3, 67, 0
5, 12672, Note_on_c, 3, 60, 66
5, 12944, Note_off_c, 3, 60, 0
5, 12960, Note_on_c, 3, 62, 66
5, 13044, Note_off_c, 3, 62, 0
5, 13056, Note_on_c, 3, 64, 66
5, 13236, Note_off_c, 3, 64, 0
5, 13248, Note_on_c, 3, 56, 66
5, 13428, Note_off_c, 3, 56, 0
5, 13440, Note_on_c, 3, 57, 66
5, 13620, Note_off_c, 3, 57, 0
5, 13632, Note_on_c, 3, 60, 66
5, 13812, Note_off_c, 3, 60, 0
5, 13824, Note_on_c, 3, 60, 66
5, 13824, Note_on_c, 3, 48, 66
5, 14184, Note_off_c, 3, 60, 0
5, 14184, Note_off_c, 3, 48, 0
5, 14208, Note_on_c, 3, 59, 66
5, 14208, Note_on_c, 3, 50, 66
5, 14568, Note_off_c, 3, 59, 0
5, 14592, Note_on_c, 3, 57, 66
5, 14952, Note_off_c, 3, 50, 0
5, 14952, Note_off_c, 3, 57, 0
5, 14976, Note_on_c, 3, 52, 93
5, 14976, Note_on_c, 3, 40, 93
5, 15156, Note_off_c, 3, 52, 0
5, 15156, Note_off_c, 3, 40, 0
5, 15168, Note_on_c, 3, 52, 93
5, 15168, Note_on_c, 3, 40, 93
5, 15348, Note_off_c, 3, 52, 0
5, 15348, Note_off_c, 3, 40, 0
5, 15360, Note_on_c, 3, 52, 93
5, 15360, Note_on_c, 3, 40, 93
5, 15540, Note_off_c, 3, 52, 0
5, 15540, Note_off_c, 3, 40, 0
5, 15552, Note_on_c, 3, 52, 93
5, 15552, Note_on_c, 3, 40, 93
5, 15732, Note_off_c, 3, 52, 0
5, 15732, Note_off_c, 3, 40, 0
5, 15744, Note_on_c, 3, 52, 93
5, 15744, Note_on_c, 3, 40, 93
5, 15924, Note_off_c, 3, 52, 0
5, 15924, Note_off_c, 3, 40, 0
5, 15936, Note_on_c, 3, 52, 93
5, 15936, Note_on_c, 3, 40, 93
5, 16116, Note_off_c, 3, 52, 0
5, 16116, Note_off_c, 3, 40, 0
5, 16320, Note_on_c, 3, 62, 66
5, 16320, Note_on_c, 3, 54, 66
5, 16500, Note_off_c, 3, 62, 0
5, 16500, Note_off_c, 3, 54, 0
5, 16512, Note_on_c, 3, 62, 66
5, 16512, Note_on_c, 3, 54, 66
5, 16692, Note_off_c, 3, 62, 0
5, 16692, Note_off_c, 3, 54, 0
5, 16704, Note_on_c, 3, 62, 66
5, 16704, Note_on_c, 3, 54, 66
5, 16884, Note_off_c, 3, 62, 0
5, 16884, Note_off_c, 3, 54, 0
5, 16896, Note_on_c, 3, 62, 66
5, 16896, Note_on_c, 3, 54, 66
5, 17076, Note_off_c, 3, 62, 0
5, 17076, Note_off_c, 3, 54, 0
5, 17088, Note_on_c, 3, 62, 66
5, 17088, Note_on_c, 3, 54, 66
5, 17268, Note_off_c, 3, 62, 0
5, 17268, Note_off_c, 3, 54, 0
5, 17280, Note_on_c, 3, 55, 93
5, 17280, Note_on_c, 3, 43, 93
5, 17460, Note_off_c, 3, 55, 0
5, 17460, Note_off_c, 3, 43, 0
5, 17472, Note_on_c, 3, 52, 93
5, 17472, Note_on_c, 3, 40, 93
5, 17652, Note_off_c, 3, 52, 0
5, 17652, Note_off_c, 3, 40, 0
5, 17664, Note_on_c, 3, 47, 93
5, 17664, Note_on_c, 3, 35, 93
5, 17844, Note_off_c, 3, 47, 0
5, 17844, Note_off_c, 3, 35, 0
5, 17856, Note_on_c, 3, 48, 93
5, 17856, Note_on_c, 3, 36, 93
5, 18036, Note_off_c, 3, 48, 0
5, 18036, Note_off_c, 3, 36, 0
5, 18432, Note_on_c, 3, 50, 66
5, 18432, Note_on_c, 3, 38, 66
5, 18792, Note_off_c, 3, 50, 0
5, 18792, Note_off_c, 3, 38, 0
5, 18816, Note_on_c, 3, 50, 66
5, 18816, Note_on_c, 3, 38, 66
5, 19176, Note_off_c, 3, 50, 0
5, 19176, Note_off_c, 3, 38, 0
5, 19200, Note_on_c, 3, 50, 66
5, 19200, Note_on_c, 3, 38, 66
5, 19580, Note_off_c, 3, 50, 0
5, 19580, Note_off_c, 3, 38, 0
5, 19584, Note_on_c, 3, 43, 93
5, 19584, Note_on_c, 3, 31, 93
5, 19764, Note_off_c, 3, 43, 0
5, 19764, Note_off_c, 3, 31, 0
5, 19776, Note_on_c, 3, 52, 93
5, 19776, Note_on_c, 3, 40, 93
5, 19956, Note_off_c, 3, 52, 0
5, 19956, Note_off_c, 3, 40, 0
5, 19968, Note_on_c, 3, 50, 93
5, 19968, Note_on_c, 3, 38, 93
5, 20148, Note_off_c, 3, 50, 0
5, 20148, Note_off_c, 3, 38, 0
5, 20928, Note_on_c, 3, 64, 93
5, 20928, Note_on_c, 3, 52, 93
5, 21108, Note_off_c, 3, 64, 0
5, 21108, Note_off_c, 3, 52, 0
5, 21120, Note_on_c, 3, 62, 93
5, 21120, Note_on_c, 3, 50, 93
5, 21300, Note_off_c, 3, 62, 0
5, 21300, Note_off_c, 3, 50, 0
5, 22080, Note_on_c, 3, 55, 93
5, 22080, Note_on_c, 3, 43, 93
5, 22260, Note_off_c, 3, 55, 0
5, 22260, Note_off_c, 3, 43, 0
5, 22272, Note_on_c, 3, 50, 93
5, 22452, Note_off_c, 3, 50, 0
5, 22464, Note_on_c, 3, 50, 93
5, 22644, Note_off_c, 3, 50, 0
5, 22656, Note_on_c, 3, 50, 93
5, 22656, Note_on_c, 3, 38, 93
5, 22836, Note_off_c, 3, 50, 0
5, 22836, Note_off_c, 3, 38, 0
5, 22848, Note_on_c, 3, 50, 93
5, 22848, Note_on_c, 3, 38, 93
5, 23028, Note_off_c, 3, 50, 0
5, 23028, Note_off_c, 3, 38, 0
5, 23040, Note_on_c, 3, 55, 93
5, 23040, Note_on_c, 3, 43, 93
5, 23400, Note_off_c, 3, 55, 0
5, 23400, Note_off_c, 3, 43, 0
5, 24192, Note_on_c, 3, 43, 66
5, 24192, Note_on_c, 3, 31, 66
5, 24552, Note_off_c, 3, 43, 0
5, 24552, Note_off_c, 3, 31, 0
5, 24576, Note_on_c, 3, 43, 66
5, 24576, Note_on_c, 3, 31, 66
5, 24936, Note_off_c, 3, 43, 0
5, 24936, Note_off_c, 3, 31, 0
5, 24960, Note_on_c, 3, 43, 66
5, 24960, Note_on_c, 3, 31, 66
5, 25320, Note_off_c, 3, 43, 0
5, 25320, Note_off_c, 3, 31, 0
5, 25344, Note_on_c, 3, 43, 66
5, 25344, Note_on_c, 3, 31, 66
5, 26088, Note_off_c, 3, 43, 0
5, 26088, Note_off_c, 3, 31, 0
5, 26496, Note_on_c, 3, 55, 66
5, 27648, Note_on_c, 3, 55, 66
5, 28008, Note_off_c, 3, 55, 64
5, 28800, Note_on_c, 3, 55, 66
5, 29160, Note_off_c, 3, 55, 0
5, 29160, Note_off_c, 3, 55, 64
5, 29952, Note_on_c, 3, 50, 66
5, 30132, Note_off_c, 3, 50, 0
5, 30144, Note_on_c, 3, 57, 66
5, 30144, Note_on_c, 3, 54, 66
5, 30144, Note_on_c, 3, 45, 66
5, 30324, Note_off_c, 3, 57, 0
5, 30324, Note_off_c, 3, 54, 0
5, 30324, Note_off_c, 3, 45, 0
5, 30336, Note_on_c, 3, 50, 66
5, 30336, Note_on_c, 3, 38, 66
5, 30516, Note_off_c, 3, 50, 0
5, 30516, Note_off_c, 3, 38, 0
5, 30528, Note_on_c, 3, 54, 66
5, 30528, Note_on_c, 3, 42, 66
5, 30708, Note_off_c, 3, 54, 0
5, 30708, Note_off_c, 3, 42, 0
5, 30720, Note_on_c, 3, 55, 66
5, 30720, Note_on_c, 3, 50, 66
5, 30720, Note_on_c, 3, 43, 66
5, 31080, Note_off_c, 3, 55, 0
5, 31080, Note_off_c, 3, 50, 0
5, 31080, Note_off_c, 3, 43, 0
5, 31296, Note_on_c, 3, 57, 66
5, 31296, Note_on_c, 3, 54, 66
5, 31296, Note_on_c, 3, 45, 66
5, 31476, Note_off_c, 3, 57, 0
5, 31476, Note_off_c, 3, 54, 0
5, 31476, Note_off_c, 3, 45, 0
5, 31488, Note_on_c, 3, 50, 66
5, 31488, Note_on_c, 3, 38, 66
5, 31668, Note_off_c, 3, 50, 0
5, 31668, Note_off_c, 3, 38, 0
5, 31680, Note_on_c, 3, 54, 66
5, 31680, Note_on_c, 3, 42, 66
5, 31860, Note_off_c, 3, 54, 0
5, 31860, Note_off_c, 3, 42, 0
5, 31872, Note_on_c, 3, 55, 66
5, 31872, Note_on_c, 3, 50, 66
5, 31872, Note_on_c, 3, 43, 66
5, 32232, Note_off_c, 3, 55, 0
5, 32232, Note_off_c, 3, 50, 0
5, 32232, Note_off_c, 3, 43, 0
5, 32256, Note_on_c, 3, 48, 66
5, 32256, Note_on_c, 3, 36, 66
5, 32616, Note_off_c, 3, 48, 0
5, 32616, Note_off_c, 3, 36, 0
5, 32640, Note_on_c, 3, 50, 66
5, 32640, Note_on_c, 3, 38, 66
5, 33000, Note_off_c, 3, 50, 0
5, 33000, Note_off_c, 3, 38, 0
5, 33024, Note_on_c, 3, 50, 66
5, 33024, Note_on_c, 3, 38, 66
5, 33384, Note_off_c, 3, 50, 0
5, 33384, Note_off_c, 3, 38, 0
5, 33408, Note_on_c, 3, 55, 66
5, 33408, Note_on_c, 3, 43, 66
5, 33588, Note_off_c, 3, 55, 0
5, 33588, Note_off_c, 3, 43, 0
5, 33600, Note_on_c, 3, 52, 93
5, 33600, Note_on_c, 3, 40, 93
5, 33780, Note_off_c, 3, 52, 0
5, 33780, Note_off_c, 3, 40, 0
5, 33792, Note_on_c, 3, 50, 93
5, 33792, Note_on_c, 3, 38, 93
5, 33972, Note_off_c, 3, 50, 0
5, 33972, Note_off_c, 3, 38, 0
5, 34752, Note_on_c, 3, 64, 93
5, 34752, Note_on_c, 3, 52, 93
5, 34932, Note_off_c, 3, 64, 0
5, 34932, Note_off_c, 3, 52, 0
5, 34944, Note_on_c, 3, 62, 93
5, 34944, Note_on_c, 3, 50, 93
5, 35124, Note_off_c, 3, 62, 0
5, 35124, Note_off_c, 3, 50, 0
5, 35712, Note_on_c, 3, 43, 66
5, 35904, Note_on_c, 3, 55, 66
5, 36072, Note_off_c, 3, 43, 0
5, 36084, Note_off_c, 3, 55, 0
5, 36096, Note_on_c, 3, 55, 66
5, 36276, Note_off_c, 3, 55, 0
5, 36288, Note_on_c, 3, 55, 66
5, 36468, Note_off_c, 3, 55, 0
5, 36480, Note_on_c, 3, 55, 66
5, 36660, Note_off_c, 3, 55, 0
5, 36672, Note_on_c, 3, 55, 66
5, 36852, Note_off_c, 3, 55, 0
5, 36864, Note_on_c, 3, 43, 66
5, 37056, Note_on_c, 3, 54, 66
5, 37224, Note_off_c, 3, 43, 0
5, 37236, Note_off_c, 3, 54, 0
5, 37248, Note_on_c, 3, 54, 66
5, 37428, Note_off_c, 3, 54, 0
5, 37440, Note_on_c, 3, 54, 66
5, 37620, Note_off_c, 3, 54, 0
5, 37632, Note_on_c, 3, 54, 66
5, 37812, Note_off_c, 3, 54, 0
5, 37824, Note_on_c, 3, 54, 66
5, 38004, Note_off_c, 3, 54, 0
5, 38016, Note_on_c, 3, 52, 66
5, 38016, Note_on_c, 3, 40, 66
5, 38376, Note_off_c, 3, 52, 0
5, 38376, Note_off_c, 3, 40, 0
5, 38400, Note_on_c, 3, 45, 66
5, 38760, Note_off_c, 3, 45, 0
5, 38784, Note_on_c, 3, 45, 66
5, 38784, Note_on_c, 3, 33, 66
5, 39144, Note_off_c, 3, 45, 0
5, 39144, Note_off_c, 3, 33, 0
5, 39168, Note_on_c, 3, 50, 66
5, 39168, Note_on_c, 3, 38, 66
5, 39912, Note_off_c, 3, 50, 0
5, 39912, Note_off_c, 3, 38, 0
5, 39936, Note_on_c, 3, 54, 66
5, 39936, Note_on_c, 3, 42, 66
5, 40296, Note_off_c, 3, 54, 0
5, 40296, Note_off_c, 3, 42, 0
5, 40320, Note_on_c, 3, 55, 66
5, 40320, Note_on_c, 3, 43, 66
5, 41064, Note_off_c, 3, 55, 64
5, 41064, Note_off_c, 3, 43, 64
5, 41088, Note_on_c, 3, 43, 66
5, 41088, Note_on_c, 3, 55, 66
5, 41268, Note_off_c, 3, 43, 64
5, 41268, Note_off_c, 3, 55, 64
5, 41280, Note_on_c, 3, 57, 66
5, 41280, Note_on_c, 3, 45, 66
5, 41460, Note_off_c, 3, 57, 64
5, 41460, Note_off_c, 3, 45, 64
5, 41472, Note_on_c, 3, 59, 66
5, 41472, Note_on_c, 3, 47, 66
5, 42216, Note_off_c, 3, 59, 64
5, 42216, Note_off_c, 3, 47, 64
5, 42240, Note_on_c, 3, 59, 66
5, 42240, Note_on_c, 3, 47, 66
5, 42420, Note_off_c, 3, 59, 64
5, 42420, Note_off_c, 3, 47, 64
5, 42432, Note_on_c, 3, 57, 66
5, 42432, Note_on_c, 3, 45, 66
5, 42612, Note_off_c, 3, 57, 64
5, 42612, Note_off_c, 3, 45, 64
5, 42624, Note_on_c, 3, 56, 66
5, 42624, Note_on_c, 3, 44, 66
5, 43752, Note_off_c, 3, 56, 64
5, 43752, Note_off_c, 3, 44, 64
5, 43776, Note_on_c, 3, 57, 66
5, 43776, Note_on_c, 3, 45, 66
5, 44136, Note_off_c, 3, 57, 64
5, 44136, Note_off_c, 3, 45, 64
5, 44352, Note_on_c, 3, 55, 66
5, 44532, Note_off_c, 3, 55, 64
5, 44544, Note_on_c, 3, 54, 66
5, 44724, Note_off_c, 3, 54, 64
5, 44736, Note_on_c, 3, 52, 66
5, 44916, Note_off_c, 3, 52, 64
5, 44928, Note_on_c, 3, 54, 66
5, 44928, Note_on_c, 3, 50, 66
5, 45012, Note_off_c, 3, 54, 64
5, 45024, Note_on_c, 3, 57, 66
5, 45108, Note_off_c, 3, 57, 64
5, 45120, Note_on_c, 3, 54, 66
5, 45204, Note_off_c, 3, 54, 64
5, 45216, Note_on_c, 3, 57, 66
5, 45288, Note_off_c, 3, 50, 64
5, 45300, Note_off_c, 3, 57, 64
5, 45312, Note_on_c, 3, 54, 66
5, 45396, Note_off_c, 3, 54, 64
5, 45408, Note_on_c, 3, 57, 66
5, 45488, Note_on_c, 3, 50, 66
5, 45492, Note_off_c, 3, 57, 64
5, 45504, Note_on_c, 3, 54, 66
5, 45588, Note_off_c, 3, 54, 64
5, 45600, Note_on_c, 3, 57, 66
5, 45668, Note_off_c, 3, 50, 64
5, 45684, Note_off_c, 3, 57, 64
5, 45696, Note_on_c, 3, 55, 93
5, 45696, Note_on_c, 3, 52, 93
5, 45780, Note_off_c, 3, 55, 64
5, 45792, Note_on_c, 3, 57, 93
5, 45872, Note_on_c, 3, 45, 93
5, 45876, Note_off_c, 3, 52, 64
5, 45876, Note_off_c, 3, 57, 64
5, 45888, Note_on_c, 3, 55, 93
5, 45972, Note_off_c, 3, 55, 64
5, 45984, Note_on_c, 3, 57, 93
5, 46052, Note_off_c, 3, 45, 64
5, 46068, Note_off_c, 3, 57, 64
5, 46080, Note_on_c, 3, 54, 66
5, 46080, Note_on_c, 3, 50, 66
5, 46164, Note_off_c, 3, 54, 64
5, 46176, Note_on_c, 3, 57, 66
5, 46260, Note_off_c, 3, 57, 64
5, 46272, Note_on_c, 3, 54, 66
5, 46356, Note_off_c, 3, 54, 64
5, 46368, Note_on_c, 3, 57, 66
5, 46440, Note_off_c, 3, 50, 64
5, 46452, Note_off_c, 3, 57, 64
5, 46464, Note_on_c, 3, 54, 66
5, 46548, Note_off_c, 3, 54, 64
5, 46560, Note_on_c, 3, 57, 66
5, 46644, Note_off_c, 3, 57, 64
5, 46656, Note_on_c, 3, 54, 66
5, 46656, Note_on_c, 3, 50, 66
5, 46740, Note_off_c, 3, 54, 64
5, 46752, Note_on_c, 3, 57, 66
5, 46836, Note_off_c, 3, 50, 64
5, 46836, Note_off_c, 3, 57, 64
5, 46848, Note_on_c, 3, 55, 93
5, 46848, Note_on_c, 3, 52, 93
5, 46932, Note_off_c, 3, 55, 64
5, 46944, Note_on_c, 3, 57, 93
5, 47024, Note_on_c, 3, 45, 93
5, 47028, Note_off_c, 3, 52, 64
5, 47028, Note_off_c, 3, 57, 64
5, 47040, Note_on_c, 3, 55, 93
5, 47124, Note_off_c, 3, 55, 64
5, 47136, Note_on_c, 3, 57, 93
5, 47204, Note_off_c, 3, 45, 64
5, 47220, Note_off_c, 3, 57, 64
5, 47232, Note_on_c, 3, 54, 66
5, 47232, Note_on_c, 3, 50, 66
5, 47412, Note_off_c, 3, 54, 64
5, 47412, Note_off_c, 3, 50, 64
5, 48000, Note_on_c, 3, 67, 66
5, 48000, Note_on_c, 3, 64, 66
5, 48180, Note_off_c, 3, 67, 64
5, 48180, Note_off_c, 3, 64, 64
5, 48384, Note_on_c, 3, 66, 66
5, 48384, Note_on_c, 3, 62, 66
5, 48564, Note_off_c, 3, 66, 64
5, 48564, Note_off_c, 3, 62, 64
5, 49152, Note_on_c, 3, 64, 66
5, 49152, Note_on_c, 3, 55, 66
5, 49332, Note_off_c, 3, 64, 64
5, 49332, Note_off_c, 3, 55, 64
5, 49536, Note_on_c, 3, 62, 66
5, 49536, Note_on_c, 3, 54, 66
5, 49808, Note_off_c, 3, 62, 64
5, 49824, Note_on_c, 3, 64, 66
5, 49896, Note_off_c, 3, 54, 64
5, 49908, Note_off_c, 3, 64, 64
5, 49920, Note_on_c, 3, 66, 66
5, 50100, Note_off_c, 3, 66, 64
5, 50112, Note_on_c, 3, 58, 66
5, 50292, Note_off_c, 3, 58, 64
5, 50304, Note_on_c, 3, 59, 66
5, 50484, Note_off_c, 3, 59, 64
5, 50496, Note_on_c, 3, 62, 66
5, 50676, Note_off_c, 3, 62, 64
5, 50688, Note_on_c, 3, 55, 66
5, 50960, Note_off_c, 3, 55, 64
5, 50976, Note_on_c, 3, 57, 66
5, 51060, Note_off_c, 3, 57, 64
5, 51072, Note_on_c, 3, 59, 66
5, 51252, Note_off_c, 3, 59, 64
5, 51264, Note_on_c, 3, 63, 66
5, 51444, Note_off_c, 3, 63, 64
5, 51456, Note_on_c, 3, 64, 66
5, 51636, Note_off_c, 3, 64, 64
5, 51648, Note_on_c, 3, 66, 66
5, 51828, Note_off_c, 3, 66, 64
5, 51840, Note_on_c, 3, 64, 66
5, 51840, Note_on_c, 3, 49, 66
5, 52200, Note_off_c, 3, 64, 64
5, 52200, Note_off_c, 3, 49, 64
5, 52992, Note_on_c, 3, 57, 66
5, 52992, Note_on_c, 3, 50, 66
5, 53352, Note_off_c, 3, 57, 64
5, 53352, Note_off_c, 3, 50, 64
5, 53760, Note_on_c, 3, 62, 66
5, 53760, Note_on_c, 3, 54, 66
5, 54120, Note_off_c, 3, 62, 64
5, 54120, Note_off_c, 3, 54, 64
5, 54144, Note_on_c, 3, 55, 66
5, 54504, Note_off_c, 3, 55, 64
5, 54528, Note_on_c, 3, 57, 66
5, 54528, Note_on_c, 3, 57, 66
5, 54888, Note_off_c, 3, 57, 64
5, 54912, Note_on_c, 3, 45, 66
5, 55272, Note_off_c, 3, 57, 64
5, 55272, Note_off_c, 3, 45, 64
5, 55296, Note_on_c, 3, 59, 66
5, 55296, Note_on_c, 3, 47, 66
5, 55656, Note_off_c, 3, 59, 64
5, 55656, Note_off_c, 3, 47, 64
5, 55872, Note_on_c, 3, 47, 66
5, 56052, Note_off_c, 3, 47, 64
5, 56064, Note_on_c, 3, 47, 66
5, 56244, Note_off_c, 3, 47, 64
5, 56256, Note_on_c, 3, 47, 66
5, 56436, Note_off_c, 3, 47, 64
5, 56448, Note_on_c, 3, 49, 66
5, 56808, Note_off_c, 3, 49, 64
5, 58752, Note_on_c, 3, 57, 66
5, 58932, Note_off_c, 3, 57, 64
5, 59136, Note_on_c, 3, 57, 66
5, 59316, Note_off_c, 3, 57, 64
5, 59520, Note_on_c, 3, 55, 66
5, 59700, Note_off_c, 3, 55, 64
5, 59904, Note_on_c, 3, 54, 93
5, 59904, Note_on_c, 3, 42, 93
5, 60084, Note_off_c, 3, 54, 64
5, 60084, Note_off_c, 3, 42, 64
5, 60288, Note_on_c, 3, 54, 66
5, 60288, Note_on_c, 3, 42, 66
5, 60468, Note_off_c, 3, 54, 64
5, 60468, Note_off_c, 3, 42, 64
5, 60672, Note_on_c, 3, 54, 66
5, 60672, Note_on_c, 3, 42, 66
5, 60852, Note_off_c, 3, 54, 64
5, 60852, Note_off_c, 3, 42, 64
5, 61056, Note_on_c, 3, 55, 93
5, 61056, Note_on_c, 3, 43, 93
5, 61236, Note_off_c, 3, 55, 64
5, 61236, Note_off_c, 3, 43, 64
5, 61440, Note_on_c, 3, 55, 66
5, 61440, Note_on_c, 3, 43, 66
5, 61620, Note_off_c, 3, 55, 64
5, 61620, Note_off_c, 3, 43, 64
5, 61824, Note_on_c, 3, 55, 66
5, 61824, Note_on_c, 3, 43, 66
5, 62004, Note_off_c, 3, 55, 64
5, 62004, Note_off_c, 3, 43, 64
5, 62208, Note_on_c, 3, 57, 66
5, 62208, Note_on_c, 3, 45, 66
5, 62388, Note_off_c, 3, 57, 64
5, 62388, Note_off_c, 3, 45, 64
5, 62592, Note_on_c, 3, 57, 66
5, 62592, Note_on_c, 3, 45, 66
5, 62772, Note_off_c, 3, 57, 64
5, 62772, Note_off_c, 3, 45, 64
5, 62976, Note_on_c, 3, 57, 66
5, 62976, Note_on_c, 3, 45, 66
5, 63156, Note_off_c, 3, 57, 64
5, 63156, Note_off_c, 3, 45, 64
5, 63360, Note_on_c, 3, 45, 66
5, 63360, Note_on_c, 3, 33, 66
5, 63540, Note_off_c, 3, 45, 64
5, 63540, Note_off_c, 3, 33, 64
5, 63552, Note_on_c, 3, 45, 66
5, 63552, Note_on_c, 3, 33, 66
5, 63732, Note_off_c, 3, 45, 64
5, 63732, Note_off_c, 3, 33, 64
5, 63744, Note_on_c, 3, 45, 66
5, 63744, Note_on_c, 3, 33, 66
5, 63924, Note_off_c, 3, 45, 64
5, 63924, Note_off_c, 3, 33, 64
5, 63936, Note_on_c, 3, 45, 66
5, 63936, Note_on_c, 3, 33, 66
5, 64116, Note_off_c, 3, 45, 64
5, 64116, Note_off_c, 3, 33, 64
5, 64128, Note_on_c, 3, 45, 66
5, 64128, Note_on_c, 3, 33, 66
5, 64308, Note_off_c, 3, 45, 64
5, 64308, Note_off_c, 3, 33, 64
5, 64320, Note_on_c, 3, 45, 66
5, 64320, Note_on_c, 3, 33, 66
5, 64500, Note_off_c, 3, 45, 64
5, 64500, Note_off_c, 3, 33, 64
5, 64512, Note_on_c, 3, 50, 93
5, 64512, Note_on_c, 3, 38, 93
5, 64692, Note_off_c, 3, 50, 64
5, 64692, Note_off_c, 3, 38, 64
5, 64704, Note_on_c, 3, 50, 93
5, 64704, Note_on_c, 3, 38, 93
5, 64884, Note_off_c, 3, 50, 64
5, 64884, Note_off_c, 3, 38, 64
5, 64896, Note_on_c, 3, 54, 93
5, 64896, Note_on_c, 3, 42, 93
5, 65076, Note_off_c, 3, 54, 64
5, 65076, Note_off_c, 3, 42, 64
5, 65088, Note_on_c, 3, 50, 93
5, 65088, Note_on_c, 3, 38, 93
5, 65268, Note_off_c, 3, 50, 64
5, 65268, Note_off_c, 3, 38, 64
5, 65280, Note_on_c, 3, 57, 93
5, 65280, Note_on_c, 3, 45, 93
5, 65640, Note_off_c, 3, 57, 64
5, 65640, Note_off_c, 3, 45, 64
5, 65856, Note_on_c, 3, 50, 93
5, 65856, Note_on_c, 3, 38, 93
5, 66036, Note_off_c, 3, 50, 64
5, 66036, Note_off_c, 3, 38, 64
5, 66048, Note_on_c, 3, 54, 93
5, 66048, Note_on_c, 3, 42, 93
5, 66228, Note_off_c, 3, 54, 64
5, 66228, Note_off_c, 3, 42, 64
5, 66240, Note_on_c, 3, 50, 93
5, 66240, Note_on_c, 3, 38, 93
5, 66420, Note_off_c, 3, 50, 64
5, 66420, Note_off_c, 3, 38, 64
5, 66432, Note_on_c, 3, 57, 93
5, 66432, Note_on_c, 3, 45, 93
5, 66792, Note_off_c, 3, 57, 64
5, 66792, Note_off_c, 3, 45, 64
5, 66816, Note_on_c, 3, 54, 93
5, 66816, Note_on_c, 3, 42, 93
5, 66996, Note_off_c, 3, 54, 64
5, 66996, Note_off_c, 3, 42, 64
5, 67008, Note_on_c, 3, 55, 93
5, 67008, Note_on_c, 3, 43, 93
5, 67188, Note_off_c, 3, 55, 64
5, 67188, Note_off_c, 3, 43, 64
5, 67200, Note_on_c, 3, 57, 93
5, 67200, Note_on_c, 3, 45, 93
5, 67380, Note_off_c, 3, 57, 64
5, 67380, Note_off_c, 3, 45, 64
5, 67392, Note_on_c, 3, 57, 93
5, 67392, Note_on_c, 3, 45, 93
5, 67572, Note_off_c, 3, 57, 64
5, 67572, Note_off_c, 3, 45, 64
5, 67584, Note_on_c, 3, 45, 93
5, 67584, Note_on_c, 3, 33, 93
5, 67764, Note_off_c, 3, 45, 64
5, 67764, Note_off_c, 3, 33, 64
5, 67776, Note_on_c, 3, 45, 93
5, 67776, Note_on_c, 3, 33, 93
5, 67956, Note_off_c, 3, 45, 64
5, 67956, Note_off_c, 3, 33, 64
5, 67968, Note_on_c, 3, 50, 93
5, 67968, Note_on_c, 3, 38, 93
5, 68148, Note_off_c, 3, 50, 64
5, 68148, Note_off_c, 3, 38, 64
5, 68160, Note_on_c, 3, 47, 93
5, 68160, Note_on_c, 3, 35, 93
5, 68340, Note_off_c, 3, 47, 64
5, 68340, Note_off_c, 3, 35, 64
5, 68352, Note_on_c, 3, 45, 93
5, 68352, Note_on_c, 3, 33, 93
5, 68532, Note_off_c, 3, 45, 64
5, 68532, Note_off_c, 3, 33, 64
5, 69312, Note_on_c, 3, 47, 93
5, 69312, Note_on_c, 3, 59, 93
5, 69492, Note_off_c, 3, 47, 64
5, 69492, Note_off_c, 3, 59, 64
5, 69504, Note_on_c, 3, 57, 93
5, 69504, Note_on_c, 3, 45, 93
5, 69684, Note_off_c, 3, 57, 64
5, 69684, Note_off_c, 3, 45, 64
5, 70272, Note_on_c, 3, 62, 66
5, 70272, Note_on_c, 3, 50, 66
5, 72552, Note_off_c, 3, 50, 64
5, 72552, Note_off_c, 3, 62, 64
5, 72576, Note_on_c, 3, 50, 66
5, 72576, Note_on_c, 3, 62, 66
5, 75240, Note_off_c, 3, 50, 64
5, 75240, Note_off_c, 3, 62, 64
5, 75456, Note_on_c, 3, 62, 78
5, 75636, Note_off_c, 3, 62, 64
5, 75648, Note_on_c, 3, 57, 78
5, 75828, Note_off_c, 3, 57, 64
5, 75840, Note_on_c, 3, 54, 78
5, 76020, Note_off_c, 3, 54, 64
5, 76032, Note_on_c, 3, 62, 93
5, 76032, Note_on_c, 3, 50, 93
5, 76128, Note_on_c, 3, 57, 93
5, 76128, Note_on_c, 3, 54, 93
5, 76212, Note_off_c, 3, 57, 64
5, 76212, Note_off_c, 3, 54, 64
5, 76224, Note_on_c, 3, 59, 93
5, 76224, Note_on_c, 3, 55, 93
5, 76308, Note_off_c, 3, 59, 64
5, 76308, Note_off_c, 3, 55, 64
5, 76320, Note_on_c, 3, 57, 93
5, 76320, Note_on_c, 3, 54, 93
5, 76392, Note_off_c, 3, 62, 64
5, 76404, Note_off_c, 3, 57, 64
5, 76404, Note_off_c, 3, 54, 64
5, 76416, Note_on_c, 3, 62, 93
5, 76416, Note_on_c, 3, 59, 93
5, 76416, Note_on_c, 3, 55, 93
5, 76500, Note_off_c, 3, 59, 64
5, 76500, Note_off_c, 3, 55, 64
5, 76512, Note_on_c, 3, 57, 93
5, 76512, Note_on_c, 3, 54, 93
5, 76596, Note_off_c, 3, 57, 64
5, 76596, Note_off_c, 3, 54, 64
5, 76608, Note_on_c, 3, 59, 93
5, 76608, Note_on_c, 3, 55, 93
5, 76692, Note_off_c, 3, 59, 64
5, 76692, Note_off_c, 3, 55, 64
5, 76704, Note_on_c, 3, 57, 93
5, 76704, Note_on_c, 3, 54, 93
5, 76776, Note_off_c, 3, 50, 64
5, 76788, Note_off_c, 3, 57, 64
5, 76788, Note_off_c, 3, 54, 64
5, 76800, Note_on_c, 3, 59, 93
5, 76800, Note_on_c, 3, 55, 93
5, 76800, Note_on_c, 3, 50, 93
5, 76884, Note_off_c, 3, 59, 64
5, 76884, Note_off_c, 3, 55, 64
5, 76896, Note_on_c, 3, 57, 93
5, 76896, Note_on_c, 3, 54, 93
5, 76980, Note_off_c, 3, 62, 64
5, 76980, Note_off_c, 3, 57, 64
5, 76980, Note_off_c, 3, 54, 64
5, 76992, Note_on_c, 3, 59, 93
5, 76992, Note_on_c, 3, 55, 93
5, 77076, Note_off_c, 3, 59, 64
5, 77076, Note_off_c, 3, 55, 64
5, 77088, Note_on_c, 3, 57, 93
5, 77088, Note_on_c, 3, 54, 93
5, 77160, Note_off_c, 3, 50, 64
5, 77172, Note_off_c, 3, 57, 64
5, 77172, Note_off_c, 3, 54, 64
5, 77184, Note_on_c, 3, 50, 93
5, 77280, Note_on_c, 3, 56, 93
5, 77280, Note_on_c, 3, 59, 93
5, 77364, Note_off_c, 3, 56, 64
5, 77364, Note_off_c, 3, 59, 64
5, 77376, Note_on_c, 3, 60, 93
5, 77376, Note_on_c, 3, 57, 93
5, 77460, Note_off_c, 3, 60, 64
5, 77460, Note_off_c, 3, 57, 64
5, 77472, Note_on_c, 3, 59, 93
5, 77472, Note_on_c, 3, 56, 93
5, 77544, Note_off_c, 3, 50, 64
5, 77556, Note_off_c, 3, 59, 64
5, 77556, Note_off_c, 3, 56, 64
5, 77568, Note_on_c, 3, 50, 93
5, 77664, Note_on_c, 3, 59, 93
5, 77664, Note_on_c, 3, 56, 93
5, 77748, Note_off_c, 3, 59, 64
5, 77748, Note_off_c, 3, 56, 64
5, 77760, Note_on_c, 3, 60, 93
5, 77760, Note_on_c, 3, 57, 93
5, 77844, Note_off_c, 3, 60, 64
5, 77844, Note_off_c, 3, 57, 64
5, 77856, Note_on_c, 3, 59, 93
5, 77856, Note_on_c, 3, 56, 93
5, 77928, Note_off_c, 3, 50, 64
5, 77940, Note_off_c, 3, 59, 64
5, 77940, Note_off_c, 3, 56, 64
5, 77952, Note_on_c, 3, 50, 93
5, 78048, Note_on_c, 3, 60, 93
5, 78048, Note_on_c, 3, 57, 93
5, 78132, Note_off_c, 3, 60, 64
5, 78132, Note_off_c, 3, 57, 64
5, 78144, Note_on_c, 3, 62, 93
5, 78144, Note_on_c, 3, 59, 93
5, 78228, Note_off_c, 3, 62, 64
5, 78228, Note_off_c, 3, 59, 64
5, 78240, Note_on_c, 3, 60, 93
5, 78240, Note_on_c, 3, 57, 93
5, 78312, Note_off_c, 3, 50, 64
5, 78324, Note_off_c, 3, 60, 64
5, 78324, Note_off_c, 3, 57, 64
5, 78336, Note_on_c, 3, 50, 93
5, 78432, Note_on_c, 3, 57, 93
5, 78432, Note_on_c, 3, 54, 93
5, 78516, Note_off_c, 3, 57, 64
5, 78516, Note_off_c, 3, 54, 64
5, 78528, Note_on_c, 3, 59, 93
5, 78528, Note_on_c, 3, 55, 93
5, 78612, Note_off_c, 3, 59, 64
5, 78612, Note_off_c, 3, 55, 64
5, 78624, Note_on_c, 3, 57, 93
5, 78624, Note_on_c, 3, 54, 93
5, 78696, Note_off_c, 3, 50, 64
5, 78708, Note_off_c, 3, 57, 64
5, 78708, Note_off_c, 3, 54, 64
5, 78720, Note_on_c, 3, 50, 93
5, 78816, Note_on_c, 3, 57, 93
5, 78816, Note_on_c, 3, 54, 93
5, 78900, Note_off_c, 3, 57, 64
5, 78900, Note_off_c, 3, 54, 64
5, 78912, Note_on_c, 3, 59, 93
5, 78912, Note_on_c, 3, 55, 93
5, 78996, Note_off_c, 3, 59, 64
5, 78996, Note_off_c, 3, 55, 64
5, 79008, Note_on_c, 3, 57, 93
5, 79008, Note_on_c, 3, 54, 93
5, 79080, Note_off_c, 3, 50, 64
5, 79092, Note_off_c, 3, 57, 64
5, 79092, Note_off_c, 3, 54, 64
5, 79104, Note_on_c, 3, 50, 93
5, 79200, Note_on_c, 3, 59, 93
5, 79200, Note_on_c, 3, 55, 93
5, 79280, Note_on_c, 3, 57, 93
5, 79284, Note_off_c, 3, 59, 64
5, 79284, Note_off_c, 3, 55, 64
5, 79296, Note_on_c, 3, 60, 93
5, 79364, Note_off_c, 3, 57, 64
5, 79380, Note_off_c, 3, 60, 64
5, 79392, Note_on_c, 3, 59, 93
5, 79392, Note_on_c, 3, 55, 93
5, 79464, Note_off_c, 3, 50, 64
5, 79476, Note_off_c, 3, 59, 64
5, 79476, Note_off_c, 3, 55, 64
5, 79488, Note_on_c, 3, 50, 93
5, 79584, Note_on_c, 3, 55, 93
5, 79584, Note_on_c, 3, 52, 93
5, 79668, Note_off_c, 3, 55, 64
5, 79668, Note_off_c, 3, 52, 64
5, 79680, Note_on_c, 3, 57, 93
5, 79680, Note_on_c, 3, 54, 93
5, 79764, Note_off_c, 3, 57, 64
5, 79764, Note_off_c, 3, 54, 64
5, 79776, Note_on_c, 3, 55, 93
5, 79776, Note_on_c, 3, 52, 93
5, 79848, Note_off_c, 3, 50, 64
5, 79860, Note_off_c, 3, 55, 64
5, 79860, Note_off_c, 3, 52, 64
5, 79872, Note_on_c, 3, 50, 93
5, 79968, Note_on_c, 3, 57, 93
5, 79968, Note_on_c, 3, 54, 93
5, 80052, Note_off_c, 3, 57, 64
5, 80052, Note_off_c, 3, 54, 64
5, 80064, Note_on_c, 3, 59, 93
5, 80064, Note_on_c, 3, 55, 93
5, 80148, Note_off_c, 3, 59, 64
5, 80148, Note_off_c, 3, 55, 64
5, 80160, Note_on_c, 3, 57, 93
5, 80160, Note_on_c, 3, 54, 93
5, 80232, Note_off_c, 3, 50, 64
5, 80244, Note_off_c, 3, 57, 64
5, 80244, Note_off_c, 3, 54, 64
5, 80256, Note_on_c, 3, 50, 93
5, 80352, Note_on_c, 3, 55, 93
5, 80436, Note_off_c, 3, 55, 64
5, 80448, Note_on_c, 3, 62, 93
5, 80532, Note_off_c, 3, 62, 64
5, 80544, Note_on_c, 3, 55, 93
5, 80616, Note_off_c, 3, 50, 64
5, 80628, Note_off_c, 3, 55, 64
5, 80640, Note_on_c, 3, 55, 93
5, 80640, Note_on_c, 3, 50, 93
5, 81000, Note_off_c, 3, 55, 64
5, 81000, Note_off_c, 3, 50, 64
5, 81024, Note_on_c, 3, 54, 93
5, 81024, Note_on_c, 3, 50, 93
5, 81204, Note_off_c, 3, 50, 64
5, 81216, Note_on_c, 3, 48, 93
5, 81384, Note_off_c, 3, 54, 64
5, 81396, Note_off_c, 3, 48, 64
5, 81408, Note_on_c, 3, 47, 93
5, 81588, Note_off_c, 3, 47, 64
5, 81600, Note_on_c, 3, 45, 93
5, 81780, Note_off_c, 3, 45, 64
5, 81792, Note_on_c, 3, 43, 66
5, 81792, Note_on_c, 3, 55, 66
5, 82152, Note_off_c, 3, 43, 64
5, 84456, Note_off_c, 3, 55, 64
5, 85248, Note_on_c, 3, 50, 66
5, 85428, Note_off_c, 3, 50, 64
5, 85440, Note_on_c, 3, 57, 66
5, 85440, Note_on_c, 3, 54, 66
5, 85440, Note_on_c, 3, 45, 66
5, 85620, Note_off_c, 3, 57, 64
5, 85620, Note_off_c, 3, 54, 64
5, 85620, Note_off_c, 3, 45, 64
5, 85632, Note_on_c, 3, 50, 66
5, 85632, Note_on_c, 3, 38, 66
5, 85812, Note_off_c, 3, 50, 64
5, 85812, Note_off_c, 3, 38, 64
5, 85824, Note_on_c, 3, 54, 66
5, 85824, Note_on_c, 3, 42, 66
5, 86004, Note_off_c, 3, 54, 64
5, 86004, Note_off_c, 3, 42, 64
5, 86016, Note_on_c, 3, 55, 66
5, 86016, Note_on_c, 3, 50, 66
5, 86016, Note_on_c, 3, 43, 66
5, 86376, Note_off_c, 3, 55, 64
5, 86376, Note_off_c, 3, 50, 64
5, 86376, Note_off_c, 3, 43, 64
5, 86592, Note_on_c, 3, 57, 66
5, 86592, Note_on_c, 3, 54, 66
5, 86592, Note_on_c, 3, 45, 66
5, 86772, Note_off_c, 3, 57, 64
5, 86772, Note_off_c, 3, 54, 64
5, 86772, Note_off_c, 3, 45, 64
5, 86784, Note_on_c, 3, 50, 66
5, 86784, Note_on_c, 3, 38, 66
5, 86964, Note_off_c, 3, 50, 64
5, 86964, Note_off_c, 3, 38, 64
5, 86976, Note_on_c, 3, 54, 66
5, 86976, Note_on_c, 3, 42, 66
5, 87156, Note_off_c, 3, 54, 64
5, 87156, Note_off_c, 3, 42, 64
5, 87168, Note_on_c, 3, 55, 66
5, 87168, Note_on_c, 3, 50, 66
5, 87168, Note_on_c, 3, 43, 66
5, 87528, Note_off_c, 3, 55, 64
5, 87528, Note_off_c, 3, 50, 64
5, 87528, Note_off_c, 3, 43, 64
5, 87552, Note_on_c, 3, 48, 66
5, 87552, Note_on_c, 3, 36, 66
5, 87912, Note_off_c, 3, 48, 64
5, 87912, Note_off_c, 3, 36, 64
5, 87936, Note_on_c, 3, 50, 66
5, 87936, Note_on_c, 3, 38, 66
5, 88296, Note_off_c, 3, 50, 64
5, 88296, Note_off_c, 3, 38, 64
5, 88320, Note_on_c, 3, 50, 66
5, 88320, Note_on_c, 3, 38, 66
5, 88680, Note_off_c, 3, 50, 64
5, 88680, Note_off_c, 3, 38, 64
5, 88704, Note_on_c, 3, 55, 66
5, 88704, Note_on_c, 3, 43, 66
5, 88884, Note_off_c, 3, 55, 64
5, 88884, Note_off_c, 3, 43, 64
5, 88896, Note_on_c, 3, 52, 66
5, 88896, Note_on_c, 3, 40, 66
5, 89076, Note_off_c, 3, 52, 64
5, 89076, Note_off_c, 3, 40, 64
5, 89088, Note_on_c, 3, 50, 66
5, 89088, Note_on_c, 3, 38, 66
5, 89268, Note_off_c, 3, 50, 64
5, 89268, Note_off_c, 3, 38, 64
5, 90048, Note_on_c, 3, 64, 66
5, 90048, Note_on_c, 3, 52, 66
5, 90228, Note_off_c, 3, 64, 64
5, 90228, Note_off_c, 3, 52, 64
5, 90240, Note_on_c, 3, 62, 66
5, 90240, Note_on_c, 3, 50, 66
5, 90420, Note_off_c, 3, 62, 64
5, 90420, Note_off_c, 3, 50, 64
5, 91008, Note_on_c, 3, 43, 66
5, 91200, Note_on_c, 3, 55, 66
5, 91368, Note_off_c, 3, 43, 64
5, 91380, Note_off_c, 3, 55, 64
5, 91392, Note_on_c, 3, 55, 66
5, 91572, Note_off_c, 3, 55, 64
5, 91584, Note_on_c, 3, 55, 66
5, 91764, Note_off_c, 3, 55, 64
5, 91776, Note_on_c, 3, 55, 66
5, 91776, Note_on_c, 3, 41, 66
5, 91956, Note_off_c, 3, 55, 64
5, 91968, Note_on_c, 3, 55, 66
5, 92136, Note_off_c, 3, 41, 64
5, 92148, Note_off_c, 3, 55, 64
5, 92160, Note_on_c, 3, 40, 66
5, 92352, Note_on_c, 3, 52, 66
5, 92520, Note_off_c, 3, 40, 64
5, 92532, Note_off_c, 3, 52, 64
5, 92544, Note_on_c, 3, 52, 66
5, 92724, Note_off_c, 3, 52, 64
5, 92736, Note_on_c, 3, 52, 66
5, 92916, Note_off_c, 3, 52, 64
5, 92928, Note_on_c, 3, 52, 66
5, 93108, Note_off_c, 3, 52, 64
5, 93120, Note_on_c, 3, 52, 66
5, 93300, Note_off_c, 3, 52, 64
5, 93312, Note_on_c, 3, 50, 66
5, 93312, Note_on_c, 3, 38, 66
5, 93672, Note_off_c, 3, 50, 64
5, 93672, Note_off_c, 3, 38, 64
5, 93696, Note_on_c, 3, 55, 66
5, 93696, Note_on_c, 3, 43, 66
5, 94056, Note_off_c, 3, 55, 64
5, 94056, Note_off_c, 3, 43, 64
5, 94080, Note_on_c, 3, 43, 66
5, 94080, Note_on_c, 3, 31, 66
5, 94440, Note_off_c, 3, 43, 64
5, 94440, Note_off_c, 3, 31, 64
5, 94464, Note_on_c, 3, 48, 66
5, 94464, Note_on_c, 3, 36, 66
5, 94824, Note_off_c, 3, 48, 64
5, 94824, Note_off_c, 3, 36, 64
5, 95040, Note_on_c, 3, 55, 66
5, 95220, Note_off_c, 3, 55, 64
5, 95232, Note_on_c, 3, 52, 66
5, 95412, Note_off_c, 3, 52, 64
5, 95424, Note_on_c, 3, 48, 66
5, 95604, Note_off_c, 3, 48, 64
5, 95616, Note_on_c, 3, 48, 66
5, 95616, Note_on_c, 3, 36, 66
5, 96360, Note_off_c, 3, 48, 64
5, 96360, Note_off_c, 3, 36, 64
5, 96384, Note_on_c, 3, 48, 66
5, 96384, Note_on_c, 3, 36, 66
5, 96564, Note_off_c, 3, 48, 64
5, 96564, Note_off_c, 3, 36, 64
5, 96576, Note_on_c, 3, 50, 66
5, 96576, Note_on_c, 3, 38, 66
5, 96756, Note_off_c, 3, 50, 64
5, 96756, Note_off_c, 3, 38, 64
5, 96768, Note_on_c, 3, 52, 66
5, 96768, Note_on_c, 3, 40, 66
5, 97512, Note_off_c, 3, 52, 64
5, 97512, Note_off_c, 3, 40, 64
5, 97536, Note_on_c, 3, 52, 66
5, 97536, Note_on_c, 3, 40, 66
5, 97716, Note_off_c, 3, 52, 64
5, 97716, Note_off_c, 3, 40, 64
5, 97728, Note_on_c, 3, 50, 66
5, 97728, Note_on_c, 3, 38, 66
5, 97908, Note_off_c, 3, 50, 64
5, 97908, Note_off_c, 3, 38, 64
5, 97920, Note_on_c, 3, 48, 66
5, 97920, Note_on_c, 3, 36, 66
5, 98280, Note_off_c, 3, 48, 64
5, 98280, Note_off_c, 3, 36, 64
5, 100224, Note_on_c, 3, 55, 66
5, 100224, Note_on_c, 3, 49, 66
5, 100584, Note_off_c, 3, 55, 64
5, 100608, Note_on_c, 3, 57, 66
5, 100968, Note_off_c, 3, 57, 64
5, 100992, Note_on_c, 3, 58, 66
5, 101352, Note_off_c, 3, 49, 64
5, 101352, Note_off_c, 3, 58, 64
5, 101376, Note_on_c, 3, 57, 66
5, 101376, Note_on_c, 3, 50, 66
5, 101736, Note_off_c, 3, 57, 64
5, 101736, Note_off_c, 3, 50, 64
5, 101952, Note_on_c, 3, 60, 66
5, 101952, Note_on_c, 3, 64, 66
5, 102132, Note_off_c, 3, 60, 64
5, 102132, Note_off_c, 3, 64, 64
5, 102144, Note_on_c, 3, 59, 66
5, 102144, Note_on_c, 3, 62, 66
5, 102324, Note_off_c, 3, 59, 64
5, 102324, Note_off_c, 3, 62, 64
5, 102336, Note_on_c, 3, 57, 66
5, 102336, Note_on_c, 3, 60, 66
5, 102516, Note_off_c, 3, 57, 64
5, 102516, Note_off_c, 3, 60, 64
5, 102528, Note_on_c, 3, 55, 66
5, 102528, Note_on_c, 3, 59, 66
5, 102612, Note_off_c, 3, 59, 64
5, 102624, Note_on_c, 3, 62, 66
5, 102708, Note_off_c, 3, 62, 64
5, 102720, Note_on_c, 3, 59, 66
5, 102804, Note_off_c, 3, 59, 64
5, 102816, Note_on_c, 3, 62, 66
5, 102888, Note_off_c, 3, 55, 64
5, 102908, Note_off_c, 3, 62, 64
5, 102912, Note_on_c, 3, 59, 66
5, 102996, Note_off_c, 3, 59, 64
5, 103008, Note_on_c, 3, 62, 66
5, 103092, Note_off_c, 3, 62, 64
5, 103104, Note_on_c, 3, 55, 66
5, 103104, Note_on_c, 3, 59, 66
5, 103188, Note_off_c, 3, 59, 64
5, 103200, Note_on_c, 3, 62, 66
5, 103284, Note_off_c, 3, 55, 64
5, 103284, Note_off_c, 3, 62, 64
5, 103296, Note_on_c, 3, 57, 93
5, 103296, Note_on_c, 3, 60, 93
5, 103380, Note_off_c, 3, 60, 64
5, 103392, Note_on_c, 3, 62, 93
5, 103476, Note_off_c, 3, 57, 64
5, 103476, Note_off_c, 3, 62, 64
5, 103488, Note_on_c, 3, 50, 93
5, 103488, Note_on_c, 3, 60, 93
5, 103572, Note_off_c, 3, 60, 64
5, 103584, Note_on_c, 3, 62, 93
5, 103668, Note_off_c, 3, 50, 64
5, 103668, Note_off_c, 3, 62, 64
5, 103680, Note_on_c, 3, 59, 66
5, 103680, Note_on_c, 3, 55, 66
5, 103764, Note_off_c, 3, 59, 64
5, 103776, Note_on_c, 3, 62, 66
5, 103860, Note_off_c, 3, 62, 64
5, 103872, Note_on_c, 3, 59, 66
5, 103956, Note_off_c, 3, 59, 64
5, 103968, Note_on_c, 3, 62, 66
5, 104040, Note_off_c, 3, 55, 64
5, 104052, Note_off_c, 3, 62, 64
5, 104064, Note_on_c, 3, 59, 66
5, 104148, Note_off_c, 3, 59, 64
5, 104160, Note_on_c, 3, 62, 66
5, 104244, Note_off_c, 3, 62, 64
5, 104256, Note_on_c, 3, 59, 66
5, 104256, Note_on_c, 3, 55, 66
5, 104340, Note_off_c, 3, 59, 64
5, 104352, Note_on_c, 3, 62, 66
5, 104436, Note_off_c, 3, 55, 64
5, 104436, Note_off_c, 3, 62, 64
5, 104448, Note_on_c, 3, 60, 93
5, 104448, Note_on_c, 3, 57, 93
5, 104532, Note_off_c, 3, 60, 64
5, 104544, Note_on_c, 3, 62, 93
5, 104624, Note_on_c, 3, 50, 93
5, 104628, Note_off_c, 3, 57, 64
5, 104628, Note_off_c, 3, 62, 64
5, 104640, Note_on_c, 3, 60, 93
5, 104724, Note_off_c, 3, 60, 64
5, 104736, Note_on_c, 3, 62, 93
5, 104804, Note_off_c, 3, 50, 64
5, 104820, Note_off_c, 3, 62, 64
5, 104832, Note_on_c, 3, 59, 66
5, 104832, Note_on_c, 3, 55, 66
5, 105192, Note_off_c, 3, 59, 64
5, 105192, Note_off_c, 3, 55, 64
5, 109440, Note_on_c, 3, 60, 66
5, 109440, Note_on_c, 3, 57, 66
5, 109440, Note_on_c, 3, 54, 66
5, 109800, Note_off_c, 3, 60, 64
5, 109800, Note_off_c, 3, 57, 64
5, 109800, Note_off_c, 3, 54, 64
5, 110592, Note_on_c, 3, 55, 66
5, 110952, Note_off_c, 3, 55, 64
5, 111360, Note_on_c, 3, 59, 66
5, 111360, Note_on_c, 3, 47, 66
5, 111720, Note_off_c, 3, 59, 64
5, 111720, Note_off_c, 3, 47, 64
5, 111744, Note_on_c, 3, 48, 66
5, 112104, Note_off_c, 3, 48, 64
5, 112128, Note_on_c, 3, 50, 66
5, 112128, Note_on_c, 3, 50, 66
5, 112488, Note_off_c, 3, 50, 64
5, 112512, Note_on_c, 3, 38, 66
5, 112872, Note_off_c, 3, 50, 64
5, 112872, Note_off_c, 3, 38, 64
5, 112896, Note_on_c, 3, 52, 66
5, 112896, Note_on_c, 3, 40, 66
5, 113256, Note_off_c, 3, 52, 64
5, 113256, Note_off_c, 3, 40, 64
5, 113472, Note_on_c, 3, 52, 66
5, 113472, Note_on_c, 3, 40, 66
5, 113652, Note_off_c, 3, 52, 64
5, 113652, Note_off_c, 3, 40, 64
5, 113664, Note_on_c, 3, 52, 66
5, 113664, Note_on_c, 3, 40, 66
5, 113844, Note_off_c, 3, 52, 64
5, 113844, Note_off_c, 3, 40, 64
5, 113856, Note_on_c, 3, 52, 66
5, 113856, Note_on_c, 3, 40, 66
5, 114036, Note_off_c, 3, 52, 64
5, 114036, Note_off_c, 3, 40, 64
5, 114048, Note_on_c, 3, 54, 66
5, 114048, Note_on_c, 3, 42, 66
5, 114408, Note_off_c, 3, 54, 64
5, 114408, Note_off_c, 3, 42, 64
5, 116352, Note_on_c, 3, 59, 66
5, 116352, Note_on_c, 3, 50, 66
5, 116532, Note_off_c, 3, 59, 64
5, 116532, Note_off_c, 3, 50, 64
5, 116736, Note_on_c, 3, 59, 66
5, 116736, Note_on_c, 3, 50, 66
5, 116916, Note_off_c, 3, 59, 64
5, 116916, Note_off_c, 3, 50, 64
5, 117120, Note_on_c, 3, 57, 66
5, 117120, Note_on_c, 3, 50, 66
5, 117300, Note_off_c, 3, 57, 64
5, 117300, Note_off_c, 3, 50, 64
5, 117504, Note_on_c, 3, 59, 93
5, 117504, Note_on_c, 3, 47, 93
5, 117684, Note_off_c, 3, 59, 64
5, 117684, Note_off_c, 3, 47, 64
5, 117696, Note_on_c, 3, 59, 66
5, 117876, Note_off_c, 3, 59, 64
5, 117888, Note_on_c, 3, 59, 66
5, 117888, Note_on_c, 3, 47, 66
5, 118068, Note_off_c, 3, 59, 64
5, 118068, Note_off_c, 3, 47, 64
5, 118272, Note_on_c, 3, 59, 66
5, 118272, Note_on_c, 3, 47, 66
5, 118452, Note_off_c, 3, 59, 64
5, 118452, Note_off_c, 3, 47, 64
5, 118656, Note_on_c, 3, 60, 93
5, 118656, Note_on_c, 3, 48, 93
5, 118836, Note_off_c, 3, 60, 64
5, 118836, Note_off_c, 3, 48, 64
5, 118848, Note_on_c, 3, 60, 66
5, 119028, Note_off_c, 3, 60, 64
5, 119040, Note_on_c, 3, 60, 66
5, 119040, Note_on_c, 3, 48, 66
5, 119220, Note_off_c, 3, 60, 64
5, 119220, Note_off_c, 3, 48, 64
5, 119424, Note_on_c, 3, 60, 66
5, 119424, Note_on_c, 3, 48, 66
5, 119604, Note_off_c, 3, 60, 64
5, 119604, Note_off_c, 3, 48, 64
5, 119808, Note_on_c, 3, 50, 66
5, 119988, Note_off_c, 3, 50, 64
5, 120192, Note_on_c, 3, 50, 66
5, 120372, Note_off_c, 3, 50, 64
5, 120576, Note_on_c, 3, 50, 66
5, 120756, Note_off_c, 3, 50, 64
5, 120960, Note_on_c, 3, 50, 66
5, 120960, Note_on_c, 3, 38, 66
5, 121140, Note_off_c, 3, 50, 64
5, 121140, Note_off_c, 3, 38, 64
5, 121152, Note_on_c, 3, 50, 66
5, 121152, Note_on_c, 3, 38, 66
5, 121332, Note_off_c, 3, 50, 64
5, 121332, Note_off_c, 3, 38, 64
5, 121344, Note_on_c, 3, 50, 66
5, 121344, Note_on_c, 3, 38, 66
5, 121524, Note_off_c, 3, 50, 64
5, 121524, Note_off_c, 3, 38, 64
5, 121536, Note_on_c, 3, 50, 66
5, 121536, Note_on_c, 3, 38, 66
5, 121716, Note_off_c, 3, 50, 64
5, 121716, Note_off_c, 3, 38, 64
5, 121728, Note_on_c, 3, 50, 66
5, 121728, Note_on_c, 3, 38, 66
5, 121908, Note_off_c, 3, 50, 64
5, 121908, Note_off_c, 3, 38, 64
5, 121920, Note_on_c, 3, 50, 66
5, 121920, Note_on_c, 3, 38, 66
5, 122100, Note_off_c, 3, 50, 64
5, 122100, Note_off_c, 3, 38, 64
5, 122112, Note_on_c, 3, 55, 93
5, 122112, Note_on_c, 3, 43, 93
5, 122292, Note_off_c, 3, 55, 64
5, 122292, Note_off_c, 3, 43, 64
5, 122304, Note_on_c, 3, 55, 93
5, 122304, Note_on_c, 3, 43, 93
5, 122484, Note_off_c, 3, 55, 64
5, 122484, Note_off_c, 3, 43, 64
5, 122496, Note_on_c, 3, 59, 93
5, 122496, Note_on_c, 3, 47, 93
5, 122676, Note_off_c, 3, 59, 64
5, 122676, Note_off_c, 3, 47, 64
5, 122688, Note_on_c, 3, 55, 93
5, 122688, Note_on_c, 3, 43, 93
5, 122868, Note_off_c, 3, 55, 64
5, 122868, Note_off_c, 3, 43, 64
5, 122880, Note_on_c, 3, 62, 93
5, 122880, Note_on_c, 3, 50, 93
5, 123240, Note_off_c, 3, 62, 64
5, 123240, Note_off_c, 3, 50, 64
5, 123456, Note_on_c, 3, 55, 93
5, 123456, Note_on_c, 3, 43, 93
5, 123636, Note_off_c, 3, 55, 64
5, 123636, Note_off_c, 3, 43, 64
5, 123648, Note_on_c, 3, 59, 93
5, 123648, Note_on_c, 3, 47, 93
5, 123828, Note_off_c, 3, 59, 64
5, 123828, Note_off_c, 3, 47, 64
5, 123840, Note_on_c, 3, 55, 93
5, 123840, Note_on_c, 3, 43, 93
5, 124020, Note_off_c, 3, 55, 64
5, 124020, Note_off_c, 3, 43, 64
5, 124032, Note_on_c, 3, 50, 93
5, 124032, Note_on_c, 3, 38, 93
5, 124392, Note_off_c, 3, 50, 64
5, 124392, Note_off_c, 3, 38, 64
5, 124416, Note_on_c, 3, 55, 93
5, 124416, Note_on_c, 3, 43, 93
5, 124596, Note_off_c, 3, 55, 64
5, 124596, Note_off_c, 3, 43, 64
5, 124608, Note_on_c, 3, 52, 93
5, 124608, Note_on_c, 3, 64, 93
5, 124788, Note_off_c, 3, 52, 64
5, 124788, Note_off_c, 3, 64, 64
5, 124800, Note_on_c, 3, 62, 93
5, 124800, Note_on_c, 3, 50, 93
5, 124980, Note_off_c, 3, 62, 64
5, 124980, Note_off_c, 3, 50, 64
5, 124992, Note_on_c, 3, 64, 93
5, 124992, Note_on_c, 3, 52, 93
5, 125172, Note_off_c, 3, 64, 64
5, 125172, Note_off_c, 3, 52, 64
5, 125184, Note_on_c, 3, 62, 93
5, 125184, Note_on_c, 3, 50, 93
5, 125364, Note_off_c, 3, 62, 64
5, 125364, Note_off_c, 3, 50, 64
5, 125376, Note_on_c, 3, 61, 93
5, 125376, Note_on_c, 3, 49, 93
5, 125556, Note_off_c, 3, 61, 64
5, 125556, Note_off_c, 3, 49, 64
5, 125568, Note_on_c, 3, 62, 93
5, 125568, Note_on_c, 3, 50, 93
5, 125748, Note_off_c, 3, 62, 64
5, 125748, Note_off_c, 3, 50, 64
5, 125760, Note_on_c, 3, 64, 93
5, 125760, Note_on_c, 3, 52, 93
5, 125940, Note_off_c, 3, 64, 64
5, 125940, Note_off_c, 3, 52, 64
5, 125952, Note_on_c, 3, 62, 93
5, 125952, Note_on_c, 3, 50, 93
5, 126132, Note_off_c, 3, 62, 64
5, 126132, Note_off_c, 3, 50, 64
5, 126144, Note_on_c, 3, 64, 93
5, 126144, Note_on_c, 3, 52, 93
5, 126324, Note_off_c, 3, 64, 64
5, 126324, Note_off_c, 3, 52, 64
5, 126336, Note_on_c, 3, 62, 93
5, 126336, Note_on_c, 3, 50, 93
5, 126516, Note_off_c, 3, 62, 64
5, 126516, Note_off_c, 3, 50, 64
5, 126528, Note_on_c, 3, 61, 93
5, 126528, Note_on_c, 3, 49, 93
5, 126708, Note_off_c, 3, 61, 64
5, 126708, Note_off_c, 3, 49, 64
5, 126720, Note_on_c, 3, 62, 93
5, 126720, Note_on_c, 3, 50, 93
5, 127484, Note_off_c, 3, 62, 64
5, 127484, Note_off_c, 3, 50, 64
5, 142848, Note_on_c, 3, 60, 66
5, 142848, Note_on_c, 3, 48, 66
5, 143208, Note_off_c, 3, 60, 64
5, 143208, Note_off_c, 3, 48, 64
5, 143232, Note_on_c, 3, 59, 66
5, 143232, Note_on_c, 3, 50, 66
5, 143592, Note_off_c, 3, 59, 64
5, 143616, Note_on_c, 3, 57, 66
5, 143976, Note_off_c, 3, 50, 64
5, 143976, Note_off_c, 3, 57, 64
5, 144000, Note_on_c, 3, 59, 93
5, 144000, Note_on_c, 3, 55, 93
5, 144180, Note_off_c, 3, 59, 64
5, 144180, Note_off_c, 3, 55, 64
5, 144192, Note_on_c, 3, 52, 93
5, 144192, Note_on_c, 3, 40, 93
5, 144372, Note_off_c, 3, 52, 64
5, 144372, Note_off_c, 3, 40, 64
5, 144384, Note_on_c, 3, 50, 93
5, 144384, Note_on_c, 3, 38, 93
5, 144564, Note_off_c, 3, 50, 64
5, 144564, Note_off_c, 3, 38, 64
5, 145344, Note_on_c, 3, 64, 93
5, 145344, Note_on_c, 3, 52, 93
5, 145524, Note_off_c, 3, 64, 64
5, 145524, Note_off_c, 3, 52, 64
5, 145536, Note_on_c, 3, 62, 93
5, 145536, Note_on_c, 3, 50, 93
5, 145716, Note_off_c, 3, 62, 64
5, 145716, Note_off_c, 3, 50, 64
5, 146496, Note_on_c, 3, 55, 93
5, 146496, Note_on_c, 3, 43, 93
5, 146676, Note_off_c, 3, 55, 64
5, 146676, Note_off_c, 3, 43, 64
5, 146688, Note_on_c, 3, 50, 93
5, 146868, Note_off_c, 3, 50, 64
5, 146880, Note_on_c, 3, 50, 93
5, 147060, Note_off_c, 3, 50, 64
5, 147072, Note_on_c, 3, 50, 93
5, 147072, Note_on_c, 3, 38, 93
5, 147252, Note_off_c, 3, 50, 64
5, 147252, Note_off_c, 3, 38, 64
5, 147264, Note_on_c, 3, 50, 93
5, 147264, Note_on_c, 3, 38, 93
5, 147444, Note_off_c, 3, 50, 64
5, 147444, Note_off_c, 3, 38, 64
5, 147456, Note_on_c, 3, 55, 93
5, 147456, Note_on_c, 3, 43, 93
5, 147816, Note_off_c, 3, 55, 64
5, 147816, Note_off_c, 3, 43, 64
5, 148608, Note_on_c, 3, 43, 66
5, 148608, Note_on_c, 3, 31, 66
5, 148968, Note_off_c, 3, 43, 64
5, 148968, Note_off_c, 3, 31, 64
5, 148992, Note_on_c, 3, 43, 66
5, 148992, Note_on_c, 3, 31, 66
5, 149352, Note_off_c, 3, 43, 64
5, 149352, Note_off_c, 3, 31, 64
5, 149376, Note_on_c, 3, 43, 66
5, 149376, Note_on_c, 3, 31, 66
5, 149736, Note_off_c, 3, 43, 64
5, 149736, Note_off_c, 3, 31, 64
5, 149760, Note_on_c, 3, 43, 66
5, 149760, Note_on_c, 3, 31, 66
5, 150504, Note_off_c, 3, 43, 64
5, 150504, Note_off_c, 3, 31, 64
5, 150504, End_track
0, 0, End_of_file
