0, 0, Header, 1, 17, 384
1, 0, Start_track
1, 0, Time_signature, 4, 2, 96, 8
1, 0, Sequencer_specific, 3, 0, 0, 65
1, 0, Tempo, 434782
1, 304128, Tempo, 1000000
1, 307200, Tempo, 857142
1, 309888, Tempo, 434782
1, 309888, End_track
2, 0, Start_track
2, 0, Title_t, "Mozart"
2, 0, Control_c, 0, 0, 0
2, 0, Program_c, 0, 0
2, 0, Control_c, 0, 10, 82
2, 0, Control_c, 0, 91, 68
2, 0, Control_c, 0, 93, 67
2, 0, Key_signature, -2, "minor"
2, 0, Control_c, 0, 121, 0
2, 96, Control_c, 0, 10, 73
2, 192, Control_c, 0, 91, 73
2, 240, Control_c, 0, 93, 50
2, 288, Program_c, 0, 0
2, 1536, Note_on_c, 0, 77, 60
2, 1920, Note_off_c, 0, 77, 100
2, 2112, Note_on_c, 0, 74, 60
2, 2240, Note_off_c, 0, 74, 100
2, 2304, Note_on_c, 0, 70, 60
2, 2560, Note_off_c, 0, 70, 100
2, 2688, Note_on_c, 0, 70, 60
2, 2944, Note_off_c, 0, 70, 100
2, 3072, Note_on_c, 0, 75, 60
2, 3328, Note_off_c, 0, 75, 100
2, 3456, Note_on_c, 0, 79, 60
2, 3712, Note_off_c, 0, 79, 100
2, 3840, Note_on_c, 0, 69, 60
2, 4096, Note_off_c, 0, 69, 100
2, 4416, Note_on_c, 0, 69, 60
2, 4544, Note_off_c, 0, 69, 100
2, 4608, Note_on_c, 0, 72, 60
2, 4736, Note_off_c, 0, 72, 100
2, 4800, Note_on_c, 0, 70, 60
2, 4928, Note_off_c, 0, 70, 100
2, 4992, Note_on_c, 0, 74, 60
2, 5120, Note_off_c, 0, 74, 100
2, 5184, Note_on_c, 0, 72, 60
2, 5312, Note_off_c, 0, 72, 100
2, 5376, Note_on_c, 0, 75, 60
2, 5504, Note_off_c, 0, 75, 100
2, 5568, Note_on_c, 0, 74, 60
2, 5696, Note_off_c, 0, 74, 100
2, 5760, Note_on_c, 0, 77, 60
2, 5888, Note_off_c, 0, 77, 100
2, 5952, Note_on_c, 0, 75, 60
2, 6080, Note_off_c, 0, 75, 100
2, 6144, Note_on_c, 0, 74, 60
2, 6528, Note_off_c, 0, 74, 100
2, 6720, Note_on_c, 0, 75, 60
2, 6784, Note_off_c, 0, 75, 100
2, 6816, Note_on_c, 0, 74, 60
2, 6880, Note_off_c, 0, 74, 100
2, 6912, Note_on_c, 0, 72, 60
2, 7040, Note_off_c, 0, 72, 100
2, 7104, Note_on_c, 0, 74, 60
2, 7232, Note_off_c, 0, 74, 100
2, 7296, Note_on_c, 0, 75, 60
2, 7424, Note_off_c, 0, 75, 100
2, 7488, Note_on_c, 0, 76, 60
2, 7616, Note_off_c, 0, 76, 100
2, 7680, Note_on_c, 0, 77, 60
2, 7872, Note_off_c, 0, 77, 100
2, 8160, Note_on_c, 0, 75, 60
2, 8224, Note_off_c, 0, 75, 100
2, 8256, Note_on_c, 0, 74, 60
2, 8320, Note_off_c, 0, 74, 100
2, 8352, Note_on_c, 0, 72, 60
2, 8416, Note_off_c, 0, 72, 100
2, 8448, Note_on_c, 0, 70, 60
2, 8704, Note_off_c, 0, 70, 100
2, 8832, Note_on_c, 0, 70, 60
2, 9088, Note_off_c, 0, 70, 100
2, 9216, Note_on_c, 0, 75, 60
2, 9472, Note_off_c, 0, 75, 100
2, 9600, Note_on_c, 0, 79, 60
2, 9856, Note_off_c, 0, 79, 100
2, 9984, Note_on_c, 0, 69, 60
2, 10240, Note_off_c, 0, 69, 100
2, 10560, Note_on_c, 0, 69, 60
2, 10688, Note_off_c, 0, 69, 100
2, 10752, Note_on_c, 0, 70, 60
2, 10880, Note_off_c, 0, 70, 100
2, 10944, Note_on_c, 0, 74, 60
2, 11072, Note_off_c, 0, 74, 100
2, 11136, Note_on_c, 0, 67, 60
2, 11264, Note_off_c, 0, 67, 100
2, 11328, Note_on_c, 0, 72, 60
2, 11456, Note_off_c, 0, 72, 100
2, 11520, Note_on_c, 0, 70, 60
2, 11776, Note_off_c, 0, 70, 100
2, 11904, Note_on_c, 0, 69, 60
2, 12160, Note_off_c, 0, 69, 100
2, 12288, Note_on_c, 0, 70, 60
2, 12416, Note_off_c, 0, 70, 100
2, 12480, Note_on_c, 0, 65, 60
2, 12608, Note_off_c, 0, 65, 100
2, 12672, Note_on_c, 0, 67, 60
2, 12800, Note_off_c, 0, 67, 100
2, 12864, Note_on_c, 0, 69, 60
2, 12992, Note_off_c, 0, 69, 100
2, 13056, Note_on_c, 0, 70, 60
2, 13184, Note_off_c, 0, 70, 100
2, 13248, Note_on_c, 0, 72, 60
2, 13376, Note_off_c, 0, 72, 100
2, 13440, Note_on_c, 0, 74, 60
2, 13568, Note_off_c, 0, 74, 100
2, 13632, Note_on_c, 0, 75, 60
2, 13760, Note_off_c, 0, 75, 100
2, 13824, Note_on_c, 0, 77, 90
2, 14208, Note_off_c, 0, 77, 100
2, 14400, Note_on_c, 0, 74, 90
2, 14528, Note_off_c, 0, 74, 100
2, 14592, Note_on_c, 0, 70, 90
2, 14848, Note_off_c, 0, 70, 100
2, 14976, Note_on_c, 0, 70, 90
2, 15232, Note_off_c, 0, 70, 100
2, 15360, Note_on_c, 0, 75, 90
2, 15504, Note_on_c, 0, 77, 90
2, 15536, Note_off_c, 0, 77, 100
2, 15552, Note_on_c, 0, 75, 90
2, 15584, Note_off_c, 0, 75, 100
2, 15600, Note_on_c, 0, 74, 90
2, 15616, Note_off_c, 0, 75, 100
2, 15632, Note_off_c, 0, 74, 100
2, 15648, Note_on_c, 0, 75, 90
2, 15680, Note_off_c, 0, 75, 100
2, 15744, Note_on_c, 0, 79, 90
2, 16000, Note_off_c, 0, 79, 100
2, 16128, Note_on_c, 0, 69, 90
2, 16384, Note_off_c, 0, 69, 100
2, 16704, Note_on_c, 0, 69, 90
2, 16832, Note_off_c, 0, 69, 100
2, 16896, Note_on_c, 0, 72, 90
2, 17024, Note_off_c, 0, 72, 100
2, 17088, Note_on_c, 0, 70, 90
2, 17216, Note_off_c, 0, 70, 100
2, 17280, Note_on_c, 0, 74, 90
2, 17408, Note_off_c, 0, 74, 100
2, 17472, Note_on_c, 0, 72, 90
2, 17600, Note_off_c, 0, 72, 100
2, 17664, Note_on_c, 0, 75, 90
2, 17792, Note_off_c, 0, 75, 100
2, 17856, Note_on_c, 0, 74, 90
2, 17984, Note_off_c, 0, 74, 100
2, 18048, Note_on_c, 0, 77, 90
2, 18176, Note_off_c, 0, 77, 100
2, 18240, Note_on_c, 0, 75, 90
2, 18368, Note_off_c, 0, 75, 100
2, 18432, Note_on_c, 0, 74, 90
2, 18816, Note_off_c, 0, 74, 100
2, 19008, Note_on_c, 0, 75, 90
2, 19072, Note_off_c, 0, 75, 100
2, 19104, Note_on_c, 0, 74, 90
2, 19168, Note_off_c, 0, 74, 100
2, 19200, Note_on_c, 0, 72, 90
2, 19328, Note_off_c, 0, 72, 100
2, 19392, Note_on_c, 0, 74, 90
2, 19520, Note_off_c, 0, 74, 100
2, 19584, Note_on_c, 0, 75, 90
2, 19712, Note_off_c, 0, 75, 100
2, 19776, Note_on_c, 0, 76, 90
2, 19904, Note_off_c, 0, 76, 100
2, 19968, Note_on_c, 0, 77, 90
2, 20352, Note_off_c, 0, 77, 100
2, 20448, Note_on_c, 0, 75, 90
2, 20512, Note_off_c, 0, 75, 100
2, 20544, Note_on_c, 0, 74, 90
2, 20608, Note_off_c, 0, 74, 100
2, 20640, Note_on_c, 0, 72, 90
2, 20704, Note_off_c, 0, 72, 100
2, 20736, Note_on_c, 0, 70, 90
2, 20864, Note_off_c, 0, 70, 100
2, 20928, Note_on_c, 0, 70, 90
2, 21056, Note_off_c, 0, 70, 100
2, 21120, Note_on_c, 0, 70, 90
2, 21248, Note_off_c, 0, 70, 100
2, 21312, Note_on_c, 0, 70, 90
2, 21440, Note_off_c, 0, 70, 100
2, 21504, Note_on_c, 0, 75, 90
2, 21696, Note_on_c, 0, 77, 90
2, 21728, Note_off_c, 0, 77, 100
2, 21744, Note_on_c, 0, 75, 90
2, 21760, Note_off_c, 0, 75, 100
2, 21776, Note_off_c, 0, 75, 100
2, 21792, Note_on_c, 0, 74, 90
2, 21824, Note_off_c, 0, 74, 100
2, 21824, Note_on_c, 0, 75, 90
2, 21856, Note_off_c, 0, 75, 100
2, 21888, Note_on_c, 0, 79, 90
2, 22144, Note_off_c, 0, 79, 100
2, 22272, Note_on_c, 0, 69, 90
2, 22528, Note_off_c, 0, 69, 100
2, 22848, Note_on_c, 0, 81, 90
2, 22976, Note_off_c, 0, 81, 100
2, 23040, Note_on_c, 0, 82, 90
2, 23136, Note_off_c, 0, 82, 100
2, 23168, Note_on_c, 0, 77, 90
2, 23264, Note_off_c, 0, 77, 100
2, 23296, Note_on_c, 0, 74, 90
2, 23392, Note_off_c, 0, 74, 100
2, 23424, Note_on_c, 0, 79, 90
2, 23520, Note_off_c, 0, 79, 100
2, 23552, Note_on_c, 0, 75, 90
2, 23648, Note_off_c, 0, 75, 100
2, 23680, Note_on_c, 0, 72, 90
2, 23776, Note_off_c, 0, 72, 100
2, 23808, Note_on_c, 0, 77, 90
2, 23904, Note_off_c, 0, 77, 100
2, 23936, Note_on_c, 0, 74, 90
2, 24032, Note_off_c, 0, 74, 100
2, 24064, Note_on_c, 0, 70, 90
2, 24160, Note_off_c, 0, 70, 100
2, 24192, Note_on_c, 0, 75, 90
2, 24288, Note_off_c, 0, 75, 100
2, 24320, Note_on_c, 0, 72, 90
2, 24416, Note_off_c, 0, 72, 100
2, 24448, Note_on_c, 0, 69, 90
2, 24544, Note_off_c, 0, 69, 100
2, 25152, Note_on_c, 0, 65, 90
2, 25280, Note_off_c, 0, 65, 100
2, 25344, Note_on_c, 0, 70, 60
2, 25472, Note_off_c, 0, 70, 100
2, 25536, Note_on_c, 0, 69, 60
2, 25664, Note_off_c, 0, 69, 100
2, 25728, Note_on_c, 0, 70, 60
2, 25856, Note_off_c, 0, 70, 100
2, 25920, Note_on_c, 0, 72, 60
2, 26048, Note_off_c, 0, 72, 100
2, 26112, Note_on_c, 0, 74, 60
2, 26368, Note_off_c, 0, 74, 100
2, 26496, Note_on_c, 0, 74, 60
2, 26496, Note_on_c, 0, 70, 60
2, 26752, Note_off_c, 0, 74, 100
2, 26752, Note_off_c, 0, 70, 100
2, 26880, Note_on_c, 0, 70, 60
2, 26880, Note_on_c, 0, 74, 60
2, 27136, Note_off_c, 0, 70, 100
2, 27136, Note_off_c, 0, 74, 100
2, 27264, Note_on_c, 0, 75, 60
2, 27264, Note_on_c, 0, 72, 60
2, 27520, Note_off_c, 0, 75, 100
2, 27520, Note_off_c, 0, 72, 100
2, 27648, Note_on_c, 0, 72, 60
2, 27648, Note_on_c, 0, 69, 60
2, 27904, Note_off_c, 0, 72, 100
2, 27904, Note_off_c, 0, 69, 100
2, 28224, Note_on_c, 0, 65, 60
2, 28352, Note_off_c, 0, 65, 100
2, 28416, Note_on_c, 0, 72, 60
2, 28544, Note_off_c, 0, 72, 100
2, 28608, Note_on_c, 0, 70, 60
2, 28736, Note_off_c, 0, 70, 100
2, 28800, Note_on_c, 0, 72, 60
2, 28928, Note_off_c, 0, 72, 100
2, 28992, Note_on_c, 0, 74, 60
2, 29120, Note_off_c, 0, 74, 100
2, 29184, Note_on_c, 0, 75, 60
2, 29440, Note_off_c, 0, 75, 100
2, 29568, Note_on_c, 0, 75, 60
2, 29568, Note_on_c, 0, 67, 60
2, 29824, Note_off_c, 0, 75, 100
2, 29824, Note_off_c, 0, 67, 100
2, 29952, Note_on_c, 0, 75, 60
2, 29952, Note_on_c, 0, 72, 60
2, 30208, Note_off_c, 0, 75, 100
2, 30208, Note_off_c, 0, 72, 100
2, 30336, Note_on_c, 0, 77, 60
2, 30336, Note_on_c, 0, 69, 60
2, 30592, Note_off_c, 0, 77, 100
2, 30592, Note_off_c, 0, 69, 100
2, 30720, Note_on_c, 0, 74, 60
2, 30720, Note_on_c, 0, 70, 60
2, 30976, Note_off_c, 0, 74, 100
2, 30976, Note_off_c, 0, 70, 100
2, 31296, Note_on_c, 0, 70, 90
2, 31424, Note_off_c, 0, 70, 100
2, 31488, Note_on_c, 0, 74, 90
2, 31616, Note_off_c, 0, 74, 100
2, 31680, Note_on_c, 0, 72, 90
2, 31808, Note_off_c, 0, 72, 100
2, 31872, Note_on_c, 0, 74, 90
2, 32000, Note_off_c, 0, 74, 100
2, 32064, Note_on_c, 0, 76, 90
2, 32192, Note_off_c, 0, 76, 100
2, 32256, Note_on_c, 0, 77, 90
2, 32512, Note_off_c, 0, 77, 100
2, 32776, Note_on_c, 0, 77, 90
2, 32872, Note_off_c, 0, 77, 100
2, 32896, Note_on_c, 0, 79, 90
2, 32992, Note_off_c, 0, 79, 100
2, 33024, Note_on_c, 0, 81, 90
2, 33120, Note_off_c, 0, 81, 100
2, 33152, Note_on_c, 0, 79, 90
2, 33248, Note_off_c, 0, 79, 100
2, 33280, Note_on_c, 0, 77, 90
2, 33376, Note_off_c, 0, 77, 100
2, 33408, Note_on_c, 0, 76, 90
2, 33504, Note_off_c, 0, 76, 100
2, 33536, Note_on_c, 0, 74, 90
2, 33632, Note_off_c, 0, 74, 100
2, 33664, Note_on_c, 0, 72, 90
2, 33760, Note_off_c, 0, 72, 100
2, 33792, Note_on_c, 0, 70, 90
2, 34048, Note_off_c, 0, 70, 100
2, 34304, Note_on_c, 0, 76, 90
2, 34400, Note_off_c, 0, 76, 100
2, 34432, Note_on_c, 0, 77, 90
2, 34528, Note_off_c, 0, 77, 100
2, 34560, Note_on_c, 0, 79, 90
2, 34656, Note_off_c, 0, 79, 100
2, 34688, Note_on_c, 0, 77, 90
2, 34784, Note_off_c, 0, 77, 100
2, 34816, Note_on_c, 0, 75, 90
2, 34912, Note_off_c, 0, 75, 100
2, 34944, Note_on_c, 0, 74, 90
2, 35040, Note_off_c, 0, 74, 100
2, 35072, Note_on_c, 0, 72, 90
2, 35168, Note_off_c, 0, 72, 100
2, 35200, Note_on_c, 0, 70, 90
2, 35296, Note_off_c, 0, 70, 100
2, 35328, Note_on_c, 0, 69, 90
2, 35392, Note_off_c, 0, 69, 100
2, 35424, Note_on_c, 0, 72, 90
2, 35488, Note_off_c, 0, 72, 100
2, 35520, Note_on_c, 0, 70, 90
2, 35584, Note_off_c, 0, 70, 100
2, 35616, Note_on_c, 0, 69, 90
2, 35680, Note_off_c, 0, 69, 100
2, 35712, Note_on_c, 0, 70, 90
2, 35776, Note_off_c, 0, 70, 100
2, 35808, Note_on_c, 0, 72, 90
2, 35872, Note_off_c, 0, 72, 100
2, 35904, Note_on_c, 0, 74, 90
2, 35968, Note_off_c, 0, 74, 100
2, 36000, Note_on_c, 0, 76, 90
2, 36064, Note_off_c, 0, 76, 100
2, 36096, Note_on_c, 0, 77, 90
2, 36160, Note_off_c, 0, 77, 100
2, 36192, Note_on_c, 0, 79, 90
2, 36256, Note_off_c, 0, 79, 100
2, 36288, Note_on_c, 0, 81, 90
2, 36352, Note_off_c, 0, 81, 100
2, 36384, Note_on_c, 0, 82, 90
2, 36448, Note_off_c, 0, 82, 100
2, 36480, Note_on_c, 0, 84, 90
2, 36608, Note_off_c, 0, 84, 100
2, 36672, Note_on_c, 0, 65, 90
2, 36672, Note_on_c, 0, 69, 90
2, 36800, Note_off_c, 0, 65, 100
2, 36800, Note_off_c, 0, 69, 100
2, 36864, Note_on_c, 0, 65, 90
2, 36864, Note_on_c, 0, 69, 90
2, 37120, Note_off_c, 0, 65, 100
2, 37120, Note_off_c, 0, 69, 100
2, 37248, Note_on_c, 0, 64, 90
2, 37248, Note_on_c, 0, 67, 90
2, 37504, Note_off_c, 0, 64, 100
2, 37504, Note_off_c, 0, 67, 100
2, 37632, Note_on_c, 0, 79, 60
2, 38016, Note_off_c, 0, 79, 100
2, 38208, Note_on_c, 0, 76, 60
2, 38272, Note_off_c, 0, 76, 100
2, 38304, Note_on_c, 0, 72, 60
2, 38368, Note_off_c, 0, 72, 100
2, 38400, Note_on_c, 0, 77, 60
2, 38656, Note_off_c, 0, 77, 100
2, 38784, Note_on_c, 0, 78, 60
2, 39040, Note_off_c, 0, 78, 100
2, 39168, Note_on_c, 0, 79, 60
2, 39552, Note_off_c, 0, 79, 100
2, 39744, Note_on_c, 0, 76, 60
2, 39808, Note_off_c, 0, 76, 100
2, 39840, Note_on_c, 0, 72, 60
2, 39904, Note_off_c, 0, 72, 100
2, 39936, Note_on_c, 0, 77, 60
2, 40192, Note_off_c, 0, 77, 100
2, 40704, Note_on_c, 0, 79, 60
2, 40832, Note_off_c, 0, 79, 100
2, 40896, Note_on_c, 0, 79, 60
2, 41152, Note_off_c, 0, 79, 100
2, 41280, Note_on_c, 0, 76, 60
2, 41344, Note_off_c, 0, 76, 100
2, 41376, Note_on_c, 0, 72, 60
2, 41440, Note_off_c, 0, 72, 100
2, 41472, Note_on_c, 0, 77, 60
2, 41600, Note_off_c, 0, 77, 100
2, 41664, Note_on_c, 0, 77, 60
2, 41792, Note_off_c, 0, 77, 100
2, 41856, Note_on_c, 0, 77, 60
2, 41984, Note_off_c, 0, 77, 100
2, 42048, Note_on_c, 0, 77, 60
2, 42176, Note_off_c, 0, 77, 100
2, 42240, Note_on_c, 0, 79, 60
2, 42368, Note_off_c, 0, 79, 100
2, 42432, Note_on_c, 0, 79, 60
2, 42688, Note_off_c, 0, 79, 100
2, 42816, Note_on_c, 0, 76, 60
2, 42880, Note_off_c, 0, 76, 100
2, 42912, Note_on_c, 0, 72, 60
2, 42976, Note_off_c, 0, 72, 100
2, 43008, Note_on_c, 0, 77, 62
2, 43264, Note_off_c, 0, 77, 100
2, 43776, Note_on_c, 0, 78, 66
2, 43840, Note_off_c, 0, 78, 100
2, 43872, Note_on_c, 0, 79, 68
2, 43936, Note_off_c, 0, 79, 100
2, 43968, Note_on_c, 0, 81, 72
2, 44032, Note_off_c, 0, 81, 100
2, 44064, Note_on_c, 0, 79, 74
2, 44128, Note_off_c, 0, 79, 100
2, 44160, Note_on_c, 0, 77, 78
2, 44224, Note_off_c, 0, 77, 100
2, 44256, Note_on_c, 0, 76, 80
2, 44320, Note_off_c, 0, 76, 100
2, 44352, Note_on_c, 0, 74, 84
2, 44416, Note_off_c, 0, 74, 100
2, 44448, Note_on_c, 0, 72, 86
2, 44512, Note_off_c, 0, 72, 100
2, 44544, Note_on_c, 0, 77, 90
2, 44608, Note_off_c, 0, 77, 100
2, 44640, Note_on_c, 0, 72, 90
2, 44704, Note_off_c, 0, 72, 100
2, 44736, Note_on_c, 0, 81, 90
2, 44800, Note_off_c, 0, 81, 100
2, 44832, Note_on_c, 0, 77, 90
2, 44896, Note_off_c, 0, 77, 100
2, 44928, Note_on_c, 0, 84, 90
2, 44992, Note_off_c, 0, 84, 100
2, 45008, Note_on_c, 0, 81, 90
2, 45072, Note_off_c, 0, 81, 100
2, 45120, Note_on_c, 0, 84, 90
2, 45184, Note_off_c, 0, 84, 100
2, 45216, Note_on_c, 0, 81, 90
2, 45280, Note_off_c, 0, 81, 100
2, 45312, Note_on_c, 0, 84, 90
2, 45376, Note_off_c, 0, 84, 100
2, 45408, Note_on_c, 0, 82, 90
2, 45472, Note_off_c, 0, 82, 100
2, 45504, Note_on_c, 0, 81, 90
2, 45568, Note_off_c, 0, 81, 100
2, 45600, Note_on_c, 0, 79, 90
2, 45664, Note_off_c, 0, 79, 100
2, 45696, Note_on_c, 0, 77, 90
2, 45696, Note_on_c, 0, 65, 90
2, 45696, Note_on_c, 0, 57, 90
2, 45760, Note_off_c, 0, 77, 100
2, 45792, Note_on_c, 0, 75, 90
2, 45856, Note_off_c, 0, 75, 100
2, 45888, Note_on_c, 0, 74, 90
2, 45952, Note_off_c, 0, 65, 100
2, 45952, Note_off_c, 0, 57, 100
2, 45952, Note_off_c, 0, 74, 100
2, 45984, Note_on_c, 0, 72, 90
2, 46048, Note_off_c, 0, 72, 100
2, 46080, Note_on_c, 0, 74, 90
2, 46080, Note_on_c, 0, 65, 90
2, 46080, Note_on_c, 0, 58, 90
2, 46144, Note_off_c, 0, 74, 100
2, 46176, Note_on_c, 0, 70, 90
2, 46240, Note_off_c, 0, 70, 100
2, 46272, Note_on_c, 0, 77, 90
2, 46336, Note_off_c, 0, 65, 100
2, 46336, Note_off_c, 0, 58, 100
2, 46336, Note_off_c, 0, 77, 100
2, 46368, Note_on_c, 0, 74, 90
2, 46432, Note_off_c, 0, 74, 100
2, 46464, Note_on_c, 0, 82, 90
2, 46528, Note_off_c, 0, 82, 100
2, 46560, Note_on_c, 0, 77, 90
2, 46624, Note_off_c, 0, 77, 100
2, 46656, Note_on_c, 0, 86, 90
2, 46720, Note_off_c, 0, 86, 100
2, 46752, Note_on_c, 0, 82, 90
2, 46816, Note_off_c, 0, 82, 100
2, 46848, Note_on_c, 0, 86, 90
2, 46912, Note_off_c, 0, 86, 100
2, 46944, Note_on_c, 0, 84, 90
2, 47008, Note_off_c, 0, 84, 100
2, 47040, Note_on_c, 0, 82, 90
2, 47104, Note_off_c, 0, 82, 100
2, 47136, Note_on_c, 0, 81, 90
2, 47200, Note_off_c, 0, 81, 100
2, 47232, Note_on_c, 0, 79, 90
2, 47232, Note_on_c, 0, 67, 90
2, 47232, Note_on_c, 0, 65, 90
2, 47232, Note_on_c, 0, 58, 90
2, 47296, Note_off_c, 0, 79, 100
2, 47328, Note_on_c, 0, 77, 90
2, 47392, Note_off_c, 0, 77, 100
2, 47424, Note_on_c, 0, 76, 90
2, 47488, Note_off_c, 0, 67, 100
2, 47488, Note_off_c, 0, 65, 100
2, 47488, Note_off_c, 0, 58, 100
2, 47488, Note_off_c, 0, 76, 100
2, 47520, Note_on_c, 0, 74, 90
2, 47584, Note_off_c, 0, 74, 100
2, 47616, Note_on_c, 0, 72, 90
2, 47616, Note_on_c, 0, 58, 90
2, 47744, Note_off_c, 0, 58, 100
2, 47808, Note_on_c, 0, 69, 90
2, 47936, Note_off_c, 0, 69, 100
2, 48000, Note_on_c, 0, 65, 90
2, 48128, Note_off_c, 0, 72, 100
2, 48128, Note_off_c, 0, 65, 100
2, 48192, Note_on_c, 0, 69, 90
2, 48320, Note_off_c, 0, 69, 100
2, 48384, Note_on_c, 0, 79, 90
2, 48384, Note_on_c, 0, 60, 90
2, 48416, Note_off_c, 0, 79, 100
2, 48432, Note_on_c, 0, 81, 90
2, 48464, Note_off_c, 0, 81, 100
2, 48480, Note_on_c, 0, 79, 90
2, 48512, Note_off_c, 0, 60, 100
2, 48512, Note_off_c, 0, 79, 100
2, 48528, Note_on_c, 0, 81, 90
2, 48560, Note_off_c, 0, 81, 100
2, 48576, Note_on_c, 0, 79, 90
2, 48576, Note_on_c, 0, 70, 90
2, 48608, Note_off_c, 0, 79, 100
2, 48624, Note_on_c, 0, 81, 90
2, 48656, Note_off_c, 0, 81, 100
2, 48672, Note_on_c, 0, 79, 90
2, 48704, Note_off_c, 0, 70, 100
2, 48704, Note_off_c, 0, 79, 100
2, 48720, Note_on_c, 0, 81, 90
2, 48752, Note_off_c, 0, 81, 100
2, 48768, Note_on_c, 0, 79, 90
2, 48768, Note_on_c, 0, 64, 90
2, 48800, Note_off_c, 0, 79, 100
2, 48816, Note_on_c, 0, 81, 90
2, 48848, Note_off_c, 0, 81, 100
2, 48896, Note_off_c, 0, 64, 100
2, 48960, Note_on_c, 0, 77, 90
2, 48960, Note_on_c, 0, 70, 90
2, 49024, Note_off_c, 0, 77, 100
2, 49056, Note_on_c, 0, 79, 90
2, 49088, Note_off_c, 0, 70, 100
2, 49120, Note_off_c, 0, 79, 100
2, 49152, Note_on_c, 0, 81, 90
2, 49152, Note_on_c, 0, 65, 90
2, 49216, Note_off_c, 0, 81, 100
2, 49248, Note_on_c, 0, 82, 90
2, 49312, Note_off_c, 0, 82, 100
2, 49344, Note_on_c, 0, 84, 90
2, 49408, Note_off_c, 0, 65, 100
2, 49408, Note_off_c, 0, 84, 100
2, 49440, Note_on_c, 0, 82, 90
2, 49504, Note_off_c, 0, 82, 100
2, 49536, Note_on_c, 0, 81, 90
2, 49600, Note_off_c, 0, 81, 100
2, 49632, Note_on_c, 0, 79, 90
2, 49696, Note_off_c, 0, 79, 100
2, 49728, Note_on_c, 0, 77, 90
2, 49728, Note_on_c, 0, 67, 90
2, 49792, Note_off_c, 0, 77, 100
2, 49824, Note_on_c, 0, 76, 90
2, 49856, Note_off_c, 0, 67, 100
2, 49888, Note_off_c, 0, 76, 100
2, 49920, Note_on_c, 0, 77, 90
2, 49920, Note_on_c, 0, 69, 90
2, 49984, Note_off_c, 0, 77, 100
2, 50016, Note_on_c, 0, 79, 90
2, 50080, Note_off_c, 0, 79, 100
2, 50112, Note_on_c, 0, 81, 90
2, 50176, Note_off_c, 0, 69, 100
2, 50176, Note_off_c, 0, 81, 100
2, 50208, Note_on_c, 0, 79, 90
2, 50272, Note_off_c, 0, 79, 100
2, 50304, Note_on_c, 0, 77, 90
2, 50368, Note_off_c, 0, 77, 100
2, 50400, Note_on_c, 0, 75, 90
2, 50464, Note_off_c, 0, 75, 100
2, 50496, Note_on_c, 0, 74, 90
2, 50560, Note_off_c, 0, 74, 100
2, 50592, Note_on_c, 0, 73, 90
2, 50656, Note_off_c, 0, 73, 100
2, 50688, Note_on_c, 0, 74, 90
2, 50752, Note_off_c, 0, 74, 100
2, 50784, Note_on_c, 0, 76, 90
2, 50848, Note_off_c, 0, 76, 100
2, 50880, Note_on_c, 0, 77, 90
2, 50944, Note_off_c, 0, 77, 100
2, 50976, Note_on_c, 0, 76, 90
2, 51040, Note_off_c, 0, 76, 100
2, 51072, Note_on_c, 0, 74, 90
2, 51136, Note_off_c, 0, 74, 100
2, 51168, Note_on_c, 0, 72, 90
2, 51232, Note_off_c, 0, 72, 100
2, 51264, Note_on_c, 0, 70, 90
2, 51328, Note_off_c, 0, 70, 100
2, 51360, Note_on_c, 0, 69, 90
2, 51424, Note_off_c, 0, 69, 100
2, 51456, Note_on_c, 0, 67, 90
2, 51520, Note_off_c, 0, 67, 100
2, 51552, Note_on_c, 0, 69, 90
2, 51616, Note_off_c, 0, 69, 100
2, 51648, Note_on_c, 0, 70, 90
2, 51712, Note_off_c, 0, 70, 100
2, 51744, Note_on_c, 0, 69, 90
2, 51808, Note_off_c, 0, 69, 100
2, 51840, Note_on_c, 0, 67, 90
2, 51904, Note_off_c, 0, 67, 100
2, 51936, Note_on_c, 0, 65, 90
2, 52000, Note_off_c, 0, 65, 100
2, 52032, Note_on_c, 0, 64, 90
2, 52096, Note_off_c, 0, 64, 100
2, 52128, Note_on_c, 0, 62, 90
2, 52192, Note_off_c, 0, 62, 100
2, 52224, Note_on_c, 0, 60, 90
2, 52416, Note_on_c, 0, 62, 90
2, 52480, Note_off_c, 0, 60, 100
2, 52480, Note_off_c, 0, 62, 100
2, 52512, Note_on_c, 0, 64, 90
2, 52576, Note_off_c, 0, 64, 100
2, 52608, Note_on_c, 0, 65, 90
2, 52672, Note_off_c, 0, 65, 100
2, 52704, Note_on_c, 0, 67, 90
2, 52768, Note_off_c, 0, 67, 100
2, 52800, Note_on_c, 0, 69, 90
2, 52864, Note_off_c, 0, 69, 100
2, 52896, Note_on_c, 0, 70, 90
2, 52960, Note_off_c, 0, 70, 100
2, 52992, Note_on_c, 0, 72, 90
2, 53056, Note_off_c, 0, 72, 100
2, 53088, Note_on_c, 0, 74, 90
2, 53152, Note_off_c, 0, 74, 100
2, 53184, Note_on_c, 0, 76, 90
2, 53248, Note_off_c, 0, 76, 100
2, 53280, Note_on_c, 0, 77, 90
2, 53344, Note_off_c, 0, 77, 100
2, 53376, Note_on_c, 0, 79, 90
2, 53440, Note_off_c, 0, 79, 100
2, 53472, Note_on_c, 0, 81, 90
2, 53536, Note_off_c, 0, 81, 100
2, 53568, Note_on_c, 0, 82, 90
2, 53632, Note_off_c, 0, 82, 100
2, 53664, Note_on_c, 0, 84, 90
2, 53728, Note_off_c, 0, 84, 100
2, 53760, Note_on_c, 0, 77, 90
2, 53792, Note_off_c, 0, 77, 100
2, 53808, Note_on_c, 0, 79, 90
2, 53840, Note_off_c, 0, 79, 100
2, 53856, Note_on_c, 0, 81, 90
2, 53888, Note_off_c, 0, 81, 100
2, 53904, Note_on_c, 0, 79, 90
2, 53936, Note_off_c, 0, 79, 100
2, 53936, Note_on_c, 0, 81, 90
2, 53968, Note_off_c, 0, 81, 100
2, 54000, Note_on_c, 0, 79, 90
2, 54032, Note_off_c, 0, 79, 100
2, 54048, Note_on_c, 0, 81, 90
2, 54080, Note_off_c, 0, 81, 100
2, 54096, Note_on_c, 0, 79, 90
2, 54128, Note_off_c, 0, 79, 100
2, 54144, Note_on_c, 0, 81, 90
2, 54176, Note_off_c, 0, 81, 100
2, 54192, Note_on_c, 0, 79, 90
2, 54224, Note_off_c, 0, 79, 100
2, 54240, Note_on_c, 0, 81, 90
2, 54272, Note_off_c, 0, 81, 100
2, 54288, Note_on_c, 0, 79, 90
2, 54320, Note_off_c, 0, 79, 100
2, 54336, Note_on_c, 0, 81, 90
2, 54368, Note_off_c, 0, 81, 100
2, 54384, Note_on_c, 0, 79, 90
2, 54416, Note_off_c, 0, 79, 100
2, 54448, Note_on_c, 0, 81, 90
2, 54480, Note_off_c, 0, 81, 100
2, 54480, Note_on_c, 0, 79, 90
2, 54512, Note_off_c, 0, 79, 100
2, 54528, Note_on_c, 0, 81, 90
2, 54560, Note_off_c, 0, 81, 100
2, 54576, Note_on_c, 0, 79, 90
2, 54608, Note_off_c, 0, 79, 100
2, 54624, Note_on_c, 0, 81, 90
2, 54656, Note_off_c, 0, 81, 100
2, 54672, Note_on_c, 0, 79, 90
2, 54704, Note_off_c, 0, 79, 100
2, 54720, Note_on_c, 0, 81, 90
2, 54752, Note_off_c, 0, 81, 100
2, 54768, Note_on_c, 0, 79, 90
2, 54800, Note_off_c, 0, 79, 100
2, 54816, Note_on_c, 0, 81, 90
2, 54848, Note_off_c, 0, 81, 100
2, 54912, Note_on_c, 0, 79, 90
2, 54944, Note_off_c, 0, 79, 64
2, 54960, Note_on_c, 0, 81, 90
2, 54992, Note_off_c, 0, 81, 64
2, 55008, Note_on_c, 0, 79, 90
2, 55040, Note_off_c, 0, 79, 64
2, 55056, Note_on_c, 0, 81, 90
2, 55088, Note_off_c, 0, 81, 64
2, 55104, Note_on_c, 0, 77, 90
2, 55168, Note_off_c, 0, 77, 100
2, 55200, Note_on_c, 0, 79, 90
2, 55264, Note_off_c, 0, 79, 100
2, 55296, Note_on_c, 0, 77, 60
2, 55424, Note_off_c, 0, 77, 100
2, 55488, Note_on_c, 0, 77, 60
2, 55616, Note_off_c, 0, 77, 100
2, 55872, Note_on_c, 0, 77, 60
2, 56000, Note_off_c, 0, 77, 100
2, 56064, Note_on_c, 0, 77, 60
2, 56192, Note_off_c, 0, 77, 100
2, 56256, Note_on_c, 0, 77, 60
2, 56384, Note_off_c, 0, 77, 100
2, 56640, Note_on_c, 0, 77, 60
2, 56768, Note_off_c, 0, 77, 100
2, 56832, Note_on_c, 0, 77, 62
2, 56960, Note_off_c, 0, 77, 100
2, 57024, Note_on_c, 0, 77, 62
2, 57152, Note_off_c, 0, 77, 100
2, 57408, Note_on_c, 0, 77, 67
2, 57536, Note_off_c, 0, 77, 100
2, 57600, Note_on_c, 0, 77, 68
2, 57728, Note_off_c, 0, 77, 100
2, 57792, Note_on_c, 0, 77, 68
2, 57920, Note_off_c, 0, 77, 100
2, 58176, Note_on_c, 0, 77, 72
2, 58304, Note_off_c, 0, 77, 100
2, 58368, Note_on_c, 0, 77, 74
2, 58496, Note_off_c, 0, 77, 100
2, 58560, Note_on_c, 0, 77, 74
2, 58688, Note_off_c, 0, 77, 100
2, 58944, Note_on_c, 0, 77, 80
2, 59072, Note_off_c, 0, 77, 100
2, 59136, Note_on_c, 0, 77, 84
2, 59264, Note_off_c, 0, 77, 100
2, 59328, Note_on_c, 0, 77, 84
2, 59456, Note_off_c, 0, 77, 100
2, 59712, Note_on_c, 0, 77, 86
2, 59840, Note_off_c, 0, 77, 100
2, 59904, Note_on_c, 0, 77, 90
2, 60032, Note_off_c, 0, 77, 100
2, 60096, Note_on_c, 0, 81, 90
2, 60224, Note_off_c, 0, 81, 100
2, 60288, Note_on_c, 0, 81, 90
2, 60416, Note_off_c, 0, 81, 100
2, 60480, Note_on_c, 0, 84, 90
2, 60608, Note_off_c, 0, 84, 100
2, 60672, Note_on_c, 0, 84, 90
2, 60800, Note_off_c, 0, 84, 100
2, 60864, Note_on_c, 0, 87, 90
2, 60992, Note_off_c, 0, 87, 100
2, 61056, Note_on_c, 0, 87, 90
2, 61184, Note_off_c, 0, 87, 100
2, 61248, Note_on_c, 0, 84, 90
2, 61376, Note_off_c, 0, 84, 100
2, 61440, Note_on_c, 0, 84, 88
2, 61568, Note_off_c, 0, 84, 100
2, 61632, Note_on_c, 0, 81, 84
2, 61760, Note_off_c, 0, 81, 100
2, 61824, Note_on_c, 0, 81, 79
2, 61952, Note_off_c, 0, 81, 100
2, 62016, Note_on_c, 0, 77, 74
2, 62144, Note_off_c, 0, 77, 100
2, 62208, Note_on_c, 0, 77, 70
2, 62336, Note_off_c, 0, 77, 100
2, 62400, Note_on_c, 0, 75, 66
2, 62528, Note_off_c, 0, 75, 100
2, 62592, Note_on_c, 0, 75, 62
2, 62720, Note_off_c, 0, 75, 100
2, 62784, Note_on_c, 0, 77, 62
2, 62912, Note_off_c, 0, 77, 100
2, 62976, Note_on_c, 0, 77, 60
2, 63360, Note_off_c, 0, 77, 100
2, 63552, Note_on_c, 0, 74, 60
2, 63680, Note_off_c, 0, 74, 100
2, 63744, Note_on_c, 0, 70, 60
2, 64000, Note_off_c, 0, 70, 100
2, 64128, Note_on_c, 0, 70, 60
2, 64384, Note_off_c, 0, 70, 100
2, 64512, Note_on_c, 0, 75, 60
2, 64768, Note_off_c, 0, 75, 100
2, 64896, Note_on_c, 0, 79, 60
2, 65152, Note_off_c, 0, 79, 100
2, 65280, Note_on_c, 0, 69, 60
2, 65536, Note_off_c, 0, 69, 100
2, 65856, Note_on_c, 0, 69, 60
2, 65984, Note_off_c, 0, 69, 100
2, 66048, Note_on_c, 0, 72, 60
2, 66176, Note_off_c, 0, 72, 100
2, 66240, Note_on_c, 0, 70, 60
2, 66368, Note_off_c, 0, 70, 100
2, 66432, Note_on_c, 0, 74, 60
2, 66560, Note_off_c, 0, 74, 100
2, 66624, Note_on_c, 0, 72, 60
2, 66752, Note_off_c, 0, 72, 100
2, 66816, Note_on_c, 0, 75, 60
2, 66944, Note_off_c, 0, 75, 100
2, 67008, Note_on_c, 0, 74, 60
2, 67136, Note_off_c, 0, 74, 100
2, 67200, Note_on_c, 0, 77, 60
2, 67328, Note_off_c, 0, 77, 100
2, 67392, Note_on_c, 0, 75, 60
2, 67520, Note_off_c, 0, 75, 100
2, 67584, Note_on_c, 0, 74, 60
2, 67968, Note_off_c, 0, 74, 100
2, 68160, Note_on_c, 0, 75, 60
2, 68224, Note_off_c, 0, 75, 100
2, 68256, Note_on_c, 0, 74, 60
2, 68320, Note_off_c, 0, 74, 100
2, 68352, Note_on_c, 0, 72, 60
2, 68480, Note_off_c, 0, 72, 100
2, 68544, Note_on_c, 0, 74, 60
2, 68672, Note_off_c, 0, 74, 100
2, 68736, Note_on_c, 0, 75, 60
2, 68864, Note_off_c, 0, 75, 100
2, 68928, Note_on_c, 0, 76, 60
2, 69056, Note_off_c, 0, 76, 100
2, 69120, Note_on_c, 0, 77, 60
2, 69504, Note_off_c, 0, 77, 100
2, 69600, Note_on_c, 0, 75, 60
2, 69664, Note_off_c, 0, 75, 100
2, 69696, Note_on_c, 0, 74, 60
2, 69760, Note_off_c, 0, 74, 100
2, 69792, Note_on_c, 0, 72, 60
2, 69856, Note_off_c, 0, 72, 100
2, 69888, Note_on_c, 0, 70, 60
2, 70144, Note_off_c, 0, 70, 100
2, 70272, Note_on_c, 0, 70, 60
2, 70528, Note_off_c, 0, 70, 100
2, 70656, Note_on_c, 0, 75, 60
2, 70912, Note_off_c, 0, 75, 100
2, 71040, Note_on_c, 0, 79, 60
2, 71296, Note_off_c, 0, 79, 100
2, 71424, Note_on_c, 0, 69, 60
2, 71680, Note_off_c, 0, 69, 100
2, 72000, Note_on_c, 0, 69, 60
2, 72128, Note_off_c, 0, 69, 100
2, 72192, Note_on_c, 0, 70, 60
2, 72320, Note_off_c, 0, 70, 100
2, 72384, Note_on_c, 0, 74, 60
2, 72512, Note_off_c, 0, 74, 100
2, 72576, Note_on_c, 0, 67, 60
2, 72704, Note_off_c, 0, 67, 100
2, 72768, Note_on_c, 0, 72, 60
2, 72896, Note_off_c, 0, 72, 100
2, 72960, Note_on_c, 0, 70, 60
2, 73216, Note_off_c, 0, 70, 100
2, 73344, Note_on_c, 0, 69, 60
2, 73600, Note_off_c, 0, 69, 100
2, 73728, Note_on_c, 0, 70, 60
2, 73856, Note_off_c, 0, 70, 100
2, 73920, Note_on_c, 0, 65, 60
2, 74048, Note_off_c, 0, 65, 100
2, 74112, Note_on_c, 0, 67, 60
2, 74240, Note_off_c, 0, 67, 100
2, 74304, Note_on_c, 0, 69, 60
2, 74432, Note_off_c, 0, 69, 100
2, 74496, Note_on_c, 0, 70, 60
2, 74624, Note_off_c, 0, 70, 100
2, 74688, Note_on_c, 0, 72, 60
2, 74816, Note_off_c, 0, 72, 100
2, 74880, Note_on_c, 0, 74, 60
2, 75008, Note_off_c, 0, 74, 100
2, 75072, Note_on_c, 0, 75, 60
2, 75200, Note_off_c, 0, 75, 100
2, 75264, Note_on_c, 0, 77, 90
2, 75648, Note_off_c, 0, 77, 100
2, 75840, Note_on_c, 0, 74, 90
2, 75968, Note_off_c, 0, 74, 100
2, 76032, Note_on_c, 0, 70, 90
2, 76288, Note_off_c, 0, 70, 100
2, 76416, Note_on_c, 0, 70, 90
2, 76672, Note_off_c, 0, 70, 100
2, 76800, Note_on_c, 0, 75, 90
2, 76992, Note_on_c, 0, 77, 90
2, 77024, Note_off_c, 0, 77, 100
2, 77040, Note_on_c, 0, 75, 90
2, 77056, Note_off_c, 0, 75, 100
2, 77072, Note_off_c, 0, 75, 100
2, 77088, Note_on_c, 0, 74, 90
2, 77120, Note_off_c, 0, 74, 100
2, 77136, Note_on_c, 0, 75, 90
2, 77168, Note_off_c, 0, 75, 100
2, 77184, Note_on_c, 0, 79, 90
2, 77440, Note_off_c, 0, 79, 100
2, 77568, Note_on_c, 0, 69, 90
2, 77824, Note_off_c, 0, 69, 100
2, 78144, Note_on_c, 0, 69, 90
2, 78272, Note_off_c, 0, 69, 100
2, 78336, Note_on_c, 0, 72, 90
2, 78464, Note_off_c, 0, 72, 100
2, 78528, Note_on_c, 0, 70, 90
2, 78656, Note_off_c, 0, 70, 100
2, 78720, Note_on_c, 0, 74, 90
2, 78848, Note_off_c, 0, 74, 100
2, 78912, Note_on_c, 0, 72, 90
2, 79040, Note_off_c, 0, 72, 100
2, 79104, Note_on_c, 0, 75, 90
2, 79232, Note_off_c, 0, 75, 100
2, 79296, Note_on_c, 0, 74, 90
2, 79424, Note_off_c, 0, 74, 100
2, 79488, Note_on_c, 0, 77, 90
2, 79616, Note_off_c, 0, 77, 100
2, 79680, Note_on_c, 0, 75, 90
2, 79808, Note_off_c, 0, 75, 100
2, 79872, Note_on_c, 0, 74, 90
2, 80256, Note_off_c, 0, 74, 100
2, 80448, Note_on_c, 0, 75, 90
2, 80512, Note_off_c, 0, 75, 100
2, 80544, Note_on_c, 0, 74, 90
2, 80608, Note_off_c, 0, 74, 100
2, 80640, Note_on_c, 0, 72, 90
2, 80768, Note_off_c, 0, 72, 100
2, 80832, Note_on_c, 0, 74, 90
2, 80960, Note_off_c, 0, 74, 100
2, 81024, Note_on_c, 0, 75, 90
2, 81152, Note_off_c, 0, 75, 100
2, 81216, Note_on_c, 0, 76, 90
2, 81344, Note_off_c, 0, 76, 100
2, 81408, Note_on_c, 0, 77, 90
2, 81792, Note_off_c, 0, 77, 100
2, 81888, Note_on_c, 0, 75, 90
2, 81952, Note_off_c, 0, 75, 100
2, 81984, Note_on_c, 0, 74, 90
2, 82048, Note_off_c, 0, 74, 100
2, 82080, Note_on_c, 0, 72, 90
2, 82144, Note_off_c, 0, 72, 100
2, 82176, Note_on_c, 0, 70, 90
2, 82304, Note_off_c, 0, 70, 100
2, 82368, Note_on_c, 0, 70, 90
2, 82496, Note_off_c, 0, 70, 100
2, 82560, Note_on_c, 0, 70, 90
2, 82688, Note_off_c, 0, 70, 100
2, 82752, Note_on_c, 0, 70, 90
2, 82880, Note_off_c, 0, 70, 100
2, 82944, Note_on_c, 0, 75, 90
2, 83136, Note_on_c, 0, 77, 90
2, 83168, Note_off_c, 0, 77, 100
2, 83184, Note_on_c, 0, 75, 90
2, 83200, Note_off_c, 0, 75, 100
2, 83216, Note_off_c, 0, 75, 100
2, 83232, Note_on_c, 0, 74, 90
2, 83264, Note_off_c, 0, 74, 100
2, 83280, Note_on_c, 0, 75, 90
2, 83312, Note_off_c, 0, 75, 100
2, 83328, Note_on_c, 0, 79, 90
2, 83584, Note_off_c, 0, 79, 100
2, 83712, Note_on_c, 0, 69, 90
2, 83968, Note_off_c, 0, 69, 100
2, 84288, Note_on_c, 0, 81, 90
2, 84416, Note_off_c, 0, 81, 100
2, 84480, Note_on_c, 0, 82, 90
2, 84576, Note_off_c, 0, 82, 100
2, 84608, Note_on_c, 0, 77, 90
2, 84704, Note_off_c, 0, 77, 100
2, 84736, Note_on_c, 0, 74, 90
2, 84832, Note_off_c, 0, 74, 100
2, 84864, Note_on_c, 0, 79, 90
2, 84960, Note_off_c, 0, 79, 100
2, 84992, Note_on_c, 0, 75, 90
2, 85088, Note_off_c, 0, 75, 100
2, 85120, Note_on_c, 0, 72, 90
2, 85216, Note_off_c, 0, 72, 100
2, 85248, Note_on_c, 0, 77, 90
2, 85344, Note_off_c, 0, 77, 100
2, 85376, Note_on_c, 0, 74, 90
2, 85472, Note_off_c, 0, 74, 100
2, 85504, Note_on_c, 0, 70, 90
2, 85600, Note_off_c, 0, 70, 100
2, 85632, Note_on_c, 0, 75, 90
2, 85728, Note_off_c, 0, 75, 100
2, 85760, Note_on_c, 0, 72, 90
2, 85856, Note_off_c, 0, 72, 100
2, 85888, Note_on_c, 0, 69, 90
2, 85984, Note_off_c, 0, 69, 100
2, 86016, Note_on_c, 0, 70, 90
2, 86272, Note_off_c, 0, 70, 100
2, 86592, Note_on_c, 0, 65, 60
2, 86720, Note_off_c, 0, 65, 100
2, 86784, Note_on_c, 0, 70, 60
2, 86912, Note_off_c, 0, 70, 100
2, 86976, Note_on_c, 0, 69, 60
2, 87104, Note_off_c, 0, 69, 100
2, 87168, Note_on_c, 0, 70, 60
2, 87296, Note_off_c, 0, 70, 100
2, 87360, Note_on_c, 0, 72, 60
2, 87488, Note_off_c, 0, 72, 100
2, 87552, Note_on_c, 0, 74, 60
2, 87808, Note_off_c, 0, 74, 100
2, 87936, Note_on_c, 0, 74, 60
2, 87936, Note_on_c, 0, 70, 60
2, 88192, Note_off_c, 0, 74, 100
2, 88192, Note_off_c, 0, 70, 100
2, 88320, Note_on_c, 0, 74, 60
2, 88320, Note_on_c, 0, 70, 60
2, 88576, Note_off_c, 0, 74, 100
2, 88576, Note_off_c, 0, 70, 100
2, 88704, Note_on_c, 0, 75, 60
2, 88704, Note_on_c, 0, 72, 60
2, 88960, Note_off_c, 0, 75, 100
2, 88960, Note_off_c, 0, 72, 100
2, 89088, Note_on_c, 0, 72, 60
2, 89088, Note_on_c, 0, 69, 60
2, 89344, Note_off_c, 0, 72, 100
2, 89344, Note_off_c, 0, 69, 100
2, 89664, Note_on_c, 0, 65, 60
2, 89792, Note_off_c, 0, 65, 100
2, 89856, Note_on_c, 0, 72, 60
2, 89984, Note_off_c, 0, 72, 100
2, 90048, Note_on_c, 0, 70, 60
2, 90176, Note_off_c, 0, 70, 100
2, 90240, Note_on_c, 0, 72, 60
2, 90368, Note_off_c, 0, 72, 100
2, 90432, Note_on_c, 0, 74, 60
2, 90560, Note_off_c, 0, 74, 100
2, 90624, Note_on_c, 0, 75, 60
2, 90880, Note_off_c, 0, 75, 100
2, 91008, Note_on_c, 0, 75, 60
2, 91008, Note_on_c, 0, 67, 60
2, 91264, Note_off_c, 0, 75, 100
2, 91264, Note_off_c, 0, 67, 100
2, 91392, Note_on_c, 0, 75, 60
2, 91392, Note_on_c, 0, 72, 60
2, 91648, Note_off_c, 0, 75, 100
2, 91648, Note_off_c, 0, 72, 100
2, 91776, Note_on_c, 0, 77, 60
2, 91776, Note_on_c, 0, 69, 60
2, 92032, Note_off_c, 0, 77, 100
2, 92032, Note_off_c, 0, 69, 100
2, 92160, Note_on_c, 0, 74, 60
2, 92160, Note_on_c, 0, 70, 60
2, 92416, Note_off_c, 0, 74, 100
2, 92416, Note_off_c, 0, 70, 100
2, 92736, Note_on_c, 0, 70, 60
2, 92864, Note_off_c, 0, 70, 100
2, 92928, Note_on_c, 0, 74, 60
2, 93056, Note_off_c, 0, 74, 100
2, 93120, Note_on_c, 0, 72, 60
2, 93248, Note_off_c, 0, 72, 100
2, 93312, Note_on_c, 0, 74, 60
2, 93440, Note_off_c, 0, 74, 100
2, 93504, Note_on_c, 0, 75, 60
2, 93632, Note_off_c, 0, 75, 100
2, 93696, Note_on_c, 0, 77, 60
2, 93952, Note_off_c, 0, 77, 100
2, 94080, Note_on_c, 0, 77, 60
2, 94336, Note_off_c, 0, 77, 100
2, 94464, Note_on_c, 0, 77, 60
2, 94720, Note_off_c, 0, 77, 100
2, 94848, Note_on_c, 0, 77, 60
2, 95104, Note_off_c, 0, 77, 100
2, 95232, Note_on_c, 0, 78, 90
2, 95424, Note_on_c, 0, 72, 60
2, 95552, Note_off_c, 0, 72, 100
2, 95616, Note_on_c, 0, 74, 60
2, 95744, Note_off_c, 0, 74, 100
2, 95808, Note_on_c, 0, 75, 60
2, 95936, Note_off_c, 0, 75, 100
2, 96000, Note_on_c, 0, 75, 60
2, 96128, Note_off_c, 0, 75, 100
2, 96192, Note_on_c, 0, 74, 60
2, 96260, Note_off_c, 0, 78, 100
2, 96320, Note_off_c, 0, 74, 100
2, 96384, Note_on_c, 0, 74, 60
2, 96512, Note_off_c, 0, 74, 100
2, 96576, Note_on_c, 0, 72, 60
2, 96704, Note_off_c, 0, 72, 100
2, 96768, Note_on_c, 0, 70, 60
2, 96768, Note_on_c, 0, 79, 60
2, 97280, Note_off_c, 0, 70, 100
2, 97280, Note_off_c, 0, 79, 100
2, 97536, Note_on_c, 0, 73, 60
2, 98048, Note_off_c, 0, 73, 100
2, 98304, Note_on_c, 0, 74, 60
2, 98560, Note_off_c, 0, 74, 100
2, 98976, Note_on_c, 0, 62, 90
2, 99040, Note_off_c, 0, 62, 100
2, 99072, Note_on_c, 0, 74, 90
2, 99328, Note_off_c, 0, 74, 100
2, 99456, Note_on_c, 0, 74, 90
2, 99712, Note_off_c, 0, 74, 100
2, 99840, Note_on_c, 0, 82, 90
2, 100224, Note_off_c, 0, 82, 100
2, 100320, Note_on_c, 0, 81, 90
2, 100384, Note_off_c, 0, 81, 100
2, 100416, Note_on_c, 0, 79, 90
2, 100480, Note_off_c, 0, 79, 100
2, 100512, Note_on_c, 0, 78, 90
2, 100576, Note_off_c, 0, 78, 100
2, 100608, Note_on_c, 0, 79, 90
2, 100864, Note_off_c, 0, 79, 100
2, 100992, Note_on_c, 0, 74, 90
2, 101248, Note_off_c, 0, 74, 100
2, 101376, Note_on_c, 0, 75, 90
2, 101632, Note_off_c, 0, 75, 100
2, 102048, Note_on_c, 0, 67, 90
2, 102112, Note_off_c, 0, 67, 100
2, 102144, Note_on_c, 0, 79, 90
2, 102400, Note_off_c, 0, 79, 100
2, 102528, Note_on_c, 0, 79, 90
2, 102784, Note_off_c, 0, 79, 100
2, 102912, Note_on_c, 0, 87, 90
2, 103296, Note_off_c, 0, 87, 100
2, 103392, Note_on_c, 0, 86, 90
2, 103456, Note_off_c, 0, 86, 100
2, 103488, Note_on_c, 0, 84, 90
2, 103552, Note_off_c, 0, 84, 100
2, 103584, Note_on_c, 0, 82, 90
2, 103648, Note_off_c, 0, 82, 100
2, 103680, Note_on_c, 0, 84, 90
2, 103936, Note_off_c, 0, 84, 100
2, 104064, Note_on_c, 0, 75, 90
2, 104320, Note_off_c, 0, 75, 100
2, 104448, Note_on_c, 0, 74, 90
2, 104704, Note_off_c, 0, 74, 100
2, 105024, Note_on_c, 0, 73, 90
2, 105152, Note_off_c, 0, 73, 100
2, 105216, Note_on_c, 0, 74, 90
2, 105344, Note_off_c, 0, 74, 100
2, 105408, Note_on_c, 0, 82, 90
2, 105536, Note_off_c, 0, 82, 100
2, 105600, Note_on_c, 0, 81, 90
2, 105728, Note_off_c, 0, 81, 100
2, 105792, Note_on_c, 0, 79, 90
2, 105920, Note_off_c, 0, 79, 100
2, 105984, Note_on_c, 0, 78, 90
2, 106176, Note_off_c, 0, 78, 100
2, 106272, Note_on_c, 0, 79, 90
2, 106304, Note_off_c, 0, 79, 100
2, 106320, Note_on_c, 0, 81, 90
2, 106352, Note_off_c, 0, 81, 100
2, 106368, Note_on_c, 0, 79, 90
2, 106496, Note_off_c, 0, 79, 100
2, 106560, Note_on_c, 0, 79, 90
2, 106688, Note_off_c, 0, 79, 100
2, 106752, Note_on_c, 0, 85, 90
2, 106880, Note_off_c, 0, 85, 100
2, 106944, Note_on_c, 0, 86, 90
2, 107072, Note_off_c, 0, 86, 100
2, 107136, Note_on_c, 0, 82, 90
2, 107264, Note_off_c, 0, 82, 100
2, 107328, Note_on_c, 0, 79, 90
2, 107456, Note_off_c, 0, 79, 100
2, 107520, Note_on_c, 0, 78, 90
2, 107712, Note_off_c, 0, 78, 100
2, 107808, Note_on_c, 0, 79, 90
2, 107840, Note_off_c, 0, 79, 100
2, 107856, Note_on_c, 0, 81, 90
2, 107888, Note_off_c, 0, 81, 100
2, 107904, Note_on_c, 0, 79, 90
2, 108032, Note_off_c, 0, 79, 100
2, 108096, Note_on_c, 0, 74, 90
2, 108224, Note_off_c, 0, 74, 100
2, 108288, Note_on_c, 0, 79, 90
2, 108416, Note_off_c, 0, 79, 100
2, 108480, Note_on_c, 0, 79, 90
2, 108608, Note_off_c, 0, 79, 100
2, 108672, Note_on_c, 0, 79, 90
2, 108800, Note_off_c, 0, 79, 100
2, 108864, Note_on_c, 0, 79, 90
2, 108992, Note_off_c, 0, 79, 100
2, 109056, Note_on_c, 0, 79, 90
2, 109248, Note_off_c, 0, 79, 100
2, 109344, Note_on_c, 0, 81, 90
2, 109376, Note_off_c, 0, 81, 100
2, 109392, Note_on_c, 0, 82, 90
2, 109424, Note_off_c, 0, 82, 100
2, 109440, Note_on_c, 0, 81, 90
2, 109568, Note_off_c, 0, 81, 100
2, 109632, Note_on_c, 0, 79, 90
2, 109760, Note_off_c, 0, 79, 100
2, 109824, Note_on_c, 0, 77, 90
2, 109952, Note_off_c, 0, 77, 100
2, 110016, Note_on_c, 0, 75, 90
2, 110144, Note_off_c, 0, 75, 100
2, 110208, Note_on_c, 0, 74, 90
2, 110336, Note_off_c, 0, 74, 100
2, 110400, Note_on_c, 0, 73, 90
2, 110528, Note_off_c, 0, 73, 100
2, 110592, Note_on_c, 0, 73, 90
2, 110720, Note_off_c, 0, 73, 100
2, 110784, Note_on_c, 0, 74, 84
2, 110912, Note_off_c, 0, 74, 100
2, 110976, Note_on_c, 0, 74, 76
2, 111232, Note_off_c, 0, 74, 100
2, 111360, Note_on_c, 0, 74, 68
2, 111616, Note_off_c, 0, 74, 100
2, 111744, Note_on_c, 0, 74, 61
2, 112000, Note_off_c, 0, 74, 100
2, 112128, Note_on_c, 0, 73, 60
2, 112160, Note_off_c, 0, 73, 100
2, 112176, Note_on_c, 0, 74, 60
2, 112208, Note_off_c, 0, 74, 100
2, 112224, Note_on_c, 0, 75, 60
2, 112256, Note_off_c, 0, 75, 100
2, 112272, Note_on_c, 0, 74, 67
2, 113300, Note_off_c, 0, 74, 100
2, 113664, Note_on_c, 0, 77, 67
2, 114692, Note_off_c, 0, 77, 100
2, 115200, Note_on_c, 0, 62, 90
2, 115200, Note_on_c, 0, 56, 90
2, 116228, Note_off_c, 0, 62, 100
2, 116228, Note_off_c, 0, 56, 100
2, 116736, Note_on_c, 0, 63, 90
2, 116736, Note_on_c, 0, 55, 90
2, 116992, Note_off_c, 0, 55, 100
2, 117248, Note_off_c, 0, 63, 100
2, 117504, Note_on_c, 0, 63, 60
2, 117696, Note_off_c, 0, 63, 100
2, 117792, Note_on_c, 0, 58, 60
2, 117856, Note_off_c, 0, 58, 100
2, 117888, Note_on_c, 0, 62, 60
2, 118080, Note_off_c, 0, 62, 100
2, 118176, Note_on_c, 0, 58, 60
2, 118240, Note_off_c, 0, 58, 100
2, 118272, Note_on_c, 0, 63, 60
2, 118464, Note_off_c, 0, 63, 100
2, 118560, Note_on_c, 0, 58, 60
2, 118624, Note_off_c, 0, 58, 100
2, 118656, Note_on_c, 0, 65, 60
2, 118848, Note_off_c, 0, 65, 100
2, 118944, Note_on_c, 0, 58, 60
2, 119008, Note_off_c, 0, 58, 100
2, 119040, Note_on_c, 0, 67, 60
2, 119232, Note_off_c, 0, 67, 100
2, 119328, Note_on_c, 0, 58, 60
2, 119392, Note_off_c, 0, 58, 100
2, 119424, Note_on_c, 0, 68, 60
2, 119616, Note_off_c, 0, 68, 100
2, 119712, Note_on_c, 0, 58, 60
2, 119776, Note_off_c, 0, 58, 100
2, 119808, Note_on_c, 0, 65, 60
2, 120320, Note_off_c, 0, 65, 100
2, 120576, Note_on_c, 0, 65, 60
2, 120768, Note_off_c, 0, 65, 100
2, 120864, Note_on_c, 0, 58, 60
2, 120928, Note_off_c, 0, 58, 100
2, 120960, Note_on_c, 0, 64, 60
2, 121152, Note_off_c, 0, 64, 100
2, 121248, Note_on_c, 0, 58, 60
2, 121312, Note_off_c, 0, 58, 100
2, 121344, Note_on_c, 0, 65, 60
2, 121536, Note_off_c, 0, 65, 100
2, 121632, Note_on_c, 0, 58, 60
2, 121696, Note_off_c, 0, 58, 100
2, 121728, Note_on_c, 0, 67, 60
2, 121920, Note_off_c, 0, 67, 100
2, 122016, Note_on_c, 0, 58, 60
2, 122080, Note_off_c, 0, 58, 100
2, 122112, Note_on_c, 0, 68, 60
2, 122304, Note_off_c, 0, 68, 100
2, 122400, Note_on_c, 0, 58, 60
2, 122464, Note_off_c, 0, 58, 100
2, 122496, Note_on_c, 0, 70, 60
2, 122688, Note_off_c, 0, 70, 100
2, 122784, Note_on_c, 0, 58, 60
2, 122848, Note_off_c, 0, 58, 100
2, 122880, Note_on_c, 0, 67, 90
2, 123136, Note_off_c, 0, 67, 100
2, 123456, Note_on_c, 0, 70, 90
2, 123584, Note_off_c, 0, 70, 100
2, 123648, Note_on_c, 0, 75, 90
2, 123840, Note_off_c, 0, 75, 100
2, 123936, Note_on_c, 0, 77, 90
2, 124000, Note_off_c, 0, 77, 100
2, 124032, Note_on_c, 0, 79, 90
2, 124224, Note_off_c, 0, 79, 100
2, 124320, Note_on_c, 0, 70, 90
2, 124384, Note_off_c, 0, 70, 100
2, 124416, Note_on_c, 0, 72, 90
2, 124608, Note_off_c, 0, 72, 100
2, 124704, Note_on_c, 0, 74, 90
2, 124768, Note_off_c, 0, 74, 100
2, 124800, Note_on_c, 0, 75, 90
2, 124992, Note_off_c, 0, 75, 100
2, 125088, Note_on_c, 0, 67, 90
2, 125152, Note_off_c, 0, 67, 100
2, 125184, Note_on_c, 0, 68, 90
2, 125376, Note_off_c, 0, 68, 100
2, 125472, Note_on_c, 0, 70, 90
2, 125536, Note_off_c, 0, 70, 100
2, 125568, Note_on_c, 0, 72, 90
2, 125760, Note_off_c, 0, 72, 100
2, 125856, Note_on_c, 0, 68, 90
2, 125920, Note_off_c, 0, 68, 100
2, 125952, Note_on_c, 0, 67, 90
2, 126208, Note_off_c, 0, 67, 100
2, 126528, Note_on_c, 0, 70, 90
2, 126656, Note_off_c, 0, 70, 100
2, 126720, Note_on_c, 0, 75, 90
2, 126912, Note_off_c, 0, 75, 100
2, 127008, Note_on_c, 0, 77, 90
2, 127072, Note_off_c, 0, 77, 100
2, 127104, Note_on_c, 0, 79, 90
2, 127296, Note_off_c, 0, 79, 100
2, 127392, Note_on_c, 0, 71, 90
2, 127456, Note_off_c, 0, 71, 100
2, 127488, Note_on_c, 0, 72, 90
2, 127680, Note_off_c, 0, 72, 100
2, 127776, Note_on_c, 0, 74, 90
2, 127840, Note_off_c, 0, 74, 100
2, 127872, Note_on_c, 0, 75, 90
2, 128064, Note_off_c, 0, 75, 100
2, 128160, Note_on_c, 0, 67, 90
2, 128224, Note_off_c, 0, 67, 100
2, 128256, Note_on_c, 0, 68, 90
2, 128448, Note_off_c, 0, 68, 100
2, 128544, Note_on_c, 0, 70, 90
2, 128608, Note_off_c, 0, 70, 100
2, 128640, Note_on_c, 0, 72, 90
2, 128832, Note_off_c, 0, 72, 100
2, 128928, Note_on_c, 0, 68, 90
2, 128992, Note_off_c, 0, 68, 100
2, 129024, Note_on_c, 0, 67, 90
2, 129280, Note_off_c, 0, 67, 100
2, 129600, Note_on_c, 0, 67, 90
2, 129728, Note_off_c, 0, 67, 100
2, 129792, Note_on_c, 0, 70, 90
2, 129920, Note_off_c, 0, 70, 100
2, 129984, Note_on_c, 0, 69, 90
2, 130112, Note_off_c, 0, 69, 100
2, 130368, Note_on_c, 0, 69, 90
2, 130496, Note_off_c, 0, 69, 100
2, 130560, Note_on_c, 0, 72, 90
2, 130688, Note_off_c, 0, 72, 100
2, 130752, Note_on_c, 0, 70, 90
2, 130880, Note_off_c, 0, 70, 100
2, 131136, Note_on_c, 0, 71, 90
2, 131264, Note_off_c, 0, 71, 100
2, 131328, Note_on_c, 0, 74, 90
2, 131456, Note_off_c, 0, 74, 100
2, 131520, Note_on_c, 0, 72, 90
2, 131648, Note_off_c, 0, 72, 100
2, 131712, Note_on_c, 0, 75, 90
2, 131840, Note_off_c, 0, 75, 100
2, 131904, Note_on_c, 0, 74, 90
2, 132032, Note_off_c, 0, 74, 100
2, 132096, Note_on_c, 0, 77, 90
2, 132224, Note_off_c, 0, 77, 100
2, 132288, Note_on_c, 0, 75, 90
2, 132416, Note_off_c, 0, 75, 100
2, 132480, Note_on_c, 0, 77, 90
2, 132608, Note_off_c, 0, 77, 100
2, 132672, Note_on_c, 0, 76, 90
2, 132800, Note_off_c, 0, 76, 100
2, 132864, Note_on_c, 0, 79, 90
2, 132992, Note_off_c, 0, 79, 100
2, 133056, Note_on_c, 0, 77, 90
2, 133184, Note_off_c, 0, 77, 100
2, 133248, Note_on_c, 0, 80, 90
2, 133376, Note_off_c, 0, 80, 100
2, 133440, Note_on_c, 0, 79, 90
2, 133568, Note_off_c, 0, 79, 100
2, 133632, Note_on_c, 0, 82, 90
2, 133760, Note_off_c, 0, 82, 100
2, 133824, Note_on_c, 0, 80, 90
2, 133952, Note_off_c, 0, 80, 100
2, 134976, Note_on_c, 0, 77, 60
2, 135104, Note_off_c, 0, 77, 100
2, 135168, Note_on_c, 0, 79, 60
2, 135168, Note_on_c, 0, 63, 60
2, 135168, Note_on_c, 0, 70, 60
2, 135360, Note_off_c, 0, 79, 100
2, 135424, Note_off_c, 0, 63, 100
2, 135424, Note_off_c, 0, 70, 100
2, 135456, Note_on_c, 0, 75, 60
2, 135520, Note_off_c, 0, 75, 100
2, 135552, Note_on_c, 0, 72, 60
2, 135552, Note_on_c, 0, 68, 60
2, 135552, Note_on_c, 0, 56, 60
2, 135744, Note_off_c, 0, 72, 100
2, 135808, Note_off_c, 0, 68, 100
2, 135808, Note_off_c, 0, 56, 100
2, 135840, Note_on_c, 0, 77, 60
2, 135904, Note_off_c, 0, 77, 100
2, 135936, Note_on_c, 0, 75, 60
2, 135936, Note_on_c, 0, 67, 60
2, 135936, Note_on_c, 0, 58, 60
2, 136192, Note_off_c, 0, 75, 100
2, 136192, Note_off_c, 0, 67, 100
2, 136320, Note_on_c, 0, 74, 60
2, 136320, Note_on_c, 0, 65, 60
2, 136448, Note_off_c, 0, 58, 100
2, 136576, Note_off_c, 0, 74, 100
2, 136576, Note_off_c, 0, 65, 100
2, 136704, Note_on_c, 0, 82, 90
2, 136832, Note_off_c, 0, 82, 100
2, 136896, Note_on_c, 0, 80, 90
2, 137024, Note_off_c, 0, 80, 100
2, 138048, Note_on_c, 0, 77, 60
2, 138176, Note_off_c, 0, 77, 100
2, 138240, Note_on_c, 0, 79, 60
2, 138240, Note_on_c, 0, 70, 60
2, 138240, Note_on_c, 0, 63, 60
2, 138432, Note_off_c, 0, 79, 100
2, 138496, Note_off_c, 0, 70, 100
2, 138496, Note_off_c, 0, 63, 100
2, 138528, Note_on_c, 0, 75, 60
2, 138592, Note_off_c, 0, 75, 100
2, 138624, Note_on_c, 0, 72, 60
2, 138624, Note_on_c, 0, 68, 60
2, 138624, Note_on_c, 0, 56, 60
2, 138816, Note_off_c, 0, 72, 100
2, 138880, Note_off_c, 0, 68, 100
2, 138880, Note_off_c, 0, 56, 100
2, 138912, Note_on_c, 0, 77, 60
2, 138976, Note_off_c, 0, 77, 100
2, 139008, Note_on_c, 0, 75, 60
2, 139008, Note_on_c, 0, 67, 60
2, 139008, Note_on_c, 0, 58, 60
2, 139264, Note_off_c, 0, 75, 100
2, 139264, Note_off_c, 0, 67, 100
2, 139392, Note_on_c, 0, 74, 60
2, 139392, Note_on_c, 0, 65, 60
2, 139520, Note_off_c, 0, 58, 100
2, 139648, Note_off_c, 0, 74, 100
2, 139648, Note_off_c, 0, 65, 100
2, 139776, Note_on_c, 0, 67, 90
2, 139904, Note_off_c, 0, 67, 100
2, 139968, Note_on_c, 0, 79, 90
2, 140352, Note_on_c, 0, 75, 60
2, 140480, Note_off_c, 0, 79, 100
2, 140480, Note_off_c, 0, 75, 100
2, 140544, Note_on_c, 0, 72, 60
2, 140544, Note_on_c, 0, 63, 60
2, 140544, Note_on_c, 0, 67, 60
2, 140800, Note_off_c, 0, 72, 100
2, 140928, Note_on_c, 0, 72, 60
2, 141056, Note_off_c, 0, 63, 100
2, 141056, Note_off_c, 0, 67, 100
2, 141184, Note_off_c, 0, 72, 100
2, 141312, Note_on_c, 0, 77, 60
2, 141312, Note_on_c, 0, 71, 60
2, 141312, Note_on_c, 0, 62, 60
2, 141568, Note_off_c, 0, 77, 100
2, 141696, Note_on_c, 0, 81, 60
2, 141824, Note_off_c, 0, 71, 100
2, 141824, Note_off_c, 0, 62, 100
2, 141952, Note_off_c, 0, 81, 100
2, 142080, Note_on_c, 0, 71, 60
2, 142080, Note_on_c, 0, 65, 60
2, 142080, Note_on_c, 0, 68, 60
2, 142336, Note_off_c, 0, 71, 100
2, 142336, Note_off_c, 0, 65, 100
2, 142336, Note_off_c, 0, 68, 100
2, 142656, Note_on_c, 0, 71, 60
2, 142784, Note_off_c, 0, 71, 100
2, 142848, Note_on_c, 0, 74, 60
2, 142848, Note_on_c, 0, 67, 60
2, 142848, Note_on_c, 0, 63, 60
2, 142976, Note_off_c, 0, 74, 100
2, 143040, Note_on_c, 0, 72, 60
2, 143104, Note_off_c, 0, 63, 100
2, 143168, Note_off_c, 0, 72, 100
2, 143232, Note_on_c, 0, 75, 60
2, 143232, Note_on_c, 0, 59, 60
2, 143360, Note_off_c, 0, 75, 100
2, 143424, Note_on_c, 0, 74, 60
2, 143488, Note_off_c, 0, 59, 100
2, 143552, Note_off_c, 0, 74, 100
2, 143616, Note_on_c, 0, 77, 60
2, 143616, Note_on_c, 0, 60, 60
2, 143744, Note_off_c, 0, 77, 100
2, 143808, Note_on_c, 0, 75, 60
2, 143872, Note_off_c, 0, 60, 100
2, 143876, Note_off_c, 0, 67, 100
2, 143936, Note_off_c, 0, 75, 100
2, 144000, Note_on_c, 0, 62, 60
2, 144192, Note_on_c, 0, 71, 60
2, 144256, Note_off_c, 0, 62, 100
2, 144320, Note_off_c, 0, 71, 100
2, 144384, Note_on_c, 0, 74, 60
2, 144384, Note_on_c, 0, 63, 60
2, 144384, Note_on_c, 0, 67, 60
2, 144512, Note_off_c, 0, 74, 100
2, 144576, Note_on_c, 0, 72, 60
2, 144640, Note_off_c, 0, 63, 100
2, 144704, Note_off_c, 0, 72, 100
2, 144768, Note_on_c, 0, 75, 60
2, 144768, Note_on_c, 0, 59, 60
2, 144896, Note_off_c, 0, 67, 100
2, 144896, Note_off_c, 0, 75, 100
2, 144960, Note_on_c, 0, 74, 60
2, 145024, Note_off_c, 0, 59, 100
2, 145088, Note_off_c, 0, 74, 100
2, 145152, Note_on_c, 0, 77, 60
2, 145152, Note_on_c, 0, 67, 60
2, 145152, Note_on_c, 0, 60, 60
2, 145280, Note_off_c, 0, 77, 100
2, 145344, Note_on_c, 0, 75, 60
2, 145408, Note_off_c, 0, 67, 100
2, 145408, Note_off_c, 0, 60, 100
2, 145472, Note_off_c, 0, 75, 100
2, 145536, Note_on_c, 0, 77, 60
2, 145664, Note_off_c, 0, 77, 100
2, 145728, Note_on_c, 0, 76, 60
2, 145856, Note_off_c, 0, 76, 100
2, 145920, Note_on_c, 0, 77, 90
2, 146432, Note_off_c, 0, 77, 100
2, 146496, Note_on_c, 0, 74, 60
2, 146624, Note_off_c, 0, 74, 100
2, 146688, Note_on_c, 0, 70, 60
2, 146688, Note_on_c, 0, 65, 60
2, 146688, Note_on_c, 0, 62, 60
2, 146944, Note_off_c, 0, 70, 100
2, 147072, Note_on_c, 0, 70, 60
2, 147200, Note_off_c, 0, 65, 100
2, 147200, Note_off_c, 0, 62, 100
2, 147328, Note_off_c, 0, 70, 100
2, 147456, Note_on_c, 0, 75, 60
2, 147456, Note_on_c, 0, 60, 60
2, 147456, Note_on_c, 0, 69, 60
2, 147712, Note_off_c, 0, 75, 100
2, 147840, Note_on_c, 0, 79, 60
2, 147968, Note_off_c, 0, 60, 100
2, 147968, Note_off_c, 0, 69, 100
2, 148096, Note_off_c, 0, 79, 100
2, 148224, Note_on_c, 0, 69, 60
2, 148224, Note_on_c, 0, 66, 60
2, 148224, Note_on_c, 0, 63, 60
2, 148480, Note_off_c, 0, 69, 100
2, 148480, Note_off_c, 0, 66, 100
2, 148480, Note_off_c, 0, 63, 100
2, 148800, Note_on_c, 0, 69, 60
2, 148928, Note_off_c, 0, 69, 100
2, 148992, Note_on_c, 0, 72, 60
2, 148992, Note_on_c, 0, 61, 60
2, 148992, Note_on_c, 0, 65, 60
2, 149120, Note_off_c, 0, 72, 100
2, 149184, Note_on_c, 0, 70, 60
2, 149248, Note_off_c, 0, 61, 100
2, 149312, Note_off_c, 0, 70, 100
2, 149376, Note_on_c, 0, 73, 60
2, 149376, Note_on_c, 0, 57, 60
2, 149504, Note_off_c, 0, 73, 100
2, 149568, Note_on_c, 0, 72, 60
2, 149632, Note_off_c, 0, 57, 100
2, 149696, Note_off_c, 0, 72, 100
2, 149760, Note_on_c, 0, 75, 60
2, 149760, Note_on_c, 0, 58, 60
2, 149888, Note_off_c, 0, 75, 100
2, 149952, Note_on_c, 0, 73, 60
2, 150016, Note_off_c, 0, 58, 100
2, 150020, Note_off_c, 0, 65, 100
2, 150080, Note_off_c, 0, 73, 100
2, 150144, Note_on_c, 0, 60, 60
2, 150336, Note_on_c, 0, 69, 60
2, 150400, Note_off_c, 0, 60, 100
2, 150464, Note_off_c, 0, 69, 100
2, 150528, Note_on_c, 0, 72, 60
2, 150528, Note_on_c, 0, 65, 60
2, 150528, Note_on_c, 0, 61, 60
2, 150656, Note_off_c, 0, 72, 100
2, 150720, Note_on_c, 0, 70, 60
2, 150784, Note_off_c, 0, 61, 100
2, 150848, Note_off_c, 0, 70, 100
2, 150912, Note_on_c, 0, 73, 60
2, 150912, Note_on_c, 0, 57, 60
2, 151040, Note_off_c, 0, 65, 100
2, 151040, Note_off_c, 0, 73, 100
2, 151104, Note_on_c, 0, 72, 60
2, 151168, Note_off_c, 0, 57, 100
2, 151232, Note_off_c, 0, 72, 100
2, 151296, Note_on_c, 0, 75, 60
2, 151296, Note_on_c, 0, 65, 60
2, 151296, Note_on_c, 0, 58, 60
2, 151424, Note_off_c, 0, 75, 100
2, 151488, Note_on_c, 0, 73, 60
2, 151552, Note_off_c, 0, 65, 100
2, 151552, Note_off_c, 0, 58, 100
2, 151616, Note_off_c, 0, 73, 100
2, 151680, Note_on_c, 0, 65, 60
2, 151680, Note_on_c, 0, 58, 60
2, 151872, Note_on_c, 0, 73, 60
2, 151936, Note_off_c, 0, 65, 100
2, 151936, Note_off_c, 0, 58, 100
2, 152000, Note_off_c, 0, 73, 100
2, 152064, Note_on_c, 0, 73, 60
2, 152192, Note_off_c, 0, 73, 100
2, 152256, Note_on_c, 0, 71, 60
2, 152384, Note_off_c, 0, 71, 100
2, 152640, Note_on_c, 0, 71, 60
2, 152768, Note_off_c, 0, 71, 100
2, 152832, Note_on_c, 0, 71, 60
2, 152960, Note_off_c, 0, 71, 100
2, 153024, Note_on_c, 0, 70, 60
2, 153152, Note_off_c, 0, 70, 100
2, 153408, Note_on_c, 0, 70, 60
2, 153536, Note_off_c, 0, 70, 100
2, 153600, Note_on_c, 0, 70, 61
2, 153728, Note_off_c, 0, 70, 100
2, 153792, Note_on_c, 0, 80, 62
2, 153920, Note_off_c, 0, 80, 100
2, 154176, Note_on_c, 0, 80, 64
2, 154304, Note_off_c, 0, 80, 100
2, 154368, Note_on_c, 0, 80, 66
2, 154496, Note_off_c, 0, 80, 100
2, 154560, Note_on_c, 0, 78, 67
2, 154688, Note_off_c, 0, 78, 100
2, 154944, Note_on_c, 0, 78, 68
2, 155072, Note_off_c, 0, 78, 100
2, 155136, Note_on_c, 0, 78, 72
2, 155264, Note_off_c, 0, 78, 100
2, 155328, Note_on_c, 0, 77, 74
2, 155456, Note_off_c, 0, 77, 100
2, 155712, Note_on_c, 0, 77, 78
2, 155840, Note_off_c, 0, 77, 100
2, 155904, Note_on_c, 0, 77, 80
2, 156032, Note_off_c, 0, 77, 100
2, 156096, Note_on_c, 0, 76, 84
2, 156224, Note_off_c, 0, 76, 100
2, 156480, Note_on_c, 0, 76, 86
2, 156608, Note_off_c, 0, 76, 100
2, 156672, Note_on_c, 0, 82, 90
2, 157056, Note_off_c, 0, 82, 100
2, 157056, Note_on_c, 0, 84, 90
2, 157088, Note_off_c, 0, 84, 100
2, 157104, Note_on_c, 0, 82, 90
2, 157136, Note_off_c, 0, 82, 100
2, 157152, Note_on_c, 0, 81, 90
2, 157184, Note_off_c, 0, 81, 100
2, 157200, Note_on_c, 0, 82, 90
2, 157232, Note_off_c, 0, 82, 100
2, 157248, Note_on_c, 0, 84, 90
2, 157376, Note_off_c, 0, 84, 100
2, 157440, Note_on_c, 0, 85, 90
2, 157696, Note_off_c, 0, 85, 100
2, 157824, Note_on_c, 0, 76, 90
2, 158080, Note_off_c, 0, 76, 100
2, 158208, Note_on_c, 0, 77, 90
2, 158336, Note_off_c, 0, 77, 100
2, 158400, Note_on_c, 0, 76, 90
2, 158528, Note_off_c, 0, 76, 100
2, 158592, Note_on_c, 0, 77, 90
2, 158720, Note_off_c, 0, 77, 100
2, 158784, Note_on_c, 0, 72, 90
2, 158912, Note_off_c, 0, 72, 100
2, 158976, Note_on_c, 0, 75, 90
2, 159104, Note_off_c, 0, 75, 100
2, 159168, Note_on_c, 0, 73, 90
2, 159296, Note_off_c, 0, 73, 100
2, 159360, Note_on_c, 0, 72, 90
2, 159488, Note_off_c, 0, 72, 100
2, 159552, Note_on_c, 0, 70, 90
2, 159680, Note_off_c, 0, 70, 100
2, 159744, Note_on_c, 0, 78, 90
2, 159872, Note_off_c, 0, 78, 100
2, 159936, Note_on_c, 0, 77, 90
2, 160064, Note_off_c, 0, 77, 100
2, 160128, Note_on_c, 0, 76, 90
2, 160256, Note_off_c, 0, 76, 100
2, 160320, Note_on_c, 0, 77, 90
2, 160448, Note_off_c, 0, 77, 100
2, 160512, Note_on_c, 0, 75, 90
2, 160640, Note_off_c, 0, 75, 100
2, 160704, Note_on_c, 0, 73, 90
2, 160832, Note_off_c, 0, 73, 100
2, 160896, Note_on_c, 0, 72, 90
2, 161024, Note_off_c, 0, 72, 100
2, 161088, Note_on_c, 0, 70, 90
2, 161216, Note_off_c, 0, 70, 100
2, 161280, Note_on_c, 0, 72, 60
2, 161280, Note_on_c, 0, 69, 60
2, 161536, Note_off_c, 0, 72, 100
2, 161536, Note_off_c, 0, 69, 100
2, 161664, Note_on_c, 0, 73, 60
2, 161664, Note_on_c, 0, 70, 60
2, 161920, Note_off_c, 0, 73, 100
2, 161920, Note_off_c, 0, 70, 100
2, 162048, Note_on_c, 0, 72, 60
2, 162048, Note_on_c, 0, 69, 60
2, 162304, Note_off_c, 0, 72, 100
2, 162304, Note_off_c, 0, 69, 100
2, 162432, Note_on_c, 0, 70, 60
2, 162432, Note_on_c, 0, 76, 60
2, 162688, Note_off_c, 0, 70, 100
2, 162688, Note_off_c, 0, 76, 100
2, 162816, Note_on_c, 0, 77, 60
2, 162816, Note_on_c, 0, 69, 60
2, 163072, Note_off_c, 0, 77, 100
2, 163072, Note_off_c, 0, 69, 100
2, 163200, Note_on_c, 0, 73, 60
2, 163200, Note_on_c, 0, 70, 60
2, 163456, Note_off_c, 0, 73, 100
2, 163456, Note_off_c, 0, 70, 100
2, 163584, Note_on_c, 0, 72, 60
2, 163584, Note_on_c, 0, 69, 60
2, 163840, Note_off_c, 0, 72, 100
2, 163840, Note_off_c, 0, 69, 100
2, 163968, Note_on_c, 0, 76, 60
2, 163968, Note_on_c, 0, 70, 60
2, 164224, Note_off_c, 0, 76, 100
2, 164224, Note_off_c, 0, 70, 100
2, 164352, Note_on_c, 0, 77, 60
2, 164352, Note_on_c, 0, 69, 60
2, 164480, Note_off_c, 0, 77, 100
2, 164480, Note_off_c, 0, 69, 100
2, 164544, Note_on_c, 0, 77, 60
2, 164672, Note_off_c, 0, 77, 100
2, 164928, Note_on_c, 0, 77, 60
2, 165056, Note_off_c, 0, 77, 100
2, 165120, Note_on_c, 0, 77, 60
2, 165248, Note_off_c, 0, 77, 100
2, 165312, Note_on_c, 0, 77, 60
2, 165440, Note_off_c, 0, 77, 100
2, 165696, Note_on_c, 0, 77, 60
2, 165824, Note_off_c, 0, 77, 100
2, 165888, Note_on_c, 0, 77, 60
2, 166016, Note_off_c, 0, 77, 100
2, 166080, Note_on_c, 0, 77, 60
2, 166208, Note_off_c, 0, 77, 100
2, 166464, Note_on_c, 0, 77, 60
2, 166592, Note_off_c, 0, 77, 100
2, 166656, Note_on_c, 0, 77, 60
2, 166784, Note_off_c, 0, 77, 100
2, 166848, Note_on_c, 0, 77, 60
2, 166976, Note_off_c, 0, 77, 100
2, 167232, Note_on_c, 0, 77, 60
2, 167360, Note_off_c, 0, 77, 100
2, 167424, Note_on_c, 0, 77, 60
2, 167552, Note_off_c, 0, 77, 100
2, 167616, Note_on_c, 0, 77, 60
2, 167744, Note_off_c, 0, 77, 100
2, 168000, Note_on_c, 0, 77, 60
2, 168128, Note_off_c, 0, 77, 100
2, 168192, Note_on_c, 0, 77, 60
2, 168320, Note_off_c, 0, 77, 100
2, 168384, Note_on_c, 0, 77, 60
2, 168512, Note_off_c, 0, 77, 100
2, 168768, Note_on_c, 0, 77, 60
2, 168896, Note_off_c, 0, 77, 100
2, 168960, Note_on_c, 0, 77, 90
2, 169088, Note_off_c, 0, 77, 100
2, 169152, Note_on_c, 0, 65, 90
2, 169280, Note_off_c, 0, 65, 100
2, 169344, Note_on_c, 0, 64, 90
2, 169472, Note_off_c, 0, 64, 100
2, 169536, Note_on_c, 0, 65, 90
2, 169664, Note_off_c, 0, 65, 100
2, 169728, Note_on_c, 0, 66, 90
2, 169856, Note_off_c, 0, 66, 100
2, 169920, Note_on_c, 0, 67, 90
2, 170048, Note_off_c, 0, 67, 100
2, 170112, Note_on_c, 0, 68, 90
2, 170240, Note_off_c, 0, 68, 100
2, 170304, Note_on_c, 0, 69, 90
2, 170432, Note_off_c, 0, 69, 100
2, 170496, Note_on_c, 0, 70, 84
2, 170624, Note_off_c, 0, 70, 100
2, 170688, Note_on_c, 0, 71, 80
2, 170816, Note_off_c, 0, 71, 100
2, 170880, Note_on_c, 0, 72, 78
2, 171008, Note_off_c, 0, 72, 100
2, 171072, Note_on_c, 0, 73, 74
2, 171200, Note_off_c, 0, 73, 100
2, 171264, Note_on_c, 0, 74, 72
2, 171392, Note_off_c, 0, 74, 100
2, 171456, Note_on_c, 0, 75, 68
2, 171584, Note_off_c, 0, 75, 100
2, 171648, Note_on_c, 0, 76, 66
2, 171776, Note_off_c, 0, 76, 100
2, 171840, Note_on_c, 0, 77, 62
2, 171968, Note_off_c, 0, 77, 100
2, 172032, Note_on_c, 0, 77, 60
2, 172416, Note_off_c, 0, 77, 100
2, 172608, Note_on_c, 0, 74, 60
2, 172736, Note_off_c, 0, 74, 100
2, 172800, Note_on_c, 0, 70, 60
2, 173056, Note_off_c, 0, 70, 100
2, 173184, Note_on_c, 0, 70, 60
2, 173440, Note_off_c, 0, 70, 100
2, 173568, Note_on_c, 0, 75, 60
2, 173824, Note_off_c, 0, 75, 100
2, 173952, Note_on_c, 0, 79, 60
2, 174208, Note_off_c, 0, 79, 100
2, 174336, Note_on_c, 0, 69, 60
2, 174592, Note_off_c, 0, 69, 100
2, 174912, Note_on_c, 0, 69, 60
2, 175040, Note_off_c, 0, 69, 100
2, 175104, Note_on_c, 0, 72, 60
2, 175232, Note_off_c, 0, 72, 100
2, 175296, Note_on_c, 0, 70, 60
2, 175424, Note_off_c, 0, 70, 100
2, 175488, Note_on_c, 0, 74, 60
2, 175616, Note_off_c, 0, 74, 100
2, 175680, Note_on_c, 0, 72, 60
2, 175808, Note_off_c, 0, 72, 100
2, 175872, Note_on_c, 0, 75, 60
2, 176000, Note_off_c, 0, 75, 100
2, 176064, Note_on_c, 0, 74, 60
2, 176192, Note_off_c, 0, 74, 100
2, 176256, Note_on_c, 0, 77, 60
2, 176384, Note_off_c, 0, 77, 100
2, 176448, Note_on_c, 0, 75, 60
2, 176576, Note_off_c, 0, 75, 100
2, 176640, Note_on_c, 0, 74, 60
2, 177024, Note_off_c, 0, 74, 100
2, 177216, Note_on_c, 0, 75, 60
2, 177280, Note_off_c, 0, 75, 100
2, 177312, Note_on_c, 0, 74, 60
2, 177376, Note_off_c, 0, 74, 100
2, 177408, Note_on_c, 0, 72, 60
2, 177536, Note_off_c, 0, 72, 100
2, 177600, Note_on_c, 0, 74, 60
2, 177728, Note_off_c, 0, 74, 100
2, 177792, Note_on_c, 0, 75, 60
2, 177920, Note_off_c, 0, 75, 100
2, 177984, Note_on_c, 0, 76, 60
2, 178112, Note_off_c, 0, 76, 100
2, 178176, Note_on_c, 0, 77, 60
2, 178560, Note_off_c, 0, 77, 100
2, 178656, Note_on_c, 0, 75, 60
2, 178720, Note_off_c, 0, 75, 100
2, 178752, Note_on_c, 0, 74, 60
2, 178816, Note_off_c, 0, 74, 100
2, 178848, Note_on_c, 0, 72, 60
2, 178912, Note_off_c, 0, 72, 100
2, 178944, Note_on_c, 0, 70, 60
2, 179200, Note_off_c, 0, 70, 100
2, 179328, Note_on_c, 0, 70, 60
2, 179584, Note_off_c, 0, 70, 100
2, 179712, Note_on_c, 0, 75, 60
2, 179968, Note_off_c, 0, 75, 100
2, 180096, Note_on_c, 0, 79, 60
2, 180352, Note_off_c, 0, 79, 100
2, 180480, Note_on_c, 0, 69, 60
2, 180736, Note_off_c, 0, 69, 100
2, 181056, Note_on_c, 0, 69, 60
2, 181184, Note_off_c, 0, 69, 100
2, 181248, Note_on_c, 0, 70, 60
2, 181376, Note_off_c, 0, 70, 100
2, 181440, Note_on_c, 0, 74, 60
2, 181568, Note_off_c, 0, 74, 100
2, 181632, Note_on_c, 0, 67, 60
2, 181760, Note_off_c, 0, 67, 100
2, 181824, Note_on_c, 0, 72, 60
2, 181952, Note_off_c, 0, 72, 100
2, 182016, Note_on_c, 0, 70, 60
2, 182272, Note_off_c, 0, 70, 100
2, 182400, Note_on_c, 0, 69, 60
2, 182656, Note_off_c, 0, 69, 100
2, 182784, Note_on_c, 0, 70, 60
2, 182912, Note_off_c, 0, 70, 100
2, 182976, Note_on_c, 0, 65, 60
2, 183104, Note_off_c, 0, 65, 100
2, 183168, Note_on_c, 0, 67, 60
2, 183296, Note_off_c, 0, 67, 100
2, 183360, Note_on_c, 0, 69, 60
2, 183488, Note_off_c, 0, 69, 100
2, 183552, Note_on_c, 0, 70, 60
2, 183680, Note_off_c, 0, 70, 100
2, 183744, Note_on_c, 0, 72, 60
2, 183872, Note_off_c, 0, 72, 100
2, 183936, Note_on_c, 0, 74, 60
2, 184064, Note_off_c, 0, 74, 100
2, 184128, Note_on_c, 0, 75, 60
2, 184256, Note_off_c, 0, 75, 100
2, 184320, Note_on_c, 0, 77, 90
2, 184704, Note_off_c, 0, 77, 100
2, 184896, Note_on_c, 0, 74, 90
2, 185024, Note_off_c, 0, 74, 100
2, 185088, Note_on_c, 0, 70, 90
2, 185344, Note_off_c, 0, 70, 100
2, 185472, Note_on_c, 0, 70, 90
2, 185728, Note_off_c, 0, 70, 100
2, 185856, Note_on_c, 0, 75, 90
2, 186048, Note_on_c, 0, 77, 90
2, 186080, Note_off_c, 0, 77, 100
2, 186096, Note_on_c, 0, 75, 90
2, 186112, Note_off_c, 0, 75, 100
2, 186128, Note_off_c, 0, 75, 100
2, 186144, Note_on_c, 0, 74, 90
2, 186176, Note_off_c, 0, 74, 100
2, 186192, Note_on_c, 0, 75, 90
2, 186224, Note_off_c, 0, 75, 100
2, 186240, Note_on_c, 0, 79, 90
2, 186496, Note_off_c, 0, 79, 100
2, 186624, Note_on_c, 0, 69, 90
2, 186880, Note_off_c, 0, 69, 100
2, 187200, Note_on_c, 0, 69, 90
2, 187328, Note_off_c, 0, 69, 100
2, 187392, Note_on_c, 0, 72, 90
2, 187520, Note_off_c, 0, 72, 100
2, 187584, Note_on_c, 0, 70, 90
2, 187712, Note_off_c, 0, 70, 100
2, 187776, Note_on_c, 0, 74, 90
2, 187904, Note_off_c, 0, 74, 100
2, 187968, Note_on_c, 0, 72, 90
2, 188096, Note_off_c, 0, 72, 100
2, 188160, Note_on_c, 0, 75, 90
2, 188288, Note_off_c, 0, 75, 100
2, 188352, Note_on_c, 0, 74, 90
2, 188480, Note_off_c, 0, 74, 100
2, 188544, Note_on_c, 0, 77, 90
2, 188672, Note_off_c, 0, 77, 100
2, 188736, Note_on_c, 0, 75, 90
2, 188864, Note_off_c, 0, 75, 100
2, 188928, Note_on_c, 0, 74, 90
2, 189312, Note_off_c, 0, 74, 100
2, 189504, Note_on_c, 0, 75, 90
2, 189568, Note_off_c, 0, 75, 100
2, 189600, Note_on_c, 0, 74, 90
2, 189664, Note_off_c, 0, 74, 100
2, 189696, Note_on_c, 0, 72, 90
2, 189824, Note_off_c, 0, 72, 100
2, 189888, Note_on_c, 0, 74, 90
2, 190016, Note_off_c, 0, 74, 100
2, 190080, Note_on_c, 0, 75, 90
2, 190208, Note_off_c, 0, 75, 100
2, 190272, Note_on_c, 0, 76, 90
2, 190400, Note_off_c, 0, 76, 100
2, 190464, Note_on_c, 0, 77, 90
2, 190848, Note_off_c, 0, 77, 100
2, 190944, Note_on_c, 0, 75, 90
2, 191008, Note_off_c, 0, 75, 100
2, 191040, Note_on_c, 0, 74, 90
2, 191104, Note_off_c, 0, 74, 100
2, 191136, Note_on_c, 0, 72, 90
2, 191200, Note_off_c, 0, 72, 100
2, 191232, Note_on_c, 0, 70, 90
2, 191360, Note_off_c, 0, 70, 100
2, 191424, Note_on_c, 0, 70, 90
2, 191552, Note_off_c, 0, 70, 100
2, 191616, Note_on_c, 0, 70, 90
2, 191744, Note_off_c, 0, 70, 100
2, 191808, Note_on_c, 0, 70, 90
2, 191936, Note_off_c, 0, 70, 100
2, 192000, Note_on_c, 0, 75, 90
2, 192192, Note_on_c, 0, 77, 90
2, 192224, Note_off_c, 0, 77, 100
2, 192240, Note_on_c, 0, 75, 90
2, 192256, Note_off_c, 0, 75, 100
2, 192272, Note_off_c, 0, 75, 100
2, 192288, Note_on_c, 0, 74, 90
2, 192320, Note_off_c, 0, 74, 100
2, 192336, Note_on_c, 0, 75, 90
2, 192368, Note_off_c, 0, 75, 100
2, 192384, Note_on_c, 0, 79, 90
2, 192640, Note_off_c, 0, 79, 100
2, 192768, Note_on_c, 0, 69, 90
2, 193024, Note_off_c, 0, 69, 100
2, 193344, Note_on_c, 0, 81, 90
2, 193472, Note_off_c, 0, 81, 100
2, 193536, Note_on_c, 0, 82, 90
2, 193632, Note_off_c, 0, 82, 100
2, 193664, Note_on_c, 0, 77, 90
2, 193760, Note_off_c, 0, 77, 100
2, 193792, Note_on_c, 0, 74, 90
2, 193888, Note_off_c, 0, 74, 100
2, 193920, Note_on_c, 0, 79, 90
2, 194016, Note_off_c, 0, 79, 100
2, 194048, Note_on_c, 0, 75, 90
2, 194144, Note_off_c, 0, 75, 100
2, 194176, Note_on_c, 0, 72, 90
2, 194272, Note_off_c, 0, 72, 100
2, 194304, Note_on_c, 0, 77, 90
2, 194400, Note_off_c, 0, 77, 100
2, 194432, Note_on_c, 0, 74, 90
2, 194528, Note_off_c, 0, 74, 100
2, 194560, Note_on_c, 0, 70, 90
2, 194656, Note_off_c, 0, 70, 100
2, 194688, Note_on_c, 0, 75, 90
2, 194784, Note_off_c, 0, 75, 100
2, 194816, Note_on_c, 0, 72, 90
2, 194912, Note_off_c, 0, 72, 100
2, 194944, Note_on_c, 0, 69, 90
2, 195040, Note_off_c, 0, 69, 100
2, 195072, Note_on_c, 0, 70, 90
2, 195328, Note_off_c, 0, 70, 100
2, 195648, Note_on_c, 0, 65, 60
2, 195776, Note_off_c, 0, 65, 100
2, 195840, Note_on_c, 0, 70, 60
2, 195968, Note_off_c, 0, 70, 100
2, 196032, Note_on_c, 0, 69, 60
2, 196160, Note_off_c, 0, 69, 100
2, 196224, Note_on_c, 0, 70, 60
2, 196352, Note_off_c, 0, 70, 100
2, 196416, Note_on_c, 0, 72, 60
2, 196544, Note_off_c, 0, 72, 100
2, 196608, Note_on_c, 0, 74, 60
2, 196864, Note_off_c, 0, 74, 100
2, 196992, Note_on_c, 0, 74, 60
2, 196992, Note_on_c, 0, 70, 60
2, 197248, Note_off_c, 0, 74, 100
2, 197248, Note_off_c, 0, 70, 100
2, 197376, Note_on_c, 0, 74, 60
2, 197376, Note_on_c, 0, 70, 60
2, 197632, Note_off_c, 0, 74, 100
2, 197632, Note_off_c, 0, 70, 100
2, 197760, Note_on_c, 0, 75, 60
2, 197760, Note_on_c, 0, 72, 60
2, 198016, Note_off_c, 0, 75, 100
2, 198016, Note_off_c, 0, 72, 100
2, 198144, Note_on_c, 0, 72, 60
2, 198144, Note_on_c, 0, 69, 60
2, 198400, Note_off_c, 0, 72, 100
2, 198400, Note_off_c, 0, 69, 100
2, 198720, Note_on_c, 0, 65, 60
2, 198848, Note_off_c, 0, 65, 100
2, 198912, Note_on_c, 0, 72, 60
2, 199040, Note_off_c, 0, 72, 100
2, 199104, Note_on_c, 0, 70, 60
2, 199232, Note_off_c, 0, 70, 100
2, 199296, Note_on_c, 0, 72, 60
2, 199424, Note_off_c, 0, 72, 100
2, 199488, Note_on_c, 0, 74, 60
2, 199616, Note_off_c, 0, 74, 100
2, 199680, Note_on_c, 0, 75, 60
2, 199936, Note_off_c, 0, 75, 100
2, 200064, Note_on_c, 0, 75, 60
2, 200064, Note_on_c, 0, 67, 60
2, 200320, Note_off_c, 0, 75, 100
2, 200320, Note_off_c, 0, 67, 100
2, 200448, Note_on_c, 0, 75, 60
2, 200448, Note_on_c, 0, 72, 60
2, 200704, Note_off_c, 0, 75, 100
2, 200704, Note_off_c, 0, 72, 100
2, 200832, Note_on_c, 0, 77, 60
2, 200832, Note_on_c, 0, 69, 60
2, 201088, Note_off_c, 0, 77, 100
2, 201088, Note_off_c, 0, 69, 100
2, 201216, Note_on_c, 0, 74, 60
2, 201216, Note_on_c, 0, 70, 60
2, 201472, Note_off_c, 0, 74, 100
2, 201472, Note_off_c, 0, 70, 100
2, 201792, Note_on_c, 0, 70, 60
2, 201920, Note_off_c, 0, 70, 100
2, 201984, Note_on_c, 0, 74, 60
2, 202112, Note_off_c, 0, 74, 100
2, 202176, Note_on_c, 0, 75, 60
2, 202304, Note_off_c, 0, 75, 100
2, 202368, Note_on_c, 0, 77, 60
2, 202496, Note_off_c, 0, 77, 100
2, 202560, Note_on_c, 0, 79, 60
2, 202688, Note_off_c, 0, 79, 100
2, 202752, Note_on_c, 0, 80, 60
2, 203008, Note_off_c, 0, 80, 100
2, 203136, Note_on_c, 0, 68, 90
2, 203136, Note_on_c, 0, 65, 90
2, 203136, Note_on_c, 0, 59, 90
2, 203392, Note_off_c, 0, 68, 100
2, 203392, Note_off_c, 0, 65, 100
2, 203392, Note_off_c, 0, 59, 100
2, 203520, Note_on_c, 0, 68, 90
2, 203520, Note_on_c, 0, 59, 90
2, 203520, Note_on_c, 0, 65, 90
2, 203776, Note_off_c, 0, 68, 100
2, 203776, Note_off_c, 0, 59, 100
2, 203776, Note_off_c, 0, 65, 100
2, 203904, Note_on_c, 0, 68, 90
2, 203904, Note_on_c, 0, 65, 90
2, 203904, Note_on_c, 0, 60, 90
2, 204160, Note_off_c, 0, 68, 100
2, 204160, Note_off_c, 0, 65, 100
2, 204160, Note_off_c, 0, 60, 100
2, 204288, Note_on_c, 0, 67, 90
2, 204288, Note_on_c, 0, 65, 90
2, 204288, Note_on_c, 0, 62, 90
2, 204544, Note_off_c, 0, 67, 100
2, 204544, Note_off_c, 0, 65, 100
2, 204544, Note_off_c, 0, 62, 100
2, 204864, Note_on_c, 0, 74, 60
2, 204992, Note_off_c, 0, 74, 100
2, 205056, Note_on_c, 0, 79, 60
2, 205184, Note_off_c, 0, 79, 100
2, 205248, Note_on_c, 0, 78, 60
2, 205376, Note_off_c, 0, 78, 100
2, 205440, Note_on_c, 0, 79, 60
2, 205568, Note_off_c, 0, 79, 100
2, 205632, Note_on_c, 0, 74, 60
2, 205760, Note_off_c, 0, 74, 100
2, 205824, Note_on_c, 0, 77, 60
2, 205952, Note_off_c, 0, 77, 100
2, 206016, Note_on_c, 0, 75, 60
2, 206144, Note_off_c, 0, 75, 100
2, 206400, Note_on_c, 0, 67, 60
2, 206528, Note_off_c, 0, 67, 100
2, 206592, Note_on_c, 0, 72, 60
2, 206656, Note_off_c, 0, 72, 100
2, 206688, Note_on_c, 0, 71, 60
2, 206752, Note_off_c, 0, 71, 100
2, 206784, Note_on_c, 0, 74, 60
2, 206848, Note_off_c, 0, 74, 100
2, 206864, Note_on_c, 0, 72, 60
2, 206928, Note_off_c, 0, 72, 100
2, 206976, Note_on_c, 0, 75, 60
2, 207040, Note_off_c, 0, 75, 100
2, 207088, Note_on_c, 0, 74, 60
2, 207152, Note_off_c, 0, 74, 100
2, 207168, Note_on_c, 0, 77, 60
2, 207232, Note_off_c, 0, 77, 100
2, 207264, Note_on_c, 0, 75, 60
2, 207328, Note_off_c, 0, 75, 100
2, 207360, Note_on_c, 0, 79, 90
2, 207616, Note_off_c, 0, 79, 100
2, 207744, Note_on_c, 0, 67, 90
2, 207744, Note_on_c, 0, 60, 90
2, 207744, Note_on_c, 0, 63, 90
2, 208000, Note_off_c, 0, 67, 100
2, 208000, Note_off_c, 0, 60, 100
2, 208000, Note_off_c, 0, 63, 100
2, 208128, Note_on_c, 0, 67, 90
2, 208128, Note_on_c, 0, 63, 90
2, 208128, Note_on_c, 0, 60, 90
2, 208384, Note_off_c, 0, 67, 100
2, 208384, Note_off_c, 0, 63, 100
2, 208384, Note_off_c, 0, 60, 100
2, 208512, Note_on_c, 0, 66, 90
2, 208512, Note_on_c, 0, 63, 90
2, 208512, Note_on_c, 0, 60, 90
2, 208768, Note_off_c, 0, 66, 100
2, 208768, Note_off_c, 0, 63, 100
2, 208768, Note_off_c, 0, 60, 100
2, 208896, Note_on_c, 0, 63, 90
2, 208896, Note_on_c, 0, 60, 90
2, 208896, Note_on_c, 0, 65, 90
2, 209152, Note_off_c, 0, 63, 100
2, 209152, Note_off_c, 0, 60, 100
2, 209152, Note_off_c, 0, 65, 100
2, 209472, Note_on_c, 0, 72, 60
2, 209600, Note_off_c, 0, 72, 100
2, 209664, Note_on_c, 0, 77, 60
2, 209792, Note_off_c, 0, 77, 100
2, 209856, Note_on_c, 0, 76, 60
2, 209984, Note_off_c, 0, 76, 100
2, 210048, Note_on_c, 0, 77, 60
2, 210176, Note_off_c, 0, 77, 100
2, 210240, Note_on_c, 0, 72, 60
2, 210368, Note_off_c, 0, 72, 100
2, 210432, Note_on_c, 0, 75, 60
2, 210560, Note_off_c, 0, 75, 100
2, 210624, Note_on_c, 0, 74, 60
2, 210752, Note_off_c, 0, 74, 100
2, 210944, Note_on_c, 0, 82, 90
2, 211040, Note_off_c, 0, 82, 100
2, 211072, Note_on_c, 0, 81, 90
2, 211168, Note_off_c, 0, 81, 100
2, 211200, Note_on_c, 0, 82, 90
2, 211296, Note_off_c, 0, 82, 100
2, 211328, Note_on_c, 0, 81, 90
2, 211424, Note_off_c, 0, 81, 100
2, 211456, Note_on_c, 0, 79, 90
2, 211552, Note_off_c, 0, 79, 100
2, 211584, Note_on_c, 0, 77, 90
2, 211680, Note_off_c, 0, 77, 100
2, 211712, Note_on_c, 0, 75, 90
2, 211808, Note_off_c, 0, 75, 100
2, 211840, Note_on_c, 0, 74, 90
2, 211968, Note_on_c, 0, 72, 90
2, 211972, Note_off_c, 0, 74, 100
2, 212224, Note_off_c, 0, 72, 100
2, 212480, Note_on_c, 0, 72, 90
2, 212576, Note_off_c, 0, 72, 100
2, 212608, Note_on_c, 0, 74, 90
2, 212704, Note_off_c, 0, 74, 100
2, 212736, Note_on_c, 0, 75, 90
2, 212832, Note_off_c, 0, 75, 100
2, 212864, Note_on_c, 0, 74, 90
2, 212960, Note_off_c, 0, 74, 100
2, 212992, Note_on_c, 0, 72, 90
2, 213088, Note_off_c, 0, 72, 100
2, 213120, Note_on_c, 0, 79, 90
2, 213216, Note_off_c, 0, 79, 100
2, 213248, Note_on_c, 0, 77, 90
2, 213344, Note_off_c, 0, 77, 100
2, 213376, Note_on_c, 0, 75, 90
2, 213472, Note_off_c, 0, 75, 100
2, 213504, Note_on_c, 0, 74, 90
2, 213760, Note_off_c, 0, 74, 100
2, 214016, Note_on_c, 0, 82, 90
2, 214112, Note_off_c, 0, 82, 100
2, 214144, Note_on_c, 0, 81, 90
2, 214240, Note_off_c, 0, 81, 100
2, 214272, Note_on_c, 0, 82, 90
2, 214368, Note_off_c, 0, 82, 100
2, 214400, Note_on_c, 0, 80, 90
2, 214496, Note_off_c, 0, 80, 100
2, 214528, Note_on_c, 0, 79, 90
2, 214624, Note_off_c, 0, 79, 100
2, 214656, Note_on_c, 0, 79, 90
2, 214752, Note_off_c, 0, 79, 100
2, 214784, Note_on_c, 0, 77, 90
2, 214880, Note_off_c, 0, 77, 100
2, 214912, Note_on_c, 0, 74, 90
2, 215008, Note_off_c, 0, 74, 100
2, 215040, Note_on_c, 0, 75, 90
2, 215296, Note_off_c, 0, 75, 100
2, 215552, Note_on_c, 0, 75, 90
2, 215648, Note_off_c, 0, 75, 100
2, 215680, Note_on_c, 0, 77, 90
2, 215776, Note_off_c, 0, 77, 100
2, 215808, Note_on_c, 0, 79, 90
2, 215904, Note_off_c, 0, 79, 100
2, 215936, Note_on_c, 0, 77, 90
2, 216032, Note_off_c, 0, 77, 100
2, 216064, Note_on_c, 0, 75, 90
2, 216160, Note_off_c, 0, 75, 100
2, 216192, Note_on_c, 0, 82, 90
2, 216288, Note_off_c, 0, 82, 100
2, 216320, Note_on_c, 0, 80, 90
2, 216416, Note_off_c, 0, 80, 100
2, 216448, Note_on_c, 0, 79, 90
2, 216544, Note_off_c, 0, 79, 100
2, 216576, Note_on_c, 0, 77, 90
2, 216832, Note_off_c, 0, 77, 100
2, 217088, Note_on_c, 0, 82, 90
2, 217184, Note_off_c, 0, 82, 100
2, 217216, Note_on_c, 0, 81, 90
2, 217312, Note_off_c, 0, 81, 100
2, 217344, Note_on_c, 0, 82, 90
2, 217440, Note_off_c, 0, 82, 100
2, 217472, Note_on_c, 0, 80, 90
2, 217568, Note_off_c, 0, 80, 100
2, 217600, Note_on_c, 0, 79, 90
2, 217696, Note_off_c, 0, 79, 100
2, 217728, Note_on_c, 0, 77, 90
2, 217824, Note_off_c, 0, 77, 100
2, 217856, Note_on_c, 0, 79, 90
2, 217952, Note_off_c, 0, 79, 100
2, 217984, Note_on_c, 0, 80, 90
2, 218080, Note_off_c, 0, 80, 100
2, 218112, Note_on_c, 0, 79, 90
2, 218208, Note_off_c, 0, 79, 100
2, 218240, Note_on_c, 0, 82, 90
2, 218336, Note_off_c, 0, 82, 100
2, 218368, Note_on_c, 0, 81, 90
2, 218464, Note_off_c, 0, 81, 100
2, 218496, Note_on_c, 0, 79, 90
2, 218592, Note_off_c, 0, 79, 100
2, 218624, Note_on_c, 0, 81, 90
2, 218720, Note_off_c, 0, 81, 100
2, 218752, Note_on_c, 0, 82, 90
2, 218848, Note_off_c, 0, 82, 100
2, 218880, Note_on_c, 0, 75, 90
2, 218976, Note_off_c, 0, 75, 100
2, 219008, Note_on_c, 0, 79, 90
2, 219104, Note_off_c, 0, 79, 100
2, 219136, Note_on_c, 0, 77, 90
2, 219232, Note_off_c, 0, 77, 100
2, 219264, Note_on_c, 0, 75, 90
2, 219360, Note_off_c, 0, 75, 100
2, 219392, Note_on_c, 0, 77, 90
2, 219488, Note_off_c, 0, 77, 100
2, 219520, Note_on_c, 0, 79, 90
2, 219616, Note_off_c, 0, 79, 100
2, 219648, Note_on_c, 0, 72, 90
2, 219744, Note_off_c, 0, 72, 100
2, 219776, Note_on_c, 0, 75, 90
2, 219872, Note_off_c, 0, 75, 100
2, 219904, Note_on_c, 0, 74, 90
2, 220000, Note_off_c, 0, 74, 100
2, 220032, Note_on_c, 0, 72, 90
2, 220128, Note_off_c, 0, 72, 100
2, 220160, Note_on_c, 0, 74, 90
2, 220256, Note_off_c, 0, 74, 100
2, 220288, Note_on_c, 0, 75, 90
2, 220384, Note_off_c, 0, 75, 100
2, 220416, Note_on_c, 0, 67, 90
2, 220512, Note_off_c, 0, 67, 100
2, 220544, Note_on_c, 0, 70, 90
2, 220640, Note_off_c, 0, 70, 100
2, 220672, Note_on_c, 0, 69, 90
2, 220768, Note_off_c, 0, 69, 100
2, 220800, Note_on_c, 0, 67, 90
2, 220896, Note_off_c, 0, 67, 100
2, 220928, Note_on_c, 0, 69, 90
2, 221024, Note_off_c, 0, 69, 100
2, 221056, Note_on_c, 0, 70, 90
2, 221152, Note_off_c, 0, 70, 100
2, 221184, Note_on_c, 0, 69, 90
2, 221248, Note_off_c, 0, 69, 100
2, 221280, Note_on_c, 0, 65, 90
2, 221344, Note_off_c, 0, 65, 100
2, 221376, Note_on_c, 0, 67, 90
2, 221440, Note_off_c, 0, 67, 100
2, 221472, Note_on_c, 0, 69, 90
2, 221536, Note_off_c, 0, 69, 100
2, 221568, Note_on_c, 0, 70, 90
2, 221632, Note_off_c, 0, 70, 100
2, 221664, Note_on_c, 0, 72, 90
2, 221728, Note_off_c, 0, 72, 100
2, 221760, Note_on_c, 0, 74, 90
2, 221824, Note_off_c, 0, 74, 100
2, 221856, Note_on_c, 0, 76, 90
2, 221920, Note_off_c, 0, 76, 100
2, 221952, Note_on_c, 0, 77, 90
2, 222016, Note_off_c, 0, 77, 100
2, 222080, Note_on_c, 0, 79, 90
2, 222144, Note_off_c, 0, 79, 100
2, 222144, Note_on_c, 0, 81, 90
2, 222208, Note_off_c, 0, 81, 100
2, 222240, Note_on_c, 0, 82, 90
2, 222304, Note_off_c, 0, 82, 100
2, 222336, Note_on_c, 0, 84, 90
2, 222464, Note_off_c, 0, 84, 100
2, 222528, Note_on_c, 0, 75, 90
2, 222656, Note_off_c, 0, 75, 100
2, 222720, Note_on_c, 0, 74, 90
2, 222784, Note_off_c, 0, 74, 100
2, 222816, Note_on_c, 0, 70, 90
2, 222880, Note_off_c, 0, 70, 100
2, 222912, Note_on_c, 0, 72, 90
2, 222976, Note_off_c, 0, 72, 100
2, 223008, Note_on_c, 0, 74, 90
2, 223072, Note_off_c, 0, 74, 100
2, 223104, Note_on_c, 0, 75, 90
2, 223168, Note_off_c, 0, 75, 100
2, 223200, Note_on_c, 0, 77, 90
2, 223264, Note_off_c, 0, 77, 100
2, 223296, Note_on_c, 0, 79, 90
2, 223360, Note_off_c, 0, 79, 100
2, 223392, Note_on_c, 0, 81, 90
2, 223456, Note_off_c, 0, 81, 100
2, 223488, Note_on_c, 0, 82, 90
2, 223552, Note_off_c, 0, 82, 100
2, 223584, Note_on_c, 0, 84, 90
2, 223648, Note_off_c, 0, 84, 100
2, 223680, Note_on_c, 0, 86, 90
2, 223744, Note_off_c, 0, 86, 100
2, 223776, Note_on_c, 0, 87, 90
2, 223840, Note_off_c, 0, 87, 100
2, 223872, Note_on_c, 0, 89, 90
2, 224000, Note_off_c, 0, 89, 100
2, 224064, Note_on_c, 0, 82, 90
2, 224192, Note_off_c, 0, 82, 100
2, 224256, Note_on_c, 0, 81, 90
2, 224320, Note_off_c, 0, 81, 100
2, 224352, Note_on_c, 0, 82, 90
2, 224416, Note_off_c, 0, 82, 100
2, 224448, Note_on_c, 0, 84, 90
2, 224512, Note_off_c, 0, 84, 100
2, 224544, Note_on_c, 0, 82, 90
2, 224608, Note_off_c, 0, 82, 100
2, 224640, Note_on_c, 0, 81, 90
2, 224704, Note_off_c, 0, 81, 100
2, 224752, Note_on_c, 0, 82, 90
2, 224816, Note_off_c, 0, 82, 100
2, 224816, Note_on_c, 0, 84, 90
2, 224880, Note_off_c, 0, 84, 100
2, 224928, Note_on_c, 0, 86, 90
2, 224992, Note_off_c, 0, 86, 100
2, 225024, Note_on_c, 0, 87, 90
2, 225088, Note_off_c, 0, 87, 100
2, 225120, Note_on_c, 0, 86, 90
2, 225184, Note_off_c, 0, 86, 100
2, 225216, Note_on_c, 0, 84, 90
2, 225280, Note_off_c, 0, 84, 100
2, 225312, Note_on_c, 0, 82, 90
2, 225376, Note_off_c, 0, 82, 100
2, 225408, Note_on_c, 0, 81, 90
2, 225472, Note_off_c, 0, 81, 100
2, 225504, Note_on_c, 0, 79, 90
2, 225568, Note_off_c, 0, 79, 100
2, 225600, Note_on_c, 0, 77, 90
2, 225664, Note_off_c, 0, 77, 100
2, 225696, Note_on_c, 0, 75, 90
2, 225760, Note_off_c, 0, 75, 100
2, 225792, Note_on_c, 0, 74, 90
2, 225856, Note_off_c, 0, 74, 100
2, 225888, Note_on_c, 0, 77, 90
2, 225952, Note_off_c, 0, 77, 100
2, 225984, Note_on_c, 0, 75, 90
2, 226048, Note_off_c, 0, 75, 100
2, 226080, Note_on_c, 0, 74, 90
2, 226144, Note_off_c, 0, 74, 100
2, 226176, Note_on_c, 0, 75, 90
2, 226240, Note_off_c, 0, 75, 100
2, 226272, Note_on_c, 0, 77, 90
2, 226336, Note_off_c, 0, 77, 100
2, 226368, Note_on_c, 0, 79, 90
2, 226432, Note_off_c, 0, 79, 100
2, 226464, Note_on_c, 0, 81, 90
2, 226528, Note_off_c, 0, 81, 100
2, 226560, Note_on_c, 0, 82, 90
2, 226624, Note_off_c, 0, 82, 100
2, 226656, Note_on_c, 0, 81, 90
2, 226720, Note_off_c, 0, 81, 100
2, 226752, Note_on_c, 0, 79, 90
2, 226816, Note_off_c, 0, 79, 100
2, 226848, Note_on_c, 0, 77, 90
2, 226912, Note_off_c, 0, 77, 100
2, 226944, Note_on_c, 0, 75, 90
2, 227008, Note_off_c, 0, 75, 100
2, 227040, Note_on_c, 0, 74, 90
2, 227104, Note_off_c, 0, 74, 100
2, 227136, Note_on_c, 0, 72, 90
2, 227200, Note_off_c, 0, 72, 100
2, 227232, Note_on_c, 0, 70, 90
2, 227296, Note_off_c, 0, 70, 100
2, 227328, Note_on_c, 0, 77, 97
2, 227328, Note_on_c, 0, 72, 97
2, 227328, Note_on_c, 0, 69, 97
2, 227584, Note_off_c, 0, 77, 100
2, 227584, Note_off_c, 0, 72, 100
2, 227584, Note_off_c, 0, 69, 100
2, 227712, Note_on_c, 0, 65, 60
2, 227968, Note_off_c, 0, 65, 100
2, 228096, Note_on_c, 0, 72, 60
2, 228480, Note_off_c, 0, 72, 100
2, 228672, Note_on_c, 0, 69, 60
2, 228736, Note_off_c, 0, 69, 100
2, 228768, Note_on_c, 0, 65, 60
2, 228832, Note_off_c, 0, 65, 100
2, 228864, Note_on_c, 0, 70, 60
2, 229120, Note_off_c, 0, 70, 100
2, 229248, Note_on_c, 0, 71, 60
2, 229504, Note_off_c, 0, 71, 100
2, 229632, Note_on_c, 0, 72, 60
2, 230016, Note_off_c, 0, 72, 100
2, 230208, Note_on_c, 0, 69, 60
2, 230272, Note_off_c, 0, 69, 100
2, 230304, Note_on_c, 0, 65, 60
2, 230368, Note_off_c, 0, 65, 100
2, 230400, Note_on_c, 0, 70, 60
2, 230656, Note_off_c, 0, 70, 100
2, 231168, Note_on_c, 0, 72, 60
2, 231296, Note_off_c, 0, 72, 100
2, 231360, Note_on_c, 0, 72, 60
2, 231616, Note_off_c, 0, 72, 100
2, 231744, Note_on_c, 0, 69, 60
2, 231808, Note_off_c, 0, 69, 100
2, 231840, Note_on_c, 0, 65, 60
2, 231904, Note_off_c, 0, 65, 100
2, 231936, Note_on_c, 0, 70, 60
2, 232064, Note_off_c, 0, 70, 100
2, 232128, Note_on_c, 0, 70, 60
2, 232256, Note_off_c, 0, 70, 100
2, 232320, Note_on_c, 0, 71, 60
2, 232448, Note_off_c, 0, 71, 100
2, 232512, Note_on_c, 0, 71, 60
2, 232640, Note_off_c, 0, 71, 100
2, 232704, Note_on_c, 0, 72, 60
2, 232832, Note_off_c, 0, 72, 100
2, 232896, Note_on_c, 0, 72, 60
2, 233152, Note_off_c, 0, 72, 100
2, 233280, Note_on_c, 0, 69, 60
2, 233344, Note_off_c, 0, 69, 100
2, 233376, Note_on_c, 0, 65, 60
2, 233440, Note_off_c, 0, 65, 100
2, 233472, Note_on_c, 0, 70, 60
2, 233664, Note_on_c, 0, 65, 60
2, 233728, Note_off_c, 0, 70, 100
2, 233792, Note_off_c, 0, 65, 100
2, 233856, Note_on_c, 0, 62, 62
2, 233984, Note_off_c, 0, 62, 100
2, 234048, Note_on_c, 0, 65, 62
2, 234176, Note_off_c, 0, 65, 100
2, 234240, Note_on_c, 0, 82, 66
2, 234240, Note_on_c, 0, 63, 66
2, 234304, Note_off_c, 0, 82, 100
2, 234336, Note_on_c, 0, 84, 68
2, 234368, Note_off_c, 0, 63, 100
2, 234400, Note_off_c, 0, 84, 100
2, 234432, Note_on_c, 0, 86, 72
2, 234432, Note_on_c, 0, 65, 72
2, 234496, Note_off_c, 0, 86, 100
2, 234528, Note_on_c, 0, 84, 74
2, 234560, Note_off_c, 0, 65, 100
2, 234592, Note_off_c, 0, 84, 100
2, 234624, Note_on_c, 0, 82, 78
2, 234624, Note_on_c, 0, 63, 78
2, 234688, Note_off_c, 0, 82, 100
2, 234720, Note_on_c, 0, 81, 80
2, 234752, Note_off_c, 0, 63, 100
2, 234784, Note_off_c, 0, 81, 100
2, 234816, Note_on_c, 0, 79, 84
2, 234816, Note_on_c, 0, 65, 84
2, 234880, Note_off_c, 0, 79, 100
2, 234912, Note_on_c, 0, 77, 86
2, 234944, Note_off_c, 0, 65, 100
2, 234976, Note_off_c, 0, 77, 100
2, 235008, Note_on_c, 0, 82, 90
2, 235008, Note_on_c, 0, 62, 90
2, 235072, Note_off_c, 0, 82, 100
2, 235104, Note_on_c, 0, 77, 90
2, 235168, Note_off_c, 0, 77, 100
2, 235200, Note_on_c, 0, 86, 90
2, 235264, Note_off_c, 0, 62, 100
2, 235264, Note_off_c, 0, 86, 100
2, 235296, Note_on_c, 0, 82, 90
2, 235360, Note_off_c, 0, 82, 100
2, 235392, Note_on_c, 0, 89, 90
2, 235456, Note_off_c, 0, 89, 100
2, 235472, Note_on_c, 0, 86, 90
2, 235536, Note_off_c, 0, 86, 100
2, 235584, Note_on_c, 0, 89, 90
2, 235648, Note_off_c, 0, 89, 100
2, 235680, Note_on_c, 0, 86, 90
2, 235744, Note_off_c, 0, 86, 100
2, 235776, Note_on_c, 0, 89, 90
2, 235840, Note_off_c, 0, 89, 100
2, 235872, Note_on_c, 0, 87, 90
2, 235936, Note_off_c, 0, 87, 100
2, 235968, Note_on_c, 0, 86, 90
2, 236032, Note_off_c, 0, 86, 100
2, 236064, Note_on_c, 0, 84, 90
2, 236128, Note_off_c, 0, 84, 100
2, 236160, Note_on_c, 0, 82, 90
2, 236224, Note_off_c, 0, 82, 100
2, 236240, Note_on_c, 0, 81, 90
2, 236304, Note_off_c, 0, 81, 100
2, 236352, Note_on_c, 0, 79, 90
2, 236416, Note_off_c, 0, 79, 100
2, 236448, Note_on_c, 0, 77, 90
2, 236512, Note_off_c, 0, 77, 100
2, 236544, Note_on_c, 0, 79, 90
2, 236608, Note_off_c, 0, 79, 100
2, 236640, Note_on_c, 0, 75, 90
2, 236704, Note_off_c, 0, 75, 100
2, 236736, Note_on_c, 0, 82, 90
2, 236800, Note_off_c, 0, 82, 100
2, 236832, Note_on_c, 0, 81, 90
2, 236896, Note_off_c, 0, 81, 100
2, 236928, Note_on_c, 0, 82, 90
2, 236992, Note_off_c, 0, 82, 100
2, 237024, Note_on_c, 0, 81, 90
2, 237088, Note_off_c, 0, 81, 100
2, 237120, Note_on_c, 0, 82, 90
2, 237184, Note_off_c, 0, 82, 100
2, 237216, Note_on_c, 0, 81, 90
2, 237280, Note_off_c, 0, 81, 100
2, 237312, Note_on_c, 0, 82, 90
2, 237376, Note_off_c, 0, 82, 100
2, 237408, Note_on_c, 0, 81, 90
2, 237472, Note_off_c, 0, 81, 100
2, 237504, Note_on_c, 0, 79, 90
2, 237568, Note_off_c, 0, 79, 100
2, 237600, Note_on_c, 0, 77, 90
2, 237664, Note_off_c, 0, 77, 100
2, 237696, Note_on_c, 0, 75, 90
2, 237760, Note_off_c, 0, 75, 100
2, 237792, Note_on_c, 0, 74, 90
2, 237856, Note_off_c, 0, 74, 100
2, 237888, Note_on_c, 0, 72, 90
2, 237952, Note_off_c, 0, 72, 100
2, 237984, Note_on_c, 0, 70, 90
2, 238048, Note_off_c, 0, 70, 100
2, 238080, Note_on_c, 0, 65, 90
2, 238144, Note_off_c, 0, 65, 100
2, 238176, Note_on_c, 0, 77, 90
2, 238240, Note_off_c, 0, 77, 100
2, 238272, Note_on_c, 0, 79, 90
2, 238336, Note_off_c, 0, 79, 100
2, 238368, Note_on_c, 0, 77, 90
2, 238432, Note_off_c, 0, 77, 100
2, 238464, Note_on_c, 0, 75, 90
2, 238528, Note_off_c, 0, 75, 100
2, 238560, Note_on_c, 0, 74, 90
2, 238624, Note_off_c, 0, 74, 100
2, 238656, Note_on_c, 0, 72, 90
2, 238720, Note_off_c, 0, 72, 100
2, 238752, Note_on_c, 0, 70, 90
2, 238816, Note_off_c, 0, 70, 100
2, 238848, Note_on_c, 0, 72, 90
2, 238892, Note_off_c, 0, 72, 0
2, 238896, Note_on_c, 0, 74, 90
2, 238940, Note_off_c, 0, 74, 0
2, 238944, Note_on_c, 0, 72, 90
2, 238988, Note_off_c, 0, 72, 0
2, 238992, Note_on_c, 0, 74, 90
2, 239036, Note_off_c, 0, 74, 0
2, 239040, Note_on_c, 0, 72, 90
2, 239084, Note_off_c, 0, 72, 0
2, 239088, Note_on_c, 0, 74, 90
2, 239132, Note_off_c, 0, 74, 0
2, 239136, Note_on_c, 0, 72, 90
2, 239180, Note_off_c, 0, 72, 0
2, 239184, Note_on_c, 0, 74, 90
2, 239228, Note_off_c, 0, 74, 0
2, 239232, Note_on_c, 0, 72, 90
2, 239276, Note_off_c, 0, 72, 0
2, 239280, Note_on_c, 0, 74, 90
2, 239324, Note_off_c, 0, 74, 0
2, 239328, Note_on_c, 0, 70, 90
2, 239372, Note_off_c, 0, 70, 0
2, 239376, Note_on_c, 0, 72, 90
2, 239420, Note_off_c, 0, 72, 0
2, 239424, Note_on_c, 0, 70, 90
2, 239488, Note_off_c, 0, 70, 100
2, 239520, Note_on_c, 0, 72, 90
2, 239584, Note_off_c, 0, 72, 100
2, 239616, Note_on_c, 0, 74, 90
2, 239680, Note_off_c, 0, 74, 100
2, 239712, Note_on_c, 0, 75, 90
2, 239776, Note_off_c, 0, 75, 100
2, 239808, Note_on_c, 0, 77, 90
2, 239872, Note_off_c, 0, 77, 100
2, 239904, Note_on_c, 0, 75, 90
2, 239968, Note_off_c, 0, 75, 100
2, 240000, Note_on_c, 0, 74, 90
2, 240064, Note_off_c, 0, 74, 100
2, 240096, Note_on_c, 0, 72, 90
2, 240160, Note_off_c, 0, 72, 100
2, 240192, Note_on_c, 0, 70, 90
2, 240256, Note_off_c, 0, 70, 100
2, 240288, Note_on_c, 0, 69, 90
2, 240352, Note_off_c, 0, 69, 100
2, 240384, Note_on_c, 0, 70, 90
2, 240448, Note_off_c, 0, 70, 100
2, 240480, Note_on_c, 0, 72, 90
2, 240544, Note_off_c, 0, 72, 100
2, 240576, Note_on_c, 0, 74, 90
2, 240640, Note_off_c, 0, 74, 100
2, 240672, Note_on_c, 0, 72, 90
2, 240736, Note_off_c, 0, 72, 100
2, 240768, Note_on_c, 0, 70, 90
2, 240832, Note_off_c, 0, 70, 100
2, 240864, Note_on_c, 0, 68, 90
2, 240928, Note_off_c, 0, 68, 100
2, 240960, Note_on_c, 0, 67, 90
2, 241024, Note_off_c, 0, 67, 100
2, 241056, Note_on_c, 0, 66, 90
2, 241120, Note_off_c, 0, 66, 100
2, 241152, Note_on_c, 0, 67, 90
2, 241216, Note_off_c, 0, 67, 100
2, 241248, Note_on_c, 0, 69, 90
2, 241312, Note_off_c, 0, 69, 100
2, 241344, Note_on_c, 0, 70, 90
2, 241408, Note_off_c, 0, 70, 100
2, 241440, Note_on_c, 0, 69, 90
2, 241504, Note_off_c, 0, 69, 100
2, 241536, Note_on_c, 0, 67, 90
2, 241600, Note_off_c, 0, 67, 100
2, 241632, Note_on_c, 0, 65, 90
2, 241696, Note_off_c, 0, 65, 100
2, 241728, Note_on_c, 0, 63, 90
2, 241792, Note_off_c, 0, 63, 100
2, 241824, Note_on_c, 0, 62, 90
2, 241888, Note_off_c, 0, 62, 100
2, 241920, Note_on_c, 0, 60, 90
2, 241984, Note_off_c, 0, 60, 100
2, 242016, Note_on_c, 0, 62, 90
2, 242080, Note_off_c, 0, 62, 100
2, 242112, Note_on_c, 0, 63, 90
2, 242176, Note_off_c, 0, 63, 100
2, 242208, Note_on_c, 0, 62, 90
2, 242272, Note_off_c, 0, 62, 100
2, 242304, Note_on_c, 0, 60, 90
2, 242368, Note_off_c, 0, 60, 100
2, 242400, Note_on_c, 0, 58, 90
2, 242464, Note_off_c, 0, 58, 100
2, 242496, Note_on_c, 0, 57, 90
2, 242560, Note_off_c, 0, 57, 100
2, 242592, Note_on_c, 0, 55, 90
2, 242656, Note_off_c, 0, 55, 100
2, 242688, Note_on_c, 0, 53, 90
2, 242816, Note_off_c, 0, 53, 100
2, 242864, Note_on_c, 0, 55, 90
2, 242928, Note_off_c, 0, 55, 100
2, 242976, Note_on_c, 0, 57, 90
2, 243040, Note_off_c, 0, 57, 100
2, 243072, Note_on_c, 0, 58, 90
2, 243136, Note_off_c, 0, 58, 100
2, 243168, Note_on_c, 0, 60, 90
2, 243232, Note_off_c, 0, 60, 100
2, 243264, Note_on_c, 0, 62, 90
2, 243328, Note_off_c, 0, 62, 100
2, 243360, Note_on_c, 0, 63, 90
2, 243424, Note_off_c, 0, 63, 100
2, 243456, Note_on_c, 0, 67, 90
2, 243520, Note_off_c, 0, 67, 100
2, 243552, Note_on_c, 0, 65, 90
2, 243616, Note_off_c, 0, 65, 100
2, 243648, Note_on_c, 0, 63, 90
2, 243712, Note_off_c, 0, 63, 100
2, 243744, Note_on_c, 0, 62, 90
2, 243808, Note_off_c, 0, 62, 100
2, 243840, Note_on_c, 0, 63, 90
2, 243904, Note_off_c, 0, 63, 100
2, 243936, Note_on_c, 0, 65, 90
2, 244000, Note_off_c, 0, 65, 100
2, 244032, Note_on_c, 0, 67, 90
2, 244096, Note_off_c, 0, 67, 100
2, 244128, Note_on_c, 0, 69, 90
2, 244192, Note_off_c, 0, 69, 100
2, 244224, Note_on_c, 0, 70, 90
2, 244288, Note_off_c, 0, 70, 100
2, 244320, Note_on_c, 0, 69, 90
2, 244384, Note_off_c, 0, 69, 100
2, 244416, Note_on_c, 0, 67, 90
2, 244480, Note_off_c, 0, 67, 100
2, 244512, Note_on_c, 0, 65, 90
2, 244576, Note_off_c, 0, 65, 100
2, 244608, Note_on_c, 0, 67, 90
2, 244672, Note_off_c, 0, 67, 100
2, 244704, Note_on_c, 0, 69, 90
2, 244768, Note_off_c, 0, 69, 100
2, 244800, Note_on_c, 0, 70, 90
2, 244864, Note_off_c, 0, 70, 100
2, 244896, Note_on_c, 0, 72, 90
2, 244960, Note_off_c, 0, 72, 100
2, 244992, Note_on_c, 0, 74, 90
2, 245056, Note_off_c, 0, 74, 100
2, 245088, Note_on_c, 0, 72, 90
2, 245152, Note_off_c, 0, 72, 100
2, 245184, Note_on_c, 0, 70, 90
2, 245248, Note_off_c, 0, 70, 100
2, 245280, Note_on_c, 0, 69, 90
2, 245344, Note_off_c, 0, 69, 100
2, 245376, Note_on_c, 0, 70, 90
2, 245440, Note_off_c, 0, 70, 100
2, 245472, Note_on_c, 0, 72, 90
2, 245536, Note_off_c, 0, 72, 100
2, 245568, Note_on_c, 0, 74, 90
2, 245632, Note_off_c, 0, 74, 100
2, 245664, Note_on_c, 0, 75, 90
2, 245728, Note_off_c, 0, 75, 100
2, 245760, Note_on_c, 0, 77, 90
2, 245824, Note_off_c, 0, 77, 100
2, 245856, Note_on_c, 0, 74, 90
2, 245920, Note_off_c, 0, 74, 100
2, 245952, Note_on_c, 0, 77, 90
2, 246016, Note_off_c, 0, 77, 100
2, 246048, Note_on_c, 0, 74, 90
2, 246112, Note_off_c, 0, 74, 100
2, 246144, Note_on_c, 0, 82, 90
2, 246208, Note_off_c, 0, 82, 100
2, 246240, Note_on_c, 0, 77, 90
2, 246304, Note_off_c, 0, 77, 100
2, 246336, Note_on_c, 0, 82, 90
2, 246400, Note_off_c, 0, 82, 100
2, 246432, Note_on_c, 0, 77, 90
2, 246496, Note_off_c, 0, 77, 100
2, 246528, Note_on_c, 0, 86, 90
2, 246592, Note_off_c, 0, 86, 100
2, 246624, Note_on_c, 0, 82, 90
2, 246688, Note_off_c, 0, 82, 100
2, 246720, Note_on_c, 0, 86, 90
2, 246784, Note_off_c, 0, 86, 100
2, 246816, Note_on_c, 0, 82, 90
2, 246880, Note_off_c, 0, 82, 100
2, 246912, Note_on_c, 0, 89, 90
2, 246976, Note_off_c, 0, 89, 100
2, 247008, Note_on_c, 0, 86, 90
2, 247072, Note_off_c, 0, 86, 100
2, 247104, Note_on_c, 0, 89, 90
2, 247168, Note_off_c, 0, 89, 100
2, 247200, Note_on_c, 0, 86, 90
2, 247264, Note_off_c, 0, 86, 100
2, 247296, Note_on_c, 0, 82, 90
2, 247360, Note_off_c, 0, 82, 100
2, 247392, Note_on_c, 0, 86, 90
2, 247456, Note_off_c, 0, 86, 100
2, 247488, Note_on_c, 0, 82, 90
2, 247552, Note_off_c, 0, 82, 100
2, 247584, Note_on_c, 0, 86, 90
2, 247648, Note_off_c, 0, 86, 100
2, 247680, Note_on_c, 0, 77, 90
2, 247744, Note_off_c, 0, 77, 100
2, 247776, Note_on_c, 0, 82, 90
2, 247840, Note_off_c, 0, 82, 100
2, 247872, Note_on_c, 0, 77, 90
2, 247936, Note_off_c, 0, 77, 100
2, 247968, Note_on_c, 0, 82, 90
2, 248032, Note_off_c, 0, 82, 100
2, 248064, Note_on_c, 0, 74, 90
2, 248128, Note_off_c, 0, 74, 100
2, 248160, Note_on_c, 0, 77, 90
2, 248224, Note_off_c, 0, 77, 100
2, 248256, Note_on_c, 0, 74, 90
2, 248320, Note_off_c, 0, 74, 100
2, 248352, Note_on_c, 0, 77, 90
2, 248416, Note_off_c, 0, 77, 100
2, 248448, Note_on_c, 0, 70, 90
2, 248512, Note_off_c, 0, 70, 100
2, 248544, Note_on_c, 0, 74, 90
2, 248608, Note_off_c, 0, 74, 100
2, 248640, Note_on_c, 0, 70, 90
2, 248704, Note_off_c, 0, 70, 100
2, 248736, Note_on_c, 0, 74, 90
2, 248800, Note_off_c, 0, 74, 100
2, 248832, Note_on_c, 0, 65, 90
2, 249088, Note_off_c, 0, 65, 100
2, 249216, Note_on_c, 0, 77, 90
2, 249600, Note_off_c, 0, 77, 100
2, 249792, Note_on_c, 0, 79, 90
2, 249856, Note_off_c, 0, 79, 100
2, 249888, Note_on_c, 0, 77, 90
2, 249952, Note_off_c, 0, 77, 100
2, 249984, Note_on_c, 0, 75, 90
2, 250048, Note_off_c, 0, 75, 100
2, 250080, Note_on_c, 0, 74, 90
2, 250144, Note_off_c, 0, 74, 100
2, 250176, Note_on_c, 0, 72, 90
2, 250240, Note_off_c, 0, 72, 100
2, 250272, Note_on_c, 0, 70, 90
2, 250336, Note_off_c, 0, 70, 100
2, 250368, Note_on_c, 0, 70, 90
2, 250400, Note_off_c, 0, 70, 100
2, 250416, Note_on_c, 0, 72, 90
2, 250448, Note_off_c, 0, 72, 100
2, 250464, Note_on_c, 0, 74, 90
2, 250496, Note_off_c, 0, 74, 100
2, 250512, Note_on_c, 0, 72, 90
2, 250544, Note_off_c, 0, 72, 100
2, 250560, Note_on_c, 0, 74, 90
2, 250592, Note_off_c, 0, 74, 100
2, 250608, Note_on_c, 0, 72, 90
2, 250640, Note_off_c, 0, 72, 100
2, 250656, Note_on_c, 0, 74, 90
2, 250688, Note_off_c, 0, 74, 100
2, 250704, Note_on_c, 0, 72, 90
2, 250736, Note_off_c, 0, 72, 100
2, 250752, Note_on_c, 0, 74, 90
2, 250784, Note_off_c, 0, 74, 100
2, 250800, Note_on_c, 0, 72, 90
2, 250832, Note_off_c, 0, 72, 100
2, 250848, Note_on_c, 0, 74, 90
2, 250880, Note_off_c, 0, 74, 100
2, 250896, Note_on_c, 0, 72, 90
2, 250928, Note_off_c, 0, 72, 100
2, 250944, Note_on_c, 0, 74, 90
2, 250976, Note_off_c, 0, 74, 100
2, 250992, Note_on_c, 0, 72, 90
2, 251024, Note_off_c, 0, 72, 100
2, 251040, Note_on_c, 0, 74, 90
2, 251072, Note_off_c, 0, 74, 100
2, 251088, Note_on_c, 0, 72, 90
2, 251120, Note_off_c, 0, 72, 100
2, 251136, Note_on_c, 0, 74, 90
2, 251168, Note_off_c, 0, 74, 100
2, 251184, Note_on_c, 0, 72, 90
2, 251216, Note_off_c, 0, 72, 100
2, 251232, Note_on_c, 0, 74, 90
2, 251264, Note_off_c, 0, 74, 100
2, 251280, Note_on_c, 0, 72, 90
2, 251312, Note_off_c, 0, 72, 100
2, 251328, Note_on_c, 0, 74, 90
2, 251360, Note_off_c, 0, 74, 100
2, 251376, Note_on_c, 0, 72, 90
2, 251408, Note_off_c, 0, 72, 100
2, 251424, Note_on_c, 0, 74, 90
2, 251456, Note_off_c, 0, 74, 100
2, 251472, Note_on_c, 0, 72, 90
2, 251504, Note_off_c, 0, 72, 100
2, 251520, Note_on_c, 0, 74, 90
2, 251552, Note_off_c, 0, 74, 100
2, 251568, Note_on_c, 0, 72, 90
2, 251600, Note_off_c, 0, 72, 100
2, 251616, Note_on_c, 0, 74, 90
2, 251648, Note_off_c, 0, 74, 100
2, 251664, Note_on_c, 0, 72, 90
2, 251696, Note_off_c, 0, 72, 100
2, 251712, Note_on_c, 0, 70, 90
2, 251776, Note_off_c, 0, 70, 100
2, 251808, Note_on_c, 0, 72, 90
2, 251872, Note_off_c, 0, 72, 100
2, 251904, Note_on_c, 0, 70, 60
2, 252032, Note_off_c, 0, 70, 100
2, 252096, Note_on_c, 0, 70, 60
2, 252224, Note_off_c, 0, 70, 100
2, 252480, Note_on_c, 0, 70, 60
2, 252608, Note_off_c, 0, 70, 100
2, 252672, Note_on_c, 0, 70, 60
2, 252800, Note_off_c, 0, 70, 100
2, 252864, Note_on_c, 0, 70, 60
2, 252992, Note_off_c, 0, 70, 100
2, 253056, Note_on_c, 0, 58, 60
2, 253056, Note_on_c, 0, 62, 60
2, 253248, Note_on_c, 0, 70, 60
2, 253312, Note_off_c, 0, 58, 100
2, 253312, Note_off_c, 0, 62, 100
2, 253376, Note_off_c, 0, 70, 100
2, 253440, Note_on_c, 0, 72, 60
2, 253440, Note_on_c, 0, 69, 60
2, 253440, Note_on_c, 0, 58, 60
2, 253568, Note_off_c, 0, 72, 100
2, 253632, Note_on_c, 0, 72, 60
2, 253696, Note_off_c, 0, 69, 100
2, 253696, Note_off_c, 0, 58, 100
2, 253760, Note_off_c, 0, 72, 100
2, 253824, Note_on_c, 0, 58, 60
2, 253824, Note_on_c, 0, 69, 60
2, 254016, Note_on_c, 0, 72, 60
2, 254080, Note_off_c, 0, 58, 100
2, 254080, Note_off_c, 0, 69, 100
2, 254144, Note_off_c, 0, 72, 100
2, 254208, Note_on_c, 0, 72, 60
2, 254336, Note_off_c, 0, 72, 100
2, 254400, Note_on_c, 0, 72, 60
2, 254528, Note_off_c, 0, 72, 100
2, 254592, Note_on_c, 0, 69, 60
2, 254592, Note_on_c, 0, 58, 60
2, 254784, Note_on_c, 0, 72, 60
2, 254848, Note_off_c, 0, 69, 100
2, 254848, Note_off_c, 0, 58, 100
2, 254912, Note_off_c, 0, 72, 100
2, 254976, Note_on_c, 0, 74, 60
2, 254976, Note_on_c, 0, 69, 60
2, 254976, Note_on_c, 0, 58, 60
2, 255104, Note_off_c, 0, 74, 100
2, 255168, Note_on_c, 0, 74, 62
2, 255232, Note_off_c, 0, 69, 100
2, 255232, Note_off_c, 0, 58, 100
2, 255296, Note_off_c, 0, 74, 100
2, 255360, Note_on_c, 0, 69, 66
2, 255360, Note_on_c, 0, 58, 66
2, 255552, Note_on_c, 0, 74, 67
2, 255616, Note_off_c, 0, 69, 100
2, 255616, Note_off_c, 0, 58, 100
2, 255680, Note_off_c, 0, 74, 100
2, 255744, Note_on_c, 0, 75, 68
2, 255744, Note_on_c, 0, 67, 68
2, 255744, Note_on_c, 0, 58, 68
2, 255872, Note_off_c, 0, 75, 100
2, 255936, Note_on_c, 0, 75, 70
2, 256000, Note_off_c, 0, 67, 100
2, 256000, Note_off_c, 0, 58, 100
2, 256064, Note_off_c, 0, 75, 100
2, 256128, Note_on_c, 0, 67, 72
2, 256128, Note_on_c, 0, 58, 72
2, 256320, Note_on_c, 0, 76, 73
2, 256384, Note_off_c, 0, 67, 100
2, 256384, Note_off_c, 0, 58, 100
2, 256448, Note_off_c, 0, 76, 100
2, 256512, Note_on_c, 0, 77, 74
2, 256512, Note_on_c, 0, 62, 74
2, 256512, Note_on_c, 0, 58, 74
2, 256640, Note_off_c, 0, 77, 100
2, 256704, Note_on_c, 0, 77, 78
2, 256768, Note_off_c, 0, 62, 100
2, 256768, Note_off_c, 0, 58, 100
2, 256832, Note_off_c, 0, 77, 100
2, 256896, Note_on_c, 0, 62, 80
2, 256896, Note_on_c, 0, 58, 80
2, 257088, Note_on_c, 0, 78, 82
2, 257152, Note_off_c, 0, 62, 100
2, 257152, Note_off_c, 0, 58, 100
2, 257216, Note_off_c, 0, 78, 100
2, 257280, Note_on_c, 0, 79, 84
2, 257280, Note_on_c, 0, 63, 84
2, 257280, Note_on_c, 0, 58, 84
2, 257408, Note_off_c, 0, 79, 100
2, 257472, Note_on_c, 0, 79, 85
2, 257536, Note_off_c, 0, 63, 100
2, 257536, Note_off_c, 0, 58, 100
2, 257600, Note_off_c, 0, 79, 100
2, 257664, Note_on_c, 0, 81, 86
2, 257664, Note_on_c, 0, 58, 86
2, 257664, Note_on_c, 0, 60, 86
2, 257792, Note_off_c, 0, 81, 100
2, 257856, Note_on_c, 0, 81, 88
2, 257920, Note_off_c, 0, 58, 100
2, 257920, Note_off_c, 0, 60, 100
2, 257984, Note_off_c, 0, 81, 100
2, 258048, Note_on_c, 0, 74, 90
2, 258112, Note_off_c, 0, 74, 100
2, 258144, Note_on_c, 0, 82, 90
2, 258208, Note_off_c, 0, 82, 100
2, 258240, Note_on_c, 0, 86, 90
2, 258304, Note_off_c, 0, 86, 100
2, 258336, Note_on_c, 0, 82, 90
2, 258400, Note_off_c, 0, 82, 100
2, 258432, Note_on_c, 0, 86, 90
2, 258496, Note_off_c, 0, 86, 100
2, 258528, Note_on_c, 0, 82, 90
2, 258592, Note_off_c, 0, 82, 100
2, 258624, Note_on_c, 0, 86, 90
2, 258688, Note_off_c, 0, 86, 100
2, 258720, Note_on_c, 0, 82, 90
2, 258784, Note_off_c, 0, 82, 100
2, 258816, Note_on_c, 0, 74, 90
2, 258880, Note_off_c, 0, 74, 100
2, 258912, Note_on_c, 0, 82, 90
2, 258976, Note_off_c, 0, 82, 100
2, 259008, Note_on_c, 0, 86, 90
2, 259072, Note_off_c, 0, 86, 100
2, 259104, Note_on_c, 0, 82, 90
2, 259168, Note_off_c, 0, 82, 100
2, 259200, Note_on_c, 0, 86, 90
2, 259264, Note_off_c, 0, 86, 100
2, 259296, Note_on_c, 0, 82, 90
2, 259360, Note_off_c, 0, 82, 100
2, 259392, Note_on_c, 0, 86, 90
2, 259456, Note_off_c, 0, 86, 100
2, 259488, Note_on_c, 0, 82, 90
2, 259552, Note_off_c, 0, 82, 100
2, 259584, Note_on_c, 0, 74, 90
2, 259648, Note_off_c, 0, 74, 100
2, 259680, Note_on_c, 0, 82, 90
2, 259744, Note_off_c, 0, 82, 100
2, 259776, Note_on_c, 0, 86, 90
2, 259840, Note_off_c, 0, 86, 100
2, 259872, Note_on_c, 0, 82, 90
2, 259936, Note_off_c, 0, 82, 100
2, 259968, Note_on_c, 0, 86, 90
2, 260032, Note_off_c, 0, 86, 100
2, 260064, Note_on_c, 0, 82, 90
2, 260128, Note_off_c, 0, 82, 100
2, 260160, Note_on_c, 0, 86, 90
2, 260224, Note_off_c, 0, 86, 100
2, 260256, Note_on_c, 0, 82, 90
2, 260320, Note_off_c, 0, 82, 100
2, 260352, Note_on_c, 0, 74, 90
2, 260416, Note_off_c, 0, 74, 100
2, 260448, Note_on_c, 0, 82, 90
2, 260512, Note_off_c, 0, 82, 100
2, 260544, Note_on_c, 0, 86, 90
2, 260608, Note_off_c, 0, 86, 100
2, 260640, Note_on_c, 0, 82, 90
2, 260704, Note_off_c, 0, 82, 100
2, 260736, Note_on_c, 0, 86, 90
2, 260800, Note_off_c, 0, 86, 100
2, 260832, Note_on_c, 0, 82, 90
2, 260896, Note_off_c, 0, 82, 100
2, 260928, Note_on_c, 0, 86, 90
2, 260992, Note_off_c, 0, 86, 100
2, 261024, Note_on_c, 0, 82, 90
2, 261088, Note_off_c, 0, 82, 100
2, 261120, Note_on_c, 0, 74, 90
2, 261184, Note_off_c, 0, 74, 100
2, 261216, Note_on_c, 0, 82, 90
2, 261280, Note_off_c, 0, 82, 100
2, 261312, Note_on_c, 0, 86, 90
2, 261376, Note_off_c, 0, 86, 100
2, 261408, Note_on_c, 0, 82, 90
2, 261472, Note_off_c, 0, 82, 100
2, 261504, Note_on_c, 0, 86, 90
2, 261568, Note_off_c, 0, 86, 100
2, 261600, Note_on_c, 0, 82, 90
2, 261664, Note_off_c, 0, 82, 100
2, 261696, Note_on_c, 0, 86, 90
2, 261760, Note_off_c, 0, 86, 100
2, 261792, Note_on_c, 0, 82, 90
2, 261856, Note_off_c, 0, 82, 100
2, 261888, Note_on_c, 0, 74, 90
2, 261952, Note_off_c, 0, 74, 100
2, 261984, Note_on_c, 0, 82, 90
2, 262048, Note_off_c, 0, 82, 100
2, 262080, Note_on_c, 0, 86, 90
2, 262144, Note_off_c, 0, 86, 100
2, 262176, Note_on_c, 0, 82, 90
2, 262240, Note_off_c, 0, 82, 100
2, 262272, Note_on_c, 0, 86, 90
2, 262336, Note_off_c, 0, 86, 100
2, 262368, Note_on_c, 0, 82, 90
2, 262432, Note_off_c, 0, 82, 100
2, 262464, Note_on_c, 0, 86, 90
2, 262528, Note_off_c, 0, 86, 100
2, 262560, Note_on_c, 0, 82, 90
2, 262624, Note_off_c, 0, 82, 100
2, 262656, Note_on_c, 0, 86, 97
2, 262656, Note_on_c, 0, 82, 97
2, 262656, Note_on_c, 0, 77, 97
2, 262656, Note_on_c, 0, 74, 97
2, 263168, Note_off_c, 0, 86, 100
2, 263168, Note_off_c, 0, 82, 100
2, 263168, Note_off_c, 0, 77, 100
2, 263168, Note_off_c, 0, 74, 100
2, 263616, Note_on_c, 0, 65, 90
2, 263680, Note_off_c, 0, 65, 100
2, 263712, Note_on_c, 0, 69, 90
2, 263776, Note_off_c, 0, 69, 100
2, 263808, Note_on_c, 0, 67, 90
2, 263872, Note_off_c, 0, 67, 100
2, 263904, Note_on_c, 0, 70, 90
2, 263968, Note_off_c, 0, 70, 100
2, 264000, Note_on_c, 0, 69, 90
2, 264064, Note_off_c, 0, 69, 100
2, 264096, Note_on_c, 0, 72, 90
2, 264160, Note_off_c, 0, 72, 100
2, 264192, Note_on_c, 0, 70, 90
2, 264320, Note_off_c, 0, 70, 100
2, 264384, Note_on_c, 0, 69, 90
2, 264448, Note_off_c, 0, 69, 100
2, 264480, Note_on_c, 0, 72, 90
2, 264544, Note_off_c, 0, 72, 100
2, 264576, Note_on_c, 0, 70, 90
2, 264640, Note_off_c, 0, 70, 100
2, 264672, Note_on_c, 0, 74, 90
2, 264736, Note_off_c, 0, 74, 100
2, 264768, Note_on_c, 0, 72, 90
2, 264832, Note_off_c, 0, 72, 100
2, 264864, Note_on_c, 0, 75, 90
2, 264928, Note_off_c, 0, 75, 100
2, 264976, Note_on_c, 0, 74, 90
2, 265104, Note_off_c, 0, 74, 100
2, 265152, Note_on_c, 0, 72, 90
2, 265216, Note_off_c, 0, 72, 100
2, 265248, Note_on_c, 0, 75, 90
2, 265312, Note_off_c, 0, 75, 100
2, 265344, Note_on_c, 0, 74, 90
2, 265408, Note_off_c, 0, 74, 100
2, 265440, Note_on_c, 0, 77, 90
2, 265504, Note_off_c, 0, 77, 100
2, 265536, Note_on_c, 0, 75, 90
2, 265600, Note_off_c, 0, 75, 100
2, 265632, Note_on_c, 0, 79, 90
2, 265696, Note_off_c, 0, 79, 100
2, 265728, Note_on_c, 0, 77, 60
2, 266304, Note_off_c, 0, 77, 100
2, 266304, Note_on_c, 0, 74, 60
2, 266432, Note_off_c, 0, 74, 100
2, 266496, Note_on_c, 0, 70, 60
2, 266752, Note_off_c, 0, 70, 100
2, 266880, Note_on_c, 0, 70, 60
2, 267136, Note_off_c, 0, 70, 100
2, 267264, Note_on_c, 0, 75, 60
2, 267456, Note_on_c, 0, 77, 60
2, 267488, Note_off_c, 0, 77, 100
2, 267504, Note_on_c, 0, 75, 60
2, 267520, Note_off_c, 0, 75, 100
2, 267536, Note_off_c, 0, 75, 100
2, 267552, Note_on_c, 0, 74, 60
2, 267584, Note_off_c, 0, 74, 100
2, 267600, Note_on_c, 0, 75, 60
2, 267632, Note_off_c, 0, 75, 100
2, 267648, Note_on_c, 0, 79, 60
2, 267904, Note_off_c, 0, 79, 100
2, 268032, Note_on_c, 0, 69, 60
2, 268288, Note_off_c, 0, 69, 100
2, 268800, Note_on_c, 0, 77, 44
2, 269184, Note_off_c, 0, 77, 100
2, 269376, Note_on_c, 0, 73, 44
2, 269504, Note_off_c, 0, 73, 100
2, 269568, Note_on_c, 0, 70, 44
2, 269696, Note_off_c, 0, 70, 100
2, 269760, Note_on_c, 0, 70, 44
2, 269888, Note_off_c, 0, 70, 100
2, 269952, Note_on_c, 0, 70, 44
2, 270080, Note_off_c, 0, 70, 100
2, 270144, Note_on_c, 0, 70, 44
2, 270272, Note_off_c, 0, 70, 100
2, 270336, Note_on_c, 0, 75, 44
2, 270528, Note_on_c, 0, 77, 44
2, 270560, Note_off_c, 0, 77, 100
2, 270576, Note_on_c, 0, 75, 44
2, 270592, Note_off_c, 0, 75, 100
2, 270608, Note_off_c, 0, 75, 100
2, 270624, Note_on_c, 0, 74, 44
2, 270656, Note_off_c, 0, 74, 100
2, 270672, Note_on_c, 0, 75, 44
2, 270704, Note_off_c, 0, 75, 100
2, 270720, Note_on_c, 0, 78, 44
2, 270976, Note_off_c, 0, 78, 100
2, 271104, Note_on_c, 0, 69, 44
2, 271360, Note_off_c, 0, 69, 100
2, 271872, Note_on_c, 0, 70, 90
2, 272000, Note_off_c, 0, 70, 100
2, 272064, Note_on_c, 0, 82, 90
2, 272192, Note_off_c, 0, 82, 100
2, 272256, Note_on_c, 0, 84, 90
2, 272384, Note_off_c, 0, 84, 100
2, 272448, Note_on_c, 0, 85, 90
2, 272576, Note_off_c, 0, 85, 100
2, 272640, Note_on_c, 0, 84, 90
2, 272768, Note_off_c, 0, 84, 100
2, 272832, Note_on_c, 0, 82, 90
2, 272960, Note_off_c, 0, 82, 100
2, 273024, Note_on_c, 0, 80, 90
2, 273152, Note_off_c, 0, 80, 100
2, 273216, Note_on_c, 0, 78, 90
2, 273344, Note_off_c, 0, 78, 100
2, 273408, Note_on_c, 0, 77, 90
2, 273920, Note_off_c, 0, 77, 100
2, 274176, Note_on_c, 0, 76, 90
2, 274688, Note_off_c, 0, 76, 100
2, 274944, Note_on_c, 0, 77, 60
2, 275072, Note_off_c, 0, 77, 100
2, 275136, Note_on_c, 0, 77, 60
2, 275264, Note_off_c, 0, 77, 100
2, 275520, Note_on_c, 0, 77, 60
2, 275648, Note_off_c, 0, 77, 100
2, 275712, Note_on_c, 0, 77, 60
2, 275840, Note_off_c, 0, 77, 100
2, 275904, Note_on_c, 0, 77, 60
2, 276032, Note_off_c, 0, 77, 100
2, 276288, Note_on_c, 0, 77, 60
2, 276416, Note_off_c, 0, 77, 100
2, 276480, Note_on_c, 0, 77, 60
2, 276608, Note_off_c, 0, 77, 100
2, 276672, Note_on_c, 0, 77, 60
2, 276800, Note_off_c, 0, 77, 100
2, 277056, Note_on_c, 0, 77, 60
2, 277184, Note_off_c, 0, 77, 100
2, 277248, Note_on_c, 0, 77, 60
2, 277376, Note_off_c, 0, 77, 100
2, 277440, Note_on_c, 0, 77, 60
2, 277568, Note_off_c, 0, 77, 100
2, 277824, Note_on_c, 0, 77, 60
2, 277952, Note_off_c, 0, 77, 100
2, 278016, Note_on_c, 0, 77, 60
2, 278144, Note_off_c, 0, 77, 100
2, 278208, Note_on_c, 0, 77, 60
2, 278336, Note_off_c, 0, 77, 100
2, 278592, Note_on_c, 0, 77, 60
2, 278720, Note_off_c, 0, 77, 100
2, 278784, Note_on_c, 0, 77, 60
2, 278912, Note_off_c, 0, 77, 100
2, 278976, Note_on_c, 0, 77, 60
2, 279104, Note_off_c, 0, 77, 100
2, 279360, Note_on_c, 0, 77, 60
2, 279488, Note_off_c, 0, 77, 100
2, 279552, Note_on_c, 0, 77, 90
2, 279680, Note_off_c, 0, 77, 100
2, 279744, Note_on_c, 0, 81, 90
2, 279872, Note_off_c, 0, 81, 100
2, 279936, Note_on_c, 0, 81, 90
2, 280064, Note_off_c, 0, 81, 100
2, 280128, Note_on_c, 0, 84, 90
2, 280256, Note_off_c, 0, 84, 100
2, 280320, Note_on_c, 0, 84, 90
2, 280448, Note_off_c, 0, 84, 100
2, 280512, Note_on_c, 0, 87, 90
2, 280640, Note_off_c, 0, 87, 100
2, 280704, Note_on_c, 0, 87, 90
2, 280832, Note_off_c, 0, 87, 100
2, 280896, Note_on_c, 0, 84, 90
2, 281024, Note_off_c, 0, 84, 100
2, 281088, Note_on_c, 0, 84, 85
2, 281216, Note_off_c, 0, 84, 100
2, 281280, Note_on_c, 0, 81, 82
2, 281408, Note_off_c, 0, 81, 100
2, 281472, Note_on_c, 0, 81, 79
2, 281600, Note_off_c, 0, 81, 100
2, 281664, Note_on_c, 0, 77, 76
2, 281792, Note_off_c, 0, 77, 100
2, 281856, Note_on_c, 0, 77, 73
2, 281984, Note_off_c, 0, 77, 100
2, 282048, Note_on_c, 0, 76, 70
2, 282176, Note_off_c, 0, 76, 100
2, 282240, Note_on_c, 0, 76, 67
2, 282368, Note_off_c, 0, 76, 100
2, 282432, Note_on_c, 0, 77, 62
2, 282560, Note_off_c, 0, 77, 100
2, 282624, Note_on_c, 0, 77, 60
2, 282752, Note_off_c, 0, 77, 100
2, 282816, Note_on_c, 0, 76, 60
2, 282944, Note_off_c, 0, 76, 100
2, 283008, Note_on_c, 0, 75, 60
2, 283520, Note_off_c, 0, 75, 100
2, 283776, Note_on_c, 0, 75, 60
2, 284032, Note_off_c, 0, 75, 100
2, 284160, Note_on_c, 0, 75, 60
2, 284416, Note_off_c, 0, 75, 100
2, 284544, Note_on_c, 0, 75, 60
2, 284800, Note_off_c, 0, 75, 100
2, 284928, Note_on_c, 0, 75, 60
2, 285184, Note_off_c, 0, 75, 100
2, 285312, Note_on_c, 0, 75, 60
2, 285568, Note_off_c, 0, 75, 100
2, 285696, Note_on_c, 0, 74, 60
2, 285952, Note_off_c, 0, 74, 100
2, 286080, Note_on_c, 0, 68, 60
2, 286080, Note_on_c, 0, 77, 60
2, 286336, Note_off_c, 0, 68, 100
2, 286336, Note_off_c, 0, 77, 100
2, 286464, Note_on_c, 0, 67, 60
2, 286464, Note_on_c, 0, 75, 60
2, 286720, Note_off_c, 0, 67, 100
2, 286720, Note_off_c, 0, 75, 100
2, 286848, Note_on_c, 0, 74, 60
2, 286848, Note_on_c, 0, 66, 60
2, 287104, Note_off_c, 0, 74, 100
2, 287104, Note_off_c, 0, 66, 100
2, 287232, Note_on_c, 0, 75, 60
2, 287232, Note_on_c, 0, 67, 60
2, 287488, Note_off_c, 0, 75, 100
2, 287488, Note_off_c, 0, 67, 100
2, 287616, Note_on_c, 0, 79, 60
2, 287616, Note_on_c, 0, 70, 60
2, 287872, Note_off_c, 0, 79, 100
2, 287872, Note_off_c, 0, 70, 100
2, 288000, Note_on_c, 0, 77, 60
2, 288000, Note_on_c, 0, 68, 60
2, 288256, Note_off_c, 0, 77, 100
2, 288256, Note_off_c, 0, 68, 100
2, 288384, Note_on_c, 0, 76, 60
2, 288384, Note_on_c, 0, 67, 60
2, 288640, Note_off_c, 0, 76, 100
2, 288640, Note_off_c, 0, 67, 100
2, 288768, Note_on_c, 0, 77, 60
2, 288768, Note_on_c, 0, 68, 60
2, 289024, Note_off_c, 0, 77, 100
2, 289024, Note_off_c, 0, 68, 100
2, 289152, Note_on_c, 0, 77, 60
2, 289152, Note_on_c, 0, 80, 60
2, 289408, Note_off_c, 0, 77, 100
2, 289408, Note_off_c, 0, 80, 100
2, 289536, Note_on_c, 0, 79, 60
2, 289536, Note_on_c, 0, 75, 60
2, 289792, Note_off_c, 0, 79, 100
2, 289792, Note_off_c, 0, 75, 100
2, 289920, Note_on_c, 0, 74, 60
2, 289920, Note_on_c, 0, 78, 60
2, 290176, Note_off_c, 0, 74, 100
2, 290176, Note_off_c, 0, 78, 100
2, 290304, Note_on_c, 0, 79, 90
2, 290304, Note_on_c, 0, 77, 90
2, 290304, Note_on_c, 0, 74, 90
2, 290432, Note_off_c, 0, 79, 100
2, 290432, Note_off_c, 0, 77, 100
2, 290432, Note_off_c, 0, 74, 100
2, 290496, Note_on_c, 0, 79, 90
2, 290496, Note_on_c, 0, 74, 90
2, 290496, Note_on_c, 0, 77, 90
2, 290624, Note_off_c, 0, 79, 100
2, 290624, Note_off_c, 0, 74, 100
2, 290624, Note_off_c, 0, 77, 100
2, 290880, Note_on_c, 0, 79, 90
2, 290880, Note_on_c, 0, 74, 90
2, 290880, Note_on_c, 0, 77, 90
2, 291008, Note_off_c, 0, 79, 100
2, 291008, Note_off_c, 0, 74, 100
2, 291008, Note_off_c, 0, 77, 100
2, 291072, Note_on_c, 0, 79, 90
2, 291072, Note_on_c, 0, 75, 90
2, 291072, Note_on_c, 0, 87, 90
2, 291200, Note_off_c, 0, 79, 100
2, 291200, Note_off_c, 0, 75, 100
2, 291200, Note_off_c, 0, 87, 100
2, 291264, Note_on_c, 0, 79, 90
2, 291264, Note_on_c, 0, 87, 90
2, 291264, Note_on_c, 0, 75, 90
2, 291392, Note_off_c, 0, 79, 100
2, 291392, Note_off_c, 0, 87, 100
2, 291392, Note_off_c, 0, 75, 100
2, 291648, Note_on_c, 0, 79, 90
2, 291648, Note_on_c, 0, 72, 90
2, 291648, Note_on_c, 0, 75, 90
2, 291776, Note_off_c, 0, 79, 100
2, 291776, Note_off_c, 0, 72, 100
2, 291776, Note_off_c, 0, 75, 100
2, 291840, Note_on_c, 0, 77, 90
2, 291840, Note_on_c, 0, 75, 90
2, 291840, Note_on_c, 0, 72, 90
2, 291968, Note_off_c, 0, 77, 100
2, 291968, Note_off_c, 0, 75, 100
2, 291968, Note_off_c, 0, 72, 100
2, 292032, Note_on_c, 0, 77, 90
2, 292032, Note_on_c, 0, 75, 90
2, 292032, Note_on_c, 0, 72, 90
2, 292160, Note_off_c, 0, 77, 100
2, 292160, Note_off_c, 0, 75, 100
2, 292160, Note_off_c, 0, 72, 100
2, 292416, Note_on_c, 0, 75, 90
2, 292416, Note_on_c, 0, 77, 90
2, 292416, Note_on_c, 0, 72, 90
2, 292544, Note_off_c, 0, 75, 100
2, 292544, Note_off_c, 0, 77, 100
2, 292544, Note_off_c, 0, 72, 100
2, 292608, Note_on_c, 0, 86, 90
2, 292608, Note_on_c, 0, 74, 90
2, 292608, Note_on_c, 0, 77, 90
2, 292736, Note_off_c, 0, 86, 100
2, 292736, Note_off_c, 0, 74, 100
2, 292736, Note_off_c, 0, 77, 100
2, 292800, Note_on_c, 0, 77, 90
2, 292800, Note_on_c, 0, 86, 90
2, 292800, Note_on_c, 0, 74, 90
2, 292928, Note_off_c, 0, 77, 100
2, 292928, Note_off_c, 0, 86, 100
2, 292928, Note_off_c, 0, 74, 100
2, 293184, Note_on_c, 0, 77, 90
2, 293184, Note_on_c, 0, 74, 90
2, 293184, Note_on_c, 0, 70, 90
2, 293312, Note_off_c, 0, 77, 100
2, 293312, Note_off_c, 0, 74, 100
2, 293312, Note_off_c, 0, 70, 100
2, 293376, Note_on_c, 0, 75, 90
2, 293376, Note_on_c, 0, 74, 90
2, 293376, Note_on_c, 0, 70, 90
2, 293504, Note_off_c, 0, 75, 100
2, 293504, Note_off_c, 0, 74, 100
2, 293504, Note_off_c, 0, 70, 100
2, 293568, Note_on_c, 0, 75, 90
2, 293568, Note_on_c, 0, 70, 90
2, 293568, Note_on_c, 0, 74, 90
2, 293696, Note_off_c, 0, 75, 100
2, 293696, Note_off_c, 0, 70, 100
2, 293696, Note_off_c, 0, 74, 100
2, 293952, Note_on_c, 0, 75, 90
2, 293952, Note_on_c, 0, 70, 90
2, 293952, Note_on_c, 0, 74, 90
2, 294080, Note_off_c, 0, 75, 100
2, 294080, Note_off_c, 0, 70, 100
2, 294080, Note_off_c, 0, 74, 100
2, 294144, Note_on_c, 0, 75, 90
2, 294144, Note_on_c, 0, 72, 90
2, 294144, Note_on_c, 0, 84, 90
2, 294272, Note_off_c, 0, 75, 100
2, 294272, Note_off_c, 0, 72, 100
2, 294272, Note_off_c, 0, 84, 100
2, 294336, Note_on_c, 0, 75, 90
2, 294336, Note_on_c, 0, 72, 90
2, 294336, Note_on_c, 0, 84, 90
2, 294464, Note_off_c, 0, 75, 100
2, 294464, Note_off_c, 0, 72, 100
2, 294464, Note_off_c, 0, 84, 100
2, 294720, Note_on_c, 0, 75, 90
2, 294720, Note_on_c, 0, 72, 90
2, 294720, Note_on_c, 0, 69, 90
2, 294848, Note_off_c, 0, 75, 100
2, 294848, Note_off_c, 0, 72, 100
2, 294848, Note_off_c, 0, 69, 100
2, 294912, Note_on_c, 0, 74, 90
2, 294912, Note_on_c, 0, 72, 90
2, 294912, Note_on_c, 0, 69, 90
2, 295040, Note_off_c, 0, 74, 100
2, 295040, Note_off_c, 0, 72, 100
2, 295040, Note_off_c, 0, 69, 100
2, 295104, Note_on_c, 0, 74, 90
2, 295104, Note_on_c, 0, 72, 90
2, 295104, Note_on_c, 0, 69, 90
2, 295232, Note_off_c, 0, 74, 100
2, 295232, Note_off_c, 0, 72, 100
2, 295232, Note_off_c, 0, 69, 100
2, 295488, Note_on_c, 0, 74, 90
2, 295488, Note_on_c, 0, 72, 90
2, 295488, Note_on_c, 0, 69, 90
2, 295616, Note_off_c, 0, 74, 100
2, 295616, Note_off_c, 0, 72, 100
2, 295616, Note_off_c, 0, 69, 100
2, 295680, Note_on_c, 0, 74, 90
2, 295680, Note_on_c, 0, 70, 90
2, 295680, Note_on_c, 0, 82, 90
2, 295808, Note_off_c, 0, 74, 100
2, 295808, Note_off_c, 0, 70, 100
2, 295808, Note_off_c, 0, 82, 100
2, 295872, Note_on_c, 0, 74, 90
2, 295872, Note_on_c, 0, 70, 90
2, 295872, Note_on_c, 0, 82, 90
2, 296000, Note_off_c, 0, 74, 100
2, 296000, Note_off_c, 0, 70, 100
2, 296000, Note_off_c, 0, 82, 100
2, 296256, Note_on_c, 0, 74, 90
2, 296256, Note_on_c, 0, 70, 90
2, 296256, Note_on_c, 0, 67, 90
2, 296384, Note_off_c, 0, 74, 100
2, 296384, Note_off_c, 0, 70, 100
2, 296384, Note_off_c, 0, 67, 100
2, 296448, Note_on_c, 0, 72, 82
2, 296448, Note_on_c, 0, 70, 82
2, 296448, Note_on_c, 0, 67, 82
2, 296576, Note_off_c, 0, 72, 100
2, 296576, Note_off_c, 0, 70, 100
2, 296576, Note_off_c, 0, 67, 100
2, 296640, Note_on_c, 0, 72, 82
2, 296640, Note_on_c, 0, 70, 82
2, 296640, Note_on_c, 0, 67, 82
2, 296768, Note_off_c, 0, 72, 100
2, 296768, Note_off_c, 0, 70, 100
2, 296768, Note_off_c, 0, 67, 100
2, 297024, Note_on_c, 0, 72, 82
2, 297152, Note_off_c, 0, 72, 100
2, 297216, Note_on_c, 0, 82, 82
2, 297344, Note_off_c, 0, 82, 100
2, 297408, Note_on_c, 0, 82, 82
2, 297536, Note_off_c, 0, 82, 100
2, 297600, Note_on_c, 0, 82, 82
2, 297728, Note_off_c, 0, 82, 100
2, 297792, Note_on_c, 0, 72, 82
2, 297920, Note_off_c, 0, 72, 100
2, 297984, Note_on_c, 0, 74, 82
2, 298112, Note_off_c, 0, 74, 100
2, 298176, Note_on_c, 0, 74, 84
2, 298304, Note_off_c, 0, 74, 100
2, 298560, Note_on_c, 0, 74, 85
2, 298688, Note_off_c, 0, 74, 100
2, 298752, Note_on_c, 0, 82, 86
2, 298880, Note_off_c, 0, 82, 100
2, 298944, Note_on_c, 0, 82, 88
2, 299072, Note_off_c, 0, 82, 100
2, 299136, Note_on_c, 0, 82, 88
2, 299264, Note_off_c, 0, 82, 100
2, 299328, Note_on_c, 0, 74, 90
2, 299456, Note_off_c, 0, 74, 100
2, 299520, Note_on_c, 0, 75, 91
2, 299648, Note_off_c, 0, 75, 100
2, 299712, Note_on_c, 0, 75, 92
2, 299840, Note_off_c, 0, 75, 100
2, 300096, Note_on_c, 0, 76, 92
2, 300224, Note_off_c, 0, 76, 100
2, 300288, Note_on_c, 0, 77, 94
2, 300416, Note_off_c, 0, 77, 100
2, 300480, Note_on_c, 0, 77, 96
2, 300608, Note_off_c, 0, 77, 100
2, 300864, Note_on_c, 0, 78, 96
2, 300992, Note_off_c, 0, 78, 100
2, 301056, Note_on_c, 0, 79, 97
2, 301184, Note_off_c, 0, 79, 100
2, 301248, Note_on_c, 0, 79, 97
2, 301376, Note_off_c, 0, 79, 100
2, 301440, Note_on_c, 0, 81, 98
2, 301568, Note_off_c, 0, 81, 100
2, 301632, Note_on_c, 0, 81, 98
2, 301760, Note_off_c, 0, 81, 100
2, 301824, Note_on_c, 0, 82, 100
2, 301952, Note_off_c, 0, 82, 100
2, 302016, Note_on_c, 0, 82, 100
2, 302144, Note_off_c, 0, 82, 100
2, 302208, Note_on_c, 0, 84, 102
2, 302336, Note_off_c, 0, 84, 100
2, 302400, Note_on_c, 0, 84, 102
2, 302528, Note_off_c, 0, 84, 100
2, 302592, Note_on_c, 0, 86, 104
2, 302976, Note_off_c, 0, 86, 100
2, 303168, Note_on_c, 0, 82, 90
2, 303188, Note_off_c, 0, 82, 0
2, 303192, Note_on_c, 0, 84, 90
2, 303212, Note_off_c, 0, 84, 0
2, 303216, Note_on_c, 0, 82, 90
2, 303236, Note_off_c, 0, 82, 0
2, 303240, Note_on_c, 0, 84, 90
2, 303260, Note_off_c, 0, 84, 0
2, 303264, Note_on_c, 0, 81, 90
2, 303308, Note_off_c, 0, 81, 100
2, 303312, Note_on_c, 0, 82, 90
2, 303356, Note_off_c, 0, 82, 100
2, 303360, Note_on_c, 0, 86, 90
2, 303744, Note_off_c, 0, 86, 100
2, 303936, Note_on_c, 0, 82, 90
2, 303956, Note_off_c, 0, 82, 0
2, 303960, Note_on_c, 0, 84, 90
2, 303980, Note_off_c, 0, 84, 0
2, 303984, Note_on_c, 0, 82, 90
2, 304004, Note_off_c, 0, 82, 0
2, 304008, Note_on_c, 0, 84, 90
2, 304028, Note_off_c, 0, 84, 0
2, 304032, Note_on_c, 0, 81, 90
2, 304076, Note_off_c, 0, 81, 100
2, 304080, Note_on_c, 0, 82, 90
2, 304124, Note_off_c, 0, 82, 100
2, 304128, Note_on_c, 0, 85, 97
2, 304892, Note_off_c, 0, 85, 0
2, 304896, Note_on_c, 0, 85, 90
2, 304988, Note_off_c, 0, 85, 0
2, 304992, Note_on_c, 0, 82, 90
2, 305084, Note_off_c, 0, 82, 0
2, 305088, Note_on_c, 0, 79, 90
2, 305180, Note_off_c, 0, 79, 0
2, 305184, Note_on_c, 0, 76, 90
2, 305276, Note_off_c, 0, 76, 0
2, 305280, Note_on_c, 0, 73, 90
2, 305372, Note_off_c, 0, 73, 0
2, 305376, Note_on_c, 0, 70, 90
2, 305468, Note_off_c, 0, 70, 0
2, 305472, Note_on_c, 0, 67, 90
2, 305564, Note_off_c, 0, 67, 0
2, 305568, Note_on_c, 0, 64, 90
2, 305660, Note_off_c, 0, 64, 0
2, 307584, Note_on_c, 0, 62, 90
2, 307600, Note_off_c, 0, 62, 100
2, 307632, Note_on_c, 0, 63, 90
2, 307648, Note_off_c, 0, 63, 100
2, 307680, Note_on_c, 0, 65, 90
2, 307696, Note_off_c, 0, 65, 100
2, 307728, Note_on_c, 0, 67, 90
2, 307744, Note_off_c, 0, 67, 100
2, 307776, Note_on_c, 0, 69, 90
2, 307792, Note_off_c, 0, 69, 100
2, 307824, Note_on_c, 0, 70, 90
2, 307840, Note_off_c, 0, 70, 100
2, 307872, Note_on_c, 0, 72, 90
2, 307888, Note_off_c, 0, 72, 100
2, 307920, Note_on_c, 0, 74, 90
2, 307936, Note_off_c, 0, 74, 100
2, 307968, Note_on_c, 0, 75, 90
2, 307984, Note_off_c, 0, 75, 100
2, 308016, Note_on_c, 0, 77, 90
2, 308032, Note_off_c, 0, 77, 100
2, 308064, Note_on_c, 0, 79, 90
2, 308080, Note_off_c, 0, 79, 100
2, 308112, Note_on_c, 0, 81, 90
2, 308128, Note_off_c, 0, 81, 100
2, 308160, Note_on_c, 0, 82, 90
2, 308176, Note_off_c, 0, 82, 100
2, 308208, Note_on_c, 0, 84, 90
2, 308224, Note_off_c, 0, 84, 100
2, 308256, Note_on_c, 0, 86, 90
2, 308272, Note_off_c, 0, 86, 100
2, 308304, Note_on_c, 0, 87, 97
2, 308320, Note_off_c, 0, 87, 100
2, 308352, Note_on_c, 0, 89, 104
2, 308480, Note_off_c, 0, 89, 100
2, 308544, Note_on_c, 0, 70, 90
2, 308672, Note_off_c, 0, 70, 100
2, 308736, Note_on_c, 0, 70, 90
2, 308768, Note_off_c, 0, 70, 100
2, 308784, Note_on_c, 0, 72, 90
2, 308816, Note_off_c, 0, 72, 100
2, 308832, Note_on_c, 0, 74, 90
2, 308864, Note_off_c, 0, 74, 100
2, 308880, Note_on_c, 0, 72, 90
2, 309312, Note_on_c, 0, 70, 90
2, 309344, Note_off_c, 0, 70, 100
2, 309360, Note_on_c, 0, 72, 90
2, 309392, Note_off_c, 0, 72, 100
2, 309408, Note_on_c, 0, 74, 90
2, 309440, Note_off_c, 0, 74, 100
2, 309456, Note_on_c, 0, 75, 90
2, 309488, Note_off_c, 0, 75, 100
2, 309504, Note_on_c, 0, 77, 90
2, 309536, Note_off_c, 0, 77, 100
2, 309552, Note_on_c, 0, 79, 90
2, 309584, Note_off_c, 0, 79, 100
2, 309600, Note_on_c, 0, 81, 90
2, 309632, Note_off_c, 0, 81, 100
2, 309648, Note_on_c, 0, 82, 90
2, 309680, Note_off_c, 0, 82, 100
2, 309696, Note_on_c, 0, 84, 90
2, 309728, Note_off_c, 0, 84, 100
2, 309744, Note_on_c, 0, 86, 90
2, 309776, Note_off_c, 0, 86, 100
2, 309792, Note_on_c, 0, 87, 90
2, 309824, Note_off_c, 0, 87, 100
2, 309840, Note_on_c, 0, 86, 90
2, 309872, Note_off_c, 0, 86, 100
2, 309888, Note_on_c, 0, 89, 90
2, 309908, Note_off_c, 0, 72, 100
2, 309952, Note_off_c, 0, 89, 100
2, 309984, Note_on_c, 0, 87, 90
2, 310048, Note_off_c, 0, 87, 100
2, 310080, Note_on_c, 0, 86, 90
2, 310144, Note_off_c, 0, 86, 100
2, 310176, Note_on_c, 0, 84, 90
2, 310240, Note_off_c, 0, 84, 100
2, 310272, Note_on_c, 0, 87, 90
2, 310336, Note_off_c, 0, 87, 100
2, 310368, Note_on_c, 0, 86, 90
2, 310432, Note_off_c, 0, 86, 100
2, 310464, Note_on_c, 0, 84, 90
2, 310528, Note_off_c, 0, 84, 100
2, 310560, Note_on_c, 0, 82, 90
2, 310624, Note_off_c, 0, 82, 100
2, 310656, Note_on_c, 0, 86, 90
2, 310720, Note_off_c, 0, 86, 100
2, 310752, Note_on_c, 0, 84, 90
2, 310816, Note_off_c, 0, 84, 100
2, 310848, Note_on_c, 0, 82, 90
2, 310912, Note_off_c, 0, 82, 100
2, 310944, Note_on_c, 0, 81, 90
2, 311008, Note_off_c, 0, 81, 100
2, 311040, Note_on_c, 0, 84, 90
2, 311104, Note_off_c, 0, 84, 100
2, 311136, Note_on_c, 0, 82, 90
2, 311200, Note_off_c, 0, 82, 100
2, 311232, Note_on_c, 0, 81, 90
2, 311296, Note_off_c, 0, 81, 100
2, 311328, Note_on_c, 0, 79, 90
2, 311392, Note_off_c, 0, 79, 100
2, 311424, Note_on_c, 0, 82, 90
2, 311552, Note_off_c, 0, 82, 100
2, 311616, Note_on_c, 0, 81, 90
2, 311744, Note_off_c, 0, 81, 100
2, 311808, Note_on_c, 0, 79, 90
2, 311936, Note_off_c, 0, 79, 100
2, 312000, Note_on_c, 0, 77, 90
2, 312128, Note_off_c, 0, 77, 100
2, 312192, Note_on_c, 0, 81, 90
2, 312320, Note_off_c, 0, 81, 100
2, 312384, Note_on_c, 0, 79, 90
2, 312512, Note_off_c, 0, 79, 100
2, 312576, Note_on_c, 0, 77, 90
2, 312704, Note_off_c, 0, 77, 100
2, 312768, Note_on_c, 0, 75, 90
2, 312896, Note_off_c, 0, 75, 100
2, 312960, Note_on_c, 0, 79, 90
2, 313088, Note_off_c, 0, 79, 100
2, 313152, Note_on_c, 0, 77, 90
2, 313280, Note_off_c, 0, 77, 100
2, 313344, Note_on_c, 0, 75, 90
2, 313472, Note_off_c, 0, 75, 100
2, 313536, Note_on_c, 0, 74, 90
2, 313664, Note_off_c, 0, 74, 100
2, 313728, Note_on_c, 0, 77, 90
2, 313984, Note_off_c, 0, 77, 100
2, 314112, Note_on_c, 0, 75, 90
2, 314368, Note_off_c, 0, 75, 100
2, 314496, Note_on_c, 0, 74, 90
2, 314752, Note_off_c, 0, 74, 100
2, 314880, Note_on_c, 0, 72, 90
2, 315136, Note_off_c, 0, 72, 100
2, 315264, Note_on_c, 0, 71, 90
2, 315392, Note_off_c, 0, 71, 100
2, 315456, Note_on_c, 0, 72, 90
2, 315584, Note_off_c, 0, 72, 100
2, 315648, Note_on_c, 0, 73, 90
2, 315776, Note_off_c, 0, 73, 100
2, 315840, Note_on_c, 0, 74, 90
2, 315968, Note_off_c, 0, 74, 100
2, 316032, Note_on_c, 0, 75, 90
2, 316160, Note_off_c, 0, 75, 100
2, 316224, Note_on_c, 0, 76, 90
2, 316352, Note_off_c, 0, 76, 100
2, 316416, Note_on_c, 0, 77, 60
2, 316800, Note_off_c, 0, 77, 100
2, 316992, Note_on_c, 0, 74, 60
2, 317120, Note_off_c, 0, 74, 100
2, 317184, Note_on_c, 0, 70, 60
2, 317440, Note_off_c, 0, 70, 100
2, 317568, Note_on_c, 0, 70, 60
2, 317824, Note_off_c, 0, 70, 100
2, 317952, Note_on_c, 0, 75, 60
2, 318144, Note_on_c, 0, 77, 60
2, 318176, Note_off_c, 0, 77, 100
2, 318192, Note_on_c, 0, 75, 60
2, 318208, Note_off_c, 0, 75, 100
2, 318224, Note_off_c, 0, 75, 100
2, 318240, Note_on_c, 0, 77, 60
2, 318272, Note_off_c, 0, 77, 100
2, 318288, Note_on_c, 0, 75, 60
2, 318320, Note_off_c, 0, 75, 100
2, 318336, Note_on_c, 0, 79, 60
2, 318592, Note_off_c, 0, 79, 100
2, 318720, Note_on_c, 0, 69, 60
2, 318976, Note_off_c, 0, 69, 100
2, 319296, Note_on_c, 0, 69, 60
2, 319424, Note_off_c, 0, 69, 100
2, 319488, Note_on_c, 0, 72, 60
2, 319616, Note_off_c, 0, 72, 100
2, 319680, Note_on_c, 0, 70, 60
2, 319808, Note_off_c, 0, 70, 100
2, 319872, Note_on_c, 0, 74, 60
2, 320000, Note_off_c, 0, 74, 100
2, 320064, Note_on_c, 0, 72, 60
2, 320192, Note_off_c, 0, 72, 100
2, 320256, Note_on_c, 0, 75, 60
2, 320384, Note_off_c, 0, 75, 100
2, 320448, Note_on_c, 0, 74, 60
2, 320576, Note_off_c, 0, 74, 100
2, 320640, Note_on_c, 0, 77, 60
2, 320768, Note_off_c, 0, 77, 100
2, 320832, Note_on_c, 0, 75, 60
2, 320960, Note_off_c, 0, 75, 100
2, 321024, Note_on_c, 0, 74, 60
2, 321408, Note_off_c, 0, 74, 100
2, 321600, Note_on_c, 0, 75, 60
2, 321664, Note_off_c, 0, 75, 100
2, 321696, Note_on_c, 0, 74, 60
2, 321760, Note_off_c, 0, 74, 100
2, 321792, Note_on_c, 0, 72, 60
2, 321920, Note_off_c, 0, 72, 100
2, 321984, Note_on_c, 0, 74, 60
2, 322112, Note_off_c, 0, 74, 100
2, 322176, Note_on_c, 0, 75, 60
2, 322304, Note_off_c, 0, 75, 100
2, 322368, Note_on_c, 0, 76, 60
2, 322496, Note_off_c, 0, 76, 100
2, 322560, Note_on_c, 0, 77, 90
2, 322944, Note_off_c, 0, 77, 100
2, 323040, Note_on_c, 0, 75, 90
2, 323104, Note_off_c, 0, 75, 100
2, 323136, Note_on_c, 0, 74, 90
2, 323200, Note_off_c, 0, 74, 100
2, 323232, Note_on_c, 0, 72, 90
2, 323296, Note_off_c, 0, 72, 100
2, 323328, Note_on_c, 0, 70, 90
2, 323456, Note_off_c, 0, 70, 100
2, 323520, Note_on_c, 0, 70, 90
2, 323648, Note_off_c, 0, 70, 100
2, 323712, Note_on_c, 0, 70, 90
2, 323840, Note_off_c, 0, 70, 100
2, 323904, Note_on_c, 0, 70, 90
2, 324032, Note_off_c, 0, 70, 100
2, 324096, Note_on_c, 0, 75, 90
2, 324288, Note_on_c, 0, 77, 90
2, 324320, Note_off_c, 0, 77, 100
2, 324336, Note_on_c, 0, 75, 90
2, 324352, Note_off_c, 0, 75, 100
2, 324368, Note_off_c, 0, 75, 100
2, 324384, Note_on_c, 0, 74, 90
2, 324416, Note_off_c, 0, 74, 100
2, 324432, Note_on_c, 0, 75, 90
2, 324464, Note_off_c, 0, 75, 100
2, 324480, Note_on_c, 0, 79, 90
2, 324736, Note_off_c, 0, 79, 100
2, 324864, Note_on_c, 0, 69, 90
2, 325120, Note_off_c, 0, 69, 100
2, 325440, Note_on_c, 0, 75, 90
2, 325568, Note_off_c, 0, 75, 100
2, 325632, Note_on_c, 0, 74, 90
2, 325728, Note_off_c, 0, 74, 100
2, 325760, Note_on_c, 0, 77, 90
2, 325856, Note_off_c, 0, 77, 100
2, 325888, Note_on_c, 0, 82, 90
2, 325984, Note_off_c, 0, 82, 100
2, 326016, Note_on_c, 0, 79, 90
2, 326112, Note_off_c, 0, 79, 100
2, 326144, Note_on_c, 0, 75, 90
2, 326240, Note_off_c, 0, 75, 100
2, 326272, Note_on_c, 0, 72, 90
2, 326368, Note_off_c, 0, 72, 100
2, 326400, Note_on_c, 0, 77, 90
2, 326496, Note_off_c, 0, 77, 100
2, 326528, Note_on_c, 0, 74, 90
2, 326624, Note_off_c, 0, 74, 100
2, 326656, Note_on_c, 0, 70, 90
2, 326752, Note_off_c, 0, 70, 100
2, 326784, Note_on_c, 0, 75, 90
2, 326880, Note_off_c, 0, 75, 100
2, 326912, Note_on_c, 0, 72, 90
2, 327008, Note_off_c, 0, 72, 100
2, 327040, Note_on_c, 0, 69, 90
2, 327136, Note_off_c, 0, 69, 100
2, 327168, Note_on_c, 0, 70, 90
2, 327264, Note_off_c, 0, 70, 100
2, 327296, Note_on_c, 0, 82, 90
2, 327392, Note_off_c, 0, 82, 100
2, 327424, Note_on_c, 0, 82, 90
2, 327520, Note_off_c, 0, 82, 100
2, 327552, Note_on_c, 0, 82, 90
2, 327648, Note_off_c, 0, 82, 100
2, 327680, Note_on_c, 0, 82, 90
2, 327776, Note_off_c, 0, 82, 100
2, 327808, Note_on_c, 0, 82, 90
2, 327904, Note_off_c, 0, 82, 100
2, 327936, Note_on_c, 0, 82, 90
2, 328032, Note_off_c, 0, 82, 100
2, 328064, Note_on_c, 0, 81, 90
2, 328160, Note_off_c, 0, 81, 100
2, 328192, Note_on_c, 0, 79, 90
2, 328288, Note_off_c, 0, 79, 100
2, 328320, Note_on_c, 0, 77, 90
2, 328416, Note_off_c, 0, 77, 100
2, 328448, Note_on_c, 0, 75, 90
2, 328544, Note_off_c, 0, 75, 100
2, 328576, Note_on_c, 0, 74, 90
2, 328672, Note_off_c, 0, 74, 100
2, 328704, Note_on_c, 0, 72, 90
2, 328800, Note_off_c, 0, 72, 100
2, 328832, Note_on_c, 0, 79, 90
2, 328928, Note_off_c, 0, 79, 100
2, 328960, Note_on_c, 0, 79, 90
2, 329056, Note_off_c, 0, 79, 100
2, 329088, Note_on_c, 0, 79, 90
2, 329184, Note_off_c, 0, 79, 100
2, 329216, Note_on_c, 0, 79, 90
2, 329312, Note_off_c, 0, 79, 100
2, 329344, Note_on_c, 0, 79, 90
2, 329440, Note_off_c, 0, 79, 100
2, 329472, Note_on_c, 0, 79, 90
2, 329568, Note_off_c, 0, 79, 100
2, 329600, Note_on_c, 0, 77, 90
2, 329696, Note_off_c, 0, 77, 100
2, 329728, Note_on_c, 0, 75, 90
2, 329824, Note_off_c, 0, 75, 100
2, 329856, Note_on_c, 0, 74, 90
2, 329952, Note_off_c, 0, 74, 100
2, 329984, Note_on_c, 0, 75, 90
2, 330080, Note_off_c, 0, 75, 100
2, 330112, Note_on_c, 0, 72, 90
2, 330208, Note_off_c, 0, 72, 100
2, 330240, Note_on_c, 0, 75, 90
2, 330304, Note_off_c, 0, 75, 100
2, 330336, Note_on_c, 0, 77, 90
2, 330400, Note_off_c, 0, 77, 100
2, 330432, Note_on_c, 0, 79, 90
2, 330496, Note_off_c, 0, 79, 100
2, 330528, Note_on_c, 0, 77, 90
2, 330592, Note_off_c, 0, 77, 100
2, 330624, Note_on_c, 0, 75, 90
2, 330688, Note_off_c, 0, 75, 100
2, 330720, Note_on_c, 0, 74, 90
2, 330784, Note_off_c, 0, 74, 100
2, 330816, Note_on_c, 0, 72, 90
2, 330880, Note_off_c, 0, 72, 100
2, 330912, Note_on_c, 0, 70, 90
2, 330976, Note_off_c, 0, 70, 100
2, 331008, Note_on_c, 0, 72, 90
2, 331040, Note_off_c, 0, 72, 100
2, 331056, Note_on_c, 0, 74, 90
2, 331088, Note_off_c, 0, 74, 100
2, 331104, Note_on_c, 0, 72, 90
2, 331136, Note_off_c, 0, 72, 100
2, 331152, Note_on_c, 0, 74, 90
2, 331184, Note_off_c, 0, 74, 100
2, 331200, Note_on_c, 0, 72, 90
2, 331232, Note_off_c, 0, 72, 100
2, 331248, Note_on_c, 0, 74, 90
2, 331280, Note_off_c, 0, 74, 100
2, 331296, Note_on_c, 0, 72, 90
2, 331328, Note_off_c, 0, 72, 100
2, 331344, Note_on_c, 0, 74, 90
2, 331376, Note_off_c, 0, 74, 100
2, 331392, Note_on_c, 0, 72, 90
2, 331424, Note_off_c, 0, 72, 100
2, 331440, Note_on_c, 0, 74, 90
2, 331472, Note_off_c, 0, 74, 100
2, 331488, Note_on_c, 0, 72, 90
2, 331520, Note_off_c, 0, 72, 100
2, 331584, Note_on_c, 0, 70, 90
2, 331648, Note_off_c, 0, 70, 100
2, 331680, Note_on_c, 0, 72, 90
2, 331744, Note_off_c, 0, 72, 100
2, 331776, Note_on_c, 0, 70, 90
2, 331904, Note_off_c, 0, 70, 100
2, 331968, Note_on_c, 0, 82, 90
2, 332032, Note_off_c, 0, 82, 100
2, 332048, Note_on_c, 0, 79, 90
2, 332112, Note_off_c, 0, 79, 100
2, 332160, Note_on_c, 0, 82, 90
2, 332224, Note_off_c, 0, 82, 100
2, 332256, Note_on_c, 0, 81, 90
2, 332320, Note_off_c, 0, 81, 100
2, 332352, Note_on_c, 0, 82, 90
2, 332416, Note_off_c, 0, 82, 100
2, 332448, Note_on_c, 0, 81, 90
2, 332512, Note_off_c, 0, 81, 100
2, 332544, Note_on_c, 0, 82, 90
2, 332608, Note_off_c, 0, 82, 100
2, 332640, Note_on_c, 0, 81, 90
2, 332704, Note_off_c, 0, 81, 100
2, 332736, Note_on_c, 0, 79, 90
2, 332800, Note_off_c, 0, 79, 100
2, 332832, Note_on_c, 0, 77, 90
2, 332896, Note_off_c, 0, 77, 100
2, 332928, Note_on_c, 0, 75, 90
2, 332992, Note_off_c, 0, 75, 100
2, 333024, Note_on_c, 0, 74, 90
2, 333088, Note_off_c, 0, 74, 100
2, 333120, Note_on_c, 0, 72, 90
2, 333184, Note_off_c, 0, 72, 100
2, 333216, Note_on_c, 0, 70, 90
2, 333280, Note_off_c, 0, 70, 100
2, 333312, Note_on_c, 0, 67, 90
2, 333440, Note_off_c, 0, 67, 100
2, 333504, Note_on_c, 0, 79, 90
2, 333568, Note_off_c, 0, 79, 100
2, 333600, Note_on_c, 0, 78, 90
2, 333664, Note_off_c, 0, 78, 100
2, 333696, Note_on_c, 0, 79, 90
2, 333760, Note_off_c, 0, 79, 100
2, 333792, Note_on_c, 0, 78, 90
2, 333856, Note_off_c, 0, 78, 100
2, 333888, Note_on_c, 0, 79, 90
2, 333952, Note_off_c, 0, 79, 100
2, 333984, Note_on_c, 0, 78, 90
2, 334048, Note_off_c, 0, 78, 100
2, 334080, Note_on_c, 0, 79, 90
2, 334144, Note_off_c, 0, 79, 100
2, 334160, Note_on_c, 0, 77, 90
2, 334224, Note_off_c, 0, 77, 100
2, 334272, Note_on_c, 0, 75, 90
2, 334336, Note_off_c, 0, 75, 100
2, 334368, Note_on_c, 0, 74, 90
2, 334432, Note_off_c, 0, 74, 100
2, 334464, Note_on_c, 0, 72, 90
2, 334528, Note_off_c, 0, 72, 100
2, 334560, Note_on_c, 0, 70, 90
2, 334624, Note_off_c, 0, 70, 100
2, 334656, Note_on_c, 0, 69, 90
2, 334720, Note_off_c, 0, 69, 100
2, 334752, Note_on_c, 0, 67, 90
2, 334816, Note_off_c, 0, 67, 100
2, 334848, Note_on_c, 0, 65, 90
2, 334976, Note_off_c, 0, 65, 100
2, 335040, Note_on_c, 0, 67, 90
2, 335104, Note_off_c, 0, 67, 100
2, 335136, Note_on_c, 0, 69, 90
2, 335200, Note_off_c, 0, 69, 100
2, 335232, Note_on_c, 0, 70, 90
2, 335296, Note_off_c, 0, 70, 100
2, 335328, Note_on_c, 0, 72, 90
2, 335392, Note_off_c, 0, 72, 100
2, 335424, Note_on_c, 0, 74, 90
2, 335488, Note_off_c, 0, 74, 100
2, 335520, Note_on_c, 0, 75, 90
2, 335584, Note_off_c, 0, 75, 100
2, 335616, Note_on_c, 0, 77, 90
2, 335680, Note_off_c, 0, 77, 100
2, 335712, Note_on_c, 0, 79, 90
2, 335776, Note_off_c, 0, 79, 100
2, 335808, Note_on_c, 0, 81, 90
2, 335872, Note_off_c, 0, 81, 100
2, 335904, Note_on_c, 0, 82, 90
2, 335968, Note_off_c, 0, 82, 100
2, 336000, Note_on_c, 0, 84, 90
2, 336064, Note_off_c, 0, 84, 100
2, 336096, Note_on_c, 0, 86, 90
2, 336160, Note_off_c, 0, 86, 100
2, 336192, Note_on_c, 0, 87, 90
2, 336256, Note_off_c, 0, 87, 100
2, 336288, Note_on_c, 0, 89, 90
2, 336352, Note_off_c, 0, 89, 100
2, 336384, Note_on_c, 0, 82, 90
2, 336416, Note_off_c, 0, 82, 100
2, 336432, Note_on_c, 0, 84, 90
2, 336464, Note_off_c, 0, 84, 100
2, 336480, Note_on_c, 0, 86, 90
2, 336512, Note_off_c, 0, 86, 100
2, 336576, Note_on_c, 0, 84, 90
2, 336608, Note_off_c, 0, 84, 100
2, 336624, Note_on_c, 0, 86, 90
2, 336656, Note_off_c, 0, 86, 100
2, 336672, Note_on_c, 0, 84, 90
2, 336704, Note_off_c, 0, 84, 100
2, 336720, Note_on_c, 0, 86, 90
2, 336752, Note_off_c, 0, 86, 100
2, 336768, Note_on_c, 0, 84, 90
2, 336800, Note_off_c, 0, 84, 100
2, 336816, Note_on_c, 0, 86, 90
2, 336848, Note_off_c, 0, 86, 100
2, 336864, Note_on_c, 0, 84, 90
2, 336896, Note_off_c, 0, 84, 100
2, 336912, Note_on_c, 0, 86, 90
2, 336944, Note_off_c, 0, 86, 100
2, 336960, Note_on_c, 0, 84, 90
2, 336992, Note_off_c, 0, 84, 100
2, 337008, Note_on_c, 0, 86, 90
2, 337040, Note_off_c, 0, 86, 100
2, 337056, Note_on_c, 0, 84, 90
2, 337088, Note_off_c, 0, 84, 100
2, 337104, Note_on_c, 0, 86, 90
2, 337136, Note_off_c, 0, 86, 100
2, 337152, Note_on_c, 0, 84, 90
2, 337184, Note_off_c, 0, 84, 100
2, 337200, Note_on_c, 0, 86, 90
2, 337232, Note_off_c, 0, 86, 100
2, 337248, Note_on_c, 0, 84, 90
2, 337280, Note_off_c, 0, 84, 100
2, 337296, Note_on_c, 0, 86, 90
2, 337328, Note_off_c, 0, 86, 100
2, 337344, Note_on_c, 0, 84, 90
2, 337376, Note_off_c, 0, 84, 100
2, 337392, Note_on_c, 0, 86, 90
2, 337424, Note_off_c, 0, 86, 100
2, 337440, Note_on_c, 0, 84, 90
2, 337472, Note_off_c, 0, 84, 100
2, 337488, Note_on_c, 0, 86, 90
2, 337520, Note_off_c, 0, 86, 100
2, 337536, Note_on_c, 0, 84, 90
2, 337568, Note_off_c, 0, 84, 100
2, 337584, Note_on_c, 0, 86, 90
2, 337616, Note_off_c, 0, 86, 100
2, 337728, Note_on_c, 0, 82, 90
2, 337792, Note_off_c, 0, 82, 100
2, 337824, Note_on_c, 0, 84, 90
2, 337888, Note_off_c, 0, 84, 100
2, 337920, Note_on_c, 0, 82, 60
2, 338176, Note_off_c, 0, 82, 100
2, 339264, Note_on_c, 0, 70, 60
2, 339392, Note_off_c, 0, 70, 100
2, 339456, Note_on_c, 0, 80, 60
2, 339456, Note_on_c, 0, 65, 60
2, 339584, Note_off_c, 0, 65, 100
2, 339648, Note_on_c, 0, 58, 60
2, 339712, Note_off_c, 0, 80, 100
2, 339776, Note_off_c, 0, 58, 100
2, 339840, Note_on_c, 0, 65, 60
2, 339968, Note_off_c, 0, 65, 100
2, 340032, Note_on_c, 0, 77, 60
2, 340032, Note_on_c, 0, 58, 60
2, 340160, Note_off_c, 0, 77, 100
2, 340160, Note_off_c, 0, 58, 100
2, 340224, Note_on_c, 0, 74, 60
2, 340224, Note_on_c, 0, 68, 60
2, 340352, Note_off_c, 0, 68, 100
2, 340416, Note_on_c, 0, 58, 60
2, 340480, Note_off_c, 0, 74, 100
2, 340544, Note_off_c, 0, 58, 100
2, 340608, Note_on_c, 0, 74, 60
2, 340608, Note_on_c, 0, 68, 60
2, 340736, Note_off_c, 0, 68, 100
2, 340800, Note_on_c, 0, 58, 60
2, 340864, Note_off_c, 0, 74, 100
2, 340928, Note_off_c, 0, 58, 100
2, 340992, Note_on_c, 0, 75, 60
2, 340992, Note_on_c, 0, 70, 60
2, 341120, Note_off_c, 0, 70, 100
2, 341184, Note_on_c, 0, 58, 60
2, 341248, Note_off_c, 0, 75, 100
2, 341312, Note_off_c, 0, 58, 100
2, 341376, Note_on_c, 0, 77, 60
2, 341376, Note_on_c, 0, 62, 60
2, 341504, Note_off_c, 0, 62, 100
2, 341568, Note_on_c, 0, 58, 60
2, 341632, Note_off_c, 0, 77, 100
2, 341696, Note_off_c, 0, 58, 100
2, 341760, Note_on_c, 0, 79, 60
2, 341760, Note_on_c, 0, 63, 60
2, 341888, Note_off_c, 0, 63, 100
2, 341952, Note_on_c, 0, 58, 60
2, 342016, Note_off_c, 0, 79, 100
2, 342080, Note_off_c, 0, 58, 100
2, 342144, Note_on_c, 0, 63, 60
2, 342272, Note_off_c, 0, 63, 100
2, 342336, Note_on_c, 0, 79, 60
2, 342336, Note_on_c, 0, 58, 60
2, 342464, Note_off_c, 0, 79, 100
2, 342464, Note_off_c, 0, 58, 100
2, 342528, Note_on_c, 0, 77, 60
2, 342528, Note_on_c, 0, 60, 60
2, 342656, Note_off_c, 0, 77, 100
2, 342656, Note_off_c, 0, 60, 100
2, 342720, Note_on_c, 0, 75, 60
2, 342720, Note_on_c, 0, 58, 60
2, 342848, Note_off_c, 0, 75, 100
2, 342848, Note_off_c, 0, 58, 100
2, 342912, Note_on_c, 0, 74, 60
2, 342912, Note_on_c, 0, 60, 60
2, 343040, Note_off_c, 0, 74, 100
2, 343040, Note_off_c, 0, 60, 100
2, 343104, Note_on_c, 0, 72, 60
2, 343104, Note_on_c, 0, 58, 60
2, 343232, Note_off_c, 0, 72, 100
2, 343232, Note_off_c, 0, 58, 100
2, 343296, Note_on_c, 0, 70, 60
2, 343296, Note_on_c, 0, 60, 60
2, 343424, Note_off_c, 0, 70, 100
2, 343424, Note_off_c, 0, 60, 100
2, 343488, Note_on_c, 0, 69, 60
2, 343488, Note_on_c, 0, 58, 60
2, 343616, Note_off_c, 0, 69, 100
2, 343616, Note_off_c, 0, 58, 100
2, 343680, Note_on_c, 0, 75, 60
2, 343680, Note_on_c, 0, 60, 60
2, 343808, Note_off_c, 0, 75, 100
2, 343808, Note_off_c, 0, 60, 100
2, 343872, Note_on_c, 0, 69, 60
2, 343872, Note_on_c, 0, 58, 60
2, 344000, Note_off_c, 0, 69, 100
2, 344000, Note_off_c, 0, 58, 100
2, 344064, Note_on_c, 0, 70, 60
2, 344064, Note_on_c, 0, 62, 60
2, 344064, Note_on_c, 0, 58, 60
2, 344192, Note_off_c, 0, 70, 100
2, 344256, Note_on_c, 0, 72, 60
2, 344320, Note_off_c, 0, 62, 100
2, 344320, Note_off_c, 0, 58, 100
2, 344384, Note_off_c, 0, 72, 100
2, 344448, Note_on_c, 0, 74, 60
2, 344576, Note_off_c, 0, 74, 100
2, 344640, Note_on_c, 0, 75, 60
2, 344768, Note_off_c, 0, 75, 100
2, 344832, Note_on_c, 0, 76, 60
2, 344960, Note_off_c, 0, 76, 100
2, 345024, Note_on_c, 0, 77, 60
2, 345152, Note_off_c, 0, 77, 100
2, 345216, Note_on_c, 0, 78, 60
2, 345344, Note_off_c, 0, 78, 100
2, 345408, Note_on_c, 0, 79, 60
2, 345536, Note_off_c, 0, 79, 100
2, 345600, Note_on_c, 0, 80, 60
2, 345600, Note_on_c, 0, 65, 60
2, 345728, Note_off_c, 0, 65, 100
2, 345792, Note_on_c, 0, 58, 60
2, 345920, Note_off_c, 0, 58, 100
2, 345984, Note_on_c, 0, 65, 60
2, 346080, Note_on_c, 0, 79, 60
2, 346112, Note_off_c, 0, 65, 100
2, 346144, Note_off_c, 0, 79, 100
2, 346176, Note_on_c, 0, 77, 60
2, 346176, Note_on_c, 0, 58, 60
2, 346240, Note_off_c, 0, 77, 100
2, 346272, Note_on_c, 0, 75, 60
2, 346304, Note_off_c, 0, 58, 100
2, 346336, Note_off_c, 0, 75, 100
2, 346368, Note_off_c, 0, 80, 100
2, 346368, Note_on_c, 0, 74, 60
2, 346368, Note_on_c, 0, 68, 60
2, 346496, Note_off_c, 0, 74, 100
2, 346496, Note_off_c, 0, 68, 100
2, 346560, Note_on_c, 0, 74, 60
2, 346560, Note_on_c, 0, 58, 60
2, 346688, Note_off_c, 0, 74, 100
2, 346688, Note_off_c, 0, 58, 100
2, 346752, Note_on_c, 0, 74, 60
2, 346752, Note_on_c, 0, 68, 60
2, 346880, Note_off_c, 0, 74, 100
2, 346880, Note_off_c, 0, 68, 100
2, 346944, Note_on_c, 0, 74, 60
2, 346944, Note_on_c, 0, 57, 60
2, 347072, Note_off_c, 0, 74, 100
2, 347072, Note_off_c, 0, 57, 100
2, 347136, Note_on_c, 0, 75, 60
2, 347136, Note_on_c, 0, 67, 60
2, 347264, Note_off_c, 0, 67, 100
2, 347328, Note_on_c, 0, 58, 60
2, 347392, Note_off_c, 0, 75, 100
2, 347456, Note_off_c, 0, 58, 100
2, 347520, Note_on_c, 0, 77, 60
2, 347520, Note_on_c, 0, 62, 60
2, 347648, Note_off_c, 0, 62, 100
2, 347712, Note_off_c, 0, 77, 100
2, 347712, Note_on_c, 0, 75, 60
2, 347712, Note_on_c, 0, 58, 60
2, 347776, Note_off_c, 0, 75, 100
2, 347808, Note_on_c, 0, 77, 60
2, 347840, Note_off_c, 0, 58, 100
2, 347872, Note_off_c, 0, 77, 100
2, 347904, Note_on_c, 0, 79, 60
2, 347904, Note_on_c, 0, 63, 60
2, 348032, Note_off_c, 0, 63, 100
2, 348096, Note_on_c, 0, 58, 60
2, 348160, Note_off_c, 0, 79, 100
2, 348224, Note_off_c, 0, 58, 100
2, 348288, Note_on_c, 0, 63, 60
2, 348416, Note_off_c, 0, 63, 100
2, 348480, Note_on_c, 0, 79, 60
2, 348480, Note_on_c, 0, 58, 60
2, 348608, Note_off_c, 0, 79, 100
2, 348608, Note_off_c, 0, 58, 100
2, 348672, Note_on_c, 0, 77, 60
2, 348672, Note_on_c, 0, 60, 60
2, 348800, Note_off_c, 0, 77, 100
2, 348800, Note_off_c, 0, 60, 100
2, 348864, Note_on_c, 0, 75, 60
2, 348864, Note_on_c, 0, 58, 60
2, 348992, Note_off_c, 0, 75, 100
2, 348992, Note_off_c, 0, 58, 100
2, 349056, Note_on_c, 0, 74, 60
2, 349056, Note_on_c, 0, 60, 60
2, 349184, Note_off_c, 0, 74, 100
2, 349184, Note_off_c, 0, 60, 100
2, 349248, Note_on_c, 0, 72, 60
2, 349248, Note_on_c, 0, 58, 60
2, 349376, Note_off_c, 0, 72, 100
2, 349376, Note_off_c, 0, 58, 100
2, 349440, Note_on_c, 0, 70, 60
2, 349440, Note_on_c, 0, 60, 60
2, 349568, Note_off_c, 0, 70, 100
2, 349568, Note_off_c, 0, 60, 100
2, 349632, Note_on_c, 0, 69, 60
2, 349632, Note_on_c, 0, 58, 60
2, 349760, Note_off_c, 0, 69, 100
2, 349760, Note_off_c, 0, 58, 100
2, 349824, Note_on_c, 0, 75, 60
2, 349824, Note_on_c, 0, 60, 60
2, 349952, Note_off_c, 0, 75, 100
2, 349952, Note_off_c, 0, 60, 100
2, 350016, Note_on_c, 0, 69, 60
2, 350016, Note_on_c, 0, 58, 60
2, 350144, Note_off_c, 0, 69, 100
2, 350144, Note_off_c, 0, 58, 100
2, 350208, Note_on_c, 0, 70, 60
2, 350208, Note_on_c, 0, 62, 60
2, 350208, Note_on_c, 0, 58, 60
2, 350464, Note_off_c, 0, 70, 100
2, 350464, Note_off_c, 0, 62, 100
2, 350464, Note_off_c, 0, 58, 100
2, 350784, Note_on_c, 0, 74, 60
2, 350912, Note_off_c, 0, 74, 100
2, 350976, Note_on_c, 0, 77, 60
2, 351104, Note_off_c, 0, 77, 100
2, 351168, Note_on_c, 0, 75, 60
2, 351296, Note_off_c, 0, 75, 100
2, 351360, Note_on_c, 0, 72, 60
2, 351488, Note_off_c, 0, 72, 100
2, 351552, Note_on_c, 0, 69, 60
2, 351680, Note_off_c, 0, 69, 100
2, 351744, Note_on_c, 0, 70, 44
2, 352000, Note_off_c, 0, 70, 100
2, 352320, Note_on_c, 0, 74, 44
2, 352384, Note_off_c, 0, 74, 100
2, 352416, Note_on_c, 0, 70, 44
2, 352480, Note_off_c, 0, 70, 100
2, 352512, Note_on_c, 0, 77, 44
2, 352640, Note_off_c, 0, 77, 100
2, 352704, Note_on_c, 0, 75, 44
2, 352832, Note_off_c, 0, 75, 100
2, 352896, Note_on_c, 0, 72, 44
2, 353024, Note_off_c, 0, 72, 100
2, 353088, Note_on_c, 0, 69, 44
2, 353216, Note_off_c, 0, 69, 100
2, 353280, Note_on_c, 0, 70, 44
2, 353536, Note_off_c, 0, 70, 100
2, 353856, Note_on_c, 0, 77, 90
2, 353984, Note_off_c, 0, 77, 100
2, 354048, Note_on_c, 0, 81, 90
2, 354048, Note_on_c, 0, 77, 90
2, 354048, Note_on_c, 0, 75, 90
2, 354048, Note_on_c, 0, 72, 90
2, 354304, Note_off_c, 0, 81, 100
2, 354304, Note_off_c, 0, 77, 100
2, 354304, Note_off_c, 0, 75, 100
2, 354304, Note_off_c, 0, 72, 100
2, 354432, Note_on_c, 0, 81, 90
2, 354432, Note_on_c, 0, 72, 90
2, 354432, Note_on_c, 0, 77, 90
2, 354432, Note_on_c, 0, 75, 90
2, 354688, Note_off_c, 0, 81, 100
2, 354688, Note_off_c, 0, 72, 100
2, 354688, Note_off_c, 0, 77, 100
2, 354688, Note_off_c, 0, 75, 100
2, 354816, Note_on_c, 0, 82, 90
2, 354816, Note_on_c, 0, 77, 90
2, 354816, Note_on_c, 0, 74, 90
2, 354816, Note_on_c, 0, 70, 90
2, 355072, Note_off_c, 0, 82, 100
2, 355072, Note_off_c, 0, 77, 100
2, 355072, Note_off_c, 0, 74, 100
2, 355072, Note_off_c, 0, 70, 100
2, 355072, End_track
3, 0, Start_track
3, 0, Title_t, "K315-c-Allegretto Grazioso"
3, 0, Control_c, 1, 0, 0
3, 0, Program_c, 1, 0
3, 0, Control_c, 1, 10, 54
3, 0, Control_c, 1, 91, 127
3, 0, Control_c, 1, 93, 63
3, 0, Key_signature, -2, "minor"
3, 0, Control_c, 1, 121, 0
3, 96, Control_c, 1, 10, 53
3, 192, Control_c, 1, 91, 73
3, 240, Control_c, 1, 93, 50
3, 288, Program_c, 1, 0
3, 1920, Note_on_c, 1, 58, 60
3, 2176, Note_off_c, 1, 58, 100
3, 2304, Note_on_c, 1, 62, 60
3, 2560, Note_off_c, 1, 62, 100
3, 2688, Note_on_c, 1, 67, 60
3, 2944, Note_off_c, 1, 67, 100
3, 3072, Note_on_c, 1, 60, 60
3, 3328, Note_off_c, 1, 60, 100
3, 3456, Note_on_c, 1, 63, 60
3, 3712, Note_off_c, 1, 63, 100
3, 3840, Note_on_c, 1, 65, 60
3, 4096, Note_off_c, 1, 65, 100
3, 4224, Note_on_c, 1, 63, 60
3, 4480, Note_off_c, 1, 63, 100
3, 4608, Note_on_c, 1, 62, 60
3, 4864, Note_off_c, 1, 62, 100
3, 4992, Note_on_c, 1, 57, 60
3, 5248, Note_off_c, 1, 57, 100
3, 5376, Note_on_c, 1, 58, 60
3, 5632, Note_off_c, 1, 58, 100
3, 5760, Note_on_c, 1, 60, 60
3, 5760, Note_on_c, 1, 51, 60
3, 6016, Note_off_c, 1, 60, 100
3, 6016, Note_off_c, 1, 51, 100
3, 6144, Note_on_c, 1, 58, 60
3, 6144, Note_on_c, 1, 53, 60
3, 6656, Note_off_c, 1, 58, 100
3, 6656, Note_off_c, 1, 53, 100
3, 6912, Note_on_c, 1, 57, 60
3, 6912, Note_on_c, 1, 53, 60
3, 7168, Note_off_c, 1, 57, 100
3, 7168, Note_off_c, 1, 53, 100
3, 8064, Note_on_c, 1, 58, 60
3, 8320, Note_off_c, 1, 58, 100
3, 8448, Note_on_c, 1, 62, 60
3, 8704, Note_off_c, 1, 62, 100
3, 8832, Note_on_c, 1, 67, 60
3, 9088, Note_off_c, 1, 67, 100
3, 9216, Note_on_c, 1, 60, 60
3, 9472, Note_off_c, 1, 60, 100
3, 9600, Note_on_c, 1, 63, 60
3, 9856, Note_off_c, 1, 63, 100
3, 9984, Note_on_c, 1, 65, 60
3, 10240, Note_off_c, 1, 65, 100
3, 10368, Note_on_c, 1, 63, 60
3, 10624, Note_off_c, 1, 63, 100
3, 10752, Note_on_c, 1, 62, 60
3, 11008, Note_off_c, 1, 62, 100
3, 11136, Note_on_c, 1, 63, 60
3, 11136, Note_on_c, 1, 51, 60
3, 11392, Note_off_c, 1, 63, 100
3, 11392, Note_off_c, 1, 51, 100
3, 11520, Note_on_c, 1, 62, 60
3, 11520, Note_on_c, 1, 53, 60
3, 11776, Note_off_c, 1, 62, 100
3, 11904, Note_on_c, 1, 60, 60
3, 12032, Note_off_c, 1, 53, 100
3, 12160, Note_off_c, 1, 60, 100
3, 12288, Note_on_c, 1, 58, 60
3, 12544, Note_off_c, 1, 58, 100
3, 13824, Note_on_c, 1, 58, 90
3, 13952, Note_off_c, 1, 58, 100
3, 14016, Note_on_c, 1, 65, 90
3, 14144, Note_off_c, 1, 65, 100
3, 14208, Note_on_c, 1, 62, 90
3, 14336, Note_off_c, 1, 62, 100
3, 14400, Note_on_c, 1, 65, 90
3, 14528, Note_off_c, 1, 65, 100
3, 14592, Note_on_c, 1, 55, 90
3, 14720, Note_off_c, 1, 55, 100
3, 14784, Note_on_c, 1, 62, 90
3, 14912, Note_off_c, 1, 62, 100
3, 14976, Note_on_c, 1, 58, 90
3, 15104, Note_off_c, 1, 58, 100
3, 15168, Note_on_c, 1, 62, 90
3, 15296, Note_off_c, 1, 62, 100
3, 15360, Note_on_c, 1, 51, 90
3, 15488, Note_off_c, 1, 51, 100
3, 15552, Note_on_c, 1, 60, 90
3, 15680, Note_off_c, 1, 60, 100
3, 15744, Note_on_c, 1, 55, 90
3, 15872, Note_off_c, 1, 55, 100
3, 15936, Note_on_c, 1, 60, 90
3, 16064, Note_off_c, 1, 60, 100
3, 16128, Note_on_c, 1, 53, 90
3, 16256, Note_off_c, 1, 53, 100
3, 16320, Note_on_c, 1, 63, 90
3, 16448, Note_off_c, 1, 63, 100
3, 16512, Note_on_c, 1, 60, 90
3, 16640, Note_off_c, 1, 60, 100
3, 16704, Note_on_c, 1, 63, 90
3, 16832, Note_off_c, 1, 63, 100
3, 16896, Note_on_c, 1, 62, 90
3, 17152, Note_off_c, 1, 62, 100
3, 17280, Note_on_c, 1, 57, 90
3, 17280, Note_on_c, 1, 65, 90
3, 17536, Note_off_c, 1, 57, 100
3, 17664, Note_on_c, 1, 58, 90
3, 17792, Note_off_c, 1, 65, 100
3, 17920, Note_off_c, 1, 58, 100
3, 18048, Note_on_c, 1, 51, 90
3, 18048, Note_on_c, 1, 60, 90
3, 18304, Note_off_c, 1, 51, 100
3, 18304, Note_off_c, 1, 60, 100
3, 18432, Note_on_c, 1, 58, 90
3, 18432, Note_on_c, 1, 53, 90
3, 18944, Note_off_c, 1, 58, 100
3, 18944, Note_off_c, 1, 53, 100
3, 19200, Note_on_c, 1, 57, 90
3, 19200, Note_on_c, 1, 53, 90
3, 19456, Note_off_c, 1, 57, 100
3, 19456, Note_off_c, 1, 53, 100
3, 19968, Note_on_c, 1, 58, 90
3, 20096, Note_off_c, 1, 58, 100
3, 20160, Note_on_c, 1, 65, 90
3, 20288, Note_off_c, 1, 65, 100
3, 20352, Note_on_c, 1, 62, 90
3, 20480, Note_off_c, 1, 62, 100
3, 20544, Note_on_c, 1, 65, 90
3, 20672, Note_off_c, 1, 65, 100
3, 20736, Note_on_c, 1, 55, 90
3, 20864, Note_off_c, 1, 55, 100
3, 20928, Note_on_c, 1, 62, 90
3, 21056, Note_off_c, 1, 62, 100
3, 21120, Note_on_c, 1, 58, 90
3, 21248, Note_off_c, 1, 58, 100
3, 21312, Note_on_c, 1, 62, 90
3, 21440, Note_off_c, 1, 62, 100
3, 21504, Note_on_c, 1, 51, 90
3, 21632, Note_off_c, 1, 51, 100
3, 21696, Note_on_c, 1, 60, 90
3, 21824, Note_off_c, 1, 60, 100
3, 21888, Note_on_c, 1, 55, 90
3, 22016, Note_off_c, 1, 55, 100
3, 22080, Note_on_c, 1, 60, 90
3, 22208, Note_off_c, 1, 60, 100
3, 22272, Note_on_c, 1, 53, 90
3, 22400, Note_off_c, 1, 53, 100
3, 22464, Note_on_c, 1, 63, 90
3, 22592, Note_off_c, 1, 63, 100
3, 22656, Note_on_c, 1, 60, 90
3, 22784, Note_off_c, 1, 60, 100
3, 22848, Note_on_c, 1, 63, 90
3, 22976, Note_off_c, 1, 63, 100
3, 23040, Note_on_c, 1, 58, 90
3, 23040, Note_on_c, 1, 50, 90
3, 23296, Note_off_c, 1, 50, 100
3, 23424, Note_on_c, 1, 51, 90
3, 23552, Note_off_c, 1, 58, 100
3, 23680, Note_off_c, 1, 51, 100
3, 23808, Note_on_c, 1, 53, 90
3, 23808, Note_on_c, 1, 62, 90
3, 24064, Note_off_c, 1, 62, 100
3, 24192, Note_on_c, 1, 63, 90
3, 24320, Note_off_c, 1, 53, 100
3, 24448, Note_off_c, 1, 63, 100
3, 24576, Note_on_c, 1, 58, 90
3, 24576, Note_on_c, 1, 62, 90
3, 24832, Note_off_c, 1, 58, 100
3, 24832, Note_off_c, 1, 62, 100
3, 24960, Note_on_c, 1, 46, 90
3, 25216, Note_off_c, 1, 46, 100
3, 26496, Note_on_c, 1, 58, 60
3, 26752, Note_off_c, 1, 58, 100
3, 26880, Note_on_c, 1, 55, 60
3, 27136, Note_off_c, 1, 55, 100
3, 27264, Note_on_c, 1, 51, 60
3, 27520, Note_off_c, 1, 51, 100
3, 27648, Note_on_c, 1, 53, 60
3, 27904, Note_off_c, 1, 53, 100
3, 28032, Note_on_c, 1, 41, 60
3, 28288, Note_off_c, 1, 41, 100
3, 29568, Note_on_c, 1, 60, 60
3, 29824, Note_off_c, 1, 60, 100
3, 29952, Note_on_c, 1, 57, 60
3, 30208, Note_off_c, 1, 57, 100
3, 30336, Note_on_c, 1, 53, 60
3, 30592, Note_off_c, 1, 53, 100
3, 30720, Note_on_c, 1, 58, 60
3, 30976, Note_off_c, 1, 58, 100
3, 31104, Note_on_c, 1, 46, 60
3, 31360, Note_off_c, 1, 46, 100
3, 32448, Note_on_c, 1, 57, 90
3, 32576, Note_off_c, 1, 57, 100
3, 32640, Note_on_c, 1, 60, 90
3, 32768, Note_off_c, 1, 60, 100
3, 32832, Note_on_c, 1, 57, 90
3, 32960, Note_off_c, 1, 57, 100
3, 33024, Note_on_c, 1, 65, 90
3, 33280, Note_off_c, 1, 65, 100
3, 33984, Note_on_c, 1, 57, 90
3, 34112, Note_off_c, 1, 57, 100
3, 34176, Note_on_c, 1, 60, 90
3, 34304, Note_off_c, 1, 60, 100
3, 34368, Note_on_c, 1, 57, 90
3, 34496, Note_off_c, 1, 57, 100
3, 34560, Note_on_c, 1, 64, 90
3, 34816, Note_off_c, 1, 64, 100
3, 35328, Note_on_c, 1, 65, 90
3, 35584, Note_off_c, 1, 65, 100
3, 36480, Note_on_c, 1, 53, 90
3, 36736, Note_off_c, 1, 53, 100
3, 36864, Note_on_c, 1, 48, 90
3, 36992, Note_off_c, 1, 48, 100
3, 37056, Note_on_c, 1, 60, 90
3, 37184, Note_off_c, 1, 60, 100
3, 37248, Note_on_c, 1, 59, 90
3, 37376, Note_off_c, 1, 59, 100
3, 37440, Note_on_c, 1, 60, 90
3, 37568, Note_off_c, 1, 60, 100
3, 37632, Note_on_c, 1, 58, 60
3, 37760, Note_off_c, 1, 58, 100
3, 37824, Note_on_c, 1, 60, 60
3, 37952, Note_off_c, 1, 60, 100
3, 38016, Note_on_c, 1, 58, 60
3, 38144, Note_off_c, 1, 58, 100
3, 38208, Note_on_c, 1, 60, 60
3, 38336, Note_off_c, 1, 60, 100
3, 38400, Note_on_c, 1, 57, 60
3, 38528, Note_off_c, 1, 57, 100
3, 38592, Note_on_c, 1, 60, 60
3, 38720, Note_off_c, 1, 60, 100
3, 38784, Note_on_c, 1, 57, 60
3, 38912, Note_off_c, 1, 57, 100
3, 38976, Note_on_c, 1, 60, 60
3, 39104, Note_off_c, 1, 60, 100
3, 39168, Note_on_c, 1, 58, 60
3, 39296, Note_off_c, 1, 58, 100
3, 39360, Note_on_c, 1, 60, 60
3, 39488, Note_off_c, 1, 60, 100
3, 39552, Note_on_c, 1, 58, 60
3, 39680, Note_off_c, 1, 58, 100
3, 39744, Note_on_c, 1, 60, 60
3, 39872, Note_off_c, 1, 60, 100
3, 39936, Note_on_c, 1, 57, 60
3, 40064, Note_off_c, 1, 57, 100
3, 40128, Note_on_c, 1, 60, 60
3, 40256, Note_off_c, 1, 60, 100
3, 40320, Note_on_c, 1, 57, 60
3, 40448, Note_off_c, 1, 57, 100
3, 40512, Note_on_c, 1, 60, 60
3, 40640, Note_off_c, 1, 60, 100
3, 40704, Note_on_c, 1, 58, 60
3, 40832, Note_off_c, 1, 58, 100
3, 40896, Note_on_c, 1, 60, 60
3, 41024, Note_off_c, 1, 60, 100
3, 41088, Note_on_c, 1, 58, 60
3, 41216, Note_off_c, 1, 58, 100
3, 41280, Note_on_c, 1, 60, 60
3, 41408, Note_off_c, 1, 60, 100
3, 41472, Note_on_c, 1, 57, 60
3, 41600, Note_off_c, 1, 57, 100
3, 41664, Note_on_c, 1, 60, 60
3, 41792, Note_off_c, 1, 60, 100
3, 41856, Note_on_c, 1, 57, 60
3, 41984, Note_off_c, 1, 57, 100
3, 42048, Note_on_c, 1, 60, 60
3, 42176, Note_off_c, 1, 60, 100
3, 42240, Note_on_c, 1, 58, 60
3, 42368, Note_off_c, 1, 58, 100
3, 42432, Note_on_c, 1, 60, 60
3, 42560, Note_off_c, 1, 60, 100
3, 42624, Note_on_c, 1, 58, 60
3, 42752, Note_off_c, 1, 58, 100
3, 42816, Note_on_c, 1, 60, 60
3, 42944, Note_off_c, 1, 60, 100
3, 43008, Note_on_c, 1, 57, 61
3, 43136, Note_off_c, 1, 57, 100
3, 43200, Note_on_c, 1, 60, 62
3, 43328, Note_off_c, 1, 60, 100
3, 43392, Note_on_c, 1, 57, 64
3, 43520, Note_off_c, 1, 57, 100
3, 43584, Note_on_c, 1, 60, 68
3, 43712, Note_off_c, 1, 60, 100
3, 43776, Note_on_c, 1, 58, 73
3, 43904, Note_off_c, 1, 58, 100
3, 43968, Note_on_c, 1, 60, 78
3, 44096, Note_off_c, 1, 60, 100
3, 44160, Note_on_c, 1, 58, 82
3, 44288, Note_off_c, 1, 58, 100
3, 44352, Note_on_c, 1, 60, 86
3, 44480, Note_off_c, 1, 60, 100
3, 44544, Note_on_c, 1, 57, 90
3, 44800, Note_off_c, 1, 57, 100
3, 50496, Note_on_c, 1, 57, 90
3, 50624, Note_off_c, 1, 57, 100
3, 50688, Note_on_c, 1, 58, 90
3, 50944, Note_off_c, 1, 58, 100
3, 51456, Note_on_c, 1, 46, 90
3, 51456, Note_on_c, 1, 34, 90
3, 51712, Note_off_c, 1, 46, 100
3, 51712, Note_off_c, 1, 34, 100
3, 52224, Note_on_c, 1, 48, 90
3, 52352, Note_off_c, 1, 48, 100
3, 52416, Note_on_c, 1, 57, 90
3, 52544, Note_off_c, 1, 57, 100
3, 52608, Note_on_c, 1, 53, 90
3, 52736, Note_off_c, 1, 53, 100
3, 52800, Note_on_c, 1, 57, 90
3, 52928, Note_off_c, 1, 57, 100
3, 52992, Note_on_c, 1, 48, 90
3, 53120, Note_off_c, 1, 48, 100
3, 53184, Note_on_c, 1, 57, 90
3, 53312, Note_off_c, 1, 57, 100
3, 53376, Note_on_c, 1, 53, 90
3, 53504, Note_off_c, 1, 53, 100
3, 53568, Note_on_c, 1, 57, 90
3, 53696, Note_off_c, 1, 57, 100
3, 53760, Note_on_c, 1, 48, 90
3, 53888, Note_off_c, 1, 48, 100
3, 53952, Note_on_c, 1, 58, 90
3, 54080, Note_off_c, 1, 58, 100
3, 54144, Note_on_c, 1, 52, 90
3, 54272, Note_off_c, 1, 52, 100
3, 54336, Note_on_c, 1, 58, 90
3, 54464, Note_off_c, 1, 58, 100
3, 54528, Note_on_c, 1, 48, 90
3, 54656, Note_off_c, 1, 48, 100
3, 54720, Note_on_c, 1, 58, 90
3, 54848, Note_off_c, 1, 58, 100
3, 54912, Note_on_c, 1, 52, 90
3, 55040, Note_off_c, 1, 52, 100
3, 55104, Note_on_c, 1, 58, 90
3, 55232, Note_off_c, 1, 58, 100
3, 55296, Note_on_c, 1, 57, 60
3, 55296, Note_on_c, 1, 53, 60
3, 55552, Note_off_c, 1, 57, 100
3, 55552, Note_off_c, 1, 53, 100
3, 55680, Note_on_c, 1, 57, 60
3, 55680, Note_on_c, 1, 53, 60
3, 55936, Note_off_c, 1, 57, 100
3, 55936, Note_off_c, 1, 53, 100
3, 56448, Note_on_c, 1, 57, 60
3, 56448, Note_on_c, 1, 53, 60
3, 56704, Note_off_c, 1, 57, 100
3, 56704, Note_off_c, 1, 53, 100
3, 56832, Note_on_c, 1, 58, 61
3, 56832, Note_on_c, 1, 55, 61
3, 56832, Note_on_c, 1, 53, 61
3, 57088, Note_off_c, 1, 58, 100
3, 57088, Note_off_c, 1, 55, 100
3, 57088, Note_off_c, 1, 53, 100
3, 57216, Note_on_c, 1, 58, 64
3, 57216, Note_on_c, 1, 55, 64
3, 57216, Note_on_c, 1, 53, 64
3, 57472, Note_off_c, 1, 58, 100
3, 57472, Note_off_c, 1, 55, 100
3, 57472, Note_off_c, 1, 53, 100
3, 57984, Note_on_c, 1, 56, 68
3, 57984, Note_on_c, 1, 59, 68
3, 57984, Note_on_c, 1, 53, 68
3, 58240, Note_off_c, 1, 56, 100
3, 58240, Note_off_c, 1, 59, 100
3, 58240, Note_off_c, 1, 53, 100
3, 58368, Note_on_c, 1, 60, 73
3, 58368, Note_on_c, 1, 57, 73
3, 58368, Note_on_c, 1, 53, 73
3, 58624, Note_off_c, 1, 60, 100
3, 58624, Note_off_c, 1, 57, 100
3, 58752, Note_on_c, 1, 61, 78
3, 58752, Note_on_c, 1, 57, 78
3, 58880, Note_off_c, 1, 53, 100
3, 59008, Note_off_c, 1, 61, 100
3, 59008, Note_off_c, 1, 57, 100
3, 59136, Note_on_c, 1, 62, 82
3, 59136, Note_on_c, 1, 58, 82
3, 59136, Note_on_c, 1, 53, 82
3, 59392, Note_off_c, 1, 62, 100
3, 59392, Note_off_c, 1, 58, 100
3, 59520, Note_on_c, 1, 62, 85
3, 59520, Note_on_c, 1, 59, 85
3, 59648, Note_off_c, 1, 53, 100
3, 59776, Note_off_c, 1, 62, 100
3, 59776, Note_off_c, 1, 59, 100
3, 59904, Note_on_c, 1, 63, 90
3, 59904, Note_on_c, 1, 53, 90
3, 59904, Note_on_c, 1, 60, 90
3, 62468, Note_off_c, 1, 53, 100
3, 62468, Note_off_c, 1, 60, 100
3, 62468, Note_off_c, 1, 63, 100
3, 63360, Note_on_c, 1, 58, 60
3, 63616, Note_off_c, 1, 58, 100
3, 63744, Note_on_c, 1, 62, 60
3, 64000, Note_off_c, 1, 62, 100
3, 64128, Note_on_c, 1, 67, 60
3, 64384, Note_off_c, 1, 67, 100
3, 64512, Note_on_c, 1, 60, 60
3, 64768, Note_off_c, 1, 60, 100
3, 64896, Note_on_c, 1, 63, 60
3, 65152, Note_off_c, 1, 63, 100
3, 65280, Note_on_c, 1, 65, 60
3, 65536, Note_off_c, 1, 65, 100
3, 65664, Note_on_c, 1, 63, 60
3, 65920, Note_off_c, 1, 63, 100
3, 66048, Note_on_c, 1, 62, 60
3, 66304, Note_off_c, 1, 62, 100
3, 66432, Note_on_c, 1, 57, 60
3, 66688, Note_off_c, 1, 57, 100
3, 66816, Note_on_c, 1, 58, 60
3, 67072, Note_off_c, 1, 58, 100
3, 67200, Note_on_c, 1, 60, 60
3, 67200, Note_on_c, 1, 51, 60
3, 67456, Note_off_c, 1, 60, 100
3, 67456, Note_off_c, 1, 51, 100
3, 67584, Note_on_c, 1, 58, 60
3, 67584, Note_on_c, 1, 53, 60
3, 68096, Note_off_c, 1, 58, 100
3, 68096, Note_off_c, 1, 53, 100
3, 68352, Note_on_c, 1, 57, 60
3, 68352, Note_on_c, 1, 53, 60
3, 68608, Note_off_c, 1, 57, 100
3, 68608, Note_off_c, 1, 53, 100
3, 69504, Note_on_c, 1, 58, 60
3, 69760, Note_off_c, 1, 58, 100
3, 69888, Note_on_c, 1, 62, 60
3, 70144, Note_off_c, 1, 62, 100
3, 70272, Note_on_c, 1, 67, 60
3, 70528, Note_off_c, 1, 67, 100
3, 70656, Note_on_c, 1, 60, 60
3, 70912, Note_off_c, 1, 60, 100
3, 71040, Note_on_c, 1, 63, 60
3, 71296, Note_off_c, 1, 63, 100
3, 71424, Note_on_c, 1, 65, 60
3, 71680, Note_off_c, 1, 65, 100
3, 71808, Note_on_c, 1, 63, 60
3, 72064, Note_off_c, 1, 63, 100
3, 72192, Note_on_c, 1, 62, 60
3, 72448, Note_off_c, 1, 62, 100
3, 72576, Note_on_c, 1, 63, 60
3, 72576, Note_on_c, 1, 51, 60
3, 72832, Note_off_c, 1, 63, 100
3, 72832, Note_off_c, 1, 51, 100
3, 72960, Note_on_c, 1, 62, 60
3, 72960, Note_on_c, 1, 53, 60
3, 73216, Note_off_c, 1, 62, 100
3, 73344, Note_on_c, 1, 60, 60
3, 73472, Note_off_c, 1, 53, 100
3, 73600, Note_off_c, 1, 60, 100
3, 73728, Note_on_c, 1, 58, 60
3, 73984, Note_off_c, 1, 58, 100
3, 75264, Note_on_c, 1, 58, 90
3, 75392, Note_off_c, 1, 58, 100
3, 75456, Note_on_c, 1, 65, 90
3, 75584, Note_off_c, 1, 65, 100
3, 75648, Note_on_c, 1, 62, 90
3, 75776, Note_off_c, 1, 62, 100
3, 75840, Note_on_c, 1, 65, 90
3, 75968, Note_off_c, 1, 65, 100
3, 76032, Note_on_c, 1, 55, 90
3, 76160, Note_off_c, 1, 55, 100
3, 76224, Note_on_c, 1, 62, 90
3, 76352, Note_off_c, 1, 62, 100
3, 76416, Note_on_c, 1, 58, 90
3, 76544, Note_off_c, 1, 58, 100
3, 76608, Note_on_c, 1, 62, 90
3, 76736, Note_off_c, 1, 62, 100
3, 76800, Note_on_c, 1, 51, 90
3, 76928, Note_off_c, 1, 51, 100
3, 76992, Note_on_c, 1, 60, 90
3, 77120, Note_off_c, 1, 60, 100
3, 77184, Note_on_c, 1, 55, 90
3, 77312, Note_off_c, 1, 55, 100
3, 77376, Note_on_c, 1, 60, 90
3, 77504, Note_off_c, 1, 60, 100
3, 77568, Note_on_c, 1, 53, 90
3, 77696, Note_off_c, 1, 53, 100
3, 77760, Note_on_c, 1, 63, 90
3, 77888, Note_off_c, 1, 63, 100
3, 77952, Note_on_c, 1, 60, 90
3, 78080, Note_off_c, 1, 60, 100
3, 78144, Note_on_c, 1, 63, 90
3, 78272, Note_off_c, 1, 63, 100
3, 78336, Note_on_c, 1, 62, 90
3, 78592, Note_off_c, 1, 62, 100
3, 78720, Note_on_c, 1, 57, 90
3, 78720, Note_on_c, 1, 65, 90
3, 78976, Note_off_c, 1, 57, 100
3, 79104, Note_on_c, 1, 58, 90
3, 79232, Note_off_c, 1, 65, 100
3, 79360, Note_off_c, 1, 58, 100
3, 79488, Note_on_c, 1, 51, 90
3, 79488, Note_on_c, 1, 60, 90
3, 79744, Note_off_c, 1, 51, 100
3, 79744, Note_off_c, 1, 60, 100
3, 79872, Note_on_c, 1, 58, 90
3, 79872, Note_on_c, 1, 53, 90
3, 80384, Note_off_c, 1, 58, 100
3, 80384, Note_off_c, 1, 53, 100
3, 80640, Note_on_c, 1, 53, 90
3, 80640, Note_on_c, 1, 57, 90
3, 80896, Note_off_c, 1, 53, 100
3, 80896, Note_off_c, 1, 57, 100
3, 81408, Note_on_c, 1, 58, 90
3, 81536, Note_off_c, 1, 58, 100
3, 81600, Note_on_c, 1, 65, 90
3, 81728, Note_off_c, 1, 65, 100
3, 81792, Note_on_c, 1, 62, 90
3, 81920, Note_off_c, 1, 62, 100
3, 81984, Note_on_c, 1, 65, 90
3, 82112, Note_off_c, 1, 65, 100
3, 82176, Note_on_c, 1, 55, 90
3, 82304, Note_off_c, 1, 55, 100
3, 82368, Note_on_c, 1, 62, 90
3, 82496, Note_off_c, 1, 62, 100
3, 82560, Note_on_c, 1, 58, 90
3, 82688, Note_off_c, 1, 58, 100
3, 82752, Note_on_c, 1, 62, 90
3, 82880, Note_off_c, 1, 62, 100
3, 82944, Note_on_c, 1, 51, 90
3, 83072, Note_off_c, 1, 51, 100
3, 83136, Note_on_c, 1, 60, 90
3, 83264, Note_off_c, 1, 60, 100
3, 83328, Note_on_c, 1, 55, 90
3, 83456, Note_off_c, 1, 55, 100
3, 83520, Note_on_c, 1, 62, 90
3, 83648, Note_off_c, 1, 62, 100
3, 83712, Note_on_c, 1, 53, 90
3, 83840, Note_off_c, 1, 53, 100
3, 83904, Note_on_c, 1, 63, 90
3, 84032, Note_off_c, 1, 63, 100
3, 84096, Note_on_c, 1, 60, 90
3, 84224, Note_off_c, 1, 60, 100
3, 84288, Note_on_c, 1, 63, 90
3, 84416, Note_off_c, 1, 63, 100
3, 84480, Note_on_c, 1, 58, 90
3, 84480, Note_on_c, 1, 50, 90
3, 84736, Note_off_c, 1, 50, 100
3, 84864, Note_on_c, 1, 51, 90
3, 84992, Note_off_c, 1, 58, 100
3, 85120, Note_off_c, 1, 51, 100
3, 85248, Note_on_c, 1, 53, 90
3, 85248, Note_on_c, 1, 62, 90
3, 85504, Note_off_c, 1, 62, 100
3, 85632, Note_on_c, 1, 63, 90
3, 85760, Note_off_c, 1, 53, 100
3, 85888, Note_off_c, 1, 63, 100
3, 86016, Note_on_c, 1, 62, 90
3, 86016, Note_on_c, 1, 58, 90
3, 86272, Note_off_c, 1, 62, 100
3, 86272, Note_off_c, 1, 58, 100
3, 86400, Note_on_c, 1, 46, 90
3, 86656, Note_off_c, 1, 46, 100
3, 87936, Note_on_c, 1, 58, 60
3, 88192, Note_off_c, 1, 58, 100
3, 88320, Note_on_c, 1, 55, 60
3, 88576, Note_off_c, 1, 55, 100
3, 88704, Note_on_c, 1, 51, 60
3, 88960, Note_off_c, 1, 51, 100
3, 89088, Note_on_c, 1, 53, 60
3, 89344, Note_off_c, 1, 53, 100
3, 89472, Note_on_c, 1, 41, 60
3, 89728, Note_off_c, 1, 41, 100
3, 91008, Note_on_c, 1, 58, 60
3, 91264, Note_off_c, 1, 58, 100
3, 91392, Note_on_c, 1, 57, 60
3, 91648, Note_off_c, 1, 57, 100
3, 91776, Note_on_c, 1, 53, 60
3, 92032, Note_off_c, 1, 53, 100
3, 92160, Note_on_c, 1, 58, 60
3, 92416, Note_off_c, 1, 58, 100
3, 92544, Note_on_c, 1, 46, 60
3, 92800, Note_off_c, 1, 46, 100
3, 94080, Note_on_c, 1, 58, 60
3, 94080, Note_on_c, 1, 62, 60
3, 94336, Note_off_c, 1, 58, 100
3, 94336, Note_off_c, 1, 62, 100
3, 94464, Note_on_c, 1, 58, 60
3, 94464, Note_on_c, 1, 62, 60
3, 94720, Note_off_c, 1, 58, 100
3, 94720, Note_off_c, 1, 62, 100
3, 94848, Note_on_c, 1, 58, 60
3, 94848, Note_on_c, 1, 62, 60
3, 95104, Note_off_c, 1, 58, 100
3, 95104, Note_off_c, 1, 62, 100
3, 95232, Note_on_c, 1, 60, 90
3, 95232, Note_on_c, 1, 57, 90
3, 95744, Note_off_c, 1, 60, 100
3, 95744, Note_off_c, 1, 57, 100
3, 96000, Note_on_c, 1, 57, 60
3, 96000, Note_on_c, 1, 50, 60
3, 96512, Note_off_c, 1, 57, 100
3, 96512, Note_off_c, 1, 50, 100
3, 96768, Note_on_c, 1, 51, 60
3, 96960, Note_on_c, 1, 55, 60
3, 97088, Note_off_c, 1, 55, 100
3, 97152, Note_on_c, 1, 57, 60
3, 97280, Note_off_c, 1, 57, 100
3, 97344, Note_on_c, 1, 58, 60
3, 97472, Note_off_c, 1, 58, 100
3, 97536, Note_on_c, 1, 58, 60
3, 97664, Note_off_c, 1, 58, 100
3, 97728, Note_on_c, 1, 57, 60
3, 97796, Note_off_c, 1, 51, 100
3, 97856, Note_off_c, 1, 57, 100
3, 97920, Note_on_c, 1, 57, 60
3, 98048, Note_off_c, 1, 57, 100
3, 98112, Note_on_c, 1, 55, 60
3, 98240, Note_off_c, 1, 55, 100
3, 98304, Note_on_c, 1, 54, 60
3, 98304, Note_on_c, 1, 50, 60
3, 98560, Note_off_c, 1, 54, 100
3, 98560, Note_off_c, 1, 50, 100
3, 99840, Note_on_c, 1, 55, 90
3, 99968, Note_off_c, 1, 55, 100
3, 100032, Note_on_c, 1, 58, 90
3, 100160, Note_off_c, 1, 58, 100
3, 100224, Note_on_c, 1, 62, 90
3, 100352, Note_off_c, 1, 62, 100
3, 100416, Note_on_c, 1, 58, 90
3, 100544, Note_off_c, 1, 58, 100
3, 100608, Note_on_c, 1, 55, 90
3, 100736, Note_off_c, 1, 55, 100
3, 100800, Note_on_c, 1, 58, 90
3, 100928, Note_off_c, 1, 58, 100
3, 100992, Note_on_c, 1, 62, 90
3, 101120, Note_off_c, 1, 62, 100
3, 101184, Note_on_c, 1, 58, 90
3, 101312, Note_off_c, 1, 58, 100
3, 101376, Note_on_c, 1, 55, 90
3, 101504, Note_off_c, 1, 55, 100
3, 101568, Note_on_c, 1, 60, 90
3, 101696, Note_off_c, 1, 60, 100
3, 101760, Note_on_c, 1, 63, 90
3, 101888, Note_off_c, 1, 63, 100
3, 101952, Note_on_c, 1, 60, 90
3, 102080, Note_off_c, 1, 60, 100
3, 102144, Note_on_c, 1, 55, 90
3, 102272, Note_off_c, 1, 55, 100
3, 102336, Note_on_c, 1, 60, 90
3, 102464, Note_off_c, 1, 60, 100
3, 102528, Note_on_c, 1, 63, 90
3, 102656, Note_off_c, 1, 63, 100
3, 102720, Note_on_c, 1, 60, 90
3, 102848, Note_off_c, 1, 60, 100
3, 102912, Note_on_c, 1, 55, 90
3, 103040, Note_off_c, 1, 55, 100
3, 103104, Note_on_c, 1, 60, 90
3, 103232, Note_off_c, 1, 60, 100
3, 103296, Note_on_c, 1, 63, 90
3, 103424, Note_off_c, 1, 63, 100
3, 103488, Note_on_c, 1, 60, 90
3, 103616, Note_off_c, 1, 60, 100
3, 103680, Note_on_c, 1, 55, 90
3, 103808, Note_off_c, 1, 55, 100
3, 103872, Note_on_c, 1, 60, 90
3, 104000, Note_off_c, 1, 60, 100
3, 104064, Note_on_c, 1, 63, 90
3, 104192, Note_off_c, 1, 63, 100
3, 104256, Note_on_c, 1, 60, 90
3, 104384, Note_off_c, 1, 60, 100
3, 104448, Note_on_c, 1, 55, 90
3, 104576, Note_off_c, 1, 55, 100
3, 104640, Note_on_c, 1, 58, 90
3, 104768, Note_off_c, 1, 58, 100
3, 104832, Note_on_c, 1, 62, 90
3, 104960, Note_off_c, 1, 62, 100
3, 105984, Note_on_c, 1, 57, 90
3, 105984, Note_on_c, 1, 60, 90
3, 105984, Note_on_c, 1, 63, 90
3, 106240, Note_off_c, 1, 57, 100
3, 106240, Note_off_c, 1, 60, 100
3, 106240, Note_off_c, 1, 63, 100
3, 106368, Note_on_c, 1, 58, 90
3, 106368, Note_on_c, 1, 62, 90
3, 106496, Note_off_c, 1, 58, 100
3, 106496, Note_off_c, 1, 62, 100
3, 107520, Note_on_c, 1, 57, 90
3, 107520, Note_on_c, 1, 60, 90
3, 107520, Note_on_c, 1, 63, 90
3, 107776, Note_off_c, 1, 57, 100
3, 107776, Note_off_c, 1, 60, 100
3, 107776, Note_off_c, 1, 63, 100
3, 107904, Note_on_c, 1, 58, 90
3, 107904, Note_on_c, 1, 62, 90
3, 108032, Note_off_c, 1, 58, 100
3, 108032, Note_off_c, 1, 62, 100
3, 109056, Note_on_c, 1, 58, 90
3, 109056, Note_on_c, 1, 51, 90
3, 109568, Note_off_c, 1, 58, 100
3, 109824, Note_on_c, 1, 55, 90
3, 110084, Note_off_c, 1, 51, 100
3, 110336, Note_off_c, 1, 55, 100
3, 110592, Note_on_c, 1, 54, 90
3, 110592, Note_on_c, 1, 50, 90
3, 110848, Note_off_c, 1, 54, 100
3, 110848, Note_off_c, 1, 50, 100
3, 110976, Note_on_c, 1, 57, 82
3, 110976, Note_on_c, 1, 50, 82
3, 110976, Note_on_c, 1, 54, 82
3, 111232, Note_off_c, 1, 57, 100
3, 111232, Note_off_c, 1, 50, 100
3, 111232, Note_off_c, 1, 54, 100
3, 111360, Note_on_c, 1, 57, 74
3, 111360, Note_on_c, 1, 54, 74
3, 111360, Note_on_c, 1, 50, 74
3, 111616, Note_off_c, 1, 57, 100
3, 111616, Note_off_c, 1, 54, 100
3, 111616, Note_off_c, 1, 50, 100
3, 111744, Note_on_c, 1, 57, 67
3, 111744, Note_on_c, 1, 54, 67
3, 111744, Note_on_c, 1, 50, 67
3, 112000, Note_off_c, 1, 57, 100
3, 112000, Note_off_c, 1, 54, 100
3, 112000, Note_off_c, 1, 50, 100
3, 112512, Note_on_c, 1, 57, 62
3, 112512, Note_on_c, 1, 53, 62
3, 112512, Note_on_c, 1, 50, 62
3, 112768, Note_off_c, 1, 57, 100
3, 112768, Note_off_c, 1, 53, 100
3, 112768, Note_off_c, 1, 50, 100
3, 112896, Note_on_c, 1, 57, 68
3, 112896, Note_on_c, 1, 53, 68
3, 112896, Note_on_c, 1, 50, 68
3, 113152, Note_off_c, 1, 57, 100
3, 113152, Note_off_c, 1, 53, 100
3, 113152, Note_off_c, 1, 50, 100
3, 113280, Note_on_c, 1, 57, 73
3, 113280, Note_on_c, 1, 50, 73
3, 113280, Note_on_c, 1, 53, 73
3, 113536, Note_off_c, 1, 57, 100
3, 113536, Note_off_c, 1, 50, 100
3, 113536, Note_off_c, 1, 53, 100
3, 114048, Note_on_c, 1, 58, 78
3, 114048, Note_on_c, 1, 53, 78
3, 114048, Note_on_c, 1, 50, 78
3, 114304, Note_off_c, 1, 58, 100
3, 114304, Note_off_c, 1, 53, 100
3, 114304, Note_off_c, 1, 50, 100
3, 114432, Note_on_c, 1, 58, 82
3, 114432, Note_on_c, 1, 53, 82
3, 114432, Note_on_c, 1, 50, 82
3, 114688, Note_off_c, 1, 58, 100
3, 114688, Note_off_c, 1, 53, 100
3, 114688, Note_off_c, 1, 50, 100
3, 114816, Note_on_c, 1, 58, 86
3, 114816, Note_on_c, 1, 53, 86
3, 114816, Note_on_c, 1, 50, 86
3, 115072, Note_off_c, 1, 58, 100
3, 115072, Note_off_c, 1, 53, 100
3, 115072, Note_off_c, 1, 50, 100
3, 115584, Note_on_c, 1, 53, 90
3, 115584, Note_on_c, 1, 46, 90
3, 115840, Note_off_c, 1, 53, 100
3, 115840, Note_off_c, 1, 46, 100
3, 115968, Note_on_c, 1, 53, 90
3, 115968, Note_on_c, 1, 46, 90
3, 116224, Note_off_c, 1, 53, 100
3, 116224, Note_off_c, 1, 46, 100
3, 116352, Note_on_c, 1, 53, 90
3, 116352, Note_on_c, 1, 46, 90
3, 116608, Note_off_c, 1, 53, 100
3, 116608, Note_off_c, 1, 46, 100
3, 116736, Note_on_c, 1, 51, 90
3, 116736, Note_on_c, 1, 39, 90
3, 116992, Note_off_c, 1, 51, 100
3, 116992, Note_off_c, 1, 39, 100
3, 117120, Note_on_c, 1, 51, 60
3, 117376, Note_off_c, 1, 51, 100
3, 117504, Note_on_c, 1, 55, 60
3, 117760, Note_off_c, 1, 55, 100
3, 117888, Note_on_c, 1, 56, 60
3, 118144, Note_off_c, 1, 56, 100
3, 118272, Note_on_c, 1, 55, 60
3, 118528, Note_off_c, 1, 55, 100
3, 118656, Note_on_c, 1, 50, 60
3, 118912, Note_off_c, 1, 50, 100
3, 119040, Note_on_c, 1, 51, 60
3, 119296, Note_off_c, 1, 51, 100
3, 119424, Note_on_c, 1, 53, 60
3, 119680, Note_off_c, 1, 53, 100
3, 120192, Note_on_c, 1, 46, 60
3, 120448, Note_off_c, 1, 46, 100
3, 120576, Note_on_c, 1, 50, 60
3, 120832, Note_off_c, 1, 50, 100
3, 120960, Note_on_c, 1, 49, 60
3, 121216, Note_off_c, 1, 49, 100
3, 121344, Note_on_c, 1, 50, 60
3, 121600, Note_off_c, 1, 50, 100
3, 121728, Note_on_c, 1, 52, 60
3, 121984, Note_off_c, 1, 52, 100
3, 122112, Note_on_c, 1, 53, 60
3, 122368, Note_off_c, 1, 53, 100
3, 122496, Note_on_c, 1, 50, 60
3, 122752, Note_off_c, 1, 50, 100
3, 122880, Note_on_c, 1, 51, 90
3, 123136, Note_off_c, 1, 51, 100
3, 123264, Note_on_c, 1, 39, 90
3, 123520, Note_off_c, 1, 39, 100
3, 124800, Note_on_c, 1, 63, 90
3, 124800, Note_on_c, 1, 56, 90
3, 125056, Note_off_c, 1, 63, 100
3, 125056, Note_off_c, 1, 56, 100
3, 125568, Note_on_c, 1, 63, 90
3, 125568, Note_on_c, 1, 60, 90
3, 125824, Note_off_c, 1, 63, 100
3, 125824, Note_off_c, 1, 60, 100
3, 125952, Note_on_c, 1, 63, 90
3, 125952, Note_on_c, 1, 58, 90
3, 126208, Note_off_c, 1, 63, 100
3, 126208, Note_off_c, 1, 58, 100
3, 126336, Note_on_c, 1, 46, 90
3, 126592, Note_off_c, 1, 46, 100
3, 127104, Note_on_c, 1, 55, 90
3, 127104, Note_on_c, 1, 63, 90
3, 127360, Note_off_c, 1, 55, 100
3, 127360, Note_off_c, 1, 63, 100
3, 127872, Note_on_c, 1, 63, 90
3, 127872, Note_on_c, 1, 56, 90
3, 128128, Note_off_c, 1, 63, 100
3, 128128, Note_off_c, 1, 56, 100
3, 128640, Note_on_c, 1, 63, 90
3, 128640, Note_on_c, 1, 60, 90
3, 128896, Note_off_c, 1, 63, 100
3, 128896, Note_off_c, 1, 60, 100
3, 129024, Note_on_c, 1, 58, 90
3, 129024, Note_on_c, 1, 63, 90
3, 129280, Note_off_c, 1, 58, 100
3, 129280, Note_off_c, 1, 63, 100
3, 129408, Note_on_c, 1, 46, 90
3, 129664, Note_off_c, 1, 46, 100
3, 130176, Note_on_c, 1, 60, 90
3, 130176, Note_on_c, 1, 63, 90
3, 130432, Note_off_c, 1, 60, 100
3, 130432, Note_off_c, 1, 63, 100
3, 130944, Note_on_c, 1, 55, 90
3, 130944, Note_on_c, 1, 63, 90
3, 131200, Note_off_c, 1, 55, 100
3, 131200, Note_off_c, 1, 63, 100
3, 131328, Note_on_c, 1, 56, 90
3, 131328, Note_on_c, 1, 63, 90
3, 131584, Note_off_c, 1, 56, 100
3, 131584, Note_off_c, 1, 63, 100
3, 131712, Note_on_c, 1, 56, 90
3, 131712, Note_on_c, 1, 53, 90
3, 131968, Note_off_c, 1, 56, 100
3, 131968, Note_off_c, 1, 53, 100
3, 132096, Note_on_c, 1, 55, 90
3, 132096, Note_on_c, 1, 58, 90
3, 132352, Note_off_c, 1, 55, 100
3, 132352, Note_off_c, 1, 58, 100
3, 132480, Note_on_c, 1, 55, 90
3, 132480, Note_on_c, 1, 58, 90
3, 132736, Note_off_c, 1, 55, 100
3, 132736, Note_off_c, 1, 58, 100
3, 132864, Note_on_c, 1, 58, 90
3, 132864, Note_on_c, 1, 56, 90
3, 132864, Note_on_c, 1, 53, 90
3, 133120, Note_off_c, 1, 58, 100
3, 133120, Note_off_c, 1, 56, 100
3, 133120, Note_off_c, 1, 53, 100
3, 133248, Note_on_c, 1, 58, 90
3, 133248, Note_on_c, 1, 55, 90
3, 133248, Note_on_c, 1, 51, 90
3, 133504, Note_off_c, 1, 58, 100
3, 133504, Note_off_c, 1, 55, 100
3, 133504, Note_off_c, 1, 51, 100
3, 133632, Note_on_c, 1, 58, 90
3, 133632, Note_on_c, 1, 53, 90
3, 133632, Note_on_c, 1, 50, 90
3, 133888, Note_off_c, 1, 58, 100
3, 133888, Note_off_c, 1, 53, 100
3, 133888, Note_off_c, 1, 50, 100
3, 136704, Note_on_c, 1, 58, 90
3, 136704, Note_on_c, 1, 53, 90
3, 136704, Note_on_c, 1, 50, 90
3, 136960, Note_off_c, 1, 58, 100
3, 136960, Note_off_c, 1, 53, 100
3, 136960, Note_off_c, 1, 50, 100
3, 152064, Note_on_c, 1, 56, 60
3, 152064, Note_on_c, 1, 65, 60
3, 152320, Note_off_c, 1, 56, 100
3, 152320, Note_off_c, 1, 65, 100
3, 152832, Note_on_c, 1, 54, 62
3, 152832, Note_on_c, 1, 61, 62
3, 153088, Note_off_c, 1, 54, 100
3, 153088, Note_off_c, 1, 61, 100
3, 153984, Note_on_c, 1, 53, 67
3, 153984, Note_on_c, 1, 62, 67
3, 154240, Note_off_c, 1, 53, 100
3, 154240, Note_off_c, 1, 62, 100
3, 154752, Note_on_c, 1, 51, 73
3, 154752, Note_on_c, 1, 63, 73
3, 155008, Note_off_c, 1, 51, 100
3, 155008, Note_off_c, 1, 63, 100
3, 155520, Note_on_c, 1, 53, 80
3, 155520, Note_on_c, 1, 61, 80
3, 155776, Note_off_c, 1, 53, 100
3, 155776, Note_off_c, 1, 61, 100
3, 156288, Note_on_c, 1, 54, 86
3, 156288, Note_on_c, 1, 61, 86
3, 156544, Note_off_c, 1, 54, 100
3, 156544, Note_off_c, 1, 61, 100
3, 156672, Note_on_c, 1, 64, 90
3, 156672, Note_on_c, 1, 54, 90
3, 157184, Note_off_c, 1, 64, 100
3, 157440, Note_on_c, 1, 58, 90
3, 157700, Note_off_c, 1, 54, 100
3, 157952, Note_off_c, 1, 58, 100
3, 158208, Note_on_c, 1, 57, 90
3, 158208, Note_on_c, 1, 53, 90
3, 158720, Note_off_c, 1, 57, 100
3, 158976, Note_on_c, 1, 58, 90
3, 159236, Note_off_c, 1, 53, 100
3, 159488, Note_off_c, 1, 58, 100
3, 159744, Note_on_c, 1, 53, 90
3, 159744, Note_on_c, 1, 57, 90
3, 160256, Note_off_c, 1, 57, 100
3, 160512, Note_on_c, 1, 58, 90
3, 160772, Note_off_c, 1, 53, 100
3, 161024, Note_off_c, 1, 58, 100
3, 161280, Note_on_c, 1, 65, 60
3, 161408, Note_off_c, 1, 65, 100
3, 161472, Note_on_c, 1, 65, 60
3, 161600, Note_off_c, 1, 65, 100
3, 161856, Note_on_c, 1, 65, 60
3, 161984, Note_off_c, 1, 65, 100
3, 162048, Note_on_c, 1, 65, 60
3, 162176, Note_off_c, 1, 65, 100
3, 162240, Note_on_c, 1, 65, 60
3, 162368, Note_off_c, 1, 65, 100
3, 162624, Note_on_c, 1, 65, 60
3, 162752, Note_off_c, 1, 65, 100
3, 162816, Note_on_c, 1, 65, 60
3, 162944, Note_off_c, 1, 65, 100
3, 163008, Note_on_c, 1, 65, 60
3, 163136, Note_off_c, 1, 65, 100
3, 163392, Note_on_c, 1, 65, 60
3, 163520, Note_off_c, 1, 65, 100
3, 163584, Note_on_c, 1, 65, 60
3, 163712, Note_off_c, 1, 65, 100
3, 163776, Note_on_c, 1, 65, 60
3, 163904, Note_off_c, 1, 65, 100
3, 164160, Note_on_c, 1, 65, 60
3, 164288, Note_off_c, 1, 65, 100
3, 164352, Note_on_c, 1, 65, 60
3, 164352, Note_on_c, 1, 53, 60
3, 164608, Note_off_c, 1, 65, 100
3, 164608, Note_off_c, 1, 53, 100
3, 164736, Note_on_c, 1, 57, 60
3, 164736, Note_on_c, 1, 53, 60
3, 164992, Note_off_c, 1, 57, 100
3, 164992, Note_off_c, 1, 53, 100
3, 165504, Note_on_c, 1, 57, 60
3, 165504, Note_on_c, 1, 53, 60
3, 165760, Note_off_c, 1, 57, 100
3, 165760, Note_off_c, 1, 53, 100
3, 165888, Note_on_c, 1, 58, 60
3, 165888, Note_on_c, 1, 55, 60
3, 165888, Note_on_c, 1, 53, 60
3, 166144, Note_off_c, 1, 58, 100
3, 166144, Note_off_c, 1, 55, 100
3, 166144, Note_off_c, 1, 53, 100
3, 166272, Note_on_c, 1, 58, 60
3, 166272, Note_on_c, 1, 55, 60
3, 166272, Note_on_c, 1, 53, 60
3, 166528, Note_off_c, 1, 58, 100
3, 166528, Note_off_c, 1, 55, 100
3, 166528, Note_off_c, 1, 53, 100
3, 167040, Note_on_c, 1, 59, 60
3, 167040, Note_on_c, 1, 56, 60
3, 167040, Note_on_c, 1, 53, 60
3, 167296, Note_off_c, 1, 59, 100
3, 167296, Note_off_c, 1, 56, 100
3, 167296, Note_off_c, 1, 53, 100
3, 167424, Note_on_c, 1, 57, 60
3, 167424, Note_on_c, 1, 60, 60
3, 167424, Note_on_c, 1, 53, 60
3, 167680, Note_off_c, 1, 57, 100
3, 167680, Note_off_c, 1, 60, 100
3, 167808, Note_on_c, 1, 57, 60
3, 167808, Note_on_c, 1, 61, 60
3, 167936, Note_off_c, 1, 53, 100
3, 168064, Note_off_c, 1, 57, 100
3, 168064, Note_off_c, 1, 61, 100
3, 168192, Note_on_c, 1, 58, 60
3, 168192, Note_on_c, 1, 62, 60
3, 168192, Note_on_c, 1, 53, 60
3, 168448, Note_off_c, 1, 58, 100
3, 168448, Note_off_c, 1, 62, 100
3, 168576, Note_on_c, 1, 58, 60
3, 168576, Note_on_c, 1, 62, 60
3, 168704, Note_off_c, 1, 53, 100
3, 168832, Note_off_c, 1, 58, 100
3, 168832, Note_off_c, 1, 62, 100
3, 168960, Note_on_c, 1, 63, 90
3, 168960, Note_on_c, 1, 60, 90
3, 168960, Note_on_c, 1, 53, 90
3, 169988, Note_off_c, 1, 63, 100
3, 169988, Note_off_c, 1, 60, 100
3, 169988, Note_off_c, 1, 53, 100
3, 172416, Note_on_c, 1, 58, 60
3, 172672, Note_off_c, 1, 58, 100
3, 172800, Note_on_c, 1, 62, 60
3, 173056, Note_off_c, 1, 62, 100
3, 173184, Note_on_c, 1, 67, 60
3, 173440, Note_off_c, 1, 67, 100
3, 173568, Note_on_c, 1, 60, 60
3, 173824, Note_off_c, 1, 60, 100
3, 173952, Note_on_c, 1, 63, 60
3, 174208, Note_off_c, 1, 63, 100
3, 174336, Note_on_c, 1, 65, 60
3, 174592, Note_off_c, 1, 65, 100
3, 174720, Note_on_c, 1, 63, 60
3, 174976, Note_off_c, 1, 63, 100
3, 175104, Note_on_c, 1, 62, 60
3, 175360, Note_off_c, 1, 62, 100
3, 175488, Note_on_c, 1, 57, 60
3, 175744, Note_off_c, 1, 57, 100
3, 175872, Note_on_c, 1, 58, 60
3, 176128, Note_off_c, 1, 58, 100
3, 176256, Note_on_c, 1, 51, 60
3, 176256, Note_on_c, 1, 60, 60
3, 176512, Note_off_c, 1, 51, 100
3, 176512, Note_off_c, 1, 60, 100
3, 176640, Note_on_c, 1, 58, 60
3, 176640, Note_on_c, 1, 53, 60
3, 177152, Note_off_c, 1, 58, 100
3, 177152, Note_off_c, 1, 53, 100
3, 177408, Note_on_c, 1, 57, 60
3, 177408, Note_on_c, 1, 53, 60
3, 177664, Note_off_c, 1, 57, 100
3, 177664, Note_off_c, 1, 53, 100
3, 178560, Note_on_c, 1, 58, 60
3, 178816, Note_off_c, 1, 58, 100
3, 178944, Note_on_c, 1, 62, 60
3, 179200, Note_off_c, 1, 62, 100
3, 179328, Note_on_c, 1, 67, 60
3, 179584, Note_off_c, 1, 67, 100
3, 179712, Note_on_c, 1, 60, 60
3, 179968, Note_off_c, 1, 60, 100
3, 180096, Note_on_c, 1, 63, 60
3, 180352, Note_off_c, 1, 63, 100
3, 180480, Note_on_c, 1, 65, 60
3, 180736, Note_off_c, 1, 65, 100
3, 180864, Note_on_c, 1, 63, 60
3, 181120, Note_off_c, 1, 63, 100
3, 181248, Note_on_c, 1, 62, 60
3, 181504, Note_off_c, 1, 62, 100
3, 181632, Note_on_c, 1, 63, 60
3, 181632, Note_on_c, 1, 51, 60
3, 181888, Note_off_c, 1, 63, 100
3, 181888, Note_off_c, 1, 51, 100
3, 182016, Note_on_c, 1, 62, 60
3, 182016, Note_on_c, 1, 53, 60
3, 182272, Note_off_c, 1, 62, 100
3, 182400, Note_on_c, 1, 60, 60
3, 182528, Note_off_c, 1, 53, 100
3, 182656, Note_off_c, 1, 60, 100
3, 182784, Note_on_c, 1, 58, 60
3, 183040, Note_off_c, 1, 58, 100
3, 184320, Note_on_c, 1, 58, 90
3, 184448, Note_off_c, 1, 58, 100
3, 184512, Note_on_c, 1, 65, 90
3, 184640, Note_off_c, 1, 65, 100
3, 184704, Note_on_c, 1, 62, 90
3, 184832, Note_off_c, 1, 62, 100
3, 184896, Note_on_c, 1, 65, 90
3, 185024, Note_off_c, 1, 65, 100
3, 185088, Note_on_c, 1, 55, 90
3, 185216, Note_off_c, 1, 55, 100
3, 185280, Note_on_c, 1, 62, 90
3, 185408, Note_off_c, 1, 62, 100
3, 185472, Note_on_c, 1, 58, 90
3, 185600, Note_off_c, 1, 58, 100
3, 185664, Note_on_c, 1, 62, 90
3, 185792, Note_off_c, 1, 62, 100
3, 185856, Note_on_c, 1, 51, 90
3, 185984, Note_off_c, 1, 51, 100
3, 186048, Note_on_c, 1, 60, 90
3, 186176, Note_off_c, 1, 60, 100
3, 186240, Note_on_c, 1, 55, 90
3, 186368, Note_off_c, 1, 55, 100
3, 186432, Note_on_c, 1, 60, 90
3, 186560, Note_off_c, 1, 60, 100
3, 186624, Note_on_c, 1, 53, 90
3, 186752, Note_off_c, 1, 53, 100
3, 186816, Note_on_c, 1, 63, 90
3, 186944, Note_off_c, 1, 63, 100
3, 187008, Note_on_c, 1, 60, 90
3, 187136, Note_off_c, 1, 60, 100
3, 187200, Note_on_c, 1, 63, 90
3, 187328, Note_off_c, 1, 63, 100
3, 187392, Note_on_c, 1, 62, 90
3, 187648, Note_off_c, 1, 62, 100
3, 187776, Note_on_c, 1, 57, 90
3, 187776, Note_on_c, 1, 65, 90
3, 188032, Note_off_c, 1, 57, 100
3, 188160, Note_on_c, 1, 58, 90
3, 188288, Note_off_c, 1, 65, 100
3, 188416, Note_off_c, 1, 58, 100
3, 188544, Note_on_c, 1, 60, 90
3, 188544, Note_on_c, 1, 51, 90
3, 188800, Note_off_c, 1, 60, 100
3, 188800, Note_off_c, 1, 51, 100
3, 188928, Note_on_c, 1, 58, 90
3, 188928, Note_on_c, 1, 53, 90
3, 189440, Note_off_c, 1, 58, 100
3, 189440, Note_off_c, 1, 53, 100
3, 189696, Note_on_c, 1, 57, 90
3, 189696, Note_on_c, 1, 53, 90
3, 189952, Note_off_c, 1, 57, 100
3, 189952, Note_off_c, 1, 53, 100
3, 190464, Note_on_c, 1, 58, 90
3, 190592, Note_off_c, 1, 58, 100
3, 190656, Note_on_c, 1, 65, 90
3, 190784, Note_off_c, 1, 65, 100
3, 190848, Note_on_c, 1, 62, 90
3, 190976, Note_off_c, 1, 62, 100
3, 191040, Note_on_c, 1, 65, 90
3, 191168, Note_off_c, 1, 65, 100
3, 191232, Note_on_c, 1, 55, 90
3, 191360, Note_off_c, 1, 55, 100
3, 191424, Note_on_c, 1, 62, 90
3, 191552, Note_off_c, 1, 62, 100
3, 191616, Note_on_c, 1, 58, 90
3, 191744, Note_off_c, 1, 58, 100
3, 191808, Note_on_c, 1, 62, 90
3, 191936, Note_off_c, 1, 62, 100
3, 192000, Note_on_c, 1, 51, 90
3, 192128, Note_off_c, 1, 51, 100
3, 192192, Note_on_c, 1, 60, 90
3, 192320, Note_off_c, 1, 60, 100
3, 192384, Note_on_c, 1, 55, 90
3, 192512, Note_off_c, 1, 55, 100
3, 192576, Note_on_c, 1, 60, 90
3, 192704, Note_off_c, 1, 60, 100
3, 192768, Note_on_c, 1, 53, 90
3, 192896, Note_off_c, 1, 53, 100
3, 192960, Note_on_c, 1, 63, 90
3, 193088, Note_off_c, 1, 63, 100
3, 193152, Note_on_c, 1, 60, 90
3, 193280, Note_off_c, 1, 60, 100
3, 193344, Note_on_c, 1, 63, 90
3, 193472, Note_off_c, 1, 63, 100
3, 193536, Note_on_c, 1, 58, 90
3, 193536, Note_on_c, 1, 50, 90
3, 193792, Note_off_c, 1, 50, 100
3, 193920, Note_on_c, 1, 51, 90
3, 194048, Note_off_c, 1, 58, 100
3, 194176, Note_off_c, 1, 51, 100
3, 194304, Note_on_c, 1, 62, 90
3, 194304, Note_on_c, 1, 53, 90
3, 194560, Note_off_c, 1, 62, 100
3, 194688, Note_on_c, 1, 63, 90
3, 194816, Note_off_c, 1, 53, 100
3, 194944, Note_off_c, 1, 63, 100
3, 195072, Note_on_c, 1, 58, 90
3, 195072, Note_on_c, 1, 62, 90
3, 195328, Note_off_c, 1, 58, 100
3, 195328, Note_off_c, 1, 62, 100
3, 195456, Note_on_c, 1, 46, 90
3, 195712, Note_off_c, 1, 46, 100
3, 196992, Note_on_c, 1, 58, 60
3, 197248, Note_off_c, 1, 58, 100
3, 197376, Note_on_c, 1, 55, 60
3, 197632, Note_off_c, 1, 55, 100
3, 197760, Note_on_c, 1, 51, 60
3, 198016, Note_off_c, 1, 51, 100
3, 198144, Note_on_c, 1, 53, 60
3, 198400, Note_off_c, 1, 53, 100
3, 198528, Note_on_c, 1, 41, 60
3, 198784, Note_off_c, 1, 41, 100
3, 200064, Note_on_c, 1, 60, 60
3, 200320, Note_off_c, 1, 60, 100
3, 200448, Note_on_c, 1, 57, 60
3, 200704, Note_off_c, 1, 57, 100
3, 200832, Note_on_c, 1, 53, 60
3, 201088, Note_off_c, 1, 53, 100
3, 201216, Note_on_c, 1, 58, 60
3, 201472, Note_off_c, 1, 58, 100
3, 201600, Note_on_c, 1, 46, 60
3, 201856, Note_off_c, 1, 46, 100
3, 203136, Note_on_c, 1, 50, 90
3, 203136, Note_on_c, 1, 38, 90
3, 203392, Note_off_c, 1, 50, 100
3, 203392, Note_off_c, 1, 38, 100
3, 203520, Note_on_c, 1, 50, 90
3, 203520, Note_on_c, 1, 38, 90
3, 203776, Note_off_c, 1, 50, 100
3, 203776, Note_off_c, 1, 38, 100
3, 203904, Note_on_c, 1, 48, 90
3, 203904, Note_on_c, 1, 36, 90
3, 204160, Note_off_c, 1, 48, 100
3, 204160, Note_off_c, 1, 36, 100
3, 204288, Note_on_c, 1, 47, 90
3, 204288, Note_on_c, 1, 35, 90
3, 204544, Note_off_c, 1, 47, 100
3, 204544, Note_off_c, 1, 35, 100
3, 204672, Note_on_c, 1, 59, 90
3, 204928, Note_off_c, 1, 59, 100
3, 205440, Note_on_c, 1, 59, 60
3, 205440, Note_on_c, 1, 67, 60
3, 205696, Note_off_c, 1, 59, 100
3, 205696, Note_off_c, 1, 67, 100
3, 205824, Note_on_c, 1, 67, 60
3, 205824, Note_on_c, 1, 60, 60
3, 206080, Note_off_c, 1, 60, 100
3, 206208, Note_on_c, 1, 48, 60
3, 206336, Note_off_c, 1, 67, 100
3, 206464, Note_off_c, 1, 48, 100
3, 207744, Note_on_c, 1, 48, 90
3, 207744, Note_on_c, 1, 36, 90
3, 208000, Note_off_c, 1, 48, 100
3, 208000, Note_off_c, 1, 36, 100
3, 208128, Note_on_c, 1, 48, 90
3, 208128, Note_on_c, 1, 36, 90
3, 208384, Note_off_c, 1, 48, 100
3, 208384, Note_off_c, 1, 36, 100
3, 208512, Note_on_c, 1, 46, 90
3, 208512, Note_on_c, 1, 34, 90
3, 208768, Note_off_c, 1, 46, 100
3, 208768, Note_off_c, 1, 34, 100
3, 208896, Note_on_c, 1, 45, 90
3, 208896, Note_on_c, 1, 33, 90
3, 209152, Note_off_c, 1, 45, 100
3, 209152, Note_off_c, 1, 33, 100
3, 209280, Note_on_c, 1, 57, 90
3, 209536, Note_off_c, 1, 57, 100
3, 210048, Note_on_c, 1, 57, 60
3, 210048, Note_on_c, 1, 65, 60
3, 210304, Note_off_c, 1, 57, 100
3, 210304, Note_off_c, 1, 65, 100
3, 210432, Note_on_c, 1, 65, 60
3, 210432, Note_on_c, 1, 58, 60
3, 210688, Note_off_c, 1, 65, 100
3, 210688, Note_off_c, 1, 58, 100
3, 210816, Note_on_c, 1, 46, 60
3, 211072, Note_off_c, 1, 46, 100
3, 212160, Note_on_c, 1, 51, 90
3, 212288, Note_off_c, 1, 51, 100
3, 212352, Note_on_c, 1, 58, 90
3, 212480, Note_off_c, 1, 58, 100
3, 212544, Note_on_c, 1, 55, 90
3, 212672, Note_off_c, 1, 55, 100
3, 212736, Note_on_c, 1, 60, 90
3, 212992, Note_off_c, 1, 60, 100
3, 213696, Note_on_c, 1, 53, 90
3, 213824, Note_off_c, 1, 53, 100
3, 213888, Note_on_c, 1, 58, 90
3, 214016, Note_off_c, 1, 58, 100
3, 214080, Note_on_c, 1, 56, 90
3, 214208, Note_off_c, 1, 56, 100
3, 214272, Note_on_c, 1, 62, 90
3, 214528, Note_off_c, 1, 62, 100
3, 215232, Note_on_c, 1, 55, 90
3, 215360, Note_off_c, 1, 55, 100
3, 215424, Note_on_c, 1, 63, 90
3, 215552, Note_off_c, 1, 63, 100
3, 215616, Note_on_c, 1, 58, 90
3, 215744, Note_off_c, 1, 58, 100
3, 215808, Note_on_c, 1, 67, 90
3, 216064, Note_off_c, 1, 67, 100
3, 216768, Note_on_c, 1, 55, 90
3, 216896, Note_off_c, 1, 55, 100
3, 216960, Note_on_c, 1, 63, 90
3, 217088, Note_off_c, 1, 63, 100
3, 217152, Note_on_c, 1, 58, 90
3, 217280, Note_off_c, 1, 58, 100
3, 217344, Note_on_c, 1, 67, 90
3, 217600, Note_off_c, 1, 67, 100
3, 218112, Note_on_c, 1, 51, 90
3, 218880, Note_on_c, 1, 55, 90
3, 219140, Note_off_c, 1, 51, 100
3, 219392, Note_off_c, 1, 55, 100
3, 219648, Note_on_c, 1, 60, 90
3, 219648, Note_on_c, 1, 51, 90
3, 220160, Note_off_c, 1, 60, 100
3, 220160, Note_off_c, 1, 51, 100
3, 220416, Note_on_c, 1, 60, 90
3, 220416, Note_on_c, 1, 52, 90
3, 220928, Note_off_c, 1, 60, 100
3, 220928, Note_off_c, 1, 52, 100
3, 221184, Note_on_c, 1, 53, 90
3, 221312, Note_off_c, 1, 53, 100
3, 221376, Note_on_c, 1, 60, 90
3, 221504, Note_off_c, 1, 60, 100
3, 221568, Note_on_c, 1, 57, 90
3, 221696, Note_off_c, 1, 57, 100
3, 221760, Note_on_c, 1, 60, 90
3, 221888, Note_off_c, 1, 60, 100
3, 221952, Note_on_c, 1, 53, 90
3, 222080, Note_off_c, 1, 53, 100
3, 222144, Note_on_c, 1, 60, 90
3, 222272, Note_off_c, 1, 60, 100
3, 222336, Note_on_c, 1, 57, 90
3, 222464, Note_off_c, 1, 57, 100
3, 222528, Note_on_c, 1, 60, 90
3, 222656, Note_off_c, 1, 60, 100
3, 222720, Note_on_c, 1, 53, 90
3, 222848, Note_off_c, 1, 53, 100
3, 222912, Note_on_c, 1, 62, 90
3, 223040, Note_off_c, 1, 62, 100
3, 223104, Note_on_c, 1, 58, 90
3, 223232, Note_off_c, 1, 58, 100
3, 223296, Note_on_c, 1, 62, 90
3, 223424, Note_off_c, 1, 62, 100
3, 223488, Note_on_c, 1, 53, 90
3, 223616, Note_off_c, 1, 53, 100
3, 223680, Note_on_c, 1, 62, 90
3, 223808, Note_off_c, 1, 62, 100
3, 223872, Note_on_c, 1, 58, 90
3, 224000, Note_off_c, 1, 58, 100
3, 224064, Note_on_c, 1, 62, 90
3, 224192, Note_off_c, 1, 62, 100
3, 224256, Note_on_c, 1, 53, 90
3, 224384, Note_off_c, 1, 53, 100
3, 224448, Note_on_c, 1, 63, 90
3, 224576, Note_off_c, 1, 63, 100
3, 224640, Note_on_c, 1, 60, 90
3, 224768, Note_off_c, 1, 60, 100
3, 224832, Note_on_c, 1, 63, 90
3, 224960, Note_off_c, 1, 63, 100
3, 225024, Note_on_c, 1, 53, 90
3, 225152, Note_off_c, 1, 53, 100
3, 225216, Note_on_c, 1, 60, 90
3, 225344, Note_off_c, 1, 60, 100
3, 225408, Note_on_c, 1, 57, 90
3, 225536, Note_off_c, 1, 57, 100
3, 225600, Note_on_c, 1, 60, 90
3, 225728, Note_off_c, 1, 60, 100
3, 225792, Note_on_c, 1, 53, 90
3, 225920, Note_off_c, 1, 53, 100
3, 225984, Note_on_c, 1, 62, 90
3, 226112, Note_off_c, 1, 62, 100
3, 226176, Note_on_c, 1, 58, 90
3, 226304, Note_off_c, 1, 58, 100
3, 226368, Note_on_c, 1, 62, 90
3, 226496, Note_off_c, 1, 62, 100
3, 226560, Note_on_c, 1, 53, 90
3, 226688, Note_off_c, 1, 53, 100
3, 226752, Note_on_c, 1, 62, 90
3, 226880, Note_off_c, 1, 62, 100
3, 226944, Note_on_c, 1, 58, 90
3, 227072, Note_off_c, 1, 58, 100
3, 227136, Note_on_c, 1, 62, 90
3, 227264, Note_off_c, 1, 62, 100
3, 227328, Note_on_c, 1, 60, 97
3, 227328, Note_on_c, 1, 57, 97
3, 227328, Note_on_c, 1, 53, 97
3, 227584, Note_off_c, 1, 60, 100
3, 227584, Note_off_c, 1, 57, 100
3, 227584, Note_off_c, 1, 53, 100
3, 228096, Note_on_c, 1, 51, 60
3, 228224, Note_off_c, 1, 51, 100
3, 228288, Note_on_c, 1, 53, 60
3, 228416, Note_off_c, 1, 53, 100
3, 228480, Note_on_c, 1, 51, 60
3, 228608, Note_off_c, 1, 51, 100
3, 228672, Note_on_c, 1, 53, 60
3, 228800, Note_off_c, 1, 53, 100
3, 228864, Note_on_c, 1, 50, 60
3, 228992, Note_off_c, 1, 50, 100
3, 229056, Note_on_c, 1, 53, 60
3, 229184, Note_off_c, 1, 53, 100
3, 229248, Note_on_c, 1, 50, 60
3, 229376, Note_off_c, 1, 50, 100
3, 229440, Note_on_c, 1, 53, 60
3, 229568, Note_off_c, 1, 53, 100
3, 229632, Note_on_c, 1, 51, 60
3, 229760, Note_off_c, 1, 51, 100
3, 229824, Note_on_c, 1, 53, 60
3, 229952, Note_off_c, 1, 53, 100
3, 230016, Note_on_c, 1, 51, 60
3, 230144, Note_off_c, 1, 51, 100
3, 230208, Note_on_c, 1, 53, 60
3, 230336, Note_off_c, 1, 53, 100
3, 230400, Note_on_c, 1, 50, 60
3, 230528, Note_off_c, 1, 50, 100
3, 230592, Note_on_c, 1, 53, 60
3, 230720, Note_off_c, 1, 53, 100
3, 230784, Note_on_c, 1, 50, 60
3, 230912, Note_off_c, 1, 50, 100
3, 230976, Note_on_c, 1, 53, 60
3, 231104, Note_off_c, 1, 53, 100
3, 231168, Note_on_c, 1, 51, 60
3, 231296, Note_off_c, 1, 51, 100
3, 231360, Note_on_c, 1, 53, 60
3, 231488, Note_off_c, 1, 53, 100
3, 231552, Note_on_c, 1, 51, 60
3, 231680, Note_off_c, 1, 51, 100
3, 231744, Note_on_c, 1, 53, 60
3, 231872, Note_off_c, 1, 53, 100
3, 231936, Note_on_c, 1, 50, 60
3, 232064, Note_off_c, 1, 50, 100
3, 232128, Note_on_c, 1, 53, 60
3, 232256, Note_off_c, 1, 53, 100
3, 232320, Note_on_c, 1, 50, 60
3, 232448, Note_off_c, 1, 50, 100
3, 232512, Note_on_c, 1, 53, 60
3, 232640, Note_off_c, 1, 53, 100
3, 232704, Note_on_c, 1, 51, 60
3, 232832, Note_off_c, 1, 51, 100
3, 232896, Note_on_c, 1, 53, 60
3, 233024, Note_off_c, 1, 53, 100
3, 233088, Note_on_c, 1, 51, 60
3, 233216, Note_off_c, 1, 51, 100
3, 233280, Note_on_c, 1, 53, 60
3, 233408, Note_off_c, 1, 53, 100
3, 233472, Note_on_c, 1, 50, 60
3, 233600, Note_off_c, 1, 50, 100
3, 236160, Note_on_c, 1, 58, 90
3, 236160, Note_on_c, 1, 50, 90
3, 236416, Note_off_c, 1, 58, 100
3, 236416, Note_off_c, 1, 50, 100
3, 236544, Note_on_c, 1, 58, 90
3, 236544, Note_on_c, 1, 51, 90
3, 236800, Note_off_c, 1, 58, 100
3, 236800, Note_off_c, 1, 51, 100
3, 237696, Note_on_c, 1, 60, 90
3, 237696, Note_on_c, 1, 58, 90
3, 237696, Note_on_c, 1, 51, 90
3, 237952, Note_off_c, 1, 60, 100
3, 237952, Note_off_c, 1, 58, 100
3, 237952, Note_off_c, 1, 51, 100
3, 238080, Note_on_c, 1, 53, 90
3, 238208, Note_off_c, 1, 53, 100
3, 238272, Note_on_c, 1, 62, 90
3, 238400, Note_off_c, 1, 62, 100
3, 238464, Note_on_c, 1, 58, 90
3, 238592, Note_off_c, 1, 58, 100
3, 238656, Note_on_c, 1, 62, 90
3, 238784, Note_off_c, 1, 62, 100
3, 238848, Note_on_c, 1, 53, 90
3, 238976, Note_off_c, 1, 53, 100
3, 239040, Note_on_c, 1, 63, 90
3, 239168, Note_off_c, 1, 63, 100
3, 239232, Note_on_c, 1, 57, 90
3, 239360, Note_off_c, 1, 57, 100
3, 239424, Note_on_c, 1, 63, 90
3, 239552, Note_off_c, 1, 63, 100
3, 239616, Note_on_c, 1, 58, 90
3, 239872, Note_off_c, 1, 58, 100
3, 240192, Note_on_c, 1, 60, 90
3, 240320, Note_off_c, 1, 60, 100
3, 240384, Note_on_c, 1, 62, 90
3, 240640, Note_off_c, 1, 62, 100
3, 240960, Note_on_c, 1, 50, 90
3, 240960, Note_on_c, 1, 38, 90
3, 241088, Note_off_c, 1, 50, 100
3, 241088, Note_off_c, 1, 38, 100
3, 241152, Note_on_c, 1, 51, 90
3, 241152, Note_on_c, 1, 39, 90
3, 241408, Note_off_c, 1, 51, 100
3, 241408, Note_off_c, 1, 39, 100
3, 242688, Note_on_c, 1, 41, 90
3, 242688, Note_on_c, 1, 31, 90
3, 243716, Note_off_c, 1, 41, 100
3, 243716, Note_off_c, 1, 31, 100
3, 244224, Note_on_c, 1, 41, 90
3, 244224, Note_on_c, 1, 46, 90
3, 244224, Note_on_c, 1, 50, 90
3, 244480, Note_off_c, 1, 41, 100
3, 244480, Note_off_c, 1, 46, 100
3, 244480, Note_off_c, 1, 50, 100
3, 244992, Note_on_c, 1, 41, 90
3, 244992, Note_on_c, 1, 46, 90
3, 244992, Note_on_c, 1, 50, 90
3, 245248, Note_off_c, 1, 41, 100
3, 245248, Note_off_c, 1, 46, 100
3, 245248, Note_off_c, 1, 50, 100
3, 245760, Note_on_c, 1, 62, 90
3, 245760, Note_on_c, 1, 58, 90
3, 245760, Note_on_c, 1, 53, 90
3, 246016, Note_off_c, 1, 62, 100
3, 246016, Note_off_c, 1, 58, 100
3, 246016, Note_off_c, 1, 53, 100
3, 248832, Note_on_c, 1, 53, 90
3, 248960, Note_off_c, 1, 53, 100
3, 249024, Note_on_c, 1, 62, 90
3, 249152, Note_off_c, 1, 62, 100
3, 249216, Note_on_c, 1, 58, 90
3, 249344, Note_off_c, 1, 58, 100
3, 249408, Note_on_c, 1, 62, 90
3, 249536, Note_off_c, 1, 62, 100
3, 249600, Note_on_c, 1, 53, 90
3, 249728, Note_off_c, 1, 53, 100
3, 249792, Note_on_c, 1, 62, 90
3, 249920, Note_off_c, 1, 62, 100
3, 249984, Note_on_c, 1, 58, 90
3, 250112, Note_off_c, 1, 58, 100
3, 250176, Note_on_c, 1, 62, 90
3, 250304, Note_off_c, 1, 62, 100
3, 250368, Note_on_c, 1, 53, 90
3, 250496, Note_off_c, 1, 53, 100
3, 250560, Note_on_c, 1, 63, 90
3, 250688, Note_off_c, 1, 63, 100
3, 250752, Note_on_c, 1, 57, 90
3, 250880, Note_off_c, 1, 57, 100
3, 250944, Note_on_c, 1, 63, 90
3, 251072, Note_off_c, 1, 63, 100
3, 251136, Note_on_c, 1, 53, 90
3, 251264, Note_off_c, 1, 53, 100
3, 251328, Note_on_c, 1, 63, 90
3, 251456, Note_off_c, 1, 63, 100
3, 251520, Note_on_c, 1, 57, 90
3, 251648, Note_off_c, 1, 57, 100
3, 251712, Note_on_c, 1, 63, 90
3, 251840, Note_off_c, 1, 63, 100
3, 251904, Note_on_c, 1, 62, 60
3, 251904, Note_on_c, 1, 58, 60
3, 252160, Note_off_c, 1, 62, 100
3, 252160, Note_off_c, 1, 58, 100
3, 252288, Note_on_c, 1, 62, 60
3, 252288, Note_on_c, 1, 58, 60
3, 252544, Note_off_c, 1, 62, 100
3, 252544, Note_off_c, 1, 58, 100
3, 258048, Note_on_c, 1, 58, 90
3, 258048, Note_on_c, 1, 46, 90
3, 258176, Note_off_c, 1, 58, 100
3, 258176, Note_off_c, 1, 46, 100
3, 258240, Note_on_c, 1, 58, 90
3, 258240, Note_on_c, 1, 46, 90
3, 258368, Note_off_c, 1, 58, 100
3, 258368, Note_off_c, 1, 46, 100
3, 258624, Note_on_c, 1, 58, 90
3, 258624, Note_on_c, 1, 46, 90
3, 258752, Note_off_c, 1, 58, 100
3, 258752, Note_off_c, 1, 46, 100
3, 258816, Note_on_c, 1, 62, 90
3, 258816, Note_on_c, 1, 50, 90
3, 258944, Note_off_c, 1, 62, 100
3, 258944, Note_off_c, 1, 50, 100
3, 259008, Note_on_c, 1, 62, 90
3, 259008, Note_on_c, 1, 50, 90
3, 259136, Note_off_c, 1, 62, 100
3, 259136, Note_off_c, 1, 50, 100
3, 259392, Note_on_c, 1, 58, 90
3, 259392, Note_on_c, 1, 46, 90
3, 259520, Note_off_c, 1, 58, 100
3, 259520, Note_off_c, 1, 46, 100
3, 259584, Note_on_c, 1, 55, 90
3, 259584, Note_on_c, 1, 43, 90
3, 259712, Note_off_c, 1, 55, 100
3, 259712, Note_off_c, 1, 43, 100
3, 259776, Note_on_c, 1, 55, 90
3, 259776, Note_on_c, 1, 43, 90
3, 259904, Note_off_c, 1, 55, 100
3, 259904, Note_off_c, 1, 43, 100
3, 260160, Note_on_c, 1, 55, 90
3, 260160, Note_on_c, 1, 43, 90
3, 260288, Note_off_c, 1, 55, 100
3, 260288, Note_off_c, 1, 43, 100
3, 260352, Note_on_c, 1, 58, 90
3, 260352, Note_on_c, 1, 46, 90
3, 260480, Note_off_c, 1, 58, 100
3, 260480, Note_off_c, 1, 46, 100
3, 260544, Note_on_c, 1, 58, 90
3, 260544, Note_on_c, 1, 46, 90
3, 260672, Note_off_c, 1, 58, 100
3, 260672, Note_off_c, 1, 46, 100
3, 260928, Note_on_c, 1, 55, 90
3, 260928, Note_on_c, 1, 43, 90
3, 261056, Note_off_c, 1, 55, 100
3, 261056, Note_off_c, 1, 43, 100
3, 261120, Note_on_c, 1, 50, 90
3, 261120, Note_on_c, 1, 38, 90
3, 261248, Note_off_c, 1, 50, 100
3, 261248, Note_off_c, 1, 38, 100
3, 261312, Note_on_c, 1, 50, 90
3, 261312, Note_on_c, 1, 38, 90
3, 261440, Note_off_c, 1, 50, 100
3, 261440, Note_off_c, 1, 38, 100
3, 261696, Note_on_c, 1, 50, 90
3, 261696, Note_on_c, 1, 38, 90
3, 261824, Note_off_c, 1, 50, 100
3, 261824, Note_off_c, 1, 38, 100
3, 261888, Note_on_c, 1, 51, 90
3, 261888, Note_on_c, 1, 39, 90
3, 262016, Note_off_c, 1, 51, 100
3, 262016, Note_off_c, 1, 39, 100
3, 262080, Note_on_c, 1, 51, 90
3, 262080, Note_on_c, 1, 39, 90
3, 262208, Note_off_c, 1, 51, 100
3, 262208, Note_off_c, 1, 39, 100
3, 262272, Note_on_c, 1, 40, 90
3, 262272, Note_on_c, 1, 52, 90
3, 262400, Note_off_c, 1, 40, 100
3, 262400, Note_off_c, 1, 52, 100
3, 262464, Note_on_c, 1, 52, 90
3, 262464, Note_on_c, 1, 40, 90
3, 262592, Note_off_c, 1, 52, 100
3, 262592, Note_off_c, 1, 40, 100
3, 262656, Note_on_c, 1, 53, 97
3, 262656, Note_on_c, 1, 41, 97
3, 263168, Note_off_c, 1, 53, 100
3, 263168, Note_off_c, 1, 41, 100
3, 265728, Note_on_c, 1, 53, 60
3, 265856, Note_off_c, 1, 53, 100
3, 265920, Note_on_c, 1, 62, 60
3, 266048, Note_off_c, 1, 62, 100
3, 266112, Note_on_c, 1, 58, 60
3, 266240, Note_off_c, 1, 58, 100
3, 266304, Note_on_c, 1, 62, 60
3, 266432, Note_off_c, 1, 62, 100
3, 266496, Note_on_c, 1, 53, 60
3, 266624, Note_off_c, 1, 53, 100
3, 266688, Note_on_c, 1, 62, 60
3, 266816, Note_off_c, 1, 62, 100
3, 266880, Note_on_c, 1, 58, 60
3, 267008, Note_off_c, 1, 58, 100
3, 267072, Note_on_c, 1, 62, 60
3, 267200, Note_off_c, 1, 62, 100
3, 267264, Note_on_c, 1, 53, 60
3, 267392, Note_off_c, 1, 53, 100
3, 267456, Note_on_c, 1, 63, 60
3, 267584, Note_off_c, 1, 63, 100
3, 267648, Note_on_c, 1, 60, 60
3, 267776, Note_off_c, 1, 60, 100
3, 267840, Note_on_c, 1, 63, 60
3, 267968, Note_off_c, 1, 63, 100
3, 268032, Note_on_c, 1, 53, 60
3, 268160, Note_off_c, 1, 53, 100
3, 268224, Note_on_c, 1, 63, 60
3, 268352, Note_off_c, 1, 63, 100
3, 268416, Note_on_c, 1, 60, 60
3, 268544, Note_off_c, 1, 60, 100
3, 268608, Note_on_c, 1, 63, 60
3, 268736, Note_off_c, 1, 63, 100
3, 268800, Note_on_c, 1, 53, 44
3, 268928, Note_off_c, 1, 53, 100
3, 268992, Note_on_c, 1, 62, 44
3, 269120, Note_off_c, 1, 62, 100
3, 269184, Note_on_c, 1, 58, 44
3, 269312, Note_off_c, 1, 58, 100
3, 269376, Note_on_c, 1, 62, 44
3, 269504, Note_off_c, 1, 62, 100
3, 269568, Note_on_c, 1, 53, 44
3, 269696, Note_off_c, 1, 53, 100
3, 269760, Note_on_c, 1, 62, 44
3, 269888, Note_off_c, 1, 62, 100
3, 269952, Note_on_c, 1, 58, 44
3, 270080, Note_off_c, 1, 58, 100
3, 270112, Note_on_c, 1, 62, 44
3, 270240, Note_off_c, 1, 62, 100
3, 270336, Note_on_c, 1, 53, 44
3, 270464, Note_off_c, 1, 53, 100
3, 270528, Note_on_c, 1, 63, 44
3, 270656, Note_off_c, 1, 63, 100
3, 270720, Note_on_c, 1, 60, 44
3, 270848, Note_off_c, 1, 60, 100
3, 270912, Note_on_c, 1, 63, 44
3, 271040, Note_off_c, 1, 63, 100
3, 271104, Note_on_c, 1, 53, 44
3, 271232, Note_off_c, 1, 53, 100
3, 271296, Note_on_c, 1, 63, 44
3, 271424, Note_off_c, 1, 63, 100
3, 271488, Note_on_c, 1, 60, 44
3, 271616, Note_off_c, 1, 60, 100
3, 271680, Note_on_c, 1, 63, 44
3, 271808, Note_off_c, 1, 63, 100
3, 271872, Note_on_c, 1, 61, 90
3, 271872, Note_on_c, 1, 54, 90
3, 272128, Note_off_c, 1, 61, 100
3, 272128, Note_off_c, 1, 54, 100
3, 273408, Note_on_c, 1, 54, 90
3, 273600, Note_on_c, 1, 58, 90
3, 273728, Note_off_c, 1, 58, 100
3, 273792, Note_on_c, 1, 60, 90
3, 273920, Note_off_c, 1, 60, 100
3, 273984, Note_on_c, 1, 61, 90
3, 274112, Note_off_c, 1, 61, 100
3, 274176, Note_on_c, 1, 61, 90
3, 274304, Note_off_c, 1, 61, 100
3, 274368, Note_on_c, 1, 60, 90
3, 274436, Note_off_c, 1, 54, 100
3, 274496, Note_off_c, 1, 60, 100
3, 274560, Note_on_c, 1, 60, 90
3, 274688, Note_off_c, 1, 60, 100
3, 274752, Note_on_c, 1, 58, 90
3, 274880, Note_off_c, 1, 58, 100
3, 274944, Note_on_c, 1, 57, 60
3, 274944, Note_on_c, 1, 53, 60
3, 275200, Note_off_c, 1, 57, 100
3, 275200, Note_off_c, 1, 53, 100
3, 275328, Note_on_c, 1, 57, 60
3, 275328, Note_on_c, 1, 53, 60
3, 275584, Note_off_c, 1, 57, 100
3, 275584, Note_off_c, 1, 53, 100
3, 276096, Note_on_c, 1, 57, 60
3, 276096, Note_on_c, 1, 53, 60
3, 276352, Note_off_c, 1, 57, 100
3, 276352, Note_off_c, 1, 53, 100
3, 276480, Note_on_c, 1, 55, 60
3, 276480, Note_on_c, 1, 58, 60
3, 276480, Note_on_c, 1, 53, 60
3, 276736, Note_off_c, 1, 55, 100
3, 276736, Note_off_c, 1, 58, 100
3, 276736, Note_off_c, 1, 53, 100
3, 276864, Note_on_c, 1, 55, 60
3, 276864, Note_on_c, 1, 58, 60
3, 276864, Note_on_c, 1, 53, 60
3, 277120, Note_off_c, 1, 55, 100
3, 277120, Note_off_c, 1, 58, 100
3, 277120, Note_off_c, 1, 53, 100
3, 277632, Note_on_c, 1, 56, 60
3, 277632, Note_on_c, 1, 59, 60
3, 277632, Note_on_c, 1, 53, 60
3, 277888, Note_off_c, 1, 56, 100
3, 277888, Note_off_c, 1, 59, 100
3, 277888, Note_off_c, 1, 53, 100
3, 278016, Note_on_c, 1, 60, 60
3, 278016, Note_on_c, 1, 57, 60
3, 278016, Note_on_c, 1, 53, 60
3, 278272, Note_off_c, 1, 60, 100
3, 278272, Note_off_c, 1, 57, 100
3, 278400, Note_on_c, 1, 61, 60
3, 278400, Note_on_c, 1, 57, 60
3, 278528, Note_off_c, 1, 53, 100
3, 278656, Note_off_c, 1, 61, 100
3, 278656, Note_off_c, 1, 57, 100
3, 278784, Note_on_c, 1, 62, 60
3, 278784, Note_on_c, 1, 58, 60
3, 278784, Note_on_c, 1, 53, 60
3, 279040, Note_off_c, 1, 62, 100
3, 279040, Note_off_c, 1, 58, 100
3, 279168, Note_on_c, 1, 62, 60
3, 279168, Note_on_c, 1, 59, 60
3, 279296, Note_off_c, 1, 53, 100
3, 279424, Note_off_c, 1, 62, 100
3, 279424, Note_off_c, 1, 59, 100
3, 279552, Note_on_c, 1, 63, 90
3, 279552, Note_on_c, 1, 60, 90
3, 279552, Note_on_c, 1, 53, 90
3, 280580, Note_off_c, 1, 63, 100
3, 280580, Note_off_c, 1, 60, 100
3, 280580, Note_off_c, 1, 53, 100
3, 282624, Note_on_c, 1, 53, 60
3, 282752, Note_off_c, 1, 53, 100
3, 282816, Note_on_c, 1, 57, 60
3, 282944, Note_off_c, 1, 57, 100
3, 283008, Note_on_c, 1, 57, 60
3, 283136, Note_off_c, 1, 57, 100
3, 283200, Note_on_c, 1, 60, 60
3, 283328, Note_off_c, 1, 60, 100
3, 283392, Note_on_c, 1, 60, 60
3, 283520, Note_off_c, 1, 60, 100
3, 283584, Note_on_c, 1, 63, 60
3, 283712, Note_off_c, 1, 63, 100
3, 283776, Note_on_c, 1, 63, 60
3, 283904, Note_off_c, 1, 63, 100
3, 283968, Note_on_c, 1, 60, 60
3, 284096, Note_off_c, 1, 60, 100
3, 284160, Note_on_c, 1, 60, 60
3, 284288, Note_off_c, 1, 60, 100
3, 284352, Note_on_c, 1, 57, 60
3, 284480, Note_off_c, 1, 57, 100
3, 284544, Note_on_c, 1, 57, 60
3, 284672, Note_off_c, 1, 57, 100
3, 284736, Note_on_c, 1, 53, 60
3, 284864, Note_off_c, 1, 53, 100
3, 284928, Note_on_c, 1, 54, 60
3, 285056, Note_off_c, 1, 54, 100
3, 285120, Note_on_c, 1, 55, 60
3, 285248, Note_off_c, 1, 55, 100
3, 285312, Note_on_c, 1, 56, 60
3, 285440, Note_off_c, 1, 56, 100
3, 285504, Note_on_c, 1, 57, 60
3, 285632, Note_off_c, 1, 57, 100
3, 285696, Note_on_c, 1, 58, 60
3, 285824, Note_off_c, 1, 58, 100
3, 285888, Note_on_c, 1, 58, 60
3, 286016, Note_off_c, 1, 58, 100
3, 286272, Note_on_c, 1, 58, 60
3, 286400, Note_off_c, 1, 58, 100
3, 286464, Note_on_c, 1, 58, 60
3, 286592, Note_off_c, 1, 58, 100
3, 286656, Note_on_c, 1, 58, 60
3, 286784, Note_off_c, 1, 58, 100
3, 287040, Note_on_c, 1, 58, 60
3, 287168, Note_off_c, 1, 58, 100
3, 287232, Note_on_c, 1, 58, 60
3, 287360, Note_off_c, 1, 58, 100
3, 287424, Note_on_c, 1, 58, 60
3, 287552, Note_off_c, 1, 58, 100
3, 287808, Note_on_c, 1, 58, 60
3, 287936, Note_off_c, 1, 58, 100
3, 288000, Note_on_c, 1, 58, 60
3, 288128, Note_off_c, 1, 58, 100
3, 288192, Note_on_c, 1, 58, 60
3, 288320, Note_off_c, 1, 58, 100
3, 288576, Note_on_c, 1, 58, 60
3, 288704, Note_off_c, 1, 58, 100
3, 288768, Note_on_c, 1, 58, 60
3, 288896, Note_off_c, 1, 58, 100
3, 288960, Note_on_c, 1, 58, 60
3, 289088, Note_off_c, 1, 58, 100
3, 289344, Note_on_c, 1, 58, 60
3, 289472, Note_off_c, 1, 58, 100
3, 289536, Note_on_c, 1, 58, 60
3, 289664, Note_off_c, 1, 58, 100
3, 289728, Note_on_c, 1, 58, 60
3, 289856, Note_off_c, 1, 58, 100
3, 290112, Note_on_c, 1, 58, 60
3, 290240, Note_off_c, 1, 58, 100
3, 290304, Note_on_c, 1, 59, 90
3, 290560, Note_off_c, 1, 59, 100
3, 290688, Note_on_c, 1, 59, 90
3, 290688, Note_on_c, 1, 47, 90
3, 290944, Note_off_c, 1, 59, 100
3, 290944, Note_off_c, 1, 47, 100
3, 291072, Note_on_c, 1, 60, 90
3, 291072, Note_on_c, 1, 48, 90
3, 291328, Note_off_c, 1, 60, 100
3, 291328, Note_off_c, 1, 48, 100
3, 291456, Note_on_c, 1, 58, 90
3, 291456, Note_on_c, 1, 46, 90
3, 291712, Note_off_c, 1, 58, 100
3, 291712, Note_off_c, 1, 46, 100
3, 291840, Note_on_c, 1, 57, 90
3, 291840, Note_on_c, 1, 45, 90
3, 292096, Note_off_c, 1, 57, 100
3, 292096, Note_off_c, 1, 45, 100
3, 292224, Note_on_c, 1, 57, 90
3, 292224, Note_on_c, 1, 45, 90
3, 292480, Note_off_c, 1, 57, 100
3, 292480, Note_off_c, 1, 45, 100
3, 292608, Note_on_c, 1, 58, 90
3, 292608, Note_on_c, 1, 46, 90
3, 292864, Note_off_c, 1, 58, 100
3, 292864, Note_off_c, 1, 46, 100
3, 292992, Note_on_c, 1, 57, 90
3, 292992, Note_on_c, 1, 45, 90
3, 293248, Note_off_c, 1, 57, 100
3, 293248, Note_off_c, 1, 45, 100
3, 293376, Note_on_c, 1, 55, 90
3, 293376, Note_on_c, 1, 43, 90
3, 293632, Note_off_c, 1, 55, 100
3, 293632, Note_off_c, 1, 43, 100
3, 293760, Note_on_c, 1, 55, 90
3, 293760, Note_on_c, 1, 43, 90
3, 294016, Note_off_c, 1, 55, 100
3, 294016, Note_off_c, 1, 43, 100
3, 294144, Note_on_c, 1, 45, 90
3, 294144, Note_on_c, 1, 57, 90
3, 294400, Note_off_c, 1, 45, 100
3, 294400, Note_off_c, 1, 57, 100
3, 294528, Note_on_c, 1, 55, 90
3, 294528, Note_on_c, 1, 43, 90
3, 294784, Note_off_c, 1, 55, 100
3, 294784, Note_off_c, 1, 43, 100
3, 294912, Note_on_c, 1, 54, 90
3, 294912, Note_on_c, 1, 42, 90
3, 295168, Note_off_c, 1, 54, 100
3, 295168, Note_off_c, 1, 42, 100
3, 295296, Note_on_c, 1, 54, 90
3, 295296, Note_on_c, 1, 42, 90
3, 295552, Note_off_c, 1, 54, 100
3, 295552, Note_off_c, 1, 42, 100
3, 295680, Note_on_c, 1, 55, 90
3, 295680, Note_on_c, 1, 43, 90
3, 295936, Note_off_c, 1, 55, 100
3, 295936, Note_off_c, 1, 43, 100
3, 296064, Note_on_c, 1, 53, 90
3, 296064, Note_on_c, 1, 41, 90
3, 296320, Note_off_c, 1, 53, 100
3, 296320, Note_off_c, 1, 41, 100
3, 296448, Note_on_c, 1, 51, 82
3, 296448, Note_on_c, 1, 39, 82
3, 296576, Note_off_c, 1, 51, 100
3, 296576, Note_off_c, 1, 39, 100
3, 296640, Note_on_c, 1, 55, 82
3, 296768, Note_off_c, 1, 55, 100
3, 296832, Note_on_c, 1, 58, 82
3, 296960, Note_off_c, 1, 58, 100
3, 297024, Note_on_c, 1, 55, 82
3, 297152, Note_off_c, 1, 55, 100
3, 297216, Note_on_c, 1, 51, 82
3, 297344, Note_off_c, 1, 51, 100
3, 297408, Note_on_c, 1, 55, 82
3, 297536, Note_off_c, 1, 55, 100
3, 297600, Note_on_c, 1, 58, 82
3, 297728, Note_off_c, 1, 58, 100
3, 297792, Note_on_c, 1, 55, 82
3, 297920, Note_off_c, 1, 55, 100
3, 297984, Note_on_c, 1, 53, 82
3, 298112, Note_off_c, 1, 53, 100
3, 298176, Note_on_c, 1, 56, 82
3, 298304, Note_off_c, 1, 56, 100
3, 298368, Note_on_c, 1, 58, 82
3, 298496, Note_off_c, 1, 58, 100
3, 298560, Note_on_c, 1, 56, 82
3, 298688, Note_off_c, 1, 56, 100
3, 298752, Note_on_c, 1, 53, 84
3, 298880, Note_off_c, 1, 53, 100
3, 298944, Note_on_c, 1, 56, 85
3, 299072, Note_off_c, 1, 56, 100
3, 299136, Note_on_c, 1, 58, 86
3, 299264, Note_off_c, 1, 58, 100
3, 299328, Note_on_c, 1, 56, 88
3, 299456, Note_off_c, 1, 56, 100
3, 299520, Note_on_c, 1, 55, 90
3, 299648, Note_off_c, 1, 55, 100
3, 299712, Note_on_c, 1, 58, 91
3, 299840, Note_off_c, 1, 58, 100
3, 299904, Note_on_c, 1, 63, 92
3, 300032, Note_off_c, 1, 63, 100
3, 300096, Note_on_c, 1, 58, 92
3, 300224, Note_off_c, 1, 58, 100
3, 300288, Note_on_c, 1, 50, 94
3, 300416, Note_off_c, 1, 50, 100
3, 300480, Note_on_c, 1, 56, 94
3, 300608, Note_off_c, 1, 56, 100
3, 300672, Note_on_c, 1, 58, 96
3, 300800, Note_off_c, 1, 58, 100
3, 300864, Note_on_c, 1, 56, 96
3, 300992, Note_off_c, 1, 56, 100
3, 301056, Note_on_c, 1, 51, 97
3, 301184, Note_off_c, 1, 51, 100
3, 301248, Note_on_c, 1, 63, 97
3, 301376, Note_off_c, 1, 63, 100
3, 301440, Note_on_c, 1, 48, 98
3, 301568, Note_off_c, 1, 48, 100
3, 301632, Note_on_c, 1, 60, 98
3, 301760, Note_off_c, 1, 60, 100
3, 301824, Note_on_c, 1, 50, 100
3, 301952, Note_off_c, 1, 50, 100
3, 302016, Note_on_c, 1, 62, 100
3, 302144, Note_off_c, 1, 62, 100
3, 302208, Note_on_c, 1, 45, 102
3, 302336, Note_off_c, 1, 45, 100
3, 302400, Note_on_c, 1, 57, 102
3, 302528, Note_off_c, 1, 57, 100
3, 302592, Note_on_c, 1, 58, 104
3, 302592, Note_on_c, 1, 46, 104
3, 303104, Note_off_c, 1, 58, 100
3, 303104, Note_off_c, 1, 46, 100
3, 303360, Note_on_c, 1, 54, 97
3, 303360, Note_on_c, 1, 42, 97
3, 303872, Note_off_c, 1, 54, 100
3, 303872, Note_off_c, 1, 42, 100
3, 304128, Note_on_c, 1, 52, 97
3, 304128, Note_on_c, 1, 40, 97
3, 304892, Note_off_c, 1, 52, 0
3, 304892, Note_off_c, 1, 40, 0
3, 305664, Note_on_c, 1, 61, 90
3, 305756, Note_off_c, 1, 61, 0
3, 305760, Note_on_c, 1, 58, 90
3, 305852, Note_off_c, 1, 58, 0
3, 305856, Note_on_c, 1, 55, 90
3, 305948, Note_off_c, 1, 55, 0
3, 305952, Note_on_c, 1, 51, 90
3, 306044, Note_off_c, 1, 51, 0
3, 306048, Note_on_c, 1, 49, 90
3, 306140, Note_off_c, 1, 49, 0
3, 306144, Note_on_c, 1, 46, 90
3, 306236, Note_off_c, 1, 46, 0
3, 306240, Note_on_c, 1, 43, 90
3, 306332, Note_off_c, 1, 43, 0
3, 306336, Note_on_c, 1, 39, 90
3, 306428, Note_off_c, 1, 39, 0
3, 306432, Note_on_c, 1, 53, 97
3, 306432, Note_on_c, 1, 41, 97
3, 306432, Note_on_c, 1, 29, 97
3, 307196, Note_off_c, 1, 53, 0
3, 307196, Note_off_c, 1, 41, 0
3, 307196, Note_off_c, 1, 29, 0
3, 307200, Note_on_c, 1, 53, 90
3, 307244, Note_off_c, 1, 53, 0
3, 307248, Note_on_c, 1, 57, 90
3, 307264, Note_off_c, 1, 57, 100
3, 307296, Note_on_c, 1, 55, 90
3, 307312, Note_off_c, 1, 55, 100
3, 307344, Note_on_c, 1, 53, 90
3, 307360, Note_off_c, 1, 53, 100
3, 307392, Note_on_c, 1, 55, 90
3, 307408, Note_off_c, 1, 55, 100
3, 307440, Note_on_c, 1, 57, 90
3, 307456, Note_off_c, 1, 57, 100
3, 307488, Note_on_c, 1, 58, 90
3, 307504, Note_off_c, 1, 58, 100
3, 307536, Note_on_c, 1, 60, 90
3, 307552, Note_off_c, 1, 60, 100
3, 316800, Note_on_c, 1, 58, 60
3, 317056, Note_off_c, 1, 58, 100
3, 317184, Note_on_c, 1, 62, 60
3, 317440, Note_off_c, 1, 62, 100
3, 317568, Note_on_c, 1, 67, 60
3, 317824, Note_off_c, 1, 67, 100
3, 317952, Note_on_c, 1, 60, 60
3, 318208, Note_off_c, 1, 60, 100
3, 318336, Note_on_c, 1, 63, 60
3, 318592, Note_off_c, 1, 63, 100
3, 318720, Note_on_c, 1, 65, 60
3, 318976, Note_off_c, 1, 65, 100
3, 319104, Note_on_c, 1, 63, 60
3, 319360, Note_off_c, 1, 63, 100
3, 319488, Note_on_c, 1, 62, 60
3, 319744, Note_off_c, 1, 62, 100
3, 319872, Note_on_c, 1, 57, 60
3, 319872, Note_on_c, 1, 65, 60
3, 320128, Note_off_c, 1, 57, 100
3, 320256, Note_on_c, 1, 58, 60
3, 320384, Note_off_c, 1, 65, 100
3, 320512, Note_off_c, 1, 58, 100
3, 320640, Note_on_c, 1, 60, 60
3, 320640, Note_on_c, 1, 51, 60
3, 320896, Note_off_c, 1, 60, 100
3, 320896, Note_off_c, 1, 51, 100
3, 321024, Note_on_c, 1, 58, 60
3, 321024, Note_on_c, 1, 53, 60
3, 321536, Note_off_c, 1, 58, 100
3, 321536, Note_off_c, 1, 53, 100
3, 321792, Note_on_c, 1, 57, 60
3, 321792, Note_on_c, 1, 53, 60
3, 322048, Note_off_c, 1, 57, 100
3, 322048, Note_off_c, 1, 53, 100
3, 322560, Note_on_c, 1, 46, 90
3, 322688, Note_off_c, 1, 46, 100
3, 322752, Note_on_c, 1, 58, 90
3, 322880, Note_off_c, 1, 58, 100
3, 322944, Note_on_c, 1, 62, 90
3, 323072, Note_off_c, 1, 62, 100
3, 323136, Note_on_c, 1, 58, 90
3, 323264, Note_off_c, 1, 58, 100
3, 323328, Note_on_c, 1, 43, 90
3, 323456, Note_off_c, 1, 43, 100
3, 323520, Note_on_c, 1, 55, 90
3, 323648, Note_off_c, 1, 55, 100
3, 323712, Note_on_c, 1, 58, 90
3, 323840, Note_off_c, 1, 58, 100
3, 323904, Note_on_c, 1, 55, 90
3, 324032, Note_off_c, 1, 55, 100
3, 324096, Note_on_c, 1, 36, 90
3, 324224, Note_off_c, 1, 36, 100
3, 324288, Note_on_c, 1, 48, 90
3, 324416, Note_off_c, 1, 48, 100
3, 324480, Note_on_c, 1, 51, 90
3, 324608, Note_off_c, 1, 51, 100
3, 324656, Note_on_c, 1, 48, 90
3, 324784, Note_off_c, 1, 48, 100
3, 324864, Note_on_c, 1, 41, 90
3, 324992, Note_off_c, 1, 41, 100
3, 325056, Note_on_c, 1, 53, 90
3, 325184, Note_off_c, 1, 53, 100
3, 325248, Note_on_c, 1, 57, 90
3, 325376, Note_off_c, 1, 57, 100
3, 325440, Note_on_c, 1, 53, 90
3, 325568, Note_off_c, 1, 53, 100
3, 325632, Note_on_c, 1, 58, 90
3, 325888, Note_off_c, 1, 58, 100
3, 326016, Note_on_c, 1, 51, 90
3, 326272, Note_off_c, 1, 51, 100
3, 326400, Note_on_c, 1, 53, 90
3, 326656, Note_off_c, 1, 53, 100
3, 326784, Note_on_c, 1, 41, 90
3, 327040, Note_off_c, 1, 41, 100
3, 327168, Note_on_c, 1, 58, 90
3, 327168, Note_on_c, 1, 50, 90
3, 327424, Note_off_c, 1, 58, 100
3, 327424, Note_off_c, 1, 50, 100
3, 328320, Note_on_c, 1, 58, 90
3, 328336, Note_on_c, 1, 50, 90
3, 328576, Note_off_c, 1, 58, 100
3, 328592, Note_off_c, 1, 50, 100
3, 328704, Note_on_c, 1, 58, 90
3, 328704, Note_on_c, 1, 51, 90
3, 328960, Note_off_c, 1, 58, 100
3, 328960, Note_off_c, 1, 51, 100
3, 329856, Note_on_c, 1, 57, 90
3, 329856, Note_on_c, 1, 51, 90
3, 330112, Note_off_c, 1, 57, 100
3, 330112, Note_off_c, 1, 51, 100
3, 330240, Note_on_c, 1, 58, 90
3, 330240, Note_on_c, 1, 50, 90
3, 330496, Note_off_c, 1, 50, 100
3, 330624, Note_on_c, 1, 55, 90
3, 330880, Note_off_c, 1, 55, 100
3, 331008, Note_off_c, 1, 58, 100
3, 331008, Note_on_c, 1, 51, 90
3, 331264, Note_off_c, 1, 51, 100
3, 331392, Note_on_c, 1, 57, 90
3, 331392, Note_on_c, 1, 53, 90
3, 331648, Note_off_c, 1, 57, 100
3, 331648, Note_off_c, 1, 53, 100
3, 331776, Note_on_c, 1, 58, 90
3, 331776, Note_on_c, 1, 50, 90
3, 332032, Note_off_c, 1, 58, 100
3, 332032, Note_off_c, 1, 50, 100
3, 332928, Note_on_c, 1, 58, 90
3, 332928, Note_on_c, 1, 50, 90
3, 333184, Note_off_c, 1, 58, 100
3, 333184, Note_off_c, 1, 50, 100
3, 333312, Note_on_c, 1, 58, 90
3, 333312, Note_on_c, 1, 51, 90
3, 333568, Note_off_c, 1, 58, 100
3, 333568, Note_off_c, 1, 51, 100
3, 334464, Note_on_c, 1, 60, 90
3, 334464, Note_on_c, 1, 51, 90
3, 334720, Note_off_c, 1, 60, 100
3, 334720, Note_off_c, 1, 51, 100
3, 334848, Note_on_c, 1, 53, 90
3, 334976, Note_off_c, 1, 53, 100
3, 335040, Note_on_c, 1, 62, 90
3, 335168, Note_off_c, 1, 62, 100
3, 335232, Note_on_c, 1, 58, 90
3, 335360, Note_off_c, 1, 58, 100
3, 335408, Note_on_c, 1, 62, 90
3, 335536, Note_off_c, 1, 62, 100
3, 335616, Note_on_c, 1, 53, 90
3, 335744, Note_off_c, 1, 53, 100
3, 335808, Note_on_c, 1, 62, 90
3, 335936, Note_off_c, 1, 62, 100
3, 336000, Note_on_c, 1, 58, 90
3, 336128, Note_off_c, 1, 58, 100
3, 336192, Note_on_c, 1, 62, 90
3, 336320, Note_off_c, 1, 62, 100
3, 336384, Note_on_c, 1, 53, 90
3, 336512, Note_off_c, 1, 53, 100
3, 336576, Note_on_c, 1, 63, 90
3, 336704, Note_off_c, 1, 63, 100
3, 336768, Note_on_c, 1, 57, 90
3, 336896, Note_off_c, 1, 57, 100
3, 336960, Note_on_c, 1, 63, 90
3, 337088, Note_off_c, 1, 63, 100
3, 337152, Note_on_c, 1, 53, 90
3, 337280, Note_off_c, 1, 53, 100
3, 337344, Note_on_c, 1, 63, 90
3, 337472, Note_off_c, 1, 63, 100
3, 337536, Note_on_c, 1, 57, 90
3, 337664, Note_off_c, 1, 57, 100
3, 337728, Note_on_c, 1, 63, 90
3, 337856, Note_off_c, 1, 63, 100
3, 337920, Note_on_c, 1, 62, 60
3, 338048, Note_off_c, 1, 62, 100
3, 338112, Note_on_c, 1, 58, 60
3, 338240, Note_off_c, 1, 58, 100
3, 338304, Note_on_c, 1, 62, 60
3, 338432, Note_off_c, 1, 62, 100
3, 338496, Note_on_c, 1, 58, 60
3, 338624, Note_off_c, 1, 58, 100
3, 338688, Note_on_c, 1, 62, 60
3, 338816, Note_off_c, 1, 62, 100
3, 338880, Note_on_c, 1, 58, 60
3, 339008, Note_off_c, 1, 58, 100
3, 339072, Note_on_c, 1, 62, 60
3, 339200, Note_off_c, 1, 62, 100
3, 339264, Note_on_c, 1, 58, 60
3, 339392, Note_off_c, 1, 58, 100
3, 350976, Note_on_c, 1, 53, 60
3, 350976, Note_on_c, 1, 60, 60
3, 351232, Note_off_c, 1, 60, 100
3, 351360, Note_on_c, 1, 63, 60
3, 351488, Note_off_c, 1, 53, 100
3, 351616, Note_off_c, 1, 63, 100
3, 351744, Note_on_c, 1, 62, 44
3, 351744, Note_on_c, 1, 58, 44
3, 352000, Note_off_c, 1, 62, 100
3, 352000, Note_off_c, 1, 58, 100
3, 352512, Note_on_c, 1, 53, 44
3, 352512, Note_on_c, 1, 60, 44
3, 352768, Note_off_c, 1, 60, 100
3, 352896, Note_on_c, 1, 63, 44
3, 353024, Note_off_c, 1, 53, 100
3, 353152, Note_off_c, 1, 63, 100
3, 353280, Note_on_c, 1, 58, 44
3, 353280, Note_on_c, 1, 62, 44
3, 353536, Note_off_c, 1, 58, 100
3, 353536, Note_off_c, 1, 62, 100
3, 354048, Note_on_c, 1, 53, 90
3, 354048, Note_on_c, 1, 41, 90
3, 354304, Note_off_c, 1, 53, 100
3, 354304, Note_off_c, 1, 41, 100
3, 354432, Note_on_c, 1, 53, 90
3, 354432, Note_on_c, 1, 41, 90
3, 354688, Note_off_c, 1, 53, 100
3, 354688, Note_off_c, 1, 41, 100
3, 354816, Note_on_c, 1, 46, 90
3, 354816, Note_on_c, 1, 34, 90
3, 355072, Note_off_c, 1, 46, 100
3, 355072, Note_off_c, 1, 34, 100
3, 355072, End_track
4, 0, Start_track
4, 0, Title_t, "Sonata # 7"
4, 0, Key_signature, -2, "minor"
4, 0, End_track
5, 0, Start_track
5, 0, Title_t, "by Bob"
5, 0, Key_signature, -2, "minor"
5, 0, End_track
6, 0, Start_track
6, 0, Title_t, "Fisher"
6, 0, Key_signature, -2, "minor"
6, 0, End_track
7, 0, Start_track
7, 0, Key_signature, -2, "minor"
7, 0, End_track
8, 0, Start_track
8, 0, Key_signature, -2, "minor"
8, 0, End_track
9, 0, Start_track
9, 0, Key_signature, -2, "minor"
9, 0, End_track
10, 0, Start_track
10, 0, Key_signature, -2, "minor"
10, 0, End_track
11, 0, Start_track
11, 0, Key_signature, -2, "minor"
11, 0, End_track
12, 0, Start_track
12, 0, Key_signature, -2, "minor"
12, 0, End_track
13, 0, Start_track
13, 0, Key_signature, -2, "minor"
13, 0, End_track
14, 0, Start_track
14, 0, Key_signature, -2, "minor"
14, 0, End_track
15, 0, Start_track
15, 0, Key_signature, -2, "minor"
15, 0, End_track
16, 0, Start_track
16, 0, Key_signature, -2, "minor"
16, 0, End_track
17, 0, Start_track
17, 0, Key_signature, 0, "major"
17, 0, End_track
0, 0, End_of_file
