0, 0, Header, 1, 6, 384
1, 0, Start_track
1, 0, Time_signature, 2, 2, 96, 8
1, 0, Sequencer_specific, 3, 0, 0, 65
1, 0, Sequencer_specific, 5, 0, 0, 119, 14, 0
1, 0, Tempo, 254237
1, 1152, Tempo, 1363636
1, 14592, Tempo, 1666666
1, 14880, Tempo, 1363636
1, 28388, Tempo, 1250000
1, 28604, Tempo, 1363636
1, 29924, Tempo, 1250000
1, 30140, Tempo, 1363636
1, 32996, Tempo, 1250000
1, 33380, Tempo, 1363636
1, 40704, Tempo, 1666666
1, 40992, Tempo, 1363636
1, 46052, Tempo, 1250000
1, 46820, Tempo, 1363636
1, 48384, Tempo, 1666666
1, 48672, Tempo, 1363636
1, 80612, Tempo, 1250000
1, 80996, Tempo, 1363636
1, 88320, Tempo, 1666666
1, 88608, Tempo, 1363636
1, 93668, Tempo, 1250000
1, 94436, Tempo, 1363636
1, 96768, Tempo, 1500000
1, 97152, Tempo, 1666666
1, 97536, Tempo, 1875000
1, 97920, Tempo, 3000000
1, 98064, Tempo, 1363636
1, 105216, Tempo, 1666666
1, 105504, Tempo, 1363636
1, 110564, Tempo, 1250000
1, 111332, Tempo, 1363636
1, 112896, Tempo, 1666666
1, 113184, Tempo, 1363636
1, 116160, Tempo, 1875000
1, 116352, Tempo, 2142857
1, 116352, End_track
2, 0, Start_track
2, 0, Title_t, "Mozart - Piano Concerto"
2, 0, Control_c, 0, 0, 0
2, 0, Program_c, 0, 0
2, 0, Control_c, 0, 7, 127
2, 0, Control_c, 0, 10, 63
2, 0, Control_c, 0, 91, 67
2, 0, Control_c, 0, 93, 38
2, 0, Key_signature, -1, "major"
2, 0, Control_c, 0, 121, 0
2, 432, Control_c, 0, 10, 63
2, 480, Control_c, 0, 91, 63
2, 528, Control_c, 0, 93, 35
2, 576, Program_c, 0, 0
2, 18240, Note_on_c, 0, 72, 66
2, 18240, Note_on_c, 0, 69, 66
2, 18428, Note_off_c, 0, 72, 64
2, 18428, Note_off_c, 0, 69, 64
2, 18432, Note_on_c, 0, 74, 66
2, 18432, Note_on_c, 0, 70, 66
2, 18524, Note_off_c, 0, 74, 64
2, 18524, Note_off_c, 0, 70, 64
2, 18528, Note_on_c, 0, 72, 66
2, 18528, Note_on_c, 0, 69, 66
2, 18620, Note_off_c, 0, 72, 64
2, 18620, Note_off_c, 0, 69, 64
2, 18624, Note_on_c, 0, 70, 66
2, 18624, Note_on_c, 0, 67, 66
2, 18716, Note_off_c, 0, 70, 64
2, 18716, Note_off_c, 0, 67, 64
2, 18720, Note_on_c, 0, 69, 66
2, 18720, Note_on_c, 0, 65, 66
2, 18812, Note_off_c, 0, 69, 64
2, 18812, Note_off_c, 0, 65, 64
2, 18816, Note_on_c, 0, 69, 66
2, 18816, Note_on_c, 0, 65, 66
2, 19004, Note_off_c, 0, 69, 64
2, 19004, Note_off_c, 0, 65, 64
2, 19008, Note_on_c, 0, 74, 66
2, 19008, Note_on_c, 0, 70, 66
2, 19196, Note_off_c, 0, 74, 64
2, 19196, Note_off_c, 0, 70, 64
2, 19200, Note_on_c, 0, 74, 82
2, 19200, Note_on_c, 0, 70, 82
2, 19296, Note_on_c, 0, 64, 66
2, 19388, Note_off_c, 0, 64, 64
2, 19392, Note_on_c, 0, 65, 66
2, 19484, Note_off_c, 0, 65, 64
2, 19488, Note_on_c, 0, 64, 66
2, 19580, Note_off_c, 0, 74, 64
2, 19580, Note_off_c, 0, 70, 64
2, 19580, Note_off_c, 0, 64, 64
2, 19584, Note_on_c, 0, 72, 66
2, 19584, Note_on_c, 0, 69, 66
2, 19584, Note_on_c, 0, 65, 66
2, 19676, Note_off_c, 0, 65, 64
2, 19772, Note_off_c, 0, 72, 64
2, 19772, Note_off_c, 0, 69, 64
2, 19776, Note_on_c, 0, 77, 66
2, 19868, Note_off_c, 0, 77, 64
2, 19968, Note_on_c, 0, 77, 66
2, 19968, Note_on_c, 0, 60, 66
2, 20060, Note_off_c, 0, 77, 64
2, 20060, Note_off_c, 0, 60, 64
2, 20064, Note_on_c, 0, 76, 66
2, 20064, Note_on_c, 0, 67, 66
2, 20156, Note_off_c, 0, 76, 64
2, 20156, Note_off_c, 0, 67, 64
2, 20160, Note_on_c, 0, 74, 66
2, 20160, Note_on_c, 0, 70, 66
2, 20252, Note_off_c, 0, 74, 64
2, 20252, Note_off_c, 0, 70, 64
2, 20256, Note_on_c, 0, 72, 66
2, 20256, Note_on_c, 0, 67, 66
2, 20348, Note_off_c, 0, 72, 64
2, 20348, Note_off_c, 0, 67, 64
2, 20352, Note_on_c, 0, 72, 66
2, 20352, Note_on_c, 0, 60, 66
2, 20444, Note_off_c, 0, 72, 64
2, 20444, Note_off_c, 0, 60, 64
2, 20448, Note_on_c, 0, 67, 66
2, 20540, Note_off_c, 0, 67, 64
2, 20544, Note_on_c, 0, 72, 66
2, 20544, Note_on_c, 0, 69, 66
2, 20636, Note_off_c, 0, 72, 64
2, 20636, Note_off_c, 0, 69, 64
2, 20640, Note_on_c, 0, 67, 66
2, 20732, Note_off_c, 0, 67, 64
2, 20736, Note_on_c, 0, 72, 68
2, 20736, Note_on_c, 0, 60, 68
2, 20828, Note_off_c, 0, 60, 64
2, 20832, Note_on_c, 0, 65, 72
2, 20924, Note_off_c, 0, 72, 64
2, 20924, Note_off_c, 0, 65, 64
2, 20928, Note_on_c, 0, 72, 78
2, 20928, Note_on_c, 0, 69, 78
2, 20972, Note_off_c, 0, 72, 64
2, 20976, Note_on_c, 0, 74, 80
2, 21020, Note_off_c, 0, 69, 64
2, 21020, Note_off_c, 0, 74, 64
2, 21024, Note_on_c, 0, 72, 83
2, 21024, Note_on_c, 0, 65, 83
2, 21068, Note_off_c, 0, 72, 64
2, 21072, Note_on_c, 0, 70, 85
2, 21116, Note_off_c, 0, 65, 64
2, 21116, Note_off_c, 0, 70, 64
2, 21120, Note_on_c, 0, 72, 88
2, 21120, Note_on_c, 0, 60, 88
2, 21164, Note_off_c, 0, 72, 64
2, 21168, Note_on_c, 0, 74, 91
2, 21212, Note_off_c, 0, 60, 64
2, 21212, Note_off_c, 0, 74, 64
2, 21216, Note_on_c, 0, 76, 93
2, 21216, Note_on_c, 0, 65, 93
2, 21260, Note_off_c, 0, 76, 64
2, 21264, Note_on_c, 0, 77, 96
2, 21308, Note_off_c, 0, 65, 64
2, 21308, Note_off_c, 0, 77, 64
2, 21312, Note_on_c, 0, 79, 99
2, 21312, Note_on_c, 0, 69, 99
2, 21356, Note_off_c, 0, 79, 64
2, 21360, Note_on_c, 0, 81, 91
2, 21404, Note_off_c, 0, 69, 64
2, 21404, Note_off_c, 0, 81, 64
2, 21408, Note_on_c, 0, 79, 82
2, 21408, Note_on_c, 0, 65, 82
2, 21452, Note_off_c, 0, 79, 64
2, 21456, Note_on_c, 0, 77, 74
2, 21500, Note_off_c, 0, 65, 64
2, 21500, Note_off_c, 0, 77, 64
2, 21504, Note_on_c, 0, 77, 66
2, 21504, Note_on_c, 0, 60, 66
2, 21596, Note_off_c, 0, 77, 64
2, 21596, Note_off_c, 0, 60, 64
2, 21600, Note_on_c, 0, 76, 66
2, 21600, Note_on_c, 0, 67, 66
2, 21692, Note_off_c, 0, 76, 64
2, 21692, Note_off_c, 0, 67, 64
2, 21696, Note_on_c, 0, 74, 66
2, 21696, Note_on_c, 0, 70, 66
2, 21788, Note_off_c, 0, 74, 64
2, 21788, Note_off_c, 0, 70, 64
2, 21792, Note_on_c, 0, 72, 66
2, 21792, Note_on_c, 0, 67, 66
2, 21884, Note_off_c, 0, 72, 64
2, 21884, Note_off_c, 0, 67, 64
2, 21888, Note_on_c, 0, 72, 66
2, 21888, Note_on_c, 0, 60, 66
2, 21980, Note_off_c, 0, 72, 64
2, 21980, Note_off_c, 0, 60, 64
2, 21984, Note_on_c, 0, 67, 66
2, 22076, Note_off_c, 0, 67, 64
2, 22080, Note_on_c, 0, 72, 66
2, 22080, Note_on_c, 0, 69, 66
2, 22172, Note_off_c, 0, 72, 64
2, 22172, Note_off_c, 0, 69, 64
2, 22176, Note_on_c, 0, 67, 66
2, 22268, Note_off_c, 0, 67, 64
2, 22272, Note_on_c, 0, 72, 56
2, 22272, Note_on_c, 0, 69, 52
2, 22272, Note_on_c, 0, 65, 52
2, 22460, Note_off_c, 0, 69, 64
2, 22460, Note_off_c, 0, 65, 64
2, 22464, Note_on_c, 0, 72, 55
2, 22508, Note_off_c, 0, 72, 64
2, 22512, Note_off_c, 0, 72, 64
2, 22512, Note_on_c, 0, 69, 56
2, 22556, Note_off_c, 0, 69, 64
2, 22560, Note_on_c, 0, 72, 59
2, 22604, Note_off_c, 0, 72, 64
2, 22608, Note_on_c, 0, 69, 61
2, 22652, Note_off_c, 0, 69, 64
2, 22656, Note_on_c, 0, 72, 63
2, 22748, Note_off_c, 0, 72, 64
2, 22848, Note_on_c, 0, 77, 66
2, 22940, Note_off_c, 0, 77, 64
2, 23040, Note_on_c, 0, 67, 77
2, 23292, Note_off_c, 0, 67, 64
2, 23296, Note_on_c, 0, 70, 66
2, 23356, Note_off_c, 0, 70, 64
2, 23360, Note_on_c, 0, 74, 66
2, 23420, Note_off_c, 0, 74, 64
2, 23424, Note_on_c, 0, 65, 66
2, 23612, Note_off_c, 0, 65, 64
2, 23616, Note_on_c, 0, 67, 66
2, 23804, Note_off_c, 0, 67, 64
2, 23808, Note_on_c, 0, 70, 77
2, 24092, Note_off_c, 0, 70, 64
2, 24096, Note_on_c, 0, 67, 66
2, 24140, Note_off_c, 0, 67, 64
2, 24144, Note_on_c, 0, 70, 66
2, 24188, Note_off_c, 0, 70, 64
2, 24192, Note_on_c, 0, 69, 66
2, 24380, Note_off_c, 0, 69, 64
2, 24384, Note_on_c, 0, 77, 66
2, 24476, Note_off_c, 0, 77, 64
2, 24592, Note_on_c, 0, 73, 66
2, 24624, Note_on_c, 0, 74, 66
2, 24636, Note_off_c, 0, 73, 64
2, 24668, Note_off_c, 0, 74, 64
2, 24672, Note_on_c, 0, 76, 66
2, 24716, Note_off_c, 0, 76, 64
2, 24720, Note_on_c, 0, 74, 66
2, 24764, Note_off_c, 0, 74, 64
2, 24768, Note_on_c, 0, 72, 66
2, 24812, Note_off_c, 0, 72, 64
2, 24816, Note_on_c, 0, 70, 66
2, 24860, Note_off_c, 0, 70, 64
2, 24864, Note_on_c, 0, 69, 66
2, 24908, Note_off_c, 0, 69, 64
2, 24912, Note_on_c, 0, 67, 66
2, 24956, Note_off_c, 0, 67, 64
2, 24960, Note_on_c, 0, 72, 66
2, 25148, Note_off_c, 0, 72, 64
2, 25152, Note_on_c, 0, 60, 66
2, 25340, Note_off_c, 0, 60, 64
2, 25920, Note_on_c, 0, 72, 68
2, 25964, Note_off_c, 0, 72, 64
2, 25968, Note_on_c, 0, 84, 70
2, 26112, Note_off_c, 0, 84, 64
2, 26112, Note_on_c, 0, 82, 68
2, 26112, Note_on_c, 0, 65, 68
2, 26204, Note_off_c, 0, 82, 64
2, 26204, Note_off_c, 0, 65, 64
2, 26208, Note_on_c, 0, 81, 68
2, 26208, Note_on_c, 0, 69, 68
2, 26300, Note_off_c, 0, 81, 64
2, 26300, Note_off_c, 0, 69, 64
2, 26304, Note_on_c, 0, 79, 67
2, 26304, Note_on_c, 0, 72, 67
2, 26396, Note_off_c, 0, 79, 64
2, 26396, Note_off_c, 0, 72, 64
2, 26400, Note_on_c, 0, 77, 66
2, 26400, Note_on_c, 0, 69, 66
2, 26492, Note_off_c, 0, 77, 64
2, 26492, Note_off_c, 0, 69, 64
2, 26496, Note_on_c, 0, 77, 66
2, 26496, Note_on_c, 0, 65, 66
2, 26516, Note_off_c, 0, 77, 64
2, 26520, Note_on_c, 0, 79, 66
2, 26540, Note_off_c, 0, 79, 64
2, 26544, Note_on_c, 0, 77, 66
2, 26564, Note_off_c, 0, 77, 64
2, 26568, Note_on_c, 0, 76, 66
2, 26588, Note_off_c, 0, 65, 64
2, 26588, Note_off_c, 0, 76, 64
2, 26592, Note_on_c, 0, 77, 66
2, 26592, Note_on_c, 0, 69, 66
2, 26684, Note_off_c, 0, 77, 64
2, 26684, Note_off_c, 0, 69, 64
2, 26688, Note_on_c, 0, 79, 66
2, 26688, Note_on_c, 0, 72, 66
2, 26780, Note_off_c, 0, 79, 64
2, 26780, Note_off_c, 0, 72, 64
2, 26784, Note_on_c, 0, 81, 66
2, 26784, Note_on_c, 0, 69, 66
2, 26876, Note_off_c, 0, 81, 64
2, 26876, Note_off_c, 0, 69, 64
2, 26880, Note_on_c, 0, 81, 66
2, 26880, Note_on_c, 0, 65, 66
2, 26972, Note_off_c, 0, 81, 64
2, 26972, Note_off_c, 0, 65, 64
2, 26976, Note_on_c, 0, 79, 66
2, 26976, Note_on_c, 0, 71, 66
2, 27068, Note_off_c, 0, 79, 64
2, 27068, Note_off_c, 0, 71, 64
2, 27072, Note_on_c, 0, 79, 88
2, 27072, Note_on_c, 0, 74, 88
2, 27164, Note_off_c, 0, 74, 64
2, 27168, Note_on_c, 0, 71, 66
2, 27260, Note_off_c, 0, 71, 64
2, 27264, Note_on_c, 0, 65, 66
2, 27356, Note_off_c, 0, 65, 64
2, 27360, Note_on_c, 0, 71, 66
2, 27452, Note_off_c, 0, 79, 64
2, 27452, Note_off_c, 0, 71, 64
2, 27456, Note_on_c, 0, 79, 66
2, 27456, Note_on_c, 0, 74, 66
2, 27548, Note_off_c, 0, 74, 64
2, 27552, Note_on_c, 0, 71, 66
2, 27644, Note_off_c, 0, 79, 64
2, 27644, Note_off_c, 0, 71, 64
2, 27648, Note_on_c, 0, 84, 66
2, 27648, Note_on_c, 0, 64, 66
2, 27648, Note_on_c, 0, 64, 66
2, 27740, Note_off_c, 0, 84, 64
2, 27740, Note_off_c, 0, 64, 64
2, 27744, Note_on_c, 0, 79, 66
2, 27744, Note_on_c, 0, 67, 66
2, 27836, Note_off_c, 0, 67, 64
2, 27840, Note_on_c, 0, 72, 66
2, 27932, Note_off_c, 0, 79, 64
2, 27932, Note_off_c, 0, 72, 64
2, 27936, Note_on_c, 0, 76, 66
2, 27936, Note_on_c, 0, 67, 66
2, 27980, Note_off_c, 0, 76, 64
2, 28028, Note_off_c, 0, 64, 64
2, 28028, Note_off_c, 0, 67, 64
2, 28032, Note_on_c, 0, 79, 66
2, 28032, Note_on_c, 0, 60, 66
2, 28032, Note_on_c, 0, 60, 66
2, 28124, Note_off_c, 0, 79, 64
2, 28124, Note_off_c, 0, 60, 64
2, 28128, Note_on_c, 0, 76, 66
2, 28128, Note_on_c, 0, 64, 66
2, 28220, Note_off_c, 0, 64, 64
2, 28224, Note_on_c, 0, 67, 66
2, 28316, Note_off_c, 0, 76, 64
2, 28316, Note_off_c, 0, 67, 64
2, 28320, Note_on_c, 0, 72, 66
2, 28320, Note_on_c, 0, 64, 66
2, 28364, Note_off_c, 0, 72, 64
2, 28412, Note_off_c, 0, 60, 64
2, 28412, Note_off_c, 0, 64, 64
2, 28416, Note_on_c, 0, 72, 66
2, 28416, Note_on_c, 0, 62, 66
2, 28416, Note_on_c, 0, 62, 66
2, 28436, Note_off_c, 0, 72, 64
2, 28440, Note_on_c, 0, 74, 66
2, 28460, Note_off_c, 0, 74, 64
2, 28464, Note_on_c, 0, 72, 66
2, 28484, Note_off_c, 0, 72, 64
2, 28488, Note_on_c, 0, 74, 66
2, 28508, Note_off_c, 0, 62, 64
2, 28508, Note_off_c, 0, 74, 64
2, 28512, Note_on_c, 0, 71, 66
2, 28512, Note_on_c, 0, 65, 66
2, 28604, Note_off_c, 0, 71, 64
2, 28604, Note_off_c, 0, 65, 64
2, 28608, Note_on_c, 0, 71, 68
2, 28608, Note_on_c, 0, 67, 68
2, 28700, Note_off_c, 0, 67, 64
2, 28704, Note_on_c, 0, 65, 73
2, 28796, Note_off_c, 0, 62, 64
2, 28796, Note_off_c, 0, 71, 64
2, 28796, Note_off_c, 0, 65, 64
2, 28800, Note_on_c, 0, 62, 79
2, 28800, Note_on_c, 0, 62, 79
2, 28892, Note_off_c, 0, 62, 64
2, 28896, Note_on_c, 0, 65, 84
2, 28988, Note_off_c, 0, 65, 64
2, 28992, Note_on_c, 0, 74, 99
2, 28992, Note_on_c, 0, 67, 90
2, 29032, Note_off_c, 0, 74, 64
2, 29040, Note_on_c, 0, 86, 99
2, 29084, Note_off_c, 0, 67, 64
2, 29088, Note_on_c, 0, 65, 94
2, 29180, Note_off_c, 0, 62, 64
2, 29180, Note_off_c, 0, 65, 64
2, 29184, Note_on_c, 0, 59, 94
2, 29276, Note_off_c, 0, 59, 64
2, 29280, Note_on_c, 0, 62, 94
2, 29372, Note_off_c, 0, 62, 64
2, 29376, Note_off_c, 0, 86, 64
2, 29376, Note_on_c, 0, 84, 94
2, 29376, Note_on_c, 0, 67, 94
2, 29420, Note_off_c, 0, 84, 64
2, 29424, Note_on_c, 0, 83, 94
2, 29468, Note_off_c, 0, 67, 64
2, 29468, Note_off_c, 0, 83, 64
2, 29472, Note_on_c, 0, 81, 94
2, 29472, Note_on_c, 0, 62, 94
2, 29516, Note_off_c, 0, 81, 64
2, 29520, Note_on_c, 0, 79, 94
2, 29564, Note_off_c, 0, 62, 64
2, 29564, Note_off_c, 0, 79, 64
2, 29568, Note_on_c, 0, 78, 88
2, 29568, Note_on_c, 0, 59, 88
2, 29660, Note_off_c, 0, 78, 64
2, 29660, Note_off_c, 0, 59, 64
2, 29664, Note_on_c, 0, 79, 82
2, 29664, Note_on_c, 0, 62, 82
2, 29756, Note_off_c, 0, 79, 64
2, 29756, Note_off_c, 0, 62, 64
2, 29760, Note_on_c, 0, 80, 77
2, 29760, Note_on_c, 0, 67, 77
2, 29852, Note_off_c, 0, 80, 64
2, 29852, Note_off_c, 0, 67, 64
2, 29856, Note_on_c, 0, 81, 71
2, 29856, Note_on_c, 0, 62, 71
2, 29900, Note_off_c, 0, 81, 64
2, 29904, Note_on_c, 0, 77, 67
2, 29948, Note_off_c, 0, 62, 64
2, 29948, Note_off_c, 0, 77, 64
2, 29952, Note_on_c, 0, 79, 66
2, 29952, Note_on_c, 0, 60, 66
2, 29972, Note_off_c, 0, 79, 64
2, 29972, Note_on_c, 0, 77, 66
2, 29992, Note_off_c, 0, 77, 64
2, 29996, Note_on_c, 0, 79, 66
2, 30016, Note_off_c, 0, 79, 64
2, 30016, Note_on_c, 0, 77, 66
2, 30036, Note_off_c, 0, 77, 64
2, 30044, Note_off_c, 0, 60, 64
2, 30048, Note_on_c, 0, 64, 66
2, 30048, Note_on_c, 0, 79, 66
2, 30068, Note_off_c, 0, 79, 64
2, 30072, Note_on_c, 0, 77, 66
2, 30092, Note_off_c, 0, 77, 64
2, 30096, Note_on_c, 0, 79, 66
2, 30112, Note_on_c, 0, 77, 66
2, 30116, Note_off_c, 0, 79, 64
2, 30132, Note_off_c, 0, 77, 64
2, 30140, Note_off_c, 0, 64, 64
2, 30144, Note_on_c, 0, 76, 71
2, 30144, Note_on_c, 0, 67, 66
2, 30236, Note_off_c, 0, 67, 64
2, 30240, Note_on_c, 0, 64, 66
2, 30332, Note_off_c, 0, 64, 64
2, 30336, Note_on_c, 0, 60, 66
2, 30428, Note_off_c, 0, 60, 64
2, 30432, Note_on_c, 0, 64, 66
2, 30524, Note_off_c, 0, 76, 64
2, 30524, Note_off_c, 0, 64, 64
2, 30528, Note_on_c, 0, 79, 66
2, 30528, Note_on_c, 0, 67, 66
2, 30620, Note_off_c, 0, 67, 64
2, 30624, Note_on_c, 0, 64, 66
2, 30716, Note_off_c, 0, 79, 64
2, 30716, Note_off_c, 0, 64, 64
2, 30720, Note_on_c, 0, 78, 66
2, 30764, Note_off_c, 0, 78, 64
2, 30768, Note_on_c, 0, 79, 66
2, 30812, Note_off_c, 0, 79, 64
2, 30816, Note_on_c, 0, 81, 66
2, 30860, Note_off_c, 0, 81, 64
2, 30864, Note_on_c, 0, 79, 66
2, 30908, Note_off_c, 0, 79, 64
2, 30912, Note_on_c, 0, 84, 66
2, 31100, Note_off_c, 0, 84, 64
2, 31104, Note_on_c, 0, 86, 66
2, 31148, Note_off_c, 0, 86, 64
2, 31152, Note_on_c, 0, 84, 66
2, 31196, Note_off_c, 0, 84, 64
2, 31200, Note_on_c, 0, 83, 66
2, 31244, Note_off_c, 0, 83, 64
2, 31248, Note_on_c, 0, 81, 66
2, 31292, Note_off_c, 0, 81, 64
2, 31296, Note_on_c, 0, 81, 66
2, 31340, Note_off_c, 0, 81, 64
2, 31344, Note_on_c, 0, 79, 66
2, 31388, Note_off_c, 0, 79, 64
2, 31392, Note_on_c, 0, 77, 66
2, 31436, Note_off_c, 0, 77, 64
2, 31440, Note_on_c, 0, 76, 66
2, 31484, Note_off_c, 0, 76, 64
2, 31488, Note_on_c, 0, 76, 66
2, 31532, Note_off_c, 0, 76, 64
2, 31536, Note_on_c, 0, 77, 66
2, 31580, Note_off_c, 0, 77, 64
2, 31584, Note_on_c, 0, 73, 66
2, 31628, Note_off_c, 0, 73, 64
2, 31632, Note_on_c, 0, 74, 66
2, 31676, Note_off_c, 0, 74, 64
2, 31680, Note_on_c, 0, 74, 66
2, 32060, Note_off_c, 0, 74, 64
2, 32064, Note_on_c, 0, 81, 66
2, 32156, Note_off_c, 0, 81, 64
2, 32160, Note_on_c, 0, 77, 66
2, 32252, Note_off_c, 0, 77, 64
2, 32256, Note_on_c, 0, 74, 66
2, 32348, Note_off_c, 0, 74, 64
2, 32352, Note_on_c, 0, 75, 66
2, 32444, Note_off_c, 0, 75, 64
2, 32448, Note_on_c, 0, 75, 66
2, 32732, Note_off_c, 0, 75, 64
2, 32736, Note_on_c, 0, 77, 70
2, 32780, Note_off_c, 0, 77, 64
2, 32784, Note_on_c, 0, 75, 74
2, 32828, Note_off_c, 0, 75, 64
2, 32832, Note_on_c, 0, 74, 79
2, 32876, Note_off_c, 0, 74, 64
2, 32928, Note_on_c, 0, 72, 83
2, 32972, Note_off_c, 0, 72, 64
2, 33024, Note_on_c, 0, 74, 73
2, 33044, Note_off_c, 0, 74, 64
2, 33044, Note_on_c, 0, 72, 73
2, 33064, Note_off_c, 0, 72, 64
2, 33068, Note_on_c, 0, 74, 72
2, 33088, Note_off_c, 0, 74, 64
2, 33088, Note_on_c, 0, 72, 70
2, 33108, Note_off_c, 0, 72, 64
2, 33120, Note_on_c, 0, 74, 68
2, 33140, Note_off_c, 0, 74, 64
2, 33144, Note_on_c, 0, 72, 68
2, 33164, Note_off_c, 0, 72, 64
2, 33168, Note_on_c, 0, 74, 67
2, 33188, Note_off_c, 0, 74, 64
2, 33192, Note_on_c, 0, 72, 66
2, 33212, Note_off_c, 0, 72, 64
2, 33216, Note_on_c, 0, 74, 63
2, 33236, Note_off_c, 0, 74, 64
2, 33240, Note_on_c, 0, 72, 62
2, 33260, Note_off_c, 0, 72, 64
2, 33268, Note_on_c, 0, 74, 61
2, 33288, Note_off_c, 0, 74, 64
2, 33288, Note_on_c, 0, 72, 60
2, 33308, Note_off_c, 0, 72, 64
2, 33312, Note_on_c, 0, 74, 59
2, 33332, Note_off_c, 0, 74, 64
2, 33336, Note_on_c, 0, 72, 56
2, 33356, Note_off_c, 0, 72, 64
2, 33360, Note_on_c, 0, 74, 49
2, 33380, Note_off_c, 0, 74, 64
2, 33384, Note_on_c, 0, 72, 52
2, 33404, Note_off_c, 0, 72, 64
2, 33408, Note_on_c, 0, 71, 59
2, 33596, Note_off_c, 0, 71, 64
2, 34368, Note_on_c, 0, 72, 66
2, 34368, Note_on_c, 0, 64, 66
2, 34556, Note_off_c, 0, 72, 64
2, 34556, Note_off_c, 0, 64, 64
2, 34560, Note_on_c, 0, 65, 68
2, 34560, Note_on_c, 0, 72, 68
2, 34652, Note_off_c, 0, 72, 64
2, 34656, Note_on_c, 0, 71, 75
2, 34748, Note_off_c, 0, 71, 64
2, 34752, Note_on_c, 0, 74, 72
2, 34844, Note_off_c, 0, 74, 64
2, 34848, Note_on_c, 0, 72, 69
2, 34940, Note_off_c, 0, 72, 64
2, 34944, Note_on_c, 0, 71, 66
2, 34944, Note_on_c, 0, 65, 66
2, 35132, Note_off_c, 0, 65, 64
2, 35132, Note_off_c, 0, 71, 64
2, 35132, Note_off_c, 0, 65, 64
2, 35904, Note_on_c, 0, 76, 66
2, 35904, Note_on_c, 0, 67, 66
2, 36092, Note_off_c, 0, 76, 64
2, 36092, Note_off_c, 0, 67, 64
2, 36096, Note_on_c, 0, 76, 66
2, 36096, Note_on_c, 0, 67, 66
2, 36188, Note_off_c, 0, 76, 64
2, 36192, Note_on_c, 0, 74, 66
2, 36284, Note_off_c, 0, 74, 64
2, 36288, Note_on_c, 0, 77, 66
2, 36380, Note_off_c, 0, 77, 64
2, 36384, Note_on_c, 0, 76, 66
2, 36476, Note_off_c, 0, 76, 64
2, 36480, Note_on_c, 0, 74, 66
2, 36668, Note_off_c, 0, 67, 64
2, 36668, Note_off_c, 0, 74, 64
2, 36672, Note_on_c, 0, 79, 79
2, 36672, Note_on_c, 0, 74, 79
2, 36672, Note_on_c, 0, 71, 79
2, 36812, Note_off_c, 0, 79, 64
2, 36816, Note_on_c, 0, 81, 90
2, 36860, Note_off_c, 0, 74, 64
2, 36860, Note_off_c, 0, 71, 64
2, 36860, Note_off_c, 0, 81, 64
2, 36864, Note_on_c, 0, 79, 94
2, 36864, Note_on_c, 0, 72, 94
2, 36864, Note_on_c, 0, 69, 94
2, 36956, Note_off_c, 0, 79, 64
2, 36960, Note_on_c, 0, 77, 94
2, 37052, Note_off_c, 0, 77, 64
2, 37056, Note_on_c, 0, 77, 94
2, 37196, Note_off_c, 0, 77, 64
2, 37200, Note_on_c, 0, 79, 94
2, 37244, Note_off_c, 0, 72, 64
2, 37244, Note_off_c, 0, 69, 64
2, 37244, Note_off_c, 0, 79, 64
2, 37248, Note_on_c, 0, 77, 94
2, 37248, Note_on_c, 0, 67, 94
2, 37248, Note_on_c, 0, 70, 94
2, 37340, Note_off_c, 0, 77, 64
2, 37344, Note_on_c, 0, 76, 94
2, 37436, Note_off_c, 0, 76, 64
2, 37440, Note_on_c, 0, 76, 94
2, 37580, Note_off_c, 0, 76, 64
2, 37584, Note_on_c, 0, 77, 94
2, 37628, Note_off_c, 0, 67, 64
2, 37628, Note_off_c, 0, 70, 64
2, 37628, Note_off_c, 0, 77, 64
2, 37632, Note_on_c, 0, 76, 92
2, 37632, Note_on_c, 0, 69, 92
2, 37632, Note_on_c, 0, 65, 92
2, 37724, Note_off_c, 0, 76, 64
2, 37728, Note_on_c, 0, 74, 89
2, 37820, Note_off_c, 0, 74, 64
2, 37824, Note_on_c, 0, 74, 85
2, 37964, Note_off_c, 0, 74, 64
2, 37968, Note_on_c, 0, 76, 81
2, 38012, Note_off_c, 0, 69, 64
2, 38012, Note_off_c, 0, 65, 64
2, 38012, Note_off_c, 0, 76, 64
2, 38016, Note_on_c, 0, 74, 79
2, 38016, Note_on_c, 0, 67, 79
2, 38016, Note_on_c, 0, 64, 79
2, 38108, Note_off_c, 0, 74, 64
2, 38112, Note_on_c, 0, 72, 75
2, 38204, Note_off_c, 0, 72, 64
2, 38208, Note_on_c, 0, 72, 72
2, 38348, Note_off_c, 0, 72, 64
2, 38352, Note_on_c, 0, 74, 68
2, 38396, Note_off_c, 0, 67, 64
2, 38396, Note_off_c, 0, 64, 64
2, 38396, Note_off_c, 0, 74, 64
2, 38400, Note_on_c, 0, 71, 88
2, 38400, Note_on_c, 0, 62, 88
2, 38444, Note_off_c, 0, 62, 64
2, 38448, Note_on_c, 0, 67, 66
2, 38492, Note_off_c, 0, 67, 64
2, 38496, Note_on_c, 0, 65, 66
2, 38540, Note_off_c, 0, 65, 64
2, 38544, Note_on_c, 0, 67, 66
2, 38588, Note_off_c, 0, 67, 64
2, 38592, Note_on_c, 0, 55, 66
2, 38636, Note_off_c, 0, 55, 64
2, 38640, Note_on_c, 0, 67, 66
2, 38684, Note_off_c, 0, 71, 64
2, 38684, Note_off_c, 0, 67, 64
2, 38688, Note_on_c, 0, 72, 66
2, 38688, Note_on_c, 0, 65, 66
2, 38732, Note_off_c, 0, 72, 64
2, 38732, Note_off_c, 0, 65, 64
2, 38736, Note_on_c, 0, 67, 66
2, 38736, Note_on_c, 0, 74, 66
2, 38780, Note_off_c, 0, 67, 64
2, 38780, Note_off_c, 0, 74, 64
2, 38784, Note_on_c, 0, 72, 66
2, 38784, Note_on_c, 0, 60, 66
2, 38828, Note_off_c, 0, 60, 64
2, 38832, Note_on_c, 0, 67, 66
2, 38876, Note_off_c, 0, 67, 64
2, 38880, Note_on_c, 0, 65, 66
2, 38924, Note_off_c, 0, 65, 64
2, 38928, Note_on_c, 0, 67, 66
2, 38972, Note_off_c, 0, 72, 64
2, 38972, Note_off_c, 0, 67, 64
2, 38976, Note_on_c, 0, 79, 66
2, 38976, Note_on_c, 0, 60, 66
2, 39020, Note_off_c, 0, 60, 64
2, 39024, Note_on_c, 0, 67, 66
2, 39068, Note_off_c, 0, 67, 64
2, 39072, Note_on_c, 0, 65, 66
2, 39116, Note_off_c, 0, 65, 64
2, 39120, Note_on_c, 0, 84, 66
2, 39120, Note_on_c, 0, 67, 66
2, 39164, Note_off_c, 0, 79, 64
2, 39164, Note_off_c, 0, 84, 64
2, 39164, Note_off_c, 0, 67, 64
2, 39168, Note_on_c, 0, 83, 88
2, 39168, Note_on_c, 0, 62, 88
2, 39212, Note_off_c, 0, 62, 64
2, 39216, Note_on_c, 0, 67, 66
2, 39260, Note_off_c, 0, 67, 64
2, 39264, Note_on_c, 0, 65, 66
2, 39308, Note_off_c, 0, 65, 64
2, 39312, Note_on_c, 0, 67, 66
2, 39356, Note_off_c, 0, 67, 64
2, 39360, Note_on_c, 0, 55, 66
2, 39404, Note_off_c, 0, 55, 64
2, 39408, Note_on_c, 0, 67, 66
2, 39452, Note_off_c, 0, 83, 64
2, 39452, Note_off_c, 0, 67, 64
2, 39456, Note_on_c, 0, 84, 66
2, 39456, Note_on_c, 0, 65, 66
2, 39500, Note_off_c, 0, 84, 64
2, 39500, Note_off_c, 0, 65, 64
2, 39504, Note_on_c, 0, 67, 66
2, 39504, Note_on_c, 0, 86, 66
2, 39548, Note_off_c, 0, 67, 64
2, 39548, Note_off_c, 0, 86, 64
2, 39552, Note_on_c, 0, 84, 70
2, 39552, Note_on_c, 0, 64, 70
2, 39552, Note_on_c, 0, 60, 70
2, 39644, Note_off_c, 0, 84, 64
2, 39648, Note_on_c, 0, 74, 77
2, 39648, Note_on_c, 0, 71, 77
2, 39740, Note_off_c, 0, 64, 64
2, 39740, Note_off_c, 0, 60, 64
2, 39740, Note_off_c, 0, 74, 64
2, 39740, Note_off_c, 0, 71, 64
2, 39744, Note_on_c, 0, 76, 83
2, 39744, Note_on_c, 0, 72, 83
2, 39836, Note_off_c, 0, 76, 64
2, 39836, Note_off_c, 0, 72, 64
2, 39840, Note_on_c, 0, 77, 90
2, 39840, Note_on_c, 0, 74, 90
2, 39932, Note_off_c, 0, 77, 64
2, 39932, Note_off_c, 0, 74, 64
2, 39936, Note_on_c, 0, 79, 94
2, 39936, Note_on_c, 0, 79, 94
2, 40028, Note_off_c, 0, 79, 64
2, 40032, Note_on_c, 0, 77, 85
2, 40124, Note_off_c, 0, 77, 64
2, 40128, Note_on_c, 0, 76, 79
2, 40220, Note_off_c, 0, 79, 64
2, 40220, Note_off_c, 0, 76, 64
2, 40224, Note_on_c, 0, 72, 72
2, 40224, Note_on_c, 0, 81, 72
2, 40316, Note_off_c, 0, 72, 64
2, 40320, Note_on_c, 0, 72, 66
2, 40320, Note_on_c, 0, 64, 66
2, 40364, Note_off_c, 0, 81, 64
2, 40508, Note_off_c, 0, 72, 64
2, 40508, Note_off_c, 0, 64, 64
2, 40512, Note_on_c, 0, 71, 66
2, 40512, Note_on_c, 0, 62, 66
2, 40700, Note_off_c, 0, 71, 64
2, 40700, Note_off_c, 0, 62, 64
2, 40704, Note_on_c, 0, 70, 94
2, 40704, Note_on_c, 0, 67, 94
2, 40704, Note_on_c, 0, 60, 94
2, 40892, Note_off_c, 0, 70, 64
2, 40892, Note_off_c, 0, 67, 64
2, 40892, Note_off_c, 0, 60, 64
2, 40896, Note_on_c, 0, 69, 94
2, 40896, Note_on_c, 0, 65, 94
2, 40896, Note_on_c, 0, 60, 94
2, 41084, Note_off_c, 0, 69, 64
2, 41084, Note_off_c, 0, 65, 64
2, 41084, Note_off_c, 0, 60, 64
2, 41184, Note_on_c, 0, 74, 68
2, 41276, Note_off_c, 0, 74, 64
2, 41280, Note_on_c, 0, 76, 77
2, 41372, Note_off_c, 0, 76, 64
2, 41376, Note_on_c, 0, 77, 85
2, 41468, Note_off_c, 0, 77, 64
2, 41472, Note_on_c, 0, 79, 94
2, 41472, Note_on_c, 0, 79, 94
2, 41564, Note_off_c, 0, 79, 64
2, 41568, Note_on_c, 0, 77, 94
2, 41660, Note_off_c, 0, 77, 64
2, 41664, Note_on_c, 0, 76, 94
2, 41756, Note_off_c, 0, 79, 64
2, 41756, Note_off_c, 0, 76, 64
2, 41760, Note_on_c, 0, 74, 94
2, 41760, Note_on_c, 0, 81, 94
2, 41852, Note_off_c, 0, 74, 64
2, 41852, Note_off_c, 0, 81, 64
2, 41856, Note_on_c, 0, 72, 85
2, 41856, Note_on_c, 0, 64, 85
2, 41948, Note_off_c, 0, 72, 64
2, 41948, Note_off_c, 0, 64, 64
2, 41952, Note_on_c, 0, 76, 80
2, 41952, Note_on_c, 0, 67, 80
2, 42044, Note_off_c, 0, 76, 64
2, 42044, Note_off_c, 0, 67, 64
2, 42048, Note_on_c, 0, 74, 74
2, 42048, Note_on_c, 0, 65, 74
2, 42140, Note_off_c, 0, 74, 64
2, 42140, Note_off_c, 0, 65, 64
2, 42144, Note_on_c, 0, 71, 69
2, 42144, Note_on_c, 0, 62, 69
2, 42236, Note_off_c, 0, 71, 64
2, 42236, Note_off_c, 0, 62, 64
2, 42240, Note_on_c, 0, 72, 66
2, 42264, Note_off_c, 0, 72, 64
2, 42288, Note_on_c, 0, 79, 66
2, 42332, Note_off_c, 0, 79, 64
2, 42336, Note_on_c, 0, 78, 66
2, 42380, Note_off_c, 0, 78, 64
2, 42384, Note_on_c, 0, 79, 66
2, 42428, Note_off_c, 0, 79, 64
2, 42432, Note_on_c, 0, 78, 66
2, 42476, Note_off_c, 0, 78, 64
2, 42480, Note_on_c, 0, 79, 66
2, 42524, Note_off_c, 0, 79, 64
2, 42528, Note_on_c, 0, 81, 66
2, 42572, Note_off_c, 0, 81, 64
2, 42576, Note_on_c, 0, 79, 66
2, 42620, Note_off_c, 0, 79, 64
2, 42624, Note_on_c, 0, 79, 66
2, 42648, Note_off_c, 0, 79, 64
2, 42672, Note_on_c, 0, 77, 66
2, 42716, Note_off_c, 0, 77, 64
2, 42720, Note_on_c, 0, 76, 66
2, 42764, Note_off_c, 0, 76, 64
2, 42768, Note_on_c, 0, 77, 66
2, 42812, Note_off_c, 0, 77, 64
2, 42816, Note_on_c, 0, 76, 66
2, 42860, Note_off_c, 0, 76, 64
2, 42864, Note_on_c, 0, 77, 66
2, 42908, Note_off_c, 0, 77, 64
2, 42912, Note_on_c, 0, 79, 66
2, 42956, Note_off_c, 0, 79, 64
2, 42960, Note_on_c, 0, 77, 66
2, 43004, Note_off_c, 0, 77, 64
2, 43008, Note_on_c, 0, 76, 66
2, 43032, Note_off_c, 0, 76, 64
2, 43056, Note_on_c, 0, 79, 66
2, 43100, Note_off_c, 0, 79, 64
2, 43104, Note_on_c, 0, 78, 66
2, 43148, Note_off_c, 0, 78, 64
2, 43152, Note_on_c, 0, 79, 66
2, 43196, Note_off_c, 0, 79, 64
2, 43200, Note_on_c, 0, 78, 66
2, 43244, Note_off_c, 0, 78, 64
2, 43248, Note_on_c, 0, 79, 66
2, 43292, Note_off_c, 0, 79, 64
2, 43296, Note_on_c, 0, 81, 66
2, 43340, Note_off_c, 0, 81, 64
2, 43344, Note_on_c, 0, 79, 66
2, 43388, Note_off_c, 0, 79, 64
2, 43392, Note_on_c, 0, 78, 66
2, 43416, Note_off_c, 0, 78, 64
2, 43440, Note_on_c, 0, 77, 66
2, 43484, Note_off_c, 0, 77, 64
2, 43488, Note_on_c, 0, 76, 66
2, 43532, Note_off_c, 0, 76, 64
2, 43536, Note_on_c, 0, 77, 66
2, 43580, Note_off_c, 0, 77, 64
2, 43584, Note_on_c, 0, 78, 66
2, 43628, Note_off_c, 0, 78, 64
2, 43632, Note_on_c, 0, 77, 66
2, 43676, Note_off_c, 0, 77, 64
2, 43680, Note_on_c, 0, 76, 66
2, 43724, Note_off_c, 0, 76, 64
2, 43728, Note_on_c, 0, 77, 66
2, 43772, Note_off_c, 0, 77, 64
2, 43776, Note_on_c, 0, 76, 66
2, 43800, Note_off_c, 0, 76, 64
2, 43824, Note_on_c, 0, 84, 66
2, 43868, Note_off_c, 0, 84, 64
2, 43872, Note_on_c, 0, 83, 66
2, 43916, Note_off_c, 0, 83, 64
2, 43920, Note_on_c, 0, 84, 66
2, 43964, Note_off_c, 0, 84, 64
2, 43968, Note_on_c, 0, 64, 66
2, 43968, Note_on_c, 0, 60, 66
2, 43968, Note_on_c, 0, 83, 66
2, 44012, Note_off_c, 0, 83, 64
2, 44016, Note_on_c, 0, 84, 66
2, 44060, Note_off_c, 0, 84, 64
2, 44064, Note_on_c, 0, 86, 66
2, 44108, Note_off_c, 0, 86, 64
2, 44112, Note_on_c, 0, 84, 66
2, 44156, Note_off_c, 0, 64, 64
2, 44156, Note_off_c, 0, 84, 64
2, 44160, Note_on_c, 0, 65, 66
2, 44160, Note_on_c, 0, 83, 66
2, 44184, Note_off_c, 0, 83, 64
2, 44208, Note_on_c, 0, 82, 66
2, 44252, Note_off_c, 0, 82, 64
2, 44256, Note_on_c, 0, 81, 66
2, 44300, Note_off_c, 0, 81, 64
2, 44304, Note_on_c, 0, 82, 66
2, 44348, Note_off_c, 0, 60, 64
2, 44348, Note_off_c, 0, 65, 64
2, 44348, Note_off_c, 0, 82, 64
2, 44352, Note_on_c, 0, 67, 66
2, 44352, Note_on_c, 0, 64, 66
2, 44352, Note_on_c, 0, 81, 66
2, 44396, Note_off_c, 0, 81, 64
2, 44400, Note_on_c, 0, 82, 66
2, 44444, Note_off_c, 0, 82, 64
2, 44448, Note_on_c, 0, 84, 66
2, 44492, Note_off_c, 0, 84, 64
2, 44496, Note_on_c, 0, 82, 66
2, 44540, Note_off_c, 0, 67, 64
2, 44540, Note_off_c, 0, 64, 64
2, 44540, Note_off_c, 0, 82, 64
2, 44544, Note_on_c, 0, 80, 66
2, 44636, Note_off_c, 0, 80, 64
2, 44640, Note_on_c, 0, 81, 66
2, 44732, Note_off_c, 0, 81, 64
2, 44736, Note_on_c, 0, 81, 82
2, 44928, Note_on_c, 0, 81, 68
2, 44948, Note_off_c, 0, 81, 64
2, 44952, Note_on_c, 0, 83, 70
2, 44972, Note_off_c, 0, 81, 64
2, 44972, Note_off_c, 0, 83, 64
2, 44976, Note_on_c, 0, 81, 72
2, 44996, Note_off_c, 0, 81, 64
2, 45000, Note_on_c, 0, 80, 74
2, 45020, Note_off_c, 0, 80, 64
2, 45024, Note_on_c, 0, 81, 77
2, 45116, Note_off_c, 0, 81, 64
2, 45120, Note_on_c, 0, 83, 82
2, 45212, Note_off_c, 0, 83, 64
2, 45216, Note_on_c, 0, 84, 88
2, 45308, Note_off_c, 0, 84, 64
2, 45312, Note_on_c, 0, 84, 88
2, 45404, Note_off_c, 0, 84, 64
2, 45408, Note_on_c, 0, 79, 83
2, 45500, Note_off_c, 0, 79, 64
2, 45504, Note_on_c, 0, 79, 81
2, 45692, Note_off_c, 0, 79, 64
2, 45696, Note_on_c, 0, 78, 74
2, 45740, Note_off_c, 0, 78, 64
2, 45744, Note_on_c, 0, 79, 73
2, 45788, Note_off_c, 0, 79, 64
2, 45792, Note_on_c, 0, 81, 72
2, 45836, Note_off_c, 0, 81, 64
2, 45840, Note_on_c, 0, 79, 71
2, 45884, Note_off_c, 0, 79, 64
2, 45888, Note_on_c, 0, 77, 70
2, 45932, Note_off_c, 0, 77, 64
2, 45936, Note_on_c, 0, 76, 68
2, 45980, Note_off_c, 0, 76, 64
2, 45984, Note_on_c, 0, 74, 66
2, 46028, Note_off_c, 0, 74, 64
2, 46032, Note_on_c, 0, 72, 66
2, 46076, Note_off_c, 0, 72, 64
2, 46080, Note_on_c, 0, 74, 66
2, 46100, Note_off_c, 0, 74, 64
2, 46104, Note_on_c, 0, 76, 66
2, 46124, Note_off_c, 0, 76, 64
2, 46128, Note_on_c, 0, 74, 66
2, 46148, Note_off_c, 0, 74, 64
2, 46152, Note_on_c, 0, 76, 66
2, 46172, Note_off_c, 0, 76, 64
2, 46176, Note_on_c, 0, 74, 66
2, 46196, Note_off_c, 0, 74, 64
2, 46200, Note_on_c, 0, 76, 66
2, 46220, Note_off_c, 0, 76, 64
2, 46224, Note_on_c, 0, 74, 66
2, 46244, Note_off_c, 0, 74, 64
2, 46248, Note_on_c, 0, 76, 66
2, 46268, Note_off_c, 0, 76, 64
2, 46272, Note_on_c, 0, 74, 66
2, 46292, Note_off_c, 0, 74, 64
2, 46296, Note_on_c, 0, 76, 66
2, 46316, Note_off_c, 0, 76, 64
2, 46320, Note_on_c, 0, 74, 66
2, 46340, Note_off_c, 0, 74, 64
2, 46344, Note_on_c, 0, 76, 66
2, 46364, Note_off_c, 0, 76, 64
2, 46368, Note_on_c, 0, 74, 66
2, 46388, Note_off_c, 0, 74, 64
2, 46392, Note_on_c, 0, 76, 66
2, 46412, Note_off_c, 0, 76, 64
2, 46416, Note_on_c, 0, 74, 66
2, 46436, Note_off_c, 0, 74, 64
2, 46440, Note_on_c, 0, 76, 66
2, 46460, Note_off_c, 0, 76, 64
2, 46464, Note_on_c, 0, 74, 68
2, 46484, Note_off_c, 0, 74, 64
2, 46488, Note_on_c, 0, 76, 70
2, 46508, Note_off_c, 0, 76, 64
2, 46512, Note_on_c, 0, 74, 72
2, 46532, Note_off_c, 0, 74, 64
2, 46536, Note_on_c, 0, 76, 74
2, 46556, Note_off_c, 0, 76, 64
2, 46560, Note_on_c, 0, 74, 77
2, 46580, Note_off_c, 0, 74, 64
2, 46584, Note_on_c, 0, 76, 79
2, 46604, Note_off_c, 0, 76, 64
2, 46608, Note_on_c, 0, 74, 81
2, 46628, Note_off_c, 0, 74, 64
2, 46632, Note_on_c, 0, 76, 83
2, 46652, Note_off_c, 0, 76, 64
2, 46656, Note_on_c, 0, 72, 85
2, 46748, Note_off_c, 0, 72, 64
2, 46752, Note_on_c, 0, 74, 88
2, 46844, Note_off_c, 0, 74, 64
2, 46848, Note_on_c, 0, 72, 90
2, 47228, Note_off_c, 0, 72, 64
2, 51456, Note_on_c, 0, 67, 66
2, 51456, Note_on_c, 0, 64, 66
2, 51456, Note_on_c, 0, 60, 66
2, 51500, Note_off_c, 0, 67, 64
2, 51500, Note_off_c, 0, 64, 64
2, 51500, Note_off_c, 0, 60, 64
2, 51552, Note_on_c, 0, 67, 66
2, 51552, Note_on_c, 0, 64, 66
2, 51552, Note_on_c, 0, 60, 66
2, 51596, Note_off_c, 0, 67, 64
2, 51596, Note_off_c, 0, 64, 64
2, 51596, Note_off_c, 0, 60, 64
2, 51648, Note_on_c, 0, 67, 66
2, 51648, Note_on_c, 0, 64, 66
2, 51648, Note_on_c, 0, 60, 66
2, 51692, Note_off_c, 0, 67, 64
2, 51692, Note_off_c, 0, 64, 64
2, 51692, Note_off_c, 0, 60, 64
2, 51744, Note_on_c, 0, 67, 66
2, 51744, Note_on_c, 0, 64, 66
2, 51744, Note_on_c, 0, 60, 66
2, 51788, Note_off_c, 0, 67, 64
2, 51788, Note_off_c, 0, 64, 64
2, 51788, Note_off_c, 0, 60, 64
2, 51840, Note_on_c, 0, 67, 66
2, 51840, Note_on_c, 0, 64, 66
2, 51840, Note_on_c, 0, 60, 66
2, 51884, Note_off_c, 0, 67, 64
2, 51884, Note_off_c, 0, 64, 64
2, 51884, Note_off_c, 0, 60, 64
2, 51936, Note_on_c, 0, 67, 66
2, 51936, Note_on_c, 0, 64, 66
2, 51936, Note_on_c, 0, 60, 66
2, 51980, Note_off_c, 0, 67, 64
2, 51980, Note_off_c, 0, 64, 64
2, 51980, Note_off_c, 0, 60, 64
2, 52032, Note_on_c, 0, 67, 66
2, 52032, Note_on_c, 0, 64, 66
2, 52032, Note_on_c, 0, 60, 66
2, 52076, Note_off_c, 0, 67, 64
2, 52076, Note_off_c, 0, 64, 64
2, 52076, Note_off_c, 0, 60, 64
2, 52128, Note_on_c, 0, 67, 66
2, 52128, Note_on_c, 0, 64, 66
2, 52128, Note_on_c, 0, 60, 66
2, 52172, Note_off_c, 0, 67, 64
2, 52172, Note_off_c, 0, 64, 64
2, 52172, Note_off_c, 0, 60, 64
2, 52224, Note_on_c, 0, 79, 72
2, 52224, Note_on_c, 0, 67, 66
2, 52224, Note_on_c, 0, 64, 66
2, 52224, Note_on_c, 0, 60, 66
2, 52268, Note_off_c, 0, 67, 64
2, 52268, Note_off_c, 0, 64, 64
2, 52268, Note_off_c, 0, 60, 64
2, 52320, Note_on_c, 0, 67, 66
2, 52320, Note_on_c, 0, 64, 66
2, 52320, Note_on_c, 0, 60, 66
2, 52364, Note_off_c, 0, 67, 64
2, 52364, Note_off_c, 0, 64, 64
2, 52364, Note_off_c, 0, 60, 64
2, 52416, Note_on_c, 0, 67, 66
2, 52416, Note_on_c, 0, 64, 66
2, 52416, Note_on_c, 0, 60, 66
2, 52460, Note_off_c, 0, 67, 64
2, 52460, Note_off_c, 0, 64, 64
2, 52460, Note_off_c, 0, 60, 64
2, 52508, Note_off_c, 0, 79, 64
2, 52512, Note_on_c, 0, 67, 66
2, 52512, Note_on_c, 0, 64, 66
2, 52512, Note_on_c, 0, 60, 66
2, 52512, Note_on_c, 0, 81, 66
2, 52556, Note_off_c, 0, 67, 64
2, 52556, Note_off_c, 0, 64, 64
2, 52556, Note_off_c, 0, 60, 64
2, 52556, Note_off_c, 0, 81, 64
2, 52560, Note_on_c, 0, 79, 66
2, 52604, Note_off_c, 0, 79, 64
2, 52608, Note_on_c, 0, 77, 66
2, 52608, Note_on_c, 0, 67, 66
2, 52608, Note_on_c, 0, 64, 66
2, 52608, Note_on_c, 0, 60, 66
2, 52652, Note_off_c, 0, 67, 64
2, 52652, Note_off_c, 0, 64, 64
2, 52652, Note_off_c, 0, 60, 64
2, 52700, Note_off_c, 0, 77, 64
2, 52704, Note_on_c, 0, 76, 66
2, 52704, Note_on_c, 0, 67, 66
2, 52704, Note_on_c, 0, 64, 66
2, 52704, Note_on_c, 0, 60, 66
2, 52748, Note_off_c, 0, 67, 64
2, 52748, Note_off_c, 0, 64, 64
2, 52748, Note_off_c, 0, 60, 64
2, 52796, Note_off_c, 0, 76, 64
2, 52800, Note_on_c, 0, 74, 66
2, 52800, Note_on_c, 0, 67, 66
2, 52800, Note_on_c, 0, 64, 66
2, 52800, Note_on_c, 0, 60, 66
2, 52844, Note_off_c, 0, 67, 64
2, 52844, Note_off_c, 0, 64, 64
2, 52844, Note_off_c, 0, 60, 64
2, 52892, Note_off_c, 0, 74, 64
2, 52896, Note_on_c, 0, 72, 66
2, 52896, Note_on_c, 0, 67, 66
2, 52896, Note_on_c, 0, 64, 66
2, 52896, Note_on_c, 0, 60, 66
2, 52940, Note_off_c, 0, 67, 64
2, 52940, Note_off_c, 0, 64, 64
2, 52940, Note_off_c, 0, 60, 64
2, 52988, Note_off_c, 0, 72, 64
2, 52992, Note_on_c, 0, 67, 66
2, 52992, Note_on_c, 0, 65, 66
2, 52992, Note_on_c, 0, 62, 66
2, 52992, Note_on_c, 0, 72, 66
2, 53012, Note_off_c, 0, 72, 64
2, 53016, Note_on_c, 0, 74, 66
2, 53036, Note_off_c, 0, 67, 64
2, 53036, Note_off_c, 0, 65, 64
2, 53036, Note_off_c, 0, 62, 64
2, 53036, Note_off_c, 0, 74, 64
2, 53040, Note_on_c, 0, 72, 66
2, 53060, Note_off_c, 0, 72, 64
2, 53064, Note_on_c, 0, 74, 66
2, 53084, Note_off_c, 0, 74, 64
2, 53088, Note_on_c, 0, 71, 66
2, 53088, Note_on_c, 0, 67, 66
2, 53088, Note_on_c, 0, 65, 66
2, 53088, Note_on_c, 0, 62, 66
2, 53132, Note_off_c, 0, 67, 64
2, 53132, Note_off_c, 0, 65, 64
2, 53132, Note_off_c, 0, 62, 64
2, 53180, Note_off_c, 0, 71, 64
2, 53184, Note_on_c, 0, 71, 68
2, 53184, Note_on_c, 0, 67, 68
2, 53184, Note_on_c, 0, 65, 68
2, 53184, Note_on_c, 0, 62, 68
2, 53228, Note_off_c, 0, 67, 64
2, 53228, Note_off_c, 0, 65, 64
2, 53228, Note_off_c, 0, 62, 64
2, 53280, Note_on_c, 0, 67, 72
2, 53280, Note_on_c, 0, 65, 72
2, 53280, Note_on_c, 0, 62, 72
2, 53324, Note_off_c, 0, 67, 64
2, 53324, Note_off_c, 0, 65, 64
2, 53324, Note_off_c, 0, 62, 64
2, 53376, Note_on_c, 0, 67, 78
2, 53376, Note_on_c, 0, 65, 78
2, 53376, Note_on_c, 0, 62, 78
2, 53420, Note_off_c, 0, 67, 64
2, 53420, Note_off_c, 0, 65, 64
2, 53420, Note_off_c, 0, 62, 64
2, 53472, Note_on_c, 0, 67, 83
2, 53472, Note_on_c, 0, 65, 83
2, 53472, Note_on_c, 0, 62, 83
2, 53516, Note_off_c, 0, 67, 64
2, 53516, Note_off_c, 0, 65, 64
2, 53516, Note_off_c, 0, 62, 64
2, 53564, Note_off_c, 0, 71, 64
2, 53568, Note_on_c, 0, 79, 88
2, 53568, Note_on_c, 0, 67, 88
2, 53568, Note_on_c, 0, 65, 88
2, 53568, Note_on_c, 0, 62, 88
2, 53612, Note_off_c, 0, 67, 64
2, 53612, Note_off_c, 0, 65, 64
2, 53612, Note_off_c, 0, 62, 64
2, 53664, Note_on_c, 0, 67, 93
2, 53664, Note_on_c, 0, 65, 93
2, 53664, Note_on_c, 0, 62, 93
2, 53708, Note_off_c, 0, 67, 64
2, 53708, Note_off_c, 0, 65, 64
2, 53708, Note_off_c, 0, 62, 64
2, 53756, Note_off_c, 0, 79, 64
2, 53760, Note_on_c, 0, 82, 96
2, 53760, Note_on_c, 0, 67, 96
2, 53760, Note_on_c, 0, 64, 96
2, 53760, Note_on_c, 0, 60, 96
2, 53804, Note_off_c, 0, 67, 64
2, 53804, Note_off_c, 0, 64, 64
2, 53804, Note_off_c, 0, 60, 64
2, 53856, Note_on_c, 0, 67, 93
2, 53856, Note_on_c, 0, 64, 93
2, 53856, Note_on_c, 0, 60, 93
2, 53900, Note_off_c, 0, 67, 64
2, 53900, Note_off_c, 0, 64, 64
2, 53900, Note_off_c, 0, 60, 64
2, 53952, Note_on_c, 0, 67, 89
2, 53952, Note_on_c, 0, 64, 89
2, 53952, Note_on_c, 0, 60, 89
2, 53996, Note_off_c, 0, 67, 64
2, 53996, Note_off_c, 0, 64, 64
2, 53996, Note_off_c, 0, 60, 64
2, 54044, Note_off_c, 0, 82, 64
2, 54048, Note_on_c, 0, 79, 85
2, 54048, Note_on_c, 0, 67, 85
2, 54048, Note_on_c, 0, 64, 85
2, 54048, Note_on_c, 0, 60, 85
2, 54092, Note_off_c, 0, 67, 64
2, 54092, Note_off_c, 0, 64, 64
2, 54092, Note_off_c, 0, 60, 64
2, 54140, Note_off_c, 0, 79, 64
2, 54144, Note_on_c, 0, 82, 81
2, 54144, Note_on_c, 0, 67, 81
2, 54144, Note_on_c, 0, 64, 81
2, 54144, Note_on_c, 0, 60, 81
2, 54188, Note_off_c, 0, 67, 64
2, 54188, Note_off_c, 0, 64, 64
2, 54188, Note_off_c, 0, 60, 64
2, 54236, Note_off_c, 0, 82, 64
2, 54240, Note_on_c, 0, 79, 78
2, 54240, Note_on_c, 0, 67, 78
2, 54240, Note_on_c, 0, 64, 78
2, 54240, Note_on_c, 0, 60, 78
2, 54284, Note_off_c, 0, 67, 64
2, 54284, Note_off_c, 0, 64, 64
2, 54284, Note_off_c, 0, 60, 64
2, 54332, Note_off_c, 0, 79, 64
2, 54336, Note_on_c, 0, 76, 73
2, 54336, Note_on_c, 0, 67, 73
2, 54336, Note_on_c, 0, 64, 73
2, 54336, Note_on_c, 0, 60, 73
2, 54380, Note_off_c, 0, 67, 64
2, 54380, Note_off_c, 0, 64, 64
2, 54380, Note_off_c, 0, 60, 64
2, 54428, Note_off_c, 0, 76, 64
2, 54432, Note_on_c, 0, 70, 70
2, 54432, Note_on_c, 0, 67, 70
2, 54432, Note_on_c, 0, 64, 70
2, 54432, Note_on_c, 0, 60, 70
2, 54476, Note_off_c, 0, 67, 64
2, 54476, Note_off_c, 0, 64, 64
2, 54476, Note_off_c, 0, 60, 64
2, 54524, Note_off_c, 0, 70, 64
2, 54528, Note_on_c, 0, 67, 66
2, 54528, Note_on_c, 0, 64, 66
2, 54528, Note_on_c, 0, 61, 66
2, 54528, Note_on_c, 0, 70, 66
2, 54548, Note_off_c, 0, 70, 64
2, 54552, Note_on_c, 0, 72, 66
2, 54572, Note_off_c, 0, 67, 64
2, 54572, Note_off_c, 0, 64, 64
2, 54572, Note_off_c, 0, 61, 64
2, 54572, Note_off_c, 0, 72, 64
2, 54576, Note_on_c, 0, 70, 66
2, 54596, Note_off_c, 0, 70, 64
2, 54600, Note_on_c, 0, 72, 66
2, 54620, Note_off_c, 0, 72, 64
2, 54624, Note_on_c, 0, 69, 66
2, 54624, Note_on_c, 0, 67, 66
2, 54624, Note_on_c, 0, 64, 66
2, 54624, Note_on_c, 0, 61, 66
2, 54668, Note_off_c, 0, 67, 64
2, 54668, Note_off_c, 0, 64, 64
2, 54668, Note_off_c, 0, 61, 64
2, 54716, Note_off_c, 0, 69, 64
2, 54720, Note_on_c, 0, 69, 66
2, 54720, Note_on_c, 0, 67, 66
2, 54720, Note_on_c, 0, 64, 66
2, 54720, Note_on_c, 0, 61, 66
2, 54764, Note_off_c, 0, 67, 64
2, 54764, Note_off_c, 0, 64, 64
2, 54764, Note_off_c, 0, 61, 64
2, 54816, Note_on_c, 0, 67, 66
2, 54816, Note_on_c, 0, 64, 66
2, 54816, Note_on_c, 0, 61, 66
2, 54860, Note_off_c, 0, 67, 64
2, 54860, Note_off_c, 0, 64, 64
2, 54860, Note_off_c, 0, 61, 64
2, 54912, Note_on_c, 0, 67, 66
2, 54912, Note_on_c, 0, 64, 66
2, 54912, Note_on_c, 0, 61, 66
2, 54956, Note_off_c, 0, 67, 64
2, 54956, Note_off_c, 0, 64, 64
2, 54956, Note_off_c, 0, 61, 64
2, 55008, Note_on_c, 0, 67, 66
2, 55008, Note_on_c, 0, 64, 66
2, 55008, Note_on_c, 0, 61, 66
2, 55052, Note_off_c, 0, 67, 64
2, 55052, Note_off_c, 0, 64, 64
2, 55052, Note_off_c, 0, 61, 64
2, 55100, Note_off_c, 0, 69, 64
2, 55104, Note_on_c, 0, 81, 66
2, 55104, Note_on_c, 0, 67, 66
2, 55104, Note_on_c, 0, 64, 66
2, 55104, Note_on_c, 0, 61, 66
2, 55148, Note_off_c, 0, 67, 64
2, 55148, Note_off_c, 0, 64, 64
2, 55148, Note_off_c, 0, 61, 64
2, 55200, Note_on_c, 0, 67, 66
2, 55200, Note_on_c, 0, 64, 66
2, 55200, Note_on_c, 0, 61, 66
2, 55244, Note_off_c, 0, 67, 64
2, 55244, Note_off_c, 0, 64, 64
2, 55244, Note_off_c, 0, 61, 64
2, 55292, Note_off_c, 0, 81, 64
2, 55296, Note_on_c, 0, 65, 66
2, 55296, Note_on_c, 0, 62, 66
2, 55296, Note_on_c, 0, 81, 66
2, 55340, Note_off_c, 0, 65, 64
2, 55340, Note_off_c, 0, 62, 64
2, 55392, Note_on_c, 0, 65, 66
2, 55392, Note_on_c, 0, 62, 66
2, 55436, Note_off_c, 0, 65, 64
2, 55436, Note_off_c, 0, 62, 64
2, 55488, Note_on_c, 0, 65, 66
2, 55488, Note_on_c, 0, 62, 66
2, 55532, Note_off_c, 0, 65, 64
2, 55532, Note_off_c, 0, 62, 64
2, 55580, Note_off_c, 0, 81, 64
2, 55584, Note_on_c, 0, 65, 66
2, 55584, Note_on_c, 0, 62, 66
2, 55584, Note_on_c, 0, 81, 66
2, 55604, Note_off_c, 0, 81, 64
2, 55608, Note_on_c, 0, 77, 66
2, 55628, Note_off_c, 0, 65, 64
2, 55628, Note_off_c, 0, 62, 64
2, 55628, Note_off_c, 0, 77, 64
2, 55632, Note_on_c, 0, 81, 66
2, 55652, Note_off_c, 0, 81, 64
2, 55656, Note_on_c, 0, 77, 66
2, 55676, Note_off_c, 0, 77, 64
2, 55680, Note_on_c, 0, 69, 66
2, 55680, Note_on_c, 0, 65, 66
2, 55680, Note_on_c, 0, 62, 66
2, 55680, Note_on_c, 0, 74, 66
2, 55724, Note_off_c, 0, 69, 64
2, 55724, Note_off_c, 0, 65, 64
2, 55724, Note_off_c, 0, 62, 64
2, 55776, Note_on_c, 0, 69, 66
2, 55776, Note_on_c, 0, 65, 66
2, 55776, Note_on_c, 0, 62, 66
2, 55820, Note_off_c, 0, 69, 64
2, 55820, Note_off_c, 0, 65, 64
2, 55820, Note_off_c, 0, 62, 64
2, 55868, Note_off_c, 0, 74, 64
2, 55872, Note_on_c, 0, 69, 66
2, 55872, Note_on_c, 0, 65, 66
2, 55872, Note_on_c, 0, 62, 66
2, 55872, Note_on_c, 0, 81, 66
2, 55916, Note_off_c, 0, 69, 64
2, 55916, Note_off_c, 0, 65, 64
2, 55916, Note_off_c, 0, 62, 64
2, 55968, Note_on_c, 0, 69, 66
2, 55968, Note_on_c, 0, 62, 66
2, 55968, Note_on_c, 0, 65, 66
2, 56012, Note_off_c, 0, 81, 64
2, 56012, Note_off_c, 0, 69, 64
2, 56012, Note_off_c, 0, 62, 64
2, 56012, Note_off_c, 0, 65, 64
2, 56016, Note_on_c, 0, 81, 66
2, 56060, Note_off_c, 0, 81, 64
2, 56064, Note_on_c, 0, 69, 66
2, 56064, Note_on_c, 0, 67, 66
2, 56064, Note_on_c, 0, 64, 66
2, 56064, Note_on_c, 0, 81, 66
2, 56108, Note_off_c, 0, 69, 64
2, 56108, Note_off_c, 0, 67, 64
2, 56108, Note_off_c, 0, 64, 64
2, 56160, Note_on_c, 0, 69, 66
2, 56160, Note_on_c, 0, 67, 66
2, 56160, Note_on_c, 0, 64, 66
2, 56204, Note_off_c, 0, 69, 64
2, 56204, Note_off_c, 0, 67, 64
2, 56204, Note_off_c, 0, 64, 64
2, 56256, Note_on_c, 0, 69, 66
2, 56256, Note_on_c, 0, 67, 66
2, 56256, Note_on_c, 0, 64, 66
2, 56300, Note_off_c, 0, 69, 64
2, 56300, Note_off_c, 0, 67, 64
2, 56300, Note_off_c, 0, 64, 64
2, 56348, Note_off_c, 0, 81, 64
2, 56352, Note_on_c, 0, 69, 66
2, 56352, Note_on_c, 0, 67, 66
2, 56352, Note_on_c, 0, 64, 66
2, 56352, Note_on_c, 0, 79, 66
2, 56372, Note_off_c, 0, 79, 64
2, 56376, Note_on_c, 0, 76, 66
2, 56396, Note_off_c, 0, 69, 64
2, 56396, Note_off_c, 0, 67, 64
2, 56396, Note_off_c, 0, 64, 64
2, 56396, Note_off_c, 0, 76, 64
2, 56400, Note_on_c, 0, 79, 66
2, 56420, Note_off_c, 0, 79, 64
2, 56424, Note_on_c, 0, 76, 66
2, 56444, Note_off_c, 0, 76, 64
2, 56448, Note_on_c, 0, 69, 66
2, 56448, Note_on_c, 0, 67, 66
2, 56448, Note_on_c, 0, 64, 66
2, 56448, Note_on_c, 0, 73, 66
2, 56492, Note_off_c, 0, 69, 64
2, 56492, Note_off_c, 0, 67, 64
2, 56492, Note_off_c, 0, 64, 64
2, 56544, Note_on_c, 0, 69, 66
2, 56544, Note_on_c, 0, 67, 66
2, 56544, Note_on_c, 0, 64, 66
2, 56588, Note_off_c, 0, 69, 64
2, 56588, Note_off_c, 0, 67, 64
2, 56588, Note_off_c, 0, 64, 64
2, 56636, Note_off_c, 0, 73, 64
2, 56640, Note_on_c, 0, 69, 66
2, 56640, Note_on_c, 0, 67, 66
2, 56640, Note_on_c, 0, 64, 66
2, 56640, Note_on_c, 0, 81, 66
2, 56684, Note_off_c, 0, 69, 64
2, 56684, Note_off_c, 0, 67, 64
2, 56684, Note_off_c, 0, 64, 64
2, 56736, Note_on_c, 0, 69, 66
2, 56736, Note_on_c, 0, 67, 66
2, 56736, Note_on_c, 0, 64, 66
2, 56780, Note_off_c, 0, 81, 64
2, 56780, Note_off_c, 0, 69, 64
2, 56780, Note_off_c, 0, 67, 64
2, 56780, Note_off_c, 0, 64, 64
2, 56784, Note_on_c, 0, 81, 66
2, 56828, Note_off_c, 0, 81, 64
2, 56832, Note_on_c, 0, 81, 66
2, 56924, Note_off_c, 0, 81, 64
2, 56928, Note_on_c, 0, 86, 66
2, 57020, Note_off_c, 0, 86, 64
2, 57120, Note_on_c, 0, 81, 69
2, 57164, Note_off_c, 0, 81, 64
2, 57168, Note_on_c, 0, 77, 77
2, 57212, Note_off_c, 0, 77, 64
2, 57216, Note_on_c, 0, 76, 85
2, 57308, Note_off_c, 0, 76, 64
2, 57312, Note_on_c, 0, 79, 79
2, 57404, Note_off_c, 0, 79, 64
2, 57504, Note_on_c, 0, 76, 74
2, 57548, Note_off_c, 0, 76, 64
2, 57552, Note_on_c, 0, 73, 70
2, 57596, Note_off_c, 0, 73, 64
2, 57600, Note_on_c, 0, 74, 66
2, 57624, Note_off_c, 0, 74, 64
2, 57648, Note_on_c, 0, 81, 66
2, 57692, Note_off_c, 0, 81, 64
2, 57696, Note_on_c, 0, 80, 66
2, 57740, Note_off_c, 0, 80, 64
2, 57744, Note_on_c, 0, 81, 66
2, 57788, Note_off_c, 0, 81, 64
2, 57792, Note_on_c, 0, 80, 66
2, 57836, Note_off_c, 0, 80, 64
2, 57840, Note_on_c, 0, 81, 66
2, 57884, Note_off_c, 0, 81, 64
2, 57888, Note_on_c, 0, 82, 66
2, 57932, Note_off_c, 0, 82, 64
2, 57936, Note_on_c, 0, 81, 66
2, 57980, Note_off_c, 0, 81, 64
2, 57984, Note_on_c, 0, 80, 66
2, 58008, Note_off_c, 0, 80, 64
2, 58032, Note_on_c, 0, 79, 66
2, 58076, Note_off_c, 0, 79, 64
2, 58080, Note_on_c, 0, 78, 66
2, 58124, Note_off_c, 0, 78, 64
2, 58128, Note_on_c, 0, 79, 66
2, 58172, Note_off_c, 0, 79, 64
2, 58176, Note_on_c, 0, 78, 66
2, 58220, Note_off_c, 0, 78, 64
2, 58224, Note_on_c, 0, 79, 66
2, 58268, Note_off_c, 0, 79, 64
2, 58272, Note_on_c, 0, 81, 66
2, 58316, Note_off_c, 0, 81, 64
2, 58320, Note_on_c, 0, 79, 66
2, 58364, Note_off_c, 0, 79, 64
2, 58368, Note_on_c, 0, 77, 70
2, 58460, Note_off_c, 0, 77, 64
2, 58464, Note_on_c, 0, 81, 77
2, 58556, Note_off_c, 0, 81, 64
2, 58656, Note_on_c, 0, 77, 91
2, 58700, Note_off_c, 0, 77, 64
2, 58704, Note_on_c, 0, 74, 94
2, 58748, Note_off_c, 0, 74, 64
2, 58752, Note_on_c, 0, 76, 92
2, 58844, Note_off_c, 0, 76, 64
2, 58848, Note_on_c, 0, 79, 84
2, 58940, Note_off_c, 0, 79, 64
2, 59040, Note_on_c, 0, 76, 72
2, 59084, Note_off_c, 0, 76, 64
2, 59088, Note_on_c, 0, 73, 69
2, 59132, Note_off_c, 0, 73, 64
2, 59136, Note_on_c, 0, 74, 66
2, 59160, Note_off_c, 0, 74, 64
2, 59184, Note_on_c, 0, 86, 66
2, 59228, Note_off_c, 0, 86, 64
2, 59232, Note_on_c, 0, 85, 66
2, 59276, Note_off_c, 0, 85, 64
2, 59280, Note_on_c, 0, 86, 66
2, 59324, Note_off_c, 0, 86, 64
2, 59328, Note_on_c, 0, 85, 66
2, 59372, Note_off_c, 0, 85, 64
2, 59376, Note_on_c, 0, 86, 66
2, 59420, Note_off_c, 0, 86, 64
2, 59424, Note_on_c, 0, 88, 66
2, 59468, Note_off_c, 0, 88, 64
2, 59472, Note_on_c, 0, 86, 66
2, 59516, Note_off_c, 0, 86, 64
2, 59520, Note_on_c, 0, 85, 70
2, 59544, Note_off_c, 0, 85, 64
2, 59568, Note_on_c, 0, 84, 74
2, 59612, Note_off_c, 0, 84, 64
2, 59616, Note_on_c, 0, 83, 80
2, 59660, Note_off_c, 0, 83, 64
2, 59664, Note_on_c, 0, 84, 85
2, 59708, Note_off_c, 0, 84, 64
2, 59712, Note_on_c, 0, 83, 91
2, 59756, Note_off_c, 0, 83, 64
2, 59760, Note_on_c, 0, 84, 96
2, 59804, Note_off_c, 0, 84, 64
2, 59808, Note_on_c, 0, 86, 101
2, 59852, Note_off_c, 0, 86, 64
2, 59856, Note_on_c, 0, 84, 106
2, 59900, Note_off_c, 0, 84, 64
2, 59904, Note_on_c, 0, 84, 111
2, 59996, Note_off_c, 0, 84, 64
2, 60000, Note_on_c, 0, 82, 111
2, 60188, Note_off_c, 0, 82, 64
2, 60192, Note_on_c, 0, 81, 111
2, 60236, Note_off_c, 0, 81, 64
2, 60240, Note_on_c, 0, 79, 111
2, 60284, Note_off_c, 0, 79, 64
2, 60288, Note_on_c, 0, 77, 111
2, 60332, Note_off_c, 0, 77, 64
2, 60336, Note_on_c, 0, 75, 105
2, 60380, Note_off_c, 0, 75, 64
2, 60384, Note_on_c, 0, 74, 100
2, 60428, Note_off_c, 0, 74, 64
2, 60432, Note_on_c, 0, 75, 94
2, 60476, Note_off_c, 0, 75, 64
2, 60480, Note_on_c, 0, 77, 89
2, 60524, Note_off_c, 0, 77, 64
2, 60528, Note_on_c, 0, 79, 83
2, 60572, Note_off_c, 0, 79, 64
2, 60576, Note_on_c, 0, 81, 77
2, 60620, Note_off_c, 0, 81, 64
2, 60624, Note_on_c, 0, 82, 71
2, 60668, Note_off_c, 0, 82, 64
2, 60672, Note_on_c, 0, 82, 66
2, 60764, Note_off_c, 0, 82, 64
2, 60768, Note_on_c, 0, 74, 66
2, 60864, Note_on_c, 0, 65, 66
2, 60864, Note_on_c, 0, 57, 66
2, 60956, Note_off_c, 0, 65, 64
2, 60956, Note_off_c, 0, 57, 64
2, 61056, Note_on_c, 0, 65, 66
2, 61056, Note_on_c, 0, 57, 66
2, 61056, Note_on_c, 0, 74, 66
2, 61148, Note_off_c, 0, 65, 64
2, 61148, Note_off_c, 0, 57, 64
2, 61248, Note_on_c, 0, 65, 66
2, 61248, Note_on_c, 0, 57, 66
2, 61340, Note_off_c, 0, 74, 64
2, 61340, Note_off_c, 0, 74, 64
2, 61340, Note_off_c, 0, 65, 64
2, 61340, Note_off_c, 0, 57, 64
2, 61344, Note_on_c, 0, 74, 66
2, 61436, Note_off_c, 0, 74, 64
2, 61440, Note_on_c, 0, 77, 67
2, 61532, Note_off_c, 0, 77, 64
2, 61536, Note_on_c, 0, 75, 68
2, 61628, Note_off_c, 0, 75, 64
2, 61632, Note_on_c, 0, 75, 70
2, 61632, Note_on_c, 0, 66, 70
2, 61632, Note_on_c, 0, 60, 70
2, 61632, Note_on_c, 0, 57, 70
2, 61724, Note_off_c, 0, 66, 64
2, 61724, Note_off_c, 0, 60, 64
2, 61724, Note_off_c, 0, 57, 64
2, 61824, Note_on_c, 0, 66, 79
2, 61824, Note_on_c, 0, 60, 79
2, 61824, Note_on_c, 0, 57, 79
2, 61916, Note_off_c, 0, 66, 64
2, 61916, Note_off_c, 0, 60, 64
2, 61916, Note_off_c, 0, 57, 64
2, 62012, Note_off_c, 0, 75, 64
2, 62016, Note_on_c, 0, 75, 85
2, 62016, Note_on_c, 0, 66, 85
2, 62016, Note_on_c, 0, 60, 85
2, 62016, Note_on_c, 0, 57, 85
2, 62108, Note_off_c, 0, 66, 64
2, 62108, Note_off_c, 0, 60, 64
2, 62108, Note_off_c, 0, 57, 64
2, 62156, Note_off_c, 0, 75, 64
2, 62160, Note_on_c, 0, 75, 94
2, 62204, Note_off_c, 0, 75, 64
2, 62208, Note_on_c, 0, 67, 94
2, 62208, Note_on_c, 0, 62, 94
2, 62208, Note_on_c, 0, 58, 94
2, 62208, Note_on_c, 0, 74, 94
2, 62252, Note_off_c, 0, 74, 64
2, 62304, Note_on_c, 0, 85, 94
2, 62396, Note_off_c, 0, 67, 64
2, 62396, Note_off_c, 0, 62, 64
2, 62396, Note_off_c, 0, 58, 64
2, 62396, Note_off_c, 0, 85, 64
2, 62400, Note_on_c, 0, 86, 94
2, 62492, Note_off_c, 0, 86, 64
2, 62496, Note_on_c, 0, 81, 94
2, 62588, Note_off_c, 0, 81, 64
2, 62592, Note_on_c, 0, 82, 94
2, 62684, Note_off_c, 0, 82, 64
2, 62688, Note_on_c, 0, 78, 94
2, 62780, Note_off_c, 0, 78, 64
2, 62784, Note_on_c, 0, 79, 94
2, 62876, Note_off_c, 0, 79, 64
2, 62880, Note_on_c, 0, 73, 94
2, 62972, Note_off_c, 0, 73, 64
2, 62976, Note_on_c, 0, 74, 94
2, 62976, Note_on_c, 0, 67, 94
2, 62976, Note_on_c, 0, 62, 94
2, 62976, Note_on_c, 0, 58, 94
2, 63068, Note_off_c, 0, 74, 64
2, 63072, Note_on_c, 0, 85, 94
2, 63116, Note_off_c, 0, 85, 64
2, 63120, Note_on_c, 0, 88, 94
2, 63164, Note_off_c, 0, 67, 64
2, 63164, Note_off_c, 0, 62, 64
2, 63164, Note_off_c, 0, 58, 64
2, 63164, Note_off_c, 0, 88, 64
2, 63168, Note_on_c, 0, 86, 92
2, 63212, Note_off_c, 0, 86, 64
2, 63264, Note_on_c, 0, 81, 88
2, 63308, Note_off_c, 0, 81, 64
2, 63312, Note_on_c, 0, 84, 85
2, 63356, Note_off_c, 0, 84, 64
2, 63360, Note_on_c, 0, 82, 83
2, 63452, Note_off_c, 0, 82, 64
2, 63456, Note_on_c, 0, 78, 78
2, 63500, Note_off_c, 0, 78, 64
2, 63504, Note_on_c, 0, 81, 75
2, 63548, Note_off_c, 0, 81, 64
2, 63552, Note_on_c, 0, 79, 73
2, 63552, Note_on_c, 0, 70, 73
2, 63552, Note_on_c, 0, 58, 73
2, 63596, Note_off_c, 0, 79, 64
2, 63600, Note_on_c, 0, 74, 71
2, 63644, Note_off_c, 0, 74, 64
2, 63648, Note_on_c, 0, 82, 69
2, 63692, Note_off_c, 0, 82, 64
2, 63696, Note_on_c, 0, 79, 66
2, 63740, Note_off_c, 0, 70, 64
2, 63740, Note_off_c, 0, 58, 64
2, 63740, Note_off_c, 0, 79, 64
2, 63744, Note_on_c, 0, 69, 82
2, 63744, Note_on_c, 0, 60, 82
2, 63744, Note_on_c, 0, 77, 82
2, 64028, Note_off_c, 0, 77, 64
2, 64032, Note_on_c, 0, 79, 66
2, 64076, Note_off_c, 0, 79, 64
2, 64080, Note_on_c, 0, 77, 66
2, 64124, Note_off_c, 0, 69, 64
2, 64124, Note_off_c, 0, 60, 64
2, 64124, Note_off_c, 0, 77, 64
2, 64128, Note_on_c, 0, 76, 66
2, 64128, Note_on_c, 0, 67, 66
2, 64128, Note_on_c, 0, 60, 66
2, 64316, Note_off_c, 0, 76, 64
2, 64316, Note_off_c, 0, 67, 64
2, 64316, Note_off_c, 0, 60, 64
2, 67392, Note_on_c, 0, 77, 66
2, 67580, Note_off_c, 0, 77, 64
2, 67584, Note_on_c, 0, 77, 66
2, 67584, Note_on_c, 0, 60, 66
2, 67676, Note_off_c, 0, 77, 64
2, 67676, Note_off_c, 0, 60, 64
2, 67680, Note_on_c, 0, 76, 66
2, 67680, Note_on_c, 0, 67, 66
2, 67772, Note_off_c, 0, 76, 64
2, 67772, Note_off_c, 0, 67, 64
2, 67776, Note_on_c, 0, 74, 66
2, 67776, Note_on_c, 0, 70, 66
2, 67868, Note_off_c, 0, 74, 64
2, 67868, Note_off_c, 0, 70, 64
2, 67872, Note_on_c, 0, 72, 66
2, 67872, Note_on_c, 0, 67, 66
2, 67964, Note_off_c, 0, 72, 64
2, 67964, Note_off_c, 0, 67, 64
2, 67968, Note_on_c, 0, 72, 66
2, 67968, Note_on_c, 0, 60, 66
2, 68060, Note_off_c, 0, 72, 64
2, 68060, Note_off_c, 0, 60, 64
2, 68064, Note_on_c, 0, 67, 66
2, 68156, Note_off_c, 0, 67, 64
2, 68160, Note_on_c, 0, 72, 66
2, 68160, Note_on_c, 0, 69, 66
2, 68252, Note_off_c, 0, 72, 64
2, 68252, Note_off_c, 0, 69, 64
2, 68256, Note_on_c, 0, 67, 66
2, 68348, Note_off_c, 0, 67, 64
2, 68352, Note_on_c, 0, 72, 68
2, 68352, Note_on_c, 0, 60, 68
2, 68444, Note_off_c, 0, 60, 64
2, 68448, Note_on_c, 0, 65, 73
2, 68540, Note_off_c, 0, 72, 64
2, 68540, Note_off_c, 0, 65, 64
2, 68544, Note_on_c, 0, 72, 80
2, 68544, Note_on_c, 0, 69, 80
2, 68588, Note_off_c, 0, 72, 64
2, 68592, Note_on_c, 0, 74, 83
2, 68636, Note_off_c, 0, 69, 64
2, 68636, Note_off_c, 0, 74, 64
2, 68640, Note_on_c, 0, 72, 85
2, 68640, Note_on_c, 0, 65, 85
2, 68684, Note_off_c, 0, 72, 64
2, 68688, Note_on_c, 0, 70, 89
2, 68732, Note_off_c, 0, 65, 64
2, 68732, Note_off_c, 0, 70, 64
2, 68736, Note_on_c, 0, 72, 92
2, 68736, Note_on_c, 0, 60, 92
2, 68780, Note_off_c, 0, 72, 64
2, 68784, Note_on_c, 0, 74, 96
2, 68828, Note_off_c, 0, 60, 64
2, 68828, Note_off_c, 0, 74, 64
2, 68832, Note_on_c, 0, 76, 92
2, 68832, Note_on_c, 0, 69, 92
2, 68876, Note_off_c, 0, 76, 64
2, 68880, Note_on_c, 0, 77, 88
2, 68924, Note_off_c, 0, 69, 64
2, 68924, Note_off_c, 0, 77, 64
2, 68928, Note_on_c, 0, 79, 82
2, 68928, Note_on_c, 0, 72, 82
2, 68972, Note_off_c, 0, 79, 64
2, 68976, Note_on_c, 0, 81, 77
2, 69020, Note_off_c, 0, 72, 64
2, 69020, Note_off_c, 0, 81, 64
2, 69024, Note_on_c, 0, 79, 72
2, 69024, Note_on_c, 0, 69, 72
2, 69068, Note_off_c, 0, 79, 64
2, 69072, Note_on_c, 0, 77, 67
2, 69116, Note_off_c, 0, 69, 64
2, 69116, Note_off_c, 0, 77, 64
2, 69120, Note_on_c, 0, 77, 66
2, 69120, Note_on_c, 0, 60, 66
2, 69212, Note_off_c, 0, 77, 64
2, 69212, Note_off_c, 0, 60, 64
2, 69216, Note_on_c, 0, 76, 66
2, 69216, Note_on_c, 0, 67, 66
2, 69308, Note_off_c, 0, 76, 64
2, 69308, Note_off_c, 0, 67, 64
2, 69312, Note_on_c, 0, 74, 66
2, 69312, Note_on_c, 0, 70, 66
2, 69404, Note_off_c, 0, 74, 64
2, 69404, Note_off_c, 0, 70, 64
2, 69408, Note_on_c, 0, 72, 66
2, 69408, Note_on_c, 0, 67, 66
2, 69500, Note_off_c, 0, 72, 64
2, 69500, Note_off_c, 0, 67, 64
2, 69504, Note_on_c, 0, 72, 66
2, 69504, Note_on_c, 0, 60, 66
2, 69596, Note_off_c, 0, 72, 64
2, 69596, Note_off_c, 0, 60, 64
2, 69600, Note_on_c, 0, 67, 66
2, 69692, Note_off_c, 0, 67, 64
2, 69696, Note_on_c, 0, 72, 66
2, 69696, Note_on_c, 0, 69, 66
2, 69788, Note_off_c, 0, 72, 64
2, 69788, Note_off_c, 0, 69, 64
2, 69792, Note_on_c, 0, 67, 66
2, 69884, Note_off_c, 0, 67, 64
2, 69888, Note_on_c, 0, 69, 94
2, 69888, Note_on_c, 0, 65, 94
2, 69888, Note_on_c, 0, 72, 94
2, 70120, Note_off_c, 0, 69, 64
2, 70120, Note_off_c, 0, 65, 64
2, 70120, Note_off_c, 0, 72, 64
2, 70128, Note_on_c, 0, 69, 85
2, 70172, Note_off_c, 0, 69, 64
2, 70176, Note_on_c, 0, 72, 79
2, 70220, Note_off_c, 0, 72, 64
2, 70224, Note_on_c, 0, 69, 72
2, 70268, Note_off_c, 0, 69, 64
2, 70272, Note_on_c, 0, 72, 66
2, 70364, Note_off_c, 0, 72, 64
2, 70464, Note_on_c, 0, 77, 66
2, 70556, Note_off_c, 0, 77, 64
2, 70656, Note_on_c, 0, 67, 82
2, 70908, Note_off_c, 0, 67, 64
2, 70912, Note_on_c, 0, 70, 66
2, 70972, Note_off_c, 0, 70, 64
2, 70976, Note_on_c, 0, 74, 66
2, 71036, Note_off_c, 0, 74, 64
2, 71040, Note_on_c, 0, 65, 66
2, 71228, Note_off_c, 0, 65, 64
2, 71232, Note_on_c, 0, 67, 66
2, 71420, Note_off_c, 0, 67, 64
2, 71424, Note_on_c, 0, 70, 111
2, 71708, Note_off_c, 0, 70, 64
2, 71712, Note_on_c, 0, 67, 66
2, 71756, Note_off_c, 0, 67, 64
2, 71760, Note_on_c, 0, 70, 66
2, 71804, Note_off_c, 0, 70, 64
2, 71808, Note_on_c, 0, 69, 66
2, 71996, Note_off_c, 0, 69, 64
2, 72000, Note_on_c, 0, 77, 66
2, 72188, Note_off_c, 0, 77, 64
2, 72192, Note_on_c, 0, 73, 66
2, 72236, Note_off_c, 0, 73, 64
2, 72240, Note_on_c, 0, 74, 66
2, 72284, Note_off_c, 0, 74, 64
2, 72288, Note_on_c, 0, 76, 66
2, 72332, Note_off_c, 0, 76, 64
2, 72336, Note_on_c, 0, 74, 66
2, 72380, Note_off_c, 0, 74, 64
2, 72384, Note_on_c, 0, 72, 66
2, 72428, Note_off_c, 0, 72, 64
2, 72432, Note_on_c, 0, 70, 66
2, 72476, Note_off_c, 0, 70, 64
2, 72480, Note_on_c, 0, 69, 66
2, 72524, Note_off_c, 0, 69, 64
2, 72528, Note_on_c, 0, 67, 66
2, 72572, Note_off_c, 0, 67, 64
2, 72576, Note_on_c, 0, 72, 66
2, 72668, Note_off_c, 0, 72, 64
2, 72768, Note_on_c, 0, 60, 66
2, 72860, Note_off_c, 0, 60, 64
2, 73536, Note_on_c, 0, 72, 111
2, 73580, Note_off_c, 0, 72, 64
2, 73584, Note_on_c, 0, 84, 88
2, 73724, Note_off_c, 0, 84, 64
2, 73728, Note_on_c, 0, 82, 66
2, 73728, Note_on_c, 0, 65, 66
2, 73728, Note_on_c, 0, 65, 66
2, 73820, Note_off_c, 0, 82, 64
2, 73820, Note_off_c, 0, 65, 64
2, 73824, Note_on_c, 0, 81, 66
2, 73824, Note_on_c, 0, 69, 66
2, 73916, Note_off_c, 0, 81, 64
2, 73916, Note_off_c, 0, 69, 64
2, 73920, Note_on_c, 0, 79, 66
2, 73920, Note_on_c, 0, 72, 66
2, 74012, Note_off_c, 0, 79, 64
2, 74012, Note_off_c, 0, 72, 64
2, 74016, Note_on_c, 0, 77, 66
2, 74016, Note_on_c, 0, 69, 66
2, 74108, Note_off_c, 0, 65, 64
2, 74108, Note_off_c, 0, 77, 64
2, 74108, Note_off_c, 0, 69, 64
2, 74112, Note_on_c, 0, 77, 66
2, 74112, Note_on_c, 0, 60, 66
2, 74112, Note_on_c, 0, 60, 66
2, 74204, Note_off_c, 0, 77, 64
2, 74204, Note_off_c, 0, 60, 64
2, 74208, Note_on_c, 0, 79, 69
2, 74208, Note_on_c, 0, 65, 66
2, 74228, Note_off_c, 0, 79, 64
2, 74232, Note_on_c, 0, 77, 66
2, 74256, Note_on_c, 0, 76, 66
2, 74300, Note_off_c, 0, 65, 64
2, 74300, Note_off_c, 0, 77, 64
2, 74300, Note_off_c, 0, 76, 64
2, 74304, Note_on_c, 0, 77, 66
2, 74304, Note_on_c, 0, 69, 66
2, 74348, Note_off_c, 0, 77, 64
2, 74396, Note_off_c, 0, 69, 64
2, 74400, Note_on_c, 0, 79, 66
2, 74400, Note_on_c, 0, 65, 66
2, 74444, Note_off_c, 0, 79, 64
2, 74492, Note_off_c, 0, 60, 64
2, 74492, Note_off_c, 0, 65, 64
2, 74496, Note_on_c, 0, 77, 68
2, 74496, Note_on_c, 0, 57, 68
2, 74496, Note_on_c, 0, 57, 68
2, 74588, Note_off_c, 0, 77, 64
2, 74588, Note_off_c, 0, 57, 64
2, 74592, Note_on_c, 0, 75, 73
2, 74592, Note_on_c, 0, 60, 73
2, 74684, Note_off_c, 0, 75, 64
2, 74684, Note_off_c, 0, 60, 64
2, 74688, Note_on_c, 0, 75, 79
2, 74688, Note_on_c, 0, 65, 79
2, 74780, Note_off_c, 0, 65, 64
2, 74784, Note_on_c, 0, 60, 84
2, 74876, Note_off_c, 0, 57, 64
2, 74876, Note_off_c, 0, 60, 64
2, 74880, Note_on_c, 0, 55, 90
2, 74880, Note_on_c, 0, 55, 90
2, 74972, Note_off_c, 0, 55, 64
2, 74976, Note_on_c, 0, 58, 96
2, 75068, Note_off_c, 0, 75, 64
2, 75068, Note_off_c, 0, 58, 64
2, 75072, Note_on_c, 0, 75, 101
2, 75072, Note_on_c, 0, 63, 101
2, 75164, Note_off_c, 0, 63, 64
2, 75168, Note_on_c, 0, 55, 106
2, 75260, Note_off_c, 0, 55, 64
2, 75260, Note_off_c, 0, 75, 64
2, 75260, Note_off_c, 0, 55, 64
2, 75264, Note_on_c, 0, 87, 111
2, 75308, Note_off_c, 0, 87, 64
2, 75360, Note_on_c, 0, 81, 111
2, 75548, Note_off_c, 0, 81, 64
2, 75552, Note_on_c, 0, 82, 111
2, 75644, Note_off_c, 0, 82, 64
2, 75648, Note_on_c, 0, 83, 105
2, 75692, Note_off_c, 0, 83, 64
2, 75744, Note_on_c, 0, 84, 99
2, 75932, Note_off_c, 0, 84, 64
2, 75936, Note_on_c, 0, 75, 84
2, 76028, Note_off_c, 0, 75, 64
2, 76032, Note_on_c, 0, 75, 78
2, 76052, Note_off_c, 0, 75, 64
2, 76056, Note_on_c, 0, 77, 75
2, 76076, Note_off_c, 0, 77, 64
2, 76080, Note_on_c, 0, 75, 74
2, 76100, Note_off_c, 0, 75, 64
2, 76104, Note_on_c, 0, 77, 72
2, 76124, Note_off_c, 0, 77, 64
2, 76128, Note_on_c, 0, 74, 70
2, 76220, Note_off_c, 0, 74, 64
2, 76224, Note_on_c, 0, 74, 72
2, 76316, Note_off_c, 0, 74, 64
2, 76608, Note_on_c, 0, 74, 111
2, 76652, Note_off_c, 0, 74, 64
2, 76656, Note_on_c, 0, 86, 111
2, 76796, Note_off_c, 0, 86, 64
2, 76800, Note_on_c, 0, 86, 111
2, 76988, Note_off_c, 0, 86, 64
2, 76992, Note_on_c, 0, 84, 111
2, 77036, Note_off_c, 0, 84, 64
2, 77040, Note_on_c, 0, 82, 111
2, 77084, Note_off_c, 0, 82, 64
2, 77088, Note_on_c, 0, 81, 111
2, 77132, Note_off_c, 0, 81, 64
2, 77136, Note_on_c, 0, 79, 111
2, 77180, Note_off_c, 0, 79, 64
2, 77184, Note_on_c, 0, 78, 105
2, 77276, Note_off_c, 0, 78, 64
2, 77280, Note_on_c, 0, 79, 96
2, 77372, Note_off_c, 0, 79, 64
2, 77376, Note_on_c, 0, 81, 84
2, 77468, Note_off_c, 0, 81, 64
2, 77472, Note_on_c, 0, 82, 74
2, 77516, Note_off_c, 0, 82, 64
2, 77520, Note_on_c, 0, 76, 69
2, 77564, Note_off_c, 0, 76, 64
2, 77568, Note_on_c, 0, 76, 66
2, 77588, Note_off_c, 0, 76, 64
2, 77592, Note_on_c, 0, 74, 66
2, 77612, Note_off_c, 0, 74, 64
2, 77616, Note_on_c, 0, 76, 66
2, 77636, Note_off_c, 0, 76, 64
2, 77640, Note_on_c, 0, 74, 66
2, 77660, Note_off_c, 0, 74, 64
2, 77664, Note_on_c, 0, 76, 66
2, 77684, Note_off_c, 0, 76, 64
2, 77688, Note_on_c, 0, 74, 71
2, 77756, Note_off_c, 0, 74, 64
2, 77760, Note_on_c, 0, 74, 71
2, 78140, Note_off_c, 0, 74, 64
2, 78144, Note_on_c, 0, 74, 71
2, 78332, Note_off_c, 0, 74, 64
2, 78336, Note_on_c, 0, 71, 68
2, 78380, Note_off_c, 0, 71, 64
2, 78384, Note_on_c, 0, 72, 72
2, 78428, Note_off_c, 0, 72, 64
2, 78432, Note_on_c, 0, 74, 78
2, 78476, Note_off_c, 0, 74, 64
2, 78480, Note_on_c, 0, 72, 82
2, 78524, Note_off_c, 0, 72, 64
2, 78528, Note_on_c, 0, 77, 88
2, 78620, Note_off_c, 0, 77, 64
2, 78720, Note_on_c, 0, 79, 94
2, 78764, Note_off_c, 0, 79, 64
2, 78768, Note_on_c, 0, 77, 91
2, 78812, Note_off_c, 0, 77, 64
2, 78816, Note_on_c, 0, 76, 88
2, 78860, Note_off_c, 0, 76, 64
2, 78864, Note_on_c, 0, 74, 84
2, 78908, Note_off_c, 0, 74, 64
2, 78912, Note_on_c, 0, 74, 80
2, 78956, Note_off_c, 0, 74, 64
2, 78960, Note_on_c, 0, 72, 77
2, 79004, Note_off_c, 0, 72, 64
2, 79008, Note_on_c, 0, 70, 73
2, 79052, Note_off_c, 0, 70, 64
2, 79056, Note_on_c, 0, 69, 70
2, 79100, Note_off_c, 0, 69, 64
2, 79104, Note_on_c, 0, 69, 66
2, 79148, Note_off_c, 0, 69, 64
2, 79152, Note_on_c, 0, 70, 66
2, 79196, Note_off_c, 0, 70, 64
2, 79200, Note_on_c, 0, 66, 66
2, 79244, Note_off_c, 0, 66, 64
2, 79248, Note_on_c, 0, 67, 66
2, 79292, Note_off_c, 0, 67, 64
2, 79296, Note_on_c, 0, 67, 66
2, 79488, Note_on_c, 0, 58, 66
2, 79488, Note_on_c, 0, 58, 66
2, 79580, Note_off_c, 0, 58, 64
2, 79584, Note_on_c, 0, 62, 66
2, 79676, Note_off_c, 0, 67, 64
2, 79676, Note_off_c, 0, 62, 64
2, 79680, Note_on_c, 0, 86, 66
2, 79680, Note_on_c, 0, 66, 66
2, 79772, Note_off_c, 0, 86, 64
2, 79772, Note_off_c, 0, 66, 64
2, 79776, Note_on_c, 0, 82, 66
2, 79776, Note_on_c, 0, 62, 66
2, 79868, Note_off_c, 0, 58, 64
2, 79868, Note_off_c, 0, 82, 64
2, 79868, Note_off_c, 0, 62, 64
2, 79872, Note_on_c, 0, 79, 66
2, 79872, Note_on_c, 0, 59, 66
2, 79872, Note_on_c, 0, 59, 66
2, 79964, Note_off_c, 0, 79, 64
2, 79964, Note_off_c, 0, 59, 64
2, 79968, Note_on_c, 0, 80, 66
2, 79968, Note_on_c, 0, 62, 66
2, 80060, Note_off_c, 0, 80, 64
2, 80060, Note_off_c, 0, 62, 64
2, 80064, Note_on_c, 0, 80, 66
2, 80064, Note_on_c, 0, 65, 66
2, 80156, Note_off_c, 0, 65, 64
2, 80160, Note_on_c, 0, 62, 66
2, 80252, Note_off_c, 0, 59, 64
2, 80252, Note_off_c, 0, 62, 64
2, 80256, Note_on_c, 0, 59, 72
2, 80348, Note_off_c, 0, 80, 64
2, 80348, Note_off_c, 0, 59, 64
2, 80352, Note_on_c, 0, 82, 78
2, 80352, Note_on_c, 0, 65, 78
2, 80396, Note_off_c, 0, 82, 64
2, 80400, Note_on_c, 0, 80, 81
2, 80444, Note_off_c, 0, 65, 64
2, 80444, Note_off_c, 0, 80, 64
2, 80448, Note_on_c, 0, 79, 84
2, 80448, Note_on_c, 0, 67, 84
2, 80492, Note_off_c, 0, 79, 64
2, 80528, Note_on_c, 0, 77, 89
2, 80540, Note_off_c, 0, 67, 64
2, 80544, Note_on_c, 0, 68, 90
2, 80572, Note_off_c, 0, 77, 64
2, 80636, Note_off_c, 0, 68, 64
2, 80640, Note_on_c, 0, 79, 94
2, 80640, Note_on_c, 0, 60, 94
2, 80660, Note_off_c, 0, 79, 64
2, 80660, Note_on_c, 0, 77, 93
2, 80680, Note_off_c, 0, 77, 64
2, 80684, Note_on_c, 0, 79, 92
2, 80704, Note_off_c, 0, 79, 64
2, 80704, Note_on_c, 0, 77, 91
2, 80724, Note_off_c, 0, 77, 64
2, 80732, Note_off_c, 0, 60, 64
2, 80736, Note_on_c, 0, 65, 91
2, 80736, Note_on_c, 0, 79, 90
2, 80756, Note_off_c, 0, 79, 64
2, 80760, Note_on_c, 0, 77, 90
2, 80780, Note_off_c, 0, 77, 64
2, 80784, Note_on_c, 0, 79, 89
2, 80804, Note_off_c, 0, 79, 64
2, 80808, Note_on_c, 0, 77, 88
2, 80828, Note_off_c, 0, 65, 64
2, 80828, Note_off_c, 0, 77, 64
2, 80832, Note_on_c, 0, 68, 88
2, 80832, Note_on_c, 0, 79, 86
2, 80852, Note_off_c, 0, 79, 64
2, 80856, Note_on_c, 0, 77, 86
2, 80876, Note_off_c, 0, 77, 64
2, 80880, Note_on_c, 0, 79, 85
2, 80900, Note_off_c, 0, 79, 64
2, 80904, Note_on_c, 0, 77, 85
2, 80924, Note_off_c, 0, 68, 64
2, 80924, Note_off_c, 0, 77, 64
2, 80928, Note_on_c, 0, 76, 84
2, 80928, Note_on_c, 0, 65, 84
2, 80972, Note_off_c, 0, 76, 64
2, 80976, Note_on_c, 0, 77, 82
2, 81020, Note_off_c, 0, 65, 64
2, 81020, Note_off_c, 0, 77, 64
2, 81024, Note_on_c, 0, 76, 80
2, 81024, Note_on_c, 0, 67, 80
2, 81024, Note_on_c, 0, 60, 80
2, 81212, Note_off_c, 0, 76, 64
2, 81212, Note_off_c, 0, 67, 64
2, 81212, Note_off_c, 0, 60, 64
2, 81984, Note_on_c, 0, 77, 111
2, 81984, Note_on_c, 0, 69, 111
2, 81984, Note_on_c, 0, 65, 111
2, 81984, Note_on_c, 0, 60, 111
2, 82172, Note_off_c, 0, 77, 64
2, 82172, Note_off_c, 0, 69, 64
2, 82172, Note_off_c, 0, 65, 64
2, 82172, Note_off_c, 0, 60, 64
2, 82176, Note_on_c, 0, 70, 111
2, 82176, Note_on_c, 0, 77, 111
2, 82176, Note_on_c, 0, 67, 111
2, 82176, Note_on_c, 0, 60, 111
2, 82268, Note_off_c, 0, 77, 64
2, 82272, Note_on_c, 0, 76, 111
2, 82364, Note_off_c, 0, 76, 64
2, 82368, Note_on_c, 0, 79, 111
2, 82460, Note_off_c, 0, 79, 64
2, 82464, Note_on_c, 0, 77, 111
2, 82556, Note_off_c, 0, 77, 64
2, 82560, Note_on_c, 0, 76, 111
2, 82748, Note_off_c, 0, 70, 64
2, 82748, Note_off_c, 0, 67, 64
2, 82748, Note_off_c, 0, 60, 64
2, 82748, Note_off_c, 0, 76, 64
2, 83520, Note_on_c, 0, 81, 111
2, 83520, Note_on_c, 0, 72, 111
2, 83520, Note_on_c, 0, 65, 111
2, 83520, Note_on_c, 0, 60, 111
2, 83708, Note_off_c, 0, 81, 64
2, 83708, Note_off_c, 0, 72, 64
2, 83708, Note_off_c, 0, 65, 64
2, 83708, Note_off_c, 0, 60, 64
2, 83712, Note_on_c, 0, 72, 111
2, 83712, Note_on_c, 0, 60, 111
2, 83712, Note_on_c, 0, 81, 111
2, 83712, Note_on_c, 0, 65, 111
2, 83804, Note_off_c, 0, 81, 64
2, 83804, Note_off_c, 0, 65, 64
2, 83808, Note_on_c, 0, 79, 111
2, 83808, Note_on_c, 0, 64, 111
2, 83888, Note_on_c, 0, 67, 111
2, 83900, Note_off_c, 0, 79, 64
2, 83900, Note_off_c, 0, 64, 64
2, 83904, Note_on_c, 0, 82, 111
2, 83980, Note_off_c, 0, 67, 64
2, 83996, Note_off_c, 0, 82, 64
2, 84000, Note_on_c, 0, 81, 111
2, 84000, Note_on_c, 0, 65, 111
2, 84092, Note_off_c, 0, 81, 64
2, 84092, Note_off_c, 0, 65, 64
2, 84096, Note_on_c, 0, 79, 111
2, 84096, Note_on_c, 0, 64, 111
2, 84284, Note_off_c, 0, 72, 64
2, 84284, Note_off_c, 0, 60, 64
2, 84284, Note_off_c, 0, 79, 64
2, 84284, Note_off_c, 0, 64, 64
2, 84288, Note_on_c, 0, 79, 66
2, 84288, Note_on_c, 0, 76, 66
2, 84288, Note_on_c, 0, 84, 66
2, 84428, Note_off_c, 0, 84, 64
2, 84432, Note_on_c, 0, 86, 66
2, 84476, Note_off_c, 0, 79, 64
2, 84476, Note_off_c, 0, 76, 64
2, 84476, Note_off_c, 0, 86, 64
2, 84480, Note_on_c, 0, 77, 66
2, 84480, Note_on_c, 0, 74, 66
2, 84480, Note_on_c, 0, 84, 66
2, 84572, Note_off_c, 0, 84, 64
2, 84576, Note_on_c, 0, 82, 66
2, 84668, Note_off_c, 0, 82, 64
2, 84672, Note_on_c, 0, 82, 66
2, 84812, Note_off_c, 0, 82, 64
2, 84816, Note_on_c, 0, 84, 66
2, 84860, Note_off_c, 0, 77, 64
2, 84860, Note_off_c, 0, 74, 64
2, 84860, Note_off_c, 0, 84, 64
2, 84864, Note_on_c, 0, 76, 66
2, 84864, Note_on_c, 0, 72, 66
2, 84864, Note_on_c, 0, 82, 66
2, 84956, Note_off_c, 0, 82, 64
2, 84960, Note_on_c, 0, 81, 66
2, 85052, Note_off_c, 0, 81, 64
2, 85056, Note_on_c, 0, 81, 66
2, 85196, Note_off_c, 0, 81, 64
2, 85200, Note_on_c, 0, 82, 66
2, 85244, Note_off_c, 0, 76, 64
2, 85244, Note_off_c, 0, 72, 64
2, 85244, Note_off_c, 0, 82, 64
2, 85248, Note_on_c, 0, 74, 66
2, 85248, Note_on_c, 0, 70, 66
2, 85248, Note_on_c, 0, 81, 66
2, 85340, Note_off_c, 0, 81, 64
2, 85344, Note_on_c, 0, 79, 66
2, 85436, Note_off_c, 0, 79, 64
2, 85440, Note_on_c, 0, 79, 66
2, 85580, Note_off_c, 0, 79, 64
2, 85584, Note_on_c, 0, 81, 66
2, 85628, Note_off_c, 0, 74, 64
2, 85628, Note_off_c, 0, 70, 64
2, 85628, Note_off_c, 0, 81, 64
2, 85632, Note_on_c, 0, 72, 66
2, 85632, Note_on_c, 0, 69, 66
2, 85632, Note_on_c, 0, 79, 66
2, 85724, Note_off_c, 0, 79, 64
2, 85728, Note_on_c, 0, 77, 66
2, 85820, Note_off_c, 0, 77, 64
2, 85824, Note_on_c, 0, 77, 66
2, 85964, Note_off_c, 0, 77, 64
2, 85968, Note_on_c, 0, 79, 66
2, 86012, Note_off_c, 0, 72, 64
2, 86012, Note_off_c, 0, 69, 64
2, 86012, Note_off_c, 0, 79, 64
2, 86016, Note_on_c, 0, 76, 66
2, 86016, Note_on_c, 0, 67, 66
2, 86016, Note_on_c, 0, 67, 66
2, 86060, Note_off_c, 0, 67, 64
2, 86064, Note_on_c, 0, 72, 66
2, 86108, Note_off_c, 0, 72, 64
2, 86112, Note_on_c, 0, 70, 66
2, 86156, Note_off_c, 0, 70, 64
2, 86160, Note_on_c, 0, 72, 66
2, 86204, Note_off_c, 0, 67, 64
2, 86204, Note_off_c, 0, 72, 64
2, 86208, Note_on_c, 0, 60, 66
2, 86208, Note_on_c, 0, 60, 66
2, 86252, Note_off_c, 0, 60, 64
2, 86256, Note_on_c, 0, 72, 66
2, 86300, Note_off_c, 0, 76, 64
2, 86300, Note_off_c, 0, 72, 64
2, 86304, Note_on_c, 0, 77, 66
2, 86304, Note_on_c, 0, 70, 66
2, 86348, Note_off_c, 0, 77, 64
2, 86348, Note_off_c, 0, 70, 64
2, 86352, Note_on_c, 0, 79, 66
2, 86352, Note_on_c, 0, 72, 66
2, 86396, Note_off_c, 0, 60, 64
2, 86396, Note_off_c, 0, 79, 64
2, 86396, Note_off_c, 0, 72, 64
2, 86400, Note_on_c, 0, 77, 66
2, 86400, Note_on_c, 0, 65, 66
2, 86400, Note_on_c, 0, 65, 66
2, 86444, Note_off_c, 0, 65, 64
2, 86448, Note_on_c, 0, 72, 66
2, 86492, Note_off_c, 0, 72, 64
2, 86496, Note_on_c, 0, 70, 66
2, 86540, Note_off_c, 0, 70, 64
2, 86544, Note_on_c, 0, 72, 66
2, 86588, Note_off_c, 0, 77, 64
2, 86588, Note_off_c, 0, 65, 64
2, 86588, Note_off_c, 0, 72, 64
2, 86592, Note_on_c, 0, 84, 66
2, 86592, Note_on_c, 0, 65, 66
2, 86636, Note_off_c, 0, 65, 64
2, 86640, Note_on_c, 0, 72, 66
2, 86684, Note_off_c, 0, 72, 64
2, 86688, Note_on_c, 0, 70, 66
2, 86732, Note_off_c, 0, 84, 64
2, 86732, Note_off_c, 0, 70, 64
2, 86736, Note_on_c, 0, 86, 66
2, 86736, Note_on_c, 0, 72, 66
2, 86780, Note_off_c, 0, 86, 64
2, 86780, Note_off_c, 0, 72, 64
2, 86784, Note_on_c, 0, 86, 66
2, 86784, Note_on_c, 0, 67, 66
2, 86784, Note_on_c, 0, 67, 66
2, 86828, Note_off_c, 0, 86, 64
2, 86828, Note_off_c, 0, 67, 64
2, 86832, Note_on_c, 0, 76, 66
2, 86832, Note_on_c, 0, 72, 66
2, 86876, Note_off_c, 0, 72, 64
2, 86880, Note_on_c, 0, 70, 66
2, 86924, Note_off_c, 0, 70, 64
2, 86928, Note_on_c, 0, 72, 66
2, 86972, Note_off_c, 0, 67, 64
2, 86972, Note_off_c, 0, 72, 64
2, 86976, Note_on_c, 0, 60, 66
2, 86976, Note_on_c, 0, 60, 66
2, 87020, Note_off_c, 0, 60, 64
2, 87024, Note_on_c, 0, 72, 66
2, 87068, Note_off_c, 0, 76, 64
2, 87068, Note_off_c, 0, 72, 64
2, 87072, Note_on_c, 0, 77, 66
2, 87072, Note_on_c, 0, 70, 66
2, 87116, Note_off_c, 0, 77, 64
2, 87116, Note_off_c, 0, 70, 64
2, 87120, Note_on_c, 0, 79, 66
2, 87120, Note_on_c, 0, 72, 66
2, 87164, Note_off_c, 0, 60, 64
2, 87164, Note_off_c, 0, 79, 64
2, 87164, Note_off_c, 0, 72, 64
2, 87168, Note_on_c, 0, 77, 70
2, 87168, Note_on_c, 0, 69, 70
2, 87168, Note_on_c, 0, 65, 70
2, 87212, Note_off_c, 0, 77, 64
2, 87264, Note_on_c, 0, 79, 77
2, 87264, Note_on_c, 0, 76, 77
2, 87356, Note_off_c, 0, 69, 64
2, 87356, Note_off_c, 0, 65, 64
2, 87356, Note_off_c, 0, 79, 64
2, 87356, Note_off_c, 0, 76, 64
2, 87360, Note_on_c, 0, 81, 83
2, 87360, Note_on_c, 0, 77, 83
2, 87452, Note_off_c, 0, 81, 64
2, 87452, Note_off_c, 0, 77, 64
2, 87456, Note_on_c, 0, 82, 90
2, 87456, Note_on_c, 0, 79, 90
2, 87548, Note_off_c, 0, 82, 64
2, 87548, Note_off_c, 0, 79, 64
2, 87552, Note_on_c, 0, 81, 94
2, 87552, Note_on_c, 0, 84, 94
2, 87644, Note_off_c, 0, 81, 64
2, 87648, Note_on_c, 0, 82, 88
2, 87740, Note_off_c, 0, 82, 64
2, 87744, Note_on_c, 0, 81, 80
2, 87836, Note_off_c, 0, 84, 64
2, 87836, Note_off_c, 0, 81, 64
2, 87840, Note_on_c, 0, 77, 73
2, 87840, Note_on_c, 0, 86, 73
2, 87932, Note_off_c, 0, 77, 64
2, 87932, Note_off_c, 0, 86, 64
2, 87936, Note_on_c, 0, 77, 66
2, 87936, Note_on_c, 0, 69, 66
2, 88124, Note_off_c, 0, 77, 64
2, 88124, Note_off_c, 0, 69, 64
2, 88128, Note_on_c, 0, 76, 66
2, 88128, Note_on_c, 0, 67, 66
2, 88316, Note_off_c, 0, 76, 64
2, 88316, Note_off_c, 0, 67, 64
2, 88320, Note_on_c, 0, 75, 122
2, 88320, Note_on_c, 0, 72, 122
2, 88320, Note_on_c, 0, 65, 122
2, 88508, Note_off_c, 0, 75, 64
2, 88508, Note_off_c, 0, 72, 64
2, 88508, Note_off_c, 0, 65, 64
2, 88512, Note_on_c, 0, 74, 111
2, 88512, Note_on_c, 0, 70, 111
2, 88512, Note_on_c, 0, 65, 111
2, 88700, Note_off_c, 0, 74, 64
2, 88700, Note_off_c, 0, 70, 64
2, 88700, Note_off_c, 0, 65, 64
2, 88800, Note_on_c, 0, 79, 66
2, 88892, Note_off_c, 0, 79, 64
2, 88896, Note_on_c, 0, 81, 77
2, 88988, Note_off_c, 0, 81, 64
2, 88992, Note_on_c, 0, 82, 88
2, 89084, Note_off_c, 0, 82, 64
2, 89088, Note_on_c, 0, 84, 94
2, 89088, Note_on_c, 0, 84, 94
2, 89180, Note_off_c, 0, 84, 64
2, 89184, Note_on_c, 0, 82, 94
2, 89276, Note_off_c, 0, 82, 64
2, 89280, Note_on_c, 0, 81, 94
2, 89372, Note_off_c, 0, 84, 64
2, 89372, Note_off_c, 0, 81, 64
2, 89376, Note_on_c, 0, 77, 88
2, 89376, Note_on_c, 0, 86, 88
2, 89468, Note_off_c, 0, 77, 64
2, 89468, Note_off_c, 0, 86, 64
2, 89472, Note_on_c, 0, 77, 82
2, 89472, Note_on_c, 0, 69, 82
2, 89564, Note_off_c, 0, 77, 64
2, 89564, Note_off_c, 0, 69, 64
2, 89568, Note_on_c, 0, 81, 74
2, 89568, Note_on_c, 0, 72, 74
2, 89660, Note_off_c, 0, 81, 64
2, 89660, Note_off_c, 0, 72, 64
2, 89664, Note_on_c, 0, 79, 69
2, 89664, Note_on_c, 0, 70, 69
2, 89756, Note_off_c, 0, 79, 64
2, 89756, Note_off_c, 0, 70, 64
2, 89760, Note_on_c, 0, 76, 66
2, 89760, Note_on_c, 0, 67, 66
2, 89852, Note_off_c, 0, 76, 64
2, 89852, Note_off_c, 0, 67, 64
2, 89856, Note_on_c, 0, 77, 66
2, 89856, Note_on_c, 0, 69, 66
2, 89900, Note_off_c, 0, 77, 64
2, 89900, Note_off_c, 0, 69, 64
2, 89904, Note_on_c, 0, 84, 66
2, 89948, Note_off_c, 0, 84, 64
2, 89952, Note_on_c, 0, 83, 66
2, 89996, Note_off_c, 0, 83, 64
2, 90000, Note_on_c, 0, 84, 66
2, 90044, Note_off_c, 0, 84, 64
2, 90048, Note_on_c, 0, 83, 66
2, 90048, Note_on_c, 0, 69, 66
2, 90092, Note_off_c, 0, 83, 64
2, 90096, Note_on_c, 0, 84, 66
2, 90140, Note_off_c, 0, 69, 64
2, 90140, Note_off_c, 0, 84, 64
2, 90144, Note_on_c, 0, 86, 66
2, 90188, Note_off_c, 0, 86, 64
2, 90192, Note_on_c, 0, 84, 66
2, 90236, Note_off_c, 0, 84, 64
2, 90240, Note_on_c, 0, 83, 66
2, 90240, Note_on_c, 0, 67, 66
2, 90284, Note_off_c, 0, 83, 64
2, 90288, Note_on_c, 0, 82, 66
2, 90332, Note_off_c, 0, 67, 64
2, 90332, Note_off_c, 0, 82, 64
2, 90336, Note_on_c, 0, 81, 66
2, 90380, Note_off_c, 0, 81, 64
2, 90384, Note_on_c, 0, 82, 66
2, 90428, Note_off_c, 0, 82, 64
2, 90432, Note_on_c, 0, 81, 66
2, 90432, Note_on_c, 0, 64, 66
2, 90476, Note_off_c, 0, 81, 64
2, 90480, Note_on_c, 0, 82, 66
2, 90524, Note_off_c, 0, 64, 64
2, 90524, Note_off_c, 0, 82, 64
2, 90528, Note_on_c, 0, 84, 66
2, 90572, Note_off_c, 0, 84, 64
2, 90576, Note_on_c, 0, 82, 66
2, 90620, Note_off_c, 0, 82, 64
2, 90624, Note_on_c, 0, 81, 66
2, 90624, Note_on_c, 0, 65, 66
2, 90668, Note_off_c, 0, 81, 64
2, 90672, Note_on_c, 0, 72, 66
2, 90716, Note_off_c, 0, 72, 64
2, 90720, Note_on_c, 0, 71, 66
2, 90764, Note_off_c, 0, 71, 64
2, 90768, Note_on_c, 0, 72, 66
2, 90812, Note_off_c, 0, 65, 64
2, 90812, Note_off_c, 0, 72, 64
2, 90816, Note_on_c, 0, 71, 66
2, 90860, Note_off_c, 0, 71, 64
2, 90864, Note_on_c, 0, 72, 66
2, 90908, Note_off_c, 0, 72, 64
2, 90912, Note_on_c, 0, 74, 66
2, 90956, Note_off_c, 0, 74, 64
2, 90960, Note_on_c, 0, 72, 66
2, 91004, Note_off_c, 0, 72, 64
2, 91008, Note_on_c, 0, 71, 66
2, 91052, Note_off_c, 0, 71, 64
2, 91056, Note_on_c, 0, 70, 66
2, 91100, Note_off_c, 0, 70, 64
2, 91104, Note_on_c, 0, 69, 66
2, 91148, Note_off_c, 0, 69, 64
2, 91152, Note_on_c, 0, 70, 66
2, 91196, Note_off_c, 0, 70, 64
2, 91200, Note_on_c, 0, 69, 66
2, 91244, Note_off_c, 0, 69, 64
2, 91248, Note_on_c, 0, 70, 66
2, 91292, Note_off_c, 0, 70, 64
2, 91296, Note_on_c, 0, 72, 66
2, 91340, Note_off_c, 0, 72, 64
2, 91344, Note_on_c, 0, 70, 66
2, 91388, Note_off_c, 0, 70, 64
2, 91392, Note_on_c, 0, 69, 66
2, 91436, Note_off_c, 0, 69, 64
2, 91440, Note_on_c, 0, 77, 66
2, 91484, Note_off_c, 0, 77, 64
2, 91488, Note_on_c, 0, 76, 66
2, 91532, Note_off_c, 0, 76, 64
2, 91536, Note_on_c, 0, 77, 66
2, 91580, Note_off_c, 0, 77, 64
2, 91584, Note_on_c, 0, 76, 66
2, 91584, Note_on_c, 0, 69, 66
2, 91584, Note_on_c, 0, 65, 66
2, 91628, Note_off_c, 0, 76, 64
2, 91632, Note_on_c, 0, 77, 66
2, 91676, Note_off_c, 0, 77, 64
2, 91680, Note_on_c, 0, 79, 66
2, 91724, Note_off_c, 0, 79, 64
2, 91728, Note_on_c, 0, 77, 66
2, 91772, Note_off_c, 0, 69, 64
2, 91772, Note_off_c, 0, 77, 64
2, 91776, Note_on_c, 0, 76, 67
2, 91776, Note_on_c, 0, 70, 67
2, 91820, Note_off_c, 0, 76, 64
2, 91824, Note_on_c, 0, 75, 68
2, 91868, Note_off_c, 0, 75, 64
2, 91872, Note_on_c, 0, 74, 70
2, 91916, Note_off_c, 0, 74, 64
2, 91920, Note_on_c, 0, 75, 72
2, 91964, Note_off_c, 0, 65, 64
2, 91964, Note_off_c, 0, 70, 64
2, 91964, Note_off_c, 0, 75, 64
2, 91968, Note_on_c, 0, 74, 73
2, 91968, Note_on_c, 0, 72, 73
2, 91968, Note_on_c, 0, 69, 73
2, 91968, Note_on_c, 0, 65, 73
2, 92012, Note_off_c, 0, 74, 64
2, 92016, Note_on_c, 0, 75, 75
2, 92060, Note_off_c, 0, 75, 64
2, 92064, Note_on_c, 0, 77, 78
2, 92108, Note_off_c, 0, 77, 64
2, 92112, Note_on_c, 0, 75, 80
2, 92156, Note_off_c, 0, 72, 64
2, 92156, Note_off_c, 0, 69, 64
2, 92156, Note_off_c, 0, 65, 64
2, 92156, Note_off_c, 0, 75, 64
2, 92160, Note_on_c, 0, 73, 81
2, 92160, Note_on_c, 0, 58, 81
2, 92252, Note_off_c, 0, 73, 64
2, 92252, Note_off_c, 0, 58, 64
2, 92256, Note_on_c, 0, 74, 85
2, 92256, Note_on_c, 0, 62, 85
2, 92348, Note_off_c, 0, 74, 64
2, 92348, Note_off_c, 0, 62, 64
2, 92352, Note_on_c, 0, 86, 89
2, 92352, Note_on_c, 0, 65, 89
2, 92444, Note_off_c, 0, 65, 64
2, 92448, Note_on_c, 0, 62, 93
2, 92528, Note_on_c, 0, 88, 96
2, 92540, Note_off_c, 0, 86, 64
2, 92540, Note_off_c, 0, 62, 64
2, 92544, Note_on_c, 0, 86, 96
2, 92544, Note_on_c, 0, 59, 96
2, 92572, Note_off_c, 0, 88, 64
2, 92588, Note_off_c, 0, 86, 64
2, 92592, Note_on_c, 0, 86, 99
2, 92592, Note_on_c, 0, 85, 99
2, 92636, Note_off_c, 0, 59, 64
2, 92636, Note_off_c, 0, 86, 64
2, 92636, Note_off_c, 0, 85, 64
2, 92640, Note_on_c, 0, 86, 100
2, 92640, Note_on_c, 0, 62, 100
2, 92732, Note_off_c, 0, 86, 64
2, 92732, Note_off_c, 0, 62, 64
2, 92736, Note_on_c, 0, 88, 104
2, 92736, Note_on_c, 0, 65, 104
2, 92828, Note_off_c, 0, 88, 64
2, 92828, Note_off_c, 0, 65, 64
2, 92832, Note_on_c, 0, 89, 107
2, 92832, Note_on_c, 0, 62, 107
2, 92924, Note_off_c, 0, 89, 64
2, 92924, Note_off_c, 0, 62, 64
2, 92928, Note_on_c, 0, 60, 111
2, 92928, Note_on_c, 0, 89, 111
2, 92972, Note_off_c, 0, 60, 64
2, 92976, Note_on_c, 0, 65, 111
2, 93020, Note_off_c, 0, 89, 64
2, 93020, Note_off_c, 0, 65, 64
2, 93024, Note_on_c, 0, 69, 111
2, 93024, Note_on_c, 0, 84, 111
2, 93068, Note_off_c, 0, 69, 64
2, 93072, Note_on_c, 0, 65, 111
2, 93116, Note_off_c, 0, 84, 64
2, 93116, Note_off_c, 0, 65, 64
2, 93120, Note_on_c, 0, 60, 111
2, 93120, Note_on_c, 0, 84, 111
2, 93164, Note_off_c, 0, 60, 64
2, 93168, Note_on_c, 0, 65, 111
2, 93212, Note_off_c, 0, 84, 64
2, 93212, Note_off_c, 0, 65, 64
2, 93216, Note_on_c, 0, 69, 111
2, 93260, Note_off_c, 0, 69, 64
2, 93264, Note_on_c, 0, 65, 111
2, 93308, Note_off_c, 0, 65, 64
2, 93312, Note_on_c, 0, 60, 111
2, 93312, Note_on_c, 0, 83, 111
2, 93356, Note_off_c, 0, 60, 64
2, 93356, Note_off_c, 0, 83, 64
2, 93360, Note_on_c, 0, 65, 111
2, 93360, Note_on_c, 0, 84, 111
2, 93404, Note_off_c, 0, 65, 64
2, 93404, Note_off_c, 0, 84, 64
2, 93408, Note_on_c, 0, 69, 111
2, 93408, Note_on_c, 0, 86, 111
2, 93452, Note_off_c, 0, 69, 64
2, 93452, Note_off_c, 0, 86, 64
2, 93456, Note_on_c, 0, 65, 111
2, 93456, Note_on_c, 0, 84, 111
2, 93500, Note_off_c, 0, 65, 64
2, 93500, Note_off_c, 0, 84, 64
2, 93504, Note_on_c, 0, 60, 111
2, 93520, Note_on_c, 0, 82, 111
2, 93548, Note_off_c, 0, 60, 64
2, 93552, Note_on_c, 0, 65, 111
2, 93552, Note_on_c, 0, 81, 111
2, 93564, Note_off_c, 0, 82, 64
2, 93596, Note_off_c, 0, 65, 64
2, 93596, Note_off_c, 0, 81, 64
2, 93600, Note_on_c, 0, 69, 111
2, 93600, Note_on_c, 0, 79, 111
2, 93644, Note_off_c, 0, 69, 64
2, 93644, Note_off_c, 0, 79, 64
2, 93648, Note_on_c, 0, 65, 111
2, 93648, Note_on_c, 0, 77, 111
2, 93692, Note_off_c, 0, 65, 64
2, 93692, Note_off_c, 0, 77, 64
2, 93696, Note_on_c, 0, 60, 112
2, 93696, Note_on_c, 0, 79, 112
2, 93696, Note_on_c, 0, 60, 112
2, 93716, Note_off_c, 0, 79, 64
2, 93720, Note_on_c, 0, 81, 112
2, 93740, Note_off_c, 0, 60, 64
2, 93740, Note_off_c, 0, 81, 64
2, 93744, Note_on_c, 0, 64, 112
2, 93744, Note_on_c, 0, 79, 112
2, 93764, Note_off_c, 0, 79, 64
2, 93768, Note_on_c, 0, 81, 112
2, 93788, Note_off_c, 0, 64, 64
2, 93788, Note_off_c, 0, 81, 64
2, 93792, Note_on_c, 0, 70, 112
2, 93792, Note_on_c, 0, 79, 112
2, 93812, Note_off_c, 0, 79, 64
2, 93816, Note_on_c, 0, 81, 113
2, 93836, Note_off_c, 0, 70, 64
2, 93836, Note_off_c, 0, 81, 64
2, 93840, Note_on_c, 0, 64, 113
2, 93840, Note_on_c, 0, 79, 113
2, 93860, Note_off_c, 0, 79, 64
2, 93864, Note_on_c, 0, 81, 113
2, 93884, Note_off_c, 0, 64, 64
2, 93884, Note_off_c, 0, 81, 64
2, 93888, Note_on_c, 0, 60, 114
2, 93888, Note_on_c, 0, 79, 114
2, 93908, Note_off_c, 0, 79, 64
2, 93912, Note_on_c, 0, 81, 114
2, 93932, Note_off_c, 0, 60, 64
2, 93932, Note_off_c, 0, 81, 64
2, 93936, Note_on_c, 0, 64, 115
2, 93936, Note_on_c, 0, 79, 115
2, 93956, Note_off_c, 0, 79, 64
2, 93960, Note_on_c, 0, 81, 115
2, 93980, Note_off_c, 0, 64, 64
2, 93980, Note_off_c, 0, 81, 64
2, 93984, Note_on_c, 0, 70, 115
2, 93984, Note_on_c, 0, 79, 115
2, 94004, Note_off_c, 0, 79, 64
2, 94008, Note_on_c, 0, 81, 116
2, 94028, Note_off_c, 0, 70, 64
2, 94028, Note_off_c, 0, 81, 64
2, 94032, Note_on_c, 0, 64, 116
2, 94032, Note_on_c, 0, 79, 116
2, 94052, Note_off_c, 0, 79, 64
2, 94056, Note_on_c, 0, 81, 118
2, 94076, Note_off_c, 0, 64, 64
2, 94076, Note_off_c, 0, 81, 64
2, 94080, Note_on_c, 0, 60, 118
2, 94080, Note_on_c, 0, 79, 118
2, 94100, Note_off_c, 0, 79, 64
2, 94104, Note_on_c, 0, 81, 118
2, 94124, Note_off_c, 0, 60, 64
2, 94124, Note_off_c, 0, 81, 64
2, 94128, Note_on_c, 0, 64, 119
2, 94128, Note_on_c, 0, 79, 119
2, 94148, Note_off_c, 0, 79, 64
2, 94152, Note_on_c, 0, 81, 119
2, 94172, Note_off_c, 0, 64, 64
2, 94172, Note_off_c, 0, 81, 64
2, 94176, Note_on_c, 0, 70, 121
2, 94176, Note_on_c, 0, 79, 121
2, 94196, Note_off_c, 0, 79, 64
2, 94200, Note_on_c, 0, 81, 121
2, 94220, Note_off_c, 0, 70, 64
2, 94220, Note_off_c, 0, 81, 64
2, 94224, Note_on_c, 0, 64, 121
2, 94224, Note_on_c, 0, 79, 121
2, 94244, Note_off_c, 0, 79, 64
2, 94248, Note_on_c, 0, 81, 121
2, 94268, Note_off_c, 0, 60, 64
2, 94268, Note_off_c, 0, 64, 64
2, 94268, Note_off_c, 0, 81, 64
2, 94272, Note_on_c, 0, 60, 121
2, 94272, Note_on_c, 0, 79, 121
2, 94292, Note_off_c, 0, 79, 64
2, 94296, Note_on_c, 0, 81, 122
2, 94316, Note_off_c, 0, 60, 64
2, 94316, Note_off_c, 0, 81, 64
2, 94320, Note_on_c, 0, 64, 122
2, 94320, Note_on_c, 0, 79, 122
2, 94340, Note_off_c, 0, 79, 64
2, 94344, Note_on_c, 0, 81, 122
2, 94364, Note_off_c, 0, 64, 64
2, 94364, Note_off_c, 0, 81, 64
2, 94368, Note_on_c, 0, 70, 122
2, 94368, Note_on_c, 0, 77, 122
2, 94412, Note_off_c, 0, 70, 64
2, 94412, Note_off_c, 0, 77, 64
2, 94416, Note_on_c, 0, 64, 122
2, 94416, Note_on_c, 0, 79, 122
2, 94460, Note_off_c, 0, 64, 64
2, 94460, Note_off_c, 0, 79, 64
2, 94464, Note_on_c, 0, 69, 111
2, 94464, Note_on_c, 0, 65, 111
2, 94464, Note_on_c, 0, 77, 111
2, 94844, Note_off_c, 0, 69, 64
2, 94844, Note_off_c, 0, 65, 64
2, 94844, Note_off_c, 0, 77, 64
2, 97536, Note_on_c, 0, 69, 111
2, 97536, Note_on_c, 0, 65, 111
2, 97916, Note_off_c, 0, 69, 64
2, 97916, Note_off_c, 0, 65, 64
2, 98112, Note_on_c, 0, 60, 111
2, 98252, Note_off_c, 0, 60, 64
2, 98256, Note_on_c, 0, 58, 111
2, 98300, Note_off_c, 0, 58, 64
2, 98304, Note_on_c, 0, 57, 111
2, 98396, Note_off_c, 0, 57, 64
2, 98400, Note_on_c, 0, 60, 111
2, 98492, Note_off_c, 0, 60, 64
2, 98496, Note_on_c, 0, 65, 111
2, 98588, Note_off_c, 0, 65, 64
2, 98592, Note_on_c, 0, 69, 111
2, 98684, Note_off_c, 0, 69, 64
2, 98688, Note_on_c, 0, 72, 111
2, 98780, Note_off_c, 0, 72, 64
2, 98880, Note_on_c, 0, 77, 111
2, 98880, Note_on_c, 0, 69, 111
2, 99068, Note_off_c, 0, 77, 64
2, 99068, Note_off_c, 0, 69, 64
2, 99072, Note_on_c, 0, 70, 111
2, 99072, Note_on_c, 0, 77, 111
2, 99164, Note_off_c, 0, 77, 64
2, 99168, Note_on_c, 0, 76, 111
2, 99260, Note_off_c, 0, 76, 64
2, 99264, Note_on_c, 0, 79, 111
2, 99356, Note_off_c, 0, 79, 64
2, 99360, Note_on_c, 0, 77, 111
2, 99452, Note_off_c, 0, 77, 64
2, 99456, Note_on_c, 0, 76, 111
2, 99644, Note_off_c, 0, 70, 64
2, 99644, Note_off_c, 0, 76, 64
2, 99648, Note_on_c, 0, 60, 111
2, 99788, Note_off_c, 0, 60, 64
2, 99792, Note_on_c, 0, 58, 111
2, 99836, Note_off_c, 0, 58, 64
2, 99840, Note_on_c, 0, 57, 111
2, 99932, Note_off_c, 0, 57, 64
2, 99936, Note_on_c, 0, 60, 111
2, 100028, Note_off_c, 0, 60, 64
2, 100032, Note_on_c, 0, 65, 111
2, 100124, Note_off_c, 0, 65, 64
2, 100128, Note_on_c, 0, 69, 111
2, 100220, Note_off_c, 0, 69, 64
2, 100224, Note_on_c, 0, 72, 111
2, 100316, Note_off_c, 0, 72, 64
2, 100416, Note_on_c, 0, 81, 111
2, 100416, Note_on_c, 0, 72, 111
2, 100604, Note_off_c, 0, 81, 64
2, 100604, Note_off_c, 0, 72, 64
2, 100608, Note_on_c, 0, 72, 111
2, 100608, Note_on_c, 0, 60, 111
2, 100608, Note_on_c, 0, 81, 111
2, 100608, Note_on_c, 0, 65, 111
2, 100700, Note_off_c, 0, 81, 64
2, 100700, Note_off_c, 0, 65, 64
2, 100704, Note_on_c, 0, 79, 111
2, 100704, Note_on_c, 0, 64, 111
2, 100784, Note_on_c, 0, 67, 111
2, 100796, Note_off_c, 0, 79, 64
2, 100796, Note_off_c, 0, 64, 64
2, 100800, Note_on_c, 0, 82, 111
2, 100876, Note_off_c, 0, 67, 64
2, 100892, Note_off_c, 0, 82, 64
2, 100896, Note_on_c, 0, 81, 111
2, 100896, Note_on_c, 0, 65, 111
2, 100988, Note_off_c, 0, 81, 64
2, 100988, Note_off_c, 0, 65, 64
2, 100992, Note_on_c, 0, 79, 111
2, 100992, Note_on_c, 0, 64, 111
2, 101180, Note_off_c, 0, 72, 64
2, 101180, Note_off_c, 0, 60, 64
2, 101180, Note_off_c, 0, 79, 64
2, 101180, Note_off_c, 0, 64, 64
2, 101184, Note_on_c, 0, 79, 66
2, 101184, Note_on_c, 0, 76, 66
2, 101184, Note_on_c, 0, 84, 66
2, 101324, Note_off_c, 0, 84, 64
2, 101328, Note_on_c, 0, 86, 66
2, 101372, Note_off_c, 0, 79, 64
2, 101372, Note_off_c, 0, 76, 64
2, 101372, Note_off_c, 0, 86, 64
2, 101376, Note_on_c, 0, 77, 66
2, 101376, Note_on_c, 0, 74, 66
2, 101376, Note_on_c, 0, 84, 66
2, 101468, Note_off_c, 0, 84, 64
2, 101472, Note_on_c, 0, 82, 66
2, 101564, Note_off_c, 0, 82, 64
2, 101568, Note_on_c, 0, 82, 66
2, 101708, Note_off_c, 0, 82, 64
2, 101712, Note_on_c, 0, 84, 66
2, 101756, Note_off_c, 0, 77, 64
2, 101756, Note_off_c, 0, 74, 64
2, 101756, Note_off_c, 0, 84, 64
2, 101760, Note_on_c, 0, 76, 66
2, 101760, Note_on_c, 0, 72, 66
2, 101760, Note_on_c, 0, 82, 66
2, 101852, Note_off_c, 0, 82, 64
2, 101856, Note_on_c, 0, 81, 66
2, 101948, Note_off_c, 0, 81, 64
2, 101952, Note_on_c, 0, 81, 66
2, 102092, Note_off_c, 0, 81, 64
2, 102096, Note_on_c, 0, 82, 66
2, 102140, Note_off_c, 0, 76, 64
2, 102140, Note_off_c, 0, 72, 64
2, 102140, Note_off_c, 0, 82, 64
2, 102144, Note_on_c, 0, 74, 66
2, 102144, Note_on_c, 0, 70, 66
2, 102144, Note_on_c, 0, 81, 66
2, 102236, Note_off_c, 0, 81, 64
2, 102240, Note_on_c, 0, 79, 66
2, 102332, Note_off_c, 0, 79, 64
2, 102336, Note_on_c, 0, 79, 66
2, 102476, Note_off_c, 0, 79, 64
2, 102480, Note_on_c, 0, 81, 66
2, 102524, Note_off_c, 0, 74, 64
2, 102524, Note_off_c, 0, 70, 64
2, 102524, Note_off_c, 0, 81, 64
2, 102528, Note_on_c, 0, 72, 66
2, 102528, Note_on_c, 0, 69, 66
2, 102528, Note_on_c, 0, 79, 66
2, 102620, Note_off_c, 0, 79, 64
2, 102624, Note_on_c, 0, 77, 66
2, 102716, Note_off_c, 0, 77, 64
2, 102720, Note_on_c, 0, 77, 66
2, 102860, Note_off_c, 0, 77, 64
2, 102864, Note_on_c, 0, 79, 66
2, 102908, Note_off_c, 0, 72, 64
2, 102908, Note_off_c, 0, 69, 64
2, 102908, Note_off_c, 0, 79, 64
2, 102912, Note_on_c, 0, 76, 66
2, 102912, Note_on_c, 0, 67, 66
2, 102912, Note_on_c, 0, 67, 66
2, 102912, Note_on_c, 0, 70, 66
2, 102956, Note_off_c, 0, 67, 64
2, 102956, Note_off_c, 0, 70, 64
2, 102960, Note_on_c, 0, 72, 66
2, 103004, Note_off_c, 0, 72, 64
2, 103008, Note_on_c, 0, 70, 66
2, 103052, Note_off_c, 0, 70, 64
2, 103056, Note_on_c, 0, 72, 66
2, 103100, Note_off_c, 0, 67, 64
2, 103100, Note_off_c, 0, 72, 64
2, 103104, Note_on_c, 0, 60, 66
2, 103104, Note_on_c, 0, 60, 66
2, 103148, Note_off_c, 0, 60, 64
2, 103152, Note_on_c, 0, 72, 66
2, 103196, Note_off_c, 0, 76, 64
2, 103196, Note_off_c, 0, 72, 64
2, 103200, Note_on_c, 0, 77, 66
2, 103200, Note_on_c, 0, 70, 66
2, 103244, Note_off_c, 0, 77, 64
2, 103244, Note_off_c, 0, 70, 64
2, 103248, Note_on_c, 0, 79, 66
2, 103248, Note_on_c, 0, 72, 66
2, 103292, Note_off_c, 0, 60, 64
2, 103292, Note_off_c, 0, 79, 64
2, 103292, Note_off_c, 0, 72, 64
2, 103296, Note_on_c, 0, 77, 66
2, 103296, Note_on_c, 0, 65, 66
2, 103296, Note_on_c, 0, 65, 66
2, 103296, Note_on_c, 0, 69, 66
2, 103340, Note_off_c, 0, 65, 64
2, 103340, Note_off_c, 0, 69, 64
2, 103344, Note_on_c, 0, 72, 66
2, 103388, Note_off_c, 0, 72, 64
2, 103392, Note_on_c, 0, 70, 66
2, 103436, Note_off_c, 0, 70, 64
2, 103440, Note_on_c, 0, 72, 66
2, 103484, Note_off_c, 0, 77, 64
2, 103484, Note_off_c, 0, 65, 64
2, 103484, Note_off_c, 0, 72, 64
2, 103488, Note_on_c, 0, 84, 66
2, 103488, Note_on_c, 0, 65, 66
2, 103532, Note_off_c, 0, 65, 64
2, 103536, Note_on_c, 0, 72, 66
2, 103580, Note_off_c, 0, 72, 64
2, 103584, Note_on_c, 0, 70, 66
2, 103628, Note_off_c, 0, 84, 64
2, 103628, Note_off_c, 0, 70, 64
2, 103632, Note_on_c, 0, 86, 66
2, 103632, Note_on_c, 0, 72, 66
2, 103676, Note_off_c, 0, 86, 64
2, 103676, Note_off_c, 0, 72, 64
2, 103680, Note_on_c, 0, 86, 66
2, 103680, Note_on_c, 0, 67, 66
2, 103680, Note_on_c, 0, 67, 66
2, 103680, Note_on_c, 0, 82, 66
2, 103724, Note_off_c, 0, 86, 64
2, 103724, Note_off_c, 0, 67, 64
2, 103724, Note_off_c, 0, 82, 64
2, 103728, Note_on_c, 0, 76, 66
2, 103728, Note_on_c, 0, 72, 66
2, 103772, Note_off_c, 0, 72, 64
2, 103776, Note_on_c, 0, 70, 66
2, 103820, Note_off_c, 0, 70, 64
2, 103824, Note_on_c, 0, 72, 66
2, 103868, Note_off_c, 0, 67, 64
2, 103868, Note_off_c, 0, 72, 64
2, 103872, Note_on_c, 0, 60, 66
2, 103872, Note_on_c, 0, 60, 66
2, 103916, Note_off_c, 0, 60, 64
2, 103920, Note_on_c, 0, 72, 66
2, 103964, Note_off_c, 0, 76, 64
2, 103964, Note_off_c, 0, 72, 64
2, 103968, Note_on_c, 0, 77, 66
2, 103968, Note_on_c, 0, 70, 66
2, 104012, Note_off_c, 0, 77, 64
2, 104012, Note_off_c, 0, 70, 64
2, 104016, Note_on_c, 0, 79, 66
2, 104016, Note_on_c, 0, 72, 66
2, 104060, Note_off_c, 0, 60, 64
2, 104060, Note_off_c, 0, 79, 64
2, 104060, Note_off_c, 0, 72, 64
2, 104064, Note_on_c, 0, 77, 70
2, 104064, Note_on_c, 0, 69, 70
2, 104064, Note_on_c, 0, 65, 70
2, 104064, Note_on_c, 0, 81, 70
2, 104108, Note_off_c, 0, 77, 64
2, 104108, Note_off_c, 0, 81, 64
2, 104160, Note_on_c, 0, 79, 77
2, 104160, Note_on_c, 0, 76, 77
2, 104252, Note_off_c, 0, 69, 64
2, 104252, Note_off_c, 0, 65, 64
2, 104252, Note_off_c, 0, 79, 64
2, 104252, Note_off_c, 0, 76, 64
2, 104256, Note_on_c, 0, 81, 84
2, 104256, Note_on_c, 0, 77, 84
2, 104348, Note_off_c, 0, 81, 64
2, 104348, Note_off_c, 0, 77, 64
2, 104352, Note_on_c, 0, 82, 92
2, 104352, Note_on_c, 0, 79, 92
2, 104444, Note_off_c, 0, 82, 64
2, 104444, Note_off_c, 0, 79, 64
2, 104448, Note_on_c, 0, 81, 94
2, 104448, Note_on_c, 0, 84, 94
2, 104540, Note_off_c, 0, 81, 64
2, 104544, Note_on_c, 0, 82, 88
2, 104636, Note_off_c, 0, 82, 64
2, 104640, Note_on_c, 0, 81, 80
2, 104732, Note_off_c, 0, 84, 64
2, 104732, Note_off_c, 0, 81, 64
2, 104736, Note_on_c, 0, 77, 73
2, 104736, Note_on_c, 0, 86, 73
2, 104828, Note_off_c, 0, 77, 64
2, 104828, Note_off_c, 0, 86, 64
2, 104832, Note_on_c, 0, 77, 66
2, 104832, Note_on_c, 0, 69, 66
2, 105020, Note_off_c, 0, 77, 64
2, 105020, Note_off_c, 0, 69, 64
2, 105024, Note_on_c, 0, 76, 66
2, 105024, Note_on_c, 0, 67, 66
2, 105212, Note_off_c, 0, 76, 64
2, 105212, Note_off_c, 0, 67, 64
2, 105216, Note_on_c, 0, 75, 122
2, 105216, Note_on_c, 0, 72, 122
2, 105216, Note_on_c, 0, 65, 122
2, 105216, Note_on_c, 0, 63, 122
2, 105216, Note_on_c, 0, 60, 122
2, 105404, Note_off_c, 0, 75, 64
2, 105404, Note_off_c, 0, 72, 64
2, 105404, Note_off_c, 0, 65, 64
2, 105404, Note_off_c, 0, 63, 64
2, 105404, Note_off_c, 0, 60, 64
2, 105408, Note_on_c, 0, 74, 111
2, 105408, Note_on_c, 0, 70, 111
2, 105408, Note_on_c, 0, 65, 111
2, 105596, Note_off_c, 0, 74, 64
2, 105596, Note_off_c, 0, 70, 64
2, 105596, Note_off_c, 0, 65, 64
2, 105696, Note_on_c, 0, 79, 66
2, 105788, Note_off_c, 0, 79, 64
2, 105792, Note_on_c, 0, 81, 77
2, 105884, Note_off_c, 0, 81, 64
2, 105888, Note_on_c, 0, 82, 88
2, 105980, Note_off_c, 0, 82, 64
2, 105984, Note_on_c, 0, 84, 94
2, 105984, Note_on_c, 0, 84, 94
2, 106076, Note_off_c, 0, 84, 64
2, 106080, Note_on_c, 0, 82, 94
2, 106172, Note_off_c, 0, 82, 64
2, 106176, Note_on_c, 0, 81, 94
2, 106268, Note_off_c, 0, 84, 64
2, 106268, Note_off_c, 0, 81, 64
2, 106272, Note_on_c, 0, 77, 91
2, 106272, Note_on_c, 0, 86, 91
2, 106364, Note_off_c, 0, 77, 64
2, 106364, Note_off_c, 0, 86, 64
2, 106368, Note_on_c, 0, 77, 84
2, 106368, Note_on_c, 0, 69, 84
2, 106460, Note_off_c, 0, 77, 64
2, 106460, Note_off_c, 0, 69, 64
2, 106464, Note_on_c, 0, 81, 78
2, 106464, Note_on_c, 0, 72, 78
2, 106556, Note_off_c, 0, 81, 64
2, 106556, Note_off_c, 0, 72, 64
2, 106560, Note_on_c, 0, 79, 71
2, 106560, Note_on_c, 0, 70, 71
2, 106652, Note_off_c, 0, 79, 64
2, 106652, Note_off_c, 0, 70, 64
2, 106656, Note_on_c, 0, 76, 68
2, 106656, Note_on_c, 0, 67, 68
2, 106748, Note_off_c, 0, 76, 64
2, 106748, Note_off_c, 0, 67, 64
2, 106752, Note_on_c, 0, 77, 66
2, 106752, Note_on_c, 0, 69, 66
2, 106752, Note_on_c, 0, 72, 66
2, 106796, Note_off_c, 0, 77, 64
2, 106796, Note_off_c, 0, 69, 64
2, 106796, Note_off_c, 0, 72, 64
2, 106800, Note_on_c, 0, 84, 66
2, 106844, Note_off_c, 0, 84, 64
2, 106848, Note_on_c, 0, 83, 66
2, 106892, Note_off_c, 0, 83, 64
2, 106896, Note_on_c, 0, 84, 66
2, 106940, Note_off_c, 0, 84, 64
2, 106944, Note_on_c, 0, 83, 66
2, 106944, Note_on_c, 0, 69, 66
2, 106988, Note_off_c, 0, 83, 64
2, 106992, Note_on_c, 0, 84, 66
2, 107036, Note_off_c, 0, 69, 64
2, 107036, Note_off_c, 0, 84, 64
2, 107040, Note_on_c, 0, 86, 66
2, 107084, Note_off_c, 0, 86, 64
2, 107088, Note_on_c, 0, 84, 66
2, 107132, Note_off_c, 0, 84, 64
2, 107136, Note_on_c, 0, 83, 66
2, 107136, Note_on_c, 0, 67, 66
2, 107180, Note_off_c, 0, 83, 64
2, 107184, Note_on_c, 0, 82, 66
2, 107228, Note_off_c, 0, 67, 64
2, 107228, Note_off_c, 0, 82, 64
2, 107232, Note_on_c, 0, 81, 66
2, 107276, Note_off_c, 0, 81, 64
2, 107280, Note_on_c, 0, 82, 66
2, 107324, Note_off_c, 0, 82, 64
2, 107328, Note_on_c, 0, 81, 66
2, 107328, Note_on_c, 0, 64, 66
2, 107372, Note_off_c, 0, 81, 64
2, 107376, Note_on_c, 0, 82, 66
2, 107420, Note_off_c, 0, 64, 64
2, 107420, Note_off_c, 0, 82, 64
2, 107424, Note_on_c, 0, 84, 66
2, 107468, Note_off_c, 0, 84, 64
2, 107472, Note_on_c, 0, 82, 66
2, 107516, Note_off_c, 0, 82, 64
2, 107520, Note_on_c, 0, 81, 66
2, 107520, Note_on_c, 0, 65, 66
2, 107520, Note_on_c, 0, 77, 66
2, 107520, Note_on_c, 0, 72, 66
2, 107564, Note_off_c, 0, 81, 64
2, 107564, Note_off_c, 0, 77, 64
2, 107564, Note_off_c, 0, 72, 64
2, 107568, Note_on_c, 0, 72, 66
2, 107612, Note_off_c, 0, 72, 64
2, 107616, Note_on_c, 0, 71, 66
2, 107660, Note_off_c, 0, 71, 64
2, 107664, Note_on_c, 0, 72, 66
2, 107708, Note_off_c, 0, 65, 64
2, 107708, Note_off_c, 0, 72, 64
2, 107712, Note_on_c, 0, 71, 66
2, 107756, Note_off_c, 0, 71, 64
2, 107760, Note_on_c, 0, 72, 66
2, 107804, Note_off_c, 0, 72, 64
2, 107808, Note_on_c, 0, 74, 66
2, 107852, Note_off_c, 0, 74, 64
2, 107856, Note_on_c, 0, 72, 66
2, 107900, Note_off_c, 0, 72, 64
2, 107904, Note_on_c, 0, 71, 66
2, 107948, Note_off_c, 0, 71, 64
2, 107952, Note_on_c, 0, 70, 66
2, 107996, Note_off_c, 0, 70, 64
2, 108000, Note_on_c, 0, 69, 66
2, 108044, Note_off_c, 0, 69, 64
2, 108048, Note_on_c, 0, 70, 66
2, 108092, Note_off_c, 0, 70, 64
2, 108096, Note_on_c, 0, 69, 66
2, 108140, Note_off_c, 0, 69, 64
2, 108144, Note_on_c, 0, 70, 66
2, 108188, Note_off_c, 0, 70, 64
2, 108192, Note_on_c, 0, 72, 66
2, 108236, Note_off_c, 0, 72, 64
2, 108240, Note_on_c, 0, 70, 66
2, 108284, Note_off_c, 0, 70, 64
2, 108288, Note_on_c, 0, 69, 66
2, 108288, Note_on_c, 0, 65, 66
2, 108288, Note_on_c, 0, 60, 66
2, 108288, Note_on_c, 0, 76, 67
2, 108332, Note_off_c, 0, 69, 64
2, 108332, Note_off_c, 0, 65, 64
2, 108332, Note_off_c, 0, 60, 64
2, 108332, Note_off_c, 0, 76, 64
2, 108336, Note_on_c, 0, 77, 66
2, 108380, Note_off_c, 0, 77, 64
2, 108384, Note_on_c, 0, 76, 66
2, 108428, Note_off_c, 0, 76, 64
2, 108432, Note_on_c, 0, 77, 66
2, 108476, Note_off_c, 0, 77, 64
2, 108480, Note_on_c, 0, 76, 66
2, 108480, Note_on_c, 0, 69, 66
2, 108480, Note_on_c, 0, 65, 66
2, 108524, Note_off_c, 0, 76, 64
2, 108528, Note_on_c, 0, 77, 66
2, 108572, Note_off_c, 0, 77, 64
2, 108576, Note_on_c, 0, 79, 66
2, 108620, Note_off_c, 0, 79, 64
2, 108624, Note_on_c, 0, 77, 66
2, 108668, Note_off_c, 0, 69, 64
2, 108668, Note_off_c, 0, 77, 64
2, 108672, Note_on_c, 0, 70, 68
2, 108720, Note_on_c, 0, 75, 68
2, 108764, Note_off_c, 0, 75, 64
2, 108768, Note_on_c, 0, 74, 70
2, 108812, Note_off_c, 0, 74, 64
2, 108816, Note_on_c, 0, 75, 72
2, 108860, Note_off_c, 0, 65, 64
2, 108860, Note_off_c, 0, 70, 64
2, 108860, Note_off_c, 0, 75, 64
2, 108864, Note_on_c, 0, 74, 73
2, 108864, Note_on_c, 0, 72, 73
2, 108864, Note_on_c, 0, 69, 73
2, 108864, Note_on_c, 0, 65, 73
2, 108908, Note_off_c, 0, 74, 64
2, 108912, Note_on_c, 0, 75, 75
2, 108956, Note_off_c, 0, 75, 64
2, 108960, Note_on_c, 0, 77, 78
2, 109004, Note_off_c, 0, 77, 64
2, 109008, Note_on_c, 0, 75, 80
2, 109052, Note_off_c, 0, 72, 64
2, 109052, Note_off_c, 0, 69, 64
2, 109052, Note_off_c, 0, 65, 64
2, 109052, Note_off_c, 0, 75, 64
2, 109056, Note_on_c, 0, 73, 81
2, 109056, Note_on_c, 0, 58, 81
2, 109148, Note_off_c, 0, 73, 64
2, 109148, Note_off_c, 0, 58, 64
2, 109152, Note_on_c, 0, 74, 85
2, 109152, Note_on_c, 0, 62, 85
2, 109244, Note_off_c, 0, 74, 64
2, 109244, Note_off_c, 0, 62, 64
2, 109248, Note_on_c, 0, 86, 89
2, 109248, Note_on_c, 0, 65, 89
2, 109340, Note_off_c, 0, 65, 64
2, 109344, Note_on_c, 0, 62, 93
2, 109424, Note_on_c, 0, 88, 96
2, 109436, Note_off_c, 0, 86, 64
2, 109436, Note_off_c, 0, 62, 64
2, 109440, Note_on_c, 0, 86, 96
2, 109440, Note_on_c, 0, 59, 96
2, 109468, Note_off_c, 0, 88, 64
2, 109484, Note_off_c, 0, 86, 64
2, 109488, Note_on_c, 0, 86, 99
2, 109488, Note_on_c, 0, 85, 99
2, 109532, Note_off_c, 0, 59, 64
2, 109532, Note_off_c, 0, 86, 64
2, 109532, Note_off_c, 0, 85, 64
2, 109536, Note_on_c, 0, 86, 100
2, 109536, Note_on_c, 0, 62, 100
2, 109628, Note_off_c, 0, 86, 64
2, 109628, Note_off_c, 0, 62, 64
2, 109632, Note_on_c, 0, 88, 104
2, 109632, Note_on_c, 0, 65, 104
2, 109724, Note_off_c, 0, 88, 64
2, 109724, Note_off_c, 0, 65, 64
2, 109728, Note_on_c, 0, 89, 107
2, 109728, Note_on_c, 0, 62, 107
2, 109820, Note_off_c, 0, 89, 64
2, 109820, Note_off_c, 0, 62, 64
2, 109824, Note_on_c, 0, 60, 111
2, 109824, Note_on_c, 0, 89, 111
2, 109868, Note_off_c, 0, 60, 64
2, 109872, Note_on_c, 0, 65, 111
2, 109916, Note_off_c, 0, 89, 64
2, 109916, Note_off_c, 0, 65, 64
2, 109920, Note_on_c, 0, 69, 111
2, 109920, Note_on_c, 0, 84, 111
2, 109964, Note_off_c, 0, 69, 64
2, 109968, Note_on_c, 0, 65, 111
2, 110012, Note_off_c, 0, 84, 64
2, 110012, Note_off_c, 0, 65, 64
2, 110016, Note_on_c, 0, 60, 111
2, 110016, Note_on_c, 0, 84, 111
2, 110060, Note_off_c, 0, 60, 64
2, 110064, Note_on_c, 0, 65, 111
2, 110108, Note_off_c, 0, 84, 64
2, 110108, Note_off_c, 0, 65, 64
2, 110112, Note_on_c, 0, 69, 111
2, 110156, Note_off_c, 0, 69, 64
2, 110160, Note_on_c, 0, 65, 111
2, 110204, Note_off_c, 0, 65, 64
2, 110208, Note_on_c, 0, 60, 111
2, 110208, Note_on_c, 0, 83, 111
2, 110252, Note_off_c, 0, 60, 64
2, 110252, Note_off_c, 0, 83, 64
2, 110256, Note_on_c, 0, 65, 111
2, 110256, Note_on_c, 0, 84, 111
2, 110300, Note_off_c, 0, 65, 64
2, 110300, Note_off_c, 0, 84, 64
2, 110304, Note_on_c, 0, 69, 111
2, 110304, Note_on_c, 0, 86, 111
2, 110348, Note_off_c, 0, 69, 64
2, 110348, Note_off_c, 0, 86, 64
2, 110352, Note_on_c, 0, 65, 111
2, 110352, Note_on_c, 0, 84, 111
2, 110396, Note_off_c, 0, 65, 64
2, 110396, Note_off_c, 0, 84, 64
2, 110400, Note_on_c, 0, 60, 111
2, 110416, Note_on_c, 0, 82, 111
2, 110444, Note_off_c, 0, 60, 64
2, 110448, Note_on_c, 0, 65, 111
2, 110448, Note_on_c, 0, 81, 111
2, 110460, Note_off_c, 0, 82, 64
2, 110492, Note_off_c, 0, 65, 64
2, 110492, Note_off_c, 0, 81, 64
2, 110496, Note_on_c, 0, 69, 111
2, 110496, Note_on_c, 0, 79, 111
2, 110540, Note_off_c, 0, 69, 64
2, 110540, Note_off_c, 0, 79, 64
2, 110544, Note_on_c, 0, 65, 111
2, 110544, Note_on_c, 0, 77, 111
2, 110588, Note_off_c, 0, 65, 64
2, 110588, Note_off_c, 0, 77, 64
2, 110592, Note_on_c, 0, 60, 112
2, 110592, Note_on_c, 0, 79, 112
2, 110592, Note_on_c, 0, 60, 112
2, 110612, Note_off_c, 0, 79, 64
2, 110616, Note_on_c, 0, 81, 112
2, 110636, Note_off_c, 0, 60, 64
2, 110636, Note_off_c, 0, 81, 64
2, 110640, Note_on_c, 0, 64, 112
2, 110640, Note_on_c, 0, 79, 112
2, 110660, Note_off_c, 0, 79, 64
2, 110664, Note_on_c, 0, 81, 112
2, 110684, Note_off_c, 0, 64, 64
2, 110684, Note_off_c, 0, 81, 64
2, 110688, Note_on_c, 0, 70, 112
2, 110688, Note_on_c, 0, 79, 112
2, 110708, Note_off_c, 0, 79, 64
2, 110712, Note_on_c, 0, 81, 113
2, 110732, Note_off_c, 0, 70, 64
2, 110732, Note_off_c, 0, 81, 64
2, 110736, Note_on_c, 0, 64, 113
2, 110736, Note_on_c, 0, 79, 113
2, 110756, Note_off_c, 0, 79, 64
2, 110760, Note_on_c, 0, 81, 113
2, 110780, Note_off_c, 0, 64, 64
2, 110780, Note_off_c, 0, 81, 64
2, 110784, Note_on_c, 0, 60, 114
2, 110784, Note_on_c, 0, 79, 114
2, 110804, Note_off_c, 0, 79, 64
2, 110808, Note_on_c, 0, 81, 114
2, 110828, Note_off_c, 0, 60, 64
2, 110828, Note_off_c, 0, 81, 64
2, 110832, Note_on_c, 0, 64, 115
2, 110832, Note_on_c, 0, 79, 115
2, 110852, Note_off_c, 0, 79, 64
2, 110856, Note_on_c, 0, 81, 115
2, 110876, Note_off_c, 0, 64, 64
2, 110876, Note_off_c, 0, 81, 64
2, 110880, Note_on_c, 0, 70, 115
2, 110880, Note_on_c, 0, 79, 115
2, 110900, Note_off_c, 0, 79, 64
2, 110904, Note_on_c, 0, 81, 116
2, 110924, Note_off_c, 0, 70, 64
2, 110924, Note_off_c, 0, 81, 64
2, 110928, Note_on_c, 0, 64, 116
2, 110928, Note_on_c, 0, 79, 116
2, 110948, Note_off_c, 0, 79, 64
2, 110952, Note_on_c, 0, 81, 118
2, 110972, Note_off_c, 0, 64, 64
2, 110972, Note_off_c, 0, 81, 64
2, 110976, Note_on_c, 0, 60, 118
2, 110976, Note_on_c, 0, 79, 118
2, 110996, Note_off_c, 0, 79, 64
2, 111000, Note_on_c, 0, 81, 118
2, 111020, Note_off_c, 0, 60, 64
2, 111020, Note_off_c, 0, 81, 64
2, 111024, Note_on_c, 0, 64, 119
2, 111024, Note_on_c, 0, 79, 119
2, 111044, Note_off_c, 0, 79, 64
2, 111048, Note_on_c, 0, 81, 119
2, 111068, Note_off_c, 0, 64, 64
2, 111068, Note_off_c, 0, 81, 64
2, 111072, Note_on_c, 0, 70, 121
2, 111072, Note_on_c, 0, 79, 121
2, 111092, Note_off_c, 0, 79, 64
2, 111096, Note_on_c, 0, 81, 121
2, 111116, Note_off_c, 0, 70, 64
2, 111116, Note_off_c, 0, 81, 64
2, 111120, Note_on_c, 0, 64, 121
2, 111120, Note_on_c, 0, 79, 121
2, 111140, Note_off_c, 0, 79, 64
2, 111144, Note_on_c, 0, 81, 121
2, 111164, Note_off_c, 0, 60, 64
2, 111164, Note_off_c, 0, 64, 64
2, 111164, Note_off_c, 0, 81, 64
2, 111168, Note_on_c, 0, 60, 121
2, 111168, Note_on_c, 0, 79, 121
2, 111188, Note_off_c, 0, 79, 64
2, 111192, Note_on_c, 0, 81, 122
2, 111212, Note_off_c, 0, 60, 64
2, 111212, Note_off_c, 0, 81, 64
2, 111216, Note_on_c, 0, 64, 122
2, 111216, Note_on_c, 0, 79, 122
2, 111236, Note_off_c, 0, 79, 64
2, 111240, Note_on_c, 0, 81, 122
2, 111260, Note_off_c, 0, 64, 64
2, 111260, Note_off_c, 0, 81, 64
2, 111264, Note_on_c, 0, 70, 122
2, 111264, Note_on_c, 0, 77, 122
2, 111308, Note_off_c, 0, 70, 64
2, 111308, Note_off_c, 0, 77, 64
2, 111312, Note_on_c, 0, 64, 122
2, 111312, Note_on_c, 0, 79, 122
2, 111356, Note_off_c, 0, 64, 64
2, 111356, Note_off_c, 0, 79, 64
2, 111360, Note_on_c, 0, 77, 111
2, 111360, Note_on_c, 0, 69, 111
2, 111360, Note_on_c, 0, 65, 111
2, 111740, Note_off_c, 0, 77, 64
2, 111740, Note_off_c, 0, 69, 64
2, 111740, Note_off_c, 0, 65, 64
2, 111740, End_track
3, 0, Start_track
3, 0, Title_t, "K246 - #8 - b"
3, 0, Control_c, 1, 0, 0
3, 0, Program_c, 1, 0
3, 0, Control_c, 1, 7, 127
3, 0, Control_c, 1, 10, 67
3, 0, Control_c, 1, 91, 70
3, 0, Control_c, 1, 93, 38
3, 0, Key_signature, -1, "major"
3, 0, Control_c, 1, 121, 0
3, 432, Control_c, 1, 10, 63
3, 480, Control_c, 1, 91, 63
3, 528, Control_c, 1, 93, 35
3, 576, Program_c, 1, 0
3, 23232, Note_on_c, 1, 58, 66
3, 23232, Note_on_c, 1, 46, 66
3, 23420, Note_off_c, 1, 58, 64
3, 23420, Note_off_c, 1, 46, 64
3, 23424, Note_on_c, 1, 57, 66
3, 23424, Note_on_c, 1, 48, 66
3, 23612, Note_off_c, 1, 57, 64
3, 23616, Note_on_c, 1, 52, 66
3, 23804, Note_off_c, 1, 48, 64
3, 23804, Note_off_c, 1, 52, 64
3, 24000, Note_on_c, 1, 64, 66
3, 24000, Note_on_c, 1, 60, 66
3, 24092, Note_off_c, 1, 64, 64
3, 24092, Note_off_c, 1, 60, 64
3, 24192, Note_on_c, 1, 65, 66
3, 24380, Note_off_c, 1, 65, 64
3, 24384, Note_on_c, 1, 57, 66
3, 24572, Note_off_c, 1, 57, 64
3, 24576, Note_on_c, 1, 58, 66
3, 24956, Note_off_c, 1, 58, 64
3, 25056, Note_on_c, 1, 58, 66
3, 25148, Note_off_c, 1, 58, 64
3, 25152, Note_on_c, 1, 57, 66
3, 25244, Note_off_c, 1, 57, 64
3, 25248, Note_on_c, 1, 55, 66
3, 25340, Note_off_c, 1, 55, 64
3, 25344, Note_on_c, 1, 53, 66
3, 25436, Note_off_c, 1, 53, 64
3, 25440, Note_on_c, 1, 55, 66
3, 25532, Note_off_c, 1, 55, 64
3, 25536, Note_on_c, 1, 57, 66
3, 25628, Note_off_c, 1, 57, 64
3, 25632, Note_on_c, 1, 59, 66
3, 25724, Note_off_c, 1, 59, 64
3, 25728, Note_on_c, 1, 60, 71
3, 25916, Note_off_c, 1, 60, 64
3, 25920, Note_on_c, 1, 48, 66
3, 26108, Note_off_c, 1, 48, 64
3, 30720, Note_on_c, 1, 52, 66
3, 30812, Note_off_c, 1, 52, 64
3, 30816, Note_on_c, 1, 55, 66
3, 30908, Note_off_c, 1, 55, 64
3, 30912, Note_on_c, 1, 60, 66
3, 31004, Note_off_c, 1, 60, 64
3, 31008, Note_on_c, 1, 55, 66
3, 31100, Note_off_c, 1, 55, 64
3, 31104, Note_on_c, 1, 52, 66
3, 31196, Note_off_c, 1, 52, 64
3, 31200, Note_on_c, 1, 55, 66
3, 31292, Note_off_c, 1, 55, 64
3, 31296, Note_on_c, 1, 60, 66
3, 31388, Note_off_c, 1, 60, 64
3, 31392, Note_on_c, 1, 55, 66
3, 31484, Note_off_c, 1, 55, 64
3, 31488, Note_on_c, 1, 53, 66
3, 31580, Note_off_c, 1, 53, 64
3, 31584, Note_on_c, 1, 57, 66
3, 31676, Note_off_c, 1, 57, 64
3, 31680, Note_on_c, 1, 60, 66
3, 31772, Note_off_c, 1, 60, 64
3, 31776, Note_on_c, 1, 57, 66
3, 31868, Note_off_c, 1, 57, 64
3, 31872, Note_on_c, 1, 53, 66
3, 31964, Note_off_c, 1, 53, 64
3, 31968, Note_on_c, 1, 57, 66
3, 32060, Note_off_c, 1, 57, 64
3, 32064, Note_on_c, 1, 60, 66
3, 32156, Note_off_c, 1, 60, 64
3, 32160, Note_on_c, 1, 57, 66
3, 32252, Note_off_c, 1, 57, 64
3, 32256, Note_on_c, 1, 54, 66
3, 32348, Note_off_c, 1, 54, 64
3, 32352, Note_on_c, 1, 57, 66
3, 32444, Note_off_c, 1, 57, 64
3, 32448, Note_on_c, 1, 60, 66
3, 32540, Note_off_c, 1, 60, 64
3, 32544, Note_on_c, 1, 57, 66
3, 32636, Note_off_c, 1, 57, 64
3, 32640, Note_on_c, 1, 54, 70
3, 32684, Note_off_c, 1, 54, 64
3, 32736, Note_on_c, 1, 60, 74
3, 32828, Note_off_c, 1, 60, 64
3, 32832, Note_on_c, 1, 62, 79
3, 32924, Note_off_c, 1, 62, 64
3, 32928, Note_on_c, 1, 63, 83
3, 33020, Note_off_c, 1, 63, 64
3, 33024, Note_on_c, 1, 55, 83
3, 33116, Note_off_c, 1, 55, 64
3, 33120, Note_on_c, 1, 60, 78
3, 33212, Note_off_c, 1, 60, 64
3, 33216, Note_on_c, 1, 63, 72
3, 33308, Note_off_c, 1, 63, 64
3, 33312, Note_on_c, 1, 60, 66
3, 33404, Note_off_c, 1, 60, 64
3, 33408, Note_on_c, 1, 62, 70
3, 33408, Note_on_c, 1, 55, 70
3, 33596, Note_off_c, 1, 62, 64
3, 33596, Note_off_c, 1, 55, 64
3, 34368, Note_on_c, 1, 60, 66
3, 34368, Note_on_c, 1, 55, 66
3, 34556, Note_off_c, 1, 60, 64
3, 34556, Note_off_c, 1, 55, 64
3, 34560, Note_on_c, 1, 62, 66
3, 34560, Note_on_c, 1, 55, 66
3, 35132, Note_off_c, 1, 62, 64
3, 35132, Note_off_c, 1, 55, 64
3, 35904, Note_on_c, 1, 60, 66
3, 35904, Note_on_c, 1, 55, 66
3, 36092, Note_off_c, 1, 60, 64
3, 36092, Note_off_c, 1, 55, 64
3, 36096, Note_on_c, 1, 55, 66
3, 36096, Note_on_c, 1, 60, 66
3, 36188, Note_off_c, 1, 60, 64
3, 36192, Note_on_c, 1, 59, 66
3, 36284, Note_off_c, 1, 59, 64
3, 36288, Note_on_c, 1, 62, 66
3, 36380, Note_off_c, 1, 62, 64
3, 36384, Note_on_c, 1, 60, 66
3, 36476, Note_off_c, 1, 60, 64
3, 36480, Note_on_c, 1, 59, 66
3, 36572, Note_off_c, 1, 59, 64
3, 36668, Note_off_c, 1, 55, 64
3, 40032, Note_on_c, 1, 59, 88
3, 40124, Note_off_c, 1, 59, 64
3, 40128, Note_on_c, 1, 60, 82
3, 40220, Note_off_c, 1, 60, 64
3, 40224, Note_on_c, 1, 53, 77
3, 40316, Note_off_c, 1, 53, 64
3, 40320, Note_on_c, 1, 55, 71
3, 40700, Note_off_c, 1, 55, 64
3, 40704, Note_on_c, 1, 52, 94
3, 40704, Note_on_c, 1, 40, 94
3, 40892, Note_off_c, 1, 52, 64
3, 40892, Note_off_c, 1, 40, 64
3, 40896, Note_on_c, 1, 53, 94
3, 40896, Note_on_c, 1, 41, 94
3, 41084, Note_off_c, 1, 53, 64
3, 41084, Note_off_c, 1, 41, 64
3, 41184, Note_on_c, 1, 59, 68
3, 41276, Note_off_c, 1, 59, 64
3, 41280, Note_on_c, 1, 60, 77
3, 41372, Note_off_c, 1, 60, 64
3, 41376, Note_on_c, 1, 62, 85
3, 41468, Note_off_c, 1, 62, 64
3, 41472, Note_on_c, 1, 64, 94
3, 41564, Note_off_c, 1, 64, 64
3, 41568, Note_on_c, 1, 47, 94
3, 41660, Note_off_c, 1, 47, 64
3, 41664, Note_on_c, 1, 48, 94
3, 41756, Note_off_c, 1, 48, 64
3, 41760, Note_on_c, 1, 53, 94
3, 41852, Note_off_c, 1, 53, 64
3, 41856, Note_on_c, 1, 55, 85
3, 41948, Note_off_c, 1, 55, 64
3, 42048, Note_on_c, 1, 43, 77
3, 42140, Note_off_c, 1, 43, 64
3, 42240, Note_on_c, 1, 48, 66
3, 42332, Note_off_c, 1, 48, 64
3, 42432, Note_on_c, 1, 64, 66
3, 42524, Note_off_c, 1, 64, 64
3, 42624, Note_on_c, 1, 62, 66
3, 42716, Note_off_c, 1, 62, 64
3, 42816, Note_on_c, 1, 59, 66
3, 42908, Note_off_c, 1, 59, 64
3, 43008, Note_on_c, 1, 60, 66
3, 43100, Note_off_c, 1, 60, 64
3, 43200, Note_on_c, 1, 64, 66
3, 43292, Note_off_c, 1, 64, 64
3, 43392, Note_on_c, 1, 62, 66
3, 43484, Note_off_c, 1, 62, 64
3, 43584, Note_on_c, 1, 59, 66
3, 43676, Note_off_c, 1, 59, 64
3, 43776, Note_on_c, 1, 60, 66
3, 43868, Note_off_c, 1, 60, 64
3, 44544, Note_on_c, 1, 53, 66
3, 44636, Note_off_c, 1, 53, 64
3, 44640, Note_on_c, 1, 57, 66
3, 44732, Note_off_c, 1, 57, 64
3, 44752, Note_on_c, 1, 60, 66
3, 44832, Note_on_c, 1, 57, 66
3, 44844, Note_off_c, 1, 60, 64
3, 44924, Note_off_c, 1, 57, 64
3, 44928, Note_on_c, 1, 54, 68
3, 45020, Note_off_c, 1, 54, 64
3, 45024, Note_on_c, 1, 57, 74
3, 45116, Note_off_c, 1, 57, 64
3, 45120, Note_on_c, 1, 60, 81
3, 45212, Note_off_c, 1, 60, 64
3, 45216, Note_on_c, 1, 57, 88
3, 45308, Note_off_c, 1, 57, 64
3, 45312, Note_on_c, 1, 55, 88
3, 45356, Note_off_c, 1, 55, 64
3, 45360, Note_on_c, 1, 60, 83
3, 45404, Note_off_c, 1, 60, 64
3, 45408, Note_on_c, 1, 64, 81
3, 45452, Note_off_c, 1, 64, 64
3, 45456, Note_on_c, 1, 60, 79
3, 45500, Note_off_c, 1, 60, 64
3, 45504, Note_on_c, 1, 55, 78
3, 45548, Note_off_c, 1, 55, 64
3, 45552, Note_on_c, 1, 60, 77
3, 45596, Note_off_c, 1, 60, 64
3, 45600, Note_on_c, 1, 64, 75
3, 45644, Note_off_c, 1, 64, 64
3, 45648, Note_on_c, 1, 60, 74
3, 45692, Note_off_c, 1, 60, 64
3, 45696, Note_on_c, 1, 55, 73
3, 45740, Note_off_c, 1, 55, 64
3, 45744, Note_on_c, 1, 60, 72
3, 45788, Note_off_c, 1, 60, 64
3, 45792, Note_on_c, 1, 64, 71
3, 45836, Note_off_c, 1, 64, 64
3, 45840, Note_on_c, 1, 60, 70
3, 45884, Note_off_c, 1, 60, 64
3, 45888, Note_on_c, 1, 55, 69
3, 45932, Note_off_c, 1, 55, 64
3, 45936, Note_on_c, 1, 60, 67
3, 45980, Note_off_c, 1, 60, 64
3, 45984, Note_on_c, 1, 64, 66
3, 46028, Note_off_c, 1, 64, 64
3, 46032, Note_on_c, 1, 60, 66
3, 46076, Note_off_c, 1, 60, 64
3, 46080, Note_on_c, 1, 55, 66
3, 46124, Note_off_c, 1, 55, 64
3, 46128, Note_on_c, 1, 59, 66
3, 46172, Note_off_c, 1, 59, 64
3, 46176, Note_on_c, 1, 65, 66
3, 46220, Note_off_c, 1, 65, 64
3, 46224, Note_on_c, 1, 59, 66
3, 46268, Note_off_c, 1, 59, 64
3, 46272, Note_on_c, 1, 55, 67
3, 46316, Note_off_c, 1, 55, 64
3, 46320, Note_on_c, 1, 59, 68
3, 46364, Note_off_c, 1, 59, 64
3, 46368, Note_on_c, 1, 65, 69
3, 46412, Note_off_c, 1, 65, 64
3, 46416, Note_on_c, 1, 59, 70
3, 46460, Note_off_c, 1, 59, 64
3, 46464, Note_on_c, 1, 55, 72
3, 46508, Note_off_c, 1, 55, 64
3, 46512, Note_on_c, 1, 59, 74
3, 46556, Note_off_c, 1, 59, 64
3, 46560, Note_on_c, 1, 65, 77
3, 46604, Note_off_c, 1, 65, 64
3, 46608, Note_on_c, 1, 59, 79
3, 46652, Note_off_c, 1, 59, 64
3, 46656, Note_on_c, 1, 55, 81
3, 46700, Note_off_c, 1, 55, 64
3, 46704, Note_on_c, 1, 59, 83
3, 46748, Note_off_c, 1, 59, 64
3, 46752, Note_on_c, 1, 65, 85
3, 46796, Note_off_c, 1, 65, 64
3, 46800, Note_on_c, 1, 59, 88
3, 46844, Note_off_c, 1, 59, 64
3, 46848, Note_on_c, 1, 64, 90
3, 46848, Note_on_c, 1, 60, 90
3, 47228, Note_off_c, 1, 64, 64
3, 47228, Note_off_c, 1, 60, 64
3, 57024, Note_on_c, 1, 62, 66
3, 57024, Note_on_c, 1, 53, 66
3, 57024, Note_on_c, 1, 57, 66
3, 57212, Note_off_c, 1, 62, 64
3, 57212, Note_off_c, 1, 53, 64
3, 57212, Note_off_c, 1, 57, 64
3, 57216, Note_on_c, 1, 62, 83
3, 57216, Note_on_c, 1, 58, 83
3, 57216, Note_on_c, 1, 55, 83
3, 57404, Note_off_c, 1, 62, 64
3, 57404, Note_off_c, 1, 58, 64
3, 57404, Note_off_c, 1, 55, 64
3, 57408, Note_on_c, 1, 67, 72
3, 57408, Note_on_c, 1, 64, 72
3, 57408, Note_on_c, 1, 57, 72
3, 57596, Note_off_c, 1, 67, 64
3, 57596, Note_off_c, 1, 64, 64
3, 57596, Note_off_c, 1, 57, 64
3, 57600, Note_on_c, 1, 62, 66
3, 57600, Note_on_c, 1, 65, 66
3, 57788, Note_off_c, 1, 62, 64
3, 57788, Note_off_c, 1, 65, 64
3, 57792, Note_on_c, 1, 65, 66
3, 57980, Note_off_c, 1, 65, 64
3, 57984, Note_on_c, 1, 64, 66
3, 58172, Note_off_c, 1, 64, 64
3, 58176, Note_on_c, 1, 61, 66
3, 58364, Note_off_c, 1, 61, 64
3, 58368, Note_on_c, 1, 62, 70
3, 58460, Note_off_c, 1, 62, 64
3, 58560, Note_on_c, 1, 62, 84
3, 58560, Note_on_c, 1, 57, 84
3, 58560, Note_on_c, 1, 53, 84
3, 58652, Note_off_c, 1, 62, 64
3, 58652, Note_off_c, 1, 57, 64
3, 58652, Note_off_c, 1, 53, 64
3, 58752, Note_on_c, 1, 62, 88
3, 58752, Note_on_c, 1, 58, 88
3, 58752, Note_on_c, 1, 55, 88
3, 58844, Note_off_c, 1, 62, 64
3, 58844, Note_off_c, 1, 58, 64
3, 58844, Note_off_c, 1, 55, 64
3, 58944, Note_on_c, 1, 67, 77
3, 58944, Note_on_c, 1, 64, 77
3, 58944, Note_on_c, 1, 57, 77
3, 59036, Note_off_c, 1, 67, 64
3, 59036, Note_off_c, 1, 64, 64
3, 59036, Note_off_c, 1, 57, 64
3, 59136, Note_on_c, 1, 62, 66
3, 59136, Note_on_c, 1, 65, 66
3, 59228, Note_off_c, 1, 62, 64
3, 59228, Note_off_c, 1, 65, 64
3, 59328, Note_on_c, 1, 62, 66
3, 59328, Note_on_c, 1, 65, 66
3, 59420, Note_off_c, 1, 62, 64
3, 59420, Note_off_c, 1, 65, 64
3, 59520, Note_on_c, 1, 62, 70
3, 59520, Note_on_c, 1, 64, 70
3, 59520, Note_on_c, 1, 67, 70
3, 59612, Note_off_c, 1, 62, 64
3, 59612, Note_off_c, 1, 64, 64
3, 59612, Note_off_c, 1, 67, 64
3, 59712, Note_on_c, 1, 62, 91
3, 59712, Note_on_c, 1, 66, 91
3, 59712, Note_on_c, 1, 69, 91
3, 59804, Note_off_c, 1, 62, 64
3, 59804, Note_off_c, 1, 66, 64
3, 59804, Note_off_c, 1, 69, 64
3, 60096, Note_on_c, 1, 62, 92
3, 60096, Note_on_c, 1, 55, 92
3, 60284, Note_off_c, 1, 62, 64
3, 60284, Note_off_c, 1, 55, 64
3, 60288, Note_on_c, 1, 58, 90
3, 60288, Note_on_c, 1, 55, 90
3, 60476, Note_off_c, 1, 58, 64
3, 60476, Note_off_c, 1, 55, 64
3, 60480, Note_on_c, 1, 58, 89
3, 60480, Note_on_c, 1, 55, 89
3, 60668, Note_off_c, 1, 58, 64
3, 60668, Note_off_c, 1, 55, 64
3, 70848, Note_on_c, 1, 58, 66
3, 70848, Note_on_c, 1, 46, 66
3, 71036, Note_off_c, 1, 58, 64
3, 71036, Note_off_c, 1, 46, 64
3, 71040, Note_on_c, 1, 57, 66
3, 71040, Note_on_c, 1, 48, 66
3, 71228, Note_off_c, 1, 57, 64
3, 71232, Note_on_c, 1, 52, 66
3, 71420, Note_off_c, 1, 48, 64
3, 71420, Note_off_c, 1, 52, 64
3, 71616, Note_on_c, 1, 60, 66
3, 71616, Note_on_c, 1, 64, 66
3, 71804, Note_off_c, 1, 60, 64
3, 71804, Note_off_c, 1, 64, 64
3, 71808, Note_on_c, 1, 65, 66
3, 71996, Note_off_c, 1, 65, 64
3, 72000, Note_on_c, 1, 57, 66
3, 72188, Note_off_c, 1, 57, 64
3, 72192, Note_on_c, 1, 58, 66
3, 72572, Note_off_c, 1, 58, 64
3, 72672, Note_on_c, 1, 58, 66
3, 72764, Note_off_c, 1, 58, 64
3, 72768, Note_on_c, 1, 57, 66
3, 72860, Note_off_c, 1, 57, 64
3, 72864, Note_on_c, 1, 55, 66
3, 72956, Note_off_c, 1, 55, 64
3, 72960, Note_on_c, 1, 53, 68
3, 73052, Note_off_c, 1, 53, 64
3, 73056, Note_on_c, 1, 55, 79
3, 73148, Note_off_c, 1, 55, 64
3, 73152, Note_on_c, 1, 57, 90
3, 73244, Note_off_c, 1, 57, 64
3, 73248, Note_on_c, 1, 59, 101
3, 73340, Note_off_c, 1, 59, 64
3, 73344, Note_on_c, 1, 60, 111
3, 73532, Note_off_c, 1, 60, 64
3, 73536, Note_on_c, 1, 48, 88
3, 73724, Note_off_c, 1, 48, 64
3, 75264, Note_on_c, 1, 53, 111
3, 75264, Note_on_c, 1, 53, 111
3, 75356, Note_off_c, 1, 53, 64
3, 75360, Note_on_c, 1, 57, 111
3, 75452, Note_off_c, 1, 57, 64
3, 75456, Note_on_c, 1, 60, 111
3, 75548, Note_off_c, 1, 60, 64
3, 75552, Note_on_c, 1, 57, 111
3, 75644, Note_off_c, 1, 53, 64
3, 75644, Note_off_c, 1, 57, 64
3, 75648, Note_on_c, 1, 53, 105
3, 75648, Note_on_c, 1, 53, 105
3, 75740, Note_off_c, 1, 53, 64
3, 75744, Note_on_c, 1, 57, 99
3, 75836, Note_off_c, 1, 57, 64
3, 75840, Note_on_c, 1, 60, 92
3, 75932, Note_off_c, 1, 60, 64
3, 75936, Note_on_c, 1, 57, 84
3, 76028, Note_off_c, 1, 53, 64
3, 76028, Note_off_c, 1, 57, 64
3, 76032, Note_on_c, 1, 54, 79
3, 76032, Note_on_c, 1, 54, 79
3, 76124, Note_off_c, 1, 54, 64
3, 76128, Note_on_c, 1, 57, 74
3, 76220, Note_off_c, 1, 57, 64
3, 76224, Note_on_c, 1, 60, 72
3, 76316, Note_off_c, 1, 60, 64
3, 76320, Note_on_c, 1, 57, 66
3, 76412, Note_off_c, 1, 54, 64
3, 76412, Note_off_c, 1, 57, 64
3, 76416, Note_on_c, 1, 54, 66
3, 76416, Note_on_c, 1, 54, 66
3, 76508, Note_off_c, 1, 54, 64
3, 76512, Note_on_c, 1, 57, 66
3, 76604, Note_off_c, 1, 57, 64
3, 76608, Note_on_c, 1, 60, 111
3, 76700, Note_off_c, 1, 60, 64
3, 76704, Note_on_c, 1, 57, 111
3, 76796, Note_off_c, 1, 54, 64
3, 76796, Note_off_c, 1, 57, 64
3, 76800, Note_on_c, 1, 55, 111
3, 76800, Note_on_c, 1, 55, 111
3, 76892, Note_off_c, 1, 55, 64
3, 76896, Note_on_c, 1, 58, 111
3, 76988, Note_off_c, 1, 58, 64
3, 76992, Note_on_c, 1, 62, 111
3, 77084, Note_off_c, 1, 62, 64
3, 77088, Note_on_c, 1, 58, 111
3, 77180, Note_off_c, 1, 55, 64
3, 77180, Note_off_c, 1, 58, 64
3, 77184, Note_on_c, 1, 53, 105
3, 77184, Note_on_c, 1, 53, 105
3, 77276, Note_off_c, 1, 53, 64
3, 77280, Note_on_c, 1, 58, 96
3, 77372, Note_off_c, 1, 58, 64
3, 77376, Note_on_c, 1, 62, 84
3, 77468, Note_off_c, 1, 62, 64
3, 77472, Note_on_c, 1, 53, 74
3, 77564, Note_off_c, 1, 53, 64
3, 77564, Note_off_c, 1, 53, 64
3, 77568, Note_on_c, 1, 52, 66
3, 77568, Note_on_c, 1, 52, 66
3, 77660, Note_off_c, 1, 52, 64
3, 77664, Note_on_c, 1, 55, 66
3, 77756, Note_off_c, 1, 55, 64
3, 77760, Note_on_c, 1, 58, 66
3, 77852, Note_off_c, 1, 58, 64
3, 77856, Note_on_c, 1, 55, 66
3, 77948, Note_off_c, 1, 52, 64
3, 77948, Note_off_c, 1, 55, 64
3, 77952, Note_on_c, 1, 52, 66
3, 77952, Note_on_c, 1, 52, 66
3, 78044, Note_off_c, 1, 52, 64
3, 78048, Note_on_c, 1, 55, 66
3, 78140, Note_off_c, 1, 55, 64
3, 78144, Note_on_c, 1, 58, 66
3, 78236, Note_off_c, 1, 58, 64
3, 78240, Note_on_c, 1, 55, 66
3, 78332, Note_off_c, 1, 52, 64
3, 78332, Note_off_c, 1, 55, 64
3, 78336, Note_on_c, 1, 53, 68
3, 78336, Note_on_c, 1, 53, 68
3, 78428, Note_off_c, 1, 53, 64
3, 78432, Note_on_c, 1, 57, 75
3, 78524, Note_off_c, 1, 57, 64
3, 78528, Note_on_c, 1, 62, 83
3, 78620, Note_off_c, 1, 62, 64
3, 78624, Note_on_c, 1, 57, 92
3, 78716, Note_off_c, 1, 53, 64
3, 78716, Note_off_c, 1, 57, 64
3, 78720, Note_on_c, 1, 45, 94
3, 78720, Note_on_c, 1, 45, 94
3, 78812, Note_off_c, 1, 45, 64
3, 78816, Note_on_c, 1, 48, 88
3, 78908, Note_off_c, 1, 48, 64
3, 78912, Note_on_c, 1, 53, 80
3, 79004, Note_off_c, 1, 53, 64
3, 79008, Note_on_c, 1, 48, 73
3, 79100, Note_off_c, 1, 45, 64
3, 79100, Note_off_c, 1, 48, 64
3, 79104, Note_on_c, 1, 46, 66
3, 79196, Note_off_c, 1, 46, 64
3, 79200, Note_on_c, 1, 50, 66
3, 79292, Note_off_c, 1, 50, 64
3, 79296, Note_on_c, 1, 53, 66
3, 79388, Note_off_c, 1, 53, 64
3, 79392, Note_on_c, 1, 50, 66
3, 79484, Note_off_c, 1, 50, 64
3, 87648, Note_on_c, 1, 64, 88
3, 87740, Note_off_c, 1, 64, 64
3, 87744, Note_on_c, 1, 65, 77
3, 87836, Note_off_c, 1, 65, 64
3, 87840, Note_on_c, 1, 58, 66
3, 87932, Note_off_c, 1, 58, 64
3, 87936, Note_on_c, 1, 60, 66
3, 88316, Note_off_c, 1, 60, 64
3, 88320, Note_on_c, 1, 57, 122
3, 88320, Note_on_c, 1, 45, 122
3, 88508, Note_off_c, 1, 57, 64
3, 88508, Note_off_c, 1, 45, 64
3, 88512, Note_on_c, 1, 58, 111
3, 88512, Note_on_c, 1, 46, 111
3, 88700, Note_off_c, 1, 58, 64
3, 88700, Note_off_c, 1, 46, 64
3, 88800, Note_on_c, 1, 64, 66
3, 88892, Note_off_c, 1, 64, 64
3, 88896, Note_on_c, 1, 65, 77
3, 88988, Note_off_c, 1, 65, 64
3, 88992, Note_on_c, 1, 67, 88
3, 89084, Note_off_c, 1, 67, 64
3, 89088, Note_on_c, 1, 69, 94
3, 89132, Note_off_c, 1, 69, 64
3, 89184, Note_on_c, 1, 52, 94
3, 89276, Note_off_c, 1, 52, 64
3, 89280, Note_on_c, 1, 53, 94
3, 89372, Note_off_c, 1, 53, 64
3, 89376, Note_on_c, 1, 58, 88
3, 89468, Note_off_c, 1, 58, 64
3, 89472, Note_on_c, 1, 60, 77
3, 89660, Note_off_c, 1, 60, 64
3, 89664, Note_on_c, 1, 48, 66
3, 89852, Note_off_c, 1, 48, 64
3, 89856, Note_on_c, 1, 53, 66
3, 90044, Note_off_c, 1, 53, 64
3, 90816, Note_on_c, 1, 57, 66
3, 90908, Note_off_c, 1, 57, 64
3, 91008, Note_on_c, 1, 55, 66
3, 91100, Note_off_c, 1, 55, 64
3, 91200, Note_on_c, 1, 52, 66
3, 91292, Note_off_c, 1, 52, 64
3, 91392, Note_on_c, 1, 53, 66
3, 91580, Note_off_c, 1, 53, 64
3, 97536, Note_on_c, 1, 48, 111
3, 97536, Note_on_c, 1, 36, 111
3, 97916, Note_off_c, 1, 48, 64
3, 97916, Note_off_c, 1, 36, 64
3, 104544, Note_on_c, 1, 64, 88
3, 104636, Note_off_c, 1, 64, 64
3, 104640, Note_on_c, 1, 65, 80
3, 104732, Note_off_c, 1, 65, 64
3, 104736, Note_on_c, 1, 58, 73
3, 104828, Note_off_c, 1, 58, 64
3, 104832, Note_on_c, 1, 60, 66
3, 105212, Note_off_c, 1, 60, 64
3, 105216, Note_on_c, 1, 57, 122
3, 105216, Note_on_c, 1, 45, 122
3, 105404, Note_off_c, 1, 57, 64
3, 105404, Note_off_c, 1, 45, 64
3, 105408, Note_on_c, 1, 58, 111
3, 105408, Note_on_c, 1, 46, 111
3, 105596, Note_off_c, 1, 58, 64
3, 105596, Note_off_c, 1, 46, 64
3, 105696, Note_on_c, 1, 64, 66
3, 105788, Note_off_c, 1, 64, 64
3, 105792, Note_on_c, 1, 65, 77
3, 105884, Note_off_c, 1, 65, 64
3, 105888, Note_on_c, 1, 67, 88
3, 105980, Note_off_c, 1, 67, 64
3, 105984, Note_on_c, 1, 69, 94
3, 106028, Note_off_c, 1, 69, 64
3, 106080, Note_on_c, 1, 52, 94
3, 106172, Note_off_c, 1, 52, 64
3, 106176, Note_on_c, 1, 53, 94
3, 106268, Note_off_c, 1, 53, 64
3, 106272, Note_on_c, 1, 58, 90
3, 106364, Note_off_c, 1, 58, 64
3, 106368, Note_on_c, 1, 60, 80
3, 106556, Note_off_c, 1, 60, 64
3, 106560, Note_on_c, 1, 48, 70
3, 106748, Note_off_c, 1, 48, 64
3, 106752, Note_on_c, 1, 53, 66
3, 106940, Note_off_c, 1, 53, 64
3, 107712, Note_on_c, 1, 57, 66
3, 107804, Note_off_c, 1, 57, 64
3, 107904, Note_on_c, 1, 55, 66
3, 107996, Note_off_c, 1, 55, 64
3, 108096, Note_on_c, 1, 52, 66
3, 108188, Note_off_c, 1, 52, 64
3, 108288, Note_on_c, 1, 53, 66
3, 108476, Note_off_c, 1, 53, 64
3, 110592, Note_on_c, 1, 58, 111
3, 110592, Note_on_c, 1, 52, 111
3, 110592, Note_on_c, 1, 48, 111
3, 111356, Note_off_c, 1, 58, 64
3, 111356, Note_off_c, 1, 52, 64
3, 111356, Note_off_c, 1, 48, 64
3, 111360, Note_on_c, 1, 53, 66
3, 111740, Note_off_c, 1, 53, 64
3, 111740, End_track
4, 0, Start_track
4, 0, Title_t, "Midi By:"
4, 0, Control_c, 2, 0, 0
4, 0, Program_c, 2, 0
4, 0, Control_c, 2, 7, 127
4, 0, Control_c, 2, 10, 43
4, 0, Control_c, 2, 91, 67
4, 0, Control_c, 2, 93, 0
4, 0, Key_signature, -1, "major"
4, 0, Control_c, 2, 121, 0
4, 432, Control_c, 2, 10, 53
4, 480, Control_c, 2, 91, 63
4, 576, Program_c, 2, 48
4, 1344, Note_on_c, 2, 72, 60
4, 1344, Note_on_c, 2, 69, 60
4, 1532, Note_off_c, 2, 72, 64
4, 1532, Note_off_c, 2, 69, 64
4, 1536, Note_on_c, 2, 74, 60
4, 1536, Note_on_c, 2, 70, 60
4, 1628, Note_off_c, 2, 74, 64
4, 1628, Note_off_c, 2, 70, 64
4, 1632, Note_on_c, 2, 72, 60
4, 1632, Note_on_c, 2, 69, 60
4, 1724, Note_off_c, 2, 72, 64
4, 1724, Note_off_c, 2, 69, 64
4, 1728, Note_on_c, 2, 70, 60
4, 1728, Note_on_c, 2, 67, 60
4, 1820, Note_off_c, 2, 70, 64
4, 1820, Note_off_c, 2, 67, 64
4, 1824, Note_on_c, 2, 69, 60
4, 1824, Note_on_c, 2, 65, 60
4, 1916, Note_off_c, 2, 69, 64
4, 1916, Note_off_c, 2, 65, 64
4, 1920, Note_on_c, 2, 69, 60
4, 1920, Note_on_c, 2, 65, 60
4, 2108, Note_off_c, 2, 69, 64
4, 2108, Note_off_c, 2, 65, 64
4, 2112, Note_on_c, 2, 74, 60
4, 2112, Note_on_c, 2, 70, 60
4, 2300, Note_off_c, 2, 74, 64
4, 2300, Note_off_c, 2, 70, 64
4, 2304, Note_on_c, 2, 74, 61
4, 2304, Note_on_c, 2, 70, 61
4, 2684, Note_off_c, 2, 74, 64
4, 2684, Note_off_c, 2, 70, 64
4, 2688, Note_on_c, 2, 72, 52
4, 2688, Note_on_c, 2, 69, 52
4, 2876, Note_off_c, 2, 72, 64
4, 2876, Note_off_c, 2, 69, 64
4, 2880, Note_on_c, 2, 77, 52
4, 3068, Note_off_c, 2, 77, 64
4, 3072, Note_on_c, 2, 77, 54
4, 3164, Note_off_c, 2, 77, 64
4, 3168, Note_on_c, 2, 76, 54
4, 3260, Note_off_c, 2, 76, 64
4, 3264, Note_on_c, 2, 74, 55
4, 3356, Note_off_c, 2, 74, 64
4, 3360, Note_on_c, 2, 72, 57
4, 3452, Note_off_c, 2, 72, 64
4, 3456, Note_on_c, 2, 72, 57
4, 3644, Note_off_c, 2, 72, 64
4, 3648, Note_on_c, 2, 72, 60
4, 3836, Note_off_c, 2, 72, 64
4, 3840, Note_on_c, 2, 72, 60
4, 4412, Note_off_c, 2, 72, 64
4, 4416, Note_on_c, 2, 73, 60
4, 4604, Note_off_c, 2, 73, 64
4, 4608, Note_on_c, 2, 73, 60
4, 4700, Note_off_c, 2, 73, 64
4, 4704, Note_on_c, 2, 74, 60
4, 4796, Note_off_c, 2, 74, 64
4, 4800, Note_on_c, 2, 76, 60
4, 4892, Note_off_c, 2, 76, 64
4, 4896, Note_on_c, 2, 77, 60
4, 4988, Note_off_c, 2, 77, 64
4, 4992, Note_on_c, 2, 76, 60
4, 5084, Note_off_c, 2, 76, 64
4, 5088, Note_on_c, 2, 74, 60
4, 5180, Note_off_c, 2, 74, 64
4, 5184, Note_on_c, 2, 72, 60
4, 5276, Note_off_c, 2, 72, 64
4, 5280, Note_on_c, 2, 70, 60
4, 5372, Note_off_c, 2, 70, 64
4, 5376, Note_on_c, 2, 69, 60
4, 5376, Note_on_c, 2, 61, 60
4, 5376, Note_on_c, 2, 58, 60
4, 5468, Note_off_c, 2, 69, 64
4, 5468, Note_off_c, 2, 61, 64
4, 5472, Note_on_c, 2, 70, 60
4, 5472, Note_on_c, 2, 62, 60
4, 5564, Note_off_c, 2, 70, 64
4, 5564, Note_off_c, 2, 62, 64
4, 5568, Note_on_c, 2, 72, 60
4, 5568, Note_on_c, 2, 64, 60
4, 5660, Note_off_c, 2, 72, 64
4, 5660, Note_off_c, 2, 64, 64
4, 5664, Note_on_c, 2, 74, 60
4, 5664, Note_on_c, 2, 65, 60
4, 5756, Note_off_c, 2, 58, 64
4, 5756, Note_off_c, 2, 74, 64
4, 5756, Note_off_c, 2, 65, 64
4, 5760, Note_on_c, 2, 72, 60
4, 5760, Note_on_c, 2, 64, 60
4, 5852, Note_off_c, 2, 72, 64
4, 5852, Note_off_c, 2, 64, 64
4, 5856, Note_on_c, 2, 70, 60
4, 5856, Note_on_c, 2, 62, 60
4, 5948, Note_off_c, 2, 70, 64
4, 5948, Note_off_c, 2, 62, 64
4, 5952, Note_on_c, 2, 69, 60
4, 5952, Note_on_c, 2, 60, 60
4, 6044, Note_off_c, 2, 69, 64
4, 6044, Note_off_c, 2, 60, 64
4, 6048, Note_on_c, 2, 67, 60
4, 6048, Note_on_c, 2, 58, 60
4, 6140, Note_off_c, 2, 67, 64
4, 6140, Note_off_c, 2, 58, 64
4, 6144, Note_on_c, 2, 78, 85
4, 6144, Note_on_c, 2, 75, 85
4, 6236, Note_off_c, 2, 78, 64
4, 6236, Note_off_c, 2, 75, 64
4, 6240, Note_on_c, 2, 79, 85
4, 6240, Note_on_c, 2, 74, 85
4, 6332, Note_off_c, 2, 79, 64
4, 6332, Note_off_c, 2, 74, 64
4, 6336, Note_on_c, 2, 78, 85
4, 6336, Note_on_c, 2, 75, 85
4, 6428, Note_off_c, 2, 78, 64
4, 6428, Note_off_c, 2, 75, 64
4, 6432, Note_on_c, 2, 79, 85
4, 6432, Note_on_c, 2, 74, 85
4, 6524, Note_off_c, 2, 79, 64
4, 6524, Note_off_c, 2, 74, 64
4, 6528, Note_on_c, 2, 82, 85
4, 6528, Note_on_c, 2, 74, 85
4, 6620, Note_off_c, 2, 82, 64
4, 6620, Note_off_c, 2, 74, 64
4, 6624, Note_on_c, 2, 79, 85
4, 6624, Note_on_c, 2, 70, 85
4, 6716, Note_off_c, 2, 79, 64
4, 6716, Note_off_c, 2, 70, 64
4, 6720, Note_on_c, 2, 82, 85
4, 6720, Note_on_c, 2, 74, 85
4, 6812, Note_off_c, 2, 82, 64
4, 6812, Note_off_c, 2, 74, 64
4, 6816, Note_on_c, 2, 79, 85
4, 6816, Note_on_c, 2, 70, 85
4, 6908, Note_off_c, 2, 79, 64
4, 6908, Note_off_c, 2, 70, 64
4, 6912, Note_on_c, 2, 77, 85
4, 6912, Note_on_c, 2, 69, 85
4, 7292, Note_off_c, 2, 77, 64
4, 7292, Note_off_c, 2, 69, 64
4, 7296, Note_on_c, 2, 76, 85
4, 7296, Note_on_c, 2, 67, 85
4, 7484, Note_off_c, 2, 76, 64
4, 7484, Note_off_c, 2, 67, 64
4, 7488, Note_on_c, 2, 60, 60
4, 7628, Note_off_c, 2, 60, 64
4, 7632, Note_on_c, 2, 58, 60
4, 7676, Note_off_c, 2, 58, 64
4, 7680, Note_on_c, 2, 57, 60
4, 7772, Note_off_c, 2, 57, 64
4, 7776, Note_on_c, 2, 60, 66
4, 7868, Note_off_c, 2, 60, 64
4, 7872, Note_on_c, 2, 65, 70
4, 7916, Note_off_c, 2, 65, 64
4, 7968, Note_on_c, 2, 69, 74
4, 8012, Note_off_c, 2, 69, 64
4, 8064, Note_on_c, 2, 72, 84
4, 8252, Note_off_c, 2, 72, 64
4, 8256, Note_on_c, 2, 77, 92
4, 8256, Note_on_c, 2, 69, 92
4, 8444, Note_off_c, 2, 77, 64
4, 8444, Note_off_c, 2, 69, 64
4, 8448, Note_on_c, 2, 77, 92
4, 8448, Note_on_c, 2, 70, 92
4, 8540, Note_off_c, 2, 77, 64
4, 8544, Note_on_c, 2, 76, 88
4, 8636, Note_off_c, 2, 76, 64
4, 8640, Note_on_c, 2, 79, 86
4, 8732, Note_off_c, 2, 79, 64
4, 8736, Note_on_c, 2, 77, 84
4, 8828, Note_off_c, 2, 70, 64
4, 8828, Note_off_c, 2, 77, 64
4, 8832, Note_on_c, 2, 76, 74
4, 8832, Note_on_c, 2, 70, 74
4, 9020, Note_off_c, 2, 76, 64
4, 9020, Note_off_c, 2, 70, 64
4, 9024, Note_on_c, 2, 60, 68
4, 9164, Note_off_c, 2, 60, 64
4, 9168, Note_on_c, 2, 58, 60
4, 9212, Note_off_c, 2, 58, 64
4, 9216, Note_on_c, 2, 57, 60
4, 9308, Note_off_c, 2, 57, 64
4, 9312, Note_on_c, 2, 60, 66
4, 9404, Note_off_c, 2, 60, 64
4, 9408, Note_on_c, 2, 65, 70
4, 9452, Note_off_c, 2, 65, 64
4, 9504, Note_on_c, 2, 69, 74
4, 9548, Note_off_c, 2, 69, 64
4, 9600, Note_on_c, 2, 72, 84
4, 9788, Note_off_c, 2, 72, 64
4, 9792, Note_on_c, 2, 77, 92
4, 9792, Note_on_c, 2, 81, 92
4, 9980, Note_off_c, 2, 77, 64
4, 9980, Note_off_c, 2, 81, 64
4, 9984, Note_on_c, 2, 81, 92
4, 9984, Note_on_c, 2, 77, 92
4, 10076, Note_off_c, 2, 81, 64
4, 10076, Note_off_c, 2, 77, 64
4, 10080, Note_on_c, 2, 79, 88
4, 10080, Note_on_c, 2, 76, 88
4, 10172, Note_off_c, 2, 79, 64
4, 10172, Note_off_c, 2, 76, 64
4, 10176, Note_on_c, 2, 79, 85
4, 10176, Note_on_c, 2, 82, 85
4, 10268, Note_off_c, 2, 79, 64
4, 10268, Note_off_c, 2, 82, 64
4, 10272, Note_on_c, 2, 81, 74
4, 10272, Note_on_c, 2, 77, 74
4, 10364, Note_off_c, 2, 81, 64
4, 10364, Note_off_c, 2, 77, 64
4, 10368, Note_on_c, 2, 79, 70
4, 10368, Note_on_c, 2, 76, 70
4, 10556, Note_off_c, 2, 79, 64
4, 10556, Note_off_c, 2, 76, 64
4, 10560, Note_on_c, 2, 84, 60
4, 10560, Note_on_c, 2, 72, 60
4, 10700, Note_off_c, 2, 84, 64
4, 10700, Note_off_c, 2, 72, 64
4, 10704, Note_on_c, 2, 86, 60
4, 10704, Note_on_c, 2, 74, 60
4, 10748, Note_off_c, 2, 86, 64
4, 10748, Note_off_c, 2, 74, 64
4, 10752, Note_on_c, 2, 84, 60
4, 10752, Note_on_c, 2, 72, 60
4, 10844, Note_off_c, 2, 84, 64
4, 10844, Note_off_c, 2, 72, 64
4, 10848, Note_on_c, 2, 82, 61
4, 10848, Note_on_c, 2, 70, 61
4, 10940, Note_off_c, 2, 82, 64
4, 10940, Note_off_c, 2, 70, 64
4, 10944, Note_on_c, 2, 82, 62
4, 10944, Note_on_c, 2, 70, 62
4, 11084, Note_off_c, 2, 82, 64
4, 11084, Note_off_c, 2, 70, 64
4, 11088, Note_on_c, 2, 84, 68
4, 11088, Note_on_c, 2, 72, 68
4, 11132, Note_off_c, 2, 84, 64
4, 11132, Note_off_c, 2, 72, 64
4, 11136, Note_on_c, 2, 82, 69
4, 11136, Note_on_c, 2, 70, 69
4, 11228, Note_off_c, 2, 82, 64
4, 11228, Note_off_c, 2, 70, 64
4, 11232, Note_on_c, 2, 81, 70
4, 11232, Note_on_c, 2, 69, 70
4, 11324, Note_off_c, 2, 81, 64
4, 11324, Note_off_c, 2, 69, 64
4, 11328, Note_on_c, 2, 81, 73
4, 11328, Note_on_c, 2, 69, 73
4, 11468, Note_off_c, 2, 81, 64
4, 11468, Note_off_c, 2, 69, 64
4, 11472, Note_on_c, 2, 82, 75
4, 11472, Note_on_c, 2, 70, 75
4, 11516, Note_off_c, 2, 82, 64
4, 11516, Note_off_c, 2, 70, 64
4, 11520, Note_on_c, 2, 81, 75
4, 11520, Note_on_c, 2, 69, 75
4, 11612, Note_off_c, 2, 81, 64
4, 11612, Note_off_c, 2, 69, 64
4, 11616, Note_on_c, 2, 79, 78
4, 11616, Note_on_c, 2, 67, 78
4, 11708, Note_off_c, 2, 79, 64
4, 11708, Note_off_c, 2, 67, 64
4, 11712, Note_on_c, 2, 79, 84
4, 11712, Note_on_c, 2, 67, 84
4, 11852, Note_off_c, 2, 79, 64
4, 11852, Note_off_c, 2, 67, 64
4, 11856, Note_on_c, 2, 81, 86
4, 11856, Note_on_c, 2, 69, 86
4, 11900, Note_off_c, 2, 81, 64
4, 11900, Note_off_c, 2, 69, 64
4, 11904, Note_on_c, 2, 79, 87
4, 11904, Note_on_c, 2, 67, 87
4, 11996, Note_off_c, 2, 79, 64
4, 11996, Note_off_c, 2, 67, 64
4, 12000, Note_on_c, 2, 77, 88
4, 12000, Note_on_c, 2, 65, 88
4, 12092, Note_off_c, 2, 77, 64
4, 12092, Note_off_c, 2, 65, 64
4, 12096, Note_on_c, 2, 77, 88
4, 12096, Note_on_c, 2, 65, 88
4, 12236, Note_off_c, 2, 77, 64
4, 12236, Note_off_c, 2, 65, 64
4, 12240, Note_on_c, 2, 81, 92
4, 12240, Note_on_c, 2, 69, 92
4, 12284, Note_off_c, 2, 81, 64
4, 12284, Note_off_c, 2, 69, 64
4, 12288, Note_on_c, 2, 76, 109
4, 12288, Note_on_c, 2, 72, 109
4, 12668, Note_off_c, 2, 76, 64
4, 12668, Note_off_c, 2, 72, 64
4, 12672, Note_on_c, 2, 77, 60
4, 12672, Note_on_c, 2, 72, 60
4, 12860, Note_off_c, 2, 77, 64
4, 12860, Note_off_c, 2, 72, 64
4, 12864, Note_on_c, 2, 72, 60
4, 12864, Note_on_c, 2, 77, 60
4, 13004, Note_off_c, 2, 77, 64
4, 13008, Note_on_c, 2, 81, 60
4, 13052, Note_off_c, 2, 72, 64
4, 13052, Note_off_c, 2, 81, 64
4, 13056, Note_on_c, 2, 76, 92
4, 13056, Note_on_c, 2, 72, 92
4, 13436, Note_off_c, 2, 76, 64
4, 13436, Note_off_c, 2, 72, 64
4, 13440, Note_on_c, 2, 77, 60
4, 13440, Note_on_c, 2, 72, 60
4, 13440, Note_on_c, 2, 57, 60
4, 13440, Note_on_c, 2, 53, 60
4, 13532, Note_off_c, 2, 77, 64
4, 13532, Note_off_c, 2, 72, 64
4, 13532, Note_off_c, 2, 57, 64
4, 13536, Note_on_c, 2, 79, 60
4, 13536, Note_on_c, 2, 67, 60
4, 13536, Note_on_c, 2, 64, 60
4, 13628, Note_off_c, 2, 53, 64
4, 13628, Note_off_c, 2, 79, 64
4, 13628, Note_off_c, 2, 67, 64
4, 13628, Note_off_c, 2, 64, 64
4, 13632, Note_on_c, 2, 81, 60
4, 13632, Note_on_c, 2, 69, 60
4, 13632, Note_on_c, 2, 65, 60
4, 13724, Note_off_c, 2, 81, 64
4, 13724, Note_off_c, 2, 69, 64
4, 13724, Note_off_c, 2, 65, 64
4, 13728, Note_on_c, 2, 82, 60
4, 13728, Note_on_c, 2, 70, 60
4, 13728, Note_on_c, 2, 67, 60
4, 13820, Note_off_c, 2, 82, 64
4, 13820, Note_off_c, 2, 70, 64
4, 13820, Note_off_c, 2, 67, 64
4, 13824, Note_on_c, 2, 84, 60
4, 13824, Note_on_c, 2, 72, 60
4, 13824, Note_on_c, 2, 69, 60
4, 13916, Note_off_c, 2, 69, 64
4, 13920, Note_on_c, 2, 70, 66
4, 13920, Note_on_c, 2, 67, 66
4, 13920, Note_on_c, 2, 64, 66
4, 14012, Note_off_c, 2, 70, 64
4, 14012, Note_off_c, 2, 67, 64
4, 14012, Note_off_c, 2, 64, 64
4, 14016, Note_on_c, 2, 69, 70
4, 14016, Note_on_c, 2, 65, 70
4, 14108, Note_off_c, 2, 84, 64
4, 14108, Note_off_c, 2, 72, 64
4, 14108, Note_off_c, 2, 69, 64
4, 14108, Note_off_c, 2, 65, 64
4, 14112, Note_on_c, 2, 86, 74
4, 14112, Note_on_c, 2, 74, 74
4, 14112, Note_on_c, 2, 58, 74
4, 14112, Note_on_c, 2, 67, 74
4, 14204, Note_off_c, 2, 86, 64
4, 14204, Note_off_c, 2, 74, 64
4, 14204, Note_off_c, 2, 58, 64
4, 14204, Note_off_c, 2, 67, 64
4, 14208, Note_on_c, 2, 77, 84
4, 14208, Note_on_c, 2, 69, 84
4, 14208, Note_on_c, 2, 65, 84
4, 14208, Note_on_c, 2, 60, 84
4, 14396, Note_off_c, 2, 77, 64
4, 14396, Note_off_c, 2, 69, 64
4, 14396, Note_off_c, 2, 65, 64
4, 14400, Note_on_c, 2, 76, 90
4, 14400, Note_on_c, 2, 67, 90
4, 14400, Note_on_c, 2, 64, 90
4, 14588, Note_off_c, 2, 60, 64
4, 14588, Note_off_c, 2, 76, 64
4, 14588, Note_off_c, 2, 67, 64
4, 14588, Note_off_c, 2, 64, 64
4, 14592, Note_on_c, 2, 75, 108
4, 14592, Note_on_c, 2, 72, 108
4, 14592, Note_on_c, 2, 65, 108
4, 14592, Note_on_c, 2, 57, 108
4, 14780, Note_off_c, 2, 75, 64
4, 14780, Note_off_c, 2, 72, 64
4, 14780, Note_off_c, 2, 57, 64
4, 14784, Note_on_c, 2, 74, 108
4, 14784, Note_on_c, 2, 70, 108
4, 14784, Note_on_c, 2, 58, 108
4, 14972, Note_off_c, 2, 65, 64
4, 14972, Note_off_c, 2, 74, 64
4, 14972, Note_off_c, 2, 70, 64
4, 14972, Note_off_c, 2, 58, 64
4, 15072, Note_on_c, 2, 79, 60
4, 15072, Note_on_c, 2, 64, 60
4, 15072, Note_on_c, 2, 67, 60
4, 15164, Note_off_c, 2, 79, 64
4, 15164, Note_off_c, 2, 64, 64
4, 15164, Note_off_c, 2, 67, 64
4, 15168, Note_on_c, 2, 81, 60
4, 15168, Note_on_c, 2, 65, 60
4, 15168, Note_on_c, 2, 69, 60
4, 15260, Note_off_c, 2, 81, 64
4, 15260, Note_off_c, 2, 65, 64
4, 15260, Note_off_c, 2, 69, 64
4, 15264, Note_on_c, 2, 82, 60
4, 15264, Note_on_c, 2, 70, 60
4, 15264, Note_on_c, 2, 67, 60
4, 15356, Note_off_c, 2, 82, 64
4, 15356, Note_off_c, 2, 70, 64
4, 15356, Note_off_c, 2, 67, 64
4, 15360, Note_on_c, 2, 84, 60
4, 15360, Note_on_c, 2, 72, 60
4, 15360, Note_on_c, 2, 69, 60
4, 15452, Note_off_c, 2, 69, 64
4, 15456, Note_on_c, 2, 70, 66
4, 15456, Note_on_c, 2, 67, 66
4, 15456, Note_on_c, 2, 64, 66
4, 15548, Note_off_c, 2, 70, 64
4, 15548, Note_off_c, 2, 67, 64
4, 15548, Note_off_c, 2, 64, 64
4, 15552, Note_on_c, 2, 69, 70
4, 15552, Note_on_c, 2, 65, 70
4, 15644, Note_off_c, 2, 84, 64
4, 15644, Note_off_c, 2, 72, 64
4, 15644, Note_off_c, 2, 69, 64
4, 15644, Note_off_c, 2, 65, 64
4, 15648, Note_on_c, 2, 86, 74
4, 15648, Note_on_c, 2, 74, 74
4, 15648, Note_on_c, 2, 67, 74
4, 15648, Note_on_c, 2, 58, 74
4, 15740, Note_off_c, 2, 86, 64
4, 15740, Note_off_c, 2, 74, 64
4, 15740, Note_off_c, 2, 67, 64
4, 15740, Note_off_c, 2, 58, 64
4, 15744, Note_on_c, 2, 65, 84
4, 15744, Note_on_c, 2, 60, 84
4, 15744, Note_on_c, 2, 69, 84
4, 15744, Note_on_c, 2, 77, 84
4, 15836, Note_off_c, 2, 77, 64
4, 15840, Note_on_c, 2, 81, 87
4, 15932, Note_off_c, 2, 65, 64
4, 15932, Note_off_c, 2, 60, 64
4, 15932, Note_off_c, 2, 69, 64
4, 15932, Note_off_c, 2, 81, 64
4, 15936, Note_on_c, 2, 79, 90
4, 15936, Note_on_c, 2, 64, 90
4, 15936, Note_on_c, 2, 60, 90
4, 15936, Note_on_c, 2, 67, 90
4, 16028, Note_off_c, 2, 79, 64
4, 16032, Note_on_c, 2, 76, 92
4, 16124, Note_off_c, 2, 64, 64
4, 16124, Note_off_c, 2, 60, 64
4, 16124, Note_off_c, 2, 67, 64
4, 16124, Note_off_c, 2, 76, 64
4, 16128, Note_on_c, 2, 77, 92
4, 16128, Note_on_c, 2, 69, 92
4, 16128, Note_on_c, 2, 65, 92
4, 16316, Note_off_c, 2, 77, 64
4, 16316, Note_off_c, 2, 69, 64
4, 16316, Note_off_c, 2, 65, 64
4, 16512, Note_on_c, 2, 81, 92
4, 16512, Note_on_c, 2, 69, 92
4, 16700, Note_off_c, 2, 81, 64
4, 16700, Note_off_c, 2, 69, 64
4, 16704, Note_on_c, 2, 70, 92
4, 16704, Note_on_c, 2, 82, 92
4, 16748, Note_off_c, 2, 70, 64
4, 16748, Note_off_c, 2, 82, 64
4, 16752, Note_on_c, 2, 81, 92
4, 16752, Note_on_c, 2, 69, 92
4, 16796, Note_off_c, 2, 81, 64
4, 16796, Note_off_c, 2, 69, 64
4, 16800, Note_on_c, 2, 82, 92
4, 16800, Note_on_c, 2, 70, 92
4, 16844, Note_off_c, 2, 82, 64
4, 16844, Note_off_c, 2, 70, 64
4, 16848, Note_on_c, 2, 67, 92
4, 16848, Note_on_c, 2, 79, 92
4, 16892, Note_off_c, 2, 67, 64
4, 16892, Note_off_c, 2, 79, 64
4, 16896, Note_on_c, 2, 84, 92
4, 16896, Note_on_c, 2, 72, 92
4, 17084, Note_off_c, 2, 84, 64
4, 17084, Note_off_c, 2, 72, 64
4, 17280, Note_on_c, 2, 81, 92
4, 17280, Note_on_c, 2, 77, 92
4, 17468, Note_off_c, 2, 81, 64
4, 17468, Note_off_c, 2, 77, 64
4, 17472, Note_on_c, 2, 82, 92
4, 17472, Note_on_c, 2, 79, 92
4, 17516, Note_off_c, 2, 82, 64
4, 17516, Note_off_c, 2, 79, 64
4, 17520, Note_on_c, 2, 81, 92
4, 17520, Note_on_c, 2, 77, 92
4, 17564, Note_off_c, 2, 81, 64
4, 17564, Note_off_c, 2, 77, 64
4, 17568, Note_on_c, 2, 82, 92
4, 17568, Note_on_c, 2, 79, 92
4, 17612, Note_off_c, 2, 82, 64
4, 17612, Note_off_c, 2, 79, 64
4, 17616, Note_on_c, 2, 79, 92
4, 17616, Note_on_c, 2, 76, 92
4, 17660, Note_off_c, 2, 79, 64
4, 17660, Note_off_c, 2, 76, 64
4, 17664, Note_on_c, 2, 77, 92
4, 17756, Note_off_c, 2, 77, 64
4, 17760, Note_on_c, 2, 72, 92
4, 17760, Note_on_c, 2, 69, 92
4, 17852, Note_off_c, 2, 72, 64
4, 17852, Note_off_c, 2, 69, 64
4, 17856, Note_on_c, 2, 72, 92
4, 17856, Note_on_c, 2, 69, 92
4, 17900, Note_off_c, 2, 72, 64
4, 17900, Note_off_c, 2, 69, 64
4, 17952, Note_on_c, 2, 72, 92
4, 17952, Note_on_c, 2, 69, 92
4, 17996, Note_off_c, 2, 72, 64
4, 17996, Note_off_c, 2, 69, 64
4, 18048, Note_on_c, 2, 72, 92
4, 18048, Note_on_c, 2, 69, 92
4, 18236, Note_off_c, 2, 72, 64
4, 18236, Note_off_c, 2, 69, 64
4, 20160, Note_on_c, 2, 70, 60
4, 20160, Note_on_c, 2, 67, 60
4, 20160, Note_on_c, 2, 64, 60
4, 20252, Note_off_c, 2, 70, 64
4, 20252, Note_off_c, 2, 67, 64
4, 20252, Note_off_c, 2, 64, 64
4, 20352, Note_on_c, 2, 70, 60
4, 20352, Note_on_c, 2, 67, 60
4, 20352, Note_on_c, 2, 64, 60
4, 20444, Note_off_c, 2, 70, 64
4, 20444, Note_off_c, 2, 67, 64
4, 20444, Note_off_c, 2, 64, 64
4, 20544, Note_on_c, 2, 70, 60
4, 20544, Note_on_c, 2, 67, 60
4, 20544, Note_on_c, 2, 64, 60
4, 20636, Note_off_c, 2, 70, 64
4, 20636, Note_off_c, 2, 67, 64
4, 20636, Note_off_c, 2, 64, 64
4, 20928, Note_on_c, 2, 69, 66
4, 20928, Note_on_c, 2, 65, 66
4, 21020, Note_off_c, 2, 69, 64
4, 21020, Note_off_c, 2, 65, 64
4, 21120, Note_on_c, 2, 69, 72
4, 21120, Note_on_c, 2, 65, 72
4, 21120, Note_on_c, 2, 60, 72
4, 21212, Note_off_c, 2, 69, 64
4, 21212, Note_off_c, 2, 65, 64
4, 21212, Note_off_c, 2, 60, 64
4, 21312, Note_on_c, 2, 69, 85
4, 21312, Note_on_c, 2, 65, 85
4, 21312, Note_on_c, 2, 60, 85
4, 21404, Note_off_c, 2, 69, 64
4, 21404, Note_off_c, 2, 65, 64
4, 21404, Note_off_c, 2, 60, 64
4, 21696, Note_on_c, 2, 70, 60
4, 21696, Note_on_c, 2, 67, 60
4, 21696, Note_on_c, 2, 64, 60
4, 21788, Note_off_c, 2, 70, 64
4, 21788, Note_off_c, 2, 67, 64
4, 21788, Note_off_c, 2, 64, 64
4, 21888, Note_on_c, 2, 70, 60
4, 21888, Note_on_c, 2, 67, 60
4, 21888, Note_on_c, 2, 64, 60
4, 21980, Note_off_c, 2, 70, 64
4, 21980, Note_off_c, 2, 67, 64
4, 21980, Note_off_c, 2, 64, 64
4, 22080, Note_on_c, 2, 70, 60
4, 22080, Note_on_c, 2, 67, 60
4, 22080, Note_on_c, 2, 64, 60
4, 22172, Note_off_c, 2, 70, 64
4, 22172, Note_off_c, 2, 67, 64
4, 22172, Note_off_c, 2, 64, 64
4, 22272, Note_on_c, 2, 69, 60
4, 22272, Note_on_c, 2, 65, 60
4, 22460, Note_off_c, 2, 69, 64
4, 22460, Note_off_c, 2, 65, 64
4, 25056, Note_on_c, 2, 79, 60
4, 25056, Note_on_c, 2, 82, 60
4, 25148, Note_off_c, 2, 79, 64
4, 25148, Note_off_c, 2, 82, 64
4, 25152, Note_on_c, 2, 81, 60
4, 25152, Note_on_c, 2, 84, 60
4, 25244, Note_off_c, 2, 81, 64
4, 25244, Note_off_c, 2, 84, 64
4, 25248, Note_on_c, 2, 82, 60
4, 25248, Note_on_c, 2, 86, 60
4, 25340, Note_off_c, 2, 82, 64
4, 25340, Note_off_c, 2, 86, 64
4, 25344, Note_on_c, 2, 72, 60
4, 25344, Note_on_c, 2, 81, 60
4, 25344, Note_on_c, 2, 84, 60
4, 25436, Note_off_c, 2, 72, 64
4, 25436, Note_off_c, 2, 81, 64
4, 25440, Note_on_c, 2, 76, 60
4, 25440, Note_on_c, 2, 82, 60
4, 25532, Note_off_c, 2, 76, 64
4, 25532, Note_off_c, 2, 82, 64
4, 25536, Note_on_c, 2, 77, 60
4, 25536, Note_on_c, 2, 81, 60
4, 25580, Note_off_c, 2, 77, 64
4, 25580, Note_off_c, 2, 81, 64
4, 25628, Note_off_c, 2, 84, 64
4, 25632, Note_on_c, 2, 77, 60
4, 25632, Note_on_c, 2, 86, 60
4, 25676, Note_off_c, 2, 77, 64
4, 25676, Note_off_c, 2, 86, 64
4, 25728, Note_on_c, 2, 77, 78
4, 25728, Note_on_c, 2, 72, 78
4, 25916, Note_off_c, 2, 77, 64
4, 25916, Note_off_c, 2, 72, 64
4, 25920, Note_on_c, 2, 76, 75
4, 25920, Note_on_c, 2, 72, 75
4, 25920, Note_on_c, 2, 67, 75
4, 26108, Note_off_c, 2, 76, 64
4, 26108, Note_off_c, 2, 72, 64
4, 26108, Note_off_c, 2, 67, 64
4, 26112, Note_on_c, 2, 77, 60
4, 26112, Note_on_c, 2, 72, 60
4, 26112, Note_on_c, 2, 69, 60
4, 26204, Note_off_c, 2, 77, 64
4, 26204, Note_off_c, 2, 72, 64
4, 26204, Note_off_c, 2, 69, 64
4, 26304, Note_on_c, 2, 72, 60
4, 26304, Note_on_c, 2, 69, 60
4, 26304, Note_on_c, 2, 65, 60
4, 26396, Note_off_c, 2, 72, 64
4, 26396, Note_off_c, 2, 69, 64
4, 26396, Note_off_c, 2, 65, 64
4, 26496, Note_on_c, 2, 72, 60
4, 26496, Note_on_c, 2, 69, 60
4, 26496, Note_on_c, 2, 65, 60
4, 26588, Note_off_c, 2, 72, 64
4, 26588, Note_off_c, 2, 69, 64
4, 26588, Note_off_c, 2, 65, 64
4, 26688, Note_on_c, 2, 72, 60
4, 26688, Note_on_c, 2, 69, 60
4, 26688, Note_on_c, 2, 65, 60
4, 26780, Note_off_c, 2, 72, 64
4, 26780, Note_off_c, 2, 69, 64
4, 26780, Note_off_c, 2, 65, 64
4, 27072, Note_on_c, 2, 71, 60
4, 27072, Note_on_c, 2, 67, 60
4, 27072, Note_on_c, 2, 62, 60
4, 27164, Note_off_c, 2, 71, 64
4, 27164, Note_off_c, 2, 67, 64
4, 27164, Note_off_c, 2, 62, 64
4, 27264, Note_on_c, 2, 71, 60
4, 27264, Note_on_c, 2, 67, 60
4, 27264, Note_on_c, 2, 62, 60
4, 27356, Note_off_c, 2, 71, 64
4, 27356, Note_off_c, 2, 67, 64
4, 27356, Note_off_c, 2, 62, 64
4, 27456, Note_on_c, 2, 71, 60
4, 27456, Note_on_c, 2, 67, 60
4, 27456, Note_on_c, 2, 62, 60
4, 27548, Note_off_c, 2, 71, 64
4, 27548, Note_off_c, 2, 67, 64
4, 27548, Note_off_c, 2, 62, 64
4, 27840, Note_on_c, 2, 72, 60
4, 27840, Note_on_c, 2, 67, 60
4, 27840, Note_on_c, 2, 64, 60
4, 27932, Note_off_c, 2, 72, 64
4, 27932, Note_off_c, 2, 67, 64
4, 27932, Note_off_c, 2, 64, 64
4, 28032, Note_on_c, 2, 72, 60
4, 28032, Note_on_c, 2, 67, 60
4, 28032, Note_on_c, 2, 64, 60
4, 28124, Note_off_c, 2, 72, 64
4, 28124, Note_off_c, 2, 67, 64
4, 28124, Note_off_c, 2, 64, 64
4, 28224, Note_on_c, 2, 72, 60
4, 28224, Note_on_c, 2, 67, 60
4, 28224, Note_on_c, 2, 64, 60
4, 28316, Note_off_c, 2, 72, 64
4, 28316, Note_off_c, 2, 67, 64
4, 28316, Note_off_c, 2, 64, 64
4, 28608, Note_on_c, 2, 71, 60
4, 28608, Note_on_c, 2, 67, 60
4, 28608, Note_on_c, 2, 65, 60
4, 28700, Note_off_c, 2, 71, 64
4, 28700, Note_off_c, 2, 67, 64
4, 28700, Note_off_c, 2, 65, 64
4, 28800, Note_on_c, 2, 71, 60
4, 28800, Note_on_c, 2, 67, 60
4, 28800, Note_on_c, 2, 65, 60
4, 28892, Note_off_c, 2, 71, 64
4, 28892, Note_off_c, 2, 67, 64
4, 28892, Note_off_c, 2, 65, 64
4, 28992, Note_on_c, 2, 71, 60
4, 28992, Note_on_c, 2, 67, 60
4, 28992, Note_on_c, 2, 65, 60
4, 29084, Note_off_c, 2, 71, 64
4, 29084, Note_off_c, 2, 67, 64
4, 29084, Note_off_c, 2, 65, 64
4, 29376, Note_on_c, 2, 74, 60
4, 29376, Note_on_c, 2, 67, 60
4, 29376, Note_on_c, 2, 65, 60
4, 29468, Note_off_c, 2, 74, 64
4, 29468, Note_off_c, 2, 67, 64
4, 29468, Note_off_c, 2, 65, 64
4, 29568, Note_on_c, 2, 74, 60
4, 29568, Note_on_c, 2, 67, 60
4, 29568, Note_on_c, 2, 65, 60
4, 29660, Note_off_c, 2, 74, 64
4, 29660, Note_off_c, 2, 67, 64
4, 29660, Note_off_c, 2, 65, 64
4, 29760, Note_on_c, 2, 74, 60
4, 29760, Note_on_c, 2, 67, 60
4, 29760, Note_on_c, 2, 65, 60
4, 29852, Note_off_c, 2, 74, 64
4, 29852, Note_off_c, 2, 67, 64
4, 29852, Note_off_c, 2, 65, 64
4, 30144, Note_on_c, 2, 72, 60
4, 30144, Note_on_c, 2, 67, 60
4, 30144, Note_on_c, 2, 64, 60
4, 30236, Note_off_c, 2, 72, 64
4, 30236, Note_off_c, 2, 67, 64
4, 30236, Note_off_c, 2, 64, 64
4, 30336, Note_on_c, 2, 72, 60
4, 30336, Note_on_c, 2, 67, 60
4, 30336, Note_on_c, 2, 64, 60
4, 30428, Note_off_c, 2, 72, 64
4, 30428, Note_off_c, 2, 67, 64
4, 30428, Note_off_c, 2, 64, 64
4, 30528, Note_on_c, 2, 72, 60
4, 30528, Note_on_c, 2, 67, 60
4, 30528, Note_on_c, 2, 64, 60
4, 30620, Note_off_c, 2, 72, 64
4, 30620, Note_off_c, 2, 67, 64
4, 30620, Note_off_c, 2, 64, 64
4, 30912, Note_on_c, 2, 76, 66
4, 30912, Note_on_c, 2, 64, 66
4, 31100, Note_off_c, 2, 76, 64
4, 31100, Note_off_c, 2, 64, 64
4, 31104, Note_on_c, 2, 79, 72
4, 31104, Note_on_c, 2, 67, 72
4, 31292, Note_off_c, 2, 79, 64
4, 31292, Note_off_c, 2, 67, 64
4, 31296, Note_on_c, 2, 84, 85
4, 31296, Note_on_c, 2, 72, 85
4, 31484, Note_off_c, 2, 84, 64
4, 31484, Note_off_c, 2, 72, 64
4, 31680, Note_on_c, 2, 74, 66
4, 31680, Note_on_c, 2, 62, 66
4, 31868, Note_off_c, 2, 74, 64
4, 31868, Note_off_c, 2, 62, 64
4, 31872, Note_on_c, 2, 77, 72
4, 31872, Note_on_c, 2, 65, 72
4, 32060, Note_off_c, 2, 77, 64
4, 32060, Note_off_c, 2, 65, 64
4, 32064, Note_on_c, 2, 81, 85
4, 32064, Note_on_c, 2, 69, 85
4, 32252, Note_off_c, 2, 81, 64
4, 32252, Note_off_c, 2, 69, 64
4, 32448, Note_on_c, 2, 84, 60
4, 32448, Note_on_c, 2, 72, 60
4, 32636, Note_off_c, 2, 84, 64
4, 32636, Note_off_c, 2, 72, 64
4, 32640, Note_on_c, 2, 81, 60
4, 32640, Note_on_c, 2, 69, 60
4, 32828, Note_off_c, 2, 81, 64
4, 32828, Note_off_c, 2, 69, 64
4, 32832, Note_on_c, 2, 78, 60
4, 32832, Note_on_c, 2, 66, 60
4, 33020, Note_off_c, 2, 78, 64
4, 33020, Note_off_c, 2, 66, 64
4, 33216, Note_on_c, 2, 78, 74
4, 33216, Note_on_c, 2, 66, 74
4, 33404, Note_off_c, 2, 78, 64
4, 33404, Note_off_c, 2, 66, 64
4, 33408, Note_on_c, 2, 79, 60
4, 33408, Note_on_c, 2, 67, 60
4, 33596, Note_off_c, 2, 79, 64
4, 33596, Note_off_c, 2, 67, 64
4, 33600, Note_on_c, 2, 67, 60
4, 33740, Note_off_c, 2, 67, 64
4, 33744, Note_on_c, 2, 65, 60
4, 33788, Note_off_c, 2, 65, 64
4, 33792, Note_on_c, 2, 64, 61
4, 33884, Note_off_c, 2, 64, 64
4, 33888, Note_on_c, 2, 67, 66
4, 33980, Note_off_c, 2, 67, 64
4, 33984, Note_on_c, 2, 72, 69
4, 34076, Note_off_c, 2, 72, 64
4, 34080, Note_on_c, 2, 76, 72
4, 34172, Note_off_c, 2, 76, 64
4, 34176, Note_on_c, 2, 79, 74
4, 34268, Note_off_c, 2, 79, 64
4, 35136, Note_on_c, 2, 67, 60
4, 35276, Note_off_c, 2, 67, 64
4, 35280, Note_on_c, 2, 65, 60
4, 35324, Note_off_c, 2, 65, 64
4, 35328, Note_on_c, 2, 64, 60
4, 35420, Note_off_c, 2, 64, 64
4, 35424, Note_on_c, 2, 67, 60
4, 35516, Note_off_c, 2, 67, 64
4, 35520, Note_on_c, 2, 72, 60
4, 35612, Note_off_c, 2, 72, 64
4, 35616, Note_on_c, 2, 76, 60
4, 35708, Note_off_c, 2, 76, 64
4, 35712, Note_on_c, 2, 79, 60
4, 35804, Note_off_c, 2, 79, 64
4, 38400, Note_on_c, 2, 71, 60
4, 38400, Note_on_c, 2, 65, 60
4, 38400, Note_on_c, 2, 67, 60
4, 38780, Note_off_c, 2, 71, 64
4, 38780, Note_off_c, 2, 65, 64
4, 38784, Note_on_c, 2, 72, 60
4, 38784, Note_on_c, 2, 64, 60
4, 38972, Note_off_c, 2, 67, 64
4, 39164, Note_off_c, 2, 72, 64
4, 39164, Note_off_c, 2, 64, 64
4, 39168, Note_on_c, 2, 83, 74
4, 39168, Note_on_c, 2, 77, 74
4, 39168, Note_on_c, 2, 67, 60
4, 39548, Note_off_c, 2, 83, 64
4, 39548, Note_off_c, 2, 77, 64
4, 39552, Note_on_c, 2, 84, 60
4, 39552, Note_on_c, 2, 76, 60
4, 39740, Note_off_c, 2, 67, 64
4, 39932, Note_off_c, 2, 84, 64
4, 39932, Note_off_c, 2, 76, 64
4, 40704, Note_on_c, 2, 82, 74
4, 40704, Note_on_c, 2, 79, 74
4, 40704, Note_on_c, 2, 70, 74
4, 40892, Note_off_c, 2, 82, 64
4, 40892, Note_off_c, 2, 79, 64
4, 40892, Note_off_c, 2, 70, 64
4, 40896, Note_on_c, 2, 81, 74
4, 40896, Note_on_c, 2, 77, 74
4, 40896, Note_on_c, 2, 69, 74
4, 41084, Note_off_c, 2, 81, 64
4, 41084, Note_off_c, 2, 77, 64
4, 41084, Note_off_c, 2, 69, 64
4, 42240, Note_on_c, 2, 72, 60
4, 42240, Note_on_c, 2, 67, 60
4, 42240, Note_on_c, 2, 64, 60
4, 42428, Note_off_c, 2, 72, 64
4, 42428, Note_off_c, 2, 67, 64
4, 42428, Note_off_c, 2, 64, 64
4, 42816, Note_on_c, 2, 77, 60
4, 42816, Note_on_c, 2, 74, 60
4, 42816, Note_on_c, 2, 67, 60
4, 42908, Note_off_c, 2, 77, 64
4, 42908, Note_off_c, 2, 74, 64
4, 42908, Note_off_c, 2, 67, 64
4, 43008, Note_on_c, 2, 76, 60
4, 43008, Note_on_c, 2, 72, 60
4, 43008, Note_on_c, 2, 67, 60
4, 43100, Note_off_c, 2, 76, 64
4, 43100, Note_off_c, 2, 72, 64
4, 43100, Note_off_c, 2, 67, 64
4, 43584, Note_on_c, 2, 77, 60
4, 43584, Note_on_c, 2, 74, 60
4, 43584, Note_on_c, 2, 67, 60
4, 43676, Note_off_c, 2, 77, 64
4, 43676, Note_off_c, 2, 74, 64
4, 43676, Note_off_c, 2, 67, 64
4, 43776, Note_on_c, 2, 76, 60
4, 43776, Note_on_c, 2, 72, 60
4, 43776, Note_on_c, 2, 67, 60
4, 43868, Note_off_c, 2, 76, 64
4, 43868, Note_off_c, 2, 72, 64
4, 43868, Note_off_c, 2, 67, 64
4, 44352, Note_on_c, 2, 70, 60
4, 44352, Note_on_c, 2, 67, 60
4, 44352, Note_on_c, 2, 64, 60
4, 44444, Note_off_c, 2, 70, 64
4, 44444, Note_off_c, 2, 67, 64
4, 44444, Note_off_c, 2, 64, 64
4, 44544, Note_on_c, 2, 69, 60
4, 44544, Note_on_c, 2, 65, 60
4, 44636, Note_off_c, 2, 69, 64
4, 44636, Note_off_c, 2, 65, 64
4, 44928, Note_on_c, 2, 81, 60
4, 44928, Note_on_c, 2, 72, 60
4, 45020, Note_off_c, 2, 81, 64
4, 45020, Note_off_c, 2, 72, 64
4, 45408, Note_on_c, 2, 76, 60
4, 45408, Note_on_c, 2, 72, 60
4, 45452, Note_off_c, 2, 76, 64
4, 45452, Note_off_c, 2, 72, 64
4, 45504, Note_on_c, 2, 76, 60
4, 45504, Note_on_c, 2, 72, 60
4, 45548, Note_off_c, 2, 76, 64
4, 45548, Note_off_c, 2, 72, 64
4, 45600, Note_on_c, 2, 76, 60
4, 45600, Note_on_c, 2, 72, 60
4, 45644, Note_off_c, 2, 76, 64
4, 45644, Note_off_c, 2, 72, 64
4, 45696, Note_on_c, 2, 72, 60
4, 45696, Note_on_c, 2, 64, 60
4, 45740, Note_off_c, 2, 72, 64
4, 45740, Note_off_c, 2, 64, 64
4, 45792, Note_on_c, 2, 72, 60
4, 45792, Note_on_c, 2, 64, 60
4, 45836, Note_off_c, 2, 72, 64
4, 45836, Note_off_c, 2, 64, 64
4, 45888, Note_on_c, 2, 72, 60
4, 45888, Note_on_c, 2, 64, 60
4, 45932, Note_off_c, 2, 72, 64
4, 45932, Note_off_c, 2, 64, 64
4, 45984, Note_on_c, 2, 72, 60
4, 45984, Note_on_c, 2, 64, 60
4, 46028, Note_off_c, 2, 72, 64
4, 46028, Note_off_c, 2, 64, 64
4, 46080, Note_on_c, 2, 79, 60
4, 46080, Note_on_c, 2, 67, 60
4, 46124, Note_off_c, 2, 79, 64
4, 46124, Note_off_c, 2, 67, 64
4, 46176, Note_on_c, 2, 79, 60
4, 46176, Note_on_c, 2, 67, 60
4, 46220, Note_off_c, 2, 79, 64
4, 46220, Note_off_c, 2, 67, 64
4, 46272, Note_on_c, 2, 79, 60
4, 46272, Note_on_c, 2, 67, 60
4, 46316, Note_off_c, 2, 79, 64
4, 46316, Note_off_c, 2, 67, 64
4, 46368, Note_on_c, 2, 79, 66
4, 46368, Note_on_c, 2, 67, 66
4, 46412, Note_off_c, 2, 79, 64
4, 46412, Note_off_c, 2, 67, 64
4, 46464, Note_on_c, 2, 71, 73
4, 46464, Note_on_c, 2, 65, 73
4, 46464, Note_on_c, 2, 62, 73
4, 46508, Note_off_c, 2, 71, 64
4, 46508, Note_off_c, 2, 65, 64
4, 46508, Note_off_c, 2, 62, 64
4, 46560, Note_on_c, 2, 71, 86
4, 46560, Note_on_c, 2, 65, 86
4, 46560, Note_on_c, 2, 62, 86
4, 46604, Note_off_c, 2, 71, 64
4, 46604, Note_off_c, 2, 65, 64
4, 46604, Note_off_c, 2, 62, 64
4, 46656, Note_on_c, 2, 71, 92
4, 46656, Note_on_c, 2, 65, 92
4, 46656, Note_on_c, 2, 62, 92
4, 46700, Note_off_c, 2, 71, 64
4, 46700, Note_off_c, 2, 65, 64
4, 46700, Note_off_c, 2, 62, 64
4, 46752, Note_on_c, 2, 71, 104
4, 46752, Note_on_c, 2, 65, 104
4, 46752, Note_on_c, 2, 62, 104
4, 46796, Note_off_c, 2, 71, 64
4, 46796, Note_off_c, 2, 65, 64
4, 46796, Note_off_c, 2, 62, 64
4, 46848, Note_on_c, 2, 72, 109
4, 46848, Note_on_c, 2, 64, 109
4, 46892, Note_off_c, 2, 64, 64
4, 46896, Note_on_c, 2, 67, 109
4, 46940, Note_off_c, 2, 67, 64
4, 46944, Note_on_c, 2, 64, 109
4, 46988, Note_off_c, 2, 64, 64
4, 46992, Note_on_c, 2, 67, 109
4, 47036, Note_off_c, 2, 67, 64
4, 47040, Note_on_c, 2, 64, 109
4, 47084, Note_off_c, 2, 64, 64
4, 47088, Note_on_c, 2, 67, 109
4, 47132, Note_off_c, 2, 67, 64
4, 47136, Note_on_c, 2, 64, 109
4, 47180, Note_off_c, 2, 64, 64
4, 47184, Note_off_c, 2, 72, 64
4, 47184, Note_on_c, 2, 84, 109
4, 47184, Note_on_c, 2, 79, 109
4, 47184, Note_on_c, 2, 72, 109
4, 47228, Note_off_c, 2, 84, 64
4, 47228, Note_off_c, 2, 79, 64
4, 47228, Note_off_c, 2, 72, 64
4, 47232, Note_on_c, 2, 77, 109
4, 47232, Note_on_c, 2, 83, 109
4, 47276, Note_off_c, 2, 77, 64
4, 47280, Note_on_c, 2, 79, 109
4, 47324, Note_off_c, 2, 79, 64
4, 47328, Note_on_c, 2, 77, 109
4, 47372, Note_off_c, 2, 83, 64
4, 47372, Note_off_c, 2, 77, 64
4, 47376, Note_on_c, 2, 76, 109
4, 47376, Note_on_c, 2, 84, 109
4, 47420, Note_off_c, 2, 76, 64
4, 47420, Note_off_c, 2, 84, 64
4, 47424, Note_on_c, 2, 77, 109
4, 47424, Note_on_c, 2, 83, 109
4, 47468, Note_off_c, 2, 77, 64
4, 47472, Note_on_c, 2, 79, 109
4, 47516, Note_off_c, 2, 79, 64
4, 47520, Note_on_c, 2, 77, 109
4, 47564, Note_off_c, 2, 83, 64
4, 47564, Note_off_c, 2, 77, 64
4, 47568, Note_on_c, 2, 76, 109
4, 47568, Note_on_c, 2, 84, 109
4, 47612, Note_off_c, 2, 76, 64
4, 47612, Note_off_c, 2, 84, 64
4, 47616, Note_on_c, 2, 77, 109
4, 47616, Note_on_c, 2, 74, 109
4, 47660, Note_off_c, 2, 74, 64
4, 47664, Note_on_c, 2, 79, 109
4, 47708, Note_off_c, 2, 79, 64
4, 47712, Note_on_c, 2, 79, 109
4, 47736, Note_off_c, 2, 79, 64
4, 47760, Note_on_c, 2, 79, 109
4, 47784, Note_off_c, 2, 79, 64
4, 47804, Note_off_c, 2, 77, 64
4, 47808, Note_on_c, 2, 76, 109
4, 47808, Note_on_c, 2, 72, 109
4, 47852, Note_off_c, 2, 72, 64
4, 47856, Note_on_c, 2, 79, 109
4, 47900, Note_off_c, 2, 79, 64
4, 47904, Note_on_c, 2, 79, 109
4, 47928, Note_off_c, 2, 79, 64
4, 47952, Note_on_c, 2, 79, 109
4, 47976, Note_off_c, 2, 79, 64
4, 47996, Note_off_c, 2, 76, 64
4, 48000, Note_on_c, 2, 83, 109
4, 48000, Note_on_c, 2, 77, 109
4, 48044, Note_off_c, 2, 77, 64
4, 48048, Note_on_c, 2, 79, 109
4, 48092, Note_off_c, 2, 79, 64
4, 48096, Note_on_c, 2, 77, 109
4, 48140, Note_off_c, 2, 83, 64
4, 48140, Note_off_c, 2, 77, 64
4, 48144, Note_on_c, 2, 76, 109
4, 48144, Note_on_c, 2, 84, 109
4, 48188, Note_off_c, 2, 76, 64
4, 48188, Note_off_c, 2, 84, 64
4, 48192, Note_on_c, 2, 77, 109
4, 48192, Note_on_c, 2, 83, 109
4, 48236, Note_off_c, 2, 77, 64
4, 48240, Note_on_c, 2, 79, 109
4, 48284, Note_off_c, 2, 79, 64
4, 48288, Note_on_c, 2, 77, 109
4, 48332, Note_off_c, 2, 83, 64
4, 48332, Note_off_c, 2, 77, 64
4, 48336, Note_on_c, 2, 76, 109
4, 48336, Note_on_c, 2, 84, 109
4, 48380, Note_off_c, 2, 76, 64
4, 48380, Note_off_c, 2, 84, 64
4, 48384, Note_on_c, 2, 82, 100
4, 48384, Note_on_c, 2, 79, 100
4, 48572, Note_off_c, 2, 82, 64
4, 48572, Note_off_c, 2, 79, 64
4, 48576, Note_on_c, 2, 81, 100
4, 48576, Note_on_c, 2, 77, 100
4, 48764, Note_off_c, 2, 81, 64
4, 48764, Note_off_c, 2, 77, 64
4, 48864, Note_on_c, 2, 74, 60
4, 48864, Note_on_c, 2, 71, 60
4, 48956, Note_off_c, 2, 74, 64
4, 48956, Note_off_c, 2, 71, 64
4, 48960, Note_on_c, 2, 76, 62
4, 48960, Note_on_c, 2, 72, 62
4, 49052, Note_off_c, 2, 76, 64
4, 49052, Note_off_c, 2, 72, 64
4, 49056, Note_on_c, 2, 77, 70
4, 49056, Note_on_c, 2, 74, 70
4, 49148, Note_off_c, 2, 77, 64
4, 49148, Note_off_c, 2, 74, 64
4, 49152, Note_on_c, 2, 76, 75
4, 49152, Note_on_c, 2, 67, 75
4, 49152, Note_on_c, 2, 79, 75
4, 49244, Note_off_c, 2, 76, 64
4, 49244, Note_off_c, 2, 67, 64
4, 49248, Note_on_c, 2, 74, 86
4, 49340, Note_off_c, 2, 74, 64
4, 49344, Note_on_c, 2, 72, 92
4, 49436, Note_off_c, 2, 79, 64
4, 49436, Note_off_c, 2, 72, 64
4, 49440, Note_on_c, 2, 77, 92
4, 49440, Note_on_c, 2, 81, 92
4, 49440, Note_on_c, 2, 69, 92
4, 49532, Note_off_c, 2, 77, 64
4, 49532, Note_off_c, 2, 81, 64
4, 49532, Note_off_c, 2, 69, 64
4, 49536, Note_on_c, 2, 64, 92
4, 49536, Note_on_c, 2, 72, 92
4, 49628, Note_off_c, 2, 64, 64
4, 49628, Note_off_c, 2, 72, 64
4, 49632, Note_on_c, 2, 76, 92
4, 49632, Note_on_c, 2, 67, 92
4, 49724, Note_off_c, 2, 76, 64
4, 49724, Note_off_c, 2, 67, 64
4, 49728, Note_on_c, 2, 74, 92
4, 49728, Note_on_c, 2, 65, 92
4, 49820, Note_off_c, 2, 74, 64
4, 49820, Note_off_c, 2, 65, 64
4, 49824, Note_on_c, 2, 71, 92
4, 49824, Note_on_c, 2, 62, 92
4, 49916, Note_off_c, 2, 71, 64
4, 49916, Note_off_c, 2, 62, 64
4, 49920, Note_on_c, 2, 72, 92
4, 49920, Note_on_c, 2, 67, 92
4, 49920, Note_on_c, 2, 64, 92
4, 50108, Note_off_c, 2, 72, 64
4, 50108, Note_off_c, 2, 67, 64
4, 50108, Note_off_c, 2, 64, 64
4, 50304, Note_on_c, 2, 76, 60
4, 50396, Note_off_c, 2, 76, 64
4, 50496, Note_on_c, 2, 77, 60
4, 50540, Note_off_c, 2, 77, 64
4, 50544, Note_on_c, 2, 76, 60
4, 50588, Note_off_c, 2, 76, 64
4, 50592, Note_on_c, 2, 77, 60
4, 50636, Note_off_c, 2, 77, 64
4, 50640, Note_on_c, 2, 74, 60
4, 50684, Note_off_c, 2, 74, 64
4, 50688, Note_on_c, 2, 79, 60
4, 50780, Note_off_c, 2, 79, 64
4, 51072, Note_on_c, 2, 64, 92
4, 51072, Note_on_c, 2, 60, 92
4, 51164, Note_off_c, 2, 64, 64
4, 51164, Note_off_c, 2, 60, 64
4, 51264, Note_on_c, 2, 65, 92
4, 51264, Note_on_c, 2, 62, 92
4, 51308, Note_off_c, 2, 65, 64
4, 51308, Note_off_c, 2, 62, 64
4, 51312, Note_on_c, 2, 64, 92
4, 51312, Note_on_c, 2, 60, 92
4, 51356, Note_off_c, 2, 64, 64
4, 51356, Note_off_c, 2, 60, 64
4, 51360, Note_on_c, 2, 65, 92
4, 51360, Note_on_c, 2, 62, 92
4, 51404, Note_off_c, 2, 65, 64
4, 51404, Note_off_c, 2, 62, 64
4, 51408, Note_on_c, 2, 62, 92
4, 51408, Note_on_c, 2, 58, 92
4, 51452, Note_off_c, 2, 62, 64
4, 51452, Note_off_c, 2, 58, 64
4, 51456, Note_on_c, 2, 60, 92
4, 51644, Note_off_c, 2, 60, 64
4, 51840, Note_on_c, 2, 72, 51
4, 51840, Note_on_c, 2, 60, 51
4, 51884, Note_off_c, 2, 72, 64
4, 51884, Note_off_c, 2, 60, 64
4, 51936, Note_on_c, 2, 76, 51
4, 51936, Note_on_c, 2, 64, 51
4, 51980, Note_off_c, 2, 76, 64
4, 51980, Note_off_c, 2, 64, 64
4, 52032, Note_on_c, 2, 79, 51
4, 52032, Note_on_c, 2, 65, 51
4, 52076, Note_off_c, 2, 79, 64
4, 52076, Note_off_c, 2, 65, 64
4, 52608, Note_on_c, 2, 72, 51
4, 52608, Note_on_c, 2, 60, 51
4, 52652, Note_off_c, 2, 72, 64
4, 52652, Note_off_c, 2, 60, 64
4, 52704, Note_on_c, 2, 76, 51
4, 52704, Note_on_c, 2, 64, 51
4, 52748, Note_off_c, 2, 76, 64
4, 52748, Note_off_c, 2, 64, 64
4, 52800, Note_on_c, 2, 79, 51
4, 52800, Note_on_c, 2, 65, 51
4, 52844, Note_off_c, 2, 79, 64
4, 52844, Note_off_c, 2, 65, 64
4, 53376, Note_on_c, 2, 67, 51
4, 53376, Note_on_c, 2, 55, 51
4, 53420, Note_off_c, 2, 67, 64
4, 53420, Note_off_c, 2, 55, 64
4, 53472, Note_on_c, 2, 62, 51
4, 53472, Note_on_c, 2, 74, 51
4, 53516, Note_off_c, 2, 62, 64
4, 53516, Note_off_c, 2, 74, 64
4, 53568, Note_on_c, 2, 65, 51
4, 53568, Note_on_c, 2, 77, 51
4, 53612, Note_off_c, 2, 65, 64
4, 53612, Note_off_c, 2, 77, 64
4, 54144, Note_on_c, 2, 72, 51
4, 54144, Note_on_c, 2, 60, 51
4, 54188, Note_off_c, 2, 72, 64
4, 54188, Note_off_c, 2, 60, 64
4, 54240, Note_on_c, 2, 76, 51
4, 54240, Note_on_c, 2, 64, 51
4, 54284, Note_off_c, 2, 76, 64
4, 54284, Note_off_c, 2, 64, 64
4, 54336, Note_on_c, 2, 79, 51
4, 54336, Note_on_c, 2, 65, 51
4, 54380, Note_off_c, 2, 79, 64
4, 54380, Note_off_c, 2, 65, 64
4, 54912, Note_on_c, 2, 73, 51
4, 54912, Note_on_c, 2, 61, 51
4, 54956, Note_off_c, 2, 73, 64
4, 54956, Note_off_c, 2, 61, 64
4, 55008, Note_on_c, 2, 76, 51
4, 55008, Note_on_c, 2, 64, 51
4, 55052, Note_off_c, 2, 76, 64
4, 55052, Note_off_c, 2, 64, 64
4, 55104, Note_on_c, 2, 81, 51
4, 55104, Note_on_c, 2, 69, 51
4, 55148, Note_off_c, 2, 81, 64
4, 55148, Note_off_c, 2, 69, 64
4, 55680, Note_on_c, 2, 74, 51
4, 55680, Note_on_c, 2, 62, 51
4, 55724, Note_off_c, 2, 74, 64
4, 55724, Note_off_c, 2, 62, 64
4, 55776, Note_on_c, 2, 77, 51
4, 55776, Note_on_c, 2, 65, 51
4, 55820, Note_off_c, 2, 77, 64
4, 55820, Note_off_c, 2, 65, 64
4, 55872, Note_on_c, 2, 81, 51
4, 55872, Note_on_c, 2, 69, 51
4, 55916, Note_off_c, 2, 81, 64
4, 55916, Note_off_c, 2, 69, 64
4, 56448, Note_on_c, 2, 76, 51
4, 56448, Note_on_c, 2, 64, 51
4, 56492, Note_off_c, 2, 76, 64
4, 56492, Note_off_c, 2, 64, 64
4, 56544, Note_on_c, 2, 79, 51
4, 56544, Note_on_c, 2, 67, 51
4, 56588, Note_off_c, 2, 79, 64
4, 56588, Note_off_c, 2, 67, 64
4, 56640, Note_on_c, 2, 85, 51
4, 56640, Note_on_c, 2, 73, 51
4, 56684, Note_off_c, 2, 85, 64
4, 56684, Note_off_c, 2, 73, 64
4, 57024, Note_on_c, 2, 74, 51
4, 57024, Note_on_c, 2, 69, 51
4, 57024, Note_on_c, 2, 65, 51
4, 57212, Note_off_c, 2, 74, 64
4, 57212, Note_off_c, 2, 69, 64
4, 57212, Note_off_c, 2, 65, 64
4, 57216, Note_on_c, 2, 76, 51
4, 57216, Note_on_c, 2, 70, 51
4, 57216, Note_on_c, 2, 67, 51
4, 57404, Note_off_c, 2, 76, 64
4, 57404, Note_off_c, 2, 70, 64
4, 57404, Note_off_c, 2, 67, 64
4, 57408, Note_on_c, 2, 73, 51
4, 57408, Note_on_c, 2, 67, 51
4, 57408, Note_on_c, 2, 64, 51
4, 57596, Note_off_c, 2, 73, 64
4, 57596, Note_off_c, 2, 67, 64
4, 57596, Note_off_c, 2, 64, 64
4, 57600, Note_on_c, 2, 74, 51
4, 57600, Note_on_c, 2, 65, 51
4, 57692, Note_off_c, 2, 74, 64
4, 57692, Note_off_c, 2, 65, 64
4, 58176, Note_on_c, 2, 79, 51
4, 58176, Note_on_c, 2, 76, 51
4, 58176, Note_on_c, 2, 69, 51
4, 58268, Note_off_c, 2, 79, 64
4, 58268, Note_off_c, 2, 76, 64
4, 58268, Note_off_c, 2, 69, 64
4, 58368, Note_on_c, 2, 77, 51
4, 58368, Note_on_c, 2, 74, 51
4, 58368, Note_on_c, 2, 69, 51
4, 58460, Note_off_c, 2, 77, 64
4, 58460, Note_off_c, 2, 74, 64
4, 58460, Note_off_c, 2, 69, 64
4, 58560, Note_on_c, 2, 74, 51
4, 58560, Note_on_c, 2, 69, 51
4, 58560, Note_on_c, 2, 65, 51
4, 58652, Note_off_c, 2, 74, 64
4, 58652, Note_off_c, 2, 69, 64
4, 58652, Note_off_c, 2, 65, 64
4, 58752, Note_on_c, 2, 76, 51
4, 58752, Note_on_c, 2, 67, 51
4, 58752, Note_on_c, 2, 70, 51
4, 58844, Note_off_c, 2, 76, 64
4, 58844, Note_off_c, 2, 67, 64
4, 58844, Note_off_c, 2, 70, 64
4, 58944, Note_on_c, 2, 73, 51
4, 58944, Note_on_c, 2, 67, 51
4, 58944, Note_on_c, 2, 64, 51
4, 59036, Note_off_c, 2, 73, 64
4, 59036, Note_off_c, 2, 67, 64
4, 59036, Note_off_c, 2, 64, 64
4, 59136, Note_on_c, 2, 65, 60
4, 59136, Note_on_c, 2, 74, 60
4, 59228, Note_off_c, 2, 65, 64
4, 59228, Note_off_c, 2, 74, 64
4, 59712, Note_on_c, 2, 66, 60
4, 59712, Note_on_c, 2, 69, 60
4, 59712, Note_on_c, 2, 72, 60
4, 59804, Note_off_c, 2, 66, 64
4, 59804, Note_off_c, 2, 69, 64
4, 59804, Note_off_c, 2, 72, 64
4, 59904, Note_on_c, 2, 70, 60
4, 59904, Note_on_c, 2, 67, 60
4, 59996, Note_off_c, 2, 70, 64
4, 59996, Note_off_c, 2, 67, 64
4, 60864, Note_on_c, 2, 81, 60
4, 60864, Note_on_c, 2, 69, 60
4, 61052, Note_off_c, 2, 81, 64
4, 61052, Note_off_c, 2, 69, 64
4, 61056, Note_on_c, 2, 77, 60
4, 61056, Note_on_c, 2, 65, 60
4, 61244, Note_off_c, 2, 77, 64
4, 61244, Note_off_c, 2, 65, 64
4, 61248, Note_on_c, 2, 74, 60
4, 61248, Note_on_c, 2, 62, 60
4, 61436, Note_off_c, 2, 74, 64
4, 61436, Note_off_c, 2, 62, 64
4, 61632, Note_on_c, 2, 84, 61
4, 61632, Note_on_c, 2, 72, 61
4, 61820, Note_off_c, 2, 84, 64
4, 61820, Note_off_c, 2, 72, 64
4, 61824, Note_on_c, 2, 81, 70
4, 61824, Note_on_c, 2, 69, 70
4, 62012, Note_off_c, 2, 81, 64
4, 62012, Note_off_c, 2, 69, 64
4, 62016, Note_on_c, 2, 78, 78
4, 62016, Note_on_c, 2, 66, 78
4, 62204, Note_off_c, 2, 78, 64
4, 62204, Note_off_c, 2, 66, 64
4, 62208, Note_on_c, 2, 79, 74
4, 62208, Note_on_c, 2, 67, 74
4, 62300, Note_off_c, 2, 79, 64
4, 62300, Note_off_c, 2, 67, 64
4, 62976, Note_on_c, 2, 79, 74
4, 62976, Note_on_c, 2, 74, 74
4, 62976, Note_on_c, 2, 67, 74
4, 63068, Note_off_c, 2, 79, 64
4, 63068, Note_off_c, 2, 74, 64
4, 63068, Note_off_c, 2, 67, 64
4, 64320, Note_on_c, 2, 72, 92
4, 64508, Note_off_c, 2, 72, 64
4, 64512, Note_on_c, 2, 74, 92
4, 64512, Note_on_c, 2, 70, 92
4, 64604, Note_off_c, 2, 74, 64
4, 64604, Note_off_c, 2, 70, 64
4, 64608, Note_on_c, 2, 72, 92
4, 64608, Note_on_c, 2, 69, 92
4, 64700, Note_off_c, 2, 72, 64
4, 64700, Note_off_c, 2, 69, 64
4, 64704, Note_on_c, 2, 70, 92
4, 64704, Note_on_c, 2, 67, 92
4, 64796, Note_off_c, 2, 70, 64
4, 64796, Note_off_c, 2, 67, 64
4, 64800, Note_on_c, 2, 69, 92
4, 64800, Note_on_c, 2, 65, 92
4, 64892, Note_off_c, 2, 69, 64
4, 64892, Note_off_c, 2, 65, 64
4, 64896, Note_on_c, 2, 69, 92
4, 64896, Note_on_c, 2, 65, 92
4, 65084, Note_off_c, 2, 69, 64
4, 65084, Note_off_c, 2, 65, 64
4, 65088, Note_on_c, 2, 74, 92
4, 65088, Note_on_c, 2, 70, 92
4, 65276, Note_off_c, 2, 74, 64
4, 65276, Note_off_c, 2, 70, 64
4, 65280, Note_on_c, 2, 74, 92
4, 65280, Note_on_c, 2, 70, 92
4, 65660, Note_off_c, 2, 74, 64
4, 65660, Note_off_c, 2, 70, 64
4, 65664, Note_on_c, 2, 72, 92
4, 65664, Note_on_c, 2, 69, 92
4, 65852, Note_off_c, 2, 72, 64
4, 65852, Note_off_c, 2, 69, 64
4, 65856, Note_on_c, 2, 77, 92
4, 66044, Note_off_c, 2, 77, 64
4, 66048, Note_on_c, 2, 77, 92
4, 66140, Note_off_c, 2, 77, 64
4, 66144, Note_on_c, 2, 76, 92
4, 66236, Note_off_c, 2, 76, 64
4, 66240, Note_on_c, 2, 74, 92
4, 66332, Note_off_c, 2, 74, 64
4, 66336, Note_on_c, 2, 72, 92
4, 66428, Note_off_c, 2, 72, 64
4, 66432, Note_on_c, 2, 72, 92
4, 66620, Note_off_c, 2, 72, 64
4, 66624, Note_on_c, 2, 72, 92
4, 66812, Note_off_c, 2, 72, 64
4, 66816, Note_on_c, 2, 72, 92
4, 67388, Note_off_c, 2, 72, 64
4, 67776, Note_on_c, 2, 70, 60
4, 67776, Note_on_c, 2, 67, 60
4, 67776, Note_on_c, 2, 64, 60
4, 67868, Note_off_c, 2, 70, 64
4, 67868, Note_off_c, 2, 67, 64
4, 67868, Note_off_c, 2, 64, 64
4, 67968, Note_on_c, 2, 70, 60
4, 67968, Note_on_c, 2, 67, 60
4, 67968, Note_on_c, 2, 64, 60
4, 68060, Note_off_c, 2, 70, 64
4, 68060, Note_off_c, 2, 67, 64
4, 68060, Note_off_c, 2, 64, 64
4, 68160, Note_on_c, 2, 70, 60
4, 68160, Note_on_c, 2, 67, 60
4, 68160, Note_on_c, 2, 64, 60
4, 68252, Note_off_c, 2, 70, 64
4, 68252, Note_off_c, 2, 67, 64
4, 68252, Note_off_c, 2, 64, 64
4, 68544, Note_on_c, 2, 69, 60
4, 68544, Note_on_c, 2, 65, 60
4, 68636, Note_off_c, 2, 69, 64
4, 68636, Note_off_c, 2, 65, 64
4, 68736, Note_on_c, 2, 69, 66
4, 68736, Note_on_c, 2, 65, 66
4, 68736, Note_on_c, 2, 60, 66
4, 68828, Note_off_c, 2, 69, 64
4, 68828, Note_off_c, 2, 65, 64
4, 68828, Note_off_c, 2, 60, 64
4, 68928, Note_on_c, 2, 69, 72
4, 68928, Note_on_c, 2, 65, 72
4, 68928, Note_on_c, 2, 60, 72
4, 69020, Note_off_c, 2, 69, 64
4, 69020, Note_off_c, 2, 65, 64
4, 69020, Note_off_c, 2, 60, 64
4, 69312, Note_on_c, 2, 70, 60
4, 69312, Note_on_c, 2, 67, 60
4, 69312, Note_on_c, 2, 64, 60
4, 69312, Note_on_c, 2, 60, 60
4, 69404, Note_off_c, 2, 70, 64
4, 69404, Note_off_c, 2, 67, 64
4, 69404, Note_off_c, 2, 64, 64
4, 69404, Note_off_c, 2, 60, 64
4, 69504, Note_on_c, 2, 70, 60
4, 69504, Note_on_c, 2, 67, 60
4, 69504, Note_on_c, 2, 64, 60
4, 69504, Note_on_c, 2, 60, 60
4, 69596, Note_off_c, 2, 70, 64
4, 69596, Note_off_c, 2, 67, 64
4, 69596, Note_off_c, 2, 64, 64
4, 69596, Note_off_c, 2, 60, 64
4, 69696, Note_on_c, 2, 70, 60
4, 69696, Note_on_c, 2, 67, 60
4, 69696, Note_on_c, 2, 64, 60
4, 69696, Note_on_c, 2, 60, 60
4, 69788, Note_off_c, 2, 70, 64
4, 69788, Note_off_c, 2, 67, 64
4, 69788, Note_off_c, 2, 64, 64
4, 69788, Note_off_c, 2, 60, 64
4, 69888, Note_on_c, 2, 69, 60
4, 69888, Note_on_c, 2, 65, 60
4, 69888, Note_on_c, 2, 60, 60
4, 70076, Note_off_c, 2, 69, 64
4, 70076, Note_off_c, 2, 65, 64
4, 70076, Note_off_c, 2, 60, 64
4, 72672, Note_on_c, 2, 79, 60
4, 72672, Note_on_c, 2, 76, 60
4, 72764, Note_off_c, 2, 79, 64
4, 72764, Note_off_c, 2, 76, 64
4, 72768, Note_on_c, 2, 81, 60
4, 72768, Note_on_c, 2, 77, 60
4, 72860, Note_off_c, 2, 81, 64
4, 72860, Note_off_c, 2, 77, 64
4, 72864, Note_on_c, 2, 82, 60
4, 72864, Note_on_c, 2, 79, 60
4, 72956, Note_off_c, 2, 82, 64
4, 72956, Note_off_c, 2, 79, 64
4, 72960, Note_on_c, 2, 81, 60
4, 72960, Note_on_c, 2, 84, 60
4, 73052, Note_off_c, 2, 81, 64
4, 73056, Note_on_c, 2, 79, 66
4, 73056, Note_on_c, 2, 76, 66
4, 73148, Note_off_c, 2, 79, 64
4, 73148, Note_off_c, 2, 76, 64
4, 73152, Note_on_c, 2, 81, 73
4, 73152, Note_on_c, 2, 77, 73
4, 73244, Note_off_c, 2, 84, 64
4, 73244, Note_off_c, 2, 81, 64
4, 73244, Note_off_c, 2, 77, 64
4, 73248, Note_on_c, 2, 86, 86
4, 73248, Note_on_c, 2, 77, 86
4, 73340, Note_off_c, 2, 86, 64
4, 73340, Note_off_c, 2, 77, 64
4, 73344, Note_on_c, 2, 77, 88
4, 73344, Note_on_c, 2, 72, 88
4, 73532, Note_off_c, 2, 77, 64
4, 73532, Note_off_c, 2, 72, 64
4, 73536, Note_on_c, 2, 76, 62
4, 73536, Note_on_c, 2, 72, 62
4, 73536, Note_on_c, 2, 67, 62
4, 73724, Note_off_c, 2, 76, 64
4, 73724, Note_off_c, 2, 72, 64
4, 73724, Note_off_c, 2, 67, 64
4, 73728, Note_on_c, 2, 77, 60
4, 73728, Note_on_c, 2, 72, 60
4, 73728, Note_on_c, 2, 69, 60
4, 73820, Note_off_c, 2, 77, 64
4, 73820, Note_off_c, 2, 72, 64
4, 73820, Note_off_c, 2, 69, 64
4, 73920, Note_on_c, 2, 72, 60
4, 73920, Note_on_c, 2, 69, 60
4, 73920, Note_on_c, 2, 65, 60
4, 74012, Note_off_c, 2, 72, 64
4, 74012, Note_off_c, 2, 69, 64
4, 74012, Note_off_c, 2, 65, 64
4, 74112, Note_on_c, 2, 72, 60
4, 74112, Note_on_c, 2, 69, 60
4, 74112, Note_on_c, 2, 65, 60
4, 74204, Note_off_c, 2, 72, 64
4, 74204, Note_off_c, 2, 69, 64
4, 74204, Note_off_c, 2, 65, 64
4, 74304, Note_on_c, 2, 72, 60
4, 74304, Note_on_c, 2, 69, 60
4, 74304, Note_on_c, 2, 65, 60
4, 74396, Note_off_c, 2, 72, 64
4, 74396, Note_off_c, 2, 69, 64
4, 74396, Note_off_c, 2, 65, 64
4, 74688, Note_on_c, 2, 75, 66
4, 74688, Note_on_c, 2, 72, 66
4, 74688, Note_on_c, 2, 65, 66
4, 74780, Note_off_c, 2, 75, 64
4, 74780, Note_off_c, 2, 72, 64
4, 74780, Note_off_c, 2, 65, 64
4, 74880, Note_on_c, 2, 75, 72
4, 74880, Note_on_c, 2, 70, 72
4, 74880, Note_on_c, 2, 67, 72
4, 74972, Note_off_c, 2, 75, 64
4, 74972, Note_off_c, 2, 70, 64
4, 74972, Note_off_c, 2, 67, 64
4, 75072, Note_on_c, 2, 75, 78
4, 75072, Note_on_c, 2, 70, 78
4, 75072, Note_on_c, 2, 67, 78
4, 75164, Note_off_c, 2, 75, 64
4, 75164, Note_off_c, 2, 70, 64
4, 75164, Note_off_c, 2, 67, 64
4, 75456, Note_on_c, 2, 69, 87
4, 75456, Note_on_c, 2, 63, 87
4, 75456, Note_on_c, 2, 60, 87
4, 75644, Note_off_c, 2, 69, 64
4, 75644, Note_off_c, 2, 63, 64
4, 75644, Note_off_c, 2, 60, 64
4, 75648, Note_on_c, 2, 63, 92
4, 75648, Note_on_c, 2, 60, 92
4, 75648, Note_on_c, 2, 57, 92
4, 75836, Note_off_c, 2, 63, 64
4, 75836, Note_off_c, 2, 60, 64
4, 75836, Note_off_c, 2, 57, 64
4, 75840, Note_on_c, 2, 63, 70
4, 75840, Note_on_c, 2, 60, 70
4, 75840, Note_on_c, 2, 57, 70
4, 75932, Note_off_c, 2, 63, 64
4, 75932, Note_off_c, 2, 60, 64
4, 75932, Note_off_c, 2, 57, 64
4, 76224, Note_on_c, 2, 62, 60
4, 76224, Note_on_c, 2, 60, 60
4, 76224, Note_on_c, 2, 57, 60
4, 76316, Note_off_c, 2, 62, 64
4, 76316, Note_off_c, 2, 60, 64
4, 76316, Note_off_c, 2, 57, 64
4, 76416, Note_on_c, 2, 62, 60
4, 76416, Note_on_c, 2, 60, 60
4, 76416, Note_on_c, 2, 57, 60
4, 76508, Note_off_c, 2, 62, 64
4, 76508, Note_off_c, 2, 60, 64
4, 76508, Note_off_c, 2, 57, 64
4, 76608, Note_on_c, 2, 62, 60
4, 76608, Note_on_c, 2, 60, 60
4, 76608, Note_on_c, 2, 57, 60
4, 76700, Note_off_c, 2, 62, 64
4, 76700, Note_off_c, 2, 60, 64
4, 76700, Note_off_c, 2, 57, 64
4, 76992, Note_on_c, 2, 70, 66
4, 76992, Note_on_c, 2, 62, 66
4, 76992, Note_on_c, 2, 58, 66
4, 77180, Note_off_c, 2, 70, 64
4, 77180, Note_off_c, 2, 62, 64
4, 77180, Note_off_c, 2, 58, 64
4, 77184, Note_on_c, 2, 70, 69
4, 77184, Note_on_c, 2, 67, 69
4, 77184, Note_on_c, 2, 62, 69
4, 77372, Note_off_c, 2, 70, 64
4, 77372, Note_off_c, 2, 67, 64
4, 77372, Note_off_c, 2, 62, 64
4, 77376, Note_on_c, 2, 70, 74
4, 77376, Note_on_c, 2, 67, 74
4, 77376, Note_on_c, 2, 62, 74
4, 77468, Note_off_c, 2, 70, 64
4, 77468, Note_off_c, 2, 67, 64
4, 77468, Note_off_c, 2, 62, 64
4, 77760, Note_on_c, 2, 79, 60
4, 77760, Note_on_c, 2, 72, 60
4, 77760, Note_on_c, 2, 70, 60
4, 78140, Note_off_c, 2, 79, 64
4, 78140, Note_off_c, 2, 72, 64
4, 78140, Note_off_c, 2, 70, 64
4, 78144, Note_on_c, 2, 82, 74
4, 78144, Note_on_c, 2, 79, 74
4, 78144, Note_on_c, 2, 76, 74
4, 78144, Note_on_c, 2, 72, 74
4, 78332, Note_off_c, 2, 82, 64
4, 78332, Note_off_c, 2, 79, 64
4, 78332, Note_off_c, 2, 76, 64
4, 78332, Note_off_c, 2, 72, 64
4, 78336, Note_on_c, 2, 81, 74
4, 78336, Note_on_c, 2, 77, 74
4, 78336, Note_on_c, 2, 72, 74
4, 78336, Note_on_c, 2, 69, 74
4, 78524, Note_off_c, 2, 81, 64
4, 78524, Note_off_c, 2, 77, 64
4, 78524, Note_off_c, 2, 72, 64
4, 78524, Note_off_c, 2, 69, 64
4, 78528, Note_on_c, 2, 77, 60
4, 78528, Note_on_c, 2, 65, 60
4, 78716, Note_off_c, 2, 77, 64
4, 78716, Note_off_c, 2, 65, 64
4, 78720, Note_on_c, 2, 81, 60
4, 78720, Note_on_c, 2, 69, 60
4, 78908, Note_off_c, 2, 81, 64
4, 78908, Note_off_c, 2, 69, 64
4, 78912, Note_on_c, 2, 84, 60
4, 78912, Note_on_c, 2, 72, 60
4, 79100, Note_off_c, 2, 84, 64
4, 79100, Note_off_c, 2, 72, 64
4, 79104, Note_on_c, 2, 62, 60
4, 79292, Note_off_c, 2, 62, 64
4, 79296, Note_on_c, 2, 79, 60
4, 79296, Note_on_c, 2, 67, 60
4, 79484, Note_off_c, 2, 79, 64
4, 79484, Note_off_c, 2, 67, 64
4, 79488, Note_on_c, 2, 82, 60
4, 79488, Note_on_c, 2, 70, 60
4, 79664, Note_on_c, 2, 74, 60
4, 79676, Note_off_c, 2, 82, 64
4, 79676, Note_off_c, 2, 70, 64
4, 79680, Note_on_c, 2, 86, 60
4, 79852, Note_off_c, 2, 74, 64
4, 79868, Note_off_c, 2, 86, 64
4, 79872, Note_on_c, 2, 62, 60
4, 80060, Note_off_c, 2, 62, 64
4, 80064, Note_on_c, 2, 77, 60
4, 80064, Note_on_c, 2, 65, 60
4, 80252, Note_off_c, 2, 77, 64
4, 80252, Note_off_c, 2, 65, 64
4, 80256, Note_on_c, 2, 74, 60
4, 80256, Note_on_c, 2, 62, 60
4, 80444, Note_off_c, 2, 74, 64
4, 80444, Note_off_c, 2, 62, 64
4, 80448, Note_on_c, 2, 71, 60
4, 80448, Note_on_c, 2, 59, 60
4, 80636, Note_off_c, 2, 71, 64
4, 80636, Note_off_c, 2, 59, 64
4, 80832, Note_on_c, 2, 83, 60
4, 80832, Note_on_c, 2, 77, 60
4, 80832, Note_on_c, 2, 71, 60
4, 81020, Note_off_c, 2, 83, 64
4, 81020, Note_off_c, 2, 77, 64
4, 81020, Note_off_c, 2, 71, 64
4, 81024, Note_on_c, 2, 84, 60
4, 81024, Note_on_c, 2, 76, 60
4, 81024, Note_on_c, 2, 72, 60
4, 81212, Note_off_c, 2, 84, 64
4, 81212, Note_off_c, 2, 76, 64
4, 81212, Note_off_c, 2, 72, 64
4, 81216, Note_on_c, 2, 60, 60
4, 81356, Note_off_c, 2, 60, 64
4, 81360, Note_on_c, 2, 58, 60
4, 81404, Note_off_c, 2, 58, 64
4, 81408, Note_on_c, 2, 57, 60
4, 81500, Note_off_c, 2, 57, 64
4, 81504, Note_on_c, 2, 60, 62
4, 81596, Note_off_c, 2, 60, 64
4, 81600, Note_on_c, 2, 65, 66
4, 81692, Note_off_c, 2, 65, 64
4, 81696, Note_on_c, 2, 69, 66
4, 81788, Note_off_c, 2, 69, 64
4, 81792, Note_on_c, 2, 72, 69
4, 81980, Note_off_c, 2, 72, 64
4, 82752, Note_on_c, 2, 60, 72
4, 82892, Note_off_c, 2, 60, 64
4, 82896, Note_on_c, 2, 58, 72
4, 82940, Note_off_c, 2, 58, 64
4, 82944, Note_on_c, 2, 57, 72
4, 83036, Note_off_c, 2, 57, 64
4, 83040, Note_on_c, 2, 60, 72
4, 83132, Note_off_c, 2, 60, 64
4, 83136, Note_on_c, 2, 65, 72
4, 83228, Note_off_c, 2, 65, 64
4, 83232, Note_on_c, 2, 69, 72
4, 83324, Note_off_c, 2, 69, 64
4, 83328, Note_on_c, 2, 72, 72
4, 83516, Note_off_c, 2, 72, 64
4, 86016, Note_on_c, 2, 76, 72
4, 86016, Note_on_c, 2, 70, 72
4, 86396, Note_off_c, 2, 76, 64
4, 86396, Note_off_c, 2, 70, 64
4, 86400, Note_on_c, 2, 77, 60
4, 86400, Note_on_c, 2, 69, 60
4, 86588, Note_off_c, 2, 77, 64
4, 86588, Note_off_c, 2, 69, 64
4, 86784, Note_on_c, 2, 82, 72
4, 86784, Note_on_c, 2, 76, 72
4, 86784, Note_on_c, 2, 72, 72
4, 87164, Note_off_c, 2, 82, 64
4, 87164, Note_off_c, 2, 76, 64
4, 87168, Note_on_c, 2, 81, 60
4, 87168, Note_on_c, 2, 77, 60
4, 87356, Note_off_c, 2, 72, 64
4, 87356, Note_off_c, 2, 81, 64
4, 87356, Note_off_c, 2, 77, 64
4, 88320, Note_on_c, 2, 65, 92
4, 88320, Note_on_c, 2, 63, 92
4, 88320, Note_on_c, 2, 60, 92
4, 88508, Note_off_c, 2, 65, 64
4, 88508, Note_off_c, 2, 63, 64
4, 88508, Note_off_c, 2, 60, 64
4, 88512, Note_on_c, 2, 65, 92
4, 88512, Note_on_c, 2, 62, 92
4, 88700, Note_off_c, 2, 65, 64
4, 88700, Note_off_c, 2, 62, 64
4, 89856, Note_on_c, 2, 77, 60
4, 89856, Note_on_c, 2, 72, 60
4, 89856, Note_on_c, 2, 69, 60
4, 89948, Note_off_c, 2, 77, 64
4, 89948, Note_off_c, 2, 72, 64
4, 89948, Note_off_c, 2, 69, 64
4, 90432, Note_on_c, 2, 82, 60
4, 90432, Note_on_c, 2, 79, 60
4, 90432, Note_on_c, 2, 72, 60
4, 90524, Note_off_c, 2, 82, 64
4, 90524, Note_off_c, 2, 79, 64
4, 90524, Note_off_c, 2, 72, 64
4, 90624, Note_on_c, 2, 81, 60
4, 90624, Note_on_c, 2, 77, 60
4, 90624, Note_on_c, 2, 72, 60
4, 90716, Note_off_c, 2, 81, 64
4, 90716, Note_off_c, 2, 77, 64
4, 90716, Note_off_c, 2, 72, 64
4, 91200, Note_on_c, 2, 70, 60
4, 91200, Note_on_c, 2, 67, 60
4, 91200, Note_on_c, 2, 60, 60
4, 91292, Note_off_c, 2, 70, 64
4, 91292, Note_off_c, 2, 67, 64
4, 91292, Note_off_c, 2, 60, 64
4, 91392, Note_on_c, 2, 69, 60
4, 91392, Note_on_c, 2, 65, 60
4, 91392, Note_on_c, 2, 60, 60
4, 91484, Note_off_c, 2, 69, 64
4, 91484, Note_off_c, 2, 65, 64
4, 91484, Note_off_c, 2, 60, 64
4, 91968, Note_on_c, 2, 75, 60
4, 91968, Note_on_c, 2, 72, 60
4, 91968, Note_on_c, 2, 65, 60
4, 92060, Note_off_c, 2, 75, 64
4, 92060, Note_off_c, 2, 72, 64
4, 92060, Note_off_c, 2, 65, 64
4, 92160, Note_on_c, 2, 74, 61
4, 92160, Note_on_c, 2, 70, 61
4, 92160, Note_on_c, 2, 65, 61
4, 92252, Note_off_c, 2, 74, 64
4, 92252, Note_off_c, 2, 70, 64
4, 92252, Note_off_c, 2, 65, 64
4, 92544, Note_on_c, 2, 77, 66
4, 92544, Note_on_c, 2, 67, 66
4, 92636, Note_off_c, 2, 77, 64
4, 92636, Note_off_c, 2, 67, 64
4, 93024, Note_on_c, 2, 72, 69
4, 93024, Note_on_c, 2, 69, 69
4, 93068, Note_off_c, 2, 72, 64
4, 93068, Note_off_c, 2, 69, 64
4, 93120, Note_on_c, 2, 72, 70
4, 93120, Note_on_c, 2, 69, 70
4, 93164, Note_off_c, 2, 72, 64
4, 93164, Note_off_c, 2, 69, 64
4, 93216, Note_on_c, 2, 72, 70
4, 93216, Note_on_c, 2, 69, 70
4, 93260, Note_off_c, 2, 72, 64
4, 93260, Note_off_c, 2, 69, 64
4, 93312, Note_on_c, 2, 69, 72
4, 93312, Note_on_c, 2, 65, 72
4, 93356, Note_off_c, 2, 69, 64
4, 93356, Note_off_c, 2, 65, 64
4, 93408, Note_on_c, 2, 69, 72
4, 93408, Note_on_c, 2, 65, 72
4, 93452, Note_off_c, 2, 69, 64
4, 93452, Note_off_c, 2, 65, 64
4, 93504, Note_on_c, 2, 69, 73
4, 93504, Note_on_c, 2, 65, 73
4, 93548, Note_off_c, 2, 69, 64
4, 93548, Note_off_c, 2, 65, 64
4, 93600, Note_on_c, 2, 69, 73
4, 93600, Note_on_c, 2, 65, 73
4, 93644, Note_off_c, 2, 69, 64
4, 93644, Note_off_c, 2, 65, 64
4, 93696, Note_on_c, 2, 70, 74
4, 93696, Note_on_c, 2, 64, 74
4, 93788, Note_off_c, 2, 70, 64
4, 93788, Note_off_c, 2, 64, 64
4, 93792, Note_on_c, 2, 70, 74
4, 93792, Note_on_c, 2, 64, 74
4, 93884, Note_off_c, 2, 70, 64
4, 93884, Note_off_c, 2, 64, 64
4, 93888, Note_on_c, 2, 70, 75
4, 93888, Note_on_c, 2, 64, 75
4, 93980, Note_off_c, 2, 70, 64
4, 93980, Note_off_c, 2, 64, 64
4, 93984, Note_on_c, 2, 70, 75
4, 93984, Note_on_c, 2, 64, 75
4, 94076, Note_off_c, 2, 70, 64
4, 94076, Note_off_c, 2, 64, 64
4, 94080, Note_on_c, 2, 76, 62
4, 94080, Note_on_c, 2, 70, 62
4, 94172, Note_off_c, 2, 76, 64
4, 94172, Note_off_c, 2, 70, 64
4, 94176, Note_on_c, 2, 76, 70
4, 94176, Note_on_c, 2, 70, 70
4, 94268, Note_off_c, 2, 76, 64
4, 94268, Note_off_c, 2, 70, 64
4, 94272, Note_on_c, 2, 76, 78
4, 94272, Note_on_c, 2, 70, 78
4, 94364, Note_off_c, 2, 76, 64
4, 94364, Note_off_c, 2, 70, 64
4, 94368, Note_on_c, 2, 76, 88
4, 94368, Note_on_c, 2, 70, 88
4, 94460, Note_off_c, 2, 76, 64
4, 94460, Note_off_c, 2, 70, 64
4, 94464, Note_on_c, 2, 77, 92
4, 94464, Note_on_c, 2, 69, 92
4, 94556, Note_off_c, 2, 77, 64
4, 94556, Note_off_c, 2, 69, 64
4, 94560, Note_on_c, 2, 69, 92
4, 94560, Note_on_c, 2, 72, 92
4, 94652, Note_off_c, 2, 69, 64
4, 94652, Note_off_c, 2, 72, 64
4, 94656, Note_on_c, 2, 69, 92
4, 94656, Note_on_c, 2, 72, 92
4, 95036, Note_off_c, 2, 69, 64
4, 95036, Note_off_c, 2, 72, 64
4, 95040, Note_on_c, 2, 73, 72
4, 95040, Note_on_c, 2, 69, 72
4, 95228, Note_off_c, 2, 73, 64
4, 95228, Note_off_c, 2, 69, 64
4, 95232, Note_on_c, 2, 70, 60
4, 95232, Note_on_c, 2, 73, 60
4, 95324, Note_off_c, 2, 70, 64
4, 95324, Note_off_c, 2, 73, 64
4, 95328, Note_on_c, 2, 74, 60
4, 95420, Note_off_c, 2, 74, 64
4, 95424, Note_on_c, 2, 76, 60
4, 95516, Note_off_c, 2, 76, 64
4, 95520, Note_on_c, 2, 77, 60
4, 95612, Note_off_c, 2, 77, 64
4, 95616, Note_on_c, 2, 76, 60
4, 95708, Note_off_c, 2, 76, 64
4, 95712, Note_on_c, 2, 74, 60
4, 95804, Note_off_c, 2, 74, 64
4, 95808, Note_on_c, 2, 72, 60
4, 95900, Note_off_c, 2, 72, 64
4, 95904, Note_on_c, 2, 70, 60
4, 95996, Note_off_c, 2, 70, 64
4, 96000, Note_on_c, 2, 69, 60
4, 96000, Note_on_c, 2, 61, 60
4, 96092, Note_off_c, 2, 69, 64
4, 96092, Note_off_c, 2, 61, 64
4, 96096, Note_on_c, 2, 70, 60
4, 96096, Note_on_c, 2, 62, 60
4, 96188, Note_off_c, 2, 70, 64
4, 96188, Note_off_c, 2, 62, 64
4, 96192, Note_on_c, 2, 72, 60
4, 96192, Note_on_c, 2, 64, 60
4, 96284, Note_off_c, 2, 72, 64
4, 96284, Note_off_c, 2, 64, 64
4, 96288, Note_on_c, 2, 74, 60
4, 96288, Note_on_c, 2, 65, 60
4, 96380, Note_off_c, 2, 74, 64
4, 96380, Note_off_c, 2, 65, 64
4, 96384, Note_on_c, 2, 72, 66
4, 96384, Note_on_c, 2, 64, 66
4, 96476, Note_off_c, 2, 72, 64
4, 96476, Note_off_c, 2, 64, 64
4, 96480, Note_on_c, 2, 70, 72
4, 96480, Note_on_c, 2, 62, 72
4, 96572, Note_off_c, 2, 70, 64
4, 96572, Note_off_c, 2, 62, 64
4, 96576, Note_on_c, 2, 69, 78
4, 96576, Note_on_c, 2, 60, 78
4, 96668, Note_off_c, 2, 69, 64
4, 96668, Note_off_c, 2, 60, 64
4, 96672, Note_on_c, 2, 67, 87
4, 96672, Note_on_c, 2, 58, 87
4, 96764, Note_off_c, 2, 67, 64
4, 96764, Note_off_c, 2, 58, 64
4, 96768, Note_on_c, 2, 66, 92
4, 96768, Note_on_c, 2, 63, 92
4, 96768, Note_on_c, 2, 57, 92
4, 96860, Note_off_c, 2, 66, 64
4, 96860, Note_off_c, 2, 63, 64
4, 96860, Note_off_c, 2, 57, 64
4, 96864, Note_on_c, 2, 67, 92
4, 96864, Note_on_c, 2, 62, 92
4, 96864, Note_on_c, 2, 58, 92
4, 96956, Note_off_c, 2, 67, 64
4, 96956, Note_off_c, 2, 62, 64
4, 96956, Note_off_c, 2, 58, 64
4, 96960, Note_on_c, 2, 66, 92
4, 96960, Note_on_c, 2, 63, 92
4, 96960, Note_on_c, 2, 57, 92
4, 97052, Note_off_c, 2, 66, 64
4, 97052, Note_off_c, 2, 63, 64
4, 97052, Note_off_c, 2, 57, 64
4, 97056, Note_on_c, 2, 67, 92
4, 97056, Note_on_c, 2, 62, 92
4, 97056, Note_on_c, 2, 58, 92
4, 97148, Note_off_c, 2, 67, 64
4, 97148, Note_off_c, 2, 62, 64
4, 97148, Note_off_c, 2, 58, 64
4, 97152, Note_on_c, 2, 74, 92
4, 97152, Note_on_c, 2, 70, 92
4, 97244, Note_off_c, 2, 74, 64
4, 97244, Note_off_c, 2, 70, 64
4, 97248, Note_on_c, 2, 67, 92
4, 97340, Note_off_c, 2, 67, 64
4, 97344, Note_on_c, 2, 74, 92
4, 97344, Note_on_c, 2, 70, 92
4, 97388, Note_off_c, 2, 74, 64
4, 97388, Note_off_c, 2, 70, 64
4, 97392, Note_on_c, 2, 67, 92
4, 97436, Note_off_c, 2, 67, 64
4, 97440, Note_on_c, 2, 74, 92
4, 97440, Note_on_c, 2, 70, 92
4, 97484, Note_off_c, 2, 74, 64
4, 97484, Note_off_c, 2, 70, 64
4, 97488, Note_on_c, 2, 67, 92
4, 97532, Note_off_c, 2, 67, 64
4, 97536, Note_on_c, 2, 69, 92
4, 97536, Note_on_c, 2, 65, 92
4, 97828, Note_off_c, 2, 69, 64
4, 97828, Note_off_c, 2, 65, 64
4, 111360, Note_on_c, 2, 57, 109
4, 111360, Note_on_c, 2, 65, 109
4, 111404, Note_off_c, 2, 57, 64
4, 111408, Note_on_c, 2, 60, 109
4, 111452, Note_off_c, 2, 60, 64
4, 111456, Note_on_c, 2, 57, 109
4, 111500, Note_off_c, 2, 57, 64
4, 111504, Note_on_c, 2, 60, 109
4, 111548, Note_off_c, 2, 60, 64
4, 111552, Note_on_c, 2, 57, 109
4, 111596, Note_off_c, 2, 57, 64
4, 111600, Note_on_c, 2, 60, 109
4, 111644, Note_off_c, 2, 60, 64
4, 111648, Note_on_c, 2, 57, 109
4, 111692, Note_off_c, 2, 57, 64
4, 111696, Note_off_c, 2, 65, 64
4, 111696, Note_on_c, 2, 65, 109
4, 111696, Note_on_c, 2, 77, 109
4, 111696, Note_on_c, 2, 72, 109
4, 111740, Note_off_c, 2, 65, 64
4, 111740, Note_off_c, 2, 77, 64
4, 111740, Note_off_c, 2, 72, 64
4, 111744, Note_on_c, 2, 70, 109
4, 111744, Note_on_c, 2, 76, 109
4, 111788, Note_off_c, 2, 70, 64
4, 111792, Note_on_c, 2, 72, 109
4, 111836, Note_off_c, 2, 72, 64
4, 111840, Note_on_c, 2, 70, 109
4, 111884, Note_off_c, 2, 76, 64
4, 111884, Note_off_c, 2, 70, 64
4, 111888, Note_on_c, 2, 69, 109
4, 111888, Note_on_c, 2, 77, 109
4, 111932, Note_off_c, 2, 69, 64
4, 111932, Note_off_c, 2, 77, 64
4, 111936, Note_on_c, 2, 70, 109
4, 111936, Note_on_c, 2, 76, 109
4, 111980, Note_off_c, 2, 70, 64
4, 111984, Note_on_c, 2, 72, 109
4, 112028, Note_off_c, 2, 72, 64
4, 112032, Note_on_c, 2, 70, 109
4, 112076, Note_off_c, 2, 76, 64
4, 112076, Note_off_c, 2, 70, 64
4, 112080, Note_on_c, 2, 69, 109
4, 112080, Note_on_c, 2, 77, 109
4, 112124, Note_off_c, 2, 69, 64
4, 112124, Note_off_c, 2, 77, 64
4, 112128, Note_on_c, 2, 67, 109
4, 112128, Note_on_c, 2, 67, 109
4, 112172, Note_off_c, 2, 67, 64
4, 112176, Note_on_c, 2, 72, 109
4, 112220, Note_off_c, 2, 72, 64
4, 112224, Note_on_c, 2, 72, 109
4, 112268, Note_off_c, 2, 72, 64
4, 112272, Note_on_c, 2, 72, 109
4, 112316, Note_off_c, 2, 67, 64
4, 112316, Note_off_c, 2, 72, 64
4, 112320, Note_on_c, 2, 69, 109
4, 112320, Note_on_c, 2, 69, 109
4, 112320, Note_on_c, 2, 69, 109
4, 112320, Note_on_c, 2, 69, 109
4, 112364, Note_off_c, 2, 69, 64
4, 112368, Note_on_c, 2, 72, 109
4, 112412, Note_off_c, 2, 72, 64
4, 112416, Note_on_c, 2, 72, 109
4, 112460, Note_off_c, 2, 69, 64
4, 112460, Note_off_c, 2, 69, 64
4, 112460, Note_off_c, 2, 69, 64
4, 112460, Note_off_c, 2, 72, 64
4, 112464, Note_on_c, 2, 72, 109
4, 112464, Note_on_c, 2, 77, 109
4, 112508, Note_off_c, 2, 72, 64
4, 112508, Note_off_c, 2, 77, 64
4, 112512, Note_on_c, 2, 70, 109
4, 112512, Note_on_c, 2, 76, 109
4, 112556, Note_off_c, 2, 70, 64
4, 112560, Note_on_c, 2, 72, 109
4, 112604, Note_off_c, 2, 72, 64
4, 112608, Note_on_c, 2, 70, 109
4, 112652, Note_off_c, 2, 76, 64
4, 112652, Note_off_c, 2, 70, 64
4, 112656, Note_on_c, 2, 69, 109
4, 112656, Note_on_c, 2, 77, 109
4, 112700, Note_off_c, 2, 69, 64
4, 112700, Note_off_c, 2, 77, 64
4, 112704, Note_on_c, 2, 70, 109
4, 112704, Note_on_c, 2, 76, 109
4, 112748, Note_off_c, 2, 70, 64
4, 112752, Note_on_c, 2, 72, 109
4, 112796, Note_off_c, 2, 72, 64
4, 112800, Note_on_c, 2, 70, 109
4, 112844, Note_off_c, 2, 76, 64
4, 112844, Note_off_c, 2, 70, 64
4, 112848, Note_on_c, 2, 69, 109
4, 112848, Note_on_c, 2, 77, 109
4, 112892, Note_off_c, 2, 69, 64
4, 112892, Note_off_c, 2, 77, 64
4, 112896, Note_on_c, 2, 75, 109
4, 112896, Note_on_c, 2, 72, 109
4, 113084, Note_off_c, 2, 75, 64
4, 113084, Note_off_c, 2, 72, 64
4, 113088, Note_on_c, 2, 74, 109
4, 113088, Note_on_c, 2, 70, 109
4, 113276, Note_off_c, 2, 74, 64
4, 113276, Note_off_c, 2, 70, 64
4, 113376, Note_on_c, 2, 79, 60
4, 113376, Note_on_c, 2, 76, 60
4, 113468, Note_off_c, 2, 79, 64
4, 113468, Note_off_c, 2, 76, 64
4, 113472, Note_on_c, 2, 81, 60
4, 113472, Note_on_c, 2, 77, 60
4, 113564, Note_off_c, 2, 81, 64
4, 113564, Note_off_c, 2, 77, 64
4, 113568, Note_on_c, 2, 82, 60
4, 113568, Note_on_c, 2, 79, 60
4, 113660, Note_off_c, 2, 82, 64
4, 113660, Note_off_c, 2, 79, 64
4, 113664, Note_on_c, 2, 72, 60
4, 113664, Note_on_c, 2, 84, 60
4, 113664, Note_on_c, 2, 81, 60
4, 113756, Note_off_c, 2, 72, 64
4, 113756, Note_off_c, 2, 81, 64
4, 113760, Note_on_c, 2, 79, 60
4, 113852, Note_off_c, 2, 79, 64
4, 113856, Note_on_c, 2, 77, 60
4, 113948, Note_off_c, 2, 84, 64
4, 113948, Note_off_c, 2, 77, 64
4, 113952, Note_on_c, 2, 74, 60
4, 113952, Note_on_c, 2, 79, 60
4, 113952, Note_on_c, 2, 86, 60
4, 114044, Note_off_c, 2, 74, 64
4, 114044, Note_off_c, 2, 79, 64
4, 114044, Note_off_c, 2, 86, 64
4, 114048, Note_on_c, 2, 77, 60
4, 114048, Note_on_c, 2, 69, 60
4, 114140, Note_off_c, 2, 77, 64
4, 114140, Note_off_c, 2, 69, 64
4, 114144, Note_on_c, 2, 81, 60
4, 114144, Note_on_c, 2, 72, 60
4, 114236, Note_off_c, 2, 81, 64
4, 114236, Note_off_c, 2, 72, 64
4, 114240, Note_on_c, 2, 79, 60
4, 114240, Note_on_c, 2, 70, 60
4, 114332, Note_off_c, 2, 79, 64
4, 114332, Note_off_c, 2, 70, 64
4, 114336, Note_on_c, 2, 76, 60
4, 114336, Note_on_c, 2, 67, 60
4, 114428, Note_off_c, 2, 76, 64
4, 114428, Note_off_c, 2, 67, 64
4, 114432, Note_on_c, 2, 77, 60
4, 114432, Note_on_c, 2, 69, 60
4, 114620, Note_off_c, 2, 77, 64
4, 114620, Note_off_c, 2, 69, 64
4, 114816, Note_on_c, 2, 81, 60
4, 114816, Note_on_c, 2, 69, 60
4, 114908, Note_off_c, 2, 81, 64
4, 114908, Note_off_c, 2, 69, 64
4, 115008, Note_on_c, 2, 82, 60
4, 115008, Note_on_c, 2, 70, 60
4, 115052, Note_off_c, 2, 82, 64
4, 115052, Note_off_c, 2, 70, 64
4, 115056, Note_on_c, 2, 81, 60
4, 115056, Note_on_c, 2, 69, 60
4, 115100, Note_off_c, 2, 81, 64
4, 115100, Note_off_c, 2, 69, 64
4, 115104, Note_on_c, 2, 82, 60
4, 115104, Note_on_c, 2, 70, 60
4, 115148, Note_off_c, 2, 82, 64
4, 115148, Note_off_c, 2, 70, 64
4, 115152, Note_on_c, 2, 79, 60
4, 115152, Note_on_c, 2, 67, 60
4, 115196, Note_off_c, 2, 79, 64
4, 115196, Note_off_c, 2, 67, 64
4, 115200, Note_on_c, 2, 84, 60
4, 115200, Note_on_c, 2, 72, 60
4, 115388, Note_off_c, 2, 84, 64
4, 115388, Note_off_c, 2, 72, 64
4, 115568, Note_on_c, 2, 65, 60
4, 115584, Note_on_c, 2, 69, 92
4, 115660, Note_off_c, 2, 65, 64
4, 115676, Note_off_c, 2, 69, 64
4, 115776, Note_on_c, 2, 70, 92
4, 115776, Note_on_c, 2, 67, 92
4, 115820, Note_off_c, 2, 70, 64
4, 115820, Note_off_c, 2, 67, 64
4, 115824, Note_on_c, 2, 69, 92
4, 115824, Note_on_c, 2, 65, 92
4, 115868, Note_off_c, 2, 69, 64
4, 115868, Note_off_c, 2, 65, 64
4, 115872, Note_on_c, 2, 70, 92
4, 115872, Note_on_c, 2, 67, 92
4, 115916, Note_off_c, 2, 70, 64
4, 115916, Note_off_c, 2, 67, 64
4, 115920, Note_on_c, 2, 67, 92
4, 115920, Note_on_c, 2, 64, 92
4, 115964, Note_off_c, 2, 67, 64
4, 115964, Note_off_c, 2, 64, 64
4, 115968, Note_on_c, 2, 65, 92
4, 115968, Note_on_c, 2, 65, 92
4, 116060, Note_off_c, 2, 65, 64
4, 116064, Note_on_c, 2, 60, 92
4, 116156, Note_off_c, 2, 65, 64
4, 116156, Note_off_c, 2, 60, 64
4, 116160, Note_on_c, 2, 60, 92
4, 116160, Note_on_c, 2, 57, 92
4, 116160, Note_on_c, 2, 65, 92
4, 116252, Note_off_c, 2, 60, 64
4, 116252, Note_off_c, 2, 57, 64
4, 116252, Note_off_c, 2, 65, 64
4, 116256, Note_on_c, 2, 60, 92
4, 116256, Note_on_c, 2, 57, 92
4, 116256, Note_on_c, 2, 65, 92
4, 116348, Note_off_c, 2, 60, 64
4, 116348, Note_off_c, 2, 57, 64
4, 116348, Note_off_c, 2, 65, 64
4, 116352, Note_on_c, 2, 65, 92
4, 116352, Note_on_c, 2, 60, 92
4, 116352, Note_on_c, 2, 57, 92
4, 116444, Note_off_c, 2, 65, 64
4, 116444, Note_off_c, 2, 60, 64
4, 116444, Note_off_c, 2, 57, 64
4, 116444, End_track
5, 0, Start_track
5, 0, Title_t, "B.Fisher"
5, 0, Control_c, 3, 0, 0
5, 0, Program_c, 3, 0
5, 0, Control_c, 3, 7, 127
5, 0, Control_c, 3, 10, 84
5, 0, Control_c, 3, 91, 67
5, 0, Control_c, 3, 93, 0
5, 0, Key_signature, -1, "major"
5, 0, Control_c, 3, 121, 0
5, 432, Control_c, 3, 10, 73
5, 480, Control_c, 3, 91, 63
5, 576, Program_c, 3, 48
5, 1536, Note_on_c, 3, 53, 60
5, 1536, Note_on_c, 3, 41, 60
5, 1724, Note_off_c, 3, 53, 64
5, 1728, Note_on_c, 3, 53, 60
5, 1916, Note_off_c, 3, 41, 64
5, 1916, Note_off_c, 3, 53, 64
5, 1920, Note_on_c, 3, 53, 60
5, 2108, Note_off_c, 3, 53, 64
5, 2112, Note_on_c, 3, 53, 60
5, 2300, Note_off_c, 3, 53, 64
5, 2304, Note_on_c, 3, 53, 63
5, 2396, Note_off_c, 3, 53, 64
5, 2400, Note_on_c, 3, 52, 62
5, 2400, Note_on_c, 3, 40, 62
5, 2492, Note_off_c, 3, 52, 64
5, 2492, Note_off_c, 3, 40, 64
5, 2496, Note_on_c, 3, 53, 57
5, 2496, Note_on_c, 3, 41, 57
5, 2588, Note_off_c, 3, 53, 64
5, 2588, Note_off_c, 3, 41, 64
5, 2592, Note_on_c, 3, 52, 56
5, 2592, Note_on_c, 3, 40, 56
5, 2684, Note_off_c, 3, 52, 64
5, 2684, Note_off_c, 3, 40, 64
5, 2688, Note_on_c, 3, 53, 54
5, 2688, Note_on_c, 3, 41, 54
5, 2780, Note_off_c, 3, 53, 64
5, 2784, Note_on_c, 3, 53, 54
5, 2876, Note_off_c, 3, 41, 64
5, 2876, Note_off_c, 3, 53, 64
5, 2880, Note_on_c, 3, 57, 54
5, 2972, Note_off_c, 3, 57, 64
5, 2976, Note_on_c, 3, 53, 54
5, 3068, Note_off_c, 3, 53, 64
5, 3072, Note_on_c, 3, 48, 54
5, 3264, Note_on_c, 3, 55, 54
5, 3264, Note_on_c, 3, 52, 54
5, 3452, Note_off_c, 3, 55, 64
5, 3452, Note_off_c, 3, 52, 64
5, 3456, Note_on_c, 3, 57, 55
5, 3456, Note_on_c, 3, 53, 55
5, 3644, Note_off_c, 3, 57, 64
5, 3644, Note_off_c, 3, 53, 64
5, 3648, Note_on_c, 3, 58, 57
5, 3648, Note_on_c, 3, 55, 57
5, 3836, Note_off_c, 3, 48, 64
5, 3836, Note_off_c, 3, 58, 64
5, 3836, Note_off_c, 3, 55, 64
5, 3840, Note_on_c, 3, 58, 69
5, 3840, Note_on_c, 3, 55, 69
5, 3840, Note_on_c, 3, 52, 69
5, 4032, Note_on_c, 3, 48, 60
5, 4220, Note_off_c, 3, 58, 64
5, 4220, Note_off_c, 3, 55, 64
5, 4220, Note_off_c, 3, 52, 64
5, 4220, Note_off_c, 3, 48, 64
5, 4224, Note_on_c, 3, 57, 60
5, 4224, Note_on_c, 3, 53, 60
5, 4412, Note_off_c, 3, 57, 64
5, 4412, Note_off_c, 3, 53, 64
5, 4608, Note_on_c, 3, 58, 60
5, 4608, Note_on_c, 3, 46, 60
5, 4988, Note_off_c, 3, 58, 64
5, 4988, Note_off_c, 3, 46, 64
5, 6144, Note_on_c, 3, 57, 80
5, 6144, Note_on_c, 3, 48, 80
5, 6236, Note_off_c, 3, 57, 64
5, 6236, Note_off_c, 3, 48, 64
5, 6240, Note_on_c, 3, 58, 80
5, 6240, Note_on_c, 3, 46, 80
5, 6332, Note_off_c, 3, 58, 64
5, 6332, Note_off_c, 3, 46, 64
5, 6336, Note_on_c, 3, 57, 80
5, 6336, Note_on_c, 3, 48, 80
5, 6428, Note_off_c, 3, 57, 64
5, 6428, Note_off_c, 3, 48, 64
5, 6432, Note_on_c, 3, 58, 80
5, 6432, Note_on_c, 3, 46, 80
5, 6524, Note_off_c, 3, 58, 64
5, 6524, Note_off_c, 3, 46, 64
5, 6720, Note_on_c, 3, 55, 80
5, 6720, Note_on_c, 3, 46, 80
5, 6812, Note_off_c, 3, 55, 64
5, 6816, Note_on_c, 3, 62, 80
5, 6908, Note_off_c, 3, 46, 64
5, 6908, Note_off_c, 3, 62, 64
5, 6912, Note_on_c, 3, 60, 80
5, 6912, Note_on_c, 3, 48, 80
5, 7100, Note_off_c, 3, 60, 64
5, 7100, Note_off_c, 3, 48, 64
5, 7104, Note_on_c, 3, 60, 80
5, 7292, Note_off_c, 3, 60, 64
5, 7296, Note_on_c, 3, 48, 60
5, 7484, Note_off_c, 3, 48, 64
5, 7680, Note_on_c, 3, 48, 62
5, 7724, Note_off_c, 3, 48, 64
5, 7776, Note_on_c, 3, 48, 66
5, 7820, Note_off_c, 3, 48, 64
5, 7872, Note_on_c, 3, 48, 69
5, 7916, Note_off_c, 3, 48, 64
5, 7968, Note_on_c, 3, 48, 75
5, 8012, Note_off_c, 3, 48, 64
5, 8064, Note_on_c, 3, 48, 78
5, 8108, Note_off_c, 3, 48, 64
5, 8160, Note_on_c, 3, 48, 82
5, 8204, Note_off_c, 3, 48, 64
5, 8256, Note_on_c, 3, 48, 87
5, 8256, Note_on_c, 3, 41, 87
5, 8300, Note_off_c, 3, 48, 64
5, 8352, Note_on_c, 3, 48, 92
5, 8396, Note_off_c, 3, 48, 64
5, 8444, Note_off_c, 3, 41, 64
5, 8448, Note_on_c, 3, 48, 92
5, 8448, Note_on_c, 3, 36, 92
5, 8492, Note_off_c, 3, 48, 64
5, 8544, Note_on_c, 3, 48, 86
5, 8588, Note_off_c, 3, 48, 64
5, 8640, Note_on_c, 3, 48, 81
5, 8684, Note_off_c, 3, 48, 64
5, 8736, Note_on_c, 3, 48, 78
5, 8780, Note_off_c, 3, 48, 64
5, 8828, Note_off_c, 3, 36, 64
5, 8832, Note_on_c, 3, 48, 75
5, 8876, Note_off_c, 3, 48, 64
5, 8928, Note_on_c, 3, 48, 73
5, 8972, Note_off_c, 3, 48, 64
5, 9024, Note_on_c, 3, 48, 67
5, 9024, Note_on_c, 3, 43, 67
5, 9024, Note_on_c, 3, 40, 67
5, 9068, Note_off_c, 3, 48, 64
5, 9120, Note_on_c, 3, 48, 64
5, 9164, Note_off_c, 3, 48, 64
5, 9212, Note_off_c, 3, 43, 64
5, 9212, Note_off_c, 3, 40, 64
5, 9216, Note_on_c, 3, 41, 62
5, 9216, Note_on_c, 3, 48, 62
5, 9260, Note_off_c, 3, 48, 64
5, 9312, Note_on_c, 3, 48, 66
5, 9356, Note_off_c, 3, 48, 64
5, 9408, Note_on_c, 3, 48, 69
5, 9452, Note_off_c, 3, 48, 64
5, 9504, Note_on_c, 3, 48, 75
5, 9548, Note_off_c, 3, 48, 64
5, 9596, Note_off_c, 3, 41, 64
5, 9600, Note_on_c, 3, 48, 78
5, 9644, Note_off_c, 3, 48, 64
5, 9696, Note_on_c, 3, 48, 82
5, 9740, Note_off_c, 3, 48, 64
5, 9792, Note_on_c, 3, 48, 87
5, 9792, Note_on_c, 3, 41, 87
5, 9836, Note_off_c, 3, 48, 64
5, 9888, Note_on_c, 3, 48, 92
5, 9932, Note_off_c, 3, 48, 64
5, 9980, Note_off_c, 3, 41, 64
5, 9984, Note_on_c, 3, 48, 92
5, 9984, Note_on_c, 3, 48, 92
5, 10028, Note_off_c, 3, 48, 64
5, 10080, Note_on_c, 3, 48, 84
5, 10124, Note_off_c, 3, 48, 64
5, 10176, Note_on_c, 3, 48, 80
5, 10220, Note_off_c, 3, 48, 64
5, 10272, Note_on_c, 3, 48, 75
5, 10316, Note_off_c, 3, 48, 64
5, 10364, Note_off_c, 3, 48, 64
5, 10368, Note_on_c, 3, 48, 69
5, 10556, Note_off_c, 3, 48, 64
5, 10560, Note_on_c, 3, 64, 60
5, 10560, Note_on_c, 3, 60, 60
5, 10748, Note_off_c, 3, 64, 64
5, 10748, Note_off_c, 3, 60, 64
5, 10752, Note_on_c, 3, 62, 62
5, 10752, Note_on_c, 3, 65, 62
5, 11132, Note_off_c, 3, 62, 64
5, 11132, Note_off_c, 3, 65, 64
5, 11136, Note_on_c, 3, 60, 68
5, 11136, Note_on_c, 3, 64, 68
5, 11516, Note_off_c, 3, 60, 64
5, 11516, Note_off_c, 3, 64, 64
5, 11520, Note_on_c, 3, 58, 76
5, 11520, Note_on_c, 3, 62, 76
5, 11900, Note_off_c, 3, 58, 64
5, 11900, Note_off_c, 3, 62, 64
5, 11904, Note_on_c, 3, 57, 84
5, 11904, Note_on_c, 3, 60, 84
5, 12284, Note_off_c, 3, 57, 64
5, 12284, Note_off_c, 3, 60, 64
5, 12288, Note_on_c, 3, 58, 82
5, 12288, Note_on_c, 3, 55, 82
5, 12332, Note_off_c, 3, 58, 64
5, 12336, Note_on_c, 3, 60, 82
5, 12380, Note_off_c, 3, 60, 64
5, 12384, Note_on_c, 3, 58, 82
5, 12428, Note_off_c, 3, 58, 64
5, 12432, Note_on_c, 3, 60, 82
5, 12476, Note_off_c, 3, 55, 64
5, 12476, Note_off_c, 3, 60, 64
5, 12480, Note_on_c, 3, 58, 82
5, 12480, Note_on_c, 3, 55, 82
5, 12480, Note_on_c, 3, 48, 82
5, 12524, Note_off_c, 3, 58, 64
5, 12528, Note_on_c, 3, 60, 82
5, 12572, Note_off_c, 3, 60, 64
5, 12576, Note_on_c, 3, 58, 82
5, 12620, Note_off_c, 3, 58, 64
5, 12624, Note_on_c, 3, 60, 82
5, 12668, Note_off_c, 3, 55, 64
5, 12668, Note_off_c, 3, 48, 64
5, 12668, Note_off_c, 3, 60, 64
5, 12672, Note_on_c, 3, 57, 60
5, 12672, Note_on_c, 3, 53, 60
5, 12716, Note_off_c, 3, 57, 64
5, 12720, Note_on_c, 3, 60, 60
5, 12764, Note_off_c, 3, 60, 64
5, 12768, Note_on_c, 3, 57, 60
5, 12812, Note_off_c, 3, 57, 64
5, 12816, Note_on_c, 3, 60, 60
5, 12860, Note_off_c, 3, 53, 64
5, 12860, Note_off_c, 3, 60, 64
5, 12864, Note_on_c, 3, 57, 60
5, 12908, Note_off_c, 3, 57, 64
5, 12912, Note_on_c, 3, 60, 60
5, 12956, Note_off_c, 3, 60, 64
5, 12960, Note_on_c, 3, 57, 60
5, 13004, Note_off_c, 3, 57, 64
5, 13008, Note_on_c, 3, 53, 60
5, 13052, Note_off_c, 3, 53, 64
5, 13056, Note_on_c, 3, 58, 82
5, 13056, Note_on_c, 3, 55, 82
5, 13100, Note_off_c, 3, 58, 64
5, 13104, Note_on_c, 3, 60, 82
5, 13148, Note_off_c, 3, 60, 64
5, 13152, Note_on_c, 3, 58, 82
5, 13196, Note_off_c, 3, 58, 64
5, 13200, Note_on_c, 3, 60, 82
5, 13244, Note_off_c, 3, 55, 64
5, 13244, Note_off_c, 3, 60, 64
5, 13248, Note_on_c, 3, 58, 82
5, 13248, Note_on_c, 3, 55, 82
5, 13248, Note_on_c, 3, 48, 82
5, 13292, Note_off_c, 3, 58, 64
5, 13296, Note_on_c, 3, 60, 82
5, 13340, Note_off_c, 3, 60, 64
5, 13344, Note_on_c, 3, 58, 82
5, 13388, Note_off_c, 3, 58, 64
5, 13392, Note_on_c, 3, 60, 82
5, 13436, Note_off_c, 3, 55, 64
5, 13436, Note_off_c, 3, 48, 64
5, 13436, Note_off_c, 3, 60, 64
5, 17280, Note_on_c, 3, 60, 84
5, 17280, Note_on_c, 3, 60, 84
5, 17468, Note_off_c, 3, 60, 64
5, 17472, Note_on_c, 3, 48, 84
5, 17564, Note_off_c, 3, 60, 64
5, 17568, Note_on_c, 3, 58, 84
5, 17660, Note_off_c, 3, 48, 64
5, 17660, Note_off_c, 3, 58, 64
5, 17664, Note_on_c, 3, 57, 84
5, 17664, Note_on_c, 3, 53, 84
5, 17852, Note_off_c, 3, 57, 64
5, 17852, Note_off_c, 3, 53, 64
5, 17856, Note_on_c, 3, 53, 84
5, 17856, Note_on_c, 3, 41, 84
5, 18044, Note_off_c, 3, 53, 64
5, 18044, Note_off_c, 3, 41, 64
5, 18048, Note_on_c, 3, 53, 84
5, 18048, Note_on_c, 3, 41, 84
5, 18236, Note_off_c, 3, 53, 64
5, 18236, Note_off_c, 3, 41, 64
5, 19968, Note_on_c, 3, 48, 60
5, 19968, Note_on_c, 3, 36, 60
5, 20156, Note_off_c, 3, 48, 64
5, 20156, Note_off_c, 3, 36, 64
5, 20352, Note_on_c, 3, 48, 60
5, 20352, Note_on_c, 3, 36, 60
5, 20540, Note_off_c, 3, 48, 64
5, 20540, Note_off_c, 3, 36, 64
5, 20736, Note_on_c, 3, 48, 63
5, 20736, Note_on_c, 3, 36, 63
5, 20924, Note_off_c, 3, 48, 64
5, 20924, Note_off_c, 3, 36, 64
5, 21120, Note_on_c, 3, 48, 76
5, 21120, Note_on_c, 3, 36, 76
5, 21308, Note_off_c, 3, 48, 64
5, 21308, Note_off_c, 3, 36, 64
5, 21504, Note_on_c, 3, 48, 60
5, 21504, Note_on_c, 3, 36, 60
5, 21692, Note_off_c, 3, 48, 64
5, 21692, Note_off_c, 3, 36, 64
5, 21888, Note_on_c, 3, 48, 60
5, 21888, Note_on_c, 3, 36, 60
5, 22076, Note_off_c, 3, 48, 64
5, 22076, Note_off_c, 3, 36, 64
5, 22272, Note_on_c, 3, 53, 60
5, 22272, Note_on_c, 3, 41, 60
5, 22460, Note_off_c, 3, 53, 64
5, 22460, Note_off_c, 3, 41, 64
5, 25440, Note_on_c, 3, 55, 60
5, 25440, Note_on_c, 3, 43, 60
5, 25532, Note_off_c, 3, 55, 64
5, 25532, Note_off_c, 3, 43, 64
5, 25536, Note_on_c, 3, 57, 60
5, 25536, Note_on_c, 3, 45, 60
5, 25628, Note_off_c, 3, 57, 64
5, 25628, Note_off_c, 3, 45, 64
5, 25632, Note_on_c, 3, 59, 60
5, 25632, Note_on_c, 3, 47, 60
5, 25632, Note_on_c, 3, 56, 60
5, 25724, Note_off_c, 3, 59, 64
5, 25724, Note_off_c, 3, 47, 64
5, 25724, Note_off_c, 3, 56, 64
5, 25728, Note_on_c, 3, 60, 80
5, 25728, Note_on_c, 3, 57, 80
5, 25728, Note_on_c, 3, 48, 92
5, 25916, Note_off_c, 3, 60, 64
5, 25916, Note_off_c, 3, 57, 64
5, 25916, Note_off_c, 3, 48, 64
5, 25920, Note_on_c, 3, 48, 76
5, 25920, Note_on_c, 3, 36, 76
5, 26108, Note_off_c, 3, 48, 64
5, 26108, Note_off_c, 3, 36, 64
5, 26112, Note_on_c, 3, 53, 60
5, 26112, Note_on_c, 3, 41, 60
5, 26300, Note_off_c, 3, 53, 64
5, 26300, Note_off_c, 3, 41, 64
5, 26880, Note_on_c, 3, 53, 60
5, 26880, Note_on_c, 3, 41, 60
5, 27068, Note_off_c, 3, 53, 64
5, 27068, Note_off_c, 3, 41, 64
5, 27648, Note_on_c, 3, 52, 60
5, 27648, Note_on_c, 3, 40, 60
5, 27836, Note_off_c, 3, 52, 64
5, 27836, Note_off_c, 3, 40, 64
5, 28416, Note_on_c, 3, 50, 60
5, 28416, Note_on_c, 3, 38, 60
5, 28604, Note_off_c, 3, 50, 64
5, 28604, Note_off_c, 3, 38, 64
5, 29184, Note_on_c, 3, 47, 60
5, 29184, Note_on_c, 3, 35, 60
5, 29372, Note_off_c, 3, 47, 64
5, 29372, Note_off_c, 3, 35, 64
5, 29952, Note_on_c, 3, 48, 60
5, 29952, Note_on_c, 3, 36, 60
5, 30140, Note_off_c, 3, 48, 64
5, 30140, Note_off_c, 3, 36, 64
5, 30720, Note_on_c, 3, 55, 60
5, 30720, Note_on_c, 3, 52, 60
5, 31484, Note_off_c, 3, 55, 64
5, 31484, Note_off_c, 3, 52, 64
5, 31488, Note_on_c, 3, 57, 60
5, 31488, Note_on_c, 3, 53, 60
5, 32252, Note_off_c, 3, 57, 64
5, 32252, Note_off_c, 3, 53, 64
5, 32256, Note_on_c, 3, 57, 60
5, 32256, Note_on_c, 3, 54, 60
5, 32636, Note_off_c, 3, 57, 64
5, 32636, Note_off_c, 3, 54, 64
5, 32640, Note_on_c, 3, 57, 60
5, 32640, Note_on_c, 3, 54, 60
5, 33020, Note_off_c, 3, 57, 64
5, 33020, Note_off_c, 3, 54, 64
5, 33024, Note_on_c, 3, 55, 60
5, 33216, Note_on_c, 3, 60, 75
5, 33216, Note_on_c, 3, 63, 75
5, 33404, Note_off_c, 3, 60, 64
5, 33404, Note_off_c, 3, 63, 64
5, 33408, Note_on_c, 3, 62, 60
5, 33408, Note_on_c, 3, 59, 60
5, 33596, Note_off_c, 3, 55, 64
5, 33596, Note_off_c, 3, 62, 64
5, 33596, Note_off_c, 3, 59, 64
5, 33792, Note_on_c, 3, 55, 63
5, 33836, Note_off_c, 3, 55, 64
5, 33888, Note_on_c, 3, 55, 66
5, 33932, Note_off_c, 3, 55, 64
5, 33984, Note_on_c, 3, 55, 68
5, 34028, Note_off_c, 3, 55, 64
5, 34080, Note_on_c, 3, 55, 73
5, 34124, Note_off_c, 3, 55, 64
5, 34176, Note_on_c, 3, 55, 75
5, 34220, Note_off_c, 3, 55, 64
5, 34272, Note_on_c, 3, 55, 60
5, 34316, Note_off_c, 3, 55, 64
5, 34368, Note_on_c, 3, 55, 60
5, 34368, Note_on_c, 3, 48, 60
5, 34412, Note_off_c, 3, 55, 64
5, 34464, Note_on_c, 3, 55, 60
5, 34508, Note_off_c, 3, 55, 64
5, 34556, Note_off_c, 3, 48, 64
5, 34560, Note_on_c, 3, 55, 60
5, 34560, Note_on_c, 3, 55, 60
5, 34604, Note_off_c, 3, 55, 64
5, 34656, Note_on_c, 3, 55, 60
5, 34700, Note_off_c, 3, 55, 64
5, 34752, Note_on_c, 3, 55, 60
5, 34796, Note_off_c, 3, 55, 64
5, 34848, Note_on_c, 3, 55, 60
5, 34892, Note_off_c, 3, 55, 64
5, 34940, Note_off_c, 3, 55, 64
5, 34944, Note_on_c, 3, 55, 60
5, 34988, Note_off_c, 3, 55, 64
5, 35040, Note_on_c, 3, 55, 60
5, 35084, Note_off_c, 3, 55, 64
5, 35120, Note_on_c, 3, 47, 60
5, 35136, Note_on_c, 3, 55, 60
5, 35180, Note_off_c, 3, 55, 64
5, 35232, Note_on_c, 3, 55, 60
5, 35276, Note_off_c, 3, 55, 64
5, 35308, Note_off_c, 3, 47, 64
5, 35328, Note_on_c, 3, 55, 60
5, 35328, Note_on_c, 3, 48, 60
5, 35420, Note_off_c, 3, 55, 64
5, 35424, Note_on_c, 3, 55, 60
5, 35516, Note_off_c, 3, 55, 64
5, 35520, Note_on_c, 3, 55, 60
5, 35612, Note_off_c, 3, 55, 64
5, 35616, Note_on_c, 3, 55, 60
5, 35708, Note_off_c, 3, 48, 64
5, 35708, Note_off_c, 3, 55, 64
5, 35712, Note_on_c, 3, 55, 60
5, 35804, Note_off_c, 3, 55, 64
5, 35808, Note_on_c, 3, 55, 60
5, 35900, Note_off_c, 3, 55, 64
5, 35904, Note_on_c, 3, 55, 60
5, 35904, Note_on_c, 3, 48, 60
5, 35996, Note_off_c, 3, 55, 64
5, 36000, Note_on_c, 3, 55, 60
5, 36092, Note_off_c, 3, 48, 64
5, 36092, Note_off_c, 3, 55, 64
5, 36096, Note_on_c, 3, 55, 60
5, 36096, Note_on_c, 3, 55, 60
5, 36140, Note_off_c, 3, 55, 64
5, 36192, Note_on_c, 3, 55, 60
5, 36236, Note_off_c, 3, 55, 64
5, 36288, Note_on_c, 3, 55, 60
5, 36332, Note_off_c, 3, 55, 64
5, 36384, Note_on_c, 3, 55, 60
5, 36428, Note_off_c, 3, 55, 64
5, 36476, Note_off_c, 3, 55, 64
5, 36480, Note_on_c, 3, 55, 60
5, 36668, Note_off_c, 3, 55, 64
5, 40704, Note_on_c, 3, 52, 76
5, 40704, Note_on_c, 3, 60, 76
5, 40892, Note_off_c, 3, 52, 64
5, 40896, Note_on_c, 3, 53, 76
5, 41084, Note_off_c, 3, 60, 64
5, 41084, Note_off_c, 3, 53, 64
5, 42240, Note_on_c, 3, 60, 60
5, 42240, Note_on_c, 3, 48, 60
5, 42428, Note_off_c, 3, 60, 64
5, 42428, Note_off_c, 3, 48, 64
5, 42816, Note_on_c, 3, 59, 60
5, 42816, Note_on_c, 3, 47, 60
5, 42908, Note_off_c, 3, 59, 64
5, 42908, Note_off_c, 3, 47, 64
5, 43008, Note_on_c, 3, 60, 60
5, 43008, Note_on_c, 3, 48, 60
5, 43100, Note_off_c, 3, 60, 64
5, 43100, Note_off_c, 3, 48, 64
5, 43584, Note_on_c, 3, 59, 60
5, 43584, Note_on_c, 3, 47, 60
5, 43676, Note_off_c, 3, 59, 64
5, 43676, Note_off_c, 3, 47, 64
5, 43776, Note_on_c, 3, 60, 60
5, 43776, Note_on_c, 3, 48, 60
5, 44540, Note_off_c, 3, 60, 64
5, 44540, Note_off_c, 3, 48, 64
5, 44544, Note_on_c, 3, 53, 60
5, 44544, Note_on_c, 3, 41, 60
5, 44636, Note_off_c, 3, 53, 64
5, 44636, Note_off_c, 3, 41, 64
5, 44928, Note_on_c, 3, 54, 60
5, 44928, Note_on_c, 3, 42, 60
5, 45020, Note_off_c, 3, 54, 64
5, 45020, Note_off_c, 3, 42, 64
5, 45312, Note_on_c, 3, 55, 60
5, 45312, Note_on_c, 3, 43, 60
5, 45404, Note_off_c, 3, 55, 64
5, 45404, Note_off_c, 3, 43, 64
5, 45696, Note_on_c, 3, 55, 60
5, 45696, Note_on_c, 3, 45, 60
5, 45788, Note_off_c, 3, 55, 64
5, 45788, Note_off_c, 3, 45, 64
5, 46080, Note_on_c, 3, 55, 62
5, 46080, Note_on_c, 3, 43, 62
5, 46172, Note_off_c, 3, 55, 64
5, 46172, Note_off_c, 3, 43, 64
5, 46272, Note_on_c, 3, 55, 68
5, 46272, Note_on_c, 3, 43, 68
5, 46364, Note_off_c, 3, 55, 64
5, 46364, Note_off_c, 3, 43, 64
5, 46464, Note_on_c, 3, 43, 74
5, 46464, Note_on_c, 3, 31, 74
5, 46556, Note_off_c, 3, 43, 64
5, 46556, Note_off_c, 3, 31, 64
5, 46656, Note_on_c, 3, 43, 92
5, 46656, Note_on_c, 3, 31, 92
5, 46748, Note_off_c, 3, 43, 64
5, 46748, Note_off_c, 3, 31, 64
5, 46848, Note_on_c, 3, 48, 108
5, 46848, Note_on_c, 3, 43, 108
5, 46848, Note_on_c, 3, 36, 108
5, 47184, Note_off_c, 3, 48, 64
5, 47184, Note_off_c, 3, 43, 64
5, 47184, Note_off_c, 3, 36, 64
5, 47184, Note_on_c, 3, 64, 108
5, 47184, Note_on_c, 3, 52, 108
5, 47228, Note_off_c, 3, 64, 64
5, 47228, Note_off_c, 3, 52, 64
5, 47232, Note_on_c, 3, 55, 108
5, 47232, Note_on_c, 3, 50, 108
5, 47232, Note_on_c, 3, 62, 108
5, 47372, Note_off_c, 3, 55, 64
5, 47372, Note_off_c, 3, 50, 64
5, 47372, Note_off_c, 3, 62, 64
5, 47376, Note_on_c, 3, 60, 108
5, 47376, Note_on_c, 3, 48, 108
5, 47420, Note_off_c, 3, 60, 64
5, 47420, Note_off_c, 3, 48, 64
5, 47424, Note_on_c, 3, 62, 108
5, 47424, Note_on_c, 3, 55, 108
5, 47424, Note_on_c, 3, 50, 108
5, 47564, Note_off_c, 3, 62, 64
5, 47564, Note_off_c, 3, 55, 64
5, 47564, Note_off_c, 3, 50, 64
5, 47568, Note_on_c, 3, 60, 108
5, 47568, Note_on_c, 3, 48, 108
5, 47612, Note_off_c, 3, 60, 64
5, 47612, Note_off_c, 3, 48, 64
5, 47616, Note_on_c, 3, 59, 108
5, 47616, Note_on_c, 3, 55, 108
5, 47616, Note_on_c, 3, 47, 108
5, 47804, Note_off_c, 3, 59, 64
5, 47804, Note_off_c, 3, 55, 64
5, 47804, Note_off_c, 3, 47, 64
5, 47808, Note_on_c, 3, 55, 108
5, 47808, Note_on_c, 3, 48, 108
5, 47808, Note_on_c, 3, 60, 108
5, 47948, Note_off_c, 3, 55, 64
5, 47948, Note_off_c, 3, 48, 64
5, 47948, Note_off_c, 3, 60, 64
5, 47952, Note_on_c, 3, 64, 108
5, 47952, Note_on_c, 3, 52, 108
5, 47996, Note_off_c, 3, 64, 64
5, 47996, Note_off_c, 3, 52, 64
5, 48000, Note_on_c, 3, 62, 108
5, 48000, Note_on_c, 3, 55, 108
5, 48000, Note_on_c, 3, 50, 108
5, 48140, Note_off_c, 3, 62, 64
5, 48140, Note_off_c, 3, 55, 64
5, 48140, Note_off_c, 3, 50, 64
5, 48144, Note_on_c, 3, 60, 108
5, 48144, Note_on_c, 3, 48, 108
5, 48188, Note_off_c, 3, 60, 64
5, 48188, Note_off_c, 3, 48, 64
5, 48192, Note_on_c, 3, 62, 108
5, 48192, Note_on_c, 3, 55, 108
5, 48192, Note_on_c, 3, 50, 108
5, 48332, Note_off_c, 3, 62, 64
5, 48332, Note_off_c, 3, 55, 64
5, 48332, Note_off_c, 3, 50, 64
5, 48336, Note_on_c, 3, 60, 108
5, 48336, Note_on_c, 3, 48, 108
5, 48380, Note_off_c, 3, 60, 64
5, 48380, Note_off_c, 3, 48, 64
5, 48384, Note_on_c, 3, 52, 92
5, 48384, Note_on_c, 3, 48, 92
5, 48384, Note_on_c, 3, 40, 92
5, 48572, Note_off_c, 3, 52, 64
5, 48572, Note_off_c, 3, 48, 64
5, 48572, Note_off_c, 3, 40, 64
5, 48576, Note_on_c, 3, 53, 92
5, 48576, Note_on_c, 3, 48, 92
5, 48576, Note_on_c, 3, 41, 92
5, 48764, Note_off_c, 3, 53, 64
5, 48764, Note_off_c, 3, 48, 64
5, 48764, Note_off_c, 3, 41, 64
5, 49248, Note_on_c, 3, 47, 76
5, 49248, Note_on_c, 3, 59, 76
5, 49340, Note_off_c, 3, 47, 64
5, 49340, Note_off_c, 3, 59, 64
5, 49344, Note_on_c, 3, 60, 82
5, 49344, Note_on_c, 3, 48, 82
5, 49436, Note_off_c, 3, 60, 64
5, 49436, Note_off_c, 3, 48, 64
5, 49440, Note_on_c, 3, 53, 94
5, 49440, Note_on_c, 3, 41, 87
5, 49532, Note_off_c, 3, 53, 64
5, 49532, Note_off_c, 3, 41, 64
5, 49536, Note_on_c, 3, 55, 92
5, 49536, Note_on_c, 3, 43, 92
5, 49628, Note_off_c, 3, 55, 64
5, 49628, Note_off_c, 3, 43, 64
5, 49728, Note_on_c, 3, 43, 92
5, 49728, Note_on_c, 3, 31, 92
5, 49820, Note_off_c, 3, 43, 64
5, 49820, Note_off_c, 3, 31, 64
5, 49920, Note_on_c, 3, 48, 92
5, 49920, Note_on_c, 3, 36, 92
5, 50108, Note_off_c, 3, 48, 64
5, 50108, Note_off_c, 3, 36, 64
5, 50304, Note_on_c, 3, 64, 60
5, 50396, Note_off_c, 3, 64, 64
5, 50496, Note_on_c, 3, 65, 60
5, 50540, Note_off_c, 3, 65, 64
5, 50544, Note_on_c, 3, 64, 60
5, 50588, Note_off_c, 3, 64, 64
5, 50592, Note_on_c, 3, 65, 60
5, 50636, Note_off_c, 3, 65, 64
5, 50640, Note_on_c, 3, 62, 60
5, 50684, Note_off_c, 3, 62, 64
5, 50688, Note_on_c, 3, 67, 60
5, 50780, Note_off_c, 3, 67, 64
5, 51072, Note_on_c, 3, 55, 92
5, 51072, Note_on_c, 3, 43, 92
5, 51164, Note_off_c, 3, 55, 64
5, 51164, Note_off_c, 3, 43, 64
5, 51264, Note_on_c, 3, 43, 92
5, 51264, Note_on_c, 3, 31, 94
5, 51356, Note_off_c, 3, 43, 64
5, 51356, Note_off_c, 3, 31, 64
5, 51456, Note_on_c, 3, 48, 63
5, 51456, Note_on_c, 3, 36, 63
5, 51500, Note_off_c, 3, 48, 64
5, 51500, Note_off_c, 3, 36, 64
5, 51552, Note_on_c, 3, 52, 63
5, 51552, Note_on_c, 3, 40, 63
5, 51596, Note_off_c, 3, 52, 64
5, 51596, Note_off_c, 3, 40, 64
5, 51648, Note_on_c, 3, 55, 63
5, 51648, Note_on_c, 3, 43, 63
5, 51692, Note_off_c, 3, 55, 64
5, 51692, Note_off_c, 3, 43, 64
5, 52224, Note_on_c, 3, 48, 57
5, 52224, Note_on_c, 3, 36, 57
5, 52268, Note_off_c, 3, 48, 64
5, 52268, Note_off_c, 3, 36, 64
5, 52320, Note_on_c, 3, 52, 57
5, 52320, Note_on_c, 3, 40, 57
5, 52364, Note_off_c, 3, 52, 64
5, 52364, Note_off_c, 3, 40, 64
5, 52416, Note_on_c, 3, 55, 57
5, 52416, Note_on_c, 3, 43, 57
5, 52460, Note_off_c, 3, 55, 64
5, 52460, Note_off_c, 3, 43, 64
5, 52992, Note_on_c, 3, 31, 57
5, 52992, Note_on_c, 3, 43, 57
5, 53036, Note_off_c, 3, 31, 64
5, 53036, Note_off_c, 3, 43, 64
5, 53088, Note_on_c, 3, 38, 57
5, 53088, Note_on_c, 3, 50, 57
5, 53132, Note_off_c, 3, 38, 64
5, 53132, Note_off_c, 3, 50, 64
5, 53168, Note_on_c, 3, 53, 57
5, 53184, Note_on_c, 3, 41, 57
5, 53212, Note_off_c, 3, 53, 64
5, 53228, Note_off_c, 3, 41, 64
5, 53760, Note_on_c, 3, 48, 57
5, 53760, Note_on_c, 3, 36, 57
5, 53804, Note_off_c, 3, 48, 64
5, 53804, Note_off_c, 3, 36, 64
5, 53856, Note_on_c, 3, 52, 57
5, 53856, Note_on_c, 3, 40, 57
5, 53900, Note_off_c, 3, 52, 64
5, 53900, Note_off_c, 3, 40, 64
5, 53952, Note_on_c, 3, 55, 57
5, 53952, Note_on_c, 3, 43, 57
5, 53996, Note_off_c, 3, 55, 64
5, 53996, Note_off_c, 3, 43, 64
5, 54528, Note_on_c, 3, 49, 57
5, 54528, Note_on_c, 3, 37, 57
5, 54572, Note_off_c, 3, 49, 64
5, 54572, Note_off_c, 3, 37, 64
5, 54624, Note_on_c, 3, 52, 57
5, 54624, Note_on_c, 3, 40, 57
5, 54668, Note_off_c, 3, 52, 64
5, 54668, Note_off_c, 3, 40, 64
5, 54720, Note_on_c, 3, 57, 57
5, 54720, Note_on_c, 3, 45, 57
5, 54764, Note_off_c, 3, 57, 64
5, 54764, Note_off_c, 3, 45, 64
5, 55296, Note_on_c, 3, 50, 57
5, 55296, Note_on_c, 3, 38, 57
5, 55340, Note_off_c, 3, 50, 64
5, 55340, Note_off_c, 3, 38, 64
5, 55392, Note_on_c, 3, 53, 57
5, 55392, Note_on_c, 3, 41, 57
5, 55436, Note_off_c, 3, 53, 64
5, 55436, Note_off_c, 3, 41, 64
5, 55488, Note_on_c, 3, 45, 57
5, 55488, Note_on_c, 3, 57, 57
5, 55532, Note_off_c, 3, 45, 64
5, 55532, Note_off_c, 3, 57, 64
5, 56064, Note_on_c, 3, 52, 57
5, 56064, Note_on_c, 3, 40, 57
5, 56108, Note_off_c, 3, 52, 64
5, 56108, Note_off_c, 3, 40, 64
5, 56160, Note_on_c, 3, 55, 57
5, 56160, Note_on_c, 3, 43, 57
5, 56204, Note_off_c, 3, 55, 64
5, 56204, Note_off_c, 3, 43, 64
5, 56256, Note_on_c, 3, 61, 57
5, 56256, Note_on_c, 3, 49, 57
5, 56300, Note_off_c, 3, 61, 64
5, 56300, Note_off_c, 3, 49, 64
5, 57024, Note_on_c, 3, 53, 57
5, 57024, Note_on_c, 3, 41, 57
5, 57212, Note_off_c, 3, 53, 64
5, 57212, Note_off_c, 3, 41, 64
5, 57216, Note_on_c, 3, 55, 57
5, 57216, Note_on_c, 3, 43, 57
5, 57404, Note_off_c, 3, 55, 64
5, 57404, Note_off_c, 3, 43, 64
5, 57408, Note_on_c, 3, 57, 57
5, 57408, Note_on_c, 3, 45, 57
5, 57596, Note_off_c, 3, 57, 64
5, 57596, Note_off_c, 3, 45, 64
5, 57600, Note_on_c, 3, 62, 57
5, 57600, Note_on_c, 3, 50, 57
5, 57692, Note_off_c, 3, 62, 64
5, 57692, Note_off_c, 3, 50, 64
5, 58176, Note_on_c, 3, 61, 57
5, 58176, Note_on_c, 3, 49, 57
5, 58268, Note_off_c, 3, 61, 64
5, 58268, Note_off_c, 3, 49, 64
5, 58368, Note_on_c, 3, 62, 57
5, 58368, Note_on_c, 3, 50, 57
5, 58460, Note_off_c, 3, 62, 64
5, 58460, Note_off_c, 3, 50, 64
5, 58560, Note_on_c, 3, 53, 57
5, 58560, Note_on_c, 3, 41, 57
5, 58652, Note_off_c, 3, 53, 64
5, 58652, Note_off_c, 3, 41, 64
5, 58752, Note_on_c, 3, 55, 57
5, 58752, Note_on_c, 3, 43, 57
5, 58844, Note_off_c, 3, 55, 64
5, 58844, Note_off_c, 3, 43, 64
5, 58944, Note_on_c, 3, 57, 57
5, 58944, Note_on_c, 3, 45, 57
5, 59036, Note_off_c, 3, 57, 64
5, 59036, Note_off_c, 3, 45, 64
5, 59136, Note_on_c, 3, 62, 60
5, 59136, Note_on_c, 3, 50, 60
5, 59900, Note_off_c, 3, 62, 64
5, 59900, Note_off_c, 3, 50, 64
5, 59904, Note_on_c, 3, 55, 60
5, 59904, Note_on_c, 3, 43, 60
5, 59996, Note_off_c, 3, 55, 64
5, 59996, Note_off_c, 3, 43, 64
5, 60672, Note_on_c, 3, 57, 60
5, 60672, Note_on_c, 3, 45, 60
5, 60764, Note_off_c, 3, 57, 64
5, 60764, Note_off_c, 3, 45, 64
5, 61440, Note_on_c, 3, 57, 62
5, 61440, Note_on_c, 3, 45, 62
5, 61532, Note_off_c, 3, 57, 64
5, 61532, Note_off_c, 3, 45, 64
5, 62208, Note_on_c, 3, 58, 76
5, 62208, Note_on_c, 3, 46, 76
5, 62300, Note_off_c, 3, 58, 64
5, 62300, Note_off_c, 3, 46, 64
5, 62976, Note_on_c, 3, 58, 76
5, 62976, Note_on_c, 3, 46, 76
5, 63068, Note_off_c, 3, 58, 64
5, 63068, Note_off_c, 3, 46, 64
5, 64512, Note_on_c, 3, 53, 92
5, 64512, Note_on_c, 3, 41, 92
5, 64700, Note_off_c, 3, 53, 64
5, 64704, Note_on_c, 3, 53, 92
5, 64892, Note_off_c, 3, 41, 64
5, 64892, Note_off_c, 3, 53, 64
5, 64896, Note_on_c, 3, 53, 92
5, 65084, Note_off_c, 3, 53, 64
5, 65088, Note_on_c, 3, 53, 92
5, 65276, Note_off_c, 3, 53, 64
5, 65280, Note_on_c, 3, 53, 92
5, 65372, Note_off_c, 3, 53, 64
5, 65376, Note_on_c, 3, 52, 92
5, 65376, Note_on_c, 3, 40, 92
5, 65468, Note_off_c, 3, 52, 64
5, 65468, Note_off_c, 3, 40, 64
5, 65472, Note_on_c, 3, 53, 92
5, 65472, Note_on_c, 3, 41, 92
5, 65552, Note_on_c, 3, 40, 92
5, 65564, Note_off_c, 3, 53, 64
5, 65564, Note_off_c, 3, 41, 64
5, 65568, Note_on_c, 3, 52, 92
5, 65644, Note_off_c, 3, 40, 64
5, 65660, Note_off_c, 3, 52, 64
5, 65664, Note_on_c, 3, 53, 92
5, 65664, Note_on_c, 3, 41, 92
5, 65756, Note_off_c, 3, 53, 64
5, 65760, Note_on_c, 3, 53, 92
5, 65852, Note_off_c, 3, 41, 64
5, 65852, Note_off_c, 3, 53, 64
5, 65856, Note_on_c, 3, 57, 92
5, 65948, Note_off_c, 3, 57, 64
5, 65952, Note_on_c, 3, 53, 92
5, 66044, Note_off_c, 3, 53, 64
5, 66048, Note_on_c, 3, 48, 92
5, 66240, Note_on_c, 3, 55, 92
5, 66240, Note_on_c, 3, 52, 92
5, 66428, Note_off_c, 3, 55, 64
5, 66428, Note_off_c, 3, 52, 64
5, 66432, Note_on_c, 3, 57, 92
5, 66432, Note_on_c, 3, 53, 92
5, 66620, Note_off_c, 3, 57, 64
5, 66620, Note_off_c, 3, 53, 64
5, 66624, Note_on_c, 3, 58, 92
5, 66624, Note_on_c, 3, 55, 92
5, 66812, Note_off_c, 3, 48, 64
5, 66812, Note_off_c, 3, 58, 64
5, 66812, Note_off_c, 3, 55, 64
5, 66816, Note_on_c, 3, 58, 92
5, 66816, Note_on_c, 3, 55, 92
5, 66816, Note_on_c, 3, 52, 92
5, 67008, Note_on_c, 3, 48, 92
5, 67196, Note_off_c, 3, 58, 64
5, 67196, Note_off_c, 3, 55, 64
5, 67196, Note_off_c, 3, 52, 64
5, 67196, Note_off_c, 3, 48, 64
5, 67200, Note_on_c, 3, 57, 92
5, 67200, Note_on_c, 3, 53, 92
5, 67388, Note_off_c, 3, 57, 64
5, 67388, Note_off_c, 3, 53, 64
5, 67584, Note_on_c, 3, 48, 92
5, 67584, Note_on_c, 3, 36, 92
5, 67772, Note_off_c, 3, 48, 64
5, 67772, Note_off_c, 3, 36, 64
5, 67968, Note_on_c, 3, 48, 60
5, 67968, Note_on_c, 3, 36, 60
5, 68156, Note_off_c, 3, 48, 64
5, 68156, Note_off_c, 3, 36, 64
5, 68352, Note_on_c, 3, 48, 60
5, 68352, Note_on_c, 3, 36, 60
5, 68540, Note_off_c, 3, 48, 64
5, 68540, Note_off_c, 3, 36, 64
5, 68736, Note_on_c, 3, 48, 60
5, 68736, Note_on_c, 3, 36, 60
5, 68924, Note_off_c, 3, 48, 64
5, 68924, Note_off_c, 3, 36, 64
5, 69120, Note_on_c, 3, 48, 60
5, 69120, Note_on_c, 3, 36, 60
5, 69308, Note_off_c, 3, 48, 64
5, 69308, Note_off_c, 3, 36, 64
5, 69504, Note_on_c, 3, 48, 60
5, 69504, Note_on_c, 3, 36, 60
5, 69692, Note_off_c, 3, 48, 64
5, 69692, Note_off_c, 3, 36, 64
5, 69888, Note_on_c, 3, 53, 60
5, 69888, Note_on_c, 3, 41, 60
5, 70076, Note_off_c, 3, 53, 64
5, 70076, Note_off_c, 3, 41, 64
5, 73056, Note_on_c, 3, 55, 67
5, 73056, Note_on_c, 3, 43, 67
5, 73148, Note_off_c, 3, 55, 64
5, 73148, Note_off_c, 3, 43, 64
5, 73152, Note_on_c, 3, 57, 75
5, 73152, Note_on_c, 3, 45, 75
5, 73244, Note_off_c, 3, 57, 64
5, 73244, Note_off_c, 3, 45, 64
5, 73248, Note_on_c, 3, 56, 78
5, 73248, Note_on_c, 3, 47, 78
5, 73248, Note_on_c, 3, 59, 78
5, 73340, Note_off_c, 3, 56, 64
5, 73340, Note_off_c, 3, 47, 64
5, 73340, Note_off_c, 3, 59, 64
5, 73344, Note_on_c, 3, 60, 82
5, 73344, Note_on_c, 3, 57, 82
5, 73344, Note_on_c, 3, 48, 82
5, 73532, Note_off_c, 3, 60, 64
5, 73532, Note_off_c, 3, 57, 64
5, 73532, Note_off_c, 3, 48, 64
5, 73536, Note_on_c, 3, 48, 64
5, 73536, Note_on_c, 3, 36, 64
5, 73724, Note_off_c, 3, 48, 64
5, 73724, Note_off_c, 3, 36, 64
5, 73728, Note_on_c, 3, 53, 60
5, 73728, Note_on_c, 3, 41, 60
5, 73916, Note_off_c, 3, 53, 64
5, 73916, Note_off_c, 3, 41, 64
5, 74496, Note_on_c, 3, 57, 62
5, 74496, Note_on_c, 3, 45, 62
5, 74684, Note_off_c, 3, 57, 64
5, 74684, Note_off_c, 3, 45, 64
5, 74880, Note_on_c, 3, 55, 78
5, 74880, Note_on_c, 3, 43, 78
5, 75068, Note_off_c, 3, 55, 64
5, 75068, Note_off_c, 3, 43, 64
5, 75264, Note_on_c, 3, 53, 84
5, 75264, Note_on_c, 3, 41, 84
5, 75452, Note_off_c, 3, 53, 64
5, 75452, Note_off_c, 3, 41, 64
5, 76032, Note_on_c, 3, 54, 92
5, 76032, Note_on_c, 3, 42, 92
5, 76220, Note_off_c, 3, 54, 64
5, 76220, Note_off_c, 3, 42, 64
5, 76800, Note_on_c, 3, 55, 60
5, 76800, Note_on_c, 3, 43, 60
5, 76988, Note_off_c, 3, 55, 64
5, 76988, Note_off_c, 3, 43, 64
5, 77184, Note_on_c, 3, 53, 74
5, 77184, Note_on_c, 3, 41, 74
5, 77372, Note_off_c, 3, 53, 64
5, 77372, Note_off_c, 3, 41, 64
5, 77568, Note_on_c, 3, 52, 60
5, 77568, Note_on_c, 3, 40, 60
5, 77756, Note_off_c, 3, 52, 64
5, 77756, Note_off_c, 3, 40, 64
5, 77760, Note_on_c, 3, 58, 66
5, 77760, Note_on_c, 3, 55, 66
5, 77760, Note_on_c, 3, 60, 66
5, 77948, Note_off_c, 3, 58, 64
5, 77948, Note_off_c, 3, 55, 64
5, 77948, Note_off_c, 3, 60, 64
5, 77952, Note_on_c, 3, 60, 68
5, 77952, Note_on_c, 3, 58, 68
5, 77952, Note_on_c, 3, 55, 68
5, 78140, Note_off_c, 3, 60, 64
5, 78140, Note_off_c, 3, 58, 64
5, 78140, Note_off_c, 3, 55, 64
5, 78144, Note_on_c, 3, 60, 75
5, 78144, Note_on_c, 3, 58, 75
5, 78144, Note_on_c, 3, 55, 75
5, 78332, Note_off_c, 3, 60, 64
5, 78332, Note_off_c, 3, 58, 64
5, 78332, Note_off_c, 3, 55, 64
5, 78336, Note_on_c, 3, 53, 75
5, 78336, Note_on_c, 3, 41, 75
5, 78716, Note_off_c, 3, 53, 64
5, 78716, Note_off_c, 3, 41, 64
5, 78720, Note_on_c, 3, 45, 60
5, 78720, Note_on_c, 3, 33, 60
5, 79100, Note_off_c, 3, 45, 64
5, 79100, Note_off_c, 3, 33, 64
5, 79104, Note_on_c, 3, 46, 60
5, 79104, Note_on_c, 3, 34, 60
5, 79868, Note_off_c, 3, 46, 64
5, 79868, Note_off_c, 3, 34, 64
5, 80640, Note_on_c, 3, 48, 60
5, 80640, Note_on_c, 3, 36, 60
5, 81020, Note_off_c, 3, 48, 64
5, 81020, Note_off_c, 3, 36, 64
5, 81024, Note_on_c, 3, 48, 60
5, 81024, Note_on_c, 3, 36, 60
5, 81212, Note_off_c, 3, 48, 64
5, 81212, Note_off_c, 3, 36, 64
5, 81216, Note_on_c, 3, 48, 60
5, 81404, Note_off_c, 3, 48, 64
5, 81408, Note_on_c, 3, 48, 62
5, 81452, Note_off_c, 3, 48, 64
5, 81504, Note_on_c, 3, 48, 62
5, 81548, Note_off_c, 3, 48, 64
5, 81600, Note_on_c, 3, 48, 64
5, 81644, Note_off_c, 3, 48, 64
5, 81696, Note_on_c, 3, 48, 66
5, 81740, Note_off_c, 3, 48, 64
5, 81792, Note_on_c, 3, 48, 66
5, 81836, Note_off_c, 3, 48, 64
5, 81888, Note_on_c, 3, 48, 67
5, 81932, Note_off_c, 3, 48, 64
5, 81984, Note_on_c, 3, 48, 67
5, 81984, Note_on_c, 3, 41, 67
5, 82028, Note_off_c, 3, 48, 64
5, 82080, Note_on_c, 3, 48, 68
5, 82124, Note_off_c, 3, 48, 64
5, 82172, Note_off_c, 3, 41, 64
5, 82176, Note_on_c, 3, 48, 73
5, 82176, Note_on_c, 3, 36, 73
5, 82220, Note_off_c, 3, 48, 64
5, 82272, Note_on_c, 3, 48, 73
5, 82316, Note_off_c, 3, 48, 64
5, 82368, Note_on_c, 3, 48, 73
5, 82412, Note_off_c, 3, 48, 64
5, 82464, Note_on_c, 3, 48, 73
5, 82508, Note_off_c, 3, 48, 64
5, 82556, Note_off_c, 3, 36, 64
5, 82560, Note_on_c, 3, 48, 73
5, 82604, Note_off_c, 3, 48, 64
5, 82656, Note_on_c, 3, 48, 73
5, 82700, Note_off_c, 3, 48, 64
5, 82752, Note_on_c, 3, 48, 73
5, 82752, Note_on_c, 3, 40, 73
5, 82796, Note_off_c, 3, 48, 64
5, 82848, Note_on_c, 3, 48, 73
5, 82892, Note_off_c, 3, 48, 64
5, 82940, Note_off_c, 3, 40, 64
5, 82944, Note_on_c, 3, 48, 73
5, 82944, Note_on_c, 3, 41, 73
5, 82988, Note_off_c, 3, 48, 64
5, 83040, Note_on_c, 3, 48, 73
5, 83084, Note_off_c, 3, 48, 64
5, 83136, Note_on_c, 3, 48, 73
5, 83180, Note_off_c, 3, 48, 64
5, 83232, Note_on_c, 3, 48, 73
5, 83276, Note_off_c, 3, 48, 64
5, 83324, Note_off_c, 3, 41, 64
5, 83328, Note_on_c, 3, 48, 73
5, 83372, Note_off_c, 3, 48, 64
5, 83424, Note_on_c, 3, 48, 73
5, 83468, Note_off_c, 3, 48, 64
5, 83520, Note_on_c, 3, 48, 73
5, 83520, Note_on_c, 3, 41, 73
5, 83564, Note_off_c, 3, 48, 64
5, 83616, Note_on_c, 3, 48, 73
5, 83660, Note_off_c, 3, 48, 64
5, 83708, Note_off_c, 3, 41, 64
5, 83712, Note_on_c, 3, 48, 73
5, 83712, Note_on_c, 3, 36, 73
5, 83756, Note_off_c, 3, 48, 64
5, 83808, Note_on_c, 3, 48, 73
5, 83852, Note_off_c, 3, 48, 64
5, 83904, Note_on_c, 3, 48, 73
5, 83948, Note_off_c, 3, 48, 64
5, 84000, Note_on_c, 3, 48, 73
5, 84044, Note_off_c, 3, 48, 64
5, 84092, Note_off_c, 3, 36, 64
5, 84096, Note_on_c, 3, 48, 73
5, 84284, Note_off_c, 3, 48, 64
5, 86016, Note_on_c, 3, 60, 60
5, 86588, Note_off_c, 3, 60, 64
5, 88320, Note_on_c, 3, 57, 76
5, 88320, Note_on_c, 3, 45, 76
5, 88508, Note_off_c, 3, 57, 64
5, 88508, Note_off_c, 3, 45, 64
5, 88512, Note_on_c, 3, 58, 76
5, 88512, Note_on_c, 3, 46, 76
5, 88700, Note_off_c, 3, 58, 64
5, 88700, Note_off_c, 3, 46, 64
5, 89856, Note_on_c, 3, 65, 60
5, 89856, Note_on_c, 3, 53, 60
5, 89948, Note_off_c, 3, 65, 64
5, 89948, Note_off_c, 3, 53, 64
5, 90432, Note_on_c, 3, 64, 60
5, 90432, Note_on_c, 3, 52, 60
5, 90524, Note_off_c, 3, 64, 64
5, 90524, Note_off_c, 3, 52, 64
5, 90624, Note_on_c, 3, 65, 60
5, 90624, Note_on_c, 3, 53, 60
5, 90716, Note_off_c, 3, 65, 64
5, 90716, Note_off_c, 3, 53, 64
5, 91200, Note_on_c, 3, 52, 60
5, 91200, Note_on_c, 3, 40, 60
5, 91292, Note_off_c, 3, 52, 64
5, 91292, Note_off_c, 3, 40, 64
5, 91392, Note_on_c, 3, 53, 60
5, 91392, Note_on_c, 3, 41, 60
5, 92156, Note_off_c, 3, 53, 64
5, 92156, Note_off_c, 3, 41, 64
5, 92160, Note_on_c, 3, 58, 63
5, 92160, Note_on_c, 3, 46, 63
5, 92252, Note_off_c, 3, 58, 64
5, 92252, Note_off_c, 3, 46, 64
5, 92544, Note_on_c, 3, 59, 66
5, 92544, Note_on_c, 3, 47, 66
5, 92636, Note_off_c, 3, 59, 64
5, 92636, Note_off_c, 3, 47, 64
5, 92928, Note_on_c, 3, 60, 68
5, 92928, Note_on_c, 3, 48, 68
5, 93020, Note_off_c, 3, 60, 64
5, 93020, Note_off_c, 3, 48, 64
5, 93312, Note_on_c, 3, 60, 73
5, 93312, Note_on_c, 3, 48, 73
5, 93404, Note_off_c, 3, 60, 64
5, 93404, Note_off_c, 3, 48, 64
5, 93696, Note_on_c, 3, 60, 75
5, 93696, Note_on_c, 3, 48, 75
5, 93696, Note_on_c, 3, 48, 75
5, 93696, Note_on_c, 3, 60, 75
5, 93788, Note_off_c, 3, 60, 64
5, 93788, Note_off_c, 3, 48, 64
5, 93888, Note_on_c, 3, 60, 76
5, 93888, Note_on_c, 3, 48, 76
5, 93980, Note_off_c, 3, 48, 64
5, 93980, Note_off_c, 3, 60, 64
5, 94080, Note_on_c, 3, 48, 64
5, 94080, Note_on_c, 3, 36, 64
5, 94172, Note_off_c, 3, 48, 64
5, 94172, Note_off_c, 3, 36, 64
5, 94268, Note_off_c, 3, 60, 64
5, 94268, Note_off_c, 3, 48, 64
5, 94272, Note_on_c, 3, 48, 76
5, 94272, Note_on_c, 3, 36, 76
5, 94364, Note_off_c, 3, 48, 64
5, 94364, Note_off_c, 3, 36, 64
5, 94464, Note_on_c, 3, 53, 92
5, 94464, Note_on_c, 3, 41, 92
5, 94508, Note_off_c, 3, 53, 64
5, 94508, Note_off_c, 3, 41, 64
5, 94560, Note_on_c, 3, 41, 92
5, 94560, Note_on_c, 3, 29, 92
5, 94560, Note_on_c, 3, 29, 92
5, 94604, Note_off_c, 3, 41, 64
5, 94604, Note_off_c, 3, 29, 64
5, 94656, Note_on_c, 3, 45, 92
5, 94656, Note_on_c, 3, 33, 92
5, 94700, Note_off_c, 3, 45, 64
5, 94700, Note_off_c, 3, 33, 64
5, 94752, Note_on_c, 3, 48, 80
5, 94752, Note_on_c, 3, 36, 80
5, 94796, Note_off_c, 3, 48, 64
5, 94796, Note_off_c, 3, 36, 64
5, 94848, Note_on_c, 3, 53, 76
5, 94848, Note_on_c, 3, 41, 76
5, 94892, Note_off_c, 3, 53, 64
5, 94940, Note_off_c, 3, 29, 64
5, 94944, Note_on_c, 3, 60, 73
5, 94988, Note_off_c, 3, 60, 64
5, 95036, Note_off_c, 3, 41, 64
5, 95040, Note_on_c, 3, 57, 68
5, 95084, Note_off_c, 3, 57, 64
5, 95136, Note_on_c, 3, 53, 64
5, 95180, Note_off_c, 3, 53, 64
5, 95232, Note_on_c, 3, 58, 60
5, 95232, Note_on_c, 3, 46, 60
5, 95612, Note_off_c, 3, 58, 64
5, 95612, Note_off_c, 3, 46, 64
5, 96000, Note_on_c, 3, 58, 62
5, 96000, Note_on_c, 3, 46, 62
5, 96380, Note_off_c, 3, 58, 64
5, 96380, Note_off_c, 3, 46, 64
5, 96768, Note_on_c, 3, 48, 92
5, 96768, Note_on_c, 3, 36, 92
5, 96860, Note_off_c, 3, 48, 64
5, 96860, Note_off_c, 3, 36, 64
5, 96864, Note_on_c, 3, 46, 92
5, 96864, Note_on_c, 3, 34, 92
5, 96956, Note_off_c, 3, 46, 64
5, 96956, Note_off_c, 3, 34, 64
5, 96960, Note_on_c, 3, 48, 92
5, 96960, Note_on_c, 3, 36, 92
5, 97052, Note_off_c, 3, 48, 64
5, 97052, Note_off_c, 3, 36, 64
5, 97056, Note_on_c, 3, 46, 92
5, 97056, Note_on_c, 3, 34, 92
5, 97148, Note_off_c, 3, 46, 64
5, 97148, Note_off_c, 3, 34, 64
5, 97152, Note_on_c, 3, 43, 92
5, 97340, Note_off_c, 3, 43, 64
5, 97344, Note_on_c, 3, 46, 92
5, 97344, Note_on_c, 3, 34, 92
5, 97532, Note_off_c, 3, 46, 64
5, 97532, Note_off_c, 3, 34, 64
5, 97536, Note_on_c, 3, 48, 92
5, 97536, Note_on_c, 3, 36, 92
5, 97828, Note_off_c, 3, 48, 64
5, 97828, Note_off_c, 3, 36, 64
5, 111360, Note_on_c, 3, 53, 108
5, 111360, Note_on_c, 3, 48, 108
5, 111360, Note_on_c, 3, 41, 108
5, 111360, Note_on_c, 3, 41, 108
5, 111360, Note_on_c, 3, 48, 108
5, 111360, Note_on_c, 3, 53, 108
5, 111696, Note_on_c, 3, 57, 108
5, 111696, Note_on_c, 3, 45, 108
5, 111740, Note_off_c, 3, 53, 64
5, 111740, Note_off_c, 3, 48, 64
5, 111740, Note_off_c, 3, 41, 64
5, 111740, Note_off_c, 3, 41, 64
5, 111740, Note_off_c, 3, 48, 64
5, 111740, Note_off_c, 3, 53, 64
5, 111740, Note_off_c, 3, 57, 64
5, 111740, Note_off_c, 3, 45, 64
5, 111744, Note_on_c, 3, 55, 108
5, 111744, Note_on_c, 3, 48, 108
5, 111744, Note_on_c, 3, 43, 108
5, 111884, Note_off_c, 3, 55, 64
5, 111884, Note_off_c, 3, 48, 64
5, 111884, Note_off_c, 3, 43, 64
5, 111888, Note_on_c, 3, 53, 108
5, 111888, Note_on_c, 3, 41, 108
5, 111932, Note_off_c, 3, 53, 64
5, 111932, Note_off_c, 3, 41, 64
5, 111936, Note_on_c, 3, 55, 108
5, 111936, Note_on_c, 3, 48, 108
5, 111936, Note_on_c, 3, 43, 108
5, 112076, Note_off_c, 3, 55, 64
5, 112076, Note_off_c, 3, 48, 64
5, 112076, Note_off_c, 3, 43, 64
5, 112080, Note_on_c, 3, 53, 108
5, 112080, Note_on_c, 3, 41, 108
5, 112124, Note_off_c, 3, 53, 64
5, 112124, Note_off_c, 3, 41, 64
5, 112128, Note_on_c, 3, 52, 108
5, 112128, Note_on_c, 3, 48, 108
5, 112128, Note_on_c, 3, 40, 108
5, 112128, Note_on_c, 3, 40, 108
5, 112316, Note_off_c, 3, 52, 64
5, 112316, Note_off_c, 3, 48, 64
5, 112316, Note_off_c, 3, 40, 64
5, 112316, Note_off_c, 3, 40, 64
5, 112320, Note_on_c, 3, 48, 108
5, 112320, Note_on_c, 3, 41, 108
5, 112320, Note_on_c, 3, 41, 108
5, 112320, Note_on_c, 3, 53, 108
5, 112460, Note_off_c, 3, 48, 64
5, 112460, Note_off_c, 3, 41, 64
5, 112460, Note_off_c, 3, 53, 64
5, 112464, Note_on_c, 3, 57, 108
5, 112464, Note_on_c, 3, 45, 108
5, 112508, Note_off_c, 3, 41, 64
5, 112508, Note_off_c, 3, 57, 64
5, 112508, Note_off_c, 3, 45, 64
5, 112512, Note_on_c, 3, 55, 108
5, 112512, Note_on_c, 3, 48, 108
5, 112512, Note_on_c, 3, 43, 108
5, 112652, Note_off_c, 3, 55, 64
5, 112652, Note_off_c, 3, 48, 64
5, 112652, Note_off_c, 3, 43, 64
5, 112656, Note_on_c, 3, 53, 108
5, 112656, Note_on_c, 3, 41, 108
5, 112700, Note_off_c, 3, 53, 64
5, 112700, Note_off_c, 3, 41, 64
5, 112704, Note_on_c, 3, 55, 108
5, 112704, Note_on_c, 3, 48, 108
5, 112704, Note_on_c, 3, 43, 108
5, 112844, Note_off_c, 3, 55, 64
5, 112844, Note_off_c, 3, 48, 64
5, 112844, Note_off_c, 3, 43, 64
5, 112848, Note_on_c, 3, 53, 108
5, 112848, Note_on_c, 3, 41, 108
5, 112892, Note_off_c, 3, 53, 64
5, 112892, Note_off_c, 3, 41, 64
5, 112896, Note_on_c, 3, 57, 108
5, 112896, Note_on_c, 3, 53, 108
5, 112896, Note_on_c, 3, 45, 108
5, 113084, Note_off_c, 3, 57, 64
5, 113084, Note_off_c, 3, 53, 64
5, 113084, Note_off_c, 3, 45, 64
5, 113088, Note_on_c, 3, 58, 108
5, 113088, Note_on_c, 3, 53, 108
5, 113088, Note_on_c, 3, 46, 108
5, 113276, Note_off_c, 3, 58, 64
5, 113276, Note_off_c, 3, 53, 64
5, 113276, Note_off_c, 3, 46, 64
5, 113760, Note_on_c, 3, 52, 60
5, 113760, Note_on_c, 3, 40, 60
5, 113852, Note_off_c, 3, 52, 64
5, 113852, Note_off_c, 3, 40, 64
5, 113856, Note_on_c, 3, 53, 60
5, 113856, Note_on_c, 3, 41, 60
5, 113948, Note_off_c, 3, 53, 64
5, 113948, Note_off_c, 3, 41, 64
5, 113952, Note_on_c, 3, 58, 60
5, 113952, Note_on_c, 3, 46, 60
5, 114044, Note_off_c, 3, 58, 64
5, 114044, Note_off_c, 3, 46, 64
5, 114048, Note_on_c, 3, 60, 60
5, 114048, Note_on_c, 3, 48, 60
5, 114236, Note_off_c, 3, 60, 64
5, 114236, Note_off_c, 3, 48, 64
5, 114240, Note_on_c, 3, 48, 60
5, 114240, Note_on_c, 3, 36, 60
5, 114428, Note_off_c, 3, 48, 64
5, 114428, Note_off_c, 3, 36, 64
5, 114432, Note_on_c, 3, 53, 60
5, 114432, Note_on_c, 3, 41, 60
5, 114620, Note_off_c, 3, 53, 64
5, 114620, Note_off_c, 3, 41, 64
5, 115584, Note_on_c, 3, 60, 92
5, 115584, Note_on_c, 3, 60, 92
5, 115776, Note_on_c, 3, 48, 92
5, 115788, Note_off_c, 3, 60, 64
5, 115852, Note_off_c, 3, 60, 64
5, 115872, Note_on_c, 3, 58, 92
5, 115964, Note_off_c, 3, 48, 64
5, 115964, Note_off_c, 3, 58, 64
5, 115968, Note_on_c, 3, 57, 92
5, 115968, Note_on_c, 3, 53, 92
5, 115968, Note_on_c, 3, 57, 92
5, 115968, Note_on_c, 3, 53, 92
5, 116156, Note_off_c, 3, 57, 64
5, 116156, Note_off_c, 3, 53, 64
5, 116160, Note_on_c, 3, 53, 92
5, 116160, Note_on_c, 3, 41, 92
5, 116252, Note_off_c, 3, 53, 64
5, 116252, Note_off_c, 3, 41, 64
5, 116352, Note_on_c, 3, 53, 92
5, 116352, Note_on_c, 3, 41, 92
5, 116444, Note_off_c, 3, 53, 64
5, 116444, Note_off_c, 3, 41, 64
5, 116540, Note_off_c, 3, 57, 64
5, 116540, Note_off_c, 3, 53, 64
5, 116540, End_track
6, 0, Start_track
6, 0, Key_signature, 0, "major"
6, 0, End_track
0, 0, End_of_file
