0, 0, Header, 1, 17, 384
1, 0, Start_track
1, 0, Time_signature, 3, 3, 96, 8
1, 0, Sequencer_specific, 3, 0, 0, 65
1, 0, Tempo, 833333
1, 99648, Tempo, 1395348
1, 101952, Tempo, 666666
1, 102912, Tempo, 1666666
1, 104064, Tempo, 833333
1, 104064, End_track
2, 0, Start_track
2, 0, Title_t, "Mozart"
2, 0, Control_c, 0, 0, 0
2, 0, Program_c, 0, 0
2, 0, Control_c, 0, 7, 80
2, 0, Control_c, 0, 10, 75
2, 0, Control_c, 0, 91, 72
2, 0, Control_c, 0, 93, 63
2, 0, Key_signature, 2, "major"
2, 0, Control_c, 0, 121, 0
2, 72, Control_c, 0, 10, 73
2, 96, Control_c, 0, 91, 63
2, 120, Control_c, 0, 93, 40
2, 144, Program_c, 0, 0
2, 240, Note_on_c, 0, 69, 60
2, 272, Note_off_c, 0, 69, 100
2, 288, Note_on_c, 0, 81, 60
2, 416, Note_off_c, 0, 81, 100
2, 480, Note_on_c, 0, 78, 60
2, 544, Note_off_c, 0, 78, 100
2, 576, Note_on_c, 0, 76, 60
2, 576, Note_on_c, 0, 66, 60
2, 576, Note_on_c, 0, 62, 60
2, 584, Note_off_c, 0, 76, 100
2, 600, Note_on_c, 0, 74, 60
2, 648, Note_off_c, 0, 74, 100
2, 672, Note_on_c, 0, 73, 60
2, 736, Note_off_c, 0, 73, 100
2, 768, Note_off_c, 0, 66, 100
2, 768, Note_off_c, 0, 62, 100
2, 768, Note_on_c, 0, 74, 60
2, 832, Note_off_c, 0, 74, 100
2, 864, Note_on_c, 0, 76, 60
2, 864, Note_on_c, 0, 59, 60
2, 864, Note_on_c, 0, 67, 60
2, 872, Note_off_c, 0, 76, 100
2, 888, Note_on_c, 0, 74, 60
2, 936, Note_off_c, 0, 74, 100
2, 960, Note_on_c, 0, 73, 60
2, 1024, Note_off_c, 0, 73, 100
2, 1056, Note_off_c, 0, 59, 100
2, 1056, Note_off_c, 0, 67, 100
2, 1056, Note_on_c, 0, 74, 60
2, 1120, Note_off_c, 0, 74, 100
2, 1152, Note_on_c, 0, 78, 60
2, 1152, Note_on_c, 0, 74, 60
2, 1152, Note_on_c, 0, 69, 60
2, 1152, Note_on_c, 0, 57, 60
2, 1280, Note_off_c, 0, 78, 100
2, 1280, Note_off_c, 0, 74, 100
2, 1344, Note_off_c, 0, 69, 100
2, 1344, Note_off_c, 0, 57, 100
2, 1344, Note_on_c, 0, 76, 60
2, 1344, Note_on_c, 0, 73, 60
2, 1408, Note_off_c, 0, 76, 100
2, 1408, Note_off_c, 0, 73, 100
2, 1440, Note_on_c, 0, 67, 60
2, 1452, Note_off_c, 0, 67, 100
2, 1464, Note_on_c, 0, 79, 60
2, 1560, Note_off_c, 0, 79, 100
2, 1632, Note_on_c, 0, 76, 60
2, 1696, Note_off_c, 0, 76, 100
2, 1728, Note_on_c, 0, 74, 60
2, 1728, Note_on_c, 0, 64, 60
2, 1728, Note_on_c, 0, 57, 60
2, 1740, Note_off_c, 0, 74, 100
2, 1752, Note_on_c, 0, 73, 60
2, 1800, Note_off_c, 0, 73, 100
2, 1824, Note_on_c, 0, 71, 60
2, 1888, Note_off_c, 0, 71, 100
2, 1920, Note_off_c, 0, 64, 100
2, 1920, Note_off_c, 0, 57, 100
2, 1920, Note_on_c, 0, 73, 60
2, 1984, Note_off_c, 0, 73, 100
2, 2016, Note_on_c, 0, 69, 60
2, 2016, Note_on_c, 0, 64, 60
2, 2016, Note_on_c, 0, 61, 60
2, 2080, Note_off_c, 0, 69, 100
2, 2112, Note_on_c, 0, 76, 60
2, 2176, Note_off_c, 0, 76, 100
2, 2208, Note_off_c, 0, 64, 100
2, 2208, Note_off_c, 0, 61, 100
2, 2208, Note_on_c, 0, 81, 60
2, 2272, Note_off_c, 0, 81, 100
2, 2304, Note_on_c, 0, 76, 60
2, 2304, Note_on_c, 0, 79, 60
2, 2304, Note_on_c, 0, 69, 60
2, 2304, Note_on_c, 0, 62, 60
2, 2432, Note_off_c, 0, 76, 100
2, 2432, Note_off_c, 0, 79, 100
2, 2496, Note_off_c, 0, 69, 100
2, 2496, Note_off_c, 0, 62, 100
2, 2496, Note_on_c, 0, 78, 60
2, 2496, Note_on_c, 0, 74, 60
2, 2560, Note_off_c, 0, 78, 100
2, 2560, Note_off_c, 0, 74, 100
2, 2592, Note_on_c, 0, 74, 90
2, 2600, Note_off_c, 0, 74, 100
2, 2616, Note_on_c, 0, 78, 90
2, 2712, Note_off_c, 0, 78, 100
2, 2784, Note_on_c, 0, 79, 90
2, 2848, Note_off_c, 0, 79, 100
2, 2880, Note_on_c, 0, 83, 90
2, 2912, Note_off_c, 0, 83, 100
2, 2928, Note_on_c, 0, 81, 90
2, 2960, Note_off_c, 0, 81, 100
2, 2976, Note_on_c, 0, 79, 90
2, 3008, Note_off_c, 0, 79, 100
2, 3016, Note_on_c, 0, 78, 90
2, 3048, Note_off_c, 0, 78, 100
2, 3072, Note_on_c, 0, 76, 90
2, 3104, Note_off_c, 0, 76, 100
2, 3120, Note_on_c, 0, 74, 90
2, 3152, Note_off_c, 0, 74, 100
2, 3168, Note_on_c, 0, 74, 90
2, 3176, Note_off_c, 0, 74, 100
2, 3192, Note_on_c, 0, 78, 90
2, 3288, Note_off_c, 0, 78, 100
2, 3360, Note_on_c, 0, 79, 90
2, 3424, Note_off_c, 0, 79, 100
2, 3456, Note_on_c, 0, 83, 90
2, 3488, Note_off_c, 0, 83, 100
2, 3504, Note_on_c, 0, 81, 90
2, 3536, Note_off_c, 0, 81, 100
2, 3552, Note_on_c, 0, 79, 90
2, 3584, Note_off_c, 0, 79, 100
2, 3600, Note_on_c, 0, 78, 90
2, 3632, Note_off_c, 0, 78, 100
2, 3648, Note_on_c, 0, 76, 90
2, 3680, Note_off_c, 0, 76, 100
2, 3688, Note_on_c, 0, 74, 90
2, 3720, Note_off_c, 0, 74, 100
2, 3744, Note_on_c, 0, 74, 90
2, 3752, Note_off_c, 0, 74, 100
2, 3768, Note_on_c, 0, 83, 90
2, 3864, Note_off_c, 0, 83, 100
2, 3936, Note_on_c, 0, 85, 90
2, 4000, Note_off_c, 0, 85, 100
2, 4032, Note_on_c, 0, 86, 90
2, 4064, Note_off_c, 0, 86, 100
2, 4080, Note_on_c, 0, 85, 90
2, 4112, Note_off_c, 0, 85, 100
2, 4128, Note_on_c, 0, 83, 90
2, 4160, Note_off_c, 0, 83, 100
2, 4168, Note_on_c, 0, 81, 90
2, 4200, Note_off_c, 0, 81, 100
2, 4224, Note_on_c, 0, 79, 90
2, 4256, Note_off_c, 0, 79, 100
2, 4264, Note_on_c, 0, 78, 90
2, 4296, Note_off_c, 0, 78, 100
2, 4320, Note_on_c, 0, 83, 90
2, 4352, Note_off_c, 0, 83, 100
2, 4368, Note_on_c, 0, 81, 90
2, 4400, Note_off_c, 0, 81, 100
2, 4416, Note_on_c, 0, 79, 90
2, 4448, Note_off_c, 0, 79, 100
2, 4464, Note_on_c, 0, 78, 90
2, 4496, Note_off_c, 0, 78, 100
2, 4512, Note_on_c, 0, 76, 90
2, 4544, Note_off_c, 0, 76, 100
2, 4560, Note_on_c, 0, 74, 90
2, 4592, Note_off_c, 0, 74, 100
2, 4608, Note_on_c, 0, 73, 90
2, 4608, Note_on_c, 0, 76, 90
2, 4608, Note_on_c, 0, 81, 90
2, 4672, Note_off_c, 0, 73, 100
2, 4672, Note_off_c, 0, 76, 100
2, 4672, Note_off_c, 0, 81, 100
2, 4848, Note_on_c, 0, 69, 60
2, 4880, Note_off_c, 0, 69, 100
2, 4896, Note_on_c, 0, 81, 60
2, 5024, Note_off_c, 0, 81, 100
2, 5088, Note_on_c, 0, 78, 60
2, 5152, Note_off_c, 0, 78, 100
2, 5184, Note_on_c, 0, 76, 60
2, 5184, Note_on_c, 0, 62, 60
2, 5184, Note_on_c, 0, 66, 60
2, 5192, Note_off_c, 0, 76, 100
2, 5208, Note_on_c, 0, 74, 60
2, 5256, Note_off_c, 0, 74, 100
2, 5280, Note_on_c, 0, 73, 60
2, 5344, Note_off_c, 0, 73, 100
2, 5376, Note_off_c, 0, 62, 100
2, 5376, Note_off_c, 0, 66, 100
2, 5376, Note_on_c, 0, 74, 60
2, 5440, Note_off_c, 0, 74, 100
2, 5472, Note_on_c, 0, 76, 60
2, 5472, Note_on_c, 0, 67, 60
2, 5472, Note_on_c, 0, 59, 60
2, 5480, Note_off_c, 0, 76, 100
2, 5496, Note_on_c, 0, 74, 60
2, 5544, Note_off_c, 0, 74, 100
2, 5568, Note_on_c, 0, 73, 60
2, 5632, Note_off_c, 0, 73, 100
2, 5664, Note_off_c, 0, 67, 100
2, 5664, Note_off_c, 0, 59, 100
2, 5664, Note_on_c, 0, 74, 60
2, 5728, Note_off_c, 0, 74, 100
2, 5760, Note_on_c, 0, 78, 60
2, 5760, Note_on_c, 0, 74, 60
2, 5760, Note_on_c, 0, 69, 60
2, 5760, Note_on_c, 0, 57, 60
2, 5856, Note_off_c, 0, 69, 100
2, 5856, Note_off_c, 0, 57, 100
2, 5888, Note_off_c, 0, 78, 100
2, 5888, Note_off_c, 0, 74, 100
2, 5952, Note_on_c, 0, 76, 60
2, 5952, Note_on_c, 0, 73, 60
2, 6016, Note_off_c, 0, 76, 100
2, 6016, Note_off_c, 0, 73, 100
2, 6048, Note_on_c, 0, 67, 60
2, 6056, Note_off_c, 0, 67, 100
2, 6072, Note_on_c, 0, 79, 60
2, 6168, Note_off_c, 0, 79, 100
2, 6240, Note_on_c, 0, 76, 60
2, 6304, Note_off_c, 0, 76, 100
2, 6336, Note_on_c, 0, 74, 60
2, 6336, Note_on_c, 0, 64, 60
2, 6336, Note_on_c, 0, 57, 60
2, 6344, Note_off_c, 0, 74, 100
2, 6360, Note_on_c, 0, 73, 60
2, 6408, Note_off_c, 0, 73, 100
2, 6432, Note_off_c, 0, 64, 100
2, 6432, Note_off_c, 0, 57, 100
2, 6432, Note_on_c, 0, 71, 60
2, 6496, Note_off_c, 0, 71, 100
2, 6528, Note_on_c, 0, 73, 60
2, 6592, Note_off_c, 0, 73, 100
2, 6624, Note_on_c, 0, 69, 60
2, 6624, Note_on_c, 0, 64, 60
2, 6624, Note_on_c, 0, 61, 60
2, 6688, Note_off_c, 0, 69, 100
2, 6720, Note_off_c, 0, 64, 100
2, 6720, Note_off_c, 0, 61, 100
2, 6720, Note_on_c, 0, 76, 60
2, 6784, Note_off_c, 0, 76, 100
2, 6816, Note_on_c, 0, 81, 60
2, 6880, Note_off_c, 0, 81, 100
2, 6912, Note_on_c, 0, 79, 60
2, 6912, Note_on_c, 0, 76, 60
2, 6912, Note_on_c, 0, 62, 60
2, 6912, Note_on_c, 0, 69, 60
2, 7008, Note_off_c, 0, 62, 100
2, 7008, Note_off_c, 0, 69, 100
2, 7040, Note_off_c, 0, 79, 100
2, 7040, Note_off_c, 0, 76, 100
2, 7104, Note_on_c, 0, 78, 60
2, 7104, Note_on_c, 0, 74, 60
2, 7168, Note_off_c, 0, 78, 100
2, 7168, Note_off_c, 0, 74, 100
2, 7200, Note_on_c, 0, 74, 90
2, 7212, Note_off_c, 0, 74, 100
2, 7224, Note_on_c, 0, 78, 90
2, 7320, Note_off_c, 0, 78, 100
2, 7392, Note_on_c, 0, 79, 90
2, 7456, Note_off_c, 0, 79, 100
2, 7488, Note_on_c, 0, 83, 90
2, 7520, Note_off_c, 0, 83, 100
2, 7536, Note_on_c, 0, 81, 90
2, 7568, Note_off_c, 0, 81, 100
2, 7584, Note_on_c, 0, 79, 90
2, 7616, Note_off_c, 0, 79, 100
2, 7632, Note_on_c, 0, 78, 90
2, 7664, Note_off_c, 0, 78, 100
2, 7680, Note_on_c, 0, 76, 90
2, 7712, Note_off_c, 0, 76, 100
2, 7728, Note_on_c, 0, 74, 90
2, 7760, Note_off_c, 0, 74, 100
2, 7776, Note_on_c, 0, 79, 90
2, 7784, Note_off_c, 0, 79, 100
2, 7800, Note_on_c, 0, 83, 90
2, 7896, Note_off_c, 0, 83, 100
2, 7968, Note_on_c, 0, 85, 90
2, 8032, Note_off_c, 0, 85, 100
2, 8064, Note_on_c, 0, 88, 90
2, 8096, Note_off_c, 0, 88, 100
2, 8112, Note_on_c, 0, 86, 90
2, 8144, Note_off_c, 0, 86, 100
2, 8160, Note_on_c, 0, 85, 90
2, 8192, Note_off_c, 0, 85, 100
2, 8208, Note_on_c, 0, 83, 90
2, 8240, Note_off_c, 0, 83, 100
2, 8256, Note_on_c, 0, 81, 90
2, 8288, Note_off_c, 0, 81, 100
2, 8304, Note_on_c, 0, 79, 90
2, 8336, Note_off_c, 0, 79, 100
2, 8352, Note_on_c, 0, 85, 90
2, 8384, Note_off_c, 0, 85, 100
2, 8400, Note_on_c, 0, 83, 90
2, 8432, Note_off_c, 0, 83, 100
2, 8448, Note_on_c, 0, 81, 90
2, 8480, Note_off_c, 0, 81, 100
2, 8496, Note_on_c, 0, 79, 90
2, 8528, Note_off_c, 0, 79, 100
2, 8544, Note_on_c, 0, 78, 90
2, 8576, Note_off_c, 0, 78, 100
2, 8592, Note_on_c, 0, 76, 90
2, 8624, Note_off_c, 0, 76, 100
2, 8640, Note_on_c, 0, 83, 90
2, 8672, Note_off_c, 0, 83, 100
2, 8688, Note_on_c, 0, 81, 90
2, 8720, Note_off_c, 0, 81, 100
2, 8736, Note_on_c, 0, 79, 90
2, 8768, Note_off_c, 0, 79, 100
2, 8784, Note_on_c, 0, 78, 90
2, 8816, Note_off_c, 0, 78, 100
2, 8832, Note_on_c, 0, 76, 90
2, 8864, Note_off_c, 0, 76, 100
2, 8880, Note_on_c, 0, 74, 90
2, 8912, Note_off_c, 0, 74, 100
2, 8928, Note_on_c, 0, 81, 90
2, 8960, Note_off_c, 0, 81, 100
2, 8976, Note_on_c, 0, 79, 90
2, 9008, Note_off_c, 0, 79, 100
2, 9024, Note_on_c, 0, 78, 90
2, 9056, Note_off_c, 0, 78, 100
2, 9072, Note_on_c, 0, 76, 90
2, 9104, Note_off_c, 0, 76, 100
2, 9120, Note_on_c, 0, 74, 90
2, 9152, Note_off_c, 0, 74, 100
2, 9168, Note_on_c, 0, 73, 90
2, 9200, Note_off_c, 0, 73, 100
2, 9216, Note_on_c, 0, 74, 90
2, 9280, Note_off_c, 0, 74, 100
2, 9408, Note_on_c, 0, 62, 105
2, 9440, Note_off_c, 0, 62, 100
2, 9448, Note_on_c, 0, 66, 105
2, 9480, Note_off_c, 0, 66, 100
2, 9504, Note_on_c, 0, 69, 105
2, 9568, Note_off_c, 0, 69, 100
2, 9696, Note_on_c, 0, 66, 105
2, 9728, Note_off_c, 0, 66, 100
2, 9744, Note_on_c, 0, 69, 105
2, 9776, Note_off_c, 0, 69, 100
2, 9792, Note_on_c, 0, 74, 105
2, 9856, Note_off_c, 0, 74, 100
2, 9984, Note_on_c, 0, 69, 105
2, 10016, Note_off_c, 0, 69, 100
2, 10032, Note_on_c, 0, 74, 105
2, 10064, Note_off_c, 0, 74, 100
2, 10080, Note_on_c, 0, 78, 105
2, 10144, Note_off_c, 0, 78, 100
2, 10272, Note_on_c, 0, 74, 105
2, 10304, Note_off_c, 0, 74, 100
2, 10320, Note_on_c, 0, 78, 105
2, 10352, Note_off_c, 0, 78, 100
2, 10368, Note_on_c, 0, 81, 105
2, 10432, Note_off_c, 0, 81, 100
2, 10944, Note_on_c, 0, 81, 60
2, 10944, Note_on_c, 0, 66, 60
2, 10944, Note_on_c, 0, 62, 60
2, 10944, Note_on_c, 0, 57, 60
2, 11072, Note_off_c, 0, 81, 100
2, 11136, Note_off_c, 0, 66, 100
2, 11136, Note_off_c, 0, 62, 100
2, 11136, Note_on_c, 0, 81, 60
2, 11168, Note_off_c, 0, 81, 100
2, 11184, Note_on_c, 0, 83, 60
2, 11216, Note_off_c, 0, 83, 100
2, 11232, Note_on_c, 0, 74, 60
2, 11232, Note_on_c, 0, 67, 60
2, 11232, Note_on_c, 0, 64, 60
2, 11328, Note_off_c, 0, 57, 100
2, 11360, Note_off_c, 0, 74, 100
2, 11424, Note_off_c, 0, 67, 100
2, 11424, Note_off_c, 0, 64, 100
2, 11424, Note_on_c, 0, 73, 60
2, 11488, Note_off_c, 0, 73, 100
2, 11520, Note_on_c, 0, 74, 60
2, 11520, Note_on_c, 0, 66, 60
2, 11520, Note_on_c, 0, 62, 60
2, 11520, Note_on_c, 0, 57, 60
2, 11584, Note_off_c, 0, 74, 100
2, 11584, Note_off_c, 0, 66, 100
2, 11584, Note_off_c, 0, 62, 100
2, 11584, Note_off_c, 0, 57, 100
2, 11616, Note_on_c, 0, 86, 60
2, 11680, Note_off_c, 0, 86, 100
2, 11712, Note_on_c, 0, 85, 60
2, 11776, Note_off_c, 0, 85, 100
2, 11808, Note_on_c, 0, 83, 60
2, 11872, Note_off_c, 0, 83, 100
2, 11904, Note_on_c, 0, 81, 60
2, 11968, Note_off_c, 0, 81, 100
2, 12000, Note_on_c, 0, 80, 60
2, 12064, Note_off_c, 0, 80, 100
2, 12096, Note_on_c, 0, 81, 60
2, 12096, Note_on_c, 0, 66, 60
2, 12096, Note_on_c, 0, 62, 60
2, 12096, Note_on_c, 0, 57, 60
2, 12224, Note_off_c, 0, 81, 100
2, 12288, Note_off_c, 0, 66, 100
2, 12288, Note_off_c, 0, 62, 100
2, 12288, Note_on_c, 0, 81, 60
2, 12312, Note_off_c, 0, 81, 100
2, 12312, Note_on_c, 0, 83, 60
2, 12320, Note_off_c, 0, 83, 100
2, 12324, Note_on_c, 0, 81, 60
2, 12332, Note_off_c, 0, 81, 100
2, 12336, Note_on_c, 0, 80, 60
2, 12344, Note_off_c, 0, 80, 100
2, 12348, Note_on_c, 0, 81, 60
2, 12356, Note_off_c, 0, 81, 100
2, 12360, Note_on_c, 0, 83, 60
2, 12368, Note_off_c, 0, 83, 100
2, 12384, Note_on_c, 0, 74, 60
2, 12384, Note_on_c, 0, 64, 60
2, 12384, Note_on_c, 0, 67, 60
2, 12480, Note_off_c, 0, 57, 100
2, 12480, Note_off_c, 0, 64, 100
2, 12480, Note_off_c, 0, 67, 100
2, 12512, Note_off_c, 0, 74, 100
2, 12576, Note_on_c, 0, 73, 60
2, 12640, Note_off_c, 0, 73, 100
2, 12672, Note_on_c, 0, 74, 60
2, 12672, Note_on_c, 0, 66, 60
2, 12672, Note_on_c, 0, 62, 60
2, 12672, Note_on_c, 0, 57, 60
2, 12736, Note_off_c, 0, 74, 100
2, 12736, Note_off_c, 0, 66, 100
2, 12736, Note_off_c, 0, 62, 100
2, 12736, Note_off_c, 0, 57, 100
2, 12768, Note_on_c, 0, 86, 60
2, 12832, Note_off_c, 0, 86, 100
2, 12864, Note_on_c, 0, 85, 60
2, 12928, Note_off_c, 0, 85, 100
2, 12960, Note_on_c, 0, 83, 60
2, 13024, Note_off_c, 0, 83, 100
2, 13056, Note_on_c, 0, 81, 60
2, 13120, Note_off_c, 0, 81, 100
2, 13152, Note_on_c, 0, 80, 60
2, 13216, Note_off_c, 0, 80, 100
2, 13248, Note_on_c, 0, 81, 60
2, 13248, Note_on_c, 0, 66, 60
2, 13248, Note_on_c, 0, 62, 60
2, 13248, Note_on_c, 0, 57, 60
2, 13376, Note_off_c, 0, 81, 100
2, 13440, Note_off_c, 0, 66, 100
2, 13440, Note_off_c, 0, 62, 100
2, 13440, Note_on_c, 0, 81, 60
2, 13464, Note_off_c, 0, 81, 100
2, 13464, Note_on_c, 0, 83, 60
2, 13472, Note_off_c, 0, 83, 100
2, 13476, Note_on_c, 0, 81, 60
2, 13484, Note_off_c, 0, 81, 100
2, 13488, Note_on_c, 0, 80, 60
2, 13496, Note_off_c, 0, 80, 100
2, 13500, Note_on_c, 0, 81, 60
2, 13508, Note_off_c, 0, 81, 100
2, 13512, Note_on_c, 0, 83, 60
2, 13520, Note_off_c, 0, 83, 100
2, 13536, Note_on_c, 0, 74, 60
2, 13536, Note_on_c, 0, 64, 60
2, 13536, Note_on_c, 0, 67, 60
2, 13632, Note_off_c, 0, 57, 100
2, 13664, Note_off_c, 0, 74, 100
2, 13728, Note_off_c, 0, 64, 100
2, 13728, Note_off_c, 0, 67, 100
2, 13728, Note_on_c, 0, 73, 60
2, 13792, Note_off_c, 0, 73, 100
2, 13824, Note_on_c, 0, 74, 60
2, 13824, Note_on_c, 0, 66, 60
2, 13824, Note_on_c, 0, 62, 60
2, 13888, Note_off_c, 0, 74, 100
2, 13888, Note_off_c, 0, 66, 100
2, 13888, Note_off_c, 0, 62, 100
2, 14112, Note_on_c, 0, 62, 60
2, 14112, Note_on_c, 0, 59, 60
2, 14304, Note_off_c, 0, 62, 100
2, 14304, Note_off_c, 0, 59, 100
2, 14400, Note_on_c, 0, 62, 60
2, 14400, Note_on_c, 0, 59, 60
2, 14400, Note_on_c, 0, 64, 60
2, 14592, Note_off_c, 0, 62, 100
2, 14592, Note_off_c, 0, 59, 100
2, 14592, Note_off_c, 0, 64, 100
2, 14688, Note_on_c, 0, 69, 60
2, 14688, Note_on_c, 0, 64, 60
2, 14688, Note_on_c, 0, 61, 60
2, 14880, Note_off_c, 0, 69, 100
2, 14880, Note_off_c, 0, 64, 100
2, 14880, Note_off_c, 0, 61, 100
2, 14976, Note_on_c, 0, 66, 60
2, 14976, Note_on_c, 0, 62, 60
2, 14976, Note_on_c, 0, 57, 60
2, 15040, Note_off_c, 0, 66, 100
2, 15040, Note_off_c, 0, 62, 100
2, 15040, Note_off_c, 0, 57, 100
2, 15360, Note_on_c, 0, 62, 90
2, 15424, Note_off_c, 0, 62, 100
2, 15456, Note_on_c, 0, 62, 90
2, 15520, Note_off_c, 0, 62, 100
2, 15552, Note_on_c, 0, 64, 90
2, 15568, Note_off_c, 0, 64, 100
2, 15576, Note_on_c, 0, 62, 90
2, 15592, Note_off_c, 0, 62, 100
2, 15600, Note_on_c, 0, 61, 90
2, 15616, Note_off_c, 0, 61, 100
2, 15624, Note_on_c, 0, 62, 90
2, 15720, Note_off_c, 0, 62, 100
2, 15744, Note_on_c, 0, 62, 90
2, 15808, Note_off_c, 0, 62, 100
2, 15840, Note_on_c, 0, 64, 90
2, 15856, Note_off_c, 0, 64, 100
2, 15864, Note_on_c, 0, 62, 90
2, 15880, Note_off_c, 0, 62, 100
2, 15888, Note_on_c, 0, 61, 90
2, 15904, Note_off_c, 0, 61, 100
2, 15912, Note_on_c, 0, 62, 90
2, 16008, Note_off_c, 0, 62, 100
2, 16032, Note_on_c, 0, 62, 90
2, 16096, Note_off_c, 0, 62, 100
2, 16128, Note_on_c, 0, 61, 90
2, 16256, Note_off_c, 0, 61, 100
2, 16368, Note_on_c, 0, 76, 90
2, 16400, Note_off_c, 0, 76, 100
2, 16424, Note_on_c, 0, 81, 97
2, 16616, Note_off_c, 0, 81, 100
2, 16704, Note_on_c, 0, 81, 60
2, 16704, Note_on_c, 0, 69, 60
2, 16704, Note_on_c, 0, 61, 60
2, 16768, Note_off_c, 0, 81, 100
2, 16768, Note_off_c, 0, 69, 100
2, 16768, Note_off_c, 0, 61, 100
2, 16800, Note_on_c, 0, 85, 60
2, 16800, Note_on_c, 0, 69, 60
2, 16800, Note_on_c, 0, 61, 60
2, 16864, Note_off_c, 0, 85, 100
2, 16864, Note_off_c, 0, 69, 100
2, 16864, Note_off_c, 0, 61, 100
2, 16896, Note_on_c, 0, 83, 60
2, 16896, Note_on_c, 0, 69, 60
2, 16896, Note_on_c, 0, 61, 60
2, 16960, Note_off_c, 0, 83, 100
2, 16960, Note_off_c, 0, 69, 100
2, 16960, Note_off_c, 0, 61, 100
2, 16992, Note_on_c, 0, 81, 60
2, 16992, Note_on_c, 0, 69, 60
2, 16992, Note_on_c, 0, 61, 60
2, 17056, Note_off_c, 0, 81, 100
2, 17056, Note_off_c, 0, 69, 100
2, 17056, Note_off_c, 0, 61, 100
2, 17088, Note_on_c, 0, 80, 60
2, 17088, Note_on_c, 0, 69, 60
2, 17088, Note_on_c, 0, 61, 60
2, 17152, Note_off_c, 0, 80, 100
2, 17152, Note_off_c, 0, 69, 100
2, 17152, Note_off_c, 0, 61, 100
2, 17184, Note_on_c, 0, 78, 60
2, 17184, Note_on_c, 0, 69, 60
2, 17184, Note_on_c, 0, 61, 60
2, 17248, Note_off_c, 0, 78, 100
2, 17248, Note_off_c, 0, 69, 100
2, 17248, Note_off_c, 0, 61, 100
2, 17280, Note_on_c, 0, 76, 60
2, 17280, Note_on_c, 0, 71, 60
2, 17280, Note_on_c, 0, 59, 60
2, 17472, Note_off_c, 0, 76, 100
2, 17472, Note_off_c, 0, 71, 100
2, 17472, Note_off_c, 0, 59, 100
2, 17568, Note_on_c, 0, 74, 60
2, 17568, Note_on_c, 0, 71, 60
2, 17568, Note_on_c, 0, 59, 60
2, 17632, Note_off_c, 0, 74, 100
2, 17632, Note_off_c, 0, 71, 100
2, 17632, Note_off_c, 0, 59, 100
2, 17664, Note_on_c, 0, 59, 90
2, 17728, Note_off_c, 0, 59, 100
2, 17760, Note_on_c, 0, 59, 90
2, 17824, Note_off_c, 0, 59, 100
2, 17856, Note_on_c, 0, 61, 90
2, 17872, Note_off_c, 0, 61, 100
2, 17880, Note_on_c, 0, 59, 90
2, 17896, Note_off_c, 0, 59, 100
2, 17904, Note_on_c, 0, 57, 90
2, 17920, Note_off_c, 0, 57, 100
2, 17928, Note_on_c, 0, 59, 90
2, 18024, Note_off_c, 0, 59, 100
2, 18048, Note_on_c, 0, 59, 90
2, 18112, Note_off_c, 0, 59, 100
2, 18144, Note_on_c, 0, 59, 90
2, 18160, Note_off_c, 0, 59, 100
2, 18168, Note_on_c, 0, 57, 90
2, 18184, Note_off_c, 0, 57, 100
2, 18192, Note_on_c, 0, 55, 90
2, 18208, Note_off_c, 0, 55, 100
2, 18216, Note_on_c, 0, 57, 90
2, 18312, Note_off_c, 0, 57, 100
2, 18336, Note_on_c, 0, 57, 90
2, 18400, Note_off_c, 0, 57, 100
2, 18432, Note_on_c, 0, 56, 90
2, 18560, Note_off_c, 0, 56, 100
2, 18672, Note_on_c, 0, 76, 90
2, 18704, Note_off_c, 0, 76, 100
2, 18720, Note_on_c, 0, 83, 97
2, 18912, Note_off_c, 0, 83, 100
2, 19008, Note_on_c, 0, 86, 90
2, 19040, Note_off_c, 0, 86, 100
2, 19056, Note_on_c, 0, 85, 90
2, 19088, Note_off_c, 0, 85, 100
2, 19104, Note_on_c, 0, 83, 90
2, 19136, Note_off_c, 0, 83, 100
2, 19152, Note_on_c, 0, 81, 90
2, 19184, Note_off_c, 0, 81, 100
2, 19200, Note_on_c, 0, 80, 90
2, 19232, Note_off_c, 0, 80, 100
2, 19248, Note_on_c, 0, 78, 90
2, 19280, Note_off_c, 0, 78, 100
2, 19296, Note_on_c, 0, 76, 90
2, 19328, Note_off_c, 0, 76, 100
2, 19336, Note_on_c, 0, 78, 90
2, 19368, Note_off_c, 0, 78, 100
2, 19392, Note_on_c, 0, 76, 90
2, 19424, Note_off_c, 0, 76, 100
2, 19440, Note_on_c, 0, 74, 90
2, 19472, Note_off_c, 0, 74, 100
2, 19488, Note_on_c, 0, 73, 90
2, 19520, Note_off_c, 0, 73, 100
2, 19528, Note_on_c, 0, 71, 90
2, 19560, Note_off_c, 0, 71, 100
2, 19584, Note_on_c, 0, 73, 90
2, 19616, Note_off_c, 0, 73, 100
2, 19632, Note_on_c, 0, 76, 90
2, 19664, Note_off_c, 0, 76, 100
2, 19680, Note_on_c, 0, 78, 90
2, 19712, Note_off_c, 0, 78, 100
2, 19728, Note_on_c, 0, 80, 90
2, 19760, Note_off_c, 0, 80, 100
2, 19776, Note_on_c, 0, 81, 90
2, 19808, Note_off_c, 0, 81, 100
2, 19824, Note_on_c, 0, 83, 90
2, 19856, Note_off_c, 0, 83, 100
2, 19872, Note_on_c, 0, 85, 90
2, 19904, Note_off_c, 0, 85, 100
2, 19920, Note_on_c, 0, 86, 90
2, 19952, Note_off_c, 0, 86, 100
2, 19968, Note_on_c, 0, 88, 90
2, 20000, Note_off_c, 0, 88, 100
2, 20016, Note_on_c, 0, 85, 90
2, 20048, Note_off_c, 0, 85, 100
2, 20064, Note_on_c, 0, 83, 90
2, 20096, Note_off_c, 0, 83, 100
2, 20112, Note_on_c, 0, 81, 90
2, 20144, Note_off_c, 0, 81, 100
2, 20160, Note_on_c, 0, 86, 90
2, 20192, Note_off_c, 0, 86, 100
2, 20208, Note_on_c, 0, 85, 90
2, 20240, Note_off_c, 0, 85, 100
2, 20256, Note_on_c, 0, 83, 90
2, 20288, Note_off_c, 0, 83, 100
2, 20304, Note_on_c, 0, 81, 90
2, 20336, Note_off_c, 0, 81, 100
2, 20352, Note_on_c, 0, 80, 90
2, 20384, Note_off_c, 0, 80, 100
2, 20400, Note_on_c, 0, 78, 90
2, 20432, Note_off_c, 0, 78, 100
2, 20448, Note_on_c, 0, 76, 90
2, 20480, Note_off_c, 0, 76, 100
2, 20496, Note_on_c, 0, 78, 90
2, 20528, Note_off_c, 0, 78, 100
2, 20544, Note_on_c, 0, 76, 90
2, 20576, Note_off_c, 0, 76, 100
2, 20592, Note_on_c, 0, 74, 90
2, 20624, Note_off_c, 0, 74, 100
2, 20640, Note_on_c, 0, 73, 90
2, 20672, Note_off_c, 0, 73, 100
2, 20688, Note_on_c, 0, 71, 90
2, 20720, Note_off_c, 0, 71, 100
2, 20736, Note_on_c, 0, 73, 90
2, 20768, Note_off_c, 0, 73, 100
2, 20784, Note_on_c, 0, 76, 90
2, 20816, Note_off_c, 0, 76, 100
2, 20832, Note_on_c, 0, 78, 90
2, 20864, Note_off_c, 0, 78, 100
2, 20880, Note_on_c, 0, 80, 90
2, 20912, Note_off_c, 0, 80, 100
2, 20928, Note_on_c, 0, 81, 90
2, 20960, Note_off_c, 0, 81, 100
2, 20976, Note_on_c, 0, 83, 90
2, 21008, Note_off_c, 0, 83, 100
2, 21024, Note_on_c, 0, 85, 90
2, 21056, Note_off_c, 0, 85, 100
2, 21072, Note_on_c, 0, 86, 90
2, 21104, Note_off_c, 0, 86, 100
2, 21120, Note_on_c, 0, 88, 90
2, 21152, Note_off_c, 0, 88, 100
2, 21168, Note_on_c, 0, 85, 90
2, 21200, Note_off_c, 0, 85, 100
2, 21216, Note_on_c, 0, 83, 90
2, 21248, Note_off_c, 0, 83, 100
2, 21264, Note_on_c, 0, 81, 90
2, 21296, Note_off_c, 0, 81, 100
2, 21312, Note_on_c, 0, 86, 90
2, 21344, Note_off_c, 0, 86, 100
2, 21360, Note_on_c, 0, 85, 90
2, 21392, Note_off_c, 0, 85, 100
2, 21408, Note_on_c, 0, 83, 90
2, 21440, Note_off_c, 0, 83, 100
2, 21456, Note_on_c, 0, 81, 90
2, 21488, Note_off_c, 0, 81, 100
2, 21504, Note_on_c, 0, 80, 90
2, 21536, Note_off_c, 0, 80, 100
2, 21552, Note_on_c, 0, 78, 90
2, 21584, Note_off_c, 0, 78, 100
2, 21600, Note_on_c, 0, 76, 90
2, 21632, Note_off_c, 0, 76, 100
2, 21648, Note_on_c, 0, 78, 90
2, 21680, Note_off_c, 0, 78, 100
2, 21696, Note_on_c, 0, 76, 90
2, 21728, Note_off_c, 0, 76, 100
2, 21744, Note_on_c, 0, 74, 90
2, 21776, Note_off_c, 0, 74, 100
2, 21792, Note_on_c, 0, 73, 90
2, 21824, Note_off_c, 0, 73, 100
2, 21840, Note_on_c, 0, 71, 90
2, 21872, Note_off_c, 0, 71, 100
2, 21888, Note_on_c, 0, 73, 90
2, 21920, Note_off_c, 0, 73, 100
2, 21936, Note_on_c, 0, 76, 90
2, 21968, Note_off_c, 0, 76, 100
2, 21984, Note_on_c, 0, 78, 90
2, 22016, Note_off_c, 0, 78, 100
2, 22032, Note_on_c, 0, 80, 90
2, 22064, Note_off_c, 0, 80, 100
2, 22080, Note_on_c, 0, 81, 90
2, 22112, Note_off_c, 0, 81, 100
2, 22128, Note_on_c, 0, 83, 90
2, 22160, Note_off_c, 0, 83, 100
2, 22176, Note_on_c, 0, 85, 90
2, 22208, Note_off_c, 0, 85, 100
2, 22224, Note_on_c, 0, 83, 90
2, 22256, Note_off_c, 0, 83, 100
2, 22272, Note_on_c, 0, 81, 90
2, 22304, Note_off_c, 0, 81, 100
2, 22320, Note_on_c, 0, 80, 90
2, 22352, Note_off_c, 0, 80, 100
2, 22368, Note_on_c, 0, 78, 90
2, 22400, Note_off_c, 0, 78, 100
2, 22416, Note_on_c, 0, 76, 90
2, 22448, Note_off_c, 0, 76, 100
2, 22464, Note_on_c, 0, 78, 90
2, 22496, Note_off_c, 0, 78, 100
2, 22512, Note_on_c, 0, 76, 90
2, 22544, Note_off_c, 0, 76, 100
2, 22560, Note_on_c, 0, 74, 90
2, 22592, Note_off_c, 0, 74, 100
2, 22608, Note_on_c, 0, 73, 90
2, 22640, Note_off_c, 0, 73, 100
2, 22656, Note_on_c, 0, 71, 90
2, 22688, Note_off_c, 0, 71, 100
2, 22704, Note_on_c, 0, 69, 90
2, 22736, Note_off_c, 0, 69, 100
2, 22752, Note_on_c, 0, 74, 90
2, 22784, Note_off_c, 0, 74, 100
2, 22800, Note_on_c, 0, 73, 90
2, 22832, Note_off_c, 0, 73, 100
2, 22848, Note_on_c, 0, 71, 90
2, 22880, Note_off_c, 0, 71, 100
2, 22896, Note_on_c, 0, 69, 90
2, 22928, Note_off_c, 0, 69, 100
2, 22944, Note_on_c, 0, 68, 90
2, 22976, Note_off_c, 0, 68, 100
2, 22992, Note_on_c, 0, 66, 90
2, 23024, Note_off_c, 0, 66, 100
2, 23040, Note_on_c, 0, 64, 90
2, 23104, Note_off_c, 0, 64, 100
2, 23136, Note_on_c, 0, 76, 90
2, 23136, Note_on_c, 0, 71, 90
2, 23136, Note_on_c, 0, 68, 90
2, 23200, Note_off_c, 0, 76, 100
2, 23200, Note_off_c, 0, 71, 100
2, 23200, Note_off_c, 0, 68, 100
2, 23232, Note_on_c, 0, 76, 90
2, 23232, Note_on_c, 0, 71, 90
2, 23232, Note_on_c, 0, 68, 90
2, 23296, Note_off_c, 0, 76, 100
2, 23296, Note_off_c, 0, 71, 100
2, 23296, Note_off_c, 0, 68, 100
2, 23328, Note_on_c, 0, 76, 90
2, 23328, Note_on_c, 0, 71, 90
2, 23328, Note_on_c, 0, 68, 90
2, 23392, Note_off_c, 0, 76, 100
2, 23392, Note_off_c, 0, 71, 100
2, 23392, Note_off_c, 0, 68, 100
2, 23616, Note_on_c, 0, 73, 60
2, 23616, Note_on_c, 0, 64, 60
2, 23808, Note_off_c, 0, 73, 100
2, 23808, Note_off_c, 0, 64, 100
2, 23904, Note_on_c, 0, 62, 60
2, 23904, Note_on_c, 0, 71, 60
2, 23968, Note_off_c, 0, 71, 100
2, 24000, Note_on_c, 0, 73, 60
2, 24064, Note_off_c, 0, 73, 100
2, 24096, Note_off_c, 0, 62, 100
2, 24096, Note_on_c, 0, 71, 60
2, 24160, Note_off_c, 0, 71, 100
2, 24192, Note_on_c, 0, 69, 60
2, 24192, Note_on_c, 0, 61, 60
2, 24576, Note_off_c, 0, 69, 100
2, 24576, Note_off_c, 0, 61, 100
2, 24768, Note_on_c, 0, 61, 60
2, 24768, Note_on_c, 0, 69, 60
2, 24896, Note_off_c, 0, 69, 100
2, 24960, Note_off_c, 0, 61, 100
2, 24960, Note_on_c, 0, 73, 60
2, 25024, Note_off_c, 0, 73, 100
2, 25056, Note_on_c, 0, 69, 60
2, 25056, Note_on_c, 0, 74, 60
2, 25184, Note_off_c, 0, 74, 100
2, 25248, Note_off_c, 0, 69, 100
2, 25248, Note_on_c, 0, 78, 60
2, 25312, Note_off_c, 0, 78, 100
2, 25344, Note_on_c, 0, 68, 60
2, 25344, Note_on_c, 0, 76, 60
2, 25408, Note_off_c, 0, 68, 100
2, 25440, Note_on_c, 0, 69, 60
2, 25472, Note_off_c, 0, 76, 100
2, 25504, Note_off_c, 0, 69, 100
2, 25536, Note_on_c, 0, 71, 60
2, 25536, Note_on_c, 0, 74, 60
2, 25600, Note_off_c, 0, 71, 100
2, 25600, Note_off_c, 0, 74, 100
2, 25632, Note_on_c, 0, 73, 60
2, 25632, Note_on_c, 0, 69, 60
2, 25760, Note_off_c, 0, 73, 100
2, 25760, Note_off_c, 0, 69, 100
2, 25920, Note_on_c, 0, 71, 60
2, 25920, Note_on_c, 0, 69, 60
2, 25920, Note_on_c, 0, 66, 60
2, 25920, Note_on_c, 0, 62, 60
2, 26112, Note_off_c, 0, 71, 100
2, 26112, Note_off_c, 0, 62, 100
2, 26208, Note_on_c, 0, 71, 60
2, 26208, Note_on_c, 0, 63, 60
2, 26272, Note_off_c, 0, 71, 100
2, 26304, Note_off_c, 0, 69, 100
2, 26304, Note_off_c, 0, 66, 100
2, 26304, Note_on_c, 0, 73, 60
2, 26368, Note_off_c, 0, 73, 100
2, 26400, Note_off_c, 0, 63, 100
2, 26400, Note_on_c, 0, 71, 60
2, 26464, Note_off_c, 0, 71, 100
2, 26496, Note_on_c, 0, 71, 60
2, 26496, Note_on_c, 0, 68, 60
2, 26496, Note_on_c, 0, 64, 60
2, 26688, Note_off_c, 0, 71, 100
2, 26688, Note_off_c, 0, 68, 100
2, 26688, Note_off_c, 0, 64, 100
2, 26784, Note_on_c, 0, 71, 60
2, 26784, Note_on_c, 0, 64, 60
2, 26784, Note_on_c, 0, 62, 60
2, 26784, Note_on_c, 0, 68, 60
2, 26848, Note_off_c, 0, 71, 100
2, 26880, Note_on_c, 0, 73, 60
2, 26944, Note_off_c, 0, 73, 100
2, 26976, Note_off_c, 0, 64, 100
2, 26976, Note_off_c, 0, 62, 100
2, 26976, Note_off_c, 0, 68, 100
2, 26976, Note_on_c, 0, 74, 60
2, 27040, Note_off_c, 0, 74, 100
2, 27072, Note_on_c, 0, 76, 60
2, 27072, Note_on_c, 0, 69, 60
2, 27072, Note_on_c, 0, 64, 60
2, 27072, Note_on_c, 0, 61, 60
2, 27136, Note_off_c, 0, 76, 100
2, 27136, Note_off_c, 0, 69, 100
2, 27136, Note_off_c, 0, 64, 100
2, 27136, Note_off_c, 0, 61, 100
2, 27168, Note_on_c, 0, 81, 60
2, 27232, Note_off_c, 0, 81, 100
2, 27264, Note_on_c, 0, 80, 60
2, 27328, Note_off_c, 0, 80, 100
2, 27360, Note_on_c, 0, 78, 60
2, 27424, Note_off_c, 0, 78, 100
2, 27456, Note_on_c, 0, 76, 60
2, 27520, Note_off_c, 0, 76, 100
2, 27552, Note_on_c, 0, 74, 60
2, 27616, Note_off_c, 0, 74, 100
2, 27648, Note_on_c, 0, 73, 60
2, 27776, Note_off_c, 0, 73, 100
2, 27840, Note_on_c, 0, 74, 60
2, 27872, Note_off_c, 0, 74, 100
2, 27888, Note_on_c, 0, 73, 60
2, 27920, Note_off_c, 0, 73, 100
2, 27936, Note_on_c, 0, 71, 60
2, 28000, Note_off_c, 0, 71, 100
2, 28224, Note_on_c, 0, 73, 60
2, 28224, Note_on_c, 0, 64, 60
2, 28416, Note_off_c, 0, 73, 100
2, 28416, Note_off_c, 0, 64, 100
2, 28512, Note_on_c, 0, 62, 60
2, 28512, Note_on_c, 0, 71, 60
2, 28576, Note_off_c, 0, 71, 100
2, 28608, Note_on_c, 0, 73, 60
2, 28672, Note_off_c, 0, 73, 100
2, 28704, Note_off_c, 0, 62, 100
2, 28704, Note_on_c, 0, 71, 60
2, 28768, Note_off_c, 0, 71, 100
2, 28800, Note_on_c, 0, 69, 60
2, 28800, Note_on_c, 0, 61, 60
2, 28992, Note_off_c, 0, 61, 100
2, 29088, Note_on_c, 0, 67, 60
2, 29088, Note_on_c, 0, 61, 60
2, 29184, Note_off_c, 0, 69, 100
2, 29280, Note_off_c, 0, 67, 100
2, 29280, Note_off_c, 0, 61, 100
2, 29376, Note_on_c, 0, 69, 60
2, 29376, Note_on_c, 0, 66, 60
2, 29376, Note_on_c, 0, 62, 60
2, 29504, Note_off_c, 0, 69, 100
2, 29504, Note_off_c, 0, 66, 100
2, 29504, Note_off_c, 0, 62, 100
2, 29568, Note_on_c, 0, 70, 60
2, 29568, Note_on_c, 0, 64, 60
2, 29568, Note_on_c, 0, 66, 60
2, 29632, Note_off_c, 0, 70, 100
2, 29632, Note_off_c, 0, 64, 100
2, 29632, Note_off_c, 0, 66, 100
2, 29664, Note_on_c, 0, 71, 60
2, 29664, Note_on_c, 0, 66, 60
2, 29664, Note_on_c, 0, 62, 60
2, 29792, Note_off_c, 0, 71, 100
2, 29792, Note_off_c, 0, 66, 100
2, 29792, Note_off_c, 0, 62, 100
2, 29856, Note_on_c, 0, 78, 60
2, 29856, Note_on_c, 0, 73, 60
2, 29920, Note_off_c, 0, 78, 100
2, 29920, Note_off_c, 0, 73, 100
2, 29952, Note_on_c, 0, 76, 60
2, 29952, Note_on_c, 0, 71, 60
2, 30080, Note_off_c, 0, 76, 100
2, 30080, Note_off_c, 0, 71, 100
2, 30144, Note_on_c, 0, 74, 60
2, 30144, Note_on_c, 0, 68, 60
2, 30208, Note_off_c, 0, 74, 100
2, 30208, Note_off_c, 0, 68, 100
2, 30240, Note_on_c, 0, 69, 60
2, 30240, Note_on_c, 0, 73, 60
2, 30368, Note_off_c, 0, 69, 100
2, 30368, Note_off_c, 0, 73, 100
2, 30528, Note_on_c, 0, 71, 60
2, 30592, Note_off_c, 0, 71, 100
2, 30624, Note_on_c, 0, 83, 60
2, 30688, Note_off_c, 0, 83, 100
2, 30720, Note_on_c, 0, 83, 60
2, 30784, Note_off_c, 0, 83, 100
2, 30816, Note_on_c, 0, 83, 60
2, 30880, Note_off_c, 0, 83, 100
2, 30912, Note_on_c, 0, 83, 60
2, 30976, Note_off_c, 0, 83, 100
2, 31008, Note_on_c, 0, 83, 60
2, 31072, Note_off_c, 0, 83, 100
2, 31104, Note_on_c, 0, 83, 60
2, 31168, Note_off_c, 0, 83, 100
2, 31200, Note_on_c, 0, 76, 60
2, 31264, Note_off_c, 0, 76, 100
2, 31296, Note_on_c, 0, 88, 60
2, 31360, Note_off_c, 0, 88, 100
2, 31392, Note_on_c, 0, 88, 60
2, 31456, Note_off_c, 0, 88, 100
2, 31488, Note_on_c, 0, 81, 60
2, 31552, Note_off_c, 0, 81, 100
2, 31584, Note_on_c, 0, 81, 60
2, 31648, Note_off_c, 0, 81, 100
2, 31680, Note_on_c, 0, 81, 60
2, 31744, Note_off_c, 0, 81, 100
2, 31776, Note_on_c, 0, 78, 60
2, 31776, Note_on_c, 0, 74, 60
2, 31840, Note_off_c, 0, 78, 100
2, 31840, Note_off_c, 0, 74, 100
2, 31872, Note_on_c, 0, 76, 60
2, 31872, Note_on_c, 0, 73, 60
2, 31936, Note_off_c, 0, 76, 100
2, 31936, Note_off_c, 0, 73, 100
2, 31968, Note_on_c, 0, 74, 60
2, 31968, Note_on_c, 0, 71, 60
2, 32032, Note_off_c, 0, 74, 100
2, 32032, Note_off_c, 0, 71, 100
2, 32064, Note_on_c, 0, 73, 60
2, 32064, Note_on_c, 0, 69, 60
2, 32128, Note_off_c, 0, 73, 100
2, 32128, Note_off_c, 0, 69, 100
2, 32160, Note_on_c, 0, 71, 60
2, 32160, Note_on_c, 0, 68, 60
2, 32224, Note_off_c, 0, 71, 100
2, 32224, Note_off_c, 0, 68, 100
2, 32256, Note_on_c, 0, 69, 90
2, 32448, Note_off_c, 0, 69, 100
2, 32544, Note_on_c, 0, 85, 90
2, 32736, Note_off_c, 0, 85, 100
2, 32832, Note_on_c, 0, 86, 90
2, 32864, Note_off_c, 0, 86, 100
2, 32880, Note_on_c, 0, 85, 90
2, 32912, Note_off_c, 0, 85, 100
2, 32928, Note_on_c, 0, 83, 90
2, 32960, Note_off_c, 0, 83, 100
2, 32976, Note_on_c, 0, 81, 90
2, 33008, Note_off_c, 0, 81, 100
2, 33024, Note_on_c, 0, 80, 90
2, 33088, Note_off_c, 0, 80, 100
2, 33120, Note_on_c, 0, 83, 90
2, 33152, Note_off_c, 0, 83, 100
2, 33168, Note_on_c, 0, 81, 90
2, 33200, Note_off_c, 0, 81, 100
2, 33216, Note_on_c, 0, 80, 90
2, 33248, Note_off_c, 0, 80, 100
2, 33264, Note_on_c, 0, 78, 90
2, 33296, Note_off_c, 0, 78, 100
2, 33312, Note_on_c, 0, 76, 90
2, 33344, Note_off_c, 0, 76, 100
2, 33360, Note_on_c, 0, 74, 90
2, 33392, Note_off_c, 0, 74, 100
2, 33408, Note_on_c, 0, 73, 82
2, 33472, Note_off_c, 0, 73, 100
2, 33504, Note_on_c, 0, 76, 82
2, 33568, Note_off_c, 0, 76, 100
2, 33600, Note_on_c, 0, 81, 82
2, 33664, Note_off_c, 0, 81, 100
2, 33696, Note_on_c, 0, 85, 82
2, 33760, Note_off_c, 0, 85, 100
2, 33792, Note_on_c, 0, 88, 82
2, 33856, Note_off_c, 0, 88, 100
2, 33984, Note_on_c, 0, 86, 90
2, 34016, Note_off_c, 0, 86, 100
2, 34032, Note_on_c, 0, 85, 90
2, 34064, Note_off_c, 0, 85, 100
2, 34080, Note_on_c, 0, 83, 90
2, 34112, Note_off_c, 0, 83, 100
2, 34128, Note_on_c, 0, 81, 90
2, 34160, Note_off_c, 0, 81, 100
2, 34176, Note_on_c, 0, 80, 90
2, 34240, Note_off_c, 0, 80, 100
2, 34272, Note_on_c, 0, 83, 90
2, 34304, Note_off_c, 0, 83, 100
2, 34320, Note_on_c, 0, 81, 90
2, 34352, Note_off_c, 0, 81, 100
2, 34368, Note_on_c, 0, 80, 90
2, 34400, Note_off_c, 0, 80, 100
2, 34416, Note_on_c, 0, 78, 90
2, 34448, Note_off_c, 0, 78, 100
2, 34464, Note_on_c, 0, 76, 90
2, 34496, Note_off_c, 0, 76, 100
2, 34512, Note_on_c, 0, 74, 90
2, 34544, Note_off_c, 0, 74, 100
2, 34560, Note_on_c, 0, 73, 82
2, 34624, Note_off_c, 0, 73, 100
2, 34656, Note_on_c, 0, 76, 82
2, 34720, Note_off_c, 0, 76, 100
2, 34752, Note_on_c, 0, 81, 82
2, 34816, Note_off_c, 0, 81, 100
2, 34848, Note_on_c, 0, 85, 82
2, 34912, Note_off_c, 0, 85, 100
2, 34944, Note_on_c, 0, 88, 82
2, 35008, Note_off_c, 0, 88, 100
2, 35232, Note_on_c, 0, 77, 60
2, 35296, Note_off_c, 0, 77, 100
2, 35328, Note_on_c, 0, 78, 60
2, 35392, Note_off_c, 0, 78, 100
2, 35424, Note_on_c, 0, 69, 60
2, 35424, Note_on_c, 0, 62, 60
2, 35488, Note_off_c, 0, 69, 100
2, 35488, Note_off_c, 0, 62, 100
2, 35520, Note_on_c, 0, 81, 60
2, 35584, Note_off_c, 0, 81, 100
2, 35616, Note_on_c, 0, 78, 60
2, 35680, Note_off_c, 0, 78, 100
2, 35712, Note_on_c, 0, 69, 60
2, 35712, Note_on_c, 0, 61, 60
2, 35776, Note_off_c, 0, 69, 100
2, 35776, Note_off_c, 0, 61, 100
2, 35808, Note_on_c, 0, 75, 60
2, 35872, Note_off_c, 0, 75, 100
2, 35904, Note_on_c, 0, 76, 60
2, 35968, Note_off_c, 0, 76, 100
2, 36000, Note_on_c, 0, 69, 60
2, 36000, Note_on_c, 0, 62, 60
2, 36064, Note_off_c, 0, 69, 100
2, 36064, Note_off_c, 0, 62, 100
2, 36096, Note_on_c, 0, 78, 60
2, 36160, Note_off_c, 0, 78, 100
2, 36192, Note_on_c, 0, 74, 60
2, 36256, Note_off_c, 0, 74, 100
2, 36288, Note_on_c, 0, 69, 60
2, 36288, Note_on_c, 0, 64, 60
2, 36352, Note_off_c, 0, 69, 100
2, 36352, Note_off_c, 0, 64, 100
2, 36384, Note_on_c, 0, 72, 60
2, 36448, Note_off_c, 0, 72, 100
2, 36480, Note_on_c, 0, 73, 60
2, 36544, Note_off_c, 0, 73, 100
2, 36576, Note_on_c, 0, 68, 60
2, 36576, Note_on_c, 0, 64, 60
2, 36640, Note_off_c, 0, 68, 100
2, 36640, Note_off_c, 0, 64, 100
2, 36672, Note_on_c, 0, 74, 60
2, 36736, Note_off_c, 0, 74, 100
2, 36768, Note_on_c, 0, 71, 60
2, 36832, Note_off_c, 0, 71, 100
2, 36864, Note_on_c, 0, 69, 90
2, 37056, Note_off_c, 0, 69, 100
2, 37152, Note_on_c, 0, 85, 90
2, 37344, Note_off_c, 0, 85, 100
2, 37440, Note_on_c, 0, 86, 90
2, 37472, Note_off_c, 0, 86, 100
2, 37488, Note_on_c, 0, 85, 90
2, 37520, Note_off_c, 0, 85, 100
2, 37536, Note_on_c, 0, 83, 90
2, 37568, Note_off_c, 0, 83, 100
2, 37584, Note_on_c, 0, 81, 90
2, 37616, Note_off_c, 0, 81, 100
2, 37632, Note_on_c, 0, 80, 90
2, 37696, Note_off_c, 0, 80, 100
2, 37728, Note_on_c, 0, 83, 90
2, 37760, Note_off_c, 0, 83, 100
2, 37776, Note_on_c, 0, 81, 90
2, 37808, Note_off_c, 0, 81, 100
2, 37824, Note_on_c, 0, 80, 90
2, 37856, Note_off_c, 0, 80, 100
2, 37872, Note_on_c, 0, 78, 90
2, 37904, Note_off_c, 0, 78, 100
2, 37920, Note_on_c, 0, 76, 90
2, 37952, Note_off_c, 0, 76, 100
2, 37968, Note_on_c, 0, 74, 90
2, 38000, Note_off_c, 0, 74, 100
2, 38016, Note_on_c, 0, 73, 82
2, 38080, Note_off_c, 0, 73, 100
2, 38112, Note_on_c, 0, 76, 82
2, 38176, Note_off_c, 0, 76, 100
2, 38216, Note_on_c, 0, 81, 82
2, 38280, Note_off_c, 0, 81, 100
2, 38304, Note_on_c, 0, 85, 82
2, 38368, Note_off_c, 0, 85, 100
2, 38408, Note_on_c, 0, 88, 82
2, 38472, Note_off_c, 0, 88, 100
2, 38592, Note_on_c, 0, 86, 90
2, 38624, Note_off_c, 0, 86, 100
2, 38648, Note_on_c, 0, 85, 90
2, 38680, Note_off_c, 0, 85, 100
2, 38688, Note_on_c, 0, 83, 90
2, 38720, Note_off_c, 0, 83, 100
2, 38736, Note_on_c, 0, 81, 90
2, 38768, Note_off_c, 0, 81, 100
2, 38784, Note_on_c, 0, 80, 90
2, 38848, Note_off_c, 0, 80, 100
2, 38880, Note_on_c, 0, 83, 90
2, 38912, Note_off_c, 0, 83, 100
2, 38928, Note_on_c, 0, 81, 90
2, 38960, Note_off_c, 0, 81, 100
2, 38976, Note_on_c, 0, 80, 90
2, 39008, Note_off_c, 0, 80, 100
2, 39024, Note_on_c, 0, 78, 90
2, 39056, Note_off_c, 0, 78, 100
2, 39072, Note_on_c, 0, 76, 90
2, 39104, Note_off_c, 0, 76, 100
2, 39120, Note_on_c, 0, 74, 90
2, 39152, Note_off_c, 0, 74, 100
2, 39168, Note_on_c, 0, 73, 82
2, 39232, Note_off_c, 0, 73, 100
2, 39264, Note_on_c, 0, 76, 82
2, 39328, Note_off_c, 0, 76, 100
2, 39360, Note_on_c, 0, 81, 82
2, 39424, Note_off_c, 0, 81, 100
2, 39456, Note_on_c, 0, 85, 82
2, 39520, Note_off_c, 0, 85, 100
2, 39552, Note_on_c, 0, 88, 82
2, 39616, Note_off_c, 0, 88, 100
2, 39840, Note_on_c, 0, 77, 60
2, 39904, Note_off_c, 0, 77, 100
2, 39936, Note_on_c, 0, 78, 60
2, 40000, Note_off_c, 0, 78, 100
2, 40032, Note_on_c, 0, 69, 60
2, 40032, Note_on_c, 0, 62, 60
2, 40096, Note_off_c, 0, 69, 100
2, 40096, Note_off_c, 0, 62, 100
2, 40128, Note_on_c, 0, 81, 60
2, 40192, Note_off_c, 0, 81, 100
2, 40224, Note_on_c, 0, 78, 60
2, 40288, Note_off_c, 0, 78, 100
2, 40320, Note_on_c, 0, 69, 60
2, 40320, Note_on_c, 0, 61, 60
2, 40384, Note_off_c, 0, 69, 100
2, 40384, Note_off_c, 0, 61, 100
2, 40416, Note_on_c, 0, 75, 60
2, 40480, Note_off_c, 0, 75, 100
2, 40512, Note_on_c, 0, 76, 60
2, 40576, Note_off_c, 0, 76, 100
2, 40608, Note_on_c, 0, 69, 60
2, 40608, Note_on_c, 0, 62, 60
2, 40672, Note_off_c, 0, 69, 100
2, 40672, Note_off_c, 0, 62, 100
2, 40704, Note_on_c, 0, 78, 60
2, 40768, Note_off_c, 0, 78, 100
2, 40800, Note_on_c, 0, 74, 60
2, 40864, Note_off_c, 0, 74, 100
2, 40896, Note_on_c, 0, 69, 60
2, 40896, Note_on_c, 0, 64, 60
2, 40960, Note_off_c, 0, 69, 100
2, 40960, Note_off_c, 0, 64, 100
2, 40992, Note_on_c, 0, 72, 60
2, 41056, Note_off_c, 0, 72, 100
2, 41088, Note_on_c, 0, 73, 60
2, 41152, Note_off_c, 0, 73, 100
2, 41184, Note_on_c, 0, 64, 60
2, 41184, Note_on_c, 0, 68, 60
2, 41248, Note_off_c, 0, 64, 100
2, 41248, Note_off_c, 0, 68, 100
2, 41280, Note_on_c, 0, 74, 60
2, 41344, Note_off_c, 0, 74, 100
2, 41376, Note_on_c, 0, 71, 60
2, 41440, Note_off_c, 0, 71, 100
2, 41568, Note_on_c, 0, 77, 90
2, 41568, Note_on_c, 0, 65, 90
2, 41632, Note_off_c, 0, 77, 100
2, 41632, Note_off_c, 0, 65, 100
2, 41664, Note_on_c, 0, 78, 90
2, 41664, Note_on_c, 0, 66, 90
2, 41728, Note_off_c, 0, 78, 100
2, 41728, Note_off_c, 0, 66, 100
2, 41856, Note_on_c, 0, 81, 90
2, 41856, Note_on_c, 0, 69, 90
2, 41920, Note_off_c, 0, 81, 100
2, 41920, Note_off_c, 0, 69, 100
2, 41952, Note_on_c, 0, 78, 90
2, 41952, Note_on_c, 0, 66, 90
2, 42016, Note_off_c, 0, 78, 100
2, 42016, Note_off_c, 0, 66, 100
2, 42144, Note_on_c, 0, 75, 90
2, 42144, Note_on_c, 0, 63, 90
2, 42208, Note_off_c, 0, 75, 100
2, 42208, Note_off_c, 0, 63, 100
2, 42240, Note_on_c, 0, 76, 90
2, 42240, Note_on_c, 0, 64, 90
2, 42304, Note_off_c, 0, 76, 100
2, 42304, Note_off_c, 0, 64, 100
2, 42432, Note_on_c, 0, 78, 90
2, 42432, Note_on_c, 0, 66, 90
2, 42496, Note_off_c, 0, 78, 100
2, 42496, Note_off_c, 0, 66, 100
2, 42528, Note_on_c, 0, 74, 90
2, 42528, Note_on_c, 0, 62, 90
2, 42592, Note_off_c, 0, 74, 100
2, 42592, Note_off_c, 0, 62, 100
2, 42720, Note_on_c, 0, 72, 90
2, 42720, Note_on_c, 0, 60, 90
2, 42784, Note_off_c, 0, 72, 100
2, 42784, Note_off_c, 0, 60, 100
2, 42816, Note_on_c, 0, 73, 90
2, 42816, Note_on_c, 0, 61, 90
2, 42880, Note_off_c, 0, 73, 100
2, 42880, Note_off_c, 0, 61, 100
2, 43008, Note_on_c, 0, 74, 90
2, 43008, Note_on_c, 0, 62, 90
2, 43072, Note_off_c, 0, 74, 100
2, 43072, Note_off_c, 0, 62, 100
2, 43104, Note_on_c, 0, 71, 90
2, 43104, Note_on_c, 0, 59, 90
2, 43168, Note_off_c, 0, 71, 100
2, 43168, Note_off_c, 0, 59, 100
2, 43200, Note_on_c, 0, 69, 90
2, 43200, Note_on_c, 0, 61, 90
2, 43264, Note_off_c, 0, 69, 100
2, 43264, Note_off_c, 0, 61, 100
2, 43488, Note_on_c, 0, 81, 105
2, 43488, Note_on_c, 0, 73, 105
2, 43680, Note_off_c, 0, 81, 100
2, 43680, Note_off_c, 0, 73, 100
2, 43776, Note_on_c, 0, 83, 105
2, 43776, Note_on_c, 0, 74, 105
2, 43904, Note_off_c, 0, 83, 100
2, 43904, Note_off_c, 0, 74, 100
2, 43968, Note_on_c, 0, 86, 105
2, 43968, Note_on_c, 0, 78, 105
2, 44032, Note_off_c, 0, 86, 100
2, 44032, Note_off_c, 0, 78, 100
2, 44064, Note_on_c, 0, 81, 105
2, 44192, Note_off_c, 0, 81, 100
2, 44256, Note_on_c, 0, 80, 105
2, 44268, Note_off_c, 0, 80, 100
2, 44274, Note_on_c, 0, 81, 105
2, 44286, Note_off_c, 0, 81, 100
2, 44294, Note_on_c, 0, 80, 105
2, 44306, Note_off_c, 0, 80, 100
2, 44312, Note_on_c, 0, 78, 105
2, 44324, Note_off_c, 0, 78, 100
2, 44332, Note_on_c, 0, 80, 105
2, 44344, Note_off_c, 0, 80, 100
2, 44352, Note_on_c, 0, 81, 105
2, 44416, Note_off_c, 0, 81, 100
2, 44640, Note_on_c, 0, 81, 105
2, 44640, Note_on_c, 0, 73, 105
2, 44704, Note_off_c, 0, 81, 100
2, 44704, Note_off_c, 0, 73, 100
2, 44736, Note_on_c, 0, 81, 105
2, 44736, Note_on_c, 0, 73, 105
2, 44800, Note_off_c, 0, 81, 100
2, 44800, Note_off_c, 0, 73, 100
2, 44832, Note_on_c, 0, 81, 105
2, 44832, Note_on_c, 0, 73, 105
2, 44896, Note_off_c, 0, 81, 100
2, 44896, Note_off_c, 0, 73, 100
2, 44928, Note_on_c, 0, 83, 105
2, 44928, Note_on_c, 0, 74, 105
2, 45056, Note_off_c, 0, 83, 100
2, 45056, Note_off_c, 0, 74, 100
2, 45120, Note_on_c, 0, 86, 105
2, 45120, Note_on_c, 0, 78, 105
2, 45184, Note_off_c, 0, 86, 100
2, 45184, Note_off_c, 0, 78, 100
2, 45216, Note_on_c, 0, 81, 105
2, 45344, Note_off_c, 0, 81, 100
2, 45408, Note_on_c, 0, 79, 105
2, 45420, Note_off_c, 0, 79, 100
2, 45426, Note_on_c, 0, 81, 105
2, 45438, Note_off_c, 0, 81, 100
2, 45446, Note_on_c, 0, 79, 105
2, 45458, Note_off_c, 0, 79, 100
2, 45464, Note_on_c, 0, 78, 105
2, 45476, Note_off_c, 0, 78, 100
2, 45484, Note_on_c, 0, 79, 105
2, 45496, Note_off_c, 0, 79, 100
2, 45504, Note_on_c, 0, 81, 105
2, 45568, Note_off_c, 0, 81, 100
2, 45600, Note_on_c, 0, 73, 60
2, 45664, Note_off_c, 0, 73, 100
2, 45704, Note_on_c, 0, 74, 60
2, 45768, Note_off_c, 0, 74, 100
2, 45792, Note_on_c, 0, 76, 60
2, 45856, Note_off_c, 0, 76, 100
2, 45888, Note_on_c, 0, 78, 60
2, 45952, Note_off_c, 0, 78, 100
2, 45984, Note_on_c, 0, 80, 60
2, 46048, Note_off_c, 0, 80, 100
2, 46080, Note_on_c, 0, 81, 60
2, 46144, Note_off_c, 0, 81, 100
2, 46176, Note_on_c, 0, 73, 60
2, 46240, Note_off_c, 0, 73, 100
2, 46272, Note_on_c, 0, 74, 60
2, 46336, Note_off_c, 0, 74, 100
2, 46368, Note_on_c, 0, 76, 60
2, 46432, Note_off_c, 0, 76, 100
2, 46464, Note_on_c, 0, 78, 60
2, 46528, Note_off_c, 0, 78, 100
2, 46560, Note_on_c, 0, 80, 60
2, 46624, Note_off_c, 0, 80, 100
2, 46656, Note_on_c, 0, 81, 60
2, 46720, Note_off_c, 0, 81, 100
2, 47136, Note_on_c, 0, 74, 60
2, 47136, Note_on_c, 0, 71, 60
2, 47136, Note_on_c, 0, 64, 60
2, 47200, Note_off_c, 0, 74, 100
2, 47200, Note_off_c, 0, 71, 100
2, 47200, Note_off_c, 0, 64, 100
2, 47232, Note_on_c, 0, 73, 60
2, 47232, Note_on_c, 0, 69, 60
2, 47232, Note_on_c, 0, 64, 60
2, 47296, Note_off_c, 0, 73, 100
2, 47296, Note_off_c, 0, 69, 100
2, 47296, Note_off_c, 0, 64, 100
2, 47712, Note_on_c, 0, 74, 60
2, 47712, Note_on_c, 0, 71, 60
2, 47712, Note_on_c, 0, 64, 60
2, 47776, Note_off_c, 0, 74, 100
2, 47776, Note_off_c, 0, 71, 100
2, 47776, Note_off_c, 0, 64, 100
2, 47904, Note_on_c, 0, 72, 66
2, 47968, Note_off_c, 0, 72, 100
2, 48000, Note_on_c, 0, 73, 69
2, 48064, Note_off_c, 0, 73, 100
2, 48192, Note_on_c, 0, 73, 72
2, 48256, Note_off_c, 0, 73, 100
2, 48288, Note_on_c, 0, 74, 75
2, 48352, Note_off_c, 0, 74, 100
2, 48480, Note_on_c, 0, 75, 78
2, 48544, Note_off_c, 0, 75, 100
2, 48576, Note_on_c, 0, 76, 81
2, 48640, Note_off_c, 0, 76, 100
2, 48768, Note_on_c, 0, 77, 84
2, 48832, Note_off_c, 0, 77, 100
2, 48864, Note_on_c, 0, 78, 87
2, 48928, Note_off_c, 0, 78, 100
2, 49056, Note_on_c, 0, 78, 90
2, 49120, Note_off_c, 0, 78, 100
2, 49152, Note_on_c, 0, 79, 90
2, 49216, Note_off_c, 0, 79, 100
2, 49776, Note_on_c, 0, 69, 60
2, 49808, Note_off_c, 0, 69, 100
2, 49824, Note_on_c, 0, 81, 60
2, 49952, Note_off_c, 0, 81, 100
2, 50016, Note_on_c, 0, 78, 60
2, 50080, Note_off_c, 0, 78, 100
2, 50112, Note_on_c, 0, 76, 60
2, 50112, Note_on_c, 0, 62, 60
2, 50112, Note_on_c, 0, 66, 60
2, 50120, Note_off_c, 0, 76, 100
2, 50136, Note_on_c, 0, 74, 60
2, 50184, Note_off_c, 0, 74, 100
2, 50208, Note_on_c, 0, 73, 60
2, 50272, Note_off_c, 0, 73, 100
2, 50304, Note_off_c, 0, 62, 100
2, 50304, Note_off_c, 0, 66, 100
2, 50304, Note_on_c, 0, 74, 60
2, 50368, Note_off_c, 0, 74, 100
2, 50400, Note_on_c, 0, 76, 60
2, 50400, Note_on_c, 0, 67, 60
2, 50400, Note_on_c, 0, 59, 60
2, 50408, Note_off_c, 0, 76, 100
2, 50424, Note_on_c, 0, 74, 60
2, 50472, Note_off_c, 0, 74, 100
2, 50496, Note_on_c, 0, 73, 60
2, 50560, Note_off_c, 0, 73, 100
2, 50592, Note_off_c, 0, 67, 100
2, 50592, Note_off_c, 0, 59, 100
2, 50592, Note_on_c, 0, 74, 60
2, 50656, Note_off_c, 0, 74, 100
2, 50688, Note_on_c, 0, 74, 60
2, 50688, Note_on_c, 0, 69, 60
2, 50688, Note_on_c, 0, 57, 60
2, 50696, Note_on_c, 0, 78, 60
2, 50816, Note_off_c, 0, 74, 100
2, 50824, Note_off_c, 0, 78, 100
2, 50880, Note_off_c, 0, 69, 100
2, 50880, Note_off_c, 0, 57, 100
2, 50880, Note_on_c, 0, 76, 60
2, 50888, Note_on_c, 0, 73, 60
2, 50944, Note_off_c, 0, 76, 100
2, 50952, Note_off_c, 0, 73, 100
2, 50976, Note_on_c, 0, 67, 60
2, 50984, Note_off_c, 0, 67, 100
2, 51000, Note_on_c, 0, 79, 60
2, 51096, Note_off_c, 0, 79, 100
2, 51168, Note_on_c, 0, 76, 60
2, 51232, Note_off_c, 0, 76, 100
2, 51264, Note_on_c, 0, 74, 60
2, 51264, Note_on_c, 0, 64, 60
2, 51264, Note_on_c, 0, 57, 60
2, 51272, Note_off_c, 0, 74, 100
2, 51288, Note_on_c, 0, 73, 60
2, 51336, Note_off_c, 0, 73, 100
2, 51360, Note_on_c, 0, 71, 60
2, 51424, Note_off_c, 0, 71, 100
2, 51456, Note_off_c, 0, 64, 100
2, 51456, Note_off_c, 0, 57, 100
2, 51456, Note_on_c, 0, 73, 60
2, 51520, Note_off_c, 0, 73, 100
2, 51552, Note_on_c, 0, 69, 60
2, 51552, Note_on_c, 0, 64, 60
2, 51552, Note_on_c, 0, 61, 60
2, 51616, Note_off_c, 0, 69, 100
2, 51648, Note_on_c, 0, 76, 60
2, 51712, Note_off_c, 0, 76, 100
2, 51744, Note_off_c, 0, 64, 100
2, 51744, Note_off_c, 0, 61, 100
2, 51744, Note_on_c, 0, 81, 60
2, 51808, Note_off_c, 0, 81, 100
2, 51840, Note_on_c, 0, 79, 60
2, 51840, Note_on_c, 0, 76, 60
2, 51840, Note_on_c, 0, 69, 60
2, 51840, Note_on_c, 0, 62, 60
2, 51968, Note_off_c, 0, 79, 100
2, 51968, Note_off_c, 0, 76, 100
2, 52032, Note_off_c, 0, 69, 100
2, 52032, Note_off_c, 0, 62, 100
2, 52032, Note_on_c, 0, 74, 60
2, 52032, Note_on_c, 0, 78, 60
2, 52096, Note_off_c, 0, 74, 100
2, 52096, Note_off_c, 0, 78, 100
2, 52128, Note_on_c, 0, 74, 90
2, 52140, Note_off_c, 0, 74, 100
2, 52140, Note_on_c, 0, 78, 90
2, 52236, Note_off_c, 0, 78, 100
2, 52320, Note_on_c, 0, 79, 90
2, 52384, Note_off_c, 0, 79, 100
2, 52416, Note_on_c, 0, 83, 90
2, 52448, Note_off_c, 0, 83, 100
2, 52464, Note_on_c, 0, 81, 90
2, 52496, Note_off_c, 0, 81, 100
2, 52512, Note_on_c, 0, 79, 90
2, 52544, Note_off_c, 0, 79, 100
2, 52560, Note_on_c, 0, 78, 90
2, 52592, Note_off_c, 0, 78, 100
2, 52608, Note_on_c, 0, 76, 90
2, 52640, Note_off_c, 0, 76, 100
2, 52656, Note_on_c, 0, 74, 90
2, 52688, Note_off_c, 0, 74, 100
2, 52704, Note_on_c, 0, 74, 90
2, 52712, Note_off_c, 0, 74, 100
2, 52728, Note_on_c, 0, 78, 90
2, 52824, Note_off_c, 0, 78, 100
2, 52896, Note_on_c, 0, 79, 90
2, 52960, Note_off_c, 0, 79, 100
2, 52992, Note_on_c, 0, 83, 90
2, 53024, Note_off_c, 0, 83, 100
2, 53040, Note_on_c, 0, 81, 90
2, 53072, Note_off_c, 0, 81, 100
2, 53088, Note_on_c, 0, 79, 90
2, 53120, Note_off_c, 0, 79, 100
2, 53136, Note_on_c, 0, 78, 90
2, 53168, Note_off_c, 0, 78, 100
2, 53184, Note_on_c, 0, 76, 90
2, 53216, Note_off_c, 0, 76, 100
2, 53232, Note_on_c, 0, 74, 90
2, 53264, Note_off_c, 0, 74, 100
2, 53280, Note_on_c, 0, 74, 90
2, 53288, Note_off_c, 0, 74, 100
2, 53304, Note_on_c, 0, 83, 90
2, 53400, Note_off_c, 0, 83, 100
2, 53472, Note_on_c, 0, 85, 90
2, 53536, Note_off_c, 0, 85, 100
2, 53568, Note_on_c, 0, 86, 90
2, 53600, Note_off_c, 0, 86, 100
2, 53608, Note_on_c, 0, 85, 90
2, 53640, Note_off_c, 0, 85, 100
2, 53664, Note_on_c, 0, 83, 90
2, 53696, Note_off_c, 0, 83, 100
2, 53712, Note_on_c, 0, 81, 90
2, 53744, Note_off_c, 0, 81, 100
2, 53760, Note_on_c, 0, 79, 90
2, 53792, Note_off_c, 0, 79, 100
2, 53808, Note_on_c, 0, 78, 90
2, 53840, Note_off_c, 0, 78, 100
2, 53856, Note_on_c, 0, 83, 90
2, 53888, Note_off_c, 0, 83, 100
2, 53904, Note_on_c, 0, 81, 90
2, 53936, Note_off_c, 0, 81, 100
2, 53952, Note_on_c, 0, 79, 90
2, 53984, Note_off_c, 0, 79, 100
2, 54000, Note_on_c, 0, 78, 90
2, 54032, Note_off_c, 0, 78, 100
2, 54048, Note_on_c, 0, 76, 90
2, 54080, Note_off_c, 0, 76, 100
2, 54096, Note_on_c, 0, 74, 90
2, 54128, Note_off_c, 0, 74, 100
2, 54144, Note_on_c, 0, 81, 90
2, 54144, Note_on_c, 0, 76, 90
2, 54144, Note_on_c, 0, 73, 90
2, 54208, Note_off_c, 0, 81, 100
2, 54208, Note_off_c, 0, 76, 100
2, 54208, Note_off_c, 0, 73, 100
2, 54384, Note_on_c, 0, 69, 90
2, 54416, Note_off_c, 0, 69, 100
2, 54432, Note_on_c, 0, 81, 60
2, 54560, Note_off_c, 0, 81, 100
2, 54624, Note_on_c, 0, 78, 60
2, 54688, Note_off_c, 0, 78, 100
2, 54720, Note_on_c, 0, 76, 60
2, 54720, Note_on_c, 0, 66, 60
2, 54720, Note_on_c, 0, 62, 60
2, 54728, Note_off_c, 0, 76, 100
2, 54744, Note_on_c, 0, 74, 60
2, 54816, Note_on_c, 0, 73, 60
2, 54840, Note_off_c, 0, 74, 100
2, 54880, Note_off_c, 0, 73, 100
2, 54912, Note_off_c, 0, 66, 100
2, 54912, Note_off_c, 0, 62, 100
2, 54912, Note_on_c, 0, 74, 60
2, 54976, Note_off_c, 0, 74, 100
2, 55008, Note_on_c, 0, 76, 60
2, 55008, Note_on_c, 0, 67, 60
2, 55008, Note_on_c, 0, 59, 60
2, 55016, Note_off_c, 0, 76, 100
2, 55032, Note_on_c, 0, 73, 60
2, 55104, Note_on_c, 0, 73, 60
2, 55128, Note_off_c, 0, 73, 100
2, 55168, Note_off_c, 0, 73, 100
2, 55200, Note_off_c, 0, 67, 100
2, 55200, Note_off_c, 0, 59, 100
2, 55200, Note_on_c, 0, 74, 60
2, 55264, Note_off_c, 0, 74, 100
2, 55296, Note_on_c, 0, 78, 60
2, 55296, Note_on_c, 0, 74, 60
2, 55296, Note_on_c, 0, 69, 60
2, 55296, Note_on_c, 0, 57, 60
2, 55424, Note_off_c, 0, 78, 100
2, 55424, Note_off_c, 0, 74, 100
2, 55488, Note_off_c, 0, 69, 100
2, 55488, Note_off_c, 0, 57, 100
2, 55488, Note_on_c, 0, 76, 60
2, 55488, Note_on_c, 0, 73, 60
2, 55552, Note_off_c, 0, 76, 100
2, 55552, Note_off_c, 0, 73, 100
2, 55584, Note_on_c, 0, 67, 60
2, 55592, Note_off_c, 0, 67, 100
2, 55608, Note_on_c, 0, 79, 60
2, 55704, Note_off_c, 0, 79, 100
2, 55776, Note_on_c, 0, 76, 60
2, 55840, Note_off_c, 0, 76, 100
2, 55872, Note_on_c, 0, 74, 60
2, 55872, Note_on_c, 0, 57, 60
2, 55872, Note_on_c, 0, 64, 60
2, 55880, Note_off_c, 0, 74, 100
2, 55896, Note_on_c, 0, 73, 60
2, 55968, Note_on_c, 0, 71, 60
2, 55992, Note_off_c, 0, 73, 100
2, 56032, Note_off_c, 0, 71, 100
2, 56064, Note_off_c, 0, 57, 100
2, 56064, Note_off_c, 0, 64, 100
2, 56064, Note_on_c, 0, 73, 60
2, 56128, Note_off_c, 0, 73, 100
2, 56160, Note_on_c, 0, 69, 60
2, 56160, Note_on_c, 0, 64, 60
2, 56160, Note_on_c, 0, 61, 60
2, 56224, Note_off_c, 0, 69, 100
2, 56256, Note_on_c, 0, 76, 60
2, 56320, Note_off_c, 0, 76, 100
2, 56352, Note_off_c, 0, 64, 100
2, 56352, Note_off_c, 0, 61, 100
2, 56352, Note_on_c, 0, 81, 60
2, 56416, Note_off_c, 0, 81, 100
2, 56448, Note_on_c, 0, 79, 60
2, 56448, Note_on_c, 0, 76, 60
2, 56448, Note_on_c, 0, 69, 60
2, 56448, Note_on_c, 0, 62, 60
2, 56576, Note_off_c, 0, 79, 100
2, 56576, Note_off_c, 0, 76, 100
2, 56640, Note_off_c, 0, 69, 100
2, 56640, Note_off_c, 0, 62, 100
2, 56640, Note_on_c, 0, 78, 60
2, 56640, Note_on_c, 0, 74, 60
2, 56704, Note_off_c, 0, 78, 100
2, 56704, Note_off_c, 0, 74, 100
2, 56736, Note_on_c, 0, 74, 60
2, 56744, Note_off_c, 0, 74, 100
2, 56760, Note_on_c, 0, 78, 90
2, 56856, Note_off_c, 0, 78, 100
2, 56928, Note_on_c, 0, 79, 90
2, 56992, Note_off_c, 0, 79, 100
2, 57024, Note_on_c, 0, 83, 90
2, 57056, Note_off_c, 0, 83, 100
2, 57072, Note_on_c, 0, 81, 90
2, 57104, Note_off_c, 0, 81, 100
2, 57120, Note_on_c, 0, 79, 90
2, 57152, Note_off_c, 0, 79, 100
2, 57168, Note_on_c, 0, 78, 90
2, 57200, Note_off_c, 0, 78, 100
2, 57216, Note_on_c, 0, 76, 90
2, 57248, Note_off_c, 0, 76, 100
2, 57256, Note_on_c, 0, 74, 90
2, 57288, Note_off_c, 0, 74, 100
2, 57312, Note_on_c, 0, 79, 90
2, 57320, Note_off_c, 0, 79, 100
2, 57336, Note_on_c, 0, 83, 90
2, 57432, Note_off_c, 0, 83, 100
2, 57504, Note_on_c, 0, 85, 90
2, 57568, Note_off_c, 0, 85, 100
2, 57600, Note_on_c, 0, 88, 90
2, 57632, Note_off_c, 0, 88, 100
2, 57648, Note_on_c, 0, 86, 90
2, 57680, Note_off_c, 0, 86, 100
2, 57696, Note_on_c, 0, 85, 90
2, 57728, Note_off_c, 0, 85, 100
2, 57744, Note_on_c, 0, 83, 90
2, 57776, Note_off_c, 0, 83, 100
2, 57792, Note_on_c, 0, 81, 90
2, 57824, Note_off_c, 0, 81, 100
2, 57840, Note_on_c, 0, 79, 90
2, 57872, Note_off_c, 0, 79, 100
2, 57888, Note_on_c, 0, 85, 90
2, 57920, Note_off_c, 0, 85, 100
2, 57936, Note_on_c, 0, 83, 90
2, 57968, Note_off_c, 0, 83, 100
2, 57984, Note_on_c, 0, 81, 90
2, 58016, Note_off_c, 0, 81, 100
2, 58032, Note_on_c, 0, 79, 90
2, 58064, Note_off_c, 0, 79, 100
2, 58080, Note_on_c, 0, 78, 90
2, 58112, Note_off_c, 0, 78, 100
2, 58128, Note_on_c, 0, 76, 90
2, 58160, Note_off_c, 0, 76, 100
2, 58176, Note_on_c, 0, 83, 90
2, 58208, Note_off_c, 0, 83, 100
2, 58216, Note_on_c, 0, 81, 90
2, 58248, Note_off_c, 0, 81, 100
2, 58272, Note_on_c, 0, 79, 90
2, 58304, Note_off_c, 0, 79, 100
2, 58312, Note_on_c, 0, 78, 90
2, 58344, Note_off_c, 0, 78, 100
2, 58368, Note_on_c, 0, 76, 90
2, 58400, Note_off_c, 0, 76, 100
2, 58416, Note_on_c, 0, 74, 90
2, 58448, Note_off_c, 0, 74, 100
2, 58464, Note_on_c, 0, 81, 90
2, 58496, Note_off_c, 0, 81, 100
2, 58512, Note_on_c, 0, 79, 90
2, 58544, Note_off_c, 0, 79, 100
2, 58560, Note_on_c, 0, 78, 90
2, 58592, Note_off_c, 0, 78, 100
2, 58608, Note_on_c, 0, 76, 90
2, 58640, Note_off_c, 0, 76, 100
2, 58656, Note_on_c, 0, 74, 90
2, 58688, Note_off_c, 0, 74, 100
2, 58704, Note_on_c, 0, 73, 90
2, 58736, Note_off_c, 0, 73, 100
2, 58752, Note_on_c, 0, 74, 90
2, 58816, Note_off_c, 0, 74, 100
2, 58944, Note_on_c, 0, 66, 105
2, 58976, Note_off_c, 0, 66, 100
2, 58992, Note_on_c, 0, 69, 105
2, 59024, Note_off_c, 0, 69, 100
2, 59040, Note_on_c, 0, 74, 105
2, 59104, Note_off_c, 0, 74, 100
2, 59232, Note_on_c, 0, 69, 105
2, 59264, Note_off_c, 0, 69, 100
2, 59280, Note_on_c, 0, 74, 105
2, 59312, Note_off_c, 0, 74, 100
2, 59328, Note_on_c, 0, 78, 105
2, 59392, Note_off_c, 0, 78, 100
2, 59520, Note_on_c, 0, 74, 105
2, 59552, Note_off_c, 0, 74, 100
2, 59568, Note_on_c, 0, 78, 105
2, 59600, Note_off_c, 0, 78, 100
2, 59616, Note_on_c, 0, 81, 105
2, 59680, Note_off_c, 0, 81, 100
2, 59808, Note_on_c, 0, 78, 105
2, 59840, Note_off_c, 0, 78, 100
2, 59856, Note_on_c, 0, 81, 105
2, 59888, Note_off_c, 0, 81, 100
2, 59904, Note_on_c, 0, 84, 105
2, 59968, Note_off_c, 0, 84, 100
2, 60480, Note_on_c, 0, 74, 60
2, 60608, Note_off_c, 0, 74, 100
2, 60672, Note_on_c, 0, 74, 60
2, 60704, Note_off_c, 0, 74, 100
2, 60720, Note_on_c, 0, 76, 60
2, 60752, Note_off_c, 0, 76, 100
2, 60768, Note_on_c, 0, 67, 60
2, 60896, Note_off_c, 0, 67, 100
2, 60960, Note_on_c, 0, 66, 60
2, 61024, Note_off_c, 0, 66, 100
2, 61056, Note_on_c, 0, 67, 60
2, 61120, Note_off_c, 0, 67, 100
2, 61152, Note_on_c, 0, 79, 60
2, 61216, Note_off_c, 0, 79, 100
2, 61248, Note_on_c, 0, 78, 60
2, 61312, Note_off_c, 0, 78, 100
2, 61344, Note_on_c, 0, 76, 60
2, 61408, Note_off_c, 0, 76, 100
2, 61440, Note_on_c, 0, 74, 60
2, 61504, Note_off_c, 0, 74, 100
2, 61536, Note_on_c, 0, 73, 60
2, 61600, Note_off_c, 0, 73, 100
2, 61632, Note_on_c, 0, 74, 60
2, 61760, Note_off_c, 0, 74, 100
2, 61824, Note_on_c, 0, 74, 60
2, 61848, Note_off_c, 0, 74, 100
2, 61848, Note_on_c, 0, 76, 60
2, 61856, Note_off_c, 0, 76, 100
2, 61860, Note_on_c, 0, 74, 60
2, 61868, Note_off_c, 0, 74, 100
2, 61872, Note_on_c, 0, 73, 60
2, 61880, Note_off_c, 0, 73, 100
2, 61884, Note_on_c, 0, 74, 60
2, 61892, Note_off_c, 0, 74, 100
2, 61896, Note_on_c, 0, 76, 60
2, 61904, Note_off_c, 0, 76, 100
2, 61920, Note_on_c, 0, 67, 60
2, 62048, Note_off_c, 0, 67, 100
2, 62112, Note_on_c, 0, 66, 60
2, 62176, Note_off_c, 0, 66, 100
2, 62208, Note_on_c, 0, 67, 60
2, 62272, Note_off_c, 0, 67, 100
2, 62304, Note_on_c, 0, 79, 60
2, 62368, Note_off_c, 0, 79, 100
2, 62400, Note_on_c, 0, 78, 60
2, 62464, Note_off_c, 0, 78, 100
2, 62496, Note_on_c, 0, 76, 60
2, 62560, Note_off_c, 0, 76, 100
2, 62592, Note_on_c, 0, 74, 60
2, 62656, Note_off_c, 0, 74, 100
2, 62688, Note_on_c, 0, 73, 60
2, 62752, Note_off_c, 0, 73, 100
2, 62784, Note_on_c, 0, 74, 60
2, 62912, Note_off_c, 0, 74, 100
2, 62976, Note_on_c, 0, 74, 60
2, 63000, Note_off_c, 0, 74, 100
2, 63000, Note_on_c, 0, 76, 60
2, 63008, Note_off_c, 0, 76, 100
2, 63012, Note_on_c, 0, 74, 60
2, 63020, Note_off_c, 0, 74, 100
2, 63024, Note_on_c, 0, 73, 60
2, 63032, Note_off_c, 0, 73, 100
2, 63036, Note_on_c, 0, 74, 60
2, 63044, Note_off_c, 0, 74, 100
2, 63048, Note_on_c, 0, 76, 60
2, 63056, Note_off_c, 0, 76, 100
2, 63072, Note_on_c, 0, 67, 60
2, 63200, Note_off_c, 0, 67, 100
2, 63264, Note_on_c, 0, 66, 60
2, 63328, Note_off_c, 0, 66, 100
2, 63360, Note_on_c, 0, 67, 60
2, 63424, Note_off_c, 0, 67, 100
2, 63648, Note_on_c, 0, 67, 60
2, 63648, Note_on_c, 0, 64, 60
2, 63648, Note_on_c, 0, 59, 60
2, 63840, Note_off_c, 0, 67, 100
2, 63840, Note_off_c, 0, 64, 100
2, 63840, Note_off_c, 0, 59, 100
2, 63936, Note_on_c, 0, 69, 60
2, 63936, Note_on_c, 0, 67, 60
2, 63936, Note_on_c, 0, 64, 60
2, 64128, Note_off_c, 0, 69, 100
2, 64128, Note_off_c, 0, 67, 100
2, 64128, Note_off_c, 0, 64, 100
2, 64224, Note_on_c, 0, 66, 60
2, 64224, Note_on_c, 0, 69, 60
2, 64224, Note_on_c, 0, 74, 60
2, 64416, Note_off_c, 0, 66, 100
2, 64416, Note_off_c, 0, 69, 100
2, 64416, Note_off_c, 0, 74, 100
2, 64512, Note_on_c, 0, 71, 60
2, 64512, Note_on_c, 0, 67, 60
2, 64512, Note_on_c, 0, 62, 60
2, 64576, Note_off_c, 0, 71, 100
2, 64576, Note_off_c, 0, 67, 100
2, 64576, Note_off_c, 0, 62, 100
2, 64800, Note_on_c, 0, 64, 90
2, 64800, Note_on_c, 0, 60, 90
2, 64992, Note_off_c, 0, 64, 100
2, 64992, Note_off_c, 0, 60, 100
2, 65088, Note_on_c, 0, 66, 90
2, 65088, Note_on_c, 0, 64, 90
2, 65088, Note_on_c, 0, 60, 90
2, 65280, Note_off_c, 0, 66, 100
2, 65280, Note_off_c, 0, 64, 100
2, 65280, Note_off_c, 0, 60, 100
2, 65376, Note_on_c, 0, 71, 90
2, 65376, Note_on_c, 0, 66, 90
2, 65376, Note_on_c, 0, 63, 90
2, 65568, Note_off_c, 0, 71, 100
2, 65568, Note_off_c, 0, 66, 100
2, 65568, Note_off_c, 0, 63, 100
2, 65664, Note_on_c, 0, 67, 90
2, 65664, Note_on_c, 0, 64, 90
2, 65664, Note_on_c, 0, 59, 90
2, 65728, Note_off_c, 0, 67, 100
2, 65728, Note_off_c, 0, 64, 100
2, 65728, Note_off_c, 0, 59, 100
2, 65952, Note_on_c, 0, 62, 60
2, 65952, Note_on_c, 0, 59, 60
2, 66144, Note_off_c, 0, 62, 100
2, 66144, Note_off_c, 0, 59, 100
2, 66240, Note_on_c, 0, 64, 60
2, 66240, Note_on_c, 0, 62, 60
2, 66240, Note_on_c, 0, 59, 60
2, 66432, Note_off_c, 0, 64, 100
2, 66432, Note_off_c, 0, 62, 100
2, 66432, Note_off_c, 0, 59, 100
2, 66528, Note_on_c, 0, 69, 60
2, 66528, Note_on_c, 0, 61, 60
2, 66528, Note_on_c, 0, 64, 60
2, 66720, Note_off_c, 0, 69, 100
2, 66720, Note_off_c, 0, 61, 100
2, 66720, Note_off_c, 0, 64, 100
2, 66816, Note_on_c, 0, 66, 60
2, 66816, Note_on_c, 0, 62, 60
2, 66816, Note_on_c, 0, 57, 60
2, 66880, Note_off_c, 0, 66, 100
2, 66880, Note_off_c, 0, 62, 100
2, 66880, Note_off_c, 0, 57, 100
2, 67104, Note_on_c, 0, 73, 90
2, 67104, Note_on_c, 0, 67, 90
2, 67104, Note_on_c, 0, 64, 90
2, 67296, Note_off_c, 0, 73, 100
2, 67296, Note_off_c, 0, 67, 100
2, 67296, Note_off_c, 0, 64, 100
2, 67392, Note_on_c, 0, 74, 90
2, 67392, Note_on_c, 0, 66, 90
2, 67392, Note_on_c, 0, 62, 90
2, 67584, Note_off_c, 0, 74, 100
2, 67584, Note_off_c, 0, 66, 100
2, 67584, Note_off_c, 0, 62, 100
2, 67680, Note_on_c, 0, 71, 90
2, 67680, Note_on_c, 0, 77, 90
2, 67872, Note_off_c, 0, 71, 100
2, 67872, Note_off_c, 0, 77, 100
2, 67968, Note_on_c, 0, 78, 90
2, 67968, Note_on_c, 0, 73, 90
2, 67968, Note_on_c, 0, 70, 90
2, 68032, Note_off_c, 0, 78, 100
2, 68032, Note_off_c, 0, 73, 100
2, 68032, Note_off_c, 0, 70, 100
2, 68640, Note_on_c, 0, 78, 67
2, 68640, Note_on_c, 0, 71, 60
2, 68672, Note_off_c, 0, 71, 100
2, 68688, Note_on_c, 0, 74, 60
2, 68704, Note_off_c, 0, 78, 100
2, 68720, Note_off_c, 0, 74, 100
2, 68736, Note_on_c, 0, 78, 67
2, 68736, Note_on_c, 0, 71, 60
2, 68768, Note_off_c, 0, 71, 100
2, 68784, Note_on_c, 0, 74, 60
2, 68800, Note_off_c, 0, 78, 100
2, 68816, Note_off_c, 0, 74, 100
2, 68832, Note_on_c, 0, 79, 67
2, 68832, Note_on_c, 0, 71, 60
2, 68864, Note_off_c, 0, 71, 100
2, 68880, Note_on_c, 0, 74, 60
2, 68896, Note_off_c, 0, 79, 100
2, 68912, Note_off_c, 0, 74, 100
2, 68928, Note_on_c, 0, 78, 67
2, 68928, Note_on_c, 0, 71, 60
2, 68960, Note_off_c, 0, 71, 100
2, 68976, Note_on_c, 0, 74, 60
2, 68992, Note_off_c, 0, 78, 100
2, 69008, Note_off_c, 0, 74, 100
2, 69024, Note_on_c, 0, 78, 67
2, 69024, Note_on_c, 0, 71, 60
2, 69056, Note_off_c, 0, 71, 100
2, 69072, Note_on_c, 0, 74, 60
2, 69088, Note_off_c, 0, 78, 100
2, 69104, Note_off_c, 0, 74, 100
2, 69120, Note_on_c, 0, 79, 67
2, 69120, Note_on_c, 0, 72, 60
2, 69152, Note_off_c, 0, 72, 100
2, 69168, Note_on_c, 0, 74, 60
2, 69184, Note_off_c, 0, 79, 100
2, 69200, Note_off_c, 0, 74, 100
2, 69216, Note_on_c, 0, 78, 67
2, 69216, Note_on_c, 0, 72, 60
2, 69248, Note_off_c, 0, 72, 100
2, 69264, Note_on_c, 0, 74, 60
2, 69280, Note_off_c, 0, 78, 100
2, 69296, Note_off_c, 0, 74, 100
2, 69312, Note_on_c, 0, 78, 67
2, 69312, Note_on_c, 0, 72, 60
2, 69344, Note_off_c, 0, 72, 100
2, 69360, Note_on_c, 0, 74, 60
2, 69376, Note_off_c, 0, 78, 100
2, 69392, Note_off_c, 0, 74, 100
2, 69408, Note_on_c, 0, 78, 67
2, 69408, Note_on_c, 0, 71, 60
2, 69440, Note_off_c, 0, 71, 100
2, 69456, Note_on_c, 0, 74, 60
2, 69488, Note_off_c, 0, 74, 100
2, 69504, Note_on_c, 0, 71, 60
2, 69536, Note_off_c, 0, 78, 100
2, 69536, Note_off_c, 0, 71, 100
2, 69552, Note_on_c, 0, 74, 60
2, 69584, Note_off_c, 0, 74, 100
2, 69600, Note_on_c, 0, 79, 67
2, 69600, Note_on_c, 0, 71, 60
2, 69632, Note_off_c, 0, 79, 100
2, 69632, Note_off_c, 0, 71, 100
2, 69648, Note_on_c, 0, 81, 67
2, 69648, Note_on_c, 0, 74, 60
2, 69680, Note_off_c, 0, 81, 100
2, 69680, Note_off_c, 0, 74, 100
2, 69696, Note_on_c, 0, 83, 67
2, 69696, Note_on_c, 0, 68, 60
2, 69728, Note_off_c, 0, 68, 100
2, 69744, Note_on_c, 0, 71, 60
2, 69760, Note_off_c, 0, 83, 100
2, 69776, Note_off_c, 0, 71, 100
2, 69792, Note_on_c, 0, 76, 67
2, 69792, Note_on_c, 0, 68, 60
2, 69824, Note_off_c, 0, 68, 100
2, 69840, Note_on_c, 0, 71, 60
2, 69856, Note_off_c, 0, 76, 100
2, 69872, Note_off_c, 0, 71, 100
2, 69888, Note_on_c, 0, 76, 67
2, 69888, Note_on_c, 0, 68, 60
2, 69920, Note_off_c, 0, 68, 100
2, 69936, Note_on_c, 0, 71, 60
2, 69952, Note_off_c, 0, 76, 100
2, 69968, Note_off_c, 0, 71, 100
2, 69984, Note_on_c, 0, 78, 67
2, 69984, Note_on_c, 0, 67, 60
2, 70016, Note_off_c, 0, 67, 100
2, 70032, Note_on_c, 0, 71, 60
2, 70048, Note_off_c, 0, 78, 100
2, 70064, Note_off_c, 0, 71, 100
2, 70080, Note_on_c, 0, 76, 67
2, 70080, Note_on_c, 0, 67, 60
2, 70112, Note_off_c, 0, 67, 100
2, 70128, Note_on_c, 0, 71, 60
2, 70144, Note_off_c, 0, 76, 100
2, 70160, Note_off_c, 0, 71, 100
2, 70176, Note_on_c, 0, 76, 67
2, 70176, Note_on_c, 0, 67, 60
2, 70208, Note_off_c, 0, 67, 100
2, 70224, Note_on_c, 0, 71, 60
2, 70240, Note_off_c, 0, 76, 100
2, 70256, Note_off_c, 0, 71, 100
2, 70272, Note_on_c, 0, 76, 67
2, 70272, Note_on_c, 0, 66, 60
2, 70304, Note_off_c, 0, 66, 100
2, 70320, Note_on_c, 0, 69, 60
2, 70336, Note_off_c, 0, 76, 100
2, 70352, Note_off_c, 0, 69, 100
2, 70368, Note_on_c, 0, 74, 67
2, 70368, Note_on_c, 0, 66, 60
2, 70400, Note_off_c, 0, 66, 100
2, 70416, Note_on_c, 0, 69, 60
2, 70432, Note_off_c, 0, 74, 100
2, 70448, Note_off_c, 0, 69, 100
2, 70464, Note_on_c, 0, 74, 67
2, 70464, Note_on_c, 0, 66, 60
2, 70496, Note_off_c, 0, 66, 100
2, 70512, Note_on_c, 0, 69, 60
2, 70528, Note_off_c, 0, 74, 100
2, 70544, Note_off_c, 0, 69, 100
2, 70560, Note_on_c, 0, 74, 67
2, 70560, Note_on_c, 0, 66, 60
2, 70592, Note_off_c, 0, 66, 100
2, 70608, Note_on_c, 0, 69, 60
2, 70640, Note_off_c, 0, 69, 100
2, 70656, Note_on_c, 0, 66, 60
2, 70688, Note_off_c, 0, 74, 100
2, 70688, Note_off_c, 0, 66, 100
2, 70704, Note_on_c, 0, 69, 60
2, 70736, Note_off_c, 0, 69, 100
2, 70752, Note_on_c, 0, 76, 67
2, 70752, Note_on_c, 0, 66, 60
2, 70784, Note_off_c, 0, 76, 100
2, 70784, Note_off_c, 0, 66, 100
2, 70800, Note_on_c, 0, 78, 67
2, 70800, Note_on_c, 0, 69, 60
2, 70832, Note_off_c, 0, 78, 100
2, 70832, Note_off_c, 0, 69, 100
2, 70848, Note_on_c, 0, 79, 67
2, 70848, Note_on_c, 0, 64, 60
2, 70880, Note_off_c, 0, 64, 100
2, 70896, Note_on_c, 0, 67, 60
2, 70912, Note_off_c, 0, 79, 100
2, 70928, Note_off_c, 0, 67, 100
2, 70944, Note_on_c, 0, 72, 67
2, 70944, Note_on_c, 0, 64, 60
2, 70976, Note_off_c, 0, 64, 100
2, 70992, Note_on_c, 0, 67, 60
2, 71008, Note_off_c, 0, 72, 100
2, 71024, Note_off_c, 0, 67, 100
2, 71040, Note_on_c, 0, 72, 67
2, 71040, Note_on_c, 0, 64, 60
2, 71072, Note_off_c, 0, 64, 100
2, 71088, Note_on_c, 0, 67, 60
2, 71104, Note_off_c, 0, 72, 100
2, 71120, Note_off_c, 0, 67, 100
2, 71136, Note_on_c, 0, 72, 67
2, 71136, Note_on_c, 0, 64, 60
2, 71168, Note_off_c, 0, 64, 100
2, 71184, Note_on_c, 0, 67, 60
2, 71216, Note_off_c, 0, 67, 100
2, 71232, Note_on_c, 0, 64, 60
2, 71264, Note_off_c, 0, 72, 100
2, 71264, Note_off_c, 0, 64, 100
2, 71280, Note_on_c, 0, 67, 60
2, 71312, Note_off_c, 0, 67, 100
2, 71328, Note_on_c, 0, 79, 67
2, 71328, Note_on_c, 0, 64, 60
2, 71360, Note_off_c, 0, 64, 100
2, 71376, Note_on_c, 0, 67, 60
2, 71392, Note_off_c, 0, 79, 100
2, 71408, Note_off_c, 0, 67, 100
2, 71424, Note_on_c, 0, 78, 67
2, 71424, Note_on_c, 0, 62, 60
2, 71456, Note_off_c, 0, 62, 100
2, 71472, Note_on_c, 0, 66, 60
2, 71488, Note_off_c, 0, 78, 100
2, 71504, Note_off_c, 0, 66, 100
2, 71520, Note_on_c, 0, 71, 67
2, 71520, Note_on_c, 0, 62, 60
2, 71552, Note_off_c, 0, 62, 100
2, 71568, Note_on_c, 0, 66, 60
2, 71584, Note_off_c, 0, 71, 100
2, 71600, Note_off_c, 0, 66, 100
2, 71616, Note_on_c, 0, 71, 67
2, 71616, Note_on_c, 0, 62, 60
2, 71648, Note_off_c, 0, 62, 100
2, 71664, Note_on_c, 0, 66, 60
2, 71680, Note_off_c, 0, 71, 100
2, 71696, Note_off_c, 0, 66, 100
2, 71712, Note_on_c, 0, 71, 67
2, 71712, Note_on_c, 0, 62, 60
2, 71744, Note_off_c, 0, 62, 100
2, 71760, Note_on_c, 0, 66, 60
2, 71792, Note_off_c, 0, 66, 100
2, 71808, Note_on_c, 0, 62, 60
2, 71840, Note_off_c, 0, 71, 100
2, 71840, Note_off_c, 0, 62, 100
2, 71856, Note_on_c, 0, 66, 60
2, 71888, Note_off_c, 0, 66, 100
2, 71904, Note_on_c, 0, 78, 67
2, 71904, Note_on_c, 0, 62, 60
2, 71936, Note_off_c, 0, 62, 100
2, 71952, Note_on_c, 0, 66, 60
2, 71968, Note_off_c, 0, 78, 100
2, 71984, Note_off_c, 0, 66, 100
2, 72000, Note_on_c, 0, 78, 67
2, 72000, Note_on_c, 0, 58, 60
2, 72032, Note_off_c, 0, 58, 100
2, 72048, Note_on_c, 0, 66, 60
2, 72064, Note_off_c, 0, 78, 100
2, 72080, Note_off_c, 0, 66, 100
2, 72096, Note_on_c, 0, 76, 67
2, 72096, Note_on_c, 0, 58, 60
2, 72128, Note_off_c, 0, 58, 100
2, 72144, Note_on_c, 0, 66, 60
2, 72160, Note_off_c, 0, 76, 100
2, 72176, Note_off_c, 0, 66, 100
2, 72192, Note_on_c, 0, 73, 67
2, 72192, Note_on_c, 0, 58, 60
2, 72224, Note_off_c, 0, 58, 100
2, 72240, Note_on_c, 0, 66, 60
2, 72256, Note_off_c, 0, 73, 100
2, 72272, Note_off_c, 0, 66, 100
2, 72288, Note_on_c, 0, 76, 67
2, 72288, Note_on_c, 0, 59, 60
2, 72320, Note_off_c, 0, 59, 100
2, 72336, Note_on_c, 0, 66, 60
2, 72352, Note_off_c, 0, 76, 100
2, 72368, Note_off_c, 0, 66, 100
2, 72384, Note_on_c, 0, 74, 67
2, 72384, Note_on_c, 0, 59, 60
2, 72416, Note_off_c, 0, 59, 100
2, 72432, Note_on_c, 0, 66, 60
2, 72448, Note_off_c, 0, 74, 100
2, 72464, Note_off_c, 0, 66, 100
2, 72480, Note_on_c, 0, 71, 67
2, 72480, Note_on_c, 0, 59, 60
2, 72512, Note_off_c, 0, 59, 100
2, 72528, Note_on_c, 0, 66, 60
2, 72544, Note_off_c, 0, 71, 100
2, 72560, Note_off_c, 0, 66, 100
2, 72576, Note_on_c, 0, 70, 67
2, 72608, Note_off_c, 0, 70, 100
2, 72624, Note_on_c, 0, 71, 67
2, 72656, Note_off_c, 0, 71, 100
2, 72672, Note_on_c, 0, 73, 67
2, 72704, Note_off_c, 0, 73, 100
2, 72720, Note_on_c, 0, 74, 67
2, 72752, Note_off_c, 0, 74, 100
2, 72768, Note_on_c, 0, 73, 67
2, 72800, Note_off_c, 0, 73, 100
2, 72816, Note_on_c, 0, 74, 67
2, 72848, Note_off_c, 0, 74, 100
2, 72864, Note_on_c, 0, 73, 67
2, 72928, Note_off_c, 0, 73, 100
2, 73152, Note_on_c, 0, 74, 82
2, 73184, Note_off_c, 0, 74, 100
2, 73200, Note_on_c, 0, 83, 82
2, 73232, Note_off_c, 0, 83, 100
2, 73248, Note_on_c, 0, 74, 82
2, 73248, Note_on_c, 0, 66, 90
2, 73280, Note_off_c, 0, 74, 100
2, 73296, Note_on_c, 0, 83, 82
2, 73312, Note_off_c, 0, 66, 100
2, 73328, Note_off_c, 0, 83, 100
2, 73344, Note_on_c, 0, 74, 82
2, 73344, Note_on_c, 0, 66, 90
2, 73376, Note_off_c, 0, 74, 100
2, 73392, Note_on_c, 0, 83, 82
2, 73408, Note_off_c, 0, 66, 100
2, 73424, Note_off_c, 0, 83, 100
2, 73440, Note_on_c, 0, 74, 82
2, 73440, Note_on_c, 0, 67, 90
2, 73472, Note_off_c, 0, 74, 100
2, 73488, Note_on_c, 0, 83, 82
2, 73504, Note_off_c, 0, 67, 100
2, 73520, Note_off_c, 0, 83, 100
2, 73536, Note_on_c, 0, 74, 82
2, 73536, Note_on_c, 0, 66, 90
2, 73568, Note_off_c, 0, 74, 100
2, 73584, Note_on_c, 0, 83, 82
2, 73600, Note_off_c, 0, 66, 100
2, 73616, Note_off_c, 0, 83, 100
2, 73632, Note_on_c, 0, 74, 82
2, 73632, Note_on_c, 0, 66, 90
2, 73664, Note_off_c, 0, 74, 100
2, 73680, Note_on_c, 0, 83, 82
2, 73696, Note_off_c, 0, 66, 100
2, 73712, Note_off_c, 0, 83, 100
2, 73728, Note_on_c, 0, 73, 82
2, 73728, Note_on_c, 0, 67, 90
2, 73760, Note_off_c, 0, 73, 100
2, 73776, Note_on_c, 0, 83, 82
2, 73792, Note_off_c, 0, 67, 100
2, 73808, Note_off_c, 0, 83, 100
2, 73824, Note_on_c, 0, 73, 82
2, 73824, Note_on_c, 0, 66, 90
2, 73856, Note_off_c, 0, 73, 100
2, 73872, Note_on_c, 0, 83, 82
2, 73888, Note_off_c, 0, 66, 100
2, 73904, Note_off_c, 0, 83, 100
2, 73920, Note_on_c, 0, 73, 82
2, 73920, Note_on_c, 0, 66, 90
2, 73952, Note_off_c, 0, 73, 100
2, 73968, Note_on_c, 0, 83, 82
2, 73984, Note_off_c, 0, 66, 100
2, 74000, Note_off_c, 0, 83, 100
2, 74016, Note_on_c, 0, 73, 82
2, 74016, Note_on_c, 0, 66, 90
2, 74048, Note_off_c, 0, 73, 100
2, 74064, Note_on_c, 0, 81, 82
2, 74096, Note_off_c, 0, 81, 100
2, 74112, Note_on_c, 0, 73, 82
2, 74144, Note_off_c, 0, 66, 100
2, 74144, Note_off_c, 0, 73, 100
2, 74160, Note_on_c, 0, 81, 82
2, 74192, Note_off_c, 0, 81, 100
2, 74208, Note_on_c, 0, 73, 82
2, 74208, Note_on_c, 0, 67, 90
2, 74240, Note_off_c, 0, 73, 100
2, 74240, Note_off_c, 0, 67, 100
2, 74256, Note_on_c, 0, 81, 82
2, 74256, Note_on_c, 0, 69, 90
2, 74288, Note_off_c, 0, 81, 100
2, 74288, Note_off_c, 0, 69, 100
2, 74304, Note_on_c, 0, 74, 82
2, 74304, Note_on_c, 0, 71, 90
2, 74336, Note_off_c, 0, 74, 100
2, 74352, Note_on_c, 0, 81, 82
2, 74368, Note_off_c, 0, 71, 100
2, 74384, Note_off_c, 0, 81, 100
2, 74400, Note_on_c, 0, 76, 82
2, 74400, Note_on_c, 0, 64, 90
2, 74432, Note_off_c, 0, 76, 100
2, 74448, Note_on_c, 0, 79, 82
2, 74464, Note_off_c, 0, 64, 100
2, 74480, Note_off_c, 0, 79, 100
2, 74496, Note_on_c, 0, 76, 82
2, 74496, Note_on_c, 0, 64, 90
2, 74528, Note_off_c, 0, 76, 100
2, 74544, Note_on_c, 0, 79, 82
2, 74560, Note_off_c, 0, 64, 100
2, 74576, Note_off_c, 0, 79, 100
2, 74592, Note_on_c, 0, 71, 82
2, 74592, Note_on_c, 0, 66, 90
2, 74624, Note_off_c, 0, 71, 100
2, 74640, Note_on_c, 0, 79, 82
2, 74656, Note_off_c, 0, 66, 100
2, 74672, Note_off_c, 0, 79, 100
2, 74688, Note_on_c, 0, 71, 82
2, 74688, Note_on_c, 0, 64, 90
2, 74720, Note_off_c, 0, 71, 100
2, 74736, Note_on_c, 0, 79, 82
2, 74752, Note_off_c, 0, 64, 100
2, 74768, Note_off_c, 0, 79, 100
2, 74784, Note_on_c, 0, 71, 82
2, 74784, Note_on_c, 0, 64, 90
2, 74816, Note_off_c, 0, 71, 100
2, 74832, Note_on_c, 0, 79, 82
2, 74848, Note_off_c, 0, 64, 100
2, 74864, Note_off_c, 0, 79, 100
2, 74880, Note_on_c, 0, 69, 82
2, 74880, Note_on_c, 0, 64, 90
2, 74912, Note_off_c, 0, 69, 100
2, 74928, Note_on_c, 0, 79, 82
2, 74944, Note_off_c, 0, 64, 100
2, 74960, Note_off_c, 0, 79, 100
2, 74976, Note_on_c, 0, 69, 82
2, 74976, Note_on_c, 0, 62, 90
2, 75008, Note_off_c, 0, 69, 100
2, 75024, Note_on_c, 0, 79, 82
2, 75040, Note_off_c, 0, 62, 100
2, 75056, Note_off_c, 0, 79, 100
2, 75072, Note_on_c, 0, 69, 82
2, 75072, Note_on_c, 0, 62, 90
2, 75104, Note_off_c, 0, 69, 100
2, 75120, Note_on_c, 0, 79, 82
2, 75136, Note_off_c, 0, 62, 100
2, 75152, Note_off_c, 0, 79, 100
2, 75168, Note_on_c, 0, 69, 82
2, 75200, Note_off_c, 0, 69, 100
2, 75216, Note_on_c, 0, 78, 82
2, 75248, Note_off_c, 0, 78, 100
2, 75264, Note_on_c, 0, 69, 82
2, 75296, Note_off_c, 0, 69, 100
2, 75312, Note_on_c, 0, 78, 82
2, 75344, Note_off_c, 0, 78, 100
2, 75360, Note_on_c, 0, 69, 82
2, 75392, Note_off_c, 0, 69, 100
2, 75408, Note_on_c, 0, 78, 82
2, 75440, Note_off_c, 0, 78, 100
2, 75456, Note_on_c, 0, 71, 82
2, 75488, Note_off_c, 0, 71, 100
2, 75504, Note_on_c, 0, 78, 82
2, 75536, Note_off_c, 0, 78, 100
2, 75552, Note_on_c, 0, 71, 82
2, 75584, Note_off_c, 0, 71, 100
2, 75600, Note_on_c, 0, 78, 82
2, 75632, Note_off_c, 0, 78, 100
2, 75648, Note_on_c, 0, 71, 82
2, 75680, Note_off_c, 0, 71, 100
2, 75696, Note_on_c, 0, 75, 82
2, 75728, Note_off_c, 0, 75, 100
2, 75744, Note_on_c, 0, 76, 82
2, 75776, Note_off_c, 0, 76, 100
2, 75792, Note_on_c, 0, 83, 82
2, 75824, Note_off_c, 0, 83, 100
2, 75840, Note_on_c, 0, 76, 82
2, 75872, Note_off_c, 0, 76, 100
2, 75888, Note_on_c, 0, 81, 82
2, 75920, Note_off_c, 0, 81, 100
2, 75936, Note_on_c, 0, 76, 82
2, 75968, Note_off_c, 0, 76, 100
2, 75984, Note_on_c, 0, 80, 82
2, 76016, Note_off_c, 0, 80, 100
2, 76032, Note_on_c, 0, 76, 82
2, 76064, Note_off_c, 0, 76, 100
2, 76080, Note_on_c, 0, 81, 82
2, 76112, Note_off_c, 0, 81, 100
2, 76128, Note_on_c, 0, 74, 82
2, 76160, Note_off_c, 0, 74, 100
2, 76176, Note_on_c, 0, 81, 82
2, 76208, Note_off_c, 0, 81, 100
2, 76224, Note_on_c, 0, 73, 82
2, 76256, Note_off_c, 0, 73, 100
2, 76272, Note_on_c, 0, 81, 82
2, 76304, Note_off_c, 0, 81, 100
2, 76320, Note_on_c, 0, 79, 82
2, 76352, Note_off_c, 0, 79, 100
2, 76368, Note_on_c, 0, 82, 82
2, 76400, Note_off_c, 0, 82, 100
2, 76416, Note_on_c, 0, 78, 82
2, 76448, Note_off_c, 0, 78, 100
2, 76464, Note_on_c, 0, 83, 82
2, 76496, Note_off_c, 0, 83, 100
2, 76512, Note_on_c, 0, 76, 82
2, 76544, Note_off_c, 0, 76, 100
2, 76560, Note_on_c, 0, 85, 82
2, 76592, Note_off_c, 0, 85, 100
2, 76608, Note_on_c, 0, 74, 82
2, 76640, Note_off_c, 0, 74, 100
2, 76656, Note_on_c, 0, 85, 82
2, 76688, Note_off_c, 0, 85, 100
2, 76704, Note_on_c, 0, 74, 82
2, 76736, Note_off_c, 0, 74, 100
2, 76752, Note_on_c, 0, 85, 82
2, 76784, Note_off_c, 0, 85, 100
2, 76800, Note_on_c, 0, 74, 82
2, 76832, Note_off_c, 0, 74, 100
2, 76848, Note_on_c, 0, 83, 82
2, 76880, Note_off_c, 0, 83, 100
2, 76896, Note_on_c, 0, 73, 82
2, 76928, Note_off_c, 0, 73, 100
2, 76944, Note_on_c, 0, 83, 82
2, 76976, Note_off_c, 0, 83, 100
2, 76992, Note_on_c, 0, 73, 82
2, 77024, Note_off_c, 0, 73, 100
2, 77040, Note_on_c, 0, 83, 82
2, 77072, Note_off_c, 0, 83, 100
2, 77088, Note_on_c, 0, 73, 82
2, 77120, Note_off_c, 0, 73, 100
2, 77136, Note_on_c, 0, 83, 82
2, 77168, Note_off_c, 0, 83, 100
2, 77184, Note_on_c, 0, 71, 82
2, 77216, Note_off_c, 0, 71, 100
2, 77232, Note_on_c, 0, 81, 82
2, 77264, Note_off_c, 0, 81, 100
2, 77280, Note_on_c, 0, 71, 82
2, 77312, Note_off_c, 0, 71, 100
2, 77328, Note_on_c, 0, 81, 82
2, 77360, Note_off_c, 0, 81, 100
2, 77376, Note_on_c, 0, 71, 82
2, 77408, Note_off_c, 0, 71, 100
2, 77424, Note_on_c, 0, 79, 82
2, 77456, Note_off_c, 0, 79, 100
2, 77472, Note_on_c, 0, 69, 82
2, 77504, Note_off_c, 0, 69, 100
2, 77520, Note_on_c, 0, 79, 82
2, 77552, Note_off_c, 0, 79, 100
2, 77568, Note_on_c, 0, 69, 82
2, 77600, Note_off_c, 0, 69, 100
2, 77616, Note_on_c, 0, 79, 82
2, 77648, Note_off_c, 0, 79, 100
2, 77664, Note_on_c, 0, 69, 82
2, 77696, Note_off_c, 0, 69, 100
2, 77712, Note_on_c, 0, 78, 82
2, 77744, Note_off_c, 0, 78, 100
2, 77760, Note_on_c, 0, 67, 82
2, 77792, Note_off_c, 0, 67, 100
2, 77808, Note_on_c, 0, 78, 82
2, 77840, Note_off_c, 0, 78, 100
2, 77856, Note_on_c, 0, 67, 82
2, 77888, Note_off_c, 0, 67, 100
2, 77904, Note_on_c, 0, 78, 82
2, 77936, Note_off_c, 0, 78, 100
2, 77952, Note_on_c, 0, 67, 82
2, 77984, Note_off_c, 0, 67, 100
2, 78000, Note_on_c, 0, 76, 82
2, 78032, Note_off_c, 0, 76, 100
2, 78048, Note_on_c, 0, 66, 82
2, 78080, Note_off_c, 0, 66, 100
2, 78096, Note_on_c, 0, 76, 82
2, 78128, Note_off_c, 0, 76, 100
2, 78144, Note_on_c, 0, 66, 82
2, 78176, Note_off_c, 0, 66, 100
2, 78192, Note_on_c, 0, 76, 82
2, 78224, Note_off_c, 0, 76, 100
2, 78240, Note_on_c, 0, 66, 82
2, 78272, Note_off_c, 0, 66, 100
2, 78288, Note_on_c, 0, 74, 82
2, 78320, Note_off_c, 0, 74, 100
2, 78336, Note_on_c, 0, 64, 82
2, 78368, Note_off_c, 0, 64, 100
2, 78384, Note_on_c, 0, 74, 82
2, 78416, Note_off_c, 0, 74, 100
2, 78432, Note_on_c, 0, 64, 82
2, 78464, Note_off_c, 0, 64, 100
2, 78480, Note_on_c, 0, 74, 82
2, 78512, Note_off_c, 0, 74, 100
2, 78528, Note_on_c, 0, 64, 82
2, 78560, Note_off_c, 0, 64, 100
2, 78576, Note_on_c, 0, 73, 82
2, 78608, Note_off_c, 0, 73, 100
2, 78624, Note_on_c, 0, 62, 82
2, 78656, Note_off_c, 0, 62, 100
2, 78672, Note_on_c, 0, 73, 82
2, 78704, Note_off_c, 0, 73, 100
2, 78720, Note_on_c, 0, 62, 82
2, 78752, Note_off_c, 0, 62, 100
2, 78768, Note_on_c, 0, 73, 82
2, 78800, Note_off_c, 0, 73, 100
2, 78816, Note_on_c, 0, 62, 82
2, 78848, Note_off_c, 0, 62, 100
2, 78864, Note_on_c, 0, 71, 82
2, 78896, Note_off_c, 0, 71, 100
2, 78912, Note_on_c, 0, 64, 82
2, 78944, Note_off_c, 0, 64, 100
2, 78960, Note_on_c, 0, 71, 82
2, 78992, Note_off_c, 0, 71, 100
2, 79008, Note_on_c, 0, 69, 82
2, 79040, Note_off_c, 0, 69, 100
2, 79056, Note_on_c, 0, 68, 82
2, 79088, Note_off_c, 0, 68, 100
2, 79104, Note_on_c, 0, 69, 82
2, 79136, Note_off_c, 0, 69, 100
2, 79152, Note_on_c, 0, 71, 82
2, 79184, Note_off_c, 0, 71, 100
2, 79200, Note_on_c, 0, 72, 82
2, 79232, Note_off_c, 0, 72, 100
2, 79248, Note_on_c, 0, 74, 82
2, 79280, Note_off_c, 0, 74, 100
2, 79296, Note_on_c, 0, 76, 82
2, 79328, Note_off_c, 0, 76, 100
2, 79344, Note_on_c, 0, 72, 82
2, 79376, Note_off_c, 0, 72, 100
2, 79392, Note_on_c, 0, 71, 82
2, 79424, Note_off_c, 0, 71, 100
2, 79440, Note_on_c, 0, 69, 82
2, 79472, Note_off_c, 0, 69, 100
2, 79488, Note_on_c, 0, 67, 82
2, 79488, Note_on_c, 0, 59, 82
2, 79680, Note_off_c, 0, 67, 100
2, 79680, Note_off_c, 0, 59, 100
2, 79776, Note_on_c, 0, 66, 82
2, 79776, Note_on_c, 0, 57, 82
2, 79840, Note_off_c, 0, 66, 100
2, 79840, Note_off_c, 0, 57, 100
2, 80160, Note_on_c, 0, 74, 60
2, 80224, Note_off_c, 0, 74, 100
2, 80256, Note_on_c, 0, 74, 60
2, 80320, Note_off_c, 0, 74, 100
2, 80352, Note_on_c, 0, 74, 60
2, 80416, Note_off_c, 0, 74, 100
2, 80448, Note_on_c, 0, 74, 60
2, 80512, Note_off_c, 0, 74, 100
2, 80544, Note_on_c, 0, 74, 60
2, 80608, Note_off_c, 0, 74, 100
2, 80640, Note_on_c, 0, 74, 60
2, 80832, Note_off_c, 0, 74, 100
2, 80928, Note_on_c, 0, 66, 60
2, 80992, Note_off_c, 0, 66, 100
2, 81312, Note_on_c, 0, 67, 60
2, 81376, Note_off_c, 0, 67, 100
2, 81408, Note_on_c, 0, 71, 60
2, 81472, Note_off_c, 0, 71, 100
2, 81504, Note_on_c, 0, 74, 60
2, 81568, Note_off_c, 0, 74, 100
2, 81600, Note_on_c, 0, 79, 60
2, 81664, Note_off_c, 0, 79, 100
2, 81696, Note_on_c, 0, 83, 60
2, 81760, Note_off_c, 0, 83, 100
2, 81792, Note_on_c, 0, 86, 60
2, 81984, Note_off_c, 0, 86, 100
2, 82080, Note_on_c, 0, 85, 60
2, 82144, Note_off_c, 0, 85, 100
2, 82464, Note_on_c, 0, 83, 60
2, 82496, Note_off_c, 0, 83, 100
2, 82512, Note_on_c, 0, 84, 60
2, 82544, Note_off_c, 0, 84, 100
2, 82560, Note_on_c, 0, 86, 60
2, 82592, Note_off_c, 0, 86, 100
2, 82608, Note_on_c, 0, 83, 60
2, 82640, Note_off_c, 0, 83, 100
2, 82656, Note_on_c, 0, 79, 60
2, 82720, Note_off_c, 0, 79, 100
2, 82752, Note_on_c, 0, 79, 60
2, 82784, Note_off_c, 0, 79, 100
2, 82800, Note_on_c, 0, 81, 60
2, 82832, Note_off_c, 0, 81, 100
2, 82848, Note_on_c, 0, 83, 60
2, 82880, Note_off_c, 0, 83, 100
2, 82896, Note_on_c, 0, 79, 60
2, 82928, Note_off_c, 0, 79, 100
2, 82944, Note_on_c, 0, 76, 60
2, 82944, Note_on_c, 0, 67, 60
2, 82944, Note_on_c, 0, 61, 60
2, 83008, Note_off_c, 0, 76, 100
2, 83008, Note_off_c, 0, 67, 100
2, 83008, Note_off_c, 0, 61, 100
2, 83040, Note_on_c, 0, 76, 60
2, 83072, Note_off_c, 0, 76, 100
2, 83088, Note_on_c, 0, 78, 60
2, 83120, Note_off_c, 0, 78, 100
2, 83136, Note_on_c, 0, 79, 60
2, 83168, Note_off_c, 0, 79, 100
2, 83184, Note_on_c, 0, 76, 60
2, 83216, Note_off_c, 0, 76, 100
2, 83232, Note_on_c, 0, 73, 60
2, 83232, Note_on_c, 0, 67, 60
2, 83232, Note_on_c, 0, 64, 60
2, 83296, Note_off_c, 0, 73, 100
2, 83296, Note_off_c, 0, 67, 100
2, 83296, Note_off_c, 0, 64, 100
2, 83328, Note_on_c, 0, 73, 60
2, 83360, Note_off_c, 0, 73, 100
2, 83376, Note_on_c, 0, 74, 60
2, 83408, Note_off_c, 0, 74, 100
2, 83424, Note_on_c, 0, 76, 60
2, 83456, Note_off_c, 0, 76, 100
2, 83472, Note_on_c, 0, 73, 60
2, 83504, Note_off_c, 0, 73, 100
2, 83520, Note_on_c, 0, 74, 60
2, 83520, Note_on_c, 0, 62, 60
2, 83584, Note_off_c, 0, 74, 100
2, 83584, Note_off_c, 0, 62, 100
2, 83616, Note_on_c, 0, 76, 60
2, 83616, Note_on_c, 0, 61, 60
2, 83680, Note_off_c, 0, 76, 100
2, 83680, Note_off_c, 0, 61, 100
2, 83712, Note_on_c, 0, 78, 60
2, 83712, Note_on_c, 0, 60, 60
2, 83776, Note_off_c, 0, 78, 100
2, 83776, Note_off_c, 0, 60, 100
2, 83808, Note_on_c, 0, 79, 60
2, 83808, Note_on_c, 0, 59, 60
2, 83872, Note_off_c, 0, 79, 100
2, 83872, Note_off_c, 0, 59, 100
2, 83904, Note_on_c, 0, 76, 60
2, 83904, Note_on_c, 0, 60, 60
2, 83968, Note_off_c, 0, 76, 100
2, 83968, Note_off_c, 0, 60, 100
2, 84000, Note_on_c, 0, 72, 60
2, 84000, Note_on_c, 0, 64, 60
2, 84064, Note_off_c, 0, 72, 100
2, 84064, Note_off_c, 0, 64, 100
2, 84096, Note_on_c, 0, 71, 60
2, 84096, Note_on_c, 0, 67, 60
2, 84192, Note_on_c, 0, 62, 67
2, 84256, Note_off_c, 0, 62, 100
2, 84288, Note_off_c, 0, 71, 100
2, 84288, Note_off_c, 0, 67, 100
2, 84288, Note_on_c, 0, 62, 67
2, 84352, Note_off_c, 0, 62, 100
2, 84384, Note_on_c, 0, 66, 60
2, 84384, Note_on_c, 0, 69, 60
2, 84384, Note_on_c, 0, 62, 67
2, 84416, Note_off_c, 0, 62, 100
2, 84432, Note_on_c, 0, 64, 67
2, 84448, Note_off_c, 0, 66, 100
2, 84448, Note_off_c, 0, 69, 100
2, 84464, Note_off_c, 0, 64, 100
2, 84480, Note_on_c, 0, 62, 67
2, 84512, Note_off_c, 0, 62, 100
2, 84528, Note_on_c, 0, 60, 67
2, 84560, Note_off_c, 0, 60, 100
2, 84576, Note_on_c, 0, 59, 67
2, 84608, Note_off_c, 0, 59, 100
2, 84624, Note_on_c, 0, 57, 67
2, 84656, Note_off_c, 0, 57, 100
2, 84672, Note_on_c, 0, 55, 67
2, 84736, Note_off_c, 0, 55, 100
2, 84768, Note_on_c, 0, 74, 60
2, 84832, Note_off_c, 0, 74, 100
2, 84864, Note_on_c, 0, 74, 60
2, 84912, Note_on_c, 0, 76, 60
2, 84928, Note_off_c, 0, 74, 100
2, 84928, Note_off_c, 0, 76, 100
2, 84936, Note_on_c, 0, 78, 60
2, 84952, Note_off_c, 0, 78, 100
2, 84960, Note_on_c, 0, 76, 60
2, 85024, Note_off_c, 0, 76, 100
2, 85056, Note_on_c, 0, 74, 60
2, 85120, Note_off_c, 0, 74, 100
2, 85152, Note_on_c, 0, 74, 60
2, 85216, Note_off_c, 0, 74, 100
2, 85248, Note_on_c, 0, 74, 60
2, 85440, Note_off_c, 0, 74, 100
2, 85536, Note_on_c, 0, 66, 60
2, 85600, Note_off_c, 0, 66, 100
2, 85872, Note_on_c, 0, 67, 60
2, 85904, Note_off_c, 0, 67, 100
2, 85920, Note_on_c, 0, 71, 60
2, 85952, Note_off_c, 0, 71, 100
2, 85968, Note_on_c, 0, 67, 60
2, 86000, Note_off_c, 0, 67, 100
2, 86016, Note_on_c, 0, 74, 60
2, 86048, Note_off_c, 0, 74, 100
2, 86064, Note_on_c, 0, 71, 60
2, 86096, Note_off_c, 0, 71, 100
2, 86112, Note_on_c, 0, 79, 60
2, 86144, Note_off_c, 0, 79, 100
2, 86160, Note_on_c, 0, 74, 60
2, 86192, Note_off_c, 0, 74, 100
2, 86208, Note_on_c, 0, 83, 60
2, 86240, Note_off_c, 0, 83, 100
2, 86256, Note_on_c, 0, 79, 60
2, 86288, Note_off_c, 0, 79, 100
2, 86304, Note_on_c, 0, 86, 60
2, 86336, Note_off_c, 0, 86, 100
2, 86352, Note_on_c, 0, 86, 60
2, 86384, Note_off_c, 0, 86, 100
2, 86400, Note_on_c, 0, 86, 60
2, 86528, Note_off_c, 0, 86, 100
2, 86592, Note_on_c, 0, 86, 60
2, 86624, Note_off_c, 0, 86, 100
2, 86640, Note_on_c, 0, 85, 60
2, 86672, Note_off_c, 0, 85, 100
2, 86688, Note_on_c, 0, 84, 60
2, 86752, Note_off_c, 0, 84, 100
2, 87072, Note_on_c, 0, 83, 60
2, 87104, Note_off_c, 0, 83, 100
2, 87120, Note_on_c, 0, 84, 60
2, 87152, Note_off_c, 0, 84, 100
2, 87168, Note_on_c, 0, 86, 60
2, 87200, Note_off_c, 0, 86, 100
2, 87216, Note_on_c, 0, 83, 60
2, 87248, Note_off_c, 0, 83, 100
2, 87264, Note_on_c, 0, 79, 60
2, 87328, Note_off_c, 0, 79, 100
2, 87360, Note_on_c, 0, 79, 60
2, 87392, Note_off_c, 0, 79, 100
2, 87408, Note_on_c, 0, 81, 60
2, 87440, Note_off_c, 0, 81, 100
2, 87456, Note_on_c, 0, 83, 60
2, 87488, Note_off_c, 0, 83, 100
2, 87504, Note_on_c, 0, 79, 60
2, 87536, Note_off_c, 0, 79, 100
2, 87552, Note_on_c, 0, 76, 60
2, 87616, Note_off_c, 0, 76, 100
2, 87648, Note_on_c, 0, 76, 60
2, 87680, Note_off_c, 0, 76, 100
2, 87696, Note_on_c, 0, 78, 60
2, 87728, Note_off_c, 0, 78, 100
2, 87744, Note_on_c, 0, 79, 60
2, 87776, Note_off_c, 0, 79, 100
2, 87792, Note_on_c, 0, 76, 60
2, 87824, Note_off_c, 0, 76, 100
2, 87840, Note_on_c, 0, 73, 60
2, 87904, Note_off_c, 0, 73, 100
2, 87936, Note_on_c, 0, 73, 60
2, 87968, Note_off_c, 0, 73, 100
2, 87984, Note_on_c, 0, 74, 60
2, 88016, Note_off_c, 0, 74, 100
2, 88032, Note_on_c, 0, 76, 60
2, 88064, Note_off_c, 0, 76, 100
2, 88080, Note_on_c, 0, 73, 60
2, 88112, Note_off_c, 0, 73, 100
2, 88128, Note_on_c, 0, 74, 60
2, 88192, Note_off_c, 0, 74, 100
2, 88224, Note_on_c, 0, 73, 60
2, 88288, Note_off_c, 0, 73, 100
2, 88320, Note_on_c, 0, 72, 60
2, 88384, Note_off_c, 0, 72, 100
2, 88416, Note_on_c, 0, 71, 60
2, 88480, Note_off_c, 0, 71, 100
2, 88512, Note_on_c, 0, 72, 60
2, 88576, Note_off_c, 0, 72, 100
2, 88608, Note_on_c, 0, 69, 60
2, 88640, Note_off_c, 0, 69, 100
2, 88656, Note_on_c, 0, 67, 60
2, 88680, Note_on_c, 0, 69, 60
2, 88688, Note_off_c, 0, 67, 100
2, 88704, Note_on_c, 0, 67, 60
2, 88712, Note_off_c, 0, 69, 100
2, 88768, Note_off_c, 0, 67, 100
2, 88896, Note_on_c, 0, 59, 90
2, 88928, Note_off_c, 0, 59, 100
2, 88944, Note_on_c, 0, 62, 90
2, 88976, Note_off_c, 0, 62, 100
2, 88992, Note_on_c, 0, 67, 90
2, 89056, Note_off_c, 0, 67, 100
2, 89184, Note_on_c, 0, 62, 90
2, 89216, Note_off_c, 0, 62, 100
2, 89232, Note_on_c, 0, 67, 90
2, 89264, Note_off_c, 0, 67, 100
2, 89280, Note_on_c, 0, 71, 90
2, 89344, Note_off_c, 0, 71, 100
2, 89472, Note_on_c, 0, 67, 90
2, 89504, Note_off_c, 0, 67, 100
2, 89520, Note_on_c, 0, 71, 90
2, 89552, Note_off_c, 0, 71, 100
2, 89568, Note_on_c, 0, 74, 90
2, 89632, Note_off_c, 0, 74, 100
2, 89760, Note_on_c, 0, 71, 90
2, 89792, Note_off_c, 0, 71, 100
2, 89808, Note_on_c, 0, 74, 90
2, 89840, Note_off_c, 0, 74, 100
2, 89856, Note_on_c, 0, 79, 90
2, 89920, Note_off_c, 0, 79, 100
2, 90432, Note_on_c, 0, 83, 60
2, 90560, Note_off_c, 0, 83, 100
2, 90624, Note_on_c, 0, 83, 60
2, 90656, Note_off_c, 0, 83, 100
2, 90672, Note_on_c, 0, 84, 60
2, 90704, Note_off_c, 0, 84, 100
2, 90720, Note_on_c, 0, 76, 60
2, 90720, Note_on_c, 0, 66, 60
2, 90720, Note_on_c, 0, 69, 60
2, 90720, Note_on_c, 0, 59, 60
2, 90848, Note_off_c, 0, 76, 100
2, 90912, Note_off_c, 0, 66, 100
2, 90912, Note_off_c, 0, 69, 100
2, 90912, Note_off_c, 0, 59, 100
2, 90912, Note_on_c, 0, 75, 60
2, 90976, Note_off_c, 0, 75, 100
2, 91008, Note_on_c, 0, 76, 60
2, 91008, Note_on_c, 0, 64, 60
2, 91008, Note_on_c, 0, 67, 60
2, 91072, Note_off_c, 0, 76, 100
2, 91072, Note_off_c, 0, 64, 100
2, 91072, Note_off_c, 0, 67, 100
2, 91104, Note_on_c, 0, 88, 60
2, 91168, Note_off_c, 0, 88, 100
2, 91200, Note_on_c, 0, 86, 60
2, 91264, Note_off_c, 0, 86, 100
2, 91296, Note_on_c, 0, 84, 60
2, 91360, Note_off_c, 0, 84, 100
2, 91392, Note_on_c, 0, 83, 60
2, 91456, Note_off_c, 0, 83, 100
2, 91488, Note_on_c, 0, 82, 60
2, 91552, Note_off_c, 0, 82, 100
2, 91584, Note_on_c, 0, 83, 60
2, 91704, Note_on_c, 0, 85, 60
2, 91712, Note_off_c, 0, 83, 100
2, 91720, Note_off_c, 0, 85, 100
2, 91728, Note_on_c, 0, 83, 60
2, 91744, Note_off_c, 0, 83, 100
2, 91752, Note_on_c, 0, 82, 60
2, 91768, Note_off_c, 0, 82, 100
2, 91776, Note_on_c, 0, 83, 60
2, 91808, Note_off_c, 0, 83, 100
2, 91824, Note_on_c, 0, 85, 60
2, 91856, Note_off_c, 0, 85, 100
2, 91872, Note_on_c, 0, 76, 60
2, 91872, Note_on_c, 0, 66, 60
2, 91872, Note_on_c, 0, 69, 60
2, 91872, Note_on_c, 0, 59, 60
2, 92000, Note_off_c, 0, 76, 100
2, 92064, Note_off_c, 0, 66, 100
2, 92064, Note_off_c, 0, 69, 100
2, 92064, Note_off_c, 0, 59, 100
2, 92064, Note_on_c, 0, 75, 60
2, 92128, Note_off_c, 0, 75, 100
2, 92160, Note_on_c, 0, 76, 60
2, 92160, Note_on_c, 0, 67, 60
2, 92160, Note_on_c, 0, 64, 60
2, 92224, Note_off_c, 0, 76, 100
2, 92224, Note_off_c, 0, 67, 100
2, 92224, Note_off_c, 0, 64, 100
2, 92256, Note_on_c, 0, 88, 60
2, 92320, Note_off_c, 0, 88, 100
2, 92352, Note_on_c, 0, 86, 60
2, 92416, Note_off_c, 0, 86, 100
2, 92448, Note_on_c, 0, 84, 60
2, 92512, Note_off_c, 0, 84, 100
2, 92544, Note_on_c, 0, 83, 60
2, 92608, Note_off_c, 0, 83, 100
2, 92640, Note_on_c, 0, 82, 60
2, 92704, Note_off_c, 0, 82, 100
2, 92736, Note_on_c, 0, 81, 60
2, 92856, Note_on_c, 0, 83, 60
2, 92864, Note_off_c, 0, 81, 100
2, 92872, Note_off_c, 0, 83, 100
2, 92880, Note_on_c, 0, 81, 60
2, 92896, Note_off_c, 0, 81, 100
2, 92904, Note_on_c, 0, 80, 60
2, 92920, Note_off_c, 0, 80, 100
2, 92928, Note_on_c, 0, 81, 60
2, 92960, Note_off_c, 0, 81, 100
2, 92976, Note_on_c, 0, 83, 60
2, 93008, Note_off_c, 0, 83, 100
2, 93024, Note_on_c, 0, 74, 60
2, 93024, Note_on_c, 0, 64, 60
2, 93024, Note_on_c, 0, 57, 60
2, 93024, Note_on_c, 0, 67, 60
2, 93120, Note_off_c, 0, 64, 100
2, 93120, Note_off_c, 0, 57, 100
2, 93120, Note_off_c, 0, 67, 100
2, 93152, Note_off_c, 0, 74, 100
2, 93216, Note_on_c, 0, 73, 60
2, 93280, Note_off_c, 0, 73, 100
2, 93312, Note_on_c, 0, 74, 60
2, 93312, Note_on_c, 0, 66, 60
2, 93312, Note_on_c, 0, 62, 60
2, 93376, Note_off_c, 0, 74, 100
2, 93376, Note_off_c, 0, 66, 100
2, 93376, Note_off_c, 0, 62, 100
2, 93408, Note_on_c, 0, 86, 60
2, 93472, Note_off_c, 0, 86, 100
2, 93504, Note_on_c, 0, 85, 60
2, 93568, Note_off_c, 0, 85, 100
2, 93600, Note_on_c, 0, 83, 60
2, 93664, Note_off_c, 0, 83, 100
2, 93696, Note_on_c, 0, 81, 60
2, 93760, Note_off_c, 0, 81, 100
2, 93792, Note_on_c, 0, 80, 60
2, 93856, Note_off_c, 0, 80, 100
2, 93888, Note_on_c, 0, 81, 60
2, 94008, Note_on_c, 0, 83, 60
2, 94016, Note_off_c, 0, 81, 100
2, 94024, Note_off_c, 0, 83, 100
2, 94032, Note_on_c, 0, 81, 60
2, 94048, Note_off_c, 0, 81, 100
2, 94056, Note_on_c, 0, 80, 60
2, 94072, Note_off_c, 0, 80, 100
2, 94080, Note_on_c, 0, 81, 60
2, 94112, Note_off_c, 0, 81, 100
2, 94128, Note_on_c, 0, 83, 60
2, 94160, Note_off_c, 0, 83, 100
2, 94176, Note_on_c, 0, 74, 60
2, 94176, Note_on_c, 0, 67, 60
2, 94176, Note_on_c, 0, 64, 60
2, 94176, Note_on_c, 0, 57, 60
2, 94272, Note_off_c, 0, 67, 100
2, 94272, Note_off_c, 0, 64, 100
2, 94272, Note_off_c, 0, 57, 100
2, 94304, Note_off_c, 0, 74, 100
2, 94368, Note_on_c, 0, 73, 60
2, 94432, Note_off_c, 0, 73, 100
2, 94464, Note_on_c, 0, 74, 60
2, 94464, Note_on_c, 0, 62, 60
2, 94464, Note_on_c, 0, 66, 60
2, 94528, Note_off_c, 0, 74, 100
2, 94528, Note_off_c, 0, 62, 100
2, 94528, Note_off_c, 0, 66, 100
2, 94560, Note_on_c, 0, 78, 60
2, 94624, Note_off_c, 0, 78, 100
2, 94656, Note_on_c, 0, 76, 60
2, 94720, Note_off_c, 0, 76, 100
2, 94752, Note_on_c, 0, 74, 60
2, 94816, Note_off_c, 0, 74, 100
2, 94848, Note_on_c, 0, 73, 60
2, 94912, Note_off_c, 0, 73, 100
2, 94944, Note_on_c, 0, 71, 60
2, 95008, Note_off_c, 0, 71, 100
2, 95040, Note_on_c, 0, 76, 60
2, 95160, Note_on_c, 0, 78, 60
2, 95168, Note_off_c, 0, 76, 100
2, 95176, Note_off_c, 0, 78, 100
2, 95184, Note_on_c, 0, 76, 60
2, 95200, Note_off_c, 0, 76, 100
2, 95208, Note_on_c, 0, 75, 60
2, 95224, Note_off_c, 0, 75, 100
2, 95232, Note_on_c, 0, 76, 60
2, 95264, Note_off_c, 0, 76, 100
2, 95280, Note_on_c, 0, 78, 60
2, 95312, Note_off_c, 0, 78, 100
2, 95336, Note_on_c, 0, 69, 60
2, 95464, Note_off_c, 0, 69, 100
2, 95520, Note_on_c, 0, 68, 60
2, 95584, Note_off_c, 0, 68, 100
2, 95616, Note_on_c, 0, 69, 60
2, 95680, Note_off_c, 0, 69, 100
2, 95712, Note_on_c, 0, 81, 60
2, 95776, Note_off_c, 0, 81, 100
2, 95808, Note_on_c, 0, 80, 60
2, 95872, Note_off_c, 0, 80, 100
2, 95904, Note_on_c, 0, 78, 60
2, 95968, Note_off_c, 0, 78, 100
2, 96000, Note_on_c, 0, 76, 60
2, 96064, Note_off_c, 0, 76, 100
2, 96096, Note_on_c, 0, 75, 60
2, 96160, Note_off_c, 0, 75, 100
2, 96192, Note_on_c, 0, 76, 60
2, 96312, Note_on_c, 0, 78, 60
2, 96320, Note_off_c, 0, 76, 100
2, 96328, Note_off_c, 0, 78, 100
2, 96336, Note_on_c, 0, 76, 60
2, 96352, Note_off_c, 0, 76, 100
2, 96360, Note_on_c, 0, 75, 60
2, 96376, Note_off_c, 0, 75, 100
2, 96384, Note_on_c, 0, 76, 60
2, 96416, Note_off_c, 0, 76, 100
2, 96432, Note_on_c, 0, 78, 60
2, 96464, Note_off_c, 0, 78, 100
2, 96480, Note_on_c, 0, 69, 60
2, 96608, Note_off_c, 0, 69, 100
2, 96672, Note_on_c, 0, 68, 60
2, 96736, Note_off_c, 0, 68, 100
2, 96768, Note_on_c, 0, 69, 45
2, 96800, Note_off_c, 0, 69, 100
2, 96816, Note_on_c, 0, 64, 45
2, 96848, Note_off_c, 0, 64, 100
2, 96864, Note_on_c, 0, 61, 45
2, 96896, Note_off_c, 0, 61, 100
2, 96912, Note_on_c, 0, 64, 45
2, 96944, Note_off_c, 0, 64, 100
2, 96960, Note_on_c, 0, 69, 45
2, 96992, Note_off_c, 0, 69, 100
2, 97008, Note_on_c, 0, 64, 45
2, 97040, Note_off_c, 0, 64, 100
2, 97056, Note_on_c, 0, 69, 45
2, 97088, Note_off_c, 0, 69, 100
2, 97104, Note_on_c, 0, 64, 45
2, 97136, Note_off_c, 0, 64, 100
2, 97152, Note_on_c, 0, 61, 45
2, 97184, Note_off_c, 0, 61, 100
2, 97200, Note_on_c, 0, 64, 45
2, 97232, Note_off_c, 0, 64, 100
2, 97248, Note_on_c, 0, 69, 45
2, 97280, Note_off_c, 0, 69, 100
2, 97296, Note_on_c, 0, 64, 45
2, 97328, Note_off_c, 0, 64, 100
2, 97344, Note_on_c, 0, 71, 46
2, 97376, Note_off_c, 0, 71, 100
2, 97392, Note_on_c, 0, 64, 49
2, 97424, Note_off_c, 0, 64, 100
2, 97440, Note_on_c, 0, 62, 52
2, 97472, Note_off_c, 0, 62, 100
2, 97488, Note_on_c, 0, 64, 55
2, 97520, Note_off_c, 0, 64, 100
2, 97536, Note_on_c, 0, 71, 58
2, 97568, Note_off_c, 0, 71, 100
2, 97584, Note_on_c, 0, 64, 60
2, 97616, Note_off_c, 0, 64, 100
2, 97632, Note_on_c, 0, 71, 61
2, 97664, Note_off_c, 0, 71, 100
2, 97680, Note_on_c, 0, 64, 63
2, 97712, Note_off_c, 0, 64, 100
2, 97728, Note_on_c, 0, 62, 64
2, 97760, Note_off_c, 0, 62, 100
2, 97776, Note_on_c, 0, 64, 66
2, 97808, Note_off_c, 0, 64, 100
2, 97824, Note_on_c, 0, 71, 67
2, 97856, Note_off_c, 0, 71, 100
2, 97872, Note_on_c, 0, 64, 69
2, 97904, Note_off_c, 0, 64, 100
2, 97920, Note_on_c, 0, 73, 70
2, 97952, Note_off_c, 0, 73, 100
2, 97968, Note_on_c, 0, 69, 72
2, 98000, Note_off_c, 0, 69, 100
2, 98016, Note_on_c, 0, 64, 73
2, 98048, Note_off_c, 0, 64, 100
2, 98064, Note_on_c, 0, 69, 75
2, 98096, Note_off_c, 0, 69, 100
2, 98112, Note_on_c, 0, 73, 76
2, 98144, Note_off_c, 0, 73, 100
2, 98160, Note_on_c, 0, 69, 78
2, 98192, Note_off_c, 0, 69, 100
2, 98208, Note_on_c, 0, 74, 79
2, 98240, Note_off_c, 0, 74, 100
2, 98256, Note_on_c, 0, 69, 81
2, 98288, Note_off_c, 0, 69, 100
2, 98304, Note_on_c, 0, 66, 82
2, 98336, Note_off_c, 0, 66, 100
2, 98352, Note_on_c, 0, 69, 84
2, 98384, Note_off_c, 0, 69, 100
2, 98400, Note_on_c, 0, 74, 85
2, 98432, Note_off_c, 0, 74, 100
2, 98448, Note_on_c, 0, 69, 87
2, 98480, Note_off_c, 0, 69, 100
2, 98496, Note_on_c, 0, 76, 90
2, 98528, Note_off_c, 0, 76, 100
2, 98544, Note_on_c, 0, 73, 90
2, 98576, Note_off_c, 0, 73, 100
2, 98592, Note_on_c, 0, 69, 90
2, 98624, Note_off_c, 0, 69, 100
2, 98640, Note_on_c, 0, 73, 90
2, 98672, Note_off_c, 0, 73, 100
2, 98688, Note_on_c, 0, 76, 90
2, 98720, Note_off_c, 0, 76, 100
2, 98736, Note_on_c, 0, 73, 90
2, 98768, Note_off_c, 0, 73, 100
2, 98784, Note_on_c, 0, 78, 90
2, 98816, Note_off_c, 0, 78, 100
2, 98832, Note_on_c, 0, 74, 90
2, 98864, Note_off_c, 0, 74, 100
2, 98880, Note_on_c, 0, 69, 90
2, 98912, Note_off_c, 0, 69, 100
2, 98928, Note_on_c, 0, 74, 90
2, 98960, Note_off_c, 0, 74, 100
2, 98976, Note_on_c, 0, 78, 90
2, 99008, Note_off_c, 0, 78, 100
2, 99024, Note_on_c, 0, 74, 90
2, 99056, Note_off_c, 0, 74, 100
2, 99072, Note_on_c, 0, 79, 97
2, 99072, Note_on_c, 0, 76, 97
2, 99072, Note_on_c, 0, 73, 97
2, 99072, Note_on_c, 0, 69, 97
2, 99456, Note_off_c, 0, 79, 100
2, 99456, Note_off_c, 0, 76, 100
2, 99456, Note_off_c, 0, 73, 100
2, 99456, Note_off_c, 0, 69, 100
2, 99648, Note_on_c, 0, 79, 90
2, 99744, Note_off_c, 0, 79, 100
2, 99792, Note_on_c, 0, 76, 90
2, 99824, Note_off_c, 0, 76, 100
2, 99840, Note_on_c, 0, 85, 90
2, 99936, Note_off_c, 0, 85, 100
2, 99984, Note_on_c, 0, 79, 90
2, 100016, Note_off_c, 0, 79, 100
2, 100032, Note_on_c, 0, 88, 97
2, 100224, Note_off_c, 0, 88, 100
2, 100320, Note_on_c, 0, 86, 90
2, 100384, Note_off_c, 0, 86, 100
2, 100416, Note_on_c, 0, 85, 90
2, 100480, Note_off_c, 0, 85, 100
2, 100512, Note_on_c, 0, 83, 90
2, 100576, Note_off_c, 0, 83, 100
2, 100608, Note_on_c, 0, 81, 90
2, 100672, Note_off_c, 0, 81, 100
2, 100704, Note_on_c, 0, 80, 90
2, 100768, Note_off_c, 0, 80, 100
2, 100800, Note_on_c, 0, 81, 90
2, 100832, Note_off_c, 0, 81, 100
2, 100848, Note_on_c, 0, 82, 90
2, 100880, Note_off_c, 0, 82, 100
2, 100896, Note_on_c, 0, 83, 90
2, 100928, Note_off_c, 0, 83, 100
2, 100944, Note_on_c, 0, 81, 90
2, 100976, Note_off_c, 0, 81, 100
2, 100992, Note_on_c, 0, 79, 90
2, 101024, Note_off_c, 0, 79, 100
2, 101040, Note_on_c, 0, 78, 90
2, 101072, Note_off_c, 0, 78, 100
2, 101088, Note_on_c, 0, 81, 90
2, 101120, Note_off_c, 0, 81, 100
2, 101136, Note_on_c, 0, 79, 90
2, 101168, Note_off_c, 0, 79, 100
2, 101184, Note_on_c, 0, 83, 90
2, 101216, Note_off_c, 0, 83, 100
2, 101232, Note_on_c, 0, 81, 90
2, 101264, Note_off_c, 0, 81, 100
2, 101280, Note_on_c, 0, 79, 90
2, 101312, Note_off_c, 0, 79, 100
2, 101328, Note_on_c, 0, 78, 90
2, 101360, Note_off_c, 0, 78, 100
2, 101376, Note_on_c, 0, 76, 90
2, 101408, Note_off_c, 0, 76, 100
2, 101424, Note_on_c, 0, 78, 90
2, 101456, Note_off_c, 0, 78, 100
2, 101472, Note_on_c, 0, 79, 90
2, 101504, Note_off_c, 0, 79, 100
2, 101520, Note_on_c, 0, 78, 90
2, 101552, Note_off_c, 0, 78, 100
2, 101568, Note_on_c, 0, 81, 90
2, 101600, Note_off_c, 0, 81, 100
2, 101616, Note_on_c, 0, 79, 90
2, 101648, Note_off_c, 0, 79, 100
2, 101664, Note_on_c, 0, 78, 90
2, 101696, Note_off_c, 0, 78, 100
2, 101712, Note_on_c, 0, 76, 90
2, 101744, Note_off_c, 0, 76, 100
2, 101760, Note_on_c, 0, 74, 90
2, 101792, Note_off_c, 0, 74, 100
2, 101808, Note_on_c, 0, 73, 90
2, 101840, Note_off_c, 0, 73, 100
2, 101856, Note_on_c, 0, 71, 90
2, 101888, Note_off_c, 0, 71, 100
2, 101904, Note_on_c, 0, 69, 90
2, 101936, Note_off_c, 0, 69, 100
2, 101952, Note_on_c, 0, 67, 90
2, 101984, Note_off_c, 0, 67, 100
2, 102000, Note_on_c, 0, 66, 90
2, 102032, Note_off_c, 0, 66, 100
2, 102048, Note_on_c, 0, 67, 90
2, 102080, Note_off_c, 0, 67, 100
2, 102096, Note_on_c, 0, 68, 90
2, 102128, Note_off_c, 0, 68, 100
2, 102144, Note_on_c, 0, 69, 90
2, 102176, Note_off_c, 0, 69, 100
2, 102192, Note_on_c, 0, 70, 90
2, 102224, Note_off_c, 0, 70, 100
2, 102240, Note_on_c, 0, 71, 90
2, 102272, Note_off_c, 0, 71, 100
2, 102288, Note_on_c, 0, 72, 90
2, 102320, Note_off_c, 0, 72, 100
2, 102336, Note_on_c, 0, 73, 90
2, 102368, Note_off_c, 0, 73, 100
2, 102384, Note_on_c, 0, 74, 90
2, 102416, Note_off_c, 0, 74, 100
2, 102432, Note_on_c, 0, 75, 90
2, 102464, Note_off_c, 0, 75, 100
2, 102480, Note_on_c, 0, 76, 90
2, 102512, Note_off_c, 0, 76, 100
2, 102528, Note_on_c, 0, 77, 90
2, 102560, Note_off_c, 0, 77, 100
2, 102576, Note_on_c, 0, 78, 90
2, 102608, Note_off_c, 0, 78, 100
2, 102624, Note_on_c, 0, 79, 90
2, 102656, Note_off_c, 0, 79, 100
2, 102672, Note_on_c, 0, 80, 90
2, 102704, Note_off_c, 0, 80, 100
2, 102720, Note_on_c, 0, 81, 90
2, 102752, Note_off_c, 0, 81, 100
2, 102768, Note_on_c, 0, 82, 90
2, 102800, Note_off_c, 0, 82, 100
2, 102816, Note_on_c, 0, 83, 60
2, 102880, Note_off_c, 0, 83, 100
2, 103008, Note_on_c, 0, 80, 60
2, 103072, Note_off_c, 0, 80, 100
2, 103200, Note_on_c, 0, 76, 60
2, 103264, Note_off_c, 0, 76, 100
2, 103392, Note_on_c, 0, 78, 60
2, 103408, Note_off_c, 0, 78, 100
2, 103408, Note_on_c, 0, 79, 60
2, 103420, Note_off_c, 0, 79, 100
2, 103426, Note_on_c, 0, 78, 60
2, 103438, Note_off_c, 0, 78, 100
2, 103446, Note_on_c, 0, 76, 60
2, 103458, Note_off_c, 0, 76, 100
2, 103464, Note_on_c, 0, 79, 60
2, 103476, Note_off_c, 0, 79, 100
2, 103488, Note_on_c, 0, 81, 60
2, 103536, Note_off_c, 0, 81, 100
2, 103560, Note_on_c, 0, 79, 60
2, 103576, Note_off_c, 0, 79, 100
2, 103584, Note_on_c, 0, 79, 60
2, 103600, Note_off_c, 0, 79, 100
2, 103600, Note_on_c, 0, 81, 60
2, 103612, Note_off_c, 0, 81, 100
2, 103618, Note_on_c, 0, 79, 60
2, 103630, Note_off_c, 0, 79, 100
2, 103638, Note_on_c, 0, 78, 60
2, 103650, Note_off_c, 0, 78, 100
2, 103656, Note_on_c, 0, 79, 60
2, 103668, Note_off_c, 0, 79, 100
2, 103680, Note_on_c, 0, 80, 60
2, 103744, Note_off_c, 0, 80, 100
2, 103776, Note_on_c, 0, 83, 60
2, 103840, Note_off_c, 0, 83, 100
2, 103872, Note_on_c, 0, 81, 60
2, 103936, Note_off_c, 0, 81, 100
2, 103968, Note_on_c, 0, 69, 60
2, 104000, Note_off_c, 0, 69, 100
2, 104016, Note_on_c, 0, 81, 60
2, 104112, Note_off_c, 0, 81, 100
2, 104160, Note_on_c, 0, 78, 60
2, 104224, Note_off_c, 0, 78, 100
2, 104256, Note_on_c, 0, 76, 60
2, 104256, Note_on_c, 0, 66, 60
2, 104256, Note_on_c, 0, 62, 60
2, 104264, Note_off_c, 0, 76, 100
2, 104280, Note_on_c, 0, 74, 60
2, 104328, Note_off_c, 0, 74, 100
2, 104352, Note_on_c, 0, 73, 60
2, 104416, Note_off_c, 0, 73, 100
2, 104448, Note_off_c, 0, 66, 100
2, 104448, Note_off_c, 0, 62, 100
2, 104448, Note_on_c, 0, 74, 60
2, 104512, Note_off_c, 0, 74, 100
2, 104544, Note_on_c, 0, 76, 60
2, 104544, Note_on_c, 0, 68, 60
2, 104544, Note_on_c, 0, 59, 60
2, 104552, Note_off_c, 0, 76, 100
2, 104568, Note_on_c, 0, 73, 60
2, 104616, Note_off_c, 0, 73, 100
2, 104640, Note_on_c, 0, 73, 60
2, 104704, Note_off_c, 0, 73, 100
2, 104736, Note_off_c, 0, 68, 100
2, 104736, Note_off_c, 0, 59, 100
2, 104736, Note_on_c, 0, 74, 60
2, 104800, Note_off_c, 0, 74, 100
2, 104832, Note_on_c, 0, 78, 60
2, 104832, Note_on_c, 0, 74, 60
2, 104832, Note_on_c, 0, 69, 60
2, 104832, Note_on_c, 0, 57, 60
2, 104960, Note_off_c, 0, 78, 100
2, 104960, Note_off_c, 0, 74, 100
2, 105024, Note_off_c, 0, 69, 100
2, 105024, Note_off_c, 0, 57, 100
2, 105024, Note_on_c, 0, 76, 60
2, 105024, Note_on_c, 0, 73, 60
2, 105088, Note_off_c, 0, 76, 100
2, 105088, Note_off_c, 0, 73, 100
2, 105120, Note_on_c, 0, 67, 60
2, 105136, Note_off_c, 0, 67, 100
2, 105144, Note_on_c, 0, 79, 60
2, 105240, Note_off_c, 0, 79, 100
2, 105312, Note_on_c, 0, 76, 60
2, 105376, Note_off_c, 0, 76, 100
2, 105408, Note_on_c, 0, 74, 60
2, 105408, Note_on_c, 0, 64, 60
2, 105408, Note_on_c, 0, 57, 60
2, 105416, Note_off_c, 0, 74, 100
2, 105432, Note_on_c, 0, 73, 60
2, 105480, Note_off_c, 0, 73, 100
2, 105504, Note_on_c, 0, 71, 60
2, 105568, Note_off_c, 0, 71, 100
2, 105600, Note_off_c, 0, 64, 100
2, 105600, Note_off_c, 0, 57, 100
2, 105600, Note_on_c, 0, 73, 60
2, 105664, Note_off_c, 0, 73, 100
2, 105696, Note_on_c, 0, 69, 60
2, 105696, Note_on_c, 0, 64, 60
2, 105696, Note_on_c, 0, 61, 60
2, 105760, Note_off_c, 0, 69, 100
2, 105792, Note_on_c, 0, 76, 60
2, 105856, Note_off_c, 0, 76, 100
2, 105888, Note_off_c, 0, 64, 100
2, 105888, Note_off_c, 0, 61, 100
2, 105888, Note_on_c, 0, 81, 60
2, 105952, Note_off_c, 0, 81, 100
2, 105984, Note_on_c, 0, 79, 60
2, 105984, Note_on_c, 0, 76, 60
2, 105984, Note_on_c, 0, 69, 60
2, 105984, Note_on_c, 0, 62, 60
2, 106112, Note_off_c, 0, 79, 100
2, 106112, Note_off_c, 0, 76, 100
2, 106176, Note_off_c, 0, 69, 100
2, 106176, Note_off_c, 0, 62, 100
2, 106176, Note_on_c, 0, 74, 60
2, 106176, Note_on_c, 0, 78, 60
2, 106240, Note_off_c, 0, 74, 100
2, 106240, Note_off_c, 0, 78, 100
2, 106272, Note_on_c, 0, 74, 60
2, 106280, Note_off_c, 0, 74, 100
2, 106296, Note_on_c, 0, 78, 90
2, 106392, Note_off_c, 0, 78, 100
2, 106464, Note_on_c, 0, 79, 90
2, 106528, Note_off_c, 0, 79, 100
2, 106560, Note_on_c, 0, 83, 90
2, 106592, Note_off_c, 0, 83, 100
2, 106608, Note_on_c, 0, 81, 90
2, 106640, Note_off_c, 0, 81, 100
2, 106656, Note_on_c, 0, 79, 90
2, 106688, Note_off_c, 0, 79, 100
2, 106704, Note_on_c, 0, 78, 90
2, 106736, Note_off_c, 0, 78, 100
2, 106752, Note_on_c, 0, 76, 90
2, 106784, Note_off_c, 0, 76, 100
2, 106800, Note_on_c, 0, 74, 90
2, 106832, Note_off_c, 0, 74, 100
2, 106848, Note_on_c, 0, 74, 90
2, 106856, Note_off_c, 0, 74, 100
2, 106872, Note_on_c, 0, 78, 90
2, 106968, Note_off_c, 0, 78, 100
2, 107040, Note_on_c, 0, 79, 90
2, 107104, Note_off_c, 0, 79, 100
2, 107136, Note_on_c, 0, 83, 90
2, 107168, Note_off_c, 0, 83, 100
2, 107184, Note_on_c, 0, 81, 90
2, 107216, Note_off_c, 0, 81, 100
2, 107232, Note_on_c, 0, 79, 90
2, 107264, Note_off_c, 0, 79, 100
2, 107280, Note_on_c, 0, 78, 90
2, 107312, Note_off_c, 0, 78, 100
2, 107328, Note_on_c, 0, 76, 90
2, 107360, Note_off_c, 0, 76, 100
2, 107376, Note_on_c, 0, 74, 90
2, 107408, Note_off_c, 0, 74, 100
2, 107424, Note_on_c, 0, 74, 90
2, 107432, Note_off_c, 0, 74, 100
2, 107448, Note_on_c, 0, 83, 90
2, 107544, Note_off_c, 0, 83, 100
2, 107616, Note_on_c, 0, 85, 90
2, 107680, Note_off_c, 0, 85, 100
2, 107720, Note_on_c, 0, 86, 90
2, 107752, Note_off_c, 0, 86, 100
2, 107760, Note_on_c, 0, 85, 90
2, 107792, Note_off_c, 0, 85, 100
2, 107808, Note_on_c, 0, 83, 90
2, 107840, Note_off_c, 0, 83, 100
2, 107856, Note_on_c, 0, 81, 90
2, 107888, Note_off_c, 0, 81, 100
2, 107904, Note_on_c, 0, 79, 90
2, 107936, Note_off_c, 0, 79, 100
2, 107952, Note_on_c, 0, 78, 90
2, 107984, Note_off_c, 0, 78, 100
2, 108000, Note_on_c, 0, 83, 90
2, 108032, Note_off_c, 0, 83, 100
2, 108048, Note_on_c, 0, 81, 90
2, 108080, Note_off_c, 0, 81, 100
2, 108096, Note_on_c, 0, 79, 90
2, 108128, Note_off_c, 0, 79, 100
2, 108144, Note_on_c, 0, 78, 90
2, 108176, Note_off_c, 0, 78, 100
2, 108192, Note_on_c, 0, 76, 90
2, 108224, Note_off_c, 0, 76, 100
2, 108240, Note_on_c, 0, 74, 90
2, 108272, Note_off_c, 0, 74, 100
2, 108288, Note_on_c, 0, 81, 90
2, 108288, Note_on_c, 0, 76, 90
2, 108288, Note_on_c, 0, 73, 90
2, 108320, Note_off_c, 0, 81, 100
2, 108320, Note_off_c, 0, 76, 100
2, 108320, Note_off_c, 0, 73, 100
2, 108552, Note_on_c, 0, 57, 60
2, 108560, Note_off_c, 0, 57, 100
2, 108576, Note_on_c, 0, 69, 60
2, 108704, Note_off_c, 0, 69, 100
2, 108768, Note_on_c, 0, 66, 60
2, 108832, Note_off_c, 0, 66, 100
2, 108864, Note_on_c, 0, 64, 60
2, 108872, Note_off_c, 0, 64, 100
2, 108888, Note_on_c, 0, 62, 60
2, 108936, Note_off_c, 0, 62, 100
2, 108960, Note_on_c, 0, 61, 60
2, 109024, Note_off_c, 0, 61, 100
2, 109056, Note_on_c, 0, 62, 60
2, 109120, Note_off_c, 0, 62, 100
2, 109152, Note_on_c, 0, 64, 60
2, 109160, Note_off_c, 0, 64, 100
2, 109176, Note_on_c, 0, 62, 60
2, 109224, Note_off_c, 0, 62, 100
2, 109248, Note_on_c, 0, 61, 60
2, 109312, Note_off_c, 0, 61, 100
2, 109344, Note_on_c, 0, 62, 60
2, 109408, Note_off_c, 0, 62, 100
2, 109440, Note_on_c, 0, 66, 60
2, 109440, Note_on_c, 0, 62, 60
2, 109568, Note_off_c, 0, 66, 100
2, 109568, Note_off_c, 0, 62, 100
2, 109632, Note_on_c, 0, 64, 60
2, 109632, Note_on_c, 0, 61, 60
2, 109696, Note_off_c, 0, 64, 100
2, 109696, Note_off_c, 0, 61, 100
2, 109728, Note_on_c, 0, 55, 60
2, 109736, Note_off_c, 0, 55, 100
2, 109752, Note_on_c, 0, 67, 60
2, 109848, Note_off_c, 0, 67, 100
2, 109920, Note_on_c, 0, 64, 60
2, 109984, Note_off_c, 0, 64, 100
2, 110016, Note_on_c, 0, 61, 60
2, 110080, Note_off_c, 0, 61, 100
2, 110112, Note_on_c, 0, 59, 60
2, 110176, Note_off_c, 0, 59, 100
2, 110208, Note_on_c, 0, 61, 60
2, 110272, Note_off_c, 0, 61, 100
2, 110304, Note_on_c, 0, 57, 60
2, 110368, Note_off_c, 0, 57, 100
2, 110400, Note_on_c, 0, 64, 60
2, 110464, Note_off_c, 0, 64, 100
2, 110496, Note_on_c, 0, 69, 60
2, 110560, Note_off_c, 0, 69, 100
2, 110592, Note_on_c, 0, 64, 60
2, 110592, Note_on_c, 0, 67, 60
2, 110720, Note_off_c, 0, 64, 100
2, 110720, Note_off_c, 0, 67, 100
2, 110784, Note_on_c, 0, 66, 60
2, 110784, Note_on_c, 0, 62, 60
2, 110848, Note_off_c, 0, 66, 100
2, 110848, Note_off_c, 0, 62, 100
2, 110880, Note_on_c, 0, 74, 90
2, 110888, Note_off_c, 0, 74, 100
2, 110904, Note_on_c, 0, 78, 90
2, 111000, Note_off_c, 0, 78, 100
2, 111072, Note_on_c, 0, 79, 90
2, 111136, Note_off_c, 0, 79, 100
2, 111168, Note_on_c, 0, 83, 90
2, 111200, Note_off_c, 0, 83, 100
2, 111216, Note_on_c, 0, 81, 90
2, 111248, Note_off_c, 0, 81, 100
2, 111264, Note_on_c, 0, 79, 90
2, 111296, Note_off_c, 0, 79, 100
2, 111312, Note_on_c, 0, 78, 90
2, 111344, Note_off_c, 0, 78, 100
2, 111360, Note_on_c, 0, 76, 90
2, 111392, Note_off_c, 0, 76, 100
2, 111408, Note_on_c, 0, 74, 90
2, 111440, Note_off_c, 0, 74, 100
2, 111464, Note_on_c, 0, 83, 90
2, 111592, Note_off_c, 0, 83, 100
2, 111648, Note_on_c, 0, 85, 90
2, 111712, Note_off_c, 0, 85, 100
2, 111744, Note_on_c, 0, 88, 90
2, 111776, Note_off_c, 0, 88, 100
2, 111784, Note_on_c, 0, 86, 90
2, 111816, Note_off_c, 0, 86, 100
2, 111840, Note_on_c, 0, 85, 90
2, 111872, Note_off_c, 0, 85, 100
2, 111888, Note_on_c, 0, 83, 90
2, 111920, Note_off_c, 0, 83, 100
2, 111936, Note_on_c, 0, 81, 90
2, 111968, Note_off_c, 0, 81, 100
2, 111984, Note_on_c, 0, 79, 90
2, 112016, Note_off_c, 0, 79, 100
2, 112032, Note_on_c, 0, 85, 90
2, 112064, Note_off_c, 0, 85, 100
2, 112080, Note_on_c, 0, 83, 90
2, 112112, Note_off_c, 0, 83, 100
2, 112128, Note_on_c, 0, 81, 90
2, 112160, Note_off_c, 0, 81, 100
2, 112176, Note_on_c, 0, 79, 90
2, 112208, Note_off_c, 0, 79, 100
2, 112224, Note_on_c, 0, 78, 90
2, 112256, Note_off_c, 0, 78, 100
2, 112272, Note_on_c, 0, 76, 90
2, 112304, Note_off_c, 0, 76, 100
2, 112328, Note_on_c, 0, 83, 90
2, 112360, Note_off_c, 0, 83, 100
2, 112368, Note_on_c, 0, 81, 90
2, 112400, Note_off_c, 0, 81, 100
2, 112416, Note_on_c, 0, 79, 90
2, 112448, Note_off_c, 0, 79, 100
2, 112464, Note_on_c, 0, 78, 90
2, 112496, Note_off_c, 0, 78, 100
2, 112512, Note_on_c, 0, 76, 90
2, 112544, Note_off_c, 0, 76, 100
2, 112560, Note_on_c, 0, 74, 90
2, 112592, Note_off_c, 0, 74, 100
2, 112608, Note_on_c, 0, 81, 90
2, 112640, Note_off_c, 0, 81, 100
2, 112656, Note_on_c, 0, 79, 90
2, 112688, Note_off_c, 0, 79, 100
2, 112704, Note_on_c, 0, 78, 90
2, 112736, Note_off_c, 0, 78, 100
2, 112752, Note_on_c, 0, 76, 90
2, 112784, Note_off_c, 0, 76, 100
2, 112800, Note_on_c, 0, 74, 90
2, 112832, Note_off_c, 0, 74, 100
2, 112848, Note_on_c, 0, 73, 90
2, 112880, Note_off_c, 0, 73, 100
2, 112896, Note_on_c, 0, 74, 90
2, 112960, Note_off_c, 0, 74, 100
2, 113280, Note_on_c, 0, 62, 90
2, 113344, Note_off_c, 0, 62, 100
2, 113376, Note_on_c, 0, 62, 90
2, 113440, Note_off_c, 0, 62, 100
2, 113472, Note_on_c, 0, 64, 90
2, 113488, Note_off_c, 0, 64, 100
2, 113496, Note_on_c, 0, 62, 90
2, 113512, Note_off_c, 0, 62, 100
2, 113520, Note_on_c, 0, 61, 90
2, 113536, Note_off_c, 0, 61, 100
2, 113544, Note_on_c, 0, 62, 90
2, 113640, Note_off_c, 0, 62, 100
2, 113664, Note_on_c, 0, 62, 90
2, 113728, Note_off_c, 0, 62, 100
2, 113760, Note_on_c, 0, 64, 90
2, 113776, Note_off_c, 0, 64, 100
2, 113784, Note_on_c, 0, 62, 90
2, 113800, Note_off_c, 0, 62, 100
2, 113808, Note_on_c, 0, 61, 90
2, 113824, Note_off_c, 0, 61, 100
2, 113832, Note_on_c, 0, 62, 90
2, 113928, Note_off_c, 0, 62, 100
2, 113952, Note_on_c, 0, 62, 90
2, 114016, Note_off_c, 0, 62, 100
2, 114048, Note_on_c, 0, 60, 90
2, 114176, Note_off_c, 0, 60, 100
2, 114336, Note_on_c, 0, 81, 99
2, 114528, Note_off_c, 0, 81, 100
2, 114624, Note_on_c, 0, 81, 60
2, 114624, Note_on_c, 0, 74, 60
2, 114624, Note_on_c, 0, 72, 60
2, 114688, Note_off_c, 0, 81, 100
2, 114688, Note_off_c, 0, 74, 100
2, 114688, Note_off_c, 0, 72, 100
2, 114720, Note_on_c, 0, 84, 60
2, 114720, Note_on_c, 0, 74, 60
2, 114720, Note_on_c, 0, 72, 60
2, 114784, Note_off_c, 0, 84, 100
2, 114784, Note_off_c, 0, 74, 100
2, 114784, Note_off_c, 0, 72, 100
2, 114816, Note_on_c, 0, 83, 60
2, 114816, Note_on_c, 0, 74, 60
2, 114816, Note_on_c, 0, 72, 60
2, 114880, Note_off_c, 0, 83, 100
2, 114880, Note_off_c, 0, 74, 100
2, 114880, Note_off_c, 0, 72, 100
2, 114912, Note_on_c, 0, 81, 60
2, 114912, Note_on_c, 0, 74, 60
2, 114912, Note_on_c, 0, 72, 60
2, 114976, Note_off_c, 0, 81, 100
2, 114976, Note_off_c, 0, 74, 100
2, 114976, Note_off_c, 0, 72, 100
2, 115008, Note_on_c, 0, 79, 60
2, 115008, Note_on_c, 0, 74, 60
2, 115008, Note_on_c, 0, 72, 60
2, 115072, Note_off_c, 0, 79, 100
2, 115072, Note_off_c, 0, 74, 100
2, 115072, Note_off_c, 0, 72, 100
2, 115104, Note_on_c, 0, 78, 60
2, 115104, Note_on_c, 0, 74, 60
2, 115104, Note_on_c, 0, 72, 60
2, 115168, Note_off_c, 0, 78, 100
2, 115168, Note_off_c, 0, 74, 100
2, 115168, Note_off_c, 0, 72, 100
2, 115200, Note_on_c, 0, 81, 60
2, 115200, Note_on_c, 0, 74, 60
2, 115200, Note_on_c, 0, 71, 60
2, 115392, Note_off_c, 0, 81, 100
2, 115392, Note_off_c, 0, 74, 100
2, 115392, Note_off_c, 0, 71, 100
2, 115488, Note_on_c, 0, 71, 60
2, 115488, Note_on_c, 0, 74, 60
2, 115496, Note_on_c, 0, 79, 60
2, 115552, Note_off_c, 0, 71, 100
2, 115552, Note_off_c, 0, 74, 100
2, 115560, Note_off_c, 0, 79, 100
2, 115584, Note_on_c, 0, 59, 60
2, 115648, Note_off_c, 0, 59, 100
2, 115680, Note_on_c, 0, 59, 60
2, 115744, Note_off_c, 0, 59, 100
2, 115776, Note_on_c, 0, 59, 60
2, 115792, Note_off_c, 0, 59, 100
2, 115800, Note_on_c, 0, 57, 60
2, 115816, Note_off_c, 0, 57, 100
2, 115824, Note_on_c, 0, 55, 60
2, 115840, Note_off_c, 0, 55, 100
2, 115848, Note_on_c, 0, 57, 60
2, 115944, Note_off_c, 0, 57, 100
2, 115968, Note_on_c, 0, 57, 60
2, 116032, Note_off_c, 0, 57, 100
2, 116064, Note_on_c, 0, 57, 60
2, 116080, Note_off_c, 0, 57, 100
2, 116088, Note_on_c, 0, 55, 60
2, 116104, Note_off_c, 0, 55, 100
2, 116112, Note_on_c, 0, 54, 60
2, 116128, Note_off_c, 0, 54, 100
2, 116136, Note_on_c, 0, 55, 60
2, 116232, Note_off_c, 0, 55, 100
2, 116256, Note_on_c, 0, 55, 60
2, 116320, Note_off_c, 0, 55, 100
2, 116352, Note_on_c, 0, 54, 60
2, 116480, Note_off_c, 0, 54, 100
2, 116640, Note_on_c, 0, 85, 99
2, 116832, Note_off_c, 0, 85, 100
2, 116928, Note_on_c, 0, 85, 90
2, 116960, Note_off_c, 0, 85, 100
2, 116976, Note_on_c, 0, 83, 90
2, 117008, Note_off_c, 0, 83, 100
2, 117024, Note_on_c, 0, 81, 90
2, 117056, Note_off_c, 0, 81, 100
2, 117072, Note_on_c, 0, 79, 90
2, 117104, Note_off_c, 0, 79, 100
2, 117120, Note_on_c, 0, 78, 90
2, 117152, Note_off_c, 0, 78, 100
2, 117168, Note_on_c, 0, 76, 90
2, 117200, Note_off_c, 0, 76, 100
2, 117216, Note_on_c, 0, 74, 90
2, 117248, Note_off_c, 0, 74, 100
2, 117264, Note_on_c, 0, 76, 90
2, 117296, Note_off_c, 0, 76, 100
2, 117312, Note_on_c, 0, 74, 90
2, 117344, Note_off_c, 0, 74, 100
2, 117360, Note_on_c, 0, 72, 90
2, 117392, Note_off_c, 0, 72, 100
2, 117408, Note_on_c, 0, 71, 90
2, 117440, Note_off_c, 0, 71, 100
2, 117456, Note_on_c, 0, 69, 90
2, 117488, Note_off_c, 0, 69, 100
2, 117504, Note_on_c, 0, 71, 90
2, 117536, Note_off_c, 0, 71, 100
2, 117552, Note_on_c, 0, 74, 90
2, 117584, Note_off_c, 0, 74, 100
2, 117600, Note_on_c, 0, 76, 90
2, 117632, Note_off_c, 0, 76, 100
2, 117648, Note_on_c, 0, 78, 90
2, 117680, Note_off_c, 0, 78, 100
2, 117696, Note_on_c, 0, 79, 90
2, 117728, Note_off_c, 0, 79, 100
2, 117744, Note_on_c, 0, 81, 90
2, 117776, Note_off_c, 0, 81, 100
2, 117792, Note_on_c, 0, 83, 90
2, 117824, Note_off_c, 0, 83, 100
2, 117840, Note_on_c, 0, 84, 90
2, 117872, Note_off_c, 0, 84, 100
2, 117888, Note_on_c, 0, 86, 90
2, 117920, Note_off_c, 0, 86, 100
2, 117936, Note_on_c, 0, 83, 90
2, 117968, Note_off_c, 0, 83, 100
2, 117984, Note_on_c, 0, 81, 90
2, 118016, Note_off_c, 0, 81, 100
2, 118032, Note_on_c, 0, 79, 90
2, 118064, Note_off_c, 0, 79, 100
2, 118080, Note_on_c, 0, 84, 90
2, 118112, Note_off_c, 0, 84, 100
2, 118128, Note_on_c, 0, 83, 90
2, 118160, Note_off_c, 0, 83, 100
2, 118176, Note_on_c, 0, 81, 90
2, 118208, Note_off_c, 0, 81, 100
2, 118224, Note_on_c, 0, 79, 90
2, 118256, Note_off_c, 0, 79, 100
2, 118272, Note_on_c, 0, 78, 90
2, 118304, Note_off_c, 0, 78, 100
2, 118320, Note_on_c, 0, 76, 90
2, 118352, Note_off_c, 0, 76, 100
2, 118368, Note_on_c, 0, 74, 90
2, 118400, Note_off_c, 0, 74, 100
2, 118416, Note_on_c, 0, 76, 90
2, 118448, Note_off_c, 0, 76, 100
2, 118464, Note_on_c, 0, 74, 90
2, 118496, Note_off_c, 0, 74, 100
2, 118512, Note_on_c, 0, 72, 90
2, 118544, Note_off_c, 0, 72, 100
2, 118560, Note_on_c, 0, 71, 90
2, 118592, Note_off_c, 0, 71, 100
2, 118608, Note_on_c, 0, 69, 90
2, 118640, Note_off_c, 0, 69, 100
2, 118656, Note_on_c, 0, 71, 90
2, 118688, Note_off_c, 0, 71, 100
2, 118704, Note_on_c, 0, 74, 90
2, 118736, Note_off_c, 0, 74, 100
2, 118752, Note_on_c, 0, 76, 90
2, 118784, Note_off_c, 0, 76, 100
2, 118800, Note_on_c, 0, 78, 90
2, 118832, Note_off_c, 0, 78, 100
2, 118848, Note_on_c, 0, 79, 90
2, 118880, Note_off_c, 0, 79, 100
2, 118896, Note_on_c, 0, 81, 90
2, 118928, Note_off_c, 0, 81, 100
2, 118944, Note_on_c, 0, 83, 90
2, 118976, Note_off_c, 0, 83, 100
2, 118992, Note_on_c, 0, 84, 90
2, 119024, Note_off_c, 0, 84, 100
2, 119040, Note_on_c, 0, 86, 90
2, 119072, Note_off_c, 0, 86, 100
2, 119088, Note_on_c, 0, 83, 90
2, 119120, Note_off_c, 0, 83, 100
2, 119136, Note_on_c, 0, 81, 90
2, 119168, Note_off_c, 0, 81, 100
2, 119184, Note_on_c, 0, 79, 90
2, 119216, Note_off_c, 0, 79, 100
2, 119232, Note_on_c, 0, 81, 90
2, 119264, Note_off_c, 0, 81, 100
2, 119280, Note_on_c, 0, 79, 90
2, 119312, Note_off_c, 0, 79, 100
2, 119328, Note_on_c, 0, 78, 90
2, 119360, Note_off_c, 0, 78, 100
2, 119376, Note_on_c, 0, 76, 90
2, 119408, Note_off_c, 0, 76, 100
2, 119424, Note_on_c, 0, 75, 90
2, 119456, Note_off_c, 0, 75, 100
2, 119472, Note_on_c, 0, 72, 90
2, 119504, Note_off_c, 0, 72, 100
2, 119520, Note_on_c, 0, 71, 90
2, 119552, Note_off_c, 0, 71, 100
2, 119568, Note_on_c, 0, 72, 90
2, 119600, Note_off_c, 0, 72, 100
2, 119616, Note_on_c, 0, 71, 90
2, 119648, Note_off_c, 0, 71, 100
2, 119664, Note_on_c, 0, 69, 90
2, 119696, Note_off_c, 0, 69, 100
2, 119712, Note_on_c, 0, 67, 90
2, 119744, Note_off_c, 0, 67, 100
2, 119760, Note_on_c, 0, 66, 90
2, 119792, Note_off_c, 0, 66, 100
2, 119808, Note_on_c, 0, 67, 90
2, 119840, Note_off_c, 0, 67, 100
2, 119856, Note_on_c, 0, 71, 90
2, 119888, Note_off_c, 0, 71, 100
2, 119904, Note_on_c, 0, 73, 90
2, 119936, Note_off_c, 0, 73, 100
2, 119952, Note_on_c, 0, 75, 90
2, 119984, Note_off_c, 0, 75, 100
2, 120000, Note_on_c, 0, 76, 90
2, 120032, Note_off_c, 0, 76, 100
2, 120048, Note_on_c, 0, 78, 90
2, 120080, Note_off_c, 0, 78, 100
2, 120096, Note_on_c, 0, 79, 90
2, 120128, Note_off_c, 0, 79, 100
2, 120144, Note_on_c, 0, 81, 90
2, 120176, Note_off_c, 0, 81, 100
2, 120192, Note_on_c, 0, 83, 90
2, 120224, Note_off_c, 0, 83, 100
2, 120240, Note_on_c, 0, 79, 90
2, 120272, Note_off_c, 0, 79, 100
2, 120288, Note_on_c, 0, 78, 90
2, 120320, Note_off_c, 0, 78, 100
2, 120336, Note_on_c, 0, 76, 90
2, 120368, Note_off_c, 0, 76, 100
2, 120384, Note_on_c, 0, 79, 90
2, 120416, Note_off_c, 0, 79, 100
2, 120432, Note_on_c, 0, 78, 90
2, 120464, Note_off_c, 0, 78, 100
2, 120480, Note_on_c, 0, 76, 90
2, 120512, Note_off_c, 0, 76, 100
2, 120528, Note_on_c, 0, 74, 90
2, 120560, Note_off_c, 0, 74, 100
2, 120576, Note_on_c, 0, 73, 90
2, 120608, Note_off_c, 0, 73, 100
2, 120624, Note_on_c, 0, 71, 90
2, 120656, Note_off_c, 0, 71, 100
2, 120672, Note_on_c, 0, 69, 90
2, 120704, Note_off_c, 0, 69, 100
2, 120720, Note_on_c, 0, 71, 90
2, 120752, Note_off_c, 0, 71, 100
2, 120768, Note_on_c, 0, 69, 90
2, 120800, Note_off_c, 0, 69, 100
2, 120816, Note_on_c, 0, 67, 90
2, 120848, Note_off_c, 0, 67, 100
2, 120864, Note_on_c, 0, 66, 90
2, 120896, Note_off_c, 0, 66, 100
2, 120912, Note_on_c, 0, 64, 90
2, 120944, Note_off_c, 0, 64, 100
2, 120960, Note_on_c, 0, 66, 90
2, 120992, Note_off_c, 0, 66, 100
2, 121008, Note_on_c, 0, 69, 90
2, 121040, Note_off_c, 0, 69, 100
2, 121056, Note_on_c, 0, 71, 90
2, 121088, Note_off_c, 0, 71, 100
2, 121104, Note_on_c, 0, 73, 90
2, 121136, Note_off_c, 0, 73, 100
2, 121152, Note_on_c, 0, 74, 90
2, 121184, Note_off_c, 0, 74, 100
2, 121200, Note_on_c, 0, 76, 90
2, 121232, Note_off_c, 0, 76, 100
2, 121248, Note_on_c, 0, 78, 90
2, 121280, Note_off_c, 0, 78, 100
2, 121296, Note_on_c, 0, 79, 90
2, 121328, Note_off_c, 0, 79, 100
2, 121344, Note_on_c, 0, 81, 90
2, 121376, Note_off_c, 0, 81, 100
2, 121392, Note_on_c, 0, 83, 90
2, 121424, Note_off_c, 0, 83, 100
2, 121440, Note_on_c, 0, 85, 90
2, 121472, Note_off_c, 0, 85, 100
2, 121488, Note_on_c, 0, 86, 90
2, 121520, Note_off_c, 0, 86, 100
2, 121536, Note_on_c, 0, 83, 90
2, 121568, Note_off_c, 0, 83, 100
2, 121584, Note_on_c, 0, 81, 90
2, 121616, Note_off_c, 0, 81, 100
2, 121632, Note_on_c, 0, 79, 90
2, 121664, Note_off_c, 0, 79, 100
2, 121680, Note_on_c, 0, 78, 90
2, 121712, Note_off_c, 0, 78, 100
2, 121728, Note_on_c, 0, 76, 90
2, 121760, Note_off_c, 0, 76, 100
2, 121776, Note_on_c, 0, 74, 90
2, 121808, Note_off_c, 0, 74, 100
2, 121824, Note_on_c, 0, 79, 90
2, 121856, Note_off_c, 0, 79, 100
2, 121872, Note_on_c, 0, 78, 90
2, 121904, Note_off_c, 0, 78, 100
2, 121920, Note_on_c, 0, 76, 90
2, 121952, Note_off_c, 0, 76, 100
2, 121968, Note_on_c, 0, 74, 90
2, 122000, Note_off_c, 0, 74, 100
2, 122016, Note_on_c, 0, 73, 90
2, 122048, Note_off_c, 0, 73, 100
2, 122064, Note_on_c, 0, 71, 90
2, 122096, Note_off_c, 0, 71, 100
2, 122112, Note_on_c, 0, 69, 90
2, 122176, Note_off_c, 0, 69, 100
2, 122208, Note_on_c, 0, 73, 90
2, 122208, Note_on_c, 0, 76, 90
2, 122208, Note_on_c, 0, 81, 90
2, 122272, Note_off_c, 0, 73, 100
2, 122272, Note_off_c, 0, 76, 100
2, 122272, Note_off_c, 0, 81, 100
2, 122304, Note_on_c, 0, 73, 90
2, 122304, Note_on_c, 0, 76, 90
2, 122304, Note_on_c, 0, 81, 90
2, 122368, Note_off_c, 0, 73, 100
2, 122368, Note_off_c, 0, 76, 100
2, 122368, Note_off_c, 0, 81, 100
2, 122400, Note_on_c, 0, 76, 90
2, 122400, Note_on_c, 0, 73, 90
2, 122400, Note_on_c, 0, 81, 90
2, 122464, Note_off_c, 0, 76, 100
2, 122464, Note_off_c, 0, 73, 100
2, 122464, Note_off_c, 0, 81, 100
2, 122688, Note_on_c, 0, 78, 60
2, 122688, Note_on_c, 0, 69, 60
2, 122880, Note_off_c, 0, 78, 100
2, 122880, Note_off_c, 0, 69, 100
2, 122976, Note_on_c, 0, 76, 60
2, 122976, Note_on_c, 0, 67, 60
2, 123040, Note_off_c, 0, 76, 100
2, 123072, Note_on_c, 0, 78, 60
2, 123136, Note_off_c, 0, 78, 100
2, 123168, Note_off_c, 0, 67, 100
2, 123168, Note_on_c, 0, 76, 60
2, 123232, Note_off_c, 0, 76, 100
2, 123264, Note_on_c, 0, 74, 60
2, 123264, Note_on_c, 0, 66, 60
2, 123648, Note_off_c, 0, 74, 100
2, 123648, Note_off_c, 0, 66, 100
2, 123840, Note_on_c, 0, 74, 60
2, 123840, Note_on_c, 0, 66, 60
2, 123968, Note_off_c, 0, 74, 100
2, 124032, Note_off_c, 0, 66, 100
2, 124032, Note_on_c, 0, 78, 60
2, 124096, Note_off_c, 0, 78, 100
2, 124128, Note_on_c, 0, 74, 60
2, 124128, Note_on_c, 0, 79, 60
2, 124256, Note_off_c, 0, 79, 100
2, 124320, Note_off_c, 0, 74, 100
2, 124320, Note_on_c, 0, 83, 60
2, 124384, Note_off_c, 0, 83, 100
2, 124416, Note_on_c, 0, 73, 60
2, 124416, Note_on_c, 0, 81, 60
2, 124480, Note_off_c, 0, 73, 100
2, 124512, Note_on_c, 0, 74, 60
2, 124544, Note_off_c, 0, 81, 100
2, 124576, Note_off_c, 0, 74, 100
2, 124608, Note_on_c, 0, 76, 60
2, 124608, Note_on_c, 0, 79, 60
2, 124672, Note_off_c, 0, 76, 100
2, 124672, Note_off_c, 0, 79, 100
2, 124704, Note_on_c, 0, 74, 60
2, 124704, Note_on_c, 0, 78, 60
2, 124832, Note_off_c, 0, 74, 100
2, 124832, Note_off_c, 0, 78, 100
2, 124992, Note_on_c, 0, 76, 60
2, 124992, Note_on_c, 0, 74, 60
2, 124992, Note_on_c, 0, 71, 60
2, 124992, Note_on_c, 0, 67, 60
2, 125184, Note_off_c, 0, 76, 100
2, 125184, Note_off_c, 0, 67, 100
2, 125280, Note_on_c, 0, 76, 60
2, 125280, Note_on_c, 0, 68, 60
2, 125344, Note_off_c, 0, 76, 100
2, 125376, Note_off_c, 0, 74, 100
2, 125376, Note_off_c, 0, 71, 100
2, 125376, Note_on_c, 0, 78, 60
2, 125440, Note_off_c, 0, 78, 100
2, 125472, Note_off_c, 0, 68, 100
2, 125472, Note_on_c, 0, 76, 60
2, 125536, Note_off_c, 0, 76, 100
2, 125568, Note_on_c, 0, 76, 60
2, 125568, Note_on_c, 0, 73, 60
2, 125568, Note_on_c, 0, 69, 60
2, 125760, Note_off_c, 0, 76, 100
2, 125760, Note_off_c, 0, 73, 100
2, 125760, Note_off_c, 0, 69, 100
2, 125856, Note_on_c, 0, 76, 60
2, 125856, Note_on_c, 0, 73, 60
2, 125856, Note_on_c, 0, 69, 60
2, 125856, Note_on_c, 0, 67, 60
2, 125920, Note_off_c, 0, 76, 100
2, 125952, Note_on_c, 0, 78, 60
2, 126016, Note_off_c, 0, 78, 100
2, 126048, Note_off_c, 0, 73, 100
2, 126048, Note_off_c, 0, 69, 100
2, 126048, Note_off_c, 0, 67, 100
2, 126048, Note_on_c, 0, 79, 60
2, 126112, Note_off_c, 0, 79, 100
2, 126144, Note_on_c, 0, 81, 60
2, 126144, Note_on_c, 0, 74, 60
2, 126144, Note_on_c, 0, 69, 60
2, 126144, Note_on_c, 0, 66, 60
2, 126208, Note_off_c, 0, 81, 100
2, 126208, Note_off_c, 0, 74, 100
2, 126208, Note_off_c, 0, 69, 100
2, 126208, Note_off_c, 0, 66, 100
2, 126240, Note_on_c, 0, 86, 60
2, 126304, Note_off_c, 0, 86, 100
2, 126336, Note_on_c, 0, 85, 60
2, 126400, Note_off_c, 0, 85, 100
2, 126432, Note_on_c, 0, 83, 60
2, 126432, Note_on_c, 0, 67, 60
2, 126496, Note_off_c, 0, 83, 100
2, 126528, Note_on_c, 0, 81, 60
2, 126560, Note_off_c, 0, 67, 100
2, 126592, Note_off_c, 0, 81, 100
2, 126624, Note_on_c, 0, 79, 60
2, 126624, Note_on_c, 0, 62, 60
2, 126624, Note_on_c, 0, 59, 60
2, 126688, Note_off_c, 0, 79, 100
2, 126688, Note_off_c, 0, 62, 100
2, 126688, Note_off_c, 0, 59, 100
2, 126720, Note_on_c, 0, 78, 60
2, 126720, Note_on_c, 0, 62, 60
2, 126720, Note_on_c, 0, 57, 60
2, 126848, Note_off_c, 0, 78, 100
2, 126912, Note_off_c, 0, 62, 100
2, 126912, Note_off_c, 0, 57, 100
2, 126912, Note_on_c, 0, 79, 60
2, 126944, Note_off_c, 0, 79, 100
2, 126960, Note_on_c, 0, 78, 60
2, 126992, Note_off_c, 0, 78, 100
2, 127008, Note_on_c, 0, 76, 60
2, 127008, Note_on_c, 0, 61, 60
2, 127008, Note_on_c, 0, 57, 60
2, 127072, Note_off_c, 0, 76, 100
2, 127072, Note_off_c, 0, 61, 100
2, 127072, Note_off_c, 0, 57, 100
2, 127296, Note_on_c, 0, 78, 60
2, 127296, Note_on_c, 0, 69, 60
2, 127488, Note_off_c, 0, 78, 100
2, 127488, Note_off_c, 0, 69, 100
2, 127584, Note_on_c, 0, 67, 60
2, 127584, Note_on_c, 0, 76, 60
2, 127648, Note_off_c, 0, 76, 100
2, 127680, Note_on_c, 0, 78, 60
2, 127744, Note_off_c, 0, 78, 100
2, 127776, Note_off_c, 0, 67, 100
2, 127776, Note_on_c, 0, 76, 60
2, 127840, Note_off_c, 0, 76, 100
2, 127872, Note_on_c, 0, 74, 60
2, 127872, Note_on_c, 0, 67, 60
2, 128064, Note_off_c, 0, 67, 100
2, 128160, Note_on_c, 0, 72, 60
2, 128160, Note_on_c, 0, 66, 60
2, 128256, Note_off_c, 0, 74, 100
2, 128352, Note_off_c, 0, 72, 100
2, 128352, Note_off_c, 0, 66, 100
2, 128448, Note_on_c, 0, 74, 60
2, 128448, Note_on_c, 0, 71, 60
2, 128448, Note_on_c, 0, 67, 60
2, 128576, Note_off_c, 0, 74, 100
2, 128576, Note_off_c, 0, 71, 100
2, 128576, Note_off_c, 0, 67, 100
2, 128640, Note_on_c, 0, 75, 60
2, 128640, Note_on_c, 0, 71, 60
2, 128640, Note_on_c, 0, 69, 60
2, 128704, Note_off_c, 0, 75, 100
2, 128704, Note_off_c, 0, 71, 100
2, 128704, Note_off_c, 0, 69, 100
2, 128736, Note_on_c, 0, 76, 60
2, 128736, Note_on_c, 0, 71, 60
2, 128736, Note_on_c, 0, 67, 60
2, 128864, Note_off_c, 0, 76, 100
2, 128864, Note_off_c, 0, 71, 100
2, 128864, Note_off_c, 0, 67, 100
2, 128928, Note_on_c, 0, 83, 60
2, 128928, Note_on_c, 0, 78, 60
2, 128992, Note_off_c, 0, 83, 100
2, 128992, Note_off_c, 0, 78, 100
2, 129024, Note_on_c, 0, 81, 60
2, 129024, Note_on_c, 0, 76, 60
2, 129152, Note_off_c, 0, 81, 100
2, 129152, Note_off_c, 0, 76, 100
2, 129216, Note_on_c, 0, 79, 60
2, 129216, Note_on_c, 0, 73, 60
2, 129280, Note_off_c, 0, 79, 100
2, 129280, Note_off_c, 0, 73, 100
2, 129312, Note_on_c, 0, 78, 60
2, 129312, Note_on_c, 0, 74, 60
2, 129440, Note_off_c, 0, 78, 100
2, 129440, Note_off_c, 0, 74, 100
2, 129600, Note_on_c, 0, 76, 60
2, 129664, Note_off_c, 0, 76, 100
2, 129696, Note_on_c, 0, 88, 60
2, 129760, Note_off_c, 0, 88, 100
2, 129792, Note_on_c, 0, 88, 60
2, 129856, Note_off_c, 0, 88, 100
2, 129888, Note_on_c, 0, 88, 60
2, 129952, Note_off_c, 0, 88, 100
2, 129984, Note_on_c, 0, 88, 60
2, 130048, Note_off_c, 0, 88, 100
2, 130080, Note_on_c, 0, 88, 60
2, 130144, Note_off_c, 0, 88, 100
2, 130176, Note_on_c, 0, 88, 60
2, 130240, Note_off_c, 0, 88, 100
2, 130272, Note_on_c, 0, 81, 60
2, 130336, Note_off_c, 0, 81, 100
2, 130368, Note_on_c, 0, 81, 60
2, 130432, Note_off_c, 0, 81, 100
2, 130464, Note_on_c, 0, 81, 60
2, 130528, Note_off_c, 0, 81, 100
2, 130560, Note_on_c, 0, 86, 60
2, 130624, Note_off_c, 0, 86, 100
2, 130656, Note_on_c, 0, 86, 60
2, 130720, Note_off_c, 0, 86, 100
2, 130752, Note_on_c, 0, 86, 60
2, 130816, Note_off_c, 0, 86, 100
2, 130848, Note_on_c, 0, 83, 60
2, 130848, Note_on_c, 0, 79, 60
2, 130912, Note_off_c, 0, 83, 100
2, 130912, Note_off_c, 0, 79, 100
2, 130944, Note_on_c, 0, 81, 60
2, 130944, Note_on_c, 0, 78, 60
2, 131008, Note_off_c, 0, 81, 100
2, 131008, Note_off_c, 0, 78, 100
2, 131040, Note_on_c, 0, 79, 60
2, 131040, Note_on_c, 0, 76, 60
2, 131104, Note_off_c, 0, 79, 100
2, 131104, Note_off_c, 0, 76, 100
2, 131136, Note_on_c, 0, 74, 60
2, 131136, Note_on_c, 0, 78, 60
2, 131200, Note_off_c, 0, 74, 100
2, 131200, Note_off_c, 0, 78, 100
2, 131232, Note_on_c, 0, 76, 60
2, 131232, Note_on_c, 0, 73, 60
2, 131296, Note_off_c, 0, 76, 100
2, 131296, Note_off_c, 0, 73, 100
2, 131328, Note_on_c, 0, 74, 60
2, 131520, Note_off_c, 0, 74, 100
2, 131616, Note_on_c, 0, 78, 60
2, 131808, Note_off_c, 0, 78, 100
2, 131904, Note_on_c, 0, 79, 60
2, 131936, Note_off_c, 0, 79, 100
2, 131952, Note_on_c, 0, 78, 60
2, 131984, Note_off_c, 0, 78, 100
2, 132000, Note_on_c, 0, 76, 60
2, 132032, Note_off_c, 0, 76, 100
2, 132048, Note_on_c, 0, 74, 60
2, 132080, Note_off_c, 0, 74, 100
2, 132096, Note_on_c, 0, 73, 60
2, 132160, Note_off_c, 0, 73, 100
2, 132192, Note_on_c, 0, 76, 60
2, 132224, Note_off_c, 0, 76, 100
2, 132240, Note_on_c, 0, 74, 60
2, 132272, Note_off_c, 0, 74, 100
2, 132288, Note_on_c, 0, 73, 60
2, 132288, Note_on_c, 0, 73, 60
2, 132320, Note_off_c, 0, 73, 100
2, 132320, Note_off_c, 0, 73, 100
2, 132336, Note_on_c, 0, 71, 60
2, 132368, Note_off_c, 0, 71, 100
2, 132384, Note_on_c, 0, 69, 60
2, 132416, Note_off_c, 0, 69, 100
2, 132432, Note_on_c, 0, 67, 60
2, 132464, Note_off_c, 0, 67, 100
2, 132480, Note_on_c, 0, 66, 82
2, 132544, Note_off_c, 0, 66, 100
2, 132576, Note_on_c, 0, 69, 82
2, 132640, Note_off_c, 0, 69, 100
2, 132672, Note_on_c, 0, 74, 82
2, 132736, Note_off_c, 0, 74, 100
2, 132768, Note_on_c, 0, 78, 82
2, 132832, Note_off_c, 0, 78, 100
2, 132864, Note_on_c, 0, 81, 82
2, 132928, Note_off_c, 0, 81, 100
2, 133056, Note_on_c, 0, 79, 90
2, 133088, Note_off_c, 0, 79, 100
2, 133104, Note_on_c, 0, 78, 90
2, 133136, Note_off_c, 0, 78, 100
2, 133152, Note_on_c, 0, 76, 90
2, 133184, Note_off_c, 0, 76, 100
2, 133200, Note_on_c, 0, 74, 90
2, 133232, Note_off_c, 0, 74, 100
2, 133248, Note_on_c, 0, 73, 90
2, 133312, Note_off_c, 0, 73, 100
2, 133344, Note_on_c, 0, 76, 90
2, 133376, Note_off_c, 0, 76, 100
2, 133392, Note_on_c, 0, 74, 90
2, 133424, Note_off_c, 0, 74, 100
2, 133440, Note_on_c, 0, 73, 90
2, 133472, Note_off_c, 0, 73, 100
2, 133488, Note_on_c, 0, 71, 90
2, 133520, Note_off_c, 0, 71, 100
2, 133536, Note_on_c, 0, 69, 90
2, 133568, Note_off_c, 0, 69, 100
2, 133584, Note_on_c, 0, 67, 90
2, 133616, Note_off_c, 0, 67, 100
2, 133632, Note_on_c, 0, 66, 82
2, 133696, Note_off_c, 0, 66, 100
2, 133728, Note_on_c, 0, 69, 82
2, 133792, Note_off_c, 0, 69, 100
2, 133824, Note_on_c, 0, 74, 82
2, 133888, Note_off_c, 0, 74, 100
2, 133920, Note_on_c, 0, 78, 82
2, 133984, Note_off_c, 0, 78, 100
2, 134016, Note_on_c, 0, 81, 82
2, 134080, Note_off_c, 0, 81, 100
2, 134304, Note_on_c, 0, 82, 60
2, 134368, Note_off_c, 0, 82, 100
2, 134400, Note_on_c, 0, 83, 60
2, 134464, Note_off_c, 0, 83, 100
2, 134496, Note_on_c, 0, 74, 60
2, 134496, Note_on_c, 0, 67, 60
2, 134560, Note_off_c, 0, 74, 100
2, 134560, Note_off_c, 0, 67, 100
2, 134592, Note_on_c, 0, 86, 60
2, 134656, Note_off_c, 0, 86, 100
2, 134688, Note_on_c, 0, 83, 60
2, 134752, Note_off_c, 0, 83, 100
2, 134784, Note_on_c, 0, 74, 60
2, 134784, Note_on_c, 0, 66, 60
2, 134848, Note_off_c, 0, 74, 100
2, 134848, Note_off_c, 0, 66, 100
2, 134880, Note_on_c, 0, 80, 60
2, 134944, Note_off_c, 0, 80, 100
2, 134976, Note_on_c, 0, 81, 60
2, 135040, Note_off_c, 0, 81, 100
2, 135072, Note_on_c, 0, 74, 60
2, 135072, Note_on_c, 0, 67, 60
2, 135136, Note_off_c, 0, 74, 100
2, 135136, Note_off_c, 0, 67, 100
2, 135168, Note_on_c, 0, 83, 60
2, 135232, Note_off_c, 0, 83, 100
2, 135264, Note_on_c, 0, 79, 60
2, 135328, Note_off_c, 0, 79, 100
2, 135360, Note_on_c, 0, 74, 60
2, 135360, Note_on_c, 0, 69, 60
2, 135424, Note_off_c, 0, 74, 100
2, 135424, Note_off_c, 0, 69, 100
2, 135456, Note_on_c, 0, 77, 60
2, 135520, Note_off_c, 0, 77, 100
2, 135552, Note_on_c, 0, 78, 60
2, 135616, Note_off_c, 0, 78, 100
2, 135648, Note_on_c, 0, 69, 60
2, 135648, Note_on_c, 0, 73, 60
2, 135712, Note_off_c, 0, 69, 100
2, 135712, Note_off_c, 0, 73, 100
2, 135744, Note_on_c, 0, 79, 60
2, 135808, Note_off_c, 0, 79, 100
2, 135840, Note_on_c, 0, 76, 60
2, 135904, Note_off_c, 0, 76, 100
2, 135936, Note_on_c, 0, 74, 90
2, 136128, Note_off_c, 0, 74, 100
2, 136224, Note_on_c, 0, 78, 90
2, 136416, Note_off_c, 0, 78, 100
2, 136512, Note_on_c, 0, 79, 90
2, 136544, Note_off_c, 0, 79, 100
2, 136560, Note_on_c, 0, 78, 90
2, 136592, Note_off_c, 0, 78, 100
2, 136608, Note_on_c, 0, 76, 90
2, 136640, Note_off_c, 0, 76, 100
2, 136656, Note_on_c, 0, 74, 90
2, 136688, Note_off_c, 0, 74, 100
2, 136704, Note_on_c, 0, 73, 90
2, 136768, Note_off_c, 0, 73, 100
2, 136800, Note_on_c, 0, 76, 90
2, 136832, Note_off_c, 0, 76, 100
2, 136848, Note_on_c, 0, 74, 90
2, 136880, Note_off_c, 0, 74, 100
2, 136896, Note_on_c, 0, 73, 90
2, 136928, Note_off_c, 0, 73, 100
2, 136944, Note_on_c, 0, 71, 90
2, 136976, Note_off_c, 0, 71, 100
2, 136992, Note_on_c, 0, 69, 90
2, 137024, Note_off_c, 0, 69, 100
2, 137040, Note_on_c, 0, 67, 90
2, 137072, Note_off_c, 0, 67, 100
2, 137088, Note_on_c, 0, 66, 82
2, 137152, Note_off_c, 0, 66, 100
2, 137184, Note_on_c, 0, 69, 82
2, 137248, Note_off_c, 0, 69, 100
2, 137280, Note_on_c, 0, 74, 82
2, 137344, Note_off_c, 0, 74, 100
2, 137376, Note_on_c, 0, 78, 82
2, 137440, Note_off_c, 0, 78, 100
2, 137472, Note_on_c, 0, 81, 82
2, 137536, Note_off_c, 0, 81, 100
2, 137664, Note_on_c, 0, 79, 60
2, 137696, Note_off_c, 0, 79, 100
2, 137712, Note_on_c, 0, 78, 60
2, 137744, Note_off_c, 0, 78, 100
2, 137760, Note_on_c, 0, 76, 60
2, 137792, Note_off_c, 0, 76, 100
2, 137808, Note_on_c, 0, 74, 60
2, 137840, Note_off_c, 0, 74, 100
2, 137856, Note_on_c, 0, 73, 60
2, 137920, Note_off_c, 0, 73, 100
2, 137952, Note_on_c, 0, 76, 60
2, 137984, Note_off_c, 0, 76, 100
2, 138000, Note_on_c, 0, 74, 60
2, 138032, Note_off_c, 0, 74, 100
2, 138048, Note_on_c, 0, 73, 60
2, 138080, Note_off_c, 0, 73, 100
2, 138096, Note_on_c, 0, 71, 60
2, 138128, Note_off_c, 0, 71, 100
2, 138144, Note_on_c, 0, 69, 60
2, 138176, Note_off_c, 0, 69, 100
2, 138192, Note_on_c, 0, 67, 60
2, 138224, Note_off_c, 0, 67, 100
2, 138240, Note_on_c, 0, 66, 60
2, 138304, Note_off_c, 0, 66, 100
2, 138336, Note_on_c, 0, 69, 60
2, 138400, Note_off_c, 0, 69, 100
2, 138432, Note_on_c, 0, 74, 60
2, 138496, Note_off_c, 0, 74, 100
2, 138528, Note_on_c, 0, 78, 60
2, 138592, Note_off_c, 0, 78, 100
2, 138624, Note_on_c, 0, 81, 60
2, 138688, Note_off_c, 0, 81, 100
2, 138912, Note_on_c, 0, 82, 60
2, 138976, Note_off_c, 0, 82, 100
2, 139008, Note_on_c, 0, 83, 60
2, 139072, Note_off_c, 0, 83, 100
2, 139104, Note_on_c, 0, 74, 60
2, 139104, Note_on_c, 0, 67, 60
2, 139168, Note_off_c, 0, 74, 100
2, 139168, Note_off_c, 0, 67, 100
2, 139200, Note_on_c, 0, 86, 60
2, 139264, Note_off_c, 0, 86, 100
2, 139296, Note_on_c, 0, 83, 60
2, 139360, Note_off_c, 0, 83, 100
2, 139392, Note_on_c, 0, 74, 60
2, 139392, Note_on_c, 0, 66, 60
2, 139456, Note_off_c, 0, 74, 100
2, 139456, Note_off_c, 0, 66, 100
2, 139488, Note_on_c, 0, 80, 60
2, 139552, Note_off_c, 0, 80, 100
2, 139584, Note_on_c, 0, 81, 60
2, 139648, Note_off_c, 0, 81, 100
2, 139680, Note_on_c, 0, 74, 60
2, 139680, Note_on_c, 0, 67, 60
2, 139744, Note_off_c, 0, 74, 100
2, 139744, Note_off_c, 0, 67, 100
2, 139776, Note_on_c, 0, 83, 60
2, 139840, Note_off_c, 0, 83, 100
2, 139872, Note_on_c, 0, 79, 60
2, 139936, Note_off_c, 0, 79, 100
2, 139968, Note_on_c, 0, 74, 60
2, 139968, Note_on_c, 0, 69, 60
2, 140032, Note_off_c, 0, 74, 100
2, 140032, Note_off_c, 0, 69, 100
2, 140064, Note_on_c, 0, 77, 60
2, 140128, Note_off_c, 0, 77, 100
2, 140160, Note_on_c, 0, 78, 60
2, 140224, Note_off_c, 0, 78, 100
2, 140256, Note_on_c, 0, 73, 60
2, 140256, Note_on_c, 0, 69, 60
2, 140320, Note_off_c, 0, 73, 100
2, 140320, Note_off_c, 0, 69, 100
2, 140352, Note_on_c, 0, 79, 60
2, 140416, Note_off_c, 0, 79, 100
2, 140448, Note_on_c, 0, 76, 60
2, 140512, Note_off_c, 0, 76, 100
2, 140640, Note_on_c, 0, 82, 90
2, 140640, Note_on_c, 0, 70, 90
2, 140704, Note_off_c, 0, 82, 100
2, 140704, Note_off_c, 0, 70, 100
2, 140736, Note_on_c, 0, 83, 90
2, 140736, Note_on_c, 0, 71, 90
2, 140800, Note_off_c, 0, 83, 100
2, 140800, Note_off_c, 0, 71, 100
2, 140928, Note_on_c, 0, 86, 90
2, 140928, Note_on_c, 0, 74, 90
2, 140992, Note_off_c, 0, 86, 100
2, 140992, Note_off_c, 0, 74, 100
2, 141024, Note_on_c, 0, 83, 90
2, 141024, Note_on_c, 0, 71, 90
2, 141088, Note_off_c, 0, 83, 100
2, 141088, Note_off_c, 0, 71, 100
2, 141216, Note_on_c, 0, 80, 90
2, 141216, Note_on_c, 0, 68, 90
2, 141280, Note_off_c, 0, 80, 100
2, 141280, Note_off_c, 0, 68, 100
2, 141312, Note_on_c, 0, 81, 90
2, 141312, Note_on_c, 0, 69, 90
2, 141376, Note_off_c, 0, 81, 100
2, 141376, Note_off_c, 0, 69, 100
2, 141504, Note_on_c, 0, 83, 90
2, 141504, Note_on_c, 0, 71, 90
2, 141568, Note_off_c, 0, 83, 100
2, 141568, Note_off_c, 0, 71, 100
2, 141600, Note_on_c, 0, 79, 90
2, 141600, Note_on_c, 0, 67, 90
2, 141664, Note_off_c, 0, 79, 100
2, 141664, Note_off_c, 0, 67, 100
2, 141792, Note_on_c, 0, 77, 90
2, 141792, Note_on_c, 0, 65, 90
2, 141856, Note_off_c, 0, 77, 100
2, 141856, Note_off_c, 0, 65, 100
2, 141888, Note_on_c, 0, 78, 90
2, 141888, Note_on_c, 0, 66, 90
2, 141952, Note_off_c, 0, 78, 100
2, 141952, Note_off_c, 0, 66, 100
2, 142080, Note_on_c, 0, 79, 90
2, 142080, Note_on_c, 0, 67, 90
2, 142144, Note_off_c, 0, 79, 100
2, 142144, Note_off_c, 0, 67, 100
2, 142176, Note_on_c, 0, 76, 90
2, 142176, Note_on_c, 0, 64, 90
2, 142240, Note_off_c, 0, 76, 100
2, 142240, Note_off_c, 0, 64, 100
2, 142272, Note_on_c, 0, 74, 105
2, 142272, Note_on_c, 0, 66, 105
2, 142336, Note_off_c, 0, 74, 100
2, 142336, Note_off_c, 0, 66, 100
2, 142560, Note_on_c, 0, 74, 105
2, 142560, Note_on_c, 0, 66, 105
2, 142752, Note_off_c, 0, 74, 100
2, 142752, Note_off_c, 0, 66, 100
2, 142848, Note_on_c, 0, 76, 105
2, 142848, Note_on_c, 0, 67, 105
2, 142976, Note_off_c, 0, 76, 100
2, 142976, Note_off_c, 0, 67, 100
2, 143040, Note_on_c, 0, 79, 105
2, 143040, Note_on_c, 0, 71, 105
2, 143104, Note_off_c, 0, 79, 100
2, 143104, Note_off_c, 0, 71, 100
2, 143136, Note_on_c, 0, 74, 105
2, 143200, Note_off_c, 0, 74, 100
2, 143328, Note_on_c, 0, 74, 105
2, 143344, Note_off_c, 0, 74, 100
2, 143352, Note_on_c, 0, 73, 105
2, 143368, Note_off_c, 0, 73, 100
2, 143376, Note_on_c, 0, 74, 105
2, 143392, Note_off_c, 0, 74, 100
2, 143400, Note_on_c, 0, 73, 105
2, 143416, Note_off_c, 0, 73, 100
2, 143424, Note_on_c, 0, 74, 105
2, 143488, Note_off_c, 0, 74, 100
2, 143712, Note_on_c, 0, 74, 105
2, 143712, Note_on_c, 0, 66, 105
2, 143776, Note_off_c, 0, 74, 100
2, 143776, Note_off_c, 0, 66, 100
2, 143808, Note_on_c, 0, 74, 105
2, 143808, Note_on_c, 0, 66, 105
2, 143872, Note_off_c, 0, 74, 100
2, 143872, Note_off_c, 0, 66, 100
2, 143904, Note_on_c, 0, 74, 105
2, 143904, Note_on_c, 0, 66, 105
2, 143968, Note_off_c, 0, 74, 100
2, 143968, Note_off_c, 0, 66, 100
2, 144000, Note_on_c, 0, 76, 105
2, 144000, Note_on_c, 0, 67, 105
2, 144128, Note_off_c, 0, 76, 100
2, 144128, Note_off_c, 0, 67, 100
2, 144192, Note_on_c, 0, 79, 105
2, 144192, Note_on_c, 0, 71, 105
2, 144256, Note_off_c, 0, 79, 100
2, 144256, Note_off_c, 0, 71, 100
2, 144288, Note_on_c, 0, 74, 105
2, 144352, Note_off_c, 0, 74, 100
2, 144480, Note_on_c, 0, 74, 105
2, 144496, Note_off_c, 0, 74, 100
2, 144504, Note_on_c, 0, 73, 105
2, 144520, Note_off_c, 0, 73, 100
2, 144528, Note_on_c, 0, 74, 105
2, 144544, Note_off_c, 0, 74, 100
2, 144552, Note_on_c, 0, 73, 105
2, 144568, Note_off_c, 0, 73, 100
2, 144576, Note_on_c, 0, 74, 60
2, 144640, Note_off_c, 0, 74, 100
2, 144672, Note_on_c, 0, 66, 60
2, 144736, Note_off_c, 0, 66, 100
2, 144768, Note_on_c, 0, 69, 60
2, 144832, Note_off_c, 0, 69, 100
2, 144864, Note_on_c, 0, 71, 60
2, 144928, Note_off_c, 0, 71, 100
2, 144960, Note_on_c, 0, 73, 60
2, 145024, Note_off_c, 0, 73, 100
2, 145056, Note_on_c, 0, 74, 60
2, 145120, Note_off_c, 0, 74, 100
2, 145152, Note_on_c, 0, 76, 60
2, 145216, Note_off_c, 0, 76, 100
2, 145248, Note_on_c, 0, 69, 60
2, 145312, Note_off_c, 0, 69, 100
2, 145344, Note_on_c, 0, 71, 60
2, 145408, Note_off_c, 0, 71, 100
2, 145440, Note_on_c, 0, 73, 60
2, 145504, Note_off_c, 0, 73, 100
2, 145536, Note_on_c, 0, 74, 60
2, 145600, Note_off_c, 0, 74, 100
2, 145632, Note_on_c, 0, 76, 60
2, 145696, Note_off_c, 0, 76, 100
2, 145728, Note_on_c, 0, 78, 60
2, 145792, Note_off_c, 0, 78, 100
2, 145824, Note_on_c, 0, 66, 60
2, 145824, Note_on_c, 0, 69, 60
2, 145888, Note_off_c, 0, 66, 100
2, 145888, Note_off_c, 0, 69, 100
2, 145920, Note_on_c, 0, 69, 60
2, 145920, Note_on_c, 0, 73, 60
2, 145984, Note_off_c, 0, 69, 100
2, 145984, Note_off_c, 0, 73, 100
2, 146016, Note_on_c, 0, 71, 60
2, 146016, Note_on_c, 0, 74, 60
2, 146080, Note_off_c, 0, 71, 100
2, 146080, Note_off_c, 0, 74, 100
2, 146112, Note_on_c, 0, 73, 60
2, 146112, Note_on_c, 0, 76, 60
2, 146176, Note_off_c, 0, 73, 100
2, 146176, Note_off_c, 0, 76, 100
2, 146208, Note_on_c, 0, 74, 60
2, 146208, Note_on_c, 0, 78, 60
2, 146272, Note_off_c, 0, 74, 100
2, 146272, Note_off_c, 0, 78, 100
2, 146304, Note_on_c, 0, 76, 60
2, 146304, Note_on_c, 0, 79, 60
2, 146368, Note_off_c, 0, 76, 100
2, 146368, Note_off_c, 0, 79, 100
2, 146400, Note_on_c, 0, 69, 60
2, 146400, Note_on_c, 0, 73, 60
2, 146464, Note_off_c, 0, 69, 100
2, 146464, Note_off_c, 0, 73, 100
2, 146496, Note_on_c, 0, 71, 60
2, 146496, Note_on_c, 0, 74, 60
2, 146560, Note_off_c, 0, 71, 100
2, 146560, Note_off_c, 0, 74, 100
2, 146592, Note_on_c, 0, 73, 60
2, 146592, Note_on_c, 0, 76, 60
2, 146656, Note_off_c, 0, 73, 100
2, 146656, Note_off_c, 0, 76, 100
2, 146688, Note_on_c, 0, 74, 60
2, 146688, Note_on_c, 0, 78, 60
2, 146752, Note_off_c, 0, 74, 100
2, 146752, Note_off_c, 0, 78, 100
2, 146784, Note_on_c, 0, 76, 60
2, 146784, Note_on_c, 0, 79, 60
2, 146848, Note_off_c, 0, 76, 100
2, 146848, Note_off_c, 0, 79, 100
2, 146880, Note_on_c, 0, 78, 60
2, 146880, Note_on_c, 0, 81, 60
2, 146944, Note_off_c, 0, 78, 100
2, 146944, Note_off_c, 0, 81, 100
2, 147120, Note_on_c, 0, 69, 60
2, 147152, Note_off_c, 0, 69, 100
2, 147168, Note_on_c, 0, 81, 60
2, 147296, Note_off_c, 0, 81, 100
2, 147360, Note_on_c, 0, 78, 60
2, 147424, Note_off_c, 0, 78, 100
2, 147456, Note_on_c, 0, 76, 60
2, 147456, Note_on_c, 0, 66, 60
2, 147456, Note_on_c, 0, 62, 60
2, 147464, Note_off_c, 0, 76, 100
2, 147480, Note_on_c, 0, 74, 60
2, 147528, Note_off_c, 0, 74, 100
2, 147552, Note_on_c, 0, 73, 60
2, 147616, Note_off_c, 0, 73, 100
2, 147648, Note_off_c, 0, 66, 100
2, 147648, Note_off_c, 0, 62, 100
2, 147648, Note_on_c, 0, 74, 60
2, 147712, Note_off_c, 0, 74, 100
2, 147744, Note_on_c, 0, 76, 60
2, 147744, Note_on_c, 0, 67, 60
2, 147744, Note_on_c, 0, 59, 60
2, 147752, Note_off_c, 0, 76, 100
2, 147768, Note_on_c, 0, 74, 60
2, 147816, Note_off_c, 0, 74, 100
2, 147840, Note_on_c, 0, 73, 60
2, 147904, Note_off_c, 0, 73, 100
2, 147936, Note_off_c, 0, 67, 100
2, 147936, Note_off_c, 0, 59, 100
2, 147936, Note_on_c, 0, 74, 60
2, 148000, Note_off_c, 0, 74, 100
2, 148032, Note_on_c, 0, 78, 60
2, 148032, Note_on_c, 0, 74, 60
2, 148032, Note_on_c, 0, 69, 60
2, 148032, Note_on_c, 0, 57, 60
2, 148160, Note_off_c, 0, 78, 100
2, 148160, Note_off_c, 0, 74, 100
2, 148224, Note_off_c, 0, 69, 100
2, 148224, Note_off_c, 0, 57, 100
2, 148224, Note_on_c, 0, 76, 60
2, 148224, Note_on_c, 0, 73, 60
2, 148288, Note_off_c, 0, 76, 100
2, 148288, Note_off_c, 0, 73, 100
2, 148320, Note_on_c, 0, 67, 60
2, 148328, Note_off_c, 0, 67, 100
2, 148344, Note_on_c, 0, 79, 60
2, 148440, Note_off_c, 0, 79, 100
2, 148512, Note_on_c, 0, 76, 60
2, 148576, Note_off_c, 0, 76, 100
2, 148608, Note_on_c, 0, 74, 60
2, 148608, Note_on_c, 0, 64, 60
2, 148608, Note_on_c, 0, 57, 60
2, 148616, Note_off_c, 0, 74, 100
2, 148632, Note_on_c, 0, 73, 60
2, 148680, Note_off_c, 0, 73, 100
2, 148704, Note_on_c, 0, 71, 60
2, 148768, Note_off_c, 0, 71, 100
2, 148800, Note_off_c, 0, 64, 100
2, 148800, Note_off_c, 0, 57, 100
2, 148800, Note_on_c, 0, 73, 60
2, 148864, Note_off_c, 0, 73, 100
2, 148896, Note_on_c, 0, 69, 60
2, 148896, Note_on_c, 0, 64, 60
2, 148896, Note_on_c, 0, 61, 60
2, 148960, Note_off_c, 0, 69, 100
2, 148992, Note_on_c, 0, 76, 60
2, 149056, Note_off_c, 0, 76, 100
2, 149088, Note_off_c, 0, 64, 100
2, 149088, Note_off_c, 0, 61, 100
2, 149088, Note_on_c, 0, 81, 60
2, 149152, Note_off_c, 0, 81, 100
2, 149184, Note_on_c, 0, 79, 60
2, 149184, Note_on_c, 0, 76, 60
2, 149184, Note_on_c, 0, 69, 60
2, 149184, Note_on_c, 0, 62, 60
2, 149312, Note_off_c, 0, 79, 100
2, 149312, Note_off_c, 0, 76, 100
2, 149376, Note_off_c, 0, 69, 100
2, 149376, Note_off_c, 0, 62, 100
2, 149376, Note_on_c, 0, 78, 60
2, 149376, Note_on_c, 0, 74, 60
2, 149440, Note_off_c, 0, 78, 100
2, 149440, Note_off_c, 0, 74, 100
2, 149472, Note_on_c, 0, 74, 90
2, 149480, Note_off_c, 0, 74, 100
2, 149496, Note_on_c, 0, 78, 90
2, 149592, Note_off_c, 0, 78, 100
2, 149664, Note_on_c, 0, 79, 90
2, 149728, Note_off_c, 0, 79, 100
2, 149760, Note_on_c, 0, 83, 90
2, 149792, Note_off_c, 0, 83, 100
2, 149808, Note_on_c, 0, 81, 90
2, 149840, Note_off_c, 0, 81, 100
2, 149856, Note_on_c, 0, 79, 90
2, 149888, Note_off_c, 0, 79, 100
2, 149904, Note_on_c, 0, 78, 90
2, 149936, Note_off_c, 0, 78, 100
2, 149952, Note_on_c, 0, 76, 90
2, 149984, Note_off_c, 0, 76, 100
2, 150000, Note_on_c, 0, 74, 90
2, 150032, Note_off_c, 0, 74, 100
2, 150048, Note_on_c, 0, 79, 90
2, 150048, Note_on_c, 0, 55, 90
2, 150056, Note_off_c, 0, 79, 100
2, 150072, Note_on_c, 0, 83, 90
2, 150112, Note_off_c, 0, 55, 100
2, 150144, Note_on_c, 0, 67, 90
2, 150168, Note_off_c, 0, 83, 100
2, 150208, Note_off_c, 0, 67, 100
2, 150240, Note_on_c, 0, 85, 90
2, 150240, Note_on_c, 0, 69, 90
2, 150304, Note_off_c, 0, 85, 100
2, 150304, Note_off_c, 0, 69, 100
2, 150336, Note_on_c, 0, 88, 90
2, 150336, Note_on_c, 0, 71, 90
2, 150368, Note_off_c, 0, 88, 100
2, 150384, Note_on_c, 0, 86, 90
2, 150400, Note_off_c, 0, 71, 100
2, 150416, Note_off_c, 0, 86, 100
2, 150432, Note_on_c, 0, 85, 90
2, 150464, Note_off_c, 0, 85, 100
2, 150480, Note_on_c, 0, 83, 90
2, 150512, Note_off_c, 0, 83, 100
2, 150528, Note_on_c, 0, 81, 90
2, 150560, Note_off_c, 0, 81, 100
2, 150576, Note_on_c, 0, 79, 90
2, 150608, Note_off_c, 0, 79, 100
2, 150624, Note_on_c, 0, 85, 90
2, 150656, Note_off_c, 0, 85, 100
2, 150672, Note_on_c, 0, 83, 90
2, 150704, Note_off_c, 0, 83, 100
2, 150720, Note_on_c, 0, 81, 90
2, 150752, Note_off_c, 0, 81, 100
2, 150768, Note_on_c, 0, 79, 90
2, 150800, Note_off_c, 0, 79, 100
2, 150816, Note_on_c, 0, 78, 90
2, 150848, Note_off_c, 0, 78, 100
2, 150864, Note_on_c, 0, 76, 90
2, 150896, Note_off_c, 0, 76, 100
2, 150912, Note_on_c, 0, 83, 90
2, 150944, Note_off_c, 0, 83, 100
2, 150960, Note_on_c, 0, 81, 90
2, 150992, Note_off_c, 0, 81, 100
2, 151008, Note_on_c, 0, 79, 90
2, 151040, Note_off_c, 0, 79, 100
2, 151056, Note_on_c, 0, 78, 90
2, 151088, Note_off_c, 0, 78, 100
2, 151104, Note_on_c, 0, 76, 90
2, 151136, Note_off_c, 0, 76, 100
2, 151152, Note_on_c, 0, 74, 90
2, 151184, Note_off_c, 0, 74, 100
2, 151200, Note_on_c, 0, 81, 90
2, 151232, Note_off_c, 0, 81, 100
2, 151248, Note_on_c, 0, 79, 90
2, 151280, Note_off_c, 0, 79, 100
2, 151296, Note_on_c, 0, 78, 90
2, 151328, Note_off_c, 0, 78, 100
2, 151344, Note_on_c, 0, 76, 90
2, 151376, Note_off_c, 0, 76, 100
2, 151392, Note_on_c, 0, 74, 90
2, 151424, Note_off_c, 0, 74, 100
2, 151440, Note_on_c, 0, 73, 90
2, 151472, Note_off_c, 0, 73, 100
2, 151488, Note_on_c, 0, 74, 90
2, 151552, Note_off_c, 0, 74, 100
2, 151680, Note_on_c, 0, 62, 105
2, 151712, Note_off_c, 0, 62, 100
2, 151728, Note_on_c, 0, 66, 105
2, 151760, Note_off_c, 0, 66, 100
2, 151776, Note_on_c, 0, 69, 105
2, 151840, Note_off_c, 0, 69, 100
2, 151968, Note_on_c, 0, 66, 105
2, 152000, Note_off_c, 0, 66, 100
2, 152016, Note_on_c, 0, 69, 105
2, 152048, Note_off_c, 0, 69, 100
2, 152064, Note_on_c, 0, 74, 105
2, 152128, Note_off_c, 0, 74, 100
2, 152256, Note_on_c, 0, 69, 105
2, 152288, Note_off_c, 0, 69, 100
2, 152304, Note_on_c, 0, 74, 105
2, 152336, Note_off_c, 0, 74, 100
2, 152352, Note_on_c, 0, 78, 105
2, 152416, Note_off_c, 0, 78, 100
2, 152544, Note_on_c, 0, 74, 105
2, 152576, Note_off_c, 0, 74, 100
2, 152592, Note_on_c, 0, 78, 105
2, 152624, Note_off_c, 0, 78, 100
2, 152640, Note_on_c, 0, 81, 105
2, 152704, Note_off_c, 0, 81, 100
2, 153216, Note_on_c, 0, 81, 60
2, 153216, Note_on_c, 0, 66, 60
2, 153216, Note_on_c, 0, 62, 60
2, 153216, Note_on_c, 0, 57, 60
2, 153344, Note_off_c, 0, 81, 100
2, 153408, Note_off_c, 0, 66, 100
2, 153408, Note_off_c, 0, 62, 100
2, 153408, Note_on_c, 0, 81, 60
2, 153440, Note_off_c, 0, 81, 100
2, 153456, Note_on_c, 0, 83, 60
2, 153488, Note_off_c, 0, 83, 100
2, 153504, Note_on_c, 0, 74, 60
2, 153504, Note_on_c, 0, 67, 60
2, 153504, Note_on_c, 0, 64, 60
2, 153600, Note_off_c, 0, 57, 100
2, 153632, Note_off_c, 0, 74, 100
2, 153696, Note_off_c, 0, 67, 100
2, 153696, Note_off_c, 0, 64, 100
2, 153696, Note_on_c, 0, 73, 60
2, 153760, Note_off_c, 0, 73, 100
2, 153792, Note_on_c, 0, 74, 60
2, 153792, Note_on_c, 0, 69, 60
2, 153792, Note_on_c, 0, 66, 60
2, 153792, Note_on_c, 0, 61, 60
2, 153824, Note_off_c, 0, 69, 100
2, 153824, Note_off_c, 0, 66, 100
2, 153824, Note_off_c, 0, 61, 100
2, 153856, Note_off_c, 0, 74, 100
2, 153888, Note_on_c, 0, 86, 60
2, 153952, Note_off_c, 0, 86, 100
2, 153984, Note_on_c, 0, 85, 60
2, 154048, Note_off_c, 0, 85, 100
2, 154080, Note_on_c, 0, 83, 60
2, 154144, Note_off_c, 0, 83, 100
2, 154176, Note_on_c, 0, 81, 60
2, 154240, Note_off_c, 0, 81, 100
2, 154272, Note_on_c, 0, 80, 60
2, 154336, Note_off_c, 0, 80, 100
2, 154368, Note_on_c, 0, 81, 60
2, 154368, Note_on_c, 0, 66, 60
2, 154368, Note_on_c, 0, 62, 60
2, 154368, Note_on_c, 0, 57, 60
2, 154496, Note_off_c, 0, 81, 100
2, 154560, Note_off_c, 0, 66, 100
2, 154560, Note_off_c, 0, 62, 100
2, 154560, Note_on_c, 0, 81, 60
2, 154608, Note_off_c, 0, 81, 100
2, 154632, Note_on_c, 0, 83, 60
2, 154648, Note_off_c, 0, 83, 100
2, 154656, Note_on_c, 0, 74, 60
2, 154656, Note_on_c, 0, 64, 60
2, 154656, Note_on_c, 0, 67, 60
2, 154752, Note_off_c, 0, 57, 100
2, 154784, Note_off_c, 0, 74, 100
2, 154848, Note_off_c, 0, 64, 100
2, 154848, Note_off_c, 0, 67, 100
2, 154848, Note_on_c, 0, 73, 60
2, 154912, Note_off_c, 0, 73, 100
2, 154944, Note_on_c, 0, 74, 60
2, 154944, Note_on_c, 0, 66, 60
2, 154944, Note_on_c, 0, 62, 60
2, 154944, Note_on_c, 0, 57, 60
2, 154976, Note_off_c, 0, 66, 100
2, 154976, Note_off_c, 0, 62, 100
2, 154976, Note_off_c, 0, 57, 100
2, 155008, Note_off_c, 0, 74, 100
2, 155040, Note_on_c, 0, 86, 60
2, 155104, Note_off_c, 0, 86, 100
2, 155136, Note_on_c, 0, 85, 60
2, 155200, Note_off_c, 0, 85, 100
2, 155232, Note_on_c, 0, 83, 60
2, 155296, Note_off_c, 0, 83, 100
2, 155328, Note_on_c, 0, 81, 60
2, 155392, Note_off_c, 0, 81, 100
2, 155424, Note_on_c, 0, 80, 60
2, 155488, Note_off_c, 0, 80, 100
2, 155520, Note_on_c, 0, 81, 60
2, 155520, Note_on_c, 0, 66, 60
2, 155520, Note_on_c, 0, 62, 60
2, 155520, Note_on_c, 0, 57, 60
2, 155648, Note_off_c, 0, 81, 100
2, 155712, Note_off_c, 0, 66, 100
2, 155712, Note_off_c, 0, 62, 100
2, 155712, Note_on_c, 0, 81, 60
2, 155760, Note_off_c, 0, 81, 100
2, 155784, Note_on_c, 0, 83, 60
2, 155800, Note_off_c, 0, 83, 100
2, 155808, Note_on_c, 0, 74, 60
2, 155808, Note_on_c, 0, 67, 60
2, 155808, Note_on_c, 0, 64, 60
2, 155904, Note_off_c, 0, 57, 100
2, 155936, Note_off_c, 0, 74, 100
2, 156000, Note_off_c, 0, 67, 100
2, 156000, Note_off_c, 0, 64, 100
2, 156000, Note_on_c, 0, 73, 60
2, 156064, Note_off_c, 0, 73, 100
2, 156096, Note_on_c, 0, 74, 60
2, 156096, Note_on_c, 0, 66, 60
2, 156096, Note_on_c, 0, 62, 60
2, 156160, Note_off_c, 0, 74, 100
2, 156160, Note_off_c, 0, 66, 100
2, 156160, Note_off_c, 0, 62, 100
2, 156384, Note_on_c, 0, 62, 60
2, 156384, Note_on_c, 0, 59, 60
2, 156576, Note_off_c, 0, 62, 100
2, 156576, Note_off_c, 0, 59, 100
2, 156672, Note_on_c, 0, 62, 60
2, 156672, Note_on_c, 0, 59, 60
2, 156672, Note_on_c, 0, 64, 60
2, 156864, Note_off_c, 0, 62, 100
2, 156864, Note_off_c, 0, 59, 100
2, 156864, Note_off_c, 0, 64, 100
2, 156960, Note_on_c, 0, 64, 60
2, 156960, Note_on_c, 0, 61, 60
2, 156960, Note_on_c, 0, 69, 60
2, 157152, Note_off_c, 0, 64, 100
2, 157152, Note_off_c, 0, 61, 100
2, 157152, Note_off_c, 0, 69, 100
2, 157248, Note_on_c, 0, 66, 60
2, 157248, Note_on_c, 0, 62, 60
2, 157248, Note_on_c, 0, 57, 60
2, 157312, Note_off_c, 0, 66, 100
2, 157312, Note_off_c, 0, 62, 100
2, 157312, Note_off_c, 0, 57, 100
2, 157536, Note_on_c, 0, 78, 90
2, 157536, Note_on_c, 0, 83, 90
2, 157568, Note_off_c, 0, 78, 100
2, 157568, Note_off_c, 0, 83, 100
2, 157584, Note_on_c, 0, 86, 90
2, 157616, Note_off_c, 0, 86, 100
2, 157632, Note_on_c, 0, 78, 90
2, 157632, Note_on_c, 0, 83, 90
2, 157664, Note_off_c, 0, 78, 100
2, 157664, Note_off_c, 0, 83, 100
2, 157680, Note_on_c, 0, 86, 90
2, 157712, Note_off_c, 0, 86, 100
2, 157728, Note_on_c, 0, 78, 90
2, 157728, Note_on_c, 0, 83, 90
2, 157760, Note_off_c, 0, 78, 100
2, 157760, Note_off_c, 0, 83, 100
2, 157776, Note_on_c, 0, 86, 90
2, 157808, Note_off_c, 0, 86, 100
2, 157824, Note_on_c, 0, 76, 90
2, 157824, Note_on_c, 0, 83, 90
2, 157856, Note_off_c, 0, 76, 100
2, 157856, Note_off_c, 0, 83, 100
2, 157872, Note_on_c, 0, 86, 90
2, 157904, Note_off_c, 0, 86, 100
2, 157920, Note_on_c, 0, 76, 90
2, 157920, Note_on_c, 0, 83, 90
2, 157952, Note_off_c, 0, 76, 100
2, 157952, Note_off_c, 0, 83, 100
2, 157968, Note_on_c, 0, 86, 90
2, 158000, Note_off_c, 0, 86, 100
2, 158016, Note_on_c, 0, 76, 90
2, 158016, Note_on_c, 0, 83, 90
2, 158048, Note_off_c, 0, 76, 100
2, 158048, Note_off_c, 0, 83, 100
2, 158064, Note_on_c, 0, 86, 90
2, 158096, Note_off_c, 0, 86, 100
2, 158112, Note_on_c, 0, 76, 90
2, 158112, Note_on_c, 0, 81, 90
2, 158144, Note_off_c, 0, 76, 100
2, 158144, Note_off_c, 0, 81, 100
2, 158160, Note_on_c, 0, 85, 90
2, 158192, Note_off_c, 0, 85, 100
2, 158208, Note_on_c, 0, 76, 90
2, 158208, Note_on_c, 0, 81, 90
2, 158240, Note_off_c, 0, 76, 100
2, 158240, Note_off_c, 0, 81, 100
2, 158256, Note_on_c, 0, 85, 90
2, 158288, Note_off_c, 0, 85, 100
2, 158304, Note_on_c, 0, 76, 90
2, 158304, Note_on_c, 0, 81, 90
2, 158336, Note_off_c, 0, 76, 100
2, 158336, Note_off_c, 0, 81, 100
2, 158352, Note_on_c, 0, 85, 90
2, 158384, Note_off_c, 0, 85, 100
2, 158400, Note_on_c, 0, 86, 90
2, 158400, Note_on_c, 0, 81, 90
2, 158400, Note_on_c, 0, 78, 90
2, 158400, Note_on_c, 0, 74, 90
2, 158464, Note_off_c, 0, 86, 100
2, 158464, Note_off_c, 0, 81, 100
2, 158464, Note_off_c, 0, 78, 100
2, 158464, Note_off_c, 0, 74, 100
2, 158688, Note_on_c, 0, 81, 90
2, 158688, Note_on_c, 0, 78, 90
2, 158688, Note_on_c, 0, 74, 90
2, 158688, Note_on_c, 0, 69, 90
2, 158752, Note_off_c, 0, 81, 100
2, 158752, Note_off_c, 0, 78, 100
2, 158752, Note_off_c, 0, 74, 100
2, 158752, Note_off_c, 0, 69, 100
2, 158976, Note_on_c, 0, 78, 90
2, 158976, Note_on_c, 0, 74, 90
2, 158976, Note_on_c, 0, 69, 90
2, 159040, Note_off_c, 0, 78, 100
2, 159040, Note_off_c, 0, 74, 100
2, 159040, Note_off_c, 0, 69, 100
2, 159040, End_track
3, 0, Start_track
3, 0, Title_t, "K311-c-Rondo-Allegro"
3, 0, Control_c, 1, 0, 0
3, 0, Program_c, 1, 0
3, 0, Control_c, 1, 7, 80
3, 0, Control_c, 1, 10, 55
3, 0, Control_c, 1, 91, 105
3, 0, Control_c, 1, 93, 63
3, 0, Key_signature, 2, "major"
3, 0, Control_c, 1, 121, 0
3, 72, Control_c, 1, 10, 43
3, 96, Control_c, 1, 91, 63
3, 120, Control_c, 1, 93, 40
3, 144, Program_c, 1, 0
3, 2592, Note_on_c, 1, 50, 90
3, 2656, Note_off_c, 1, 50, 100
3, 2688, Note_on_c, 1, 62, 90
3, 2752, Note_off_c, 1, 62, 100
3, 2784, Note_on_c, 1, 64, 90
3, 2848, Note_off_c, 1, 64, 100
3, 2880, Note_on_c, 1, 66, 90
3, 2944, Note_off_c, 1, 66, 100
3, 3168, Note_on_c, 1, 50, 90
3, 3232, Note_off_c, 1, 50, 100
3, 3264, Note_on_c, 1, 62, 90
3, 3328, Note_off_c, 1, 62, 100
3, 3360, Note_on_c, 1, 64, 90
3, 3424, Note_off_c, 1, 64, 100
3, 3456, Note_on_c, 1, 66, 90
3, 3520, Note_off_c, 1, 66, 100
3, 3744, Note_on_c, 1, 55, 90
3, 3808, Note_off_c, 1, 55, 100
3, 3840, Note_on_c, 1, 67, 90
3, 3904, Note_off_c, 1, 67, 100
3, 3936, Note_on_c, 1, 64, 90
3, 4000, Note_off_c, 1, 64, 100
3, 4032, Note_on_c, 1, 66, 90
3, 4032, Note_on_c, 1, 54, 90
3, 4096, Note_off_c, 1, 66, 100
3, 4096, Note_off_c, 1, 54, 100
3, 4320, Note_on_c, 1, 67, 90
3, 4320, Note_on_c, 1, 55, 90
3, 4384, Note_off_c, 1, 67, 100
3, 4384, Note_off_c, 1, 55, 100
3, 4608, Note_on_c, 1, 69, 90
3, 4608, Note_on_c, 1, 57, 90
3, 4672, Note_off_c, 1, 69, 100
3, 4672, Note_off_c, 1, 57, 100
3, 7200, Note_on_c, 1, 50, 90
3, 7264, Note_off_c, 1, 50, 100
3, 7296, Note_on_c, 1, 62, 90
3, 7360, Note_off_c, 1, 62, 100
3, 7392, Note_on_c, 1, 64, 90
3, 7456, Note_off_c, 1, 64, 100
3, 7488, Note_on_c, 1, 66, 90
3, 7552, Note_off_c, 1, 66, 100
3, 7776, Note_on_c, 1, 43, 90
3, 7840, Note_off_c, 1, 43, 100
3, 7872, Note_on_c, 1, 55, 90
3, 7936, Note_off_c, 1, 55, 100
3, 7968, Note_on_c, 1, 57, 90
3, 8032, Note_off_c, 1, 57, 100
3, 8064, Note_on_c, 1, 59, 90
3, 8128, Note_off_c, 1, 59, 100
3, 8352, Note_on_c, 1, 64, 90
3, 8352, Note_on_c, 1, 59, 90
3, 8352, Note_on_c, 1, 55, 90
3, 8416, Note_off_c, 1, 64, 100
3, 8416, Note_off_c, 1, 59, 100
3, 8416, Note_off_c, 1, 55, 100
3, 9216, Note_on_c, 1, 62, 90
3, 9216, Note_on_c, 1, 66, 90
3, 9280, Note_off_c, 1, 62, 100
3, 9280, Note_off_c, 1, 66, 100
3, 9408, Note_on_c, 1, 38, 105
3, 9440, Note_off_c, 1, 38, 100
3, 9456, Note_on_c, 1, 42, 105
3, 9488, Note_off_c, 1, 42, 100
3, 9504, Note_on_c, 1, 45, 105
3, 9568, Note_off_c, 1, 45, 100
3, 9696, Note_on_c, 1, 42, 105
3, 9728, Note_off_c, 1, 42, 100
3, 9744, Note_on_c, 1, 45, 105
3, 9776, Note_off_c, 1, 45, 100
3, 9792, Note_on_c, 1, 50, 105
3, 9856, Note_off_c, 1, 50, 100
3, 9984, Note_on_c, 1, 45, 105
3, 10016, Note_off_c, 1, 45, 100
3, 10032, Note_on_c, 1, 50, 105
3, 10064, Note_off_c, 1, 50, 100
3, 10080, Note_on_c, 1, 54, 105
3, 10144, Note_off_c, 1, 54, 100
3, 10272, Note_on_c, 1, 50, 105
3, 10304, Note_off_c, 1, 50, 100
3, 10320, Note_on_c, 1, 54, 105
3, 10352, Note_off_c, 1, 54, 100
3, 10368, Note_on_c, 1, 57, 105
3, 10432, Note_off_c, 1, 57, 100
3, 14112, Note_on_c, 1, 54, 60
3, 14112, Note_on_c, 1, 47, 60
3, 14304, Note_off_c, 1, 54, 100
3, 14304, Note_off_c, 1, 47, 100
3, 14400, Note_on_c, 1, 43, 60
3, 14592, Note_off_c, 1, 43, 100
3, 14688, Note_on_c, 1, 45, 60
3, 14880, Note_off_c, 1, 45, 100
3, 14976, Note_on_c, 1, 38, 60
3, 15040, Note_off_c, 1, 38, 100
3, 15360, Note_on_c, 1, 50, 90
3, 15360, Note_on_c, 1, 38, 90
3, 15424, Note_off_c, 1, 50, 100
3, 15424, Note_off_c, 1, 38, 100
3, 15456, Note_on_c, 1, 50, 90
3, 15456, Note_on_c, 1, 38, 90
3, 15520, Note_off_c, 1, 50, 100
3, 15520, Note_off_c, 1, 38, 100
3, 15624, Note_on_c, 1, 50, 90
3, 15624, Note_on_c, 1, 38, 90
3, 15720, Note_off_c, 1, 50, 100
3, 15720, Note_off_c, 1, 38, 100
3, 15744, Note_on_c, 1, 38, 90
3, 15744, Note_on_c, 1, 50, 90
3, 15808, Note_off_c, 1, 38, 100
3, 15808, Note_off_c, 1, 50, 100
3, 15912, Note_on_c, 1, 50, 90
3, 15912, Note_on_c, 1, 38, 90
3, 16008, Note_off_c, 1, 50, 100
3, 16008, Note_off_c, 1, 38, 100
3, 16032, Note_on_c, 1, 50, 90
3, 16032, Note_on_c, 1, 38, 90
3, 16096, Note_off_c, 1, 50, 100
3, 16096, Note_off_c, 1, 38, 100
3, 16128, Note_on_c, 1, 49, 90
3, 16128, Note_on_c, 1, 37, 90
3, 16256, Note_off_c, 1, 49, 100
3, 16256, Note_off_c, 1, 37, 100
3, 17664, Note_on_c, 1, 47, 90
3, 17664, Note_on_c, 1, 35, 90
3, 17728, Note_off_c, 1, 47, 100
3, 17728, Note_off_c, 1, 35, 100
3, 17760, Note_on_c, 1, 47, 90
3, 17760, Note_on_c, 1, 35, 90
3, 17824, Note_off_c, 1, 47, 100
3, 17824, Note_off_c, 1, 35, 100
3, 17928, Note_on_c, 1, 47, 90
3, 17928, Note_on_c, 1, 35, 90
3, 18024, Note_off_c, 1, 47, 100
3, 18024, Note_off_c, 1, 35, 100
3, 18048, Note_on_c, 1, 47, 90
3, 18048, Note_on_c, 1, 35, 90
3, 18112, Note_off_c, 1, 47, 100
3, 18112, Note_off_c, 1, 35, 100
3, 18216, Note_on_c, 1, 45, 90
3, 18216, Note_on_c, 1, 33, 90
3, 18312, Note_off_c, 1, 45, 100
3, 18312, Note_off_c, 1, 33, 100
3, 18336, Note_on_c, 1, 45, 90
3, 18336, Note_on_c, 1, 33, 90
3, 18400, Note_off_c, 1, 45, 100
3, 18400, Note_off_c, 1, 33, 100
3, 18432, Note_on_c, 1, 44, 90
3, 18432, Note_on_c, 1, 32, 90
3, 18560, Note_off_c, 1, 44, 100
3, 18560, Note_off_c, 1, 32, 100
3, 19008, Note_on_c, 1, 56, 90
3, 19072, Note_off_c, 1, 56, 100
3, 19104, Note_on_c, 1, 59, 90
3, 19168, Note_off_c, 1, 59, 100
3, 19200, Note_on_c, 1, 64, 90
3, 19264, Note_off_c, 1, 64, 100
3, 19296, Note_on_c, 1, 56, 90
3, 19360, Note_off_c, 1, 56, 100
3, 19392, Note_on_c, 1, 59, 90
3, 19456, Note_off_c, 1, 59, 100
3, 19488, Note_on_c, 1, 64, 90
3, 19552, Note_off_c, 1, 64, 100
3, 19584, Note_on_c, 1, 57, 90
3, 19648, Note_off_c, 1, 57, 100
3, 19680, Note_on_c, 1, 61, 90
3, 19744, Note_off_c, 1, 61, 100
3, 19776, Note_on_c, 1, 64, 90
3, 19840, Note_off_c, 1, 64, 100
3, 19872, Note_on_c, 1, 57, 90
3, 19936, Note_off_c, 1, 57, 100
3, 19968, Note_on_c, 1, 61, 90
3, 20032, Note_off_c, 1, 61, 100
3, 20064, Note_on_c, 1, 64, 90
3, 20128, Note_off_c, 1, 64, 100
3, 20160, Note_on_c, 1, 56, 90
3, 20224, Note_off_c, 1, 56, 100
3, 20256, Note_on_c, 1, 59, 90
3, 20320, Note_off_c, 1, 59, 100
3, 20352, Note_on_c, 1, 64, 90
3, 20416, Note_off_c, 1, 64, 100
3, 20448, Note_on_c, 1, 56, 90
3, 20512, Note_off_c, 1, 56, 100
3, 20544, Note_on_c, 1, 59, 90
3, 20608, Note_off_c, 1, 59, 100
3, 20640, Note_on_c, 1, 64, 90
3, 20704, Note_off_c, 1, 64, 100
3, 20736, Note_on_c, 1, 57, 90
3, 20800, Note_off_c, 1, 57, 100
3, 20832, Note_on_c, 1, 61, 90
3, 20896, Note_off_c, 1, 61, 100
3, 20928, Note_on_c, 1, 64, 90
3, 20992, Note_off_c, 1, 64, 100
3, 21024, Note_on_c, 1, 57, 90
3, 21088, Note_off_c, 1, 57, 100
3, 21120, Note_on_c, 1, 61, 90
3, 21184, Note_off_c, 1, 61, 100
3, 21216, Note_on_c, 1, 64, 90
3, 21280, Note_off_c, 1, 64, 100
3, 21312, Note_on_c, 1, 56, 90
3, 21376, Note_off_c, 1, 56, 100
3, 21408, Note_on_c, 1, 59, 90
3, 21472, Note_off_c, 1, 59, 100
3, 21504, Note_on_c, 1, 64, 90
3, 21568, Note_off_c, 1, 64, 100
3, 21600, Note_on_c, 1, 56, 90
3, 21664, Note_off_c, 1, 56, 100
3, 21696, Note_on_c, 1, 59, 90
3, 21760, Note_off_c, 1, 59, 100
3, 21792, Note_on_c, 1, 64, 90
3, 21856, Note_off_c, 1, 64, 100
3, 21888, Note_on_c, 1, 57, 90
3, 22016, Note_off_c, 1, 57, 100
3, 22176, Note_on_c, 1, 57, 90
3, 22176, Note_on_c, 1, 49, 90
3, 22304, Note_off_c, 1, 57, 100
3, 22304, Note_off_c, 1, 49, 100
3, 22464, Note_on_c, 1, 57, 90
3, 22464, Note_on_c, 1, 50, 90
3, 22592, Note_off_c, 1, 57, 100
3, 22592, Note_off_c, 1, 50, 100
3, 22752, Note_on_c, 1, 62, 90
3, 22784, Note_off_c, 1, 62, 100
3, 22800, Note_on_c, 1, 61, 90
3, 22832, Note_off_c, 1, 61, 100
3, 22848, Note_on_c, 1, 59, 90
3, 22880, Note_off_c, 1, 59, 100
3, 22896, Note_on_c, 1, 57, 90
3, 22928, Note_off_c, 1, 57, 100
3, 22944, Note_on_c, 1, 56, 90
3, 22976, Note_off_c, 1, 56, 100
3, 22992, Note_on_c, 1, 54, 90
3, 23024, Note_off_c, 1, 54, 100
3, 23040, Note_on_c, 1, 52, 90
3, 23104, Note_off_c, 1, 52, 100
3, 23136, Note_on_c, 1, 52, 90
3, 23200, Note_off_c, 1, 52, 100
3, 23232, Note_on_c, 1, 52, 90
3, 23296, Note_off_c, 1, 52, 100
3, 23328, Note_on_c, 1, 52, 90
3, 23392, Note_off_c, 1, 52, 100
3, 24192, Note_on_c, 1, 57, 60
3, 24384, Note_off_c, 1, 57, 100
3, 24480, Note_on_c, 1, 56, 60
3, 24544, Note_off_c, 1, 56, 100
3, 24576, Note_on_c, 1, 57, 60
3, 24640, Note_off_c, 1, 57, 100
3, 24672, Note_on_c, 1, 56, 60
3, 24736, Note_off_c, 1, 56, 100
3, 24768, Note_on_c, 1, 54, 60
3, 24960, Note_off_c, 1, 54, 100
3, 25056, Note_on_c, 1, 54, 60
3, 25184, Note_off_c, 1, 54, 100
3, 25248, Note_on_c, 1, 50, 60
3, 25312, Note_off_c, 1, 50, 100
3, 25344, Note_on_c, 1, 52, 60
3, 25408, Note_off_c, 1, 52, 100
3, 25440, Note_on_c, 1, 54, 60
3, 25504, Note_off_c, 1, 54, 100
3, 25536, Note_on_c, 1, 56, 60
3, 25600, Note_off_c, 1, 56, 100
3, 25632, Note_on_c, 1, 57, 60
3, 25696, Note_off_c, 1, 57, 100
3, 25728, Note_on_c, 1, 59, 60
3, 25792, Note_off_c, 1, 59, 100
3, 25824, Note_on_c, 1, 61, 60
3, 25888, Note_off_c, 1, 61, 100
3, 27360, Note_on_c, 1, 62, 60
3, 27488, Note_off_c, 1, 62, 100
3, 27552, Note_on_c, 1, 57, 60
3, 27552, Note_on_c, 1, 54, 60
3, 27616, Note_off_c, 1, 57, 100
3, 27616, Note_off_c, 1, 54, 100
3, 27648, Note_on_c, 1, 57, 60
3, 27648, Note_on_c, 1, 52, 60
3, 27840, Note_off_c, 1, 57, 100
3, 27840, Note_off_c, 1, 52, 100
3, 27936, Note_on_c, 1, 56, 60
3, 27936, Note_on_c, 1, 52, 60
3, 28000, Note_off_c, 1, 56, 100
3, 28000, Note_off_c, 1, 52, 100
3, 28800, Note_on_c, 1, 54, 60
3, 28992, Note_off_c, 1, 54, 100
3, 29088, Note_on_c, 1, 52, 60
3, 29152, Note_off_c, 1, 52, 100
3, 29184, Note_on_c, 1, 54, 60
3, 29248, Note_off_c, 1, 54, 100
3, 29280, Note_on_c, 1, 52, 60
3, 29344, Note_off_c, 1, 52, 100
3, 29376, Note_on_c, 1, 50, 60
3, 29504, Note_off_c, 1, 50, 100
3, 29568, Note_on_c, 1, 49, 60
3, 29632, Note_off_c, 1, 49, 100
3, 29664, Note_on_c, 1, 47, 60
3, 29792, Note_off_c, 1, 47, 100
3, 29856, Note_on_c, 1, 45, 60
3, 29920, Note_off_c, 1, 45, 100
3, 29952, Note_on_c, 1, 44, 60
3, 30080, Note_off_c, 1, 44, 100
3, 30144, Note_on_c, 1, 40, 60
3, 30208, Note_off_c, 1, 40, 100
3, 30240, Note_on_c, 1, 45, 60
3, 30304, Note_off_c, 1, 45, 100
3, 30336, Note_on_c, 1, 47, 60
3, 30400, Note_off_c, 1, 47, 100
3, 30432, Note_on_c, 1, 49, 60
3, 30496, Note_off_c, 1, 49, 100
3, 30528, Note_on_c, 1, 57, 60
3, 30528, Note_on_c, 1, 54, 60
3, 30528, Note_on_c, 1, 50, 60
3, 30720, Note_off_c, 1, 50, 100
3, 30816, Note_on_c, 1, 51, 60
3, 30912, Note_off_c, 1, 57, 100
3, 30912, Note_off_c, 1, 54, 100
3, 31008, Note_off_c, 1, 51, 100
3, 31104, Note_on_c, 1, 55, 60
3, 31104, Note_on_c, 1, 52, 60
3, 31104, Note_on_c, 1, 50, 60
3, 31296, Note_off_c, 1, 55, 100
3, 31296, Note_off_c, 1, 52, 100
3, 31296, Note_off_c, 1, 50, 100
3, 31392, Note_on_c, 1, 55, 60
3, 31392, Note_on_c, 1, 52, 60
3, 31392, Note_on_c, 1, 49, 60
3, 31584, Note_off_c, 1, 55, 100
3, 31584, Note_off_c, 1, 52, 100
3, 31584, Note_off_c, 1, 49, 100
3, 31680, Note_on_c, 1, 54, 60
3, 31680, Note_on_c, 1, 50, 60
3, 31744, Note_off_c, 1, 54, 100
3, 31744, Note_off_c, 1, 50, 100
3, 31968, Note_on_c, 1, 52, 60
3, 32032, Note_off_c, 1, 52, 100
3, 32256, Note_on_c, 1, 57, 90
3, 32288, Note_off_c, 1, 57, 100
3, 32304, Note_on_c, 1, 64, 90
3, 32336, Note_off_c, 1, 64, 100
3, 32352, Note_on_c, 1, 61, 90
3, 32384, Note_off_c, 1, 61, 100
3, 32400, Note_on_c, 1, 64, 90
3, 32432, Note_off_c, 1, 64, 100
3, 32448, Note_on_c, 1, 61, 90
3, 32480, Note_off_c, 1, 61, 100
3, 32496, Note_on_c, 1, 64, 90
3, 32528, Note_off_c, 1, 64, 100
3, 32544, Note_on_c, 1, 57, 90
3, 32576, Note_off_c, 1, 57, 100
3, 32592, Note_on_c, 1, 64, 90
3, 32624, Note_off_c, 1, 64, 100
3, 32640, Note_on_c, 1, 61, 90
3, 32672, Note_off_c, 1, 61, 100
3, 32688, Note_on_c, 1, 64, 90
3, 32720, Note_off_c, 1, 64, 100
3, 32736, Note_on_c, 1, 61, 90
3, 32768, Note_off_c, 1, 61, 100
3, 32784, Note_on_c, 1, 64, 90
3, 32816, Note_off_c, 1, 64, 100
3, 32832, Note_on_c, 1, 59, 90
3, 32864, Note_off_c, 1, 59, 100
3, 32880, Note_on_c, 1, 64, 90
3, 32912, Note_off_c, 1, 64, 100
3, 32928, Note_on_c, 1, 62, 90
3, 32960, Note_off_c, 1, 62, 100
3, 32976, Note_on_c, 1, 64, 90
3, 33008, Note_off_c, 1, 64, 100
3, 33024, Note_on_c, 1, 62, 90
3, 33056, Note_off_c, 1, 62, 100
3, 33072, Note_on_c, 1, 64, 90
3, 33104, Note_off_c, 1, 64, 100
3, 33120, Note_on_c, 1, 56, 90
3, 33152, Note_off_c, 1, 56, 100
3, 33168, Note_on_c, 1, 64, 90
3, 33200, Note_off_c, 1, 64, 100
3, 33216, Note_on_c, 1, 59, 90
3, 33248, Note_off_c, 1, 59, 100
3, 33264, Note_on_c, 1, 64, 90
3, 33296, Note_off_c, 1, 64, 100
3, 33312, Note_on_c, 1, 59, 90
3, 33344, Note_off_c, 1, 59, 100
3, 33360, Note_on_c, 1, 64, 90
3, 33392, Note_off_c, 1, 64, 100
3, 33408, Note_on_c, 1, 57, 82
3, 33440, Note_off_c, 1, 57, 100
3, 33456, Note_on_c, 1, 64, 82
3, 33488, Note_off_c, 1, 64, 100
3, 33504, Note_on_c, 1, 61, 82
3, 33536, Note_off_c, 1, 61, 100
3, 33552, Note_on_c, 1, 64, 82
3, 33584, Note_off_c, 1, 64, 100
3, 33600, Note_on_c, 1, 61, 82
3, 33632, Note_off_c, 1, 61, 100
3, 33648, Note_on_c, 1, 64, 82
3, 33680, Note_off_c, 1, 64, 100
3, 33696, Note_on_c, 1, 57, 82
3, 33728, Note_off_c, 1, 57, 100
3, 33744, Note_on_c, 1, 64, 82
3, 33776, Note_off_c, 1, 64, 100
3, 33792, Note_on_c, 1, 61, 82
3, 33824, Note_off_c, 1, 61, 100
3, 33840, Note_on_c, 1, 64, 82
3, 33872, Note_off_c, 1, 64, 100
3, 33888, Note_on_c, 1, 61, 82
3, 33920, Note_off_c, 1, 61, 100
3, 33936, Note_on_c, 1, 64, 82
3, 33968, Note_off_c, 1, 64, 100
3, 33984, Note_on_c, 1, 59, 90
3, 34016, Note_off_c, 1, 59, 100
3, 34032, Note_on_c, 1, 64, 90
3, 34064, Note_off_c, 1, 64, 100
3, 34080, Note_on_c, 1, 62, 90
3, 34112, Note_off_c, 1, 62, 100
3, 34128, Note_on_c, 1, 64, 90
3, 34160, Note_off_c, 1, 64, 100
3, 34176, Note_on_c, 1, 62, 90
3, 34208, Note_off_c, 1, 62, 100
3, 34224, Note_on_c, 1, 64, 90
3, 34256, Note_off_c, 1, 64, 100
3, 34272, Note_on_c, 1, 56, 90
3, 34304, Note_off_c, 1, 56, 100
3, 34320, Note_on_c, 1, 64, 90
3, 34352, Note_off_c, 1, 64, 100
3, 34368, Note_on_c, 1, 59, 90
3, 34400, Note_off_c, 1, 59, 100
3, 34416, Note_on_c, 1, 64, 90
3, 34448, Note_off_c, 1, 64, 100
3, 34464, Note_on_c, 1, 59, 90
3, 34496, Note_off_c, 1, 59, 100
3, 34512, Note_on_c, 1, 64, 90
3, 34544, Note_off_c, 1, 64, 100
3, 34560, Note_on_c, 1, 57, 82
3, 34592, Note_off_c, 1, 57, 100
3, 34600, Note_on_c, 1, 64, 82
3, 34632, Note_off_c, 1, 64, 100
3, 34656, Note_on_c, 1, 61, 82
3, 34688, Note_off_c, 1, 61, 100
3, 34704, Note_on_c, 1, 64, 82
3, 34736, Note_off_c, 1, 64, 100
3, 34752, Note_on_c, 1, 61, 82
3, 34784, Note_off_c, 1, 61, 100
3, 34800, Note_on_c, 1, 64, 82
3, 34832, Note_off_c, 1, 64, 100
3, 34848, Note_on_c, 1, 57, 82
3, 34880, Note_off_c, 1, 57, 100
3, 34896, Note_on_c, 1, 64, 82
3, 34928, Note_off_c, 1, 64, 100
3, 34944, Note_on_c, 1, 61, 82
3, 34976, Note_off_c, 1, 61, 100
3, 34992, Note_on_c, 1, 64, 82
3, 35024, Note_off_c, 1, 64, 100
3, 35040, Note_on_c, 1, 61, 82
3, 35072, Note_off_c, 1, 61, 100
3, 35088, Note_on_c, 1, 64, 82
3, 35120, Note_off_c, 1, 64, 100
3, 35136, Note_on_c, 1, 62, 60
3, 35200, Note_off_c, 1, 62, 100
3, 36864, Note_on_c, 1, 57, 90
3, 36896, Note_off_c, 1, 57, 100
3, 36912, Note_on_c, 1, 64, 90
3, 36944, Note_off_c, 1, 64, 100
3, 36960, Note_on_c, 1, 61, 90
3, 36992, Note_off_c, 1, 61, 100
3, 37008, Note_on_c, 1, 64, 90
3, 37040, Note_off_c, 1, 64, 100
3, 37056, Note_on_c, 1, 61, 90
3, 37088, Note_off_c, 1, 61, 100
3, 37104, Note_on_c, 1, 64, 90
3, 37136, Note_off_c, 1, 64, 100
3, 37152, Note_on_c, 1, 57, 90
3, 37184, Note_off_c, 1, 57, 100
3, 37200, Note_on_c, 1, 64, 90
3, 37232, Note_off_c, 1, 64, 100
3, 37248, Note_on_c, 1, 61, 90
3, 37280, Note_off_c, 1, 61, 100
3, 37296, Note_on_c, 1, 64, 90
3, 37328, Note_off_c, 1, 64, 100
3, 37344, Note_on_c, 1, 61, 90
3, 37376, Note_off_c, 1, 61, 100
3, 37392, Note_on_c, 1, 64, 90
3, 37424, Note_off_c, 1, 64, 100
3, 37440, Note_on_c, 1, 59, 90
3, 37472, Note_off_c, 1, 59, 100
3, 37488, Note_on_c, 1, 64, 90
3, 37520, Note_off_c, 1, 64, 100
3, 37536, Note_on_c, 1, 62, 90
3, 37568, Note_off_c, 1, 62, 100
3, 37584, Note_on_c, 1, 64, 90
3, 37616, Note_off_c, 1, 64, 100
3, 37632, Note_on_c, 1, 62, 90
3, 37664, Note_off_c, 1, 62, 100
3, 37680, Note_on_c, 1, 64, 90
3, 37712, Note_off_c, 1, 64, 100
3, 37728, Note_on_c, 1, 55, 90
3, 37760, Note_off_c, 1, 55, 100
3, 37776, Note_on_c, 1, 64, 90
3, 37808, Note_off_c, 1, 64, 100
3, 37824, Note_on_c, 1, 59, 90
3, 37856, Note_off_c, 1, 59, 100
3, 37872, Note_on_c, 1, 64, 90
3, 37904, Note_off_c, 1, 64, 100
3, 37920, Note_on_c, 1, 59, 90
3, 37952, Note_off_c, 1, 59, 100
3, 37968, Note_on_c, 1, 64, 90
3, 38000, Note_off_c, 1, 64, 100
3, 38016, Note_on_c, 1, 57, 82
3, 38048, Note_off_c, 1, 57, 100
3, 38064, Note_on_c, 1, 64, 82
3, 38096, Note_off_c, 1, 64, 100
3, 38112, Note_on_c, 1, 61, 82
3, 38144, Note_off_c, 1, 61, 100
3, 38160, Note_on_c, 1, 64, 82
3, 38192, Note_off_c, 1, 64, 100
3, 38208, Note_on_c, 1, 61, 82
3, 38240, Note_off_c, 1, 61, 100
3, 38256, Note_on_c, 1, 64, 82
3, 38288, Note_off_c, 1, 64, 100
3, 38304, Note_on_c, 1, 57, 82
3, 38336, Note_off_c, 1, 57, 100
3, 38352, Note_on_c, 1, 64, 82
3, 38384, Note_off_c, 1, 64, 100
3, 38400, Note_on_c, 1, 61, 82
3, 38432, Note_off_c, 1, 61, 100
3, 38448, Note_on_c, 1, 64, 82
3, 38480, Note_off_c, 1, 64, 100
3, 38496, Note_on_c, 1, 61, 82
3, 38528, Note_off_c, 1, 61, 100
3, 38544, Note_on_c, 1, 64, 82
3, 38576, Note_off_c, 1, 64, 100
3, 38592, Note_on_c, 1, 59, 90
3, 38624, Note_off_c, 1, 59, 100
3, 38640, Note_on_c, 1, 64, 90
3, 38672, Note_off_c, 1, 64, 100
3, 38688, Note_on_c, 1, 62, 90
3, 38720, Note_off_c, 1, 62, 100
3, 38736, Note_on_c, 1, 64, 90
3, 38768, Note_off_c, 1, 64, 100
3, 38784, Note_on_c, 1, 62, 90
3, 38816, Note_off_c, 1, 62, 100
3, 38832, Note_on_c, 1, 64, 90
3, 38864, Note_off_c, 1, 64, 100
3, 38880, Note_on_c, 1, 56, 90
3, 38912, Note_off_c, 1, 56, 100
3, 38928, Note_on_c, 1, 64, 90
3, 38960, Note_off_c, 1, 64, 100
3, 38976, Note_on_c, 1, 59, 90
3, 39008, Note_off_c, 1, 59, 100
3, 39024, Note_on_c, 1, 64, 90
3, 39056, Note_off_c, 1, 64, 100
3, 39072, Note_on_c, 1, 59, 90
3, 39104, Note_off_c, 1, 59, 100
3, 39120, Note_on_c, 1, 64, 90
3, 39152, Note_off_c, 1, 64, 100
3, 39168, Note_on_c, 1, 57, 82
3, 39200, Note_off_c, 1, 57, 100
3, 39216, Note_on_c, 1, 64, 82
3, 39248, Note_off_c, 1, 64, 100
3, 39264, Note_on_c, 1, 61, 82
3, 39296, Note_off_c, 1, 61, 100
3, 39312, Note_on_c, 1, 64, 82
3, 39344, Note_off_c, 1, 64, 100
3, 39360, Note_on_c, 1, 61, 82
3, 39392, Note_off_c, 1, 61, 100
3, 39408, Note_on_c, 1, 64, 82
3, 39440, Note_off_c, 1, 64, 100
3, 39456, Note_on_c, 1, 57, 82
3, 39488, Note_off_c, 1, 57, 100
3, 39504, Note_on_c, 1, 64, 82
3, 39536, Note_off_c, 1, 64, 100
3, 39552, Note_on_c, 1, 61, 82
3, 39584, Note_off_c, 1, 61, 100
3, 39600, Note_on_c, 1, 64, 82
3, 39632, Note_off_c, 1, 64, 100
3, 39648, Note_on_c, 1, 61, 82
3, 39680, Note_off_c, 1, 61, 100
3, 39696, Note_on_c, 1, 64, 82
3, 39728, Note_off_c, 1, 64, 100
3, 39744, Note_on_c, 1, 62, 60
3, 39808, Note_off_c, 1, 62, 100
3, 41472, Note_on_c, 1, 57, 90
3, 41472, Note_on_c, 1, 50, 90
3, 41536, Note_off_c, 1, 57, 100
3, 41536, Note_off_c, 1, 50, 100
3, 41760, Note_on_c, 1, 57, 90
3, 41760, Note_on_c, 1, 50, 90
3, 41824, Note_off_c, 1, 57, 100
3, 41824, Note_off_c, 1, 50, 100
3, 42048, Note_on_c, 1, 57, 90
3, 42048, Note_on_c, 1, 49, 90
3, 42112, Note_off_c, 1, 57, 100
3, 42112, Note_off_c, 1, 49, 100
3, 42336, Note_on_c, 1, 57, 90
3, 42336, Note_on_c, 1, 50, 90
3, 42400, Note_off_c, 1, 57, 100
3, 42400, Note_off_c, 1, 50, 100
3, 42624, Note_on_c, 1, 57, 90
3, 42624, Note_on_c, 1, 52, 90
3, 42688, Note_off_c, 1, 57, 100
3, 42688, Note_off_c, 1, 52, 100
3, 42912, Note_on_c, 1, 56, 90
3, 42912, Note_on_c, 1, 52, 90
3, 42976, Note_off_c, 1, 56, 100
3, 42976, Note_off_c, 1, 52, 100
3, 43200, Note_on_c, 1, 45, 105
3, 43232, Note_off_c, 1, 45, 100
3, 43248, Note_on_c, 1, 57, 105
3, 43280, Note_off_c, 1, 57, 100
3, 43296, Note_on_c, 1, 56, 105
3, 43328, Note_off_c, 1, 56, 100
3, 43344, Note_on_c, 1, 57, 105
3, 43376, Note_off_c, 1, 57, 100
3, 43392, Note_on_c, 1, 56, 105
3, 43424, Note_off_c, 1, 56, 100
3, 43440, Note_on_c, 1, 57, 105
3, 43472, Note_off_c, 1, 57, 100
3, 43488, Note_on_c, 1, 42, 105
3, 43520, Note_off_c, 1, 42, 100
3, 43536, Note_on_c, 1, 54, 105
3, 43568, Note_off_c, 1, 54, 100
3, 43584, Note_on_c, 1, 53, 105
3, 43616, Note_off_c, 1, 53, 100
3, 43632, Note_on_c, 1, 54, 105
3, 43664, Note_off_c, 1, 54, 100
3, 43680, Note_on_c, 1, 53, 105
3, 43712, Note_off_c, 1, 53, 100
3, 43728, Note_on_c, 1, 54, 105
3, 43760, Note_off_c, 1, 54, 100
3, 43776, Note_on_c, 1, 38, 105
3, 43808, Note_off_c, 1, 38, 100
3, 43824, Note_on_c, 1, 50, 105
3, 43856, Note_off_c, 1, 50, 100
3, 43872, Note_on_c, 1, 49, 105
3, 43904, Note_off_c, 1, 49, 100
3, 43920, Note_on_c, 1, 50, 105
3, 43952, Note_off_c, 1, 50, 100
3, 43968, Note_on_c, 1, 49, 105
3, 44000, Note_off_c, 1, 49, 100
3, 44016, Note_on_c, 1, 50, 105
3, 44048, Note_off_c, 1, 50, 100
3, 44064, Note_on_c, 1, 40, 105
3, 44096, Note_off_c, 1, 40, 100
3, 44112, Note_on_c, 1, 52, 105
3, 44144, Note_off_c, 1, 52, 100
3, 44160, Note_on_c, 1, 51, 105
3, 44192, Note_off_c, 1, 51, 100
3, 44208, Note_on_c, 1, 52, 105
3, 44240, Note_off_c, 1, 52, 100
3, 44256, Note_on_c, 1, 51, 105
3, 44288, Note_off_c, 1, 51, 100
3, 44304, Note_on_c, 1, 52, 105
3, 44336, Note_off_c, 1, 52, 100
3, 44352, Note_on_c, 1, 45, 105
3, 44384, Note_off_c, 1, 45, 100
3, 44400, Note_on_c, 1, 57, 105
3, 44432, Note_off_c, 1, 57, 100
3, 44448, Note_on_c, 1, 56, 105
3, 44480, Note_off_c, 1, 56, 100
3, 44496, Note_on_c, 1, 57, 105
3, 44528, Note_off_c, 1, 57, 100
3, 44544, Note_on_c, 1, 56, 105
3, 44576, Note_off_c, 1, 56, 100
3, 44592, Note_on_c, 1, 57, 105
3, 44624, Note_off_c, 1, 57, 100
3, 44640, Note_on_c, 1, 42, 105
3, 44672, Note_off_c, 1, 42, 100
3, 44688, Note_on_c, 1, 54, 105
3, 44720, Note_off_c, 1, 54, 100
3, 44736, Note_on_c, 1, 53, 105
3, 44768, Note_off_c, 1, 53, 100
3, 44776, Note_on_c, 1, 54, 105
3, 44808, Note_off_c, 1, 54, 100
3, 44832, Note_on_c, 1, 53, 105
3, 44864, Note_off_c, 1, 53, 100
3, 44880, Note_on_c, 1, 54, 105
3, 44912, Note_off_c, 1, 54, 100
3, 44928, Note_on_c, 1, 38, 105
3, 44960, Note_off_c, 1, 38, 100
3, 44976, Note_on_c, 1, 50, 105
3, 45008, Note_off_c, 1, 50, 100
3, 45024, Note_on_c, 1, 49, 105
3, 45056, Note_off_c, 1, 49, 100
3, 45072, Note_on_c, 1, 50, 105
3, 45104, Note_off_c, 1, 50, 100
3, 45120, Note_on_c, 1, 49, 105
3, 45152, Note_off_c, 1, 49, 100
3, 45168, Note_on_c, 1, 50, 105
3, 45200, Note_off_c, 1, 50, 100
3, 45216, Note_on_c, 1, 40, 105
3, 45248, Note_off_c, 1, 40, 100
3, 45264, Note_on_c, 1, 52, 105
3, 45296, Note_off_c, 1, 52, 100
3, 45312, Note_on_c, 1, 51, 105
3, 45344, Note_off_c, 1, 51, 100
3, 45360, Note_on_c, 1, 52, 105
3, 45392, Note_off_c, 1, 52, 100
3, 45408, Note_on_c, 1, 51, 105
3, 45440, Note_off_c, 1, 51, 100
3, 45456, Note_on_c, 1, 52, 105
3, 45488, Note_off_c, 1, 52, 100
3, 45504, Note_on_c, 1, 45, 105
3, 45568, Note_off_c, 1, 45, 100
3, 45984, Note_on_c, 1, 59, 60
3, 45984, Note_on_c, 1, 62, 60
3, 45984, Note_on_c, 1, 52, 60
3, 46048, Note_off_c, 1, 59, 100
3, 46048, Note_off_c, 1, 62, 100
3, 46048, Note_off_c, 1, 52, 100
3, 46080, Note_on_c, 1, 57, 60
3, 46080, Note_on_c, 1, 61, 60
3, 46144, Note_off_c, 1, 57, 100
3, 46144, Note_off_c, 1, 61, 100
3, 46560, Note_on_c, 1, 52, 60
3, 46560, Note_on_c, 1, 62, 60
3, 46560, Note_on_c, 1, 59, 60
3, 46624, Note_off_c, 1, 52, 100
3, 46624, Note_off_c, 1, 62, 100
3, 46624, Note_off_c, 1, 59, 100
3, 46656, Note_on_c, 1, 61, 60
3, 46656, Note_on_c, 1, 57, 60
3, 46720, Note_off_c, 1, 61, 100
3, 46720, Note_off_c, 1, 57, 100
3, 46752, Note_on_c, 1, 49, 60
3, 46816, Note_off_c, 1, 49, 100
3, 46848, Note_on_c, 1, 50, 60
3, 46912, Note_off_c, 1, 50, 100
3, 46944, Note_on_c, 1, 52, 60
3, 47008, Note_off_c, 1, 52, 100
3, 47040, Note_on_c, 1, 54, 60
3, 47104, Note_off_c, 1, 54, 100
3, 47136, Note_on_c, 1, 56, 60
3, 47200, Note_off_c, 1, 56, 100
3, 47232, Note_on_c, 1, 57, 60
3, 47296, Note_off_c, 1, 57, 100
3, 47328, Note_on_c, 1, 49, 60
3, 47392, Note_off_c, 1, 49, 100
3, 47424, Note_on_c, 1, 50, 60
3, 47488, Note_off_c, 1, 50, 100
3, 47520, Note_on_c, 1, 52, 60
3, 47584, Note_off_c, 1, 52, 100
3, 47616, Note_on_c, 1, 54, 60
3, 47680, Note_off_c, 1, 54, 100
3, 47712, Note_on_c, 1, 56, 60
3, 47776, Note_off_c, 1, 56, 100
3, 47808, Note_on_c, 1, 57, 60
3, 47872, Note_off_c, 1, 57, 100
3, 48096, Note_on_c, 1, 57, 67
3, 48096, Note_on_c, 1, 59, 67
3, 48160, Note_off_c, 1, 57, 100
3, 48160, Note_off_c, 1, 59, 100
3, 48384, Note_on_c, 1, 57, 75
3, 48384, Note_on_c, 1, 61, 75
3, 48448, Note_off_c, 1, 57, 100
3, 48448, Note_off_c, 1, 61, 100
3, 48672, Note_on_c, 1, 62, 82
3, 48672, Note_on_c, 1, 57, 82
3, 48736, Note_off_c, 1, 62, 100
3, 48736, Note_off_c, 1, 57, 100
3, 48960, Note_on_c, 1, 57, 90
3, 48960, Note_on_c, 1, 64, 90
3, 49024, Note_off_c, 1, 57, 100
3, 49024, Note_off_c, 1, 64, 100
3, 52128, Note_on_c, 1, 50, 90
3, 52192, Note_off_c, 1, 50, 100
3, 52224, Note_on_c, 1, 62, 90
3, 52288, Note_off_c, 1, 62, 100
3, 52320, Note_on_c, 1, 64, 90
3, 52384, Note_off_c, 1, 64, 100
3, 52416, Note_on_c, 1, 66, 90
3, 52480, Note_off_c, 1, 66, 100
3, 52704, Note_on_c, 1, 50, 90
3, 52768, Note_off_c, 1, 50, 100
3, 52800, Note_on_c, 1, 61, 90
3, 52864, Note_off_c, 1, 61, 100
3, 52896, Note_on_c, 1, 64, 90
3, 52960, Note_off_c, 1, 64, 100
3, 52992, Note_on_c, 1, 66, 90
3, 53056, Note_off_c, 1, 66, 100
3, 53280, Note_on_c, 1, 54, 90
3, 53344, Note_off_c, 1, 54, 100
3, 53376, Note_on_c, 1, 67, 90
3, 53440, Note_off_c, 1, 67, 100
3, 53472, Note_on_c, 1, 64, 90
3, 53536, Note_off_c, 1, 64, 100
3, 53568, Note_on_c, 1, 66, 90
3, 53568, Note_on_c, 1, 54, 90
3, 53632, Note_off_c, 1, 66, 100
3, 53632, Note_off_c, 1, 54, 100
3, 53856, Note_on_c, 1, 67, 90
3, 53856, Note_on_c, 1, 55, 90
3, 53920, Note_off_c, 1, 67, 100
3, 53920, Note_off_c, 1, 55, 100
3, 54144, Note_on_c, 1, 69, 90
3, 54144, Note_on_c, 1, 57, 90
3, 54208, Note_off_c, 1, 69, 100
3, 54208, Note_off_c, 1, 57, 100
3, 56736, Note_on_c, 1, 50, 90
3, 56800, Note_off_c, 1, 50, 100
3, 56832, Note_on_c, 1, 62, 90
3, 56896, Note_off_c, 1, 62, 100
3, 56928, Note_on_c, 1, 64, 90
3, 56992, Note_off_c, 1, 64, 100
3, 57024, Note_on_c, 1, 66, 90
3, 57088, Note_off_c, 1, 66, 100
3, 57312, Note_on_c, 1, 43, 90
3, 57376, Note_off_c, 1, 43, 100
3, 57408, Note_on_c, 1, 55, 90
3, 57472, Note_off_c, 1, 55, 100
3, 57504, Note_on_c, 1, 57, 90
3, 57568, Note_off_c, 1, 57, 100
3, 57600, Note_on_c, 1, 59, 90
3, 57664, Note_off_c, 1, 59, 100
3, 57888, Note_on_c, 1, 59, 90
3, 57888, Note_on_c, 1, 64, 90
3, 57888, Note_on_c, 1, 55, 90
3, 57952, Note_off_c, 1, 59, 100
3, 57952, Note_off_c, 1, 64, 100
3, 57952, Note_off_c, 1, 55, 100
3, 58176, Note_on_c, 1, 57, 90
3, 58176, Note_on_c, 1, 62, 90
3, 58176, Note_on_c, 1, 66, 90
3, 58240, Note_off_c, 1, 57, 100
3, 58240, Note_off_c, 1, 62, 100
3, 58240, Note_off_c, 1, 66, 100
3, 58464, Note_on_c, 1, 57, 90
3, 58464, Note_on_c, 1, 64, 90
3, 58464, Note_on_c, 1, 67, 90
3, 58528, Note_off_c, 1, 57, 100
3, 58528, Note_off_c, 1, 64, 100
3, 58528, Note_off_c, 1, 67, 100
3, 58752, Note_on_c, 1, 62, 90
3, 58752, Note_on_c, 1, 66, 90
3, 58816, Note_off_c, 1, 62, 100
3, 58816, Note_off_c, 1, 66, 100
3, 58944, Note_on_c, 1, 42, 105
3, 58976, Note_off_c, 1, 42, 100
3, 58992, Note_on_c, 1, 45, 105
3, 59024, Note_off_c, 1, 45, 100
3, 59040, Note_on_c, 1, 50, 105
3, 59104, Note_off_c, 1, 50, 100
3, 59232, Note_on_c, 1, 45, 105
3, 59264, Note_off_c, 1, 45, 100
3, 59280, Note_on_c, 1, 50, 105
3, 59312, Note_off_c, 1, 50, 100
3, 59328, Note_on_c, 1, 54, 105
3, 59392, Note_off_c, 1, 54, 100
3, 59520, Note_on_c, 1, 50, 105
3, 59552, Note_off_c, 1, 50, 100
3, 59568, Note_on_c, 1, 54, 105
3, 59600, Note_off_c, 1, 54, 100
3, 59616, Note_on_c, 1, 57, 105
3, 59680, Note_off_c, 1, 57, 100
3, 59808, Note_on_c, 1, 54, 105
3, 59840, Note_off_c, 1, 54, 100
3, 59856, Note_on_c, 1, 57, 105
3, 59888, Note_off_c, 1, 57, 100
3, 59904, Note_on_c, 1, 60, 105
3, 59968, Note_off_c, 1, 60, 100
3, 60480, Note_on_c, 1, 50, 60
3, 60480, Note_on_c, 1, 59, 60
3, 60480, Note_on_c, 1, 55, 60
3, 60672, Note_off_c, 1, 59, 100
3, 60672, Note_off_c, 1, 55, 100
3, 60768, Note_on_c, 1, 57, 60
3, 60768, Note_on_c, 1, 61, 60
3, 60864, Note_off_c, 1, 50, 100
3, 60960, Note_off_c, 1, 57, 100
3, 60960, Note_off_c, 1, 61, 100
3, 61056, Note_on_c, 1, 59, 60
3, 61056, Note_on_c, 1, 55, 60
3, 61056, Note_on_c, 1, 50, 60
3, 61120, Note_off_c, 1, 59, 100
3, 61120, Note_off_c, 1, 55, 100
3, 61120, Note_off_c, 1, 50, 100
3, 61632, Note_on_c, 1, 50, 60
3, 61632, Note_on_c, 1, 59, 60
3, 61632, Note_on_c, 1, 55, 60
3, 61824, Note_off_c, 1, 59, 100
3, 61824, Note_off_c, 1, 55, 100
3, 61920, Note_on_c, 1, 57, 60
3, 61920, Note_on_c, 1, 61, 60
3, 62016, Note_off_c, 1, 50, 100
3, 62112, Note_off_c, 1, 57, 100
3, 62112, Note_off_c, 1, 61, 100
3, 62208, Note_on_c, 1, 59, 60
3, 62208, Note_on_c, 1, 55, 60
3, 62208, Note_on_c, 1, 50, 60
3, 62272, Note_off_c, 1, 59, 100
3, 62272, Note_off_c, 1, 55, 100
3, 62272, Note_off_c, 1, 50, 100
3, 62784, Note_on_c, 1, 55, 60
3, 62784, Note_on_c, 1, 59, 60
3, 62784, Note_on_c, 1, 50, 60
3, 62976, Note_off_c, 1, 55, 100
3, 62976, Note_off_c, 1, 59, 100
3, 63072, Note_on_c, 1, 57, 60
3, 63072, Note_on_c, 1, 61, 60
3, 63168, Note_off_c, 1, 50, 100
3, 63264, Note_off_c, 1, 57, 100
3, 63264, Note_off_c, 1, 61, 100
3, 63360, Note_on_c, 1, 59, 60
3, 63360, Note_on_c, 1, 55, 60
3, 63424, Note_off_c, 1, 59, 100
3, 63424, Note_off_c, 1, 55, 100
3, 63648, Note_on_c, 1, 52, 60
3, 63840, Note_off_c, 1, 52, 100
3, 63936, Note_on_c, 1, 48, 60
3, 64128, Note_off_c, 1, 48, 100
3, 64224, Note_on_c, 1, 50, 60
3, 64416, Note_off_c, 1, 50, 100
3, 64512, Note_on_c, 1, 43, 60
3, 64576, Note_off_c, 1, 43, 100
3, 64800, Note_on_c, 1, 48, 90
3, 64800, Note_on_c, 1, 36, 90
3, 64992, Note_off_c, 1, 48, 100
3, 64992, Note_off_c, 1, 36, 100
3, 65088, Note_on_c, 1, 45, 90
3, 65088, Note_on_c, 1, 33, 90
3, 65280, Note_off_c, 1, 45, 100
3, 65280, Note_off_c, 1, 33, 100
3, 65376, Note_on_c, 1, 47, 90
3, 65376, Note_on_c, 1, 35, 90
3, 65568, Note_off_c, 1, 47, 100
3, 65568, Note_off_c, 1, 35, 100
3, 65664, Note_on_c, 1, 40, 90
3, 65728, Note_off_c, 1, 40, 100
3, 65952, Note_on_c, 1, 54, 60
3, 65952, Note_on_c, 1, 47, 60
3, 66144, Note_off_c, 1, 54, 100
3, 66144, Note_off_c, 1, 47, 100
3, 66240, Note_on_c, 1, 43, 60
3, 66432, Note_off_c, 1, 43, 100
3, 66528, Note_on_c, 1, 45, 60
3, 66720, Note_off_c, 1, 45, 100
3, 66816, Note_on_c, 1, 38, 60
3, 66880, Note_off_c, 1, 38, 100
3, 67104, Note_on_c, 1, 58, 90
3, 67104, Note_on_c, 1, 46, 90
3, 67296, Note_off_c, 1, 58, 100
3, 67296, Note_off_c, 1, 46, 100
3, 67392, Note_on_c, 1, 59, 90
3, 67392, Note_on_c, 1, 47, 90
3, 67584, Note_off_c, 1, 59, 100
3, 67584, Note_off_c, 1, 47, 100
3, 67680, Note_on_c, 1, 55, 90
3, 67680, Note_on_c, 1, 43, 90
3, 67872, Note_off_c, 1, 55, 100
3, 67872, Note_off_c, 1, 43, 100
3, 67968, Note_on_c, 1, 54, 90
3, 67968, Note_on_c, 1, 42, 90
3, 68032, Note_off_c, 1, 54, 100
3, 68032, Note_off_c, 1, 42, 100
3, 68064, Note_on_c, 1, 55, 60
3, 68128, Note_off_c, 1, 55, 100
3, 68160, Note_on_c, 1, 54, 60
3, 68224, Note_off_c, 1, 54, 100
3, 68256, Note_on_c, 1, 52, 60
3, 68320, Note_off_c, 1, 52, 100
3, 68352, Note_on_c, 1, 50, 60
3, 68416, Note_off_c, 1, 50, 100
3, 68448, Note_on_c, 1, 49, 60
3, 68512, Note_off_c, 1, 49, 100
3, 68544, Note_on_c, 1, 47, 60
3, 68608, Note_off_c, 1, 47, 100
3, 72576, Note_on_c, 1, 54, 60
3, 72640, Note_off_c, 1, 54, 100
3, 72864, Note_on_c, 1, 54, 90
3, 72896, Note_off_c, 1, 54, 100
3, 72912, Note_on_c, 1, 55, 90
3, 72944, Note_off_c, 1, 55, 100
3, 72960, Note_on_c, 1, 54, 90
3, 72992, Note_off_c, 1, 54, 100
3, 73008, Note_on_c, 1, 52, 90
3, 73040, Note_off_c, 1, 52, 100
3, 73056, Note_on_c, 1, 50, 90
3, 73088, Note_off_c, 1, 50, 100
3, 73104, Note_on_c, 1, 49, 90
3, 73136, Note_off_c, 1, 49, 100
3, 73152, Note_on_c, 1, 47, 90
3, 73216, Note_off_c, 1, 47, 100
3, 75168, Note_on_c, 1, 62, 90
3, 75296, Note_off_c, 1, 62, 100
3, 75360, Note_on_c, 1, 64, 90
3, 75392, Note_off_c, 1, 64, 100
3, 75408, Note_on_c, 1, 66, 90
3, 75440, Note_off_c, 1, 66, 100
3, 75456, Note_on_c, 1, 67, 90
3, 75520, Note_off_c, 1, 67, 100
3, 75552, Note_on_c, 1, 55, 90
3, 75616, Note_off_c, 1, 55, 100
3, 75648, Note_on_c, 1, 55, 90
3, 75712, Note_off_c, 1, 55, 100
3, 75744, Note_on_c, 1, 55, 90
3, 75872, Note_off_c, 1, 55, 100
3, 75936, Note_on_c, 1, 57, 90
3, 75968, Note_off_c, 1, 57, 100
3, 75984, Note_on_c, 1, 59, 90
3, 76016, Note_off_c, 1, 59, 100
3, 76032, Note_on_c, 1, 61, 90
3, 76096, Note_off_c, 1, 61, 100
3, 76128, Note_on_c, 1, 54, 90
3, 76192, Note_off_c, 1, 54, 100
3, 76224, Note_on_c, 1, 54, 90
3, 76288, Note_off_c, 1, 54, 100
3, 76320, Note_on_c, 1, 54, 90
3, 76448, Note_off_c, 1, 54, 100
3, 76512, Note_on_c, 1, 56, 90
3, 76544, Note_off_c, 1, 56, 100
3, 76560, Note_on_c, 1, 58, 90
3, 76592, Note_off_c, 1, 58, 100
3, 76608, Note_on_c, 1, 59, 90
3, 76672, Note_off_c, 1, 59, 100
3, 76704, Note_on_c, 1, 54, 90
3, 76768, Note_off_c, 1, 54, 100
3, 76800, Note_on_c, 1, 55, 90
3, 76864, Note_off_c, 1, 55, 100
3, 76896, Note_on_c, 1, 52, 90
3, 76960, Note_off_c, 1, 52, 100
3, 76992, Note_on_c, 1, 49, 90
3, 77056, Note_off_c, 1, 49, 100
3, 77088, Note_on_c, 1, 66, 90
3, 77152, Note_off_c, 1, 66, 100
3, 77184, Note_on_c, 1, 62, 90
3, 77248, Note_off_c, 1, 62, 100
3, 77280, Note_on_c, 1, 59, 90
3, 77344, Note_off_c, 1, 59, 100
3, 77376, Note_on_c, 1, 64, 90
3, 77440, Note_off_c, 1, 64, 100
3, 77472, Note_on_c, 1, 61, 90
3, 77536, Note_off_c, 1, 61, 100
3, 77568, Note_on_c, 1, 57, 90
3, 77632, Note_off_c, 1, 57, 100
3, 77664, Note_on_c, 1, 50, 90
3, 77728, Note_off_c, 1, 50, 100
3, 77760, Note_on_c, 1, 47, 90
3, 77824, Note_off_c, 1, 47, 100
3, 77856, Note_on_c, 1, 43, 90
3, 77920, Note_off_c, 1, 43, 100
3, 77952, Note_on_c, 1, 49, 90
3, 78016, Note_off_c, 1, 49, 100
3, 78048, Note_on_c, 1, 45, 90
3, 78112, Note_off_c, 1, 45, 100
3, 78144, Note_on_c, 1, 42, 90
3, 78208, Note_off_c, 1, 42, 100
3, 78240, Note_on_c, 1, 59, 90
3, 78304, Note_off_c, 1, 59, 100
3, 78336, Note_on_c, 1, 55, 90
3, 78400, Note_off_c, 1, 55, 100
3, 78432, Note_on_c, 1, 52, 90
3, 78496, Note_off_c, 1, 52, 100
3, 78528, Note_on_c, 1, 57, 90
3, 78592, Note_off_c, 1, 57, 100
3, 78624, Note_on_c, 1, 54, 90
3, 78688, Note_off_c, 1, 54, 100
3, 78720, Note_on_c, 1, 50, 90
3, 78784, Note_off_c, 1, 50, 100
3, 78816, Note_on_c, 1, 55, 90
3, 78880, Note_off_c, 1, 55, 100
3, 78912, Note_on_c, 1, 49, 90
3, 78912, Note_on_c, 1, 37, 90
3, 79296, Note_off_c, 1, 49, 100
3, 79296, Note_off_c, 1, 37, 100
3, 79584, Note_on_c, 1, 50, 90
3, 79648, Note_off_c, 1, 50, 100
3, 79680, Note_on_c, 1, 50, 90
3, 79744, Note_off_c, 1, 50, 100
3, 79776, Note_on_c, 1, 50, 90
3, 79808, Note_off_c, 1, 50, 100
3, 79824, Note_on_c, 1, 52, 90
3, 79856, Note_off_c, 1, 52, 100
3, 79872, Note_on_c, 1, 50, 90
3, 79904, Note_off_c, 1, 50, 100
3, 79920, Note_on_c, 1, 48, 90
3, 79952, Note_off_c, 1, 48, 100
3, 79968, Note_on_c, 1, 47, 90
3, 80000, Note_off_c, 1, 47, 100
3, 80016, Note_on_c, 1, 45, 90
3, 80048, Note_off_c, 1, 45, 100
3, 80064, Note_on_c, 1, 43, 90
3, 80128, Note_off_c, 1, 43, 100
3, 80736, Note_on_c, 1, 62, 60
3, 80736, Note_on_c, 1, 60, 60
3, 80736, Note_on_c, 1, 57, 60
3, 80800, Note_off_c, 1, 62, 100
3, 80800, Note_off_c, 1, 60, 100
3, 80800, Note_off_c, 1, 57, 100
3, 80832, Note_on_c, 1, 60, 60
3, 80832, Note_on_c, 1, 62, 60
3, 80832, Note_on_c, 1, 57, 60
3, 80896, Note_off_c, 1, 60, 100
3, 80896, Note_off_c, 1, 62, 100
3, 80896, Note_off_c, 1, 57, 100
3, 80928, Note_on_c, 1, 60, 60
3, 80928, Note_on_c, 1, 62, 60
3, 80928, Note_on_c, 1, 57, 60
3, 80992, Note_off_c, 1, 60, 100
3, 80992, Note_off_c, 1, 62, 100
3, 80992, Note_off_c, 1, 57, 100
3, 81024, Note_on_c, 1, 60, 60
3, 81024, Note_on_c, 1, 57, 60
3, 81024, Note_on_c, 1, 62, 60
3, 81088, Note_off_c, 1, 60, 100
3, 81088, Note_off_c, 1, 57, 100
3, 81088, Note_off_c, 1, 62, 100
3, 81120, Note_on_c, 1, 60, 60
3, 81120, Note_on_c, 1, 62, 60
3, 81120, Note_on_c, 1, 57, 60
3, 81184, Note_off_c, 1, 60, 100
3, 81184, Note_off_c, 1, 62, 100
3, 81184, Note_off_c, 1, 57, 100
3, 81216, Note_on_c, 1, 59, 60
3, 81216, Note_on_c, 1, 62, 60
3, 81280, Note_off_c, 1, 59, 100
3, 81280, Note_off_c, 1, 62, 100
3, 81888, Note_on_c, 1, 54, 60
3, 81888, Note_on_c, 1, 57, 60
3, 81888, Note_on_c, 1, 62, 60
3, 81952, Note_off_c, 1, 54, 100
3, 81952, Note_off_c, 1, 57, 100
3, 81952, Note_off_c, 1, 62, 100
3, 81984, Note_on_c, 1, 54, 60
3, 81984, Note_on_c, 1, 57, 60
3, 81984, Note_on_c, 1, 62, 60
3, 82048, Note_off_c, 1, 54, 100
3, 82048, Note_off_c, 1, 57, 100
3, 82048, Note_off_c, 1, 62, 100
3, 82080, Note_on_c, 1, 54, 60
3, 82080, Note_on_c, 1, 57, 60
3, 82080, Note_on_c, 1, 62, 60
3, 82144, Note_off_c, 1, 54, 100
3, 82144, Note_off_c, 1, 57, 100
3, 82144, Note_off_c, 1, 62, 100
3, 82176, Note_on_c, 1, 54, 60
3, 82176, Note_on_c, 1, 57, 60
3, 82176, Note_on_c, 1, 62, 60
3, 82240, Note_off_c, 1, 54, 100
3, 82240, Note_off_c, 1, 57, 100
3, 82240, Note_off_c, 1, 62, 100
3, 82272, Note_on_c, 1, 54, 60
3, 82272, Note_on_c, 1, 57, 60
3, 82272, Note_on_c, 1, 62, 60
3, 82336, Note_off_c, 1, 54, 100
3, 82336, Note_off_c, 1, 57, 100
3, 82336, Note_off_c, 1, 62, 100
3, 82368, Note_on_c, 1, 55, 60
3, 82368, Note_on_c, 1, 62, 60
3, 82432, Note_off_c, 1, 55, 100
3, 82432, Note_off_c, 1, 62, 100
3, 82656, Note_on_c, 1, 59, 60
3, 82656, Note_on_c, 1, 62, 60
3, 82720, Note_off_c, 1, 59, 100
3, 82720, Note_off_c, 1, 62, 100
3, 85344, Note_on_c, 1, 57, 60
3, 85344, Note_on_c, 1, 62, 60
3, 85344, Note_on_c, 1, 60, 60
3, 85408, Note_off_c, 1, 57, 100
3, 85408, Note_off_c, 1, 62, 100
3, 85408, Note_off_c, 1, 60, 100
3, 85440, Note_on_c, 1, 62, 60
3, 85440, Note_on_c, 1, 60, 60
3, 85440, Note_on_c, 1, 57, 60
3, 85504, Note_off_c, 1, 62, 100
3, 85504, Note_off_c, 1, 60, 100
3, 85504, Note_off_c, 1, 57, 100
3, 85536, Note_on_c, 1, 60, 60
3, 85536, Note_on_c, 1, 57, 60
3, 85536, Note_on_c, 1, 62, 60
3, 85600, Note_off_c, 1, 60, 100
3, 85600, Note_off_c, 1, 57, 100
3, 85600, Note_off_c, 1, 62, 100
3, 85632, Note_on_c, 1, 57, 60
3, 85632, Note_on_c, 1, 60, 60
3, 85632, Note_on_c, 1, 62, 60
3, 85696, Note_off_c, 1, 57, 100
3, 85696, Note_off_c, 1, 60, 100
3, 85696, Note_off_c, 1, 62, 100
3, 85728, Note_on_c, 1, 62, 60
3, 85728, Note_on_c, 1, 57, 60
3, 85728, Note_on_c, 1, 60, 60
3, 85792, Note_off_c, 1, 62, 100
3, 85792, Note_off_c, 1, 57, 100
3, 85792, Note_off_c, 1, 60, 100
3, 85824, Note_on_c, 1, 59, 60
3, 85824, Note_on_c, 1, 62, 60
3, 85888, Note_off_c, 1, 59, 100
3, 85888, Note_off_c, 1, 62, 100
3, 86496, Note_on_c, 1, 54, 60
3, 86496, Note_on_c, 1, 57, 60
3, 86496, Note_on_c, 1, 62, 60
3, 86560, Note_off_c, 1, 54, 100
3, 86560, Note_off_c, 1, 57, 100
3, 86560, Note_off_c, 1, 62, 100
3, 86592, Note_on_c, 1, 57, 60
3, 86592, Note_on_c, 1, 62, 60
3, 86592, Note_on_c, 1, 54, 60
3, 86656, Note_off_c, 1, 57, 100
3, 86656, Note_off_c, 1, 62, 100
3, 86656, Note_off_c, 1, 54, 100
3, 86688, Note_on_c, 1, 57, 60
3, 86688, Note_on_c, 1, 62, 60
3, 86688, Note_on_c, 1, 54, 60
3, 86752, Note_off_c, 1, 57, 100
3, 86752, Note_off_c, 1, 62, 100
3, 86752, Note_off_c, 1, 54, 100
3, 86784, Note_on_c, 1, 54, 60
3, 86784, Note_on_c, 1, 57, 60
3, 86784, Note_on_c, 1, 62, 60
3, 86848, Note_off_c, 1, 54, 100
3, 86848, Note_off_c, 1, 57, 100
3, 86848, Note_off_c, 1, 62, 100
3, 86880, Note_on_c, 1, 54, 60
3, 86880, Note_on_c, 1, 57, 60
3, 86880, Note_on_c, 1, 62, 60
3, 86944, Note_off_c, 1, 54, 100
3, 86944, Note_off_c, 1, 57, 100
3, 86944, Note_off_c, 1, 62, 100
3, 86976, Note_on_c, 1, 55, 60
3, 86976, Note_on_c, 1, 62, 60
3, 87040, Note_off_c, 1, 55, 100
3, 87040, Note_off_c, 1, 62, 100
3, 87264, Note_on_c, 1, 59, 60
3, 87264, Note_on_c, 1, 62, 60
3, 87328, Note_off_c, 1, 59, 100
3, 87328, Note_off_c, 1, 62, 100
3, 87552, Note_on_c, 1, 55, 60
3, 87552, Note_on_c, 1, 49, 60
3, 87616, Note_off_c, 1, 55, 100
3, 87616, Note_off_c, 1, 49, 100
3, 87840, Note_on_c, 1, 55, 60
3, 87840, Note_on_c, 1, 52, 60
3, 87904, Note_off_c, 1, 55, 100
3, 87904, Note_off_c, 1, 52, 100
3, 88128, Note_on_c, 1, 62, 60
3, 88128, Note_on_c, 1, 50, 60
3, 88512, Note_off_c, 1, 62, 100
3, 88512, Note_off_c, 1, 50, 100
3, 88704, Note_on_c, 1, 55, 60
3, 88768, Note_off_c, 1, 55, 100
3, 88896, Note_on_c, 1, 47, 90
3, 88928, Note_off_c, 1, 47, 100
3, 88944, Note_on_c, 1, 50, 90
3, 88976, Note_off_c, 1, 50, 100
3, 88992, Note_on_c, 1, 55, 90
3, 89056, Note_off_c, 1, 55, 100
3, 89184, Note_on_c, 1, 50, 90
3, 89216, Note_off_c, 1, 50, 100
3, 89232, Note_on_c, 1, 55, 90
3, 89264, Note_off_c, 1, 55, 100
3, 89280, Note_on_c, 1, 59, 90
3, 89344, Note_off_c, 1, 59, 100
3, 89472, Note_on_c, 1, 55, 90
3, 89504, Note_off_c, 1, 55, 100
3, 89520, Note_on_c, 1, 59, 90
3, 89552, Note_off_c, 1, 59, 100
3, 89568, Note_on_c, 1, 62, 90
3, 89632, Note_off_c, 1, 62, 100
3, 89760, Note_on_c, 1, 59, 90
3, 89792, Note_off_c, 1, 59, 100
3, 89808, Note_on_c, 1, 62, 90
3, 89840, Note_off_c, 1, 62, 100
3, 89856, Note_on_c, 1, 67, 90
3, 89920, Note_off_c, 1, 67, 100
3, 95328, Note_on_c, 1, 52, 60
3, 95328, Note_on_c, 1, 59, 60
3, 95328, Note_on_c, 1, 62, 60
3, 95520, Note_off_c, 1, 52, 100
3, 95520, Note_off_c, 1, 59, 100
3, 95520, Note_off_c, 1, 62, 100
3, 95616, Note_on_c, 1, 57, 60
3, 95616, Note_on_c, 1, 61, 60
3, 95680, Note_off_c, 1, 57, 100
3, 95680, Note_off_c, 1, 61, 100
3, 96480, Note_on_c, 1, 52, 60
3, 96480, Note_on_c, 1, 59, 60
3, 96480, Note_on_c, 1, 62, 60
3, 96672, Note_off_c, 1, 52, 100
3, 96672, Note_off_c, 1, 59, 100
3, 96672, Note_off_c, 1, 62, 100
3, 96768, Note_on_c, 1, 57, 45
3, 96768, Note_on_c, 1, 45, 45
3, 96832, Note_off_c, 1, 57, 100
3, 96832, Note_off_c, 1, 45, 100
3, 96864, Note_on_c, 1, 57, 45
3, 96864, Note_on_c, 1, 45, 45
3, 96928, Note_off_c, 1, 57, 100
3, 96928, Note_off_c, 1, 45, 100
3, 96960, Note_on_c, 1, 57, 45
3, 96960, Note_on_c, 1, 45, 45
3, 97024, Note_off_c, 1, 57, 100
3, 97024, Note_off_c, 1, 45, 100
3, 97056, Note_on_c, 1, 45, 45
3, 97056, Note_on_c, 1, 57, 45
3, 97120, Note_off_c, 1, 45, 100
3, 97120, Note_off_c, 1, 57, 100
3, 97152, Note_on_c, 1, 45, 45
3, 97152, Note_on_c, 1, 57, 45
3, 97216, Note_off_c, 1, 45, 100
3, 97216, Note_off_c, 1, 57, 100
3, 97248, Note_on_c, 1, 45, 45
3, 97248, Note_on_c, 1, 57, 45
3, 97312, Note_off_c, 1, 45, 100
3, 97312, Note_off_c, 1, 57, 100
3, 97344, Note_on_c, 1, 55, 52
3, 97344, Note_on_c, 1, 45, 52
3, 97408, Note_off_c, 1, 55, 100
3, 97408, Note_off_c, 1, 45, 100
3, 97440, Note_on_c, 1, 55, 58
3, 97440, Note_on_c, 1, 45, 58
3, 97504, Note_off_c, 1, 55, 100
3, 97504, Note_off_c, 1, 45, 100
3, 97536, Note_on_c, 1, 55, 63
3, 97536, Note_on_c, 1, 45, 63
3, 97600, Note_off_c, 1, 55, 100
3, 97600, Note_off_c, 1, 45, 100
3, 97632, Note_on_c, 1, 55, 66
3, 97632, Note_on_c, 1, 45, 66
3, 97696, Note_off_c, 1, 55, 100
3, 97696, Note_off_c, 1, 45, 100
3, 97728, Note_on_c, 1, 55, 69
3, 97728, Note_on_c, 1, 45, 69
3, 97792, Note_off_c, 1, 55, 100
3, 97792, Note_off_c, 1, 45, 100
3, 97824, Note_on_c, 1, 55, 72
3, 97824, Note_on_c, 1, 45, 72
3, 97888, Note_off_c, 1, 55, 100
3, 97888, Note_off_c, 1, 45, 100
3, 97920, Note_on_c, 1, 55, 75
3, 97920, Note_on_c, 1, 45, 75
3, 97984, Note_off_c, 1, 55, 100
3, 97984, Note_off_c, 1, 45, 100
3, 98016, Note_on_c, 1, 55, 78
3, 98016, Note_on_c, 1, 45, 78
3, 98080, Note_off_c, 1, 55, 100
3, 98080, Note_off_c, 1, 45, 100
3, 98112, Note_on_c, 1, 55, 81
3, 98112, Note_on_c, 1, 45, 81
3, 98176, Note_off_c, 1, 55, 100
3, 98176, Note_off_c, 1, 45, 100
3, 98208, Note_on_c, 1, 54, 84
3, 98208, Note_on_c, 1, 45, 84
3, 98272, Note_off_c, 1, 54, 100
3, 98272, Note_off_c, 1, 45, 100
3, 98304, Note_on_c, 1, 54, 87
3, 98304, Note_on_c, 1, 45, 87
3, 98368, Note_off_c, 1, 54, 100
3, 98368, Note_off_c, 1, 45, 100
3, 98400, Note_on_c, 1, 45, 88
3, 98400, Note_on_c, 1, 54, 88
3, 98464, Note_off_c, 1, 45, 100
3, 98464, Note_off_c, 1, 54, 100
3, 98496, Note_on_c, 1, 52, 90
3, 98496, Note_on_c, 1, 45, 90
3, 98560, Note_off_c, 1, 52, 100
3, 98560, Note_off_c, 1, 45, 100
3, 98592, Note_on_c, 1, 52, 90
3, 98592, Note_on_c, 1, 45, 90
3, 98656, Note_off_c, 1, 52, 100
3, 98656, Note_off_c, 1, 45, 100
3, 98688, Note_on_c, 1, 52, 90
3, 98688, Note_on_c, 1, 45, 90
3, 98752, Note_off_c, 1, 52, 100
3, 98752, Note_off_c, 1, 45, 100
3, 98784, Note_on_c, 1, 50, 90
3, 98784, Note_on_c, 1, 45, 90
3, 98848, Note_off_c, 1, 50, 100
3, 98848, Note_off_c, 1, 45, 100
3, 98880, Note_on_c, 1, 45, 90
3, 98880, Note_on_c, 1, 50, 90
3, 98944, Note_off_c, 1, 45, 100
3, 98944, Note_off_c, 1, 50, 100
3, 98976, Note_on_c, 1, 50, 90
3, 98976, Note_on_c, 1, 45, 90
3, 99040, Note_off_c, 1, 50, 100
3, 99040, Note_off_c, 1, 45, 100
3, 99072, Note_on_c, 1, 57, 97
3, 99072, Note_on_c, 1, 52, 97
3, 99072, Note_on_c, 1, 49, 97
3, 99072, Note_on_c, 1, 45, 97
3, 99456, Note_off_c, 1, 57, 100
3, 99456, Note_off_c, 1, 52, 100
3, 99456, Note_off_c, 1, 49, 100
3, 99456, Note_off_c, 1, 45, 100
3, 106272, Note_on_c, 1, 50, 90
3, 106336, Note_off_c, 1, 50, 100
3, 106368, Note_on_c, 1, 62, 90
3, 106432, Note_off_c, 1, 62, 100
3, 106464, Note_on_c, 1, 64, 90
3, 106528, Note_off_c, 1, 64, 100
3, 106560, Note_on_c, 1, 66, 90
3, 106624, Note_off_c, 1, 66, 100
3, 106848, Note_on_c, 1, 50, 90
3, 106912, Note_off_c, 1, 50, 100
3, 106944, Note_on_c, 1, 62, 90
3, 107008, Note_off_c, 1, 62, 100
3, 107040, Note_on_c, 1, 64, 90
3, 107104, Note_off_c, 1, 64, 100
3, 107136, Note_on_c, 1, 66, 90
3, 107200, Note_off_c, 1, 66, 100
3, 107424, Note_on_c, 1, 55, 90
3, 107488, Note_off_c, 1, 55, 100
3, 107520, Note_on_c, 1, 67, 90
3, 107584, Note_off_c, 1, 67, 100
3, 107616, Note_on_c, 1, 64, 90
3, 107680, Note_off_c, 1, 64, 100
3, 107712, Note_on_c, 1, 54, 90
3, 107712, Note_on_c, 1, 66, 90
3, 107776, Note_off_c, 1, 54, 100
3, 107776, Note_off_c, 1, 66, 100
3, 108000, Note_on_c, 1, 67, 90
3, 108000, Note_on_c, 1, 55, 90
3, 108064, Note_off_c, 1, 67, 100
3, 108064, Note_off_c, 1, 55, 100
3, 108288, Note_on_c, 1, 69, 90
3, 108288, Note_on_c, 1, 57, 90
3, 108320, Note_off_c, 1, 69, 100
3, 108320, Note_off_c, 1, 57, 100
3, 108864, Note_on_c, 1, 54, 60
3, 108864, Note_on_c, 1, 50, 60
3, 109056, Note_off_c, 1, 54, 100
3, 109056, Note_off_c, 1, 50, 100
3, 109152, Note_on_c, 1, 55, 60
3, 109152, Note_on_c, 1, 47, 60
3, 109344, Note_off_c, 1, 55, 100
3, 109344, Note_off_c, 1, 47, 100
3, 109440, Note_on_c, 1, 57, 60
3, 109440, Note_on_c, 1, 45, 60
3, 109632, Note_off_c, 1, 57, 100
3, 109632, Note_off_c, 1, 45, 100
3, 110016, Note_on_c, 1, 52, 60
3, 110016, Note_on_c, 1, 45, 60
3, 110208, Note_off_c, 1, 52, 100
3, 110208, Note_off_c, 1, 45, 100
3, 110304, Note_on_c, 1, 52, 60
3, 110304, Note_on_c, 1, 49, 60
3, 110496, Note_off_c, 1, 52, 100
3, 110496, Note_off_c, 1, 49, 100
3, 110592, Note_on_c, 1, 57, 60
3, 110592, Note_on_c, 1, 50, 60
3, 110784, Note_off_c, 1, 57, 100
3, 110784, Note_off_c, 1, 50, 100
3, 110880, Note_on_c, 1, 50, 90
3, 110944, Note_off_c, 1, 50, 100
3, 110976, Note_on_c, 1, 62, 90
3, 111040, Note_off_c, 1, 62, 100
3, 111072, Note_on_c, 1, 64, 90
3, 111136, Note_off_c, 1, 64, 100
3, 111168, Note_on_c, 1, 66, 90
3, 111232, Note_off_c, 1, 66, 100
3, 111456, Note_on_c, 1, 43, 90
3, 111520, Note_off_c, 1, 43, 100
3, 111552, Note_on_c, 1, 55, 90
3, 111616, Note_off_c, 1, 55, 100
3, 111648, Note_on_c, 1, 57, 90
3, 111712, Note_off_c, 1, 57, 100
3, 111744, Note_on_c, 1, 59, 90
3, 111808, Note_off_c, 1, 59, 100
3, 112032, Note_on_c, 1, 55, 90
3, 112032, Note_on_c, 1, 59, 90
3, 112032, Note_on_c, 1, 64, 90
3, 112096, Note_off_c, 1, 55, 100
3, 112096, Note_off_c, 1, 59, 100
3, 112096, Note_off_c, 1, 64, 100
3, 112320, Note_on_c, 1, 57, 90
3, 112320, Note_on_c, 1, 62, 90
3, 112320, Note_on_c, 1, 66, 90
3, 112384, Note_off_c, 1, 57, 100
3, 112384, Note_off_c, 1, 62, 100
3, 112384, Note_off_c, 1, 66, 100
3, 112608, Note_on_c, 1, 57, 90
3, 112608, Note_on_c, 1, 64, 90
3, 112608, Note_on_c, 1, 67, 90
3, 112672, Note_off_c, 1, 57, 100
3, 112672, Note_off_c, 1, 64, 100
3, 112672, Note_off_c, 1, 67, 100
3, 112896, Note_on_c, 1, 62, 90
3, 112896, Note_on_c, 1, 66, 90
3, 112960, Note_off_c, 1, 62, 100
3, 112960, Note_off_c, 1, 66, 100
3, 113280, Note_on_c, 1, 50, 90
3, 113280, Note_on_c, 1, 38, 90
3, 113344, Note_off_c, 1, 50, 100
3, 113344, Note_off_c, 1, 38, 100
3, 113376, Note_on_c, 1, 50, 90
3, 113376, Note_on_c, 1, 38, 90
3, 113440, Note_off_c, 1, 50, 100
3, 113440, Note_off_c, 1, 38, 100
3, 113544, Note_on_c, 1, 50, 90
3, 113544, Note_on_c, 1, 38, 90
3, 113640, Note_off_c, 1, 50, 100
3, 113640, Note_off_c, 1, 38, 100
3, 113664, Note_on_c, 1, 50, 90
3, 113664, Note_on_c, 1, 38, 90
3, 113728, Note_off_c, 1, 50, 100
3, 113728, Note_off_c, 1, 38, 100
3, 113832, Note_on_c, 1, 50, 90
3, 113832, Note_on_c, 1, 38, 90
3, 113928, Note_off_c, 1, 50, 100
3, 113928, Note_off_c, 1, 38, 100
3, 113952, Note_on_c, 1, 50, 90
3, 113952, Note_on_c, 1, 38, 90
3, 114016, Note_off_c, 1, 50, 100
3, 114016, Note_off_c, 1, 38, 100
3, 114048, Note_on_c, 1, 48, 90
3, 114048, Note_on_c, 1, 36, 90
3, 114176, Note_off_c, 1, 48, 100
3, 114176, Note_off_c, 1, 36, 100
3, 115584, Note_on_c, 1, 47, 60
3, 115584, Note_on_c, 1, 35, 60
3, 115648, Note_off_c, 1, 47, 100
3, 115648, Note_off_c, 1, 35, 100
3, 115680, Note_on_c, 1, 47, 60
3, 115680, Note_on_c, 1, 35, 60
3, 115744, Note_off_c, 1, 47, 100
3, 115744, Note_off_c, 1, 35, 100
3, 115848, Note_on_c, 1, 45, 60
3, 115848, Note_on_c, 1, 33, 60
3, 115944, Note_off_c, 1, 45, 100
3, 115944, Note_off_c, 1, 33, 100
3, 115968, Note_on_c, 1, 45, 60
3, 115968, Note_on_c, 1, 33, 60
3, 116032, Note_off_c, 1, 45, 100
3, 116032, Note_off_c, 1, 33, 100
3, 116136, Note_on_c, 1, 43, 60
3, 116136, Note_on_c, 1, 31, 60
3, 116232, Note_off_c, 1, 43, 100
3, 116232, Note_off_c, 1, 31, 100
3, 116256, Note_on_c, 1, 43, 60
3, 116256, Note_on_c, 1, 31, 60
3, 116320, Note_off_c, 1, 43, 100
3, 116320, Note_off_c, 1, 31, 100
3, 116352, Note_on_c, 1, 42, 60
3, 116352, Note_on_c, 1, 30, 60
3, 116480, Note_off_c, 1, 42, 100
3, 116480, Note_off_c, 1, 30, 100
3, 116928, Note_on_c, 1, 54, 90
3, 116992, Note_off_c, 1, 54, 100
3, 117024, Note_on_c, 1, 57, 90
3, 117088, Note_off_c, 1, 57, 100
3, 117120, Note_on_c, 1, 62, 90
3, 117184, Note_off_c, 1, 62, 100
3, 117216, Note_on_c, 1, 54, 90
3, 117280, Note_off_c, 1, 54, 100
3, 117312, Note_on_c, 1, 57, 90
3, 117376, Note_off_c, 1, 57, 100
3, 117408, Note_on_c, 1, 62, 90
3, 117472, Note_off_c, 1, 62, 100
3, 117504, Note_on_c, 1, 55, 90
3, 117568, Note_off_c, 1, 55, 100
3, 117600, Note_on_c, 1, 59, 90
3, 117664, Note_off_c, 1, 59, 100
3, 117696, Note_on_c, 1, 62, 90
3, 117760, Note_off_c, 1, 62, 100
3, 117792, Note_on_c, 1, 55, 90
3, 117856, Note_off_c, 1, 55, 100
3, 117888, Note_on_c, 1, 59, 90
3, 117952, Note_off_c, 1, 59, 100
3, 117984, Note_on_c, 1, 62, 90
3, 118048, Note_off_c, 1, 62, 100
3, 118080, Note_on_c, 1, 54, 90
3, 118144, Note_off_c, 1, 54, 100
3, 118176, Note_on_c, 1, 57, 90
3, 118240, Note_off_c, 1, 57, 100
3, 118272, Note_on_c, 1, 62, 90
3, 118336, Note_off_c, 1, 62, 100
3, 118368, Note_on_c, 1, 54, 90
3, 118432, Note_off_c, 1, 54, 100
3, 118464, Note_on_c, 1, 57, 90
3, 118528, Note_off_c, 1, 57, 100
3, 118560, Note_on_c, 1, 62, 90
3, 118624, Note_off_c, 1, 62, 100
3, 118656, Note_on_c, 1, 55, 90
3, 118720, Note_off_c, 1, 55, 100
3, 118752, Note_on_c, 1, 59, 90
3, 118816, Note_off_c, 1, 59, 100
3, 118848, Note_on_c, 1, 62, 90
3, 118912, Note_off_c, 1, 62, 100
3, 118944, Note_on_c, 1, 55, 90
3, 119008, Note_off_c, 1, 55, 100
3, 119040, Note_on_c, 1, 59, 90
3, 119104, Note_off_c, 1, 59, 100
3, 119136, Note_on_c, 1, 62, 90
3, 119200, Note_off_c, 1, 62, 100
3, 119232, Note_on_c, 1, 51, 90
3, 119296, Note_off_c, 1, 51, 100
3, 119328, Note_on_c, 1, 54, 90
3, 119392, Note_off_c, 1, 54, 100
3, 119424, Note_on_c, 1, 59, 90
3, 119488, Note_off_c, 1, 59, 100
3, 119520, Note_on_c, 1, 51, 90
3, 119584, Note_off_c, 1, 51, 100
3, 119616, Note_on_c, 1, 54, 90
3, 119680, Note_off_c, 1, 54, 100
3, 119712, Note_on_c, 1, 59, 90
3, 119776, Note_off_c, 1, 59, 100
3, 119808, Note_on_c, 1, 52, 90
3, 119872, Note_off_c, 1, 52, 100
3, 119904, Note_on_c, 1, 55, 90
3, 119968, Note_off_c, 1, 55, 100
3, 120000, Note_on_c, 1, 59, 90
3, 120064, Note_off_c, 1, 59, 100
3, 120096, Note_on_c, 1, 52, 90
3, 120160, Note_off_c, 1, 52, 100
3, 120192, Note_on_c, 1, 55, 90
3, 120256, Note_off_c, 1, 55, 100
3, 120288, Note_on_c, 1, 59, 90
3, 120352, Note_off_c, 1, 59, 100
3, 120384, Note_on_c, 1, 50, 90
3, 120448, Note_off_c, 1, 50, 100
3, 120480, Note_on_c, 1, 52, 90
3, 120544, Note_off_c, 1, 52, 100
3, 120576, Note_on_c, 1, 57, 90
3, 120640, Note_off_c, 1, 57, 100
3, 120672, Note_on_c, 1, 49, 90
3, 120736, Note_off_c, 1, 49, 100
3, 120768, Note_on_c, 1, 52, 90
3, 120832, Note_off_c, 1, 52, 100
3, 120864, Note_on_c, 1, 57, 90
3, 120928, Note_off_c, 1, 57, 100
3, 120960, Note_on_c, 1, 50, 90
3, 121024, Note_off_c, 1, 50, 100
3, 121056, Note_on_c, 1, 54, 90
3, 121120, Note_off_c, 1, 54, 100
3, 121152, Note_on_c, 1, 57, 90
3, 121216, Note_off_c, 1, 57, 100
3, 121248, Note_on_c, 1, 50, 90
3, 121312, Note_off_c, 1, 50, 100
3, 121344, Note_on_c, 1, 54, 90
3, 121408, Note_off_c, 1, 54, 100
3, 121440, Note_on_c, 1, 57, 90
3, 121504, Note_off_c, 1, 57, 100
3, 121536, Note_on_c, 1, 55, 90
3, 121728, Note_off_c, 1, 55, 100
3, 121824, Note_on_c, 1, 67, 90
3, 121856, Note_off_c, 1, 67, 100
3, 121872, Note_on_c, 1, 66, 90
3, 121904, Note_off_c, 1, 66, 100
3, 121920, Note_on_c, 1, 64, 90
3, 121952, Note_off_c, 1, 64, 100
3, 121968, Note_on_c, 1, 62, 90
3, 122000, Note_off_c, 1, 62, 100
3, 122016, Note_on_c, 1, 61, 90
3, 122048, Note_off_c, 1, 61, 100
3, 122064, Note_on_c, 1, 59, 90
3, 122096, Note_off_c, 1, 59, 100
3, 122112, Note_on_c, 1, 57, 90
3, 122176, Note_off_c, 1, 57, 100
3, 122208, Note_on_c, 1, 57, 90
3, 122208, Note_on_c, 1, 45, 90
3, 122272, Note_off_c, 1, 57, 100
3, 122272, Note_off_c, 1, 45, 100
3, 122304, Note_on_c, 1, 57, 90
3, 122304, Note_on_c, 1, 45, 90
3, 122368, Note_off_c, 1, 57, 100
3, 122368, Note_off_c, 1, 45, 100
3, 122400, Note_on_c, 1, 57, 90
3, 122400, Note_on_c, 1, 45, 90
3, 122464, Note_off_c, 1, 57, 100
3, 122464, Note_off_c, 1, 45, 100
3, 123264, Note_on_c, 1, 62, 60
3, 123456, Note_off_c, 1, 62, 100
3, 123552, Note_on_c, 1, 61, 60
3, 123616, Note_off_c, 1, 61, 100
3, 123648, Note_on_c, 1, 62, 60
3, 123712, Note_off_c, 1, 62, 100
3, 123744, Note_on_c, 1, 61, 60
3, 123808, Note_off_c, 1, 61, 100
3, 123840, Note_on_c, 1, 59, 60
3, 124032, Note_off_c, 1, 59, 100
3, 124128, Note_on_c, 1, 59, 60
3, 124256, Note_off_c, 1, 59, 100
3, 124320, Note_on_c, 1, 55, 60
3, 124384, Note_off_c, 1, 55, 100
3, 124416, Note_on_c, 1, 57, 60
3, 124480, Note_off_c, 1, 57, 100
3, 124512, Note_on_c, 1, 59, 60
3, 124576, Note_off_c, 1, 59, 100
3, 124608, Note_on_c, 1, 61, 60
3, 124672, Note_off_c, 1, 61, 100
3, 124704, Note_on_c, 1, 62, 60
3, 124768, Note_off_c, 1, 62, 100
3, 124800, Note_on_c, 1, 64, 60
3, 124864, Note_off_c, 1, 64, 100
3, 124896, Note_on_c, 1, 66, 60
3, 124960, Note_off_c, 1, 66, 100
3, 127872, Note_on_c, 1, 59, 60
3, 128064, Note_off_c, 1, 59, 100
3, 128160, Note_on_c, 1, 57, 60
3, 128224, Note_off_c, 1, 57, 100
3, 128256, Note_on_c, 1, 59, 60
3, 128320, Note_off_c, 1, 59, 100
3, 128352, Note_on_c, 1, 57, 60
3, 128416, Note_off_c, 1, 57, 100
3, 128448, Note_on_c, 1, 55, 60
3, 128576, Note_off_c, 1, 55, 100
3, 128640, Note_on_c, 1, 54, 60
3, 128704, Note_off_c, 1, 54, 100
3, 128736, Note_on_c, 1, 52, 60
3, 128864, Note_off_c, 1, 52, 100
3, 128928, Note_on_c, 1, 50, 60
3, 128992, Note_off_c, 1, 50, 100
3, 129024, Note_on_c, 1, 49, 60
3, 129152, Note_off_c, 1, 49, 100
3, 129216, Note_on_c, 1, 45, 60
3, 129280, Note_off_c, 1, 45, 100
3, 129312, Note_on_c, 1, 50, 60
3, 129376, Note_off_c, 1, 50, 100
3, 129408, Note_on_c, 1, 52, 60
3, 129472, Note_off_c, 1, 52, 100
3, 129504, Note_on_c, 1, 54, 60
3, 129568, Note_off_c, 1, 54, 100
3, 129600, Note_on_c, 1, 62, 60
3, 129600, Note_on_c, 1, 59, 60
3, 129600, Note_on_c, 1, 55, 60
3, 129792, Note_off_c, 1, 55, 100
3, 129888, Note_on_c, 1, 56, 60
3, 129984, Note_off_c, 1, 62, 100
3, 129984, Note_off_c, 1, 59, 100
3, 130080, Note_off_c, 1, 56, 100
3, 130176, Note_on_c, 1, 61, 60
3, 130176, Note_on_c, 1, 57, 60
3, 130176, Note_on_c, 1, 55, 60
3, 130368, Note_off_c, 1, 61, 100
3, 130368, Note_off_c, 1, 57, 100
3, 130368, Note_off_c, 1, 55, 100
3, 130464, Note_on_c, 1, 57, 60
3, 130464, Note_on_c, 1, 60, 60
3, 130464, Note_on_c, 1, 54, 60
3, 130656, Note_off_c, 1, 57, 100
3, 130656, Note_off_c, 1, 60, 100
3, 130656, Note_off_c, 1, 54, 100
3, 130752, Note_on_c, 1, 55, 60
3, 130752, Note_on_c, 1, 59, 60
3, 130816, Note_off_c, 1, 55, 100
3, 130816, Note_off_c, 1, 59, 100
3, 131040, Note_on_c, 1, 57, 60
3, 131104, Note_off_c, 1, 57, 100
3, 131328, Note_on_c, 1, 50, 60
3, 131360, Note_off_c, 1, 50, 100
3, 131376, Note_on_c, 1, 57, 60
3, 131408, Note_off_c, 1, 57, 100
3, 131424, Note_on_c, 1, 54, 60
3, 131456, Note_off_c, 1, 54, 100
3, 131472, Note_on_c, 1, 57, 60
3, 131504, Note_off_c, 1, 57, 100
3, 131520, Note_on_c, 1, 54, 60
3, 131552, Note_off_c, 1, 54, 100
3, 131568, Note_on_c, 1, 57, 60
3, 131600, Note_off_c, 1, 57, 100
3, 131616, Note_on_c, 1, 50, 60
3, 131648, Note_off_c, 1, 50, 100
3, 131664, Note_on_c, 1, 57, 60
3, 131696, Note_off_c, 1, 57, 100
3, 131712, Note_on_c, 1, 54, 60
3, 131744, Note_off_c, 1, 54, 100
3, 131760, Note_on_c, 1, 57, 60
3, 131792, Note_off_c, 1, 57, 100
3, 131808, Note_on_c, 1, 54, 60
3, 131840, Note_off_c, 1, 54, 100
3, 131856, Note_on_c, 1, 57, 60
3, 131888, Note_off_c, 1, 57, 100
3, 131904, Note_on_c, 1, 52, 60
3, 131936, Note_off_c, 1, 52, 100
3, 131952, Note_on_c, 1, 57, 60
3, 131984, Note_off_c, 1, 57, 100
3, 132000, Note_on_c, 1, 55, 60
3, 132032, Note_off_c, 1, 55, 100
3, 132048, Note_on_c, 1, 57, 60
3, 132080, Note_off_c, 1, 57, 100
3, 132096, Note_on_c, 1, 55, 60
3, 132128, Note_off_c, 1, 55, 100
3, 132144, Note_on_c, 1, 57, 60
3, 132176, Note_off_c, 1, 57, 100
3, 132192, Note_on_c, 1, 49, 60
3, 132224, Note_off_c, 1, 49, 100
3, 132240, Note_on_c, 1, 57, 60
3, 132272, Note_off_c, 1, 57, 100
3, 132288, Note_on_c, 1, 52, 60
3, 132320, Note_off_c, 1, 52, 100
3, 132336, Note_on_c, 1, 57, 60
3, 132368, Note_off_c, 1, 57, 100
3, 132384, Note_on_c, 1, 52, 60
3, 132416, Note_off_c, 1, 52, 100
3, 132432, Note_on_c, 1, 57, 60
3, 132464, Note_off_c, 1, 57, 100
3, 132480, Note_on_c, 1, 50, 82
3, 132512, Note_off_c, 1, 50, 100
3, 132528, Note_on_c, 1, 57, 82
3, 132560, Note_off_c, 1, 57, 100
3, 132576, Note_on_c, 1, 54, 82
3, 132608, Note_off_c, 1, 54, 100
3, 132624, Note_on_c, 1, 57, 82
3, 132656, Note_off_c, 1, 57, 100
3, 132672, Note_on_c, 1, 54, 82
3, 132704, Note_off_c, 1, 54, 100
3, 132720, Note_on_c, 1, 57, 82
3, 132752, Note_off_c, 1, 57, 100
3, 132768, Note_on_c, 1, 50, 82
3, 132800, Note_off_c, 1, 50, 100
3, 132816, Note_on_c, 1, 57, 82
3, 132848, Note_off_c, 1, 57, 100
3, 132864, Note_on_c, 1, 54, 82
3, 132896, Note_off_c, 1, 54, 100
3, 132912, Note_on_c, 1, 57, 82
3, 132944, Note_off_c, 1, 57, 100
3, 132960, Note_on_c, 1, 54, 82
3, 132992, Note_off_c, 1, 54, 100
3, 133008, Note_on_c, 1, 57, 82
3, 133040, Note_off_c, 1, 57, 100
3, 133056, Note_on_c, 1, 52, 90
3, 133088, Note_off_c, 1, 52, 100
3, 133104, Note_on_c, 1, 57, 90
3, 133136, Note_off_c, 1, 57, 100
3, 133152, Note_on_c, 1, 55, 90
3, 133184, Note_off_c, 1, 55, 100
3, 133200, Note_on_c, 1, 57, 90
3, 133232, Note_off_c, 1, 57, 100
3, 133248, Note_on_c, 1, 55, 90
3, 133280, Note_off_c, 1, 55, 100
3, 133296, Note_on_c, 1, 57, 90
3, 133328, Note_off_c, 1, 57, 100
3, 133344, Note_on_c, 1, 49, 90
3, 133376, Note_off_c, 1, 49, 100
3, 133392, Note_on_c, 1, 57, 90
3, 133424, Note_off_c, 1, 57, 100
3, 133440, Note_on_c, 1, 52, 90
3, 133472, Note_off_c, 1, 52, 100
3, 133488, Note_on_c, 1, 57, 90
3, 133520, Note_off_c, 1, 57, 100
3, 133536, Note_on_c, 1, 52, 90
3, 133568, Note_off_c, 1, 52, 100
3, 133584, Note_on_c, 1, 57, 90
3, 133616, Note_off_c, 1, 57, 100
3, 133632, Note_on_c, 1, 50, 82
3, 133664, Note_off_c, 1, 50, 100
3, 133680, Note_on_c, 1, 57, 82
3, 133712, Note_off_c, 1, 57, 100
3, 133728, Note_on_c, 1, 54, 82
3, 133760, Note_off_c, 1, 54, 100
3, 133776, Note_on_c, 1, 57, 82
3, 133808, Note_off_c, 1, 57, 100
3, 133824, Note_on_c, 1, 54, 82
3, 133856, Note_off_c, 1, 54, 100
3, 133872, Note_on_c, 1, 57, 82
3, 133904, Note_off_c, 1, 57, 100
3, 133920, Note_on_c, 1, 50, 82
3, 133952, Note_off_c, 1, 50, 100
3, 133968, Note_on_c, 1, 57, 82
3, 134000, Note_off_c, 1, 57, 100
3, 134016, Note_on_c, 1, 54, 82
3, 134048, Note_off_c, 1, 54, 100
3, 134064, Note_on_c, 1, 57, 82
3, 134096, Note_off_c, 1, 57, 100
3, 134112, Note_on_c, 1, 54, 82
3, 134144, Note_off_c, 1, 54, 100
3, 134160, Note_on_c, 1, 57, 82
3, 134192, Note_off_c, 1, 57, 100
3, 134208, Note_on_c, 1, 55, 60
3, 134272, Note_off_c, 1, 55, 100
3, 135936, Note_on_c, 1, 50, 90
3, 135968, Note_off_c, 1, 50, 100
3, 135984, Note_on_c, 1, 57, 90
3, 136016, Note_off_c, 1, 57, 100
3, 136032, Note_on_c, 1, 54, 90
3, 136064, Note_off_c, 1, 54, 100
3, 136080, Note_on_c, 1, 57, 90
3, 136112, Note_off_c, 1, 57, 100
3, 136128, Note_on_c, 1, 54, 90
3, 136160, Note_off_c, 1, 54, 100
3, 136176, Note_on_c, 1, 57, 90
3, 136208, Note_off_c, 1, 57, 100
3, 136224, Note_on_c, 1, 50, 90
3, 136256, Note_off_c, 1, 50, 100
3, 136272, Note_on_c, 1, 57, 90
3, 136304, Note_off_c, 1, 57, 100
3, 136320, Note_on_c, 1, 54, 90
3, 136352, Note_off_c, 1, 54, 100
3, 136368, Note_on_c, 1, 57, 90
3, 136400, Note_off_c, 1, 57, 100
3, 136416, Note_on_c, 1, 54, 90
3, 136448, Note_off_c, 1, 54, 100
3, 136464, Note_on_c, 1, 57, 90
3, 136496, Note_off_c, 1, 57, 100
3, 136512, Note_on_c, 1, 52, 90
3, 136544, Note_off_c, 1, 52, 100
3, 136560, Note_on_c, 1, 57, 90
3, 136592, Note_off_c, 1, 57, 100
3, 136608, Note_on_c, 1, 55, 90
3, 136640, Note_off_c, 1, 55, 100
3, 136656, Note_on_c, 1, 57, 90
3, 136688, Note_off_c, 1, 57, 100
3, 136704, Note_on_c, 1, 55, 90
3, 136736, Note_off_c, 1, 55, 100
3, 136752, Note_on_c, 1, 57, 90
3, 136784, Note_off_c, 1, 57, 100
3, 136800, Note_on_c, 1, 49, 90
3, 136832, Note_off_c, 1, 49, 100
3, 136848, Note_on_c, 1, 57, 90
3, 136880, Note_off_c, 1, 57, 100
3, 136896, Note_on_c, 1, 52, 90
3, 136928, Note_off_c, 1, 52, 100
3, 136944, Note_on_c, 1, 57, 90
3, 136976, Note_off_c, 1, 57, 100
3, 136992, Note_on_c, 1, 52, 90
3, 137024, Note_off_c, 1, 52, 100
3, 137040, Note_on_c, 1, 57, 90
3, 137072, Note_off_c, 1, 57, 100
3, 137088, Note_on_c, 1, 50, 82
3, 137120, Note_off_c, 1, 50, 100
3, 137136, Note_on_c, 1, 57, 82
3, 137168, Note_off_c, 1, 57, 100
3, 137184, Note_on_c, 1, 54, 82
3, 137216, Note_off_c, 1, 54, 100
3, 137232, Note_on_c, 1, 57, 82
3, 137264, Note_off_c, 1, 57, 100
3, 137280, Note_on_c, 1, 54, 82
3, 137312, Note_off_c, 1, 54, 100
3, 137328, Note_on_c, 1, 57, 82
3, 137360, Note_off_c, 1, 57, 100
3, 137376, Note_on_c, 1, 50, 82
3, 137408, Note_off_c, 1, 50, 100
3, 137424, Note_on_c, 1, 57, 82
3, 137456, Note_off_c, 1, 57, 100
3, 137472, Note_on_c, 1, 54, 82
3, 137504, Note_off_c, 1, 54, 100
3, 137520, Note_on_c, 1, 57, 82
3, 137552, Note_off_c, 1, 57, 100
3, 137568, Note_on_c, 1, 54, 82
3, 137600, Note_off_c, 1, 54, 100
3, 137616, Note_on_c, 1, 57, 82
3, 137648, Note_off_c, 1, 57, 100
3, 137664, Note_on_c, 1, 52, 60
3, 137696, Note_off_c, 1, 52, 100
3, 137712, Note_on_c, 1, 57, 60
3, 137744, Note_off_c, 1, 57, 100
3, 137760, Note_on_c, 1, 55, 60
3, 137792, Note_off_c, 1, 55, 100
3, 137808, Note_on_c, 1, 57, 60
3, 137840, Note_off_c, 1, 57, 100
3, 137856, Note_on_c, 1, 55, 60
3, 137888, Note_off_c, 1, 55, 100
3, 137904, Note_on_c, 1, 57, 60
3, 137936, Note_off_c, 1, 57, 100
3, 137952, Note_on_c, 1, 49, 60
3, 137984, Note_off_c, 1, 49, 100
3, 138000, Note_on_c, 1, 57, 60
3, 138032, Note_off_c, 1, 57, 100
3, 138048, Note_on_c, 1, 52, 60
3, 138080, Note_off_c, 1, 52, 100
3, 138096, Note_on_c, 1, 57, 60
3, 138128, Note_off_c, 1, 57, 100
3, 138144, Note_on_c, 1, 52, 60
3, 138176, Note_off_c, 1, 52, 100
3, 138192, Note_on_c, 1, 57, 60
3, 138224, Note_off_c, 1, 57, 100
3, 138240, Note_on_c, 1, 50, 60
3, 138272, Note_off_c, 1, 50, 100
3, 138288, Note_on_c, 1, 57, 60
3, 138320, Note_off_c, 1, 57, 100
3, 138336, Note_on_c, 1, 54, 60
3, 138368, Note_off_c, 1, 54, 100
3, 138384, Note_on_c, 1, 57, 60
3, 138416, Note_off_c, 1, 57, 100
3, 138432, Note_on_c, 1, 54, 60
3, 138464, Note_off_c, 1, 54, 100
3, 138480, Note_on_c, 1, 57, 60
3, 138512, Note_off_c, 1, 57, 100
3, 138528, Note_on_c, 1, 50, 60
3, 138560, Note_off_c, 1, 50, 100
3, 138576, Note_on_c, 1, 57, 60
3, 138608, Note_off_c, 1, 57, 100
3, 138624, Note_on_c, 1, 54, 60
3, 138656, Note_off_c, 1, 54, 100
3, 138672, Note_on_c, 1, 57, 60
3, 138704, Note_off_c, 1, 57, 100
3, 138720, Note_on_c, 1, 54, 60
3, 138752, Note_off_c, 1, 54, 100
3, 138768, Note_on_c, 1, 57, 60
3, 138800, Note_off_c, 1, 57, 100
3, 138816, Note_on_c, 1, 55, 60
3, 138880, Note_off_c, 1, 55, 100
3, 140544, Note_on_c, 1, 55, 90
3, 140544, Note_on_c, 1, 62, 90
3, 140608, Note_off_c, 1, 55, 100
3, 140608, Note_off_c, 1, 62, 100
3, 140832, Note_on_c, 1, 55, 90
3, 140832, Note_on_c, 1, 62, 90
3, 140896, Note_off_c, 1, 55, 100
3, 140896, Note_off_c, 1, 62, 100
3, 141120, Note_on_c, 1, 54, 90
3, 141120, Note_on_c, 1, 62, 90
3, 141184, Note_off_c, 1, 54, 100
3, 141184, Note_off_c, 1, 62, 100
3, 141408, Note_on_c, 1, 55, 90
3, 141408, Note_on_c, 1, 62, 90
3, 141472, Note_off_c, 1, 55, 100
3, 141472, Note_off_c, 1, 62, 100
3, 141696, Note_on_c, 1, 62, 90
3, 141696, Note_on_c, 1, 57, 90
3, 141760, Note_off_c, 1, 62, 100
3, 141760, Note_off_c, 1, 57, 100
3, 141984, Note_on_c, 1, 57, 90
3, 141984, Note_on_c, 1, 61, 90
3, 142048, Note_off_c, 1, 57, 100
3, 142048, Note_off_c, 1, 61, 100
3, 142272, Note_on_c, 1, 50, 105
3, 142304, Note_off_c, 1, 50, 100
3, 142320, Note_on_c, 1, 62, 105
3, 142352, Note_off_c, 1, 62, 100
3, 142368, Note_on_c, 1, 61, 105
3, 142400, Note_off_c, 1, 61, 100
3, 142416, Note_on_c, 1, 62, 105
3, 142448, Note_off_c, 1, 62, 100
3, 142464, Note_on_c, 1, 61, 105
3, 142496, Note_off_c, 1, 61, 100
3, 142512, Note_on_c, 1, 62, 105
3, 142544, Note_off_c, 1, 62, 100
3, 142560, Note_on_c, 1, 47, 105
3, 142592, Note_off_c, 1, 47, 100
3, 142608, Note_on_c, 1, 59, 105
3, 142640, Note_off_c, 1, 59, 100
3, 142656, Note_on_c, 1, 58, 105
3, 142688, Note_off_c, 1, 58, 100
3, 142704, Note_on_c, 1, 59, 105
3, 142736, Note_off_c, 1, 59, 100
3, 142752, Note_on_c, 1, 58, 105
3, 142784, Note_off_c, 1, 58, 100
3, 142800, Note_on_c, 1, 59, 105
3, 142832, Note_off_c, 1, 59, 100
3, 142848, Note_on_c, 1, 43, 105
3, 142880, Note_off_c, 1, 43, 100
3, 142896, Note_on_c, 1, 55, 105
3, 142928, Note_off_c, 1, 55, 100
3, 142944, Note_on_c, 1, 54, 105
3, 142976, Note_off_c, 1, 54, 100
3, 142992, Note_on_c, 1, 55, 105
3, 143024, Note_off_c, 1, 55, 100
3, 143040, Note_on_c, 1, 54, 105
3, 143072, Note_off_c, 1, 54, 100
3, 143088, Note_on_c, 1, 55, 105
3, 143120, Note_off_c, 1, 55, 100
3, 143136, Note_on_c, 1, 45, 105
3, 143168, Note_off_c, 1, 45, 100
3, 143184, Note_on_c, 1, 57, 105
3, 143216, Note_off_c, 1, 57, 100
3, 143232, Note_on_c, 1, 56, 105
3, 143264, Note_off_c, 1, 56, 100
3, 143280, Note_on_c, 1, 57, 105
3, 143312, Note_off_c, 1, 57, 100
3, 143328, Note_on_c, 1, 56, 105
3, 143360, Note_off_c, 1, 56, 100
3, 143376, Note_on_c, 1, 57, 105
3, 143408, Note_off_c, 1, 57, 100
3, 143424, Note_on_c, 1, 50, 105
3, 143456, Note_off_c, 1, 50, 100
3, 143472, Note_on_c, 1, 62, 105
3, 143504, Note_off_c, 1, 62, 100
3, 143520, Note_on_c, 1, 61, 105
3, 143552, Note_off_c, 1, 61, 100
3, 143568, Note_on_c, 1, 62, 105
3, 143600, Note_off_c, 1, 62, 100
3, 143616, Note_on_c, 1, 61, 105
3, 143648, Note_off_c, 1, 61, 100
3, 143664, Note_on_c, 1, 62, 105
3, 143696, Note_off_c, 1, 62, 100
3, 143712, Note_on_c, 1, 47, 105
3, 143744, Note_off_c, 1, 47, 100
3, 143760, Note_on_c, 1, 59, 105
3, 143792, Note_off_c, 1, 59, 100
3, 143808, Note_on_c, 1, 58, 105
3, 143840, Note_off_c, 1, 58, 100
3, 143856, Note_on_c, 1, 59, 105
3, 143888, Note_off_c, 1, 59, 100
3, 143904, Note_on_c, 1, 58, 105
3, 143936, Note_off_c, 1, 58, 100
3, 143952, Note_on_c, 1, 59, 105
3, 143984, Note_off_c, 1, 59, 100
3, 144000, Note_on_c, 1, 43, 105
3, 144032, Note_off_c, 1, 43, 100
3, 144048, Note_on_c, 1, 55, 105
3, 144080, Note_off_c, 1, 55, 100
3, 144096, Note_on_c, 1, 54, 105
3, 144128, Note_off_c, 1, 54, 100
3, 144144, Note_on_c, 1, 55, 105
3, 144176, Note_off_c, 1, 55, 100
3, 144192, Note_on_c, 1, 54, 105
3, 144224, Note_off_c, 1, 54, 100
3, 144240, Note_on_c, 1, 55, 105
3, 144272, Note_off_c, 1, 55, 100
3, 144288, Note_on_c, 1, 45, 105
3, 144320, Note_off_c, 1, 45, 100
3, 144336, Note_on_c, 1, 57, 105
3, 144368, Note_off_c, 1, 57, 100
3, 144384, Note_on_c, 1, 56, 105
3, 144416, Note_off_c, 1, 56, 100
3, 144432, Note_on_c, 1, 57, 105
3, 144464, Note_off_c, 1, 57, 100
3, 144480, Note_on_c, 1, 56, 105
3, 144512, Note_off_c, 1, 56, 100
3, 144528, Note_on_c, 1, 57, 105
3, 144560, Note_off_c, 1, 57, 100
3, 144576, Note_on_c, 1, 50, 60
3, 144640, Note_off_c, 1, 50, 100
3, 145152, Note_on_c, 1, 57, 60
3, 145152, Note_on_c, 1, 61, 60
3, 145216, Note_off_c, 1, 57, 100
3, 145216, Note_off_c, 1, 61, 100
3, 145728, Note_on_c, 1, 50, 60
3, 145728, Note_on_c, 1, 62, 60
3, 145792, Note_off_c, 1, 50, 100
3, 145792, Note_off_c, 1, 62, 100
3, 146304, Note_on_c, 1, 57, 60
3, 146304, Note_on_c, 1, 64, 60
3, 146368, Note_off_c, 1, 57, 100
3, 146368, Note_off_c, 1, 64, 100
3, 146880, Note_on_c, 1, 62, 60
3, 146880, Note_on_c, 1, 66, 60
3, 146944, Note_off_c, 1, 62, 100
3, 146944, Note_off_c, 1, 66, 100
3, 149472, Note_on_c, 1, 50, 90
3, 149536, Note_off_c, 1, 50, 100
3, 149568, Note_on_c, 1, 62, 90
3, 149632, Note_off_c, 1, 62, 100
3, 149664, Note_on_c, 1, 64, 90
3, 149728, Note_off_c, 1, 64, 100
3, 149760, Note_on_c, 1, 66, 90
3, 149824, Note_off_c, 1, 66, 100
3, 150624, Note_on_c, 1, 55, 90
3, 150624, Note_on_c, 1, 59, 90
3, 150624, Note_on_c, 1, 64, 90
3, 150688, Note_off_c, 1, 55, 100
3, 150688, Note_off_c, 1, 59, 100
3, 150688, Note_off_c, 1, 64, 100
3, 150912, Note_on_c, 1, 66, 90
3, 150912, Note_on_c, 1, 62, 90
3, 150912, Note_on_c, 1, 57, 90
3, 150976, Note_off_c, 1, 66, 100
3, 150976, Note_off_c, 1, 62, 100
3, 150976, Note_off_c, 1, 57, 100
3, 151200, Note_on_c, 1, 67, 90
3, 151200, Note_on_c, 1, 64, 90
3, 151200, Note_on_c, 1, 57, 90
3, 151264, Note_off_c, 1, 67, 100
3, 151264, Note_off_c, 1, 64, 100
3, 151264, Note_off_c, 1, 57, 100
3, 151488, Note_on_c, 1, 66, 90
3, 151488, Note_on_c, 1, 62, 90
3, 151552, Note_off_c, 1, 66, 100
3, 151552, Note_off_c, 1, 62, 100
3, 151680, Note_on_c, 1, 38, 105
3, 151712, Note_off_c, 1, 38, 100
3, 151728, Note_on_c, 1, 42, 105
3, 151760, Note_off_c, 1, 42, 100
3, 151776, Note_on_c, 1, 45, 105
3, 151840, Note_off_c, 1, 45, 100
3, 151968, Note_on_c, 1, 42, 105
3, 152000, Note_off_c, 1, 42, 100
3, 152016, Note_on_c, 1, 45, 105
3, 152048, Note_off_c, 1, 45, 100
3, 152064, Note_on_c, 1, 50, 105
3, 152128, Note_off_c, 1, 50, 100
3, 152256, Note_on_c, 1, 45, 105
3, 152288, Note_off_c, 1, 45, 100
3, 152304, Note_on_c, 1, 50, 105
3, 152336, Note_off_c, 1, 50, 100
3, 152352, Note_on_c, 1, 54, 105
3, 152416, Note_off_c, 1, 54, 100
3, 152544, Note_on_c, 1, 50, 105
3, 152576, Note_off_c, 1, 50, 100
3, 152592, Note_on_c, 1, 54, 105
3, 152624, Note_off_c, 1, 54, 100
3, 152640, Note_on_c, 1, 57, 105
3, 152704, Note_off_c, 1, 57, 100
3, 156384, Note_on_c, 1, 47, 60
3, 156384, Note_on_c, 1, 54, 60
3, 156576, Note_off_c, 1, 47, 100
3, 156576, Note_off_c, 1, 54, 100
3, 156672, Note_on_c, 1, 43, 60
3, 156864, Note_off_c, 1, 43, 100
3, 156960, Note_on_c, 1, 45, 60
3, 157152, Note_off_c, 1, 45, 100
3, 157248, Note_on_c, 1, 38, 60
3, 157312, Note_off_c, 1, 38, 100
3, 157536, Note_on_c, 1, 59, 90
3, 157536, Note_on_c, 1, 47, 90
3, 157600, Note_off_c, 1, 59, 100
3, 157600, Note_off_c, 1, 47, 100
3, 157632, Note_on_c, 1, 59, 90
3, 157632, Note_on_c, 1, 47, 90
3, 157696, Note_off_c, 1, 59, 100
3, 157696, Note_off_c, 1, 47, 100
3, 157728, Note_on_c, 1, 59, 90
3, 157728, Note_on_c, 1, 47, 90
3, 157792, Note_off_c, 1, 59, 100
3, 157792, Note_off_c, 1, 47, 100
3, 157824, Note_on_c, 1, 55, 90
3, 157824, Note_on_c, 1, 43, 90
3, 157888, Note_off_c, 1, 55, 100
3, 157888, Note_off_c, 1, 43, 100
3, 157920, Note_on_c, 1, 55, 90
3, 157920, Note_on_c, 1, 43, 90
3, 157984, Note_off_c, 1, 55, 100
3, 157984, Note_off_c, 1, 43, 100
3, 158016, Note_on_c, 1, 55, 90
3, 158016, Note_on_c, 1, 43, 90
3, 158080, Note_off_c, 1, 55, 100
3, 158080, Note_off_c, 1, 43, 100
3, 158112, Note_on_c, 1, 57, 90
3, 158112, Note_on_c, 1, 45, 90
3, 158176, Note_off_c, 1, 57, 100
3, 158176, Note_off_c, 1, 45, 100
3, 158208, Note_on_c, 1, 57, 90
3, 158208, Note_on_c, 1, 45, 90
3, 158272, Note_off_c, 1, 57, 100
3, 158272, Note_off_c, 1, 45, 100
3, 158304, Note_on_c, 1, 57, 90
3, 158304, Note_on_c, 1, 45, 90
3, 158368, Note_off_c, 1, 57, 100
3, 158368, Note_off_c, 1, 45, 100
3, 158400, Note_on_c, 1, 50, 90
3, 158400, Note_on_c, 1, 38, 90
3, 158464, Note_off_c, 1, 50, 100
3, 158464, Note_off_c, 1, 38, 100
3, 158688, Note_on_c, 1, 50, 90
3, 158688, Note_on_c, 1, 45, 90
3, 158688, Note_on_c, 1, 42, 90
3, 158688, Note_on_c, 1, 38, 90
3, 158752, Note_off_c, 1, 50, 100
3, 158752, Note_off_c, 1, 45, 100
3, 158752, Note_off_c, 1, 42, 100
3, 158752, Note_off_c, 1, 38, 100
3, 158976, Note_on_c, 1, 50, 90
3, 158976, Note_on_c, 1, 45, 90
3, 158976, Note_on_c, 1, 42, 90
3, 158976, Note_on_c, 1, 38, 90
3, 159040, Note_off_c, 1, 50, 100
3, 159040, Note_off_c, 1, 45, 100
3, 159040, Note_off_c, 1, 42, 100
3, 159040, Note_off_c, 1, 38, 100
3, 159040, End_track
4, 0, Start_track
4, 0, Title_t, "by Bob"
4, 0, Key_signature, 2, "major"
4, 0, End_track
5, 0, Start_track
5, 0, Title_t, "Fisher"
5, 0, Key_signature, 2, "major"
5, 0, End_track
6, 0, Start_track
6, 0, Key_signature, 2, "major"
6, 0, End_track
7, 0, Start_track
7, 0, Key_signature, 2, "major"
7, 0, End_track
8, 0, Start_track
8, 0, Key_signature, 2, "major"
8, 0, End_track
9, 0, Start_track
9, 0, Key_signature, 2, "major"
9, 0, End_track
10, 0, Start_track
10, 0, Key_signature, 2, "major"
10, 0, End_track
11, 0, Start_track
11, 0, Key_signature, 2, "major"
11, 0, End_track
12, 0, Start_track
12, 0, Key_signature, 2, "major"
12, 0, End_track
13, 0, Start_track
13, 0, Key_signature, 2, "major"
13, 0, End_track
14, 0, Start_track
14, 0, Key_signature, 2, "major"
14, 0, End_track
15, 0, Start_track
15, 0, Key_signature, 2, "major"
15, 0, End_track
16, 0, Start_track
16, 0, Key_signature, 2, "major"
16, 0, End_track
17, 0, Start_track
17, 0, Key_signature, 0, "major"
17, 0, End_track
0, 0, End_of_file
