0, 0, Header, 1, 5, 384
1, 0, Start_track
1, 0, Time_signature, 4, 2, 96, 8
1, 0, Sequencer_specific, 3, 0, 0, 65
1, 0, Sequencer_specific, 5, 0, 0, 119, 14, 0
1, 0, Tempo, 681818
1, 129024, Tempo, 666666
1, 219648, Tempo, 681818
1, 283392, Tempo, 697674
1, 284736, Tempo, 731707
1, 285504, Tempo, 1500000
1, 285504, End_track
2, 0, Start_track
2, 0, Title_t, "Mozart Piano Concerto"
2, 0, Control_c, 0, 0, 0
2, 0, Program_c, 0, 0
2, 0, Control_c, 0, 7, 91
2, 0, Control_c, 0, 10, 63
2, 0, Control_c, 0, 91, 70
2, 0, Control_c, 0, 93, 51
2, 0, Key_signature, -2, "major"
2, 0, Control_c, 0, 121, 0
2, 480, Control_c, 0, 10, 63
2, 576, Control_c, 0, 91, 63
2, 672, Control_c, 0, 93, 35
2, 768, Program_c, 0, 0
2, 1536, Note_on_c, 0, 77, 79
2, 2300, Note_off_c, 0, 77, 64
2, 2304, Note_on_c, 0, 76, 78
2, 2492, Note_off_c, 0, 76, 64
2, 2496, Note_on_c, 0, 77, 79
2, 2684, Note_off_c, 0, 77, 64
2, 2688, Note_on_c, 0, 76, 78
2, 2876, Note_off_c, 0, 76, 64
2, 2880, Note_on_c, 0, 77, 79
2, 3068, Note_off_c, 0, 77, 64
2, 3072, Note_on_c, 0, 79, 80
2, 3260, Note_off_c, 0, 79, 64
2, 3264, Note_on_c, 0, 77, 79
2, 3452, Note_off_c, 0, 77, 64
2, 3456, Note_on_c, 0, 75, 78
2, 3644, Note_off_c, 0, 75, 64
2, 3648, Note_on_c, 0, 74, 77
2, 3836, Note_off_c, 0, 74, 64
2, 3840, Note_on_c, 0, 74, 77
2, 4220, Note_off_c, 0, 74, 64
2, 4224, Note_on_c, 0, 77, 79
2, 4508, Note_off_c, 0, 77, 64
2, 4512, Note_on_c, 0, 74, 77
2, 4604, Note_off_c, 0, 74, 64
2, 4608, Note_on_c, 0, 70, 74
2, 4796, Note_off_c, 0, 70, 64
2, 4992, Note_on_c, 0, 70, 74
2, 5180, Note_off_c, 0, 70, 64
2, 5376, Note_on_c, 0, 65, 71
2, 5564, Note_off_c, 0, 65, 64
2, 5760, Note_on_c, 0, 65, 71
2, 5948, Note_off_c, 0, 65, 64
2, 6144, Note_on_c, 0, 70, 74
2, 6524, Note_off_c, 0, 70, 64
2, 6528, Note_on_c, 0, 72, 75
2, 6568, Note_off_c, 0, 72, 64
2, 6576, Note_on_c, 0, 70, 74
2, 6616, Note_off_c, 0, 70, 64
2, 6624, Note_on_c, 0, 69, 73
2, 6664, Note_off_c, 0, 69, 64
2, 6672, Note_on_c, 0, 70, 74
2, 6712, Note_off_c, 0, 70, 64
2, 6720, Note_on_c, 0, 72, 75
2, 6812, Note_off_c, 0, 72, 64
2, 6816, Note_on_c, 0, 74, 77
2, 6908, Note_off_c, 0, 74, 64
2, 6912, Note_on_c, 0, 72, 75
2, 7100, Note_off_c, 0, 72, 64
2, 7104, Note_on_c, 0, 74, 77
2, 7292, Note_off_c, 0, 74, 64
2, 7296, Note_on_c, 0, 75, 78
2, 7484, Note_off_c, 0, 75, 64
2, 7488, Note_on_c, 0, 76, 78
2, 7676, Note_off_c, 0, 76, 64
2, 7680, Note_on_c, 0, 77, 79
2, 8444, Note_off_c, 0, 77, 64
2, 8448, Note_on_c, 0, 76, 78
2, 8636, Note_off_c, 0, 76, 64
2, 8640, Note_on_c, 0, 77, 79
2, 8828, Note_off_c, 0, 77, 64
2, 8832, Note_on_c, 0, 76, 78
2, 9020, Note_off_c, 0, 76, 64
2, 9024, Note_on_c, 0, 77, 79
2, 9212, Note_off_c, 0, 77, 64
2, 9216, Note_on_c, 0, 79, 80
2, 9404, Note_off_c, 0, 79, 64
2, 9408, Note_on_c, 0, 77, 79
2, 9596, Note_off_c, 0, 77, 64
2, 9600, Note_on_c, 0, 75, 78
2, 9788, Note_off_c, 0, 75, 64
2, 9792, Note_on_c, 0, 74, 77
2, 9980, Note_off_c, 0, 74, 64
2, 9984, Note_on_c, 0, 74, 77
2, 10364, Note_off_c, 0, 74, 64
2, 10368, Note_on_c, 0, 77, 79
2, 10652, Note_off_c, 0, 77, 64
2, 10656, Note_on_c, 0, 74, 77
2, 10748, Note_off_c, 0, 74, 64
2, 10752, Note_on_c, 0, 70, 74
2, 10940, Note_off_c, 0, 70, 64
2, 11136, Note_on_c, 0, 70, 74
2, 11324, Note_off_c, 0, 70, 64
2, 11520, Note_on_c, 0, 65, 71
2, 11708, Note_off_c, 0, 65, 64
2, 11904, Note_on_c, 0, 65, 71
2, 12092, Note_off_c, 0, 65, 64
2, 12288, Note_on_c, 0, 63, 70
2, 12288, Note_on_c, 0, 60, 68
2, 12288, Note_on_c, 0, 57, 66
2, 12288, Note_on_c, 0, 53, 63
2, 13052, Note_off_c, 0, 63, 64
2, 13052, Note_off_c, 0, 60, 64
2, 13052, Note_off_c, 0, 57, 64
2, 13052, Note_off_c, 0, 53, 64
2, 13056, Note_on_c, 0, 62, 69
2, 13056, Note_on_c, 0, 58, 67
2, 13056, Note_on_c, 0, 53, 63
2, 13244, Note_off_c, 0, 62, 64
2, 13244, Note_off_c, 0, 58, 64
2, 13244, Note_off_c, 0, 53, 64
2, 13248, Note_on_c, 0, 53, 74
2, 13308, Note_off_c, 0, 53, 64
2, 13312, Note_on_c, 0, 65, 71
2, 13436, Note_off_c, 0, 65, 64
2, 13440, Note_on_c, 0, 58, 82
2, 13500, Note_off_c, 0, 58, 64
2, 13504, Note_on_c, 0, 70, 74
2, 13628, Note_off_c, 0, 70, 64
2, 13632, Note_on_c, 0, 62, 80
2, 13692, Note_off_c, 0, 62, 64
2, 13696, Note_on_c, 0, 74, 77
2, 13820, Note_off_c, 0, 74, 64
2, 13824, Note_on_c, 0, 65, 82
2, 13884, Note_off_c, 0, 65, 64
2, 13888, Note_on_c, 0, 77, 79
2, 14268, Note_off_c, 0, 77, 64
2, 14592, Note_on_c, 0, 76, 88
2, 14592, Note_on_c, 0, 73, 85
2, 14592, Note_on_c, 0, 64, 80
2, 14780, Note_off_c, 0, 76, 64
2, 14780, Note_off_c, 0, 73, 64
2, 14780, Note_off_c, 0, 64, 64
2, 14784, Note_on_c, 0, 77, 89
2, 14784, Note_on_c, 0, 74, 86
2, 14784, Note_on_c, 0, 65, 81
2, 14972, Note_off_c, 0, 77, 64
2, 14972, Note_off_c, 0, 74, 64
2, 14972, Note_off_c, 0, 65, 64
2, 14976, Note_on_c, 0, 76, 88
2, 14976, Note_on_c, 0, 64, 85
2, 14976, Note_on_c, 0, 73, 80
2, 15164, Note_off_c, 0, 76, 64
2, 15164, Note_off_c, 0, 64, 64
2, 15164, Note_off_c, 0, 73, 64
2, 15168, Note_on_c, 0, 77, 90
2, 15168, Note_on_c, 0, 74, 88
2, 15168, Note_on_c, 0, 65, 81
2, 15356, Note_off_c, 0, 77, 64
2, 15356, Note_off_c, 0, 74, 64
2, 15356, Note_off_c, 0, 65, 64
2, 15360, Note_on_c, 0, 79, 91
2, 15360, Note_on_c, 0, 75, 89
2, 15360, Note_on_c, 0, 67, 82
2, 15548, Note_off_c, 0, 79, 64
2, 15548, Note_off_c, 0, 75, 64
2, 15548, Note_off_c, 0, 67, 64
2, 15552, Note_on_c, 0, 77, 90
2, 15552, Note_on_c, 0, 74, 88
2, 15552, Note_on_c, 0, 65, 81
2, 15740, Note_off_c, 0, 77, 64
2, 15740, Note_off_c, 0, 74, 64
2, 15740, Note_off_c, 0, 65, 64
2, 15744, Note_on_c, 0, 75, 89
2, 15744, Note_on_c, 0, 72, 86
2, 15744, Note_on_c, 0, 63, 80
2, 15932, Note_off_c, 0, 75, 64
2, 15932, Note_off_c, 0, 72, 64
2, 15932, Note_off_c, 0, 63, 64
2, 15936, Note_on_c, 0, 74, 88
2, 15936, Note_on_c, 0, 70, 85
2, 15936, Note_on_c, 0, 62, 79
2, 16124, Note_off_c, 0, 74, 64
2, 16124, Note_off_c, 0, 70, 64
2, 16124, Note_off_c, 0, 62, 64
2, 16128, Note_on_c, 0, 74, 88
2, 16128, Note_on_c, 0, 70, 85
2, 16128, Note_on_c, 0, 62, 79
2, 16220, Note_off_c, 0, 74, 64
2, 16220, Note_off_c, 0, 70, 64
2, 16220, Note_off_c, 0, 62, 64
2, 16320, Note_on_c, 0, 74, 88
2, 16508, Note_off_c, 0, 74, 64
2, 16512, Note_on_c, 0, 77, 90
2, 16700, Note_off_c, 0, 77, 64
2, 16704, Note_on_c, 0, 74, 88
2, 16892, Note_off_c, 0, 74, 64
2, 16896, Note_on_c, 0, 70, 67
2, 16896, Note_on_c, 0, 62, 67
2, 16988, Note_off_c, 0, 62, 64
2, 17084, Note_off_c, 0, 70, 64
2, 17088, Note_on_c, 0, 58, 67
2, 17180, Note_off_c, 0, 58, 64
2, 17280, Note_on_c, 0, 70, 67
2, 17280, Note_on_c, 0, 62, 67
2, 17372, Note_off_c, 0, 62, 64
2, 17468, Note_off_c, 0, 70, 64
2, 17472, Note_on_c, 0, 58, 67
2, 17564, Note_off_c, 0, 58, 64
2, 17664, Note_on_c, 0, 65, 67
2, 17664, Note_on_c, 0, 63, 67
2, 17852, Note_off_c, 0, 65, 64
2, 17852, Note_off_c, 0, 63, 64
2, 17856, Note_on_c, 0, 60, 67
2, 18044, Note_off_c, 0, 60, 64
2, 18048, Note_on_c, 0, 65, 67
2, 18048, Note_on_c, 0, 63, 67
2, 18236, Note_off_c, 0, 65, 64
2, 18236, Note_off_c, 0, 63, 64
2, 18240, Note_on_c, 0, 60, 67
2, 18428, Note_off_c, 0, 60, 64
2, 18432, Note_on_c, 0, 70, 67
2, 18432, Note_on_c, 0, 62, 67
2, 18620, Note_off_c, 0, 62, 64
2, 18624, Note_on_c, 0, 58, 67
2, 18812, Note_off_c, 0, 58, 64
2, 18816, Note_on_c, 0, 62, 67
2, 19004, Note_off_c, 0, 70, 64
2, 19004, Note_off_c, 0, 62, 64
2, 19008, Note_on_c, 0, 72, 67
2, 19100, Note_off_c, 0, 72, 64
2, 19104, Note_on_c, 0, 74, 67
2, 19196, Note_off_c, 0, 74, 64
2, 19200, Note_on_c, 0, 72, 71
2, 19200, Note_on_c, 0, 69, 71
2, 19388, Note_off_c, 0, 72, 64
2, 19388, Note_off_c, 0, 69, 64
2, 19392, Note_on_c, 0, 74, 74
2, 19580, Note_off_c, 0, 74, 64
2, 19584, Note_on_c, 0, 75, 77
2, 19772, Note_off_c, 0, 75, 64
2, 19776, Note_on_c, 0, 76, 77
2, 19964, Note_off_c, 0, 76, 64
2, 19968, Note_on_c, 0, 77, 90
2, 19968, Note_on_c, 0, 74, 88
2, 19968, Note_on_c, 0, 65, 81
2, 20732, Note_off_c, 0, 77, 64
2, 20732, Note_off_c, 0, 74, 64
2, 20732, Note_off_c, 0, 65, 64
2, 20736, Note_on_c, 0, 76, 89
2, 20736, Note_on_c, 0, 73, 86
2, 20736, Note_on_c, 0, 64, 79
2, 20924, Note_off_c, 0, 76, 64
2, 20924, Note_off_c, 0, 73, 64
2, 20924, Note_off_c, 0, 64, 64
2, 20928, Note_on_c, 0, 77, 90
2, 20928, Note_on_c, 0, 74, 88
2, 20928, Note_on_c, 0, 65, 81
2, 21116, Note_off_c, 0, 77, 64
2, 21116, Note_off_c, 0, 74, 64
2, 21116, Note_off_c, 0, 65, 64
2, 21120, Note_on_c, 0, 76, 89
2, 21120, Note_on_c, 0, 73, 86
2, 21120, Note_on_c, 0, 64, 79
2, 21308, Note_off_c, 0, 76, 64
2, 21308, Note_off_c, 0, 73, 64
2, 21308, Note_off_c, 0, 64, 64
2, 21312, Note_on_c, 0, 77, 90
2, 21312, Note_on_c, 0, 74, 88
2, 21312, Note_on_c, 0, 65, 81
2, 21500, Note_off_c, 0, 77, 64
2, 21500, Note_off_c, 0, 74, 64
2, 21500, Note_off_c, 0, 65, 64
2, 21504, Note_on_c, 0, 79, 91
2, 21504, Note_on_c, 0, 75, 89
2, 21504, Note_on_c, 0, 67, 82
2, 21692, Note_off_c, 0, 79, 64
2, 21692, Note_off_c, 0, 75, 64
2, 21692, Note_off_c, 0, 67, 64
2, 21696, Note_on_c, 0, 77, 90
2, 21696, Note_on_c, 0, 74, 88
2, 21696, Note_on_c, 0, 65, 81
2, 21884, Note_off_c, 0, 77, 64
2, 21884, Note_off_c, 0, 74, 64
2, 21884, Note_off_c, 0, 65, 64
2, 21888, Note_on_c, 0, 75, 89
2, 21888, Note_on_c, 0, 72, 86
2, 21888, Note_on_c, 0, 63, 80
2, 22076, Note_off_c, 0, 75, 64
2, 22076, Note_off_c, 0, 72, 64
2, 22076, Note_off_c, 0, 63, 64
2, 22080, Note_on_c, 0, 74, 88
2, 22080, Note_on_c, 0, 70, 85
2, 22080, Note_on_c, 0, 62, 79
2, 22268, Note_off_c, 0, 74, 64
2, 22268, Note_off_c, 0, 70, 64
2, 22268, Note_off_c, 0, 62, 64
2, 22272, Note_on_c, 0, 74, 88
2, 22272, Note_on_c, 0, 70, 85
2, 22272, Note_on_c, 0, 62, 79
2, 22456, Note_off_c, 0, 74, 64
2, 22456, Note_off_c, 0, 70, 64
2, 22456, Note_off_c, 0, 62, 64
2, 22464, Note_on_c, 0, 75, 89
2, 22504, Note_off_c, 0, 75, 64
2, 22512, Note_on_c, 0, 74, 88
2, 22552, Note_off_c, 0, 74, 64
2, 22560, Note_on_c, 0, 72, 86
2, 22600, Note_off_c, 0, 72, 64
2, 22608, Note_on_c, 0, 74, 88
2, 22648, Note_off_c, 0, 74, 64
2, 22656, Note_on_c, 0, 77, 90
2, 22844, Note_off_c, 0, 77, 64
2, 22848, Note_on_c, 0, 74, 88
2, 23036, Note_off_c, 0, 74, 64
2, 23040, Note_on_c, 0, 70, 67
2, 23040, Note_on_c, 0, 62, 67
2, 23132, Note_off_c, 0, 62, 64
2, 23228, Note_off_c, 0, 70, 64
2, 23232, Note_on_c, 0, 58, 67
2, 23324, Note_off_c, 0, 58, 64
2, 23424, Note_on_c, 0, 70, 67
2, 23424, Note_on_c, 0, 62, 67
2, 23516, Note_off_c, 0, 62, 64
2, 23612, Note_off_c, 0, 70, 64
2, 23616, Note_on_c, 0, 58, 67
2, 23708, Note_off_c, 0, 58, 64
2, 23808, Note_on_c, 0, 65, 67
2, 23808, Note_on_c, 0, 60, 67
2, 23900, Note_off_c, 0, 60, 64
2, 23996, Note_off_c, 0, 65, 64
2, 24000, Note_on_c, 0, 57, 67
2, 24092, Note_off_c, 0, 57, 64
2, 24192, Note_on_c, 0, 65, 67
2, 24192, Note_on_c, 0, 60, 67
2, 24284, Note_off_c, 0, 60, 64
2, 24380, Note_off_c, 0, 65, 64
2, 24384, Note_on_c, 0, 57, 67
2, 24476, Note_off_c, 0, 57, 64
2, 24576, Note_on_c, 0, 63, 67
2, 24576, Note_on_c, 0, 60, 67
2, 24576, Note_on_c, 0, 57, 67
2, 24576, Note_on_c, 0, 53, 67
2, 25340, Note_off_c, 0, 63, 64
2, 25340, Note_off_c, 0, 60, 64
2, 25340, Note_off_c, 0, 57, 64
2, 25340, Note_off_c, 0, 53, 64
2, 25344, Note_on_c, 0, 62, 67
2, 25344, Note_on_c, 0, 58, 67
2, 25344, Note_on_c, 0, 53, 67
2, 25532, Note_off_c, 0, 62, 64
2, 25532, Note_off_c, 0, 58, 64
2, 25532, Note_off_c, 0, 53, 64
2, 25536, Note_on_c, 0, 70, 67
2, 25724, Note_off_c, 0, 70, 64
2, 25728, Note_on_c, 0, 72, 67
2, 25728, Note_on_c, 0, 69, 67
2, 25916, Note_off_c, 0, 72, 64
2, 25916, Note_off_c, 0, 69, 64
2, 25920, Note_on_c, 0, 74, 67
2, 25920, Note_on_c, 0, 70, 67
2, 26108, Note_off_c, 0, 74, 64
2, 26108, Note_off_c, 0, 70, 64
2, 26112, Note_on_c, 0, 75, 78
2, 26684, Note_off_c, 0, 75, 64
2, 26688, Note_on_c, 0, 74, 78
2, 26748, Note_off_c, 0, 74, 64
2, 26752, Note_on_c, 0, 72, 78
2, 26812, Note_off_c, 0, 72, 64
2, 26816, Note_on_c, 0, 70, 78
2, 26876, Note_off_c, 0, 70, 64
2, 26880, Note_on_c, 0, 69, 78
2, 27068, Note_off_c, 0, 69, 64
2, 27072, Note_on_c, 0, 72, 78
2, 27260, Note_off_c, 0, 72, 64
2, 27264, Note_on_c, 0, 74, 78
2, 27452, Note_off_c, 0, 74, 64
2, 27456, Note_on_c, 0, 75, 78
2, 27644, Note_off_c, 0, 75, 64
2, 27648, Note_on_c, 0, 77, 79
2, 28220, Note_off_c, 0, 77, 64
2, 28224, Note_on_c, 0, 75, 78
2, 28284, Note_off_c, 0, 75, 64
2, 28288, Note_on_c, 0, 74, 78
2, 28348, Note_off_c, 0, 74, 64
2, 28352, Note_on_c, 0, 72, 78
2, 28412, Note_off_c, 0, 72, 64
2, 28416, Note_on_c, 0, 70, 78
2, 28604, Note_off_c, 0, 70, 64
2, 28608, Note_on_c, 0, 77, 79
2, 28796, Note_off_c, 0, 77, 64
2, 28800, Note_on_c, 0, 79, 81
2, 28988, Note_off_c, 0, 79, 64
2, 28992, Note_on_c, 0, 81, 82
2, 29180, Note_off_c, 0, 81, 64
2, 29184, Note_on_c, 0, 82, 82
2, 29756, Note_off_c, 0, 82, 64
2, 29760, Note_on_c, 0, 81, 79
2, 29820, Note_off_c, 0, 81, 64
2, 29824, Note_on_c, 0, 79, 79
2, 29884, Note_off_c, 0, 79, 64
2, 29888, Note_on_c, 0, 77, 78
2, 29948, Note_off_c, 0, 77, 64
2, 29952, Note_on_c, 0, 76, 79
2, 30140, Note_off_c, 0, 76, 64
2, 30144, Note_on_c, 0, 79, 81
2, 30332, Note_off_c, 0, 79, 64
2, 30336, Note_on_c, 0, 81, 82
2, 30524, Note_off_c, 0, 81, 64
2, 30528, Note_on_c, 0, 82, 82
2, 30716, Note_off_c, 0, 82, 64
2, 30720, Note_on_c, 0, 84, 83
2, 31292, Note_off_c, 0, 84, 64
2, 31296, Note_on_c, 0, 82, 83
2, 31356, Note_off_c, 0, 82, 64
2, 31360, Note_on_c, 0, 81, 82
2, 31420, Note_off_c, 0, 81, 64
2, 31424, Note_on_c, 0, 79, 82
2, 31484, Note_off_c, 0, 79, 64
2, 31488, Note_on_c, 0, 77, 81
2, 31676, Note_off_c, 0, 77, 64
2, 31680, Note_on_c, 0, 77, 79
2, 31772, Note_off_c, 0, 77, 64
2, 31872, Note_on_c, 0, 77, 79
2, 31964, Note_off_c, 0, 77, 64
2, 32064, Note_on_c, 0, 77, 79
2, 32156, Note_off_c, 0, 77, 64
2, 32256, Note_on_c, 0, 77, 79
2, 33020, Note_off_c, 0, 77, 64
2, 33024, Note_on_c, 0, 76, 78
2, 33212, Note_off_c, 0, 76, 64
2, 33216, Note_on_c, 0, 77, 79
2, 33404, Note_off_c, 0, 77, 64
2, 33408, Note_on_c, 0, 76, 79
2, 33596, Note_off_c, 0, 76, 64
2, 33600, Note_on_c, 0, 77, 78
2, 33788, Note_off_c, 0, 77, 64
2, 33792, Note_on_c, 0, 79, 80
2, 33980, Note_off_c, 0, 79, 64
2, 33984, Note_on_c, 0, 77, 79
2, 34172, Note_off_c, 0, 77, 64
2, 34176, Note_on_c, 0, 75, 78
2, 34364, Note_off_c, 0, 75, 64
2, 34368, Note_on_c, 0, 74, 77
2, 34556, Note_off_c, 0, 74, 64
2, 34560, Note_on_c, 0, 74, 77
2, 34744, Note_off_c, 0, 74, 64
2, 34752, Note_on_c, 0, 75, 78
2, 34792, Note_off_c, 0, 75, 64
2, 34800, Note_on_c, 0, 74, 77
2, 34840, Note_off_c, 0, 74, 64
2, 34848, Note_on_c, 0, 72, 75
2, 34880, Note_on_c, 0, 74, 77
2, 34888, Note_off_c, 0, 72, 64
2, 34920, Note_off_c, 0, 74, 64
2, 34944, Note_on_c, 0, 77, 79
2, 35228, Note_off_c, 0, 77, 64
2, 35232, Note_on_c, 0, 74, 77
2, 35324, Note_off_c, 0, 74, 64
2, 35328, Note_on_c, 0, 70, 74
2, 35516, Note_off_c, 0, 70, 64
2, 35712, Note_on_c, 0, 70, 74
2, 35900, Note_off_c, 0, 70, 64
2, 36096, Note_on_c, 0, 65, 71
2, 36284, Note_off_c, 0, 65, 64
2, 36480, Note_on_c, 0, 65, 71
2, 36668, Note_off_c, 0, 65, 64
2, 36864, Note_on_c, 0, 63, 70
2, 36864, Note_on_c, 0, 60, 68
2, 36864, Note_on_c, 0, 57, 66
2, 36864, Note_on_c, 0, 53, 63
2, 37628, Note_off_c, 0, 63, 64
2, 37628, Note_off_c, 0, 60, 64
2, 37628, Note_off_c, 0, 57, 64
2, 37628, Note_off_c, 0, 53, 64
2, 37632, Note_on_c, 0, 62, 69
2, 37632, Note_on_c, 0, 58, 67
2, 37632, Note_on_c, 0, 53, 63
2, 37820, Note_off_c, 0, 62, 64
2, 37820, Note_off_c, 0, 58, 64
2, 37820, Note_off_c, 0, 53, 64
2, 37824, Note_on_c, 0, 58, 83
2, 37884, Note_off_c, 0, 58, 64
2, 37888, Note_on_c, 0, 70, 72
2, 38012, Note_off_c, 0, 70, 64
2, 38016, Note_on_c, 0, 60, 84
2, 38076, Note_off_c, 0, 60, 64
2, 38080, Note_on_c, 0, 72, 73
2, 38204, Note_off_c, 0, 72, 64
2, 38208, Note_on_c, 0, 62, 85
2, 38268, Note_off_c, 0, 62, 64
2, 38272, Note_on_c, 0, 74, 74
2, 38396, Note_off_c, 0, 74, 64
2, 38400, Note_on_c, 0, 63, 88
2, 38460, Note_off_c, 0, 63, 64
2, 38464, Note_on_c, 0, 75, 77
2, 38972, Note_off_c, 0, 75, 64
2, 38976, Note_on_c, 0, 74, 90
2, 39036, Note_off_c, 0, 74, 64
2, 39040, Note_on_c, 0, 72, 90
2, 39100, Note_off_c, 0, 72, 64
2, 39104, Note_on_c, 0, 70, 90
2, 39164, Note_off_c, 0, 70, 64
2, 39168, Note_on_c, 0, 69, 88
2, 39356, Note_off_c, 0, 69, 64
2, 39360, Note_on_c, 0, 72, 88
2, 39548, Note_off_c, 0, 72, 64
2, 39552, Note_on_c, 0, 74, 88
2, 39740, Note_off_c, 0, 74, 64
2, 39744, Note_on_c, 0, 75, 88
2, 39932, Note_off_c, 0, 75, 64
2, 39936, Note_on_c, 0, 77, 90
2, 39936, Note_on_c, 0, 74, 88
2, 39936, Note_on_c, 0, 70, 85
2, 39936, Note_on_c, 0, 65, 82
2, 40508, Note_off_c, 0, 77, 64
2, 40508, Note_off_c, 0, 74, 64
2, 40508, Note_off_c, 0, 70, 64
2, 40508, Note_off_c, 0, 65, 64
2, 40512, Note_on_c, 0, 75, 90
2, 40572, Note_off_c, 0, 75, 64
2, 40576, Note_on_c, 0, 74, 90
2, 40636, Note_off_c, 0, 74, 64
2, 40640, Note_on_c, 0, 72, 90
2, 40700, Note_off_c, 0, 72, 64
2, 40704, Note_on_c, 0, 70, 88
2, 40892, Note_off_c, 0, 70, 64
2, 40896, Note_on_c, 0, 77, 70
2, 40896, Note_on_c, 0, 72, 71
2, 40896, Note_on_c, 0, 69, 72
2, 41084, Note_off_c, 0, 77, 64
2, 41084, Note_off_c, 0, 72, 64
2, 41084, Note_off_c, 0, 69, 64
2, 41088, Note_on_c, 0, 79, 73
2, 41088, Note_on_c, 0, 70, 67
2, 41088, Note_on_c, 0, 67, 67
2, 41276, Note_off_c, 0, 79, 64
2, 41276, Note_off_c, 0, 70, 64
2, 41276, Note_off_c, 0, 67, 64
2, 41280, Note_on_c, 0, 81, 74
2, 41280, Note_on_c, 0, 69, 67
2, 41280, Note_on_c, 0, 65, 67
2, 41468, Note_off_c, 0, 81, 64
2, 41468, Note_off_c, 0, 69, 64
2, 41468, Note_off_c, 0, 65, 64
2, 41472, Note_on_c, 0, 82, 75
2, 41664, Note_on_c, 0, 67, 67
2, 41664, Note_on_c, 0, 64, 67
2, 41852, Note_off_c, 0, 67, 64
2, 41852, Note_off_c, 0, 64, 64
2, 41856, Note_on_c, 0, 67, 67
2, 41856, Note_on_c, 0, 64, 67
2, 42044, Note_off_c, 0, 82, 64
2, 42044, Note_off_c, 0, 67, 64
2, 42044, Note_off_c, 0, 64, 64
2, 42048, Note_on_c, 0, 69, 67
2, 42048, Note_on_c, 0, 65, 67
2, 42048, Note_on_c, 0, 81, 70
2, 42108, Note_off_c, 0, 81, 64
2, 42112, Note_on_c, 0, 79, 70
2, 42172, Note_off_c, 0, 79, 64
2, 42176, Note_on_c, 0, 77, 70
2, 42236, Note_off_c, 0, 69, 64
2, 42236, Note_off_c, 0, 65, 64
2, 42236, Note_off_c, 0, 77, 64
2, 42240, Note_on_c, 0, 76, 67
2, 42240, Note_on_c, 0, 70, 67
2, 42240, Note_on_c, 0, 67, 67
2, 42428, Note_off_c, 0, 76, 64
2, 42428, Note_off_c, 0, 70, 64
2, 42428, Note_off_c, 0, 67, 64
2, 42432, Note_on_c, 0, 79, 71
2, 42432, Note_on_c, 0, 70, 67
2, 42432, Note_on_c, 0, 67, 67
2, 42620, Note_off_c, 0, 79, 64
2, 42620, Note_off_c, 0, 70, 64
2, 42620, Note_off_c, 0, 67, 64
2, 42624, Note_on_c, 0, 81, 72
2, 42624, Note_on_c, 0, 69, 67
2, 42624, Note_on_c, 0, 65, 67
2, 42812, Note_off_c, 0, 81, 64
2, 42812, Note_off_c, 0, 69, 64
2, 42812, Note_off_c, 0, 65, 64
2, 42816, Note_on_c, 0, 82, 73
2, 42816, Note_on_c, 0, 67, 67
2, 42816, Note_on_c, 0, 64, 67
2, 43004, Note_off_c, 0, 82, 64
2, 43004, Note_off_c, 0, 67, 64
2, 43004, Note_off_c, 0, 64, 64
2, 43008, Note_on_c, 0, 84, 74
2, 43200, Note_on_c, 0, 69, 67
2, 43200, Note_on_c, 0, 65, 67
2, 43388, Note_off_c, 0, 69, 64
2, 43388, Note_off_c, 0, 65, 64
2, 43392, Note_on_c, 0, 69, 67
2, 43392, Note_on_c, 0, 65, 67
2, 43580, Note_off_c, 0, 84, 64
2, 43580, Note_off_c, 0, 69, 64
2, 43580, Note_off_c, 0, 65, 64
2, 43584, Note_on_c, 0, 70, 67
2, 43584, Note_on_c, 0, 67, 67
2, 43584, Note_on_c, 0, 82, 70
2, 43644, Note_off_c, 0, 82, 64
2, 43648, Note_on_c, 0, 81, 70
2, 43708, Note_off_c, 0, 81, 64
2, 43712, Note_on_c, 0, 79, 70
2, 43772, Note_off_c, 0, 70, 64
2, 43772, Note_off_c, 0, 67, 64
2, 43772, Note_off_c, 0, 79, 64
2, 43776, Note_on_c, 0, 77, 67
2, 43776, Note_on_c, 0, 72, 67
2, 43776, Note_on_c, 0, 69, 67
2, 43964, Note_off_c, 0, 77, 64
2, 43964, Note_off_c, 0, 72, 64
2, 43964, Note_off_c, 0, 69, 64
2, 43968, Note_on_c, 0, 77, 88
2, 43968, Note_on_c, 0, 75, 88
2, 43968, Note_on_c, 0, 72, 88
2, 44156, Note_off_c, 0, 77, 64
2, 44156, Note_off_c, 0, 75, 64
2, 44156, Note_off_c, 0, 72, 64
2, 44160, Note_on_c, 0, 77, 88
2, 44160, Note_on_c, 0, 89, 93
2, 44348, Note_off_c, 0, 77, 64
2, 44348, Note_off_c, 0, 89, 64
2, 44352, Note_on_c, 0, 89, 93
2, 44352, Note_on_c, 0, 77, 88
2, 44444, Note_off_c, 0, 89, 64
2, 44444, Note_off_c, 0, 77, 64
2, 44544, Note_on_c, 0, 89, 93
2, 44544, Note_on_c, 0, 82, 91
2, 44544, Note_on_c, 0, 77, 88
2, 45308, Note_off_c, 0, 89, 64
2, 45308, Note_off_c, 0, 82, 64
2, 45308, Note_off_c, 0, 77, 64
2, 45312, Note_on_c, 0, 88, 92
2, 45312, Note_on_c, 0, 76, 88
2, 45312, Note_on_c, 0, 82, 91
2, 45500, Note_off_c, 0, 88, 64
2, 45500, Note_off_c, 0, 76, 64
2, 45504, Note_on_c, 0, 77, 93
2, 45504, Note_on_c, 0, 89, 88
2, 45692, Note_off_c, 0, 82, 64
2, 45692, Note_off_c, 0, 77, 64
2, 45692, Note_off_c, 0, 89, 64
2, 45696, Note_on_c, 0, 88, 92
2, 45696, Note_on_c, 0, 76, 88
2, 45696, Note_on_c, 0, 82, 91
2, 45884, Note_off_c, 0, 88, 64
2, 45884, Note_off_c, 0, 76, 64
2, 45888, Note_on_c, 0, 89, 93
2, 45888, Note_on_c, 0, 77, 88
2, 46076, Note_off_c, 0, 82, 64
2, 46076, Note_off_c, 0, 89, 64
2, 46076, Note_off_c, 0, 77, 64
2, 46080, Note_on_c, 0, 91, 93
2, 46080, Note_on_c, 0, 79, 89
2, 46080, Note_on_c, 0, 82, 90
2, 46268, Note_off_c, 0, 91, 64
2, 46268, Note_off_c, 0, 79, 64
2, 46272, Note_on_c, 0, 89, 92
2, 46272, Note_on_c, 0, 77, 88
2, 46460, Note_off_c, 0, 89, 64
2, 46460, Note_off_c, 0, 77, 64
2, 46464, Note_on_c, 0, 87, 91
2, 46464, Note_on_c, 0, 75, 88
2, 46652, Note_off_c, 0, 87, 64
2, 46652, Note_off_c, 0, 75, 64
2, 46656, Note_on_c, 0, 86, 90
2, 46656, Note_on_c, 0, 74, 88
2, 46844, Note_off_c, 0, 82, 64
2, 46844, Note_off_c, 0, 86, 64
2, 46844, Note_off_c, 0, 74, 64
2, 46848, Note_on_c, 0, 86, 89
2, 46848, Note_on_c, 0, 82, 88
2, 46848, Note_on_c, 0, 74, 88
2, 47032, Note_off_c, 0, 86, 64
2, 47032, Note_off_c, 0, 82, 64
2, 47032, Note_off_c, 0, 74, 64
2, 47040, Note_on_c, 0, 75, 88
2, 47080, Note_off_c, 0, 75, 64
2, 47088, Note_on_c, 0, 74, 88
2, 47128, Note_off_c, 0, 74, 64
2, 47136, Note_on_c, 0, 72, 88
2, 47176, Note_off_c, 0, 72, 64
2, 47184, Note_on_c, 0, 75, 88
2, 47224, Note_off_c, 0, 75, 64
2, 47232, Note_on_c, 0, 77, 88
2, 47420, Note_off_c, 0, 77, 64
2, 47424, Note_on_c, 0, 74, 88
2, 47612, Note_off_c, 0, 74, 64
2, 47616, Note_on_c, 0, 62, 67
2, 47616, Note_on_c, 0, 70, 67
2, 47708, Note_off_c, 0, 62, 64
2, 47804, Note_off_c, 0, 70, 64
2, 47808, Note_on_c, 0, 58, 67
2, 47900, Note_off_c, 0, 58, 64
2, 48000, Note_on_c, 0, 70, 67
2, 48000, Note_on_c, 0, 62, 67
2, 48092, Note_off_c, 0, 62, 64
2, 48188, Note_off_c, 0, 70, 64
2, 48192, Note_on_c, 0, 58, 67
2, 48284, Note_off_c, 0, 58, 64
2, 48384, Note_on_c, 0, 65, 67
2, 48384, Note_on_c, 0, 60, 67
2, 48476, Note_off_c, 0, 60, 64
2, 48572, Note_off_c, 0, 65, 64
2, 48576, Note_on_c, 0, 57, 67
2, 48668, Note_off_c, 0, 57, 64
2, 48768, Note_on_c, 0, 65, 67
2, 48768, Note_on_c, 0, 60, 67
2, 48860, Note_off_c, 0, 60, 64
2, 48956, Note_off_c, 0, 65, 64
2, 48960, Note_on_c, 0, 57, 67
2, 49052, Note_off_c, 0, 57, 64
2, 49152, Note_on_c, 0, 74, 67
2, 49152, Note_on_c, 0, 71, 67
2, 49152, Note_on_c, 0, 62, 67
2, 49916, Note_off_c, 0, 74, 64
2, 49916, Note_off_c, 0, 71, 64
2, 49916, Note_off_c, 0, 62, 64
2, 49920, Note_on_c, 0, 75, 71
2, 49920, Note_on_c, 0, 72, 71
2, 49920, Note_on_c, 0, 63, 71
2, 50684, Note_off_c, 0, 75, 64
2, 50684, Note_off_c, 0, 72, 64
2, 50684, Note_off_c, 0, 63, 64
2, 50688, Note_on_c, 0, 77, 77
2, 50688, Note_on_c, 0, 74, 77
2, 50688, Note_on_c, 0, 65, 77
2, 51452, Note_off_c, 0, 77, 64
2, 51452, Note_off_c, 0, 74, 64
2, 51452, Note_off_c, 0, 65, 64
2, 51456, Note_on_c, 0, 79, 82
2, 51456, Note_on_c, 0, 75, 82
2, 51456, Note_on_c, 0, 67, 82
2, 52220, Note_off_c, 0, 79, 64
2, 52220, Note_off_c, 0, 75, 64
2, 52220, Note_off_c, 0, 67, 64
2, 52224, Note_on_c, 0, 81, 91
2, 52224, Note_on_c, 0, 75, 88
2, 52224, Note_on_c, 0, 69, 88
2, 52988, Note_off_c, 0, 81, 64
2, 52988, Note_off_c, 0, 75, 64
2, 52988, Note_off_c, 0, 69, 64
2, 52992, Note_on_c, 0, 84, 92
2, 52992, Note_on_c, 0, 72, 88
2, 53180, Note_off_c, 0, 84, 64
2, 53180, Note_off_c, 0, 72, 64
2, 53184, Note_on_c, 0, 82, 91
2, 53184, Note_on_c, 0, 70, 88
2, 53372, Note_off_c, 0, 82, 64
2, 53372, Note_off_c, 0, 70, 64
2, 53376, Note_on_c, 0, 81, 90
2, 53376, Note_on_c, 0, 69, 88
2, 53564, Note_off_c, 0, 81, 64
2, 53564, Note_off_c, 0, 69, 64
2, 53568, Note_on_c, 0, 79, 89
2, 53568, Note_on_c, 0, 67, 88
2, 53756, Note_off_c, 0, 79, 64
2, 53756, Note_off_c, 0, 67, 64
2, 53760, Note_on_c, 0, 77, 88
2, 53760, Note_on_c, 0, 70, 88
2, 53760, Note_on_c, 0, 65, 88
2, 53948, Note_off_c, 0, 77, 64
2, 53948, Note_off_c, 0, 70, 64
2, 53948, Note_off_c, 0, 65, 64
2, 53952, Note_on_c, 0, 76, 88
2, 53952, Note_on_c, 0, 64, 88
2, 54140, Note_off_c, 0, 76, 64
2, 54140, Note_off_c, 0, 64, 64
2, 54144, Note_on_c, 0, 75, 88
2, 54144, Note_on_c, 0, 67, 88
2, 54332, Note_off_c, 0, 75, 64
2, 54332, Note_off_c, 0, 67, 64
2, 54336, Note_on_c, 0, 72, 88
2, 54336, Note_on_c, 0, 63, 88
2, 54524, Note_off_c, 0, 72, 64
2, 54524, Note_off_c, 0, 63, 64
2, 54528, Note_on_c, 0, 70, 88
2, 54528, Note_on_c, 0, 62, 88
2, 54816, Note_on_c, 0, 74, 99
2, 54908, Note_off_c, 0, 70, 64
2, 54908, Note_off_c, 0, 62, 64
2, 54908, Note_off_c, 0, 74, 64
2, 54912, Note_on_c, 0, 72, 88
2, 54912, Note_on_c, 0, 63, 88
2, 54912, Note_on_c, 0, 69, 88
2, 55292, Note_off_c, 0, 72, 64
2, 55292, Note_off_c, 0, 63, 64
2, 55292, Note_off_c, 0, 69, 64
2, 55296, Note_on_c, 0, 70, 92
2, 55296, Note_on_c, 0, 65, 92
2, 55296, Note_on_c, 0, 62, 92
2, 55676, Note_off_c, 0, 70, 64
2, 55676, Note_off_c, 0, 65, 64
2, 55676, Note_off_c, 0, 62, 64
2, 56064, Note_on_c, 0, 71, 67
2, 56252, Note_off_c, 0, 71, 64
2, 56256, Note_on_c, 0, 72, 67
2, 56444, Note_off_c, 0, 72, 64
2, 56448, Note_on_c, 0, 74, 67
2, 56636, Note_off_c, 0, 74, 64
2, 56640, Note_on_c, 0, 75, 67
2, 56828, Note_off_c, 0, 75, 64
2, 56832, Note_on_c, 0, 79, 67
2, 57020, Note_off_c, 0, 79, 64
2, 57024, Note_on_c, 0, 77, 67
2, 57212, Note_off_c, 0, 77, 64
2, 57600, Note_on_c, 0, 71, 67
2, 57788, Note_off_c, 0, 71, 64
2, 57792, Note_on_c, 0, 72, 67
2, 57980, Note_off_c, 0, 72, 64
2, 57984, Note_on_c, 0, 74, 67
2, 58172, Note_off_c, 0, 74, 64
2, 58176, Note_on_c, 0, 75, 67
2, 58364, Note_off_c, 0, 75, 64
2, 58368, Note_on_c, 0, 79, 67
2, 58556, Note_off_c, 0, 79, 64
2, 58560, Note_on_c, 0, 77, 67
2, 58748, Note_off_c, 0, 77, 64
2, 59136, Note_on_c, 0, 64, 67
2, 59136, Note_on_c, 0, 76, 67
2, 59324, Note_off_c, 0, 64, 64
2, 59324, Note_off_c, 0, 76, 64
2, 59328, Note_on_c, 0, 77, 67
2, 59328, Note_on_c, 0, 65, 67
2, 59516, Note_off_c, 0, 77, 64
2, 59516, Note_off_c, 0, 65, 64
2, 59520, Note_on_c, 0, 79, 70
2, 59520, Note_on_c, 0, 67, 67
2, 59708, Note_off_c, 0, 79, 64
2, 59708, Note_off_c, 0, 67, 64
2, 59712, Note_on_c, 0, 81, 71
2, 59712, Note_on_c, 0, 69, 67
2, 59900, Note_off_c, 0, 81, 64
2, 59900, Note_off_c, 0, 69, 64
2, 59904, Note_on_c, 0, 84, 74
2, 59904, Note_on_c, 0, 75, 67
2, 59904, Note_on_c, 0, 72, 67
2, 60668, Note_off_c, 0, 84, 64
2, 60668, Note_off_c, 0, 75, 64
2, 60668, Note_off_c, 0, 72, 64
2, 60672, Note_on_c, 0, 82, 73
2, 60672, Note_on_c, 0, 74, 67
2, 60672, Note_on_c, 0, 70, 67
2, 61052, Note_off_c, 0, 82, 64
2, 61052, Note_off_c, 0, 74, 64
2, 61052, Note_off_c, 0, 70, 64
2, 61440, Note_on_c, 0, 65, 83
2, 61500, Note_off_c, 0, 65, 64
2, 61504, Note_on_c, 0, 77, 78
2, 62200, Note_off_c, 0, 77, 64
2, 62208, Note_on_c, 0, 70, 78
2, 62588, Note_off_c, 0, 70, 64
2, 62592, Note_on_c, 0, 72, 78
2, 62632, Note_off_c, 0, 72, 64
2, 62640, Note_on_c, 0, 70, 78
2, 62680, Note_off_c, 0, 70, 64
2, 62688, Note_on_c, 0, 69, 78
2, 62720, Note_on_c, 0, 70, 78
2, 62728, Note_off_c, 0, 69, 64
2, 62760, Note_off_c, 0, 70, 64
2, 62784, Note_on_c, 0, 74, 78
2, 62972, Note_off_c, 0, 74, 64
2, 62976, Note_on_c, 0, 74, 78
2, 63164, Note_off_c, 0, 74, 64
2, 63168, Note_on_c, 0, 72, 78
2, 63356, Note_off_c, 0, 72, 64
2, 63360, Note_on_c, 0, 70, 78
2, 63740, Note_off_c, 0, 70, 64
2, 64032, Note_on_c, 0, 65, 83
2, 64124, Note_off_c, 0, 65, 64
2, 64128, Note_on_c, 0, 74, 78
2, 64412, Note_off_c, 0, 74, 64
2, 64416, Note_on_c, 0, 70, 78
2, 64508, Note_off_c, 0, 70, 64
2, 64512, Note_on_c, 0, 77, 79
2, 64604, Note_off_c, 0, 77, 64
2, 64608, Note_on_c, 0, 74, 83
2, 64700, Note_off_c, 0, 74, 64
2, 64704, Note_on_c, 0, 82, 79
2, 64796, Note_off_c, 0, 82, 64
2, 64800, Note_on_c, 0, 77, 85
2, 64892, Note_off_c, 0, 77, 64
2, 64896, Note_on_c, 0, 86, 83
2, 65468, Note_off_c, 0, 86, 64
2, 65472, Note_on_c, 0, 82, 82
2, 65660, Note_off_c, 0, 82, 64
2, 65664, Note_on_c, 0, 77, 79
2, 65852, Note_off_c, 0, 77, 64
2, 65856, Note_on_c, 0, 74, 78
2, 66044, Note_off_c, 0, 74, 64
2, 66048, Note_on_c, 0, 77, 81
2, 66236, Note_off_c, 0, 77, 64
2, 66240, Note_on_c, 0, 75, 79
2, 66428, Note_off_c, 0, 75, 64
2, 66432, Note_on_c, 0, 74, 79
2, 66812, Note_off_c, 0, 74, 64
2, 67584, Note_on_c, 0, 70, 78
2, 67964, Note_off_c, 0, 70, 64
2, 67968, Note_on_c, 0, 75, 78
2, 68536, Note_off_c, 0, 75, 64
2, 68544, Note_on_c, 0, 77, 79
2, 68584, Note_off_c, 0, 77, 64
2, 68592, Note_on_c, 0, 75, 78
2, 68632, Note_off_c, 0, 75, 64
2, 68640, Note_on_c, 0, 74, 77
2, 68680, Note_off_c, 0, 74, 64
2, 68688, Note_on_c, 0, 75, 78
2, 68728, Note_off_c, 0, 75, 64
2, 68736, Note_on_c, 0, 77, 79
2, 68924, Note_off_c, 0, 77, 64
2, 68928, Note_on_c, 0, 79, 80
2, 69116, Note_off_c, 0, 79, 64
2, 69120, Note_on_c, 0, 79, 80
2, 69308, Note_off_c, 0, 79, 64
2, 69312, Note_on_c, 0, 77, 79
2, 69500, Note_off_c, 0, 77, 64
2, 69504, Note_on_c, 0, 77, 79
2, 70268, Note_off_c, 0, 77, 64
2, 70272, Note_on_c, 0, 82, 78
2, 70652, Note_off_c, 0, 82, 64
2, 70656, Note_on_c, 0, 82, 82
2, 70844, Note_off_c, 0, 82, 64
2, 70848, Note_on_c, 0, 81, 81
2, 71036, Note_off_c, 0, 81, 64
2, 71040, Note_on_c, 0, 84, 83
2, 71804, Note_off_c, 0, 84, 64
2, 71808, Note_on_c, 0, 75, 78
2, 72188, Note_off_c, 0, 75, 64
2, 72192, Note_on_c, 0, 74, 77
2, 72380, Note_off_c, 0, 74, 64
2, 72384, Note_on_c, 0, 75, 78
2, 72572, Note_off_c, 0, 75, 64
2, 72576, Note_on_c, 0, 77, 79
2, 72956, Note_off_c, 0, 77, 64
2, 73728, Note_on_c, 0, 70, 78
2, 74108, Note_off_c, 0, 70, 64
2, 74112, Note_on_c, 0, 82, 82
2, 74876, Note_off_c, 0, 82, 64
2, 74880, Note_on_c, 0, 79, 82
2, 75260, Note_off_c, 0, 79, 64
2, 75264, Note_on_c, 0, 77, 79
2, 75644, Note_off_c, 0, 77, 64
2, 75648, Note_on_c, 0, 82, 82
2, 76028, Note_off_c, 0, 82, 64
2, 76032, Note_on_c, 0, 86, 84
2, 76412, Note_off_c, 0, 86, 64
2, 76416, Note_on_c, 0, 89, 86
2, 76796, Note_off_c, 0, 89, 64
2, 76800, Note_on_c, 0, 87, 85
2, 77180, Note_off_c, 0, 87, 64
2, 77184, Note_on_c, 0, 84, 83
2, 77564, Note_off_c, 0, 84, 64
2, 77568, Note_on_c, 0, 81, 81
2, 77948, Note_off_c, 0, 81, 64
2, 77952, Note_on_c, 0, 75, 78
2, 78332, Note_off_c, 0, 75, 64
2, 78336, Note_on_c, 0, 75, 78
2, 78396, Note_off_c, 0, 75, 64
2, 78400, Note_on_c, 0, 74, 78
2, 78528, Note_off_c, 0, 74, 64
2, 78528, Note_on_c, 0, 72, 78
2, 78620, Note_off_c, 0, 72, 64
2, 78624, Note_on_c, 0, 70, 78
2, 78716, Note_off_c, 0, 70, 64
2, 78720, Note_on_c, 0, 70, 78
2, 79100, Note_off_c, 0, 70, 64
2, 79872, Note_on_c, 0, 74, 89
2, 79932, Note_off_c, 0, 74, 64
2, 79936, Note_on_c, 0, 86, 84
2, 80828, Note_off_c, 0, 86, 64
2, 80832, Note_on_c, 0, 87, 85
2, 81008, Note_on_c, 0, 81, 82
2, 81020, Note_off_c, 0, 87, 64
2, 81196, Note_off_c, 0, 81, 64
2, 81216, Note_on_c, 0, 86, 85
2, 81404, Note_off_c, 0, 86, 64
2, 81408, Note_on_c, 0, 84, 84
2, 81788, Note_off_c, 0, 84, 64
2, 81792, Note_on_c, 0, 82, 83
2, 82172, Note_off_c, 0, 82, 64
2, 82944, Note_on_c, 0, 72, 89
2, 83004, Note_off_c, 0, 72, 64
2, 83008, Note_on_c, 0, 84, 83
2, 83900, Note_off_c, 0, 84, 64
2, 83904, Note_on_c, 0, 86, 84
2, 84092, Note_off_c, 0, 86, 64
2, 84096, Note_on_c, 0, 79, 81
2, 84284, Note_off_c, 0, 79, 64
2, 84288, Note_on_c, 0, 84, 83
2, 84476, Note_off_c, 0, 84, 64
2, 84480, Note_on_c, 0, 82, 82
2, 84860, Note_off_c, 0, 82, 64
2, 84864, Note_on_c, 0, 81, 82
2, 85244, Note_off_c, 0, 81, 64
2, 86016, Note_on_c, 0, 72, 89
2, 86076, Note_off_c, 0, 72, 64
2, 86080, Note_on_c, 0, 80, 82
2, 86784, Note_off_c, 0, 80, 64
2, 86784, Note_on_c, 0, 76, 90
2, 86844, Note_off_c, 0, 76, 64
2, 86848, Note_on_c, 0, 85, 85
2, 87552, Note_off_c, 0, 85, 64
2, 87552, Note_on_c, 0, 77, 91
2, 87612, Note_off_c, 0, 77, 64
2, 87616, Note_on_c, 0, 84, 84
2, 88320, Note_off_c, 0, 84, 64
2, 88320, Note_on_c, 0, 84, 83
2, 88412, Note_off_c, 0, 84, 64
2, 88416, Note_on_c, 0, 82, 82
2, 88508, Note_off_c, 0, 82, 64
2, 88512, Note_on_c, 0, 80, 82
2, 88604, Note_off_c, 0, 80, 64
2, 88608, Note_on_c, 0, 79, 82
2, 88700, Note_off_c, 0, 79, 64
2, 88704, Note_on_c, 0, 78, 81
2, 88796, Note_off_c, 0, 78, 64
2, 88800, Note_on_c, 0, 79, 82
2, 88892, Note_off_c, 0, 79, 64
2, 88896, Note_on_c, 0, 82, 82
2, 88988, Note_off_c, 0, 82, 64
2, 88992, Note_on_c, 0, 79, 82
2, 89084, Note_off_c, 0, 79, 64
2, 89088, Note_on_c, 0, 79, 82
2, 89276, Note_off_c, 0, 79, 64
2, 89280, Note_on_c, 0, 77, 81
2, 89468, Note_off_c, 0, 77, 64
2, 89472, Note_on_c, 0, 77, 81
2, 90236, Note_off_c, 0, 77, 64
2, 90240, Note_on_c, 0, 76, 79
2, 90620, Note_off_c, 0, 76, 64
2, 90624, Note_on_c, 0, 77, 81
2, 91004, Note_off_c, 0, 77, 64
2, 91008, Note_on_c, 0, 79, 82
2, 91048, Note_off_c, 0, 79, 64
2, 91056, Note_on_c, 0, 77, 81
2, 91096, Note_off_c, 0, 77, 64
2, 91104, Note_on_c, 0, 75, 79
2, 91144, Note_off_c, 0, 75, 64
2, 91152, Note_on_c, 0, 77, 81
2, 91192, Note_off_c, 0, 77, 64
2, 91200, Note_on_c, 0, 79, 82
2, 91292, Note_off_c, 0, 79, 64
2, 91296, Note_on_c, 0, 80, 82
2, 91388, Note_off_c, 0, 80, 64
2, 91392, Note_on_c, 0, 79, 82
2, 91516, Note_off_c, 0, 79, 64
2, 91520, Note_on_c, 0, 72, 78
2, 91644, Note_off_c, 0, 72, 64
2, 91648, Note_on_c, 0, 74, 79
2, 91772, Note_off_c, 0, 74, 64
2, 91776, Note_on_c, 0, 76, 79
2, 91900, Note_off_c, 0, 76, 64
2, 91904, Note_on_c, 0, 77, 81
2, 92028, Note_off_c, 0, 77, 64
2, 92032, Note_on_c, 0, 79, 82
2, 92156, Note_off_c, 0, 79, 64
2, 92160, Note_on_c, 0, 81, 82
2, 92636, Note_off_c, 0, 81, 64
2, 92640, Note_on_c, 0, 77, 81
2, 92732, Note_off_c, 0, 77, 64
2, 92736, Note_on_c, 0, 81, 82
2, 92828, Note_off_c, 0, 81, 64
2, 92832, Note_on_c, 0, 84, 83
2, 92924, Note_off_c, 0, 84, 64
2, 92928, Note_on_c, 0, 82, 82
2, 93404, Note_off_c, 0, 82, 64
2, 93408, Note_on_c, 0, 79, 82
2, 93500, Note_off_c, 0, 79, 64
2, 93504, Note_on_c, 0, 82, 82
2, 93596, Note_off_c, 0, 82, 64
2, 93600, Note_on_c, 0, 86, 83
2, 93692, Note_off_c, 0, 86, 64
2, 93696, Note_on_c, 0, 84, 83
2, 93980, Note_off_c, 0, 84, 64
2, 93984, Note_on_c, 0, 81, 82
2, 94076, Note_off_c, 0, 81, 64
2, 94080, Note_on_c, 0, 89, 86
2, 94652, Note_off_c, 0, 89, 64
2, 94656, Note_on_c, 0, 79, 82
2, 94844, Note_off_c, 0, 79, 64
2, 94848, Note_on_c, 0, 82, 82
2, 95036, Note_off_c, 0, 82, 64
2, 95040, Note_on_c, 0, 86, 84
2, 95228, Note_off_c, 0, 86, 64
2, 95232, Note_on_c, 0, 86, 84
2, 95420, Note_off_c, 0, 86, 64
2, 95424, Note_on_c, 0, 77, 81
2, 95612, Note_off_c, 0, 77, 64
2, 95616, Note_on_c, 0, 77, 81
2, 96380, Note_off_c, 0, 77, 64
2, 96384, Note_on_c, 0, 81, 82
2, 96572, Note_off_c, 0, 81, 64
2, 96576, Note_on_c, 0, 79, 82
2, 96764, Note_off_c, 0, 79, 64
2, 96768, Note_on_c, 0, 77, 81
2, 97148, Note_off_c, 0, 77, 64
2, 97536, Note_on_c, 0, 78, 81
2, 97724, Note_off_c, 0, 78, 64
2, 97728, Note_on_c, 0, 79, 82
2, 97916, Note_off_c, 0, 79, 64
2, 97920, Note_on_c, 0, 81, 82
2, 98108, Note_off_c, 0, 81, 64
2, 98112, Note_on_c, 0, 82, 83
2, 98300, Note_off_c, 0, 82, 64
2, 98304, Note_on_c, 0, 86, 84
2, 98492, Note_off_c, 0, 86, 64
2, 98496, Note_on_c, 0, 84, 83
2, 98684, Note_off_c, 0, 84, 64
2, 99072, Note_on_c, 0, 78, 81
2, 99260, Note_off_c, 0, 78, 64
2, 99264, Note_on_c, 0, 79, 82
2, 99452, Note_off_c, 0, 79, 64
2, 99456, Note_on_c, 0, 81, 82
2, 99644, Note_off_c, 0, 81, 64
2, 99648, Note_on_c, 0, 82, 83
2, 99836, Note_off_c, 0, 82, 64
2, 99840, Note_on_c, 0, 86, 84
2, 100028, Note_off_c, 0, 86, 64
2, 100032, Note_on_c, 0, 84, 83
2, 100220, Note_off_c, 0, 84, 64
2, 100608, Note_on_c, 0, 71, 78
2, 100796, Note_off_c, 0, 71, 64
2, 100800, Note_on_c, 0, 72, 78
2, 100988, Note_off_c, 0, 72, 64
2, 100992, Note_on_c, 0, 74, 79
2, 101180, Note_off_c, 0, 74, 64
2, 101184, Note_on_c, 0, 76, 79
2, 101372, Note_off_c, 0, 76, 64
2, 101376, Note_on_c, 0, 79, 82
2, 101660, Note_off_c, 0, 79, 64
2, 101664, Note_on_c, 0, 77, 81
2, 101756, Note_off_c, 0, 77, 64
2, 101760, Note_on_c, 0, 77, 81
2, 102140, Note_off_c, 0, 77, 64
2, 102144, Note_on_c, 0, 77, 81
2, 102524, Note_off_c, 0, 77, 64
2, 102528, Note_on_c, 0, 77, 81
2, 102908, Note_off_c, 0, 77, 64
2, 102912, Note_on_c, 0, 77, 81
2, 102952, Note_off_c, 0, 77, 64
2, 102960, Note_on_c, 0, 79, 82
2, 103000, Note_off_c, 0, 79, 64
2, 103008, Note_on_c, 0, 77, 81
2, 103048, Note_off_c, 0, 77, 64
2, 103056, Note_on_c, 0, 75, 80
2, 103096, Note_off_c, 0, 75, 64
2, 103104, Note_on_c, 0, 77, 93
2, 103144, Note_off_c, 0, 77, 64
2, 103152, Note_on_c, 0, 87, 85
2, 103488, Note_off_c, 0, 87, 64
2, 103488, Note_on_c, 0, 86, 84
2, 103580, Note_off_c, 0, 86, 64
2, 103584, Note_on_c, 0, 84, 83
2, 103676, Note_off_c, 0, 84, 64
2, 103680, Note_on_c, 0, 82, 82
2, 103772, Note_off_c, 0, 82, 64
2, 103776, Note_on_c, 0, 81, 82
2, 103868, Note_off_c, 0, 81, 64
2, 103872, Note_on_c, 0, 79, 82
2, 103964, Note_off_c, 0, 79, 64
2, 103968, Note_on_c, 0, 77, 81
2, 104060, Note_off_c, 0, 77, 64
2, 104064, Note_on_c, 0, 76, 79
2, 104156, Note_off_c, 0, 76, 64
2, 104160, Note_on_c, 0, 77, 81
2, 104252, Note_off_c, 0, 77, 64
2, 104256, Note_on_c, 0, 79, 82
2, 104348, Note_off_c, 0, 79, 64
2, 104352, Note_on_c, 0, 77, 81
2, 104444, Note_off_c, 0, 77, 64
2, 104448, Note_on_c, 0, 77, 81
2, 105212, Note_off_c, 0, 77, 64
2, 105216, Note_on_c, 0, 76, 79
2, 105404, Note_off_c, 0, 76, 64
2, 105408, Note_on_c, 0, 77, 81
2, 105596, Note_off_c, 0, 77, 64
2, 105600, Note_on_c, 0, 76, 79
2, 105788, Note_off_c, 0, 76, 64
2, 105792, Note_on_c, 0, 77, 81
2, 105980, Note_off_c, 0, 77, 64
2, 105984, Note_on_c, 0, 79, 82
2, 106172, Note_off_c, 0, 79, 64
2, 106176, Note_on_c, 0, 77, 81
2, 106364, Note_off_c, 0, 77, 64
2, 106368, Note_on_c, 0, 75, 79
2, 106556, Note_off_c, 0, 75, 64
2, 106560, Note_on_c, 0, 74, 79
2, 106748, Note_off_c, 0, 74, 64
2, 106752, Note_on_c, 0, 74, 79
2, 106936, Note_off_c, 0, 74, 64
2, 106944, Note_on_c, 0, 75, 79
2, 106984, Note_off_c, 0, 75, 64
2, 106992, Note_on_c, 0, 74, 79
2, 107032, Note_off_c, 0, 74, 64
2, 107040, Note_on_c, 0, 72, 78
2, 107080, Note_off_c, 0, 72, 64
2, 107088, Note_on_c, 0, 74, 79
2, 107128, Note_off_c, 0, 74, 64
2, 107136, Note_on_c, 0, 77, 81
2, 107420, Note_off_c, 0, 77, 64
2, 107424, Note_on_c, 0, 74, 79
2, 107516, Note_off_c, 0, 74, 64
2, 107520, Note_on_c, 0, 70, 78
2, 107708, Note_off_c, 0, 70, 64
2, 107904, Note_on_c, 0, 70, 78
2, 108092, Note_off_c, 0, 70, 64
2, 108288, Note_on_c, 0, 65, 78
2, 108476, Note_off_c, 0, 65, 64
2, 108672, Note_on_c, 0, 65, 78
2, 108860, Note_off_c, 0, 65, 64
2, 109056, Note_on_c, 0, 70, 78
2, 109436, Note_off_c, 0, 70, 64
2, 109440, Note_on_c, 0, 72, 78
2, 109480, Note_off_c, 0, 72, 64
2, 109488, Note_on_c, 0, 70, 78
2, 109528, Note_off_c, 0, 70, 64
2, 109536, Note_on_c, 0, 69, 78
2, 109576, Note_off_c, 0, 69, 64
2, 109584, Note_on_c, 0, 70, 78
2, 109624, Note_off_c, 0, 70, 64
2, 109632, Note_on_c, 0, 72, 78
2, 109724, Note_off_c, 0, 72, 64
2, 109728, Note_on_c, 0, 74, 78
2, 109820, Note_off_c, 0, 74, 64
2, 109824, Note_on_c, 0, 72, 78
2, 110012, Note_off_c, 0, 72, 64
2, 110016, Note_on_c, 0, 74, 79
2, 110204, Note_off_c, 0, 74, 64
2, 110208, Note_on_c, 0, 75, 79
2, 110396, Note_off_c, 0, 75, 64
2, 110400, Note_on_c, 0, 76, 79
2, 110588, Note_off_c, 0, 76, 64
2, 110592, Note_on_c, 0, 77, 81
2, 111356, Note_off_c, 0, 77, 64
2, 111360, Note_on_c, 0, 76, 79
2, 111452, Note_off_c, 0, 76, 64
2, 111552, Note_on_c, 0, 77, 81
2, 111644, Note_off_c, 0, 77, 64
2, 111744, Note_on_c, 0, 76, 79
2, 111836, Note_off_c, 0, 76, 64
2, 111936, Note_on_c, 0, 77, 81
2, 112028, Note_off_c, 0, 77, 64
2, 112128, Note_on_c, 0, 79, 82
2, 112316, Note_off_c, 0, 79, 64
2, 112320, Note_on_c, 0, 77, 81
2, 112508, Note_off_c, 0, 77, 64
2, 112512, Note_on_c, 0, 75, 79
2, 112700, Note_off_c, 0, 75, 64
2, 112704, Note_on_c, 0, 74, 79
2, 112892, Note_off_c, 0, 74, 64
2, 112896, Note_on_c, 0, 74, 78
2, 113080, Note_off_c, 0, 74, 64
2, 113088, Note_on_c, 0, 75, 79
2, 113128, Note_off_c, 0, 75, 64
2, 113136, Note_on_c, 0, 74, 79
2, 113176, Note_off_c, 0, 74, 64
2, 113184, Note_on_c, 0, 72, 78
2, 113224, Note_off_c, 0, 72, 64
2, 113232, Note_on_c, 0, 74, 79
2, 113272, Note_off_c, 0, 74, 64
2, 113280, Note_on_c, 0, 77, 81
2, 113564, Note_off_c, 0, 77, 64
2, 113568, Note_on_c, 0, 74, 79
2, 113660, Note_off_c, 0, 74, 64
2, 113664, Note_on_c, 0, 70, 78
2, 113852, Note_off_c, 0, 70, 64
2, 114048, Note_on_c, 0, 70, 78
2, 114236, Note_off_c, 0, 70, 64
2, 114432, Note_on_c, 0, 65, 78
2, 114620, Note_off_c, 0, 65, 64
2, 114816, Note_on_c, 0, 65, 78
2, 115004, Note_off_c, 0, 65, 64
2, 115200, Note_on_c, 0, 63, 78
2, 115200, Note_on_c, 0, 60, 78
2, 115200, Note_on_c, 0, 57, 78
2, 115200, Note_on_c, 0, 53, 78
2, 115964, Note_off_c, 0, 63, 64
2, 115964, Note_off_c, 0, 60, 64
2, 115964, Note_off_c, 0, 57, 64
2, 115964, Note_off_c, 0, 53, 64
2, 115968, Note_on_c, 0, 62, 78
2, 115968, Note_on_c, 0, 58, 78
2, 115968, Note_on_c, 0, 53, 78
2, 116156, Note_off_c, 0, 62, 64
2, 116156, Note_off_c, 0, 58, 64
2, 116156, Note_off_c, 0, 53, 64
2, 116160, Note_on_c, 0, 53, 89
2, 116220, Note_off_c, 0, 53, 64
2, 116224, Note_on_c, 0, 65, 78
2, 116352, Note_off_c, 0, 65, 64
2, 116352, Note_on_c, 0, 58, 89
2, 116412, Note_off_c, 0, 58, 64
2, 116416, Note_on_c, 0, 70, 78
2, 116544, Note_off_c, 0, 70, 64
2, 116544, Note_on_c, 0, 62, 89
2, 116604, Note_off_c, 0, 62, 64
2, 116608, Note_on_c, 0, 74, 78
2, 116736, Note_off_c, 0, 74, 64
2, 116736, Note_on_c, 0, 65, 89
2, 116796, Note_off_c, 0, 65, 64
2, 116800, Note_on_c, 0, 77, 81
2, 117112, Note_off_c, 0, 77, 64
2, 117504, Note_on_c, 0, 76, 88
2, 117504, Note_on_c, 0, 73, 88
2, 117504, Note_on_c, 0, 64, 88
2, 117692, Note_off_c, 0, 76, 64
2, 117692, Note_off_c, 0, 73, 64
2, 117692, Note_off_c, 0, 64, 64
2, 117696, Note_on_c, 0, 77, 88
2, 117696, Note_on_c, 0, 74, 88
2, 117696, Note_on_c, 0, 65, 88
2, 117884, Note_off_c, 0, 77, 64
2, 117884, Note_off_c, 0, 74, 64
2, 117884, Note_off_c, 0, 65, 64
2, 117888, Note_on_c, 0, 76, 88
2, 117888, Note_on_c, 0, 73, 88
2, 117888, Note_on_c, 0, 64, 88
2, 118076, Note_off_c, 0, 76, 64
2, 118076, Note_off_c, 0, 73, 64
2, 118076, Note_off_c, 0, 64, 64
2, 118080, Note_on_c, 0, 77, 88
2, 118080, Note_on_c, 0, 74, 88
2, 118080, Note_on_c, 0, 65, 88
2, 118268, Note_off_c, 0, 77, 64
2, 118268, Note_off_c, 0, 74, 64
2, 118268, Note_off_c, 0, 65, 64
2, 118272, Note_on_c, 0, 79, 88
2, 118272, Note_on_c, 0, 75, 88
2, 118272, Note_on_c, 0, 67, 88
2, 118460, Note_off_c, 0, 79, 64
2, 118460, Note_off_c, 0, 75, 64
2, 118460, Note_off_c, 0, 67, 64
2, 118464, Note_on_c, 0, 77, 88
2, 118464, Note_on_c, 0, 74, 88
2, 118464, Note_on_c, 0, 65, 88
2, 118652, Note_off_c, 0, 77, 64
2, 118652, Note_off_c, 0, 74, 64
2, 118652, Note_off_c, 0, 65, 64
2, 118656, Note_on_c, 0, 75, 88
2, 118656, Note_on_c, 0, 63, 88
2, 118656, Note_on_c, 0, 72, 88
2, 118844, Note_off_c, 0, 75, 64
2, 118844, Note_off_c, 0, 63, 64
2, 118844, Note_off_c, 0, 72, 64
2, 118848, Note_on_c, 0, 74, 88
2, 118848, Note_on_c, 0, 70, 88
2, 118848, Note_on_c, 0, 62, 88
2, 119036, Note_off_c, 0, 74, 64
2, 119036, Note_off_c, 0, 70, 64
2, 119036, Note_off_c, 0, 62, 64
2, 119040, Note_on_c, 0, 74, 88
2, 119040, Note_on_c, 0, 70, 88
2, 119040, Note_on_c, 0, 62, 88
2, 119224, Note_off_c, 0, 74, 64
2, 119224, Note_off_c, 0, 70, 64
2, 119224, Note_off_c, 0, 62, 64
2, 119232, Note_on_c, 0, 75, 90
2, 119272, Note_off_c, 0, 75, 64
2, 119280, Note_on_c, 0, 74, 90
2, 119320, Note_off_c, 0, 74, 64
2, 119328, Note_on_c, 0, 72, 90
2, 119368, Note_off_c, 0, 72, 64
2, 119376, Note_on_c, 0, 74, 90
2, 119416, Note_off_c, 0, 74, 64
2, 119424, Note_on_c, 0, 77, 88
2, 119612, Note_off_c, 0, 77, 64
2, 119616, Note_on_c, 0, 74, 88
2, 119804, Note_off_c, 0, 74, 64
2, 119808, Note_on_c, 0, 82, 73
2, 119808, Note_on_c, 0, 74, 67
2, 119808, Note_on_c, 0, 70, 67
2, 119996, Note_off_c, 0, 82, 64
2, 119996, Note_off_c, 0, 74, 64
2, 119996, Note_off_c, 0, 70, 64
2, 120192, Note_on_c, 0, 82, 73
2, 120192, Note_on_c, 0, 70, 67
2, 120380, Note_off_c, 0, 82, 64
2, 120380, Note_off_c, 0, 70, 64
2, 120576, Note_on_c, 0, 77, 67
2, 120576, Note_on_c, 0, 75, 67
2, 120576, Note_on_c, 0, 72, 67
2, 120576, Note_on_c, 0, 65, 67
2, 120764, Note_off_c, 0, 77, 64
2, 120764, Note_off_c, 0, 75, 64
2, 120764, Note_off_c, 0, 72, 64
2, 120764, Note_off_c, 0, 65, 64
2, 120960, Note_on_c, 0, 77, 67
2, 120960, Note_on_c, 0, 65, 67
2, 121148, Note_off_c, 0, 77, 64
2, 121148, Note_off_c, 0, 65, 64
2, 121344, Note_on_c, 0, 82, 73
2, 121344, Note_on_c, 0, 74, 68
2, 121344, Note_on_c, 0, 70, 67
2, 121916, Note_off_c, 0, 82, 64
2, 121916, Note_off_c, 0, 74, 64
2, 121916, Note_off_c, 0, 70, 64
2, 121920, Note_on_c, 0, 84, 74
2, 122012, Note_off_c, 0, 84, 64
2, 122016, Note_on_c, 0, 86, 75
2, 122108, Note_off_c, 0, 86, 64
2, 122112, Note_on_c, 0, 84, 74
2, 122112, Note_on_c, 0, 81, 74
2, 122112, Note_on_c, 0, 72, 74
2, 122300, Note_off_c, 0, 84, 64
2, 122300, Note_off_c, 0, 81, 64
2, 122300, Note_off_c, 0, 72, 64
2, 122304, Note_on_c, 0, 74, 79
2, 122492, Note_off_c, 0, 74, 64
2, 122496, Note_on_c, 0, 75, 82
2, 122684, Note_off_c, 0, 75, 64
2, 122688, Note_on_c, 0, 76, 83
2, 122876, Note_off_c, 0, 76, 64
2, 122880, Note_on_c, 0, 89, 93
2, 122880, Note_on_c, 0, 86, 92
2, 122880, Note_on_c, 0, 77, 88
2, 123644, Note_off_c, 0, 89, 64
2, 123644, Note_off_c, 0, 86, 64
2, 123644, Note_off_c, 0, 77, 64
2, 123648, Note_on_c, 0, 88, 92
2, 123648, Note_on_c, 0, 82, 91
2, 123648, Note_on_c, 0, 76, 88
2, 123836, Note_off_c, 0, 88, 64
2, 123836, Note_off_c, 0, 76, 64
2, 123840, Note_on_c, 0, 89, 93
2, 123840, Note_on_c, 0, 77, 88
2, 124028, Note_off_c, 0, 82, 64
2, 124028, Note_off_c, 0, 89, 64
2, 124028, Note_off_c, 0, 77, 64
2, 124032, Note_on_c, 0, 88, 92
2, 124032, Note_on_c, 0, 76, 88
2, 124032, Note_on_c, 0, 82, 88
2, 124220, Note_off_c, 0, 88, 64
2, 124220, Note_off_c, 0, 76, 64
2, 124224, Note_on_c, 0, 89, 93
2, 124224, Note_on_c, 0, 77, 88
2, 124412, Note_off_c, 0, 82, 64
2, 124412, Note_off_c, 0, 89, 64
2, 124412, Note_off_c, 0, 77, 64
2, 124416, Note_on_c, 0, 91, 94
2, 124416, Note_on_c, 0, 79, 88
2, 124416, Note_on_c, 0, 82, 88
2, 124604, Note_off_c, 0, 91, 64
2, 124604, Note_off_c, 0, 79, 64
2, 124608, Note_on_c, 0, 89, 93
2, 124608, Note_on_c, 0, 77, 88
2, 124796, Note_off_c, 0, 89, 64
2, 124796, Note_off_c, 0, 77, 64
2, 124800, Note_on_c, 0, 87, 92
2, 124800, Note_on_c, 0, 75, 88
2, 124988, Note_off_c, 0, 87, 64
2, 124988, Note_off_c, 0, 75, 64
2, 124992, Note_on_c, 0, 86, 91
2, 124992, Note_on_c, 0, 74, 88
2, 125180, Note_off_c, 0, 82, 64
2, 125180, Note_off_c, 0, 86, 64
2, 125180, Note_off_c, 0, 74, 64
2, 125184, Note_on_c, 0, 86, 91
2, 125184, Note_on_c, 0, 82, 89
2, 125184, Note_on_c, 0, 74, 88
2, 125328, Note_off_c, 0, 86, 64
2, 125328, Note_off_c, 0, 82, 64
2, 125328, Note_off_c, 0, 74, 64
2, 125376, Note_on_c, 0, 75, 88
2, 125416, Note_off_c, 0, 75, 64
2, 125424, Note_on_c, 0, 74, 88
2, 125464, Note_off_c, 0, 74, 64
2, 125472, Note_on_c, 0, 72, 88
2, 125512, Note_off_c, 0, 72, 64
2, 125520, Note_on_c, 0, 74, 88
2, 125560, Note_off_c, 0, 74, 64
2, 125568, Note_on_c, 0, 77, 88
2, 125660, Note_off_c, 0, 77, 64
2, 125664, Note_on_c, 0, 74, 88
2, 125756, Note_off_c, 0, 74, 64
2, 125760, Note_on_c, 0, 77, 88
2, 125852, Note_off_c, 0, 77, 64
2, 125856, Note_on_c, 0, 74, 88
2, 125948, Note_off_c, 0, 74, 64
2, 125952, Note_on_c, 0, 82, 73
2, 125952, Note_on_c, 0, 70, 67
2, 126140, Note_off_c, 0, 82, 64
2, 126140, Note_off_c, 0, 70, 64
2, 126336, Note_on_c, 0, 70, 67
2, 126336, Note_on_c, 0, 82, 73
2, 126524, Note_off_c, 0, 70, 64
2, 126524, Note_off_c, 0, 82, 64
2, 126720, Note_on_c, 0, 77, 70
2, 126720, Note_on_c, 0, 65, 70
2, 126908, Note_off_c, 0, 77, 64
2, 126908, Note_off_c, 0, 65, 64
2, 127104, Note_on_c, 0, 77, 69
2, 127104, Note_on_c, 0, 65, 67
2, 127292, Note_off_c, 0, 77, 64
2, 127292, Note_off_c, 0, 65, 64
2, 127488, Note_on_c, 0, 75, 67
2, 127488, Note_on_c, 0, 72, 67
2, 127488, Note_on_c, 0, 69, 67
2, 127488, Note_on_c, 0, 63, 67
2, 128252, Note_off_c, 0, 75, 64
2, 128252, Note_off_c, 0, 72, 64
2, 128252, Note_off_c, 0, 69, 64
2, 128252, Note_off_c, 0, 63, 64
2, 128256, Note_on_c, 0, 74, 67
2, 128256, Note_on_c, 0, 70, 67
2, 128256, Note_on_c, 0, 62, 67
2, 128444, Note_off_c, 0, 74, 64
2, 128444, Note_off_c, 0, 70, 64
2, 128444, Note_off_c, 0, 62, 64
2, 129024, Note_on_c, 0, 79, 92
2, 129024, Note_on_c, 0, 74, 90
2, 129024, Note_on_c, 0, 70, 90
2, 129212, Note_off_c, 0, 79, 64
2, 129212, Note_off_c, 0, 74, 64
2, 129212, Note_off_c, 0, 70, 64
2, 129280, Note_on_c, 0, 66, 78
2, 129340, Note_off_c, 0, 66, 64
2, 129344, Note_on_c, 0, 67, 78
2, 129404, Note_off_c, 0, 67, 64
2, 129472, Note_on_c, 0, 69, 78
2, 129532, Note_off_c, 0, 69, 64
2, 129536, Note_on_c, 0, 70, 78
2, 129596, Note_off_c, 0, 70, 64
2, 129664, Note_on_c, 0, 73, 78
2, 129724, Note_off_c, 0, 73, 64
2, 129728, Note_on_c, 0, 74, 79
2, 129788, Note_off_c, 0, 74, 64
2, 129856, Note_on_c, 0, 78, 83
2, 129916, Note_off_c, 0, 78, 64
2, 129920, Note_on_c, 0, 79, 84
2, 129980, Note_off_c, 0, 79, 64
2, 130048, Note_on_c, 0, 74, 81
2, 130108, Note_off_c, 0, 74, 64
2, 130112, Note_on_c, 0, 82, 84
2, 130172, Note_off_c, 0, 82, 64
2, 130240, Note_on_c, 0, 72, 78
2, 130300, Note_off_c, 0, 72, 64
2, 130304, Note_on_c, 0, 81, 84
2, 130364, Note_off_c, 0, 81, 64
2, 130432, Note_on_c, 0, 70, 78
2, 130492, Note_off_c, 0, 70, 64
2, 130496, Note_on_c, 0, 79, 84
2, 130556, Note_off_c, 0, 79, 64
2, 130624, Note_on_c, 0, 69, 78
2, 130684, Note_off_c, 0, 69, 64
2, 130688, Note_on_c, 0, 78, 84
2, 130748, Note_off_c, 0, 78, 64
2, 130816, Note_on_c, 0, 66, 78
2, 130876, Note_off_c, 0, 66, 64
2, 130880, Note_on_c, 0, 69, 78
2, 130940, Note_off_c, 0, 69, 64
2, 131008, Note_on_c, 0, 66, 78
2, 131068, Note_off_c, 0, 66, 64
2, 131072, Note_on_c, 0, 69, 78
2, 131132, Note_off_c, 0, 69, 64
2, 131200, Note_on_c, 0, 66, 78
2, 131260, Note_off_c, 0, 66, 64
2, 131264, Note_on_c, 0, 69, 78
2, 131324, Note_off_c, 0, 69, 64
2, 131392, Note_on_c, 0, 66, 78
2, 131452, Note_off_c, 0, 66, 64
2, 131456, Note_on_c, 0, 69, 78
2, 131516, Note_off_c, 0, 69, 64
2, 131584, Note_on_c, 0, 67, 78
2, 131644, Note_off_c, 0, 67, 64
2, 131648, Note_on_c, 0, 70, 78
2, 131708, Note_off_c, 0, 70, 64
2, 131776, Note_on_c, 0, 69, 78
2, 131836, Note_off_c, 0, 69, 64
2, 131840, Note_on_c, 0, 72, 78
2, 131900, Note_off_c, 0, 72, 64
2, 131968, Note_on_c, 0, 70, 78
2, 132028, Note_off_c, 0, 70, 64
2, 132032, Note_on_c, 0, 74, 78
2, 132092, Note_off_c, 0, 74, 64
2, 132096, Note_on_c, 0, 66, 78
2, 132156, Note_off_c, 0, 66, 64
2, 132160, Note_on_c, 0, 69, 78
2, 132220, Note_off_c, 0, 69, 64
2, 132224, Note_on_c, 0, 72, 78
2, 132284, Note_off_c, 0, 72, 64
2, 132288, Note_on_c, 0, 75, 78
2, 132288, Note_on_c, 0, 84, 85
2, 132348, Note_off_c, 0, 75, 64
2, 132352, Note_on_c, 0, 72, 78
2, 132412, Note_off_c, 0, 72, 64
2, 132416, Note_on_c, 0, 69, 78
2, 132476, Note_off_c, 0, 84, 64
2, 132476, Note_off_c, 0, 69, 64
2, 132480, Note_on_c, 0, 66, 78
2, 132480, Note_on_c, 0, 87, 88
2, 132540, Note_off_c, 0, 66, 64
2, 132544, Note_on_c, 0, 69, 78
2, 132604, Note_off_c, 0, 69, 64
2, 132608, Note_on_c, 0, 72, 78
2, 132668, Note_off_c, 0, 87, 64
2, 132668, Note_off_c, 0, 72, 64
2, 132672, Note_on_c, 0, 75, 78
2, 132672, Note_on_c, 0, 84, 85
2, 132732, Note_off_c, 0, 75, 64
2, 132736, Note_on_c, 0, 72, 78
2, 132796, Note_off_c, 0, 72, 64
2, 132800, Note_on_c, 0, 69, 78
2, 132860, Note_off_c, 0, 84, 64
2, 132860, Note_off_c, 0, 69, 64
2, 132864, Note_on_c, 0, 66, 78
2, 132864, Note_on_c, 0, 81, 84
2, 132924, Note_off_c, 0, 66, 64
2, 132928, Note_on_c, 0, 69, 78
2, 132988, Note_off_c, 0, 69, 64
2, 132992, Note_on_c, 0, 72, 78
2, 133052, Note_off_c, 0, 81, 64
2, 133052, Note_off_c, 0, 72, 64
2, 133056, Note_on_c, 0, 74, 78
2, 133056, Note_on_c, 0, 78, 84
2, 133116, Note_off_c, 0, 74, 64
2, 133120, Note_on_c, 0, 72, 78
2, 133180, Note_off_c, 0, 72, 64
2, 133184, Note_on_c, 0, 69, 78
2, 133244, Note_off_c, 0, 78, 64
2, 133244, Note_off_c, 0, 69, 64
2, 133248, Note_on_c, 0, 66, 78
2, 133248, Note_on_c, 0, 86, 86
2, 133308, Note_off_c, 0, 66, 64
2, 133312, Note_on_c, 0, 69, 78
2, 133372, Note_off_c, 0, 69, 64
2, 133376, Note_on_c, 0, 72, 78
2, 133436, Note_off_c, 0, 86, 64
2, 133436, Note_off_c, 0, 72, 64
2, 133440, Note_on_c, 0, 74, 78
2, 133440, Note_on_c, 0, 81, 84
2, 133500, Note_off_c, 0, 74, 64
2, 133504, Note_on_c, 0, 72, 78
2, 133564, Note_off_c, 0, 72, 64
2, 133568, Note_on_c, 0, 69, 78
2, 133628, Note_off_c, 0, 81, 64
2, 133628, Note_off_c, 0, 69, 64
2, 133632, Note_on_c, 0, 62, 78
2, 133632, Note_on_c, 0, 82, 84
2, 133692, Note_off_c, 0, 62, 64
2, 133696, Note_on_c, 0, 67, 78
2, 133756, Note_off_c, 0, 67, 64
2, 133760, Note_on_c, 0, 70, 78
2, 133820, Note_off_c, 0, 82, 64
2, 133820, Note_off_c, 0, 70, 64
2, 133824, Note_on_c, 0, 74, 78
2, 133884, Note_off_c, 0, 74, 64
2, 133888, Note_on_c, 0, 70, 78
2, 133948, Note_off_c, 0, 70, 64
2, 133952, Note_on_c, 0, 67, 78
2, 134012, Note_off_c, 0, 67, 64
2, 134016, Note_on_c, 0, 62, 78
2, 134076, Note_off_c, 0, 62, 64
2, 134080, Note_on_c, 0, 67, 78
2, 134140, Note_off_c, 0, 67, 64
2, 134144, Note_on_c, 0, 70, 78
2, 134204, Note_off_c, 0, 70, 64
2, 134208, Note_on_c, 0, 74, 78
2, 134268, Note_off_c, 0, 74, 64
2, 134272, Note_on_c, 0, 70, 78
2, 134332, Note_off_c, 0, 70, 64
2, 134336, Note_on_c, 0, 67, 78
2, 134396, Note_off_c, 0, 67, 64
2, 134400, Note_on_c, 0, 62, 78
2, 134460, Note_off_c, 0, 62, 64
2, 134464, Note_on_c, 0, 67, 78
2, 134524, Note_off_c, 0, 67, 64
2, 134528, Note_on_c, 0, 70, 78
2, 134588, Note_off_c, 0, 70, 64
2, 134592, Note_on_c, 0, 74, 78
2, 134652, Note_off_c, 0, 74, 64
2, 134656, Note_on_c, 0, 70, 78
2, 134716, Note_off_c, 0, 70, 64
2, 134720, Note_on_c, 0, 67, 78
2, 134780, Note_off_c, 0, 67, 64
2, 134784, Note_on_c, 0, 62, 78
2, 134844, Note_off_c, 0, 62, 64
2, 134848, Note_on_c, 0, 67, 78
2, 134908, Note_off_c, 0, 67, 64
2, 134912, Note_on_c, 0, 70, 78
2, 134972, Note_off_c, 0, 70, 64
2, 134976, Note_on_c, 0, 74, 78
2, 135036, Note_off_c, 0, 74, 64
2, 135040, Note_on_c, 0, 70, 78
2, 135100, Note_off_c, 0, 70, 64
2, 135104, Note_on_c, 0, 67, 78
2, 135164, Note_off_c, 0, 67, 64
2, 135168, Note_on_c, 0, 67, 78
2, 135228, Note_off_c, 0, 67, 64
2, 135232, Note_on_c, 0, 70, 78
2, 135292, Note_off_c, 0, 70, 64
2, 135296, Note_on_c, 0, 69, 78
2, 135356, Note_off_c, 0, 69, 64
2, 135360, Note_on_c, 0, 67, 78
2, 135360, Note_on_c, 0, 79, 84
2, 135420, Note_off_c, 0, 67, 64
2, 135424, Note_on_c, 0, 70, 78
2, 135484, Note_off_c, 0, 70, 64
2, 135488, Note_on_c, 0, 69, 78
2, 135548, Note_off_c, 0, 79, 64
2, 135548, Note_off_c, 0, 69, 64
2, 135552, Note_on_c, 0, 67, 78
2, 135552, Note_on_c, 0, 86, 86
2, 135612, Note_off_c, 0, 67, 64
2, 135616, Note_on_c, 0, 70, 78
2, 135676, Note_off_c, 0, 70, 64
2, 135680, Note_on_c, 0, 69, 78
2, 135740, Note_off_c, 0, 86, 64
2, 135740, Note_off_c, 0, 69, 64
2, 135744, Note_on_c, 0, 67, 78
2, 135744, Note_on_c, 0, 82, 84
2, 135804, Note_off_c, 0, 67, 64
2, 135808, Note_on_c, 0, 70, 78
2, 135868, Note_off_c, 0, 70, 64
2, 135872, Note_on_c, 0, 69, 78
2, 135932, Note_off_c, 0, 82, 64
2, 135932, Note_off_c, 0, 69, 64
2, 135936, Note_on_c, 0, 67, 78
2, 135936, Note_on_c, 0, 87, 86
2, 135996, Note_off_c, 0, 67, 64
2, 136000, Note_on_c, 0, 70, 78
2, 136060, Note_off_c, 0, 70, 64
2, 136064, Note_on_c, 0, 69, 78
2, 136124, Note_off_c, 0, 87, 64
2, 136124, Note_off_c, 0, 69, 64
2, 136128, Note_on_c, 0, 67, 78
2, 136188, Note_off_c, 0, 67, 64
2, 136192, Note_on_c, 0, 70, 78
2, 136252, Note_off_c, 0, 70, 64
2, 136256, Note_on_c, 0, 69, 78
2, 136316, Note_off_c, 0, 69, 64
2, 136320, Note_on_c, 0, 67, 78
2, 136380, Note_off_c, 0, 67, 64
2, 136384, Note_on_c, 0, 70, 78
2, 136444, Note_off_c, 0, 70, 64
2, 136448, Note_on_c, 0, 69, 78
2, 136508, Note_off_c, 0, 69, 64
2, 136512, Note_on_c, 0, 70, 78
2, 136572, Note_off_c, 0, 70, 64
2, 136576, Note_on_c, 0, 69, 78
2, 136636, Note_off_c, 0, 69, 64
2, 136640, Note_on_c, 0, 67, 78
2, 136700, Note_off_c, 0, 67, 64
2, 136704, Note_on_c, 0, 66, 78
2, 136764, Note_off_c, 0, 66, 64
2, 136768, Note_on_c, 0, 69, 78
2, 136828, Note_off_c, 0, 69, 64
2, 136832, Note_on_c, 0, 67, 78
2, 136892, Note_off_c, 0, 67, 64
2, 136896, Note_on_c, 0, 66, 78
2, 136896, Note_on_c, 0, 78, 83
2, 136956, Note_off_c, 0, 66, 64
2, 136960, Note_on_c, 0, 69, 78
2, 137020, Note_off_c, 0, 69, 64
2, 137024, Note_on_c, 0, 67, 78
2, 137084, Note_off_c, 0, 78, 64
2, 137084, Note_off_c, 0, 67, 64
2, 137088, Note_on_c, 0, 66, 78
2, 137088, Note_on_c, 0, 85, 87
2, 137148, Note_off_c, 0, 66, 64
2, 137152, Note_on_c, 0, 69, 78
2, 137212, Note_off_c, 0, 69, 64
2, 137216, Note_on_c, 0, 67, 78
2, 137276, Note_off_c, 0, 85, 64
2, 137276, Note_off_c, 0, 67, 64
2, 137280, Note_on_c, 0, 66, 78
2, 137280, Note_on_c, 0, 81, 84
2, 137340, Note_off_c, 0, 66, 64
2, 137344, Note_on_c, 0, 69, 78
2, 137404, Note_off_c, 0, 69, 64
2, 137408, Note_on_c, 0, 67, 78
2, 137468, Note_off_c, 0, 81, 64
2, 137468, Note_off_c, 0, 67, 64
2, 137472, Note_on_c, 0, 66, 78
2, 137472, Note_on_c, 0, 86, 87
2, 137532, Note_off_c, 0, 66, 64
2, 137536, Note_on_c, 0, 69, 78
2, 137596, Note_off_c, 0, 69, 64
2, 137600, Note_on_c, 0, 67, 78
2, 137660, Note_off_c, 0, 86, 64
2, 137660, Note_off_c, 0, 67, 64
2, 137664, Note_on_c, 0, 66, 78
2, 137724, Note_off_c, 0, 66, 64
2, 137728, Note_on_c, 0, 69, 78
2, 137788, Note_off_c, 0, 69, 64
2, 137792, Note_on_c, 0, 67, 78
2, 137852, Note_off_c, 0, 67, 64
2, 137856, Note_on_c, 0, 66, 78
2, 137916, Note_off_c, 0, 66, 64
2, 137920, Note_on_c, 0, 69, 78
2, 137980, Note_off_c, 0, 69, 64
2, 137984, Note_on_c, 0, 67, 78
2, 138044, Note_off_c, 0, 67, 64
2, 138048, Note_on_c, 0, 69, 78
2, 138108, Note_off_c, 0, 69, 64
2, 138112, Note_on_c, 0, 67, 78
2, 138172, Note_off_c, 0, 67, 64
2, 138176, Note_on_c, 0, 66, 78
2, 138236, Note_off_c, 0, 66, 64
2, 138240, Note_on_c, 0, 64, 78
2, 138300, Note_off_c, 0, 64, 64
2, 138304, Note_on_c, 0, 67, 78
2, 138364, Note_off_c, 0, 67, 64
2, 138368, Note_on_c, 0, 65, 78
2, 138428, Note_off_c, 0, 65, 64
2, 138432, Note_on_c, 0, 64, 78
2, 138432, Note_on_c, 0, 76, 83
2, 138492, Note_off_c, 0, 64, 64
2, 138496, Note_on_c, 0, 67, 81
2, 138556, Note_off_c, 0, 67, 64
2, 138560, Note_on_c, 0, 65, 83
2, 138620, Note_off_c, 0, 76, 64
2, 138620, Note_off_c, 0, 65, 64
2, 138624, Note_on_c, 0, 64, 81
2, 138624, Note_on_c, 0, 83, 84
2, 138684, Note_off_c, 0, 64, 64
2, 138688, Note_on_c, 0, 67, 81
2, 138748, Note_off_c, 0, 67, 64
2, 138752, Note_on_c, 0, 65, 81
2, 138812, Note_off_c, 0, 83, 64
2, 138812, Note_off_c, 0, 65, 64
2, 138816, Note_on_c, 0, 64, 81
2, 138816, Note_on_c, 0, 79, 84
2, 138876, Note_off_c, 0, 64, 64
2, 138880, Note_on_c, 0, 67, 81
2, 138940, Note_off_c, 0, 67, 64
2, 138944, Note_on_c, 0, 65, 81
2, 139004, Note_off_c, 0, 79, 64
2, 139004, Note_off_c, 0, 65, 64
2, 139008, Note_on_c, 0, 63, 81
2, 139008, Note_on_c, 0, 84, 85
2, 139068, Note_off_c, 0, 63, 64
2, 139072, Note_on_c, 0, 67, 78
2, 139132, Note_off_c, 0, 67, 64
2, 139136, Note_on_c, 0, 72, 78
2, 139196, Note_off_c, 0, 84, 64
2, 139196, Note_off_c, 0, 72, 64
2, 139200, Note_on_c, 0, 63, 78
2, 139260, Note_off_c, 0, 63, 64
2, 139264, Note_on_c, 0, 67, 78
2, 139324, Note_off_c, 0, 67, 64
2, 139328, Note_on_c, 0, 71, 78
2, 139388, Note_off_c, 0, 71, 64
2, 139392, Note_on_c, 0, 63, 78
2, 139452, Note_off_c, 0, 63, 64
2, 139456, Note_on_c, 0, 67, 78
2, 139516, Note_off_c, 0, 67, 64
2, 139520, Note_on_c, 0, 72, 78
2, 139580, Note_off_c, 0, 72, 64
2, 139584, Note_on_c, 0, 63, 78
2, 139644, Note_off_c, 0, 63, 64
2, 139648, Note_on_c, 0, 67, 78
2, 139708, Note_off_c, 0, 67, 64
2, 139712, Note_on_c, 0, 73, 78
2, 139772, Note_off_c, 0, 73, 64
2, 139776, Note_on_c, 0, 74, 85
2, 139776, Note_on_c, 0, 69, 85
2, 139776, Note_on_c, 0, 66, 85
2, 139964, Note_off_c, 0, 74, 64
2, 139964, Note_off_c, 0, 69, 64
2, 139964, Note_off_c, 0, 66, 64
2, 140032, Note_on_c, 0, 61, 78
2, 140092, Note_off_c, 0, 61, 64
2, 140096, Note_on_c, 0, 62, 78
2, 140156, Note_off_c, 0, 62, 64
2, 140224, Note_on_c, 0, 65, 78
2, 140284, Note_off_c, 0, 65, 64
2, 140288, Note_on_c, 0, 66, 78
2, 140348, Note_off_c, 0, 66, 64
2, 140416, Note_on_c, 0, 68, 78
2, 140476, Note_off_c, 0, 68, 64
2, 140480, Note_on_c, 0, 69, 78
2, 140540, Note_off_c, 0, 69, 64
2, 140608, Note_on_c, 0, 73, 78
2, 140668, Note_off_c, 0, 73, 64
2, 140672, Note_on_c, 0, 74, 79
2, 140732, Note_off_c, 0, 74, 64
2, 140800, Note_on_c, 0, 77, 81
2, 140860, Note_off_c, 0, 77, 64
2, 140864, Note_on_c, 0, 78, 81
2, 140924, Note_off_c, 0, 78, 64
2, 140992, Note_on_c, 0, 80, 82
2, 141052, Note_off_c, 0, 80, 64
2, 141056, Note_on_c, 0, 81, 82
2, 141116, Note_off_c, 0, 81, 64
2, 141184, Note_on_c, 0, 85, 83
2, 141244, Note_off_c, 0, 85, 64
2, 141248, Note_on_c, 0, 86, 84
2, 141308, Note_off_c, 0, 86, 64
2, 141312, Note_on_c, 0, 74, 86
2, 141312, Note_on_c, 0, 70, 91
2, 141312, Note_on_c, 0, 77, 93
2, 141500, Note_off_c, 0, 74, 64
2, 141500, Note_off_c, 0, 70, 64
2, 141500, Note_off_c, 0, 77, 64
2, 141568, Note_on_c, 0, 66, 78
2, 141628, Note_off_c, 0, 66, 64
2, 141632, Note_on_c, 0, 67, 78
2, 141692, Note_off_c, 0, 67, 64
2, 141760, Note_on_c, 0, 69, 78
2, 141820, Note_off_c, 0, 69, 64
2, 141824, Note_on_c, 0, 70, 78
2, 141884, Note_off_c, 0, 70, 64
2, 141952, Note_on_c, 0, 73, 78
2, 142012, Note_off_c, 0, 73, 64
2, 142016, Note_on_c, 0, 74, 78
2, 142076, Note_off_c, 0, 74, 64
2, 142144, Note_on_c, 0, 78, 78
2, 142204, Note_off_c, 0, 78, 64
2, 142208, Note_on_c, 0, 79, 82
2, 142268, Note_off_c, 0, 79, 64
2, 142336, Note_on_c, 0, 74, 78
2, 142396, Note_off_c, 0, 74, 64
2, 142400, Note_on_c, 0, 82, 82
2, 142460, Note_off_c, 0, 82, 64
2, 142528, Note_on_c, 0, 72, 78
2, 142588, Note_off_c, 0, 72, 64
2, 142592, Note_on_c, 0, 81, 82
2, 142652, Note_off_c, 0, 81, 64
2, 142720, Note_on_c, 0, 70, 78
2, 142780, Note_off_c, 0, 70, 64
2, 142784, Note_on_c, 0, 79, 81
2, 142844, Note_off_c, 0, 79, 64
2, 142912, Note_on_c, 0, 69, 78
2, 142972, Note_off_c, 0, 69, 64
2, 142976, Note_on_c, 0, 78, 81
2, 143036, Note_off_c, 0, 78, 64
2, 143104, Note_on_c, 0, 66, 78
2, 143164, Note_off_c, 0, 66, 64
2, 143168, Note_on_c, 0, 69, 78
2, 143228, Note_off_c, 0, 69, 64
2, 143296, Note_on_c, 0, 66, 78
2, 143356, Note_off_c, 0, 66, 64
2, 143360, Note_on_c, 0, 69, 78
2, 143420, Note_off_c, 0, 69, 64
2, 143488, Note_on_c, 0, 66, 78
2, 143548, Note_off_c, 0, 66, 64
2, 143552, Note_on_c, 0, 69, 78
2, 143612, Note_off_c, 0, 69, 64
2, 143680, Note_on_c, 0, 66, 78
2, 143740, Note_off_c, 0, 66, 64
2, 143744, Note_on_c, 0, 69, 78
2, 143804, Note_off_c, 0, 69, 64
2, 143872, Note_on_c, 0, 67, 78
2, 143932, Note_off_c, 0, 67, 64
2, 143936, Note_on_c, 0, 70, 78
2, 143996, Note_off_c, 0, 70, 64
2, 144064, Note_on_c, 0, 69, 78
2, 144124, Note_off_c, 0, 69, 64
2, 144128, Note_on_c, 0, 72, 78
2, 144188, Note_off_c, 0, 72, 64
2, 144256, Note_on_c, 0, 70, 78
2, 144316, Note_off_c, 0, 70, 64
2, 144320, Note_on_c, 0, 74, 78
2, 144380, Note_off_c, 0, 74, 64
2, 144384, Note_on_c, 0, 66, 78
2, 144444, Note_off_c, 0, 66, 64
2, 144448, Note_on_c, 0, 69, 78
2, 144508, Note_off_c, 0, 69, 64
2, 144512, Note_on_c, 0, 72, 78
2, 144572, Note_off_c, 0, 72, 64
2, 144576, Note_on_c, 0, 75, 78
2, 144576, Note_on_c, 0, 84, 84
2, 144636, Note_off_c, 0, 75, 64
2, 144640, Note_on_c, 0, 72, 78
2, 144700, Note_off_c, 0, 72, 64
2, 144704, Note_on_c, 0, 69, 78
2, 144764, Note_off_c, 0, 84, 64
2, 144764, Note_off_c, 0, 69, 64
2, 144768, Note_on_c, 0, 66, 78
2, 144768, Note_on_c, 0, 87, 86
2, 144828, Note_off_c, 0, 66, 64
2, 144832, Note_on_c, 0, 69, 78
2, 144892, Note_off_c, 0, 69, 64
2, 144896, Note_on_c, 0, 72, 78
2, 144956, Note_off_c, 0, 87, 64
2, 144956, Note_off_c, 0, 72, 64
2, 144960, Note_on_c, 0, 75, 78
2, 144960, Note_on_c, 0, 84, 84
2, 145020, Note_off_c, 0, 75, 64
2, 145024, Note_on_c, 0, 72, 78
2, 145084, Note_off_c, 0, 72, 64
2, 145088, Note_on_c, 0, 69, 78
2, 145148, Note_off_c, 0, 84, 64
2, 145148, Note_off_c, 0, 69, 64
2, 145152, Note_on_c, 0, 66, 78
2, 145152, Note_on_c, 0, 81, 83
2, 145212, Note_off_c, 0, 66, 64
2, 145216, Note_on_c, 0, 69, 78
2, 145276, Note_off_c, 0, 69, 64
2, 145280, Note_on_c, 0, 72, 78
2, 145340, Note_off_c, 0, 81, 64
2, 145340, Note_off_c, 0, 72, 64
2, 145344, Note_on_c, 0, 74, 78
2, 145344, Note_on_c, 0, 78, 81
2, 145404, Note_off_c, 0, 74, 64
2, 145408, Note_on_c, 0, 72, 78
2, 145468, Note_off_c, 0, 72, 64
2, 145472, Note_on_c, 0, 69, 78
2, 145532, Note_off_c, 0, 78, 64
2, 145532, Note_off_c, 0, 69, 64
2, 145536, Note_on_c, 0, 66, 78
2, 145536, Note_on_c, 0, 86, 86
2, 145596, Note_off_c, 0, 66, 64
2, 145600, Note_on_c, 0, 69, 78
2, 145660, Note_off_c, 0, 69, 64
2, 145664, Note_on_c, 0, 72, 78
2, 145724, Note_off_c, 0, 86, 64
2, 145724, Note_off_c, 0, 72, 64
2, 145728, Note_on_c, 0, 74, 78
2, 145728, Note_on_c, 0, 81, 84
2, 145788, Note_off_c, 0, 74, 64
2, 145792, Note_on_c, 0, 72, 78
2, 145852, Note_off_c, 0, 72, 64
2, 145856, Note_on_c, 0, 69, 78
2, 145916, Note_off_c, 0, 81, 64
2, 145916, Note_off_c, 0, 69, 64
2, 145920, Note_on_c, 0, 62, 78
2, 145920, Note_on_c, 0, 82, 84
2, 145980, Note_off_c, 0, 62, 64
2, 145984, Note_on_c, 0, 67, 78
2, 146044, Note_off_c, 0, 67, 64
2, 146048, Note_on_c, 0, 70, 78
2, 146108, Note_off_c, 0, 82, 64
2, 146108, Note_off_c, 0, 70, 64
2, 146112, Note_on_c, 0, 74, 78
2, 146172, Note_off_c, 0, 74, 64
2, 146176, Note_on_c, 0, 70, 78
2, 146236, Note_off_c, 0, 70, 64
2, 146240, Note_on_c, 0, 67, 78
2, 146300, Note_off_c, 0, 67, 64
2, 146304, Note_on_c, 0, 62, 78
2, 146364, Note_off_c, 0, 62, 64
2, 146368, Note_on_c, 0, 67, 78
2, 146428, Note_off_c, 0, 67, 64
2, 146432, Note_on_c, 0, 70, 78
2, 146492, Note_off_c, 0, 70, 64
2, 146496, Note_on_c, 0, 74, 78
2, 146556, Note_off_c, 0, 74, 64
2, 146560, Note_on_c, 0, 70, 78
2, 146620, Note_off_c, 0, 70, 64
2, 146624, Note_on_c, 0, 67, 78
2, 146684, Note_off_c, 0, 67, 64
2, 146688, Note_on_c, 0, 62, 78
2, 146748, Note_off_c, 0, 62, 64
2, 146752, Note_on_c, 0, 67, 78
2, 146812, Note_off_c, 0, 67, 64
2, 146816, Note_on_c, 0, 70, 78
2, 146876, Note_off_c, 0, 70, 64
2, 146880, Note_on_c, 0, 74, 78
2, 146940, Note_off_c, 0, 74, 64
2, 146944, Note_on_c, 0, 70, 78
2, 147004, Note_off_c, 0, 70, 64
2, 147008, Note_on_c, 0, 67, 78
2, 147068, Note_off_c, 0, 67, 64
2, 147072, Note_on_c, 0, 62, 78
2, 147132, Note_off_c, 0, 62, 64
2, 147136, Note_on_c, 0, 67, 78
2, 147196, Note_off_c, 0, 67, 64
2, 147200, Note_on_c, 0, 70, 78
2, 147260, Note_off_c, 0, 70, 64
2, 147264, Note_on_c, 0, 74, 78
2, 147324, Note_off_c, 0, 74, 64
2, 147328, Note_on_c, 0, 70, 78
2, 147388, Note_off_c, 0, 70, 64
2, 147392, Note_on_c, 0, 67, 78
2, 147452, Note_off_c, 0, 67, 64
2, 147456, Note_on_c, 0, 67, 78
2, 147516, Note_off_c, 0, 67, 64
2, 147520, Note_on_c, 0, 70, 78
2, 147580, Note_off_c, 0, 70, 64
2, 147584, Note_on_c, 0, 69, 78
2, 147644, Note_off_c, 0, 69, 64
2, 147648, Note_on_c, 0, 67, 78
2, 147648, Note_on_c, 0, 79, 84
2, 147708, Note_off_c, 0, 67, 64
2, 147712, Note_on_c, 0, 70, 78
2, 147772, Note_off_c, 0, 70, 64
2, 147776, Note_on_c, 0, 69, 78
2, 147836, Note_off_c, 0, 79, 64
2, 147836, Note_off_c, 0, 69, 64
2, 147840, Note_on_c, 0, 67, 78
2, 147840, Note_on_c, 0, 86, 86
2, 147900, Note_off_c, 0, 67, 64
2, 147904, Note_on_c, 0, 70, 78
2, 147964, Note_off_c, 0, 70, 64
2, 147968, Note_on_c, 0, 69, 78
2, 148028, Note_off_c, 0, 86, 64
2, 148028, Note_off_c, 0, 69, 64
2, 148032, Note_on_c, 0, 67, 78
2, 148032, Note_on_c, 0, 82, 85
2, 148092, Note_off_c, 0, 67, 64
2, 148096, Note_on_c, 0, 70, 78
2, 148156, Note_off_c, 0, 70, 64
2, 148160, Note_on_c, 0, 69, 78
2, 148220, Note_off_c, 0, 82, 64
2, 148220, Note_off_c, 0, 69, 64
2, 148224, Note_on_c, 0, 67, 78
2, 148224, Note_on_c, 0, 87, 87
2, 148284, Note_off_c, 0, 67, 64
2, 148288, Note_on_c, 0, 70, 78
2, 148348, Note_off_c, 0, 70, 64
2, 148352, Note_on_c, 0, 69, 78
2, 148412, Note_off_c, 0, 87, 64
2, 148412, Note_off_c, 0, 69, 64
2, 148416, Note_on_c, 0, 67, 78
2, 148476, Note_off_c, 0, 67, 64
2, 148480, Note_on_c, 0, 70, 78
2, 148540, Note_off_c, 0, 70, 64
2, 148544, Note_on_c, 0, 69, 78
2, 148604, Note_off_c, 0, 69, 64
2, 148608, Note_on_c, 0, 67, 78
2, 148668, Note_off_c, 0, 67, 64
2, 148672, Note_on_c, 0, 70, 78
2, 148732, Note_off_c, 0, 70, 64
2, 148736, Note_on_c, 0, 69, 78
2, 148796, Note_off_c, 0, 69, 64
2, 148800, Note_on_c, 0, 70, 78
2, 148860, Note_off_c, 0, 70, 64
2, 148864, Note_on_c, 0, 69, 78
2, 148924, Note_off_c, 0, 69, 64
2, 148928, Note_on_c, 0, 67, 78
2, 148988, Note_off_c, 0, 67, 64
2, 148992, Note_on_c, 0, 66, 78
2, 149052, Note_off_c, 0, 66, 64
2, 149056, Note_on_c, 0, 69, 78
2, 149116, Note_off_c, 0, 69, 64
2, 149120, Note_on_c, 0, 67, 78
2, 149180, Note_off_c, 0, 67, 64
2, 149184, Note_on_c, 0, 66, 78
2, 149184, Note_on_c, 0, 78, 84
2, 149244, Note_off_c, 0, 66, 64
2, 149248, Note_on_c, 0, 69, 78
2, 149308, Note_off_c, 0, 69, 64
2, 149312, Note_on_c, 0, 67, 78
2, 149372, Note_off_c, 0, 78, 64
2, 149372, Note_off_c, 0, 67, 64
2, 149376, Note_on_c, 0, 66, 78
2, 149376, Note_on_c, 0, 85, 86
2, 149436, Note_off_c, 0, 66, 64
2, 149440, Note_on_c, 0, 69, 78
2, 149500, Note_off_c, 0, 69, 64
2, 149504, Note_on_c, 0, 67, 78
2, 149564, Note_off_c, 0, 85, 64
2, 149564, Note_off_c, 0, 67, 64
2, 149568, Note_on_c, 0, 66, 78
2, 149568, Note_on_c, 0, 81, 84
2, 149628, Note_off_c, 0, 66, 64
2, 149632, Note_on_c, 0, 69, 78
2, 149692, Note_off_c, 0, 69, 64
2, 149696, Note_on_c, 0, 67, 78
2, 149756, Note_off_c, 0, 81, 64
2, 149756, Note_off_c, 0, 67, 64
2, 149760, Note_on_c, 0, 66, 78
2, 149760, Note_on_c, 0, 86, 85
2, 149820, Note_off_c, 0, 66, 64
2, 149824, Note_on_c, 0, 69, 78
2, 149884, Note_off_c, 0, 69, 64
2, 149888, Note_on_c, 0, 67, 78
2, 149948, Note_off_c, 0, 86, 64
2, 149948, Note_off_c, 0, 67, 64
2, 149952, Note_on_c, 0, 66, 78
2, 150012, Note_off_c, 0, 66, 64
2, 150016, Note_on_c, 0, 69, 78
2, 150076, Note_off_c, 0, 69, 64
2, 150080, Note_on_c, 0, 67, 78
2, 150140, Note_off_c, 0, 67, 64
2, 150144, Note_on_c, 0, 66, 78
2, 150204, Note_off_c, 0, 66, 64
2, 150208, Note_on_c, 0, 69, 78
2, 150268, Note_off_c, 0, 69, 64
2, 150272, Note_on_c, 0, 67, 78
2, 150332, Note_off_c, 0, 67, 64
2, 150336, Note_on_c, 0, 69, 78
2, 150396, Note_off_c, 0, 69, 64
2, 150400, Note_on_c, 0, 67, 78
2, 150460, Note_off_c, 0, 67, 64
2, 150464, Note_on_c, 0, 66, 78
2, 150524, Note_off_c, 0, 66, 64
2, 150528, Note_on_c, 0, 64, 78
2, 150588, Note_off_c, 0, 64, 64
2, 150592, Note_on_c, 0, 67, 78
2, 150652, Note_off_c, 0, 67, 64
2, 150656, Note_on_c, 0, 65, 78
2, 150716, Note_off_c, 0, 65, 64
2, 150720, Note_on_c, 0, 64, 78
2, 150720, Note_on_c, 0, 76, 80
2, 150780, Note_off_c, 0, 64, 64
2, 150784, Note_on_c, 0, 67, 78
2, 150844, Note_off_c, 0, 67, 64
2, 150848, Note_on_c, 0, 65, 78
2, 150908, Note_off_c, 0, 76, 64
2, 150908, Note_off_c, 0, 65, 64
2, 150912, Note_on_c, 0, 64, 78
2, 150912, Note_on_c, 0, 83, 85
2, 150972, Note_off_c, 0, 64, 64
2, 150976, Note_on_c, 0, 67, 78
2, 151036, Note_off_c, 0, 67, 64
2, 151040, Note_on_c, 0, 65, 78
2, 151100, Note_off_c, 0, 83, 64
2, 151100, Note_off_c, 0, 65, 64
2, 151104, Note_on_c, 0, 64, 78
2, 151104, Note_on_c, 0, 79, 84
2, 151164, Note_off_c, 0, 64, 64
2, 151168, Note_on_c, 0, 67, 78
2, 151228, Note_off_c, 0, 67, 64
2, 151232, Note_on_c, 0, 65, 78
2, 151292, Note_off_c, 0, 79, 64
2, 151292, Note_off_c, 0, 65, 64
2, 151296, Note_on_c, 0, 63, 78
2, 151296, Note_on_c, 0, 84, 86
2, 151356, Note_off_c, 0, 63, 64
2, 151360, Note_on_c, 0, 67, 78
2, 151420, Note_off_c, 0, 67, 64
2, 151424, Note_on_c, 0, 72, 78
2, 151484, Note_off_c, 0, 84, 64
2, 151484, Note_off_c, 0, 72, 64
2, 151488, Note_on_c, 0, 63, 78
2, 151548, Note_off_c, 0, 63, 64
2, 151552, Note_on_c, 0, 67, 78
2, 151612, Note_off_c, 0, 67, 64
2, 151616, Note_on_c, 0, 71, 78
2, 151676, Note_off_c, 0, 71, 64
2, 151680, Note_on_c, 0, 63, 78
2, 151740, Note_off_c, 0, 63, 64
2, 151744, Note_on_c, 0, 67, 78
2, 151804, Note_off_c, 0, 67, 64
2, 151808, Note_on_c, 0, 72, 78
2, 151868, Note_off_c, 0, 72, 64
2, 151872, Note_on_c, 0, 63, 78
2, 151932, Note_off_c, 0, 63, 64
2, 151936, Note_on_c, 0, 67, 78
2, 151996, Note_off_c, 0, 67, 64
2, 152000, Note_on_c, 0, 73, 78
2, 152060, Note_off_c, 0, 73, 64
2, 152064, Note_on_c, 0, 74, 85
2, 152064, Note_on_c, 0, 69, 85
2, 152064, Note_on_c, 0, 66, 85
2, 152252, Note_off_c, 0, 74, 64
2, 152252, Note_off_c, 0, 69, 64
2, 152252, Note_off_c, 0, 66, 64
2, 152320, Note_on_c, 0, 61, 78
2, 152380, Note_off_c, 0, 61, 64
2, 152384, Note_on_c, 0, 62, 78
2, 152444, Note_off_c, 0, 62, 64
2, 152512, Note_on_c, 0, 65, 78
2, 152572, Note_off_c, 0, 65, 64
2, 152576, Note_on_c, 0, 66, 78
2, 152636, Note_off_c, 0, 66, 64
2, 152704, Note_on_c, 0, 68, 78
2, 152764, Note_off_c, 0, 68, 64
2, 152768, Note_on_c, 0, 69, 78
2, 152828, Note_off_c, 0, 69, 64
2, 152896, Note_on_c, 0, 73, 78
2, 152956, Note_off_c, 0, 73, 64
2, 152960, Note_on_c, 0, 74, 78
2, 153020, Note_off_c, 0, 74, 64
2, 153088, Note_on_c, 0, 77, 78
2, 153148, Note_off_c, 0, 77, 64
2, 153152, Note_on_c, 0, 78, 78
2, 153212, Note_off_c, 0, 78, 64
2, 153280, Note_on_c, 0, 80, 82
2, 153340, Note_off_c, 0, 80, 64
2, 153344, Note_on_c, 0, 81, 82
2, 153404, Note_off_c, 0, 81, 64
2, 153472, Note_on_c, 0, 85, 83
2, 153532, Note_off_c, 0, 85, 64
2, 153536, Note_on_c, 0, 86, 84
2, 153596, Note_off_c, 0, 86, 64
2, 153600, Note_on_c, 0, 70, 90
2, 153600, Note_on_c, 0, 65, 90
2, 153600, Note_on_c, 0, 62, 90
2, 153788, Note_off_c, 0, 70, 64
2, 153788, Note_off_c, 0, 65, 64
2, 153788, Note_off_c, 0, 62, 64
2, 153856, Note_on_c, 0, 81, 82
2, 153916, Note_off_c, 0, 81, 64
2, 153920, Note_on_c, 0, 82, 83
2, 153980, Note_off_c, 0, 82, 64
2, 154048, Note_on_c, 0, 76, 78
2, 154108, Note_off_c, 0, 76, 64
2, 154112, Note_on_c, 0, 77, 78
2, 154172, Note_off_c, 0, 77, 64
2, 154240, Note_on_c, 0, 73, 78
2, 154300, Note_off_c, 0, 73, 64
2, 154304, Note_on_c, 0, 74, 78
2, 154364, Note_off_c, 0, 74, 64
2, 154432, Note_on_c, 0, 69, 78
2, 154492, Note_off_c, 0, 69, 64
2, 154496, Note_on_c, 0, 70, 78
2, 154556, Note_off_c, 0, 70, 64
2, 154624, Note_on_c, 0, 64, 78
2, 154684, Note_off_c, 0, 64, 64
2, 154688, Note_on_c, 0, 65, 78
2, 154748, Note_off_c, 0, 65, 64
2, 154816, Note_on_c, 0, 61, 78
2, 154876, Note_off_c, 0, 61, 64
2, 154880, Note_on_c, 0, 62, 78
2, 154940, Note_off_c, 0, 62, 64
2, 155008, Note_on_c, 0, 57, 78
2, 155068, Note_off_c, 0, 57, 64
2, 155072, Note_on_c, 0, 58, 78
2, 155132, Note_off_c, 0, 58, 64
2, 155136, Note_on_c, 0, 57, 78
2, 155196, Note_off_c, 0, 57, 64
2, 155200, Note_on_c, 0, 60, 78
2, 155260, Note_off_c, 0, 60, 64
2, 155264, Note_on_c, 0, 63, 78
2, 155324, Note_off_c, 0, 63, 64
2, 155328, Note_on_c, 0, 69, 78
2, 155328, Note_on_c, 0, 77, 85
2, 155388, Note_off_c, 0, 69, 64
2, 155392, Note_on_c, 0, 63, 78
2, 155452, Note_off_c, 0, 63, 64
2, 155456, Note_on_c, 0, 60, 78
2, 155516, Note_off_c, 0, 77, 64
2, 155516, Note_off_c, 0, 60, 64
2, 155520, Note_on_c, 0, 57, 78
2, 155520, Note_on_c, 0, 78, 85
2, 155580, Note_off_c, 0, 57, 64
2, 155584, Note_on_c, 0, 60, 78
2, 155644, Note_off_c, 0, 60, 64
2, 155648, Note_on_c, 0, 63, 78
2, 155708, Note_off_c, 0, 78, 64
2, 155708, Note_off_c, 0, 63, 64
2, 155712, Note_on_c, 0, 69, 78
2, 155712, Note_on_c, 0, 77, 85
2, 155772, Note_off_c, 0, 69, 64
2, 155776, Note_on_c, 0, 63, 78
2, 155836, Note_off_c, 0, 63, 64
2, 155840, Note_on_c, 0, 60, 78
2, 155900, Note_off_c, 0, 77, 64
2, 155900, Note_off_c, 0, 60, 64
2, 155904, Note_on_c, 0, 57, 78
2, 155904, Note_on_c, 0, 78, 85
2, 155964, Note_off_c, 0, 57, 64
2, 155968, Note_on_c, 0, 60, 78
2, 156028, Note_off_c, 0, 60, 64
2, 156032, Note_on_c, 0, 63, 78
2, 156092, Note_off_c, 0, 78, 64
2, 156092, Note_off_c, 0, 63, 64
2, 156096, Note_on_c, 0, 69, 78
2, 156096, Note_on_c, 0, 77, 85
2, 156156, Note_off_c, 0, 69, 64
2, 156160, Note_on_c, 0, 63, 78
2, 156220, Note_off_c, 0, 63, 64
2, 156224, Note_on_c, 0, 60, 78
2, 156284, Note_off_c, 0, 77, 64
2, 156284, Note_off_c, 0, 60, 64
2, 156288, Note_on_c, 0, 57, 78
2, 156288, Note_on_c, 0, 78, 85
2, 156348, Note_off_c, 0, 57, 64
2, 156352, Note_on_c, 0, 60, 78
2, 156412, Note_off_c, 0, 60, 64
2, 156416, Note_on_c, 0, 63, 78
2, 156476, Note_off_c, 0, 78, 64
2, 156476, Note_off_c, 0, 63, 64
2, 156480, Note_on_c, 0, 69, 78
2, 156480, Note_on_c, 0, 77, 85
2, 156540, Note_off_c, 0, 69, 64
2, 156544, Note_on_c, 0, 63, 78
2, 156604, Note_off_c, 0, 63, 64
2, 156608, Note_on_c, 0, 60, 78
2, 156668, Note_off_c, 0, 77, 64
2, 156668, Note_off_c, 0, 60, 64
2, 156672, Note_on_c, 0, 60, 78
2, 156672, Note_on_c, 0, 75, 85
2, 156732, Note_off_c, 0, 60, 64
2, 156736, Note_on_c, 0, 63, 78
2, 156796, Note_off_c, 0, 63, 64
2, 156800, Note_on_c, 0, 69, 78
2, 156860, Note_off_c, 0, 75, 64
2, 156860, Note_off_c, 0, 69, 64
2, 156864, Note_on_c, 0, 72, 78
2, 156924, Note_off_c, 0, 72, 64
2, 156928, Note_on_c, 0, 69, 78
2, 156988, Note_off_c, 0, 69, 64
2, 156992, Note_on_c, 0, 63, 78
2, 157052, Note_off_c, 0, 63, 64
2, 157056, Note_on_c, 0, 60, 78
2, 157116, Note_off_c, 0, 60, 64
2, 157120, Note_on_c, 0, 63, 78
2, 157180, Note_off_c, 0, 63, 64
2, 157184, Note_on_c, 0, 69, 78
2, 157244, Note_off_c, 0, 69, 64
2, 157248, Note_on_c, 0, 72, 78
2, 157308, Note_off_c, 0, 72, 64
2, 157312, Note_on_c, 0, 69, 78
2, 157372, Note_off_c, 0, 69, 64
2, 157376, Note_on_c, 0, 63, 78
2, 157436, Note_off_c, 0, 63, 64
2, 157440, Note_on_c, 0, 60, 78
2, 157500, Note_off_c, 0, 60, 64
2, 157504, Note_on_c, 0, 63, 78
2, 157564, Note_off_c, 0, 63, 64
2, 157568, Note_on_c, 0, 69, 78
2, 157628, Note_off_c, 0, 69, 64
2, 157632, Note_on_c, 0, 72, 78
2, 157692, Note_off_c, 0, 72, 64
2, 157696, Note_on_c, 0, 69, 78
2, 157756, Note_off_c, 0, 69, 64
2, 157760, Note_on_c, 0, 63, 78
2, 157820, Note_off_c, 0, 63, 64
2, 157824, Note_on_c, 0, 60, 78
2, 157884, Note_off_c, 0, 60, 64
2, 157888, Note_on_c, 0, 63, 78
2, 157948, Note_off_c, 0, 63, 64
2, 157952, Note_on_c, 0, 69, 78
2, 158012, Note_off_c, 0, 69, 64
2, 158016, Note_on_c, 0, 72, 78
2, 158076, Note_off_c, 0, 72, 64
2, 158080, Note_on_c, 0, 69, 78
2, 158140, Note_off_c, 0, 69, 64
2, 158144, Note_on_c, 0, 63, 78
2, 158204, Note_off_c, 0, 63, 64
2, 158208, Note_on_c, 0, 62, 78
2, 158268, Note_off_c, 0, 62, 64
2, 158272, Note_on_c, 0, 60, 78
2, 158332, Note_off_c, 0, 60, 64
2, 158336, Note_on_c, 0, 58, 78
2, 158396, Note_off_c, 0, 58, 64
2, 158400, Note_on_c, 0, 62, 78
2, 158400, Note_on_c, 0, 89, 87
2, 158460, Note_off_c, 0, 62, 64
2, 158464, Note_on_c, 0, 60, 78
2, 158524, Note_off_c, 0, 60, 64
2, 158528, Note_on_c, 0, 58, 78
2, 158588, Note_off_c, 0, 89, 64
2, 158588, Note_off_c, 0, 58, 64
2, 158592, Note_on_c, 0, 62, 78
2, 158592, Note_on_c, 0, 86, 86
2, 158652, Note_off_c, 0, 62, 64
2, 158656, Note_on_c, 0, 60, 78
2, 158716, Note_off_c, 0, 60, 64
2, 158720, Note_on_c, 0, 58, 78
2, 158780, Note_off_c, 0, 86, 64
2, 158780, Note_off_c, 0, 58, 64
2, 158784, Note_on_c, 0, 62, 78
2, 158784, Note_on_c, 0, 82, 85
2, 158844, Note_off_c, 0, 62, 64
2, 158848, Note_on_c, 0, 60, 78
2, 158908, Note_off_c, 0, 60, 64
2, 158912, Note_on_c, 0, 58, 78
2, 158972, Note_off_c, 0, 82, 64
2, 158972, Note_off_c, 0, 58, 64
2, 158976, Note_on_c, 0, 62, 78
2, 158976, Note_on_c, 0, 77, 84
2, 159036, Note_off_c, 0, 62, 64
2, 159040, Note_on_c, 0, 60, 78
2, 159100, Note_off_c, 0, 60, 64
2, 159104, Note_on_c, 0, 58, 78
2, 159164, Note_off_c, 0, 77, 64
2, 159164, Note_off_c, 0, 58, 64
2, 159168, Note_on_c, 0, 62, 78
2, 159168, Note_on_c, 0, 74, 85
2, 159228, Note_off_c, 0, 62, 64
2, 159232, Note_on_c, 0, 60, 78
2, 159292, Note_off_c, 0, 60, 64
2, 159296, Note_on_c, 0, 58, 78
2, 159356, Note_off_c, 0, 74, 64
2, 159356, Note_off_c, 0, 58, 64
2, 159360, Note_on_c, 0, 62, 78
2, 159360, Note_on_c, 0, 70, 85
2, 159420, Note_off_c, 0, 62, 64
2, 159424, Note_on_c, 0, 60, 78
2, 159484, Note_off_c, 0, 60, 64
2, 159488, Note_on_c, 0, 58, 78
2, 159548, Note_off_c, 0, 70, 64
2, 159548, Note_off_c, 0, 58, 64
2, 159552, Note_on_c, 0, 62, 78
2, 159552, Note_on_c, 0, 65, 85
2, 159612, Note_off_c, 0, 62, 64
2, 159616, Note_on_c, 0, 60, 78
2, 159676, Note_off_c, 0, 60, 64
2, 159680, Note_on_c, 0, 58, 78
2, 159740, Note_off_c, 0, 65, 64
2, 159740, Note_off_c, 0, 58, 64
2, 159744, Note_on_c, 0, 62, 78
2, 159804, Note_off_c, 0, 62, 64
2, 159808, Note_on_c, 0, 60, 78
2, 159868, Note_off_c, 0, 60, 64
2, 159872, Note_on_c, 0, 58, 78
2, 159932, Note_off_c, 0, 58, 64
2, 159936, Note_on_c, 0, 62, 78
2, 159996, Note_off_c, 0, 62, 64
2, 160000, Note_on_c, 0, 60, 78
2, 160060, Note_off_c, 0, 60, 64
2, 160064, Note_on_c, 0, 58, 78
2, 160124, Note_off_c, 0, 58, 64
2, 160128, Note_on_c, 0, 62, 78
2, 160188, Note_off_c, 0, 62, 64
2, 160192, Note_on_c, 0, 60, 78
2, 160252, Note_off_c, 0, 60, 64
2, 160256, Note_on_c, 0, 58, 78
2, 160316, Note_off_c, 0, 58, 64
2, 160320, Note_on_c, 0, 62, 78
2, 160380, Note_off_c, 0, 62, 64
2, 160384, Note_on_c, 0, 60, 78
2, 160444, Note_off_c, 0, 60, 64
2, 160448, Note_on_c, 0, 58, 78
2, 160508, Note_off_c, 0, 58, 64
2, 160512, Note_on_c, 0, 62, 78
2, 160572, Note_off_c, 0, 62, 64
2, 160576, Note_on_c, 0, 60, 78
2, 160636, Note_off_c, 0, 60, 64
2, 160640, Note_on_c, 0, 58, 78
2, 160700, Note_off_c, 0, 58, 64
2, 160704, Note_on_c, 0, 62, 78
2, 160764, Note_off_c, 0, 62, 64
2, 160768, Note_on_c, 0, 60, 78
2, 160828, Note_off_c, 0, 60, 64
2, 160832, Note_on_c, 0, 58, 78
2, 160892, Note_off_c, 0, 58, 64
2, 160896, Note_on_c, 0, 62, 78
2, 160956, Note_off_c, 0, 62, 64
2, 160960, Note_on_c, 0, 60, 78
2, 161020, Note_off_c, 0, 60, 64
2, 161024, Note_on_c, 0, 58, 78
2, 161084, Note_off_c, 0, 58, 64
2, 161088, Note_on_c, 0, 62, 78
2, 161148, Note_off_c, 0, 62, 64
2, 161152, Note_on_c, 0, 60, 78
2, 161212, Note_off_c, 0, 60, 64
2, 161216, Note_on_c, 0, 58, 78
2, 161276, Note_off_c, 0, 58, 64
2, 161280, Note_on_c, 0, 63, 78
2, 161340, Note_off_c, 0, 63, 64
2, 161344, Note_on_c, 0, 58, 78
2, 161404, Note_off_c, 0, 58, 64
2, 161408, Note_on_c, 0, 55, 78
2, 161468, Note_off_c, 0, 55, 64
2, 161472, Note_on_c, 0, 63, 78
2, 161472, Note_on_c, 0, 87, 87
2, 161532, Note_off_c, 0, 63, 64
2, 161536, Note_on_c, 0, 58, 78
2, 161596, Note_off_c, 0, 58, 64
2, 161600, Note_on_c, 0, 55, 78
2, 161660, Note_off_c, 0, 87, 64
2, 161660, Note_off_c, 0, 55, 64
2, 161664, Note_on_c, 0, 63, 78
2, 161664, Note_on_c, 0, 82, 85
2, 161724, Note_off_c, 0, 63, 64
2, 161728, Note_on_c, 0, 58, 78
2, 161788, Note_off_c, 0, 58, 64
2, 161792, Note_on_c, 0, 55, 78
2, 161852, Note_off_c, 0, 82, 64
2, 161852, Note_off_c, 0, 55, 64
2, 161856, Note_on_c, 0, 63, 78
2, 161856, Note_on_c, 0, 79, 85
2, 161916, Note_off_c, 0, 63, 64
2, 161920, Note_on_c, 0, 58, 78
2, 161980, Note_off_c, 0, 58, 64
2, 161984, Note_on_c, 0, 55, 78
2, 162044, Note_off_c, 0, 79, 64
2, 162044, Note_off_c, 0, 55, 64
2, 162048, Note_on_c, 0, 75, 85
2, 162236, Note_off_c, 0, 75, 64
2, 162240, Note_on_c, 0, 70, 85
2, 162428, Note_off_c, 0, 70, 64
2, 162432, Note_on_c, 0, 67, 84
2, 162620, Note_off_c, 0, 67, 64
2, 162624, Note_on_c, 0, 63, 84
2, 162812, Note_off_c, 0, 63, 64
2, 162816, Note_on_c, 0, 62, 78
2, 162876, Note_off_c, 0, 62, 64
2, 162880, Note_on_c, 0, 58, 78
2, 162940, Note_off_c, 0, 58, 64
2, 162944, Note_on_c, 0, 55, 78
2, 163004, Note_off_c, 0, 55, 64
2, 163008, Note_on_c, 0, 62, 78
2, 163068, Note_off_c, 0, 62, 64
2, 163072, Note_on_c, 0, 58, 78
2, 163132, Note_off_c, 0, 58, 64
2, 163136, Note_on_c, 0, 55, 78
2, 163196, Note_off_c, 0, 55, 64
2, 163200, Note_on_c, 0, 62, 78
2, 163260, Note_off_c, 0, 62, 64
2, 163264, Note_on_c, 0, 58, 78
2, 163324, Note_off_c, 0, 58, 64
2, 163328, Note_on_c, 0, 55, 78
2, 163388, Note_off_c, 0, 55, 64
2, 163392, Note_on_c, 0, 62, 78
2, 163452, Note_off_c, 0, 62, 64
2, 163456, Note_on_c, 0, 58, 78
2, 163516, Note_off_c, 0, 58, 64
2, 163520, Note_on_c, 0, 55, 78
2, 163580, Note_off_c, 0, 55, 64
2, 163584, Note_on_c, 0, 60, 78
2, 163644, Note_off_c, 0, 60, 64
2, 163648, Note_on_c, 0, 58, 78
2, 163708, Note_off_c, 0, 58, 64
2, 163712, Note_on_c, 0, 53, 78
2, 163772, Note_off_c, 0, 53, 64
2, 163776, Note_on_c, 0, 60, 78
2, 163836, Note_off_c, 0, 60, 64
2, 163840, Note_on_c, 0, 58, 78
2, 163900, Note_off_c, 0, 58, 64
2, 163904, Note_on_c, 0, 53, 78
2, 163964, Note_off_c, 0, 53, 64
2, 163968, Note_on_c, 0, 60, 78
2, 164028, Note_off_c, 0, 60, 64
2, 164032, Note_on_c, 0, 57, 78
2, 164092, Note_off_c, 0, 57, 64
2, 164096, Note_on_c, 0, 51, 78
2, 164156, Note_off_c, 0, 51, 64
2, 164160, Note_on_c, 0, 60, 78
2, 164220, Note_off_c, 0, 60, 64
2, 164224, Note_on_c, 0, 57, 78
2, 164284, Note_off_c, 0, 57, 64
2, 164288, Note_on_c, 0, 51, 78
2, 164348, Note_off_c, 0, 51, 64
2, 164352, Note_on_c, 0, 58, 78
2, 164412, Note_off_c, 0, 58, 64
2, 164416, Note_on_c, 0, 55, 78
2, 164476, Note_off_c, 0, 55, 64
2, 164480, Note_on_c, 0, 51, 78
2, 164540, Note_off_c, 0, 51, 64
2, 164544, Note_on_c, 0, 62, 78
2, 164604, Note_off_c, 0, 62, 64
2, 164608, Note_on_c, 0, 58, 78
2, 164668, Note_off_c, 0, 58, 64
2, 164672, Note_on_c, 0, 53, 78
2, 164732, Note_off_c, 0, 53, 64
2, 164736, Note_on_c, 0, 65, 78
2, 164796, Note_off_c, 0, 65, 64
2, 164800, Note_on_c, 0, 62, 78
2, 164860, Note_off_c, 0, 62, 64
2, 164864, Note_on_c, 0, 58, 78
2, 164924, Note_off_c, 0, 58, 64
2, 164928, Note_on_c, 0, 70, 78
2, 164988, Note_off_c, 0, 70, 64
2, 164992, Note_on_c, 0, 65, 78
2, 165052, Note_off_c, 0, 65, 64
2, 165056, Note_on_c, 0, 62, 78
2, 165116, Note_off_c, 0, 62, 64
2, 165120, Note_on_c, 0, 72, 78
2, 165180, Note_off_c, 0, 72, 64
2, 165184, Note_on_c, 0, 66, 78
2, 165244, Note_off_c, 0, 66, 64
2, 165248, Note_on_c, 0, 60, 78
2, 165308, Note_off_c, 0, 60, 64
2, 165312, Note_on_c, 0, 78, 81
2, 165372, Note_off_c, 0, 78, 64
2, 165376, Note_on_c, 0, 72, 78
2, 165436, Note_off_c, 0, 72, 64
2, 165440, Note_on_c, 0, 69, 78
2, 165500, Note_off_c, 0, 69, 64
2, 165504, Note_on_c, 0, 81, 82
2, 165564, Note_off_c, 0, 81, 64
2, 165568, Note_on_c, 0, 77, 78
2, 165628, Note_off_c, 0, 77, 64
2, 165632, Note_on_c, 0, 72, 78
2, 165692, Note_off_c, 0, 72, 64
2, 165696, Note_on_c, 0, 84, 83
2, 165756, Note_off_c, 0, 84, 64
2, 165760, Note_on_c, 0, 77, 78
2, 165820, Note_off_c, 0, 77, 64
2, 165824, Note_on_c, 0, 72, 78
2, 165884, Note_off_c, 0, 72, 64
2, 165888, Note_on_c, 0, 79, 90
2, 165888, Note_on_c, 0, 82, 91
2, 165888, Note_on_c, 0, 74, 86
2, 166076, Note_off_c, 0, 79, 64
2, 166076, Note_off_c, 0, 82, 64
2, 166076, Note_off_c, 0, 74, 64
2, 166144, Note_on_c, 0, 66, 78
2, 166204, Note_off_c, 0, 66, 64
2, 166208, Note_on_c, 0, 67, 78
2, 166268, Note_off_c, 0, 67, 64
2, 166336, Note_on_c, 0, 69, 78
2, 166396, Note_off_c, 0, 69, 64
2, 166400, Note_on_c, 0, 70, 78
2, 166460, Note_off_c, 0, 70, 64
2, 166528, Note_on_c, 0, 73, 78
2, 166588, Note_off_c, 0, 73, 64
2, 166592, Note_on_c, 0, 74, 78
2, 166652, Note_off_c, 0, 74, 64
2, 166720, Note_on_c, 0, 78, 78
2, 166780, Note_off_c, 0, 78, 64
2, 166784, Note_on_c, 0, 79, 81
2, 166844, Note_off_c, 0, 79, 64
2, 166912, Note_on_c, 0, 74, 78
2, 166972, Note_off_c, 0, 74, 64
2, 166976, Note_on_c, 0, 82, 82
2, 167036, Note_off_c, 0, 82, 64
2, 167104, Note_on_c, 0, 72, 78
2, 167164, Note_off_c, 0, 72, 64
2, 167168, Note_on_c, 0, 81, 82
2, 167228, Note_off_c, 0, 81, 64
2, 167296, Note_on_c, 0, 70, 78
2, 167356, Note_off_c, 0, 70, 64
2, 167360, Note_on_c, 0, 79, 81
2, 167420, Note_off_c, 0, 79, 64
2, 167488, Note_on_c, 0, 69, 78
2, 167548, Note_off_c, 0, 69, 64
2, 167552, Note_on_c, 0, 78, 81
2, 167612, Note_off_c, 0, 78, 64
2, 167680, Note_on_c, 0, 66, 78
2, 167740, Note_off_c, 0, 66, 64
2, 167744, Note_on_c, 0, 69, 78
2, 167804, Note_off_c, 0, 69, 64
2, 167872, Note_on_c, 0, 66, 78
2, 167932, Note_off_c, 0, 66, 64
2, 167936, Note_on_c, 0, 69, 78
2, 167996, Note_off_c, 0, 69, 64
2, 168064, Note_on_c, 0, 66, 78
2, 168124, Note_off_c, 0, 66, 64
2, 168128, Note_on_c, 0, 69, 78
2, 168188, Note_off_c, 0, 69, 64
2, 168256, Note_on_c, 0, 66, 78
2, 168316, Note_off_c, 0, 66, 64
2, 168320, Note_on_c, 0, 69, 78
2, 168380, Note_off_c, 0, 69, 64
2, 168448, Note_on_c, 0, 67, 78
2, 168508, Note_off_c, 0, 67, 64
2, 168512, Note_on_c, 0, 70, 78
2, 168572, Note_off_c, 0, 70, 64
2, 168640, Note_on_c, 0, 69, 78
2, 168700, Note_off_c, 0, 69, 64
2, 168704, Note_on_c, 0, 72, 78
2, 168764, Note_off_c, 0, 72, 64
2, 168832, Note_on_c, 0, 70, 78
2, 168892, Note_off_c, 0, 70, 64
2, 168896, Note_on_c, 0, 74, 78
2, 168956, Note_off_c, 0, 74, 64
2, 168960, Note_on_c, 0, 66, 78
2, 169020, Note_off_c, 0, 66, 64
2, 169024, Note_on_c, 0, 69, 78
2, 169084, Note_off_c, 0, 69, 64
2, 169088, Note_on_c, 0, 72, 78
2, 169148, Note_off_c, 0, 72, 64
2, 169152, Note_on_c, 0, 75, 78
2, 169152, Note_on_c, 0, 84, 86
2, 169212, Note_off_c, 0, 75, 64
2, 169216, Note_on_c, 0, 72, 78
2, 169276, Note_off_c, 0, 72, 64
2, 169280, Note_on_c, 0, 69, 78
2, 169340, Note_off_c, 0, 84, 64
2, 169340, Note_off_c, 0, 69, 64
2, 169344, Note_on_c, 0, 66, 78
2, 169344, Note_on_c, 0, 87, 88
2, 169404, Note_off_c, 0, 66, 64
2, 169408, Note_on_c, 0, 69, 78
2, 169468, Note_off_c, 0, 69, 64
2, 169472, Note_on_c, 0, 72, 78
2, 169532, Note_off_c, 0, 87, 64
2, 169532, Note_off_c, 0, 72, 64
2, 169536, Note_on_c, 0, 75, 78
2, 169536, Note_on_c, 0, 84, 86
2, 169596, Note_off_c, 0, 75, 64
2, 169600, Note_on_c, 0, 72, 78
2, 169660, Note_off_c, 0, 72, 64
2, 169664, Note_on_c, 0, 69, 78
2, 169724, Note_off_c, 0, 84, 64
2, 169724, Note_off_c, 0, 69, 64
2, 169728, Note_on_c, 0, 66, 78
2, 169728, Note_on_c, 0, 81, 85
2, 169788, Note_off_c, 0, 66, 64
2, 169792, Note_on_c, 0, 69, 78
2, 169852, Note_off_c, 0, 69, 64
2, 169856, Note_on_c, 0, 72, 78
2, 169916, Note_off_c, 0, 81, 64
2, 169916, Note_off_c, 0, 72, 64
2, 169920, Note_on_c, 0, 74, 78
2, 169920, Note_on_c, 0, 78, 84
2, 169980, Note_off_c, 0, 74, 64
2, 169984, Note_on_c, 0, 72, 78
2, 170044, Note_off_c, 0, 72, 64
2, 170048, Note_on_c, 0, 69, 78
2, 170108, Note_off_c, 0, 78, 64
2, 170108, Note_off_c, 0, 69, 64
2, 170112, Note_on_c, 0, 66, 78
2, 170112, Note_on_c, 0, 86, 86
2, 170172, Note_off_c, 0, 66, 64
2, 170176, Note_on_c, 0, 69, 78
2, 170236, Note_off_c, 0, 69, 64
2, 170240, Note_on_c, 0, 72, 78
2, 170300, Note_off_c, 0, 86, 64
2, 170300, Note_off_c, 0, 72, 64
2, 170304, Note_on_c, 0, 74, 78
2, 170304, Note_on_c, 0, 81, 84
2, 170364, Note_off_c, 0, 74, 64
2, 170368, Note_on_c, 0, 72, 78
2, 170428, Note_off_c, 0, 72, 64
2, 170432, Note_on_c, 0, 69, 78
2, 170492, Note_off_c, 0, 81, 64
2, 170492, Note_off_c, 0, 69, 64
2, 170496, Note_on_c, 0, 62, 78
2, 170496, Note_on_c, 0, 83, 84
2, 170556, Note_off_c, 0, 62, 64
2, 170560, Note_on_c, 0, 65, 78
2, 170620, Note_off_c, 0, 65, 64
2, 170624, Note_on_c, 0, 71, 78
2, 170684, Note_off_c, 0, 83, 64
2, 170684, Note_off_c, 0, 71, 64
2, 170752, Note_on_c, 0, 59, 78
2, 170812, Note_off_c, 0, 59, 64
2, 170816, Note_on_c, 0, 62, 78
2, 170876, Note_off_c, 0, 62, 64
2, 170944, Note_on_c, 0, 59, 78
2, 171004, Note_off_c, 0, 59, 64
2, 171008, Note_on_c, 0, 62, 78
2, 171068, Note_off_c, 0, 62, 64
2, 171136, Note_on_c, 0, 59, 78
2, 171196, Note_off_c, 0, 59, 64
2, 171200, Note_on_c, 0, 62, 78
2, 171260, Note_off_c, 0, 62, 64
2, 171328, Note_on_c, 0, 59, 78
2, 171388, Note_off_c, 0, 59, 64
2, 171392, Note_on_c, 0, 62, 78
2, 171452, Note_off_c, 0, 62, 64
2, 171520, Note_on_c, 0, 60, 78
2, 171580, Note_off_c, 0, 60, 64
2, 171584, Note_on_c, 0, 63, 78
2, 171644, Note_off_c, 0, 63, 64
2, 171712, Note_on_c, 0, 62, 78
2, 171772, Note_off_c, 0, 62, 64
2, 171776, Note_on_c, 0, 65, 78
2, 171836, Note_off_c, 0, 65, 64
2, 171904, Note_on_c, 0, 63, 78
2, 171964, Note_off_c, 0, 63, 64
2, 171968, Note_on_c, 0, 67, 78
2, 172028, Note_off_c, 0, 67, 64
2, 172032, Note_on_c, 0, 59, 78
2, 172092, Note_off_c, 0, 59, 64
2, 172096, Note_on_c, 0, 62, 78
2, 172156, Note_off_c, 0, 62, 64
2, 172160, Note_on_c, 0, 65, 78
2, 172220, Note_off_c, 0, 65, 64
2, 172224, Note_on_c, 0, 68, 78
2, 172224, Note_on_c, 0, 75, 85
2, 172284, Note_off_c, 0, 68, 64
2, 172288, Note_on_c, 0, 65, 78
2, 172348, Note_off_c, 0, 65, 64
2, 172352, Note_on_c, 0, 62, 78
2, 172412, Note_off_c, 0, 75, 64
2, 172412, Note_off_c, 0, 62, 64
2, 172416, Note_on_c, 0, 59, 78
2, 172416, Note_on_c, 0, 79, 85
2, 172476, Note_off_c, 0, 59, 64
2, 172480, Note_on_c, 0, 62, 78
2, 172540, Note_off_c, 0, 62, 64
2, 172544, Note_on_c, 0, 65, 78
2, 172604, Note_off_c, 0, 79, 64
2, 172604, Note_off_c, 0, 65, 64
2, 172608, Note_on_c, 0, 67, 78
2, 172608, Note_on_c, 0, 77, 85
2, 172668, Note_off_c, 0, 67, 64
2, 172672, Note_on_c, 0, 65, 78
2, 172732, Note_off_c, 0, 65, 64
2, 172736, Note_on_c, 0, 62, 78
2, 172796, Note_off_c, 0, 77, 64
2, 172796, Note_off_c, 0, 62, 64
2, 172800, Note_on_c, 0, 55, 78
2, 172800, Note_on_c, 0, 75, 85
2, 172860, Note_off_c, 0, 55, 64
2, 172864, Note_on_c, 0, 60, 78
2, 172924, Note_off_c, 0, 60, 64
2, 172928, Note_on_c, 0, 63, 78
2, 172988, Note_off_c, 0, 75, 64
2, 172988, Note_off_c, 0, 63, 64
2, 172992, Note_on_c, 0, 67, 78
2, 173052, Note_off_c, 0, 67, 64
2, 173056, Note_on_c, 0, 63, 78
2, 173116, Note_off_c, 0, 63, 64
2, 173120, Note_on_c, 0, 60, 78
2, 173180, Note_off_c, 0, 60, 64
2, 173184, Note_on_c, 0, 66, 78
2, 173244, Note_off_c, 0, 66, 64
2, 173248, Note_on_c, 0, 63, 78
2, 173308, Note_off_c, 0, 63, 64
2, 173312, Note_on_c, 0, 60, 78
2, 173372, Note_off_c, 0, 60, 64
2, 173376, Note_on_c, 0, 67, 78
2, 173436, Note_off_c, 0, 67, 64
2, 173440, Note_on_c, 0, 63, 78
2, 173500, Note_off_c, 0, 63, 64
2, 173504, Note_on_c, 0, 60, 78
2, 173564, Note_off_c, 0, 60, 64
2, 173568, Note_on_c, 0, 60, 78
2, 173628, Note_off_c, 0, 60, 64
2, 173632, Note_on_c, 0, 62, 78
2, 173692, Note_off_c, 0, 62, 64
2, 173696, Note_on_c, 0, 66, 78
2, 173756, Note_off_c, 0, 66, 64
2, 173760, Note_on_c, 0, 69, 78
2, 173760, Note_on_c, 0, 81, 84
2, 173820, Note_off_c, 0, 69, 64
2, 173824, Note_on_c, 0, 66, 78
2, 173884, Note_off_c, 0, 66, 64
2, 173888, Note_on_c, 0, 62, 78
2, 173948, Note_off_c, 0, 81, 64
2, 173948, Note_off_c, 0, 62, 64
2, 173952, Note_on_c, 0, 60, 78
2, 173952, Note_on_c, 0, 86, 87
2, 174012, Note_off_c, 0, 60, 64
2, 174016, Note_on_c, 0, 62, 78
2, 174076, Note_off_c, 0, 62, 64
2, 174080, Note_on_c, 0, 66, 78
2, 174140, Note_off_c, 0, 86, 64
2, 174140, Note_off_c, 0, 66, 64
2, 174144, Note_on_c, 0, 69, 78
2, 174144, Note_on_c, 0, 84, 86
2, 174204, Note_off_c, 0, 69, 64
2, 174208, Note_on_c, 0, 66, 78
2, 174268, Note_off_c, 0, 66, 64
2, 174272, Note_on_c, 0, 62, 78
2, 174332, Note_off_c, 0, 84, 64
2, 174332, Note_off_c, 0, 62, 64
2, 174336, Note_on_c, 0, 58, 78
2, 174336, Note_on_c, 0, 82, 85
2, 174396, Note_off_c, 0, 58, 64
2, 174400, Note_on_c, 0, 62, 78
2, 174460, Note_off_c, 0, 62, 64
2, 174464, Note_on_c, 0, 67, 78
2, 174524, Note_off_c, 0, 82, 64
2, 174524, Note_off_c, 0, 67, 64
2, 174528, Note_on_c, 0, 70, 78
2, 174588, Note_off_c, 0, 70, 64
2, 174592, Note_on_c, 0, 67, 78
2, 174652, Note_off_c, 0, 67, 64
2, 174656, Note_on_c, 0, 62, 78
2, 174716, Note_off_c, 0, 62, 64
2, 174720, Note_on_c, 0, 70, 78
2, 174780, Note_off_c, 0, 70, 64
2, 174784, Note_on_c, 0, 67, 78
2, 174844, Note_off_c, 0, 67, 64
2, 174848, Note_on_c, 0, 63, 78
2, 174908, Note_off_c, 0, 63, 64
2, 174912, Note_on_c, 0, 70, 78
2, 174972, Note_off_c, 0, 70, 64
2, 174976, Note_on_c, 0, 67, 78
2, 175036, Note_off_c, 0, 67, 64
2, 175040, Note_on_c, 0, 64, 78
2, 175100, Note_off_c, 0, 64, 64
2, 175104, Note_on_c, 0, 62, 78
2, 175164, Note_off_c, 0, 62, 64
2, 175168, Note_on_c, 0, 67, 78
2, 175228, Note_off_c, 0, 67, 64
2, 175232, Note_on_c, 0, 70, 78
2, 175292, Note_off_c, 0, 70, 64
2, 175296, Note_on_c, 0, 74, 78
2, 175296, Note_on_c, 0, 79, 84
2, 175356, Note_off_c, 0, 74, 64
2, 175360, Note_on_c, 0, 70, 78
2, 175420, Note_off_c, 0, 70, 64
2, 175424, Note_on_c, 0, 67, 78
2, 175484, Note_off_c, 0, 79, 64
2, 175484, Note_off_c, 0, 67, 64
2, 175488, Note_on_c, 0, 62, 78
2, 175488, Note_on_c, 0, 86, 86
2, 175548, Note_off_c, 0, 62, 64
2, 175552, Note_on_c, 0, 67, 78
2, 175612, Note_off_c, 0, 67, 64
2, 175616, Note_on_c, 0, 70, 78
2, 175676, Note_off_c, 0, 86, 64
2, 175676, Note_off_c, 0, 70, 64
2, 175680, Note_on_c, 0, 74, 78
2, 175680, Note_on_c, 0, 82, 85
2, 175740, Note_off_c, 0, 74, 64
2, 175744, Note_on_c, 0, 70, 78
2, 175804, Note_off_c, 0, 70, 64
2, 175808, Note_on_c, 0, 67, 78
2, 175868, Note_off_c, 0, 82, 64
2, 175868, Note_off_c, 0, 67, 64
2, 175872, Note_on_c, 0, 62, 78
2, 175932, Note_off_c, 0, 62, 64
2, 175936, Note_on_c, 0, 66, 78
2, 175996, Note_off_c, 0, 66, 64
2, 176000, Note_on_c, 0, 69, 78
2, 176060, Note_off_c, 0, 69, 64
2, 176064, Note_on_c, 0, 72, 78
2, 176064, Note_on_c, 0, 78, 85
2, 176124, Note_off_c, 0, 72, 64
2, 176128, Note_on_c, 0, 69, 78
2, 176188, Note_off_c, 0, 69, 64
2, 176192, Note_on_c, 0, 66, 78
2, 176252, Note_off_c, 0, 78, 64
2, 176252, Note_off_c, 0, 66, 64
2, 176256, Note_on_c, 0, 62, 78
2, 176256, Note_on_c, 0, 84, 85
2, 176316, Note_off_c, 0, 62, 64
2, 176320, Note_on_c, 0, 66, 78
2, 176380, Note_off_c, 0, 66, 64
2, 176384, Note_on_c, 0, 69, 78
2, 176444, Note_off_c, 0, 84, 64
2, 176444, Note_off_c, 0, 69, 64
2, 176448, Note_on_c, 0, 72, 78
2, 176448, Note_on_c, 0, 81, 85
2, 176508, Note_off_c, 0, 72, 64
2, 176512, Note_on_c, 0, 69, 78
2, 176572, Note_off_c, 0, 69, 64
2, 176576, Note_on_c, 0, 66, 78
2, 176636, Note_off_c, 0, 81, 64
2, 176636, Note_off_c, 0, 66, 64
2, 176640, Note_on_c, 0, 79, 85
2, 176640, Note_on_c, 0, 67, 85
2, 176828, Note_off_c, 0, 79, 64
2, 176828, Note_off_c, 0, 67, 64
2, 176896, Note_on_c, 0, 54, 78
2, 176956, Note_off_c, 0, 54, 64
2, 176960, Note_on_c, 0, 55, 78
2, 177020, Note_off_c, 0, 55, 64
2, 177088, Note_on_c, 0, 57, 78
2, 177148, Note_off_c, 0, 57, 64
2, 177152, Note_on_c, 0, 58, 78
2, 177212, Note_off_c, 0, 58, 64
2, 177280, Note_on_c, 0, 61, 78
2, 177340, Note_off_c, 0, 61, 64
2, 177344, Note_on_c, 0, 62, 78
2, 177404, Note_off_c, 0, 62, 64
2, 177472, Note_on_c, 0, 66, 78
2, 177532, Note_off_c, 0, 66, 64
2, 177536, Note_on_c, 0, 67, 78
2, 177596, Note_off_c, 0, 67, 64
2, 177664, Note_on_c, 0, 69, 78
2, 177724, Note_off_c, 0, 69, 64
2, 177728, Note_on_c, 0, 70, 78
2, 177788, Note_off_c, 0, 70, 64
2, 177856, Note_on_c, 0, 73, 78
2, 177916, Note_off_c, 0, 73, 64
2, 177920, Note_on_c, 0, 74, 78
2, 177980, Note_off_c, 0, 74, 64
2, 178048, Note_on_c, 0, 78, 78
2, 178108, Note_off_c, 0, 78, 64
2, 178112, Note_on_c, 0, 79, 78
2, 178172, Note_off_c, 0, 79, 64
2, 178176, Note_on_c, 0, 70, 91
2, 178176, Note_on_c, 0, 65, 91
2, 178176, Note_on_c, 0, 62, 91
2, 178364, Note_off_c, 0, 70, 64
2, 178364, Note_off_c, 0, 65, 64
2, 178364, Note_off_c, 0, 62, 64
2, 178432, Note_on_c, 0, 81, 82
2, 178492, Note_off_c, 0, 81, 64
2, 178496, Note_on_c, 0, 82, 82
2, 178556, Note_off_c, 0, 82, 64
2, 178624, Note_on_c, 0, 76, 78
2, 178684, Note_off_c, 0, 76, 64
2, 178688, Note_on_c, 0, 77, 78
2, 178748, Note_off_c, 0, 77, 64
2, 178816, Note_on_c, 0, 73, 78
2, 178876, Note_off_c, 0, 73, 64
2, 178880, Note_on_c, 0, 74, 78
2, 178940, Note_off_c, 0, 74, 64
2, 179008, Note_on_c, 0, 69, 78
2, 179068, Note_off_c, 0, 69, 64
2, 179072, Note_on_c, 0, 70, 78
2, 179132, Note_off_c, 0, 70, 64
2, 179200, Note_on_c, 0, 64, 78
2, 179260, Note_off_c, 0, 64, 64
2, 179264, Note_on_c, 0, 65, 78
2, 179324, Note_off_c, 0, 65, 64
2, 179392, Note_on_c, 0, 61, 78
2, 179452, Note_off_c, 0, 61, 64
2, 179456, Note_on_c, 0, 62, 78
2, 179516, Note_off_c, 0, 62, 64
2, 179584, Note_on_c, 0, 57, 78
2, 179644, Note_off_c, 0, 57, 64
2, 179648, Note_on_c, 0, 58, 78
2, 179708, Note_off_c, 0, 58, 64
2, 179712, Note_on_c, 0, 57, 78
2, 179772, Note_off_c, 0, 57, 64
2, 179776, Note_on_c, 0, 60, 78
2, 179836, Note_off_c, 0, 60, 64
2, 179840, Note_on_c, 0, 63, 78
2, 179900, Note_off_c, 0, 63, 64
2, 179904, Note_on_c, 0, 69, 78
2, 179904, Note_on_c, 0, 77, 85
2, 179964, Note_off_c, 0, 69, 64
2, 179968, Note_on_c, 0, 63, 78
2, 180028, Note_off_c, 0, 63, 64
2, 180032, Note_on_c, 0, 60, 78
2, 180092, Note_off_c, 0, 77, 64
2, 180092, Note_off_c, 0, 60, 64
2, 180096, Note_on_c, 0, 57, 78
2, 180096, Note_on_c, 0, 78, 85
2, 180156, Note_off_c, 0, 57, 64
2, 180160, Note_on_c, 0, 60, 78
2, 180220, Note_off_c, 0, 60, 64
2, 180224, Note_on_c, 0, 63, 78
2, 180284, Note_off_c, 0, 78, 64
2, 180284, Note_off_c, 0, 63, 64
2, 180288, Note_on_c, 0, 69, 78
2, 180288, Note_on_c, 0, 77, 85
2, 180348, Note_off_c, 0, 69, 64
2, 180352, Note_on_c, 0, 63, 78
2, 180412, Note_off_c, 0, 63, 64
2, 180416, Note_on_c, 0, 60, 78
2, 180476, Note_off_c, 0, 77, 64
2, 180476, Note_off_c, 0, 60, 64
2, 180480, Note_on_c, 0, 57, 78
2, 180480, Note_on_c, 0, 78, 85
2, 180540, Note_off_c, 0, 57, 64
2, 180544, Note_on_c, 0, 60, 78
2, 180604, Note_off_c, 0, 60, 64
2, 180608, Note_on_c, 0, 63, 78
2, 180668, Note_off_c, 0, 78, 64
2, 180668, Note_off_c, 0, 63, 64
2, 180672, Note_on_c, 0, 69, 78
2, 180672, Note_on_c, 0, 77, 85
2, 180732, Note_off_c, 0, 69, 64
2, 180736, Note_on_c, 0, 63, 78
2, 180796, Note_off_c, 0, 63, 64
2, 180800, Note_on_c, 0, 60, 78
2, 180860, Note_off_c, 0, 77, 64
2, 180860, Note_off_c, 0, 60, 64
2, 180864, Note_on_c, 0, 57, 78
2, 180864, Note_on_c, 0, 78, 85
2, 180924, Note_off_c, 0, 57, 64
2, 180928, Note_on_c, 0, 60, 78
2, 180988, Note_off_c, 0, 60, 64
2, 180992, Note_on_c, 0, 63, 78
2, 181052, Note_off_c, 0, 78, 64
2, 181052, Note_off_c, 0, 63, 64
2, 181056, Note_on_c, 0, 69, 78
2, 181056, Note_on_c, 0, 77, 85
2, 181116, Note_off_c, 0, 69, 64
2, 181120, Note_on_c, 0, 63, 78
2, 181180, Note_off_c, 0, 63, 64
2, 181184, Note_on_c, 0, 60, 78
2, 181244, Note_off_c, 0, 77, 64
2, 181244, Note_off_c, 0, 60, 64
2, 181248, Note_on_c, 0, 60, 78
2, 181248, Note_on_c, 0, 75, 85
2, 181308, Note_off_c, 0, 60, 64
2, 181312, Note_on_c, 0, 63, 78
2, 181372, Note_off_c, 0, 63, 64
2, 181376, Note_on_c, 0, 69, 78
2, 181436, Note_off_c, 0, 75, 64
2, 181436, Note_off_c, 0, 69, 64
2, 181440, Note_on_c, 0, 72, 78
2, 181500, Note_off_c, 0, 72, 64
2, 181504, Note_on_c, 0, 69, 78
2, 181564, Note_off_c, 0, 69, 64
2, 181568, Note_on_c, 0, 63, 78
2, 181628, Note_off_c, 0, 63, 64
2, 181632, Note_on_c, 0, 60, 78
2, 181692, Note_off_c, 0, 60, 64
2, 181696, Note_on_c, 0, 63, 78
2, 181756, Note_off_c, 0, 63, 64
2, 181760, Note_on_c, 0, 69, 78
2, 181820, Note_off_c, 0, 69, 64
2, 181824, Note_on_c, 0, 72, 78
2, 181884, Note_off_c, 0, 72, 64
2, 181888, Note_on_c, 0, 69, 78
2, 181948, Note_off_c, 0, 69, 64
2, 181952, Note_on_c, 0, 63, 78
2, 182012, Note_off_c, 0, 63, 64
2, 182016, Note_on_c, 0, 60, 78
2, 182076, Note_off_c, 0, 60, 64
2, 182080, Note_on_c, 0, 63, 78
2, 182140, Note_off_c, 0, 63, 64
2, 182144, Note_on_c, 0, 69, 78
2, 182204, Note_off_c, 0, 69, 64
2, 182208, Note_on_c, 0, 72, 78
2, 182268, Note_off_c, 0, 72, 64
2, 182272, Note_on_c, 0, 69, 78
2, 182332, Note_off_c, 0, 69, 64
2, 182336, Note_on_c, 0, 63, 78
2, 182396, Note_off_c, 0, 63, 64
2, 182400, Note_on_c, 0, 60, 78
2, 182460, Note_off_c, 0, 60, 64
2, 182464, Note_on_c, 0, 63, 78
2, 182524, Note_off_c, 0, 63, 64
2, 182528, Note_on_c, 0, 69, 78
2, 182588, Note_off_c, 0, 69, 64
2, 182592, Note_on_c, 0, 72, 78
2, 182652, Note_off_c, 0, 72, 64
2, 182656, Note_on_c, 0, 69, 78
2, 182716, Note_off_c, 0, 69, 64
2, 182720, Note_on_c, 0, 63, 78
2, 182780, Note_off_c, 0, 63, 64
2, 182784, Note_on_c, 0, 62, 78
2, 182844, Note_off_c, 0, 62, 64
2, 182848, Note_on_c, 0, 60, 78
2, 182908, Note_off_c, 0, 60, 64
2, 182912, Note_on_c, 0, 58, 78
2, 182972, Note_off_c, 0, 58, 64
2, 182976, Note_on_c, 0, 62, 78
2, 182976, Note_on_c, 0, 89, 88
2, 183036, Note_off_c, 0, 62, 64
2, 183040, Note_on_c, 0, 60, 78
2, 183100, Note_off_c, 0, 60, 64
2, 183104, Note_on_c, 0, 58, 78
2, 183164, Note_off_c, 0, 89, 64
2, 183164, Note_off_c, 0, 58, 64
2, 183168, Note_on_c, 0, 62, 78
2, 183168, Note_on_c, 0, 86, 87
2, 183228, Note_off_c, 0, 62, 64
2, 183232, Note_on_c, 0, 60, 78
2, 183292, Note_off_c, 0, 60, 64
2, 183296, Note_on_c, 0, 58, 78
2, 183356, Note_off_c, 0, 86, 64
2, 183356, Note_off_c, 0, 58, 64
2, 183360, Note_on_c, 0, 62, 78
2, 183360, Note_on_c, 0, 82, 86
2, 183420, Note_off_c, 0, 62, 64
2, 183424, Note_on_c, 0, 60, 78
2, 183484, Note_off_c, 0, 60, 64
2, 183488, Note_on_c, 0, 58, 78
2, 183548, Note_off_c, 0, 82, 64
2, 183548, Note_off_c, 0, 58, 64
2, 183552, Note_on_c, 0, 62, 78
2, 183552, Note_on_c, 0, 77, 85
2, 183612, Note_off_c, 0, 62, 64
2, 183616, Note_on_c, 0, 60, 78
2, 183676, Note_off_c, 0, 60, 64
2, 183680, Note_on_c, 0, 58, 78
2, 183740, Note_off_c, 0, 77, 64
2, 183740, Note_off_c, 0, 58, 64
2, 183744, Note_on_c, 0, 62, 78
2, 183744, Note_on_c, 0, 74, 84
2, 183804, Note_off_c, 0, 62, 64
2, 183808, Note_on_c, 0, 60, 78
2, 183868, Note_off_c, 0, 60, 64
2, 183872, Note_on_c, 0, 58, 78
2, 183932, Note_off_c, 0, 74, 64
2, 183932, Note_off_c, 0, 58, 64
2, 183936, Note_on_c, 0, 62, 78
2, 183936, Note_on_c, 0, 70, 83
2, 183996, Note_off_c, 0, 62, 64
2, 184000, Note_on_c, 0, 60, 78
2, 184060, Note_off_c, 0, 60, 64
2, 184064, Note_on_c, 0, 58, 78
2, 184124, Note_off_c, 0, 70, 64
2, 184124, Note_off_c, 0, 58, 64
2, 184128, Note_on_c, 0, 62, 78
2, 184128, Note_on_c, 0, 65, 81
2, 184188, Note_off_c, 0, 62, 64
2, 184192, Note_on_c, 0, 60, 78
2, 184252, Note_off_c, 0, 60, 64
2, 184256, Note_on_c, 0, 58, 78
2, 184316, Note_off_c, 0, 65, 64
2, 184316, Note_off_c, 0, 58, 64
2, 184320, Note_on_c, 0, 62, 78
2, 184380, Note_off_c, 0, 62, 64
2, 184384, Note_on_c, 0, 60, 78
2, 184444, Note_off_c, 0, 60, 64
2, 184448, Note_on_c, 0, 58, 78
2, 184508, Note_off_c, 0, 58, 64
2, 184512, Note_on_c, 0, 62, 78
2, 184572, Note_off_c, 0, 62, 64
2, 184576, Note_on_c, 0, 60, 78
2, 184636, Note_off_c, 0, 60, 64
2, 184640, Note_on_c, 0, 58, 78
2, 184700, Note_off_c, 0, 58, 64
2, 184704, Note_on_c, 0, 62, 78
2, 184764, Note_off_c, 0, 62, 64
2, 184768, Note_on_c, 0, 60, 78
2, 184828, Note_off_c, 0, 60, 64
2, 184832, Note_on_c, 0, 58, 78
2, 184892, Note_off_c, 0, 58, 64
2, 184896, Note_on_c, 0, 62, 78
2, 184956, Note_off_c, 0, 62, 64
2, 184960, Note_on_c, 0, 60, 78
2, 185020, Note_off_c, 0, 60, 64
2, 185024, Note_on_c, 0, 58, 78
2, 185084, Note_off_c, 0, 58, 64
2, 185088, Note_on_c, 0, 62, 78
2, 185148, Note_off_c, 0, 62, 64
2, 185152, Note_on_c, 0, 60, 78
2, 185212, Note_off_c, 0, 60, 64
2, 185216, Note_on_c, 0, 58, 78
2, 185276, Note_off_c, 0, 58, 64
2, 185280, Note_on_c, 0, 62, 78
2, 185340, Note_off_c, 0, 62, 64
2, 185344, Note_on_c, 0, 60, 78
2, 185404, Note_off_c, 0, 60, 64
2, 185408, Note_on_c, 0, 58, 78
2, 185468, Note_off_c, 0, 58, 64
2, 185472, Note_on_c, 0, 62, 78
2, 185532, Note_off_c, 0, 62, 64
2, 185536, Note_on_c, 0, 60, 78
2, 185596, Note_off_c, 0, 60, 64
2, 185600, Note_on_c, 0, 58, 78
2, 185660, Note_off_c, 0, 58, 64
2, 185664, Note_on_c, 0, 62, 78
2, 185724, Note_off_c, 0, 62, 64
2, 185728, Note_on_c, 0, 60, 78
2, 185788, Note_off_c, 0, 60, 64
2, 185792, Note_on_c, 0, 58, 78
2, 185852, Note_off_c, 0, 58, 64
2, 185856, Note_on_c, 0, 63, 78
2, 185916, Note_off_c, 0, 63, 64
2, 185920, Note_on_c, 0, 58, 78
2, 185980, Note_off_c, 0, 58, 64
2, 185984, Note_on_c, 0, 55, 78
2, 186044, Note_off_c, 0, 55, 64
2, 186048, Note_on_c, 0, 63, 78
2, 186048, Note_on_c, 0, 87, 88
2, 186108, Note_off_c, 0, 63, 64
2, 186112, Note_on_c, 0, 58, 78
2, 186172, Note_off_c, 0, 58, 64
2, 186176, Note_on_c, 0, 55, 78
2, 186236, Note_off_c, 0, 87, 64
2, 186236, Note_off_c, 0, 55, 64
2, 186240, Note_on_c, 0, 63, 78
2, 186240, Note_on_c, 0, 82, 86
2, 186300, Note_off_c, 0, 63, 64
2, 186304, Note_on_c, 0, 58, 78
2, 186364, Note_off_c, 0, 58, 64
2, 186368, Note_on_c, 0, 55, 78
2, 186428, Note_off_c, 0, 82, 64
2, 186428, Note_off_c, 0, 55, 64
2, 186432, Note_on_c, 0, 63, 78
2, 186432, Note_on_c, 0, 79, 84
2, 186492, Note_off_c, 0, 63, 64
2, 186496, Note_on_c, 0, 58, 78
2, 186556, Note_off_c, 0, 58, 64
2, 186560, Note_on_c, 0, 55, 78
2, 186620, Note_off_c, 0, 79, 64
2, 186620, Note_off_c, 0, 55, 64
2, 186624, Note_on_c, 0, 75, 81
2, 186812, Note_off_c, 0, 75, 64
2, 186816, Note_on_c, 0, 70, 81
2, 187004, Note_off_c, 0, 70, 64
2, 187008, Note_on_c, 0, 67, 80
2, 187196, Note_off_c, 0, 67, 64
2, 187200, Note_on_c, 0, 63, 80
2, 187388, Note_off_c, 0, 63, 64
2, 187392, Note_on_c, 0, 62, 78
2, 187452, Note_off_c, 0, 62, 64
2, 187456, Note_on_c, 0, 58, 78
2, 187516, Note_off_c, 0, 58, 64
2, 187520, Note_on_c, 0, 55, 78
2, 187580, Note_off_c, 0, 55, 64
2, 187584, Note_on_c, 0, 62, 78
2, 187644, Note_off_c, 0, 62, 64
2, 187648, Note_on_c, 0, 58, 78
2, 187708, Note_off_c, 0, 58, 64
2, 187712, Note_on_c, 0, 55, 78
2, 187772, Note_off_c, 0, 55, 64
2, 187776, Note_on_c, 0, 62, 78
2, 187836, Note_off_c, 0, 62, 64
2, 187840, Note_on_c, 0, 58, 78
2, 187900, Note_off_c, 0, 58, 64
2, 187904, Note_on_c, 0, 55, 78
2, 187964, Note_off_c, 0, 55, 64
2, 187968, Note_on_c, 0, 62, 78
2, 188028, Note_off_c, 0, 62, 64
2, 188032, Note_on_c, 0, 58, 78
2, 188092, Note_off_c, 0, 58, 64
2, 188096, Note_on_c, 0, 55, 78
2, 188156, Note_off_c, 0, 55, 64
2, 188160, Note_on_c, 0, 60, 78
2, 188220, Note_off_c, 0, 60, 64
2, 188224, Note_on_c, 0, 58, 78
2, 188284, Note_off_c, 0, 58, 64
2, 188288, Note_on_c, 0, 53, 78
2, 188348, Note_off_c, 0, 53, 64
2, 188352, Note_on_c, 0, 60, 78
2, 188412, Note_off_c, 0, 60, 64
2, 188416, Note_on_c, 0, 58, 78
2, 188476, Note_off_c, 0, 58, 64
2, 188480, Note_on_c, 0, 53, 78
2, 188540, Note_off_c, 0, 53, 64
2, 188544, Note_on_c, 0, 60, 78
2, 188604, Note_off_c, 0, 60, 64
2, 188608, Note_on_c, 0, 57, 78
2, 188668, Note_off_c, 0, 57, 64
2, 188672, Note_on_c, 0, 51, 78
2, 188732, Note_off_c, 0, 51, 64
2, 188736, Note_on_c, 0, 60, 78
2, 188796, Note_off_c, 0, 60, 64
2, 188800, Note_on_c, 0, 57, 78
2, 188860, Note_off_c, 0, 57, 64
2, 188864, Note_on_c, 0, 51, 78
2, 188924, Note_off_c, 0, 51, 64
2, 188928, Note_on_c, 0, 58, 78
2, 188988, Note_off_c, 0, 58, 64
2, 188992, Note_on_c, 0, 55, 78
2, 189052, Note_off_c, 0, 55, 64
2, 189056, Note_on_c, 0, 51, 78
2, 189116, Note_off_c, 0, 51, 64
2, 189120, Note_on_c, 0, 62, 78
2, 189180, Note_off_c, 0, 62, 64
2, 189184, Note_on_c, 0, 58, 78
2, 189244, Note_off_c, 0, 58, 64
2, 189248, Note_on_c, 0, 53, 78
2, 189308, Note_off_c, 0, 53, 64
2, 189312, Note_on_c, 0, 65, 78
2, 189372, Note_off_c, 0, 65, 64
2, 189376, Note_on_c, 0, 62, 78
2, 189436, Note_off_c, 0, 62, 64
2, 189440, Note_on_c, 0, 58, 78
2, 189500, Note_off_c, 0, 58, 64
2, 189504, Note_on_c, 0, 70, 78
2, 189564, Note_off_c, 0, 70, 64
2, 189568, Note_on_c, 0, 65, 78
2, 189628, Note_off_c, 0, 65, 64
2, 189632, Note_on_c, 0, 62, 78
2, 189692, Note_off_c, 0, 62, 64
2, 189696, Note_on_c, 0, 72, 78
2, 189756, Note_off_c, 0, 72, 64
2, 189760, Note_on_c, 0, 66, 78
2, 189820, Note_off_c, 0, 66, 64
2, 189824, Note_on_c, 0, 60, 78
2, 189884, Note_off_c, 0, 60, 64
2, 189888, Note_on_c, 0, 78, 82
2, 189948, Note_off_c, 0, 78, 64
2, 189952, Note_on_c, 0, 72, 78
2, 190012, Note_off_c, 0, 72, 64
2, 190016, Note_on_c, 0, 69, 78
2, 190076, Note_off_c, 0, 69, 64
2, 190080, Note_on_c, 0, 81, 82
2, 190140, Note_off_c, 0, 81, 64
2, 190144, Note_on_c, 0, 77, 78
2, 190204, Note_off_c, 0, 77, 64
2, 190208, Note_on_c, 0, 72, 78
2, 190268, Note_off_c, 0, 72, 64
2, 190272, Note_on_c, 0, 84, 83
2, 190332, Note_off_c, 0, 84, 64
2, 190336, Note_on_c, 0, 77, 78
2, 190396, Note_off_c, 0, 77, 64
2, 190400, Note_on_c, 0, 72, 78
2, 190460, Note_off_c, 0, 72, 64
2, 190464, Note_on_c, 0, 79, 91
2, 190464, Note_on_c, 0, 82, 92
2, 190464, Note_on_c, 0, 74, 87
2, 190652, Note_off_c, 0, 79, 64
2, 190652, Note_off_c, 0, 82, 64
2, 190652, Note_off_c, 0, 74, 64
2, 190720, Note_on_c, 0, 66, 78
2, 190780, Note_off_c, 0, 66, 64
2, 190784, Note_on_c, 0, 67, 78
2, 190844, Note_off_c, 0, 67, 64
2, 190912, Note_on_c, 0, 69, 78
2, 190972, Note_off_c, 0, 69, 64
2, 190976, Note_on_c, 0, 70, 78
2, 191036, Note_off_c, 0, 70, 64
2, 191104, Note_on_c, 0, 73, 78
2, 191164, Note_off_c, 0, 73, 64
2, 191168, Note_on_c, 0, 74, 78
2, 191228, Note_off_c, 0, 74, 64
2, 191296, Note_on_c, 0, 78, 78
2, 191356, Note_off_c, 0, 78, 64
2, 191360, Note_on_c, 0, 79, 82
2, 191420, Note_off_c, 0, 79, 64
2, 191488, Note_on_c, 0, 74, 78
2, 191548, Note_off_c, 0, 74, 64
2, 191552, Note_on_c, 0, 82, 82
2, 191612, Note_off_c, 0, 82, 64
2, 191680, Note_on_c, 0, 72, 78
2, 191740, Note_off_c, 0, 72, 64
2, 191744, Note_on_c, 0, 81, 82
2, 191804, Note_off_c, 0, 81, 64
2, 191872, Note_on_c, 0, 70, 78
2, 191932, Note_off_c, 0, 70, 64
2, 191936, Note_on_c, 0, 79, 82
2, 191996, Note_off_c, 0, 79, 64
2, 192064, Note_on_c, 0, 69, 78
2, 192124, Note_off_c, 0, 69, 64
2, 192128, Note_on_c, 0, 78, 82
2, 192188, Note_off_c, 0, 78, 64
2, 192256, Note_on_c, 0, 66, 78
2, 192316, Note_off_c, 0, 66, 64
2, 192320, Note_on_c, 0, 69, 78
2, 192380, Note_off_c, 0, 69, 64
2, 192448, Note_on_c, 0, 66, 78
2, 192508, Note_off_c, 0, 66, 64
2, 192512, Note_on_c, 0, 69, 78
2, 192572, Note_off_c, 0, 69, 64
2, 192640, Note_on_c, 0, 66, 78
2, 192700, Note_off_c, 0, 66, 64
2, 192704, Note_on_c, 0, 69, 78
2, 192764, Note_off_c, 0, 69, 64
2, 192832, Note_on_c, 0, 66, 78
2, 192892, Note_off_c, 0, 66, 64
2, 192896, Note_on_c, 0, 69, 78
2, 192956, Note_off_c, 0, 69, 64
2, 193024, Note_on_c, 0, 67, 78
2, 193084, Note_off_c, 0, 67, 64
2, 193088, Note_on_c, 0, 70, 78
2, 193148, Note_off_c, 0, 70, 64
2, 193216, Note_on_c, 0, 69, 78
2, 193276, Note_off_c, 0, 69, 64
2, 193280, Note_on_c, 0, 72, 78
2, 193340, Note_off_c, 0, 72, 64
2, 193408, Note_on_c, 0, 70, 78
2, 193468, Note_off_c, 0, 70, 64
2, 193472, Note_on_c, 0, 74, 78
2, 193532, Note_off_c, 0, 74, 64
2, 193536, Note_on_c, 0, 66, 78
2, 193596, Note_off_c, 0, 66, 64
2, 193600, Note_on_c, 0, 69, 78
2, 193660, Note_off_c, 0, 69, 64
2, 193664, Note_on_c, 0, 72, 78
2, 193724, Note_off_c, 0, 72, 64
2, 193728, Note_on_c, 0, 75, 78
2, 193728, Note_on_c, 0, 84, 85
2, 193788, Note_off_c, 0, 75, 64
2, 193792, Note_on_c, 0, 72, 78
2, 193852, Note_off_c, 0, 72, 64
2, 193856, Note_on_c, 0, 69, 78
2, 193916, Note_off_c, 0, 84, 64
2, 193916, Note_off_c, 0, 69, 64
2, 193920, Note_on_c, 0, 66, 78
2, 193920, Note_on_c, 0, 87, 87
2, 193980, Note_off_c, 0, 66, 64
2, 193984, Note_on_c, 0, 69, 78
2, 194044, Note_off_c, 0, 69, 64
2, 194048, Note_on_c, 0, 72, 78
2, 194108, Note_off_c, 0, 87, 64
2, 194108, Note_off_c, 0, 72, 64
2, 194112, Note_on_c, 0, 75, 78
2, 194112, Note_on_c, 0, 84, 85
2, 194172, Note_off_c, 0, 75, 64
2, 194176, Note_on_c, 0, 72, 78
2, 194236, Note_off_c, 0, 72, 64
2, 194240, Note_on_c, 0, 69, 78
2, 194300, Note_off_c, 0, 84, 64
2, 194300, Note_off_c, 0, 69, 64
2, 194304, Note_on_c, 0, 66, 78
2, 194304, Note_on_c, 0, 81, 84
2, 194364, Note_off_c, 0, 66, 64
2, 194368, Note_on_c, 0, 69, 78
2, 194428, Note_off_c, 0, 69, 64
2, 194432, Note_on_c, 0, 72, 78
2, 194492, Note_off_c, 0, 81, 64
2, 194492, Note_off_c, 0, 72, 64
2, 194496, Note_on_c, 0, 74, 78
2, 194496, Note_on_c, 0, 78, 84
2, 194556, Note_off_c, 0, 74, 64
2, 194560, Note_on_c, 0, 72, 78
2, 194620, Note_off_c, 0, 72, 64
2, 194624, Note_on_c, 0, 69, 78
2, 194684, Note_off_c, 0, 78, 64
2, 194684, Note_off_c, 0, 69, 64
2, 194688, Note_on_c, 0, 66, 78
2, 194688, Note_on_c, 0, 86, 86
2, 194748, Note_off_c, 0, 66, 64
2, 194752, Note_on_c, 0, 69, 78
2, 194812, Note_off_c, 0, 69, 64
2, 194816, Note_on_c, 0, 72, 78
2, 194876, Note_off_c, 0, 86, 64
2, 194876, Note_off_c, 0, 72, 64
2, 194880, Note_on_c, 0, 74, 78
2, 194880, Note_on_c, 0, 81, 85
2, 194940, Note_off_c, 0, 74, 64
2, 194944, Note_on_c, 0, 72, 78
2, 195004, Note_off_c, 0, 72, 64
2, 195008, Note_on_c, 0, 69, 78
2, 195068, Note_off_c, 0, 81, 64
2, 195068, Note_off_c, 0, 69, 64
2, 195072, Note_on_c, 0, 62, 78
2, 195072, Note_on_c, 0, 83, 86
2, 195132, Note_off_c, 0, 62, 64
2, 195136, Note_on_c, 0, 65, 78
2, 195196, Note_off_c, 0, 65, 64
2, 195200, Note_on_c, 0, 71, 78
2, 195260, Note_off_c, 0, 83, 64
2, 195260, Note_off_c, 0, 71, 64
2, 195328, Note_on_c, 0, 59, 78
2, 195388, Note_off_c, 0, 59, 64
2, 195392, Note_on_c, 0, 62, 78
2, 195452, Note_off_c, 0, 62, 64
2, 195520, Note_on_c, 0, 59, 78
2, 195580, Note_off_c, 0, 59, 64
2, 195584, Note_on_c, 0, 62, 78
2, 195644, Note_off_c, 0, 62, 64
2, 195712, Note_on_c, 0, 59, 78
2, 195772, Note_off_c, 0, 59, 64
2, 195776, Note_on_c, 0, 62, 78
2, 195836, Note_off_c, 0, 62, 64
2, 195904, Note_on_c, 0, 59, 78
2, 195964, Note_off_c, 0, 59, 64
2, 195968, Note_on_c, 0, 62, 78
2, 196028, Note_off_c, 0, 62, 64
2, 196096, Note_on_c, 0, 60, 78
2, 196156, Note_off_c, 0, 60, 64
2, 196160, Note_on_c, 0, 63, 78
2, 196220, Note_off_c, 0, 63, 64
2, 196288, Note_on_c, 0, 62, 78
2, 196348, Note_off_c, 0, 62, 64
2, 196352, Note_on_c, 0, 65, 78
2, 196412, Note_off_c, 0, 65, 64
2, 196480, Note_on_c, 0, 63, 78
2, 196540, Note_off_c, 0, 63, 64
2, 196544, Note_on_c, 0, 67, 78
2, 196604, Note_off_c, 0, 67, 64
2, 196608, Note_on_c, 0, 59, 78
2, 196668, Note_off_c, 0, 59, 64
2, 196672, Note_on_c, 0, 62, 78
2, 196732, Note_off_c, 0, 62, 64
2, 196736, Note_on_c, 0, 65, 78
2, 196796, Note_off_c, 0, 65, 64
2, 196800, Note_on_c, 0, 68, 78
2, 196800, Note_on_c, 0, 75, 85
2, 196860, Note_off_c, 0, 68, 64
2, 196864, Note_on_c, 0, 65, 78
2, 196924, Note_off_c, 0, 65, 64
2, 196928, Note_on_c, 0, 62, 78
2, 196988, Note_off_c, 0, 75, 64
2, 196988, Note_off_c, 0, 62, 64
2, 196992, Note_on_c, 0, 59, 78
2, 196992, Note_on_c, 0, 79, 84
2, 197052, Note_off_c, 0, 59, 64
2, 197056, Note_on_c, 0, 62, 78
2, 197116, Note_off_c, 0, 62, 64
2, 197120, Note_on_c, 0, 65, 78
2, 197180, Note_off_c, 0, 79, 64
2, 197180, Note_off_c, 0, 65, 64
2, 197184, Note_on_c, 0, 67, 78
2, 197184, Note_on_c, 0, 77, 85
2, 197244, Note_off_c, 0, 67, 64
2, 197248, Note_on_c, 0, 65, 78
2, 197308, Note_off_c, 0, 65, 64
2, 197312, Note_on_c, 0, 62, 78
2, 197372, Note_off_c, 0, 77, 64
2, 197372, Note_off_c, 0, 62, 64
2, 197376, Note_on_c, 0, 55, 78
2, 197376, Note_on_c, 0, 75, 85
2, 197436, Note_off_c, 0, 55, 64
2, 197440, Note_on_c, 0, 60, 78
2, 197500, Note_off_c, 0, 60, 64
2, 197504, Note_on_c, 0, 63, 78
2, 197564, Note_off_c, 0, 75, 64
2, 197564, Note_off_c, 0, 63, 64
2, 197568, Note_on_c, 0, 67, 78
2, 197628, Note_off_c, 0, 67, 64
2, 197632, Note_on_c, 0, 63, 78
2, 197692, Note_off_c, 0, 63, 64
2, 197696, Note_on_c, 0, 60, 78
2, 197756, Note_off_c, 0, 60, 64
2, 197760, Note_on_c, 0, 66, 78
2, 197820, Note_off_c, 0, 66, 64
2, 197824, Note_on_c, 0, 63, 78
2, 197884, Note_off_c, 0, 63, 64
2, 197888, Note_on_c, 0, 60, 78
2, 197948, Note_off_c, 0, 60, 64
2, 197952, Note_on_c, 0, 67, 78
2, 198012, Note_off_c, 0, 67, 64
2, 198016, Note_on_c, 0, 63, 78
2, 198076, Note_off_c, 0, 63, 64
2, 198080, Note_on_c, 0, 60, 78
2, 198140, Note_off_c, 0, 60, 64
2, 198144, Note_on_c, 0, 60, 78
2, 198204, Note_off_c, 0, 60, 64
2, 198208, Note_on_c, 0, 62, 78
2, 198268, Note_off_c, 0, 62, 64
2, 198272, Note_on_c, 0, 66, 78
2, 198332, Note_off_c, 0, 66, 64
2, 198336, Note_on_c, 0, 69, 78
2, 198336, Note_on_c, 0, 81, 84
2, 198396, Note_off_c, 0, 69, 64
2, 198400, Note_on_c, 0, 66, 78
2, 198460, Note_off_c, 0, 66, 64
2, 198464, Note_on_c, 0, 62, 78
2, 198524, Note_off_c, 0, 81, 64
2, 198524, Note_off_c, 0, 62, 64
2, 198528, Note_on_c, 0, 60, 78
2, 198528, Note_on_c, 0, 86, 87
2, 198588, Note_off_c, 0, 60, 64
2, 198592, Note_on_c, 0, 62, 78
2, 198652, Note_off_c, 0, 62, 64
2, 198656, Note_on_c, 0, 66, 78
2, 198716, Note_off_c, 0, 86, 64
2, 198716, Note_off_c, 0, 66, 64
2, 198720, Note_on_c, 0, 69, 78
2, 198720, Note_on_c, 0, 84, 86
2, 198780, Note_off_c, 0, 69, 64
2, 198784, Note_on_c, 0, 66, 78
2, 198844, Note_off_c, 0, 66, 64
2, 198848, Note_on_c, 0, 62, 78
2, 198908, Note_off_c, 0, 84, 64
2, 198908, Note_off_c, 0, 62, 64
2, 198912, Note_on_c, 0, 58, 78
2, 198912, Note_on_c, 0, 82, 85
2, 198972, Note_off_c, 0, 58, 64
2, 198976, Note_on_c, 0, 62, 78
2, 199036, Note_off_c, 0, 62, 64
2, 199040, Note_on_c, 0, 67, 78
2, 199100, Note_off_c, 0, 82, 64
2, 199100, Note_off_c, 0, 67, 64
2, 199104, Note_on_c, 0, 70, 78
2, 199164, Note_off_c, 0, 70, 64
2, 199168, Note_on_c, 0, 67, 78
2, 199228, Note_off_c, 0, 67, 64
2, 199232, Note_on_c, 0, 62, 78
2, 199292, Note_off_c, 0, 62, 64
2, 199296, Note_on_c, 0, 70, 78
2, 199356, Note_off_c, 0, 70, 64
2, 199360, Note_on_c, 0, 67, 78
2, 199420, Note_off_c, 0, 67, 64
2, 199424, Note_on_c, 0, 63, 78
2, 199484, Note_off_c, 0, 63, 64
2, 199488, Note_on_c, 0, 70, 78
2, 199548, Note_off_c, 0, 70, 64
2, 199552, Note_on_c, 0, 67, 78
2, 199612, Note_off_c, 0, 67, 64
2, 199616, Note_on_c, 0, 64, 78
2, 199676, Note_off_c, 0, 64, 64
2, 199680, Note_on_c, 0, 62, 78
2, 199740, Note_off_c, 0, 62, 64
2, 199744, Note_on_c, 0, 67, 78
2, 199804, Note_off_c, 0, 67, 64
2, 199808, Note_on_c, 0, 70, 78
2, 199868, Note_off_c, 0, 70, 64
2, 199872, Note_on_c, 0, 74, 78
2, 199872, Note_on_c, 0, 79, 84
2, 199932, Note_off_c, 0, 74, 64
2, 199936, Note_on_c, 0, 70, 78
2, 199996, Note_off_c, 0, 70, 64
2, 200000, Note_on_c, 0, 67, 78
2, 200060, Note_off_c, 0, 79, 64
2, 200060, Note_off_c, 0, 67, 64
2, 200064, Note_on_c, 0, 62, 78
2, 200064, Note_on_c, 0, 86, 87
2, 200124, Note_off_c, 0, 62, 64
2, 200128, Note_on_c, 0, 67, 78
2, 200188, Note_off_c, 0, 67, 64
2, 200192, Note_on_c, 0, 70, 78
2, 200252, Note_off_c, 0, 86, 64
2, 200252, Note_off_c, 0, 70, 64
2, 200256, Note_on_c, 0, 74, 78
2, 200256, Note_on_c, 0, 82, 86
2, 200316, Note_off_c, 0, 74, 64
2, 200320, Note_on_c, 0, 70, 78
2, 200380, Note_off_c, 0, 70, 64
2, 200384, Note_on_c, 0, 67, 78
2, 200444, Note_off_c, 0, 82, 64
2, 200444, Note_off_c, 0, 67, 64
2, 200448, Note_on_c, 0, 62, 78
2, 200508, Note_off_c, 0, 62, 64
2, 200512, Note_on_c, 0, 66, 78
2, 200572, Note_off_c, 0, 66, 64
2, 200576, Note_on_c, 0, 69, 78
2, 200636, Note_off_c, 0, 69, 64
2, 200640, Note_on_c, 0, 72, 78
2, 200640, Note_on_c, 0, 78, 85
2, 200700, Note_off_c, 0, 72, 64
2, 200704, Note_on_c, 0, 69, 78
2, 200764, Note_off_c, 0, 69, 64
2, 200768, Note_on_c, 0, 66, 78
2, 200828, Note_off_c, 0, 78, 64
2, 200828, Note_off_c, 0, 66, 64
2, 200832, Note_on_c, 0, 62, 78
2, 200832, Note_on_c, 0, 84, 85
2, 200892, Note_off_c, 0, 62, 64
2, 200896, Note_on_c, 0, 66, 78
2, 200956, Note_off_c, 0, 66, 64
2, 200960, Note_on_c, 0, 69, 78
2, 201020, Note_off_c, 0, 84, 64
2, 201020, Note_off_c, 0, 69, 64
2, 201024, Note_on_c, 0, 72, 78
2, 201024, Note_on_c, 0, 81, 84
2, 201084, Note_off_c, 0, 72, 64
2, 201088, Note_on_c, 0, 69, 78
2, 201148, Note_off_c, 0, 69, 64
2, 201152, Note_on_c, 0, 66, 78
2, 201212, Note_off_c, 0, 81, 64
2, 201212, Note_off_c, 0, 66, 64
2, 201216, Note_on_c, 0, 79, 84
2, 201216, Note_on_c, 0, 67, 79
2, 201404, Note_off_c, 0, 79, 64
2, 201404, Note_off_c, 0, 67, 64
2, 201472, Note_on_c, 0, 54, 78
2, 201532, Note_off_c, 0, 54, 64
2, 201536, Note_on_c, 0, 55, 78
2, 201596, Note_off_c, 0, 55, 64
2, 201664, Note_on_c, 0, 57, 78
2, 201724, Note_off_c, 0, 57, 64
2, 201728, Note_on_c, 0, 58, 78
2, 201788, Note_off_c, 0, 58, 64
2, 201856, Note_on_c, 0, 61, 78
2, 201916, Note_off_c, 0, 61, 64
2, 201920, Note_on_c, 0, 62, 78
2, 201980, Note_off_c, 0, 62, 64
2, 202048, Note_on_c, 0, 66, 78
2, 202108, Note_off_c, 0, 66, 64
2, 202112, Note_on_c, 0, 67, 78
2, 202172, Note_off_c, 0, 67, 64
2, 202240, Note_on_c, 0, 69, 78
2, 202300, Note_off_c, 0, 69, 64
2, 202304, Note_on_c, 0, 70, 78
2, 202364, Note_off_c, 0, 70, 64
2, 202432, Note_on_c, 0, 73, 78
2, 202492, Note_off_c, 0, 73, 64
2, 202496, Note_on_c, 0, 74, 78
2, 202556, Note_off_c, 0, 74, 64
2, 202624, Note_on_c, 0, 78, 78
2, 202684, Note_off_c, 0, 78, 64
2, 202688, Note_on_c, 0, 79, 78
2, 202748, Note_off_c, 0, 79, 64
2, 203008, Note_on_c, 0, 62, 78
2, 203068, Note_off_c, 0, 62, 64
2, 203072, Note_on_c, 0, 63, 78
2, 203132, Note_off_c, 0, 63, 64
2, 203200, Note_on_c, 0, 66, 78
2, 203260, Note_off_c, 0, 66, 64
2, 203264, Note_on_c, 0, 67, 78
2, 203324, Note_off_c, 0, 67, 64
2, 203392, Note_on_c, 0, 69, 78
2, 203452, Note_off_c, 0, 69, 64
2, 203456, Note_on_c, 0, 70, 78
2, 203516, Note_off_c, 0, 70, 64
2, 203584, Note_on_c, 0, 74, 78
2, 203644, Note_off_c, 0, 74, 64
2, 203648, Note_on_c, 0, 75, 78
2, 203708, Note_off_c, 0, 75, 64
2, 203776, Note_on_c, 0, 78, 78
2, 203836, Note_off_c, 0, 78, 64
2, 203840, Note_on_c, 0, 79, 81
2, 203900, Note_off_c, 0, 79, 64
2, 203968, Note_on_c, 0, 81, 82
2, 204028, Note_off_c, 0, 81, 64
2, 204032, Note_on_c, 0, 82, 82
2, 204092, Note_off_c, 0, 82, 64
2, 204160, Note_on_c, 0, 86, 83
2, 204220, Note_off_c, 0, 86, 64
2, 204224, Note_on_c, 0, 87, 85
2, 204284, Note_off_c, 0, 87, 64
2, 204544, Note_on_c, 0, 61, 78
2, 204604, Note_off_c, 0, 61, 64
2, 204608, Note_on_c, 0, 62, 78
2, 204668, Note_off_c, 0, 62, 64
2, 204736, Note_on_c, 0, 66, 78
2, 204796, Note_off_c, 0, 66, 64
2, 204800, Note_on_c, 0, 67, 78
2, 204860, Note_off_c, 0, 67, 64
2, 204928, Note_on_c, 0, 69, 78
2, 204988, Note_off_c, 0, 69, 64
2, 204992, Note_on_c, 0, 70, 78
2, 205052, Note_off_c, 0, 70, 64
2, 205120, Note_on_c, 0, 73, 78
2, 205180, Note_off_c, 0, 73, 64
2, 205184, Note_on_c, 0, 74, 78
2, 205244, Note_off_c, 0, 74, 64
2, 205312, Note_on_c, 0, 78, 78
2, 205372, Note_off_c, 0, 78, 64
2, 205376, Note_on_c, 0, 79, 81
2, 205436, Note_off_c, 0, 79, 64
2, 205504, Note_on_c, 0, 81, 82
2, 205564, Note_off_c, 0, 81, 64
2, 205568, Note_on_c, 0, 82, 83
2, 205628, Note_off_c, 0, 82, 64
2, 205696, Note_on_c, 0, 85, 84
2, 205756, Note_off_c, 0, 85, 64
2, 205760, Note_on_c, 0, 86, 85
2, 205820, Note_off_c, 0, 86, 64
2, 206080, Note_on_c, 0, 60, 78
2, 206140, Note_off_c, 0, 60, 64
2, 206144, Note_on_c, 0, 61, 78
2, 206204, Note_off_c, 0, 61, 64
2, 206272, Note_on_c, 0, 63, 78
2, 206332, Note_off_c, 0, 63, 64
2, 206336, Note_on_c, 0, 64, 78
2, 206396, Note_off_c, 0, 64, 64
2, 206464, Note_on_c, 0, 66, 78
2, 206524, Note_off_c, 0, 66, 64
2, 206528, Note_on_c, 0, 67, 78
2, 206588, Note_off_c, 0, 67, 64
2, 206656, Note_on_c, 0, 72, 78
2, 206716, Note_off_c, 0, 72, 64
2, 206720, Note_on_c, 0, 73, 78
2, 206780, Note_off_c, 0, 73, 64
2, 206848, Note_on_c, 0, 75, 78
2, 206908, Note_off_c, 0, 75, 64
2, 206912, Note_on_c, 0, 76, 78
2, 206972, Note_off_c, 0, 76, 64
2, 207040, Note_on_c, 0, 78, 78
2, 207100, Note_off_c, 0, 78, 64
2, 207104, Note_on_c, 0, 79, 82
2, 207164, Note_off_c, 0, 79, 64
2, 207232, Note_on_c, 0, 84, 83
2, 207292, Note_off_c, 0, 84, 64
2, 207296, Note_on_c, 0, 85, 83
2, 207356, Note_off_c, 0, 85, 64
2, 207360, Note_on_c, 0, 74, 79
2, 207360, Note_on_c, 0, 86, 85
2, 207420, Note_off_c, 0, 74, 64
2, 207420, Note_off_c, 0, 86, 64
2, 207424, Note_on_c, 0, 75, 78
2, 207424, Note_on_c, 0, 87, 86
2, 207484, Note_off_c, 0, 75, 64
2, 207484, Note_off_c, 0, 87, 64
2, 207488, Note_on_c, 0, 74, 78
2, 207488, Note_on_c, 0, 86, 85
2, 207548, Note_off_c, 0, 74, 64
2, 207548, Note_off_c, 0, 86, 64
2, 207552, Note_on_c, 0, 72, 78
2, 207552, Note_on_c, 0, 84, 84
2, 207612, Note_off_c, 0, 72, 64
2, 207612, Note_off_c, 0, 84, 64
2, 207616, Note_on_c, 0, 70, 78
2, 207616, Note_on_c, 0, 82, 83
2, 207676, Note_off_c, 0, 70, 64
2, 207676, Note_off_c, 0, 82, 64
2, 207680, Note_on_c, 0, 69, 78
2, 207680, Note_on_c, 0, 81, 82
2, 207740, Note_off_c, 0, 69, 64
2, 207740, Note_off_c, 0, 81, 64
2, 207744, Note_on_c, 0, 70, 78
2, 207744, Note_on_c, 0, 82, 83
2, 207804, Note_off_c, 0, 70, 64
2, 207804, Note_off_c, 0, 82, 64
2, 207808, Note_on_c, 0, 74, 78
2, 207808, Note_on_c, 0, 86, 84
2, 207868, Note_off_c, 0, 74, 64
2, 207868, Note_off_c, 0, 86, 64
2, 207872, Note_on_c, 0, 72, 78
2, 207872, Note_on_c, 0, 84, 83
2, 207932, Note_off_c, 0, 72, 64
2, 207932, Note_off_c, 0, 84, 64
2, 207936, Note_on_c, 0, 70, 78
2, 207936, Note_on_c, 0, 82, 82
2, 207996, Note_off_c, 0, 70, 64
2, 207996, Note_off_c, 0, 82, 64
2, 208000, Note_on_c, 0, 69, 78
2, 208000, Note_on_c, 0, 81, 82
2, 208060, Note_off_c, 0, 69, 64
2, 208060, Note_off_c, 0, 81, 64
2, 208064, Note_on_c, 0, 67, 78
2, 208064, Note_on_c, 0, 79, 82
2, 208124, Note_off_c, 0, 67, 64
2, 208124, Note_off_c, 0, 79, 64
2, 208128, Note_on_c, 0, 66, 78
2, 208128, Note_on_c, 0, 78, 82
2, 208188, Note_off_c, 0, 66, 64
2, 208188, Note_off_c, 0, 78, 64
2, 208192, Note_on_c, 0, 63, 78
2, 208192, Note_on_c, 0, 75, 81
2, 208252, Note_off_c, 0, 63, 64
2, 208252, Note_off_c, 0, 75, 64
2, 208256, Note_on_c, 0, 62, 78
2, 208256, Note_on_c, 0, 74, 79
2, 208316, Note_off_c, 0, 62, 64
2, 208316, Note_off_c, 0, 74, 64
2, 208320, Note_on_c, 0, 60, 78
2, 208320, Note_on_c, 0, 72, 79
2, 208380, Note_off_c, 0, 60, 64
2, 208380, Note_off_c, 0, 72, 64
2, 208384, Note_on_c, 0, 58, 78
2, 208384, Note_on_c, 0, 70, 78
2, 208444, Note_off_c, 0, 58, 64
2, 208444, Note_off_c, 0, 70, 64
2, 208448, Note_on_c, 0, 57, 78
2, 208448, Note_on_c, 0, 69, 78
2, 208508, Note_off_c, 0, 57, 64
2, 208508, Note_off_c, 0, 69, 64
2, 208512, Note_on_c, 0, 58, 78
2, 208512, Note_on_c, 0, 70, 78
2, 208572, Note_off_c, 0, 58, 64
2, 208572, Note_off_c, 0, 70, 64
2, 208576, Note_on_c, 0, 62, 78
2, 208576, Note_on_c, 0, 74, 78
2, 208636, Note_off_c, 0, 62, 64
2, 208636, Note_off_c, 0, 74, 64
2, 208640, Note_on_c, 0, 60, 78
2, 208640, Note_on_c, 0, 72, 78
2, 208700, Note_off_c, 0, 60, 64
2, 208700, Note_off_c, 0, 72, 64
2, 208704, Note_on_c, 0, 58, 78
2, 208704, Note_on_c, 0, 70, 78
2, 208764, Note_off_c, 0, 58, 64
2, 208764, Note_off_c, 0, 70, 64
2, 208768, Note_on_c, 0, 57, 78
2, 208768, Note_on_c, 0, 69, 78
2, 208828, Note_off_c, 0, 57, 64
2, 208828, Note_off_c, 0, 69, 64
2, 208832, Note_on_c, 0, 55, 78
2, 208832, Note_on_c, 0, 67, 78
2, 208892, Note_off_c, 0, 55, 64
2, 208892, Note_off_c, 0, 67, 64
2, 211200, Note_on_c, 0, 57, 78
2, 211292, Note_off_c, 0, 57, 64
2, 211296, Note_on_c, 0, 66, 78
2, 211388, Note_off_c, 0, 66, 64
2, 211392, Note_on_c, 0, 62, 78
2, 211484, Note_off_c, 0, 62, 64
2, 211488, Note_on_c, 0, 69, 78
2, 211580, Note_off_c, 0, 69, 64
2, 211584, Note_on_c, 0, 66, 78
2, 211676, Note_off_c, 0, 66, 64
2, 211680, Note_on_c, 0, 74, 78
2, 211772, Note_off_c, 0, 74, 64
2, 211776, Note_on_c, 0, 69, 78
2, 211868, Note_off_c, 0, 69, 64
2, 211872, Note_on_c, 0, 78, 82
2, 211964, Note_off_c, 0, 78, 64
2, 211968, Note_on_c, 0, 74, 78
2, 212060, Note_off_c, 0, 74, 64
2, 212064, Note_on_c, 0, 81, 82
2, 212156, Note_off_c, 0, 81, 64
2, 212160, Note_on_c, 0, 78, 82
2, 212252, Note_off_c, 0, 78, 64
2, 212256, Note_on_c, 0, 86, 84
2, 212348, Note_off_c, 0, 86, 64
2, 212352, Note_on_c, 0, 81, 82
2, 212444, Note_off_c, 0, 81, 64
2, 212448, Note_on_c, 0, 74, 79
2, 212540, Note_off_c, 0, 74, 64
2, 212544, Note_on_c, 0, 78, 82
2, 212636, Note_off_c, 0, 78, 64
2, 212640, Note_on_c, 0, 69, 78
2, 212732, Note_off_c, 0, 69, 64
2, 212736, Note_on_c, 0, 74, 79
2, 212828, Note_off_c, 0, 74, 64
2, 212832, Note_on_c, 0, 66, 78
2, 212924, Note_off_c, 0, 66, 64
2, 212928, Note_on_c, 0, 69, 78
2, 213020, Note_off_c, 0, 69, 64
2, 213024, Note_on_c, 0, 62, 78
2, 213116, Note_off_c, 0, 62, 64
2, 213120, Note_on_c, 0, 66, 78
2, 213212, Note_off_c, 0, 66, 64
2, 213216, Note_on_c, 0, 57, 78
2, 213308, Note_off_c, 0, 57, 64
2, 213312, Note_on_c, 0, 62, 78
2, 213404, Note_off_c, 0, 62, 64
2, 213408, Note_on_c, 0, 54, 78
2, 213500, Note_off_c, 0, 54, 64
2, 213504, Note_on_c, 0, 57, 78
2, 213628, Note_off_c, 0, 57, 64
2, 213632, Note_on_c, 0, 55, 78
2, 213756, Note_off_c, 0, 55, 64
2, 213760, Note_on_c, 0, 65, 78
2, 213884, Note_off_c, 0, 65, 64
2, 213888, Note_on_c, 0, 62, 78
2, 214012, Note_off_c, 0, 62, 64
2, 214016, Note_on_c, 0, 69, 78
2, 214140, Note_off_c, 0, 69, 64
2, 214144, Note_on_c, 0, 65, 78
2, 214268, Note_off_c, 0, 65, 64
2, 214272, Note_on_c, 0, 74, 78
2, 214396, Note_off_c, 0, 74, 64
2, 214400, Note_on_c, 0, 69, 78
2, 214524, Note_off_c, 0, 69, 64
2, 214528, Note_on_c, 0, 77, 78
2, 214652, Note_off_c, 0, 77, 64
2, 214656, Note_on_c, 0, 74, 78
2, 214780, Note_off_c, 0, 74, 64
2, 214784, Note_on_c, 0, 81, 82
2, 214908, Note_off_c, 0, 81, 64
2, 214912, Note_on_c, 0, 77, 78
2, 215036, Note_off_c, 0, 77, 64
2, 215040, Note_on_c, 0, 86, 85
2, 215164, Note_off_c, 0, 86, 64
2, 215168, Note_on_c, 0, 81, 83
2, 215292, Note_off_c, 0, 81, 64
2, 215296, Note_on_c, 0, 89, 86
2, 215420, Note_off_c, 0, 89, 64
2, 215424, Note_on_c, 0, 77, 81
2, 215548, Note_off_c, 0, 77, 64
2, 215552, Note_on_c, 0, 86, 85
2, 215676, Note_off_c, 0, 86, 64
2, 215680, Note_on_c, 0, 74, 79
2, 215804, Note_off_c, 0, 74, 64
2, 215808, Note_on_c, 0, 81, 82
2, 215932, Note_off_c, 0, 81, 64
2, 215936, Note_on_c, 0, 69, 78
2, 216060, Note_off_c, 0, 69, 64
2, 216064, Note_on_c, 0, 77, 82
2, 216188, Note_off_c, 0, 77, 64
2, 216192, Note_on_c, 0, 65, 78
2, 216316, Note_off_c, 0, 65, 64
2, 216320, Note_on_c, 0, 74, 79
2, 216444, Note_off_c, 0, 74, 64
2, 216448, Note_on_c, 0, 62, 77
2, 216572, Note_off_c, 0, 62, 64
2, 216576, Note_on_c, 0, 63, 78
2, 216752, Note_on_c, 0, 70, 78
2, 216764, Note_off_c, 0, 63, 64
2, 216940, Note_off_c, 0, 70, 64
2, 216960, Note_on_c, 0, 72, 78
2, 217148, Note_off_c, 0, 72, 64
2, 217152, Note_on_c, 0, 75, 78
2, 217340, Note_off_c, 0, 75, 64
2, 217344, Note_on_c, 0, 81, 82
2, 217532, Note_off_c, 0, 81, 64
2, 217536, Note_on_c, 0, 87, 85
2, 217724, Note_off_c, 0, 87, 64
2, 217728, Note_on_c, 0, 86, 84
2, 217916, Note_off_c, 0, 86, 64
2, 217920, Note_on_c, 0, 84, 83
2, 218108, Note_off_c, 0, 84, 64
2, 218112, Note_on_c, 0, 82, 82
2, 218300, Note_off_c, 0, 82, 64
2, 218304, Note_on_c, 0, 81, 82
2, 218492, Note_off_c, 0, 81, 64
2, 218496, Note_on_c, 0, 79, 82
2, 218684, Note_off_c, 0, 79, 64
2, 218688, Note_on_c, 0, 77, 81
2, 218876, Note_off_c, 0, 77, 64
2, 218880, Note_on_c, 0, 76, 79
2, 219068, Note_off_c, 0, 76, 64
2, 219072, Note_on_c, 0, 77, 81
2, 219260, Note_off_c, 0, 77, 64
2, 219264, Note_on_c, 0, 79, 82
2, 219452, Note_off_c, 0, 79, 64
2, 219456, Note_on_c, 0, 77, 81
2, 219644, Note_off_c, 0, 77, 64
2, 219648, Note_on_c, 0, 77, 82
2, 220412, Note_off_c, 0, 77, 64
2, 220416, Note_on_c, 0, 76, 78
2, 220604, Note_off_c, 0, 76, 64
2, 220608, Note_on_c, 0, 77, 78
2, 220796, Note_off_c, 0, 77, 64
2, 220800, Note_on_c, 0, 76, 78
2, 220988, Note_off_c, 0, 76, 64
2, 220992, Note_on_c, 0, 77, 78
2, 221180, Note_off_c, 0, 77, 64
2, 221184, Note_on_c, 0, 79, 82
2, 221372, Note_off_c, 0, 79, 64
2, 221376, Note_on_c, 0, 77, 81
2, 221564, Note_off_c, 0, 77, 64
2, 221568, Note_on_c, 0, 75, 79
2, 221756, Note_off_c, 0, 75, 64
2, 221760, Note_on_c, 0, 74, 79
2, 221948, Note_off_c, 0, 74, 64
2, 221952, Note_on_c, 0, 74, 78
2, 222332, Note_off_c, 0, 74, 64
2, 222336, Note_on_c, 0, 77, 81
2, 222620, Note_off_c, 0, 77, 64
2, 222624, Note_on_c, 0, 74, 78
2, 222716, Note_off_c, 0, 74, 64
2, 222720, Note_on_c, 0, 70, 78
2, 222908, Note_off_c, 0, 70, 64
2, 223104, Note_on_c, 0, 70, 78
2, 223292, Note_off_c, 0, 70, 64
2, 223488, Note_on_c, 0, 65, 78
2, 223676, Note_off_c, 0, 65, 64
2, 223872, Note_on_c, 0, 65, 78
2, 224060, Note_off_c, 0, 65, 64
2, 224256, Note_on_c, 0, 70, 78
2, 224636, Note_off_c, 0, 70, 64
2, 224640, Note_on_c, 0, 72, 78
2, 224680, Note_off_c, 0, 72, 64
2, 224688, Note_on_c, 0, 70, 78
2, 224728, Note_off_c, 0, 70, 64
2, 224736, Note_on_c, 0, 69, 78
2, 224776, Note_off_c, 0, 69, 64
2, 224784, Note_on_c, 0, 70, 78
2, 224824, Note_off_c, 0, 70, 64
2, 224832, Note_on_c, 0, 72, 78
2, 224924, Note_off_c, 0, 72, 64
2, 224928, Note_on_c, 0, 74, 78
2, 225020, Note_off_c, 0, 74, 64
2, 225024, Note_on_c, 0, 72, 78
2, 225212, Note_off_c, 0, 72, 64
2, 225216, Note_on_c, 0, 74, 78
2, 225404, Note_off_c, 0, 74, 64
2, 225408, Note_on_c, 0, 75, 78
2, 225596, Note_off_c, 0, 75, 64
2, 225600, Note_on_c, 0, 76, 78
2, 225788, Note_off_c, 0, 76, 64
2, 225792, Note_on_c, 0, 77, 78
2, 226556, Note_off_c, 0, 77, 64
2, 226560, Note_on_c, 0, 76, 78
2, 226748, Note_off_c, 0, 76, 64
2, 226752, Note_on_c, 0, 77, 78
2, 226940, Note_off_c, 0, 77, 64
2, 226944, Note_on_c, 0, 76, 78
2, 227132, Note_off_c, 0, 76, 64
2, 227136, Note_on_c, 0, 77, 78
2, 227324, Note_off_c, 0, 77, 64
2, 227328, Note_on_c, 0, 79, 82
2, 227516, Note_off_c, 0, 79, 64
2, 227520, Note_on_c, 0, 77, 81
2, 227708, Note_off_c, 0, 77, 64
2, 227712, Note_on_c, 0, 75, 79
2, 227900, Note_off_c, 0, 75, 64
2, 227904, Note_on_c, 0, 74, 79
2, 228092, Note_off_c, 0, 74, 64
2, 228096, Note_on_c, 0, 74, 78
2, 228476, Note_off_c, 0, 74, 64
2, 228480, Note_on_c, 0, 77, 81
2, 228752, Note_on_c, 0, 74, 78
2, 228764, Note_off_c, 0, 77, 64
2, 228844, Note_off_c, 0, 74, 64
2, 228864, Note_on_c, 0, 70, 78
2, 229052, Note_off_c, 0, 70, 64
2, 229248, Note_on_c, 0, 70, 78
2, 229436, Note_off_c, 0, 70, 64
2, 229632, Note_on_c, 0, 65, 78
2, 229820, Note_off_c, 0, 65, 64
2, 230016, Note_on_c, 0, 65, 78
2, 230204, Note_off_c, 0, 65, 64
2, 230400, Note_on_c, 0, 63, 78
2, 230400, Note_on_c, 0, 60, 78
2, 230400, Note_on_c, 0, 57, 78
2, 230400, Note_on_c, 0, 53, 78
2, 231164, Note_off_c, 0, 63, 64
2, 231164, Note_off_c, 0, 60, 64
2, 231164, Note_off_c, 0, 57, 64
2, 231164, Note_off_c, 0, 53, 64
2, 231168, Note_on_c, 0, 62, 78
2, 231168, Note_on_c, 0, 58, 78
2, 231168, Note_on_c, 0, 53, 78
2, 231356, Note_off_c, 0, 62, 64
2, 231356, Note_off_c, 0, 58, 64
2, 231356, Note_off_c, 0, 53, 64
2, 231360, Note_on_c, 0, 70, 78
2, 231548, Note_off_c, 0, 70, 64
2, 231552, Note_on_c, 0, 72, 78
2, 231740, Note_off_c, 0, 72, 64
2, 231744, Note_on_c, 0, 74, 78
2, 231932, Note_off_c, 0, 74, 64
2, 231936, Note_on_c, 0, 75, 78
2, 232508, Note_off_c, 0, 75, 64
2, 232512, Note_on_c, 0, 74, 78
2, 232572, Note_off_c, 0, 74, 64
2, 232576, Note_on_c, 0, 72, 78
2, 232636, Note_off_c, 0, 72, 64
2, 232640, Note_on_c, 0, 70, 78
2, 232700, Note_off_c, 0, 70, 64
2, 232704, Note_on_c, 0, 69, 78
2, 232892, Note_off_c, 0, 69, 64
2, 232896, Note_on_c, 0, 72, 78
2, 233084, Note_off_c, 0, 72, 64
2, 233088, Note_on_c, 0, 74, 78
2, 233276, Note_off_c, 0, 74, 64
2, 233280, Note_on_c, 0, 75, 78
2, 233468, Note_off_c, 0, 75, 64
2, 233472, Note_on_c, 0, 77, 78
2, 234044, Note_off_c, 0, 77, 64
2, 234048, Note_on_c, 0, 75, 78
2, 234108, Note_off_c, 0, 75, 64
2, 234112, Note_on_c, 0, 74, 78
2, 234172, Note_off_c, 0, 74, 64
2, 234176, Note_on_c, 0, 72, 78
2, 234236, Note_off_c, 0, 72, 64
2, 234240, Note_on_c, 0, 70, 78
2, 234428, Note_off_c, 0, 70, 64
2, 234432, Note_on_c, 0, 77, 81
2, 234620, Note_off_c, 0, 77, 64
2, 234624, Note_on_c, 0, 79, 82
2, 234812, Note_off_c, 0, 79, 64
2, 234816, Note_on_c, 0, 81, 82
2, 235004, Note_off_c, 0, 81, 64
2, 235008, Note_on_c, 0, 82, 83
2, 235008, Note_on_c, 0, 60, 78
2, 235200, Note_on_c, 0, 67, 78
2, 235200, Note_on_c, 0, 64, 78
2, 235376, Note_on_c, 0, 64, 78
2, 235388, Note_off_c, 0, 67, 64
2, 235388, Note_off_c, 0, 64, 64
2, 235392, Note_on_c, 0, 67, 78
2, 235564, Note_off_c, 0, 64, 64
2, 235580, Note_off_c, 0, 82, 64
2, 235580, Note_off_c, 0, 67, 64
2, 235584, Note_on_c, 0, 69, 78
2, 235584, Note_on_c, 0, 65, 78
2, 235584, Note_on_c, 0, 81, 82
2, 235644, Note_off_c, 0, 81, 64
2, 235648, Note_on_c, 0, 79, 78
2, 235708, Note_off_c, 0, 79, 64
2, 235712, Note_on_c, 0, 77, 78
2, 235772, Note_off_c, 0, 60, 64
2, 235772, Note_off_c, 0, 69, 64
2, 235772, Note_off_c, 0, 65, 64
2, 235772, Note_off_c, 0, 77, 64
2, 235776, Note_on_c, 0, 76, 79
2, 235776, Note_on_c, 0, 60, 78
2, 235964, Note_off_c, 0, 76, 64
2, 235964, Note_off_c, 0, 60, 64
2, 235968, Note_on_c, 0, 79, 82
2, 236156, Note_off_c, 0, 79, 64
2, 236160, Note_on_c, 0, 81, 82
2, 236348, Note_off_c, 0, 81, 64
2, 236352, Note_on_c, 0, 82, 83
2, 236540, Note_off_c, 0, 82, 64
2, 236544, Note_on_c, 0, 84, 84
2, 236736, Note_on_c, 0, 69, 78
2, 236736, Note_on_c, 0, 65, 78
2, 236924, Note_off_c, 0, 69, 64
2, 236924, Note_off_c, 0, 65, 64
2, 236928, Note_on_c, 0, 69, 78
2, 236928, Note_on_c, 0, 65, 78
2, 237116, Note_off_c, 0, 84, 64
2, 237116, Note_off_c, 0, 69, 64
2, 237116, Note_off_c, 0, 65, 64
2, 237120, Note_on_c, 0, 70, 78
2, 237120, Note_on_c, 0, 67, 78
2, 237120, Note_on_c, 0, 82, 83
2, 237180, Note_off_c, 0, 82, 64
2, 237184, Note_on_c, 0, 81, 82
2, 237244, Note_off_c, 0, 81, 64
2, 237248, Note_on_c, 0, 79, 82
2, 237308, Note_off_c, 0, 70, 64
2, 237308, Note_off_c, 0, 67, 64
2, 237308, Note_off_c, 0, 79, 64
2, 237312, Note_on_c, 0, 72, 78
2, 237312, Note_on_c, 0, 69, 78
2, 237312, Note_on_c, 0, 77, 81
2, 237500, Note_off_c, 0, 72, 64
2, 237500, Note_off_c, 0, 69, 64
2, 237500, Note_off_c, 0, 77, 64
2, 237504, Note_on_c, 0, 77, 79
2, 237596, Note_off_c, 0, 77, 64
2, 237696, Note_on_c, 0, 77, 79
2, 237788, Note_off_c, 0, 77, 64
2, 237888, Note_on_c, 0, 77, 79
2, 237980, Note_off_c, 0, 77, 64
2, 238080, Note_on_c, 0, 77, 81
2, 238844, Note_off_c, 0, 77, 64
2, 238848, Note_on_c, 0, 76, 78
2, 239036, Note_off_c, 0, 76, 64
2, 239040, Note_on_c, 0, 77, 78
2, 239228, Note_off_c, 0, 77, 64
2, 239232, Note_on_c, 0, 76, 78
2, 239420, Note_off_c, 0, 76, 64
2, 239424, Note_on_c, 0, 77, 78
2, 239612, Note_off_c, 0, 77, 64
2, 239616, Note_on_c, 0, 79, 82
2, 239804, Note_off_c, 0, 79, 64
2, 239808, Note_on_c, 0, 77, 81
2, 239996, Note_off_c, 0, 77, 64
2, 240000, Note_on_c, 0, 75, 79
2, 240188, Note_off_c, 0, 75, 64
2, 240192, Note_on_c, 0, 74, 79
2, 240380, Note_off_c, 0, 74, 64
2, 240384, Note_on_c, 0, 74, 78
2, 240764, Note_off_c, 0, 74, 64
2, 240768, Note_on_c, 0, 77, 81
2, 241052, Note_off_c, 0, 77, 64
2, 241056, Note_on_c, 0, 74, 78
2, 241148, Note_off_c, 0, 74, 64
2, 241152, Note_on_c, 0, 70, 78
2, 241340, Note_off_c, 0, 70, 64
2, 241536, Note_on_c, 0, 70, 78
2, 241724, Note_off_c, 0, 70, 64
2, 241920, Note_on_c, 0, 65, 78
2, 242108, Note_off_c, 0, 65, 64
2, 242304, Note_on_c, 0, 65, 78
2, 242492, Note_off_c, 0, 65, 64
2, 242688, Note_on_c, 0, 63, 78
2, 242688, Note_on_c, 0, 60, 78
2, 242688, Note_on_c, 0, 57, 78
2, 242688, Note_on_c, 0, 53, 78
2, 243452, Note_off_c, 0, 63, 64
2, 243452, Note_off_c, 0, 60, 64
2, 243452, Note_off_c, 0, 57, 64
2, 243452, Note_off_c, 0, 53, 64
2, 243456, Note_on_c, 0, 62, 78
2, 243456, Note_on_c, 0, 58, 78
2, 243456, Note_on_c, 0, 53, 78
2, 243644, Note_off_c, 0, 62, 64
2, 243644, Note_off_c, 0, 58, 64
2, 243644, Note_off_c, 0, 53, 64
2, 243648, Note_on_c, 0, 58, 78
2, 243708, Note_off_c, 0, 58, 64
2, 243712, Note_on_c, 0, 70, 78
2, 243840, Note_off_c, 0, 70, 64
2, 243840, Note_on_c, 0, 60, 78
2, 243900, Note_off_c, 0, 60, 64
2, 243904, Note_on_c, 0, 72, 78
2, 244032, Note_off_c, 0, 72, 64
2, 244032, Note_on_c, 0, 62, 78
2, 244092, Note_off_c, 0, 62, 64
2, 244096, Note_on_c, 0, 74, 78
2, 244224, Note_off_c, 0, 74, 64
2, 244224, Note_on_c, 0, 63, 78
2, 244284, Note_off_c, 0, 63, 64
2, 244288, Note_on_c, 0, 75, 78
2, 244800, Note_off_c, 0, 75, 64
2, 244800, Note_on_c, 0, 74, 91
2, 244860, Note_off_c, 0, 74, 64
2, 244864, Note_on_c, 0, 72, 91
2, 244924, Note_off_c, 0, 72, 64
2, 244928, Note_on_c, 0, 70, 91
2, 244988, Note_off_c, 0, 70, 64
2, 244992, Note_on_c, 0, 69, 88
2, 245180, Note_off_c, 0, 69, 64
2, 245184, Note_on_c, 0, 72, 88
2, 245372, Note_off_c, 0, 72, 64
2, 245376, Note_on_c, 0, 74, 88
2, 245564, Note_off_c, 0, 74, 64
2, 245568, Note_on_c, 0, 75, 88
2, 245756, Note_off_c, 0, 75, 64
2, 245760, Note_on_c, 0, 77, 88
2, 245760, Note_on_c, 0, 74, 88
2, 245760, Note_on_c, 0, 70, 88
2, 245760, Note_on_c, 0, 65, 88
2, 246272, Note_off_c, 0, 77, 64
2, 246272, Note_off_c, 0, 74, 64
2, 246272, Note_off_c, 0, 70, 64
2, 246272, Note_off_c, 0, 65, 64
2, 246336, Note_on_c, 0, 75, 91
2, 246396, Note_off_c, 0, 75, 64
2, 246400, Note_on_c, 0, 74, 91
2, 246460, Note_off_c, 0, 74, 64
2, 246464, Note_on_c, 0, 72, 91
2, 246524, Note_off_c, 0, 72, 64
2, 246528, Note_on_c, 0, 70, 88
2, 246716, Note_off_c, 0, 70, 64
2, 246720, Note_on_c, 0, 77, 71
2, 246720, Note_on_c, 0, 72, 67
2, 246720, Note_on_c, 0, 69, 67
2, 246908, Note_off_c, 0, 77, 64
2, 246908, Note_off_c, 0, 72, 64
2, 246908, Note_off_c, 0, 69, 64
2, 246912, Note_on_c, 0, 79, 72
2, 246912, Note_on_c, 0, 70, 67
2, 246912, Note_on_c, 0, 67, 67
2, 247100, Note_off_c, 0, 79, 64
2, 247100, Note_off_c, 0, 70, 64
2, 247100, Note_off_c, 0, 67, 64
2, 247104, Note_on_c, 0, 81, 73
2, 247104, Note_on_c, 0, 69, 67
2, 247104, Note_on_c, 0, 65, 67
2, 247292, Note_off_c, 0, 81, 64
2, 247292, Note_off_c, 0, 69, 64
2, 247292, Note_off_c, 0, 65, 64
2, 247296, Note_on_c, 0, 82, 74
2, 247488, Note_on_c, 0, 72, 67
2, 247488, Note_on_c, 0, 67, 67
2, 247488, Note_on_c, 0, 64, 67
2, 247488, Note_on_c, 0, 60, 67
2, 247676, Note_off_c, 0, 72, 64
2, 247676, Note_off_c, 0, 67, 64
2, 247676, Note_off_c, 0, 64, 64
2, 247676, Note_off_c, 0, 60, 64
2, 247680, Note_on_c, 0, 72, 67
2, 247680, Note_on_c, 0, 67, 67
2, 247680, Note_on_c, 0, 64, 67
2, 247680, Note_on_c, 0, 60, 67
2, 247868, Note_off_c, 0, 82, 64
2, 247868, Note_off_c, 0, 72, 64
2, 247868, Note_off_c, 0, 67, 64
2, 247868, Note_off_c, 0, 64, 64
2, 247868, Note_off_c, 0, 60, 64
2, 247872, Note_on_c, 0, 72, 67
2, 247872, Note_on_c, 0, 81, 73
2, 247872, Note_on_c, 0, 69, 67
2, 247872, Note_on_c, 0, 65, 67
2, 247872, Note_on_c, 0, 60, 67
2, 247932, Note_off_c, 0, 81, 64
2, 247936, Note_on_c, 0, 79, 70
2, 247996, Note_off_c, 0, 79, 64
2, 248000, Note_on_c, 0, 77, 70
2, 248060, Note_off_c, 0, 72, 64
2, 248060, Note_off_c, 0, 69, 64
2, 248060, Note_off_c, 0, 65, 64
2, 248060, Note_off_c, 0, 60, 64
2, 248060, Note_off_c, 0, 77, 64
2, 248064, Note_on_c, 0, 76, 67
2, 248064, Note_on_c, 0, 72, 67
2, 248064, Note_on_c, 0, 70, 67
2, 248064, Note_on_c, 0, 67, 67
2, 248064, Note_on_c, 0, 60, 67
2, 248188, Note_off_c, 0, 76, 64
2, 248188, Note_off_c, 0, 72, 64
2, 248252, Note_off_c, 0, 70, 64
2, 248252, Note_off_c, 0, 67, 64
2, 248252, Note_off_c, 0, 60, 64
2, 248256, Note_on_c, 0, 79, 72
2, 248256, Note_on_c, 0, 70, 67
2, 248256, Note_on_c, 0, 67, 67
2, 248444, Note_off_c, 0, 79, 64
2, 248444, Note_off_c, 0, 70, 64
2, 248444, Note_off_c, 0, 67, 64
2, 248448, Note_on_c, 0, 81, 73
2, 248448, Note_on_c, 0, 69, 67
2, 248448, Note_on_c, 0, 65, 67
2, 248636, Note_off_c, 0, 81, 64
2, 248636, Note_off_c, 0, 69, 64
2, 248636, Note_off_c, 0, 65, 64
2, 248640, Note_on_c, 0, 82, 74
2, 248640, Note_on_c, 0, 67, 67
2, 248640, Note_on_c, 0, 63, 67
2, 248828, Note_off_c, 0, 82, 64
2, 248828, Note_off_c, 0, 67, 64
2, 248828, Note_off_c, 0, 63, 64
2, 248832, Note_on_c, 0, 84, 75
2, 249024, Note_on_c, 0, 77, 67
2, 249024, Note_on_c, 0, 69, 67
2, 249024, Note_on_c, 0, 65, 67
2, 249212, Note_off_c, 0, 77, 64
2, 249212, Note_off_c, 0, 69, 64
2, 249212, Note_off_c, 0, 65, 64
2, 249216, Note_on_c, 0, 77, 67
2, 249216, Note_on_c, 0, 69, 67
2, 249216, Note_on_c, 0, 65, 67
2, 249404, Note_off_c, 0, 84, 64
2, 249404, Note_off_c, 0, 77, 64
2, 249404, Note_off_c, 0, 69, 64
2, 249404, Note_off_c, 0, 65, 64
2, 249408, Note_on_c, 0, 77, 67
2, 249408, Note_on_c, 0, 70, 67
2, 249408, Note_on_c, 0, 67, 67
2, 249408, Note_on_c, 0, 82, 73
2, 249468, Note_off_c, 0, 82, 64
2, 249472, Note_on_c, 0, 81, 72
2, 249532, Note_off_c, 0, 81, 64
2, 249536, Note_on_c, 0, 79, 71
2, 249596, Note_off_c, 0, 77, 64
2, 249596, Note_off_c, 0, 70, 64
2, 249596, Note_off_c, 0, 67, 64
2, 249596, Note_off_c, 0, 79, 64
2, 249600, Note_on_c, 0, 77, 67
2, 249600, Note_on_c, 0, 77, 67
2, 249600, Note_on_c, 0, 72, 67
2, 249600, Note_on_c, 0, 65, 67
2, 249600, Note_on_c, 0, 69, 67
2, 249788, Note_off_c, 0, 77, 64
2, 249788, Note_off_c, 0, 77, 64
2, 249788, Note_off_c, 0, 72, 64
2, 249788, Note_off_c, 0, 65, 64
2, 249788, Note_off_c, 0, 69, 64
2, 249792, Note_on_c, 0, 77, 88
2, 249792, Note_on_c, 0, 75, 88
2, 249792, Note_on_c, 0, 72, 88
2, 249980, Note_off_c, 0, 77, 64
2, 249980, Note_off_c, 0, 75, 64
2, 249980, Note_off_c, 0, 72, 64
2, 249984, Note_on_c, 0, 77, 88
2, 249984, Note_on_c, 0, 89, 93
2, 250076, Note_off_c, 0, 77, 64
2, 250076, Note_off_c, 0, 89, 64
2, 250176, Note_on_c, 0, 89, 93
2, 250176, Note_on_c, 0, 77, 88
2, 250268, Note_off_c, 0, 89, 64
2, 250268, Note_off_c, 0, 77, 64
2, 250368, Note_on_c, 0, 89, 93
2, 250368, Note_on_c, 0, 86, 92
2, 250368, Note_on_c, 0, 77, 88
2, 251132, Note_off_c, 0, 89, 64
2, 251132, Note_off_c, 0, 86, 64
2, 251132, Note_off_c, 0, 77, 64
2, 251136, Note_on_c, 0, 88, 93
2, 251136, Note_on_c, 0, 76, 88
2, 251136, Note_on_c, 0, 82, 91
2, 251324, Note_off_c, 0, 88, 64
2, 251324, Note_off_c, 0, 76, 64
2, 251328, Note_on_c, 0, 89, 94
2, 251328, Note_on_c, 0, 77, 88
2, 251516, Note_off_c, 0, 82, 64
2, 251516, Note_off_c, 0, 89, 64
2, 251516, Note_off_c, 0, 77, 64
2, 251520, Note_on_c, 0, 88, 93
2, 251520, Note_on_c, 0, 76, 88
2, 251520, Note_on_c, 0, 82, 88
2, 251708, Note_off_c, 0, 88, 64
2, 251708, Note_off_c, 0, 76, 64
2, 251712, Note_on_c, 0, 89, 94
2, 251712, Note_on_c, 0, 77, 88
2, 251900, Note_off_c, 0, 82, 64
2, 251900, Note_off_c, 0, 89, 64
2, 251900, Note_off_c, 0, 77, 64
2, 251904, Note_on_c, 0, 91, 95
2, 251904, Note_on_c, 0, 79, 91
2, 252092, Note_off_c, 0, 91, 64
2, 252092, Note_off_c, 0, 79, 64
2, 252096, Note_on_c, 0, 89, 94
2, 252096, Note_on_c, 0, 77, 90
2, 252284, Note_off_c, 0, 89, 64
2, 252284, Note_off_c, 0, 77, 64
2, 252288, Note_on_c, 0, 75, 93
2, 252288, Note_on_c, 0, 87, 93
2, 252476, Note_off_c, 0, 75, 64
2, 252476, Note_off_c, 0, 87, 64
2, 252480, Note_on_c, 0, 86, 92
2, 252480, Note_on_c, 0, 74, 91
2, 252668, Note_off_c, 0, 86, 64
2, 252668, Note_off_c, 0, 74, 64
2, 252672, Note_on_c, 0, 86, 92
2, 252672, Note_on_c, 0, 82, 91
2, 252672, Note_on_c, 0, 74, 88
2, 252856, Note_off_c, 0, 86, 64
2, 252856, Note_off_c, 0, 82, 64
2, 252856, Note_off_c, 0, 74, 64
2, 252864, Note_on_c, 0, 75, 90
2, 252904, Note_off_c, 0, 75, 64
2, 252912, Note_on_c, 0, 74, 89
2, 252952, Note_off_c, 0, 74, 64
2, 252960, Note_on_c, 0, 72, 88
2, 253000, Note_off_c, 0, 72, 64
2, 253008, Note_on_c, 0, 74, 89
2, 253048, Note_off_c, 0, 74, 64
2, 253056, Note_on_c, 0, 77, 91
2, 253244, Note_off_c, 0, 77, 64
2, 253248, Note_on_c, 0, 74, 88
2, 253436, Note_off_c, 0, 74, 64
2, 253440, Note_on_c, 0, 82, 73
2, 253440, Note_on_c, 0, 77, 67
2, 253440, Note_on_c, 0, 74, 67
2, 253440, Note_on_c, 0, 70, 67
2, 253532, Note_off_c, 0, 82, 64
2, 253532, Note_off_c, 0, 77, 64
2, 253532, Note_off_c, 0, 74, 64
2, 253532, Note_off_c, 0, 70, 64
2, 253632, Note_on_c, 0, 82, 73
2, 253632, Note_on_c, 0, 70, 67
2, 253724, Note_off_c, 0, 82, 64
2, 253724, Note_off_c, 0, 70, 64
2, 254016, Note_on_c, 0, 82, 73
2, 254016, Note_on_c, 0, 70, 67
2, 254108, Note_off_c, 0, 82, 64
2, 254108, Note_off_c, 0, 70, 64
2, 254208, Note_on_c, 0, 77, 67
2, 254208, Note_on_c, 0, 75, 67
2, 254208, Note_on_c, 0, 72, 67
2, 254208, Note_on_c, 0, 65, 67
2, 254300, Note_off_c, 0, 77, 64
2, 254300, Note_off_c, 0, 75, 64
2, 254300, Note_off_c, 0, 72, 64
2, 254300, Note_off_c, 0, 65, 64
2, 254400, Note_on_c, 0, 77, 70
2, 254400, Note_on_c, 0, 65, 67
2, 254492, Note_off_c, 0, 77, 64
2, 254492, Note_off_c, 0, 65, 64
2, 254784, Note_on_c, 0, 77, 70
2, 254784, Note_on_c, 0, 65, 67
2, 254876, Note_off_c, 0, 77, 64
2, 254876, Note_off_c, 0, 65, 64
2, 255072, Note_on_c, 0, 65, 78
2, 255164, Note_off_c, 0, 65, 64
2, 255168, Note_on_c, 0, 71, 78
2, 255260, Note_off_c, 0, 71, 64
2, 255264, Note_on_c, 0, 74, 79
2, 255356, Note_off_c, 0, 74, 64
2, 255360, Note_on_c, 0, 77, 81
2, 255452, Note_off_c, 0, 77, 64
2, 255456, Note_on_c, 0, 83, 82
2, 255548, Note_off_c, 0, 83, 64
2, 255552, Note_on_c, 0, 86, 84
2, 255644, Note_off_c, 0, 86, 64
2, 255648, Note_on_c, 0, 89, 86
2, 255740, Note_off_c, 0, 89, 64
2, 255744, Note_on_c, 0, 87, 85
2, 255836, Note_off_c, 0, 87, 64
2, 255840, Note_on_c, 0, 84, 83
2, 255932, Note_off_c, 0, 84, 64
2, 255936, Note_on_c, 0, 79, 82
2, 256028, Note_off_c, 0, 79, 64
2, 256032, Note_on_c, 0, 75, 81
2, 256124, Note_off_c, 0, 75, 64
2, 256128, Note_on_c, 0, 72, 79
2, 256220, Note_off_c, 0, 72, 64
2, 256224, Note_on_c, 0, 67, 79
2, 256316, Note_off_c, 0, 67, 64
2, 256320, Note_on_c, 0, 63, 78
2, 256412, Note_off_c, 0, 63, 64
2, 256416, Note_on_c, 0, 60, 78
2, 256508, Note_off_c, 0, 60, 64
2, 256608, Note_on_c, 0, 56, 78
2, 256700, Note_off_c, 0, 56, 64
2, 256704, Note_on_c, 0, 62, 78
2, 256796, Note_off_c, 0, 62, 64
2, 256800, Note_on_c, 0, 65, 78
2, 256892, Note_off_c, 0, 65, 64
2, 256896, Note_on_c, 0, 69, 78
2, 256988, Note_off_c, 0, 69, 64
2, 256992, Note_on_c, 0, 74, 79
2, 257084, Note_off_c, 0, 74, 64
2, 257088, Note_on_c, 0, 77, 81
2, 257180, Note_off_c, 0, 77, 64
2, 257184, Note_on_c, 0, 80, 82
2, 257276, Note_off_c, 0, 80, 64
2, 257280, Note_on_c, 0, 79, 82
2, 257372, Note_off_c, 0, 79, 64
2, 257376, Note_on_c, 0, 75, 81
2, 257468, Note_off_c, 0, 75, 64
2, 257472, Note_on_c, 0, 70, 79
2, 257564, Note_off_c, 0, 70, 64
2, 257568, Note_on_c, 0, 67, 79
2, 257660, Note_off_c, 0, 67, 64
2, 257664, Note_on_c, 0, 63, 78
2, 257756, Note_off_c, 0, 63, 64
2, 257760, Note_on_c, 0, 58, 78
2, 257852, Note_off_c, 0, 58, 64
2, 257856, Note_on_c, 0, 55, 78
2, 257948, Note_off_c, 0, 55, 64
2, 257952, Note_on_c, 0, 51, 78
2, 258044, Note_off_c, 0, 51, 64
2, 258144, Note_on_c, 0, 63, 78
2, 258236, Note_off_c, 0, 63, 64
2, 258240, Note_on_c, 0, 69, 78
2, 258332, Note_off_c, 0, 69, 64
2, 258336, Note_on_c, 0, 72, 78
2, 258428, Note_off_c, 0, 72, 64
2, 258432, Note_on_c, 0, 75, 79
2, 258524, Note_off_c, 0, 75, 64
2, 258528, Note_on_c, 0, 81, 82
2, 258620, Note_off_c, 0, 81, 64
2, 258624, Note_on_c, 0, 84, 84
2, 258716, Note_off_c, 0, 84, 64
2, 258720, Note_on_c, 0, 87, 86
2, 258812, Note_off_c, 0, 87, 64
2, 258816, Note_on_c, 0, 87, 86
2, 258908, Note_off_c, 0, 87, 64
2, 258912, Note_on_c, 0, 86, 85
2, 259004, Note_off_c, 0, 86, 64
2, 259008, Note_on_c, 0, 84, 84
2, 259100, Note_off_c, 0, 84, 64
2, 259104, Note_on_c, 0, 82, 83
2, 259196, Note_off_c, 0, 82, 64
2, 259200, Note_on_c, 0, 81, 82
2, 259292, Note_off_c, 0, 81, 64
2, 259296, Note_on_c, 0, 79, 82
2, 259388, Note_off_c, 0, 79, 64
2, 259392, Note_on_c, 0, 78, 81
2, 259484, Note_off_c, 0, 78, 64
2, 259488, Note_on_c, 0, 79, 82
2, 259580, Note_off_c, 0, 79, 64
2, 259584, Note_on_c, 0, 77, 81
2, 259676, Note_off_c, 0, 77, 64
2, 259680, Note_on_c, 0, 82, 83
2, 259772, Note_off_c, 0, 82, 64
2, 259776, Note_on_c, 0, 81, 82
2, 259868, Note_off_c, 0, 81, 64
2, 259872, Note_on_c, 0, 80, 82
2, 259964, Note_off_c, 0, 80, 64
2, 259968, Note_on_c, 0, 79, 82
2, 260060, Note_off_c, 0, 79, 64
2, 260064, Note_on_c, 0, 78, 82
2, 260156, Note_off_c, 0, 78, 64
2, 260160, Note_on_c, 0, 77, 81
2, 260252, Note_off_c, 0, 77, 64
2, 260256, Note_on_c, 0, 75, 79
2, 260348, Note_off_c, 0, 75, 64
2, 260352, Note_on_c, 0, 74, 79
2, 260444, Note_off_c, 0, 74, 64
2, 260448, Note_on_c, 0, 75, 79
2, 260540, Note_off_c, 0, 75, 64
2, 260544, Note_on_c, 0, 76, 79
2, 260636, Note_off_c, 0, 76, 64
2, 260640, Note_on_c, 0, 77, 81
2, 260732, Note_off_c, 0, 77, 64
2, 260736, Note_on_c, 0, 77, 81
2, 260828, Note_off_c, 0, 77, 64
2, 260832, Note_on_c, 0, 75, 79
2, 260924, Note_off_c, 0, 75, 64
2, 260928, Note_on_c, 0, 74, 79
2, 261020, Note_off_c, 0, 74, 64
2, 261024, Note_on_c, 0, 72, 79
2, 261116, Note_off_c, 0, 72, 64
2, 261120, Note_on_c, 0, 70, 78
2, 261500, Note_off_c, 0, 70, 64
2, 262080, Note_on_c, 0, 70, 78
2, 262268, Note_off_c, 0, 70, 64
2, 262272, Note_on_c, 0, 72, 78
2, 262460, Note_off_c, 0, 72, 64
2, 262464, Note_on_c, 0, 74, 78
2, 262652, Note_off_c, 0, 74, 64
2, 262656, Note_on_c, 0, 77, 78
2, 262844, Note_off_c, 0, 77, 64
2, 262848, Note_on_c, 0, 75, 78
2, 263036, Note_off_c, 0, 75, 64
2, 263040, Note_on_c, 0, 74, 78
2, 263420, Note_off_c, 0, 74, 64
2, 263616, Note_on_c, 0, 74, 78
2, 263616, Note_on_c, 0, 70, 78
2, 263804, Note_off_c, 0, 74, 64
2, 263804, Note_off_c, 0, 70, 64
2, 263808, Note_on_c, 0, 75, 78
2, 263808, Note_on_c, 0, 72, 78
2, 263996, Note_off_c, 0, 75, 64
2, 263996, Note_off_c, 0, 72, 64
2, 264000, Note_on_c, 0, 77, 78
2, 264000, Note_on_c, 0, 74, 78
2, 264188, Note_off_c, 0, 77, 64
2, 264188, Note_off_c, 0, 74, 64
2, 264192, Note_on_c, 0, 79, 82
2, 264192, Note_on_c, 0, 75, 81
2, 264380, Note_off_c, 0, 75, 64
2, 264384, Note_on_c, 0, 70, 67
2, 264572, Note_off_c, 0, 79, 64
2, 264572, Note_off_c, 0, 70, 64
2, 264576, Note_on_c, 0, 70, 67
2, 264576, Note_on_c, 0, 77, 70
2, 265148, Note_off_c, 0, 70, 64
2, 265148, Note_off_c, 0, 77, 64
2, 265152, Note_on_c, 0, 78, 81
2, 265152, Note_on_c, 0, 68, 81
2, 265340, Note_off_c, 0, 78, 64
2, 265340, Note_off_c, 0, 68, 64
2, 265344, Note_on_c, 0, 79, 82
2, 265344, Note_on_c, 0, 67, 82
2, 265532, Note_off_c, 0, 79, 64
2, 265532, Note_off_c, 0, 67, 64
2, 265536, Note_on_c, 0, 82, 83
2, 265536, Note_on_c, 0, 73, 83
2, 265724, Note_off_c, 0, 82, 64
2, 265724, Note_off_c, 0, 73, 64
2, 265728, Note_on_c, 0, 82, 83
2, 265728, Note_on_c, 0, 74, 83
2, 265916, Note_off_c, 0, 82, 64
2, 265920, Note_on_c, 0, 77, 81
2, 266108, Note_off_c, 0, 74, 64
2, 266108, Note_off_c, 0, 77, 64
2, 266304, Note_on_c, 0, 74, 67
2, 266304, Note_on_c, 0, 67, 67
2, 266492, Note_off_c, 0, 74, 64
2, 266492, Note_off_c, 0, 67, 64
2, 266496, Note_on_c, 0, 77, 70
2, 266496, Note_on_c, 0, 74, 67
2, 266684, Note_off_c, 0, 77, 64
2, 266684, Note_off_c, 0, 74, 64
2, 266688, Note_on_c, 0, 75, 67
2, 266688, Note_on_c, 0, 72, 67
2, 266876, Note_off_c, 0, 75, 64
2, 266876, Note_off_c, 0, 72, 64
2, 267072, Note_on_c, 0, 72, 67
2, 267072, Note_on_c, 0, 69, 67
2, 267260, Note_off_c, 0, 72, 64
2, 267260, Note_off_c, 0, 69, 64
2, 268224, Note_on_c, 0, 70, 78
2, 268412, Note_off_c, 0, 70, 64
2, 268416, Note_on_c, 0, 72, 78
2, 268604, Note_off_c, 0, 72, 64
2, 268608, Note_on_c, 0, 74, 78
2, 268796, Note_off_c, 0, 74, 64
2, 268800, Note_on_c, 0, 77, 81
2, 268988, Note_off_c, 0, 77, 64
2, 268992, Note_on_c, 0, 75, 78
2, 269180, Note_off_c, 0, 75, 64
2, 269184, Note_on_c, 0, 74, 78
2, 269564, Note_off_c, 0, 74, 64
2, 269696, Note_on_c, 0, 70, 78
2, 269820, Note_off_c, 0, 70, 64
2, 269824, Note_on_c, 0, 72, 78
2, 269948, Note_off_c, 0, 72, 64
2, 269952, Note_on_c, 0, 74, 79
2, 270076, Note_off_c, 0, 74, 64
2, 270080, Note_on_c, 0, 75, 79
2, 270204, Note_off_c, 0, 75, 64
2, 270208, Note_on_c, 0, 77, 81
2, 270332, Note_off_c, 0, 77, 64
2, 270336, Note_on_c, 0, 79, 82
2, 270716, Note_off_c, 0, 79, 64
2, 270720, Note_on_c, 0, 77, 81
2, 271100, Note_off_c, 0, 77, 64
2, 271104, Note_on_c, 0, 79, 82
2, 271104, Note_on_c, 0, 73, 79
2, 271104, Note_on_c, 0, 70, 78
2, 271480, Note_off_c, 0, 79, 64
2, 271480, Note_off_c, 0, 73, 64
2, 271480, Note_off_c, 0, 70, 64
2, 271488, Note_on_c, 0, 81, 82
2, 271528, Note_off_c, 0, 81, 64
2, 271536, Note_on_c, 0, 79, 82
2, 271576, Note_off_c, 0, 79, 64
2, 271584, Note_on_c, 0, 77, 81
2, 271624, Note_off_c, 0, 77, 64
2, 271632, Note_on_c, 0, 79, 82
2, 271672, Note_off_c, 0, 79, 64
2, 271680, Note_on_c, 0, 81, 82
2, 271772, Note_off_c, 0, 81, 64
2, 271776, Note_on_c, 0, 82, 83
2, 271868, Note_off_c, 0, 82, 64
2, 271872, Note_on_c, 0, 82, 83
2, 272060, Note_off_c, 0, 82, 64
2, 272064, Note_on_c, 0, 77, 81
2, 272440, Note_off_c, 0, 77, 64
2, 272448, Note_on_c, 0, 75, 79
2, 272488, Note_off_c, 0, 75, 64
2, 272496, Note_on_c, 0, 74, 79
2, 272536, Note_off_c, 0, 74, 64
2, 272544, Note_on_c, 0, 72, 78
2, 272584, Note_off_c, 0, 72, 64
2, 272592, Note_on_c, 0, 74, 79
2, 272632, Note_off_c, 0, 74, 64
2, 272640, Note_on_c, 0, 77, 81
2, 272828, Note_off_c, 0, 77, 64
2, 272832, Note_on_c, 0, 75, 79
2, 273020, Note_off_c, 0, 75, 64
2, 273216, Note_on_c, 0, 72, 78
2, 273404, Note_off_c, 0, 72, 64
2, 273600, Note_on_c, 0, 70, 78
2, 273692, Note_off_c, 0, 70, 64
2, 273792, Note_on_c, 0, 86, 85
2, 273980, Note_off_c, 0, 86, 64
2, 273984, Note_on_c, 0, 82, 83
2, 274172, Note_off_c, 0, 82, 64
2, 274368, Note_on_c, 0, 67, 78
2, 274460, Note_off_c, 0, 67, 64
2, 274560, Note_on_c, 0, 82, 83
2, 274748, Note_off_c, 0, 82, 64
2, 274752, Note_on_c, 0, 79, 82
2, 274940, Note_off_c, 0, 79, 64
2, 275136, Note_on_c, 0, 65, 82
2, 275228, Note_off_c, 0, 65, 64
2, 275328, Note_on_c, 0, 77, 85
2, 275516, Note_off_c, 0, 77, 64
2, 275520, Note_on_c, 0, 74, 83
2, 275708, Note_off_c, 0, 74, 64
2, 275904, Note_on_c, 0, 65, 82
2, 275996, Note_off_c, 0, 65, 64
2, 276096, Note_on_c, 0, 75, 84
2, 276284, Note_off_c, 0, 75, 64
2, 276288, Note_on_c, 0, 72, 82
2, 276476, Note_off_c, 0, 72, 64
2, 276672, Note_on_c, 0, 70, 82
2, 276764, Note_off_c, 0, 70, 64
2, 276864, Note_on_c, 0, 86, 90
2, 277052, Note_off_c, 0, 86, 64
2, 277056, Note_on_c, 0, 82, 89
2, 277244, Note_off_c, 0, 82, 64
2, 277440, Note_on_c, 0, 67, 82
2, 277532, Note_off_c, 0, 67, 64
2, 277632, Note_on_c, 0, 82, 89
2, 277820, Note_off_c, 0, 82, 64
2, 277824, Note_on_c, 0, 79, 86
2, 278012, Note_off_c, 0, 79, 64
2, 278208, Note_on_c, 0, 65, 82
2, 278300, Note_off_c, 0, 65, 64
2, 278400, Note_on_c, 0, 77, 85
2, 278588, Note_off_c, 0, 77, 64
2, 278592, Note_on_c, 0, 74, 83
2, 278780, Note_off_c, 0, 74, 64
2, 278976, Note_on_c, 0, 65, 82
2, 279068, Note_off_c, 0, 65, 64
2, 279168, Note_on_c, 0, 75, 84
2, 279356, Note_off_c, 0, 75, 64
2, 279360, Note_on_c, 0, 72, 83
2, 279548, Note_off_c, 0, 72, 64
2, 279552, Note_on_c, 0, 70, 82
2, 279932, Note_off_c, 0, 70, 64
2, 280320, Note_on_c, 0, 71, 82
2, 280508, Note_off_c, 0, 71, 64
2, 280512, Note_on_c, 0, 72, 82
2, 280700, Note_off_c, 0, 72, 64
2, 280704, Note_on_c, 0, 74, 83
2, 280892, Note_off_c, 0, 74, 64
2, 280896, Note_on_c, 0, 75, 84
2, 281084, Note_off_c, 0, 75, 64
2, 281088, Note_on_c, 0, 79, 86
2, 281276, Note_off_c, 0, 79, 64
2, 281280, Note_on_c, 0, 77, 85
2, 281468, Note_off_c, 0, 77, 64
2, 281856, Note_on_c, 0, 71, 82
2, 282044, Note_off_c, 0, 71, 64
2, 282048, Note_on_c, 0, 72, 82
2, 282236, Note_off_c, 0, 72, 64
2, 282240, Note_on_c, 0, 74, 83
2, 282428, Note_off_c, 0, 74, 64
2, 282432, Note_on_c, 0, 75, 84
2, 282620, Note_off_c, 0, 75, 64
2, 282624, Note_on_c, 0, 79, 86
2, 282812, Note_off_c, 0, 79, 64
2, 282816, Note_on_c, 0, 77, 85
2, 283004, Note_off_c, 0, 77, 64
2, 283392, Note_on_c, 0, 76, 82
2, 283580, Note_off_c, 0, 76, 64
2, 283584, Note_on_c, 0, 77, 85
2, 283772, Note_off_c, 0, 77, 64
2, 283776, Note_on_c, 0, 79, 86
2, 283964, Note_off_c, 0, 79, 64
2, 283968, Note_on_c, 0, 81, 88
2, 284156, Note_off_c, 0, 81, 64
2, 284160, Note_on_c, 0, 82, 89
2, 284348, Note_off_c, 0, 82, 64
2, 284352, Note_on_c, 0, 82, 89
2, 284540, Note_off_c, 0, 82, 64
2, 284736, Note_on_c, 0, 86, 90
2, 284924, Note_off_c, 0, 86, 64
2, 285120, Note_on_c, 0, 89, 92
2, 285308, Note_off_c, 0, 89, 64
2, 285504, Note_on_c, 0, 86, 90
2, 285692, Note_off_c, 0, 86, 64
2, 285696, Note_on_c, 0, 82, 89
2, 286268, Note_off_c, 0, 82, 64
2, 286268, End_track
3, 0, Start_track
3, 0, Title_t, "K466b - #20"
3, 0, Control_c, 1, 0, 0
3, 0, Program_c, 1, 0
3, 0, Control_c, 1, 7, 91
3, 0, Control_c, 1, 10, 67
3, 0, Control_c, 1, 91, 72
3, 0, Control_c, 1, 93, 54
3, 0, Key_signature, -2, "major"
3, 0, Control_c, 1, 121, 0
3, 480, Control_c, 1, 10, 63
3, 576, Control_c, 1, 91, 63
3, 672, Control_c, 1, 93, 35
3, 768, Program_c, 1, 0
3, 1536, Note_on_c, 1, 58, 78
3, 1536, Note_on_c, 1, 62, 78
3, 1916, Note_off_c, 1, 58, 64
3, 1920, Note_on_c, 1, 58, 78
3, 2300, Note_off_c, 1, 62, 64
3, 2300, Note_off_c, 1, 58, 64
3, 2304, Note_on_c, 1, 58, 78
3, 2304, Note_on_c, 1, 61, 78
3, 2492, Note_off_c, 1, 61, 64
3, 2496, Note_on_c, 1, 62, 78
3, 2684, Note_off_c, 1, 58, 64
3, 2684, Note_off_c, 1, 62, 64
3, 2688, Note_on_c, 1, 61, 78
3, 2688, Note_on_c, 1, 58, 78
3, 2876, Note_off_c, 1, 61, 64
3, 2880, Note_on_c, 1, 62, 78
3, 3068, Note_off_c, 1, 58, 64
3, 3068, Note_off_c, 1, 62, 64
3, 3072, Note_on_c, 1, 63, 78
3, 3072, Note_on_c, 1, 58, 78
3, 3260, Note_off_c, 1, 63, 64
3, 3264, Note_on_c, 1, 62, 78
3, 3452, Note_off_c, 1, 58, 64
3, 3452, Note_off_c, 1, 62, 64
3, 3456, Note_on_c, 1, 60, 78
3, 3644, Note_off_c, 1, 60, 64
3, 3648, Note_on_c, 1, 58, 78
3, 3836, Note_off_c, 1, 58, 64
3, 3840, Note_on_c, 1, 58, 78
3, 4220, Note_off_c, 1, 58, 64
3, 4608, Note_on_c, 1, 50, 78
3, 4608, Note_on_c, 1, 46, 78
3, 4796, Note_off_c, 1, 50, 64
3, 4800, Note_on_c, 1, 53, 78
3, 4988, Note_off_c, 1, 53, 64
3, 4992, Note_on_c, 1, 50, 78
3, 5180, Note_off_c, 1, 50, 64
3, 5184, Note_on_c, 1, 53, 78
3, 5372, Note_off_c, 1, 46, 64
3, 5372, Note_off_c, 1, 53, 64
3, 5376, Note_on_c, 1, 51, 78
3, 5376, Note_on_c, 1, 48, 78
3, 5376, Note_on_c, 1, 45, 78
3, 5564, Note_off_c, 1, 51, 64
3, 5568, Note_on_c, 1, 53, 78
3, 5756, Note_off_c, 1, 53, 64
3, 5760, Note_on_c, 1, 51, 78
3, 5948, Note_off_c, 1, 51, 64
3, 5952, Note_on_c, 1, 53, 78
3, 6140, Note_off_c, 1, 48, 64
3, 6140, Note_off_c, 1, 45, 64
3, 6140, Note_off_c, 1, 53, 64
3, 6144, Note_on_c, 1, 46, 78
3, 6144, Note_on_c, 1, 50, 78
3, 6332, Note_off_c, 1, 50, 64
3, 6336, Note_on_c, 1, 53, 78
3, 6524, Note_off_c, 1, 53, 64
3, 6528, Note_on_c, 1, 50, 78
3, 6716, Note_off_c, 1, 50, 64
3, 6720, Note_on_c, 1, 53, 78
3, 6908, Note_off_c, 1, 46, 64
3, 6908, Note_off_c, 1, 53, 64
3, 6912, Note_on_c, 1, 41, 79
3, 7292, Note_off_c, 1, 41, 64
3, 7680, Note_on_c, 1, 58, 78
3, 7680, Note_on_c, 1, 62, 78
3, 8060, Note_off_c, 1, 58, 64
3, 8064, Note_on_c, 1, 58, 78
3, 8444, Note_off_c, 1, 62, 64
3, 8444, Note_off_c, 1, 58, 64
3, 8448, Note_on_c, 1, 58, 78
3, 8448, Note_on_c, 1, 61, 78
3, 8636, Note_off_c, 1, 61, 64
3, 8640, Note_on_c, 1, 62, 78
3, 8828, Note_off_c, 1, 58, 64
3, 8828, Note_off_c, 1, 62, 64
3, 8832, Note_on_c, 1, 58, 78
3, 8832, Note_on_c, 1, 61, 78
3, 9020, Note_off_c, 1, 61, 64
3, 9024, Note_on_c, 1, 62, 78
3, 9212, Note_off_c, 1, 58, 64
3, 9212, Note_off_c, 1, 62, 64
3, 9216, Note_on_c, 1, 63, 78
3, 9216, Note_on_c, 1, 58, 78
3, 9404, Note_off_c, 1, 63, 64
3, 9408, Note_on_c, 1, 62, 78
3, 9596, Note_off_c, 1, 58, 64
3, 9596, Note_off_c, 1, 62, 64
3, 9600, Note_on_c, 1, 60, 78
3, 9788, Note_off_c, 1, 60, 64
3, 9792, Note_on_c, 1, 58, 78
3, 9980, Note_off_c, 1, 58, 64
3, 9984, Note_on_c, 1, 58, 78
3, 10364, Note_off_c, 1, 58, 64
3, 10752, Note_on_c, 1, 50, 78
3, 10752, Note_on_c, 1, 46, 78
3, 10752, Note_on_c, 1, 41, 79
3, 10940, Note_off_c, 1, 50, 64
3, 10944, Note_on_c, 1, 53, 78
3, 11132, Note_off_c, 1, 53, 64
3, 11136, Note_on_c, 1, 50, 78
3, 11324, Note_off_c, 1, 50, 64
3, 11328, Note_on_c, 1, 53, 78
3, 11516, Note_off_c, 1, 46, 64
3, 11516, Note_off_c, 1, 41, 64
3, 11516, Note_off_c, 1, 53, 64
3, 11520, Note_on_c, 1, 48, 78
3, 11520, Note_on_c, 1, 45, 78
3, 11520, Note_on_c, 1, 41, 81
3, 11708, Note_off_c, 1, 48, 64
3, 11712, Note_on_c, 1, 53, 78
3, 11900, Note_off_c, 1, 53, 64
3, 11904, Note_on_c, 1, 48, 78
3, 12092, Note_off_c, 1, 48, 64
3, 12096, Note_on_c, 1, 53, 78
3, 12284, Note_off_c, 1, 45, 64
3, 12284, Note_off_c, 1, 41, 64
3, 12284, Note_off_c, 1, 53, 64
3, 12288, Note_on_c, 1, 46, 78
3, 12668, Note_off_c, 1, 46, 64
3, 12672, Note_on_c, 1, 41, 79
3, 13052, Note_off_c, 1, 41, 64
3, 13056, Note_on_c, 1, 34, 82
3, 13436, Note_off_c, 1, 34, 64
3, 14208, Note_on_c, 1, 58, 88
3, 14208, Note_on_c, 1, 46, 88
3, 14588, Note_off_c, 1, 58, 64
3, 14588, Note_off_c, 1, 46, 64
3, 14592, Note_on_c, 1, 58, 88
3, 14592, Note_on_c, 1, 61, 88
3, 14780, Note_off_c, 1, 61, 64
3, 14784, Note_on_c, 1, 62, 88
3, 14972, Note_off_c, 1, 58, 64
3, 14972, Note_off_c, 1, 62, 64
3, 14976, Note_on_c, 1, 58, 88
3, 14976, Note_on_c, 1, 61, 88
3, 15164, Note_off_c, 1, 61, 64
3, 15168, Note_on_c, 1, 62, 88
3, 15356, Note_off_c, 1, 58, 64
3, 15356, Note_off_c, 1, 62, 64
3, 15360, Note_on_c, 1, 63, 88
3, 15360, Note_on_c, 1, 58, 88
3, 15548, Note_off_c, 1, 63, 64
3, 15552, Note_on_c, 1, 62, 88
3, 15740, Note_off_c, 1, 62, 64
3, 15744, Note_on_c, 1, 60, 88
3, 15932, Note_off_c, 1, 60, 64
3, 15936, Note_on_c, 1, 58, 88
3, 16124, Note_off_c, 1, 58, 64
3, 16124, Note_off_c, 1, 58, 64
3, 16128, Note_on_c, 1, 46, 88
3, 16128, Note_on_c, 1, 34, 93
3, 16508, Note_off_c, 1, 46, 64
3, 16508, Note_off_c, 1, 34, 64
3, 16896, Note_on_c, 1, 58, 67
3, 16896, Note_on_c, 1, 46, 67
3, 16988, Note_off_c, 1, 58, 64
3, 17088, Note_on_c, 1, 53, 67
3, 17180, Note_off_c, 1, 53, 64
3, 17280, Note_on_c, 1, 58, 67
3, 17372, Note_off_c, 1, 58, 64
3, 17472, Note_on_c, 1, 53, 67
3, 17564, Note_off_c, 1, 53, 64
3, 17660, Note_off_c, 1, 46, 64
3, 17664, Note_on_c, 1, 60, 67
3, 17664, Note_on_c, 1, 45, 67
3, 17852, Note_off_c, 1, 60, 64
3, 17856, Note_on_c, 1, 53, 67
3, 18044, Note_off_c, 1, 53, 64
3, 18048, Note_on_c, 1, 60, 67
3, 18236, Note_off_c, 1, 60, 64
3, 18240, Note_on_c, 1, 53, 67
3, 18428, Note_off_c, 1, 45, 64
3, 18428, Note_off_c, 1, 53, 64
3, 18432, Note_on_c, 1, 58, 67
3, 18432, Note_on_c, 1, 46, 67
3, 18620, Note_off_c, 1, 58, 64
3, 18624, Note_on_c, 1, 53, 67
3, 18812, Note_off_c, 1, 53, 64
3, 18816, Note_on_c, 1, 58, 67
3, 19004, Note_off_c, 1, 58, 64
3, 19008, Note_on_c, 1, 53, 67
3, 19196, Note_off_c, 1, 46, 64
3, 19196, Note_off_c, 1, 53, 64
3, 19200, Note_on_c, 1, 53, 74
3, 19200, Note_on_c, 1, 41, 78
3, 19388, Note_off_c, 1, 53, 64
3, 19388, Note_off_c, 1, 41, 64
3, 19968, Note_on_c, 1, 53, 88
3, 19968, Note_on_c, 1, 50, 88
3, 19968, Note_on_c, 1, 46, 88
3, 20348, Note_off_c, 1, 46, 64
3, 20352, Note_on_c, 1, 46, 88
3, 20732, Note_off_c, 1, 53, 64
3, 20732, Note_off_c, 1, 50, 64
3, 20732, Note_off_c, 1, 46, 64
3, 20736, Note_on_c, 1, 46, 88
3, 20736, Note_on_c, 1, 52, 88
3, 20736, Note_on_c, 1, 49, 88
3, 20924, Note_off_c, 1, 52, 64
3, 20924, Note_off_c, 1, 49, 64
3, 20928, Note_on_c, 1, 53, 88
3, 20928, Note_on_c, 1, 50, 88
3, 21116, Note_off_c, 1, 46, 64
3, 21116, Note_off_c, 1, 53, 64
3, 21116, Note_off_c, 1, 50, 64
3, 21120, Note_on_c, 1, 46, 88
3, 21120, Note_on_c, 1, 52, 88
3, 21120, Note_on_c, 1, 49, 88
3, 21308, Note_off_c, 1, 52, 64
3, 21308, Note_off_c, 1, 49, 64
3, 21312, Note_on_c, 1, 53, 88
3, 21312, Note_on_c, 1, 50, 88
3, 21500, Note_off_c, 1, 46, 64
3, 21500, Note_off_c, 1, 53, 64
3, 21500, Note_off_c, 1, 50, 64
3, 21504, Note_on_c, 1, 55, 88
3, 21504, Note_on_c, 1, 51, 88
3, 21504, Note_on_c, 1, 46, 88
3, 21692, Note_off_c, 1, 55, 64
3, 21692, Note_off_c, 1, 51, 64
3, 21696, Note_on_c, 1, 53, 88
3, 21696, Note_on_c, 1, 50, 88
3, 21884, Note_off_c, 1, 53, 64
3, 21884, Note_off_c, 1, 50, 64
3, 21888, Note_on_c, 1, 51, 88
3, 21888, Note_on_c, 1, 48, 88
3, 22076, Note_off_c, 1, 51, 64
3, 22076, Note_off_c, 1, 48, 64
3, 22080, Note_on_c, 1, 50, 88
3, 22080, Note_on_c, 1, 46, 88
3, 22268, Note_off_c, 1, 46, 64
3, 22268, Note_off_c, 1, 50, 64
3, 22268, Note_off_c, 1, 46, 64
3, 22272, Note_on_c, 1, 46, 88
3, 22272, Note_on_c, 1, 34, 93
3, 22460, Note_off_c, 1, 46, 64
3, 22460, Note_off_c, 1, 34, 64
3, 23040, Note_on_c, 1, 53, 67
3, 23040, Note_on_c, 1, 41, 69
3, 23132, Note_off_c, 1, 53, 64
3, 23232, Note_on_c, 1, 50, 67
3, 23324, Note_off_c, 1, 50, 64
3, 23424, Note_on_c, 1, 53, 67
3, 23516, Note_off_c, 1, 53, 64
3, 23616, Note_on_c, 1, 50, 67
3, 23708, Note_off_c, 1, 50, 64
3, 23804, Note_off_c, 1, 41, 64
3, 23808, Note_on_c, 1, 41, 69
3, 23808, Note_on_c, 1, 51, 67
3, 23900, Note_off_c, 1, 51, 64
3, 24000, Note_on_c, 1, 48, 67
3, 24092, Note_off_c, 1, 48, 64
3, 24192, Note_on_c, 1, 51, 67
3, 24284, Note_off_c, 1, 51, 64
3, 24384, Note_on_c, 1, 48, 67
3, 24476, Note_off_c, 1, 48, 64
3, 24572, Note_off_c, 1, 41, 64
3, 24576, Note_on_c, 1, 46, 67
3, 24576, Note_on_c, 1, 34, 73
3, 24764, Note_off_c, 1, 46, 64
3, 24764, Note_off_c, 1, 34, 64
3, 24960, Note_on_c, 1, 41, 69
3, 24960, Note_on_c, 1, 29, 75
3, 25148, Note_off_c, 1, 41, 64
3, 25148, Note_off_c, 1, 29, 64
3, 25344, Note_on_c, 1, 46, 67
3, 25344, Note_on_c, 1, 34, 73
3, 25532, Note_off_c, 1, 46, 64
3, 25532, Note_off_c, 1, 34, 64
3, 26304, Note_on_c, 1, 53, 78
3, 26496, Note_on_c, 1, 57, 78
3, 26688, Note_on_c, 1, 60, 78
3, 26876, Note_off_c, 1, 53, 64
3, 26876, Note_off_c, 1, 57, 64
3, 26876, Note_off_c, 1, 60, 64
3, 26880, Note_on_c, 1, 63, 78
3, 26880, Note_on_c, 1, 60, 78
3, 26880, Note_on_c, 1, 57, 78
3, 26880, Note_on_c, 1, 53, 78
3, 27068, Note_off_c, 1, 63, 64
3, 27068, Note_off_c, 1, 60, 64
3, 27068, Note_off_c, 1, 57, 64
3, 27068, Note_off_c, 1, 53, 64
3, 27840, Note_on_c, 1, 53, 78
3, 28032, Note_on_c, 1, 58, 78
3, 28224, Note_on_c, 1, 62, 78
3, 28412, Note_off_c, 1, 53, 64
3, 28412, Note_off_c, 1, 58, 64
3, 28412, Note_off_c, 1, 62, 64
3, 28416, Note_on_c, 1, 65, 78
3, 28416, Note_on_c, 1, 62, 78
3, 28416, Note_on_c, 1, 58, 78
3, 28416, Note_on_c, 1, 53, 78
3, 28604, Note_off_c, 1, 65, 64
3, 28604, Note_off_c, 1, 62, 64
3, 28604, Note_off_c, 1, 58, 64
3, 28604, Note_off_c, 1, 53, 64
3, 29376, Note_on_c, 1, 48, 78
3, 29568, Note_on_c, 1, 52, 78
3, 29760, Note_on_c, 1, 55, 78
3, 29948, Note_off_c, 1, 48, 64
3, 29948, Note_off_c, 1, 52, 64
3, 29948, Note_off_c, 1, 55, 64
3, 29952, Note_on_c, 1, 58, 78
3, 29952, Note_on_c, 1, 55, 78
3, 29952, Note_on_c, 1, 52, 78
3, 29952, Note_on_c, 1, 48, 78
3, 30140, Note_off_c, 1, 58, 64
3, 30140, Note_off_c, 1, 55, 64
3, 30140, Note_off_c, 1, 52, 64
3, 30140, Note_off_c, 1, 48, 64
3, 30912, Note_on_c, 1, 53, 78
3, 31104, Note_on_c, 1, 57, 78
3, 31296, Note_on_c, 1, 60, 78
3, 31484, Note_off_c, 1, 53, 64
3, 31484, Note_off_c, 1, 57, 64
3, 31484, Note_off_c, 1, 60, 64
3, 31488, Note_on_c, 1, 57, 78
3, 31488, Note_on_c, 1, 53, 78
3, 31488, Note_on_c, 1, 60, 78
3, 31488, Note_on_c, 1, 65, 78
3, 31676, Note_off_c, 1, 57, 64
3, 31676, Note_off_c, 1, 53, 64
3, 31676, Note_off_c, 1, 60, 64
3, 31676, Note_off_c, 1, 65, 64
3, 32256, Note_on_c, 1, 62, 78
3, 32256, Note_on_c, 1, 58, 78
3, 32636, Note_off_c, 1, 58, 64
3, 32640, Note_on_c, 1, 58, 78
3, 33020, Note_off_c, 1, 62, 64
3, 33020, Note_off_c, 1, 58, 64
3, 33024, Note_on_c, 1, 58, 78
3, 33024, Note_on_c, 1, 61, 78
3, 33212, Note_off_c, 1, 61, 64
3, 33216, Note_on_c, 1, 62, 78
3, 33404, Note_off_c, 1, 58, 64
3, 33404, Note_off_c, 1, 62, 64
3, 33408, Note_on_c, 1, 58, 78
3, 33408, Note_on_c, 1, 61, 78
3, 33596, Note_off_c, 1, 61, 64
3, 33600, Note_on_c, 1, 62, 78
3, 33788, Note_off_c, 1, 58, 64
3, 33788, Note_off_c, 1, 62, 64
3, 33792, Note_on_c, 1, 63, 78
3, 33792, Note_on_c, 1, 58, 78
3, 33980, Note_off_c, 1, 63, 64
3, 33984, Note_on_c, 1, 62, 78
3, 34172, Note_off_c, 1, 58, 64
3, 34172, Note_off_c, 1, 62, 64
3, 34176, Note_on_c, 1, 60, 78
3, 34364, Note_off_c, 1, 60, 64
3, 34368, Note_on_c, 1, 58, 78
3, 34556, Note_off_c, 1, 58, 64
3, 34560, Note_on_c, 1, 58, 78
3, 34940, Note_off_c, 1, 58, 64
3, 35328, Note_on_c, 1, 46, 78
3, 35328, Note_on_c, 1, 41, 79
3, 35328, Note_on_c, 1, 50, 78
3, 35516, Note_off_c, 1, 50, 64
3, 35520, Note_on_c, 1, 53, 78
3, 35708, Note_off_c, 1, 53, 64
3, 35712, Note_on_c, 1, 50, 78
3, 35900, Note_off_c, 1, 50, 64
3, 35904, Note_on_c, 1, 53, 78
3, 36092, Note_off_c, 1, 46, 64
3, 36092, Note_off_c, 1, 41, 64
3, 36092, Note_off_c, 1, 53, 64
3, 36096, Note_on_c, 1, 45, 78
3, 36096, Note_on_c, 1, 41, 78
3, 36096, Note_on_c, 1, 48, 78
3, 36284, Note_off_c, 1, 48, 64
3, 36288, Note_on_c, 1, 53, 78
3, 36476, Note_off_c, 1, 53, 64
3, 36480, Note_on_c, 1, 48, 78
3, 36668, Note_off_c, 1, 48, 64
3, 36672, Note_on_c, 1, 53, 78
3, 36860, Note_off_c, 1, 45, 64
3, 36860, Note_off_c, 1, 41, 64
3, 36860, Note_off_c, 1, 53, 64
3, 36864, Note_on_c, 1, 46, 78
3, 37244, Note_off_c, 1, 46, 64
3, 37248, Note_on_c, 1, 41, 81
3, 37628, Note_off_c, 1, 41, 64
3, 37632, Note_on_c, 1, 34, 82
3, 38012, Note_off_c, 1, 34, 64
3, 38464, Note_on_c, 1, 53, 78
3, 38464, Note_on_c, 1, 41, 79
3, 38584, Note_off_c, 1, 53, 64
3, 38584, Note_off_c, 1, 41, 64
3, 38592, Note_on_c, 1, 60, 78
3, 38592, Note_on_c, 1, 57, 78
3, 38684, Note_off_c, 1, 60, 64
3, 38684, Note_off_c, 1, 57, 64
3, 38784, Note_on_c, 1, 60, 88
3, 38784, Note_on_c, 1, 57, 88
3, 38972, Note_off_c, 1, 60, 64
3, 38972, Note_off_c, 1, 57, 64
3, 38976, Note_on_c, 1, 62, 88
3, 38976, Note_on_c, 1, 58, 88
3, 39164, Note_off_c, 1, 62, 64
3, 39164, Note_off_c, 1, 58, 64
3, 39168, Note_on_c, 1, 63, 88
3, 39168, Note_on_c, 1, 60, 88
3, 39356, Note_off_c, 1, 63, 64
3, 39356, Note_off_c, 1, 60, 64
3, 39360, Note_on_c, 1, 63, 88
3, 39360, Note_on_c, 1, 60, 88
3, 39548, Note_off_c, 1, 63, 64
3, 39548, Note_off_c, 1, 60, 64
3, 39552, Note_on_c, 1, 62, 88
3, 39552, Note_on_c, 1, 58, 88
3, 39740, Note_off_c, 1, 62, 64
3, 39740, Note_off_c, 1, 58, 64
3, 39744, Note_on_c, 1, 60, 88
3, 39744, Note_on_c, 1, 57, 88
3, 39932, Note_off_c, 1, 60, 64
3, 39932, Note_off_c, 1, 57, 64
3, 39936, Note_on_c, 1, 46, 88
3, 39936, Note_on_c, 1, 34, 93
3, 40124, Note_off_c, 1, 46, 64
3, 40124, Note_off_c, 1, 34, 64
3, 40128, Note_on_c, 1, 62, 88
3, 40128, Note_on_c, 1, 58, 88
3, 40220, Note_off_c, 1, 62, 64
3, 40220, Note_off_c, 1, 58, 64
3, 40320, Note_on_c, 1, 62, 88
3, 40320, Note_on_c, 1, 58, 88
3, 40508, Note_off_c, 1, 62, 64
3, 40508, Note_off_c, 1, 58, 64
3, 40512, Note_on_c, 1, 63, 88
3, 40512, Note_on_c, 1, 60, 88
3, 40700, Note_off_c, 1, 63, 64
3, 40700, Note_off_c, 1, 60, 64
3, 40704, Note_on_c, 1, 65, 88
3, 40704, Note_on_c, 1, 62, 88
3, 40892, Note_off_c, 1, 65, 64
3, 40892, Note_off_c, 1, 62, 64
3, 41472, Note_on_c, 1, 60, 67
3, 41472, Note_on_c, 1, 48, 67
3, 41660, Note_off_c, 1, 60, 64
3, 41660, Note_off_c, 1, 48, 64
3, 43008, Note_on_c, 1, 53, 67
3, 43008, Note_on_c, 1, 41, 69
3, 43196, Note_off_c, 1, 53, 64
3, 43196, Note_off_c, 1, 41, 64
3, 43968, Note_on_c, 1, 60, 88
3, 43968, Note_on_c, 1, 57, 88
3, 43968, Note_on_c, 1, 53, 88
3, 44156, Note_off_c, 1, 60, 64
3, 44156, Note_off_c, 1, 57, 64
3, 44160, Note_on_c, 1, 58, 88
3, 44160, Note_on_c, 1, 62, 88
3, 44348, Note_off_c, 1, 58, 64
3, 44348, Note_off_c, 1, 62, 64
3, 44352, Note_on_c, 1, 63, 88
3, 44352, Note_on_c, 1, 60, 88
3, 44540, Note_off_c, 1, 53, 64
3, 44540, Note_off_c, 1, 63, 64
3, 44540, Note_off_c, 1, 60, 64
3, 44544, Note_on_c, 1, 65, 88
3, 44544, Note_on_c, 1, 62, 88
3, 44544, Note_on_c, 1, 58, 88
3, 44544, Note_on_c, 1, 53, 88
3, 44924, Note_off_c, 1, 65, 64
3, 44924, Note_off_c, 1, 62, 64
3, 44924, Note_off_c, 1, 58, 64
3, 44924, Note_off_c, 1, 53, 64
3, 44928, Note_on_c, 1, 58, 88
3, 44928, Note_on_c, 1, 46, 88
3, 45308, Note_off_c, 1, 58, 64
3, 45308, Note_off_c, 1, 46, 64
3, 45312, Note_on_c, 1, 58, 88
3, 45312, Note_on_c, 1, 61, 88
3, 45312, Note_on_c, 1, 64, 88
3, 45500, Note_off_c, 1, 61, 64
3, 45500, Note_off_c, 1, 64, 64
3, 45504, Note_on_c, 1, 62, 88
3, 45504, Note_on_c, 1, 65, 88
3, 45692, Note_off_c, 1, 58, 64
3, 45692, Note_off_c, 1, 62, 64
3, 45692, Note_off_c, 1, 65, 64
3, 45696, Note_on_c, 1, 58, 88
3, 45696, Note_on_c, 1, 61, 88
3, 45696, Note_on_c, 1, 64, 88
3, 45884, Note_off_c, 1, 61, 64
3, 45884, Note_off_c, 1, 64, 64
3, 45888, Note_on_c, 1, 62, 88
3, 45888, Note_on_c, 1, 65, 88
3, 46076, Note_off_c, 1, 58, 64
3, 46076, Note_off_c, 1, 62, 64
3, 46076, Note_off_c, 1, 65, 64
3, 46080, Note_on_c, 1, 67, 88
3, 46080, Note_on_c, 1, 63, 88
3, 46080, Note_on_c, 1, 58, 88
3, 46268, Note_off_c, 1, 67, 64
3, 46268, Note_off_c, 1, 63, 64
3, 46272, Note_on_c, 1, 65, 88
3, 46272, Note_on_c, 1, 62, 88
3, 46460, Note_off_c, 1, 65, 64
3, 46460, Note_off_c, 1, 62, 64
3, 46464, Note_on_c, 1, 63, 88
3, 46464, Note_on_c, 1, 60, 88
3, 46652, Note_off_c, 1, 63, 64
3, 46652, Note_off_c, 1, 60, 64
3, 46656, Note_on_c, 1, 62, 88
3, 46656, Note_on_c, 1, 58, 88
3, 46844, Note_off_c, 1, 58, 64
3, 46844, Note_off_c, 1, 62, 64
3, 46844, Note_off_c, 1, 58, 64
3, 46848, Note_on_c, 1, 58, 88
3, 46848, Note_on_c, 1, 46, 88
3, 47228, Note_off_c, 1, 58, 64
3, 47228, Note_off_c, 1, 46, 64
3, 47616, Note_on_c, 1, 53, 67
3, 47616, Note_on_c, 1, 41, 69
3, 47708, Note_off_c, 1, 53, 64
3, 47808, Note_on_c, 1, 50, 67
3, 47900, Note_off_c, 1, 50, 64
3, 48000, Note_on_c, 1, 53, 67
3, 48092, Note_off_c, 1, 53, 64
3, 48192, Note_on_c, 1, 50, 67
3, 48284, Note_off_c, 1, 50, 64
3, 48380, Note_off_c, 1, 41, 64
3, 48384, Note_on_c, 1, 51, 67
3, 48384, Note_on_c, 1, 41, 69
3, 48476, Note_off_c, 1, 51, 64
3, 48576, Note_on_c, 1, 48, 67
3, 48668, Note_off_c, 1, 48, 64
3, 48768, Note_on_c, 1, 51, 67
3, 48860, Note_off_c, 1, 51, 64
3, 48960, Note_on_c, 1, 48, 67
3, 49052, Note_off_c, 1, 48, 64
3, 49148, Note_off_c, 1, 41, 64
3, 49152, Note_on_c, 1, 43, 67
3, 49344, Note_on_c, 1, 59, 67
3, 49344, Note_on_c, 1, 53, 67
3, 49436, Note_off_c, 1, 59, 64
3, 49436, Note_off_c, 1, 53, 64
3, 49532, Note_off_c, 1, 43, 64
3, 49536, Note_on_c, 1, 59, 67
3, 49536, Note_on_c, 1, 53, 67
3, 49628, Note_off_c, 1, 59, 64
3, 49628, Note_off_c, 1, 53, 64
3, 49728, Note_on_c, 1, 59, 67
3, 49728, Note_on_c, 1, 53, 67
3, 49820, Note_off_c, 1, 59, 64
3, 49820, Note_off_c, 1, 53, 64
3, 49920, Note_on_c, 1, 48, 68
3, 50112, Note_on_c, 1, 60, 71
3, 50112, Note_on_c, 1, 51, 71
3, 50204, Note_off_c, 1, 60, 64
3, 50204, Note_off_c, 1, 51, 64
3, 50300, Note_off_c, 1, 48, 64
3, 50304, Note_on_c, 1, 60, 73
3, 50304, Note_on_c, 1, 55, 73
3, 50396, Note_off_c, 1, 60, 64
3, 50396, Note_off_c, 1, 55, 64
3, 50496, Note_on_c, 1, 60, 75
3, 50496, Note_on_c, 1, 55, 75
3, 50588, Note_off_c, 1, 60, 64
3, 50588, Note_off_c, 1, 55, 64
3, 50688, Note_on_c, 1, 46, 77
3, 50880, Note_on_c, 1, 62, 78
3, 50880, Note_on_c, 1, 56, 78
3, 50972, Note_off_c, 1, 62, 64
3, 50972, Note_off_c, 1, 56, 64
3, 51068, Note_off_c, 1, 46, 64
3, 51072, Note_on_c, 1, 62, 79
3, 51072, Note_on_c, 1, 56, 79
3, 51164, Note_off_c, 1, 62, 64
3, 51164, Note_off_c, 1, 56, 64
3, 51264, Note_on_c, 1, 62, 81
3, 51264, Note_on_c, 1, 56, 81
3, 51356, Note_off_c, 1, 62, 64
3, 51356, Note_off_c, 1, 56, 64
3, 51456, Note_on_c, 1, 51, 82
3, 51648, Note_on_c, 1, 63, 83
3, 51648, Note_on_c, 1, 55, 83
3, 51740, Note_off_c, 1, 63, 64
3, 51740, Note_off_c, 1, 55, 64
3, 51836, Note_off_c, 1, 51, 64
3, 51840, Note_on_c, 1, 63, 84
3, 51840, Note_on_c, 1, 58, 84
3, 51932, Note_off_c, 1, 63, 64
3, 51932, Note_off_c, 1, 58, 64
3, 52032, Note_on_c, 1, 63, 85
3, 52032, Note_on_c, 1, 58, 85
3, 52124, Note_off_c, 1, 63, 64
3, 52124, Note_off_c, 1, 58, 64
3, 52224, Note_on_c, 1, 53, 88
3, 52416, Note_on_c, 1, 63, 88
3, 52416, Note_on_c, 1, 60, 88
3, 52508, Note_off_c, 1, 63, 64
3, 52508, Note_off_c, 1, 60, 64
3, 52608, Note_on_c, 1, 63, 88
3, 52608, Note_on_c, 1, 60, 88
3, 52700, Note_off_c, 1, 63, 64
3, 52700, Note_off_c, 1, 60, 64
3, 52800, Note_on_c, 1, 60, 88
3, 52800, Note_on_c, 1, 63, 88
3, 52892, Note_off_c, 1, 60, 64
3, 52892, Note_off_c, 1, 63, 64
3, 52988, Note_off_c, 1, 53, 64
3, 52992, Note_on_c, 1, 62, 88
3, 52992, Note_on_c, 1, 58, 88
3, 52992, Note_on_c, 1, 55, 88
3, 53372, Note_off_c, 1, 62, 64
3, 53372, Note_off_c, 1, 58, 64
3, 53372, Note_off_c, 1, 55, 64
3, 53376, Note_on_c, 1, 63, 88
3, 53376, Note_on_c, 1, 58, 88
3, 53376, Note_on_c, 1, 51, 88
3, 53756, Note_off_c, 1, 63, 64
3, 53756, Note_off_c, 1, 58, 64
3, 53756, Note_off_c, 1, 51, 64
3, 53760, Note_on_c, 1, 58, 88
3, 53760, Note_on_c, 1, 50, 88
3, 54140, Note_off_c, 1, 58, 64
3, 54140, Note_off_c, 1, 50, 64
3, 54144, Note_on_c, 1, 60, 88
3, 54144, Note_on_c, 1, 55, 88
3, 54144, Note_on_c, 1, 51, 88
3, 54524, Note_off_c, 1, 60, 64
3, 54524, Note_off_c, 1, 55, 64
3, 54524, Note_off_c, 1, 51, 64
3, 54528, Note_on_c, 1, 58, 88
3, 54528, Note_on_c, 1, 53, 88
3, 54908, Note_off_c, 1, 58, 64
3, 54908, Note_off_c, 1, 53, 64
3, 54912, Note_on_c, 1, 53, 88
3, 54912, Note_on_c, 1, 41, 90
3, 55292, Note_off_c, 1, 53, 64
3, 55292, Note_off_c, 1, 41, 64
3, 55296, Note_on_c, 1, 53, 67
3, 55296, Note_on_c, 1, 46, 67
3, 55484, Note_off_c, 1, 53, 64
3, 55484, Note_off_c, 1, 46, 64
3, 55488, Note_on_c, 1, 62, 67
3, 55488, Note_on_c, 1, 58, 67
3, 55488, Note_on_c, 1, 53, 67
3, 55580, Note_off_c, 1, 62, 64
3, 55580, Note_off_c, 1, 58, 64
3, 55580, Note_off_c, 1, 53, 64
3, 55680, Note_on_c, 1, 62, 67
3, 55680, Note_on_c, 1, 58, 67
3, 55680, Note_on_c, 1, 53, 67
3, 55772, Note_off_c, 1, 62, 64
3, 55772, Note_off_c, 1, 58, 64
3, 55772, Note_off_c, 1, 53, 64
3, 55872, Note_on_c, 1, 62, 67
3, 55872, Note_on_c, 1, 58, 67
3, 55872, Note_on_c, 1, 53, 67
3, 55964, Note_off_c, 1, 62, 64
3, 55964, Note_off_c, 1, 58, 64
3, 55964, Note_off_c, 1, 53, 64
3, 56064, Note_on_c, 1, 41, 69
3, 56252, Note_off_c, 1, 41, 64
3, 56256, Note_on_c, 1, 63, 67
3, 56256, Note_on_c, 1, 57, 67
3, 56256, Note_on_c, 1, 53, 67
3, 56348, Note_off_c, 1, 63, 64
3, 56348, Note_off_c, 1, 57, 64
3, 56348, Note_off_c, 1, 53, 64
3, 56448, Note_on_c, 1, 57, 67
3, 56448, Note_on_c, 1, 53, 67
3, 56448, Note_on_c, 1, 63, 67
3, 56540, Note_off_c, 1, 57, 64
3, 56540, Note_off_c, 1, 53, 64
3, 56540, Note_off_c, 1, 63, 64
3, 56640, Note_on_c, 1, 63, 67
3, 56640, Note_on_c, 1, 57, 67
3, 56640, Note_on_c, 1, 53, 67
3, 56732, Note_off_c, 1, 63, 64
3, 56732, Note_off_c, 1, 57, 64
3, 56732, Note_off_c, 1, 53, 64
3, 56832, Note_on_c, 1, 46, 67
3, 57020, Note_off_c, 1, 46, 64
3, 57024, Note_on_c, 1, 62, 67
3, 57024, Note_on_c, 1, 58, 67
3, 57024, Note_on_c, 1, 53, 67
3, 57116, Note_off_c, 1, 62, 64
3, 57116, Note_off_c, 1, 58, 64
3, 57116, Note_off_c, 1, 53, 64
3, 57216, Note_on_c, 1, 62, 67
3, 57216, Note_on_c, 1, 58, 67
3, 57216, Note_on_c, 1, 53, 67
3, 57308, Note_off_c, 1, 62, 64
3, 57308, Note_off_c, 1, 58, 64
3, 57308, Note_off_c, 1, 53, 64
3, 57408, Note_on_c, 1, 62, 67
3, 57408, Note_on_c, 1, 58, 67
3, 57408, Note_on_c, 1, 53, 67
3, 57500, Note_off_c, 1, 62, 64
3, 57500, Note_off_c, 1, 58, 64
3, 57500, Note_off_c, 1, 53, 64
3, 57600, Note_on_c, 1, 41, 69
3, 57788, Note_off_c, 1, 41, 64
3, 57792, Note_on_c, 1, 63, 67
3, 57792, Note_on_c, 1, 57, 67
3, 57792, Note_on_c, 1, 53, 67
3, 57884, Note_off_c, 1, 63, 64
3, 57884, Note_off_c, 1, 57, 64
3, 57884, Note_off_c, 1, 53, 64
3, 57984, Note_on_c, 1, 63, 67
3, 57984, Note_on_c, 1, 57, 67
3, 57984, Note_on_c, 1, 53, 67
3, 58076, Note_off_c, 1, 63, 64
3, 58076, Note_off_c, 1, 57, 64
3, 58076, Note_off_c, 1, 53, 64
3, 58176, Note_on_c, 1, 63, 67
3, 58176, Note_on_c, 1, 57, 67
3, 58176, Note_on_c, 1, 53, 67
3, 58268, Note_off_c, 1, 63, 64
3, 58268, Note_off_c, 1, 57, 64
3, 58268, Note_off_c, 1, 53, 64
3, 58368, Note_on_c, 1, 46, 67
3, 58556, Note_off_c, 1, 46, 64
3, 58560, Note_on_c, 1, 62, 67
3, 58560, Note_on_c, 1, 58, 67
3, 58560, Note_on_c, 1, 53, 67
3, 58652, Note_off_c, 1, 62, 64
3, 58652, Note_off_c, 1, 58, 64
3, 58652, Note_off_c, 1, 53, 64
3, 58752, Note_on_c, 1, 62, 67
3, 58752, Note_on_c, 1, 53, 67
3, 58752, Note_on_c, 1, 58, 67
3, 58844, Note_off_c, 1, 62, 64
3, 58844, Note_off_c, 1, 53, 64
3, 58844, Note_off_c, 1, 58, 64
3, 58944, Note_on_c, 1, 62, 67
3, 58944, Note_on_c, 1, 58, 67
3, 58944, Note_on_c, 1, 53, 67
3, 59036, Note_off_c, 1, 62, 64
3, 59036, Note_off_c, 1, 58, 64
3, 59036, Note_off_c, 1, 53, 64
3, 59136, Note_on_c, 1, 41, 69
3, 59324, Note_off_c, 1, 41, 64
3, 59328, Note_on_c, 1, 60, 67
3, 59328, Note_on_c, 1, 53, 67
3, 59328, Note_on_c, 1, 51, 67
3, 59420, Note_off_c, 1, 60, 64
3, 59420, Note_off_c, 1, 53, 64
3, 59420, Note_off_c, 1, 51, 64
3, 59520, Note_on_c, 1, 60, 67
3, 59520, Note_on_c, 1, 53, 67
3, 59520, Note_on_c, 1, 51, 67
3, 59612, Note_off_c, 1, 60, 64
3, 59612, Note_off_c, 1, 53, 64
3, 59612, Note_off_c, 1, 51, 64
3, 59712, Note_on_c, 1, 60, 67
3, 59712, Note_on_c, 1, 53, 67
3, 59712, Note_on_c, 1, 51, 67
3, 59804, Note_off_c, 1, 60, 64
3, 59804, Note_off_c, 1, 53, 64
3, 59804, Note_off_c, 1, 51, 64
3, 59904, Note_on_c, 1, 57, 67
3, 59904, Note_on_c, 1, 53, 67
3, 59904, Note_on_c, 1, 51, 67
3, 59904, Note_on_c, 1, 46, 67
3, 60092, Note_off_c, 1, 46, 64
3, 60288, Note_on_c, 1, 41, 69
3, 60476, Note_off_c, 1, 41, 64
3, 60576, Note_on_c, 1, 34, 82
3, 60668, Note_off_c, 1, 57, 64
3, 60668, Note_off_c, 1, 53, 64
3, 60668, Note_off_c, 1, 51, 64
3, 60668, Note_off_c, 1, 34, 64
3, 60672, Note_on_c, 1, 58, 67
3, 60672, Note_on_c, 1, 53, 67
3, 60672, Note_on_c, 1, 50, 67
3, 61052, Note_off_c, 1, 58, 64
3, 61052, Note_off_c, 1, 53, 64
3, 61052, Note_off_c, 1, 50, 64
3, 61504, Note_on_c, 1, 58, 78
3, 61504, Note_on_c, 1, 46, 78
3, 61884, Note_off_c, 1, 58, 64
3, 61884, Note_off_c, 1, 46, 64
3, 62976, Note_on_c, 1, 58, 78
3, 62976, Note_on_c, 1, 46, 78
3, 63356, Note_off_c, 1, 58, 64
3, 63356, Note_off_c, 1, 46, 64
3, 64512, Note_on_c, 1, 58, 78
3, 64512, Note_on_c, 1, 46, 78
3, 64892, Note_off_c, 1, 58, 64
3, 64892, Note_off_c, 1, 46, 64
3, 66048, Note_on_c, 1, 58, 78
3, 66048, Note_on_c, 1, 46, 78
3, 66428, Note_off_c, 1, 58, 64
3, 66428, Note_off_c, 1, 46, 64
3, 67584, Note_on_c, 1, 58, 78
3, 67584, Note_on_c, 1, 46, 78
3, 67964, Note_off_c, 1, 58, 64
3, 67964, Note_off_c, 1, 46, 64
3, 69120, Note_on_c, 1, 58, 78
3, 69120, Note_on_c, 1, 46, 78
3, 69500, Note_off_c, 1, 58, 64
3, 69500, Note_off_c, 1, 46, 64
3, 70656, Note_on_c, 1, 53, 78
3, 70656, Note_on_c, 1, 41, 79
3, 71036, Note_off_c, 1, 53, 64
3, 71036, Note_off_c, 1, 41, 64
3, 72192, Note_on_c, 1, 58, 78
3, 72192, Note_on_c, 1, 46, 78
3, 72572, Note_off_c, 1, 58, 64
3, 72572, Note_off_c, 1, 46, 64
3, 73728, Note_on_c, 1, 58, 78
3, 73728, Note_on_c, 1, 46, 78
3, 74108, Note_off_c, 1, 58, 64
3, 74108, Note_off_c, 1, 46, 64
3, 75264, Note_on_c, 1, 58, 78
3, 75264, Note_on_c, 1, 46, 78
3, 75644, Note_off_c, 1, 58, 64
3, 75644, Note_off_c, 1, 46, 64
3, 76800, Note_on_c, 1, 53, 78
3, 76800, Note_on_c, 1, 41, 81
3, 77180, Note_off_c, 1, 53, 64
3, 77180, Note_off_c, 1, 41, 64
3, 78336, Note_on_c, 1, 46, 78
3, 78336, Note_on_c, 1, 58, 78
3, 78716, Note_off_c, 1, 46, 64
3, 78716, Note_off_c, 1, 58, 64
3, 79104, Note_on_c, 1, 50, 78
3, 79484, Note_off_c, 1, 50, 64
3, 79872, Note_on_c, 1, 55, 78
3, 79872, Note_on_c, 1, 43, 78
3, 80252, Note_off_c, 1, 55, 64
3, 80252, Note_off_c, 1, 43, 64
3, 81408, Note_on_c, 1, 55, 78
3, 81408, Note_on_c, 1, 43, 78
3, 81788, Note_off_c, 1, 55, 64
3, 81788, Note_off_c, 1, 43, 64
3, 82560, Note_on_c, 1, 48, 78
3, 82560, Note_on_c, 1, 36, 82
3, 82940, Note_off_c, 1, 48, 64
3, 82940, Note_off_c, 1, 36, 64
3, 83008, Note_on_c, 1, 53, 78
3, 83008, Note_on_c, 1, 41, 79
3, 83388, Note_off_c, 1, 53, 64
3, 83388, Note_off_c, 1, 41, 64
3, 84480, Note_on_c, 1, 53, 78
3, 84480, Note_on_c, 1, 41, 79
3, 84860, Note_off_c, 1, 53, 64
3, 84860, Note_off_c, 1, 41, 64
3, 86080, Note_on_c, 1, 53, 78
3, 86392, Note_off_c, 1, 53, 64
3, 86848, Note_on_c, 1, 55, 78
3, 87160, Note_off_c, 1, 55, 64
3, 87616, Note_on_c, 1, 56, 78
3, 87928, Note_off_c, 1, 56, 64
3, 89088, Note_on_c, 1, 60, 78
3, 89468, Note_off_c, 1, 60, 64
3, 89856, Note_on_c, 1, 48, 78
3, 90236, Note_off_c, 1, 48, 64
3, 90624, Note_on_c, 1, 48, 78
3, 91004, Note_off_c, 1, 48, 64
3, 91392, Note_on_c, 1, 48, 78
3, 91772, Note_off_c, 1, 48, 64
3, 92160, Note_on_c, 1, 53, 78
3, 92540, Note_off_c, 1, 53, 64
3, 92928, Note_on_c, 1, 53, 78
3, 93308, Note_off_c, 1, 53, 64
3, 93696, Note_on_c, 1, 53, 78
3, 94076, Note_off_c, 1, 53, 64
3, 94464, Note_on_c, 1, 46, 78
3, 94844, Note_off_c, 1, 46, 64
3, 95232, Note_on_c, 1, 48, 78
3, 95612, Note_off_c, 1, 48, 64
3, 96000, Note_on_c, 1, 48, 78
3, 96380, Note_off_c, 1, 48, 64
3, 96768, Note_on_c, 1, 53, 78
3, 97148, Note_off_c, 1, 53, 64
3, 97536, Note_on_c, 1, 48, 78
3, 97916, Note_off_c, 1, 48, 64
3, 98304, Note_on_c, 1, 53, 78
3, 98684, Note_off_c, 1, 53, 64
3, 99072, Note_on_c, 1, 48, 78
3, 99452, Note_off_c, 1, 48, 64
3, 99840, Note_on_c, 1, 53, 78
3, 100220, Note_off_c, 1, 53, 64
3, 100608, Note_on_c, 1, 48, 78
3, 100988, Note_off_c, 1, 48, 64
3, 101376, Note_on_c, 1, 53, 78
3, 102908, Note_off_c, 1, 53, 64
3, 102912, Note_on_c, 1, 41, 79
3, 103292, Note_off_c, 1, 41, 64
3, 104448, Note_on_c, 1, 58, 78
3, 104448, Note_on_c, 1, 62, 78
3, 104828, Note_off_c, 1, 58, 64
3, 104832, Note_on_c, 1, 58, 78
3, 105212, Note_off_c, 1, 62, 64
3, 105212, Note_off_c, 1, 58, 64
3, 105216, Note_on_c, 1, 61, 78
3, 105216, Note_on_c, 1, 58, 78
3, 105404, Note_off_c, 1, 61, 64
3, 105408, Note_on_c, 1, 62, 78
3, 105596, Note_off_c, 1, 58, 64
3, 105596, Note_off_c, 1, 62, 64
3, 105600, Note_on_c, 1, 61, 78
3, 105600, Note_on_c, 1, 58, 78
3, 105788, Note_off_c, 1, 61, 64
3, 105792, Note_on_c, 1, 62, 78
3, 105980, Note_off_c, 1, 58, 64
3, 105980, Note_off_c, 1, 62, 64
3, 105984, Note_on_c, 1, 63, 78
3, 105984, Note_on_c, 1, 58, 78
3, 106172, Note_off_c, 1, 63, 64
3, 106176, Note_on_c, 1, 62, 78
3, 106364, Note_off_c, 1, 58, 64
3, 106364, Note_off_c, 1, 62, 64
3, 106368, Note_on_c, 1, 60, 78
3, 106556, Note_off_c, 1, 60, 64
3, 106560, Note_on_c, 1, 58, 78
3, 106748, Note_off_c, 1, 58, 64
3, 106752, Note_on_c, 1, 58, 78
3, 107132, Note_off_c, 1, 58, 64
3, 107520, Note_on_c, 1, 50, 78
3, 107520, Note_on_c, 1, 46, 78
3, 107708, Note_off_c, 1, 50, 64
3, 107712, Note_on_c, 1, 53, 78
3, 107900, Note_off_c, 1, 53, 64
3, 107904, Note_on_c, 1, 50, 78
3, 108092, Note_off_c, 1, 50, 64
3, 108096, Note_on_c, 1, 53, 78
3, 108284, Note_off_c, 1, 46, 64
3, 108284, Note_off_c, 1, 53, 64
3, 108288, Note_on_c, 1, 51, 78
3, 108288, Note_on_c, 1, 48, 78
3, 108288, Note_on_c, 1, 45, 78
3, 108476, Note_off_c, 1, 51, 64
3, 108480, Note_on_c, 1, 53, 78
3, 108668, Note_off_c, 1, 53, 64
3, 108672, Note_on_c, 1, 51, 78
3, 108860, Note_off_c, 1, 51, 64
3, 108864, Note_on_c, 1, 53, 78
3, 109052, Note_off_c, 1, 48, 64
3, 109052, Note_off_c, 1, 45, 64
3, 109052, Note_off_c, 1, 53, 64
3, 109056, Note_on_c, 1, 50, 78
3, 109056, Note_on_c, 1, 46, 78
3, 109244, Note_off_c, 1, 50, 64
3, 109248, Note_on_c, 1, 53, 78
3, 109436, Note_off_c, 1, 53, 64
3, 109440, Note_on_c, 1, 50, 78
3, 109628, Note_off_c, 1, 50, 64
3, 109632, Note_on_c, 1, 53, 78
3, 109820, Note_off_c, 1, 46, 64
3, 109820, Note_off_c, 1, 53, 64
3, 109824, Note_on_c, 1, 41, 79
3, 110204, Note_off_c, 1, 41, 64
3, 110592, Note_on_c, 1, 62, 78
3, 110592, Note_on_c, 1, 58, 78
3, 110972, Note_off_c, 1, 58, 64
3, 110976, Note_on_c, 1, 58, 78
3, 111356, Note_off_c, 1, 62, 64
3, 111356, Note_off_c, 1, 58, 64
3, 111360, Note_on_c, 1, 58, 78
3, 111360, Note_on_c, 1, 61, 78
3, 111548, Note_off_c, 1, 61, 64
3, 111552, Note_on_c, 1, 62, 78
3, 111740, Note_off_c, 1, 58, 64
3, 111740, Note_off_c, 1, 62, 64
3, 111744, Note_on_c, 1, 58, 78
3, 111744, Note_on_c, 1, 61, 78
3, 111932, Note_off_c, 1, 61, 64
3, 111936, Note_on_c, 1, 62, 78
3, 112124, Note_off_c, 1, 58, 64
3, 112124, Note_off_c, 1, 62, 64
3, 112128, Note_on_c, 1, 63, 78
3, 112128, Note_on_c, 1, 58, 78
3, 112316, Note_off_c, 1, 63, 64
3, 112320, Note_on_c, 1, 62, 78
3, 112508, Note_off_c, 1, 58, 64
3, 112508, Note_off_c, 1, 62, 64
3, 112512, Note_on_c, 1, 60, 78
3, 112700, Note_off_c, 1, 60, 64
3, 112704, Note_on_c, 1, 58, 78
3, 112892, Note_off_c, 1, 58, 64
3, 112896, Note_on_c, 1, 58, 78
3, 113276, Note_off_c, 1, 58, 64
3, 113664, Note_on_c, 1, 50, 78
3, 113664, Note_on_c, 1, 46, 78
3, 113664, Note_on_c, 1, 41, 79
3, 113852, Note_off_c, 1, 50, 64
3, 113856, Note_on_c, 1, 53, 78
3, 114044, Note_off_c, 1, 53, 64
3, 114048, Note_on_c, 1, 50, 78
3, 114236, Note_off_c, 1, 50, 64
3, 114240, Note_on_c, 1, 53, 78
3, 114428, Note_off_c, 1, 46, 64
3, 114428, Note_off_c, 1, 41, 64
3, 114428, Note_off_c, 1, 53, 64
3, 114432, Note_on_c, 1, 45, 78
3, 114432, Note_on_c, 1, 41, 81
3, 114432, Note_on_c, 1, 48, 78
3, 114620, Note_off_c, 1, 48, 64
3, 114624, Note_on_c, 1, 53, 78
3, 114812, Note_off_c, 1, 53, 64
3, 114816, Note_on_c, 1, 48, 78
3, 115004, Note_off_c, 1, 48, 64
3, 115008, Note_on_c, 1, 53, 78
3, 115196, Note_off_c, 1, 45, 64
3, 115196, Note_off_c, 1, 41, 64
3, 115196, Note_off_c, 1, 53, 64
3, 115200, Note_on_c, 1, 46, 78
3, 115580, Note_off_c, 1, 46, 64
3, 115584, Note_on_c, 1, 41, 79
3, 115964, Note_off_c, 1, 41, 64
3, 115968, Note_on_c, 1, 34, 82
3, 116348, Note_off_c, 1, 34, 64
3, 117120, Note_on_c, 1, 58, 88
3, 117120, Note_on_c, 1, 46, 88
3, 117500, Note_off_c, 1, 58, 64
3, 117500, Note_off_c, 1, 46, 64
3, 117504, Note_on_c, 1, 58, 88
3, 117504, Note_on_c, 1, 61, 88
3, 117692, Note_off_c, 1, 61, 64
3, 117696, Note_on_c, 1, 62, 88
3, 117884, Note_off_c, 1, 58, 64
3, 117884, Note_off_c, 1, 62, 64
3, 117888, Note_on_c, 1, 58, 88
3, 117888, Note_on_c, 1, 61, 88
3, 118076, Note_off_c, 1, 61, 64
3, 118080, Note_on_c, 1, 62, 88
3, 118268, Note_off_c, 1, 58, 64
3, 118268, Note_off_c, 1, 62, 64
3, 118272, Note_on_c, 1, 63, 88
3, 118272, Note_on_c, 1, 58, 88
3, 118460, Note_off_c, 1, 63, 64
3, 118464, Note_on_c, 1, 62, 88
3, 118652, Note_off_c, 1, 62, 64
3, 118656, Note_on_c, 1, 60, 88
3, 118844, Note_off_c, 1, 60, 64
3, 118848, Note_on_c, 1, 58, 88
3, 119036, Note_off_c, 1, 58, 64
3, 119036, Note_off_c, 1, 58, 64
3, 119040, Note_on_c, 1, 46, 88
3, 119040, Note_on_c, 1, 34, 93
3, 119420, Note_off_c, 1, 46, 64
3, 119420, Note_off_c, 1, 34, 64
3, 119808, Note_on_c, 1, 58, 67
3, 119808, Note_on_c, 1, 46, 67
3, 119996, Note_off_c, 1, 58, 64
3, 119996, Note_off_c, 1, 46, 64
3, 120000, Note_on_c, 1, 58, 67
3, 120000, Note_on_c, 1, 53, 67
3, 120092, Note_off_c, 1, 58, 64
3, 120092, Note_off_c, 1, 53, 64
3, 120192, Note_on_c, 1, 62, 67
3, 120192, Note_on_c, 1, 58, 67
3, 120284, Note_off_c, 1, 62, 64
3, 120284, Note_off_c, 1, 58, 64
3, 120384, Note_on_c, 1, 58, 67
3, 120384, Note_on_c, 1, 53, 67
3, 120476, Note_off_c, 1, 58, 64
3, 120476, Note_off_c, 1, 53, 64
3, 120576, Note_on_c, 1, 60, 67
3, 120576, Note_on_c, 1, 45, 67
3, 120668, Note_off_c, 1, 60, 64
3, 120668, Note_off_c, 1, 45, 64
3, 120768, Note_on_c, 1, 60, 67
3, 120768, Note_on_c, 1, 53, 67
3, 120860, Note_off_c, 1, 60, 64
3, 120860, Note_off_c, 1, 53, 64
3, 120960, Note_on_c, 1, 63, 67
3, 120960, Note_on_c, 1, 60, 67
3, 121052, Note_off_c, 1, 63, 64
3, 121052, Note_off_c, 1, 60, 64
3, 121152, Note_on_c, 1, 53, 67
3, 121152, Note_on_c, 1, 60, 67
3, 121244, Note_off_c, 1, 53, 64
3, 121244, Note_off_c, 1, 60, 64
3, 121344, Note_on_c, 1, 58, 67
3, 121344, Note_on_c, 1, 46, 67
3, 121532, Note_off_c, 1, 58, 64
3, 121532, Note_off_c, 1, 46, 64
3, 121536, Note_on_c, 1, 58, 67
3, 121536, Note_on_c, 1, 53, 67
3, 121724, Note_off_c, 1, 58, 64
3, 121724, Note_off_c, 1, 53, 64
3, 121728, Note_on_c, 1, 58, 67
3, 121728, Note_on_c, 1, 62, 67
3, 121916, Note_off_c, 1, 58, 64
3, 121916, Note_off_c, 1, 62, 64
3, 121920, Note_on_c, 1, 58, 67
3, 121920, Note_on_c, 1, 53, 67
3, 122108, Note_off_c, 1, 58, 64
3, 122108, Note_off_c, 1, 53, 64
3, 122112, Note_on_c, 1, 53, 69
3, 122112, Note_on_c, 1, 41, 72
3, 122300, Note_off_c, 1, 53, 64
3, 122300, Note_off_c, 1, 41, 64
3, 122880, Note_on_c, 1, 53, 88
3, 122880, Note_on_c, 1, 50, 88
3, 122880, Note_on_c, 1, 46, 88
3, 123260, Note_off_c, 1, 53, 64
3, 123260, Note_off_c, 1, 50, 64
3, 123260, Note_off_c, 1, 46, 64
3, 123264, Note_on_c, 1, 46, 88
3, 123264, Note_on_c, 1, 34, 93
3, 123644, Note_off_c, 1, 46, 64
3, 123644, Note_off_c, 1, 34, 64
3, 123648, Note_on_c, 1, 52, 88
3, 123648, Note_on_c, 1, 49, 88
3, 123648, Note_on_c, 1, 46, 88
3, 123836, Note_off_c, 1, 52, 64
3, 123836, Note_off_c, 1, 49, 64
3, 123840, Note_on_c, 1, 53, 88
3, 123840, Note_on_c, 1, 50, 88
3, 124028, Note_off_c, 1, 46, 64
3, 124028, Note_off_c, 1, 53, 64
3, 124028, Note_off_c, 1, 50, 64
3, 124032, Note_on_c, 1, 52, 88
3, 124032, Note_on_c, 1, 49, 88
3, 124032, Note_on_c, 1, 46, 88
3, 124220, Note_off_c, 1, 52, 64
3, 124220, Note_off_c, 1, 49, 64
3, 124224, Note_on_c, 1, 53, 88
3, 124224, Note_on_c, 1, 50, 88
3, 124412, Note_off_c, 1, 46, 64
3, 124412, Note_off_c, 1, 53, 64
3, 124412, Note_off_c, 1, 50, 64
3, 124416, Note_on_c, 1, 55, 88
3, 124416, Note_on_c, 1, 51, 88
3, 124416, Note_on_c, 1, 46, 88
3, 124604, Note_off_c, 1, 55, 64
3, 124604, Note_off_c, 1, 51, 64
3, 124608, Note_on_c, 1, 53, 88
3, 124608, Note_on_c, 1, 50, 88
3, 124796, Note_off_c, 1, 53, 64
3, 124796, Note_off_c, 1, 50, 64
3, 124800, Note_on_c, 1, 51, 88
3, 124800, Note_on_c, 1, 48, 88
3, 124988, Note_off_c, 1, 51, 64
3, 124988, Note_off_c, 1, 48, 64
3, 124992, Note_on_c, 1, 50, 88
3, 124992, Note_on_c, 1, 46, 88
3, 125180, Note_off_c, 1, 46, 64
3, 125180, Note_off_c, 1, 50, 64
3, 125180, Note_off_c, 1, 46, 64
3, 125184, Note_on_c, 1, 46, 88
3, 125184, Note_on_c, 1, 34, 93
3, 125564, Note_off_c, 1, 46, 64
3, 125564, Note_off_c, 1, 34, 64
3, 125952, Note_on_c, 1, 53, 67
3, 125952, Note_on_c, 1, 50, 67
3, 125952, Note_on_c, 1, 41, 69
3, 126044, Note_off_c, 1, 53, 64
3, 126044, Note_off_c, 1, 50, 64
3, 126044, Note_off_c, 1, 41, 64
3, 126144, Note_on_c, 1, 58, 67
3, 126144, Note_on_c, 1, 50, 67
3, 126236, Note_off_c, 1, 58, 64
3, 126236, Note_off_c, 1, 50, 64
3, 126336, Note_on_c, 1, 62, 67
3, 126336, Note_on_c, 1, 53, 67
3, 126428, Note_off_c, 1, 62, 64
3, 126428, Note_off_c, 1, 53, 64
3, 126528, Note_on_c, 1, 58, 67
3, 126528, Note_on_c, 1, 50, 67
3, 126620, Note_off_c, 1, 58, 64
3, 126620, Note_off_c, 1, 50, 64
3, 126720, Note_on_c, 1, 51, 67
3, 126720, Note_on_c, 1, 48, 67
3, 126720, Note_on_c, 1, 41, 69
3, 126812, Note_off_c, 1, 51, 64
3, 126812, Note_off_c, 1, 48, 64
3, 126812, Note_off_c, 1, 41, 64
3, 126912, Note_on_c, 1, 57, 67
3, 126912, Note_on_c, 1, 48, 67
3, 127004, Note_off_c, 1, 57, 64
3, 127004, Note_off_c, 1, 48, 64
3, 127104, Note_on_c, 1, 60, 67
3, 127104, Note_on_c, 1, 51, 67
3, 127196, Note_off_c, 1, 60, 64
3, 127196, Note_off_c, 1, 51, 64
3, 127296, Note_on_c, 1, 57, 67
3, 127296, Note_on_c, 1, 48, 67
3, 127388, Note_off_c, 1, 57, 64
3, 127388, Note_off_c, 1, 48, 64
3, 127488, Note_on_c, 1, 46, 67
3, 127488, Note_on_c, 1, 34, 72
3, 127676, Note_off_c, 1, 46, 64
3, 127676, Note_off_c, 1, 34, 64
3, 127872, Note_on_c, 1, 41, 69
3, 127872, Note_on_c, 1, 29, 73
3, 128060, Note_off_c, 1, 41, 64
3, 128060, Note_off_c, 1, 29, 64
3, 128256, Note_on_c, 1, 46, 67
3, 128256, Note_on_c, 1, 34, 72
3, 128444, Note_off_c, 1, 46, 64
3, 128444, Note_off_c, 1, 34, 64
3, 129216, Note_on_c, 1, 55, 80
3, 129404, Note_off_c, 1, 55, 64
3, 129408, Note_on_c, 1, 58, 80
3, 129596, Note_off_c, 1, 58, 64
3, 129600, Note_on_c, 1, 62, 80
3, 129788, Note_off_c, 1, 62, 64
3, 129792, Note_on_c, 1, 67, 80
3, 129980, Note_off_c, 1, 67, 64
3, 129984, Note_on_c, 1, 67, 80
3, 130172, Note_off_c, 1, 67, 64
3, 130176, Note_on_c, 1, 66, 80
3, 130364, Note_off_c, 1, 66, 64
3, 130368, Note_on_c, 1, 67, 80
3, 130556, Note_off_c, 1, 67, 64
3, 130560, Note_on_c, 1, 62, 80
3, 130748, Note_off_c, 1, 62, 64
3, 130752, Note_on_c, 1, 62, 80
3, 130752, Note_on_c, 1, 50, 80
3, 130940, Note_off_c, 1, 62, 64
3, 130940, Note_off_c, 1, 50, 64
3, 130944, Note_on_c, 1, 63, 80
3, 130944, Note_on_c, 1, 51, 80
3, 131132, Note_off_c, 1, 63, 64
3, 131132, Note_off_c, 1, 51, 64
3, 131136, Note_on_c, 1, 62, 80
3, 131136, Note_on_c, 1, 50, 80
3, 131324, Note_off_c, 1, 62, 64
3, 131324, Note_off_c, 1, 50, 64
3, 131328, Note_on_c, 1, 60, 80
3, 131328, Note_on_c, 1, 48, 80
3, 131516, Note_off_c, 1, 60, 64
3, 131516, Note_off_c, 1, 48, 64
3, 131520, Note_on_c, 1, 58, 80
3, 131520, Note_on_c, 1, 46, 80
3, 131708, Note_off_c, 1, 58, 64
3, 131708, Note_off_c, 1, 46, 64
3, 131712, Note_on_c, 1, 57, 80
3, 131712, Note_on_c, 1, 45, 80
3, 131900, Note_off_c, 1, 57, 64
3, 131900, Note_off_c, 1, 45, 64
3, 131904, Note_on_c, 1, 55, 80
3, 131904, Note_on_c, 1, 43, 80
3, 132092, Note_off_c, 1, 55, 64
3, 132092, Note_off_c, 1, 43, 64
3, 132096, Note_on_c, 1, 54, 80
3, 132096, Note_on_c, 1, 42, 80
3, 132284, Note_off_c, 1, 54, 64
3, 132284, Note_off_c, 1, 42, 64
3, 133824, Note_on_c, 1, 55, 80
3, 134012, Note_off_c, 1, 55, 64
3, 134016, Note_on_c, 1, 58, 80
3, 134204, Note_off_c, 1, 58, 64
3, 134208, Note_on_c, 1, 55, 80
3, 134396, Note_off_c, 1, 55, 64
3, 134400, Note_on_c, 1, 50, 80
3, 134588, Note_off_c, 1, 50, 64
3, 134592, Note_on_c, 1, 55, 80
3, 134780, Note_off_c, 1, 55, 64
3, 134784, Note_on_c, 1, 46, 80
3, 134972, Note_off_c, 1, 46, 64
3, 134976, Note_on_c, 1, 50, 80
3, 135164, Note_off_c, 1, 50, 64
3, 135168, Note_on_c, 1, 43, 80
3, 135356, Note_off_c, 1, 43, 64
3, 136128, Note_on_c, 1, 55, 80
3, 136128, Note_on_c, 1, 43, 80
3, 136316, Note_off_c, 1, 55, 64
3, 136316, Note_off_c, 1, 43, 64
3, 136320, Note_on_c, 1, 58, 80
3, 136320, Note_on_c, 1, 46, 80
3, 136508, Note_off_c, 1, 58, 64
3, 136508, Note_off_c, 1, 46, 64
3, 136512, Note_on_c, 1, 63, 80
3, 136512, Note_on_c, 1, 51, 80
3, 136700, Note_off_c, 1, 63, 64
3, 136700, Note_off_c, 1, 51, 64
3, 136704, Note_on_c, 1, 54, 80
3, 136704, Note_on_c, 1, 42, 80
3, 136892, Note_off_c, 1, 54, 64
3, 136892, Note_off_c, 1, 42, 64
3, 137664, Note_on_c, 1, 53, 80
3, 137664, Note_on_c, 1, 41, 81
3, 137852, Note_off_c, 1, 53, 64
3, 137852, Note_off_c, 1, 41, 64
3, 137856, Note_on_c, 1, 57, 80
3, 137856, Note_on_c, 1, 45, 80
3, 138044, Note_off_c, 1, 57, 64
3, 138044, Note_off_c, 1, 45, 64
3, 138048, Note_on_c, 1, 62, 80
3, 138048, Note_on_c, 1, 50, 80
3, 138236, Note_off_c, 1, 62, 64
3, 138236, Note_off_c, 1, 50, 64
3, 138240, Note_on_c, 1, 52, 80
3, 138240, Note_on_c, 1, 40, 84
3, 138428, Note_off_c, 1, 52, 64
3, 138428, Note_off_c, 1, 40, 64
3, 139200, Note_on_c, 1, 51, 80
3, 139200, Note_on_c, 1, 39, 84
3, 139388, Note_off_c, 1, 51, 64
3, 139388, Note_off_c, 1, 39, 64
3, 139392, Note_on_c, 1, 55, 80
3, 139392, Note_on_c, 1, 43, 80
3, 139580, Note_off_c, 1, 55, 64
3, 139580, Note_off_c, 1, 43, 64
3, 139584, Note_on_c, 1, 51, 80
3, 139584, Note_on_c, 1, 39, 84
3, 139772, Note_off_c, 1, 51, 64
3, 139772, Note_off_c, 1, 39, 64
3, 139776, Note_on_c, 1, 50, 80
3, 139776, Note_on_c, 1, 38, 84
3, 139964, Note_off_c, 1, 50, 64
3, 139964, Note_off_c, 1, 38, 64
3, 139968, Note_on_c, 1, 50, 80
3, 140156, Note_off_c, 1, 50, 64
3, 140160, Note_on_c, 1, 54, 80
3, 140348, Note_off_c, 1, 54, 64
3, 140352, Note_on_c, 1, 57, 80
3, 140540, Note_off_c, 1, 57, 64
3, 140544, Note_on_c, 1, 62, 80
3, 140732, Note_off_c, 1, 62, 64
3, 140736, Note_on_c, 1, 66, 80
3, 140924, Note_off_c, 1, 66, 64
3, 140928, Note_on_c, 1, 69, 81
3, 141116, Note_off_c, 1, 69, 64
3, 141120, Note_on_c, 1, 74, 81
3, 141308, Note_off_c, 1, 74, 64
3, 141504, Note_on_c, 1, 55, 80
3, 141692, Note_off_c, 1, 55, 64
3, 141696, Note_on_c, 1, 58, 80
3, 141884, Note_off_c, 1, 58, 64
3, 141888, Note_on_c, 1, 62, 80
3, 142076, Note_off_c, 1, 62, 64
3, 142080, Note_on_c, 1, 67, 81
3, 142268, Note_off_c, 1, 67, 64
3, 142272, Note_on_c, 1, 67, 81
3, 142460, Note_off_c, 1, 67, 64
3, 142464, Note_on_c, 1, 66, 80
3, 142652, Note_off_c, 1, 66, 64
3, 142656, Note_on_c, 1, 67, 81
3, 142844, Note_off_c, 1, 67, 64
3, 142848, Note_on_c, 1, 62, 80
3, 143036, Note_off_c, 1, 62, 64
3, 143040, Note_on_c, 1, 62, 80
3, 143040, Note_on_c, 1, 50, 80
3, 143228, Note_off_c, 1, 62, 64
3, 143228, Note_off_c, 1, 50, 64
3, 143232, Note_on_c, 1, 63, 80
3, 143232, Note_on_c, 1, 51, 80
3, 143420, Note_off_c, 1, 63, 64
3, 143420, Note_off_c, 1, 51, 64
3, 143424, Note_on_c, 1, 62, 80
3, 143424, Note_on_c, 1, 50, 80
3, 143612, Note_off_c, 1, 62, 64
3, 143612, Note_off_c, 1, 50, 64
3, 143616, Note_on_c, 1, 60, 80
3, 143616, Note_on_c, 1, 48, 80
3, 143804, Note_off_c, 1, 60, 64
3, 143804, Note_off_c, 1, 48, 64
3, 143808, Note_on_c, 1, 58, 80
3, 143808, Note_on_c, 1, 46, 80
3, 143996, Note_off_c, 1, 58, 64
3, 143996, Note_off_c, 1, 46, 64
3, 144000, Note_on_c, 1, 57, 80
3, 144000, Note_on_c, 1, 45, 80
3, 144188, Note_off_c, 1, 57, 64
3, 144188, Note_off_c, 1, 45, 64
3, 144192, Note_on_c, 1, 55, 80
3, 144192, Note_on_c, 1, 43, 80
3, 144380, Note_off_c, 1, 55, 64
3, 144380, Note_off_c, 1, 43, 64
3, 144384, Note_on_c, 1, 54, 80
3, 144384, Note_on_c, 1, 42, 80
3, 144572, Note_off_c, 1, 54, 64
3, 144572, Note_off_c, 1, 42, 64
3, 146112, Note_on_c, 1, 55, 80
3, 146300, Note_off_c, 1, 55, 64
3, 146304, Note_on_c, 1, 58, 80
3, 146492, Note_off_c, 1, 58, 64
3, 146496, Note_on_c, 1, 55, 80
3, 146684, Note_off_c, 1, 55, 64
3, 146688, Note_on_c, 1, 50, 80
3, 146876, Note_off_c, 1, 50, 64
3, 146880, Note_on_c, 1, 55, 80
3, 147068, Note_off_c, 1, 55, 64
3, 147072, Note_on_c, 1, 46, 80
3, 147260, Note_off_c, 1, 46, 64
3, 147264, Note_on_c, 1, 50, 80
3, 147452, Note_off_c, 1, 50, 64
3, 147456, Note_on_c, 1, 43, 80
3, 147644, Note_off_c, 1, 43, 64
3, 148416, Note_on_c, 1, 55, 80
3, 148416, Note_on_c, 1, 43, 80
3, 148604, Note_off_c, 1, 55, 64
3, 148604, Note_off_c, 1, 43, 64
3, 148608, Note_on_c, 1, 58, 80
3, 148608, Note_on_c, 1, 46, 80
3, 148796, Note_off_c, 1, 58, 64
3, 148796, Note_off_c, 1, 46, 64
3, 148800, Note_on_c, 1, 63, 80
3, 148800, Note_on_c, 1, 51, 80
3, 148988, Note_off_c, 1, 63, 64
3, 148988, Note_off_c, 1, 51, 64
3, 148992, Note_on_c, 1, 54, 80
3, 148992, Note_on_c, 1, 42, 80
3, 149180, Note_off_c, 1, 54, 64
3, 149180, Note_off_c, 1, 42, 64
3, 149952, Note_on_c, 1, 53, 80
3, 149952, Note_on_c, 1, 41, 81
3, 150140, Note_off_c, 1, 53, 64
3, 150140, Note_off_c, 1, 41, 64
3, 150144, Note_on_c, 1, 57, 80
3, 150144, Note_on_c, 1, 45, 80
3, 150332, Note_off_c, 1, 57, 64
3, 150332, Note_off_c, 1, 45, 64
3, 150336, Note_on_c, 1, 62, 80
3, 150336, Note_on_c, 1, 50, 80
3, 150524, Note_off_c, 1, 62, 64
3, 150524, Note_off_c, 1, 50, 64
3, 150528, Note_on_c, 1, 52, 80
3, 150528, Note_on_c, 1, 40, 84
3, 150716, Note_off_c, 1, 52, 64
3, 150716, Note_off_c, 1, 40, 64
3, 151488, Note_on_c, 1, 51, 80
3, 151488, Note_on_c, 1, 39, 84
3, 151676, Note_off_c, 1, 51, 64
3, 151676, Note_off_c, 1, 39, 64
3, 151680, Note_on_c, 1, 55, 80
3, 151680, Note_on_c, 1, 43, 84
3, 151868, Note_off_c, 1, 55, 64
3, 151868, Note_off_c, 1, 43, 64
3, 151872, Note_on_c, 1, 39, 80
3, 151872, Note_on_c, 1, 51, 80
3, 152060, Note_off_c, 1, 39, 64
3, 152060, Note_off_c, 1, 51, 64
3, 152064, Note_on_c, 1, 50, 80
3, 152064, Note_on_c, 1, 38, 84
3, 152252, Note_off_c, 1, 50, 64
3, 152252, Note_off_c, 1, 38, 64
3, 152256, Note_on_c, 1, 50, 80
3, 152444, Note_off_c, 1, 50, 64
3, 152448, Note_on_c, 1, 54, 80
3, 152636, Note_off_c, 1, 54, 64
3, 152640, Note_on_c, 1, 57, 80
3, 152828, Note_off_c, 1, 57, 64
3, 152832, Note_on_c, 1, 62, 80
3, 153020, Note_off_c, 1, 62, 64
3, 153024, Note_on_c, 1, 66, 80
3, 153212, Note_off_c, 1, 66, 64
3, 153216, Note_on_c, 1, 69, 80
3, 153404, Note_off_c, 1, 69, 64
3, 153408, Note_on_c, 1, 74, 80
3, 153596, Note_off_c, 1, 74, 64
3, 153600, Note_on_c, 1, 58, 85
3, 153788, Note_off_c, 1, 58, 64
3, 153792, Note_on_c, 1, 70, 80
3, 153980, Note_off_c, 1, 70, 64
3, 153984, Note_on_c, 1, 65, 80
3, 154172, Note_off_c, 1, 65, 64
3, 154176, Note_on_c, 1, 62, 80
3, 154364, Note_off_c, 1, 62, 64
3, 154368, Note_on_c, 1, 58, 80
3, 154556, Note_off_c, 1, 58, 64
3, 154560, Note_on_c, 1, 53, 80
3, 154748, Note_off_c, 1, 53, 64
3, 154752, Note_on_c, 1, 50, 80
3, 154940, Note_off_c, 1, 50, 64
3, 154944, Note_on_c, 1, 46, 80
3, 155132, Note_off_c, 1, 46, 64
3, 155136, Note_on_c, 1, 41, 81
3, 155324, Note_off_c, 1, 41, 64
3, 156864, Note_on_c, 1, 41, 81
3, 157052, Note_off_c, 1, 41, 64
3, 157056, Note_on_c, 1, 42, 80
3, 157244, Note_off_c, 1, 42, 64
3, 157248, Note_on_c, 1, 41, 81
3, 157436, Note_off_c, 1, 41, 64
3, 157440, Note_on_c, 1, 42, 80
3, 157628, Note_off_c, 1, 42, 64
3, 157632, Note_on_c, 1, 41, 81
3, 157820, Note_off_c, 1, 41, 64
3, 157824, Note_on_c, 1, 42, 80
3, 158012, Note_off_c, 1, 42, 64
3, 158016, Note_on_c, 1, 41, 80
3, 158204, Note_off_c, 1, 41, 64
3, 158208, Note_on_c, 1, 46, 80
3, 158396, Note_off_c, 1, 46, 64
3, 159744, Note_on_c, 1, 56, 80
3, 159932, Note_off_c, 1, 56, 64
3, 159936, Note_on_c, 1, 53, 80
3, 160124, Note_off_c, 1, 53, 64
3, 160128, Note_on_c, 1, 50, 80
3, 160316, Note_off_c, 1, 50, 64
3, 160320, Note_on_c, 1, 46, 80
3, 160508, Note_off_c, 1, 46, 64
3, 160512, Note_on_c, 1, 44, 80
3, 160700, Note_off_c, 1, 44, 64
3, 160704, Note_on_c, 1, 41, 81
3, 160892, Note_off_c, 1, 41, 64
3, 160896, Note_on_c, 1, 38, 84
3, 161084, Note_off_c, 1, 38, 64
3, 161088, Note_on_c, 1, 32, 84
3, 161276, Note_off_c, 1, 32, 64
3, 161280, Note_on_c, 1, 31, 85
3, 161468, Note_off_c, 1, 31, 64
3, 162048, Note_on_c, 1, 58, 80
3, 162108, Note_off_c, 1, 58, 64
3, 162112, Note_on_c, 1, 55, 80
3, 162172, Note_off_c, 1, 55, 64
3, 162176, Note_on_c, 1, 51, 80
3, 162236, Note_off_c, 1, 51, 64
3, 162240, Note_on_c, 1, 58, 80
3, 162300, Note_off_c, 1, 58, 64
3, 162304, Note_on_c, 1, 55, 80
3, 162364, Note_off_c, 1, 55, 64
3, 162368, Note_on_c, 1, 51, 80
3, 162428, Note_off_c, 1, 51, 64
3, 162432, Note_on_c, 1, 58, 80
3, 162492, Note_off_c, 1, 58, 64
3, 162496, Note_on_c, 1, 55, 80
3, 162556, Note_off_c, 1, 55, 64
3, 162560, Note_on_c, 1, 51, 80
3, 162620, Note_off_c, 1, 51, 64
3, 162624, Note_on_c, 1, 58, 80
3, 162684, Note_off_c, 1, 58, 64
3, 162688, Note_on_c, 1, 55, 80
3, 162748, Note_off_c, 1, 55, 64
3, 162752, Note_on_c, 1, 51, 80
3, 162812, Note_off_c, 1, 51, 64
3, 162816, Note_on_c, 1, 52, 83
3, 163004, Note_off_c, 1, 52, 64
3, 163008, Note_on_c, 1, 46, 83
3, 163196, Note_off_c, 1, 46, 64
3, 163200, Note_on_c, 1, 43, 82
3, 163388, Note_off_c, 1, 43, 64
3, 163392, Note_on_c, 1, 40, 82
3, 163580, Note_off_c, 1, 40, 64
3, 163584, Note_on_c, 1, 41, 83
3, 163772, Note_off_c, 1, 41, 64
3, 163776, Note_on_c, 1, 39, 84
3, 163964, Note_off_c, 1, 39, 64
3, 163968, Note_on_c, 1, 41, 83
3, 164156, Note_off_c, 1, 41, 64
3, 164160, Note_on_c, 1, 29, 90
3, 164348, Note_off_c, 1, 29, 64
3, 164352, Note_on_c, 1, 46, 80
3, 164352, Note_on_c, 1, 34, 85
3, 165116, Note_off_c, 1, 46, 64
3, 165116, Note_off_c, 1, 34, 64
3, 165120, Note_on_c, 1, 45, 80
3, 165120, Note_on_c, 1, 33, 86
3, 165884, Note_off_c, 1, 45, 64
3, 165884, Note_off_c, 1, 33, 64
3, 165888, Note_on_c, 1, 43, 85
3, 165888, Note_on_c, 1, 31, 93
3, 166076, Note_off_c, 1, 43, 64
3, 166076, Note_off_c, 1, 31, 64
3, 166080, Note_on_c, 1, 55, 80
3, 166268, Note_off_c, 1, 55, 64
3, 166272, Note_on_c, 1, 58, 80
3, 166460, Note_off_c, 1, 58, 64
3, 166464, Note_on_c, 1, 62, 80
3, 166652, Note_off_c, 1, 62, 64
3, 166656, Note_on_c, 1, 67, 80
3, 166844, Note_off_c, 1, 67, 64
3, 166848, Note_on_c, 1, 67, 80
3, 167036, Note_off_c, 1, 67, 64
3, 167040, Note_on_c, 1, 66, 80
3, 167228, Note_off_c, 1, 66, 64
3, 167232, Note_on_c, 1, 67, 80
3, 167420, Note_off_c, 1, 67, 64
3, 167424, Note_on_c, 1, 62, 80
3, 167612, Note_off_c, 1, 62, 64
3, 167616, Note_on_c, 1, 62, 80
3, 167616, Note_on_c, 1, 50, 80
3, 167804, Note_off_c, 1, 62, 64
3, 167804, Note_off_c, 1, 50, 64
3, 167808, Note_on_c, 1, 63, 80
3, 167808, Note_on_c, 1, 51, 80
3, 167996, Note_off_c, 1, 63, 64
3, 167996, Note_off_c, 1, 51, 64
3, 168000, Note_on_c, 1, 62, 80
3, 168000, Note_on_c, 1, 50, 80
3, 168188, Note_off_c, 1, 62, 64
3, 168188, Note_off_c, 1, 50, 64
3, 168192, Note_on_c, 1, 60, 80
3, 168192, Note_on_c, 1, 48, 80
3, 168380, Note_off_c, 1, 60, 64
3, 168380, Note_off_c, 1, 48, 64
3, 168384, Note_on_c, 1, 58, 80
3, 168384, Note_on_c, 1, 46, 80
3, 168572, Note_off_c, 1, 58, 64
3, 168572, Note_off_c, 1, 46, 64
3, 168576, Note_on_c, 1, 57, 80
3, 168576, Note_on_c, 1, 45, 80
3, 168764, Note_off_c, 1, 57, 64
3, 168764, Note_off_c, 1, 45, 64
3, 168768, Note_on_c, 1, 55, 80
3, 168768, Note_on_c, 1, 43, 80
3, 168956, Note_off_c, 1, 55, 64
3, 168956, Note_off_c, 1, 43, 64
3, 168960, Note_on_c, 1, 54, 80
3, 168960, Note_on_c, 1, 42, 80
3, 169148, Note_off_c, 1, 54, 64
3, 169148, Note_off_c, 1, 42, 64
3, 170688, Note_on_c, 1, 55, 80
3, 170688, Note_on_c, 1, 43, 80
3, 170876, Note_off_c, 1, 55, 64
3, 170876, Note_off_c, 1, 43, 64
3, 170880, Note_on_c, 1, 56, 80
3, 170880, Note_on_c, 1, 44, 80
3, 171068, Note_off_c, 1, 56, 64
3, 171068, Note_off_c, 1, 44, 64
3, 171072, Note_on_c, 1, 55, 80
3, 171072, Note_on_c, 1, 43, 80
3, 171260, Note_off_c, 1, 55, 64
3, 171260, Note_off_c, 1, 43, 64
3, 171264, Note_on_c, 1, 53, 80
3, 171264, Note_on_c, 1, 41, 81
3, 171452, Note_off_c, 1, 53, 64
3, 171452, Note_off_c, 1, 41, 64
3, 171456, Note_on_c, 1, 51, 80
3, 171456, Note_on_c, 1, 39, 84
3, 171644, Note_off_c, 1, 51, 64
3, 171644, Note_off_c, 1, 39, 64
3, 171648, Note_on_c, 1, 50, 80
3, 171648, Note_on_c, 1, 38, 84
3, 171836, Note_off_c, 1, 50, 64
3, 171836, Note_off_c, 1, 38, 64
3, 171840, Note_on_c, 1, 48, 80
3, 171840, Note_on_c, 1, 36, 85
3, 172028, Note_off_c, 1, 48, 64
3, 172028, Note_off_c, 1, 36, 64
3, 172032, Note_on_c, 1, 47, 80
3, 172032, Note_on_c, 1, 35, 86
3, 172220, Note_off_c, 1, 47, 64
3, 172220, Note_off_c, 1, 35, 64
3, 172992, Note_on_c, 1, 48, 80
3, 172992, Note_on_c, 1, 36, 85
3, 173180, Note_off_c, 1, 48, 64
3, 173180, Note_off_c, 1, 36, 64
3, 173184, Note_on_c, 1, 44, 80
3, 173184, Note_on_c, 1, 32, 87
3, 173372, Note_off_c, 1, 44, 64
3, 173372, Note_off_c, 1, 32, 64
3, 173376, Note_on_c, 1, 43, 80
3, 173376, Note_on_c, 1, 31, 88
3, 173564, Note_off_c, 1, 43, 64
3, 173564, Note_off_c, 1, 31, 64
3, 173568, Note_on_c, 1, 42, 83
3, 173568, Note_on_c, 1, 30, 91
3, 173756, Note_off_c, 1, 42, 64
3, 173756, Note_off_c, 1, 30, 64
3, 174528, Note_on_c, 1, 55, 80
3, 174528, Note_on_c, 1, 43, 80
3, 174716, Note_off_c, 1, 55, 64
3, 174716, Note_off_c, 1, 43, 64
3, 174720, Note_on_c, 1, 51, 80
3, 174720, Note_on_c, 1, 39, 84
3, 174908, Note_off_c, 1, 51, 64
3, 174908, Note_off_c, 1, 39, 64
3, 174912, Note_on_c, 1, 49, 80
3, 174912, Note_on_c, 1, 37, 84
3, 175100, Note_off_c, 1, 49, 64
3, 175100, Note_off_c, 1, 37, 64
3, 175104, Note_on_c, 1, 50, 80
3, 175104, Note_on_c, 1, 38, 84
3, 175292, Note_off_c, 1, 50, 64
3, 175292, Note_off_c, 1, 38, 64
3, 175872, Note_on_c, 1, 50, 80
3, 175872, Note_on_c, 1, 38, 84
3, 176060, Note_off_c, 1, 50, 64
3, 176060, Note_off_c, 1, 38, 64
3, 176832, Note_on_c, 1, 43, 80
3, 177020, Note_off_c, 1, 43, 64
3, 177024, Note_on_c, 1, 46, 80
3, 177212, Note_off_c, 1, 46, 64
3, 177216, Note_on_c, 1, 50, 80
3, 177404, Note_off_c, 1, 50, 64
3, 177408, Note_on_c, 1, 55, 80
3, 177596, Note_off_c, 1, 55, 64
3, 177600, Note_on_c, 1, 58, 80
3, 177788, Note_off_c, 1, 58, 64
3, 177792, Note_on_c, 1, 62, 80
3, 177980, Note_off_c, 1, 62, 64
3, 177984, Note_on_c, 1, 67, 80
3, 178172, Note_off_c, 1, 67, 64
3, 178176, Note_on_c, 1, 58, 85
3, 178364, Note_off_c, 1, 58, 64
3, 178368, Note_on_c, 1, 70, 80
3, 178556, Note_off_c, 1, 70, 64
3, 178560, Note_on_c, 1, 65, 80
3, 178748, Note_off_c, 1, 65, 64
3, 178752, Note_on_c, 1, 62, 80
3, 178940, Note_off_c, 1, 62, 64
3, 178944, Note_on_c, 1, 58, 80
3, 179132, Note_off_c, 1, 58, 64
3, 179136, Note_on_c, 1, 53, 80
3, 179324, Note_off_c, 1, 53, 64
3, 179328, Note_on_c, 1, 50, 80
3, 179516, Note_off_c, 1, 50, 64
3, 179520, Note_on_c, 1, 46, 80
3, 179708, Note_off_c, 1, 46, 64
3, 179712, Note_on_c, 1, 41, 81
3, 179900, Note_off_c, 1, 41, 64
3, 181440, Note_on_c, 1, 41, 81
3, 181628, Note_off_c, 1, 41, 64
3, 181632, Note_on_c, 1, 42, 80
3, 181820, Note_off_c, 1, 42, 64
3, 181824, Note_on_c, 1, 41, 81
3, 182012, Note_off_c, 1, 41, 64
3, 182016, Note_on_c, 1, 42, 80
3, 182204, Note_off_c, 1, 42, 64
3, 182208, Note_on_c, 1, 41, 81
3, 182396, Note_off_c, 1, 41, 64
3, 182400, Note_on_c, 1, 42, 80
3, 182588, Note_off_c, 1, 42, 64
3, 182592, Note_on_c, 1, 41, 81
3, 182780, Note_off_c, 1, 41, 64
3, 182784, Note_on_c, 1, 46, 80
3, 182972, Note_off_c, 1, 46, 64
3, 184320, Note_on_c, 1, 56, 80
3, 184508, Note_off_c, 1, 56, 64
3, 184512, Note_on_c, 1, 53, 80
3, 184700, Note_off_c, 1, 53, 64
3, 184704, Note_on_c, 1, 50, 80
3, 184892, Note_off_c, 1, 50, 64
3, 184896, Note_on_c, 1, 46, 80
3, 185084, Note_off_c, 1, 46, 64
3, 185088, Note_on_c, 1, 44, 80
3, 185276, Note_off_c, 1, 44, 64
3, 185280, Note_on_c, 1, 41, 81
3, 185468, Note_off_c, 1, 41, 64
3, 185472, Note_on_c, 1, 38, 80
3, 185660, Note_off_c, 1, 38, 64
3, 185664, Note_on_c, 1, 32, 81
3, 185852, Note_off_c, 1, 32, 64
3, 185856, Note_on_c, 1, 31, 84
3, 186044, Note_off_c, 1, 31, 64
3, 186624, Note_on_c, 1, 58, 80
3, 186684, Note_off_c, 1, 58, 64
3, 186688, Note_on_c, 1, 55, 80
3, 186748, Note_off_c, 1, 55, 64
3, 186752, Note_on_c, 1, 51, 80
3, 186812, Note_off_c, 1, 51, 64
3, 186816, Note_on_c, 1, 58, 80
3, 186876, Note_off_c, 1, 58, 64
3, 186880, Note_on_c, 1, 55, 80
3, 186940, Note_off_c, 1, 55, 64
3, 186944, Note_on_c, 1, 51, 80
3, 187004, Note_off_c, 1, 51, 64
3, 187008, Note_on_c, 1, 58, 80
3, 187068, Note_off_c, 1, 58, 64
3, 187072, Note_on_c, 1, 55, 80
3, 187132, Note_off_c, 1, 55, 64
3, 187136, Note_on_c, 1, 51, 80
3, 187196, Note_off_c, 1, 51, 64
3, 187200, Note_on_c, 1, 58, 80
3, 187260, Note_off_c, 1, 58, 64
3, 187264, Note_on_c, 1, 55, 80
3, 187324, Note_off_c, 1, 55, 64
3, 187328, Note_on_c, 1, 51, 80
3, 187388, Note_off_c, 1, 51, 64
3, 187392, Note_on_c, 1, 52, 80
3, 187580, Note_off_c, 1, 52, 64
3, 187584, Note_on_c, 1, 46, 80
3, 187772, Note_off_c, 1, 46, 64
3, 187776, Note_on_c, 1, 43, 80
3, 187964, Note_off_c, 1, 43, 64
3, 187968, Note_on_c, 1, 40, 81
3, 188156, Note_off_c, 1, 40, 64
3, 188160, Note_on_c, 1, 41, 81
3, 188348, Note_off_c, 1, 41, 64
3, 188352, Note_on_c, 1, 39, 81
3, 188540, Note_off_c, 1, 39, 64
3, 188544, Note_on_c, 1, 41, 81
3, 188732, Note_off_c, 1, 41, 64
3, 188736, Note_on_c, 1, 29, 86
3, 188924, Note_off_c, 1, 29, 64
3, 188928, Note_on_c, 1, 46, 80
3, 188928, Note_on_c, 1, 34, 85
3, 189692, Note_off_c, 1, 46, 64
3, 189692, Note_off_c, 1, 34, 64
3, 189696, Note_on_c, 1, 45, 80
3, 189696, Note_on_c, 1, 33, 86
3, 190460, Note_off_c, 1, 45, 64
3, 190460, Note_off_c, 1, 33, 64
3, 190464, Note_on_c, 1, 43, 85
3, 190464, Note_on_c, 1, 31, 93
3, 190652, Note_off_c, 1, 43, 64
3, 190652, Note_off_c, 1, 31, 64
3, 190656, Note_on_c, 1, 55, 80
3, 190844, Note_off_c, 1, 55, 64
3, 190848, Note_on_c, 1, 58, 80
3, 191036, Note_off_c, 1, 58, 64
3, 191040, Note_on_c, 1, 62, 80
3, 191228, Note_off_c, 1, 62, 64
3, 191232, Note_on_c, 1, 67, 80
3, 191420, Note_off_c, 1, 67, 64
3, 191424, Note_on_c, 1, 67, 80
3, 191612, Note_off_c, 1, 67, 64
3, 191616, Note_on_c, 1, 66, 80
3, 191804, Note_off_c, 1, 66, 64
3, 191808, Note_on_c, 1, 67, 80
3, 191996, Note_off_c, 1, 67, 64
3, 192000, Note_on_c, 1, 62, 80
3, 192188, Note_off_c, 1, 62, 64
3, 192192, Note_on_c, 1, 62, 80
3, 192192, Note_on_c, 1, 50, 80
3, 192380, Note_off_c, 1, 62, 64
3, 192380, Note_off_c, 1, 50, 64
3, 192384, Note_on_c, 1, 63, 80
3, 192384, Note_on_c, 1, 51, 80
3, 192572, Note_off_c, 1, 63, 64
3, 192572, Note_off_c, 1, 51, 64
3, 192576, Note_on_c, 1, 62, 80
3, 192576, Note_on_c, 1, 50, 80
3, 192764, Note_off_c, 1, 62, 64
3, 192764, Note_off_c, 1, 50, 64
3, 192768, Note_on_c, 1, 60, 80
3, 192768, Note_on_c, 1, 48, 80
3, 192956, Note_off_c, 1, 60, 64
3, 192956, Note_off_c, 1, 48, 64
3, 192960, Note_on_c, 1, 58, 80
3, 192960, Note_on_c, 1, 46, 80
3, 193148, Note_off_c, 1, 58, 64
3, 193148, Note_off_c, 1, 46, 64
3, 193152, Note_on_c, 1, 57, 80
3, 193152, Note_on_c, 1, 45, 80
3, 193340, Note_off_c, 1, 57, 64
3, 193340, Note_off_c, 1, 45, 64
3, 193344, Note_on_c, 1, 55, 80
3, 193344, Note_on_c, 1, 43, 80
3, 193532, Note_off_c, 1, 55, 64
3, 193532, Note_off_c, 1, 43, 64
3, 193536, Note_on_c, 1, 54, 80
3, 193536, Note_on_c, 1, 42, 80
3, 193724, Note_off_c, 1, 54, 64
3, 193724, Note_off_c, 1, 42, 64
3, 195264, Note_on_c, 1, 55, 80
3, 195264, Note_on_c, 1, 43, 80
3, 195452, Note_off_c, 1, 55, 64
3, 195452, Note_off_c, 1, 43, 64
3, 195456, Note_on_c, 1, 56, 80
3, 195456, Note_on_c, 1, 44, 80
3, 195644, Note_off_c, 1, 56, 64
3, 195644, Note_off_c, 1, 44, 64
3, 195648, Note_on_c, 1, 55, 80
3, 195648, Note_on_c, 1, 43, 80
3, 195836, Note_off_c, 1, 55, 64
3, 195836, Note_off_c, 1, 43, 64
3, 195840, Note_on_c, 1, 53, 80
3, 195840, Note_on_c, 1, 41, 81
3, 196028, Note_off_c, 1, 53, 64
3, 196028, Note_off_c, 1, 41, 64
3, 196032, Note_on_c, 1, 51, 80
3, 196032, Note_on_c, 1, 39, 83
3, 196220, Note_off_c, 1, 51, 64
3, 196220, Note_off_c, 1, 39, 64
3, 196224, Note_on_c, 1, 50, 80
3, 196224, Note_on_c, 1, 38, 84
3, 196412, Note_off_c, 1, 50, 64
3, 196412, Note_off_c, 1, 38, 64
3, 196416, Note_on_c, 1, 48, 80
3, 196416, Note_on_c, 1, 36, 84
3, 196604, Note_off_c, 1, 48, 64
3, 196604, Note_off_c, 1, 36, 64
3, 196608, Note_on_c, 1, 47, 80
3, 196608, Note_on_c, 1, 35, 85
3, 196796, Note_off_c, 1, 47, 64
3, 196796, Note_off_c, 1, 35, 64
3, 197568, Note_on_c, 1, 48, 80
3, 197568, Note_on_c, 1, 36, 84
3, 197756, Note_off_c, 1, 48, 64
3, 197756, Note_off_c, 1, 36, 64
3, 197760, Note_on_c, 1, 44, 80
3, 197760, Note_on_c, 1, 32, 85
3, 197948, Note_off_c, 1, 44, 64
3, 197948, Note_off_c, 1, 32, 64
3, 197952, Note_on_c, 1, 43, 80
3, 197952, Note_on_c, 1, 31, 86
3, 198140, Note_off_c, 1, 43, 64
3, 198140, Note_off_c, 1, 31, 64
3, 198144, Note_on_c, 1, 42, 81
3, 198144, Note_on_c, 1, 30, 87
3, 198332, Note_off_c, 1, 42, 64
3, 198332, Note_off_c, 1, 30, 64
3, 199104, Note_on_c, 1, 55, 80
3, 199104, Note_on_c, 1, 43, 80
3, 199292, Note_off_c, 1, 55, 64
3, 199292, Note_off_c, 1, 43, 64
3, 199296, Note_on_c, 1, 51, 80
3, 199296, Note_on_c, 1, 39, 81
3, 199484, Note_off_c, 1, 51, 64
3, 199484, Note_off_c, 1, 39, 64
3, 199488, Note_on_c, 1, 49, 80
3, 199488, Note_on_c, 1, 37, 83
3, 199676, Note_off_c, 1, 49, 64
3, 199676, Note_off_c, 1, 37, 64
3, 199680, Note_on_c, 1, 50, 80
3, 199680, Note_on_c, 1, 38, 83
3, 199868, Note_off_c, 1, 50, 64
3, 199868, Note_off_c, 1, 38, 64
3, 200448, Note_on_c, 1, 50, 80
3, 200448, Note_on_c, 1, 38, 83
3, 200636, Note_off_c, 1, 50, 64
3, 200636, Note_off_c, 1, 38, 64
3, 201408, Note_on_c, 1, 43, 80
3, 201596, Note_off_c, 1, 43, 64
3, 201600, Note_on_c, 1, 46, 80
3, 201788, Note_off_c, 1, 46, 64
3, 201792, Note_on_c, 1, 50, 80
3, 201980, Note_off_c, 1, 50, 64
3, 201984, Note_on_c, 1, 55, 80
3, 202172, Note_off_c, 1, 55, 64
3, 202176, Note_on_c, 1, 58, 80
3, 202364, Note_off_c, 1, 58, 64
3, 202368, Note_on_c, 1, 62, 80
3, 202556, Note_off_c, 1, 62, 64
3, 202560, Note_on_c, 1, 67, 80
3, 202748, Note_off_c, 1, 67, 64
3, 202944, Note_on_c, 1, 51, 80
3, 202944, Note_on_c, 1, 39, 83
3, 203132, Note_off_c, 1, 51, 64
3, 203132, Note_off_c, 1, 39, 64
3, 203136, Note_on_c, 1, 55, 80
3, 203136, Note_on_c, 1, 43, 80
3, 203324, Note_off_c, 1, 55, 64
3, 203324, Note_off_c, 1, 43, 64
3, 203328, Note_on_c, 1, 58, 80
3, 203328, Note_on_c, 1, 46, 80
3, 203516, Note_off_c, 1, 58, 64
3, 203516, Note_off_c, 1, 46, 64
3, 203520, Note_on_c, 1, 63, 80
3, 203520, Note_on_c, 1, 51, 80
3, 203708, Note_off_c, 1, 63, 64
3, 203708, Note_off_c, 1, 51, 64
3, 203712, Note_on_c, 1, 67, 80
3, 203712, Note_on_c, 1, 55, 80
3, 203888, Note_on_c, 1, 58, 80
3, 203900, Note_off_c, 1, 67, 64
3, 203900, Note_off_c, 1, 55, 64
3, 203904, Note_on_c, 1, 70, 80
3, 204076, Note_off_c, 1, 58, 64
3, 204080, Note_on_c, 1, 63, 80
3, 204092, Note_off_c, 1, 70, 64
3, 204096, Note_on_c, 1, 75, 80
3, 204268, Note_off_c, 1, 63, 64
3, 204284, Note_off_c, 1, 75, 64
3, 204480, Note_on_c, 1, 50, 80
3, 204480, Note_on_c, 1, 38, 80
3, 204668, Note_off_c, 1, 50, 64
3, 204668, Note_off_c, 1, 38, 64
3, 204672, Note_on_c, 1, 55, 80
3, 204672, Note_on_c, 1, 43, 80
3, 204860, Note_off_c, 1, 55, 64
3, 204860, Note_off_c, 1, 43, 64
3, 204864, Note_on_c, 1, 58, 80
3, 204864, Note_on_c, 1, 46, 80
3, 205052, Note_off_c, 1, 58, 64
3, 205052, Note_off_c, 1, 46, 64
3, 205056, Note_on_c, 1, 62, 80
3, 205056, Note_on_c, 1, 50, 80
3, 205232, Note_on_c, 1, 55, 80
3, 205244, Note_off_c, 1, 62, 64
3, 205244, Note_off_c, 1, 50, 64
3, 205248, Note_on_c, 1, 67, 80
3, 205420, Note_off_c, 1, 55, 64
3, 205436, Note_off_c, 1, 67, 64
3, 205440, Note_on_c, 1, 70, 80
3, 205440, Note_on_c, 1, 58, 80
3, 205628, Note_off_c, 1, 70, 64
3, 205628, Note_off_c, 1, 58, 64
3, 205632, Note_on_c, 1, 74, 80
3, 205632, Note_on_c, 1, 62, 80
3, 205820, Note_off_c, 1, 74, 64
3, 205820, Note_off_c, 1, 62, 64
3, 206016, Note_on_c, 1, 49, 80
3, 206016, Note_on_c, 1, 37, 84
3, 206204, Note_off_c, 1, 49, 64
3, 206204, Note_off_c, 1, 37, 64
3, 206208, Note_on_c, 1, 52, 80
3, 206208, Note_on_c, 1, 40, 83
3, 206396, Note_off_c, 1, 52, 64
3, 206396, Note_off_c, 1, 40, 64
3, 206400, Note_on_c, 1, 55, 80
3, 206400, Note_on_c, 1, 43, 80
3, 206588, Note_off_c, 1, 55, 64
3, 206588, Note_off_c, 1, 43, 64
3, 206592, Note_on_c, 1, 61, 80
3, 206592, Note_on_c, 1, 49, 80
3, 206768, Note_on_c, 1, 64, 80
3, 206780, Note_off_c, 1, 61, 64
3, 206780, Note_off_c, 1, 49, 64
3, 206784, Note_on_c, 1, 52, 80
3, 206956, Note_off_c, 1, 64, 64
3, 206960, Note_on_c, 1, 55, 80
3, 206972, Note_off_c, 1, 52, 64
3, 206976, Note_on_c, 1, 67, 80
3, 207148, Note_off_c, 1, 55, 64
3, 207152, Note_on_c, 1, 61, 80
3, 207164, Note_off_c, 1, 67, 64
3, 207168, Note_on_c, 1, 73, 80
3, 207340, Note_off_c, 1, 61, 64
3, 207356, Note_off_c, 1, 73, 64
3, 208896, Note_on_c, 1, 54, 80
3, 208896, Note_on_c, 1, 66, 80
3, 208956, Note_off_c, 1, 54, 64
3, 208956, Note_off_c, 1, 66, 64
3, 208960, Note_on_c, 1, 51, 80
3, 208960, Note_on_c, 1, 63, 80
3, 209020, Note_off_c, 1, 51, 64
3, 209020, Note_off_c, 1, 63, 64
3, 209024, Note_on_c, 1, 50, 80
3, 209024, Note_on_c, 1, 62, 80
3, 209084, Note_off_c, 1, 50, 64
3, 209084, Note_off_c, 1, 62, 64
3, 209088, Note_on_c, 1, 48, 80
3, 209088, Note_on_c, 1, 60, 80
3, 209148, Note_off_c, 1, 48, 64
3, 209148, Note_off_c, 1, 60, 64
3, 209152, Note_on_c, 1, 46, 80
3, 209152, Note_on_c, 1, 58, 80
3, 209212, Note_off_c, 1, 46, 64
3, 209212, Note_off_c, 1, 58, 64
3, 209216, Note_on_c, 1, 45, 80
3, 209216, Note_on_c, 1, 57, 80
3, 209276, Note_off_c, 1, 45, 64
3, 209276, Note_off_c, 1, 57, 64
3, 209280, Note_on_c, 1, 46, 80
3, 209280, Note_on_c, 1, 58, 80
3, 209340, Note_off_c, 1, 46, 64
3, 209340, Note_off_c, 1, 58, 64
3, 209344, Note_on_c, 1, 50, 80
3, 209344, Note_on_c, 1, 62, 80
3, 209404, Note_off_c, 1, 50, 64
3, 209404, Note_off_c, 1, 62, 64
3, 209408, Note_on_c, 1, 48, 80
3, 209408, Note_on_c, 1, 60, 80
3, 209468, Note_off_c, 1, 48, 64
3, 209468, Note_off_c, 1, 60, 64
3, 209472, Note_on_c, 1, 46, 80
3, 209472, Note_on_c, 1, 58, 80
3, 209532, Note_off_c, 1, 46, 64
3, 209532, Note_off_c, 1, 58, 64
3, 209536, Note_on_c, 1, 45, 80
3, 209536, Note_on_c, 1, 57, 80
3, 209596, Note_off_c, 1, 45, 64
3, 209596, Note_off_c, 1, 57, 64
3, 209600, Note_on_c, 1, 43, 80
3, 209600, Note_on_c, 1, 55, 80
3, 209660, Note_off_c, 1, 43, 64
3, 209660, Note_off_c, 1, 55, 64
3, 209664, Note_on_c, 1, 42, 80
3, 209664, Note_on_c, 1, 54, 80
3, 209724, Note_off_c, 1, 42, 64
3, 209724, Note_off_c, 1, 54, 64
3, 209728, Note_on_c, 1, 39, 81
3, 209728, Note_on_c, 1, 51, 80
3, 209788, Note_off_c, 1, 39, 64
3, 209788, Note_off_c, 1, 51, 64
3, 209792, Note_on_c, 1, 38, 83
3, 209792, Note_on_c, 1, 50, 80
3, 209852, Note_off_c, 1, 38, 64
3, 209852, Note_off_c, 1, 50, 64
3, 209856, Note_on_c, 1, 36, 84
3, 209856, Note_on_c, 1, 48, 80
3, 209916, Note_off_c, 1, 36, 64
3, 209916, Note_off_c, 1, 48, 64
3, 209920, Note_on_c, 1, 34, 84
3, 209920, Note_on_c, 1, 46, 80
3, 209980, Note_off_c, 1, 34, 64
3, 209980, Note_off_c, 1, 46, 64
3, 209984, Note_on_c, 1, 33, 85
3, 209984, Note_on_c, 1, 45, 80
3, 210044, Note_off_c, 1, 33, 64
3, 210044, Note_off_c, 1, 45, 64
3, 210048, Note_on_c, 1, 34, 84
3, 210048, Note_on_c, 1, 46, 80
3, 210108, Note_off_c, 1, 34, 64
3, 210108, Note_off_c, 1, 46, 64
3, 210112, Note_on_c, 1, 38, 84
3, 210112, Note_on_c, 1, 50, 80
3, 210172, Note_off_c, 1, 38, 64
3, 210172, Note_off_c, 1, 50, 64
3, 210176, Note_on_c, 1, 36, 84
3, 210176, Note_on_c, 1, 48, 80
3, 210236, Note_off_c, 1, 36, 64
3, 210236, Note_off_c, 1, 48, 64
3, 210240, Note_on_c, 1, 34, 85
3, 210240, Note_on_c, 1, 46, 80
3, 210300, Note_off_c, 1, 34, 64
3, 210300, Note_off_c, 1, 46, 64
3, 210304, Note_on_c, 1, 33, 86
3, 210304, Note_on_c, 1, 45, 80
3, 210364, Note_off_c, 1, 33, 64
3, 210364, Note_off_c, 1, 45, 64
3, 210368, Note_on_c, 1, 31, 87
3, 210368, Note_on_c, 1, 43, 80
3, 210428, Note_off_c, 1, 31, 64
3, 210428, Note_off_c, 1, 43, 64
3, 210432, Note_on_c, 1, 38, 83
3, 210432, Note_on_c, 1, 42, 78
3, 210524, Note_off_c, 1, 42, 64
3, 210528, Note_on_c, 1, 50, 78
3, 210620, Note_off_c, 1, 50, 64
3, 210624, Note_on_c, 1, 45, 78
3, 210716, Note_off_c, 1, 45, 64
3, 210720, Note_on_c, 1, 54, 78
3, 210812, Note_off_c, 1, 54, 64
3, 210816, Note_on_c, 1, 50, 78
3, 210908, Note_off_c, 1, 50, 64
3, 210912, Note_on_c, 1, 57, 78
3, 211004, Note_off_c, 1, 57, 64
3, 211008, Note_on_c, 1, 54, 78
3, 211100, Note_off_c, 1, 54, 64
3, 211104, Note_on_c, 1, 62, 78
3, 211196, Note_off_c, 1, 62, 64
3, 213500, Note_off_c, 1, 38, 64
3, 213504, Note_on_c, 1, 38, 82
3, 213504, Note_on_c, 1, 50, 78
3, 215040, Note_on_c, 1, 50, 78
3, 215040, Note_on_c, 1, 38, 78
3, 216572, Note_off_c, 1, 38, 64
3, 216572, Note_off_c, 1, 50, 64
3, 216572, Note_off_c, 1, 50, 64
3, 216572, Note_off_c, 1, 38, 64
3, 216576, Note_on_c, 1, 48, 78
3, 216576, Note_on_c, 1, 36, 82
3, 218108, Note_off_c, 1, 48, 64
3, 218108, Note_off_c, 1, 36, 64
3, 219648, Note_on_c, 1, 58, 78
3, 219648, Note_on_c, 1, 62, 78
3, 220028, Note_off_c, 1, 58, 64
3, 220032, Note_on_c, 1, 58, 78
3, 220412, Note_off_c, 1, 62, 64
3, 220412, Note_off_c, 1, 58, 64
3, 220416, Note_on_c, 1, 58, 78
3, 220416, Note_on_c, 1, 61, 78
3, 220604, Note_off_c, 1, 61, 64
3, 220608, Note_on_c, 1, 62, 78
3, 220796, Note_off_c, 1, 58, 64
3, 220796, Note_off_c, 1, 62, 64
3, 220800, Note_on_c, 1, 58, 78
3, 220800, Note_on_c, 1, 61, 78
3, 220988, Note_off_c, 1, 61, 64
3, 220992, Note_on_c, 1, 62, 78
3, 221180, Note_off_c, 1, 58, 64
3, 221180, Note_off_c, 1, 62, 64
3, 221184, Note_on_c, 1, 63, 78
3, 221184, Note_on_c, 1, 58, 78
3, 221372, Note_off_c, 1, 63, 64
3, 221376, Note_on_c, 1, 62, 78
3, 221564, Note_off_c, 1, 58, 64
3, 221564, Note_off_c, 1, 62, 64
3, 221568, Note_on_c, 1, 60, 78
3, 221756, Note_off_c, 1, 60, 64
3, 221760, Note_on_c, 1, 58, 78
3, 221948, Note_off_c, 1, 58, 64
3, 221952, Note_on_c, 1, 58, 78
3, 222332, Note_off_c, 1, 58, 64
3, 222720, Note_on_c, 1, 50, 78
3, 222720, Note_on_c, 1, 46, 78
3, 222908, Note_off_c, 1, 50, 64
3, 222912, Note_on_c, 1, 53, 78
3, 223100, Note_off_c, 1, 53, 64
3, 223104, Note_on_c, 1, 50, 78
3, 223292, Note_off_c, 1, 50, 64
3, 223296, Note_on_c, 1, 53, 78
3, 223484, Note_off_c, 1, 46, 64
3, 223484, Note_off_c, 1, 53, 64
3, 223488, Note_on_c, 1, 51, 78
3, 223488, Note_on_c, 1, 48, 78
3, 223488, Note_on_c, 1, 45, 78
3, 223676, Note_off_c, 1, 51, 64
3, 223680, Note_on_c, 1, 53, 78
3, 223868, Note_off_c, 1, 53, 64
3, 223872, Note_on_c, 1, 51, 78
3, 224060, Note_off_c, 1, 51, 64
3, 224064, Note_on_c, 1, 53, 78
3, 224252, Note_off_c, 1, 48, 64
3, 224252, Note_off_c, 1, 45, 64
3, 224252, Note_off_c, 1, 53, 64
3, 224256, Note_on_c, 1, 50, 78
3, 224256, Note_on_c, 1, 46, 78
3, 224444, Note_off_c, 1, 50, 64
3, 224448, Note_on_c, 1, 53, 78
3, 224636, Note_off_c, 1, 53, 64
3, 224640, Note_on_c, 1, 50, 78
3, 224828, Note_off_c, 1, 50, 64
3, 224832, Note_on_c, 1, 53, 78
3, 225020, Note_off_c, 1, 46, 64
3, 225020, Note_off_c, 1, 53, 64
3, 225024, Note_on_c, 1, 41, 79
3, 225404, Note_off_c, 1, 41, 64
3, 225792, Note_on_c, 1, 62, 78
3, 225792, Note_on_c, 1, 58, 78
3, 226172, Note_off_c, 1, 58, 64
3, 226176, Note_on_c, 1, 58, 78
3, 226556, Note_off_c, 1, 62, 64
3, 226556, Note_off_c, 1, 58, 64
3, 226560, Note_on_c, 1, 58, 78
3, 226560, Note_on_c, 1, 61, 78
3, 226748, Note_off_c, 1, 61, 64
3, 226752, Note_on_c, 1, 62, 78
3, 226940, Note_off_c, 1, 58, 64
3, 226940, Note_off_c, 1, 62, 64
3, 226944, Note_on_c, 1, 58, 78
3, 226944, Note_on_c, 1, 61, 78
3, 227132, Note_off_c, 1, 61, 64
3, 227136, Note_on_c, 1, 62, 78
3, 227324, Note_off_c, 1, 58, 64
3, 227324, Note_off_c, 1, 62, 64
3, 227328, Note_on_c, 1, 63, 78
3, 227328, Note_on_c, 1, 58, 78
3, 227516, Note_off_c, 1, 63, 64
3, 227520, Note_on_c, 1, 62, 78
3, 227708, Note_off_c, 1, 58, 64
3, 227708, Note_off_c, 1, 62, 64
3, 227712, Note_on_c, 1, 60, 78
3, 227900, Note_off_c, 1, 60, 64
3, 227904, Note_on_c, 1, 58, 78
3, 228092, Note_off_c, 1, 58, 64
3, 228096, Note_on_c, 1, 58, 78
3, 228476, Note_off_c, 1, 58, 64
3, 228864, Note_on_c, 1, 50, 78
3, 228864, Note_on_c, 1, 46, 78
3, 228864, Note_on_c, 1, 41, 79
3, 229052, Note_off_c, 1, 50, 64
3, 229056, Note_on_c, 1, 53, 78
3, 229244, Note_off_c, 1, 53, 64
3, 229248, Note_on_c, 1, 50, 78
3, 229436, Note_off_c, 1, 50, 64
3, 229440, Note_on_c, 1, 53, 78
3, 229628, Note_off_c, 1, 46, 64
3, 229628, Note_off_c, 1, 41, 64
3, 229628, Note_off_c, 1, 53, 64
3, 229632, Note_on_c, 1, 45, 78
3, 229632, Note_on_c, 1, 41, 79
3, 229632, Note_on_c, 1, 48, 78
3, 229820, Note_off_c, 1, 48, 64
3, 229824, Note_on_c, 1, 53, 78
3, 230012, Note_off_c, 1, 53, 64
3, 230016, Note_on_c, 1, 48, 78
3, 230204, Note_off_c, 1, 48, 64
3, 230208, Note_on_c, 1, 53, 78
3, 230396, Note_off_c, 1, 45, 64
3, 230396, Note_off_c, 1, 41, 64
3, 230396, Note_off_c, 1, 53, 64
3, 230400, Note_on_c, 1, 46, 78
3, 230780, Note_off_c, 1, 46, 64
3, 230784, Note_on_c, 1, 41, 79
3, 231164, Note_off_c, 1, 41, 64
3, 231168, Note_on_c, 1, 34, 82
3, 231548, Note_off_c, 1, 34, 64
3, 231936, Note_on_c, 1, 53, 78
3, 232128, Note_on_c, 1, 60, 78
3, 232128, Note_on_c, 1, 57, 78
3, 232316, Note_off_c, 1, 60, 64
3, 232316, Note_off_c, 1, 57, 64
3, 232320, Note_on_c, 1, 60, 78
3, 232320, Note_on_c, 1, 57, 78
3, 232508, Note_off_c, 1, 60, 64
3, 232508, Note_off_c, 1, 57, 64
3, 232512, Note_on_c, 1, 62, 78
3, 232512, Note_on_c, 1, 58, 78
3, 232700, Note_off_c, 1, 53, 64
3, 232700, Note_off_c, 1, 62, 64
3, 232700, Note_off_c, 1, 58, 64
3, 232704, Note_on_c, 1, 53, 78
3, 232704, Note_on_c, 1, 63, 78
3, 232704, Note_on_c, 1, 60, 78
3, 232892, Note_off_c, 1, 53, 64
3, 232892, Note_off_c, 1, 63, 64
3, 232892, Note_off_c, 1, 60, 64
3, 233664, Note_on_c, 1, 62, 78
3, 233664, Note_on_c, 1, 58, 78
3, 233852, Note_off_c, 1, 62, 64
3, 233852, Note_off_c, 1, 58, 64
3, 233856, Note_on_c, 1, 62, 78
3, 233856, Note_on_c, 1, 58, 78
3, 234044, Note_off_c, 1, 62, 64
3, 234044, Note_off_c, 1, 58, 64
3, 234048, Note_on_c, 1, 63, 78
3, 234048, Note_on_c, 1, 60, 78
3, 234236, Note_off_c, 1, 63, 64
3, 234236, Note_off_c, 1, 60, 64
3, 234240, Note_on_c, 1, 65, 78
3, 234240, Note_on_c, 1, 62, 78
3, 234428, Note_off_c, 1, 65, 64
3, 234428, Note_off_c, 1, 62, 64
3, 238080, Note_on_c, 1, 62, 78
3, 238080, Note_on_c, 1, 58, 78
3, 238460, Note_off_c, 1, 58, 64
3, 238464, Note_on_c, 1, 58, 78
3, 238844, Note_off_c, 1, 62, 64
3, 238844, Note_off_c, 1, 58, 64
3, 238848, Note_on_c, 1, 58, 78
3, 238848, Note_on_c, 1, 61, 78
3, 239036, Note_off_c, 1, 61, 64
3, 239040, Note_on_c, 1, 62, 78
3, 239228, Note_off_c, 1, 58, 64
3, 239228, Note_off_c, 1, 62, 64
3, 239232, Note_on_c, 1, 58, 78
3, 239232, Note_on_c, 1, 61, 78
3, 239420, Note_off_c, 1, 61, 64
3, 239424, Note_on_c, 1, 62, 78
3, 239612, Note_off_c, 1, 58, 64
3, 239612, Note_off_c, 1, 62, 64
3, 239616, Note_on_c, 1, 63, 78
3, 239616, Note_on_c, 1, 58, 78
3, 239804, Note_off_c, 1, 63, 64
3, 239808, Note_on_c, 1, 62, 78
3, 239996, Note_off_c, 1, 58, 64
3, 239996, Note_off_c, 1, 62, 64
3, 240000, Note_on_c, 1, 60, 78
3, 240188, Note_off_c, 1, 60, 64
3, 240192, Note_on_c, 1, 58, 78
3, 240380, Note_off_c, 1, 58, 64
3, 240384, Note_on_c, 1, 58, 78
3, 240764, Note_off_c, 1, 58, 64
3, 241152, Note_on_c, 1, 50, 78
3, 241152, Note_on_c, 1, 46, 78
3, 241152, Note_on_c, 1, 41, 79
3, 241340, Note_off_c, 1, 50, 64
3, 241344, Note_on_c, 1, 53, 78
3, 241532, Note_off_c, 1, 53, 64
3, 241536, Note_on_c, 1, 50, 78
3, 241724, Note_off_c, 1, 50, 64
3, 241728, Note_on_c, 1, 53, 78
3, 241916, Note_off_c, 1, 46, 64
3, 241916, Note_off_c, 1, 41, 64
3, 241916, Note_off_c, 1, 53, 64
3, 241920, Note_on_c, 1, 48, 78
3, 241920, Note_on_c, 1, 45, 78
3, 241920, Note_on_c, 1, 41, 79
3, 242108, Note_off_c, 1, 48, 64
3, 242112, Note_on_c, 1, 53, 78
3, 242300, Note_off_c, 1, 53, 64
3, 242304, Note_on_c, 1, 48, 78
3, 242492, Note_off_c, 1, 48, 64
3, 242496, Note_on_c, 1, 53, 78
3, 242684, Note_off_c, 1, 45, 64
3, 242684, Note_off_c, 1, 41, 64
3, 242684, Note_off_c, 1, 53, 64
3, 242688, Note_on_c, 1, 46, 78
3, 243068, Note_off_c, 1, 46, 64
3, 243072, Note_on_c, 1, 41, 79
3, 243452, Note_off_c, 1, 41, 64
3, 243456, Note_on_c, 1, 34, 82
3, 243836, Note_off_c, 1, 34, 64
3, 244288, Note_on_c, 1, 41, 82
3, 244288, Note_on_c, 1, 53, 78
3, 244412, Note_off_c, 1, 41, 64
3, 244412, Note_off_c, 1, 53, 64
3, 244416, Note_on_c, 1, 60, 78
3, 244416, Note_on_c, 1, 57, 78
3, 244416, Note_on_c, 1, 53, 78
3, 244508, Note_off_c, 1, 60, 64
3, 244508, Note_off_c, 1, 57, 64
3, 244508, Note_off_c, 1, 53, 64
3, 244608, Note_on_c, 1, 60, 88
3, 244608, Note_on_c, 1, 57, 88
3, 244608, Note_on_c, 1, 53, 88
3, 244796, Note_off_c, 1, 60, 64
3, 244796, Note_off_c, 1, 57, 64
3, 244796, Note_off_c, 1, 53, 64
3, 244800, Note_on_c, 1, 62, 88
3, 244800, Note_on_c, 1, 58, 88
3, 244800, Note_on_c, 1, 53, 88
3, 244988, Note_off_c, 1, 62, 64
3, 244988, Note_off_c, 1, 58, 64
3, 244988, Note_off_c, 1, 53, 64
3, 244992, Note_on_c, 1, 63, 88
3, 244992, Note_on_c, 1, 60, 88
3, 244992, Note_on_c, 1, 53, 88
3, 245180, Note_off_c, 1, 63, 64
3, 245180, Note_off_c, 1, 60, 64
3, 245180, Note_off_c, 1, 53, 64
3, 245184, Note_on_c, 1, 63, 88
3, 245184, Note_on_c, 1, 60, 88
3, 245372, Note_off_c, 1, 63, 64
3, 245372, Note_off_c, 1, 60, 64
3, 245376, Note_on_c, 1, 62, 88
3, 245376, Note_on_c, 1, 58, 88
3, 245564, Note_off_c, 1, 62, 64
3, 245564, Note_off_c, 1, 58, 64
3, 245568, Note_on_c, 1, 60, 88
3, 245568, Note_on_c, 1, 57, 88
3, 245756, Note_off_c, 1, 60, 64
3, 245756, Note_off_c, 1, 57, 64
3, 245760, Note_on_c, 1, 58, 88
3, 245760, Note_on_c, 1, 46, 88
3, 245948, Note_off_c, 1, 58, 64
3, 245948, Note_off_c, 1, 46, 64
3, 245952, Note_on_c, 1, 62, 88
3, 245952, Note_on_c, 1, 58, 88
3, 246044, Note_off_c, 1, 62, 64
3, 246044, Note_off_c, 1, 58, 64
3, 246144, Note_on_c, 1, 62, 88
3, 246144, Note_on_c, 1, 58, 88
3, 246332, Note_off_c, 1, 62, 64
3, 246332, Note_off_c, 1, 58, 64
3, 246336, Note_on_c, 1, 60, 88
3, 246336, Note_on_c, 1, 58, 88
3, 246336, Note_on_c, 1, 63, 88
3, 246524, Note_off_c, 1, 60, 64
3, 246524, Note_off_c, 1, 58, 64
3, 246524, Note_off_c, 1, 63, 64
3, 246528, Note_on_c, 1, 65, 88
3, 246528, Note_on_c, 1, 62, 88
3, 246528, Note_on_c, 1, 58, 88
3, 246716, Note_off_c, 1, 65, 64
3, 246716, Note_off_c, 1, 62, 64
3, 246716, Note_off_c, 1, 58, 64
3, 247296, Note_on_c, 1, 60, 67
3, 247296, Note_on_c, 1, 48, 67
3, 247484, Note_off_c, 1, 60, 64
3, 247484, Note_off_c, 1, 48, 64
3, 248832, Note_on_c, 1, 53, 67
3, 248832, Note_on_c, 1, 41, 69
3, 249020, Note_off_c, 1, 53, 64
3, 249020, Note_off_c, 1, 41, 64
3, 249792, Note_on_c, 1, 57, 88
3, 249792, Note_on_c, 1, 60, 88
3, 249792, Note_on_c, 1, 53, 88
3, 249980, Note_off_c, 1, 57, 64
3, 249980, Note_off_c, 1, 60, 64
3, 249980, Note_off_c, 1, 53, 64
3, 249984, Note_on_c, 1, 58, 88
3, 249984, Note_on_c, 1, 53, 88
3, 249984, Note_on_c, 1, 62, 88
3, 250172, Note_off_c, 1, 58, 64
3, 250172, Note_off_c, 1, 53, 64
3, 250172, Note_off_c, 1, 62, 64
3, 250176, Note_on_c, 1, 60, 88
3, 250176, Note_on_c, 1, 63, 88
3, 250176, Note_on_c, 1, 53, 88
3, 250364, Note_off_c, 1, 60, 64
3, 250364, Note_off_c, 1, 63, 64
3, 250364, Note_off_c, 1, 53, 64
3, 250368, Note_on_c, 1, 65, 88
3, 250368, Note_on_c, 1, 62, 88
3, 250368, Note_on_c, 1, 58, 88
3, 250748, Note_off_c, 1, 65, 64
3, 250748, Note_off_c, 1, 62, 64
3, 250748, Note_off_c, 1, 58, 64
3, 250752, Note_on_c, 1, 58, 88
3, 250752, Note_on_c, 1, 46, 88
3, 251132, Note_off_c, 1, 58, 64
3, 251132, Note_off_c, 1, 46, 64
3, 251136, Note_on_c, 1, 58, 88
3, 251136, Note_on_c, 1, 61, 88
3, 251136, Note_on_c, 1, 64, 88
3, 251324, Note_off_c, 1, 61, 64
3, 251324, Note_off_c, 1, 64, 64
3, 251328, Note_on_c, 1, 62, 88
3, 251328, Note_on_c, 1, 65, 88
3, 251516, Note_off_c, 1, 58, 64
3, 251516, Note_off_c, 1, 62, 64
3, 251516, Note_off_c, 1, 65, 64
3, 251520, Note_on_c, 1, 58, 88
3, 251520, Note_on_c, 1, 61, 88
3, 251520, Note_on_c, 1, 64, 88
3, 251708, Note_off_c, 1, 61, 64
3, 251708, Note_off_c, 1, 64, 64
3, 251712, Note_on_c, 1, 62, 88
3, 251712, Note_on_c, 1, 65, 88
3, 251900, Note_off_c, 1, 58, 64
3, 251900, Note_off_c, 1, 62, 64
3, 251900, Note_off_c, 1, 65, 64
3, 251904, Note_on_c, 1, 67, 88
3, 251904, Note_on_c, 1, 63, 88
3, 251904, Note_on_c, 1, 58, 88
3, 252092, Note_off_c, 1, 67, 64
3, 252092, Note_off_c, 1, 63, 64
3, 252096, Note_on_c, 1, 65, 88
3, 252096, Note_on_c, 1, 62, 88
3, 252284, Note_off_c, 1, 65, 64
3, 252284, Note_off_c, 1, 62, 64
3, 252288, Note_on_c, 1, 63, 88
3, 252288, Note_on_c, 1, 60, 88
3, 252476, Note_off_c, 1, 63, 64
3, 252476, Note_off_c, 1, 60, 64
3, 252480, Note_on_c, 1, 62, 88
3, 252480, Note_on_c, 1, 58, 88
3, 252668, Note_off_c, 1, 58, 64
3, 252668, Note_off_c, 1, 62, 64
3, 252668, Note_off_c, 1, 58, 64
3, 252672, Note_on_c, 1, 58, 88
3, 252672, Note_on_c, 1, 46, 88
3, 253052, Note_off_c, 1, 58, 64
3, 253052, Note_off_c, 1, 46, 64
3, 253440, Note_on_c, 1, 53, 67
3, 253440, Note_on_c, 1, 41, 69
3, 253532, Note_off_c, 1, 53, 64
3, 253532, Note_off_c, 1, 41, 64
3, 253632, Note_on_c, 1, 58, 67
3, 253632, Note_on_c, 1, 50, 67
3, 253724, Note_off_c, 1, 58, 64
3, 253724, Note_off_c, 1, 50, 64
3, 253824, Note_on_c, 1, 62, 67
3, 253824, Note_on_c, 1, 53, 67
3, 253916, Note_off_c, 1, 62, 64
3, 253916, Note_off_c, 1, 53, 64
3, 254016, Note_on_c, 1, 58, 67
3, 254016, Note_on_c, 1, 50, 67
3, 254108, Note_off_c, 1, 58, 64
3, 254108, Note_off_c, 1, 50, 64
3, 254208, Note_on_c, 1, 53, 67
3, 254208, Note_on_c, 1, 41, 69
3, 254300, Note_off_c, 1, 53, 64
3, 254300, Note_off_c, 1, 41, 64
3, 254400, Note_on_c, 1, 57, 67
3, 254400, Note_on_c, 1, 48, 67
3, 254492, Note_off_c, 1, 57, 64
3, 254492, Note_off_c, 1, 48, 64
3, 254592, Note_on_c, 1, 60, 67
3, 254592, Note_on_c, 1, 51, 67
3, 254684, Note_off_c, 1, 60, 64
3, 254684, Note_off_c, 1, 51, 64
3, 254784, Note_on_c, 1, 57, 67
3, 254784, Note_on_c, 1, 48, 67
3, 254876, Note_off_c, 1, 57, 64
3, 254876, Note_off_c, 1, 48, 64
3, 254976, Note_on_c, 1, 55, 78
3, 254976, Note_on_c, 1, 43, 78
3, 255740, Note_off_c, 1, 55, 64
3, 255740, Note_off_c, 1, 43, 64
3, 255744, Note_on_c, 1, 48, 78
3, 255744, Note_on_c, 1, 36, 82
3, 256508, Note_off_c, 1, 48, 64
3, 256508, Note_off_c, 1, 36, 64
3, 256512, Note_on_c, 1, 46, 78
3, 256512, Note_on_c, 1, 34, 83
3, 257276, Note_off_c, 1, 46, 64
3, 257276, Note_off_c, 1, 34, 64
3, 257280, Note_on_c, 1, 51, 78
3, 257280, Note_on_c, 1, 39, 81
3, 258044, Note_off_c, 1, 51, 64
3, 258044, Note_off_c, 1, 39, 64
3, 258048, Note_on_c, 1, 53, 78
3, 258048, Note_on_c, 1, 41, 79
3, 258812, Note_off_c, 1, 53, 64
3, 258812, Note_off_c, 1, 41, 64
3, 258816, Note_on_c, 1, 55, 78
3, 258816, Note_on_c, 1, 43, 78
3, 259196, Note_off_c, 1, 55, 64
3, 259196, Note_off_c, 1, 43, 64
3, 259200, Note_on_c, 1, 51, 78
3, 259200, Note_on_c, 1, 39, 81
3, 259580, Note_off_c, 1, 51, 64
3, 259580, Note_off_c, 1, 39, 64
3, 259584, Note_on_c, 1, 50, 78
3, 259964, Note_off_c, 1, 50, 64
3, 259968, Note_on_c, 1, 51, 78
3, 260348, Note_off_c, 1, 51, 64
3, 260352, Note_on_c, 1, 53, 78
3, 260732, Note_off_c, 1, 53, 64
3, 260736, Note_on_c, 1, 41, 79
3, 261116, Note_off_c, 1, 41, 64
3, 261120, Note_on_c, 1, 46, 78
3, 261312, Note_on_c, 1, 58, 78
3, 261500, Note_off_c, 1, 46, 64
3, 261500, Note_off_c, 1, 58, 64
3, 261504, Note_on_c, 1, 58, 78
3, 261692, Note_off_c, 1, 58, 64
3, 261696, Note_on_c, 1, 58, 78
3, 261884, Note_off_c, 1, 58, 64
3, 261888, Note_on_c, 1, 57, 78
3, 262076, Note_off_c, 1, 57, 64
3, 262080, Note_on_c, 1, 58, 78
3, 262268, Note_off_c, 1, 58, 64
3, 262272, Note_on_c, 1, 56, 78
3, 262460, Note_off_c, 1, 56, 64
3, 262464, Note_on_c, 1, 58, 78
3, 262652, Note_off_c, 1, 58, 64
3, 262656, Note_on_c, 1, 55, 78
3, 262844, Note_off_c, 1, 55, 64
3, 262848, Note_on_c, 1, 58, 78
3, 263036, Note_off_c, 1, 58, 64
3, 263040, Note_on_c, 1, 53, 78
3, 263228, Note_off_c, 1, 53, 64
3, 263232, Note_on_c, 1, 58, 78
3, 263420, Note_off_c, 1, 58, 64
3, 263424, Note_on_c, 1, 57, 78
3, 263612, Note_off_c, 1, 57, 64
3, 263616, Note_on_c, 1, 58, 78
3, 263804, Note_off_c, 1, 58, 64
3, 263808, Note_on_c, 1, 56, 78
3, 263996, Note_off_c, 1, 56, 64
3, 264000, Note_on_c, 1, 53, 78
3, 264188, Note_off_c, 1, 53, 64
3, 264192, Note_on_c, 1, 51, 78
3, 264380, Note_off_c, 1, 51, 64
3, 264384, Note_on_c, 1, 58, 78
3, 264572, Note_off_c, 1, 58, 64
3, 264576, Note_on_c, 1, 50, 78
3, 264764, Note_off_c, 1, 50, 64
3, 264768, Note_on_c, 1, 58, 78
3, 264956, Note_off_c, 1, 58, 64
3, 264960, Note_on_c, 1, 50, 78
3, 264960, Note_on_c, 1, 50, 78
3, 265148, Note_off_c, 1, 50, 64
3, 265152, Note_on_c, 1, 58, 79
3, 265152, Note_on_c, 1, 58, 79
3, 265152, Note_on_c, 1, 58, 79
3, 265152, Note_on_c, 1, 58, 79
3, 265340, Note_off_c, 1, 50, 64
3, 265340, Note_off_c, 1, 58, 64
3, 265344, Note_on_c, 1, 51, 83
3, 265344, Note_on_c, 1, 51, 83
3, 265532, Note_off_c, 1, 58, 64
3, 265532, Note_off_c, 1, 58, 64
3, 265532, Note_off_c, 1, 58, 64
3, 265532, Note_off_c, 1, 51, 64
3, 265532, Note_off_c, 1, 51, 64
3, 265536, Note_on_c, 1, 58, 85
3, 265536, Note_on_c, 1, 52, 85
3, 265724, Note_off_c, 1, 58, 64
3, 265724, Note_off_c, 1, 52, 64
3, 265728, Note_on_c, 1, 53, 88
3, 265728, Note_on_c, 1, 53, 88
3, 265916, Note_off_c, 1, 53, 64
3, 265920, Note_on_c, 1, 58, 67
3, 266108, Note_off_c, 1, 58, 64
3, 266112, Note_on_c, 1, 62, 67
3, 266300, Note_off_c, 1, 62, 64
3, 266304, Note_on_c, 1, 65, 67
3, 266492, Note_off_c, 1, 53, 64
3, 266492, Note_off_c, 1, 65, 64
3, 266496, Note_on_c, 1, 53, 67
3, 266496, Note_on_c, 1, 41, 69
3, 266684, Note_off_c, 1, 53, 64
3, 266684, Note_off_c, 1, 41, 64
3, 266688, Note_on_c, 1, 57, 67
3, 266876, Note_off_c, 1, 57, 64
3, 266880, Note_on_c, 1, 60, 67
3, 267068, Note_off_c, 1, 60, 64
3, 267072, Note_on_c, 1, 63, 67
3, 267260, Note_off_c, 1, 63, 64
3, 267264, Note_on_c, 1, 34, 82
3, 267452, Note_off_c, 1, 34, 64
3, 267456, Note_on_c, 1, 46, 78
3, 267644, Note_off_c, 1, 46, 64
3, 267648, Note_on_c, 1, 46, 78
3, 267836, Note_off_c, 1, 46, 64
3, 267840, Note_on_c, 1, 46, 78
3, 268028, Note_off_c, 1, 46, 64
3, 268032, Note_on_c, 1, 45, 78
3, 268220, Note_off_c, 1, 45, 64
3, 268224, Note_on_c, 1, 46, 78
3, 268412, Note_off_c, 1, 46, 64
3, 268416, Note_on_c, 1, 44, 78
3, 268604, Note_off_c, 1, 44, 64
3, 268608, Note_on_c, 1, 46, 78
3, 268796, Note_off_c, 1, 46, 64
3, 268800, Note_on_c, 1, 43, 78
3, 268988, Note_off_c, 1, 43, 64
3, 268992, Note_on_c, 1, 46, 78
3, 269180, Note_off_c, 1, 46, 64
3, 269184, Note_on_c, 1, 41, 79
3, 269372, Note_off_c, 1, 41, 64
3, 269376, Note_on_c, 1, 46, 78
3, 269564, Note_off_c, 1, 46, 64
3, 269568, Note_on_c, 1, 45, 78
3, 269756, Note_off_c, 1, 45, 64
3, 269760, Note_on_c, 1, 46, 78
3, 269948, Note_off_c, 1, 46, 64
3, 269952, Note_on_c, 1, 44, 78
3, 270140, Note_off_c, 1, 44, 64
3, 270144, Note_on_c, 1, 41, 79
3, 270332, Note_off_c, 1, 41, 64
3, 270336, Note_on_c, 1, 39, 81
3, 270524, Note_off_c, 1, 39, 64
3, 270528, Note_on_c, 1, 46, 78
3, 270704, Note_on_c, 1, 39, 81
3, 270716, Note_off_c, 1, 46, 64
3, 270892, Note_off_c, 1, 39, 64
3, 270912, Note_on_c, 1, 46, 78
3, 271088, Note_on_c, 1, 40, 81
3, 271100, Note_off_c, 1, 46, 64
3, 271104, Note_on_c, 1, 52, 78
3, 271852, Note_off_c, 1, 40, 64
3, 271868, Note_off_c, 1, 52, 64
3, 271872, Note_on_c, 1, 53, 78
3, 272060, Note_off_c, 1, 53, 64
3, 272064, Note_on_c, 1, 58, 78
3, 272252, Note_off_c, 1, 58, 64
3, 272256, Note_on_c, 1, 62, 78
3, 272444, Note_off_c, 1, 62, 64
3, 272448, Note_on_c, 1, 58, 78
3, 272636, Note_off_c, 1, 58, 64
3, 272640, Note_on_c, 1, 53, 78
3, 272828, Note_off_c, 1, 53, 64
3, 272832, Note_on_c, 1, 57, 78
3, 273020, Note_off_c, 1, 57, 64
3, 273024, Note_on_c, 1, 51, 78
3, 273212, Note_off_c, 1, 51, 64
3, 273216, Note_on_c, 1, 57, 78
3, 273404, Note_off_c, 1, 57, 64
3, 273408, Note_on_c, 1, 58, 78
3, 273408, Note_on_c, 1, 50, 78
3, 273788, Note_off_c, 1, 58, 64
3, 273788, Note_off_c, 1, 50, 64
3, 274176, Note_on_c, 1, 51, 78
3, 274556, Note_off_c, 1, 51, 64
3, 274944, Note_on_c, 1, 53, 82
3, 275324, Note_off_c, 1, 53, 64
3, 275712, Note_on_c, 1, 51, 82
3, 276092, Note_off_c, 1, 51, 64
3, 276480, Note_on_c, 1, 50, 82
3, 276860, Note_off_c, 1, 50, 64
3, 277248, Note_on_c, 1, 51, 82
3, 277628, Note_off_c, 1, 51, 64
3, 278016, Note_on_c, 1, 53, 82
3, 278396, Note_off_c, 1, 53, 64
3, 278784, Note_on_c, 1, 41, 84
3, 279164, Note_off_c, 1, 41, 64
3, 279552, Note_on_c, 1, 46, 82
3, 279932, Note_off_c, 1, 46, 64
3, 280320, Note_on_c, 1, 53, 82
3, 280700, Note_off_c, 1, 53, 64
3, 281088, Note_on_c, 1, 58, 82
3, 281468, Note_off_c, 1, 58, 64
3, 281856, Note_on_c, 1, 53, 82
3, 282236, Note_off_c, 1, 53, 64
3, 282624, Note_on_c, 1, 46, 82
3, 283004, Note_off_c, 1, 46, 64
3, 283392, Note_on_c, 1, 53, 82
3, 283772, Note_off_c, 1, 53, 64
3, 284160, Note_on_c, 1, 58, 82
3, 284160, Note_on_c, 1, 46, 82
3, 284540, Note_off_c, 1, 58, 64
3, 284540, Note_off_c, 1, 46, 64
3, 285696, Note_on_c, 1, 58, 82
3, 285696, Note_on_c, 1, 46, 82
3, 286264, Note_off_c, 1, 46, 64
3, 286268, Note_off_c, 1, 58, 64
3, 286268, End_track
4, 0, Start_track
4, 0, Title_t, "Midi by:"
4, 0, Control_c, 2, 0, 0
4, 0, Program_c, 2, 48
4, 0, Control_c, 2, 7, 91
4, 0, Control_c, 2, 10, 31
4, 0, Control_c, 2, 91, 70
4, 0, Control_c, 2, 93, 0
4, 0, Key_signature, -2, "major"
4, 0, Control_c, 2, 121, 0
4, 480, Control_c, 2, 10, 53
4, 576, Control_c, 2, 91, 63
4, 768, Program_c, 2, 48
4, 13888, Note_on_c, 2, 65, 80
4, 13888, Note_on_c, 2, 74, 80
4, 13888, Note_on_c, 2, 77, 80
4, 14584, Note_off_c, 2, 65, 64
4, 14584, Note_off_c, 2, 74, 64
4, 14584, Note_off_c, 2, 77, 64
4, 14592, Note_on_c, 2, 76, 80
4, 14592, Note_on_c, 2, 73, 80
4, 14592, Note_on_c, 2, 64, 80
4, 14780, Note_off_c, 2, 76, 64
4, 14780, Note_off_c, 2, 73, 64
4, 14780, Note_off_c, 2, 64, 64
4, 14784, Note_on_c, 2, 77, 80
4, 14784, Note_on_c, 2, 74, 80
4, 14784, Note_on_c, 2, 65, 80
4, 14972, Note_off_c, 2, 77, 64
4, 14972, Note_off_c, 2, 74, 64
4, 14972, Note_off_c, 2, 65, 64
4, 14976, Note_on_c, 2, 76, 80
4, 14976, Note_on_c, 2, 73, 80
4, 14976, Note_on_c, 2, 64, 80
4, 15164, Note_off_c, 2, 76, 64
4, 15164, Note_off_c, 2, 73, 64
4, 15164, Note_off_c, 2, 64, 64
4, 15168, Note_on_c, 2, 77, 80
4, 15168, Note_on_c, 2, 65, 80
4, 15168, Note_on_c, 2, 74, 80
4, 15356, Note_off_c, 2, 77, 64
4, 15356, Note_off_c, 2, 65, 64
4, 15356, Note_off_c, 2, 74, 64
4, 15360, Note_on_c, 2, 79, 80
4, 15360, Note_on_c, 2, 75, 80
4, 15360, Note_on_c, 2, 67, 80
4, 15548, Note_off_c, 2, 79, 64
4, 15548, Note_off_c, 2, 75, 64
4, 15548, Note_off_c, 2, 67, 64
4, 15552, Note_on_c, 2, 77, 80
4, 15552, Note_on_c, 2, 74, 80
4, 15552, Note_on_c, 2, 65, 80
4, 15740, Note_off_c, 2, 77, 64
4, 15740, Note_off_c, 2, 74, 64
4, 15740, Note_off_c, 2, 65, 64
4, 15744, Note_on_c, 2, 75, 80
4, 15744, Note_on_c, 2, 72, 80
4, 15744, Note_on_c, 2, 63, 80
4, 15932, Note_off_c, 2, 75, 64
4, 15932, Note_off_c, 2, 72, 64
4, 15932, Note_off_c, 2, 63, 64
4, 15936, Note_on_c, 2, 74, 80
4, 15936, Note_on_c, 2, 70, 80
4, 15936, Note_on_c, 2, 62, 80
4, 16124, Note_off_c, 2, 74, 64
4, 16124, Note_off_c, 2, 70, 64
4, 16124, Note_off_c, 2, 62, 64
4, 16128, Note_on_c, 2, 74, 80
4, 16128, Note_on_c, 2, 70, 80
4, 16128, Note_on_c, 2, 62, 80
4, 16220, Note_off_c, 2, 74, 64
4, 16220, Note_off_c, 2, 70, 64
4, 16220, Note_off_c, 2, 62, 64
4, 16320, Note_on_c, 2, 74, 80
4, 16508, Note_off_c, 2, 74, 64
4, 16512, Note_on_c, 2, 77, 80
4, 16700, Note_off_c, 2, 77, 64
4, 16704, Note_on_c, 2, 74, 80
4, 16892, Note_off_c, 2, 74, 64
4, 16896, Note_on_c, 2, 70, 61
4, 16896, Note_on_c, 2, 62, 61
4, 16988, Note_off_c, 2, 62, 64
4, 17084, Note_off_c, 2, 70, 64
4, 17088, Note_on_c, 2, 58, 61
4, 17180, Note_off_c, 2, 58, 64
4, 17280, Note_on_c, 2, 70, 61
4, 17280, Note_on_c, 2, 62, 61
4, 17372, Note_off_c, 2, 62, 64
4, 17468, Note_off_c, 2, 70, 64
4, 17472, Note_on_c, 2, 58, 61
4, 17564, Note_off_c, 2, 58, 64
4, 17664, Note_on_c, 2, 65, 61
4, 17664, Note_on_c, 2, 63, 61
4, 17852, Note_off_c, 2, 65, 64
4, 17852, Note_off_c, 2, 63, 64
4, 17856, Note_on_c, 2, 60, 61
4, 18044, Note_off_c, 2, 60, 64
4, 18048, Note_on_c, 2, 65, 61
4, 18048, Note_on_c, 2, 63, 61
4, 18236, Note_off_c, 2, 65, 64
4, 18236, Note_off_c, 2, 63, 64
4, 18240, Note_on_c, 2, 60, 61
4, 18428, Note_off_c, 2, 60, 64
4, 18432, Note_on_c, 2, 70, 61
4, 18432, Note_on_c, 2, 62, 61
4, 18620, Note_off_c, 2, 62, 64
4, 18624, Note_on_c, 2, 58, 61
4, 18812, Note_off_c, 2, 58, 64
4, 18816, Note_on_c, 2, 62, 61
4, 19004, Note_off_c, 2, 70, 64
4, 19004, Note_off_c, 2, 62, 64
4, 19008, Note_on_c, 2, 72, 61
4, 19100, Note_off_c, 2, 72, 64
4, 19104, Note_on_c, 2, 74, 61
4, 19196, Note_off_c, 2, 74, 64
4, 19200, Note_on_c, 2, 72, 66
4, 19200, Note_on_c, 2, 69, 66
4, 19388, Note_off_c, 2, 72, 64
4, 19388, Note_off_c, 2, 69, 64
4, 19392, Note_on_c, 2, 74, 69
4, 19580, Note_off_c, 2, 74, 64
4, 19584, Note_on_c, 2, 75, 74
4, 19772, Note_off_c, 2, 75, 64
4, 19776, Note_on_c, 2, 76, 76
4, 19964, Note_off_c, 2, 76, 64
4, 19968, Note_on_c, 2, 77, 80
4, 19968, Note_on_c, 2, 74, 80
4, 19968, Note_on_c, 2, 65, 80
4, 20732, Note_off_c, 2, 77, 64
4, 20732, Note_off_c, 2, 74, 64
4, 20732, Note_off_c, 2, 65, 64
4, 20736, Note_on_c, 2, 76, 80
4, 20736, Note_on_c, 2, 73, 80
4, 20736, Note_on_c, 2, 64, 80
4, 20924, Note_off_c, 2, 76, 64
4, 20924, Note_off_c, 2, 73, 64
4, 20924, Note_off_c, 2, 64, 64
4, 20928, Note_on_c, 2, 77, 80
4, 20928, Note_on_c, 2, 74, 80
4, 20928, Note_on_c, 2, 65, 80
4, 21116, Note_off_c, 2, 77, 64
4, 21116, Note_off_c, 2, 74, 64
4, 21116, Note_off_c, 2, 65, 64
4, 21120, Note_on_c, 2, 76, 80
4, 21120, Note_on_c, 2, 73, 80
4, 21120, Note_on_c, 2, 64, 80
4, 21308, Note_off_c, 2, 76, 64
4, 21308, Note_off_c, 2, 73, 64
4, 21308, Note_off_c, 2, 64, 64
4, 21312, Note_on_c, 2, 77, 80
4, 21312, Note_on_c, 2, 74, 80
4, 21312, Note_on_c, 2, 65, 80
4, 21500, Note_off_c, 2, 77, 64
4, 21500, Note_off_c, 2, 74, 64
4, 21500, Note_off_c, 2, 65, 64
4, 21504, Note_on_c, 2, 79, 80
4, 21504, Note_on_c, 2, 75, 80
4, 21504, Note_on_c, 2, 67, 80
4, 21692, Note_off_c, 2, 79, 64
4, 21692, Note_off_c, 2, 75, 64
4, 21692, Note_off_c, 2, 67, 64
4, 21696, Note_on_c, 2, 77, 80
4, 21696, Note_on_c, 2, 74, 80
4, 21696, Note_on_c, 2, 65, 80
4, 21884, Note_off_c, 2, 77, 64
4, 21884, Note_off_c, 2, 74, 64
4, 21884, Note_off_c, 2, 65, 64
4, 21888, Note_on_c, 2, 75, 80
4, 21888, Note_on_c, 2, 72, 80
4, 21888, Note_on_c, 2, 63, 80
4, 22076, Note_off_c, 2, 75, 64
4, 22076, Note_off_c, 2, 72, 64
4, 22076, Note_off_c, 2, 63, 64
4, 22080, Note_on_c, 2, 74, 80
4, 22080, Note_on_c, 2, 70, 80
4, 22080, Note_on_c, 2, 62, 80
4, 22268, Note_off_c, 2, 74, 64
4, 22268, Note_off_c, 2, 70, 64
4, 22268, Note_off_c, 2, 62, 64
4, 22272, Note_on_c, 2, 74, 80
4, 22272, Note_on_c, 2, 70, 80
4, 22272, Note_on_c, 2, 62, 80
4, 22456, Note_off_c, 2, 74, 64
4, 22456, Note_off_c, 2, 70, 64
4, 22456, Note_off_c, 2, 62, 64
4, 22464, Note_on_c, 2, 75, 80
4, 22504, Note_off_c, 2, 75, 64
4, 22512, Note_on_c, 2, 74, 80
4, 22552, Note_off_c, 2, 74, 64
4, 22560, Note_on_c, 2, 72, 80
4, 22600, Note_off_c, 2, 72, 64
4, 22608, Note_on_c, 2, 74, 80
4, 22648, Note_off_c, 2, 74, 64
4, 22656, Note_on_c, 2, 77, 80
4, 22844, Note_off_c, 2, 77, 64
4, 22848, Note_on_c, 2, 74, 80
4, 23036, Note_off_c, 2, 74, 64
4, 23040, Note_on_c, 2, 70, 61
4, 23040, Note_on_c, 2, 62, 61
4, 23132, Note_off_c, 2, 62, 64
4, 23228, Note_off_c, 2, 70, 64
4, 23232, Note_on_c, 2, 58, 61
4, 23324, Note_off_c, 2, 58, 64
4, 23424, Note_on_c, 2, 70, 61
4, 23424, Note_on_c, 2, 62, 61
4, 23516, Note_off_c, 2, 62, 64
4, 23612, Note_off_c, 2, 70, 64
4, 23616, Note_on_c, 2, 58, 61
4, 23708, Note_off_c, 2, 58, 64
4, 23808, Note_on_c, 2, 65, 61
4, 23808, Note_on_c, 2, 60, 61
4, 23900, Note_off_c, 2, 60, 64
4, 23996, Note_off_c, 2, 65, 64
4, 24000, Note_on_c, 2, 57, 61
4, 24092, Note_off_c, 2, 57, 64
4, 24192, Note_on_c, 2, 65, 61
4, 24192, Note_on_c, 2, 60, 61
4, 24284, Note_off_c, 2, 60, 64
4, 24380, Note_off_c, 2, 65, 64
4, 24384, Note_on_c, 2, 57, 61
4, 24476, Note_off_c, 2, 57, 64
4, 24576, Note_on_c, 2, 63, 61
4, 24576, Note_on_c, 2, 60, 61
4, 24576, Note_on_c, 2, 57, 61
4, 24576, Note_on_c, 2, 53, 61
4, 25340, Note_off_c, 2, 63, 64
4, 25340, Note_off_c, 2, 60, 64
4, 25340, Note_off_c, 2, 57, 64
4, 25340, Note_off_c, 2, 53, 64
4, 25344, Note_on_c, 2, 62, 61
4, 25344, Note_on_c, 2, 58, 61
4, 25344, Note_on_c, 2, 53, 61
4, 25532, Note_off_c, 2, 62, 64
4, 25532, Note_off_c, 2, 58, 64
4, 25532, Note_off_c, 2, 53, 64
4, 25536, Note_on_c, 2, 70, 61
4, 25724, Note_off_c, 2, 70, 64
4, 25728, Note_on_c, 2, 72, 61
4, 25728, Note_on_c, 2, 69, 61
4, 25916, Note_off_c, 2, 72, 64
4, 25916, Note_off_c, 2, 69, 64
4, 25920, Note_on_c, 2, 74, 61
4, 25920, Note_on_c, 2, 70, 61
4, 26108, Note_off_c, 2, 74, 64
4, 26108, Note_off_c, 2, 70, 64
4, 26112, Note_on_c, 2, 75, 61
4, 26112, Note_on_c, 2, 72, 61
4, 26492, Note_off_c, 2, 75, 64
4, 26492, Note_off_c, 2, 72, 64
4, 38464, Note_on_c, 2, 75, 80
4, 38464, Note_on_c, 2, 72, 80
4, 38464, Note_on_c, 2, 69, 80
4, 38464, Note_on_c, 2, 63, 80
4, 38968, Note_off_c, 2, 75, 64
4, 38968, Note_off_c, 2, 72, 64
4, 38968, Note_off_c, 2, 69, 64
4, 38968, Note_off_c, 2, 63, 64
4, 38976, Note_on_c, 2, 74, 80
4, 39036, Note_off_c, 2, 74, 64
4, 39040, Note_on_c, 2, 72, 80
4, 39100, Note_off_c, 2, 72, 64
4, 39104, Note_on_c, 2, 70, 80
4, 39164, Note_off_c, 2, 70, 64
4, 39168, Note_on_c, 2, 69, 80
4, 39356, Note_off_c, 2, 69, 64
4, 39360, Note_on_c, 2, 72, 80
4, 39548, Note_off_c, 2, 72, 64
4, 39552, Note_on_c, 2, 74, 80
4, 39740, Note_off_c, 2, 74, 64
4, 39744, Note_on_c, 2, 75, 80
4, 39932, Note_off_c, 2, 75, 64
4, 39936, Note_on_c, 2, 77, 80
4, 39936, Note_on_c, 2, 74, 80
4, 39936, Note_on_c, 2, 70, 80
4, 39936, Note_on_c, 2, 65, 80
4, 40508, Note_off_c, 2, 77, 64
4, 40508, Note_off_c, 2, 74, 64
4, 40508, Note_off_c, 2, 70, 64
4, 40508, Note_off_c, 2, 65, 64
4, 40512, Note_on_c, 2, 75, 80
4, 40572, Note_off_c, 2, 75, 64
4, 40576, Note_on_c, 2, 74, 80
4, 40636, Note_off_c, 2, 74, 64
4, 40640, Note_on_c, 2, 72, 80
4, 40700, Note_off_c, 2, 72, 64
4, 40704, Note_on_c, 2, 70, 80
4, 40892, Note_off_c, 2, 70, 64
4, 40896, Note_on_c, 2, 77, 61
4, 40896, Note_on_c, 2, 72, 61
4, 40896, Note_on_c, 2, 69, 61
4, 41084, Note_off_c, 2, 77, 64
4, 41084, Note_off_c, 2, 72, 64
4, 41084, Note_off_c, 2, 69, 64
4, 41088, Note_on_c, 2, 79, 61
4, 41088, Note_on_c, 2, 70, 61
4, 41088, Note_on_c, 2, 67, 61
4, 41276, Note_off_c, 2, 79, 64
4, 41276, Note_off_c, 2, 70, 64
4, 41276, Note_off_c, 2, 67, 64
4, 41280, Note_on_c, 2, 81, 61
4, 41280, Note_on_c, 2, 69, 61
4, 41280, Note_on_c, 2, 65, 61
4, 41468, Note_off_c, 2, 81, 64
4, 41468, Note_off_c, 2, 69, 64
4, 41468, Note_off_c, 2, 65, 64
4, 41472, Note_on_c, 2, 82, 61
4, 41664, Note_on_c, 2, 67, 61
4, 41664, Note_on_c, 2, 64, 61
4, 41852, Note_off_c, 2, 67, 64
4, 41852, Note_off_c, 2, 64, 64
4, 41856, Note_on_c, 2, 67, 61
4, 41856, Note_on_c, 2, 64, 61
4, 42044, Note_off_c, 2, 82, 64
4, 42044, Note_off_c, 2, 67, 64
4, 42044, Note_off_c, 2, 64, 64
4, 42048, Note_on_c, 2, 69, 61
4, 42048, Note_on_c, 2, 65, 61
4, 42048, Note_on_c, 2, 81, 61
4, 42108, Note_off_c, 2, 81, 64
4, 42112, Note_on_c, 2, 79, 61
4, 42172, Note_off_c, 2, 79, 64
4, 42176, Note_on_c, 2, 77, 61
4, 42236, Note_off_c, 2, 69, 64
4, 42236, Note_off_c, 2, 65, 64
4, 42236, Note_off_c, 2, 77, 64
4, 42240, Note_on_c, 2, 76, 61
4, 42240, Note_on_c, 2, 70, 61
4, 42240, Note_on_c, 2, 67, 61
4, 42428, Note_off_c, 2, 76, 64
4, 42428, Note_off_c, 2, 70, 64
4, 42428, Note_off_c, 2, 67, 64
4, 42432, Note_on_c, 2, 79, 61
4, 42432, Note_on_c, 2, 70, 61
4, 42432, Note_on_c, 2, 67, 61
4, 42620, Note_off_c, 2, 79, 64
4, 42620, Note_off_c, 2, 70, 64
4, 42620, Note_off_c, 2, 67, 64
4, 42624, Note_on_c, 2, 81, 61
4, 42624, Note_on_c, 2, 69, 61
4, 42624, Note_on_c, 2, 65, 61
4, 42812, Note_off_c, 2, 81, 64
4, 42812, Note_off_c, 2, 69, 64
4, 42812, Note_off_c, 2, 65, 64
4, 42816, Note_on_c, 2, 82, 61
4, 42816, Note_on_c, 2, 67, 61
4, 42816, Note_on_c, 2, 64, 61
4, 43004, Note_off_c, 2, 82, 64
4, 43004, Note_off_c, 2, 67, 64
4, 43004, Note_off_c, 2, 64, 64
4, 43008, Note_on_c, 2, 84, 61
4, 43200, Note_on_c, 2, 69, 61
4, 43200, Note_on_c, 2, 65, 61
4, 43388, Note_off_c, 2, 69, 64
4, 43388, Note_off_c, 2, 65, 64
4, 43392, Note_on_c, 2, 69, 61
4, 43392, Note_on_c, 2, 65, 61
4, 43580, Note_off_c, 2, 84, 64
4, 43580, Note_off_c, 2, 69, 64
4, 43580, Note_off_c, 2, 65, 64
4, 43584, Note_on_c, 2, 70, 61
4, 43584, Note_on_c, 2, 67, 61
4, 43584, Note_on_c, 2, 82, 61
4, 43644, Note_off_c, 2, 82, 64
4, 43648, Note_on_c, 2, 81, 61
4, 43708, Note_off_c, 2, 81, 64
4, 43712, Note_on_c, 2, 79, 61
4, 43772, Note_off_c, 2, 70, 64
4, 43772, Note_off_c, 2, 67, 64
4, 43772, Note_off_c, 2, 79, 64
4, 43776, Note_on_c, 2, 77, 61
4, 43776, Note_on_c, 2, 72, 61
4, 43776, Note_on_c, 2, 69, 61
4, 43964, Note_off_c, 2, 77, 64
4, 43964, Note_off_c, 2, 72, 64
4, 43964, Note_off_c, 2, 69, 64
4, 43968, Note_on_c, 2, 77, 80
4, 43968, Note_on_c, 2, 75, 80
4, 43968, Note_on_c, 2, 72, 80
4, 44156, Note_off_c, 2, 77, 64
4, 44156, Note_off_c, 2, 75, 64
4, 44156, Note_off_c, 2, 72, 64
4, 44160, Note_on_c, 2, 77, 80
4, 44160, Note_on_c, 2, 89, 80
4, 44348, Note_off_c, 2, 77, 64
4, 44348, Note_off_c, 2, 89, 64
4, 44352, Note_on_c, 2, 89, 80
4, 44352, Note_on_c, 2, 77, 80
4, 44444, Note_off_c, 2, 89, 64
4, 44444, Note_off_c, 2, 77, 64
4, 44544, Note_on_c, 2, 89, 80
4, 44544, Note_on_c, 2, 82, 80
4, 44544, Note_on_c, 2, 77, 80
4, 45308, Note_off_c, 2, 89, 64
4, 45308, Note_off_c, 2, 82, 64
4, 45308, Note_off_c, 2, 77, 64
4, 45312, Note_on_c, 2, 88, 80
4, 45312, Note_on_c, 2, 76, 80
4, 45312, Note_on_c, 2, 82, 80
4, 45500, Note_off_c, 2, 88, 64
4, 45500, Note_off_c, 2, 76, 64
4, 45504, Note_on_c, 2, 89, 80
4, 45504, Note_on_c, 2, 77, 80
4, 45692, Note_off_c, 2, 82, 64
4, 45692, Note_off_c, 2, 89, 64
4, 45692, Note_off_c, 2, 77, 64
4, 45696, Note_on_c, 2, 88, 80
4, 45696, Note_on_c, 2, 76, 80
4, 45696, Note_on_c, 2, 82, 80
4, 45884, Note_off_c, 2, 88, 64
4, 45884, Note_off_c, 2, 76, 64
4, 45888, Note_on_c, 2, 89, 80
4, 45888, Note_on_c, 2, 77, 80
4, 46076, Note_off_c, 2, 82, 64
4, 46076, Note_off_c, 2, 89, 64
4, 46076, Note_off_c, 2, 77, 64
4, 46080, Note_on_c, 2, 91, 80
4, 46080, Note_on_c, 2, 79, 80
4, 46080, Note_on_c, 2, 82, 80
4, 46268, Note_off_c, 2, 91, 64
4, 46268, Note_off_c, 2, 79, 64
4, 46272, Note_on_c, 2, 89, 80
4, 46272, Note_on_c, 2, 77, 80
4, 46460, Note_off_c, 2, 89, 64
4, 46460, Note_off_c, 2, 77, 64
4, 46464, Note_on_c, 2, 87, 80
4, 46464, Note_on_c, 2, 75, 80
4, 46652, Note_off_c, 2, 87, 64
4, 46652, Note_off_c, 2, 75, 64
4, 46656, Note_on_c, 2, 86, 80
4, 46656, Note_on_c, 2, 74, 80
4, 46844, Note_off_c, 2, 82, 64
4, 46844, Note_off_c, 2, 86, 64
4, 46844, Note_off_c, 2, 74, 64
4, 46848, Note_on_c, 2, 86, 80
4, 46848, Note_on_c, 2, 82, 80
4, 46848, Note_on_c, 2, 74, 80
4, 47032, Note_off_c, 2, 86, 64
4, 47032, Note_off_c, 2, 82, 64
4, 47032, Note_off_c, 2, 74, 64
4, 47040, Note_on_c, 2, 75, 80
4, 47080, Note_off_c, 2, 75, 64
4, 47088, Note_on_c, 2, 74, 80
4, 47128, Note_off_c, 2, 74, 64
4, 47136, Note_on_c, 2, 72, 80
4, 47176, Note_off_c, 2, 72, 64
4, 47184, Note_on_c, 2, 75, 80
4, 47224, Note_off_c, 2, 75, 64
4, 47232, Note_on_c, 2, 77, 80
4, 47420, Note_off_c, 2, 77, 64
4, 47424, Note_on_c, 2, 74, 80
4, 47612, Note_off_c, 2, 74, 64
4, 47616, Note_on_c, 2, 62, 61
4, 47616, Note_on_c, 2, 70, 61
4, 47708, Note_off_c, 2, 62, 64
4, 47804, Note_off_c, 2, 70, 64
4, 47808, Note_on_c, 2, 58, 61
4, 47900, Note_off_c, 2, 58, 64
4, 48000, Note_on_c, 2, 70, 61
4, 48000, Note_on_c, 2, 62, 61
4, 48092, Note_off_c, 2, 62, 64
4, 48188, Note_off_c, 2, 70, 64
4, 48192, Note_on_c, 2, 58, 61
4, 48284, Note_off_c, 2, 58, 64
4, 48384, Note_on_c, 2, 65, 61
4, 48384, Note_on_c, 2, 60, 61
4, 48476, Note_off_c, 2, 60, 64
4, 48572, Note_off_c, 2, 65, 64
4, 48576, Note_on_c, 2, 57, 61
4, 48668, Note_off_c, 2, 57, 64
4, 48768, Note_on_c, 2, 65, 61
4, 48768, Note_on_c, 2, 60, 61
4, 48860, Note_off_c, 2, 60, 64
4, 48956, Note_off_c, 2, 65, 64
4, 48960, Note_on_c, 2, 57, 61
4, 49052, Note_off_c, 2, 57, 64
4, 49152, Note_on_c, 2, 74, 61
4, 49152, Note_on_c, 2, 71, 61
4, 49152, Note_on_c, 2, 62, 61
4, 49916, Note_off_c, 2, 74, 64
4, 49916, Note_off_c, 2, 71, 64
4, 49916, Note_off_c, 2, 62, 64
4, 49920, Note_on_c, 2, 75, 65
4, 49920, Note_on_c, 2, 72, 65
4, 49920, Note_on_c, 2, 63, 65
4, 50684, Note_off_c, 2, 75, 64
4, 50684, Note_off_c, 2, 72, 64
4, 50684, Note_off_c, 2, 63, 64
4, 50688, Note_on_c, 2, 77, 71
4, 50688, Note_on_c, 2, 74, 71
4, 50688, Note_on_c, 2, 65, 71
4, 51452, Note_off_c, 2, 77, 64
4, 51452, Note_off_c, 2, 74, 64
4, 51452, Note_off_c, 2, 65, 64
4, 51456, Note_on_c, 2, 79, 76
4, 51456, Note_on_c, 2, 75, 76
4, 51456, Note_on_c, 2, 67, 76
4, 52220, Note_off_c, 2, 79, 64
4, 52220, Note_off_c, 2, 75, 64
4, 52220, Note_off_c, 2, 67, 64
4, 52224, Note_on_c, 2, 81, 80
4, 52224, Note_on_c, 2, 75, 80
4, 52224, Note_on_c, 2, 69, 80
4, 52988, Note_off_c, 2, 81, 64
4, 52988, Note_off_c, 2, 75, 64
4, 52988, Note_off_c, 2, 69, 64
4, 52992, Note_on_c, 2, 84, 80
4, 52992, Note_on_c, 2, 72, 80
4, 53180, Note_off_c, 2, 84, 64
4, 53180, Note_off_c, 2, 72, 64
4, 53184, Note_on_c, 2, 82, 80
4, 53184, Note_on_c, 2, 70, 80
4, 53372, Note_off_c, 2, 82, 64
4, 53372, Note_off_c, 2, 70, 64
4, 53376, Note_on_c, 2, 81, 80
4, 53376, Note_on_c, 2, 69, 80
4, 53564, Note_off_c, 2, 81, 64
4, 53564, Note_off_c, 2, 69, 64
4, 53568, Note_on_c, 2, 79, 80
4, 53568, Note_on_c, 2, 67, 80
4, 53756, Note_off_c, 2, 79, 64
4, 53756, Note_off_c, 2, 67, 64
4, 53760, Note_on_c, 2, 77, 80
4, 53760, Note_on_c, 2, 70, 80
4, 53760, Note_on_c, 2, 65, 80
4, 53948, Note_off_c, 2, 77, 64
4, 53948, Note_off_c, 2, 70, 64
4, 53948, Note_off_c, 2, 65, 64
4, 53952, Note_on_c, 2, 76, 80
4, 53952, Note_on_c, 2, 64, 80
4, 54140, Note_off_c, 2, 76, 64
4, 54140, Note_off_c, 2, 64, 64
4, 54144, Note_on_c, 2, 75, 80
4, 54144, Note_on_c, 2, 67, 80
4, 54332, Note_off_c, 2, 75, 64
4, 54332, Note_off_c, 2, 67, 64
4, 54336, Note_on_c, 2, 72, 80
4, 54336, Note_on_c, 2, 63, 80
4, 54524, Note_off_c, 2, 72, 64
4, 54524, Note_off_c, 2, 63, 64
4, 54528, Note_on_c, 2, 70, 80
4, 54528, Note_on_c, 2, 62, 80
4, 54816, Note_on_c, 2, 74, 91
4, 54908, Note_off_c, 2, 70, 64
4, 54908, Note_off_c, 2, 62, 64
4, 54908, Note_off_c, 2, 74, 64
4, 54912, Note_on_c, 2, 72, 80
4, 54912, Note_on_c, 2, 63, 80
4, 54912, Note_on_c, 2, 69, 80
4, 55292, Note_off_c, 2, 72, 64
4, 55292, Note_off_c, 2, 63, 64
4, 55292, Note_off_c, 2, 69, 64
4, 55296, Note_on_c, 2, 70, 85
4, 55296, Note_on_c, 2, 65, 85
4, 55296, Note_on_c, 2, 62, 85
4, 55676, Note_off_c, 2, 70, 64
4, 55676, Note_off_c, 2, 65, 64
4, 55676, Note_off_c, 2, 62, 64
4, 56064, Note_on_c, 2, 71, 61
4, 56252, Note_off_c, 2, 71, 64
4, 56256, Note_on_c, 2, 72, 61
4, 56444, Note_off_c, 2, 72, 64
4, 56448, Note_on_c, 2, 74, 61
4, 56636, Note_off_c, 2, 74, 64
4, 56640, Note_on_c, 2, 75, 61
4, 56828, Note_off_c, 2, 75, 64
4, 56832, Note_on_c, 2, 79, 61
4, 57020, Note_off_c, 2, 79, 64
4, 57024, Note_on_c, 2, 77, 61
4, 57212, Note_off_c, 2, 77, 64
4, 57600, Note_on_c, 2, 71, 61
4, 57788, Note_off_c, 2, 71, 64
4, 57792, Note_on_c, 2, 72, 61
4, 57980, Note_off_c, 2, 72, 64
4, 57984, Note_on_c, 2, 74, 61
4, 58172, Note_off_c, 2, 74, 64
4, 58176, Note_on_c, 2, 75, 61
4, 58364, Note_off_c, 2, 75, 64
4, 58368, Note_on_c, 2, 79, 61
4, 58556, Note_off_c, 2, 79, 64
4, 58560, Note_on_c, 2, 77, 61
4, 58748, Note_off_c, 2, 77, 64
4, 59136, Note_on_c, 2, 76, 61
4, 59136, Note_on_c, 2, 64, 61
4, 59324, Note_off_c, 2, 76, 64
4, 59324, Note_off_c, 2, 64, 64
4, 59328, Note_on_c, 2, 77, 61
4, 59328, Note_on_c, 2, 65, 61
4, 59516, Note_off_c, 2, 77, 64
4, 59516, Note_off_c, 2, 65, 64
4, 59520, Note_on_c, 2, 79, 61
4, 59520, Note_on_c, 2, 67, 61
4, 59708, Note_off_c, 2, 79, 64
4, 59708, Note_off_c, 2, 67, 64
4, 59712, Note_on_c, 2, 81, 61
4, 59712, Note_on_c, 2, 69, 61
4, 59900, Note_off_c, 2, 81, 64
4, 59900, Note_off_c, 2, 69, 64
4, 59904, Note_on_c, 2, 84, 61
4, 59904, Note_on_c, 2, 75, 61
4, 59904, Note_on_c, 2, 72, 61
4, 60668, Note_off_c, 2, 84, 64
4, 60668, Note_off_c, 2, 75, 64
4, 60668, Note_off_c, 2, 72, 64
4, 60672, Note_on_c, 2, 82, 61
4, 60672, Note_on_c, 2, 74, 61
4, 60672, Note_on_c, 2, 70, 61
4, 61052, Note_off_c, 2, 82, 64
4, 61052, Note_off_c, 2, 74, 64
4, 61052, Note_off_c, 2, 70, 64
4, 61632, Note_on_c, 2, 65, 58
4, 61632, Note_on_c, 2, 62, 58
4, 61632, Note_on_c, 2, 58, 58
4, 61820, Note_off_c, 2, 65, 64
4, 61820, Note_off_c, 2, 62, 64
4, 61820, Note_off_c, 2, 58, 64
4, 61824, Note_on_c, 2, 65, 58
4, 61824, Note_on_c, 2, 62, 58
4, 61824, Note_on_c, 2, 58, 58
4, 62012, Note_off_c, 2, 65, 64
4, 62012, Note_off_c, 2, 62, 64
4, 62012, Note_off_c, 2, 58, 64
4, 62016, Note_on_c, 2, 65, 58
4, 62016, Note_on_c, 2, 62, 58
4, 62016, Note_on_c, 2, 58, 58
4, 62204, Note_off_c, 2, 65, 64
4, 62204, Note_off_c, 2, 62, 64
4, 62204, Note_off_c, 2, 58, 64
4, 62208, Note_on_c, 2, 65, 58
4, 62208, Note_on_c, 2, 62, 58
4, 62208, Note_on_c, 2, 58, 58
4, 62396, Note_off_c, 2, 65, 64
4, 62396, Note_off_c, 2, 62, 64
4, 62396, Note_off_c, 2, 58, 64
4, 62400, Note_on_c, 2, 65, 58
4, 62400, Note_on_c, 2, 62, 58
4, 62400, Note_on_c, 2, 58, 58
4, 62588, Note_off_c, 2, 65, 64
4, 62588, Note_off_c, 2, 62, 64
4, 62588, Note_off_c, 2, 58, 64
4, 62592, Note_on_c, 2, 65, 58
4, 62592, Note_on_c, 2, 62, 58
4, 62592, Note_on_c, 2, 58, 58
4, 62780, Note_off_c, 2, 65, 64
4, 62780, Note_off_c, 2, 62, 64
4, 62780, Note_off_c, 2, 58, 64
4, 62784, Note_on_c, 2, 65, 58
4, 62784, Note_on_c, 2, 62, 58
4, 62784, Note_on_c, 2, 58, 58
4, 62972, Note_off_c, 2, 65, 64
4, 62972, Note_off_c, 2, 62, 64
4, 62972, Note_off_c, 2, 58, 64
4, 63168, Note_on_c, 2, 65, 58
4, 63168, Note_on_c, 2, 63, 58
4, 63168, Note_on_c, 2, 57, 58
4, 63356, Note_off_c, 2, 65, 64
4, 63356, Note_off_c, 2, 63, 64
4, 63356, Note_off_c, 2, 57, 64
4, 63360, Note_on_c, 2, 65, 58
4, 63360, Note_on_c, 2, 62, 58
4, 63360, Note_on_c, 2, 58, 58
4, 63548, Note_off_c, 2, 65, 64
4, 63548, Note_off_c, 2, 62, 64
4, 63548, Note_off_c, 2, 58, 64
4, 63552, Note_on_c, 2, 65, 58
4, 63552, Note_on_c, 2, 62, 58
4, 63552, Note_on_c, 2, 58, 58
4, 63740, Note_off_c, 2, 65, 64
4, 63740, Note_off_c, 2, 62, 64
4, 63740, Note_off_c, 2, 58, 64
4, 63744, Note_on_c, 2, 65, 58
4, 63744, Note_on_c, 2, 62, 58
4, 63744, Note_on_c, 2, 58, 58
4, 63932, Note_off_c, 2, 65, 64
4, 63932, Note_off_c, 2, 62, 64
4, 63932, Note_off_c, 2, 58, 64
4, 63936, Note_on_c, 2, 65, 58
4, 63936, Note_on_c, 2, 62, 58
4, 63936, Note_on_c, 2, 58, 58
4, 64124, Note_off_c, 2, 65, 64
4, 64124, Note_off_c, 2, 62, 64
4, 64124, Note_off_c, 2, 58, 64
4, 64128, Note_on_c, 2, 65, 58
4, 64128, Note_on_c, 2, 62, 58
4, 64128, Note_on_c, 2, 58, 58
4, 64316, Note_off_c, 2, 65, 64
4, 64316, Note_off_c, 2, 62, 64
4, 64316, Note_off_c, 2, 58, 64
4, 64320, Note_on_c, 2, 65, 58
4, 64320, Note_on_c, 2, 62, 58
4, 64320, Note_on_c, 2, 58, 58
4, 64508, Note_off_c, 2, 65, 64
4, 64508, Note_off_c, 2, 62, 64
4, 64508, Note_off_c, 2, 58, 64
4, 64704, Note_on_c, 2, 65, 58
4, 64704, Note_on_c, 2, 62, 58
4, 64704, Note_on_c, 2, 58, 58
4, 64892, Note_off_c, 2, 65, 64
4, 64892, Note_off_c, 2, 62, 64
4, 64892, Note_off_c, 2, 58, 64
4, 64896, Note_on_c, 2, 65, 58
4, 64896, Note_on_c, 2, 62, 58
4, 64896, Note_on_c, 2, 58, 58
4, 65084, Note_off_c, 2, 65, 64
4, 65084, Note_off_c, 2, 62, 64
4, 65084, Note_off_c, 2, 58, 64
4, 65088, Note_on_c, 2, 65, 58
4, 65088, Note_on_c, 2, 62, 58
4, 65088, Note_on_c, 2, 58, 58
4, 65276, Note_off_c, 2, 65, 64
4, 65276, Note_off_c, 2, 62, 64
4, 65276, Note_off_c, 2, 58, 64
4, 65280, Note_on_c, 2, 65, 58
4, 65280, Note_on_c, 2, 62, 58
4, 65280, Note_on_c, 2, 58, 58
4, 65468, Note_off_c, 2, 65, 64
4, 65468, Note_off_c, 2, 62, 64
4, 65468, Note_off_c, 2, 58, 64
4, 65472, Note_on_c, 2, 65, 58
4, 65472, Note_on_c, 2, 62, 58
4, 65472, Note_on_c, 2, 58, 58
4, 65660, Note_off_c, 2, 65, 64
4, 65660, Note_off_c, 2, 62, 64
4, 65660, Note_off_c, 2, 58, 64
4, 65664, Note_on_c, 2, 65, 58
4, 65664, Note_on_c, 2, 62, 58
4, 65664, Note_on_c, 2, 58, 58
4, 65852, Note_off_c, 2, 65, 64
4, 65852, Note_off_c, 2, 62, 64
4, 65852, Note_off_c, 2, 58, 64
4, 65856, Note_on_c, 2, 65, 58
4, 65856, Note_on_c, 2, 62, 58
4, 65856, Note_on_c, 2, 58, 58
4, 66044, Note_off_c, 2, 65, 64
4, 66044, Note_off_c, 2, 62, 64
4, 66044, Note_off_c, 2, 58, 64
4, 66240, Note_on_c, 2, 69, 58
4, 66240, Note_on_c, 2, 65, 58
4, 66240, Note_on_c, 2, 63, 58
4, 66240, Note_on_c, 2, 60, 58
4, 66428, Note_off_c, 2, 69, 64
4, 66428, Note_off_c, 2, 65, 64
4, 66428, Note_off_c, 2, 63, 64
4, 66428, Note_off_c, 2, 60, 64
4, 66432, Note_on_c, 2, 70, 58
4, 66432, Note_on_c, 2, 65, 58
4, 66432, Note_on_c, 2, 62, 58
4, 66432, Note_on_c, 2, 58, 58
4, 66620, Note_off_c, 2, 70, 64
4, 66620, Note_off_c, 2, 65, 64
4, 66620, Note_off_c, 2, 62, 64
4, 66620, Note_off_c, 2, 58, 64
4, 66624, Note_on_c, 2, 70, 58
4, 66624, Note_on_c, 2, 65, 58
4, 66624, Note_on_c, 2, 62, 58
4, 66624, Note_on_c, 2, 58, 58
4, 66812, Note_off_c, 2, 70, 64
4, 66812, Note_off_c, 2, 65, 64
4, 66812, Note_off_c, 2, 62, 64
4, 66812, Note_off_c, 2, 58, 64
4, 66816, Note_on_c, 2, 70, 58
4, 66816, Note_on_c, 2, 65, 58
4, 66816, Note_on_c, 2, 62, 58
4, 66816, Note_on_c, 2, 58, 58
4, 67004, Note_off_c, 2, 70, 64
4, 67004, Note_off_c, 2, 65, 64
4, 67004, Note_off_c, 2, 62, 64
4, 67004, Note_off_c, 2, 58, 64
4, 67008, Note_on_c, 2, 70, 58
4, 67008, Note_on_c, 2, 62, 58
4, 67008, Note_on_c, 2, 58, 58
4, 67196, Note_off_c, 2, 70, 64
4, 67196, Note_off_c, 2, 62, 64
4, 67196, Note_off_c, 2, 58, 64
4, 67200, Note_on_c, 2, 69, 58
4, 67200, Note_on_c, 2, 63, 58
4, 67200, Note_on_c, 2, 60, 58
4, 67388, Note_off_c, 2, 69, 64
4, 67388, Note_off_c, 2, 63, 64
4, 67388, Note_off_c, 2, 60, 64
4, 67392, Note_on_c, 2, 68, 58
4, 67392, Note_on_c, 2, 65, 58
4, 67392, Note_on_c, 2, 62, 58
4, 67580, Note_off_c, 2, 68, 64
4, 67580, Note_off_c, 2, 65, 64
4, 67580, Note_off_c, 2, 62, 64
4, 67776, Note_on_c, 2, 67, 58
4, 67776, Note_on_c, 2, 63, 58
4, 67776, Note_on_c, 2, 58, 58
4, 67964, Note_off_c, 2, 67, 64
4, 67964, Note_off_c, 2, 63, 64
4, 67964, Note_off_c, 2, 58, 64
4, 67968, Note_on_c, 2, 67, 58
4, 67968, Note_on_c, 2, 63, 58
4, 67968, Note_on_c, 2, 58, 58
4, 68156, Note_off_c, 2, 67, 64
4, 68156, Note_off_c, 2, 63, 64
4, 68156, Note_off_c, 2, 58, 64
4, 68160, Note_on_c, 2, 67, 58
4, 68160, Note_on_c, 2, 63, 58
4, 68160, Note_on_c, 2, 58, 58
4, 68348, Note_off_c, 2, 67, 64
4, 68348, Note_off_c, 2, 63, 64
4, 68348, Note_off_c, 2, 58, 64
4, 68352, Note_on_c, 2, 67, 58
4, 68352, Note_on_c, 2, 63, 58
4, 68352, Note_on_c, 2, 58, 58
4, 68540, Note_off_c, 2, 67, 64
4, 68540, Note_off_c, 2, 63, 64
4, 68540, Note_off_c, 2, 58, 64
4, 68544, Note_on_c, 2, 67, 58
4, 68544, Note_on_c, 2, 63, 58
4, 68544, Note_on_c, 2, 58, 58
4, 68732, Note_off_c, 2, 67, 64
4, 68732, Note_off_c, 2, 63, 64
4, 68732, Note_off_c, 2, 58, 64
4, 68736, Note_on_c, 2, 67, 58
4, 68736, Note_on_c, 2, 63, 58
4, 68736, Note_on_c, 2, 58, 58
4, 68924, Note_off_c, 2, 67, 64
4, 68924, Note_off_c, 2, 63, 64
4, 68924, Note_off_c, 2, 58, 64
4, 68928, Note_on_c, 2, 67, 58
4, 68928, Note_on_c, 2, 63, 58
4, 68928, Note_on_c, 2, 58, 58
4, 69116, Note_off_c, 2, 67, 64
4, 69116, Note_off_c, 2, 63, 64
4, 69116, Note_off_c, 2, 58, 64
4, 69296, Note_on_c, 2, 62, 58
4, 69312, Note_on_c, 2, 65, 58
4, 69312, Note_on_c, 2, 58, 58
4, 69484, Note_off_c, 2, 62, 64
4, 69500, Note_off_c, 2, 65, 64
4, 69500, Note_off_c, 2, 58, 64
4, 69504, Note_on_c, 2, 65, 58
4, 69504, Note_on_c, 2, 62, 58
4, 69504, Note_on_c, 2, 58, 58
4, 69692, Note_off_c, 2, 65, 64
4, 69692, Note_off_c, 2, 62, 64
4, 69692, Note_off_c, 2, 58, 64
4, 69696, Note_on_c, 2, 65, 58
4, 69696, Note_on_c, 2, 62, 58
4, 69696, Note_on_c, 2, 58, 58
4, 69884, Note_off_c, 2, 65, 64
4, 69884, Note_off_c, 2, 62, 64
4, 69884, Note_off_c, 2, 58, 64
4, 69888, Note_on_c, 2, 65, 58
4, 69888, Note_on_c, 2, 62, 58
4, 69888, Note_on_c, 2, 58, 58
4, 70076, Note_off_c, 2, 65, 64
4, 70076, Note_off_c, 2, 62, 64
4, 70076, Note_off_c, 2, 58, 64
4, 70080, Note_on_c, 2, 65, 58
4, 70080, Note_on_c, 2, 62, 58
4, 70080, Note_on_c, 2, 58, 58
4, 70268, Note_off_c, 2, 65, 64
4, 70268, Note_off_c, 2, 62, 64
4, 70268, Note_off_c, 2, 58, 64
4, 70272, Note_on_c, 2, 65, 58
4, 70272, Note_on_c, 2, 62, 58
4, 70272, Note_on_c, 2, 58, 58
4, 70460, Note_off_c, 2, 65, 64
4, 70460, Note_off_c, 2, 62, 64
4, 70460, Note_off_c, 2, 58, 64
4, 70464, Note_on_c, 2, 65, 58
4, 70464, Note_on_c, 2, 62, 58
4, 70464, Note_on_c, 2, 58, 58
4, 70652, Note_off_c, 2, 65, 64
4, 70652, Note_off_c, 2, 62, 64
4, 70652, Note_off_c, 2, 58, 64
4, 70848, Note_on_c, 2, 65, 58
4, 70848, Note_on_c, 2, 63, 58
4, 70848, Note_on_c, 2, 60, 58
4, 70848, Note_on_c, 2, 57, 58
4, 71036, Note_off_c, 2, 65, 64
4, 71036, Note_off_c, 2, 63, 64
4, 71036, Note_off_c, 2, 60, 64
4, 71036, Note_off_c, 2, 57, 64
4, 71040, Note_on_c, 2, 65, 58
4, 71040, Note_on_c, 2, 63, 58
4, 71040, Note_on_c, 2, 60, 58
4, 71040, Note_on_c, 2, 57, 58
4, 71228, Note_off_c, 2, 65, 64
4, 71228, Note_off_c, 2, 63, 64
4, 71228, Note_off_c, 2, 60, 64
4, 71228, Note_off_c, 2, 57, 64
4, 71232, Note_on_c, 2, 65, 58
4, 71232, Note_on_c, 2, 63, 58
4, 71232, Note_on_c, 2, 60, 58
4, 71232, Note_on_c, 2, 57, 58
4, 71420, Note_off_c, 2, 65, 64
4, 71420, Note_off_c, 2, 63, 64
4, 71420, Note_off_c, 2, 60, 64
4, 71420, Note_off_c, 2, 57, 64
4, 71424, Note_on_c, 2, 65, 58
4, 71424, Note_on_c, 2, 63, 58
4, 71424, Note_on_c, 2, 60, 58
4, 71424, Note_on_c, 2, 57, 58
4, 71612, Note_off_c, 2, 65, 64
4, 71612, Note_off_c, 2, 63, 64
4, 71612, Note_off_c, 2, 60, 64
4, 71612, Note_off_c, 2, 57, 64
4, 71616, Note_on_c, 2, 65, 58
4, 71616, Note_on_c, 2, 63, 58
4, 71616, Note_on_c, 2, 60, 58
4, 71616, Note_on_c, 2, 57, 58
4, 71804, Note_off_c, 2, 65, 64
4, 71804, Note_off_c, 2, 63, 64
4, 71804, Note_off_c, 2, 60, 64
4, 71804, Note_off_c, 2, 57, 64
4, 71808, Note_on_c, 2, 65, 58
4, 71808, Note_on_c, 2, 63, 58
4, 71808, Note_on_c, 2, 60, 58
4, 71808, Note_on_c, 2, 57, 58
4, 71996, Note_off_c, 2, 65, 64
4, 71996, Note_off_c, 2, 63, 64
4, 71996, Note_off_c, 2, 60, 64
4, 71996, Note_off_c, 2, 57, 64
4, 72000, Note_on_c, 2, 65, 58
4, 72000, Note_on_c, 2, 63, 58
4, 72000, Note_on_c, 2, 60, 58
4, 72000, Note_on_c, 2, 57, 58
4, 72188, Note_off_c, 2, 65, 64
4, 72188, Note_off_c, 2, 63, 64
4, 72188, Note_off_c, 2, 60, 64
4, 72188, Note_off_c, 2, 57, 64
4, 72384, Note_on_c, 2, 65, 58
4, 72384, Note_on_c, 2, 62, 58
4, 72384, Note_on_c, 2, 58, 58
4, 72572, Note_off_c, 2, 65, 64
4, 72572, Note_off_c, 2, 62, 64
4, 72572, Note_off_c, 2, 58, 64
4, 72576, Note_on_c, 2, 65, 58
4, 72576, Note_on_c, 2, 62, 58
4, 72576, Note_on_c, 2, 58, 58
4, 72764, Note_off_c, 2, 65, 64
4, 72764, Note_off_c, 2, 62, 64
4, 72764, Note_off_c, 2, 58, 64
4, 72768, Note_on_c, 2, 65, 58
4, 72768, Note_on_c, 2, 62, 58
4, 72768, Note_on_c, 2, 58, 58
4, 72956, Note_off_c, 2, 65, 64
4, 72956, Note_off_c, 2, 62, 64
4, 72956, Note_off_c, 2, 58, 64
4, 72960, Note_on_c, 2, 65, 58
4, 72960, Note_on_c, 2, 62, 58
4, 72960, Note_on_c, 2, 58, 58
4, 73148, Note_off_c, 2, 65, 64
4, 73148, Note_off_c, 2, 62, 64
4, 73148, Note_off_c, 2, 58, 64
4, 73152, Note_on_c, 2, 70, 58
4, 73152, Note_on_c, 2, 62, 58
4, 73152, Note_on_c, 2, 58, 58
4, 73340, Note_off_c, 2, 70, 64
4, 73340, Note_off_c, 2, 62, 64
4, 73340, Note_off_c, 2, 58, 64
4, 73344, Note_on_c, 2, 60, 58
4, 73344, Note_on_c, 2, 63, 58
4, 73344, Note_on_c, 2, 69, 58
4, 73532, Note_off_c, 2, 60, 64
4, 73532, Note_off_c, 2, 63, 64
4, 73532, Note_off_c, 2, 69, 64
4, 73536, Note_on_c, 2, 68, 58
4, 73536, Note_on_c, 2, 65, 58
4, 73536, Note_on_c, 2, 62, 58
4, 73724, Note_off_c, 2, 68, 64
4, 73724, Note_off_c, 2, 65, 64
4, 73724, Note_off_c, 2, 62, 64
4, 73920, Note_on_c, 2, 67, 58
4, 73920, Note_on_c, 2, 63, 58
4, 73920, Note_on_c, 2, 60, 58
4, 74108, Note_off_c, 2, 67, 64
4, 74108, Note_off_c, 2, 63, 64
4, 74108, Note_off_c, 2, 60, 64
4, 74112, Note_on_c, 2, 67, 58
4, 74112, Note_on_c, 2, 63, 58
4, 74112, Note_on_c, 2, 60, 58
4, 74300, Note_off_c, 2, 67, 64
4, 74300, Note_off_c, 2, 63, 64
4, 74300, Note_off_c, 2, 60, 64
4, 74304, Note_on_c, 2, 67, 58
4, 74304, Note_on_c, 2, 63, 58
4, 74304, Note_on_c, 2, 60, 58
4, 74492, Note_off_c, 2, 67, 64
4, 74492, Note_off_c, 2, 63, 64
4, 74492, Note_off_c, 2, 60, 64
4, 74496, Note_on_c, 2, 67, 58
4, 74496, Note_on_c, 2, 63, 58
4, 74496, Note_on_c, 2, 60, 58
4, 74684, Note_off_c, 2, 67, 64
4, 74684, Note_off_c, 2, 63, 64
4, 74684, Note_off_c, 2, 60, 64
4, 74688, Note_on_c, 2, 67, 58
4, 74688, Note_on_c, 2, 63, 58
4, 74688, Note_on_c, 2, 60, 58
4, 74876, Note_off_c, 2, 67, 64
4, 74876, Note_off_c, 2, 63, 64
4, 74876, Note_off_c, 2, 60, 64
4, 74880, Note_on_c, 2, 67, 58
4, 74880, Note_on_c, 2, 60, 58
4, 74880, Note_on_c, 2, 63, 58
4, 75068, Note_off_c, 2, 67, 64
4, 75068, Note_off_c, 2, 60, 64
4, 75068, Note_off_c, 2, 63, 64
4, 75072, Note_on_c, 2, 67, 58
4, 75072, Note_on_c, 2, 63, 58
4, 75072, Note_on_c, 2, 60, 58
4, 75260, Note_off_c, 2, 67, 64
4, 75260, Note_off_c, 2, 63, 64
4, 75260, Note_off_c, 2, 60, 64
4, 75456, Note_on_c, 2, 65, 58
4, 75456, Note_on_c, 2, 62, 58
4, 75456, Note_on_c, 2, 58, 58
4, 75644, Note_off_c, 2, 65, 64
4, 75644, Note_off_c, 2, 62, 64
4, 75644, Note_off_c, 2, 58, 64
4, 75648, Note_on_c, 2, 65, 58
4, 75648, Note_on_c, 2, 62, 58
4, 75648, Note_on_c, 2, 58, 58
4, 75836, Note_off_c, 2, 65, 64
4, 75836, Note_off_c, 2, 62, 64
4, 75836, Note_off_c, 2, 58, 64
4, 75840, Note_on_c, 2, 65, 58
4, 75840, Note_on_c, 2, 62, 58
4, 75840, Note_on_c, 2, 58, 58
4, 76028, Note_off_c, 2, 65, 64
4, 76028, Note_off_c, 2, 62, 64
4, 76028, Note_off_c, 2, 58, 64
4, 76032, Note_on_c, 2, 65, 58
4, 76032, Note_on_c, 2, 62, 58
4, 76032, Note_on_c, 2, 58, 58
4, 76220, Note_off_c, 2, 65, 64
4, 76220, Note_off_c, 2, 62, 64
4, 76220, Note_off_c, 2, 58, 64
4, 76224, Note_on_c, 2, 65, 58
4, 76224, Note_on_c, 2, 62, 58
4, 76224, Note_on_c, 2, 58, 58
4, 76412, Note_off_c, 2, 65, 64
4, 76412, Note_off_c, 2, 62, 64
4, 76412, Note_off_c, 2, 58, 64
4, 76416, Note_on_c, 2, 65, 58
4, 76416, Note_on_c, 2, 58, 58
4, 76416, Note_on_c, 2, 62, 58
4, 76604, Note_off_c, 2, 65, 64
4, 76604, Note_off_c, 2, 58, 64
4, 76604, Note_off_c, 2, 62, 64
4, 76608, Note_on_c, 2, 65, 58
4, 76608, Note_on_c, 2, 62, 58
4, 76608, Note_on_c, 2, 58, 58
4, 76796, Note_off_c, 2, 65, 64
4, 76796, Note_off_c, 2, 62, 64
4, 76796, Note_off_c, 2, 58, 64
4, 76992, Note_on_c, 2, 69, 58
4, 76992, Note_on_c, 2, 63, 58
4, 76992, Note_on_c, 2, 60, 58
4, 77180, Note_off_c, 2, 69, 64
4, 77180, Note_off_c, 2, 63, 64
4, 77180, Note_off_c, 2, 60, 64
4, 77184, Note_on_c, 2, 69, 58
4, 77184, Note_on_c, 2, 63, 58
4, 77184, Note_on_c, 2, 60, 58
4, 77372, Note_off_c, 2, 69, 64
4, 77372, Note_off_c, 2, 63, 64
4, 77372, Note_off_c, 2, 60, 64
4, 77376, Note_on_c, 2, 69, 58
4, 77376, Note_on_c, 2, 63, 58
4, 77376, Note_on_c, 2, 60, 58
4, 77564, Note_off_c, 2, 69, 64
4, 77564, Note_off_c, 2, 63, 64
4, 77564, Note_off_c, 2, 60, 64
4, 77568, Note_on_c, 2, 69, 58
4, 77568, Note_on_c, 2, 63, 58
4, 77568, Note_on_c, 2, 60, 58
4, 77756, Note_off_c, 2, 69, 64
4, 77756, Note_off_c, 2, 63, 64
4, 77756, Note_off_c, 2, 60, 64
4, 77760, Note_on_c, 2, 69, 58
4, 77760, Note_on_c, 2, 63, 58
4, 77760, Note_on_c, 2, 60, 58
4, 77948, Note_off_c, 2, 69, 64
4, 77948, Note_off_c, 2, 63, 64
4, 77948, Note_off_c, 2, 60, 64
4, 77952, Note_on_c, 2, 69, 58
4, 77952, Note_on_c, 2, 63, 58
4, 77952, Note_on_c, 2, 60, 58
4, 78140, Note_off_c, 2, 69, 64
4, 78140, Note_off_c, 2, 63, 64
4, 78140, Note_off_c, 2, 60, 64
4, 78144, Note_on_c, 2, 69, 58
4, 78144, Note_on_c, 2, 63, 58
4, 78144, Note_on_c, 2, 60, 58
4, 78332, Note_off_c, 2, 69, 64
4, 78332, Note_off_c, 2, 63, 64
4, 78332, Note_off_c, 2, 60, 64
4, 78336, Note_on_c, 2, 70, 58
4, 78336, Note_on_c, 2, 65, 58
4, 78336, Note_on_c, 2, 62, 58
4, 78336, Note_on_c, 2, 58, 58
4, 78524, Note_off_c, 2, 70, 64
4, 78524, Note_off_c, 2, 65, 64
4, 78524, Note_off_c, 2, 62, 64
4, 78524, Note_off_c, 2, 58, 64
4, 78528, Note_on_c, 2, 65, 58
4, 78528, Note_on_c, 2, 62, 58
4, 78716, Note_off_c, 2, 65, 64
4, 78716, Note_off_c, 2, 62, 64
4, 78720, Note_on_c, 2, 74, 58
4, 78720, Note_on_c, 2, 70, 58
4, 78720, Note_on_c, 2, 62, 58
4, 78908, Note_off_c, 2, 74, 64
4, 78908, Note_off_c, 2, 70, 64
4, 78912, Note_on_c, 2, 74, 58
4, 78912, Note_on_c, 2, 70, 58
4, 79100, Note_off_c, 2, 62, 64
4, 79100, Note_off_c, 2, 74, 64
4, 79100, Note_off_c, 2, 70, 64
4, 79104, Note_on_c, 2, 74, 58
4, 79104, Note_on_c, 2, 70, 58
4, 79104, Note_on_c, 2, 62, 58
4, 79292, Note_off_c, 2, 74, 64
4, 79292, Note_off_c, 2, 70, 64
4, 79292, Note_off_c, 2, 62, 64
4, 79296, Note_on_c, 2, 72, 58
4, 79296, Note_on_c, 2, 69, 58
4, 79296, Note_on_c, 2, 63, 58
4, 79484, Note_off_c, 2, 72, 64
4, 79484, Note_off_c, 2, 69, 64
4, 79484, Note_off_c, 2, 63, 64
4, 79488, Note_on_c, 2, 70, 58
4, 79488, Note_on_c, 2, 67, 58
4, 79488, Note_on_c, 2, 62, 58
4, 79676, Note_off_c, 2, 70, 64
4, 79676, Note_off_c, 2, 67, 64
4, 79676, Note_off_c, 2, 62, 64
4, 79680, Note_on_c, 2, 69, 58
4, 79680, Note_on_c, 2, 66, 58
4, 79680, Note_on_c, 2, 60, 58
4, 79868, Note_off_c, 2, 69, 64
4, 79868, Note_off_c, 2, 66, 64
4, 79868, Note_off_c, 2, 60, 64
4, 80064, Note_on_c, 2, 67, 58
4, 80064, Note_on_c, 2, 62, 58
4, 80064, Note_on_c, 2, 58, 58
4, 80252, Note_off_c, 2, 67, 64
4, 80252, Note_off_c, 2, 62, 64
4, 80252, Note_off_c, 2, 58, 64
4, 80256, Note_on_c, 2, 67, 58
4, 80256, Note_on_c, 2, 62, 58
4, 80256, Note_on_c, 2, 58, 58
4, 80444, Note_off_c, 2, 67, 64
4, 80444, Note_off_c, 2, 62, 64
4, 80444, Note_off_c, 2, 58, 64
4, 80448, Note_on_c, 2, 67, 58
4, 80448, Note_on_c, 2, 62, 58
4, 80448, Note_on_c, 2, 58, 58
4, 80636, Note_off_c, 2, 67, 64
4, 80636, Note_off_c, 2, 62, 64
4, 80636, Note_off_c, 2, 58, 64
4, 80640, Note_on_c, 2, 60, 58
4, 80640, Note_on_c, 2, 57, 58
4, 80640, Note_on_c, 2, 66, 58
4, 80828, Note_off_c, 2, 60, 64
4, 80828, Note_off_c, 2, 57, 64
4, 80828, Note_off_c, 2, 66, 64
4, 80832, Note_on_c, 2, 66, 58
4, 80832, Note_on_c, 2, 60, 58
4, 80832, Note_on_c, 2, 57, 58
4, 81020, Note_off_c, 2, 66, 64
4, 81020, Note_off_c, 2, 60, 64
4, 81020, Note_off_c, 2, 57, 64
4, 81024, Note_on_c, 2, 62, 58
4, 81024, Note_on_c, 2, 60, 58
4, 81024, Note_on_c, 2, 66, 58
4, 81212, Note_off_c, 2, 62, 64
4, 81212, Note_off_c, 2, 60, 64
4, 81212, Note_off_c, 2, 66, 64
4, 81216, Note_on_c, 2, 66, 58
4, 81216, Note_on_c, 2, 62, 58
4, 81216, Note_on_c, 2, 60, 58
4, 81404, Note_off_c, 2, 66, 64
4, 81404, Note_off_c, 2, 62, 64
4, 81404, Note_off_c, 2, 60, 64
4, 81600, Note_on_c, 2, 66, 58
4, 81600, Note_on_c, 2, 62, 58
4, 81788, Note_off_c, 2, 66, 64
4, 81792, Note_on_c, 2, 67, 58
4, 81980, Note_off_c, 2, 62, 64
4, 81980, Note_off_c, 2, 67, 64
4, 81984, Note_on_c, 2, 69, 58
4, 81984, Note_on_c, 2, 66, 58
4, 82172, Note_off_c, 2, 69, 64
4, 82172, Note_off_c, 2, 66, 64
4, 82176, Note_on_c, 2, 70, 58
4, 82176, Note_on_c, 2, 67, 58
4, 82364, Note_off_c, 2, 70, 64
4, 82364, Note_off_c, 2, 67, 64
4, 82368, Note_on_c, 2, 67, 58
4, 82368, Note_on_c, 2, 62, 58
4, 82556, Note_off_c, 2, 67, 64
4, 82556, Note_off_c, 2, 62, 64
4, 82560, Note_on_c, 2, 65, 58
4, 82560, Note_on_c, 2, 60, 58
4, 82748, Note_off_c, 2, 65, 64
4, 82748, Note_off_c, 2, 60, 64
4, 82752, Note_on_c, 2, 64, 58
4, 82752, Note_on_c, 2, 58, 58
4, 82940, Note_off_c, 2, 64, 64
4, 82940, Note_off_c, 2, 58, 64
4, 83136, Note_on_c, 2, 65, 58
4, 83136, Note_on_c, 2, 57, 58
4, 83324, Note_off_c, 2, 65, 64
4, 83324, Note_off_c, 2, 57, 64
4, 83328, Note_on_c, 2, 65, 58
4, 83328, Note_on_c, 2, 60, 58
4, 83328, Note_on_c, 2, 57, 58
4, 83516, Note_off_c, 2, 65, 64
4, 83516, Note_off_c, 2, 60, 64
4, 83516, Note_off_c, 2, 57, 64
4, 83520, Note_on_c, 2, 65, 58
4, 83520, Note_on_c, 2, 60, 58
4, 83520, Note_on_c, 2, 57, 58
4, 83708, Note_off_c, 2, 65, 64
4, 83708, Note_off_c, 2, 60, 64
4, 83708, Note_off_c, 2, 57, 64
4, 83712, Note_on_c, 2, 64, 58
4, 83712, Note_on_c, 2, 55, 58
4, 83712, Note_on_c, 2, 60, 58
4, 83900, Note_off_c, 2, 64, 64
4, 83900, Note_off_c, 2, 55, 64
4, 83900, Note_off_c, 2, 60, 64
4, 83904, Note_on_c, 2, 64, 58
4, 83904, Note_on_c, 2, 60, 58
4, 83904, Note_on_c, 2, 55, 58
4, 84092, Note_off_c, 2, 64, 64
4, 84092, Note_off_c, 2, 60, 64
4, 84092, Note_off_c, 2, 55, 64
4, 84096, Note_on_c, 2, 64, 58
4, 84096, Note_on_c, 2, 60, 58
4, 84096, Note_on_c, 2, 58, 58
4, 84284, Note_off_c, 2, 64, 64
4, 84284, Note_off_c, 2, 60, 64
4, 84284, Note_off_c, 2, 58, 64
4, 84288, Note_on_c, 2, 64, 58
4, 84288, Note_on_c, 2, 60, 58
4, 84288, Note_on_c, 2, 58, 58
4, 84476, Note_off_c, 2, 64, 64
4, 84476, Note_off_c, 2, 60, 64
4, 84476, Note_off_c, 2, 58, 64
4, 84672, Note_on_c, 2, 67, 58
4, 84672, Note_on_c, 2, 64, 58
4, 84672, Note_on_c, 2, 60, 58
4, 84860, Note_off_c, 2, 67, 64
4, 84860, Note_off_c, 2, 64, 64
4, 84864, Note_on_c, 2, 69, 58
4, 84864, Note_on_c, 2, 65, 58
4, 85052, Note_off_c, 2, 60, 64
4, 85052, Note_off_c, 2, 69, 64
4, 85052, Note_off_c, 2, 65, 64
4, 85056, Note_on_c, 2, 69, 58
4, 85056, Note_on_c, 2, 65, 58
4, 85056, Note_on_c, 2, 60, 58
4, 85244, Note_off_c, 2, 69, 64
4, 85244, Note_off_c, 2, 65, 64
4, 85248, Note_on_c, 2, 69, 58
4, 85248, Note_on_c, 2, 65, 58
4, 85436, Note_off_c, 2, 60, 64
4, 85436, Note_off_c, 2, 69, 64
4, 85436, Note_off_c, 2, 65, 64
4, 85440, Note_on_c, 2, 67, 58
4, 85440, Note_on_c, 2, 64, 58
4, 85628, Note_off_c, 2, 67, 64
4, 85628, Note_off_c, 2, 64, 64
4, 85632, Note_on_c, 2, 67, 58
4, 85632, Note_on_c, 2, 64, 58
4, 85820, Note_off_c, 2, 67, 64
4, 85820, Note_off_c, 2, 64, 64
4, 85824, Note_on_c, 2, 65, 58
4, 86012, Note_off_c, 2, 65, 64
4, 86208, Note_on_c, 2, 65, 58
4, 86208, Note_on_c, 2, 60, 58
4, 86396, Note_off_c, 2, 65, 64
4, 86396, Note_off_c, 2, 60, 64
4, 86400, Note_on_c, 2, 72, 58
4, 86400, Note_on_c, 2, 65, 58
4, 86588, Note_off_c, 2, 72, 64
4, 86588, Note_off_c, 2, 65, 64
4, 86592, Note_on_c, 2, 72, 58
4, 86592, Note_on_c, 2, 65, 58
4, 86780, Note_off_c, 2, 72, 64
4, 86780, Note_off_c, 2, 65, 64
4, 86976, Note_on_c, 2, 64, 58
4, 86976, Note_on_c, 2, 58, 58
4, 87164, Note_off_c, 2, 64, 64
4, 87164, Note_off_c, 2, 58, 64
4, 87168, Note_on_c, 2, 64, 58
4, 87168, Note_on_c, 2, 70, 58
4, 87356, Note_off_c, 2, 64, 64
4, 87356, Note_off_c, 2, 70, 64
4, 87360, Note_on_c, 2, 64, 58
4, 87360, Note_on_c, 2, 70, 58
4, 87548, Note_off_c, 2, 64, 64
4, 87548, Note_off_c, 2, 70, 64
4, 87744, Note_on_c, 2, 65, 58
4, 87744, Note_on_c, 2, 60, 58
4, 87932, Note_off_c, 2, 65, 64
4, 87932, Note_off_c, 2, 60, 64
4, 87936, Note_on_c, 2, 72, 58
4, 87936, Note_on_c, 2, 65, 58
4, 88124, Note_off_c, 2, 72, 64
4, 88124, Note_off_c, 2, 65, 64
4, 88128, Note_on_c, 2, 72, 58
4, 88128, Note_on_c, 2, 65, 58
4, 88316, Note_off_c, 2, 72, 64
4, 88316, Note_off_c, 2, 65, 64
4, 88512, Note_on_c, 2, 67, 58
4, 88512, Note_on_c, 2, 61, 58
4, 88700, Note_off_c, 2, 67, 64
4, 88700, Note_off_c, 2, 61, 64
4, 88704, Note_on_c, 2, 73, 58
4, 88704, Note_on_c, 2, 67, 58
4, 88892, Note_off_c, 2, 73, 64
4, 88892, Note_off_c, 2, 67, 64
4, 88896, Note_on_c, 2, 73, 58
4, 88896, Note_on_c, 2, 67, 58
4, 89084, Note_off_c, 2, 73, 64
4, 89084, Note_off_c, 2, 67, 64
4, 89280, Note_on_c, 2, 60, 58
4, 89468, Note_off_c, 2, 60, 64
4, 89472, Note_on_c, 2, 72, 58
4, 89472, Note_on_c, 2, 68, 58
4, 89660, Note_off_c, 2, 72, 64
4, 89660, Note_off_c, 2, 68, 64
4, 89664, Note_on_c, 2, 72, 58
4, 89664, Note_on_c, 2, 68, 58
4, 89852, Note_off_c, 2, 72, 64
4, 89852, Note_off_c, 2, 68, 64
4, 89856, Note_on_c, 2, 72, 58
4, 89856, Note_on_c, 2, 68, 58
4, 90044, Note_off_c, 2, 72, 64
4, 90044, Note_off_c, 2, 68, 64
4, 90048, Note_on_c, 2, 68, 58
4, 90048, Note_on_c, 2, 65, 58
4, 90224, Note_on_c, 2, 67, 58
4, 90236, Note_off_c, 2, 68, 64
4, 90236, Note_off_c, 2, 65, 64
4, 90240, Note_on_c, 2, 70, 58
4, 90412, Note_off_c, 2, 67, 64
4, 90416, Note_on_c, 2, 64, 58
4, 90428, Note_off_c, 2, 70, 64
4, 90432, Note_on_c, 2, 67, 58
4, 90604, Note_off_c, 2, 64, 64
4, 90620, Note_off_c, 2, 67, 64
4, 90624, Note_on_c, 2, 65, 58
4, 90624, Note_on_c, 2, 68, 58
4, 90812, Note_off_c, 2, 65, 64
4, 90816, Note_on_c, 2, 61, 58
4, 91004, Note_off_c, 2, 61, 64
4, 91008, Note_on_c, 2, 60, 58
4, 91196, Note_off_c, 2, 68, 64
4, 91196, Note_off_c, 2, 60, 64
4, 91200, Note_on_c, 2, 59, 58
4, 91200, Note_on_c, 2, 67, 58
4, 91292, Note_off_c, 2, 67, 64
4, 91296, Note_on_c, 2, 65, 58
4, 91388, Note_off_c, 2, 59, 64
4, 91388, Note_off_c, 2, 65, 64
4, 91392, Note_on_c, 2, 64, 58
4, 91392, Note_on_c, 2, 60, 58
4, 91772, Note_off_c, 2, 64, 64
4, 91772, Note_off_c, 2, 60, 64
4, 92160, Note_on_c, 2, 60, 58
4, 92352, Note_on_c, 2, 69, 58
4, 92352, Note_on_c, 2, 65, 58
4, 92540, Note_off_c, 2, 69, 64
4, 92540, Note_off_c, 2, 65, 64
4, 92544, Note_on_c, 2, 69, 58
4, 92544, Note_on_c, 2, 65, 58
4, 92732, Note_off_c, 2, 69, 64
4, 92732, Note_off_c, 2, 65, 64
4, 92736, Note_on_c, 2, 69, 58
4, 92736, Note_on_c, 2, 65, 58
4, 92924, Note_off_c, 2, 60, 64
4, 92924, Note_off_c, 2, 69, 64
4, 92924, Note_off_c, 2, 65, 64
4, 92928, Note_on_c, 2, 64, 58
4, 92928, Note_on_c, 2, 60, 58
4, 93120, Note_on_c, 2, 70, 58
4, 93120, Note_on_c, 2, 67, 58
4, 93308, Note_off_c, 2, 70, 64
4, 93308, Note_off_c, 2, 67, 64
4, 93312, Note_on_c, 2, 70, 58
4, 93312, Note_on_c, 2, 67, 58
4, 93500, Note_off_c, 2, 70, 64
4, 93500, Note_off_c, 2, 67, 64
4, 93504, Note_on_c, 2, 70, 58
4, 93504, Note_on_c, 2, 67, 58
4, 93692, Note_off_c, 2, 64, 64
4, 93692, Note_off_c, 2, 60, 64
4, 93692, Note_off_c, 2, 70, 64
4, 93692, Note_off_c, 2, 67, 64
4, 93696, Note_on_c, 2, 60, 58
4, 93888, Note_on_c, 2, 69, 58
4, 93888, Note_on_c, 2, 65, 58
4, 94076, Note_off_c, 2, 69, 64
4, 94076, Note_off_c, 2, 65, 64
4, 94080, Note_on_c, 2, 72, 58
4, 94080, Note_on_c, 2, 69, 58
4, 94268, Note_off_c, 2, 72, 64
4, 94268, Note_off_c, 2, 69, 64
4, 94272, Note_on_c, 2, 72, 58
4, 94272, Note_on_c, 2, 69, 58
4, 94460, Note_off_c, 2, 60, 64
4, 94460, Note_off_c, 2, 72, 64
4, 94460, Note_off_c, 2, 69, 64
4, 94640, Note_on_c, 2, 62, 58
4, 94656, Note_on_c, 2, 67, 58
4, 94656, Note_on_c, 2, 58, 58
4, 94844, Note_off_c, 2, 67, 64
4, 94848, Note_on_c, 2, 70, 58
4, 94848, Note_on_c, 2, 67, 58
4, 95036, Note_off_c, 2, 70, 64
4, 95036, Note_off_c, 2, 67, 64
4, 95040, Note_on_c, 2, 70, 58
4, 95040, Note_on_c, 2, 67, 58
4, 95212, Note_off_c, 2, 62, 64
4, 95228, Note_off_c, 2, 58, 64
4, 95228, Note_off_c, 2, 70, 64
4, 95228, Note_off_c, 2, 67, 64
4, 95424, Note_on_c, 2, 60, 58
4, 95424, Note_on_c, 2, 57, 58
4, 95424, Note_on_c, 2, 60, 58
4, 95612, Note_off_c, 2, 60, 64
4, 95612, Note_off_c, 2, 57, 64
4, 95616, Note_on_c, 2, 65, 58
4, 95616, Note_on_c, 2, 69, 58
4, 95804, Note_off_c, 2, 65, 64
4, 95804, Note_off_c, 2, 69, 64
4, 95808, Note_on_c, 2, 69, 58
4, 95808, Note_on_c, 2, 65, 58
4, 95996, Note_off_c, 2, 60, 64
4, 95996, Note_off_c, 2, 69, 64
4, 95996, Note_off_c, 2, 65, 64
4, 96192, Note_on_c, 2, 60, 58
4, 96192, Note_on_c, 2, 57, 58
4, 96192, Note_on_c, 2, 60, 58
4, 96380, Note_off_c, 2, 60, 64
4, 96380, Note_off_c, 2, 57, 64
4, 96384, Note_on_c, 2, 64, 58
4, 96384, Note_on_c, 2, 58, 58
4, 96572, Note_off_c, 2, 64, 64
4, 96572, Note_off_c, 2, 58, 64
4, 96576, Note_on_c, 2, 64, 58
4, 96576, Note_on_c, 2, 58, 58
4, 96764, Note_off_c, 2, 60, 64
4, 96764, Note_off_c, 2, 64, 64
4, 96764, Note_off_c, 2, 58, 64
4, 96768, Note_on_c, 2, 65, 58
4, 96768, Note_on_c, 2, 60, 58
4, 96768, Note_on_c, 2, 57, 58
4, 96956, Note_off_c, 2, 65, 64
4, 96956, Note_off_c, 2, 60, 64
4, 96956, Note_off_c, 2, 57, 64
4, 101376, Note_on_c, 2, 84, 61
4, 101376, Note_on_c, 2, 81, 61
4, 101376, Note_on_c, 2, 72, 61
4, 101756, Note_off_c, 2, 84, 64
4, 101756, Note_off_c, 2, 81, 64
4, 101756, Note_off_c, 2, 72, 64
4, 101760, Note_on_c, 2, 85, 61
4, 101760, Note_on_c, 2, 81, 61
4, 101760, Note_on_c, 2, 73, 61
4, 102140, Note_off_c, 2, 85, 64
4, 102140, Note_off_c, 2, 81, 64
4, 102140, Note_off_c, 2, 73, 64
4, 102144, Note_on_c, 2, 82, 61
4, 102144, Note_on_c, 2, 86, 61
4, 102144, Note_on_c, 2, 74, 61
4, 102524, Note_off_c, 2, 82, 64
4, 102528, Note_on_c, 2, 83, 61
4, 102908, Note_off_c, 2, 86, 64
4, 102908, Note_off_c, 2, 74, 64
4, 102908, Note_off_c, 2, 83, 64
4, 102912, Note_on_c, 2, 84, 61
4, 102912, Note_on_c, 2, 87, 61
4, 102912, Note_on_c, 2, 75, 61
4, 103292, Note_off_c, 2, 84, 64
4, 103292, Note_off_c, 2, 87, 64
4, 103292, Note_off_c, 2, 75, 64
4, 104448, Note_on_c, 2, 70, 61
4, 104448, Note_on_c, 2, 62, 61
4, 104448, Note_on_c, 2, 58, 61
4, 104828, Note_off_c, 2, 70, 64
4, 104828, Note_off_c, 2, 62, 64
4, 104828, Note_off_c, 2, 58, 64
4, 116800, Note_on_c, 2, 74, 80
4, 116800, Note_on_c, 2, 77, 80
4, 116800, Note_on_c, 2, 65, 80
4, 117496, Note_off_c, 2, 74, 64
4, 117496, Note_off_c, 2, 77, 64
4, 117496, Note_off_c, 2, 65, 64
4, 117504, Note_on_c, 2, 76, 80
4, 117504, Note_on_c, 2, 73, 80
4, 117504, Note_on_c, 2, 64, 80
4, 117692, Note_off_c, 2, 76, 64
4, 117692, Note_off_c, 2, 73, 64
4, 117692, Note_off_c, 2, 64, 64
4, 117696, Note_on_c, 2, 77, 80
4, 117696, Note_on_c, 2, 74, 80
4, 117696, Note_on_c, 2, 65, 80
4, 117884, Note_off_c, 2, 77, 64
4, 117884, Note_off_c, 2, 74, 64
4, 117884, Note_off_c, 2, 65, 64
4, 117888, Note_on_c, 2, 76, 80
4, 117888, Note_on_c, 2, 73, 80
4, 117888, Note_on_c, 2, 64, 80
4, 118076, Note_off_c, 2, 76, 64
4, 118076, Note_off_c, 2, 73, 64
4, 118076, Note_off_c, 2, 64, 64
4, 118080, Note_on_c, 2, 77, 80
4, 118080, Note_on_c, 2, 74, 80
4, 118080, Note_on_c, 2, 65, 80
4, 118268, Note_off_c, 2, 77, 64
4, 118268, Note_off_c, 2, 74, 64
4, 118268, Note_off_c, 2, 65, 64
4, 118272, Note_on_c, 2, 79, 80
4, 118272, Note_on_c, 2, 75, 80
4, 118272, Note_on_c, 2, 67, 80
4, 118460, Note_off_c, 2, 79, 64
4, 118460, Note_off_c, 2, 75, 64
4, 118460, Note_off_c, 2, 67, 64
4, 118464, Note_on_c, 2, 77, 80
4, 118464, Note_on_c, 2, 74, 80
4, 118464, Note_on_c, 2, 65, 80
4, 118652, Note_off_c, 2, 77, 64
4, 118652, Note_off_c, 2, 74, 64
4, 118652, Note_off_c, 2, 65, 64
4, 118656, Note_on_c, 2, 63, 80
4, 118656, Note_on_c, 2, 72, 80
4, 118656, Note_on_c, 2, 75, 80
4, 118844, Note_off_c, 2, 63, 64
4, 118844, Note_off_c, 2, 72, 64
4, 118844, Note_off_c, 2, 75, 64
4, 118848, Note_on_c, 2, 74, 80
4, 118848, Note_on_c, 2, 70, 80
4, 118848, Note_on_c, 2, 62, 80
4, 119036, Note_off_c, 2, 74, 64
4, 119036, Note_off_c, 2, 70, 64
4, 119036, Note_off_c, 2, 62, 64
4, 119040, Note_on_c, 2, 74, 80
4, 119040, Note_on_c, 2, 70, 80
4, 119040, Note_on_c, 2, 62, 80
4, 119224, Note_off_c, 2, 74, 64
4, 119224, Note_off_c, 2, 70, 64
4, 119224, Note_off_c, 2, 62, 64
4, 119232, Note_on_c, 2, 75, 80
4, 119272, Note_off_c, 2, 75, 64
4, 119280, Note_on_c, 2, 74, 80
4, 119320, Note_off_c, 2, 74, 64
4, 119328, Note_on_c, 2, 72, 80
4, 119368, Note_off_c, 2, 72, 64
4, 119376, Note_on_c, 2, 74, 80
4, 119416, Note_off_c, 2, 74, 64
4, 119424, Note_on_c, 2, 77, 80
4, 119612, Note_off_c, 2, 77, 64
4, 119616, Note_on_c, 2, 74, 80
4, 119804, Note_off_c, 2, 74, 64
4, 119808, Note_on_c, 2, 82, 61
4, 119808, Note_on_c, 2, 74, 61
4, 119808, Note_on_c, 2, 70, 61
4, 119996, Note_off_c, 2, 82, 64
4, 119996, Note_off_c, 2, 74, 64
4, 119996, Note_off_c, 2, 70, 64
4, 120192, Note_on_c, 2, 82, 61
4, 120192, Note_on_c, 2, 70, 61
4, 120380, Note_off_c, 2, 82, 64
4, 120380, Note_off_c, 2, 70, 64
4, 120576, Note_on_c, 2, 77, 61
4, 120576, Note_on_c, 2, 75, 61
4, 120576, Note_on_c, 2, 72, 61
4, 120576, Note_on_c, 2, 65, 61
4, 120764, Note_off_c, 2, 77, 64
4, 120764, Note_off_c, 2, 75, 64
4, 120764, Note_off_c, 2, 72, 64
4, 120764, Note_off_c, 2, 65, 64
4, 120960, Note_on_c, 2, 77, 61
4, 120960, Note_on_c, 2, 65, 61
4, 121148, Note_off_c, 2, 77, 64
4, 121148, Note_off_c, 2, 65, 64
4, 121344, Note_on_c, 2, 82, 61
4, 121344, Note_on_c, 2, 74, 61
4, 121344, Note_on_c, 2, 70, 61
4, 121916, Note_off_c, 2, 82, 64
4, 121916, Note_off_c, 2, 74, 64
4, 121916, Note_off_c, 2, 70, 64
4, 121920, Note_on_c, 2, 84, 61
4, 122012, Note_off_c, 2, 84, 64
4, 122016, Note_on_c, 2, 86, 61
4, 122108, Note_off_c, 2, 86, 64
4, 122112, Note_on_c, 2, 84, 66
4, 122112, Note_on_c, 2, 81, 66
4, 122112, Note_on_c, 2, 72, 66
4, 122300, Note_off_c, 2, 84, 64
4, 122300, Note_off_c, 2, 81, 64
4, 122300, Note_off_c, 2, 72, 64
4, 122304, Note_on_c, 2, 74, 69
4, 122492, Note_off_c, 2, 74, 64
4, 122496, Note_on_c, 2, 75, 74
4, 122684, Note_off_c, 2, 75, 64
4, 122688, Note_on_c, 2, 76, 76
4, 122876, Note_off_c, 2, 76, 64
4, 122880, Note_on_c, 2, 89, 80
4, 122880, Note_on_c, 2, 86, 80
4, 122880, Note_on_c, 2, 77, 80
4, 123644, Note_off_c, 2, 89, 64
4, 123644, Note_off_c, 2, 86, 64
4, 123644, Note_off_c, 2, 77, 64
4, 123648, Note_on_c, 2, 82, 80
4, 123648, Note_on_c, 2, 76, 80
4, 123648, Note_on_c, 2, 88, 80
4, 123836, Note_off_c, 2, 76, 64
4, 123836, Note_off_c, 2, 88, 64
4, 123840, Note_on_c, 2, 89, 80
4, 123840, Note_on_c, 2, 77, 80
4, 124028, Note_off_c, 2, 82, 64
4, 124028, Note_off_c, 2, 89, 64
4, 124028, Note_off_c, 2, 77, 64
4, 124032, Note_on_c, 2, 88, 80
4, 124032, Note_on_c, 2, 76, 80
4, 124032, Note_on_c, 2, 82, 80
4, 124220, Note_off_c, 2, 88, 64
4, 124220, Note_off_c, 2, 76, 64
4, 124224, Note_on_c, 2, 89, 80
4, 124224, Note_on_c, 2, 77, 80
4, 124412, Note_off_c, 2, 82, 64
4, 124412, Note_off_c, 2, 89, 64
4, 124412, Note_off_c, 2, 77, 64
4, 124416, Note_on_c, 2, 91, 80
4, 124416, Note_on_c, 2, 79, 80
4, 124416, Note_on_c, 2, 82, 80
4, 124604, Note_off_c, 2, 91, 64
4, 124604, Note_off_c, 2, 79, 64
4, 124608, Note_on_c, 2, 89, 80
4, 124608, Note_on_c, 2, 77, 80
4, 124796, Note_off_c, 2, 89, 64
4, 124796, Note_off_c, 2, 77, 64
4, 124800, Note_on_c, 2, 87, 80
4, 124800, Note_on_c, 2, 75, 80
4, 124988, Note_off_c, 2, 87, 64
4, 124988, Note_off_c, 2, 75, 64
4, 124992, Note_on_c, 2, 86, 80
4, 124992, Note_on_c, 2, 74, 80
4, 125180, Note_off_c, 2, 82, 64
4, 125180, Note_off_c, 2, 86, 64
4, 125180, Note_off_c, 2, 74, 64
4, 125184, Note_on_c, 2, 86, 80
4, 125184, Note_on_c, 2, 82, 80
4, 125184, Note_on_c, 2, 74, 80
4, 125328, Note_off_c, 2, 86, 64
4, 125328, Note_off_c, 2, 82, 64
4, 125328, Note_off_c, 2, 74, 64
4, 125376, Note_on_c, 2, 75, 80
4, 125416, Note_off_c, 2, 75, 64
4, 125424, Note_on_c, 2, 74, 80
4, 125464, Note_off_c, 2, 74, 64
4, 125472, Note_on_c, 2, 72, 80
4, 125512, Note_off_c, 2, 72, 64
4, 125520, Note_on_c, 2, 74, 80
4, 125560, Note_off_c, 2, 74, 64
4, 125568, Note_on_c, 2, 77, 80
4, 125660, Note_off_c, 2, 77, 64
4, 125664, Note_on_c, 2, 74, 80
4, 125756, Note_off_c, 2, 74, 64
4, 125760, Note_on_c, 2, 77, 80
4, 125852, Note_off_c, 2, 77, 64
4, 125856, Note_on_c, 2, 74, 80
4, 125948, Note_off_c, 2, 74, 64
4, 125952, Note_on_c, 2, 82, 61
4, 125952, Note_on_c, 2, 70, 61
4, 126140, Note_off_c, 2, 82, 64
4, 126140, Note_off_c, 2, 70, 64
4, 126336, Note_on_c, 2, 70, 61
4, 126336, Note_on_c, 2, 82, 61
4, 126524, Note_off_c, 2, 70, 64
4, 126524, Note_off_c, 2, 82, 64
4, 126720, Note_on_c, 2, 77, 61
4, 126720, Note_on_c, 2, 65, 61
4, 126908, Note_off_c, 2, 77, 64
4, 126908, Note_off_c, 2, 65, 64
4, 127104, Note_on_c, 2, 77, 61
4, 127104, Note_on_c, 2, 65, 61
4, 127292, Note_off_c, 2, 77, 64
4, 127292, Note_off_c, 2, 65, 64
4, 127488, Note_on_c, 2, 75, 61
4, 127488, Note_on_c, 2, 72, 61
4, 127488, Note_on_c, 2, 69, 61
4, 127488, Note_on_c, 2, 63, 61
4, 128252, Note_off_c, 2, 75, 64
4, 128252, Note_off_c, 2, 72, 64
4, 128252, Note_off_c, 2, 69, 64
4, 128252, Note_off_c, 2, 63, 64
4, 128256, Note_on_c, 2, 74, 61
4, 128256, Note_on_c, 2, 70, 61
4, 128256, Note_on_c, 2, 62, 61
4, 128444, Note_off_c, 2, 74, 64
4, 128444, Note_off_c, 2, 70, 64
4, 128444, Note_off_c, 2, 62, 64
4, 129024, Note_on_c, 2, 79, 82
4, 129024, Note_on_c, 2, 70, 81
4, 129024, Note_on_c, 2, 67, 81
4, 129404, Note_off_c, 2, 79, 64
4, 129404, Note_off_c, 2, 70, 64
4, 129404, Note_off_c, 2, 67, 64
4, 130560, Note_on_c, 2, 81, 60
4, 130560, Note_on_c, 2, 78, 60
4, 130560, Note_on_c, 2, 72, 60
4, 131132, Note_off_c, 2, 72, 64
4, 131136, Note_on_c, 2, 74, 60
4, 131324, Note_off_c, 2, 74, 64
4, 131328, Note_on_c, 2, 75, 60
4, 131516, Note_off_c, 2, 81, 64
4, 131516, Note_off_c, 2, 78, 64
4, 131516, Note_off_c, 2, 75, 64
4, 131520, Note_on_c, 2, 74, 60
4, 131520, Note_on_c, 2, 79, 60
4, 131520, Note_on_c, 2, 82, 60
4, 131708, Note_off_c, 2, 74, 64
4, 131708, Note_off_c, 2, 79, 64
4, 131708, Note_off_c, 2, 82, 64
4, 131712, Note_on_c, 2, 72, 60
4, 131712, Note_on_c, 2, 81, 60
4, 131712, Note_on_c, 2, 84, 60
4, 131900, Note_off_c, 2, 72, 64
4, 131900, Note_off_c, 2, 81, 64
4, 131900, Note_off_c, 2, 84, 64
4, 131904, Note_on_c, 2, 82, 60
4, 131904, Note_on_c, 2, 86, 60
4, 132092, Note_off_c, 2, 82, 64
4, 132092, Note_off_c, 2, 86, 64
4, 132096, Note_on_c, 2, 87, 60
4, 132096, Note_on_c, 2, 84, 60
4, 132096, Note_on_c, 2, 81, 60
4, 132860, Note_off_c, 2, 87, 64
4, 132860, Note_off_c, 2, 84, 64
4, 132860, Note_off_c, 2, 81, 64
4, 132864, Note_on_c, 2, 86, 60
4, 132864, Note_on_c, 2, 81, 60
4, 132864, Note_on_c, 2, 74, 60
4, 133244, Note_off_c, 2, 86, 64
4, 133248, Note_on_c, 2, 84, 60
4, 133628, Note_off_c, 2, 81, 64
4, 133628, Note_off_c, 2, 74, 64
4, 133628, Note_off_c, 2, 84, 64
4, 133632, Note_on_c, 2, 82, 60
4, 133632, Note_on_c, 2, 79, 60
4, 133632, Note_on_c, 2, 74, 60
4, 133808, Note_on_c, 2, 82, 60
4, 133820, Note_off_c, 2, 82, 64
4, 133820, Note_off_c, 2, 79, 64
4, 133820, Note_off_c, 2, 74, 64
4, 133824, Note_on_c, 2, 79, 60
4, 133824, Note_on_c, 2, 74, 60
4, 134188, Note_off_c, 2, 82, 64
4, 134192, Note_on_c, 2, 82, 60
4, 134192, Note_on_c, 2, 79, 60
4, 134192, Note_on_c, 2, 74, 60
4, 134204, Note_off_c, 2, 79, 64
4, 134204, Note_off_c, 2, 74, 64
4, 134572, Note_off_c, 2, 82, 64
4, 134572, Note_off_c, 2, 79, 64
4, 134572, Note_off_c, 2, 74, 64
4, 134592, Note_on_c, 2, 82, 60
4, 134592, Note_on_c, 2, 79, 60
4, 134592, Note_on_c, 2, 74, 60
4, 134960, Note_on_c, 2, 74, 60
4, 134972, Note_off_c, 2, 82, 64
4, 134972, Note_off_c, 2, 79, 64
4, 134972, Note_off_c, 2, 74, 64
4, 134976, Note_on_c, 2, 82, 60
4, 134976, Note_on_c, 2, 79, 60
4, 135340, Note_off_c, 2, 74, 64
4, 135356, Note_off_c, 2, 79, 64
4, 135356, Note_off_c, 2, 82, 64
4, 135552, Note_on_c, 2, 86, 60
4, 135552, Note_on_c, 2, 74, 60
4, 135932, Note_off_c, 2, 86, 64
4, 135932, Note_off_c, 2, 74, 64
4, 135936, Note_on_c, 2, 75, 60
4, 135936, Note_on_c, 2, 87, 60
4, 136316, Note_off_c, 2, 75, 64
4, 136320, Note_on_c, 2, 79, 60
4, 136320, Note_on_c, 2, 82, 60
4, 136700, Note_off_c, 2, 79, 64
4, 136700, Note_off_c, 2, 82, 64
4, 136704, Note_on_c, 2, 84, 60
4, 136704, Note_on_c, 2, 81, 60
4, 137084, Note_off_c, 2, 87, 64
4, 137084, Note_off_c, 2, 84, 64
4, 137088, Note_on_c, 2, 85, 60
4, 137088, Note_on_c, 2, 73, 60
4, 137468, Note_off_c, 2, 85, 64
4, 137468, Note_off_c, 2, 73, 64
4, 137472, Note_on_c, 2, 74, 60
4, 137472, Note_on_c, 2, 86, 60
4, 137852, Note_off_c, 2, 81, 64
4, 137852, Note_off_c, 2, 74, 64
4, 137856, Note_on_c, 2, 81, 60
4, 137856, Note_on_c, 2, 77, 60
4, 138236, Note_off_c, 2, 86, 64
4, 138236, Note_off_c, 2, 81, 64
4, 138236, Note_off_c, 2, 77, 64
4, 138240, Note_on_c, 2, 86, 60
4, 138240, Note_on_c, 2, 82, 60
4, 138240, Note_on_c, 2, 79, 60
4, 138620, Note_off_c, 2, 86, 64
4, 138620, Note_off_c, 2, 82, 64
4, 138624, Note_on_c, 2, 83, 60
4, 138624, Note_on_c, 2, 71, 60
4, 139004, Note_off_c, 2, 83, 64
4, 139004, Note_off_c, 2, 71, 64
4, 139008, Note_on_c, 2, 84, 60
4, 139008, Note_on_c, 2, 72, 60
4, 139196, Note_off_c, 2, 84, 64
4, 139196, Note_off_c, 2, 72, 64
4, 139200, Note_on_c, 2, 83, 60
4, 139200, Note_on_c, 2, 71, 60
4, 139388, Note_off_c, 2, 83, 64
4, 139388, Note_off_c, 2, 71, 64
4, 139392, Note_on_c, 2, 84, 60
4, 139392, Note_on_c, 2, 72, 60
4, 139580, Note_off_c, 2, 84, 64
4, 139580, Note_off_c, 2, 72, 64
4, 139584, Note_on_c, 2, 85, 60
4, 139584, Note_on_c, 2, 73, 60
4, 139772, Note_off_c, 2, 79, 64
4, 139772, Note_off_c, 2, 85, 64
4, 139772, Note_off_c, 2, 73, 64
4, 139776, Note_on_c, 2, 86, 60
4, 139776, Note_on_c, 2, 78, 60
4, 139776, Note_on_c, 2, 74, 60
4, 140156, Note_off_c, 2, 86, 64
4, 140156, Note_off_c, 2, 78, 64
4, 140156, Note_off_c, 2, 74, 64
4, 141312, Note_on_c, 2, 79, 80
4, 141312, Note_on_c, 2, 70, 80
4, 141312, Note_on_c, 2, 67, 80
4, 141692, Note_off_c, 2, 79, 64
4, 141692, Note_off_c, 2, 70, 64
4, 141692, Note_off_c, 2, 67, 64
4, 142848, Note_on_c, 2, 81, 60
4, 142848, Note_on_c, 2, 78, 60
4, 142848, Note_on_c, 2, 72, 60
4, 143420, Note_off_c, 2, 72, 64
4, 143424, Note_on_c, 2, 74, 60
4, 143612, Note_off_c, 2, 74, 64
4, 143616, Note_on_c, 2, 75, 60
4, 143804, Note_off_c, 2, 81, 64
4, 143804, Note_off_c, 2, 78, 64
4, 143804, Note_off_c, 2, 75, 64
4, 143808, Note_on_c, 2, 74, 60
4, 143808, Note_on_c, 2, 79, 60
4, 143808, Note_on_c, 2, 82, 60
4, 143996, Note_off_c, 2, 74, 64
4, 143996, Note_off_c, 2, 79, 64
4, 143996, Note_off_c, 2, 82, 64
4, 144000, Note_on_c, 2, 72, 60
4, 144000, Note_on_c, 2, 81, 60
4, 144000, Note_on_c, 2, 84, 60
4, 144188, Note_off_c, 2, 72, 64
4, 144188, Note_off_c, 2, 81, 64
4, 144188, Note_off_c, 2, 84, 64
4, 144192, Note_on_c, 2, 82, 60
4, 144192, Note_on_c, 2, 86, 60
4, 144380, Note_off_c, 2, 82, 64
4, 144380, Note_off_c, 2, 86, 64
4, 144384, Note_on_c, 2, 87, 60
4, 144384, Note_on_c, 2, 84, 60
4, 144384, Note_on_c, 2, 81, 60
4, 145148, Note_off_c, 2, 87, 64
4, 145148, Note_off_c, 2, 84, 64
4, 145148, Note_off_c, 2, 81, 64
4, 145152, Note_on_c, 2, 86, 60
4, 145152, Note_on_c, 2, 81, 60
4, 145152, Note_on_c, 2, 74, 60
4, 145532, Note_off_c, 2, 86, 64
4, 145536, Note_on_c, 2, 84, 60
4, 145916, Note_off_c, 2, 81, 64
4, 145916, Note_off_c, 2, 74, 64
4, 145916, Note_off_c, 2, 84, 64
4, 145920, Note_on_c, 2, 82, 60
4, 145920, Note_on_c, 2, 79, 60
4, 145920, Note_on_c, 2, 74, 60
4, 146108, Note_off_c, 2, 82, 64
4, 146108, Note_off_c, 2, 79, 64
4, 146108, Note_off_c, 2, 74, 64
4, 146112, Note_on_c, 2, 79, 60
4, 146112, Note_on_c, 2, 74, 60
4, 146112, Note_on_c, 2, 82, 60
4, 146492, Note_off_c, 2, 79, 64
4, 146492, Note_off_c, 2, 74, 64
4, 146492, Note_off_c, 2, 82, 64
4, 146496, Note_on_c, 2, 82, 60
4, 146496, Note_on_c, 2, 79, 60
4, 146496, Note_on_c, 2, 74, 60
4, 146876, Note_off_c, 2, 82, 64
4, 146876, Note_off_c, 2, 79, 64
4, 146876, Note_off_c, 2, 74, 64
4, 146880, Note_on_c, 2, 82, 60
4, 146880, Note_on_c, 2, 79, 60
4, 146880, Note_on_c, 2, 74, 60
4, 147260, Note_off_c, 2, 82, 64
4, 147260, Note_off_c, 2, 79, 64
4, 147260, Note_off_c, 2, 74, 64
4, 147264, Note_on_c, 2, 82, 60
4, 147264, Note_on_c, 2, 79, 60
4, 147264, Note_on_c, 2, 74, 60
4, 147644, Note_off_c, 2, 74, 64
4, 147644, Note_off_c, 2, 79, 64
4, 147644, Note_off_c, 2, 82, 64
4, 147840, Note_on_c, 2, 86, 60
4, 147840, Note_on_c, 2, 74, 60
4, 148220, Note_off_c, 2, 86, 64
4, 148220, Note_off_c, 2, 74, 64
4, 148224, Note_on_c, 2, 75, 60
4, 148224, Note_on_c, 2, 87, 60
4, 148604, Note_off_c, 2, 75, 64
4, 148608, Note_on_c, 2, 79, 60
4, 148608, Note_on_c, 2, 82, 60
4, 148988, Note_off_c, 2, 79, 64
4, 148988, Note_off_c, 2, 82, 64
4, 148992, Note_on_c, 2, 84, 60
4, 148992, Note_on_c, 2, 81, 60
4, 149372, Note_off_c, 2, 87, 64
4, 149372, Note_off_c, 2, 84, 64
4, 149376, Note_on_c, 2, 85, 60
4, 149376, Note_on_c, 2, 73, 60
4, 149756, Note_off_c, 2, 85, 64
4, 149756, Note_off_c, 2, 73, 64
4, 149760, Note_on_c, 2, 74, 60
4, 149760, Note_on_c, 2, 86, 60
4, 150140, Note_off_c, 2, 81, 64
4, 150140, Note_off_c, 2, 74, 64
4, 150144, Note_on_c, 2, 81, 60
4, 150144, Note_on_c, 2, 77, 60
4, 150524, Note_off_c, 2, 86, 64
4, 150524, Note_off_c, 2, 81, 64
4, 150524, Note_off_c, 2, 77, 64
4, 150528, Note_on_c, 2, 86, 60
4, 150528, Note_on_c, 2, 82, 60
4, 150528, Note_on_c, 2, 79, 60
4, 150908, Note_off_c, 2, 86, 64
4, 150908, Note_off_c, 2, 82, 64
4, 150912, Note_on_c, 2, 83, 60
4, 150912, Note_on_c, 2, 71, 60
4, 151292, Note_off_c, 2, 83, 64
4, 151292, Note_off_c, 2, 71, 64
4, 151296, Note_on_c, 2, 84, 60
4, 151296, Note_on_c, 2, 72, 60
4, 151484, Note_off_c, 2, 84, 64
4, 151484, Note_off_c, 2, 72, 64
4, 151488, Note_on_c, 2, 83, 60
4, 151488, Note_on_c, 2, 71, 60
4, 151676, Note_off_c, 2, 83, 64
4, 151676, Note_off_c, 2, 71, 64
4, 151680, Note_on_c, 2, 84, 60
4, 151680, Note_on_c, 2, 72, 60
4, 151868, Note_off_c, 2, 84, 64
4, 151868, Note_off_c, 2, 72, 64
4, 151872, Note_on_c, 2, 85, 60
4, 151872, Note_on_c, 2, 73, 60
4, 152060, Note_off_c, 2, 79, 64
4, 152060, Note_off_c, 2, 85, 64
4, 152060, Note_off_c, 2, 73, 64
4, 152064, Note_on_c, 2, 86, 76
4, 152064, Note_on_c, 2, 78, 76
4, 152064, Note_on_c, 2, 74, 76
4, 152444, Note_off_c, 2, 86, 64
4, 152444, Note_off_c, 2, 78, 64
4, 152444, Note_off_c, 2, 74, 64
4, 153600, Note_on_c, 2, 82, 67
4, 153600, Note_on_c, 2, 74, 65
4, 153600, Note_on_c, 2, 70, 65
4, 153788, Note_off_c, 2, 82, 64
4, 153788, Note_off_c, 2, 74, 64
4, 153788, Note_off_c, 2, 70, 64
4, 155136, Note_on_c, 2, 75, 60
4, 155136, Note_on_c, 2, 72, 60
4, 155136, Note_on_c, 2, 69, 60
4, 156668, Note_off_c, 2, 75, 64
4, 156668, Note_off_c, 2, 72, 64
4, 156668, Note_off_c, 2, 69, 64
4, 156672, Note_on_c, 2, 87, 60
4, 156864, Note_on_c, 2, 77, 60
4, 157052, Note_off_c, 2, 77, 64
4, 157056, Note_on_c, 2, 78, 60
4, 157244, Note_off_c, 2, 78, 64
4, 157248, Note_on_c, 2, 77, 60
4, 157436, Note_off_c, 2, 77, 64
4, 157440, Note_on_c, 2, 78, 60
4, 157628, Note_off_c, 2, 78, 64
4, 157632, Note_on_c, 2, 77, 60
4, 157820, Note_off_c, 2, 77, 64
4, 157824, Note_on_c, 2, 78, 60
4, 158012, Note_off_c, 2, 78, 64
4, 158016, Note_on_c, 2, 77, 60
4, 158204, Note_off_c, 2, 87, 64
4, 158204, Note_off_c, 2, 77, 64
4, 158208, Note_on_c, 2, 86, 60
4, 158208, Note_on_c, 2, 82, 60
4, 158592, Note_on_c, 2, 74, 60
4, 158592, Note_on_c, 2, 77, 60
4, 161276, Note_off_c, 2, 74, 64
4, 161276, Note_off_c, 2, 77, 64
4, 161276, Note_off_c, 2, 86, 64
4, 161280, Note_on_c, 2, 87, 60
4, 161280, Note_on_c, 2, 75, 60
4, 162812, Note_off_c, 2, 87, 64
4, 162812, Note_off_c, 2, 75, 64
4, 162816, Note_on_c, 2, 85, 60
4, 162816, Note_on_c, 2, 79, 60
4, 163580, Note_off_c, 2, 82, 64
4, 163580, Note_off_c, 2, 85, 64
4, 163580, Note_off_c, 2, 79, 64
4, 163584, Note_on_c, 2, 84, 60
4, 163584, Note_on_c, 2, 82, 60
4, 163584, Note_on_c, 2, 77, 60
4, 163964, Note_off_c, 2, 82, 64
4, 163964, Note_off_c, 2, 77, 64
4, 163968, Note_on_c, 2, 81, 60
4, 163968, Note_on_c, 2, 75, 60
4, 164348, Note_off_c, 2, 84, 64
4, 164348, Note_off_c, 2, 81, 64
4, 164348, Note_off_c, 2, 75, 64
4, 164352, Note_on_c, 2, 82, 60
4, 164352, Note_on_c, 2, 74, 60
4, 164540, Note_off_c, 2, 82, 64
4, 164540, Note_off_c, 2, 74, 64
4, 164544, Note_on_c, 2, 77, 60
4, 164732, Note_off_c, 2, 77, 64
4, 164736, Note_on_c, 2, 86, 60
4, 164736, Note_on_c, 2, 65, 60
4, 164736, Note_on_c, 2, 70, 60
4, 164924, Note_off_c, 2, 86, 64
4, 164928, Note_on_c, 2, 82, 60
4, 165116, Note_off_c, 2, 65, 64
4, 165116, Note_off_c, 2, 70, 64
4, 165116, Note_off_c, 2, 82, 64
4, 165120, Note_on_c, 2, 72, 60
4, 165120, Note_on_c, 2, 77, 60
4, 165120, Note_on_c, 2, 87, 60
4, 165308, Note_off_c, 2, 72, 64
4, 165308, Note_off_c, 2, 87, 64
4, 165312, Note_on_c, 2, 75, 60
4, 165312, Note_on_c, 2, 84, 60
4, 165500, Note_off_c, 2, 77, 64
4, 165500, Note_off_c, 2, 75, 64
4, 165500, Note_off_c, 2, 84, 64
4, 165504, Note_on_c, 2, 74, 60
4, 165504, Note_on_c, 2, 81, 60
4, 165692, Note_off_c, 2, 74, 64
4, 165692, Note_off_c, 2, 81, 64
4, 165696, Note_on_c, 2, 72, 60
4, 165696, Note_on_c, 2, 77, 60
4, 165884, Note_off_c, 2, 72, 64
4, 165884, Note_off_c, 2, 77, 64
4, 165888, Note_on_c, 2, 74, 80
4, 165888, Note_on_c, 2, 70, 80
4, 165888, Note_on_c, 2, 67, 80
4, 165888, Note_on_c, 2, 77, 80
4, 166268, Note_off_c, 2, 74, 64
4, 166268, Note_off_c, 2, 70, 64
4, 166268, Note_off_c, 2, 67, 64
4, 166268, Note_off_c, 2, 77, 64
4, 167424, Note_on_c, 2, 81, 60
4, 167424, Note_on_c, 2, 78, 60
4, 167424, Note_on_c, 2, 72, 60
4, 167996, Note_off_c, 2, 72, 64
4, 168000, Note_on_c, 2, 74, 60
4, 168188, Note_off_c, 2, 81, 64
4, 168188, Note_off_c, 2, 78, 64
4, 168188, Note_off_c, 2, 74, 64
4, 168192, Note_on_c, 2, 75, 60
4, 168192, Note_on_c, 2, 78, 60
4, 168192, Note_on_c, 2, 81, 60
4, 168380, Note_off_c, 2, 75, 64
4, 168380, Note_off_c, 2, 78, 64
4, 168380, Note_off_c, 2, 81, 64
4, 168384, Note_on_c, 2, 74, 60
4, 168384, Note_on_c, 2, 79, 60
4, 168384, Note_on_c, 2, 82, 60
4, 168572, Note_off_c, 2, 74, 64
4, 168572, Note_off_c, 2, 79, 64
4, 168572, Note_off_c, 2, 82, 64
4, 168576, Note_on_c, 2, 72, 60
4, 168576, Note_on_c, 2, 81, 60
4, 168576, Note_on_c, 2, 84, 60
4, 168764, Note_off_c, 2, 72, 64
4, 168764, Note_off_c, 2, 81, 64
4, 168764, Note_off_c, 2, 84, 64
4, 168768, Note_on_c, 2, 82, 60
4, 168768, Note_on_c, 2, 86, 60
4, 168956, Note_off_c, 2, 82, 64
4, 168956, Note_off_c, 2, 86, 64
4, 168960, Note_on_c, 2, 87, 60
4, 168960, Note_on_c, 2, 84, 60
4, 168960, Note_on_c, 2, 81, 60
4, 169724, Note_off_c, 2, 87, 64
4, 169724, Note_off_c, 2, 84, 64
4, 169724, Note_off_c, 2, 81, 64
4, 169728, Note_on_c, 2, 81, 60
4, 169728, Note_on_c, 2, 86, 60
4, 169728, Note_on_c, 2, 74, 60
4, 170108, Note_off_c, 2, 86, 64
4, 170112, Note_on_c, 2, 84, 60
4, 170492, Note_off_c, 2, 81, 64
4, 170492, Note_off_c, 2, 84, 64
4, 170496, Note_on_c, 2, 77, 60
4, 170496, Note_on_c, 2, 83, 60
4, 170876, Note_off_c, 2, 74, 64
4, 170876, Note_off_c, 2, 77, 64
4, 170876, Note_off_c, 2, 83, 64
4, 170880, Note_on_c, 2, 74, 60
4, 170880, Note_on_c, 2, 71, 60
4, 170880, Note_on_c, 2, 65, 60
4, 171068, Note_off_c, 2, 65, 64
4, 171072, Note_on_c, 2, 67, 60
4, 171260, Note_off_c, 2, 74, 64
4, 171260, Note_off_c, 2, 71, 64
4, 171260, Note_off_c, 2, 67, 64
4, 171264, Note_on_c, 2, 74, 60
4, 171264, Note_on_c, 2, 71, 60
4, 171264, Note_on_c, 2, 68, 60
4, 171452, Note_off_c, 2, 74, 64
4, 171452, Note_off_c, 2, 71, 64
4, 171452, Note_off_c, 2, 68, 64
4, 171456, Note_on_c, 2, 75, 60
4, 171456, Note_on_c, 2, 72, 60
4, 171456, Note_on_c, 2, 67, 60
4, 171644, Note_off_c, 2, 75, 64
4, 171644, Note_off_c, 2, 72, 64
4, 171644, Note_off_c, 2, 67, 64
4, 171648, Note_on_c, 2, 77, 60
4, 171648, Note_on_c, 2, 74, 60
4, 171648, Note_on_c, 2, 65, 60
4, 171836, Note_off_c, 2, 77, 64
4, 171836, Note_off_c, 2, 74, 64
4, 171836, Note_off_c, 2, 65, 64
4, 171840, Note_on_c, 2, 79, 60
4, 171840, Note_on_c, 2, 75, 60
4, 172028, Note_off_c, 2, 79, 64
4, 172028, Note_off_c, 2, 75, 64
4, 172032, Note_on_c, 2, 80, 60
4, 172032, Note_on_c, 2, 77, 60
4, 172032, Note_on_c, 2, 74, 60
4, 172412, Note_off_c, 2, 80, 64
4, 172412, Note_off_c, 2, 77, 64
4, 172412, Note_off_c, 2, 74, 64
4, 172416, Note_on_c, 2, 79, 60
4, 172416, Note_on_c, 2, 67, 60
4, 172416, Note_on_c, 2, 74, 60
4, 172604, Note_off_c, 2, 79, 64
4, 172608, Note_on_c, 2, 77, 60
4, 172796, Note_off_c, 2, 77, 64
4, 172800, Note_on_c, 2, 75, 60
4, 172988, Note_off_c, 2, 74, 64
4, 172992, Note_on_c, 2, 71, 60
4, 173180, Note_off_c, 2, 67, 64
4, 173180, Note_off_c, 2, 75, 64
4, 173180, Note_off_c, 2, 71, 64
4, 173184, Note_on_c, 2, 87, 60
4, 173184, Note_on_c, 2, 72, 60
4, 173184, Note_on_c, 2, 78, 60
4, 173372, Note_off_c, 2, 78, 64
4, 173376, Note_on_c, 2, 79, 60
4, 173564, Note_off_c, 2, 79, 64
4, 173568, Note_on_c, 2, 81, 60
4, 173948, Note_off_c, 2, 72, 64
4, 173948, Note_off_c, 2, 87, 64
4, 173948, Note_off_c, 2, 81, 64
4, 173952, Note_on_c, 2, 86, 60
4, 173952, Note_on_c, 2, 74, 60
4, 173952, Note_on_c, 2, 81, 60
4, 174140, Note_off_c, 2, 86, 64
4, 174144, Note_on_c, 2, 84, 60
4, 174332, Note_off_c, 2, 84, 64
4, 174336, Note_on_c, 2, 82, 60
4, 174524, Note_off_c, 2, 81, 64
4, 174528, Note_on_c, 2, 78, 60
4, 174716, Note_off_c, 2, 74, 64
4, 174716, Note_off_c, 2, 78, 64
4, 174720, Note_on_c, 2, 73, 60
4, 174720, Note_on_c, 2, 79, 60
4, 174908, Note_off_c, 2, 73, 64
4, 174912, Note_on_c, 2, 76, 60
4, 175100, Note_off_c, 2, 82, 64
4, 175100, Note_off_c, 2, 79, 64
4, 175100, Note_off_c, 2, 76, 64
4, 175104, Note_on_c, 2, 70, 60
4, 175116, Note_on_c, 2, 79, 60
4, 175132, Note_on_c, 2, 86, 60
4, 175868, Note_off_c, 2, 70, 64
4, 175872, Note_on_c, 2, 78, 60
4, 175872, Note_on_c, 2, 81, 60
4, 175872, Note_on_c, 2, 86, 60
4, 175880, Note_off_c, 2, 79, 64
4, 175896, Note_off_c, 2, 86, 64
4, 176636, Note_off_c, 2, 78, 64
4, 176636, Note_off_c, 2, 81, 64
4, 176636, Note_off_c, 2, 86, 64
4, 176640, Note_on_c, 2, 91, 60
4, 176640, Note_on_c, 2, 82, 60
4, 176640, Note_on_c, 2, 79, 60
4, 177020, Note_off_c, 2, 91, 64
4, 177020, Note_off_c, 2, 82, 64
4, 177020, Note_off_c, 2, 79, 64
4, 178176, Note_on_c, 2, 82, 80
4, 178176, Note_on_c, 2, 74, 80
4, 178176, Note_on_c, 2, 70, 80
4, 178364, Note_off_c, 2, 82, 64
4, 178364, Note_off_c, 2, 74, 64
4, 178364, Note_off_c, 2, 70, 64
4, 179712, Note_on_c, 2, 75, 60
4, 179712, Note_on_c, 2, 72, 60
4, 179712, Note_on_c, 2, 69, 60
4, 181244, Note_off_c, 2, 75, 64
4, 181244, Note_off_c, 2, 72, 64
4, 181244, Note_off_c, 2, 69, 64
4, 181248, Note_on_c, 2, 87, 60
4, 181440, Note_on_c, 2, 77, 60
4, 181628, Note_off_c, 2, 77, 64
4, 181632, Note_on_c, 2, 78, 60
4, 181820, Note_off_c, 2, 78, 64
4, 181824, Note_on_c, 2, 77, 60
4, 182012, Note_off_c, 2, 77, 64
4, 182016, Note_on_c, 2, 78, 60
4, 182204, Note_off_c, 2, 78, 64
4, 182208, Note_on_c, 2, 77, 60
4, 182396, Note_off_c, 2, 77, 64
4, 182400, Note_on_c, 2, 78, 60
4, 182588, Note_off_c, 2, 78, 64
4, 182592, Note_on_c, 2, 77, 60
4, 182780, Note_off_c, 2, 87, 64
4, 182780, Note_off_c, 2, 77, 64
4, 182784, Note_on_c, 2, 86, 60
4, 182784, Note_on_c, 2, 82, 60
4, 183168, Note_on_c, 2, 74, 60
4, 183168, Note_on_c, 2, 77, 60
4, 185852, Note_off_c, 2, 74, 64
4, 185852, Note_off_c, 2, 77, 64
4, 185852, Note_off_c, 2, 86, 64
4, 185856, Note_on_c, 2, 87, 60
4, 185856, Note_on_c, 2, 75, 60
4, 187388, Note_off_c, 2, 87, 64
4, 187388, Note_off_c, 2, 75, 64
4, 187392, Note_on_c, 2, 85, 60
4, 187392, Note_on_c, 2, 79, 60
4, 188156, Note_off_c, 2, 82, 64
4, 188156, Note_off_c, 2, 85, 64
4, 188156, Note_off_c, 2, 79, 64
4, 188160, Note_on_c, 2, 84, 60
4, 188160, Note_on_c, 2, 82, 60
4, 188160, Note_on_c, 2, 77, 60
4, 188540, Note_off_c, 2, 82, 64
4, 188540, Note_off_c, 2, 77, 64
4, 188544, Note_on_c, 2, 81, 60
4, 188544, Note_on_c, 2, 75, 60
4, 188924, Note_off_c, 2, 84, 64
4, 188924, Note_off_c, 2, 81, 64
4, 188924, Note_off_c, 2, 75, 64
4, 188928, Note_on_c, 2, 82, 60
4, 188928, Note_on_c, 2, 74, 60
4, 189116, Note_off_c, 2, 82, 64
4, 189116, Note_off_c, 2, 74, 64
4, 189120, Note_on_c, 2, 77, 60
4, 189308, Note_off_c, 2, 77, 64
4, 189312, Note_on_c, 2, 86, 60
4, 189312, Note_on_c, 2, 65, 60
4, 189312, Note_on_c, 2, 70, 60
4, 189500, Note_off_c, 2, 86, 64
4, 189504, Note_on_c, 2, 82, 60
4, 189692, Note_off_c, 2, 65, 64
4, 189692, Note_off_c, 2, 70, 64
4, 189692, Note_off_c, 2, 82, 64
4, 189696, Note_on_c, 2, 72, 60
4, 189696, Note_on_c, 2, 77, 60
4, 189696, Note_on_c, 2, 87, 60
4, 189884, Note_off_c, 2, 72, 64
4, 189884, Note_off_c, 2, 87, 64
4, 189888, Note_on_c, 2, 75, 60
4, 189888, Note_on_c, 2, 84, 60
4, 190076, Note_off_c, 2, 77, 64
4, 190076, Note_off_c, 2, 75, 64
4, 190076, Note_off_c, 2, 84, 64
4, 190080, Note_on_c, 2, 74, 60
4, 190080, Note_on_c, 2, 81, 60
4, 190268, Note_off_c, 2, 74, 64
4, 190268, Note_off_c, 2, 81, 64
4, 190272, Note_on_c, 2, 72, 60
4, 190272, Note_on_c, 2, 77, 60
4, 190460, Note_off_c, 2, 72, 64
4, 190460, Note_off_c, 2, 77, 64
4, 190464, Note_on_c, 2, 79, 80
4, 190464, Note_on_c, 2, 74, 80
4, 190464, Note_on_c, 2, 70, 80
4, 190464, Note_on_c, 2, 67, 80
4, 190844, Note_off_c, 2, 79, 64
4, 190844, Note_off_c, 2, 74, 64
4, 190844, Note_off_c, 2, 70, 64
4, 190844, Note_off_c, 2, 67, 64
4, 192000, Note_on_c, 2, 81, 60
4, 192000, Note_on_c, 2, 78, 60
4, 192000, Note_on_c, 2, 72, 60
4, 192572, Note_off_c, 2, 72, 64
4, 192576, Note_on_c, 2, 74, 60
4, 192764, Note_off_c, 2, 81, 64
4, 192764, Note_off_c, 2, 78, 64
4, 192764, Note_off_c, 2, 74, 64
4, 192768, Note_on_c, 2, 75, 60
4, 192768, Note_on_c, 2, 78, 60
4, 192768, Note_on_c, 2, 81, 60
4, 192956, Note_off_c, 2, 75, 64
4, 192956, Note_off_c, 2, 78, 64
4, 192956, Note_off_c, 2, 81, 64
4, 192960, Note_on_c, 2, 74, 60
4, 192960, Note_on_c, 2, 79, 60
4, 192960, Note_on_c, 2, 82, 60
4, 193148, Note_off_c, 2, 74, 64
4, 193148, Note_off_c, 2, 79, 64
4, 193148, Note_off_c, 2, 82, 64
4, 193152, Note_on_c, 2, 72, 60
4, 193152, Note_on_c, 2, 81, 60
4, 193152, Note_on_c, 2, 84, 60
4, 193340, Note_off_c, 2, 72, 64
4, 193340, Note_off_c, 2, 81, 64
4, 193340, Note_off_c, 2, 84, 64
4, 193344, Note_on_c, 2, 82, 60
4, 193344, Note_on_c, 2, 86, 60
4, 193532, Note_off_c, 2, 82, 64
4, 193532, Note_off_c, 2, 86, 64
4, 193536, Note_on_c, 2, 87, 60
4, 193536, Note_on_c, 2, 84, 60
4, 193536, Note_on_c, 2, 81, 60
4, 194300, Note_off_c, 2, 87, 64
4, 194300, Note_off_c, 2, 84, 64
4, 194300, Note_off_c, 2, 81, 64
4, 194304, Note_on_c, 2, 81, 60
4, 194304, Note_on_c, 2, 86, 60
4, 194304, Note_on_c, 2, 74, 60
4, 194684, Note_off_c, 2, 86, 64
4, 194688, Note_on_c, 2, 84, 60
4, 195068, Note_off_c, 2, 81, 64
4, 195068, Note_off_c, 2, 84, 64
4, 195072, Note_on_c, 2, 77, 60
4, 195072, Note_on_c, 2, 83, 60
4, 195452, Note_off_c, 2, 74, 64
4, 195452, Note_off_c, 2, 77, 64
4, 195452, Note_off_c, 2, 83, 64
4, 195456, Note_on_c, 2, 74, 60
4, 195456, Note_on_c, 2, 71, 60
4, 195456, Note_on_c, 2, 65, 60
4, 195644, Note_off_c, 2, 65, 64
4, 195648, Note_on_c, 2, 67, 60
4, 195836, Note_off_c, 2, 74, 64
4, 195836, Note_off_c, 2, 71, 64
4, 195836, Note_off_c, 2, 67, 64
4, 195840, Note_on_c, 2, 74, 60
4, 195840, Note_on_c, 2, 71, 60
4, 195840, Note_on_c, 2, 68, 60
4, 196028, Note_off_c, 2, 74, 64
4, 196028, Note_off_c, 2, 71, 64
4, 196028, Note_off_c, 2, 68, 64
4, 196032, Note_on_c, 2, 75, 60
4, 196032, Note_on_c, 2, 72, 60
4, 196032, Note_on_c, 2, 67, 60
4, 196220, Note_off_c, 2, 75, 64
4, 196220, Note_off_c, 2, 72, 64
4, 196220, Note_off_c, 2, 67, 64
4, 196224, Note_on_c, 2, 77, 60
4, 196224, Note_on_c, 2, 74, 60
4, 196224, Note_on_c, 2, 65, 60
4, 196412, Note_off_c, 2, 77, 64
4, 196412, Note_off_c, 2, 74, 64
4, 196412, Note_off_c, 2, 65, 64
4, 196416, Note_on_c, 2, 79, 60
4, 196416, Note_on_c, 2, 75, 60
4, 196604, Note_off_c, 2, 79, 64
4, 196604, Note_off_c, 2, 75, 64
4, 196608, Note_on_c, 2, 80, 60
4, 196608, Note_on_c, 2, 77, 60
4, 196608, Note_on_c, 2, 74, 60
4, 196988, Note_off_c, 2, 80, 64
4, 196988, Note_off_c, 2, 77, 64
4, 196988, Note_off_c, 2, 74, 64
4, 196992, Note_on_c, 2, 79, 60
4, 196992, Note_on_c, 2, 67, 60
4, 196992, Note_on_c, 2, 74, 60
4, 197180, Note_off_c, 2, 79, 64
4, 197184, Note_on_c, 2, 77, 60
4, 197372, Note_off_c, 2, 77, 64
4, 197376, Note_on_c, 2, 75, 60
4, 197564, Note_off_c, 2, 74, 64
4, 197568, Note_on_c, 2, 71, 60
4, 197756, Note_off_c, 2, 67, 64
4, 197756, Note_off_c, 2, 75, 64
4, 197756, Note_off_c, 2, 71, 64
4, 197760, Note_on_c, 2, 87, 60
4, 197760, Note_on_c, 2, 72, 60
4, 197760, Note_on_c, 2, 78, 60
4, 197948, Note_off_c, 2, 78, 64
4, 197952, Note_on_c, 2, 79, 60
4, 198140, Note_off_c, 2, 79, 64
4, 198144, Note_on_c, 2, 81, 60
4, 198524, Note_off_c, 2, 72, 64
4, 198524, Note_off_c, 2, 87, 64
4, 198524, Note_off_c, 2, 81, 64
4, 198528, Note_on_c, 2, 86, 60
4, 198528, Note_on_c, 2, 74, 60
4, 198528, Note_on_c, 2, 81, 60
4, 198716, Note_off_c, 2, 86, 64
4, 198720, Note_on_c, 2, 84, 60
4, 198908, Note_off_c, 2, 84, 64
4, 198912, Note_on_c, 2, 82, 60
4, 199100, Note_off_c, 2, 81, 64
4, 199104, Note_on_c, 2, 78, 60
4, 199292, Note_off_c, 2, 74, 64
4, 199292, Note_off_c, 2, 78, 64
4, 199296, Note_on_c, 2, 73, 60
4, 199296, Note_on_c, 2, 79, 60
4, 199484, Note_off_c, 2, 73, 64
4, 199488, Note_on_c, 2, 76, 60
4, 199676, Note_off_c, 2, 82, 64
4, 199676, Note_off_c, 2, 79, 64
4, 199676, Note_off_c, 2, 76, 64
4, 199680, Note_on_c, 2, 70, 60
4, 199692, Note_on_c, 2, 79, 60
4, 199708, Note_on_c, 2, 86, 60
4, 200444, Note_off_c, 2, 70, 64
4, 200448, Note_on_c, 2, 78, 60
4, 200448, Note_on_c, 2, 81, 60
4, 200448, Note_on_c, 2, 86, 60
4, 200456, Note_off_c, 2, 79, 64
4, 200472, Note_off_c, 2, 86, 64
4, 201212, Note_off_c, 2, 78, 64
4, 201212, Note_off_c, 2, 81, 64
4, 201212, Note_off_c, 2, 86, 64
4, 201216, Note_on_c, 2, 91, 60
4, 201216, Note_on_c, 2, 82, 60
4, 201216, Note_on_c, 2, 79, 60
4, 201596, Note_off_c, 2, 91, 64
4, 201596, Note_off_c, 2, 82, 64
4, 201596, Note_off_c, 2, 79, 64
4, 202752, Note_on_c, 2, 91, 80
4, 202752, Note_on_c, 2, 82, 80
4, 202752, Note_on_c, 2, 79, 80
4, 203132, Note_off_c, 2, 91, 64
4, 203132, Note_off_c, 2, 82, 64
4, 203132, Note_off_c, 2, 79, 64
4, 204288, Note_on_c, 2, 91, 80
4, 204288, Note_on_c, 2, 82, 80
4, 204288, Note_on_c, 2, 79, 80
4, 204668, Note_off_c, 2, 91, 64
4, 204668, Note_off_c, 2, 82, 64
4, 204668, Note_off_c, 2, 79, 64
4, 205824, Note_on_c, 2, 91, 80
4, 205824, Note_on_c, 2, 88, 80
4, 205824, Note_on_c, 2, 82, 80
4, 205824, Note_on_c, 2, 79, 80
4, 206012, Note_off_c, 2, 91, 64
4, 206012, Note_off_c, 2, 88, 64
4, 206012, Note_off_c, 2, 82, 64
4, 206012, Note_off_c, 2, 79, 64
4, 207360, Note_on_c, 2, 78, 60
4, 207360, Note_on_c, 2, 74, 60
4, 207360, Note_on_c, 2, 69, 60
4, 207360, Note_on_c, 2, 66, 60
4, 207548, Note_off_c, 2, 78, 64
4, 207548, Note_off_c, 2, 74, 64
4, 207548, Note_off_c, 2, 69, 64
4, 207548, Note_off_c, 2, 66, 64
4, 207744, Note_on_c, 2, 79, 60
4, 207744, Note_on_c, 2, 74, 60
4, 207744, Note_on_c, 2, 70, 60
4, 207744, Note_on_c, 2, 67, 60
4, 207932, Note_off_c, 2, 79, 64
4, 207932, Note_off_c, 2, 74, 64
4, 207932, Note_off_c, 2, 70, 64
4, 207932, Note_off_c, 2, 67, 64
4, 208128, Note_on_c, 2, 78, 60
4, 208128, Note_on_c, 2, 74, 60
4, 208128, Note_on_c, 2, 69, 60
4, 208128, Note_on_c, 2, 66, 60
4, 208316, Note_off_c, 2, 78, 64
4, 208316, Note_off_c, 2, 74, 64
4, 208316, Note_off_c, 2, 69, 64
4, 208316, Note_off_c, 2, 66, 64
4, 208512, Note_on_c, 2, 79, 60
4, 208512, Note_on_c, 2, 74, 60
4, 208512, Note_on_c, 2, 70, 60
4, 208512, Note_on_c, 2, 67, 60
4, 208700, Note_off_c, 2, 79, 64
4, 208700, Note_off_c, 2, 74, 64
4, 208700, Note_off_c, 2, 70, 64
4, 208700, Note_off_c, 2, 67, 64
4, 209088, Note_on_c, 2, 86, 60
4, 209088, Note_on_c, 2, 81, 60
4, 209088, Note_on_c, 2, 78, 60
4, 209088, Note_on_c, 2, 74, 60
4, 209276, Note_off_c, 2, 86, 64
4, 209276, Note_off_c, 2, 81, 64
4, 209276, Note_off_c, 2, 78, 64
4, 209276, Note_off_c, 2, 74, 64
4, 209472, Note_on_c, 2, 86, 60
4, 209472, Note_on_c, 2, 82, 60
4, 209472, Note_on_c, 2, 79, 60
4, 209472, Note_on_c, 2, 74, 60
4, 209660, Note_off_c, 2, 86, 64
4, 209660, Note_off_c, 2, 82, 64
4, 209660, Note_off_c, 2, 79, 64
4, 209660, Note_off_c, 2, 74, 64
4, 209856, Note_on_c, 2, 86, 60
4, 209856, Note_on_c, 2, 81, 60
4, 209856, Note_on_c, 2, 78, 60
4, 209856, Note_on_c, 2, 74, 60
4, 210044, Note_off_c, 2, 86, 64
4, 210044, Note_off_c, 2, 81, 64
4, 210044, Note_off_c, 2, 78, 64
4, 210044, Note_off_c, 2, 74, 64
4, 210240, Note_on_c, 2, 86, 60
4, 210240, Note_on_c, 2, 82, 60
4, 210240, Note_on_c, 2, 79, 60
4, 210240, Note_on_c, 2, 74, 60
4, 210428, Note_off_c, 2, 86, 64
4, 210428, Note_off_c, 2, 82, 64
4, 210428, Note_off_c, 2, 79, 64
4, 210428, Note_off_c, 2, 74, 64
4, 210432, Note_on_c, 2, 86, 60
4, 210432, Note_on_c, 2, 81, 60
4, 210432, Note_on_c, 2, 78, 60
4, 210432, Note_on_c, 2, 74, 60
4, 210812, Note_off_c, 2, 86, 64
4, 210812, Note_off_c, 2, 81, 64
4, 210812, Note_off_c, 2, 78, 64
4, 210812, Note_off_c, 2, 74, 64
4, 212160, Note_on_c, 2, 62, 60
4, 212252, Note_off_c, 2, 62, 64
4, 212352, Note_on_c, 2, 66, 60
4, 212444, Note_off_c, 2, 66, 64
4, 212544, Note_on_c, 2, 69, 60
4, 212636, Note_off_c, 2, 69, 64
4, 212736, Note_on_c, 2, 74, 60
4, 212828, Note_off_c, 2, 74, 64
4, 212928, Note_on_c, 2, 78, 60
4, 213020, Note_off_c, 2, 78, 64
4, 213120, Note_on_c, 2, 81, 60
4, 213212, Note_off_c, 2, 81, 64
4, 213312, Note_on_c, 2, 86, 60
4, 213404, Note_off_c, 2, 86, 64
4, 213504, Note_on_c, 2, 77, 60
4, 213504, Note_on_c, 2, 81, 60
4, 213504, Note_on_c, 2, 89, 60
4, 215228, Note_off_c, 2, 77, 64
4, 215228, Note_off_c, 2, 81, 64
4, 215228, Note_off_c, 2, 89, 64
4, 215232, Note_on_c, 2, 62, 60
4, 215324, Note_off_c, 2, 62, 64
4, 215424, Note_on_c, 2, 65, 60
4, 215516, Note_off_c, 2, 65, 64
4, 215616, Note_on_c, 2, 69, 60
4, 215708, Note_off_c, 2, 69, 64
4, 215808, Note_on_c, 2, 74, 60
4, 215900, Note_off_c, 2, 74, 64
4, 216000, Note_on_c, 2, 77, 60
4, 216092, Note_off_c, 2, 77, 64
4, 216192, Note_on_c, 2, 81, 60
4, 216284, Note_off_c, 2, 81, 64
4, 216384, Note_on_c, 2, 86, 60
4, 216476, Note_off_c, 2, 86, 64
4, 216576, Note_on_c, 2, 87, 60
4, 216576, Note_on_c, 2, 81, 60
4, 216576, Note_on_c, 2, 75, 60
4, 218108, Note_off_c, 2, 87, 64
4, 218108, Note_off_c, 2, 81, 64
4, 218108, Note_off_c, 2, 75, 64
4, 218112, Note_on_c, 2, 75, 60
4, 218112, Note_on_c, 2, 72, 60
4, 218112, Note_on_c, 2, 69, 60
4, 219644, Note_off_c, 2, 75, 64
4, 219644, Note_off_c, 2, 72, 64
4, 219644, Note_off_c, 2, 69, 64
4, 219648, Note_on_c, 2, 74, 60
4, 219648, Note_on_c, 2, 70, 60
4, 220028, Note_off_c, 2, 74, 64
4, 220028, Note_off_c, 2, 70, 64
4, 244224, Note_on_c, 2, 63, 80
4, 244284, Note_off_c, 2, 63, 64
4, 244288, Note_on_c, 2, 75, 80
4, 244288, Note_on_c, 2, 69, 80
4, 244288, Note_on_c, 2, 72, 80
4, 244288, Note_on_c, 2, 63, 80
4, 244800, Note_off_c, 2, 75, 64
4, 244800, Note_off_c, 2, 69, 64
4, 244800, Note_off_c, 2, 72, 64
4, 244800, Note_off_c, 2, 63, 64
4, 244800, Note_on_c, 2, 74, 80
4, 244860, Note_off_c, 2, 74, 64
4, 244864, Note_on_c, 2, 72, 80
4, 244924, Note_off_c, 2, 72, 64
4, 244928, Note_on_c, 2, 70, 80
4, 244988, Note_off_c, 2, 70, 64
4, 244992, Note_on_c, 2, 69, 80
4, 245180, Note_off_c, 2, 69, 64
4, 245184, Note_on_c, 2, 72, 80
4, 245372, Note_off_c, 2, 72, 64
4, 245376, Note_on_c, 2, 74, 80
4, 245564, Note_off_c, 2, 74, 64
4, 245568, Note_on_c, 2, 75, 80
4, 245756, Note_off_c, 2, 75, 64
4, 245760, Note_on_c, 2, 77, 80
4, 245760, Note_on_c, 2, 74, 80
4, 245760, Note_on_c, 2, 70, 80
4, 245760, Note_on_c, 2, 65, 80
4, 246272, Note_off_c, 2, 77, 64
4, 246272, Note_off_c, 2, 74, 64
4, 246272, Note_off_c, 2, 70, 64
4, 246272, Note_off_c, 2, 65, 64
4, 246336, Note_on_c, 2, 75, 80
4, 246396, Note_off_c, 2, 75, 64
4, 246400, Note_on_c, 2, 74, 80
4, 246460, Note_off_c, 2, 74, 64
4, 246464, Note_on_c, 2, 72, 80
4, 246524, Note_off_c, 2, 72, 64
4, 246528, Note_on_c, 2, 70, 80
4, 246704, Note_on_c, 2, 69, 61
4, 246716, Note_off_c, 2, 70, 64
4, 246720, Note_on_c, 2, 77, 61
4, 246720, Note_on_c, 2, 72, 61
4, 246892, Note_off_c, 2, 69, 64
4, 246908, Note_off_c, 2, 77, 64
4, 246908, Note_off_c, 2, 72, 64
4, 246912, Note_on_c, 2, 79, 61
4, 246912, Note_on_c, 2, 70, 61
4, 246912, Note_on_c, 2, 67, 61
4, 247100, Note_off_c, 2, 79, 64
4, 247100, Note_off_c, 2, 70, 64
4, 247100, Note_off_c, 2, 67, 64
4, 247104, Note_on_c, 2, 81, 61
4, 247104, Note_on_c, 2, 69, 61
4, 247104, Note_on_c, 2, 65, 61
4, 247292, Note_off_c, 2, 81, 64
4, 247292, Note_off_c, 2, 69, 64
4, 247292, Note_off_c, 2, 65, 64
4, 247296, Note_on_c, 2, 82, 61
4, 247488, Note_on_c, 2, 72, 61
4, 247488, Note_on_c, 2, 67, 61
4, 247488, Note_on_c, 2, 64, 61
4, 247488, Note_on_c, 2, 60, 61
4, 247676, Note_off_c, 2, 72, 64
4, 247676, Note_off_c, 2, 67, 64
4, 247676, Note_off_c, 2, 64, 64
4, 247676, Note_off_c, 2, 60, 64
4, 247680, Note_on_c, 2, 72, 61
4, 247680, Note_on_c, 2, 67, 61
4, 247680, Note_on_c, 2, 64, 61
4, 247680, Note_on_c, 2, 60, 61
4, 247868, Note_off_c, 2, 82, 64
4, 247868, Note_off_c, 2, 72, 64
4, 247868, Note_off_c, 2, 67, 64
4, 247868, Note_off_c, 2, 64, 64
4, 247868, Note_off_c, 2, 60, 64
4, 247872, Note_on_c, 2, 72, 61
4, 247872, Note_on_c, 2, 81, 61
4, 247872, Note_on_c, 2, 69, 61
4, 247872, Note_on_c, 2, 65, 61
4, 247872, Note_on_c, 2, 60, 61
4, 247932, Note_off_c, 2, 81, 64
4, 247936, Note_on_c, 2, 79, 61
4, 247996, Note_off_c, 2, 79, 64
4, 248000, Note_on_c, 2, 77, 61
4, 248060, Note_off_c, 2, 72, 64
4, 248060, Note_off_c, 2, 69, 64
4, 248060, Note_off_c, 2, 65, 64
4, 248060, Note_off_c, 2, 60, 64
4, 248060, Note_off_c, 2, 77, 64
4, 248064, Note_on_c, 2, 76, 61
4, 248064, Note_on_c, 2, 72, 61
4, 248064, Note_on_c, 2, 70, 61
4, 248064, Note_on_c, 2, 67, 61
4, 248064, Note_on_c, 2, 60, 61
4, 248188, Note_off_c, 2, 76, 64
4, 248188, Note_off_c, 2, 72, 64
4, 248252, Note_off_c, 2, 70, 64
4, 248252, Note_off_c, 2, 67, 64
4, 248252, Note_off_c, 2, 60, 64
4, 248256, Note_on_c, 2, 79, 61
4, 248256, Note_on_c, 2, 70, 61
4, 248256, Note_on_c, 2, 67, 61
4, 248444, Note_off_c, 2, 79, 64
4, 248444, Note_off_c, 2, 70, 64
4, 248444, Note_off_c, 2, 67, 64
4, 248448, Note_on_c, 2, 81, 61
4, 248448, Note_on_c, 2, 69, 61
4, 248448, Note_on_c, 2, 65, 61
4, 248636, Note_off_c, 2, 81, 64
4, 248636, Note_off_c, 2, 69, 64
4, 248636, Note_off_c, 2, 65, 64
4, 248640, Note_on_c, 2, 82, 61
4, 248640, Note_on_c, 2, 67, 61
4, 248640, Note_on_c, 2, 63, 61
4, 248828, Note_off_c, 2, 82, 64
4, 248828, Note_off_c, 2, 67, 64
4, 248828, Note_off_c, 2, 63, 64
4, 248832, Note_on_c, 2, 84, 61
4, 249024, Note_on_c, 2, 77, 61
4, 249024, Note_on_c, 2, 69, 61
4, 249024, Note_on_c, 2, 65, 61
4, 249212, Note_off_c, 2, 77, 64
4, 249212, Note_off_c, 2, 69, 64
4, 249212, Note_off_c, 2, 65, 64
4, 249216, Note_on_c, 2, 77, 61
4, 249216, Note_on_c, 2, 69, 61
4, 249216, Note_on_c, 2, 65, 61
4, 249404, Note_off_c, 2, 84, 64
4, 249404, Note_off_c, 2, 77, 64
4, 249404, Note_off_c, 2, 69, 64
4, 249404, Note_off_c, 2, 65, 64
4, 249408, Note_on_c, 2, 77, 61
4, 249408, Note_on_c, 2, 70, 61
4, 249408, Note_on_c, 2, 67, 61
4, 249408, Note_on_c, 2, 82, 61
4, 249468, Note_off_c, 2, 82, 64
4, 249472, Note_on_c, 2, 81, 61
4, 249532, Note_off_c, 2, 81, 64
4, 249536, Note_on_c, 2, 79, 61
4, 249596, Note_off_c, 2, 77, 64
4, 249596, Note_off_c, 2, 70, 64
4, 249596, Note_off_c, 2, 67, 64
4, 249596, Note_off_c, 2, 79, 64
4, 249600, Note_on_c, 2, 77, 61
4, 249600, Note_on_c, 2, 72, 61
4, 249600, Note_on_c, 2, 65, 61
4, 249600, Note_on_c, 2, 69, 61
4, 249600, Note_on_c, 2, 77, 61
4, 249788, Note_off_c, 2, 77, 64
4, 249788, Note_off_c, 2, 72, 64
4, 249788, Note_off_c, 2, 65, 64
4, 249788, Note_off_c, 2, 69, 64
4, 249788, Note_off_c, 2, 77, 64
4, 249792, Note_on_c, 2, 77, 80
4, 249792, Note_on_c, 2, 75, 80
4, 249792, Note_on_c, 2, 72, 80
4, 249980, Note_off_c, 2, 77, 64
4, 249980, Note_off_c, 2, 75, 64
4, 249980, Note_off_c, 2, 72, 64
4, 249984, Note_on_c, 2, 77, 80
4, 249984, Note_on_c, 2, 89, 80
4, 250076, Note_off_c, 2, 77, 64
4, 250076, Note_off_c, 2, 89, 64
4, 250176, Note_on_c, 2, 89, 80
4, 250176, Note_on_c, 2, 77, 80
4, 250268, Note_off_c, 2, 89, 64
4, 250268, Note_off_c, 2, 77, 64
4, 250368, Note_on_c, 2, 89, 80
4, 250368, Note_on_c, 2, 86, 80
4, 250368, Note_on_c, 2, 77, 80
4, 251132, Note_off_c, 2, 89, 64
4, 251132, Note_off_c, 2, 86, 64
4, 251132, Note_off_c, 2, 77, 64
4, 251136, Note_on_c, 2, 88, 80
4, 251136, Note_on_c, 2, 76, 80
4, 251136, Note_on_c, 2, 82, 80
4, 251324, Note_off_c, 2, 88, 64
4, 251324, Note_off_c, 2, 76, 64
4, 251328, Note_on_c, 2, 89, 80
4, 251328, Note_on_c, 2, 77, 80
4, 251516, Note_off_c, 2, 82, 64
4, 251516, Note_off_c, 2, 89, 64
4, 251516, Note_off_c, 2, 77, 64
4, 251520, Note_on_c, 2, 88, 80
4, 251520, Note_on_c, 2, 76, 80
4, 251520, Note_on_c, 2, 82, 80
4, 251708, Note_off_c, 2, 88, 64
4, 251708, Note_off_c, 2, 76, 64
4, 251712, Note_on_c, 2, 89, 80
4, 251712, Note_on_c, 2, 77, 80
4, 251900, Note_off_c, 2, 82, 64
4, 251900, Note_off_c, 2, 89, 64
4, 251900, Note_off_c, 2, 77, 64
4, 251904, Note_on_c, 2, 91, 80
4, 251904, Note_on_c, 2, 79, 80
4, 252092, Note_off_c, 2, 91, 64
4, 252092, Note_off_c, 2, 79, 64
4, 252096, Note_on_c, 2, 89, 80
4, 252096, Note_on_c, 2, 77, 80
4, 252284, Note_off_c, 2, 89, 64
4, 252284, Note_off_c, 2, 77, 64
4, 252288, Note_on_c, 2, 75, 80
4, 252288, Note_on_c, 2, 87, 80
4, 252464, Note_on_c, 2, 74, 80
4, 252476, Note_off_c, 2, 75, 64
4, 252476, Note_off_c, 2, 87, 64
4, 252480, Note_on_c, 2, 86, 80
4, 252652, Note_off_c, 2, 74, 64
4, 252668, Note_off_c, 2, 86, 64
4, 252672, Note_on_c, 2, 86, 80
4, 252672, Note_on_c, 2, 82, 80
4, 252672, Note_on_c, 2, 74, 80
4, 252856, Note_off_c, 2, 86, 64
4, 252856, Note_off_c, 2, 82, 64
4, 252856, Note_off_c, 2, 74, 64
4, 252864, Note_on_c, 2, 75, 80
4, 252904, Note_off_c, 2, 75, 64
4, 252912, Note_on_c, 2, 74, 80
4, 252952, Note_off_c, 2, 74, 64
4, 252960, Note_on_c, 2, 72, 80
4, 253000, Note_off_c, 2, 72, 64
4, 253008, Note_on_c, 2, 74, 80
4, 253048, Note_off_c, 2, 74, 64
4, 253056, Note_on_c, 2, 77, 80
4, 253244, Note_off_c, 2, 77, 64
4, 253248, Note_on_c, 2, 74, 80
4, 253436, Note_off_c, 2, 74, 64
4, 253440, Note_on_c, 2, 82, 61
4, 253440, Note_on_c, 2, 77, 61
4, 253440, Note_on_c, 2, 74, 61
4, 253440, Note_on_c, 2, 70, 61
4, 253532, Note_off_c, 2, 82, 64
4, 253532, Note_off_c, 2, 77, 64
4, 253532, Note_off_c, 2, 74, 64
4, 253532, Note_off_c, 2, 70, 64
4, 253632, Note_on_c, 2, 82, 61
4, 253632, Note_on_c, 2, 70, 61
4, 253724, Note_off_c, 2, 82, 64
4, 253724, Note_off_c, 2, 70, 64
4, 254016, Note_on_c, 2, 82, 61
4, 254016, Note_on_c, 2, 70, 61
4, 254108, Note_off_c, 2, 82, 64
4, 254108, Note_off_c, 2, 70, 64
4, 254208, Note_on_c, 2, 77, 61
4, 254208, Note_on_c, 2, 75, 61
4, 254208, Note_on_c, 2, 72, 61
4, 254208, Note_on_c, 2, 65, 61
4, 254300, Note_off_c, 2, 77, 64
4, 254300, Note_off_c, 2, 75, 64
4, 254300, Note_off_c, 2, 72, 64
4, 254300, Note_off_c, 2, 65, 64
4, 254400, Note_on_c, 2, 77, 61
4, 254400, Note_on_c, 2, 65, 61
4, 254492, Note_off_c, 2, 77, 64
4, 254492, Note_off_c, 2, 65, 64
4, 254784, Note_on_c, 2, 77, 61
4, 254784, Note_on_c, 2, 65, 61
4, 254876, Note_off_c, 2, 77, 64
4, 254876, Note_off_c, 2, 65, 64
4, 254976, Note_on_c, 2, 74, 63
4, 254976, Note_on_c, 2, 71, 63
4, 254976, Note_on_c, 2, 65, 63
4, 254976, Note_on_c, 2, 62, 63
4, 255740, Note_off_c, 2, 74, 64
4, 255740, Note_off_c, 2, 71, 64
4, 255740, Note_off_c, 2, 65, 64
4, 255740, Note_off_c, 2, 62, 64
4, 255744, Note_on_c, 2, 75, 63
4, 255744, Note_on_c, 2, 72, 63
4, 255744, Note_on_c, 2, 63, 63
4, 256508, Note_off_c, 2, 75, 64
4, 256508, Note_off_c, 2, 72, 64
4, 256508, Note_off_c, 2, 63, 64
4, 256512, Note_on_c, 2, 77, 63
4, 256512, Note_on_c, 2, 74, 63
4, 256512, Note_on_c, 2, 68, 63
4, 256512, Note_on_c, 2, 65, 63
4, 257276, Note_off_c, 2, 77, 64
4, 257276, Note_off_c, 2, 74, 64
4, 257276, Note_off_c, 2, 68, 64
4, 257276, Note_off_c, 2, 65, 64
4, 257280, Note_on_c, 2, 79, 63
4, 257280, Note_on_c, 2, 75, 63
4, 257280, Note_on_c, 2, 67, 63
4, 258044, Note_off_c, 2, 79, 64
4, 258044, Note_off_c, 2, 75, 64
4, 258044, Note_off_c, 2, 67, 64
4, 258048, Note_on_c, 2, 81, 63
4, 258048, Note_on_c, 2, 75, 63
4, 258048, Note_on_c, 2, 72, 63
4, 258048, Note_on_c, 2, 69, 63
4, 258812, Note_off_c, 2, 81, 64
4, 258812, Note_off_c, 2, 75, 64
4, 258812, Note_off_c, 2, 72, 64
4, 258812, Note_off_c, 2, 69, 64
4, 258816, Note_on_c, 2, 84, 63
4, 258816, Note_on_c, 2, 72, 63
4, 259004, Note_off_c, 2, 84, 64
4, 259004, Note_off_c, 2, 72, 64
4, 259008, Note_on_c, 2, 82, 63
4, 259008, Note_on_c, 2, 70, 63
4, 259196, Note_off_c, 2, 82, 64
4, 259196, Note_off_c, 2, 70, 64
4, 259200, Note_on_c, 2, 81, 63
4, 259200, Note_on_c, 2, 69, 63
4, 259388, Note_off_c, 2, 81, 64
4, 259388, Note_off_c, 2, 69, 64
4, 259392, Note_on_c, 2, 79, 63
4, 259392, Note_on_c, 2, 67, 63
4, 259580, Note_off_c, 2, 79, 64
4, 259580, Note_off_c, 2, 67, 64
4, 259584, Note_on_c, 2, 77, 63
4, 259584, Note_on_c, 2, 65, 63
4, 259964, Note_off_c, 2, 77, 64
4, 259964, Note_off_c, 2, 65, 64
4, 259968, Note_on_c, 2, 63, 63
4, 260348, Note_off_c, 2, 63, 64
4, 260352, Note_on_c, 2, 62, 63
4, 260732, Note_off_c, 2, 62, 64
4, 260736, Note_on_c, 2, 60, 63
4, 260736, Note_on_c, 2, 57, 63
4, 261116, Note_off_c, 2, 60, 64
4, 261116, Note_off_c, 2, 57, 64
4, 261120, Note_on_c, 2, 82, 63
4, 262080, Note_on_c, 2, 70, 61
4, 262268, Note_off_c, 2, 70, 64
4, 262272, Note_on_c, 2, 72, 61
4, 262460, Note_off_c, 2, 72, 64
4, 262464, Note_on_c, 2, 74, 61
4, 262652, Note_off_c, 2, 74, 64
4, 262656, Note_on_c, 2, 77, 61
4, 262844, Note_off_c, 2, 77, 64
4, 262848, Note_on_c, 2, 75, 61
4, 263036, Note_off_c, 2, 75, 64
4, 263040, Note_on_c, 2, 74, 61
4, 263420, Note_off_c, 2, 74, 64
4, 263616, Note_on_c, 2, 74, 61
4, 263616, Note_on_c, 2, 70, 61
4, 263804, Note_off_c, 2, 74, 64
4, 263804, Note_off_c, 2, 70, 64
4, 263808, Note_on_c, 2, 75, 61
4, 263808, Note_on_c, 2, 72, 61
4, 263996, Note_off_c, 2, 75, 64
4, 263996, Note_off_c, 2, 72, 64
4, 264000, Note_on_c, 2, 77, 61
4, 264000, Note_on_c, 2, 74, 61
4, 264188, Note_off_c, 2, 77, 64
4, 264188, Note_off_c, 2, 74, 64
4, 264192, Note_on_c, 2, 79, 61
4, 264192, Note_on_c, 2, 75, 61
4, 264380, Note_off_c, 2, 75, 64
4, 264384, Note_on_c, 2, 70, 61
4, 264572, Note_off_c, 2, 79, 64
4, 264572, Note_off_c, 2, 70, 64
4, 264576, Note_on_c, 2, 70, 63
4, 264576, Note_on_c, 2, 77, 63
4, 265148, Note_off_c, 2, 82, 64
4, 265148, Note_off_c, 2, 70, 64
4, 265148, Note_off_c, 2, 77, 64
4, 265152, Note_on_c, 2, 78, 75
4, 265152, Note_on_c, 2, 68, 75
4, 265340, Note_off_c, 2, 78, 64
4, 265340, Note_off_c, 2, 68, 64
4, 265344, Note_on_c, 2, 79, 76
4, 265344, Note_on_c, 2, 67, 76
4, 265532, Note_off_c, 2, 79, 64
4, 265532, Note_off_c, 2, 67, 64
4, 265536, Note_on_c, 2, 82, 78
4, 265536, Note_on_c, 2, 79, 78
4, 265536, Note_on_c, 2, 73, 78
4, 265724, Note_off_c, 2, 82, 64
4, 265724, Note_off_c, 2, 79, 64
4, 265724, Note_off_c, 2, 73, 64
4, 265728, Note_on_c, 2, 82, 80
4, 265728, Note_on_c, 2, 74, 80
4, 265916, Note_off_c, 2, 82, 64
4, 265916, Note_off_c, 2, 74, 64
4, 265920, Note_on_c, 2, 77, 80
4, 266108, Note_off_c, 2, 77, 64
4, 266304, Note_on_c, 2, 74, 61
4, 266304, Note_on_c, 2, 70, 61
4, 266492, Note_off_c, 2, 74, 64
4, 266492, Note_off_c, 2, 70, 64
4, 266496, Note_on_c, 2, 77, 61
4, 266496, Note_on_c, 2, 74, 61
4, 266684, Note_off_c, 2, 77, 64
4, 266684, Note_off_c, 2, 74, 64
4, 266688, Note_on_c, 2, 75, 61
4, 266688, Note_on_c, 2, 72, 61
4, 266876, Note_off_c, 2, 75, 64
4, 266876, Note_off_c, 2, 72, 64
4, 267072, Note_on_c, 2, 72, 61
4, 267072, Note_on_c, 2, 69, 61
4, 267260, Note_off_c, 2, 72, 64
4, 267260, Note_off_c, 2, 69, 64
4, 267264, Note_on_c, 2, 82, 61
4, 267264, Note_on_c, 2, 70, 61
4, 271100, Note_off_c, 2, 70, 64
4, 271100, Note_off_c, 2, 82, 64
4, 271104, Note_on_c, 2, 61, 61
4, 271104, Note_on_c, 2, 58, 61
4, 271104, Note_on_c, 2, 55, 61
4, 271868, Note_off_c, 2, 61, 64
4, 271868, Note_off_c, 2, 58, 64
4, 271868, Note_off_c, 2, 55, 64
4, 271872, Note_on_c, 2, 62, 61
4, 271872, Note_on_c, 2, 58, 61
4, 272060, Note_off_c, 2, 62, 64
4, 272060, Note_off_c, 2, 58, 64
4, 272256, Note_on_c, 2, 70, 61
4, 272256, Note_on_c, 2, 65, 61
4, 272256, Note_on_c, 2, 74, 61
4, 272444, Note_off_c, 2, 70, 64
4, 272444, Note_off_c, 2, 65, 64
4, 272444, Note_off_c, 2, 74, 64
4, 272640, Note_on_c, 2, 75, 61
4, 272640, Note_on_c, 2, 72, 61
4, 272640, Note_on_c, 2, 65, 61
4, 272828, Note_off_c, 2, 75, 64
4, 272828, Note_off_c, 2, 72, 64
4, 272828, Note_off_c, 2, 65, 64
4, 273024, Note_on_c, 2, 69, 61
4, 273024, Note_on_c, 2, 65, 61
4, 273024, Note_on_c, 2, 60, 61
4, 273212, Note_off_c, 2, 69, 64
4, 273212, Note_off_c, 2, 65, 64
4, 273212, Note_off_c, 2, 60, 64
4, 273408, Note_on_c, 2, 70, 61
4, 273408, Note_on_c, 2, 65, 61
4, 273408, Note_on_c, 2, 62, 61
4, 273596, Note_off_c, 2, 70, 64
4, 273596, Note_off_c, 2, 65, 64
4, 273596, Note_off_c, 2, 62, 64
4, 274176, Note_on_c, 2, 79, 61
4, 274176, Note_on_c, 2, 70, 61
4, 274364, Note_off_c, 2, 79, 64
4, 274364, Note_off_c, 2, 70, 64
4, 274944, Note_on_c, 2, 74, 61
4, 274944, Note_on_c, 2, 70, 61
4, 274944, Note_on_c, 2, 65, 61
4, 275132, Note_off_c, 2, 74, 64
4, 275132, Note_off_c, 2, 70, 64
4, 275132, Note_off_c, 2, 65, 64
4, 275712, Note_on_c, 2, 72, 61
4, 275712, Note_on_c, 2, 69, 61
4, 275712, Note_on_c, 2, 65, 61
4, 275900, Note_off_c, 2, 72, 64
4, 275900, Note_off_c, 2, 69, 64
4, 275900, Note_off_c, 2, 65, 64
4, 276480, Note_on_c, 2, 89, 54
4, 276480, Note_on_c, 2, 86, 54
4, 276480, Note_on_c, 2, 77, 54
4, 277244, Note_off_c, 2, 89, 64
4, 277244, Note_off_c, 2, 86, 64
4, 277244, Note_off_c, 2, 77, 64
4, 277248, Note_on_c, 2, 87, 54
4, 277248, Note_on_c, 2, 84, 54
4, 277248, Note_on_c, 2, 75, 54
4, 278012, Note_off_c, 2, 87, 64
4, 278012, Note_off_c, 2, 84, 64
4, 278012, Note_off_c, 2, 75, 64
4, 278016, Note_on_c, 2, 86, 54
4, 278016, Note_on_c, 2, 82, 54
4, 278016, Note_on_c, 2, 74, 54
4, 278780, Note_off_c, 2, 86, 64
4, 278780, Note_off_c, 2, 82, 64
4, 278780, Note_off_c, 2, 74, 64
4, 278784, Note_on_c, 2, 81, 54
4, 278784, Note_on_c, 2, 84, 54
4, 278784, Note_on_c, 2, 72, 54
4, 279548, Note_off_c, 2, 81, 64
4, 279548, Note_off_c, 2, 84, 64
4, 279548, Note_off_c, 2, 72, 64
4, 279552, Note_on_c, 2, 82, 54
4, 279552, Note_on_c, 2, 74, 54
4, 279740, Note_off_c, 2, 82, 64
4, 279740, Note_off_c, 2, 74, 64
4, 279744, Note_on_c, 2, 65, 54
4, 279744, Note_on_c, 2, 62, 54
4, 279744, Note_on_c, 2, 58, 54
4, 279836, Note_off_c, 2, 65, 64
4, 279836, Note_off_c, 2, 62, 64
4, 279836, Note_off_c, 2, 58, 64
4, 279936, Note_on_c, 2, 65, 54
4, 279936, Note_on_c, 2, 62, 54
4, 279936, Note_on_c, 2, 58, 54
4, 280028, Note_off_c, 2, 65, 64
4, 280028, Note_off_c, 2, 62, 64
4, 280028, Note_off_c, 2, 58, 64
4, 280128, Note_on_c, 2, 65, 54
4, 280128, Note_on_c, 2, 62, 54
4, 280128, Note_on_c, 2, 58, 54
4, 280220, Note_off_c, 2, 65, 64
4, 280220, Note_off_c, 2, 62, 64
4, 280220, Note_off_c, 2, 58, 64
4, 280320, Note_on_c, 2, 65, 54
4, 280320, Note_on_c, 2, 63, 54
4, 280320, Note_on_c, 2, 57, 54
4, 280412, Note_off_c, 2, 65, 64
4, 280412, Note_off_c, 2, 63, 64
4, 280412, Note_off_c, 2, 57, 64
4, 280512, Note_on_c, 2, 65, 54
4, 280512, Note_on_c, 2, 63, 54
4, 280512, Note_on_c, 2, 57, 54
4, 280604, Note_off_c, 2, 65, 64
4, 280604, Note_off_c, 2, 63, 64
4, 280604, Note_off_c, 2, 57, 64
4, 280704, Note_on_c, 2, 65, 54
4, 280704, Note_on_c, 2, 63, 54
4, 280704, Note_on_c, 2, 57, 54
4, 280796, Note_off_c, 2, 65, 64
4, 280796, Note_off_c, 2, 63, 64
4, 280796, Note_off_c, 2, 57, 64
4, 280896, Note_on_c, 2, 65, 54
4, 280896, Note_on_c, 2, 63, 54
4, 280896, Note_on_c, 2, 57, 54
4, 280988, Note_off_c, 2, 65, 64
4, 280988, Note_off_c, 2, 63, 64
4, 280988, Note_off_c, 2, 57, 64
4, 281088, Note_on_c, 2, 65, 54
4, 281088, Note_on_c, 2, 62, 54
4, 281088, Note_on_c, 2, 58, 54
4, 281180, Note_off_c, 2, 65, 64
4, 281180, Note_off_c, 2, 62, 64
4, 281180, Note_off_c, 2, 58, 64
4, 281280, Note_on_c, 2, 65, 54
4, 281280, Note_on_c, 2, 62, 54
4, 281280, Note_on_c, 2, 58, 54
4, 281372, Note_off_c, 2, 65, 64
4, 281372, Note_off_c, 2, 62, 64
4, 281372, Note_off_c, 2, 58, 64
4, 281472, Note_on_c, 2, 65, 54
4, 281472, Note_on_c, 2, 62, 54
4, 281472, Note_on_c, 2, 58, 54
4, 281564, Note_off_c, 2, 65, 64
4, 281564, Note_off_c, 2, 62, 64
4, 281564, Note_off_c, 2, 58, 64
4, 281664, Note_on_c, 2, 65, 54
4, 281664, Note_on_c, 2, 62, 54
4, 281664, Note_on_c, 2, 58, 54
4, 281756, Note_off_c, 2, 65, 64
4, 281756, Note_off_c, 2, 62, 64
4, 281756, Note_off_c, 2, 58, 64
4, 281856, Note_on_c, 2, 63, 54
4, 281856, Note_on_c, 2, 57, 54
4, 281856, Note_on_c, 2, 65, 54
4, 281948, Note_off_c, 2, 63, 64
4, 281948, Note_off_c, 2, 57, 64
4, 281948, Note_off_c, 2, 65, 64
4, 282048, Note_on_c, 2, 65, 54
4, 282048, Note_on_c, 2, 63, 54
4, 282048, Note_on_c, 2, 57, 54
4, 282140, Note_off_c, 2, 65, 64
4, 282140, Note_off_c, 2, 63, 64
4, 282140, Note_off_c, 2, 57, 64
4, 282240, Note_on_c, 2, 65, 54
4, 282240, Note_on_c, 2, 63, 54
4, 282240, Note_on_c, 2, 57, 54
4, 282332, Note_off_c, 2, 65, 64
4, 282332, Note_off_c, 2, 63, 64
4, 282332, Note_off_c, 2, 57, 64
4, 282432, Note_on_c, 2, 65, 54
4, 282432, Note_on_c, 2, 63, 54
4, 282432, Note_on_c, 2, 57, 54
4, 282524, Note_off_c, 2, 65, 64
4, 282524, Note_off_c, 2, 63, 64
4, 282524, Note_off_c, 2, 57, 64
4, 282624, Note_on_c, 2, 65, 54
4, 282624, Note_on_c, 2, 62, 54
4, 282624, Note_on_c, 2, 58, 54
4, 282716, Note_off_c, 2, 65, 64
4, 282716, Note_off_c, 2, 62, 64
4, 282716, Note_off_c, 2, 58, 64
4, 282816, Note_on_c, 2, 65, 54
4, 282816, Note_on_c, 2, 62, 54
4, 282816, Note_on_c, 2, 58, 54
4, 282908, Note_off_c, 2, 65, 64
4, 282908, Note_off_c, 2, 62, 64
4, 282908, Note_off_c, 2, 58, 64
4, 283008, Note_on_c, 2, 65, 54
4, 283008, Note_on_c, 2, 62, 54
4, 283008, Note_on_c, 2, 58, 54
4, 283100, Note_off_c, 2, 65, 64
4, 283100, Note_off_c, 2, 62, 64
4, 283100, Note_off_c, 2, 58, 64
4, 283200, Note_on_c, 2, 65, 54
4, 283200, Note_on_c, 2, 62, 54
4, 283200, Note_on_c, 2, 58, 54
4, 283292, Note_off_c, 2, 65, 64
4, 283292, Note_off_c, 2, 62, 64
4, 283292, Note_off_c, 2, 58, 64
4, 283392, Note_on_c, 2, 65, 54
4, 283392, Note_on_c, 2, 63, 54
4, 283392, Note_on_c, 2, 57, 54
4, 283484, Note_off_c, 2, 65, 64
4, 283484, Note_off_c, 2, 63, 64
4, 283484, Note_off_c, 2, 57, 64
4, 283584, Note_on_c, 2, 65, 54
4, 283584, Note_on_c, 2, 63, 54
4, 283584, Note_on_c, 2, 57, 54
4, 283676, Note_off_c, 2, 65, 64
4, 283676, Note_off_c, 2, 63, 64
4, 283676, Note_off_c, 2, 57, 64
4, 283776, Note_on_c, 2, 65, 54
4, 283776, Note_on_c, 2, 63, 54
4, 283776, Note_on_c, 2, 57, 54
4, 283868, Note_off_c, 2, 65, 64
4, 283868, Note_off_c, 2, 63, 64
4, 283868, Note_off_c, 2, 57, 64
4, 283968, Note_on_c, 2, 65, 54
4, 283968, Note_on_c, 2, 63, 54
4, 283968, Note_on_c, 2, 57, 54
4, 284060, Note_off_c, 2, 65, 64
4, 284060, Note_off_c, 2, 63, 64
4, 284060, Note_off_c, 2, 57, 64
4, 284160, Note_on_c, 2, 70, 50
4, 284160, Note_on_c, 2, 74, 50
4, 284160, Note_on_c, 2, 77, 50
4, 284160, Note_on_c, 2, 82, 50
4, 286264, Note_off_c, 2, 74, 64
4, 286268, Note_off_c, 2, 70, 64
4, 286272, Note_off_c, 2, 77, 64
4, 286276, Note_off_c, 2, 82, 64
4, 286276, End_track
5, 0, Start_track
5, 0, Title_t, "B.Fisher"
5, 0, Control_c, 3, 0, 0
5, 0, Program_c, 3, 48
5, 0, Control_c, 3, 7, 91
5, 0, Control_c, 3, 10, 99
5, 0, Control_c, 3, 91, 67
5, 0, Control_c, 3, 93, 2
5, 0, Key_signature, -2, "major"
5, 0, Control_c, 3, 121, 0
5, 480, Control_c, 3, 10, 73
5, 576, Control_c, 3, 91, 63
5, 768, Program_c, 3, 48
5, 13888, Note_on_c, 3, 62, 80
5, 13888, Note_on_c, 3, 58, 80
5, 14200, Note_off_c, 3, 58, 64
5, 14208, Note_on_c, 3, 58, 80
5, 14208, Note_on_c, 3, 46, 80
5, 14584, Note_off_c, 3, 62, 64
5, 14588, Note_off_c, 3, 58, 64
5, 14588, Note_off_c, 3, 46, 64
5, 14592, Note_on_c, 3, 61, 80
5, 14592, Note_on_c, 3, 58, 80
5, 14780, Note_off_c, 3, 61, 64
5, 14784, Note_on_c, 3, 62, 80
5, 14972, Note_off_c, 3, 58, 64
5, 14972, Note_off_c, 3, 62, 64
5, 14976, Note_on_c, 3, 61, 80
5, 14976, Note_on_c, 3, 58, 80
5, 15164, Note_off_c, 3, 61, 64
5, 15168, Note_on_c, 3, 62, 80
5, 15356, Note_off_c, 3, 58, 64
5, 15356, Note_off_c, 3, 62, 64
5, 15360, Note_on_c, 3, 63, 80
5, 15360, Note_on_c, 3, 58, 80
5, 15548, Note_off_c, 3, 63, 64
5, 15552, Note_on_c, 3, 62, 80
5, 15740, Note_off_c, 3, 62, 64
5, 15744, Note_on_c, 3, 60, 80
5, 15932, Note_off_c, 3, 60, 64
5, 15936, Note_on_c, 3, 58, 80
5, 16124, Note_off_c, 3, 58, 64
5, 16124, Note_off_c, 3, 58, 64
5, 16128, Note_on_c, 3, 46, 80
5, 16128, Note_on_c, 3, 34, 80
5, 16508, Note_off_c, 3, 46, 64
5, 16508, Note_off_c, 3, 34, 64
5, 16896, Note_on_c, 3, 58, 60
5, 16896, Note_on_c, 3, 46, 60
5, 16988, Note_off_c, 3, 58, 64
5, 17088, Note_on_c, 3, 53, 60
5, 17180, Note_off_c, 3, 53, 64
5, 17280, Note_on_c, 3, 58, 60
5, 17372, Note_off_c, 3, 58, 64
5, 17472, Note_on_c, 3, 53, 60
5, 17564, Note_off_c, 3, 53, 64
5, 17660, Note_off_c, 3, 46, 64
5, 17664, Note_on_c, 3, 60, 60
5, 17664, Note_on_c, 3, 45, 60
5, 17852, Note_off_c, 3, 60, 64
5, 17856, Note_on_c, 3, 53, 60
5, 18044, Note_off_c, 3, 53, 64
5, 18048, Note_on_c, 3, 60, 60
5, 18236, Note_off_c, 3, 60, 64
5, 18240, Note_on_c, 3, 53, 60
5, 18428, Note_off_c, 3, 45, 64
5, 18428, Note_off_c, 3, 53, 64
5, 18432, Note_on_c, 3, 58, 60
5, 18432, Note_on_c, 3, 46, 60
5, 18620, Note_off_c, 3, 58, 64
5, 18624, Note_on_c, 3, 53, 60
5, 18812, Note_off_c, 3, 53, 64
5, 18816, Note_on_c, 3, 58, 60
5, 19004, Note_off_c, 3, 58, 64
5, 19008, Note_on_c, 3, 53, 60
5, 19196, Note_off_c, 3, 46, 64
5, 19196, Note_off_c, 3, 53, 64
5, 19200, Note_on_c, 3, 53, 61
5, 19200, Note_on_c, 3, 41, 61
5, 19388, Note_off_c, 3, 53, 64
5, 19388, Note_off_c, 3, 41, 64
5, 19968, Note_on_c, 3, 53, 80
5, 19968, Note_on_c, 3, 50, 80
5, 19968, Note_on_c, 3, 46, 80
5, 20348, Note_off_c, 3, 46, 64
5, 20352, Note_on_c, 3, 46, 80
5, 20732, Note_off_c, 3, 53, 64
5, 20732, Note_off_c, 3, 50, 64
5, 20732, Note_off_c, 3, 46, 64
5, 20736, Note_on_c, 3, 46, 80
5, 20736, Note_on_c, 3, 52, 80
5, 20736, Note_on_c, 3, 49, 80
5, 20924, Note_off_c, 3, 52, 64
5, 20924, Note_off_c, 3, 49, 64
5, 20928, Note_on_c, 3, 53, 80
5, 20928, Note_on_c, 3, 50, 80
5, 21116, Note_off_c, 3, 46, 64
5, 21116, Note_off_c, 3, 53, 64
5, 21116, Note_off_c, 3, 50, 64
5, 21120, Note_on_c, 3, 46, 80
5, 21120, Note_on_c, 3, 52, 80
5, 21120, Note_on_c, 3, 49, 80
5, 21308, Note_off_c, 3, 52, 64
5, 21308, Note_off_c, 3, 49, 64
5, 21312, Note_on_c, 3, 53, 80
5, 21312, Note_on_c, 3, 50, 80
5, 21500, Note_off_c, 3, 46, 64
5, 21500, Note_off_c, 3, 53, 64
5, 21500, Note_off_c, 3, 50, 64
5, 21504, Note_on_c, 3, 55, 80
5, 21504, Note_on_c, 3, 51, 80
5, 21504, Note_on_c, 3, 46, 80
5, 21692, Note_off_c, 3, 55, 64
5, 21692, Note_off_c, 3, 51, 64
5, 21696, Note_on_c, 3, 53, 80
5, 21696, Note_on_c, 3, 50, 80
5, 21884, Note_off_c, 3, 53, 64
5, 21884, Note_off_c, 3, 50, 64
5, 21888, Note_on_c, 3, 51, 80
5, 21888, Note_on_c, 3, 48, 80
5, 22076, Note_off_c, 3, 51, 64
5, 22076, Note_off_c, 3, 48, 64
5, 22080, Note_on_c, 3, 50, 80
5, 22080, Note_on_c, 3, 46, 80
5, 22268, Note_off_c, 3, 46, 64
5, 22268, Note_off_c, 3, 50, 64
5, 22268, Note_off_c, 3, 46, 64
5, 22272, Note_on_c, 3, 46, 80
5, 22272, Note_on_c, 3, 34, 80
5, 22460, Note_off_c, 3, 46, 64
5, 22460, Note_off_c, 3, 34, 64
5, 23040, Note_on_c, 3, 53, 60
5, 23040, Note_on_c, 3, 41, 60
5, 23132, Note_off_c, 3, 53, 64
5, 23232, Note_on_c, 3, 50, 60
5, 23324, Note_off_c, 3, 50, 64
5, 23424, Note_on_c, 3, 53, 60
5, 23516, Note_off_c, 3, 53, 64
5, 23616, Note_on_c, 3, 50, 60
5, 23708, Note_off_c, 3, 50, 64
5, 23804, Note_off_c, 3, 41, 64
5, 23808, Note_on_c, 3, 41, 60
5, 23808, Note_on_c, 3, 51, 60
5, 23900, Note_off_c, 3, 51, 64
5, 24000, Note_on_c, 3, 48, 60
5, 24092, Note_off_c, 3, 48, 64
5, 24192, Note_on_c, 3, 51, 60
5, 24284, Note_off_c, 3, 51, 64
5, 24384, Note_on_c, 3, 48, 60
5, 24476, Note_off_c, 3, 48, 64
5, 24572, Note_off_c, 3, 41, 64
5, 24576, Note_on_c, 3, 46, 60
5, 24576, Note_on_c, 3, 34, 60
5, 24764, Note_off_c, 3, 46, 64
5, 24764, Note_off_c, 3, 34, 64
5, 24960, Note_on_c, 3, 41, 60
5, 24960, Note_on_c, 3, 29, 60
5, 25148, Note_off_c, 3, 41, 64
5, 25148, Note_off_c, 3, 29, 64
5, 25344, Note_on_c, 3, 46, 60
5, 25344, Note_on_c, 3, 34, 60
5, 25532, Note_off_c, 3, 46, 64
5, 25532, Note_off_c, 3, 34, 64
5, 38464, Note_on_c, 3, 53, 80
5, 38464, Note_on_c, 3, 41, 80
5, 38584, Note_off_c, 3, 53, 64
5, 38584, Note_off_c, 3, 41, 64
5, 38592, Note_on_c, 3, 60, 80
5, 38592, Note_on_c, 3, 57, 80
5, 38684, Note_off_c, 3, 60, 64
5, 38684, Note_off_c, 3, 57, 64
5, 38784, Note_on_c, 3, 60, 80
5, 38784, Note_on_c, 3, 57, 80
5, 38972, Note_off_c, 3, 60, 64
5, 38972, Note_off_c, 3, 57, 64
5, 38976, Note_on_c, 3, 62, 80
5, 38976, Note_on_c, 3, 58, 80
5, 39164, Note_off_c, 3, 62, 64
5, 39164, Note_off_c, 3, 58, 64
5, 39168, Note_on_c, 3, 63, 80
5, 39168, Note_on_c, 3, 60, 80
5, 39356, Note_off_c, 3, 63, 64
5, 39356, Note_off_c, 3, 60, 64
5, 39360, Note_on_c, 3, 63, 80
5, 39360, Note_on_c, 3, 60, 80
5, 39548, Note_off_c, 3, 63, 64
5, 39548, Note_off_c, 3, 60, 64
5, 39552, Note_on_c, 3, 62, 80
5, 39552, Note_on_c, 3, 58, 80
5, 39740, Note_off_c, 3, 62, 64
5, 39740, Note_off_c, 3, 58, 64
5, 39744, Note_on_c, 3, 60, 80
5, 39744, Note_on_c, 3, 57, 80
5, 39932, Note_off_c, 3, 60, 64
5, 39932, Note_off_c, 3, 57, 64
5, 39936, Note_on_c, 3, 46, 80
5, 39936, Note_on_c, 3, 34, 80
5, 40124, Note_off_c, 3, 46, 64
5, 40124, Note_off_c, 3, 34, 64
5, 40128, Note_on_c, 3, 62, 80
5, 40128, Note_on_c, 3, 58, 80
5, 40220, Note_off_c, 3, 62, 64
5, 40220, Note_off_c, 3, 58, 64
5, 40320, Note_on_c, 3, 62, 80
5, 40320, Note_on_c, 3, 58, 80
5, 40508, Note_off_c, 3, 62, 64
5, 40508, Note_off_c, 3, 58, 64
5, 40512, Note_on_c, 3, 63, 80
5, 40512, Note_on_c, 3, 60, 80
5, 40700, Note_off_c, 3, 63, 64
5, 40700, Note_off_c, 3, 60, 64
5, 40704, Note_on_c, 3, 65, 80
5, 40704, Note_on_c, 3, 62, 80
5, 40892, Note_off_c, 3, 65, 64
5, 40892, Note_off_c, 3, 62, 64
5, 41472, Note_on_c, 3, 60, 60
5, 41472, Note_on_c, 3, 48, 60
5, 41660, Note_off_c, 3, 60, 64
5, 41660, Note_off_c, 3, 48, 64
5, 43008, Note_on_c, 3, 53, 60
5, 43008, Note_on_c, 3, 41, 60
5, 43196, Note_off_c, 3, 53, 64
5, 43196, Note_off_c, 3, 41, 64
5, 43968, Note_on_c, 3, 60, 80
5, 43968, Note_on_c, 3, 57, 80
5, 43968, Note_on_c, 3, 53, 80
5, 44156, Note_off_c, 3, 60, 64
5, 44156, Note_off_c, 3, 57, 64
5, 44160, Note_on_c, 3, 58, 80
5, 44160, Note_on_c, 3, 62, 80
5, 44348, Note_off_c, 3, 58, 64
5, 44348, Note_off_c, 3, 62, 64
5, 44352, Note_on_c, 3, 63, 80
5, 44352, Note_on_c, 3, 60, 80
5, 44540, Note_off_c, 3, 53, 64
5, 44540, Note_off_c, 3, 63, 64
5, 44540, Note_off_c, 3, 60, 64
5, 44544, Note_on_c, 3, 65, 80
5, 44544, Note_on_c, 3, 62, 80
5, 44544, Note_on_c, 3, 58, 80
5, 44544, Note_on_c, 3, 53, 80
5, 44924, Note_off_c, 3, 65, 64
5, 44924, Note_off_c, 3, 62, 64
5, 44924, Note_off_c, 3, 58, 64
5, 44924, Note_off_c, 3, 53, 64
5, 44928, Note_on_c, 3, 58, 80
5, 44928, Note_on_c, 3, 46, 80
5, 45308, Note_off_c, 3, 58, 64
5, 45308, Note_off_c, 3, 46, 64
5, 45312, Note_on_c, 3, 58, 80
5, 45312, Note_on_c, 3, 61, 80
5, 45312, Note_on_c, 3, 64, 80
5, 45500, Note_off_c, 3, 61, 64
5, 45500, Note_off_c, 3, 64, 64
5, 45504, Note_on_c, 3, 62, 80
5, 45504, Note_on_c, 3, 65, 80
5, 45692, Note_off_c, 3, 58, 64
5, 45692, Note_off_c, 3, 62, 64
5, 45692, Note_off_c, 3, 65, 64
5, 45696, Note_on_c, 3, 58, 80
5, 45696, Note_on_c, 3, 61, 80
5, 45696, Note_on_c, 3, 64, 80
5, 45884, Note_off_c, 3, 61, 64
5, 45884, Note_off_c, 3, 64, 64
5, 45888, Note_on_c, 3, 62, 80
5, 45888, Note_on_c, 3, 65, 80
5, 46076, Note_off_c, 3, 58, 64
5, 46076, Note_off_c, 3, 62, 64
5, 46076, Note_off_c, 3, 65, 64
5, 46080, Note_on_c, 3, 67, 80
5, 46080, Note_on_c, 3, 63, 80
5, 46080, Note_on_c, 3, 58, 80
5, 46268, Note_off_c, 3, 67, 64
5, 46268, Note_off_c, 3, 63, 64
5, 46272, Note_on_c, 3, 65, 80
5, 46272, Note_on_c, 3, 62, 80
5, 46460, Note_off_c, 3, 65, 64
5, 46460, Note_off_c, 3, 62, 64
5, 46464, Note_on_c, 3, 63, 80
5, 46464, Note_on_c, 3, 60, 80
5, 46652, Note_off_c, 3, 63, 64
5, 46652, Note_off_c, 3, 60, 64
5, 46656, Note_on_c, 3, 62, 80
5, 46656, Note_on_c, 3, 58, 80
5, 46844, Note_off_c, 3, 58, 64
5, 46844, Note_off_c, 3, 62, 64
5, 46844, Note_off_c, 3, 58, 64
5, 46848, Note_on_c, 3, 58, 80
5, 46848, Note_on_c, 3, 46, 80
5, 47228, Note_off_c, 3, 58, 64
5, 47228, Note_off_c, 3, 46, 64
5, 47616, Note_on_c, 3, 53, 60
5, 47616, Note_on_c, 3, 41, 60
5, 47708, Note_off_c, 3, 53, 64
5, 47808, Note_on_c, 3, 50, 60
5, 47900, Note_off_c, 3, 50, 64
5, 48000, Note_on_c, 3, 53, 60
5, 48092, Note_off_c, 3, 53, 64
5, 48192, Note_on_c, 3, 50, 60
5, 48284, Note_off_c, 3, 50, 64
5, 48380, Note_off_c, 3, 41, 64
5, 48384, Note_on_c, 3, 51, 60
5, 48384, Note_on_c, 3, 41, 60
5, 48476, Note_off_c, 3, 51, 64
5, 48576, Note_on_c, 3, 48, 60
5, 48668, Note_off_c, 3, 48, 64
5, 48768, Note_on_c, 3, 51, 60
5, 48860, Note_off_c, 3, 51, 64
5, 48960, Note_on_c, 3, 48, 60
5, 49052, Note_off_c, 3, 48, 64
5, 49148, Note_off_c, 3, 41, 64
5, 49152, Note_on_c, 3, 43, 60
5, 49344, Note_on_c, 3, 59, 60
5, 49344, Note_on_c, 3, 53, 60
5, 49436, Note_off_c, 3, 59, 64
5, 49436, Note_off_c, 3, 53, 64
5, 49532, Note_off_c, 3, 43, 64
5, 49536, Note_on_c, 3, 59, 60
5, 49536, Note_on_c, 3, 53, 60
5, 49628, Note_off_c, 3, 59, 64
5, 49628, Note_off_c, 3, 53, 64
5, 49728, Note_on_c, 3, 59, 60
5, 49728, Note_on_c, 3, 53, 60
5, 49820, Note_off_c, 3, 59, 64
5, 49820, Note_off_c, 3, 53, 64
5, 49920, Note_on_c, 3, 48, 61
5, 50112, Note_on_c, 3, 60, 62
5, 50112, Note_on_c, 3, 51, 62
5, 50204, Note_off_c, 3, 60, 64
5, 50204, Note_off_c, 3, 51, 64
5, 50300, Note_off_c, 3, 48, 64
5, 50304, Note_on_c, 3, 60, 63
5, 50304, Note_on_c, 3, 55, 63
5, 50396, Note_off_c, 3, 60, 64
5, 50396, Note_off_c, 3, 55, 64
5, 50496, Note_on_c, 3, 60, 65
5, 50496, Note_on_c, 3, 55, 65
5, 50588, Note_off_c, 3, 60, 64
5, 50588, Note_off_c, 3, 55, 64
5, 50688, Note_on_c, 3, 46, 67
5, 50880, Note_on_c, 3, 62, 68
5, 50880, Note_on_c, 3, 56, 68
5, 50972, Note_off_c, 3, 62, 64
5, 50972, Note_off_c, 3, 56, 64
5, 51068, Note_off_c, 3, 46, 64
5, 51072, Note_on_c, 3, 62, 71
5, 51072, Note_on_c, 3, 56, 71
5, 51164, Note_off_c, 3, 62, 64
5, 51164, Note_off_c, 3, 56, 64
5, 51264, Note_on_c, 3, 62, 73
5, 51264, Note_on_c, 3, 56, 73
5, 51356, Note_off_c, 3, 62, 64
5, 51356, Note_off_c, 3, 56, 64
5, 51456, Note_on_c, 3, 51, 75
5, 51648, Note_on_c, 3, 63, 76
5, 51648, Note_on_c, 3, 55, 76
5, 51740, Note_off_c, 3, 63, 64
5, 51740, Note_off_c, 3, 55, 64
5, 51836, Note_off_c, 3, 51, 64
5, 51840, Note_on_c, 3, 63, 77
5, 51840, Note_on_c, 3, 58, 77
5, 51932, Note_off_c, 3, 63, 64
5, 51932, Note_off_c, 3, 58, 64
5, 52032, Note_on_c, 3, 63, 79
5, 52032, Note_on_c, 3, 58, 79
5, 52124, Note_off_c, 3, 63, 64
5, 52124, Note_off_c, 3, 58, 64
5, 52224, Note_on_c, 3, 53, 80
5, 52416, Note_on_c, 3, 63, 80
5, 52416, Note_on_c, 3, 60, 80
5, 52508, Note_off_c, 3, 63, 64
5, 52508, Note_off_c, 3, 60, 64
5, 52608, Note_on_c, 3, 63, 80
5, 52608, Note_on_c, 3, 60, 80
5, 52700, Note_off_c, 3, 63, 64
5, 52700, Note_off_c, 3, 60, 64
5, 52800, Note_on_c, 3, 60, 80
5, 52800, Note_on_c, 3, 63, 80
5, 52892, Note_off_c, 3, 60, 64
5, 52892, Note_off_c, 3, 63, 64
5, 52988, Note_off_c, 3, 53, 64
5, 52992, Note_on_c, 3, 62, 80
5, 52992, Note_on_c, 3, 58, 80
5, 52992, Note_on_c, 3, 55, 80
5, 53372, Note_off_c, 3, 62, 64
5, 53372, Note_off_c, 3, 58, 64
5, 53372, Note_off_c, 3, 55, 64
5, 53376, Note_on_c, 3, 63, 80
5, 53376, Note_on_c, 3, 58, 80
5, 53376, Note_on_c, 3, 51, 80
5, 53756, Note_off_c, 3, 63, 64
5, 53756, Note_off_c, 3, 58, 64
5, 53756, Note_off_c, 3, 51, 64
5, 53760, Note_on_c, 3, 58, 80
5, 53760, Note_on_c, 3, 50, 80
5, 54140, Note_off_c, 3, 58, 64
5, 54140, Note_off_c, 3, 50, 64
5, 54144, Note_on_c, 3, 55, 80
5, 54144, Note_on_c, 3, 51, 80
5, 54144, Note_on_c, 3, 60, 80
5, 54524, Note_off_c, 3, 55, 64
5, 54524, Note_off_c, 3, 51, 64
5, 54524, Note_off_c, 3, 60, 64
5, 54528, Note_on_c, 3, 58, 80
5, 54528, Note_on_c, 3, 53, 80
5, 54908, Note_off_c, 3, 58, 64
5, 54908, Note_off_c, 3, 53, 64
5, 54912, Note_on_c, 3, 53, 80
5, 54912, Note_on_c, 3, 41, 80
5, 55292, Note_off_c, 3, 53, 64
5, 55292, Note_off_c, 3, 41, 64
5, 55296, Note_on_c, 3, 53, 60
5, 55296, Note_on_c, 3, 46, 60
5, 55484, Note_off_c, 3, 53, 64
5, 55484, Note_off_c, 3, 46, 64
5, 55488, Note_on_c, 3, 62, 60
5, 55488, Note_on_c, 3, 58, 60
5, 55488, Note_on_c, 3, 53, 60
5, 55580, Note_off_c, 3, 62, 64
5, 55580, Note_off_c, 3, 58, 64
5, 55580, Note_off_c, 3, 53, 64
5, 55680, Note_on_c, 3, 62, 60
5, 55680, Note_on_c, 3, 58, 60
5, 55680, Note_on_c, 3, 53, 60
5, 55772, Note_off_c, 3, 62, 64
5, 55772, Note_off_c, 3, 58, 64
5, 55772, Note_off_c, 3, 53, 64
5, 55872, Note_on_c, 3, 62, 60
5, 55872, Note_on_c, 3, 58, 60
5, 55872, Note_on_c, 3, 53, 60
5, 55964, Note_off_c, 3, 62, 64
5, 55964, Note_off_c, 3, 58, 64
5, 55964, Note_off_c, 3, 53, 64
5, 56064, Note_on_c, 3, 41, 60
5, 56252, Note_off_c, 3, 41, 64
5, 56256, Note_on_c, 3, 63, 60
5, 56256, Note_on_c, 3, 57, 60
5, 56256, Note_on_c, 3, 53, 60
5, 56348, Note_off_c, 3, 63, 64
5, 56348, Note_off_c, 3, 57, 64
5, 56348, Note_off_c, 3, 53, 64
5, 56448, Note_on_c, 3, 63, 60
5, 56448, Note_on_c, 3, 57, 60
5, 56448, Note_on_c, 3, 53, 60
5, 56540, Note_off_c, 3, 63, 64
5, 56540, Note_off_c, 3, 57, 64
5, 56540, Note_off_c, 3, 53, 64
5, 56640, Note_on_c, 3, 63, 60
5, 56640, Note_on_c, 3, 57, 60
5, 56640, Note_on_c, 3, 53, 60
5, 56732, Note_off_c, 3, 63, 64
5, 56732, Note_off_c, 3, 57, 64
5, 56732, Note_off_c, 3, 53, 64
5, 56832, Note_on_c, 3, 46, 60
5, 57020, Note_off_c, 3, 46, 64
5, 57024, Note_on_c, 3, 62, 60
5, 57024, Note_on_c, 3, 58, 60
5, 57024, Note_on_c, 3, 53, 60
5, 57116, Note_off_c, 3, 62, 64
5, 57116, Note_off_c, 3, 58, 64
5, 57116, Note_off_c, 3, 53, 64
5, 57216, Note_on_c, 3, 62, 60
5, 57216, Note_on_c, 3, 58, 60
5, 57216, Note_on_c, 3, 53, 60
5, 57308, Note_off_c, 3, 62, 64
5, 57308, Note_off_c, 3, 58, 64
5, 57308, Note_off_c, 3, 53, 64
5, 57408, Note_on_c, 3, 62, 60
5, 57408, Note_on_c, 3, 58, 60
5, 57408, Note_on_c, 3, 53, 60
5, 57500, Note_off_c, 3, 62, 64
5, 57500, Note_off_c, 3, 58, 64
5, 57500, Note_off_c, 3, 53, 64
5, 57600, Note_on_c, 3, 41, 60
5, 57788, Note_off_c, 3, 41, 64
5, 57792, Note_on_c, 3, 63, 60
5, 57792, Note_on_c, 3, 57, 60
5, 57792, Note_on_c, 3, 53, 60
5, 57884, Note_off_c, 3, 63, 64
5, 57884, Note_off_c, 3, 57, 64
5, 57884, Note_off_c, 3, 53, 64
5, 57984, Note_on_c, 3, 63, 60
5, 57984, Note_on_c, 3, 57, 60
5, 57984, Note_on_c, 3, 53, 60
5, 58076, Note_off_c, 3, 63, 64
5, 58076, Note_off_c, 3, 57, 64
5, 58076, Note_off_c, 3, 53, 64
5, 58176, Note_on_c, 3, 63, 60
5, 58176, Note_on_c, 3, 57, 60
5, 58176, Note_on_c, 3, 53, 60
5, 58268, Note_off_c, 3, 63, 64
5, 58268, Note_off_c, 3, 57, 64
5, 58268, Note_off_c, 3, 53, 64
5, 58368, Note_on_c, 3, 46, 60
5, 58556, Note_off_c, 3, 46, 64
5, 58560, Note_on_c, 3, 62, 60
5, 58560, Note_on_c, 3, 58, 60
5, 58560, Note_on_c, 3, 53, 60
5, 58652, Note_off_c, 3, 62, 64
5, 58652, Note_off_c, 3, 58, 64
5, 58652, Note_off_c, 3, 53, 64
5, 58752, Note_on_c, 3, 62, 60
5, 58752, Note_on_c, 3, 53, 60
5, 58752, Note_on_c, 3, 58, 60
5, 58844, Note_off_c, 3, 62, 64
5, 58844, Note_off_c, 3, 53, 64
5, 58844, Note_off_c, 3, 58, 64
5, 58944, Note_on_c, 3, 62, 60
5, 58944, Note_on_c, 3, 58, 60
5, 58944, Note_on_c, 3, 53, 60
5, 59036, Note_off_c, 3, 62, 64
5, 59036, Note_off_c, 3, 58, 64
5, 59036, Note_off_c, 3, 53, 64
5, 59136, Note_on_c, 3, 41, 60
5, 59324, Note_off_c, 3, 41, 64
5, 59328, Note_on_c, 3, 60, 60
5, 59328, Note_on_c, 3, 53, 60
5, 59328, Note_on_c, 3, 51, 60
5, 59420, Note_off_c, 3, 60, 64
5, 59420, Note_off_c, 3, 53, 64
5, 59420, Note_off_c, 3, 51, 64
5, 59520, Note_on_c, 3, 60, 60
5, 59520, Note_on_c, 3, 53, 60
5, 59520, Note_on_c, 3, 51, 60
5, 59612, Note_off_c, 3, 60, 64
5, 59612, Note_off_c, 3, 53, 64
5, 59612, Note_off_c, 3, 51, 64
5, 59712, Note_on_c, 3, 60, 60
5, 59712, Note_on_c, 3, 53, 60
5, 59712, Note_on_c, 3, 51, 60
5, 59804, Note_off_c, 3, 60, 64
5, 59804, Note_off_c, 3, 53, 64
5, 59804, Note_off_c, 3, 51, 64
5, 59904, Note_on_c, 3, 57, 60
5, 59904, Note_on_c, 3, 53, 60
5, 59904, Note_on_c, 3, 51, 60
5, 59904, Note_on_c, 3, 46, 60
5, 60092, Note_off_c, 3, 46, 64
5, 60288, Note_on_c, 3, 41, 60
5, 60476, Note_off_c, 3, 41, 64
5, 60576, Note_on_c, 3, 34, 71
5, 60668, Note_off_c, 3, 57, 64
5, 60668, Note_off_c, 3, 53, 64
5, 60668, Note_off_c, 3, 51, 64
5, 60668, Note_off_c, 3, 34, 64
5, 60672, Note_on_c, 3, 58, 60
5, 60672, Note_on_c, 3, 53, 60
5, 60672, Note_on_c, 3, 50, 60
5, 61052, Note_off_c, 3, 58, 64
5, 61052, Note_off_c, 3, 53, 64
5, 61052, Note_off_c, 3, 50, 64
5, 61504, Note_on_c, 3, 46, 60
5, 61504, Note_on_c, 3, 34, 66
5, 61884, Note_off_c, 3, 46, 64
5, 61884, Note_off_c, 3, 34, 64
5, 62976, Note_on_c, 3, 46, 60
5, 62976, Note_on_c, 3, 34, 66
5, 63356, Note_off_c, 3, 46, 64
5, 63356, Note_off_c, 3, 34, 64
5, 64512, Note_on_c, 3, 46, 60
5, 64512, Note_on_c, 3, 34, 66
5, 64892, Note_off_c, 3, 46, 64
5, 64892, Note_off_c, 3, 34, 64
5, 66048, Note_on_c, 3, 46, 60
5, 66048, Note_on_c, 3, 34, 66
5, 66428, Note_off_c, 3, 46, 64
5, 66428, Note_off_c, 3, 34, 64
5, 67584, Note_on_c, 3, 46, 60
5, 67584, Note_on_c, 3, 34, 66
5, 67964, Note_off_c, 3, 46, 64
5, 67964, Note_off_c, 3, 34, 64
5, 69120, Note_on_c, 3, 46, 60
5, 69120, Note_on_c, 3, 34, 66
5, 69500, Note_off_c, 3, 46, 64
5, 69500, Note_off_c, 3, 34, 64
5, 70656, Note_on_c, 3, 53, 60
5, 70656, Note_on_c, 3, 41, 66
5, 71036, Note_off_c, 3, 53, 64
5, 71036, Note_off_c, 3, 41, 64
5, 72192, Note_on_c, 3, 46, 60
5, 72192, Note_on_c, 3, 34, 66
5, 72572, Note_off_c, 3, 46, 64
5, 72572, Note_off_c, 3, 34, 64
5, 73728, Note_on_c, 3, 46, 60
5, 73728, Note_on_c, 3, 34, 66
5, 74108, Note_off_c, 3, 46, 64
5, 74108, Note_off_c, 3, 34, 64
5, 75264, Note_on_c, 3, 46, 60
5, 75264, Note_on_c, 3, 34, 66
5, 75644, Note_off_c, 3, 46, 64
5, 75644, Note_off_c, 3, 34, 64
5, 76800, Note_on_c, 3, 53, 60
5, 76800, Note_on_c, 3, 41, 66
5, 77180, Note_off_c, 3, 53, 64
5, 77180, Note_off_c, 3, 41, 64
5, 78336, Note_on_c, 3, 34, 66
5, 78336, Note_on_c, 3, 46, 60
5, 78716, Note_off_c, 3, 34, 64
5, 78716, Note_off_c, 3, 46, 64
5, 79104, Note_on_c, 3, 50, 60
5, 79104, Note_on_c, 3, 38, 66
5, 79868, Note_off_c, 3, 50, 64
5, 79868, Note_off_c, 3, 38, 64
5, 79872, Note_on_c, 3, 55, 60
5, 79872, Note_on_c, 3, 43, 63
5, 80252, Note_off_c, 3, 55, 64
5, 80252, Note_off_c, 3, 43, 64
5, 81408, Note_on_c, 3, 55, 60
5, 81408, Note_on_c, 3, 43, 63
5, 81600, Note_on_c, 3, 57, 60
5, 81788, Note_off_c, 3, 55, 64
5, 81788, Note_off_c, 3, 43, 64
5, 81788, Note_off_c, 3, 57, 64
5, 81792, Note_on_c, 3, 58, 60
5, 81980, Note_off_c, 3, 58, 64
5, 81984, Note_on_c, 3, 57, 60
5, 82172, Note_off_c, 3, 57, 64
5, 82176, Note_on_c, 3, 55, 60
5, 82364, Note_off_c, 3, 55, 64
5, 82368, Note_on_c, 3, 58, 60
5, 82556, Note_off_c, 3, 58, 64
5, 82560, Note_on_c, 3, 57, 60
5, 82560, Note_on_c, 3, 48, 60
5, 82748, Note_off_c, 3, 57, 64
5, 82752, Note_on_c, 3, 57, 60
5, 82940, Note_off_c, 3, 48, 64
5, 82940, Note_off_c, 3, 57, 64
5, 83008, Note_on_c, 3, 53, 60
5, 83008, Note_on_c, 3, 41, 64
5, 83388, Note_off_c, 3, 53, 64
5, 83388, Note_off_c, 3, 41, 64
5, 84480, Note_on_c, 3, 53, 60
5, 84480, Note_on_c, 3, 41, 64
5, 84860, Note_off_c, 3, 53, 64
5, 84860, Note_off_c, 3, 41, 64
5, 85248, Note_on_c, 3, 60, 60
5, 85436, Note_off_c, 3, 60, 64
5, 85440, Note_on_c, 3, 58, 60
5, 85628, Note_off_c, 3, 58, 64
5, 85632, Note_on_c, 3, 58, 60
5, 85820, Note_off_c, 3, 58, 64
5, 85824, Note_on_c, 3, 57, 60
5, 86012, Note_off_c, 3, 57, 64
5, 86080, Note_on_c, 3, 41, 64
5, 86080, Note_on_c, 3, 53, 60
5, 86200, Note_off_c, 3, 41, 64
5, 86200, Note_off_c, 3, 53, 64
5, 86208, Note_on_c, 3, 53, 60
5, 86396, Note_off_c, 3, 53, 64
5, 86400, Note_on_c, 3, 53, 60
5, 86588, Note_off_c, 3, 53, 64
5, 86592, Note_on_c, 3, 53, 60
5, 86780, Note_off_c, 3, 53, 64
5, 86848, Note_on_c, 3, 43, 63
5, 86848, Note_on_c, 3, 55, 60
5, 86968, Note_off_c, 3, 43, 64
5, 86968, Note_off_c, 3, 55, 64
5, 86976, Note_on_c, 3, 55, 60
5, 87164, Note_off_c, 3, 55, 64
5, 87168, Note_on_c, 3, 55, 60
5, 87356, Note_off_c, 3, 55, 64
5, 87360, Note_on_c, 3, 55, 60
5, 87548, Note_off_c, 3, 55, 64
5, 87616, Note_on_c, 3, 56, 60
5, 87616, Note_on_c, 3, 44, 62
5, 87736, Note_off_c, 3, 56, 64
5, 87736, Note_off_c, 3, 44, 64
5, 87744, Note_on_c, 3, 56, 60
5, 87932, Note_off_c, 3, 56, 64
5, 87936, Note_on_c, 3, 56, 60
5, 88124, Note_off_c, 3, 56, 64
5, 88128, Note_on_c, 3, 56, 60
5, 88316, Note_off_c, 3, 56, 64
5, 88320, Note_on_c, 3, 58, 60
5, 88320, Note_on_c, 3, 46, 60
5, 88508, Note_off_c, 3, 58, 64
5, 88508, Note_off_c, 3, 46, 64
5, 88512, Note_on_c, 3, 58, 60
5, 88700, Note_off_c, 3, 58, 64
5, 88704, Note_on_c, 3, 58, 60
5, 88892, Note_off_c, 3, 58, 64
5, 88896, Note_on_c, 3, 58, 60
5, 89084, Note_off_c, 3, 58, 64
5, 89088, Note_on_c, 3, 60, 60
5, 89088, Note_on_c, 3, 48, 60
5, 89276, Note_off_c, 3, 60, 64
5, 89276, Note_off_c, 3, 48, 64
5, 89280, Note_on_c, 3, 56, 60
5, 89468, Note_off_c, 3, 56, 64
5, 89472, Note_on_c, 3, 60, 60
5, 89660, Note_off_c, 3, 60, 64
5, 89664, Note_on_c, 3, 60, 60
5, 89852, Note_off_c, 3, 60, 64
5, 89856, Note_on_c, 3, 48, 60
5, 89856, Note_on_c, 3, 36, 66
5, 90044, Note_off_c, 3, 48, 64
5, 90044, Note_off_c, 3, 36, 64
5, 90048, Note_on_c, 3, 48, 60
5, 90236, Note_off_c, 3, 48, 64
5, 90240, Note_on_c, 3, 48, 60
5, 90428, Note_off_c, 3, 48, 64
5, 90432, Note_on_c, 3, 48, 60
5, 90620, Note_off_c, 3, 48, 64
5, 90624, Note_on_c, 3, 48, 60
5, 90624, Note_on_c, 3, 36, 66
5, 91004, Note_off_c, 3, 36, 64
5, 91388, Note_off_c, 3, 48, 64
5, 91392, Note_on_c, 3, 48, 60
5, 91392, Note_on_c, 3, 36, 66
5, 91772, Note_off_c, 3, 48, 64
5, 91772, Note_off_c, 3, 36, 64
5, 92160, Note_on_c, 3, 53, 60
5, 92160, Note_on_c, 3, 41, 64
5, 92540, Note_off_c, 3, 53, 64
5, 92540, Note_off_c, 3, 41, 64
5, 92928, Note_on_c, 3, 53, 60
5, 92928, Note_on_c, 3, 41, 64
5, 93308, Note_off_c, 3, 53, 64
5, 93308, Note_off_c, 3, 41, 64
5, 93696, Note_on_c, 3, 53, 60
5, 93696, Note_on_c, 3, 41, 64
5, 94076, Note_off_c, 3, 53, 64
5, 94076, Note_off_c, 3, 41, 64
5, 95232, Note_on_c, 3, 48, 60
5, 95232, Note_on_c, 3, 36, 66
5, 95612, Note_off_c, 3, 48, 64
5, 95612, Note_off_c, 3, 36, 64
5, 96000, Note_on_c, 3, 48, 60
5, 96000, Note_on_c, 3, 36, 66
5, 96380, Note_off_c, 3, 48, 64
5, 96380, Note_off_c, 3, 36, 64
5, 96768, Note_on_c, 3, 53, 56
5, 96768, Note_on_c, 3, 41, 60
5, 96960, Note_on_c, 3, 60, 56
5, 96960, Note_on_c, 3, 57, 56
5, 96960, Note_on_c, 3, 53, 56
5, 97052, Note_off_c, 3, 53, 64
5, 97052, Note_off_c, 3, 60, 64
5, 97052, Note_off_c, 3, 57, 64
5, 97148, Note_off_c, 3, 41, 64
5, 97148, Note_off_c, 3, 53, 64
5, 97152, Note_on_c, 3, 60, 56
5, 97152, Note_on_c, 3, 57, 56
5, 97152, Note_on_c, 3, 53, 56
5, 97244, Note_off_c, 3, 60, 64
5, 97244, Note_off_c, 3, 57, 64
5, 97244, Note_off_c, 3, 53, 64
5, 97344, Note_on_c, 3, 60, 56
5, 97344, Note_on_c, 3, 57, 56
5, 97344, Note_on_c, 3, 53, 56
5, 97436, Note_off_c, 3, 60, 64
5, 97436, Note_off_c, 3, 57, 64
5, 97436, Note_off_c, 3, 53, 64
5, 97536, Note_on_c, 3, 58, 56
5, 97536, Note_on_c, 3, 60, 56
5, 97536, Note_on_c, 3, 52, 56
5, 97536, Note_on_c, 3, 48, 56
5, 97536, Note_on_c, 3, 36, 64
5, 97628, Note_off_c, 3, 58, 64
5, 97628, Note_off_c, 3, 60, 64
5, 97628, Note_off_c, 3, 52, 64
5, 97728, Note_on_c, 3, 60, 56
5, 97728, Note_on_c, 3, 58, 56
5, 97728, Note_on_c, 3, 52, 56
5, 97820, Note_off_c, 3, 60, 64
5, 97820, Note_off_c, 3, 58, 64
5, 97820, Note_off_c, 3, 52, 64
5, 97916, Note_off_c, 3, 48, 64
5, 97916, Note_off_c, 3, 36, 64
5, 97920, Note_on_c, 3, 60, 56
5, 97920, Note_on_c, 3, 58, 56
5, 97920, Note_on_c, 3, 52, 56
5, 98012, Note_off_c, 3, 60, 64
5, 98012, Note_off_c, 3, 58, 64
5, 98012, Note_off_c, 3, 52, 64
5, 98112, Note_on_c, 3, 60, 56
5, 98112, Note_on_c, 3, 58, 56
5, 98112, Note_on_c, 3, 52, 56
5, 98204, Note_off_c, 3, 60, 64
5, 98204, Note_off_c, 3, 58, 64
5, 98204, Note_off_c, 3, 52, 64
5, 98304, Note_on_c, 3, 41, 60
5, 98304, Note_on_c, 3, 60, 56
5, 98304, Note_on_c, 3, 57, 56
5, 98304, Note_on_c, 3, 53, 56
5, 98396, Note_off_c, 3, 60, 64
5, 98396, Note_off_c, 3, 57, 64
5, 98396, Note_off_c, 3, 53, 64
5, 98496, Note_on_c, 3, 60, 56
5, 98496, Note_on_c, 3, 57, 56
5, 98496, Note_on_c, 3, 53, 56
5, 98588, Note_off_c, 3, 60, 64
5, 98588, Note_off_c, 3, 57, 64
5, 98588, Note_off_c, 3, 53, 64
5, 98684, Note_off_c, 3, 41, 64
5, 98688, Note_on_c, 3, 60, 56
5, 98688, Note_on_c, 3, 57, 56
5, 98688, Note_on_c, 3, 53, 56
5, 98780, Note_off_c, 3, 60, 64
5, 98780, Note_off_c, 3, 57, 64
5, 98780, Note_off_c, 3, 53, 64
5, 98880, Note_on_c, 3, 60, 56
5, 98880, Note_on_c, 3, 57, 56
5, 98880, Note_on_c, 3, 53, 56
5, 98972, Note_off_c, 3, 60, 64
5, 98972, Note_off_c, 3, 57, 64
5, 98972, Note_off_c, 3, 53, 64
5, 99072, Note_on_c, 3, 60, 56
5, 99072, Note_on_c, 3, 48, 56
5, 99072, Note_on_c, 3, 36, 62
5, 99072, Note_on_c, 3, 58, 56
5, 99072, Note_on_c, 3, 52, 56
5, 99164, Note_off_c, 3, 60, 64
5, 99164, Note_off_c, 3, 58, 64
5, 99164, Note_off_c, 3, 52, 64
5, 99264, Note_on_c, 3, 60, 56
5, 99264, Note_on_c, 3, 58, 56
5, 99264, Note_on_c, 3, 52, 56
5, 99356, Note_off_c, 3, 60, 64
5, 99356, Note_off_c, 3, 58, 64
5, 99356, Note_off_c, 3, 52, 64
5, 99452, Note_off_c, 3, 48, 64
5, 99452, Note_off_c, 3, 36, 64
5, 99456, Note_on_c, 3, 60, 56
5, 99456, Note_on_c, 3, 58, 56
5, 99456, Note_on_c, 3, 52, 56
5, 99548, Note_off_c, 3, 60, 64
5, 99548, Note_off_c, 3, 58, 64
5, 99548, Note_off_c, 3, 52, 64
5, 99648, Note_on_c, 3, 60, 56
5, 99648, Note_on_c, 3, 58, 56
5, 99648, Note_on_c, 3, 52, 56
5, 99740, Note_off_c, 3, 60, 64
5, 99740, Note_off_c, 3, 58, 64
5, 99740, Note_off_c, 3, 52, 64
5, 99840, Note_on_c, 3, 60, 56
5, 99840, Note_on_c, 3, 57, 56
5, 99840, Note_on_c, 3, 53, 56
5, 99840, Note_on_c, 3, 41, 60
5, 99932, Note_off_c, 3, 60, 64
5, 99932, Note_off_c, 3, 57, 64
5, 99932, Note_off_c, 3, 53, 64
5, 100032, Note_on_c, 3, 60, 56
5, 100032, Note_on_c, 3, 57, 56
5, 100032, Note_on_c, 3, 53, 56
5, 100124, Note_off_c, 3, 60, 64
5, 100124, Note_off_c, 3, 57, 64
5, 100124, Note_off_c, 3, 53, 64
5, 100220, Note_off_c, 3, 41, 64
5, 100224, Note_on_c, 3, 60, 56
5, 100224, Note_on_c, 3, 57, 56
5, 100224, Note_on_c, 3, 53, 56
5, 100316, Note_off_c, 3, 60, 64
5, 100316, Note_off_c, 3, 57, 64
5, 100316, Note_off_c, 3, 53, 64
5, 100416, Note_on_c, 3, 60, 56
5, 100416, Note_on_c, 3, 57, 56
5, 100416, Note_on_c, 3, 53, 56
5, 100508, Note_off_c, 3, 60, 64
5, 100508, Note_off_c, 3, 57, 64
5, 100508, Note_off_c, 3, 53, 64
5, 100608, Note_on_c, 3, 60, 56
5, 100608, Note_on_c, 3, 58, 56
5, 100608, Note_on_c, 3, 55, 56
5, 100608, Note_on_c, 3, 48, 56
5, 100608, Note_on_c, 3, 36, 62
5, 100700, Note_off_c, 3, 60, 64
5, 100700, Note_off_c, 3, 58, 64
5, 100700, Note_off_c, 3, 55, 64
5, 100700, Note_off_c, 3, 48, 64
5, 100700, Note_off_c, 3, 36, 64
5, 100800, Note_on_c, 3, 58, 56
5, 100800, Note_on_c, 3, 55, 56
5, 100800, Note_on_c, 3, 60, 56
5, 100892, Note_off_c, 3, 58, 64
5, 100892, Note_off_c, 3, 55, 64
5, 100892, Note_off_c, 3, 60, 64
5, 100992, Note_on_c, 3, 60, 56
5, 100992, Note_on_c, 3, 58, 56
5, 100992, Note_on_c, 3, 55, 56
5, 101084, Note_off_c, 3, 60, 64
5, 101084, Note_off_c, 3, 58, 64
5, 101084, Note_off_c, 3, 55, 64
5, 101184, Note_on_c, 3, 60, 56
5, 101184, Note_on_c, 3, 55, 56
5, 101184, Note_on_c, 3, 58, 56
5, 101276, Note_off_c, 3, 60, 64
5, 101276, Note_off_c, 3, 55, 64
5, 101276, Note_off_c, 3, 58, 64
5, 101376, Note_on_c, 3, 53, 60
5, 101376, Note_on_c, 3, 41, 64
5, 101756, Note_off_c, 3, 53, 64
5, 101756, Note_off_c, 3, 41, 64
5, 101760, Note_on_c, 3, 61, 60
5, 101760, Note_on_c, 3, 57, 60
5, 101760, Note_on_c, 3, 53, 60
5, 102140, Note_off_c, 3, 61, 64
5, 102140, Note_off_c, 3, 57, 64
5, 102144, Note_on_c, 3, 62, 60
5, 102144, Note_on_c, 3, 58, 60
5, 102524, Note_off_c, 3, 58, 64
5, 102528, Note_on_c, 3, 59, 60
5, 102908, Note_off_c, 3, 53, 64
5, 102908, Note_off_c, 3, 62, 64
5, 102908, Note_off_c, 3, 59, 64
5, 102912, Note_on_c, 3, 51, 60
5, 102924, Note_on_c, 3, 60, 60
5, 102940, Note_on_c, 3, 63, 60
5, 102956, Note_on_c, 3, 69, 60
5, 103296, Note_on_c, 3, 41, 63
5, 104440, Note_off_c, 3, 60, 64
5, 104440, Note_off_c, 3, 69, 64
5, 104444, Note_off_c, 3, 51, 64
5, 104444, Note_off_c, 3, 63, 64
5, 104444, Note_off_c, 3, 41, 64
5, 104448, Note_on_c, 3, 46, 60
5, 104448, Note_on_c, 3, 34, 66
5, 104828, Note_off_c, 3, 46, 64
5, 104828, Note_off_c, 3, 34, 64
5, 116800, Note_on_c, 3, 62, 80
5, 116800, Note_on_c, 3, 58, 80
5, 117112, Note_off_c, 3, 58, 64
5, 117120, Note_on_c, 3, 58, 80
5, 117120, Note_on_c, 3, 46, 80
5, 117496, Note_off_c, 3, 62, 64
5, 117500, Note_off_c, 3, 58, 64
5, 117500, Note_off_c, 3, 46, 64
5, 117504, Note_on_c, 3, 58, 80
5, 117504, Note_on_c, 3, 61, 80
5, 117692, Note_off_c, 3, 61, 64
5, 117696, Note_on_c, 3, 62, 80
5, 117884, Note_off_c, 3, 58, 64
5, 117884, Note_off_c, 3, 62, 64
5, 117888, Note_on_c, 3, 58, 80
5, 117888, Note_on_c, 3, 61, 80
5, 118076, Note_off_c, 3, 61, 64
5, 118080, Note_on_c, 3, 62, 80
5, 118268, Note_off_c, 3, 58, 64
5, 118268, Note_off_c, 3, 62, 64
5, 118272, Note_on_c, 3, 63, 80
5, 118272, Note_on_c, 3, 58, 80
5, 118460, Note_off_c, 3, 63, 64
5, 118464, Note_on_c, 3, 62, 80
5, 118652, Note_off_c, 3, 62, 64
5, 118656, Note_on_c, 3, 60, 80
5, 118844, Note_off_c, 3, 60, 64
5, 118848, Note_on_c, 3, 58, 80
5, 119036, Note_off_c, 3, 58, 64
5, 119036, Note_off_c, 3, 58, 64
5, 119040, Note_on_c, 3, 46, 80
5, 119040, Note_on_c, 3, 34, 80
5, 119420, Note_off_c, 3, 46, 64
5, 119420, Note_off_c, 3, 34, 64
5, 119808, Note_on_c, 3, 58, 60
5, 119808, Note_on_c, 3, 46, 60
5, 119996, Note_off_c, 3, 58, 64
5, 119996, Note_off_c, 3, 46, 64
5, 120000, Note_on_c, 3, 58, 60
5, 120000, Note_on_c, 3, 53, 60
5, 120092, Note_off_c, 3, 58, 64
5, 120092, Note_off_c, 3, 53, 64
5, 120192, Note_on_c, 3, 62, 60
5, 120192, Note_on_c, 3, 58, 60
5, 120284, Note_off_c, 3, 62, 64
5, 120284, Note_off_c, 3, 58, 64
5, 120384, Note_on_c, 3, 58, 60
5, 120384, Note_on_c, 3, 53, 60
5, 120476, Note_off_c, 3, 58, 64
5, 120476, Note_off_c, 3, 53, 64
5, 120576, Note_on_c, 3, 60, 60
5, 120576, Note_on_c, 3, 45, 60
5, 120668, Note_off_c, 3, 60, 64
5, 120668, Note_off_c, 3, 45, 64
5, 120768, Note_on_c, 3, 60, 60
5, 120768, Note_on_c, 3, 53, 60
5, 120860, Note_off_c, 3, 60, 64
5, 120860, Note_off_c, 3, 53, 64
5, 120960, Note_on_c, 3, 63, 60
5, 120960, Note_on_c, 3, 60, 60
5, 121052, Note_off_c, 3, 63, 64
5, 121052, Note_off_c, 3, 60, 64
5, 121152, Note_on_c, 3, 60, 60
5, 121152, Note_on_c, 3, 53, 60
5, 121244, Note_off_c, 3, 60, 64
5, 121244, Note_off_c, 3, 53, 64
5, 121344, Note_on_c, 3, 58, 60
5, 121344, Note_on_c, 3, 46, 60
5, 121532, Note_off_c, 3, 58, 64
5, 121532, Note_off_c, 3, 46, 64
5, 121536, Note_on_c, 3, 58, 60
5, 121536, Note_on_c, 3, 53, 60
5, 121724, Note_off_c, 3, 58, 64
5, 121724, Note_off_c, 3, 53, 64
5, 121728, Note_on_c, 3, 58, 60
5, 121728, Note_on_c, 3, 62, 60
5, 121916, Note_off_c, 3, 58, 64
5, 121916, Note_off_c, 3, 62, 64
5, 121920, Note_on_c, 3, 58, 60
5, 121920, Note_on_c, 3, 53, 60
5, 122108, Note_off_c, 3, 58, 64
5, 122108, Note_off_c, 3, 53, 64
5, 122112, Note_on_c, 3, 53, 64
5, 122112, Note_on_c, 3, 41, 68
5, 122300, Note_off_c, 3, 53, 64
5, 122300, Note_off_c, 3, 41, 64
5, 122880, Note_on_c, 3, 53, 80
5, 122880, Note_on_c, 3, 50, 80
5, 122880, Note_on_c, 3, 46, 80
5, 123260, Note_off_c, 3, 53, 64
5, 123260, Note_off_c, 3, 50, 64
5, 123260, Note_off_c, 3, 46, 64
5, 123264, Note_on_c, 3, 46, 80
5, 123264, Note_on_c, 3, 34, 86
5, 123644, Note_off_c, 3, 46, 64
5, 123644, Note_off_c, 3, 34, 64
5, 123648, Note_on_c, 3, 52, 80
5, 123648, Note_on_c, 3, 49, 80
5, 123648, Note_on_c, 3, 46, 80
5, 123836, Note_off_c, 3, 52, 64
5, 123836, Note_off_c, 3, 49, 64
5, 123840, Note_on_c, 3, 53, 80
5, 123840, Note_on_c, 3, 50, 80
5, 124028, Note_off_c, 3, 46, 64
5, 124028, Note_off_c, 3, 53, 64
5, 124028, Note_off_c, 3, 50, 64
5, 124032, Note_on_c, 3, 52, 80
5, 124032, Note_on_c, 3, 49, 80
5, 124032, Note_on_c, 3, 46, 80
5, 124220, Note_off_c, 3, 52, 64
5, 124220, Note_off_c, 3, 49, 64
5, 124224, Note_on_c, 3, 53, 80
5, 124224, Note_on_c, 3, 50, 80
5, 124412, Note_off_c, 3, 46, 64
5, 124412, Note_off_c, 3, 53, 64
5, 124412, Note_off_c, 3, 50, 64
5, 124416, Note_on_c, 3, 55, 80
5, 124416, Note_on_c, 3, 51, 80
5, 124416, Note_on_c, 3, 46, 80
5, 124604, Note_off_c, 3, 55, 64
5, 124604, Note_off_c, 3, 51, 64
5, 124608, Note_on_c, 3, 53, 80
5, 124608, Note_on_c, 3, 50, 80
5, 124796, Note_off_c, 3, 53, 64
5, 124796, Note_off_c, 3, 50, 64
5, 124800, Note_on_c, 3, 51, 80
5, 124800, Note_on_c, 3, 48, 80
5, 124988, Note_off_c, 3, 51, 64
5, 124988, Note_off_c, 3, 48, 64
5, 124992, Note_on_c, 3, 50, 80
5, 124992, Note_on_c, 3, 46, 80
5, 125180, Note_off_c, 3, 46, 64
5, 125180, Note_off_c, 3, 50, 64
5, 125180, Note_off_c, 3, 46, 64
5, 125184, Note_on_c, 3, 46, 80
5, 125184, Note_on_c, 3, 34, 86
5, 125564, Note_off_c, 3, 46, 64
5, 125564, Note_off_c, 3, 34, 64
5, 125952, Note_on_c, 3, 53, 60
5, 125952, Note_on_c, 3, 50, 60
5, 125952, Note_on_c, 3, 41, 63
5, 126044, Note_off_c, 3, 53, 64
5, 126044, Note_off_c, 3, 50, 64
5, 126044, Note_off_c, 3, 41, 64
5, 126144, Note_on_c, 3, 58, 60
5, 126144, Note_on_c, 3, 50, 60
5, 126236, Note_off_c, 3, 58, 64
5, 126236, Note_off_c, 3, 50, 64
5, 126336, Note_on_c, 3, 62, 60
5, 126336, Note_on_c, 3, 53, 60
5, 126428, Note_off_c, 3, 62, 64
5, 126428, Note_off_c, 3, 53, 64
5, 126528, Note_on_c, 3, 58, 60
5, 126528, Note_on_c, 3, 50, 60
5, 126620, Note_off_c, 3, 58, 64
5, 126620, Note_off_c, 3, 50, 64
5, 126720, Note_on_c, 3, 51, 60
5, 126720, Note_on_c, 3, 48, 60
5, 126720, Note_on_c, 3, 41, 63
5, 126812, Note_off_c, 3, 51, 64
5, 126812, Note_off_c, 3, 48, 64
5, 126812, Note_off_c, 3, 41, 64
5, 126912, Note_on_c, 3, 57, 60
5, 126912, Note_on_c, 3, 48, 60
5, 127004, Note_off_c, 3, 57, 64
5, 127004, Note_off_c, 3, 48, 64
5, 127104, Note_on_c, 3, 60, 60
5, 127104, Note_on_c, 3, 51, 60
5, 127196, Note_off_c, 3, 60, 64
5, 127196, Note_off_c, 3, 51, 64
5, 127296, Note_on_c, 3, 57, 60
5, 127296, Note_on_c, 3, 48, 60
5, 127388, Note_off_c, 3, 57, 64
5, 127388, Note_off_c, 3, 48, 64
5, 127488, Note_on_c, 3, 46, 60
5, 127488, Note_on_c, 3, 34, 66
5, 127676, Note_off_c, 3, 46, 64
5, 127676, Note_off_c, 3, 34, 64
5, 127872, Note_on_c, 3, 41, 63
5, 127872, Note_on_c, 3, 29, 69
5, 128060, Note_off_c, 3, 41, 64
5, 128060, Note_off_c, 3, 29, 64
5, 128256, Note_on_c, 3, 46, 60
5, 128256, Note_on_c, 3, 34, 66
5, 128444, Note_off_c, 3, 46, 64
5, 128444, Note_off_c, 3, 34, 64
5, 129024, Note_on_c, 3, 43, 83
5, 129040, Note_on_c, 3, 50, 83
5, 129060, Note_on_c, 3, 58, 83
5, 129404, Note_off_c, 3, 43, 64
5, 129420, Note_off_c, 3, 50, 64
5, 129440, Note_off_c, 3, 58, 64
5, 130752, Note_on_c, 3, 62, 60
5, 130752, Note_on_c, 3, 50, 60
5, 130940, Note_off_c, 3, 62, 64
5, 130940, Note_off_c, 3, 50, 64
5, 130944, Note_on_c, 3, 63, 60
5, 130944, Note_on_c, 3, 51, 60
5, 131132, Note_off_c, 3, 63, 64
5, 131132, Note_off_c, 3, 51, 64
5, 131136, Note_on_c, 3, 62, 60
5, 131136, Note_on_c, 3, 50, 60
5, 131324, Note_off_c, 3, 62, 64
5, 131324, Note_off_c, 3, 50, 64
5, 131328, Note_on_c, 3, 60, 60
5, 131328, Note_on_c, 3, 48, 60
5, 131516, Note_off_c, 3, 60, 64
5, 131516, Note_off_c, 3, 48, 64
5, 131520, Note_on_c, 3, 58, 60
5, 131520, Note_on_c, 3, 46, 60
5, 131708, Note_off_c, 3, 58, 64
5, 131708, Note_off_c, 3, 46, 64
5, 131712, Note_on_c, 3, 57, 60
5, 131712, Note_on_c, 3, 45, 60
5, 131900, Note_off_c, 3, 57, 64
5, 131900, Note_off_c, 3, 45, 64
5, 131904, Note_on_c, 3, 55, 60
5, 131904, Note_on_c, 3, 43, 60
5, 132092, Note_off_c, 3, 55, 64
5, 132092, Note_off_c, 3, 43, 64
5, 132096, Note_on_c, 3, 54, 60
5, 132096, Note_on_c, 3, 42, 60
5, 132476, Note_off_c, 3, 42, 64
5, 132860, Note_off_c, 3, 54, 64
5, 132864, Note_on_c, 3, 66, 60
5, 133628, Note_off_c, 3, 66, 64
5, 133632, Note_on_c, 3, 67, 60
5, 133820, Note_off_c, 3, 67, 64
5, 133824, Note_on_c, 3, 55, 60
5, 134012, Note_off_c, 3, 55, 64
5, 134016, Note_on_c, 3, 58, 60
5, 134204, Note_off_c, 3, 58, 64
5, 134208, Note_on_c, 3, 55, 60
5, 134396, Note_off_c, 3, 55, 64
5, 134400, Note_on_c, 3, 50, 60
5, 134588, Note_off_c, 3, 50, 64
5, 134592, Note_on_c, 3, 55, 60
5, 134780, Note_off_c, 3, 55, 64
5, 134784, Note_on_c, 3, 46, 60
5, 134972, Note_off_c, 3, 46, 64
5, 134976, Note_on_c, 3, 50, 60
5, 135164, Note_off_c, 3, 50, 64
5, 135168, Note_on_c, 3, 58, 60
5, 135168, Note_on_c, 3, 50, 60
5, 135168, Note_on_c, 3, 43, 60
5, 135548, Note_off_c, 3, 58, 64
5, 135548, Note_off_c, 3, 50, 64
5, 135548, Note_off_c, 3, 43, 64
5, 135936, Note_on_c, 3, 67, 60
5, 136128, Note_on_c, 3, 55, 60
5, 136316, Note_off_c, 3, 55, 64
5, 136320, Note_on_c, 3, 58, 60
5, 136508, Note_off_c, 3, 58, 64
5, 136512, Note_on_c, 3, 63, 60
5, 136700, Note_off_c, 3, 67, 64
5, 136700, Note_off_c, 3, 63, 64
5, 136704, Note_on_c, 3, 66, 60
5, 136704, Note_on_c, 3, 54, 60
5, 137084, Note_off_c, 3, 54, 64
5, 137468, Note_off_c, 3, 66, 64
5, 137472, Note_on_c, 3, 65, 60
5, 137664, Note_on_c, 3, 53, 60
5, 137852, Note_off_c, 3, 53, 64
5, 137856, Note_on_c, 3, 57, 60
5, 137948, Note_off_c, 3, 57, 64
5, 138048, Note_on_c, 3, 62, 60
5, 138140, Note_off_c, 3, 62, 64
5, 138236, Note_off_c, 3, 65, 64
5, 138240, Note_on_c, 3, 64, 60
5, 138240, Note_on_c, 3, 52, 60
5, 138620, Note_off_c, 3, 52, 64
5, 139004, Note_off_c, 3, 64, 64
5, 139008, Note_on_c, 3, 63, 60
5, 139200, Note_on_c, 3, 51, 60
5, 139292, Note_off_c, 3, 51, 64
5, 139392, Note_on_c, 3, 55, 60
5, 139580, Note_off_c, 3, 55, 64
5, 139584, Note_on_c, 3, 51, 60
5, 139676, Note_off_c, 3, 51, 64
5, 139772, Note_off_c, 3, 63, 64
5, 139776, Note_on_c, 3, 62, 60
5, 139776, Note_on_c, 3, 50, 60
5, 140156, Note_off_c, 3, 62, 64
5, 140156, Note_off_c, 3, 50, 64
5, 141312, Note_on_c, 3, 43, 82
5, 141328, Note_on_c, 3, 50, 82
5, 141348, Note_on_c, 3, 58, 82
5, 141692, Note_off_c, 3, 43, 64
5, 141708, Note_off_c, 3, 50, 64
5, 141728, Note_off_c, 3, 58, 64
5, 143040, Note_on_c, 3, 62, 60
5, 143040, Note_on_c, 3, 50, 60
5, 143228, Note_off_c, 3, 62, 64
5, 143228, Note_off_c, 3, 50, 64
5, 143232, Note_on_c, 3, 63, 60
5, 143232, Note_on_c, 3, 51, 60
5, 143420, Note_off_c, 3, 63, 64
5, 143420, Note_off_c, 3, 51, 64
5, 143424, Note_on_c, 3, 62, 60
5, 143424, Note_on_c, 3, 50, 60
5, 143612, Note_off_c, 3, 62, 64
5, 143612, Note_off_c, 3, 50, 64
5, 143616, Note_on_c, 3, 60, 60
5, 143616, Note_on_c, 3, 48, 60
5, 143804, Note_off_c, 3, 60, 64
5, 143804, Note_off_c, 3, 48, 64
5, 143808, Note_on_c, 3, 58, 60
5, 143808, Note_on_c, 3, 46, 60
5, 143996, Note_off_c, 3, 58, 64
5, 143996, Note_off_c, 3, 46, 64
5, 144000, Note_on_c, 3, 57, 60
5, 144000, Note_on_c, 3, 45, 60
5, 144188, Note_off_c, 3, 57, 64
5, 144188, Note_off_c, 3, 45, 64
5, 144192, Note_on_c, 3, 55, 60
5, 144192, Note_on_c, 3, 43, 60
5, 144380, Note_off_c, 3, 55, 64
5, 144380, Note_off_c, 3, 43, 64
5, 144384, Note_on_c, 3, 54, 60
5, 144384, Note_on_c, 3, 42, 60
5, 144764, Note_off_c, 3, 42, 64
5, 145148, Note_off_c, 3, 54, 64
5, 145152, Note_on_c, 3, 66, 60
5, 145916, Note_off_c, 3, 66, 64
5, 145920, Note_on_c, 3, 67, 60
5, 146108, Note_off_c, 3, 67, 64
5, 146112, Note_on_c, 3, 55, 60
5, 146300, Note_off_c, 3, 55, 64
5, 146304, Note_on_c, 3, 58, 60
5, 146492, Note_off_c, 3, 58, 64
5, 146496, Note_on_c, 3, 55, 60
5, 146684, Note_off_c, 3, 55, 64
5, 146688, Note_on_c, 3, 50, 60
5, 146876, Note_off_c, 3, 50, 64
5, 146880, Note_on_c, 3, 55, 60
5, 147068, Note_off_c, 3, 55, 64
5, 147072, Note_on_c, 3, 46, 60
5, 147260, Note_off_c, 3, 46, 64
5, 147264, Note_on_c, 3, 50, 60
5, 147452, Note_off_c, 3, 50, 64
5, 147456, Note_on_c, 3, 58, 60
5, 147456, Note_on_c, 3, 50, 60
5, 147456, Note_on_c, 3, 43, 60
5, 147836, Note_off_c, 3, 58, 64
5, 147836, Note_off_c, 3, 50, 64
5, 147836, Note_off_c, 3, 43, 64
5, 148224, Note_on_c, 3, 67, 60
5, 148416, Note_on_c, 3, 55, 60
5, 148604, Note_off_c, 3, 55, 64
5, 148608, Note_on_c, 3, 58, 60
5, 148796, Note_off_c, 3, 58, 64
5, 148800, Note_on_c, 3, 63, 60
5, 148988, Note_off_c, 3, 67, 64
5, 148988, Note_off_c, 3, 63, 64
5, 148992, Note_on_c, 3, 66, 60
5, 148992, Note_on_c, 3, 54, 60
5, 149372, Note_off_c, 3, 54, 64
5, 149756, Note_off_c, 3, 66, 64
5, 149760, Note_on_c, 3, 65, 60
5, 149952, Note_on_c, 3, 53, 60
5, 150140, Note_off_c, 3, 53, 64
5, 150144, Note_on_c, 3, 57, 60
5, 150236, Note_off_c, 3, 57, 64
5, 150336, Note_on_c, 3, 62, 60
5, 150428, Note_off_c, 3, 62, 64
5, 150524, Note_off_c, 3, 65, 64
5, 150528, Note_on_c, 3, 64, 60
5, 150528, Note_on_c, 3, 52, 60
5, 150908, Note_off_c, 3, 52, 64
5, 151292, Note_off_c, 3, 64, 64
5, 151296, Note_on_c, 3, 63, 60
5, 151488, Note_on_c, 3, 51, 60
5, 151580, Note_off_c, 3, 51, 64
5, 151680, Note_on_c, 3, 55, 60
5, 151868, Note_off_c, 3, 55, 64
5, 151872, Note_on_c, 3, 51, 60
5, 151964, Note_off_c, 3, 51, 64
5, 152060, Note_off_c, 3, 63, 64
5, 152064, Note_on_c, 3, 62, 60
5, 152064, Note_on_c, 3, 50, 60
5, 152444, Note_off_c, 3, 62, 64
5, 152444, Note_off_c, 3, 50, 64
5, 153600, Note_on_c, 3, 62, 82
5, 153600, Note_on_c, 3, 58, 82
5, 153600, Note_on_c, 3, 53, 82
5, 153600, Note_on_c, 3, 46, 82
5, 153980, Note_off_c, 3, 62, 64
5, 153980, Note_off_c, 3, 58, 64
5, 153980, Note_off_c, 3, 53, 64
5, 153980, Note_off_c, 3, 46, 64
5, 155136, Note_on_c, 3, 53, 60
5, 155136, Note_on_c, 3, 41, 63
5, 155324, Note_off_c, 3, 53, 64
5, 155324, Note_off_c, 3, 41, 64
5, 155328, Note_on_c, 3, 65, 60
5, 155516, Note_off_c, 3, 65, 64
5, 155520, Note_on_c, 3, 66, 60
5, 155708, Note_off_c, 3, 66, 64
5, 155712, Note_on_c, 3, 65, 60
5, 155900, Note_off_c, 3, 65, 64
5, 155904, Note_on_c, 3, 66, 60
5, 156092, Note_off_c, 3, 66, 64
5, 156096, Note_on_c, 3, 65, 60
5, 156284, Note_off_c, 3, 65, 64
5, 156288, Note_on_c, 3, 66, 60
5, 156476, Note_off_c, 3, 66, 64
5, 156480, Note_on_c, 3, 65, 60
5, 156668, Note_off_c, 3, 65, 64
5, 156672, Note_on_c, 3, 65, 60
5, 156672, Note_on_c, 3, 63, 60
5, 156672, Note_on_c, 3, 60, 60
5, 156672, Note_on_c, 3, 57, 60
5, 156672, Note_on_c, 3, 53, 60
5, 158204, Note_off_c, 3, 65, 64
5, 158204, Note_off_c, 3, 63, 64
5, 158204, Note_off_c, 3, 60, 64
5, 158204, Note_off_c, 3, 57, 64
5, 158204, Note_off_c, 3, 53, 64
5, 158208, Note_on_c, 3, 65, 60
5, 158208, Note_on_c, 3, 62, 60
5, 158208, Note_on_c, 3, 58, 60
5, 158588, Note_off_c, 3, 65, 64
5, 158588, Note_off_c, 3, 62, 64
5, 158588, Note_off_c, 3, 58, 64
5, 158592, Note_on_c, 3, 58, 60
5, 158592, Note_on_c, 3, 46, 60
5, 159740, Note_off_c, 3, 58, 64
5, 159740, Note_off_c, 3, 46, 64
5, 159744, Note_on_c, 3, 56, 60
5, 159744, Note_on_c, 3, 44, 60
5, 161276, Note_off_c, 3, 56, 64
5, 161276, Note_off_c, 3, 44, 64
5, 161280, Note_on_c, 3, 58, 60
5, 161280, Note_on_c, 3, 43, 60
5, 161280, Note_on_c, 3, 46, 60
5, 162812, Note_off_c, 3, 58, 64
5, 162812, Note_off_c, 3, 43, 64
5, 162816, Note_on_c, 3, 52, 60
5, 162816, Note_on_c, 3, 40, 65
5, 163580, Note_off_c, 3, 46, 64
5, 163580, Note_off_c, 3, 52, 64
5, 163580, Note_off_c, 3, 40, 64
5, 163584, Note_on_c, 3, 53, 60
5, 163584, Note_on_c, 3, 41, 63
5, 164348, Note_off_c, 3, 53, 64
5, 164348, Note_off_c, 3, 41, 64
5, 165120, Note_on_c, 3, 57, 60
5, 165120, Note_on_c, 3, 45, 62
5, 165504, Note_on_c, 3, 62, 60
5, 165884, Note_off_c, 3, 57, 64
5, 165884, Note_off_c, 3, 45, 64
5, 165884, Note_off_c, 3, 62, 64
5, 165888, Note_on_c, 3, 58, 82
5, 165888, Note_on_c, 3, 50, 82
5, 165888, Note_on_c, 3, 43, 82
5, 166268, Note_off_c, 3, 58, 64
5, 166268, Note_off_c, 3, 50, 64
5, 166268, Note_off_c, 3, 43, 64
5, 167616, Note_on_c, 3, 62, 60
5, 167616, Note_on_c, 3, 50, 60
5, 167804, Note_off_c, 3, 62, 64
5, 167804, Note_off_c, 3, 50, 64
5, 167808, Note_on_c, 3, 63, 60
5, 167808, Note_on_c, 3, 51, 60
5, 167996, Note_off_c, 3, 63, 64
5, 167996, Note_off_c, 3, 51, 64
5, 168000, Note_on_c, 3, 62, 60
5, 168000, Note_on_c, 3, 50, 60
5, 168188, Note_off_c, 3, 62, 64
5, 168188, Note_off_c, 3, 50, 64
5, 168192, Note_on_c, 3, 60, 60
5, 168192, Note_on_c, 3, 48, 60
5, 168380, Note_off_c, 3, 60, 64
5, 168380, Note_off_c, 3, 48, 64
5, 168384, Note_on_c, 3, 58, 60
5, 168384, Note_on_c, 3, 46, 60
5, 168572, Note_off_c, 3, 58, 64
5, 168572, Note_off_c, 3, 46, 64
5, 168576, Note_on_c, 3, 57, 60
5, 168576, Note_on_c, 3, 45, 60
5, 168764, Note_off_c, 3, 57, 64
5, 168764, Note_off_c, 3, 45, 64
5, 168768, Note_on_c, 3, 55, 60
5, 168768, Note_on_c, 3, 43, 60
5, 168956, Note_off_c, 3, 55, 64
5, 168956, Note_off_c, 3, 43, 64
5, 168960, Note_on_c, 3, 54, 60
5, 168960, Note_on_c, 3, 42, 60
5, 169340, Note_off_c, 3, 42, 64
5, 169724, Note_off_c, 3, 54, 64
5, 169728, Note_on_c, 3, 66, 60
5, 170492, Note_off_c, 3, 66, 64
5, 170496, Note_on_c, 3, 67, 60
5, 170684, Note_off_c, 3, 67, 64
5, 170688, Note_on_c, 3, 55, 60
5, 170688, Note_on_c, 3, 43, 60
5, 170876, Note_off_c, 3, 55, 64
5, 170876, Note_off_c, 3, 43, 64
5, 170880, Note_on_c, 3, 56, 60
5, 170880, Note_on_c, 3, 44, 60
5, 171068, Note_off_c, 3, 56, 64
5, 171068, Note_off_c, 3, 44, 64
5, 171072, Note_on_c, 3, 55, 60
5, 171072, Note_on_c, 3, 43, 60
5, 171260, Note_off_c, 3, 55, 64
5, 171260, Note_off_c, 3, 43, 64
5, 171264, Note_on_c, 3, 53, 60
5, 171264, Note_on_c, 3, 41, 63
5, 171452, Note_off_c, 3, 53, 64
5, 171452, Note_off_c, 3, 41, 64
5, 171456, Note_on_c, 3, 51, 60
5, 171456, Note_on_c, 3, 39, 64
5, 171644, Note_off_c, 3, 51, 64
5, 171644, Note_off_c, 3, 39, 64
5, 171648, Note_on_c, 3, 50, 60
5, 171648, Note_on_c, 3, 38, 65
5, 171836, Note_off_c, 3, 50, 64
5, 171836, Note_off_c, 3, 38, 64
5, 171840, Note_on_c, 3, 48, 60
5, 171840, Note_on_c, 3, 36, 66
5, 172028, Note_off_c, 3, 48, 64
5, 172028, Note_off_c, 3, 36, 64
5, 172032, Note_on_c, 3, 47, 60
5, 172032, Note_on_c, 3, 35, 66
5, 172412, Note_off_c, 3, 47, 64
5, 172412, Note_off_c, 3, 35, 64
5, 172416, Note_on_c, 3, 59, 60
5, 172796, Note_off_c, 3, 59, 64
5, 172800, Note_on_c, 3, 60, 60
5, 172988, Note_off_c, 3, 60, 64
5, 172992, Note_on_c, 3, 48, 60
5, 172992, Note_on_c, 3, 48, 60
5, 173180, Note_off_c, 3, 48, 64
5, 173180, Note_off_c, 3, 48, 64
5, 173184, Note_on_c, 3, 56, 60
5, 173184, Note_on_c, 3, 44, 60
5, 173372, Note_off_c, 3, 56, 64
5, 173372, Note_off_c, 3, 44, 64
5, 173376, Note_on_c, 3, 55, 60
5, 173376, Note_on_c, 3, 43, 60
5, 173564, Note_off_c, 3, 55, 64
5, 173564, Note_off_c, 3, 43, 64
5, 173568, Note_on_c, 3, 54, 60
5, 173568, Note_on_c, 3, 42, 60
5, 173948, Note_off_c, 3, 54, 64
5, 173948, Note_off_c, 3, 42, 64
5, 173952, Note_on_c, 3, 66, 60
5, 174332, Note_off_c, 3, 66, 64
5, 174336, Note_on_c, 3, 67, 60
5, 174528, Note_on_c, 3, 55, 60
5, 174716, Note_off_c, 3, 67, 64
5, 174716, Note_off_c, 3, 55, 64
5, 174720, Note_on_c, 3, 51, 60
5, 174720, Note_on_c, 3, 63, 60
5, 174908, Note_off_c, 3, 51, 64
5, 174908, Note_off_c, 3, 63, 64
5, 174912, Note_on_c, 3, 61, 60
5, 174912, Note_on_c, 3, 49, 60
5, 175100, Note_off_c, 3, 61, 64
5, 175100, Note_off_c, 3, 49, 64
5, 175104, Note_on_c, 3, 50, 60
5, 175104, Note_on_c, 3, 62, 60
5, 175868, Note_off_c, 3, 50, 64
5, 175868, Note_off_c, 3, 62, 64
5, 175872, Note_on_c, 3, 50, 60
5, 175872, Note_on_c, 3, 38, 65
5, 176636, Note_off_c, 3, 50, 64
5, 176636, Note_off_c, 3, 38, 64
5, 176640, Note_on_c, 3, 55, 60
5, 176640, Note_on_c, 3, 50, 60
5, 176640, Note_on_c, 3, 43, 60
5, 177020, Note_off_c, 3, 55, 64
5, 177020, Note_off_c, 3, 50, 64
5, 177020, Note_off_c, 3, 43, 64
5, 178176, Note_on_c, 3, 62, 82
5, 178176, Note_on_c, 3, 58, 82
5, 178176, Note_on_c, 3, 53, 82
5, 178176, Note_on_c, 3, 46, 82
5, 178556, Note_off_c, 3, 62, 64
5, 178556, Note_off_c, 3, 58, 64
5, 178556, Note_off_c, 3, 53, 64
5, 178556, Note_off_c, 3, 46, 64
5, 179712, Note_on_c, 3, 53, 60
5, 179712, Note_on_c, 3, 41, 64
5, 179900, Note_off_c, 3, 53, 64
5, 179900, Note_off_c, 3, 41, 64
5, 179904, Note_on_c, 3, 65, 60
5, 180092, Note_off_c, 3, 65, 64
5, 180096, Note_on_c, 3, 66, 60
5, 180284, Note_off_c, 3, 66, 64
5, 180288, Note_on_c, 3, 65, 60
5, 180476, Note_off_c, 3, 65, 64
5, 180480, Note_on_c, 3, 66, 60
5, 180668, Note_off_c, 3, 66, 64
5, 180672, Note_on_c, 3, 65, 60
5, 180860, Note_off_c, 3, 65, 64
5, 180864, Note_on_c, 3, 66, 60
5, 181052, Note_off_c, 3, 66, 64
5, 181056, Note_on_c, 3, 65, 60
5, 181244, Note_off_c, 3, 65, 64
5, 181248, Note_on_c, 3, 65, 60
5, 181248, Note_on_c, 3, 63, 60
5, 181248, Note_on_c, 3, 60, 60
5, 181248, Note_on_c, 3, 57, 60
5, 181248, Note_on_c, 3, 53, 60
5, 182780, Note_off_c, 3, 65, 64
5, 182780, Note_off_c, 3, 63, 64
5, 182780, Note_off_c, 3, 60, 64
5, 182780, Note_off_c, 3, 57, 64
5, 182780, Note_off_c, 3, 53, 64
5, 182784, Note_on_c, 3, 65, 60
5, 182784, Note_on_c, 3, 62, 60
5, 182784, Note_on_c, 3, 58, 60
5, 183164, Note_off_c, 3, 65, 64
5, 183164, Note_off_c, 3, 62, 64
5, 183164, Note_off_c, 3, 58, 64
5, 183168, Note_on_c, 3, 58, 60
5, 183168, Note_on_c, 3, 46, 60
5, 184316, Note_off_c, 3, 58, 64
5, 184316, Note_off_c, 3, 46, 64
5, 184320, Note_on_c, 3, 56, 60
5, 184320, Note_on_c, 3, 44, 60
5, 185852, Note_off_c, 3, 56, 64
5, 185852, Note_off_c, 3, 44, 64
5, 185856, Note_on_c, 3, 58, 60
5, 185856, Note_on_c, 3, 43, 60
5, 185856, Note_on_c, 3, 46, 60
5, 187388, Note_off_c, 3, 58, 64
5, 187388, Note_off_c, 3, 43, 64
5, 187392, Note_on_c, 3, 52, 60
5, 187392, Note_on_c, 3, 40, 64
5, 188156, Note_off_c, 3, 46, 64
5, 188156, Note_off_c, 3, 52, 64
5, 188156, Note_off_c, 3, 40, 64
5, 188160, Note_on_c, 3, 53, 60
5, 188160, Note_on_c, 3, 41, 63
5, 188924, Note_off_c, 3, 53, 64
5, 188924, Note_off_c, 3, 41, 64
5, 189696, Note_on_c, 3, 57, 60
5, 189696, Note_on_c, 3, 45, 60
5, 190080, Note_on_c, 3, 62, 60
5, 190460, Note_off_c, 3, 57, 64
5, 190460, Note_off_c, 3, 45, 64
5, 190460, Note_off_c, 3, 62, 64
5, 190464, Note_on_c, 3, 58, 82
5, 190464, Note_on_c, 3, 50, 82
5, 190464, Note_on_c, 3, 43, 82
5, 190844, Note_off_c, 3, 58, 64
5, 190844, Note_off_c, 3, 50, 64
5, 190844, Note_off_c, 3, 43, 64
5, 192192, Note_on_c, 3, 62, 60
5, 192192, Note_on_c, 3, 50, 60
5, 192380, Note_off_c, 3, 62, 64
5, 192380, Note_off_c, 3, 50, 64
5, 192384, Note_on_c, 3, 63, 60
5, 192384, Note_on_c, 3, 51, 60
5, 192572, Note_off_c, 3, 63, 64
5, 192572, Note_off_c, 3, 51, 64
5, 192576, Note_on_c, 3, 62, 60
5, 192576, Note_on_c, 3, 50, 60
5, 192764, Note_off_c, 3, 62, 64
5, 192764, Note_off_c, 3, 50, 64
5, 192768, Note_on_c, 3, 60, 60
5, 192768, Note_on_c, 3, 48, 60
5, 192956, Note_off_c, 3, 60, 64
5, 192956, Note_off_c, 3, 48, 64
5, 192960, Note_on_c, 3, 58, 60
5, 192960, Note_on_c, 3, 46, 60
5, 193148, Note_off_c, 3, 58, 64
5, 193148, Note_off_c, 3, 46, 64
5, 193152, Note_on_c, 3, 57, 60
5, 193152, Note_on_c, 3, 45, 60
5, 193340, Note_off_c, 3, 57, 64
5, 193340, Note_off_c, 3, 45, 64
5, 193344, Note_on_c, 3, 55, 60
5, 193344, Note_on_c, 3, 43, 60
5, 193532, Note_off_c, 3, 55, 64
5, 193532, Note_off_c, 3, 43, 64
5, 193536, Note_on_c, 3, 54, 60
5, 193536, Note_on_c, 3, 42, 60
5, 193916, Note_off_c, 3, 42, 64
5, 194300, Note_off_c, 3, 54, 64
5, 194304, Note_on_c, 3, 66, 60
5, 195068, Note_off_c, 3, 66, 64
5, 195072, Note_on_c, 3, 67, 60
5, 195260, Note_off_c, 3, 67, 64
5, 195264, Note_on_c, 3, 55, 60
5, 195264, Note_on_c, 3, 43, 60
5, 195452, Note_off_c, 3, 55, 64
5, 195452, Note_off_c, 3, 43, 64
5, 195456, Note_on_c, 3, 56, 60
5, 195456, Note_on_c, 3, 44, 60
5, 195644, Note_off_c, 3, 56, 64
5, 195644, Note_off_c, 3, 44, 64
5, 195648, Note_on_c, 3, 55, 60
5, 195648, Note_on_c, 3, 43, 63
5, 195836, Note_off_c, 3, 55, 64
5, 195836, Note_off_c, 3, 43, 64
5, 195840, Note_on_c, 3, 53, 60
5, 195840, Note_on_c, 3, 41, 64
5, 196028, Note_off_c, 3, 53, 64
5, 196028, Note_off_c, 3, 41, 64
5, 196032, Note_on_c, 3, 51, 60
5, 196032, Note_on_c, 3, 39, 65
5, 196220, Note_off_c, 3, 51, 64
5, 196220, Note_off_c, 3, 39, 64
5, 196224, Note_on_c, 3, 50, 60
5, 196224, Note_on_c, 3, 38, 66
5, 196412, Note_off_c, 3, 50, 64
5, 196412, Note_off_c, 3, 38, 64
5, 196416, Note_on_c, 3, 48, 60
5, 196416, Note_on_c, 3, 36, 66
5, 196604, Note_off_c, 3, 48, 64
5, 196604, Note_off_c, 3, 36, 64
5, 196608, Note_on_c, 3, 47, 60
5, 196608, Note_on_c, 3, 35, 60
5, 196988, Note_off_c, 3, 47, 64
5, 196988, Note_off_c, 3, 35, 64
5, 196992, Note_on_c, 3, 59, 60
5, 197372, Note_off_c, 3, 59, 64
5, 197376, Note_on_c, 3, 60, 60
5, 197564, Note_off_c, 3, 60, 64
5, 197568, Note_on_c, 3, 48, 60
5, 197568, Note_on_c, 3, 48, 60
5, 197756, Note_off_c, 3, 48, 64
5, 197756, Note_off_c, 3, 48, 64
5, 197760, Note_on_c, 3, 56, 60
5, 197760, Note_on_c, 3, 44, 60
5, 197948, Note_off_c, 3, 56, 64
5, 197948, Note_off_c, 3, 44, 64
5, 197952, Note_on_c, 3, 55, 60
5, 197952, Note_on_c, 3, 43, 60
5, 198140, Note_off_c, 3, 55, 64
5, 198140, Note_off_c, 3, 43, 64
5, 198144, Note_on_c, 3, 54, 60
5, 198144, Note_on_c, 3, 42, 60
5, 198524, Note_off_c, 3, 54, 64
5, 198524, Note_off_c, 3, 42, 64
5, 198528, Note_on_c, 3, 66, 60
5, 198908, Note_off_c, 3, 66, 64
5, 198912, Note_on_c, 3, 67, 60
5, 199104, Note_on_c, 3, 55, 60
5, 199292, Note_off_c, 3, 67, 64
5, 199292, Note_off_c, 3, 55, 64
5, 199296, Note_on_c, 3, 51, 60
5, 199296, Note_on_c, 3, 63, 60
5, 199484, Note_off_c, 3, 51, 64
5, 199484, Note_off_c, 3, 63, 64
5, 199488, Note_on_c, 3, 61, 60
5, 199488, Note_on_c, 3, 49, 60
5, 199676, Note_off_c, 3, 61, 64
5, 199676, Note_off_c, 3, 49, 64
5, 199680, Note_on_c, 3, 50, 60
5, 199680, Note_on_c, 3, 62, 60
5, 200444, Note_off_c, 3, 50, 64
5, 200444, Note_off_c, 3, 62, 64
5, 200448, Note_on_c, 3, 50, 60
5, 200448, Note_on_c, 3, 38, 65
5, 201212, Note_off_c, 3, 50, 64
5, 201212, Note_off_c, 3, 38, 64
5, 201216, Note_on_c, 3, 55, 60
5, 201216, Note_on_c, 3, 50, 60
5, 201216, Note_on_c, 3, 43, 60
5, 201596, Note_off_c, 3, 55, 64
5, 201596, Note_off_c, 3, 50, 64
5, 201596, Note_off_c, 3, 43, 64
5, 202752, Note_on_c, 3, 39, 85
5, 202768, Note_on_c, 3, 46, 83
5, 202788, Note_on_c, 3, 51, 83
5, 202808, Note_on_c, 3, 55, 82
5, 203132, Note_off_c, 3, 39, 64
5, 203148, Note_off_c, 3, 46, 64
5, 203168, Note_off_c, 3, 51, 64
5, 203188, Note_off_c, 3, 55, 64
5, 204288, Note_on_c, 3, 38, 85
5, 204304, Note_on_c, 3, 46, 82
5, 204324, Note_on_c, 3, 55, 82
5, 204668, Note_off_c, 3, 38, 64
5, 204684, Note_off_c, 3, 46, 64
5, 204704, Note_off_c, 3, 55, 64
5, 205824, Note_on_c, 3, 52, 82
5, 205824, Note_on_c, 3, 46, 82
5, 205824, Note_on_c, 3, 37, 85
5, 206204, Note_off_c, 3, 52, 64
5, 206204, Note_off_c, 3, 46, 64
5, 206204, Note_off_c, 3, 37, 64
5, 207360, Note_on_c, 3, 50, 60
5, 207360, Note_on_c, 3, 38, 64
5, 207548, Note_off_c, 3, 50, 64
5, 207548, Note_off_c, 3, 38, 64
5, 207744, Note_on_c, 3, 50, 60
5, 207744, Note_on_c, 3, 38, 64
5, 207932, Note_off_c, 3, 50, 64
5, 207932, Note_off_c, 3, 38, 64
5, 208128, Note_on_c, 3, 50, 60
5, 208128, Note_on_c, 3, 38, 64
5, 208316, Note_off_c, 3, 50, 64
5, 208316, Note_off_c, 3, 38, 64
5, 208512, Note_on_c, 3, 50, 60
5, 208512, Note_on_c, 3, 38, 64
5, 208700, Note_off_c, 3, 50, 64
5, 208700, Note_off_c, 3, 38, 64
5, 208896, Note_on_c, 3, 50, 60
5, 208912, Note_on_c, 3, 57, 60
5, 208932, Note_on_c, 3, 66, 60
5, 209084, Note_off_c, 3, 50, 64
5, 209100, Note_off_c, 3, 57, 64
5, 209120, Note_off_c, 3, 66, 64
5, 209280, Note_on_c, 3, 50, 60
5, 209296, Note_on_c, 3, 66, 60
5, 209316, Note_on_c, 3, 57, 60
5, 209468, Note_off_c, 3, 50, 64
5, 209484, Note_off_c, 3, 66, 64
5, 209504, Note_off_c, 3, 57, 64
5, 209664, Note_on_c, 3, 50, 60
5, 209664, Note_on_c, 3, 57, 60
5, 209664, Note_on_c, 3, 66, 60
5, 209852, Note_off_c, 3, 50, 64
5, 209852, Note_off_c, 3, 57, 64
5, 209852, Note_off_c, 3, 66, 64
5, 210048, Note_on_c, 3, 50, 60
5, 210048, Note_on_c, 3, 57, 60
5, 210048, Note_on_c, 3, 66, 60
5, 210236, Note_off_c, 3, 50, 64
5, 210236, Note_off_c, 3, 57, 64
5, 210236, Note_off_c, 3, 66, 64
5, 210432, Note_on_c, 3, 50, 60
5, 210432, Note_on_c, 3, 38, 64
5, 212156, Note_off_c, 3, 38, 64
5, 212156, Note_off_c, 3, 50, 64
5, 212160, Note_on_c, 3, 38, 63
5, 212252, Note_off_c, 3, 38, 64
5, 212352, Note_on_c, 3, 42, 60
5, 212444, Note_off_c, 3, 42, 64
5, 212544, Note_on_c, 3, 45, 60
5, 212636, Note_off_c, 3, 45, 64
5, 212736, Note_on_c, 3, 50, 60
5, 212828, Note_off_c, 3, 50, 64
5, 212928, Note_on_c, 3, 54, 60
5, 213020, Note_off_c, 3, 54, 64
5, 213120, Note_on_c, 3, 57, 60
5, 213212, Note_off_c, 3, 57, 64
5, 213312, Note_on_c, 3, 62, 60
5, 213404, Note_off_c, 3, 62, 64
5, 213504, Note_on_c, 3, 62, 60
5, 213504, Note_on_c, 3, 65, 60
5, 213884, Note_off_c, 3, 62, 64
5, 213884, Note_off_c, 3, 65, 64
5, 213888, Note_on_c, 3, 50, 60
5, 213888, Note_on_c, 3, 38, 64
5, 215228, Note_off_c, 3, 38, 64
5, 215228, Note_off_c, 3, 50, 64
5, 215232, Note_on_c, 3, 38, 63
5, 215324, Note_off_c, 3, 38, 64
5, 215424, Note_on_c, 3, 41, 60
5, 215516, Note_off_c, 3, 41, 64
5, 215616, Note_on_c, 3, 45, 60
5, 215708, Note_off_c, 3, 45, 64
5, 215808, Note_on_c, 3, 50, 60
5, 215900, Note_off_c, 3, 50, 64
5, 216000, Note_on_c, 3, 53, 60
5, 216092, Note_off_c, 3, 53, 64
5, 216192, Note_on_c, 3, 57, 60
5, 216284, Note_off_c, 3, 57, 64
5, 216384, Note_on_c, 3, 62, 60
5, 216476, Note_off_c, 3, 62, 64
5, 216576, Note_on_c, 3, 48, 60
5, 216576, Note_on_c, 3, 36, 64
5, 218108, Note_off_c, 3, 48, 64
5, 218108, Note_off_c, 3, 36, 64
5, 218112, Note_on_c, 3, 53, 60
5, 218112, Note_on_c, 3, 53, 60
5, 219644, Note_off_c, 3, 53, 64
5, 219644, Note_off_c, 3, 53, 64
5, 219648, Note_on_c, 3, 53, 60
5, 219648, Note_on_c, 3, 46, 60
5, 220028, Note_off_c, 3, 53, 64
5, 220028, Note_off_c, 3, 46, 64
5, 244288, Note_on_c, 3, 41, 83
5, 244288, Note_on_c, 3, 53, 80
5, 244412, Note_off_c, 3, 41, 64
5, 244412, Note_off_c, 3, 53, 64
5, 244416, Note_on_c, 3, 60, 80
5, 244416, Note_on_c, 3, 57, 80
5, 244416, Note_on_c, 3, 53, 80
5, 244508, Note_off_c, 3, 60, 64
5, 244508, Note_off_c, 3, 57, 64
5, 244508, Note_off_c, 3, 53, 64
5, 244608, Note_on_c, 3, 60, 80
5, 244608, Note_on_c, 3, 57, 80
5, 244608, Note_on_c, 3, 53, 80
5, 244796, Note_off_c, 3, 60, 64
5, 244796, Note_off_c, 3, 57, 64
5, 244796, Note_off_c, 3, 53, 64
5, 244800, Note_on_c, 3, 62, 80
5, 244800, Note_on_c, 3, 58, 80
5, 244800, Note_on_c, 3, 53, 80
5, 244988, Note_off_c, 3, 62, 64
5, 244988, Note_off_c, 3, 58, 64
5, 244988, Note_off_c, 3, 53, 64
5, 244992, Note_on_c, 3, 63, 80
5, 244992, Note_on_c, 3, 60, 80
5, 244992, Note_on_c, 3, 53, 80
5, 245180, Note_off_c, 3, 63, 64
5, 245180, Note_off_c, 3, 60, 64
5, 245180, Note_off_c, 3, 53, 64
5, 245184, Note_on_c, 3, 63, 80
5, 245184, Note_on_c, 3, 60, 80
5, 245372, Note_off_c, 3, 63, 64
5, 245372, Note_off_c, 3, 60, 64
5, 245376, Note_on_c, 3, 62, 80
5, 245376, Note_on_c, 3, 58, 80
5, 245564, Note_off_c, 3, 62, 64
5, 245564, Note_off_c, 3, 58, 64
5, 245568, Note_on_c, 3, 60, 80
5, 245568, Note_on_c, 3, 57, 80
5, 245756, Note_off_c, 3, 60, 64
5, 245756, Note_off_c, 3, 57, 64
5, 245760, Note_on_c, 3, 58, 80
5, 245760, Note_on_c, 3, 46, 80
5, 245948, Note_off_c, 3, 58, 64
5, 245948, Note_off_c, 3, 46, 64
5, 245952, Note_on_c, 3, 62, 80
5, 245952, Note_on_c, 3, 58, 80
5, 246044, Note_off_c, 3, 62, 64
5, 246044, Note_off_c, 3, 58, 64
5, 246144, Note_on_c, 3, 62, 80
5, 246144, Note_on_c, 3, 58, 80
5, 246332, Note_off_c, 3, 62, 64
5, 246332, Note_off_c, 3, 58, 64
5, 246336, Note_on_c, 3, 60, 80
5, 246336, Note_on_c, 3, 58, 80
5, 246336, Note_on_c, 3, 63, 80
5, 246524, Note_off_c, 3, 60, 64
5, 246524, Note_off_c, 3, 58, 64
5, 246524, Note_off_c, 3, 63, 64
5, 246528, Note_on_c, 3, 65, 80
5, 246528, Note_on_c, 3, 62, 80
5, 246528, Note_on_c, 3, 58, 80
5, 246716, Note_off_c, 3, 65, 64
5, 246716, Note_off_c, 3, 62, 64
5, 246716, Note_off_c, 3, 58, 64
5, 247296, Note_on_c, 3, 60, 60
5, 247296, Note_on_c, 3, 48, 60
5, 247484, Note_off_c, 3, 60, 64
5, 247484, Note_off_c, 3, 48, 64
5, 248832, Note_on_c, 3, 53, 60
5, 248832, Note_on_c, 3, 41, 63
5, 249020, Note_off_c, 3, 53, 64
5, 249020, Note_off_c, 3, 41, 64
5, 249792, Note_on_c, 3, 57, 80
5, 249792, Note_on_c, 3, 60, 80
5, 249792, Note_on_c, 3, 53, 80
5, 249980, Note_off_c, 3, 57, 64
5, 249980, Note_off_c, 3, 60, 64
5, 249980, Note_off_c, 3, 53, 64
5, 249984, Note_on_c, 3, 58, 80
5, 249984, Note_on_c, 3, 53, 80
5, 249984, Note_on_c, 3, 62, 80
5, 250172, Note_off_c, 3, 58, 64
5, 250172, Note_off_c, 3, 53, 64
5, 250172, Note_off_c, 3, 62, 64
5, 250176, Note_on_c, 3, 60, 80
5, 250176, Note_on_c, 3, 63, 80
5, 250176, Note_on_c, 3, 53, 80
5, 250364, Note_off_c, 3, 60, 64
5, 250364, Note_off_c, 3, 63, 64
5, 250364, Note_off_c, 3, 53, 64
5, 250368, Note_on_c, 3, 65, 80
5, 250368, Note_on_c, 3, 62, 80
5, 250368, Note_on_c, 3, 58, 80
5, 250748, Note_off_c, 3, 65, 64
5, 250748, Note_off_c, 3, 62, 64
5, 250748, Note_off_c, 3, 58, 64
5, 250752, Note_on_c, 3, 58, 80
5, 250752, Note_on_c, 3, 46, 80
5, 251132, Note_off_c, 3, 58, 64
5, 251132, Note_off_c, 3, 46, 64
5, 251136, Note_on_c, 3, 58, 80
5, 251136, Note_on_c, 3, 61, 80
5, 251136, Note_on_c, 3, 64, 80
5, 251324, Note_off_c, 3, 61, 64
5, 251324, Note_off_c, 3, 64, 64
5, 251328, Note_on_c, 3, 62, 80
5, 251328, Note_on_c, 3, 65, 80
5, 251516, Note_off_c, 3, 58, 64
5, 251516, Note_off_c, 3, 62, 64
5, 251516, Note_off_c, 3, 65, 64
5, 251520, Note_on_c, 3, 58, 80
5, 251520, Note_on_c, 3, 61, 80
5, 251520, Note_on_c, 3, 64, 80
5, 251708, Note_off_c, 3, 61, 64
5, 251708, Note_off_c, 3, 64, 64
5, 251712, Note_on_c, 3, 62, 80
5, 251712, Note_on_c, 3, 65, 80
5, 251900, Note_off_c, 3, 58, 64
5, 251900, Note_off_c, 3, 62, 64
5, 251900, Note_off_c, 3, 65, 64
5, 251904, Note_on_c, 3, 67, 80
5, 251904, Note_on_c, 3, 63, 80
5, 251904, Note_on_c, 3, 58, 80
5, 252092, Note_off_c, 3, 67, 64
5, 252092, Note_off_c, 3, 63, 64
5, 252096, Note_on_c, 3, 65, 80
5, 252096, Note_on_c, 3, 62, 80
5, 252284, Note_off_c, 3, 65, 64
5, 252284, Note_off_c, 3, 62, 64
5, 252288, Note_on_c, 3, 63, 80
5, 252288, Note_on_c, 3, 60, 80
5, 252476, Note_off_c, 3, 63, 64
5, 252476, Note_off_c, 3, 60, 64
5, 252480, Note_on_c, 3, 62, 80
5, 252480, Note_on_c, 3, 58, 80
5, 252668, Note_off_c, 3, 58, 64
5, 252668, Note_off_c, 3, 62, 64
5, 252668, Note_off_c, 3, 58, 64
5, 252672, Note_on_c, 3, 58, 80
5, 252672, Note_on_c, 3, 46, 80
5, 253052, Note_off_c, 3, 58, 64
5, 253052, Note_off_c, 3, 46, 64
5, 253440, Note_on_c, 3, 53, 60
5, 253440, Note_on_c, 3, 41, 63
5, 253532, Note_off_c, 3, 53, 64
5, 253532, Note_off_c, 3, 41, 64
5, 253632, Note_on_c, 3, 58, 60
5, 253632, Note_on_c, 3, 50, 60
5, 253724, Note_off_c, 3, 58, 64
5, 253724, Note_off_c, 3, 50, 64
5, 253824, Note_on_c, 3, 62, 60
5, 253824, Note_on_c, 3, 53, 60
5, 253916, Note_off_c, 3, 62, 64
5, 253916, Note_off_c, 3, 53, 64
5, 254016, Note_on_c, 3, 58, 60
5, 254016, Note_on_c, 3, 50, 60
5, 254108, Note_off_c, 3, 58, 64
5, 254108, Note_off_c, 3, 50, 64
5, 254208, Note_on_c, 3, 53, 60
5, 254208, Note_on_c, 3, 41, 63
5, 254300, Note_off_c, 3, 53, 64
5, 254300, Note_off_c, 3, 41, 64
5, 254400, Note_on_c, 3, 57, 60
5, 254400, Note_on_c, 3, 48, 60
5, 254492, Note_off_c, 3, 57, 64
5, 254492, Note_off_c, 3, 48, 64
5, 254592, Note_on_c, 3, 60, 60
5, 254592, Note_on_c, 3, 51, 60
5, 254684, Note_off_c, 3, 60, 64
5, 254684, Note_off_c, 3, 51, 64
5, 254784, Note_on_c, 3, 57, 60
5, 254784, Note_on_c, 3, 48, 60
5, 254876, Note_off_c, 3, 57, 64
5, 254876, Note_off_c, 3, 48, 64
5, 254976, Note_on_c, 3, 43, 63
5, 255168, Note_on_c, 3, 59, 63
5, 255168, Note_on_c, 3, 53, 63
5, 255260, Note_off_c, 3, 59, 64
5, 255260, Note_off_c, 3, 53, 64
5, 255356, Note_off_c, 3, 43, 64
5, 255360, Note_on_c, 3, 59, 63
5, 255360, Note_on_c, 3, 53, 63
5, 255452, Note_off_c, 3, 59, 64
5, 255452, Note_off_c, 3, 53, 64
5, 255552, Note_on_c, 3, 59, 63
5, 255552, Note_on_c, 3, 53, 63
5, 255644, Note_off_c, 3, 59, 64
5, 255644, Note_off_c, 3, 53, 64
5, 255744, Note_on_c, 3, 48, 63
5, 255936, Note_on_c, 3, 60, 63
5, 255936, Note_on_c, 3, 51, 63
5, 256028, Note_off_c, 3, 60, 64
5, 256028, Note_off_c, 3, 51, 64
5, 256128, Note_on_c, 3, 60, 63
5, 256128, Note_on_c, 3, 55, 63
5, 256220, Note_off_c, 3, 60, 64
5, 256220, Note_off_c, 3, 55, 64
5, 256304, Note_on_c, 3, 55, 63
5, 256320, Note_on_c, 3, 60, 63
5, 256396, Note_off_c, 3, 55, 64
5, 256412, Note_off_c, 3, 60, 64
5, 256508, Note_off_c, 3, 48, 64
5, 256512, Note_on_c, 3, 46, 63
5, 256704, Note_on_c, 3, 62, 63
5, 256704, Note_on_c, 3, 56, 63
5, 256796, Note_off_c, 3, 62, 64
5, 256796, Note_off_c, 3, 56, 64
5, 256892, Note_off_c, 3, 46, 64
5, 256896, Note_on_c, 3, 62, 63
5, 256896, Note_on_c, 3, 56, 63
5, 256988, Note_off_c, 3, 62, 64
5, 256988, Note_off_c, 3, 56, 64
5, 257088, Note_on_c, 3, 62, 63
5, 257088, Note_on_c, 3, 56, 63
5, 257180, Note_off_c, 3, 62, 64
5, 257180, Note_off_c, 3, 56, 64
5, 257280, Note_on_c, 3, 51, 63
5, 257472, Note_on_c, 3, 55, 63
5, 257472, Note_on_c, 3, 63, 63
5, 257564, Note_off_c, 3, 55, 64
5, 257564, Note_off_c, 3, 63, 64
5, 257664, Note_on_c, 3, 63, 63
5, 257664, Note_on_c, 3, 58, 63
5, 257756, Note_off_c, 3, 63, 64
5, 257756, Note_off_c, 3, 58, 64
5, 257856, Note_on_c, 3, 63, 63
5, 257856, Note_on_c, 3, 58, 63
5, 257948, Note_off_c, 3, 63, 64
5, 257948, Note_off_c, 3, 58, 64
5, 258044, Note_off_c, 3, 51, 64
5, 258048, Note_on_c, 3, 53, 63
5, 258240, Note_on_c, 3, 60, 63
5, 258240, Note_on_c, 3, 63, 63
5, 258332, Note_off_c, 3, 60, 64
5, 258332, Note_off_c, 3, 63, 64
5, 258432, Note_on_c, 3, 63, 63
5, 258432, Note_on_c, 3, 60, 63
5, 258524, Note_off_c, 3, 63, 64
5, 258524, Note_off_c, 3, 60, 64
5, 258624, Note_on_c, 3, 63, 63
5, 258624, Note_on_c, 3, 60, 63
5, 258716, Note_off_c, 3, 63, 64
5, 258716, Note_off_c, 3, 60, 64
5, 258812, Note_off_c, 3, 53, 64
5, 258816, Note_on_c, 3, 62, 63
5, 258816, Note_on_c, 3, 55, 63
5, 259196, Note_off_c, 3, 62, 64
5, 259196, Note_off_c, 3, 55, 64
5, 259200, Note_on_c, 3, 63, 63
5, 259200, Note_on_c, 3, 51, 63
5, 259580, Note_off_c, 3, 63, 64
5, 259580, Note_off_c, 3, 51, 64
5, 259584, Note_on_c, 3, 58, 63
5, 259584, Note_on_c, 3, 50, 63
5, 259964, Note_off_c, 3, 58, 64
5, 259964, Note_off_c, 3, 50, 64
5, 259968, Note_on_c, 3, 60, 63
5, 259968, Note_on_c, 3, 55, 63
5, 259968, Note_on_c, 3, 51, 63
5, 260348, Note_off_c, 3, 60, 64
5, 260348, Note_off_c, 3, 55, 64
5, 260348, Note_off_c, 3, 51, 64
5, 260352, Note_on_c, 3, 58, 63
5, 260352, Note_on_c, 3, 53, 63
5, 260732, Note_off_c, 3, 58, 64
5, 260732, Note_off_c, 3, 53, 64
5, 260736, Note_on_c, 3, 51, 63
5, 260736, Note_on_c, 3, 41, 66
5, 261116, Note_off_c, 3, 51, 64
5, 261116, Note_off_c, 3, 41, 64
5, 261120, Note_on_c, 3, 50, 63
5, 261120, Note_on_c, 3, 46, 63
5, 261312, Note_on_c, 3, 58, 60
5, 261500, Note_off_c, 3, 50, 64
5, 261500, Note_off_c, 3, 46, 64
5, 261500, Note_off_c, 3, 58, 64
5, 261504, Note_on_c, 3, 58, 60
5, 261692, Note_off_c, 3, 58, 64
5, 261696, Note_on_c, 3, 58, 60
5, 261884, Note_off_c, 3, 58, 64
5, 261888, Note_on_c, 3, 55, 60
5, 262076, Note_off_c, 3, 55, 64
5, 262080, Note_on_c, 3, 58, 60
5, 262268, Note_off_c, 3, 58, 64
5, 262272, Note_on_c, 3, 56, 60
5, 262460, Note_off_c, 3, 56, 64
5, 262464, Note_on_c, 3, 58, 60
5, 262652, Note_off_c, 3, 58, 64
5, 262656, Note_on_c, 3, 55, 60
5, 262844, Note_off_c, 3, 55, 64
5, 262848, Note_on_c, 3, 58, 60
5, 263036, Note_off_c, 3, 58, 64
5, 263040, Note_on_c, 3, 53, 60
5, 263228, Note_off_c, 3, 53, 64
5, 263232, Note_on_c, 3, 58, 60
5, 263420, Note_off_c, 3, 58, 64
5, 263424, Note_on_c, 3, 57, 60
5, 263612, Note_off_c, 3, 57, 64
5, 263616, Note_on_c, 3, 58, 60
5, 263804, Note_off_c, 3, 58, 64
5, 263808, Note_on_c, 3, 56, 60
5, 263996, Note_off_c, 3, 56, 64
5, 264000, Note_on_c, 3, 53, 60
5, 264188, Note_off_c, 3, 53, 64
5, 264192, Note_on_c, 3, 51, 60
5, 264380, Note_off_c, 3, 51, 64
5, 264384, Note_on_c, 3, 58, 61
5, 264572, Note_off_c, 3, 58, 64
5, 264576, Note_on_c, 3, 50, 63
5, 264764, Note_off_c, 3, 50, 64
5, 264768, Note_on_c, 3, 58, 68
5, 264956, Note_off_c, 3, 58, 64
5, 264960, Note_on_c, 3, 50, 71
5, 264960, Note_on_c, 3, 50, 71
5, 265148, Note_off_c, 3, 50, 64
5, 265152, Note_on_c, 3, 58, 73
5, 265152, Note_on_c, 3, 58, 73
5, 265152, Note_on_c, 3, 58, 73
5, 265340, Note_off_c, 3, 50, 64
5, 265340, Note_off_c, 3, 58, 64
5, 265344, Note_on_c, 3, 51, 76
5, 265344, Note_on_c, 3, 51, 76
5, 265532, Note_off_c, 3, 58, 64
5, 265532, Note_off_c, 3, 58, 64
5, 265532, Note_off_c, 3, 51, 64
5, 265532, Note_off_c, 3, 51, 64
5, 265536, Note_on_c, 3, 58, 78
5, 265536, Note_on_c, 3, 52, 78
5, 265724, Note_off_c, 3, 58, 64
5, 265724, Note_off_c, 3, 52, 64
5, 265728, Note_on_c, 3, 53, 80
5, 265728, Note_on_c, 3, 53, 80
5, 265916, Note_off_c, 3, 53, 64
5, 265920, Note_on_c, 3, 58, 60
5, 266108, Note_off_c, 3, 58, 64
5, 266112, Note_on_c, 3, 62, 60
5, 266300, Note_off_c, 3, 62, 64
5, 266304, Note_on_c, 3, 65, 60
5, 266492, Note_off_c, 3, 53, 64
5, 266492, Note_off_c, 3, 65, 64
5, 266496, Note_on_c, 3, 53, 60
5, 266496, Note_on_c, 3, 41, 63
5, 266684, Note_off_c, 3, 53, 64
5, 266684, Note_off_c, 3, 41, 64
5, 266688, Note_on_c, 3, 57, 60
5, 266876, Note_off_c, 3, 57, 64
5, 266880, Note_on_c, 3, 60, 60
5, 267068, Note_off_c, 3, 60, 64
5, 267072, Note_on_c, 3, 63, 60
5, 267260, Note_off_c, 3, 63, 64
5, 267264, Note_on_c, 3, 58, 60
5, 267264, Note_on_c, 3, 46, 60
5, 268028, Note_off_c, 3, 58, 64
5, 268028, Note_off_c, 3, 46, 64
5, 268032, Note_on_c, 3, 57, 60
5, 268032, Note_on_c, 3, 45, 60
5, 268412, Note_off_c, 3, 57, 64
5, 268412, Note_off_c, 3, 45, 64
5, 268416, Note_on_c, 3, 56, 60
5, 268416, Note_on_c, 3, 44, 60
5, 268796, Note_off_c, 3, 56, 64
5, 268796, Note_off_c, 3, 44, 64
5, 268800, Note_on_c, 3, 55, 60
5, 268800, Note_on_c, 3, 43, 60
5, 269180, Note_off_c, 3, 55, 64
5, 269180, Note_off_c, 3, 43, 64
5, 269184, Note_on_c, 3, 53, 60
5, 269184, Note_on_c, 3, 41, 63
5, 269372, Note_off_c, 3, 53, 64
5, 269372, Note_off_c, 3, 41, 64
5, 269376, Note_on_c, 3, 58, 60
5, 269376, Note_on_c, 3, 46, 60
5, 269564, Note_off_c, 3, 58, 64
5, 269564, Note_off_c, 3, 46, 64
5, 269568, Note_on_c, 3, 57, 60
5, 269568, Note_on_c, 3, 45, 60
5, 269756, Note_off_c, 3, 57, 64
5, 269756, Note_off_c, 3, 45, 64
5, 269760, Note_on_c, 3, 58, 60
5, 269760, Note_on_c, 3, 46, 60
5, 269948, Note_off_c, 3, 58, 64
5, 269948, Note_off_c, 3, 46, 64
5, 269952, Note_on_c, 3, 56, 60
5, 269952, Note_on_c, 3, 44, 60
5, 270140, Note_off_c, 3, 56, 64
5, 270140, Note_off_c, 3, 44, 64
5, 270144, Note_on_c, 3, 53, 60
5, 270144, Note_on_c, 3, 41, 60
5, 270332, Note_off_c, 3, 53, 64
5, 270332, Note_off_c, 3, 41, 64
5, 270336, Note_on_c, 3, 39, 63
5, 270336, Note_on_c, 3, 51, 60
5, 270716, Note_off_c, 3, 39, 64
5, 270716, Note_off_c, 3, 51, 64
5, 270720, Note_on_c, 3, 50, 60
5, 270720, Note_on_c, 3, 38, 64
5, 271100, Note_off_c, 3, 50, 64
5, 271100, Note_off_c, 3, 38, 64
5, 271104, Note_on_c, 3, 52, 60
5, 271104, Note_on_c, 3, 40, 64
5, 271868, Note_off_c, 3, 52, 64
5, 271868, Note_off_c, 3, 40, 64
5, 271872, Note_on_c, 3, 53, 60
5, 271872, Note_on_c, 3, 41, 63
5, 272252, Note_off_c, 3, 53, 64
5, 272252, Note_off_c, 3, 41, 64
5, 272640, Note_on_c, 3, 53, 60
5, 272640, Note_on_c, 3, 41, 63
5, 272828, Note_off_c, 3, 53, 64
5, 272828, Note_off_c, 3, 41, 64
5, 273024, Note_on_c, 3, 51, 60
5, 273024, Note_on_c, 3, 39, 63
5, 273212, Note_off_c, 3, 51, 64
5, 273212, Note_off_c, 3, 39, 64
5, 273408, Note_on_c, 3, 50, 60
5, 273408, Note_on_c, 3, 38, 64
5, 273596, Note_off_c, 3, 50, 64
5, 273596, Note_off_c, 3, 38, 64
5, 274176, Note_on_c, 3, 51, 60
5, 274176, Note_on_c, 3, 46, 60
5, 274176, Note_on_c, 3, 39, 64
5, 274364, Note_off_c, 3, 51, 64
5, 274364, Note_off_c, 3, 46, 64
5, 274364, Note_off_c, 3, 39, 64
5, 274944, Note_on_c, 3, 53, 60
5, 274944, Note_on_c, 3, 41, 63
5, 275132, Note_off_c, 3, 53, 64
5, 275132, Note_off_c, 3, 41, 64
5, 275712, Note_on_c, 3, 51, 60
5, 275712, Note_on_c, 3, 39, 64
5, 275900, Note_off_c, 3, 51, 64
5, 275900, Note_off_c, 3, 39, 64
5, 276480, Note_on_c, 3, 50, 60
5, 276480, Note_on_c, 3, 38, 64
5, 276668, Note_off_c, 3, 50, 64
5, 276668, Note_off_c, 3, 38, 64
5, 276864, Note_on_c, 3, 62, 60
5, 276864, Note_on_c, 3, 65, 60
5, 277052, Note_off_c, 3, 62, 64
5, 277052, Note_off_c, 3, 65, 64
5, 277248, Note_on_c, 3, 51, 60
5, 277248, Note_on_c, 3, 39, 64
5, 277436, Note_off_c, 3, 51, 64
5, 277436, Note_off_c, 3, 39, 64
5, 277632, Note_on_c, 3, 60, 60
5, 277632, Note_on_c, 3, 63, 63
5, 277820, Note_off_c, 3, 60, 64
5, 277820, Note_off_c, 3, 63, 64
5, 278016, Note_on_c, 3, 53, 60
5, 278016, Note_on_c, 3, 41, 63
5, 278204, Note_off_c, 3, 53, 64
5, 278204, Note_off_c, 3, 41, 64
5, 278400, Note_on_c, 3, 58, 60
5, 278400, Note_on_c, 3, 62, 60
5, 278588, Note_off_c, 3, 58, 64
5, 278588, Note_off_c, 3, 62, 64
5, 278784, Note_on_c, 3, 41, 63
5, 278784, Note_on_c, 3, 29, 67
5, 278972, Note_off_c, 3, 41, 64
5, 278972, Note_off_c, 3, 29, 64
5, 279168, Note_on_c, 3, 60, 60
5, 279168, Note_on_c, 3, 57, 60
5, 279356, Note_off_c, 3, 60, 64
5, 279356, Note_off_c, 3, 57, 64
5, 279552, Note_on_c, 3, 46, 60
5, 279552, Note_on_c, 3, 34, 65
5, 279932, Note_off_c, 3, 46, 64
5, 279932, Note_off_c, 3, 34, 64
5, 280320, Note_on_c, 3, 53, 60
5, 280320, Note_on_c, 3, 41, 63
5, 280700, Note_off_c, 3, 53, 64
5, 280700, Note_off_c, 3, 41, 64
5, 281088, Note_on_c, 3, 46, 60
5, 281468, Note_off_c, 3, 46, 64
5, 281856, Note_on_c, 3, 53, 60
5, 281856, Note_on_c, 3, 41, 60
5, 282236, Note_off_c, 3, 53, 64
5, 282236, Note_off_c, 3, 41, 64
5, 282624, Note_on_c, 3, 46, 60
5, 283004, Note_off_c, 3, 46, 64
5, 283392, Note_on_c, 3, 53, 60
5, 283392, Note_on_c, 3, 41, 63
5, 283772, Note_off_c, 3, 53, 64
5, 283772, Note_off_c, 3, 41, 64
5, 284160, Note_on_c, 3, 46, 60
5, 284252, Note_off_c, 3, 46, 64
5, 284256, Note_on_c, 3, 65, 49
5, 284256, Note_on_c, 3, 58, 49
5, 284256, Note_on_c, 3, 62, 49
5, 285692, Note_off_c, 3, 65, 64
5, 285692, Note_off_c, 3, 58, 64
5, 285692, Note_off_c, 3, 62, 64
5, 285696, Note_on_c, 3, 65, 48
5, 285696, Note_on_c, 3, 62, 48
5, 285696, Note_on_c, 3, 58, 48
5, 285696, Note_on_c, 3, 46, 48
5, 285696, Note_on_c, 3, 34, 53
5, 286260, Note_off_c, 3, 46, 64
5, 286264, Note_off_c, 3, 62, 64
5, 286268, Note_off_c, 3, 65, 64
5, 286272, Note_off_c, 3, 58, 64
5, 286276, Note_off_c, 3, 34, 64
5, 286276, End_track
0, 0, End_of_file
