0, 0, Header, 1, 6, 384
1, 0, Start_track
1, 0, Time_signature, 3, 3, 96, 8
1, 0, Sequencer_specific, 3, 0, 0, 65
1, 0, Sequencer_specific, 5, 0, 0, 119, 14, 0
1, 0, Tempo, 521739
1, 124416, Tempo, 857142
1, 124992, Tempo, 2000000
1, 125184, Tempo, 566037
1, 126720, Tempo, 521739
1, 130176, Tempo, 705882
1, 131328, Tempo, 521739
1, 149760, Tempo, 1000000
1, 150336, Tempo, 521739
1, 169920, Time_signature, 4, 2, 96, 8
1, 169920, Tempo, 545454
1, 189888, Tempo, 370370
1, 227712, Tempo, 1000000
1, 228288, Time_signature, 3, 3, 96, 8
1, 228288, Tempo, 521739
1, 276672, Tempo, 666666
1, 277248, Tempo, 1000000
1, 278400, Tempo, 508474
1, 285312, Tempo, 1132075
1, 286464, Tempo, 521739
1, 286464, End_track
2, 0, Start_track
2, 0, Title_t, "Mozart - Violin"
2, 0, Control_c, 0, 0, 0
2, 0, Program_c, 0, 40
2, 0, Control_c, 0, 7, 92
2, 0, Control_c, 0, 10, 67
2, 0, Control_c, 0, 91, 70
2, 0, Control_c, 0, 93, 53
2, 0, Key_signature, 1, "major"
2, 0, Control_c, 0, 121, 0
2, 96, Control_c, 0, 10, 63
2, 192, Control_c, 0, 91, 73
2, 240, Control_c, 0, 93, 35
2, 288, Program_c, 0, 40
2, 336, Control_c, 0, 1, 55
2, 23610, Control_c, 0, 1, 55
2, 23616, Note_on_c, 0, 74, 68
2, 24380, Note_off_c, 0, 74, 65
2, 24384, Note_on_c, 0, 79, 69
2, 24572, Note_off_c, 0, 79, 65
2, 24576, Note_on_c, 0, 83, 70
2, 24764, Note_off_c, 0, 83, 65
2, 24768, Note_on_c, 0, 81, 69
2, 24956, Note_off_c, 0, 81, 65
2, 24960, Note_on_c, 0, 79, 69
2, 25148, Note_off_c, 0, 79, 65
2, 25152, Note_on_c, 0, 78, 69
2, 25244, Note_off_c, 0, 78, 65
2, 25344, Note_on_c, 0, 79, 69
2, 25390, Note_off_c, 0, 79, 65
2, 25392, Note_on_c, 0, 81, 70
2, 25438, Note_off_c, 0, 81, 65
2, 25440, Note_on_c, 0, 78, 68
2, 25486, Note_off_c, 0, 78, 65
2, 25488, Note_on_c, 0, 79, 69
2, 25534, Note_off_c, 0, 79, 64
2, 25920, Note_on_c, 0, 76, 68
2, 26684, Note_off_c, 0, 76, 65
2, 26688, Note_on_c, 0, 79, 68
2, 26876, Note_off_c, 0, 79, 65
2, 26880, Note_on_c, 0, 76, 68
2, 27068, Note_off_c, 0, 76, 65
2, 27072, Note_on_c, 0, 73, 68
2, 27260, Note_off_c, 0, 73, 65
2, 27264, Note_on_c, 0, 74, 69
2, 27452, Note_off_c, 0, 74, 65
2, 27456, Note_on_c, 0, 74, 68
2, 27548, Note_off_c, 0, 74, 65
2, 27648, Note_on_c, 0, 74, 68
2, 27694, Note_off_c, 0, 74, 65
2, 27696, Note_on_c, 0, 76, 68
2, 27742, Note_off_c, 0, 76, 65
2, 27744, Note_on_c, 0, 73, 68
2, 27790, Note_off_c, 0, 73, 65
2, 27792, Note_on_c, 0, 74, 65
2, 27838, Note_off_c, 0, 74, 64
2, 28224, Note_on_c, 0, 74, 68
2, 28412, Note_off_c, 0, 74, 65
2, 28416, Note_on_c, 0, 69, 68
2, 28604, Note_off_c, 0, 69, 65
2, 28800, Note_on_c, 0, 74, 68
2, 28988, Note_off_c, 0, 74, 65
2, 28992, Note_on_c, 0, 71, 68
2, 29180, Note_off_c, 0, 71, 65
2, 29376, Note_on_c, 0, 74, 68
2, 29564, Note_off_c, 0, 74, 65
2, 29568, Note_on_c, 0, 72, 68
2, 29756, Note_off_c, 0, 72, 65
2, 29760, Note_on_c, 0, 72, 68
2, 29852, Note_off_c, 0, 72, 65
2, 29952, Note_on_c, 0, 78, 68
2, 29998, Note_off_c, 0, 78, 65
2, 30000, Note_on_c, 0, 79, 68
2, 30046, Note_off_c, 0, 79, 65
2, 30048, Note_on_c, 0, 78, 68
2, 30094, Note_off_c, 0, 78, 65
2, 30096, Note_on_c, 0, 79, 68
2, 30142, Note_off_c, 0, 79, 65
2, 30144, Note_on_c, 0, 78, 68
2, 30190, Note_off_c, 0, 78, 65
2, 30192, Note_on_c, 0, 79, 68
2, 30238, Note_off_c, 0, 79, 65
2, 30240, Note_on_c, 0, 76, 68
2, 30286, Note_off_c, 0, 76, 65
2, 30288, Note_on_c, 0, 78, 68
2, 30334, Note_off_c, 0, 78, 65
2, 30336, Note_on_c, 0, 76, 68
2, 30428, Note_off_c, 0, 76, 65
2, 30432, Note_on_c, 0, 78, 68
2, 30524, Note_off_c, 0, 78, 65
2, 30528, Note_on_c, 0, 79, 69
2, 30620, Note_off_c, 0, 79, 65
2, 30624, Note_on_c, 0, 81, 70
2, 30716, Note_off_c, 0, 81, 65
2, 30720, Note_on_c, 0, 83, 71
2, 30812, Note_off_c, 0, 83, 65
2, 30816, Note_on_c, 0, 79, 68
2, 30908, Note_off_c, 0, 79, 65
2, 30912, Note_on_c, 0, 74, 69
2, 31100, Note_off_c, 0, 74, 65
2, 31104, Note_on_c, 0, 76, 68
2, 31196, Note_off_c, 0, 76, 65
2, 31200, Note_on_c, 0, 78, 69
2, 31292, Note_off_c, 0, 78, 65
2, 31296, Note_on_c, 0, 79, 70
2, 31388, Note_off_c, 0, 79, 65
2, 31392, Note_on_c, 0, 76, 68
2, 31484, Note_off_c, 0, 76, 65
2, 31488, Note_on_c, 0, 72, 68
2, 31676, Note_off_c, 0, 72, 65
2, 31680, Note_on_c, 0, 71, 68
2, 32252, Note_off_c, 0, 71, 65
2, 32256, Note_on_c, 0, 69, 68
2, 32444, Note_off_c, 0, 69, 65
2, 32448, Note_on_c, 0, 71, 68
2, 32540, Note_off_c, 0, 71, 65
2, 32640, Note_on_c, 0, 72, 68
2, 32732, Note_off_c, 0, 72, 65
2, 32832, Note_on_c, 0, 73, 73
2, 32878, Note_off_c, 0, 73, 65
2, 32880, Note_on_c, 0, 74, 68
2, 33596, Note_off_c, 0, 74, 64
2, 33600, Note_on_c, 0, 79, 70
2, 33788, Note_off_c, 0, 79, 65
2, 33792, Note_on_c, 0, 83, 71
2, 33980, Note_off_c, 0, 83, 65
2, 33984, Note_on_c, 0, 81, 70
2, 34172, Note_off_c, 0, 81, 65
2, 34176, Note_on_c, 0, 79, 69
2, 34364, Note_off_c, 0, 79, 65
2, 34368, Note_on_c, 0, 79, 69
2, 34460, Note_off_c, 0, 79, 65
2, 34560, Note_on_c, 0, 79, 69
2, 34604, Note_off_c, 0, 79, 65
2, 34608, Note_on_c, 0, 81, 70
2, 34652, Note_off_c, 0, 81, 65
2, 34656, Note_on_c, 0, 78, 68
2, 34700, Note_off_c, 0, 78, 65
2, 34704, Note_on_c, 0, 79, 69
2, 34748, Note_off_c, 0, 79, 64
2, 35136, Note_on_c, 0, 76, 68
2, 35900, Note_off_c, 0, 76, 65
2, 35904, Note_on_c, 0, 79, 69
2, 36092, Note_off_c, 0, 79, 65
2, 36096, Note_on_c, 0, 76, 68
2, 36284, Note_off_c, 0, 76, 65
2, 36288, Note_on_c, 0, 73, 68
2, 36476, Note_off_c, 0, 73, 65
2, 36480, Note_on_c, 0, 74, 68
2, 36668, Note_off_c, 0, 74, 65
2, 36672, Note_on_c, 0, 74, 68
2, 36764, Note_off_c, 0, 74, 65
2, 36864, Note_on_c, 0, 74, 68
2, 36908, Note_off_c, 0, 74, 65
2, 36912, Note_on_c, 0, 76, 68
2, 36956, Note_off_c, 0, 76, 65
2, 36960, Note_on_c, 0, 73, 68
2, 37004, Note_off_c, 0, 73, 65
2, 37008, Note_on_c, 0, 74, 68
2, 37052, Note_off_c, 0, 74, 64
2, 37440, Note_on_c, 0, 79, 68
2, 37628, Note_off_c, 0, 79, 65
2, 37632, Note_on_c, 0, 76, 68
2, 37820, Note_off_c, 0, 76, 65
2, 38016, Note_on_c, 0, 74, 68
2, 38204, Note_off_c, 0, 74, 65
2, 38208, Note_on_c, 0, 73, 68
2, 38396, Note_off_c, 0, 73, 65
2, 38592, Note_on_c, 0, 81, 71
2, 38780, Note_off_c, 0, 81, 65
2, 38784, Note_on_c, 0, 78, 69
2, 38972, Note_off_c, 0, 78, 65
2, 39168, Note_on_c, 0, 76, 68
2, 39356, Note_off_c, 0, 76, 65
2, 39360, Note_on_c, 0, 74, 68
2, 39548, Note_off_c, 0, 74, 65
2, 39744, Note_on_c, 0, 71, 68
2, 39932, Note_off_c, 0, 71, 65
2, 39936, Note_on_c, 0, 83, 72
2, 40124, Note_off_c, 0, 83, 65
2, 40128, Note_on_c, 0, 81, 71
2, 40316, Note_off_c, 0, 81, 65
2, 40320, Note_on_c, 0, 79, 70
2, 40508, Note_off_c, 0, 79, 65
2, 40512, Note_on_c, 0, 78, 69
2, 40700, Note_off_c, 0, 78, 65
2, 40704, Note_on_c, 0, 76, 68
2, 40892, Note_off_c, 0, 76, 65
2, 40896, Note_on_c, 0, 74, 68
2, 41084, Note_off_c, 0, 74, 65
2, 41088, Note_on_c, 0, 73, 68
2, 41276, Note_off_c, 0, 73, 65
2, 42048, Note_on_c, 0, 78, 68
2, 42140, Note_off_c, 0, 78, 65
2, 42144, Note_on_c, 0, 81, 70
2, 42236, Note_off_c, 0, 81, 65
2, 42240, Note_on_c, 0, 83, 71
2, 42332, Note_off_c, 0, 83, 65
2, 42336, Note_on_c, 0, 81, 70
2, 42428, Note_off_c, 0, 81, 65
2, 42432, Note_on_c, 0, 83, 71
2, 42524, Note_off_c, 0, 83, 65
2, 42528, Note_on_c, 0, 81, 70
2, 42620, Note_off_c, 0, 81, 65
2, 42624, Note_on_c, 0, 86, 73
2, 42716, Note_off_c, 0, 86, 65
2, 42720, Note_on_c, 0, 81, 70
2, 42812, Note_off_c, 0, 81, 65
2, 42816, Note_on_c, 0, 83, 71
2, 42908, Note_off_c, 0, 83, 65
2, 42912, Note_on_c, 0, 81, 70
2, 43004, Note_off_c, 0, 81, 65
2, 43008, Note_on_c, 0, 83, 71
2, 43100, Note_off_c, 0, 83, 65
2, 43104, Note_on_c, 0, 81, 70
2, 43196, Note_off_c, 0, 81, 65
2, 43200, Note_on_c, 0, 88, 74
2, 43292, Note_off_c, 0, 88, 65
2, 43296, Note_on_c, 0, 81, 70
2, 43388, Note_off_c, 0, 81, 65
2, 43392, Note_on_c, 0, 83, 71
2, 43484, Note_off_c, 0, 83, 65
2, 43488, Note_on_c, 0, 81, 70
2, 43580, Note_off_c, 0, 81, 65
2, 43584, Note_on_c, 0, 83, 71
2, 43676, Note_off_c, 0, 83, 65
2, 43680, Note_on_c, 0, 81, 70
2, 43772, Note_off_c, 0, 81, 65
2, 43776, Note_on_c, 0, 76, 68
2, 43868, Note_off_c, 0, 76, 65
2, 43872, Note_on_c, 0, 83, 71
2, 43964, Note_off_c, 0, 83, 65
2, 43968, Note_on_c, 0, 78, 68
2, 44060, Note_off_c, 0, 78, 65
2, 44064, Note_on_c, 0, 81, 70
2, 44156, Note_off_c, 0, 81, 65
2, 44160, Note_on_c, 0, 79, 69
2, 44252, Note_off_c, 0, 79, 65
2, 44256, Note_on_c, 0, 81, 70
2, 44348, Note_off_c, 0, 81, 65
2, 44352, Note_on_c, 0, 78, 68
2, 44444, Note_off_c, 0, 78, 65
2, 44448, Note_on_c, 0, 81, 70
2, 44540, Note_off_c, 0, 81, 65
2, 44544, Note_on_c, 0, 83, 71
2, 44636, Note_off_c, 0, 83, 65
2, 44640, Note_on_c, 0, 81, 70
2, 44732, Note_off_c, 0, 81, 65
2, 44736, Note_on_c, 0, 83, 71
2, 44828, Note_off_c, 0, 83, 65
2, 44832, Note_on_c, 0, 81, 70
2, 44924, Note_off_c, 0, 81, 65
2, 44928, Note_on_c, 0, 86, 73
2, 45020, Note_off_c, 0, 86, 65
2, 45024, Note_on_c, 0, 81, 70
2, 45116, Note_off_c, 0, 81, 65
2, 45120, Note_on_c, 0, 83, 71
2, 45212, Note_off_c, 0, 83, 65
2, 45216, Note_on_c, 0, 81, 70
2, 45308, Note_off_c, 0, 81, 65
2, 45312, Note_on_c, 0, 83, 71
2, 45404, Note_off_c, 0, 83, 65
2, 45408, Note_on_c, 0, 81, 70
2, 45500, Note_off_c, 0, 81, 65
2, 45504, Note_on_c, 0, 88, 74
2, 45596, Note_off_c, 0, 88, 65
2, 45600, Note_on_c, 0, 81, 70
2, 45692, Note_off_c, 0, 81, 65
2, 45696, Note_on_c, 0, 83, 71
2, 45788, Note_off_c, 0, 83, 65
2, 45792, Note_on_c, 0, 81, 70
2, 45884, Note_off_c, 0, 81, 65
2, 45888, Note_on_c, 0, 83, 71
2, 45980, Note_off_c, 0, 83, 65
2, 45984, Note_on_c, 0, 81, 70
2, 46076, Note_off_c, 0, 81, 65
2, 46080, Note_on_c, 0, 76, 68
2, 46172, Note_off_c, 0, 76, 65
2, 46176, Note_on_c, 0, 81, 70
2, 46268, Note_off_c, 0, 81, 65
2, 46272, Note_on_c, 0, 78, 68
2, 46364, Note_off_c, 0, 78, 65
2, 46368, Note_on_c, 0, 81, 70
2, 46460, Note_off_c, 0, 81, 65
2, 46464, Note_on_c, 0, 79, 68
2, 46556, Note_off_c, 0, 79, 65
2, 46560, Note_on_c, 0, 81, 70
2, 46652, Note_off_c, 0, 81, 65
2, 46656, Note_on_c, 0, 78, 68
2, 46748, Note_off_c, 0, 78, 65
2, 46752, Note_on_c, 0, 81, 70
2, 46844, Note_off_c, 0, 81, 65
2, 46848, Note_on_c, 0, 86, 73
2, 46940, Note_off_c, 0, 86, 65
2, 46944, Note_on_c, 0, 78, 68
2, 47036, Note_off_c, 0, 78, 65
2, 47040, Note_on_c, 0, 76, 68
2, 47132, Note_off_c, 0, 76, 65
2, 47136, Note_on_c, 0, 85, 72
2, 47228, Note_off_c, 0, 85, 65
2, 47232, Note_on_c, 0, 74, 68
2, 47324, Note_off_c, 0, 74, 65
2, 47328, Note_on_c, 0, 84, 72
2, 47420, Note_off_c, 0, 84, 65
2, 47424, Note_on_c, 0, 73, 68
2, 47516, Note_off_c, 0, 73, 65
2, 47520, Note_on_c, 0, 81, 70
2, 47612, Note_off_c, 0, 81, 65
2, 47616, Note_on_c, 0, 71, 68
2, 47708, Note_off_c, 0, 71, 65
2, 47712, Note_on_c, 0, 79, 69
2, 47804, Note_off_c, 0, 79, 65
2, 47808, Note_on_c, 0, 69, 68
2, 47900, Note_off_c, 0, 69, 65
2, 47904, Note_on_c, 0, 78, 68
2, 47996, Note_off_c, 0, 78, 65
2, 48000, Note_on_c, 0, 67, 68
2, 48092, Note_off_c, 0, 67, 65
2, 48096, Note_on_c, 0, 76, 68
2, 48188, Note_off_c, 0, 76, 65
2, 48192, Note_on_c, 0, 66, 68
2, 48284, Note_off_c, 0, 66, 65
2, 48288, Note_on_c, 0, 74, 68
2, 48380, Note_off_c, 0, 74, 65
2, 48384, Note_on_c, 0, 64, 68
2, 48476, Note_off_c, 0, 64, 65
2, 48480, Note_on_c, 0, 73, 68
2, 48572, Note_off_c, 0, 73, 65
2, 48576, Note_on_c, 0, 57, 72
2, 48668, Note_off_c, 0, 57, 65
2, 48672, Note_on_c, 0, 67, 68
2, 48764, Note_off_c, 0, 67, 65
2, 48768, Note_on_c, 0, 62, 69
2, 48860, Note_off_c, 0, 62, 65
2, 48864, Note_on_c, 0, 66, 68
2, 48956, Note_off_c, 0, 66, 65
2, 48960, Note_on_c, 0, 55, 73
2, 49052, Note_off_c, 0, 55, 65
2, 49056, Note_on_c, 0, 71, 68
2, 49148, Note_off_c, 0, 71, 65
2, 49152, Note_on_c, 0, 70, 68
2, 49244, Note_off_c, 0, 70, 65
2, 49248, Note_on_c, 0, 71, 68
2, 49340, Note_off_c, 0, 71, 65
2, 49344, Note_on_c, 0, 70, 68
2, 49436, Note_off_c, 0, 70, 65
2, 49440, Note_on_c, 0, 71, 68
2, 49532, Note_off_c, 0, 71, 65
2, 49632, Note_on_c, 0, 86, 73
2, 49724, Note_off_c, 0, 86, 65
2, 49728, Note_on_c, 0, 85, 72
2, 49820, Note_off_c, 0, 85, 65
2, 49824, Note_on_c, 0, 86, 73
2, 49916, Note_off_c, 0, 86, 65
2, 49920, Note_on_c, 0, 85, 72
2, 50012, Note_off_c, 0, 85, 65
2, 50016, Note_on_c, 0, 86, 73
2, 50108, Note_off_c, 0, 86, 65
2, 50110, Control_c, 0, 1, 55
2, 50112, Note_on_c, 0, 69, 68
2, 50684, Note_off_c, 0, 69, 65
2, 50688, Note_on_c, 0, 76, 68
2, 50734, Note_off_c, 0, 76, 65
2, 50736, Note_on_c, 0, 78, 68
2, 50782, Note_off_c, 0, 78, 65
2, 50784, Note_on_c, 0, 76, 68
2, 50830, Note_off_c, 0, 76, 65
2, 50832, Note_on_c, 0, 78, 68
2, 50878, Note_off_c, 0, 78, 65
2, 50880, Note_on_c, 0, 76, 68
2, 50926, Note_off_c, 0, 76, 65
2, 50928, Note_on_c, 0, 78, 68
2, 50974, Note_off_c, 0, 78, 65
2, 50976, Note_on_c, 0, 76, 68
2, 51022, Note_off_c, 0, 76, 65
2, 51024, Note_on_c, 0, 78, 68
2, 51070, Note_off_c, 0, 78, 65
2, 51072, Note_on_c, 0, 76, 68
2, 51118, Note_off_c, 0, 76, 65
2, 51120, Note_on_c, 0, 78, 68
2, 51166, Note_off_c, 0, 78, 65
2, 51168, Note_on_c, 0, 74, 68
2, 51214, Note_off_c, 0, 74, 65
2, 51216, Note_on_c, 0, 76, 68
2, 51262, Note_off_c, 0, 76, 65
2, 51264, Note_on_c, 0, 78, 68
2, 51356, Note_off_c, 0, 78, 65
2, 51360, Note_on_c, 0, 81, 70
2, 51452, Note_off_c, 0, 81, 65
2, 51456, Note_on_c, 0, 86, 73
2, 51548, Note_off_c, 0, 86, 65
2, 51552, Note_on_c, 0, 78, 69
2, 51644, Note_off_c, 0, 78, 65
2, 51648, Note_on_c, 0, 76, 68
2, 51740, Note_off_c, 0, 76, 65
2, 51744, Note_on_c, 0, 85, 72
2, 51836, Note_off_c, 0, 85, 65
2, 51840, Note_on_c, 0, 74, 68
2, 51932, Note_off_c, 0, 74, 65
2, 51936, Note_on_c, 0, 83, 71
2, 52028, Note_off_c, 0, 83, 65
2, 52032, Note_on_c, 0, 73, 68
2, 52124, Note_off_c, 0, 73, 65
2, 52128, Note_on_c, 0, 81, 70
2, 52220, Note_off_c, 0, 81, 65
2, 52224, Note_on_c, 0, 71, 68
2, 52316, Note_off_c, 0, 71, 65
2, 52320, Note_on_c, 0, 79, 69
2, 52412, Note_off_c, 0, 79, 65
2, 52416, Note_on_c, 0, 69, 68
2, 52508, Note_off_c, 0, 69, 65
2, 52512, Note_on_c, 0, 79, 69
2, 52604, Note_off_c, 0, 79, 65
2, 52608, Note_on_c, 0, 67, 68
2, 52700, Note_off_c, 0, 67, 65
2, 52704, Note_on_c, 0, 76, 68
2, 52796, Note_off_c, 0, 76, 65
2, 52800, Note_on_c, 0, 66, 68
2, 52892, Note_off_c, 0, 66, 65
2, 52896, Note_on_c, 0, 74, 68
2, 52988, Note_off_c, 0, 74, 65
2, 52992, Note_on_c, 0, 64, 68
2, 53084, Note_off_c, 0, 64, 65
2, 53088, Note_on_c, 0, 73, 68
2, 53180, Note_off_c, 0, 73, 65
2, 53184, Note_on_c, 0, 57, 72
2, 53276, Note_off_c, 0, 57, 65
2, 53280, Note_on_c, 0, 67, 68
2, 53372, Note_off_c, 0, 67, 65
2, 53376, Note_on_c, 0, 62, 68
2, 53468, Note_off_c, 0, 62, 65
2, 53472, Note_on_c, 0, 66, 68
2, 53564, Note_off_c, 0, 66, 65
2, 53568, Note_on_c, 0, 55, 73
2, 53660, Note_off_c, 0, 55, 65
2, 53664, Note_on_c, 0, 71, 68
2, 53756, Note_off_c, 0, 71, 65
2, 53760, Note_on_c, 0, 70, 68
2, 53852, Note_off_c, 0, 70, 65
2, 53856, Note_on_c, 0, 71, 68
2, 53948, Note_off_c, 0, 71, 65
2, 53952, Note_on_c, 0, 70, 68
2, 54044, Note_off_c, 0, 70, 65
2, 54048, Note_on_c, 0, 71, 68
2, 54140, Note_off_c, 0, 71, 65
2, 54240, Note_on_c, 0, 86, 73
2, 54332, Note_off_c, 0, 86, 65
2, 54336, Note_on_c, 0, 85, 72
2, 54428, Note_off_c, 0, 85, 65
2, 54432, Note_on_c, 0, 86, 73
2, 54524, Note_off_c, 0, 86, 65
2, 54528, Note_on_c, 0, 85, 72
2, 54620, Note_off_c, 0, 85, 65
2, 54624, Note_on_c, 0, 86, 73
2, 54716, Note_off_c, 0, 86, 65
2, 54720, Note_on_c, 0, 69, 68
2, 55292, Note_off_c, 0, 69, 65
2, 55296, Note_on_c, 0, 76, 68
2, 55342, Note_off_c, 0, 76, 65
2, 55344, Note_on_c, 0, 78, 68
2, 55390, Note_off_c, 0, 78, 65
2, 55392, Note_on_c, 0, 76, 68
2, 55438, Note_off_c, 0, 76, 65
2, 55440, Note_on_c, 0, 78, 68
2, 55486, Note_off_c, 0, 78, 65
2, 55488, Note_on_c, 0, 76, 68
2, 55534, Note_off_c, 0, 76, 65
2, 55536, Note_on_c, 0, 78, 68
2, 55582, Note_off_c, 0, 78, 65
2, 55584, Note_on_c, 0, 76, 68
2, 55630, Note_off_c, 0, 76, 65
2, 55632, Note_on_c, 0, 78, 68
2, 55678, Note_off_c, 0, 78, 65
2, 55680, Note_on_c, 0, 76, 68
2, 55726, Note_off_c, 0, 76, 65
2, 55728, Note_on_c, 0, 78, 68
2, 55774, Note_off_c, 0, 78, 65
2, 55776, Note_on_c, 0, 74, 68
2, 55822, Note_off_c, 0, 74, 65
2, 55824, Note_on_c, 0, 76, 68
2, 55870, Note_off_c, 0, 76, 65
2, 55872, Note_on_c, 0, 74, 68
2, 55964, Note_off_c, 0, 74, 65
2, 56064, Note_on_c, 0, 76, 68
2, 56156, Note_off_c, 0, 76, 65
2, 56256, Note_on_c, 0, 78, 68
2, 56348, Note_off_c, 0, 78, 65
2, 56448, Note_on_c, 0, 79, 69
2, 56540, Note_off_c, 0, 79, 65
2, 56640, Note_on_c, 0, 81, 70
2, 56732, Note_off_c, 0, 81, 65
2, 56832, Note_on_c, 0, 83, 71
2, 56924, Note_off_c, 0, 83, 65
2, 57024, Note_on_c, 0, 81, 71
2, 57788, Note_off_c, 0, 81, 65
2, 57792, Note_on_c, 0, 79, 69
2, 57980, Note_off_c, 0, 79, 65
2, 57984, Note_on_c, 0, 76, 68
2, 58172, Note_off_c, 0, 76, 65
2, 58176, Note_on_c, 0, 74, 68
2, 58268, Note_off_c, 0, 74, 65
2, 58368, Note_on_c, 0, 76, 68
2, 58460, Note_off_c, 0, 76, 65
2, 58560, Note_on_c, 0, 78, 68
2, 58652, Note_off_c, 0, 78, 65
2, 58752, Note_on_c, 0, 79, 69
2, 58844, Note_off_c, 0, 79, 65
2, 58944, Note_on_c, 0, 81, 70
2, 59036, Note_off_c, 0, 81, 65
2, 59136, Note_on_c, 0, 83, 71
2, 59228, Note_off_c, 0, 83, 65
2, 59328, Note_on_c, 0, 81, 70
2, 60092, Note_off_c, 0, 81, 65
2, 60096, Note_on_c, 0, 79, 69
2, 60284, Note_off_c, 0, 79, 65
2, 60288, Note_on_c, 0, 76, 68
2, 60476, Note_off_c, 0, 76, 65
2, 60480, Note_on_c, 0, 74, 68
2, 60572, Note_off_c, 0, 74, 65
2, 60672, Note_on_c, 0, 78, 68
2, 60860, Note_off_c, 0, 78, 65
2, 60864, Note_on_c, 0, 74, 68
2, 61052, Note_off_c, 0, 74, 65
2, 61056, Note_on_c, 0, 81, 70
2, 61244, Note_off_c, 0, 81, 65
2, 61824, Note_on_c, 0, 78, 68
2, 62012, Note_off_c, 0, 78, 65
2, 62016, Note_on_c, 0, 74, 68
2, 62204, Note_off_c, 0, 74, 65
2, 62208, Note_on_c, 0, 81, 70
2, 62300, Note_off_c, 0, 81, 65
2, 62976, Note_on_c, 0, 81, 70
2, 63068, Note_off_c, 0, 81, 65
2, 63168, Note_on_c, 0, 81, 70
2, 63260, Note_off_c, 0, 81, 65
2, 63360, Note_on_c, 0, 81, 70
2, 63452, Note_off_c, 0, 81, 65
2, 63552, Note_on_c, 0, 81, 70
2, 63644, Note_off_c, 0, 81, 65
2, 63744, Note_on_c, 0, 81, 70
2, 63836, Note_off_c, 0, 81, 65
2, 63936, Note_on_c, 0, 85, 72
2, 64508, Note_off_c, 0, 85, 65
2, 64512, Note_on_c, 0, 86, 73
2, 64700, Note_off_c, 0, 86, 65
2, 65088, Note_on_c, 0, 73, 68
2, 65660, Note_off_c, 0, 73, 65
2, 65664, Note_on_c, 0, 74, 68
2, 65852, Note_off_c, 0, 74, 65
2, 66240, Note_on_c, 0, 61, 74
2, 66812, Note_off_c, 0, 61, 65
2, 66816, Note_on_c, 0, 62, 72
2, 67004, Note_off_c, 0, 62, 65
2, 67584, Note_on_c, 0, 61, 70
2, 67772, Note_off_c, 0, 61, 65
2, 67776, Note_on_c, 0, 62, 69
2, 67964, Note_off_c, 0, 62, 65
2, 67968, Note_on_c, 0, 66, 68
2, 68156, Note_off_c, 0, 66, 65
2, 68736, Note_on_c, 0, 61, 76
2, 68924, Note_off_c, 0, 61, 65
2, 68928, Note_on_c, 0, 62, 74
2, 69116, Note_off_c, 0, 62, 65
2, 69120, Note_on_c, 0, 69, 72
2, 69308, Note_off_c, 0, 69, 65
2, 69888, Note_on_c, 0, 61, 70
2, 70076, Note_off_c, 0, 61, 65
2, 70080, Note_on_c, 0, 62, 69
2, 70268, Note_off_c, 0, 62, 65
2, 70272, Note_on_c, 0, 64, 68
2, 70460, Note_off_c, 0, 64, 65
2, 70464, Note_on_c, 0, 66, 68
2, 70652, Note_off_c, 0, 66, 65
2, 70656, Note_on_c, 0, 67, 68
2, 70844, Note_off_c, 0, 67, 65
2, 70848, Note_on_c, 0, 68, 68
2, 71036, Note_off_c, 0, 68, 65
2, 71040, Note_on_c, 0, 69, 68
2, 71228, Note_off_c, 0, 69, 65
2, 71232, Note_on_c, 0, 70, 68
2, 71420, Note_off_c, 0, 70, 65
2, 71424, Note_on_c, 0, 71, 68
2, 71612, Note_off_c, 0, 71, 65
2, 71616, Note_on_c, 0, 72, 68
2, 71804, Note_off_c, 0, 72, 65
2, 71808, Note_on_c, 0, 73, 68
2, 71996, Note_off_c, 0, 73, 65
2, 72000, Note_on_c, 0, 62, 73
2, 72044, Note_off_c, 0, 62, 65
2, 72048, Note_on_c, 0, 74, 68
2, 72380, Note_off_c, 0, 74, 65
2, 72384, Note_on_c, 0, 72, 68
2, 72476, Note_off_c, 0, 72, 65
2, 72480, Note_on_c, 0, 69, 68
2, 72572, Note_off_c, 0, 69, 65
2, 72576, Note_on_c, 0, 69, 73
2, 72620, Note_off_c, 0, 69, 65
2, 72624, Note_on_c, 0, 67, 68
2, 72668, Note_off_c, 0, 67, 65
2, 72768, Note_on_c, 0, 67, 68
2, 72860, Note_off_c, 0, 67, 65
2, 72960, Note_on_c, 0, 67, 68
2, 73052, Note_off_c, 0, 67, 65
2, 73152, Note_on_c, 0, 64, 73
2, 73196, Note_off_c, 0, 64, 65
2, 73200, Note_on_c, 0, 76, 68
2, 73532, Note_off_c, 0, 76, 65
2, 73536, Note_on_c, 0, 72, 68
2, 73628, Note_off_c, 0, 72, 65
2, 73632, Note_on_c, 0, 69, 68
2, 73724, Note_off_c, 0, 69, 65
2, 73728, Note_on_c, 0, 67, 73
2, 73772, Note_off_c, 0, 67, 65
2, 73776, Note_on_c, 0, 66, 68
2, 73820, Note_off_c, 0, 66, 65
2, 73920, Note_on_c, 0, 66, 68
2, 74012, Note_off_c, 0, 66, 65
2, 74112, Note_on_c, 0, 66, 68
2, 74204, Note_off_c, 0, 66, 65
2, 74304, Note_on_c, 0, 67, 68
2, 74492, Note_off_c, 0, 67, 65
2, 74496, Note_on_c, 0, 62, 68
2, 74684, Note_off_c, 0, 62, 65
2, 74688, Note_on_c, 0, 71, 68
2, 74876, Note_off_c, 0, 71, 65
2, 74880, Note_on_c, 0, 69, 68
2, 75068, Note_off_c, 0, 69, 65
2, 75072, Note_on_c, 0, 62, 68
2, 75260, Note_off_c, 0, 62, 65
2, 75264, Note_on_c, 0, 72, 68
2, 75452, Note_off_c, 0, 72, 65
2, 75456, Note_on_c, 0, 71, 68
2, 75644, Note_off_c, 0, 71, 65
2, 75648, Note_on_c, 0, 62, 68
2, 75836, Note_off_c, 0, 62, 65
2, 75840, Note_on_c, 0, 74, 68
2, 76028, Note_off_c, 0, 74, 65
2, 76032, Note_on_c, 0, 71, 68
2, 76412, Note_off_c, 0, 71, 65
2, 76416, Note_on_c, 0, 69, 68
2, 76604, Note_off_c, 0, 69, 65
2, 81216, Note_on_c, 0, 71, 68
2, 81980, Note_off_c, 0, 71, 65
2, 81984, Note_on_c, 0, 76, 68
2, 82172, Note_off_c, 0, 76, 65
2, 82176, Note_on_c, 0, 79, 68
2, 82364, Note_off_c, 0, 79, 65
2, 82368, Note_on_c, 0, 79, 68
2, 82556, Note_off_c, 0, 79, 65
2, 82560, Note_on_c, 0, 78, 68
2, 82748, Note_off_c, 0, 78, 65
2, 82752, Note_on_c, 0, 78, 68
2, 82844, Note_off_c, 0, 78, 65
2, 82944, Note_on_c, 0, 78, 68
2, 82988, Note_off_c, 0, 78, 65
2, 82992, Note_on_c, 0, 79, 68
2, 83036, Note_off_c, 0, 79, 65
2, 83040, Note_on_c, 0, 76, 68
2, 83084, Note_off_c, 0, 76, 65
2, 83088, Note_on_c, 0, 78, 65
2, 83132, Note_off_c, 0, 78, 64
2, 83520, Note_on_c, 0, 78, 68
2, 84284, Note_off_c, 0, 78, 65
2, 84288, Note_on_c, 0, 83, 68
2, 84476, Note_off_c, 0, 83, 65
2, 84480, Note_on_c, 0, 81, 68
2, 84668, Note_off_c, 0, 81, 65
2, 84672, Note_on_c, 0, 78, 68
2, 84860, Note_off_c, 0, 78, 65
2, 84864, Note_on_c, 0, 79, 68
2, 85052, Note_off_c, 0, 79, 65
2, 85056, Note_on_c, 0, 79, 68
2, 85148, Note_off_c, 0, 79, 65
2, 85248, Note_on_c, 0, 79, 68
2, 85292, Note_off_c, 0, 79, 65
2, 85296, Note_on_c, 0, 81, 68
2, 85340, Note_off_c, 0, 81, 65
2, 85344, Note_on_c, 0, 78, 68
2, 85388, Note_off_c, 0, 78, 65
2, 85392, Note_on_c, 0, 79, 65
2, 85436, Note_off_c, 0, 79, 64
2, 85824, Note_on_c, 0, 79, 68
2, 85868, Note_off_c, 0, 79, 65
2, 85872, Note_on_c, 0, 81, 68
2, 85916, Note_off_c, 0, 81, 65
2, 85920, Note_on_c, 0, 79, 68
2, 85964, Note_off_c, 0, 79, 65
2, 85968, Note_on_c, 0, 81, 68
2, 86012, Note_off_c, 0, 81, 65
2, 86016, Note_on_c, 0, 78, 68
2, 86060, Note_off_c, 0, 78, 65
2, 86064, Note_on_c, 0, 79, 68
2, 86108, Note_off_c, 0, 79, 65
2, 86112, Note_on_c, 0, 78, 68
2, 86204, Note_off_c, 0, 78, 65
2, 86208, Note_on_c, 0, 79, 68
2, 86396, Note_off_c, 0, 79, 65
2, 86398, Control_c, 0, 1, 55
2, 86400, Note_on_c, 0, 79, 68
2, 86780, Note_off_c, 0, 79, 65
2, 86784, Note_on_c, 0, 79, 68
2, 86972, Note_off_c, 0, 79, 65
2, 86976, Note_on_c, 0, 79, 68
2, 87548, Note_off_c, 0, 79, 65
2, 87552, Note_on_c, 0, 84, 72
2, 87740, Note_off_c, 0, 84, 65
2, 88128, Note_on_c, 0, 79, 69
2, 88172, Note_off_c, 0, 79, 65
2, 88176, Note_on_c, 0, 81, 70
2, 88220, Note_off_c, 0, 81, 65
2, 88224, Note_on_c, 0, 79, 69
2, 88268, Note_off_c, 0, 79, 65
2, 88272, Note_on_c, 0, 81, 70
2, 88316, Note_off_c, 0, 81, 65
2, 88320, Note_on_c, 0, 78, 68
2, 88364, Note_off_c, 0, 78, 65
2, 88368, Note_on_c, 0, 79, 69
2, 88412, Note_off_c, 0, 79, 65
2, 88416, Note_on_c, 0, 78, 68
2, 88508, Note_off_c, 0, 78, 65
2, 88512, Note_on_c, 0, 76, 68
2, 88700, Note_off_c, 0, 76, 65
2, 88704, Note_on_c, 0, 76, 68
2, 89084, Note_off_c, 0, 76, 65
2, 89088, Note_on_c, 0, 76, 68
2, 89276, Note_off_c, 0, 76, 65
2, 89280, Note_on_c, 0, 82, 71
2, 89852, Note_off_c, 0, 82, 65
2, 89856, Note_on_c, 0, 83, 71
2, 90044, Note_off_c, 0, 83, 65
2, 90432, Note_on_c, 0, 58, 71
2, 91004, Note_off_c, 0, 58, 65
2, 91008, Note_on_c, 0, 59, 71
2, 91196, Note_off_c, 0, 59, 65
2, 91584, Note_on_c, 0, 71, 68
2, 91676, Note_off_c, 0, 71, 65
2, 91680, Note_on_c, 0, 83, 71
2, 91772, Note_off_c, 0, 83, 65
2, 91776, Note_on_c, 0, 82, 70
2, 91868, Note_off_c, 0, 82, 65
2, 91872, Note_on_c, 0, 83, 71
2, 91964, Note_off_c, 0, 83, 65
2, 91968, Note_on_c, 0, 82, 70
2, 92060, Note_off_c, 0, 82, 65
2, 92064, Note_on_c, 0, 83, 71
2, 92156, Note_off_c, 0, 83, 65
2, 92160, Note_on_c, 0, 71, 68
2, 92252, Note_off_c, 0, 71, 65
2, 92256, Note_on_c, 0, 81, 70
2, 92348, Note_off_c, 0, 81, 65
2, 92352, Note_on_c, 0, 80, 69
2, 92444, Note_off_c, 0, 80, 65
2, 92448, Note_on_c, 0, 81, 70
2, 92540, Note_off_c, 0, 81, 65
2, 92544, Note_on_c, 0, 80, 69
2, 92636, Note_off_c, 0, 80, 65
2, 92640, Note_on_c, 0, 81, 70
2, 92732, Note_off_c, 0, 81, 65
2, 92736, Note_on_c, 0, 79, 69
2, 92828, Note_off_c, 0, 79, 65
2, 92832, Note_on_c, 0, 83, 71
2, 92924, Note_off_c, 0, 83, 65
2, 92928, Note_on_c, 0, 81, 70
2, 93020, Note_off_c, 0, 81, 65
2, 93024, Note_on_c, 0, 79, 69
2, 93116, Note_off_c, 0, 79, 65
2, 93120, Note_on_c, 0, 78, 68
2, 93212, Note_off_c, 0, 78, 65
2, 93216, Note_on_c, 0, 76, 68
2, 93308, Note_off_c, 0, 76, 65
2, 93312, Note_on_c, 0, 75, 68
2, 93404, Note_off_c, 0, 75, 65
2, 93408, Note_on_c, 0, 72, 68
2, 93500, Note_off_c, 0, 72, 65
2, 93504, Note_on_c, 0, 71, 68
2, 93596, Note_off_c, 0, 71, 65
2, 93600, Note_on_c, 0, 69, 68
2, 93692, Note_off_c, 0, 69, 65
2, 93696, Note_on_c, 0, 67, 68
2, 93788, Note_off_c, 0, 67, 65
2, 93792, Note_on_c, 0, 66, 68
2, 93884, Note_off_c, 0, 66, 65
2, 93888, Note_on_c, 0, 67, 68
2, 93980, Note_off_c, 0, 67, 65
2, 93984, Note_on_c, 0, 71, 68
2, 94076, Note_off_c, 0, 71, 65
2, 94080, Note_on_c, 0, 69, 68
2, 94172, Note_off_c, 0, 69, 65
2, 94176, Note_on_c, 0, 67, 68
2, 94268, Note_off_c, 0, 67, 65
2, 94272, Note_on_c, 0, 66, 68
2, 94364, Note_off_c, 0, 66, 65
2, 94368, Note_on_c, 0, 64, 68
2, 94460, Note_off_c, 0, 64, 65
2, 94464, Note_on_c, 0, 72, 68
2, 94556, Note_off_c, 0, 72, 65
2, 94560, Note_on_c, 0, 71, 68
2, 94652, Note_off_c, 0, 71, 65
2, 94656, Note_on_c, 0, 69, 68
2, 94748, Note_off_c, 0, 69, 65
2, 94752, Note_on_c, 0, 67, 68
2, 94844, Note_off_c, 0, 67, 65
2, 94848, Note_on_c, 0, 66, 68
2, 94940, Note_off_c, 0, 66, 65
2, 94944, Note_on_c, 0, 64, 68
2, 95036, Note_off_c, 0, 64, 65
2, 95040, Note_on_c, 0, 63, 68
2, 95132, Note_off_c, 0, 63, 65
2, 95136, Note_on_c, 0, 64, 68
2, 95228, Note_off_c, 0, 64, 65
2, 95232, Note_on_c, 0, 66, 68
2, 95324, Note_off_c, 0, 66, 65
2, 95328, Note_on_c, 0, 67, 68
2, 95420, Note_off_c, 0, 67, 65
2, 95424, Note_on_c, 0, 66, 68
2, 95516, Note_off_c, 0, 66, 65
2, 95520, Note_on_c, 0, 67, 68
2, 95612, Note_off_c, 0, 67, 65
2, 95616, Note_on_c, 0, 66, 68
2, 95804, Note_off_c, 0, 66, 65
2, 96192, Note_on_c, 0, 71, 68
2, 96284, Note_off_c, 0, 71, 65
2, 96288, Note_on_c, 0, 83, 71
2, 96380, Note_off_c, 0, 83, 65
2, 96384, Note_on_c, 0, 82, 70
2, 96476, Note_off_c, 0, 82, 65
2, 96480, Note_on_c, 0, 83, 71
2, 96572, Note_off_c, 0, 83, 65
2, 96576, Note_on_c, 0, 82, 70
2, 96668, Note_off_c, 0, 82, 65
2, 96672, Note_on_c, 0, 83, 71
2, 96764, Note_off_c, 0, 83, 65
2, 96768, Note_on_c, 0, 71, 68
2, 96860, Note_off_c, 0, 71, 65
2, 96864, Note_on_c, 0, 81, 70
2, 96956, Note_off_c, 0, 81, 65
2, 96960, Note_on_c, 0, 80, 69
2, 97052, Note_off_c, 0, 80, 65
2, 97056, Note_on_c, 0, 81, 70
2, 97148, Note_off_c, 0, 81, 65
2, 97152, Note_on_c, 0, 80, 69
2, 97244, Note_off_c, 0, 80, 65
2, 97248, Note_on_c, 0, 81, 70
2, 97340, Note_off_c, 0, 81, 65
2, 97344, Note_on_c, 0, 79, 69
2, 97436, Note_off_c, 0, 79, 65
2, 97440, Note_on_c, 0, 83, 71
2, 97532, Note_off_c, 0, 83, 65
2, 97536, Note_on_c, 0, 81, 70
2, 97628, Note_off_c, 0, 81, 65
2, 97632, Note_on_c, 0, 79, 69
2, 97724, Note_off_c, 0, 79, 65
2, 97728, Note_on_c, 0, 78, 68
2, 97820, Note_off_c, 0, 78, 65
2, 97824, Note_on_c, 0, 76, 68
2, 97916, Note_off_c, 0, 76, 65
2, 97920, Note_on_c, 0, 75, 68
2, 98012, Note_off_c, 0, 75, 65
2, 98016, Note_on_c, 0, 72, 68
2, 98108, Note_off_c, 0, 72, 65
2, 98112, Note_on_c, 0, 71, 68
2, 98204, Note_off_c, 0, 71, 65
2, 98208, Note_on_c, 0, 69, 68
2, 98300, Note_off_c, 0, 69, 65
2, 98304, Note_on_c, 0, 67, 68
2, 98396, Note_off_c, 0, 67, 65
2, 98400, Note_on_c, 0, 66, 68
2, 98492, Note_off_c, 0, 66, 65
2, 98496, Note_on_c, 0, 67, 68
2, 98588, Note_off_c, 0, 67, 65
2, 98592, Note_on_c, 0, 71, 68
2, 98684, Note_off_c, 0, 71, 65
2, 98688, Note_on_c, 0, 69, 68
2, 98780, Note_off_c, 0, 69, 65
2, 98784, Note_on_c, 0, 67, 68
2, 98876, Note_off_c, 0, 67, 65
2, 98880, Note_on_c, 0, 66, 68
2, 98972, Note_off_c, 0, 66, 65
2, 98976, Note_on_c, 0, 64, 68
2, 99068, Note_off_c, 0, 64, 65
2, 99072, Note_on_c, 0, 72, 68
2, 99164, Note_off_c, 0, 72, 65
2, 99168, Note_on_c, 0, 71, 68
2, 99260, Note_off_c, 0, 71, 65
2, 99264, Note_on_c, 0, 69, 68
2, 99356, Note_off_c, 0, 69, 65
2, 99360, Note_on_c, 0, 67, 68
2, 99452, Note_off_c, 0, 67, 65
2, 99456, Note_on_c, 0, 66, 68
2, 99548, Note_off_c, 0, 66, 65
2, 99552, Note_on_c, 0, 64, 68
2, 99644, Note_off_c, 0, 64, 65
2, 99648, Note_on_c, 0, 63, 68
2, 99740, Note_off_c, 0, 63, 65
2, 99840, Note_on_c, 0, 66, 68
2, 100028, Note_off_c, 0, 66, 65
2, 100032, Note_on_c, 0, 67, 68
2, 100220, Note_off_c, 0, 67, 65
2, 100224, Note_on_c, 0, 68, 68
2, 100412, Note_off_c, 0, 68, 65
2, 100416, Note_on_c, 0, 69, 68
2, 100604, Note_off_c, 0, 69, 65
2, 100608, Note_on_c, 0, 70, 68
2, 100796, Note_off_c, 0, 70, 65
2, 100796, Control_c, 0, 1, 55
2, 100800, Note_on_c, 0, 71, 68
2, 101564, Note_off_c, 0, 71, 65
2, 101568, Note_on_c, 0, 76, 68
2, 101756, Note_off_c, 0, 76, 65
2, 101760, Note_on_c, 0, 79, 68
2, 101948, Note_off_c, 0, 79, 65
2, 101952, Note_on_c, 0, 79, 68
2, 102140, Note_off_c, 0, 79, 65
2, 102144, Note_on_c, 0, 78, 68
2, 102332, Note_off_c, 0, 78, 65
2, 102336, Note_on_c, 0, 78, 68
2, 102428, Note_off_c, 0, 78, 65
2, 102528, Note_on_c, 0, 78, 68
2, 102572, Note_off_c, 0, 78, 65
2, 102576, Note_on_c, 0, 79, 68
2, 102620, Note_off_c, 0, 79, 65
2, 102624, Note_on_c, 0, 77, 68
2, 102668, Note_off_c, 0, 77, 65
2, 102672, Note_on_c, 0, 78, 65
2, 102716, Note_off_c, 0, 78, 64
2, 103104, Note_on_c, 0, 78, 68
2, 103868, Note_off_c, 0, 78, 65
2, 103872, Note_on_c, 0, 83, 71
2, 104060, Note_off_c, 0, 83, 65
2, 104064, Note_on_c, 0, 81, 70
2, 104252, Note_off_c, 0, 81, 65
2, 104256, Note_on_c, 0, 78, 68
2, 104444, Note_off_c, 0, 78, 65
2, 104448, Note_on_c, 0, 79, 68
2, 104636, Note_off_c, 0, 79, 65
2, 104640, Note_on_c, 0, 79, 68
2, 104732, Note_off_c, 0, 79, 65
2, 104832, Note_on_c, 0, 79, 69
2, 104876, Note_off_c, 0, 79, 65
2, 104880, Note_on_c, 0, 81, 70
2, 104924, Note_off_c, 0, 81, 65
2, 104928, Note_on_c, 0, 78, 68
2, 104972, Note_off_c, 0, 78, 65
2, 104976, Note_on_c, 0, 79, 69
2, 105020, Note_off_c, 0, 79, 64
2, 105408, Note_on_c, 0, 77, 68
2, 105452, Note_off_c, 0, 77, 65
2, 105456, Note_on_c, 0, 79, 69
2, 105500, Note_off_c, 0, 79, 65
2, 105504, Note_on_c, 0, 77, 68
2, 105548, Note_off_c, 0, 77, 65
2, 105552, Note_on_c, 0, 79, 69
2, 105596, Note_off_c, 0, 79, 65
2, 105600, Note_on_c, 0, 76, 68
2, 105644, Note_off_c, 0, 76, 65
2, 105648, Note_on_c, 0, 77, 68
2, 105692, Note_off_c, 0, 77, 65
2, 105696, Note_on_c, 0, 76, 68
2, 105788, Note_off_c, 0, 76, 65
2, 105792, Note_on_c, 0, 77, 68
2, 105980, Note_off_c, 0, 77, 65
2, 105984, Note_on_c, 0, 77, 68
2, 106364, Note_off_c, 0, 77, 65
2, 106368, Note_on_c, 0, 77, 68
2, 106556, Note_off_c, 0, 77, 65
2, 106560, Note_on_c, 0, 77, 68
2, 107132, Note_off_c, 0, 77, 65
2, 107136, Note_on_c, 0, 84, 72
2, 107324, Note_off_c, 0, 84, 65
2, 107712, Note_on_c, 0, 76, 68
2, 108284, Note_off_c, 0, 76, 65
2, 108288, Note_on_c, 0, 81, 74
2, 108332, Note_off_c, 0, 81, 65
2, 108336, Note_on_c, 0, 78, 68
2, 108572, Note_off_c, 0, 78, 65
2, 108576, Note_on_c, 0, 76, 68
2, 108668, Note_off_c, 0, 76, 65
2, 108672, Note_on_c, 0, 75, 68
2, 108860, Note_off_c, 0, 75, 65
2, 108864, Note_on_c, 0, 75, 68
2, 109436, Note_off_c, 0, 75, 65
2, 109440, Note_on_c, 0, 76, 68
2, 109628, Note_off_c, 0, 76, 65
2, 110016, Note_on_c, 0, 63, 68
2, 110588, Note_off_c, 0, 63, 65
2, 110592, Note_on_c, 0, 64, 68
2, 110780, Note_off_c, 0, 64, 65
2, 111168, Note_on_c, 0, 77, 68
2, 111212, Note_off_c, 0, 77, 65
2, 111216, Note_on_c, 0, 79, 68
2, 111260, Note_off_c, 0, 79, 65
2, 111264, Note_on_c, 0, 77, 68
2, 111308, Note_off_c, 0, 77, 65
2, 111312, Note_on_c, 0, 79, 68
2, 111356, Note_off_c, 0, 79, 65
2, 111360, Note_on_c, 0, 76, 68
2, 111404, Note_off_c, 0, 76, 65
2, 111408, Note_on_c, 0, 77, 68
2, 111452, Note_off_c, 0, 77, 65
2, 111456, Note_on_c, 0, 76, 68
2, 111548, Note_off_c, 0, 76, 65
2, 111552, Note_on_c, 0, 77, 68
2, 111740, Note_off_c, 0, 77, 65
2, 111744, Note_on_c, 0, 77, 68
2, 112128, Note_on_c, 0, 77, 68
2, 112316, Note_off_c, 0, 77, 65
2, 112316, Note_off_c, 0, 77, 65
2, 112320, Note_on_c, 0, 77, 68
2, 112892, Note_off_c, 0, 77, 65
2, 112896, Note_on_c, 0, 84, 72
2, 113084, Note_off_c, 0, 84, 65
2, 113472, Note_on_c, 0, 77, 68
2, 114044, Note_off_c, 0, 77, 65
2, 114048, Note_on_c, 0, 84, 72
2, 114236, Note_off_c, 0, 84, 65
2, 114624, Note_on_c, 0, 76, 83
2, 115196, Note_off_c, 0, 76, 65
2, 115200, Note_on_c, 0, 79, 89
2, 115244, Note_off_c, 0, 79, 65
2, 115248, Note_on_c, 0, 78, 83
2, 115484, Note_off_c, 0, 78, 65
2, 115488, Note_on_c, 0, 76, 83
2, 115580, Note_off_c, 0, 76, 65
2, 115584, Note_on_c, 0, 75, 83
2, 115772, Note_off_c, 0, 75, 65
2, 115776, Note_on_c, 0, 76, 83
2, 115868, Note_off_c, 0, 76, 65
2, 115968, Note_on_c, 0, 79, 83
2, 116156, Note_off_c, 0, 79, 65
2, 116160, Note_on_c, 0, 78, 83
2, 116348, Note_off_c, 0, 78, 65
2, 116352, Note_on_c, 0, 79, 84
2, 116444, Note_off_c, 0, 79, 65
2, 117120, Note_on_c, 0, 77, 83
2, 117308, Note_off_c, 0, 77, 65
2, 117312, Note_on_c, 0, 76, 83
2, 117500, Note_off_c, 0, 76, 65
2, 117504, Note_on_c, 0, 77, 83
2, 117692, Note_off_c, 0, 77, 65
2, 118272, Note_on_c, 0, 76, 83
2, 118460, Note_off_c, 0, 76, 65
2, 118464, Note_on_c, 0, 75, 83
2, 118652, Note_off_c, 0, 75, 65
2, 118656, Note_on_c, 0, 76, 83
2, 118844, Note_off_c, 0, 76, 65
2, 119424, Note_on_c, 0, 74, 83
2, 119612, Note_off_c, 0, 74, 65
2, 119616, Note_on_c, 0, 73, 83
2, 119804, Note_off_c, 0, 73, 65
2, 119808, Note_on_c, 0, 74, 83
2, 119996, Note_off_c, 0, 74, 65
2, 120576, Note_on_c, 0, 71, 83
2, 120764, Note_off_c, 0, 71, 65
2, 120768, Note_on_c, 0, 72, 83
2, 120956, Note_off_c, 0, 72, 65
2, 121152, Note_on_c, 0, 70, 83
2, 121340, Note_off_c, 0, 70, 65
2, 121344, Note_on_c, 0, 71, 83
2, 121532, Note_off_c, 0, 71, 65
2, 121728, Note_on_c, 0, 68, 83
2, 121916, Note_off_c, 0, 68, 65
2, 121920, Note_on_c, 0, 69, 83
2, 122108, Note_off_c, 0, 69, 65
2, 122304, Note_on_c, 0, 69, 83
2, 122492, Note_off_c, 0, 69, 65
2, 122496, Note_on_c, 0, 70, 83
2, 122684, Note_off_c, 0, 70, 65
2, 122686, Control_c, 0, 1, 55
2, 122688, Note_on_c, 0, 71, 83
2, 125180, Note_off_c, 0, 71, 65
2, 125184, Note_on_c, 0, 70, 83
2, 125372, Note_off_c, 0, 70, 65
2, 125376, Note_on_c, 0, 71, 83
2, 125564, Note_off_c, 0, 71, 65
2, 125568, Note_on_c, 0, 75, 68
2, 125756, Note_off_c, 0, 75, 65
2, 125760, Note_on_c, 0, 70, 68
2, 125948, Note_off_c, 0, 70, 65
2, 125952, Note_on_c, 0, 71, 68
2, 126140, Note_off_c, 0, 71, 65
2, 126144, Note_on_c, 0, 78, 68
2, 126332, Note_off_c, 0, 78, 65
2, 126336, Note_on_c, 0, 70, 68
2, 126524, Note_off_c, 0, 70, 65
2, 126528, Note_on_c, 0, 71, 68
2, 126716, Note_off_c, 0, 71, 65
2, 126720, Note_on_c, 0, 84, 72
2, 126812, Note_off_c, 0, 84, 65
2, 126816, Note_on_c, 0, 83, 71
2, 126908, Note_off_c, 0, 83, 65
2, 126912, Note_on_c, 0, 81, 70
2, 127004, Note_off_c, 0, 81, 65
2, 127008, Note_on_c, 0, 78, 68
2, 127100, Note_off_c, 0, 78, 65
2, 127104, Note_on_c, 0, 75, 68
2, 127196, Note_off_c, 0, 75, 65
2, 127200, Note_on_c, 0, 78, 68
2, 127292, Note_off_c, 0, 78, 65
2, 127296, Note_on_c, 0, 72, 68
2, 127388, Note_off_c, 0, 72, 65
2, 127392, Note_on_c, 0, 71, 68
2, 127484, Note_off_c, 0, 71, 65
2, 127488, Note_on_c, 0, 69, 68
2, 127580, Note_off_c, 0, 69, 65
2, 127584, Note_on_c, 0, 66, 68
2, 127676, Note_off_c, 0, 66, 65
2, 127680, Note_on_c, 0, 63, 68
2, 127772, Note_off_c, 0, 63, 65
2, 127776, Note_on_c, 0, 66, 68
2, 127868, Note_off_c, 0, 66, 65
2, 127872, Note_on_c, 0, 60, 68
2, 127964, Note_off_c, 0, 60, 65
2, 127968, Note_on_c, 0, 59, 68
2, 128060, Note_off_c, 0, 59, 65
2, 128064, Note_on_c, 0, 58, 68
2, 128156, Note_off_c, 0, 58, 65
2, 128160, Note_on_c, 0, 59, 68
2, 128252, Note_off_c, 0, 59, 65
2, 128256, Note_on_c, 0, 61, 68
2, 128348, Note_off_c, 0, 61, 65
2, 128352, Note_on_c, 0, 63, 68
2, 128444, Note_off_c, 0, 63, 65
2, 128448, Note_on_c, 0, 64, 68
2, 128540, Note_off_c, 0, 64, 65
2, 128544, Note_on_c, 0, 66, 68
2, 128636, Note_off_c, 0, 66, 65
2, 128640, Note_on_c, 0, 67, 68
2, 128732, Note_off_c, 0, 67, 65
2, 128736, Note_on_c, 0, 68, 68
2, 128828, Note_off_c, 0, 68, 65
2, 128832, Note_on_c, 0, 69, 68
2, 128924, Note_off_c, 0, 69, 65
2, 128928, Note_on_c, 0, 70, 68
2, 129020, Note_off_c, 0, 70, 65
2, 129024, Note_on_c, 0, 71, 68
2, 129068, Note_off_c, 0, 71, 65
2, 129072, Note_on_c, 0, 72, 68
2, 129116, Note_off_c, 0, 72, 65
2, 129120, Note_on_c, 0, 71, 68
2, 129164, Note_off_c, 0, 71, 65
2, 129168, Note_on_c, 0, 72, 68
2, 129212, Note_off_c, 0, 72, 65
2, 129216, Note_on_c, 0, 71, 68
2, 129260, Note_off_c, 0, 71, 65
2, 129264, Note_on_c, 0, 72, 68
2, 129308, Note_off_c, 0, 72, 65
2, 129312, Note_on_c, 0, 71, 68
2, 129356, Note_off_c, 0, 71, 65
2, 129360, Note_on_c, 0, 72, 68
2, 129404, Note_off_c, 0, 72, 65
2, 129408, Note_on_c, 0, 71, 68
2, 129452, Note_off_c, 0, 71, 65
2, 129456, Note_on_c, 0, 72, 68
2, 129500, Note_off_c, 0, 72, 65
2, 129504, Note_on_c, 0, 71, 68
2, 129548, Note_off_c, 0, 71, 65
2, 129552, Note_on_c, 0, 72, 68
2, 129596, Note_off_c, 0, 72, 65
2, 129600, Note_on_c, 0, 72, 68
2, 129644, Note_off_c, 0, 72, 65
2, 129648, Note_on_c, 0, 74, 68
2, 129692, Note_off_c, 0, 74, 65
2, 129696, Note_on_c, 0, 72, 68
2, 129740, Note_off_c, 0, 72, 65
2, 129744, Note_on_c, 0, 74, 68
2, 129788, Note_off_c, 0, 74, 65
2, 129792, Note_on_c, 0, 72, 68
2, 129836, Note_off_c, 0, 72, 65
2, 129840, Note_on_c, 0, 74, 68
2, 129884, Note_off_c, 0, 74, 65
2, 129888, Note_on_c, 0, 72, 68
2, 129932, Note_off_c, 0, 72, 65
2, 129936, Note_on_c, 0, 74, 68
2, 129980, Note_off_c, 0, 74, 65
2, 129984, Note_on_c, 0, 72, 68
2, 130028, Note_off_c, 0, 72, 65
2, 130032, Note_on_c, 0, 74, 68
2, 130076, Note_off_c, 0, 74, 65
2, 130080, Note_on_c, 0, 72, 68
2, 130124, Note_off_c, 0, 72, 65
2, 130128, Note_on_c, 0, 74, 68
2, 130172, Note_off_c, 0, 74, 65
2, 130176, Note_on_c, 0, 73, 68
2, 130220, Note_off_c, 0, 73, 65
2, 130224, Note_on_c, 0, 74, 68
2, 130268, Note_off_c, 0, 74, 65
2, 130272, Note_on_c, 0, 73, 68
2, 130316, Note_off_c, 0, 73, 65
2, 130320, Note_on_c, 0, 74, 68
2, 130364, Note_off_c, 0, 74, 65
2, 130368, Note_on_c, 0, 73, 68
2, 130412, Note_off_c, 0, 73, 65
2, 130416, Note_on_c, 0, 74, 68
2, 130460, Note_off_c, 0, 74, 65
2, 130464, Note_on_c, 0, 73, 68
2, 130508, Note_off_c, 0, 73, 65
2, 130512, Note_on_c, 0, 74, 68
2, 130556, Note_off_c, 0, 74, 65
2, 130560, Note_on_c, 0, 73, 68
2, 130604, Note_off_c, 0, 73, 65
2, 130608, Note_on_c, 0, 74, 68
2, 130652, Note_off_c, 0, 74, 65
2, 130656, Note_on_c, 0, 73, 68
2, 130700, Note_off_c, 0, 73, 65
2, 130704, Note_on_c, 0, 74, 68
2, 130748, Note_off_c, 0, 74, 65
2, 130752, Note_on_c, 0, 73, 68
2, 130796, Note_off_c, 0, 73, 65
2, 130800, Note_on_c, 0, 74, 68
2, 130844, Note_off_c, 0, 74, 65
2, 130848, Note_on_c, 0, 73, 68
2, 130892, Note_off_c, 0, 73, 65
2, 130896, Note_on_c, 0, 74, 68
2, 130940, Note_off_c, 0, 74, 65
2, 130944, Note_on_c, 0, 73, 68
2, 130988, Note_off_c, 0, 73, 65
2, 130992, Note_on_c, 0, 74, 68
2, 131036, Note_off_c, 0, 74, 65
2, 131040, Note_on_c, 0, 73, 68
2, 131084, Note_off_c, 0, 73, 65
2, 131088, Note_on_c, 0, 74, 68
2, 131132, Note_off_c, 0, 74, 65
2, 131136, Note_on_c, 0, 71, 68
2, 131228, Note_off_c, 0, 71, 65
2, 131232, Note_on_c, 0, 73, 68
2, 131324, Note_off_c, 0, 73, 65
2, 131328, Note_on_c, 0, 62, 73
2, 131372, Note_off_c, 0, 62, 65
2, 131376, Note_on_c, 0, 74, 68
2, 131708, Note_off_c, 0, 74, 65
2, 131712, Note_on_c, 0, 72, 68
2, 131804, Note_off_c, 0, 72, 65
2, 131808, Note_on_c, 0, 69, 68
2, 131900, Note_off_c, 0, 69, 65
2, 131904, Note_on_c, 0, 69, 73
2, 131948, Note_off_c, 0, 69, 65
2, 131952, Note_on_c, 0, 67, 68
2, 132092, Note_off_c, 0, 67, 65
2, 132096, Note_on_c, 0, 67, 68
2, 132284, Note_off_c, 0, 67, 65
2, 132288, Note_on_c, 0, 67, 68
2, 132476, Note_off_c, 0, 67, 65
2, 132480, Note_on_c, 0, 64, 73
2, 132524, Note_off_c, 0, 64, 65
2, 132528, Note_on_c, 0, 76, 68
2, 132860, Note_off_c, 0, 76, 65
2, 132864, Note_on_c, 0, 72, 68
2, 132956, Note_off_c, 0, 72, 65
2, 132960, Note_on_c, 0, 69, 68
2, 133052, Note_off_c, 0, 69, 65
2, 133056, Note_on_c, 0, 67, 73
2, 133100, Note_off_c, 0, 67, 65
2, 133104, Note_on_c, 0, 66, 68
2, 133244, Note_off_c, 0, 66, 65
2, 133248, Note_on_c, 0, 66, 68
2, 133436, Note_off_c, 0, 66, 65
2, 133440, Note_on_c, 0, 66, 68
2, 133628, Note_off_c, 0, 66, 65
2, 133632, Note_on_c, 0, 67, 68
2, 133820, Note_off_c, 0, 67, 65
2, 133824, Note_on_c, 0, 62, 68
2, 134012, Note_off_c, 0, 62, 65
2, 134016, Note_on_c, 0, 71, 68
2, 134204, Note_off_c, 0, 71, 65
2, 134208, Note_on_c, 0, 69, 68
2, 134396, Note_off_c, 0, 69, 65
2, 134400, Note_on_c, 0, 62, 68
2, 134588, Note_off_c, 0, 62, 65
2, 134592, Note_on_c, 0, 72, 68
2, 134780, Note_off_c, 0, 72, 65
2, 134784, Note_on_c, 0, 71, 68
2, 134972, Note_off_c, 0, 71, 65
2, 134976, Note_on_c, 0, 62, 68
2, 135164, Note_off_c, 0, 62, 65
2, 135168, Note_on_c, 0, 74, 68
2, 135356, Note_off_c, 0, 74, 65
2, 135360, Note_on_c, 0, 71, 68
2, 135740, Note_off_c, 0, 71, 65
2, 135744, Note_on_c, 0, 69, 68
2, 135932, Note_off_c, 0, 69, 65
2, 135936, Note_on_c, 0, 73, 68
2, 136028, Note_off_c, 0, 73, 65
2, 136032, Note_on_c, 0, 74, 68
2, 136124, Note_off_c, 0, 74, 65
2, 136128, Note_on_c, 0, 73, 68
2, 136220, Note_off_c, 0, 73, 65
2, 136224, Note_on_c, 0, 74, 68
2, 136316, Note_off_c, 0, 74, 65
2, 136320, Note_on_c, 0, 72, 68
2, 136412, Note_off_c, 0, 72, 65
2, 136416, Note_on_c, 0, 69, 68
2, 136508, Note_off_c, 0, 69, 65
2, 136512, Note_on_c, 0, 69, 73
2, 136556, Note_off_c, 0, 69, 65
2, 136560, Note_on_c, 0, 67, 68
2, 136700, Note_off_c, 0, 67, 65
2, 136704, Note_on_c, 0, 67, 68
2, 136892, Note_off_c, 0, 67, 65
2, 136896, Note_on_c, 0, 67, 68
2, 137084, Note_off_c, 0, 67, 65
2, 137088, Note_on_c, 0, 75, 68
2, 137180, Note_off_c, 0, 75, 65
2, 137184, Note_on_c, 0, 76, 68
2, 137276, Note_off_c, 0, 76, 65
2, 137280, Note_on_c, 0, 75, 68
2, 137372, Note_off_c, 0, 75, 65
2, 137376, Note_on_c, 0, 76, 68
2, 137468, Note_off_c, 0, 76, 65
2, 137472, Note_on_c, 0, 72, 68
2, 137564, Note_off_c, 0, 72, 65
2, 137568, Note_on_c, 0, 69, 68
2, 137660, Note_off_c, 0, 69, 65
2, 137664, Note_on_c, 0, 67, 73
2, 137708, Note_off_c, 0, 67, 65
2, 137712, Note_on_c, 0, 66, 68
2, 137852, Note_off_c, 0, 66, 65
2, 137856, Note_on_c, 0, 66, 68
2, 138044, Note_off_c, 0, 66, 65
2, 138048, Note_on_c, 0, 66, 68
2, 138236, Note_off_c, 0, 66, 65
2, 138240, Note_on_c, 0, 67, 68
2, 138428, Note_off_c, 0, 67, 65
2, 138432, Note_on_c, 0, 71, 68
2, 138620, Note_off_c, 0, 71, 65
2, 138624, Note_on_c, 0, 74, 68
2, 138812, Note_off_c, 0, 74, 65
2, 138816, Note_on_c, 0, 76, 68
2, 139004, Note_off_c, 0, 76, 65
2, 139008, Note_on_c, 0, 79, 68
2, 139196, Note_off_c, 0, 79, 65
2, 139200, Note_on_c, 0, 72, 68
2, 139388, Note_off_c, 0, 72, 65
2, 139392, Note_on_c, 0, 71, 68
2, 139580, Note_off_c, 0, 71, 65
2, 139584, Note_on_c, 0, 72, 68
2, 139772, Note_off_c, 0, 72, 65
2, 139776, Note_on_c, 0, 69, 68
2, 139964, Note_off_c, 0, 69, 65
2, 139968, Note_on_c, 0, 67, 73
2, 140012, Note_off_c, 0, 67, 65
2, 140016, Note_on_c, 0, 69, 73
2, 140060, Note_off_c, 0, 69, 65
2, 140064, Note_on_c, 0, 66, 68
2, 140156, Note_off_c, 0, 66, 65
2, 140160, Note_on_c, 0, 67, 68
2, 140252, Note_off_c, 0, 67, 65
2, 140256, Note_on_c, 0, 69, 68
2, 140348, Note_off_c, 0, 69, 65
2, 140352, Note_on_c, 0, 71, 68
2, 140444, Note_off_c, 0, 71, 65
2, 140448, Note_on_c, 0, 72, 68
2, 140540, Note_off_c, 0, 72, 65
2, 140544, Note_on_c, 0, 74, 68
2, 140732, Note_off_c, 0, 74, 65
2, 140736, Note_on_c, 0, 78, 68
2, 140924, Note_off_c, 0, 78, 65
2, 140928, Note_on_c, 0, 79, 68
2, 141116, Note_off_c, 0, 79, 65
2, 141312, Note_on_c, 0, 78, 68
2, 141500, Note_off_c, 0, 78, 65
2, 141504, Note_on_c, 0, 79, 68
2, 141692, Note_off_c, 0, 79, 65
2, 141888, Note_on_c, 0, 78, 68
2, 142076, Note_off_c, 0, 78, 65
2, 142080, Note_on_c, 0, 79, 68
2, 142268, Note_off_c, 0, 79, 65
2, 142272, Note_on_c, 0, 84, 72
2, 142652, Note_off_c, 0, 84, 65
2, 142656, Note_on_c, 0, 81, 70
2, 142844, Note_off_c, 0, 81, 65
2, 143040, Note_on_c, 0, 80, 69
2, 143228, Note_off_c, 0, 80, 65
2, 143232, Note_on_c, 0, 81, 70
2, 143420, Note_off_c, 0, 81, 65
2, 143616, Note_on_c, 0, 80, 68
2, 143804, Note_off_c, 0, 80, 65
2, 143808, Note_on_c, 0, 81, 68
2, 143996, Note_off_c, 0, 81, 65
2, 144192, Note_on_c, 0, 80, 69
2, 144380, Note_off_c, 0, 80, 65
2, 144384, Note_on_c, 0, 81, 70
2, 144572, Note_off_c, 0, 81, 65
2, 144576, Note_on_c, 0, 86, 73
2, 144956, Note_off_c, 0, 86, 65
2, 144960, Note_on_c, 0, 83, 71
2, 145148, Note_off_c, 0, 83, 65
2, 145152, Note_on_c, 0, 79, 69
2, 145244, Note_off_c, 0, 79, 65
2, 145248, Note_on_c, 0, 78, 68
2, 145340, Note_off_c, 0, 78, 65
2, 145344, Note_on_c, 0, 76, 68
2, 145436, Note_off_c, 0, 76, 65
2, 145440, Note_on_c, 0, 74, 68
2, 145532, Note_off_c, 0, 74, 65
2, 145536, Note_on_c, 0, 72, 68
2, 145628, Note_off_c, 0, 72, 65
2, 145632, Note_on_c, 0, 71, 68
2, 145724, Note_off_c, 0, 71, 65
2, 145728, Note_on_c, 0, 76, 68
2, 145820, Note_off_c, 0, 76, 65
2, 145824, Note_on_c, 0, 74, 68
2, 145916, Note_off_c, 0, 74, 65
2, 145920, Note_on_c, 0, 72, 68
2, 146012, Note_off_c, 0, 72, 65
2, 146016, Note_on_c, 0, 71, 68
2, 146108, Note_off_c, 0, 71, 65
2, 146112, Note_on_c, 0, 69, 68
2, 146204, Note_off_c, 0, 69, 65
2, 146208, Note_on_c, 0, 68, 68
2, 146300, Note_off_c, 0, 68, 65
2, 146304, Note_on_c, 0, 72, 68
2, 146396, Note_off_c, 0, 72, 65
2, 146400, Note_on_c, 0, 71, 68
2, 146492, Note_off_c, 0, 71, 65
2, 146496, Note_on_c, 0, 69, 68
2, 146588, Note_off_c, 0, 69, 65
2, 146592, Note_on_c, 0, 67, 68
2, 146684, Note_off_c, 0, 67, 65
2, 146688, Note_on_c, 0, 66, 68
2, 146780, Note_off_c, 0, 66, 65
2, 146784, Note_on_c, 0, 64, 68
2, 146876, Note_off_c, 0, 64, 65
2, 146880, Note_on_c, 0, 62, 68
2, 146972, Note_off_c, 0, 62, 65
2, 146976, Note_on_c, 0, 66, 68
2, 147068, Note_off_c, 0, 66, 65
2, 147072, Note_on_c, 0, 67, 68
2, 147164, Note_off_c, 0, 67, 65
2, 147168, Note_on_c, 0, 69, 68
2, 147260, Note_off_c, 0, 69, 65
2, 147264, Note_on_c, 0, 71, 68
2, 147356, Note_off_c, 0, 71, 65
2, 147360, Note_on_c, 0, 73, 68
2, 147452, Note_off_c, 0, 73, 65
2, 147456, Note_on_c, 0, 74, 68
2, 147548, Note_off_c, 0, 74, 65
2, 147552, Note_on_c, 0, 73, 68
2, 147644, Note_off_c, 0, 73, 65
2, 147648, Note_on_c, 0, 74, 68
2, 147740, Note_off_c, 0, 74, 65
2, 147744, Note_on_c, 0, 73, 68
2, 147836, Note_off_c, 0, 73, 65
2, 147840, Note_on_c, 0, 74, 68
2, 147932, Note_off_c, 0, 74, 65
2, 147936, Note_on_c, 0, 73, 68
2, 148028, Note_off_c, 0, 73, 65
2, 148032, Note_on_c, 0, 74, 68
2, 148124, Note_off_c, 0, 74, 65
2, 148128, Note_on_c, 0, 73, 68
2, 148220, Note_off_c, 0, 73, 65
2, 148224, Note_on_c, 0, 74, 68
2, 148316, Note_off_c, 0, 74, 65
2, 148320, Note_on_c, 0, 73, 68
2, 148412, Note_off_c, 0, 73, 65
2, 148416, Note_on_c, 0, 74, 68
2, 148508, Note_off_c, 0, 74, 65
2, 148512, Note_on_c, 0, 73, 68
2, 148604, Note_off_c, 0, 73, 65
2, 148608, Note_on_c, 0, 74, 68
2, 148796, Note_off_c, 0, 74, 65
2, 149184, Note_on_c, 0, 81, 70
2, 149184, Note_on_c, 0, 69, 68
2, 149184, Note_on_c, 0, 62, 69
2, 149468, Note_off_c, 0, 81, 65
2, 149468, Note_off_c, 0, 69, 65
2, 149468, Note_off_c, 0, 62, 65
2, 149760, Note_on_c, 0, 86, 73
2, 149760, Note_on_c, 0, 74, 68
2, 149760, Note_on_c, 0, 62, 69
2, 150140, Note_off_c, 0, 86, 65
2, 150140, Note_off_c, 0, 74, 65
2, 150140, Note_off_c, 0, 62, 65
2, 150336, Note_on_c, 0, 62, 69
2, 150336, Note_on_c, 0, 71, 68
2, 150336, Note_on_c, 0, 55, 73
2, 150380, Note_off_c, 0, 62, 65
2, 150380, Note_off_c, 0, 71, 65
2, 150380, Note_off_c, 0, 55, 65
2, 150384, Note_on_c, 0, 74, 68
2, 150716, Note_off_c, 0, 74, 65
2, 150720, Note_on_c, 0, 72, 68
2, 150812, Note_off_c, 0, 72, 65
2, 150816, Note_on_c, 0, 69, 68
2, 150908, Note_off_c, 0, 69, 65
2, 150912, Note_on_c, 0, 69, 73
2, 150956, Note_off_c, 0, 69, 65
2, 150960, Note_on_c, 0, 67, 68
2, 151004, Note_off_c, 0, 67, 65
2, 151104, Note_on_c, 0, 67, 68
2, 151196, Note_off_c, 0, 67, 65
2, 151296, Note_on_c, 0, 67, 68
2, 151388, Note_off_c, 0, 67, 65
2, 151488, Note_on_c, 0, 64, 73
2, 151532, Note_off_c, 0, 64, 65
2, 151536, Note_on_c, 0, 76, 68
2, 151868, Note_off_c, 0, 76, 65
2, 151872, Note_on_c, 0, 72, 68
2, 151964, Note_off_c, 0, 72, 65
2, 151968, Note_on_c, 0, 69, 68
2, 152060, Note_off_c, 0, 69, 65
2, 152064, Note_on_c, 0, 67, 73
2, 152108, Note_off_c, 0, 67, 65
2, 152112, Note_on_c, 0, 66, 68
2, 152156, Note_off_c, 0, 66, 65
2, 152256, Note_on_c, 0, 66, 68
2, 152348, Note_off_c, 0, 66, 65
2, 152448, Note_on_c, 0, 66, 68
2, 152540, Note_off_c, 0, 66, 65
2, 152640, Note_on_c, 0, 67, 68
2, 152828, Note_off_c, 0, 67, 65
2, 152832, Note_on_c, 0, 62, 69
2, 153020, Note_off_c, 0, 62, 65
2, 153024, Note_on_c, 0, 71, 68
2, 153116, Note_off_c, 0, 71, 65
2, 153216, Note_on_c, 0, 69, 68
2, 153404, Note_off_c, 0, 69, 65
2, 153408, Note_on_c, 0, 62, 69
2, 153596, Note_off_c, 0, 62, 65
2, 153600, Note_on_c, 0, 72, 68
2, 153692, Note_off_c, 0, 72, 65
2, 153792, Note_on_c, 0, 71, 68
2, 153980, Note_off_c, 0, 71, 65
2, 153984, Note_on_c, 0, 62, 68
2, 154172, Note_off_c, 0, 62, 65
2, 154176, Note_on_c, 0, 74, 68
2, 154268, Note_off_c, 0, 74, 65
2, 154368, Note_on_c, 0, 71, 68
2, 154748, Note_off_c, 0, 71, 65
2, 154752, Note_on_c, 0, 69, 68
2, 154940, Note_off_c, 0, 69, 65
2, 154944, Note_on_c, 0, 73, 68
2, 155036, Note_off_c, 0, 73, 65
2, 155040, Note_on_c, 0, 74, 68
2, 155132, Note_off_c, 0, 74, 65
2, 155136, Note_on_c, 0, 73, 68
2, 155228, Note_off_c, 0, 73, 65
2, 155232, Note_on_c, 0, 74, 68
2, 155324, Note_off_c, 0, 74, 65
2, 155328, Note_on_c, 0, 73, 68
2, 155420, Note_off_c, 0, 73, 65
2, 155424, Note_on_c, 0, 69, 68
2, 155516, Note_off_c, 0, 69, 65
2, 155520, Note_on_c, 0, 69, 73
2, 155564, Note_off_c, 0, 69, 65
2, 155568, Note_on_c, 0, 67, 68
2, 155612, Note_off_c, 0, 67, 65
2, 155712, Note_on_c, 0, 67, 68
2, 155804, Note_off_c, 0, 67, 65
2, 155904, Note_on_c, 0, 67, 68
2, 155996, Note_off_c, 0, 67, 65
2, 156096, Note_on_c, 0, 75, 68
2, 156188, Note_off_c, 0, 75, 65
2, 156192, Note_on_c, 0, 76, 68
2, 156284, Note_off_c, 0, 76, 65
2, 156288, Note_on_c, 0, 75, 68
2, 156380, Note_off_c, 0, 75, 65
2, 156384, Note_on_c, 0, 76, 68
2, 156476, Note_off_c, 0, 76, 65
2, 156480, Note_on_c, 0, 72, 68
2, 156572, Note_off_c, 0, 72, 65
2, 156576, Note_on_c, 0, 69, 68
2, 156668, Note_off_c, 0, 69, 65
2, 156672, Note_on_c, 0, 67, 73
2, 156716, Note_off_c, 0, 67, 65
2, 156720, Note_on_c, 0, 66, 68
2, 156764, Note_off_c, 0, 66, 65
2, 156864, Note_on_c, 0, 66, 68
2, 156956, Note_off_c, 0, 66, 65
2, 157056, Note_on_c, 0, 66, 68
2, 157148, Note_off_c, 0, 66, 65
2, 157248, Note_on_c, 0, 67, 68
2, 157436, Note_off_c, 0, 67, 65
2, 157440, Note_on_c, 0, 71, 68
2, 157628, Note_off_c, 0, 71, 65
2, 157632, Note_on_c, 0, 74, 68
2, 157724, Note_off_c, 0, 74, 65
2, 157824, Note_on_c, 0, 76, 68
2, 158012, Note_off_c, 0, 76, 65
2, 158016, Note_on_c, 0, 79, 68
2, 158204, Note_off_c, 0, 79, 65
2, 158208, Note_on_c, 0, 72, 68
2, 158300, Note_off_c, 0, 72, 65
2, 158400, Note_on_c, 0, 71, 68
2, 158588, Note_off_c, 0, 71, 65
2, 158592, Note_on_c, 0, 72, 68
2, 158780, Note_off_c, 0, 72, 65
2, 158784, Note_on_c, 0, 69, 68
2, 158876, Note_off_c, 0, 69, 65
2, 158976, Note_on_c, 0, 67, 73
2, 159020, Note_off_c, 0, 67, 65
2, 159024, Note_on_c, 0, 69, 68
2, 159068, Note_off_c, 0, 69, 65
2, 159072, Note_on_c, 0, 66, 68
2, 159164, Note_off_c, 0, 66, 65
2, 159168, Note_on_c, 0, 67, 68
2, 159260, Note_off_c, 0, 67, 65
2, 159264, Note_on_c, 0, 69, 68
2, 159356, Note_off_c, 0, 69, 65
2, 159360, Note_on_c, 0, 71, 68
2, 159452, Note_off_c, 0, 71, 65
2, 159456, Note_on_c, 0, 72, 68
2, 159548, Note_off_c, 0, 72, 65
2, 159552, Note_on_c, 0, 74, 68
2, 159740, Note_off_c, 0, 74, 65
2, 170688, Note_on_c, 0, 74, 68
2, 170780, Note_off_c, 0, 74, 65
2, 171072, Note_on_c, 0, 74, 68
2, 171164, Note_off_c, 0, 74, 65
2, 171456, Note_on_c, 0, 75, 68
2, 171548, Note_off_c, 0, 75, 65
2, 171840, Note_on_c, 0, 75, 68
2, 171932, Note_off_c, 0, 75, 65
2, 172224, Note_on_c, 0, 72, 68
2, 172268, Note_off_c, 0, 72, 65
2, 172272, Note_on_c, 0, 74, 68
2, 172316, Note_off_c, 0, 74, 65
2, 172320, Note_on_c, 0, 72, 68
2, 172364, Note_off_c, 0, 72, 65
2, 172368, Note_on_c, 0, 74, 68
2, 172412, Note_off_c, 0, 74, 65
2, 172416, Note_on_c, 0, 72, 68
2, 172460, Note_off_c, 0, 72, 65
2, 172464, Note_on_c, 0, 74, 68
2, 172508, Note_off_c, 0, 74, 65
2, 172512, Note_on_c, 0, 72, 68
2, 172556, Note_off_c, 0, 72, 65
2, 172560, Note_on_c, 0, 74, 68
2, 172604, Note_off_c, 0, 74, 65
2, 172608, Note_on_c, 0, 72, 68
2, 172652, Note_off_c, 0, 72, 65
2, 172656, Note_on_c, 0, 74, 68
2, 172700, Note_off_c, 0, 74, 65
2, 172704, Note_on_c, 0, 72, 68
2, 172748, Note_off_c, 0, 72, 65
2, 172752, Note_on_c, 0, 74, 68
2, 172796, Note_off_c, 0, 74, 65
2, 172800, Note_on_c, 0, 70, 68
2, 172888, Note_off_c, 0, 70, 65
2, 172896, Note_on_c, 0, 72, 68
2, 172984, Note_off_c, 0, 72, 65
2, 172992, Note_on_c, 0, 74, 68
2, 173756, Note_off_c, 0, 74, 65
2, 173760, Note_on_c, 0, 70, 68
2, 173804, Note_off_c, 0, 70, 65
2, 173808, Note_on_c, 0, 72, 68
2, 173852, Note_off_c, 0, 72, 65
2, 173856, Note_on_c, 0, 70, 68
2, 173900, Note_off_c, 0, 70, 65
2, 173904, Note_on_c, 0, 72, 68
2, 173948, Note_off_c, 0, 72, 65
2, 173952, Note_on_c, 0, 70, 68
2, 173996, Note_off_c, 0, 70, 65
2, 174000, Note_on_c, 0, 72, 68
2, 174044, Note_off_c, 0, 72, 65
2, 174048, Note_on_c, 0, 69, 68
2, 174136, Note_off_c, 0, 69, 65
2, 174144, Note_on_c, 0, 70, 68
2, 174332, Note_off_c, 0, 70, 65
2, 174336, Note_on_c, 0, 67, 68
2, 174524, Note_off_c, 0, 67, 65
2, 174528, Note_on_c, 0, 72, 68
2, 174908, Note_off_c, 0, 72, 65
2, 174912, Note_on_c, 0, 75, 68
2, 175100, Note_off_c, 0, 75, 65
2, 175296, Note_on_c, 0, 69, 68
2, 175340, Note_off_c, 0, 69, 65
2, 175344, Note_on_c, 0, 71, 68
2, 175388, Note_off_c, 0, 71, 65
2, 175392, Note_on_c, 0, 69, 68
2, 175436, Note_off_c, 0, 69, 65
2, 175440, Note_on_c, 0, 71, 68
2, 175484, Note_off_c, 0, 71, 65
2, 175488, Note_on_c, 0, 69, 68
2, 175532, Note_off_c, 0, 69, 65
2, 175536, Note_on_c, 0, 71, 68
2, 175580, Note_off_c, 0, 71, 65
2, 175584, Note_on_c, 0, 69, 68
2, 175628, Note_off_c, 0, 69, 65
2, 175632, Note_on_c, 0, 71, 68
2, 175676, Note_off_c, 0, 71, 65
2, 175680, Note_on_c, 0, 69, 68
2, 175724, Note_off_c, 0, 69, 65
2, 175728, Note_on_c, 0, 71, 68
2, 175772, Note_off_c, 0, 71, 65
2, 175776, Note_on_c, 0, 69, 68
2, 175820, Note_off_c, 0, 69, 65
2, 175824, Note_on_c, 0, 71, 68
2, 175868, Note_off_c, 0, 71, 65
2, 175872, Note_on_c, 0, 67, 68
2, 175960, Note_off_c, 0, 67, 65
2, 175968, Note_on_c, 0, 69, 68
2, 176056, Note_off_c, 0, 69, 65
2, 176064, Note_on_c, 0, 67, 68
2, 176636, Note_off_c, 0, 67, 65
2, 176640, Note_on_c, 0, 70, 68
2, 176828, Note_off_c, 0, 70, 65
2, 176832, Note_on_c, 0, 74, 68
2, 177020, Note_off_c, 0, 74, 65
2, 177216, Note_on_c, 0, 74, 68
2, 177308, Note_off_c, 0, 74, 65
2, 177600, Note_on_c, 0, 77, 73
2, 177644, Note_off_c, 0, 77, 65
2, 177648, Note_on_c, 0, 75, 68
2, 177696, Note_off_c, 0, 75, 65
2, 177984, Note_on_c, 0, 75, 68
2, 178076, Note_off_c, 0, 75, 65
2, 178368, Note_on_c, 0, 72, 68
2, 178412, Note_off_c, 0, 72, 65
2, 178416, Note_on_c, 0, 74, 68
2, 178460, Note_off_c, 0, 74, 65
2, 178464, Note_on_c, 0, 72, 68
2, 178508, Note_off_c, 0, 72, 65
2, 178512, Note_on_c, 0, 74, 68
2, 178556, Note_off_c, 0, 74, 65
2, 178560, Note_on_c, 0, 72, 68
2, 178604, Note_off_c, 0, 72, 65
2, 178608, Note_on_c, 0, 74, 68
2, 178652, Note_off_c, 0, 74, 65
2, 178656, Note_on_c, 0, 72, 68
2, 178700, Note_off_c, 0, 72, 65
2, 178704, Note_on_c, 0, 74, 68
2, 178748, Note_off_c, 0, 74, 65
2, 178752, Note_on_c, 0, 72, 68
2, 178796, Note_off_c, 0, 72, 65
2, 178800, Note_on_c, 0, 74, 68
2, 178844, Note_off_c, 0, 74, 65
2, 178848, Note_on_c, 0, 72, 68
2, 178892, Note_off_c, 0, 72, 65
2, 178896, Note_on_c, 0, 74, 68
2, 178940, Note_off_c, 0, 74, 65
2, 178944, Note_on_c, 0, 70, 68
2, 179032, Note_off_c, 0, 70, 65
2, 179040, Note_on_c, 0, 72, 68
2, 179128, Note_off_c, 0, 72, 65
2, 179136, Note_on_c, 0, 74, 68
2, 179900, Note_off_c, 0, 74, 65
2, 179904, Note_on_c, 0, 70, 68
2, 179948, Note_off_c, 0, 70, 65
2, 179952, Note_on_c, 0, 72, 68
2, 179996, Note_off_c, 0, 72, 65
2, 180000, Note_on_c, 0, 70, 68
2, 180044, Note_off_c, 0, 70, 65
2, 180048, Note_on_c, 0, 72, 68
2, 180092, Note_off_c, 0, 72, 65
2, 180096, Note_on_c, 0, 70, 68
2, 180140, Note_off_c, 0, 70, 65
2, 180144, Note_on_c, 0, 72, 68
2, 180188, Note_off_c, 0, 72, 65
2, 180192, Note_on_c, 0, 69, 68
2, 180280, Note_off_c, 0, 69, 65
2, 180288, Note_on_c, 0, 70, 68
2, 180476, Note_off_c, 0, 70, 65
2, 180480, Note_on_c, 0, 67, 68
2, 180668, Note_off_c, 0, 67, 65
2, 180672, Note_on_c, 0, 72, 68
2, 181052, Note_off_c, 0, 72, 65
2, 181056, Note_on_c, 0, 75, 68
2, 181244, Note_off_c, 0, 75, 65
2, 181440, Note_on_c, 0, 69, 68
2, 181484, Note_off_c, 0, 69, 65
2, 181488, Note_on_c, 0, 71, 68
2, 181532, Note_off_c, 0, 71, 65
2, 181536, Note_on_c, 0, 69, 68
2, 181580, Note_off_c, 0, 69, 65
2, 181584, Note_on_c, 0, 71, 68
2, 181628, Note_off_c, 0, 71, 65
2, 181632, Note_on_c, 0, 69, 68
2, 181676, Note_off_c, 0, 69, 65
2, 181680, Note_on_c, 0, 71, 68
2, 181724, Note_off_c, 0, 71, 65
2, 181728, Note_on_c, 0, 69, 68
2, 181772, Note_off_c, 0, 69, 65
2, 181776, Note_on_c, 0, 71, 68
2, 181820, Note_off_c, 0, 71, 65
2, 181824, Note_on_c, 0, 69, 68
2, 181868, Note_off_c, 0, 69, 65
2, 181872, Note_on_c, 0, 71, 68
2, 181916, Note_off_c, 0, 71, 65
2, 181920, Note_on_c, 0, 69, 68
2, 181964, Note_off_c, 0, 69, 65
2, 181968, Note_on_c, 0, 71, 68
2, 182012, Note_off_c, 0, 71, 65
2, 182016, Note_on_c, 0, 67, 68
2, 182104, Note_off_c, 0, 67, 65
2, 182112, Note_on_c, 0, 69, 68
2, 182200, Note_off_c, 0, 69, 65
2, 182208, Note_on_c, 0, 67, 68
2, 182588, Note_off_c, 0, 67, 65
2, 182976, Note_on_c, 0, 74, 68
2, 183068, Note_off_c, 0, 74, 65
2, 183360, Note_on_c, 0, 67, 68
2, 183452, Note_off_c, 0, 67, 65
2, 183744, Note_on_c, 0, 66, 68
2, 184124, Note_off_c, 0, 66, 65
2, 184128, Note_on_c, 0, 69, 68
2, 184316, Note_off_c, 0, 69, 65
2, 184512, Note_on_c, 0, 81, 68
2, 184604, Note_off_c, 0, 81, 65
2, 184896, Note_on_c, 0, 74, 68
2, 184988, Note_off_c, 0, 74, 65
2, 185280, Note_on_c, 0, 79, 68
2, 185660, Note_off_c, 0, 79, 65
2, 185664, Note_on_c, 0, 82, 68
2, 185852, Note_off_c, 0, 82, 65
2, 186048, Note_on_c, 0, 79, 68
2, 186140, Note_off_c, 0, 79, 65
2, 186432, Note_on_c, 0, 73, 68
2, 186524, Note_off_c, 0, 73, 65
2, 186816, Note_on_c, 0, 74, 68
2, 187196, Note_off_c, 0, 74, 65
2, 187200, Note_on_c, 0, 78, 68
2, 187388, Note_off_c, 0, 78, 65
2, 187584, Note_on_c, 0, 78, 68
2, 187964, Note_off_c, 0, 78, 65
2, 187968, Note_on_c, 0, 81, 68
2, 188156, Note_off_c, 0, 81, 65
2, 188352, Note_on_c, 0, 81, 68
2, 188732, Note_off_c, 0, 81, 65
2, 188736, Note_on_c, 0, 86, 68
2, 188924, Note_off_c, 0, 86, 65
2, 189504, Note_on_c, 0, 62, 68
2, 189884, Note_off_c, 0, 62, 65
2, 189888, Note_on_c, 0, 67, 68
2, 190076, Note_off_c, 0, 67, 65
2, 190272, Note_on_c, 0, 67, 68
2, 190460, Note_off_c, 0, 67, 65
2, 190656, Note_on_c, 0, 67, 68
2, 191028, Note_off_c, 0, 67, 65
2, 191040, Note_on_c, 0, 69, 68
2, 191412, Note_off_c, 0, 69, 65
2, 191424, Note_on_c, 0, 71, 68
2, 191612, Note_off_c, 0, 71, 65
2, 191808, Note_on_c, 0, 71, 68
2, 191996, Note_off_c, 0, 71, 65
2, 192192, Note_on_c, 0, 71, 68
2, 192564, Note_off_c, 0, 71, 65
2, 192576, Note_on_c, 0, 67, 68
2, 192948, Note_off_c, 0, 67, 65
2, 192960, Note_on_c, 0, 69, 68
2, 193148, Note_off_c, 0, 69, 65
2, 193344, Note_on_c, 0, 69, 68
2, 193532, Note_off_c, 0, 69, 65
2, 193728, Note_on_c, 0, 69, 68
2, 194100, Note_off_c, 0, 69, 65
2, 194112, Note_on_c, 0, 66, 68
2, 194484, Note_off_c, 0, 66, 65
2, 194496, Note_on_c, 0, 67, 68
2, 194536, Note_off_c, 0, 67, 65
2, 194544, Note_on_c, 0, 69, 68
2, 194584, Note_off_c, 0, 69, 65
2, 194592, Note_on_c, 0, 66, 68
2, 194632, Note_off_c, 0, 66, 65
2, 194640, Note_on_c, 0, 67, 68
2, 194680, Note_off_c, 0, 67, 65
2, 194688, Note_on_c, 0, 66, 68
2, 194872, Note_off_c, 0, 66, 65
2, 194880, Note_on_c, 0, 67, 68
2, 194972, Note_off_c, 0, 67, 65
2, 195072, Note_on_c, 0, 69, 68
2, 195164, Note_off_c, 0, 69, 65
2, 195264, Note_on_c, 0, 67, 68
2, 195644, Note_off_c, 0, 67, 65
2, 196032, Note_on_c, 0, 86, 83
2, 196132, Note_off_c, 0, 86, 65
2, 196160, Note_on_c, 0, 83, 83
2, 196260, Note_off_c, 0, 83, 65
2, 196288, Note_on_c, 0, 79, 83
2, 196388, Note_off_c, 0, 79, 65
2, 196416, Note_on_c, 0, 74, 83
2, 196516, Note_off_c, 0, 74, 65
2, 196544, Note_on_c, 0, 79, 83
2, 196644, Note_off_c, 0, 79, 65
2, 196672, Note_on_c, 0, 83, 83
2, 196772, Note_off_c, 0, 83, 65
2, 196800, Note_on_c, 0, 86, 83
2, 196900, Note_off_c, 0, 86, 65
2, 196928, Note_on_c, 0, 83, 83
2, 197028, Note_off_c, 0, 83, 65
2, 197056, Note_on_c, 0, 74, 83
2, 197156, Note_off_c, 0, 74, 65
2, 197184, Note_on_c, 0, 84, 83
2, 197284, Note_off_c, 0, 84, 65
2, 197312, Note_on_c, 0, 81, 83
2, 197412, Note_off_c, 0, 81, 65
2, 197440, Note_on_c, 0, 74, 83
2, 197540, Note_off_c, 0, 74, 65
2, 197568, Note_on_c, 0, 83, 83
2, 197668, Note_off_c, 0, 83, 65
2, 197696, Note_on_c, 0, 79, 83
2, 197796, Note_off_c, 0, 79, 65
2, 197824, Note_on_c, 0, 74, 83
2, 197924, Note_off_c, 0, 74, 65
2, 197952, Note_on_c, 0, 71, 83
2, 198052, Note_off_c, 0, 71, 65
2, 198080, Note_on_c, 0, 74, 83
2, 198180, Note_off_c, 0, 74, 65
2, 198208, Note_on_c, 0, 79, 83
2, 198308, Note_off_c, 0, 79, 65
2, 198336, Note_on_c, 0, 83, 83
2, 198436, Note_off_c, 0, 83, 65
2, 198464, Note_on_c, 0, 79, 83
2, 198564, Note_off_c, 0, 79, 65
2, 198592, Note_on_c, 0, 74, 83
2, 198692, Note_off_c, 0, 74, 65
2, 198720, Note_on_c, 0, 79, 83
2, 198820, Note_off_c, 0, 79, 65
2, 198848, Note_on_c, 0, 74, 83
2, 198948, Note_off_c, 0, 74, 65
2, 198976, Note_on_c, 0, 71, 83
2, 199076, Note_off_c, 0, 71, 65
2, 199104, Note_on_c, 0, 81, 83
2, 199204, Note_off_c, 0, 81, 65
2, 199232, Note_on_c, 0, 76, 83
2, 199332, Note_off_c, 0, 76, 65
2, 199360, Note_on_c, 0, 72, 83
2, 199460, Note_off_c, 0, 72, 65
2, 199488, Note_on_c, 0, 69, 83
2, 199588, Note_off_c, 0, 69, 65
2, 199616, Note_on_c, 0, 72, 83
2, 199716, Note_off_c, 0, 72, 65
2, 199744, Note_on_c, 0, 76, 83
2, 199844, Note_off_c, 0, 76, 65
2, 199872, Note_on_c, 0, 78, 83
2, 199972, Note_off_c, 0, 78, 65
2, 200000, Note_on_c, 0, 84, 83
2, 200100, Note_off_c, 0, 84, 65
2, 200128, Note_on_c, 0, 81, 83
2, 200228, Note_off_c, 0, 81, 65
2, 200256, Note_on_c, 0, 78, 83
2, 200356, Note_off_c, 0, 78, 65
2, 200384, Note_on_c, 0, 74, 83
2, 200484, Note_off_c, 0, 74, 65
2, 200512, Note_on_c, 0, 72, 83
2, 200612, Note_off_c, 0, 72, 65
2, 200640, Note_on_c, 0, 71, 83
2, 200740, Note_off_c, 0, 71, 65
2, 200768, Note_on_c, 0, 74, 83
2, 200868, Note_off_c, 0, 74, 65
2, 200896, Note_on_c, 0, 71, 83
2, 200996, Note_off_c, 0, 71, 65
2, 201024, Note_on_c, 0, 79, 83
2, 201124, Note_off_c, 0, 79, 65
2, 201152, Note_on_c, 0, 74, 83
2, 201252, Note_off_c, 0, 74, 65
2, 201280, Note_on_c, 0, 71, 83
2, 201380, Note_off_c, 0, 71, 65
2, 201408, Note_on_c, 0, 67, 83
2, 201784, Control_c, 0, 1, 55
2, 201788, Note_off_c, 0, 67, 65
2, 202176, Note_on_c, 0, 74, 68
2, 202176, Note_on_c, 0, 62, 68
2, 202940, Note_off_c, 0, 74, 65
2, 202940, Note_off_c, 0, 62, 65
2, 202944, Note_on_c, 0, 62, 68
2, 202944, Note_on_c, 0, 74, 68
2, 203132, Note_off_c, 0, 74, 65
2, 203136, Note_on_c, 0, 76, 68
2, 203324, Note_off_c, 0, 76, 65
2, 203328, Note_on_c, 0, 74, 68
2, 203516, Note_off_c, 0, 74, 65
2, 203520, Note_on_c, 0, 72, 68
2, 203708, Note_off_c, 0, 62, 65
2, 203708, Note_off_c, 0, 72, 65
2, 203712, Note_on_c, 0, 71, 68
2, 203712, Note_on_c, 0, 62, 68
2, 204092, Note_off_c, 0, 71, 65
2, 204096, Note_on_c, 0, 69, 68
2, 204096, Note_on_c, 0, 62, 68
2, 204476, Note_off_c, 0, 62, 65
2, 204476, Note_off_c, 0, 69, 65
2, 204480, Note_on_c, 0, 62, 68
2, 204480, Note_on_c, 0, 71, 68
2, 204860, Note_off_c, 0, 62, 65
2, 204860, Note_off_c, 0, 71, 65
2, 204864, Note_on_c, 0, 72, 68
2, 204864, Note_on_c, 0, 64, 68
2, 205244, Note_off_c, 0, 62, 65
2, 205244, Note_off_c, 0, 72, 65
2, 205244, Note_off_c, 0, 64, 65
2, 205248, Note_on_c, 0, 74, 68
2, 205248, Note_on_c, 0, 62, 68
2, 206012, Note_off_c, 0, 74, 65
2, 206012, Note_off_c, 0, 62, 65
2, 206016, Note_on_c, 0, 62, 68
2, 206016, Note_on_c, 0, 74, 68
2, 206204, Note_off_c, 0, 74, 65
2, 206208, Note_on_c, 0, 76, 68
2, 206396, Note_off_c, 0, 76, 65
2, 206400, Note_on_c, 0, 74, 68
2, 206588, Note_off_c, 0, 74, 65
2, 206592, Note_on_c, 0, 72, 68
2, 206780, Note_off_c, 0, 62, 65
2, 206780, Note_off_c, 0, 72, 65
2, 206784, Note_on_c, 0, 62, 68
2, 206784, Note_on_c, 0, 72, 68
2, 207548, Note_off_c, 0, 62, 65
2, 207548, Note_off_c, 0, 72, 65
2, 207552, Note_on_c, 0, 71, 68
2, 207552, Note_on_c, 0, 62, 68
2, 207932, Note_off_c, 0, 71, 65
2, 207932, Note_off_c, 0, 62, 65
2, 208320, Note_on_c, 0, 86, 83
2, 208444, Note_off_c, 0, 86, 65
2, 208448, Note_on_c, 0, 83, 83
2, 208572, Note_off_c, 0, 83, 65
2, 208576, Note_on_c, 0, 79, 83
2, 208700, Note_off_c, 0, 79, 65
2, 208704, Note_on_c, 0, 74, 83
2, 208828, Note_off_c, 0, 74, 65
2, 208832, Note_on_c, 0, 79, 83
2, 208956, Note_off_c, 0, 79, 65
2, 208960, Note_on_c, 0, 83, 83
2, 209084, Note_off_c, 0, 83, 65
2, 209088, Note_on_c, 0, 86, 83
2, 209212, Note_off_c, 0, 86, 65
2, 209216, Note_on_c, 0, 83, 83
2, 209340, Note_off_c, 0, 83, 65
2, 209344, Note_on_c, 0, 74, 83
2, 209468, Note_off_c, 0, 74, 65
2, 209472, Note_on_c, 0, 84, 83
2, 209596, Note_off_c, 0, 84, 65
2, 209600, Note_on_c, 0, 81, 83
2, 209724, Note_off_c, 0, 81, 65
2, 209728, Note_on_c, 0, 74, 83
2, 209852, Note_off_c, 0, 74, 65
2, 209856, Note_on_c, 0, 83, 83
2, 209980, Note_off_c, 0, 83, 65
2, 209984, Note_on_c, 0, 79, 83
2, 210108, Note_off_c, 0, 79, 65
2, 210112, Note_on_c, 0, 74, 83
2, 210236, Note_off_c, 0, 74, 65
2, 210240, Note_on_c, 0, 71, 83
2, 210364, Note_off_c, 0, 71, 65
2, 210368, Note_on_c, 0, 74, 83
2, 210492, Note_off_c, 0, 74, 65
2, 210496, Note_on_c, 0, 79, 83
2, 210620, Note_off_c, 0, 79, 65
2, 210624, Note_on_c, 0, 83, 83
2, 210748, Note_off_c, 0, 83, 65
2, 210752, Note_on_c, 0, 79, 83
2, 210876, Note_off_c, 0, 79, 65
2, 210880, Note_on_c, 0, 74, 83
2, 211004, Note_off_c, 0, 74, 65
2, 211008, Note_on_c, 0, 79, 83
2, 211132, Note_off_c, 0, 79, 65
2, 211136, Note_on_c, 0, 74, 83
2, 211260, Note_off_c, 0, 74, 65
2, 211264, Note_on_c, 0, 71, 83
2, 211388, Note_off_c, 0, 71, 65
2, 211392, Note_on_c, 0, 81, 83
2, 211516, Note_off_c, 0, 81, 65
2, 211520, Note_on_c, 0, 76, 83
2, 211644, Note_off_c, 0, 76, 65
2, 211648, Note_on_c, 0, 72, 83
2, 211772, Note_off_c, 0, 72, 65
2, 211776, Note_on_c, 0, 69, 83
2, 211900, Note_off_c, 0, 69, 65
2, 211904, Note_on_c, 0, 72, 83
2, 212028, Note_off_c, 0, 72, 65
2, 212032, Note_on_c, 0, 76, 83
2, 212156, Note_off_c, 0, 76, 65
2, 212160, Note_on_c, 0, 78, 83
2, 212284, Note_off_c, 0, 78, 65
2, 212288, Note_on_c, 0, 84, 83
2, 212412, Note_off_c, 0, 84, 65
2, 212416, Note_on_c, 0, 81, 83
2, 212540, Note_off_c, 0, 81, 65
2, 212544, Note_on_c, 0, 78, 83
2, 212668, Note_off_c, 0, 78, 65
2, 212672, Note_on_c, 0, 74, 83
2, 212796, Note_off_c, 0, 74, 65
2, 212800, Note_on_c, 0, 72, 83
2, 212924, Note_off_c, 0, 72, 65
2, 212928, Note_on_c, 0, 71, 83
2, 213052, Note_off_c, 0, 71, 65
2, 213056, Note_on_c, 0, 74, 83
2, 213180, Note_off_c, 0, 74, 65
2, 213184, Note_on_c, 0, 71, 83
2, 213308, Note_off_c, 0, 71, 65
2, 213312, Note_on_c, 0, 79, 83
2, 213436, Note_off_c, 0, 79, 65
2, 213440, Note_on_c, 0, 74, 83
2, 213564, Note_off_c, 0, 74, 65
2, 213568, Note_on_c, 0, 71, 83
2, 213692, Note_off_c, 0, 71, 65
2, 213696, Note_on_c, 0, 67, 83
2, 214072, Control_c, 0, 1, 55
2, 214076, Note_off_c, 0, 67, 65
2, 214464, Note_on_c, 0, 74, 68
2, 214464, Note_on_c, 0, 62, 68
2, 215228, Note_off_c, 0, 74, 65
2, 215228, Note_off_c, 0, 62, 65
2, 215232, Note_on_c, 0, 62, 68
2, 215232, Note_on_c, 0, 74, 68
2, 215420, Note_off_c, 0, 74, 65
2, 215424, Note_on_c, 0, 76, 68
2, 215612, Note_off_c, 0, 76, 65
2, 215616, Note_on_c, 0, 74, 68
2, 215804, Note_off_c, 0, 74, 65
2, 215808, Note_on_c, 0, 72, 68
2, 215996, Note_off_c, 0, 62, 65
2, 215996, Note_off_c, 0, 72, 65
2, 216000, Note_on_c, 0, 71, 68
2, 216000, Note_on_c, 0, 62, 68
2, 216380, Note_off_c, 0, 71, 65
2, 216380, Note_off_c, 0, 62, 65
2, 216384, Note_on_c, 0, 69, 68
2, 216384, Note_on_c, 0, 62, 68
2, 216764, Note_off_c, 0, 69, 65
2, 216764, Note_off_c, 0, 62, 65
2, 216768, Note_on_c, 0, 71, 68
2, 216768, Note_on_c, 0, 62, 68
2, 217148, Note_off_c, 0, 71, 65
2, 217148, Note_off_c, 0, 62, 65
2, 217152, Note_on_c, 0, 72, 68
2, 217152, Note_on_c, 0, 62, 68
2, 217532, Note_off_c, 0, 72, 65
2, 217532, Note_off_c, 0, 62, 65
2, 217536, Note_on_c, 0, 74, 68
2, 217536, Note_on_c, 0, 62, 68
2, 218300, Note_off_c, 0, 74, 65
2, 218300, Note_off_c, 0, 62, 65
2, 218304, Note_on_c, 0, 62, 68
2, 218304, Note_on_c, 0, 74, 68
2, 218492, Note_off_c, 0, 74, 65
2, 218496, Note_on_c, 0, 76, 68
2, 218684, Note_off_c, 0, 76, 65
2, 218688, Note_on_c, 0, 74, 68
2, 218876, Note_off_c, 0, 74, 65
2, 218880, Note_on_c, 0, 72, 68
2, 219068, Note_off_c, 0, 62, 65
2, 219068, Note_off_c, 0, 72, 65
2, 219072, Note_on_c, 0, 72, 68
2, 219072, Note_on_c, 0, 62, 68
2, 219836, Note_off_c, 0, 72, 65
2, 219836, Note_off_c, 0, 62, 65
2, 219840, Note_on_c, 0, 71, 68
2, 219840, Note_on_c, 0, 62, 68
2, 220220, Note_off_c, 0, 71, 65
2, 220220, Note_off_c, 0, 62, 65
2, 220608, Note_on_c, 0, 86, 83
2, 220732, Note_off_c, 0, 86, 65
2, 220736, Note_on_c, 0, 83, 83
2, 220860, Note_off_c, 0, 83, 65
2, 220864, Note_on_c, 0, 79, 83
2, 220988, Note_off_c, 0, 79, 65
2, 220992, Note_on_c, 0, 74, 83
2, 221116, Note_off_c, 0, 74, 65
2, 221120, Note_on_c, 0, 79, 83
2, 221244, Note_off_c, 0, 79, 65
2, 221248, Note_on_c, 0, 83, 83
2, 221372, Note_off_c, 0, 83, 65
2, 221376, Note_on_c, 0, 86, 83
2, 221500, Note_off_c, 0, 86, 65
2, 221504, Note_on_c, 0, 83, 83
2, 221628, Note_off_c, 0, 83, 65
2, 221632, Note_on_c, 0, 74, 83
2, 221756, Note_off_c, 0, 74, 65
2, 221760, Note_on_c, 0, 84, 83
2, 221884, Note_off_c, 0, 84, 65
2, 221888, Note_on_c, 0, 81, 83
2, 222012, Note_off_c, 0, 81, 65
2, 222016, Note_on_c, 0, 74, 83
2, 222140, Note_off_c, 0, 74, 65
2, 222144, Note_on_c, 0, 83, 83
2, 222268, Note_off_c, 0, 83, 65
2, 222272, Note_on_c, 0, 79, 83
2, 222396, Note_off_c, 0, 79, 65
2, 222400, Note_on_c, 0, 74, 83
2, 222524, Note_off_c, 0, 74, 65
2, 222528, Note_on_c, 0, 71, 83
2, 222652, Note_off_c, 0, 71, 65
2, 222656, Note_on_c, 0, 74, 83
2, 222780, Note_off_c, 0, 74, 65
2, 222784, Note_on_c, 0, 79, 83
2, 222908, Note_off_c, 0, 79, 65
2, 222912, Note_on_c, 0, 83, 83
2, 223036, Note_off_c, 0, 83, 65
2, 223040, Note_on_c, 0, 79, 83
2, 223164, Note_off_c, 0, 79, 65
2, 223168, Note_on_c, 0, 74, 83
2, 223292, Note_off_c, 0, 74, 65
2, 223296, Note_on_c, 0, 79, 83
2, 223420, Note_off_c, 0, 79, 65
2, 223424, Note_on_c, 0, 74, 83
2, 223548, Note_off_c, 0, 74, 65
2, 223552, Note_on_c, 0, 71, 83
2, 223676, Note_off_c, 0, 71, 65
2, 223680, Note_on_c, 0, 81, 83
2, 223804, Note_off_c, 0, 81, 65
2, 223808, Note_on_c, 0, 76, 83
2, 223932, Note_off_c, 0, 76, 65
2, 223936, Note_on_c, 0, 72, 83
2, 224060, Note_off_c, 0, 72, 65
2, 224064, Note_on_c, 0, 69, 83
2, 224188, Note_off_c, 0, 69, 65
2, 224192, Note_on_c, 0, 72, 83
2, 224316, Note_off_c, 0, 72, 65
2, 224320, Note_on_c, 0, 76, 83
2, 224444, Note_off_c, 0, 76, 65
2, 224448, Note_on_c, 0, 78, 83
2, 224572, Note_off_c, 0, 78, 65
2, 224576, Note_on_c, 0, 84, 83
2, 224700, Note_off_c, 0, 84, 65
2, 224704, Note_on_c, 0, 81, 83
2, 224828, Note_off_c, 0, 81, 65
2, 224832, Note_on_c, 0, 78, 83
2, 224956, Note_off_c, 0, 78, 65
2, 224960, Note_on_c, 0, 74, 83
2, 225084, Note_off_c, 0, 74, 65
2, 225088, Note_on_c, 0, 72, 83
2, 225212, Note_off_c, 0, 72, 65
2, 225216, Note_on_c, 0, 69, 83
2, 225340, Note_off_c, 0, 69, 65
2, 225344, Note_on_c, 0, 66, 83
2, 225468, Note_off_c, 0, 66, 65
2, 225472, Note_on_c, 0, 62, 83
2, 225596, Note_off_c, 0, 62, 65
2, 225600, Note_on_c, 0, 60, 83
2, 225724, Note_off_c, 0, 60, 65
2, 225728, Note_on_c, 0, 59, 83
2, 225852, Note_off_c, 0, 59, 65
2, 225856, Note_on_c, 0, 57, 83
2, 225980, Note_off_c, 0, 57, 65
2, 225984, Note_on_c, 0, 55, 83
2, 226360, Control_c, 0, 1, 55
2, 226364, Note_off_c, 0, 55, 65
2, 226752, Note_on_c, 0, 66, 83
2, 227516, Note_off_c, 0, 66, 65
2, 227520, Note_on_c, 0, 67, 83
2, 227708, Note_off_c, 0, 67, 65
2, 228480, Note_on_c, 0, 66, 68
2, 228668, Note_off_c, 0, 66, 65
2, 228672, Note_on_c, 0, 67, 68
2, 228860, Note_off_c, 0, 67, 65
2, 228864, Note_on_c, 0, 71, 68
2, 229052, Note_off_c, 0, 71, 65
2, 229632, Note_on_c, 0, 66, 68
2, 229820, Note_off_c, 0, 66, 65
2, 229824, Note_on_c, 0, 67, 68
2, 230012, Note_off_c, 0, 67, 65
2, 230016, Note_on_c, 0, 74, 68
2, 230204, Note_off_c, 0, 74, 65
2, 230784, Note_on_c, 0, 66, 68
2, 230972, Note_off_c, 0, 66, 65
2, 230976, Note_on_c, 0, 67, 68
2, 231164, Note_off_c, 0, 67, 65
2, 231168, Note_on_c, 0, 70, 68
2, 231356, Note_off_c, 0, 70, 65
2, 231360, Note_on_c, 0, 71, 68
2, 231548, Note_off_c, 0, 71, 65
2, 231552, Note_on_c, 0, 73, 68
2, 231740, Note_off_c, 0, 73, 65
2, 231744, Note_on_c, 0, 74, 68
2, 231932, Note_off_c, 0, 74, 65
2, 231936, Note_on_c, 0, 78, 68
2, 232124, Note_off_c, 0, 78, 65
2, 232128, Note_on_c, 0, 79, 69
2, 232316, Note_off_c, 0, 79, 65
2, 232320, Note_on_c, 0, 82, 71
2, 232508, Note_off_c, 0, 82, 65
2, 232512, Note_on_c, 0, 83, 70
2, 232700, Note_off_c, 0, 83, 65
2, 232704, Note_on_c, 0, 86, 73
2, 232796, Note_off_c, 0, 86, 65
2, 232892, Control_c, 0, 1, 55
2, 232896, Note_on_c, 0, 79, 70
2, 233660, Note_off_c, 0, 79, 65
2, 233664, Note_on_c, 0, 81, 70
2, 233852, Note_off_c, 0, 81, 65
2, 233856, Note_on_c, 0, 77, 68
2, 234044, Note_off_c, 0, 77, 65
2, 234048, Note_on_c, 0, 75, 68
2, 234236, Note_off_c, 0, 75, 65
2, 234240, Note_on_c, 0, 76, 68
2, 234428, Note_off_c, 0, 76, 65
2, 234432, Note_on_c, 0, 76, 68
2, 234524, Note_off_c, 0, 76, 65
2, 234624, Note_on_c, 0, 76, 68
2, 234668, Note_off_c, 0, 76, 65
2, 234672, Note_on_c, 0, 78, 68
2, 234716, Note_off_c, 0, 78, 65
2, 234720, Note_on_c, 0, 74, 68
2, 234764, Note_off_c, 0, 74, 65
2, 234768, Note_on_c, 0, 76, 60
2, 234812, Note_off_c, 0, 76, 64
2, 235200, Note_on_c, 0, 76, 68
2, 235964, Note_off_c, 0, 76, 65
2, 235968, Note_on_c, 0, 77, 68
2, 236156, Note_off_c, 0, 77, 65
2, 236160, Note_on_c, 0, 74, 68
2, 236348, Note_off_c, 0, 74, 65
2, 236352, Note_on_c, 0, 71, 68
2, 236540, Note_off_c, 0, 71, 65
2, 236544, Note_on_c, 0, 72, 68
2, 236732, Note_off_c, 0, 72, 65
2, 236736, Note_on_c, 0, 72, 68
2, 236828, Note_off_c, 0, 72, 65
2, 236928, Note_on_c, 0, 72, 68
2, 236972, Note_off_c, 0, 72, 65
2, 236976, Note_on_c, 0, 74, 68
2, 237020, Note_off_c, 0, 74, 65
2, 237024, Note_on_c, 0, 71, 68
2, 237068, Note_off_c, 0, 71, 65
2, 237072, Note_on_c, 0, 72, 60
2, 237116, Note_off_c, 0, 72, 64
2, 237504, Note_on_c, 0, 84, 72
2, 237692, Note_off_c, 0, 84, 65
2, 237696, Note_on_c, 0, 81, 70
2, 237884, Note_off_c, 0, 81, 65
2, 238080, Note_on_c, 0, 79, 69
2, 238268, Note_off_c, 0, 79, 65
2, 238272, Note_on_c, 0, 78, 68
2, 238460, Note_off_c, 0, 78, 65
2, 238656, Note_on_c, 0, 86, 73
2, 238844, Note_off_c, 0, 86, 65
2, 238848, Note_on_c, 0, 83, 71
2, 239036, Note_off_c, 0, 83, 65
2, 239232, Note_on_c, 0, 81, 70
2, 239420, Note_off_c, 0, 81, 65
2, 239424, Note_on_c, 0, 79, 69
2, 239612, Note_off_c, 0, 79, 65
2, 239808, Note_on_c, 0, 76, 68
2, 239996, Note_off_c, 0, 76, 65
2, 240000, Note_on_c, 0, 88, 74
2, 240188, Note_off_c, 0, 88, 65
2, 240192, Note_on_c, 0, 86, 73
2, 240380, Note_off_c, 0, 86, 65
2, 240384, Note_on_c, 0, 84, 72
2, 240572, Note_off_c, 0, 84, 65
2, 240576, Note_on_c, 0, 83, 71
2, 240764, Note_off_c, 0, 83, 65
2, 240768, Note_on_c, 0, 81, 70
2, 240956, Note_off_c, 0, 81, 65
2, 240960, Note_on_c, 0, 79, 69
2, 241340, Note_off_c, 0, 79, 65
2, 241344, Note_on_c, 0, 78, 68
2, 241532, Note_off_c, 0, 78, 65
2, 242112, Note_on_c, 0, 74, 68
2, 242156, Note_off_c, 0, 74, 65
2, 242160, Note_on_c, 0, 86, 73
2, 242492, Note_off_c, 0, 86, 65
2, 242496, Note_on_c, 0, 84, 72
2, 242588, Note_off_c, 0, 84, 65
2, 242592, Note_on_c, 0, 81, 70
2, 242684, Note_off_c, 0, 81, 65
2, 242688, Note_on_c, 0, 79, 69
2, 242780, Note_off_c, 0, 79, 65
2, 242880, Note_on_c, 0, 79, 69
2, 242972, Note_off_c, 0, 79, 65
2, 243072, Note_on_c, 0, 79, 69
2, 243164, Note_off_c, 0, 79, 65
2, 243264, Note_on_c, 0, 87, 74
2, 243644, Note_off_c, 0, 87, 65
2, 243648, Note_on_c, 0, 84, 72
2, 243740, Note_off_c, 0, 84, 65
2, 243744, Note_on_c, 0, 81, 70
2, 243836, Note_off_c, 0, 81, 65
2, 243840, Note_on_c, 0, 79, 73
2, 243884, Note_off_c, 0, 79, 65
2, 243888, Note_on_c, 0, 78, 68
2, 243932, Note_off_c, 0, 78, 65
2, 244032, Note_on_c, 0, 78, 68
2, 244124, Note_off_c, 0, 78, 65
2, 244224, Note_on_c, 0, 78, 68
2, 244316, Note_off_c, 0, 78, 65
2, 246720, Note_on_c, 0, 71, 68
2, 246812, Note_off_c, 0, 71, 65
2, 246816, Note_on_c, 0, 74, 68
2, 246908, Note_off_c, 0, 74, 65
2, 246912, Note_on_c, 0, 76, 68
2, 247004, Note_off_c, 0, 76, 65
2, 247008, Note_on_c, 0, 74, 68
2, 247100, Note_off_c, 0, 74, 65
2, 247104, Note_on_c, 0, 76, 68
2, 247196, Note_off_c, 0, 76, 65
2, 247200, Note_on_c, 0, 74, 68
2, 247292, Note_off_c, 0, 74, 65
2, 247296, Note_on_c, 0, 79, 69
2, 247388, Note_off_c, 0, 79, 65
2, 247392, Note_on_c, 0, 74, 68
2, 247484, Note_off_c, 0, 74, 65
2, 247488, Note_on_c, 0, 76, 68
2, 247580, Note_off_c, 0, 76, 65
2, 247584, Note_on_c, 0, 74, 68
2, 247676, Note_off_c, 0, 74, 65
2, 247680, Note_on_c, 0, 76, 68
2, 247772, Note_off_c, 0, 76, 65
2, 247776, Note_on_c, 0, 74, 68
2, 247868, Note_off_c, 0, 74, 65
2, 247872, Note_on_c, 0, 81, 70
2, 247964, Note_off_c, 0, 81, 65
2, 247968, Note_on_c, 0, 74, 68
2, 248060, Note_off_c, 0, 74, 65
2, 248064, Note_on_c, 0, 76, 68
2, 248156, Note_off_c, 0, 76, 65
2, 248160, Note_on_c, 0, 74, 68
2, 248252, Note_off_c, 0, 74, 65
2, 248256, Note_on_c, 0, 76, 68
2, 248348, Note_off_c, 0, 76, 65
2, 248352, Note_on_c, 0, 74, 68
2, 248444, Note_off_c, 0, 74, 65
2, 248448, Note_on_c, 0, 69, 68
2, 248540, Note_off_c, 0, 69, 65
2, 248544, Note_on_c, 0, 74, 68
2, 248636, Note_off_c, 0, 74, 65
2, 248640, Note_on_c, 0, 71, 68
2, 248732, Note_off_c, 0, 71, 65
2, 248736, Note_on_c, 0, 74, 68
2, 248828, Note_off_c, 0, 74, 65
2, 248832, Note_on_c, 0, 72, 68
2, 248924, Note_off_c, 0, 72, 65
2, 248928, Note_on_c, 0, 74, 68
2, 249020, Note_off_c, 0, 74, 65
2, 249024, Note_on_c, 0, 71, 68
2, 249116, Note_off_c, 0, 71, 65
2, 249120, Note_on_c, 0, 74, 68
2, 249212, Note_off_c, 0, 74, 65
2, 249216, Note_on_c, 0, 76, 68
2, 249308, Note_off_c, 0, 76, 65
2, 249312, Note_on_c, 0, 74, 68
2, 249404, Note_off_c, 0, 74, 65
2, 249408, Note_on_c, 0, 76, 68
2, 249500, Note_off_c, 0, 76, 65
2, 249504, Note_on_c, 0, 74, 68
2, 249596, Note_off_c, 0, 74, 65
2, 249600, Note_on_c, 0, 79, 69
2, 249692, Note_off_c, 0, 79, 65
2, 249696, Note_on_c, 0, 74, 68
2, 249788, Note_off_c, 0, 74, 65
2, 249792, Note_on_c, 0, 76, 68
2, 249884, Note_off_c, 0, 76, 65
2, 249888, Note_on_c, 0, 74, 68
2, 249980, Note_off_c, 0, 74, 65
2, 249984, Note_on_c, 0, 76, 68
2, 250076, Note_off_c, 0, 76, 65
2, 250080, Note_on_c, 0, 74, 68
2, 250172, Note_off_c, 0, 74, 65
2, 250176, Note_on_c, 0, 81, 70
2, 250268, Note_off_c, 0, 81, 65
2, 250272, Note_on_c, 0, 74, 68
2, 250364, Note_off_c, 0, 74, 65
2, 250368, Note_on_c, 0, 76, 68
2, 250460, Note_off_c, 0, 76, 65
2, 250464, Note_on_c, 0, 74, 68
2, 250556, Note_off_c, 0, 74, 65
2, 250560, Note_on_c, 0, 76, 68
2, 250652, Note_off_c, 0, 76, 65
2, 250656, Note_on_c, 0, 74, 68
2, 250748, Note_off_c, 0, 74, 65
2, 250752, Note_on_c, 0, 69, 68
2, 250844, Note_off_c, 0, 69, 65
2, 250848, Note_on_c, 0, 74, 68
2, 250940, Note_off_c, 0, 74, 65
2, 250944, Note_on_c, 0, 71, 68
2, 251036, Note_off_c, 0, 71, 65
2, 251040, Note_on_c, 0, 74, 68
2, 251132, Note_off_c, 0, 74, 65
2, 251136, Note_on_c, 0, 72, 68
2, 251228, Note_off_c, 0, 72, 65
2, 251232, Note_on_c, 0, 74, 68
2, 251324, Note_off_c, 0, 74, 65
2, 251328, Note_on_c, 0, 71, 68
2, 251420, Note_off_c, 0, 71, 65
2, 251424, Note_on_c, 0, 74, 68
2, 251516, Note_off_c, 0, 74, 65
2, 251520, Note_on_c, 0, 79, 68
2, 251612, Note_off_c, 0, 79, 65
2, 251616, Note_on_c, 0, 71, 68
2, 251708, Note_off_c, 0, 71, 65
2, 251712, Note_on_c, 0, 69, 68
2, 251804, Note_off_c, 0, 69, 65
2, 251808, Note_on_c, 0, 78, 68
2, 251900, Note_off_c, 0, 78, 65
2, 251904, Note_on_c, 0, 67, 68
2, 251996, Note_off_c, 0, 67, 65
2, 252000, Note_on_c, 0, 76, 68
2, 252092, Note_off_c, 0, 76, 65
2, 252096, Note_on_c, 0, 66, 68
2, 252188, Note_off_c, 0, 66, 65
2, 252192, Note_on_c, 0, 74, 68
2, 252284, Note_off_c, 0, 74, 65
2, 252288, Note_on_c, 0, 64, 68
2, 252380, Note_off_c, 0, 64, 65
2, 252384, Note_on_c, 0, 72, 68
2, 252476, Note_off_c, 0, 72, 65
2, 252480, Note_on_c, 0, 62, 68
2, 252572, Note_off_c, 0, 62, 65
2, 252576, Note_on_c, 0, 71, 68
2, 252668, Note_off_c, 0, 71, 65
2, 252672, Note_on_c, 0, 60, 68
2, 252764, Note_off_c, 0, 60, 65
2, 252768, Note_on_c, 0, 69, 68
2, 252860, Note_off_c, 0, 69, 65
2, 252864, Note_on_c, 0, 59, 68
2, 252956, Note_off_c, 0, 59, 65
2, 252960, Note_on_c, 0, 67, 68
2, 253052, Note_off_c, 0, 67, 65
2, 253056, Note_on_c, 0, 57, 72
2, 253148, Note_off_c, 0, 57, 65
2, 253152, Note_on_c, 0, 66, 68
2, 253244, Note_off_c, 0, 66, 65
2, 253248, Note_on_c, 0, 62, 69
2, 253340, Note_off_c, 0, 62, 65
2, 253344, Note_on_c, 0, 72, 68
2, 253436, Note_off_c, 0, 72, 65
2, 253440, Note_on_c, 0, 67, 68
2, 253532, Note_off_c, 0, 67, 65
2, 253536, Note_on_c, 0, 71, 68
2, 253628, Note_off_c, 0, 71, 65
2, 253632, Note_on_c, 0, 60, 70
2, 253724, Note_off_c, 0, 60, 65
2, 253728, Note_on_c, 0, 76, 68
2, 253820, Note_off_c, 0, 76, 65
2, 253824, Note_on_c, 0, 75, 68
2, 253916, Note_off_c, 0, 75, 65
2, 253920, Note_on_c, 0, 76, 68
2, 254012, Note_off_c, 0, 76, 65
2, 254016, Note_on_c, 0, 75, 68
2, 254108, Note_off_c, 0, 75, 65
2, 254112, Note_on_c, 0, 76, 68
2, 254204, Note_off_c, 0, 76, 65
2, 254304, Note_on_c, 0, 79, 69
2, 254396, Note_off_c, 0, 79, 65
2, 254400, Note_on_c, 0, 78, 68
2, 254492, Note_off_c, 0, 78, 65
2, 254496, Note_on_c, 0, 79, 69
2, 254588, Note_off_c, 0, 79, 65
2, 254592, Note_on_c, 0, 78, 68
2, 254684, Note_off_c, 0, 78, 65
2, 254688, Note_on_c, 0, 79, 68
2, 254780, Note_off_c, 0, 79, 65
2, 254784, Note_on_c, 0, 62, 68
2, 255356, Note_off_c, 0, 62, 65
2, 255360, Note_on_c, 0, 69, 68
2, 255404, Note_off_c, 0, 69, 65
2, 255408, Note_on_c, 0, 71, 68
2, 255452, Note_off_c, 0, 71, 65
2, 255456, Note_on_c, 0, 69, 68
2, 255500, Note_off_c, 0, 69, 65
2, 255504, Note_on_c, 0, 71, 68
2, 255548, Note_off_c, 0, 71, 65
2, 255552, Note_on_c, 0, 69, 68
2, 255596, Note_off_c, 0, 69, 65
2, 255600, Note_on_c, 0, 71, 68
2, 255644, Note_off_c, 0, 71, 65
2, 255648, Note_on_c, 0, 69, 68
2, 255692, Note_off_c, 0, 69, 65
2, 255696, Note_on_c, 0, 71, 68
2, 255740, Note_off_c, 0, 71, 65
2, 255744, Note_on_c, 0, 69, 68
2, 255788, Note_off_c, 0, 69, 65
2, 255792, Note_on_c, 0, 71, 68
2, 255836, Note_off_c, 0, 71, 65
2, 255840, Note_on_c, 0, 67, 68
2, 255884, Note_off_c, 0, 67, 65
2, 255888, Note_on_c, 0, 69, 68
2, 255932, Note_off_c, 0, 69, 65
2, 255936, Note_on_c, 0, 71, 68
2, 256028, Note_off_c, 0, 71, 65
2, 256032, Note_on_c, 0, 74, 68
2, 256124, Note_off_c, 0, 74, 65
2, 256128, Note_on_c, 0, 79, 68
2, 256220, Note_off_c, 0, 79, 65
2, 256224, Note_on_c, 0, 71, 68
2, 256316, Note_off_c, 0, 71, 65
2, 256320, Note_on_c, 0, 69, 68
2, 256412, Note_off_c, 0, 69, 65
2, 256416, Note_on_c, 0, 78, 68
2, 256508, Note_off_c, 0, 78, 65
2, 256512, Note_on_c, 0, 67, 68
2, 256604, Note_off_c, 0, 67, 65
2, 256608, Note_on_c, 0, 76, 68
2, 256700, Note_off_c, 0, 76, 65
2, 256704, Note_on_c, 0, 66, 68
2, 256796, Note_off_c, 0, 66, 65
2, 256800, Note_on_c, 0, 74, 68
2, 256892, Note_off_c, 0, 74, 65
2, 256896, Note_on_c, 0, 64, 68
2, 256988, Note_off_c, 0, 64, 65
2, 256992, Note_on_c, 0, 72, 68
2, 257084, Note_off_c, 0, 72, 65
2, 257088, Note_on_c, 0, 62, 69
2, 257180, Note_off_c, 0, 62, 65
2, 257184, Note_on_c, 0, 71, 68
2, 257276, Note_off_c, 0, 71, 65
2, 257280, Note_on_c, 0, 60, 70
2, 257372, Note_off_c, 0, 60, 65
2, 257376, Note_on_c, 0, 69, 68
2, 257468, Note_off_c, 0, 69, 65
2, 257472, Note_on_c, 0, 59, 71
2, 257564, Note_off_c, 0, 59, 65
2, 257568, Note_on_c, 0, 67, 68
2, 257660, Note_off_c, 0, 67, 65
2, 257664, Note_on_c, 0, 57, 72
2, 257756, Note_off_c, 0, 57, 65
2, 257760, Note_on_c, 0, 66, 68
2, 257852, Note_off_c, 0, 66, 65
2, 257856, Note_on_c, 0, 62, 69
2, 257948, Note_off_c, 0, 62, 65
2, 257952, Note_on_c, 0, 72, 68
2, 258044, Note_off_c, 0, 72, 65
2, 258048, Note_on_c, 0, 67, 68
2, 258140, Note_off_c, 0, 67, 65
2, 258144, Note_on_c, 0, 71, 68
2, 258236, Note_off_c, 0, 71, 65
2, 258240, Note_on_c, 0, 60, 70
2, 258332, Note_off_c, 0, 60, 65
2, 258336, Note_on_c, 0, 76, 68
2, 258428, Note_off_c, 0, 76, 65
2, 258432, Note_on_c, 0, 75, 68
2, 258524, Note_off_c, 0, 75, 65
2, 258528, Note_on_c, 0, 76, 68
2, 258620, Note_off_c, 0, 76, 65
2, 258624, Note_on_c, 0, 75, 68
2, 258716, Note_off_c, 0, 75, 65
2, 258720, Note_on_c, 0, 76, 68
2, 258812, Note_off_c, 0, 76, 65
2, 258912, Note_on_c, 0, 88, 74
2, 259004, Note_off_c, 0, 88, 65
2, 259008, Note_on_c, 0, 87, 73
2, 259100, Note_off_c, 0, 87, 65
2, 259104, Note_on_c, 0, 88, 74
2, 259196, Note_off_c, 0, 88, 65
2, 259200, Note_on_c, 0, 87, 73
2, 259292, Note_off_c, 0, 87, 65
2, 259296, Note_on_c, 0, 88, 74
2, 259388, Note_off_c, 0, 88, 65
2, 259392, Note_on_c, 0, 62, 70
2, 259964, Note_off_c, 0, 62, 65
2, 259968, Note_on_c, 0, 81, 70
2, 260012, Note_off_c, 0, 81, 65
2, 260016, Note_on_c, 0, 83, 71
2, 260060, Note_off_c, 0, 83, 65
2, 260064, Note_on_c, 0, 81, 70
2, 260108, Note_off_c, 0, 81, 65
2, 260112, Note_on_c, 0, 83, 71
2, 260156, Note_off_c, 0, 83, 65
2, 260160, Note_on_c, 0, 81, 70
2, 260204, Note_off_c, 0, 81, 65
2, 260208, Note_on_c, 0, 83, 71
2, 260252, Note_off_c, 0, 83, 65
2, 260256, Note_on_c, 0, 81, 70
2, 260300, Note_off_c, 0, 81, 65
2, 260304, Note_on_c, 0, 83, 71
2, 260348, Note_off_c, 0, 83, 65
2, 260352, Note_on_c, 0, 81, 70
2, 260396, Note_off_c, 0, 81, 65
2, 260400, Note_on_c, 0, 83, 71
2, 260444, Note_off_c, 0, 83, 65
2, 260448, Note_on_c, 0, 79, 69
2, 260492, Note_off_c, 0, 79, 65
2, 260496, Note_on_c, 0, 81, 70
2, 260540, Note_off_c, 0, 81, 65
2, 260544, Note_on_c, 0, 79, 69
2, 260636, Note_off_c, 0, 79, 65
2, 260736, Note_on_c, 0, 81, 70
2, 260828, Note_off_c, 0, 81, 65
2, 260928, Note_on_c, 0, 83, 71
2, 261020, Note_off_c, 0, 83, 65
2, 261120, Note_on_c, 0, 84, 72
2, 261212, Note_off_c, 0, 84, 65
2, 261312, Note_on_c, 0, 86, 73
2, 261404, Note_off_c, 0, 86, 65
2, 261504, Note_on_c, 0, 88, 74
2, 261596, Note_off_c, 0, 88, 65
2, 261696, Note_on_c, 0, 86, 73
2, 262460, Note_off_c, 0, 86, 65
2, 262464, Note_on_c, 0, 84, 72
2, 262652, Note_off_c, 0, 84, 65
2, 262656, Note_on_c, 0, 81, 70
2, 262844, Note_off_c, 0, 81, 65
2, 262848, Note_on_c, 0, 79, 69
2, 262940, Note_off_c, 0, 79, 65
2, 263040, Note_on_c, 0, 78, 68
2, 263132, Note_off_c, 0, 78, 65
2, 263232, Note_on_c, 0, 79, 69
2, 263324, Note_off_c, 0, 79, 65
2, 263424, Note_on_c, 0, 81, 69
2, 263516, Note_off_c, 0, 81, 65
2, 263616, Note_on_c, 0, 83, 70
2, 263708, Note_off_c, 0, 83, 65
2, 263808, Note_on_c, 0, 84, 72
2, 263900, Note_off_c, 0, 84, 65
2, 264000, Note_on_c, 0, 83, 71
2, 264764, Note_off_c, 0, 83, 65
2, 264768, Note_on_c, 0, 81, 71
2, 264956, Note_off_c, 0, 81, 65
2, 264960, Note_on_c, 0, 78, 70
2, 265148, Note_off_c, 0, 78, 65
2, 265344, Note_on_c, 0, 76, 68
2, 265436, Note_off_c, 0, 76, 65
2, 265536, Note_on_c, 0, 78, 68
2, 265628, Note_off_c, 0, 78, 65
2, 265728, Note_on_c, 0, 79, 69
2, 265820, Note_off_c, 0, 79, 65
2, 265920, Note_on_c, 0, 81, 70
2, 266012, Note_off_c, 0, 81, 65
2, 266112, Note_on_c, 0, 83, 71
2, 266204, Note_off_c, 0, 83, 65
2, 266304, Note_on_c, 0, 81, 70
2, 267068, Note_off_c, 0, 81, 65
2, 267072, Note_on_c, 0, 79, 70
2, 267260, Note_off_c, 0, 79, 65
2, 267264, Note_on_c, 0, 76, 69
2, 267452, Note_off_c, 0, 76, 65
2, 267456, Note_on_c, 0, 74, 68
2, 267548, Note_off_c, 0, 74, 65
2, 267648, Note_on_c, 0, 78, 68
2, 267836, Note_off_c, 0, 78, 65
2, 267840, Note_on_c, 0, 74, 68
2, 268028, Note_off_c, 0, 74, 65
2, 268032, Note_on_c, 0, 81, 70
2, 268124, Note_off_c, 0, 81, 65
2, 268800, Note_on_c, 0, 78, 68
2, 268988, Note_off_c, 0, 78, 65
2, 268992, Note_on_c, 0, 74, 68
2, 269180, Note_off_c, 0, 74, 65
2, 269184, Note_on_c, 0, 81, 70
2, 269372, Note_off_c, 0, 81, 65
2, 269952, Note_on_c, 0, 81, 70
2, 270140, Note_off_c, 0, 81, 65
2, 270144, Note_on_c, 0, 81, 70
2, 270332, Note_off_c, 0, 81, 65
2, 270336, Note_on_c, 0, 81, 70
2, 270524, Note_off_c, 0, 81, 65
2, 270528, Note_on_c, 0, 81, 70
2, 270716, Note_off_c, 0, 81, 65
2, 270720, Note_on_c, 0, 81, 70
2, 270908, Note_off_c, 0, 81, 65
2, 270912, Note_on_c, 0, 85, 72
2, 271484, Note_off_c, 0, 85, 65
2, 271488, Note_on_c, 0, 86, 73
2, 271676, Note_off_c, 0, 86, 65
2, 272064, Note_on_c, 0, 73, 68
2, 272636, Note_off_c, 0, 73, 65
2, 272640, Note_on_c, 0, 74, 68
2, 272828, Note_off_c, 0, 74, 65
2, 273216, Note_on_c, 0, 61, 68
2, 273788, Note_off_c, 0, 61, 65
2, 273792, Note_on_c, 0, 62, 68
2, 273980, Note_off_c, 0, 62, 65
2, 274560, Note_on_c, 0, 61, 68
2, 274748, Note_off_c, 0, 61, 65
2, 274752, Note_on_c, 0, 62, 68
2, 274940, Note_off_c, 0, 62, 65
2, 274944, Note_on_c, 0, 66, 68
2, 275132, Note_off_c, 0, 66, 65
2, 275712, Note_on_c, 0, 61, 68
2, 275900, Note_off_c, 0, 61, 65
2, 275904, Note_on_c, 0, 62, 68
2, 276092, Note_off_c, 0, 62, 65
2, 276096, Note_on_c, 0, 69, 68
2, 276284, Note_off_c, 0, 69, 65
2, 276864, Note_on_c, 0, 61, 68
2, 277052, Note_off_c, 0, 61, 65
2, 277056, Note_on_c, 0, 62, 68
2, 277244, Note_off_c, 0, 62, 65
2, 277248, Note_on_c, 0, 72, 68
2, 277436, Note_off_c, 0, 72, 65
2, 277440, Note_on_c, 0, 78, 68
2, 277628, Note_off_c, 0, 78, 65
2, 277632, Note_on_c, 0, 81, 70
2, 277820, Note_off_c, 0, 81, 65
2, 277820, Control_c, 0, 1, 55
2, 277824, Note_on_c, 0, 84, 72
2, 278396, Note_off_c, 0, 84, 65
2, 278400, Note_on_c, 0, 84, 72
2, 278588, Note_off_c, 0, 84, 65
2, 278592, Note_on_c, 0, 83, 71
2, 278780, Note_off_c, 0, 83, 65
2, 278784, Note_on_c, 0, 86, 73
2, 278972, Note_off_c, 0, 86, 65
2, 278976, Note_on_c, 0, 88, 74
2, 279164, Note_off_c, 0, 88, 65
2, 279168, Note_on_c, 0, 84, 71
2, 279356, Note_off_c, 0, 84, 65
2, 279360, Note_on_c, 0, 81, 70
2, 279548, Note_off_c, 0, 81, 65
2, 279552, Note_on_c, 0, 78, 68
2, 279740, Note_off_c, 0, 78, 65
2, 279744, Note_on_c, 0, 79, 69
2, 279932, Note_off_c, 0, 79, 65
2, 279936, Note_on_c, 0, 80, 69
2, 280124, Note_off_c, 0, 80, 65
2, 280128, Note_on_c, 0, 81, 70
2, 280316, Note_off_c, 0, 81, 65
2, 280320, Note_on_c, 0, 78, 68
2, 280508, Note_off_c, 0, 78, 65
2, 280512, Note_on_c, 0, 74, 68
2, 280700, Note_off_c, 0, 74, 65
2, 280704, Note_on_c, 0, 72, 68
2, 280892, Note_off_c, 0, 72, 65
2, 280896, Note_on_c, 0, 74, 68
2, 281084, Note_off_c, 0, 74, 65
2, 281088, Note_on_c, 0, 75, 68
2, 281276, Note_off_c, 0, 75, 65
2, 281280, Note_on_c, 0, 76, 68
2, 281468, Note_off_c, 0, 76, 65
2, 281472, Note_on_c, 0, 72, 68
2, 281660, Note_off_c, 0, 72, 65
2, 281664, Note_on_c, 0, 69, 68
2, 281852, Note_off_c, 0, 69, 65
2, 281856, Note_on_c, 0, 66, 68
2, 282044, Note_off_c, 0, 66, 65
2, 282048, Note_on_c, 0, 67, 68
2, 282236, Note_off_c, 0, 67, 65
2, 282240, Note_on_c, 0, 68, 68
2, 282428, Note_off_c, 0, 68, 65
2, 282432, Note_on_c, 0, 69, 68
2, 282620, Note_off_c, 0, 69, 65
2, 282624, Note_on_c, 0, 66, 68
2, 282812, Note_off_c, 0, 66, 65
2, 282816, Note_on_c, 0, 62, 68
2, 283004, Note_off_c, 0, 62, 65
2, 283008, Note_on_c, 0, 60, 68
2, 283196, Note_off_c, 0, 60, 65
2, 283200, Note_on_c, 0, 59, 68
2, 283388, Note_off_c, 0, 59, 65
2, 283392, Note_on_c, 0, 57, 68
2, 283580, Note_off_c, 0, 57, 65
2, 283584, Note_on_c, 0, 64, 68
2, 283772, Note_off_c, 0, 64, 65
2, 283776, Note_on_c, 0, 62, 68
2, 283964, Note_off_c, 0, 62, 65
2, 283968, Note_on_c, 0, 60, 68
2, 284156, Note_off_c, 0, 60, 65
2, 284160, Note_on_c, 0, 69, 68
2, 284348, Note_off_c, 0, 69, 65
2, 284352, Note_on_c, 0, 67, 68
2, 284540, Note_off_c, 0, 67, 65
2, 284544, Note_on_c, 0, 66, 68
2, 284732, Note_off_c, 0, 66, 65
2, 284736, Note_on_c, 0, 72, 68
2, 284924, Note_off_c, 0, 72, 65
2, 284928, Note_on_c, 0, 71, 68
2, 285116, Note_off_c, 0, 71, 65
2, 285120, Note_on_c, 0, 69, 68
2, 285308, Note_off_c, 0, 69, 65
2, 285312, Note_on_c, 0, 76, 68
2, 285596, Note_off_c, 0, 76, 65
2, 285600, Note_on_c, 0, 74, 68
2, 285688, Note_off_c, 0, 74, 65
2, 285696, Note_on_c, 0, 72, 68
2, 285784, Note_off_c, 0, 72, 65
2, 285792, Note_on_c, 0, 69, 68
2, 285880, Note_off_c, 0, 69, 65
2, 285888, Note_on_c, 0, 75, 68
2, 286172, Note_off_c, 0, 75, 65
2, 286176, Note_on_c, 0, 74, 68
2, 286264, Note_off_c, 0, 74, 65
2, 286272, Note_on_c, 0, 72, 68
2, 286360, Note_off_c, 0, 72, 65
2, 286368, Note_on_c, 0, 69, 68
2, 286456, Note_off_c, 0, 69, 65
2, 286464, Note_on_c, 0, 62, 69
2, 286464, Note_on_c, 0, 71, 68
2, 286464, Note_on_c, 0, 55, 71
2, 286508, Note_off_c, 0, 71, 65
2, 286508, Note_off_c, 0, 55, 65
2, 286512, Note_on_c, 0, 74, 68
2, 286556, Note_off_c, 0, 62, 65
2, 286844, Note_off_c, 0, 74, 65
2, 286848, Note_on_c, 0, 72, 68
2, 286940, Note_off_c, 0, 72, 65
2, 286944, Note_on_c, 0, 69, 68
2, 287036, Note_off_c, 0, 69, 65
2, 287040, Note_on_c, 0, 67, 68
2, 287132, Note_off_c, 0, 67, 65
2, 287232, Note_on_c, 0, 67, 68
2, 287324, Note_off_c, 0, 67, 65
2, 287424, Note_on_c, 0, 67, 68
2, 287516, Note_off_c, 0, 67, 65
2, 287616, Note_on_c, 0, 64, 73
2, 287660, Note_off_c, 0, 64, 65
2, 287664, Note_on_c, 0, 76, 68
2, 287996, Note_off_c, 0, 76, 65
2, 288000, Note_on_c, 0, 72, 68
2, 288092, Note_off_c, 0, 72, 65
2, 288096, Note_on_c, 0, 69, 68
2, 288188, Note_off_c, 0, 69, 65
2, 288192, Note_on_c, 0, 67, 73
2, 288236, Note_off_c, 0, 67, 65
2, 288240, Note_on_c, 0, 66, 68
2, 288284, Note_off_c, 0, 66, 65
2, 288384, Note_on_c, 0, 66, 68
2, 288476, Note_off_c, 0, 66, 65
2, 288576, Note_on_c, 0, 66, 68
2, 288668, Note_off_c, 0, 66, 65
2, 288768, Note_on_c, 0, 67, 68
2, 288954, Program_c, 0, 45
2, 288956, Note_off_c, 0, 67, 64
2, 288960, Note_on_c, 0, 62, 68
2, 289052, Note_off_c, 0, 62, 65
2, 289146, Program_c, 0, 40
2, 289152, Note_on_c, 0, 71, 68
2, 289340, Note_off_c, 0, 71, 65
2, 289344, Note_on_c, 0, 69, 68
2, 289530, Program_c, 0, 45
2, 289532, Note_off_c, 0, 69, 65
2, 289536, Note_on_c, 0, 62, 68
2, 289628, Note_off_c, 0, 62, 65
2, 289722, Program_c, 0, 40
2, 289728, Note_on_c, 0, 74, 68
2, 289916, Note_off_c, 0, 74, 65
2, 289920, Note_on_c, 0, 71, 68
2, 290106, Program_c, 0, 45
2, 290108, Note_off_c, 0, 71, 65
2, 290112, Note_on_c, 0, 62, 68
2, 290204, Note_off_c, 0, 62, 65
2, 290298, Program_c, 0, 40
2, 290304, Note_on_c, 0, 74, 68
2, 290492, Note_off_c, 0, 74, 65
2, 290496, Note_on_c, 0, 71, 68
2, 290876, Note_off_c, 0, 71, 65
2, 290880, Note_on_c, 0, 69, 68
2, 291068, Note_off_c, 0, 69, 65
2, 291072, Note_on_c, 0, 85, 72
2, 291164, Note_off_c, 0, 85, 65
2, 291168, Note_on_c, 0, 86, 73
2, 291260, Note_off_c, 0, 86, 65
2, 291264, Note_on_c, 0, 85, 72
2, 291356, Note_off_c, 0, 85, 65
2, 291360, Note_on_c, 0, 86, 73
2, 291452, Note_off_c, 0, 86, 65
2, 291456, Note_on_c, 0, 84, 72
2, 291548, Note_off_c, 0, 84, 65
2, 291552, Note_on_c, 0, 81, 70
2, 291644, Note_off_c, 0, 81, 65
2, 291644, Control_c, 0, 1, 55
2, 291648, Note_on_c, 0, 81, 74
2, 291692, Note_off_c, 0, 81, 65
2, 291696, Note_on_c, 0, 79, 69
2, 291836, Note_off_c, 0, 79, 65
2, 291840, Note_on_c, 0, 79, 68
2, 292028, Note_off_c, 0, 79, 65
2, 292032, Note_on_c, 0, 79, 68
2, 292220, Note_off_c, 0, 79, 65
2, 292224, Note_on_c, 0, 87, 73
2, 292316, Note_off_c, 0, 87, 65
2, 292320, Note_on_c, 0, 88, 74
2, 292412, Note_off_c, 0, 88, 65
2, 292416, Note_on_c, 0, 87, 73
2, 292508, Note_off_c, 0, 87, 65
2, 292512, Note_on_c, 0, 88, 74
2, 292604, Note_off_c, 0, 88, 65
2, 292608, Note_on_c, 0, 84, 72
2, 292700, Note_off_c, 0, 84, 65
2, 292704, Note_on_c, 0, 81, 70
2, 292796, Note_off_c, 0, 81, 65
2, 292800, Note_on_c, 0, 79, 74
2, 292844, Note_off_c, 0, 79, 65
2, 292848, Note_on_c, 0, 78, 68
2, 292892, Note_off_c, 0, 78, 65
2, 292992, Note_on_c, 0, 78, 68
2, 293084, Note_off_c, 0, 78, 65
2, 293184, Note_on_c, 0, 78, 68
2, 293276, Note_off_c, 0, 78, 65
2, 293376, Note_on_c, 0, 79, 69
2, 293564, Note_off_c, 0, 79, 65
2, 293568, Note_on_c, 0, 83, 71
2, 293756, Note_off_c, 0, 83, 65
2, 293760, Note_on_c, 0, 86, 73
2, 293852, Note_off_c, 0, 86, 65
2, 293952, Note_on_c, 0, 88, 74
2, 294140, Note_off_c, 0, 88, 65
2, 294144, Note_on_c, 0, 91, 76
2, 294332, Note_off_c, 0, 91, 65
2, 294336, Note_on_c, 0, 84, 72
2, 294428, Note_off_c, 0, 84, 65
2, 294528, Note_on_c, 0, 83, 71
2, 294716, Note_off_c, 0, 83, 65
2, 294720, Note_on_c, 0, 84, 72
2, 294908, Note_off_c, 0, 84, 65
2, 294912, Note_on_c, 0, 81, 70
2, 295004, Note_off_c, 0, 81, 65
2, 295104, Note_on_c, 0, 81, 70
2, 295484, Note_off_c, 0, 81, 65
2, 295488, Note_on_c, 0, 79, 69
2, 295676, Note_off_c, 0, 79, 65
2, 309504, Note_on_c, 0, 67, 68
2, 309692, Note_off_c, 0, 67, 65
2, 309696, Note_on_c, 0, 69, 68
2, 309884, Note_off_c, 0, 69, 65
2, 309888, Note_on_c, 0, 71, 68
2, 310076, Note_off_c, 0, 71, 65
2, 310080, Note_on_c, 0, 72, 68
2, 310268, Note_off_c, 0, 72, 65
2, 310272, Note_on_c, 0, 74, 68
2, 310460, Note_off_c, 0, 74, 65
2, 310464, Note_on_c, 0, 76, 68
2, 310652, Note_off_c, 0, 76, 65
2, 310656, Note_on_c, 0, 74, 68
2, 311420, Note_off_c, 0, 74, 65
2, 311424, Note_on_c, 0, 72, 68
2, 311612, Note_off_c, 0, 72, 65
2, 311616, Note_on_c, 0, 69, 68
2, 311804, Note_off_c, 0, 69, 65
2, 311808, Note_on_c, 0, 67, 68
2, 311996, Note_off_c, 0, 67, 65
2, 312000, Note_on_c, 0, 69, 68
2, 312188, Note_off_c, 0, 69, 65
2, 312192, Note_on_c, 0, 71, 68
2, 312380, Note_off_c, 0, 71, 65
2, 312384, Note_on_c, 0, 72, 68
2, 312572, Note_off_c, 0, 72, 65
2, 312576, Note_on_c, 0, 74, 68
2, 312764, Note_off_c, 0, 74, 65
2, 312768, Note_on_c, 0, 76, 68
2, 312956, Note_off_c, 0, 76, 65
2, 312960, Note_on_c, 0, 74, 68
2, 313724, Note_off_c, 0, 74, 65
2, 313728, Note_on_c, 0, 72, 68
2, 313916, Note_off_c, 0, 72, 65
2, 313920, Note_on_c, 0, 69, 68
2, 314108, Note_off_c, 0, 69, 65
2, 314112, Note_on_c, 0, 67, 68
2, 314300, Note_off_c, 0, 67, 65
2, 314880, Note_on_c, 0, 72, 68
2, 315068, Note_off_c, 0, 72, 65
2, 315072, Note_on_c, 0, 69, 68
2, 315260, Note_off_c, 0, 69, 65
2, 315264, Note_on_c, 0, 67, 68
2, 315452, Note_off_c, 0, 67, 65
2, 316032, Note_on_c, 0, 72, 68
2, 316220, Note_off_c, 0, 72, 65
2, 316224, Note_on_c, 0, 69, 68
2, 316412, Note_off_c, 0, 69, 65
2, 316416, Note_on_c, 0, 67, 68
2, 316604, Note_off_c, 0, 67, 65
2, 316604, End_track
3, 0, Start_track
3, 0, Title_t, "Concerto #3"
3, 0, Control_c, 1, 0, 0
3, 0, Program_c, 1, 48
3, 0, Control_c, 1, 7, 80
3, 0, Control_c, 1, 10, 37
3, 0, Control_c, 1, 91, 68
3, 0, Control_c, 1, 93, 54
3, 0, Key_signature, 1, "major"
3, 0, Control_c, 1, 121, 0
3, 96, Control_c, 1, 10, 53
3, 192, Control_c, 1, 91, 73
3, 288, Program_c, 1, 48
3, 594, Note_on_c, 1, 62, 94
3, 624, Note_on_c, 1, 71, 89
3, 624, Note_on_c, 1, 74, 89
3, 638, Note_off_c, 1, 62, 64
3, 956, Note_off_c, 1, 71, 64
3, 956, Note_off_c, 1, 74, 64
3, 960, Note_on_c, 1, 72, 89
3, 960, Note_on_c, 1, 69, 89
3, 1052, Note_off_c, 1, 72, 64
3, 1052, Note_off_c, 1, 69, 64
3, 1056, Note_on_c, 1, 69, 89
3, 1056, Note_on_c, 1, 66, 89
3, 1148, Note_off_c, 1, 69, 64
3, 1148, Note_off_c, 1, 66, 64
3, 1152, Note_on_c, 1, 67, 89
3, 1244, Note_off_c, 1, 67, 64
3, 1344, Note_on_c, 1, 67, 89
3, 1344, Note_on_c, 1, 59, 89
3, 1436, Note_off_c, 1, 67, 64
3, 1436, Note_off_c, 1, 59, 64
3, 1536, Note_on_c, 1, 67, 89
3, 1536, Note_on_c, 1, 59, 89
3, 1628, Note_off_c, 1, 67, 64
3, 1628, Note_off_c, 1, 59, 64
3, 1728, Note_on_c, 1, 64, 94
3, 1772, Note_off_c, 1, 64, 64
3, 1776, Note_on_c, 1, 67, 89
3, 1776, Note_on_c, 1, 76, 89
3, 1916, Note_off_c, 1, 67, 64
3, 1920, Note_on_c, 1, 72, 89
3, 2108, Note_off_c, 1, 76, 64
3, 2108, Note_off_c, 1, 72, 64
3, 2112, Note_on_c, 1, 72, 89
3, 2112, Note_on_c, 1, 64, 89
3, 2204, Note_off_c, 1, 72, 64
3, 2204, Note_off_c, 1, 64, 64
3, 2208, Note_on_c, 1, 69, 89
3, 2208, Note_on_c, 1, 60, 89
3, 2300, Note_off_c, 1, 69, 64
3, 2300, Note_off_c, 1, 60, 64
3, 2304, Note_on_c, 1, 66, 89
3, 2304, Note_on_c, 1, 57, 89
3, 2396, Note_off_c, 1, 66, 64
3, 2396, Note_off_c, 1, 57, 64
3, 2496, Note_on_c, 1, 66, 89
3, 2496, Note_on_c, 1, 57, 89
3, 2588, Note_off_c, 1, 66, 64
3, 2588, Note_off_c, 1, 57, 64
3, 2688, Note_on_c, 1, 66, 89
3, 2688, Note_on_c, 1, 57, 89
3, 2780, Note_off_c, 1, 66, 64
3, 2780, Note_off_c, 1, 57, 64
3, 2880, Note_on_c, 1, 67, 89
3, 3068, Note_off_c, 1, 67, 64
3, 3072, Note_on_c, 1, 62, 89
3, 3260, Note_off_c, 1, 62, 64
3, 3264, Note_on_c, 1, 67, 89
3, 3264, Note_on_c, 1, 71, 89
3, 3356, Note_off_c, 1, 67, 64
3, 3356, Note_off_c, 1, 71, 64
3, 3360, Note_on_c, 1, 62, 89
3, 3452, Note_off_c, 1, 62, 64
3, 3456, Note_on_c, 1, 69, 89
3, 3644, Note_off_c, 1, 69, 64
3, 3648, Note_on_c, 1, 62, 89
3, 3836, Note_off_c, 1, 62, 64
3, 3840, Note_on_c, 1, 72, 89
3, 3840, Note_on_c, 1, 69, 89
3, 3932, Note_off_c, 1, 72, 64
3, 3932, Note_off_c, 1, 69, 64
3, 3936, Note_on_c, 1, 62, 89
3, 4028, Note_off_c, 1, 62, 64
3, 4032, Note_on_c, 1, 71, 89
3, 4220, Note_off_c, 1, 71, 64
3, 4224, Note_on_c, 1, 62, 89
3, 4412, Note_off_c, 1, 62, 64
3, 4416, Note_on_c, 1, 74, 89
3, 4416, Note_on_c, 1, 71, 89
3, 4508, Note_off_c, 1, 74, 64
3, 4508, Note_off_c, 1, 71, 64
3, 4512, Note_on_c, 1, 67, 89
3, 4604, Note_off_c, 1, 67, 64
3, 4608, Note_on_c, 1, 71, 89
3, 4608, Note_on_c, 1, 67, 89
3, 4988, Note_off_c, 1, 71, 64
3, 4988, Note_off_c, 1, 67, 64
3, 4992, Note_on_c, 1, 69, 89
3, 4992, Note_on_c, 1, 66, 89
3, 5180, Note_off_c, 1, 69, 64
3, 5180, Note_off_c, 1, 66, 64
3, 5184, Note_on_c, 1, 62, 94
3, 5228, Note_off_c, 1, 62, 64
3, 5232, Note_on_c, 1, 71, 89
3, 5232, Note_on_c, 1, 74, 89
3, 5564, Note_off_c, 1, 71, 64
3, 5564, Note_off_c, 1, 74, 64
3, 5568, Note_on_c, 1, 72, 89
3, 5568, Note_on_c, 1, 69, 89
3, 5660, Note_off_c, 1, 72, 64
3, 5660, Note_off_c, 1, 69, 64
3, 5664, Note_on_c, 1, 69, 89
3, 5664, Note_on_c, 1, 66, 89
3, 5756, Note_off_c, 1, 69, 64
3, 5756, Note_off_c, 1, 66, 64
3, 5760, Note_on_c, 1, 69, 94
3, 5760, Note_on_c, 1, 66, 94
3, 5804, Note_off_c, 1, 69, 64
3, 5804, Note_off_c, 1, 66, 64
3, 5808, Note_on_c, 1, 67, 89
3, 5852, Note_off_c, 1, 67, 64
3, 5952, Note_on_c, 1, 67, 89
3, 5952, Note_on_c, 1, 59, 89
3, 6044, Note_off_c, 1, 67, 64
3, 6044, Note_off_c, 1, 59, 64
3, 6144, Note_on_c, 1, 67, 89
3, 6144, Note_on_c, 1, 59, 89
3, 6236, Note_off_c, 1, 67, 64
3, 6236, Note_off_c, 1, 59, 64
3, 6336, Note_on_c, 1, 64, 94
3, 6380, Note_off_c, 1, 64, 64
3, 6384, Note_on_c, 1, 67, 89
3, 6384, Note_on_c, 1, 76, 89
3, 6524, Note_off_c, 1, 67, 64
3, 6528, Note_on_c, 1, 72, 89
3, 6716, Note_off_c, 1, 72, 64
3, 6720, Note_on_c, 1, 72, 89
3, 6720, Note_on_c, 1, 64, 89
3, 6764, Note_off_c, 1, 76, 64
3, 6812, Note_off_c, 1, 72, 64
3, 6812, Note_off_c, 1, 64, 64
3, 6816, Note_on_c, 1, 69, 89
3, 6816, Note_on_c, 1, 60, 89
3, 6908, Note_off_c, 1, 69, 64
3, 6908, Note_off_c, 1, 60, 64
3, 6912, Note_on_c, 1, 59, 89
3, 6912, Note_on_c, 1, 67, 89
3, 6956, Note_off_c, 1, 59, 64
3, 6956, Note_off_c, 1, 67, 64
3, 6960, Note_on_c, 1, 66, 89
3, 6960, Note_on_c, 1, 57, 89
3, 7100, Note_off_c, 1, 66, 64
3, 7100, Note_off_c, 1, 57, 64
3, 7104, Note_on_c, 1, 66, 89
3, 7104, Note_on_c, 1, 57, 89
3, 7292, Note_off_c, 1, 66, 64
3, 7292, Note_off_c, 1, 57, 64
3, 7296, Note_on_c, 1, 66, 89
3, 7296, Note_on_c, 1, 57, 89
3, 7484, Note_off_c, 1, 66, 64
3, 7484, Note_off_c, 1, 57, 64
3, 7488, Note_on_c, 1, 67, 89
3, 7676, Note_off_c, 1, 67, 64
3, 7680, Note_on_c, 1, 71, 89
3, 7868, Note_off_c, 1, 71, 64
3, 7872, Note_on_c, 1, 74, 89
3, 7964, Note_off_c, 1, 74, 64
3, 8064, Note_on_c, 1, 76, 89
3, 8252, Note_off_c, 1, 76, 64
3, 8256, Note_on_c, 1, 79, 89
3, 8444, Note_off_c, 1, 79, 64
3, 8448, Note_on_c, 1, 72, 89
3, 8540, Note_off_c, 1, 72, 64
3, 8640, Note_on_c, 1, 71, 89
3, 8640, Note_on_c, 1, 67, 89
3, 8828, Note_off_c, 1, 71, 64
3, 8828, Note_off_c, 1, 67, 64
3, 8832, Note_on_c, 1, 72, 89
3, 8832, Note_on_c, 1, 69, 89
3, 9020, Note_off_c, 1, 72, 64
3, 9020, Note_off_c, 1, 69, 64
3, 9024, Note_on_c, 1, 69, 89
3, 9024, Note_on_c, 1, 66, 89
3, 9116, Note_off_c, 1, 69, 64
3, 9116, Note_off_c, 1, 66, 64
3, 9216, Note_on_c, 1, 67, 89
3, 9308, Note_off_c, 1, 67, 64
3, 9600, Note_on_c, 1, 71, 68
3, 9600, Note_on_c, 1, 67, 68
3, 9692, Note_off_c, 1, 71, 64
3, 9692, Note_off_c, 1, 67, 64
3, 9792, Note_on_c, 1, 74, 73
3, 9792, Note_on_c, 1, 66, 68
3, 9836, Note_off_c, 1, 74, 64
3, 9840, Note_on_c, 1, 72, 68
3, 9884, Note_off_c, 1, 66, 64
3, 9884, Note_off_c, 1, 72, 64
3, 9984, Note_on_c, 1, 62, 68
3, 10076, Note_off_c, 1, 62, 64
3, 10176, Note_on_c, 1, 71, 68
3, 10176, Note_on_c, 1, 67, 68
3, 10268, Note_off_c, 1, 71, 64
3, 10268, Note_off_c, 1, 67, 64
3, 10368, Note_on_c, 1, 74, 73
3, 10368, Note_on_c, 1, 66, 68
3, 10412, Note_off_c, 1, 74, 64
3, 10416, Note_on_c, 1, 72, 68
3, 10460, Note_off_c, 1, 66, 64
3, 10460, Note_off_c, 1, 72, 64
3, 10560, Note_on_c, 1, 62, 68
3, 10652, Note_off_c, 1, 62, 64
3, 10752, Note_on_c, 1, 71, 68
3, 10752, Note_on_c, 1, 67, 68
3, 10844, Note_off_c, 1, 71, 64
3, 10844, Note_off_c, 1, 67, 64
3, 10944, Note_on_c, 1, 71, 73
3, 10988, Note_off_c, 1, 71, 64
3, 10992, Note_on_c, 1, 69, 68
3, 10992, Note_on_c, 1, 67, 68
3, 11036, Note_off_c, 1, 69, 64
3, 11036, Note_off_c, 1, 67, 64
3, 11136, Note_on_c, 1, 69, 68
3, 11136, Note_on_c, 1, 67, 68
3, 11228, Note_off_c, 1, 69, 64
3, 11228, Note_off_c, 1, 67, 64
3, 11328, Note_on_c, 1, 69, 68
3, 11328, Note_on_c, 1, 67, 68
3, 11420, Note_off_c, 1, 69, 64
3, 11420, Note_off_c, 1, 67, 64
3, 11520, Note_on_c, 1, 71, 73
3, 11564, Note_off_c, 1, 71, 64
3, 11568, Note_on_c, 1, 69, 68
3, 11568, Note_on_c, 1, 66, 68
3, 11708, Note_off_c, 1, 69, 64
3, 11708, Note_off_c, 1, 66, 64
3, 11904, Note_on_c, 1, 71, 89
3, 12092, Note_off_c, 1, 71, 64
3, 12096, Note_on_c, 1, 72, 89
3, 12188, Note_off_c, 1, 72, 64
3, 12192, Note_on_c, 1, 71, 89
3, 12284, Note_off_c, 1, 71, 64
3, 12288, Note_on_c, 1, 72, 89
3, 12380, Note_off_c, 1, 72, 64
3, 12384, Note_on_c, 1, 74, 89
3, 12476, Note_off_c, 1, 74, 64
3, 12480, Note_on_c, 1, 76, 89
3, 12572, Note_off_c, 1, 76, 64
3, 12576, Note_on_c, 1, 78, 89
3, 12668, Note_off_c, 1, 78, 64
3, 12672, Note_on_c, 1, 79, 89
3, 12764, Note_off_c, 1, 79, 64
3, 12768, Note_on_c, 1, 81, 89
3, 12860, Note_off_c, 1, 81, 64
3, 12864, Note_on_c, 1, 83, 89
3, 12956, Note_off_c, 1, 83, 64
3, 12960, Note_on_c, 1, 79, 89
3, 13052, Note_off_c, 1, 79, 64
3, 13056, Note_on_c, 1, 74, 89
3, 13148, Note_off_c, 1, 74, 64
3, 13152, Note_on_c, 1, 71, 89
3, 13244, Note_off_c, 1, 71, 64
3, 13248, Note_on_c, 1, 72, 89
3, 13340, Note_off_c, 1, 72, 64
3, 13344, Note_on_c, 1, 74, 89
3, 13436, Note_off_c, 1, 74, 64
3, 13440, Note_on_c, 1, 76, 89
3, 13532, Note_off_c, 1, 76, 64
3, 13536, Note_on_c, 1, 72, 89
3, 13628, Note_off_c, 1, 72, 64
3, 13632, Note_on_c, 1, 69, 89
3, 13724, Note_off_c, 1, 69, 64
3, 13728, Note_on_c, 1, 66, 89
3, 13820, Note_off_c, 1, 66, 64
3, 13824, Note_on_c, 1, 67, 89
3, 14012, Note_off_c, 1, 67, 64
3, 14400, Note_on_c, 1, 67, 68
3, 14492, Note_off_c, 1, 67, 64
3, 14592, Note_on_c, 1, 69, 68
3, 14684, Note_off_c, 1, 69, 64
3, 14784, Note_on_c, 1, 71, 68
3, 14876, Note_off_c, 1, 71, 64
3, 14976, Note_on_c, 1, 72, 68
3, 15068, Note_off_c, 1, 72, 64
3, 15168, Note_on_c, 1, 74, 68
3, 15260, Note_off_c, 1, 74, 64
3, 15360, Note_on_c, 1, 76, 68
3, 15452, Note_off_c, 1, 76, 64
3, 15552, Note_on_c, 1, 74, 68
3, 16316, Note_off_c, 1, 74, 64
3, 16320, Note_on_c, 1, 72, 68
3, 16508, Note_off_c, 1, 72, 64
3, 16512, Note_on_c, 1, 69, 68
3, 16700, Note_off_c, 1, 69, 64
3, 16704, Note_on_c, 1, 67, 68
3, 16796, Note_off_c, 1, 67, 64
3, 16896, Note_on_c, 1, 69, 68
3, 16988, Note_off_c, 1, 69, 64
3, 17088, Note_on_c, 1, 71, 68
3, 17180, Note_off_c, 1, 71, 64
3, 17280, Note_on_c, 1, 72, 68
3, 17372, Note_off_c, 1, 72, 64
3, 17472, Note_on_c, 1, 74, 68
3, 17564, Note_off_c, 1, 74, 64
3, 17664, Note_on_c, 1, 76, 68
3, 17756, Note_off_c, 1, 76, 64
3, 17856, Note_on_c, 1, 74, 68
3, 18620, Note_off_c, 1, 74, 64
3, 18624, Note_on_c, 1, 72, 68
3, 18812, Note_off_c, 1, 72, 64
3, 18816, Note_on_c, 1, 69, 68
3, 19004, Note_off_c, 1, 69, 64
3, 19008, Note_on_c, 1, 67, 68
3, 19100, Note_off_c, 1, 67, 64
3, 19200, Note_on_c, 1, 71, 68
3, 19388, Note_off_c, 1, 71, 64
3, 19392, Note_on_c, 1, 67, 68
3, 19580, Note_off_c, 1, 67, 64
3, 19584, Note_on_c, 1, 74, 68
3, 19676, Note_off_c, 1, 74, 64
3, 19776, Note_on_c, 1, 72, 68
3, 19776, Note_on_c, 1, 69, 68
3, 19964, Note_off_c, 1, 72, 64
3, 19964, Note_off_c, 1, 69, 64
3, 19968, Note_on_c, 1, 69, 68
3, 19968, Note_on_c, 1, 66, 68
3, 20156, Note_off_c, 1, 69, 64
3, 20156, Note_off_c, 1, 66, 64
3, 20160, Note_on_c, 1, 67, 68
3, 20252, Note_off_c, 1, 67, 64
3, 20352, Note_on_c, 1, 71, 68
3, 20540, Note_off_c, 1, 71, 64
3, 20544, Note_on_c, 1, 67, 68
3, 20732, Note_off_c, 1, 67, 64
3, 20736, Note_on_c, 1, 74, 68
3, 20828, Note_off_c, 1, 74, 64
3, 20928, Note_on_c, 1, 72, 68
3, 20928, Note_on_c, 1, 69, 68
3, 21116, Note_off_c, 1, 72, 64
3, 21116, Note_off_c, 1, 69, 64
3, 21120, Note_on_c, 1, 69, 68
3, 21120, Note_on_c, 1, 66, 68
3, 21308, Note_off_c, 1, 69, 64
3, 21308, Note_off_c, 1, 66, 64
3, 21312, Note_on_c, 1, 67, 68
3, 21500, Note_off_c, 1, 67, 64
3, 21504, Note_on_c, 1, 74, 68
3, 21504, Note_on_c, 1, 71, 68
3, 21504, Note_on_c, 1, 67, 68
3, 21504, Note_on_c, 1, 59, 68
3, 21596, Note_off_c, 1, 74, 64
3, 21596, Note_off_c, 1, 71, 64
3, 21596, Note_off_c, 1, 67, 64
3, 21596, Note_off_c, 1, 59, 64
3, 21696, Note_on_c, 1, 74, 68
3, 21696, Note_on_c, 1, 71, 68
3, 21696, Note_on_c, 1, 67, 68
3, 21696, Note_on_c, 1, 59, 68
3, 21788, Note_off_c, 1, 74, 64
3, 21788, Note_off_c, 1, 71, 64
3, 21788, Note_off_c, 1, 67, 64
3, 21788, Note_off_c, 1, 59, 64
3, 21888, Note_on_c, 1, 67, 68
3, 21888, Note_on_c, 1, 59, 68
3, 21888, Note_on_c, 1, 74, 68
3, 21888, Note_on_c, 1, 71, 68
3, 21980, Note_off_c, 1, 67, 64
3, 21980, Note_off_c, 1, 59, 64
3, 21980, Note_off_c, 1, 74, 64
3, 21980, Note_off_c, 1, 71, 64
3, 22080, Note_on_c, 1, 67, 68
3, 22080, Note_on_c, 1, 59, 68
3, 22080, Note_on_c, 1, 74, 68
3, 22080, Note_on_c, 1, 71, 68
3, 22172, Note_off_c, 1, 67, 64
3, 22172, Note_off_c, 1, 59, 64
3, 22172, Note_off_c, 1, 74, 64
3, 22172, Note_off_c, 1, 71, 64
3, 22272, Note_on_c, 1, 67, 68
3, 22272, Note_on_c, 1, 59, 68
3, 22272, Note_on_c, 1, 74, 68
3, 22272, Note_on_c, 1, 71, 68
3, 22364, Note_off_c, 1, 67, 64
3, 22364, Note_off_c, 1, 59, 64
3, 22364, Note_off_c, 1, 74, 64
3, 22364, Note_off_c, 1, 71, 64
3, 22464, Note_on_c, 1, 72, 68
3, 22464, Note_on_c, 1, 69, 68
3, 22464, Note_on_c, 1, 62, 68
3, 22464, Note_on_c, 1, 78, 68
3, 23036, Note_off_c, 1, 72, 64
3, 23036, Note_off_c, 1, 69, 64
3, 23036, Note_off_c, 1, 62, 64
3, 23036, Note_off_c, 1, 78, 64
3, 23040, Note_on_c, 1, 79, 68
3, 23040, Note_on_c, 1, 71, 68
3, 23040, Note_on_c, 1, 67, 68
3, 23228, Note_off_c, 1, 79, 64
3, 23228, Note_off_c, 1, 71, 64
3, 23228, Note_off_c, 1, 67, 64
3, 23616, Note_on_c, 1, 71, 68
3, 23616, Note_on_c, 1, 55, 73
3, 23804, Note_off_c, 1, 71, 64
3, 23804, Note_off_c, 1, 55, 64
3, 23808, Note_on_c, 1, 71, 68
3, 23808, Note_on_c, 1, 67, 68
3, 23996, Note_off_c, 1, 71, 64
3, 23996, Note_off_c, 1, 67, 64
3, 24000, Note_on_c, 1, 71, 68
3, 24000, Note_on_c, 1, 67, 68
3, 24188, Note_off_c, 1, 71, 64
3, 24188, Note_off_c, 1, 67, 64
3, 24192, Note_on_c, 1, 71, 68
3, 24192, Note_on_c, 1, 67, 68
3, 24380, Note_off_c, 1, 71, 64
3, 24380, Note_off_c, 1, 67, 64
3, 24384, Note_on_c, 1, 71, 68
3, 24384, Note_on_c, 1, 67, 68
3, 24572, Note_off_c, 1, 71, 64
3, 24572, Note_off_c, 1, 67, 64
3, 24576, Note_on_c, 1, 71, 68
3, 24576, Note_on_c, 1, 67, 68
3, 24764, Note_off_c, 1, 71, 64
3, 24764, Note_off_c, 1, 67, 64
3, 24768, Note_on_c, 1, 71, 68
3, 24768, Note_on_c, 1, 55, 73
3, 24956, Note_off_c, 1, 71, 64
3, 24956, Note_off_c, 1, 55, 64
3, 24960, Note_on_c, 1, 71, 68
3, 24960, Note_on_c, 1, 67, 68
3, 25148, Note_off_c, 1, 71, 64
3, 25148, Note_off_c, 1, 67, 64
3, 25152, Note_on_c, 1, 71, 68
3, 25152, Note_on_c, 1, 67, 68
3, 25340, Note_off_c, 1, 71, 64
3, 25340, Note_off_c, 1, 67, 64
3, 25344, Note_on_c, 1, 71, 68
3, 25344, Note_on_c, 1, 67, 68
3, 25532, Note_off_c, 1, 71, 64
3, 25532, Note_off_c, 1, 67, 64
3, 25536, Note_on_c, 1, 71, 68
3, 25536, Note_on_c, 1, 67, 68
3, 25724, Note_off_c, 1, 71, 64
3, 25724, Note_off_c, 1, 67, 64
3, 25728, Note_on_c, 1, 71, 68
3, 25728, Note_on_c, 1, 67, 68
3, 25916, Note_off_c, 1, 71, 64
3, 25916, Note_off_c, 1, 67, 64
3, 25920, Note_on_c, 1, 55, 73
3, 25920, Note_on_c, 1, 72, 68
3, 26108, Note_off_c, 1, 55, 64
3, 26108, Note_off_c, 1, 72, 64
3, 26112, Note_on_c, 1, 67, 68
3, 26112, Note_on_c, 1, 72, 68
3, 26300, Note_off_c, 1, 67, 64
3, 26300, Note_off_c, 1, 72, 64
3, 26304, Note_on_c, 1, 67, 68
3, 26304, Note_on_c, 1, 72, 68
3, 26492, Note_off_c, 1, 67, 64
3, 26492, Note_off_c, 1, 72, 64
3, 26496, Note_on_c, 1, 72, 68
3, 26496, Note_on_c, 1, 67, 68
3, 26684, Note_off_c, 1, 72, 64
3, 26684, Note_off_c, 1, 67, 64
3, 26688, Note_on_c, 1, 72, 68
3, 26688, Note_on_c, 1, 67, 68
3, 26876, Note_off_c, 1, 72, 64
3, 26876, Note_off_c, 1, 67, 64
3, 26880, Note_on_c, 1, 72, 68
3, 26880, Note_on_c, 1, 67, 68
3, 27068, Note_off_c, 1, 72, 64
3, 27068, Note_off_c, 1, 67, 64
3, 27072, Note_on_c, 1, 71, 68
3, 27072, Note_on_c, 1, 55, 73
3, 27260, Note_off_c, 1, 71, 64
3, 27260, Note_off_c, 1, 55, 64
3, 27264, Note_on_c, 1, 71, 68
3, 27264, Note_on_c, 1, 67, 68
3, 27452, Note_off_c, 1, 71, 64
3, 27452, Note_off_c, 1, 67, 64
3, 27456, Note_on_c, 1, 71, 68
3, 27456, Note_on_c, 1, 67, 68
3, 27644, Note_off_c, 1, 71, 64
3, 27644, Note_off_c, 1, 67, 64
3, 27648, Note_on_c, 1, 71, 68
3, 27648, Note_on_c, 1, 67, 68
3, 27836, Note_off_c, 1, 71, 64
3, 27836, Note_off_c, 1, 67, 64
3, 27840, Note_on_c, 1, 71, 68
3, 27840, Note_on_c, 1, 67, 68
3, 28028, Note_off_c, 1, 71, 64
3, 28028, Note_off_c, 1, 67, 64
3, 28032, Note_on_c, 1, 71, 68
3, 28032, Note_on_c, 1, 67, 68
3, 28220, Note_off_c, 1, 71, 64
3, 28220, Note_off_c, 1, 67, 64
3, 28224, Note_on_c, 1, 66, 68
3, 28412, Note_off_c, 1, 66, 64
3, 28416, Note_on_c, 1, 74, 68
3, 28416, Note_on_c, 1, 66, 68
3, 28604, Note_off_c, 1, 74, 64
3, 28604, Note_off_c, 1, 66, 64
3, 28608, Note_on_c, 1, 69, 68
3, 28608, Note_on_c, 1, 66, 68
3, 28796, Note_off_c, 1, 69, 64
3, 28796, Note_off_c, 1, 66, 64
3, 28800, Note_on_c, 1, 67, 68
3, 28988, Note_off_c, 1, 67, 64
3, 28992, Note_on_c, 1, 74, 68
3, 28992, Note_on_c, 1, 67, 68
3, 29180, Note_off_c, 1, 74, 64
3, 29180, Note_off_c, 1, 67, 64
3, 29184, Note_on_c, 1, 71, 68
3, 29184, Note_on_c, 1, 67, 68
3, 29372, Note_off_c, 1, 71, 64
3, 29372, Note_off_c, 1, 67, 64
3, 29376, Note_on_c, 1, 69, 68
3, 29564, Note_off_c, 1, 69, 64
3, 29568, Note_on_c, 1, 66, 68
3, 29756, Note_off_c, 1, 66, 64
3, 29760, Note_on_c, 1, 69, 68
3, 29760, Note_on_c, 1, 66, 68
3, 29948, Note_off_c, 1, 69, 64
3, 29948, Note_off_c, 1, 66, 64
3, 29952, Note_on_c, 1, 74, 68
3, 29952, Note_on_c, 1, 62, 69
3, 30140, Note_off_c, 1, 74, 64
3, 30140, Note_off_c, 1, 62, 64
3, 30144, Note_on_c, 1, 69, 68
3, 30144, Note_on_c, 1, 62, 69
3, 30332, Note_off_c, 1, 69, 64
3, 30332, Note_off_c, 1, 62, 64
3, 30336, Note_on_c, 1, 72, 68
3, 30336, Note_on_c, 1, 62, 69
3, 30524, Note_off_c, 1, 72, 64
3, 30524, Note_off_c, 1, 62, 64
3, 30528, Note_on_c, 1, 71, 68
3, 30528, Note_on_c, 1, 67, 68
3, 30716, Note_off_c, 1, 71, 64
3, 30716, Note_off_c, 1, 67, 64
3, 30912, Note_on_c, 1, 67, 68
3, 30912, Note_on_c, 1, 59, 71
3, 31100, Note_off_c, 1, 67, 64
3, 31100, Note_off_c, 1, 59, 64
3, 31104, Note_on_c, 1, 67, 68
3, 31104, Note_on_c, 1, 60, 70
3, 31292, Note_off_c, 1, 67, 64
3, 31292, Note_off_c, 1, 60, 64
3, 31488, Note_on_c, 1, 69, 68
3, 31488, Note_on_c, 1, 60, 70
3, 31676, Note_off_c, 1, 69, 64
3, 31676, Note_off_c, 1, 60, 64
3, 31680, Note_on_c, 1, 67, 68
3, 31680, Note_on_c, 1, 62, 69
3, 31772, Note_off_c, 1, 62, 64
3, 31872, Note_on_c, 1, 62, 69
3, 31964, Note_off_c, 1, 62, 64
3, 31968, Note_on_c, 1, 61, 70
3, 32060, Note_off_c, 1, 61, 64
3, 32064, Note_on_c, 1, 62, 69
3, 32156, Note_off_c, 1, 62, 64
3, 32160, Note_on_c, 1, 61, 70
3, 32252, Note_off_c, 1, 67, 64
3, 32252, Note_off_c, 1, 61, 64
3, 32256, Note_on_c, 1, 66, 68
3, 32256, Note_on_c, 1, 62, 69
3, 32444, Note_off_c, 1, 66, 64
3, 32444, Note_off_c, 1, 62, 64
3, 32832, Note_on_c, 1, 71, 68
3, 32832, Note_on_c, 1, 55, 73
3, 33020, Note_off_c, 1, 71, 64
3, 33020, Note_off_c, 1, 55, 64
3, 33024, Note_on_c, 1, 71, 68
3, 33024, Note_on_c, 1, 67, 68
3, 33212, Note_off_c, 1, 71, 64
3, 33212, Note_off_c, 1, 67, 64
3, 33216, Note_on_c, 1, 71, 68
3, 33216, Note_on_c, 1, 67, 68
3, 33404, Note_off_c, 1, 71, 64
3, 33404, Note_off_c, 1, 67, 64
3, 33408, Note_on_c, 1, 71, 68
3, 33408, Note_on_c, 1, 67, 68
3, 33596, Note_off_c, 1, 71, 64
3, 33596, Note_off_c, 1, 67, 64
3, 33600, Note_on_c, 1, 71, 68
3, 33600, Note_on_c, 1, 67, 68
3, 33788, Note_off_c, 1, 71, 64
3, 33788, Note_off_c, 1, 67, 64
3, 33792, Note_on_c, 1, 71, 68
3, 33792, Note_on_c, 1, 67, 68
3, 33980, Note_off_c, 1, 71, 64
3, 33980, Note_off_c, 1, 67, 64
3, 33984, Note_on_c, 1, 55, 73
3, 33984, Note_on_c, 1, 71, 68
3, 34172, Note_off_c, 1, 55, 64
3, 34172, Note_off_c, 1, 71, 64
3, 34176, Note_on_c, 1, 71, 68
3, 34176, Note_on_c, 1, 67, 68
3, 34364, Note_off_c, 1, 71, 64
3, 34364, Note_off_c, 1, 67, 64
3, 34368, Note_on_c, 1, 71, 68
3, 34368, Note_on_c, 1, 67, 68
3, 34556, Note_off_c, 1, 71, 64
3, 34556, Note_off_c, 1, 67, 64
3, 34560, Note_on_c, 1, 71, 68
3, 34560, Note_on_c, 1, 67, 68
3, 34748, Note_off_c, 1, 71, 64
3, 34748, Note_off_c, 1, 67, 64
3, 34752, Note_on_c, 1, 71, 68
3, 34752, Note_on_c, 1, 67, 68
3, 34940, Note_off_c, 1, 71, 64
3, 34940, Note_off_c, 1, 67, 64
3, 34944, Note_on_c, 1, 71, 68
3, 34944, Note_on_c, 1, 67, 68
3, 35132, Note_off_c, 1, 71, 64
3, 35132, Note_off_c, 1, 67, 64
3, 35136, Note_on_c, 1, 72, 68
3, 35136, Note_on_c, 1, 55, 73
3, 35324, Note_off_c, 1, 72, 64
3, 35324, Note_off_c, 1, 55, 64
3, 35328, Note_on_c, 1, 72, 68
3, 35328, Note_on_c, 1, 67, 68
3, 35516, Note_off_c, 1, 72, 64
3, 35516, Note_off_c, 1, 67, 64
3, 35520, Note_on_c, 1, 72, 68
3, 35520, Note_on_c, 1, 67, 68
3, 35708, Note_off_c, 1, 72, 64
3, 35708, Note_off_c, 1, 67, 64
3, 35712, Note_on_c, 1, 72, 68
3, 35712, Note_on_c, 1, 67, 68
3, 35900, Note_off_c, 1, 72, 64
3, 35900, Note_off_c, 1, 67, 64
3, 35904, Note_on_c, 1, 72, 68
3, 35904, Note_on_c, 1, 67, 68
3, 36092, Note_off_c, 1, 72, 64
3, 36092, Note_off_c, 1, 67, 64
3, 36096, Note_on_c, 1, 72, 68
3, 36096, Note_on_c, 1, 67, 68
3, 36284, Note_off_c, 1, 72, 64
3, 36284, Note_off_c, 1, 67, 64
3, 36288, Note_on_c, 1, 71, 68
3, 36288, Note_on_c, 1, 55, 73
3, 36476, Note_off_c, 1, 71, 64
3, 36476, Note_off_c, 1, 55, 64
3, 36480, Note_on_c, 1, 71, 68
3, 36480, Note_on_c, 1, 67, 68
3, 36668, Note_off_c, 1, 71, 64
3, 36668, Note_off_c, 1, 67, 64
3, 36672, Note_on_c, 1, 71, 68
3, 36672, Note_on_c, 1, 67, 68
3, 36860, Note_off_c, 1, 71, 64
3, 36860, Note_off_c, 1, 67, 64
3, 36864, Note_on_c, 1, 71, 68
3, 36864, Note_on_c, 1, 67, 68
3, 37052, Note_off_c, 1, 71, 64
3, 37052, Note_off_c, 1, 67, 64
3, 37056, Note_on_c, 1, 71, 68
3, 37056, Note_on_c, 1, 67, 68
3, 37244, Note_off_c, 1, 71, 64
3, 37244, Note_off_c, 1, 67, 64
3, 37248, Note_on_c, 1, 71, 68
3, 37248, Note_on_c, 1, 67, 68
3, 37436, Note_off_c, 1, 71, 64
3, 37436, Note_off_c, 1, 67, 64
3, 37440, Note_on_c, 1, 71, 68
3, 37440, Note_on_c, 1, 64, 68
3, 37628, Note_off_c, 1, 71, 64
3, 37628, Note_off_c, 1, 64, 64
3, 37632, Note_on_c, 1, 67, 68
3, 37632, Note_on_c, 1, 64, 68
3, 37820, Note_off_c, 1, 67, 64
3, 37820, Note_off_c, 1, 64, 64
3, 37824, Note_on_c, 1, 67, 68
3, 37824, Note_on_c, 1, 64, 68
3, 37916, Note_off_c, 1, 67, 64
3, 37916, Note_off_c, 1, 64, 64
3, 38016, Note_on_c, 1, 67, 68
3, 38016, Note_on_c, 1, 57, 72
3, 38204, Note_off_c, 1, 67, 64
3, 38204, Note_off_c, 1, 57, 64
3, 38208, Note_on_c, 1, 64, 68
3, 38208, Note_on_c, 1, 57, 72
3, 38396, Note_off_c, 1, 64, 64
3, 38396, Note_off_c, 1, 57, 64
3, 38400, Note_on_c, 1, 64, 68
3, 38400, Note_on_c, 1, 57, 72
3, 38492, Note_off_c, 1, 64, 64
3, 38492, Note_off_c, 1, 57, 64
3, 38592, Note_on_c, 1, 74, 68
3, 38592, Note_on_c, 1, 66, 68
3, 38780, Note_off_c, 1, 74, 64
3, 38780, Note_off_c, 1, 66, 64
3, 38784, Note_on_c, 1, 69, 68
3, 38784, Note_on_c, 1, 66, 68
3, 38972, Note_off_c, 1, 69, 64
3, 38972, Note_off_c, 1, 66, 64
3, 38976, Note_on_c, 1, 69, 68
3, 38976, Note_on_c, 1, 66, 68
3, 39068, Note_off_c, 1, 69, 64
3, 39068, Note_off_c, 1, 66, 64
3, 39168, Note_on_c, 1, 69, 68
3, 39168, Note_on_c, 1, 59, 71
3, 39356, Note_off_c, 1, 69, 64
3, 39356, Note_off_c, 1, 59, 64
3, 39360, Note_on_c, 1, 66, 68
3, 39360, Note_on_c, 1, 59, 71
3, 39548, Note_off_c, 1, 66, 64
3, 39548, Note_off_c, 1, 59, 64
3, 39552, Note_on_c, 1, 66, 68
3, 39552, Note_on_c, 1, 59, 71
3, 39644, Note_off_c, 1, 66, 64
3, 39644, Note_off_c, 1, 59, 64
3, 39744, Note_on_c, 1, 55, 73
3, 39836, Note_off_c, 1, 55, 64
3, 39936, Note_on_c, 1, 74, 68
3, 39936, Note_on_c, 1, 67, 68
3, 40124, Note_off_c, 1, 74, 64
3, 40124, Note_off_c, 1, 67, 64
3, 40128, Note_on_c, 1, 75, 68
3, 40128, Note_on_c, 1, 66, 68
3, 40316, Note_off_c, 1, 75, 64
3, 40316, Note_off_c, 1, 66, 64
3, 40320, Note_on_c, 1, 76, 68
3, 40320, Note_on_c, 1, 64, 68
3, 40508, Note_off_c, 1, 76, 64
3, 40508, Note_off_c, 1, 64, 64
3, 40512, Note_on_c, 1, 69, 68
3, 40512, Note_on_c, 1, 66, 68
3, 40700, Note_off_c, 1, 69, 64
3, 40700, Note_off_c, 1, 66, 64
3, 40704, Note_on_c, 1, 67, 68
3, 40704, Note_on_c, 1, 71, 68
3, 40892, Note_off_c, 1, 67, 64
3, 40892, Note_off_c, 1, 71, 64
3, 40896, Note_on_c, 1, 66, 68
3, 41276, Note_off_c, 1, 66, 64
3, 41280, Note_on_c, 1, 64, 68
3, 41468, Note_off_c, 1, 64, 64
3, 41472, Note_on_c, 1, 69, 89
3, 41564, Note_off_c, 1, 69, 64
3, 41568, Note_on_c, 1, 71, 89
3, 41660, Note_off_c, 1, 71, 64
3, 41664, Note_on_c, 1, 69, 89
3, 41756, Note_off_c, 1, 69, 64
3, 41760, Note_on_c, 1, 67, 89
3, 41852, Note_off_c, 1, 67, 64
3, 41856, Note_on_c, 1, 66, 89
3, 41948, Note_off_c, 1, 66, 64
3, 41952, Note_on_c, 1, 64, 89
3, 42044, Note_off_c, 1, 64, 64
3, 42048, Note_on_c, 1, 62, 89
3, 42236, Note_off_c, 1, 62, 64
3, 42624, Note_on_c, 1, 74, 68
3, 42812, Note_off_c, 1, 74, 64
3, 43200, Note_on_c, 1, 73, 68
3, 43388, Note_off_c, 1, 73, 64
3, 43776, Note_on_c, 1, 73, 68
3, 43776, Note_on_c, 1, 69, 68
3, 43964, Note_off_c, 1, 73, 64
3, 43964, Note_off_c, 1, 69, 64
3, 43968, Note_on_c, 1, 74, 68
3, 43968, Note_on_c, 1, 69, 68
3, 44156, Note_off_c, 1, 74, 64
3, 44156, Note_off_c, 1, 69, 64
3, 44160, Note_on_c, 1, 76, 68
3, 44160, Note_on_c, 1, 69, 68
3, 44348, Note_off_c, 1, 76, 64
3, 44348, Note_off_c, 1, 69, 64
3, 44352, Note_on_c, 1, 74, 68
3, 44352, Note_on_c, 1, 62, 69
3, 44540, Note_off_c, 1, 74, 64
3, 44540, Note_off_c, 1, 62, 64
3, 44928, Note_on_c, 1, 74, 68
3, 45116, Note_off_c, 1, 74, 64
3, 45504, Note_on_c, 1, 73, 68
3, 45692, Note_off_c, 1, 73, 64
3, 46080, Note_on_c, 1, 73, 68
3, 46080, Note_on_c, 1, 69, 68
3, 46268, Note_off_c, 1, 73, 64
3, 46268, Note_off_c, 1, 69, 64
3, 46272, Note_on_c, 1, 74, 68
3, 46272, Note_on_c, 1, 69, 68
3, 46460, Note_off_c, 1, 74, 64
3, 46460, Note_off_c, 1, 69, 64
3, 46464, Note_on_c, 1, 76, 68
3, 46464, Note_on_c, 1, 69, 68
3, 46652, Note_off_c, 1, 76, 64
3, 46652, Note_off_c, 1, 69, 64
3, 46656, Note_on_c, 1, 74, 68
3, 46656, Note_on_c, 1, 62, 69
3, 46844, Note_off_c, 1, 74, 64
3, 46844, Note_off_c, 1, 62, 64
3, 48960, Note_on_c, 1, 64, 68
3, 48960, Note_on_c, 1, 62, 68
3, 48960, Note_on_c, 1, 59, 68
3, 49148, Note_off_c, 1, 64, 64
3, 49148, Note_off_c, 1, 62, 64
3, 49148, Note_off_c, 1, 59, 64
3, 49152, Note_on_c, 1, 64, 68
3, 49152, Note_on_c, 1, 62, 68
3, 49152, Note_on_c, 1, 59, 68
3, 49340, Note_off_c, 1, 64, 64
3, 49340, Note_off_c, 1, 62, 64
3, 49340, Note_off_c, 1, 59, 64
3, 49344, Note_on_c, 1, 64, 68
3, 49344, Note_on_c, 1, 62, 68
3, 49344, Note_on_c, 1, 59, 68
3, 49532, Note_off_c, 1, 64, 64
3, 49532, Note_off_c, 1, 62, 64
3, 49532, Note_off_c, 1, 59, 64
3, 49536, Note_on_c, 1, 64, 68
3, 49536, Note_on_c, 1, 62, 68
3, 49536, Note_on_c, 1, 59, 68
3, 49724, Note_off_c, 1, 64, 64
3, 49724, Note_off_c, 1, 62, 64
3, 49724, Note_off_c, 1, 59, 64
3, 49728, Note_on_c, 1, 64, 68
3, 49728, Note_on_c, 1, 62, 68
3, 49728, Note_on_c, 1, 59, 68
3, 49916, Note_off_c, 1, 64, 64
3, 49916, Note_off_c, 1, 62, 64
3, 49916, Note_off_c, 1, 59, 64
3, 49920, Note_on_c, 1, 64, 68
3, 49920, Note_on_c, 1, 62, 68
3, 49920, Note_on_c, 1, 59, 68
3, 50108, Note_off_c, 1, 64, 64
3, 50108, Note_off_c, 1, 62, 64
3, 50108, Note_off_c, 1, 59, 64
3, 50112, Note_on_c, 1, 66, 68
3, 50112, Note_on_c, 1, 62, 68
3, 50112, Note_on_c, 1, 57, 68
3, 50300, Note_off_c, 1, 66, 64
3, 50300, Note_off_c, 1, 62, 64
3, 50300, Note_off_c, 1, 57, 64
3, 50304, Note_on_c, 1, 66, 68
3, 50304, Note_on_c, 1, 62, 68
3, 50304, Note_on_c, 1, 57, 68
3, 50492, Note_off_c, 1, 66, 64
3, 50492, Note_off_c, 1, 62, 64
3, 50492, Note_off_c, 1, 57, 64
3, 50496, Note_on_c, 1, 66, 68
3, 50496, Note_on_c, 1, 62, 68
3, 50496, Note_on_c, 1, 57, 68
3, 50684, Note_off_c, 1, 66, 64
3, 50684, Note_off_c, 1, 62, 64
3, 50684, Note_off_c, 1, 57, 64
3, 50688, Note_on_c, 1, 67, 68
3, 50688, Note_on_c, 1, 60, 68
3, 50688, Note_on_c, 1, 57, 68
3, 50876, Note_off_c, 1, 67, 64
3, 50876, Note_off_c, 1, 60, 64
3, 50876, Note_off_c, 1, 57, 64
3, 50880, Note_on_c, 1, 67, 68
3, 50880, Note_on_c, 1, 60, 68
3, 50880, Note_on_c, 1, 57, 68
3, 51068, Note_off_c, 1, 67, 64
3, 51068, Note_off_c, 1, 60, 64
3, 51068, Note_off_c, 1, 57, 64
3, 51072, Note_on_c, 1, 67, 68
3, 51072, Note_on_c, 1, 60, 68
3, 51072, Note_on_c, 1, 57, 68
3, 51260, Note_off_c, 1, 67, 64
3, 51260, Note_off_c, 1, 60, 64
3, 51260, Note_off_c, 1, 57, 64
3, 51264, Note_on_c, 1, 66, 68
3, 51264, Note_on_c, 1, 62, 68
3, 51264, Note_on_c, 1, 57, 68
3, 51452, Note_off_c, 1, 66, 64
3, 51452, Note_off_c, 1, 62, 64
3, 51452, Note_off_c, 1, 57, 64
3, 53568, Note_on_c, 1, 64, 68
3, 53568, Note_on_c, 1, 62, 68
3, 53568, Note_on_c, 1, 59, 68
3, 53756, Note_off_c, 1, 64, 64
3, 53756, Note_off_c, 1, 62, 64
3, 53756, Note_off_c, 1, 59, 64
3, 53760, Note_on_c, 1, 64, 68
3, 53760, Note_on_c, 1, 62, 68
3, 53760, Note_on_c, 1, 59, 68
3, 53948, Note_off_c, 1, 64, 64
3, 53948, Note_off_c, 1, 62, 64
3, 53948, Note_off_c, 1, 59, 64
3, 53952, Note_on_c, 1, 64, 68
3, 53952, Note_on_c, 1, 62, 68
3, 53952, Note_on_c, 1, 59, 68
3, 54140, Note_off_c, 1, 64, 64
3, 54140, Note_off_c, 1, 62, 64
3, 54140, Note_off_c, 1, 59, 64
3, 54144, Note_on_c, 1, 64, 68
3, 54144, Note_on_c, 1, 62, 68
3, 54144, Note_on_c, 1, 59, 68
3, 54332, Note_off_c, 1, 64, 64
3, 54332, Note_off_c, 1, 62, 64
3, 54332, Note_off_c, 1, 59, 64
3, 54336, Note_on_c, 1, 64, 68
3, 54336, Note_on_c, 1, 62, 68
3, 54336, Note_on_c, 1, 59, 68
3, 54524, Note_off_c, 1, 64, 64
3, 54524, Note_off_c, 1, 62, 64
3, 54524, Note_off_c, 1, 59, 64
3, 54528, Note_on_c, 1, 64, 68
3, 54528, Note_on_c, 1, 62, 68
3, 54528, Note_on_c, 1, 59, 68
3, 54716, Note_off_c, 1, 64, 64
3, 54716, Note_off_c, 1, 62, 64
3, 54716, Note_off_c, 1, 59, 64
3, 54720, Note_on_c, 1, 66, 68
3, 54720, Note_on_c, 1, 62, 68
3, 54720, Note_on_c, 1, 57, 68
3, 54908, Note_off_c, 1, 66, 64
3, 54908, Note_off_c, 1, 62, 64
3, 54908, Note_off_c, 1, 57, 64
3, 54912, Note_on_c, 1, 66, 68
3, 54912, Note_on_c, 1, 62, 68
3, 54912, Note_on_c, 1, 57, 68
3, 55100, Note_off_c, 1, 66, 64
3, 55100, Note_off_c, 1, 62, 64
3, 55100, Note_off_c, 1, 57, 64
3, 55104, Note_on_c, 1, 66, 68
3, 55104, Note_on_c, 1, 62, 68
3, 55104, Note_on_c, 1, 57, 68
3, 55292, Note_off_c, 1, 66, 64
3, 55292, Note_off_c, 1, 62, 64
3, 55292, Note_off_c, 1, 57, 64
3, 55296, Note_on_c, 1, 67, 68
3, 55296, Note_on_c, 1, 61, 68
3, 55296, Note_on_c, 1, 57, 68
3, 55484, Note_off_c, 1, 67, 64
3, 55484, Note_off_c, 1, 61, 64
3, 55484, Note_off_c, 1, 57, 64
3, 55488, Note_on_c, 1, 67, 68
3, 55488, Note_on_c, 1, 61, 68
3, 55488, Note_on_c, 1, 57, 68
3, 55676, Note_off_c, 1, 67, 64
3, 55676, Note_off_c, 1, 61, 64
3, 55676, Note_off_c, 1, 57, 64
3, 55680, Note_on_c, 1, 67, 68
3, 55680, Note_on_c, 1, 61, 68
3, 55680, Note_on_c, 1, 57, 68
3, 55868, Note_off_c, 1, 67, 64
3, 55868, Note_off_c, 1, 61, 64
3, 55868, Note_off_c, 1, 57, 64
3, 55872, Note_on_c, 1, 66, 68
3, 55872, Note_on_c, 1, 62, 68
3, 55872, Note_on_c, 1, 57, 68
3, 56060, Note_off_c, 1, 66, 64
3, 56060, Note_off_c, 1, 62, 64
3, 56060, Note_off_c, 1, 57, 64
3, 57600, Note_on_c, 1, 73, 68
3, 57600, Note_on_c, 1, 67, 68
3, 58172, Note_off_c, 1, 73, 64
3, 58172, Note_off_c, 1, 67, 64
3, 58176, Note_on_c, 1, 74, 68
3, 58176, Note_on_c, 1, 66, 68
3, 58364, Note_off_c, 1, 74, 64
3, 58364, Note_off_c, 1, 66, 64
3, 59904, Note_on_c, 1, 73, 68
3, 59904, Note_on_c, 1, 67, 68
3, 60476, Note_off_c, 1, 73, 64
3, 60476, Note_off_c, 1, 67, 64
3, 60480, Note_on_c, 1, 74, 68
3, 60480, Note_on_c, 1, 66, 68
3, 60668, Note_off_c, 1, 74, 64
3, 60668, Note_off_c, 1, 66, 64
3, 61248, Note_on_c, 1, 67, 68
3, 61248, Note_on_c, 1, 64, 68
3, 61436, Note_off_c, 1, 67, 64
3, 61436, Note_off_c, 1, 64, 64
3, 61440, Note_on_c, 1, 64, 68
3, 61440, Note_on_c, 1, 61, 68
3, 61628, Note_off_c, 1, 64, 64
3, 61628, Note_off_c, 1, 61, 64
3, 61632, Note_on_c, 1, 62, 68
3, 61724, Note_off_c, 1, 62, 64
3, 62400, Note_on_c, 1, 67, 68
3, 62400, Note_on_c, 1, 64, 68
3, 62588, Note_off_c, 1, 67, 64
3, 62588, Note_off_c, 1, 64, 64
3, 62592, Note_on_c, 1, 64, 68
3, 62592, Note_on_c, 1, 61, 68
3, 62780, Note_off_c, 1, 64, 64
3, 62780, Note_off_c, 1, 61, 64
3, 62784, Note_on_c, 1, 62, 68
3, 62972, Note_off_c, 1, 62, 64
3, 62976, Note_on_c, 1, 78, 68
3, 62976, Note_on_c, 1, 74, 68
3, 63068, Note_off_c, 1, 78, 64
3, 63068, Note_off_c, 1, 74, 64
3, 63168, Note_on_c, 1, 78, 68
3, 63168, Note_on_c, 1, 74, 68
3, 63260, Note_off_c, 1, 78, 64
3, 63260, Note_off_c, 1, 74, 64
3, 63360, Note_on_c, 1, 78, 68
3, 63360, Note_on_c, 1, 74, 68
3, 63452, Note_off_c, 1, 78, 64
3, 63452, Note_off_c, 1, 74, 64
3, 63552, Note_on_c, 1, 78, 68
3, 63552, Note_on_c, 1, 74, 68
3, 63644, Note_off_c, 1, 78, 64
3, 63644, Note_off_c, 1, 74, 64
3, 63744, Note_on_c, 1, 78, 68
3, 63744, Note_on_c, 1, 74, 68
3, 63836, Note_off_c, 1, 78, 64
3, 63836, Note_off_c, 1, 74, 64
3, 63936, Note_on_c, 1, 79, 68
3, 63936, Note_on_c, 1, 76, 68
3, 63936, Note_on_c, 1, 69, 68
3, 64508, Note_off_c, 1, 79, 64
3, 64508, Note_off_c, 1, 76, 64
3, 64508, Note_off_c, 1, 69, 64
3, 64512, Note_on_c, 1, 78, 68
3, 64512, Note_on_c, 1, 74, 68
3, 64512, Note_on_c, 1, 62, 68
3, 64700, Note_off_c, 1, 78, 64
3, 64700, Note_off_c, 1, 74, 64
3, 64700, Note_off_c, 1, 62, 64
3, 66240, Note_on_c, 1, 79, 68
3, 66240, Note_on_c, 1, 82, 68
3, 66812, Note_off_c, 1, 79, 64
3, 66812, Note_off_c, 1, 82, 64
3, 66816, Note_on_c, 1, 78, 68
3, 66816, Note_on_c, 1, 81, 68
3, 67004, Note_off_c, 1, 78, 64
3, 67004, Note_off_c, 1, 81, 64
3, 67392, Note_on_c, 1, 72, 68
3, 67392, Note_on_c, 1, 69, 68
3, 67392, Note_on_c, 1, 66, 68
3, 67392, Note_on_c, 1, 62, 68
3, 67484, Note_off_c, 1, 72, 64
3, 67484, Note_off_c, 1, 69, 64
3, 67484, Note_off_c, 1, 66, 64
3, 67484, Note_off_c, 1, 62, 64
3, 68160, Note_on_c, 1, 72, 68
3, 68160, Note_on_c, 1, 69, 68
3, 68160, Note_on_c, 1, 66, 68
3, 68160, Note_on_c, 1, 62, 68
3, 68252, Note_off_c, 1, 72, 64
3, 68252, Note_off_c, 1, 69, 64
3, 68252, Note_off_c, 1, 66, 64
3, 68252, Note_off_c, 1, 62, 64
3, 68352, Note_on_c, 1, 72, 68
3, 68352, Note_on_c, 1, 69, 68
3, 68352, Note_on_c, 1, 66, 68
3, 68352, Note_on_c, 1, 62, 68
3, 68444, Note_off_c, 1, 72, 64
3, 68444, Note_off_c, 1, 69, 64
3, 68444, Note_off_c, 1, 66, 64
3, 68444, Note_off_c, 1, 62, 64
3, 68544, Note_on_c, 1, 72, 68
3, 68544, Note_on_c, 1, 69, 68
3, 68544, Note_on_c, 1, 66, 68
3, 68544, Note_on_c, 1, 62, 68
3, 68636, Note_off_c, 1, 72, 64
3, 68636, Note_off_c, 1, 69, 64
3, 68636, Note_off_c, 1, 66, 64
3, 68636, Note_off_c, 1, 62, 64
3, 69312, Note_on_c, 1, 72, 68
3, 69312, Note_on_c, 1, 69, 68
3, 69312, Note_on_c, 1, 66, 68
3, 69312, Note_on_c, 1, 62, 68
3, 69404, Note_off_c, 1, 72, 64
3, 69404, Note_off_c, 1, 69, 64
3, 69404, Note_off_c, 1, 66, 64
3, 69404, Note_off_c, 1, 62, 64
3, 69504, Note_on_c, 1, 72, 68
3, 69504, Note_on_c, 1, 69, 68
3, 69504, Note_on_c, 1, 66, 68
3, 69504, Note_on_c, 1, 62, 68
3, 69596, Note_off_c, 1, 72, 64
3, 69596, Note_off_c, 1, 69, 64
3, 69596, Note_off_c, 1, 66, 64
3, 69596, Note_off_c, 1, 62, 64
3, 69696, Note_on_c, 1, 72, 68
3, 69696, Note_on_c, 1, 69, 68
3, 69696, Note_on_c, 1, 66, 68
3, 69696, Note_on_c, 1, 62, 68
3, 69788, Note_off_c, 1, 72, 64
3, 69788, Note_off_c, 1, 69, 64
3, 69788, Note_off_c, 1, 66, 64
3, 69788, Note_off_c, 1, 62, 64
3, 72000, Note_on_c, 1, 62, 73
3, 72000, Note_on_c, 1, 55, 68
3, 72044, Note_off_c, 1, 62, 64
3, 72048, Note_on_c, 1, 71, 68
3, 72092, Note_off_c, 1, 55, 64
3, 72192, Note_on_c, 1, 59, 68
3, 72284, Note_off_c, 1, 59, 64
3, 72380, Note_off_c, 1, 71, 64
3, 72384, Note_on_c, 1, 71, 68
3, 72384, Note_on_c, 1, 62, 68
3, 72476, Note_off_c, 1, 71, 64
3, 72476, Note_off_c, 1, 62, 64
3, 72480, Note_on_c, 1, 66, 68
3, 72572, Note_off_c, 1, 66, 64
3, 72576, Note_on_c, 1, 66, 73
3, 72576, Note_on_c, 1, 55, 68
3, 72620, Note_off_c, 1, 66, 64
3, 72624, Note_on_c, 1, 67, 68
3, 72764, Note_off_c, 1, 55, 64
3, 72764, Note_off_c, 1, 67, 64
3, 73152, Note_on_c, 1, 67, 68
3, 73152, Note_on_c, 1, 60, 68
3, 73244, Note_off_c, 1, 67, 64
3, 73244, Note_off_c, 1, 60, 64
3, 73344, Note_on_c, 1, 72, 68
3, 73344, Note_on_c, 1, 57, 68
3, 73436, Note_off_c, 1, 72, 64
3, 73436, Note_off_c, 1, 57, 64
3, 73536, Note_on_c, 1, 64, 68
3, 73536, Note_on_c, 1, 60, 68
3, 73628, Note_off_c, 1, 64, 64
3, 73628, Note_off_c, 1, 60, 64
3, 73728, Note_on_c, 1, 69, 68
3, 73728, Note_on_c, 1, 62, 68
3, 73916, Note_off_c, 1, 69, 64
3, 73916, Note_off_c, 1, 62, 64
3, 74496, Note_on_c, 1, 67, 68
3, 74684, Note_off_c, 1, 67, 64
3, 74688, Note_on_c, 1, 62, 68
3, 74876, Note_off_c, 1, 62, 64
3, 75072, Note_on_c, 1, 69, 68
3, 75260, Note_off_c, 1, 69, 64
3, 75264, Note_on_c, 1, 62, 68
3, 75452, Note_off_c, 1, 62, 64
3, 75648, Note_on_c, 1, 67, 68
3, 75836, Note_off_c, 1, 67, 64
3, 75840, Note_on_c, 1, 71, 68
3, 76028, Note_off_c, 1, 71, 64
3, 76032, Note_on_c, 1, 67, 68
3, 76412, Note_off_c, 1, 67, 64
3, 76416, Note_on_c, 1, 66, 68
3, 76604, Note_off_c, 1, 66, 64
3, 76608, Note_on_c, 1, 62, 94
3, 76652, Note_off_c, 1, 62, 64
3, 76656, Note_on_c, 1, 74, 89
3, 76656, Note_on_c, 1, 71, 89
3, 76988, Note_off_c, 1, 74, 64
3, 76988, Note_off_c, 1, 71, 64
3, 76992, Note_on_c, 1, 72, 89
3, 76992, Note_on_c, 1, 69, 89
3, 77084, Note_off_c, 1, 72, 64
3, 77084, Note_off_c, 1, 69, 64
3, 77088, Note_on_c, 1, 69, 89
3, 77088, Note_on_c, 1, 66, 89
3, 77180, Note_off_c, 1, 69, 64
3, 77180, Note_off_c, 1, 66, 64
3, 77184, Note_on_c, 1, 69, 94
3, 77184, Note_on_c, 1, 66, 94
3, 77228, Note_off_c, 1, 69, 64
3, 77228, Note_off_c, 1, 66, 64
3, 77232, Note_on_c, 1, 67, 89
3, 77276, Note_off_c, 1, 67, 64
3, 77376, Note_on_c, 1, 67, 89
3, 77376, Note_on_c, 1, 59, 89
3, 77468, Note_off_c, 1, 67, 64
3, 77468, Note_off_c, 1, 59, 64
3, 77568, Note_on_c, 1, 67, 89
3, 77568, Note_on_c, 1, 59, 89
3, 77660, Note_off_c, 1, 67, 64
3, 77660, Note_off_c, 1, 59, 64
3, 77760, Note_on_c, 1, 64, 94
3, 77804, Note_off_c, 1, 64, 64
3, 77808, Note_on_c, 1, 67, 89
3, 77808, Note_on_c, 1, 76, 89
3, 77948, Note_off_c, 1, 67, 64
3, 77952, Note_on_c, 1, 72, 89
3, 78140, Note_off_c, 1, 76, 64
3, 78140, Note_off_c, 1, 72, 64
3, 78144, Note_on_c, 1, 72, 89
3, 78144, Note_on_c, 1, 64, 89
3, 78236, Note_off_c, 1, 72, 64
3, 78236, Note_off_c, 1, 64, 64
3, 78240, Note_on_c, 1, 69, 89
3, 78240, Note_on_c, 1, 60, 89
3, 78332, Note_off_c, 1, 69, 64
3, 78332, Note_off_c, 1, 60, 64
3, 78336, Note_on_c, 1, 71, 94
3, 78336, Note_on_c, 1, 59, 94
3, 78380, Note_off_c, 1, 71, 64
3, 78380, Note_off_c, 1, 59, 64
3, 78384, Note_on_c, 1, 57, 89
3, 78384, Note_on_c, 1, 66, 89
3, 78428, Note_off_c, 1, 57, 64
3, 78428, Note_off_c, 1, 66, 64
3, 78528, Note_on_c, 1, 57, 89
3, 78528, Note_on_c, 1, 66, 89
3, 78620, Note_off_c, 1, 57, 64
3, 78620, Note_off_c, 1, 66, 64
3, 78720, Note_on_c, 1, 57, 89
3, 78720, Note_on_c, 1, 66, 89
3, 78812, Note_off_c, 1, 57, 64
3, 78812, Note_off_c, 1, 66, 64
3, 78912, Note_on_c, 1, 69, 89
3, 79100, Note_off_c, 1, 69, 64
3, 79104, Note_on_c, 1, 71, 89
3, 79292, Note_off_c, 1, 71, 64
3, 79296, Note_on_c, 1, 74, 89
3, 79388, Note_off_c, 1, 74, 64
3, 79488, Note_on_c, 1, 76, 89
3, 79676, Note_off_c, 1, 76, 64
3, 79680, Note_on_c, 1, 79, 89
3, 79868, Note_off_c, 1, 79, 64
3, 79872, Note_on_c, 1, 72, 89
3, 79964, Note_off_c, 1, 72, 64
3, 80064, Note_on_c, 1, 67, 89
3, 80064, Note_on_c, 1, 71, 89
3, 80252, Note_off_c, 1, 67, 64
3, 80252, Note_off_c, 1, 71, 64
3, 80256, Note_on_c, 1, 72, 89
3, 80256, Note_on_c, 1, 69, 89
3, 80444, Note_off_c, 1, 72, 64
3, 80444, Note_off_c, 1, 69, 64
3, 80448, Note_on_c, 1, 69, 89
3, 80448, Note_on_c, 1, 66, 89
3, 80540, Note_off_c, 1, 69, 64
3, 80540, Note_off_c, 1, 66, 64
3, 80640, Note_on_c, 1, 67, 89
3, 80732, Note_off_c, 1, 67, 64
3, 80832, Note_on_c, 1, 71, 89
3, 80924, Note_off_c, 1, 71, 64
3, 81024, Note_on_c, 1, 63, 89
3, 81116, Note_off_c, 1, 63, 64
3, 81216, Note_on_c, 1, 64, 68
3, 81404, Note_off_c, 1, 64, 64
3, 81408, Note_on_c, 1, 67, 68
3, 81596, Note_off_c, 1, 67, 64
3, 81600, Note_on_c, 1, 67, 68
3, 81788, Note_off_c, 1, 67, 64
3, 81792, Note_on_c, 1, 67, 68
3, 81980, Note_off_c, 1, 67, 64
3, 81984, Note_on_c, 1, 67, 68
3, 82172, Note_off_c, 1, 67, 64
3, 82176, Note_on_c, 1, 67, 68
3, 82364, Note_off_c, 1, 67, 64
3, 82368, Note_on_c, 1, 72, 68
3, 82368, Note_on_c, 1, 69, 68
3, 82556, Note_off_c, 1, 72, 64
3, 82556, Note_off_c, 1, 69, 64
3, 82560, Note_on_c, 1, 72, 68
3, 82560, Note_on_c, 1, 69, 68
3, 82748, Note_off_c, 1, 72, 64
3, 82748, Note_off_c, 1, 69, 64
3, 82752, Note_on_c, 1, 72, 68
3, 82752, Note_on_c, 1, 69, 68
3, 82940, Note_off_c, 1, 72, 64
3, 82940, Note_off_c, 1, 69, 64
3, 82944, Note_on_c, 1, 72, 68
3, 82944, Note_on_c, 1, 69, 68
3, 83132, Note_off_c, 1, 72, 64
3, 83132, Note_off_c, 1, 69, 64
3, 83136, Note_on_c, 1, 72, 68
3, 83136, Note_on_c, 1, 69, 68
3, 83324, Note_off_c, 1, 72, 64
3, 83324, Note_off_c, 1, 69, 64
3, 83328, Note_on_c, 1, 72, 68
3, 83328, Note_on_c, 1, 69, 68
3, 83516, Note_off_c, 1, 72, 64
3, 83516, Note_off_c, 1, 69, 64
3, 83520, Note_on_c, 1, 71, 68
3, 83520, Note_on_c, 1, 69, 68
3, 83708, Note_off_c, 1, 71, 64
3, 83708, Note_off_c, 1, 69, 64
3, 83712, Note_on_c, 1, 71, 68
3, 83712, Note_on_c, 1, 69, 68
3, 83900, Note_off_c, 1, 71, 64
3, 83900, Note_off_c, 1, 69, 64
3, 83904, Note_on_c, 1, 71, 68
3, 83904, Note_on_c, 1, 69, 68
3, 84092, Note_off_c, 1, 71, 64
3, 84092, Note_off_c, 1, 69, 64
3, 84096, Note_on_c, 1, 71, 68
3, 84096, Note_on_c, 1, 69, 68
3, 84284, Note_off_c, 1, 71, 64
3, 84284, Note_off_c, 1, 69, 64
3, 84288, Note_on_c, 1, 71, 68
3, 84288, Note_on_c, 1, 69, 68
3, 84476, Note_off_c, 1, 71, 64
3, 84476, Note_off_c, 1, 69, 64
3, 84480, Note_on_c, 1, 71, 68
3, 84480, Note_on_c, 1, 69, 68
3, 84668, Note_off_c, 1, 71, 64
3, 84668, Note_off_c, 1, 69, 64
3, 84672, Note_on_c, 1, 71, 68
3, 84672, Note_on_c, 1, 67, 68
3, 84860, Note_off_c, 1, 71, 64
3, 84860, Note_off_c, 1, 67, 64
3, 84864, Note_on_c, 1, 71, 68
3, 84864, Note_on_c, 1, 67, 68
3, 85052, Note_off_c, 1, 71, 64
3, 85052, Note_off_c, 1, 67, 64
3, 85056, Note_on_c, 1, 71, 68
3, 85056, Note_on_c, 1, 67, 68
3, 85244, Note_off_c, 1, 71, 64
3, 85244, Note_off_c, 1, 67, 64
3, 85248, Note_on_c, 1, 71, 68
3, 85248, Note_on_c, 1, 67, 68
3, 85436, Note_off_c, 1, 71, 64
3, 85436, Note_off_c, 1, 67, 64
3, 85440, Note_on_c, 1, 71, 68
3, 85440, Note_on_c, 1, 67, 68
3, 85628, Note_off_c, 1, 71, 64
3, 85628, Note_off_c, 1, 67, 64
3, 85632, Note_on_c, 1, 71, 68
3, 85632, Note_on_c, 1, 67, 68
3, 85820, Note_off_c, 1, 71, 64
3, 85820, Note_off_c, 1, 67, 64
3, 86016, Note_on_c, 1, 67, 68
3, 86016, Note_on_c, 1, 64, 68
3, 86016, Note_on_c, 1, 59, 68
3, 86204, Note_off_c, 1, 67, 64
3, 86204, Note_off_c, 1, 64, 64
3, 86204, Note_off_c, 1, 59, 64
3, 86208, Note_on_c, 1, 67, 68
3, 86208, Note_on_c, 1, 64, 68
3, 86208, Note_on_c, 1, 59, 68
3, 86396, Note_off_c, 1, 67, 64
3, 86396, Note_off_c, 1, 64, 64
3, 86396, Note_off_c, 1, 59, 64
3, 86592, Note_on_c, 1, 67, 68
3, 86592, Note_on_c, 1, 64, 68
3, 86592, Note_on_c, 1, 59, 68
3, 86780, Note_off_c, 1, 67, 64
3, 86780, Note_off_c, 1, 64, 64
3, 86780, Note_off_c, 1, 59, 64
3, 86784, Note_on_c, 1, 67, 68
3, 86784, Note_on_c, 1, 64, 68
3, 86784, Note_on_c, 1, 59, 68
3, 86972, Note_off_c, 1, 67, 64
3, 86972, Note_off_c, 1, 64, 64
3, 86972, Note_off_c, 1, 59, 64
3, 87168, Note_on_c, 1, 67, 68
3, 87168, Note_on_c, 1, 64, 68
3, 87168, Note_on_c, 1, 60, 68
3, 87356, Note_off_c, 1, 67, 64
3, 87356, Note_off_c, 1, 64, 64
3, 87356, Note_off_c, 1, 60, 64
3, 87360, Note_on_c, 1, 67, 68
3, 87360, Note_on_c, 1, 64, 68
3, 87360, Note_on_c, 1, 60, 68
3, 87548, Note_off_c, 1, 67, 64
3, 87548, Note_off_c, 1, 64, 64
3, 87548, Note_off_c, 1, 60, 64
3, 87744, Note_on_c, 1, 67, 68
3, 87744, Note_on_c, 1, 64, 68
3, 87744, Note_on_c, 1, 60, 68
3, 87932, Note_off_c, 1, 67, 64
3, 87932, Note_off_c, 1, 64, 64
3, 87932, Note_off_c, 1, 60, 64
3, 87936, Note_on_c, 1, 67, 68
3, 87936, Note_on_c, 1, 64, 68
3, 87936, Note_on_c, 1, 60, 68
3, 88124, Note_off_c, 1, 67, 64
3, 88124, Note_off_c, 1, 64, 64
3, 88124, Note_off_c, 1, 60, 64
3, 88320, Note_on_c, 1, 67, 68
3, 88320, Note_on_c, 1, 64, 68
3, 88320, Note_on_c, 1, 61, 68
3, 88508, Note_off_c, 1, 67, 64
3, 88508, Note_off_c, 1, 64, 64
3, 88508, Note_off_c, 1, 61, 64
3, 88512, Note_on_c, 1, 67, 68
3, 88512, Note_on_c, 1, 64, 68
3, 88512, Note_on_c, 1, 61, 68
3, 88700, Note_off_c, 1, 67, 64
3, 88700, Note_off_c, 1, 64, 64
3, 88700, Note_off_c, 1, 61, 64
3, 88896, Note_on_c, 1, 67, 68
3, 88896, Note_on_c, 1, 64, 68
3, 88896, Note_on_c, 1, 61, 68
3, 89084, Note_off_c, 1, 67, 64
3, 89084, Note_off_c, 1, 64, 64
3, 89084, Note_off_c, 1, 61, 64
3, 89088, Note_on_c, 1, 67, 68
3, 89088, Note_on_c, 1, 64, 68
3, 89088, Note_on_c, 1, 61, 68
3, 89276, Note_off_c, 1, 67, 64
3, 89276, Note_off_c, 1, 64, 64
3, 89276, Note_off_c, 1, 61, 64
3, 89280, Note_on_c, 1, 67, 68
3, 89280, Note_on_c, 1, 64, 68
3, 89280, Note_on_c, 1, 59, 68
3, 89852, Note_off_c, 1, 67, 64
3, 89852, Note_off_c, 1, 64, 64
3, 89852, Note_off_c, 1, 59, 64
3, 89856, Note_on_c, 1, 66, 68
3, 89856, Note_on_c, 1, 62, 68
3, 89856, Note_on_c, 1, 59, 68
3, 90044, Note_off_c, 1, 66, 64
3, 90044, Note_off_c, 1, 62, 64
3, 90044, Note_off_c, 1, 59, 64
3, 90432, Note_on_c, 1, 79, 68
3, 90432, Note_on_c, 1, 76, 68
3, 91004, Note_off_c, 1, 79, 64
3, 91004, Note_off_c, 1, 76, 64
3, 91008, Note_on_c, 1, 78, 68
3, 91008, Note_on_c, 1, 75, 68
3, 91196, Note_off_c, 1, 78, 64
3, 91196, Note_off_c, 1, 75, 64
3, 91584, Note_on_c, 1, 66, 68
3, 91584, Note_on_c, 1, 62, 68
3, 91772, Note_off_c, 1, 66, 64
3, 91772, Note_off_c, 1, 62, 64
3, 92160, Note_on_c, 1, 66, 68
3, 92160, Note_on_c, 1, 71, 68
3, 92348, Note_off_c, 1, 66, 64
3, 92348, Note_off_c, 1, 71, 64
3, 92736, Note_on_c, 1, 71, 68
3, 92924, Note_off_c, 1, 71, 64
3, 92928, Note_on_c, 1, 72, 68
3, 93116, Note_off_c, 1, 72, 64
3, 93120, Note_on_c, 1, 72, 68
3, 93120, Note_on_c, 1, 66, 68
3, 93308, Note_off_c, 1, 72, 64
3, 93308, Note_off_c, 1, 66, 64
3, 93312, Note_on_c, 1, 71, 68
3, 93312, Note_on_c, 1, 66, 68
3, 93500, Note_off_c, 1, 71, 64
3, 93500, Note_off_c, 1, 66, 64
3, 93888, Note_on_c, 1, 71, 68
3, 93888, Note_on_c, 1, 67, 68
3, 94076, Note_off_c, 1, 67, 64
3, 94080, Note_on_c, 1, 63, 68
3, 94268, Note_off_c, 1, 63, 64
3, 94272, Note_on_c, 1, 64, 68
3, 94460, Note_off_c, 1, 71, 64
3, 94460, Note_off_c, 1, 64, 64
3, 94464, Note_on_c, 1, 69, 68
3, 94464, Note_on_c, 1, 64, 68
3, 94556, Note_off_c, 1, 69, 64
3, 94556, Note_off_c, 1, 64, 64
3, 94656, Note_on_c, 1, 64, 68
3, 94844, Note_off_c, 1, 64, 64
3, 94848, Note_on_c, 1, 66, 68
3, 94848, Note_on_c, 1, 64, 68
3, 95036, Note_off_c, 1, 66, 64
3, 95036, Note_off_c, 1, 64, 64
3, 95040, Note_on_c, 1, 66, 68
3, 95040, Note_on_c, 1, 63, 68
3, 95228, Note_off_c, 1, 66, 64
3, 95228, Note_off_c, 1, 63, 64
3, 95616, Note_on_c, 1, 66, 68
3, 95616, Note_on_c, 1, 63, 68
3, 95708, Note_off_c, 1, 66, 64
3, 95708, Note_off_c, 1, 63, 64
3, 95712, Note_on_c, 1, 67, 68
3, 95712, Note_on_c, 1, 64, 68
3, 95804, Note_off_c, 1, 67, 64
3, 95804, Note_off_c, 1, 64, 64
3, 95808, Note_on_c, 1, 66, 68
3, 95808, Note_on_c, 1, 63, 68
3, 95900, Note_off_c, 1, 66, 64
3, 95900, Note_off_c, 1, 63, 64
3, 95904, Note_on_c, 1, 67, 68
3, 95904, Note_on_c, 1, 64, 68
3, 95996, Note_off_c, 1, 67, 64
3, 95996, Note_off_c, 1, 64, 64
3, 96000, Note_on_c, 1, 66, 68
3, 96000, Note_on_c, 1, 63, 68
3, 96092, Note_off_c, 1, 66, 64
3, 96092, Note_off_c, 1, 63, 64
3, 96096, Note_on_c, 1, 67, 68
3, 96096, Note_on_c, 1, 64, 68
3, 96188, Note_off_c, 1, 67, 64
3, 96188, Note_off_c, 1, 64, 64
3, 96192, Note_on_c, 1, 66, 68
3, 96192, Note_on_c, 1, 63, 68
3, 96380, Note_off_c, 1, 66, 64
3, 96380, Note_off_c, 1, 63, 64
3, 96768, Note_on_c, 1, 71, 68
3, 96768, Note_on_c, 1, 66, 68
3, 96956, Note_off_c, 1, 71, 64
3, 96956, Note_off_c, 1, 66, 64
3, 97344, Note_on_c, 1, 71, 68
3, 97532, Note_off_c, 1, 71, 64
3, 97536, Note_on_c, 1, 72, 68
3, 97724, Note_off_c, 1, 72, 64
3, 97728, Note_on_c, 1, 72, 68
3, 97728, Note_on_c, 1, 66, 68
3, 97916, Note_off_c, 1, 72, 64
3, 97916, Note_off_c, 1, 66, 64
3, 97920, Note_on_c, 1, 71, 68
3, 97920, Note_on_c, 1, 66, 68
3, 98108, Note_off_c, 1, 71, 64
3, 98108, Note_off_c, 1, 66, 64
3, 98496, Note_on_c, 1, 67, 68
3, 98496, Note_on_c, 1, 71, 68
3, 98684, Note_off_c, 1, 67, 64
3, 98688, Note_on_c, 1, 63, 68
3, 98876, Note_off_c, 1, 63, 64
3, 98880, Note_on_c, 1, 64, 68
3, 99068, Note_off_c, 1, 71, 64
3, 99068, Note_off_c, 1, 64, 64
3, 99072, Note_on_c, 1, 69, 68
3, 99072, Note_on_c, 1, 64, 68
3, 99164, Note_off_c, 1, 69, 64
3, 99164, Note_off_c, 1, 64, 64
3, 99264, Note_on_c, 1, 64, 68
3, 99452, Note_off_c, 1, 64, 64
3, 99456, Note_on_c, 1, 66, 68
3, 99456, Note_on_c, 1, 64, 68
3, 99644, Note_off_c, 1, 66, 64
3, 99644, Note_off_c, 1, 64, 64
3, 99648, Note_on_c, 1, 66, 68
3, 99648, Note_on_c, 1, 63, 68
3, 99836, Note_off_c, 1, 66, 64
3, 99836, Note_off_c, 1, 63, 64
3, 100800, Note_on_c, 1, 67, 68
3, 100800, Note_on_c, 1, 64, 68
3, 100988, Note_off_c, 1, 67, 64
3, 100988, Note_off_c, 1, 64, 64
3, 100992, Note_on_c, 1, 67, 68
3, 100992, Note_on_c, 1, 64, 68
3, 101180, Note_off_c, 1, 67, 64
3, 101180, Note_off_c, 1, 64, 64
3, 101184, Note_on_c, 1, 67, 68
3, 101184, Note_on_c, 1, 64, 68
3, 101372, Note_off_c, 1, 67, 64
3, 101372, Note_off_c, 1, 64, 64
3, 101376, Note_on_c, 1, 67, 68
3, 101376, Note_on_c, 1, 64, 68
3, 101564, Note_off_c, 1, 67, 64
3, 101564, Note_off_c, 1, 64, 64
3, 101568, Note_on_c, 1, 67, 68
3, 101568, Note_on_c, 1, 64, 68
3, 101756, Note_off_c, 1, 67, 64
3, 101756, Note_off_c, 1, 64, 64
3, 101760, Note_on_c, 1, 67, 68
3, 101760, Note_on_c, 1, 64, 68
3, 101948, Note_off_c, 1, 67, 64
3, 101948, Note_off_c, 1, 64, 64
3, 101952, Note_on_c, 1, 72, 68
3, 101952, Note_on_c, 1, 69, 68
3, 101952, Note_on_c, 1, 64, 68
3, 102140, Note_off_c, 1, 72, 64
3, 102140, Note_off_c, 1, 69, 64
3, 102140, Note_off_c, 1, 64, 64
3, 102144, Note_on_c, 1, 72, 68
3, 102144, Note_on_c, 1, 69, 68
3, 102144, Note_on_c, 1, 64, 68
3, 102332, Note_off_c, 1, 72, 64
3, 102332, Note_off_c, 1, 69, 64
3, 102332, Note_off_c, 1, 64, 64
3, 102336, Note_on_c, 1, 72, 68
3, 102336, Note_on_c, 1, 69, 68
3, 102336, Note_on_c, 1, 64, 68
3, 102524, Note_off_c, 1, 72, 64
3, 102524, Note_off_c, 1, 69, 64
3, 102524, Note_off_c, 1, 64, 64
3, 102528, Note_on_c, 1, 72, 68
3, 102528, Note_on_c, 1, 69, 68
3, 102528, Note_on_c, 1, 64, 68
3, 102716, Note_off_c, 1, 72, 64
3, 102716, Note_off_c, 1, 69, 64
3, 102716, Note_off_c, 1, 64, 64
3, 102720, Note_on_c, 1, 72, 68
3, 102720, Note_on_c, 1, 69, 68
3, 102720, Note_on_c, 1, 64, 68
3, 102908, Note_off_c, 1, 72, 64
3, 102908, Note_off_c, 1, 69, 64
3, 102908, Note_off_c, 1, 64, 64
3, 102912, Note_on_c, 1, 72, 68
3, 102912, Note_on_c, 1, 69, 68
3, 102912, Note_on_c, 1, 64, 68
3, 103100, Note_off_c, 1, 72, 64
3, 103100, Note_off_c, 1, 69, 64
3, 103100, Note_off_c, 1, 64, 64
3, 103104, Note_on_c, 1, 71, 68
3, 103104, Note_on_c, 1, 69, 68
3, 103104, Note_on_c, 1, 63, 68
3, 103292, Note_off_c, 1, 71, 64
3, 103292, Note_off_c, 1, 69, 64
3, 103292, Note_off_c, 1, 63, 64
3, 103296, Note_on_c, 1, 71, 68
3, 103296, Note_on_c, 1, 69, 68
3, 103296, Note_on_c, 1, 63, 68
3, 103484, Note_off_c, 1, 71, 64
3, 103484, Note_off_c, 1, 69, 64
3, 103484, Note_off_c, 1, 63, 64
3, 103488, Note_on_c, 1, 71, 68
3, 103488, Note_on_c, 1, 69, 68
3, 103488, Note_on_c, 1, 63, 68
3, 103676, Note_off_c, 1, 71, 64
3, 103676, Note_off_c, 1, 69, 64
3, 103676, Note_off_c, 1, 63, 64
3, 103680, Note_on_c, 1, 71, 68
3, 103680, Note_on_c, 1, 69, 68
3, 103680, Note_on_c, 1, 63, 68
3, 103868, Note_off_c, 1, 71, 64
3, 103868, Note_off_c, 1, 69, 64
3, 103868, Note_off_c, 1, 63, 64
3, 103872, Note_on_c, 1, 71, 68
3, 103872, Note_on_c, 1, 69, 68
3, 103888, Note_on_c, 1, 63, 68
3, 104060, Note_off_c, 1, 71, 64
3, 104060, Note_off_c, 1, 69, 64
3, 104064, Note_on_c, 1, 71, 68
3, 104064, Note_on_c, 1, 69, 68
3, 104064, Note_on_c, 1, 63, 68
3, 104076, Note_off_c, 1, 63, 64
3, 104252, Note_off_c, 1, 71, 64
3, 104252, Note_off_c, 1, 69, 64
3, 104252, Note_off_c, 1, 63, 64
3, 104256, Note_on_c, 1, 71, 68
3, 104256, Note_on_c, 1, 67, 68
3, 104256, Note_on_c, 1, 64, 68
3, 104444, Note_off_c, 1, 71, 64
3, 104444, Note_off_c, 1, 67, 64
3, 104444, Note_off_c, 1, 64, 64
3, 104448, Note_on_c, 1, 71, 68
3, 104448, Note_on_c, 1, 67, 68
3, 104448, Note_on_c, 1, 64, 68
3, 104636, Note_off_c, 1, 71, 64
3, 104636, Note_off_c, 1, 67, 64
3, 104636, Note_off_c, 1, 64, 64
3, 104640, Note_on_c, 1, 71, 68
3, 104640, Note_on_c, 1, 67, 68
3, 104640, Note_on_c, 1, 64, 68
3, 104828, Note_off_c, 1, 71, 64
3, 104828, Note_off_c, 1, 67, 64
3, 104828, Note_off_c, 1, 64, 64
3, 104832, Note_on_c, 1, 71, 68
3, 104832, Note_on_c, 1, 67, 68
3, 104832, Note_on_c, 1, 64, 68
3, 105020, Note_off_c, 1, 71, 64
3, 105020, Note_off_c, 1, 67, 64
3, 105020, Note_off_c, 1, 64, 64
3, 105024, Note_on_c, 1, 71, 68
3, 105024, Note_on_c, 1, 67, 68
3, 105024, Note_on_c, 1, 64, 68
3, 105212, Note_off_c, 1, 71, 64
3, 105212, Note_off_c, 1, 67, 64
3, 105212, Note_off_c, 1, 64, 64
3, 105216, Note_on_c, 1, 71, 68
3, 105216, Note_on_c, 1, 67, 68
3, 105216, Note_on_c, 1, 64, 68
3, 105404, Note_off_c, 1, 71, 64
3, 105404, Note_off_c, 1, 67, 64
3, 105404, Note_off_c, 1, 64, 64
3, 105408, Note_on_c, 1, 72, 68
3, 105408, Note_on_c, 1, 57, 68
3, 105596, Note_off_c, 1, 72, 64
3, 105596, Note_off_c, 1, 57, 64
3, 105600, Note_on_c, 1, 72, 68
3, 105600, Note_on_c, 1, 69, 68
3, 105788, Note_off_c, 1, 72, 64
3, 105788, Note_off_c, 1, 69, 64
3, 105792, Note_on_c, 1, 72, 68
3, 105792, Note_on_c, 1, 69, 68
3, 105980, Note_off_c, 1, 72, 64
3, 105980, Note_off_c, 1, 69, 64
3, 105984, Note_on_c, 1, 72, 68
3, 105984, Note_on_c, 1, 69, 68
3, 106172, Note_off_c, 1, 72, 64
3, 106172, Note_off_c, 1, 69, 64
3, 106176, Note_on_c, 1, 72, 68
3, 106176, Note_on_c, 1, 69, 68
3, 106364, Note_off_c, 1, 72, 64
3, 106364, Note_off_c, 1, 69, 64
3, 106368, Note_on_c, 1, 72, 68
3, 106368, Note_on_c, 1, 69, 68
3, 106556, Note_off_c, 1, 72, 64
3, 106556, Note_off_c, 1, 69, 64
3, 106560, Note_on_c, 1, 72, 68
3, 106560, Note_on_c, 1, 69, 68
3, 106748, Note_off_c, 1, 72, 64
3, 106748, Note_off_c, 1, 69, 64
3, 106752, Note_on_c, 1, 72, 68
3, 106752, Note_on_c, 1, 69, 68
3, 106940, Note_off_c, 1, 72, 64
3, 106940, Note_off_c, 1, 69, 64
3, 106944, Note_on_c, 1, 72, 68
3, 106944, Note_on_c, 1, 69, 68
3, 107132, Note_off_c, 1, 72, 64
3, 107132, Note_off_c, 1, 69, 64
3, 107136, Note_on_c, 1, 72, 68
3, 107136, Note_on_c, 1, 57, 68
3, 107324, Note_off_c, 1, 72, 64
3, 107324, Note_off_c, 1, 57, 64
3, 107328, Note_on_c, 1, 72, 68
3, 107328, Note_on_c, 1, 57, 68
3, 107516, Note_off_c, 1, 72, 64
3, 107516, Note_off_c, 1, 57, 64
3, 107520, Note_on_c, 1, 72, 68
3, 107520, Note_on_c, 1, 57, 68
3, 107708, Note_off_c, 1, 72, 64
3, 107708, Note_off_c, 1, 57, 64
3, 107712, Note_on_c, 1, 67, 68
3, 107712, Note_on_c, 1, 59, 68
3, 107900, Note_off_c, 1, 67, 64
3, 107900, Note_off_c, 1, 59, 64
3, 107904, Note_on_c, 1, 67, 68
3, 107904, Note_on_c, 1, 59, 68
3, 108092, Note_off_c, 1, 67, 64
3, 108092, Note_off_c, 1, 59, 64
3, 108096, Note_on_c, 1, 67, 68
3, 108096, Note_on_c, 1, 59, 68
3, 108284, Note_off_c, 1, 67, 64
3, 108284, Note_off_c, 1, 59, 64
3, 108288, Note_on_c, 1, 69, 68
3, 108288, Note_on_c, 1, 59, 68
3, 108476, Note_off_c, 1, 69, 64
3, 108476, Note_off_c, 1, 59, 64
3, 108480, Note_on_c, 1, 69, 68
3, 108480, Note_on_c, 1, 59, 68
3, 108668, Note_off_c, 1, 69, 64
3, 108668, Note_off_c, 1, 59, 64
3, 108672, Note_on_c, 1, 69, 68
3, 108672, Note_on_c, 1, 59, 68
3, 108860, Note_off_c, 1, 69, 64
3, 108860, Note_off_c, 1, 59, 64
3, 108864, Note_on_c, 1, 69, 68
3, 108864, Note_on_c, 1, 66, 68
3, 108864, Note_on_c, 1, 60, 68
3, 109052, Note_off_c, 1, 69, 64
3, 109052, Note_off_c, 1, 66, 64
3, 109052, Note_off_c, 1, 60, 64
3, 109056, Note_on_c, 1, 69, 68
3, 109056, Note_on_c, 1, 66, 68
3, 109056, Note_on_c, 1, 60, 68
3, 109244, Note_off_c, 1, 69, 64
3, 109244, Note_off_c, 1, 66, 64
3, 109244, Note_off_c, 1, 60, 64
3, 109248, Note_on_c, 1, 69, 68
3, 109248, Note_on_c, 1, 66, 68
3, 109248, Note_on_c, 1, 60, 68
3, 109436, Note_off_c, 1, 69, 64
3, 109436, Note_off_c, 1, 66, 64
3, 109436, Note_off_c, 1, 60, 64
3, 109440, Note_on_c, 1, 67, 68
3, 109440, Note_on_c, 1, 60, 68
3, 109628, Note_off_c, 1, 67, 64
3, 109628, Note_off_c, 1, 60, 64
3, 110016, Note_on_c, 1, 84, 68
3, 110016, Note_on_c, 1, 81, 68
3, 110588, Note_off_c, 1, 84, 64
3, 110588, Note_off_c, 1, 81, 64
3, 110592, Note_on_c, 1, 79, 68
3, 110592, Note_on_c, 1, 83, 68
3, 110780, Note_off_c, 1, 79, 64
3, 110780, Note_off_c, 1, 83, 64
3, 111168, Note_on_c, 1, 72, 68
3, 111168, Note_on_c, 1, 57, 68
3, 111356, Note_off_c, 1, 72, 64
3, 111356, Note_off_c, 1, 57, 64
3, 111360, Note_on_c, 1, 72, 68
3, 111360, Note_on_c, 1, 69, 68
3, 111548, Note_off_c, 1, 72, 64
3, 111548, Note_off_c, 1, 69, 64
3, 111552, Note_on_c, 1, 72, 68
3, 111552, Note_on_c, 1, 69, 68
3, 111740, Note_off_c, 1, 72, 64
3, 111740, Note_off_c, 1, 69, 64
3, 111744, Note_on_c, 1, 72, 68
3, 111744, Note_on_c, 1, 69, 68
3, 111932, Note_off_c, 1, 72, 64
3, 111932, Note_off_c, 1, 69, 64
3, 111936, Note_on_c, 1, 72, 68
3, 111936, Note_on_c, 1, 69, 68
3, 112124, Note_off_c, 1, 72, 64
3, 112124, Note_off_c, 1, 69, 64
3, 112128, Note_on_c, 1, 72, 68
3, 112128, Note_on_c, 1, 69, 68
3, 112316, Note_off_c, 1, 72, 64
3, 112316, Note_off_c, 1, 69, 64
3, 112320, Note_on_c, 1, 72, 68
3, 112320, Note_on_c, 1, 69, 68
3, 112508, Note_off_c, 1, 72, 64
3, 112508, Note_off_c, 1, 69, 64
3, 112512, Note_on_c, 1, 72, 68
3, 112512, Note_on_c, 1, 69, 68
3, 112700, Note_off_c, 1, 72, 64
3, 112700, Note_off_c, 1, 69, 64
3, 112704, Note_on_c, 1, 72, 68
3, 112704, Note_on_c, 1, 69, 68
3, 112892, Note_off_c, 1, 72, 64
3, 112892, Note_off_c, 1, 69, 64
3, 112896, Note_on_c, 1, 72, 68
3, 112896, Note_on_c, 1, 57, 68
3, 113084, Note_off_c, 1, 72, 64
3, 113084, Note_off_c, 1, 57, 64
3, 114624, Note_on_c, 1, 67, 68
3, 114624, Note_on_c, 1, 59, 68
3, 114812, Note_off_c, 1, 67, 64
3, 114812, Note_off_c, 1, 59, 64
3, 114816, Note_on_c, 1, 67, 68
3, 114816, Note_on_c, 1, 59, 68
3, 115004, Note_off_c, 1, 67, 64
3, 115004, Note_off_c, 1, 59, 64
3, 115008, Note_on_c, 1, 67, 68
3, 115008, Note_on_c, 1, 59, 68
3, 115196, Note_off_c, 1, 67, 64
3, 115196, Note_off_c, 1, 59, 64
3, 115200, Note_on_c, 1, 69, 68
3, 115200, Note_on_c, 1, 59, 68
3, 115388, Note_off_c, 1, 69, 64
3, 115388, Note_off_c, 1, 59, 64
3, 115392, Note_on_c, 1, 69, 68
3, 115392, Note_on_c, 1, 59, 68
3, 115580, Note_off_c, 1, 69, 64
3, 115580, Note_off_c, 1, 59, 64
3, 115584, Note_on_c, 1, 69, 68
3, 115584, Note_on_c, 1, 59, 68
3, 115772, Note_off_c, 1, 69, 64
3, 115772, Note_off_c, 1, 59, 64
3, 115776, Note_on_c, 1, 71, 68
3, 115776, Note_on_c, 1, 64, 68
3, 115964, Note_off_c, 1, 71, 64
3, 115964, Note_off_c, 1, 64, 64
3, 116544, Note_on_c, 1, 79, 68
3, 116544, Note_on_c, 1, 71, 68
3, 116544, Note_on_c, 1, 64, 68
3, 116636, Note_off_c, 1, 79, 64
3, 116636, Note_off_c, 1, 71, 64
3, 116636, Note_off_c, 1, 64, 64
3, 116736, Note_on_c, 1, 79, 68
3, 116736, Note_on_c, 1, 71, 68
3, 116736, Note_on_c, 1, 64, 68
3, 116828, Note_off_c, 1, 79, 64
3, 116828, Note_off_c, 1, 71, 64
3, 116828, Note_off_c, 1, 64, 64
3, 116928, Note_on_c, 1, 77, 68
3, 116928, Note_on_c, 1, 71, 68
3, 116928, Note_on_c, 1, 67, 68
3, 116928, Note_on_c, 1, 62, 68
3, 117020, Note_off_c, 1, 77, 64
3, 117020, Note_off_c, 1, 71, 64
3, 117020, Note_off_c, 1, 67, 64
3, 117020, Note_off_c, 1, 62, 64
3, 117696, Note_on_c, 1, 77, 68
3, 117696, Note_on_c, 1, 71, 68
3, 117696, Note_on_c, 1, 67, 68
3, 117696, Note_on_c, 1, 62, 68
3, 117788, Note_off_c, 1, 77, 64
3, 117788, Note_off_c, 1, 71, 64
3, 117788, Note_off_c, 1, 67, 64
3, 117788, Note_off_c, 1, 62, 64
3, 117888, Note_on_c, 1, 77, 68
3, 117888, Note_on_c, 1, 71, 68
3, 117888, Note_on_c, 1, 67, 68
3, 117888, Note_on_c, 1, 62, 68
3, 117980, Note_off_c, 1, 77, 64
3, 117980, Note_off_c, 1, 71, 64
3, 117980, Note_off_c, 1, 67, 64
3, 117980, Note_off_c, 1, 62, 64
3, 118080, Note_on_c, 1, 76, 68
3, 118080, Note_on_c, 1, 72, 68
3, 118080, Note_on_c, 1, 67, 68
3, 118080, Note_on_c, 1, 60, 68
3, 118172, Note_off_c, 1, 76, 64
3, 118172, Note_off_c, 1, 72, 64
3, 118172, Note_off_c, 1, 67, 64
3, 118172, Note_off_c, 1, 60, 64
3, 118848, Note_on_c, 1, 76, 68
3, 118848, Note_on_c, 1, 69, 68
3, 118848, Note_on_c, 1, 64, 68
3, 118848, Note_on_c, 1, 60, 68
3, 118940, Note_off_c, 1, 76, 64
3, 118940, Note_off_c, 1, 69, 64
3, 118940, Note_off_c, 1, 64, 64
3, 118940, Note_off_c, 1, 60, 64
3, 119040, Note_on_c, 1, 76, 68
3, 119040, Note_on_c, 1, 69, 68
3, 119040, Note_on_c, 1, 64, 68
3, 119040, Note_on_c, 1, 60, 68
3, 119132, Note_off_c, 1, 76, 64
3, 119132, Note_off_c, 1, 69, 64
3, 119132, Note_off_c, 1, 64, 64
3, 119132, Note_off_c, 1, 60, 64
3, 119232, Note_on_c, 1, 74, 68
3, 119232, Note_on_c, 1, 68, 68
3, 119232, Note_on_c, 1, 64, 68
3, 119232, Note_on_c, 1, 59, 68
3, 119324, Note_off_c, 1, 74, 64
3, 119324, Note_off_c, 1, 68, 64
3, 119324, Note_off_c, 1, 64, 64
3, 119324, Note_off_c, 1, 59, 64
3, 120000, Note_on_c, 1, 74, 68
3, 120000, Note_on_c, 1, 68, 68
3, 120000, Note_on_c, 1, 64, 68
3, 120000, Note_on_c, 1, 59, 68
3, 120092, Note_off_c, 1, 74, 64
3, 120092, Note_off_c, 1, 68, 64
3, 120092, Note_off_c, 1, 64, 64
3, 120092, Note_off_c, 1, 59, 64
3, 120192, Note_on_c, 1, 74, 68
3, 120192, Note_on_c, 1, 68, 68
3, 120192, Note_on_c, 1, 64, 68
3, 120192, Note_on_c, 1, 59, 68
3, 120284, Note_off_c, 1, 74, 64
3, 120284, Note_off_c, 1, 68, 64
3, 120284, Note_off_c, 1, 64, 64
3, 120284, Note_off_c, 1, 59, 64
3, 120384, Note_on_c, 1, 72, 68
3, 120384, Note_on_c, 1, 69, 68
3, 120384, Note_on_c, 1, 64, 68
3, 120384, Note_on_c, 1, 57, 68
3, 120476, Note_off_c, 1, 72, 64
3, 120476, Note_off_c, 1, 69, 64
3, 120476, Note_off_c, 1, 64, 64
3, 120476, Note_off_c, 1, 57, 64
3, 120960, Note_on_c, 1, 71, 68
3, 120960, Note_on_c, 1, 66, 68
3, 120960, Note_on_c, 1, 63, 68
3, 120960, Note_on_c, 1, 59, 68
3, 121052, Note_off_c, 1, 71, 64
3, 121052, Note_off_c, 1, 66, 64
3, 121052, Note_off_c, 1, 63, 64
3, 121052, Note_off_c, 1, 59, 64
3, 121536, Note_on_c, 1, 69, 68
3, 121536, Note_on_c, 1, 64, 68
3, 121536, Note_on_c, 1, 60, 68
3, 121628, Note_off_c, 1, 69, 64
3, 121628, Note_off_c, 1, 64, 64
3, 121628, Note_off_c, 1, 60, 64
3, 122112, Note_on_c, 1, 76, 68
3, 122112, Note_on_c, 1, 64, 68
3, 122204, Note_off_c, 1, 76, 64
3, 122204, Note_off_c, 1, 64, 64
3, 122688, Note_on_c, 1, 75, 68
3, 122688, Note_on_c, 1, 66, 68
3, 122780, Note_off_c, 1, 75, 64
3, 122780, Note_off_c, 1, 66, 64
3, 122880, Note_on_c, 1, 66, 68
3, 122880, Note_on_c, 1, 62, 68
3, 123068, Note_off_c, 1, 66, 64
3, 123068, Note_off_c, 1, 62, 64
3, 123072, Note_on_c, 1, 69, 68
3, 123072, Note_on_c, 1, 66, 68
3, 123260, Note_off_c, 1, 69, 64
3, 123260, Note_off_c, 1, 66, 64
3, 123456, Note_on_c, 1, 69, 68
3, 123456, Note_on_c, 1, 66, 68
3, 123644, Note_off_c, 1, 69, 64
3, 123644, Note_off_c, 1, 66, 64
3, 123648, Note_on_c, 1, 67, 68
3, 123648, Note_on_c, 1, 64, 68
3, 123836, Note_off_c, 1, 67, 64
3, 123836, Note_off_c, 1, 64, 64
3, 124032, Note_on_c, 1, 66, 68
3, 124032, Note_on_c, 1, 63, 68
3, 124220, Note_off_c, 1, 66, 64
3, 124220, Note_off_c, 1, 63, 64
3, 124224, Note_on_c, 1, 69, 68
3, 124224, Note_on_c, 1, 66, 68
3, 124412, Note_off_c, 1, 69, 64
3, 124412, Note_off_c, 1, 66, 64
3, 124608, Note_on_c, 1, 69, 68
3, 124608, Note_on_c, 1, 66, 68
3, 124796, Note_off_c, 1, 69, 64
3, 124796, Note_off_c, 1, 66, 64
3, 124800, Note_on_c, 1, 64, 68
3, 124800, Note_on_c, 1, 67, 68
3, 124988, Note_off_c, 1, 64, 64
3, 124988, Note_off_c, 1, 67, 64
3, 124992, Note_on_c, 1, 66, 68
3, 124992, Note_on_c, 1, 63, 68
3, 125180, Note_off_c, 1, 66, 64
3, 125180, Note_off_c, 1, 63, 64
3, 150336, Note_on_c, 1, 62, 68
3, 150380, Note_off_c, 1, 62, 64
3, 150384, Note_on_c, 1, 71, 68
3, 150716, Note_off_c, 1, 71, 64
3, 150720, Note_on_c, 1, 69, 68
3, 150812, Note_off_c, 1, 69, 64
3, 150816, Note_on_c, 1, 66, 68
3, 150908, Note_off_c, 1, 66, 64
3, 150912, Note_on_c, 1, 66, 68
3, 150956, Note_off_c, 1, 66, 64
3, 150960, Note_on_c, 1, 67, 68
3, 151100, Note_off_c, 1, 67, 64
3, 151488, Note_on_c, 1, 67, 68
3, 151676, Note_off_c, 1, 67, 64
3, 151680, Note_on_c, 1, 72, 68
3, 151868, Note_off_c, 1, 72, 64
3, 151872, Note_on_c, 1, 64, 68
3, 152060, Note_off_c, 1, 64, 64
3, 152064, Note_on_c, 1, 69, 68
3, 152252, Note_off_c, 1, 69, 64
3, 152832, Note_on_c, 1, 67, 68
3, 153020, Note_off_c, 1, 67, 64
3, 153024, Note_on_c, 1, 62, 68
3, 153212, Note_off_c, 1, 62, 64
3, 153408, Note_on_c, 1, 69, 68
3, 153596, Note_off_c, 1, 69, 64
3, 153600, Note_on_c, 1, 62, 68
3, 153788, Note_off_c, 1, 62, 64
3, 153984, Note_on_c, 1, 67, 68
3, 154172, Note_off_c, 1, 67, 64
3, 154176, Note_on_c, 1, 71, 68
3, 154364, Note_off_c, 1, 71, 64
3, 154368, Note_on_c, 1, 67, 68
3, 154748, Note_off_c, 1, 67, 64
3, 154752, Note_on_c, 1, 66, 68
3, 154940, Note_off_c, 1, 66, 64
3, 155136, Note_on_c, 1, 62, 68
3, 155324, Note_off_c, 1, 62, 64
3, 155328, Note_on_c, 1, 66, 68
3, 155516, Note_off_c, 1, 66, 64
3, 155520, Note_on_c, 1, 66, 68
3, 155564, Note_off_c, 1, 66, 64
3, 155568, Note_on_c, 1, 67, 68
3, 155612, Note_off_c, 1, 67, 64
3, 155712, Note_on_c, 1, 71, 68
3, 155804, Note_off_c, 1, 71, 64
3, 155904, Note_on_c, 1, 74, 68
3, 155996, Note_off_c, 1, 74, 64
3, 156096, Note_on_c, 1, 72, 68
3, 156188, Note_off_c, 1, 72, 64
3, 156288, Note_on_c, 1, 60, 68
3, 156476, Note_off_c, 1, 60, 64
3, 156480, Note_on_c, 1, 64, 68
3, 156668, Note_off_c, 1, 64, 64
3, 156672, Note_on_c, 1, 69, 68
3, 156764, Note_off_c, 1, 69, 64
3, 156864, Note_on_c, 1, 62, 68
3, 156956, Note_off_c, 1, 62, 64
3, 157056, Note_on_c, 1, 72, 68
3, 157148, Note_off_c, 1, 72, 64
3, 157248, Note_on_c, 1, 71, 68
3, 157436, Note_off_c, 1, 71, 64
3, 157632, Note_on_c, 1, 67, 68
3, 157820, Note_off_c, 1, 67, 64
3, 157824, Note_on_c, 1, 67, 68
3, 158012, Note_off_c, 1, 67, 64
3, 158208, Note_on_c, 1, 67, 68
3, 158396, Note_off_c, 1, 67, 64
3, 158400, Note_on_c, 1, 67, 68
3, 158588, Note_off_c, 1, 67, 64
3, 158592, Note_on_c, 1, 69, 68
3, 158780, Note_off_c, 1, 69, 64
3, 158784, Note_on_c, 1, 66, 68
3, 158972, Note_off_c, 1, 66, 64
3, 158976, Note_on_c, 1, 67, 68
3, 159164, Note_off_c, 1, 67, 64
3, 159744, Note_on_c, 1, 78, 89
3, 159744, Note_on_c, 1, 72, 89
3, 159932, Note_off_c, 1, 78, 64
3, 159932, Note_off_c, 1, 72, 64
3, 159936, Note_on_c, 1, 79, 89
3, 159936, Note_on_c, 1, 71, 89
3, 160124, Note_off_c, 1, 79, 64
3, 160124, Note_off_c, 1, 71, 64
3, 160320, Note_on_c, 1, 78, 89
3, 160320, Note_on_c, 1, 72, 89
3, 160508, Note_off_c, 1, 78, 64
3, 160508, Note_off_c, 1, 72, 64
3, 160512, Note_on_c, 1, 79, 89
3, 160512, Note_on_c, 1, 71, 89
3, 160700, Note_off_c, 1, 79, 64
3, 160700, Note_off_c, 1, 71, 64
3, 160896, Note_on_c, 1, 78, 89
3, 160896, Note_on_c, 1, 72, 89
3, 161084, Note_off_c, 1, 78, 64
3, 161084, Note_off_c, 1, 72, 64
3, 161088, Note_on_c, 1, 79, 89
3, 161088, Note_on_c, 1, 71, 89
3, 161276, Note_off_c, 1, 79, 64
3, 161276, Note_off_c, 1, 71, 64
3, 161280, Note_on_c, 1, 84, 89
3, 161280, Note_on_c, 1, 81, 89
3, 161660, Note_off_c, 1, 84, 64
3, 161660, Note_off_c, 1, 81, 64
3, 161664, Note_on_c, 1, 81, 89
3, 161664, Note_on_c, 1, 78, 89
3, 161852, Note_off_c, 1, 81, 64
3, 161852, Note_off_c, 1, 78, 64
3, 162048, Note_on_c, 1, 80, 89
3, 162048, Note_on_c, 1, 71, 89
3, 162236, Note_off_c, 1, 80, 64
3, 162236, Note_off_c, 1, 71, 64
3, 162240, Note_on_c, 1, 81, 89
3, 162240, Note_on_c, 1, 72, 89
3, 162428, Note_off_c, 1, 81, 64
3, 162428, Note_off_c, 1, 72, 64
3, 162624, Note_on_c, 1, 80, 89
3, 162624, Note_on_c, 1, 71, 89
3, 162812, Note_off_c, 1, 80, 64
3, 162812, Note_off_c, 1, 71, 64
3, 162816, Note_on_c, 1, 81, 89
3, 162816, Note_on_c, 1, 72, 89
3, 163004, Note_off_c, 1, 81, 64
3, 163004, Note_off_c, 1, 72, 64
3, 163200, Note_on_c, 1, 80, 89
3, 163200, Note_on_c, 1, 71, 89
3, 163388, Note_off_c, 1, 80, 64
3, 163388, Note_off_c, 1, 71, 64
3, 163392, Note_on_c, 1, 81, 89
3, 163392, Note_on_c, 1, 72, 89
3, 163580, Note_off_c, 1, 81, 64
3, 163580, Note_off_c, 1, 72, 64
3, 163584, Note_on_c, 1, 86, 89
3, 163584, Note_on_c, 1, 83, 89
3, 163964, Note_off_c, 1, 86, 64
3, 163964, Note_off_c, 1, 83, 64
3, 163968, Note_on_c, 1, 83, 89
3, 163968, Note_on_c, 1, 74, 89
3, 164156, Note_off_c, 1, 83, 64
3, 164156, Note_off_c, 1, 74, 64
3, 164160, Note_on_c, 1, 79, 89
3, 164252, Note_off_c, 1, 79, 64
3, 164256, Note_on_c, 1, 78, 89
3, 164348, Note_off_c, 1, 78, 64
3, 164352, Note_on_c, 1, 76, 89
3, 164444, Note_off_c, 1, 76, 64
3, 164448, Note_on_c, 1, 74, 89
3, 164540, Note_off_c, 1, 74, 64
3, 164544, Note_on_c, 1, 72, 89
3, 164636, Note_off_c, 1, 72, 64
3, 164640, Note_on_c, 1, 71, 89
3, 164732, Note_off_c, 1, 71, 64
3, 164736, Note_on_c, 1, 76, 89
3, 164828, Note_off_c, 1, 76, 64
3, 164832, Note_on_c, 1, 74, 89
3, 164924, Note_off_c, 1, 74, 64
3, 164928, Note_on_c, 1, 72, 89
3, 165020, Note_off_c, 1, 72, 64
3, 165024, Note_on_c, 1, 71, 89
3, 165116, Note_off_c, 1, 71, 64
3, 165120, Note_on_c, 1, 69, 89
3, 165212, Note_off_c, 1, 69, 64
3, 165216, Note_on_c, 1, 68, 89
3, 165308, Note_off_c, 1, 68, 64
3, 165312, Note_on_c, 1, 72, 89
3, 165404, Note_off_c, 1, 72, 64
3, 165408, Note_on_c, 1, 71, 89
3, 165500, Note_off_c, 1, 71, 64
3, 165504, Note_on_c, 1, 69, 89
3, 165596, Note_off_c, 1, 69, 64
3, 165600, Note_on_c, 1, 67, 89
3, 165692, Note_off_c, 1, 67, 64
3, 165696, Note_on_c, 1, 66, 89
3, 165788, Note_off_c, 1, 66, 64
3, 165792, Note_on_c, 1, 64, 89
3, 165884, Note_off_c, 1, 64, 64
3, 165888, Note_on_c, 1, 62, 89
3, 165980, Note_off_c, 1, 62, 64
3, 165984, Note_on_c, 1, 66, 89
3, 166076, Note_off_c, 1, 66, 64
3, 166080, Note_on_c, 1, 67, 89
3, 166172, Note_off_c, 1, 67, 64
3, 166176, Note_on_c, 1, 69, 89
3, 166268, Note_off_c, 1, 69, 64
3, 166272, Note_on_c, 1, 71, 89
3, 166364, Note_off_c, 1, 71, 64
3, 166368, Note_on_c, 1, 73, 89
3, 166460, Note_off_c, 1, 73, 64
3, 166464, Note_on_c, 1, 74, 89
3, 166556, Note_off_c, 1, 74, 64
3, 166560, Note_on_c, 1, 73, 89
3, 166652, Note_off_c, 1, 73, 64
3, 166656, Note_on_c, 1, 74, 89
3, 166748, Note_off_c, 1, 74, 64
3, 166752, Note_on_c, 1, 73, 89
3, 166844, Note_off_c, 1, 73, 64
3, 166848, Note_on_c, 1, 74, 89
3, 166940, Note_off_c, 1, 74, 64
3, 166944, Note_on_c, 1, 73, 89
3, 167036, Note_off_c, 1, 73, 64
3, 167040, Note_on_c, 1, 74, 89
3, 167132, Note_off_c, 1, 74, 64
3, 167136, Note_on_c, 1, 73, 89
3, 167228, Note_off_c, 1, 73, 64
3, 167232, Note_on_c, 1, 74, 89
3, 167324, Note_off_c, 1, 74, 64
3, 167328, Note_on_c, 1, 73, 89
3, 167420, Note_off_c, 1, 73, 64
3, 167424, Note_on_c, 1, 74, 89
3, 167516, Note_off_c, 1, 74, 64
3, 167520, Note_on_c, 1, 73, 89
3, 167612, Note_off_c, 1, 73, 64
3, 167616, Note_on_c, 1, 74, 89
3, 167804, Note_off_c, 1, 74, 64
3, 168192, Note_on_c, 1, 81, 89
3, 168192, Note_on_c, 1, 78, 89
3, 168192, Note_on_c, 1, 74, 89
3, 168192, Note_on_c, 1, 69, 89
3, 168380, Note_off_c, 1, 81, 64
3, 168380, Note_off_c, 1, 78, 64
3, 168380, Note_off_c, 1, 74, 64
3, 168380, Note_off_c, 1, 69, 64
3, 168768, Note_on_c, 1, 86, 89
3, 168768, Note_on_c, 1, 81, 89
3, 168768, Note_on_c, 1, 78, 89
3, 168768, Note_on_c, 1, 74, 89
3, 168956, Note_off_c, 1, 86, 64
3, 168956, Note_off_c, 1, 81, 64
3, 168956, Note_off_c, 1, 78, 64
3, 168956, Note_off_c, 1, 74, 64
3, 169920, Note_on_c, 1, 55, 68
3, 170012, Note_off_c, 1, 55, 64
3, 170112, Note_on_c, 1, 58, 68
3, 170204, Note_off_c, 1, 58, 64
3, 170304, Note_on_c, 1, 62, 68
3, 170396, Note_off_c, 1, 62, 64
3, 170480, Note_on_c, 1, 66, 68
3, 170572, Note_off_c, 1, 66, 64
3, 170688, Note_on_c, 1, 67, 68
3, 170780, Note_off_c, 1, 67, 64
3, 170880, Note_on_c, 1, 70, 68
3, 170972, Note_off_c, 1, 70, 64
3, 171072, Note_on_c, 1, 62, 68
3, 171164, Note_off_c, 1, 62, 64
3, 171264, Note_on_c, 1, 58, 68
3, 171356, Note_off_c, 1, 58, 64
3, 171456, Note_on_c, 1, 55, 68
3, 171548, Note_off_c, 1, 55, 64
3, 171648, Note_on_c, 1, 59, 68
3, 171740, Note_off_c, 1, 59, 64
3, 171840, Note_on_c, 1, 60, 68
3, 171932, Note_off_c, 1, 60, 64
3, 172032, Note_on_c, 1, 63, 68
3, 172124, Note_off_c, 1, 63, 64
3, 172224, Note_on_c, 1, 69, 68
3, 172316, Note_off_c, 1, 69, 64
3, 172416, Note_on_c, 1, 72, 68
3, 172508, Note_off_c, 1, 72, 64
3, 172608, Note_on_c, 1, 63, 68
3, 172700, Note_off_c, 1, 63, 64
3, 172800, Note_on_c, 1, 60, 68
3, 172892, Note_off_c, 1, 60, 64
3, 172992, Note_on_c, 1, 58, 68
3, 173084, Note_off_c, 1, 58, 64
3, 173184, Note_on_c, 1, 62, 68
3, 173276, Note_off_c, 1, 62, 64
3, 173376, Note_on_c, 1, 65, 68
3, 173468, Note_off_c, 1, 65, 64
3, 173568, Note_on_c, 1, 62, 68
3, 173660, Note_off_c, 1, 62, 64
3, 173760, Note_on_c, 1, 67, 68
3, 173852, Note_off_c, 1, 67, 64
3, 173952, Note_on_c, 1, 58, 68
3, 174044, Note_off_c, 1, 58, 64
3, 174144, Note_on_c, 1, 55, 68
3, 174236, Note_off_c, 1, 55, 64
3, 174336, Note_on_c, 1, 58, 68
3, 174428, Note_off_c, 1, 58, 64
3, 174528, Note_on_c, 1, 63, 68
3, 174620, Note_off_c, 1, 63, 64
3, 174720, Note_on_c, 1, 60, 68
3, 174812, Note_off_c, 1, 60, 64
3, 174912, Note_on_c, 1, 57, 68
3, 175004, Note_off_c, 1, 57, 64
3, 175104, Note_on_c, 1, 63, 68
3, 175196, Note_off_c, 1, 63, 64
3, 175296, Note_on_c, 1, 62, 68
3, 175388, Note_off_c, 1, 62, 64
3, 175488, Note_on_c, 1, 69, 68
3, 175580, Note_off_c, 1, 69, 64
3, 175680, Note_on_c, 1, 72, 68
3, 175772, Note_off_c, 1, 72, 64
3, 175872, Note_on_c, 1, 66, 68
3, 175964, Note_off_c, 1, 66, 64
3, 176064, Note_on_c, 1, 67, 68
3, 176156, Note_off_c, 1, 67, 64
3, 176256, Note_on_c, 1, 62, 68
3, 176348, Note_off_c, 1, 62, 64
3, 176448, Note_on_c, 1, 58, 68
3, 176540, Note_off_c, 1, 58, 64
3, 176640, Note_on_c, 1, 62, 68
3, 176732, Note_off_c, 1, 62, 64
3, 176832, Note_on_c, 1, 67, 68
3, 176924, Note_off_c, 1, 67, 64
3, 177024, Note_on_c, 1, 70, 68
3, 177116, Note_off_c, 1, 70, 64
3, 177216, Note_on_c, 1, 62, 68
3, 177308, Note_off_c, 1, 62, 64
3, 177408, Note_on_c, 1, 58, 68
3, 177500, Note_off_c, 1, 58, 64
3, 177600, Note_on_c, 1, 55, 68
3, 177692, Note_off_c, 1, 55, 64
3, 177792, Note_on_c, 1, 59, 68
3, 177884, Note_off_c, 1, 59, 64
3, 177984, Note_on_c, 1, 60, 68
3, 178076, Note_off_c, 1, 60, 64
3, 178176, Note_on_c, 1, 63, 68
3, 178268, Note_off_c, 1, 63, 64
3, 178368, Note_on_c, 1, 69, 68
3, 178460, Note_off_c, 1, 69, 64
3, 178560, Note_on_c, 1, 72, 68
3, 178652, Note_off_c, 1, 72, 64
3, 178752, Note_on_c, 1, 63, 68
3, 178844, Note_off_c, 1, 63, 64
3, 178944, Note_on_c, 1, 60, 68
3, 179036, Note_off_c, 1, 60, 64
3, 179136, Note_on_c, 1, 58, 68
3, 179228, Note_off_c, 1, 58, 64
3, 179328, Note_on_c, 1, 62, 68
3, 179420, Note_off_c, 1, 62, 64
3, 179520, Note_on_c, 1, 65, 68
3, 179612, Note_off_c, 1, 65, 64
3, 179712, Note_on_c, 1, 62, 68
3, 179804, Note_off_c, 1, 62, 64
3, 179904, Note_on_c, 1, 67, 68
3, 179996, Note_off_c, 1, 67, 64
3, 180096, Note_on_c, 1, 58, 68
3, 180188, Note_off_c, 1, 58, 64
3, 180288, Note_on_c, 1, 55, 68
3, 180380, Note_off_c, 1, 55, 64
3, 180480, Note_on_c, 1, 58, 68
3, 180572, Note_off_c, 1, 58, 64
3, 180672, Note_on_c, 1, 63, 68
3, 180764, Note_off_c, 1, 63, 64
3, 180864, Note_on_c, 1, 60, 68
3, 180956, Note_off_c, 1, 60, 64
3, 181056, Note_on_c, 1, 57, 68
3, 181148, Note_off_c, 1, 57, 64
3, 181248, Note_on_c, 1, 63, 68
3, 181340, Note_off_c, 1, 63, 64
3, 181440, Note_on_c, 1, 62, 68
3, 181532, Note_off_c, 1, 62, 64
3, 181632, Note_on_c, 1, 69, 68
3, 181724, Note_off_c, 1, 69, 64
3, 181824, Note_on_c, 1, 72, 68
3, 181916, Note_off_c, 1, 72, 64
3, 182016, Note_on_c, 1, 66, 68
3, 182108, Note_off_c, 1, 66, 64
3, 182208, Note_on_c, 1, 69, 68
3, 182300, Note_off_c, 1, 69, 64
3, 182400, Note_on_c, 1, 62, 68
3, 182492, Note_off_c, 1, 62, 64
3, 182592, Note_on_c, 1, 58, 68
3, 182684, Note_off_c, 1, 58, 64
3, 182784, Note_on_c, 1, 62, 68
3, 182876, Note_off_c, 1, 62, 64
3, 182976, Note_on_c, 1, 55, 68
3, 183068, Note_off_c, 1, 55, 64
3, 183168, Note_on_c, 1, 58, 68
3, 183260, Note_off_c, 1, 58, 64
3, 183360, Note_on_c, 1, 62, 68
3, 183452, Note_off_c, 1, 62, 64
3, 183552, Note_on_c, 1, 67, 68
3, 183644, Note_off_c, 1, 67, 64
3, 183744, Note_on_c, 1, 74, 68
3, 183836, Note_off_c, 1, 74, 64
3, 183936, Note_on_c, 1, 69, 68
3, 184028, Note_off_c, 1, 69, 64
3, 184128, Note_on_c, 1, 66, 68
3, 184220, Note_off_c, 1, 66, 64
3, 184320, Note_on_c, 1, 69, 68
3, 184412, Note_off_c, 1, 69, 64
3, 184512, Note_on_c, 1, 62, 68
3, 184604, Note_off_c, 1, 62, 64
3, 184704, Note_on_c, 1, 66, 68
3, 184796, Note_off_c, 1, 66, 64
3, 184896, Note_on_c, 1, 69, 68
3, 184988, Note_off_c, 1, 69, 64
3, 185088, Note_on_c, 1, 74, 68
3, 185180, Note_off_c, 1, 74, 64
3, 185280, Note_on_c, 1, 70, 68
3, 185372, Note_off_c, 1, 70, 64
3, 185472, Note_on_c, 1, 67, 68
3, 185564, Note_off_c, 1, 67, 64
3, 185664, Note_on_c, 1, 62, 68
3, 185756, Note_off_c, 1, 62, 64
3, 185856, Note_on_c, 1, 58, 68
3, 185948, Note_off_c, 1, 58, 64
3, 186048, Note_on_c, 1, 55, 68
3, 186140, Note_off_c, 1, 55, 64
3, 186240, Note_on_c, 1, 58, 68
3, 186240, Note_on_c, 1, 67, 68
3, 186332, Note_off_c, 1, 58, 64
3, 186332, Note_off_c, 1, 67, 64
3, 186432, Note_on_c, 1, 67, 68
3, 186432, Note_on_c, 1, 70, 68
3, 186524, Note_off_c, 1, 67, 64
3, 186524, Note_off_c, 1, 70, 64
3, 186624, Note_on_c, 1, 67, 68
3, 186624, Note_on_c, 1, 55, 68
3, 186716, Note_off_c, 1, 67, 64
3, 186716, Note_off_c, 1, 55, 64
3, 186816, Note_on_c, 1, 66, 68
3, 186816, Note_on_c, 1, 57, 68
3, 187004, Note_off_c, 1, 66, 64
3, 187004, Note_off_c, 1, 57, 64
3, 189888, Note_on_c, 1, 62, 68
3, 189888, Note_on_c, 1, 59, 68
3, 190076, Note_off_c, 1, 62, 64
3, 190076, Note_off_c, 1, 59, 64
3, 190080, Note_on_c, 1, 67, 68
3, 190268, Note_off_c, 1, 67, 64
3, 190272, Note_on_c, 1, 62, 68
3, 190272, Note_on_c, 1, 59, 68
3, 190460, Note_off_c, 1, 62, 64
3, 190460, Note_off_c, 1, 59, 64
3, 190464, Note_on_c, 1, 67, 68
3, 190652, Note_off_c, 1, 67, 64
3, 190656, Note_on_c, 1, 62, 68
3, 190656, Note_on_c, 1, 59, 68
3, 190844, Note_off_c, 1, 62, 64
3, 190844, Note_off_c, 1, 59, 64
3, 190848, Note_on_c, 1, 67, 68
3, 191036, Note_off_c, 1, 67, 64
3, 191040, Note_on_c, 1, 62, 68
3, 191040, Note_on_c, 1, 60, 68
3, 191228, Note_off_c, 1, 62, 64
3, 191228, Note_off_c, 1, 60, 64
3, 191232, Note_on_c, 1, 66, 68
3, 191420, Note_off_c, 1, 66, 64
3, 191424, Note_on_c, 1, 62, 68
3, 191424, Note_on_c, 1, 59, 68
3, 191612, Note_off_c, 1, 62, 64
3, 191612, Note_off_c, 1, 59, 64
3, 191616, Note_on_c, 1, 67, 68
3, 191804, Note_off_c, 1, 67, 64
3, 191808, Note_on_c, 1, 62, 68
3, 191808, Note_on_c, 1, 59, 68
3, 191996, Note_off_c, 1, 62, 64
3, 191996, Note_off_c, 1, 59, 64
3, 192000, Note_on_c, 1, 67, 68
3, 192188, Note_off_c, 1, 67, 64
3, 192192, Note_on_c, 1, 64, 68
3, 192192, Note_on_c, 1, 59, 68
3, 192380, Note_off_c, 1, 64, 64
3, 192380, Note_off_c, 1, 59, 64
3, 192384, Note_on_c, 1, 67, 68
3, 192572, Note_off_c, 1, 67, 64
3, 192576, Note_on_c, 1, 64, 68
3, 192576, Note_on_c, 1, 59, 68
3, 192764, Note_off_c, 1, 64, 64
3, 192764, Note_off_c, 1, 59, 64
3, 192768, Note_on_c, 1, 67, 68
3, 192956, Note_off_c, 1, 67, 64
3, 192960, Note_on_c, 1, 64, 68
3, 192960, Note_on_c, 1, 60, 68
3, 193148, Note_off_c, 1, 64, 64
3, 193148, Note_off_c, 1, 60, 64
3, 193152, Note_on_c, 1, 69, 68
3, 193340, Note_off_c, 1, 69, 64
3, 193344, Note_on_c, 1, 64, 68
3, 193344, Note_on_c, 1, 60, 68
3, 193532, Note_off_c, 1, 64, 64
3, 193532, Note_off_c, 1, 60, 64
3, 193536, Note_on_c, 1, 69, 68
3, 193724, Note_off_c, 1, 69, 64
3, 193728, Note_on_c, 1, 60, 68
3, 193728, Note_on_c, 1, 57, 68
3, 193916, Note_off_c, 1, 60, 64
3, 193916, Note_off_c, 1, 57, 64
3, 193920, Note_on_c, 1, 66, 68
3, 194108, Note_off_c, 1, 66, 64
3, 194112, Note_on_c, 1, 60, 68
3, 194112, Note_on_c, 1, 57, 68
3, 194300, Note_off_c, 1, 60, 64
3, 194300, Note_off_c, 1, 57, 64
3, 194304, Note_on_c, 1, 66, 68
3, 194492, Note_off_c, 1, 66, 64
3, 194496, Note_on_c, 1, 67, 68
3, 194496, Note_on_c, 1, 59, 68
3, 194684, Note_off_c, 1, 67, 64
3, 194684, Note_off_c, 1, 59, 64
3, 194688, Note_on_c, 1, 62, 68
3, 195068, Note_off_c, 1, 62, 64
3, 195072, Note_on_c, 1, 66, 68
3, 195260, Note_off_c, 1, 66, 64
3, 195264, Note_on_c, 1, 67, 68
3, 195644, Note_off_c, 1, 67, 64
3, 196032, Note_on_c, 1, 67, 89
3, 196032, Note_on_c, 1, 62, 89
3, 196032, Note_on_c, 1, 59, 89
3, 196096, Note_off_c, 1, 67, 64
3, 196096, Note_off_c, 1, 62, 64
3, 196096, Note_off_c, 1, 59, 64
3, 196160, Note_on_c, 1, 67, 89
3, 196160, Note_on_c, 1, 62, 89
3, 196160, Note_on_c, 1, 59, 89
3, 196224, Note_off_c, 1, 67, 64
3, 196224, Note_off_c, 1, 62, 64
3, 196224, Note_off_c, 1, 59, 64
3, 196288, Note_on_c, 1, 67, 89
3, 196288, Note_on_c, 1, 62, 89
3, 196288, Note_on_c, 1, 59, 89
3, 196352, Note_off_c, 1, 67, 64
3, 196352, Note_off_c, 1, 62, 64
3, 196352, Note_off_c, 1, 59, 64
3, 196416, Note_on_c, 1, 67, 89
3, 196416, Note_on_c, 1, 62, 89
3, 196416, Note_on_c, 1, 59, 89
3, 196480, Note_off_c, 1, 67, 64
3, 196480, Note_off_c, 1, 62, 64
3, 196480, Note_off_c, 1, 59, 64
3, 196544, Note_on_c, 1, 67, 89
3, 196544, Note_on_c, 1, 62, 89
3, 196544, Note_on_c, 1, 59, 89
3, 196608, Note_off_c, 1, 67, 64
3, 196608, Note_off_c, 1, 62, 64
3, 196608, Note_off_c, 1, 59, 64
3, 196672, Note_on_c, 1, 67, 89
3, 196672, Note_on_c, 1, 62, 89
3, 196672, Note_on_c, 1, 59, 89
3, 196736, Note_off_c, 1, 67, 64
3, 196736, Note_off_c, 1, 62, 64
3, 196736, Note_off_c, 1, 59, 64
3, 196800, Note_on_c, 1, 67, 89
3, 196800, Note_on_c, 1, 62, 89
3, 196800, Note_on_c, 1, 59, 89
3, 196864, Note_off_c, 1, 67, 64
3, 196864, Note_off_c, 1, 62, 64
3, 196864, Note_off_c, 1, 59, 64
3, 196928, Note_on_c, 1, 67, 89
3, 196928, Note_on_c, 1, 62, 89
3, 196928, Note_on_c, 1, 59, 89
3, 196992, Note_off_c, 1, 67, 64
3, 196992, Note_off_c, 1, 62, 64
3, 196992, Note_off_c, 1, 59, 64
3, 197056, Note_on_c, 1, 67, 89
3, 197056, Note_on_c, 1, 62, 89
3, 197056, Note_on_c, 1, 59, 89
3, 197120, Note_off_c, 1, 67, 64
3, 197120, Note_off_c, 1, 62, 64
3, 197120, Note_off_c, 1, 59, 64
3, 197184, Note_on_c, 1, 69, 89
3, 197184, Note_on_c, 1, 66, 89
3, 197184, Note_on_c, 1, 62, 89
3, 197248, Note_off_c, 1, 69, 64
3, 197248, Note_off_c, 1, 66, 64
3, 197248, Note_off_c, 1, 62, 64
3, 197312, Note_on_c, 1, 69, 89
3, 197312, Note_on_c, 1, 66, 89
3, 197312, Note_on_c, 1, 62, 89
3, 197376, Note_off_c, 1, 69, 64
3, 197376, Note_off_c, 1, 66, 64
3, 197376, Note_off_c, 1, 62, 64
3, 197440, Note_on_c, 1, 69, 89
3, 197440, Note_on_c, 1, 66, 89
3, 197440, Note_on_c, 1, 62, 89
3, 197504, Note_off_c, 1, 69, 64
3, 197504, Note_off_c, 1, 66, 64
3, 197504, Note_off_c, 1, 62, 64
3, 197568, Note_on_c, 1, 71, 89
3, 197568, Note_on_c, 1, 67, 89
3, 197568, Note_on_c, 1, 62, 89
3, 197632, Note_off_c, 1, 71, 64
3, 197632, Note_off_c, 1, 67, 64
3, 197632, Note_off_c, 1, 62, 64
3, 197696, Note_on_c, 1, 71, 89
3, 197696, Note_on_c, 1, 67, 89
3, 197696, Note_on_c, 1, 62, 89
3, 197760, Note_off_c, 1, 71, 64
3, 197760, Note_off_c, 1, 67, 64
3, 197760, Note_off_c, 1, 62, 64
3, 197824, Note_on_c, 1, 71, 89
3, 197824, Note_on_c, 1, 67, 89
3, 197824, Note_on_c, 1, 62, 89
3, 197888, Note_off_c, 1, 71, 64
3, 197888, Note_off_c, 1, 67, 64
3, 197888, Note_off_c, 1, 62, 64
3, 197952, Note_on_c, 1, 71, 89
3, 197952, Note_on_c, 1, 67, 89
3, 197952, Note_on_c, 1, 62, 89
3, 198016, Note_off_c, 1, 71, 64
3, 198016, Note_off_c, 1, 67, 64
3, 198016, Note_off_c, 1, 62, 64
3, 198080, Note_on_c, 1, 71, 89
3, 198080, Note_on_c, 1, 67, 89
3, 198080, Note_on_c, 1, 62, 89
3, 198144, Note_off_c, 1, 71, 64
3, 198144, Note_off_c, 1, 67, 64
3, 198144, Note_off_c, 1, 62, 64
3, 198208, Note_on_c, 1, 71, 89
3, 198208, Note_on_c, 1, 67, 89
3, 198208, Note_on_c, 1, 62, 89
3, 198272, Note_off_c, 1, 71, 64
3, 198272, Note_off_c, 1, 67, 64
3, 198272, Note_off_c, 1, 62, 64
3, 198336, Note_on_c, 1, 71, 89
3, 198336, Note_on_c, 1, 67, 89
3, 198336, Note_on_c, 1, 62, 89
3, 198400, Note_off_c, 1, 71, 64
3, 198400, Note_off_c, 1, 67, 64
3, 198400, Note_off_c, 1, 62, 64
3, 198464, Note_on_c, 1, 71, 89
3, 198464, Note_on_c, 1, 67, 89
3, 198464, Note_on_c, 1, 62, 89
3, 198528, Note_off_c, 1, 71, 64
3, 198528, Note_off_c, 1, 67, 64
3, 198528, Note_off_c, 1, 62, 64
3, 198592, Note_on_c, 1, 71, 89
3, 198592, Note_on_c, 1, 67, 89
3, 198592, Note_on_c, 1, 62, 89
3, 198656, Note_off_c, 1, 71, 64
3, 198656, Note_off_c, 1, 67, 64
3, 198656, Note_off_c, 1, 62, 64
3, 198720, Note_on_c, 1, 67, 89
3, 198720, Note_on_c, 1, 62, 89
3, 198784, Note_off_c, 1, 67, 64
3, 198784, Note_off_c, 1, 62, 64
3, 198848, Note_on_c, 1, 67, 89
3, 198848, Note_on_c, 1, 62, 89
3, 198912, Note_off_c, 1, 67, 64
3, 198912, Note_off_c, 1, 62, 64
3, 198976, Note_on_c, 1, 67, 89
3, 198976, Note_on_c, 1, 62, 89
3, 199040, Note_off_c, 1, 67, 64
3, 199040, Note_off_c, 1, 62, 64
3, 199104, Note_on_c, 1, 69, 89
3, 199104, Note_on_c, 1, 64, 89
3, 199228, Note_off_c, 1, 69, 64
3, 199228, Note_off_c, 1, 64, 64
3, 199232, Note_on_c, 1, 69, 89
3, 199232, Note_on_c, 1, 64, 89
3, 199356, Note_off_c, 1, 69, 64
3, 199356, Note_off_c, 1, 64, 64
3, 199360, Note_on_c, 1, 69, 89
3, 199360, Note_on_c, 1, 64, 89
3, 199484, Note_off_c, 1, 69, 64
3, 199484, Note_off_c, 1, 64, 64
3, 199488, Note_on_c, 1, 69, 89
3, 199488, Note_on_c, 1, 64, 89
3, 199488, Note_on_c, 1, 60, 89
3, 199612, Note_off_c, 1, 69, 64
3, 199612, Note_off_c, 1, 64, 64
3, 199612, Note_off_c, 1, 60, 64
3, 199616, Note_on_c, 1, 69, 89
3, 199616, Note_on_c, 1, 64, 89
3, 199616, Note_on_c, 1, 60, 89
3, 199740, Note_off_c, 1, 69, 64
3, 199740, Note_off_c, 1, 64, 64
3, 199740, Note_off_c, 1, 60, 64
3, 199744, Note_on_c, 1, 69, 89
3, 199744, Note_on_c, 1, 64, 89
3, 199744, Note_on_c, 1, 60, 89
3, 199868, Note_off_c, 1, 69, 64
3, 199868, Note_off_c, 1, 64, 64
3, 199868, Note_off_c, 1, 60, 64
3, 199872, Note_on_c, 1, 69, 89
3, 199872, Note_on_c, 1, 66, 89
3, 199872, Note_on_c, 1, 60, 89
3, 199996, Note_off_c, 1, 69, 64
3, 199996, Note_off_c, 1, 66, 64
3, 199996, Note_off_c, 1, 60, 64
3, 200000, Note_on_c, 1, 69, 89
3, 200000, Note_on_c, 1, 66, 89
3, 200000, Note_on_c, 1, 60, 89
3, 200124, Note_off_c, 1, 69, 64
3, 200124, Note_off_c, 1, 66, 64
3, 200124, Note_off_c, 1, 60, 64
3, 200128, Note_on_c, 1, 69, 89
3, 200128, Note_on_c, 1, 66, 89
3, 200128, Note_on_c, 1, 60, 89
3, 200252, Note_off_c, 1, 69, 64
3, 200252, Note_off_c, 1, 66, 64
3, 200252, Note_off_c, 1, 60, 64
3, 200256, Note_on_c, 1, 66, 89
3, 200256, Note_on_c, 1, 60, 89
3, 200256, Note_on_c, 1, 57, 89
3, 200380, Note_off_c, 1, 66, 64
3, 200380, Note_off_c, 1, 60, 64
3, 200380, Note_off_c, 1, 57, 64
3, 200384, Note_on_c, 1, 66, 89
3, 200384, Note_on_c, 1, 60, 89
3, 200384, Note_on_c, 1, 57, 89
3, 200508, Note_off_c, 1, 66, 64
3, 200508, Note_off_c, 1, 60, 64
3, 200508, Note_off_c, 1, 57, 64
3, 200512, Note_on_c, 1, 66, 89
3, 200512, Note_on_c, 1, 60, 89
3, 200512, Note_on_c, 1, 57, 89
3, 200636, Note_off_c, 1, 66, 64
3, 200636, Note_off_c, 1, 60, 64
3, 200636, Note_off_c, 1, 57, 64
3, 200640, Note_on_c, 1, 67, 89
3, 200640, Note_on_c, 1, 59, 89
3, 200640, Note_on_c, 1, 55, 89
3, 200764, Note_off_c, 1, 67, 64
3, 200768, Note_on_c, 1, 67, 89
3, 200768, Note_on_c, 1, 62, 89
3, 200768, Note_on_c, 1, 59, 89
3, 200828, Note_off_c, 1, 59, 64
3, 200828, Note_off_c, 1, 55, 64
3, 200892, Note_off_c, 1, 67, 64
3, 200892, Note_off_c, 1, 62, 64
3, 200892, Note_off_c, 1, 59, 64
3, 200896, Note_on_c, 1, 67, 89
3, 200896, Note_on_c, 1, 62, 89
3, 200896, Note_on_c, 1, 59, 89
3, 201020, Note_off_c, 1, 67, 64
3, 201020, Note_off_c, 1, 62, 64
3, 201020, Note_off_c, 1, 59, 64
3, 201024, Note_on_c, 1, 67, 89
3, 201024, Note_on_c, 1, 62, 89
3, 201024, Note_on_c, 1, 59, 89
3, 201148, Note_off_c, 1, 67, 64
3, 201148, Note_off_c, 1, 62, 64
3, 201148, Note_off_c, 1, 59, 64
3, 201152, Note_on_c, 1, 67, 89
3, 201152, Note_on_c, 1, 62, 89
3, 201152, Note_on_c, 1, 59, 89
3, 201276, Note_off_c, 1, 67, 64
3, 201276, Note_off_c, 1, 62, 64
3, 201276, Note_off_c, 1, 59, 64
3, 201280, Note_on_c, 1, 67, 89
3, 201280, Note_on_c, 1, 62, 89
3, 201280, Note_on_c, 1, 59, 89
3, 201404, Note_off_c, 1, 67, 64
3, 201404, Note_off_c, 1, 62, 64
3, 201404, Note_off_c, 1, 59, 64
3, 201408, Note_on_c, 1, 67, 89
3, 201408, Note_on_c, 1, 62, 89
3, 201408, Note_on_c, 1, 59, 89
3, 201596, Note_off_c, 1, 67, 64
3, 201596, Note_off_c, 1, 62, 64
3, 201596, Note_off_c, 1, 59, 64
3, 201600, Note_on_c, 1, 69, 68
3, 201788, Note_off_c, 1, 69, 64
3, 201792, Note_on_c, 1, 71, 68
3, 201980, Note_off_c, 1, 71, 64
3, 201984, Note_on_c, 1, 72, 68
3, 202172, Note_off_c, 1, 72, 64
3, 202176, Note_on_c, 1, 74, 68
3, 202364, Note_off_c, 1, 74, 64
3, 202368, Note_on_c, 1, 62, 68
3, 202460, Note_off_c, 1, 62, 64
3, 202560, Note_on_c, 1, 62, 68
3, 202652, Note_off_c, 1, 62, 64
3, 202752, Note_on_c, 1, 62, 68
3, 202844, Note_off_c, 1, 62, 64
3, 202944, Note_on_c, 1, 62, 68
3, 203036, Note_off_c, 1, 62, 64
3, 203136, Note_on_c, 1, 62, 68
3, 203228, Note_off_c, 1, 62, 64
3, 203328, Note_on_c, 1, 62, 68
3, 203420, Note_off_c, 1, 62, 64
3, 203520, Note_on_c, 1, 66, 68
3, 203612, Note_off_c, 1, 66, 64
3, 203712, Note_on_c, 1, 67, 68
3, 203900, Note_off_c, 1, 67, 64
3, 203904, Note_on_c, 1, 62, 68
3, 204092, Note_off_c, 1, 62, 64
3, 204096, Note_on_c, 1, 62, 68
3, 204188, Note_off_c, 1, 62, 64
3, 204288, Note_on_c, 1, 62, 68
3, 204380, Note_off_c, 1, 62, 64
3, 204480, Note_on_c, 1, 62, 68
3, 204572, Note_off_c, 1, 62, 64
3, 204672, Note_on_c, 1, 62, 68
3, 204764, Note_off_c, 1, 62, 64
3, 204864, Note_on_c, 1, 62, 68
3, 204956, Note_off_c, 1, 62, 64
3, 205056, Note_on_c, 1, 62, 68
3, 205148, Note_off_c, 1, 62, 64
3, 205248, Note_on_c, 1, 74, 68
3, 205436, Note_off_c, 1, 74, 64
3, 205440, Note_on_c, 1, 62, 68
3, 205628, Note_off_c, 1, 62, 64
3, 205632, Note_on_c, 1, 62, 68
3, 205724, Note_off_c, 1, 62, 64
3, 205824, Note_on_c, 1, 62, 68
3, 205916, Note_off_c, 1, 62, 64
3, 206016, Note_on_c, 1, 62, 68
3, 206108, Note_off_c, 1, 62, 64
3, 206208, Note_on_c, 1, 62, 68
3, 206300, Note_off_c, 1, 62, 64
3, 206400, Note_on_c, 1, 62, 68
3, 206492, Note_off_c, 1, 62, 64
3, 206592, Note_on_c, 1, 66, 68
3, 206684, Note_off_c, 1, 66, 64
3, 206784, Note_on_c, 1, 66, 68
3, 206784, Note_on_c, 1, 62, 68
3, 207548, Note_off_c, 1, 66, 64
3, 207548, Note_off_c, 1, 62, 64
3, 207552, Note_on_c, 1, 67, 68
3, 207552, Note_on_c, 1, 62, 68
3, 207932, Note_off_c, 1, 67, 64
3, 207932, Note_off_c, 1, 62, 64
3, 208320, Note_on_c, 1, 67, 89
3, 208320, Note_on_c, 1, 62, 89
3, 208320, Note_on_c, 1, 59, 89
3, 208384, Note_off_c, 1, 67, 64
3, 208384, Note_off_c, 1, 62, 64
3, 208384, Note_off_c, 1, 59, 64
3, 208448, Note_on_c, 1, 67, 89
3, 208448, Note_on_c, 1, 62, 89
3, 208448, Note_on_c, 1, 59, 89
3, 208512, Note_off_c, 1, 67, 64
3, 208512, Note_off_c, 1, 62, 64
3, 208512, Note_off_c, 1, 59, 64
3, 208576, Note_on_c, 1, 67, 89
3, 208576, Note_on_c, 1, 62, 89
3, 208576, Note_on_c, 1, 59, 89
3, 208640, Note_off_c, 1, 67, 64
3, 208640, Note_off_c, 1, 62, 64
3, 208640, Note_off_c, 1, 59, 64
3, 208704, Note_on_c, 1, 67, 89
3, 208704, Note_on_c, 1, 62, 89
3, 208704, Note_on_c, 1, 59, 89
3, 208768, Note_off_c, 1, 67, 64
3, 208768, Note_off_c, 1, 62, 64
3, 208768, Note_off_c, 1, 59, 64
3, 208832, Note_on_c, 1, 67, 89
3, 208832, Note_on_c, 1, 62, 89
3, 208832, Note_on_c, 1, 59, 89
3, 208896, Note_off_c, 1, 67, 64
3, 208896, Note_off_c, 1, 62, 64
3, 208896, Note_off_c, 1, 59, 64
3, 208960, Note_on_c, 1, 67, 89
3, 208960, Note_on_c, 1, 62, 89
3, 208960, Note_on_c, 1, 59, 89
3, 209024, Note_off_c, 1, 67, 64
3, 209024, Note_off_c, 1, 62, 64
3, 209024, Note_off_c, 1, 59, 64
3, 209088, Note_on_c, 1, 67, 89
3, 209088, Note_on_c, 1, 62, 89
3, 209088, Note_on_c, 1, 59, 89
3, 209152, Note_off_c, 1, 67, 64
3, 209152, Note_off_c, 1, 62, 64
3, 209152, Note_off_c, 1, 59, 64
3, 209216, Note_on_c, 1, 67, 89
3, 209216, Note_on_c, 1, 62, 89
3, 209216, Note_on_c, 1, 59, 89
3, 209280, Note_off_c, 1, 67, 64
3, 209280, Note_off_c, 1, 62, 64
3, 209280, Note_off_c, 1, 59, 64
3, 209344, Note_on_c, 1, 67, 89
3, 209344, Note_on_c, 1, 62, 89
3, 209344, Note_on_c, 1, 59, 89
3, 209408, Note_off_c, 1, 67, 64
3, 209408, Note_off_c, 1, 62, 64
3, 209408, Note_off_c, 1, 59, 64
3, 209472, Note_on_c, 1, 69, 89
3, 209472, Note_on_c, 1, 66, 89
3, 209472, Note_on_c, 1, 62, 89
3, 209536, Note_off_c, 1, 69, 64
3, 209536, Note_off_c, 1, 66, 64
3, 209536, Note_off_c, 1, 62, 64
3, 209600, Note_on_c, 1, 69, 89
3, 209600, Note_on_c, 1, 66, 89
3, 209600, Note_on_c, 1, 62, 89
3, 209664, Note_off_c, 1, 69, 64
3, 209664, Note_off_c, 1, 66, 64
3, 209664, Note_off_c, 1, 62, 64
3, 209728, Note_on_c, 1, 69, 89
3, 209728, Note_on_c, 1, 66, 89
3, 209728, Note_on_c, 1, 62, 89
3, 209792, Note_off_c, 1, 69, 64
3, 209792, Note_off_c, 1, 66, 64
3, 209792, Note_off_c, 1, 62, 64
3, 209856, Note_on_c, 1, 71, 89
3, 209856, Note_on_c, 1, 67, 89
3, 209856, Note_on_c, 1, 62, 89
3, 209980, Note_off_c, 1, 71, 64
3, 209980, Note_off_c, 1, 67, 64
3, 209980, Note_off_c, 1, 62, 64
3, 209984, Note_on_c, 1, 71, 89
3, 209984, Note_on_c, 1, 67, 89
3, 209984, Note_on_c, 1, 62, 89
3, 210108, Note_off_c, 1, 71, 64
3, 210108, Note_off_c, 1, 67, 64
3, 210108, Note_off_c, 1, 62, 64
3, 210112, Note_on_c, 1, 71, 89
3, 210112, Note_on_c, 1, 67, 89
3, 210112, Note_on_c, 1, 62, 89
3, 210236, Note_off_c, 1, 71, 64
3, 210236, Note_off_c, 1, 67, 64
3, 210236, Note_off_c, 1, 62, 64
3, 210240, Note_on_c, 1, 71, 89
3, 210240, Note_on_c, 1, 67, 89
3, 210240, Note_on_c, 1, 62, 89
3, 210364, Note_off_c, 1, 71, 64
3, 210364, Note_off_c, 1, 67, 64
3, 210364, Note_off_c, 1, 62, 64
3, 210368, Note_on_c, 1, 71, 89
3, 210368, Note_on_c, 1, 67, 89
3, 210368, Note_on_c, 1, 62, 89
3, 210492, Note_off_c, 1, 71, 64
3, 210492, Note_off_c, 1, 67, 64
3, 210492, Note_off_c, 1, 62, 64
3, 210496, Note_on_c, 1, 71, 89
3, 210496, Note_on_c, 1, 67, 89
3, 210496, Note_on_c, 1, 62, 89
3, 210620, Note_off_c, 1, 71, 64
3, 210620, Note_off_c, 1, 67, 64
3, 210620, Note_off_c, 1, 62, 64
3, 210624, Note_on_c, 1, 71, 89
3, 210624, Note_on_c, 1, 67, 89
3, 210624, Note_on_c, 1, 62, 89
3, 210748, Note_off_c, 1, 71, 64
3, 210748, Note_off_c, 1, 67, 64
3, 210748, Note_off_c, 1, 62, 64
3, 210752, Note_on_c, 1, 71, 89
3, 210752, Note_on_c, 1, 67, 89
3, 210752, Note_on_c, 1, 62, 89
3, 210876, Note_off_c, 1, 71, 64
3, 210876, Note_off_c, 1, 67, 64
3, 210876, Note_off_c, 1, 62, 64
3, 210880, Note_on_c, 1, 71, 89
3, 210880, Note_on_c, 1, 67, 89
3, 210880, Note_on_c, 1, 62, 89
3, 211004, Note_off_c, 1, 71, 64
3, 211004, Note_off_c, 1, 67, 64
3, 211004, Note_off_c, 1, 62, 64
3, 211008, Note_on_c, 1, 67, 89
3, 211008, Note_on_c, 1, 62, 89
3, 211132, Note_off_c, 1, 67, 64
3, 211132, Note_off_c, 1, 62, 64
3, 211136, Note_on_c, 1, 67, 89
3, 211136, Note_on_c, 1, 62, 89
3, 211260, Note_off_c, 1, 67, 64
3, 211260, Note_off_c, 1, 62, 64
3, 211264, Note_on_c, 1, 67, 89
3, 211264, Note_on_c, 1, 62, 89
3, 211388, Note_off_c, 1, 67, 64
3, 211388, Note_off_c, 1, 62, 64
3, 211392, Note_on_c, 1, 69, 89
3, 211392, Note_on_c, 1, 64, 89
3, 211516, Note_off_c, 1, 69, 64
3, 211516, Note_off_c, 1, 64, 64
3, 211520, Note_on_c, 1, 69, 89
3, 211520, Note_on_c, 1, 64, 89
3, 211644, Note_off_c, 1, 69, 64
3, 211644, Note_off_c, 1, 64, 64
3, 211648, Note_on_c, 1, 69, 89
3, 211648, Note_on_c, 1, 64, 89
3, 211772, Note_off_c, 1, 69, 64
3, 211772, Note_off_c, 1, 64, 64
3, 211776, Note_on_c, 1, 69, 89
3, 211776, Note_on_c, 1, 64, 89
3, 211776, Note_on_c, 1, 60, 89
3, 211900, Note_off_c, 1, 69, 64
3, 211900, Note_off_c, 1, 64, 64
3, 211900, Note_off_c, 1, 60, 64
3, 211904, Note_on_c, 1, 69, 89
3, 211904, Note_on_c, 1, 64, 89
3, 211904, Note_on_c, 1, 60, 89
3, 212028, Note_off_c, 1, 69, 64
3, 212028, Note_off_c, 1, 64, 64
3, 212028, Note_off_c, 1, 60, 64
3, 212032, Note_on_c, 1, 69, 89
3, 212032, Note_on_c, 1, 64, 89
3, 212032, Note_on_c, 1, 60, 89
3, 212156, Note_off_c, 1, 69, 64
3, 212156, Note_off_c, 1, 64, 64
3, 212156, Note_off_c, 1, 60, 64
3, 212160, Note_on_c, 1, 69, 89
3, 212160, Note_on_c, 1, 66, 89
3, 212160, Note_on_c, 1, 60, 89
3, 212284, Note_off_c, 1, 69, 64
3, 212284, Note_off_c, 1, 66, 64
3, 212284, Note_off_c, 1, 60, 64
3, 212288, Note_on_c, 1, 69, 89
3, 212288, Note_on_c, 1, 66, 89
3, 212288, Note_on_c, 1, 60, 89
3, 212412, Note_off_c, 1, 69, 64
3, 212412, Note_off_c, 1, 66, 64
3, 212412, Note_off_c, 1, 60, 64
3, 212416, Note_on_c, 1, 69, 89
3, 212416, Note_on_c, 1, 66, 89
3, 212416, Note_on_c, 1, 60, 89
3, 212540, Note_off_c, 1, 69, 64
3, 212540, Note_off_c, 1, 66, 64
3, 212540, Note_off_c, 1, 60, 64
3, 212544, Note_on_c, 1, 66, 89
3, 212544, Note_on_c, 1, 60, 89
3, 212544, Note_on_c, 1, 57, 89
3, 212668, Note_off_c, 1, 66, 64
3, 212668, Note_off_c, 1, 60, 64
3, 212668, Note_off_c, 1, 57, 64
3, 212672, Note_on_c, 1, 66, 89
3, 212672, Note_on_c, 1, 60, 89
3, 212672, Note_on_c, 1, 57, 89
3, 212796, Note_off_c, 1, 66, 64
3, 212796, Note_off_c, 1, 60, 64
3, 212796, Note_off_c, 1, 57, 64
3, 212800, Note_on_c, 1, 66, 89
3, 212800, Note_on_c, 1, 60, 89
3, 212800, Note_on_c, 1, 57, 89
3, 212924, Note_off_c, 1, 66, 64
3, 212924, Note_off_c, 1, 60, 64
3, 212924, Note_off_c, 1, 57, 64
3, 212928, Note_on_c, 1, 67, 89
3, 212928, Note_on_c, 1, 59, 89
3, 212928, Note_on_c, 1, 55, 89
3, 213052, Note_off_c, 1, 67, 64
3, 213052, Note_off_c, 1, 59, 64
3, 213052, Note_off_c, 1, 55, 64
3, 213056, Note_on_c, 1, 67, 89
3, 213056, Note_on_c, 1, 62, 89
3, 213056, Note_on_c, 1, 59, 89
3, 213180, Note_off_c, 1, 67, 64
3, 213180, Note_off_c, 1, 62, 64
3, 213180, Note_off_c, 1, 59, 64
3, 213184, Note_on_c, 1, 67, 89
3, 213184, Note_on_c, 1, 62, 89
3, 213184, Note_on_c, 1, 59, 89
3, 213308, Note_off_c, 1, 67, 64
3, 213308, Note_off_c, 1, 62, 64
3, 213308, Note_off_c, 1, 59, 64
3, 213312, Note_on_c, 1, 67, 89
3, 213312, Note_on_c, 1, 62, 89
3, 213312, Note_on_c, 1, 59, 89
3, 213436, Note_off_c, 1, 67, 64
3, 213436, Note_off_c, 1, 62, 64
3, 213436, Note_off_c, 1, 59, 64
3, 213440, Note_on_c, 1, 67, 89
3, 213440, Note_on_c, 1, 62, 89
3, 213440, Note_on_c, 1, 59, 89
3, 213564, Note_off_c, 1, 67, 64
3, 213564, Note_off_c, 1, 62, 64
3, 213564, Note_off_c, 1, 59, 64
3, 213568, Note_on_c, 1, 67, 89
3, 213568, Note_on_c, 1, 62, 89
3, 213568, Note_on_c, 1, 59, 89
3, 213692, Note_off_c, 1, 67, 64
3, 213692, Note_off_c, 1, 62, 64
3, 213692, Note_off_c, 1, 59, 64
3, 213696, Note_on_c, 1, 67, 89
3, 213696, Note_on_c, 1, 62, 89
3, 213696, Note_on_c, 1, 59, 89
3, 213884, Note_off_c, 1, 67, 64
3, 213884, Note_off_c, 1, 62, 64
3, 213884, Note_off_c, 1, 59, 64
3, 213888, Note_on_c, 1, 69, 68
3, 214076, Note_off_c, 1, 69, 64
3, 214080, Note_on_c, 1, 71, 68
3, 214268, Note_off_c, 1, 71, 64
3, 214272, Note_on_c, 1, 72, 68
3, 214460, Note_off_c, 1, 72, 64
3, 214464, Note_on_c, 1, 74, 68
3, 214652, Note_off_c, 1, 74, 64
3, 214656, Note_on_c, 1, 62, 68
3, 214844, Note_off_c, 1, 62, 64
3, 214848, Note_on_c, 1, 62, 68
3, 214940, Note_off_c, 1, 62, 64
3, 215040, Note_on_c, 1, 62, 68
3, 215132, Note_off_c, 1, 62, 64
3, 215232, Note_on_c, 1, 62, 68
3, 215324, Note_off_c, 1, 62, 64
3, 215424, Note_on_c, 1, 62, 68
3, 215516, Note_off_c, 1, 62, 64
3, 215616, Note_on_c, 1, 62, 68
3, 215708, Note_off_c, 1, 62, 64
3, 215808, Note_on_c, 1, 66, 68
3, 215900, Note_off_c, 1, 66, 64
3, 216000, Note_on_c, 1, 67, 68
3, 216188, Note_off_c, 1, 67, 64
3, 216192, Note_on_c, 1, 62, 68
3, 216380, Note_off_c, 1, 62, 64
3, 216384, Note_on_c, 1, 62, 68
3, 216476, Note_off_c, 1, 62, 64
3, 216576, Note_on_c, 1, 62, 68
3, 216668, Note_off_c, 1, 62, 64
3, 216768, Note_on_c, 1, 62, 68
3, 216860, Note_off_c, 1, 62, 64
3, 216960, Note_on_c, 1, 62, 68
3, 217052, Note_off_c, 1, 62, 64
3, 217152, Note_on_c, 1, 62, 68
3, 217244, Note_off_c, 1, 62, 64
3, 217344, Note_on_c, 1, 62, 68
3, 217436, Note_off_c, 1, 62, 64
3, 217536, Note_on_c, 1, 74, 68
3, 217724, Note_off_c, 1, 74, 64
3, 217728, Note_on_c, 1, 62, 68
3, 217916, Note_off_c, 1, 62, 64
3, 217920, Note_on_c, 1, 62, 68
3, 218012, Note_off_c, 1, 62, 64
3, 218112, Note_on_c, 1, 62, 68
3, 218204, Note_off_c, 1, 62, 64
3, 218304, Note_on_c, 1, 62, 68
3, 218396, Note_off_c, 1, 62, 64
3, 218496, Note_on_c, 1, 62, 68
3, 218588, Note_off_c, 1, 62, 64
3, 218688, Note_on_c, 1, 62, 68
3, 218876, Note_off_c, 1, 62, 64
3, 218880, Note_on_c, 1, 66, 68
3, 219068, Note_off_c, 1, 66, 64
3, 219072, Note_on_c, 1, 66, 68
3, 219072, Note_on_c, 1, 62, 68
3, 219836, Note_off_c, 1, 66, 64
3, 219836, Note_off_c, 1, 62, 64
3, 219840, Note_on_c, 1, 67, 68
3, 219840, Note_on_c, 1, 62, 68
3, 220220, Note_off_c, 1, 67, 64
3, 220220, Note_off_c, 1, 62, 64
3, 220608, Note_on_c, 1, 67, 89
3, 220608, Note_on_c, 1, 62, 89
3, 220608, Note_on_c, 1, 59, 89
3, 220732, Note_off_c, 1, 67, 64
3, 220732, Note_off_c, 1, 62, 64
3, 220732, Note_off_c, 1, 59, 64
3, 220736, Note_on_c, 1, 67, 89
3, 220736, Note_on_c, 1, 62, 89
3, 220736, Note_on_c, 1, 59, 89
3, 220860, Note_off_c, 1, 67, 64
3, 220860, Note_off_c, 1, 62, 64
3, 220860, Note_off_c, 1, 59, 64
3, 220864, Note_on_c, 1, 67, 89
3, 220864, Note_on_c, 1, 62, 89
3, 220864, Note_on_c, 1, 59, 89
3, 220988, Note_off_c, 1, 67, 64
3, 220988, Note_off_c, 1, 62, 64
3, 220988, Note_off_c, 1, 59, 64
3, 220992, Note_on_c, 1, 67, 89
3, 220992, Note_on_c, 1, 62, 89
3, 220992, Note_on_c, 1, 59, 89
3, 221116, Note_off_c, 1, 67, 64
3, 221116, Note_off_c, 1, 62, 64
3, 221116, Note_off_c, 1, 59, 64
3, 221120, Note_on_c, 1, 67, 89
3, 221120, Note_on_c, 1, 62, 89
3, 221120, Note_on_c, 1, 59, 89
3, 221244, Note_off_c, 1, 67, 64
3, 221244, Note_off_c, 1, 62, 64
3, 221244, Note_off_c, 1, 59, 64
3, 221248, Note_on_c, 1, 67, 89
3, 221248, Note_on_c, 1, 62, 89
3, 221248, Note_on_c, 1, 59, 89
3, 221372, Note_off_c, 1, 67, 64
3, 221372, Note_off_c, 1, 62, 64
3, 221372, Note_off_c, 1, 59, 64
3, 221376, Note_on_c, 1, 67, 89
3, 221376, Note_on_c, 1, 62, 89
3, 221376, Note_on_c, 1, 59, 89
3, 221500, Note_off_c, 1, 67, 64
3, 221500, Note_off_c, 1, 62, 64
3, 221500, Note_off_c, 1, 59, 64
3, 221504, Note_on_c, 1, 67, 89
3, 221504, Note_on_c, 1, 62, 89
3, 221504, Note_on_c, 1, 59, 89
3, 221628, Note_off_c, 1, 67, 64
3, 221628, Note_off_c, 1, 62, 64
3, 221628, Note_off_c, 1, 59, 64
3, 221632, Note_on_c, 1, 67, 89
3, 221632, Note_on_c, 1, 62, 89
3, 221632, Note_on_c, 1, 59, 89
3, 221756, Note_off_c, 1, 67, 64
3, 221756, Note_off_c, 1, 62, 64
3, 221756, Note_off_c, 1, 59, 64
3, 221760, Note_on_c, 1, 69, 89
3, 221760, Note_on_c, 1, 66, 89
3, 221760, Note_on_c, 1, 62, 89
3, 221884, Note_off_c, 1, 69, 64
3, 221884, Note_off_c, 1, 66, 64
3, 221884, Note_off_c, 1, 62, 64
3, 221888, Note_on_c, 1, 69, 89
3, 221888, Note_on_c, 1, 66, 89
3, 221888, Note_on_c, 1, 62, 89
3, 222012, Note_off_c, 1, 69, 64
3, 222012, Note_off_c, 1, 66, 64
3, 222012, Note_off_c, 1, 62, 64
3, 222016, Note_on_c, 1, 69, 89
3, 222016, Note_on_c, 1, 66, 89
3, 222016, Note_on_c, 1, 62, 89
3, 222140, Note_off_c, 1, 69, 64
3, 222140, Note_off_c, 1, 66, 64
3, 222140, Note_off_c, 1, 62, 64
3, 222144, Note_on_c, 1, 71, 89
3, 222144, Note_on_c, 1, 67, 89
3, 222144, Note_on_c, 1, 62, 89
3, 222268, Note_off_c, 1, 71, 64
3, 222268, Note_off_c, 1, 67, 64
3, 222268, Note_off_c, 1, 62, 64
3, 222272, Note_on_c, 1, 71, 89
3, 222272, Note_on_c, 1, 67, 89
3, 222272, Note_on_c, 1, 62, 89
3, 222396, Note_off_c, 1, 71, 64
3, 222396, Note_off_c, 1, 67, 64
3, 222396, Note_off_c, 1, 62, 64
3, 222400, Note_on_c, 1, 71, 89
3, 222400, Note_on_c, 1, 67, 89
3, 222400, Note_on_c, 1, 62, 89
3, 222524, Note_off_c, 1, 71, 64
3, 222524, Note_off_c, 1, 67, 64
3, 222524, Note_off_c, 1, 62, 64
3, 222528, Note_on_c, 1, 71, 89
3, 222528, Note_on_c, 1, 67, 89
3, 222528, Note_on_c, 1, 62, 89
3, 222652, Note_off_c, 1, 71, 64
3, 222652, Note_off_c, 1, 67, 64
3, 222652, Note_off_c, 1, 62, 64
3, 222656, Note_on_c, 1, 71, 89
3, 222656, Note_on_c, 1, 67, 89
3, 222656, Note_on_c, 1, 62, 89
3, 222780, Note_off_c, 1, 71, 64
3, 222780, Note_off_c, 1, 67, 64
3, 222780, Note_off_c, 1, 62, 64
3, 222784, Note_on_c, 1, 71, 89
3, 222784, Note_on_c, 1, 67, 89
3, 222784, Note_on_c, 1, 62, 89
3, 222908, Note_off_c, 1, 71, 64
3, 222908, Note_off_c, 1, 67, 64
3, 222908, Note_off_c, 1, 62, 64
3, 222912, Note_on_c, 1, 71, 89
3, 222912, Note_on_c, 1, 67, 89
3, 222912, Note_on_c, 1, 62, 89
3, 223036, Note_off_c, 1, 71, 64
3, 223036, Note_off_c, 1, 67, 64
3, 223036, Note_off_c, 1, 62, 64
3, 223040, Note_on_c, 1, 71, 89
3, 223040, Note_on_c, 1, 67, 89
3, 223040, Note_on_c, 1, 62, 89
3, 223164, Note_off_c, 1, 71, 64
3, 223164, Note_off_c, 1, 67, 64
3, 223164, Note_off_c, 1, 62, 64
3, 223168, Note_on_c, 1, 71, 89
3, 223168, Note_on_c, 1, 67, 89
3, 223168, Note_on_c, 1, 62, 89
3, 223292, Note_off_c, 1, 71, 64
3, 223292, Note_off_c, 1, 67, 64
3, 223292, Note_off_c, 1, 62, 64
3, 223296, Note_on_c, 1, 67, 89
3, 223296, Note_on_c, 1, 62, 89
3, 223420, Note_off_c, 1, 67, 64
3, 223420, Note_off_c, 1, 62, 64
3, 223424, Note_on_c, 1, 67, 89
3, 223424, Note_on_c, 1, 62, 89
3, 223548, Note_off_c, 1, 67, 64
3, 223548, Note_off_c, 1, 62, 64
3, 223552, Note_on_c, 1, 67, 89
3, 223552, Note_on_c, 1, 62, 89
3, 223676, Note_off_c, 1, 67, 64
3, 223676, Note_off_c, 1, 62, 64
3, 223680, Note_on_c, 1, 69, 89
3, 223680, Note_on_c, 1, 64, 89
3, 223804, Note_off_c, 1, 69, 64
3, 223804, Note_off_c, 1, 64, 64
3, 223808, Note_on_c, 1, 69, 89
3, 223808, Note_on_c, 1, 64, 89
3, 223932, Note_off_c, 1, 69, 64
3, 223932, Note_off_c, 1, 64, 64
3, 223936, Note_on_c, 1, 69, 89
3, 223936, Note_on_c, 1, 64, 89
3, 224060, Note_off_c, 1, 69, 64
3, 224060, Note_off_c, 1, 64, 64
3, 224064, Note_on_c, 1, 69, 89
3, 224064, Note_on_c, 1, 64, 89
3, 224064, Note_on_c, 1, 60, 89
3, 224188, Note_off_c, 1, 69, 64
3, 224188, Note_off_c, 1, 64, 64
3, 224188, Note_off_c, 1, 60, 64
3, 224192, Note_on_c, 1, 69, 89
3, 224192, Note_on_c, 1, 64, 89
3, 224192, Note_on_c, 1, 60, 89
3, 224316, Note_off_c, 1, 69, 64
3, 224316, Note_off_c, 1, 64, 64
3, 224316, Note_off_c, 1, 60, 64
3, 224320, Note_on_c, 1, 69, 89
3, 224320, Note_on_c, 1, 64, 89
3, 224320, Note_on_c, 1, 60, 89
3, 224444, Note_off_c, 1, 69, 64
3, 224444, Note_off_c, 1, 64, 64
3, 224444, Note_off_c, 1, 60, 64
3, 224448, Note_on_c, 1, 69, 89
3, 224448, Note_on_c, 1, 66, 89
3, 224448, Note_on_c, 1, 60, 89
3, 224572, Note_off_c, 1, 69, 64
3, 224572, Note_off_c, 1, 66, 64
3, 224572, Note_off_c, 1, 60, 64
3, 224576, Note_on_c, 1, 69, 89
3, 224576, Note_on_c, 1, 66, 89
3, 224576, Note_on_c, 1, 60, 89
3, 224700, Note_off_c, 1, 69, 64
3, 224700, Note_off_c, 1, 66, 64
3, 224700, Note_off_c, 1, 60, 64
3, 224704, Note_on_c, 1, 69, 89
3, 224704, Note_on_c, 1, 66, 89
3, 224704, Note_on_c, 1, 60, 89
3, 224828, Note_off_c, 1, 69, 64
3, 224828, Note_off_c, 1, 66, 64
3, 224828, Note_off_c, 1, 60, 64
3, 224832, Note_on_c, 1, 66, 89
3, 224832, Note_on_c, 1, 60, 89
3, 224832, Note_on_c, 1, 57, 89
3, 224956, Note_off_c, 1, 66, 64
3, 224956, Note_off_c, 1, 60, 64
3, 224956, Note_off_c, 1, 57, 64
3, 224960, Note_on_c, 1, 66, 89
3, 224960, Note_on_c, 1, 60, 89
3, 224960, Note_on_c, 1, 57, 89
3, 225084, Note_off_c, 1, 66, 64
3, 225084, Note_off_c, 1, 60, 64
3, 225084, Note_off_c, 1, 57, 64
3, 225088, Note_on_c, 1, 66, 89
3, 225088, Note_on_c, 1, 60, 89
3, 225088, Note_on_c, 1, 57, 89
3, 225212, Note_off_c, 1, 66, 64
3, 225212, Note_off_c, 1, 60, 64
3, 225212, Note_off_c, 1, 57, 64
3, 225216, Note_on_c, 1, 66, 89
3, 225216, Note_on_c, 1, 60, 89
3, 225216, Note_on_c, 1, 57, 89
3, 225340, Note_off_c, 1, 66, 64
3, 225340, Note_off_c, 1, 60, 64
3, 225340, Note_off_c, 1, 57, 64
3, 225344, Note_on_c, 1, 66, 89
3, 225344, Note_on_c, 1, 60, 89
3, 225344, Note_on_c, 1, 57, 89
3, 225468, Note_off_c, 1, 66, 64
3, 225468, Note_off_c, 1, 60, 64
3, 225468, Note_off_c, 1, 57, 64
3, 225472, Note_on_c, 1, 66, 89
3, 225472, Note_on_c, 1, 60, 89
3, 225472, Note_on_c, 1, 57, 89
3, 225596, Note_off_c, 1, 66, 64
3, 225596, Note_off_c, 1, 60, 64
3, 225596, Note_off_c, 1, 57, 64
3, 225600, Note_on_c, 1, 66, 89
3, 225600, Note_on_c, 1, 60, 89
3, 225600, Note_on_c, 1, 57, 89
3, 225724, Note_off_c, 1, 66, 64
3, 225724, Note_off_c, 1, 60, 64
3, 225724, Note_off_c, 1, 57, 64
3, 225728, Note_on_c, 1, 66, 89
3, 225728, Note_on_c, 1, 60, 89
3, 225728, Note_on_c, 1, 57, 89
3, 225852, Note_off_c, 1, 66, 64
3, 225852, Note_off_c, 1, 60, 64
3, 225852, Note_off_c, 1, 57, 64
3, 225856, Note_on_c, 1, 66, 89
3, 225856, Note_on_c, 1, 60, 89
3, 225856, Note_on_c, 1, 57, 89
3, 225980, Note_off_c, 1, 66, 64
3, 225980, Note_off_c, 1, 60, 64
3, 225980, Note_off_c, 1, 57, 64
3, 225984, Note_on_c, 1, 66, 89
3, 225984, Note_on_c, 1, 59, 89
3, 225984, Note_on_c, 1, 55, 89
3, 226364, Note_off_c, 1, 66, 64
3, 226364, Note_off_c, 1, 59, 64
3, 226364, Note_off_c, 1, 55, 64
3, 226752, Note_on_c, 1, 84, 68
3, 226752, Note_on_c, 1, 75, 68
3, 227516, Note_off_c, 1, 84, 64
3, 227516, Note_off_c, 1, 75, 64
3, 227520, Note_on_c, 1, 83, 68
3, 227520, Note_on_c, 1, 74, 68
3, 227708, Note_off_c, 1, 83, 64
3, 227708, Note_off_c, 1, 74, 64
3, 228288, Note_on_c, 1, 65, 68
3, 228288, Note_on_c, 1, 62, 68
3, 228288, Note_on_c, 1, 59, 68
3, 228288, Note_on_c, 1, 55, 68
3, 228476, Note_off_c, 1, 65, 64
3, 228476, Note_off_c, 1, 62, 64
3, 228476, Note_off_c, 1, 59, 64
3, 228476, Note_off_c, 1, 55, 64
3, 229056, Note_on_c, 1, 65, 68
3, 229056, Note_on_c, 1, 62, 68
3, 229056, Note_on_c, 1, 59, 68
3, 229056, Note_on_c, 1, 55, 68
3, 229244, Note_off_c, 1, 65, 64
3, 229244, Note_off_c, 1, 62, 64
3, 229244, Note_off_c, 1, 59, 64
3, 229244, Note_off_c, 1, 55, 64
3, 229248, Note_on_c, 1, 65, 68
3, 229248, Note_on_c, 1, 62, 68
3, 229248, Note_on_c, 1, 59, 68
3, 229248, Note_on_c, 1, 55, 68
3, 229436, Note_off_c, 1, 65, 64
3, 229436, Note_off_c, 1, 62, 64
3, 229436, Note_off_c, 1, 59, 64
3, 229436, Note_off_c, 1, 55, 64
3, 229440, Note_on_c, 1, 65, 68
3, 229440, Note_on_c, 1, 62, 68
3, 229440, Note_on_c, 1, 59, 68
3, 229440, Note_on_c, 1, 55, 68
3, 229628, Note_off_c, 1, 65, 64
3, 229628, Note_off_c, 1, 62, 64
3, 229628, Note_off_c, 1, 59, 64
3, 229628, Note_off_c, 1, 55, 64
3, 230208, Note_on_c, 1, 77, 68
3, 230208, Note_on_c, 1, 71, 68
3, 230396, Note_off_c, 1, 77, 64
3, 230396, Note_off_c, 1, 71, 64
3, 230400, Note_on_c, 1, 77, 68
3, 230400, Note_on_c, 1, 71, 68
3, 230588, Note_off_c, 1, 77, 64
3, 230588, Note_off_c, 1, 71, 64
3, 230592, Note_on_c, 1, 77, 68
3, 230592, Note_on_c, 1, 71, 68
3, 232892, Note_off_c, 1, 71, 64
3, 232892, Note_off_c, 1, 77, 64
3, 232896, Note_on_c, 1, 71, 68
3, 233084, Note_off_c, 1, 71, 64
3, 233088, Note_on_c, 1, 71, 68
3, 233276, Note_off_c, 1, 71, 64
3, 233280, Note_on_c, 1, 71, 68
3, 233468, Note_off_c, 1, 71, 64
3, 233472, Note_on_c, 1, 74, 68
3, 233472, Note_on_c, 1, 67, 68
3, 233660, Note_off_c, 1, 74, 64
3, 233660, Note_off_c, 1, 67, 64
3, 233664, Note_on_c, 1, 74, 68
3, 233664, Note_on_c, 1, 67, 68
3, 233852, Note_off_c, 1, 74, 64
3, 233852, Note_off_c, 1, 67, 64
3, 233856, Note_on_c, 1, 74, 68
3, 233856, Note_on_c, 1, 67, 68
3, 234044, Note_off_c, 1, 74, 64
3, 234044, Note_off_c, 1, 67, 64
3, 234048, Note_on_c, 1, 67, 68
3, 234236, Note_off_c, 1, 67, 64
3, 234240, Note_on_c, 1, 67, 68
3, 234240, Note_on_c, 1, 64, 68
3, 234428, Note_off_c, 1, 67, 64
3, 234428, Note_off_c, 1, 64, 64
3, 234432, Note_on_c, 1, 67, 68
3, 234432, Note_on_c, 1, 64, 68
3, 234620, Note_off_c, 1, 67, 64
3, 234620, Note_off_c, 1, 64, 64
3, 234624, Note_on_c, 1, 67, 68
3, 234624, Note_on_c, 1, 64, 68
3, 234716, Note_off_c, 1, 67, 64
3, 234716, Note_off_c, 1, 64, 64
3, 234720, Note_on_c, 1, 69, 68
3, 234720, Note_on_c, 1, 66, 68
3, 234812, Note_off_c, 1, 69, 64
3, 234812, Note_off_c, 1, 66, 64
3, 234816, Note_on_c, 1, 67, 68
3, 234816, Note_on_c, 1, 64, 68
3, 234908, Note_off_c, 1, 67, 64
3, 234908, Note_off_c, 1, 64, 64
3, 234912, Note_on_c, 1, 69, 68
3, 234912, Note_on_c, 1, 66, 68
3, 235004, Note_off_c, 1, 69, 64
3, 235004, Note_off_c, 1, 66, 64
3, 235008, Note_on_c, 1, 67, 68
3, 235008, Note_on_c, 1, 64, 68
3, 235100, Note_off_c, 1, 67, 64
3, 235100, Note_off_c, 1, 64, 64
3, 235200, Note_on_c, 1, 71, 68
3, 235200, Note_on_c, 1, 64, 68
3, 235388, Note_off_c, 1, 71, 64
3, 235388, Note_off_c, 1, 64, 64
3, 235392, Note_on_c, 1, 71, 68
3, 235392, Note_on_c, 1, 64, 68
3, 235580, Note_off_c, 1, 71, 64
3, 235580, Note_off_c, 1, 64, 64
3, 235584, Note_on_c, 1, 71, 68
3, 235584, Note_on_c, 1, 64, 68
3, 235772, Note_off_c, 1, 71, 64
3, 235772, Note_off_c, 1, 64, 64
3, 235776, Note_on_c, 1, 68, 68
3, 235776, Note_on_c, 1, 59, 68
3, 235964, Note_off_c, 1, 68, 64
3, 235964, Note_off_c, 1, 59, 64
3, 235968, Note_on_c, 1, 68, 68
3, 235968, Note_on_c, 1, 59, 68
3, 236156, Note_off_c, 1, 68, 64
3, 236156, Note_off_c, 1, 59, 64
3, 236160, Note_on_c, 1, 68, 68
3, 236160, Note_on_c, 1, 59, 68
3, 236348, Note_off_c, 1, 68, 64
3, 236348, Note_off_c, 1, 59, 64
3, 236352, Note_on_c, 1, 67, 68
3, 236352, Note_on_c, 1, 59, 68
3, 236540, Note_off_c, 1, 67, 64
3, 236540, Note_off_c, 1, 59, 64
3, 236544, Note_on_c, 1, 69, 68
3, 236544, Note_on_c, 1, 57, 68
3, 236732, Note_off_c, 1, 69, 64
3, 236732, Note_off_c, 1, 57, 64
3, 236736, Note_on_c, 1, 64, 68
3, 236736, Note_on_c, 1, 60, 68
3, 236828, Note_off_c, 1, 64, 64
3, 236828, Note_off_c, 1, 60, 64
3, 236928, Note_on_c, 1, 64, 68
3, 236928, Note_on_c, 1, 60, 68
3, 237020, Note_off_c, 1, 64, 64
3, 237020, Note_off_c, 1, 60, 64
3, 237024, Note_on_c, 1, 65, 68
3, 237024, Note_on_c, 1, 62, 68
3, 237116, Note_off_c, 1, 65, 64
3, 237116, Note_off_c, 1, 62, 64
3, 237120, Note_on_c, 1, 64, 68
3, 237120, Note_on_c, 1, 60, 68
3, 237212, Note_off_c, 1, 64, 64
3, 237212, Note_off_c, 1, 60, 64
3, 237216, Note_on_c, 1, 65, 68
3, 237216, Note_on_c, 1, 62, 68
3, 237308, Note_off_c, 1, 65, 64
3, 237308, Note_off_c, 1, 62, 64
3, 237312, Note_on_c, 1, 64, 68
3, 237312, Note_on_c, 1, 60, 68
3, 237404, Note_off_c, 1, 64, 64
3, 237404, Note_off_c, 1, 60, 64
3, 237504, Note_on_c, 1, 76, 68
3, 237692, Note_off_c, 1, 76, 64
3, 237696, Note_on_c, 1, 72, 68
3, 237884, Note_off_c, 1, 72, 64
3, 237888, Note_on_c, 1, 72, 68
3, 237980, Note_off_c, 1, 72, 64
3, 238080, Note_on_c, 1, 72, 68
3, 238268, Note_off_c, 1, 72, 64
3, 238272, Note_on_c, 1, 69, 68
3, 238460, Note_off_c, 1, 69, 64
3, 238464, Note_on_c, 1, 69, 68
3, 238556, Note_off_c, 1, 69, 64
3, 238656, Note_on_c, 1, 67, 68
3, 238844, Note_off_c, 1, 67, 64
3, 238848, Note_on_c, 1, 74, 68
3, 239036, Note_off_c, 1, 74, 64
3, 239040, Note_on_c, 1, 74, 68
3, 239132, Note_off_c, 1, 74, 64
3, 239232, Note_on_c, 1, 72, 68
3, 239420, Note_off_c, 1, 72, 64
3, 239424, Note_on_c, 1, 71, 68
3, 239612, Note_off_c, 1, 71, 64
3, 239616, Note_on_c, 1, 71, 68
3, 239708, Note_off_c, 1, 71, 64
3, 239808, Note_on_c, 1, 60, 68
3, 239900, Note_off_c, 1, 60, 64
3, 240000, Note_on_c, 1, 79, 68
3, 240000, Note_on_c, 1, 72, 68
3, 240188, Note_off_c, 1, 79, 64
3, 240188, Note_off_c, 1, 72, 64
3, 240192, Note_on_c, 1, 80, 68
3, 240192, Note_on_c, 1, 71, 68
3, 240380, Note_off_c, 1, 80, 64
3, 240380, Note_off_c, 1, 71, 64
3, 240384, Note_on_c, 1, 81, 68
3, 240384, Note_on_c, 1, 69, 68
3, 240476, Note_off_c, 1, 81, 64
3, 240476, Note_off_c, 1, 69, 64
3, 240576, Note_on_c, 1, 74, 68
3, 240576, Note_on_c, 1, 71, 68
3, 240764, Note_off_c, 1, 74, 64
3, 240764, Note_off_c, 1, 71, 64
3, 240768, Note_on_c, 1, 76, 68
3, 240768, Note_on_c, 1, 72, 68
3, 240956, Note_off_c, 1, 76, 64
3, 240956, Note_off_c, 1, 72, 64
3, 240960, Note_on_c, 1, 71, 68
3, 241340, Note_off_c, 1, 71, 64
3, 241344, Note_on_c, 1, 69, 68
3, 241532, Note_off_c, 1, 69, 64
3, 241536, Note_on_c, 1, 62, 89
3, 241628, Note_off_c, 1, 62, 64
3, 241632, Note_on_c, 1, 61, 89
3, 241724, Note_off_c, 1, 61, 64
3, 241728, Note_on_c, 1, 62, 89
3, 241820, Note_off_c, 1, 62, 64
3, 241824, Note_on_c, 1, 61, 89
3, 241916, Note_off_c, 1, 61, 64
3, 241920, Note_on_c, 1, 62, 89
3, 242012, Note_off_c, 1, 62, 64
3, 242112, Note_on_c, 1, 62, 68
3, 242156, Note_off_c, 1, 62, 64
3, 242160, Note_on_c, 1, 70, 68
3, 242492, Note_off_c, 1, 70, 64
3, 242496, Note_on_c, 1, 69, 68
3, 242588, Note_off_c, 1, 69, 64
3, 242592, Note_on_c, 1, 66, 68
3, 242684, Note_off_c, 1, 66, 64
3, 242688, Note_on_c, 1, 67, 68
3, 242780, Note_off_c, 1, 67, 64
3, 243264, Note_on_c, 1, 67, 68
3, 243452, Note_off_c, 1, 67, 64
3, 243456, Note_on_c, 1, 72, 68
3, 243644, Note_off_c, 1, 72, 64
3, 243648, Note_on_c, 1, 63, 68
3, 243836, Note_off_c, 1, 63, 64
3, 243840, Note_on_c, 1, 69, 68
3, 243932, Note_off_c, 1, 69, 64
3, 244416, Note_on_c, 1, 62, 89
3, 244508, Note_off_c, 1, 62, 64
3, 244512, Note_on_c, 1, 74, 89
3, 244512, Note_on_c, 1, 71, 89
3, 244796, Note_off_c, 1, 74, 64
3, 244796, Note_off_c, 1, 71, 64
3, 244800, Note_on_c, 1, 72, 89
3, 244800, Note_on_c, 1, 69, 89
3, 244892, Note_off_c, 1, 72, 64
3, 244892, Note_off_c, 1, 69, 64
3, 244896, Note_on_c, 1, 69, 89
3, 244896, Note_on_c, 1, 66, 89
3, 244988, Note_off_c, 1, 69, 64
3, 244988, Note_off_c, 1, 66, 64
3, 244992, Note_on_c, 1, 69, 89
3, 244992, Note_on_c, 1, 66, 89
3, 245036, Note_off_c, 1, 69, 64
3, 245036, Note_off_c, 1, 66, 64
3, 245040, Note_on_c, 1, 67, 89
3, 245084, Note_off_c, 1, 67, 64
3, 245184, Note_on_c, 1, 67, 89
3, 245184, Note_on_c, 1, 59, 89
3, 245276, Note_off_c, 1, 67, 64
3, 245276, Note_off_c, 1, 59, 64
3, 245376, Note_on_c, 1, 67, 89
3, 245376, Note_on_c, 1, 59, 89
3, 245468, Note_off_c, 1, 67, 64
3, 245468, Note_off_c, 1, 59, 64
3, 245568, Note_on_c, 1, 64, 89
3, 245612, Note_off_c, 1, 64, 64
3, 245616, Note_on_c, 1, 67, 89
3, 245616, Note_on_c, 1, 76, 89
3, 245756, Note_off_c, 1, 67, 64
3, 245760, Note_on_c, 1, 72, 89
3, 245948, Note_off_c, 1, 72, 64
3, 245952, Note_on_c, 1, 72, 89
3, 245952, Note_on_c, 1, 64, 89
3, 245996, Note_off_c, 1, 76, 64
3, 246044, Note_off_c, 1, 72, 64
3, 246044, Note_off_c, 1, 64, 64
3, 246048, Note_on_c, 1, 69, 89
3, 246048, Note_on_c, 1, 60, 89
3, 246140, Note_off_c, 1, 69, 64
3, 246140, Note_off_c, 1, 60, 64
3, 246144, Note_on_c, 1, 67, 89
3, 246144, Note_on_c, 1, 59, 89
3, 246188, Note_off_c, 1, 67, 64
3, 246188, Note_off_c, 1, 59, 64
3, 246192, Note_on_c, 1, 66, 89
3, 246192, Note_on_c, 1, 57, 89
3, 246236, Note_off_c, 1, 66, 64
3, 246236, Note_off_c, 1, 57, 64
3, 246336, Note_on_c, 1, 66, 89
3, 246336, Note_on_c, 1, 57, 89
3, 246428, Note_off_c, 1, 66, 64
3, 246428, Note_off_c, 1, 57, 64
3, 246528, Note_on_c, 1, 66, 89
3, 246528, Note_on_c, 1, 57, 89
3, 246620, Note_off_c, 1, 66, 64
3, 246620, Note_off_c, 1, 57, 64
3, 246720, Note_on_c, 1, 67, 68
3, 246720, Note_on_c, 1, 55, 68
3, 246908, Note_off_c, 1, 67, 64
3, 246908, Note_off_c, 1, 55, 64
3, 247296, Note_on_c, 1, 67, 68
3, 247484, Note_off_c, 1, 67, 64
3, 247872, Note_on_c, 1, 66, 68
3, 248060, Note_off_c, 1, 66, 64
3, 248448, Note_on_c, 1, 66, 68
3, 248540, Note_off_c, 1, 66, 64
3, 248640, Note_on_c, 1, 67, 68
3, 248732, Note_off_c, 1, 67, 64
3, 248832, Note_on_c, 1, 69, 68
3, 248924, Note_off_c, 1, 69, 64
3, 249024, Note_on_c, 1, 67, 68
3, 249212, Note_off_c, 1, 67, 64
3, 249600, Note_on_c, 1, 67, 68
3, 249788, Note_off_c, 1, 67, 64
3, 250176, Note_on_c, 1, 67, 68
3, 250364, Note_off_c, 1, 67, 64
3, 250752, Note_on_c, 1, 66, 68
3, 250844, Note_off_c, 1, 66, 64
3, 250944, Note_on_c, 1, 67, 68
3, 251036, Note_off_c, 1, 67, 64
3, 251136, Note_on_c, 1, 69, 68
3, 251228, Note_off_c, 1, 69, 64
3, 251328, Note_on_c, 1, 67, 68
3, 251516, Note_off_c, 1, 67, 64
3, 253632, Note_on_c, 1, 69, 68
3, 253632, Note_on_c, 1, 67, 68
3, 253632, Note_on_c, 1, 64, 68
3, 253820, Note_off_c, 1, 69, 64
3, 253820, Note_off_c, 1, 67, 64
3, 253820, Note_off_c, 1, 64, 64
3, 253824, Note_on_c, 1, 69, 68
3, 253824, Note_on_c, 1, 67, 68
3, 253824, Note_on_c, 1, 64, 68
3, 254012, Note_off_c, 1, 69, 64
3, 254012, Note_off_c, 1, 67, 64
3, 254012, Note_off_c, 1, 64, 64
3, 254016, Note_on_c, 1, 69, 68
3, 254016, Note_on_c, 1, 67, 68
3, 254016, Note_on_c, 1, 64, 68
3, 254204, Note_off_c, 1, 69, 64
3, 254204, Note_off_c, 1, 67, 64
3, 254204, Note_off_c, 1, 64, 64
3, 254208, Note_on_c, 1, 69, 68
3, 254208, Note_on_c, 1, 67, 68
3, 254208, Note_on_c, 1, 64, 68
3, 254396, Note_off_c, 1, 69, 64
3, 254396, Note_off_c, 1, 67, 64
3, 254396, Note_off_c, 1, 64, 64
3, 254400, Note_on_c, 1, 69, 68
3, 254400, Note_on_c, 1, 67, 68
3, 254400, Note_on_c, 1, 64, 68
3, 254576, Note_on_c, 1, 67, 68
3, 254576, Note_on_c, 1, 64, 68
3, 254588, Note_off_c, 1, 69, 64
3, 254588, Note_off_c, 1, 67, 64
3, 254588, Note_off_c, 1, 64, 64
3, 254592, Note_on_c, 1, 69, 68
3, 254764, Note_off_c, 1, 67, 64
3, 254764, Note_off_c, 1, 64, 64
3, 254780, Note_off_c, 1, 69, 64
3, 254784, Note_on_c, 1, 71, 68
3, 254784, Note_on_c, 1, 67, 68
3, 254784, Note_on_c, 1, 62, 68
3, 254972, Note_off_c, 1, 71, 64
3, 254972, Note_off_c, 1, 67, 64
3, 254972, Note_off_c, 1, 62, 64
3, 254976, Note_on_c, 1, 71, 68
3, 254976, Note_on_c, 1, 67, 68
3, 254976, Note_on_c, 1, 62, 68
3, 255164, Note_off_c, 1, 71, 64
3, 255164, Note_off_c, 1, 67, 64
3, 255164, Note_off_c, 1, 62, 64
3, 255168, Note_on_c, 1, 71, 68
3, 255168, Note_on_c, 1, 67, 68
3, 255168, Note_on_c, 1, 62, 68
3, 255356, Note_off_c, 1, 71, 64
3, 255356, Note_off_c, 1, 67, 64
3, 255356, Note_off_c, 1, 62, 64
3, 255360, Note_on_c, 1, 66, 68
3, 255360, Note_on_c, 1, 62, 68
3, 255360, Note_on_c, 1, 60, 68
3, 255548, Note_off_c, 1, 66, 64
3, 255548, Note_off_c, 1, 62, 64
3, 255548, Note_off_c, 1, 60, 64
3, 255552, Note_on_c, 1, 66, 68
3, 255552, Note_on_c, 1, 62, 68
3, 255552, Note_on_c, 1, 60, 68
3, 255740, Note_off_c, 1, 66, 64
3, 255740, Note_off_c, 1, 62, 64
3, 255740, Note_off_c, 1, 60, 64
3, 255744, Note_on_c, 1, 66, 68
3, 255744, Note_on_c, 1, 62, 68
3, 255744, Note_on_c, 1, 60, 68
3, 255932, Note_off_c, 1, 66, 64
3, 255932, Note_off_c, 1, 62, 64
3, 255932, Note_off_c, 1, 60, 64
3, 255936, Note_on_c, 1, 67, 68
3, 255936, Note_on_c, 1, 62, 68
3, 255936, Note_on_c, 1, 59, 68
3, 256124, Note_off_c, 1, 67, 64
3, 256124, Note_off_c, 1, 62, 64
3, 256124, Note_off_c, 1, 59, 64
3, 258240, Note_on_c, 1, 79, 68
3, 258240, Note_on_c, 1, 76, 68
3, 258240, Note_on_c, 1, 69, 68
3, 258428, Note_off_c, 1, 79, 64
3, 258428, Note_off_c, 1, 76, 64
3, 258428, Note_off_c, 1, 69, 64
3, 258432, Note_on_c, 1, 79, 68
3, 258432, Note_on_c, 1, 76, 68
3, 258432, Note_on_c, 1, 69, 68
3, 258620, Note_off_c, 1, 79, 64
3, 258620, Note_off_c, 1, 76, 64
3, 258620, Note_off_c, 1, 69, 64
3, 258624, Note_on_c, 1, 79, 68
3, 258624, Note_on_c, 1, 76, 68
3, 258624, Note_on_c, 1, 69, 68
3, 258812, Note_off_c, 1, 79, 64
3, 258812, Note_off_c, 1, 76, 64
3, 258812, Note_off_c, 1, 69, 64
3, 258816, Note_on_c, 1, 79, 68
3, 258816, Note_on_c, 1, 76, 68
3, 258816, Note_on_c, 1, 69, 68
3, 259004, Note_off_c, 1, 79, 64
3, 259004, Note_off_c, 1, 76, 64
3, 259004, Note_off_c, 1, 69, 64
3, 259008, Note_on_c, 1, 79, 68
3, 259008, Note_on_c, 1, 76, 68
3, 259008, Note_on_c, 1, 69, 68
3, 259196, Note_off_c, 1, 79, 64
3, 259196, Note_off_c, 1, 76, 64
3, 259196, Note_off_c, 1, 69, 64
3, 259200, Note_on_c, 1, 79, 68
3, 259200, Note_on_c, 1, 76, 68
3, 259200, Note_on_c, 1, 69, 68
3, 259388, Note_off_c, 1, 79, 64
3, 259388, Note_off_c, 1, 76, 64
3, 259388, Note_off_c, 1, 69, 64
3, 259392, Note_on_c, 1, 79, 68
3, 259392, Note_on_c, 1, 74, 68
3, 259392, Note_on_c, 1, 71, 68
3, 259580, Note_off_c, 1, 79, 64
3, 259580, Note_off_c, 1, 74, 64
3, 259580, Note_off_c, 1, 71, 64
3, 259584, Note_on_c, 1, 79, 68
3, 259584, Note_on_c, 1, 74, 68
3, 259584, Note_on_c, 1, 71, 68
3, 259772, Note_off_c, 1, 79, 64
3, 259772, Note_off_c, 1, 74, 64
3, 259772, Note_off_c, 1, 71, 64
3, 259776, Note_on_c, 1, 79, 68
3, 259776, Note_on_c, 1, 74, 68
3, 259776, Note_on_c, 1, 71, 68
3, 259964, Note_off_c, 1, 79, 64
3, 259964, Note_off_c, 1, 74, 64
3, 259964, Note_off_c, 1, 71, 64
3, 259968, Note_on_c, 1, 78, 68
3, 259968, Note_on_c, 1, 74, 68
3, 259968, Note_on_c, 1, 72, 68
3, 260156, Note_off_c, 1, 78, 64
3, 260156, Note_off_c, 1, 74, 64
3, 260156, Note_off_c, 1, 72, 64
3, 260160, Note_on_c, 1, 78, 68
3, 260160, Note_on_c, 1, 74, 68
3, 260160, Note_on_c, 1, 72, 68
3, 260348, Note_off_c, 1, 78, 64
3, 260348, Note_off_c, 1, 74, 64
3, 260348, Note_off_c, 1, 72, 64
3, 260352, Note_on_c, 1, 78, 68
3, 260352, Note_on_c, 1, 74, 68
3, 260352, Note_on_c, 1, 72, 68
3, 260540, Note_off_c, 1, 78, 64
3, 260540, Note_off_c, 1, 74, 64
3, 260540, Note_off_c, 1, 72, 64
3, 260544, Note_on_c, 1, 79, 68
3, 260544, Note_on_c, 1, 74, 68
3, 260544, Note_on_c, 1, 71, 68
3, 260732, Note_off_c, 1, 79, 64
3, 260732, Note_off_c, 1, 74, 64
3, 260732, Note_off_c, 1, 71, 64
3, 262272, Note_on_c, 1, 78, 68
3, 262272, Note_on_c, 1, 72, 68
3, 262844, Note_off_c, 1, 78, 64
3, 262844, Note_off_c, 1, 72, 64
3, 262848, Note_on_c, 1, 79, 68
3, 262848, Note_on_c, 1, 71, 68
3, 263036, Note_off_c, 1, 79, 64
3, 263036, Note_off_c, 1, 71, 64
3, 264576, Note_on_c, 1, 75, 68
3, 264576, Note_on_c, 1, 69, 68
3, 265148, Note_off_c, 1, 75, 64
3, 265148, Note_off_c, 1, 69, 64
3, 265152, Note_on_c, 1, 76, 68
3, 265152, Note_on_c, 1, 67, 68
3, 265340, Note_off_c, 1, 76, 64
3, 265340, Note_off_c, 1, 67, 64
3, 266880, Note_on_c, 1, 73, 68
3, 266880, Note_on_c, 1, 67, 68
3, 267452, Note_off_c, 1, 73, 64
3, 267452, Note_off_c, 1, 67, 64
3, 267456, Note_on_c, 1, 74, 68
3, 267456, Note_on_c, 1, 66, 68
3, 267644, Note_off_c, 1, 74, 64
3, 267644, Note_off_c, 1, 66, 64
3, 268224, Note_on_c, 1, 67, 68
3, 268224, Note_on_c, 1, 64, 68
3, 268412, Note_off_c, 1, 67, 64
3, 268412, Note_off_c, 1, 64, 64
3, 268416, Note_on_c, 1, 64, 68
3, 268416, Note_on_c, 1, 61, 68
3, 268604, Note_off_c, 1, 64, 64
3, 268604, Note_off_c, 1, 61, 64
3, 268608, Note_on_c, 1, 62, 68
3, 268700, Note_off_c, 1, 62, 64
3, 269376, Note_on_c, 1, 67, 68
3, 269376, Note_on_c, 1, 64, 68
3, 269564, Note_off_c, 1, 67, 64
3, 269564, Note_off_c, 1, 64, 64
3, 269568, Note_on_c, 1, 64, 68
3, 269568, Note_on_c, 1, 61, 68
3, 269756, Note_off_c, 1, 64, 64
3, 269756, Note_off_c, 1, 61, 64
3, 269760, Note_on_c, 1, 62, 68
3, 269852, Note_off_c, 1, 62, 64
3, 269952, Note_on_c, 1, 78, 68
3, 269952, Note_on_c, 1, 74, 68
3, 270044, Note_off_c, 1, 78, 64
3, 270044, Note_off_c, 1, 74, 64
3, 270144, Note_on_c, 1, 74, 68
3, 270144, Note_on_c, 1, 78, 68
3, 270236, Note_off_c, 1, 74, 64
3, 270236, Note_off_c, 1, 78, 64
3, 270336, Note_on_c, 1, 79, 68
3, 270336, Note_on_c, 1, 74, 68
3, 270428, Note_off_c, 1, 79, 64
3, 270428, Note_off_c, 1, 74, 64
3, 270528, Note_on_c, 1, 78, 68
3, 270528, Note_on_c, 1, 74, 68
3, 270620, Note_off_c, 1, 78, 64
3, 270620, Note_off_c, 1, 74, 64
3, 270720, Note_on_c, 1, 78, 68
3, 270720, Note_on_c, 1, 74, 68
3, 270812, Note_off_c, 1, 78, 64
3, 270812, Note_off_c, 1, 74, 64
3, 270912, Note_on_c, 1, 79, 68
3, 270912, Note_on_c, 1, 76, 68
3, 270912, Note_on_c, 1, 69, 68
3, 271484, Note_off_c, 1, 79, 64
3, 271484, Note_off_c, 1, 76, 64
3, 271484, Note_off_c, 1, 69, 64
3, 271488, Note_on_c, 1, 78, 68
3, 271488, Note_on_c, 1, 74, 68
3, 271488, Note_on_c, 1, 62, 68
3, 271676, Note_off_c, 1, 78, 64
3, 271676, Note_off_c, 1, 74, 64
3, 271676, Note_off_c, 1, 62, 64
3, 273216, Note_on_c, 1, 79, 68
3, 273216, Note_on_c, 1, 83, 68
3, 273788, Note_off_c, 1, 79, 64
3, 273788, Note_off_c, 1, 83, 64
3, 273792, Note_on_c, 1, 78, 68
3, 273792, Note_on_c, 1, 81, 68
3, 273980, Note_off_c, 1, 78, 64
3, 273980, Note_off_c, 1, 81, 64
3, 274368, Note_on_c, 1, 72, 68
3, 274368, Note_on_c, 1, 69, 68
3, 274368, Note_on_c, 1, 66, 68
3, 274368, Note_on_c, 1, 62, 68
3, 274556, Note_off_c, 1, 72, 64
3, 274556, Note_off_c, 1, 69, 64
3, 274556, Note_off_c, 1, 66, 64
3, 274556, Note_off_c, 1, 62, 64
3, 275136, Note_on_c, 1, 72, 68
3, 275136, Note_on_c, 1, 69, 68
3, 275136, Note_on_c, 1, 66, 68
3, 275136, Note_on_c, 1, 62, 68
3, 275324, Note_off_c, 1, 72, 64
3, 275324, Note_off_c, 1, 69, 64
3, 275324, Note_off_c, 1, 66, 64
3, 275324, Note_off_c, 1, 62, 64
3, 275328, Note_on_c, 1, 72, 68
3, 275328, Note_on_c, 1, 69, 68
3, 275328, Note_on_c, 1, 66, 68
3, 275328, Note_on_c, 1, 62, 68
3, 275516, Note_off_c, 1, 72, 64
3, 275516, Note_off_c, 1, 69, 64
3, 275516, Note_off_c, 1, 66, 64
3, 275516, Note_off_c, 1, 62, 64
3, 275520, Note_on_c, 1, 72, 68
3, 275520, Note_on_c, 1, 69, 68
3, 275520, Note_on_c, 1, 66, 68
3, 275520, Note_on_c, 1, 62, 68
3, 275708, Note_off_c, 1, 72, 64
3, 275708, Note_off_c, 1, 69, 64
3, 275708, Note_off_c, 1, 66, 64
3, 275708, Note_off_c, 1, 62, 64
3, 276288, Note_on_c, 1, 72, 68
3, 276288, Note_on_c, 1, 69, 68
3, 276288, Note_on_c, 1, 66, 68
3, 276288, Note_on_c, 1, 62, 68
3, 276476, Note_off_c, 1, 72, 64
3, 276476, Note_off_c, 1, 69, 64
3, 276476, Note_off_c, 1, 66, 64
3, 276476, Note_off_c, 1, 62, 64
3, 276480, Note_on_c, 1, 72, 68
3, 276480, Note_on_c, 1, 69, 68
3, 276480, Note_on_c, 1, 66, 68
3, 276480, Note_on_c, 1, 62, 68
3, 276668, Note_off_c, 1, 72, 64
3, 276668, Note_off_c, 1, 69, 64
3, 276668, Note_off_c, 1, 66, 64
3, 276668, Note_off_c, 1, 62, 64
3, 276672, Note_on_c, 1, 72, 68
3, 276672, Note_on_c, 1, 69, 68
3, 276672, Note_on_c, 1, 66, 68
3, 276672, Note_on_c, 1, 62, 68
3, 276860, Note_off_c, 1, 72, 64
3, 276860, Note_off_c, 1, 69, 64
3, 276860, Note_off_c, 1, 66, 64
3, 276860, Note_off_c, 1, 62, 64
3, 277440, Note_on_c, 1, 72, 89
3, 277440, Note_on_c, 1, 69, 89
3, 277440, Note_on_c, 1, 66, 89
3, 277440, Note_on_c, 1, 62, 89
3, 277628, Note_off_c, 1, 72, 64
3, 277628, Note_off_c, 1, 69, 64
3, 277628, Note_off_c, 1, 66, 64
3, 277628, Note_off_c, 1, 62, 64
3, 277632, Note_on_c, 1, 72, 89
3, 277632, Note_on_c, 1, 69, 89
3, 277632, Note_on_c, 1, 66, 89
3, 277632, Note_on_c, 1, 62, 89
3, 277820, Note_off_c, 1, 72, 64
3, 277820, Note_off_c, 1, 69, 64
3, 277820, Note_off_c, 1, 66, 64
3, 277820, Note_off_c, 1, 62, 64
3, 277824, Note_on_c, 1, 72, 89
3, 277824, Note_on_c, 1, 69, 89
3, 277824, Note_on_c, 1, 66, 89
3, 277824, Note_on_c, 1, 62, 89
3, 278396, Note_off_c, 1, 72, 64
3, 278396, Note_off_c, 1, 69, 64
3, 278396, Note_off_c, 1, 66, 64
3, 278396, Note_off_c, 1, 62, 64
3, 286464, Note_on_c, 1, 62, 68
3, 286508, Note_off_c, 1, 62, 64
3, 286512, Note_on_c, 1, 71, 68
3, 286844, Note_off_c, 1, 71, 64
3, 286848, Note_on_c, 1, 69, 68
3, 286940, Note_off_c, 1, 69, 64
3, 286944, Note_on_c, 1, 66, 68
3, 287036, Note_off_c, 1, 66, 64
3, 287040, Note_on_c, 1, 66, 68
3, 287084, Note_off_c, 1, 66, 64
3, 287088, Note_on_c, 1, 67, 68
3, 287228, Note_off_c, 1, 67, 64
3, 287616, Note_on_c, 1, 67, 68
3, 287804, Note_off_c, 1, 67, 64
3, 287808, Note_on_c, 1, 72, 68
3, 287996, Note_off_c, 1, 72, 64
3, 288000, Note_on_c, 1, 64, 68
3, 288092, Note_off_c, 1, 64, 64
3, 288192, Note_on_c, 1, 69, 68
3, 288380, Note_off_c, 1, 69, 64
3, 288960, Note_on_c, 1, 67, 68
3, 289148, Note_off_c, 1, 67, 64
3, 289152, Note_on_c, 1, 62, 68
3, 289340, Note_off_c, 1, 62, 64
3, 289536, Note_on_c, 1, 69, 68
3, 289724, Note_off_c, 1, 69, 64
3, 289728, Note_on_c, 1, 62, 68
3, 289916, Note_off_c, 1, 62, 64
3, 290112, Note_on_c, 1, 67, 68
3, 290300, Note_off_c, 1, 67, 64
3, 290304, Note_on_c, 1, 71, 68
3, 290492, Note_off_c, 1, 71, 64
3, 290496, Note_on_c, 1, 67, 68
3, 290876, Note_off_c, 1, 67, 64
3, 290880, Note_on_c, 1, 66, 68
3, 291068, Note_off_c, 1, 66, 64
3, 291072, Note_on_c, 1, 74, 68
3, 291072, Note_on_c, 1, 71, 68
3, 291452, Note_off_c, 1, 74, 64
3, 291452, Note_off_c, 1, 71, 64
3, 291456, Note_on_c, 1, 72, 68
3, 291456, Note_on_c, 1, 69, 68
3, 291548, Note_off_c, 1, 72, 64
3, 291548, Note_off_c, 1, 69, 64
3, 291552, Note_on_c, 1, 69, 68
3, 291552, Note_on_c, 1, 66, 68
3, 291644, Note_off_c, 1, 69, 64
3, 291644, Note_off_c, 1, 66, 64
3, 291648, Note_on_c, 1, 67, 68
3, 291836, Note_off_c, 1, 67, 64
3, 292224, Note_on_c, 1, 76, 68
3, 292224, Note_on_c, 1, 66, 68
3, 292412, Note_off_c, 1, 66, 64
3, 292416, Note_on_c, 1, 72, 68
3, 292604, Note_off_c, 1, 76, 64
3, 292604, Note_off_c, 1, 72, 64
3, 292608, Note_on_c, 1, 64, 68
3, 292608, Note_on_c, 1, 72, 68
3, 292700, Note_off_c, 1, 72, 64
3, 292704, Note_on_c, 1, 69, 68
3, 292796, Note_off_c, 1, 64, 64
3, 292796, Note_off_c, 1, 69, 64
3, 292800, Note_on_c, 1, 66, 68
3, 292800, Note_on_c, 1, 60, 68
3, 292988, Note_off_c, 1, 66, 64
3, 292988, Note_off_c, 1, 60, 64
3, 293376, Note_on_c, 1, 67, 68
3, 293376, Note_on_c, 1, 59, 68
3, 293564, Note_off_c, 1, 67, 64
3, 293564, Note_off_c, 1, 59, 64
3, 293568, Note_on_c, 1, 71, 68
3, 293568, Note_on_c, 1, 62, 68
3, 293756, Note_off_c, 1, 71, 64
3, 293756, Note_off_c, 1, 62, 64
3, 293760, Note_on_c, 1, 79, 68
3, 293760, Note_on_c, 1, 74, 68
3, 293852, Note_off_c, 1, 79, 64
3, 293852, Note_off_c, 1, 74, 64
3, 293952, Note_on_c, 1, 76, 68
3, 293952, Note_on_c, 1, 79, 68
3, 294140, Note_off_c, 1, 76, 64
3, 294144, Note_on_c, 1, 67, 68
3, 294332, Note_off_c, 1, 67, 64
3, 294336, Note_on_c, 1, 72, 68
3, 294524, Note_off_c, 1, 79, 64
3, 294524, Note_off_c, 1, 72, 64
3, 294528, Note_on_c, 1, 79, 68
3, 294528, Note_on_c, 1, 71, 68
3, 294716, Note_off_c, 1, 79, 64
3, 294716, Note_off_c, 1, 71, 64
3, 294720, Note_on_c, 1, 81, 68
3, 294720, Note_on_c, 1, 72, 68
3, 294908, Note_off_c, 1, 81, 64
3, 294908, Note_off_c, 1, 72, 64
3, 294912, Note_on_c, 1, 78, 68
3, 294912, Note_on_c, 1, 72, 68
3, 294912, Note_on_c, 1, 69, 68
3, 295100, Note_off_c, 1, 78, 64
3, 295100, Note_off_c, 1, 72, 64
3, 295100, Note_off_c, 1, 69, 64
3, 295104, Note_on_c, 1, 78, 68
3, 295104, Note_on_c, 1, 72, 68
3, 295104, Note_on_c, 1, 69, 68
3, 295484, Note_off_c, 1, 78, 64
3, 295484, Note_off_c, 1, 72, 64
3, 295484, Note_off_c, 1, 69, 64
3, 295488, Note_on_c, 1, 79, 68
3, 295488, Note_on_c, 1, 71, 68
3, 295488, Note_on_c, 1, 67, 68
3, 295676, Note_off_c, 1, 79, 64
3, 295676, Note_off_c, 1, 71, 64
3, 295676, Note_off_c, 1, 67, 64
3, 295680, Note_on_c, 1, 62, 68
3, 295724, Note_off_c, 1, 62, 64
3, 295728, Note_on_c, 1, 74, 68
3, 295728, Note_on_c, 1, 71, 68
3, 296060, Note_off_c, 1, 74, 64
3, 296060, Note_off_c, 1, 71, 64
3, 296064, Note_on_c, 1, 72, 68
3, 296064, Note_on_c, 1, 69, 68
3, 296156, Note_off_c, 1, 72, 64
3, 296156, Note_off_c, 1, 69, 64
3, 296160, Note_on_c, 1, 69, 68
3, 296160, Note_on_c, 1, 66, 68
3, 296252, Note_off_c, 1, 69, 64
3, 296252, Note_off_c, 1, 66, 64
3, 296256, Note_on_c, 1, 67, 68
3, 296348, Note_off_c, 1, 67, 64
3, 296448, Note_on_c, 1, 59, 68
3, 296448, Note_on_c, 1, 67, 68
3, 296540, Note_off_c, 1, 59, 64
3, 296540, Note_off_c, 1, 67, 64
3, 296640, Note_on_c, 1, 59, 68
3, 296640, Note_on_c, 1, 67, 68
3, 296732, Note_off_c, 1, 59, 64
3, 296732, Note_off_c, 1, 67, 64
3, 296832, Note_on_c, 1, 64, 68
3, 296876, Note_off_c, 1, 64, 64
3, 296880, Note_on_c, 1, 67, 68
3, 296880, Note_on_c, 1, 76, 68
3, 297020, Note_off_c, 1, 67, 64
3, 297024, Note_on_c, 1, 72, 68
3, 297212, Note_off_c, 1, 76, 64
3, 297212, Note_off_c, 1, 72, 64
3, 297216, Note_on_c, 1, 72, 68
3, 297216, Note_on_c, 1, 64, 68
3, 297308, Note_off_c, 1, 72, 64
3, 297308, Note_off_c, 1, 64, 64
3, 297312, Note_on_c, 1, 69, 68
3, 297312, Note_on_c, 1, 60, 68
3, 297404, Note_off_c, 1, 69, 64
3, 297404, Note_off_c, 1, 60, 64
3, 297408, Note_on_c, 1, 66, 68
3, 297408, Note_on_c, 1, 57, 68
3, 297500, Note_off_c, 1, 66, 64
3, 297500, Note_off_c, 1, 57, 64
3, 297600, Note_on_c, 1, 66, 68
3, 297600, Note_on_c, 1, 57, 68
3, 297692, Note_off_c, 1, 66, 64
3, 297692, Note_off_c, 1, 57, 64
3, 297792, Note_on_c, 1, 66, 68
3, 297792, Note_on_c, 1, 57, 68
3, 297884, Note_off_c, 1, 66, 64
3, 297884, Note_off_c, 1, 57, 64
3, 297984, Note_on_c, 1, 67, 68
3, 298172, Note_off_c, 1, 67, 64
3, 298176, Note_on_c, 1, 62, 68
3, 298364, Note_off_c, 1, 62, 64
3, 298368, Note_on_c, 1, 71, 68
3, 298368, Note_on_c, 1, 67, 68
3, 298460, Note_off_c, 1, 71, 64
3, 298460, Note_off_c, 1, 67, 64
3, 298464, Note_on_c, 1, 62, 68
3, 298556, Note_off_c, 1, 62, 64
3, 298560, Note_on_c, 1, 69, 68
3, 298748, Note_off_c, 1, 69, 64
3, 298752, Note_on_c, 1, 62, 68
3, 298940, Note_off_c, 1, 62, 64
3, 298944, Note_on_c, 1, 72, 68
3, 298944, Note_on_c, 1, 69, 68
3, 299036, Note_off_c, 1, 72, 64
3, 299036, Note_off_c, 1, 69, 64
3, 299040, Note_on_c, 1, 62, 68
3, 299132, Note_off_c, 1, 62, 64
3, 299136, Note_on_c, 1, 71, 68
3, 299324, Note_off_c, 1, 71, 64
3, 299328, Note_on_c, 1, 62, 68
3, 299516, Note_off_c, 1, 62, 64
3, 299520, Note_on_c, 1, 74, 68
3, 299520, Note_on_c, 1, 71, 68
3, 299612, Note_off_c, 1, 74, 64
3, 299612, Note_off_c, 1, 71, 64
3, 299616, Note_on_c, 1, 67, 68
3, 299708, Note_off_c, 1, 67, 64
3, 299712, Note_on_c, 1, 71, 68
3, 299712, Note_on_c, 1, 67, 68
3, 300092, Note_off_c, 1, 71, 64
3, 300092, Note_off_c, 1, 67, 64
3, 300096, Note_on_c, 1, 69, 68
3, 300096, Note_on_c, 1, 66, 68
3, 300284, Note_off_c, 1, 69, 64
3, 300284, Note_off_c, 1, 66, 64
3, 300288, Note_on_c, 1, 62, 89
3, 300332, Note_off_c, 1, 62, 64
3, 300336, Note_on_c, 1, 74, 89
3, 300336, Note_on_c, 1, 71, 89
3, 300668, Note_off_c, 1, 74, 64
3, 300668, Note_off_c, 1, 71, 64
3, 300672, Note_on_c, 1, 72, 89
3, 300672, Note_on_c, 1, 69, 89
3, 300764, Note_off_c, 1, 72, 64
3, 300764, Note_off_c, 1, 69, 64
3, 300768, Note_on_c, 1, 69, 89
3, 300768, Note_on_c, 1, 66, 89
3, 300860, Note_off_c, 1, 69, 64
3, 300860, Note_off_c, 1, 66, 64
3, 300864, Note_on_c, 1, 69, 89
3, 300864, Note_on_c, 1, 66, 89
3, 300908, Note_off_c, 1, 69, 64
3, 300908, Note_off_c, 1, 66, 64
3, 300912, Note_on_c, 1, 67, 89
3, 300956, Note_off_c, 1, 67, 64
3, 301056, Note_on_c, 1, 67, 89
3, 301056, Note_on_c, 1, 59, 89
3, 301148, Note_off_c, 1, 67, 64
3, 301148, Note_off_c, 1, 59, 64
3, 301248, Note_on_c, 1, 67, 89
3, 301248, Note_on_c, 1, 59, 89
3, 301340, Note_off_c, 1, 67, 64
3, 301340, Note_off_c, 1, 59, 64
3, 301440, Note_on_c, 1, 64, 89
3, 301484, Note_off_c, 1, 64, 64
3, 301488, Note_on_c, 1, 67, 89
3, 301488, Note_on_c, 1, 76, 89
3, 301628, Note_off_c, 1, 67, 64
3, 301632, Note_on_c, 1, 72, 89
3, 301820, Note_off_c, 1, 72, 64
3, 301824, Note_on_c, 1, 72, 89
3, 301824, Note_on_c, 1, 64, 89
3, 301868, Note_off_c, 1, 76, 64
3, 301916, Note_off_c, 1, 72, 64
3, 301916, Note_off_c, 1, 64, 64
3, 301920, Note_on_c, 1, 69, 89
3, 301920, Note_on_c, 1, 60, 89
3, 302012, Note_off_c, 1, 69, 64
3, 302012, Note_off_c, 1, 60, 64
3, 302016, Note_on_c, 1, 67, 89
3, 302016, Note_on_c, 1, 59, 89
3, 302060, Note_off_c, 1, 67, 64
3, 302060, Note_off_c, 1, 59, 64
3, 302064, Note_on_c, 1, 66, 89
3, 302064, Note_on_c, 1, 57, 89
3, 302108, Note_off_c, 1, 66, 64
3, 302108, Note_off_c, 1, 57, 64
3, 302208, Note_on_c, 1, 66, 89
3, 302208, Note_on_c, 1, 57, 89
3, 302300, Note_off_c, 1, 66, 64
3, 302300, Note_off_c, 1, 57, 64
3, 302400, Note_on_c, 1, 66, 89
3, 302400, Note_on_c, 1, 57, 89
3, 302492, Note_off_c, 1, 66, 64
3, 302492, Note_off_c, 1, 57, 64
3, 302592, Note_on_c, 1, 67, 89
3, 302780, Note_off_c, 1, 67, 64
3, 302784, Note_on_c, 1, 71, 89
3, 302972, Note_off_c, 1, 71, 64
3, 302976, Note_on_c, 1, 74, 89
3, 303068, Note_off_c, 1, 74, 64
3, 303168, Note_on_c, 1, 76, 89
3, 303356, Note_off_c, 1, 76, 64
3, 303360, Note_on_c, 1, 79, 89
3, 303548, Note_off_c, 1, 79, 64
3, 303552, Note_on_c, 1, 72, 89
3, 303644, Note_off_c, 1, 72, 64
3, 303744, Note_on_c, 1, 71, 89
3, 303744, Note_on_c, 1, 67, 89
3, 303932, Note_off_c, 1, 71, 64
3, 303932, Note_off_c, 1, 67, 64
3, 303936, Note_on_c, 1, 72, 89
3, 303936, Note_on_c, 1, 69, 89
3, 304124, Note_off_c, 1, 72, 64
3, 304124, Note_off_c, 1, 69, 64
3, 304128, Note_on_c, 1, 69, 89
3, 304128, Note_on_c, 1, 66, 89
3, 304220, Note_off_c, 1, 69, 64
3, 304220, Note_off_c, 1, 66, 64
3, 304320, Note_on_c, 1, 67, 68
3, 304508, Note_off_c, 1, 67, 64
3, 304704, Note_on_c, 1, 71, 68
3, 304704, Note_on_c, 1, 67, 68
3, 304796, Note_off_c, 1, 71, 64
3, 304796, Note_off_c, 1, 67, 64
3, 304896, Note_on_c, 1, 66, 68
3, 304896, Note_on_c, 1, 74, 73
3, 304940, Note_off_c, 1, 74, 64
3, 304944, Note_on_c, 1, 72, 68
3, 304988, Note_off_c, 1, 66, 64
3, 304988, Note_off_c, 1, 72, 64
3, 305088, Note_on_c, 1, 62, 68
3, 305180, Note_off_c, 1, 62, 64
3, 305280, Note_on_c, 1, 71, 68
3, 305280, Note_on_c, 1, 67, 68
3, 305372, Note_off_c, 1, 71, 64
3, 305372, Note_off_c, 1, 67, 64
3, 305472, Note_on_c, 1, 74, 73
3, 305472, Note_on_c, 1, 66, 68
3, 305516, Note_off_c, 1, 74, 64
3, 305520, Note_on_c, 1, 72, 68
3, 305564, Note_off_c, 1, 66, 64
3, 305564, Note_off_c, 1, 72, 64
3, 305664, Note_on_c, 1, 62, 68
3, 305756, Note_off_c, 1, 62, 64
3, 305856, Note_on_c, 1, 71, 68
3, 305856, Note_on_c, 1, 67, 68
3, 305948, Note_off_c, 1, 71, 64
3, 305948, Note_off_c, 1, 67, 64
3, 306048, Note_on_c, 1, 71, 73
3, 306092, Note_off_c, 1, 71, 64
3, 306096, Note_on_c, 1, 69, 68
3, 306096, Note_on_c, 1, 67, 68
3, 306140, Note_off_c, 1, 69, 64
3, 306140, Note_off_c, 1, 67, 64
3, 306240, Note_on_c, 1, 69, 68
3, 306240, Note_on_c, 1, 67, 68
3, 306332, Note_off_c, 1, 69, 64
3, 306332, Note_off_c, 1, 67, 64
3, 306432, Note_on_c, 1, 69, 68
3, 306432, Note_on_c, 1, 67, 68
3, 306524, Note_off_c, 1, 69, 64
3, 306524, Note_off_c, 1, 67, 64
3, 306624, Note_on_c, 1, 71, 73
3, 306668, Note_off_c, 1, 71, 64
3, 306672, Note_on_c, 1, 66, 68
3, 306672, Note_on_c, 1, 69, 68
3, 306716, Note_off_c, 1, 66, 64
3, 306716, Note_off_c, 1, 69, 64
3, 307008, Note_on_c, 1, 71, 89
3, 307196, Note_off_c, 1, 71, 64
3, 307200, Note_on_c, 1, 72, 89
3, 307292, Note_off_c, 1, 72, 64
3, 307296, Note_on_c, 1, 71, 89
3, 307388, Note_off_c, 1, 71, 64
3, 307392, Note_on_c, 1, 72, 89
3, 307484, Note_off_c, 1, 72, 64
3, 307488, Note_on_c, 1, 74, 89
3, 307580, Note_off_c, 1, 74, 64
3, 307584, Note_on_c, 1, 76, 89
3, 307676, Note_off_c, 1, 76, 64
3, 307680, Note_on_c, 1, 78, 89
3, 307772, Note_off_c, 1, 78, 64
3, 307776, Note_on_c, 1, 79, 89
3, 307868, Note_off_c, 1, 79, 64
3, 307872, Note_on_c, 1, 81, 89
3, 307964, Note_off_c, 1, 81, 64
3, 307968, Note_on_c, 1, 83, 89
3, 308060, Note_off_c, 1, 83, 64
3, 308064, Note_on_c, 1, 79, 89
3, 308156, Note_off_c, 1, 79, 64
3, 308160, Note_on_c, 1, 74, 89
3, 308252, Note_off_c, 1, 74, 64
3, 308256, Note_on_c, 1, 71, 89
3, 308348, Note_off_c, 1, 71, 64
3, 308352, Note_on_c, 1, 72, 89
3, 308444, Note_off_c, 1, 72, 64
3, 308448, Note_on_c, 1, 74, 89
3, 308540, Note_off_c, 1, 74, 64
3, 308544, Note_on_c, 1, 76, 89
3, 308636, Note_off_c, 1, 76, 64
3, 308640, Note_on_c, 1, 72, 89
3, 308732, Note_off_c, 1, 72, 64
3, 308736, Note_on_c, 1, 69, 89
3, 308828, Note_off_c, 1, 69, 64
3, 308832, Note_on_c, 1, 66, 89
3, 308924, Note_off_c, 1, 66, 64
3, 308928, Note_on_c, 1, 67, 89
3, 309116, Note_off_c, 1, 67, 64
3, 309504, Note_on_c, 1, 67, 68
3, 309596, Note_off_c, 1, 67, 64
3, 309696, Note_on_c, 1, 69, 68
3, 309788, Note_off_c, 1, 69, 64
3, 309888, Note_on_c, 1, 71, 68
3, 309980, Note_off_c, 1, 71, 64
3, 310080, Note_on_c, 1, 72, 68
3, 310172, Note_off_c, 1, 72, 64
3, 310272, Note_on_c, 1, 74, 68
3, 310364, Note_off_c, 1, 74, 64
3, 310464, Note_on_c, 1, 76, 68
3, 310556, Note_off_c, 1, 76, 64
3, 310656, Note_on_c, 1, 74, 68
3, 311420, Note_off_c, 1, 74, 64
3, 311424, Note_on_c, 1, 72, 68
3, 311612, Note_off_c, 1, 72, 64
3, 311616, Note_on_c, 1, 69, 68
3, 311804, Note_off_c, 1, 69, 64
3, 311808, Note_on_c, 1, 67, 68
3, 311900, Note_off_c, 1, 67, 64
3, 312000, Note_on_c, 1, 69, 68
3, 312092, Note_off_c, 1, 69, 64
3, 312192, Note_on_c, 1, 71, 68
3, 312284, Note_off_c, 1, 71, 64
3, 312384, Note_on_c, 1, 72, 68
3, 312476, Note_off_c, 1, 72, 64
3, 312576, Note_on_c, 1, 74, 68
3, 312668, Note_off_c, 1, 74, 64
3, 312768, Note_on_c, 1, 76, 68
3, 312860, Note_off_c, 1, 76, 64
3, 312960, Note_on_c, 1, 74, 68
3, 313724, Note_off_c, 1, 74, 64
3, 313728, Note_on_c, 1, 72, 68
3, 313916, Note_off_c, 1, 72, 64
3, 313920, Note_on_c, 1, 69, 68
3, 314108, Note_off_c, 1, 69, 64
3, 314112, Note_on_c, 1, 67, 68
3, 314204, Note_off_c, 1, 67, 64
3, 314304, Note_on_c, 1, 71, 68
3, 314492, Note_off_c, 1, 71, 64
3, 314496, Note_on_c, 1, 67, 68
3, 314684, Note_off_c, 1, 67, 64
3, 314688, Note_on_c, 1, 74, 68
3, 314780, Note_off_c, 1, 74, 64
3, 314880, Note_on_c, 1, 72, 68
3, 314880, Note_on_c, 1, 69, 68
3, 315068, Note_off_c, 1, 72, 64
3, 315068, Note_off_c, 1, 69, 64
3, 315072, Note_on_c, 1, 69, 68
3, 315072, Note_on_c, 1, 66, 68
3, 315260, Note_off_c, 1, 69, 64
3, 315260, Note_off_c, 1, 66, 64
3, 315264, Note_on_c, 1, 67, 68
3, 315356, Note_off_c, 1, 67, 64
3, 315456, Note_on_c, 1, 71, 68
3, 315644, Note_off_c, 1, 71, 64
3, 315648, Note_on_c, 1, 67, 68
3, 315836, Note_off_c, 1, 67, 64
3, 315840, Note_on_c, 1, 74, 68
3, 315932, Note_off_c, 1, 74, 64
3, 316032, Note_on_c, 1, 72, 68
3, 316032, Note_on_c, 1, 69, 68
3, 316220, Note_off_c, 1, 72, 64
3, 316220, Note_off_c, 1, 69, 64
3, 316224, Note_on_c, 1, 69, 68
3, 316224, Note_on_c, 1, 66, 68
3, 316412, Note_off_c, 1, 69, 64
3, 316412, Note_off_c, 1, 66, 64
3, 316416, Note_on_c, 1, 67, 68
3, 316508, Note_off_c, 1, 67, 64
3, 316608, Note_on_c, 1, 74, 68
3, 316608, Note_on_c, 1, 71, 68
3, 316608, Note_on_c, 1, 67, 68
3, 316608, Note_on_c, 1, 59, 68
3, 316700, Note_off_c, 1, 74, 64
3, 316700, Note_off_c, 1, 71, 64
3, 316700, Note_off_c, 1, 67, 64
3, 316700, Note_off_c, 1, 59, 64
3, 316800, Note_on_c, 1, 74, 68
3, 316800, Note_on_c, 1, 71, 68
3, 316800, Note_on_c, 1, 67, 68
3, 316800, Note_on_c, 1, 59, 68
3, 316892, Note_off_c, 1, 74, 64
3, 316892, Note_off_c, 1, 71, 64
3, 316892, Note_off_c, 1, 67, 64
3, 316892, Note_off_c, 1, 59, 64
3, 316992, Note_on_c, 1, 74, 68
3, 316992, Note_on_c, 1, 71, 68
3, 316992, Note_on_c, 1, 67, 68
3, 316992, Note_on_c, 1, 59, 68
3, 317084, Note_off_c, 1, 74, 64
3, 317084, Note_off_c, 1, 71, 64
3, 317084, Note_off_c, 1, 67, 64
3, 317084, Note_off_c, 1, 59, 64
3, 317184, Note_on_c, 1, 74, 68
3, 317184, Note_on_c, 1, 71, 68
3, 317184, Note_on_c, 1, 67, 68
3, 317184, Note_on_c, 1, 59, 68
3, 317276, Note_off_c, 1, 74, 64
3, 317276, Note_off_c, 1, 71, 64
3, 317276, Note_off_c, 1, 67, 64
3, 317276, Note_off_c, 1, 59, 64
3, 317376, Note_on_c, 1, 74, 68
3, 317376, Note_on_c, 1, 71, 68
3, 317376, Note_on_c, 1, 67, 68
3, 317376, Note_on_c, 1, 59, 68
3, 317468, Note_off_c, 1, 74, 64
3, 317468, Note_off_c, 1, 71, 64
3, 317468, Note_off_c, 1, 67, 64
3, 317468, Note_off_c, 1, 59, 64
3, 317568, Note_on_c, 1, 78, 68
3, 317568, Note_on_c, 1, 72, 68
3, 317568, Note_on_c, 1, 69, 68
3, 317568, Note_on_c, 1, 62, 68
3, 318140, Note_off_c, 1, 78, 64
3, 318140, Note_off_c, 1, 72, 64
3, 318140, Note_off_c, 1, 69, 64
3, 318140, Note_off_c, 1, 62, 64
3, 318144, Note_on_c, 1, 79, 68
3, 318144, Note_on_c, 1, 71, 68
3, 318144, Note_on_c, 1, 67, 68
3, 318332, Note_off_c, 1, 79, 64
3, 318332, Note_off_c, 1, 71, 64
3, 318332, Note_off_c, 1, 67, 64
3, 318332, End_track
4, 0, Start_track
4, 0, Title_t, "K216 -c-Rondeau"
4, 0, Control_c, 2, 0, 0
4, 0, Program_c, 2, 48
4, 0, Control_c, 2, 7, 80
4, 0, Control_c, 2, 10, 87
4, 0, Control_c, 2, 91, 67
4, 0, Control_c, 2, 93, 55
4, 0, Key_signature, 1, "major"
4, 0, Control_c, 2, 121, 0
4, 96, Control_c, 2, 10, 73
4, 192, Control_c, 2, 91, 73
4, 288, Program_c, 2, 48
4, 576, Note_on_c, 2, 43, 89
4, 670, Note_off_c, 2, 43, 64
4, 768, Note_on_c, 2, 47, 89
4, 862, Note_off_c, 2, 47, 64
4, 960, Note_on_c, 2, 50, 89
4, 1054, Note_off_c, 2, 50, 64
4, 1152, Note_on_c, 2, 55, 89
4, 1340, Note_off_c, 2, 55, 64
4, 1728, Note_on_c, 2, 48, 89
4, 1822, Note_off_c, 2, 48, 64
4, 1920, Note_on_c, 2, 45, 89
4, 2014, Note_off_c, 2, 45, 64
4, 2112, Note_on_c, 2, 48, 89
4, 2206, Note_off_c, 2, 48, 64
4, 2304, Note_on_c, 2, 50, 89
4, 2492, Note_off_c, 2, 50, 64
4, 2880, Note_on_c, 2, 50, 89
4, 2880, Note_on_c, 2, 47, 89
4, 3452, Note_off_c, 2, 50, 64
4, 3452, Note_off_c, 2, 47, 64
4, 3456, Note_on_c, 2, 50, 89
4, 3456, Note_on_c, 2, 42, 89
4, 4028, Note_off_c, 2, 50, 64
4, 4028, Note_off_c, 2, 42, 64
4, 4032, Note_on_c, 2, 50, 89
4, 4032, Note_on_c, 2, 43, 89
4, 4604, Note_off_c, 2, 50, 64
4, 4604, Note_off_c, 2, 43, 64
4, 4608, Note_on_c, 2, 38, 89
4, 4796, Note_off_c, 2, 38, 64
4, 4800, Note_on_c, 2, 50, 89
4, 4892, Note_off_c, 2, 50, 64
4, 4896, Note_on_c, 2, 49, 89
4, 4988, Note_off_c, 2, 49, 64
4, 4992, Note_on_c, 2, 50, 89
4, 5180, Note_off_c, 2, 50, 64
4, 5184, Note_on_c, 2, 43, 89
4, 5278, Note_off_c, 2, 43, 64
4, 5376, Note_on_c, 2, 47, 89
4, 5470, Note_off_c, 2, 47, 64
4, 5568, Note_on_c, 2, 50, 89
4, 5662, Note_off_c, 2, 50, 64
4, 5760, Note_on_c, 2, 55, 89
4, 5948, Note_off_c, 2, 55, 64
4, 6336, Note_on_c, 2, 48, 89
4, 6430, Note_off_c, 2, 48, 64
4, 6528, Note_on_c, 2, 45, 89
4, 6622, Note_off_c, 2, 45, 64
4, 6720, Note_on_c, 2, 48, 89
4, 6814, Note_off_c, 2, 48, 64
4, 6912, Note_on_c, 2, 50, 89
4, 7100, Note_off_c, 2, 50, 64
4, 7488, Note_on_c, 2, 50, 89
4, 7488, Note_on_c, 2, 47, 89
4, 7580, Note_off_c, 2, 50, 64
4, 7580, Note_off_c, 2, 47, 64
4, 7584, Note_on_c, 2, 55, 89
4, 7676, Note_off_c, 2, 55, 64
4, 7680, Note_on_c, 2, 50, 89
4, 7680, Note_on_c, 2, 47, 89
4, 7772, Note_off_c, 2, 50, 64
4, 7772, Note_off_c, 2, 47, 64
4, 7776, Note_on_c, 2, 55, 89
4, 7868, Note_off_c, 2, 55, 64
4, 7872, Note_on_c, 2, 50, 89
4, 7872, Note_on_c, 2, 47, 89
4, 7964, Note_off_c, 2, 50, 64
4, 7964, Note_off_c, 2, 47, 64
4, 7968, Note_on_c, 2, 55, 89
4, 8060, Note_off_c, 2, 55, 64
4, 8064, Note_on_c, 2, 52, 89
4, 8064, Note_on_c, 2, 48, 89
4, 8156, Note_off_c, 2, 52, 64
4, 8156, Note_off_c, 2, 48, 64
4, 8160, Note_on_c, 2, 55, 89
4, 8252, Note_off_c, 2, 55, 64
4, 8256, Note_on_c, 2, 52, 89
4, 8256, Note_on_c, 2, 48, 89
4, 8348, Note_off_c, 2, 52, 64
4, 8348, Note_off_c, 2, 48, 64
4, 8352, Note_on_c, 2, 55, 89
4, 8444, Note_off_c, 2, 55, 64
4, 8448, Note_on_c, 2, 52, 89
4, 8448, Note_on_c, 2, 48, 89
4, 8540, Note_off_c, 2, 52, 64
4, 8540, Note_off_c, 2, 48, 64
4, 8544, Note_on_c, 2, 55, 89
4, 8636, Note_off_c, 2, 55, 64
4, 8640, Note_on_c, 2, 62, 89
4, 8640, Note_on_c, 2, 50, 89
4, 8828, Note_off_c, 2, 62, 64
4, 8828, Note_off_c, 2, 50, 64
4, 8832, Note_on_c, 2, 62, 89
4, 8832, Note_on_c, 2, 50, 89
4, 9020, Note_off_c, 2, 62, 64
4, 9020, Note_off_c, 2, 50, 64
4, 9024, Note_on_c, 2, 62, 89
4, 9024, Note_on_c, 2, 50, 89
4, 9212, Note_off_c, 2, 62, 64
4, 9212, Note_off_c, 2, 50, 64
4, 9216, Note_on_c, 2, 59, 89
4, 9216, Note_on_c, 2, 55, 89
4, 9404, Note_off_c, 2, 59, 64
4, 9404, Note_off_c, 2, 55, 64
4, 9408, Note_on_c, 2, 43, 89
4, 9596, Note_off_c, 2, 43, 64
4, 10944, Note_on_c, 2, 64, 68
4, 10944, Note_on_c, 2, 61, 68
4, 11036, Note_off_c, 2, 64, 64
4, 11036, Note_off_c, 2, 61, 64
4, 11136, Note_on_c, 2, 61, 68
4, 11136, Note_on_c, 2, 64, 68
4, 11228, Note_off_c, 2, 61, 64
4, 11228, Note_off_c, 2, 64, 64
4, 11328, Note_on_c, 2, 61, 68
4, 11328, Note_on_c, 2, 64, 68
4, 11420, Note_off_c, 2, 61, 64
4, 11420, Note_off_c, 2, 64, 64
4, 11520, Note_on_c, 2, 62, 68
4, 11612, Note_off_c, 2, 62, 64
4, 11712, Note_on_c, 2, 50, 68
4, 11804, Note_off_c, 2, 50, 64
4, 12096, Note_on_c, 2, 57, 89
4, 12096, Note_on_c, 2, 54, 89
4, 12096, Note_on_c, 2, 50, 89
4, 12188, Note_off_c, 2, 57, 64
4, 12188, Note_off_c, 2, 54, 64
4, 12188, Note_off_c, 2, 50, 64
4, 12288, Note_on_c, 2, 57, 89
4, 12288, Note_on_c, 2, 54, 89
4, 12288, Note_on_c, 2, 50, 89
4, 12380, Note_off_c, 2, 57, 64
4, 12380, Note_off_c, 2, 54, 64
4, 12380, Note_off_c, 2, 50, 64
4, 12480, Note_on_c, 2, 57, 89
4, 12480, Note_on_c, 2, 54, 89
4, 12480, Note_on_c, 2, 50, 89
4, 12480, Note_on_c, 2, 48, 89
4, 12572, Note_off_c, 2, 57, 64
4, 12572, Note_off_c, 2, 54, 64
4, 12572, Note_off_c, 2, 50, 64
4, 12572, Note_off_c, 2, 48, 64
4, 12672, Note_on_c, 2, 55, 89
4, 12672, Note_on_c, 2, 50, 89
4, 12672, Note_on_c, 2, 47, 89
4, 12764, Note_off_c, 2, 55, 64
4, 12764, Note_off_c, 2, 50, 64
4, 12764, Note_off_c, 2, 47, 64
4, 12864, Note_on_c, 2, 55, 89
4, 12864, Note_on_c, 2, 50, 89
4, 12864, Note_on_c, 2, 43, 89
4, 12956, Note_off_c, 2, 55, 64
4, 12956, Note_off_c, 2, 50, 64
4, 12956, Note_off_c, 2, 43, 64
4, 13056, Note_on_c, 2, 55, 89
4, 13056, Note_on_c, 2, 50, 89
4, 13056, Note_on_c, 2, 47, 89
4, 13148, Note_off_c, 2, 55, 64
4, 13148, Note_off_c, 2, 50, 64
4, 13148, Note_off_c, 2, 47, 64
4, 13248, Note_on_c, 2, 57, 89
4, 13248, Note_on_c, 2, 52, 89
4, 13248, Note_on_c, 2, 45, 89
4, 13340, Note_off_c, 2, 57, 64
4, 13340, Note_off_c, 2, 52, 64
4, 13340, Note_off_c, 2, 45, 64
4, 13440, Note_on_c, 2, 57, 89
4, 13440, Note_on_c, 2, 52, 89
4, 13440, Note_on_c, 2, 48, 89
4, 13532, Note_off_c, 2, 57, 64
4, 13532, Note_off_c, 2, 52, 64
4, 13532, Note_off_c, 2, 48, 64
4, 13632, Note_on_c, 2, 60, 89
4, 13632, Note_on_c, 2, 57, 89
4, 13632, Note_on_c, 2, 50, 89
4, 13724, Note_off_c, 2, 60, 64
4, 13724, Note_off_c, 2, 57, 64
4, 13724, Note_off_c, 2, 50, 64
4, 13824, Note_on_c, 2, 59, 89
4, 13824, Note_on_c, 2, 55, 89
4, 13916, Note_off_c, 2, 59, 64
4, 13916, Note_off_c, 2, 55, 64
4, 14016, Note_on_c, 2, 50, 89
4, 14108, Note_off_c, 2, 50, 64
4, 14208, Note_on_c, 2, 47, 89
4, 14300, Note_off_c, 2, 47, 64
4, 14400, Note_on_c, 2, 43, 89
4, 14492, Note_off_c, 2, 43, 64
4, 16128, Note_on_c, 2, 60, 68
4, 16128, Note_on_c, 2, 54, 68
4, 16128, Note_on_c, 2, 50, 68
4, 16700, Note_off_c, 2, 60, 64
4, 16700, Note_off_c, 2, 54, 64
4, 16700, Note_off_c, 2, 50, 64
4, 16704, Note_on_c, 2, 59, 68
4, 16704, Note_on_c, 2, 55, 68
4, 16892, Note_off_c, 2, 59, 64
4, 16892, Note_off_c, 2, 55, 64
4, 18432, Note_on_c, 2, 60, 68
4, 18432, Note_on_c, 2, 54, 68
4, 18432, Note_on_c, 2, 50, 68
4, 19004, Note_off_c, 2, 60, 64
4, 19004, Note_off_c, 2, 54, 64
4, 19004, Note_off_c, 2, 50, 64
4, 19008, Note_on_c, 2, 59, 68
4, 19008, Note_on_c, 2, 55, 68
4, 19196, Note_off_c, 2, 59, 64
4, 19196, Note_off_c, 2, 55, 64
4, 19200, Note_on_c, 2, 59, 68
4, 19388, Note_off_c, 2, 59, 64
4, 19392, Note_on_c, 2, 55, 68
4, 19580, Note_off_c, 2, 55, 64
4, 19584, Note_on_c, 2, 62, 68
4, 19676, Note_off_c, 2, 62, 64
4, 19776, Note_on_c, 2, 62, 68
4, 19776, Note_on_c, 2, 50, 68
4, 19964, Note_off_c, 2, 62, 64
4, 19964, Note_off_c, 2, 50, 64
4, 19968, Note_on_c, 2, 60, 68
4, 19968, Note_on_c, 2, 50, 68
4, 20156, Note_off_c, 2, 60, 64
4, 20156, Note_off_c, 2, 50, 64
4, 20160, Note_on_c, 2, 59, 68
4, 20160, Note_on_c, 2, 55, 68
4, 20252, Note_off_c, 2, 59, 64
4, 20252, Note_off_c, 2, 55, 64
4, 20352, Note_on_c, 2, 59, 68
4, 20540, Note_off_c, 2, 59, 64
4, 20544, Note_on_c, 2, 55, 68
4, 20732, Note_off_c, 2, 55, 64
4, 20736, Note_on_c, 2, 62, 68
4, 20828, Note_off_c, 2, 62, 64
4, 20928, Note_on_c, 2, 62, 68
4, 20928, Note_on_c, 2, 50, 68
4, 21116, Note_off_c, 2, 62, 64
4, 21116, Note_off_c, 2, 50, 64
4, 21120, Note_on_c, 2, 60, 68
4, 21120, Note_on_c, 2, 50, 68
4, 21308, Note_off_c, 2, 60, 64
4, 21308, Note_off_c, 2, 50, 64
4, 21312, Note_on_c, 2, 59, 68
4, 21312, Note_on_c, 2, 55, 68
4, 21500, Note_off_c, 2, 59, 64
4, 21500, Note_off_c, 2, 55, 64
4, 31680, Note_on_c, 2, 42, 68
4, 31868, Note_off_c, 2, 42, 64
4, 40896, Note_on_c, 2, 57, 68
4, 41084, Note_off_c, 2, 57, 64
4, 41088, Note_on_c, 2, 45, 68
4, 41276, Note_off_c, 2, 45, 64
4, 41280, Note_on_c, 2, 57, 68
4, 41468, Note_off_c, 2, 57, 64
4, 41472, Note_on_c, 2, 57, 89
4, 41564, Note_off_c, 2, 57, 64
4, 41568, Note_on_c, 2, 59, 89
4, 41660, Note_off_c, 2, 59, 64
4, 41664, Note_on_c, 2, 57, 89
4, 41756, Note_off_c, 2, 57, 64
4, 41760, Note_on_c, 2, 55, 89
4, 41852, Note_off_c, 2, 55, 64
4, 41856, Note_on_c, 2, 54, 89
4, 41948, Note_off_c, 2, 54, 64
4, 41952, Note_on_c, 2, 52, 89
4, 42044, Note_off_c, 2, 52, 64
4, 42048, Note_on_c, 2, 50, 89
4, 42236, Note_off_c, 2, 50, 64
4, 48960, Note_on_c, 2, 43, 68
4, 49532, Note_off_c, 2, 43, 64
4, 49536, Note_on_c, 2, 44, 68
4, 50108, Note_off_c, 2, 44, 64
4, 50112, Note_on_c, 2, 45, 68
4, 50300, Note_off_c, 2, 45, 64
4, 50688, Note_on_c, 2, 45, 68
4, 50876, Note_off_c, 2, 45, 64
4, 51264, Note_on_c, 2, 50, 68
4, 51452, Note_off_c, 2, 50, 64
4, 53568, Note_on_c, 2, 43, 68
4, 54140, Note_off_c, 2, 43, 64
4, 54144, Note_on_c, 2, 44, 68
4, 54716, Note_off_c, 2, 44, 64
4, 54720, Note_on_c, 2, 45, 68
4, 54908, Note_off_c, 2, 45, 64
4, 55296, Note_on_c, 2, 45, 68
4, 55484, Note_off_c, 2, 45, 64
4, 55872, Note_on_c, 2, 50, 68
4, 56060, Note_off_c, 2, 50, 64
4, 57600, Note_on_c, 2, 57, 68
4, 58172, Note_off_c, 2, 57, 64
4, 58176, Note_on_c, 2, 57, 68
4, 58176, Note_on_c, 2, 50, 68
4, 58364, Note_off_c, 2, 57, 64
4, 58364, Note_off_c, 2, 50, 64
4, 59904, Note_on_c, 2, 57, 68
4, 60476, Note_off_c, 2, 57, 64
4, 60480, Note_on_c, 2, 57, 68
4, 60480, Note_on_c, 2, 50, 68
4, 60668, Note_off_c, 2, 57, 64
4, 60668, Note_off_c, 2, 50, 64
4, 61248, Note_on_c, 2, 57, 68
4, 61248, Note_on_c, 2, 45, 68
4, 61436, Note_off_c, 2, 57, 64
4, 61436, Note_off_c, 2, 45, 64
4, 61440, Note_on_c, 2, 55, 68
4, 61440, Note_on_c, 2, 45, 68
4, 61628, Note_off_c, 2, 55, 64
4, 61628, Note_off_c, 2, 45, 64
4, 61632, Note_on_c, 2, 54, 68
4, 61632, Note_on_c, 2, 50, 68
4, 61724, Note_off_c, 2, 54, 64
4, 61724, Note_off_c, 2, 50, 64
4, 62400, Note_on_c, 2, 57, 68
4, 62400, Note_on_c, 2, 45, 68
4, 62588, Note_off_c, 2, 57, 64
4, 62588, Note_off_c, 2, 45, 64
4, 62592, Note_on_c, 2, 55, 68
4, 62592, Note_on_c, 2, 45, 68
4, 62780, Note_off_c, 2, 55, 64
4, 62780, Note_off_c, 2, 45, 64
4, 62784, Note_on_c, 2, 54, 68
4, 62784, Note_on_c, 2, 50, 68
4, 62876, Note_off_c, 2, 54, 64
4, 62876, Note_off_c, 2, 50, 64
4, 67392, Note_on_c, 2, 50, 68
4, 67580, Note_off_c, 2, 50, 64
4, 68160, Note_on_c, 2, 50, 68
4, 68348, Note_off_c, 2, 50, 64
4, 68352, Note_on_c, 2, 50, 68
4, 68540, Note_off_c, 2, 50, 64
4, 68544, Note_on_c, 2, 50, 68
4, 68732, Note_off_c, 2, 50, 64
4, 69312, Note_on_c, 2, 50, 68
4, 69500, Note_off_c, 2, 50, 64
4, 69504, Note_on_c, 2, 50, 68
4, 69692, Note_off_c, 2, 50, 64
4, 69696, Note_on_c, 2, 50, 68
4, 69884, Note_off_c, 2, 50, 64
4, 74304, Note_on_c, 2, 59, 68
4, 74876, Note_off_c, 2, 59, 64
4, 74880, Note_on_c, 2, 54, 68
4, 75452, Note_off_c, 2, 54, 64
4, 75456, Note_on_c, 2, 55, 68
4, 75836, Note_off_c, 2, 55, 64
4, 75840, Note_on_c, 2, 43, 68
4, 76028, Note_off_c, 2, 43, 64
4, 76032, Note_on_c, 2, 50, 68
4, 76220, Note_off_c, 2, 50, 64
4, 76224, Note_on_c, 2, 62, 68
4, 76316, Note_off_c, 2, 62, 64
4, 76320, Note_on_c, 2, 61, 68
4, 76412, Note_off_c, 2, 61, 64
4, 76416, Note_on_c, 2, 62, 68
4, 76604, Note_off_c, 2, 62, 64
4, 76608, Note_on_c, 2, 43, 89
4, 76700, Note_off_c, 2, 43, 64
4, 76800, Note_on_c, 2, 47, 89
4, 76892, Note_off_c, 2, 47, 64
4, 76992, Note_on_c, 2, 50, 89
4, 77084, Note_off_c, 2, 50, 64
4, 77184, Note_on_c, 2, 55, 89
4, 77372, Note_off_c, 2, 55, 64
4, 77760, Note_on_c, 2, 48, 89
4, 77948, Note_off_c, 2, 48, 64
4, 77952, Note_on_c, 2, 45, 89
4, 78140, Note_off_c, 2, 45, 64
4, 78144, Note_on_c, 2, 48, 89
4, 78332, Note_off_c, 2, 48, 64
4, 78336, Note_on_c, 2, 50, 89
4, 78524, Note_off_c, 2, 50, 64
4, 78912, Note_on_c, 2, 50, 89
4, 78912, Note_on_c, 2, 47, 89
4, 79004, Note_off_c, 2, 50, 64
4, 79004, Note_off_c, 2, 47, 64
4, 79008, Note_on_c, 2, 55, 89
4, 79100, Note_off_c, 2, 55, 64
4, 79104, Note_on_c, 2, 50, 89
4, 79104, Note_on_c, 2, 47, 89
4, 79196, Note_off_c, 2, 50, 64
4, 79196, Note_off_c, 2, 47, 64
4, 79200, Note_on_c, 2, 55, 89
4, 79292, Note_off_c, 2, 55, 64
4, 79296, Note_on_c, 2, 50, 89
4, 79296, Note_on_c, 2, 47, 89
4, 79388, Note_off_c, 2, 50, 64
4, 79388, Note_off_c, 2, 47, 64
4, 79392, Note_on_c, 2, 55, 89
4, 79484, Note_off_c, 2, 55, 64
4, 79488, Note_on_c, 2, 52, 89
4, 79488, Note_on_c, 2, 48, 89
4, 79580, Note_off_c, 2, 52, 64
4, 79580, Note_off_c, 2, 48, 64
4, 79584, Note_on_c, 2, 55, 89
4, 79676, Note_off_c, 2, 55, 64
4, 79680, Note_on_c, 2, 52, 89
4, 79680, Note_on_c, 2, 48, 89
4, 79772, Note_off_c, 2, 52, 64
4, 79772, Note_off_c, 2, 48, 64
4, 79776, Note_on_c, 2, 55, 89
4, 79868, Note_off_c, 2, 55, 64
4, 79872, Note_on_c, 2, 52, 89
4, 79872, Note_on_c, 2, 48, 89
4, 79964, Note_off_c, 2, 52, 64
4, 79964, Note_off_c, 2, 48, 64
4, 79968, Note_on_c, 2, 55, 89
4, 80060, Note_off_c, 2, 55, 64
4, 80064, Note_on_c, 2, 62, 89
4, 80064, Note_on_c, 2, 50, 89
4, 80156, Note_off_c, 2, 62, 64
4, 80156, Note_off_c, 2, 50, 64
4, 80256, Note_on_c, 2, 62, 89
4, 80256, Note_on_c, 2, 50, 89
4, 80348, Note_off_c, 2, 62, 64
4, 80348, Note_off_c, 2, 50, 64
4, 80448, Note_on_c, 2, 62, 89
4, 80448, Note_on_c, 2, 50, 89
4, 80540, Note_off_c, 2, 62, 64
4, 80540, Note_off_c, 2, 50, 64
4, 80640, Note_on_c, 2, 55, 89
4, 80732, Note_off_c, 2, 55, 64
4, 80832, Note_on_c, 2, 59, 89
4, 80924, Note_off_c, 2, 59, 64
4, 81024, Note_on_c, 2, 51, 89
4, 81116, Note_off_c, 2, 51, 64
4, 81216, Note_on_c, 2, 52, 68
4, 81404, Note_off_c, 2, 52, 64
4, 81408, Note_on_c, 2, 64, 68
4, 81596, Note_off_c, 2, 64, 64
4, 81600, Note_on_c, 2, 64, 68
4, 81788, Note_off_c, 2, 64, 64
4, 81792, Note_on_c, 2, 64, 68
4, 81980, Note_off_c, 2, 64, 64
4, 81984, Note_on_c, 2, 64, 68
4, 82172, Note_off_c, 2, 64, 64
4, 82176, Note_on_c, 2, 64, 68
4, 82364, Note_off_c, 2, 64, 64
4, 82368, Note_on_c, 2, 64, 68
4, 82556, Note_off_c, 2, 64, 64
4, 82560, Note_on_c, 2, 64, 68
4, 82748, Note_off_c, 2, 64, 64
4, 82752, Note_on_c, 2, 64, 68
4, 82940, Note_off_c, 2, 64, 64
4, 82944, Note_on_c, 2, 64, 68
4, 83132, Note_off_c, 2, 64, 64
4, 83136, Note_on_c, 2, 64, 68
4, 83324, Note_off_c, 2, 64, 64
4, 83328, Note_on_c, 2, 64, 68
4, 83516, Note_off_c, 2, 64, 64
4, 83520, Note_on_c, 2, 63, 68
4, 83708, Note_off_c, 2, 63, 64
4, 83712, Note_on_c, 2, 63, 68
4, 83900, Note_off_c, 2, 63, 64
4, 83904, Note_on_c, 2, 63, 68
4, 84092, Note_off_c, 2, 63, 64
4, 84096, Note_on_c, 2, 63, 68
4, 84284, Note_off_c, 2, 63, 64
4, 84288, Note_on_c, 2, 63, 68
4, 84476, Note_off_c, 2, 63, 64
4, 84480, Note_on_c, 2, 63, 68
4, 84668, Note_off_c, 2, 63, 64
4, 84672, Note_on_c, 2, 64, 68
4, 84860, Note_off_c, 2, 64, 64
4, 84864, Note_on_c, 2, 64, 68
4, 85052, Note_off_c, 2, 64, 64
4, 85056, Note_on_c, 2, 64, 68
4, 85244, Note_off_c, 2, 64, 64
4, 85248, Note_on_c, 2, 64, 68
4, 85436, Note_off_c, 2, 64, 64
4, 85440, Note_on_c, 2, 64, 68
4, 85628, Note_off_c, 2, 64, 64
4, 85632, Note_on_c, 2, 64, 68
4, 85820, Note_off_c, 2, 64, 64
4, 85824, Note_on_c, 2, 52, 68
4, 86396, Note_off_c, 2, 52, 64
4, 86400, Note_on_c, 2, 50, 68
4, 86972, Note_off_c, 2, 50, 64
4, 86976, Note_on_c, 2, 48, 68
4, 87548, Note_off_c, 2, 48, 64
4, 87552, Note_on_c, 2, 47, 68
4, 88124, Note_off_c, 2, 47, 64
4, 88128, Note_on_c, 2, 46, 68
4, 88700, Note_off_c, 2, 46, 64
4, 88704, Note_on_c, 2, 46, 68
4, 89276, Note_off_c, 2, 46, 64
4, 89280, Note_on_c, 2, 47, 68
4, 89852, Note_off_c, 2, 47, 64
4, 89856, Note_on_c, 2, 35, 68
4, 90044, Note_off_c, 2, 35, 64
4, 91584, Note_on_c, 2, 59, 68
4, 91772, Note_off_c, 2, 59, 64
4, 92160, Note_on_c, 2, 63, 68
4, 92348, Note_off_c, 2, 63, 64
4, 92736, Note_on_c, 2, 64, 68
4, 92924, Note_off_c, 2, 64, 64
4, 92928, Note_on_c, 2, 60, 68
4, 93116, Note_off_c, 2, 60, 64
4, 93120, Note_on_c, 2, 57, 68
4, 93308, Note_off_c, 2, 57, 64
4, 93312, Note_on_c, 2, 59, 68
4, 93500, Note_off_c, 2, 59, 64
4, 93888, Note_on_c, 2, 55, 68
4, 93888, Note_on_c, 2, 52, 68
4, 94076, Note_off_c, 2, 55, 64
4, 94076, Note_off_c, 2, 52, 64
4, 94080, Note_on_c, 2, 57, 68
4, 94080, Note_on_c, 2, 54, 68
4, 94268, Note_off_c, 2, 57, 64
4, 94268, Note_off_c, 2, 54, 64
4, 94272, Note_on_c, 2, 59, 68
4, 94272, Note_on_c, 2, 55, 68
4, 94460, Note_off_c, 2, 59, 64
4, 94460, Note_off_c, 2, 55, 64
4, 94464, Note_on_c, 2, 60, 68
4, 94464, Note_on_c, 2, 57, 68
4, 94652, Note_off_c, 2, 60, 64
4, 94652, Note_off_c, 2, 57, 64
4, 94656, Note_on_c, 2, 60, 68
4, 94844, Note_off_c, 2, 60, 64
4, 94848, Note_on_c, 2, 60, 68
4, 94848, Note_on_c, 2, 57, 68
4, 95036, Note_off_c, 2, 60, 64
4, 95036, Note_off_c, 2, 57, 64
4, 95040, Note_on_c, 2, 59, 68
4, 95228, Note_off_c, 2, 59, 64
4, 95616, Note_on_c, 2, 59, 68
4, 95708, Note_off_c, 2, 59, 64
4, 95712, Note_on_c, 2, 58, 68
4, 95804, Note_off_c, 2, 58, 64
4, 95808, Note_on_c, 2, 59, 68
4, 95900, Note_off_c, 2, 59, 64
4, 95904, Note_on_c, 2, 58, 68
4, 95996, Note_off_c, 2, 58, 64
4, 96000, Note_on_c, 2, 59, 68
4, 96092, Note_off_c, 2, 59, 64
4, 96096, Note_on_c, 2, 58, 68
4, 96188, Note_off_c, 2, 58, 64
4, 96192, Note_on_c, 2, 59, 68
4, 96380, Note_off_c, 2, 59, 64
4, 96768, Note_on_c, 2, 63, 68
4, 96956, Note_off_c, 2, 63, 64
4, 97344, Note_on_c, 2, 64, 68
4, 97532, Note_off_c, 2, 64, 64
4, 97536, Note_on_c, 2, 60, 68
4, 97724, Note_off_c, 2, 60, 64
4, 97728, Note_on_c, 2, 57, 68
4, 97916, Note_off_c, 2, 57, 64
4, 97920, Note_on_c, 2, 59, 68
4, 98108, Note_off_c, 2, 59, 64
4, 98496, Note_on_c, 2, 55, 68
4, 98496, Note_on_c, 2, 52, 68
4, 98684, Note_off_c, 2, 55, 64
4, 98684, Note_off_c, 2, 52, 64
4, 98688, Note_on_c, 2, 57, 68
4, 98688, Note_on_c, 2, 54, 68
4, 98876, Note_off_c, 2, 57, 64
4, 98876, Note_off_c, 2, 54, 64
4, 98880, Note_on_c, 2, 59, 68
4, 98880, Note_on_c, 2, 55, 68
4, 99068, Note_off_c, 2, 59, 64
4, 99068, Note_off_c, 2, 55, 64
4, 99072, Note_on_c, 2, 60, 68
4, 99072, Note_on_c, 2, 57, 68
4, 99260, Note_off_c, 2, 60, 64
4, 99260, Note_off_c, 2, 57, 64
4, 99264, Note_on_c, 2, 60, 68
4, 99452, Note_off_c, 2, 60, 64
4, 99456, Note_on_c, 2, 60, 68
4, 99456, Note_on_c, 2, 57, 68
4, 99644, Note_off_c, 2, 60, 64
4, 99644, Note_off_c, 2, 57, 64
4, 99648, Note_on_c, 2, 59, 68
4, 99836, Note_off_c, 2, 59, 64
4, 122112, Note_on_c, 2, 60, 68
4, 122112, Note_on_c, 2, 48, 68
4, 122204, Note_off_c, 2, 60, 64
4, 122204, Note_off_c, 2, 48, 64
4, 122688, Note_on_c, 2, 59, 68
4, 122688, Note_on_c, 2, 47, 68
4, 122780, Note_off_c, 2, 59, 64
4, 122780, Note_off_c, 2, 47, 64
4, 123264, Note_on_c, 2, 64, 68
4, 123264, Note_on_c, 2, 52, 68
4, 123452, Note_off_c, 2, 64, 64
4, 123452, Note_off_c, 2, 52, 64
4, 123648, Note_on_c, 2, 58, 68
4, 123836, Note_off_c, 2, 58, 64
4, 123840, Note_on_c, 2, 59, 68
4, 124028, Note_off_c, 2, 59, 64
4, 124224, Note_on_c, 2, 63, 68
4, 124412, Note_off_c, 2, 63, 64
4, 124416, Note_on_c, 2, 64, 68
4, 124416, Note_on_c, 2, 52, 68
4, 124604, Note_off_c, 2, 64, 64
4, 124604, Note_off_c, 2, 52, 64
4, 124800, Note_on_c, 2, 58, 68
4, 124988, Note_off_c, 2, 58, 64
4, 124992, Note_on_c, 2, 59, 68
4, 124992, Note_on_c, 2, 47, 68
4, 125180, Note_off_c, 2, 59, 64
4, 125180, Note_off_c, 2, 47, 64
4, 150336, Note_on_c, 2, 55, 68
4, 150428, Note_off_c, 2, 55, 64
4, 150528, Note_on_c, 2, 59, 68
4, 150620, Note_off_c, 2, 59, 64
4, 150720, Note_on_c, 2, 62, 68
4, 150812, Note_off_c, 2, 62, 64
4, 150912, Note_on_c, 2, 55, 68
4, 151100, Note_off_c, 2, 55, 64
4, 151488, Note_on_c, 2, 60, 68
4, 151580, Note_off_c, 2, 60, 64
4, 151680, Note_on_c, 2, 57, 68
4, 151772, Note_off_c, 2, 57, 64
4, 151872, Note_on_c, 2, 60, 68
4, 151964, Note_off_c, 2, 60, 64
4, 152064, Note_on_c, 2, 62, 68
4, 152252, Note_off_c, 2, 62, 64
4, 152640, Note_on_c, 2, 59, 68
4, 153212, Note_off_c, 2, 59, 64
4, 153216, Note_on_c, 2, 54, 68
4, 153788, Note_off_c, 2, 54, 64
4, 153792, Note_on_c, 2, 55, 68
4, 154172, Note_off_c, 2, 55, 64
4, 154176, Note_on_c, 2, 43, 68
4, 154364, Note_off_c, 2, 43, 64
4, 154368, Note_on_c, 2, 50, 68
4, 154556, Note_off_c, 2, 50, 64
4, 154560, Note_on_c, 2, 62, 68
4, 154652, Note_off_c, 2, 62, 64
4, 154656, Note_on_c, 2, 61, 68
4, 154748, Note_off_c, 2, 61, 64
4, 154752, Note_on_c, 2, 62, 68
4, 154940, Note_off_c, 2, 62, 64
4, 154944, Note_on_c, 2, 55, 68
4, 155036, Note_off_c, 2, 55, 64
4, 155136, Note_on_c, 2, 59, 68
4, 155228, Note_off_c, 2, 59, 64
4, 155328, Note_on_c, 2, 62, 68
4, 155420, Note_off_c, 2, 62, 64
4, 155520, Note_on_c, 2, 55, 68
4, 155708, Note_off_c, 2, 55, 64
4, 156288, Note_on_c, 2, 57, 68
4, 156380, Note_off_c, 2, 57, 64
4, 156480, Note_on_c, 2, 60, 68
4, 156572, Note_off_c, 2, 60, 64
4, 156672, Note_on_c, 2, 62, 68
4, 156860, Note_off_c, 2, 62, 64
4, 157248, Note_on_c, 2, 67, 68
4, 157436, Note_off_c, 2, 67, 64
4, 157632, Note_on_c, 2, 59, 68
4, 157820, Note_off_c, 2, 59, 64
4, 157824, Note_on_c, 2, 60, 68
4, 158012, Note_off_c, 2, 60, 64
4, 158208, Note_on_c, 2, 64, 68
4, 158396, Note_off_c, 2, 64, 64
4, 158400, Note_on_c, 2, 62, 68
4, 158588, Note_off_c, 2, 62, 64
4, 158784, Note_on_c, 2, 62, 68
4, 158972, Note_off_c, 2, 62, 64
4, 158976, Note_on_c, 2, 55, 68
4, 159164, Note_off_c, 2, 55, 64
4, 159552, Note_on_c, 2, 50, 89
4, 159644, Note_off_c, 2, 50, 64
4, 159648, Note_on_c, 2, 62, 89
4, 159740, Note_off_c, 2, 62, 64
4, 159744, Note_on_c, 2, 50, 89
4, 159836, Note_off_c, 2, 50, 64
4, 159840, Note_on_c, 2, 62, 89
4, 159932, Note_off_c, 2, 62, 64
4, 159936, Note_on_c, 2, 50, 89
4, 160028, Note_off_c, 2, 50, 64
4, 160032, Note_on_c, 2, 62, 89
4, 160124, Note_off_c, 2, 62, 64
4, 160128, Note_on_c, 2, 50, 89
4, 160220, Note_off_c, 2, 50, 64
4, 160224, Note_on_c, 2, 62, 89
4, 160316, Note_off_c, 2, 62, 64
4, 160320, Note_on_c, 2, 50, 89
4, 160412, Note_off_c, 2, 50, 64
4, 160416, Note_on_c, 2, 62, 89
4, 160508, Note_off_c, 2, 62, 64
4, 160512, Note_on_c, 2, 50, 89
4, 160604, Note_off_c, 2, 50, 64
4, 160608, Note_on_c, 2, 62, 89
4, 160700, Note_off_c, 2, 62, 64
4, 160704, Note_on_c, 2, 50, 89
4, 160796, Note_off_c, 2, 50, 64
4, 160800, Note_on_c, 2, 62, 89
4, 160892, Note_off_c, 2, 62, 64
4, 160896, Note_on_c, 2, 50, 89
4, 160988, Note_off_c, 2, 50, 64
4, 160992, Note_on_c, 2, 62, 89
4, 161084, Note_off_c, 2, 62, 64
4, 161088, Note_on_c, 2, 50, 89
4, 161180, Note_off_c, 2, 50, 64
4, 161184, Note_on_c, 2, 62, 89
4, 161276, Note_off_c, 2, 62, 64
4, 161280, Note_on_c, 2, 62, 89
4, 161372, Note_off_c, 2, 62, 64
4, 161376, Note_on_c, 2, 61, 89
4, 161468, Note_off_c, 2, 61, 64
4, 161472, Note_on_c, 2, 62, 89
4, 161564, Note_off_c, 2, 62, 64
4, 161568, Note_on_c, 2, 61, 89
4, 161660, Note_off_c, 2, 61, 64
4, 161664, Note_on_c, 2, 62, 89
4, 161756, Note_off_c, 2, 62, 64
4, 161856, Note_on_c, 2, 50, 89
4, 161948, Note_off_c, 2, 50, 64
4, 161952, Note_on_c, 2, 62, 89
4, 162044, Note_off_c, 2, 62, 64
4, 162048, Note_on_c, 2, 50, 89
4, 162140, Note_off_c, 2, 50, 64
4, 162144, Note_on_c, 2, 62, 89
4, 162236, Note_off_c, 2, 62, 64
4, 162240, Note_on_c, 2, 50, 89
4, 162332, Note_off_c, 2, 50, 64
4, 162336, Note_on_c, 2, 62, 89
4, 162428, Note_off_c, 2, 62, 64
4, 162432, Note_on_c, 2, 50, 89
4, 162524, Note_off_c, 2, 50, 64
4, 162528, Note_on_c, 2, 62, 89
4, 162620, Note_off_c, 2, 62, 64
4, 162624, Note_on_c, 2, 50, 89
4, 162716, Note_off_c, 2, 50, 64
4, 162720, Note_on_c, 2, 62, 89
4, 162812, Note_off_c, 2, 62, 64
4, 162816, Note_on_c, 2, 50, 89
4, 162908, Note_off_c, 2, 50, 64
4, 162912, Note_on_c, 2, 62, 89
4, 163004, Note_off_c, 2, 62, 64
4, 163008, Note_on_c, 2, 50, 89
4, 163100, Note_off_c, 2, 50, 64
4, 163104, Note_on_c, 2, 62, 89
4, 163196, Note_off_c, 2, 62, 64
4, 163200, Note_on_c, 2, 50, 89
4, 163292, Note_off_c, 2, 50, 64
4, 163296, Note_on_c, 2, 62, 89
4, 163388, Note_off_c, 2, 62, 64
4, 163392, Note_on_c, 2, 50, 89
4, 163484, Note_off_c, 2, 50, 64
4, 163488, Note_on_c, 2, 62, 89
4, 163580, Note_off_c, 2, 62, 64
4, 163584, Note_on_c, 2, 55, 89
4, 163676, Note_off_c, 2, 55, 64
4, 163680, Note_on_c, 2, 54, 89
4, 163772, Note_off_c, 2, 54, 64
4, 163776, Note_on_c, 2, 55, 89
4, 163868, Note_off_c, 2, 55, 64
4, 163872, Note_on_c, 2, 54, 89
4, 163964, Note_off_c, 2, 54, 64
4, 163968, Note_on_c, 2, 55, 89
4, 164060, Note_off_c, 2, 55, 64
4, 164160, Note_on_c, 2, 67, 89
4, 164252, Note_off_c, 2, 67, 64
4, 164256, Note_on_c, 2, 66, 89
4, 164348, Note_off_c, 2, 66, 64
4, 164352, Note_on_c, 2, 64, 89
4, 164444, Note_off_c, 2, 64, 64
4, 164448, Note_on_c, 2, 62, 89
4, 164540, Note_off_c, 2, 62, 64
4, 164544, Note_on_c, 2, 60, 89
4, 164636, Note_off_c, 2, 60, 64
4, 164640, Note_on_c, 2, 59, 89
4, 164732, Note_off_c, 2, 59, 64
4, 164736, Note_on_c, 2, 64, 89
4, 164828, Note_off_c, 2, 64, 64
4, 164832, Note_on_c, 2, 62, 89
4, 164924, Note_off_c, 2, 62, 64
4, 164928, Note_on_c, 2, 60, 89
4, 165020, Note_off_c, 2, 60, 64
4, 165024, Note_on_c, 2, 59, 89
4, 165116, Note_off_c, 2, 59, 64
4, 165120, Note_on_c, 2, 57, 89
4, 165212, Note_off_c, 2, 57, 64
4, 165216, Note_on_c, 2, 56, 89
4, 165308, Note_off_c, 2, 56, 64
4, 165312, Note_on_c, 2, 60, 89
4, 165404, Note_off_c, 2, 60, 64
4, 165408, Note_on_c, 2, 59, 89
4, 165500, Note_off_c, 2, 59, 64
4, 165504, Note_on_c, 2, 57, 89
4, 165596, Note_off_c, 2, 57, 64
4, 165600, Note_on_c, 2, 55, 89
4, 165692, Note_off_c, 2, 55, 64
4, 165696, Note_on_c, 2, 54, 89
4, 165788, Note_off_c, 2, 54, 64
4, 165792, Note_on_c, 2, 52, 89
4, 165884, Note_off_c, 2, 52, 64
4, 165888, Note_on_c, 2, 50, 89
4, 165980, Note_off_c, 2, 50, 64
4, 165984, Note_on_c, 2, 54, 89
4, 166076, Note_off_c, 2, 54, 64
4, 166080, Note_on_c, 2, 55, 89
4, 166172, Note_off_c, 2, 55, 64
4, 166176, Note_on_c, 2, 57, 89
4, 166268, Note_off_c, 2, 57, 64
4, 166272, Note_on_c, 2, 59, 89
4, 166364, Note_off_c, 2, 59, 64
4, 166368, Note_on_c, 2, 61, 89
4, 166460, Note_off_c, 2, 61, 64
4, 166464, Note_on_c, 2, 62, 89
4, 166556, Note_off_c, 2, 62, 64
4, 166560, Note_on_c, 2, 61, 89
4, 166652, Note_off_c, 2, 61, 64
4, 166656, Note_on_c, 2, 62, 89
4, 166748, Note_off_c, 2, 62, 64
4, 166752, Note_on_c, 2, 61, 89
4, 166844, Note_off_c, 2, 61, 64
4, 166848, Note_on_c, 2, 62, 89
4, 166940, Note_off_c, 2, 62, 64
4, 166944, Note_on_c, 2, 61, 89
4, 167036, Note_off_c, 2, 61, 64
4, 167040, Note_on_c, 2, 62, 89
4, 167132, Note_off_c, 2, 62, 64
4, 167136, Note_on_c, 2, 61, 89
4, 167228, Note_off_c, 2, 61, 64
4, 167232, Note_on_c, 2, 62, 89
4, 167324, Note_off_c, 2, 62, 64
4, 167328, Note_on_c, 2, 61, 89
4, 167420, Note_off_c, 2, 61, 64
4, 167424, Note_on_c, 2, 62, 89
4, 167516, Note_off_c, 2, 62, 64
4, 167520, Note_on_c, 2, 61, 89
4, 167612, Note_off_c, 2, 61, 64
4, 167616, Note_on_c, 2, 62, 89
4, 167804, Note_off_c, 2, 62, 64
4, 168192, Note_on_c, 2, 62, 89
4, 168192, Note_on_c, 2, 50, 89
4, 168380, Note_off_c, 2, 62, 64
4, 168380, Note_off_c, 2, 50, 64
4, 168768, Note_on_c, 2, 50, 89
4, 168768, Note_on_c, 2, 38, 89
4, 168956, Note_off_c, 2, 50, 64
4, 168956, Note_off_c, 2, 38, 64
4, 169920, Note_on_c, 2, 43, 68
4, 170040, Note_off_c, 2, 43, 64
4, 170688, Note_on_c, 2, 55, 68
4, 170808, Note_off_c, 2, 55, 64
4, 171456, Note_on_c, 2, 51, 68
4, 171576, Note_off_c, 2, 51, 64
4, 172224, Note_on_c, 2, 53, 68
4, 172344, Note_off_c, 2, 53, 64
4, 172992, Note_on_c, 2, 50, 68
4, 173112, Note_off_c, 2, 50, 64
4, 173760, Note_on_c, 2, 51, 68
4, 173880, Note_off_c, 2, 51, 64
4, 174528, Note_on_c, 2, 48, 68
4, 174648, Note_off_c, 2, 48, 64
4, 175296, Note_on_c, 2, 50, 68
4, 175416, Note_off_c, 2, 50, 64
4, 176064, Note_on_c, 2, 43, 68
4, 176184, Note_off_c, 2, 43, 64
4, 176832, Note_on_c, 2, 55, 68
4, 176952, Note_off_c, 2, 55, 64
4, 177600, Note_on_c, 2, 51, 68
4, 177720, Note_off_c, 2, 51, 64
4, 178368, Note_on_c, 2, 53, 68
4, 178488, Note_off_c, 2, 53, 64
4, 179136, Note_on_c, 2, 50, 68
4, 179256, Note_off_c, 2, 50, 64
4, 179904, Note_on_c, 2, 51, 68
4, 180024, Note_off_c, 2, 51, 64
4, 180672, Note_on_c, 2, 48, 68
4, 180792, Note_off_c, 2, 48, 64
4, 181440, Note_on_c, 2, 50, 68
4, 181560, Note_off_c, 2, 50, 64
4, 182208, Note_on_c, 2, 43, 68
4, 182328, Note_off_c, 2, 43, 64
4, 183744, Note_on_c, 2, 50, 68
4, 183864, Note_off_c, 2, 50, 64
4, 185280, Note_on_c, 2, 55, 68
4, 185400, Note_off_c, 2, 55, 64
4, 186816, Note_on_c, 2, 50, 68
4, 186936, Note_off_c, 2, 50, 64
4, 189888, Note_on_c, 2, 55, 68
4, 190268, Note_off_c, 2, 55, 64
4, 191424, Note_on_c, 2, 43, 68
4, 191804, Note_off_c, 2, 43, 64
4, 192576, Note_on_c, 2, 52, 68
4, 192956, Note_off_c, 2, 52, 64
4, 192960, Note_on_c, 2, 48, 68
4, 193144, Note_off_c, 2, 48, 64
4, 193344, Note_on_c, 2, 45, 68
4, 193528, Note_off_c, 2, 45, 64
4, 193728, Note_on_c, 2, 50, 68
4, 193912, Note_off_c, 2, 50, 64
4, 194112, Note_on_c, 2, 50, 68
4, 194296, Note_off_c, 2, 50, 64
4, 194496, Note_on_c, 2, 55, 68
4, 194684, Note_off_c, 2, 55, 64
4, 194688, Note_on_c, 2, 57, 68
4, 194876, Note_off_c, 2, 57, 64
4, 194880, Note_on_c, 2, 59, 68
4, 195068, Note_off_c, 2, 59, 64
4, 195072, Note_on_c, 2, 60, 68
4, 195260, Note_off_c, 2, 60, 64
4, 195264, Note_on_c, 2, 59, 68
4, 195644, Note_off_c, 2, 59, 64
4, 196032, Note_on_c, 2, 55, 89
4, 196796, Note_off_c, 2, 55, 64
4, 197184, Note_on_c, 2, 50, 89
4, 197564, Note_off_c, 2, 50, 64
4, 197568, Note_on_c, 2, 43, 89
4, 198332, Note_off_c, 2, 43, 64
4, 198720, Note_on_c, 2, 47, 89
4, 199100, Note_off_c, 2, 47, 64
4, 199104, Note_on_c, 2, 50, 89
4, 199484, Note_off_c, 2, 50, 64
4, 199488, Note_on_c, 2, 45, 89
4, 199868, Note_off_c, 2, 45, 64
4, 199872, Note_on_c, 2, 50, 89
4, 200252, Note_off_c, 2, 50, 64
4, 200256, Note_on_c, 2, 50, 89
4, 200636, Note_off_c, 2, 50, 64
4, 200640, Note_on_c, 2, 43, 89
4, 201020, Note_off_c, 2, 43, 64
4, 201024, Note_on_c, 2, 55, 89
4, 201404, Note_off_c, 2, 55, 64
4, 201408, Note_on_c, 2, 43, 89
4, 201596, Note_off_c, 2, 43, 64
4, 201600, Note_on_c, 2, 54, 68
4, 201788, Note_off_c, 2, 54, 64
4, 201792, Note_on_c, 2, 55, 68
4, 201980, Note_off_c, 2, 55, 64
4, 201984, Note_on_c, 2, 57, 68
4, 202172, Note_off_c, 2, 57, 64
4, 202176, Note_on_c, 2, 55, 68
4, 202176, Note_on_c, 2, 59, 68
4, 202364, Note_off_c, 2, 55, 64
4, 202940, Note_off_c, 2, 59, 64
4, 202944, Note_on_c, 2, 59, 68
4, 202944, Note_on_c, 2, 50, 68
4, 203132, Note_off_c, 2, 59, 64
4, 203132, Note_off_c, 2, 50, 64
4, 203136, Note_on_c, 2, 60, 68
4, 203324, Note_off_c, 2, 60, 64
4, 203328, Note_on_c, 2, 59, 68
4, 203516, Note_off_c, 2, 59, 64
4, 203520, Note_on_c, 2, 57, 68
4, 203708, Note_off_c, 2, 57, 64
4, 203712, Note_on_c, 2, 55, 68
4, 203712, Note_on_c, 2, 43, 68
4, 203900, Note_off_c, 2, 43, 64
4, 204092, Note_off_c, 2, 55, 64
4, 204096, Note_on_c, 2, 54, 68
4, 204476, Note_off_c, 2, 54, 64
4, 204480, Note_on_c, 2, 55, 68
4, 204860, Note_off_c, 2, 55, 64
4, 204864, Note_on_c, 2, 57, 68
4, 205244, Note_off_c, 2, 57, 64
4, 205248, Note_on_c, 2, 55, 68
4, 205248, Note_on_c, 2, 59, 68
4, 205436, Note_off_c, 2, 55, 64
4, 206012, Note_off_c, 2, 59, 64
4, 206016, Note_on_c, 2, 59, 68
4, 206016, Note_on_c, 2, 50, 68
4, 206192, Note_on_c, 2, 60, 68
4, 206204, Note_off_c, 2, 59, 64
4, 206204, Note_off_c, 2, 50, 64
4, 206380, Note_off_c, 2, 60, 64
4, 206400, Note_on_c, 2, 59, 68
4, 206588, Note_off_c, 2, 59, 64
4, 206592, Note_on_c, 2, 57, 68
4, 206780, Note_off_c, 2, 57, 64
4, 206784, Note_on_c, 2, 57, 68
4, 206784, Note_on_c, 2, 43, 68
4, 206972, Note_off_c, 2, 43, 64
4, 207168, Note_on_c, 2, 50, 68
4, 207356, Note_off_c, 2, 50, 64
4, 207536, Note_on_c, 2, 55, 68
4, 207548, Note_off_c, 2, 57, 64
4, 207552, Note_on_c, 2, 55, 68
4, 207724, Note_off_c, 2, 55, 64
4, 207932, Note_off_c, 2, 55, 64
4, 208320, Note_on_c, 2, 57, 89
4, 209084, Note_off_c, 2, 57, 64
4, 209472, Note_on_c, 2, 50, 89
4, 209852, Note_off_c, 2, 50, 64
4, 209856, Note_on_c, 2, 43, 89
4, 210620, Note_off_c, 2, 43, 64
4, 211008, Note_on_c, 2, 47, 89
4, 211388, Note_off_c, 2, 47, 64
4, 211392, Note_on_c, 2, 48, 89
4, 211772, Note_off_c, 2, 48, 64
4, 211776, Note_on_c, 2, 45, 89
4, 212156, Note_off_c, 2, 45, 64
4, 212160, Note_on_c, 2, 50, 89
4, 212540, Note_off_c, 2, 50, 64
4, 212544, Note_on_c, 2, 50, 89
4, 212924, Note_off_c, 2, 50, 64
4, 212928, Note_on_c, 2, 43, 89
4, 213308, Note_off_c, 2, 43, 64
4, 213312, Note_on_c, 2, 55, 89
4, 213692, Note_off_c, 2, 55, 64
4, 213696, Note_on_c, 2, 43, 89
4, 213884, Note_off_c, 2, 43, 64
4, 213888, Note_on_c, 2, 54, 68
4, 214076, Note_off_c, 2, 54, 64
4, 214080, Note_on_c, 2, 55, 68
4, 214268, Note_off_c, 2, 55, 64
4, 214272, Note_on_c, 2, 57, 68
4, 214460, Note_off_c, 2, 57, 64
4, 214464, Note_on_c, 2, 55, 68
4, 214464, Note_on_c, 2, 59, 68
4, 214652, Note_off_c, 2, 55, 64
4, 215228, Note_off_c, 2, 59, 64
4, 215232, Note_on_c, 2, 59, 68
4, 215232, Note_on_c, 2, 50, 68
4, 215420, Note_off_c, 2, 59, 64
4, 215420, Note_off_c, 2, 50, 64
4, 215424, Note_on_c, 2, 60, 68
4, 215612, Note_off_c, 2, 60, 64
4, 215616, Note_on_c, 2, 59, 68
4, 215804, Note_off_c, 2, 59, 64
4, 215808, Note_on_c, 2, 57, 68
4, 215996, Note_off_c, 2, 57, 64
4, 216000, Note_on_c, 2, 55, 68
4, 216000, Note_on_c, 2, 43, 68
4, 216188, Note_off_c, 2, 43, 64
4, 216380, Note_off_c, 2, 55, 64
4, 216384, Note_on_c, 2, 54, 68
4, 216764, Note_off_c, 2, 54, 64
4, 216768, Note_on_c, 2, 55, 68
4, 217148, Note_off_c, 2, 55, 64
4, 217152, Note_on_c, 2, 57, 68
4, 217532, Note_off_c, 2, 57, 64
4, 217536, Note_on_c, 2, 55, 68
4, 217536, Note_on_c, 2, 59, 68
4, 217724, Note_off_c, 2, 55, 64
4, 218300, Note_off_c, 2, 59, 64
4, 218304, Note_on_c, 2, 50, 68
4, 218304, Note_on_c, 2, 59, 68
4, 218492, Note_off_c, 2, 50, 64
4, 218492, Note_off_c, 2, 59, 64
4, 218496, Note_on_c, 2, 60, 68
4, 218684, Note_off_c, 2, 60, 64
4, 218688, Note_on_c, 2, 59, 68
4, 218876, Note_off_c, 2, 59, 64
4, 218880, Note_on_c, 2, 57, 68
4, 219068, Note_off_c, 2, 57, 64
4, 219072, Note_on_c, 2, 57, 68
4, 219072, Note_on_c, 2, 43, 68
4, 219260, Note_off_c, 2, 43, 64
4, 219456, Note_on_c, 2, 50, 68
4, 219644, Note_off_c, 2, 50, 64
4, 219824, Note_on_c, 2, 55, 68
4, 219836, Note_off_c, 2, 57, 64
4, 219840, Note_on_c, 2, 55, 68
4, 220012, Note_off_c, 2, 55, 64
4, 220220, Note_off_c, 2, 55, 64
4, 220608, Note_on_c, 2, 55, 89
4, 221372, Note_off_c, 2, 55, 64
4, 221760, Note_on_c, 2, 50, 89
4, 222140, Note_off_c, 2, 50, 64
4, 222144, Note_on_c, 2, 43, 89
4, 222908, Note_off_c, 2, 43, 64
4, 223296, Note_on_c, 2, 47, 89
4, 223676, Note_off_c, 2, 47, 64
4, 223680, Note_on_c, 2, 48, 89
4, 224060, Note_off_c, 2, 48, 64
4, 224064, Note_on_c, 2, 45, 89
4, 224444, Note_off_c, 2, 45, 64
4, 224448, Note_on_c, 2, 50, 89
4, 224828, Note_off_c, 2, 50, 64
4, 224832, Note_on_c, 2, 50, 89
4, 225212, Note_off_c, 2, 50, 64
4, 225216, Note_on_c, 2, 50, 89
4, 225596, Note_off_c, 2, 50, 64
4, 225600, Note_on_c, 2, 50, 89
4, 225980, Note_off_c, 2, 50, 64
4, 225984, Note_on_c, 2, 43, 89
4, 226364, Note_off_c, 2, 43, 64
4, 228288, Note_on_c, 2, 43, 68
4, 228476, Note_off_c, 2, 43, 64
4, 229056, Note_on_c, 2, 43, 68
4, 229244, Note_off_c, 2, 43, 64
4, 229248, Note_on_c, 2, 43, 68
4, 229436, Note_off_c, 2, 43, 64
4, 229440, Note_on_c, 2, 43, 68
4, 229628, Note_off_c, 2, 43, 64
4, 230208, Note_on_c, 2, 62, 68
4, 230208, Note_on_c, 2, 55, 68
4, 230396, Note_off_c, 2, 62, 64
4, 230396, Note_off_c, 2, 55, 64
4, 230400, Note_on_c, 2, 62, 68
4, 230400, Note_on_c, 2, 55, 68
4, 230588, Note_off_c, 2, 62, 64
4, 230588, Note_off_c, 2, 55, 64
4, 230592, Note_on_c, 2, 62, 68
4, 230592, Note_on_c, 2, 55, 68
4, 232892, Note_off_c, 2, 55, 64
4, 232892, Note_off_c, 2, 62, 64
4, 232896, Note_on_c, 2, 55, 68
4, 232896, Note_on_c, 2, 62, 68
4, 233084, Note_off_c, 2, 55, 64
4, 233084, Note_off_c, 2, 62, 64
4, 233088, Note_on_c, 2, 55, 68
4, 233088, Note_on_c, 2, 62, 68
4, 233276, Note_off_c, 2, 55, 64
4, 233276, Note_off_c, 2, 62, 64
4, 233280, Note_on_c, 2, 55, 68
4, 233280, Note_on_c, 2, 62, 68
4, 233468, Note_off_c, 2, 55, 64
4, 233468, Note_off_c, 2, 62, 64
4, 233472, Note_on_c, 2, 59, 68
4, 233660, Note_off_c, 2, 59, 64
4, 233664, Note_on_c, 2, 59, 68
4, 233852, Note_off_c, 2, 59, 64
4, 233856, Note_on_c, 2, 59, 68
4, 234044, Note_off_c, 2, 59, 64
4, 234048, Note_on_c, 2, 60, 68
4, 234236, Note_off_c, 2, 60, 64
4, 234240, Note_on_c, 2, 60, 68
4, 234428, Note_off_c, 2, 60, 64
4, 234432, Note_on_c, 2, 60, 68
4, 234620, Note_off_c, 2, 60, 64
4, 234624, Note_on_c, 2, 60, 68
4, 234716, Note_off_c, 2, 60, 64
4, 234720, Note_on_c, 2, 59, 68
4, 234812, Note_off_c, 2, 59, 64
4, 234816, Note_on_c, 2, 60, 68
4, 234908, Note_off_c, 2, 60, 64
4, 234912, Note_on_c, 2, 59, 68
4, 235004, Note_off_c, 2, 59, 64
4, 235008, Note_on_c, 2, 60, 68
4, 235100, Note_off_c, 2, 60, 64
4, 235200, Note_on_c, 2, 56, 68
4, 235388, Note_off_c, 2, 56, 64
4, 235392, Note_on_c, 2, 56, 68
4, 235580, Note_off_c, 2, 56, 64
4, 235584, Note_on_c, 2, 56, 68
4, 235772, Note_off_c, 2, 56, 64
4, 235776, Note_on_c, 2, 52, 68
4, 235964, Note_off_c, 2, 52, 64
4, 235968, Note_on_c, 2, 52, 68
4, 236156, Note_off_c, 2, 52, 64
4, 236160, Note_on_c, 2, 52, 68
4, 236348, Note_off_c, 2, 52, 64
4, 236352, Note_on_c, 2, 45, 68
4, 236540, Note_off_c, 2, 45, 64
4, 236544, Note_on_c, 2, 45, 68
4, 236732, Note_off_c, 2, 45, 64
4, 236736, Note_on_c, 2, 57, 68
4, 236924, Note_off_c, 2, 57, 64
4, 236928, Note_on_c, 2, 57, 68
4, 237020, Note_off_c, 2, 57, 64
4, 237024, Note_on_c, 2, 56, 68
4, 237116, Note_off_c, 2, 56, 64
4, 237120, Note_on_c, 2, 57, 68
4, 237212, Note_off_c, 2, 57, 64
4, 237216, Note_on_c, 2, 56, 68
4, 237308, Note_off_c, 2, 56, 64
4, 237312, Note_on_c, 2, 57, 68
4, 237404, Note_off_c, 2, 57, 64
4, 237504, Note_on_c, 2, 57, 68
4, 237692, Note_off_c, 2, 57, 64
4, 237696, Note_on_c, 2, 57, 68
4, 237884, Note_off_c, 2, 57, 64
4, 237888, Note_on_c, 2, 57, 68
4, 238076, Note_off_c, 2, 57, 64
4, 238080, Note_on_c, 2, 62, 68
4, 238268, Note_off_c, 2, 62, 64
4, 238272, Note_on_c, 2, 62, 68
4, 238460, Note_off_c, 2, 62, 64
4, 238464, Note_on_c, 2, 62, 68
4, 238652, Note_off_c, 2, 62, 64
4, 238656, Note_on_c, 2, 59, 68
4, 238844, Note_off_c, 2, 59, 64
4, 238848, Note_on_c, 2, 59, 68
4, 239036, Note_off_c, 2, 59, 64
4, 239040, Note_on_c, 2, 59, 68
4, 239228, Note_off_c, 2, 59, 64
4, 239232, Note_on_c, 2, 64, 68
4, 239420, Note_off_c, 2, 64, 64
4, 239424, Note_on_c, 2, 64, 68
4, 239612, Note_off_c, 2, 64, 64
4, 239616, Note_on_c, 2, 64, 68
4, 239804, Note_off_c, 2, 64, 64
4, 240960, Note_on_c, 2, 62, 68
4, 241148, Note_off_c, 2, 62, 64
4, 241152, Note_on_c, 2, 50, 68
4, 241340, Note_off_c, 2, 50, 64
4, 241344, Note_on_c, 2, 62, 68
4, 241532, Note_off_c, 2, 62, 64
4, 241536, Note_on_c, 2, 50, 89
4, 241628, Note_off_c, 2, 50, 64
4, 241632, Note_on_c, 2, 49, 89
4, 241724, Note_off_c, 2, 49, 64
4, 241728, Note_on_c, 2, 50, 89
4, 241820, Note_off_c, 2, 50, 64
4, 241824, Note_on_c, 2, 49, 89
4, 241916, Note_off_c, 2, 49, 64
4, 241920, Note_on_c, 2, 50, 89
4, 242012, Note_off_c, 2, 50, 64
4, 242112, Note_on_c, 2, 55, 68
4, 242204, Note_off_c, 2, 55, 64
4, 242304, Note_on_c, 2, 58, 68
4, 242396, Note_off_c, 2, 58, 64
4, 242496, Note_on_c, 2, 62, 68
4, 242588, Note_off_c, 2, 62, 64
4, 242688, Note_on_c, 2, 55, 68
4, 242780, Note_off_c, 2, 55, 64
4, 243264, Note_on_c, 2, 60, 68
4, 243356, Note_off_c, 2, 60, 64
4, 243456, Note_on_c, 2, 57, 68
4, 243548, Note_off_c, 2, 57, 64
4, 243648, Note_on_c, 2, 60, 68
4, 243740, Note_off_c, 2, 60, 64
4, 243840, Note_on_c, 2, 62, 68
4, 243932, Note_off_c, 2, 62, 64
4, 244416, Note_on_c, 2, 43, 89
4, 244508, Note_off_c, 2, 43, 64
4, 244608, Note_on_c, 2, 47, 89
4, 244700, Note_off_c, 2, 47, 64
4, 244800, Note_on_c, 2, 50, 89
4, 244892, Note_off_c, 2, 50, 64
4, 244992, Note_on_c, 2, 55, 89
4, 245180, Note_off_c, 2, 55, 64
4, 245568, Note_on_c, 2, 48, 89
4, 245756, Note_off_c, 2, 48, 64
4, 245760, Note_on_c, 2, 45, 89
4, 245948, Note_off_c, 2, 45, 64
4, 245952, Note_on_c, 2, 48, 89
4, 246140, Note_off_c, 2, 48, 64
4, 246144, Note_on_c, 2, 50, 89
4, 246332, Note_off_c, 2, 50, 64
4, 248448, Note_on_c, 2, 62, 68
4, 248636, Note_off_c, 2, 62, 64
4, 248640, Note_on_c, 2, 62, 68
4, 248828, Note_off_c, 2, 62, 64
4, 248832, Note_on_c, 2, 62, 68
4, 249020, Note_off_c, 2, 62, 64
4, 249024, Note_on_c, 2, 55, 68
4, 249212, Note_off_c, 2, 55, 64
4, 250752, Note_on_c, 2, 62, 68
4, 250940, Note_off_c, 2, 62, 64
4, 250944, Note_on_c, 2, 62, 68
4, 251132, Note_off_c, 2, 62, 64
4, 251136, Note_on_c, 2, 62, 68
4, 251324, Note_off_c, 2, 62, 64
4, 251328, Note_on_c, 2, 55, 68
4, 251516, Note_off_c, 2, 55, 64
4, 253632, Note_on_c, 2, 48, 68
4, 254204, Note_off_c, 2, 48, 64
4, 254208, Note_on_c, 2, 49, 68
4, 254780, Note_off_c, 2, 49, 64
4, 254784, Note_on_c, 2, 50, 68
4, 254972, Note_off_c, 2, 50, 64
4, 255360, Note_on_c, 2, 38, 68
4, 255548, Note_off_c, 2, 38, 64
4, 255936, Note_on_c, 2, 43, 68
4, 256124, Note_off_c, 2, 43, 64
4, 258240, Note_on_c, 2, 60, 68
4, 258812, Note_off_c, 2, 60, 64
4, 258816, Note_on_c, 2, 61, 68
4, 259388, Note_off_c, 2, 61, 64
4, 259392, Note_on_c, 2, 62, 68
4, 259580, Note_off_c, 2, 62, 64
4, 259968, Note_on_c, 2, 50, 68
4, 260156, Note_off_c, 2, 50, 64
4, 260544, Note_on_c, 2, 55, 68
4, 260732, Note_off_c, 2, 55, 64
4, 262272, Note_on_c, 2, 62, 68
4, 262848, Note_on_c, 2, 55, 68
4, 263036, Note_off_c, 2, 62, 64
4, 263036, Note_off_c, 2, 55, 64
4, 264576, Note_on_c, 2, 59, 68
4, 265152, Note_on_c, 2, 52, 68
4, 265340, Note_off_c, 2, 59, 64
4, 265340, Note_off_c, 2, 52, 64
4, 266880, Note_on_c, 2, 57, 68
4, 267456, Note_on_c, 2, 50, 68
4, 267644, Note_off_c, 2, 57, 64
4, 267644, Note_off_c, 2, 50, 64
4, 268224, Note_on_c, 2, 57, 68
4, 268224, Note_on_c, 2, 45, 68
4, 268412, Note_off_c, 2, 57, 64
4, 268412, Note_off_c, 2, 45, 64
4, 268416, Note_on_c, 2, 55, 68
4, 268416, Note_on_c, 2, 45, 68
4, 268604, Note_off_c, 2, 55, 64
4, 268604, Note_off_c, 2, 45, 64
4, 268608, Note_on_c, 2, 54, 68
4, 268608, Note_on_c, 2, 50, 68
4, 268700, Note_off_c, 2, 54, 64
4, 268700, Note_off_c, 2, 50, 64
4, 269376, Note_on_c, 2, 57, 68
4, 269376, Note_on_c, 2, 45, 68
4, 269468, Note_off_c, 2, 57, 64
4, 269468, Note_off_c, 2, 45, 64
4, 269568, Note_on_c, 2, 55, 68
4, 269568, Note_on_c, 2, 45, 68
4, 269756, Note_off_c, 2, 55, 64
4, 269756, Note_off_c, 2, 45, 64
4, 269760, Note_on_c, 2, 54, 68
4, 269760, Note_on_c, 2, 50, 68
4, 269948, Note_off_c, 2, 54, 64
4, 269948, Note_off_c, 2, 50, 64
4, 274368, Note_on_c, 2, 50, 68
4, 274556, Note_off_c, 2, 50, 64
4, 275136, Note_on_c, 2, 50, 68
4, 275324, Note_off_c, 2, 50, 64
4, 275328, Note_on_c, 2, 50, 68
4, 275516, Note_off_c, 2, 50, 64
4, 275520, Note_on_c, 2, 50, 68
4, 275708, Note_off_c, 2, 50, 64
4, 276288, Note_on_c, 2, 50, 68
4, 276476, Note_off_c, 2, 50, 64
4, 276480, Note_on_c, 2, 50, 68
4, 276668, Note_off_c, 2, 50, 64
4, 276672, Note_on_c, 2, 50, 68
4, 276860, Note_off_c, 2, 50, 64
4, 277440, Note_on_c, 2, 50, 89
4, 277440, Note_on_c, 2, 38, 89
4, 277628, Note_off_c, 2, 50, 64
4, 277628, Note_off_c, 2, 38, 64
4, 277632, Note_on_c, 2, 50, 89
4, 277632, Note_on_c, 2, 38, 89
4, 277820, Note_off_c, 2, 50, 64
4, 277820, Note_off_c, 2, 38, 64
4, 277824, Note_on_c, 2, 50, 89
4, 277824, Note_on_c, 2, 38, 89
4, 278396, Note_off_c, 2, 50, 64
4, 278396, Note_off_c, 2, 38, 64
4, 286464, Note_on_c, 2, 55, 68
4, 286556, Note_off_c, 2, 55, 64
4, 286656, Note_on_c, 2, 59, 68
4, 286748, Note_off_c, 2, 59, 64
4, 286848, Note_on_c, 2, 62, 68
4, 286940, Note_off_c, 2, 62, 64
4, 287040, Note_on_c, 2, 55, 68
4, 287228, Note_off_c, 2, 55, 64
4, 287616, Note_on_c, 2, 60, 68
4, 287708, Note_off_c, 2, 60, 64
4, 287808, Note_on_c, 2, 57, 68
4, 287900, Note_off_c, 2, 57, 64
4, 288000, Note_on_c, 2, 60, 68
4, 288092, Note_off_c, 2, 60, 64
4, 288192, Note_on_c, 2, 62, 68
4, 288380, Note_off_c, 2, 62, 64
4, 288768, Note_on_c, 2, 59, 68
4, 289340, Note_off_c, 2, 59, 64
4, 289344, Note_on_c, 2, 54, 68
4, 289916, Note_off_c, 2, 54, 64
4, 289920, Note_on_c, 2, 55, 68
4, 290300, Note_off_c, 2, 55, 64
4, 290304, Note_on_c, 2, 43, 68
4, 290492, Note_off_c, 2, 43, 64
4, 290496, Note_on_c, 2, 50, 68
4, 290684, Note_off_c, 2, 50, 64
4, 290688, Note_on_c, 2, 62, 68
4, 290780, Note_off_c, 2, 62, 64
4, 290784, Note_on_c, 2, 61, 68
4, 290876, Note_off_c, 2, 61, 64
4, 290880, Note_on_c, 2, 62, 68
4, 291068, Note_off_c, 2, 62, 64
4, 291072, Note_on_c, 2, 55, 68
4, 291072, Note_on_c, 2, 43, 68
4, 291260, Note_off_c, 2, 43, 64
4, 291264, Note_on_c, 2, 47, 68
4, 291452, Note_off_c, 2, 55, 64
4, 291452, Note_off_c, 2, 47, 64
4, 291456, Note_on_c, 2, 50, 68
4, 291456, Note_on_c, 2, 57, 68
4, 291644, Note_off_c, 2, 50, 64
4, 291644, Note_off_c, 2, 57, 64
4, 291648, Note_on_c, 2, 57, 68
4, 291648, Note_on_c, 2, 54, 68
4, 291836, Note_off_c, 2, 57, 64
4, 291836, Note_off_c, 2, 54, 64
4, 292224, Note_on_c, 2, 57, 68
4, 292224, Note_on_c, 2, 48, 68
4, 292412, Note_off_c, 2, 57, 64
4, 292412, Note_off_c, 2, 48, 64
4, 292416, Note_on_c, 2, 57, 68
4, 292416, Note_on_c, 2, 45, 68
4, 292604, Note_off_c, 2, 57, 64
4, 292604, Note_off_c, 2, 45, 64
4, 292608, Note_on_c, 2, 57, 68
4, 292608, Note_on_c, 2, 48, 68
4, 292796, Note_off_c, 2, 57, 64
4, 292796, Note_off_c, 2, 48, 64
4, 292800, Note_on_c, 2, 57, 68
4, 292800, Note_on_c, 2, 50, 68
4, 292988, Note_off_c, 2, 57, 64
4, 292988, Note_off_c, 2, 50, 64
4, 293376, Note_on_c, 2, 55, 68
4, 293564, Note_off_c, 2, 55, 64
4, 293760, Note_on_c, 2, 55, 68
4, 293760, Note_on_c, 2, 47, 68
4, 293948, Note_off_c, 2, 55, 64
4, 293948, Note_off_c, 2, 47, 64
4, 293952, Note_on_c, 2, 55, 68
4, 293952, Note_on_c, 2, 48, 68
4, 294140, Note_off_c, 2, 55, 64
4, 294140, Note_off_c, 2, 48, 64
4, 294336, Note_on_c, 2, 55, 68
4, 294336, Note_on_c, 2, 52, 68
4, 294524, Note_off_c, 2, 55, 64
4, 294524, Note_off_c, 2, 52, 64
4, 294528, Note_on_c, 2, 62, 68
4, 294528, Note_on_c, 2, 50, 68
4, 294716, Note_off_c, 2, 62, 64
4, 294716, Note_off_c, 2, 50, 64
4, 294912, Note_on_c, 2, 50, 68
4, 295100, Note_off_c, 2, 50, 64
4, 295104, Note_on_c, 2, 55, 68
4, 295292, Note_off_c, 2, 55, 64
4, 295296, Note_on_c, 2, 50, 68
4, 295484, Note_off_c, 2, 50, 64
4, 295488, Note_on_c, 2, 43, 68
4, 295676, Note_off_c, 2, 43, 64
4, 295680, Note_on_c, 2, 43, 68
4, 295772, Note_off_c, 2, 43, 64
4, 295872, Note_on_c, 2, 47, 68
4, 295964, Note_off_c, 2, 47, 64
4, 296064, Note_on_c, 2, 50, 68
4, 296156, Note_off_c, 2, 50, 64
4, 296832, Note_on_c, 2, 48, 68
4, 297020, Note_off_c, 2, 48, 64
4, 297024, Note_on_c, 2, 45, 68
4, 297212, Note_off_c, 2, 45, 64
4, 297216, Note_on_c, 2, 48, 68
4, 297404, Note_off_c, 2, 48, 64
4, 297408, Note_on_c, 2, 50, 68
4, 297596, Note_off_c, 2, 50, 64
4, 297984, Note_on_c, 2, 50, 68
4, 297984, Note_on_c, 2, 47, 68
4, 298556, Note_off_c, 2, 50, 64
4, 298556, Note_off_c, 2, 47, 64
4, 298560, Note_on_c, 2, 50, 68
4, 298560, Note_on_c, 2, 42, 68
4, 299132, Note_off_c, 2, 50, 64
4, 299132, Note_off_c, 2, 42, 64
4, 299136, Note_on_c, 2, 50, 68
4, 299136, Note_on_c, 2, 43, 68
4, 299708, Note_off_c, 2, 50, 64
4, 299708, Note_off_c, 2, 43, 64
4, 299712, Note_on_c, 2, 38, 68
4, 299900, Note_off_c, 2, 38, 64
4, 299904, Note_on_c, 2, 50, 68
4, 299996, Note_off_c, 2, 50, 64
4, 300000, Note_on_c, 2, 49, 68
4, 300092, Note_off_c, 2, 49, 64
4, 300096, Note_on_c, 2, 50, 68
4, 300284, Note_off_c, 2, 50, 64
4, 300288, Note_on_c, 2, 43, 89
4, 300380, Note_off_c, 2, 43, 64
4, 300480, Note_on_c, 2, 47, 89
4, 300572, Note_off_c, 2, 47, 64
4, 300672, Note_on_c, 2, 50, 89
4, 300764, Note_off_c, 2, 50, 64
4, 300864, Note_on_c, 2, 55, 89
4, 301052, Note_off_c, 2, 55, 64
4, 301440, Note_on_c, 2, 48, 89
4, 301532, Note_off_c, 2, 48, 64
4, 301632, Note_on_c, 2, 45, 89
4, 301724, Note_off_c, 2, 45, 64
4, 301824, Note_on_c, 2, 48, 89
4, 301916, Note_off_c, 2, 48, 64
4, 302016, Note_on_c, 2, 50, 89
4, 302204, Note_off_c, 2, 50, 64
4, 302592, Note_on_c, 2, 50, 89
4, 302592, Note_on_c, 2, 47, 89
4, 302684, Note_off_c, 2, 50, 64
4, 302684, Note_off_c, 2, 47, 64
4, 302688, Note_on_c, 2, 55, 89
4, 302780, Note_off_c, 2, 55, 64
4, 302784, Note_on_c, 2, 50, 89
4, 302784, Note_on_c, 2, 47, 89
4, 302876, Note_off_c, 2, 50, 64
4, 302876, Note_off_c, 2, 47, 64
4, 302880, Note_on_c, 2, 55, 89
4, 302972, Note_off_c, 2, 55, 64
4, 302976, Note_on_c, 2, 50, 89
4, 302976, Note_on_c, 2, 47, 89
4, 303068, Note_off_c, 2, 50, 64
4, 303068, Note_off_c, 2, 47, 64
4, 303072, Note_on_c, 2, 55, 89
4, 303164, Note_off_c, 2, 55, 64
4, 303168, Note_on_c, 2, 52, 89
4, 303168, Note_on_c, 2, 48, 89
4, 303260, Note_off_c, 2, 52, 64
4, 303260, Note_off_c, 2, 48, 64
4, 303264, Note_on_c, 2, 55, 89
4, 303356, Note_off_c, 2, 55, 64
4, 303360, Note_on_c, 2, 52, 89
4, 303360, Note_on_c, 2, 48, 89
4, 303452, Note_off_c, 2, 52, 64
4, 303452, Note_off_c, 2, 48, 64
4, 303456, Note_on_c, 2, 55, 89
4, 303548, Note_off_c, 2, 55, 64
4, 303552, Note_on_c, 2, 52, 89
4, 303552, Note_on_c, 2, 48, 89
4, 303644, Note_off_c, 2, 52, 64
4, 303644, Note_off_c, 2, 48, 64
4, 303648, Note_on_c, 2, 55, 89
4, 303740, Note_off_c, 2, 55, 64
4, 303744, Note_on_c, 2, 62, 89
4, 303744, Note_on_c, 2, 50, 89
4, 303932, Note_off_c, 2, 62, 64
4, 303932, Note_off_c, 2, 50, 64
4, 303936, Note_on_c, 2, 62, 89
4, 303936, Note_on_c, 2, 50, 89
4, 304124, Note_off_c, 2, 62, 64
4, 304124, Note_off_c, 2, 50, 64
4, 304128, Note_on_c, 2, 62, 89
4, 304128, Note_on_c, 2, 50, 89
4, 304316, Note_off_c, 2, 62, 64
4, 304316, Note_off_c, 2, 50, 64
4, 304320, Note_on_c, 2, 59, 68
4, 304320, Note_on_c, 2, 55, 68
4, 304508, Note_off_c, 2, 59, 64
4, 304508, Note_off_c, 2, 55, 64
4, 304512, Note_on_c, 2, 43, 68
4, 304700, Note_off_c, 2, 43, 64
4, 306048, Note_on_c, 2, 61, 68
4, 306048, Note_on_c, 2, 64, 68
4, 306140, Note_off_c, 2, 61, 64
4, 306140, Note_off_c, 2, 64, 64
4, 306240, Note_on_c, 2, 64, 68
4, 306240, Note_on_c, 2, 61, 68
4, 306332, Note_off_c, 2, 64, 64
4, 306332, Note_off_c, 2, 61, 64
4, 306432, Note_on_c, 2, 64, 68
4, 306432, Note_on_c, 2, 61, 68
4, 306524, Note_off_c, 2, 64, 64
4, 306524, Note_off_c, 2, 61, 64
4, 306624, Note_on_c, 2, 62, 68
4, 306716, Note_off_c, 2, 62, 64
4, 306816, Note_on_c, 2, 50, 68
4, 306908, Note_off_c, 2, 50, 64
4, 307200, Note_on_c, 2, 57, 89
4, 307200, Note_on_c, 2, 54, 89
4, 307200, Note_on_c, 2, 50, 89
4, 307292, Note_off_c, 2, 57, 64
4, 307292, Note_off_c, 2, 54, 64
4, 307292, Note_off_c, 2, 50, 64
4, 307392, Note_on_c, 2, 57, 89
4, 307392, Note_on_c, 2, 54, 89
4, 307392, Note_on_c, 2, 50, 89
4, 307484, Note_off_c, 2, 57, 64
4, 307484, Note_off_c, 2, 54, 64
4, 307484, Note_off_c, 2, 50, 64
4, 307584, Note_on_c, 2, 57, 89
4, 307584, Note_on_c, 2, 54, 89
4, 307584, Note_on_c, 2, 50, 89
4, 307584, Note_on_c, 2, 48, 89
4, 307676, Note_off_c, 2, 57, 64
4, 307676, Note_off_c, 2, 54, 64
4, 307676, Note_off_c, 2, 50, 64
4, 307676, Note_off_c, 2, 48, 64
4, 307776, Note_on_c, 2, 55, 89
4, 307776, Note_on_c, 2, 50, 89
4, 307776, Note_on_c, 2, 47, 89
4, 307868, Note_off_c, 2, 55, 64
4, 307868, Note_off_c, 2, 50, 64
4, 307868, Note_off_c, 2, 47, 64
4, 307968, Note_on_c, 2, 55, 89
4, 307968, Note_on_c, 2, 50, 89
4, 307968, Note_on_c, 2, 43, 89
4, 308060, Note_off_c, 2, 55, 64
4, 308060, Note_off_c, 2, 50, 64
4, 308060, Note_off_c, 2, 43, 64
4, 308160, Note_on_c, 2, 55, 89
4, 308160, Note_on_c, 2, 50, 89
4, 308160, Note_on_c, 2, 47, 89
4, 308252, Note_off_c, 2, 55, 64
4, 308252, Note_off_c, 2, 50, 64
4, 308252, Note_off_c, 2, 47, 64
4, 308352, Note_on_c, 2, 57, 89
4, 308352, Note_on_c, 2, 52, 89
4, 308352, Note_on_c, 2, 45, 89
4, 308444, Note_off_c, 2, 57, 64
4, 308444, Note_off_c, 2, 52, 64
4, 308444, Note_off_c, 2, 45, 64
4, 308544, Note_on_c, 2, 57, 89
4, 308544, Note_on_c, 2, 52, 89
4, 308544, Note_on_c, 2, 48, 89
4, 308636, Note_off_c, 2, 57, 64
4, 308636, Note_off_c, 2, 52, 64
4, 308636, Note_off_c, 2, 48, 64
4, 308736, Note_on_c, 2, 57, 89
4, 308736, Note_on_c, 2, 60, 89
4, 308736, Note_on_c, 2, 50, 89
4, 308828, Note_off_c, 2, 57, 64
4, 308828, Note_off_c, 2, 60, 64
4, 308828, Note_off_c, 2, 50, 64
4, 308928, Note_on_c, 2, 59, 89
4, 308928, Note_on_c, 2, 55, 89
4, 309020, Note_off_c, 2, 59, 64
4, 309020, Note_off_c, 2, 55, 64
4, 309120, Note_on_c, 2, 50, 89
4, 309212, Note_off_c, 2, 50, 64
4, 309312, Note_on_c, 2, 47, 89
4, 309404, Note_off_c, 2, 47, 64
4, 309504, Note_on_c, 2, 43, 68
4, 309596, Note_off_c, 2, 43, 64
4, 311232, Note_on_c, 2, 60, 68
4, 311232, Note_on_c, 2, 54, 68
4, 311232, Note_on_c, 2, 50, 68
4, 311804, Note_off_c, 2, 60, 64
4, 311804, Note_off_c, 2, 54, 64
4, 311804, Note_off_c, 2, 50, 64
4, 311808, Note_on_c, 2, 59, 68
4, 311808, Note_on_c, 2, 55, 68
4, 311996, Note_off_c, 2, 59, 64
4, 311996, Note_off_c, 2, 55, 64
4, 313536, Note_on_c, 2, 60, 68
4, 313536, Note_on_c, 2, 54, 68
4, 313536, Note_on_c, 2, 50, 68
4, 314108, Note_off_c, 2, 60, 64
4, 314108, Note_off_c, 2, 54, 64
4, 314108, Note_off_c, 2, 50, 64
4, 314112, Note_on_c, 2, 59, 68
4, 314112, Note_on_c, 2, 55, 68
4, 314300, Note_off_c, 2, 59, 64
4, 314300, Note_off_c, 2, 55, 64
4, 314304, Note_on_c, 2, 59, 68
4, 314492, Note_off_c, 2, 59, 64
4, 314496, Note_on_c, 2, 55, 68
4, 314684, Note_off_c, 2, 55, 64
4, 314688, Note_on_c, 2, 62, 68
4, 314780, Note_off_c, 2, 62, 64
4, 314880, Note_on_c, 2, 62, 68
4, 314880, Note_on_c, 2, 50, 68
4, 315068, Note_off_c, 2, 62, 64
4, 315068, Note_off_c, 2, 50, 64
4, 315072, Note_on_c, 2, 60, 68
4, 315072, Note_on_c, 2, 50, 68
4, 315260, Note_off_c, 2, 60, 64
4, 315260, Note_off_c, 2, 50, 64
4, 315264, Note_on_c, 2, 59, 68
4, 315264, Note_on_c, 2, 55, 68
4, 315356, Note_off_c, 2, 59, 64
4, 315356, Note_off_c, 2, 55, 64
4, 315456, Note_on_c, 2, 59, 68
4, 315644, Note_off_c, 2, 59, 64
4, 315648, Note_on_c, 2, 55, 68
4, 315836, Note_off_c, 2, 55, 64
4, 315840, Note_on_c, 2, 62, 68
4, 315932, Note_off_c, 2, 62, 64
4, 316032, Note_on_c, 2, 62, 68
4, 316032, Note_on_c, 2, 50, 68
4, 316220, Note_off_c, 2, 62, 64
4, 316220, Note_off_c, 2, 50, 64
4, 316224, Note_on_c, 2, 60, 68
4, 316224, Note_on_c, 2, 50, 68
4, 316412, Note_off_c, 2, 60, 64
4, 316412, Note_off_c, 2, 50, 64
4, 316416, Note_on_c, 2, 59, 68
4, 316416, Note_on_c, 2, 55, 68
4, 316508, Note_off_c, 2, 59, 64
4, 316508, Note_off_c, 2, 55, 64
4, 316508, End_track
5, 0, Start_track
5, 0, Title_t, "Midi by:"
5, 0, Key_signature, 0, "major"
5, 0, End_track
6, 0, Start_track
6, 0, Title_t, "B.Fisher"
6, 0, Key_signature, 0, "major"
6, 0, End_track
0, 0, End_of_file
