0, 0, Header, 1, 19, 384
1, 0, Start_track
1, 0, Time_signature, 4, 2, 96, 8
1, 0, Sequencer_specific, 3, 0, 0, 65
1, 0, Tempo, 500000
1, 61440, Tempo, 1071428
1, 69888, Tempo, 1304347
1, 70656, Tempo, 500000
1, 155136, Tempo, 517241
1, 158208, Tempo, 508474
1, 159744, Tempo, 500000
1, 161280, Tempo, 517241
1, 164352, Tempo, 508474
1, 165888, Tempo, 500000
1, 181248, Tempo, 517241
1, 185856, Tempo, 500000
1, 311808, Tempo, 517241
1, 314880, Tempo, 508474
1, 316416, Tempo, 500000
1, 317952, Tempo, 517241
1, 321024, Tempo, 508474
1, 322560, Tempo, 500000
1, 324096, Tempo, 508474
1, 325632, Tempo, 500000
1, 333312, Tempo, 526315
1, 334848, Tempo, 588235
1, 336384, Tempo, 697674
1, 337920, Tempo, 500000
1, 347520, Tempo, 526315
1, 347904, Tempo, 588235
1, 348288, Tempo, 652173
1, 361344, Tempo, 833333
1, 362496, Tempo, 652173
1, 364032, Tempo, 588235
1, 365568, Tempo, 1500000
1, 365952, Tempo, 810810
1, 367872, Tempo, 441176
1, 371328, Tempo, 500000
1, 384768, Tempo, 535714
1, 385536, Tempo, 500000
1, 405504, Time_signature, 2, 2, 96, 8
1, 406272, Time_signature, 4, 2, 96, 8
1, 409344, Tempo, 666666
1, 412416, Tempo, 500000
1, 431232, Tempo, 555555
1, 435456, Tempo, 500000
1, 435456, End_track
2, 0, Start_track
2, 0, Title_t, "Mozart Violin Concerto"
2, 0, Control_c, 0, 0, 0
2, 0, Program_c, 0, 40
2, 0, Control_c, 0, 10, 63
2, 0, Control_c, 0, 91, 63
2, 0, Control_c, 0, 93, 42
2, 0, Key_signature, 3, "major"
2, 0, Control_c, 0, 121, 0
2, 48, Control_c, 0, 10, 63
2, 96, Control_c, 0, 91, 63
2, 192, Control_c, 0, 93, 35
2, 288, Program_c, 0, 40
2, 336, Control_c, 0, 1, 45
2, 61428, Control_c, 0, 1, 45
2, 61440, Note_on_c, 0, 81, 64
2, 61820, Note_off_c, 0, 81, 64
2, 61824, Note_on_c, 0, 85, 66
2, 62204, Note_off_c, 0, 85, 64
2, 62208, Note_on_c, 0, 88, 68
2, 62588, Note_off_c, 0, 88, 64
2, 62592, Note_on_c, 0, 85, 66
2, 62780, Note_off_c, 0, 85, 64
2, 62784, Note_on_c, 0, 81, 64
2, 62972, Note_off_c, 0, 81, 64
2, 62976, Note_on_c, 0, 79, 63
2, 63356, Note_off_c, 0, 79, 64
2, 63360, Note_on_c, 0, 78, 72
2, 63380, Note_off_c, 0, 78, 64
2, 63384, Note_on_c, 0, 79, 72
2, 63404, Note_off_c, 0, 79, 64
2, 63408, Note_on_c, 0, 78, 72
2, 63428, Note_off_c, 0, 78, 64
2, 63432, Note_on_c, 0, 79, 72
2, 63452, Note_off_c, 0, 79, 64
2, 63456, Note_on_c, 0, 78, 72
2, 63476, Note_off_c, 0, 78, 64
2, 63480, Note_on_c, 0, 79, 72
2, 63500, Note_off_c, 0, 79, 64
2, 63504, Note_on_c, 0, 78, 72
2, 63524, Note_off_c, 0, 78, 64
2, 63528, Note_on_c, 0, 79, 72
2, 63548, Note_off_c, 0, 79, 64
2, 63552, Note_on_c, 0, 78, 72
2, 63572, Note_off_c, 0, 78, 64
2, 63576, Note_on_c, 0, 79, 72
2, 63596, Note_off_c, 0, 79, 64
2, 63600, Note_on_c, 0, 78, 72
2, 63620, Note_off_c, 0, 78, 64
2, 63624, Note_on_c, 0, 79, 72
2, 63644, Note_off_c, 0, 79, 64
2, 63648, Note_on_c, 0, 76, 71
2, 63692, Note_off_c, 0, 76, 64
2, 63696, Note_on_c, 0, 78, 72
2, 63740, Note_off_c, 0, 78, 64
2, 63744, Note_on_c, 0, 76, 69
2, 64124, Note_off_c, 0, 76, 64
2, 64224, Note_on_c, 0, 76, 69
2, 64316, Note_off_c, 0, 76, 64
2, 64320, Note_on_c, 0, 85, 69
2, 64412, Note_off_c, 0, 85, 64
2, 64416, Note_on_c, 0, 81, 69
2, 64508, Note_off_c, 0, 81, 64
2, 64512, Note_on_c, 0, 83, 77
2, 64540, Note_off_c, 0, 83, 64
2, 64544, Note_on_c, 0, 81, 69
2, 64600, Note_off_c, 0, 81, 64
2, 64608, Note_on_c, 0, 80, 69
2, 64700, Note_off_c, 0, 80, 64
2, 64704, Note_on_c, 0, 80, 69
2, 64796, Note_off_c, 0, 80, 64
2, 64992, Note_on_c, 0, 76, 69
2, 65084, Note_off_c, 0, 76, 64
2, 65088, Note_on_c, 0, 86, 70
2, 65180, Note_off_c, 0, 86, 64
2, 65184, Note_on_c, 0, 80, 72
2, 65276, Note_off_c, 0, 80, 64
2, 65280, Note_on_c, 0, 83, 75
2, 65372, Note_off_c, 0, 83, 64
2, 65376, Note_on_c, 0, 81, 76
2, 65468, Note_off_c, 0, 81, 64
2, 65472, Note_on_c, 0, 81, 79
2, 65564, Note_off_c, 0, 81, 64
2, 65760, Note_on_c, 0, 88, 69
2, 65852, Note_off_c, 0, 88, 64
2, 65856, Note_on_c, 0, 86, 69
2, 65900, Note_off_c, 0, 86, 64
2, 65904, Note_on_c, 0, 85, 69
2, 65948, Note_off_c, 0, 85, 64
2, 65952, Note_on_c, 0, 83, 69
2, 65996, Note_off_c, 0, 83, 64
2, 66000, Note_on_c, 0, 81, 69
2, 66044, Note_off_c, 0, 81, 64
2, 66048, Note_on_c, 0, 80, 69
2, 66140, Note_off_c, 0, 80, 64
2, 66144, Note_on_c, 0, 78, 69
2, 66236, Note_off_c, 0, 78, 64
2, 66240, Note_on_c, 0, 78, 69
2, 66520, Note_off_c, 0, 78, 64
2, 66544, Note_on_c, 0, 76, 69
2, 66720, Note_on_c, 0, 78, 69
2, 66732, Note_off_c, 0, 76, 64
2, 66760, Note_off_c, 0, 78, 64
2, 66768, Note_on_c, 0, 80, 69
2, 66808, Note_off_c, 0, 80, 64
2, 66816, Note_on_c, 0, 81, 69
2, 67004, Note_off_c, 0, 81, 64
2, 67008, Note_on_c, 0, 75, 71
2, 67196, Note_off_c, 0, 75, 64
2, 67200, Note_on_c, 0, 76, 76
2, 67388, Note_off_c, 0, 76, 64
2, 67392, Note_on_c, 0, 78, 79
2, 67580, Note_off_c, 0, 78, 64
2, 67584, Note_on_c, 0, 76, 69
2, 67864, Note_off_c, 0, 76, 64
2, 67872, Note_on_c, 0, 69, 69
2, 67912, Note_off_c, 0, 69, 64
2, 67968, Note_on_c, 0, 71, 73
2, 67988, Note_off_c, 0, 71, 64
2, 67992, Note_on_c, 0, 73, 73
2, 68012, Note_off_c, 0, 73, 64
2, 68016, Note_on_c, 0, 71, 73
2, 68036, Note_off_c, 0, 71, 64
2, 68040, Note_on_c, 0, 73, 73
2, 68060, Note_off_c, 0, 73, 64
2, 68064, Note_on_c, 0, 71, 73
2, 68084, Note_off_c, 0, 71, 64
2, 68088, Note_on_c, 0, 73, 73
2, 68108, Note_off_c, 0, 73, 64
2, 68112, Note_on_c, 0, 71, 73
2, 68132, Note_off_c, 0, 71, 64
2, 68136, Note_on_c, 0, 73, 73
2, 68156, Note_off_c, 0, 73, 64
2, 68160, Note_on_c, 0, 71, 73
2, 68180, Note_off_c, 0, 71, 64
2, 68184, Note_on_c, 0, 73, 73
2, 68204, Note_off_c, 0, 73, 64
2, 68208, Note_on_c, 0, 71, 73
2, 68228, Note_off_c, 0, 71, 64
2, 68232, Note_on_c, 0, 73, 73
2, 68252, Note_off_c, 0, 73, 64
2, 68256, Note_on_c, 0, 69, 73
2, 68296, Note_off_c, 0, 69, 64
2, 68304, Note_on_c, 0, 71, 73
2, 68344, Note_off_c, 0, 71, 64
2, 68352, Note_on_c, 0, 69, 74
2, 68536, Note_off_c, 0, 69, 64
2, 68544, Note_on_c, 0, 81, 75
2, 68924, Note_off_c, 0, 81, 64
2, 68928, Note_on_c, 0, 81, 75
2, 69112, Note_off_c, 0, 81, 64
2, 69120, Note_on_c, 0, 81, 76
2, 69140, Note_off_c, 0, 81, 64
2, 69144, Note_on_c, 0, 83, 76
2, 69164, Note_off_c, 0, 83, 64
2, 69168, Note_on_c, 0, 81, 75
2, 69188, Note_off_c, 0, 81, 64
2, 69192, Note_on_c, 0, 83, 75
2, 69212, Note_off_c, 0, 83, 64
2, 69216, Note_on_c, 0, 81, 74
2, 69236, Note_off_c, 0, 81, 64
2, 69240, Note_on_c, 0, 83, 74
2, 69260, Note_off_c, 0, 83, 64
2, 69264, Note_on_c, 0, 81, 72
2, 69284, Note_off_c, 0, 81, 64
2, 69288, Note_on_c, 0, 83, 72
2, 69308, Note_off_c, 0, 83, 64
2, 69312, Note_on_c, 0, 81, 71
2, 69332, Note_off_c, 0, 81, 64
2, 69336, Note_on_c, 0, 83, 71
2, 69356, Note_off_c, 0, 83, 64
2, 69360, Note_on_c, 0, 81, 71
2, 69380, Note_off_c, 0, 81, 64
2, 69384, Note_on_c, 0, 83, 70
2, 69404, Note_off_c, 0, 83, 64
2, 69408, Note_on_c, 0, 81, 70
2, 69428, Note_off_c, 0, 81, 64
2, 69432, Note_on_c, 0, 83, 69
2, 69452, Note_off_c, 0, 83, 64
2, 69456, Note_on_c, 0, 81, 69
2, 69476, Note_off_c, 0, 81, 64
2, 69480, Note_on_c, 0, 83, 68
2, 69500, Note_off_c, 0, 83, 64
2, 69504, Note_on_c, 0, 81, 66
2, 69524, Note_off_c, 0, 81, 64
2, 69528, Note_on_c, 0, 83, 67
2, 69548, Note_off_c, 0, 83, 64
2, 69552, Note_on_c, 0, 81, 66
2, 69572, Note_off_c, 0, 81, 64
2, 69576, Note_on_c, 0, 83, 66
2, 69596, Note_off_c, 0, 83, 64
2, 69600, Note_on_c, 0, 81, 65
2, 69620, Note_off_c, 0, 81, 64
2, 69624, Note_on_c, 0, 83, 65
2, 69644, Note_off_c, 0, 83, 64
2, 69648, Note_on_c, 0, 81, 64
2, 69668, Note_off_c, 0, 81, 64
2, 69672, Note_on_c, 0, 83, 64
2, 69692, Note_off_c, 0, 83, 64
2, 69696, Note_on_c, 0, 80, 63
2, 69788, Note_off_c, 0, 80, 64
2, 69792, Note_on_c, 0, 81, 63
2, 69884, Note_off_c, 0, 81, 64
2, 69888, Note_on_c, 0, 69, 62
2, 70268, Note_off_c, 0, 69, 64
2, 70644, Control_c, 0, 1, 45
2, 70656, Note_on_c, 0, 81, 70
2, 71228, Note_off_c, 0, 81, 64
2, 71232, Note_on_c, 0, 76, 66
2, 71420, Note_off_c, 0, 76, 64
2, 71424, Note_on_c, 0, 85, 70
2, 71996, Note_off_c, 0, 85, 64
2, 72000, Note_on_c, 0, 81, 68
2, 72188, Note_off_c, 0, 81, 64
2, 72192, Note_on_c, 0, 88, 72
2, 72380, Note_off_c, 0, 88, 64
2, 72576, Note_on_c, 0, 88, 72
2, 73148, Note_off_c, 0, 88, 64
2, 73152, Note_on_c, 0, 88, 68
2, 73192, Note_off_c, 0, 88, 64
2, 73200, Note_on_c, 0, 90, 69
2, 73240, Note_off_c, 0, 90, 64
2, 73248, Note_on_c, 0, 88, 68
2, 73288, Note_off_c, 0, 88, 64
2, 73296, Note_on_c, 0, 90, 69
2, 73336, Note_off_c, 0, 90, 64
2, 73344, Note_on_c, 0, 93, 74
2, 73532, Note_off_c, 0, 93, 64
2, 73536, Note_on_c, 0, 88, 72
2, 73724, Note_off_c, 0, 88, 64
2, 73728, Note_on_c, 0, 86, 70
2, 73916, Note_off_c, 0, 86, 64
2, 73920, Note_on_c, 0, 85, 69
2, 74108, Note_off_c, 0, 85, 64
2, 74112, Note_on_c, 0, 85, 78
2, 74684, Note_off_c, 0, 85, 64
2, 74688, Note_on_c, 0, 85, 69
2, 74732, Note_off_c, 0, 85, 64
2, 74736, Note_on_c, 0, 86, 69
2, 74780, Note_off_c, 0, 86, 64
2, 74784, Note_on_c, 0, 85, 69
2, 74828, Note_off_c, 0, 85, 64
2, 74832, Note_on_c, 0, 86, 69
2, 74876, Note_off_c, 0, 86, 64
2, 74880, Note_on_c, 0, 88, 71
2, 75068, Note_off_c, 0, 88, 64
2, 75072, Note_on_c, 0, 85, 70
2, 75260, Note_off_c, 0, 85, 64
2, 75264, Note_on_c, 0, 83, 80
2, 75352, Note_off_c, 0, 83, 64
2, 75360, Note_on_c, 0, 81, 69
2, 75448, Note_off_c, 0, 81, 64
2, 75456, Note_on_c, 0, 85, 69
2, 75552, Note_off_c, 0, 85, 64
2, 75552, Note_on_c, 0, 81, 69
2, 75648, Note_off_c, 0, 81, 64
2, 75648, Note_on_c, 0, 78, 80
2, 75736, Note_off_c, 0, 78, 64
2, 75744, Note_on_c, 0, 76, 69
2, 75832, Note_off_c, 0, 76, 64
2, 75840, Note_on_c, 0, 81, 69
2, 75936, Note_off_c, 0, 81, 64
2, 75936, Note_on_c, 0, 76, 69
2, 76032, Note_off_c, 0, 76, 64
2, 76032, Note_on_c, 0, 74, 80
2, 76120, Note_off_c, 0, 74, 64
2, 76128, Note_on_c, 0, 73, 69
2, 76216, Note_off_c, 0, 73, 64
2, 76224, Note_on_c, 0, 76, 69
2, 76320, Note_off_c, 0, 76, 64
2, 76320, Note_on_c, 0, 73, 69
2, 76416, Note_off_c, 0, 73, 64
2, 76416, Note_on_c, 0, 71, 80
2, 76504, Note_off_c, 0, 71, 64
2, 76512, Note_on_c, 0, 69, 69
2, 76600, Note_off_c, 0, 69, 64
2, 76608, Note_on_c, 0, 73, 69
2, 76704, Note_off_c, 0, 73, 64
2, 76704, Note_on_c, 0, 69, 69
2, 76800, Note_off_c, 0, 69, 64
2, 76800, Note_on_c, 0, 68, 69
2, 76900, Note_off_c, 0, 68, 64
2, 76992, Note_on_c, 0, 71, 69
2, 77092, Note_off_c, 0, 71, 64
2, 77184, Note_on_c, 0, 62, 69
2, 77756, Note_off_c, 0, 62, 64
2, 77760, Note_on_c, 0, 66, 69
2, 77856, Note_off_c, 0, 66, 64
2, 77856, Note_on_c, 0, 64, 69
2, 77952, Note_off_c, 0, 64, 64
2, 77952, Note_on_c, 0, 62, 70
2, 78044, Note_off_c, 0, 62, 64
2, 78048, Note_on_c, 0, 61, 71
2, 78140, Note_off_c, 0, 61, 64
2, 78144, Note_on_c, 0, 59, 72
2, 78236, Note_off_c, 0, 59, 64
2, 78240, Note_on_c, 0, 57, 73
2, 78332, Note_off_c, 0, 57, 64
2, 78336, Note_on_c, 0, 56, 74
2, 78524, Note_off_c, 0, 56, 64
2, 78720, Note_on_c, 0, 86, 80
2, 79292, Note_off_c, 0, 86, 64
2, 79296, Note_on_c, 0, 83, 77
2, 79340, Note_off_c, 0, 83, 64
2, 79344, Note_on_c, 0, 85, 77
2, 79388, Note_off_c, 0, 85, 64
2, 79392, Note_on_c, 0, 83, 77
2, 79436, Note_off_c, 0, 83, 64
2, 79440, Note_on_c, 0, 85, 77
2, 79484, Note_off_c, 0, 85, 64
2, 79488, Note_on_c, 0, 86, 69
2, 79672, Note_off_c, 0, 86, 64
2, 79680, Note_on_c, 0, 83, 69
2, 79864, Note_off_c, 0, 83, 64
2, 79872, Note_on_c, 0, 81, 69
2, 80056, Note_off_c, 0, 81, 64
2, 80064, Note_on_c, 0, 80, 69
2, 80248, Note_off_c, 0, 80, 64
2, 80256, Note_on_c, 0, 80, 69
2, 80828, Note_off_c, 0, 80, 64
2, 80832, Note_on_c, 0, 83, 69
2, 80928, Note_off_c, 0, 83, 64
2, 80928, Note_on_c, 0, 80, 69
2, 81024, Note_off_c, 0, 80, 64
2, 81024, Note_on_c, 0, 78, 69
2, 81112, Note_off_c, 0, 78, 64
2, 81120, Note_on_c, 0, 76, 69
2, 81208, Note_off_c, 0, 76, 64
2, 81216, Note_on_c, 0, 78, 69
2, 81312, Note_off_c, 0, 78, 64
2, 81312, Note_on_c, 0, 74, 69
2, 81408, Note_off_c, 0, 74, 64
2, 81408, Note_on_c, 0, 73, 80
2, 81496, Note_off_c, 0, 73, 64
2, 81504, Note_on_c, 0, 71, 69
2, 81592, Note_off_c, 0, 71, 64
2, 81600, Note_on_c, 0, 74, 69
2, 81696, Note_off_c, 0, 74, 64
2, 81696, Note_on_c, 0, 71, 69
2, 81792, Note_off_c, 0, 71, 64
2, 81792, Note_on_c, 0, 69, 80
2, 81880, Note_off_c, 0, 69, 64
2, 81888, Note_on_c, 0, 68, 69
2, 81976, Note_off_c, 0, 68, 64
2, 81984, Note_on_c, 0, 71, 69
2, 82080, Note_off_c, 0, 71, 64
2, 82080, Note_on_c, 0, 68, 69
2, 82176, Note_off_c, 0, 68, 64
2, 82176, Note_on_c, 0, 64, 80
2, 82264, Note_off_c, 0, 64, 64
2, 82272, Note_on_c, 0, 62, 70
2, 82364, Note_off_c, 0, 62, 64
2, 82368, Note_on_c, 0, 66, 69
2, 82464, Note_off_c, 0, 66, 64
2, 82464, Note_on_c, 0, 62, 70
2, 82556, Note_off_c, 0, 62, 64
2, 82560, Note_on_c, 0, 61, 80
2, 82648, Note_off_c, 0, 61, 64
2, 82656, Note_on_c, 0, 59, 72
2, 82744, Note_off_c, 0, 59, 64
2, 82752, Note_on_c, 0, 62, 70
2, 82848, Note_off_c, 0, 62, 64
2, 82848, Note_on_c, 0, 56, 74
2, 82944, Note_off_c, 0, 56, 64
2, 82944, Note_on_c, 0, 57, 73
2, 83516, Note_off_c, 0, 57, 64
2, 83520, Note_on_c, 0, 61, 64
2, 83608, Note_off_c, 0, 61, 64
2, 83616, Note_on_c, 0, 64, 62
2, 83704, Note_off_c, 0, 64, 64
2, 83712, Note_on_c, 0, 69, 60
2, 83808, Note_off_c, 0, 69, 64
2, 83808, Note_on_c, 0, 73, 60
2, 83904, Note_off_c, 0, 73, 64
2, 83904, Note_on_c, 0, 76, 60
2, 84000, Note_off_c, 0, 76, 64
2, 84000, Note_on_c, 0, 81, 60
2, 84096, Note_off_c, 0, 81, 64
2, 84096, Note_on_c, 0, 80, 62
2, 84188, Note_off_c, 0, 80, 64
2, 84192, Note_on_c, 0, 81, 64
2, 84284, Note_off_c, 0, 81, 64
2, 84288, Note_on_c, 0, 80, 65
2, 84380, Note_off_c, 0, 80, 64
2, 84384, Note_on_c, 0, 81, 67
2, 84476, Note_off_c, 0, 81, 64
2, 84480, Note_on_c, 0, 81, 74
2, 84668, Note_off_c, 0, 81, 64
2, 84672, Note_on_c, 0, 71, 60
2, 84860, Note_off_c, 0, 71, 64
2, 84864, Note_on_c, 0, 71, 60
2, 85344, Note_off_c, 0, 71, 64
2, 85344, Note_on_c, 0, 74, 60
2, 85440, Note_off_c, 0, 74, 64
2, 85440, Note_on_c, 0, 78, 60
2, 85536, Note_off_c, 0, 78, 64
2, 85536, Note_on_c, 0, 81, 60
2, 85632, Note_off_c, 0, 81, 64
2, 85632, Note_on_c, 0, 80, 62
2, 85720, Note_off_c, 0, 80, 64
2, 85728, Note_on_c, 0, 81, 64
2, 85816, Note_off_c, 0, 81, 64
2, 85824, Note_on_c, 0, 80, 65
2, 85912, Note_off_c, 0, 80, 64
2, 85920, Note_on_c, 0, 81, 67
2, 86008, Note_off_c, 0, 81, 64
2, 86016, Note_on_c, 0, 81, 74
2, 86204, Note_off_c, 0, 81, 64
2, 86208, Note_on_c, 0, 73, 60
2, 86396, Note_off_c, 0, 73, 64
2, 86400, Note_on_c, 0, 73, 60
2, 86880, Note_off_c, 0, 73, 64
2, 86880, Note_on_c, 0, 76, 60
2, 86976, Note_off_c, 0, 76, 64
2, 86976, Note_on_c, 0, 80, 60
2, 87072, Note_off_c, 0, 80, 64
2, 87072, Note_on_c, 0, 81, 60
2, 87168, Note_off_c, 0, 81, 64
2, 87168, Note_on_c, 0, 80, 62
2, 87256, Note_off_c, 0, 80, 64
2, 87264, Note_on_c, 0, 81, 64
2, 87352, Note_off_c, 0, 81, 64
2, 87360, Note_on_c, 0, 80, 65
2, 87448, Note_off_c, 0, 80, 64
2, 87456, Note_on_c, 0, 81, 67
2, 87544, Note_off_c, 0, 81, 64
2, 87552, Note_on_c, 0, 81, 74
2, 87740, Note_off_c, 0, 81, 64
2, 87744, Note_on_c, 0, 74, 60
2, 87932, Note_off_c, 0, 74, 64
2, 87936, Note_on_c, 0, 74, 60
2, 88416, Note_off_c, 0, 74, 64
2, 88416, Note_on_c, 0, 86, 62
2, 88512, Note_off_c, 0, 86, 64
2, 88512, Note_on_c, 0, 85, 65
2, 88600, Note_off_c, 0, 85, 64
2, 88608, Note_on_c, 0, 86, 67
2, 88696, Note_off_c, 0, 86, 64
2, 88704, Note_on_c, 0, 85, 70
2, 88792, Note_off_c, 0, 85, 64
2, 88800, Note_on_c, 0, 86, 73
2, 88888, Note_off_c, 0, 86, 64
2, 88896, Note_on_c, 0, 85, 76
2, 88984, Note_off_c, 0, 85, 64
2, 88992, Note_on_c, 0, 86, 76
2, 89080, Note_off_c, 0, 86, 64
2, 89088, Note_on_c, 0, 86, 91
2, 89176, Note_off_c, 0, 86, 64
2, 89184, Note_on_c, 0, 83, 77
2, 89272, Note_off_c, 0, 83, 64
2, 89280, Note_on_c, 0, 86, 77
2, 89376, Note_off_c, 0, 86, 64
2, 89376, Note_on_c, 0, 83, 77
2, 89472, Note_off_c, 0, 83, 64
2, 89472, Note_on_c, 0, 80, 91
2, 89560, Note_off_c, 0, 80, 64
2, 89568, Note_on_c, 0, 76, 77
2, 89656, Note_off_c, 0, 76, 64
2, 89664, Note_on_c, 0, 80, 77
2, 89760, Note_off_c, 0, 80, 64
2, 89760, Note_on_c, 0, 76, 77
2, 89856, Note_off_c, 0, 76, 64
2, 89856, Note_on_c, 0, 81, 91
2, 89944, Note_off_c, 0, 81, 64
2, 89952, Note_on_c, 0, 78, 77
2, 90040, Note_off_c, 0, 78, 64
2, 90048, Note_on_c, 0, 81, 77
2, 90144, Note_off_c, 0, 81, 64
2, 90144, Note_on_c, 0, 78, 77
2, 90240, Note_off_c, 0, 78, 64
2, 90240, Note_on_c, 0, 75, 91
2, 90328, Note_off_c, 0, 75, 64
2, 90336, Note_on_c, 0, 71, 77
2, 90424, Note_off_c, 0, 71, 64
2, 90432, Note_on_c, 0, 75, 77
2, 90528, Note_off_c, 0, 75, 64
2, 90528, Note_on_c, 0, 71, 77
2, 90624, Note_off_c, 0, 71, 64
2, 90624, Note_on_c, 0, 76, 60
2, 90712, Note_off_c, 0, 76, 64
2, 90720, Note_on_c, 0, 78, 60
2, 90808, Note_off_c, 0, 78, 64
2, 90816, Note_on_c, 0, 80, 60
2, 90912, Note_off_c, 0, 80, 64
2, 90912, Note_on_c, 0, 81, 60
2, 91008, Note_off_c, 0, 81, 64
2, 91008, Note_on_c, 0, 80, 60
2, 91096, Note_off_c, 0, 80, 64
2, 91104, Note_on_c, 0, 81, 60
2, 91192, Note_off_c, 0, 81, 64
2, 91200, Note_on_c, 0, 80, 60
2, 91288, Note_off_c, 0, 80, 64
2, 91296, Note_on_c, 0, 81, 60
2, 91384, Note_off_c, 0, 81, 64
2, 91392, Note_on_c, 0, 71, 69
2, 91436, Note_off_c, 0, 71, 64
2, 91440, Note_on_c, 0, 73, 69
2, 91484, Note_off_c, 0, 73, 64
2, 91488, Note_on_c, 0, 71, 69
2, 91532, Note_off_c, 0, 71, 64
2, 91536, Note_on_c, 0, 73, 69
2, 91580, Note_off_c, 0, 73, 64
2, 91584, Note_on_c, 0, 71, 69
2, 91628, Note_off_c, 0, 71, 64
2, 91632, Note_on_c, 0, 73, 69
2, 91676, Note_off_c, 0, 73, 64
2, 91680, Note_on_c, 0, 71, 69
2, 91724, Note_off_c, 0, 71, 64
2, 91728, Note_on_c, 0, 73, 69
2, 91772, Note_off_c, 0, 73, 64
2, 91776, Note_on_c, 0, 71, 69
2, 91820, Note_off_c, 0, 71, 64
2, 91824, Note_on_c, 0, 73, 69
2, 91868, Note_off_c, 0, 73, 64
2, 91872, Note_on_c, 0, 71, 69
2, 91916, Note_off_c, 0, 71, 64
2, 91920, Note_on_c, 0, 73, 69
2, 91964, Note_off_c, 0, 73, 64
2, 91968, Note_on_c, 0, 69, 69
2, 92060, Note_off_c, 0, 69, 64
2, 92064, Note_on_c, 0, 71, 69
2, 92156, Note_off_c, 0, 71, 64
2, 92160, Note_on_c, 0, 69, 69
2, 92540, Note_off_c, 0, 69, 64
2, 95220, Control_c, 0, 1, 45
2, 96000, Note_on_c, 0, 69, 77
2, 96568, Note_off_c, 0, 69, 64
2, 96576, Note_on_c, 0, 73, 77
2, 96656, Note_off_c, 0, 73, 64
2, 96672, Note_on_c, 0, 76, 77
2, 96752, Note_off_c, 0, 76, 64
2, 96768, Note_on_c, 0, 81, 79
2, 96952, Note_off_c, 0, 81, 64
2, 97152, Note_on_c, 0, 81, 62
2, 97532, Note_off_c, 0, 81, 64
2, 97536, Note_on_c, 0, 80, 61
2, 97916, Note_off_c, 0, 80, 64
2, 97920, Note_on_c, 0, 78, 60
2, 98300, Note_off_c, 0, 78, 64
2, 98304, Note_on_c, 0, 75, 59
2, 98392, Note_off_c, 0, 75, 64
2, 98400, Note_on_c, 0, 76, 60
2, 98680, Note_off_c, 0, 76, 64
2, 99072, Note_on_c, 0, 76, 77
2, 99640, Note_off_c, 0, 76, 64
2, 99648, Note_on_c, 0, 80, 78
2, 99728, Note_off_c, 0, 80, 64
2, 99744, Note_on_c, 0, 83, 80
2, 99824, Note_off_c, 0, 83, 64
2, 99840, Note_on_c, 0, 86, 82
2, 100024, Note_off_c, 0, 86, 64
2, 100224, Note_on_c, 0, 86, 65
2, 100604, Note_off_c, 0, 86, 64
2, 100608, Note_on_c, 0, 85, 64
2, 100988, Note_off_c, 0, 85, 64
2, 100992, Note_on_c, 0, 83, 63
2, 101372, Note_off_c, 0, 83, 64
2, 101376, Note_on_c, 0, 80, 61
2, 101464, Note_off_c, 0, 80, 64
2, 101472, Note_on_c, 0, 81, 62
2, 101752, Note_off_c, 0, 81, 64
2, 102144, Note_on_c, 0, 81, 79
2, 102712, Note_off_c, 0, 81, 64
2, 102720, Note_on_c, 0, 85, 81
2, 102800, Note_off_c, 0, 85, 64
2, 102816, Note_on_c, 0, 88, 83
2, 102896, Note_off_c, 0, 88, 64
2, 102912, Note_on_c, 0, 93, 76
2, 103292, Note_off_c, 0, 93, 64
2, 103296, Note_on_c, 0, 91, 74
2, 103676, Note_off_c, 0, 91, 64
2, 103680, Note_on_c, 0, 90, 71
2, 104060, Note_off_c, 0, 90, 64
2, 104064, Note_on_c, 0, 89, 69
2, 104444, Note_off_c, 0, 89, 64
2, 104448, Note_on_c, 0, 89, 65
2, 104636, Note_off_c, 0, 89, 64
2, 104640, Note_on_c, 0, 90, 66
2, 104828, Note_off_c, 0, 90, 64
2, 104832, Note_on_c, 0, 90, 66
2, 105596, Note_off_c, 0, 90, 64
2, 105600, Note_on_c, 0, 88, 65
2, 105980, Note_off_c, 0, 88, 64
2, 105984, Note_on_c, 0, 88, 65
2, 106172, Note_off_c, 0, 88, 64
2, 106176, Note_on_c, 0, 86, 65
2, 106364, Note_off_c, 0, 86, 64
2, 106368, Note_on_c, 0, 86, 65
2, 107132, Note_off_c, 0, 86, 64
2, 107136, Note_on_c, 0, 85, 64
2, 107516, Note_off_c, 0, 85, 64
2, 107520, Note_on_c, 0, 83, 63
2, 107608, Note_off_c, 0, 83, 64
2, 107616, Note_on_c, 0, 85, 64
2, 107704, Note_off_c, 0, 85, 64
2, 107712, Note_on_c, 0, 83, 63
2, 107800, Note_off_c, 0, 83, 64
2, 107808, Note_on_c, 0, 82, 62
2, 107896, Note_off_c, 0, 82, 64
2, 107904, Note_on_c, 0, 83, 61
2, 107992, Note_off_c, 0, 83, 64
2, 108000, Note_on_c, 0, 85, 63
2, 108088, Note_off_c, 0, 85, 64
2, 108096, Note_on_c, 0, 83, 65
2, 108184, Note_off_c, 0, 83, 64
2, 108192, Note_on_c, 0, 85, 66
2, 108280, Note_off_c, 0, 85, 64
2, 108288, Note_on_c, 0, 86, 68
2, 108376, Note_off_c, 0, 86, 64
2, 108384, Note_on_c, 0, 88, 70
2, 108472, Note_off_c, 0, 88, 64
2, 108480, Note_on_c, 0, 86, 72
2, 108568, Note_off_c, 0, 86, 64
2, 108576, Note_on_c, 0, 85, 74
2, 108664, Note_off_c, 0, 85, 64
2, 108672, Note_on_c, 0, 86, 76
2, 108760, Note_off_c, 0, 86, 64
2, 108768, Note_on_c, 0, 88, 76
2, 108856, Note_off_c, 0, 88, 64
2, 108864, Note_on_c, 0, 86, 77
2, 108952, Note_off_c, 0, 86, 64
2, 108960, Note_on_c, 0, 88, 79
2, 109048, Note_off_c, 0, 88, 64
2, 109056, Note_on_c, 0, 90, 84
2, 109148, Note_off_c, 0, 90, 64
2, 109152, Note_on_c, 0, 92, 85
2, 109244, Note_off_c, 0, 92, 64
2, 109248, Note_on_c, 0, 93, 86
2, 109340, Note_off_c, 0, 93, 64
2, 109344, Note_on_c, 0, 90, 84
2, 109436, Note_off_c, 0, 90, 64
2, 109440, Note_on_c, 0, 86, 82
2, 109532, Note_off_c, 0, 86, 64
2, 109536, Note_on_c, 0, 88, 83
2, 109628, Note_off_c, 0, 88, 64
2, 109632, Note_on_c, 0, 90, 84
2, 109724, Note_off_c, 0, 90, 64
2, 109728, Note_on_c, 0, 86, 82
2, 109820, Note_off_c, 0, 86, 64
2, 109824, Note_on_c, 0, 83, 81
2, 110204, Note_off_c, 0, 83, 64
2, 110208, Note_on_c, 0, 81, 87
2, 110252, Note_off_c, 0, 81, 64
2, 110256, Note_on_c, 0, 83, 85
2, 110300, Note_off_c, 0, 83, 64
2, 110304, Note_on_c, 0, 81, 83
2, 110348, Note_off_c, 0, 81, 64
2, 110352, Note_on_c, 0, 83, 81
2, 110396, Note_off_c, 0, 83, 64
2, 110400, Note_on_c, 0, 81, 79
2, 110444, Note_off_c, 0, 81, 64
2, 110448, Note_on_c, 0, 83, 79
2, 110492, Note_off_c, 0, 83, 64
2, 110496, Note_on_c, 0, 80, 79
2, 110540, Note_off_c, 0, 80, 64
2, 110544, Note_on_c, 0, 81, 79
2, 110588, Note_off_c, 0, 81, 64
2, 110592, Note_on_c, 0, 80, 77
2, 110972, Note_off_c, 0, 80, 64
2, 113652, Control_c, 0, 1, 45
2, 114048, Note_on_c, 0, 71, 60
2, 114232, Note_off_c, 0, 71, 64
2, 114240, Note_on_c, 0, 71, 60
2, 114424, Note_off_c, 0, 71, 64
2, 114432, Note_on_c, 0, 76, 61
2, 114524, Note_off_c, 0, 76, 64
2, 114528, Note_on_c, 0, 80, 62
2, 114620, Note_off_c, 0, 80, 64
2, 114624, Note_on_c, 0, 78, 65
2, 114716, Note_off_c, 0, 78, 64
2, 114720, Note_on_c, 0, 81, 65
2, 114812, Note_off_c, 0, 81, 64
2, 114816, Note_on_c, 0, 80, 66
2, 114908, Note_off_c, 0, 80, 64
2, 114912, Note_on_c, 0, 83, 66
2, 115004, Note_off_c, 0, 83, 64
2, 115008, Note_on_c, 0, 81, 67
2, 115100, Note_off_c, 0, 81, 64
2, 115104, Note_on_c, 0, 85, 68
2, 115196, Note_off_c, 0, 85, 64
2, 115200, Note_on_c, 0, 83, 69
2, 115288, Note_off_c, 0, 83, 64
2, 115584, Note_on_c, 0, 83, 63
2, 115672, Note_off_c, 0, 83, 64
2, 115776, Note_on_c, 0, 83, 63
2, 115864, Note_off_c, 0, 83, 64
2, 115968, Note_on_c, 0, 85, 64
2, 116060, Note_off_c, 0, 85, 64
2, 116064, Note_on_c, 0, 83, 63
2, 116156, Note_off_c, 0, 83, 64
2, 116160, Note_on_c, 0, 81, 62
2, 116252, Note_off_c, 0, 81, 64
2, 116256, Note_on_c, 0, 80, 61
2, 116348, Note_off_c, 0, 80, 64
2, 116352, Note_on_c, 0, 78, 61
2, 116448, Note_off_c, 0, 78, 64
2, 116544, Note_on_c, 0, 76, 60
2, 116640, Note_off_c, 0, 76, 64
2, 116736, Note_on_c, 0, 81, 62
2, 116924, Note_off_c, 0, 81, 64
2, 116928, Note_on_c, 0, 78, 60
2, 117116, Note_off_c, 0, 78, 64
2, 117120, Note_on_c, 0, 71, 61
2, 117212, Note_off_c, 0, 71, 64
2, 117312, Note_on_c, 0, 71, 62
2, 117404, Note_off_c, 0, 71, 64
2, 117504, Note_on_c, 0, 75, 64
2, 117596, Note_off_c, 0, 75, 64
2, 117600, Note_on_c, 0, 78, 64
2, 117692, Note_off_c, 0, 78, 64
2, 117696, Note_on_c, 0, 76, 65
2, 117788, Note_off_c, 0, 76, 64
2, 117792, Note_on_c, 0, 80, 66
2, 117884, Note_off_c, 0, 80, 64
2, 117888, Note_on_c, 0, 78, 65
2, 117980, Note_off_c, 0, 78, 64
2, 117984, Note_on_c, 0, 81, 66
2, 118076, Note_off_c, 0, 81, 64
2, 118080, Note_on_c, 0, 80, 67
2, 118172, Note_off_c, 0, 80, 64
2, 118176, Note_on_c, 0, 83, 68
2, 118268, Note_off_c, 0, 83, 64
2, 118272, Note_on_c, 0, 81, 69
2, 118368, Note_off_c, 0, 81, 64
2, 118656, Note_on_c, 0, 81, 62
2, 118752, Note_off_c, 0, 81, 64
2, 118848, Note_on_c, 0, 81, 62
2, 118944, Note_off_c, 0, 81, 64
2, 119040, Note_on_c, 0, 83, 63
2, 119132, Note_off_c, 0, 83, 64
2, 119136, Note_on_c, 0, 81, 62
2, 119228, Note_off_c, 0, 81, 64
2, 119232, Note_on_c, 0, 80, 61
2, 119324, Note_off_c, 0, 80, 64
2, 119328, Note_on_c, 0, 78, 60
2, 119420, Note_off_c, 0, 78, 64
2, 119424, Note_on_c, 0, 76, 60
2, 119520, Note_off_c, 0, 76, 64
2, 119616, Note_on_c, 0, 75, 60
2, 119712, Note_off_c, 0, 75, 64
2, 119808, Note_on_c, 0, 83, 63
2, 119996, Note_off_c, 0, 83, 64
2, 120000, Note_on_c, 0, 80, 61
2, 120188, Note_off_c, 0, 80, 64
2, 120576, Note_on_c, 0, 88, 82
2, 120764, Note_off_c, 0, 88, 64
2, 120768, Note_on_c, 0, 83, 69
2, 120956, Note_off_c, 0, 83, 64
2, 121344, Note_on_c, 0, 85, 82
2, 121532, Note_off_c, 0, 85, 64
2, 121536, Note_on_c, 0, 81, 69
2, 121724, Note_off_c, 0, 81, 64
2, 122112, Note_on_c, 0, 81, 82
2, 122300, Note_off_c, 0, 81, 64
2, 122304, Note_on_c, 0, 78, 69
2, 122492, Note_off_c, 0, 78, 64
2, 122880, Note_on_c, 0, 82, 69
2, 122972, Note_off_c, 0, 82, 64
2, 122976, Note_on_c, 0, 83, 68
2, 123068, Note_off_c, 0, 83, 64
2, 123072, Note_on_c, 0, 82, 67
2, 123164, Note_off_c, 0, 82, 64
2, 123168, Note_on_c, 0, 83, 66
2, 123260, Note_off_c, 0, 83, 64
2, 123264, Note_on_c, 0, 82, 65
2, 123356, Note_off_c, 0, 82, 64
2, 123360, Note_on_c, 0, 83, 64
2, 123452, Note_off_c, 0, 83, 64
2, 123456, Note_on_c, 0, 82, 63
2, 123548, Note_off_c, 0, 82, 64
2, 123552, Note_on_c, 0, 83, 62
2, 123644, Note_off_c, 0, 83, 64
2, 123648, Note_on_c, 0, 71, 61
2, 124028, Note_off_c, 0, 71, 64
2, 124032, Note_on_c, 0, 83, 60
2, 124124, Note_off_c, 0, 83, 64
2, 124128, Note_on_c, 0, 81, 60
2, 124220, Note_off_c, 0, 81, 64
2, 124224, Note_on_c, 0, 80, 60
2, 124316, Note_off_c, 0, 80, 64
2, 124320, Note_on_c, 0, 78, 60
2, 124412, Note_off_c, 0, 78, 64
2, 124416, Note_on_c, 0, 76, 60
2, 124512, Note_off_c, 0, 76, 64
2, 124800, Note_on_c, 0, 76, 60
2, 124896, Note_off_c, 0, 76, 64
2, 125184, Note_on_c, 0, 76, 60
2, 125280, Note_off_c, 0, 76, 64
2, 125568, Note_on_c, 0, 85, 60
2, 125660, Note_off_c, 0, 85, 64
2, 125664, Note_on_c, 0, 83, 60
2, 125756, Note_off_c, 0, 83, 64
2, 125760, Note_on_c, 0, 81, 60
2, 125852, Note_off_c, 0, 81, 64
2, 125856, Note_on_c, 0, 80, 60
2, 125948, Note_off_c, 0, 80, 64
2, 125952, Note_on_c, 0, 78, 60
2, 126048, Note_off_c, 0, 78, 64
2, 126336, Note_on_c, 0, 78, 60
2, 126432, Note_off_c, 0, 78, 64
2, 126720, Note_on_c, 0, 78, 60
2, 126816, Note_off_c, 0, 78, 64
2, 127104, Note_on_c, 0, 83, 60
2, 127196, Note_off_c, 0, 83, 64
2, 127200, Note_on_c, 0, 81, 60
2, 127292, Note_off_c, 0, 81, 64
2, 127296, Note_on_c, 0, 80, 60
2, 127388, Note_off_c, 0, 80, 64
2, 127392, Note_on_c, 0, 78, 60
2, 127484, Note_off_c, 0, 78, 64
2, 127488, Note_on_c, 0, 76, 63
2, 128252, Note_off_c, 0, 76, 64
2, 128256, Note_on_c, 0, 80, 65
2, 128636, Note_off_c, 0, 80, 64
2, 128640, Note_on_c, 0, 83, 68
2, 129020, Note_off_c, 0, 83, 64
2, 129024, Note_on_c, 0, 71, 70
2, 130172, Note_off_c, 0, 71, 64
2, 130176, Note_on_c, 0, 71, 60
2, 130268, Note_off_c, 0, 71, 64
2, 130272, Note_on_c, 0, 69, 60
2, 130364, Note_off_c, 0, 69, 64
2, 130368, Note_on_c, 0, 68, 60
2, 130460, Note_off_c, 0, 68, 64
2, 130464, Note_on_c, 0, 66, 60
2, 130556, Note_off_c, 0, 66, 64
2, 130560, Note_on_c, 0, 64, 60
2, 130656, Note_off_c, 0, 64, 64
2, 130752, Note_on_c, 0, 64, 60
2, 130848, Note_off_c, 0, 64, 64
2, 130944, Note_on_c, 0, 64, 60
2, 131040, Note_off_c, 0, 64, 64
2, 131136, Note_on_c, 0, 64, 60
2, 131232, Note_off_c, 0, 64, 64
2, 131328, Note_on_c, 0, 64, 60
2, 131708, Note_off_c, 0, 64, 64
2, 131712, Note_on_c, 0, 73, 60
2, 131804, Note_off_c, 0, 73, 64
2, 131808, Note_on_c, 0, 71, 60
2, 131900, Note_off_c, 0, 71, 64
2, 131904, Note_on_c, 0, 69, 60
2, 131996, Note_off_c, 0, 69, 64
2, 132000, Note_on_c, 0, 68, 60
2, 132092, Note_off_c, 0, 68, 64
2, 132096, Note_on_c, 0, 66, 60
2, 132192, Note_off_c, 0, 66, 64
2, 132288, Note_on_c, 0, 66, 60
2, 132384, Note_off_c, 0, 66, 64
2, 132480, Note_on_c, 0, 66, 60
2, 132576, Note_off_c, 0, 66, 64
2, 132672, Note_on_c, 0, 66, 60
2, 132768, Note_off_c, 0, 66, 64
2, 132864, Note_on_c, 0, 66, 60
2, 133244, Note_off_c, 0, 66, 64
2, 133248, Note_on_c, 0, 71, 60
2, 133340, Note_off_c, 0, 71, 64
2, 133344, Note_on_c, 0, 69, 60
2, 133436, Note_off_c, 0, 69, 64
2, 133440, Note_on_c, 0, 68, 60
2, 133532, Note_off_c, 0, 68, 64
2, 133536, Note_on_c, 0, 66, 60
2, 133628, Note_off_c, 0, 66, 64
2, 133632, Note_on_c, 0, 64, 60
2, 133728, Note_off_c, 0, 64, 64
2, 133824, Note_on_c, 0, 64, 60
2, 133920, Note_off_c, 0, 64, 64
2, 134016, Note_on_c, 0, 64, 60
2, 134112, Note_off_c, 0, 64, 64
2, 134208, Note_on_c, 0, 64, 61
2, 134304, Note_off_c, 0, 64, 64
2, 134400, Note_on_c, 0, 68, 63
2, 134496, Note_off_c, 0, 68, 64
2, 134592, Note_on_c, 0, 68, 65
2, 134688, Note_off_c, 0, 68, 64
2, 134784, Note_on_c, 0, 71, 66
2, 134880, Note_off_c, 0, 71, 64
2, 134976, Note_on_c, 0, 71, 68
2, 135072, Note_off_c, 0, 71, 64
2, 135168, Note_on_c, 0, 59, 70
2, 136316, Note_off_c, 0, 59, 64
2, 136320, Note_on_c, 0, 83, 80
2, 136700, Note_off_c, 0, 83, 64
2, 136704, Note_on_c, 0, 81, 81
2, 136792, Note_off_c, 0, 81, 64
2, 136800, Note_on_c, 0, 76, 78
2, 136888, Note_off_c, 0, 76, 64
2, 136896, Note_on_c, 0, 85, 83
2, 136936, Note_off_c, 0, 85, 64
2, 136992, Note_on_c, 0, 76, 78
2, 137032, Note_off_c, 0, 76, 64
2, 137088, Note_on_c, 0, 88, 85
2, 137276, Note_off_c, 0, 88, 64
2, 137472, Note_on_c, 0, 83, 63
2, 137564, Note_off_c, 0, 83, 64
2, 137568, Note_on_c, 0, 81, 62
2, 137660, Note_off_c, 0, 81, 64
2, 137664, Note_on_c, 0, 80, 61
2, 137756, Note_off_c, 0, 80, 64
2, 137760, Note_on_c, 0, 81, 62
2, 137852, Note_off_c, 0, 81, 64
2, 137856, Note_on_c, 0, 83, 63
2, 137948, Note_off_c, 0, 83, 64
2, 137952, Note_on_c, 0, 81, 62
2, 138044, Note_off_c, 0, 81, 64
2, 138048, Note_on_c, 0, 80, 61
2, 138140, Note_off_c, 0, 80, 64
2, 138144, Note_on_c, 0, 81, 62
2, 138236, Note_off_c, 0, 81, 64
2, 138240, Note_on_c, 0, 80, 78
2, 138328, Note_off_c, 0, 80, 64
2, 138336, Note_on_c, 0, 76, 76
2, 138424, Note_off_c, 0, 76, 64
2, 138432, Note_on_c, 0, 83, 80
2, 138476, Note_off_c, 0, 83, 64
2, 138528, Note_on_c, 0, 76, 76
2, 138572, Note_off_c, 0, 76, 64
2, 138624, Note_on_c, 0, 88, 83
2, 138716, Note_off_c, 0, 88, 64
2, 139008, Note_on_c, 0, 81, 62
2, 139096, Note_off_c, 0, 81, 64
2, 139104, Note_on_c, 0, 80, 61
2, 139196, Note_off_c, 0, 80, 64
2, 139200, Note_on_c, 0, 78, 60
2, 139292, Note_off_c, 0, 78, 64
2, 139296, Note_on_c, 0, 80, 61
2, 139388, Note_off_c, 0, 80, 64
2, 139392, Note_on_c, 0, 81, 62
2, 139484, Note_off_c, 0, 81, 64
2, 139488, Note_on_c, 0, 80, 61
2, 139580, Note_off_c, 0, 80, 64
2, 139584, Note_on_c, 0, 78, 60
2, 139676, Note_off_c, 0, 78, 64
2, 139680, Note_on_c, 0, 80, 61
2, 139772, Note_off_c, 0, 80, 64
2, 139776, Note_on_c, 0, 80, 87
2, 139828, Note_off_c, 0, 80, 64
2, 139836, Note_on_c, 0, 78, 77
2, 140156, Note_off_c, 0, 78, 64
2, 140160, Note_on_c, 0, 78, 60
2, 140292, Note_off_c, 0, 78, 64
2, 140448, Note_on_c, 0, 78, 68
2, 140488, Note_off_c, 0, 78, 64
2, 140544, Note_on_c, 0, 78, 60
2, 140924, Note_off_c, 0, 78, 64
2, 140928, Note_on_c, 0, 78, 60
2, 141308, Note_off_c, 0, 78, 64
2, 141312, Note_on_c, 0, 78, 65
2, 141692, Note_off_c, 0, 78, 64
2, 141696, Note_on_c, 0, 81, 69
2, 141884, Note_off_c, 0, 81, 64
2, 141888, Note_on_c, 0, 85, 74
2, 141984, Note_off_c, 0, 85, 64
2, 142080, Note_on_c, 0, 85, 74
2, 142268, Note_off_c, 0, 85, 64
2, 142272, Note_on_c, 0, 83, 69
2, 142460, Note_off_c, 0, 83, 64
2, 142464, Note_on_c, 0, 81, 66
2, 142560, Note_off_c, 0, 81, 64
2, 142656, Note_on_c, 0, 80, 64
2, 142752, Note_off_c, 0, 80, 64
2, 142848, Note_on_c, 0, 78, 60
2, 142944, Note_off_c, 0, 78, 64
2, 143232, Note_on_c, 0, 76, 60
2, 143328, Note_off_c, 0, 76, 64
2, 143616, Note_on_c, 0, 78, 60
2, 143712, Note_off_c, 0, 78, 64
2, 144000, Note_on_c, 0, 80, 60
2, 144096, Note_off_c, 0, 80, 64
2, 144384, Note_on_c, 0, 76, 60
2, 144956, Note_off_c, 0, 76, 64
2, 144960, Note_on_c, 0, 80, 61
2, 145048, Note_off_c, 0, 80, 64
2, 145056, Note_on_c, 0, 83, 63
2, 145144, Note_off_c, 0, 83, 64
2, 145152, Note_on_c, 0, 88, 65
2, 145532, Note_off_c, 0, 88, 64
2, 145536, Note_on_c, 0, 73, 60
2, 145628, Note_off_c, 0, 73, 64
2, 145632, Note_on_c, 0, 71, 60
2, 145724, Note_off_c, 0, 71, 64
2, 145728, Note_on_c, 0, 69, 60
2, 145820, Note_off_c, 0, 69, 64
2, 145824, Note_on_c, 0, 68, 60
2, 145916, Note_off_c, 0, 68, 64
2, 145920, Note_on_c, 0, 68, 69
2, 145972, Note_off_c, 0, 68, 64
2, 145980, Note_on_c, 0, 66, 60
2, 146260, Note_off_c, 0, 66, 64
2, 146304, Note_on_c, 0, 66, 60
2, 146448, Note_off_c, 0, 66, 64
2, 146592, Note_on_c, 0, 66, 60
2, 146640, Note_off_c, 0, 66, 64
2, 146688, Note_on_c, 0, 66, 60
2, 147068, Note_off_c, 0, 66, 64
2, 147072, Note_on_c, 0, 66, 60
2, 147264, Note_off_c, 0, 66, 64
2, 147456, Note_on_c, 0, 66, 65
2, 147836, Note_off_c, 0, 66, 64
2, 147840, Note_on_c, 0, 69, 69
2, 148028, Note_off_c, 0, 69, 64
2, 148032, Note_on_c, 0, 73, 74
2, 148220, Note_off_c, 0, 73, 64
2, 148224, Note_on_c, 0, 73, 74
2, 148412, Note_off_c, 0, 73, 64
2, 148416, Note_on_c, 0, 71, 69
2, 148604, Note_off_c, 0, 71, 64
2, 148608, Note_on_c, 0, 69, 66
2, 148704, Note_off_c, 0, 69, 64
2, 148800, Note_on_c, 0, 68, 64
2, 148896, Note_off_c, 0, 68, 64
2, 148992, Note_on_c, 0, 66, 60
2, 149088, Note_off_c, 0, 66, 64
2, 149376, Note_on_c, 0, 64, 60
2, 149472, Note_off_c, 0, 64, 64
2, 149760, Note_on_c, 0, 66, 60
2, 149856, Note_off_c, 0, 66, 64
2, 150144, Note_on_c, 0, 68, 60
2, 150240, Note_off_c, 0, 68, 64
2, 150528, Note_on_c, 0, 64, 77
2, 150616, Note_off_c, 0, 64, 64
2, 150624, Note_on_c, 0, 76, 77
2, 150716, Note_off_c, 0, 76, 64
2, 150720, Note_on_c, 0, 75, 77
2, 150812, Note_off_c, 0, 75, 64
2, 150816, Note_on_c, 0, 76, 77
2, 150908, Note_off_c, 0, 76, 64
2, 150912, Note_on_c, 0, 75, 77
2, 151000, Note_off_c, 0, 75, 64
2, 151008, Note_on_c, 0, 76, 77
2, 151096, Note_off_c, 0, 76, 64
2, 151104, Note_on_c, 0, 73, 77
2, 151192, Note_off_c, 0, 73, 64
2, 151200, Note_on_c, 0, 76, 77
2, 151288, Note_off_c, 0, 76, 64
2, 151296, Note_on_c, 0, 71, 77
2, 151336, Note_off_c, 0, 71, 64
2, 151392, Note_on_c, 0, 76, 77
2, 151480, Note_off_c, 0, 76, 64
2, 151488, Note_on_c, 0, 75, 77
2, 151576, Note_off_c, 0, 75, 64
2, 151584, Note_on_c, 0, 76, 77
2, 151672, Note_off_c, 0, 76, 64
2, 151680, Note_on_c, 0, 75, 77
2, 151768, Note_off_c, 0, 75, 64
2, 151776, Note_on_c, 0, 76, 77
2, 151864, Note_off_c, 0, 76, 64
2, 151872, Note_on_c, 0, 81, 79
2, 151960, Note_off_c, 0, 81, 64
2, 151968, Note_on_c, 0, 76, 77
2, 152056, Note_off_c, 0, 76, 64
2, 152064, Note_on_c, 0, 80, 78
2, 152104, Note_off_c, 0, 80, 64
2, 152160, Note_on_c, 0, 76, 77
2, 152248, Note_off_c, 0, 76, 64
2, 152256, Note_on_c, 0, 75, 77
2, 152344, Note_off_c, 0, 75, 64
2, 152352, Note_on_c, 0, 76, 77
2, 152440, Note_off_c, 0, 76, 64
2, 152448, Note_on_c, 0, 75, 77
2, 152536, Note_off_c, 0, 75, 64
2, 152544, Note_on_c, 0, 76, 77
2, 152632, Note_off_c, 0, 76, 64
2, 152640, Note_on_c, 0, 73, 77
2, 152728, Note_off_c, 0, 73, 64
2, 152736, Note_on_c, 0, 76, 77
2, 152824, Note_off_c, 0, 76, 64
2, 152832, Note_on_c, 0, 71, 77
2, 152872, Note_off_c, 0, 71, 64
2, 152928, Note_on_c, 0, 76, 77
2, 153016, Note_off_c, 0, 76, 64
2, 153024, Note_on_c, 0, 75, 77
2, 153112, Note_off_c, 0, 75, 64
2, 153120, Note_on_c, 0, 76, 77
2, 153208, Note_off_c, 0, 76, 64
2, 153216, Note_on_c, 0, 75, 77
2, 153304, Note_off_c, 0, 75, 64
2, 153312, Note_on_c, 0, 76, 77
2, 153400, Note_off_c, 0, 76, 64
2, 153408, Note_on_c, 0, 81, 79
2, 153496, Note_off_c, 0, 81, 64
2, 153504, Note_on_c, 0, 76, 77
2, 153592, Note_off_c, 0, 76, 64
2, 153600, Note_on_c, 0, 80, 78
2, 153688, Note_off_c, 0, 80, 64
2, 153696, Note_on_c, 0, 78, 77
2, 153784, Note_off_c, 0, 78, 64
2, 153792, Note_on_c, 0, 76, 77
2, 153888, Note_off_c, 0, 76, 64
2, 153888, Note_on_c, 0, 75, 77
2, 153984, Note_off_c, 0, 75, 64
2, 153984, Note_on_c, 0, 76, 77
2, 154080, Note_off_c, 0, 76, 64
2, 154080, Note_on_c, 0, 78, 77
2, 154176, Note_off_c, 0, 78, 64
2, 154176, Note_on_c, 0, 80, 78
2, 154272, Note_off_c, 0, 80, 64
2, 154272, Note_on_c, 0, 81, 79
2, 154368, Note_off_c, 0, 81, 64
2, 154368, Note_on_c, 0, 83, 80
2, 154464, Note_off_c, 0, 83, 64
2, 154464, Note_on_c, 0, 81, 79
2, 154560, Note_off_c, 0, 81, 64
2, 154560, Note_on_c, 0, 80, 78
2, 154656, Note_off_c, 0, 80, 64
2, 154656, Note_on_c, 0, 78, 77
2, 154752, Note_off_c, 0, 78, 64
2, 154752, Note_on_c, 0, 80, 78
2, 154848, Note_off_c, 0, 80, 64
2, 154848, Note_on_c, 0, 81, 79
2, 154944, Note_off_c, 0, 81, 64
2, 154944, Note_on_c, 0, 83, 80
2, 155040, Note_off_c, 0, 83, 64
2, 155040, Note_on_c, 0, 85, 81
2, 155136, Note_off_c, 0, 85, 64
2, 155136, Note_on_c, 0, 86, 82
2, 155900, Note_off_c, 0, 86, 64
2, 155904, Note_on_c, 0, 85, 81
2, 156272, Note_on_c, 0, 84, 80
2, 156284, Note_off_c, 0, 85, 64
2, 156652, Note_off_c, 0, 84, 64
2, 156672, Note_on_c, 0, 85, 81
2, 157436, Note_off_c, 0, 85, 64
2, 157440, Note_on_c, 0, 83, 80
2, 157820, Note_off_c, 0, 83, 64
2, 157824, Note_on_c, 0, 82, 79
2, 158204, Note_off_c, 0, 82, 64
2, 158208, Note_on_c, 0, 83, 91
2, 158488, Note_off_c, 0, 83, 64
2, 158496, Note_on_c, 0, 76, 77
2, 158584, Note_off_c, 0, 76, 64
2, 158592, Note_on_c, 0, 81, 79
2, 158872, Note_off_c, 0, 81, 64
2, 158880, Note_on_c, 0, 78, 77
2, 158964, Note_off_c, 0, 78, 64
2, 158976, Note_on_c, 0, 78, 77
2, 159020, Note_off_c, 0, 78, 64
2, 159024, Note_on_c, 0, 80, 77
2, 159068, Note_off_c, 0, 80, 64
2, 159072, Note_on_c, 0, 78, 77
2, 159116, Note_off_c, 0, 78, 64
2, 159120, Note_on_c, 0, 80, 77
2, 159164, Note_off_c, 0, 80, 64
2, 159168, Note_on_c, 0, 78, 77
2, 159212, Note_off_c, 0, 78, 64
2, 159216, Note_on_c, 0, 80, 77
2, 159260, Note_off_c, 0, 80, 64
2, 159264, Note_on_c, 0, 78, 77
2, 159308, Note_off_c, 0, 78, 64
2, 159312, Note_on_c, 0, 80, 77
2, 159356, Note_off_c, 0, 80, 64
2, 159360, Note_on_c, 0, 78, 77
2, 159404, Note_off_c, 0, 78, 64
2, 159408, Note_on_c, 0, 80, 77
2, 159452, Note_off_c, 0, 80, 64
2, 159456, Note_on_c, 0, 78, 77
2, 159500, Note_off_c, 0, 78, 64
2, 159504, Note_on_c, 0, 80, 77
2, 159548, Note_off_c, 0, 80, 64
2, 159552, Note_on_c, 0, 76, 77
2, 159640, Note_off_c, 0, 76, 64
2, 159648, Note_on_c, 0, 78, 77
2, 159736, Note_off_c, 0, 78, 64
2, 159744, Note_on_c, 0, 80, 77
2, 159832, Note_off_c, 0, 80, 64
2, 159840, Note_on_c, 0, 78, 74
2, 159928, Note_off_c, 0, 78, 64
2, 159936, Note_on_c, 0, 76, 69
2, 160032, Note_off_c, 0, 76, 64
2, 160032, Note_on_c, 0, 75, 65
2, 160128, Note_off_c, 0, 75, 64
2, 160128, Note_on_c, 0, 76, 60
2, 160224, Note_off_c, 0, 76, 64
2, 160224, Note_on_c, 0, 78, 61
2, 160320, Note_off_c, 0, 78, 64
2, 160320, Note_on_c, 0, 80, 64
2, 160416, Note_off_c, 0, 80, 64
2, 160416, Note_on_c, 0, 81, 66
2, 160512, Note_off_c, 0, 81, 64
2, 160512, Note_on_c, 0, 83, 69
2, 160608, Note_off_c, 0, 83, 64
2, 160608, Note_on_c, 0, 81, 69
2, 160704, Note_off_c, 0, 81, 64
2, 160704, Note_on_c, 0, 80, 68
2, 160800, Note_off_c, 0, 80, 64
2, 160800, Note_on_c, 0, 78, 71
2, 160896, Note_off_c, 0, 78, 64
2, 160896, Note_on_c, 0, 80, 74
2, 160992, Note_off_c, 0, 80, 64
2, 160992, Note_on_c, 0, 81, 76
2, 161088, Note_off_c, 0, 81, 64
2, 161088, Note_on_c, 0, 83, 78
2, 161184, Note_off_c, 0, 83, 64
2, 161184, Note_on_c, 0, 85, 81
2, 161280, Note_off_c, 0, 85, 64
2, 161280, Note_on_c, 0, 86, 82
2, 162044, Note_off_c, 0, 86, 64
2, 162048, Note_on_c, 0, 85, 77
2, 162428, Note_off_c, 0, 85, 64
2, 162432, Note_on_c, 0, 84, 77
2, 162812, Note_off_c, 0, 84, 64
2, 162816, Note_on_c, 0, 85, 77
2, 163580, Note_off_c, 0, 85, 64
2, 163584, Note_on_c, 0, 83, 77
2, 163964, Note_off_c, 0, 83, 64
2, 163968, Note_on_c, 0, 82, 77
2, 164348, Note_off_c, 0, 82, 64
2, 164352, Note_on_c, 0, 83, 91
2, 164632, Note_off_c, 0, 83, 64
2, 164640, Note_on_c, 0, 76, 77
2, 164728, Note_off_c, 0, 76, 64
2, 164736, Note_on_c, 0, 81, 91
2, 165016, Note_off_c, 0, 81, 64
2, 165024, Note_on_c, 0, 78, 77
2, 165112, Note_off_c, 0, 78, 64
2, 165120, Note_on_c, 0, 78, 77
2, 165164, Note_off_c, 0, 78, 64
2, 165168, Note_on_c, 0, 80, 77
2, 165212, Note_off_c, 0, 80, 64
2, 165216, Note_on_c, 0, 78, 77
2, 165260, Note_off_c, 0, 78, 64
2, 165264, Note_on_c, 0, 80, 77
2, 165308, Note_off_c, 0, 80, 64
2, 165312, Note_on_c, 0, 78, 77
2, 165356, Note_off_c, 0, 78, 64
2, 165360, Note_on_c, 0, 80, 77
2, 165404, Note_off_c, 0, 80, 64
2, 165408, Note_on_c, 0, 78, 77
2, 165452, Note_off_c, 0, 78, 64
2, 165456, Note_on_c, 0, 80, 77
2, 165500, Note_off_c, 0, 80, 64
2, 165504, Note_on_c, 0, 78, 77
2, 165548, Note_off_c, 0, 78, 64
2, 165552, Note_on_c, 0, 80, 77
2, 165596, Note_off_c, 0, 80, 64
2, 165600, Note_on_c, 0, 78, 77
2, 165644, Note_off_c, 0, 78, 64
2, 165648, Note_on_c, 0, 80, 77
2, 165692, Note_off_c, 0, 80, 64
2, 165696, Note_on_c, 0, 76, 77
2, 165784, Note_off_c, 0, 76, 64
2, 165792, Note_on_c, 0, 78, 77
2, 165880, Note_off_c, 0, 78, 64
2, 165888, Note_on_c, 0, 80, 78
2, 165976, Note_off_c, 0, 80, 64
2, 165984, Note_on_c, 0, 83, 80
2, 166072, Note_off_c, 0, 83, 64
2, 166080, Note_on_c, 0, 81, 79
2, 166176, Note_off_c, 0, 81, 64
2, 166176, Note_on_c, 0, 80, 78
2, 166272, Note_off_c, 0, 80, 64
2, 166272, Note_on_c, 0, 81, 79
2, 166368, Note_off_c, 0, 81, 64
2, 166368, Note_on_c, 0, 83, 80
2, 166464, Note_off_c, 0, 83, 64
2, 166464, Note_on_c, 0, 85, 81
2, 166560, Note_off_c, 0, 85, 64
2, 166560, Note_on_c, 0, 87, 82
2, 166656, Note_off_c, 0, 87, 64
2, 166656, Note_on_c, 0, 88, 83
2, 166752, Note_off_c, 0, 88, 64
2, 166752, Note_on_c, 0, 87, 82
2, 166848, Note_off_c, 0, 87, 64
2, 166848, Note_on_c, 0, 85, 81
2, 166944, Note_off_c, 0, 85, 64
2, 166944, Note_on_c, 0, 83, 80
2, 167040, Note_off_c, 0, 83, 64
2, 167040, Note_on_c, 0, 85, 81
2, 167136, Note_off_c, 0, 85, 64
2, 167136, Note_on_c, 0, 87, 82
2, 167232, Note_off_c, 0, 87, 64
2, 167232, Note_on_c, 0, 88, 83
2, 167328, Note_off_c, 0, 88, 64
2, 167328, Note_on_c, 0, 90, 84
2, 167424, Note_off_c, 0, 90, 64
2, 167424, Note_on_c, 0, 92, 85
2, 167608, Note_off_c, 0, 92, 64
2, 167616, Note_on_c, 0, 88, 83
2, 167800, Note_off_c, 0, 88, 64
2, 167808, Note_on_c, 0, 88, 83
2, 167992, Note_off_c, 0, 88, 64
2, 168000, Note_on_c, 0, 83, 80
2, 168184, Note_off_c, 0, 83, 64
2, 168192, Note_on_c, 0, 83, 80
2, 168376, Note_off_c, 0, 83, 64
2, 168384, Note_on_c, 0, 80, 78
2, 168568, Note_off_c, 0, 80, 64
2, 168576, Note_on_c, 0, 80, 78
2, 168760, Note_off_c, 0, 80, 64
2, 168768, Note_on_c, 0, 76, 76
2, 168952, Note_off_c, 0, 76, 64
2, 168960, Note_on_c, 0, 59, 82
2, 169148, Note_off_c, 0, 59, 64
2, 169344, Note_on_c, 0, 83, 91
2, 169808, Note_on_c, 0, 85, 81
2, 169820, Note_off_c, 0, 83, 64
2, 169896, Note_off_c, 0, 85, 64
2, 169920, Note_on_c, 0, 87, 82
2, 170008, Note_off_c, 0, 87, 64
2, 170016, Note_on_c, 0, 88, 83
2, 170104, Note_off_c, 0, 88, 64
2, 170112, Note_on_c, 0, 87, 82
2, 170200, Note_off_c, 0, 87, 64
2, 170208, Note_on_c, 0, 88, 83
2, 170296, Note_off_c, 0, 88, 64
2, 170304, Note_on_c, 0, 87, 82
2, 170392, Note_off_c, 0, 87, 64
2, 170400, Note_on_c, 0, 88, 83
2, 170488, Note_off_c, 0, 88, 64
2, 170496, Note_on_c, 0, 78, 84
2, 170540, Note_off_c, 0, 78, 64
2, 170544, Note_on_c, 0, 80, 84
2, 170588, Note_off_c, 0, 80, 64
2, 170592, Note_on_c, 0, 78, 84
2, 170636, Note_off_c, 0, 78, 64
2, 170640, Note_on_c, 0, 80, 84
2, 170684, Note_off_c, 0, 80, 64
2, 170688, Note_on_c, 0, 78, 84
2, 170732, Note_off_c, 0, 78, 64
2, 170736, Note_on_c, 0, 80, 84
2, 170780, Note_off_c, 0, 80, 64
2, 170784, Note_on_c, 0, 78, 84
2, 170828, Note_off_c, 0, 78, 64
2, 170832, Note_on_c, 0, 80, 84
2, 170876, Note_off_c, 0, 80, 64
2, 170880, Note_on_c, 0, 78, 84
2, 170924, Note_off_c, 0, 78, 64
2, 170928, Note_on_c, 0, 80, 84
2, 170972, Note_off_c, 0, 80, 64
2, 170976, Note_on_c, 0, 78, 84
2, 171020, Note_off_c, 0, 78, 64
2, 171024, Note_on_c, 0, 80, 84
2, 171068, Note_off_c, 0, 80, 64
2, 171072, Note_on_c, 0, 78, 84
2, 171116, Note_off_c, 0, 78, 64
2, 171120, Note_on_c, 0, 80, 84
2, 171164, Note_off_c, 0, 80, 64
2, 171168, Note_on_c, 0, 78, 84
2, 171212, Note_off_c, 0, 78, 64
2, 171216, Note_on_c, 0, 80, 84
2, 171260, Note_off_c, 0, 80, 64
2, 171264, Note_on_c, 0, 78, 84
2, 171308, Note_off_c, 0, 78, 64
2, 171312, Note_on_c, 0, 80, 84
2, 171356, Note_off_c, 0, 80, 64
2, 171360, Note_on_c, 0, 78, 84
2, 171404, Note_off_c, 0, 78, 64
2, 171408, Note_on_c, 0, 80, 84
2, 171452, Note_off_c, 0, 80, 64
2, 171456, Note_on_c, 0, 78, 84
2, 171500, Note_off_c, 0, 78, 64
2, 171504, Note_on_c, 0, 80, 84
2, 171548, Note_off_c, 0, 80, 64
2, 171552, Note_on_c, 0, 78, 84
2, 171596, Note_off_c, 0, 78, 64
2, 171600, Note_on_c, 0, 80, 84
2, 171644, Note_off_c, 0, 80, 64
2, 171648, Note_on_c, 0, 78, 84
2, 171692, Note_off_c, 0, 78, 64
2, 171696, Note_on_c, 0, 80, 84
2, 171740, Note_off_c, 0, 80, 64
2, 171744, Note_on_c, 0, 78, 84
2, 171788, Note_off_c, 0, 78, 64
2, 171792, Note_on_c, 0, 80, 84
2, 171836, Note_off_c, 0, 80, 64
2, 171840, Note_on_c, 0, 76, 85
2, 171928, Note_off_c, 0, 76, 64
2, 171936, Note_on_c, 0, 78, 86
2, 172024, Note_off_c, 0, 78, 64
2, 172032, Note_on_c, 0, 76, 85
2, 172412, Note_off_c, 0, 76, 64
2, 181236, Control_c, 0, 1, 45
2, 181248, Note_on_c, 0, 80, 77
2, 182012, Note_off_c, 0, 80, 64
2, 182016, Note_on_c, 0, 75, 77
2, 182396, Note_off_c, 0, 75, 64
2, 182400, Note_on_c, 0, 78, 77
2, 182780, Note_off_c, 0, 78, 64
2, 182784, Note_on_c, 0, 78, 77
2, 182972, Note_off_c, 0, 78, 64
2, 182976, Note_on_c, 0, 76, 77
2, 183164, Note_off_c, 0, 76, 64
2, 183168, Note_on_c, 0, 76, 77
2, 183740, Note_off_c, 0, 76, 64
2, 183744, Note_on_c, 0, 78, 77
2, 183836, Note_off_c, 0, 78, 64
2, 183840, Note_on_c, 0, 76, 77
2, 183932, Note_off_c, 0, 76, 64
2, 183936, Note_on_c, 0, 75, 77
2, 184124, Note_off_c, 0, 75, 64
2, 184128, Note_on_c, 0, 73, 77
2, 184316, Note_off_c, 0, 73, 64
2, 184320, Note_on_c, 0, 73, 77
2, 184508, Note_off_c, 0, 73, 64
2, 184512, Note_on_c, 0, 72, 77
2, 184700, Note_off_c, 0, 72, 64
2, 184704, Note_on_c, 0, 72, 77
2, 185472, Note_on_c, 0, 72, 77
2, 185852, Note_off_c, 0, 72, 64
2, 185852, Note_off_c, 0, 72, 64
2, 185856, Note_on_c, 0, 73, 77
2, 186136, Note_off_c, 0, 73, 64
2, 186144, Note_on_c, 0, 73, 80
2, 186188, Note_off_c, 0, 73, 64
2, 186192, Note_on_c, 0, 75, 82
2, 186236, Note_off_c, 0, 75, 64
2, 186240, Note_on_c, 0, 73, 79
2, 186284, Note_off_c, 0, 73, 64
2, 186288, Note_on_c, 0, 71, 76
2, 186332, Note_off_c, 0, 71, 64
2, 186336, Note_on_c, 0, 73, 80
2, 186424, Note_off_c, 0, 73, 64
2, 186432, Note_on_c, 0, 75, 82
2, 186616, Note_off_c, 0, 75, 64
2, 186624, Note_on_c, 0, 76, 83
2, 187004, Note_off_c, 0, 76, 64
2, 187392, Note_on_c, 0, 74, 62
2, 187772, Note_off_c, 0, 74, 64
2, 188160, Note_on_c, 0, 77, 79
2, 188540, Note_off_c, 0, 77, 64
2, 188928, Note_on_c, 0, 78, 77
2, 189208, Note_off_c, 0, 78, 64
2, 189216, Note_on_c, 0, 78, 79
2, 189260, Note_off_c, 0, 78, 64
2, 189264, Note_on_c, 0, 80, 80
2, 189308, Note_off_c, 0, 80, 64
2, 189312, Note_on_c, 0, 78, 77
2, 189356, Note_off_c, 0, 78, 64
2, 189360, Note_on_c, 0, 77, 76
2, 189404, Note_off_c, 0, 77, 64
2, 189408, Note_on_c, 0, 78, 77
2, 189496, Note_off_c, 0, 78, 64
2, 189504, Note_on_c, 0, 80, 80
2, 189692, Note_off_c, 0, 80, 64
2, 189696, Note_on_c, 0, 81, 84
2, 190080, Note_off_c, 0, 81, 64
2, 190464, Note_on_c, 0, 80, 60
2, 190844, Note_off_c, 0, 80, 64
2, 190848, Note_on_c, 0, 83, 60
2, 190940, Note_off_c, 0, 83, 64
2, 190944, Note_on_c, 0, 81, 60
2, 191036, Note_off_c, 0, 81, 64
2, 191040, Note_on_c, 0, 78, 60
2, 191132, Note_off_c, 0, 78, 64
2, 191136, Note_on_c, 0, 75, 60
2, 191228, Note_off_c, 0, 75, 64
2, 191232, Note_on_c, 0, 73, 60
2, 191612, Note_off_c, 0, 73, 64
2, 191616, Note_on_c, 0, 76, 60
2, 191804, Note_off_c, 0, 76, 64
2, 191808, Note_on_c, 0, 75, 60
2, 191996, Note_off_c, 0, 75, 64
2, 192000, Note_on_c, 0, 73, 60
2, 192380, Note_off_c, 0, 73, 64
2, 195072, Note_on_c, 0, 76, 82
2, 195452, Note_off_c, 0, 76, 64
2, 195456, Note_on_c, 0, 88, 74
2, 196220, Note_off_c, 0, 88, 64
2, 196224, Note_on_c, 0, 83, 77
2, 196604, Note_off_c, 0, 83, 64
2, 196608, Note_on_c, 0, 85, 87
2, 196648, Note_off_c, 0, 85, 64
2, 196656, Note_on_c, 0, 83, 77
2, 196796, Note_off_c, 0, 83, 64
2, 196800, Note_on_c, 0, 82, 77
2, 196988, Note_off_c, 0, 82, 64
2, 196992, Note_on_c, 0, 82, 77
2, 197756, Note_off_c, 0, 82, 64
2, 197760, Note_on_c, 0, 82, 69
2, 197852, Note_off_c, 0, 82, 64
2, 197856, Note_on_c, 0, 83, 71
2, 197948, Note_off_c, 0, 83, 64
2, 197952, Note_on_c, 0, 85, 73
2, 198044, Note_off_c, 0, 85, 64
2, 198048, Note_on_c, 0, 86, 75
2, 198140, Note_off_c, 0, 86, 64
2, 198144, Note_on_c, 0, 88, 76
2, 198236, Note_off_c, 0, 88, 64
2, 198336, Note_on_c, 0, 86, 77
2, 198524, Note_off_c, 0, 86, 64
2, 198528, Note_on_c, 0, 85, 76
2, 198716, Note_off_c, 0, 85, 64
2, 198720, Note_on_c, 0, 83, 74
2, 198908, Note_off_c, 0, 83, 64
2, 198912, Note_on_c, 0, 82, 71
2, 199088, Note_off_c, 0, 82, 64
2, 199104, Note_on_c, 0, 79, 68
2, 199280, Note_off_c, 0, 79, 64
2, 199296, Note_on_c, 0, 78, 65
2, 199484, Note_off_c, 0, 78, 64
2, 199488, Note_on_c, 0, 76, 63
2, 199676, Note_off_c, 0, 76, 64
2, 199680, Note_on_c, 0, 74, 60
2, 200060, Note_off_c, 0, 74, 64
2, 200064, Note_on_c, 0, 86, 65
2, 200828, Note_off_c, 0, 86, 64
2, 200832, Note_on_c, 0, 81, 60
2, 201212, Note_off_c, 0, 81, 64
2, 201216, Note_on_c, 0, 83, 76
2, 201260, Note_off_c, 0, 83, 64
2, 201264, Note_on_c, 0, 81, 62
2, 201404, Note_off_c, 0, 81, 64
2, 201408, Note_on_c, 0, 80, 61
2, 201596, Note_off_c, 0, 80, 64
2, 201600, Note_on_c, 0, 80, 63
2, 202364, Note_off_c, 0, 80, 64
2, 202368, Note_on_c, 0, 80, 61
2, 202460, Note_off_c, 0, 80, 64
2, 202464, Note_on_c, 0, 81, 62
2, 202556, Note_off_c, 0, 81, 64
2, 202560, Note_on_c, 0, 83, 63
2, 202652, Note_off_c, 0, 83, 64
2, 202656, Note_on_c, 0, 85, 64
2, 202748, Note_off_c, 0, 85, 64
2, 202752, Note_on_c, 0, 86, 65
2, 202844, Note_off_c, 0, 86, 64
2, 202944, Note_on_c, 0, 85, 64
2, 203132, Note_off_c, 0, 85, 64
2, 203136, Note_on_c, 0, 83, 63
2, 203324, Note_off_c, 0, 83, 64
2, 203328, Note_on_c, 0, 81, 62
2, 203516, Note_off_c, 0, 81, 64
2, 203520, Note_on_c, 0, 80, 61
2, 203708, Note_off_c, 0, 80, 64
2, 203712, Note_on_c, 0, 78, 60
2, 203900, Note_off_c, 0, 78, 64
2, 203904, Note_on_c, 0, 76, 59
2, 204092, Note_off_c, 0, 76, 64
2, 204096, Note_on_c, 0, 74, 58
2, 204284, Note_off_c, 0, 74, 64
2, 204288, Note_on_c, 0, 73, 60
2, 205820, Note_off_c, 0, 73, 64
2, 205824, Note_on_c, 0, 72, 69
2, 205868, Note_off_c, 0, 72, 64
2, 205872, Note_on_c, 0, 74, 69
2, 205916, Note_off_c, 0, 74, 64
2, 205920, Note_on_c, 0, 72, 69
2, 205964, Note_off_c, 0, 72, 64
2, 205968, Note_on_c, 0, 74, 70
2, 206012, Note_off_c, 0, 74, 64
2, 206016, Note_on_c, 0, 72, 70
2, 206060, Note_off_c, 0, 72, 64
2, 206064, Note_on_c, 0, 74, 70
2, 206108, Note_off_c, 0, 74, 64
2, 206112, Note_on_c, 0, 72, 71
2, 206156, Note_off_c, 0, 72, 64
2, 206160, Note_on_c, 0, 74, 71
2, 206204, Note_off_c, 0, 74, 64
2, 206208, Note_on_c, 0, 72, 72
2, 206252, Note_off_c, 0, 72, 64
2, 206256, Note_on_c, 0, 74, 72
2, 206300, Note_off_c, 0, 74, 64
2, 206304, Note_on_c, 0, 72, 72
2, 206348, Note_off_c, 0, 72, 64
2, 206352, Note_on_c, 0, 74, 73
2, 206396, Note_off_c, 0, 74, 64
2, 206400, Note_on_c, 0, 72, 73
2, 206444, Note_off_c, 0, 72, 64
2, 206448, Note_on_c, 0, 74, 73
2, 206492, Note_off_c, 0, 74, 64
2, 206496, Note_on_c, 0, 72, 74
2, 206540, Note_off_c, 0, 72, 64
2, 206544, Note_on_c, 0, 74, 74
2, 206588, Note_off_c, 0, 74, 64
2, 206592, Note_on_c, 0, 72, 75
2, 206636, Note_off_c, 0, 72, 64
2, 206640, Note_on_c, 0, 74, 75
2, 206684, Note_off_c, 0, 74, 64
2, 206688, Note_on_c, 0, 72, 75
2, 206732, Note_off_c, 0, 72, 64
2, 206736, Note_on_c, 0, 74, 76
2, 206780, Note_off_c, 0, 74, 64
2, 206784, Note_on_c, 0, 72, 76
2, 206828, Note_off_c, 0, 72, 64
2, 206832, Note_on_c, 0, 74, 76
2, 206876, Note_off_c, 0, 74, 64
2, 206880, Note_on_c, 0, 72, 76
2, 206924, Note_off_c, 0, 72, 64
2, 206928, Note_on_c, 0, 74, 76
2, 206972, Note_off_c, 0, 74, 64
2, 206976, Note_on_c, 0, 72, 76
2, 207020, Note_off_c, 0, 72, 64
2, 207024, Note_on_c, 0, 74, 76
2, 207068, Note_off_c, 0, 74, 64
2, 207072, Note_on_c, 0, 72, 76
2, 207116, Note_off_c, 0, 72, 64
2, 207120, Note_on_c, 0, 74, 77
2, 207164, Note_off_c, 0, 74, 64
2, 207168, Note_on_c, 0, 71, 77
2, 207256, Note_off_c, 0, 71, 64
2, 207264, Note_on_c, 0, 72, 78
2, 207352, Note_off_c, 0, 72, 64
2, 207360, Note_on_c, 0, 71, 77
2, 207456, Note_off_c, 0, 71, 64
2, 207456, Note_on_c, 0, 64, 77
2, 207552, Note_off_c, 0, 64, 64
2, 207552, Note_on_c, 0, 68, 78
2, 207648, Note_off_c, 0, 68, 64
2, 207648, Note_on_c, 0, 71, 77
2, 207744, Note_off_c, 0, 71, 64
2, 207744, Note_on_c, 0, 76, 77
2, 207840, Note_off_c, 0, 76, 64
2, 207840, Note_on_c, 0, 71, 77
2, 207936, Note_off_c, 0, 71, 64
2, 207936, Note_on_c, 0, 80, 77
2, 208032, Note_off_c, 0, 80, 64
2, 208032, Note_on_c, 0, 76, 77
2, 208128, Note_off_c, 0, 76, 64
2, 208128, Note_on_c, 0, 83, 80
2, 208224, Note_off_c, 0, 83, 64
2, 208224, Note_on_c, 0, 81, 79
2, 208320, Note_off_c, 0, 81, 64
2, 208320, Note_on_c, 0, 80, 78
2, 208416, Note_off_c, 0, 80, 64
2, 208416, Note_on_c, 0, 78, 77
2, 208512, Note_off_c, 0, 78, 64
2, 208512, Note_on_c, 0, 76, 77
2, 208608, Note_off_c, 0, 76, 64
2, 208608, Note_on_c, 0, 74, 77
2, 208704, Note_off_c, 0, 74, 64
2, 208704, Note_on_c, 0, 73, 77
2, 208800, Note_off_c, 0, 73, 64
2, 208800, Note_on_c, 0, 71, 77
2, 208896, Note_off_c, 0, 71, 64
2, 208896, Note_on_c, 0, 73, 77
2, 208980, Note_off_c, 0, 73, 64
2, 208992, Note_on_c, 0, 69, 77
2, 209076, Note_off_c, 0, 69, 64
2, 209088, Note_on_c, 0, 76, 77
2, 209184, Note_off_c, 0, 76, 64
2, 209184, Note_on_c, 0, 73, 77
2, 209280, Note_off_c, 0, 73, 64
2, 209280, Note_on_c, 0, 81, 79
2, 209364, Note_off_c, 0, 81, 64
2, 209376, Note_on_c, 0, 76, 77
2, 209460, Note_off_c, 0, 76, 64
2, 209472, Note_on_c, 0, 85, 81
2, 209568, Note_off_c, 0, 85, 64
2, 209568, Note_on_c, 0, 81, 77
2, 209664, Note_off_c, 0, 81, 64
2, 209664, Note_on_c, 0, 88, 83
2, 209748, Note_off_c, 0, 88, 64
2, 209760, Note_on_c, 0, 85, 81
2, 209844, Note_off_c, 0, 85, 64
2, 209856, Note_on_c, 0, 81, 77
2, 209952, Note_off_c, 0, 81, 64
2, 209952, Note_on_c, 0, 76, 76
2, 210048, Note_off_c, 0, 76, 64
2, 210048, Note_on_c, 0, 81, 81
2, 210132, Note_off_c, 0, 81, 64
2, 210144, Note_on_c, 0, 76, 79
2, 210228, Note_off_c, 0, 76, 64
2, 210240, Note_on_c, 0, 73, 77
2, 210336, Note_off_c, 0, 73, 64
2, 210336, Note_on_c, 0, 69, 77
2, 210432, Note_off_c, 0, 69, 64
2, 210432, Note_on_c, 0, 68, 64
2, 210480, Note_off_c, 0, 68, 64
2, 210528, Note_on_c, 0, 64, 62
2, 210576, Note_off_c, 0, 64, 64
2, 210624, Note_on_c, 0, 71, 60
2, 210672, Note_off_c, 0, 71, 64
2, 210720, Note_on_c, 0, 68, 60
2, 210768, Note_off_c, 0, 68, 64
2, 210816, Note_on_c, 0, 76, 60
2, 210864, Note_off_c, 0, 76, 64
2, 210912, Note_on_c, 0, 71, 60
2, 210960, Note_off_c, 0, 71, 64
2, 211008, Note_on_c, 0, 80, 60
2, 211056, Note_off_c, 0, 80, 64
2, 211104, Note_on_c, 0, 76, 60
2, 211152, Note_off_c, 0, 76, 64
2, 211200, Note_on_c, 0, 83, 64
2, 211248, Note_off_c, 0, 83, 64
2, 211296, Note_on_c, 0, 81, 63
2, 211344, Note_off_c, 0, 81, 64
2, 211392, Note_on_c, 0, 80, 62
2, 211440, Note_off_c, 0, 80, 64
2, 211488, Note_on_c, 0, 78, 61
2, 211536, Note_off_c, 0, 78, 64
2, 211584, Note_on_c, 0, 76, 60
2, 211632, Note_off_c, 0, 76, 64
2, 211680, Note_on_c, 0, 74, 59
2, 211728, Note_off_c, 0, 74, 64
2, 211776, Note_on_c, 0, 73, 58
2, 211824, Note_off_c, 0, 73, 64
2, 211872, Note_on_c, 0, 71, 57
2, 211920, Note_off_c, 0, 71, 64
2, 211968, Note_on_c, 0, 73, 60
2, 212064, Note_off_c, 0, 73, 64
2, 212064, Note_on_c, 0, 69, 60
2, 212160, Note_off_c, 0, 69, 64
2, 212160, Note_on_c, 0, 76, 60
2, 212208, Note_off_c, 0, 76, 64
2, 212256, Note_on_c, 0, 73, 60
2, 212304, Note_off_c, 0, 73, 64
2, 212352, Note_on_c, 0, 81, 62
2, 212448, Note_off_c, 0, 81, 64
2, 212448, Note_on_c, 0, 76, 59
2, 212544, Note_off_c, 0, 76, 64
2, 212544, Note_on_c, 0, 85, 63
2, 212592, Note_off_c, 0, 85, 64
2, 212640, Note_on_c, 0, 81, 61
2, 212688, Note_off_c, 0, 81, 64
2, 212736, Note_on_c, 0, 88, 76
2, 212832, Note_off_c, 0, 88, 64
2, 212832, Note_on_c, 0, 85, 74
2, 212928, Note_off_c, 0, 85, 64
2, 212928, Note_on_c, 0, 81, 72
2, 212976, Note_off_c, 0, 81, 64
2, 213024, Note_on_c, 0, 76, 70
2, 213072, Note_off_c, 0, 76, 64
2, 213120, Note_on_c, 0, 81, 76
2, 213216, Note_off_c, 0, 81, 64
2, 213216, Note_on_c, 0, 76, 74
2, 213312, Note_off_c, 0, 76, 64
2, 213312, Note_on_c, 0, 73, 72
2, 213360, Note_off_c, 0, 73, 64
2, 213408, Note_on_c, 0, 69, 70
2, 213456, Note_off_c, 0, 69, 64
2, 213504, Note_on_c, 0, 76, 77
2, 213504, Note_on_c, 0, 71, 77
2, 213504, Note_on_c, 0, 68, 77
2, 213884, Note_off_c, 0, 76, 64
2, 213884, Note_off_c, 0, 71, 64
2, 213884, Note_off_c, 0, 68, 64
2, 218100, Control_c, 0, 1, 45
2, 218112, Note_on_c, 0, 88, 65
2, 218300, Note_off_c, 0, 88, 64
2, 218304, Note_on_c, 0, 90, 66
2, 218396, Note_off_c, 0, 90, 64
2, 218400, Note_on_c, 0, 87, 65
2, 218492, Note_off_c, 0, 87, 64
2, 218496, Note_on_c, 0, 88, 65
2, 218684, Note_off_c, 0, 88, 64
2, 218688, Note_on_c, 0, 90, 66
2, 218780, Note_off_c, 0, 90, 64
2, 218784, Note_on_c, 0, 85, 65
2, 218876, Note_off_c, 0, 85, 64
2, 218880, Note_on_c, 0, 86, 65
2, 219068, Note_off_c, 0, 86, 64
2, 219072, Note_on_c, 0, 88, 65
2, 219164, Note_off_c, 0, 88, 64
2, 219168, Note_on_c, 0, 85, 64
2, 219260, Note_off_c, 0, 85, 64
2, 219264, Note_on_c, 0, 86, 65
2, 219452, Note_off_c, 0, 86, 64
2, 219456, Note_on_c, 0, 88, 65
2, 219548, Note_off_c, 0, 88, 64
2, 219552, Note_on_c, 0, 81, 63
2, 219644, Note_off_c, 0, 81, 64
2, 219648, Note_on_c, 0, 85, 64
2, 219836, Note_off_c, 0, 85, 64
2, 219840, Note_on_c, 0, 86, 65
2, 219932, Note_off_c, 0, 86, 64
2, 219936, Note_on_c, 0, 84, 63
2, 220028, Note_off_c, 0, 84, 64
2, 220032, Note_on_c, 0, 85, 64
2, 220220, Note_off_c, 0, 85, 64
2, 220224, Note_on_c, 0, 86, 65
2, 220316, Note_off_c, 0, 86, 64
2, 220320, Note_on_c, 0, 82, 62
2, 220412, Note_off_c, 0, 82, 64
2, 220416, Note_on_c, 0, 83, 63
2, 220604, Note_off_c, 0, 83, 64
2, 220608, Note_on_c, 0, 85, 64
2, 220700, Note_off_c, 0, 85, 64
2, 220704, Note_on_c, 0, 82, 62
2, 220796, Note_off_c, 0, 82, 64
2, 220800, Note_on_c, 0, 83, 63
2, 220988, Note_off_c, 0, 83, 64
2, 220992, Note_on_c, 0, 85, 64
2, 221084, Note_off_c, 0, 85, 64
2, 221088, Note_on_c, 0, 80, 61
2, 221180, Note_off_c, 0, 80, 64
2, 221184, Note_on_c, 0, 81, 88
2, 221756, Note_off_c, 0, 81, 64
2, 221760, Note_on_c, 0, 76, 77
2, 221948, Note_off_c, 0, 76, 64
2, 221952, Note_on_c, 0, 85, 90
2, 222524, Note_off_c, 0, 85, 64
2, 222528, Note_on_c, 0, 81, 79
2, 222716, Note_off_c, 0, 81, 64
2, 222720, Note_on_c, 0, 88, 83
2, 222908, Note_off_c, 0, 88, 64
2, 223104, Note_on_c, 0, 88, 92
2, 223676, Note_off_c, 0, 88, 64
2, 223680, Note_on_c, 0, 88, 83
2, 223724, Note_off_c, 0, 88, 64
2, 223728, Note_on_c, 0, 90, 84
2, 223772, Note_off_c, 0, 90, 64
2, 223776, Note_on_c, 0, 88, 83
2, 223820, Note_off_c, 0, 88, 64
2, 223824, Note_on_c, 0, 90, 84
2, 223868, Note_off_c, 0, 90, 64
2, 223872, Note_on_c, 0, 93, 86
2, 224060, Note_off_c, 0, 93, 64
2, 224064, Note_on_c, 0, 88, 83
2, 224252, Note_off_c, 0, 88, 64
2, 224256, Note_on_c, 0, 86, 82
2, 224444, Note_off_c, 0, 86, 64
2, 224448, Note_on_c, 0, 85, 81
2, 224636, Note_off_c, 0, 85, 64
2, 224640, Note_on_c, 0, 85, 90
2, 225212, Note_off_c, 0, 85, 64
2, 225216, Note_on_c, 0, 85, 81
2, 225260, Note_off_c, 0, 85, 64
2, 225264, Note_on_c, 0, 86, 82
2, 225308, Note_off_c, 0, 86, 64
2, 225312, Note_on_c, 0, 85, 81
2, 225356, Note_off_c, 0, 85, 64
2, 225360, Note_on_c, 0, 86, 82
2, 225404, Note_off_c, 0, 86, 64
2, 225408, Note_on_c, 0, 88, 83
2, 225596, Note_off_c, 0, 88, 64
2, 225600, Note_on_c, 0, 85, 81
2, 225788, Note_off_c, 0, 85, 64
2, 225792, Note_on_c, 0, 83, 89
2, 225876, Note_off_c, 0, 83, 64
2, 225888, Note_on_c, 0, 81, 79
2, 225972, Note_off_c, 0, 81, 64
2, 225984, Note_on_c, 0, 85, 81
2, 226080, Note_off_c, 0, 85, 64
2, 226080, Note_on_c, 0, 81, 77
2, 226176, Note_off_c, 0, 81, 64
2, 226176, Note_on_c, 0, 78, 87
2, 226260, Note_off_c, 0, 78, 64
2, 226272, Note_on_c, 0, 76, 77
2, 226356, Note_off_c, 0, 76, 64
2, 226368, Note_on_c, 0, 81, 79
2, 226464, Note_off_c, 0, 81, 64
2, 226464, Note_on_c, 0, 76, 77
2, 226560, Note_off_c, 0, 76, 64
2, 226560, Note_on_c, 0, 74, 87
2, 226644, Note_off_c, 0, 74, 64
2, 226656, Note_on_c, 0, 73, 77
2, 226740, Note_off_c, 0, 73, 64
2, 226752, Note_on_c, 0, 76, 77
2, 226848, Note_off_c, 0, 76, 64
2, 226848, Note_on_c, 0, 73, 77
2, 226944, Note_off_c, 0, 73, 64
2, 226944, Note_on_c, 0, 71, 87
2, 227028, Note_off_c, 0, 71, 64
2, 227040, Note_on_c, 0, 69, 77
2, 227124, Note_off_c, 0, 69, 64
2, 227136, Note_on_c, 0, 73, 77
2, 227232, Note_off_c, 0, 73, 64
2, 227232, Note_on_c, 0, 69, 77
2, 227328, Note_off_c, 0, 69, 64
2, 227328, Note_on_c, 0, 68, 77
2, 227424, Note_off_c, 0, 68, 64
2, 227520, Note_on_c, 0, 71, 77
2, 227616, Note_off_c, 0, 71, 64
2, 227712, Note_on_c, 0, 62, 77
2, 228284, Note_off_c, 0, 62, 64
2, 228288, Note_on_c, 0, 66, 77
2, 228384, Note_off_c, 0, 66, 64
2, 228384, Note_on_c, 0, 64, 77
2, 228480, Note_off_c, 0, 64, 64
2, 228480, Note_on_c, 0, 62, 78
2, 228568, Note_off_c, 0, 62, 64
2, 228576, Note_on_c, 0, 61, 79
2, 228664, Note_off_c, 0, 61, 64
2, 228672, Note_on_c, 0, 59, 80
2, 228760, Note_off_c, 0, 59, 64
2, 228768, Note_on_c, 0, 57, 81
2, 228856, Note_off_c, 0, 57, 64
2, 228864, Note_on_c, 0, 56, 82
2, 229056, Note_off_c, 0, 56, 64
2, 229248, Note_on_c, 0, 86, 91
2, 229820, Note_off_c, 0, 86, 64
2, 229824, Note_on_c, 0, 83, 80
2, 229868, Note_off_c, 0, 83, 64
2, 229872, Note_on_c, 0, 85, 81
2, 229916, Note_off_c, 0, 85, 64
2, 229920, Note_on_c, 0, 83, 80
2, 229964, Note_off_c, 0, 83, 64
2, 229968, Note_on_c, 0, 85, 81
2, 230012, Note_off_c, 0, 85, 64
2, 230016, Note_on_c, 0, 86, 82
2, 230204, Note_off_c, 0, 86, 64
2, 230208, Note_on_c, 0, 83, 80
2, 230396, Note_off_c, 0, 83, 64
2, 230400, Note_on_c, 0, 81, 77
2, 230588, Note_off_c, 0, 81, 64
2, 230592, Note_on_c, 0, 80, 77
2, 230780, Note_off_c, 0, 80, 64
2, 230784, Note_on_c, 0, 80, 82
2, 231356, Note_off_c, 0, 80, 64
2, 231360, Note_on_c, 0, 83, 80
2, 231456, Note_off_c, 0, 83, 64
2, 231456, Note_on_c, 0, 80, 79
2, 231552, Note_off_c, 0, 80, 64
2, 231552, Note_on_c, 0, 78, 77
2, 231636, Note_off_c, 0, 78, 64
2, 231648, Note_on_c, 0, 76, 77
2, 231732, Note_off_c, 0, 76, 64
2, 231744, Note_on_c, 0, 78, 77
2, 231840, Note_off_c, 0, 78, 64
2, 231840, Note_on_c, 0, 74, 77
2, 231936, Note_off_c, 0, 74, 64
2, 231936, Note_on_c, 0, 73, 87
2, 232020, Note_off_c, 0, 73, 64
2, 232032, Note_on_c, 0, 71, 77
2, 232116, Note_off_c, 0, 71, 64
2, 232128, Note_on_c, 0, 74, 77
2, 232224, Note_off_c, 0, 74, 64
2, 232224, Note_on_c, 0, 71, 77
2, 232320, Note_off_c, 0, 71, 64
2, 232320, Note_on_c, 0, 69, 87
2, 232404, Note_off_c, 0, 69, 64
2, 232416, Note_on_c, 0, 68, 77
2, 232500, Note_off_c, 0, 68, 64
2, 232512, Note_on_c, 0, 71, 77
2, 232608, Note_off_c, 0, 71, 64
2, 232608, Note_on_c, 0, 68, 77
2, 232704, Note_off_c, 0, 68, 64
2, 232704, Note_on_c, 0, 64, 87
2, 232788, Note_off_c, 0, 64, 64
2, 232800, Note_on_c, 0, 62, 78
2, 232884, Note_off_c, 0, 62, 64
2, 232896, Note_on_c, 0, 66, 77
2, 232992, Note_off_c, 0, 66, 64
2, 232992, Note_on_c, 0, 62, 78
2, 233088, Note_off_c, 0, 62, 64
2, 233088, Note_on_c, 0, 61, 88
2, 233172, Note_off_c, 0, 61, 64
2, 233184, Note_on_c, 0, 59, 80
2, 233268, Note_off_c, 0, 59, 64
2, 233280, Note_on_c, 0, 62, 78
2, 233376, Note_off_c, 0, 62, 64
2, 233376, Note_on_c, 0, 56, 82
2, 233472, Note_off_c, 0, 56, 64
2, 233472, Note_on_c, 0, 57, 81
2, 233752, Note_off_c, 0, 57, 64
2, 233760, Note_on_c, 0, 61, 79
2, 233796, Note_off_c, 0, 61, 64
2, 233808, Note_on_c, 0, 59, 80
2, 233844, Note_off_c, 0, 59, 64
2, 233856, Note_on_c, 0, 57, 83
2, 234236, Note_off_c, 0, 57, 64
2, 236532, Control_c, 0, 1, 45
2, 237312, Note_on_c, 0, 81, 61
2, 238076, Note_off_c, 0, 81, 64
2, 238080, Note_on_c, 0, 80, 67
2, 238460, Note_off_c, 0, 80, 64
2, 238848, Note_on_c, 0, 79, 61
2, 239612, Note_off_c, 0, 79, 64
2, 239616, Note_on_c, 0, 78, 69
2, 239996, Note_off_c, 0, 78, 64
2, 240384, Note_on_c, 0, 76, 60
2, 240468, Note_off_c, 0, 76, 64
2, 240480, Note_on_c, 0, 78, 60
2, 240564, Note_off_c, 0, 78, 64
2, 240576, Note_on_c, 0, 80, 60
2, 240672, Note_off_c, 0, 80, 64
2, 240672, Note_on_c, 0, 81, 60
2, 240768, Note_off_c, 0, 81, 64
2, 240768, Note_on_c, 0, 80, 62
2, 240852, Note_off_c, 0, 80, 64
2, 240864, Note_on_c, 0, 81, 64
2, 240948, Note_off_c, 0, 81, 64
2, 240960, Note_on_c, 0, 80, 65
2, 241056, Note_off_c, 0, 80, 64
2, 241056, Note_on_c, 0, 81, 67
2, 241152, Note_off_c, 0, 81, 64
2, 241152, Note_on_c, 0, 81, 77
2, 241340, Note_off_c, 0, 81, 64
2, 241344, Note_on_c, 0, 71, 60
2, 241532, Note_off_c, 0, 71, 64
2, 241536, Note_on_c, 0, 71, 60
2, 242004, Note_off_c, 0, 71, 64
2, 242016, Note_on_c, 0, 74, 60
2, 242112, Note_off_c, 0, 74, 64
2, 242112, Note_on_c, 0, 78, 61
2, 242208, Note_off_c, 0, 78, 64
2, 242208, Note_on_c, 0, 81, 63
2, 242304, Note_off_c, 0, 81, 64
2, 242304, Note_on_c, 0, 80, 64
2, 242388, Note_off_c, 0, 80, 64
2, 242400, Note_on_c, 0, 81, 65
2, 242484, Note_off_c, 0, 81, 64
2, 242496, Note_on_c, 0, 80, 67
2, 242580, Note_off_c, 0, 80, 64
2, 242592, Note_on_c, 0, 81, 69
2, 242676, Note_off_c, 0, 81, 64
2, 242688, Note_on_c, 0, 81, 77
2, 242876, Note_off_c, 0, 81, 64
2, 242880, Note_on_c, 0, 73, 60
2, 243068, Note_off_c, 0, 73, 64
2, 243072, Note_on_c, 0, 73, 60
2, 243540, Note_off_c, 0, 73, 64
2, 243552, Note_on_c, 0, 76, 60
2, 243648, Note_off_c, 0, 76, 64
2, 243648, Note_on_c, 0, 80, 61
2, 243744, Note_off_c, 0, 80, 64
2, 243744, Note_on_c, 0, 81, 62
2, 243840, Note_off_c, 0, 81, 64
2, 243840, Note_on_c, 0, 80, 64
2, 243924, Note_off_c, 0, 80, 64
2, 243936, Note_on_c, 0, 81, 65
2, 244020, Note_off_c, 0, 81, 64
2, 244032, Note_on_c, 0, 80, 67
2, 244116, Note_off_c, 0, 80, 64
2, 244128, Note_on_c, 0, 81, 69
2, 244212, Note_off_c, 0, 81, 64
2, 244224, Note_on_c, 0, 81, 71
2, 244412, Note_off_c, 0, 81, 64
2, 244416, Note_on_c, 0, 74, 60
2, 244604, Note_off_c, 0, 74, 64
2, 244608, Note_on_c, 0, 74, 60
2, 245076, Note_off_c, 0, 74, 64
2, 245088, Note_on_c, 0, 86, 61
2, 245184, Note_off_c, 0, 86, 64
2, 245184, Note_on_c, 0, 85, 61
2, 245268, Note_off_c, 0, 85, 64
2, 245280, Note_on_c, 0, 86, 62
2, 245364, Note_off_c, 0, 86, 64
2, 245376, Note_on_c, 0, 85, 64
2, 245460, Note_off_c, 0, 85, 64
2, 245472, Note_on_c, 0, 86, 65
2, 245556, Note_off_c, 0, 86, 64
2, 245568, Note_on_c, 0, 85, 67
2, 245652, Note_off_c, 0, 85, 64
2, 245664, Note_on_c, 0, 86, 69
2, 245748, Note_off_c, 0, 86, 64
2, 245760, Note_on_c, 0, 86, 91
2, 245844, Note_off_c, 0, 86, 64
2, 245856, Note_on_c, 0, 83, 80
2, 245940, Note_off_c, 0, 83, 64
2, 245952, Note_on_c, 0, 86, 82
2, 246048, Note_off_c, 0, 86, 64
2, 246048, Note_on_c, 0, 83, 80
2, 246144, Note_off_c, 0, 83, 64
2, 246144, Note_on_c, 0, 80, 78
2, 246228, Note_off_c, 0, 80, 64
2, 246240, Note_on_c, 0, 76, 76
2, 246324, Note_off_c, 0, 76, 64
2, 246336, Note_on_c, 0, 80, 78
2, 246432, Note_off_c, 0, 80, 64
2, 246432, Note_on_c, 0, 76, 76
2, 246528, Note_off_c, 0, 76, 64
2, 246528, Note_on_c, 0, 81, 88
2, 246612, Note_off_c, 0, 81, 64
2, 246624, Note_on_c, 0, 78, 77
2, 246708, Note_off_c, 0, 78, 64
2, 246720, Note_on_c, 0, 81, 79
2, 246816, Note_off_c, 0, 81, 64
2, 246816, Note_on_c, 0, 78, 78
2, 246912, Note_off_c, 0, 78, 64
2, 246912, Note_on_c, 0, 75, 77
2, 246996, Note_off_c, 0, 75, 64
2, 247008, Note_on_c, 0, 71, 77
2, 247092, Note_off_c, 0, 71, 64
2, 247104, Note_on_c, 0, 75, 77
2, 247200, Note_off_c, 0, 75, 64
2, 247200, Note_on_c, 0, 71, 77
2, 247296, Note_off_c, 0, 71, 64
2, 247296, Note_on_c, 0, 76, 77
2, 247380, Note_off_c, 0, 76, 64
2, 247392, Note_on_c, 0, 78, 77
2, 247476, Note_off_c, 0, 78, 64
2, 247488, Note_on_c, 0, 80, 78
2, 247584, Note_off_c, 0, 80, 64
2, 247584, Note_on_c, 0, 81, 79
2, 247680, Note_off_c, 0, 81, 64
2, 247680, Note_on_c, 0, 80, 78
2, 247764, Note_off_c, 0, 80, 64
2, 247776, Note_on_c, 0, 81, 79
2, 247860, Note_off_c, 0, 81, 64
2, 247872, Note_on_c, 0, 80, 78
2, 247956, Note_off_c, 0, 80, 64
2, 247968, Note_on_c, 0, 81, 79
2, 248052, Note_off_c, 0, 81, 64
2, 248064, Note_on_c, 0, 71, 87
2, 248108, Note_off_c, 0, 71, 64
2, 248112, Note_on_c, 0, 73, 82
2, 248156, Note_off_c, 0, 73, 64
2, 248160, Note_on_c, 0, 71, 77
2, 248204, Note_off_c, 0, 71, 64
2, 248208, Note_on_c, 0, 73, 77
2, 248252, Note_off_c, 0, 73, 64
2, 248256, Note_on_c, 0, 71, 77
2, 248300, Note_off_c, 0, 71, 64
2, 248304, Note_on_c, 0, 73, 77
2, 248348, Note_off_c, 0, 73, 64
2, 248352, Note_on_c, 0, 71, 77
2, 248396, Note_off_c, 0, 71, 64
2, 248400, Note_on_c, 0, 73, 77
2, 248444, Note_off_c, 0, 73, 64
2, 248448, Note_on_c, 0, 71, 77
2, 248492, Note_off_c, 0, 71, 64
2, 248496, Note_on_c, 0, 73, 77
2, 248540, Note_off_c, 0, 73, 64
2, 248544, Note_on_c, 0, 71, 77
2, 248588, Note_off_c, 0, 71, 64
2, 248592, Note_on_c, 0, 73, 77
2, 248636, Note_off_c, 0, 73, 64
2, 248640, Note_on_c, 0, 69, 78
2, 248728, Note_off_c, 0, 69, 64
2, 248736, Note_on_c, 0, 71, 80
2, 248824, Note_off_c, 0, 71, 64
2, 248832, Note_on_c, 0, 69, 82
2, 249212, Note_off_c, 0, 69, 64
2, 251892, Control_c, 0, 1, 45
2, 252672, Note_on_c, 0, 69, 77
2, 253244, Note_off_c, 0, 69, 64
2, 253248, Note_on_c, 0, 73, 77
2, 253340, Note_off_c, 0, 73, 64
2, 253344, Note_on_c, 0, 76, 77
2, 253436, Note_off_c, 0, 76, 64
2, 253440, Note_on_c, 0, 81, 79
2, 253628, Note_off_c, 0, 81, 64
2, 253824, Note_on_c, 0, 81, 79
2, 254204, Note_off_c, 0, 81, 64
2, 254208, Note_on_c, 0, 80, 78
2, 254588, Note_off_c, 0, 80, 64
2, 254592, Note_on_c, 0, 78, 77
2, 254972, Note_off_c, 0, 78, 64
2, 254976, Note_on_c, 0, 75, 65
2, 255060, Note_off_c, 0, 75, 64
2, 255072, Note_on_c, 0, 76, 61
2, 255352, Note_off_c, 0, 76, 64
2, 255744, Note_on_c, 0, 76, 60
2, 256316, Note_off_c, 0, 76, 64
2, 256320, Note_on_c, 0, 80, 61
2, 256404, Note_off_c, 0, 80, 64
2, 256416, Note_on_c, 0, 83, 63
2, 256500, Note_off_c, 0, 83, 64
2, 256512, Note_on_c, 0, 86, 65
2, 256700, Note_off_c, 0, 86, 64
2, 256896, Note_on_c, 0, 86, 65
2, 257276, Note_off_c, 0, 86, 64
2, 257280, Note_on_c, 0, 85, 65
2, 257660, Note_off_c, 0, 85, 64
2, 257664, Note_on_c, 0, 83, 65
2, 258044, Note_off_c, 0, 83, 64
2, 258048, Note_on_c, 0, 80, 61
2, 258132, Note_off_c, 0, 80, 64
2, 258144, Note_on_c, 0, 81, 62
2, 258424, Note_off_c, 0, 81, 64
2, 258816, Note_on_c, 0, 81, 62
2, 259388, Note_off_c, 0, 81, 64
2, 259392, Note_on_c, 0, 85, 64
2, 259484, Note_off_c, 0, 85, 64
2, 259488, Note_on_c, 0, 88, 65
2, 259580, Note_off_c, 0, 88, 64
2, 259584, Note_on_c, 0, 93, 68
2, 259964, Note_off_c, 0, 93, 64
2, 259968, Note_on_c, 0, 91, 66
2, 260348, Note_off_c, 0, 91, 64
2, 260352, Note_on_c, 0, 90, 64
2, 260732, Note_off_c, 0, 90, 64
2, 260736, Note_on_c, 0, 89, 61
2, 261116, Note_off_c, 0, 89, 64
2, 261120, Note_on_c, 0, 89, 65
2, 261308, Note_off_c, 0, 89, 64
2, 261312, Note_on_c, 0, 90, 66
2, 261500, Note_off_c, 0, 90, 64
2, 261504, Note_on_c, 0, 90, 66
2, 262268, Note_off_c, 0, 90, 64
2, 262272, Note_on_c, 0, 88, 65
2, 262652, Note_off_c, 0, 88, 64
2, 262656, Note_on_c, 0, 88, 65
2, 262844, Note_off_c, 0, 88, 64
2, 262848, Note_on_c, 0, 86, 65
2, 263036, Note_off_c, 0, 86, 64
2, 263040, Note_on_c, 0, 86, 65
2, 263804, Note_off_c, 0, 86, 64
2, 263808, Note_on_c, 0, 85, 64
2, 264188, Note_off_c, 0, 85, 64
2, 264192, Note_on_c, 0, 83, 62
2, 264280, Note_off_c, 0, 83, 64
2, 264288, Note_on_c, 0, 85, 64
2, 264376, Note_off_c, 0, 85, 64
2, 264384, Note_on_c, 0, 83, 63
2, 264472, Note_off_c, 0, 83, 64
2, 264480, Note_on_c, 0, 82, 62
2, 264568, Note_off_c, 0, 82, 64
2, 264576, Note_on_c, 0, 83, 64
2, 264664, Note_off_c, 0, 83, 64
2, 264672, Note_on_c, 0, 85, 65
2, 264760, Note_off_c, 0, 85, 64
2, 264768, Note_on_c, 0, 83, 66
2, 264856, Note_off_c, 0, 83, 64
2, 264864, Note_on_c, 0, 85, 69
2, 264952, Note_off_c, 0, 85, 64
2, 264960, Note_on_c, 0, 86, 71
2, 265048, Note_off_c, 0, 86, 64
2, 265056, Note_on_c, 0, 88, 74
2, 265144, Note_off_c, 0, 88, 64
2, 265152, Note_on_c, 0, 86, 75
2, 265240, Note_off_c, 0, 86, 64
2, 265248, Note_on_c, 0, 85, 75
2, 265336, Note_off_c, 0, 85, 64
2, 265344, Note_on_c, 0, 86, 76
2, 265432, Note_off_c, 0, 86, 64
2, 265440, Note_on_c, 0, 88, 78
2, 265528, Note_off_c, 0, 88, 64
2, 265536, Note_on_c, 0, 86, 79
2, 265624, Note_off_c, 0, 86, 64
2, 265632, Note_on_c, 0, 88, 82
2, 265720, Note_off_c, 0, 88, 64
2, 265728, Note_on_c, 0, 90, 84
2, 265816, Note_off_c, 0, 90, 64
2, 265824, Note_on_c, 0, 92, 85
2, 265912, Note_off_c, 0, 92, 64
2, 265920, Note_on_c, 0, 93, 86
2, 266008, Note_off_c, 0, 93, 64
2, 266016, Note_on_c, 0, 90, 85
2, 266104, Note_off_c, 0, 90, 64
2, 266112, Note_on_c, 0, 86, 82
2, 266200, Note_off_c, 0, 86, 64
2, 266208, Note_on_c, 0, 88, 83
2, 266296, Note_off_c, 0, 88, 64
2, 266304, Note_on_c, 0, 90, 84
2, 266392, Note_off_c, 0, 90, 64
2, 266400, Note_on_c, 0, 86, 82
2, 266488, Note_off_c, 0, 86, 64
2, 266496, Note_on_c, 0, 83, 80
2, 266876, Note_off_c, 0, 83, 64
2, 266880, Note_on_c, 0, 81, 89
2, 266924, Note_off_c, 0, 81, 64
2, 266928, Note_on_c, 0, 83, 85
2, 266972, Note_off_c, 0, 83, 64
2, 266976, Note_on_c, 0, 81, 84
2, 267020, Note_off_c, 0, 81, 64
2, 267024, Note_on_c, 0, 83, 85
2, 267068, Note_off_c, 0, 83, 64
2, 267072, Note_on_c, 0, 81, 84
2, 267116, Note_off_c, 0, 81, 64
2, 267120, Note_on_c, 0, 83, 85
2, 267164, Note_off_c, 0, 83, 64
2, 267168, Note_on_c, 0, 80, 83
2, 267212, Note_off_c, 0, 80, 64
2, 267216, Note_on_c, 0, 81, 84
2, 267260, Note_off_c, 0, 81, 64
2, 267264, Note_on_c, 0, 80, 83
2, 267644, Note_off_c, 0, 80, 64
2, 270324, Control_c, 0, 1, 45
2, 270720, Note_on_c, 0, 64, 61
2, 270812, Note_off_c, 0, 64, 64
2, 270912, Note_on_c, 0, 64, 62
2, 271004, Note_off_c, 0, 64, 64
2, 271104, Note_on_c, 0, 69, 63
2, 271192, Note_off_c, 0, 69, 64
2, 271200, Note_on_c, 0, 73, 64
2, 271288, Note_off_c, 0, 73, 64
2, 271296, Note_on_c, 0, 71, 63
2, 271384, Note_off_c, 0, 71, 64
2, 271392, Note_on_c, 0, 74, 65
2, 271480, Note_off_c, 0, 74, 64
2, 271488, Note_on_c, 0, 73, 66
2, 271576, Note_off_c, 0, 73, 64
2, 271584, Note_on_c, 0, 76, 67
2, 271672, Note_off_c, 0, 76, 64
2, 271680, Note_on_c, 0, 74, 66
2, 271768, Note_off_c, 0, 74, 64
2, 271776, Note_on_c, 0, 78, 68
2, 271864, Note_off_c, 0, 78, 64
2, 271872, Note_on_c, 0, 76, 67
2, 272060, Note_off_c, 0, 76, 64
2, 272256, Note_on_c, 0, 88, 65
2, 272348, Note_off_c, 0, 88, 64
2, 272448, Note_on_c, 0, 88, 65
2, 272540, Note_off_c, 0, 88, 64
2, 272640, Note_on_c, 0, 90, 67
2, 272732, Note_off_c, 0, 90, 64
2, 272736, Note_on_c, 0, 88, 66
2, 272828, Note_off_c, 0, 88, 64
2, 272832, Note_on_c, 0, 86, 65
2, 272924, Note_off_c, 0, 86, 64
2, 272928, Note_on_c, 0, 85, 64
2, 273020, Note_off_c, 0, 85, 64
2, 273024, Note_on_c, 0, 83, 63
2, 273116, Note_off_c, 0, 83, 64
2, 273216, Note_on_c, 0, 81, 62
2, 273308, Note_off_c, 0, 81, 64
2, 273408, Note_on_c, 0, 86, 65
2, 273596, Note_off_c, 0, 86, 64
2, 273600, Note_on_c, 0, 83, 63
2, 273788, Note_off_c, 0, 83, 64
2, 273792, Note_on_c, 0, 64, 60
2, 273884, Note_off_c, 0, 64, 64
2, 273984, Note_on_c, 0, 64, 61
2, 274076, Note_off_c, 0, 64, 64
2, 274176, Note_on_c, 0, 68, 62
2, 274264, Note_off_c, 0, 68, 64
2, 274272, Note_on_c, 0, 71, 63
2, 274360, Note_off_c, 0, 71, 64
2, 274368, Note_on_c, 0, 69, 64
2, 274456, Note_off_c, 0, 69, 64
2, 274464, Note_on_c, 0, 73, 65
2, 274552, Note_off_c, 0, 73, 64
2, 274560, Note_on_c, 0, 71, 65
2, 274648, Note_off_c, 0, 71, 64
2, 274656, Note_on_c, 0, 74, 66
2, 274744, Note_off_c, 0, 74, 64
2, 274752, Note_on_c, 0, 73, 67
2, 274840, Note_off_c, 0, 73, 64
2, 274848, Note_on_c, 0, 76, 68
2, 274936, Note_off_c, 0, 76, 64
2, 274944, Note_on_c, 0, 74, 69
2, 275132, Note_off_c, 0, 74, 64
2, 275328, Note_on_c, 0, 86, 65
2, 275420, Note_off_c, 0, 86, 64
2, 275520, Note_on_c, 0, 86, 65
2, 275612, Note_off_c, 0, 86, 64
2, 275712, Note_on_c, 0, 88, 65
2, 275800, Note_off_c, 0, 88, 64
2, 275808, Note_on_c, 0, 86, 65
2, 275896, Note_off_c, 0, 86, 64
2, 275904, Note_on_c, 0, 85, 64
2, 275992, Note_off_c, 0, 85, 64
2, 276000, Note_on_c, 0, 83, 63
2, 276088, Note_off_c, 0, 83, 64
2, 276096, Note_on_c, 0, 81, 62
2, 276184, Note_off_c, 0, 81, 64
2, 276288, Note_on_c, 0, 80, 61
2, 276376, Note_off_c, 0, 80, 64
2, 276480, Note_on_c, 0, 88, 62
2, 276668, Note_off_c, 0, 88, 64
2, 276672, Note_on_c, 0, 85, 60
2, 276860, Note_off_c, 0, 85, 64
2, 277248, Note_on_c, 0, 93, 74
2, 277436, Note_off_c, 0, 93, 64
2, 277440, Note_on_c, 0, 88, 70
2, 277628, Note_off_c, 0, 88, 64
2, 278016, Note_on_c, 0, 90, 75
2, 278204, Note_off_c, 0, 90, 64
2, 278208, Note_on_c, 0, 86, 72
2, 278396, Note_off_c, 0, 86, 64
2, 278784, Note_on_c, 0, 86, 72
2, 278972, Note_off_c, 0, 86, 64
2, 278976, Note_on_c, 0, 83, 70
2, 279164, Note_off_c, 0, 83, 64
2, 279552, Note_on_c, 0, 87, 74
2, 279640, Note_off_c, 0, 87, 64
2, 279648, Note_on_c, 0, 88, 75
2, 279736, Note_off_c, 0, 88, 64
2, 279744, Note_on_c, 0, 87, 72
2, 279832, Note_off_c, 0, 87, 64
2, 279840, Note_on_c, 0, 88, 70
2, 279928, Note_off_c, 0, 88, 64
2, 279936, Note_on_c, 0, 87, 69
2, 280024, Note_off_c, 0, 87, 64
2, 280032, Note_on_c, 0, 88, 68
2, 280120, Note_off_c, 0, 88, 64
2, 280128, Note_on_c, 0, 87, 66
2, 280216, Note_off_c, 0, 87, 64
2, 280224, Note_on_c, 0, 88, 65
2, 280312, Note_off_c, 0, 88, 64
2, 280320, Note_on_c, 0, 76, 60
2, 280700, Note_off_c, 0, 76, 64
2, 280704, Note_on_c, 0, 76, 60
2, 280792, Note_off_c, 0, 76, 64
2, 280800, Note_on_c, 0, 74, 60
2, 280888, Note_off_c, 0, 74, 64
2, 280896, Note_on_c, 0, 73, 60
2, 280984, Note_off_c, 0, 73, 64
2, 280992, Note_on_c, 0, 71, 60
2, 281080, Note_off_c, 0, 71, 64
2, 281088, Note_on_c, 0, 69, 60
2, 281184, Note_off_c, 0, 69, 64
2, 281472, Note_on_c, 0, 69, 60
2, 281568, Note_off_c, 0, 69, 64
2, 281856, Note_on_c, 0, 69, 60
2, 281952, Note_off_c, 0, 69, 64
2, 282240, Note_on_c, 0, 78, 60
2, 282328, Note_off_c, 0, 78, 64
2, 282336, Note_on_c, 0, 76, 60
2, 282424, Note_off_c, 0, 76, 64
2, 282432, Note_on_c, 0, 74, 60
2, 282520, Note_off_c, 0, 74, 64
2, 282528, Note_on_c, 0, 73, 60
2, 282616, Note_off_c, 0, 73, 64
2, 282624, Note_on_c, 0, 71, 60
2, 282720, Note_off_c, 0, 71, 64
2, 283008, Note_on_c, 0, 71, 60
2, 283104, Note_off_c, 0, 71, 64
2, 283392, Note_on_c, 0, 71, 60
2, 283488, Note_off_c, 0, 71, 64
2, 283776, Note_on_c, 0, 76, 60
2, 283864, Note_off_c, 0, 76, 64
2, 283872, Note_on_c, 0, 74, 60
2, 283960, Note_off_c, 0, 74, 64
2, 283968, Note_on_c, 0, 73, 60
2, 284056, Note_off_c, 0, 73, 64
2, 284064, Note_on_c, 0, 71, 60
2, 284152, Note_off_c, 0, 71, 64
2, 284160, Note_on_c, 0, 69, 62
2, 284924, Note_off_c, 0, 69, 64
2, 284928, Note_on_c, 0, 73, 64
2, 285308, Note_off_c, 0, 73, 64
2, 285312, Note_on_c, 0, 76, 65
2, 285692, Note_off_c, 0, 76, 64
2, 285696, Note_on_c, 0, 64, 69
2, 286844, Note_off_c, 0, 64, 64
2, 286848, Note_on_c, 0, 88, 65
2, 286936, Note_off_c, 0, 88, 64
2, 286944, Note_on_c, 0, 86, 65
2, 287032, Note_off_c, 0, 86, 64
2, 287040, Note_on_c, 0, 85, 64
2, 287128, Note_off_c, 0, 85, 64
2, 287136, Note_on_c, 0, 83, 63
2, 287224, Note_off_c, 0, 83, 64
2, 287232, Note_on_c, 0, 81, 62
2, 287328, Note_off_c, 0, 81, 64
2, 287424, Note_on_c, 0, 81, 62
2, 287520, Note_off_c, 0, 81, 64
2, 287616, Note_on_c, 0, 81, 62
2, 287712, Note_off_c, 0, 81, 64
2, 287808, Note_on_c, 0, 81, 62
2, 287904, Note_off_c, 0, 81, 64
2, 288000, Note_on_c, 0, 81, 62
2, 288380, Note_off_c, 0, 81, 64
2, 288384, Note_on_c, 0, 90, 66
2, 288476, Note_off_c, 0, 90, 64
2, 288480, Note_on_c, 0, 88, 65
2, 288572, Note_off_c, 0, 88, 64
2, 288576, Note_on_c, 0, 86, 65
2, 288668, Note_off_c, 0, 86, 64
2, 288672, Note_on_c, 0, 85, 64
2, 288764, Note_off_c, 0, 85, 64
2, 288768, Note_on_c, 0, 83, 63
2, 288864, Note_off_c, 0, 83, 64
2, 288960, Note_on_c, 0, 83, 63
2, 289056, Note_off_c, 0, 83, 64
2, 289152, Note_on_c, 0, 83, 63
2, 289248, Note_off_c, 0, 83, 64
2, 289344, Note_on_c, 0, 83, 63
2, 289440, Note_off_c, 0, 83, 64
2, 289536, Note_on_c, 0, 83, 63
2, 289916, Note_off_c, 0, 83, 64
2, 289920, Note_on_c, 0, 88, 65
2, 290012, Note_off_c, 0, 88, 64
2, 290016, Note_on_c, 0, 86, 65
2, 290108, Note_off_c, 0, 86, 64
2, 290112, Note_on_c, 0, 85, 64
2, 290204, Note_off_c, 0, 85, 64
2, 290208, Note_on_c, 0, 83, 63
2, 290300, Note_off_c, 0, 83, 64
2, 290304, Note_on_c, 0, 81, 62
2, 290400, Note_off_c, 0, 81, 64
2, 290496, Note_on_c, 0, 81, 62
2, 290592, Note_off_c, 0, 81, 64
2, 290688, Note_on_c, 0, 81, 62
2, 290784, Note_off_c, 0, 81, 64
2, 290880, Note_on_c, 0, 81, 62
2, 290976, Note_off_c, 0, 81, 64
2, 291072, Note_on_c, 0, 85, 64
2, 291168, Note_off_c, 0, 85, 64
2, 291264, Note_on_c, 0, 85, 64
2, 291360, Note_off_c, 0, 85, 64
2, 291456, Note_on_c, 0, 88, 65
2, 291552, Note_off_c, 0, 88, 64
2, 291648, Note_on_c, 0, 88, 65
2, 291744, Note_off_c, 0, 88, 64
2, 291840, Note_on_c, 0, 76, 62
2, 292988, Note_off_c, 0, 76, 64
2, 292992, Note_on_c, 0, 88, 85
2, 293372, Note_off_c, 0, 88, 64
2, 293376, Note_on_c, 0, 86, 82
2, 293464, Note_off_c, 0, 86, 64
2, 293472, Note_on_c, 0, 69, 79
2, 293560, Note_off_c, 0, 69, 64
2, 293568, Note_on_c, 0, 90, 84
2, 293608, Note_off_c, 0, 90, 64
2, 293664, Note_on_c, 0, 69, 79
2, 293704, Note_off_c, 0, 69, 64
2, 293760, Note_on_c, 0, 93, 86
2, 293848, Note_off_c, 0, 93, 64
2, 294144, Note_on_c, 0, 88, 65
2, 294232, Note_off_c, 0, 88, 64
2, 294240, Note_on_c, 0, 86, 65
2, 294328, Note_off_c, 0, 86, 64
2, 294336, Note_on_c, 0, 85, 64
2, 294424, Note_off_c, 0, 85, 64
2, 294432, Note_on_c, 0, 86, 65
2, 294520, Note_off_c, 0, 86, 64
2, 294528, Note_on_c, 0, 88, 65
2, 294616, Note_off_c, 0, 88, 64
2, 294624, Note_on_c, 0, 86, 65
2, 294712, Note_off_c, 0, 86, 64
2, 294720, Note_on_c, 0, 85, 64
2, 294808, Note_off_c, 0, 85, 64
2, 294816, Note_on_c, 0, 86, 65
2, 294904, Note_off_c, 0, 86, 64
2, 294912, Note_on_c, 0, 85, 81
2, 295000, Note_off_c, 0, 85, 64
2, 295008, Note_on_c, 0, 69, 79
2, 295096, Note_off_c, 0, 69, 64
2, 295104, Note_on_c, 0, 88, 83
2, 295144, Note_off_c, 0, 88, 64
2, 295200, Note_on_c, 0, 69, 79
2, 295240, Note_off_c, 0, 69, 64
2, 295296, Note_on_c, 0, 93, 86
2, 295384, Note_off_c, 0, 93, 64
2, 295680, Note_on_c, 0, 86, 65
2, 295768, Note_off_c, 0, 86, 64
2, 295776, Note_on_c, 0, 85, 64
2, 295864, Note_off_c, 0, 85, 64
2, 295872, Note_on_c, 0, 83, 63
2, 295960, Note_off_c, 0, 83, 64
2, 295968, Note_on_c, 0, 85, 64
2, 296056, Note_off_c, 0, 85, 64
2, 296064, Note_on_c, 0, 86, 65
2, 296152, Note_off_c, 0, 86, 64
2, 296160, Note_on_c, 0, 85, 64
2, 296248, Note_off_c, 0, 85, 64
2, 296256, Note_on_c, 0, 83, 63
2, 296344, Note_off_c, 0, 83, 64
2, 296352, Note_on_c, 0, 85, 64
2, 296440, Note_off_c, 0, 85, 64
2, 296448, Note_on_c, 0, 85, 91
2, 296512, Note_off_c, 0, 85, 64
2, 296516, Note_on_c, 0, 83, 80
2, 296828, Note_off_c, 0, 83, 64
2, 296832, Note_on_c, 0, 83, 80
2, 296972, Note_off_c, 0, 83, 64
2, 297120, Note_on_c, 0, 83, 88
2, 297160, Note_off_c, 0, 83, 64
2, 297216, Note_on_c, 0, 83, 80
2, 297596, Note_off_c, 0, 83, 64
2, 297600, Note_on_c, 0, 83, 80
2, 297980, Note_off_c, 0, 83, 64
2, 297984, Note_on_c, 0, 83, 80
2, 298364, Note_off_c, 0, 83, 64
2, 298368, Note_on_c, 0, 86, 84
2, 298556, Note_off_c, 0, 86, 64
2, 298560, Note_on_c, 0, 90, 94
2, 298748, Note_off_c, 0, 90, 64
2, 298752, Note_on_c, 0, 90, 94
2, 298940, Note_off_c, 0, 90, 64
2, 298944, Note_on_c, 0, 88, 88
2, 299132, Note_off_c, 0, 88, 64
2, 299136, Note_on_c, 0, 86, 85
2, 299232, Note_off_c, 0, 86, 64
2, 299328, Note_on_c, 0, 85, 80
2, 299424, Note_off_c, 0, 85, 64
2, 299520, Note_on_c, 0, 83, 76
2, 299616, Note_off_c, 0, 83, 64
2, 299904, Note_on_c, 0, 81, 74
2, 300000, Note_off_c, 0, 81, 64
2, 300288, Note_on_c, 0, 83, 68
2, 300384, Note_off_c, 0, 83, 64
2, 300672, Note_on_c, 0, 85, 65
2, 300768, Note_off_c, 0, 85, 64
2, 301056, Note_on_c, 0, 81, 79
2, 301624, Note_off_c, 0, 81, 64
2, 301632, Note_on_c, 0, 85, 81
2, 301716, Note_off_c, 0, 85, 64
2, 301728, Note_on_c, 0, 88, 83
2, 301812, Note_off_c, 0, 88, 64
2, 301824, Note_on_c, 0, 93, 86
2, 302204, Note_off_c, 0, 93, 64
2, 302208, Note_on_c, 0, 78, 62
2, 302296, Note_off_c, 0, 78, 64
2, 302304, Note_on_c, 0, 76, 61
2, 302392, Note_off_c, 0, 76, 64
2, 302400, Note_on_c, 0, 74, 60
2, 302488, Note_off_c, 0, 74, 64
2, 302496, Note_on_c, 0, 73, 60
2, 302584, Note_off_c, 0, 73, 64
2, 302592, Note_on_c, 0, 73, 60
2, 302656, Note_off_c, 0, 73, 64
2, 302656, Note_on_c, 0, 71, 60
2, 302972, Note_off_c, 0, 71, 64
2, 302976, Note_on_c, 0, 71, 60
2, 303116, Note_off_c, 0, 71, 64
2, 303264, Note_on_c, 0, 71, 60
2, 303348, Note_off_c, 0, 71, 64
2, 303360, Note_on_c, 0, 71, 60
2, 303740, Note_off_c, 0, 71, 64
2, 303744, Note_on_c, 0, 71, 60
2, 304124, Note_off_c, 0, 71, 64
2, 304128, Note_on_c, 0, 71, 63
2, 304508, Note_off_c, 0, 71, 64
2, 304512, Note_on_c, 0, 74, 66
2, 304700, Note_off_c, 0, 74, 64
2, 304704, Note_on_c, 0, 78, 69
2, 304892, Note_off_c, 0, 78, 64
2, 304896, Note_on_c, 0, 78, 69
2, 305084, Note_off_c, 0, 78, 64
2, 305088, Note_on_c, 0, 76, 66
2, 305276, Note_off_c, 0, 76, 64
2, 305280, Note_on_c, 0, 74, 64
2, 305372, Note_off_c, 0, 74, 64
2, 305472, Note_on_c, 0, 73, 61
2, 305564, Note_off_c, 0, 73, 64
2, 305664, Note_on_c, 0, 71, 60
2, 305756, Note_off_c, 0, 71, 64
2, 306048, Note_on_c, 0, 69, 60
2, 306140, Note_off_c, 0, 69, 64
2, 306432, Note_on_c, 0, 71, 60
2, 306524, Note_off_c, 0, 71, 64
2, 306816, Note_on_c, 0, 73, 60
2, 306908, Note_off_c, 0, 73, 64
2, 307200, Note_on_c, 0, 69, 77
2, 307296, Note_off_c, 0, 69, 64
2, 307296, Note_on_c, 0, 81, 79
2, 307392, Note_off_c, 0, 81, 64
2, 307392, Note_on_c, 0, 80, 78
2, 307488, Note_off_c, 0, 80, 64
2, 307488, Note_on_c, 0, 81, 79
2, 307584, Note_off_c, 0, 81, 64
2, 307584, Note_on_c, 0, 80, 78
2, 307668, Note_off_c, 0, 80, 64
2, 307680, Note_on_c, 0, 81, 79
2, 307764, Note_off_c, 0, 81, 64
2, 307776, Note_on_c, 0, 80, 77
2, 307860, Note_off_c, 0, 80, 64
2, 307872, Note_on_c, 0, 81, 79
2, 307956, Note_off_c, 0, 81, 64
2, 307968, Note_on_c, 0, 76, 76
2, 308064, Note_off_c, 0, 76, 64
2, 308064, Note_on_c, 0, 81, 79
2, 308160, Note_off_c, 0, 81, 64
2, 308160, Note_on_c, 0, 80, 78
2, 308256, Note_off_c, 0, 80, 64
2, 308256, Note_on_c, 0, 81, 79
2, 308352, Note_off_c, 0, 81, 64
2, 308352, Note_on_c, 0, 80, 78
2, 308436, Note_off_c, 0, 80, 64
2, 308448, Note_on_c, 0, 81, 79
2, 308532, Note_off_c, 0, 81, 64
2, 308544, Note_on_c, 0, 86, 82
2, 308628, Note_off_c, 0, 86, 64
2, 308640, Note_on_c, 0, 81, 79
2, 308724, Note_off_c, 0, 81, 64
2, 308736, Note_on_c, 0, 85, 81
2, 308832, Note_off_c, 0, 85, 64
2, 308832, Note_on_c, 0, 81, 79
2, 308928, Note_off_c, 0, 81, 64
2, 308928, Note_on_c, 0, 80, 78
2, 309024, Note_off_c, 0, 80, 64
2, 309024, Note_on_c, 0, 81, 79
2, 309120, Note_off_c, 0, 81, 64
2, 309120, Note_on_c, 0, 80, 78
2, 309204, Note_off_c, 0, 80, 64
2, 309216, Note_on_c, 0, 81, 79
2, 309300, Note_off_c, 0, 81, 64
2, 309312, Note_on_c, 0, 78, 77
2, 309396, Note_off_c, 0, 78, 64
2, 309408, Note_on_c, 0, 81, 79
2, 309492, Note_off_c, 0, 81, 64
2, 309504, Note_on_c, 0, 76, 76
2, 309600, Note_off_c, 0, 76, 64
2, 309600, Note_on_c, 0, 81, 79
2, 309696, Note_off_c, 0, 81, 64
2, 309696, Note_on_c, 0, 80, 78
2, 309792, Note_off_c, 0, 80, 64
2, 309792, Note_on_c, 0, 81, 79
2, 309888, Note_off_c, 0, 81, 64
2, 309888, Note_on_c, 0, 80, 78
2, 309972, Note_off_c, 0, 80, 64
2, 309984, Note_on_c, 0, 81, 79
2, 310068, Note_off_c, 0, 81, 64
2, 310080, Note_on_c, 0, 86, 82
2, 310164, Note_off_c, 0, 86, 64
2, 310176, Note_on_c, 0, 81, 79
2, 310260, Note_off_c, 0, 81, 64
2, 310272, Note_on_c, 0, 85, 81
2, 310356, Note_off_c, 0, 85, 64
2, 310368, Note_on_c, 0, 83, 80
2, 310452, Note_off_c, 0, 83, 64
2, 310464, Note_on_c, 0, 81, 79
2, 310560, Note_off_c, 0, 81, 64
2, 310560, Note_on_c, 0, 80, 78
2, 310656, Note_off_c, 0, 80, 64
2, 310656, Note_on_c, 0, 81, 79
2, 310752, Note_off_c, 0, 81, 64
2, 310752, Note_on_c, 0, 83, 80
2, 310848, Note_off_c, 0, 83, 64
2, 310848, Note_on_c, 0, 85, 81
2, 310944, Note_off_c, 0, 85, 64
2, 310944, Note_on_c, 0, 86, 82
2, 311040, Note_off_c, 0, 86, 64
2, 311040, Note_on_c, 0, 88, 83
2, 311136, Note_off_c, 0, 88, 64
2, 311136, Note_on_c, 0, 86, 82
2, 311216, Note_on_c, 0, 85, 81
2, 311232, Note_off_c, 0, 86, 64
2, 311312, Note_off_c, 0, 85, 64
2, 311328, Note_on_c, 0, 83, 80
2, 311424, Note_off_c, 0, 83, 64
2, 311424, Note_on_c, 0, 85, 81
2, 311520, Note_off_c, 0, 85, 64
2, 311520, Note_on_c, 0, 86, 82
2, 311616, Note_off_c, 0, 86, 64
2, 311616, Note_on_c, 0, 88, 83
2, 311712, Note_off_c, 0, 88, 64
2, 311712, Note_on_c, 0, 90, 84
2, 311808, Note_off_c, 0, 90, 64
2, 311808, Note_on_c, 0, 91, 76
2, 312572, Note_off_c, 0, 91, 64
2, 312576, Note_on_c, 0, 90, 76
2, 312956, Note_off_c, 0, 90, 64
2, 312960, Note_on_c, 0, 89, 75
2, 313340, Note_off_c, 0, 89, 64
2, 313344, Note_on_c, 0, 90, 76
2, 314108, Note_off_c, 0, 90, 64
2, 314112, Note_on_c, 0, 88, 75
2, 314492, Note_off_c, 0, 88, 64
2, 314496, Note_on_c, 0, 87, 74
2, 314876, Note_off_c, 0, 87, 64
2, 314880, Note_on_c, 0, 88, 75
2, 315160, Note_off_c, 0, 88, 64
2, 315168, Note_on_c, 0, 81, 71
2, 315252, Note_off_c, 0, 81, 64
2, 315264, Note_on_c, 0, 86, 74
2, 315544, Note_off_c, 0, 86, 64
2, 315552, Note_on_c, 0, 83, 72
2, 315636, Note_off_c, 0, 83, 64
2, 315648, Note_on_c, 0, 83, 72
2, 315692, Note_off_c, 0, 83, 64
2, 315696, Note_on_c, 0, 85, 73
2, 315740, Note_off_c, 0, 85, 64
2, 315744, Note_on_c, 0, 83, 72
2, 315788, Note_off_c, 0, 83, 64
2, 315792, Note_on_c, 0, 85, 73
2, 315836, Note_off_c, 0, 85, 64
2, 315840, Note_on_c, 0, 83, 72
2, 315884, Note_off_c, 0, 83, 64
2, 315888, Note_on_c, 0, 85, 73
2, 315932, Note_off_c, 0, 85, 64
2, 315936, Note_on_c, 0, 83, 72
2, 315980, Note_off_c, 0, 83, 64
2, 315984, Note_on_c, 0, 85, 73
2, 316028, Note_off_c, 0, 85, 64
2, 316032, Note_on_c, 0, 83, 72
2, 316076, Note_off_c, 0, 83, 64
2, 316080, Note_on_c, 0, 85, 73
2, 316124, Note_off_c, 0, 85, 64
2, 316128, Note_on_c, 0, 83, 72
2, 316172, Note_off_c, 0, 83, 64
2, 316176, Note_on_c, 0, 85, 73
2, 316220, Note_off_c, 0, 85, 64
2, 316224, Note_on_c, 0, 81, 71
2, 316312, Note_off_c, 0, 81, 64
2, 316320, Note_on_c, 0, 83, 72
2, 316408, Note_off_c, 0, 83, 64
2, 316416, Note_on_c, 0, 81, 71
2, 316500, Note_off_c, 0, 81, 64
2, 316512, Note_on_c, 0, 76, 69
2, 316596, Note_off_c, 0, 76, 64
2, 316608, Note_on_c, 0, 73, 69
2, 316704, Note_off_c, 0, 73, 64
2, 316704, Note_on_c, 0, 71, 69
2, 316800, Note_off_c, 0, 71, 64
2, 316800, Note_on_c, 0, 69, 69
2, 316896, Note_off_c, 0, 69, 64
2, 316896, Note_on_c, 0, 71, 69
2, 316992, Note_off_c, 0, 71, 64
2, 316992, Note_on_c, 0, 73, 69
2, 317088, Note_on_c, 0, 74, 69
2, 317092, Note_off_c, 0, 73, 64
2, 317180, Note_off_c, 0, 74, 64
2, 317184, Note_on_c, 0, 76, 69
2, 317280, Note_off_c, 0, 76, 64
2, 317280, Note_on_c, 0, 74, 69
2, 317376, Note_off_c, 0, 74, 64
2, 317376, Note_on_c, 0, 73, 69
2, 317472, Note_off_c, 0, 73, 64
2, 317472, Note_on_c, 0, 71, 69
2, 317568, Note_off_c, 0, 71, 64
2, 317568, Note_on_c, 0, 73, 69
2, 317664, Note_off_c, 0, 73, 64
2, 317664, Note_on_c, 0, 74, 69
2, 317760, Note_off_c, 0, 74, 64
2, 317760, Note_on_c, 0, 76, 69
2, 317856, Note_off_c, 0, 76, 64
2, 317856, Note_on_c, 0, 78, 69
2, 317952, Note_off_c, 0, 78, 64
2, 317952, Note_on_c, 0, 79, 70
2, 318716, Note_off_c, 0, 79, 64
2, 318720, Note_on_c, 0, 78, 69
2, 319100, Note_off_c, 0, 78, 64
2, 319104, Note_on_c, 0, 77, 69
2, 319484, Note_off_c, 0, 77, 64
2, 319488, Note_on_c, 0, 78, 69
2, 320252, Note_off_c, 0, 78, 64
2, 320256, Note_on_c, 0, 76, 69
2, 320636, Note_off_c, 0, 76, 64
2, 320640, Note_on_c, 0, 75, 69
2, 321020, Note_off_c, 0, 75, 64
2, 321024, Note_on_c, 0, 76, 69
2, 321304, Note_off_c, 0, 76, 64
2, 321312, Note_on_c, 0, 69, 69
2, 321396, Note_off_c, 0, 69, 64
2, 321408, Note_on_c, 0, 74, 69
2, 321688, Note_off_c, 0, 74, 64
2, 321696, Note_on_c, 0, 71, 69
2, 321780, Note_off_c, 0, 71, 64
2, 321792, Note_on_c, 0, 71, 69
2, 321836, Note_off_c, 0, 71, 64
2, 321840, Note_on_c, 0, 73, 69
2, 321884, Note_off_c, 0, 73, 64
2, 321888, Note_on_c, 0, 71, 69
2, 321932, Note_off_c, 0, 71, 64
2, 321936, Note_on_c, 0, 73, 69
2, 321980, Note_off_c, 0, 73, 64
2, 321984, Note_on_c, 0, 71, 69
2, 322028, Note_off_c, 0, 71, 64
2, 322032, Note_on_c, 0, 73, 69
2, 322076, Note_off_c, 0, 73, 64
2, 322080, Note_on_c, 0, 71, 69
2, 322124, Note_off_c, 0, 71, 64
2, 322128, Note_on_c, 0, 73, 69
2, 322172, Note_off_c, 0, 73, 64
2, 322176, Note_on_c, 0, 71, 69
2, 322220, Note_off_c, 0, 71, 64
2, 322224, Note_on_c, 0, 73, 69
2, 322268, Note_off_c, 0, 73, 64
2, 322272, Note_on_c, 0, 71, 69
2, 322316, Note_off_c, 0, 71, 64
2, 322320, Note_on_c, 0, 73, 69
2, 322364, Note_off_c, 0, 73, 64
2, 322368, Note_on_c, 0, 69, 69
2, 322456, Note_off_c, 0, 69, 64
2, 322464, Note_on_c, 0, 71, 69
2, 322552, Note_off_c, 0, 71, 64
2, 322560, Note_on_c, 0, 73, 69
2, 322644, Note_off_c, 0, 73, 64
2, 322656, Note_on_c, 0, 69, 69
2, 322740, Note_off_c, 0, 69, 64
2, 322752, Note_on_c, 0, 71, 69
2, 322848, Note_off_c, 0, 71, 64
2, 322848, Note_on_c, 0, 73, 69
2, 322944, Note_off_c, 0, 73, 64
2, 322944, Note_on_c, 0, 74, 69
2, 323040, Note_off_c, 0, 74, 64
2, 323040, Note_on_c, 0, 76, 69
2, 323136, Note_off_c, 0, 76, 64
2, 323136, Note_on_c, 0, 78, 69
2, 323232, Note_off_c, 0, 78, 64
2, 323232, Note_on_c, 0, 80, 70
2, 323328, Note_off_c, 0, 80, 64
2, 323328, Note_on_c, 0, 81, 71
2, 323412, Note_off_c, 0, 81, 64
2, 323424, Note_on_c, 0, 83, 72
2, 323508, Note_off_c, 0, 83, 64
2, 323520, Note_on_c, 0, 85, 73
2, 323616, Note_off_c, 0, 85, 64
2, 323616, Note_on_c, 0, 86, 74
2, 323712, Note_off_c, 0, 86, 64
2, 323712, Note_on_c, 0, 88, 75
2, 323796, Note_off_c, 0, 88, 64
2, 323808, Note_on_c, 0, 85, 73
2, 323892, Note_off_c, 0, 85, 64
2, 323904, Note_on_c, 0, 83, 72
2, 324000, Note_off_c, 0, 83, 64
2, 324000, Note_on_c, 0, 81, 71
2, 324096, Note_off_c, 0, 81, 64
2, 324096, Note_on_c, 0, 90, 76
2, 324140, Note_off_c, 0, 90, 64
2, 324144, Note_on_c, 0, 92, 76
2, 324188, Note_off_c, 0, 92, 64
2, 324192, Note_on_c, 0, 90, 76
2, 324236, Note_off_c, 0, 90, 64
2, 324240, Note_on_c, 0, 92, 76
2, 324284, Note_off_c, 0, 92, 64
2, 324288, Note_on_c, 0, 90, 76
2, 324332, Note_off_c, 0, 90, 64
2, 324336, Note_on_c, 0, 92, 76
2, 324380, Note_off_c, 0, 92, 64
2, 324384, Note_on_c, 0, 90, 76
2, 324428, Note_off_c, 0, 90, 64
2, 324432, Note_on_c, 0, 92, 76
2, 324476, Note_off_c, 0, 92, 64
2, 324480, Note_on_c, 0, 90, 76
2, 324524, Note_off_c, 0, 90, 64
2, 324528, Note_on_c, 0, 92, 76
2, 324572, Note_off_c, 0, 92, 64
2, 324576, Note_on_c, 0, 90, 76
2, 324620, Note_off_c, 0, 90, 64
2, 324624, Note_on_c, 0, 92, 76
2, 324668, Note_off_c, 0, 92, 64
2, 324672, Note_on_c, 0, 88, 76
2, 324760, Note_off_c, 0, 88, 64
2, 324768, Note_on_c, 0, 90, 76
2, 324856, Note_off_c, 0, 90, 64
2, 324864, Note_on_c, 0, 92, 76
2, 325244, Note_off_c, 0, 92, 64
2, 325248, Note_on_c, 0, 93, 76
2, 325536, Note_off_c, 0, 93, 64
2, 325536, Note_on_c, 0, 87, 74
2, 325576, Note_off_c, 0, 87, 64
2, 325632, Note_on_c, 0, 88, 75
2, 325920, Note_off_c, 0, 88, 64
2, 325920, Note_on_c, 0, 88, 75
2, 325960, Note_off_c, 0, 88, 64
2, 326016, Note_on_c, 0, 90, 76
2, 326104, Note_off_c, 0, 90, 64
2, 326112, Note_on_c, 0, 88, 75
2, 326200, Note_off_c, 0, 88, 64
2, 326208, Note_on_c, 0, 87, 74
2, 326296, Note_off_c, 0, 87, 64
2, 326304, Note_on_c, 0, 88, 75
2, 326392, Note_off_c, 0, 88, 64
2, 326400, Note_on_c, 0, 92, 76
2, 326488, Note_off_c, 0, 92, 64
2, 326496, Note_on_c, 0, 90, 76
2, 326584, Note_off_c, 0, 90, 64
2, 326592, Note_on_c, 0, 88, 75
2, 326680, Note_off_c, 0, 88, 64
2, 326688, Note_on_c, 0, 90, 76
2, 326776, Note_off_c, 0, 90, 64
2, 326784, Note_on_c, 0, 93, 76
2, 326872, Note_off_c, 0, 93, 64
2, 326880, Note_on_c, 0, 92, 76
2, 326968, Note_off_c, 0, 92, 64
2, 326976, Note_on_c, 0, 90, 76
2, 327064, Note_off_c, 0, 90, 64
2, 327072, Note_on_c, 0, 92, 76
2, 327160, Note_off_c, 0, 92, 64
2, 327168, Note_on_c, 0, 93, 76
2, 327256, Note_off_c, 0, 93, 64
2, 327264, Note_on_c, 0, 95, 77
2, 327352, Note_off_c, 0, 95, 64
2, 327360, Note_on_c, 0, 97, 78
2, 327448, Note_off_c, 0, 97, 64
2, 327456, Note_on_c, 0, 93, 76
2, 327544, Note_off_c, 0, 93, 64
2, 327552, Note_on_c, 0, 88, 75
2, 327640, Note_off_c, 0, 88, 64
2, 327648, Note_on_c, 0, 92, 76
2, 327736, Note_off_c, 0, 92, 64
2, 327744, Note_on_c, 0, 93, 76
2, 327832, Note_off_c, 0, 93, 64
2, 327840, Note_on_c, 0, 92, 76
2, 327928, Note_off_c, 0, 92, 64
2, 327936, Note_on_c, 0, 85, 73
2, 328024, Note_off_c, 0, 85, 64
2, 328032, Note_on_c, 0, 86, 74
2, 328120, Note_off_c, 0, 86, 64
2, 328128, Note_on_c, 0, 88, 75
2, 328216, Note_off_c, 0, 88, 64
2, 328224, Note_on_c, 0, 85, 73
2, 328312, Note_off_c, 0, 85, 64
2, 328320, Note_on_c, 0, 81, 71
2, 328408, Note_off_c, 0, 81, 64
2, 328416, Note_on_c, 0, 83, 72
2, 328504, Note_off_c, 0, 83, 64
2, 328512, Note_on_c, 0, 85, 73
2, 328600, Note_off_c, 0, 85, 64
2, 328608, Note_on_c, 0, 81, 71
2, 328696, Note_off_c, 0, 81, 64
2, 328704, Note_on_c, 0, 76, 69
2, 329084, Note_off_c, 0, 76, 64
2, 329088, Note_on_c, 0, 88, 83
2, 329852, Note_off_c, 0, 88, 64
2, 329856, Note_on_c, 0, 86, 74
2, 329948, Note_off_c, 0, 86, 64
2, 329952, Note_on_c, 0, 85, 73
2, 330044, Note_off_c, 0, 85, 64
2, 330048, Note_on_c, 0, 83, 72
2, 330140, Note_off_c, 0, 83, 64
2, 330144, Note_on_c, 0, 81, 71
2, 330236, Note_off_c, 0, 81, 64
2, 330240, Note_on_c, 0, 83, 72
2, 330284, Note_off_c, 0, 83, 64
2, 330288, Note_on_c, 0, 85, 72
2, 330332, Note_off_c, 0, 85, 64
2, 330336, Note_on_c, 0, 83, 72
2, 330380, Note_off_c, 0, 83, 64
2, 330384, Note_on_c, 0, 85, 72
2, 330428, Note_off_c, 0, 85, 64
2, 330432, Note_on_c, 0, 83, 73
2, 330476, Note_off_c, 0, 83, 64
2, 330480, Note_on_c, 0, 85, 73
2, 330524, Note_off_c, 0, 85, 64
2, 330528, Note_on_c, 0, 83, 73
2, 330572, Note_off_c, 0, 83, 64
2, 330576, Note_on_c, 0, 85, 73
2, 330620, Note_off_c, 0, 85, 64
2, 330624, Note_on_c, 0, 83, 74
2, 330668, Note_off_c, 0, 83, 64
2, 330672, Note_on_c, 0, 85, 74
2, 330716, Note_off_c, 0, 85, 64
2, 330720, Note_on_c, 0, 83, 74
2, 330764, Note_off_c, 0, 83, 64
2, 330768, Note_on_c, 0, 85, 75
2, 330812, Note_off_c, 0, 85, 64
2, 330816, Note_on_c, 0, 83, 75
2, 330860, Note_off_c, 0, 83, 64
2, 330864, Note_on_c, 0, 85, 75
2, 330908, Note_off_c, 0, 85, 64
2, 330912, Note_on_c, 0, 83, 75
2, 330956, Note_off_c, 0, 83, 64
2, 330960, Note_on_c, 0, 85, 76
2, 331004, Note_off_c, 0, 85, 64
2, 331008, Note_on_c, 0, 83, 76
2, 331052, Note_off_c, 0, 83, 64
2, 331056, Note_on_c, 0, 85, 76
2, 331100, Note_off_c, 0, 85, 64
2, 331104, Note_on_c, 0, 83, 76
2, 331148, Note_off_c, 0, 83, 64
2, 331152, Note_on_c, 0, 85, 76
2, 331196, Note_off_c, 0, 85, 64
2, 331200, Note_on_c, 0, 83, 76
2, 331244, Note_off_c, 0, 83, 64
2, 331248, Note_on_c, 0, 85, 76
2, 331292, Note_off_c, 0, 85, 64
2, 331296, Note_on_c, 0, 83, 76
2, 331340, Note_off_c, 0, 83, 64
2, 331344, Note_on_c, 0, 85, 76
2, 331388, Note_off_c, 0, 85, 64
2, 331392, Note_on_c, 0, 83, 76
2, 331436, Note_off_c, 0, 83, 64
2, 331440, Note_on_c, 0, 85, 77
2, 331484, Note_off_c, 0, 85, 64
2, 331488, Note_on_c, 0, 83, 77
2, 331532, Note_off_c, 0, 83, 64
2, 331536, Note_on_c, 0, 85, 77
2, 331580, Note_off_c, 0, 85, 64
2, 331584, Note_on_c, 0, 81, 77
2, 331672, Note_off_c, 0, 81, 64
2, 331680, Note_on_c, 0, 83, 78
2, 331768, Note_off_c, 0, 83, 64
2, 331776, Note_on_c, 0, 81, 79
2, 332156, Note_off_c, 0, 81, 64
2, 337908, Control_c, 0, 1, 45
2, 337920, Note_on_c, 0, 73, 60
2, 338108, Note_off_c, 0, 73, 64
2, 338112, Note_on_c, 0, 69, 60
2, 338300, Note_off_c, 0, 69, 64
2, 338688, Note_on_c, 0, 76, 60
2, 338876, Note_off_c, 0, 76, 64
2, 338880, Note_on_c, 0, 73, 60
2, 339068, Note_off_c, 0, 73, 64
2, 339456, Note_on_c, 0, 76, 61
2, 339644, Note_off_c, 0, 76, 64
2, 339648, Note_on_c, 0, 73, 63
2, 339836, Note_off_c, 0, 73, 64
2, 339840, Note_on_c, 0, 81, 65
2, 340028, Note_off_c, 0, 81, 64
2, 340032, Note_on_c, 0, 76, 67
2, 340220, Note_off_c, 0, 76, 64
2, 340224, Note_on_c, 0, 85, 70
2, 340412, Note_off_c, 0, 85, 64
2, 340416, Note_on_c, 0, 81, 73
2, 340604, Note_off_c, 0, 81, 64
2, 340608, Note_on_c, 0, 88, 75
2, 340796, Note_off_c, 0, 88, 64
2, 340800, Note_on_c, 0, 85, 76
2, 340988, Note_off_c, 0, 85, 64
2, 340992, Note_on_c, 0, 93, 87
2, 341080, Note_off_c, 0, 93, 64
2, 341088, Note_on_c, 0, 88, 77
2, 341176, Note_off_c, 0, 88, 64
2, 341184, Note_on_c, 0, 93, 77
2, 341272, Note_off_c, 0, 93, 64
2, 341280, Note_on_c, 0, 88, 77
2, 341368, Note_off_c, 0, 88, 64
2, 341376, Note_on_c, 0, 85, 77
2, 341464, Note_off_c, 0, 85, 64
2, 341472, Note_on_c, 0, 88, 77
2, 341560, Note_off_c, 0, 88, 64
2, 341568, Note_on_c, 0, 85, 77
2, 341656, Note_off_c, 0, 85, 64
2, 341664, Note_on_c, 0, 88, 77
2, 341752, Note_off_c, 0, 88, 64
2, 341760, Note_on_c, 0, 81, 77
2, 341848, Note_off_c, 0, 81, 64
2, 341856, Note_on_c, 0, 85, 77
2, 341944, Note_off_c, 0, 85, 64
2, 341952, Note_on_c, 0, 81, 77
2, 342040, Note_off_c, 0, 81, 64
2, 342048, Note_on_c, 0, 85, 77
2, 342136, Note_off_c, 0, 85, 64
2, 342144, Note_on_c, 0, 76, 77
2, 342232, Note_off_c, 0, 76, 64
2, 342240, Note_on_c, 0, 81, 77
2, 342328, Note_off_c, 0, 81, 64
2, 342336, Note_on_c, 0, 85, 77
2, 342424, Note_off_c, 0, 85, 64
2, 342432, Note_on_c, 0, 81, 77
2, 342520, Note_off_c, 0, 81, 64
2, 342528, Note_on_c, 0, 88, 87
2, 342616, Note_off_c, 0, 88, 64
2, 342624, Note_on_c, 0, 85, 77
2, 342712, Note_off_c, 0, 85, 64
2, 342720, Note_on_c, 0, 88, 77
2, 342808, Note_off_c, 0, 88, 64
2, 342816, Note_on_c, 0, 85, 77
2, 342904, Note_off_c, 0, 85, 64
2, 342912, Note_on_c, 0, 81, 77
2, 343000, Note_off_c, 0, 81, 64
2, 343008, Note_on_c, 0, 85, 77
2, 343096, Note_off_c, 0, 85, 64
2, 343104, Note_on_c, 0, 81, 77
2, 343192, Note_off_c, 0, 81, 64
2, 343200, Note_on_c, 0, 85, 77
2, 343288, Note_off_c, 0, 85, 64
2, 343296, Note_on_c, 0, 76, 77
2, 343384, Note_off_c, 0, 76, 64
2, 343392, Note_on_c, 0, 81, 77
2, 343480, Note_off_c, 0, 81, 64
2, 343488, Note_on_c, 0, 76, 77
2, 343576, Note_off_c, 0, 76, 64
2, 343584, Note_on_c, 0, 81, 77
2, 343672, Note_off_c, 0, 81, 64
2, 343680, Note_on_c, 0, 73, 77
2, 343768, Note_off_c, 0, 73, 64
2, 343776, Note_on_c, 0, 76, 77
2, 343864, Note_off_c, 0, 76, 64
2, 343872, Note_on_c, 0, 81, 77
2, 343960, Note_off_c, 0, 81, 64
2, 343968, Note_on_c, 0, 76, 77
2, 344056, Note_off_c, 0, 76, 64
2, 344064, Note_on_c, 0, 85, 60
2, 344152, Note_off_c, 0, 85, 64
2, 344160, Note_on_c, 0, 81, 61
2, 344248, Note_off_c, 0, 81, 64
2, 344256, Note_on_c, 0, 76, 62
2, 344344, Note_off_c, 0, 76, 64
2, 344352, Note_on_c, 0, 81, 64
2, 344440, Note_off_c, 0, 81, 64
2, 344448, Note_on_c, 0, 73, 65
2, 344536, Note_off_c, 0, 73, 64
2, 344544, Note_on_c, 0, 76, 65
2, 344632, Note_off_c, 0, 76, 64
2, 344640, Note_on_c, 0, 69, 67
2, 344728, Note_off_c, 0, 69, 64
2, 344736, Note_on_c, 0, 73, 68
2, 344824, Note_off_c, 0, 73, 64
2, 344832, Note_on_c, 0, 81, 70
2, 344920, Note_off_c, 0, 81, 64
2, 344928, Note_on_c, 0, 76, 71
2, 345016, Note_off_c, 0, 76, 64
2, 345024, Note_on_c, 0, 73, 72
2, 345112, Note_off_c, 0, 73, 64
2, 345120, Note_on_c, 0, 69, 74
2, 345208, Note_off_c, 0, 69, 64
2, 345216, Note_on_c, 0, 64, 75
2, 345304, Note_off_c, 0, 64, 64
2, 345312, Note_on_c, 0, 69, 76
2, 345400, Note_off_c, 0, 69, 64
2, 345408, Note_on_c, 0, 61, 76
2, 345496, Note_off_c, 0, 61, 64
2, 345504, Note_on_c, 0, 64, 77
2, 345592, Note_off_c, 0, 64, 64
2, 345600, Note_on_c, 0, 76, 85
2, 345600, Note_on_c, 0, 71, 85
2, 345600, Note_on_c, 0, 64, 85
2, 345980, Note_off_c, 0, 76, 64
2, 345980, Note_off_c, 0, 71, 64
2, 345980, Note_off_c, 0, 64, 64
2, 345984, Note_on_c, 0, 76, 77
2, 346072, Note_off_c, 0, 76, 64
2, 346080, Note_on_c, 0, 76, 83
2, 346168, Note_off_c, 0, 76, 64
2, 346176, Note_on_c, 0, 80, 78
2, 346264, Note_off_c, 0, 80, 64
2, 346272, Note_on_c, 0, 76, 81
2, 346364, Note_off_c, 0, 76, 64
2, 346368, Note_on_c, 0, 83, 80
2, 346460, Note_off_c, 0, 83, 64
2, 346464, Note_on_c, 0, 76, 79
2, 346556, Note_off_c, 0, 76, 64
2, 346560, Note_on_c, 0, 88, 83
2, 346652, Note_off_c, 0, 88, 64
2, 346656, Note_on_c, 0, 76, 77
2, 346748, Note_off_c, 0, 76, 64
2, 346752, Note_on_c, 0, 92, 85
2, 346844, Note_off_c, 0, 92, 64
2, 346848, Note_on_c, 0, 76, 76
2, 346940, Note_off_c, 0, 76, 64
2, 346944, Note_on_c, 0, 83, 80
2, 347036, Note_off_c, 0, 83, 64
2, 347040, Note_on_c, 0, 76, 74
2, 347132, Note_off_c, 0, 76, 64
2, 347136, Note_on_c, 0, 83, 80
2, 347228, Note_off_c, 0, 83, 64
2, 347232, Note_on_c, 0, 76, 72
2, 347324, Note_off_c, 0, 76, 64
2, 347328, Note_on_c, 0, 88, 83
2, 347420, Note_off_c, 0, 88, 64
2, 347424, Note_on_c, 0, 76, 70
2, 347516, Note_off_c, 0, 76, 64
2, 347520, Note_on_c, 0, 95, 87
2, 347612, Note_off_c, 0, 95, 64
2, 347616, Note_on_c, 0, 76, 68
2, 347708, Note_off_c, 0, 76, 64
2, 347712, Note_on_c, 0, 88, 83
2, 347804, Note_off_c, 0, 88, 64
2, 347808, Note_on_c, 0, 76, 66
2, 347900, Note_off_c, 0, 76, 64
2, 347904, Note_on_c, 0, 92, 87
2, 347996, Note_off_c, 0, 92, 64
2, 348000, Note_on_c, 0, 76, 64
2, 348092, Note_off_c, 0, 76, 64
2, 348096, Note_on_c, 0, 95, 89
2, 348188, Note_off_c, 0, 95, 64
2, 348192, Note_on_c, 0, 76, 62
2, 348284, Note_off_c, 0, 76, 64
2, 348288, Note_on_c, 0, 100, 92
2, 349052, Note_off_c, 0, 100, 64
2, 349824, Note_on_c, 0, 68, 60
2, 350204, Note_off_c, 0, 68, 64
2, 350208, Note_on_c, 0, 80, 71
2, 350332, Note_off_c, 0, 80, 64
2, 350336, Note_on_c, 0, 68, 60
2, 350336, Note_on_c, 0, 60, 60
2, 350396, Note_off_c, 0, 68, 64
2, 350396, Note_off_c, 0, 60, 64
2, 350464, Note_on_c, 0, 68, 60
2, 350464, Note_on_c, 0, 60, 60
2, 350524, Note_off_c, 0, 68, 64
2, 350524, Note_off_c, 0, 60, 64
2, 350592, Note_on_c, 0, 69, 63
2, 350716, Note_off_c, 0, 69, 64
2, 350720, Note_on_c, 0, 68, 60
2, 350720, Note_on_c, 0, 60, 60
2, 350780, Note_off_c, 0, 68, 64
2, 350780, Note_off_c, 0, 60, 64
2, 350848, Note_on_c, 0, 68, 60
2, 350848, Note_on_c, 0, 60, 60
2, 350908, Note_off_c, 0, 68, 64
2, 350908, Note_off_c, 0, 60, 64
2, 350976, Note_on_c, 0, 75, 63
2, 351100, Note_off_c, 0, 75, 64
2, 351104, Note_on_c, 0, 68, 60
2, 351104, Note_on_c, 0, 60, 60
2, 351164, Note_off_c, 0, 68, 64
2, 351164, Note_off_c, 0, 60, 64
2, 351232, Note_on_c, 0, 68, 60
2, 351232, Note_on_c, 0, 60, 60
2, 351292, Note_off_c, 0, 68, 64
2, 351292, Note_off_c, 0, 60, 64
2, 351360, Note_on_c, 0, 78, 63
2, 351484, Note_off_c, 0, 78, 64
2, 351488, Note_on_c, 0, 68, 60
2, 351548, Note_off_c, 0, 68, 64
2, 351616, Note_on_c, 0, 68, 60
2, 351676, Note_off_c, 0, 68, 64
2, 351744, Note_on_c, 0, 78, 60
2, 351744, Note_on_c, 0, 68, 60
2, 351744, Note_on_c, 0, 61, 60
2, 351928, Note_off_c, 0, 78, 64
2, 351928, Note_off_c, 0, 68, 64
2, 351928, Note_off_c, 0, 61, 64
2, 351936, Note_on_c, 0, 76, 60
2, 352120, Note_off_c, 0, 76, 64
2, 352128, Note_on_c, 0, 76, 63
2, 352252, Note_off_c, 0, 76, 64
2, 352256, Note_on_c, 0, 68, 60
2, 352256, Note_on_c, 0, 61, 60
2, 352316, Note_off_c, 0, 68, 64
2, 352316, Note_off_c, 0, 61, 64
2, 352384, Note_on_c, 0, 68, 60
2, 352384, Note_on_c, 0, 61, 60
2, 352444, Note_off_c, 0, 68, 64
2, 352444, Note_off_c, 0, 61, 64
2, 352512, Note_on_c, 0, 69, 63
2, 352636, Note_off_c, 0, 69, 64
2, 352640, Note_on_c, 0, 68, 60
2, 352640, Note_on_c, 0, 61, 60
2, 352700, Note_off_c, 0, 68, 64
2, 352700, Note_off_c, 0, 61, 64
2, 352768, Note_on_c, 0, 68, 60
2, 352768, Note_on_c, 0, 61, 60
2, 352828, Note_off_c, 0, 68, 64
2, 352828, Note_off_c, 0, 61, 64
2, 352896, Note_on_c, 0, 75, 60
2, 352896, Note_on_c, 0, 64, 60
2, 353080, Note_off_c, 0, 75, 64
2, 353088, Note_on_c, 0, 73, 60
2, 353272, Note_off_c, 0, 64, 64
2, 353272, Note_off_c, 0, 73, 64
2, 353280, Note_on_c, 0, 73, 60
2, 353280, Note_on_c, 0, 63, 60
2, 353464, Note_off_c, 0, 73, 64
2, 353472, Note_on_c, 0, 72, 60
2, 353656, Note_off_c, 0, 63, 64
2, 353656, Note_off_c, 0, 72, 64
2, 353664, Note_on_c, 0, 72, 63
2, 353788, Note_off_c, 0, 72, 64
2, 353792, Note_on_c, 0, 68, 60
2, 353792, Note_on_c, 0, 56, 60
2, 353852, Note_off_c, 0, 68, 64
2, 353852, Note_off_c, 0, 56, 64
2, 353920, Note_on_c, 0, 68, 60
2, 353920, Note_on_c, 0, 56, 60
2, 353980, Note_off_c, 0, 68, 64
2, 353980, Note_off_c, 0, 56, 64
2, 354048, Note_on_c, 0, 69, 63
2, 354172, Note_off_c, 0, 69, 64
2, 354176, Note_on_c, 0, 68, 60
2, 354176, Note_on_c, 0, 56, 60
2, 354236, Note_off_c, 0, 68, 64
2, 354236, Note_off_c, 0, 56, 64
2, 354304, Note_on_c, 0, 68, 60
2, 354304, Note_on_c, 0, 56, 60
2, 354364, Note_off_c, 0, 68, 64
2, 354364, Note_off_c, 0, 56, 64
2, 354432, Note_on_c, 0, 72, 63
2, 354556, Note_off_c, 0, 72, 64
2, 354560, Note_on_c, 0, 66, 60
2, 354560, Note_on_c, 0, 56, 60
2, 354620, Note_off_c, 0, 66, 64
2, 354620, Note_off_c, 0, 56, 64
2, 354688, Note_on_c, 0, 66, 60
2, 354688, Note_on_c, 0, 56, 60
2, 354748, Note_off_c, 0, 66, 64
2, 354748, Note_off_c, 0, 56, 64
2, 354816, Note_on_c, 0, 73, 60
2, 354816, Note_on_c, 0, 64, 60
2, 355000, Note_off_c, 0, 73, 64
2, 355000, Note_off_c, 0, 64, 64
2, 355008, Note_on_c, 0, 75, 60
2, 355064, Note_off_c, 0, 75, 64
2, 355072, Note_on_c, 0, 73, 60
2, 355128, Note_off_c, 0, 73, 64
2, 355136, Note_on_c, 0, 71, 60
2, 355192, Note_off_c, 0, 71, 64
2, 355200, Note_on_c, 0, 73, 60
2, 355388, Note_off_c, 0, 73, 64
2, 355392, Note_on_c, 0, 75, 60
2, 355580, Note_off_c, 0, 75, 64
2, 355584, Note_on_c, 0, 76, 60
2, 355712, Note_on_c, 0, 61, 60
2, 355768, Note_off_c, 0, 76, 64
2, 355772, Note_off_c, 0, 61, 64
2, 355840, Note_on_c, 0, 64, 60
2, 355900, Note_off_c, 0, 64, 64
2, 355968, Note_on_c, 0, 68, 60
2, 356028, Note_off_c, 0, 68, 64
2, 356096, Note_on_c, 0, 73, 60
2, 356156, Note_off_c, 0, 73, 64
2, 356224, Note_on_c, 0, 76, 60
2, 356284, Note_off_c, 0, 76, 64
2, 356352, Note_on_c, 0, 74, 63
2, 356476, Note_off_c, 0, 74, 64
2, 356480, Note_on_c, 0, 69, 60
2, 356480, Note_on_c, 0, 66, 60
2, 356540, Note_off_c, 0, 69, 64
2, 356540, Note_off_c, 0, 66, 64
2, 356608, Note_on_c, 0, 69, 60
2, 356608, Note_on_c, 0, 66, 60
2, 356668, Note_off_c, 0, 69, 64
2, 356668, Note_off_c, 0, 66, 64
2, 356736, Note_on_c, 0, 70, 63
2, 356736, Note_on_c, 0, 67, 63
2, 356860, Note_off_c, 0, 70, 64
2, 356860, Note_off_c, 0, 67, 64
2, 356864, Note_on_c, 0, 69, 60
2, 356864, Note_on_c, 0, 66, 60
2, 356924, Note_off_c, 0, 69, 64
2, 356924, Note_off_c, 0, 66, 64
2, 356992, Note_on_c, 0, 69, 60
2, 356992, Note_on_c, 0, 66, 60
2, 357052, Note_off_c, 0, 69, 64
2, 357052, Note_off_c, 0, 66, 64
2, 357120, Note_on_c, 0, 78, 63
2, 357240, Note_off_c, 0, 78, 64
2, 357248, Note_on_c, 0, 74, 60
2, 357248, Note_on_c, 0, 72, 60
2, 357308, Note_off_c, 0, 74, 64
2, 357308, Note_off_c, 0, 72, 64
2, 357376, Note_on_c, 0, 74, 60
2, 357376, Note_on_c, 0, 72, 60
2, 357436, Note_off_c, 0, 74, 64
2, 357436, Note_off_c, 0, 72, 64
2, 357504, Note_on_c, 0, 75, 63
2, 357504, Note_on_c, 0, 72, 63
2, 357624, Note_off_c, 0, 75, 64
2, 357624, Note_off_c, 0, 72, 64
2, 357632, Note_on_c, 0, 74, 60
2, 357632, Note_on_c, 0, 72, 60
2, 357692, Note_off_c, 0, 74, 64
2, 357692, Note_off_c, 0, 72, 64
2, 357760, Note_on_c, 0, 74, 60
2, 357760, Note_on_c, 0, 72, 60
2, 357820, Note_off_c, 0, 74, 64
2, 357820, Note_off_c, 0, 72, 64
2, 357888, Note_on_c, 0, 79, 63
2, 357888, Note_on_c, 0, 70, 63
2, 358072, Note_off_c, 0, 79, 64
2, 358072, Note_off_c, 0, 70, 64
2, 358080, Note_on_c, 0, 81, 60
2, 358136, Note_off_c, 0, 81, 64
2, 358144, Note_on_c, 0, 79, 60
2, 358200, Note_off_c, 0, 79, 64
2, 358208, Note_on_c, 0, 78, 60
2, 358264, Note_off_c, 0, 78, 64
2, 358272, Note_on_c, 0, 79, 60
2, 358460, Note_off_c, 0, 79, 64
2, 358464, Note_on_c, 0, 81, 60
2, 358652, Note_off_c, 0, 81, 64
2, 358656, Note_on_c, 0, 82, 60
2, 358776, Note_off_c, 0, 82, 64
2, 358784, Note_on_c, 0, 67, 60
2, 358844, Note_off_c, 0, 67, 64
2, 358912, Note_on_c, 0, 71, 60
2, 358972, Note_off_c, 0, 71, 64
2, 359040, Note_on_c, 0, 74, 60
2, 359100, Note_off_c, 0, 74, 64
2, 359168, Note_on_c, 0, 79, 60
2, 359228, Note_off_c, 0, 79, 64
2, 359296, Note_on_c, 0, 82, 60
2, 359356, Note_off_c, 0, 82, 64
2, 359424, Note_on_c, 0, 86, 60
2, 359804, Note_off_c, 0, 86, 64
2, 359808, Note_on_c, 0, 89, 60
2, 359892, Note_off_c, 0, 89, 64
2, 359904, Note_on_c, 0, 87, 60
2, 359988, Note_off_c, 0, 87, 64
2, 360000, Note_on_c, 0, 84, 60
2, 360084, Note_off_c, 0, 84, 64
2, 360096, Note_on_c, 0, 80, 60
2, 360180, Note_off_c, 0, 80, 64
2, 360192, Note_on_c, 0, 80, 60
2, 360192, Note_on_c, 0, 70, 60
2, 360572, Note_off_c, 0, 80, 64
2, 360572, Note_off_c, 0, 70, 64
2, 360576, Note_on_c, 0, 82, 60
2, 360576, Note_on_c, 0, 74, 60
2, 360760, Note_off_c, 0, 82, 64
2, 360760, Note_off_c, 0, 74, 64
2, 360768, Note_on_c, 0, 81, 60
2, 360952, Note_off_c, 0, 81, 64
2, 360960, Note_on_c, 0, 79, 52
2, 360960, Note_on_c, 0, 70, 52
2, 361340, Note_off_c, 0, 79, 64
2, 361340, Note_off_c, 0, 70, 64
2, 361344, Note_on_c, 0, 82, 52
2, 361344, Note_on_c, 0, 73, 52
2, 361344, Note_on_c, 0, 65, 52
2, 361428, Note_off_c, 0, 82, 64
2, 361428, Note_off_c, 0, 73, 64
2, 361428, Note_off_c, 0, 65, 64
2, 361440, Note_on_c, 0, 80, 52
2, 361524, Note_off_c, 0, 80, 64
2, 361536, Note_on_c, 0, 77, 52
2, 361620, Note_off_c, 0, 77, 64
2, 361632, Note_on_c, 0, 73, 52
2, 361716, Note_off_c, 0, 73, 64
2, 361728, Note_on_c, 0, 72, 52
2, 361728, Note_on_c, 0, 67, 52
2, 362108, Note_off_c, 0, 72, 64
2, 362108, Note_off_c, 0, 67, 64
2, 362112, Note_on_c, 0, 75, 52
2, 362112, Note_on_c, 0, 67, 52
2, 362392, Note_off_c, 0, 75, 64
2, 362392, Note_off_c, 0, 67, 64
2, 362400, Note_on_c, 0, 74, 52
2, 362400, Note_on_c, 0, 65, 52
2, 362484, Note_off_c, 0, 74, 64
2, 362484, Note_off_c, 0, 65, 64
2, 362496, Note_on_c, 0, 72, 54
2, 362496, Note_on_c, 0, 63, 54
2, 362776, Note_off_c, 0, 72, 64
2, 362776, Note_off_c, 0, 63, 64
2, 362784, Note_on_c, 0, 79, 58
2, 362784, Note_on_c, 0, 72, 58
2, 362868, Note_off_c, 0, 79, 64
2, 362868, Note_off_c, 0, 72, 64
2, 362880, Note_on_c, 0, 72, 60
2, 362880, Note_on_c, 0, 63, 60
2, 363260, Note_off_c, 0, 72, 64
2, 363260, Note_off_c, 0, 63, 64
2, 363264, Note_on_c, 0, 70, 66
2, 363264, Note_on_c, 0, 62, 66
2, 363544, Note_off_c, 0, 70, 64
2, 363544, Note_off_c, 0, 62, 64
2, 363552, Note_on_c, 0, 79, 71
2, 363552, Note_on_c, 0, 72, 71
2, 363636, Note_off_c, 0, 79, 64
2, 363636, Note_off_c, 0, 72, 64
2, 363648, Note_on_c, 0, 70, 73
2, 363648, Note_on_c, 0, 62, 73
2, 364028, Note_off_c, 0, 70, 64
2, 364028, Note_off_c, 0, 62, 64
2, 364032, Note_on_c, 0, 69, 77
2, 364032, Note_on_c, 0, 67, 77
2, 364032, Note_on_c, 0, 60, 77
2, 364124, Note_off_c, 0, 69, 64
2, 364124, Note_off_c, 0, 67, 64
2, 364124, Note_off_c, 0, 60, 64
2, 364128, Note_on_c, 0, 72, 77
2, 364208, Note_on_c, 0, 75, 77
2, 364220, Note_off_c, 0, 72, 64
2, 364300, Note_off_c, 0, 75, 64
2, 364320, Note_on_c, 0, 79, 78
2, 364412, Note_off_c, 0, 79, 64
2, 364416, Note_on_c, 0, 81, 79
2, 364508, Note_off_c, 0, 81, 64
2, 364512, Note_on_c, 0, 84, 81
2, 364604, Note_off_c, 0, 84, 64
2, 364608, Note_on_c, 0, 87, 83
2, 364700, Note_off_c, 0, 87, 64
2, 364704, Note_on_c, 0, 91, 85
2, 364796, Note_off_c, 0, 91, 64
2, 364800, Note_on_c, 0, 94, 87
2, 364892, Note_off_c, 0, 94, 64
2, 364896, Note_on_c, 0, 91, 85
2, 364988, Note_off_c, 0, 91, 64
2, 364992, Note_on_c, 0, 88, 83
2, 365084, Note_off_c, 0, 88, 64
2, 365088, Note_on_c, 0, 85, 81
2, 365180, Note_off_c, 0, 85, 64
2, 365184, Note_on_c, 0, 82, 80
2, 365276, Note_off_c, 0, 82, 64
2, 365280, Note_on_c, 0, 79, 78
2, 365372, Note_off_c, 0, 79, 64
2, 365376, Note_on_c, 0, 76, 77
2, 365468, Note_off_c, 0, 76, 64
2, 365472, Note_on_c, 0, 73, 77
2, 365564, Note_off_c, 0, 73, 64
2, 365568, Note_on_c, 0, 86, 87
2, 365568, Note_on_c, 0, 74, 87
2, 365568, Note_on_c, 0, 62, 87
2, 365756, Note_off_c, 0, 86, 64
2, 365756, Note_off_c, 0, 74, 64
2, 365756, Note_off_c, 0, 62, 64
2, 366336, Note_on_c, 0, 57, 77
2, 366376, Note_off_c, 0, 57, 64
2, 366384, Note_on_c, 0, 59, 77
2, 366424, Note_off_c, 0, 59, 64
2, 366432, Note_on_c, 0, 61, 77
2, 366472, Note_off_c, 0, 61, 64
2, 366480, Note_on_c, 0, 62, 77
2, 366520, Note_off_c, 0, 62, 64
2, 366528, Note_on_c, 0, 64, 77
2, 366568, Note_off_c, 0, 64, 64
2, 366576, Note_on_c, 0, 66, 77
2, 366616, Note_off_c, 0, 66, 64
2, 366624, Note_on_c, 0, 67, 77
2, 366664, Note_off_c, 0, 67, 64
2, 366672, Note_on_c, 0, 69, 90
2, 366712, Note_off_c, 0, 69, 64
2, 366720, Note_on_c, 0, 62, 77
2, 366760, Note_off_c, 0, 62, 64
2, 366768, Note_on_c, 0, 64, 77
2, 366808, Note_off_c, 0, 64, 64
2, 366816, Note_on_c, 0, 66, 77
2, 366856, Note_off_c, 0, 66, 64
2, 366864, Note_on_c, 0, 67, 77
2, 366904, Note_off_c, 0, 67, 64
2, 366912, Note_on_c, 0, 69, 77
2, 366952, Note_off_c, 0, 69, 64
2, 366960, Note_on_c, 0, 71, 77
2, 367000, Note_off_c, 0, 71, 64
2, 367008, Note_on_c, 0, 73, 77
2, 367048, Note_off_c, 0, 73, 64
2, 367056, Note_on_c, 0, 74, 90
2, 367096, Note_off_c, 0, 74, 64
2, 367104, Note_on_c, 0, 69, 77
2, 367144, Note_off_c, 0, 69, 64
2, 367152, Note_on_c, 0, 71, 77
2, 367192, Note_off_c, 0, 71, 64
2, 367200, Note_on_c, 0, 73, 77
2, 367240, Note_off_c, 0, 73, 64
2, 367248, Note_on_c, 0, 74, 77
2, 367288, Note_off_c, 0, 74, 64
2, 367296, Note_on_c, 0, 76, 77
2, 367336, Note_off_c, 0, 76, 64
2, 367344, Note_on_c, 0, 78, 77
2, 367384, Note_off_c, 0, 78, 64
2, 367392, Note_on_c, 0, 79, 77
2, 367432, Note_off_c, 0, 79, 64
2, 367440, Note_on_c, 0, 81, 90
2, 367480, Note_off_c, 0, 81, 64
2, 367488, Note_on_c, 0, 73, 77
2, 367528, Note_off_c, 0, 73, 64
2, 367536, Note_on_c, 0, 74, 77
2, 367576, Note_off_c, 0, 74, 64
2, 367584, Note_on_c, 0, 76, 77
2, 367624, Note_off_c, 0, 76, 64
2, 367632, Note_on_c, 0, 78, 77
2, 367672, Note_off_c, 0, 78, 64
2, 367680, Note_on_c, 0, 79, 77
2, 367720, Note_off_c, 0, 79, 64
2, 367728, Note_on_c, 0, 81, 77
2, 367768, Note_off_c, 0, 81, 64
2, 367776, Note_on_c, 0, 83, 77
2, 367816, Note_off_c, 0, 83, 64
2, 367824, Note_on_c, 0, 85, 77
2, 367864, Note_off_c, 0, 85, 64
2, 367872, Note_on_c, 0, 86, 90
2, 367960, Note_off_c, 0, 86, 64
2, 367968, Note_on_c, 0, 90, 77
2, 368056, Note_off_c, 0, 90, 64
2, 368064, Note_on_c, 0, 93, 77
2, 368152, Note_off_c, 0, 93, 64
2, 368160, Note_on_c, 0, 90, 77
2, 368248, Note_off_c, 0, 90, 64
2, 368256, Note_on_c, 0, 86, 77
2, 368344, Note_off_c, 0, 86, 64
2, 368352, Note_on_c, 0, 90, 77
2, 368440, Note_off_c, 0, 90, 64
2, 368448, Note_on_c, 0, 81, 77
2, 368536, Note_off_c, 0, 81, 64
2, 368544, Note_on_c, 0, 86, 77
2, 368632, Note_off_c, 0, 86, 64
2, 368640, Note_on_c, 0, 78, 90
2, 368728, Note_off_c, 0, 78, 64
2, 368736, Note_on_c, 0, 81, 77
2, 368824, Note_off_c, 0, 81, 64
2, 368832, Note_on_c, 0, 86, 77
2, 368920, Note_off_c, 0, 86, 64
2, 368928, Note_on_c, 0, 81, 77
2, 369016, Note_off_c, 0, 81, 64
2, 369024, Note_on_c, 0, 78, 77
2, 369112, Note_off_c, 0, 78, 64
2, 369120, Note_on_c, 0, 81, 77
2, 369208, Note_off_c, 0, 81, 64
2, 369216, Note_on_c, 0, 74, 77
2, 369304, Note_off_c, 0, 74, 64
2, 369312, Note_on_c, 0, 78, 77
2, 369400, Note_off_c, 0, 78, 64
2, 369408, Note_on_c, 0, 69, 90
2, 369496, Note_off_c, 0, 69, 64
2, 369504, Note_on_c, 0, 74, 77
2, 369592, Note_off_c, 0, 74, 64
2, 369600, Note_on_c, 0, 78, 77
2, 369688, Note_off_c, 0, 78, 64
2, 369696, Note_on_c, 0, 74, 77
2, 369784, Note_off_c, 0, 74, 64
2, 369792, Note_on_c, 0, 69, 77
2, 369880, Note_off_c, 0, 69, 64
2, 369888, Note_on_c, 0, 74, 77
2, 369976, Note_off_c, 0, 74, 64
2, 369984, Note_on_c, 0, 66, 77
2, 370072, Note_off_c, 0, 66, 64
2, 370080, Note_on_c, 0, 69, 77
2, 370168, Note_off_c, 0, 69, 64
2, 370176, Note_on_c, 0, 62, 83
2, 371324, Note_off_c, 0, 62, 64
2, 371328, Note_on_c, 0, 74, 60
2, 371400, Note_off_c, 0, 74, 64
2, 371424, Note_on_c, 0, 72, 60
2, 371496, Note_off_c, 0, 72, 64
2, 371520, Note_on_c, 0, 71, 60
2, 371592, Note_off_c, 0, 71, 64
2, 371616, Note_on_c, 0, 69, 60
2, 371688, Note_off_c, 0, 69, 64
2, 371712, Note_on_c, 0, 68, 60
2, 371712, Note_on_c, 0, 59, 60
2, 371900, Note_off_c, 0, 68, 64
2, 371900, Note_off_c, 0, 59, 64
2, 372096, Note_on_c, 0, 68, 60
2, 372096, Note_on_c, 0, 59, 60
2, 372284, Note_off_c, 0, 68, 64
2, 372284, Note_off_c, 0, 59, 64
2, 372480, Note_on_c, 0, 68, 60
2, 372480, Note_on_c, 0, 59, 60
2, 372668, Note_off_c, 0, 68, 64
2, 372668, Note_off_c, 0, 59, 64
2, 372864, Note_on_c, 0, 76, 60
2, 372936, Note_off_c, 0, 76, 64
2, 372960, Note_on_c, 0, 74, 60
2, 373032, Note_off_c, 0, 74, 64
2, 373056, Note_on_c, 0, 72, 60
2, 373128, Note_off_c, 0, 72, 64
2, 373152, Note_on_c, 0, 71, 60
2, 373224, Note_off_c, 0, 71, 64
2, 373248, Note_on_c, 0, 69, 60
2, 373248, Note_on_c, 0, 62, 60
2, 373436, Note_off_c, 0, 69, 64
2, 373436, Note_off_c, 0, 62, 64
2, 373632, Note_on_c, 0, 69, 60
2, 373632, Note_on_c, 0, 62, 60
2, 373820, Note_off_c, 0, 69, 64
2, 373820, Note_off_c, 0, 62, 64
2, 374016, Note_on_c, 0, 69, 60
2, 374016, Note_on_c, 0, 62, 60
2, 374204, Note_off_c, 0, 69, 64
2, 374204, Note_off_c, 0, 62, 64
2, 374400, Note_on_c, 0, 74, 60
2, 374472, Note_off_c, 0, 74, 64
2, 374496, Note_on_c, 0, 72, 60
2, 374568, Note_off_c, 0, 72, 64
2, 374592, Note_on_c, 0, 71, 60
2, 374664, Note_off_c, 0, 71, 64
2, 374688, Note_on_c, 0, 69, 60
2, 374760, Note_off_c, 0, 69, 64
2, 374784, Note_on_c, 0, 67, 60
2, 375168, Note_on_c, 0, 59, 65
2, 375312, Note_off_c, 0, 59, 64
2, 375548, Note_off_c, 0, 67, 64
2, 375552, Note_on_c, 0, 71, 60
2, 375744, Note_on_c, 0, 55, 67
2, 375888, Note_off_c, 0, 55, 64
2, 375932, Note_off_c, 0, 71, 64
2, 375936, Note_on_c, 0, 74, 60
2, 376128, Note_on_c, 0, 59, 65
2, 376272, Note_off_c, 0, 59, 64
2, 376316, Note_off_c, 0, 74, 64
2, 376320, Note_on_c, 0, 62, 63
2, 377468, Note_off_c, 0, 62, 64
2, 377472, Note_on_c, 0, 86, 60
2, 377544, Note_off_c, 0, 86, 64
2, 377568, Note_on_c, 0, 84, 60
2, 377640, Note_off_c, 0, 84, 64
2, 377664, Note_on_c, 0, 83, 60
2, 377736, Note_off_c, 0, 83, 64
2, 377760, Note_on_c, 0, 81, 60
2, 377832, Note_off_c, 0, 81, 64
2, 377856, Note_on_c, 0, 79, 60
2, 377856, Note_on_c, 0, 71, 60
2, 378044, Note_off_c, 0, 79, 64
2, 378044, Note_off_c, 0, 71, 64
2, 378044, Program_c, 0, 45
2, 378048, Note_on_c, 0, 62, 65
2, 378236, Note_off_c, 0, 62, 64
2, 378236, Program_c, 0, 40
2, 378240, Note_on_c, 0, 79, 60
2, 378240, Note_on_c, 0, 71, 60
2, 378428, Note_off_c, 0, 79, 64
2, 378428, Note_off_c, 0, 71, 64
2, 378428, Program_c, 0, 45
2, 378432, Note_on_c, 0, 62, 65
2, 378620, Note_off_c, 0, 62, 64
2, 378620, Program_c, 0, 40
2, 378624, Note_on_c, 0, 79, 60
2, 378624, Note_on_c, 0, 71, 60
2, 378812, Note_off_c, 0, 79, 64
2, 378812, Note_off_c, 0, 71, 64
2, 378812, Program_c, 0, 45
2, 378816, Note_on_c, 0, 62, 65
2, 379004, Note_off_c, 0, 62, 64
2, 379004, Program_c, 0, 40
2, 379008, Note_on_c, 0, 88, 60
2, 379100, Note_off_c, 0, 88, 64
2, 379104, Note_on_c, 0, 86, 60
2, 379196, Note_off_c, 0, 86, 64
2, 379200, Note_on_c, 0, 84, 60
2, 379292, Note_off_c, 0, 84, 64
2, 379296, Note_on_c, 0, 83, 60
2, 379388, Note_off_c, 0, 83, 64
2, 379392, Note_on_c, 0, 81, 60
2, 379580, Note_off_c, 0, 81, 64
2, 379580, Program_c, 0, 45
2, 379584, Note_on_c, 0, 62, 65
2, 379772, Note_off_c, 0, 62, 64
2, 379772, Program_c, 0, 40
2, 379776, Note_on_c, 0, 81, 60
2, 379776, Note_on_c, 0, 72, 60
2, 379964, Note_off_c, 0, 81, 64
2, 379964, Note_off_c, 0, 72, 64
2, 379964, Program_c, 0, 45
2, 379968, Note_on_c, 0, 62, 65
2, 380156, Note_off_c, 0, 62, 64
2, 380156, Program_c, 0, 40
2, 380160, Note_on_c, 0, 81, 60
2, 380160, Note_on_c, 0, 72, 60
2, 380348, Note_off_c, 0, 81, 64
2, 380348, Note_off_c, 0, 72, 64
2, 380348, Program_c, 0, 45
2, 380352, Note_on_c, 0, 62, 65
2, 380540, Note_off_c, 0, 62, 64
2, 380540, Program_c, 0, 40
2, 380544, Note_on_c, 0, 86, 60
2, 380616, Note_off_c, 0, 86, 64
2, 380640, Note_on_c, 0, 84, 60
2, 380712, Note_off_c, 0, 84, 64
2, 380736, Note_on_c, 0, 83, 60
2, 380808, Note_off_c, 0, 83, 64
2, 380832, Note_on_c, 0, 81, 60
2, 380904, Note_off_c, 0, 81, 64
2, 380928, Note_on_c, 0, 79, 60
2, 380928, Note_on_c, 0, 71, 60
2, 381116, Note_off_c, 0, 79, 64
2, 381116, Note_off_c, 0, 71, 64
2, 381120, Note_on_c, 0, 79, 60
2, 381120, Note_on_c, 0, 71, 60
2, 381308, Note_off_c, 0, 79, 64
2, 381308, Note_off_c, 0, 71, 64
2, 381312, Note_on_c, 0, 88, 60
2, 381384, Note_off_c, 0, 88, 64
2, 381408, Note_on_c, 0, 86, 60
2, 381480, Note_off_c, 0, 86, 64
2, 381504, Note_on_c, 0, 84, 60
2, 381576, Note_off_c, 0, 84, 64
2, 381600, Note_on_c, 0, 83, 60
2, 381672, Note_off_c, 0, 83, 64
2, 381696, Note_on_c, 0, 81, 60
2, 381696, Note_on_c, 0, 74, 60
2, 381884, Note_off_c, 0, 81, 64
2, 381884, Note_off_c, 0, 74, 64
2, 381888, Note_on_c, 0, 81, 60
2, 381888, Note_on_c, 0, 74, 60
2, 382076, Note_off_c, 0, 81, 64
2, 382076, Note_off_c, 0, 74, 64
2, 382080, Note_on_c, 0, 86, 60
2, 382152, Note_off_c, 0, 86, 64
2, 382176, Note_on_c, 0, 84, 60
2, 382248, Note_off_c, 0, 84, 64
2, 382272, Note_on_c, 0, 83, 60
2, 382344, Note_off_c, 0, 83, 64
2, 382368, Note_on_c, 0, 81, 60
2, 382440, Note_off_c, 0, 81, 64
2, 382464, Note_on_c, 0, 74, 60
2, 382464, Note_on_c, 0, 82, 60
2, 382652, Note_off_c, 0, 74, 64
2, 382652, Note_off_c, 0, 82, 64
2, 382656, Note_on_c, 0, 82, 60
2, 382656, Note_on_c, 0, 74, 60
2, 382844, Note_off_c, 0, 82, 64
2, 382844, Note_off_c, 0, 74, 64
2, 382848, Note_on_c, 0, 87, 60
2, 382920, Note_off_c, 0, 87, 64
2, 382944, Note_on_c, 0, 86, 60
2, 383016, Note_off_c, 0, 86, 64
2, 383040, Note_on_c, 0, 84, 60
2, 383112, Note_off_c, 0, 84, 64
2, 383136, Note_on_c, 0, 82, 60
2, 383208, Note_off_c, 0, 82, 64
2, 383232, Note_on_c, 0, 80, 60
2, 383420, Note_off_c, 0, 80, 64
2, 383424, Note_on_c, 0, 80, 60
2, 383612, Note_off_c, 0, 80, 64
2, 383616, Note_on_c, 0, 86, 60
2, 383688, Note_off_c, 0, 86, 64
2, 383712, Note_on_c, 0, 84, 60
2, 383784, Note_off_c, 0, 84, 64
2, 383808, Note_on_c, 0, 82, 60
2, 383880, Note_off_c, 0, 82, 64
2, 383904, Note_on_c, 0, 80, 60
2, 383976, Note_off_c, 0, 80, 64
2, 384000, Note_on_c, 0, 79, 60
2, 384072, Note_off_c, 0, 79, 64
2, 384096, Note_on_c, 0, 77, 60
2, 384168, Note_off_c, 0, 77, 64
2, 384192, Note_on_c, 0, 75, 60
2, 384264, Note_off_c, 0, 75, 64
2, 384288, Note_on_c, 0, 74, 60
2, 384360, Note_off_c, 0, 74, 64
2, 384384, Note_on_c, 0, 72, 61
2, 384456, Note_off_c, 0, 72, 64
2, 384480, Note_on_c, 0, 70, 62
2, 384552, Note_off_c, 0, 70, 64
2, 384576, Note_on_c, 0, 69, 64
2, 384648, Note_off_c, 0, 69, 64
2, 384672, Note_on_c, 0, 67, 65
2, 384744, Note_off_c, 0, 67, 64
2, 384768, Note_on_c, 0, 72, 67
2, 384828, Note_off_c, 0, 72, 64
2, 384832, Note_on_c, 0, 70, 68
2, 384892, Note_off_c, 0, 70, 64
2, 384896, Note_on_c, 0, 69, 69
2, 384956, Note_off_c, 0, 69, 64
2, 384960, Note_on_c, 0, 67, 70
2, 385020, Note_off_c, 0, 67, 64
2, 385024, Note_on_c, 0, 65, 71
2, 385084, Note_off_c, 0, 65, 64
2, 385088, Note_on_c, 0, 63, 72
2, 385148, Note_off_c, 0, 63, 64
2, 385152, Note_on_c, 0, 69, 74
2, 385212, Note_off_c, 0, 69, 64
2, 385216, Note_on_c, 0, 67, 75
2, 385276, Note_off_c, 0, 67, 64
2, 385280, Note_on_c, 0, 65, 76
2, 385340, Note_off_c, 0, 65, 64
2, 385344, Note_on_c, 0, 63, 76
2, 385404, Note_off_c, 0, 63, 64
2, 385408, Note_on_c, 0, 62, 76
2, 385468, Note_off_c, 0, 62, 64
2, 385472, Note_on_c, 0, 60, 77
2, 385532, Note_off_c, 0, 60, 64
2, 385536, Note_on_c, 0, 67, 77
2, 385536, Note_on_c, 0, 59, 77
2, 385628, Note_off_c, 0, 67, 64
2, 385628, Note_off_c, 0, 59, 64
2, 385632, Note_on_c, 0, 62, 77
2, 385724, Note_off_c, 0, 62, 64
2, 385728, Note_on_c, 0, 71, 77
2, 385820, Note_off_c, 0, 71, 64
2, 385824, Note_on_c, 0, 67, 77
2, 385916, Note_off_c, 0, 67, 64
2, 385920, Note_on_c, 0, 74, 77
2, 386012, Note_off_c, 0, 74, 64
2, 386016, Note_on_c, 0, 71, 77
2, 386108, Note_off_c, 0, 71, 64
2, 386112, Note_on_c, 0, 83, 77
2, 386204, Note_off_c, 0, 83, 64
2, 386208, Note_on_c, 0, 79, 77
2, 386300, Note_off_c, 0, 79, 64
2, 386304, Note_on_c, 0, 86, 77
2, 386396, Note_off_c, 0, 86, 64
2, 386400, Note_on_c, 0, 84, 77
2, 386492, Note_off_c, 0, 84, 64
2, 386496, Note_on_c, 0, 83, 77
2, 386588, Note_off_c, 0, 83, 64
2, 386592, Note_on_c, 0, 81, 77
2, 386684, Note_off_c, 0, 81, 64
2, 386688, Note_on_c, 0, 79, 77
2, 386780, Note_off_c, 0, 79, 64
2, 386784, Note_on_c, 0, 77, 77
2, 386876, Note_off_c, 0, 77, 64
2, 386880, Note_on_c, 0, 76, 77
2, 386972, Note_off_c, 0, 76, 64
2, 386976, Note_on_c, 0, 74, 77
2, 387068, Note_off_c, 0, 74, 64
2, 387072, Note_on_c, 0, 72, 77
2, 387164, Note_off_c, 0, 72, 64
2, 387168, Note_on_c, 0, 67, 77
2, 387260, Note_off_c, 0, 67, 64
2, 387264, Note_on_c, 0, 76, 77
2, 387356, Note_off_c, 0, 76, 64
2, 387360, Note_on_c, 0, 72, 77
2, 387452, Note_off_c, 0, 72, 64
2, 387456, Note_on_c, 0, 79, 77
2, 387548, Note_off_c, 0, 79, 64
2, 387552, Note_on_c, 0, 76, 77
2, 387644, Note_off_c, 0, 76, 64
2, 387648, Note_on_c, 0, 84, 77
2, 387740, Note_off_c, 0, 84, 64
2, 387744, Note_on_c, 0, 79, 77
2, 387836, Note_off_c, 0, 79, 64
2, 387840, Note_on_c, 0, 84, 77
2, 387932, Note_off_c, 0, 84, 64
2, 387936, Note_on_c, 0, 79, 77
2, 388028, Note_off_c, 0, 79, 64
2, 388032, Note_on_c, 0, 76, 77
2, 388124, Note_off_c, 0, 76, 64
2, 388128, Note_on_c, 0, 72, 77
2, 388220, Note_off_c, 0, 72, 64
2, 388224, Note_on_c, 0, 79, 77
2, 388316, Note_off_c, 0, 79, 64
2, 388320, Note_on_c, 0, 76, 77
2, 388412, Note_off_c, 0, 76, 64
2, 388416, Note_on_c, 0, 72, 77
2, 388508, Note_off_c, 0, 72, 64
2, 388512, Note_on_c, 0, 67, 77
2, 388604, Note_off_c, 0, 67, 64
2, 388608, Note_on_c, 0, 71, 77
2, 388700, Note_off_c, 0, 71, 64
2, 388704, Note_on_c, 0, 68, 77
2, 388796, Note_off_c, 0, 68, 64
2, 388800, Note_on_c, 0, 74, 77
2, 388892, Note_off_c, 0, 74, 64
2, 388896, Note_on_c, 0, 71, 77
2, 388988, Note_off_c, 0, 71, 64
2, 388992, Note_on_c, 0, 79, 77
2, 389084, Note_off_c, 0, 79, 64
2, 389088, Note_on_c, 0, 74, 77
2, 389180, Note_off_c, 0, 74, 64
2, 389184, Note_on_c, 0, 83, 77
2, 389276, Note_off_c, 0, 83, 64
2, 389280, Note_on_c, 0, 79, 77
2, 389372, Note_off_c, 0, 79, 64
2, 389376, Note_on_c, 0, 86, 77
2, 389468, Note_off_c, 0, 86, 64
2, 389472, Note_on_c, 0, 84, 77
2, 389564, Note_off_c, 0, 84, 64
2, 389568, Note_on_c, 0, 83, 77
2, 389660, Note_off_c, 0, 83, 64
2, 389664, Note_on_c, 0, 81, 77
2, 389756, Note_off_c, 0, 81, 64
2, 389760, Note_on_c, 0, 79, 77
2, 389852, Note_off_c, 0, 79, 64
2, 389856, Note_on_c, 0, 77, 77
2, 389948, Note_off_c, 0, 77, 64
2, 389952, Note_on_c, 0, 75, 77
2, 390044, Note_off_c, 0, 75, 64
2, 390048, Note_on_c, 0, 74, 77
2, 390140, Note_off_c, 0, 74, 64
2, 390144, Note_on_c, 0, 72, 77
2, 390236, Note_off_c, 0, 72, 64
2, 390240, Note_on_c, 0, 67, 77
2, 390332, Note_off_c, 0, 67, 64
2, 390336, Note_on_c, 0, 67, 77
2, 390428, Note_off_c, 0, 67, 64
2, 390432, Note_on_c, 0, 75, 77
2, 390524, Note_off_c, 0, 75, 64
2, 390528, Note_on_c, 0, 75, 77
2, 390620, Note_off_c, 0, 75, 64
2, 390624, Note_on_c, 0, 72, 77
2, 390716, Note_off_c, 0, 72, 64
2, 390720, Note_on_c, 0, 72, 77
2, 390812, Note_off_c, 0, 72, 64
2, 390816, Note_on_c, 0, 79, 77
2, 390908, Note_off_c, 0, 79, 64
2, 390912, Note_on_c, 0, 79, 77
2, 391004, Note_off_c, 0, 79, 64
2, 391008, Note_on_c, 0, 75, 77
2, 391100, Note_off_c, 0, 75, 64
2, 391104, Note_on_c, 0, 75, 77
2, 391196, Note_off_c, 0, 75, 64
2, 391200, Note_on_c, 0, 84, 77
2, 391292, Note_off_c, 0, 84, 64
2, 391296, Note_on_c, 0, 84, 77
2, 391388, Note_off_c, 0, 84, 64
2, 391392, Note_on_c, 0, 79, 77
2, 391484, Note_off_c, 0, 79, 64
2, 391488, Note_on_c, 0, 87, 77
2, 391580, Note_off_c, 0, 87, 64
2, 391584, Note_on_c, 0, 84, 77
2, 391676, Note_off_c, 0, 84, 64
2, 391680, Note_on_c, 0, 91, 77
2, 391724, Note_off_c, 0, 91, 64
2, 391728, Note_on_c, 0, 92, 77
2, 391772, Note_off_c, 0, 92, 64
2, 391776, Note_on_c, 0, 91, 77
2, 391820, Note_off_c, 0, 91, 64
2, 391824, Note_on_c, 0, 92, 77
2, 391868, Note_off_c, 0, 92, 64
2, 391872, Note_on_c, 0, 91, 77
2, 391916, Note_off_c, 0, 91, 64
2, 391920, Note_on_c, 0, 92, 77
2, 391964, Note_off_c, 0, 92, 64
2, 391968, Note_on_c, 0, 91, 77
2, 392012, Note_off_c, 0, 91, 64
2, 392016, Note_on_c, 0, 92, 77
2, 392060, Note_off_c, 0, 92, 64
2, 392064, Note_on_c, 0, 91, 77
2, 392108, Note_off_c, 0, 91, 64
2, 392112, Note_on_c, 0, 92, 77
2, 392156, Note_off_c, 0, 92, 64
2, 392160, Note_on_c, 0, 91, 77
2, 392204, Note_off_c, 0, 91, 64
2, 392208, Note_on_c, 0, 92, 77
2, 392252, Note_off_c, 0, 92, 64
2, 392256, Note_on_c, 0, 91, 77
2, 392300, Note_off_c, 0, 91, 64
2, 392304, Note_on_c, 0, 92, 77
2, 392348, Note_off_c, 0, 92, 64
2, 392352, Note_on_c, 0, 91, 77
2, 392396, Note_off_c, 0, 91, 64
2, 392400, Note_on_c, 0, 92, 77
2, 392444, Note_off_c, 0, 92, 64
2, 392448, Note_on_c, 0, 91, 77
2, 392492, Note_off_c, 0, 91, 64
2, 392496, Note_on_c, 0, 92, 77
2, 392540, Note_off_c, 0, 92, 64
2, 392544, Note_on_c, 0, 91, 77
2, 392588, Note_off_c, 0, 91, 64
2, 392592, Note_on_c, 0, 92, 77
2, 392636, Note_off_c, 0, 92, 64
2, 392640, Note_on_c, 0, 91, 77
2, 392684, Note_off_c, 0, 91, 64
2, 392688, Note_on_c, 0, 92, 77
2, 392732, Note_off_c, 0, 92, 64
2, 392736, Note_on_c, 0, 91, 77
2, 392780, Note_off_c, 0, 91, 64
2, 392784, Note_on_c, 0, 92, 77
2, 392828, Note_off_c, 0, 92, 64
2, 392832, Note_on_c, 0, 91, 77
2, 392876, Note_off_c, 0, 91, 64
2, 392880, Note_on_c, 0, 92, 77
2, 392924, Note_off_c, 0, 92, 64
2, 392928, Note_on_c, 0, 91, 77
2, 392972, Note_off_c, 0, 91, 64
2, 392976, Note_on_c, 0, 92, 77
2, 393020, Note_off_c, 0, 92, 64
2, 393024, Note_on_c, 0, 91, 77
2, 393068, Note_off_c, 0, 91, 64
2, 393072, Note_on_c, 0, 92, 77
2, 393116, Note_off_c, 0, 92, 64
2, 393120, Note_on_c, 0, 91, 77
2, 393164, Note_off_c, 0, 91, 64
2, 393168, Note_on_c, 0, 92, 77
2, 393212, Note_off_c, 0, 92, 64
2, 393216, Note_on_c, 0, 79, 76
2, 393260, Note_off_c, 0, 79, 64
2, 393264, Note_on_c, 0, 80, 76
2, 393308, Note_off_c, 0, 80, 64
2, 393312, Note_on_c, 0, 79, 76
2, 393356, Note_off_c, 0, 79, 64
2, 393360, Note_on_c, 0, 80, 76
2, 393404, Note_off_c, 0, 80, 64
2, 393408, Note_on_c, 0, 79, 76
2, 393452, Note_off_c, 0, 79, 64
2, 393456, Note_on_c, 0, 80, 76
2, 393500, Note_off_c, 0, 80, 64
2, 393504, Note_on_c, 0, 79, 76
2, 393548, Note_off_c, 0, 79, 64
2, 393552, Note_on_c, 0, 80, 76
2, 393596, Note_off_c, 0, 80, 64
2, 393600, Note_on_c, 0, 79, 76
2, 393644, Note_off_c, 0, 79, 64
2, 393648, Note_on_c, 0, 80, 76
2, 393692, Note_off_c, 0, 80, 64
2, 393696, Note_on_c, 0, 79, 76
2, 393740, Note_off_c, 0, 79, 64
2, 393744, Note_on_c, 0, 80, 76
2, 393788, Note_off_c, 0, 80, 64
2, 393792, Note_on_c, 0, 79, 75
2, 393836, Note_off_c, 0, 79, 64
2, 393840, Note_on_c, 0, 80, 75
2, 393884, Note_off_c, 0, 80, 64
2, 393888, Note_on_c, 0, 79, 75
2, 393932, Note_off_c, 0, 79, 64
2, 393936, Note_on_c, 0, 80, 75
2, 393980, Note_off_c, 0, 80, 64
2, 393984, Note_on_c, 0, 79, 74
2, 394028, Note_off_c, 0, 79, 64
2, 394032, Note_on_c, 0, 80, 74
2, 394076, Note_off_c, 0, 80, 64
2, 394080, Note_on_c, 0, 79, 74
2, 394124, Note_off_c, 0, 79, 64
2, 394128, Note_on_c, 0, 80, 74
2, 394172, Note_off_c, 0, 80, 64
2, 394176, Note_on_c, 0, 79, 73
2, 394220, Note_off_c, 0, 79, 64
2, 394224, Note_on_c, 0, 80, 73
2, 394268, Note_off_c, 0, 80, 64
2, 394272, Note_on_c, 0, 79, 73
2, 394316, Note_off_c, 0, 79, 64
2, 394320, Note_on_c, 0, 80, 73
2, 394364, Note_off_c, 0, 80, 64
2, 394368, Note_on_c, 0, 79, 72
2, 394412, Note_off_c, 0, 79, 64
2, 394416, Note_on_c, 0, 80, 72
2, 394460, Note_off_c, 0, 80, 64
2, 394464, Note_on_c, 0, 79, 72
2, 394508, Note_off_c, 0, 79, 64
2, 394512, Note_on_c, 0, 80, 72
2, 394556, Note_off_c, 0, 80, 64
2, 394560, Note_on_c, 0, 79, 71
2, 394604, Note_off_c, 0, 79, 64
2, 394608, Note_on_c, 0, 80, 71
2, 394652, Note_off_c, 0, 80, 64
2, 394656, Note_on_c, 0, 79, 71
2, 394700, Note_off_c, 0, 79, 64
2, 394704, Note_on_c, 0, 80, 71
2, 394748, Note_off_c, 0, 80, 64
2, 394752, Note_on_c, 0, 78, 70
2, 394796, Note_off_c, 0, 78, 64
2, 394800, Note_on_c, 0, 79, 70
2, 394844, Note_off_c, 0, 79, 64
2, 394848, Note_on_c, 0, 78, 70
2, 394892, Note_off_c, 0, 78, 64
2, 394896, Note_on_c, 0, 79, 70
2, 394940, Note_off_c, 0, 79, 64
2, 394944, Note_on_c, 0, 78, 69
2, 394988, Note_off_c, 0, 78, 64
2, 394992, Note_on_c, 0, 79, 69
2, 395036, Note_off_c, 0, 79, 64
2, 395040, Note_on_c, 0, 78, 69
2, 395084, Note_off_c, 0, 78, 64
2, 395088, Note_on_c, 0, 79, 69
2, 395132, Note_off_c, 0, 79, 64
2, 395136, Note_on_c, 0, 78, 68
2, 395180, Note_off_c, 0, 78, 64
2, 395184, Note_on_c, 0, 79, 68
2, 395228, Note_off_c, 0, 79, 64
2, 395232, Note_on_c, 0, 78, 68
2, 395276, Note_off_c, 0, 78, 64
2, 395280, Note_on_c, 0, 79, 68
2, 395324, Note_off_c, 0, 79, 64
2, 395328, Note_on_c, 0, 78, 67
2, 395372, Note_off_c, 0, 78, 64
2, 395376, Note_on_c, 0, 79, 67
2, 395420, Note_off_c, 0, 79, 64
2, 395424, Note_on_c, 0, 78, 67
2, 395468, Note_off_c, 0, 78, 64
2, 395472, Note_on_c, 0, 79, 67
2, 395516, Note_off_c, 0, 79, 64
2, 395520, Note_on_c, 0, 76, 66
2, 395564, Note_off_c, 0, 76, 64
2, 395568, Note_on_c, 0, 77, 66
2, 395612, Note_off_c, 0, 77, 64
2, 395616, Note_on_c, 0, 76, 66
2, 395660, Note_off_c, 0, 76, 64
2, 395664, Note_on_c, 0, 77, 66
2, 395708, Note_off_c, 0, 77, 64
2, 395712, Note_on_c, 0, 76, 65
2, 395756, Note_off_c, 0, 76, 64
2, 395760, Note_on_c, 0, 77, 65
2, 395804, Note_off_c, 0, 77, 64
2, 395808, Note_on_c, 0, 76, 65
2, 395852, Note_off_c, 0, 76, 64
2, 395856, Note_on_c, 0, 77, 65
2, 395900, Note_off_c, 0, 77, 64
2, 395904, Note_on_c, 0, 76, 65
2, 395948, Note_off_c, 0, 76, 64
2, 395952, Note_on_c, 0, 78, 65
2, 395996, Note_off_c, 0, 78, 64
2, 396000, Note_on_c, 0, 76, 65
2, 396044, Note_off_c, 0, 76, 64
2, 396048, Note_on_c, 0, 78, 65
2, 396092, Note_off_c, 0, 78, 64
2, 396096, Note_on_c, 0, 76, 64
2, 396140, Note_off_c, 0, 76, 64
2, 396144, Note_on_c, 0, 78, 64
2, 396188, Note_off_c, 0, 78, 64
2, 396192, Note_on_c, 0, 76, 64
2, 396236, Note_off_c, 0, 76, 64
2, 396240, Note_on_c, 0, 77, 64
2, 396284, Note_off_c, 0, 77, 64
2, 396288, Note_on_c, 0, 75, 63
2, 396332, Note_off_c, 0, 75, 64
2, 396336, Note_on_c, 0, 77, 63
2, 396380, Note_off_c, 0, 77, 64
2, 396384, Note_on_c, 0, 75, 63
2, 396428, Note_off_c, 0, 75, 64
2, 396432, Note_on_c, 0, 77, 63
2, 396476, Note_off_c, 0, 77, 64
2, 396480, Note_on_c, 0, 75, 62
2, 396524, Note_off_c, 0, 75, 64
2, 396528, Note_on_c, 0, 77, 62
2, 396572, Note_off_c, 0, 77, 64
2, 396576, Note_on_c, 0, 75, 62
2, 396620, Note_off_c, 0, 75, 64
2, 396624, Note_on_c, 0, 77, 62
2, 396668, Note_off_c, 0, 77, 64
2, 396672, Note_on_c, 0, 75, 60
2, 396716, Note_off_c, 0, 75, 64
2, 396720, Note_on_c, 0, 77, 60
2, 396764, Note_off_c, 0, 77, 64
2, 396768, Note_on_c, 0, 75, 60
2, 396812, Note_off_c, 0, 75, 64
2, 396816, Note_on_c, 0, 77, 60
2, 396860, Note_off_c, 0, 77, 64
2, 396864, Note_on_c, 0, 75, 60
2, 396908, Note_off_c, 0, 75, 64
2, 396912, Note_on_c, 0, 77, 60
2, 396956, Note_off_c, 0, 77, 64
2, 396960, Note_on_c, 0, 75, 60
2, 397004, Note_off_c, 0, 75, 64
2, 397008, Note_on_c, 0, 77, 60
2, 397052, Note_off_c, 0, 77, 64
2, 397056, Note_on_c, 0, 65, 60
2, 397056, Note_on_c, 0, 57, 60
2, 397628, Note_off_c, 0, 65, 64
2, 397628, Note_off_c, 0, 57, 64
2, 397632, Note_on_c, 0, 69, 60
2, 397724, Note_off_c, 0, 69, 64
2, 397728, Note_on_c, 0, 72, 60
2, 397820, Note_off_c, 0, 72, 64
2, 397824, Note_on_c, 0, 75, 60
2, 398012, Note_off_c, 0, 75, 64
2, 398208, Note_on_c, 0, 75, 61
2, 398208, Note_on_c, 0, 65, 61
2, 398588, Note_off_c, 0, 75, 64
2, 398588, Note_off_c, 0, 65, 64
2, 398592, Note_on_c, 0, 74, 65
2, 398592, Note_on_c, 0, 65, 65
2, 398972, Note_off_c, 0, 74, 64
2, 398972, Note_off_c, 0, 65, 64
2, 398976, Note_on_c, 0, 73, 70
2, 398976, Note_on_c, 0, 64, 70
2, 399356, Note_off_c, 0, 73, 64
2, 399356, Note_off_c, 0, 64, 64
2, 399360, Note_on_c, 0, 74, 75
2, 399360, Note_on_c, 0, 65, 75
2, 399740, Note_off_c, 0, 74, 64
2, 399740, Note_off_c, 0, 65, 64
2, 400128, Note_on_c, 0, 70, 60
2, 400700, Note_off_c, 0, 70, 64
2, 400704, Note_on_c, 0, 74, 60
2, 400796, Note_off_c, 0, 74, 64
2, 400800, Note_on_c, 0, 77, 60
2, 400892, Note_off_c, 0, 77, 64
2, 400896, Note_on_c, 0, 80, 61
2, 401084, Note_off_c, 0, 80, 64
2, 401280, Note_on_c, 0, 84, 65
2, 401280, Note_on_c, 0, 80, 65
2, 401660, Note_off_c, 0, 84, 64
2, 401660, Note_off_c, 0, 80, 64
2, 401664, Note_on_c, 0, 82, 70
2, 401664, Note_on_c, 0, 79, 70
2, 402044, Note_off_c, 0, 82, 64
2, 402044, Note_off_c, 0, 79, 64
2, 402048, Note_on_c, 0, 80, 75
2, 402048, Note_on_c, 0, 77, 75
2, 402428, Note_off_c, 0, 80, 64
2, 402428, Note_off_c, 0, 77, 64
2, 402432, Note_on_c, 0, 79, 60
2, 402432, Note_on_c, 0, 75, 60
2, 403004, Note_off_c, 0, 79, 64
2, 403004, Note_off_c, 0, 75, 64
2, 403008, Note_on_c, 0, 80, 60
2, 403096, Note_off_c, 0, 80, 64
2, 403104, Note_on_c, 0, 82, 60
2, 403192, Note_off_c, 0, 82, 64
2, 403200, Note_on_c, 0, 64, 60
2, 403200, Note_on_c, 0, 60, 60
2, 403772, Note_off_c, 0, 64, 64
2, 403772, Note_off_c, 0, 60, 64
2, 403776, Note_on_c, 0, 65, 61
2, 403776, Note_on_c, 0, 62, 61
2, 403864, Note_off_c, 0, 65, 64
2, 403864, Note_off_c, 0, 62, 64
2, 403872, Note_on_c, 0, 67, 61
2, 403872, Note_on_c, 0, 64, 61
2, 403960, Note_off_c, 0, 67, 64
2, 403960, Note_off_c, 0, 64, 64
2, 403968, Note_on_c, 0, 81, 62
2, 403968, Note_on_c, 0, 77, 62
2, 404540, Note_off_c, 0, 81, 64
2, 404540, Note_off_c, 0, 77, 64
2, 404544, Note_on_c, 0, 82, 66
2, 404632, Note_off_c, 0, 82, 64
2, 404640, Note_on_c, 0, 84, 67
2, 404728, Note_off_c, 0, 84, 64
2, 404736, Note_on_c, 0, 62, 68
2, 404736, Note_on_c, 0, 66, 68
2, 405308, Note_off_c, 0, 62, 64
2, 405308, Note_off_c, 0, 66, 64
2, 405312, Note_on_c, 0, 67, 72
2, 405312, Note_on_c, 0, 64, 72
2, 405400, Note_off_c, 0, 67, 64
2, 405400, Note_off_c, 0, 64, 64
2, 405408, Note_on_c, 0, 69, 73
2, 405408, Note_on_c, 0, 66, 73
2, 405496, Note_off_c, 0, 69, 64
2, 405496, Note_off_c, 0, 66, 64
2, 405504, Note_on_c, 0, 79, 74
2, 405504, Note_on_c, 0, 83, 74
2, 405624, Note_off_c, 0, 79, 64
2, 405624, Note_off_c, 0, 83, 64
2, 405632, Note_on_c, 0, 84, 75
2, 405752, Note_off_c, 0, 84, 64
2, 405760, Note_on_c, 0, 86, 76
2, 405880, Note_off_c, 0, 86, 64
2, 405888, Note_on_c, 0, 68, 76
2, 405888, Note_on_c, 0, 64, 76
2, 406008, Note_off_c, 0, 68, 64
2, 406008, Note_off_c, 0, 64, 64
2, 406016, Note_on_c, 0, 69, 76
2, 406016, Note_on_c, 0, 66, 76
2, 406136, Note_off_c, 0, 69, 64
2, 406136, Note_off_c, 0, 66, 64
2, 406144, Note_on_c, 0, 71, 77
2, 406144, Note_on_c, 0, 68, 77
2, 406264, Note_off_c, 0, 71, 64
2, 406264, Note_off_c, 0, 68, 64
2, 406272, Note_on_c, 0, 72, 77
2, 406272, Note_on_c, 0, 69, 77
2, 406392, Note_off_c, 0, 72, 64
2, 406392, Note_off_c, 0, 69, 64
2, 406400, Note_on_c, 0, 76, 77
2, 406520, Note_off_c, 0, 76, 64
2, 406528, Note_on_c, 0, 81, 77
2, 406648, Note_off_c, 0, 81, 64
2, 406656, Note_on_c, 0, 72, 77
2, 406656, Note_on_c, 0, 67, 77
2, 406776, Note_off_c, 0, 72, 64
2, 406776, Note_off_c, 0, 67, 64
2, 406784, Note_on_c, 0, 76, 77
2, 406904, Note_off_c, 0, 76, 64
2, 406912, Note_on_c, 0, 81, 77
2, 407032, Note_off_c, 0, 81, 64
2, 407040, Note_on_c, 0, 72, 77
2, 407040, Note_on_c, 0, 66, 77
2, 407160, Note_off_c, 0, 72, 64
2, 407160, Note_off_c, 0, 66, 64
2, 407168, Note_on_c, 0, 76, 77
2, 407288, Note_off_c, 0, 76, 64
2, 407296, Note_on_c, 0, 81, 77
2, 407416, Note_off_c, 0, 81, 64
2, 407424, Note_on_c, 0, 72, 77
2, 407424, Note_on_c, 0, 65, 77
2, 407544, Note_off_c, 0, 72, 64
2, 407544, Note_off_c, 0, 65, 64
2, 407552, Note_on_c, 0, 76, 77
2, 407672, Note_off_c, 0, 76, 64
2, 407680, Note_on_c, 0, 81, 77
2, 407800, Note_off_c, 0, 81, 64
2, 407808, Note_on_c, 0, 72, 77
2, 407808, Note_on_c, 0, 64, 77
2, 407928, Note_off_c, 0, 72, 64
2, 407928, Note_off_c, 0, 64, 64
2, 407936, Note_on_c, 0, 69, 77
2, 408056, Note_off_c, 0, 69, 64
2, 408064, Note_on_c, 0, 81, 77
2, 408184, Note_off_c, 0, 81, 64
2, 408192, Note_on_c, 0, 69, 77
2, 408192, Note_on_c, 0, 65, 77
2, 408312, Note_off_c, 0, 69, 64
2, 408312, Note_off_c, 0, 65, 64
2, 408320, Note_on_c, 0, 69, 77
2, 408320, Note_on_c, 0, 65, 77
2, 408440, Note_off_c, 0, 69, 64
2, 408440, Note_off_c, 0, 65, 64
2, 408448, Note_on_c, 0, 84, 77
2, 408448, Note_on_c, 0, 69, 77
2, 408568, Note_off_c, 0, 84, 64
2, 408568, Note_off_c, 0, 69, 64
2, 408576, Note_on_c, 0, 60, 77
2, 408576, Note_on_c, 0, 65, 77
2, 408696, Note_off_c, 0, 60, 64
2, 408696, Note_off_c, 0, 65, 64
2, 408704, Note_on_c, 0, 65, 77
2, 408704, Note_on_c, 0, 60, 77
2, 408824, Note_off_c, 0, 65, 64
2, 408824, Note_off_c, 0, 60, 64
2, 408832, Note_on_c, 0, 69, 77
2, 408832, Note_on_c, 0, 84, 77
2, 408952, Note_off_c, 0, 69, 64
2, 408952, Note_off_c, 0, 84, 64
2, 408960, Note_on_c, 0, 69, 77
2, 408960, Note_on_c, 0, 62, 77
2, 409080, Note_off_c, 0, 69, 64
2, 409080, Note_off_c, 0, 62, 64
2, 409088, Note_on_c, 0, 69, 77
2, 409088, Note_on_c, 0, 62, 77
2, 409208, Note_off_c, 0, 69, 64
2, 409208, Note_off_c, 0, 62, 64
2, 409216, Note_on_c, 0, 69, 77
2, 409216, Note_on_c, 0, 84, 77
2, 409336, Note_off_c, 0, 69, 64
2, 409336, Note_off_c, 0, 84, 64
2, 409344, Note_on_c, 0, 64, 87
2, 409344, Note_on_c, 0, 69, 87
2, 409432, Note_off_c, 0, 64, 64
2, 409432, Note_off_c, 0, 69, 64
2, 409440, Note_on_c, 0, 69, 87
2, 409440, Note_on_c, 0, 84, 87
2, 409528, Note_off_c, 0, 69, 64
2, 409528, Note_off_c, 0, 84, 64
2, 409536, Note_on_c, 0, 84, 87
2, 409536, Note_on_c, 0, 69, 87
2, 409624, Note_off_c, 0, 84, 64
2, 409624, Note_off_c, 0, 69, 64
2, 409632, Note_on_c, 0, 69, 87
2, 409632, Note_on_c, 0, 64, 87
2, 409720, Note_off_c, 0, 69, 64
2, 409720, Note_off_c, 0, 64, 64
2, 409728, Note_on_c, 0, 69, 87
2, 409728, Note_on_c, 0, 65, 87
2, 409816, Note_off_c, 0, 69, 64
2, 409816, Note_off_c, 0, 65, 64
2, 409824, Note_on_c, 0, 84, 87
2, 409824, Note_on_c, 0, 69, 87
2, 409912, Note_off_c, 0, 84, 64
2, 409912, Note_off_c, 0, 69, 64
2, 409920, Note_on_c, 0, 84, 87
2, 409920, Note_on_c, 0, 69, 87
2, 410008, Note_off_c, 0, 84, 64
2, 410008, Note_off_c, 0, 69, 64
2, 410016, Note_on_c, 0, 69, 87
2, 410016, Note_on_c, 0, 65, 87
2, 410104, Note_off_c, 0, 69, 64
2, 410104, Note_off_c, 0, 65, 64
2, 410112, Note_on_c, 0, 69, 87
2, 410112, Note_on_c, 0, 64, 87
2, 410200, Note_off_c, 0, 69, 64
2, 410200, Note_off_c, 0, 64, 64
2, 410208, Note_on_c, 0, 84, 87
2, 410208, Note_on_c, 0, 69, 87
2, 410296, Note_off_c, 0, 84, 64
2, 410296, Note_off_c, 0, 69, 64
2, 410304, Note_on_c, 0, 84, 87
2, 410304, Note_on_c, 0, 69, 87
2, 410392, Note_off_c, 0, 84, 64
2, 410392, Note_off_c, 0, 69, 64
2, 410400, Note_on_c, 0, 69, 87
2, 410400, Note_on_c, 0, 64, 87
2, 410488, Note_off_c, 0, 69, 64
2, 410488, Note_off_c, 0, 64, 64
2, 410496, Note_on_c, 0, 69, 87
2, 410496, Note_on_c, 0, 63, 87
2, 410584, Note_off_c, 0, 69, 64
2, 410584, Note_off_c, 0, 63, 64
2, 410592, Note_on_c, 0, 84, 87
2, 410592, Note_on_c, 0, 69, 87
2, 410680, Note_off_c, 0, 84, 64
2, 410680, Note_off_c, 0, 69, 64
2, 410688, Note_on_c, 0, 84, 87
2, 410688, Note_on_c, 0, 69, 87
2, 410776, Note_off_c, 0, 84, 64
2, 410776, Note_off_c, 0, 69, 64
2, 410784, Note_on_c, 0, 63, 87
2, 410784, Note_on_c, 0, 69, 87
2, 410872, Note_off_c, 0, 63, 64
2, 410872, Note_off_c, 0, 69, 64
2, 410880, Note_on_c, 0, 69, 87
2, 410880, Note_on_c, 0, 64, 87
2, 410968, Note_off_c, 0, 69, 64
2, 410968, Note_off_c, 0, 64, 64
2, 410976, Note_on_c, 0, 84, 87
2, 410976, Note_on_c, 0, 69, 87
2, 411064, Note_off_c, 0, 84, 64
2, 411064, Note_off_c, 0, 69, 64
2, 411072, Note_on_c, 0, 84, 87
2, 411072, Note_on_c, 0, 69, 87
2, 411160, Note_off_c, 0, 84, 64
2, 411160, Note_off_c, 0, 69, 64
2, 411168, Note_on_c, 0, 69, 87
2, 411168, Note_on_c, 0, 64, 87
2, 411256, Note_off_c, 0, 69, 64
2, 411256, Note_off_c, 0, 64, 64
2, 411264, Note_on_c, 0, 69, 87
2, 411264, Note_on_c, 0, 67, 87
2, 411352, Note_off_c, 0, 69, 64
2, 411352, Note_off_c, 0, 67, 64
2, 411360, Note_on_c, 0, 69, 87
2, 411360, Note_on_c, 0, 85, 87
2, 411448, Note_off_c, 0, 69, 64
2, 411448, Note_off_c, 0, 85, 64
2, 411456, Note_on_c, 0, 85, 87
2, 411456, Note_on_c, 0, 69, 87
2, 411544, Note_off_c, 0, 85, 64
2, 411544, Note_off_c, 0, 69, 64
2, 411552, Note_on_c, 0, 69, 87
2, 411552, Note_on_c, 0, 67, 87
2, 411640, Note_off_c, 0, 69, 64
2, 411640, Note_off_c, 0, 67, 64
2, 411648, Note_on_c, 0, 69, 87
2, 411648, Note_on_c, 0, 66, 87
2, 411736, Note_off_c, 0, 69, 64
2, 411736, Note_off_c, 0, 66, 64
2, 411744, Note_on_c, 0, 69, 87
2, 411744, Note_on_c, 0, 86, 87
2, 411832, Note_off_c, 0, 69, 64
2, 411832, Note_off_c, 0, 86, 64
2, 411840, Note_on_c, 0, 69, 87
2, 411840, Note_on_c, 0, 86, 87
2, 411928, Note_off_c, 0, 69, 64
2, 411928, Note_off_c, 0, 86, 64
2, 411936, Note_on_c, 0, 69, 87
2, 411936, Note_on_c, 0, 66, 87
2, 412024, Note_off_c, 0, 69, 64
2, 412024, Note_off_c, 0, 66, 64
2, 412032, Note_on_c, 0, 69, 87
2, 412032, Note_on_c, 0, 65, 87
2, 412120, Note_off_c, 0, 69, 64
2, 412120, Note_off_c, 0, 65, 64
2, 412128, Note_on_c, 0, 87, 87
2, 412128, Note_on_c, 0, 69, 87
2, 412216, Note_off_c, 0, 87, 64
2, 412216, Note_off_c, 0, 69, 64
2, 412224, Note_on_c, 0, 87, 87
2, 412224, Note_on_c, 0, 69, 87
2, 412312, Note_off_c, 0, 87, 64
2, 412312, Note_off_c, 0, 69, 64
2, 412320, Note_on_c, 0, 69, 87
2, 412320, Note_on_c, 0, 65, 87
2, 412408, Note_off_c, 0, 69, 64
2, 412408, Note_off_c, 0, 65, 64
2, 412416, Note_on_c, 0, 81, 95
2, 412416, Note_on_c, 0, 73, 95
2, 412416, Note_on_c, 0, 64, 95
2, 412988, Note_off_c, 0, 81, 64
2, 412988, Note_off_c, 0, 73, 64
2, 412988, Note_off_c, 0, 64, 64
2, 412992, Note_on_c, 0, 76, 87
2, 413180, Note_off_c, 0, 76, 64
2, 413184, Note_on_c, 0, 85, 87
2, 413756, Note_off_c, 0, 85, 64
2, 413760, Note_on_c, 0, 81, 87
2, 413948, Note_off_c, 0, 81, 64
2, 413952, Note_on_c, 0, 88, 87
2, 414140, Note_off_c, 0, 88, 64
2, 414336, Note_on_c, 0, 88, 95
2, 414908, Note_off_c, 0, 88, 64
2, 414912, Note_on_c, 0, 88, 87
2, 414956, Note_off_c, 0, 88, 64
2, 414960, Note_on_c, 0, 90, 87
2, 415004, Note_off_c, 0, 90, 64
2, 415008, Note_on_c, 0, 88, 87
2, 415052, Note_off_c, 0, 88, 64
2, 415056, Note_on_c, 0, 90, 87
2, 415100, Note_off_c, 0, 90, 64
2, 415104, Note_on_c, 0, 93, 87
2, 415292, Note_off_c, 0, 93, 64
2, 415296, Note_on_c, 0, 88, 87
2, 415484, Note_off_c, 0, 88, 64
2, 415488, Note_on_c, 0, 86, 87
2, 415676, Note_off_c, 0, 86, 64
2, 415680, Note_on_c, 0, 85, 95
2, 415868, Note_off_c, 0, 85, 64
2, 415872, Note_on_c, 0, 85, 87
2, 416444, Note_off_c, 0, 85, 64
2, 416448, Note_on_c, 0, 85, 87
2, 416492, Note_off_c, 0, 85, 64
2, 416496, Note_on_c, 0, 86, 87
2, 416540, Note_off_c, 0, 86, 64
2, 416544, Note_on_c, 0, 85, 87
2, 416588, Note_off_c, 0, 85, 64
2, 416592, Note_on_c, 0, 86, 87
2, 416636, Note_off_c, 0, 86, 64
2, 416640, Note_on_c, 0, 88, 87
2, 416828, Note_off_c, 0, 88, 64
2, 416832, Note_on_c, 0, 85, 87
2, 417020, Note_off_c, 0, 85, 64
2, 417024, Note_on_c, 0, 83, 95
2, 417112, Note_off_c, 0, 83, 64
2, 417120, Note_on_c, 0, 81, 87
2, 417208, Note_off_c, 0, 81, 64
2, 417216, Note_on_c, 0, 85, 87
2, 417304, Note_off_c, 0, 85, 64
2, 417312, Note_on_c, 0, 81, 87
2, 417400, Note_off_c, 0, 81, 64
2, 417408, Note_on_c, 0, 78, 95
2, 417496, Note_off_c, 0, 78, 64
2, 417504, Note_on_c, 0, 76, 87
2, 417592, Note_off_c, 0, 76, 64
2, 417600, Note_on_c, 0, 81, 87
2, 417688, Note_off_c, 0, 81, 64
2, 417696, Note_on_c, 0, 76, 87
2, 417784, Note_off_c, 0, 76, 64
2, 417792, Note_on_c, 0, 74, 95
2, 417880, Note_off_c, 0, 74, 64
2, 417888, Note_on_c, 0, 73, 87
2, 417976, Note_off_c, 0, 73, 64
2, 417984, Note_on_c, 0, 76, 87
2, 418072, Note_off_c, 0, 76, 64
2, 418080, Note_on_c, 0, 73, 87
2, 418168, Note_off_c, 0, 73, 64
2, 418176, Note_on_c, 0, 71, 95
2, 418264, Note_off_c, 0, 71, 64
2, 418272, Note_on_c, 0, 69, 87
2, 418360, Note_off_c, 0, 69, 64
2, 418368, Note_on_c, 0, 73, 87
2, 418456, Note_off_c, 0, 73, 64
2, 418464, Note_on_c, 0, 69, 87
2, 418552, Note_off_c, 0, 69, 64
2, 418560, Note_on_c, 0, 68, 87
2, 418748, Note_off_c, 0, 68, 64
2, 418752, Note_on_c, 0, 71, 87
2, 418940, Note_off_c, 0, 71, 64
2, 418944, Note_on_c, 0, 62, 87
2, 419516, Note_off_c, 0, 62, 64
2, 419520, Note_on_c, 0, 66, 87
2, 419612, Note_off_c, 0, 66, 64
2, 419616, Note_on_c, 0, 64, 87
2, 419708, Note_off_c, 0, 64, 64
2, 419712, Note_on_c, 0, 62, 87
2, 419804, Note_off_c, 0, 62, 64
2, 419808, Note_on_c, 0, 61, 87
2, 419900, Note_off_c, 0, 61, 64
2, 419904, Note_on_c, 0, 59, 87
2, 419996, Note_off_c, 0, 59, 64
2, 420000, Note_on_c, 0, 57, 87
2, 420092, Note_off_c, 0, 57, 64
2, 420096, Note_on_c, 0, 76, 87
2, 420096, Note_on_c, 0, 71, 87
2, 420096, Note_on_c, 0, 64, 87
2, 420096, Note_on_c, 0, 56, 87
2, 420284, Note_off_c, 0, 76, 64
2, 420284, Note_off_c, 0, 71, 64
2, 420284, Note_off_c, 0, 64, 64
2, 420284, Note_off_c, 0, 56, 64
2, 420480, Note_on_c, 0, 83, 95
2, 420480, Note_on_c, 0, 76, 95
2, 420480, Note_on_c, 0, 68, 95
2, 421052, Note_off_c, 0, 83, 64
2, 421052, Note_off_c, 0, 76, 64
2, 421052, Note_off_c, 0, 68, 64
2, 421056, Note_on_c, 0, 83, 87
2, 421100, Note_off_c, 0, 83, 64
2, 421104, Note_on_c, 0, 85, 87
2, 421148, Note_off_c, 0, 85, 64
2, 421152, Note_on_c, 0, 83, 87
2, 421196, Note_off_c, 0, 83, 64
2, 421200, Note_on_c, 0, 85, 87
2, 421244, Note_off_c, 0, 85, 64
2, 421248, Note_on_c, 0, 88, 87
2, 421436, Note_off_c, 0, 88, 64
2, 421440, Note_on_c, 0, 83, 87
2, 421628, Note_off_c, 0, 83, 64
2, 421632, Note_on_c, 0, 81, 87
2, 421632, Note_on_c, 0, 71, 87
2, 421820, Note_off_c, 0, 81, 64
2, 421820, Note_off_c, 0, 71, 64
2, 421824, Note_on_c, 0, 80, 87
2, 421824, Note_on_c, 0, 71, 87
2, 422012, Note_off_c, 0, 80, 64
2, 422012, Note_off_c, 0, 71, 64
2, 422016, Note_on_c, 0, 80, 87
2, 422016, Note_on_c, 0, 71, 87
2, 422588, Note_off_c, 0, 80, 64
2, 422588, Note_off_c, 0, 71, 64
2, 422592, Note_on_c, 0, 80, 87
2, 422636, Note_off_c, 0, 80, 64
2, 422640, Note_on_c, 0, 81, 87
2, 422684, Note_off_c, 0, 81, 64
2, 422688, Note_on_c, 0, 80, 87
2, 422732, Note_off_c, 0, 80, 64
2, 422736, Note_on_c, 0, 81, 87
2, 422780, Note_off_c, 0, 81, 64
2, 422784, Note_on_c, 0, 83, 87
2, 422972, Note_off_c, 0, 83, 64
2, 422976, Note_on_c, 0, 80, 87
2, 423164, Note_off_c, 0, 80, 64
2, 423168, Note_on_c, 0, 78, 95
2, 423256, Note_off_c, 0, 78, 64
2, 423264, Note_on_c, 0, 76, 87
2, 423352, Note_off_c, 0, 76, 64
2, 423360, Note_on_c, 0, 78, 87
2, 423448, Note_off_c, 0, 78, 64
2, 423456, Note_on_c, 0, 74, 87
2, 423544, Note_off_c, 0, 74, 64
2, 423552, Note_on_c, 0, 73, 95
2, 423640, Note_off_c, 0, 73, 64
2, 423648, Note_on_c, 0, 71, 87
2, 423736, Note_off_c, 0, 71, 64
2, 423744, Note_on_c, 0, 74, 87
2, 423832, Note_off_c, 0, 74, 64
2, 423840, Note_on_c, 0, 71, 87
2, 423928, Note_off_c, 0, 71, 64
2, 423936, Note_on_c, 0, 69, 95
2, 424024, Note_off_c, 0, 69, 64
2, 424032, Note_on_c, 0, 68, 87
2, 424120, Note_off_c, 0, 68, 64
2, 424128, Note_on_c, 0, 71, 87
2, 424216, Note_off_c, 0, 71, 64
2, 424224, Note_on_c, 0, 68, 87
2, 424312, Note_off_c, 0, 68, 64
2, 424320, Note_on_c, 0, 64, 95
2, 424408, Note_off_c, 0, 64, 64
2, 424416, Note_on_c, 0, 62, 87
2, 424504, Note_off_c, 0, 62, 64
2, 424512, Note_on_c, 0, 66, 87
2, 424600, Note_off_c, 0, 66, 64
2, 424608, Note_on_c, 0, 62, 87
2, 424696, Note_off_c, 0, 62, 64
2, 424704, Note_on_c, 0, 80, 87
2, 424704, Note_on_c, 0, 71, 87
2, 424800, Note_off_c, 0, 80, 64
2, 424800, Note_off_c, 0, 71, 64
2, 424896, Note_on_c, 0, 83, 87
2, 424896, Note_on_c, 0, 74, 87
2, 424992, Note_off_c, 0, 83, 64
2, 424992, Note_off_c, 0, 74, 64
2, 425088, Note_on_c, 0, 64, 95
2, 425088, Note_on_c, 0, 56, 95
2, 425468, Note_off_c, 0, 64, 64
2, 425468, Note_off_c, 0, 56, 64
2, 425472, Note_on_c, 0, 80, 87
2, 425472, Note_on_c, 0, 71, 87
2, 425568, Note_off_c, 0, 80, 64
2, 425568, Note_off_c, 0, 71, 64
2, 425664, Note_on_c, 0, 83, 87
2, 425664, Note_on_c, 0, 74, 87
2, 425760, Note_off_c, 0, 83, 64
2, 425760, Note_off_c, 0, 74, 64
2, 425856, Note_on_c, 0, 65, 95
2, 425856, Note_on_c, 0, 57, 95
2, 426236, Note_off_c, 0, 65, 64
2, 426236, Note_off_c, 0, 57, 64
2, 426240, Note_on_c, 0, 83, 87
2, 426240, Note_on_c, 0, 74, 87
2, 426336, Note_off_c, 0, 83, 64
2, 426336, Note_off_c, 0, 74, 64
2, 426432, Note_on_c, 0, 86, 87
2, 426432, Note_on_c, 0, 77, 87
2, 426528, Note_off_c, 0, 86, 64
2, 426528, Note_off_c, 0, 77, 64
2, 426624, Note_on_c, 0, 68, 95
2, 426624, Note_on_c, 0, 59, 95
2, 427004, Note_off_c, 0, 68, 64
2, 427004, Note_off_c, 0, 59, 64
2, 427008, Note_on_c, 0, 83, 87
2, 427008, Note_on_c, 0, 74, 87
2, 427104, Note_off_c, 0, 83, 64
2, 427104, Note_off_c, 0, 74, 64
2, 427200, Note_on_c, 0, 86, 87
2, 427200, Note_on_c, 0, 77, 87
2, 427296, Note_off_c, 0, 86, 64
2, 427296, Note_off_c, 0, 77, 64
2, 427392, Note_on_c, 0, 69, 95
2, 427392, Note_on_c, 0, 60, 95
2, 427772, Note_off_c, 0, 69, 64
2, 427772, Note_off_c, 0, 60, 64
2, 427776, Note_on_c, 0, 76, 95
2, 427776, Note_on_c, 0, 88, 95
2, 427820, Note_off_c, 0, 88, 64
2, 427824, Note_on_c, 0, 90, 87
2, 427868, Note_off_c, 0, 90, 64
2, 427872, Note_on_c, 0, 88, 87
2, 427916, Note_off_c, 0, 88, 64
2, 427920, Note_on_c, 0, 90, 87
2, 427964, Note_off_c, 0, 90, 64
2, 427968, Note_on_c, 0, 88, 87
2, 428012, Note_off_c, 0, 88, 64
2, 428016, Note_on_c, 0, 90, 87
2, 428060, Note_off_c, 0, 90, 64
2, 428064, Note_on_c, 0, 88, 87
2, 428108, Note_off_c, 0, 88, 64
2, 428112, Note_on_c, 0, 90, 87
2, 428156, Note_off_c, 0, 76, 64
2, 428156, Note_off_c, 0, 90, 64
2, 428160, Note_on_c, 0, 78, 95
2, 428160, Note_on_c, 0, 87, 95
2, 428204, Note_off_c, 0, 87, 64
2, 428208, Note_on_c, 0, 88, 87
2, 428252, Note_off_c, 0, 88, 64
2, 428256, Note_on_c, 0, 87, 87
2, 428300, Note_off_c, 0, 87, 64
2, 428304, Note_on_c, 0, 88, 87
2, 428348, Note_off_c, 0, 88, 64
2, 428352, Note_on_c, 0, 87, 87
2, 428396, Note_off_c, 0, 87, 64
2, 428400, Note_on_c, 0, 88, 87
2, 428444, Note_off_c, 0, 88, 64
2, 428448, Note_on_c, 0, 87, 87
2, 428492, Note_off_c, 0, 87, 64
2, 428496, Note_on_c, 0, 88, 87
2, 428540, Note_off_c, 0, 78, 64
2, 428540, Note_off_c, 0, 88, 64
2, 428544, Note_on_c, 0, 77, 95
2, 428544, Note_on_c, 0, 86, 95
2, 428588, Note_off_c, 0, 86, 64
2, 428592, Note_on_c, 0, 88, 87
2, 428636, Note_off_c, 0, 88, 64
2, 428640, Note_on_c, 0, 86, 87
2, 428684, Note_off_c, 0, 86, 64
2, 428688, Note_on_c, 0, 88, 87
2, 428732, Note_off_c, 0, 88, 64
2, 428736, Note_on_c, 0, 86, 87
2, 428780, Note_off_c, 0, 86, 64
2, 428784, Note_on_c, 0, 88, 87
2, 428828, Note_off_c, 0, 88, 64
2, 428832, Note_on_c, 0, 86, 87
2, 428876, Note_off_c, 0, 86, 64
2, 428880, Note_on_c, 0, 88, 87
2, 428924, Note_off_c, 0, 77, 64
2, 428924, Note_off_c, 0, 88, 64
2, 428928, Note_on_c, 0, 74, 95
2, 428928, Note_on_c, 0, 83, 95
2, 428972, Note_off_c, 0, 83, 64
2, 428976, Note_on_c, 0, 85, 87
2, 429020, Note_off_c, 0, 85, 64
2, 429024, Note_on_c, 0, 83, 87
2, 429068, Note_off_c, 0, 83, 64
2, 429072, Note_on_c, 0, 85, 87
2, 429116, Note_off_c, 0, 85, 64
2, 429120, Note_on_c, 0, 83, 87
2, 429164, Note_off_c, 0, 83, 64
2, 429168, Note_on_c, 0, 85, 87
2, 429212, Note_off_c, 0, 85, 64
2, 429216, Note_on_c, 0, 83, 87
2, 429260, Note_off_c, 0, 83, 64
2, 429264, Note_on_c, 0, 85, 87
2, 429308, Note_off_c, 0, 74, 64
2, 429308, Note_off_c, 0, 85, 64
2, 429312, Note_on_c, 0, 64, 95
2, 429312, Note_on_c, 0, 76, 95
2, 429356, Note_off_c, 0, 76, 64
2, 429360, Note_on_c, 0, 78, 87
2, 429404, Note_off_c, 0, 78, 64
2, 429408, Note_on_c, 0, 76, 87
2, 429452, Note_off_c, 0, 76, 64
2, 429456, Note_on_c, 0, 78, 87
2, 429500, Note_off_c, 0, 78, 64
2, 429504, Note_on_c, 0, 76, 87
2, 429548, Note_off_c, 0, 76, 64
2, 429552, Note_on_c, 0, 78, 87
2, 429596, Note_off_c, 0, 78, 64
2, 429600, Note_on_c, 0, 76, 87
2, 429644, Note_off_c, 0, 76, 64
2, 429648, Note_on_c, 0, 78, 87
2, 429692, Note_off_c, 0, 64, 64
2, 429692, Note_off_c, 0, 78, 64
2, 429696, Note_on_c, 0, 66, 95
2, 429696, Note_on_c, 0, 75, 95
2, 429740, Note_off_c, 0, 75, 64
2, 429744, Note_on_c, 0, 76, 87
2, 429788, Note_off_c, 0, 76, 64
2, 429792, Note_on_c, 0, 75, 87
2, 429836, Note_off_c, 0, 75, 64
2, 429840, Note_on_c, 0, 76, 87
2, 429884, Note_off_c, 0, 76, 64
2, 429888, Note_on_c, 0, 75, 87
2, 429932, Note_off_c, 0, 75, 64
2, 429936, Note_on_c, 0, 76, 87
2, 429980, Note_off_c, 0, 76, 64
2, 429984, Note_on_c, 0, 75, 87
2, 430028, Note_off_c, 0, 75, 64
2, 430032, Note_on_c, 0, 76, 87
2, 430076, Note_off_c, 0, 66, 64
2, 430076, Note_off_c, 0, 76, 64
2, 430080, Note_on_c, 0, 65, 95
2, 430080, Note_on_c, 0, 74, 95
2, 430124, Note_off_c, 0, 74, 64
2, 430128, Note_on_c, 0, 76, 87
2, 430172, Note_off_c, 0, 76, 64
2, 430176, Note_on_c, 0, 74, 87
2, 430220, Note_off_c, 0, 74, 64
2, 430224, Note_on_c, 0, 76, 87
2, 430268, Note_off_c, 0, 76, 64
2, 430272, Note_on_c, 0, 74, 87
2, 430316, Note_off_c, 0, 74, 64
2, 430320, Note_on_c, 0, 76, 87
2, 430364, Note_off_c, 0, 76, 64
2, 430368, Note_on_c, 0, 74, 87
2, 430412, Note_off_c, 0, 74, 64
2, 430416, Note_on_c, 0, 76, 87
2, 430460, Note_off_c, 0, 65, 64
2, 430460, Note_off_c, 0, 76, 64
2, 430464, Note_on_c, 0, 62, 95
2, 430464, Note_on_c, 0, 71, 95
2, 430508, Note_off_c, 0, 71, 64
2, 430512, Note_on_c, 0, 73, 87
2, 430556, Note_off_c, 0, 73, 64
2, 430560, Note_on_c, 0, 71, 87
2, 430604, Note_off_c, 0, 71, 64
2, 430608, Note_on_c, 0, 73, 87
2, 430652, Note_off_c, 0, 73, 64
2, 430656, Note_on_c, 0, 71, 87
2, 430700, Note_off_c, 0, 71, 64
2, 430704, Note_on_c, 0, 73, 87
2, 430748, Note_off_c, 0, 73, 64
2, 430752, Note_on_c, 0, 71, 87
2, 430796, Note_off_c, 0, 71, 64
2, 430800, Note_on_c, 0, 73, 87
2, 430844, Note_off_c, 0, 62, 64
2, 430844, Note_off_c, 0, 73, 64
2, 430848, Note_on_c, 0, 64, 77
2, 430848, Note_on_c, 0, 56, 77
2, 431420, Note_off_c, 0, 64, 64
2, 431424, Note_on_c, 0, 62, 77
2, 431612, Note_off_c, 0, 56, 64
2, 431612, Note_off_c, 0, 62, 64
2, 431616, Note_on_c, 0, 64, 77
2, 431616, Note_on_c, 0, 56, 77
2, 431736, Note_off_c, 0, 64, 64
2, 431736, Note_off_c, 0, 56, 64
2, 431744, Note_on_c, 0, 68, 77
2, 431744, Note_on_c, 0, 59, 77
2, 431864, Note_off_c, 0, 68, 64
2, 431864, Note_off_c, 0, 59, 64
2, 431872, Note_on_c, 0, 71, 77
2, 431872, Note_on_c, 0, 62, 77
2, 431992, Note_off_c, 0, 71, 64
2, 431992, Note_off_c, 0, 62, 64
2, 432000, Note_on_c, 0, 74, 79
2, 432000, Note_on_c, 0, 62, 79
2, 432120, Note_off_c, 0, 74, 64
2, 432120, Note_off_c, 0, 62, 64
2, 432128, Note_on_c, 0, 76, 82
2, 432128, Note_on_c, 0, 74, 82
2, 432248, Note_off_c, 0, 76, 64
2, 432248, Note_off_c, 0, 74, 64
2, 432256, Note_on_c, 0, 80, 85
2, 432256, Note_on_c, 0, 74, 85
2, 432376, Note_off_c, 0, 80, 64
2, 432376, Note_off_c, 0, 74, 64
2, 432384, Note_on_c, 0, 71, 95
2, 432384, Note_on_c, 0, 80, 95
2, 432428, Note_off_c, 0, 80, 64
2, 432432, Note_on_c, 0, 81, 87
2, 432476, Note_off_c, 0, 81, 64
2, 432480, Note_on_c, 0, 80, 87
2, 432524, Note_off_c, 0, 80, 64
2, 432528, Note_on_c, 0, 81, 87
2, 432572, Note_off_c, 0, 81, 64
2, 432576, Note_on_c, 0, 80, 87
2, 432620, Note_off_c, 0, 80, 64
2, 432624, Note_on_c, 0, 81, 87
2, 432668, Note_off_c, 0, 81, 64
2, 432672, Note_on_c, 0, 80, 87
2, 432716, Note_off_c, 0, 80, 64
2, 432720, Note_on_c, 0, 81, 87
2, 432764, Note_off_c, 0, 81, 64
2, 432768, Note_on_c, 0, 80, 87
2, 432812, Note_off_c, 0, 80, 64
2, 432816, Note_on_c, 0, 81, 87
2, 432860, Note_off_c, 0, 81, 64
2, 432864, Note_on_c, 0, 80, 87
2, 432908, Note_off_c, 0, 80, 64
2, 432912, Note_on_c, 0, 81, 87
2, 432956, Note_off_c, 0, 81, 64
2, 432960, Note_on_c, 0, 80, 87
2, 433004, Note_off_c, 0, 80, 64
2, 433008, Note_on_c, 0, 81, 87
2, 433052, Note_off_c, 0, 81, 64
2, 433056, Note_on_c, 0, 80, 87
2, 433100, Note_off_c, 0, 80, 64
2, 433104, Note_on_c, 0, 81, 87
2, 433148, Note_off_c, 0, 71, 64
2, 433148, Note_off_c, 0, 81, 64
2, 433152, Note_on_c, 0, 74, 95
2, 433152, Note_on_c, 0, 83, 95
2, 433196, Note_off_c, 0, 83, 64
2, 433200, Note_on_c, 0, 85, 87
2, 433244, Note_off_c, 0, 85, 64
2, 433248, Note_on_c, 0, 83, 87
2, 433292, Note_off_c, 0, 83, 64
2, 433296, Note_on_c, 0, 85, 87
2, 433340, Note_off_c, 0, 85, 64
2, 433344, Note_on_c, 0, 83, 87
2, 433388, Note_off_c, 0, 83, 64
2, 433392, Note_on_c, 0, 85, 87
2, 433436, Note_off_c, 0, 85, 64
2, 433440, Note_on_c, 0, 83, 87
2, 433484, Note_off_c, 0, 83, 64
2, 433488, Note_on_c, 0, 85, 87
2, 433532, Note_off_c, 0, 85, 64
2, 433536, Note_on_c, 0, 83, 87
2, 433580, Note_off_c, 0, 83, 64
2, 433584, Note_on_c, 0, 85, 87
2, 433628, Note_off_c, 0, 85, 64
2, 433632, Note_on_c, 0, 83, 87
2, 433676, Note_off_c, 0, 83, 64
2, 433680, Note_on_c, 0, 85, 87
2, 433724, Note_off_c, 0, 85, 64
2, 433728, Note_on_c, 0, 83, 87
2, 433772, Note_off_c, 0, 83, 64
2, 433776, Note_on_c, 0, 85, 87
2, 433820, Note_off_c, 0, 85, 64
2, 433824, Note_on_c, 0, 83, 87
2, 433868, Note_off_c, 0, 83, 64
2, 433872, Note_on_c, 0, 85, 87
2, 433916, Note_off_c, 0, 74, 64
2, 433916, Note_off_c, 0, 85, 64
2, 433920, Note_on_c, 0, 80, 87
2, 433920, Note_on_c, 0, 88, 87
2, 433964, Note_off_c, 0, 88, 64
2, 433968, Note_on_c, 0, 90, 87
2, 434012, Note_off_c, 0, 90, 64
2, 434016, Note_on_c, 0, 88, 87
2, 434060, Note_off_c, 0, 88, 64
2, 434064, Note_on_c, 0, 90, 87
2, 434108, Note_off_c, 0, 90, 64
2, 434112, Note_on_c, 0, 88, 87
2, 434156, Note_off_c, 0, 88, 64
2, 434160, Note_on_c, 0, 90, 87
2, 434204, Note_off_c, 0, 90, 64
2, 434208, Note_on_c, 0, 88, 87
2, 434252, Note_off_c, 0, 88, 64
2, 434256, Note_on_c, 0, 90, 87
2, 434300, Note_off_c, 0, 90, 64
2, 434304, Note_on_c, 0, 88, 87
2, 434348, Note_off_c, 0, 88, 64
2, 434352, Note_on_c, 0, 90, 87
2, 434396, Note_off_c, 0, 90, 64
2, 434400, Note_on_c, 0, 88, 87
2, 434444, Note_off_c, 0, 88, 64
2, 434448, Note_on_c, 0, 90, 87
2, 434492, Note_off_c, 0, 90, 64
2, 434496, Note_on_c, 0, 88, 87
2, 434540, Note_off_c, 0, 88, 64
2, 434544, Note_on_c, 0, 90, 87
2, 434588, Note_off_c, 0, 90, 64
2, 434592, Note_on_c, 0, 88, 87
2, 434636, Note_off_c, 0, 88, 64
2, 434640, Note_on_c, 0, 90, 87
2, 434684, Note_off_c, 0, 90, 64
2, 434688, Note_on_c, 0, 88, 87
2, 434732, Note_off_c, 0, 88, 64
2, 434736, Note_on_c, 0, 90, 87
2, 434780, Note_off_c, 0, 90, 64
2, 434784, Note_on_c, 0, 88, 87
2, 434828, Note_off_c, 0, 88, 64
2, 434832, Note_on_c, 0, 90, 87
2, 434876, Note_off_c, 0, 80, 64
2, 434876, Note_off_c, 0, 90, 64
2, 434880, Note_on_c, 0, 86, 87
2, 434968, Note_off_c, 0, 86, 64
2, 434976, Note_on_c, 0, 88, 87
2, 435064, Note_off_c, 0, 88, 64
2, 435072, Note_on_c, 0, 71, 92
2, 435072, Note_on_c, 0, 64, 92
2, 435072, Note_on_c, 0, 88, 92
2, 435072, Note_on_c, 0, 80, 92
2, 435452, Note_off_c, 0, 71, 64
2, 435452, Note_off_c, 0, 64, 64
2, 435452, Note_off_c, 0, 88, 64
2, 435452, Note_off_c, 0, 80, 64
2, 435456, Note_on_c, 0, 81, 92
2, 435456, Note_on_c, 0, 73, 92
2, 435456, Note_on_c, 0, 64, 92
2, 436220, Note_off_c, 0, 81, 70
2, 436220, Note_off_c, 0, 73, 70
2, 436220, Note_off_c, 0, 64, 70
2, 436220, End_track
3, 0, Start_track
3, 0, Title_t, "#5 -K219a  Midi by:"
3, 0, Control_c, 1, 0, 0
3, 0, Program_c, 1, 0
3, 0, Control_c, 1, 10, 42
3, 0, Control_c, 1, 91, 63
3, 0, Control_c, 1, 93, 0
3, 0, Key_signature, 3, "major"
3, 0, Control_c, 1, 121, 0
3, 48, Control_c, 1, 10, 48
3, 96, Control_c, 1, 91, 63
3, 288, Program_c, 1, 48
3, 1536, Note_on_c, 1, 69, 82
3, 1536, Note_on_c, 1, 64, 82
3, 1536, Note_on_c, 1, 61, 82
3, 1916, Note_off_c, 1, 69, 64
3, 1916, Note_off_c, 1, 64, 64
3, 1916, Note_off_c, 1, 61, 64
3, 2688, Note_on_c, 1, 61, 71
3, 2784, Note_off_c, 1, 61, 64
3, 3072, Note_on_c, 1, 64, 70
3, 3168, Note_off_c, 1, 64, 64
3, 3456, Note_on_c, 1, 69, 69
3, 3552, Note_off_c, 1, 69, 64
3, 3840, Note_on_c, 1, 73, 69
3, 3936, Note_off_c, 1, 73, 64
3, 4224, Note_on_c, 1, 64, 70
3, 4320, Note_off_c, 1, 64, 64
3, 4608, Note_on_c, 1, 69, 69
3, 4704, Note_off_c, 1, 69, 64
3, 4992, Note_on_c, 1, 73, 69
3, 5088, Note_off_c, 1, 73, 64
3, 5376, Note_on_c, 1, 76, 70
3, 5472, Note_off_c, 1, 76, 64
3, 5760, Note_on_c, 1, 69, 69
3, 5856, Note_off_c, 1, 69, 64
3, 6144, Note_on_c, 1, 73, 69
3, 6240, Note_off_c, 1, 73, 64
3, 6528, Note_on_c, 1, 76, 71
3, 6624, Note_off_c, 1, 76, 64
3, 6912, Note_on_c, 1, 81, 73
3, 7008, Note_off_c, 1, 81, 64
3, 7296, Note_on_c, 1, 85, 75
3, 7392, Note_off_c, 1, 85, 64
3, 7680, Note_on_c, 1, 80, 83
3, 7680, Note_on_c, 1, 76, 82
3, 7680, Note_on_c, 1, 86, 86
3, 7960, Note_off_c, 1, 86, 64
3, 7968, Note_on_c, 1, 83, 91
3, 7996, Note_off_c, 1, 83, 64
3, 8016, Note_on_c, 1, 85, 92
3, 8044, Note_off_c, 1, 85, 64
3, 8064, Note_on_c, 1, 86, 87
3, 8440, Note_off_c, 1, 80, 64
3, 8440, Note_off_c, 1, 76, 64
3, 8444, Note_off_c, 1, 86, 64
3, 8832, Note_on_c, 1, 62, 70
3, 8928, Note_off_c, 1, 62, 64
3, 9216, Note_on_c, 1, 68, 69
3, 9312, Note_off_c, 1, 68, 64
3, 9600, Note_on_c, 1, 71, 69
3, 9696, Note_off_c, 1, 71, 64
3, 9984, Note_on_c, 1, 74, 69
3, 10080, Note_off_c, 1, 74, 64
3, 10368, Note_on_c, 1, 68, 69
3, 10464, Note_off_c, 1, 68, 64
3, 10752, Note_on_c, 1, 71, 69
3, 10848, Note_off_c, 1, 71, 64
3, 11136, Note_on_c, 1, 74, 70
3, 11232, Note_off_c, 1, 74, 64
3, 11520, Note_on_c, 1, 80, 71
3, 11616, Note_off_c, 1, 80, 64
3, 11904, Note_on_c, 1, 71, 69
3, 12000, Note_off_c, 1, 71, 64
3, 12288, Note_on_c, 1, 74, 69
3, 12384, Note_off_c, 1, 74, 64
3, 12672, Note_on_c, 1, 80, 72
3, 12768, Note_off_c, 1, 80, 64
3, 13056, Note_on_c, 1, 83, 74
3, 13152, Note_off_c, 1, 83, 64
3, 13440, Note_on_c, 1, 86, 76
3, 13536, Note_off_c, 1, 86, 64
3, 13824, Note_on_c, 1, 76, 82
3, 13824, Note_on_c, 1, 85, 86
3, 14104, Note_off_c, 1, 85, 64
3, 14112, Note_on_c, 1, 81, 91
3, 14140, Note_off_c, 1, 81, 64
3, 14160, Note_on_c, 1, 83, 92
3, 14188, Note_off_c, 1, 83, 64
3, 14208, Note_on_c, 1, 85, 87
3, 14588, Note_off_c, 1, 76, 64
3, 14588, Note_off_c, 1, 85, 64
3, 14592, Note_on_c, 1, 69, 69
3, 14684, Note_off_c, 1, 69, 64
3, 14784, Note_on_c, 1, 69, 64
3, 14876, Note_off_c, 1, 69, 64
3, 14976, Note_on_c, 1, 71, 64
3, 15068, Note_off_c, 1, 71, 64
3, 15072, Note_on_c, 1, 69, 64
3, 15164, Note_off_c, 1, 69, 64
3, 15168, Note_on_c, 1, 68, 64
3, 15260, Note_off_c, 1, 68, 64
3, 15264, Note_on_c, 1, 69, 64
3, 15356, Note_off_c, 1, 69, 64
3, 15360, Note_on_c, 1, 66, 64
3, 15456, Note_off_c, 1, 66, 64
3, 15552, Note_on_c, 1, 66, 64
3, 15648, Note_off_c, 1, 66, 64
3, 15744, Note_on_c, 1, 68, 64
3, 15836, Note_off_c, 1, 68, 64
3, 15840, Note_on_c, 1, 66, 64
3, 15932, Note_off_c, 1, 66, 64
3, 15936, Note_on_c, 1, 64, 64
3, 16028, Note_off_c, 1, 64, 64
3, 16032, Note_on_c, 1, 66, 64
3, 16124, Note_off_c, 1, 66, 64
3, 16128, Note_on_c, 1, 64, 64
3, 16224, Note_off_c, 1, 64, 64
3, 16320, Note_on_c, 1, 64, 64
3, 16416, Note_off_c, 1, 64, 64
3, 16512, Note_on_c, 1, 66, 64
3, 16604, Note_off_c, 1, 66, 64
3, 16608, Note_on_c, 1, 64, 64
3, 16700, Note_off_c, 1, 64, 64
3, 16704, Note_on_c, 1, 63, 64
3, 16796, Note_off_c, 1, 63, 64
3, 16800, Note_on_c, 1, 64, 64
3, 16892, Note_off_c, 1, 64, 64
3, 16896, Note_on_c, 1, 63, 64
3, 17276, Note_off_c, 1, 63, 64
3, 17664, Note_on_c, 1, 81, 69
3, 18048, Note_on_c, 1, 63, 64
3, 18428, Note_off_c, 1, 81, 64
3, 18428, Note_off_c, 1, 63, 64
3, 18432, Note_on_c, 1, 80, 67
3, 18432, Note_on_c, 1, 64, 66
3, 18812, Note_off_c, 1, 80, 64
3, 18812, Note_off_c, 1, 64, 64
3, 18816, Note_on_c, 1, 76, 65
3, 19196, Note_off_c, 1, 76, 64
3, 19200, Note_on_c, 1, 79, 66
3, 19584, Note_on_c, 1, 61, 64
3, 19964, Note_off_c, 1, 79, 64
3, 19964, Note_off_c, 1, 61, 64
3, 19968, Note_on_c, 1, 62, 64
3, 19968, Note_on_c, 1, 78, 64
3, 20348, Note_off_c, 1, 62, 64
3, 20348, Note_off_c, 1, 78, 64
3, 20352, Note_on_c, 1, 74, 82
3, 20544, Note_off_c, 1, 74, 64
3, 20736, Note_on_c, 1, 86, 87
3, 20736, Note_on_c, 1, 74, 87
3, 21116, Note_off_c, 1, 86, 64
3, 21116, Note_off_c, 1, 74, 64
3, 21120, Note_on_c, 1, 86, 87
3, 21120, Note_on_c, 1, 74, 82
3, 21500, Note_off_c, 1, 86, 64
3, 21500, Note_off_c, 1, 74, 64
3, 21504, Note_on_c, 1, 86, 87
3, 21504, Note_on_c, 1, 74, 82
3, 21596, Note_off_c, 1, 86, 64
3, 21596, Note_off_c, 1, 74, 64
3, 21600, Note_on_c, 1, 83, 85
3, 21692, Note_off_c, 1, 83, 64
3, 21696, Note_on_c, 1, 86, 87
3, 21788, Note_off_c, 1, 86, 64
3, 21792, Note_on_c, 1, 83, 85
3, 21884, Note_off_c, 1, 83, 64
3, 21888, Note_on_c, 1, 80, 83
3, 22076, Note_off_c, 1, 80, 64
3, 22272, Note_on_c, 1, 81, 84
3, 22364, Note_off_c, 1, 81, 64
3, 22368, Note_on_c, 1, 78, 82
3, 22460, Note_off_c, 1, 78, 64
3, 22464, Note_on_c, 1, 81, 84
3, 22556, Note_off_c, 1, 81, 64
3, 22560, Note_on_c, 1, 78, 82
3, 22652, Note_off_c, 1, 78, 64
3, 22656, Note_on_c, 1, 75, 82
3, 22844, Note_off_c, 1, 75, 64
3, 23040, Note_on_c, 1, 73, 82
3, 23132, Note_off_c, 1, 73, 64
3, 23136, Note_on_c, 1, 69, 82
3, 23228, Note_off_c, 1, 69, 64
3, 23232, Note_on_c, 1, 73, 82
3, 23324, Note_off_c, 1, 73, 64
3, 23328, Note_on_c, 1, 69, 82
3, 23420, Note_off_c, 1, 69, 64
3, 23424, Note_on_c, 1, 64, 82
3, 23612, Note_off_c, 1, 64, 64
3, 23808, Note_on_c, 1, 71, 82
3, 23900, Note_off_c, 1, 71, 64
3, 23904, Note_on_c, 1, 68, 82
3, 23996, Note_off_c, 1, 68, 64
3, 24000, Note_on_c, 1, 71, 82
3, 24092, Note_off_c, 1, 71, 64
3, 24096, Note_on_c, 1, 68, 82
3, 24188, Note_off_c, 1, 68, 64
3, 24192, Note_on_c, 1, 64, 82
3, 24380, Note_off_c, 1, 64, 64
3, 24576, Note_on_c, 1, 69, 82
3, 24576, Note_on_c, 1, 61, 82
3, 24672, Note_off_c, 1, 69, 64
3, 24672, Note_off_c, 1, 61, 64
3, 24768, Note_on_c, 1, 57, 82
3, 24864, Note_off_c, 1, 57, 64
3, 24960, Note_on_c, 1, 69, 82
3, 25052, Note_off_c, 1, 69, 64
3, 25056, Note_on_c, 1, 68, 82
3, 25148, Note_off_c, 1, 68, 64
3, 25152, Note_on_c, 1, 69, 82
3, 25244, Note_off_c, 1, 69, 64
3, 25248, Note_on_c, 1, 71, 82
3, 25340, Note_off_c, 1, 71, 64
3, 25344, Note_on_c, 1, 73, 82
3, 25440, Note_off_c, 1, 73, 64
3, 25536, Note_on_c, 1, 61, 82
3, 25632, Note_off_c, 1, 61, 64
3, 25728, Note_on_c, 1, 73, 82
3, 25820, Note_off_c, 1, 73, 64
3, 25824, Note_on_c, 1, 71, 82
3, 25916, Note_off_c, 1, 71, 64
3, 25920, Note_on_c, 1, 73, 82
3, 26012, Note_off_c, 1, 73, 64
3, 26016, Note_on_c, 1, 74, 82
3, 26108, Note_off_c, 1, 74, 64
3, 26112, Note_on_c, 1, 76, 82
3, 26684, Note_off_c, 1, 76, 64
3, 26688, Note_on_c, 1, 78, 82
3, 26780, Note_off_c, 1, 78, 64
3, 26784, Note_on_c, 1, 75, 82
3, 26876, Note_off_c, 1, 75, 64
3, 26880, Note_on_c, 1, 76, 82
3, 27452, Note_off_c, 1, 76, 64
3, 27456, Note_on_c, 1, 78, 82
3, 27548, Note_off_c, 1, 78, 64
3, 27552, Note_on_c, 1, 75, 82
3, 27644, Note_off_c, 1, 75, 64
3, 27648, Note_on_c, 1, 76, 82
3, 27836, Note_off_c, 1, 76, 64
3, 27840, Note_on_c, 1, 78, 82
3, 27932, Note_off_c, 1, 78, 64
3, 27936, Note_on_c, 1, 75, 82
3, 28028, Note_off_c, 1, 75, 64
3, 28032, Note_on_c, 1, 76, 82
3, 28220, Note_off_c, 1, 76, 64
3, 28224, Note_on_c, 1, 78, 82
3, 28316, Note_off_c, 1, 78, 64
3, 28320, Note_on_c, 1, 75, 82
3, 28412, Note_off_c, 1, 75, 64
3, 28416, Note_on_c, 1, 76, 82
3, 28604, Note_off_c, 1, 76, 64
3, 28608, Note_on_c, 1, 78, 82
3, 28700, Note_off_c, 1, 78, 64
3, 28704, Note_on_c, 1, 75, 82
3, 28796, Note_off_c, 1, 75, 64
3, 28800, Note_on_c, 1, 76, 82
3, 28988, Note_off_c, 1, 76, 64
3, 28992, Note_on_c, 1, 78, 82
3, 29084, Note_off_c, 1, 78, 64
3, 29088, Note_on_c, 1, 75, 82
3, 29180, Note_off_c, 1, 75, 64
3, 29184, Note_on_c, 1, 76, 82
3, 29376, Note_off_c, 1, 76, 64
3, 29568, Note_on_c, 1, 64, 82
3, 29760, Note_off_c, 1, 64, 64
3, 30336, Note_on_c, 1, 76, 67
3, 30428, Note_off_c, 1, 76, 64
3, 30432, Note_on_c, 1, 74, 66
3, 30524, Note_off_c, 1, 74, 64
3, 30528, Note_on_c, 1, 73, 65
3, 30620, Note_off_c, 1, 73, 64
3, 30624, Note_on_c, 1, 71, 64
3, 30716, Note_off_c, 1, 71, 64
3, 30720, Note_on_c, 1, 69, 64
3, 30816, Note_off_c, 1, 69, 64
3, 31104, Note_on_c, 1, 69, 64
3, 31200, Note_off_c, 1, 69, 64
3, 31488, Note_on_c, 1, 69, 64
3, 31584, Note_off_c, 1, 69, 64
3, 31872, Note_on_c, 1, 78, 68
3, 31964, Note_off_c, 1, 78, 64
3, 31968, Note_on_c, 1, 76, 67
3, 32060, Note_off_c, 1, 76, 64
3, 32064, Note_on_c, 1, 74, 66
3, 32156, Note_off_c, 1, 74, 64
3, 32160, Note_on_c, 1, 73, 65
3, 32252, Note_off_c, 1, 73, 64
3, 32256, Note_on_c, 1, 71, 64
3, 32352, Note_off_c, 1, 71, 64
3, 32640, Note_on_c, 1, 71, 64
3, 32736, Note_off_c, 1, 71, 64
3, 33024, Note_on_c, 1, 71, 64
3, 33120, Note_off_c, 1, 71, 64
3, 33408, Note_on_c, 1, 76, 67
3, 33500, Note_off_c, 1, 76, 64
3, 33504, Note_on_c, 1, 74, 66
3, 33596, Note_off_c, 1, 74, 64
3, 33600, Note_on_c, 1, 73, 65
3, 33692, Note_off_c, 1, 73, 64
3, 33696, Note_on_c, 1, 71, 64
3, 33788, Note_off_c, 1, 71, 64
3, 33792, Note_on_c, 1, 69, 64
3, 34556, Note_off_c, 1, 69, 64
3, 34560, Note_on_c, 1, 73, 64
3, 34940, Note_off_c, 1, 73, 64
3, 34944, Note_on_c, 1, 76, 64
3, 35136, Note_off_c, 1, 76, 64
3, 35328, Note_on_c, 1, 64, 64
3, 36476, Note_off_c, 1, 64, 64
3, 36480, Note_on_c, 1, 76, 67
3, 36572, Note_off_c, 1, 76, 64
3, 36576, Note_on_c, 1, 74, 66
3, 36668, Note_off_c, 1, 74, 64
3, 36672, Note_on_c, 1, 73, 65
3, 36764, Note_off_c, 1, 73, 64
3, 36768, Note_on_c, 1, 71, 64
3, 36860, Note_off_c, 1, 71, 64
3, 36864, Note_on_c, 1, 69, 64
3, 36960, Note_off_c, 1, 69, 64
3, 37056, Note_on_c, 1, 69, 64
3, 37152, Note_off_c, 1, 69, 64
3, 37248, Note_on_c, 1, 69, 64
3, 37344, Note_off_c, 1, 69, 64
3, 37440, Note_on_c, 1, 69, 64
3, 37536, Note_off_c, 1, 69, 64
3, 37632, Note_on_c, 1, 69, 64
3, 38012, Note_off_c, 1, 69, 64
3, 38016, Note_on_c, 1, 78, 68
3, 38108, Note_off_c, 1, 78, 64
3, 38112, Note_on_c, 1, 76, 67
3, 38204, Note_off_c, 1, 76, 64
3, 38208, Note_on_c, 1, 74, 66
3, 38300, Note_off_c, 1, 74, 64
3, 38304, Note_on_c, 1, 73, 65
3, 38396, Note_off_c, 1, 73, 64
3, 38400, Note_on_c, 1, 71, 64
3, 38496, Note_off_c, 1, 71, 64
3, 38592, Note_on_c, 1, 71, 64
3, 38688, Note_off_c, 1, 71, 64
3, 38784, Note_on_c, 1, 71, 64
3, 38880, Note_off_c, 1, 71, 64
3, 38976, Note_on_c, 1, 71, 64
3, 39072, Note_off_c, 1, 71, 64
3, 39168, Note_on_c, 1, 71, 64
3, 39548, Note_off_c, 1, 71, 64
3, 39552, Note_on_c, 1, 76, 67
3, 39644, Note_off_c, 1, 76, 64
3, 39648, Note_on_c, 1, 74, 66
3, 39740, Note_off_c, 1, 74, 64
3, 39744, Note_on_c, 1, 73, 65
3, 39836, Note_off_c, 1, 73, 64
3, 39840, Note_on_c, 1, 71, 64
3, 39932, Note_off_c, 1, 71, 64
3, 39936, Note_on_c, 1, 69, 64
3, 40032, Note_off_c, 1, 69, 64
3, 40128, Note_on_c, 1, 69, 64
3, 40224, Note_off_c, 1, 69, 64
3, 40320, Note_on_c, 1, 69, 64
3, 40416, Note_off_c, 1, 69, 64
3, 40512, Note_on_c, 1, 69, 64
3, 40608, Note_off_c, 1, 69, 64
3, 40704, Note_on_c, 1, 73, 64
3, 40800, Note_off_c, 1, 73, 64
3, 40896, Note_on_c, 1, 73, 64
3, 40992, Note_off_c, 1, 73, 64
3, 41088, Note_on_c, 1, 76, 64
3, 41184, Note_off_c, 1, 76, 64
3, 41280, Note_on_c, 1, 76, 64
3, 41376, Note_off_c, 1, 76, 64
3, 41472, Note_on_c, 1, 64, 64
3, 41856, Note_on_c, 1, 68, 66
3, 42236, Note_off_c, 1, 68, 64
3, 42240, Note_on_c, 1, 71, 68
3, 42620, Note_off_c, 1, 64, 64
3, 42620, Note_off_c, 1, 71, 64
3, 42624, Note_on_c, 1, 76, 69
3, 42624, Note_on_c, 1, 68, 64
3, 42716, Note_off_c, 1, 68, 64
3, 42720, Note_on_c, 1, 71, 64
3, 42812, Note_off_c, 1, 71, 64
3, 42816, Note_on_c, 1, 68, 64
3, 42908, Note_off_c, 1, 68, 64
3, 42912, Note_on_c, 1, 71, 64
3, 43004, Note_off_c, 1, 76, 64
3, 43004, Note_off_c, 1, 71, 64
3, 43008, Note_on_c, 1, 74, 83
3, 43100, Note_off_c, 1, 74, 64
3, 43104, Note_on_c, 1, 69, 82
3, 43196, Note_off_c, 1, 69, 64
3, 43200, Note_on_c, 1, 78, 84
3, 43292, Note_off_c, 1, 78, 64
3, 43296, Note_on_c, 1, 69, 82
3, 43388, Note_off_c, 1, 69, 64
3, 43392, Note_on_c, 1, 81, 86
3, 43488, Note_off_c, 1, 81, 64
3, 43776, Note_on_c, 1, 76, 64
3, 43868, Note_off_c, 1, 76, 64
3, 43872, Note_on_c, 1, 74, 64
3, 43964, Note_off_c, 1, 74, 64
3, 43968, Note_on_c, 1, 73, 64
3, 44060, Note_off_c, 1, 73, 64
3, 44064, Note_on_c, 1, 74, 64
3, 44156, Note_off_c, 1, 74, 64
3, 44160, Note_on_c, 1, 76, 64
3, 44252, Note_off_c, 1, 76, 64
3, 44256, Note_on_c, 1, 74, 64
3, 44348, Note_off_c, 1, 74, 64
3, 44352, Note_on_c, 1, 73, 64
3, 44444, Note_off_c, 1, 73, 64
3, 44448, Note_on_c, 1, 74, 64
3, 44540, Note_off_c, 1, 74, 64
3, 44544, Note_on_c, 1, 73, 84
3, 44636, Note_off_c, 1, 73, 64
3, 44640, Note_on_c, 1, 69, 82
3, 44732, Note_off_c, 1, 69, 64
3, 44736, Note_on_c, 1, 76, 85
3, 44828, Note_off_c, 1, 76, 64
3, 44832, Note_on_c, 1, 69, 82
3, 44924, Note_off_c, 1, 69, 64
3, 44928, Note_on_c, 1, 81, 87
3, 45024, Note_off_c, 1, 81, 64
3, 45312, Note_on_c, 1, 74, 64
3, 45404, Note_off_c, 1, 74, 64
3, 45408, Note_on_c, 1, 73, 64
3, 45500, Note_off_c, 1, 73, 64
3, 45504, Note_on_c, 1, 71, 64
3, 45596, Note_off_c, 1, 71, 64
3, 45600, Note_on_c, 1, 73, 64
3, 45692, Note_off_c, 1, 73, 64
3, 45696, Note_on_c, 1, 74, 64
3, 45788, Note_off_c, 1, 74, 64
3, 45792, Note_on_c, 1, 73, 64
3, 45884, Note_off_c, 1, 73, 64
3, 45888, Note_on_c, 1, 71, 64
3, 45980, Note_off_c, 1, 71, 64
3, 45984, Note_on_c, 1, 73, 64
3, 46076, Note_off_c, 1, 73, 64
3, 46080, Note_on_c, 1, 66, 82
3, 46080, Note_on_c, 1, 71, 82
3, 46080, Note_on_c, 1, 69, 82
3, 46080, Note_on_c, 1, 59, 82
3, 46268, Note_off_c, 1, 71, 64
3, 46268, Note_off_c, 1, 69, 64
3, 46268, Note_off_c, 1, 59, 64
3, 46272, Note_on_c, 1, 71, 82
3, 46272, Note_on_c, 1, 69, 82
3, 46272, Note_on_c, 1, 59, 82
3, 46460, Note_off_c, 1, 66, 64
3, 46464, Note_on_c, 1, 64, 82
3, 46652, Note_off_c, 1, 71, 64
3, 46652, Note_off_c, 1, 69, 64
3, 46652, Note_off_c, 1, 59, 64
3, 46656, Note_on_c, 1, 71, 82
3, 46656, Note_on_c, 1, 69, 82
3, 46656, Note_on_c, 1, 59, 82
3, 46844, Note_off_c, 1, 64, 64
3, 46848, Note_on_c, 1, 63, 82
3, 47036, Note_off_c, 1, 71, 64
3, 47036, Note_off_c, 1, 69, 64
3, 47036, Note_off_c, 1, 59, 64
3, 47036, Note_off_c, 1, 63, 64
3, 47040, Note_on_c, 1, 69, 82
3, 47040, Note_on_c, 1, 59, 82
3, 47040, Note_on_c, 1, 71, 82
3, 47232, Note_on_c, 1, 66, 82
3, 47420, Note_off_c, 1, 69, 64
3, 47420, Note_off_c, 1, 59, 64
3, 47420, Note_off_c, 1, 71, 64
3, 47424, Note_on_c, 1, 71, 85
3, 47424, Note_on_c, 1, 69, 82
3, 47424, Note_on_c, 1, 59, 85
3, 47612, Note_off_c, 1, 66, 64
3, 47612, Note_off_c, 1, 69, 64
3, 47616, Note_on_c, 1, 68, 82
3, 47804, Note_off_c, 1, 59, 64
3, 47804, Note_off_c, 1, 71, 64
3, 47804, Note_off_c, 1, 68, 64
3, 47808, Note_on_c, 1, 68, 64
3, 47808, Note_on_c, 1, 71, 64
3, 47996, Note_off_c, 1, 68, 64
3, 47996, Note_off_c, 1, 71, 64
3, 48000, Note_on_c, 1, 74, 64
3, 48000, Note_on_c, 1, 71, 64
3, 48188, Note_off_c, 1, 74, 64
3, 48188, Note_off_c, 1, 71, 64
3, 48192, Note_on_c, 1, 78, 64
3, 48192, Note_on_c, 1, 74, 64
3, 48380, Note_off_c, 1, 78, 64
3, 48380, Note_off_c, 1, 74, 64
3, 48384, Note_on_c, 1, 78, 64
3, 48384, Note_on_c, 1, 74, 64
3, 48572, Note_off_c, 1, 78, 64
3, 48572, Note_off_c, 1, 74, 64
3, 48576, Note_on_c, 1, 76, 64
3, 48576, Note_on_c, 1, 73, 64
3, 48764, Note_off_c, 1, 76, 64
3, 48764, Note_off_c, 1, 73, 64
3, 48768, Note_on_c, 1, 74, 64
3, 48768, Note_on_c, 1, 71, 64
3, 48864, Note_off_c, 1, 74, 64
3, 48864, Note_off_c, 1, 71, 64
3, 48960, Note_on_c, 1, 73, 64
3, 48960, Note_on_c, 1, 69, 64
3, 49056, Note_off_c, 1, 73, 64
3, 49056, Note_off_c, 1, 69, 64
3, 49152, Note_on_c, 1, 71, 64
3, 49152, Note_on_c, 1, 62, 64
3, 49248, Note_off_c, 1, 71, 64
3, 49248, Note_off_c, 1, 62, 64
3, 49536, Note_on_c, 1, 69, 64
3, 49536, Note_on_c, 1, 61, 64
3, 49632, Note_off_c, 1, 69, 64
3, 49632, Note_off_c, 1, 61, 64
3, 49920, Note_on_c, 1, 71, 64
3, 49920, Note_on_c, 1, 62, 64
3, 50016, Note_off_c, 1, 71, 64
3, 50016, Note_off_c, 1, 62, 64
3, 50304, Note_on_c, 1, 73, 64
3, 50304, Note_on_c, 1, 64, 64
3, 50400, Note_off_c, 1, 73, 64
3, 50400, Note_off_c, 1, 64, 64
3, 50688, Note_on_c, 1, 69, 82
3, 50688, Note_on_c, 1, 64, 82
3, 50688, Note_on_c, 1, 61, 82
3, 51068, Note_off_c, 1, 69, 64
3, 51068, Note_off_c, 1, 64, 64
3, 51068, Note_off_c, 1, 61, 64
3, 51072, Note_on_c, 1, 83, 88
3, 51164, Note_off_c, 1, 83, 64
3, 51168, Note_on_c, 1, 81, 87
3, 51260, Note_off_c, 1, 81, 64
3, 51264, Note_on_c, 1, 80, 86
3, 51356, Note_off_c, 1, 80, 64
3, 51360, Note_on_c, 1, 78, 85
3, 51452, Note_off_c, 1, 78, 64
3, 51456, Note_on_c, 1, 78, 84
3, 51548, Note_off_c, 1, 78, 64
3, 51552, Note_on_c, 1, 76, 83
3, 51644, Note_off_c, 1, 76, 64
3, 51648, Note_on_c, 1, 74, 82
3, 51740, Note_off_c, 1, 74, 64
3, 51744, Note_on_c, 1, 73, 81
3, 51836, Note_off_c, 1, 73, 64
3, 51840, Note_on_c, 1, 83, 88
3, 51932, Note_off_c, 1, 83, 64
3, 51936, Note_on_c, 1, 81, 87
3, 52028, Note_off_c, 1, 81, 64
3, 52032, Note_on_c, 1, 80, 86
3, 52124, Note_off_c, 1, 80, 64
3, 52128, Note_on_c, 1, 78, 85
3, 52220, Note_off_c, 1, 78, 64
3, 52224, Note_on_c, 1, 78, 84
3, 52316, Note_off_c, 1, 78, 64
3, 52320, Note_on_c, 1, 76, 83
3, 52412, Note_off_c, 1, 76, 64
3, 52416, Note_on_c, 1, 74, 82
3, 52508, Note_off_c, 1, 74, 64
3, 52512, Note_on_c, 1, 73, 81
3, 52604, Note_off_c, 1, 73, 64
3, 52608, Note_on_c, 1, 83, 88
3, 52700, Note_off_c, 1, 83, 64
3, 52704, Note_on_c, 1, 81, 87
3, 52796, Note_off_c, 1, 81, 64
3, 52800, Note_on_c, 1, 80, 86
3, 52892, Note_off_c, 1, 80, 64
3, 52896, Note_on_c, 1, 78, 85
3, 52988, Note_off_c, 1, 78, 64
3, 52992, Note_on_c, 1, 78, 84
3, 53084, Note_off_c, 1, 78, 64
3, 53088, Note_on_c, 1, 76, 83
3, 53180, Note_off_c, 1, 76, 64
3, 53184, Note_on_c, 1, 74, 82
3, 53276, Note_off_c, 1, 74, 64
3, 53280, Note_on_c, 1, 73, 81
3, 53372, Note_off_c, 1, 73, 64
3, 53376, Note_on_c, 1, 71, 82
3, 53472, Note_off_c, 1, 71, 64
3, 53568, Note_on_c, 1, 76, 82
3, 53568, Note_on_c, 1, 71, 82
3, 53568, Note_on_c, 1, 68, 82
3, 53568, Note_on_c, 1, 64, 82
3, 53664, Note_off_c, 1, 76, 64
3, 53664, Note_off_c, 1, 71, 64
3, 53664, Note_off_c, 1, 68, 64
3, 53664, Note_off_c, 1, 64, 64
3, 53760, Note_on_c, 1, 73, 82
3, 53760, Note_on_c, 1, 69, 82
3, 53760, Note_on_c, 1, 64, 82
3, 54140, Note_off_c, 1, 73, 64
3, 54140, Note_off_c, 1, 69, 64
3, 54140, Note_off_c, 1, 64, 64
3, 54144, Note_on_c, 1, 83, 70
3, 54236, Note_off_c, 1, 83, 64
3, 54240, Note_on_c, 1, 81, 69
3, 54332, Note_off_c, 1, 81, 64
3, 54336, Note_on_c, 1, 80, 68
3, 54428, Note_off_c, 1, 80, 64
3, 54432, Note_on_c, 1, 78, 67
3, 54524, Note_off_c, 1, 78, 64
3, 54528, Note_on_c, 1, 78, 66
3, 54620, Note_off_c, 1, 78, 64
3, 54624, Note_on_c, 1, 76, 65
3, 54716, Note_off_c, 1, 76, 64
3, 54720, Note_on_c, 1, 74, 64
3, 54812, Note_off_c, 1, 74, 64
3, 54816, Note_on_c, 1, 73, 63
3, 54908, Note_off_c, 1, 73, 64
3, 54912, Note_on_c, 1, 83, 70
3, 55004, Note_off_c, 1, 83, 64
3, 55008, Note_on_c, 1, 81, 69
3, 55100, Note_off_c, 1, 81, 64
3, 55104, Note_on_c, 1, 80, 68
3, 55196, Note_off_c, 1, 80, 64
3, 55200, Note_on_c, 1, 78, 67
3, 55292, Note_off_c, 1, 78, 64
3, 55296, Note_on_c, 1, 78, 66
3, 55388, Note_off_c, 1, 78, 64
3, 55392, Note_on_c, 1, 76, 65
3, 55484, Note_off_c, 1, 76, 64
3, 55488, Note_on_c, 1, 74, 64
3, 55580, Note_off_c, 1, 74, 64
3, 55584, Note_on_c, 1, 73, 63
3, 55676, Note_off_c, 1, 73, 64
3, 55680, Note_on_c, 1, 83, 88
3, 55772, Note_off_c, 1, 83, 64
3, 55776, Note_on_c, 1, 81, 87
3, 55868, Note_off_c, 1, 81, 64
3, 55872, Note_on_c, 1, 80, 86
3, 55964, Note_off_c, 1, 80, 64
3, 55968, Note_on_c, 1, 78, 85
3, 56060, Note_off_c, 1, 78, 64
3, 56064, Note_on_c, 1, 78, 84
3, 56156, Note_off_c, 1, 78, 64
3, 56160, Note_on_c, 1, 76, 83
3, 56252, Note_off_c, 1, 76, 64
3, 56256, Note_on_c, 1, 74, 82
3, 56348, Note_off_c, 1, 74, 64
3, 56352, Note_on_c, 1, 73, 81
3, 56444, Note_off_c, 1, 73, 64
3, 56448, Note_on_c, 1, 71, 82
3, 56544, Note_off_c, 1, 71, 64
3, 56640, Note_on_c, 1, 76, 82
3, 56640, Note_on_c, 1, 71, 82
3, 56640, Note_on_c, 1, 68, 82
3, 56640, Note_on_c, 1, 64, 82
3, 56736, Note_off_c, 1, 76, 64
3, 56736, Note_off_c, 1, 71, 64
3, 56736, Note_off_c, 1, 68, 64
3, 56736, Note_off_c, 1, 64, 64
3, 56832, Note_on_c, 1, 69, 82
3, 56832, Note_on_c, 1, 64, 82
3, 57212, Note_off_c, 1, 69, 64
3, 57212, Note_off_c, 1, 64, 64
3, 57216, Note_on_c, 1, 76, 82
3, 57312, Note_off_c, 1, 76, 64
3, 57408, Note_on_c, 1, 73, 82
3, 57504, Note_off_c, 1, 73, 64
3, 57600, Note_on_c, 1, 69, 82
3, 57696, Note_off_c, 1, 69, 64
3, 57792, Note_on_c, 1, 73, 82
3, 57888, Note_off_c, 1, 73, 64
3, 57984, Note_on_c, 1, 64, 82
3, 58080, Note_off_c, 1, 64, 64
3, 58176, Note_on_c, 1, 69, 82
3, 58272, Note_off_c, 1, 69, 64
3, 58368, Note_on_c, 1, 61, 82
3, 58748, Note_off_c, 1, 61, 64
3, 58752, Note_on_c, 1, 73, 82
3, 58848, Note_off_c, 1, 73, 64
3, 58944, Note_on_c, 1, 69, 82
3, 59040, Note_off_c, 1, 69, 64
3, 59136, Note_on_c, 1, 64, 82
3, 59232, Note_off_c, 1, 64, 64
3, 59328, Note_on_c, 1, 69, 82
3, 59424, Note_off_c, 1, 69, 64
3, 59520, Note_on_c, 1, 61, 82
3, 59616, Note_off_c, 1, 61, 64
3, 59712, Note_on_c, 1, 64, 82
3, 59808, Note_off_c, 1, 64, 64
3, 59904, Note_on_c, 1, 57, 82
3, 60476, Note_off_c, 1, 57, 64
3, 60480, Note_on_c, 1, 61, 82
3, 60572, Note_off_c, 1, 61, 64
3, 60576, Note_on_c, 1, 64, 82
3, 60668, Note_off_c, 1, 64, 64
3, 60672, Note_on_c, 1, 69, 82
3, 61052, Note_off_c, 1, 69, 64
3, 61248, Control_c, 1, 1, 50
3, 62208, Note_on_c, 1, 61, 44
3, 62208, Note_on_c, 1, 57, 44
3, 62248, Note_off_c, 1, 61, 64
3, 62248, Note_off_c, 1, 57, 64
3, 62256, Note_on_c, 1, 59, 44
3, 62256, Note_on_c, 1, 56, 44
3, 62296, Note_off_c, 1, 59, 64
3, 62296, Note_off_c, 1, 56, 64
3, 62304, Note_on_c, 1, 61, 44
3, 62304, Note_on_c, 1, 57, 44
3, 62344, Note_off_c, 1, 61, 64
3, 62344, Note_off_c, 1, 57, 64
3, 62352, Note_on_c, 1, 59, 44
3, 62352, Note_on_c, 1, 56, 44
3, 62392, Note_off_c, 1, 59, 64
3, 62392, Note_off_c, 1, 56, 64
3, 62400, Note_on_c, 1, 61, 44
3, 62400, Note_on_c, 1, 57, 44
3, 62440, Note_off_c, 1, 61, 64
3, 62440, Note_off_c, 1, 57, 64
3, 62448, Note_on_c, 1, 62, 44
3, 62448, Note_on_c, 1, 59, 44
3, 62488, Note_off_c, 1, 62, 64
3, 62488, Note_off_c, 1, 59, 64
3, 62496, Note_on_c, 1, 64, 44
3, 62496, Note_on_c, 1, 61, 44
3, 62536, Note_off_c, 1, 64, 64
3, 62536, Note_off_c, 1, 61, 64
3, 62544, Note_on_c, 1, 62, 44
3, 62544, Note_on_c, 1, 59, 44
3, 62584, Note_off_c, 1, 62, 64
3, 62584, Note_off_c, 1, 59, 64
3, 62592, Note_on_c, 1, 64, 44
3, 62592, Note_on_c, 1, 61, 44
3, 62632, Note_off_c, 1, 64, 64
3, 62632, Note_off_c, 1, 61, 64
3, 62640, Note_on_c, 1, 62, 44
3, 62640, Note_on_c, 1, 59, 44
3, 62680, Note_off_c, 1, 62, 64
3, 62680, Note_off_c, 1, 59, 64
3, 62688, Note_on_c, 1, 64, 44
3, 62688, Note_on_c, 1, 61, 44
3, 62728, Note_off_c, 1, 64, 64
3, 62728, Note_off_c, 1, 61, 64
3, 62736, Note_on_c, 1, 66, 44
3, 62736, Note_on_c, 1, 62, 44
3, 62776, Note_off_c, 1, 66, 64
3, 62776, Note_off_c, 1, 62, 64
3, 62784, Note_on_c, 1, 67, 44
3, 62784, Note_on_c, 1, 64, 44
3, 62824, Note_off_c, 1, 67, 64
3, 62824, Note_off_c, 1, 64, 64
3, 62832, Note_on_c, 1, 66, 44
3, 62832, Note_on_c, 1, 62, 44
3, 62872, Note_off_c, 1, 66, 64
3, 62872, Note_off_c, 1, 62, 64
3, 62880, Note_on_c, 1, 64, 44
3, 62880, Note_on_c, 1, 61, 44
3, 62920, Note_off_c, 1, 64, 64
3, 62920, Note_off_c, 1, 61, 64
3, 62928, Note_on_c, 1, 66, 44
3, 62928, Note_on_c, 1, 62, 44
3, 62968, Note_off_c, 1, 66, 64
3, 62968, Note_off_c, 1, 62, 64
3, 62976, Note_on_c, 1, 64, 44
3, 62976, Note_on_c, 1, 61, 44
3, 63016, Note_off_c, 1, 64, 64
3, 63016, Note_off_c, 1, 61, 64
3, 63024, Note_on_c, 1, 62, 44
3, 63024, Note_on_c, 1, 59, 44
3, 63064, Note_off_c, 1, 62, 64
3, 63064, Note_off_c, 1, 59, 64
3, 63072, Note_on_c, 1, 61, 44
3, 63072, Note_on_c, 1, 57, 44
3, 63112, Note_off_c, 1, 61, 64
3, 63112, Note_off_c, 1, 57, 64
3, 63120, Note_on_c, 1, 62, 44
3, 63120, Note_on_c, 1, 59, 44
3, 63160, Note_off_c, 1, 62, 64
3, 63160, Note_off_c, 1, 59, 64
3, 63168, Note_on_c, 1, 64, 44
3, 63168, Note_on_c, 1, 61, 44
3, 63208, Note_off_c, 1, 64, 64
3, 63208, Note_off_c, 1, 61, 64
3, 63216, Note_on_c, 1, 66, 44
3, 63216, Note_on_c, 1, 62, 44
3, 63256, Note_off_c, 1, 66, 64
3, 63256, Note_off_c, 1, 62, 64
3, 63264, Note_on_c, 1, 67, 44
3, 63264, Note_on_c, 1, 64, 44
3, 63304, Note_off_c, 1, 67, 64
3, 63304, Note_off_c, 1, 64, 64
3, 63312, Note_on_c, 1, 64, 44
3, 63312, Note_on_c, 1, 61, 44
3, 63352, Note_off_c, 1, 64, 64
3, 63352, Note_off_c, 1, 61, 64
3, 63360, Note_on_c, 1, 66, 44
3, 63360, Note_on_c, 1, 62, 44
3, 63400, Note_off_c, 1, 66, 64
3, 63400, Note_off_c, 1, 62, 64
3, 63408, Note_on_c, 1, 64, 44
3, 63408, Note_on_c, 1, 61, 44
3, 63448, Note_off_c, 1, 64, 64
3, 63448, Note_off_c, 1, 61, 64
3, 63456, Note_on_c, 1, 66, 44
3, 63456, Note_on_c, 1, 62, 44
3, 63496, Note_off_c, 1, 66, 64
3, 63496, Note_off_c, 1, 62, 64
3, 63504, Note_on_c, 1, 67, 44
3, 63504, Note_on_c, 1, 64, 44
3, 63544, Note_off_c, 1, 67, 64
3, 63544, Note_off_c, 1, 64, 64
3, 63552, Note_on_c, 1, 69, 44
3, 63552, Note_on_c, 1, 66, 44
3, 63592, Note_off_c, 1, 69, 64
3, 63592, Note_off_c, 1, 66, 64
3, 63600, Note_on_c, 1, 67, 44
3, 63600, Note_on_c, 1, 64, 44
3, 63640, Note_off_c, 1, 67, 64
3, 63640, Note_off_c, 1, 64, 64
3, 63648, Note_on_c, 1, 69, 44
3, 63648, Note_on_c, 1, 66, 44
3, 63688, Note_off_c, 1, 69, 64
3, 63688, Note_off_c, 1, 66, 64
3, 63696, Note_on_c, 1, 66, 44
3, 63696, Note_on_c, 1, 62, 44
3, 63736, Note_off_c, 1, 66, 64
3, 63736, Note_off_c, 1, 62, 64
3, 63744, Note_on_c, 1, 64, 44
3, 63744, Note_on_c, 1, 61, 44
3, 63784, Note_off_c, 1, 64, 64
3, 63784, Note_off_c, 1, 61, 64
3, 63792, Note_on_c, 1, 62, 44
3, 63792, Note_on_c, 1, 59, 44
3, 63832, Note_off_c, 1, 62, 64
3, 63832, Note_off_c, 1, 59, 64
3, 63840, Note_on_c, 1, 61, 44
3, 63840, Note_on_c, 1, 57, 44
3, 63880, Note_off_c, 1, 61, 64
3, 63880, Note_off_c, 1, 57, 64
3, 63888, Note_on_c, 1, 62, 44
3, 63888, Note_on_c, 1, 59, 44
3, 63928, Note_off_c, 1, 62, 64
3, 63928, Note_off_c, 1, 59, 64
3, 63936, Note_on_c, 1, 61, 44
3, 63936, Note_on_c, 1, 57, 44
3, 63936, Note_on_c, 1, 76, 44
3, 63936, Note_on_c, 1, 73, 44
3, 63936, Note_on_c, 1, 69, 44
3, 63976, Note_off_c, 1, 61, 64
3, 63976, Note_off_c, 1, 57, 64
3, 63984, Note_on_c, 1, 62, 44
3, 63984, Note_on_c, 1, 59, 44
3, 64024, Note_off_c, 1, 62, 64
3, 64024, Note_off_c, 1, 59, 64
3, 64032, Note_on_c, 1, 64, 44
3, 64032, Note_on_c, 1, 61, 44
3, 64072, Note_off_c, 1, 64, 64
3, 64072, Note_off_c, 1, 61, 64
3, 64080, Note_on_c, 1, 66, 44
3, 64080, Note_on_c, 1, 62, 44
3, 64120, Note_off_c, 1, 66, 64
3, 64120, Note_off_c, 1, 62, 64
3, 64124, Note_off_c, 1, 76, 64
3, 64124, Note_off_c, 1, 73, 64
3, 64124, Note_off_c, 1, 69, 64
3, 64128, Note_on_c, 1, 64, 44
3, 64128, Note_on_c, 1, 61, 44
3, 64128, Note_on_c, 1, 73, 44
3, 64128, Note_on_c, 1, 69, 44
3, 64128, Note_on_c, 1, 76, 44
3, 64168, Note_off_c, 1, 64, 64
3, 64168, Note_off_c, 1, 61, 64
3, 64176, Note_on_c, 1, 66, 44
3, 64176, Note_on_c, 1, 62, 44
3, 64216, Note_off_c, 1, 73, 64
3, 64216, Note_off_c, 1, 69, 64
3, 64216, Note_off_c, 1, 76, 64
3, 64216, Note_off_c, 1, 66, 64
3, 64216, Note_off_c, 1, 62, 64
3, 64224, Note_on_c, 1, 68, 44
3, 64224, Note_on_c, 1, 64, 44
3, 64264, Note_off_c, 1, 68, 64
3, 64264, Note_off_c, 1, 64, 64
3, 64272, Note_on_c, 1, 69, 44
3, 64272, Note_on_c, 1, 66, 44
3, 64312, Note_off_c, 1, 69, 64
3, 64312, Note_off_c, 1, 66, 64
3, 64320, Note_on_c, 1, 68, 44
3, 64320, Note_on_c, 1, 64, 44
3, 64360, Note_off_c, 1, 68, 64
3, 64360, Note_off_c, 1, 64, 64
3, 64368, Note_on_c, 1, 69, 44
3, 64368, Note_on_c, 1, 66, 44
3, 64408, Note_off_c, 1, 69, 64
3, 64408, Note_off_c, 1, 66, 64
3, 64416, Note_on_c, 1, 71, 44
3, 64416, Note_on_c, 1, 68, 44
3, 64456, Note_off_c, 1, 71, 64
3, 64456, Note_off_c, 1, 68, 64
3, 64464, Note_on_c, 1, 73, 44
3, 64464, Note_on_c, 1, 69, 44
3, 64504, Note_off_c, 1, 73, 64
3, 64504, Note_off_c, 1, 69, 64
3, 64512, Note_on_c, 1, 74, 44
3, 64512, Note_on_c, 1, 71, 44
3, 64552, Note_off_c, 1, 74, 64
3, 64552, Note_off_c, 1, 71, 64
3, 64560, Note_on_c, 1, 76, 44
3, 64560, Note_on_c, 1, 73, 44
3, 64600, Note_off_c, 1, 76, 64
3, 64600, Note_off_c, 1, 73, 64
3, 64608, Note_on_c, 1, 74, 44
3, 64608, Note_on_c, 1, 71, 44
3, 64648, Note_off_c, 1, 74, 64
3, 64648, Note_off_c, 1, 71, 64
3, 64656, Note_on_c, 1, 70, 44
3, 64656, Note_on_c, 1, 73, 44
3, 64696, Note_off_c, 1, 70, 64
3, 64696, Note_off_c, 1, 73, 64
3, 64704, Note_on_c, 1, 74, 44
3, 64704, Note_on_c, 1, 71, 44
3, 64744, Note_off_c, 1, 74, 64
3, 64744, Note_off_c, 1, 71, 64
3, 64752, Note_on_c, 1, 73, 44
3, 64752, Note_on_c, 1, 69, 44
3, 64792, Note_off_c, 1, 73, 64
3, 64792, Note_off_c, 1, 69, 64
3, 64800, Note_on_c, 1, 71, 44
3, 64800, Note_on_c, 1, 68, 44
3, 64840, Note_off_c, 1, 71, 64
3, 64840, Note_off_c, 1, 68, 64
3, 64848, Note_on_c, 1, 69, 44
3, 64848, Note_on_c, 1, 66, 44
3, 64888, Note_off_c, 1, 69, 64
3, 64888, Note_off_c, 1, 66, 64
3, 64896, Note_on_c, 1, 71, 44
3, 64896, Note_on_c, 1, 68, 44
3, 64936, Note_off_c, 1, 71, 64
3, 64936, Note_off_c, 1, 68, 64
3, 64944, Note_on_c, 1, 69, 44
3, 64944, Note_on_c, 1, 66, 44
3, 64984, Note_off_c, 1, 69, 64
3, 64984, Note_off_c, 1, 66, 64
3, 64992, Note_on_c, 1, 68, 44
3, 64992, Note_on_c, 1, 64, 44
3, 65032, Note_off_c, 1, 68, 64
3, 65032, Note_off_c, 1, 64, 64
3, 65040, Note_on_c, 1, 66, 44
3, 65040, Note_on_c, 1, 62, 44
3, 65080, Note_off_c, 1, 66, 64
3, 65080, Note_off_c, 1, 62, 64
3, 65088, Note_on_c, 1, 68, 44
3, 65088, Note_on_c, 1, 64, 44
3, 65128, Note_off_c, 1, 68, 64
3, 65128, Note_off_c, 1, 64, 64
3, 65136, Note_on_c, 1, 66, 44
3, 65136, Note_on_c, 1, 62, 44
3, 65176, Note_off_c, 1, 66, 64
3, 65176, Note_off_c, 1, 62, 64
3, 65184, Note_on_c, 1, 64, 44
3, 65184, Note_on_c, 1, 61, 44
3, 65224, Note_off_c, 1, 64, 64
3, 65224, Note_off_c, 1, 61, 64
3, 65232, Note_on_c, 1, 62, 44
3, 65232, Note_on_c, 1, 59, 44
3, 65272, Note_off_c, 1, 62, 64
3, 65272, Note_off_c, 1, 59, 64
3, 65280, Note_on_c, 1, 61, 44
3, 65280, Note_on_c, 1, 57, 44
3, 65320, Note_off_c, 1, 61, 64
3, 65320, Note_off_c, 1, 57, 64
3, 65328, Note_on_c, 1, 62, 44
3, 65328, Note_on_c, 1, 59, 44
3, 65368, Note_off_c, 1, 62, 64
3, 65368, Note_off_c, 1, 59, 64
3, 65376, Note_on_c, 1, 64, 44
3, 65376, Note_on_c, 1, 61, 44
3, 65416, Note_off_c, 1, 64, 64
3, 65416, Note_off_c, 1, 61, 64
3, 65424, Note_on_c, 1, 66, 44
3, 65424, Note_on_c, 1, 62, 44
3, 65464, Note_off_c, 1, 66, 64
3, 65464, Note_off_c, 1, 62, 64
3, 65472, Note_on_c, 1, 64, 44
3, 65472, Note_on_c, 1, 61, 44
3, 65512, Note_off_c, 1, 64, 64
3, 65512, Note_off_c, 1, 61, 64
3, 65520, Note_on_c, 1, 66, 44
3, 65520, Note_on_c, 1, 62, 44
3, 65560, Note_off_c, 1, 66, 64
3, 65560, Note_off_c, 1, 62, 64
3, 65568, Note_on_c, 1, 64, 44
3, 65568, Note_on_c, 1, 61, 44
3, 65608, Note_off_c, 1, 64, 64
3, 65608, Note_off_c, 1, 61, 64
3, 65616, Note_on_c, 1, 66, 44
3, 65616, Note_on_c, 1, 62, 44
3, 65656, Note_off_c, 1, 66, 64
3, 65656, Note_off_c, 1, 62, 64
3, 65664, Note_on_c, 1, 64, 44
3, 65664, Note_on_c, 1, 61, 44
3, 65704, Note_off_c, 1, 64, 64
3, 65704, Note_off_c, 1, 61, 64
3, 65712, Note_on_c, 1, 66, 44
3, 65712, Note_on_c, 1, 62, 44
3, 65752, Note_off_c, 1, 66, 64
3, 65752, Note_off_c, 1, 62, 64
3, 65760, Note_on_c, 1, 68, 44
3, 65760, Note_on_c, 1, 64, 44
3, 65800, Note_off_c, 1, 68, 64
3, 65800, Note_off_c, 1, 64, 64
3, 65808, Note_on_c, 1, 69, 44
3, 65808, Note_on_c, 1, 66, 44
3, 65848, Note_off_c, 1, 69, 64
3, 65848, Note_off_c, 1, 66, 64
3, 65856, Note_on_c, 1, 68, 44
3, 65856, Note_on_c, 1, 64, 44
3, 65896, Note_off_c, 1, 68, 64
3, 65896, Note_off_c, 1, 64, 64
3, 65904, Note_on_c, 1, 69, 44
3, 65904, Note_on_c, 1, 66, 44
3, 65944, Note_off_c, 1, 69, 64
3, 65944, Note_off_c, 1, 66, 64
3, 65952, Note_on_c, 1, 71, 44
3, 65952, Note_on_c, 1, 68, 44
3, 65992, Note_off_c, 1, 71, 64
3, 65992, Note_off_c, 1, 68, 64
3, 66000, Note_on_c, 1, 73, 44
3, 66000, Note_on_c, 1, 69, 44
3, 66040, Note_off_c, 1, 73, 64
3, 66040, Note_off_c, 1, 69, 64
3, 66048, Note_on_c, 1, 74, 44
3, 66048, Note_on_c, 1, 71, 44
3, 66068, Note_off_c, 1, 74, 64
3, 66068, Note_off_c, 1, 71, 64
3, 66096, Note_on_c, 1, 73, 44
3, 66096, Note_on_c, 1, 69, 44
3, 66116, Note_off_c, 1, 73, 64
3, 66116, Note_off_c, 1, 69, 64
3, 66144, Note_on_c, 1, 71, 44
3, 66144, Note_on_c, 1, 68, 44
3, 66164, Note_off_c, 1, 71, 64
3, 66164, Note_off_c, 1, 68, 64
3, 66192, Note_on_c, 1, 73, 44
3, 66192, Note_on_c, 1, 69, 44
3, 66212, Note_off_c, 1, 73, 64
3, 66212, Note_off_c, 1, 69, 64
3, 66240, Note_on_c, 1, 74, 44
3, 66240, Note_on_c, 1, 71, 44
3, 66260, Note_off_c, 1, 74, 64
3, 66260, Note_off_c, 1, 71, 64
3, 66288, Note_on_c, 1, 73, 44
3, 66288, Note_on_c, 1, 69, 44
3, 66308, Note_off_c, 1, 73, 64
3, 66308, Note_off_c, 1, 69, 64
3, 66336, Note_on_c, 1, 71, 44
3, 66336, Note_on_c, 1, 68, 44
3, 66356, Note_off_c, 1, 71, 64
3, 66356, Note_off_c, 1, 68, 64
3, 66384, Note_on_c, 1, 69, 44
3, 66384, Note_on_c, 1, 66, 44
3, 66404, Note_off_c, 1, 69, 64
3, 66404, Note_off_c, 1, 66, 64
3, 66432, Note_on_c, 1, 68, 44
3, 66432, Note_on_c, 1, 64, 44
3, 66452, Note_off_c, 1, 68, 64
3, 66452, Note_off_c, 1, 64, 64
3, 66480, Note_on_c, 1, 69, 44
3, 66480, Note_on_c, 1, 66, 44
3, 66500, Note_off_c, 1, 69, 64
3, 66500, Note_off_c, 1, 66, 64
3, 66528, Note_on_c, 1, 71, 44
3, 66528, Note_on_c, 1, 68, 44
3, 66548, Note_off_c, 1, 71, 64
3, 66548, Note_off_c, 1, 68, 64
3, 66576, Note_on_c, 1, 69, 44
3, 66576, Note_on_c, 1, 66, 44
3, 66596, Note_off_c, 1, 69, 64
3, 66596, Note_off_c, 1, 66, 64
3, 66624, Note_on_c, 1, 68, 44
3, 66624, Note_on_c, 1, 64, 44
3, 66644, Note_off_c, 1, 68, 64
3, 66644, Note_off_c, 1, 64, 64
3, 66672, Note_on_c, 1, 66, 44
3, 66672, Note_on_c, 1, 62, 44
3, 66692, Note_off_c, 1, 66, 64
3, 66692, Note_off_c, 1, 62, 64
3, 66720, Note_on_c, 1, 61, 44
3, 66720, Note_on_c, 1, 64, 44
3, 66740, Note_off_c, 1, 61, 64
3, 66740, Note_off_c, 1, 64, 64
3, 66768, Note_on_c, 1, 62, 44
3, 66768, Note_on_c, 1, 59, 44
3, 66788, Note_off_c, 1, 62, 64
3, 66788, Note_off_c, 1, 59, 64
3, 66816, Note_on_c, 1, 60, 44
3, 66816, Note_on_c, 1, 60, 44
3, 66836, Note_off_c, 1, 60, 64
3, 66864, Note_on_c, 1, 69, 44
3, 66884, Note_off_c, 1, 69, 64
3, 66912, Note_on_c, 1, 68, 44
3, 66932, Note_off_c, 1, 68, 64
3, 66960, Note_on_c, 1, 69, 44
3, 66980, Note_off_c, 1, 69, 64
3, 67008, Note_on_c, 1, 71, 44
3, 67028, Note_off_c, 1, 71, 64
3, 67056, Note_on_c, 1, 69, 44
3, 67076, Note_off_c, 1, 69, 64
3, 67104, Note_on_c, 1, 68, 44
3, 67124, Note_off_c, 1, 68, 64
3, 67152, Note_on_c, 1, 69, 44
3, 67172, Note_off_c, 1, 69, 64
3, 67196, Note_off_c, 1, 60, 64
3, 67200, Note_on_c, 1, 60, 44
3, 67200, Note_on_c, 1, 71, 44
3, 67220, Note_off_c, 1, 71, 64
3, 67248, Note_on_c, 1, 69, 44
3, 67268, Note_off_c, 1, 69, 64
3, 67296, Note_on_c, 1, 68, 44
3, 67316, Note_off_c, 1, 68, 64
3, 67344, Note_on_c, 1, 69, 44
3, 67364, Note_off_c, 1, 69, 64
3, 67392, Note_on_c, 1, 68, 44
3, 67412, Note_off_c, 1, 68, 64
3, 67440, Note_on_c, 1, 69, 44
3, 67460, Note_off_c, 1, 69, 64
3, 67488, Note_on_c, 1, 71, 44
3, 67508, Note_off_c, 1, 71, 64
3, 67536, Note_on_c, 1, 73, 44
3, 67556, Note_off_c, 1, 73, 64
3, 67580, Note_off_c, 1, 60, 64
3, 67584, Note_on_c, 1, 73, 62
3, 67584, Note_on_c, 1, 61, 62
3, 67624, Note_off_c, 1, 73, 64
3, 67632, Note_on_c, 1, 69, 62
3, 67672, Note_off_c, 1, 69, 64
3, 67680, Note_on_c, 1, 64, 62
3, 67680, Note_on_c, 1, 61, 62
3, 67716, Note_off_c, 1, 61, 64
3, 67720, Note_off_c, 1, 64, 64
3, 67728, Note_on_c, 1, 62, 62
3, 67728, Note_on_c, 1, 59, 62
3, 67768, Note_off_c, 1, 61, 64
3, 67768, Note_off_c, 1, 62, 64
3, 67768, Note_off_c, 1, 59, 64
3, 67776, Note_on_c, 1, 61, 62
3, 67776, Note_on_c, 1, 57, 62
3, 67816, Note_off_c, 1, 61, 64
3, 67816, Note_off_c, 1, 57, 64
3, 67824, Note_on_c, 1, 62, 62
3, 67824, Note_on_c, 1, 59, 62
3, 67864, Note_off_c, 1, 62, 64
3, 67864, Note_off_c, 1, 59, 64
3, 67872, Note_on_c, 1, 64, 62
3, 67872, Note_on_c, 1, 61, 62
3, 67912, Note_off_c, 1, 64, 64
3, 67912, Note_off_c, 1, 61, 64
3, 67920, Note_on_c, 1, 61, 62
3, 67920, Note_on_c, 1, 57, 62
3, 67960, Note_off_c, 1, 61, 64
3, 67960, Note_off_c, 1, 57, 64
3, 67968, Note_on_c, 1, 62, 62
3, 67968, Note_on_c, 1, 59, 62
3, 68008, Note_off_c, 1, 62, 64
3, 68008, Note_off_c, 1, 59, 64
3, 68016, Note_on_c, 1, 64, 62
3, 68016, Note_on_c, 1, 61, 62
3, 68056, Note_off_c, 1, 64, 64
3, 68056, Note_off_c, 1, 61, 64
3, 68064, Note_on_c, 1, 62, 62
3, 68064, Note_on_c, 1, 59, 62
3, 68104, Note_off_c, 1, 62, 64
3, 68104, Note_off_c, 1, 59, 64
3, 68112, Note_on_c, 1, 61, 62
3, 68112, Note_on_c, 1, 57, 62
3, 68152, Note_off_c, 1, 61, 64
3, 68152, Note_off_c, 1, 57, 64
3, 68160, Note_on_c, 1, 59, 62
3, 68160, Note_on_c, 1, 56, 62
3, 68200, Note_off_c, 1, 59, 64
3, 68200, Note_off_c, 1, 56, 64
3, 68208, Note_on_c, 1, 61, 62
3, 68208, Note_on_c, 1, 57, 62
3, 68248, Note_off_c, 1, 61, 64
3, 68248, Note_off_c, 1, 57, 64
3, 68256, Note_on_c, 1, 62, 62
3, 68256, Note_on_c, 1, 59, 62
3, 68296, Note_off_c, 1, 62, 64
3, 68296, Note_off_c, 1, 59, 64
3, 68304, Note_on_c, 1, 59, 62
3, 68304, Note_on_c, 1, 56, 62
3, 68344, Note_off_c, 1, 59, 64
3, 68344, Note_off_c, 1, 56, 64
3, 68352, Note_on_c, 1, 61, 62
3, 68352, Note_on_c, 1, 57, 62
3, 68392, Note_off_c, 1, 61, 64
3, 68400, Note_on_c, 1, 69, 62
3, 68440, Note_off_c, 1, 69, 64
3, 68448, Note_on_c, 1, 68, 62
3, 68488, Note_off_c, 1, 68, 64
3, 68496, Note_on_c, 1, 69, 62
3, 68536, Note_off_c, 1, 57, 64
3, 68536, Note_off_c, 1, 69, 64
3, 68544, Note_on_c, 1, 66, 62
3, 68544, Note_on_c, 1, 57, 62
3, 68584, Note_off_c, 1, 66, 64
3, 68592, Note_on_c, 1, 69, 62
3, 68632, Note_off_c, 1, 69, 64
3, 68640, Note_on_c, 1, 68, 62
3, 68680, Note_off_c, 1, 68, 64
3, 68688, Note_on_c, 1, 69, 62
3, 68728, Note_off_c, 1, 57, 64
3, 68728, Note_off_c, 1, 69, 64
3, 68736, Note_on_c, 1, 57, 62
3, 68736, Note_on_c, 1, 64, 62
3, 68776, Note_off_c, 1, 64, 64
3, 68784, Note_on_c, 1, 69, 62
3, 68824, Note_off_c, 1, 69, 64
3, 68832, Note_on_c, 1, 68, 62
3, 68872, Note_off_c, 1, 68, 64
3, 68880, Note_on_c, 1, 69, 62
3, 68920, Note_off_c, 1, 57, 64
3, 68920, Note_off_c, 1, 69, 64
3, 68928, Note_on_c, 1, 57, 62
3, 68928, Note_on_c, 1, 62, 62
3, 68968, Note_off_c, 1, 62, 64
3, 68976, Note_on_c, 1, 69, 62
3, 69016, Note_off_c, 1, 69, 64
3, 69024, Note_on_c, 1, 68, 62
3, 69064, Note_off_c, 1, 68, 64
3, 69072, Note_on_c, 1, 69, 62
3, 69112, Note_off_c, 1, 57, 64
3, 69112, Note_off_c, 1, 69, 64
3, 69120, Note_on_c, 1, 69, 78
3, 69120, Note_on_c, 1, 64, 78
3, 69120, Note_on_c, 1, 61, 78
3, 69120, Note_on_c, 1, 57, 78
3, 69500, Note_off_c, 1, 69, 64
3, 69500, Note_off_c, 1, 64, 64
3, 69500, Note_off_c, 1, 61, 64
3, 69500, Note_off_c, 1, 57, 64
3, 70464, Control_c, 1, 1, 50
3, 70644, Program_c, 1, 48
3, 70656, Note_on_c, 1, 69, 78
3, 70656, Note_on_c, 1, 64, 78
3, 70656, Note_on_c, 1, 61, 78
3, 71036, Note_off_c, 1, 69, 64
3, 71036, Note_off_c, 1, 64, 64
3, 71036, Note_off_c, 1, 61, 64
3, 72000, Note_on_c, 1, 61, 71
3, 72096, Note_off_c, 1, 61, 64
3, 72192, Note_on_c, 1, 64, 70
3, 72288, Note_off_c, 1, 64, 64
3, 72576, Note_on_c, 1, 69, 69
3, 72672, Note_off_c, 1, 69, 64
3, 72960, Note_on_c, 1, 73, 69
3, 73056, Note_off_c, 1, 73, 64
3, 73344, Note_on_c, 1, 64, 70
3, 73440, Note_off_c, 1, 64, 64
3, 73728, Note_on_c, 1, 69, 69
3, 73824, Note_off_c, 1, 69, 64
3, 74112, Note_on_c, 1, 73, 69
3, 74208, Note_off_c, 1, 73, 64
3, 74496, Note_on_c, 1, 76, 70
3, 74592, Note_off_c, 1, 76, 64
3, 74880, Note_on_c, 1, 69, 69
3, 74976, Note_off_c, 1, 69, 64
3, 75264, Note_on_c, 1, 73, 69
3, 75360, Note_off_c, 1, 73, 64
3, 75648, Note_on_c, 1, 76, 70
3, 75744, Note_off_c, 1, 76, 64
3, 76032, Note_on_c, 1, 81, 72
3, 76128, Note_off_c, 1, 81, 64
3, 76416, Note_on_c, 1, 85, 74
3, 76512, Note_off_c, 1, 85, 64
3, 76800, Note_on_c, 1, 76, 82
3, 76800, Note_on_c, 1, 86, 85
3, 76800, Note_on_c, 1, 80, 83
3, 77084, Note_off_c, 1, 86, 64
3, 77088, Note_on_c, 1, 83, 91
3, 77120, Note_off_c, 1, 83, 64
3, 77136, Note_on_c, 1, 85, 92
3, 77168, Note_off_c, 1, 85, 64
3, 77184, Note_on_c, 1, 86, 85
3, 77564, Note_off_c, 1, 76, 64
3, 77564, Note_off_c, 1, 80, 64
3, 77564, Note_off_c, 1, 86, 64
3, 77936, Note_on_c, 1, 62, 70
3, 78032, Note_off_c, 1, 62, 64
3, 78336, Note_on_c, 1, 68, 69
3, 78432, Note_off_c, 1, 68, 64
3, 78720, Note_on_c, 1, 71, 69
3, 78816, Note_off_c, 1, 71, 64
3, 79104, Note_on_c, 1, 74, 69
3, 79200, Note_off_c, 1, 74, 64
3, 79488, Note_on_c, 1, 68, 69
3, 79584, Note_off_c, 1, 68, 64
3, 79872, Note_on_c, 1, 71, 69
3, 79968, Note_off_c, 1, 71, 64
3, 80256, Note_on_c, 1, 74, 69
3, 80352, Note_off_c, 1, 74, 64
3, 80640, Note_on_c, 1, 80, 71
3, 80736, Note_off_c, 1, 80, 64
3, 81024, Note_on_c, 1, 71, 69
3, 81120, Note_off_c, 1, 71, 64
3, 81408, Note_on_c, 1, 74, 69
3, 81504, Note_off_c, 1, 74, 64
3, 81792, Note_on_c, 1, 80, 71
3, 81888, Note_off_c, 1, 80, 64
3, 82176, Note_on_c, 1, 83, 73
3, 82272, Note_off_c, 1, 83, 64
3, 82560, Note_on_c, 1, 86, 75
3, 82656, Note_off_c, 1, 86, 64
3, 82944, Note_on_c, 1, 85, 86
3, 82944, Note_on_c, 1, 76, 82
3, 83228, Note_off_c, 1, 85, 64
3, 83232, Note_on_c, 1, 81, 91
3, 83264, Note_off_c, 1, 81, 64
3, 83280, Note_on_c, 1, 83, 92
3, 83312, Note_off_c, 1, 83, 64
3, 83328, Note_on_c, 1, 85, 88
3, 83708, Note_off_c, 1, 76, 64
3, 83708, Note_off_c, 1, 85, 64
3, 83712, Note_on_c, 1, 64, 64
3, 83712, Note_on_c, 1, 57, 64
3, 83808, Note_off_c, 1, 64, 64
3, 83808, Note_off_c, 1, 57, 64
3, 83904, Note_on_c, 1, 64, 64
3, 83904, Note_on_c, 1, 57, 64
3, 84000, Note_off_c, 1, 64, 64
3, 84000, Note_off_c, 1, 57, 64
3, 84096, Note_on_c, 1, 69, 64
3, 84096, Note_on_c, 1, 64, 64
3, 84192, Note_off_c, 1, 69, 64
3, 84192, Note_off_c, 1, 64, 64
3, 84288, Note_on_c, 1, 69, 64
3, 84288, Note_on_c, 1, 64, 64
3, 84384, Note_off_c, 1, 69, 64
3, 84384, Note_off_c, 1, 64, 64
3, 84480, Note_on_c, 1, 69, 82
3, 84480, Note_on_c, 1, 66, 82
3, 84672, Note_on_c, 1, 71, 64
3, 84860, Note_off_c, 1, 69, 64
3, 84860, Note_off_c, 1, 66, 64
3, 84860, Note_off_c, 1, 71, 64
3, 84864, Note_on_c, 1, 71, 64
3, 84864, Note_on_c, 1, 69, 64
3, 84864, Note_on_c, 1, 66, 64
3, 85052, Note_off_c, 1, 71, 64
3, 85052, Note_off_c, 1, 69, 64
3, 85052, Note_off_c, 1, 66, 64
3, 85056, Note_on_c, 1, 71, 64
3, 85056, Note_on_c, 1, 69, 64
3, 85056, Note_on_c, 1, 66, 64
3, 85244, Note_off_c, 1, 71, 64
3, 85244, Note_off_c, 1, 69, 64
3, 85244, Note_off_c, 1, 66, 64
3, 85248, Note_on_c, 1, 71, 64
3, 85248, Note_on_c, 1, 69, 64
3, 85248, Note_on_c, 1, 66, 64
3, 85436, Note_off_c, 1, 71, 64
3, 85436, Note_off_c, 1, 69, 64
3, 85436, Note_off_c, 1, 66, 64
3, 85440, Note_on_c, 1, 71, 64
3, 85440, Note_on_c, 1, 69, 64
3, 85440, Note_on_c, 1, 66, 64
3, 85628, Note_off_c, 1, 71, 64
3, 85628, Note_off_c, 1, 69, 64
3, 85628, Note_off_c, 1, 66, 64
3, 85632, Note_on_c, 1, 71, 64
3, 85632, Note_on_c, 1, 69, 64
3, 85632, Note_on_c, 1, 66, 64
3, 85820, Note_off_c, 1, 71, 64
3, 85820, Note_off_c, 1, 69, 64
3, 85820, Note_off_c, 1, 66, 64
3, 85824, Note_on_c, 1, 71, 64
3, 85824, Note_on_c, 1, 69, 64
3, 85824, Note_on_c, 1, 66, 64
3, 86012, Note_off_c, 1, 71, 64
3, 86012, Note_off_c, 1, 69, 64
3, 86012, Note_off_c, 1, 66, 64
3, 86016, Note_on_c, 1, 71, 82
3, 86016, Note_on_c, 1, 69, 82
3, 86016, Note_on_c, 1, 64, 82
3, 86204, Note_off_c, 1, 71, 64
3, 86204, Note_off_c, 1, 69, 64
3, 86204, Note_off_c, 1, 64, 64
3, 86208, Note_on_c, 1, 73, 64
3, 86208, Note_on_c, 1, 69, 64
3, 86208, Note_on_c, 1, 67, 64
3, 86396, Note_off_c, 1, 73, 64
3, 86396, Note_off_c, 1, 69, 64
3, 86396, Note_off_c, 1, 67, 64
3, 86400, Note_on_c, 1, 73, 64
3, 86400, Note_on_c, 1, 69, 64
3, 86400, Note_on_c, 1, 67, 64
3, 86588, Note_off_c, 1, 73, 64
3, 86588, Note_off_c, 1, 69, 64
3, 86588, Note_off_c, 1, 67, 64
3, 86592, Note_on_c, 1, 73, 64
3, 86592, Note_on_c, 1, 69, 64
3, 86592, Note_on_c, 1, 67, 64
3, 86780, Note_off_c, 1, 73, 64
3, 86780, Note_off_c, 1, 69, 64
3, 86780, Note_off_c, 1, 67, 64
3, 86784, Note_on_c, 1, 73, 64
3, 86784, Note_on_c, 1, 69, 64
3, 86784, Note_on_c, 1, 67, 64
3, 86972, Note_off_c, 1, 73, 64
3, 86972, Note_off_c, 1, 69, 64
3, 86972, Note_off_c, 1, 67, 64
3, 86976, Note_on_c, 1, 73, 64
3, 86976, Note_on_c, 1, 69, 64
3, 86976, Note_on_c, 1, 67, 64
3, 87164, Note_off_c, 1, 73, 64
3, 87164, Note_off_c, 1, 69, 64
3, 87164, Note_off_c, 1, 67, 64
3, 87168, Note_on_c, 1, 73, 64
3, 87168, Note_on_c, 1, 69, 64
3, 87168, Note_on_c, 1, 67, 64
3, 87356, Note_off_c, 1, 73, 64
3, 87356, Note_off_c, 1, 69, 64
3, 87356, Note_off_c, 1, 67, 64
3, 87360, Note_on_c, 1, 73, 64
3, 87360, Note_on_c, 1, 69, 64
3, 87360, Note_on_c, 1, 67, 64
3, 87548, Note_off_c, 1, 73, 64
3, 87548, Note_off_c, 1, 69, 64
3, 87548, Note_off_c, 1, 67, 64
3, 87552, Note_on_c, 1, 73, 82
3, 87552, Note_on_c, 1, 69, 82
3, 87552, Note_on_c, 1, 66, 82
3, 87740, Note_off_c, 1, 73, 64
3, 87740, Note_off_c, 1, 69, 64
3, 87740, Note_off_c, 1, 66, 64
3, 87744, Note_on_c, 1, 74, 64
3, 87744, Note_on_c, 1, 69, 64
3, 87744, Note_on_c, 1, 62, 64
3, 87932, Note_off_c, 1, 74, 64
3, 87932, Note_off_c, 1, 69, 64
3, 87932, Note_off_c, 1, 62, 64
3, 87936, Note_on_c, 1, 74, 64
3, 87936, Note_on_c, 1, 69, 64
3, 87936, Note_on_c, 1, 62, 64
3, 88124, Note_off_c, 1, 74, 64
3, 88124, Note_off_c, 1, 69, 64
3, 88124, Note_off_c, 1, 62, 64
3, 88128, Note_on_c, 1, 74, 64
3, 88128, Note_on_c, 1, 69, 64
3, 88128, Note_on_c, 1, 62, 64
3, 88316, Note_off_c, 1, 74, 64
3, 88316, Note_off_c, 1, 69, 64
3, 88316, Note_off_c, 1, 62, 64
3, 88320, Note_on_c, 1, 74, 64
3, 88320, Note_on_c, 1, 69, 64
3, 88320, Note_on_c, 1, 62, 64
3, 88508, Note_off_c, 1, 74, 64
3, 88508, Note_off_c, 1, 69, 64
3, 88508, Note_off_c, 1, 62, 64
3, 88512, Note_on_c, 1, 74, 66
3, 88512, Note_on_c, 1, 69, 66
3, 88512, Note_on_c, 1, 62, 66
3, 88700, Note_off_c, 1, 74, 64
3, 88700, Note_off_c, 1, 69, 64
3, 88700, Note_off_c, 1, 62, 64
3, 88704, Note_on_c, 1, 71, 68
3, 88704, Note_on_c, 1, 66, 68
3, 88704, Note_on_c, 1, 62, 68
3, 88892, Note_off_c, 1, 71, 64
3, 88892, Note_off_c, 1, 66, 64
3, 88892, Note_off_c, 1, 62, 64
3, 88896, Note_on_c, 1, 69, 70
3, 88896, Note_on_c, 1, 66, 70
3, 88896, Note_on_c, 1, 62, 70
3, 89084, Note_off_c, 1, 69, 64
3, 89084, Note_off_c, 1, 66, 64
3, 89084, Note_off_c, 1, 62, 64
3, 89088, Note_on_c, 1, 68, 73
3, 89088, Note_on_c, 1, 64, 73
3, 89088, Note_on_c, 1, 59, 73
3, 89276, Note_off_c, 1, 68, 64
3, 89276, Note_off_c, 1, 64, 64
3, 89276, Note_off_c, 1, 59, 64
3, 89472, Note_on_c, 1, 74, 73
3, 89472, Note_on_c, 1, 68, 73
3, 89568, Note_off_c, 1, 74, 64
3, 89568, Note_off_c, 1, 68, 64
3, 89856, Note_on_c, 1, 75, 73
3, 89856, Note_on_c, 1, 69, 73
3, 90044, Note_off_c, 1, 75, 64
3, 90044, Note_off_c, 1, 69, 64
3, 90240, Note_on_c, 1, 69, 73
3, 90240, Note_on_c, 1, 66, 73
3, 90336, Note_off_c, 1, 69, 64
3, 90336, Note_off_c, 1, 66, 64
3, 90624, Note_on_c, 1, 73, 73
3, 90624, Note_on_c, 1, 69, 73
3, 90624, Note_on_c, 1, 64, 73
3, 90812, Note_off_c, 1, 73, 64
3, 90812, Note_off_c, 1, 69, 64
3, 90812, Note_off_c, 1, 64, 64
3, 90816, Note_on_c, 1, 73, 73
3, 90816, Note_on_c, 1, 69, 73
3, 90816, Note_on_c, 1, 64, 73
3, 91004, Note_off_c, 1, 73, 64
3, 91004, Note_off_c, 1, 69, 64
3, 91004, Note_off_c, 1, 64, 64
3, 91008, Note_on_c, 1, 73, 73
3, 91008, Note_on_c, 1, 69, 73
3, 91008, Note_on_c, 1, 64, 73
3, 91196, Note_off_c, 1, 73, 64
3, 91196, Note_off_c, 1, 69, 64
3, 91196, Note_off_c, 1, 64, 64
3, 91200, Note_on_c, 1, 73, 73
3, 91200, Note_on_c, 1, 69, 73
3, 91200, Note_on_c, 1, 64, 73
3, 91388, Note_off_c, 1, 73, 64
3, 91388, Note_off_c, 1, 69, 64
3, 91388, Note_off_c, 1, 64, 64
3, 91392, Note_on_c, 1, 68, 73
3, 91392, Note_on_c, 1, 64, 73
3, 91392, Note_on_c, 1, 62, 73
3, 91580, Note_off_c, 1, 68, 64
3, 91580, Note_off_c, 1, 64, 64
3, 91580, Note_off_c, 1, 62, 64
3, 91584, Note_on_c, 1, 68, 73
3, 91584, Note_on_c, 1, 64, 73
3, 91584, Note_on_c, 1, 62, 73
3, 91772, Note_off_c, 1, 68, 64
3, 91772, Note_off_c, 1, 64, 64
3, 91772, Note_off_c, 1, 62, 64
3, 91776, Note_on_c, 1, 68, 73
3, 91776, Note_on_c, 1, 64, 73
3, 91776, Note_on_c, 1, 62, 73
3, 91964, Note_off_c, 1, 68, 64
3, 91964, Note_off_c, 1, 64, 64
3, 91964, Note_off_c, 1, 62, 64
3, 91968, Note_on_c, 1, 68, 73
3, 91968, Note_on_c, 1, 64, 73
3, 91968, Note_on_c, 1, 62, 73
3, 92156, Note_off_c, 1, 68, 64
3, 92156, Note_off_c, 1, 64, 64
3, 92156, Note_off_c, 1, 62, 64
3, 92160, Note_on_c, 1, 69, 73
3, 92160, Note_on_c, 1, 64, 73
3, 92160, Note_on_c, 1, 61, 73
3, 92540, Note_off_c, 1, 69, 64
3, 92540, Note_off_c, 1, 64, 64
3, 92540, Note_off_c, 1, 61, 64
3, 92544, Note_on_c, 1, 76, 82
3, 92640, Note_off_c, 1, 76, 64
3, 92736, Note_on_c, 1, 73, 82
3, 92832, Note_off_c, 1, 73, 64
3, 92928, Note_on_c, 1, 69, 82
3, 93024, Note_off_c, 1, 69, 64
3, 93120, Note_on_c, 1, 73, 82
3, 93216, Note_off_c, 1, 73, 64
3, 93312, Note_on_c, 1, 64, 82
3, 93408, Note_off_c, 1, 64, 64
3, 93504, Note_on_c, 1, 69, 82
3, 93600, Note_off_c, 1, 69, 64
3, 93696, Note_on_c, 1, 61, 82
3, 94076, Note_off_c, 1, 61, 64
3, 94080, Note_on_c, 1, 73, 82
3, 94176, Note_off_c, 1, 73, 64
3, 94272, Note_on_c, 1, 69, 82
3, 94368, Note_off_c, 1, 69, 64
3, 94464, Note_on_c, 1, 64, 82
3, 94560, Note_off_c, 1, 64, 64
3, 94656, Note_on_c, 1, 69, 82
3, 94752, Note_off_c, 1, 69, 64
3, 94848, Note_on_c, 1, 61, 82
3, 94944, Note_off_c, 1, 61, 64
3, 95040, Note_on_c, 1, 64, 82
3, 95136, Note_off_c, 1, 64, 64
3, 95232, Note_on_c, 1, 57, 82
3, 95616, Control_c, 1, 1, 50
3, 95804, Note_off_c, 1, 57, 64
3, 95808, Note_on_c, 1, 61, 82
3, 95900, Note_off_c, 1, 61, 64
3, 95904, Note_on_c, 1, 64, 82
3, 95996, Note_off_c, 1, 64, 64
3, 96000, Note_on_c, 1, 69, 82
3, 96380, Note_off_c, 1, 69, 64
3, 97152, Note_on_c, 1, 76, 64
3, 97152, Note_on_c, 1, 73, 64
3, 97532, Note_off_c, 1, 76, 64
3, 97532, Note_off_c, 1, 73, 64
3, 97536, Note_on_c, 1, 74, 64
3, 97536, Note_on_c, 1, 71, 64
3, 97916, Note_off_c, 1, 74, 64
3, 97916, Note_off_c, 1, 71, 64
3, 97920, Note_on_c, 1, 73, 64
3, 97920, Note_on_c, 1, 69, 64
3, 98300, Note_off_c, 1, 73, 64
3, 98300, Note_off_c, 1, 69, 64
3, 98304, Note_on_c, 1, 71, 64
3, 98304, Note_on_c, 1, 68, 64
3, 98684, Note_off_c, 1, 71, 64
3, 98684, Note_off_c, 1, 68, 64
3, 100224, Note_on_c, 1, 78, 64
3, 100224, Note_on_c, 1, 81, 64
3, 100604, Note_off_c, 1, 78, 64
3, 100604, Note_off_c, 1, 81, 64
3, 100608, Note_on_c, 1, 80, 64
3, 100608, Note_on_c, 1, 76, 64
3, 100988, Note_off_c, 1, 80, 64
3, 100988, Note_off_c, 1, 76, 64
3, 100992, Note_on_c, 1, 78, 64
3, 100992, Note_on_c, 1, 74, 64
3, 101372, Note_off_c, 1, 78, 64
3, 101372, Note_off_c, 1, 74, 64
3, 101376, Note_on_c, 1, 76, 64
3, 101376, Note_on_c, 1, 73, 64
3, 101756, Note_off_c, 1, 76, 64
3, 101756, Note_off_c, 1, 73, 64
3, 103296, Note_on_c, 1, 73, 64
3, 103296, Note_on_c, 1, 69, 64
3, 103676, Note_off_c, 1, 73, 64
3, 103680, Note_on_c, 1, 74, 64
3, 104060, Note_off_c, 1, 69, 64
3, 104060, Note_off_c, 1, 74, 64
3, 104064, Note_on_c, 1, 69, 64
3, 104444, Note_off_c, 1, 69, 64
3, 104448, Note_on_c, 1, 69, 64
3, 105020, Note_off_c, 1, 69, 64
3, 105024, Note_on_c, 1, 74, 64
3, 105116, Note_off_c, 1, 74, 64
3, 105120, Note_on_c, 1, 78, 64
3, 105212, Note_off_c, 1, 78, 64
3, 105216, Note_on_c, 1, 81, 64
3, 105596, Note_off_c, 1, 81, 64
3, 105792, Note_on_c, 1, 61, 64
3, 105884, Note_off_c, 1, 61, 64
3, 105888, Note_on_c, 1, 64, 64
3, 105980, Note_off_c, 1, 64, 64
3, 105984, Note_on_c, 1, 69, 64
3, 106556, Note_off_c, 1, 69, 64
3, 106560, Note_on_c, 1, 74, 64
3, 106652, Note_off_c, 1, 74, 64
3, 106656, Note_on_c, 1, 78, 64
3, 106748, Note_off_c, 1, 78, 64
3, 106752, Note_on_c, 1, 81, 64
3, 107132, Note_off_c, 1, 81, 64
3, 107328, Note_on_c, 1, 61, 64
3, 107420, Note_off_c, 1, 61, 64
3, 107424, Note_on_c, 1, 64, 64
3, 107516, Note_off_c, 1, 64, 64
3, 107520, Note_on_c, 1, 69, 64
3, 107520, Note_on_c, 1, 66, 64
3, 107520, Note_on_c, 1, 59, 64
3, 107900, Note_off_c, 1, 69, 64
3, 107900, Note_off_c, 1, 66, 64
3, 107900, Note_off_c, 1, 59, 64
3, 108288, Note_on_c, 1, 69, 64
3, 108288, Note_on_c, 1, 66, 64
3, 108288, Note_on_c, 1, 59, 64
3, 108668, Note_off_c, 1, 69, 64
3, 108668, Note_off_c, 1, 66, 64
3, 108668, Note_off_c, 1, 59, 64
3, 109056, Note_on_c, 1, 69, 64
3, 109056, Note_on_c, 1, 66, 64
3, 109056, Note_on_c, 1, 59, 64
3, 109244, Note_off_c, 1, 69, 64
3, 109244, Note_off_c, 1, 66, 64
3, 109244, Note_off_c, 1, 59, 64
3, 109248, Note_on_c, 1, 69, 64
3, 109248, Note_on_c, 1, 66, 64
3, 109248, Note_on_c, 1, 59, 64
3, 109436, Note_off_c, 1, 69, 64
3, 109436, Note_off_c, 1, 66, 64
3, 109436, Note_off_c, 1, 59, 64
3, 109440, Note_on_c, 1, 69, 64
3, 109440, Note_on_c, 1, 66, 64
3, 109440, Note_on_c, 1, 59, 64
3, 109628, Note_off_c, 1, 69, 64
3, 109628, Note_off_c, 1, 66, 64
3, 109628, Note_off_c, 1, 59, 64
3, 109632, Note_on_c, 1, 69, 64
3, 109632, Note_on_c, 1, 66, 64
3, 109632, Note_on_c, 1, 59, 64
3, 109820, Note_off_c, 1, 69, 64
3, 109820, Note_off_c, 1, 66, 64
3, 109820, Note_off_c, 1, 59, 64
3, 109824, Note_on_c, 1, 69, 64
3, 109824, Note_on_c, 1, 66, 64
3, 109824, Note_on_c, 1, 59, 64
3, 110012, Note_off_c, 1, 69, 64
3, 110012, Note_off_c, 1, 66, 64
3, 110012, Note_off_c, 1, 59, 64
3, 110016, Note_on_c, 1, 69, 64
3, 110016, Note_on_c, 1, 66, 64
3, 110016, Note_on_c, 1, 59, 64
3, 110204, Note_off_c, 1, 69, 64
3, 110204, Note_off_c, 1, 66, 64
3, 110204, Note_off_c, 1, 59, 64
3, 110208, Note_on_c, 1, 66, 64
3, 110208, Note_on_c, 1, 59, 64
3, 110208, Note_on_c, 1, 57, 64
3, 110396, Note_off_c, 1, 66, 64
3, 110396, Note_off_c, 1, 59, 64
3, 110396, Note_off_c, 1, 57, 64
3, 110400, Note_on_c, 1, 66, 64
3, 110400, Note_on_c, 1, 59, 64
3, 110400, Note_on_c, 1, 57, 64
3, 110588, Note_off_c, 1, 66, 64
3, 110588, Note_off_c, 1, 59, 64
3, 110588, Note_off_c, 1, 57, 64
3, 110592, Note_on_c, 1, 64, 64
3, 110592, Note_on_c, 1, 59, 64
3, 110592, Note_on_c, 1, 56, 64
3, 110972, Note_off_c, 1, 64, 64
3, 110972, Note_off_c, 1, 59, 64
3, 110972, Note_off_c, 1, 56, 64
3, 110976, Note_on_c, 1, 76, 82
3, 111068, Note_off_c, 1, 76, 64
3, 111072, Note_on_c, 1, 75, 82
3, 111164, Note_off_c, 1, 75, 64
3, 111168, Note_on_c, 1, 76, 82
3, 111260, Note_off_c, 1, 76, 64
3, 111264, Note_on_c, 1, 75, 82
3, 111356, Note_off_c, 1, 75, 64
3, 111360, Note_on_c, 1, 76, 82
3, 111456, Note_off_c, 1, 76, 64
3, 111552, Note_on_c, 1, 71, 82
3, 111648, Note_off_c, 1, 71, 64
3, 111744, Note_on_c, 1, 74, 82
3, 111836, Note_off_c, 1, 74, 64
3, 111840, Note_on_c, 1, 73, 82
3, 111932, Note_off_c, 1, 73, 64
3, 111936, Note_on_c, 1, 71, 82
3, 112028, Note_off_c, 1, 71, 64
3, 112032, Note_on_c, 1, 69, 82
3, 112124, Note_off_c, 1, 69, 64
3, 112128, Note_on_c, 1, 68, 82
3, 112224, Note_off_c, 1, 68, 64
3, 112320, Note_on_c, 1, 64, 82
3, 112416, Note_off_c, 1, 64, 64
3, 112512, Note_on_c, 1, 76, 82
3, 112604, Note_off_c, 1, 76, 64
3, 112608, Note_on_c, 1, 75, 82
3, 112700, Note_off_c, 1, 75, 64
3, 112704, Note_on_c, 1, 76, 82
3, 112796, Note_off_c, 1, 76, 64
3, 112800, Note_on_c, 1, 75, 82
3, 112892, Note_off_c, 1, 75, 64
3, 112896, Note_on_c, 1, 76, 82
3, 112992, Note_off_c, 1, 76, 64
3, 113088, Note_on_c, 1, 71, 82
3, 113184, Note_off_c, 1, 71, 64
3, 113280, Note_on_c, 1, 74, 82
3, 113372, Note_off_c, 1, 74, 64
3, 113376, Note_on_c, 1, 73, 82
3, 113468, Note_off_c, 1, 73, 64
3, 113472, Note_on_c, 1, 71, 82
3, 113564, Note_off_c, 1, 71, 64
3, 113568, Note_on_c, 1, 69, 82
3, 113660, Note_off_c, 1, 69, 64
3, 113664, Note_on_c, 1, 76, 82
3, 113664, Note_on_c, 1, 71, 82
3, 113664, Note_on_c, 1, 68, 82
3, 113664, Control_c, 1, 1, 50
3, 114044, Note_off_c, 1, 76, 64
3, 114044, Note_off_c, 1, 71, 64
3, 114044, Note_off_c, 1, 68, 64
3, 114624, Note_on_c, 1, 71, 64
3, 114624, Note_on_c, 1, 69, 64
3, 114624, Note_on_c, 1, 75, 64
3, 114720, Note_off_c, 1, 71, 64
3, 114720, Note_off_c, 1, 69, 64
3, 114720, Note_off_c, 1, 75, 64
3, 114816, Note_on_c, 1, 76, 64
3, 114816, Note_on_c, 1, 71, 64
3, 114816, Note_on_c, 1, 68, 64
3, 114912, Note_off_c, 1, 76, 64
3, 114912, Note_off_c, 1, 71, 64
3, 114912, Note_off_c, 1, 68, 64
3, 115008, Note_on_c, 1, 78, 64
3, 115008, Note_on_c, 1, 71, 64
3, 115008, Note_on_c, 1, 66, 64
3, 115104, Note_off_c, 1, 78, 64
3, 115104, Note_off_c, 1, 71, 64
3, 115104, Note_off_c, 1, 66, 64
3, 115200, Note_on_c, 1, 80, 64
3, 115200, Note_on_c, 1, 71, 64
3, 115200, Note_on_c, 1, 64, 64
3, 115580, Note_off_c, 1, 80, 64
3, 115580, Note_off_c, 1, 71, 64
3, 115580, Note_off_c, 1, 64, 64
3, 116160, Note_on_c, 1, 71, 64
3, 116160, Note_on_c, 1, 68, 64
3, 116160, Note_on_c, 1, 64, 64
3, 116256, Note_off_c, 1, 71, 64
3, 116256, Note_off_c, 1, 68, 64
3, 116256, Note_off_c, 1, 64, 64
3, 116352, Note_on_c, 1, 71, 64
3, 116352, Note_on_c, 1, 68, 64
3, 116352, Note_on_c, 1, 64, 64
3, 116448, Note_off_c, 1, 71, 64
3, 116448, Note_off_c, 1, 68, 64
3, 116448, Note_off_c, 1, 64, 64
3, 116544, Note_on_c, 1, 71, 64
3, 116544, Note_on_c, 1, 68, 64
3, 116544, Note_on_c, 1, 64, 64
3, 116640, Note_off_c, 1, 71, 64
3, 116640, Note_off_c, 1, 68, 64
3, 116640, Note_off_c, 1, 64, 64
3, 116736, Note_on_c, 1, 71, 64
3, 116736, Note_on_c, 1, 66, 64
3, 116736, Note_on_c, 1, 63, 64
3, 116924, Note_off_c, 1, 66, 64
3, 116928, Note_on_c, 1, 69, 64
3, 117116, Note_off_c, 1, 71, 64
3, 117116, Note_off_c, 1, 63, 64
3, 117116, Note_off_c, 1, 69, 64
3, 117696, Note_on_c, 1, 76, 64
3, 117696, Note_on_c, 1, 71, 64
3, 117696, Note_on_c, 1, 68, 64
3, 117884, Note_off_c, 1, 76, 64
3, 117884, Note_off_c, 1, 71, 64
3, 117884, Note_off_c, 1, 68, 64
3, 117888, Note_on_c, 1, 75, 64
3, 117888, Note_on_c, 1, 71, 64
3, 117888, Note_on_c, 1, 66, 64
3, 117984, Note_off_c, 1, 75, 64
3, 117984, Note_off_c, 1, 71, 64
3, 117984, Note_off_c, 1, 66, 64
3, 118080, Note_on_c, 1, 76, 64
3, 118080, Note_on_c, 1, 71, 64
3, 118080, Note_on_c, 1, 64, 64
3, 118176, Note_off_c, 1, 76, 64
3, 118176, Note_off_c, 1, 71, 64
3, 118176, Note_off_c, 1, 64, 64
3, 118272, Note_on_c, 1, 78, 64
3, 118272, Note_on_c, 1, 71, 64
3, 118272, Note_on_c, 1, 63, 64
3, 118652, Note_off_c, 1, 78, 64
3, 118652, Note_off_c, 1, 71, 64
3, 118652, Note_off_c, 1, 63, 64
3, 119232, Note_on_c, 1, 69, 64
3, 119232, Note_on_c, 1, 66, 64
3, 119328, Note_off_c, 1, 69, 64
3, 119328, Note_off_c, 1, 66, 64
3, 119424, Note_on_c, 1, 69, 64
3, 119424, Note_on_c, 1, 66, 64
3, 119520, Note_off_c, 1, 69, 64
3, 119520, Note_off_c, 1, 66, 64
3, 119616, Note_on_c, 1, 69, 64
3, 119616, Note_on_c, 1, 66, 64
3, 119712, Note_off_c, 1, 69, 64
3, 119712, Note_off_c, 1, 66, 64
3, 119808, Note_on_c, 1, 68, 64
3, 119808, Note_on_c, 1, 64, 64
3, 119996, Note_off_c, 1, 68, 64
3, 119996, Note_off_c, 1, 64, 64
3, 120000, Note_on_c, 1, 71, 64
3, 120188, Note_off_c, 1, 71, 64
3, 120192, Note_on_c, 1, 71, 64
3, 120288, Note_off_c, 1, 71, 64
3, 120384, Note_on_c, 1, 71, 64
3, 120480, Note_off_c, 1, 71, 64
3, 120576, Note_on_c, 1, 73, 64
3, 120576, Note_on_c, 1, 64, 64
3, 120668, Note_off_c, 1, 73, 64
3, 120672, Note_on_c, 1, 71, 64
3, 120764, Note_off_c, 1, 71, 64
3, 120768, Note_on_c, 1, 69, 64
3, 120860, Note_off_c, 1, 69, 64
3, 120864, Note_on_c, 1, 68, 64
3, 120956, Note_off_c, 1, 64, 64
3, 120956, Note_off_c, 1, 68, 64
3, 120960, Note_on_c, 1, 66, 64
3, 121056, Note_off_c, 1, 66, 64
3, 121152, Note_on_c, 1, 64, 64
3, 121248, Note_off_c, 1, 64, 64
3, 121344, Note_on_c, 1, 76, 64
3, 121344, Note_on_c, 1, 64, 64
3, 121532, Note_off_c, 1, 76, 64
3, 121532, Note_off_c, 1, 64, 64
3, 121536, Note_on_c, 1, 73, 64
3, 121724, Note_off_c, 1, 73, 64
3, 121728, Note_on_c, 1, 73, 64
3, 121824, Note_off_c, 1, 73, 64
3, 121920, Note_on_c, 1, 73, 64
3, 122016, Note_off_c, 1, 73, 64
3, 122112, Note_on_c, 1, 75, 64
3, 122112, Note_on_c, 1, 69, 64
3, 122204, Note_off_c, 1, 75, 64
3, 122208, Note_on_c, 1, 73, 64
3, 122300, Note_off_c, 1, 69, 64
3, 122300, Note_off_c, 1, 73, 64
3, 122304, Note_on_c, 1, 71, 64
3, 122396, Note_off_c, 1, 71, 64
3, 122400, Note_on_c, 1, 69, 64
3, 122492, Note_off_c, 1, 69, 64
3, 122496, Note_on_c, 1, 68, 64
3, 122592, Note_off_c, 1, 68, 64
3, 122688, Note_on_c, 1, 64, 64
3, 122784, Note_off_c, 1, 64, 64
3, 122880, Note_on_c, 1, 64, 64
3, 122880, Note_on_c, 1, 61, 64
3, 123068, Note_off_c, 1, 64, 64
3, 123068, Note_off_c, 1, 61, 64
3, 123072, Note_on_c, 1, 63, 64
3, 123072, Note_on_c, 1, 59, 64
3, 123260, Note_off_c, 1, 63, 64
3, 123260, Note_off_c, 1, 59, 64
3, 123264, Note_on_c, 1, 68, 64
3, 123264, Note_on_c, 1, 64, 64
3, 123452, Note_off_c, 1, 68, 64
3, 123452, Note_off_c, 1, 64, 64
3, 123456, Note_on_c, 1, 66, 64
3, 123456, Note_on_c, 1, 63, 64
3, 123644, Note_off_c, 1, 66, 64
3, 123644, Note_off_c, 1, 63, 64
3, 123648, Note_on_c, 1, 66, 64
3, 123648, Note_on_c, 1, 63, 64
3, 124028, Note_off_c, 1, 66, 64
3, 124028, Note_off_c, 1, 63, 64
3, 124404, Program_c, 1, 48
3, 124416, Note_on_c, 1, 68, 64
3, 124604, Note_off_c, 1, 68, 64
3, 124608, Note_on_c, 1, 71, 64
3, 124796, Note_off_c, 1, 71, 64
3, 124800, Note_on_c, 1, 68, 64
3, 124988, Note_off_c, 1, 68, 64
3, 124992, Note_on_c, 1, 71, 64
3, 125180, Note_off_c, 1, 71, 64
3, 125184, Note_on_c, 1, 68, 64
3, 125372, Note_off_c, 1, 68, 64
3, 125376, Note_on_c, 1, 71, 64
3, 125564, Note_off_c, 1, 71, 64
3, 125568, Note_on_c, 1, 68, 64
3, 125756, Note_off_c, 1, 68, 64
3, 125760, Note_on_c, 1, 71, 64
3, 125948, Note_off_c, 1, 71, 64
3, 125952, Note_on_c, 1, 69, 64
3, 126140, Note_off_c, 1, 69, 64
3, 126144, Note_on_c, 1, 71, 64
3, 126332, Note_off_c, 1, 71, 64
3, 126336, Note_on_c, 1, 69, 64
3, 126524, Note_off_c, 1, 69, 64
3, 126528, Note_on_c, 1, 71, 64
3, 126716, Note_off_c, 1, 71, 64
3, 126720, Note_on_c, 1, 69, 64
3, 126908, Note_off_c, 1, 69, 64
3, 126912, Note_on_c, 1, 71, 64
3, 127100, Note_off_c, 1, 71, 64
3, 127104, Note_on_c, 1, 69, 64
3, 127292, Note_off_c, 1, 69, 64
3, 127296, Note_on_c, 1, 71, 64
3, 127484, Note_off_c, 1, 71, 64
3, 127488, Note_on_c, 1, 68, 64
3, 127676, Note_off_c, 1, 68, 64
3, 127680, Note_on_c, 1, 71, 64
3, 127868, Note_off_c, 1, 71, 64
3, 127872, Note_on_c, 1, 68, 64
3, 128060, Note_off_c, 1, 68, 64
3, 128064, Note_on_c, 1, 71, 64
3, 128252, Note_off_c, 1, 71, 64
3, 128256, Note_on_c, 1, 68, 64
3, 128444, Note_off_c, 1, 68, 64
3, 128448, Note_on_c, 1, 71, 64
3, 128636, Note_off_c, 1, 71, 64
3, 128640, Note_on_c, 1, 68, 64
3, 128828, Note_off_c, 1, 68, 64
3, 128832, Note_on_c, 1, 71, 64
3, 129020, Note_off_c, 1, 71, 64
3, 129024, Note_on_c, 1, 66, 64
3, 129212, Note_off_c, 1, 66, 64
3, 129216, Note_on_c, 1, 71, 64
3, 129404, Note_off_c, 1, 71, 64
3, 129408, Note_on_c, 1, 66, 64
3, 129596, Note_off_c, 1, 66, 64
3, 129600, Note_on_c, 1, 71, 64
3, 129788, Note_off_c, 1, 71, 64
3, 129792, Note_on_c, 1, 66, 64
3, 129980, Note_off_c, 1, 66, 64
3, 129984, Note_on_c, 1, 71, 64
3, 130172, Note_off_c, 1, 71, 64
3, 130176, Note_on_c, 1, 66, 64
3, 130364, Note_off_c, 1, 66, 64
3, 130368, Note_on_c, 1, 71, 64
3, 130556, Note_off_c, 1, 71, 64
3, 130752, Note_on_c, 1, 83, 64
3, 130752, Note_on_c, 1, 71, 64
3, 131132, Note_off_c, 1, 83, 64
3, 131136, Note_on_c, 1, 80, 64
3, 131516, Note_off_c, 1, 80, 64
3, 131520, Note_on_c, 1, 76, 64
3, 131900, Note_off_c, 1, 71, 64
3, 131900, Note_off_c, 1, 76, 64
3, 131904, Note_on_c, 1, 71, 64
3, 132092, Note_off_c, 1, 71, 64
3, 132288, Note_on_c, 1, 71, 64
3, 132288, Note_on_c, 1, 83, 64
3, 132668, Note_off_c, 1, 83, 64
3, 132672, Note_on_c, 1, 78, 64
3, 133052, Note_off_c, 1, 78, 64
3, 133056, Note_on_c, 1, 75, 64
3, 133436, Note_off_c, 1, 71, 64
3, 133436, Note_off_c, 1, 75, 64
3, 133440, Note_on_c, 1, 69, 64
3, 133628, Note_off_c, 1, 69, 64
3, 133824, Note_on_c, 1, 80, 64
3, 133824, Note_on_c, 1, 68, 64
3, 134204, Note_off_c, 1, 80, 64
3, 134208, Note_on_c, 1, 76, 64
3, 134588, Note_off_c, 1, 76, 64
3, 134592, Note_on_c, 1, 71, 64
3, 134972, Note_off_c, 1, 68, 64
3, 134972, Note_off_c, 1, 71, 64
3, 134976, Note_on_c, 1, 68, 64
3, 135164, Note_off_c, 1, 68, 64
3, 135360, Note_on_c, 1, 78, 64
3, 135360, Note_on_c, 1, 66, 64
3, 135740, Note_off_c, 1, 78, 64
3, 135744, Note_on_c, 1, 75, 64
3, 136124, Note_off_c, 1, 75, 64
3, 136128, Note_on_c, 1, 71, 64
3, 136508, Note_off_c, 1, 66, 64
3, 136508, Note_off_c, 1, 71, 64
3, 136512, Note_on_c, 1, 66, 64
3, 136700, Note_off_c, 1, 66, 64
3, 136704, Note_on_c, 1, 64, 82
3, 136892, Note_off_c, 1, 64, 64
3, 136896, Note_on_c, 1, 69, 82
3, 137084, Note_off_c, 1, 69, 64
3, 137088, Note_on_c, 1, 73, 82
3, 137276, Note_off_c, 1, 73, 64
3, 137280, Note_on_c, 1, 76, 82
3, 137468, Note_off_c, 1, 76, 64
3, 137472, Note_on_c, 1, 76, 64
3, 137472, Note_on_c, 1, 69, 64
3, 137660, Note_off_c, 1, 76, 64
3, 137660, Note_off_c, 1, 69, 64
3, 137664, Note_on_c, 1, 73, 64
3, 138044, Note_off_c, 1, 73, 64
3, 138048, Note_on_c, 1, 76, 64
3, 138236, Note_off_c, 1, 76, 64
3, 138240, Note_on_c, 1, 64, 82
3, 138428, Note_off_c, 1, 64, 64
3, 138432, Note_on_c, 1, 68, 82
3, 138620, Note_off_c, 1, 68, 64
3, 138624, Note_on_c, 1, 71, 82
3, 138812, Note_off_c, 1, 71, 64
3, 138816, Note_on_c, 1, 76, 82
3, 139004, Note_off_c, 1, 76, 64
3, 139008, Note_on_c, 1, 76, 64
3, 139008, Note_on_c, 1, 68, 64
3, 139196, Note_off_c, 1, 76, 64
3, 139196, Note_off_c, 1, 68, 64
3, 139200, Note_on_c, 1, 71, 64
3, 139580, Note_off_c, 1, 71, 64
3, 139584, Note_on_c, 1, 76, 64
3, 139772, Note_off_c, 1, 76, 64
3, 139776, Note_on_c, 1, 76, 73
3, 139776, Note_on_c, 1, 73, 73
3, 139776, Note_on_c, 1, 66, 73
3, 139964, Note_off_c, 1, 76, 64
3, 139964, Note_off_c, 1, 73, 64
3, 139964, Note_off_c, 1, 66, 64
3, 139968, Note_on_c, 1, 73, 73
3, 139968, Note_on_c, 1, 76, 73
3, 139968, Note_on_c, 1, 66, 73
3, 140156, Note_off_c, 1, 73, 64
3, 140160, Note_on_c, 1, 71, 73
3, 140348, Note_off_c, 1, 76, 64
3, 140348, Note_off_c, 1, 66, 64
3, 140348, Note_off_c, 1, 71, 64
3, 140352, Note_on_c, 1, 71, 73
3, 140352, Note_on_c, 1, 66, 73
3, 140352, Note_on_c, 1, 76, 73
3, 140540, Note_off_c, 1, 71, 64
3, 140544, Note_on_c, 1, 70, 73
3, 140732, Note_off_c, 1, 66, 64
3, 140732, Note_off_c, 1, 76, 64
3, 140732, Note_off_c, 1, 70, 64
3, 140736, Note_on_c, 1, 70, 73
3, 140736, Note_on_c, 1, 66, 73
3, 140736, Note_on_c, 1, 76, 73
3, 140924, Note_off_c, 1, 70, 64
3, 140928, Note_on_c, 1, 73, 73
3, 141116, Note_off_c, 1, 66, 64
3, 141116, Note_off_c, 1, 76, 64
3, 141116, Note_off_c, 1, 73, 64
3, 141120, Note_on_c, 1, 73, 73
3, 141120, Note_on_c, 1, 66, 73
3, 141120, Note_on_c, 1, 76, 73
3, 141308, Note_off_c, 1, 73, 64
3, 141308, Note_off_c, 1, 66, 64
3, 141308, Note_off_c, 1, 76, 64
3, 141312, Note_on_c, 1, 75, 75
3, 141312, Note_on_c, 1, 71, 75
3, 141312, Note_on_c, 1, 66, 75
3, 141500, Note_off_c, 1, 71, 64
3, 141500, Note_off_c, 1, 66, 64
3, 141692, Note_off_c, 1, 75, 64
3, 141696, Note_on_c, 1, 78, 79
3, 141884, Note_off_c, 1, 78, 64
3, 141888, Note_on_c, 1, 81, 82
3, 142076, Note_off_c, 1, 81, 64
3, 142080, Note_on_c, 1, 81, 78
3, 142080, Note_on_c, 1, 71, 78
3, 142268, Note_off_c, 1, 81, 64
3, 142268, Note_off_c, 1, 71, 64
3, 142272, Note_on_c, 1, 80, 73
3, 142460, Note_off_c, 1, 80, 64
3, 142464, Note_on_c, 1, 78, 69
3, 142560, Note_off_c, 1, 78, 64
3, 142656, Note_on_c, 1, 76, 65
3, 142752, Note_off_c, 1, 76, 64
3, 142848, Note_on_c, 1, 69, 64
3, 142944, Note_off_c, 1, 69, 64
3, 143232, Note_on_c, 1, 68, 64
3, 143328, Note_off_c, 1, 68, 64
3, 143616, Note_on_c, 1, 69, 64
3, 143712, Note_off_c, 1, 69, 64
3, 144000, Note_on_c, 1, 71, 64
3, 144096, Note_off_c, 1, 71, 64
3, 144384, Note_on_c, 1, 68, 64
3, 144384, Note_on_c, 1, 64, 64
3, 144480, Note_off_c, 1, 68, 64
3, 144480, Note_off_c, 1, 64, 64
3, 144576, Note_on_c, 1, 71, 64
3, 144576, Note_on_c, 1, 68, 64
3, 144672, Note_off_c, 1, 71, 64
3, 144672, Note_off_c, 1, 68, 64
3, 144768, Note_on_c, 1, 71, 64
3, 144768, Note_on_c, 1, 68, 64
3, 144864, Note_off_c, 1, 71, 64
3, 144864, Note_off_c, 1, 68, 64
3, 144960, Note_on_c, 1, 71, 64
3, 144960, Note_on_c, 1, 68, 64
3, 145056, Note_off_c, 1, 71, 64
3, 145056, Note_off_c, 1, 68, 64
3, 145152, Note_on_c, 1, 71, 64
3, 145152, Note_on_c, 1, 68, 64
3, 145340, Note_off_c, 1, 71, 64
3, 145340, Note_off_c, 1, 68, 64
3, 145344, Note_on_c, 1, 68, 64
3, 145344, Note_on_c, 1, 64, 64
3, 145532, Note_off_c, 1, 68, 64
3, 145532, Note_off_c, 1, 64, 64
3, 145536, Note_on_c, 1, 68, 64
3, 145536, Note_on_c, 1, 64, 64
3, 145724, Note_off_c, 1, 68, 64
3, 145724, Note_off_c, 1, 64, 64
3, 145728, Note_on_c, 1, 64, 64
3, 145728, Note_on_c, 1, 59, 64
3, 145916, Note_off_c, 1, 64, 64
3, 145916, Note_off_c, 1, 59, 64
3, 145920, Note_on_c, 1, 64, 64
3, 145920, Note_on_c, 1, 61, 64
3, 145920, Note_on_c, 1, 54, 64
3, 146108, Note_off_c, 1, 64, 64
3, 146108, Note_off_c, 1, 61, 64
3, 146108, Note_off_c, 1, 54, 64
3, 146112, Note_on_c, 1, 61, 64
3, 146112, Note_on_c, 1, 54, 64
3, 146112, Note_on_c, 1, 64, 64
3, 146300, Note_off_c, 1, 61, 64
3, 146304, Note_on_c, 1, 59, 64
3, 146492, Note_off_c, 1, 54, 64
3, 146492, Note_off_c, 1, 64, 64
3, 146492, Note_off_c, 1, 59, 64
3, 146496, Note_on_c, 1, 59, 64
3, 146496, Note_on_c, 1, 54, 64
3, 146496, Note_on_c, 1, 64, 64
3, 146684, Note_off_c, 1, 59, 64
3, 146688, Note_on_c, 1, 58, 64
3, 146876, Note_off_c, 1, 54, 64
3, 146876, Note_off_c, 1, 64, 64
3, 146876, Note_off_c, 1, 58, 64
3, 146880, Note_on_c, 1, 58, 64
3, 146880, Note_on_c, 1, 64, 64
3, 146880, Note_on_c, 1, 54, 64
3, 147068, Note_off_c, 1, 58, 64
3, 147072, Note_on_c, 1, 61, 64
3, 147260, Note_off_c, 1, 64, 64
3, 147260, Note_off_c, 1, 54, 64
3, 147260, Note_off_c, 1, 61, 64
3, 147264, Note_on_c, 1, 61, 64
3, 147264, Note_on_c, 1, 64, 64
3, 147264, Note_on_c, 1, 54, 64
3, 147452, Note_off_c, 1, 61, 64
3, 147452, Note_off_c, 1, 64, 64
3, 147452, Note_off_c, 1, 54, 64
3, 147456, Note_on_c, 1, 63, 66
3, 147456, Note_on_c, 1, 59, 66
3, 147456, Note_on_c, 1, 54, 66
3, 147644, Note_off_c, 1, 59, 64
3, 147644, Note_off_c, 1, 54, 64
3, 147836, Note_off_c, 1, 63, 64
3, 147840, Note_on_c, 1, 66, 68
3, 148028, Note_off_c, 1, 66, 64
3, 148032, Note_on_c, 1, 69, 70
3, 148220, Note_off_c, 1, 69, 64
3, 148224, Note_on_c, 1, 69, 73
3, 148224, Note_on_c, 1, 59, 73
3, 148412, Note_off_c, 1, 69, 64
3, 148412, Note_off_c, 1, 59, 64
3, 148416, Note_on_c, 1, 68, 70
3, 148604, Note_off_c, 1, 68, 64
3, 148608, Note_on_c, 1, 66, 68
3, 148704, Note_off_c, 1, 66, 64
3, 148800, Note_on_c, 1, 64, 66
3, 148896, Note_off_c, 1, 64, 64
3, 148992, Note_on_c, 1, 57, 64
3, 149088, Note_off_c, 1, 57, 64
3, 149376, Note_on_c, 1, 56, 64
3, 149472, Note_off_c, 1, 56, 64
3, 149760, Note_on_c, 1, 57, 64
3, 149856, Note_off_c, 1, 57, 64
3, 150144, Note_on_c, 1, 59, 64
3, 150240, Note_off_c, 1, 59, 64
3, 150528, Note_on_c, 1, 56, 73
3, 150908, Note_off_c, 1, 56, 64
3, 151104, Note_on_c, 1, 64, 73
3, 151104, Note_on_c, 1, 61, 73
3, 151200, Note_off_c, 1, 64, 64
3, 151200, Note_off_c, 1, 61, 64
3, 151296, Note_on_c, 1, 64, 73
3, 151296, Note_on_c, 1, 59, 73
3, 151488, Note_off_c, 1, 64, 64
3, 151488, Note_off_c, 1, 59, 64
3, 151872, Note_on_c, 1, 69, 73
3, 151872, Note_on_c, 1, 63, 73
3, 152060, Note_off_c, 1, 69, 64
3, 152060, Note_off_c, 1, 63, 64
3, 152064, Note_on_c, 1, 68, 73
3, 152064, Note_on_c, 1, 64, 73
3, 152444, Note_off_c, 1, 68, 64
3, 152444, Note_off_c, 1, 64, 64
3, 152640, Note_on_c, 1, 64, 73
3, 152640, Note_on_c, 1, 61, 73
3, 152736, Note_off_c, 1, 64, 64
3, 152736, Note_off_c, 1, 61, 64
3, 152832, Note_on_c, 1, 64, 73
3, 152832, Note_on_c, 1, 59, 73
3, 153024, Note_off_c, 1, 64, 64
3, 153024, Note_off_c, 1, 59, 64
3, 153408, Note_on_c, 1, 69, 73
3, 153408, Note_on_c, 1, 63, 73
3, 153596, Note_off_c, 1, 69, 64
3, 153596, Note_off_c, 1, 63, 64
3, 153600, Note_on_c, 1, 68, 73
3, 153600, Note_on_c, 1, 64, 73
3, 153980, Note_off_c, 1, 68, 64
3, 153980, Note_off_c, 1, 64, 64
3, 154368, Note_on_c, 1, 68, 73
3, 154368, Note_on_c, 1, 64, 73
3, 154748, Note_off_c, 1, 68, 64
3, 154748, Note_off_c, 1, 64, 64
3, 155136, Note_on_c, 1, 76, 73
3, 155136, Note_on_c, 1, 71, 73
3, 155900, Note_off_c, 1, 71, 64
3, 155904, Note_on_c, 1, 69, 73
3, 156284, Note_off_c, 1, 69, 64
3, 156288, Note_on_c, 1, 68, 73
3, 156668, Note_off_c, 1, 76, 64
3, 156668, Note_off_c, 1, 68, 64
3, 156672, Note_on_c, 1, 76, 73
3, 156672, Note_on_c, 1, 71, 73
3, 157436, Note_off_c, 1, 71, 64
3, 157440, Note_on_c, 1, 68, 73
3, 157820, Note_off_c, 1, 68, 64
3, 157824, Note_on_c, 1, 67, 73
3, 158204, Note_off_c, 1, 76, 64
3, 158204, Note_off_c, 1, 67, 64
3, 158208, Note_on_c, 1, 68, 73
3, 158208, Note_on_c, 1, 68, 73
3, 158396, Note_off_c, 1, 68, 64
3, 158400, Note_on_c, 1, 71, 73
3, 158588, Note_off_c, 1, 68, 64
3, 158588, Note_off_c, 1, 71, 64
3, 158592, Note_on_c, 1, 69, 73
3, 158592, Note_on_c, 1, 76, 73
3, 158780, Note_off_c, 1, 69, 64
3, 158784, Note_on_c, 1, 73, 73
3, 158972, Note_off_c, 1, 76, 64
3, 158972, Note_off_c, 1, 73, 64
3, 158976, Note_on_c, 1, 76, 73
3, 158976, Note_on_c, 1, 71, 73
3, 159072, Note_off_c, 1, 76, 64
3, 159072, Note_off_c, 1, 71, 64
3, 159168, Note_on_c, 1, 76, 73
3, 159168, Note_on_c, 1, 71, 73
3, 159264, Note_off_c, 1, 76, 64
3, 159264, Note_off_c, 1, 71, 64
3, 159360, Note_on_c, 1, 75, 73
3, 159360, Note_on_c, 1, 69, 73
3, 159456, Note_off_c, 1, 75, 64
3, 159456, Note_off_c, 1, 69, 64
3, 159552, Note_on_c, 1, 75, 73
3, 159552, Note_on_c, 1, 69, 73
3, 159648, Note_off_c, 1, 75, 64
3, 159648, Note_off_c, 1, 69, 64
3, 159744, Note_on_c, 1, 76, 73
3, 159744, Note_on_c, 1, 68, 73
3, 160124, Note_off_c, 1, 76, 64
3, 160124, Note_off_c, 1, 68, 64
3, 160512, Note_on_c, 1, 71, 73
3, 160512, Note_on_c, 1, 68, 73
3, 160892, Note_off_c, 1, 71, 64
3, 160892, Note_off_c, 1, 68, 64
3, 161280, Note_on_c, 1, 76, 73
3, 161280, Note_on_c, 1, 71, 73
3, 162044, Note_off_c, 1, 71, 64
3, 162048, Note_on_c, 1, 69, 73
3, 162428, Note_off_c, 1, 69, 64
3, 162432, Note_on_c, 1, 68, 73
3, 162812, Note_off_c, 1, 76, 64
3, 162812, Note_off_c, 1, 68, 64
3, 162816, Note_on_c, 1, 76, 73
3, 162816, Note_on_c, 1, 69, 73
3, 163580, Note_off_c, 1, 69, 64
3, 163584, Note_on_c, 1, 68, 73
3, 163964, Note_off_c, 1, 68, 64
3, 163968, Note_on_c, 1, 67, 73
3, 164348, Note_off_c, 1, 76, 64
3, 164348, Note_off_c, 1, 67, 64
3, 164352, Note_on_c, 1, 68, 73
3, 164352, Note_on_c, 1, 68, 73
3, 164540, Note_off_c, 1, 68, 64
3, 164544, Note_on_c, 1, 71, 73
3, 164732, Note_off_c, 1, 68, 64
3, 164732, Note_off_c, 1, 71, 64
3, 164736, Note_on_c, 1, 69, 73
3, 164736, Note_on_c, 1, 76, 73
3, 164924, Note_off_c, 1, 69, 64
3, 164928, Note_on_c, 1, 73, 73
3, 165116, Note_off_c, 1, 76, 64
3, 165116, Note_off_c, 1, 73, 64
3, 165120, Note_on_c, 1, 76, 73
3, 165120, Note_on_c, 1, 71, 73
3, 165216, Note_off_c, 1, 76, 64
3, 165216, Note_off_c, 1, 71, 64
3, 165312, Note_on_c, 1, 76, 73
3, 165312, Note_on_c, 1, 71, 73
3, 165408, Note_off_c, 1, 76, 64
3, 165408, Note_off_c, 1, 71, 64
3, 165504, Note_on_c, 1, 75, 73
3, 165504, Note_on_c, 1, 69, 73
3, 165600, Note_off_c, 1, 75, 64
3, 165600, Note_off_c, 1, 69, 64
3, 165696, Note_on_c, 1, 75, 73
3, 165696, Note_on_c, 1, 69, 73
3, 165792, Note_off_c, 1, 75, 64
3, 165792, Note_off_c, 1, 69, 64
3, 165888, Note_on_c, 1, 76, 73
3, 165888, Note_on_c, 1, 68, 73
3, 165984, Note_off_c, 1, 76, 64
3, 165984, Note_off_c, 1, 68, 64
3, 166272, Note_on_c, 1, 75, 73
3, 166272, Note_on_c, 1, 69, 73
3, 166368, Note_off_c, 1, 75, 64
3, 166368, Note_off_c, 1, 69, 64
3, 166656, Note_on_c, 1, 76, 73
3, 166656, Note_on_c, 1, 71, 73
3, 166752, Note_off_c, 1, 76, 64
3, 166752, Note_off_c, 1, 71, 64
3, 166848, Note_on_c, 1, 76, 73
3, 166848, Note_on_c, 1, 73, 73
3, 166944, Note_off_c, 1, 76, 64
3, 166944, Note_off_c, 1, 73, 64
3, 167040, Note_on_c, 1, 76, 73
3, 167040, Note_on_c, 1, 71, 73
3, 167136, Note_off_c, 1, 76, 64
3, 167136, Note_off_c, 1, 71, 64
3, 167232, Note_on_c, 1, 76, 73
3, 167232, Note_on_c, 1, 69, 73
3, 167328, Note_off_c, 1, 76, 64
3, 167328, Note_off_c, 1, 69, 64
3, 167424, Note_on_c, 1, 76, 73
3, 167424, Note_on_c, 1, 68, 73
3, 167520, Note_off_c, 1, 76, 64
3, 167520, Note_off_c, 1, 68, 64
3, 167808, Note_on_c, 1, 71, 73
3, 167808, Note_on_c, 1, 68, 73
3, 167808, Note_on_c, 1, 64, 73
3, 167904, Note_off_c, 1, 71, 64
3, 167904, Note_off_c, 1, 68, 64
3, 167904, Note_off_c, 1, 64, 64
3, 168192, Note_on_c, 1, 71, 73
3, 168192, Note_on_c, 1, 68, 73
3, 168192, Note_on_c, 1, 64, 73
3, 168288, Note_off_c, 1, 71, 64
3, 168288, Note_off_c, 1, 68, 64
3, 168288, Note_off_c, 1, 64, 64
3, 168576, Note_on_c, 1, 71, 73
3, 168576, Note_on_c, 1, 68, 73
3, 168576, Note_on_c, 1, 64, 73
3, 168672, Note_off_c, 1, 71, 64
3, 168672, Note_off_c, 1, 68, 64
3, 168672, Note_off_c, 1, 64, 64
3, 168960, Note_on_c, 1, 68, 65
3, 168960, Note_on_c, 1, 64, 65
3, 169148, Note_off_c, 1, 68, 64
3, 169148, Note_off_c, 1, 64, 64
3, 169152, Note_on_c, 1, 68, 64
3, 169152, Note_on_c, 1, 64, 64
3, 169340, Note_off_c, 1, 68, 64
3, 169340, Note_off_c, 1, 64, 64
3, 169344, Note_on_c, 1, 68, 64
3, 169344, Note_on_c, 1, 64, 64
3, 169532, Note_off_c, 1, 68, 64
3, 169532, Note_off_c, 1, 64, 64
3, 169536, Note_on_c, 1, 68, 64
3, 169536, Note_on_c, 1, 64, 64
3, 169724, Note_off_c, 1, 68, 64
3, 169724, Note_off_c, 1, 64, 64
3, 169728, Note_on_c, 1, 68, 64
3, 169728, Note_on_c, 1, 64, 64
3, 169916, Note_off_c, 1, 68, 64
3, 169916, Note_off_c, 1, 64, 64
3, 169920, Note_on_c, 1, 68, 64
3, 169920, Note_on_c, 1, 64, 64
3, 170108, Note_off_c, 1, 68, 64
3, 170108, Note_off_c, 1, 64, 64
3, 170112, Note_on_c, 1, 68, 64
3, 170112, Note_on_c, 1, 64, 64
3, 170300, Note_off_c, 1, 68, 64
3, 170300, Note_off_c, 1, 64, 64
3, 170304, Note_on_c, 1, 68, 64
3, 170304, Note_on_c, 1, 64, 64
3, 170492, Note_off_c, 1, 68, 64
3, 170492, Note_off_c, 1, 64, 64
3, 170496, Note_on_c, 1, 66, 64
3, 170496, Note_on_c, 1, 69, 64
3, 170496, Note_on_c, 1, 71, 64
3, 170592, Note_on_c, 1, 63, 64
3, 171260, Note_off_c, 1, 66, 64
3, 171260, Note_off_c, 1, 69, 64
3, 171260, Note_off_c, 1, 71, 64
3, 171260, Note_off_c, 1, 63, 64
3, 171264, Note_on_c, 1, 75, 64
3, 171264, Note_on_c, 1, 71, 64
3, 171264, Note_on_c, 1, 69, 64
3, 171360, Note_on_c, 1, 66, 64
3, 172028, Note_off_c, 1, 75, 64
3, 172028, Note_off_c, 1, 71, 64
3, 172028, Note_off_c, 1, 69, 64
3, 172028, Note_off_c, 1, 66, 64
3, 172032, Note_on_c, 1, 71, 82
3, 172032, Note_on_c, 1, 68, 82
3, 172032, Note_on_c, 1, 64, 82
3, 172032, Note_on_c, 1, 76, 82
3, 172412, Note_off_c, 1, 71, 64
3, 172412, Note_off_c, 1, 68, 64
3, 172412, Note_off_c, 1, 64, 64
3, 172412, Note_off_c, 1, 76, 64
3, 172416, Note_on_c, 1, 78, 88
3, 172508, Note_off_c, 1, 78, 64
3, 172512, Note_on_c, 1, 76, 87
3, 172604, Note_off_c, 1, 76, 64
3, 172608, Note_on_c, 1, 75, 86
3, 172700, Note_off_c, 1, 75, 64
3, 172704, Note_on_c, 1, 73, 85
3, 172796, Note_off_c, 1, 73, 64
3, 172800, Note_on_c, 1, 73, 84
3, 172892, Note_off_c, 1, 73, 64
3, 172896, Note_on_c, 1, 71, 84
3, 172988, Note_off_c, 1, 71, 64
3, 172992, Note_on_c, 1, 69, 82
3, 173084, Note_off_c, 1, 69, 64
3, 173088, Note_on_c, 1, 68, 81
3, 173180, Note_off_c, 1, 68, 64
3, 173184, Note_on_c, 1, 78, 88
3, 173276, Note_off_c, 1, 78, 64
3, 173280, Note_on_c, 1, 76, 87
3, 173372, Note_off_c, 1, 76, 64
3, 173376, Note_on_c, 1, 75, 86
3, 173468, Note_off_c, 1, 75, 64
3, 173472, Note_on_c, 1, 73, 85
3, 173564, Note_off_c, 1, 73, 64
3, 173568, Note_on_c, 1, 73, 84
3, 173660, Note_off_c, 1, 73, 64
3, 173664, Note_on_c, 1, 71, 83
3, 173756, Note_off_c, 1, 71, 64
3, 173760, Note_on_c, 1, 69, 82
3, 173852, Note_off_c, 1, 69, 64
3, 173856, Note_on_c, 1, 68, 81
3, 173948, Note_off_c, 1, 68, 64
3, 173952, Note_on_c, 1, 78, 88
3, 174044, Note_off_c, 1, 78, 64
3, 174048, Note_on_c, 1, 76, 87
3, 174140, Note_off_c, 1, 76, 64
3, 174144, Note_on_c, 1, 75, 86
3, 174236, Note_off_c, 1, 75, 64
3, 174240, Note_on_c, 1, 73, 85
3, 174332, Note_off_c, 1, 73, 64
3, 174336, Note_on_c, 1, 73, 84
3, 174428, Note_off_c, 1, 73, 64
3, 174432, Note_on_c, 1, 71, 83
3, 174524, Note_off_c, 1, 71, 64
3, 174528, Note_on_c, 1, 69, 82
3, 174620, Note_off_c, 1, 69, 64
3, 174624, Note_on_c, 1, 68, 81
3, 174716, Note_off_c, 1, 68, 64
3, 174720, Note_on_c, 1, 66, 82
3, 174816, Note_off_c, 1, 66, 64
3, 174912, Note_on_c, 1, 71, 82
3, 175008, Note_off_c, 1, 71, 64
3, 175104, Note_on_c, 1, 68, 82
3, 175104, Note_on_c, 1, 64, 82
3, 175484, Note_off_c, 1, 68, 64
3, 175484, Note_off_c, 1, 64, 64
3, 175488, Note_on_c, 1, 78, 70
3, 175580, Note_off_c, 1, 78, 64
3, 175584, Note_on_c, 1, 76, 69
3, 175676, Note_off_c, 1, 76, 64
3, 175680, Note_on_c, 1, 75, 68
3, 175772, Note_off_c, 1, 75, 64
3, 175776, Note_on_c, 1, 73, 67
3, 175868, Note_off_c, 1, 73, 64
3, 175872, Note_on_c, 1, 73, 66
3, 175964, Note_off_c, 1, 73, 64
3, 175968, Note_on_c, 1, 71, 65
3, 176060, Note_off_c, 1, 71, 64
3, 176064, Note_on_c, 1, 69, 64
3, 176156, Note_off_c, 1, 69, 64
3, 176160, Note_on_c, 1, 68, 63
3, 176252, Note_off_c, 1, 68, 64
3, 176256, Note_on_c, 1, 78, 70
3, 176348, Note_off_c, 1, 78, 64
3, 176352, Note_on_c, 1, 76, 69
3, 176444, Note_off_c, 1, 76, 64
3, 176448, Note_on_c, 1, 75, 68
3, 176540, Note_off_c, 1, 75, 64
3, 176544, Note_on_c, 1, 73, 67
3, 176636, Note_off_c, 1, 73, 64
3, 176640, Note_on_c, 1, 73, 66
3, 176732, Note_off_c, 1, 73, 64
3, 176736, Note_on_c, 1, 71, 65
3, 176828, Note_off_c, 1, 71, 64
3, 176832, Note_on_c, 1, 69, 64
3, 176924, Note_off_c, 1, 69, 64
3, 176928, Note_on_c, 1, 68, 63
3, 177020, Note_off_c, 1, 68, 64
3, 177024, Note_on_c, 1, 75, 82
3, 177116, Note_off_c, 1, 75, 64
3, 177120, Note_on_c, 1, 76, 83
3, 177212, Note_off_c, 1, 76, 64
3, 177216, Note_on_c, 1, 81, 84
3, 177308, Note_off_c, 1, 81, 64
3, 177312, Note_on_c, 1, 85, 85
3, 177404, Note_off_c, 1, 85, 64
3, 177408, Note_on_c, 1, 85, 86
3, 177500, Note_off_c, 1, 85, 64
3, 177504, Note_on_c, 1, 83, 85
3, 177596, Note_off_c, 1, 83, 64
3, 177600, Note_on_c, 1, 81, 84
3, 177692, Note_off_c, 1, 81, 64
3, 177696, Note_on_c, 1, 80, 83
3, 177788, Note_off_c, 1, 80, 64
3, 177792, Note_on_c, 1, 78, 82
3, 177888, Note_off_c, 1, 78, 64
3, 177984, Note_on_c, 1, 83, 85
3, 177984, Note_on_c, 1, 78, 82
3, 177984, Note_on_c, 1, 71, 80
3, 178080, Note_off_c, 1, 83, 64
3, 178080, Note_off_c, 1, 78, 64
3, 178080, Note_off_c, 1, 71, 64
3, 178176, Note_on_c, 1, 76, 84
3, 178176, Note_on_c, 1, 71, 82
3, 178176, Note_on_c, 1, 68, 82
3, 178556, Note_off_c, 1, 76, 64
3, 178556, Note_off_c, 1, 71, 64
3, 178556, Note_off_c, 1, 68, 64
3, 178560, Note_on_c, 1, 83, 84
3, 178656, Note_off_c, 1, 83, 64
3, 178752, Note_on_c, 1, 80, 83
3, 178848, Note_off_c, 1, 80, 64
3, 178944, Note_on_c, 1, 76, 82
3, 179040, Note_off_c, 1, 76, 64
3, 179136, Note_on_c, 1, 80, 82
3, 179232, Note_off_c, 1, 80, 64
3, 179328, Note_on_c, 1, 71, 82
3, 179424, Note_off_c, 1, 71, 64
3, 179520, Note_on_c, 1, 76, 82
3, 179616, Note_off_c, 1, 76, 64
3, 179712, Note_on_c, 1, 68, 82
3, 180092, Note_off_c, 1, 68, 64
3, 180096, Note_on_c, 1, 76, 82
3, 180192, Note_off_c, 1, 76, 64
3, 180288, Note_on_c, 1, 71, 82
3, 180384, Note_off_c, 1, 71, 64
3, 180480, Note_on_c, 1, 68, 82
3, 180576, Note_off_c, 1, 68, 64
3, 180672, Note_on_c, 1, 71, 82
3, 180768, Note_off_c, 1, 71, 64
3, 180864, Note_on_c, 1, 64, 82
3, 180960, Note_off_c, 1, 64, 64
3, 181056, Note_on_c, 1, 68, 82
3, 181056, Control_c, 1, 1, 50
3, 181152, Note_off_c, 1, 68, 64
3, 181248, Note_on_c, 1, 60, 82
3, 181436, Note_off_c, 1, 60, 64
3, 181440, Note_on_c, 1, 68, 64
3, 181440, Note_on_c, 1, 56, 64
3, 181628, Note_off_c, 1, 68, 64
3, 181628, Note_off_c, 1, 56, 64
3, 181632, Note_on_c, 1, 68, 64
3, 181632, Note_on_c, 1, 56, 64
3, 181724, Note_off_c, 1, 68, 64
3, 181724, Note_off_c, 1, 56, 64
3, 181824, Note_on_c, 1, 68, 64
3, 181824, Note_on_c, 1, 56, 64
3, 181916, Note_off_c, 1, 68, 64
3, 181916, Note_off_c, 1, 56, 64
3, 182016, Note_on_c, 1, 69, 82
3, 182016, Note_on_c, 1, 57, 82
3, 182204, Note_off_c, 1, 69, 64
3, 182204, Note_off_c, 1, 57, 64
3, 182208, Note_on_c, 1, 68, 64
3, 182208, Note_on_c, 1, 56, 64
3, 182396, Note_off_c, 1, 68, 64
3, 182396, Note_off_c, 1, 56, 64
3, 182400, Note_on_c, 1, 68, 64
3, 182400, Note_on_c, 1, 56, 64
3, 182492, Note_off_c, 1, 68, 64
3, 182492, Note_off_c, 1, 56, 64
3, 182592, Note_on_c, 1, 68, 64
3, 182592, Note_on_c, 1, 56, 64
3, 182684, Note_off_c, 1, 68, 64
3, 182684, Note_off_c, 1, 56, 64
3, 182784, Note_on_c, 1, 61, 82
3, 182972, Note_off_c, 1, 61, 64
3, 182976, Note_on_c, 1, 68, 64
3, 182976, Note_on_c, 1, 56, 64
3, 183164, Note_off_c, 1, 68, 64
3, 183164, Note_off_c, 1, 56, 64
3, 183168, Note_on_c, 1, 68, 64
3, 183168, Note_on_c, 1, 56, 64
3, 183260, Note_off_c, 1, 68, 64
3, 183260, Note_off_c, 1, 56, 64
3, 183360, Note_on_c, 1, 68, 64
3, 183360, Note_on_c, 1, 56, 64
3, 183452, Note_off_c, 1, 68, 64
3, 183452, Note_off_c, 1, 56, 64
3, 183552, Note_on_c, 1, 69, 82
3, 183552, Note_on_c, 1, 57, 82
3, 183740, Note_off_c, 1, 69, 64
3, 183740, Note_off_c, 1, 57, 64
3, 183744, Note_on_c, 1, 68, 64
3, 183744, Note_on_c, 1, 56, 64
3, 183932, Note_off_c, 1, 68, 64
3, 183932, Note_off_c, 1, 56, 64
3, 183936, Note_on_c, 1, 68, 64
3, 183936, Note_on_c, 1, 56, 64
3, 184028, Note_off_c, 1, 68, 64
3, 184028, Note_off_c, 1, 56, 64
3, 184128, Note_on_c, 1, 68, 64
3, 184128, Note_on_c, 1, 56, 64
3, 184220, Note_off_c, 1, 68, 64
3, 184220, Note_off_c, 1, 56, 64
3, 184320, Note_on_c, 1, 63, 82
3, 184508, Note_off_c, 1, 63, 64
3, 184512, Note_on_c, 1, 68, 64
3, 184512, Note_on_c, 1, 56, 64
3, 184700, Note_off_c, 1, 68, 64
3, 184700, Note_off_c, 1, 56, 64
3, 184704, Note_on_c, 1, 68, 64
3, 184704, Note_on_c, 1, 56, 64
3, 184796, Note_off_c, 1, 68, 64
3, 184796, Note_off_c, 1, 56, 64
3, 184896, Note_on_c, 1, 68, 64
3, 184896, Note_on_c, 1, 56, 64
3, 184988, Note_off_c, 1, 68, 64
3, 184988, Note_off_c, 1, 56, 64
3, 185088, Note_on_c, 1, 69, 82
3, 185088, Note_on_c, 1, 57, 82
3, 185276, Note_off_c, 1, 69, 64
3, 185276, Note_off_c, 1, 57, 64
3, 185280, Note_on_c, 1, 68, 64
3, 185280, Note_on_c, 1, 56, 64
3, 185468, Note_off_c, 1, 68, 64
3, 185468, Note_off_c, 1, 56, 64
3, 185472, Note_on_c, 1, 68, 64
3, 185472, Note_on_c, 1, 56, 64
3, 185564, Note_off_c, 1, 68, 64
3, 185564, Note_off_c, 1, 56, 64
3, 185664, Note_on_c, 1, 68, 64
3, 185664, Note_on_c, 1, 56, 64
3, 185756, Note_off_c, 1, 68, 64
3, 185756, Note_off_c, 1, 56, 64
3, 185856, Note_on_c, 1, 64, 82
3, 186044, Note_off_c, 1, 64, 64
3, 186048, Note_on_c, 1, 68, 64
3, 186048, Note_on_c, 1, 56, 64
3, 186236, Note_off_c, 1, 68, 64
3, 186236, Note_off_c, 1, 56, 64
3, 186240, Note_on_c, 1, 68, 64
3, 186240, Note_on_c, 1, 56, 64
3, 186332, Note_off_c, 1, 68, 64
3, 186332, Note_off_c, 1, 56, 64
3, 186432, Note_on_c, 1, 68, 64
3, 186432, Note_on_c, 1, 56, 64
3, 186524, Note_off_c, 1, 68, 64
3, 186524, Note_off_c, 1, 56, 64
3, 186624, Note_on_c, 1, 69, 82
3, 186624, Note_on_c, 1, 57, 82
3, 186812, Note_off_c, 1, 69, 64
3, 186812, Note_off_c, 1, 57, 64
3, 186816, Note_on_c, 1, 68, 64
3, 186816, Note_on_c, 1, 56, 64
3, 187004, Note_off_c, 1, 68, 64
3, 187004, Note_off_c, 1, 56, 64
3, 187008, Note_on_c, 1, 68, 64
3, 187008, Note_on_c, 1, 56, 64
3, 187100, Note_off_c, 1, 68, 64
3, 187100, Note_off_c, 1, 56, 64
3, 187200, Note_on_c, 1, 68, 64
3, 187200, Note_on_c, 1, 56, 64
3, 187292, Note_off_c, 1, 68, 64
3, 187292, Note_off_c, 1, 56, 64
3, 187584, Note_on_c, 1, 74, 64
3, 187584, Note_on_c, 1, 69, 64
3, 187772, Note_off_c, 1, 74, 64
3, 187772, Note_off_c, 1, 69, 64
3, 187776, Note_on_c, 1, 74, 64
3, 187776, Note_on_c, 1, 69, 64
3, 187964, Note_off_c, 1, 74, 64
3, 187964, Note_off_c, 1, 69, 64
3, 187968, Note_on_c, 1, 74, 64
3, 187968, Note_on_c, 1, 69, 64
3, 188156, Note_off_c, 1, 74, 64
3, 188156, Note_off_c, 1, 69, 64
3, 188352, Note_on_c, 1, 77, 64
3, 188352, Note_on_c, 1, 71, 64
3, 188352, Note_on_c, 1, 65, 64
3, 188540, Note_off_c, 1, 77, 64
3, 188540, Note_off_c, 1, 71, 64
3, 188540, Note_off_c, 1, 65, 64
3, 188544, Note_on_c, 1, 77, 64
3, 188544, Note_on_c, 1, 71, 64
3, 188544, Note_on_c, 1, 65, 64
3, 188732, Note_off_c, 1, 77, 64
3, 188732, Note_off_c, 1, 71, 64
3, 188732, Note_off_c, 1, 65, 64
3, 188736, Note_on_c, 1, 77, 64
3, 188736, Note_on_c, 1, 71, 64
3, 188736, Note_on_c, 1, 65, 64
3, 188924, Note_off_c, 1, 77, 64
3, 188924, Note_off_c, 1, 71, 64
3, 188924, Note_off_c, 1, 65, 64
3, 189120, Note_on_c, 1, 78, 64
3, 189120, Note_on_c, 1, 73, 64
3, 189120, Note_on_c, 1, 66, 64
3, 189308, Note_off_c, 1, 78, 64
3, 189308, Note_off_c, 1, 73, 64
3, 189312, Note_on_c, 1, 73, 64
3, 189312, Note_on_c, 1, 69, 64
3, 189500, Note_off_c, 1, 66, 64
3, 189500, Note_off_c, 1, 73, 64
3, 189500, Note_off_c, 1, 69, 64
3, 189504, Note_on_c, 1, 71, 64
3, 189504, Note_on_c, 1, 65, 64
3, 189692, Note_off_c, 1, 71, 64
3, 189692, Note_off_c, 1, 65, 64
3, 189696, Note_on_c, 1, 69, 64
3, 189696, Note_on_c, 1, 66, 64
3, 189884, Note_off_c, 1, 69, 64
3, 189884, Note_off_c, 1, 66, 64
3, 189888, Note_on_c, 1, 63, 82
3, 189888, Note_on_c, 1, 60, 82
3, 190076, Note_off_c, 1, 63, 64
3, 190076, Note_off_c, 1, 60, 64
3, 190080, Note_on_c, 1, 66, 82
3, 190080, Note_on_c, 1, 63, 82
3, 190268, Note_off_c, 1, 66, 64
3, 190268, Note_off_c, 1, 63, 64
3, 190272, Note_on_c, 1, 69, 82
3, 190272, Note_on_c, 1, 66, 82
3, 190460, Note_off_c, 1, 69, 64
3, 190460, Note_off_c, 1, 66, 64
3, 190464, Note_on_c, 1, 68, 82
3, 190464, Note_on_c, 1, 64, 82
3, 190844, Note_off_c, 1, 68, 64
3, 190844, Note_off_c, 1, 64, 64
3, 190848, Note_on_c, 1, 66, 82
3, 190848, Note_on_c, 1, 63, 82
3, 191228, Note_off_c, 1, 66, 64
3, 191228, Note_off_c, 1, 63, 64
3, 191232, Note_on_c, 1, 64, 82
3, 191232, Note_on_c, 1, 61, 82
3, 191612, Note_off_c, 1, 64, 64
3, 191612, Note_off_c, 1, 61, 64
3, 191616, Note_on_c, 1, 63, 82
3, 191616, Note_on_c, 1, 60, 82
3, 191996, Note_off_c, 1, 63, 64
3, 191996, Note_off_c, 1, 60, 64
3, 192000, Note_on_c, 1, 61, 82
3, 192380, Note_off_c, 1, 61, 64
3, 192384, Note_on_c, 1, 80, 82
3, 192480, Note_off_c, 1, 80, 64
3, 192576, Note_on_c, 1, 76, 82
3, 192672, Note_off_c, 1, 76, 64
3, 192768, Note_on_c, 1, 73, 82
3, 192864, Note_off_c, 1, 73, 64
3, 192960, Note_on_c, 1, 76, 82
3, 193056, Note_off_c, 1, 76, 64
3, 193152, Note_on_c, 1, 68, 82
3, 193248, Note_off_c, 1, 68, 64
3, 193344, Note_on_c, 1, 73, 82
3, 193440, Note_off_c, 1, 73, 64
3, 193536, Note_on_c, 1, 64, 82
3, 193916, Note_off_c, 1, 64, 64
3, 193920, Note_on_c, 1, 73, 82
3, 194016, Note_off_c, 1, 73, 64
3, 194112, Note_on_c, 1, 68, 82
3, 194208, Note_off_c, 1, 68, 64
3, 194304, Note_on_c, 1, 64, 82
3, 194400, Note_off_c, 1, 64, 64
3, 194496, Note_on_c, 1, 68, 82
3, 194592, Note_off_c, 1, 68, 64
3, 194688, Note_on_c, 1, 61, 82
3, 194784, Note_off_c, 1, 61, 64
3, 194880, Note_on_c, 1, 64, 82
3, 194880, Control_c, 1, 1, 50
3, 194976, Note_off_c, 1, 64, 64
3, 195264, Note_on_c, 1, 71, 64
3, 195264, Note_on_c, 1, 64, 64
3, 195360, Note_off_c, 1, 71, 64
3, 195360, Note_off_c, 1, 64, 64
3, 195456, Note_on_c, 1, 71, 64
3, 195456, Note_on_c, 1, 64, 64
3, 195552, Note_off_c, 1, 71, 64
3, 195552, Note_off_c, 1, 64, 64
3, 195648, Note_on_c, 1, 71, 64
3, 195648, Note_on_c, 1, 64, 64
3, 195744, Note_off_c, 1, 71, 64
3, 195744, Note_off_c, 1, 64, 64
3, 195840, Note_on_c, 1, 71, 64
3, 195840, Note_on_c, 1, 64, 64
3, 195936, Note_off_c, 1, 71, 64
3, 195936, Note_off_c, 1, 64, 64
3, 196032, Note_on_c, 1, 71, 64
3, 196032, Note_on_c, 1, 64, 64
3, 196128, Note_off_c, 1, 71, 64
3, 196128, Note_off_c, 1, 64, 64
3, 196224, Note_on_c, 1, 71, 64
3, 196224, Note_on_c, 1, 64, 64
3, 196320, Note_off_c, 1, 71, 64
3, 196320, Note_off_c, 1, 64, 64
3, 196416, Note_on_c, 1, 71, 64
3, 196416, Note_on_c, 1, 64, 64
3, 196512, Note_off_c, 1, 71, 64
3, 196512, Note_off_c, 1, 64, 64
3, 196608, Note_on_c, 1, 73, 64
3, 196608, Note_on_c, 1, 64, 64
3, 196796, Note_off_c, 1, 73, 64
3, 196796, Note_off_c, 1, 64, 64
3, 196800, Note_on_c, 1, 76, 64
3, 196800, Note_on_c, 1, 73, 64
3, 196988, Note_off_c, 1, 76, 64
3, 196988, Note_off_c, 1, 73, 64
3, 196992, Note_on_c, 1, 76, 64
3, 196992, Note_on_c, 1, 73, 64
3, 197088, Note_off_c, 1, 76, 64
3, 197088, Note_off_c, 1, 73, 64
3, 197184, Note_on_c, 1, 76, 64
3, 197184, Note_on_c, 1, 73, 64
3, 197280, Note_off_c, 1, 76, 64
3, 197280, Note_off_c, 1, 73, 64
3, 197376, Note_on_c, 1, 76, 64
3, 197376, Note_on_c, 1, 73, 64
3, 197472, Note_off_c, 1, 76, 64
3, 197472, Note_off_c, 1, 73, 64
3, 197568, Note_on_c, 1, 76, 64
3, 197568, Note_on_c, 1, 73, 64
3, 197664, Note_off_c, 1, 76, 64
3, 197664, Note_off_c, 1, 73, 64
3, 197760, Note_on_c, 1, 76, 64
3, 197760, Note_on_c, 1, 73, 64
3, 197948, Note_off_c, 1, 76, 64
3, 197948, Note_off_c, 1, 73, 64
3, 197952, Note_on_c, 1, 74, 64
3, 197952, Note_on_c, 1, 71, 64
3, 198140, Note_off_c, 1, 74, 64
3, 198140, Note_off_c, 1, 71, 64
3, 198144, Note_on_c, 1, 73, 64
3, 198144, Note_on_c, 1, 70, 64
3, 198240, Note_off_c, 1, 73, 64
3, 198240, Note_off_c, 1, 70, 64
3, 198528, Note_on_c, 1, 73, 64
3, 198528, Note_on_c, 1, 70, 64
3, 198624, Note_off_c, 1, 73, 64
3, 198624, Note_off_c, 1, 70, 64
3, 198912, Note_on_c, 1, 73, 64
3, 198912, Note_on_c, 1, 70, 64
3, 199008, Note_off_c, 1, 73, 64
3, 199008, Note_off_c, 1, 70, 64
3, 199296, Note_on_c, 1, 73, 64
3, 199296, Note_on_c, 1, 70, 64
3, 199392, Note_off_c, 1, 73, 64
3, 199392, Note_off_c, 1, 70, 64
3, 199872, Note_on_c, 1, 69, 64
3, 199872, Note_on_c, 1, 62, 64
3, 199968, Note_off_c, 1, 69, 64
3, 199968, Note_off_c, 1, 62, 64
3, 200064, Note_on_c, 1, 69, 64
3, 200064, Note_on_c, 1, 62, 64
3, 200160, Note_off_c, 1, 69, 64
3, 200160, Note_off_c, 1, 62, 64
3, 200256, Note_on_c, 1, 69, 64
3, 200256, Note_on_c, 1, 62, 64
3, 200352, Note_off_c, 1, 69, 64
3, 200352, Note_off_c, 1, 62, 64
3, 200448, Note_on_c, 1, 69, 64
3, 200448, Note_on_c, 1, 62, 64
3, 200544, Note_off_c, 1, 69, 64
3, 200544, Note_off_c, 1, 62, 64
3, 200640, Note_on_c, 1, 69, 64
3, 200640, Note_on_c, 1, 62, 64
3, 200736, Note_off_c, 1, 69, 64
3, 200736, Note_off_c, 1, 62, 64
3, 200832, Note_on_c, 1, 69, 64
3, 200832, Note_on_c, 1, 62, 64
3, 200928, Note_off_c, 1, 69, 64
3, 200928, Note_off_c, 1, 62, 64
3, 201024, Note_on_c, 1, 69, 64
3, 201024, Note_on_c, 1, 62, 64
3, 201120, Note_off_c, 1, 69, 64
3, 201120, Note_off_c, 1, 62, 64
3, 201216, Note_on_c, 1, 71, 64
3, 201216, Note_on_c, 1, 62, 64
3, 201404, Note_off_c, 1, 71, 64
3, 201404, Note_off_c, 1, 62, 64
3, 201408, Note_on_c, 1, 74, 64
3, 201408, Note_on_c, 1, 71, 64
3, 201596, Note_off_c, 1, 74, 64
3, 201596, Note_off_c, 1, 71, 64
3, 201600, Note_on_c, 1, 74, 64
3, 201600, Note_on_c, 1, 71, 64
3, 201696, Note_off_c, 1, 74, 64
3, 201696, Note_off_c, 1, 71, 64
3, 201792, Note_on_c, 1, 74, 64
3, 201792, Note_on_c, 1, 71, 64
3, 201888, Note_off_c, 1, 74, 64
3, 201888, Note_off_c, 1, 71, 64
3, 201984, Note_on_c, 1, 74, 64
3, 201984, Note_on_c, 1, 71, 64
3, 202080, Note_off_c, 1, 74, 64
3, 202080, Note_off_c, 1, 71, 64
3, 202176, Note_on_c, 1, 74, 64
3, 202176, Note_on_c, 1, 71, 64
3, 202272, Note_off_c, 1, 74, 64
3, 202272, Note_off_c, 1, 71, 64
3, 202368, Note_on_c, 1, 74, 64
3, 202368, Note_on_c, 1, 71, 64
3, 202556, Note_off_c, 1, 74, 64
3, 202556, Note_off_c, 1, 71, 64
3, 202560, Note_on_c, 1, 73, 64
3, 202560, Note_on_c, 1, 69, 64
3, 202748, Note_off_c, 1, 73, 64
3, 202748, Note_off_c, 1, 69, 64
3, 202752, Note_on_c, 1, 71, 64
3, 202752, Note_on_c, 1, 68, 64
3, 202848, Note_off_c, 1, 71, 64
3, 202848, Note_off_c, 1, 68, 64
3, 203136, Note_on_c, 1, 71, 64
3, 203136, Note_on_c, 1, 68, 64
3, 203232, Note_off_c, 1, 71, 64
3, 203232, Note_off_c, 1, 68, 64
3, 203520, Note_on_c, 1, 71, 64
3, 203520, Note_on_c, 1, 68, 64
3, 203616, Note_off_c, 1, 71, 64
3, 203616, Note_off_c, 1, 68, 64
3, 203904, Note_on_c, 1, 71, 64
3, 203904, Note_on_c, 1, 68, 64
3, 204000, Note_off_c, 1, 71, 64
3, 204000, Note_off_c, 1, 68, 64
3, 204480, Note_on_c, 1, 69, 82
3, 204480, Note_on_c, 1, 61, 82
3, 204860, Note_off_c, 1, 69, 64
3, 204860, Note_off_c, 1, 61, 64
3, 204864, Note_on_c, 1, 69, 64
3, 204864, Note_on_c, 1, 61, 64
3, 205052, Note_off_c, 1, 69, 64
3, 205052, Note_off_c, 1, 61, 64
3, 205248, Note_on_c, 1, 61, 82
3, 205248, Note_on_c, 1, 69, 82
3, 205628, Note_off_c, 1, 61, 64
3, 205628, Note_off_c, 1, 69, 64
3, 205632, Note_on_c, 1, 69, 64
3, 205632, Note_on_c, 1, 61, 64
3, 205820, Note_off_c, 1, 69, 64
3, 205820, Note_off_c, 1, 61, 64
3, 206016, Note_on_c, 1, 60, 82
3, 206016, Note_on_c, 1, 69, 82
3, 206396, Note_off_c, 1, 60, 64
3, 206396, Note_off_c, 1, 69, 64
3, 206400, Note_on_c, 1, 69, 64
3, 206400, Note_on_c, 1, 60, 64
3, 206588, Note_off_c, 1, 69, 64
3, 206588, Note_off_c, 1, 60, 64
3, 206784, Note_on_c, 1, 60, 82
3, 206784, Note_on_c, 1, 69, 82
3, 207164, Note_off_c, 1, 60, 64
3, 207164, Note_off_c, 1, 69, 64
3, 207168, Note_on_c, 1, 69, 64
3, 207168, Note_on_c, 1, 60, 64
3, 207356, Note_off_c, 1, 69, 64
3, 207356, Note_off_c, 1, 60, 64
3, 207360, Note_on_c, 1, 68, 82
3, 207360, Note_on_c, 1, 64, 82
3, 207360, Note_on_c, 1, 59, 82
3, 207548, Note_off_c, 1, 68, 64
3, 207548, Note_off_c, 1, 64, 64
3, 207548, Note_off_c, 1, 59, 64
3, 207552, Note_on_c, 1, 71, 82
3, 207552, Note_on_c, 1, 68, 82
3, 207552, Note_on_c, 1, 64, 82
3, 207740, Note_off_c, 1, 71, 64
3, 207740, Note_off_c, 1, 68, 64
3, 207740, Note_off_c, 1, 64, 64
3, 207744, Note_on_c, 1, 71, 82
3, 207744, Note_on_c, 1, 68, 82
3, 207744, Note_on_c, 1, 64, 82
3, 207932, Note_off_c, 1, 71, 64
3, 207932, Note_off_c, 1, 68, 64
3, 207932, Note_off_c, 1, 64, 64
3, 207936, Note_on_c, 1, 71, 82
3, 207936, Note_on_c, 1, 68, 82
3, 207936, Note_on_c, 1, 64, 82
3, 208124, Note_off_c, 1, 71, 64
3, 208124, Note_off_c, 1, 68, 64
3, 208124, Note_off_c, 1, 64, 64
3, 208320, Note_on_c, 1, 71, 82
3, 208320, Note_on_c, 1, 68, 82
3, 208320, Note_on_c, 1, 64, 82
3, 208508, Note_off_c, 1, 71, 64
3, 208508, Note_off_c, 1, 68, 64
3, 208508, Note_off_c, 1, 64, 64
3, 208512, Note_on_c, 1, 71, 82
3, 208512, Note_on_c, 1, 68, 82
3, 208512, Note_on_c, 1, 64, 82
3, 208700, Note_off_c, 1, 71, 64
3, 208700, Note_off_c, 1, 68, 64
3, 208700, Note_off_c, 1, 64, 64
3, 208704, Note_on_c, 1, 71, 82
3, 208704, Note_on_c, 1, 68, 82
3, 208704, Note_on_c, 1, 64, 82
3, 208892, Note_off_c, 1, 71, 64
3, 208892, Note_off_c, 1, 68, 64
3, 208892, Note_off_c, 1, 64, 64
3, 209088, Note_on_c, 1, 73, 82
3, 209088, Note_on_c, 1, 69, 82
3, 209088, Note_on_c, 1, 64, 82
3, 209276, Note_off_c, 1, 73, 64
3, 209276, Note_off_c, 1, 69, 64
3, 209276, Note_off_c, 1, 64, 64
3, 209280, Note_on_c, 1, 73, 82
3, 209280, Note_on_c, 1, 69, 82
3, 209280, Note_on_c, 1, 64, 82
3, 209468, Note_off_c, 1, 73, 64
3, 209468, Note_off_c, 1, 69, 64
3, 209468, Note_off_c, 1, 64, 64
3, 209472, Note_on_c, 1, 73, 82
3, 209472, Note_on_c, 1, 69, 82
3, 209472, Note_on_c, 1, 64, 82
3, 209660, Note_off_c, 1, 73, 64
3, 209660, Note_off_c, 1, 69, 64
3, 209660, Note_off_c, 1, 64, 64
3, 209856, Note_on_c, 1, 73, 82
3, 209856, Note_on_c, 1, 69, 82
3, 209856, Note_on_c, 1, 64, 82
3, 210044, Note_off_c, 1, 73, 64
3, 210044, Note_off_c, 1, 69, 64
3, 210044, Note_off_c, 1, 64, 64
3, 210048, Note_on_c, 1, 73, 82
3, 210048, Note_on_c, 1, 69, 82
3, 210048, Note_on_c, 1, 64, 82
3, 210236, Note_off_c, 1, 73, 64
3, 210236, Note_off_c, 1, 69, 64
3, 210236, Note_off_c, 1, 64, 64
3, 210240, Note_on_c, 1, 73, 82
3, 210240, Note_on_c, 1, 69, 82
3, 210240, Note_on_c, 1, 64, 82
3, 210428, Note_off_c, 1, 73, 64
3, 210428, Note_off_c, 1, 69, 64
3, 210428, Note_off_c, 1, 64, 64
3, 210624, Note_on_c, 1, 71, 64
3, 210624, Note_on_c, 1, 68, 64
3, 210624, Note_on_c, 1, 64, 64
3, 210812, Note_off_c, 1, 71, 64
3, 210812, Note_off_c, 1, 68, 64
3, 210812, Note_off_c, 1, 64, 64
3, 210816, Note_on_c, 1, 71, 64
3, 210816, Note_on_c, 1, 68, 64
3, 210816, Note_on_c, 1, 64, 64
3, 211004, Note_off_c, 1, 71, 64
3, 211004, Note_off_c, 1, 68, 64
3, 211004, Note_off_c, 1, 64, 64
3, 211008, Note_on_c, 1, 71, 64
3, 211008, Note_on_c, 1, 68, 64
3, 211008, Note_on_c, 1, 64, 64
3, 211196, Note_off_c, 1, 71, 64
3, 211196, Note_off_c, 1, 68, 64
3, 211196, Note_off_c, 1, 64, 64
3, 211392, Note_on_c, 1, 71, 64
3, 211392, Note_on_c, 1, 68, 64
3, 211392, Note_on_c, 1, 64, 64
3, 211580, Note_off_c, 1, 71, 64
3, 211580, Note_off_c, 1, 68, 64
3, 211580, Note_off_c, 1, 64, 64
3, 211584, Note_on_c, 1, 71, 64
3, 211584, Note_on_c, 1, 68, 64
3, 211584, Note_on_c, 1, 64, 64
3, 211772, Note_off_c, 1, 71, 64
3, 211772, Note_off_c, 1, 68, 64
3, 211772, Note_off_c, 1, 64, 64
3, 211776, Note_on_c, 1, 71, 64
3, 211776, Note_on_c, 1, 68, 64
3, 211776, Note_on_c, 1, 64, 64
3, 211964, Note_off_c, 1, 71, 64
3, 211964, Note_off_c, 1, 68, 64
3, 211964, Note_off_c, 1, 64, 64
3, 212160, Note_on_c, 1, 73, 64
3, 212160, Note_on_c, 1, 69, 64
3, 212160, Note_on_c, 1, 64, 64
3, 212348, Note_off_c, 1, 73, 64
3, 212348, Note_off_c, 1, 69, 64
3, 212348, Note_off_c, 1, 64, 64
3, 212352, Note_on_c, 1, 73, 64
3, 212352, Note_on_c, 1, 69, 64
3, 212352, Note_on_c, 1, 64, 64
3, 212540, Note_off_c, 1, 73, 64
3, 212540, Note_off_c, 1, 69, 64
3, 212540, Note_off_c, 1, 64, 64
3, 212544, Note_on_c, 1, 73, 64
3, 212544, Note_on_c, 1, 69, 64
3, 212544, Note_on_c, 1, 64, 64
3, 212732, Note_off_c, 1, 73, 64
3, 212732, Note_off_c, 1, 69, 64
3, 212732, Note_off_c, 1, 64, 64
3, 212928, Note_on_c, 1, 73, 69
3, 212928, Note_on_c, 1, 69, 69
3, 212928, Note_on_c, 1, 64, 69
3, 213116, Note_off_c, 1, 73, 64
3, 213116, Note_off_c, 1, 69, 64
3, 213116, Note_off_c, 1, 64, 64
3, 213120, Note_on_c, 1, 73, 73
3, 213120, Note_on_c, 1, 69, 73
3, 213120, Note_on_c, 1, 64, 73
3, 213308, Note_off_c, 1, 73, 64
3, 213308, Note_off_c, 1, 69, 64
3, 213308, Note_off_c, 1, 64, 64
3, 213312, Note_on_c, 1, 73, 78
3, 213312, Note_on_c, 1, 69, 78
3, 213312, Note_on_c, 1, 64, 78
3, 213500, Note_off_c, 1, 73, 64
3, 213500, Note_off_c, 1, 69, 64
3, 213500, Note_off_c, 1, 64, 64
3, 213504, Note_on_c, 1, 71, 82
3, 213504, Note_on_c, 1, 68, 82
3, 213504, Note_on_c, 1, 64, 82
3, 213692, Note_off_c, 1, 71, 64
3, 213692, Note_off_c, 1, 68, 64
3, 213692, Note_off_c, 1, 64, 64
3, 213696, Note_on_c, 1, 64, 82
3, 213884, Note_off_c, 1, 64, 64
3, 213888, Note_on_c, 1, 64, 82
3, 214076, Note_off_c, 1, 64, 64
3, 214080, Note_on_c, 1, 66, 82
3, 214172, Note_off_c, 1, 66, 64
3, 214176, Note_on_c, 1, 68, 82
3, 214268, Note_off_c, 1, 68, 64
3, 214272, Note_on_c, 1, 69, 82
3, 214364, Note_off_c, 1, 69, 64
3, 214368, Note_on_c, 1, 68, 82
3, 214460, Note_off_c, 1, 68, 64
3, 214464, Note_on_c, 1, 69, 82
3, 214556, Note_off_c, 1, 69, 64
3, 214560, Note_on_c, 1, 71, 82
3, 214652, Note_off_c, 1, 71, 64
3, 214656, Note_on_c, 1, 73, 82
3, 214748, Note_off_c, 1, 73, 64
3, 214752, Note_on_c, 1, 71, 82
3, 214844, Note_off_c, 1, 71, 64
3, 214848, Note_on_c, 1, 73, 82
3, 214940, Note_off_c, 1, 73, 64
3, 214944, Note_on_c, 1, 74, 82
3, 215036, Note_off_c, 1, 74, 64
3, 215040, Note_on_c, 1, 76, 82
3, 215612, Note_off_c, 1, 76, 64
3, 215616, Note_on_c, 1, 78, 82
3, 215708, Note_off_c, 1, 78, 64
3, 215712, Note_on_c, 1, 75, 82
3, 215804, Note_off_c, 1, 75, 64
3, 215808, Note_on_c, 1, 76, 82
3, 216380, Note_off_c, 1, 76, 64
3, 216384, Note_on_c, 1, 78, 82
3, 216476, Note_off_c, 1, 78, 64
3, 216480, Note_on_c, 1, 75, 82
3, 216572, Note_off_c, 1, 75, 64
3, 216576, Note_on_c, 1, 76, 82
3, 216764, Note_off_c, 1, 76, 64
3, 216768, Note_on_c, 1, 78, 82
3, 216860, Note_off_c, 1, 78, 64
3, 216864, Note_on_c, 1, 75, 82
3, 216956, Note_off_c, 1, 75, 64
3, 216960, Note_on_c, 1, 76, 82
3, 217148, Note_off_c, 1, 76, 64
3, 217152, Note_on_c, 1, 78, 82
3, 217244, Note_off_c, 1, 78, 64
3, 217248, Note_on_c, 1, 75, 82
3, 217340, Note_off_c, 1, 75, 64
3, 217344, Note_on_c, 1, 76, 82
3, 217532, Note_off_c, 1, 76, 64
3, 217536, Note_on_c, 1, 78, 82
3, 217628, Note_off_c, 1, 78, 64
3, 217632, Note_on_c, 1, 75, 82
3, 217724, Note_off_c, 1, 75, 64
3, 217728, Note_on_c, 1, 76, 82
3, 217916, Note_off_c, 1, 76, 64
3, 217920, Note_on_c, 1, 78, 82
3, 217920, Control_c, 1, 1, 50
3, 218012, Note_off_c, 1, 78, 64
3, 218016, Note_on_c, 1, 75, 82
3, 218108, Note_off_c, 1, 75, 64
3, 218112, Note_on_c, 1, 76, 82
3, 218492, Note_off_c, 1, 76, 64
3, 219648, Note_on_c, 1, 76, 65
3, 219836, Note_off_c, 1, 76, 64
3, 219840, Note_on_c, 1, 78, 67
3, 219932, Note_off_c, 1, 78, 64
3, 219936, Note_on_c, 1, 75, 68
3, 220028, Note_off_c, 1, 75, 64
3, 220032, Note_on_c, 1, 76, 69
3, 220220, Note_off_c, 1, 76, 64
3, 220224, Note_on_c, 1, 78, 71
3, 220316, Note_off_c, 1, 78, 64
3, 220320, Note_on_c, 1, 73, 73
3, 220412, Note_off_c, 1, 73, 64
3, 220416, Note_on_c, 1, 74, 74
3, 220604, Note_off_c, 1, 74, 64
3, 220608, Note_on_c, 1, 76, 77
3, 220700, Note_off_c, 1, 76, 64
3, 220704, Note_on_c, 1, 73, 78
3, 220796, Note_off_c, 1, 73, 64
3, 220800, Note_on_c, 1, 74, 79
3, 220988, Note_off_c, 1, 74, 64
3, 220992, Note_on_c, 1, 76, 81
3, 221084, Note_off_c, 1, 76, 64
3, 221088, Note_on_c, 1, 71, 82
3, 221180, Note_off_c, 1, 71, 64
3, 221184, Note_on_c, 1, 73, 82
3, 221564, Note_off_c, 1, 73, 64
3, 222528, Note_on_c, 1, 61, 64
3, 222624, Note_off_c, 1, 61, 64
3, 222720, Note_on_c, 1, 64, 64
3, 222816, Note_off_c, 1, 64, 64
3, 223104, Note_on_c, 1, 69, 64
3, 223200, Note_off_c, 1, 69, 64
3, 223488, Note_on_c, 1, 73, 64
3, 223584, Note_off_c, 1, 73, 64
3, 223872, Note_on_c, 1, 64, 64
3, 223968, Note_off_c, 1, 64, 64
3, 224256, Note_on_c, 1, 69, 64
3, 224352, Note_off_c, 1, 69, 64
3, 224640, Note_on_c, 1, 73, 64
3, 224736, Note_off_c, 1, 73, 64
3, 225024, Note_on_c, 1, 76, 64
3, 225120, Note_off_c, 1, 76, 64
3, 225408, Note_on_c, 1, 69, 64
3, 225504, Note_off_c, 1, 69, 64
3, 225792, Note_on_c, 1, 73, 64
3, 225888, Note_off_c, 1, 73, 64
3, 226176, Note_on_c, 1, 76, 64
3, 226272, Note_off_c, 1, 76, 64
3, 226560, Note_on_c, 1, 81, 64
3, 226656, Note_off_c, 1, 81, 64
3, 226944, Note_on_c, 1, 85, 64
3, 227040, Note_off_c, 1, 85, 64
3, 227328, Note_on_c, 1, 86, 82
3, 227328, Note_on_c, 1, 80, 82
3, 227328, Note_on_c, 1, 76, 82
3, 227612, Note_off_c, 1, 86, 64
3, 227616, Note_on_c, 1, 83, 87
3, 227652, Note_off_c, 1, 83, 64
3, 227664, Note_on_c, 1, 85, 87
3, 227700, Note_off_c, 1, 85, 64
3, 227712, Note_on_c, 1, 86, 82
3, 228092, Note_off_c, 1, 80, 64
3, 228092, Note_off_c, 1, 76, 64
3, 228092, Note_off_c, 1, 86, 64
3, 228480, Note_on_c, 1, 62, 64
3, 228576, Note_off_c, 1, 62, 64
3, 228864, Note_on_c, 1, 68, 64
3, 228960, Note_off_c, 1, 68, 64
3, 229248, Note_on_c, 1, 71, 64
3, 229344, Note_off_c, 1, 71, 64
3, 229632, Note_on_c, 1, 74, 64
3, 229728, Note_off_c, 1, 74, 64
3, 230016, Note_on_c, 1, 68, 64
3, 230112, Note_off_c, 1, 68, 64
3, 230400, Note_on_c, 1, 71, 64
3, 230496, Note_off_c, 1, 71, 64
3, 230784, Note_on_c, 1, 74, 64
3, 230880, Note_off_c, 1, 74, 64
3, 231168, Note_on_c, 1, 80, 64
3, 231264, Note_off_c, 1, 80, 64
3, 231552, Note_on_c, 1, 71, 64
3, 231648, Note_off_c, 1, 71, 64
3, 231936, Note_on_c, 1, 74, 64
3, 232032, Note_off_c, 1, 74, 64
3, 232320, Note_on_c, 1, 80, 64
3, 232416, Note_off_c, 1, 80, 64
3, 232704, Note_on_c, 1, 83, 64
3, 232800, Note_off_c, 1, 83, 64
3, 233088, Note_on_c, 1, 86, 64
3, 233184, Note_off_c, 1, 86, 64
3, 233472, Note_on_c, 1, 85, 82
3, 233472, Note_on_c, 1, 76, 82
3, 233756, Note_off_c, 1, 85, 64
3, 233760, Note_on_c, 1, 81, 87
3, 233796, Note_off_c, 1, 81, 64
3, 233808, Note_on_c, 1, 83, 87
3, 233844, Note_off_c, 1, 83, 64
3, 233856, Note_on_c, 1, 85, 82
3, 234236, Note_off_c, 1, 76, 64
3, 234236, Note_off_c, 1, 85, 64
3, 234240, Note_on_c, 1, 69, 82
3, 234336, Note_off_c, 1, 69, 64
3, 234432, Note_on_c, 1, 69, 82
3, 234528, Note_off_c, 1, 69, 64
3, 234624, Note_on_c, 1, 71, 82
3, 234716, Note_off_c, 1, 71, 64
3, 234720, Note_on_c, 1, 69, 82
3, 234812, Note_off_c, 1, 69, 64
3, 234816, Note_on_c, 1, 68, 82
3, 234908, Note_off_c, 1, 68, 64
3, 234912, Note_on_c, 1, 69, 82
3, 235004, Note_off_c, 1, 69, 64
3, 235008, Note_on_c, 1, 66, 82
3, 235104, Note_off_c, 1, 66, 64
3, 235200, Note_on_c, 1, 66, 82
3, 235296, Note_off_c, 1, 66, 64
3, 235392, Note_on_c, 1, 68, 82
3, 235484, Note_off_c, 1, 68, 64
3, 235488, Note_on_c, 1, 66, 82
3, 235580, Note_off_c, 1, 66, 64
3, 235584, Note_on_c, 1, 64, 82
3, 235676, Note_off_c, 1, 64, 64
3, 235680, Note_on_c, 1, 66, 82
3, 235772, Note_off_c, 1, 66, 64
3, 235776, Note_on_c, 1, 64, 82
3, 235872, Note_off_c, 1, 64, 64
3, 235968, Note_on_c, 1, 64, 82
3, 236064, Note_off_c, 1, 64, 64
3, 236160, Note_on_c, 1, 66, 82
3, 236252, Note_off_c, 1, 66, 64
3, 236256, Note_on_c, 1, 64, 82
3, 236348, Note_off_c, 1, 64, 64
3, 236352, Note_on_c, 1, 63, 82
3, 236352, Control_c, 1, 1, 50
3, 236444, Note_off_c, 1, 63, 64
3, 236448, Note_on_c, 1, 64, 82
3, 236540, Note_off_c, 1, 64, 64
3, 236544, Note_on_c, 1, 63, 82
3, 236924, Note_off_c, 1, 63, 64
3, 237120, Program_c, 1, 48
3, 237696, Note_on_c, 1, 63, 64
3, 238076, Note_off_c, 1, 63, 64
3, 238080, Note_on_c, 1, 64, 64
3, 238460, Note_off_c, 1, 64, 64
3, 238464, Note_on_c, 1, 76, 64
3, 238844, Note_off_c, 1, 76, 64
3, 239232, Note_on_c, 1, 61, 64
3, 239612, Note_off_c, 1, 61, 64
3, 239616, Note_on_c, 1, 62, 64
3, 239996, Note_off_c, 1, 62, 64
3, 240000, Note_on_c, 1, 74, 64
3, 240380, Note_off_c, 1, 74, 64
3, 240384, Note_on_c, 1, 69, 64
3, 240384, Note_on_c, 1, 64, 64
3, 240480, Note_off_c, 1, 69, 64
3, 240480, Note_off_c, 1, 64, 64
3, 240576, Note_on_c, 1, 69, 64
3, 240576, Note_on_c, 1, 64, 64
3, 240672, Note_off_c, 1, 69, 64
3, 240672, Note_off_c, 1, 64, 64
3, 240768, Note_on_c, 1, 69, 64
3, 240768, Note_on_c, 1, 64, 64
3, 240864, Note_off_c, 1, 69, 64
3, 240864, Note_off_c, 1, 64, 64
3, 240960, Note_on_c, 1, 69, 64
3, 240960, Note_on_c, 1, 64, 64
3, 241056, Note_off_c, 1, 69, 64
3, 241056, Note_off_c, 1, 64, 64
3, 241152, Note_on_c, 1, 69, 82
3, 241152, Note_on_c, 1, 66, 82
3, 241344, Note_on_c, 1, 71, 64
3, 241532, Note_off_c, 1, 69, 64
3, 241532, Note_off_c, 1, 66, 64
3, 241532, Note_off_c, 1, 71, 64
3, 241536, Note_on_c, 1, 71, 64
3, 241536, Note_on_c, 1, 69, 64
3, 241536, Note_on_c, 1, 66, 64
3, 241724, Note_off_c, 1, 71, 64
3, 241724, Note_off_c, 1, 69, 64
3, 241724, Note_off_c, 1, 66, 64
3, 241728, Note_on_c, 1, 71, 64
3, 241728, Note_on_c, 1, 69, 64
3, 241728, Note_on_c, 1, 66, 64
3, 241916, Note_off_c, 1, 71, 64
3, 241916, Note_off_c, 1, 69, 64
3, 241916, Note_off_c, 1, 66, 64
3, 241920, Note_on_c, 1, 71, 64
3, 241920, Note_on_c, 1, 69, 64
3, 241920, Note_on_c, 1, 66, 64
3, 242108, Note_off_c, 1, 71, 64
3, 242108, Note_off_c, 1, 69, 64
3, 242108, Note_off_c, 1, 66, 64
3, 242112, Note_on_c, 1, 71, 64
3, 242112, Note_on_c, 1, 69, 64
3, 242112, Note_on_c, 1, 66, 64
3, 242300, Note_off_c, 1, 71, 64
3, 242300, Note_off_c, 1, 69, 64
3, 242300, Note_off_c, 1, 66, 64
3, 242304, Note_on_c, 1, 71, 64
3, 242304, Note_on_c, 1, 69, 64
3, 242304, Note_on_c, 1, 66, 64
3, 242492, Note_off_c, 1, 71, 64
3, 242492, Note_off_c, 1, 69, 64
3, 242492, Note_off_c, 1, 66, 64
3, 242496, Note_on_c, 1, 71, 64
3, 242496, Note_on_c, 1, 69, 64
3, 242496, Note_on_c, 1, 66, 64
3, 242684, Note_off_c, 1, 71, 64
3, 242684, Note_off_c, 1, 69, 64
3, 242684, Note_off_c, 1, 66, 64
3, 242688, Note_on_c, 1, 71, 82
3, 242688, Note_on_c, 1, 69, 82
3, 242688, Note_on_c, 1, 64, 82
3, 242876, Note_off_c, 1, 71, 64
3, 242876, Note_off_c, 1, 69, 64
3, 242876, Note_off_c, 1, 64, 64
3, 242880, Note_on_c, 1, 73, 64
3, 242880, Note_on_c, 1, 69, 64
3, 242880, Note_on_c, 1, 67, 64
3, 243068, Note_off_c, 1, 73, 64
3, 243068, Note_off_c, 1, 69, 64
3, 243068, Note_off_c, 1, 67, 64
3, 243072, Note_on_c, 1, 73, 64
3, 243072, Note_on_c, 1, 69, 64
3, 243072, Note_on_c, 1, 67, 64
3, 243260, Note_off_c, 1, 73, 64
3, 243260, Note_off_c, 1, 69, 64
3, 243260, Note_off_c, 1, 67, 64
3, 243264, Note_on_c, 1, 73, 64
3, 243264, Note_on_c, 1, 69, 64
3, 243264, Note_on_c, 1, 67, 64
3, 243452, Note_off_c, 1, 73, 64
3, 243452, Note_off_c, 1, 69, 64
3, 243452, Note_off_c, 1, 67, 64
3, 243456, Note_on_c, 1, 73, 64
3, 243456, Note_on_c, 1, 69, 64
3, 243456, Note_on_c, 1, 67, 64
3, 243644, Note_off_c, 1, 73, 64
3, 243644, Note_off_c, 1, 69, 64
3, 243644, Note_off_c, 1, 67, 64
3, 243648, Note_on_c, 1, 73, 64
3, 243648, Note_on_c, 1, 69, 64
3, 243648, Note_on_c, 1, 67, 64
3, 243836, Note_off_c, 1, 73, 64
3, 243836, Note_off_c, 1, 69, 64
3, 243836, Note_off_c, 1, 67, 64
3, 243840, Note_on_c, 1, 73, 64
3, 243840, Note_on_c, 1, 69, 64
3, 243840, Note_on_c, 1, 67, 64
3, 244028, Note_off_c, 1, 73, 64
3, 244028, Note_off_c, 1, 69, 64
3, 244028, Note_off_c, 1, 67, 64
3, 244032, Note_on_c, 1, 73, 64
3, 244032, Note_on_c, 1, 69, 64
3, 244032, Note_on_c, 1, 67, 64
3, 244220, Note_off_c, 1, 73, 64
3, 244220, Note_off_c, 1, 69, 64
3, 244220, Note_off_c, 1, 67, 64
3, 244224, Note_on_c, 1, 73, 82
3, 244224, Note_on_c, 1, 69, 82
3, 244224, Note_on_c, 1, 66, 82
3, 244412, Note_off_c, 1, 73, 64
3, 244412, Note_off_c, 1, 69, 64
3, 244412, Note_off_c, 1, 66, 64
3, 244416, Note_on_c, 1, 74, 64
3, 244416, Note_on_c, 1, 69, 64
3, 244416, Note_on_c, 1, 62, 64
3, 244604, Note_off_c, 1, 74, 64
3, 244604, Note_off_c, 1, 69, 64
3, 244604, Note_off_c, 1, 62, 64
3, 244608, Note_on_c, 1, 74, 64
3, 244608, Note_on_c, 1, 69, 64
3, 244608, Note_on_c, 1, 62, 64
3, 244796, Note_off_c, 1, 74, 64
3, 244796, Note_off_c, 1, 69, 64
3, 244796, Note_off_c, 1, 62, 64
3, 244800, Note_on_c, 1, 74, 64
3, 244800, Note_on_c, 1, 69, 64
3, 244800, Note_on_c, 1, 62, 64
3, 244988, Note_off_c, 1, 74, 64
3, 244988, Note_off_c, 1, 69, 64
3, 244988, Note_off_c, 1, 62, 64
3, 244992, Note_on_c, 1, 74, 66
3, 244992, Note_on_c, 1, 69, 66
3, 244992, Note_on_c, 1, 62, 66
3, 245180, Note_off_c, 1, 74, 64
3, 245180, Note_off_c, 1, 69, 64
3, 245180, Note_off_c, 1, 62, 64
3, 245184, Note_on_c, 1, 74, 68
3, 245184, Note_on_c, 1, 69, 68
3, 245184, Note_on_c, 1, 62, 68
3, 245372, Note_off_c, 1, 74, 64
3, 245372, Note_off_c, 1, 69, 64
3, 245372, Note_off_c, 1, 62, 64
3, 245376, Note_on_c, 1, 70, 69
3, 245376, Note_on_c, 1, 65, 69
3, 245376, Note_on_c, 1, 62, 69
3, 245564, Note_off_c, 1, 70, 64
3, 245564, Note_off_c, 1, 65, 64
3, 245564, Note_off_c, 1, 62, 64
3, 245568, Note_on_c, 1, 69, 71
3, 245568, Note_on_c, 1, 65, 71
3, 245568, Note_on_c, 1, 62, 71
3, 245756, Note_off_c, 1, 69, 64
3, 245756, Note_off_c, 1, 65, 64
3, 245756, Note_off_c, 1, 62, 64
3, 245760, Note_on_c, 1, 68, 73
3, 245760, Note_on_c, 1, 64, 73
3, 245760, Note_on_c, 1, 59, 73
3, 245856, Note_off_c, 1, 68, 64
3, 245856, Note_off_c, 1, 64, 64
3, 245856, Note_off_c, 1, 59, 64
3, 246144, Note_on_c, 1, 74, 73
3, 246144, Note_on_c, 1, 68, 73
3, 246240, Note_off_c, 1, 74, 64
3, 246240, Note_off_c, 1, 68, 64
3, 246528, Note_on_c, 1, 75, 73
3, 246528, Note_on_c, 1, 69, 73
3, 246624, Note_off_c, 1, 75, 64
3, 246624, Note_off_c, 1, 69, 64
3, 246912, Note_on_c, 1, 69, 73
3, 246912, Note_on_c, 1, 66, 73
3, 247008, Note_off_c, 1, 69, 64
3, 247008, Note_off_c, 1, 66, 64
3, 247296, Note_on_c, 1, 73, 73
3, 247296, Note_on_c, 1, 69, 73
3, 247296, Note_on_c, 1, 64, 73
3, 247484, Note_off_c, 1, 73, 64
3, 247484, Note_off_c, 1, 69, 64
3, 247484, Note_off_c, 1, 64, 64
3, 247488, Note_on_c, 1, 73, 73
3, 247488, Note_on_c, 1, 69, 73
3, 247488, Note_on_c, 1, 64, 73
3, 247676, Note_off_c, 1, 73, 64
3, 247676, Note_off_c, 1, 69, 64
3, 247676, Note_off_c, 1, 64, 64
3, 247680, Note_on_c, 1, 73, 73
3, 247680, Note_on_c, 1, 69, 73
3, 247680, Note_on_c, 1, 64, 73
3, 247868, Note_off_c, 1, 73, 64
3, 247868, Note_off_c, 1, 69, 64
3, 247868, Note_off_c, 1, 64, 64
3, 247872, Note_on_c, 1, 73, 73
3, 247872, Note_on_c, 1, 69, 73
3, 247872, Note_on_c, 1, 64, 73
3, 248060, Note_off_c, 1, 73, 64
3, 248060, Note_off_c, 1, 69, 64
3, 248060, Note_off_c, 1, 64, 64
3, 248064, Note_on_c, 1, 64, 73
3, 248064, Note_on_c, 1, 62, 73
3, 248064, Note_on_c, 1, 68, 73
3, 248252, Note_off_c, 1, 64, 64
3, 248252, Note_off_c, 1, 62, 64
3, 248252, Note_off_c, 1, 68, 64
3, 248256, Note_on_c, 1, 68, 73
3, 248256, Note_on_c, 1, 64, 73
3, 248256, Note_on_c, 1, 62, 73
3, 248444, Note_off_c, 1, 68, 64
3, 248444, Note_off_c, 1, 64, 64
3, 248444, Note_off_c, 1, 62, 64
3, 248448, Note_on_c, 1, 68, 73
3, 248448, Note_on_c, 1, 64, 73
3, 248448, Note_on_c, 1, 62, 73
3, 248636, Note_off_c, 1, 68, 64
3, 248636, Note_off_c, 1, 64, 64
3, 248636, Note_off_c, 1, 62, 64
3, 248640, Note_on_c, 1, 68, 73
3, 248640, Note_on_c, 1, 64, 73
3, 248640, Note_on_c, 1, 62, 73
3, 248828, Note_off_c, 1, 68, 64
3, 248828, Note_off_c, 1, 64, 64
3, 248828, Note_off_c, 1, 62, 64
3, 248832, Note_on_c, 1, 69, 73
3, 248832, Note_on_c, 1, 64, 73
3, 248832, Note_on_c, 1, 61, 73
3, 249212, Note_off_c, 1, 69, 64
3, 249212, Note_off_c, 1, 64, 64
3, 249212, Note_off_c, 1, 61, 64
3, 249216, Note_on_c, 1, 76, 82
3, 249312, Note_off_c, 1, 76, 64
3, 249408, Note_on_c, 1, 73, 82
3, 249504, Note_off_c, 1, 73, 64
3, 249600, Note_on_c, 1, 69, 82
3, 249696, Note_off_c, 1, 69, 64
3, 249792, Note_on_c, 1, 73, 82
3, 249888, Note_off_c, 1, 73, 64
3, 249984, Note_on_c, 1, 64, 82
3, 250080, Note_off_c, 1, 64, 64
3, 250176, Note_on_c, 1, 69, 82
3, 250272, Note_off_c, 1, 69, 64
3, 250368, Note_on_c, 1, 61, 82
3, 250748, Note_off_c, 1, 61, 64
3, 250752, Note_on_c, 1, 73, 82
3, 250848, Note_off_c, 1, 73, 64
3, 250944, Note_on_c, 1, 69, 82
3, 251040, Note_off_c, 1, 69, 64
3, 251136, Note_on_c, 1, 64, 82
3, 251232, Note_off_c, 1, 64, 64
3, 251328, Note_on_c, 1, 69, 82
3, 251424, Note_off_c, 1, 69, 64
3, 251520, Note_on_c, 1, 61, 82
3, 251616, Note_off_c, 1, 61, 64
3, 251712, Note_on_c, 1, 64, 82
3, 251712, Control_c, 1, 1, 50
3, 251808, Note_off_c, 1, 64, 64
3, 251904, Note_on_c, 1, 57, 82
3, 252476, Note_off_c, 1, 57, 64
3, 252480, Note_on_c, 1, 61, 82
3, 252572, Note_off_c, 1, 61, 64
3, 252576, Note_on_c, 1, 64, 82
3, 252668, Note_off_c, 1, 64, 64
3, 252672, Note_on_c, 1, 69, 82
3, 253052, Note_off_c, 1, 69, 64
3, 253824, Note_on_c, 1, 76, 64
3, 253824, Note_on_c, 1, 73, 64
3, 254204, Note_off_c, 1, 76, 64
3, 254204, Note_off_c, 1, 73, 64
3, 254208, Note_on_c, 1, 74, 64
3, 254208, Note_on_c, 1, 71, 64
3, 254588, Note_off_c, 1, 74, 64
3, 254588, Note_off_c, 1, 71, 64
3, 254592, Note_on_c, 1, 73, 64
3, 254592, Note_on_c, 1, 69, 64
3, 254972, Note_off_c, 1, 73, 64
3, 254972, Note_off_c, 1, 69, 64
3, 254976, Note_on_c, 1, 71, 64
3, 254976, Note_on_c, 1, 68, 64
3, 255356, Note_off_c, 1, 71, 64
3, 255356, Note_off_c, 1, 68, 64
3, 256896, Note_on_c, 1, 81, 64
3, 256896, Note_on_c, 1, 78, 64
3, 257276, Note_off_c, 1, 81, 64
3, 257276, Note_off_c, 1, 78, 64
3, 257280, Note_on_c, 1, 80, 64
3, 257280, Note_on_c, 1, 76, 64
3, 257660, Note_off_c, 1, 80, 64
3, 257660, Note_off_c, 1, 76, 64
3, 257664, Note_on_c, 1, 78, 64
3, 257664, Note_on_c, 1, 74, 64
3, 258044, Note_off_c, 1, 78, 64
3, 258044, Note_off_c, 1, 74, 64
3, 258048, Note_on_c, 1, 76, 64
3, 258048, Note_on_c, 1, 73, 64
3, 258428, Note_off_c, 1, 76, 64
3, 258428, Note_off_c, 1, 73, 64
3, 259968, Note_on_c, 1, 73, 64
3, 259968, Note_on_c, 1, 69, 64
3, 260348, Note_off_c, 1, 73, 64
3, 260352, Note_on_c, 1, 74, 64
3, 260732, Note_off_c, 1, 69, 64
3, 260732, Note_off_c, 1, 74, 64
3, 260736, Note_on_c, 1, 69, 64
3, 261116, Note_off_c, 1, 69, 64
3, 261120, Note_on_c, 1, 69, 64
3, 261692, Note_off_c, 1, 69, 64
3, 261696, Note_on_c, 1, 74, 64
3, 261788, Note_off_c, 1, 74, 64
3, 261792, Note_on_c, 1, 78, 64
3, 261884, Note_off_c, 1, 78, 64
3, 261888, Note_on_c, 1, 81, 64
3, 262268, Note_off_c, 1, 81, 64
3, 262464, Note_on_c, 1, 61, 64
3, 262556, Note_off_c, 1, 61, 64
3, 262560, Note_on_c, 1, 64, 64
3, 262652, Note_off_c, 1, 64, 64
3, 262656, Note_on_c, 1, 69, 64
3, 262656, Note_on_c, 1, 69, 64
3, 263036, Note_off_c, 1, 69, 64
3, 263228, Note_off_c, 1, 69, 64
3, 263232, Note_on_c, 1, 73, 64
3, 263324, Note_off_c, 1, 73, 64
3, 263328, Note_on_c, 1, 76, 64
3, 263420, Note_off_c, 1, 76, 64
3, 263424, Note_on_c, 1, 81, 64
3, 263804, Note_off_c, 1, 81, 64
3, 264000, Note_on_c, 1, 61, 64
3, 264092, Note_off_c, 1, 61, 64
3, 264096, Note_on_c, 1, 64, 64
3, 264188, Note_off_c, 1, 64, 64
3, 264192, Note_on_c, 1, 69, 64
3, 264192, Note_on_c, 1, 66, 64
3, 264192, Note_on_c, 1, 59, 64
3, 264572, Note_off_c, 1, 69, 64
3, 264572, Note_off_c, 1, 66, 64
3, 264572, Note_off_c, 1, 59, 64
3, 264960, Note_on_c, 1, 66, 64
3, 264960, Note_on_c, 1, 59, 64
3, 264960, Note_on_c, 1, 69, 64
3, 265340, Note_off_c, 1, 66, 64
3, 265340, Note_off_c, 1, 59, 64
3, 265340, Note_off_c, 1, 69, 64
3, 265728, Note_on_c, 1, 69, 64
3, 265728, Note_on_c, 1, 66, 64
3, 265728, Note_on_c, 1, 59, 64
3, 265916, Note_off_c, 1, 69, 64
3, 265916, Note_off_c, 1, 66, 64
3, 265916, Note_off_c, 1, 59, 64
3, 265920, Note_on_c, 1, 69, 64
3, 265920, Note_on_c, 1, 66, 64
3, 265920, Note_on_c, 1, 59, 64
3, 266108, Note_off_c, 1, 69, 64
3, 266108, Note_off_c, 1, 66, 64
3, 266108, Note_off_c, 1, 59, 64
3, 266112, Note_on_c, 1, 69, 64
3, 266112, Note_on_c, 1, 66, 64
3, 266112, Note_on_c, 1, 59, 64
3, 266300, Note_off_c, 1, 69, 64
3, 266300, Note_off_c, 1, 66, 64
3, 266300, Note_off_c, 1, 59, 64
3, 266304, Note_on_c, 1, 69, 64
3, 266304, Note_on_c, 1, 66, 64
3, 266304, Note_on_c, 1, 59, 64
3, 266492, Note_off_c, 1, 69, 64
3, 266492, Note_off_c, 1, 66, 64
3, 266492, Note_off_c, 1, 59, 64
3, 266496, Note_on_c, 1, 69, 64
3, 266496, Note_on_c, 1, 66, 64
3, 266496, Note_on_c, 1, 59, 64
3, 266684, Note_off_c, 1, 69, 64
3, 266684, Note_off_c, 1, 66, 64
3, 266684, Note_off_c, 1, 59, 64
3, 266688, Note_on_c, 1, 69, 64
3, 266688, Note_on_c, 1, 66, 64
3, 266688, Note_on_c, 1, 59, 64
3, 266876, Note_off_c, 1, 69, 64
3, 266876, Note_off_c, 1, 66, 64
3, 266876, Note_off_c, 1, 59, 64
3, 266880, Note_on_c, 1, 66, 64
3, 266880, Note_on_c, 1, 59, 64
3, 266880, Note_on_c, 1, 57, 64
3, 267068, Note_off_c, 1, 66, 64
3, 267068, Note_off_c, 1, 59, 64
3, 267068, Note_off_c, 1, 57, 64
3, 267072, Note_on_c, 1, 66, 64
3, 267072, Note_on_c, 1, 59, 64
3, 267072, Note_on_c, 1, 57, 64
3, 267260, Note_off_c, 1, 66, 64
3, 267260, Note_off_c, 1, 59, 64
3, 267260, Note_off_c, 1, 57, 64
3, 267264, Note_on_c, 1, 64, 64
3, 267264, Note_on_c, 1, 59, 64
3, 267264, Note_on_c, 1, 56, 64
3, 267644, Note_off_c, 1, 64, 64
3, 267644, Note_off_c, 1, 59, 64
3, 267644, Note_off_c, 1, 56, 64
3, 267648, Note_on_c, 1, 76, 82
3, 267740, Note_off_c, 1, 76, 64
3, 267744, Note_on_c, 1, 75, 82
3, 267836, Note_off_c, 1, 75, 64
3, 267840, Note_on_c, 1, 76, 82
3, 267932, Note_off_c, 1, 76, 64
3, 267936, Note_on_c, 1, 75, 82
3, 268028, Note_off_c, 1, 75, 64
3, 268032, Note_on_c, 1, 76, 82
3, 268128, Note_off_c, 1, 76, 64
3, 268224, Note_on_c, 1, 71, 82
3, 268320, Note_off_c, 1, 71, 64
3, 268416, Note_on_c, 1, 74, 82
3, 268508, Note_off_c, 1, 74, 64
3, 268512, Note_on_c, 1, 73, 82
3, 268604, Note_off_c, 1, 73, 64
3, 268608, Note_on_c, 1, 71, 82
3, 268700, Note_off_c, 1, 71, 64
3, 268704, Note_on_c, 1, 69, 82
3, 268796, Note_off_c, 1, 69, 64
3, 268800, Note_on_c, 1, 68, 82
3, 268896, Note_off_c, 1, 68, 64
3, 268992, Note_on_c, 1, 64, 82
3, 269088, Note_off_c, 1, 64, 64
3, 269184, Note_on_c, 1, 76, 82
3, 269276, Note_off_c, 1, 76, 64
3, 269280, Note_on_c, 1, 75, 82
3, 269372, Note_off_c, 1, 75, 64
3, 269376, Note_on_c, 1, 76, 82
3, 269468, Note_off_c, 1, 76, 64
3, 269472, Note_on_c, 1, 75, 82
3, 269564, Note_off_c, 1, 75, 64
3, 269568, Note_on_c, 1, 76, 82
3, 269664, Note_off_c, 1, 76, 64
3, 269760, Note_on_c, 1, 71, 82
3, 269856, Note_off_c, 1, 71, 64
3, 269952, Note_on_c, 1, 74, 82
3, 270044, Note_off_c, 1, 74, 64
3, 270048, Note_on_c, 1, 73, 82
3, 270140, Note_off_c, 1, 73, 64
3, 270144, Note_on_c, 1, 71, 82
3, 270144, Control_c, 1, 1, 50
3, 270236, Note_off_c, 1, 71, 64
3, 270240, Note_on_c, 1, 69, 82
3, 270332, Note_off_c, 1, 69, 64
3, 270336, Note_on_c, 1, 76, 82
3, 270336, Note_on_c, 1, 71, 82
3, 270336, Note_on_c, 1, 68, 82
3, 270716, Note_off_c, 1, 76, 64
3, 270716, Note_off_c, 1, 71, 64
3, 270716, Note_off_c, 1, 68, 64
3, 271296, Note_on_c, 1, 68, 64
3, 271296, Note_on_c, 1, 64, 64
3, 271392, Note_off_c, 1, 68, 64
3, 271392, Note_off_c, 1, 64, 64
3, 271488, Note_on_c, 1, 69, 64
3, 271488, Note_on_c, 1, 64, 64
3, 271584, Note_off_c, 1, 69, 64
3, 271584, Note_off_c, 1, 64, 64
3, 271680, Note_on_c, 1, 71, 64
3, 271680, Note_on_c, 1, 64, 64
3, 271776, Note_off_c, 1, 71, 64
3, 271776, Note_off_c, 1, 64, 64
3, 271872, Note_on_c, 1, 73, 64
3, 271872, Note_on_c, 1, 64, 64
3, 272252, Note_off_c, 1, 73, 64
3, 272252, Note_off_c, 1, 64, 64
3, 272832, Note_on_c, 1, 76, 64
3, 272832, Note_on_c, 1, 73, 64
3, 272832, Note_on_c, 1, 69, 64
3, 272928, Note_off_c, 1, 76, 64
3, 272928, Note_off_c, 1, 73, 64
3, 272928, Note_off_c, 1, 69, 64
3, 273024, Note_on_c, 1, 76, 64
3, 273024, Note_on_c, 1, 73, 64
3, 273024, Note_on_c, 1, 69, 64
3, 273120, Note_off_c, 1, 76, 64
3, 273120, Note_off_c, 1, 73, 64
3, 273120, Note_off_c, 1, 69, 64
3, 273216, Note_on_c, 1, 76, 64
3, 273216, Note_on_c, 1, 73, 64
3, 273216, Note_on_c, 1, 69, 64
3, 273312, Note_off_c, 1, 76, 64
3, 273312, Note_off_c, 1, 73, 64
3, 273312, Note_off_c, 1, 69, 64
3, 273408, Note_on_c, 1, 76, 64
3, 273408, Note_on_c, 1, 71, 64
3, 273408, Note_on_c, 1, 68, 64
3, 273596, Note_off_c, 1, 71, 64
3, 273600, Note_on_c, 1, 74, 64
3, 273788, Note_off_c, 1, 76, 64
3, 273788, Note_off_c, 1, 68, 64
3, 273788, Note_off_c, 1, 74, 64
3, 274368, Note_on_c, 1, 69, 64
3, 274368, Note_on_c, 1, 64, 64
3, 274464, Note_off_c, 1, 69, 64
3, 274464, Note_off_c, 1, 64, 64
3, 274560, Note_on_c, 1, 68, 64
3, 274560, Note_on_c, 1, 64, 64
3, 274656, Note_off_c, 1, 68, 64
3, 274656, Note_off_c, 1, 64, 64
3, 274752, Note_on_c, 1, 69, 64
3, 274752, Note_on_c, 1, 64, 64
3, 274848, Note_off_c, 1, 69, 64
3, 274848, Note_off_c, 1, 64, 64
3, 274944, Note_on_c, 1, 71, 64
3, 274944, Note_on_c, 1, 64, 64
3, 275324, Note_off_c, 1, 71, 64
3, 275324, Note_off_c, 1, 64, 64
3, 275904, Note_on_c, 1, 74, 64
3, 275904, Note_on_c, 1, 71, 64
3, 276000, Note_off_c, 1, 74, 64
3, 276000, Note_off_c, 1, 71, 64
3, 276096, Note_on_c, 1, 74, 64
3, 276096, Note_on_c, 1, 71, 64
3, 276192, Note_off_c, 1, 74, 64
3, 276192, Note_off_c, 1, 71, 64
3, 276288, Note_on_c, 1, 74, 64
3, 276288, Note_on_c, 1, 71, 64
3, 276384, Note_off_c, 1, 74, 64
3, 276384, Note_off_c, 1, 71, 64
3, 276480, Note_on_c, 1, 73, 64
3, 276480, Note_on_c, 1, 69, 64
3, 276668, Note_off_c, 1, 73, 64
3, 276668, Note_off_c, 1, 69, 64
3, 276672, Note_on_c, 1, 76, 64
3, 276860, Note_off_c, 1, 76, 64
3, 276864, Note_on_c, 1, 76, 64
3, 277052, Note_off_c, 1, 76, 64
3, 277056, Note_on_c, 1, 76, 64
3, 277244, Note_off_c, 1, 76, 64
3, 277248, Note_on_c, 1, 78, 64
3, 277248, Note_on_c, 1, 69, 64
3, 277340, Note_off_c, 1, 78, 64
3, 277344, Note_on_c, 1, 76, 64
3, 277436, Note_off_c, 1, 76, 64
3, 277440, Note_on_c, 1, 74, 64
3, 277532, Note_off_c, 1, 74, 64
3, 277536, Note_on_c, 1, 73, 64
3, 277628, Note_off_c, 1, 69, 64
3, 277628, Note_off_c, 1, 73, 64
3, 277632, Note_on_c, 1, 71, 64
3, 277728, Note_off_c, 1, 71, 64
3, 277824, Note_on_c, 1, 69, 64
3, 277920, Note_off_c, 1, 69, 64
3, 278016, Note_on_c, 1, 81, 64
3, 278016, Note_on_c, 1, 69, 64
3, 278204, Note_off_c, 1, 81, 64
3, 278204, Note_off_c, 1, 69, 64
3, 278208, Note_on_c, 1, 78, 64
3, 278396, Note_off_c, 1, 78, 64
3, 278400, Note_on_c, 1, 78, 64
3, 278496, Note_off_c, 1, 78, 64
3, 278592, Note_on_c, 1, 78, 64
3, 278688, Note_off_c, 1, 78, 64
3, 278784, Note_on_c, 1, 74, 64
3, 278784, Note_on_c, 1, 80, 64
3, 278876, Note_off_c, 1, 80, 64
3, 278880, Note_on_c, 1, 78, 64
3, 278972, Note_off_c, 1, 74, 64
3, 278972, Note_off_c, 1, 78, 64
3, 278976, Note_on_c, 1, 76, 64
3, 279068, Note_off_c, 1, 76, 64
3, 279072, Note_on_c, 1, 74, 64
3, 279164, Note_off_c, 1, 74, 64
3, 279168, Note_on_c, 1, 73, 64
3, 279264, Note_off_c, 1, 73, 64
3, 279360, Note_on_c, 1, 71, 64
3, 279456, Note_off_c, 1, 71, 64
3, 279552, Note_on_c, 1, 69, 64
3, 279552, Note_on_c, 1, 66, 64
3, 279740, Note_off_c, 1, 69, 64
3, 279740, Note_off_c, 1, 66, 64
3, 279744, Note_on_c, 1, 68, 64
3, 279744, Note_on_c, 1, 64, 64
3, 279932, Note_off_c, 1, 68, 64
3, 279932, Note_off_c, 1, 64, 64
3, 279936, Note_on_c, 1, 73, 64
3, 279936, Note_on_c, 1, 69, 64
3, 280124, Note_off_c, 1, 73, 64
3, 280124, Note_off_c, 1, 69, 64
3, 280128, Note_on_c, 1, 71, 64
3, 280128, Note_on_c, 1, 68, 64
3, 280316, Note_off_c, 1, 71, 64
3, 280316, Note_off_c, 1, 68, 64
3, 280320, Note_on_c, 1, 71, 64
3, 280320, Note_on_c, 1, 68, 64
3, 280700, Note_off_c, 1, 71, 64
3, 280700, Note_off_c, 1, 68, 64
3, 281088, Note_on_c, 1, 61, 64
3, 281276, Note_off_c, 1, 61, 64
3, 281280, Note_on_c, 1, 64, 64
3, 281468, Note_off_c, 1, 64, 64
3, 281472, Note_on_c, 1, 61, 64
3, 281660, Note_off_c, 1, 61, 64
3, 281664, Note_on_c, 1, 64, 64
3, 281852, Note_off_c, 1, 64, 64
3, 281856, Note_on_c, 1, 61, 64
3, 282044, Note_off_c, 1, 61, 64
3, 282048, Note_on_c, 1, 64, 64
3, 282236, Note_off_c, 1, 64, 64
3, 282240, Note_on_c, 1, 61, 64
3, 282428, Note_off_c, 1, 61, 64
3, 282432, Note_on_c, 1, 64, 64
3, 282620, Note_off_c, 1, 64, 64
3, 282624, Note_on_c, 1, 62, 64
3, 282812, Note_off_c, 1, 62, 64
3, 282816, Note_on_c, 1, 64, 64
3, 283004, Note_off_c, 1, 64, 64
3, 283008, Note_on_c, 1, 62, 64
3, 283196, Note_off_c, 1, 62, 64
3, 283200, Note_on_c, 1, 64, 64
3, 283388, Note_off_c, 1, 64, 64
3, 283392, Note_on_c, 1, 62, 64
3, 283580, Note_off_c, 1, 62, 64
3, 283584, Note_on_c, 1, 64, 64
3, 283772, Note_off_c, 1, 64, 64
3, 283776, Note_on_c, 1, 62, 64
3, 283964, Note_off_c, 1, 62, 64
3, 283968, Note_on_c, 1, 64, 64
3, 284156, Note_off_c, 1, 64, 64
3, 284160, Note_on_c, 1, 61, 64
3, 284348, Note_off_c, 1, 61, 64
3, 284352, Note_on_c, 1, 64, 64
3, 284540, Note_off_c, 1, 64, 64
3, 284544, Note_on_c, 1, 61, 64
3, 284732, Note_off_c, 1, 61, 64
3, 284736, Note_on_c, 1, 64, 64
3, 284924, Note_off_c, 1, 64, 64
3, 284928, Note_on_c, 1, 61, 64
3, 285116, Note_off_c, 1, 61, 64
3, 285120, Note_on_c, 1, 64, 64
3, 285308, Note_off_c, 1, 64, 64
3, 285312, Note_on_c, 1, 61, 64
3, 285500, Note_off_c, 1, 61, 64
3, 285504, Note_on_c, 1, 64, 64
3, 285692, Note_off_c, 1, 64, 64
3, 285696, Note_on_c, 1, 59, 64
3, 285884, Note_off_c, 1, 59, 64
3, 285888, Note_on_c, 1, 64, 64
3, 286076, Note_off_c, 1, 64, 64
3, 286080, Note_on_c, 1, 59, 64
3, 286268, Note_off_c, 1, 59, 64
3, 286272, Note_on_c, 1, 64, 64
3, 286460, Note_off_c, 1, 64, 64
3, 286464, Note_on_c, 1, 59, 64
3, 286652, Note_off_c, 1, 59, 64
3, 286656, Note_on_c, 1, 64, 64
3, 286844, Note_off_c, 1, 64, 64
3, 286848, Note_on_c, 1, 59, 64
3, 287036, Note_off_c, 1, 59, 64
3, 287040, Note_on_c, 1, 64, 64
3, 287228, Note_off_c, 1, 64, 64
3, 287424, Note_on_c, 1, 88, 64
3, 287424, Note_on_c, 1, 76, 64
3, 287804, Note_off_c, 1, 88, 64
3, 287808, Note_on_c, 1, 85, 64
3, 288188, Note_off_c, 1, 85, 64
3, 288192, Note_on_c, 1, 81, 64
3, 288572, Note_off_c, 1, 76, 64
3, 288572, Note_off_c, 1, 81, 64
3, 288576, Note_on_c, 1, 76, 64
3, 288764, Note_off_c, 1, 76, 64
3, 288960, Note_on_c, 1, 74, 64
3, 288960, Note_on_c, 1, 86, 64
3, 289340, Note_off_c, 1, 86, 64
3, 289344, Note_on_c, 1, 83, 64
3, 289724, Note_off_c, 1, 83, 64
3, 289728, Note_on_c, 1, 80, 64
3, 290108, Note_off_c, 1, 74, 64
3, 290108, Note_off_c, 1, 80, 64
3, 290112, Note_on_c, 1, 74, 64
3, 290300, Note_off_c, 1, 74, 64
3, 290496, Note_on_c, 1, 85, 64
3, 290496, Note_on_c, 1, 73, 64
3, 290876, Note_off_c, 1, 85, 64
3, 290880, Note_on_c, 1, 81, 64
3, 291260, Note_off_c, 1, 81, 64
3, 291264, Note_on_c, 1, 76, 64
3, 291644, Note_off_c, 1, 73, 64
3, 291644, Note_off_c, 1, 76, 64
3, 291648, Note_on_c, 1, 73, 64
3, 291836, Note_off_c, 1, 73, 64
3, 292032, Note_on_c, 1, 83, 64
3, 292032, Note_on_c, 1, 71, 64
3, 292412, Note_off_c, 1, 83, 64
3, 292416, Note_on_c, 1, 80, 64
3, 292796, Note_off_c, 1, 80, 64
3, 292800, Note_on_c, 1, 76, 64
3, 293180, Note_off_c, 1, 71, 64
3, 293180, Note_off_c, 1, 76, 64
3, 293184, Note_on_c, 1, 71, 64
3, 293372, Note_off_c, 1, 71, 64
3, 293376, Note_on_c, 1, 69, 82
3, 293564, Note_off_c, 1, 69, 64
3, 293568, Note_on_c, 1, 74, 82
3, 293756, Note_off_c, 1, 74, 64
3, 293760, Note_on_c, 1, 78, 82
3, 293948, Note_off_c, 1, 78, 64
3, 293952, Note_on_c, 1, 81, 82
3, 294140, Note_off_c, 1, 81, 64
3, 294144, Note_on_c, 1, 81, 64
3, 294144, Note_on_c, 1, 74, 64
3, 294332, Note_off_c, 1, 81, 64
3, 294332, Note_off_c, 1, 74, 64
3, 294336, Note_on_c, 1, 78, 64
3, 294716, Note_off_c, 1, 78, 64
3, 294720, Note_on_c, 1, 81, 64
3, 294908, Note_off_c, 1, 81, 64
3, 294912, Note_on_c, 1, 69, 82
3, 295100, Note_off_c, 1, 69, 64
3, 295104, Note_on_c, 1, 73, 82
3, 295292, Note_off_c, 1, 73, 64
3, 295296, Note_on_c, 1, 76, 82
3, 295484, Note_off_c, 1, 76, 64
3, 295488, Note_on_c, 1, 81, 82
3, 295676, Note_off_c, 1, 81, 64
3, 295680, Note_on_c, 1, 81, 64
3, 295868, Note_off_c, 1, 81, 64
3, 296064, Note_on_c, 1, 81, 64
3, 296252, Note_off_c, 1, 81, 64
3, 296448, Note_on_c, 1, 78, 73
3, 296448, Note_on_c, 1, 81, 73
3, 296448, Note_on_c, 1, 71, 73
3, 296636, Note_off_c, 1, 78, 64
3, 296636, Note_off_c, 1, 81, 64
3, 296636, Note_off_c, 1, 71, 64
3, 296640, Note_on_c, 1, 78, 73
3, 296640, Note_on_c, 1, 81, 73
3, 296640, Note_on_c, 1, 71, 73
3, 296828, Note_off_c, 1, 78, 64
3, 296832, Note_on_c, 1, 76, 73
3, 297020, Note_off_c, 1, 81, 64
3, 297020, Note_off_c, 1, 71, 64
3, 297020, Note_off_c, 1, 76, 64
3, 297024, Note_on_c, 1, 76, 73
3, 297024, Note_on_c, 1, 81, 73
3, 297024, Note_on_c, 1, 71, 73
3, 297212, Note_off_c, 1, 76, 64
3, 297216, Note_on_c, 1, 75, 73
3, 297404, Note_off_c, 1, 81, 64
3, 297404, Note_off_c, 1, 71, 64
3, 297404, Note_off_c, 1, 75, 64
3, 297408, Note_on_c, 1, 75, 73
3, 297408, Note_on_c, 1, 81, 73
3, 297408, Note_on_c, 1, 71, 73
3, 297596, Note_off_c, 1, 75, 64
3, 297600, Note_on_c, 1, 78, 73
3, 297788, Note_off_c, 1, 81, 64
3, 297788, Note_off_c, 1, 71, 64
3, 297788, Note_off_c, 1, 78, 64
3, 297792, Note_on_c, 1, 78, 73
3, 297792, Note_on_c, 1, 81, 73
3, 297792, Note_on_c, 1, 71, 73
3, 297980, Note_off_c, 1, 78, 64
3, 297980, Note_off_c, 1, 81, 64
3, 297980, Note_off_c, 1, 71, 64
3, 297984, Note_on_c, 1, 80, 73
3, 297984, Note_on_c, 1, 76, 73
3, 297984, Note_on_c, 1, 71, 73
3, 298172, Note_off_c, 1, 76, 64
3, 298172, Note_off_c, 1, 71, 64
3, 298364, Note_off_c, 1, 80, 64
3, 298368, Note_on_c, 1, 85, 78
3, 298556, Note_off_c, 1, 85, 64
3, 298560, Note_on_c, 1, 86, 78
3, 298748, Note_off_c, 1, 86, 64
3, 298752, Note_on_c, 1, 86, 82
3, 298752, Note_on_c, 1, 76, 82
3, 298940, Note_off_c, 1, 86, 64
3, 298940, Note_off_c, 1, 76, 64
3, 298944, Note_on_c, 1, 85, 78
3, 299132, Note_off_c, 1, 85, 64
3, 299136, Note_on_c, 1, 83, 73
3, 299232, Note_off_c, 1, 83, 64
3, 299328, Note_on_c, 1, 81, 69
3, 299424, Note_off_c, 1, 81, 64
3, 299520, Note_on_c, 1, 74, 64
3, 299616, Note_off_c, 1, 74, 64
3, 299904, Note_on_c, 1, 73, 64
3, 300000, Note_off_c, 1, 73, 64
3, 300288, Note_on_c, 1, 74, 64
3, 300384, Note_off_c, 1, 74, 64
3, 300672, Note_on_c, 1, 76, 64
3, 300768, Note_off_c, 1, 76, 64
3, 301056, Note_on_c, 1, 73, 64
3, 301056, Note_on_c, 1, 69, 64
3, 301152, Note_off_c, 1, 73, 64
3, 301152, Note_off_c, 1, 69, 64
3, 301248, Note_on_c, 1, 76, 64
3, 301248, Note_on_c, 1, 73, 64
3, 301344, Note_off_c, 1, 76, 64
3, 301344, Note_off_c, 1, 73, 64
3, 301440, Note_on_c, 1, 76, 64
3, 301440, Note_on_c, 1, 73, 64
3, 301536, Note_off_c, 1, 76, 64
3, 301536, Note_off_c, 1, 73, 64
3, 301632, Note_on_c, 1, 76, 64
3, 301632, Note_on_c, 1, 73, 64
3, 301728, Note_off_c, 1, 76, 64
3, 301728, Note_off_c, 1, 73, 64
3, 301824, Note_on_c, 1, 76, 64
3, 301824, Note_on_c, 1, 73, 64
3, 302012, Note_off_c, 1, 76, 64
3, 302012, Note_off_c, 1, 73, 64
3, 302016, Note_on_c, 1, 73, 64
3, 302016, Note_on_c, 1, 69, 64
3, 302204, Note_off_c, 1, 73, 64
3, 302204, Note_off_c, 1, 69, 64
3, 302208, Note_on_c, 1, 73, 64
3, 302208, Note_on_c, 1, 69, 64
3, 302396, Note_off_c, 1, 73, 64
3, 302396, Note_off_c, 1, 69, 64
3, 302400, Note_on_c, 1, 69, 64
3, 302400, Note_on_c, 1, 64, 64
3, 302588, Note_off_c, 1, 69, 64
3, 302588, Note_off_c, 1, 64, 64
3, 302592, Note_on_c, 1, 66, 64
3, 302592, Note_on_c, 1, 69, 64
3, 302592, Note_on_c, 1, 59, 64
3, 302688, Note_off_c, 1, 66, 64
3, 302688, Note_off_c, 1, 69, 64
3, 302688, Note_off_c, 1, 59, 64
3, 302784, Note_on_c, 1, 66, 64
3, 302784, Note_on_c, 1, 59, 64
3, 302784, Note_on_c, 1, 69, 64
3, 302880, Note_off_c, 1, 66, 64
3, 302976, Note_on_c, 1, 64, 64
3, 303072, Note_off_c, 1, 64, 64
3, 303164, Note_off_c, 1, 59, 64
3, 303164, Note_off_c, 1, 69, 64
3, 303168, Note_on_c, 1, 64, 64
3, 303168, Note_on_c, 1, 69, 64
3, 303168, Note_on_c, 1, 59, 64
3, 303264, Note_off_c, 1, 64, 64
3, 303360, Note_on_c, 1, 63, 64
3, 303456, Note_off_c, 1, 63, 64
3, 303548, Note_off_c, 1, 69, 64
3, 303548, Note_off_c, 1, 59, 64
3, 303552, Note_on_c, 1, 63, 64
3, 303552, Note_on_c, 1, 69, 64
3, 303552, Note_on_c, 1, 59, 64
3, 303648, Note_off_c, 1, 63, 64
3, 303744, Note_on_c, 1, 66, 64
3, 303840, Note_off_c, 1, 66, 64
3, 303932, Note_off_c, 1, 69, 64
3, 303932, Note_off_c, 1, 59, 64
3, 303936, Note_on_c, 1, 59, 64
3, 303936, Note_on_c, 1, 69, 64
3, 303936, Note_on_c, 1, 66, 64
3, 304032, Note_off_c, 1, 59, 64
3, 304032, Note_off_c, 1, 69, 64
3, 304032, Note_off_c, 1, 66, 64
3, 304128, Note_on_c, 1, 64, 65
3, 304128, Note_on_c, 1, 59, 65
3, 304128, Note_on_c, 1, 68, 65
3, 304316, Note_off_c, 1, 64, 64
3, 304316, Note_off_c, 1, 59, 64
3, 304508, Note_off_c, 1, 68, 64
3, 304512, Note_on_c, 1, 71, 68
3, 304700, Note_off_c, 1, 71, 64
3, 304704, Note_on_c, 1, 74, 70
3, 304892, Note_off_c, 1, 74, 64
3, 304896, Note_on_c, 1, 74, 74
3, 304896, Note_on_c, 1, 64, 74
3, 305084, Note_off_c, 1, 74, 64
3, 305084, Note_off_c, 1, 64, 64
3, 305088, Note_on_c, 1, 73, 70
3, 305276, Note_off_c, 1, 73, 64
3, 305280, Note_on_c, 1, 71, 68
3, 305376, Note_off_c, 1, 71, 64
3, 305472, Note_on_c, 1, 69, 65
3, 305568, Note_off_c, 1, 69, 64
3, 305664, Note_on_c, 1, 62, 64
3, 305760, Note_off_c, 1, 62, 64
3, 306048, Note_on_c, 1, 61, 64
3, 306144, Note_off_c, 1, 61, 64
3, 306432, Note_on_c, 1, 62, 64
3, 306528, Note_off_c, 1, 62, 64
3, 306816, Note_on_c, 1, 64, 64
3, 306912, Note_off_c, 1, 64, 64
3, 307200, Note_on_c, 1, 61, 73
3, 307580, Note_off_c, 1, 61, 64
3, 307776, Note_on_c, 1, 69, 73
3, 307776, Note_on_c, 1, 66, 73
3, 307872, Note_off_c, 1, 69, 64
3, 307872, Note_off_c, 1, 66, 64
3, 307968, Note_on_c, 1, 69, 73
3, 307968, Note_on_c, 1, 64, 73
3, 308160, Note_off_c, 1, 69, 64
3, 308160, Note_off_c, 1, 64, 64
3, 308544, Note_on_c, 1, 74, 73
3, 308544, Note_on_c, 1, 69, 73
3, 308732, Note_off_c, 1, 74, 64
3, 308732, Note_off_c, 1, 69, 64
3, 308736, Note_on_c, 1, 73, 73
3, 308736, Note_on_c, 1, 69, 73
3, 309116, Note_off_c, 1, 73, 64
3, 309116, Note_off_c, 1, 69, 64
3, 309312, Note_on_c, 1, 69, 73
3, 309312, Note_on_c, 1, 66, 73
3, 309408, Note_off_c, 1, 69, 64
3, 309408, Note_off_c, 1, 66, 64
3, 309504, Note_on_c, 1, 69, 73
3, 309504, Note_on_c, 1, 64, 73
3, 309696, Note_off_c, 1, 69, 64
3, 309696, Note_off_c, 1, 64, 64
3, 310080, Note_on_c, 1, 74, 73
3, 310080, Note_on_c, 1, 68, 73
3, 310268, Note_off_c, 1, 74, 64
3, 310268, Note_off_c, 1, 68, 64
3, 310272, Note_on_c, 1, 73, 73
3, 310272, Note_on_c, 1, 69, 73
3, 310652, Note_off_c, 1, 73, 64
3, 310652, Note_off_c, 1, 69, 64
3, 311040, Note_on_c, 1, 73, 73
3, 311040, Note_on_c, 1, 69, 73
3, 311420, Note_off_c, 1, 73, 64
3, 311420, Note_off_c, 1, 69, 64
3, 311808, Note_on_c, 1, 76, 73
3, 311808, Note_on_c, 1, 69, 73
3, 311808, Note_on_c, 1, 57, 73
3, 311996, Note_off_c, 1, 69, 64
3, 312000, Note_on_c, 1, 69, 73
3, 312188, Note_off_c, 1, 69, 64
3, 312192, Note_on_c, 1, 69, 73
3, 312380, Note_off_c, 1, 69, 64
3, 312384, Note_on_c, 1, 69, 73
3, 312572, Note_off_c, 1, 76, 64
3, 312572, Note_off_c, 1, 69, 64
3, 312576, Note_on_c, 1, 74, 73
3, 312576, Note_on_c, 1, 69, 73
3, 312764, Note_off_c, 1, 69, 64
3, 312768, Note_on_c, 1, 69, 73
3, 312956, Note_off_c, 1, 74, 64
3, 312956, Note_off_c, 1, 69, 64
3, 312960, Note_on_c, 1, 73, 73
3, 312960, Note_on_c, 1, 69, 73
3, 313148, Note_off_c, 1, 69, 64
3, 313152, Note_on_c, 1, 69, 73
3, 313340, Note_off_c, 1, 57, 64
3, 313340, Note_off_c, 1, 73, 64
3, 313340, Note_off_c, 1, 69, 64
3, 313344, Note_on_c, 1, 74, 73
3, 313344, Note_on_c, 1, 57, 73
3, 313344, Note_on_c, 1, 69, 73
3, 313532, Note_off_c, 1, 69, 64
3, 313536, Note_on_c, 1, 69, 73
3, 313724, Note_off_c, 1, 69, 64
3, 313728, Note_on_c, 1, 69, 73
3, 313916, Note_off_c, 1, 69, 64
3, 313920, Note_on_c, 1, 69, 73
3, 314108, Note_off_c, 1, 74, 64
3, 314108, Note_off_c, 1, 69, 64
3, 314112, Note_on_c, 1, 73, 73
3, 314112, Note_on_c, 1, 69, 73
3, 314300, Note_off_c, 1, 69, 64
3, 314304, Note_on_c, 1, 69, 73
3, 314492, Note_off_c, 1, 73, 64
3, 314492, Note_off_c, 1, 69, 64
3, 314496, Note_on_c, 1, 72, 73
3, 314496, Note_on_c, 1, 69, 73
3, 314684, Note_off_c, 1, 69, 64
3, 314688, Note_on_c, 1, 69, 73
3, 314876, Note_off_c, 1, 57, 64
3, 314876, Note_off_c, 1, 72, 64
3, 314876, Note_off_c, 1, 69, 64
3, 314880, Note_on_c, 1, 73, 73
3, 314880, Note_on_c, 1, 73, 73
3, 314880, Note_on_c, 1, 69, 73
3, 314880, Note_on_c, 1, 57, 73
3, 315068, Note_off_c, 1, 73, 64
3, 315068, Note_off_c, 1, 69, 64
3, 315068, Note_off_c, 1, 57, 64
3, 315072, Note_on_c, 1, 76, 73
3, 315072, Note_on_c, 1, 69, 73
3, 315072, Note_on_c, 1, 57, 73
3, 315260, Note_off_c, 1, 73, 64
3, 315260, Note_off_c, 1, 76, 64
3, 315260, Note_off_c, 1, 69, 64
3, 315260, Note_off_c, 1, 57, 64
3, 315264, Note_on_c, 1, 74, 73
3, 315264, Note_on_c, 1, 66, 73
3, 315452, Note_off_c, 1, 74, 64
3, 315452, Note_off_c, 1, 66, 64
3, 315456, Note_on_c, 1, 78, 73
3, 315456, Note_on_c, 1, 62, 73
3, 315644, Note_off_c, 1, 78, 64
3, 315644, Note_off_c, 1, 62, 64
3, 315648, Note_on_c, 1, 76, 73
3, 315648, Note_on_c, 1, 81, 73
3, 315744, Note_off_c, 1, 76, 64
3, 315744, Note_off_c, 1, 81, 64
3, 315840, Note_on_c, 1, 76, 73
3, 315840, Note_on_c, 1, 81, 73
3, 315936, Note_off_c, 1, 76, 64
3, 315936, Note_off_c, 1, 81, 64
3, 316032, Note_on_c, 1, 80, 73
3, 316032, Note_on_c, 1, 74, 73
3, 316128, Note_off_c, 1, 80, 64
3, 316128, Note_off_c, 1, 74, 64
3, 316224, Note_on_c, 1, 80, 73
3, 316224, Note_on_c, 1, 74, 73
3, 316320, Note_off_c, 1, 80, 64
3, 316320, Note_off_c, 1, 74, 64
3, 316416, Note_on_c, 1, 81, 73
3, 316416, Note_on_c, 1, 73, 73
3, 316796, Note_off_c, 1, 81, 64
3, 316796, Note_off_c, 1, 73, 64
3, 317184, Note_on_c, 1, 73, 73
3, 317184, Note_on_c, 1, 69, 73
3, 317564, Note_off_c, 1, 73, 64
3, 317564, Note_off_c, 1, 69, 64
3, 317952, Note_on_c, 1, 69, 73
3, 317952, Note_on_c, 1, 64, 73
3, 318716, Note_off_c, 1, 64, 64
3, 318720, Note_on_c, 1, 62, 73
3, 319100, Note_off_c, 1, 62, 64
3, 319104, Note_on_c, 1, 61, 73
3, 319484, Note_off_c, 1, 69, 64
3, 319484, Note_off_c, 1, 61, 64
3, 319488, Note_on_c, 1, 69, 73
3, 319488, Note_on_c, 1, 62, 73
3, 320252, Note_off_c, 1, 62, 64
3, 320256, Note_on_c, 1, 61, 73
3, 320636, Note_off_c, 1, 61, 64
3, 320640, Note_on_c, 1, 60, 73
3, 321020, Note_off_c, 1, 69, 64
3, 321020, Note_off_c, 1, 60, 64
3, 321024, Note_on_c, 1, 64, 73
3, 321024, Note_on_c, 1, 61, 73
3, 321212, Note_off_c, 1, 64, 64
3, 321216, Note_on_c, 1, 69, 73
3, 321404, Note_off_c, 1, 61, 64
3, 321404, Note_off_c, 1, 69, 64
3, 321408, Note_on_c, 1, 69, 73
3, 321408, Note_on_c, 1, 62, 73
3, 321596, Note_off_c, 1, 69, 64
3, 321596, Note_off_c, 1, 62, 64
3, 321600, Note_on_c, 1, 69, 73
3, 321600, Note_on_c, 1, 66, 73
3, 321788, Note_off_c, 1, 69, 64
3, 321788, Note_off_c, 1, 66, 64
3, 321792, Note_on_c, 1, 69, 73
3, 321792, Note_on_c, 1, 64, 73
3, 321980, Note_off_c, 1, 69, 64
3, 321980, Note_off_c, 1, 64, 64
3, 321984, Note_on_c, 1, 69, 73
3, 321984, Note_on_c, 1, 64, 73
3, 322172, Note_off_c, 1, 69, 64
3, 322172, Note_off_c, 1, 64, 64
3, 322176, Note_on_c, 1, 68, 73
3, 322176, Note_on_c, 1, 64, 73
3, 322176, Note_on_c, 1, 62, 73
3, 322364, Note_off_c, 1, 68, 64
3, 322364, Note_off_c, 1, 64, 64
3, 322364, Note_off_c, 1, 62, 64
3, 322368, Note_on_c, 1, 68, 73
3, 322368, Note_on_c, 1, 64, 73
3, 322368, Note_on_c, 1, 62, 73
3, 322556, Note_off_c, 1, 68, 64
3, 322556, Note_off_c, 1, 64, 64
3, 322556, Note_off_c, 1, 62, 64
3, 322560, Note_on_c, 1, 69, 73
3, 322560, Note_on_c, 1, 64, 73
3, 322560, Note_on_c, 1, 61, 73
3, 322656, Note_off_c, 1, 69, 64
3, 322656, Note_off_c, 1, 64, 64
3, 322656, Note_off_c, 1, 61, 64
3, 322944, Note_on_c, 1, 68, 73
3, 322944, Note_on_c, 1, 64, 73
3, 323040, Note_off_c, 1, 68, 64
3, 323040, Note_off_c, 1, 64, 64
3, 323328, Note_on_c, 1, 69, 73
3, 323328, Note_on_c, 1, 64, 73
3, 323424, Note_off_c, 1, 69, 64
3, 323424, Note_off_c, 1, 64, 64
3, 324288, Note_on_c, 1, 66, 73
3, 324288, Note_on_c, 1, 69, 73
3, 324476, Note_off_c, 1, 66, 64
3, 324476, Note_off_c, 1, 69, 64
3, 324480, Note_on_c, 1, 69, 73
3, 324480, Note_on_c, 1, 66, 73
3, 324668, Note_off_c, 1, 69, 64
3, 324668, Note_off_c, 1, 66, 64
3, 324672, Note_on_c, 1, 69, 73
3, 324672, Note_on_c, 1, 66, 73
3, 324860, Note_off_c, 1, 69, 64
3, 324860, Note_off_c, 1, 66, 64
3, 324864, Note_on_c, 1, 74, 73
3, 324864, Note_on_c, 1, 71, 73
3, 325052, Note_off_c, 1, 74, 64
3, 325052, Note_off_c, 1, 71, 64
3, 325056, Note_on_c, 1, 74, 73
3, 325056, Note_on_c, 1, 71, 73
3, 325244, Note_off_c, 1, 74, 64
3, 325244, Note_off_c, 1, 71, 64
3, 325248, Note_on_c, 1, 75, 73
3, 325248, Note_on_c, 1, 69, 73
3, 325436, Note_off_c, 1, 75, 64
3, 325436, Note_off_c, 1, 69, 64
3, 325440, Note_on_c, 1, 75, 73
3, 325440, Note_on_c, 1, 69, 73
3, 325628, Note_off_c, 1, 75, 64
3, 325628, Note_off_c, 1, 69, 64
3, 325632, Note_on_c, 1, 76, 73
3, 325632, Note_on_c, 1, 73, 73
3, 325632, Note_on_c, 1, 64, 73
3, 326012, Note_off_c, 1, 76, 64
3, 326012, Note_off_c, 1, 73, 64
3, 326012, Note_off_c, 1, 64, 64
3, 326016, Note_on_c, 1, 73, 73
3, 326016, Note_on_c, 1, 61, 73
3, 326016, Note_on_c, 1, 64, 73
3, 326396, Note_off_c, 1, 73, 64
3, 326396, Note_off_c, 1, 61, 64
3, 326400, Note_on_c, 1, 74, 73
3, 326400, Note_on_c, 1, 62, 73
3, 326780, Note_off_c, 1, 74, 64
3, 326780, Note_off_c, 1, 62, 64
3, 326784, Note_on_c, 1, 71, 73
3, 326784, Note_on_c, 1, 59, 73
3, 327164, Note_off_c, 1, 71, 64
3, 327164, Note_off_c, 1, 59, 64
3, 327168, Note_on_c, 1, 73, 73
3, 327168, Note_on_c, 1, 61, 73
3, 327548, Note_off_c, 1, 64, 64
3, 327548, Note_off_c, 1, 73, 64
3, 327548, Note_off_c, 1, 61, 64
3, 328704, Note_on_c, 1, 73, 82
3, 328704, Note_on_c, 1, 69, 82
3, 328704, Note_on_c, 1, 64, 82
3, 328892, Note_off_c, 1, 73, 64
3, 328892, Note_off_c, 1, 69, 64
3, 328892, Note_off_c, 1, 64, 64
3, 328896, Note_on_c, 1, 73, 64
3, 328896, Note_on_c, 1, 69, 64
3, 328896, Note_on_c, 1, 64, 64
3, 329084, Note_off_c, 1, 73, 64
3, 329084, Note_off_c, 1, 69, 64
3, 329084, Note_off_c, 1, 64, 64
3, 329088, Note_on_c, 1, 73, 64
3, 329088, Note_on_c, 1, 69, 64
3, 329088, Note_on_c, 1, 64, 64
3, 329276, Note_off_c, 1, 73, 64
3, 329276, Note_off_c, 1, 69, 64
3, 329276, Note_off_c, 1, 64, 64
3, 329280, Note_on_c, 1, 73, 64
3, 329280, Note_on_c, 1, 69, 64
3, 329280, Note_on_c, 1, 64, 64
3, 329468, Note_off_c, 1, 73, 64
3, 329468, Note_off_c, 1, 69, 64
3, 329468, Note_off_c, 1, 64, 64
3, 329472, Note_on_c, 1, 73, 64
3, 329472, Note_on_c, 1, 69, 64
3, 329472, Note_on_c, 1, 64, 64
3, 329660, Note_off_c, 1, 73, 64
3, 329660, Note_off_c, 1, 69, 64
3, 329660, Note_off_c, 1, 64, 64
3, 329664, Note_on_c, 1, 73, 64
3, 329664, Note_on_c, 1, 69, 64
3, 329664, Note_on_c, 1, 64, 64
3, 329852, Note_off_c, 1, 73, 64
3, 329852, Note_off_c, 1, 69, 64
3, 329852, Note_off_c, 1, 64, 64
3, 329856, Note_on_c, 1, 73, 64
3, 329856, Note_on_c, 1, 69, 64
3, 329856, Note_on_c, 1, 64, 64
3, 330044, Note_off_c, 1, 73, 64
3, 330044, Note_off_c, 1, 69, 64
3, 330044, Note_off_c, 1, 64, 64
3, 330048, Note_on_c, 1, 73, 64
3, 330048, Note_on_c, 1, 69, 64
3, 330048, Note_on_c, 1, 64, 64
3, 330236, Note_off_c, 1, 73, 64
3, 330236, Note_off_c, 1, 69, 64
3, 330236, Note_off_c, 1, 64, 64
3, 330240, Note_on_c, 1, 76, 65
3, 330240, Note_on_c, 1, 74, 65
3, 330240, Note_on_c, 1, 68, 65
3, 330336, Note_on_c, 1, 64, 66
3, 330432, Note_on_c, 1, 76, 67
3, 330432, Note_on_c, 1, 74, 67
3, 330432, Note_on_c, 1, 68, 67
3, 330524, Note_off_c, 1, 76, 64
3, 330524, Note_off_c, 1, 74, 64
3, 330524, Note_off_c, 1, 68, 64
3, 330528, Note_on_c, 1, 64, 68
3, 330620, Note_off_c, 1, 64, 64
3, 330624, Note_on_c, 1, 76, 69
3, 330624, Note_on_c, 1, 74, 69
3, 330624, Note_on_c, 1, 68, 69
3, 330716, Note_off_c, 1, 76, 64
3, 330716, Note_off_c, 1, 74, 64
3, 330716, Note_off_c, 1, 68, 64
3, 330720, Note_on_c, 1, 64, 70
3, 330812, Note_off_c, 1, 64, 64
3, 330816, Note_on_c, 1, 76, 71
3, 330816, Note_on_c, 1, 74, 71
3, 330816, Note_on_c, 1, 68, 71
3, 330908, Note_off_c, 1, 76, 64
3, 330908, Note_off_c, 1, 74, 64
3, 330908, Note_off_c, 1, 68, 64
3, 330912, Note_on_c, 1, 64, 72
3, 331004, Note_off_c, 1, 64, 64
3, 331004, Note_off_c, 1, 76, 64
3, 331004, Note_off_c, 1, 74, 64
3, 331004, Note_off_c, 1, 68, 64
3, 331004, Note_off_c, 1, 64, 64
3, 331008, Note_on_c, 1, 80, 73
3, 331008, Note_on_c, 1, 76, 73
3, 331008, Note_on_c, 1, 74, 73
3, 331104, Note_on_c, 1, 71, 74
3, 331200, Note_on_c, 1, 80, 75
3, 331200, Note_on_c, 1, 76, 75
3, 331200, Note_on_c, 1, 74, 75
3, 331292, Note_off_c, 1, 80, 64
3, 331292, Note_off_c, 1, 76, 64
3, 331292, Note_off_c, 1, 74, 64
3, 331296, Note_on_c, 1, 71, 76
3, 331388, Note_off_c, 1, 71, 64
3, 331392, Note_on_c, 1, 80, 77
3, 331392, Note_on_c, 1, 76, 77
3, 331392, Note_on_c, 1, 74, 77
3, 331484, Note_off_c, 1, 80, 64
3, 331484, Note_off_c, 1, 76, 64
3, 331484, Note_off_c, 1, 74, 64
3, 331488, Note_on_c, 1, 71, 78
3, 331580, Note_off_c, 1, 71, 64
3, 331584, Note_on_c, 1, 80, 79
3, 331584, Note_on_c, 1, 76, 79
3, 331584, Note_on_c, 1, 74, 79
3, 331676, Note_off_c, 1, 80, 64
3, 331676, Note_off_c, 1, 76, 64
3, 331676, Note_off_c, 1, 74, 64
3, 331680, Note_on_c, 1, 71, 80
3, 331772, Note_off_c, 1, 71, 64
3, 331772, Note_off_c, 1, 80, 64
3, 331772, Note_off_c, 1, 76, 64
3, 331772, Note_off_c, 1, 74, 64
3, 331772, Note_off_c, 1, 71, 64
3, 331776, Note_on_c, 1, 81, 82
3, 331776, Note_on_c, 1, 76, 82
3, 331776, Note_on_c, 1, 73, 82
3, 331776, Note_on_c, 1, 69, 82
3, 331964, Note_off_c, 1, 81, 64
3, 331964, Note_off_c, 1, 76, 64
3, 331964, Note_off_c, 1, 73, 64
3, 331964, Note_off_c, 1, 69, 64
3, 331968, Note_on_c, 1, 69, 82
3, 332156, Note_off_c, 1, 69, 64
3, 332160, Note_on_c, 1, 69, 82
3, 332252, Note_off_c, 1, 69, 64
3, 332256, Note_on_c, 1, 68, 82
3, 332348, Note_off_c, 1, 68, 64
3, 332352, Note_on_c, 1, 69, 82
3, 332444, Note_off_c, 1, 69, 64
3, 332448, Note_on_c, 1, 71, 82
3, 332540, Note_off_c, 1, 71, 64
3, 332544, Note_on_c, 1, 73, 82
3, 332544, Note_on_c, 1, 76, 82
3, 332640, Note_off_c, 1, 73, 64
3, 332736, Note_off_c, 1, 76, 64
3, 332736, Note_on_c, 1, 70, 82
3, 332832, Note_off_c, 1, 70, 64
3, 332928, Note_on_c, 1, 71, 82
3, 333020, Note_off_c, 1, 71, 64
3, 333024, Note_on_c, 1, 70, 82
3, 333116, Note_off_c, 1, 70, 64
3, 333120, Note_on_c, 1, 71, 82
3, 333212, Note_off_c, 1, 71, 64
3, 333216, Note_on_c, 1, 73, 82
3, 333308, Note_off_c, 1, 73, 64
3, 333312, Note_on_c, 1, 74, 82
3, 333312, Note_on_c, 1, 78, 82
3, 333312, Note_on_c, 1, 69, 82
3, 333408, Note_off_c, 1, 74, 64
3, 333504, Note_off_c, 1, 78, 64
3, 333504, Note_off_c, 1, 69, 64
3, 333504, Note_on_c, 1, 72, 82
3, 333600, Note_off_c, 1, 72, 64
3, 333696, Note_on_c, 1, 73, 82
3, 333696, Note_on_c, 1, 76, 82
3, 333696, Note_on_c, 1, 68, 82
3, 333788, Note_off_c, 1, 73, 64
3, 333792, Note_on_c, 1, 72, 82
3, 333884, Note_off_c, 1, 76, 64
3, 333884, Note_off_c, 1, 68, 64
3, 333884, Note_off_c, 1, 72, 64
3, 333888, Note_on_c, 1, 73, 82
3, 333980, Note_off_c, 1, 73, 64
3, 333984, Note_on_c, 1, 74, 82
3, 334076, Note_off_c, 1, 74, 64
3, 334080, Note_on_c, 1, 76, 82
3, 334080, Note_on_c, 1, 79, 82
3, 334080, Note_on_c, 1, 69, 82
3, 334176, Note_off_c, 1, 76, 64
3, 334272, Note_off_c, 1, 79, 64
3, 334272, Note_off_c, 1, 69, 64
3, 334272, Note_on_c, 1, 73, 82
3, 334368, Note_off_c, 1, 73, 64
3, 334464, Note_on_c, 1, 74, 82
3, 334464, Note_on_c, 1, 78, 82
3, 334464, Note_on_c, 1, 69, 82
3, 334556, Note_off_c, 1, 74, 64
3, 334560, Note_on_c, 1, 73, 82
3, 334652, Note_off_c, 1, 78, 64
3, 334652, Note_off_c, 1, 69, 64
3, 334652, Note_off_c, 1, 73, 64
3, 334656, Note_on_c, 1, 74, 82
3, 334748, Note_off_c, 1, 74, 64
3, 334752, Note_on_c, 1, 76, 82
3, 334844, Note_off_c, 1, 76, 64
3, 334848, Note_on_c, 1, 78, 82
3, 335228, Note_off_c, 1, 78, 64
3, 335232, Note_on_c, 1, 86, 82
3, 335232, Note_on_c, 1, 74, 82
3, 335232, Note_on_c, 1, 81, 82
3, 335612, Note_off_c, 1, 86, 64
3, 335612, Note_off_c, 1, 74, 64
3, 335612, Note_off_c, 1, 81, 64
3, 335616, Note_on_c, 1, 85, 82
3, 335616, Note_on_c, 1, 81, 82
3, 335616, Note_on_c, 1, 73, 82
3, 335996, Note_off_c, 1, 85, 64
3, 335996, Note_off_c, 1, 81, 64
3, 335996, Note_off_c, 1, 73, 64
3, 336000, Note_on_c, 1, 83, 82
3, 336000, Note_on_c, 1, 81, 82
3, 336000, Note_on_c, 1, 78, 82
3, 336000, Note_on_c, 1, 71, 82
3, 336380, Note_off_c, 1, 83, 64
3, 336380, Note_off_c, 1, 81, 64
3, 336380, Note_off_c, 1, 78, 64
3, 336380, Note_off_c, 1, 71, 64
3, 336384, Note_on_c, 1, 85, 82
3, 336384, Note_on_c, 1, 81, 82
3, 336384, Note_on_c, 1, 76, 82
3, 336384, Note_on_c, 1, 73, 82
3, 337148, Note_off_c, 1, 85, 64
3, 337148, Note_off_c, 1, 81, 64
3, 337148, Note_off_c, 1, 76, 64
3, 337148, Note_off_c, 1, 73, 64
3, 337728, Control_c, 1, 1, 50
3, 435444, Program_c, 1, 48
3, 435456, Note_on_c, 1, 69, 85
3, 435456, Note_on_c, 1, 64, 85
3, 435456, Note_on_c, 1, 61, 85
3, 435836, Note_off_c, 1, 69, 64
3, 435836, Note_off_c, 1, 64, 64
3, 435836, Note_off_c, 1, 61, 64
3, 435840, Note_on_c, 1, 83, 88
3, 435928, Note_off_c, 1, 83, 64
3, 435936, Note_on_c, 1, 81, 87
3, 436024, Note_off_c, 1, 81, 64
3, 436032, Note_on_c, 1, 80, 86
3, 436120, Note_off_c, 1, 80, 64
3, 436128, Note_on_c, 1, 78, 85
3, 436216, Note_off_c, 1, 78, 64
3, 436224, Note_on_c, 1, 78, 84
3, 436312, Note_off_c, 1, 78, 64
3, 436320, Note_on_c, 1, 76, 83
3, 436408, Note_off_c, 1, 76, 64
3, 436416, Note_on_c, 1, 74, 82
3, 436504, Note_off_c, 1, 74, 64
3, 436512, Note_on_c, 1, 73, 81
3, 436600, Note_off_c, 1, 73, 64
3, 436608, Note_on_c, 1, 83, 88
3, 436696, Note_off_c, 1, 83, 64
3, 436704, Note_on_c, 1, 81, 87
3, 436792, Note_off_c, 1, 81, 64
3, 436800, Note_on_c, 1, 80, 86
3, 436888, Note_off_c, 1, 80, 64
3, 436896, Note_on_c, 1, 78, 85
3, 436984, Note_off_c, 1, 78, 64
3, 436992, Note_on_c, 1, 78, 84
3, 437080, Note_off_c, 1, 78, 64
3, 437088, Note_on_c, 1, 76, 83
3, 437176, Note_off_c, 1, 76, 64
3, 437184, Note_on_c, 1, 74, 82
3, 437272, Note_off_c, 1, 74, 64
3, 437280, Note_on_c, 1, 73, 81
3, 437368, Note_off_c, 1, 73, 64
3, 437376, Note_on_c, 1, 83, 88
3, 437464, Note_off_c, 1, 83, 64
3, 437472, Note_on_c, 1, 81, 87
3, 437560, Note_off_c, 1, 81, 64
3, 437568, Note_on_c, 1, 80, 86
3, 437656, Note_off_c, 1, 80, 64
3, 437664, Note_on_c, 1, 78, 85
3, 437752, Note_off_c, 1, 78, 64
3, 437760, Note_on_c, 1, 78, 84
3, 437848, Note_off_c, 1, 78, 64
3, 437856, Note_on_c, 1, 76, 83
3, 437944, Note_off_c, 1, 76, 64
3, 437952, Note_on_c, 1, 74, 82
3, 438040, Note_off_c, 1, 74, 64
3, 438048, Note_on_c, 1, 73, 81
3, 438136, Note_off_c, 1, 73, 64
3, 438144, Note_on_c, 1, 71, 82
3, 438232, Note_off_c, 1, 71, 64
3, 438336, Note_on_c, 1, 71, 82
3, 438336, Note_on_c, 1, 64, 82
3, 438336, Note_on_c, 1, 68, 82
3, 438336, Note_on_c, 1, 76, 82
3, 438424, Note_off_c, 1, 71, 64
3, 438424, Note_off_c, 1, 64, 64
3, 438424, Note_off_c, 1, 68, 64
3, 438424, Note_off_c, 1, 76, 64
3, 438528, Note_on_c, 1, 73, 82
3, 438528, Note_on_c, 1, 69, 82
3, 438528, Note_on_c, 1, 64, 82
3, 438908, Note_off_c, 1, 73, 64
3, 438908, Note_off_c, 1, 69, 64
3, 438908, Note_off_c, 1, 64, 64
3, 438912, Note_on_c, 1, 83, 70
3, 439000, Note_off_c, 1, 83, 64
3, 439008, Note_on_c, 1, 81, 69
3, 439096, Note_off_c, 1, 81, 64
3, 439104, Note_on_c, 1, 80, 68
3, 439192, Note_off_c, 1, 80, 64
3, 439200, Note_on_c, 1, 78, 67
3, 439288, Note_off_c, 1, 78, 64
3, 439296, Note_on_c, 1, 78, 66
3, 439384, Note_off_c, 1, 78, 64
3, 439392, Note_on_c, 1, 76, 65
3, 439480, Note_off_c, 1, 76, 64
3, 439488, Note_on_c, 1, 74, 64
3, 439576, Note_off_c, 1, 74, 64
3, 439584, Note_on_c, 1, 73, 63
3, 439672, Note_off_c, 1, 73, 64
3, 439680, Note_on_c, 1, 83, 70
3, 439768, Note_off_c, 1, 83, 64
3, 439776, Note_on_c, 1, 81, 69
3, 439864, Note_off_c, 1, 81, 64
3, 439872, Note_on_c, 1, 80, 68
3, 439960, Note_off_c, 1, 80, 64
3, 439968, Note_on_c, 1, 78, 67
3, 440056, Note_off_c, 1, 78, 64
3, 440064, Note_on_c, 1, 78, 66
3, 440152, Note_off_c, 1, 78, 64
3, 440160, Note_on_c, 1, 76, 65
3, 440248, Note_off_c, 1, 76, 64
3, 440256, Note_on_c, 1, 74, 64
3, 440344, Note_off_c, 1, 74, 64
3, 440352, Note_on_c, 1, 73, 63
3, 440440, Note_off_c, 1, 73, 64
3, 440448, Note_on_c, 1, 83, 88
3, 440536, Note_off_c, 1, 83, 64
3, 440544, Note_on_c, 1, 81, 87
3, 440632, Note_off_c, 1, 81, 64
3, 440640, Note_on_c, 1, 80, 86
3, 440728, Note_off_c, 1, 80, 64
3, 440736, Note_on_c, 1, 78, 85
3, 440824, Note_off_c, 1, 78, 64
3, 440832, Note_on_c, 1, 78, 84
3, 440920, Note_off_c, 1, 78, 64
3, 440928, Note_on_c, 1, 76, 83
3, 441016, Note_off_c, 1, 76, 64
3, 441024, Note_on_c, 1, 74, 82
3, 441112, Note_off_c, 1, 74, 64
3, 441120, Note_on_c, 1, 73, 81
3, 441208, Note_off_c, 1, 73, 64
3, 441216, Note_on_c, 1, 71, 82
3, 441304, Note_off_c, 1, 71, 64
3, 441408, Note_on_c, 1, 76, 82
3, 441408, Note_on_c, 1, 71, 82
3, 441408, Note_on_c, 1, 68, 82
3, 441408, Note_on_c, 1, 64, 82
3, 441496, Note_off_c, 1, 76, 64
3, 441496, Note_off_c, 1, 71, 64
3, 441496, Note_off_c, 1, 68, 64
3, 441496, Note_off_c, 1, 64, 64
3, 441600, Note_on_c, 1, 64, 82
3, 441600, Note_on_c, 1, 69, 82
3, 441980, Note_off_c, 1, 64, 64
3, 441980, Note_off_c, 1, 69, 64
3, 441984, Note_on_c, 1, 76, 82
3, 442072, Note_off_c, 1, 76, 64
3, 442176, Note_on_c, 1, 73, 82
3, 442264, Note_off_c, 1, 73, 64
3, 442368, Note_on_c, 1, 69, 82
3, 442456, Note_off_c, 1, 69, 64
3, 442560, Note_on_c, 1, 73, 82
3, 442648, Note_off_c, 1, 73, 64
3, 442752, Note_on_c, 1, 64, 82
3, 442840, Note_off_c, 1, 64, 64
3, 442944, Note_on_c, 1, 69, 82
3, 443032, Note_off_c, 1, 69, 64
3, 443136, Note_on_c, 1, 61, 82
3, 443516, Note_off_c, 1, 61, 64
3, 443520, Note_on_c, 1, 73, 82
3, 443608, Note_off_c, 1, 73, 64
3, 443712, Note_on_c, 1, 69, 82
3, 443800, Note_off_c, 1, 69, 64
3, 443904, Note_on_c, 1, 64, 82
3, 443992, Note_off_c, 1, 64, 64
3, 444096, Note_on_c, 1, 69, 82
3, 444184, Note_off_c, 1, 69, 64
3, 444288, Note_on_c, 1, 61, 82
3, 444376, Note_off_c, 1, 61, 64
3, 444480, Note_on_c, 1, 64, 82
3, 444568, Note_off_c, 1, 64, 64
3, 444672, Note_on_c, 1, 57, 82
3, 445244, Note_off_c, 1, 57, 64
3, 445248, Note_on_c, 1, 61, 64
3, 445336, Note_off_c, 1, 61, 64
3, 445344, Note_on_c, 1, 64, 64
3, 445432, Note_off_c, 1, 64, 64
3, 445440, Note_on_c, 1, 69, 64
3, 445820, Note_off_c, 1, 69, 64
3, 445820, End_track
4, 0, Start_track
4, 0, Title_t, "Bob Fisher"
4, 0, Control_c, 2, 0, 0
4, 0, Program_c, 2, 0
4, 0, Control_c, 2, 10, 91
4, 0, Control_c, 2, 91, 67
4, 0, Control_c, 2, 93, 0
4, 0, Key_signature, 3, "major"
4, 0, Control_c, 2, 121, 0
4, 48, Control_c, 2, 10, 78
4, 96, Control_c, 2, 91, 63
4, 288, Program_c, 2, 48
4, 1536, Note_on_c, 2, 45, 84
4, 1536, Note_on_c, 2, 33, 90
4, 1724, Note_off_c, 2, 45, 64
4, 1724, Note_off_c, 2, 33, 64
4, 1728, Note_on_c, 2, 52, 84
4, 1728, Note_on_c, 2, 49, 84
4, 1728, Note_on_c, 2, 45, 84
4, 1820, Note_off_c, 2, 52, 64
4, 1820, Note_off_c, 2, 49, 64
4, 1820, Note_off_c, 2, 45, 64
4, 1824, Note_on_c, 2, 57, 84
4, 1916, Note_off_c, 2, 57, 64
4, 1920, Note_on_c, 2, 52, 84
4, 1920, Note_on_c, 2, 49, 84
4, 1920, Note_on_c, 2, 45, 84
4, 2012, Note_off_c, 2, 52, 64
4, 2012, Note_off_c, 2, 49, 64
4, 2012, Note_off_c, 2, 45, 64
4, 2016, Note_on_c, 2, 57, 84
4, 2108, Note_off_c, 2, 57, 64
4, 2112, Note_on_c, 2, 52, 84
4, 2112, Note_on_c, 2, 49, 84
4, 2112, Note_on_c, 2, 45, 84
4, 2204, Note_off_c, 2, 52, 64
4, 2204, Note_off_c, 2, 49, 64
4, 2204, Note_off_c, 2, 45, 64
4, 2208, Note_on_c, 2, 57, 84
4, 2300, Note_off_c, 2, 57, 64
4, 2304, Note_on_c, 2, 52, 64
4, 2304, Note_on_c, 2, 49, 64
4, 2304, Note_on_c, 2, 45, 64
4, 2396, Note_off_c, 2, 52, 64
4, 2396, Note_off_c, 2, 49, 64
4, 2396, Note_off_c, 2, 45, 64
4, 2400, Note_on_c, 2, 57, 64
4, 2492, Note_off_c, 2, 57, 64
4, 2496, Note_on_c, 2, 52, 64
4, 2496, Note_on_c, 2, 49, 64
4, 2496, Note_on_c, 2, 45, 64
4, 2588, Note_off_c, 2, 52, 64
4, 2588, Note_off_c, 2, 49, 64
4, 2588, Note_off_c, 2, 45, 64
4, 2592, Note_on_c, 2, 57, 64
4, 2684, Note_off_c, 2, 57, 64
4, 2688, Note_on_c, 2, 52, 64
4, 2688, Note_on_c, 2, 49, 64
4, 2688, Note_on_c, 2, 45, 64
4, 2780, Note_off_c, 2, 52, 64
4, 2780, Note_off_c, 2, 49, 64
4, 2780, Note_off_c, 2, 45, 64
4, 2784, Note_on_c, 2, 57, 64
4, 2876, Note_off_c, 2, 57, 64
4, 2880, Note_on_c, 2, 52, 64
4, 2880, Note_on_c, 2, 49, 64
4, 2880, Note_on_c, 2, 45, 64
4, 2972, Note_off_c, 2, 52, 64
4, 2972, Note_off_c, 2, 49, 64
4, 2972, Note_off_c, 2, 45, 64
4, 2976, Note_on_c, 2, 57, 64
4, 3068, Note_off_c, 2, 57, 64
4, 3072, Note_on_c, 2, 52, 64
4, 3072, Note_on_c, 2, 49, 64
4, 3072, Note_on_c, 2, 45, 64
4, 3164, Note_off_c, 2, 52, 64
4, 3164, Note_off_c, 2, 49, 64
4, 3164, Note_off_c, 2, 45, 64
4, 3168, Note_on_c, 2, 57, 64
4, 3260, Note_off_c, 2, 57, 64
4, 3264, Note_on_c, 2, 52, 64
4, 3264, Note_on_c, 2, 49, 64
4, 3264, Note_on_c, 2, 45, 64
4, 3356, Note_off_c, 2, 52, 64
4, 3356, Note_off_c, 2, 49, 64
4, 3356, Note_off_c, 2, 45, 64
4, 3360, Note_on_c, 2, 57, 64
4, 3452, Note_off_c, 2, 57, 64
4, 3456, Note_on_c, 2, 52, 64
4, 3456, Note_on_c, 2, 49, 64
4, 3456, Note_on_c, 2, 45, 64
4, 3548, Note_off_c, 2, 52, 64
4, 3548, Note_off_c, 2, 49, 64
4, 3548, Note_off_c, 2, 45, 64
4, 3552, Note_on_c, 2, 57, 64
4, 3644, Note_off_c, 2, 57, 64
4, 3648, Note_on_c, 2, 52, 64
4, 3648, Note_on_c, 2, 49, 64
4, 3648, Note_on_c, 2, 45, 64
4, 3740, Note_off_c, 2, 52, 64
4, 3740, Note_off_c, 2, 49, 64
4, 3740, Note_off_c, 2, 45, 64
4, 3744, Note_on_c, 2, 57, 64
4, 3836, Note_off_c, 2, 57, 64
4, 3840, Note_on_c, 2, 52, 64
4, 3840, Note_on_c, 2, 49, 64
4, 3840, Note_on_c, 2, 45, 64
4, 3932, Note_off_c, 2, 52, 64
4, 3932, Note_off_c, 2, 49, 64
4, 3932, Note_off_c, 2, 45, 64
4, 3936, Note_on_c, 2, 57, 64
4, 4028, Note_off_c, 2, 57, 64
4, 4032, Note_on_c, 2, 52, 64
4, 4032, Note_on_c, 2, 49, 64
4, 4032, Note_on_c, 2, 45, 64
4, 4124, Note_off_c, 2, 52, 64
4, 4124, Note_off_c, 2, 49, 64
4, 4124, Note_off_c, 2, 45, 64
4, 4128, Note_on_c, 2, 57, 64
4, 4220, Note_off_c, 2, 57, 64
4, 4224, Note_on_c, 2, 52, 64
4, 4224, Note_on_c, 2, 49, 64
4, 4224, Note_on_c, 2, 45, 64
4, 4316, Note_off_c, 2, 52, 64
4, 4316, Note_off_c, 2, 49, 64
4, 4316, Note_off_c, 2, 45, 64
4, 4320, Note_on_c, 2, 57, 64
4, 4412, Note_off_c, 2, 57, 64
4, 4416, Note_on_c, 2, 52, 64
4, 4416, Note_on_c, 2, 49, 64
4, 4416, Note_on_c, 2, 45, 64
4, 4508, Note_off_c, 2, 52, 64
4, 4508, Note_off_c, 2, 49, 64
4, 4508, Note_off_c, 2, 45, 64
4, 4512, Note_on_c, 2, 57, 64
4, 4604, Note_off_c, 2, 57, 64
4, 4608, Note_on_c, 2, 61, 64
4, 4608, Note_on_c, 2, 57, 64
4, 4700, Note_off_c, 2, 61, 64
4, 4700, Note_off_c, 2, 57, 64
4, 4704, Note_on_c, 2, 64, 64
4, 4796, Note_off_c, 2, 64, 64
4, 4800, Note_on_c, 2, 61, 64
4, 4800, Note_on_c, 2, 57, 64
4, 4892, Note_off_c, 2, 61, 64
4, 4892, Note_off_c, 2, 57, 64
4, 4896, Note_on_c, 2, 64, 64
4, 4988, Note_off_c, 2, 64, 64
4, 4992, Note_on_c, 2, 61, 64
4, 4992, Note_on_c, 2, 57, 64
4, 5084, Note_off_c, 2, 61, 64
4, 5084, Note_off_c, 2, 57, 64
4, 5088, Note_on_c, 2, 64, 64
4, 5180, Note_off_c, 2, 64, 64
4, 5184, Note_on_c, 2, 61, 64
4, 5184, Note_on_c, 2, 57, 64
4, 5276, Note_off_c, 2, 61, 64
4, 5276, Note_off_c, 2, 57, 64
4, 5280, Note_on_c, 2, 64, 64
4, 5372, Note_off_c, 2, 64, 64
4, 5376, Note_on_c, 2, 61, 64
4, 5376, Note_on_c, 2, 57, 64
4, 5468, Note_off_c, 2, 61, 64
4, 5468, Note_off_c, 2, 57, 64
4, 5472, Note_on_c, 2, 64, 64
4, 5564, Note_off_c, 2, 64, 64
4, 5568, Note_on_c, 2, 61, 64
4, 5568, Note_on_c, 2, 57, 64
4, 5660, Note_off_c, 2, 61, 64
4, 5660, Note_off_c, 2, 57, 64
4, 5664, Note_on_c, 2, 64, 64
4, 5756, Note_off_c, 2, 64, 64
4, 5760, Note_on_c, 2, 61, 64
4, 5760, Note_on_c, 2, 57, 64
4, 5852, Note_off_c, 2, 61, 64
4, 5852, Note_off_c, 2, 57, 64
4, 5856, Note_on_c, 2, 64, 64
4, 5948, Note_off_c, 2, 64, 64
4, 5952, Note_on_c, 2, 61, 64
4, 5952, Note_on_c, 2, 57, 64
4, 6044, Note_off_c, 2, 61, 64
4, 6044, Note_off_c, 2, 57, 64
4, 6048, Note_on_c, 2, 64, 64
4, 6140, Note_off_c, 2, 64, 64
4, 6144, Note_on_c, 2, 61, 64
4, 6144, Note_on_c, 2, 57, 64
4, 6236, Note_off_c, 2, 61, 64
4, 6236, Note_off_c, 2, 57, 64
4, 6240, Note_on_c, 2, 64, 64
4, 6332, Note_off_c, 2, 64, 64
4, 6336, Note_on_c, 2, 61, 64
4, 6336, Note_on_c, 2, 57, 64
4, 6428, Note_off_c, 2, 61, 64
4, 6428, Note_off_c, 2, 57, 64
4, 6432, Note_on_c, 2, 64, 64
4, 6524, Note_off_c, 2, 64, 64
4, 6528, Note_on_c, 2, 61, 64
4, 6528, Note_on_c, 2, 57, 64
4, 6620, Note_off_c, 2, 61, 64
4, 6620, Note_off_c, 2, 57, 64
4, 6624, Note_on_c, 2, 64, 64
4, 6716, Note_off_c, 2, 64, 64
4, 6720, Note_on_c, 2, 61, 64
4, 6720, Note_on_c, 2, 57, 64
4, 6812, Note_off_c, 2, 61, 64
4, 6812, Note_off_c, 2, 57, 64
4, 6816, Note_on_c, 2, 64, 64
4, 6908, Note_off_c, 2, 64, 64
4, 6912, Note_on_c, 2, 61, 64
4, 6912, Note_on_c, 2, 57, 64
4, 7004, Note_off_c, 2, 61, 64
4, 7004, Note_off_c, 2, 57, 64
4, 7008, Note_on_c, 2, 64, 64
4, 7100, Note_off_c, 2, 64, 64
4, 7104, Note_on_c, 2, 61, 64
4, 7104, Note_on_c, 2, 57, 64
4, 7196, Note_off_c, 2, 61, 64
4, 7196, Note_off_c, 2, 57, 64
4, 7200, Note_on_c, 2, 64, 64
4, 7292, Note_off_c, 2, 64, 64
4, 7296, Note_on_c, 2, 61, 64
4, 7296, Note_on_c, 2, 57, 64
4, 7388, Note_off_c, 2, 61, 64
4, 7388, Note_off_c, 2, 57, 64
4, 7392, Note_on_c, 2, 64, 64
4, 7484, Note_off_c, 2, 64, 64
4, 7488, Note_on_c, 2, 57, 64
4, 7488, Note_on_c, 2, 61, 64
4, 7580, Note_off_c, 2, 57, 64
4, 7580, Note_off_c, 2, 61, 64
4, 7584, Note_on_c, 2, 64, 64
4, 7676, Note_off_c, 2, 64, 64
4, 7680, Note_on_c, 2, 64, 82
4, 7680, Note_on_c, 2, 52, 82
4, 8060, Note_off_c, 2, 64, 64
4, 8060, Note_off_c, 2, 52, 64
4, 8064, Note_on_c, 2, 52, 82
4, 8064, Note_on_c, 2, 40, 84
4, 8444, Note_off_c, 2, 52, 64
4, 8444, Note_off_c, 2, 40, 64
4, 8448, Note_on_c, 2, 56, 64
4, 8448, Note_on_c, 2, 52, 64
4, 8540, Note_off_c, 2, 56, 64
4, 8540, Note_off_c, 2, 52, 64
4, 8544, Note_on_c, 2, 59, 64
4, 8636, Note_off_c, 2, 59, 64
4, 8640, Note_on_c, 2, 56, 64
4, 8640, Note_on_c, 2, 52, 64
4, 8732, Note_off_c, 2, 56, 64
4, 8732, Note_off_c, 2, 52, 64
4, 8736, Note_on_c, 2, 59, 64
4, 8828, Note_off_c, 2, 59, 64
4, 8832, Note_on_c, 2, 56, 64
4, 8832, Note_on_c, 2, 52, 64
4, 8924, Note_off_c, 2, 56, 64
4, 8924, Note_off_c, 2, 52, 64
4, 8928, Note_on_c, 2, 59, 64
4, 9020, Note_off_c, 2, 59, 64
4, 9024, Note_on_c, 2, 56, 64
4, 9024, Note_on_c, 2, 52, 64
4, 9116, Note_off_c, 2, 56, 64
4, 9116, Note_off_c, 2, 52, 64
4, 9120, Note_on_c, 2, 59, 64
4, 9212, Note_off_c, 2, 59, 64
4, 9216, Note_on_c, 2, 59, 64
4, 9216, Note_on_c, 2, 56, 64
4, 9216, Note_on_c, 2, 52, 64
4, 9308, Note_off_c, 2, 59, 64
4, 9308, Note_off_c, 2, 56, 64
4, 9308, Note_off_c, 2, 52, 64
4, 9312, Note_on_c, 2, 62, 64
4, 9404, Note_off_c, 2, 62, 64
4, 9408, Note_on_c, 2, 59, 64
4, 9408, Note_on_c, 2, 56, 64
4, 9408, Note_on_c, 2, 52, 64
4, 9500, Note_off_c, 2, 59, 64
4, 9500, Note_off_c, 2, 56, 64
4, 9500, Note_off_c, 2, 52, 64
4, 9504, Note_on_c, 2, 62, 64
4, 9596, Note_off_c, 2, 62, 64
4, 9600, Note_on_c, 2, 59, 64
4, 9600, Note_on_c, 2, 56, 64
4, 9600, Note_on_c, 2, 52, 64
4, 9692, Note_off_c, 2, 59, 64
4, 9692, Note_off_c, 2, 56, 64
4, 9692, Note_off_c, 2, 52, 64
4, 9696, Note_on_c, 2, 62, 64
4, 9788, Note_off_c, 2, 62, 64
4, 9792, Note_on_c, 2, 59, 64
4, 9792, Note_on_c, 2, 56, 64
4, 9792, Note_on_c, 2, 52, 64
4, 9884, Note_off_c, 2, 59, 64
4, 9884, Note_off_c, 2, 56, 64
4, 9884, Note_off_c, 2, 52, 64
4, 9888, Note_on_c, 2, 62, 64
4, 9980, Note_off_c, 2, 62, 64
4, 9984, Note_on_c, 2, 59, 64
4, 9984, Note_on_c, 2, 56, 64
4, 9984, Note_on_c, 2, 52, 64
4, 10076, Note_off_c, 2, 59, 64
4, 10076, Note_off_c, 2, 56, 64
4, 10076, Note_off_c, 2, 52, 64
4, 10080, Note_on_c, 2, 62, 64
4, 10172, Note_off_c, 2, 62, 64
4, 10176, Note_on_c, 2, 59, 64
4, 10176, Note_on_c, 2, 56, 64
4, 10176, Note_on_c, 2, 52, 64
4, 10268, Note_off_c, 2, 59, 64
4, 10268, Note_off_c, 2, 56, 64
4, 10268, Note_off_c, 2, 52, 64
4, 10272, Note_on_c, 2, 62, 64
4, 10364, Note_off_c, 2, 62, 64
4, 10368, Note_on_c, 2, 59, 64
4, 10368, Note_on_c, 2, 56, 64
4, 10368, Note_on_c, 2, 52, 64
4, 10460, Note_off_c, 2, 59, 64
4, 10460, Note_off_c, 2, 56, 64
4, 10460, Note_off_c, 2, 52, 64
4, 10464, Note_on_c, 2, 62, 64
4, 10556, Note_off_c, 2, 62, 64
4, 10560, Note_on_c, 2, 59, 64
4, 10560, Note_on_c, 2, 56, 64
4, 10560, Note_on_c, 2, 52, 64
4, 10652, Note_off_c, 2, 59, 64
4, 10652, Note_off_c, 2, 56, 64
4, 10652, Note_off_c, 2, 52, 64
4, 10656, Note_on_c, 2, 62, 64
4, 10748, Note_off_c, 2, 62, 64
4, 10752, Note_on_c, 2, 64, 64
4, 10752, Note_on_c, 2, 62, 64
4, 10752, Note_on_c, 2, 59, 64
4, 10844, Note_off_c, 2, 64, 64
4, 10844, Note_off_c, 2, 62, 64
4, 10844, Note_off_c, 2, 59, 64
4, 10848, Note_on_c, 2, 68, 64
4, 10928, Note_on_c, 2, 59, 64
4, 10940, Note_off_c, 2, 68, 64
4, 10944, Note_on_c, 2, 64, 64
4, 10944, Note_on_c, 2, 62, 64
4, 11020, Note_off_c, 2, 59, 64
4, 11036, Note_off_c, 2, 64, 64
4, 11036, Note_off_c, 2, 62, 64
4, 11040, Note_on_c, 2, 68, 64
4, 11132, Note_off_c, 2, 68, 64
4, 11136, Note_on_c, 2, 59, 64
4, 11136, Note_on_c, 2, 64, 64
4, 11136, Note_on_c, 2, 62, 64
4, 11228, Note_off_c, 2, 59, 64
4, 11228, Note_off_c, 2, 64, 64
4, 11228, Note_off_c, 2, 62, 64
4, 11232, Note_on_c, 2, 68, 64
4, 11324, Note_off_c, 2, 68, 64
4, 11328, Note_on_c, 2, 59, 64
4, 11328, Note_on_c, 2, 62, 64
4, 11328, Note_on_c, 2, 64, 64
4, 11420, Note_off_c, 2, 59, 64
4, 11420, Note_off_c, 2, 62, 64
4, 11420, Note_off_c, 2, 64, 64
4, 11424, Note_on_c, 2, 68, 64
4, 11516, Note_off_c, 2, 68, 64
4, 11520, Note_on_c, 2, 59, 64
4, 11520, Note_on_c, 2, 62, 64
4, 11520, Note_on_c, 2, 64, 64
4, 11612, Note_off_c, 2, 59, 64
4, 11612, Note_off_c, 2, 62, 64
4, 11612, Note_off_c, 2, 64, 64
4, 11616, Note_on_c, 2, 68, 64
4, 11708, Note_off_c, 2, 68, 64
4, 11712, Note_on_c, 2, 59, 64
4, 11712, Note_on_c, 2, 62, 64
4, 11712, Note_on_c, 2, 64, 64
4, 11804, Note_off_c, 2, 59, 64
4, 11804, Note_off_c, 2, 62, 64
4, 11804, Note_off_c, 2, 64, 64
4, 11808, Note_on_c, 2, 68, 64
4, 11900, Note_off_c, 2, 68, 64
4, 11904, Note_on_c, 2, 59, 64
4, 11904, Note_on_c, 2, 62, 64
4, 11904, Note_on_c, 2, 64, 64
4, 11996, Note_off_c, 2, 59, 64
4, 11996, Note_off_c, 2, 62, 64
4, 11996, Note_off_c, 2, 64, 64
4, 12000, Note_on_c, 2, 68, 64
4, 12092, Note_off_c, 2, 68, 64
4, 12096, Note_on_c, 2, 59, 64
4, 12096, Note_on_c, 2, 64, 64
4, 12096, Note_on_c, 2, 62, 64
4, 12188, Note_off_c, 2, 59, 64
4, 12188, Note_off_c, 2, 64, 64
4, 12188, Note_off_c, 2, 62, 64
4, 12192, Note_on_c, 2, 68, 64
4, 12284, Note_off_c, 2, 68, 64
4, 12288, Note_on_c, 2, 59, 64
4, 12288, Note_on_c, 2, 62, 64
4, 12288, Note_on_c, 2, 64, 64
4, 12380, Note_off_c, 2, 59, 64
4, 12380, Note_off_c, 2, 62, 64
4, 12380, Note_off_c, 2, 64, 64
4, 12384, Note_on_c, 2, 68, 64
4, 12476, Note_off_c, 2, 68, 64
4, 12480, Note_on_c, 2, 59, 64
4, 12480, Note_on_c, 2, 62, 64
4, 12480, Note_on_c, 2, 64, 64
4, 12572, Note_off_c, 2, 59, 64
4, 12572, Note_off_c, 2, 62, 64
4, 12572, Note_off_c, 2, 64, 64
4, 12576, Note_on_c, 2, 68, 64
4, 12668, Note_off_c, 2, 68, 64
4, 12672, Note_on_c, 2, 59, 64
4, 12672, Note_on_c, 2, 62, 64
4, 12672, Note_on_c, 2, 64, 64
4, 12764, Note_off_c, 2, 59, 64
4, 12764, Note_off_c, 2, 62, 64
4, 12764, Note_off_c, 2, 64, 64
4, 12768, Note_on_c, 2, 68, 64
4, 12860, Note_off_c, 2, 68, 64
4, 12864, Note_on_c, 2, 59, 64
4, 12864, Note_on_c, 2, 62, 64
4, 12864, Note_on_c, 2, 64, 64
4, 12956, Note_off_c, 2, 59, 64
4, 12956, Note_off_c, 2, 62, 64
4, 12956, Note_off_c, 2, 64, 64
4, 12960, Note_on_c, 2, 68, 64
4, 13052, Note_off_c, 2, 68, 64
4, 13056, Note_on_c, 2, 59, 64
4, 13056, Note_on_c, 2, 62, 64
4, 13056, Note_on_c, 2, 64, 64
4, 13148, Note_off_c, 2, 59, 64
4, 13148, Note_off_c, 2, 62, 64
4, 13148, Note_off_c, 2, 64, 64
4, 13152, Note_on_c, 2, 68, 64
4, 13232, Note_on_c, 2, 62, 64
4, 13244, Note_off_c, 2, 68, 64
4, 13248, Note_on_c, 2, 59, 64
4, 13248, Note_on_c, 2, 64, 64
4, 13324, Note_off_c, 2, 62, 64
4, 13340, Note_off_c, 2, 59, 64
4, 13340, Note_off_c, 2, 64, 64
4, 13344, Note_on_c, 2, 68, 64
4, 13436, Note_off_c, 2, 68, 64
4, 13440, Note_on_c, 2, 59, 64
4, 13440, Note_on_c, 2, 62, 64
4, 13440, Note_on_c, 2, 64, 64
4, 13532, Note_off_c, 2, 59, 64
4, 13532, Note_off_c, 2, 62, 64
4, 13532, Note_off_c, 2, 64, 64
4, 13536, Note_on_c, 2, 68, 64
4, 13628, Note_off_c, 2, 68, 64
4, 13632, Note_on_c, 2, 59, 64
4, 13632, Note_on_c, 2, 62, 64
4, 13632, Note_on_c, 2, 64, 64
4, 13724, Note_off_c, 2, 59, 64
4, 13724, Note_off_c, 2, 62, 64
4, 13724, Note_off_c, 2, 64, 64
4, 13728, Note_on_c, 2, 68, 64
4, 13820, Note_off_c, 2, 68, 64
4, 13824, Note_on_c, 2, 57, 84
4, 13824, Note_on_c, 2, 69, 84
4, 14204, Note_off_c, 2, 57, 64
4, 14204, Note_off_c, 2, 69, 64
4, 14208, Note_on_c, 2, 57, 84
4, 14208, Note_on_c, 2, 45, 84
4, 14588, Note_off_c, 2, 57, 64
4, 14588, Note_off_c, 2, 45, 64
4, 14592, Note_on_c, 2, 57, 64
4, 14688, Note_off_c, 2, 57, 64
4, 14784, Note_on_c, 2, 57, 64
4, 14880, Note_off_c, 2, 57, 64
4, 14976, Note_on_c, 2, 59, 64
4, 15068, Note_off_c, 2, 59, 64
4, 15072, Note_on_c, 2, 57, 64
4, 15164, Note_off_c, 2, 57, 64
4, 15168, Note_on_c, 2, 56, 64
4, 15260, Note_off_c, 2, 56, 64
4, 15264, Note_on_c, 2, 57, 64
4, 15356, Note_off_c, 2, 57, 64
4, 15360, Note_on_c, 2, 54, 64
4, 15456, Note_off_c, 2, 54, 64
4, 15552, Note_on_c, 2, 54, 64
4, 15648, Note_off_c, 2, 54, 64
4, 15744, Note_on_c, 2, 56, 64
4, 15836, Note_off_c, 2, 56, 64
4, 15840, Note_on_c, 2, 54, 64
4, 15932, Note_off_c, 2, 54, 64
4, 15936, Note_on_c, 2, 52, 64
4, 16028, Note_off_c, 2, 52, 64
4, 16032, Note_on_c, 2, 54, 64
4, 16124, Note_off_c, 2, 54, 64
4, 16128, Note_on_c, 2, 52, 64
4, 16224, Note_off_c, 2, 52, 64
4, 16320, Note_on_c, 2, 52, 64
4, 16416, Note_off_c, 2, 52, 64
4, 16512, Note_on_c, 2, 54, 64
4, 16604, Note_off_c, 2, 54, 64
4, 16608, Note_on_c, 2, 52, 64
4, 16700, Note_off_c, 2, 52, 64
4, 16704, Note_on_c, 2, 51, 64
4, 16796, Note_off_c, 2, 51, 64
4, 16800, Note_on_c, 2, 52, 64
4, 16892, Note_off_c, 2, 52, 64
4, 16896, Note_on_c, 2, 51, 64
4, 17276, Note_off_c, 2, 51, 64
4, 20736, Note_on_c, 2, 58, 84
4, 20736, Note_on_c, 2, 53, 84
4, 20736, Note_on_c, 2, 50, 84
4, 20924, Note_off_c, 2, 58, 64
4, 20924, Note_off_c, 2, 53, 64
4, 20924, Note_off_c, 2, 50, 64
4, 20928, Note_on_c, 2, 58, 84
4, 20928, Note_on_c, 2, 53, 84
4, 20928, Note_on_c, 2, 50, 84
4, 21116, Note_off_c, 2, 58, 64
4, 21116, Note_off_c, 2, 53, 64
4, 21116, Note_off_c, 2, 50, 64
4, 21120, Note_on_c, 2, 57, 84
4, 21120, Note_on_c, 2, 53, 84
4, 21120, Note_on_c, 2, 50, 84
4, 21308, Note_off_c, 2, 57, 64
4, 21308, Note_off_c, 2, 53, 64
4, 21308, Note_off_c, 2, 50, 64
4, 21312, Note_on_c, 2, 57, 84
4, 21312, Note_on_c, 2, 53, 84
4, 21312, Note_on_c, 2, 50, 84
4, 21500, Note_off_c, 2, 57, 64
4, 21500, Note_off_c, 2, 53, 64
4, 21500, Note_off_c, 2, 50, 64
4, 21504, Note_on_c, 2, 56, 84
4, 21504, Note_on_c, 2, 52, 84
4, 21692, Note_off_c, 2, 56, 64
4, 21692, Note_off_c, 2, 52, 64
4, 21696, Note_on_c, 2, 56, 84
4, 21696, Note_on_c, 2, 52, 84
4, 21884, Note_off_c, 2, 56, 64
4, 21884, Note_off_c, 2, 52, 64
4, 21888, Note_on_c, 2, 59, 84
4, 21888, Note_on_c, 2, 62, 84
4, 21888, Note_on_c, 2, 52, 84
4, 22076, Note_off_c, 2, 59, 64
4, 22076, Note_off_c, 2, 62, 64
4, 22076, Note_off_c, 2, 52, 64
4, 22080, Note_on_c, 2, 59, 84
4, 22080, Note_on_c, 2, 62, 84
4, 22080, Note_on_c, 2, 52, 84
4, 22268, Note_off_c, 2, 59, 64
4, 22268, Note_off_c, 2, 62, 64
4, 22268, Note_off_c, 2, 52, 64
4, 22272, Note_on_c, 2, 63, 84
4, 22272, Note_on_c, 2, 57, 84
4, 22272, Note_on_c, 2, 54, 84
4, 22460, Note_off_c, 2, 63, 64
4, 22460, Note_off_c, 2, 57, 64
4, 22460, Note_off_c, 2, 54, 64
4, 22464, Note_on_c, 2, 63, 84
4, 22464, Note_on_c, 2, 57, 84
4, 22464, Note_on_c, 2, 54, 84
4, 22652, Note_off_c, 2, 63, 64
4, 22652, Note_off_c, 2, 57, 64
4, 22652, Note_off_c, 2, 54, 64
4, 22656, Note_on_c, 2, 63, 84
4, 22656, Note_on_c, 2, 57, 84
4, 22656, Note_on_c, 2, 54, 84
4, 22844, Note_off_c, 2, 63, 64
4, 22844, Note_off_c, 2, 57, 64
4, 22844, Note_off_c, 2, 54, 64
4, 22848, Note_on_c, 2, 63, 84
4, 22848, Note_on_c, 2, 57, 84
4, 22848, Note_on_c, 2, 54, 84
4, 23036, Note_off_c, 2, 63, 64
4, 23036, Note_off_c, 2, 57, 64
4, 23036, Note_off_c, 2, 54, 64
4, 23040, Note_on_c, 2, 64, 84
4, 23040, Note_on_c, 2, 57, 84
4, 23040, Note_on_c, 2, 52, 84
4, 23136, Note_off_c, 2, 64, 64
4, 23136, Note_off_c, 2, 57, 64
4, 23136, Note_off_c, 2, 52, 64
4, 23232, Note_on_c, 2, 57, 84
4, 23232, Note_on_c, 2, 52, 84
4, 23420, Note_off_c, 2, 57, 64
4, 23420, Note_off_c, 2, 52, 64
4, 23424, Note_on_c, 2, 57, 84
4, 23424, Note_on_c, 2, 52, 84
4, 23612, Note_off_c, 2, 57, 64
4, 23612, Note_off_c, 2, 52, 64
4, 23616, Note_on_c, 2, 57, 84
4, 23616, Note_on_c, 2, 52, 84
4, 23804, Note_off_c, 2, 57, 64
4, 23804, Note_off_c, 2, 52, 64
4, 23808, Note_on_c, 2, 62, 84
4, 23808, Note_on_c, 2, 52, 84
4, 23904, Note_off_c, 2, 62, 64
4, 23904, Note_off_c, 2, 52, 64
4, 24000, Note_on_c, 2, 52, 84
4, 24000, Note_on_c, 2, 59, 84
4, 24188, Note_off_c, 2, 52, 64
4, 24192, Note_on_c, 2, 52, 84
4, 24380, Note_off_c, 2, 59, 64
4, 24380, Note_off_c, 2, 52, 64
4, 24384, Note_on_c, 2, 56, 84
4, 24384, Note_on_c, 2, 52, 84
4, 24572, Note_off_c, 2, 56, 64
4, 24572, Note_off_c, 2, 52, 64
4, 24576, Note_on_c, 2, 57, 84
4, 24672, Note_off_c, 2, 57, 64
4, 24768, Note_on_c, 2, 45, 84
4, 24864, Note_off_c, 2, 45, 64
4, 24960, Note_on_c, 2, 57, 84
4, 25052, Note_off_c, 2, 57, 64
4, 25056, Note_on_c, 2, 56, 84
4, 25148, Note_off_c, 2, 56, 64
4, 25152, Note_on_c, 2, 57, 84
4, 25244, Note_off_c, 2, 57, 64
4, 25248, Note_on_c, 2, 59, 84
4, 25340, Note_off_c, 2, 59, 64
4, 25344, Note_on_c, 2, 61, 84
4, 25440, Note_off_c, 2, 61, 64
4, 25536, Note_on_c, 2, 49, 84
4, 25632, Note_off_c, 2, 49, 64
4, 25728, Note_on_c, 2, 61, 84
4, 25820, Note_off_c, 2, 61, 64
4, 25824, Note_on_c, 2, 59, 84
4, 25916, Note_off_c, 2, 59, 64
4, 25920, Note_on_c, 2, 61, 84
4, 26012, Note_off_c, 2, 61, 64
4, 26016, Note_on_c, 2, 62, 84
4, 26108, Note_off_c, 2, 62, 64
4, 26112, Note_on_c, 2, 64, 84
4, 26684, Note_off_c, 2, 64, 64
4, 26688, Note_on_c, 2, 66, 84
4, 26780, Note_off_c, 2, 66, 64
4, 26784, Note_on_c, 2, 63, 84
4, 26876, Note_off_c, 2, 63, 64
4, 26880, Note_on_c, 2, 64, 84
4, 27452, Note_off_c, 2, 64, 64
4, 27456, Note_on_c, 2, 66, 84
4, 27548, Note_off_c, 2, 66, 64
4, 27552, Note_on_c, 2, 63, 84
4, 27644, Note_off_c, 2, 63, 64
4, 27648, Note_on_c, 2, 64, 84
4, 27836, Note_off_c, 2, 64, 64
4, 27840, Note_on_c, 2, 66, 84
4, 27932, Note_off_c, 2, 66, 64
4, 27936, Note_on_c, 2, 63, 84
4, 28028, Note_off_c, 2, 63, 64
4, 28032, Note_on_c, 2, 64, 84
4, 28220, Note_off_c, 2, 64, 64
4, 28224, Note_on_c, 2, 66, 84
4, 28316, Note_off_c, 2, 66, 64
4, 28320, Note_on_c, 2, 63, 84
4, 28412, Note_off_c, 2, 63, 64
4, 28416, Note_on_c, 2, 64, 84
4, 28604, Note_off_c, 2, 64, 64
4, 28608, Note_on_c, 2, 66, 84
4, 28700, Note_off_c, 2, 66, 64
4, 28704, Note_on_c, 2, 63, 84
4, 28796, Note_off_c, 2, 63, 64
4, 28800, Note_on_c, 2, 64, 84
4, 28988, Note_off_c, 2, 64, 64
4, 28992, Note_on_c, 2, 66, 84
4, 29084, Note_off_c, 2, 66, 64
4, 29088, Note_on_c, 2, 63, 84
4, 29180, Note_off_c, 2, 63, 64
4, 29184, Note_on_c, 2, 64, 84
4, 29372, Note_off_c, 2, 64, 64
4, 29568, Note_on_c, 2, 52, 84
4, 29756, Note_off_c, 2, 52, 64
4, 30720, Note_on_c, 2, 61, 64
4, 30720, Note_on_c, 2, 57, 64
4, 30908, Note_off_c, 2, 61, 64
4, 30908, Note_off_c, 2, 57, 64
4, 30912, Note_on_c, 2, 64, 64
4, 31100, Note_off_c, 2, 64, 64
4, 31104, Note_on_c, 2, 52, 64
4, 31292, Note_off_c, 2, 52, 64
4, 31296, Note_on_c, 2, 64, 64
4, 31484, Note_off_c, 2, 64, 64
4, 31488, Note_on_c, 2, 61, 64
4, 31488, Note_on_c, 2, 57, 64
4, 31676, Note_off_c, 2, 61, 64
4, 31676, Note_off_c, 2, 57, 64
4, 31680, Note_on_c, 2, 64, 64
4, 31868, Note_off_c, 2, 64, 64
4, 31872, Note_on_c, 2, 52, 64
4, 32060, Note_off_c, 2, 52, 64
4, 32064, Note_on_c, 2, 64, 64
4, 32252, Note_off_c, 2, 64, 64
4, 32256, Note_on_c, 2, 56, 64
4, 32256, Note_on_c, 2, 62, 64
4, 32348, Note_off_c, 2, 56, 64
4, 32348, Note_off_c, 2, 62, 64
4, 32448, Note_on_c, 2, 64, 64
4, 32540, Note_off_c, 2, 64, 64
4, 32640, Note_on_c, 2, 52, 64
4, 32732, Note_off_c, 2, 52, 64
4, 32832, Note_on_c, 2, 64, 64
4, 32924, Note_off_c, 2, 64, 64
4, 33024, Note_on_c, 2, 62, 64
4, 33024, Note_on_c, 2, 56, 64
4, 33116, Note_off_c, 2, 62, 64
4, 33116, Note_off_c, 2, 56, 64
4, 33216, Note_on_c, 2, 64, 64
4, 33308, Note_off_c, 2, 64, 64
4, 33408, Note_on_c, 2, 52, 64
4, 33500, Note_off_c, 2, 52, 64
4, 33600, Note_on_c, 2, 64, 64
4, 33692, Note_off_c, 2, 64, 64
4, 33792, Note_on_c, 2, 61, 64
4, 33792, Note_on_c, 2, 57, 64
4, 33980, Note_off_c, 2, 61, 64
4, 33980, Note_off_c, 2, 57, 64
4, 33984, Note_on_c, 2, 64, 64
4, 34172, Note_off_c, 2, 64, 64
4, 34176, Note_on_c, 2, 52, 64
4, 34364, Note_off_c, 2, 52, 64
4, 34368, Note_on_c, 2, 64, 64
4, 34556, Note_off_c, 2, 64, 64
4, 34560, Note_on_c, 2, 61, 64
4, 34560, Note_on_c, 2, 57, 64
4, 34748, Note_off_c, 2, 61, 64
4, 34748, Note_off_c, 2, 57, 64
4, 34752, Note_on_c, 2, 64, 64
4, 34940, Note_off_c, 2, 64, 64
4, 34944, Note_on_c, 2, 52, 64
4, 35132, Note_off_c, 2, 52, 64
4, 35136, Note_on_c, 2, 64, 64
4, 35324, Note_off_c, 2, 64, 64
4, 35328, Note_on_c, 2, 56, 64
4, 35516, Note_off_c, 2, 56, 64
4, 35520, Note_on_c, 2, 59, 64
4, 35708, Note_off_c, 2, 59, 64
4, 35712, Note_on_c, 2, 52, 64
4, 35900, Note_off_c, 2, 52, 64
4, 35904, Note_on_c, 2, 59, 64
4, 36092, Note_off_c, 2, 59, 64
4, 36096, Note_on_c, 2, 56, 64
4, 36284, Note_off_c, 2, 56, 64
4, 36288, Note_on_c, 2, 59, 64
4, 36476, Note_off_c, 2, 59, 64
4, 36480, Note_on_c, 2, 52, 64
4, 36668, Note_off_c, 2, 52, 64
4, 36672, Note_on_c, 2, 64, 64
4, 36860, Note_off_c, 2, 64, 64
4, 36864, Note_on_c, 2, 61, 64
4, 36864, Note_on_c, 2, 57, 64
4, 36956, Note_off_c, 2, 61, 64
4, 36956, Note_off_c, 2, 57, 64
4, 36960, Note_on_c, 2, 64, 64
4, 37052, Note_off_c, 2, 64, 64
4, 37056, Note_on_c, 2, 52, 64
4, 37148, Note_off_c, 2, 52, 64
4, 37152, Note_on_c, 2, 64, 64
4, 37244, Note_off_c, 2, 64, 64
4, 37248, Note_on_c, 2, 61, 64
4, 37248, Note_on_c, 2, 57, 64
4, 37340, Note_off_c, 2, 61, 64
4, 37340, Note_off_c, 2, 57, 64
4, 37344, Note_on_c, 2, 64, 64
4, 37436, Note_off_c, 2, 64, 64
4, 37440, Note_on_c, 2, 52, 64
4, 37532, Note_off_c, 2, 52, 64
4, 37536, Note_on_c, 2, 64, 64
4, 37628, Note_off_c, 2, 64, 64
4, 37632, Note_on_c, 2, 61, 64
4, 37632, Note_on_c, 2, 57, 64
4, 37724, Note_off_c, 2, 61, 64
4, 37724, Note_off_c, 2, 57, 64
4, 37728, Note_on_c, 2, 64, 64
4, 37820, Note_off_c, 2, 64, 64
4, 37824, Note_on_c, 2, 52, 64
4, 37916, Note_off_c, 2, 52, 64
4, 37920, Note_on_c, 2, 64, 64
4, 38012, Note_off_c, 2, 64, 64
4, 38016, Note_on_c, 2, 61, 64
4, 38016, Note_on_c, 2, 57, 64
4, 38108, Note_off_c, 2, 61, 64
4, 38108, Note_off_c, 2, 57, 64
4, 38112, Note_on_c, 2, 64, 64
4, 38204, Note_off_c, 2, 64, 64
4, 38208, Note_on_c, 2, 52, 64
4, 38300, Note_off_c, 2, 52, 64
4, 38304, Note_on_c, 2, 64, 64
4, 38396, Note_off_c, 2, 64, 64
4, 38400, Note_on_c, 2, 62, 64
4, 38400, Note_on_c, 2, 56, 64
4, 38492, Note_off_c, 2, 62, 64
4, 38492, Note_off_c, 2, 56, 64
4, 38496, Note_on_c, 2, 64, 64
4, 38588, Note_off_c, 2, 64, 64
4, 38592, Note_on_c, 2, 52, 64
4, 38684, Note_off_c, 2, 52, 64
4, 38688, Note_on_c, 2, 64, 64
4, 38780, Note_off_c, 2, 64, 64
4, 38784, Note_on_c, 2, 56, 64
4, 38784, Note_on_c, 2, 62, 64
4, 38876, Note_off_c, 2, 56, 64
4, 38876, Note_off_c, 2, 62, 64
4, 38880, Note_on_c, 2, 64, 64
4, 38972, Note_off_c, 2, 64, 64
4, 38976, Note_on_c, 2, 52, 64
4, 39068, Note_off_c, 2, 52, 64
4, 39072, Note_on_c, 2, 64, 64
4, 39164, Note_off_c, 2, 64, 64
4, 39168, Note_on_c, 2, 62, 64
4, 39168, Note_on_c, 2, 56, 64
4, 39260, Note_off_c, 2, 62, 64
4, 39260, Note_off_c, 2, 56, 64
4, 39264, Note_on_c, 2, 64, 64
4, 39356, Note_off_c, 2, 64, 64
4, 39360, Note_on_c, 2, 52, 64
4, 39452, Note_off_c, 2, 52, 64
4, 39456, Note_on_c, 2, 64, 64
4, 39548, Note_off_c, 2, 64, 64
4, 39552, Note_on_c, 2, 62, 64
4, 39552, Note_on_c, 2, 56, 64
4, 39644, Note_off_c, 2, 62, 64
4, 39644, Note_off_c, 2, 56, 64
4, 39648, Note_on_c, 2, 64, 64
4, 39740, Note_off_c, 2, 64, 64
4, 39744, Note_on_c, 2, 52, 64
4, 39836, Note_off_c, 2, 52, 64
4, 39840, Note_on_c, 2, 64, 64
4, 39932, Note_off_c, 2, 64, 64
4, 39936, Note_on_c, 2, 61, 64
4, 39936, Note_on_c, 2, 57, 64
4, 40028, Note_off_c, 2, 61, 64
4, 40028, Note_off_c, 2, 57, 64
4, 40032, Note_on_c, 2, 64, 64
4, 40124, Note_off_c, 2, 64, 64
4, 40128, Note_on_c, 2, 52, 64
4, 40220, Note_off_c, 2, 52, 64
4, 40224, Note_on_c, 2, 64, 64
4, 40316, Note_off_c, 2, 64, 64
4, 40320, Note_on_c, 2, 61, 64
4, 40320, Note_on_c, 2, 57, 64
4, 40412, Note_off_c, 2, 61, 64
4, 40412, Note_off_c, 2, 57, 64
4, 40416, Note_on_c, 2, 64, 64
4, 40508, Note_off_c, 2, 64, 64
4, 40512, Note_on_c, 2, 52, 64
4, 40604, Note_off_c, 2, 52, 64
4, 40608, Note_on_c, 2, 64, 64
4, 40700, Note_off_c, 2, 64, 64
4, 40704, Note_on_c, 2, 61, 64
4, 40704, Note_on_c, 2, 57, 64
4, 40796, Note_off_c, 2, 61, 64
4, 40796, Note_off_c, 2, 57, 64
4, 40800, Note_on_c, 2, 64, 64
4, 40892, Note_off_c, 2, 64, 64
4, 40896, Note_on_c, 2, 52, 64
4, 40988, Note_off_c, 2, 52, 64
4, 40992, Note_on_c, 2, 64, 64
4, 41084, Note_off_c, 2, 64, 64
4, 41088, Note_on_c, 2, 61, 64
4, 41088, Note_on_c, 2, 57, 64
4, 41180, Note_off_c, 2, 61, 64
4, 41180, Note_off_c, 2, 57, 64
4, 41184, Note_on_c, 2, 64, 64
4, 41276, Note_off_c, 2, 64, 64
4, 41280, Note_on_c, 2, 52, 64
4, 41372, Note_off_c, 2, 52, 64
4, 41376, Note_on_c, 2, 64, 64
4, 41468, Note_off_c, 2, 64, 64
4, 41472, Note_on_c, 2, 59, 64
4, 41472, Note_on_c, 2, 56, 64
4, 41564, Note_off_c, 2, 59, 64
4, 41564, Note_off_c, 2, 56, 64
4, 41568, Note_on_c, 2, 64, 64
4, 41660, Note_off_c, 2, 64, 64
4, 41664, Note_on_c, 2, 52, 64
4, 41756, Note_off_c, 2, 52, 64
4, 41760, Note_on_c, 2, 64, 64
4, 41852, Note_off_c, 2, 64, 64
4, 41856, Note_on_c, 2, 59, 64
4, 41856, Note_on_c, 2, 56, 64
4, 41948, Note_off_c, 2, 59, 64
4, 41948, Note_off_c, 2, 56, 64
4, 41952, Note_on_c, 2, 64, 64
4, 42044, Note_off_c, 2, 64, 64
4, 42048, Note_on_c, 2, 52, 64
4, 42140, Note_off_c, 2, 52, 64
4, 42144, Note_on_c, 2, 64, 64
4, 42236, Note_off_c, 2, 64, 64
4, 42240, Note_on_c, 2, 59, 64
4, 42240, Note_on_c, 2, 56, 64
4, 42332, Note_off_c, 2, 59, 64
4, 42332, Note_off_c, 2, 56, 64
4, 42336, Note_on_c, 2, 64, 64
4, 42428, Note_off_c, 2, 64, 64
4, 42432, Note_on_c, 2, 52, 64
4, 42524, Note_off_c, 2, 52, 64
4, 42528, Note_on_c, 2, 64, 64
4, 42620, Note_off_c, 2, 64, 64
4, 42624, Note_on_c, 2, 52, 64
4, 42812, Note_off_c, 2, 52, 64
4, 43008, Note_on_c, 2, 62, 84
4, 43008, Note_on_c, 2, 57, 84
4, 43008, Note_on_c, 2, 54, 84
4, 43104, Note_off_c, 2, 62, 64
4, 43104, Note_off_c, 2, 57, 64
4, 43104, Note_off_c, 2, 54, 64
4, 43200, Note_on_c, 2, 62, 84
4, 43200, Note_on_c, 2, 57, 84
4, 43200, Note_on_c, 2, 54, 84
4, 43296, Note_off_c, 2, 62, 64
4, 43296, Note_off_c, 2, 57, 64
4, 43296, Note_off_c, 2, 54, 64
4, 43392, Note_on_c, 2, 62, 84
4, 43392, Note_on_c, 2, 57, 84
4, 43392, Note_on_c, 2, 54, 84
4, 43488, Note_off_c, 2, 62, 64
4, 43488, Note_off_c, 2, 57, 64
4, 43488, Note_off_c, 2, 54, 64
4, 43584, Note_on_c, 2, 62, 84
4, 43584, Note_on_c, 2, 57, 84
4, 43584, Note_on_c, 2, 54, 84
4, 43680, Note_off_c, 2, 62, 64
4, 43680, Note_off_c, 2, 57, 64
4, 43680, Note_off_c, 2, 54, 64
4, 43776, Note_on_c, 2, 62, 64
4, 43776, Note_on_c, 2, 57, 64
4, 43776, Note_on_c, 2, 54, 64
4, 43872, Note_off_c, 2, 62, 64
4, 43872, Note_off_c, 2, 57, 64
4, 43872, Note_off_c, 2, 54, 64
4, 43968, Note_on_c, 2, 62, 64
4, 43968, Note_on_c, 2, 57, 64
4, 43968, Note_on_c, 2, 54, 64
4, 44064, Note_off_c, 2, 62, 64
4, 44064, Note_off_c, 2, 57, 64
4, 44064, Note_off_c, 2, 54, 64
4, 44160, Note_on_c, 2, 62, 64
4, 44160, Note_on_c, 2, 57, 64
4, 44160, Note_on_c, 2, 54, 64
4, 44256, Note_off_c, 2, 62, 64
4, 44256, Note_off_c, 2, 57, 64
4, 44256, Note_off_c, 2, 54, 64
4, 44352, Note_on_c, 2, 62, 64
4, 44352, Note_on_c, 2, 57, 64
4, 44352, Note_on_c, 2, 54, 64
4, 44448, Note_off_c, 2, 62, 64
4, 44448, Note_off_c, 2, 57, 64
4, 44448, Note_off_c, 2, 54, 64
4, 44544, Note_on_c, 2, 64, 84
4, 44544, Note_on_c, 2, 57, 84
4, 44544, Note_on_c, 2, 52, 84
4, 44640, Note_off_c, 2, 64, 64
4, 44640, Note_off_c, 2, 57, 64
4, 44640, Note_off_c, 2, 52, 64
4, 44736, Note_on_c, 2, 61, 84
4, 44736, Note_on_c, 2, 57, 84
4, 44736, Note_on_c, 2, 52, 84
4, 44832, Note_off_c, 2, 61, 64
4, 44832, Note_off_c, 2, 57, 64
4, 44832, Note_off_c, 2, 52, 64
4, 44928, Note_on_c, 2, 61, 84
4, 44928, Note_on_c, 2, 57, 84
4, 44928, Note_on_c, 2, 52, 84
4, 45024, Note_off_c, 2, 61, 64
4, 45024, Note_off_c, 2, 57, 64
4, 45024, Note_off_c, 2, 52, 64
4, 45120, Note_on_c, 2, 61, 84
4, 45120, Note_on_c, 2, 57, 84
4, 45120, Note_on_c, 2, 52, 84
4, 45216, Note_off_c, 2, 61, 64
4, 45216, Note_off_c, 2, 57, 64
4, 45216, Note_off_c, 2, 52, 64
4, 45312, Note_on_c, 2, 61, 64
4, 45312, Note_on_c, 2, 57, 64
4, 45312, Note_on_c, 2, 52, 64
4, 45408, Note_off_c, 2, 61, 64
4, 45408, Note_off_c, 2, 57, 64
4, 45408, Note_off_c, 2, 52, 64
4, 45504, Note_on_c, 2, 61, 64
4, 45504, Note_on_c, 2, 57, 64
4, 45504, Note_on_c, 2, 52, 64
4, 45600, Note_off_c, 2, 61, 64
4, 45600, Note_off_c, 2, 57, 64
4, 45600, Note_off_c, 2, 52, 64
4, 45696, Note_on_c, 2, 61, 64
4, 45696, Note_on_c, 2, 57, 64
4, 45696, Note_on_c, 2, 52, 64
4, 45792, Note_off_c, 2, 61, 64
4, 45792, Note_off_c, 2, 57, 64
4, 45792, Note_off_c, 2, 52, 64
4, 45888, Note_on_c, 2, 61, 64
4, 45888, Note_on_c, 2, 57, 64
4, 45888, Note_on_c, 2, 52, 64
4, 45984, Note_off_c, 2, 61, 64
4, 45984, Note_off_c, 2, 57, 64
4, 45984, Note_off_c, 2, 52, 64
4, 46080, Note_on_c, 2, 50, 84
4, 46080, Note_on_c, 2, 38, 87
4, 46460, Note_off_c, 2, 50, 64
4, 46460, Note_off_c, 2, 38, 64
4, 46464, Note_on_c, 2, 52, 84
4, 46464, Note_on_c, 2, 40, 86
4, 46844, Note_off_c, 2, 52, 64
4, 46844, Note_off_c, 2, 40, 64
4, 46848, Note_on_c, 2, 54, 84
4, 46848, Note_on_c, 2, 42, 85
4, 47228, Note_off_c, 2, 54, 64
4, 47228, Note_off_c, 2, 42, 64
4, 47232, Note_on_c, 2, 51, 84
4, 47232, Note_on_c, 2, 39, 87
4, 47612, Note_off_c, 2, 51, 64
4, 47612, Note_off_c, 2, 39, 64
4, 47616, Note_on_c, 2, 52, 84
4, 47616, Note_on_c, 2, 40, 86
4, 47708, Note_off_c, 2, 52, 64
4, 47708, Note_off_c, 2, 40, 64
4, 48384, Note_on_c, 2, 57, 64
4, 48476, Note_off_c, 2, 57, 64
4, 49152, Note_on_c, 2, 56, 64
4, 49152, Note_on_c, 2, 52, 64
4, 49244, Note_off_c, 2, 56, 64
4, 49244, Note_off_c, 2, 52, 64
4, 50688, Note_on_c, 2, 57, 80
4, 50688, Note_on_c, 2, 52, 80
4, 50688, Note_on_c, 2, 49, 80
4, 50688, Note_on_c, 2, 45, 80
4, 50876, Note_off_c, 2, 57, 64
4, 50876, Note_off_c, 2, 52, 64
4, 50876, Note_off_c, 2, 49, 64
4, 50876, Note_off_c, 2, 45, 64
4, 50880, Note_on_c, 2, 57, 80
4, 50880, Note_on_c, 2, 52, 80
4, 50880, Note_on_c, 2, 49, 80
4, 50880, Note_on_c, 2, 45, 80
4, 51068, Note_off_c, 2, 57, 64
4, 51068, Note_off_c, 2, 52, 64
4, 51068, Note_off_c, 2, 49, 64
4, 51068, Note_off_c, 2, 45, 64
4, 51072, Note_on_c, 2, 57, 80
4, 51072, Note_on_c, 2, 54, 80
4, 51072, Note_on_c, 2, 50, 80
4, 51072, Note_on_c, 2, 45, 80
4, 51260, Note_off_c, 2, 57, 64
4, 51260, Note_off_c, 2, 54, 64
4, 51260, Note_off_c, 2, 50, 64
4, 51260, Note_off_c, 2, 45, 64
4, 51264, Note_on_c, 2, 57, 80
4, 51264, Note_on_c, 2, 54, 80
4, 51264, Note_on_c, 2, 50, 80
4, 51264, Note_on_c, 2, 45, 80
4, 51452, Note_off_c, 2, 57, 64
4, 51452, Note_off_c, 2, 54, 64
4, 51452, Note_off_c, 2, 50, 64
4, 51452, Note_off_c, 2, 45, 64
4, 51456, Note_on_c, 2, 57, 80
4, 51456, Note_on_c, 2, 52, 80
4, 51456, Note_on_c, 2, 49, 80
4, 51456, Note_on_c, 2, 45, 80
4, 51644, Note_off_c, 2, 57, 64
4, 51644, Note_off_c, 2, 52, 64
4, 51644, Note_off_c, 2, 49, 64
4, 51644, Note_off_c, 2, 45, 64
4, 51648, Note_on_c, 2, 57, 80
4, 51648, Note_on_c, 2, 52, 80
4, 51648, Note_on_c, 2, 49, 80
4, 51648, Note_on_c, 2, 45, 80
4, 51836, Note_off_c, 2, 57, 64
4, 51836, Note_off_c, 2, 52, 64
4, 51836, Note_off_c, 2, 49, 64
4, 51836, Note_off_c, 2, 45, 64
4, 51840, Note_on_c, 2, 57, 80
4, 51840, Note_on_c, 2, 54, 80
4, 51840, Note_on_c, 2, 50, 80
4, 51840, Note_on_c, 2, 45, 80
4, 52028, Note_off_c, 2, 57, 64
4, 52028, Note_off_c, 2, 54, 64
4, 52028, Note_off_c, 2, 50, 64
4, 52028, Note_off_c, 2, 45, 64
4, 52032, Note_on_c, 2, 57, 80
4, 52032, Note_on_c, 2, 54, 80
4, 52032, Note_on_c, 2, 50, 80
4, 52032, Note_on_c, 2, 45, 80
4, 52220, Note_off_c, 2, 57, 64
4, 52220, Note_off_c, 2, 54, 64
4, 52220, Note_off_c, 2, 50, 64
4, 52220, Note_off_c, 2, 45, 64
4, 52224, Note_on_c, 2, 57, 80
4, 52224, Note_on_c, 2, 52, 80
4, 52224, Note_on_c, 2, 49, 80
4, 52224, Note_on_c, 2, 45, 80
4, 52412, Note_off_c, 2, 57, 64
4, 52412, Note_off_c, 2, 52, 64
4, 52412, Note_off_c, 2, 49, 64
4, 52412, Note_off_c, 2, 45, 64
4, 52416, Note_on_c, 2, 57, 80
4, 52416, Note_on_c, 2, 52, 80
4, 52416, Note_on_c, 2, 49, 80
4, 52416, Note_on_c, 2, 45, 80
4, 52604, Note_off_c, 2, 57, 64
4, 52604, Note_off_c, 2, 52, 64
4, 52604, Note_off_c, 2, 49, 64
4, 52604, Note_off_c, 2, 45, 64
4, 52608, Note_on_c, 2, 57, 80
4, 52608, Note_on_c, 2, 54, 80
4, 52608, Note_on_c, 2, 50, 80
4, 52608, Note_on_c, 2, 45, 80
4, 52796, Note_off_c, 2, 57, 64
4, 52796, Note_off_c, 2, 54, 64
4, 52796, Note_off_c, 2, 50, 64
4, 52796, Note_off_c, 2, 45, 64
4, 52800, Note_on_c, 2, 57, 80
4, 52800, Note_on_c, 2, 54, 80
4, 52800, Note_on_c, 2, 50, 80
4, 52800, Note_on_c, 2, 45, 80
4, 52988, Note_off_c, 2, 57, 64
4, 52988, Note_off_c, 2, 54, 64
4, 52988, Note_off_c, 2, 50, 64
4, 52988, Note_off_c, 2, 45, 64
4, 52992, Note_on_c, 2, 57, 80
4, 52992, Note_on_c, 2, 52, 80
4, 52992, Note_on_c, 2, 49, 80
4, 52992, Note_on_c, 2, 45, 80
4, 53180, Note_off_c, 2, 57, 64
4, 53180, Note_off_c, 2, 52, 64
4, 53180, Note_off_c, 2, 49, 64
4, 53180, Note_off_c, 2, 45, 64
4, 53184, Note_on_c, 2, 57, 80
4, 53184, Note_on_c, 2, 52, 80
4, 53184, Note_on_c, 2, 49, 80
4, 53184, Note_on_c, 2, 45, 80
4, 53372, Note_off_c, 2, 57, 64
4, 53372, Note_off_c, 2, 52, 64
4, 53372, Note_off_c, 2, 49, 64
4, 53372, Note_off_c, 2, 45, 64
4, 53376, Note_on_c, 2, 59, 80
4, 53376, Note_on_c, 2, 56, 80
4, 53376, Note_on_c, 2, 52, 80
4, 53564, Note_off_c, 2, 59, 64
4, 53564, Note_off_c, 2, 56, 64
4, 53564, Note_off_c, 2, 52, 64
4, 53568, Note_on_c, 2, 59, 80
4, 53568, Note_on_c, 2, 56, 80
4, 53568, Note_on_c, 2, 52, 80
4, 53756, Note_off_c, 2, 59, 64
4, 53756, Note_off_c, 2, 56, 64
4, 53756, Note_off_c, 2, 52, 64
4, 53760, Note_on_c, 2, 57, 80
4, 53760, Note_on_c, 2, 52, 80
4, 53760, Note_on_c, 2, 49, 80
4, 53760, Note_on_c, 2, 45, 80
4, 53948, Note_off_c, 2, 57, 64
4, 53948, Note_off_c, 2, 52, 64
4, 53948, Note_off_c, 2, 49, 64
4, 53948, Note_off_c, 2, 45, 64
4, 53952, Note_on_c, 2, 57, 80
4, 53952, Note_on_c, 2, 52, 80
4, 53952, Note_on_c, 2, 49, 80
4, 53952, Note_on_c, 2, 45, 80
4, 54140, Note_off_c, 2, 57, 64
4, 54140, Note_off_c, 2, 52, 64
4, 54140, Note_off_c, 2, 49, 64
4, 54140, Note_off_c, 2, 45, 64
4, 54144, Note_on_c, 2, 66, 64
4, 54144, Note_on_c, 2, 62, 64
4, 54144, Note_on_c, 2, 57, 64
4, 54240, Note_off_c, 2, 66, 64
4, 54240, Note_off_c, 2, 62, 64
4, 54240, Note_off_c, 2, 57, 64
4, 54336, Note_on_c, 2, 66, 64
4, 54336, Note_on_c, 2, 62, 64
4, 54336, Note_on_c, 2, 57, 64
4, 54432, Note_off_c, 2, 66, 64
4, 54432, Note_off_c, 2, 62, 64
4, 54432, Note_off_c, 2, 57, 64
4, 54528, Note_on_c, 2, 64, 64
4, 54528, Note_on_c, 2, 61, 64
4, 54528, Note_on_c, 2, 57, 64
4, 54624, Note_off_c, 2, 64, 64
4, 54624, Note_off_c, 2, 61, 64
4, 54624, Note_off_c, 2, 57, 64
4, 54720, Note_on_c, 2, 64, 64
4, 54720, Note_on_c, 2, 61, 64
4, 54720, Note_on_c, 2, 57, 64
4, 54816, Note_off_c, 2, 64, 64
4, 54816, Note_off_c, 2, 61, 64
4, 54816, Note_off_c, 2, 57, 64
4, 54912, Note_on_c, 2, 66, 64
4, 54912, Note_on_c, 2, 62, 64
4, 54912, Note_on_c, 2, 57, 64
4, 55008, Note_off_c, 2, 66, 64
4, 55008, Note_off_c, 2, 62, 64
4, 55008, Note_off_c, 2, 57, 64
4, 55104, Note_on_c, 2, 66, 64
4, 55104, Note_on_c, 2, 62, 64
4, 55104, Note_on_c, 2, 57, 64
4, 55200, Note_off_c, 2, 66, 64
4, 55200, Note_off_c, 2, 62, 64
4, 55200, Note_off_c, 2, 57, 64
4, 55296, Note_on_c, 2, 64, 64
4, 55296, Note_on_c, 2, 61, 64
4, 55296, Note_on_c, 2, 57, 64
4, 55392, Note_off_c, 2, 64, 64
4, 55392, Note_off_c, 2, 61, 64
4, 55392, Note_off_c, 2, 57, 64
4, 55488, Note_on_c, 2, 64, 64
4, 55488, Note_on_c, 2, 61, 64
4, 55488, Note_on_c, 2, 57, 64
4, 55584, Note_off_c, 2, 64, 64
4, 55584, Note_off_c, 2, 61, 64
4, 55584, Note_off_c, 2, 57, 64
4, 55680, Note_on_c, 2, 57, 80
4, 55680, Note_on_c, 2, 54, 80
4, 55680, Note_on_c, 2, 50, 80
4, 55680, Note_on_c, 2, 45, 80
4, 55868, Note_off_c, 2, 57, 64
4, 55868, Note_off_c, 2, 54, 64
4, 55868, Note_off_c, 2, 50, 64
4, 55868, Note_off_c, 2, 45, 64
4, 55872, Note_on_c, 2, 57, 80
4, 55872, Note_on_c, 2, 54, 80
4, 55872, Note_on_c, 2, 50, 80
4, 55872, Note_on_c, 2, 45, 80
4, 56060, Note_off_c, 2, 57, 64
4, 56060, Note_off_c, 2, 54, 64
4, 56060, Note_off_c, 2, 50, 64
4, 56060, Note_off_c, 2, 45, 64
4, 56064, Note_on_c, 2, 57, 80
4, 56064, Note_on_c, 2, 52, 80
4, 56064, Note_on_c, 2, 49, 80
4, 56064, Note_on_c, 2, 45, 80
4, 56252, Note_off_c, 2, 57, 64
4, 56252, Note_off_c, 2, 52, 64
4, 56252, Note_off_c, 2, 49, 64
4, 56252, Note_off_c, 2, 45, 64
4, 56256, Note_on_c, 2, 57, 80
4, 56256, Note_on_c, 2, 52, 80
4, 56256, Note_on_c, 2, 49, 80
4, 56256, Note_on_c, 2, 45, 80
4, 56444, Note_off_c, 2, 57, 64
4, 56444, Note_off_c, 2, 52, 64
4, 56444, Note_off_c, 2, 49, 64
4, 56444, Note_off_c, 2, 45, 64
4, 56448, Note_on_c, 2, 59, 80
4, 56448, Note_on_c, 2, 56, 80
4, 56448, Note_on_c, 2, 52, 80
4, 56636, Note_off_c, 2, 59, 64
4, 56636, Note_off_c, 2, 56, 64
4, 56636, Note_off_c, 2, 52, 64
4, 56640, Note_on_c, 2, 59, 80
4, 56640, Note_on_c, 2, 56, 80
4, 56640, Note_on_c, 2, 52, 80
4, 56828, Note_off_c, 2, 59, 64
4, 56828, Note_off_c, 2, 56, 64
4, 56828, Note_off_c, 2, 52, 64
4, 56832, Note_on_c, 2, 61, 80
4, 56832, Note_on_c, 2, 57, 80
4, 57212, Note_off_c, 2, 61, 64
4, 57212, Note_off_c, 2, 57, 64
4, 57216, Note_on_c, 2, 64, 80
4, 57312, Note_off_c, 2, 64, 64
4, 57408, Note_on_c, 2, 61, 80
4, 57504, Note_off_c, 2, 61, 64
4, 57600, Note_on_c, 2, 57, 80
4, 57696, Note_off_c, 2, 57, 64
4, 57792, Note_on_c, 2, 61, 80
4, 57888, Note_off_c, 2, 61, 64
4, 57984, Note_on_c, 2, 52, 80
4, 58080, Note_off_c, 2, 52, 64
4, 58176, Note_on_c, 2, 57, 80
4, 58272, Note_off_c, 2, 57, 64
4, 58368, Note_on_c, 2, 49, 80
4, 58748, Note_off_c, 2, 49, 64
4, 58752, Note_on_c, 2, 61, 80
4, 58848, Note_off_c, 2, 61, 64
4, 58944, Note_on_c, 2, 57, 80
4, 59040, Note_off_c, 2, 57, 64
4, 59136, Note_on_c, 2, 52, 80
4, 59232, Note_off_c, 2, 52, 64
4, 59328, Note_on_c, 2, 57, 80
4, 59424, Note_off_c, 2, 57, 64
4, 59520, Note_on_c, 2, 49, 80
4, 59616, Note_off_c, 2, 49, 64
4, 59712, Note_on_c, 2, 52, 80
4, 59808, Note_off_c, 2, 52, 64
4, 59904, Note_on_c, 2, 45, 80
4, 60476, Note_off_c, 2, 45, 64
4, 60480, Note_on_c, 2, 49, 80
4, 60572, Note_off_c, 2, 49, 64
4, 60576, Note_on_c, 2, 52, 80
4, 60668, Note_off_c, 2, 52, 64
4, 60672, Note_on_c, 2, 57, 80
4, 61052, Note_off_c, 2, 57, 64
4, 62208, Note_on_c, 2, 45, 69
4, 62396, Note_off_c, 2, 45, 64
4, 62592, Note_on_c, 2, 45, 69
4, 62780, Note_off_c, 2, 45, 64
4, 62976, Note_on_c, 2, 45, 69
4, 63164, Note_off_c, 2, 45, 64
4, 63360, Note_on_c, 2, 45, 69
4, 63548, Note_off_c, 2, 45, 64
4, 63744, Note_on_c, 2, 45, 69
4, 63932, Note_off_c, 2, 45, 64
4, 64512, Note_on_c, 2, 52, 69
4, 64700, Note_off_c, 2, 52, 64
4, 64704, Note_on_c, 2, 62, 69
4, 64704, Note_on_c, 2, 59, 69
4, 64704, Note_on_c, 2, 52, 69
4, 64892, Note_off_c, 2, 62, 64
4, 64892, Note_off_c, 2, 59, 64
4, 64892, Note_off_c, 2, 52, 64
4, 64896, Note_on_c, 2, 62, 69
4, 64896, Note_on_c, 2, 59, 69
4, 64896, Note_on_c, 2, 52, 69
4, 64988, Note_off_c, 2, 62, 64
4, 64988, Note_off_c, 2, 59, 64
4, 64988, Note_off_c, 2, 52, 64
4, 65280, Note_on_c, 2, 45, 69
4, 65468, Note_off_c, 2, 45, 64
4, 66048, Note_on_c, 2, 50, 69
4, 66236, Note_off_c, 2, 50, 64
4, 66432, Note_on_c, 2, 52, 69
4, 66620, Note_off_c, 2, 52, 64
4, 66816, Note_on_c, 2, 53, 69
4, 67196, Note_off_c, 2, 53, 64
4, 67200, Note_on_c, 2, 52, 69
4, 67388, Note_off_c, 2, 52, 64
4, 67392, Note_on_c, 2, 51, 69
4, 67580, Note_off_c, 2, 51, 64
4, 67584, Note_on_c, 2, 52, 87
4, 67772, Note_off_c, 2, 52, 64
4, 67968, Note_on_c, 2, 52, 87
4, 68156, Note_off_c, 2, 52, 64
4, 68352, Note_on_c, 2, 45, 87
4, 68540, Note_off_c, 2, 45, 64
4, 68544, Note_on_c, 2, 50, 87
4, 68732, Note_off_c, 2, 50, 64
4, 68736, Note_on_c, 2, 49, 87
4, 68924, Note_off_c, 2, 49, 64
4, 68928, Note_on_c, 2, 47, 87
4, 69116, Note_off_c, 2, 47, 64
4, 69120, Note_on_c, 2, 45, 78
4, 69500, Note_off_c, 2, 45, 64
4, 70644, Program_c, 2, 48
4, 70656, Note_on_c, 2, 45, 78
4, 70656, Note_on_c, 2, 33, 78
4, 70844, Note_off_c, 2, 45, 64
4, 70844, Note_off_c, 2, 33, 64
4, 70848, Note_on_c, 2, 52, 82
4, 70848, Note_on_c, 2, 49, 82
4, 70848, Note_on_c, 2, 45, 82
4, 70940, Note_off_c, 2, 52, 64
4, 70940, Note_off_c, 2, 49, 64
4, 70940, Note_off_c, 2, 45, 64
4, 70944, Note_on_c, 2, 57, 82
4, 71036, Note_off_c, 2, 57, 64
4, 71040, Note_on_c, 2, 52, 82
4, 71040, Note_on_c, 2, 49, 82
4, 71040, Note_on_c, 2, 45, 82
4, 71132, Note_off_c, 2, 52, 64
4, 71132, Note_off_c, 2, 49, 64
4, 71132, Note_off_c, 2, 45, 64
4, 71136, Note_on_c, 2, 57, 82
4, 71228, Note_off_c, 2, 57, 64
4, 71232, Note_on_c, 2, 52, 82
4, 71232, Note_on_c, 2, 49, 82
4, 71232, Note_on_c, 2, 45, 82
4, 71324, Note_off_c, 2, 52, 64
4, 71324, Note_off_c, 2, 49, 64
4, 71324, Note_off_c, 2, 45, 64
4, 71328, Note_on_c, 2, 57, 82
4, 71420, Note_off_c, 2, 57, 64
4, 71424, Note_on_c, 2, 52, 82
4, 71424, Note_on_c, 2, 49, 82
4, 71424, Note_on_c, 2, 45, 82
4, 71516, Note_off_c, 2, 52, 64
4, 71516, Note_off_c, 2, 49, 64
4, 71516, Note_off_c, 2, 45, 64
4, 71520, Note_on_c, 2, 57, 82
4, 71612, Note_off_c, 2, 57, 64
4, 71616, Note_on_c, 2, 52, 82
4, 71616, Note_on_c, 2, 49, 82
4, 71616, Note_on_c, 2, 45, 82
4, 71708, Note_off_c, 2, 52, 64
4, 71708, Note_off_c, 2, 49, 64
4, 71708, Note_off_c, 2, 45, 64
4, 71712, Note_on_c, 2, 57, 82
4, 71804, Note_off_c, 2, 57, 64
4, 71808, Note_on_c, 2, 52, 64
4, 71808, Note_on_c, 2, 49, 64
4, 71808, Note_on_c, 2, 45, 64
4, 71900, Note_off_c, 2, 52, 64
4, 71900, Note_off_c, 2, 49, 64
4, 71900, Note_off_c, 2, 45, 64
4, 71904, Note_on_c, 2, 57, 64
4, 71996, Note_off_c, 2, 57, 64
4, 72000, Note_on_c, 2, 52, 64
4, 72000, Note_on_c, 2, 49, 64
4, 72000, Note_on_c, 2, 45, 64
4, 72092, Note_off_c, 2, 52, 64
4, 72092, Note_off_c, 2, 49, 64
4, 72092, Note_off_c, 2, 45, 64
4, 72096, Note_on_c, 2, 57, 64
4, 72188, Note_off_c, 2, 57, 64
4, 72192, Note_on_c, 2, 52, 64
4, 72192, Note_on_c, 2, 49, 64
4, 72192, Note_on_c, 2, 45, 64
4, 72284, Note_off_c, 2, 52, 64
4, 72284, Note_off_c, 2, 49, 64
4, 72284, Note_off_c, 2, 45, 64
4, 72288, Note_on_c, 2, 57, 64
4, 72380, Note_off_c, 2, 57, 64
4, 72384, Note_on_c, 2, 52, 64
4, 72384, Note_on_c, 2, 49, 64
4, 72384, Note_on_c, 2, 45, 64
4, 72476, Note_off_c, 2, 52, 64
4, 72476, Note_off_c, 2, 49, 64
4, 72476, Note_off_c, 2, 45, 64
4, 72480, Note_on_c, 2, 57, 64
4, 72572, Note_off_c, 2, 57, 64
4, 72576, Note_on_c, 2, 52, 64
4, 72576, Note_on_c, 2, 49, 64
4, 72576, Note_on_c, 2, 45, 64
4, 72668, Note_off_c, 2, 52, 64
4, 72668, Note_off_c, 2, 49, 64
4, 72668, Note_off_c, 2, 45, 64
4, 72672, Note_on_c, 2, 57, 64
4, 72764, Note_off_c, 2, 57, 64
4, 72768, Note_on_c, 2, 52, 64
4, 72768, Note_on_c, 2, 49, 64
4, 72768, Note_on_c, 2, 45, 64
4, 72860, Note_off_c, 2, 52, 64
4, 72860, Note_off_c, 2, 49, 64
4, 72860, Note_off_c, 2, 45, 64
4, 72864, Note_on_c, 2, 57, 64
4, 72956, Note_off_c, 2, 57, 64
4, 72960, Note_on_c, 2, 52, 64
4, 72960, Note_on_c, 2, 49, 64
4, 72960, Note_on_c, 2, 45, 64
4, 73052, Note_off_c, 2, 52, 64
4, 73052, Note_off_c, 2, 49, 64
4, 73052, Note_off_c, 2, 45, 64
4, 73056, Note_on_c, 2, 57, 64
4, 73148, Note_off_c, 2, 57, 64
4, 73152, Note_on_c, 2, 52, 64
4, 73152, Note_on_c, 2, 49, 64
4, 73152, Note_on_c, 2, 45, 64
4, 73244, Note_off_c, 2, 52, 64
4, 73244, Note_off_c, 2, 49, 64
4, 73244, Note_off_c, 2, 45, 64
4, 73248, Note_on_c, 2, 57, 64
4, 73340, Note_off_c, 2, 57, 64
4, 73344, Note_on_c, 2, 52, 64
4, 73344, Note_on_c, 2, 49, 64
4, 73344, Note_on_c, 2, 45, 64
4, 73436, Note_off_c, 2, 52, 64
4, 73436, Note_off_c, 2, 49, 64
4, 73436, Note_off_c, 2, 45, 64
4, 73440, Note_on_c, 2, 57, 64
4, 73532, Note_off_c, 2, 57, 64
4, 73536, Note_on_c, 2, 52, 64
4, 73536, Note_on_c, 2, 49, 64
4, 73536, Note_on_c, 2, 45, 64
4, 73628, Note_off_c, 2, 52, 64
4, 73628, Note_off_c, 2, 49, 64
4, 73628, Note_off_c, 2, 45, 64
4, 73632, Note_on_c, 2, 57, 64
4, 73724, Note_off_c, 2, 57, 64
4, 73728, Note_on_c, 2, 61, 64
4, 73728, Note_on_c, 2, 57, 64
4, 73820, Note_off_c, 2, 61, 64
4, 73820, Note_off_c, 2, 57, 64
4, 73824, Note_on_c, 2, 64, 64
4, 73916, Note_off_c, 2, 64, 64
4, 73920, Note_on_c, 2, 61, 64
4, 73920, Note_on_c, 2, 57, 64
4, 74012, Note_off_c, 2, 61, 64
4, 74012, Note_off_c, 2, 57, 64
4, 74016, Note_on_c, 2, 64, 64
4, 74108, Note_off_c, 2, 64, 64
4, 74112, Note_on_c, 2, 61, 64
4, 74112, Note_on_c, 2, 57, 64
4, 74204, Note_off_c, 2, 61, 64
4, 74204, Note_off_c, 2, 57, 64
4, 74208, Note_on_c, 2, 64, 64
4, 74300, Note_off_c, 2, 64, 64
4, 74304, Note_on_c, 2, 61, 64
4, 74304, Note_on_c, 2, 57, 64
4, 74396, Note_off_c, 2, 61, 64
4, 74396, Note_off_c, 2, 57, 64
4, 74400, Note_on_c, 2, 64, 64
4, 74492, Note_off_c, 2, 64, 64
4, 74496, Note_on_c, 2, 61, 64
4, 74496, Note_on_c, 2, 57, 64
4, 74588, Note_off_c, 2, 61, 64
4, 74588, Note_off_c, 2, 57, 64
4, 74592, Note_on_c, 2, 64, 64
4, 74684, Note_off_c, 2, 64, 64
4, 74688, Note_on_c, 2, 61, 64
4, 74688, Note_on_c, 2, 57, 64
4, 74780, Note_off_c, 2, 61, 64
4, 74780, Note_off_c, 2, 57, 64
4, 74784, Note_on_c, 2, 64, 64
4, 74876, Note_off_c, 2, 64, 64
4, 74880, Note_on_c, 2, 61, 64
4, 74880, Note_on_c, 2, 57, 64
4, 74972, Note_off_c, 2, 61, 64
4, 74972, Note_off_c, 2, 57, 64
4, 74976, Note_on_c, 2, 64, 64
4, 75068, Note_off_c, 2, 64, 64
4, 75072, Note_on_c, 2, 61, 64
4, 75072, Note_on_c, 2, 57, 64
4, 75164, Note_off_c, 2, 61, 64
4, 75164, Note_off_c, 2, 57, 64
4, 75168, Note_on_c, 2, 64, 64
4, 75260, Note_off_c, 2, 64, 64
4, 75264, Note_on_c, 2, 61, 64
4, 75264, Note_on_c, 2, 57, 64
4, 75356, Note_off_c, 2, 61, 64
4, 75356, Note_off_c, 2, 57, 64
4, 75360, Note_on_c, 2, 64, 64
4, 75452, Note_off_c, 2, 64, 64
4, 75456, Note_on_c, 2, 61, 64
4, 75456, Note_on_c, 2, 57, 64
4, 75548, Note_off_c, 2, 61, 64
4, 75548, Note_off_c, 2, 57, 64
4, 75552, Note_on_c, 2, 64, 64
4, 75644, Note_off_c, 2, 64, 64
4, 75648, Note_on_c, 2, 61, 64
4, 75648, Note_on_c, 2, 57, 64
4, 75740, Note_off_c, 2, 61, 64
4, 75740, Note_off_c, 2, 57, 64
4, 75744, Note_on_c, 2, 64, 64
4, 75836, Note_off_c, 2, 64, 64
4, 75840, Note_on_c, 2, 61, 64
4, 75840, Note_on_c, 2, 57, 64
4, 75932, Note_off_c, 2, 61, 64
4, 75932, Note_off_c, 2, 57, 64
4, 75936, Note_on_c, 2, 64, 64
4, 76028, Note_off_c, 2, 64, 64
4, 76032, Note_on_c, 2, 61, 64
4, 76032, Note_on_c, 2, 57, 64
4, 76124, Note_off_c, 2, 61, 64
4, 76124, Note_off_c, 2, 57, 64
4, 76128, Note_on_c, 2, 64, 64
4, 76220, Note_off_c, 2, 64, 64
4, 76224, Note_on_c, 2, 61, 64
4, 76224, Note_on_c, 2, 57, 64
4, 76316, Note_off_c, 2, 61, 64
4, 76316, Note_off_c, 2, 57, 64
4, 76320, Note_on_c, 2, 64, 64
4, 76412, Note_off_c, 2, 64, 64
4, 76416, Note_on_c, 2, 61, 64
4, 76416, Note_on_c, 2, 57, 64
4, 76508, Note_off_c, 2, 61, 64
4, 76508, Note_off_c, 2, 57, 64
4, 76512, Note_on_c, 2, 64, 64
4, 76604, Note_off_c, 2, 64, 64
4, 76608, Note_on_c, 2, 61, 64
4, 76608, Note_on_c, 2, 57, 64
4, 76700, Note_off_c, 2, 61, 64
4, 76700, Note_off_c, 2, 57, 64
4, 76704, Note_on_c, 2, 64, 64
4, 76796, Note_off_c, 2, 64, 64
4, 76800, Note_on_c, 2, 64, 82
4, 76800, Note_on_c, 2, 52, 82
4, 77180, Note_off_c, 2, 64, 64
4, 77180, Note_off_c, 2, 52, 64
4, 77184, Note_on_c, 2, 52, 82
4, 77184, Note_on_c, 2, 40, 82
4, 77564, Note_off_c, 2, 52, 64
4, 77564, Note_off_c, 2, 40, 64
4, 77568, Note_on_c, 2, 56, 64
4, 77568, Note_on_c, 2, 52, 64
4, 77660, Note_off_c, 2, 56, 64
4, 77660, Note_off_c, 2, 52, 64
4, 77664, Note_on_c, 2, 59, 64
4, 77756, Note_off_c, 2, 59, 64
4, 77760, Note_on_c, 2, 56, 64
4, 77760, Note_on_c, 2, 52, 64
4, 77852, Note_off_c, 2, 56, 64
4, 77852, Note_off_c, 2, 52, 64
4, 77856, Note_on_c, 2, 59, 64
4, 77948, Note_off_c, 2, 59, 64
4, 77952, Note_on_c, 2, 56, 64
4, 77952, Note_on_c, 2, 52, 64
4, 78044, Note_off_c, 2, 56, 64
4, 78044, Note_off_c, 2, 52, 64
4, 78048, Note_on_c, 2, 59, 64
4, 78140, Note_off_c, 2, 59, 64
4, 78144, Note_on_c, 2, 56, 64
4, 78144, Note_on_c, 2, 52, 64
4, 78236, Note_off_c, 2, 56, 64
4, 78236, Note_off_c, 2, 52, 64
4, 78240, Note_on_c, 2, 59, 64
4, 78332, Note_off_c, 2, 59, 64
4, 78336, Note_on_c, 2, 59, 64
4, 78336, Note_on_c, 2, 56, 64
4, 78336, Note_on_c, 2, 52, 64
4, 78428, Note_off_c, 2, 59, 64
4, 78428, Note_off_c, 2, 56, 64
4, 78428, Note_off_c, 2, 52, 64
4, 78432, Note_on_c, 2, 62, 64
4, 78524, Note_off_c, 2, 62, 64
4, 78528, Note_on_c, 2, 59, 64
4, 78528, Note_on_c, 2, 56, 64
4, 78528, Note_on_c, 2, 52, 64
4, 78620, Note_off_c, 2, 59, 64
4, 78620, Note_off_c, 2, 56, 64
4, 78620, Note_off_c, 2, 52, 64
4, 78624, Note_on_c, 2, 62, 64
4, 78716, Note_off_c, 2, 62, 64
4, 78720, Note_on_c, 2, 59, 64
4, 78720, Note_on_c, 2, 56, 64
4, 78720, Note_on_c, 2, 52, 64
4, 78812, Note_off_c, 2, 59, 64
4, 78812, Note_off_c, 2, 56, 64
4, 78812, Note_off_c, 2, 52, 64
4, 78816, Note_on_c, 2, 62, 64
4, 78908, Note_off_c, 2, 62, 64
4, 78912, Note_on_c, 2, 59, 64
4, 78912, Note_on_c, 2, 56, 64
4, 78912, Note_on_c, 2, 52, 64
4, 79004, Note_off_c, 2, 59, 64
4, 79004, Note_off_c, 2, 56, 64
4, 79004, Note_off_c, 2, 52, 64
4, 79008, Note_on_c, 2, 62, 64
4, 79100, Note_off_c, 2, 62, 64
4, 79104, Note_on_c, 2, 59, 64
4, 79104, Note_on_c, 2, 56, 64
4, 79104, Note_on_c, 2, 52, 64
4, 79196, Note_off_c, 2, 59, 64
4, 79196, Note_off_c, 2, 56, 64
4, 79196, Note_off_c, 2, 52, 64
4, 79200, Note_on_c, 2, 62, 64
4, 79292, Note_off_c, 2, 62, 64
4, 79296, Note_on_c, 2, 59, 64
4, 79296, Note_on_c, 2, 56, 64
4, 79296, Note_on_c, 2, 52, 64
4, 79388, Note_off_c, 2, 59, 64
4, 79388, Note_off_c, 2, 56, 64
4, 79388, Note_off_c, 2, 52, 64
4, 79392, Note_on_c, 2, 62, 64
4, 79484, Note_off_c, 2, 62, 64
4, 79488, Note_on_c, 2, 59, 64
4, 79488, Note_on_c, 2, 56, 64
4, 79488, Note_on_c, 2, 52, 64
4, 79580, Note_off_c, 2, 59, 64
4, 79580, Note_off_c, 2, 56, 64
4, 79580, Note_off_c, 2, 52, 64
4, 79584, Note_on_c, 2, 62, 64
4, 79676, Note_off_c, 2, 62, 64
4, 79680, Note_on_c, 2, 59, 64
4, 79680, Note_on_c, 2, 56, 64
4, 79680, Note_on_c, 2, 52, 64
4, 79772, Note_off_c, 2, 59, 64
4, 79772, Note_off_c, 2, 56, 64
4, 79772, Note_off_c, 2, 52, 64
4, 79776, Note_on_c, 2, 62, 64
4, 79868, Note_off_c, 2, 62, 64
4, 79872, Note_on_c, 2, 62, 64
4, 79872, Note_on_c, 2, 59, 64
4, 79872, Note_on_c, 2, 64, 64
4, 79964, Note_off_c, 2, 62, 64
4, 79964, Note_off_c, 2, 59, 64
4, 79964, Note_off_c, 2, 64, 64
4, 79968, Note_on_c, 2, 68, 64
4, 80060, Note_off_c, 2, 68, 64
4, 80064, Note_on_c, 2, 62, 64
4, 80064, Note_on_c, 2, 64, 64
4, 80064, Note_on_c, 2, 59, 64
4, 80156, Note_off_c, 2, 62, 64
4, 80156, Note_off_c, 2, 64, 64
4, 80156, Note_off_c, 2, 59, 64
4, 80160, Note_on_c, 2, 68, 64
4, 80252, Note_off_c, 2, 68, 64
4, 80256, Note_on_c, 2, 59, 64
4, 80256, Note_on_c, 2, 62, 64
4, 80256, Note_on_c, 2, 64, 64
4, 80348, Note_off_c, 2, 59, 64
4, 80348, Note_off_c, 2, 62, 64
4, 80348, Note_off_c, 2, 64, 64
4, 80352, Note_on_c, 2, 68, 64
4, 80444, Note_off_c, 2, 68, 64
4, 80448, Note_on_c, 2, 59, 64
4, 80448, Note_on_c, 2, 62, 64
4, 80448, Note_on_c, 2, 64, 64
4, 80540, Note_off_c, 2, 59, 64
4, 80540, Note_off_c, 2, 62, 64
4, 80540, Note_off_c, 2, 64, 64
4, 80544, Note_on_c, 2, 68, 64
4, 80636, Note_off_c, 2, 68, 64
4, 80640, Note_on_c, 2, 59, 64
4, 80640, Note_on_c, 2, 62, 64
4, 80640, Note_on_c, 2, 64, 64
4, 80732, Note_off_c, 2, 59, 64
4, 80732, Note_off_c, 2, 62, 64
4, 80732, Note_off_c, 2, 64, 64
4, 80736, Note_on_c, 2, 68, 64
4, 80828, Note_off_c, 2, 68, 64
4, 80832, Note_on_c, 2, 59, 64
4, 80832, Note_on_c, 2, 62, 64
4, 80832, Note_on_c, 2, 64, 64
4, 80924, Note_off_c, 2, 59, 64
4, 80924, Note_off_c, 2, 62, 64
4, 80924, Note_off_c, 2, 64, 64
4, 80928, Note_on_c, 2, 68, 64
4, 81020, Note_off_c, 2, 68, 64
4, 81024, Note_on_c, 2, 59, 64
4, 81024, Note_on_c, 2, 62, 64
4, 81024, Note_on_c, 2, 64, 64
4, 81116, Note_off_c, 2, 59, 64
4, 81116, Note_off_c, 2, 62, 64
4, 81116, Note_off_c, 2, 64, 64
4, 81120, Note_on_c, 2, 68, 64
4, 81212, Note_off_c, 2, 68, 64
4, 81216, Note_on_c, 2, 59, 64
4, 81216, Note_on_c, 2, 62, 64
4, 81216, Note_on_c, 2, 64, 64
4, 81308, Note_off_c, 2, 59, 64
4, 81308, Note_off_c, 2, 62, 64
4, 81308, Note_off_c, 2, 64, 64
4, 81312, Note_on_c, 2, 68, 64
4, 81404, Note_off_c, 2, 68, 64
4, 81408, Note_on_c, 2, 59, 64
4, 81408, Note_on_c, 2, 62, 64
4, 81408, Note_on_c, 2, 64, 64
4, 81500, Note_off_c, 2, 59, 64
4, 81500, Note_off_c, 2, 62, 64
4, 81500, Note_off_c, 2, 64, 64
4, 81504, Note_on_c, 2, 68, 64
4, 81596, Note_off_c, 2, 68, 64
4, 81600, Note_on_c, 2, 59, 64
4, 81600, Note_on_c, 2, 62, 64
4, 81600, Note_on_c, 2, 64, 64
4, 81692, Note_off_c, 2, 59, 64
4, 81692, Note_off_c, 2, 62, 64
4, 81692, Note_off_c, 2, 64, 64
4, 81696, Note_on_c, 2, 68, 64
4, 81788, Note_off_c, 2, 68, 64
4, 81792, Note_on_c, 2, 59, 64
4, 81792, Note_on_c, 2, 62, 64
4, 81792, Note_on_c, 2, 64, 64
4, 81884, Note_off_c, 2, 59, 64
4, 81884, Note_off_c, 2, 62, 64
4, 81884, Note_off_c, 2, 64, 64
4, 81888, Note_on_c, 2, 68, 64
4, 81980, Note_off_c, 2, 68, 64
4, 81984, Note_on_c, 2, 59, 64
4, 81984, Note_on_c, 2, 62, 64
4, 81984, Note_on_c, 2, 64, 64
4, 82076, Note_off_c, 2, 59, 64
4, 82076, Note_off_c, 2, 62, 64
4, 82076, Note_off_c, 2, 64, 64
4, 82080, Note_on_c, 2, 68, 64
4, 82172, Note_off_c, 2, 68, 64
4, 82176, Note_on_c, 2, 59, 64
4, 82176, Note_on_c, 2, 64, 64
4, 82176, Note_on_c, 2, 62, 64
4, 82268, Note_off_c, 2, 59, 64
4, 82268, Note_off_c, 2, 64, 64
4, 82268, Note_off_c, 2, 62, 64
4, 82272, Note_on_c, 2, 68, 64
4, 82364, Note_off_c, 2, 68, 64
4, 82368, Note_on_c, 2, 59, 64
4, 82368, Note_on_c, 2, 62, 64
4, 82368, Note_on_c, 2, 64, 64
4, 82460, Note_off_c, 2, 59, 64
4, 82460, Note_off_c, 2, 62, 64
4, 82460, Note_off_c, 2, 64, 64
4, 82464, Note_on_c, 2, 68, 64
4, 82556, Note_off_c, 2, 68, 64
4, 82560, Note_on_c, 2, 59, 64
4, 82560, Note_on_c, 2, 62, 64
4, 82560, Note_on_c, 2, 64, 64
4, 82652, Note_off_c, 2, 59, 64
4, 82652, Note_off_c, 2, 62, 64
4, 82652, Note_off_c, 2, 64, 64
4, 82656, Note_on_c, 2, 68, 64
4, 82748, Note_off_c, 2, 68, 64
4, 82752, Note_on_c, 2, 59, 64
4, 82752, Note_on_c, 2, 62, 64
4, 82752, Note_on_c, 2, 64, 64
4, 82844, Note_off_c, 2, 59, 64
4, 82844, Note_off_c, 2, 62, 64
4, 82844, Note_off_c, 2, 64, 64
4, 82848, Note_on_c, 2, 68, 64
4, 82940, Note_off_c, 2, 68, 64
4, 82944, Note_on_c, 2, 57, 64
4, 82944, Note_on_c, 2, 69, 64
4, 83324, Note_off_c, 2, 57, 64
4, 83324, Note_off_c, 2, 69, 64
4, 83328, Note_on_c, 2, 57, 64
4, 83328, Note_on_c, 2, 45, 64
4, 83708, Note_off_c, 2, 57, 64
4, 83708, Note_off_c, 2, 45, 64
4, 83712, Note_on_c, 2, 49, 64
4, 83808, Note_off_c, 2, 49, 64
4, 83904, Note_on_c, 2, 49, 64
4, 84000, Note_off_c, 2, 49, 64
4, 84096, Note_on_c, 2, 49, 64
4, 84192, Note_off_c, 2, 49, 64
4, 84288, Note_on_c, 2, 49, 64
4, 84384, Note_off_c, 2, 49, 64
4, 84480, Note_on_c, 2, 50, 82
4, 84668, Note_off_c, 2, 50, 64
4, 84672, Note_on_c, 2, 50, 64
4, 84860, Note_off_c, 2, 50, 64
4, 84864, Note_on_c, 2, 50, 64
4, 85052, Note_off_c, 2, 50, 64
4, 85056, Note_on_c, 2, 50, 64
4, 85244, Note_off_c, 2, 50, 64
4, 85248, Note_on_c, 2, 50, 64
4, 85436, Note_off_c, 2, 50, 64
4, 85440, Note_on_c, 2, 50, 64
4, 85628, Note_off_c, 2, 50, 64
4, 85632, Note_on_c, 2, 50, 64
4, 85820, Note_off_c, 2, 50, 64
4, 85824, Note_on_c, 2, 50, 64
4, 86012, Note_off_c, 2, 50, 64
4, 86016, Note_on_c, 2, 52, 82
4, 86204, Note_off_c, 2, 52, 64
4, 86208, Note_on_c, 2, 52, 64
4, 86396, Note_off_c, 2, 52, 64
4, 86400, Note_on_c, 2, 52, 64
4, 86588, Note_off_c, 2, 52, 64
4, 86592, Note_on_c, 2, 52, 64
4, 86780, Note_off_c, 2, 52, 64
4, 86784, Note_on_c, 2, 52, 64
4, 86972, Note_off_c, 2, 52, 64
4, 86976, Note_on_c, 2, 52, 64
4, 87164, Note_off_c, 2, 52, 64
4, 87168, Note_on_c, 2, 52, 64
4, 87356, Note_off_c, 2, 52, 64
4, 87360, Note_on_c, 2, 52, 64
4, 87548, Note_off_c, 2, 52, 64
4, 87552, Note_on_c, 2, 54, 82
4, 87740, Note_off_c, 2, 54, 64
4, 87744, Note_on_c, 2, 54, 64
4, 87932, Note_off_c, 2, 54, 64
4, 87936, Note_on_c, 2, 54, 64
4, 88124, Note_off_c, 2, 54, 64
4, 88128, Note_on_c, 2, 54, 64
4, 88316, Note_off_c, 2, 54, 64
4, 88320, Note_on_c, 2, 53, 64
4, 88508, Note_off_c, 2, 53, 64
4, 88512, Note_on_c, 2, 53, 66
4, 88700, Note_off_c, 2, 53, 64
4, 88704, Note_on_c, 2, 50, 68
4, 88892, Note_off_c, 2, 50, 64
4, 88896, Note_on_c, 2, 50, 70
4, 89084, Note_off_c, 2, 50, 64
4, 89088, Note_on_c, 2, 52, 73
4, 89184, Note_off_c, 2, 52, 64
4, 89472, Note_on_c, 2, 59, 73
4, 89472, Note_on_c, 2, 52, 73
4, 89568, Note_off_c, 2, 59, 64
4, 89568, Note_off_c, 2, 52, 64
4, 89856, Note_on_c, 2, 57, 73
4, 89856, Note_on_c, 2, 54, 73
4, 89952, Note_off_c, 2, 57, 64
4, 89952, Note_off_c, 2, 54, 64
4, 90240, Note_on_c, 2, 59, 73
4, 90240, Note_on_c, 2, 54, 73
4, 90336, Note_off_c, 2, 59, 64
4, 90336, Note_off_c, 2, 54, 64
4, 90624, Note_on_c, 2, 52, 73
4, 90812, Note_off_c, 2, 52, 64
4, 90816, Note_on_c, 2, 52, 73
4, 91004, Note_off_c, 2, 52, 64
4, 91008, Note_on_c, 2, 52, 73
4, 91196, Note_off_c, 2, 52, 64
4, 91200, Note_on_c, 2, 52, 73
4, 91388, Note_off_c, 2, 52, 64
4, 91392, Note_on_c, 2, 52, 73
4, 91580, Note_off_c, 2, 52, 64
4, 91584, Note_on_c, 2, 52, 73
4, 91772, Note_off_c, 2, 52, 64
4, 91776, Note_on_c, 2, 52, 73
4, 91964, Note_off_c, 2, 52, 64
4, 91968, Note_on_c, 2, 52, 73
4, 92156, Note_off_c, 2, 52, 64
4, 92160, Note_on_c, 2, 57, 73
4, 92540, Note_off_c, 2, 57, 64
4, 92544, Note_on_c, 2, 64, 82
4, 92640, Note_off_c, 2, 64, 64
4, 92736, Note_on_c, 2, 61, 82
4, 92832, Note_off_c, 2, 61, 64
4, 92928, Note_on_c, 2, 57, 82
4, 93024, Note_off_c, 2, 57, 64
4, 93120, Note_on_c, 2, 61, 82
4, 93216, Note_off_c, 2, 61, 64
4, 93312, Note_on_c, 2, 52, 82
4, 93408, Note_off_c, 2, 52, 64
4, 93504, Note_on_c, 2, 57, 82
4, 93600, Note_off_c, 2, 57, 64
4, 93696, Note_on_c, 2, 49, 82
4, 94076, Note_off_c, 2, 49, 64
4, 94080, Note_on_c, 2, 61, 82
4, 94176, Note_off_c, 2, 61, 64
4, 94272, Note_on_c, 2, 57, 82
4, 94368, Note_off_c, 2, 57, 64
4, 94464, Note_on_c, 2, 52, 82
4, 94560, Note_off_c, 2, 52, 64
4, 94656, Note_on_c, 2, 57, 82
4, 94752, Note_off_c, 2, 57, 64
4, 94848, Note_on_c, 2, 49, 82
4, 94944, Note_off_c, 2, 49, 64
4, 95040, Note_on_c, 2, 52, 82
4, 95136, Note_off_c, 2, 52, 64
4, 95232, Note_on_c, 2, 45, 82
4, 95804, Note_off_c, 2, 45, 64
4, 95808, Note_on_c, 2, 49, 82
4, 95896, Note_off_c, 2, 49, 64
4, 95904, Note_on_c, 2, 52, 82
4, 95992, Note_off_c, 2, 52, 64
4, 96000, Note_on_c, 2, 57, 82
4, 96380, Note_off_c, 2, 57, 64
4, 98304, Note_on_c, 2, 52, 82
4, 98876, Note_off_c, 2, 52, 64
4, 98880, Note_on_c, 2, 56, 82
4, 98968, Note_off_c, 2, 56, 64
4, 98976, Note_on_c, 2, 59, 82
4, 99064, Note_off_c, 2, 59, 64
4, 99072, Note_on_c, 2, 64, 82
4, 99452, Note_off_c, 2, 64, 64
4, 101376, Note_on_c, 2, 45, 82
4, 101948, Note_off_c, 2, 45, 64
4, 101952, Note_on_c, 2, 49, 82
4, 102044, Note_off_c, 2, 49, 64
4, 102048, Note_on_c, 2, 52, 82
4, 102140, Note_off_c, 2, 52, 64
4, 102144, Note_on_c, 2, 57, 82
4, 102524, Note_off_c, 2, 57, 64
4, 103296, Note_on_c, 2, 64, 64
4, 103676, Note_off_c, 2, 64, 64
4, 103680, Note_on_c, 2, 62, 64
4, 104060, Note_off_c, 2, 62, 64
4, 104064, Note_on_c, 2, 61, 64
4, 104444, Note_off_c, 2, 61, 64
4, 104448, Note_on_c, 2, 62, 64
4, 104448, Note_on_c, 2, 50, 64
4, 104636, Note_off_c, 2, 62, 64
4, 104636, Note_off_c, 2, 50, 64
4, 104640, Note_on_c, 2, 50, 64
4, 104828, Note_off_c, 2, 50, 64
4, 104832, Note_on_c, 2, 50, 64
4, 105020, Note_off_c, 2, 50, 64
4, 105024, Note_on_c, 2, 50, 64
4, 105212, Note_off_c, 2, 50, 64
4, 105216, Note_on_c, 2, 50, 64
4, 105216, Note_on_c, 2, 57, 64
4, 105404, Note_off_c, 2, 50, 64
4, 105408, Note_on_c, 2, 50, 64
4, 105596, Note_off_c, 2, 50, 64
4, 105600, Note_on_c, 2, 52, 64
4, 105788, Note_off_c, 2, 57, 64
4, 105788, Note_off_c, 2, 52, 64
4, 105792, Note_on_c, 2, 52, 64
4, 105980, Note_off_c, 2, 52, 64
4, 105984, Note_on_c, 2, 54, 64
4, 106172, Note_off_c, 2, 54, 64
4, 106176, Note_on_c, 2, 54, 64
4, 106364, Note_off_c, 2, 54, 64
4, 106368, Note_on_c, 2, 54, 64
4, 106556, Note_off_c, 2, 54, 64
4, 106560, Note_on_c, 2, 54, 64
4, 106748, Note_off_c, 2, 54, 64
4, 106752, Note_on_c, 2, 54, 64
4, 106752, Note_on_c, 2, 57, 64
4, 106940, Note_off_c, 2, 54, 64
4, 106944, Note_on_c, 2, 54, 64
4, 107132, Note_off_c, 2, 54, 64
4, 107136, Note_on_c, 2, 52, 64
4, 107324, Note_off_c, 2, 57, 64
4, 107324, Note_off_c, 2, 52, 64
4, 107328, Note_on_c, 2, 52, 64
4, 107516, Note_off_c, 2, 52, 64
4, 107520, Note_on_c, 2, 50, 64
4, 107900, Note_off_c, 2, 50, 64
4, 108288, Note_on_c, 2, 50, 64
4, 108668, Note_off_c, 2, 50, 64
4, 109056, Note_on_c, 2, 50, 64
4, 109244, Note_off_c, 2, 50, 64
4, 109248, Note_on_c, 2, 50, 64
4, 109436, Note_off_c, 2, 50, 64
4, 109440, Note_on_c, 2, 50, 64
4, 109628, Note_off_c, 2, 50, 64
4, 109632, Note_on_c, 2, 50, 64
4, 109820, Note_off_c, 2, 50, 64
4, 109824, Note_on_c, 2, 50, 64
4, 110012, Note_off_c, 2, 50, 64
4, 110016, Note_on_c, 2, 50, 64
4, 110204, Note_off_c, 2, 50, 64
4, 110208, Note_on_c, 2, 51, 64
4, 110396, Note_off_c, 2, 51, 64
4, 110400, Note_on_c, 2, 51, 64
4, 110588, Note_off_c, 2, 51, 64
4, 110592, Note_on_c, 2, 52, 64
4, 110972, Note_off_c, 2, 52, 64
4, 110976, Note_on_c, 2, 64, 82
4, 111068, Note_off_c, 2, 64, 64
4, 111072, Note_on_c, 2, 63, 82
4, 111164, Note_off_c, 2, 63, 64
4, 111168, Note_on_c, 2, 64, 82
4, 111260, Note_off_c, 2, 64, 64
4, 111264, Note_on_c, 2, 63, 82
4, 111356, Note_off_c, 2, 63, 64
4, 111360, Note_on_c, 2, 64, 82
4, 111456, Note_off_c, 2, 64, 64
4, 111552, Note_on_c, 2, 59, 82
4, 111648, Note_off_c, 2, 59, 64
4, 111744, Note_on_c, 2, 62, 82
4, 111836, Note_off_c, 2, 62, 64
4, 111840, Note_on_c, 2, 61, 82
4, 111932, Note_off_c, 2, 61, 64
4, 111936, Note_on_c, 2, 59, 82
4, 112028, Note_off_c, 2, 59, 64
4, 112032, Note_on_c, 2, 57, 82
4, 112124, Note_off_c, 2, 57, 64
4, 112128, Note_on_c, 2, 56, 82
4, 112224, Note_off_c, 2, 56, 64
4, 112320, Note_on_c, 2, 52, 82
4, 112416, Note_off_c, 2, 52, 64
4, 112512, Note_on_c, 2, 64, 82
4, 112604, Note_off_c, 2, 64, 64
4, 112608, Note_on_c, 2, 63, 82
4, 112700, Note_off_c, 2, 63, 64
4, 112704, Note_on_c, 2, 64, 82
4, 112796, Note_off_c, 2, 64, 64
4, 112800, Note_on_c, 2, 63, 82
4, 112892, Note_off_c, 2, 63, 64
4, 112896, Note_on_c, 2, 64, 82
4, 112992, Note_off_c, 2, 64, 64
4, 113088, Note_on_c, 2, 59, 82
4, 113184, Note_off_c, 2, 59, 64
4, 113280, Note_on_c, 2, 62, 82
4, 113372, Note_off_c, 2, 62, 64
4, 113376, Note_on_c, 2, 61, 82
4, 113468, Note_off_c, 2, 61, 64
4, 113472, Note_on_c, 2, 59, 82
4, 113564, Note_off_c, 2, 59, 64
4, 113568, Note_on_c, 2, 57, 82
4, 113660, Note_off_c, 2, 57, 64
4, 113664, Note_on_c, 2, 52, 82
4, 114044, Note_off_c, 2, 52, 64
4, 119232, Note_on_c, 2, 59, 64
4, 119328, Note_off_c, 2, 59, 64
4, 119424, Note_on_c, 2, 59, 64
4, 119520, Note_off_c, 2, 59, 64
4, 119616, Note_on_c, 2, 59, 64
4, 119712, Note_off_c, 2, 59, 64
4, 119808, Note_on_c, 2, 52, 64
4, 120188, Note_off_c, 2, 52, 64
4, 120576, Note_on_c, 2, 59, 64
4, 120576, Note_on_c, 2, 56, 64
4, 120956, Note_off_c, 2, 59, 64
4, 120956, Note_off_c, 2, 56, 64
4, 121344, Note_on_c, 2, 57, 64
4, 121724, Note_off_c, 2, 57, 64
4, 122112, Note_on_c, 2, 61, 64
4, 122112, Note_on_c, 2, 54, 64
4, 122492, Note_off_c, 2, 61, 64
4, 122492, Note_off_c, 2, 54, 64
4, 122880, Note_on_c, 2, 47, 64
4, 124028, Note_off_c, 2, 47, 64
4, 124404, Program_c, 2, 48
4, 124416, Note_on_c, 2, 64, 64
4, 124796, Note_off_c, 2, 64, 64
4, 124800, Note_on_c, 2, 59, 64
4, 125180, Note_off_c, 2, 59, 64
4, 125184, Note_on_c, 2, 64, 64
4, 125564, Note_off_c, 2, 64, 64
4, 125568, Note_on_c, 2, 59, 64
4, 125948, Note_off_c, 2, 59, 64
4, 125952, Note_on_c, 2, 63, 64
4, 126332, Note_off_c, 2, 63, 64
4, 126336, Note_on_c, 2, 59, 64
4, 126716, Note_off_c, 2, 59, 64
4, 126720, Note_on_c, 2, 63, 64
4, 127100, Note_off_c, 2, 63, 64
4, 127104, Note_on_c, 2, 59, 64
4, 127484, Note_off_c, 2, 59, 64
4, 127488, Note_on_c, 2, 64, 64
4, 127868, Note_off_c, 2, 64, 64
4, 127872, Note_on_c, 2, 59, 64
4, 128252, Note_off_c, 2, 59, 64
4, 128256, Note_on_c, 2, 64, 64
4, 128636, Note_off_c, 2, 64, 64
4, 128640, Note_on_c, 2, 59, 64
4, 129020, Note_off_c, 2, 59, 64
4, 129024, Note_on_c, 2, 63, 64
4, 129404, Note_off_c, 2, 63, 64
4, 129408, Note_on_c, 2, 59, 64
4, 129788, Note_off_c, 2, 59, 64
4, 129792, Note_on_c, 2, 63, 64
4, 130172, Note_off_c, 2, 63, 64
4, 130176, Note_on_c, 2, 59, 64
4, 130556, Note_off_c, 2, 59, 64
4, 130560, Note_on_c, 2, 52, 64
4, 130652, Note_off_c, 2, 52, 64
4, 130656, Note_on_c, 2, 59, 64
4, 130748, Note_off_c, 2, 59, 64
4, 130752, Note_on_c, 2, 56, 64
4, 130844, Note_off_c, 2, 56, 64
4, 130848, Note_on_c, 2, 59, 64
4, 130940, Note_off_c, 2, 59, 64
4, 130944, Note_on_c, 2, 47, 64
4, 131036, Note_off_c, 2, 47, 64
4, 131040, Note_on_c, 2, 59, 64
4, 131132, Note_off_c, 2, 59, 64
4, 131136, Note_on_c, 2, 56, 64
4, 131228, Note_off_c, 2, 56, 64
4, 131232, Note_on_c, 2, 59, 64
4, 131324, Note_off_c, 2, 59, 64
4, 131328, Note_on_c, 2, 52, 64
4, 131420, Note_off_c, 2, 52, 64
4, 131424, Note_on_c, 2, 59, 64
4, 131516, Note_off_c, 2, 59, 64
4, 131520, Note_on_c, 2, 56, 64
4, 131612, Note_off_c, 2, 56, 64
4, 131616, Note_on_c, 2, 59, 64
4, 131708, Note_off_c, 2, 59, 64
4, 131712, Note_on_c, 2, 47, 64
4, 131804, Note_off_c, 2, 47, 64
4, 131808, Note_on_c, 2, 59, 64
4, 131900, Note_off_c, 2, 59, 64
4, 131904, Note_on_c, 2, 56, 64
4, 131996, Note_off_c, 2, 56, 64
4, 132000, Note_on_c, 2, 59, 64
4, 132092, Note_off_c, 2, 59, 64
4, 132096, Note_on_c, 2, 51, 64
4, 132188, Note_off_c, 2, 51, 64
4, 132192, Note_on_c, 2, 59, 64
4, 132284, Note_off_c, 2, 59, 64
4, 132288, Note_on_c, 2, 54, 64
4, 132380, Note_off_c, 2, 54, 64
4, 132384, Note_on_c, 2, 59, 64
4, 132476, Note_off_c, 2, 59, 64
4, 132480, Note_on_c, 2, 47, 64
4, 132572, Note_off_c, 2, 47, 64
4, 132576, Note_on_c, 2, 59, 64
4, 132668, Note_off_c, 2, 59, 64
4, 132672, Note_on_c, 2, 54, 64
4, 132764, Note_off_c, 2, 54, 64
4, 132768, Note_on_c, 2, 59, 64
4, 132860, Note_off_c, 2, 59, 64
4, 132864, Note_on_c, 2, 51, 64
4, 132956, Note_off_c, 2, 51, 64
4, 132960, Note_on_c, 2, 59, 64
4, 133052, Note_off_c, 2, 59, 64
4, 133056, Note_on_c, 2, 54, 64
4, 133148, Note_off_c, 2, 54, 64
4, 133152, Note_on_c, 2, 59, 64
4, 133244, Note_off_c, 2, 59, 64
4, 133248, Note_on_c, 2, 47, 64
4, 133340, Note_off_c, 2, 47, 64
4, 133344, Note_on_c, 2, 59, 64
4, 133436, Note_off_c, 2, 59, 64
4, 133440, Note_on_c, 2, 54, 64
4, 133532, Note_off_c, 2, 54, 64
4, 133536, Note_on_c, 2, 59, 64
4, 133628, Note_off_c, 2, 59, 64
4, 133632, Note_on_c, 2, 52, 64
4, 133724, Note_off_c, 2, 52, 64
4, 133728, Note_on_c, 2, 59, 64
4, 133820, Note_off_c, 2, 59, 64
4, 133824, Note_on_c, 2, 56, 64
4, 133916, Note_off_c, 2, 56, 64
4, 133920, Note_on_c, 2, 59, 64
4, 134012, Note_off_c, 2, 59, 64
4, 134016, Note_on_c, 2, 47, 64
4, 134108, Note_off_c, 2, 47, 64
4, 134112, Note_on_c, 2, 59, 64
4, 134204, Note_off_c, 2, 59, 64
4, 134208, Note_on_c, 2, 56, 64
4, 134300, Note_off_c, 2, 56, 64
4, 134304, Note_on_c, 2, 59, 64
4, 134396, Note_off_c, 2, 59, 64
4, 134400, Note_on_c, 2, 52, 64
4, 134492, Note_off_c, 2, 52, 64
4, 134496, Note_on_c, 2, 59, 64
4, 134588, Note_off_c, 2, 59, 64
4, 134592, Note_on_c, 2, 56, 64
4, 134684, Note_off_c, 2, 56, 64
4, 134688, Note_on_c, 2, 59, 64
4, 134780, Note_off_c, 2, 59, 64
4, 134784, Note_on_c, 2, 47, 64
4, 134876, Note_off_c, 2, 47, 64
4, 134880, Note_on_c, 2, 59, 64
4, 134972, Note_off_c, 2, 59, 64
4, 134976, Note_on_c, 2, 56, 64
4, 135068, Note_off_c, 2, 56, 64
4, 135072, Note_on_c, 2, 59, 64
4, 135164, Note_off_c, 2, 59, 64
4, 135168, Note_on_c, 2, 51, 64
4, 135260, Note_off_c, 2, 51, 64
4, 135264, Note_on_c, 2, 59, 64
4, 135356, Note_off_c, 2, 59, 64
4, 135360, Note_on_c, 2, 54, 64
4, 135452, Note_off_c, 2, 54, 64
4, 135456, Note_on_c, 2, 59, 64
4, 135548, Note_off_c, 2, 59, 64
4, 135552, Note_on_c, 2, 47, 64
4, 135644, Note_off_c, 2, 47, 64
4, 135648, Note_on_c, 2, 59, 64
4, 135740, Note_off_c, 2, 59, 64
4, 135744, Note_on_c, 2, 54, 64
4, 135836, Note_off_c, 2, 54, 64
4, 135840, Note_on_c, 2, 59, 64
4, 135932, Note_off_c, 2, 59, 64
4, 135936, Note_on_c, 2, 47, 64
4, 136028, Note_off_c, 2, 47, 64
4, 136032, Note_on_c, 2, 59, 64
4, 136124, Note_off_c, 2, 59, 64
4, 136128, Note_on_c, 2, 54, 64
4, 136220, Note_off_c, 2, 54, 64
4, 136224, Note_on_c, 2, 59, 64
4, 136316, Note_off_c, 2, 59, 64
4, 136320, Note_on_c, 2, 47, 64
4, 136412, Note_off_c, 2, 47, 64
4, 136416, Note_on_c, 2, 59, 64
4, 136508, Note_off_c, 2, 59, 64
4, 136512, Note_on_c, 2, 54, 64
4, 136604, Note_off_c, 2, 54, 64
4, 136608, Note_on_c, 2, 59, 64
4, 136700, Note_off_c, 2, 59, 64
4, 136704, Note_on_c, 2, 61, 82
4, 136704, Note_on_c, 2, 49, 82
4, 136892, Note_off_c, 2, 61, 64
4, 136892, Note_off_c, 2, 49, 64
4, 136896, Note_on_c, 2, 61, 82
4, 136896, Note_on_c, 2, 64, 82
4, 137084, Note_off_c, 2, 61, 64
4, 137084, Note_off_c, 2, 64, 64
4, 137088, Note_on_c, 2, 61, 82
4, 137088, Note_on_c, 2, 64, 82
4, 137276, Note_off_c, 2, 61, 64
4, 137276, Note_off_c, 2, 64, 64
4, 137280, Note_on_c, 2, 61, 82
4, 137280, Note_on_c, 2, 64, 82
4, 137468, Note_off_c, 2, 61, 64
4, 137468, Note_off_c, 2, 64, 64
4, 137472, Note_on_c, 2, 61, 64
4, 137472, Note_on_c, 2, 64, 64
4, 137660, Note_off_c, 2, 61, 64
4, 137660, Note_off_c, 2, 64, 64
4, 137856, Note_on_c, 2, 61, 64
4, 137856, Note_on_c, 2, 64, 64
4, 138044, Note_off_c, 2, 61, 64
4, 138044, Note_off_c, 2, 64, 64
4, 138240, Note_on_c, 2, 47, 82
4, 138428, Note_off_c, 2, 47, 64
4, 138432, Note_on_c, 2, 59, 82
4, 138432, Note_on_c, 2, 64, 82
4, 138620, Note_off_c, 2, 59, 64
4, 138620, Note_off_c, 2, 64, 64
4, 138624, Note_on_c, 2, 59, 82
4, 138624, Note_on_c, 2, 64, 82
4, 138812, Note_off_c, 2, 59, 64
4, 138812, Note_off_c, 2, 64, 64
4, 138816, Note_on_c, 2, 59, 82
4, 138816, Note_on_c, 2, 64, 82
4, 139004, Note_off_c, 2, 59, 64
4, 139004, Note_off_c, 2, 64, 64
4, 139008, Note_on_c, 2, 59, 64
4, 139008, Note_on_c, 2, 64, 64
4, 139196, Note_off_c, 2, 59, 64
4, 139196, Note_off_c, 2, 64, 64
4, 139392, Note_on_c, 2, 59, 64
4, 139392, Note_on_c, 2, 64, 64
4, 139580, Note_off_c, 2, 59, 64
4, 139580, Note_off_c, 2, 64, 64
4, 139776, Note_on_c, 2, 57, 73
4, 140156, Note_off_c, 2, 57, 64
4, 140160, Note_on_c, 2, 59, 73
4, 140540, Note_off_c, 2, 59, 64
4, 140544, Note_on_c, 2, 61, 73
4, 140924, Note_off_c, 2, 61, 64
4, 140928, Note_on_c, 2, 58, 73
4, 141308, Note_off_c, 2, 58, 64
4, 141312, Note_on_c, 2, 59, 75
4, 141500, Note_off_c, 2, 59, 64
4, 142080, Note_on_c, 2, 64, 82
4, 142080, Note_on_c, 2, 52, 82
4, 142268, Note_off_c, 2, 64, 64
4, 142268, Note_off_c, 2, 52, 64
4, 142848, Note_on_c, 2, 63, 64
4, 142848, Note_on_c, 2, 47, 64
4, 142944, Note_off_c, 2, 63, 64
4, 142944, Note_off_c, 2, 47, 64
4, 144384, Note_on_c, 2, 52, 64
4, 144480, Note_off_c, 2, 52, 64
4, 144768, Note_on_c, 2, 59, 64
4, 144864, Note_off_c, 2, 59, 64
4, 145152, Note_on_c, 2, 56, 64
4, 145248, Note_off_c, 2, 56, 64
4, 145536, Note_on_c, 2, 52, 64
4, 145632, Note_off_c, 2, 52, 64
4, 145920, Note_on_c, 2, 45, 64
4, 146300, Note_off_c, 2, 45, 64
4, 146304, Note_on_c, 2, 47, 64
4, 146684, Note_off_c, 2, 47, 64
4, 146688, Note_on_c, 2, 49, 64
4, 147068, Note_off_c, 2, 49, 64
4, 147072, Note_on_c, 2, 46, 64
4, 147452, Note_off_c, 2, 46, 64
4, 147456, Note_on_c, 2, 47, 64
4, 147644, Note_off_c, 2, 47, 64
4, 148224, Note_on_c, 2, 52, 64
4, 148412, Note_off_c, 2, 52, 64
4, 148992, Note_on_c, 2, 51, 64
4, 148992, Note_on_c, 2, 47, 64
4, 149088, Note_off_c, 2, 51, 64
4, 149088, Note_off_c, 2, 47, 64
4, 150528, Note_on_c, 2, 52, 73
4, 150528, Note_on_c, 2, 47, 73
4, 150528, Note_on_c, 2, 40, 73
4, 150908, Note_off_c, 2, 52, 64
4, 150908, Note_off_c, 2, 47, 64
4, 150908, Note_off_c, 2, 40, 64
4, 151104, Note_on_c, 2, 57, 73
4, 151200, Note_off_c, 2, 57, 64
4, 151296, Note_on_c, 2, 56, 73
4, 151488, Note_off_c, 2, 56, 64
4, 151872, Note_on_c, 2, 57, 73
4, 151872, Note_on_c, 2, 54, 73
4, 152060, Note_off_c, 2, 57, 64
4, 152060, Note_off_c, 2, 54, 64
4, 152064, Note_on_c, 2, 59, 73
4, 152064, Note_on_c, 2, 52, 73
4, 152444, Note_off_c, 2, 59, 64
4, 152444, Note_off_c, 2, 52, 64
4, 152640, Note_on_c, 2, 57, 73
4, 152736, Note_off_c, 2, 57, 64
4, 152832, Note_on_c, 2, 56, 73
4, 153024, Note_off_c, 2, 56, 64
4, 153408, Note_on_c, 2, 57, 73
4, 153408, Note_on_c, 2, 54, 73
4, 153596, Note_off_c, 2, 57, 64
4, 153596, Note_off_c, 2, 54, 64
4, 153600, Note_on_c, 2, 59, 73
4, 153600, Note_on_c, 2, 52, 73
4, 153980, Note_off_c, 2, 59, 64
4, 153980, Note_off_c, 2, 52, 64
4, 154368, Note_on_c, 2, 59, 73
4, 154368, Note_on_c, 2, 52, 73
4, 154748, Note_off_c, 2, 59, 64
4, 154748, Note_off_c, 2, 52, 64
4, 155136, Note_on_c, 2, 64, 73
4, 155324, Note_off_c, 2, 64, 64
4, 155328, Note_on_c, 2, 64, 73
4, 155516, Note_off_c, 2, 64, 64
4, 155520, Note_on_c, 2, 64, 73
4, 155708, Note_off_c, 2, 64, 64
4, 155712, Note_on_c, 2, 64, 73
4, 155900, Note_off_c, 2, 64, 64
4, 155904, Note_on_c, 2, 64, 73
4, 156092, Note_off_c, 2, 64, 64
4, 156096, Note_on_c, 2, 64, 73
4, 156284, Note_off_c, 2, 64, 64
4, 156288, Note_on_c, 2, 64, 73
4, 156476, Note_off_c, 2, 64, 64
4, 156480, Note_on_c, 2, 64, 73
4, 156668, Note_off_c, 2, 64, 64
4, 156672, Note_on_c, 2, 64, 73
4, 156860, Note_off_c, 2, 64, 64
4, 156864, Note_on_c, 2, 64, 73
4, 157052, Note_off_c, 2, 64, 64
4, 157056, Note_on_c, 2, 64, 73
4, 157244, Note_off_c, 2, 64, 64
4, 157248, Note_on_c, 2, 64, 73
4, 157436, Note_off_c, 2, 64, 64
4, 157440, Note_on_c, 2, 64, 73
4, 157628, Note_off_c, 2, 64, 64
4, 157632, Note_on_c, 2, 64, 73
4, 157820, Note_off_c, 2, 64, 64
4, 157824, Note_on_c, 2, 64, 73
4, 158012, Note_off_c, 2, 64, 64
4, 158016, Note_on_c, 2, 64, 73
4, 158204, Note_off_c, 2, 64, 64
4, 158208, Note_on_c, 2, 64, 73
4, 158208, Note_on_c, 2, 52, 73
4, 158396, Note_off_c, 2, 64, 64
4, 158396, Note_off_c, 2, 52, 64
4, 158400, Note_on_c, 2, 64, 73
4, 158400, Note_on_c, 2, 52, 73
4, 158588, Note_off_c, 2, 64, 64
4, 158588, Note_off_c, 2, 52, 64
4, 158592, Note_on_c, 2, 61, 73
4, 158780, Note_off_c, 2, 61, 64
4, 158784, Note_on_c, 2, 57, 73
4, 158972, Note_off_c, 2, 57, 64
4, 158976, Note_on_c, 2, 59, 73
4, 159072, Note_off_c, 2, 59, 64
4, 159168, Note_on_c, 2, 59, 73
4, 159264, Note_off_c, 2, 59, 64
4, 159360, Note_on_c, 2, 59, 73
4, 159360, Note_on_c, 2, 47, 73
4, 159456, Note_off_c, 2, 59, 64
4, 159456, Note_off_c, 2, 47, 64
4, 159552, Note_on_c, 2, 47, 73
4, 159552, Note_on_c, 2, 59, 73
4, 159648, Note_off_c, 2, 47, 64
4, 159648, Note_off_c, 2, 59, 64
4, 159744, Note_on_c, 2, 59, 73
4, 159744, Note_on_c, 2, 52, 73
4, 160124, Note_off_c, 2, 59, 64
4, 160124, Note_off_c, 2, 52, 64
4, 160512, Note_on_c, 2, 64, 73
4, 160512, Note_on_c, 2, 52, 73
4, 160892, Note_off_c, 2, 64, 64
4, 160892, Note_off_c, 2, 52, 64
4, 161280, Note_on_c, 2, 64, 73
4, 161468, Note_off_c, 2, 64, 64
4, 161472, Note_on_c, 2, 64, 73
4, 161660, Note_off_c, 2, 64, 64
4, 161664, Note_on_c, 2, 64, 73
4, 161852, Note_off_c, 2, 64, 64
4, 161856, Note_on_c, 2, 64, 73
4, 162044, Note_off_c, 2, 64, 64
4, 162048, Note_on_c, 2, 64, 73
4, 162236, Note_off_c, 2, 64, 64
4, 162240, Note_on_c, 2, 64, 73
4, 162428, Note_off_c, 2, 64, 64
4, 162432, Note_on_c, 2, 64, 73
4, 162620, Note_off_c, 2, 64, 64
4, 162624, Note_on_c, 2, 64, 73
4, 162812, Note_off_c, 2, 64, 64
4, 162816, Note_on_c, 2, 64, 73
4, 163004, Note_off_c, 2, 64, 64
4, 163008, Note_on_c, 2, 64, 73
4, 163196, Note_off_c, 2, 64, 64
4, 163200, Note_on_c, 2, 64, 73
4, 163388, Note_off_c, 2, 64, 64
4, 163392, Note_on_c, 2, 64, 73
4, 163580, Note_off_c, 2, 64, 64
4, 163584, Note_on_c, 2, 64, 73
4, 163772, Note_off_c, 2, 64, 64
4, 163776, Note_on_c, 2, 64, 73
4, 163964, Note_off_c, 2, 64, 64
4, 163968, Note_on_c, 2, 64, 73
4, 164156, Note_off_c, 2, 64, 64
4, 164160, Note_on_c, 2, 64, 73
4, 164348, Note_off_c, 2, 64, 64
4, 164352, Note_on_c, 2, 64, 73
4, 164352, Note_on_c, 2, 52, 73
4, 164540, Note_off_c, 2, 64, 64
4, 164540, Note_off_c, 2, 52, 64
4, 164544, Note_on_c, 2, 64, 73
4, 164544, Note_on_c, 2, 52, 73
4, 164732, Note_off_c, 2, 64, 64
4, 164732, Note_off_c, 2, 52, 64
4, 164736, Note_on_c, 2, 61, 73
4, 164924, Note_off_c, 2, 61, 64
4, 164928, Note_on_c, 2, 57, 73
4, 165116, Note_off_c, 2, 57, 64
4, 165120, Note_on_c, 2, 59, 73
4, 165216, Note_off_c, 2, 59, 64
4, 165312, Note_on_c, 2, 59, 73
4, 165408, Note_off_c, 2, 59, 64
4, 165504, Note_on_c, 2, 59, 73
4, 165504, Note_on_c, 2, 47, 73
4, 165600, Note_off_c, 2, 59, 64
4, 165600, Note_off_c, 2, 47, 64
4, 165696, Note_on_c, 2, 59, 73
4, 165696, Note_on_c, 2, 47, 73
4, 165792, Note_off_c, 2, 59, 64
4, 165792, Note_off_c, 2, 47, 64
4, 165888, Note_on_c, 2, 52, 73
4, 165984, Note_off_c, 2, 52, 64
4, 166272, Note_on_c, 2, 54, 73
4, 166368, Note_off_c, 2, 54, 64
4, 166656, Note_on_c, 2, 56, 73
4, 166752, Note_off_c, 2, 56, 64
4, 166848, Note_on_c, 2, 57, 73
4, 166944, Note_off_c, 2, 57, 64
4, 167040, Note_on_c, 2, 56, 73
4, 167136, Note_off_c, 2, 56, 64
4, 167232, Note_on_c, 2, 54, 73
4, 167328, Note_off_c, 2, 54, 64
4, 167424, Note_on_c, 2, 52, 73
4, 167520, Note_off_c, 2, 52, 64
4, 167808, Note_on_c, 2, 52, 73
4, 167904, Note_off_c, 2, 52, 64
4, 168192, Note_on_c, 2, 52, 73
4, 168288, Note_off_c, 2, 52, 64
4, 168576, Note_on_c, 2, 52, 73
4, 168672, Note_off_c, 2, 52, 64
4, 168960, Note_on_c, 2, 59, 82
4, 169148, Note_off_c, 2, 59, 64
4, 169152, Note_on_c, 2, 59, 64
4, 169340, Note_off_c, 2, 59, 64
4, 169344, Note_on_c, 2, 59, 64
4, 169532, Note_off_c, 2, 59, 64
4, 169536, Note_on_c, 2, 59, 64
4, 169724, Note_off_c, 2, 59, 64
4, 169728, Note_on_c, 2, 59, 64
4, 169916, Note_off_c, 2, 59, 64
4, 169920, Note_on_c, 2, 59, 64
4, 170108, Note_off_c, 2, 59, 64
4, 170112, Note_on_c, 2, 59, 64
4, 170300, Note_off_c, 2, 59, 64
4, 170304, Note_on_c, 2, 59, 64
4, 170492, Note_off_c, 2, 59, 64
4, 170496, Note_on_c, 2, 59, 65
4, 170496, Note_on_c, 2, 47, 65
4, 170684, Note_off_c, 2, 59, 64
4, 170684, Note_off_c, 2, 47, 64
4, 170688, Note_on_c, 2, 59, 67
4, 170688, Note_on_c, 2, 47, 67
4, 170876, Note_off_c, 2, 59, 64
4, 170876, Note_off_c, 2, 47, 64
4, 170880, Note_on_c, 2, 59, 69
4, 170880, Note_on_c, 2, 47, 69
4, 171068, Note_off_c, 2, 59, 64
4, 171068, Note_off_c, 2, 47, 64
4, 171072, Note_on_c, 2, 59, 71
4, 171072, Note_on_c, 2, 47, 71
4, 171260, Note_off_c, 2, 59, 64
4, 171260, Note_off_c, 2, 47, 64
4, 171264, Note_on_c, 2, 59, 74
4, 171264, Note_on_c, 2, 47, 74
4, 171452, Note_off_c, 2, 59, 64
4, 171452, Note_off_c, 2, 47, 64
4, 171456, Note_on_c, 2, 59, 77
4, 171456, Note_on_c, 2, 47, 77
4, 171644, Note_off_c, 2, 59, 64
4, 171644, Note_off_c, 2, 47, 64
4, 171648, Note_on_c, 2, 59, 79
4, 171648, Note_on_c, 2, 47, 79
4, 171836, Note_off_c, 2, 59, 64
4, 171836, Note_off_c, 2, 47, 64
4, 171840, Note_on_c, 2, 59, 81
4, 171840, Note_on_c, 2, 47, 81
4, 172028, Note_off_c, 2, 59, 64
4, 172028, Note_off_c, 2, 47, 64
4, 172032, Note_on_c, 2, 59, 82
4, 172032, Note_on_c, 2, 56, 82
4, 172032, Note_on_c, 2, 52, 82
4, 172220, Note_off_c, 2, 59, 64
4, 172220, Note_off_c, 2, 56, 64
4, 172220, Note_off_c, 2, 52, 64
4, 172224, Note_on_c, 2, 59, 82
4, 172224, Note_on_c, 2, 56, 82
4, 172224, Note_on_c, 2, 52, 82
4, 172412, Note_off_c, 2, 59, 64
4, 172412, Note_off_c, 2, 56, 64
4, 172412, Note_off_c, 2, 52, 64
4, 172416, Note_on_c, 2, 61, 82
4, 172416, Note_on_c, 2, 57, 82
4, 172416, Note_on_c, 2, 52, 82
4, 172604, Note_off_c, 2, 61, 64
4, 172604, Note_off_c, 2, 57, 64
4, 172604, Note_off_c, 2, 52, 64
4, 172608, Note_on_c, 2, 61, 82
4, 172608, Note_on_c, 2, 57, 82
4, 172608, Note_on_c, 2, 52, 82
4, 172796, Note_off_c, 2, 61, 64
4, 172796, Note_off_c, 2, 57, 64
4, 172796, Note_off_c, 2, 52, 64
4, 172800, Note_on_c, 2, 59, 82
4, 172800, Note_on_c, 2, 56, 82
4, 172800, Note_on_c, 2, 52, 82
4, 172988, Note_off_c, 2, 59, 64
4, 172988, Note_off_c, 2, 56, 64
4, 172988, Note_off_c, 2, 52, 64
4, 172992, Note_on_c, 2, 59, 82
4, 172992, Note_on_c, 2, 56, 82
4, 172992, Note_on_c, 2, 52, 82
4, 173180, Note_off_c, 2, 59, 64
4, 173180, Note_off_c, 2, 56, 64
4, 173180, Note_off_c, 2, 52, 64
4, 173184, Note_on_c, 2, 61, 82
4, 173184, Note_on_c, 2, 57, 82
4, 173184, Note_on_c, 2, 52, 82
4, 173372, Note_off_c, 2, 61, 64
4, 173372, Note_off_c, 2, 57, 64
4, 173372, Note_off_c, 2, 52, 64
4, 173376, Note_on_c, 2, 61, 82
4, 173376, Note_on_c, 2, 57, 82
4, 173376, Note_on_c, 2, 52, 82
4, 173564, Note_off_c, 2, 61, 64
4, 173564, Note_off_c, 2, 57, 64
4, 173564, Note_off_c, 2, 52, 64
4, 173568, Note_on_c, 2, 59, 82
4, 173568, Note_on_c, 2, 56, 82
4, 173568, Note_on_c, 2, 52, 82
4, 173756, Note_off_c, 2, 59, 64
4, 173756, Note_off_c, 2, 56, 64
4, 173756, Note_off_c, 2, 52, 64
4, 173760, Note_on_c, 2, 59, 82
4, 173760, Note_on_c, 2, 56, 82
4, 173760, Note_on_c, 2, 52, 82
4, 173948, Note_off_c, 2, 59, 64
4, 173948, Note_off_c, 2, 56, 64
4, 173948, Note_off_c, 2, 52, 64
4, 173952, Note_on_c, 2, 61, 82
4, 173952, Note_on_c, 2, 57, 82
4, 173952, Note_on_c, 2, 52, 82
4, 174140, Note_off_c, 2, 61, 64
4, 174140, Note_off_c, 2, 57, 64
4, 174140, Note_off_c, 2, 52, 64
4, 174144, Note_on_c, 2, 61, 82
4, 174144, Note_on_c, 2, 57, 82
4, 174144, Note_on_c, 2, 52, 82
4, 174332, Note_off_c, 2, 61, 64
4, 174332, Note_off_c, 2, 57, 64
4, 174332, Note_off_c, 2, 52, 64
4, 174336, Note_on_c, 2, 59, 82
4, 174336, Note_on_c, 2, 56, 82
4, 174336, Note_on_c, 2, 52, 82
4, 174524, Note_off_c, 2, 59, 64
4, 174524, Note_off_c, 2, 56, 64
4, 174524, Note_off_c, 2, 52, 64
4, 174528, Note_on_c, 2, 59, 82
4, 174528, Note_on_c, 2, 56, 82
4, 174528, Note_on_c, 2, 52, 82
4, 174716, Note_off_c, 2, 59, 64
4, 174716, Note_off_c, 2, 56, 64
4, 174716, Note_off_c, 2, 52, 64
4, 174720, Note_on_c, 2, 59, 82
4, 174720, Note_on_c, 2, 54, 82
4, 174720, Note_on_c, 2, 51, 82
4, 174720, Note_on_c, 2, 47, 82
4, 174908, Note_off_c, 2, 59, 64
4, 174908, Note_off_c, 2, 54, 64
4, 174908, Note_off_c, 2, 51, 64
4, 174908, Note_off_c, 2, 47, 64
4, 174912, Note_on_c, 2, 59, 82
4, 174912, Note_on_c, 2, 54, 82
4, 174912, Note_on_c, 2, 51, 82
4, 174912, Note_on_c, 2, 47, 82
4, 175100, Note_off_c, 2, 59, 64
4, 175100, Note_off_c, 2, 54, 64
4, 175100, Note_off_c, 2, 51, 64
4, 175100, Note_off_c, 2, 47, 64
4, 175104, Note_on_c, 2, 59, 82
4, 175104, Note_on_c, 2, 56, 82
4, 175104, Note_on_c, 2, 52, 82
4, 175292, Note_off_c, 2, 59, 64
4, 175292, Note_off_c, 2, 56, 64
4, 175292, Note_off_c, 2, 52, 64
4, 175296, Note_on_c, 2, 59, 82
4, 175296, Note_on_c, 2, 56, 82
4, 175296, Note_on_c, 2, 52, 82
4, 175484, Note_off_c, 2, 59, 64
4, 175484, Note_off_c, 2, 56, 64
4, 175484, Note_off_c, 2, 52, 64
4, 175488, Note_on_c, 2, 61, 64
4, 175488, Note_on_c, 2, 57, 64
4, 175488, Note_on_c, 2, 52, 64
4, 175676, Note_off_c, 2, 61, 64
4, 175676, Note_off_c, 2, 57, 64
4, 175676, Note_off_c, 2, 52, 64
4, 175680, Note_on_c, 2, 61, 64
4, 175680, Note_on_c, 2, 57, 64
4, 175680, Note_on_c, 2, 52, 64
4, 175868, Note_off_c, 2, 61, 64
4, 175868, Note_off_c, 2, 57, 64
4, 175868, Note_off_c, 2, 52, 64
4, 175872, Note_on_c, 2, 59, 64
4, 175872, Note_on_c, 2, 56, 64
4, 175872, Note_on_c, 2, 52, 64
4, 176060, Note_off_c, 2, 59, 64
4, 176060, Note_off_c, 2, 56, 64
4, 176060, Note_off_c, 2, 52, 64
4, 176064, Note_on_c, 2, 59, 64
4, 176064, Note_on_c, 2, 56, 64
4, 176064, Note_on_c, 2, 52, 64
4, 176252, Note_off_c, 2, 59, 64
4, 176252, Note_off_c, 2, 56, 64
4, 176252, Note_off_c, 2, 52, 64
4, 176256, Note_on_c, 2, 61, 64
4, 176256, Note_on_c, 2, 57, 64
4, 176256, Note_on_c, 2, 52, 64
4, 176444, Note_off_c, 2, 61, 64
4, 176444, Note_off_c, 2, 57, 64
4, 176444, Note_off_c, 2, 52, 64
4, 176448, Note_on_c, 2, 61, 64
4, 176448, Note_on_c, 2, 57, 64
4, 176448, Note_on_c, 2, 52, 64
4, 176636, Note_off_c, 2, 61, 64
4, 176636, Note_off_c, 2, 57, 64
4, 176636, Note_off_c, 2, 52, 64
4, 176640, Note_on_c, 2, 59, 64
4, 176640, Note_on_c, 2, 56, 64
4, 176640, Note_on_c, 2, 52, 64
4, 176828, Note_off_c, 2, 59, 64
4, 176828, Note_off_c, 2, 56, 64
4, 176828, Note_off_c, 2, 52, 64
4, 176832, Note_on_c, 2, 59, 64
4, 176832, Note_on_c, 2, 56, 64
4, 176832, Note_on_c, 2, 52, 64
4, 177020, Note_off_c, 2, 59, 64
4, 177020, Note_off_c, 2, 56, 64
4, 177020, Note_off_c, 2, 52, 64
4, 177024, Note_on_c, 2, 61, 82
4, 177024, Note_on_c, 2, 57, 82
4, 177024, Note_on_c, 2, 52, 82
4, 177212, Note_off_c, 2, 61, 64
4, 177212, Note_off_c, 2, 57, 64
4, 177212, Note_off_c, 2, 52, 64
4, 177216, Note_on_c, 2, 61, 82
4, 177216, Note_on_c, 2, 57, 82
4, 177216, Note_on_c, 2, 52, 82
4, 177404, Note_off_c, 2, 61, 64
4, 177404, Note_off_c, 2, 57, 64
4, 177404, Note_off_c, 2, 52, 64
4, 177408, Note_on_c, 2, 59, 82
4, 177408, Note_on_c, 2, 56, 82
4, 177408, Note_on_c, 2, 52, 82
4, 177596, Note_off_c, 2, 59, 64
4, 177596, Note_off_c, 2, 56, 64
4, 177596, Note_off_c, 2, 52, 64
4, 177600, Note_on_c, 2, 59, 82
4, 177600, Note_on_c, 2, 56, 82
4, 177600, Note_on_c, 2, 52, 82
4, 177788, Note_off_c, 2, 59, 64
4, 177788, Note_off_c, 2, 56, 64
4, 177788, Note_off_c, 2, 52, 64
4, 177792, Note_on_c, 2, 59, 82
4, 177792, Note_on_c, 2, 54, 82
4, 177792, Note_on_c, 2, 51, 82
4, 177792, Note_on_c, 2, 47, 82
4, 177980, Note_off_c, 2, 59, 64
4, 177980, Note_off_c, 2, 54, 64
4, 177980, Note_off_c, 2, 51, 64
4, 177980, Note_off_c, 2, 47, 64
4, 177984, Note_on_c, 2, 59, 82
4, 177984, Note_on_c, 2, 54, 82
4, 177984, Note_on_c, 2, 51, 82
4, 177984, Note_on_c, 2, 47, 82
4, 178172, Note_off_c, 2, 59, 64
4, 178172, Note_off_c, 2, 54, 64
4, 178172, Note_off_c, 2, 51, 64
4, 178172, Note_off_c, 2, 47, 64
4, 178176, Note_on_c, 2, 64, 84
4, 178176, Note_on_c, 2, 59, 82
4, 178176, Note_on_c, 2, 56, 82
4, 178176, Note_on_c, 2, 52, 82
4, 178556, Note_off_c, 2, 64, 64
4, 178556, Note_off_c, 2, 59, 64
4, 178556, Note_off_c, 2, 56, 64
4, 178556, Note_off_c, 2, 52, 64
4, 178560, Note_on_c, 2, 71, 82
4, 178656, Note_off_c, 2, 71, 64
4, 178752, Note_on_c, 2, 68, 82
4, 178848, Note_off_c, 2, 68, 64
4, 178944, Note_on_c, 2, 64, 82
4, 179040, Note_off_c, 2, 64, 64
4, 179136, Note_on_c, 2, 68, 82
4, 179232, Note_off_c, 2, 68, 64
4, 179328, Note_on_c, 2, 59, 82
4, 179424, Note_off_c, 2, 59, 64
4, 179520, Note_on_c, 2, 64, 82
4, 179616, Note_off_c, 2, 64, 64
4, 179712, Note_on_c, 2, 56, 82
4, 180092, Note_off_c, 2, 56, 64
4, 180096, Note_on_c, 2, 64, 82
4, 180192, Note_off_c, 2, 64, 64
4, 180288, Note_on_c, 2, 59, 82
4, 180384, Note_off_c, 2, 59, 64
4, 180480, Note_on_c, 2, 56, 82
4, 180576, Note_off_c, 2, 56, 64
4, 180672, Note_on_c, 2, 59, 82
4, 180768, Note_off_c, 2, 59, 64
4, 180864, Note_on_c, 2, 52, 82
4, 180960, Note_off_c, 2, 52, 64
4, 181056, Note_on_c, 2, 56, 82
4, 181152, Note_off_c, 2, 56, 64
4, 181248, Note_on_c, 2, 48, 82
4, 181248, Note_on_c, 2, 36, 82
4, 182012, Note_off_c, 2, 48, 64
4, 182012, Note_off_c, 2, 36, 64
4, 182784, Note_on_c, 2, 49, 82
4, 182784, Note_on_c, 2, 37, 82
4, 183548, Note_off_c, 2, 49, 64
4, 183548, Note_off_c, 2, 37, 64
4, 184320, Note_on_c, 2, 51, 82
4, 184320, Note_on_c, 2, 39, 82
4, 185084, Note_off_c, 2, 51, 64
4, 185084, Note_off_c, 2, 39, 64
4, 185856, Note_on_c, 2, 52, 82
4, 185856, Note_on_c, 2, 40, 82
4, 186620, Note_off_c, 2, 52, 64
4, 186620, Note_off_c, 2, 40, 64
4, 187392, Note_on_c, 2, 54, 64
4, 187772, Note_off_c, 2, 54, 64
4, 188160, Note_on_c, 2, 56, 64
4, 188540, Note_off_c, 2, 56, 64
4, 188928, Note_on_c, 2, 57, 64
4, 189308, Note_off_c, 2, 57, 64
4, 189888, Note_on_c, 2, 54, 82
4, 190076, Note_off_c, 2, 54, 64
4, 190080, Note_on_c, 2, 51, 82
4, 190268, Note_off_c, 2, 51, 64
4, 190272, Note_on_c, 2, 48, 82
4, 190460, Note_off_c, 2, 48, 64
4, 190464, Note_on_c, 2, 49, 82
4, 190652, Note_off_c, 2, 49, 64
4, 190656, Note_on_c, 2, 61, 82
4, 190844, Note_off_c, 2, 61, 64
4, 190848, Note_on_c, 2, 54, 82
4, 191036, Note_off_c, 2, 54, 64
4, 191040, Note_on_c, 2, 57, 82
4, 191228, Note_off_c, 2, 57, 64
4, 191232, Note_on_c, 2, 56, 82
4, 191420, Note_off_c, 2, 56, 64
4, 191424, Note_on_c, 2, 56, 82
4, 191612, Note_off_c, 2, 56, 64
4, 191616, Note_on_c, 2, 42, 82
4, 191804, Note_off_c, 2, 42, 64
4, 191808, Note_on_c, 2, 56, 82
4, 191808, Note_on_c, 2, 54, 82
4, 191996, Note_off_c, 2, 56, 64
4, 191996, Note_off_c, 2, 54, 64
4, 192000, Note_on_c, 2, 56, 82
4, 192000, Note_on_c, 2, 52, 82
4, 192000, Note_on_c, 2, 49, 82
4, 192380, Note_off_c, 2, 56, 64
4, 192380, Note_off_c, 2, 52, 64
4, 192380, Note_off_c, 2, 49, 64
4, 192384, Note_on_c, 2, 68, 82
4, 192480, Note_off_c, 2, 68, 64
4, 192576, Note_on_c, 2, 64, 82
4, 192672, Note_off_c, 2, 64, 64
4, 192768, Note_on_c, 2, 61, 82
4, 192864, Note_off_c, 2, 61, 64
4, 192960, Note_on_c, 2, 64, 82
4, 193056, Note_off_c, 2, 64, 64
4, 193152, Note_on_c, 2, 56, 82
4, 193248, Note_off_c, 2, 56, 64
4, 193344, Note_on_c, 2, 61, 82
4, 193440, Note_off_c, 2, 61, 64
4, 193536, Note_on_c, 2, 52, 82
4, 193916, Note_off_c, 2, 52, 64
4, 193920, Note_on_c, 2, 61, 82
4, 194016, Note_off_c, 2, 61, 64
4, 194112, Note_on_c, 2, 56, 82
4, 194208, Note_off_c, 2, 56, 64
4, 194304, Note_on_c, 2, 52, 82
4, 194400, Note_off_c, 2, 52, 64
4, 194496, Note_on_c, 2, 56, 82
4, 194592, Note_off_c, 2, 56, 64
4, 194688, Note_on_c, 2, 49, 82
4, 194784, Note_off_c, 2, 49, 64
4, 194880, Note_on_c, 2, 52, 82
4, 194976, Note_off_c, 2, 52, 64
4, 195072, Note_on_c, 2, 43, 82
4, 195168, Note_off_c, 2, 43, 64
4, 195264, Note_on_c, 2, 55, 64
4, 195360, Note_off_c, 2, 55, 64
4, 195456, Note_on_c, 2, 55, 64
4, 195552, Note_off_c, 2, 55, 64
4, 195648, Note_on_c, 2, 55, 64
4, 195744, Note_off_c, 2, 55, 64
4, 195840, Note_on_c, 2, 55, 64
4, 195936, Note_off_c, 2, 55, 64
4, 196032, Note_on_c, 2, 55, 64
4, 196128, Note_off_c, 2, 55, 64
4, 196224, Note_on_c, 2, 55, 64
4, 196320, Note_off_c, 2, 55, 64
4, 196416, Note_on_c, 2, 55, 64
4, 196512, Note_off_c, 2, 55, 64
4, 196608, Note_on_c, 2, 54, 64
4, 196704, Note_off_c, 2, 54, 64
4, 196800, Note_on_c, 2, 66, 64
4, 196800, Note_on_c, 2, 54, 64
4, 196896, Note_off_c, 2, 66, 64
4, 196896, Note_off_c, 2, 54, 64
4, 196992, Note_on_c, 2, 66, 64
4, 196992, Note_on_c, 2, 54, 64
4, 197088, Note_off_c, 2, 66, 64
4, 197088, Note_off_c, 2, 54, 64
4, 197184, Note_on_c, 2, 66, 64
4, 197184, Note_on_c, 2, 54, 64
4, 197280, Note_off_c, 2, 66, 64
4, 197280, Note_off_c, 2, 54, 64
4, 197376, Note_on_c, 2, 66, 64
4, 197376, Note_on_c, 2, 54, 64
4, 197472, Note_off_c, 2, 66, 64
4, 197472, Note_off_c, 2, 54, 64
4, 197568, Note_on_c, 2, 66, 64
4, 197568, Note_on_c, 2, 54, 64
4, 197664, Note_off_c, 2, 66, 64
4, 197664, Note_off_c, 2, 54, 64
4, 197760, Note_on_c, 2, 66, 64
4, 197760, Note_on_c, 2, 54, 64
4, 197856, Note_off_c, 2, 66, 64
4, 197856, Note_off_c, 2, 54, 64
4, 197952, Note_on_c, 2, 66, 64
4, 197952, Note_on_c, 2, 54, 64
4, 198048, Note_off_c, 2, 66, 64
4, 198048, Note_off_c, 2, 54, 64
4, 198144, Note_on_c, 2, 66, 64
4, 198144, Note_on_c, 2, 54, 64
4, 198240, Note_off_c, 2, 66, 64
4, 198240, Note_off_c, 2, 54, 64
4, 198528, Note_on_c, 2, 66, 64
4, 198528, Note_on_c, 2, 54, 64
4, 198624, Note_off_c, 2, 66, 64
4, 198624, Note_off_c, 2, 54, 64
4, 198912, Note_on_c, 2, 66, 64
4, 198912, Note_on_c, 2, 54, 64
4, 199008, Note_off_c, 2, 66, 64
4, 199008, Note_off_c, 2, 54, 64
4, 199296, Note_on_c, 2, 66, 64
4, 199296, Note_on_c, 2, 54, 64
4, 199392, Note_off_c, 2, 66, 64
4, 199392, Note_off_c, 2, 54, 64
4, 199680, Note_on_c, 2, 53, 82
4, 199680, Note_on_c, 2, 41, 82
4, 199776, Note_off_c, 2, 53, 64
4, 199776, Note_off_c, 2, 41, 64
4, 199872, Note_on_c, 2, 53, 64
4, 199968, Note_off_c, 2, 53, 64
4, 200064, Note_on_c, 2, 53, 64
4, 200160, Note_off_c, 2, 53, 64
4, 200256, Note_on_c, 2, 53, 64
4, 200352, Note_off_c, 2, 53, 64
4, 200448, Note_on_c, 2, 53, 64
4, 200544, Note_off_c, 2, 53, 64
4, 200640, Note_on_c, 2, 53, 64
4, 200736, Note_off_c, 2, 53, 64
4, 200832, Note_on_c, 2, 53, 64
4, 200928, Note_off_c, 2, 53, 64
4, 201024, Note_on_c, 2, 53, 64
4, 201120, Note_off_c, 2, 53, 64
4, 201216, Note_on_c, 2, 52, 64
4, 201312, Note_off_c, 2, 52, 64
4, 201408, Note_on_c, 2, 52, 64
4, 201408, Note_on_c, 2, 64, 64
4, 201504, Note_off_c, 2, 52, 64
4, 201504, Note_off_c, 2, 64, 64
4, 201600, Note_on_c, 2, 52, 64
4, 201600, Note_on_c, 2, 64, 64
4, 201696, Note_off_c, 2, 52, 64
4, 201696, Note_off_c, 2, 64, 64
4, 201792, Note_on_c, 2, 52, 64
4, 201792, Note_on_c, 2, 64, 64
4, 201888, Note_off_c, 2, 52, 64
4, 201888, Note_off_c, 2, 64, 64
4, 201984, Note_on_c, 2, 52, 64
4, 201984, Note_on_c, 2, 64, 64
4, 202080, Note_off_c, 2, 52, 64
4, 202080, Note_off_c, 2, 64, 64
4, 202176, Note_on_c, 2, 52, 64
4, 202176, Note_on_c, 2, 64, 64
4, 202272, Note_off_c, 2, 52, 64
4, 202272, Note_off_c, 2, 64, 64
4, 202368, Note_on_c, 2, 52, 64
4, 202368, Note_on_c, 2, 64, 64
4, 202464, Note_off_c, 2, 52, 64
4, 202464, Note_off_c, 2, 64, 64
4, 202560, Note_on_c, 2, 52, 64
4, 202560, Note_on_c, 2, 64, 64
4, 202656, Note_off_c, 2, 52, 64
4, 202656, Note_off_c, 2, 64, 64
4, 202752, Note_on_c, 2, 64, 64
4, 202752, Note_on_c, 2, 52, 64
4, 202848, Note_off_c, 2, 64, 64
4, 202848, Note_off_c, 2, 52, 64
4, 203136, Note_on_c, 2, 64, 64
4, 203136, Note_on_c, 2, 52, 64
4, 203232, Note_off_c, 2, 64, 64
4, 203232, Note_off_c, 2, 52, 64
4, 203520, Note_on_c, 2, 64, 64
4, 203520, Note_on_c, 2, 52, 64
4, 203616, Note_off_c, 2, 64, 64
4, 203616, Note_off_c, 2, 52, 64
4, 203904, Note_on_c, 2, 64, 64
4, 203904, Note_on_c, 2, 52, 64
4, 204000, Note_off_c, 2, 64, 64
4, 204000, Note_off_c, 2, 52, 64
4, 204288, Note_on_c, 2, 45, 82
4, 204476, Note_off_c, 2, 45, 64
4, 204480, Note_on_c, 2, 52, 64
4, 204480, Note_on_c, 2, 57, 64
4, 204860, Note_off_c, 2, 52, 64
4, 204860, Note_off_c, 2, 57, 64
4, 204864, Note_on_c, 2, 57, 64
4, 204864, Note_on_c, 2, 52, 64
4, 205052, Note_off_c, 2, 57, 64
4, 205052, Note_off_c, 2, 52, 64
4, 205056, Note_on_c, 2, 45, 82
4, 205244, Note_off_c, 2, 45, 64
4, 205440, Note_on_c, 2, 57, 64
4, 205440, Note_on_c, 2, 52, 64
4, 205632, Note_on_c, 2, 57, 64
4, 205632, Note_on_c, 2, 52, 64
4, 205820, Note_off_c, 2, 57, 64
4, 205820, Note_off_c, 2, 52, 64
4, 205820, Note_off_c, 2, 57, 64
4, 205820, Note_off_c, 2, 52, 64
4, 205824, Note_on_c, 2, 51, 82
4, 205824, Note_on_c, 2, 39, 82
4, 206012, Note_off_c, 2, 51, 64
4, 206012, Note_off_c, 2, 39, 64
4, 206016, Note_on_c, 2, 57, 64
4, 206016, Note_on_c, 2, 54, 64
4, 206396, Note_off_c, 2, 57, 64
4, 206396, Note_off_c, 2, 54, 64
4, 206400, Note_on_c, 2, 57, 64
4, 206400, Note_on_c, 2, 54, 64
4, 206588, Note_off_c, 2, 57, 64
4, 206588, Note_off_c, 2, 54, 64
4, 206592, Note_on_c, 2, 51, 82
4, 206592, Note_on_c, 2, 39, 82
4, 206780, Note_off_c, 2, 51, 64
4, 206780, Note_off_c, 2, 39, 64
4, 206784, Note_on_c, 2, 57, 64
4, 206784, Note_on_c, 2, 54, 64
4, 207164, Note_off_c, 2, 57, 64
4, 207164, Note_off_c, 2, 54, 64
4, 207168, Note_on_c, 2, 57, 64
4, 207168, Note_on_c, 2, 54, 64
4, 207356, Note_off_c, 2, 57, 64
4, 207356, Note_off_c, 2, 54, 64
4, 207360, Note_on_c, 2, 52, 82
4, 207360, Note_on_c, 2, 40, 82
4, 207740, Note_off_c, 2, 52, 64
4, 207740, Note_off_c, 2, 40, 64
4, 208128, Note_on_c, 2, 52, 82
4, 208128, Note_on_c, 2, 40, 82
4, 208508, Note_off_c, 2, 52, 64
4, 208508, Note_off_c, 2, 40, 64
4, 208896, Note_on_c, 2, 52, 82
4, 208896, Note_on_c, 2, 40, 82
4, 209276, Note_off_c, 2, 52, 64
4, 209276, Note_off_c, 2, 40, 64
4, 209664, Note_on_c, 2, 52, 82
4, 209664, Note_on_c, 2, 40, 82
4, 210044, Note_off_c, 2, 52, 64
4, 210044, Note_off_c, 2, 40, 64
4, 210432, Note_on_c, 2, 52, 64
4, 210432, Note_on_c, 2, 40, 64
4, 210812, Note_off_c, 2, 52, 64
4, 210812, Note_off_c, 2, 40, 64
4, 211200, Note_on_c, 2, 52, 64
4, 211200, Note_on_c, 2, 40, 64
4, 211580, Note_off_c, 2, 52, 64
4, 211580, Note_off_c, 2, 40, 64
4, 211968, Note_on_c, 2, 52, 64
4, 211968, Note_on_c, 2, 40, 64
4, 212348, Note_off_c, 2, 52, 64
4, 212348, Note_off_c, 2, 40, 64
4, 212736, Note_on_c, 2, 52, 66
4, 212736, Note_on_c, 2, 40, 66
4, 213116, Note_off_c, 2, 52, 64
4, 213116, Note_off_c, 2, 40, 64
4, 213504, Note_on_c, 2, 52, 82
4, 213504, Note_on_c, 2, 40, 82
4, 213692, Note_off_c, 2, 52, 64
4, 213692, Note_off_c, 2, 40, 64
4, 213696, Note_on_c, 2, 52, 82
4, 213884, Note_off_c, 2, 52, 64
4, 213888, Note_on_c, 2, 52, 82
4, 214076, Note_off_c, 2, 52, 64
4, 214080, Note_on_c, 2, 54, 82
4, 214172, Note_off_c, 2, 54, 64
4, 214176, Note_on_c, 2, 56, 82
4, 214268, Note_off_c, 2, 56, 64
4, 214272, Note_on_c, 2, 57, 82
4, 214364, Note_off_c, 2, 57, 64
4, 214368, Note_on_c, 2, 56, 82
4, 214460, Note_off_c, 2, 56, 64
4, 214464, Note_on_c, 2, 57, 82
4, 214556, Note_off_c, 2, 57, 64
4, 214560, Note_on_c, 2, 59, 82
4, 214652, Note_off_c, 2, 59, 64
4, 214656, Note_on_c, 2, 61, 82
4, 214748, Note_off_c, 2, 61, 64
4, 214752, Note_on_c, 2, 59, 82
4, 214844, Note_off_c, 2, 59, 64
4, 214848, Note_on_c, 2, 61, 82
4, 214940, Note_off_c, 2, 61, 64
4, 214944, Note_on_c, 2, 62, 82
4, 215036, Note_off_c, 2, 62, 64
4, 215040, Note_on_c, 2, 64, 82
4, 215612, Note_off_c, 2, 64, 64
4, 215616, Note_on_c, 2, 66, 82
4, 215708, Note_off_c, 2, 66, 64
4, 215712, Note_on_c, 2, 63, 82
4, 215804, Note_off_c, 2, 63, 64
4, 215808, Note_on_c, 2, 64, 82
4, 216380, Note_off_c, 2, 64, 64
4, 216384, Note_on_c, 2, 66, 82
4, 216476, Note_off_c, 2, 66, 64
4, 216480, Note_on_c, 2, 63, 82
4, 216572, Note_off_c, 2, 63, 64
4, 216576, Note_on_c, 2, 64, 82
4, 216764, Note_off_c, 2, 64, 64
4, 216768, Note_on_c, 2, 66, 82
4, 216860, Note_off_c, 2, 66, 64
4, 216864, Note_on_c, 2, 63, 82
4, 216956, Note_off_c, 2, 63, 64
4, 216960, Note_on_c, 2, 64, 82
4, 217148, Note_off_c, 2, 64, 64
4, 217152, Note_on_c, 2, 66, 82
4, 217244, Note_off_c, 2, 66, 64
4, 217248, Note_on_c, 2, 63, 82
4, 217340, Note_off_c, 2, 63, 64
4, 217344, Note_on_c, 2, 64, 82
4, 217532, Note_off_c, 2, 64, 64
4, 217536, Note_on_c, 2, 66, 82
4, 217628, Note_off_c, 2, 66, 64
4, 217632, Note_on_c, 2, 63, 82
4, 217724, Note_off_c, 2, 63, 64
4, 217728, Note_on_c, 2, 64, 82
4, 217916, Note_off_c, 2, 64, 64
4, 217920, Note_on_c, 2, 66, 82
4, 218012, Note_off_c, 2, 66, 64
4, 218016, Note_on_c, 2, 63, 82
4, 218108, Note_off_c, 2, 63, 64
4, 218112, Note_on_c, 2, 64, 82
4, 218492, Note_off_c, 2, 64, 64
4, 221184, Note_on_c, 2, 52, 82
4, 221184, Note_on_c, 2, 49, 82
4, 221184, Note_on_c, 2, 45, 82
4, 221280, Note_on_c, 2, 57, 82
4, 221948, Note_off_c, 2, 52, 64
4, 221948, Note_off_c, 2, 49, 64
4, 221948, Note_off_c, 2, 45, 64
4, 221948, Note_off_c, 2, 57, 64
4, 221952, Note_on_c, 2, 52, 64
4, 221952, Note_on_c, 2, 49, 64
4, 221952, Note_on_c, 2, 45, 64
4, 222048, Note_on_c, 2, 57, 64
4, 222716, Note_off_c, 2, 52, 64
4, 222716, Note_off_c, 2, 49, 64
4, 222716, Note_off_c, 2, 45, 64
4, 222716, Note_off_c, 2, 57, 64
4, 222720, Note_on_c, 2, 52, 64
4, 222720, Note_on_c, 2, 49, 64
4, 222720, Note_on_c, 2, 45, 64
4, 222816, Note_on_c, 2, 57, 64
4, 223484, Note_off_c, 2, 52, 64
4, 223484, Note_off_c, 2, 49, 64
4, 223484, Note_off_c, 2, 45, 64
4, 223484, Note_off_c, 2, 57, 64
4, 223488, Note_on_c, 2, 52, 64
4, 223488, Note_on_c, 2, 49, 64
4, 223488, Note_on_c, 2, 45, 64
4, 223584, Note_on_c, 2, 57, 64
4, 224252, Note_off_c, 2, 52, 64
4, 224252, Note_off_c, 2, 49, 64
4, 224252, Note_off_c, 2, 45, 64
4, 224252, Note_off_c, 2, 57, 64
4, 224256, Note_on_c, 2, 61, 64
4, 224256, Note_on_c, 2, 57, 64
4, 224352, Note_on_c, 2, 64, 64
4, 225020, Note_off_c, 2, 61, 64
4, 225020, Note_off_c, 2, 57, 64
4, 225020, Note_off_c, 2, 64, 64
4, 225024, Note_on_c, 2, 61, 64
4, 225024, Note_on_c, 2, 57, 64
4, 225120, Note_on_c, 2, 64, 64
4, 225788, Note_off_c, 2, 61, 64
4, 225788, Note_off_c, 2, 57, 64
4, 225788, Note_off_c, 2, 64, 64
4, 225792, Note_on_c, 2, 61, 64
4, 225792, Note_on_c, 2, 57, 64
4, 225888, Note_on_c, 2, 64, 64
4, 226556, Note_off_c, 2, 61, 64
4, 226556, Note_off_c, 2, 57, 64
4, 226556, Note_off_c, 2, 64, 64
4, 226560, Note_on_c, 2, 61, 64
4, 226560, Note_on_c, 2, 57, 64
4, 226656, Note_on_c, 2, 64, 64
4, 227324, Note_off_c, 2, 61, 64
4, 227324, Note_off_c, 2, 57, 64
4, 227324, Note_off_c, 2, 64, 64
4, 227328, Note_on_c, 2, 64, 82
4, 227328, Note_on_c, 2, 52, 82
4, 227708, Note_off_c, 2, 64, 64
4, 227708, Note_off_c, 2, 52, 64
4, 227712, Note_on_c, 2, 52, 82
4, 227712, Note_on_c, 2, 40, 82
4, 228092, Note_off_c, 2, 52, 64
4, 228092, Note_off_c, 2, 40, 64
4, 228096, Note_on_c, 2, 56, 64
4, 228096, Note_on_c, 2, 52, 64
4, 228188, Note_off_c, 2, 56, 64
4, 228188, Note_off_c, 2, 52, 64
4, 228192, Note_on_c, 2, 59, 64
4, 228284, Note_off_c, 2, 59, 64
4, 228288, Note_on_c, 2, 56, 64
4, 228288, Note_on_c, 2, 52, 64
4, 228380, Note_off_c, 2, 56, 64
4, 228380, Note_off_c, 2, 52, 64
4, 228384, Note_on_c, 2, 59, 64
4, 228476, Note_off_c, 2, 59, 64
4, 228480, Note_on_c, 2, 56, 64
4, 228480, Note_on_c, 2, 52, 64
4, 228572, Note_off_c, 2, 56, 64
4, 228572, Note_off_c, 2, 52, 64
4, 228576, Note_on_c, 2, 59, 64
4, 228668, Note_off_c, 2, 59, 64
4, 228672, Note_on_c, 2, 56, 64
4, 228672, Note_on_c, 2, 52, 64
4, 228764, Note_off_c, 2, 56, 64
4, 228764, Note_off_c, 2, 52, 64
4, 228768, Note_on_c, 2, 59, 64
4, 228860, Note_off_c, 2, 59, 64
4, 228864, Note_on_c, 2, 59, 64
4, 228864, Note_on_c, 2, 56, 64
4, 228864, Note_on_c, 2, 52, 64
4, 228960, Note_on_c, 2, 62, 64
4, 229628, Note_off_c, 2, 59, 64
4, 229628, Note_off_c, 2, 56, 64
4, 229628, Note_off_c, 2, 52, 64
4, 229628, Note_off_c, 2, 62, 64
4, 229632, Note_on_c, 2, 59, 64
4, 229632, Note_on_c, 2, 56, 64
4, 229632, Note_on_c, 2, 52, 64
4, 229728, Note_on_c, 2, 62, 64
4, 230396, Note_off_c, 2, 59, 64
4, 230396, Note_off_c, 2, 56, 64
4, 230396, Note_off_c, 2, 52, 64
4, 230396, Note_off_c, 2, 62, 64
4, 230400, Note_on_c, 2, 59, 64
4, 230400, Note_on_c, 2, 62, 64
4, 230400, Note_on_c, 2, 64, 64
4, 230496, Note_on_c, 2, 68, 64
4, 231164, Note_off_c, 2, 59, 64
4, 231164, Note_off_c, 2, 62, 64
4, 231164, Note_off_c, 2, 64, 64
4, 231164, Note_off_c, 2, 68, 64
4, 231168, Note_on_c, 2, 59, 64
4, 231168, Note_on_c, 2, 64, 64
4, 231168, Note_on_c, 2, 62, 64
4, 231264, Note_on_c, 2, 68, 64
4, 231932, Note_off_c, 2, 59, 64
4, 231932, Note_off_c, 2, 64, 64
4, 231932, Note_off_c, 2, 62, 64
4, 231932, Note_off_c, 2, 68, 64
4, 231936, Note_on_c, 2, 59, 64
4, 231936, Note_on_c, 2, 64, 64
4, 231936, Note_on_c, 2, 62, 64
4, 232032, Note_on_c, 2, 68, 64
4, 232700, Note_off_c, 2, 59, 64
4, 232700, Note_off_c, 2, 64, 64
4, 232700, Note_off_c, 2, 62, 64
4, 232700, Note_off_c, 2, 68, 64
4, 232704, Note_on_c, 2, 59, 64
4, 232704, Note_on_c, 2, 64, 64
4, 232704, Note_on_c, 2, 62, 64
4, 232800, Note_on_c, 2, 68, 64
4, 233468, Note_off_c, 2, 59, 64
4, 233468, Note_off_c, 2, 64, 64
4, 233468, Note_off_c, 2, 62, 64
4, 233468, Note_off_c, 2, 68, 64
4, 233472, Note_on_c, 2, 69, 82
4, 233472, Note_on_c, 2, 57, 82
4, 233852, Note_off_c, 2, 69, 64
4, 233852, Note_off_c, 2, 57, 64
4, 233856, Note_on_c, 2, 57, 82
4, 233856, Note_on_c, 2, 45, 82
4, 234236, Note_off_c, 2, 57, 64
4, 234236, Note_off_c, 2, 45, 64
4, 234240, Note_on_c, 2, 57, 82
4, 234336, Note_off_c, 2, 57, 64
4, 234432, Note_on_c, 2, 57, 82
4, 234528, Note_off_c, 2, 57, 64
4, 234624, Note_on_c, 2, 59, 82
4, 234716, Note_off_c, 2, 59, 64
4, 234720, Note_on_c, 2, 57, 82
4, 234812, Note_off_c, 2, 57, 64
4, 234816, Note_on_c, 2, 56, 82
4, 234908, Note_off_c, 2, 56, 64
4, 234912, Note_on_c, 2, 57, 82
4, 235004, Note_off_c, 2, 57, 64
4, 235008, Note_on_c, 2, 54, 82
4, 235104, Note_off_c, 2, 54, 64
4, 235200, Note_on_c, 2, 54, 82
4, 235296, Note_off_c, 2, 54, 64
4, 235392, Note_on_c, 2, 56, 82
4, 235484, Note_off_c, 2, 56, 64
4, 235488, Note_on_c, 2, 54, 82
4, 235580, Note_off_c, 2, 54, 64
4, 235584, Note_on_c, 2, 52, 82
4, 235676, Note_off_c, 2, 52, 64
4, 235680, Note_on_c, 2, 54, 82
4, 235772, Note_off_c, 2, 54, 64
4, 235776, Note_on_c, 2, 52, 82
4, 235872, Note_off_c, 2, 52, 64
4, 235968, Note_on_c, 2, 52, 82
4, 236064, Note_off_c, 2, 52, 64
4, 236160, Note_on_c, 2, 54, 82
4, 236252, Note_off_c, 2, 54, 64
4, 236256, Note_on_c, 2, 52, 82
4, 236348, Note_off_c, 2, 52, 64
4, 236352, Note_on_c, 2, 51, 82
4, 236444, Note_off_c, 2, 51, 64
4, 236448, Note_on_c, 2, 52, 82
4, 236540, Note_off_c, 2, 52, 64
4, 236544, Note_on_c, 2, 51, 82
4, 236924, Note_off_c, 2, 51, 64
4, 237120, Program_c, 2, 48
4, 240384, Note_on_c, 2, 49, 64
4, 240480, Note_off_c, 2, 49, 64
4, 240576, Note_on_c, 2, 49, 64
4, 240672, Note_off_c, 2, 49, 64
4, 240768, Note_on_c, 2, 49, 64
4, 240864, Note_off_c, 2, 49, 64
4, 240960, Note_on_c, 2, 49, 64
4, 241056, Note_off_c, 2, 49, 64
4, 241152, Note_on_c, 2, 50, 82
4, 241340, Note_off_c, 2, 50, 64
4, 241344, Note_on_c, 2, 50, 64
4, 241532, Note_off_c, 2, 50, 64
4, 241536, Note_on_c, 2, 50, 64
4, 241724, Note_off_c, 2, 50, 64
4, 241728, Note_on_c, 2, 50, 64
4, 241916, Note_off_c, 2, 50, 64
4, 241920, Note_on_c, 2, 50, 64
4, 242108, Note_off_c, 2, 50, 64
4, 242112, Note_on_c, 2, 50, 64
4, 242300, Note_off_c, 2, 50, 64
4, 242304, Note_on_c, 2, 50, 64
4, 242492, Note_off_c, 2, 50, 64
4, 242496, Note_on_c, 2, 50, 64
4, 242684, Note_off_c, 2, 50, 64
4, 242688, Note_on_c, 2, 52, 82
4, 242876, Note_off_c, 2, 52, 64
4, 242880, Note_on_c, 2, 52, 64
4, 243068, Note_off_c, 2, 52, 64
4, 243072, Note_on_c, 2, 52, 64
4, 243260, Note_off_c, 2, 52, 64
4, 243264, Note_on_c, 2, 52, 65
4, 243452, Note_off_c, 2, 52, 64
4, 243456, Note_on_c, 2, 52, 66
4, 243644, Note_off_c, 2, 52, 64
4, 243648, Note_on_c, 2, 52, 68
4, 243836, Note_off_c, 2, 52, 64
4, 243840, Note_on_c, 2, 52, 69
4, 244028, Note_off_c, 2, 52, 64
4, 244032, Note_on_c, 2, 52, 71
4, 244220, Note_off_c, 2, 52, 64
4, 244224, Note_on_c, 2, 54, 73
4, 244412, Note_off_c, 2, 54, 64
4, 244416, Note_on_c, 2, 54, 64
4, 244604, Note_off_c, 2, 54, 64
4, 244608, Note_on_c, 2, 54, 64
4, 244796, Note_off_c, 2, 54, 64
4, 244800, Note_on_c, 2, 54, 64
4, 244988, Note_off_c, 2, 54, 64
4, 244992, Note_on_c, 2, 53, 64
4, 245180, Note_off_c, 2, 53, 64
4, 245184, Note_on_c, 2, 53, 64
4, 245372, Note_off_c, 2, 53, 64
4, 245376, Note_on_c, 2, 50, 64
4, 245564, Note_off_c, 2, 50, 64
4, 245568, Note_on_c, 2, 50, 64
4, 245756, Note_off_c, 2, 50, 64
4, 245760, Note_on_c, 2, 52, 73
4, 245856, Note_off_c, 2, 52, 64
4, 246144, Note_on_c, 2, 59, 73
4, 246144, Note_on_c, 2, 52, 73
4, 246240, Note_off_c, 2, 59, 64
4, 246240, Note_off_c, 2, 52, 64
4, 246528, Note_on_c, 2, 57, 73
4, 246528, Note_on_c, 2, 54, 73
4, 246624, Note_off_c, 2, 57, 64
4, 246624, Note_off_c, 2, 54, 64
4, 246912, Note_on_c, 2, 59, 73
4, 246912, Note_on_c, 2, 54, 73
4, 247008, Note_off_c, 2, 59, 64
4, 247008, Note_off_c, 2, 54, 64
4, 247296, Note_on_c, 2, 52, 73
4, 247484, Note_off_c, 2, 52, 64
4, 247488, Note_on_c, 2, 52, 73
4, 247676, Note_off_c, 2, 52, 64
4, 247680, Note_on_c, 2, 52, 73
4, 247868, Note_off_c, 2, 52, 64
4, 247872, Note_on_c, 2, 52, 73
4, 248060, Note_off_c, 2, 52, 64
4, 248064, Note_on_c, 2, 52, 73
4, 248252, Note_off_c, 2, 52, 64
4, 248256, Note_on_c, 2, 52, 73
4, 248444, Note_off_c, 2, 52, 64
4, 248448, Note_on_c, 2, 52, 73
4, 248636, Note_off_c, 2, 52, 64
4, 248640, Note_on_c, 2, 52, 73
4, 248828, Note_off_c, 2, 52, 64
4, 248832, Note_on_c, 2, 57, 73
4, 249212, Note_off_c, 2, 57, 64
4, 249216, Note_on_c, 2, 64, 82
4, 249312, Note_off_c, 2, 64, 64
4, 249408, Note_on_c, 2, 61, 82
4, 249504, Note_off_c, 2, 61, 64
4, 249600, Note_on_c, 2, 57, 82
4, 249696, Note_off_c, 2, 57, 64
4, 249792, Note_on_c, 2, 61, 82
4, 249888, Note_off_c, 2, 61, 64
4, 249984, Note_on_c, 2, 52, 82
4, 250080, Note_off_c, 2, 52, 64
4, 250176, Note_on_c, 2, 57, 82
4, 250272, Note_off_c, 2, 57, 64
4, 250368, Note_on_c, 2, 49, 82
4, 250748, Note_off_c, 2, 49, 64
4, 250752, Note_on_c, 2, 61, 82
4, 250848, Note_off_c, 2, 61, 64
4, 250944, Note_on_c, 2, 57, 82
4, 251040, Note_off_c, 2, 57, 64
4, 251136, Note_on_c, 2, 52, 82
4, 251232, Note_off_c, 2, 52, 64
4, 251328, Note_on_c, 2, 57, 82
4, 251424, Note_off_c, 2, 57, 64
4, 251520, Note_on_c, 2, 49, 82
4, 251616, Note_off_c, 2, 49, 64
4, 251712, Note_on_c, 2, 52, 82
4, 251808, Note_off_c, 2, 52, 64
4, 251904, Note_on_c, 2, 45, 82
4, 252476, Note_off_c, 2, 45, 64
4, 252480, Note_on_c, 2, 49, 82
4, 252572, Note_off_c, 2, 49, 64
4, 252576, Note_on_c, 2, 52, 82
4, 252668, Note_off_c, 2, 52, 64
4, 252672, Note_on_c, 2, 57, 82
4, 253052, Note_off_c, 2, 57, 64
4, 254976, Note_on_c, 2, 52, 82
4, 255548, Note_off_c, 2, 52, 64
4, 255552, Note_on_c, 2, 56, 82
4, 255644, Note_off_c, 2, 56, 64
4, 255648, Note_on_c, 2, 59, 82
4, 255740, Note_off_c, 2, 59, 64
4, 255744, Note_on_c, 2, 64, 82
4, 256124, Note_off_c, 2, 64, 64
4, 258048, Note_on_c, 2, 45, 82
4, 258620, Note_off_c, 2, 45, 64
4, 258624, Note_on_c, 2, 49, 82
4, 258716, Note_off_c, 2, 49, 64
4, 258720, Note_on_c, 2, 52, 82
4, 258812, Note_off_c, 2, 52, 64
4, 258816, Note_on_c, 2, 57, 82
4, 259196, Note_off_c, 2, 57, 64
4, 259968, Note_on_c, 2, 64, 64
4, 260348, Note_off_c, 2, 64, 64
4, 260352, Note_on_c, 2, 62, 64
4, 260732, Note_off_c, 2, 62, 64
4, 260736, Note_on_c, 2, 61, 64
4, 261116, Note_off_c, 2, 61, 64
4, 261120, Note_on_c, 2, 62, 64
4, 261120, Note_on_c, 2, 50, 64
4, 261308, Note_off_c, 2, 62, 64
4, 261308, Note_off_c, 2, 50, 64
4, 261312, Note_on_c, 2, 50, 64
4, 261500, Note_off_c, 2, 50, 64
4, 261504, Note_on_c, 2, 50, 64
4, 261692, Note_off_c, 2, 50, 64
4, 261696, Note_on_c, 2, 50, 64
4, 261884, Note_off_c, 2, 50, 64
4, 261888, Note_on_c, 2, 50, 64
4, 261888, Note_on_c, 2, 57, 64
4, 262076, Note_off_c, 2, 50, 64
4, 262080, Note_on_c, 2, 50, 64
4, 262268, Note_off_c, 2, 50, 64
4, 262272, Note_on_c, 2, 50, 64
4, 262460, Note_off_c, 2, 57, 64
4, 262460, Note_off_c, 2, 50, 64
4, 262464, Note_on_c, 2, 50, 64
4, 262652, Note_off_c, 2, 50, 64
4, 262656, Note_on_c, 2, 54, 64
4, 262844, Note_off_c, 2, 54, 64
4, 262848, Note_on_c, 2, 54, 64
4, 263036, Note_off_c, 2, 54, 64
4, 263040, Note_on_c, 2, 54, 64
4, 263228, Note_off_c, 2, 54, 64
4, 263232, Note_on_c, 2, 54, 64
4, 263420, Note_off_c, 2, 54, 64
4, 263424, Note_on_c, 2, 54, 64
4, 263612, Note_off_c, 2, 54, 64
4, 263616, Note_on_c, 2, 54, 64
4, 263804, Note_off_c, 2, 54, 64
4, 263808, Note_on_c, 2, 52, 64
4, 263996, Note_off_c, 2, 52, 64
4, 264000, Note_on_c, 2, 52, 64
4, 264188, Note_off_c, 2, 52, 64
4, 264192, Note_on_c, 2, 50, 64
4, 264572, Note_off_c, 2, 50, 64
4, 264960, Note_on_c, 2, 50, 64
4, 265340, Note_off_c, 2, 50, 64
4, 265728, Note_on_c, 2, 50, 64
4, 265916, Note_off_c, 2, 50, 64
4, 265920, Note_on_c, 2, 50, 64
4, 266108, Note_off_c, 2, 50, 64
4, 266112, Note_on_c, 2, 50, 64
4, 266300, Note_off_c, 2, 50, 64
4, 266304, Note_on_c, 2, 50, 64
4, 266492, Note_off_c, 2, 50, 64
4, 266496, Note_on_c, 2, 50, 64
4, 266684, Note_off_c, 2, 50, 64
4, 266688, Note_on_c, 2, 50, 64
4, 266876, Note_off_c, 2, 50, 64
4, 266880, Note_on_c, 2, 51, 64
4, 267068, Note_off_c, 2, 51, 64
4, 267072, Note_on_c, 2, 51, 64
4, 267260, Note_off_c, 2, 51, 64
4, 267264, Note_on_c, 2, 52, 64
4, 267644, Note_off_c, 2, 52, 64
4, 267648, Note_on_c, 2, 64, 82
4, 267740, Note_off_c, 2, 64, 64
4, 267744, Note_on_c, 2, 63, 82
4, 267836, Note_off_c, 2, 63, 64
4, 267840, Note_on_c, 2, 64, 82
4, 267932, Note_off_c, 2, 64, 64
4, 267936, Note_on_c, 2, 63, 82
4, 268028, Note_off_c, 2, 63, 64
4, 268032, Note_on_c, 2, 64, 82
4, 268128, Note_off_c, 2, 64, 64
4, 268224, Note_on_c, 2, 59, 82
4, 268320, Note_off_c, 2, 59, 64
4, 268416, Note_on_c, 2, 62, 82
4, 268508, Note_off_c, 2, 62, 64
4, 268512, Note_on_c, 2, 61, 82
4, 268604, Note_off_c, 2, 61, 64
4, 268608, Note_on_c, 2, 59, 82
4, 268700, Note_off_c, 2, 59, 64
4, 268704, Note_on_c, 2, 57, 82
4, 268796, Note_off_c, 2, 57, 64
4, 268800, Note_on_c, 2, 56, 82
4, 268896, Note_off_c, 2, 56, 64
4, 268992, Note_on_c, 2, 52, 82
4, 269088, Note_off_c, 2, 52, 64
4, 269184, Note_on_c, 2, 64, 82
4, 269276, Note_off_c, 2, 64, 64
4, 269280, Note_on_c, 2, 63, 82
4, 269372, Note_off_c, 2, 63, 64
4, 269376, Note_on_c, 2, 64, 82
4, 269468, Note_off_c, 2, 64, 64
4, 269472, Note_on_c, 2, 63, 82
4, 269564, Note_off_c, 2, 63, 64
4, 269568, Note_on_c, 2, 64, 82
4, 269664, Note_off_c, 2, 64, 64
4, 269760, Note_on_c, 2, 59, 82
4, 269856, Note_off_c, 2, 59, 64
4, 269952, Note_on_c, 2, 62, 82
4, 270044, Note_off_c, 2, 62, 64
4, 270048, Note_on_c, 2, 61, 82
4, 270140, Note_off_c, 2, 61, 64
4, 270144, Note_on_c, 2, 59, 82
4, 270236, Note_off_c, 2, 59, 64
4, 270240, Note_on_c, 2, 57, 82
4, 270332, Note_off_c, 2, 57, 64
4, 270336, Note_on_c, 2, 52, 82
4, 270716, Note_off_c, 2, 52, 64
4, 271296, Note_on_c, 2, 62, 64
4, 271392, Note_off_c, 2, 62, 64
4, 271488, Note_on_c, 2, 61, 64
4, 271584, Note_off_c, 2, 61, 64
4, 271680, Note_on_c, 2, 59, 64
4, 271776, Note_off_c, 2, 59, 64
4, 271872, Note_on_c, 2, 57, 64
4, 272252, Note_off_c, 2, 57, 64
4, 274368, Note_on_c, 2, 61, 64
4, 274464, Note_off_c, 2, 61, 64
4, 274560, Note_on_c, 2, 59, 64
4, 274656, Note_off_c, 2, 59, 64
4, 274752, Note_on_c, 2, 57, 64
4, 274848, Note_off_c, 2, 57, 64
4, 274944, Note_on_c, 2, 56, 64
4, 275324, Note_off_c, 2, 56, 64
4, 275904, Note_on_c, 2, 64, 64
4, 276000, Note_off_c, 2, 64, 64
4, 276096, Note_on_c, 2, 64, 64
4, 276192, Note_off_c, 2, 64, 64
4, 276288, Note_on_c, 2, 64, 64
4, 276384, Note_off_c, 2, 64, 64
4, 276480, Note_on_c, 2, 57, 64
4, 276860, Note_off_c, 2, 57, 64
4, 277248, Note_on_c, 2, 61, 64
4, 277248, Note_on_c, 2, 64, 64
4, 277628, Note_off_c, 2, 61, 64
4, 277628, Note_off_c, 2, 64, 64
4, 278016, Note_on_c, 2, 62, 64
4, 278396, Note_off_c, 2, 62, 64
4, 278784, Note_on_c, 2, 59, 64
4, 278784, Note_on_c, 2, 66, 64
4, 279164, Note_off_c, 2, 59, 64
4, 279164, Note_off_c, 2, 66, 64
4, 279552, Note_on_c, 2, 52, 64
4, 280700, Note_off_c, 2, 52, 64
4, 281088, Note_on_c, 2, 57, 64
4, 281468, Note_off_c, 2, 57, 64
4, 281472, Note_on_c, 2, 52, 64
4, 281852, Note_off_c, 2, 52, 64
4, 281856, Note_on_c, 2, 57, 64
4, 282236, Note_off_c, 2, 57, 64
4, 282240, Note_on_c, 2, 52, 64
4, 282620, Note_off_c, 2, 52, 64
4, 282624, Note_on_c, 2, 56, 64
4, 283004, Note_off_c, 2, 56, 64
4, 283008, Note_on_c, 2, 52, 64
4, 283388, Note_off_c, 2, 52, 64
4, 283392, Note_on_c, 2, 56, 64
4, 283772, Note_off_c, 2, 56, 64
4, 283776, Note_on_c, 2, 52, 64
4, 284156, Note_off_c, 2, 52, 64
4, 284160, Note_on_c, 2, 57, 64
4, 284540, Note_off_c, 2, 57, 64
4, 284544, Note_on_c, 2, 52, 64
4, 284924, Note_off_c, 2, 52, 64
4, 284928, Note_on_c, 2, 57, 64
4, 285308, Note_off_c, 2, 57, 64
4, 285312, Note_on_c, 2, 52, 64
4, 285692, Note_off_c, 2, 52, 64
4, 285696, Note_on_c, 2, 56, 64
4, 286076, Note_off_c, 2, 56, 64
4, 286080, Note_on_c, 2, 52, 64
4, 286460, Note_off_c, 2, 52, 64
4, 286464, Note_on_c, 2, 56, 64
4, 286844, Note_off_c, 2, 56, 64
4, 286848, Note_on_c, 2, 52, 64
4, 287228, Note_off_c, 2, 52, 64
4, 287232, Note_on_c, 2, 57, 64
4, 287324, Note_off_c, 2, 57, 64
4, 287328, Note_on_c, 2, 64, 64
4, 287420, Note_off_c, 2, 64, 64
4, 287424, Note_on_c, 2, 61, 64
4, 287516, Note_off_c, 2, 61, 64
4, 287520, Note_on_c, 2, 64, 64
4, 287612, Note_off_c, 2, 64, 64
4, 287616, Note_on_c, 2, 52, 64
4, 287708, Note_off_c, 2, 52, 64
4, 287712, Note_on_c, 2, 64, 64
4, 287804, Note_off_c, 2, 64, 64
4, 287808, Note_on_c, 2, 61, 64
4, 287900, Note_off_c, 2, 61, 64
4, 287904, Note_on_c, 2, 64, 64
4, 287996, Note_off_c, 2, 64, 64
4, 288000, Note_on_c, 2, 57, 64
4, 288092, Note_off_c, 2, 57, 64
4, 288096, Note_on_c, 2, 64, 64
4, 288188, Note_off_c, 2, 64, 64
4, 288192, Note_on_c, 2, 61, 64
4, 288284, Note_off_c, 2, 61, 64
4, 288288, Note_on_c, 2, 64, 64
4, 288380, Note_off_c, 2, 64, 64
4, 288384, Note_on_c, 2, 52, 64
4, 288476, Note_off_c, 2, 52, 64
4, 288480, Note_on_c, 2, 64, 64
4, 288572, Note_off_c, 2, 64, 64
4, 288576, Note_on_c, 2, 61, 64
4, 288668, Note_off_c, 2, 61, 64
4, 288672, Note_on_c, 2, 64, 64
4, 288764, Note_off_c, 2, 64, 64
4, 288768, Note_on_c, 2, 56, 64
4, 288860, Note_off_c, 2, 56, 64
4, 288864, Note_on_c, 2, 64, 64
4, 288956, Note_off_c, 2, 64, 64
4, 288960, Note_on_c, 2, 59, 64
4, 289052, Note_off_c, 2, 59, 64
4, 289056, Note_on_c, 2, 64, 64
4, 289148, Note_off_c, 2, 64, 64
4, 289152, Note_on_c, 2, 52, 64
4, 289244, Note_off_c, 2, 52, 64
4, 289248, Note_on_c, 2, 64, 64
4, 289340, Note_off_c, 2, 64, 64
4, 289344, Note_on_c, 2, 59, 64
4, 289436, Note_off_c, 2, 59, 64
4, 289440, Note_on_c, 2, 64, 64
4, 289532, Note_off_c, 2, 64, 64
4, 289536, Note_on_c, 2, 56, 64
4, 289628, Note_off_c, 2, 56, 64
4, 289632, Note_on_c, 2, 64, 64
4, 289724, Note_off_c, 2, 64, 64
4, 289728, Note_on_c, 2, 59, 64
4, 289820, Note_off_c, 2, 59, 64
4, 289824, Note_on_c, 2, 64, 64
4, 289916, Note_off_c, 2, 64, 64
4, 289920, Note_on_c, 2, 52, 64
4, 290012, Note_off_c, 2, 52, 64
4, 290016, Note_on_c, 2, 64, 64
4, 290108, Note_off_c, 2, 64, 64
4, 290112, Note_on_c, 2, 59, 64
4, 290204, Note_off_c, 2, 59, 64
4, 290208, Note_on_c, 2, 64, 64
4, 290300, Note_off_c, 2, 64, 64
4, 290304, Note_on_c, 2, 57, 64
4, 290396, Note_off_c, 2, 57, 64
4, 290400, Note_on_c, 2, 64, 64
4, 290492, Note_off_c, 2, 64, 64
4, 290496, Note_on_c, 2, 61, 64
4, 290588, Note_off_c, 2, 61, 64
4, 290592, Note_on_c, 2, 64, 64
4, 290684, Note_off_c, 2, 64, 64
4, 290688, Note_on_c, 2, 52, 64
4, 290780, Note_off_c, 2, 52, 64
4, 290784, Note_on_c, 2, 64, 64
4, 290876, Note_off_c, 2, 64, 64
4, 290880, Note_on_c, 2, 61, 64
4, 290972, Note_off_c, 2, 61, 64
4, 290976, Note_on_c, 2, 64, 64
4, 291068, Note_off_c, 2, 64, 64
4, 291072, Note_on_c, 2, 57, 64
4, 291164, Note_off_c, 2, 57, 64
4, 291168, Note_on_c, 2, 64, 64
4, 291260, Note_off_c, 2, 64, 64
4, 291264, Note_on_c, 2, 61, 64
4, 291356, Note_off_c, 2, 61, 64
4, 291360, Note_on_c, 2, 64, 64
4, 291452, Note_off_c, 2, 64, 64
4, 291456, Note_on_c, 2, 52, 64
4, 291548, Note_off_c, 2, 52, 64
4, 291552, Note_on_c, 2, 64, 64
4, 291644, Note_off_c, 2, 64, 64
4, 291648, Note_on_c, 2, 61, 64
4, 291740, Note_off_c, 2, 61, 64
4, 291744, Note_on_c, 2, 64, 64
4, 291836, Note_off_c, 2, 64, 64
4, 291840, Note_on_c, 2, 56, 64
4, 291932, Note_off_c, 2, 56, 64
4, 291936, Note_on_c, 2, 64, 64
4, 292028, Note_off_c, 2, 64, 64
4, 292032, Note_on_c, 2, 59, 64
4, 292124, Note_off_c, 2, 59, 64
4, 292128, Note_on_c, 2, 64, 64
4, 292220, Note_off_c, 2, 64, 64
4, 292224, Note_on_c, 2, 52, 64
4, 292316, Note_off_c, 2, 52, 64
4, 292320, Note_on_c, 2, 64, 64
4, 292412, Note_off_c, 2, 64, 64
4, 292416, Note_on_c, 2, 59, 64
4, 292508, Note_off_c, 2, 59, 64
4, 292512, Note_on_c, 2, 64, 64
4, 292604, Note_off_c, 2, 64, 64
4, 292608, Note_on_c, 2, 56, 64
4, 292700, Note_off_c, 2, 56, 64
4, 292704, Note_on_c, 2, 64, 64
4, 292796, Note_off_c, 2, 64, 64
4, 292800, Note_on_c, 2, 59, 64
4, 292892, Note_off_c, 2, 59, 64
4, 292896, Note_on_c, 2, 64, 64
4, 292988, Note_off_c, 2, 64, 64
4, 292992, Note_on_c, 2, 52, 64
4, 293084, Note_off_c, 2, 52, 64
4, 293088, Note_on_c, 2, 64, 64
4, 293180, Note_off_c, 2, 64, 64
4, 293184, Note_on_c, 2, 59, 64
4, 293276, Note_off_c, 2, 59, 64
4, 293280, Note_on_c, 2, 64, 64
4, 293372, Note_off_c, 2, 64, 64
4, 293376, Note_on_c, 2, 57, 82
4, 293376, Note_on_c, 2, 54, 82
4, 293564, Note_off_c, 2, 57, 64
4, 293564, Note_off_c, 2, 54, 64
4, 293568, Note_on_c, 2, 57, 82
4, 293568, Note_on_c, 2, 54, 82
4, 293756, Note_off_c, 2, 57, 64
4, 293756, Note_off_c, 2, 54, 64
4, 293760, Note_on_c, 2, 57, 82
4, 293760, Note_on_c, 2, 54, 82
4, 293948, Note_off_c, 2, 57, 64
4, 293948, Note_off_c, 2, 54, 64
4, 293952, Note_on_c, 2, 57, 82
4, 293952, Note_on_c, 2, 54, 82
4, 294140, Note_off_c, 2, 57, 64
4, 294140, Note_off_c, 2, 54, 64
4, 294144, Note_on_c, 2, 57, 64
4, 294144, Note_on_c, 2, 54, 64
4, 294332, Note_off_c, 2, 57, 64
4, 294332, Note_off_c, 2, 54, 64
4, 294528, Note_on_c, 2, 57, 64
4, 294528, Note_on_c, 2, 54, 64
4, 294716, Note_off_c, 2, 57, 64
4, 294716, Note_off_c, 2, 54, 64
4, 294912, Note_on_c, 2, 57, 82
4, 294912, Note_on_c, 2, 52, 82
4, 295100, Note_off_c, 2, 57, 64
4, 295100, Note_off_c, 2, 52, 64
4, 295104, Note_on_c, 2, 57, 82
4, 295104, Note_on_c, 2, 52, 82
4, 295292, Note_off_c, 2, 57, 64
4, 295292, Note_off_c, 2, 52, 64
4, 295296, Note_on_c, 2, 57, 82
4, 295296, Note_on_c, 2, 52, 82
4, 295484, Note_off_c, 2, 57, 64
4, 295484, Note_off_c, 2, 52, 64
4, 295488, Note_on_c, 2, 57, 82
4, 295488, Note_on_c, 2, 52, 82
4, 295676, Note_off_c, 2, 57, 64
4, 295676, Note_off_c, 2, 52, 64
4, 295680, Note_on_c, 2, 57, 64
4, 295680, Note_on_c, 2, 52, 64
4, 295868, Note_off_c, 2, 57, 64
4, 295868, Note_off_c, 2, 52, 64
4, 296064, Note_on_c, 2, 57, 64
4, 296064, Note_on_c, 2, 52, 64
4, 296252, Note_off_c, 2, 57, 64
4, 296252, Note_off_c, 2, 52, 64
4, 296448, Note_on_c, 2, 50, 64
4, 296828, Note_off_c, 2, 50, 64
4, 296832, Note_on_c, 2, 52, 64
4, 297212, Note_off_c, 2, 52, 64
4, 297216, Note_on_c, 2, 54, 64
4, 297596, Note_off_c, 2, 54, 64
4, 297600, Note_on_c, 2, 51, 64
4, 297980, Note_off_c, 2, 51, 64
4, 297984, Note_on_c, 2, 52, 64
4, 298172, Note_off_c, 2, 52, 64
4, 298752, Note_on_c, 2, 57, 73
4, 298752, Note_on_c, 2, 69, 73
4, 298940, Note_off_c, 2, 57, 64
4, 298940, Note_off_c, 2, 69, 64
4, 299520, Note_on_c, 2, 52, 64
4, 299520, Note_on_c, 2, 68, 64
4, 299708, Note_off_c, 2, 52, 64
4, 299708, Note_off_c, 2, 68, 64
4, 301056, Note_on_c, 2, 57, 64
4, 301152, Note_off_c, 2, 57, 64
4, 301440, Note_on_c, 2, 52, 64
4, 301536, Note_off_c, 2, 52, 64
4, 301824, Note_on_c, 2, 49, 64
4, 301920, Note_off_c, 2, 49, 64
4, 302208, Note_on_c, 2, 45, 64
4, 302304, Note_off_c, 2, 45, 64
4, 302592, Note_on_c, 2, 50, 64
4, 302972, Note_off_c, 2, 50, 64
4, 302976, Note_on_c, 2, 52, 64
4, 303356, Note_off_c, 2, 52, 64
4, 303360, Note_on_c, 2, 54, 64
4, 303740, Note_off_c, 2, 54, 64
4, 303744, Note_on_c, 2, 51, 64
4, 304124, Note_off_c, 2, 51, 64
4, 304128, Note_on_c, 2, 52, 64
4, 304316, Note_off_c, 2, 52, 64
4, 304896, Note_on_c, 2, 57, 64
4, 304992, Note_off_c, 2, 57, 64
4, 305664, Note_on_c, 2, 56, 64
4, 305664, Note_on_c, 2, 52, 64
4, 305760, Note_off_c, 2, 56, 64
4, 305760, Note_off_c, 2, 52, 64
4, 307200, Note_on_c, 2, 57, 73
4, 307580, Note_off_c, 2, 57, 64
4, 307776, Note_on_c, 2, 62, 73
4, 307872, Note_off_c, 2, 62, 64
4, 307968, Note_on_c, 2, 61, 73
4, 308160, Note_off_c, 2, 61, 64
4, 308544, Note_on_c, 2, 59, 73
4, 308544, Note_on_c, 2, 62, 73
4, 308732, Note_off_c, 2, 59, 64
4, 308732, Note_off_c, 2, 62, 64
4, 308736, Note_on_c, 2, 64, 73
4, 308736, Note_on_c, 2, 57, 73
4, 309116, Note_off_c, 2, 64, 64
4, 309116, Note_off_c, 2, 57, 64
4, 309312, Note_on_c, 2, 62, 73
4, 309408, Note_off_c, 2, 62, 64
4, 309504, Note_on_c, 2, 61, 73
4, 309696, Note_off_c, 2, 61, 64
4, 310080, Note_on_c, 2, 59, 73
4, 310080, Note_on_c, 2, 62, 73
4, 310268, Note_off_c, 2, 59, 64
4, 310268, Note_off_c, 2, 62, 64
4, 310272, Note_on_c, 2, 64, 73
4, 310272, Note_on_c, 2, 57, 73
4, 310652, Note_off_c, 2, 64, 64
4, 310652, Note_off_c, 2, 57, 64
4, 311040, Note_on_c, 2, 64, 73
4, 311040, Note_on_c, 2, 57, 73
4, 311420, Note_off_c, 2, 64, 64
4, 311420, Note_off_c, 2, 57, 64
4, 315648, Note_on_c, 2, 64, 73
4, 315744, Note_off_c, 2, 64, 64
4, 315840, Note_on_c, 2, 64, 73
4, 315936, Note_off_c, 2, 64, 64
4, 316032, Note_on_c, 2, 64, 73
4, 316032, Note_on_c, 2, 52, 73
4, 316128, Note_off_c, 2, 64, 64
4, 316128, Note_off_c, 2, 52, 64
4, 316224, Note_on_c, 2, 64, 73
4, 316224, Note_on_c, 2, 52, 73
4, 316320, Note_off_c, 2, 64, 64
4, 316320, Note_off_c, 2, 52, 64
4, 316416, Note_on_c, 2, 64, 73
4, 316416, Note_on_c, 2, 57, 73
4, 316796, Note_off_c, 2, 64, 64
4, 316796, Note_off_c, 2, 57, 64
4, 317184, Note_on_c, 2, 64, 73
4, 317184, Note_on_c, 2, 57, 73
4, 317564, Note_off_c, 2, 64, 64
4, 317564, Note_off_c, 2, 57, 64
4, 317952, Note_on_c, 2, 57, 73
4, 318140, Note_off_c, 2, 57, 64
4, 318144, Note_on_c, 2, 57, 73
4, 318332, Note_off_c, 2, 57, 64
4, 318336, Note_on_c, 2, 57, 73
4, 318524, Note_off_c, 2, 57, 64
4, 318528, Note_on_c, 2, 57, 73
4, 318716, Note_off_c, 2, 57, 64
4, 318720, Note_on_c, 2, 57, 73
4, 318908, Note_off_c, 2, 57, 64
4, 318912, Note_on_c, 2, 57, 73
4, 319100, Note_off_c, 2, 57, 64
4, 319104, Note_on_c, 2, 57, 73
4, 319292, Note_off_c, 2, 57, 64
4, 319296, Note_on_c, 2, 57, 73
4, 319484, Note_off_c, 2, 57, 64
4, 319488, Note_on_c, 2, 57, 73
4, 319676, Note_off_c, 2, 57, 64
4, 319680, Note_on_c, 2, 57, 73
4, 319868, Note_off_c, 2, 57, 64
4, 319872, Note_on_c, 2, 57, 73
4, 320060, Note_off_c, 2, 57, 64
4, 320064, Note_on_c, 2, 57, 73
4, 320252, Note_off_c, 2, 57, 64
4, 320256, Note_on_c, 2, 57, 73
4, 320444, Note_off_c, 2, 57, 64
4, 320448, Note_on_c, 2, 57, 73
4, 320636, Note_off_c, 2, 57, 64
4, 320640, Note_on_c, 2, 57, 73
4, 320828, Note_off_c, 2, 57, 64
4, 320832, Note_on_c, 2, 57, 73
4, 321020, Note_off_c, 2, 57, 64
4, 321024, Note_on_c, 2, 57, 73
4, 321024, Note_on_c, 2, 45, 73
4, 321212, Note_off_c, 2, 57, 64
4, 321212, Note_off_c, 2, 45, 64
4, 321216, Note_on_c, 2, 57, 73
4, 321216, Note_on_c, 2, 45, 73
4, 321404, Note_off_c, 2, 57, 64
4, 321404, Note_off_c, 2, 45, 64
4, 321408, Note_on_c, 2, 54, 73
4, 321596, Note_off_c, 2, 54, 64
4, 321600, Note_on_c, 2, 50, 73
4, 321788, Note_off_c, 2, 50, 64
4, 321792, Note_on_c, 2, 52, 73
4, 321980, Note_off_c, 2, 52, 64
4, 321984, Note_on_c, 2, 52, 73
4, 322172, Note_off_c, 2, 52, 64
4, 322176, Note_on_c, 2, 52, 73
4, 322364, Note_off_c, 2, 52, 64
4, 322368, Note_on_c, 2, 52, 73
4, 322556, Note_off_c, 2, 52, 64
4, 322560, Note_on_c, 2, 57, 73
4, 322656, Note_off_c, 2, 57, 64
4, 322944, Note_on_c, 2, 59, 73
4, 322944, Note_on_c, 2, 62, 73
4, 323040, Note_off_c, 2, 59, 64
4, 323040, Note_off_c, 2, 62, 64
4, 323328, Note_on_c, 2, 61, 73
4, 323424, Note_off_c, 2, 61, 64
4, 324288, Note_on_c, 2, 50, 73
4, 324476, Note_off_c, 2, 50, 64
4, 324480, Note_on_c, 2, 50, 73
4, 324668, Note_off_c, 2, 50, 64
4, 324672, Note_on_c, 2, 50, 73
4, 324860, Note_off_c, 2, 50, 64
4, 324864, Note_on_c, 2, 52, 73
4, 325052, Note_off_c, 2, 52, 64
4, 325056, Note_on_c, 2, 52, 73
4, 325244, Note_off_c, 2, 52, 64
4, 325248, Note_on_c, 2, 54, 73
4, 325436, Note_off_c, 2, 54, 64
4, 325440, Note_on_c, 2, 54, 73
4, 325628, Note_off_c, 2, 54, 64
4, 325632, Note_on_c, 2, 52, 73
4, 325820, Note_off_c, 2, 52, 64
4, 325824, Note_on_c, 2, 52, 73
4, 326012, Note_off_c, 2, 52, 64
4, 326016, Note_on_c, 2, 52, 73
4, 326204, Note_off_c, 2, 52, 64
4, 326208, Note_on_c, 2, 52, 73
4, 326396, Note_off_c, 2, 52, 64
4, 326400, Note_on_c, 2, 52, 73
4, 326588, Note_off_c, 2, 52, 64
4, 326592, Note_on_c, 2, 52, 73
4, 326780, Note_off_c, 2, 52, 64
4, 326784, Note_on_c, 2, 52, 73
4, 326972, Note_off_c, 2, 52, 64
4, 326976, Note_on_c, 2, 52, 73
4, 327164, Note_off_c, 2, 52, 64
4, 327168, Note_on_c, 2, 52, 73
4, 327548, Note_off_c, 2, 52, 64
4, 328704, Note_on_c, 2, 52, 82
4, 328892, Note_off_c, 2, 52, 64
4, 328896, Note_on_c, 2, 52, 64
4, 329084, Note_off_c, 2, 52, 64
4, 329088, Note_on_c, 2, 52, 64
4, 329276, Note_off_c, 2, 52, 64
4, 329280, Note_on_c, 2, 52, 64
4, 329468, Note_off_c, 2, 52, 64
4, 329472, Note_on_c, 2, 52, 64
4, 329660, Note_off_c, 2, 52, 64
4, 329664, Note_on_c, 2, 52, 64
4, 329852, Note_off_c, 2, 52, 64
4, 329856, Note_on_c, 2, 52, 64
4, 330044, Note_off_c, 2, 52, 64
4, 330048, Note_on_c, 2, 52, 64
4, 330236, Note_off_c, 2, 52, 64
4, 330240, Note_on_c, 2, 52, 65
4, 330240, Note_on_c, 2, 40, 65
4, 330428, Note_off_c, 2, 52, 64
4, 330428, Note_off_c, 2, 40, 64
4, 330432, Note_on_c, 2, 52, 67
4, 330432, Note_on_c, 2, 40, 67
4, 330620, Note_off_c, 2, 52, 64
4, 330620, Note_off_c, 2, 40, 64
4, 330624, Note_on_c, 2, 52, 69
4, 330624, Note_on_c, 2, 40, 69
4, 330812, Note_off_c, 2, 52, 64
4, 330812, Note_off_c, 2, 40, 64
4, 330816, Note_on_c, 2, 52, 71
4, 330816, Note_on_c, 2, 40, 71
4, 331004, Note_off_c, 2, 52, 64
4, 331004, Note_off_c, 2, 40, 64
4, 331008, Note_on_c, 2, 64, 74
4, 331008, Note_on_c, 2, 52, 74
4, 331196, Note_off_c, 2, 64, 64
4, 331196, Note_off_c, 2, 52, 64
4, 331200, Note_on_c, 2, 64, 77
4, 331200, Note_on_c, 2, 52, 77
4, 331388, Note_off_c, 2, 64, 64
4, 331388, Note_off_c, 2, 52, 64
4, 331392, Note_on_c, 2, 64, 79
4, 331392, Note_on_c, 2, 52, 79
4, 331580, Note_off_c, 2, 64, 64
4, 331580, Note_off_c, 2, 52, 64
4, 331584, Note_on_c, 2, 64, 81
4, 331584, Note_on_c, 2, 52, 81
4, 331772, Note_off_c, 2, 64, 64
4, 331772, Note_off_c, 2, 52, 64
4, 331776, Note_on_c, 2, 57, 82
4, 331964, Note_off_c, 2, 57, 64
4, 331968, Note_on_c, 2, 45, 82
4, 332156, Note_off_c, 2, 45, 64
4, 332160, Note_on_c, 2, 57, 82
4, 332200, Note_off_c, 2, 57, 64
4, 332256, Note_on_c, 2, 56, 82
4, 332296, Note_off_c, 2, 56, 64
4, 332352, Note_on_c, 2, 57, 82
4, 332392, Note_off_c, 2, 57, 64
4, 332448, Note_on_c, 2, 59, 82
4, 332488, Note_off_c, 2, 59, 64
4, 332544, Note_on_c, 2, 61, 82
4, 332636, Note_off_c, 2, 61, 64
4, 332736, Note_on_c, 2, 58, 82
4, 332828, Note_off_c, 2, 58, 64
4, 332928, Note_on_c, 2, 59, 82
4, 332968, Note_off_c, 2, 59, 64
4, 333024, Note_on_c, 2, 58, 82
4, 333064, Note_off_c, 2, 58, 64
4, 333120, Note_on_c, 2, 59, 82
4, 333160, Note_off_c, 2, 59, 64
4, 333216, Note_on_c, 2, 61, 82
4, 333256, Note_off_c, 2, 61, 64
4, 333312, Note_on_c, 2, 62, 82
4, 333404, Note_off_c, 2, 62, 64
4, 333504, Note_on_c, 2, 60, 82
4, 333596, Note_off_c, 2, 60, 64
4, 333696, Note_on_c, 2, 61, 82
4, 333784, Note_off_c, 2, 61, 64
4, 333792, Note_on_c, 2, 60, 82
4, 333880, Note_off_c, 2, 60, 64
4, 333888, Note_on_c, 2, 61, 82
4, 333976, Note_off_c, 2, 61, 64
4, 333984, Note_on_c, 2, 62, 82
4, 334072, Note_off_c, 2, 62, 64
4, 334080, Note_on_c, 2, 64, 82
4, 334172, Note_off_c, 2, 64, 64
4, 334272, Note_on_c, 2, 61, 82
4, 334364, Note_off_c, 2, 61, 64
4, 334464, Note_on_c, 2, 62, 82
4, 334552, Note_off_c, 2, 62, 64
4, 334560, Note_on_c, 2, 61, 82
4, 334648, Note_off_c, 2, 61, 64
4, 334656, Note_on_c, 2, 62, 82
4, 334744, Note_off_c, 2, 62, 64
4, 334752, Note_on_c, 2, 64, 82
4, 334840, Note_off_c, 2, 64, 64
4, 334848, Note_on_c, 2, 66, 82
4, 335228, Note_off_c, 2, 66, 64
4, 335232, Note_on_c, 2, 54, 82
4, 335232, Note_on_c, 2, 42, 82
4, 335612, Note_off_c, 2, 54, 64
4, 335612, Note_off_c, 2, 42, 64
4, 335616, Note_on_c, 2, 52, 82
4, 335616, Note_on_c, 2, 40, 82
4, 335996, Note_off_c, 2, 52, 64
4, 335996, Note_off_c, 2, 40, 64
4, 336000, Note_on_c, 2, 51, 82
4, 336000, Note_on_c, 2, 39, 82
4, 336380, Note_off_c, 2, 51, 64
4, 336380, Note_off_c, 2, 39, 64
4, 336384, Note_on_c, 2, 52, 82
4, 336384, Note_on_c, 2, 40, 82
4, 337148, Note_off_c, 2, 52, 64
4, 337148, Note_off_c, 2, 40, 64
4, 435444, Program_c, 2, 48
4, 435456, Note_on_c, 2, 57, 75
4, 435456, Note_on_c, 2, 52, 75
4, 435456, Note_on_c, 2, 49, 75
4, 435456, Note_on_c, 2, 45, 75
4, 435640, Note_off_c, 2, 57, 64
4, 435640, Note_off_c, 2, 52, 64
4, 435640, Note_off_c, 2, 49, 64
4, 435640, Note_off_c, 2, 45, 64
4, 435648, Note_on_c, 2, 57, 73
4, 435648, Note_on_c, 2, 52, 73
4, 435648, Note_on_c, 2, 49, 73
4, 435648, Note_on_c, 2, 45, 73
4, 435832, Note_off_c, 2, 57, 64
4, 435832, Note_off_c, 2, 52, 64
4, 435832, Note_off_c, 2, 49, 64
4, 435832, Note_off_c, 2, 45, 64
4, 435840, Note_on_c, 2, 57, 73
4, 435840, Note_on_c, 2, 54, 73
4, 435840, Note_on_c, 2, 50, 73
4, 435840, Note_on_c, 2, 45, 73
4, 436024, Note_off_c, 2, 57, 64
4, 436024, Note_off_c, 2, 54, 64
4, 436024, Note_off_c, 2, 50, 64
4, 436024, Note_off_c, 2, 45, 64
4, 436032, Note_on_c, 2, 57, 73
4, 436032, Note_on_c, 2, 54, 73
4, 436032, Note_on_c, 2, 50, 73
4, 436032, Note_on_c, 2, 45, 73
4, 436216, Note_off_c, 2, 57, 64
4, 436216, Note_off_c, 2, 54, 64
4, 436216, Note_off_c, 2, 50, 64
4, 436216, Note_off_c, 2, 45, 64
4, 436224, Note_on_c, 2, 57, 73
4, 436224, Note_on_c, 2, 52, 73
4, 436224, Note_on_c, 2, 49, 73
4, 436224, Note_on_c, 2, 45, 73
4, 436408, Note_off_c, 2, 57, 64
4, 436408, Note_off_c, 2, 52, 64
4, 436408, Note_off_c, 2, 49, 64
4, 436408, Note_off_c, 2, 45, 64
4, 436416, Note_on_c, 2, 57, 73
4, 436416, Note_on_c, 2, 52, 73
4, 436416, Note_on_c, 2, 49, 73
4, 436416, Note_on_c, 2, 45, 73
4, 436600, Note_off_c, 2, 57, 64
4, 436600, Note_off_c, 2, 52, 64
4, 436600, Note_off_c, 2, 49, 64
4, 436600, Note_off_c, 2, 45, 64
4, 436608, Note_on_c, 2, 57, 73
4, 436608, Note_on_c, 2, 54, 73
4, 436608, Note_on_c, 2, 50, 73
4, 436608, Note_on_c, 2, 45, 73
4, 436792, Note_off_c, 2, 57, 64
4, 436792, Note_off_c, 2, 54, 64
4, 436792, Note_off_c, 2, 50, 64
4, 436792, Note_off_c, 2, 45, 64
4, 436800, Note_on_c, 2, 57, 73
4, 436800, Note_on_c, 2, 50, 73
4, 436800, Note_on_c, 2, 45, 73
4, 436800, Note_on_c, 2, 54, 73
4, 436984, Note_off_c, 2, 57, 64
4, 436984, Note_off_c, 2, 50, 64
4, 436984, Note_off_c, 2, 45, 64
4, 436984, Note_off_c, 2, 54, 64
4, 436992, Note_on_c, 2, 57, 73
4, 436992, Note_on_c, 2, 52, 73
4, 436992, Note_on_c, 2, 49, 73
4, 436992, Note_on_c, 2, 45, 73
4, 437176, Note_off_c, 2, 57, 64
4, 437176, Note_off_c, 2, 52, 64
4, 437176, Note_off_c, 2, 49, 64
4, 437176, Note_off_c, 2, 45, 64
4, 437184, Note_on_c, 2, 57, 73
4, 437184, Note_on_c, 2, 52, 73
4, 437184, Note_on_c, 2, 49, 73
4, 437184, Note_on_c, 2, 45, 73
4, 437368, Note_off_c, 2, 57, 64
4, 437368, Note_off_c, 2, 52, 64
4, 437368, Note_off_c, 2, 49, 64
4, 437368, Note_off_c, 2, 45, 64
4, 437376, Note_on_c, 2, 57, 73
4, 437376, Note_on_c, 2, 54, 73
4, 437376, Note_on_c, 2, 50, 73
4, 437376, Note_on_c, 2, 45, 73
4, 437560, Note_off_c, 2, 57, 64
4, 437560, Note_off_c, 2, 54, 64
4, 437560, Note_off_c, 2, 50, 64
4, 437560, Note_off_c, 2, 45, 64
4, 437568, Note_on_c, 2, 57, 73
4, 437568, Note_on_c, 2, 54, 73
4, 437568, Note_on_c, 2, 50, 73
4, 437568, Note_on_c, 2, 45, 73
4, 437752, Note_off_c, 2, 57, 64
4, 437752, Note_off_c, 2, 54, 64
4, 437752, Note_off_c, 2, 50, 64
4, 437752, Note_off_c, 2, 45, 64
4, 437760, Note_on_c, 2, 57, 73
4, 437760, Note_on_c, 2, 52, 73
4, 437760, Note_on_c, 2, 49, 73
4, 437760, Note_on_c, 2, 45, 73
4, 437944, Note_off_c, 2, 57, 64
4, 437944, Note_off_c, 2, 52, 64
4, 437944, Note_off_c, 2, 49, 64
4, 437944, Note_off_c, 2, 45, 64
4, 437952, Note_on_c, 2, 57, 73
4, 437952, Note_on_c, 2, 52, 73
4, 437952, Note_on_c, 2, 49, 73
4, 437952, Note_on_c, 2, 45, 73
4, 438136, Note_off_c, 2, 57, 64
4, 438136, Note_off_c, 2, 52, 64
4, 438136, Note_off_c, 2, 49, 64
4, 438136, Note_off_c, 2, 45, 64
4, 438144, Note_on_c, 2, 59, 73
4, 438144, Note_on_c, 2, 56, 73
4, 438144, Note_on_c, 2, 52, 73
4, 438328, Note_off_c, 2, 59, 64
4, 438328, Note_off_c, 2, 56, 64
4, 438328, Note_off_c, 2, 52, 64
4, 438336, Note_on_c, 2, 52, 73
4, 438336, Note_on_c, 2, 59, 73
4, 438336, Note_on_c, 2, 56, 73
4, 438520, Note_off_c, 2, 52, 64
4, 438520, Note_off_c, 2, 59, 64
4, 438520, Note_off_c, 2, 56, 64
4, 438528, Note_on_c, 2, 57, 73
4, 438528, Note_on_c, 2, 52, 73
4, 438528, Note_on_c, 2, 49, 73
4, 438528, Note_on_c, 2, 45, 73
4, 438712, Note_off_c, 2, 57, 64
4, 438712, Note_off_c, 2, 52, 64
4, 438712, Note_off_c, 2, 49, 64
4, 438712, Note_off_c, 2, 45, 64
4, 438720, Note_on_c, 2, 57, 73
4, 438720, Note_on_c, 2, 52, 73
4, 438720, Note_on_c, 2, 49, 73
4, 438720, Note_on_c, 2, 45, 73
4, 438904, Note_off_c, 2, 57, 64
4, 438904, Note_off_c, 2, 52, 64
4, 438904, Note_off_c, 2, 49, 64
4, 438904, Note_off_c, 2, 45, 64
4, 438912, Note_on_c, 2, 57, 64
4, 438912, Note_on_c, 2, 62, 64
4, 438912, Note_on_c, 2, 66, 64
4, 439000, Note_off_c, 2, 57, 64
4, 439000, Note_off_c, 2, 62, 64
4, 439000, Note_off_c, 2, 66, 64
4, 439104, Note_on_c, 2, 57, 64
4, 439104, Note_on_c, 2, 62, 64
4, 439104, Note_on_c, 2, 66, 64
4, 439192, Note_off_c, 2, 57, 64
4, 439192, Note_off_c, 2, 62, 64
4, 439192, Note_off_c, 2, 66, 64
4, 439296, Note_on_c, 2, 57, 64
4, 439296, Note_on_c, 2, 61, 64
4, 439296, Note_on_c, 2, 64, 64
4, 439384, Note_off_c, 2, 57, 64
4, 439384, Note_off_c, 2, 61, 64
4, 439384, Note_off_c, 2, 64, 64
4, 439488, Note_on_c, 2, 57, 64
4, 439488, Note_on_c, 2, 61, 64
4, 439488, Note_on_c, 2, 64, 64
4, 439576, Note_off_c, 2, 57, 64
4, 439576, Note_off_c, 2, 61, 64
4, 439576, Note_off_c, 2, 64, 64
4, 439680, Note_on_c, 2, 57, 64
4, 439680, Note_on_c, 2, 62, 64
4, 439680, Note_on_c, 2, 66, 64
4, 439768, Note_off_c, 2, 57, 64
4, 439768, Note_off_c, 2, 62, 64
4, 439768, Note_off_c, 2, 66, 64
4, 439872, Note_on_c, 2, 57, 64
4, 439872, Note_on_c, 2, 62, 64
4, 439872, Note_on_c, 2, 66, 64
4, 439960, Note_off_c, 2, 57, 64
4, 439960, Note_off_c, 2, 62, 64
4, 439960, Note_off_c, 2, 66, 64
4, 440064, Note_on_c, 2, 64, 64
4, 440064, Note_on_c, 2, 61, 64
4, 440064, Note_on_c, 2, 57, 64
4, 440248, Note_off_c, 2, 64, 64
4, 440248, Note_off_c, 2, 61, 64
4, 440248, Note_off_c, 2, 57, 64
4, 440256, Note_on_c, 2, 64, 64
4, 440256, Note_on_c, 2, 61, 64
4, 440256, Note_on_c, 2, 57, 64
4, 440440, Note_off_c, 2, 64, 64
4, 440440, Note_off_c, 2, 61, 64
4, 440440, Note_off_c, 2, 57, 64
4, 440448, Note_on_c, 2, 57, 73
4, 440448, Note_on_c, 2, 54, 73
4, 440448, Note_on_c, 2, 50, 73
4, 440448, Note_on_c, 2, 45, 73
4, 440632, Note_off_c, 2, 57, 64
4, 440632, Note_off_c, 2, 54, 64
4, 440632, Note_off_c, 2, 50, 64
4, 440632, Note_off_c, 2, 45, 64
4, 440640, Note_on_c, 2, 57, 73
4, 440640, Note_on_c, 2, 54, 73
4, 440640, Note_on_c, 2, 50, 73
4, 440640, Note_on_c, 2, 45, 73
4, 440824, Note_off_c, 2, 57, 64
4, 440824, Note_off_c, 2, 54, 64
4, 440824, Note_off_c, 2, 50, 64
4, 440824, Note_off_c, 2, 45, 64
4, 440832, Note_on_c, 2, 57, 73
4, 440832, Note_on_c, 2, 52, 73
4, 440832, Note_on_c, 2, 49, 73
4, 440832, Note_on_c, 2, 45, 73
4, 441016, Note_off_c, 2, 57, 64
4, 441016, Note_off_c, 2, 52, 64
4, 441016, Note_off_c, 2, 49, 64
4, 441016, Note_off_c, 2, 45, 64
4, 441024, Note_on_c, 2, 57, 73
4, 441024, Note_on_c, 2, 52, 73
4, 441024, Note_on_c, 2, 49, 73
4, 441024, Note_on_c, 2, 45, 73
4, 441208, Note_off_c, 2, 57, 64
4, 441208, Note_off_c, 2, 52, 64
4, 441208, Note_off_c, 2, 49, 64
4, 441208, Note_off_c, 2, 45, 64
4, 441216, Note_on_c, 2, 59, 73
4, 441216, Note_on_c, 2, 56, 73
4, 441216, Note_on_c, 2, 52, 73
4, 441400, Note_off_c, 2, 59, 64
4, 441400, Note_off_c, 2, 56, 64
4, 441400, Note_off_c, 2, 52, 64
4, 441408, Note_on_c, 2, 59, 73
4, 441408, Note_on_c, 2, 56, 73
4, 441408, Note_on_c, 2, 52, 73
4, 441592, Note_off_c, 2, 59, 64
4, 441592, Note_off_c, 2, 56, 64
4, 441592, Note_off_c, 2, 52, 64
4, 441600, Note_on_c, 2, 61, 82
4, 441600, Note_on_c, 2, 57, 82
4, 441980, Note_off_c, 2, 61, 64
4, 441980, Note_off_c, 2, 57, 64
4, 441984, Note_on_c, 2, 64, 82
4, 442072, Note_off_c, 2, 64, 64
4, 442176, Note_on_c, 2, 61, 82
4, 442264, Note_off_c, 2, 61, 64
4, 442368, Note_on_c, 2, 57, 82
4, 442456, Note_off_c, 2, 57, 64
4, 442560, Note_on_c, 2, 61, 82
4, 442648, Note_off_c, 2, 61, 64
4, 442752, Note_on_c, 2, 52, 82
4, 442840, Note_off_c, 2, 52, 64
4, 442944, Note_on_c, 2, 57, 82
4, 443032, Note_off_c, 2, 57, 64
4, 443136, Note_on_c, 2, 49, 82
4, 443512, Note_off_c, 2, 49, 64
4, 443520, Note_on_c, 2, 61, 82
4, 443608, Note_off_c, 2, 61, 64
4, 443712, Note_on_c, 2, 57, 82
4, 443800, Note_off_c, 2, 57, 64
4, 443904, Note_on_c, 2, 52, 82
4, 443992, Note_off_c, 2, 52, 64
4, 444096, Note_on_c, 2, 57, 82
4, 444184, Note_off_c, 2, 57, 64
4, 444288, Note_on_c, 2, 49, 82
4, 444376, Note_off_c, 2, 49, 64
4, 444480, Note_on_c, 2, 52, 82
4, 444568, Note_off_c, 2, 52, 64
4, 444672, Note_on_c, 2, 45, 82
4, 445240, Note_off_c, 2, 45, 64
4, 445248, Note_on_c, 2, 49, 64
4, 445332, Note_off_c, 2, 49, 64
4, 445344, Note_on_c, 2, 52, 64
4, 445428, Note_off_c, 2, 52, 64
4, 445440, Note_on_c, 2, 57, 64
4, 445820, Note_off_c, 2, 57, 64
4, 445820, End_track
5, 0, Start_track
5, 0, Key_signature, 0, "major"
5, 0, End_track
6, 0, Start_track
6, 0, Key_signature, 0, "major"
6, 0, End_track
7, 0, Start_track
7, 0, Key_signature, 0, "major"
7, 0, End_track
8, 0, Start_track
8, 0, Key_signature, 0, "major"
8, 0, End_track
9, 0, Start_track
9, 0, Key_signature, 0, "major"
9, 0, End_track
10, 0, Start_track
10, 0, Key_signature, 0, "major"
10, 0, End_track
11, 0, Start_track
11, 0, Key_signature, 0, "major"
11, 0, End_track
12, 0, Start_track
12, 0, Key_signature, 0, "major"
12, 0, End_track
13, 0, Start_track
13, 0, Key_signature, 0, "major"
13, 0, End_track
14, 0, Start_track
14, 0, Key_signature, 0, "major"
14, 0, End_track
15, 0, Start_track
15, 0, Key_signature, 0, "major"
15, 0, End_track
16, 0, Start_track
16, 0, Key_signature, 0, "major"
16, 0, End_track
17, 0, Start_track
17, 0, Key_signature, 0, "major"
17, 0, End_track
18, 0, Start_track
18, 0, Key_signature, 0, "major"
18, 0, End_track
19, 0, Start_track
19, 0, Key_signature, 0, "major"
19, 0, End_track
0, 0, End_of_file
