0, 0, Header, 1, 17, 384
1, 0, Start_track
1, 0, Time_signature, 4, 2, 96, 8
1, 0, Sequencer_specific, 3, 0, 0, 65
1, 0, Tempo, 545454
1, 0, End_track
2, 0, Start_track
2, 0, Title_t, "Mozart"
2, 0, Control_c, 0, 0, 0
2, 0, Program_c, 0, 73
2, 0, Control_c, 0, 7, 80
2, 0, Control_c, 0, 10, 84
2, 0, Control_c, 0, 91, 46
2, 0, Control_c, 0, 93, 36
2, 0, Key_signature, 1, "major"
2, 0, Control_c, 0, 121, 0
2, 144, Control_c, 0, 10, 83
2, 192, Control_c, 0, 91, 63
2, 240, Control_c, 0, 93, 40
2, 288, Program_c, 0, 73
2, 336, Control_c, 0, 1, 30
2, 47616, Note_on_c, 0, 79, 67
2, 47996, Note_off_c, 0, 79, 0
2, 48000, Note_on_c, 0, 74, 67
2, 48284, Note_off_c, 0, 74, 0
2, 48288, Note_on_c, 0, 74, 67
2, 48380, Note_off_c, 0, 74, 0
2, 48384, Note_on_c, 0, 74, 67
2, 48764, Note_off_c, 0, 74, 0
2, 48768, Note_on_c, 0, 74, 67
2, 49148, Note_off_c, 0, 74, 0
2, 49152, Note_on_c, 0, 86, 67
2, 49340, Note_off_c, 0, 86, 0
2, 49344, Note_on_c, 0, 84, 67
2, 49532, Note_off_c, 0, 84, 0
2, 49536, Note_on_c, 0, 84, 67
2, 50300, Note_off_c, 0, 84, 0
2, 50304, Note_on_c, 0, 86, 67
2, 50396, Note_off_c, 0, 86, 0
2, 50400, Note_on_c, 0, 84, 67
2, 50492, Note_off_c, 0, 84, 0
2, 50496, Note_on_c, 0, 83, 67
2, 50588, Note_off_c, 0, 83, 0
2, 50592, Note_on_c, 0, 81, 67
2, 50684, Note_off_c, 0, 81, 0
2, 50688, Note_on_c, 0, 81, 67
2, 50780, Note_off_c, 0, 81, 0
2, 50784, Note_on_c, 0, 79, 67
2, 50876, Note_off_c, 0, 79, 0
2, 50880, Note_on_c, 0, 78, 67
2, 50972, Note_off_c, 0, 78, 0
2, 50976, Note_on_c, 0, 76, 67
2, 51068, Note_off_c, 0, 76, 0
2, 51072, Note_on_c, 0, 76, 67
2, 51164, Note_off_c, 0, 76, 0
2, 51168, Note_on_c, 0, 74, 67
2, 51260, Note_off_c, 0, 74, 0
2, 51264, Note_on_c, 0, 72, 67
2, 51356, Note_off_c, 0, 72, 0
2, 51360, Note_on_c, 0, 71, 67
2, 51452, Note_off_c, 0, 71, 0
2, 51456, Note_on_c, 0, 74, 67
2, 51836, Note_off_c, 0, 74, 0
2, 51840, Note_on_c, 0, 72, 67
2, 51888, Note_off_c, 0, 72, 0
2, 51888, Note_on_c, 0, 74, 67
2, 51936, Note_off_c, 0, 74, 0
2, 51936, Note_on_c, 0, 72, 67
2, 51984, Note_off_c, 0, 72, 0
2, 51984, Note_on_c, 0, 74, 67
2, 52032, Note_off_c, 0, 74, 0
2, 52032, Note_on_c, 0, 72, 67
2, 52080, Note_off_c, 0, 72, 0
2, 52080, Note_on_c, 0, 74, 67
2, 52128, Note_off_c, 0, 74, 0
2, 52128, Note_on_c, 0, 71, 67
2, 52176, Note_off_c, 0, 71, 0
2, 52176, Note_on_c, 0, 72, 67
2, 52224, Note_off_c, 0, 72, 0
2, 52224, Note_on_c, 0, 71, 70
2, 52604, Note_off_c, 0, 71, 0
2, 53760, Note_on_c, 0, 67, 72
2, 54140, Note_off_c, 0, 67, 0
2, 54144, Note_on_c, 0, 62, 73
2, 54428, Note_off_c, 0, 62, 0
2, 54432, Note_on_c, 0, 62, 73
2, 54524, Note_off_c, 0, 62, 0
2, 54528, Note_on_c, 0, 62, 73
2, 54908, Note_off_c, 0, 62, 0
2, 54912, Note_on_c, 0, 62, 73
2, 55292, Note_off_c, 0, 62, 0
2, 55296, Note_on_c, 0, 86, 67
2, 55484, Note_off_c, 0, 86, 0
2, 55488, Note_on_c, 0, 84, 67
2, 55676, Note_off_c, 0, 84, 0
2, 55680, Note_on_c, 0, 84, 67
2, 56444, Note_off_c, 0, 84, 0
2, 56448, Note_on_c, 0, 86, 67
2, 56540, Note_off_c, 0, 86, 0
2, 56544, Note_on_c, 0, 84, 67
2, 56636, Note_off_c, 0, 84, 0
2, 56640, Note_on_c, 0, 83, 67
2, 56732, Note_off_c, 0, 83, 0
2, 56736, Note_on_c, 0, 81, 67
2, 56828, Note_off_c, 0, 81, 0
2, 56832, Note_on_c, 0, 79, 67
2, 57596, Note_off_c, 0, 79, 0
2, 57600, Note_on_c, 0, 84, 67
2, 57980, Note_off_c, 0, 84, 0
2, 59520, Note_on_c, 0, 86, 67
2, 59612, Note_off_c, 0, 86, 0
2, 59616, Note_on_c, 0, 84, 67
2, 59708, Note_off_c, 0, 84, 0
2, 59712, Note_on_c, 0, 83, 67
2, 59804, Note_off_c, 0, 83, 0
2, 59808, Note_on_c, 0, 81, 67
2, 59900, Note_off_c, 0, 81, 0
2, 59904, Note_on_c, 0, 79, 67
2, 59996, Note_off_c, 0, 79, 0
2, 60000, Note_on_c, 0, 81, 67
2, 60092, Note_off_c, 0, 81, 0
2, 60096, Note_on_c, 0, 83, 67
2, 60188, Note_off_c, 0, 83, 0
2, 60192, Note_on_c, 0, 79, 67
2, 60284, Note_off_c, 0, 79, 0
2, 60288, Note_on_c, 0, 86, 67
2, 60380, Note_off_c, 0, 86, 0
2, 60384, Note_on_c, 0, 84, 67
2, 60476, Note_off_c, 0, 84, 0
2, 60480, Note_on_c, 0, 83, 67
2, 60572, Note_off_c, 0, 83, 0
2, 60576, Note_on_c, 0, 81, 67
2, 60668, Note_off_c, 0, 81, 0
2, 60672, Note_on_c, 0, 79, 67
2, 60764, Note_off_c, 0, 79, 0
2, 60768, Note_on_c, 0, 81, 67
2, 60860, Note_off_c, 0, 81, 0
2, 60864, Note_on_c, 0, 83, 67
2, 60956, Note_off_c, 0, 83, 0
2, 60960, Note_on_c, 0, 79, 67
2, 61052, Note_off_c, 0, 79, 0
2, 61056, Note_on_c, 0, 86, 67
2, 61148, Note_off_c, 0, 86, 0
2, 61152, Note_on_c, 0, 84, 67
2, 61244, Note_off_c, 0, 84, 0
2, 61248, Note_on_c, 0, 83, 67
2, 61340, Note_off_c, 0, 83, 0
2, 61344, Note_on_c, 0, 81, 67
2, 61436, Note_off_c, 0, 81, 0
2, 61440, Note_on_c, 0, 79, 67
2, 61488, Note_off_c, 0, 79, 0
2, 61488, Note_on_c, 0, 81, 67
2, 61536, Note_off_c, 0, 81, 0
2, 61536, Note_on_c, 0, 79, 67
2, 61584, Note_off_c, 0, 79, 0
2, 61584, Note_on_c, 0, 81, 67
2, 61632, Note_off_c, 0, 81, 0
2, 61632, Note_on_c, 0, 79, 67
2, 61680, Note_off_c, 0, 79, 0
2, 61680, Note_on_c, 0, 81, 67
2, 61728, Note_off_c, 0, 81, 0
2, 61728, Note_on_c, 0, 79, 67
2, 61776, Note_off_c, 0, 79, 0
2, 61776, Note_on_c, 0, 81, 67
2, 61824, Note_off_c, 0, 81, 0
2, 61824, Note_on_c, 0, 79, 67
2, 61872, Note_off_c, 0, 79, 0
2, 61872, Note_on_c, 0, 81, 67
2, 61920, Note_off_c, 0, 81, 0
2, 61920, Note_on_c, 0, 79, 67
2, 61968, Note_off_c, 0, 79, 0
2, 61968, Note_on_c, 0, 81, 67
2, 62016, Note_off_c, 0, 81, 0
2, 62016, Note_on_c, 0, 78, 67
2, 62108, Note_off_c, 0, 78, 0
2, 62112, Note_on_c, 0, 76, 67
2, 62204, Note_off_c, 0, 76, 0
2, 62208, Note_on_c, 0, 74, 67
2, 62396, Note_off_c, 0, 74, 0
2, 62400, Note_on_c, 0, 79, 67
2, 62588, Note_off_c, 0, 79, 0
2, 62592, Note_on_c, 0, 83, 67
2, 62780, Note_off_c, 0, 83, 0
2, 62784, Note_on_c, 0, 86, 67
2, 62972, Note_off_c, 0, 86, 0
2, 62976, Note_on_c, 0, 86, 67
2, 63068, Note_off_c, 0, 86, 0
2, 63072, Note_on_c, 0, 84, 67
2, 63164, Note_off_c, 0, 84, 0
2, 63168, Note_on_c, 0, 88, 67
2, 63260, Note_off_c, 0, 88, 0
2, 63264, Note_on_c, 0, 84, 67
2, 63356, Note_off_c, 0, 84, 0
2, 63360, Note_on_c, 0, 83, 67
2, 63452, Note_off_c, 0, 83, 0
2, 63456, Note_on_c, 0, 81, 67
2, 63548, Note_off_c, 0, 81, 0
2, 63552, Note_on_c, 0, 84, 67
2, 63644, Note_off_c, 0, 84, 0
2, 63648, Note_on_c, 0, 81, 67
2, 63740, Note_off_c, 0, 81, 0
2, 63744, Note_on_c, 0, 79, 67
2, 63836, Note_off_c, 0, 79, 0
2, 63840, Note_on_c, 0, 78, 67
2, 63932, Note_off_c, 0, 78, 0
2, 63936, Note_on_c, 0, 81, 67
2, 64028, Note_off_c, 0, 81, 0
2, 64032, Note_on_c, 0, 79, 67
2, 64124, Note_off_c, 0, 79, 0
2, 64128, Note_on_c, 0, 78, 67
2, 64220, Note_off_c, 0, 78, 0
2, 64224, Note_on_c, 0, 76, 67
2, 64316, Note_off_c, 0, 76, 0
2, 64320, Note_on_c, 0, 74, 67
2, 64412, Note_off_c, 0, 74, 0
2, 64416, Note_on_c, 0, 72, 67
2, 64508, Note_off_c, 0, 72, 0
2, 64512, Note_on_c, 0, 71, 67
2, 64604, Note_off_c, 0, 71, 0
2, 64608, Note_on_c, 0, 67, 67
2, 64700, Note_off_c, 0, 67, 0
2, 64704, Note_on_c, 0, 74, 67
2, 64784, Note_off_c, 0, 74, 0
2, 64800, Note_on_c, 0, 74, 67
2, 64880, Note_off_c, 0, 74, 0
2, 64896, Note_on_c, 0, 74, 67
2, 64976, Note_off_c, 0, 74, 0
2, 64992, Note_on_c, 0, 71, 67
2, 65084, Note_off_c, 0, 71, 0
2, 65088, Note_on_c, 0, 79, 67
2, 65168, Note_off_c, 0, 79, 0
2, 65184, Note_on_c, 0, 79, 67
2, 65264, Note_off_c, 0, 79, 0
2, 65280, Note_on_c, 0, 79, 67
2, 65360, Note_off_c, 0, 79, 0
2, 65376, Note_on_c, 0, 74, 67
2, 65468, Note_off_c, 0, 74, 0
2, 65472, Note_on_c, 0, 83, 67
2, 65552, Note_off_c, 0, 83, 0
2, 65568, Note_on_c, 0, 83, 67
2, 65648, Note_off_c, 0, 83, 0
2, 65664, Note_on_c, 0, 83, 67
2, 65744, Note_off_c, 0, 83, 0
2, 65760, Note_on_c, 0, 79, 67
2, 65852, Note_off_c, 0, 79, 0
2, 65856, Note_on_c, 0, 86, 67
2, 65936, Note_off_c, 0, 86, 0
2, 65952, Note_on_c, 0, 86, 67
2, 66032, Note_off_c, 0, 86, 0
2, 66048, Note_on_c, 0, 62, 73
2, 66812, Note_off_c, 0, 62, 0
2, 66816, Note_on_c, 0, 81, 67
2, 66864, Note_off_c, 0, 81, 0
2, 66864, Note_on_c, 0, 83, 67
2, 66912, Note_off_c, 0, 83, 0
2, 66912, Note_on_c, 0, 81, 67
2, 66960, Note_off_c, 0, 81, 0
2, 66960, Note_on_c, 0, 83, 67
2, 67008, Note_off_c, 0, 83, 0
2, 67008, Note_on_c, 0, 81, 67
2, 67056, Note_off_c, 0, 81, 0
2, 67056, Note_on_c, 0, 83, 67
2, 67104, Note_off_c, 0, 83, 0
2, 67104, Note_on_c, 0, 81, 67
2, 67152, Note_off_c, 0, 81, 0
2, 67152, Note_on_c, 0, 83, 67
2, 67200, Note_off_c, 0, 83, 0
2, 67200, Note_on_c, 0, 81, 67
2, 67248, Note_off_c, 0, 81, 0
2, 67248, Note_on_c, 0, 83, 67
2, 67296, Note_off_c, 0, 83, 0
2, 67296, Note_on_c, 0, 81, 67
2, 67344, Note_off_c, 0, 81, 0
2, 67344, Note_on_c, 0, 83, 67
2, 67392, Note_off_c, 0, 83, 0
2, 67392, Note_on_c, 0, 81, 67
2, 67440, Note_off_c, 0, 81, 0
2, 67440, Note_on_c, 0, 83, 67
2, 67488, Note_off_c, 0, 83, 0
2, 67488, Note_on_c, 0, 79, 67
2, 67536, Note_off_c, 0, 79, 0
2, 67536, Note_on_c, 0, 81, 67
2, 67584, Note_off_c, 0, 81, 0
2, 67584, Note_on_c, 0, 79, 67
2, 67964, Note_off_c, 0, 79, 0
2, 70656, Note_on_c, 0, 83, 67
2, 70844, Note_off_c, 0, 83, 0
2, 70848, Note_on_c, 0, 82, 67
2, 70896, Note_off_c, 0, 82, 0
2, 70896, Note_on_c, 0, 83, 67
2, 71040, Note_on_c, 0, 82, 67
2, 71084, Note_off_c, 0, 83, 0
2, 71088, Note_off_c, 0, 82, 0
2, 71088, Note_on_c, 0, 83, 67
2, 71616, Note_off_c, 0, 83, 0
2, 71616, Note_on_c, 0, 82, 67
2, 71708, Note_off_c, 0, 82, 0
2, 71712, Note_on_c, 0, 83, 67
2, 71804, Note_off_c, 0, 83, 0
2, 71808, Note_on_c, 0, 84, 67
2, 71900, Note_off_c, 0, 84, 0
2, 71904, Note_on_c, 0, 83, 67
2, 71996, Note_off_c, 0, 83, 0
2, 72000, Note_on_c, 0, 84, 67
2, 72092, Note_off_c, 0, 84, 0
2, 72096, Note_on_c, 0, 83, 67
2, 72188, Note_off_c, 0, 83, 0
2, 72192, Note_on_c, 0, 83, 67
2, 72380, Note_off_c, 0, 83, 0
2, 72384, Note_on_c, 0, 84, 67
2, 72572, Note_off_c, 0, 84, 0
2, 72576, Note_on_c, 0, 84, 67
2, 73340, Note_off_c, 0, 84, 0
2, 73344, Note_on_c, 0, 63, 73
2, 73724, Note_off_c, 0, 63, 0
2, 73728, Note_on_c, 0, 64, 72
2, 73916, Note_off_c, 0, 64, 0
2, 73920, Note_on_c, 0, 83, 67
2, 74108, Note_off_c, 0, 83, 0
2, 74112, Note_on_c, 0, 79, 67
2, 74300, Note_off_c, 0, 79, 0
2, 74304, Note_on_c, 0, 76, 67
2, 74492, Note_off_c, 0, 76, 0
2, 74496, Note_on_c, 0, 75, 67
2, 74684, Note_off_c, 0, 75, 0
2, 74688, Note_on_c, 0, 81, 67
2, 74876, Note_off_c, 0, 81, 0
2, 74880, Note_on_c, 0, 78, 67
2, 75068, Note_off_c, 0, 78, 0
2, 75072, Note_on_c, 0, 75, 67
2, 75260, Note_off_c, 0, 75, 0
2, 75264, Note_on_c, 0, 78, 67
2, 75356, Note_off_c, 0, 78, 0
2, 75360, Note_on_c, 0, 76, 67
2, 75440, Note_off_c, 0, 76, 0
2, 75456, Note_on_c, 0, 76, 67
2, 75536, Note_off_c, 0, 76, 0
2, 75552, Note_on_c, 0, 76, 67
2, 75632, Note_off_c, 0, 76, 0
2, 75648, Note_on_c, 0, 79, 67
2, 75740, Note_off_c, 0, 79, 0
2, 75744, Note_on_c, 0, 78, 67
2, 75824, Note_off_c, 0, 78, 0
2, 75840, Note_on_c, 0, 78, 67
2, 75920, Note_off_c, 0, 78, 0
2, 75936, Note_on_c, 0, 78, 67
2, 76016, Note_off_c, 0, 78, 0
2, 76032, Note_on_c, 0, 81, 67
2, 76124, Note_off_c, 0, 81, 0
2, 76128, Note_on_c, 0, 79, 67
2, 76208, Note_off_c, 0, 79, 0
2, 76224, Note_on_c, 0, 79, 67
2, 76304, Note_off_c, 0, 79, 0
2, 76320, Note_on_c, 0, 79, 67
2, 76400, Note_off_c, 0, 79, 0
2, 76416, Note_on_c, 0, 81, 67
2, 76508, Note_off_c, 0, 81, 0
2, 76512, Note_on_c, 0, 80, 67
2, 76592, Note_off_c, 0, 80, 0
2, 76608, Note_on_c, 0, 80, 67
2, 76688, Note_off_c, 0, 80, 0
2, 76704, Note_on_c, 0, 80, 67
2, 76784, Note_off_c, 0, 80, 0
2, 76800, Note_on_c, 0, 83, 67
2, 76844, Note_off_c, 0, 83, 0
2, 76848, Note_on_c, 0, 81, 67
2, 76992, Note_on_c, 0, 81, 67
2, 77036, Note_off_c, 0, 81, 0
2, 77180, Note_off_c, 0, 81, 0
2, 77184, Note_on_c, 0, 81, 67
2, 77564, Note_off_c, 0, 81, 0
2, 77568, Note_on_c, 0, 81, 67
2, 77660, Note_off_c, 0, 81, 0
2, 77664, Note_on_c, 0, 83, 67
2, 77756, Note_off_c, 0, 83, 0
2, 77760, Note_on_c, 0, 85, 67
2, 77852, Note_off_c, 0, 85, 0
2, 77856, Note_on_c, 0, 86, 67
2, 77948, Note_off_c, 0, 86, 0
2, 77952, Note_on_c, 0, 85, 67
2, 78044, Note_off_c, 0, 85, 0
2, 78048, Note_on_c, 0, 86, 67
2, 78140, Note_off_c, 0, 86, 0
2, 78144, Note_on_c, 0, 85, 67
2, 78236, Note_off_c, 0, 85, 0
2, 78240, Note_on_c, 0, 86, 67
2, 78332, Note_off_c, 0, 86, 0
2, 78336, Note_on_c, 0, 86, 67
2, 78524, Note_off_c, 0, 86, 0
2, 78528, Note_on_c, 0, 82, 67
2, 78716, Note_off_c, 0, 82, 0
2, 78720, Note_on_c, 0, 82, 67
2, 79484, Note_off_c, 0, 82, 0
2, 79488, Note_on_c, 0, 70, 70
2, 79868, Note_off_c, 0, 70, 0
2, 79872, Note_on_c, 0, 69, 70
2, 80060, Note_off_c, 0, 69, 0
2, 80064, Note_on_c, 0, 62, 73
2, 80252, Note_off_c, 0, 62, 0
2, 80256, Note_on_c, 0, 66, 72
2, 80444, Note_off_c, 0, 66, 0
2, 80448, Note_on_c, 0, 69, 70
2, 80636, Note_off_c, 0, 69, 0
2, 80640, Note_on_c, 0, 67, 70
2, 80828, Note_off_c, 0, 67, 0
2, 80832, Note_on_c, 0, 64, 73
2, 81020, Note_off_c, 0, 64, 0
2, 81024, Note_on_c, 0, 67, 72
2, 81212, Note_off_c, 0, 67, 0
2, 81216, Note_on_c, 0, 69, 70
2, 81404, Note_off_c, 0, 69, 0
2, 81408, Note_on_c, 0, 66, 73
2, 81596, Note_off_c, 0, 66, 0
2, 81792, Note_on_c, 0, 81, 67
2, 82940, Note_off_c, 0, 81, 0
2, 82944, Note_on_c, 0, 81, 67
2, 83132, Note_off_c, 0, 81, 0
2, 83136, Note_on_c, 0, 78, 67
2, 83324, Note_off_c, 0, 78, 0
2, 83328, Note_on_c, 0, 81, 67
2, 83516, Note_off_c, 0, 81, 0
2, 83520, Note_on_c, 0, 86, 67
2, 83708, Note_off_c, 0, 86, 0
2, 83712, Note_on_c, 0, 84, 67
2, 83900, Note_off_c, 0, 84, 0
2, 83904, Note_on_c, 0, 81, 67
2, 84092, Note_off_c, 0, 81, 0
2, 84096, Note_on_c, 0, 84, 67
2, 84284, Note_off_c, 0, 84, 0
2, 84288, Note_on_c, 0, 86, 67
2, 84476, Note_off_c, 0, 86, 0
2, 84480, Note_on_c, 0, 83, 67
2, 84572, Note_off_c, 0, 83, 0
2, 84576, Note_on_c, 0, 84, 67
2, 84668, Note_off_c, 0, 84, 0
2, 84672, Note_on_c, 0, 86, 67
2, 84764, Note_off_c, 0, 86, 0
2, 84768, Note_on_c, 0, 83, 67
2, 84860, Note_off_c, 0, 83, 0
2, 84864, Note_on_c, 0, 81, 67
2, 84956, Note_off_c, 0, 81, 0
2, 84960, Note_on_c, 0, 83, 67
2, 85052, Note_off_c, 0, 83, 0
2, 85056, Note_on_c, 0, 84, 67
2, 85148, Note_off_c, 0, 84, 0
2, 85152, Note_on_c, 0, 81, 67
2, 85244, Note_off_c, 0, 81, 0
2, 85248, Note_on_c, 0, 79, 67
2, 85340, Note_off_c, 0, 79, 0
2, 85344, Note_on_c, 0, 81, 67
2, 85436, Note_off_c, 0, 81, 0
2, 85440, Note_on_c, 0, 83, 67
2, 85532, Note_off_c, 0, 83, 0
2, 85536, Note_on_c, 0, 79, 67
2, 85628, Note_off_c, 0, 79, 0
2, 85632, Note_on_c, 0, 78, 67
2, 85724, Note_off_c, 0, 78, 0
2, 85728, Note_on_c, 0, 79, 67
2, 85820, Note_off_c, 0, 79, 0
2, 85824, Note_on_c, 0, 81, 67
2, 85916, Note_off_c, 0, 81, 0
2, 85920, Note_on_c, 0, 78, 67
2, 86012, Note_off_c, 0, 78, 0
2, 86016, Note_on_c, 0, 76, 67
2, 86108, Note_off_c, 0, 76, 0
2, 86112, Note_on_c, 0, 75, 67
2, 86204, Note_off_c, 0, 75, 0
2, 86208, Note_on_c, 0, 76, 67
2, 86300, Note_off_c, 0, 76, 0
2, 86304, Note_on_c, 0, 78, 67
2, 86396, Note_off_c, 0, 78, 0
2, 86400, Note_on_c, 0, 79, 67
2, 86492, Note_off_c, 0, 79, 0
2, 86496, Note_on_c, 0, 81, 67
2, 86588, Note_off_c, 0, 81, 0
2, 86592, Note_on_c, 0, 83, 67
2, 86684, Note_off_c, 0, 83, 0
2, 86688, Note_on_c, 0, 84, 67
2, 86780, Note_off_c, 0, 84, 0
2, 86784, Note_on_c, 0, 86, 67
2, 86876, Note_off_c, 0, 86, 0
2, 86880, Note_on_c, 0, 85, 67
2, 86972, Note_off_c, 0, 85, 0
2, 86976, Note_on_c, 0, 86, 67
2, 87068, Note_off_c, 0, 86, 0
2, 87072, Note_on_c, 0, 85, 67
2, 87164, Note_off_c, 0, 85, 0
2, 87168, Note_on_c, 0, 86, 67
2, 87356, Note_off_c, 0, 86, 0
2, 87360, Note_on_c, 0, 74, 67
2, 87548, Note_off_c, 0, 74, 0
2, 87552, Note_on_c, 0, 74, 67
2, 87644, Note_off_c, 0, 74, 0
2, 87648, Note_on_c, 0, 73, 67
2, 87740, Note_off_c, 0, 73, 0
2, 87744, Note_on_c, 0, 71, 67
2, 87836, Note_off_c, 0, 71, 0
2, 87840, Note_on_c, 0, 69, 67
2, 87932, Note_off_c, 0, 69, 0
2, 87936, Note_on_c, 0, 69, 67
2, 88124, Note_off_c, 0, 69, 0
2, 92352, Note_on_c, 0, 69, 67
2, 92444, Note_off_c, 0, 69, 0
2, 92448, Note_on_c, 0, 73, 67
2, 92540, Note_off_c, 0, 73, 0
2, 92544, Note_on_c, 0, 71, 67
2, 92636, Note_off_c, 0, 71, 0
2, 92640, Note_on_c, 0, 74, 67
2, 92732, Note_off_c, 0, 74, 0
2, 92736, Note_on_c, 0, 73, 67
2, 92828, Note_off_c, 0, 73, 0
2, 92832, Note_on_c, 0, 76, 67
2, 92924, Note_off_c, 0, 76, 0
2, 92928, Note_on_c, 0, 74, 67
2, 93020, Note_off_c, 0, 74, 0
2, 93024, Note_on_c, 0, 78, 67
2, 93116, Note_off_c, 0, 78, 0
2, 93120, Note_on_c, 0, 76, 67
2, 93212, Note_off_c, 0, 76, 0
2, 93216, Note_on_c, 0, 80, 67
2, 93308, Note_off_c, 0, 80, 0
2, 93312, Note_on_c, 0, 78, 67
2, 93404, Note_off_c, 0, 78, 0
2, 93408, Note_on_c, 0, 81, 67
2, 93500, Note_off_c, 0, 81, 0
2, 93504, Note_on_c, 0, 80, 67
2, 93596, Note_off_c, 0, 80, 0
2, 93600, Note_on_c, 0, 83, 67
2, 93692, Note_off_c, 0, 83, 0
2, 93696, Note_on_c, 0, 83, 67
2, 93744, Note_off_c, 0, 83, 0
2, 93744, Note_on_c, 0, 81, 67
2, 94080, Note_on_c, 0, 81, 67
2, 94084, Note_off_c, 0, 81, 0
2, 94460, Note_off_c, 0, 81, 0
2, 94656, Note_on_c, 0, 79, 67
2, 94748, Note_off_c, 0, 79, 0
2, 94752, Note_on_c, 0, 78, 67
2, 94844, Note_off_c, 0, 78, 0
2, 94848, Note_on_c, 0, 78, 67
2, 94940, Note_off_c, 0, 78, 0
2, 94944, Note_on_c, 0, 76, 67
2, 95036, Note_off_c, 0, 76, 0
2, 95040, Note_on_c, 0, 74, 67
2, 95132, Note_off_c, 0, 74, 0
2, 95136, Note_on_c, 0, 73, 67
2, 95228, Note_off_c, 0, 73, 0
2, 95232, Note_on_c, 0, 74, 67
2, 95420, Note_off_c, 0, 74, 0
2, 95424, Note_on_c, 0, 69, 67
2, 95516, Note_off_c, 0, 69, 0
2, 95520, Note_on_c, 0, 73, 67
2, 95612, Note_off_c, 0, 73, 0
2, 95616, Note_on_c, 0, 71, 67
2, 95708, Note_off_c, 0, 71, 0
2, 95712, Note_on_c, 0, 74, 67
2, 95804, Note_off_c, 0, 74, 0
2, 95808, Note_on_c, 0, 73, 67
2, 95900, Note_off_c, 0, 73, 0
2, 95904, Note_on_c, 0, 76, 67
2, 95996, Note_off_c, 0, 76, 0
2, 96000, Note_on_c, 0, 74, 67
2, 96092, Note_off_c, 0, 74, 0
2, 96096, Note_on_c, 0, 78, 67
2, 96188, Note_off_c, 0, 78, 0
2, 96192, Note_on_c, 0, 76, 67
2, 96284, Note_off_c, 0, 76, 0
2, 96288, Note_on_c, 0, 79, 67
2, 96380, Note_off_c, 0, 79, 0
2, 96384, Note_on_c, 0, 78, 67
2, 96476, Note_off_c, 0, 78, 0
2, 96480, Note_on_c, 0, 81, 67
2, 96572, Note_off_c, 0, 81, 0
2, 96576, Note_on_c, 0, 79, 67
2, 96668, Note_off_c, 0, 79, 0
2, 96672, Note_on_c, 0, 83, 67
2, 96764, Note_off_c, 0, 83, 0
2, 96768, Note_on_c, 0, 81, 67
2, 96860, Note_off_c, 0, 81, 0
2, 96864, Note_on_c, 0, 86, 67
2, 96944, Note_off_c, 0, 86, 0
2, 96960, Note_on_c, 0, 86, 67
2, 97040, Note_off_c, 0, 86, 0
2, 97056, Note_on_c, 0, 86, 67
2, 97136, Note_off_c, 0, 86, 0
2, 97152, Note_on_c, 0, 86, 67
2, 97232, Note_off_c, 0, 86, 0
2, 97248, Note_on_c, 0, 90, 67
2, 97328, Note_off_c, 0, 90, 0
2, 97344, Note_on_c, 0, 90, 67
2, 97424, Note_off_c, 0, 90, 0
2, 97440, Note_on_c, 0, 90, 67
2, 97520, Note_off_c, 0, 90, 0
2, 97536, Note_on_c, 0, 90, 67
2, 97616, Note_off_c, 0, 90, 0
2, 97632, Note_on_c, 0, 88, 67
2, 97724, Note_off_c, 0, 88, 0
2, 97728, Note_on_c, 0, 86, 67
2, 97820, Note_off_c, 0, 86, 0
2, 97824, Note_on_c, 0, 85, 67
2, 97916, Note_off_c, 0, 85, 0
2, 97920, Note_on_c, 0, 83, 67
2, 98012, Note_off_c, 0, 83, 0
2, 98016, Note_on_c, 0, 81, 67
2, 98108, Note_off_c, 0, 81, 0
2, 98112, Note_on_c, 0, 79, 67
2, 98204, Note_off_c, 0, 79, 0
2, 98208, Note_on_c, 0, 78, 67
2, 98300, Note_off_c, 0, 78, 0
2, 98304, Note_on_c, 0, 79, 67
2, 98492, Note_off_c, 0, 79, 0
2, 98496, Note_on_c, 0, 83, 67
2, 98588, Note_off_c, 0, 83, 0
2, 98592, Note_on_c, 0, 81, 67
2, 98684, Note_off_c, 0, 81, 0
2, 98688, Note_on_c, 0, 79, 67
2, 98780, Note_off_c, 0, 79, 0
2, 98784, Note_on_c, 0, 83, 67
2, 98876, Note_off_c, 0, 83, 0
2, 98880, Note_on_c, 0, 78, 67
2, 98972, Note_off_c, 0, 78, 0
2, 98976, Note_on_c, 0, 81, 67
2, 99068, Note_off_c, 0, 81, 0
2, 99072, Note_on_c, 0, 76, 67
2, 99164, Note_off_c, 0, 76, 0
2, 99168, Note_on_c, 0, 79, 67
2, 99260, Note_off_c, 0, 79, 0
2, 99264, Note_on_c, 0, 74, 67
2, 99356, Note_off_c, 0, 74, 0
2, 99360, Note_on_c, 0, 78, 67
2, 99452, Note_off_c, 0, 78, 0
2, 99456, Note_on_c, 0, 73, 67
2, 99548, Note_off_c, 0, 73, 0
2, 99552, Note_on_c, 0, 76, 67
2, 99644, Note_off_c, 0, 76, 0
2, 99648, Note_on_c, 0, 71, 67
2, 99740, Note_off_c, 0, 71, 0
2, 99744, Note_on_c, 0, 74, 67
2, 99836, Note_off_c, 0, 74, 0
2, 99840, Note_on_c, 0, 73, 67
2, 99932, Note_off_c, 0, 73, 0
2, 99936, Note_on_c, 0, 76, 67
2, 100028, Note_off_c, 0, 76, 0
2, 100032, Note_on_c, 0, 74, 67
2, 100124, Note_off_c, 0, 74, 0
2, 100128, Note_on_c, 0, 73, 67
2, 100220, Note_off_c, 0, 73, 0
2, 100224, Note_on_c, 0, 71, 67
2, 100316, Note_off_c, 0, 71, 0
2, 100320, Note_on_c, 0, 74, 67
2, 100412, Note_off_c, 0, 74, 0
2, 100416, Note_on_c, 0, 73, 67
2, 100508, Note_off_c, 0, 73, 0
2, 100512, Note_on_c, 0, 71, 67
2, 100604, Note_off_c, 0, 71, 0
2, 100608, Note_on_c, 0, 69, 67
2, 100700, Note_off_c, 0, 69, 0
2, 100704, Note_on_c, 0, 73, 67
2, 100796, Note_off_c, 0, 73, 0
2, 100800, Note_on_c, 0, 71, 67
2, 100892, Note_off_c, 0, 71, 0
2, 100896, Note_on_c, 0, 69, 67
2, 100988, Note_off_c, 0, 69, 0
2, 100992, Note_on_c, 0, 67, 67
2, 101084, Note_off_c, 0, 67, 0
2, 101088, Note_on_c, 0, 71, 67
2, 101180, Note_off_c, 0, 71, 0
2, 101184, Note_on_c, 0, 69, 67
2, 101276, Note_off_c, 0, 69, 0
2, 101280, Note_on_c, 0, 67, 67
2, 101372, Note_off_c, 0, 67, 0
2, 101376, Note_on_c, 0, 66, 73
2, 101756, Note_off_c, 0, 66, 0
2, 101760, Note_on_c, 0, 78, 67
2, 102524, Note_off_c, 0, 78, 0
2, 102528, Note_on_c, 0, 81, 67
2, 102576, Note_on_c, 0, 79, 67
2, 102620, Note_off_c, 0, 81, 0
2, 102624, Note_off_c, 0, 79, 0
2, 102624, Note_on_c, 0, 81, 67
2, 102672, Note_off_c, 0, 81, 0
2, 102672, Note_on_c, 0, 79, 67
2, 102720, Note_off_c, 0, 79, 0
2, 102720, Note_on_c, 0, 78, 67
2, 102768, Note_off_c, 0, 78, 0
2, 102768, Note_on_c, 0, 79, 67
2, 102816, Note_off_c, 0, 79, 0
2, 102816, Note_on_c, 0, 78, 67
2, 102908, Note_off_c, 0, 78, 0
2, 102912, Note_on_c, 0, 78, 67
2, 103292, Note_off_c, 0, 78, 0
2, 103296, Note_on_c, 0, 78, 67
2, 104060, Note_off_c, 0, 78, 0
2, 104064, Note_on_c, 0, 79, 67
2, 104112, Note_off_c, 0, 79, 0
2, 104112, Note_on_c, 0, 81, 67
2, 104160, Note_off_c, 0, 81, 0
2, 104160, Note_on_c, 0, 79, 67
2, 104208, Note_off_c, 0, 79, 0
2, 104208, Note_on_c, 0, 81, 67
2, 104256, Note_off_c, 0, 81, 0
2, 104256, Note_on_c, 0, 78, 67
2, 104304, Note_off_c, 0, 78, 0
2, 104304, Note_on_c, 0, 79, 67
2, 104352, Note_off_c, 0, 79, 0
2, 104352, Note_on_c, 0, 81, 67
2, 104444, Note_off_c, 0, 81, 0
2, 104448, Note_on_c, 0, 83, 67
2, 104636, Note_off_c, 0, 83, 0
2, 104640, Note_on_c, 0, 76, 67
2, 104828, Note_off_c, 0, 76, 0
2, 104832, Note_on_c, 0, 81, 67
2, 104924, Note_off_c, 0, 81, 0
2, 104928, Note_on_c, 0, 79, 67
2, 105020, Note_off_c, 0, 79, 0
2, 105024, Note_on_c, 0, 78, 67
2, 105116, Note_off_c, 0, 78, 0
2, 105120, Note_on_c, 0, 76, 67
2, 105212, Note_off_c, 0, 76, 0
2, 105216, Note_on_c, 0, 74, 67
2, 105596, Note_off_c, 0, 74, 0
2, 105600, Note_on_c, 0, 73, 67
2, 105648, Note_off_c, 0, 73, 0
2, 105648, Note_on_c, 0, 74, 67
2, 105696, Note_off_c, 0, 74, 0
2, 105696, Note_on_c, 0, 73, 67
2, 105744, Note_off_c, 0, 73, 0
2, 105744, Note_on_c, 0, 74, 67
2, 105792, Note_off_c, 0, 74, 0
2, 105792, Note_on_c, 0, 73, 67
2, 105840, Note_off_c, 0, 73, 0
2, 105840, Note_on_c, 0, 74, 67
2, 105888, Note_off_c, 0, 74, 0
2, 105888, Note_on_c, 0, 71, 67
2, 105936, Note_off_c, 0, 71, 0
2, 105936, Note_on_c, 0, 73, 67
2, 105984, Note_off_c, 0, 73, 0
2, 105984, Note_on_c, 0, 74, 67
2, 106364, Note_off_c, 0, 74, 0
2, 107712, Note_on_c, 0, 66, 73
2, 107760, Note_off_c, 0, 66, 0
2, 107760, Note_on_c, 0, 69, 72
2, 107904, Note_off_c, 0, 69, 0
2, 107904, Note_on_c, 0, 67, 72
2, 107952, Note_off_c, 0, 67, 0
2, 107952, Note_on_c, 0, 71, 70
2, 108096, Note_off_c, 0, 71, 0
2, 108096, Note_on_c, 0, 69, 70
2, 108144, Note_off_c, 0, 69, 0
2, 108144, Note_on_c, 0, 72, 69
2, 108288, Note_off_c, 0, 72, 0
2, 108288, Note_on_c, 0, 71, 69
2, 108336, Note_off_c, 0, 71, 0
2, 108336, Note_on_c, 0, 74, 67
2, 108480, Note_off_c, 0, 74, 0
2, 108480, Note_on_c, 0, 72, 67
2, 108528, Note_off_c, 0, 72, 0
2, 108528, Note_on_c, 0, 76, 67
2, 108672, Note_off_c, 0, 76, 0
2, 108672, Note_on_c, 0, 74, 67
2, 108720, Note_off_c, 0, 74, 0
2, 108720, Note_on_c, 0, 78, 67
2, 108864, Note_off_c, 0, 78, 0
2, 108864, Note_on_c, 0, 76, 67
2, 108912, Note_off_c, 0, 76, 0
2, 108912, Note_on_c, 0, 79, 67
2, 109056, Note_off_c, 0, 79, 0
2, 109056, Note_on_c, 0, 78, 67
2, 109104, Note_off_c, 0, 78, 0
2, 109104, Note_on_c, 0, 81, 67
2, 109824, Note_on_c, 0, 82, 67
2, 109868, Note_off_c, 0, 81, 0
2, 109872, Note_off_c, 0, 82, 0
2, 109872, Note_on_c, 0, 83, 67
2, 109920, Note_off_c, 0, 83, 0
2, 109920, Note_on_c, 0, 82, 67
2, 109968, Note_off_c, 0, 82, 0
2, 109968, Note_on_c, 0, 83, 67
2, 110016, Note_off_c, 0, 83, 0
2, 110016, Note_on_c, 0, 82, 67
2, 110064, Note_off_c, 0, 82, 0
2, 110064, Note_on_c, 0, 83, 67
2, 110112, Note_off_c, 0, 83, 0
2, 110112, Note_on_c, 0, 82, 67
2, 110160, Note_off_c, 0, 82, 0
2, 110160, Note_on_c, 0, 83, 67
2, 110208, Note_off_c, 0, 83, 0
2, 110208, Note_on_c, 0, 82, 67
2, 110256, Note_off_c, 0, 82, 0
2, 110256, Note_on_c, 0, 83, 67
2, 110304, Note_off_c, 0, 83, 0
2, 110304, Note_on_c, 0, 82, 67
2, 110352, Note_off_c, 0, 82, 0
2, 110352, Note_on_c, 0, 83, 67
2, 110400, Note_off_c, 0, 83, 0
2, 110400, Note_on_c, 0, 80, 67
2, 110492, Note_off_c, 0, 80, 0
2, 110496, Note_on_c, 0, 82, 67
2, 110588, Note_off_c, 0, 82, 0
2, 110592, Note_on_c, 0, 83, 67
2, 110876, Note_off_c, 0, 83, 0
2, 110880, Note_on_c, 0, 85, 67
2, 110976, Note_on_c, 0, 86, 67
2, 111068, Note_off_c, 0, 85, 0
2, 111260, Note_off_c, 0, 86, 0
2, 111264, Note_on_c, 0, 86, 67
2, 111356, Note_off_c, 0, 86, 0
2, 111360, Note_on_c, 0, 86, 67
2, 111740, Note_off_c, 0, 86, 0
2, 111744, Note_on_c, 0, 86, 67
2, 112124, Note_off_c, 0, 86, 0
2, 112128, Note_on_c, 0, 86, 67
2, 112892, Note_off_c, 0, 86, 0
2, 112896, Note_on_c, 0, 79, 67
2, 113276, Note_off_c, 0, 79, 0
2, 113664, Note_on_c, 0, 79, 67
2, 113948, Note_off_c, 0, 79, 0
2, 113952, Note_on_c, 0, 81, 67
2, 114044, Note_off_c, 0, 81, 0
2, 114048, Note_on_c, 0, 83, 67
2, 114332, Note_off_c, 0, 83, 0
2, 114336, Note_on_c, 0, 83, 67
2, 114428, Note_off_c, 0, 83, 0
2, 114432, Note_on_c, 0, 83, 67
2, 114812, Note_off_c, 0, 83, 0
2, 114816, Note_on_c, 0, 83, 67
2, 115196, Note_off_c, 0, 83, 0
2, 115200, Note_on_c, 0, 83, 67
2, 115964, Note_off_c, 0, 83, 0
2, 115968, Note_on_c, 0, 76, 67
2, 116348, Note_off_c, 0, 76, 0
2, 116736, Note_on_c, 0, 81, 67
2, 116780, Note_off_c, 0, 81, 0
2, 116784, Note_on_c, 0, 79, 67
2, 117120, Note_on_c, 0, 78, 67
2, 117164, Note_off_c, 0, 79, 0
2, 117308, Note_off_c, 0, 78, 0
2, 117312, Note_on_c, 0, 76, 67
2, 117500, Note_off_c, 0, 76, 0
2, 117504, Note_on_c, 0, 76, 67
2, 117884, Note_off_c, 0, 76, 0
2, 117888, Note_on_c, 0, 76, 67
2, 118268, Note_off_c, 0, 76, 0
2, 118272, Note_on_c, 0, 76, 67
2, 118460, Note_off_c, 0, 76, 0
2, 118464, Note_on_c, 0, 78, 67
2, 118652, Note_off_c, 0, 78, 0
2, 118656, Note_on_c, 0, 79, 67
2, 118844, Note_off_c, 0, 79, 0
2, 118848, Note_on_c, 0, 80, 67
2, 119036, Note_off_c, 0, 80, 0
2, 119040, Note_on_c, 0, 81, 67
2, 119228, Note_off_c, 0, 81, 0
2, 119232, Note_on_c, 0, 83, 67
2, 119420, Note_off_c, 0, 83, 0
2, 119424, Note_on_c, 0, 85, 67
2, 119612, Note_off_c, 0, 85, 0
2, 119616, Note_on_c, 0, 86, 67
2, 119804, Note_off_c, 0, 86, 0
2, 124992, Note_on_c, 0, 81, 67
2, 125180, Note_off_c, 0, 81, 0
2, 125184, Note_on_c, 0, 79, 67
2, 125564, Note_off_c, 0, 79, 0
2, 125568, Note_on_c, 0, 78, 67
2, 125948, Note_off_c, 0, 78, 0
2, 125952, Note_on_c, 0, 76, 67
2, 126332, Note_off_c, 0, 76, 0
2, 126528, Note_on_c, 0, 71, 67
2, 126716, Note_off_c, 0, 71, 0
2, 126720, Note_on_c, 0, 74, 67
2, 127100, Note_off_c, 0, 74, 0
2, 127104, Note_on_c, 0, 76, 67
2, 127152, Note_off_c, 0, 76, 0
2, 127152, Note_on_c, 0, 78, 67
2, 127200, Note_off_c, 0, 78, 0
2, 127200, Note_on_c, 0, 76, 67
2, 127248, Note_off_c, 0, 76, 0
2, 127248, Note_on_c, 0, 78, 67
2, 127296, Note_off_c, 0, 78, 0
2, 127296, Note_on_c, 0, 76, 67
2, 127344, Note_off_c, 0, 76, 0
2, 127344, Note_on_c, 0, 78, 67
2, 127392, Note_off_c, 0, 78, 0
2, 127392, Note_on_c, 0, 74, 67
2, 127440, Note_off_c, 0, 74, 0
2, 127440, Note_on_c, 0, 76, 67
2, 127488, Note_off_c, 0, 76, 0
2, 127488, Note_on_c, 0, 78, 67
2, 127868, Note_off_c, 0, 78, 0
2, 128064, Note_on_c, 0, 81, 67
2, 128252, Note_off_c, 0, 81, 0
2, 128256, Note_on_c, 0, 79, 67
2, 128348, Note_off_c, 0, 79, 0
2, 128352, Note_on_c, 0, 81, 67
2, 128444, Note_off_c, 0, 81, 0
2, 128448, Note_on_c, 0, 83, 67
2, 128540, Note_off_c, 0, 83, 0
2, 128544, Note_on_c, 0, 79, 67
2, 128636, Note_off_c, 0, 79, 0
2, 128640, Note_on_c, 0, 78, 67
2, 128732, Note_off_c, 0, 78, 0
2, 128736, Note_on_c, 0, 79, 67
2, 128828, Note_off_c, 0, 79, 0
2, 128832, Note_on_c, 0, 81, 67
2, 128924, Note_off_c, 0, 81, 0
2, 128928, Note_on_c, 0, 78, 67
2, 129020, Note_off_c, 0, 78, 0
2, 129024, Note_on_c, 0, 76, 67
2, 129116, Note_off_c, 0, 76, 0
2, 129120, Note_on_c, 0, 78, 67
2, 129212, Note_off_c, 0, 78, 0
2, 129216, Note_on_c, 0, 79, 67
2, 129308, Note_off_c, 0, 79, 0
2, 129312, Note_on_c, 0, 81, 67
2, 129404, Note_off_c, 0, 81, 0
2, 129408, Note_on_c, 0, 83, 67
2, 129500, Note_off_c, 0, 83, 0
2, 129504, Note_on_c, 0, 85, 67
2, 129596, Note_off_c, 0, 85, 0
2, 129600, Note_on_c, 0, 86, 67
2, 129692, Note_off_c, 0, 86, 0
2, 129696, Note_on_c, 0, 85, 67
2, 129788, Note_off_c, 0, 85, 0
2, 129792, Note_on_c, 0, 86, 67
2, 129884, Note_off_c, 0, 86, 0
2, 129888, Note_on_c, 0, 85, 67
2, 129980, Note_off_c, 0, 85, 0
2, 129984, Note_on_c, 0, 83, 67
2, 130076, Note_off_c, 0, 83, 0
2, 130080, Note_on_c, 0, 81, 67
2, 130172, Note_off_c, 0, 81, 0
2, 130176, Note_on_c, 0, 79, 67
2, 130268, Note_off_c, 0, 79, 0
2, 130272, Note_on_c, 0, 78, 67
2, 130364, Note_off_c, 0, 78, 0
2, 130368, Note_on_c, 0, 76, 67
2, 130460, Note_off_c, 0, 76, 0
2, 130464, Note_on_c, 0, 74, 67
2, 130556, Note_off_c, 0, 74, 0
2, 130560, Note_on_c, 0, 76, 67
2, 130652, Note_off_c, 0, 76, 0
2, 130656, Note_on_c, 0, 78, 67
2, 130748, Note_off_c, 0, 78, 0
2, 130752, Note_on_c, 0, 79, 67
2, 130844, Note_off_c, 0, 79, 0
2, 130848, Note_on_c, 0, 81, 67
2, 130940, Note_off_c, 0, 81, 0
2, 130944, Note_on_c, 0, 83, 67
2, 131036, Note_off_c, 0, 83, 0
2, 131040, Note_on_c, 0, 85, 67
2, 131132, Note_off_c, 0, 85, 0
2, 131136, Note_on_c, 0, 86, 67
2, 131228, Note_off_c, 0, 86, 0
2, 131232, Note_on_c, 0, 85, 67
2, 131324, Note_off_c, 0, 85, 0
2, 131328, Note_on_c, 0, 86, 67
2, 131420, Note_off_c, 0, 86, 0
2, 131424, Note_on_c, 0, 85, 67
2, 131516, Note_off_c, 0, 85, 0
2, 131520, Note_on_c, 0, 83, 67
2, 131612, Note_off_c, 0, 83, 0
2, 131616, Note_on_c, 0, 81, 67
2, 131708, Note_off_c, 0, 81, 0
2, 131712, Note_on_c, 0, 79, 67
2, 131804, Note_off_c, 0, 79, 0
2, 131808, Note_on_c, 0, 78, 67
2, 131900, Note_off_c, 0, 78, 0
2, 131904, Note_on_c, 0, 76, 67
2, 131996, Note_off_c, 0, 76, 0
2, 132000, Note_on_c, 0, 74, 67
2, 132092, Note_off_c, 0, 74, 0
2, 132096, Note_on_c, 0, 83, 67
2, 132284, Note_off_c, 0, 83, 0
2, 132480, Note_on_c, 0, 67, 72
2, 132668, Note_off_c, 0, 67, 0
2, 132672, Note_on_c, 0, 83, 67
2, 132860, Note_off_c, 0, 83, 0
2, 132864, Note_on_c, 0, 69, 72
2, 133052, Note_off_c, 0, 69, 0
2, 133056, Note_on_c, 0, 85, 67
2, 133244, Note_off_c, 0, 85, 0
2, 133248, Note_on_c, 0, 71, 70
2, 133436, Note_off_c, 0, 71, 0
2, 133440, Note_on_c, 0, 86, 67
2, 133628, Note_off_c, 0, 86, 0
2, 133632, Note_on_c, 0, 69, 72
2, 134396, Note_off_c, 0, 69, 0
2, 134400, Note_on_c, 0, 76, 67
2, 134448, Note_off_c, 0, 76, 0
2, 134448, Note_on_c, 0, 78, 67
2, 134496, Note_off_c, 0, 78, 0
2, 134496, Note_on_c, 0, 76, 67
2, 134544, Note_off_c, 0, 76, 0
2, 134544, Note_on_c, 0, 78, 67
2, 134592, Note_off_c, 0, 78, 0
2, 134592, Note_on_c, 0, 76, 67
2, 134640, Note_off_c, 0, 76, 0
2, 134640, Note_on_c, 0, 78, 67
2, 134688, Note_off_c, 0, 78, 0
2, 134688, Note_on_c, 0, 76, 67
2, 134736, Note_off_c, 0, 76, 0
2, 134736, Note_on_c, 0, 78, 67
2, 134784, Note_off_c, 0, 78, 0
2, 134784, Note_on_c, 0, 76, 67
2, 134832, Note_off_c, 0, 76, 0
2, 134832, Note_on_c, 0, 78, 67
2, 134880, Note_off_c, 0, 78, 0
2, 134880, Note_on_c, 0, 76, 67
2, 134928, Note_off_c, 0, 76, 0
2, 134928, Note_on_c, 0, 78, 67
2, 134976, Note_off_c, 0, 78, 0
2, 134976, Note_on_c, 0, 76, 67
2, 135024, Note_off_c, 0, 76, 0
2, 135024, Note_on_c, 0, 78, 67
2, 135072, Note_off_c, 0, 78, 0
2, 135072, Note_on_c, 0, 74, 67
2, 135120, Note_off_c, 0, 74, 0
2, 135120, Note_on_c, 0, 76, 67
2, 135168, Note_off_c, 0, 76, 0
2, 135168, Note_on_c, 0, 74, 67
2, 135356, Note_off_c, 0, 74, 0
2, 135552, Note_on_c, 0, 67, 72
2, 135644, Note_off_c, 0, 67, 0
2, 135648, Note_on_c, 0, 83, 67
2, 135728, Note_off_c, 0, 83, 0
2, 135744, Note_on_c, 0, 83, 67
2, 135824, Note_off_c, 0, 83, 0
2, 135840, Note_on_c, 0, 83, 67
2, 135920, Note_off_c, 0, 83, 0
2, 135936, Note_on_c, 0, 69, 72
2, 136028, Note_off_c, 0, 69, 0
2, 136032, Note_on_c, 0, 85, 67
2, 136112, Note_off_c, 0, 85, 0
2, 136128, Note_on_c, 0, 85, 67
2, 136208, Note_off_c, 0, 85, 0
2, 136224, Note_on_c, 0, 85, 67
2, 136304, Note_off_c, 0, 85, 0
2, 136320, Note_on_c, 0, 71, 72
2, 136412, Note_off_c, 0, 71, 0
2, 136416, Note_on_c, 0, 86, 67
2, 136496, Note_off_c, 0, 86, 0
2, 136512, Note_on_c, 0, 86, 67
2, 136592, Note_off_c, 0, 86, 0
2, 136608, Note_on_c, 0, 86, 67
2, 136688, Note_off_c, 0, 86, 0
2, 136704, Note_on_c, 0, 69, 72
2, 136892, Note_off_c, 0, 69, 0
2, 136896, Note_on_c, 0, 71, 67
2, 136988, Note_off_c, 0, 71, 0
2, 136992, Note_on_c, 0, 73, 67
2, 137084, Note_off_c, 0, 73, 0
2, 137088, Note_on_c, 0, 74, 67
2, 137180, Note_off_c, 0, 74, 0
2, 137184, Note_on_c, 0, 76, 67
2, 137276, Note_off_c, 0, 76, 0
2, 137280, Note_on_c, 0, 78, 67
2, 137372, Note_off_c, 0, 78, 0
2, 137376, Note_on_c, 0, 79, 67
2, 137468, Note_off_c, 0, 79, 0
2, 137472, Note_on_c, 0, 81, 67
2, 137564, Note_off_c, 0, 81, 0
2, 137568, Note_on_c, 0, 83, 67
2, 137660, Note_off_c, 0, 83, 0
2, 137664, Note_on_c, 0, 85, 67
2, 137756, Note_off_c, 0, 85, 0
2, 137760, Note_on_c, 0, 86, 67
2, 137852, Note_off_c, 0, 86, 0
2, 137856, Note_on_c, 0, 85, 67
2, 137948, Note_off_c, 0, 85, 0
2, 137952, Note_on_c, 0, 86, 67
2, 138044, Note_off_c, 0, 86, 0
2, 138048, Note_on_c, 0, 85, 67
2, 138140, Note_off_c, 0, 85, 0
2, 138144, Note_on_c, 0, 86, 67
2, 138236, Note_off_c, 0, 86, 0
2, 138240, Note_on_c, 0, 88, 67
2, 138288, Note_off_c, 0, 88, 0
2, 138288, Note_on_c, 0, 90, 67
2, 138336, Note_off_c, 0, 90, 0
2, 138336, Note_on_c, 0, 88, 67
2, 138384, Note_off_c, 0, 88, 0
2, 138384, Note_on_c, 0, 90, 67
2, 138432, Note_off_c, 0, 90, 0
2, 138432, Note_on_c, 0, 88, 67
2, 138480, Note_off_c, 0, 88, 0
2, 138480, Note_on_c, 0, 90, 67
2, 138528, Note_off_c, 0, 90, 0
2, 138528, Note_on_c, 0, 88, 67
2, 138576, Note_off_c, 0, 88, 0
2, 138576, Note_on_c, 0, 90, 67
2, 138624, Note_off_c, 0, 90, 0
2, 138624, Note_on_c, 0, 88, 67
2, 138672, Note_off_c, 0, 88, 0
2, 138672, Note_on_c, 0, 90, 67
2, 138720, Note_off_c, 0, 90, 0
2, 138720, Note_on_c, 0, 88, 67
2, 138768, Note_off_c, 0, 88, 0
2, 138768, Note_on_c, 0, 90, 67
2, 138816, Note_off_c, 0, 90, 0
2, 138816, Note_on_c, 0, 88, 67
2, 138864, Note_off_c, 0, 88, 0
2, 138864, Note_on_c, 0, 90, 67
2, 138912, Note_off_c, 0, 90, 0
2, 138912, Note_on_c, 0, 88, 67
2, 138960, Note_off_c, 0, 88, 0
2, 138960, Note_on_c, 0, 90, 67
2, 139008, Note_off_c, 0, 90, 0
2, 139008, Note_on_c, 0, 88, 67
2, 139056, Note_off_c, 0, 88, 0
2, 139056, Note_on_c, 0, 90, 67
2, 139104, Note_off_c, 0, 90, 0
2, 139104, Note_on_c, 0, 88, 67
2, 139152, Note_off_c, 0, 88, 0
2, 139152, Note_on_c, 0, 90, 67
2, 139200, Note_off_c, 0, 90, 0
2, 139200, Note_on_c, 0, 88, 67
2, 139248, Note_off_c, 0, 88, 0
2, 139248, Note_on_c, 0, 90, 67
2, 139296, Note_off_c, 0, 90, 0
2, 139296, Note_on_c, 0, 88, 67
2, 139344, Note_off_c, 0, 88, 0
2, 139344, Note_on_c, 0, 90, 67
2, 139392, Note_off_c, 0, 90, 0
2, 139392, Note_on_c, 0, 88, 67
2, 139440, Note_off_c, 0, 88, 0
2, 139440, Note_on_c, 0, 90, 67
2, 139488, Note_off_c, 0, 90, 0
2, 139488, Note_on_c, 0, 88, 67
2, 139536, Note_off_c, 0, 88, 0
2, 139536, Note_on_c, 0, 90, 67
2, 139584, Note_off_c, 0, 90, 0
2, 139584, Note_on_c, 0, 88, 67
2, 139632, Note_off_c, 0, 88, 0
2, 139632, Note_on_c, 0, 90, 67
2, 139680, Note_off_c, 0, 90, 0
2, 139680, Note_on_c, 0, 86, 67
2, 139728, Note_off_c, 0, 86, 0
2, 139728, Note_on_c, 0, 88, 67
2, 139776, Note_off_c, 0, 88, 0
2, 139776, Note_on_c, 0, 86, 67
2, 140156, Note_off_c, 0, 86, 0
2, 158208, Note_on_c, 0, 74, 67
2, 158300, Note_off_c, 0, 74, 0
2, 158304, Note_on_c, 0, 78, 67
2, 158396, Note_off_c, 0, 78, 0
2, 158400, Note_on_c, 0, 74, 67
2, 158492, Note_off_c, 0, 74, 0
2, 158496, Note_on_c, 0, 69, 67
2, 158588, Note_off_c, 0, 69, 0
2, 158592, Note_on_c, 0, 81, 67
2, 158684, Note_off_c, 0, 81, 0
2, 158688, Note_on_c, 0, 79, 67
2, 158780, Note_off_c, 0, 79, 0
2, 158784, Note_on_c, 0, 76, 67
2, 158876, Note_off_c, 0, 76, 0
2, 158880, Note_on_c, 0, 73, 67
2, 158972, Note_off_c, 0, 73, 0
2, 158976, Note_on_c, 0, 74, 67
2, 159068, Note_off_c, 0, 74, 0
2, 159072, Note_on_c, 0, 78, 67
2, 159164, Note_off_c, 0, 78, 0
2, 159168, Note_on_c, 0, 74, 67
2, 159260, Note_off_c, 0, 74, 0
2, 159264, Note_on_c, 0, 69, 67
2, 159356, Note_off_c, 0, 69, 0
2, 159360, Note_on_c, 0, 81, 67
2, 159452, Note_off_c, 0, 81, 0
2, 159456, Note_on_c, 0, 79, 67
2, 159548, Note_off_c, 0, 79, 0
2, 159552, Note_on_c, 0, 76, 67
2, 159644, Note_off_c, 0, 76, 0
2, 159648, Note_on_c, 0, 73, 67
2, 159740, Note_off_c, 0, 73, 0
2, 159744, Note_on_c, 0, 74, 67
2, 159836, Note_off_c, 0, 74, 0
2, 159840, Note_on_c, 0, 76, 67
2, 159932, Note_off_c, 0, 76, 0
2, 159936, Note_on_c, 0, 78, 67
2, 160028, Note_off_c, 0, 78, 0
2, 160032, Note_on_c, 0, 79, 67
2, 160124, Note_off_c, 0, 79, 0
2, 160128, Note_on_c, 0, 81, 67
2, 160220, Note_off_c, 0, 81, 0
2, 160224, Note_on_c, 0, 83, 67
2, 160316, Note_off_c, 0, 83, 0
2, 160320, Note_on_c, 0, 85, 67
2, 160412, Note_off_c, 0, 85, 0
2, 160416, Note_on_c, 0, 86, 67
2, 160508, Note_off_c, 0, 86, 0
2, 160512, Note_on_c, 0, 69, 67
2, 160604, Note_off_c, 0, 69, 0
2, 160608, Note_on_c, 0, 71, 67
2, 160700, Note_off_c, 0, 71, 0
2, 160704, Note_on_c, 0, 73, 67
2, 160796, Note_off_c, 0, 73, 0
2, 160800, Note_on_c, 0, 74, 67
2, 160892, Note_off_c, 0, 74, 0
2, 160896, Note_on_c, 0, 76, 67
2, 160988, Note_off_c, 0, 76, 0
2, 160992, Note_on_c, 0, 78, 67
2, 161084, Note_off_c, 0, 78, 0
2, 161088, Note_on_c, 0, 79, 67
2, 161180, Note_off_c, 0, 79, 0
2, 161184, Note_on_c, 0, 81, 67
2, 161276, Note_off_c, 0, 81, 0
2, 161280, Note_on_c, 0, 79, 67
2, 161372, Note_off_c, 0, 79, 0
2, 161376, Note_on_c, 0, 78, 67
2, 161468, Note_off_c, 0, 78, 0
2, 161472, Note_on_c, 0, 76, 67
2, 161564, Note_off_c, 0, 76, 0
2, 161568, Note_on_c, 0, 74, 67
2, 161660, Note_off_c, 0, 74, 0
2, 161664, Note_on_c, 0, 74, 67
2, 162044, Note_off_c, 0, 74, 0
2, 164352, Note_on_c, 0, 62, 76
2, 165884, Note_off_c, 0, 62, 0
2, 165888, Note_on_c, 0, 89, 63
2, 167420, Note_off_c, 0, 89, 0
2, 167424, Note_on_c, 0, 65, 73
2, 167804, Note_off_c, 0, 65, 0
2, 167808, Note_on_c, 0, 64, 73
2, 168188, Note_off_c, 0, 64, 0
2, 168192, Note_on_c, 0, 86, 64
2, 168956, Note_off_c, 0, 86, 0
2, 168960, Note_on_c, 0, 86, 67
2, 169052, Note_off_c, 0, 86, 0
2, 169056, Note_on_c, 0, 88, 67
2, 169148, Note_off_c, 0, 88, 0
2, 169152, Note_on_c, 0, 86, 67
2, 169244, Note_off_c, 0, 86, 0
2, 169248, Note_on_c, 0, 84, 67
2, 169340, Note_off_c, 0, 84, 0
2, 169344, Note_on_c, 0, 84, 67
2, 169436, Note_off_c, 0, 84, 0
2, 169440, Note_on_c, 0, 84, 67
2, 169532, Note_off_c, 0, 84, 0
2, 169536, Note_on_c, 0, 84, 67
2, 169628, Note_off_c, 0, 84, 0
2, 169632, Note_on_c, 0, 81, 67
2, 169724, Note_off_c, 0, 81, 0
2, 169728, Note_on_c, 0, 79, 67
2, 169820, Note_off_c, 0, 79, 0
2, 169824, Note_on_c, 0, 81, 67
2, 169916, Note_off_c, 0, 81, 0
2, 169920, Note_on_c, 0, 79, 67
2, 170012, Note_off_c, 0, 79, 0
2, 170016, Note_on_c, 0, 77, 67
2, 170108, Note_off_c, 0, 77, 0
2, 170112, Note_on_c, 0, 76, 67
2, 170204, Note_off_c, 0, 76, 0
2, 170208, Note_on_c, 0, 77, 67
2, 170300, Note_off_c, 0, 77, 0
2, 170304, Note_on_c, 0, 76, 67
2, 170396, Note_off_c, 0, 76, 0
2, 170400, Note_on_c, 0, 74, 67
2, 170492, Note_off_c, 0, 74, 0
2, 170496, Note_on_c, 0, 72, 67
2, 170876, Note_off_c, 0, 72, 0
2, 175104, Note_on_c, 0, 81, 67
2, 175196, Note_off_c, 0, 81, 0
2, 175200, Note_on_c, 0, 84, 67
2, 175292, Note_off_c, 0, 84, 0
2, 175296, Note_on_c, 0, 81, 67
2, 175388, Note_off_c, 0, 81, 0
2, 175392, Note_on_c, 0, 76, 67
2, 175484, Note_off_c, 0, 76, 0
2, 175488, Note_on_c, 0, 88, 67
2, 175580, Note_off_c, 0, 88, 0
2, 175584, Note_on_c, 0, 86, 67
2, 175676, Note_off_c, 0, 86, 0
2, 175680, Note_on_c, 0, 83, 67
2, 175772, Note_off_c, 0, 83, 0
2, 175776, Note_on_c, 0, 80, 67
2, 175868, Note_off_c, 0, 80, 0
2, 175872, Note_on_c, 0, 81, 67
2, 175964, Note_off_c, 0, 81, 0
2, 175968, Note_on_c, 0, 84, 67
2, 176060, Note_off_c, 0, 84, 0
2, 176064, Note_on_c, 0, 81, 67
2, 176156, Note_off_c, 0, 81, 0
2, 176160, Note_on_c, 0, 76, 67
2, 176252, Note_off_c, 0, 76, 0
2, 176256, Note_on_c, 0, 88, 67
2, 176348, Note_off_c, 0, 88, 0
2, 176352, Note_on_c, 0, 86, 67
2, 176444, Note_off_c, 0, 86, 0
2, 176448, Note_on_c, 0, 83, 67
2, 176540, Note_off_c, 0, 83, 0
2, 176544, Note_on_c, 0, 80, 67
2, 176636, Note_off_c, 0, 80, 0
2, 176640, Note_on_c, 0, 81, 67
2, 176732, Note_off_c, 0, 81, 0
2, 176736, Note_on_c, 0, 83, 67
2, 176828, Note_off_c, 0, 83, 0
2, 176832, Note_on_c, 0, 84, 67
2, 176924, Note_off_c, 0, 84, 0
2, 176928, Note_on_c, 0, 86, 67
2, 177020, Note_off_c, 0, 86, 0
2, 177024, Note_on_c, 0, 88, 67
2, 177116, Note_off_c, 0, 88, 0
2, 177120, Note_on_c, 0, 84, 67
2, 177212, Note_off_c, 0, 84, 0
2, 177216, Note_on_c, 0, 83, 67
2, 177308, Note_off_c, 0, 83, 0
2, 177312, Note_on_c, 0, 81, 67
2, 177404, Note_off_c, 0, 81, 0
2, 177408, Note_on_c, 0, 76, 67
2, 177500, Note_off_c, 0, 76, 0
2, 177504, Note_on_c, 0, 78, 67
2, 177596, Note_off_c, 0, 78, 0
2, 177600, Note_on_c, 0, 80, 67
2, 177692, Note_off_c, 0, 80, 0
2, 177696, Note_on_c, 0, 81, 67
2, 177788, Note_off_c, 0, 81, 0
2, 177792, Note_on_c, 0, 83, 67
2, 177884, Note_off_c, 0, 83, 0
2, 177888, Note_on_c, 0, 84, 67
2, 177980, Note_off_c, 0, 84, 0
2, 177984, Note_on_c, 0, 86, 67
2, 178076, Note_off_c, 0, 86, 0
2, 178080, Note_on_c, 0, 83, 67
2, 178172, Note_off_c, 0, 83, 0
2, 178176, Note_on_c, 0, 86, 67
2, 178268, Note_off_c, 0, 86, 0
2, 178272, Note_on_c, 0, 84, 67
2, 178364, Note_off_c, 0, 84, 0
2, 178368, Note_on_c, 0, 83, 67
2, 178460, Note_off_c, 0, 83, 0
2, 178464, Note_on_c, 0, 81, 67
2, 178556, Note_off_c, 0, 81, 0
2, 178560, Note_on_c, 0, 81, 67
2, 178940, Note_off_c, 0, 81, 0
2, 181248, Note_on_c, 0, 69, 73
2, 182780, Note_off_c, 0, 69, 0
2, 182784, Note_on_c, 0, 84, 66
2, 184316, Note_off_c, 0, 84, 0
2, 184320, Note_on_c, 0, 63, 75
2, 184700, Note_off_c, 0, 63, 0
2, 184704, Note_on_c, 0, 64, 73
2, 185084, Note_off_c, 0, 64, 0
2, 185088, Note_on_c, 0, 81, 67
2, 185852, Note_off_c, 0, 81, 0
2, 185856, Note_on_c, 0, 81, 67
2, 185948, Note_off_c, 0, 81, 0
2, 185952, Note_on_c, 0, 83, 67
2, 186044, Note_off_c, 0, 83, 0
2, 186048, Note_on_c, 0, 81, 67
2, 186140, Note_off_c, 0, 81, 0
2, 186144, Note_on_c, 0, 79, 67
2, 186236, Note_off_c, 0, 79, 0
2, 186240, Note_on_c, 0, 78, 67
2, 186332, Note_off_c, 0, 78, 0
2, 186336, Note_on_c, 0, 79, 67
2, 186428, Note_off_c, 0, 79, 0
2, 186432, Note_on_c, 0, 78, 67
2, 186524, Note_off_c, 0, 78, 0
2, 186528, Note_on_c, 0, 76, 67
2, 186620, Note_off_c, 0, 76, 0
2, 186624, Note_on_c, 0, 74, 67
2, 186716, Note_off_c, 0, 74, 0
2, 186720, Note_on_c, 0, 76, 67
2, 186812, Note_off_c, 0, 76, 0
2, 186816, Note_on_c, 0, 74, 67
2, 186908, Note_off_c, 0, 74, 0
2, 186912, Note_on_c, 0, 72, 67
2, 187004, Note_off_c, 0, 72, 0
2, 187008, Note_on_c, 0, 71, 67
2, 187100, Note_off_c, 0, 71, 0
2, 187104, Note_on_c, 0, 72, 67
2, 187196, Note_off_c, 0, 72, 0
2, 187200, Note_on_c, 0, 71, 67
2, 187292, Note_off_c, 0, 71, 0
2, 187296, Note_on_c, 0, 69, 67
2, 187388, Note_off_c, 0, 69, 0
2, 187392, Note_on_c, 0, 67, 72
2, 187580, Note_off_c, 0, 67, 0
2, 187584, Note_on_c, 0, 83, 67
2, 187772, Note_off_c, 0, 83, 0
2, 187776, Note_on_c, 0, 83, 67
2, 188348, Note_off_c, 0, 83, 0
2, 188352, Note_on_c, 0, 82, 67
2, 188444, Note_off_c, 0, 82, 0
2, 188448, Note_on_c, 0, 83, 67
2, 188540, Note_off_c, 0, 83, 0
2, 188544, Note_on_c, 0, 84, 67
2, 188636, Note_off_c, 0, 84, 0
2, 188640, Note_on_c, 0, 84, 67
2, 188732, Note_off_c, 0, 84, 0
2, 188736, Note_on_c, 0, 81, 67
2, 188828, Note_off_c, 0, 81, 0
2, 188832, Note_on_c, 0, 79, 67
2, 188924, Note_off_c, 0, 79, 0
2, 188928, Note_on_c, 0, 77, 67
2, 189020, Note_off_c, 0, 77, 0
2, 189024, Note_on_c, 0, 79, 67
2, 189116, Note_off_c, 0, 79, 0
2, 189120, Note_on_c, 0, 77, 67
2, 189212, Note_off_c, 0, 77, 0
2, 189216, Note_on_c, 0, 76, 67
2, 189308, Note_off_c, 0, 76, 0
2, 189312, Note_on_c, 0, 77, 67
2, 189404, Note_off_c, 0, 77, 0
2, 189408, Note_on_c, 0, 79, 67
2, 189500, Note_off_c, 0, 79, 0
2, 189504, Note_on_c, 0, 77, 67
2, 189596, Note_off_c, 0, 77, 0
2, 189600, Note_on_c, 0, 79, 67
2, 189692, Note_off_c, 0, 79, 0
2, 189696, Note_on_c, 0, 81, 67
2, 189788, Note_off_c, 0, 81, 0
2, 189792, Note_on_c, 0, 83, 67
2, 189884, Note_off_c, 0, 83, 0
2, 189888, Note_on_c, 0, 81, 67
2, 189980, Note_off_c, 0, 81, 0
2, 189984, Note_on_c, 0, 79, 67
2, 190076, Note_off_c, 0, 79, 0
2, 190080, Note_on_c, 0, 81, 67
2, 190172, Note_off_c, 0, 81, 0
2, 190176, Note_on_c, 0, 83, 67
2, 190268, Note_off_c, 0, 83, 0
2, 190272, Note_on_c, 0, 81, 67
2, 190364, Note_off_c, 0, 81, 0
2, 190368, Note_on_c, 0, 83, 67
2, 190460, Note_off_c, 0, 83, 0
2, 190464, Note_on_c, 0, 84, 67
2, 190752, Note_on_c, 0, 80, 67
2, 190844, Note_off_c, 0, 80, 0
2, 190848, Note_on_c, 0, 81, 67
2, 191036, Note_off_c, 0, 84, 0
2, 191136, Note_on_c, 0, 76, 67
2, 191228, Note_off_c, 0, 76, 0
2, 191232, Note_on_c, 0, 79, 67
2, 191324, Note_off_c, 0, 79, 0
2, 191328, Note_on_c, 0, 77, 67
2, 191420, Note_off_c, 0, 81, 0
2, 191804, Note_off_c, 0, 77, 0
2, 191808, Note_on_c, 0, 76, 67
2, 191996, Note_off_c, 0, 76, 0
2, 192000, Note_on_c, 0, 76, 67
2, 192048, Note_off_c, 0, 76, 0
2, 192048, Note_on_c, 0, 78, 67
2, 192096, Note_off_c, 0, 78, 0
2, 192096, Note_on_c, 0, 76, 67
2, 192144, Note_off_c, 0, 76, 0
2, 192144, Note_on_c, 0, 78, 67
2, 192192, Note_off_c, 0, 78, 0
2, 192192, Note_on_c, 0, 76, 67
2, 192240, Note_off_c, 0, 76, 0
2, 192240, Note_on_c, 0, 78, 67
2, 192288, Note_off_c, 0, 78, 0
2, 192288, Note_on_c, 0, 75, 67
2, 192336, Note_off_c, 0, 75, 0
2, 192336, Note_on_c, 0, 76, 67
2, 192384, Note_off_c, 0, 76, 0
2, 192384, Note_on_c, 0, 75, 67
2, 192764, Note_off_c, 0, 75, 0
2, 194880, Note_on_c, 0, 83, 67
2, 195068, Note_off_c, 0, 83, 0
2, 195072, Note_on_c, 0, 79, 67
2, 195164, Note_off_c, 0, 79, 0
2, 195168, Note_on_c, 0, 83, 67
2, 195260, Note_off_c, 0, 83, 0
2, 195264, Note_on_c, 0, 76, 67
2, 195356, Note_off_c, 0, 76, 0
2, 195360, Note_on_c, 0, 79, 67
2, 195452, Note_off_c, 0, 79, 0
2, 195456, Note_on_c, 0, 71, 70
2, 195548, Note_off_c, 0, 71, 0
2, 195552, Note_on_c, 0, 76, 67
2, 195644, Note_off_c, 0, 76, 0
2, 195648, Note_on_c, 0, 67, 72
2, 195740, Note_off_c, 0, 67, 0
2, 195744, Note_on_c, 0, 71, 70
2, 195836, Note_off_c, 0, 71, 0
2, 195840, Note_on_c, 0, 64, 67
2, 196220, Note_off_c, 0, 64, 0
2, 196416, Note_on_c, 0, 75, 67
2, 196464, Note_off_c, 0, 75, 0
2, 196464, Note_on_c, 0, 76, 67
2, 196512, Note_off_c, 0, 76, 0
2, 196512, Note_on_c, 0, 72, 67
2, 196560, Note_off_c, 0, 72, 0
2, 196560, Note_on_c, 0, 75, 67
2, 196608, Note_off_c, 0, 75, 0
2, 196608, Note_on_c, 0, 76, 67
2, 196700, Note_off_c, 0, 76, 0
2, 196704, Note_on_c, 0, 71, 67
2, 196796, Note_off_c, 0, 71, 0
2, 196800, Note_on_c, 0, 79, 67
2, 196892, Note_off_c, 0, 79, 0
2, 196896, Note_on_c, 0, 78, 67
2, 196988, Note_off_c, 0, 78, 0
2, 196992, Note_on_c, 0, 79, 67
2, 197084, Note_off_c, 0, 79, 0
2, 197088, Note_on_c, 0, 76, 67
2, 197180, Note_off_c, 0, 76, 0
2, 197184, Note_on_c, 0, 83, 67
2, 197276, Note_off_c, 0, 83, 0
2, 197280, Note_on_c, 0, 82, 67
2, 197372, Note_off_c, 0, 82, 0
2, 197376, Note_on_c, 0, 83, 67
2, 197468, Note_off_c, 0, 83, 0
2, 197472, Note_on_c, 0, 79, 67
2, 197564, Note_off_c, 0, 79, 0
2, 197568, Note_on_c, 0, 88, 67
2, 197660, Note_off_c, 0, 88, 0
2, 197664, Note_on_c, 0, 87, 67
2, 197756, Note_off_c, 0, 87, 0
2, 197760, Note_on_c, 0, 88, 67
2, 197852, Note_off_c, 0, 88, 0
2, 197856, Note_on_c, 0, 83, 67
2, 197948, Note_off_c, 0, 83, 0
2, 197952, Note_on_c, 0, 80, 67
2, 198044, Note_off_c, 0, 80, 0
2, 198048, Note_on_c, 0, 76, 67
2, 198140, Note_off_c, 0, 76, 0
2, 198144, Note_on_c, 0, 84, 67
2, 198236, Note_off_c, 0, 84, 0
2, 198240, Note_on_c, 0, 88, 67
2, 198332, Note_off_c, 0, 88, 0
2, 198336, Note_on_c, 0, 81, 67
2, 198428, Note_off_c, 0, 81, 0
2, 198432, Note_on_c, 0, 84, 67
2, 198524, Note_off_c, 0, 84, 0
2, 198528, Note_on_c, 0, 76, 67
2, 198620, Note_off_c, 0, 76, 0
2, 198624, Note_on_c, 0, 81, 67
2, 198716, Note_off_c, 0, 81, 0
2, 198720, Note_on_c, 0, 72, 67
2, 198812, Note_off_c, 0, 72, 0
2, 198816, Note_on_c, 0, 76, 67
2, 198908, Note_off_c, 0, 76, 0
2, 198912, Note_on_c, 0, 69, 72
2, 199292, Note_off_c, 0, 69, 0
2, 199488, Note_on_c, 0, 80, 67
2, 199536, Note_off_c, 0, 80, 0
2, 199536, Note_on_c, 0, 81, 67
2, 199584, Note_off_c, 0, 81, 0
2, 199584, Note_on_c, 0, 78, 67
2, 199632, Note_off_c, 0, 78, 0
2, 199632, Note_on_c, 0, 80, 67
2, 199680, Note_off_c, 0, 80, 0
2, 199680, Note_on_c, 0, 81, 67
2, 199772, Note_off_c, 0, 81, 0
2, 199776, Note_on_c, 0, 76, 67
2, 199868, Note_off_c, 0, 76, 0
2, 199872, Note_on_c, 0, 84, 67
2, 199964, Note_off_c, 0, 84, 0
2, 199968, Note_on_c, 0, 81, 67
2, 200060, Note_off_c, 0, 81, 0
2, 200064, Note_on_c, 0, 88, 67
2, 200156, Note_off_c, 0, 88, 0
2, 200160, Note_on_c, 0, 84, 67
2, 200252, Note_off_c, 0, 84, 0
2, 200256, Note_on_c, 0, 81, 67
2, 200348, Note_off_c, 0, 81, 0
2, 200352, Note_on_c, 0, 76, 67
2, 200444, Note_off_c, 0, 76, 0
2, 200448, Note_on_c, 0, 84, 67
2, 200540, Note_off_c, 0, 84, 0
2, 200544, Note_on_c, 0, 81, 67
2, 200636, Note_off_c, 0, 81, 0
2, 200640, Note_on_c, 0, 76, 67
2, 200732, Note_off_c, 0, 76, 0
2, 200736, Note_on_c, 0, 72, 67
2, 200828, Note_off_c, 0, 72, 0
2, 200832, Note_on_c, 0, 81, 67
2, 200924, Note_off_c, 0, 81, 0
2, 200928, Note_on_c, 0, 76, 67
2, 201020, Note_off_c, 0, 76, 0
2, 201024, Note_on_c, 0, 73, 67
2, 201116, Note_off_c, 0, 73, 0
2, 201120, Note_on_c, 0, 69, 67
2, 201212, Note_off_c, 0, 69, 0
2, 201216, Note_on_c, 0, 78, 67
2, 201308, Note_off_c, 0, 78, 0
2, 201312, Note_on_c, 0, 81, 67
2, 201404, Note_off_c, 0, 81, 0
2, 201408, Note_on_c, 0, 74, 67
2, 201500, Note_off_c, 0, 74, 0
2, 201504, Note_on_c, 0, 78, 67
2, 201596, Note_off_c, 0, 78, 0
2, 201600, Note_on_c, 0, 69, 72
2, 201692, Note_off_c, 0, 69, 0
2, 201696, Note_on_c, 0, 74, 67
2, 201788, Note_off_c, 0, 74, 0
2, 201792, Note_on_c, 0, 66, 73
2, 201884, Note_off_c, 0, 66, 0
2, 201888, Note_on_c, 0, 69, 72
2, 201980, Note_off_c, 0, 69, 0
2, 201984, Note_on_c, 0, 62, 75
2, 202364, Note_off_c, 0, 62, 0
2, 202560, Note_on_c, 0, 73, 67
2, 202608, Note_off_c, 0, 73, 0
2, 202608, Note_on_c, 0, 74, 67
2, 202656, Note_off_c, 0, 74, 0
2, 202656, Note_on_c, 0, 71, 67
2, 202704, Note_off_c, 0, 71, 0
2, 202704, Note_on_c, 0, 73, 67
2, 202752, Note_off_c, 0, 73, 0
2, 202752, Note_on_c, 0, 74, 67
2, 202844, Note_off_c, 0, 74, 0
2, 202848, Note_on_c, 0, 69, 67
2, 202940, Note_off_c, 0, 69, 0
2, 202944, Note_on_c, 0, 78, 67
2, 203036, Note_off_c, 0, 78, 0
2, 203040, Note_on_c, 0, 76, 67
2, 203132, Note_off_c, 0, 76, 0
2, 203136, Note_on_c, 0, 78, 67
2, 203228, Note_off_c, 0, 78, 0
2, 203232, Note_on_c, 0, 74, 67
2, 203324, Note_off_c, 0, 74, 0
2, 203328, Note_on_c, 0, 81, 67
2, 203420, Note_off_c, 0, 81, 0
2, 203424, Note_on_c, 0, 80, 67
2, 203516, Note_off_c, 0, 80, 0
2, 203520, Note_on_c, 0, 81, 67
2, 203612, Note_off_c, 0, 81, 0
2, 203616, Note_on_c, 0, 78, 67
2, 203708, Note_off_c, 0, 78, 0
2, 203712, Note_on_c, 0, 86, 67
2, 203804, Note_off_c, 0, 86, 0
2, 203808, Note_on_c, 0, 85, 67
2, 203900, Note_off_c, 0, 85, 0
2, 203904, Note_on_c, 0, 86, 67
2, 203996, Note_off_c, 0, 86, 0
2, 204000, Note_on_c, 0, 81, 67
2, 204092, Note_off_c, 0, 81, 0
2, 204096, Note_on_c, 0, 78, 67
2, 204188, Note_off_c, 0, 78, 0
2, 204192, Note_on_c, 0, 74, 67
2, 204284, Note_off_c, 0, 74, 0
2, 204288, Note_on_c, 0, 83, 67
2, 204380, Note_off_c, 0, 83, 0
2, 204384, Note_on_c, 0, 86, 67
2, 204476, Note_off_c, 0, 86, 0
2, 204480, Note_on_c, 0, 79, 67
2, 204572, Note_off_c, 0, 79, 0
2, 204576, Note_on_c, 0, 83, 67
2, 204668, Note_off_c, 0, 83, 0
2, 204672, Note_on_c, 0, 74, 67
2, 204764, Note_off_c, 0, 74, 0
2, 204768, Note_on_c, 0, 79, 67
2, 204860, Note_off_c, 0, 79, 0
2, 204864, Note_on_c, 0, 71, 70
2, 204956, Note_off_c, 0, 71, 0
2, 204960, Note_on_c, 0, 74, 67
2, 205052, Note_off_c, 0, 74, 0
2, 205056, Note_on_c, 0, 71, 70
2, 205436, Note_off_c, 0, 71, 0
2, 205632, Note_on_c, 0, 78, 67
2, 205676, Note_off_c, 0, 78, 0
2, 205680, Note_on_c, 0, 79, 67
2, 205724, Note_off_c, 0, 79, 0
2, 205728, Note_on_c, 0, 76, 67
2, 205772, Note_off_c, 0, 76, 0
2, 205776, Note_on_c, 0, 78, 67
2, 205820, Note_off_c, 0, 78, 0
2, 205824, Note_on_c, 0, 79, 67
2, 205916, Note_off_c, 0, 79, 0
2, 205920, Note_on_c, 0, 74, 67
2, 206012, Note_off_c, 0, 74, 0
2, 206016, Note_on_c, 0, 83, 67
2, 206108, Note_off_c, 0, 83, 0
2, 206112, Note_on_c, 0, 79, 67
2, 206204, Note_off_c, 0, 79, 0
2, 206208, Note_on_c, 0, 86, 67
2, 206300, Note_off_c, 0, 86, 0
2, 206304, Note_on_c, 0, 83, 67
2, 206396, Note_off_c, 0, 83, 0
2, 206400, Note_on_c, 0, 79, 67
2, 206492, Note_off_c, 0, 79, 0
2, 206496, Note_on_c, 0, 74, 67
2, 206588, Note_off_c, 0, 74, 0
2, 206592, Note_on_c, 0, 83, 67
2, 206684, Note_off_c, 0, 83, 0
2, 206688, Note_on_c, 0, 79, 67
2, 206780, Note_off_c, 0, 79, 0
2, 206784, Note_on_c, 0, 74, 67
2, 206876, Note_off_c, 0, 74, 0
2, 206880, Note_on_c, 0, 71, 67
2, 206972, Note_off_c, 0, 71, 0
2, 206976, Note_on_c, 0, 79, 67
2, 207068, Note_off_c, 0, 79, 0
2, 207072, Note_on_c, 0, 74, 67
2, 207164, Note_off_c, 0, 74, 0
2, 207168, Note_on_c, 0, 71, 67
2, 207260, Note_off_c, 0, 71, 0
2, 207264, Note_on_c, 0, 67, 67
2, 207356, Note_off_c, 0, 67, 0
2, 207360, Note_on_c, 0, 76, 67
2, 208124, Note_off_c, 0, 76, 0
2, 208128, Note_on_c, 0, 77, 67
2, 208172, Note_off_c, 0, 77, 0
2, 208176, Note_on_c, 0, 79, 67
2, 208220, Note_off_c, 0, 79, 0
2, 208224, Note_on_c, 0, 77, 67
2, 208268, Note_off_c, 0, 77, 0
2, 208272, Note_on_c, 0, 79, 67
2, 208316, Note_off_c, 0, 79, 0
2, 208320, Note_on_c, 0, 77, 67
2, 208364, Note_off_c, 0, 77, 0
2, 208368, Note_on_c, 0, 79, 67
2, 208412, Note_off_c, 0, 79, 0
2, 208416, Note_on_c, 0, 77, 67
2, 208460, Note_off_c, 0, 77, 0
2, 208464, Note_on_c, 0, 79, 67
2, 208508, Note_off_c, 0, 79, 0
2, 208512, Note_on_c, 0, 77, 67
2, 208556, Note_off_c, 0, 77, 0
2, 208560, Note_on_c, 0, 79, 67
2, 208604, Note_off_c, 0, 79, 0
2, 208608, Note_on_c, 0, 77, 67
2, 208652, Note_off_c, 0, 77, 0
2, 208656, Note_on_c, 0, 79, 67
2, 208700, Note_off_c, 0, 79, 0
2, 208704, Note_on_c, 0, 76, 67
2, 208796, Note_off_c, 0, 76, 0
2, 208800, Note_on_c, 0, 77, 67
2, 208892, Note_off_c, 0, 77, 0
2, 208896, Note_on_c, 0, 76, 67
2, 209084, Note_off_c, 0, 76, 0
2, 209088, Note_on_c, 0, 78, 67
2, 209180, Note_off_c, 0, 78, 0
2, 209184, Note_on_c, 0, 79, 67
2, 209276, Note_off_c, 0, 79, 0
2, 209280, Note_on_c, 0, 81, 67
2, 209372, Note_off_c, 0, 81, 0
2, 209376, Note_on_c, 0, 83, 67
2, 209468, Note_off_c, 0, 83, 0
2, 209472, Note_on_c, 0, 84, 67
2, 209564, Note_off_c, 0, 84, 0
2, 209568, Note_on_c, 0, 86, 67
2, 209660, Note_off_c, 0, 86, 0
2, 209664, Note_on_c, 0, 88, 67
2, 210044, Note_off_c, 0, 88, 0
2, 210432, Note_on_c, 0, 74, 67
2, 211196, Note_off_c, 0, 74, 0
2, 211200, Note_on_c, 0, 75, 67
2, 211244, Note_off_c, 0, 75, 0
2, 211248, Note_on_c, 0, 77, 67
2, 211292, Note_off_c, 0, 77, 0
2, 211296, Note_on_c, 0, 75, 67
2, 211340, Note_off_c, 0, 75, 0
2, 211344, Note_on_c, 0, 77, 67
2, 211388, Note_off_c, 0, 77, 0
2, 211392, Note_on_c, 0, 75, 67
2, 211436, Note_off_c, 0, 75, 0
2, 211440, Note_on_c, 0, 77, 67
2, 211484, Note_off_c, 0, 77, 0
2, 211488, Note_on_c, 0, 75, 67
2, 211532, Note_off_c, 0, 75, 0
2, 211536, Note_on_c, 0, 77, 67
2, 211580, Note_off_c, 0, 77, 0
2, 211584, Note_on_c, 0, 75, 67
2, 211628, Note_off_c, 0, 75, 0
2, 211632, Note_on_c, 0, 77, 67
2, 211676, Note_off_c, 0, 77, 0
2, 211680, Note_on_c, 0, 75, 67
2, 211724, Note_off_c, 0, 75, 0
2, 211728, Note_on_c, 0, 77, 67
2, 211772, Note_off_c, 0, 77, 0
2, 211776, Note_on_c, 0, 74, 67
2, 211868, Note_off_c, 0, 74, 0
2, 211872, Note_on_c, 0, 75, 67
2, 211964, Note_off_c, 0, 75, 0
2, 211968, Note_on_c, 0, 74, 67
2, 212156, Note_off_c, 0, 74, 0
2, 212160, Note_on_c, 0, 76, 67
2, 212252, Note_off_c, 0, 76, 0
2, 212256, Note_on_c, 0, 78, 67
2, 212348, Note_off_c, 0, 78, 0
2, 212352, Note_on_c, 0, 79, 67
2, 212444, Note_off_c, 0, 79, 0
2, 212448, Note_on_c, 0, 81, 67
2, 212540, Note_off_c, 0, 81, 0
2, 212544, Note_on_c, 0, 83, 67
2, 212636, Note_off_c, 0, 83, 0
2, 212640, Note_on_c, 0, 84, 67
2, 212732, Note_off_c, 0, 84, 0
2, 212736, Note_on_c, 0, 86, 67
2, 213116, Note_off_c, 0, 86, 0
2, 213312, Note_on_c, 0, 86, 67
2, 213500, Note_off_c, 0, 86, 0
2, 213504, Note_on_c, 0, 86, 67
2, 213692, Note_off_c, 0, 86, 0
2, 213696, Note_on_c, 0, 85, 67
2, 213884, Note_off_c, 0, 85, 0
2, 213888, Note_on_c, 0, 85, 67
2, 215036, Note_off_c, 0, 85, 0
2, 215040, Note_on_c, 0, 84, 67
2, 215804, Note_off_c, 0, 84, 0
2, 215808, Note_on_c, 0, 83, 67
2, 216572, Note_off_c, 0, 83, 0
2, 216576, Note_on_c, 0, 82, 67
2, 217148, Note_off_c, 0, 82, 0
2, 217152, Note_on_c, 0, 81, 67
2, 217244, Note_off_c, 0, 81, 0
2, 217248, Note_on_c, 0, 82, 67
2, 217340, Note_off_c, 0, 82, 0
2, 217344, Note_on_c, 0, 81, 67
2, 217436, Note_off_c, 0, 81, 0
2, 217440, Note_on_c, 0, 82, 67
2, 217532, Note_off_c, 0, 82, 0
2, 217536, Note_on_c, 0, 81, 67
2, 217628, Note_off_c, 0, 81, 0
2, 217632, Note_on_c, 0, 82, 67
2, 217724, Note_off_c, 0, 82, 0
2, 217728, Note_on_c, 0, 84, 67
2, 217820, Note_off_c, 0, 84, 0
2, 217824, Note_on_c, 0, 82, 67
2, 217916, Note_off_c, 0, 82, 0
2, 217920, Note_on_c, 0, 81, 67
2, 218012, Note_off_c, 0, 81, 0
2, 218016, Note_on_c, 0, 79, 67
2, 218108, Note_off_c, 0, 79, 0
2, 218112, Note_on_c, 0, 78, 67
2, 218492, Note_off_c, 0, 78, 0
2, 219648, Note_on_c, 0, 62, 75
2, 219836, Note_off_c, 0, 62, 0
2, 219840, Note_on_c, 0, 86, 67
2, 220028, Note_off_c, 0, 86, 0
2, 220032, Note_on_c, 0, 66, 73
2, 220220, Note_off_c, 0, 66, 0
2, 220224, Note_on_c, 0, 86, 67
2, 220412, Note_off_c, 0, 86, 0
2, 220416, Note_on_c, 0, 67, 72
2, 220604, Note_off_c, 0, 67, 0
2, 220608, Note_on_c, 0, 86, 67
2, 220796, Note_off_c, 0, 86, 0
2, 220800, Note_on_c, 0, 70, 70
2, 220988, Note_off_c, 0, 70, 0
2, 220992, Note_on_c, 0, 86, 67
2, 221180, Note_off_c, 0, 86, 0
2, 221184, Note_on_c, 0, 74, 69
2, 221564, Note_off_c, 0, 74, 0
2, 222720, Note_on_c, 0, 62, 75
2, 222832, Note_off_c, 0, 62, 0
2, 222848, Note_on_c, 0, 86, 67
2, 222960, Note_off_c, 0, 86, 0
2, 222976, Note_on_c, 0, 86, 67
2, 223088, Note_off_c, 0, 86, 0
2, 223104, Note_on_c, 0, 66, 73
2, 223216, Note_off_c, 0, 66, 0
2, 223232, Note_on_c, 0, 86, 67
2, 223344, Note_off_c, 0, 86, 0
2, 223360, Note_on_c, 0, 86, 67
2, 223472, Note_off_c, 0, 86, 0
2, 223488, Note_on_c, 0, 67, 72
2, 223600, Note_off_c, 0, 67, 0
2, 223616, Note_on_c, 0, 86, 67
2, 223728, Note_off_c, 0, 86, 0
2, 223744, Note_on_c, 0, 86, 67
2, 223856, Note_off_c, 0, 86, 0
2, 223872, Note_on_c, 0, 70, 70
2, 223984, Note_off_c, 0, 70, 0
2, 224000, Note_on_c, 0, 86, 67
2, 224112, Note_off_c, 0, 86, 0
2, 224128, Note_on_c, 0, 86, 67
2, 224240, Note_off_c, 0, 86, 0
2, 224256, Note_on_c, 0, 74, 69
2, 224636, Note_off_c, 0, 74, 0
2, 225792, Note_on_c, 0, 74, 67
2, 225980, Note_off_c, 0, 74, 0
2, 225984, Note_on_c, 0, 76, 67
2, 226076, Note_off_c, 0, 76, 0
2, 226080, Note_on_c, 0, 78, 67
2, 226172, Note_off_c, 0, 78, 0
2, 226176, Note_on_c, 0, 79, 67
2, 226268, Note_off_c, 0, 79, 0
2, 226272, Note_on_c, 0, 81, 67
2, 226364, Note_off_c, 0, 81, 0
2, 226368, Note_on_c, 0, 83, 67
2, 226460, Note_off_c, 0, 83, 0
2, 226464, Note_on_c, 0, 85, 67
2, 226556, Note_off_c, 0, 85, 0
2, 226560, Note_on_c, 0, 86, 67
2, 226732, Note_off_c, 0, 86, 0
2, 226752, Note_on_c, 0, 86, 67
2, 226924, Note_off_c, 0, 86, 0
2, 226944, Note_on_c, 0, 86, 67
2, 227116, Note_off_c, 0, 86, 0
2, 227136, Note_on_c, 0, 86, 67
2, 227308, Note_off_c, 0, 86, 0
2, 227328, Note_on_c, 0, 85, 67
2, 227420, Note_off_c, 0, 85, 0
2, 227424, Note_on_c, 0, 86, 67
2, 227516, Note_off_c, 0, 86, 0
2, 227520, Note_on_c, 0, 88, 67
2, 227612, Note_off_c, 0, 88, 0
2, 227616, Note_on_c, 0, 86, 67
2, 227708, Note_off_c, 0, 86, 0
2, 227712, Note_on_c, 0, 83, 67
2, 227804, Note_off_c, 0, 83, 0
2, 227808, Note_on_c, 0, 84, 67
2, 227900, Note_off_c, 0, 84, 0
2, 227904, Note_on_c, 0, 86, 67
2, 227996, Note_off_c, 0, 86, 0
2, 228000, Note_on_c, 0, 84, 67
2, 228092, Note_off_c, 0, 84, 0
2, 228096, Note_on_c, 0, 82, 67
2, 228188, Note_off_c, 0, 82, 0
2, 228192, Note_on_c, 0, 83, 67
2, 228284, Note_off_c, 0, 83, 0
2, 228288, Note_on_c, 0, 84, 67
2, 228380, Note_off_c, 0, 84, 0
2, 228384, Note_on_c, 0, 83, 67
2, 228476, Note_off_c, 0, 83, 0
2, 228480, Note_on_c, 0, 80, 67
2, 228572, Note_off_c, 0, 80, 0
2, 228576, Note_on_c, 0, 81, 67
2, 228668, Note_off_c, 0, 81, 0
2, 228672, Note_on_c, 0, 83, 67
2, 228764, Note_off_c, 0, 83, 0
2, 228768, Note_on_c, 0, 81, 67
2, 228860, Note_off_c, 0, 81, 0
2, 228864, Note_on_c, 0, 79, 67
2, 229244, Note_off_c, 0, 79, 0
2, 235008, Note_on_c, 0, 67, 72
2, 235388, Note_off_c, 0, 67, 0
2, 235392, Note_on_c, 0, 62, 75
2, 235676, Note_off_c, 0, 62, 0
2, 235680, Note_on_c, 0, 62, 75
2, 235772, Note_off_c, 0, 62, 0
2, 235776, Note_on_c, 0, 62, 73
2, 235888, Note_off_c, 0, 62, 0
2, 235904, Note_on_c, 0, 67, 70
2, 236016, Note_off_c, 0, 67, 0
2, 236032, Note_on_c, 0, 71, 69
2, 236144, Note_off_c, 0, 71, 0
2, 236160, Note_on_c, 0, 74, 67
2, 236272, Note_off_c, 0, 74, 0
2, 236288, Note_on_c, 0, 79, 67
2, 236400, Note_off_c, 0, 79, 0
2, 236416, Note_on_c, 0, 83, 67
2, 236528, Note_off_c, 0, 83, 0
2, 236544, Note_on_c, 0, 86, 67
2, 236732, Note_off_c, 0, 86, 0
2, 236736, Note_on_c, 0, 85, 67
2, 236924, Note_off_c, 0, 85, 0
2, 236928, Note_on_c, 0, 84, 67
2, 237692, Note_off_c, 0, 84, 0
2, 237696, Note_on_c, 0, 86, 67
2, 237788, Note_off_c, 0, 86, 0
2, 237792, Note_on_c, 0, 84, 67
2, 237884, Note_off_c, 0, 84, 0
2, 237888, Note_on_c, 0, 83, 67
2, 237980, Note_off_c, 0, 83, 0
2, 237984, Note_on_c, 0, 81, 67
2, 238076, Note_off_c, 0, 81, 0
2, 238080, Note_on_c, 0, 79, 67
2, 238844, Note_off_c, 0, 79, 0
2, 238848, Note_on_c, 0, 84, 67
2, 239228, Note_off_c, 0, 84, 0
2, 240768, Note_on_c, 0, 86, 67
2, 240860, Note_off_c, 0, 86, 0
2, 240864, Note_on_c, 0, 84, 67
2, 240956, Note_off_c, 0, 84, 0
2, 240960, Note_on_c, 0, 83, 67
2, 241052, Note_off_c, 0, 83, 0
2, 241056, Note_on_c, 0, 81, 67
2, 241148, Note_off_c, 0, 81, 0
2, 241152, Note_on_c, 0, 79, 67
2, 241244, Note_off_c, 0, 79, 0
2, 241248, Note_on_c, 0, 81, 67
2, 241340, Note_off_c, 0, 81, 0
2, 241344, Note_on_c, 0, 83, 67
2, 241436, Note_off_c, 0, 83, 0
2, 241440, Note_on_c, 0, 79, 67
2, 241532, Note_off_c, 0, 79, 0
2, 241536, Note_on_c, 0, 86, 67
2, 241628, Note_off_c, 0, 86, 0
2, 241632, Note_on_c, 0, 84, 67
2, 241724, Note_off_c, 0, 84, 0
2, 241728, Note_on_c, 0, 83, 67
2, 241820, Note_off_c, 0, 83, 0
2, 241824, Note_on_c, 0, 81, 67
2, 241916, Note_off_c, 0, 81, 0
2, 241920, Note_on_c, 0, 79, 67
2, 242012, Note_off_c, 0, 79, 0
2, 242016, Note_on_c, 0, 81, 67
2, 242108, Note_off_c, 0, 81, 0
2, 242112, Note_on_c, 0, 83, 67
2, 242204, Note_off_c, 0, 83, 0
2, 242208, Note_on_c, 0, 79, 67
2, 242300, Note_off_c, 0, 79, 0
2, 242304, Note_on_c, 0, 86, 67
2, 242396, Note_off_c, 0, 86, 0
2, 242400, Note_on_c, 0, 84, 67
2, 242492, Note_off_c, 0, 84, 0
2, 242496, Note_on_c, 0, 83, 67
2, 242588, Note_off_c, 0, 83, 0
2, 242592, Note_on_c, 0, 81, 67
2, 242684, Note_off_c, 0, 81, 0
2, 242688, Note_on_c, 0, 79, 67
2, 242736, Note_off_c, 0, 79, 0
2, 242736, Note_on_c, 0, 81, 67
2, 242784, Note_off_c, 0, 81, 0
2, 242784, Note_on_c, 0, 79, 67
2, 242832, Note_off_c, 0, 79, 0
2, 242832, Note_on_c, 0, 81, 67
2, 242880, Note_off_c, 0, 81, 0
2, 242880, Note_on_c, 0, 79, 67
2, 242928, Note_off_c, 0, 79, 0
2, 242928, Note_on_c, 0, 81, 67
2, 242976, Note_off_c, 0, 81, 0
2, 242976, Note_on_c, 0, 79, 67
2, 243024, Note_off_c, 0, 79, 0
2, 243024, Note_on_c, 0, 81, 67
2, 243072, Note_off_c, 0, 81, 0
2, 243072, Note_on_c, 0, 79, 67
2, 243120, Note_off_c, 0, 79, 0
2, 243120, Note_on_c, 0, 81, 67
2, 243168, Note_off_c, 0, 81, 0
2, 243168, Note_on_c, 0, 79, 67
2, 243216, Note_off_c, 0, 79, 0
2, 243216, Note_on_c, 0, 81, 67
2, 243264, Note_off_c, 0, 81, 0
2, 243264, Note_on_c, 0, 78, 67
2, 243356, Note_off_c, 0, 78, 0
2, 243360, Note_on_c, 0, 76, 67
2, 243452, Note_off_c, 0, 76, 0
2, 243456, Note_on_c, 0, 74, 67
2, 243644, Note_off_c, 0, 74, 0
2, 243648, Note_on_c, 0, 79, 67
2, 243836, Note_off_c, 0, 79, 0
2, 243840, Note_on_c, 0, 83, 67
2, 244028, Note_off_c, 0, 83, 0
2, 244032, Note_on_c, 0, 86, 67
2, 244220, Note_off_c, 0, 86, 0
2, 244224, Note_on_c, 0, 86, 67
2, 244316, Note_off_c, 0, 86, 0
2, 244320, Note_on_c, 0, 84, 67
2, 244412, Note_off_c, 0, 84, 0
2, 244416, Note_on_c, 0, 88, 67
2, 244508, Note_off_c, 0, 88, 0
2, 244512, Note_on_c, 0, 84, 67
2, 244604, Note_off_c, 0, 84, 0
2, 244608, Note_on_c, 0, 83, 67
2, 244700, Note_off_c, 0, 83, 0
2, 244704, Note_on_c, 0, 81, 67
2, 244796, Note_off_c, 0, 81, 0
2, 244800, Note_on_c, 0, 84, 67
2, 244892, Note_off_c, 0, 84, 0
2, 244896, Note_on_c, 0, 81, 67
2, 244988, Note_off_c, 0, 81, 0
2, 244992, Note_on_c, 0, 79, 67
2, 245084, Note_off_c, 0, 79, 0
2, 245088, Note_on_c, 0, 78, 67
2, 245180, Note_off_c, 0, 78, 0
2, 245184, Note_on_c, 0, 81, 67
2, 245276, Note_off_c, 0, 81, 0
2, 245280, Note_on_c, 0, 79, 67
2, 245372, Note_off_c, 0, 79, 0
2, 245376, Note_on_c, 0, 78, 67
2, 245468, Note_off_c, 0, 78, 0
2, 245472, Note_on_c, 0, 76, 67
2, 245564, Note_off_c, 0, 76, 0
2, 245568, Note_on_c, 0, 74, 67
2, 245660, Note_off_c, 0, 74, 0
2, 245664, Note_on_c, 0, 72, 67
2, 245756, Note_off_c, 0, 72, 0
2, 245760, Note_on_c, 0, 71, 67
2, 245852, Note_off_c, 0, 71, 0
2, 245856, Note_on_c, 0, 67, 67
2, 245948, Note_off_c, 0, 67, 0
2, 245952, Note_on_c, 0, 74, 67
2, 246032, Note_off_c, 0, 74, 0
2, 246048, Note_on_c, 0, 74, 67
2, 246128, Note_off_c, 0, 74, 0
2, 246144, Note_on_c, 0, 74, 67
2, 246224, Note_off_c, 0, 74, 0
2, 246240, Note_on_c, 0, 71, 67
2, 246332, Note_off_c, 0, 71, 0
2, 246336, Note_on_c, 0, 79, 67
2, 246416, Note_off_c, 0, 79, 0
2, 246432, Note_on_c, 0, 79, 67
2, 246512, Note_off_c, 0, 79, 0
2, 246528, Note_on_c, 0, 79, 67
2, 246608, Note_off_c, 0, 79, 0
2, 246624, Note_on_c, 0, 74, 67
2, 246716, Note_off_c, 0, 74, 0
2, 246720, Note_on_c, 0, 83, 67
2, 246800, Note_off_c, 0, 83, 0
2, 246816, Note_on_c, 0, 83, 67
2, 246896, Note_off_c, 0, 83, 0
2, 246912, Note_on_c, 0, 83, 67
2, 246992, Note_off_c, 0, 83, 0
2, 247008, Note_on_c, 0, 79, 67
2, 247100, Note_off_c, 0, 79, 0
2, 247104, Note_on_c, 0, 86, 67
2, 247184, Note_off_c, 0, 86, 0
2, 247200, Note_on_c, 0, 86, 67
2, 247280, Note_off_c, 0, 86, 0
2, 247296, Note_on_c, 0, 62, 75
2, 248060, Note_off_c, 0, 62, 0
2, 248064, Note_on_c, 0, 81, 67
2, 248112, Note_off_c, 0, 81, 0
2, 248112, Note_on_c, 0, 83, 67
2, 248160, Note_off_c, 0, 83, 0
2, 248160, Note_on_c, 0, 81, 67
2, 248208, Note_off_c, 0, 81, 0
2, 248208, Note_on_c, 0, 83, 67
2, 248256, Note_off_c, 0, 83, 0
2, 248256, Note_on_c, 0, 81, 67
2, 248304, Note_off_c, 0, 81, 0
2, 248304, Note_on_c, 0, 83, 67
2, 248352, Note_off_c, 0, 83, 0
2, 248352, Note_on_c, 0, 81, 67
2, 248400, Note_off_c, 0, 81, 0
2, 248400, Note_on_c, 0, 83, 67
2, 248448, Note_off_c, 0, 83, 0
2, 248448, Note_on_c, 0, 81, 67
2, 248496, Note_off_c, 0, 81, 0
2, 248496, Note_on_c, 0, 83, 67
2, 248544, Note_off_c, 0, 83, 0
2, 248544, Note_on_c, 0, 81, 67
2, 248592, Note_off_c, 0, 81, 0
2, 248592, Note_on_c, 0, 83, 67
2, 248640, Note_off_c, 0, 83, 0
2, 248640, Note_on_c, 0, 81, 67
2, 248688, Note_off_c, 0, 81, 0
2, 248688, Note_on_c, 0, 83, 67
2, 248736, Note_off_c, 0, 83, 0
2, 248736, Note_on_c, 0, 79, 67
2, 248784, Note_off_c, 0, 79, 0
2, 248784, Note_on_c, 0, 81, 67
2, 248832, Note_off_c, 0, 81, 0
2, 248832, Note_on_c, 0, 79, 67
2, 249212, Note_off_c, 0, 79, 0
2, 251904, Note_on_c, 0, 79, 67
2, 252092, Note_off_c, 0, 79, 0
2, 252096, Note_on_c, 0, 78, 67
2, 252144, Note_off_c, 0, 78, 0
2, 252144, Note_on_c, 0, 79, 67
2, 252288, Note_off_c, 0, 79, 0
2, 252288, Note_on_c, 0, 78, 67
2, 252336, Note_off_c, 0, 78, 0
2, 252336, Note_on_c, 0, 79, 67
2, 252864, Note_off_c, 0, 79, 0
2, 252864, Note_on_c, 0, 78, 67
2, 252956, Note_off_c, 0, 78, 0
2, 252960, Note_on_c, 0, 79, 67
2, 253052, Note_off_c, 0, 79, 0
2, 253056, Note_on_c, 0, 81, 67
2, 253148, Note_off_c, 0, 81, 0
2, 253152, Note_on_c, 0, 79, 67
2, 253244, Note_off_c, 0, 79, 0
2, 253248, Note_on_c, 0, 81, 67
2, 253340, Note_off_c, 0, 81, 0
2, 253344, Note_on_c, 0, 79, 67
2, 253436, Note_off_c, 0, 79, 0
2, 253440, Note_on_c, 0, 79, 67
2, 253628, Note_off_c, 0, 79, 0
2, 253632, Note_on_c, 0, 89, 67
2, 253820, Note_off_c, 0, 89, 0
2, 253824, Note_on_c, 0, 89, 67
2, 254588, Note_off_c, 0, 89, 0
2, 254592, Note_on_c, 0, 65, 73
2, 254972, Note_off_c, 0, 65, 0
2, 254976, Note_on_c, 0, 64, 75
2, 255156, Note_off_c, 0, 64, 0
2, 255168, Note_on_c, 0, 88, 67
2, 255348, Note_off_c, 0, 88, 0
2, 255360, Note_on_c, 0, 84, 67
2, 255540, Note_off_c, 0, 84, 0
2, 255552, Note_on_c, 0, 81, 67
2, 255732, Note_off_c, 0, 81, 0
2, 255744, Note_on_c, 0, 80, 67
2, 255924, Note_off_c, 0, 80, 0
2, 255936, Note_on_c, 0, 86, 67
2, 256116, Note_off_c, 0, 86, 0
2, 256128, Note_on_c, 0, 83, 67
2, 256308, Note_off_c, 0, 83, 0
2, 256320, Note_on_c, 0, 80, 67
2, 256500, Note_off_c, 0, 80, 0
2, 256512, Note_on_c, 0, 83, 67
2, 256604, Note_off_c, 0, 83, 0
2, 256608, Note_on_c, 0, 81, 67
2, 256688, Note_off_c, 0, 81, 0
2, 256704, Note_on_c, 0, 81, 67
2, 256784, Note_off_c, 0, 81, 0
2, 256800, Note_on_c, 0, 81, 67
2, 256880, Note_off_c, 0, 81, 0
2, 256896, Note_on_c, 0, 84, 67
2, 256988, Note_off_c, 0, 84, 0
2, 256992, Note_on_c, 0, 83, 67
2, 257072, Note_off_c, 0, 83, 0
2, 257088, Note_on_c, 0, 83, 67
2, 257168, Note_off_c, 0, 83, 0
2, 257184, Note_on_c, 0, 83, 67
2, 257264, Note_off_c, 0, 83, 0
2, 257280, Note_on_c, 0, 86, 67
2, 257372, Note_off_c, 0, 86, 0
2, 257376, Note_on_c, 0, 84, 67
2, 257456, Note_off_c, 0, 84, 0
2, 257472, Note_on_c, 0, 84, 67
2, 257552, Note_off_c, 0, 84, 0
2, 257568, Note_on_c, 0, 84, 67
2, 257648, Note_off_c, 0, 84, 0
2, 257664, Note_on_c, 0, 86, 67
2, 257756, Note_off_c, 0, 86, 0
2, 257760, Note_on_c, 0, 85, 67
2, 257840, Note_off_c, 0, 85, 0
2, 257856, Note_on_c, 0, 85, 67
2, 257936, Note_off_c, 0, 85, 0
2, 257952, Note_on_c, 0, 85, 67
2, 258032, Note_off_c, 0, 85, 0
2, 258048, Note_on_c, 0, 88, 67
2, 258140, Note_off_c, 0, 88, 0
2, 258144, Note_on_c, 0, 86, 67
2, 258432, Note_on_c, 0, 86, 67
2, 258524, Note_off_c, 0, 86, 0
2, 259004, Note_off_c, 0, 86, 0
2, 259008, Note_on_c, 0, 84, 67
2, 259100, Note_off_c, 0, 84, 0
2, 259104, Note_on_c, 0, 83, 67
2, 259196, Note_off_c, 0, 83, 0
2, 259200, Note_on_c, 0, 84, 67
2, 259292, Note_off_c, 0, 84, 0
2, 259296, Note_on_c, 0, 83, 67
2, 259388, Note_off_c, 0, 83, 0
2, 259392, Note_on_c, 0, 81, 67
2, 259484, Note_off_c, 0, 81, 0
2, 259488, Note_on_c, 0, 79, 67
2, 259580, Note_off_c, 0, 79, 0
2, 259584, Note_on_c, 0, 79, 67
2, 259772, Note_off_c, 0, 79, 0
2, 259776, Note_on_c, 0, 87, 67
2, 259964, Note_off_c, 0, 87, 0
2, 259968, Note_on_c, 0, 87, 67
2, 260732, Note_off_c, 0, 87, 0
2, 260736, Note_on_c, 0, 63, 73
2, 261116, Note_off_c, 0, 63, 0
2, 261120, Note_on_c, 0, 64, 73
2, 261308, Note_off_c, 0, 64, 0
2, 261312, Note_on_c, 0, 67, 72
2, 261500, Note_off_c, 0, 67, 0
2, 261504, Note_on_c, 0, 71, 70
2, 261692, Note_off_c, 0, 71, 0
2, 261696, Note_on_c, 0, 74, 67
2, 261884, Note_off_c, 0, 74, 0
2, 261888, Note_on_c, 0, 72, 67
2, 262076, Note_off_c, 0, 72, 0
2, 262080, Note_on_c, 0, 69, 67
2, 262268, Note_off_c, 0, 69, 0
2, 262272, Note_on_c, 0, 72, 67
2, 262460, Note_off_c, 0, 72, 0
2, 262464, Note_on_c, 0, 74, 67
2, 262652, Note_off_c, 0, 74, 0
2, 262656, Note_on_c, 0, 71, 67
2, 262844, Note_off_c, 0, 71, 0
2, 263040, Note_on_c, 0, 86, 67
2, 264188, Note_off_c, 0, 86, 0
2, 264192, Note_on_c, 0, 86, 67
2, 264380, Note_off_c, 0, 86, 0
2, 264384, Note_on_c, 0, 84, 67
2, 264572, Note_off_c, 0, 84, 0
2, 264576, Note_on_c, 0, 83, 67
2, 264764, Note_off_c, 0, 83, 0
2, 264768, Note_on_c, 0, 81, 67
2, 264956, Note_off_c, 0, 81, 0
2, 264960, Note_on_c, 0, 80, 67
2, 265148, Note_off_c, 0, 80, 0
2, 265152, Note_on_c, 0, 79, 67
2, 265340, Note_off_c, 0, 79, 0
2, 265344, Note_on_c, 0, 78, 67
2, 265532, Note_off_c, 0, 78, 0
2, 265536, Note_on_c, 0, 77, 67
2, 265724, Note_off_c, 0, 77, 0
2, 265728, Note_on_c, 0, 77, 67
2, 265820, Note_off_c, 0, 77, 0
2, 265824, Note_on_c, 0, 76, 67
2, 265916, Note_off_c, 0, 76, 0
2, 265920, Note_on_c, 0, 74, 67
2, 266012, Note_off_c, 0, 74, 0
2, 266016, Note_on_c, 0, 76, 67
2, 266108, Note_off_c, 0, 76, 0
2, 266112, Note_on_c, 0, 76, 67
2, 266204, Note_off_c, 0, 76, 0
2, 266208, Note_on_c, 0, 74, 67
2, 266300, Note_off_c, 0, 74, 0
2, 266304, Note_on_c, 0, 72, 67
2, 266396, Note_off_c, 0, 72, 0
2, 266400, Note_on_c, 0, 74, 67
2, 266492, Note_off_c, 0, 74, 0
2, 266496, Note_on_c, 0, 74, 67
2, 266588, Note_off_c, 0, 74, 0
2, 266592, Note_on_c, 0, 72, 67
2, 266684, Note_off_c, 0, 72, 0
2, 266688, Note_on_c, 0, 71, 67
2, 266780, Note_off_c, 0, 71, 0
2, 266784, Note_on_c, 0, 72, 67
2, 266876, Note_off_c, 0, 72, 0
2, 266880, Note_on_c, 0, 72, 67
2, 266972, Note_off_c, 0, 72, 0
2, 266976, Note_on_c, 0, 71, 67
2, 267068, Note_off_c, 0, 71, 0
2, 267072, Note_on_c, 0, 69, 67
2, 267164, Note_off_c, 0, 69, 0
2, 267168, Note_on_c, 0, 71, 67
2, 267260, Note_off_c, 0, 71, 0
2, 267264, Note_on_c, 0, 69, 67
2, 267452, Note_off_c, 0, 69, 0
2, 267456, Note_on_c, 0, 71, 67
2, 267548, Note_off_c, 0, 71, 0
2, 267552, Note_on_c, 0, 72, 67
2, 267644, Note_off_c, 0, 72, 0
2, 267648, Note_on_c, 0, 74, 67
2, 267740, Note_off_c, 0, 74, 0
2, 267744, Note_on_c, 0, 76, 67
2, 267836, Note_off_c, 0, 76, 0
2, 267840, Note_on_c, 0, 78, 67
2, 267932, Note_off_c, 0, 78, 0
2, 267936, Note_on_c, 0, 80, 67
2, 268028, Note_off_c, 0, 80, 0
2, 268032, Note_on_c, 0, 81, 67
2, 268124, Note_off_c, 0, 81, 0
2, 268128, Note_on_c, 0, 83, 67
2, 268220, Note_off_c, 0, 83, 0
2, 268224, Note_on_c, 0, 84, 67
2, 268316, Note_off_c, 0, 84, 0
2, 268320, Note_on_c, 0, 86, 67
2, 268412, Note_off_c, 0, 86, 0
2, 268416, Note_on_c, 0, 88, 67
2, 268604, Note_off_c, 0, 88, 0
2, 268608, Note_on_c, 0, 79, 67
2, 268796, Note_off_c, 0, 79, 0
2, 268800, Note_on_c, 0, 79, 67
2, 268892, Note_off_c, 0, 79, 0
2, 268896, Note_on_c, 0, 78, 67
2, 268988, Note_off_c, 0, 78, 0
2, 268992, Note_on_c, 0, 76, 67
2, 269084, Note_off_c, 0, 76, 0
2, 269088, Note_on_c, 0, 74, 67
2, 269180, Note_off_c, 0, 74, 0
2, 269184, Note_on_c, 0, 74, 67
2, 269372, Note_off_c, 0, 74, 0
2, 273600, Note_on_c, 0, 74, 67
2, 273692, Note_off_c, 0, 74, 0
2, 273696, Note_on_c, 0, 78, 67
2, 273788, Note_off_c, 0, 78, 0
2, 273792, Note_on_c, 0, 76, 67
2, 273884, Note_off_c, 0, 76, 0
2, 273888, Note_on_c, 0, 79, 67
2, 273980, Note_off_c, 0, 79, 0
2, 273984, Note_on_c, 0, 78, 67
2, 274076, Note_off_c, 0, 78, 0
2, 274080, Note_on_c, 0, 81, 67
2, 274172, Note_off_c, 0, 81, 0
2, 274176, Note_on_c, 0, 79, 67
2, 274268, Note_off_c, 0, 79, 0
2, 274272, Note_on_c, 0, 83, 67
2, 274364, Note_off_c, 0, 83, 0
2, 274368, Note_on_c, 0, 81, 67
2, 274460, Note_off_c, 0, 81, 0
2, 274464, Note_on_c, 0, 85, 67
2, 274556, Note_off_c, 0, 85, 0
2, 274560, Note_on_c, 0, 83, 67
2, 274652, Note_off_c, 0, 83, 0
2, 274656, Note_on_c, 0, 86, 67
2, 274748, Note_off_c, 0, 86, 0
2, 274752, Note_on_c, 0, 85, 67
2, 274844, Note_off_c, 0, 85, 0
2, 274848, Note_on_c, 0, 88, 67
2, 274940, Note_off_c, 0, 88, 0
2, 274944, Note_on_c, 0, 88, 67
2, 275036, Note_off_c, 0, 88, 0
2, 275040, Note_on_c, 0, 86, 67
2, 275328, Note_on_c, 0, 86, 67
2, 275420, Note_off_c, 0, 86, 0
2, 275900, Note_off_c, 0, 86, 0
2, 275904, Note_on_c, 0, 84, 67
2, 275996, Note_off_c, 0, 84, 0
2, 276000, Note_on_c, 0, 83, 67
2, 276092, Note_off_c, 0, 83, 0
2, 276096, Note_on_c, 0, 83, 67
2, 276188, Note_off_c, 0, 83, 0
2, 276192, Note_on_c, 0, 81, 67
2, 276284, Note_off_c, 0, 81, 0
2, 276288, Note_on_c, 0, 79, 67
2, 276380, Note_off_c, 0, 79, 0
2, 276384, Note_on_c, 0, 78, 67
2, 276476, Note_off_c, 0, 78, 0
2, 276480, Note_on_c, 0, 79, 67
2, 276668, Note_off_c, 0, 79, 0
2, 276672, Note_on_c, 0, 62, 75
2, 276764, Note_off_c, 0, 62, 0
2, 276768, Note_on_c, 0, 66, 73
2, 276860, Note_off_c, 0, 66, 0
2, 276864, Note_on_c, 0, 64, 73
2, 276956, Note_off_c, 0, 64, 0
2, 276960, Note_on_c, 0, 67, 72
2, 277052, Note_off_c, 0, 67, 0
2, 277056, Note_on_c, 0, 66, 73
2, 277148, Note_off_c, 0, 66, 0
2, 277152, Note_on_c, 0, 69, 72
2, 277244, Note_off_c, 0, 69, 0
2, 277248, Note_on_c, 0, 67, 72
2, 277340, Note_off_c, 0, 67, 0
2, 277344, Note_on_c, 0, 71, 70
2, 277436, Note_off_c, 0, 71, 0
2, 277440, Note_on_c, 0, 69, 72
2, 277532, Note_off_c, 0, 69, 0
2, 277536, Note_on_c, 0, 72, 70
2, 277628, Note_off_c, 0, 72, 0
2, 277632, Note_on_c, 0, 71, 70
2, 277724, Note_off_c, 0, 71, 0
2, 277728, Note_on_c, 0, 74, 69
2, 277820, Note_off_c, 0, 74, 0
2, 277824, Note_on_c, 0, 72, 69
2, 277916, Note_off_c, 0, 72, 0
2, 277920, Note_on_c, 0, 76, 67
2, 278012, Note_off_c, 0, 76, 0
2, 278016, Note_on_c, 0, 74, 67
2, 278108, Note_off_c, 0, 74, 0
2, 278112, Note_on_c, 0, 79, 67
2, 278204, Note_off_c, 0, 79, 0
2, 278208, Note_on_c, 0, 79, 67
2, 278300, Note_off_c, 0, 79, 0
2, 278304, Note_on_c, 0, 79, 67
2, 278396, Note_off_c, 0, 79, 0
2, 278400, Note_on_c, 0, 79, 67
2, 278492, Note_off_c, 0, 79, 0
2, 278496, Note_on_c, 0, 83, 67
2, 278576, Note_off_c, 0, 83, 0
2, 278592, Note_on_c, 0, 83, 67
2, 278672, Note_off_c, 0, 83, 0
2, 278688, Note_on_c, 0, 83, 67
2, 278768, Note_off_c, 0, 83, 0
2, 278784, Note_on_c, 0, 83, 67
2, 278864, Note_off_c, 0, 83, 0
2, 278880, Note_on_c, 0, 86, 67
2, 278960, Note_off_c, 0, 86, 0
2, 278976, Note_on_c, 0, 86, 67
2, 279056, Note_off_c, 0, 86, 0
2, 279072, Note_on_c, 0, 86, 67
2, 279152, Note_off_c, 0, 86, 0
2, 279168, Note_on_c, 0, 86, 67
2, 279248, Note_off_c, 0, 86, 0
2, 279264, Note_on_c, 0, 85, 67
2, 279356, Note_off_c, 0, 85, 0
2, 279360, Note_on_c, 0, 86, 67
2, 279452, Note_off_c, 0, 86, 0
2, 279456, Note_on_c, 0, 83, 67
2, 279548, Note_off_c, 0, 83, 0
2, 279552, Note_on_c, 0, 84, 67
2, 279644, Note_off_c, 0, 84, 0
2, 279648, Note_on_c, 0, 86, 67
2, 279740, Note_off_c, 0, 86, 0
2, 279744, Note_on_c, 0, 88, 67
2, 279836, Note_off_c, 0, 88, 0
2, 279840, Note_on_c, 0, 86, 67
2, 279932, Note_off_c, 0, 86, 0
2, 279936, Note_on_c, 0, 84, 67
2, 280028, Note_off_c, 0, 84, 0
2, 280032, Note_on_c, 0, 83, 67
2, 280124, Note_off_c, 0, 83, 0
2, 280128, Note_on_c, 0, 81, 67
2, 280220, Note_off_c, 0, 81, 0
2, 280224, Note_on_c, 0, 79, 67
2, 280316, Note_off_c, 0, 79, 0
2, 280320, Note_on_c, 0, 81, 67
2, 280412, Note_off_c, 0, 81, 0
2, 280416, Note_on_c, 0, 83, 67
2, 280508, Note_off_c, 0, 83, 0
2, 280512, Note_on_c, 0, 84, 67
2, 280604, Note_off_c, 0, 84, 0
2, 280608, Note_on_c, 0, 83, 67
2, 280700, Note_off_c, 0, 83, 0
2, 280704, Note_on_c, 0, 81, 67
2, 280796, Note_off_c, 0, 81, 0
2, 280800, Note_on_c, 0, 79, 67
2, 280892, Note_off_c, 0, 79, 0
2, 280896, Note_on_c, 0, 78, 67
2, 280988, Note_off_c, 0, 78, 0
2, 280992, Note_on_c, 0, 76, 67
2, 281084, Note_off_c, 0, 76, 0
2, 281088, Note_on_c, 0, 78, 67
2, 281180, Note_off_c, 0, 78, 0
2, 281184, Note_on_c, 0, 81, 67
2, 281276, Note_off_c, 0, 81, 0
2, 281280, Note_on_c, 0, 79, 67
2, 281372, Note_off_c, 0, 79, 0
2, 281376, Note_on_c, 0, 78, 67
2, 281468, Note_off_c, 0, 78, 0
2, 281472, Note_on_c, 0, 76, 67
2, 281564, Note_off_c, 0, 76, 0
2, 281568, Note_on_c, 0, 79, 67
2, 281660, Note_off_c, 0, 79, 0
2, 281664, Note_on_c, 0, 78, 67
2, 281756, Note_off_c, 0, 78, 0
2, 281760, Note_on_c, 0, 76, 67
2, 281852, Note_off_c, 0, 76, 0
2, 281856, Note_on_c, 0, 74, 67
2, 281948, Note_off_c, 0, 74, 0
2, 281952, Note_on_c, 0, 78, 67
2, 282044, Note_off_c, 0, 78, 0
2, 282048, Note_on_c, 0, 76, 67
2, 282140, Note_off_c, 0, 76, 0
2, 282144, Note_on_c, 0, 74, 67
2, 282236, Note_off_c, 0, 74, 0
2, 282240, Note_on_c, 0, 72, 67
2, 282332, Note_off_c, 0, 72, 0
2, 282336, Note_on_c, 0, 76, 67
2, 282428, Note_off_c, 0, 76, 0
2, 282432, Note_on_c, 0, 74, 67
2, 282524, Note_off_c, 0, 74, 0
2, 282528, Note_on_c, 0, 71, 67
2, 282620, Note_off_c, 0, 71, 0
2, 282624, Note_on_c, 0, 71, 72
2, 283004, Note_off_c, 0, 71, 0
2, 283008, Note_on_c, 0, 83, 67
2, 283772, Note_off_c, 0, 83, 0
2, 283776, Note_on_c, 0, 86, 67
2, 283824, Note_off_c, 0, 86, 0
2, 283824, Note_on_c, 0, 84, 67
2, 283872, Note_off_c, 0, 84, 0
2, 283872, Note_on_c, 0, 86, 67
2, 283920, Note_off_c, 0, 86, 0
2, 283920, Note_on_c, 0, 84, 67
2, 283968, Note_off_c, 0, 84, 0
2, 283968, Note_on_c, 0, 86, 67
2, 284016, Note_off_c, 0, 86, 0
2, 284016, Note_on_c, 0, 84, 67
2, 284064, Note_off_c, 0, 84, 0
2, 284064, Note_on_c, 0, 83, 67
2, 284156, Note_off_c, 0, 83, 0
2, 284160, Note_on_c, 0, 83, 67
2, 284540, Note_off_c, 0, 83, 0
2, 284544, Note_on_c, 0, 83, 67
2, 285308, Note_off_c, 0, 83, 0
2, 285312, Note_on_c, 0, 84, 67
2, 285360, Note_off_c, 0, 84, 0
2, 285360, Note_on_c, 0, 86, 67
2, 285408, Note_off_c, 0, 86, 0
2, 285408, Note_on_c, 0, 84, 67
2, 285456, Note_off_c, 0, 84, 0
2, 285456, Note_on_c, 0, 86, 67
2, 285504, Note_off_c, 0, 86, 0
2, 285504, Note_on_c, 0, 84, 67
2, 285552, Note_off_c, 0, 84, 0
2, 285552, Note_on_c, 0, 86, 67
2, 285600, Note_off_c, 0, 86, 0
2, 285600, Note_on_c, 0, 84, 67
2, 285648, Note_off_c, 0, 84, 0
2, 285648, Note_on_c, 0, 86, 67
2, 285696, Note_off_c, 0, 86, 0
2, 285696, Note_on_c, 0, 88, 67
2, 285884, Note_off_c, 0, 88, 0
2, 285888, Note_on_c, 0, 81, 67
2, 286076, Note_off_c, 0, 81, 0
2, 286080, Note_on_c, 0, 86, 67
2, 286172, Note_off_c, 0, 86, 0
2, 286176, Note_on_c, 0, 84, 67
2, 286268, Note_off_c, 0, 84, 0
2, 286272, Note_on_c, 0, 83, 67
2, 286364, Note_off_c, 0, 83, 0
2, 286368, Note_on_c, 0, 81, 67
2, 286460, Note_off_c, 0, 81, 0
2, 286464, Note_on_c, 0, 79, 67
2, 286844, Note_off_c, 0, 79, 0
2, 286848, Note_on_c, 0, 78, 67
2, 286896, Note_off_c, 0, 78, 0
2, 286896, Note_on_c, 0, 79, 67
2, 286944, Note_off_c, 0, 79, 0
2, 286944, Note_on_c, 0, 78, 67
2, 286992, Note_off_c, 0, 78, 0
2, 286992, Note_on_c, 0, 79, 67
2, 287040, Note_off_c, 0, 79, 0
2, 287040, Note_on_c, 0, 78, 67
2, 287088, Note_off_c, 0, 78, 0
2, 287088, Note_on_c, 0, 79, 67
2, 287136, Note_off_c, 0, 79, 0
2, 287136, Note_on_c, 0, 76, 67
2, 287184, Note_off_c, 0, 76, 0
2, 287184, Note_on_c, 0, 78, 67
2, 287232, Note_off_c, 0, 78, 0
2, 287232, Note_on_c, 0, 79, 67
2, 287612, Note_off_c, 0, 79, 0
2, 288960, Note_on_c, 0, 71, 67
2, 289008, Note_off_c, 0, 71, 0
2, 289008, Note_on_c, 0, 74, 67
2, 289152, Note_off_c, 0, 74, 0
2, 289152, Note_on_c, 0, 72, 67
2, 289200, Note_off_c, 0, 72, 0
2, 289200, Note_on_c, 0, 76, 67
2, 289344, Note_off_c, 0, 76, 0
2, 289344, Note_on_c, 0, 74, 67
2, 289392, Note_off_c, 0, 74, 0
2, 289392, Note_on_c, 0, 78, 67
2, 289536, Note_off_c, 0, 78, 0
2, 289536, Note_on_c, 0, 76, 67
2, 289584, Note_off_c, 0, 76, 0
2, 289584, Note_on_c, 0, 79, 67
2, 289728, Note_off_c, 0, 79, 0
2, 289728, Note_on_c, 0, 78, 67
2, 289776, Note_off_c, 0, 78, 0
2, 289776, Note_on_c, 0, 81, 67
2, 289920, Note_off_c, 0, 81, 0
2, 289920, Note_on_c, 0, 79, 67
2, 289968, Note_off_c, 0, 79, 0
2, 289968, Note_on_c, 0, 83, 67
2, 290112, Note_off_c, 0, 83, 0
2, 290112, Note_on_c, 0, 81, 67
2, 290160, Note_off_c, 0, 81, 0
2, 290160, Note_on_c, 0, 84, 67
2, 290304, Note_off_c, 0, 84, 0
2, 290304, Note_on_c, 0, 83, 67
2, 290352, Note_off_c, 0, 83, 0
2, 290352, Note_on_c, 0, 86, 67
2, 291072, Note_on_c, 0, 87, 67
2, 291116, Note_off_c, 0, 86, 0
2, 291120, Note_off_c, 0, 87, 0
2, 291120, Note_on_c, 0, 88, 67
2, 291168, Note_off_c, 0, 88, 0
2, 291168, Note_on_c, 0, 87, 67
2, 291216, Note_off_c, 0, 87, 0
2, 291216, Note_on_c, 0, 88, 67
2, 291264, Note_off_c, 0, 88, 0
2, 291264, Note_on_c, 0, 87, 67
2, 291312, Note_off_c, 0, 87, 0
2, 291312, Note_on_c, 0, 88, 67
2, 291360, Note_off_c, 0, 88, 0
2, 291360, Note_on_c, 0, 87, 67
2, 291408, Note_off_c, 0, 87, 0
2, 291408, Note_on_c, 0, 88, 67
2, 291456, Note_off_c, 0, 88, 0
2, 291456, Note_on_c, 0, 87, 67
2, 291504, Note_off_c, 0, 87, 0
2, 291504, Note_on_c, 0, 88, 67
2, 291552, Note_off_c, 0, 88, 0
2, 291552, Note_on_c, 0, 87, 67
2, 291600, Note_off_c, 0, 87, 0
2, 291600, Note_on_c, 0, 88, 67
2, 291648, Note_off_c, 0, 88, 0
2, 291648, Note_on_c, 0, 85, 67
2, 291740, Note_off_c, 0, 85, 0
2, 291744, Note_on_c, 0, 87, 67
2, 291836, Note_off_c, 0, 87, 0
2, 291840, Note_on_c, 0, 88, 67
2, 292124, Note_off_c, 0, 88, 0
2, 292128, Note_on_c, 0, 90, 67
2, 292220, Note_off_c, 0, 90, 0
2, 292224, Note_on_c, 0, 91, 67
2, 292508, Note_off_c, 0, 91, 0
2, 292512, Note_on_c, 0, 91, 67
2, 292604, Note_off_c, 0, 91, 0
2, 292608, Note_on_c, 0, 91, 67
2, 292988, Note_off_c, 0, 91, 0
2, 292992, Note_on_c, 0, 91, 67
2, 293372, Note_off_c, 0, 91, 0
2, 293376, Note_on_c, 0, 91, 67
2, 294140, Note_off_c, 0, 91, 0
2, 294144, Note_on_c, 0, 84, 67
2, 294524, Note_off_c, 0, 84, 0
2, 294912, Note_on_c, 0, 84, 67
2, 295196, Note_off_c, 0, 84, 0
2, 295200, Note_on_c, 0, 86, 67
2, 295292, Note_off_c, 0, 86, 0
2, 295296, Note_on_c, 0, 88, 67
2, 295580, Note_off_c, 0, 88, 0
2, 295584, Note_on_c, 0, 88, 67
2, 295676, Note_off_c, 0, 88, 0
2, 295680, Note_on_c, 0, 88, 67
2, 296060, Note_off_c, 0, 88, 0
2, 296064, Note_on_c, 0, 88, 67
2, 296444, Note_off_c, 0, 88, 0
2, 296448, Note_on_c, 0, 88, 67
2, 297212, Note_off_c, 0, 88, 0
2, 297216, Note_on_c, 0, 81, 67
2, 297404, Note_off_c, 0, 81, 0
2, 297984, Note_on_c, 0, 86, 67
2, 298028, Note_off_c, 0, 86, 0
2, 298032, Note_on_c, 0, 84, 67
2, 298368, Note_off_c, 0, 84, 0
2, 298368, Note_on_c, 0, 83, 67
2, 298556, Note_off_c, 0, 83, 0
2, 298560, Note_on_c, 0, 81, 67
2, 298748, Note_off_c, 0, 81, 0
2, 298752, Note_on_c, 0, 81, 67
2, 299132, Note_off_c, 0, 81, 0
2, 299136, Note_on_c, 0, 81, 67
2, 299516, Note_off_c, 0, 81, 0
2, 299520, Note_on_c, 0, 81, 67
2, 299708, Note_off_c, 0, 81, 0
2, 299712, Note_on_c, 0, 83, 67
2, 299900, Note_off_c, 0, 83, 0
2, 299904, Note_on_c, 0, 84, 67
2, 300092, Note_off_c, 0, 84, 0
2, 300096, Note_on_c, 0, 85, 67
2, 300284, Note_off_c, 0, 85, 0
2, 300288, Note_on_c, 0, 86, 67
2, 300476, Note_off_c, 0, 86, 0
2, 300480, Note_on_c, 0, 88, 67
2, 300668, Note_off_c, 0, 88, 0
2, 300672, Note_on_c, 0, 90, 67
2, 300860, Note_off_c, 0, 90, 0
2, 300864, Note_on_c, 0, 91, 67
2, 301052, Note_off_c, 0, 91, 0
2, 306240, Note_on_c, 0, 86, 67
2, 306428, Note_off_c, 0, 86, 0
2, 306432, Note_on_c, 0, 84, 67
2, 306812, Note_off_c, 0, 84, 0
2, 306816, Note_on_c, 0, 83, 67
2, 307196, Note_off_c, 0, 83, 0
2, 307200, Note_on_c, 0, 81, 67
2, 307580, Note_off_c, 0, 81, 0
2, 307776, Note_on_c, 0, 76, 67
2, 307964, Note_off_c, 0, 76, 0
2, 307968, Note_on_c, 0, 79, 67
2, 308348, Note_off_c, 0, 79, 0
2, 308352, Note_on_c, 0, 81, 67
2, 308400, Note_off_c, 0, 81, 0
2, 308400, Note_on_c, 0, 83, 67
2, 308448, Note_off_c, 0, 83, 0
2, 308448, Note_on_c, 0, 81, 67
2, 308496, Note_off_c, 0, 81, 0
2, 308496, Note_on_c, 0, 83, 67
2, 308544, Note_off_c, 0, 83, 0
2, 308544, Note_on_c, 0, 81, 67
2, 308592, Note_off_c, 0, 81, 0
2, 308592, Note_on_c, 0, 83, 67
2, 308640, Note_off_c, 0, 83, 0
2, 308640, Note_on_c, 0, 79, 67
2, 308688, Note_off_c, 0, 79, 0
2, 308688, Note_on_c, 0, 81, 67
2, 308736, Note_off_c, 0, 81, 0
2, 308736, Note_on_c, 0, 83, 67
2, 309116, Note_off_c, 0, 83, 0
2, 309312, Note_on_c, 0, 86, 67
2, 309500, Note_off_c, 0, 86, 0
2, 309504, Note_on_c, 0, 84, 67
2, 309596, Note_off_c, 0, 84, 0
2, 309600, Note_on_c, 0, 86, 67
2, 309692, Note_off_c, 0, 86, 0
2, 309696, Note_on_c, 0, 88, 67
2, 309788, Note_off_c, 0, 88, 0
2, 309792, Note_on_c, 0, 84, 67
2, 309884, Note_off_c, 0, 84, 0
2, 309888, Note_on_c, 0, 83, 67
2, 309980, Note_off_c, 0, 83, 0
2, 309984, Note_on_c, 0, 84, 67
2, 310076, Note_off_c, 0, 84, 0
2, 310080, Note_on_c, 0, 86, 67
2, 310172, Note_off_c, 0, 86, 0
2, 310176, Note_on_c, 0, 83, 67
2, 310268, Note_off_c, 0, 83, 0
2, 310272, Note_on_c, 0, 81, 67
2, 310364, Note_off_c, 0, 81, 0
2, 310368, Note_on_c, 0, 83, 67
2, 310460, Note_off_c, 0, 83, 0
2, 310464, Note_on_c, 0, 84, 67
2, 310556, Note_off_c, 0, 84, 0
2, 310560, Note_on_c, 0, 83, 67
2, 310652, Note_off_c, 0, 83, 0
2, 310656, Note_on_c, 0, 84, 67
2, 310748, Note_off_c, 0, 84, 0
2, 310752, Note_on_c, 0, 81, 67
2, 310844, Note_off_c, 0, 81, 0
2, 310848, Note_on_c, 0, 79, 67
2, 310940, Note_off_c, 0, 79, 0
2, 310944, Note_on_c, 0, 78, 67
2, 311036, Note_off_c, 0, 78, 0
2, 311040, Note_on_c, 0, 79, 67
2, 311132, Note_off_c, 0, 79, 0
2, 311136, Note_on_c, 0, 81, 67
2, 311228, Note_off_c, 0, 81, 0
2, 311232, Note_on_c, 0, 83, 67
2, 311324, Note_off_c, 0, 83, 0
2, 311328, Note_on_c, 0, 84, 67
2, 311420, Note_off_c, 0, 84, 0
2, 311424, Note_on_c, 0, 86, 67
2, 311516, Note_off_c, 0, 86, 0
2, 311520, Note_on_c, 0, 83, 67
2, 311612, Note_off_c, 0, 83, 0
2, 311616, Note_on_c, 0, 81, 67
2, 311708, Note_off_c, 0, 81, 0
2, 311712, Note_on_c, 0, 79, 67
2, 311804, Note_off_c, 0, 79, 0
2, 311808, Note_on_c, 0, 81, 67
2, 311900, Note_off_c, 0, 81, 0
2, 311904, Note_on_c, 0, 83, 67
2, 311996, Note_off_c, 0, 83, 0
2, 312000, Note_on_c, 0, 84, 67
2, 312092, Note_off_c, 0, 84, 0
2, 312096, Note_on_c, 0, 83, 67
2, 312188, Note_off_c, 0, 83, 0
2, 312192, Note_on_c, 0, 84, 67
2, 312284, Note_off_c, 0, 84, 0
2, 312288, Note_on_c, 0, 81, 67
2, 312380, Note_off_c, 0, 81, 0
2, 312384, Note_on_c, 0, 79, 67
2, 312476, Note_off_c, 0, 79, 0
2, 312480, Note_on_c, 0, 78, 67
2, 312572, Note_off_c, 0, 78, 0
2, 312576, Note_on_c, 0, 79, 67
2, 312668, Note_off_c, 0, 79, 0
2, 312672, Note_on_c, 0, 81, 67
2, 312764, Note_off_c, 0, 81, 0
2, 312768, Note_on_c, 0, 83, 67
2, 312860, Note_off_c, 0, 83, 0
2, 312864, Note_on_c, 0, 84, 67
2, 312956, Note_off_c, 0, 84, 0
2, 312960, Note_on_c, 0, 86, 67
2, 313052, Note_off_c, 0, 86, 0
2, 313056, Note_on_c, 0, 88, 67
2, 313148, Note_off_c, 0, 88, 0
2, 313152, Note_on_c, 0, 90, 67
2, 313244, Note_off_c, 0, 90, 0
2, 313248, Note_on_c, 0, 91, 67
2, 313340, Note_off_c, 0, 91, 0
2, 313344, Note_on_c, 0, 76, 67
2, 313532, Note_off_c, 0, 76, 0
2, 313728, Note_on_c, 0, 72, 70
2, 313916, Note_off_c, 0, 72, 0
2, 313920, Note_on_c, 0, 88, 67
2, 314108, Note_off_c, 0, 88, 0
2, 314112, Note_on_c, 0, 74, 69
2, 314300, Note_off_c, 0, 74, 0
2, 314304, Note_on_c, 0, 90, 67
2, 314492, Note_off_c, 0, 90, 0
2, 314496, Note_on_c, 0, 76, 67
2, 314684, Note_off_c, 0, 76, 0
2, 314688, Note_on_c, 0, 91, 67
2, 314876, Note_off_c, 0, 91, 0
2, 314880, Note_on_c, 0, 74, 69
2, 315644, Note_off_c, 0, 74, 0
2, 315648, Note_on_c, 0, 81, 67
2, 315696, Note_off_c, 0, 81, 0
2, 315696, Note_on_c, 0, 83, 67
2, 315744, Note_off_c, 0, 83, 0
2, 315744, Note_on_c, 0, 81, 67
2, 315792, Note_off_c, 0, 81, 0
2, 315792, Note_on_c, 0, 83, 67
2, 315840, Note_off_c, 0, 83, 0
2, 315840, Note_on_c, 0, 81, 67
2, 315888, Note_off_c, 0, 81, 0
2, 315888, Note_on_c, 0, 83, 67
2, 315936, Note_off_c, 0, 83, 0
2, 315936, Note_on_c, 0, 81, 67
2, 315984, Note_off_c, 0, 81, 0
2, 315984, Note_on_c, 0, 83, 67
2, 316032, Note_off_c, 0, 83, 0
2, 316032, Note_on_c, 0, 81, 67
2, 316080, Note_off_c, 0, 81, 0
2, 316080, Note_on_c, 0, 83, 67
2, 316128, Note_off_c, 0, 83, 0
2, 316128, Note_on_c, 0, 81, 67
2, 316176, Note_off_c, 0, 81, 0
2, 316176, Note_on_c, 0, 83, 67
2, 316224, Note_off_c, 0, 83, 0
2, 316224, Note_on_c, 0, 81, 67
2, 316272, Note_off_c, 0, 81, 0
2, 316272, Note_on_c, 0, 83, 67
2, 316320, Note_off_c, 0, 83, 0
2, 316320, Note_on_c, 0, 79, 67
2, 316368, Note_off_c, 0, 79, 0
2, 316368, Note_on_c, 0, 81, 67
2, 316416, Note_off_c, 0, 81, 0
2, 316416, Note_on_c, 0, 79, 67
2, 316604, Note_off_c, 0, 79, 0
2, 316800, Note_on_c, 0, 72, 70
2, 316892, Note_off_c, 0, 72, 0
2, 316896, Note_on_c, 0, 88, 67
2, 316976, Note_off_c, 0, 88, 0
2, 316992, Note_on_c, 0, 88, 67
2, 317072, Note_off_c, 0, 88, 0
2, 317088, Note_on_c, 0, 88, 67
2, 317168, Note_off_c, 0, 88, 0
2, 317184, Note_on_c, 0, 74, 70
2, 317276, Note_off_c, 0, 74, 0
2, 317280, Note_on_c, 0, 90, 67
2, 317360, Note_off_c, 0, 90, 0
2, 317376, Note_on_c, 0, 90, 67
2, 317456, Note_off_c, 0, 90, 0
2, 317472, Note_on_c, 0, 90, 67
2, 317552, Note_off_c, 0, 90, 0
2, 317568, Note_on_c, 0, 76, 69
2, 317660, Note_off_c, 0, 76, 0
2, 317664, Note_on_c, 0, 91, 67
2, 317744, Note_off_c, 0, 91, 0
2, 317760, Note_on_c, 0, 91, 67
2, 317840, Note_off_c, 0, 91, 0
2, 317856, Note_on_c, 0, 91, 67
2, 317936, Note_off_c, 0, 91, 0
2, 317952, Note_on_c, 0, 62, 75
2, 318140, Note_off_c, 0, 62, 0
2, 318144, Note_on_c, 0, 64, 73
2, 318236, Note_off_c, 0, 64, 0
2, 318240, Note_on_c, 0, 66, 72
2, 318332, Note_off_c, 0, 66, 0
2, 318336, Note_on_c, 0, 67, 72
2, 318428, Note_off_c, 0, 67, 0
2, 318432, Note_on_c, 0, 69, 70
2, 318524, Note_off_c, 0, 69, 0
2, 318528, Note_on_c, 0, 71, 70
2, 318620, Note_off_c, 0, 71, 0
2, 318624, Note_on_c, 0, 72, 69
2, 318716, Note_off_c, 0, 72, 0
2, 318720, Note_on_c, 0, 74, 69
2, 318812, Note_off_c, 0, 74, 0
2, 318816, Note_on_c, 0, 79, 67
2, 318908, Note_off_c, 0, 79, 0
2, 318912, Note_on_c, 0, 83, 67
2, 319004, Note_off_c, 0, 83, 0
2, 319008, Note_on_c, 0, 86, 67
2, 319100, Note_off_c, 0, 86, 0
2, 319104, Note_on_c, 0, 85, 67
2, 319196, Note_off_c, 0, 85, 0
2, 319200, Note_on_c, 0, 86, 67
2, 319292, Note_off_c, 0, 86, 0
2, 319296, Note_on_c, 0, 83, 67
2, 319388, Note_off_c, 0, 83, 0
2, 319392, Note_on_c, 0, 79, 67
2, 319484, Note_off_c, 0, 79, 0
2, 319488, Note_on_c, 0, 81, 67
2, 319536, Note_off_c, 0, 81, 0
2, 319536, Note_on_c, 0, 83, 67
2, 319584, Note_off_c, 0, 83, 0
2, 319584, Note_on_c, 0, 81, 67
2, 319632, Note_off_c, 0, 81, 0
2, 319632, Note_on_c, 0, 83, 67
2, 319680, Note_off_c, 0, 83, 0
2, 319680, Note_on_c, 0, 81, 67
2, 319728, Note_off_c, 0, 81, 0
2, 319728, Note_on_c, 0, 83, 67
2, 319776, Note_off_c, 0, 83, 0
2, 319776, Note_on_c, 0, 81, 67
2, 319824, Note_off_c, 0, 81, 0
2, 319824, Note_on_c, 0, 83, 67
2, 319872, Note_off_c, 0, 83, 0
2, 319872, Note_on_c, 0, 81, 67
2, 319920, Note_off_c, 0, 81, 0
2, 319920, Note_on_c, 0, 83, 67
2, 319968, Note_off_c, 0, 83, 0
2, 319968, Note_on_c, 0, 81, 67
2, 320016, Note_off_c, 0, 81, 0
2, 320016, Note_on_c, 0, 83, 67
2, 320064, Note_off_c, 0, 83, 0
2, 320064, Note_on_c, 0, 81, 67
2, 320112, Note_off_c, 0, 81, 0
2, 320112, Note_on_c, 0, 83, 67
2, 320160, Note_off_c, 0, 83, 0
2, 320160, Note_on_c, 0, 81, 67
2, 320208, Note_off_c, 0, 81, 0
2, 320208, Note_on_c, 0, 83, 67
2, 320256, Note_off_c, 0, 83, 0
2, 320256, Note_on_c, 0, 81, 67
2, 320304, Note_off_c, 0, 81, 0
2, 320304, Note_on_c, 0, 83, 67
2, 320352, Note_off_c, 0, 83, 0
2, 320352, Note_on_c, 0, 81, 67
2, 320400, Note_off_c, 0, 81, 0
2, 320400, Note_on_c, 0, 83, 67
2, 320448, Note_off_c, 0, 83, 0
2, 320448, Note_on_c, 0, 81, 67
2, 320496, Note_off_c, 0, 81, 0
2, 320496, Note_on_c, 0, 83, 67
2, 320544, Note_off_c, 0, 83, 0
2, 320544, Note_on_c, 0, 81, 67
2, 320592, Note_off_c, 0, 81, 0
2, 320592, Note_on_c, 0, 83, 67
2, 320640, Note_off_c, 0, 83, 0
2, 320640, Note_on_c, 0, 81, 67
2, 320688, Note_off_c, 0, 81, 0
2, 320688, Note_on_c, 0, 83, 67
2, 320736, Note_off_c, 0, 83, 0
2, 320736, Note_on_c, 0, 81, 67
2, 320784, Note_off_c, 0, 81, 0
2, 320784, Note_on_c, 0, 83, 67
2, 320832, Note_off_c, 0, 83, 0
2, 320832, Note_on_c, 0, 81, 67
2, 320880, Note_off_c, 0, 81, 0
2, 320880, Note_on_c, 0, 83, 67
2, 320928, Note_off_c, 0, 83, 0
2, 320928, Note_on_c, 0, 79, 67
2, 320976, Note_off_c, 0, 79, 0
2, 320976, Note_on_c, 0, 81, 67
2, 321024, Note_off_c, 0, 81, 0
2, 321024, Note_on_c, 0, 79, 67
2, 321404, Note_off_c, 0, 79, 0
2, 330240, Note_on_c, 0, 86, 67
2, 331004, Note_off_c, 0, 86, 0
2, 331008, Note_on_c, 0, 74, 70
2, 331772, Note_off_c, 0, 74, 0
2, 331776, Note_on_c, 0, 62, 75
2, 331964, Note_off_c, 0, 62, 0
2, 331968, Note_on_c, 0, 64, 73
2, 332060, Note_off_c, 0, 64, 0
2, 332064, Note_on_c, 0, 66, 73
2, 332156, Note_off_c, 0, 66, 0
2, 332160, Note_on_c, 0, 67, 72
2, 332252, Note_off_c, 0, 67, 0
2, 332256, Note_on_c, 0, 69, 72
2, 332348, Note_off_c, 0, 69, 0
2, 332352, Note_on_c, 0, 71, 70
2, 332444, Note_off_c, 0, 71, 0
2, 332448, Note_on_c, 0, 72, 70
2, 332540, Note_off_c, 0, 72, 0
2, 332544, Note_on_c, 0, 74, 69
2, 332636, Note_off_c, 0, 74, 0
2, 332640, Note_on_c, 0, 79, 69
2, 332732, Note_off_c, 0, 79, 0
2, 332736, Note_on_c, 0, 83, 67
2, 332828, Note_off_c, 0, 83, 0
2, 332832, Note_on_c, 0, 86, 67
2, 332924, Note_off_c, 0, 86, 0
2, 332928, Note_on_c, 0, 85, 67
2, 333020, Note_off_c, 0, 85, 0
2, 333024, Note_on_c, 0, 86, 67
2, 333116, Note_off_c, 0, 86, 0
2, 333120, Note_on_c, 0, 83, 67
2, 333212, Note_off_c, 0, 83, 0
2, 333216, Note_on_c, 0, 79, 67
2, 333308, Note_off_c, 0, 79, 0
2, 333312, Note_on_c, 0, 86, 67
2, 333884, Note_off_c, 0, 86, 0
2, 333888, Note_on_c, 0, 79, 54
2, 334076, Note_off_c, 0, 79, 0
2, 334080, Note_on_c, 0, 81, 67
2, 334128, Note_off_c, 0, 81, 0
2, 334128, Note_on_c, 0, 83, 67
2, 334176, Note_off_c, 0, 83, 0
2, 334176, Note_on_c, 0, 81, 67
2, 334224, Note_off_c, 0, 81, 0
2, 334224, Note_on_c, 0, 83, 67
2, 334272, Note_off_c, 0, 83, 0
2, 334272, Note_on_c, 0, 81, 67
2, 334320, Note_off_c, 0, 81, 0
2, 334320, Note_on_c, 0, 83, 67
2, 334368, Note_off_c, 0, 83, 0
2, 334368, Note_on_c, 0, 81, 67
2, 334416, Note_off_c, 0, 81, 0
2, 334416, Note_on_c, 0, 83, 67
2, 334464, Note_off_c, 0, 83, 0
2, 334464, Note_on_c, 0, 81, 67
2, 334512, Note_off_c, 0, 81, 0
2, 334512, Note_on_c, 0, 83, 67
2, 334560, Note_off_c, 0, 83, 0
2, 334560, Note_on_c, 0, 81, 67
2, 334608, Note_off_c, 0, 81, 0
2, 334608, Note_on_c, 0, 83, 67
2, 334656, Note_off_c, 0, 83, 0
2, 334656, Note_on_c, 0, 81, 67
2, 334688, Note_on_c, 0, 83, 67
2, 334704, Note_off_c, 0, 81, 0
2, 334736, Note_off_c, 0, 83, 0
2, 334752, Note_on_c, 0, 79, 67
2, 334800, Note_off_c, 0, 79, 0
2, 334800, Note_on_c, 0, 81, 67
2, 334848, Note_off_c, 0, 81, 0
2, 334848, Note_on_c, 0, 79, 67
2, 335228, Note_off_c, 0, 79, 0
2, 335228, End_track
3, 0, Start_track
3, 0, Title_t, "Concerto for Flute #1"
3, 0, Control_c, 1, 0, 0
3, 0, Program_c, 1, 0
3, 0, Control_c, 1, 7, 80
3, 0, Control_c, 1, 10, 44
3, 0, Control_c, 1, 91, 43
3, 0, Control_c, 1, 93, 36
3, 0, Key_signature, 1, "major"
3, 0, Control_c, 1, 121, 0
3, 144, Control_c, 1, 10, 43
3, 192, Control_c, 1, 91, 63
3, 240, Control_c, 1, 93, 40
3, 288, Program_c, 1, 0
3, 1536, Note_on_c, 1, 79, 87
3, 1536, Note_on_c, 1, 74, 87
3, 1536, Note_on_c, 1, 71, 87
3, 1536, Note_on_c, 1, 67, 87
3, 1916, Note_off_c, 1, 79, 0
3, 1916, Note_off_c, 1, 74, 0
3, 1916, Note_off_c, 1, 71, 0
3, 1916, Note_off_c, 1, 67, 0
3, 1920, Note_on_c, 1, 74, 84
3, 1920, Note_on_c, 1, 71, 84
3, 1920, Note_on_c, 1, 67, 84
3, 2204, Note_off_c, 1, 74, 0
3, 2204, Note_off_c, 1, 71, 0
3, 2204, Note_off_c, 1, 67, 0
3, 2208, Note_on_c, 1, 74, 82
3, 2300, Note_off_c, 1, 74, 0
3, 2304, Note_on_c, 1, 74, 82
3, 2304, Note_on_c, 1, 71, 82
3, 2304, Note_on_c, 1, 62, 82
3, 2684, Note_off_c, 1, 74, 0
3, 2684, Note_off_c, 1, 71, 0
3, 2684, Note_off_c, 1, 62, 0
3, 2688, Note_on_c, 1, 74, 82
3, 2688, Note_on_c, 1, 71, 82
3, 2688, Note_on_c, 1, 67, 82
3, 3068, Note_off_c, 1, 74, 0
3, 3068, Note_off_c, 1, 71, 0
3, 3068, Note_off_c, 1, 67, 0
3, 3072, Note_on_c, 1, 81, 82
3, 3072, Note_on_c, 1, 74, 82
3, 3072, Note_on_c, 1, 86, 82
3, 3260, Note_off_c, 1, 86, 0
3, 3264, Note_on_c, 1, 84, 82
3, 3452, Note_off_c, 1, 84, 0
3, 3456, Note_on_c, 1, 84, 82
3, 3836, Note_off_c, 1, 81, 0
3, 3836, Note_off_c, 1, 74, 0
3, 3840, Note_on_c, 1, 78, 81
3, 3840, Note_on_c, 1, 74, 81
3, 4220, Note_off_c, 1, 84, 0
3, 4220, Note_off_c, 1, 78, 0
3, 4220, Note_off_c, 1, 74, 0
3, 4224, Note_on_c, 1, 78, 81
3, 4224, Note_on_c, 1, 86, 81
3, 4316, Note_off_c, 1, 86, 0
3, 4320, Note_on_c, 1, 84, 81
3, 4412, Note_off_c, 1, 84, 0
3, 4416, Note_on_c, 1, 83, 81
3, 4508, Note_off_c, 1, 83, 0
3, 4512, Note_on_c, 1, 81, 81
3, 4604, Note_off_c, 1, 78, 0
3, 4604, Note_off_c, 1, 81, 0
3, 4608, Note_on_c, 1, 81, 81
3, 4608, Note_on_c, 1, 74, 81
3, 4652, Note_off_c, 1, 81, 0
3, 4704, Note_on_c, 1, 79, 81
3, 4748, Note_off_c, 1, 79, 0
3, 4800, Note_on_c, 1, 78, 81
3, 4844, Note_off_c, 1, 78, 0
3, 4896, Note_on_c, 1, 76, 81
3, 4940, Note_off_c, 1, 76, 0
3, 4988, Note_off_c, 1, 74, 0
3, 4992, Note_on_c, 1, 76, 81
3, 4992, Note_on_c, 1, 72, 81
3, 5084, Note_off_c, 1, 76, 0
3, 5084, Note_off_c, 1, 72, 0
3, 5088, Note_on_c, 1, 74, 81
3, 5088, Note_on_c, 1, 71, 81
3, 5180, Note_off_c, 1, 74, 0
3, 5180, Note_off_c, 1, 71, 0
3, 5184, Note_on_c, 1, 72, 81
3, 5184, Note_on_c, 1, 69, 81
3, 5276, Note_off_c, 1, 72, 0
3, 5276, Note_off_c, 1, 69, 0
3, 5280, Note_on_c, 1, 71, 81
3, 5280, Note_on_c, 1, 67, 81
3, 5372, Note_off_c, 1, 71, 0
3, 5372, Note_off_c, 1, 67, 0
3, 5376, Note_on_c, 1, 74, 81
3, 5376, Note_on_c, 1, 71, 81
3, 5376, Note_on_c, 1, 64, 81
3, 5756, Note_off_c, 1, 74, 0
3, 5756, Note_off_c, 1, 71, 0
3, 5756, Note_off_c, 1, 64, 0
3, 5760, Note_on_c, 1, 69, 81
3, 5760, Note_on_c, 1, 66, 81
3, 5760, Note_on_c, 1, 72, 81
3, 5804, Note_off_c, 1, 72, 0
3, 5808, Note_on_c, 1, 74, 81
3, 5840, Note_on_c, 1, 72, 81
3, 5852, Note_off_c, 1, 74, 0
3, 5884, Note_off_c, 1, 72, 0
3, 5904, Note_on_c, 1, 74, 81
3, 5948, Note_off_c, 1, 74, 0
3, 5952, Note_on_c, 1, 72, 81
3, 5996, Note_off_c, 1, 72, 0
3, 6000, Note_on_c, 1, 74, 81
3, 6032, Note_on_c, 1, 71, 81
3, 6044, Note_off_c, 1, 74, 0
3, 6076, Note_off_c, 1, 71, 0
3, 6096, Note_on_c, 1, 72, 81
3, 6140, Note_off_c, 1, 69, 0
3, 6140, Note_off_c, 1, 66, 0
3, 6140, Note_off_c, 1, 72, 0
3, 6144, Note_on_c, 1, 71, 81
3, 6144, Note_on_c, 1, 67, 81
3, 6524, Note_off_c, 1, 71, 0
3, 6524, Note_off_c, 1, 67, 0
3, 6528, Note_on_c, 1, 71, 54
3, 6528, Note_on_c, 1, 67, 54
3, 6908, Note_off_c, 1, 71, 0
3, 6908, Note_off_c, 1, 67, 0
3, 6912, Note_on_c, 1, 74, 54
3, 6912, Note_on_c, 1, 71, 54
3, 7292, Note_off_c, 1, 74, 0
3, 7292, Note_off_c, 1, 71, 0
3, 7296, Note_on_c, 1, 79, 54
3, 7296, Note_on_c, 1, 74, 54
3, 7676, Note_off_c, 1, 79, 0
3, 7676, Note_off_c, 1, 74, 0
3, 7680, Note_on_c, 1, 83, 60
3, 7680, Note_on_c, 1, 74, 60
3, 8060, Note_off_c, 1, 83, 0
3, 8060, Note_off_c, 1, 74, 0
3, 8064, Note_on_c, 1, 59, 60
3, 8064, Note_on_c, 1, 62, 60
3, 8348, Note_off_c, 1, 62, 0
3, 8352, Note_on_c, 1, 62, 60
3, 8444, Note_off_c, 1, 59, 0
3, 8444, Note_off_c, 1, 62, 0
3, 8448, Note_on_c, 1, 62, 60
3, 8448, Note_on_c, 1, 59, 60
3, 8828, Note_off_c, 1, 62, 0
3, 8832, Note_on_c, 1, 62, 60
3, 9212, Note_off_c, 1, 59, 0
3, 9212, Note_off_c, 1, 62, 0
3, 9216, Note_on_c, 1, 69, 60
3, 9216, Note_on_c, 1, 62, 60
3, 9216, Note_on_c, 1, 74, 60
3, 9404, Note_off_c, 1, 74, 0
3, 9408, Note_on_c, 1, 72, 60
3, 9596, Note_off_c, 1, 72, 0
3, 9600, Note_on_c, 1, 72, 60
3, 9980, Note_off_c, 1, 69, 0
3, 9980, Note_off_c, 1, 62, 0
3, 9984, Note_on_c, 1, 66, 60
3, 10364, Note_off_c, 1, 72, 0
3, 10364, Note_off_c, 1, 66, 0
3, 10368, Note_on_c, 1, 66, 60
3, 10368, Note_on_c, 1, 74, 60
3, 10460, Note_off_c, 1, 74, 0
3, 10464, Note_on_c, 1, 72, 60
3, 10556, Note_off_c, 1, 72, 0
3, 10560, Note_on_c, 1, 71, 60
3, 10652, Note_off_c, 1, 71, 0
3, 10656, Note_on_c, 1, 69, 60
3, 10748, Note_off_c, 1, 66, 0
3, 10748, Note_off_c, 1, 69, 0
3, 10752, Note_on_c, 1, 67, 54
3, 10752, Note_on_c, 1, 67, 54
3, 10844, Note_off_c, 1, 67, 0
3, 10848, Note_on_c, 1, 69, 54
3, 10928, Note_on_c, 1, 71, 54
3, 10940, Note_off_c, 1, 69, 0
3, 11020, Note_off_c, 1, 71, 0
3, 11040, Note_on_c, 1, 69, 54
3, 11132, Note_off_c, 1, 69, 0
3, 11136, Note_on_c, 1, 67, 54
3, 11228, Note_off_c, 1, 67, 0
3, 11232, Note_on_c, 1, 66, 54
3, 11324, Note_off_c, 1, 66, 0
3, 11328, Note_on_c, 1, 64, 54
3, 11420, Note_off_c, 1, 64, 0
3, 11424, Note_on_c, 1, 62, 54
3, 11516, Note_off_c, 1, 67, 0
3, 11516, Note_off_c, 1, 62, 0
3, 11520, Note_on_c, 1, 72, 54
3, 11900, Note_off_c, 1, 72, 0
3, 11904, Note_on_c, 1, 74, 54
3, 11996, Note_off_c, 1, 74, 0
3, 12000, Note_on_c, 1, 72, 54
3, 12092, Note_off_c, 1, 72, 0
3, 12096, Note_on_c, 1, 71, 54
3, 12188, Note_off_c, 1, 71, 0
3, 12192, Note_on_c, 1, 69, 54
3, 12284, Note_off_c, 1, 69, 0
3, 12288, Note_on_c, 1, 67, 54
3, 12288, Note_on_c, 1, 67, 54
3, 12380, Note_off_c, 1, 67, 0
3, 12384, Note_on_c, 1, 69, 54
3, 12476, Note_off_c, 1, 69, 0
3, 12480, Note_on_c, 1, 71, 54
3, 12572, Note_off_c, 1, 71, 0
3, 12576, Note_on_c, 1, 69, 54
3, 12668, Note_off_c, 1, 69, 0
3, 12672, Note_on_c, 1, 67, 54
3, 12764, Note_off_c, 1, 67, 0
3, 12768, Note_on_c, 1, 66, 54
3, 12860, Note_off_c, 1, 66, 0
3, 12864, Note_on_c, 1, 64, 54
3, 12956, Note_off_c, 1, 64, 0
3, 12960, Note_on_c, 1, 62, 54
3, 13052, Note_off_c, 1, 67, 0
3, 13052, Note_off_c, 1, 62, 0
3, 13056, Note_on_c, 1, 72, 54
3, 13436, Note_off_c, 1, 72, 0
3, 13440, Note_on_c, 1, 79, 81
3, 13440, Note_on_c, 1, 69, 81
3, 13532, Note_off_c, 1, 79, 0
3, 13536, Note_on_c, 1, 78, 81
3, 13628, Note_off_c, 1, 69, 0
3, 13628, Note_off_c, 1, 78, 0
3, 13632, Note_on_c, 1, 76, 81
3, 13632, Note_on_c, 1, 67, 81
3, 13724, Note_off_c, 1, 76, 0
3, 13724, Note_off_c, 1, 67, 0
3, 13728, Note_on_c, 1, 74, 81
3, 13728, Note_on_c, 1, 66, 81
3, 13820, Note_off_c, 1, 74, 0
3, 13820, Note_off_c, 1, 66, 0
3, 13824, Note_on_c, 1, 79, 81
3, 14108, Note_off_c, 1, 79, 0
3, 14112, Note_on_c, 1, 74, 81
3, 14204, Note_off_c, 1, 74, 0
3, 14208, Note_on_c, 1, 76, 81
3, 14492, Note_off_c, 1, 76, 0
3, 14496, Note_on_c, 1, 71, 81
3, 14588, Note_off_c, 1, 71, 0
3, 14592, Note_on_c, 1, 72, 81
3, 14684, Note_off_c, 1, 72, 0
3, 14688, Note_on_c, 1, 71, 81
3, 14780, Note_off_c, 1, 71, 0
3, 14784, Note_on_c, 1, 69, 81
3, 14876, Note_off_c, 1, 69, 0
3, 14880, Note_on_c, 1, 67, 81
3, 14972, Note_off_c, 1, 67, 0
3, 14976, Note_on_c, 1, 66, 81
3, 15068, Note_off_c, 1, 66, 0
3, 15072, Note_on_c, 1, 64, 81
3, 15164, Note_off_c, 1, 64, 0
3, 15168, Note_on_c, 1, 62, 81
3, 15260, Note_off_c, 1, 62, 0
3, 15264, Note_on_c, 1, 60, 81
3, 15356, Note_off_c, 1, 60, 0
3, 15360, Note_on_c, 1, 59, 81
3, 15452, Note_off_c, 1, 59, 0
3, 15456, Note_on_c, 1, 62, 81
3, 15548, Note_off_c, 1, 62, 0
3, 15552, Note_on_c, 1, 67, 81
3, 15552, Note_on_c, 1, 74, 81
3, 15644, Note_off_c, 1, 67, 0
3, 15644, Note_off_c, 1, 74, 0
3, 15648, Note_on_c, 1, 62, 81
3, 15740, Note_off_c, 1, 62, 0
3, 15744, Note_on_c, 1, 74, 81
3, 15744, Note_on_c, 1, 72, 81
3, 15836, Note_off_c, 1, 74, 0
3, 15836, Note_off_c, 1, 72, 0
3, 15840, Note_on_c, 1, 66, 81
3, 15932, Note_off_c, 1, 66, 0
3, 15936, Note_on_c, 1, 74, 81
3, 15936, Note_on_c, 1, 69, 81
3, 16028, Note_off_c, 1, 74, 0
3, 16028, Note_off_c, 1, 69, 0
3, 16032, Note_on_c, 1, 66, 81
3, 16124, Note_off_c, 1, 66, 0
3, 16128, Note_on_c, 1, 67, 81
3, 16128, Note_on_c, 1, 74, 81
3, 16220, Note_off_c, 1, 67, 0
3, 16224, Note_on_c, 1, 62, 81
3, 16316, Note_off_c, 1, 62, 0
3, 16320, Note_on_c, 1, 71, 81
3, 16412, Note_off_c, 1, 71, 0
3, 16416, Note_on_c, 1, 67, 81
3, 16508, Note_off_c, 1, 74, 0
3, 16508, Note_off_c, 1, 67, 0
3, 16512, Note_on_c, 1, 74, 81
3, 16604, Note_off_c, 1, 74, 0
3, 16608, Note_on_c, 1, 79, 81
3, 16700, Note_off_c, 1, 79, 0
3, 16704, Note_on_c, 1, 83, 81
3, 16796, Note_off_c, 1, 83, 0
3, 16800, Note_on_c, 1, 86, 81
3, 16892, Note_off_c, 1, 86, 0
3, 16896, Note_on_c, 1, 76, 81
3, 16896, Note_on_c, 1, 86, 81
3, 16988, Note_off_c, 1, 86, 0
3, 16992, Note_on_c, 1, 84, 81
3, 17084, Note_off_c, 1, 84, 0
3, 17088, Note_on_c, 1, 83, 81
3, 17180, Note_off_c, 1, 83, 0
3, 17184, Note_on_c, 1, 84, 81
3, 17276, Note_off_c, 1, 84, 0
3, 17280, Note_on_c, 1, 84, 81
3, 17372, Note_off_c, 1, 84, 0
3, 17376, Note_on_c, 1, 83, 81
3, 17468, Note_off_c, 1, 83, 0
3, 17472, Note_on_c, 1, 81, 81
3, 17564, Note_off_c, 1, 81, 0
3, 17568, Note_on_c, 1, 83, 81
3, 17660, Note_off_c, 1, 76, 0
3, 17660, Note_off_c, 1, 83, 0
3, 17664, Note_on_c, 1, 76, 81
3, 17664, Note_on_c, 1, 83, 81
3, 17756, Note_off_c, 1, 83, 0
3, 17760, Note_on_c, 1, 81, 81
3, 17852, Note_off_c, 1, 81, 0
3, 17856, Note_on_c, 1, 80, 81
3, 17948, Note_off_c, 1, 80, 0
3, 17952, Note_on_c, 1, 81, 81
3, 18044, Note_off_c, 1, 81, 0
3, 18048, Note_on_c, 1, 81, 81
3, 18140, Note_off_c, 1, 81, 0
3, 18144, Note_on_c, 1, 79, 81
3, 18236, Note_off_c, 1, 79, 0
3, 18240, Note_on_c, 1, 78, 81
3, 18332, Note_off_c, 1, 78, 0
3, 18336, Note_on_c, 1, 79, 81
3, 18428, Note_off_c, 1, 76, 0
3, 18428, Note_off_c, 1, 79, 0
3, 18432, Note_on_c, 1, 78, 81
3, 18432, Note_on_c, 1, 74, 81
3, 18620, Note_off_c, 1, 78, 0
3, 18620, Note_off_c, 1, 74, 0
3, 18816, Note_on_c, 1, 74, 54
3, 18908, Note_off_c, 1, 74, 0
3, 18912, Note_on_c, 1, 78, 54
3, 19004, Note_off_c, 1, 78, 0
3, 19008, Note_on_c, 1, 76, 54
3, 19100, Note_off_c, 1, 76, 0
3, 19104, Note_on_c, 1, 79, 54
3, 19196, Note_off_c, 1, 79, 0
3, 19200, Note_on_c, 1, 78, 54
3, 19388, Note_off_c, 1, 78, 0
3, 19584, Note_on_c, 1, 78, 54
3, 19584, Note_on_c, 1, 62, 54
3, 19676, Note_off_c, 1, 78, 0
3, 19676, Note_off_c, 1, 62, 0
3, 19680, Note_on_c, 1, 81, 54
3, 19680, Note_on_c, 1, 66, 54
3, 19772, Note_off_c, 1, 81, 0
3, 19772, Note_off_c, 1, 66, 0
3, 19776, Note_on_c, 1, 79, 54
3, 19776, Note_on_c, 1, 64, 54
3, 19868, Note_off_c, 1, 79, 0
3, 19868, Note_off_c, 1, 64, 0
3, 19872, Note_on_c, 1, 83, 54
3, 19872, Note_on_c, 1, 67, 54
3, 19964, Note_off_c, 1, 83, 0
3, 19964, Note_off_c, 1, 67, 0
3, 19968, Note_on_c, 1, 81, 54
3, 19968, Note_on_c, 1, 66, 54
3, 20060, Note_off_c, 1, 81, 0
3, 20060, Note_off_c, 1, 66, 0
3, 20352, Note_on_c, 1, 78, 81
3, 20352, Note_on_c, 1, 74, 81
3, 20352, Note_on_c, 1, 66, 81
3, 20352, Note_on_c, 1, 62, 81
3, 20444, Note_off_c, 1, 78, 0
3, 20448, Note_on_c, 1, 81, 81
3, 20540, Note_off_c, 1, 74, 0
3, 20540, Note_off_c, 1, 66, 0
3, 20540, Note_off_c, 1, 62, 0
3, 20540, Note_off_c, 1, 81, 0
3, 20544, Note_on_c, 1, 79, 81
3, 20544, Note_on_c, 1, 73, 81
3, 20544, Note_on_c, 1, 67, 81
3, 20544, Note_on_c, 1, 62, 81
3, 20636, Note_off_c, 1, 79, 0
3, 20640, Note_on_c, 1, 83, 81
3, 20732, Note_off_c, 1, 73, 0
3, 20732, Note_off_c, 1, 67, 0
3, 20732, Note_off_c, 1, 62, 0
3, 20732, Note_off_c, 1, 83, 0
3, 20736, Note_on_c, 1, 81, 81
3, 20736, Note_on_c, 1, 62, 81
3, 20736, Note_on_c, 1, 72, 81
3, 20736, Note_on_c, 1, 69, 81
3, 20828, Note_off_c, 1, 81, 0
3, 20832, Note_on_c, 1, 84, 81
3, 20924, Note_off_c, 1, 62, 0
3, 20924, Note_off_c, 1, 72, 0
3, 20924, Note_off_c, 1, 69, 0
3, 20924, Note_off_c, 1, 84, 0
3, 20928, Note_on_c, 1, 83, 81
3, 20928, Note_on_c, 1, 62, 81
3, 20928, Note_on_c, 1, 71, 81
3, 20928, Note_on_c, 1, 67, 81
3, 21020, Note_off_c, 1, 83, 0
3, 21024, Note_on_c, 1, 86, 81
3, 21116, Note_off_c, 1, 62, 0
3, 21116, Note_off_c, 1, 71, 0
3, 21116, Note_off_c, 1, 67, 0
3, 21116, Note_off_c, 1, 86, 0
3, 21120, Note_on_c, 1, 84, 81
3, 21120, Note_on_c, 1, 62, 81
3, 21120, Note_on_c, 1, 72, 81
3, 21120, Note_on_c, 1, 66, 81
3, 21212, Note_off_c, 1, 84, 0
3, 21216, Note_on_c, 1, 86, 81
3, 21308, Note_off_c, 1, 62, 0
3, 21308, Note_off_c, 1, 72, 0
3, 21308, Note_off_c, 1, 66, 0
3, 21308, Note_off_c, 1, 86, 0
3, 21312, Note_on_c, 1, 83, 81
3, 21312, Note_on_c, 1, 67, 81
3, 21312, Note_on_c, 1, 62, 81
3, 21312, Note_on_c, 1, 71, 81
3, 21404, Note_off_c, 1, 83, 0
3, 21408, Note_on_c, 1, 84, 81
3, 21500, Note_off_c, 1, 67, 0
3, 21500, Note_off_c, 1, 62, 0
3, 21500, Note_off_c, 1, 71, 0
3, 21500, Note_off_c, 1, 84, 0
3, 21504, Note_on_c, 1, 81, 81
3, 21504, Note_on_c, 1, 69, 81
3, 21504, Note_on_c, 1, 66, 81
3, 21504, Note_on_c, 1, 62, 81
3, 21680, Note_on_c, 1, 62, 81
3, 21692, Note_off_c, 1, 81, 0
3, 21692, Note_off_c, 1, 69, 0
3, 21692, Note_off_c, 1, 66, 0
3, 21692, Note_off_c, 1, 62, 0
3, 21772, Note_off_c, 1, 62, 0
3, 21792, Note_on_c, 1, 66, 81
3, 21884, Note_off_c, 1, 66, 0
3, 21888, Note_on_c, 1, 64, 81
3, 21980, Note_off_c, 1, 64, 0
3, 21984, Note_on_c, 1, 67, 81
3, 22076, Note_off_c, 1, 67, 0
3, 22080, Note_on_c, 1, 66, 81
3, 22172, Note_off_c, 1, 66, 0
3, 22176, Note_on_c, 1, 69, 81
3, 22268, Note_off_c, 1, 69, 0
3, 22272, Note_on_c, 1, 67, 81
3, 22364, Note_off_c, 1, 67, 0
3, 22368, Note_on_c, 1, 71, 81
3, 22460, Note_off_c, 1, 71, 0
3, 22464, Note_on_c, 1, 69, 81
3, 22556, Note_off_c, 1, 69, 0
3, 22560, Note_on_c, 1, 72, 81
3, 22652, Note_off_c, 1, 72, 0
3, 22656, Note_on_c, 1, 71, 81
3, 22748, Note_off_c, 1, 71, 0
3, 22752, Note_on_c, 1, 74, 81
3, 22844, Note_off_c, 1, 74, 0
3, 22848, Note_on_c, 1, 73, 81
3, 22940, Note_off_c, 1, 73, 0
3, 22944, Note_on_c, 1, 76, 81
3, 23036, Note_off_c, 1, 76, 0
3, 23040, Note_on_c, 1, 74, 87
3, 23804, Note_off_c, 1, 74, 0
3, 23808, Note_on_c, 1, 75, 81
3, 23852, Note_off_c, 1, 75, 0
3, 23856, Note_on_c, 1, 76, 81
3, 23900, Note_off_c, 1, 76, 0
3, 23904, Note_on_c, 1, 75, 81
3, 23948, Note_off_c, 1, 75, 0
3, 23952, Note_on_c, 1, 76, 81
3, 23996, Note_off_c, 1, 76, 0
3, 24000, Note_on_c, 1, 75, 81
3, 24044, Note_off_c, 1, 75, 0
3, 24048, Note_on_c, 1, 76, 81
3, 24092, Note_off_c, 1, 76, 0
3, 24096, Note_on_c, 1, 75, 81
3, 24140, Note_off_c, 1, 75, 0
3, 24144, Note_on_c, 1, 76, 81
3, 24188, Note_off_c, 1, 76, 0
3, 24192, Note_on_c, 1, 75, 81
3, 24236, Note_off_c, 1, 75, 0
3, 24240, Note_on_c, 1, 76, 81
3, 24284, Note_off_c, 1, 76, 0
3, 24288, Note_on_c, 1, 75, 81
3, 24332, Note_off_c, 1, 75, 0
3, 24336, Note_on_c, 1, 76, 81
3, 24380, Note_off_c, 1, 76, 0
3, 24384, Note_on_c, 1, 73, 81
3, 24476, Note_off_c, 1, 73, 0
3, 24480, Note_on_c, 1, 75, 81
3, 24576, Note_on_c, 1, 76, 60
3, 24580, Note_off_c, 1, 75, 0
3, 24860, Note_off_c, 1, 76, 0
3, 24864, Note_on_c, 1, 78, 60
3, 24956, Note_off_c, 1, 78, 0
3, 24960, Note_on_c, 1, 79, 60
3, 25244, Note_off_c, 1, 79, 0
3, 25248, Note_on_c, 1, 79, 60
3, 25340, Note_off_c, 1, 79, 0
3, 25344, Note_on_c, 1, 79, 60
3, 25724, Note_off_c, 1, 79, 0
3, 25728, Note_on_c, 1, 79, 60
3, 26108, Note_off_c, 1, 79, 0
3, 26112, Note_on_c, 1, 79, 60
3, 26304, Note_on_c, 1, 67, 60
3, 26304, Note_on_c, 1, 64, 60
3, 26492, Note_off_c, 1, 67, 0
3, 26492, Note_off_c, 1, 64, 0
3, 26496, Note_on_c, 1, 66, 60
3, 26496, Note_on_c, 1, 63, 60
3, 26684, Note_off_c, 1, 66, 0
3, 26684, Note_off_c, 1, 63, 0
3, 26688, Note_on_c, 1, 67, 60
3, 26688, Note_on_c, 1, 64, 60
3, 26876, Note_off_c, 1, 79, 0
3, 26876, Note_off_c, 1, 67, 0
3, 26876, Note_off_c, 1, 64, 0
3, 26880, Note_on_c, 1, 72, 60
3, 26880, Note_on_c, 1, 66, 60
3, 26880, Note_on_c, 1, 63, 60
3, 27068, Note_off_c, 1, 66, 0
3, 27068, Note_off_c, 1, 63, 0
3, 27072, Note_on_c, 1, 67, 60
3, 27072, Note_on_c, 1, 64, 60
3, 27260, Note_off_c, 1, 72, 0
3, 27260, Note_off_c, 1, 67, 0
3, 27260, Note_off_c, 1, 64, 0
3, 27264, Note_on_c, 1, 66, 60
3, 27264, Note_on_c, 1, 63, 60
3, 27452, Note_off_c, 1, 66, 0
3, 27452, Note_off_c, 1, 63, 0
3, 27456, Note_on_c, 1, 67, 60
3, 27456, Note_on_c, 1, 64, 60
3, 27644, Note_off_c, 1, 67, 0
3, 27644, Note_off_c, 1, 64, 0
3, 27648, Note_on_c, 1, 72, 60
3, 27932, Note_off_c, 1, 72, 0
3, 27936, Note_on_c, 1, 74, 60
3, 28028, Note_off_c, 1, 74, 0
3, 28032, Note_on_c, 1, 76, 60
3, 28316, Note_off_c, 1, 76, 0
3, 28320, Note_on_c, 1, 76, 60
3, 28412, Note_off_c, 1, 76, 0
3, 28416, Note_on_c, 1, 76, 60
3, 28796, Note_off_c, 1, 76, 0
3, 28800, Note_on_c, 1, 76, 60
3, 29180, Note_off_c, 1, 76, 0
3, 29184, Note_on_c, 1, 76, 60
3, 29948, Note_off_c, 1, 76, 0
3, 29952, Note_on_c, 1, 69, 60
3, 30332, Note_off_c, 1, 69, 0
3, 30720, Note_on_c, 1, 74, 54
3, 30812, Note_off_c, 1, 74, 0
3, 30816, Note_on_c, 1, 72, 54
3, 30816, Note_on_c, 1, 67, 54
3, 30912, Note_on_c, 1, 67, 54
3, 31004, Note_off_c, 1, 67, 0
3, 31100, Note_off_c, 1, 67, 0
3, 31104, Note_on_c, 1, 71, 54
3, 31104, Note_on_c, 1, 67, 54
3, 31196, Note_off_c, 1, 72, 0
3, 31292, Note_off_c, 1, 71, 0
3, 31292, Note_off_c, 1, 67, 0
3, 31296, Note_on_c, 1, 69, 54
3, 31296, Note_on_c, 1, 67, 54
3, 31484, Note_off_c, 1, 69, 0
3, 31484, Note_off_c, 1, 67, 0
3, 31488, Note_on_c, 1, 67, 54
3, 31488, Note_on_c, 1, 67, 54
3, 31676, Note_off_c, 1, 67, 0
3, 31680, Note_on_c, 1, 67, 54
3, 31868, Note_off_c, 1, 67, 0
3, 31868, Note_off_c, 1, 67, 0
3, 31872, Note_on_c, 1, 67, 54
3, 31872, Note_on_c, 1, 64, 54
3, 31872, Note_on_c, 1, 67, 54
3, 32060, Note_off_c, 1, 67, 0
3, 32060, Note_off_c, 1, 64, 0
3, 32064, Note_on_c, 1, 67, 54
3, 32064, Note_on_c, 1, 64, 54
3, 32252, Note_off_c, 1, 67, 0
3, 32252, Note_off_c, 1, 67, 0
3, 32252, Note_off_c, 1, 64, 0
3, 32256, Note_on_c, 1, 69, 54
3, 32256, Note_on_c, 1, 66, 54
3, 32256, Note_on_c, 1, 62, 54
3, 32444, Note_off_c, 1, 69, 0
3, 32448, Note_on_c, 1, 71, 54
3, 32636, Note_off_c, 1, 71, 0
3, 32640, Note_on_c, 1, 72, 54
3, 32828, Note_off_c, 1, 72, 0
3, 32832, Note_on_c, 1, 73, 54
3, 33020, Note_off_c, 1, 66, 0
3, 33020, Note_off_c, 1, 62, 0
3, 33020, Note_off_c, 1, 73, 0
3, 33024, Note_on_c, 1, 74, 54
3, 33024, Note_on_c, 1, 67, 54
3, 33024, Note_on_c, 1, 62, 54
3, 33212, Note_off_c, 1, 74, 0
3, 33212, Note_off_c, 1, 67, 0
3, 33212, Note_off_c, 1, 62, 0
3, 33216, Note_on_c, 1, 76, 81
3, 33216, Note_on_c, 1, 64, 81
3, 33404, Note_off_c, 1, 76, 0
3, 33404, Note_off_c, 1, 64, 0
3, 33408, Note_on_c, 1, 78, 81
3, 33408, Note_on_c, 1, 66, 81
3, 33596, Note_off_c, 1, 78, 0
3, 33596, Note_off_c, 1, 66, 0
3, 33600, Note_on_c, 1, 79, 81
3, 33600, Note_on_c, 1, 67, 81
3, 33788, Note_off_c, 1, 79, 0
3, 33788, Note_off_c, 1, 67, 0
3, 33792, Note_on_c, 1, 71, 81
3, 33792, Note_on_c, 1, 67, 81
3, 34556, Note_off_c, 1, 71, 0
3, 34556, Note_off_c, 1, 67, 0
3, 34560, Note_on_c, 1, 74, 81
3, 34560, Note_on_c, 1, 71, 81
3, 34652, Note_off_c, 1, 74, 0
3, 34652, Note_off_c, 1, 71, 0
3, 34656, Note_on_c, 1, 72, 81
3, 34656, Note_on_c, 1, 69, 81
3, 34944, Note_off_c, 1, 72, 0
3, 34944, Note_off_c, 1, 69, 0
3, 34944, Note_on_c, 1, 71, 81
3, 34944, Note_on_c, 1, 67, 81
3, 35036, Note_off_c, 1, 71, 0
3, 35036, Note_off_c, 1, 67, 0
3, 35040, Note_on_c, 1, 66, 81
3, 35040, Note_on_c, 1, 69, 81
3, 35328, Note_off_c, 1, 66, 0
3, 35328, Note_off_c, 1, 69, 0
3, 35328, Note_on_c, 1, 67, 81
3, 35420, Note_off_c, 1, 67, 0
3, 35424, Note_on_c, 1, 66, 81
3, 35516, Note_off_c, 1, 66, 0
3, 35520, Note_on_c, 1, 67, 81
3, 35612, Note_off_c, 1, 67, 0
3, 35616, Note_on_c, 1, 69, 81
3, 35708, Note_off_c, 1, 69, 0
3, 35712, Note_on_c, 1, 71, 81
3, 35804, Note_off_c, 1, 71, 0
3, 35808, Note_on_c, 1, 72, 54
3, 35900, Note_off_c, 1, 72, 0
3, 35904, Note_on_c, 1, 69, 54
3, 35904, Note_on_c, 1, 74, 54
3, 35996, Note_off_c, 1, 69, 0
3, 36000, Note_on_c, 1, 71, 54
3, 36092, Note_off_c, 1, 74, 0
3, 36092, Note_off_c, 1, 71, 0
3, 36096, Note_on_c, 1, 67, 54
3, 36096, Note_on_c, 1, 72, 54
3, 36188, Note_off_c, 1, 67, 0
3, 36192, Note_on_c, 1, 66, 54
3, 36284, Note_off_c, 1, 66, 0
3, 36288, Note_on_c, 1, 67, 54
3, 36380, Note_off_c, 1, 67, 0
3, 36384, Note_on_c, 1, 69, 54
3, 36476, Note_off_c, 1, 72, 0
3, 36476, Note_off_c, 1, 69, 0
3, 36480, Note_on_c, 1, 66, 54
3, 36480, Note_on_c, 1, 71, 54
3, 36572, Note_off_c, 1, 66, 0
3, 36576, Note_on_c, 1, 64, 54
3, 36668, Note_off_c, 1, 64, 0
3, 36672, Note_on_c, 1, 66, 54
3, 36764, Note_off_c, 1, 66, 0
3, 36768, Note_on_c, 1, 67, 54
3, 36860, Note_off_c, 1, 71, 0
3, 36860, Note_off_c, 1, 67, 0
3, 36864, Note_on_c, 1, 69, 54
3, 36864, Note_on_c, 1, 64, 54
3, 36956, Note_off_c, 1, 64, 0
3, 36960, Note_on_c, 1, 62, 54
3, 37052, Note_off_c, 1, 62, 0
3, 37056, Note_on_c, 1, 60, 54
3, 37148, Note_off_c, 1, 60, 0
3, 37152, Note_on_c, 1, 59, 54
3, 37244, Note_off_c, 1, 69, 0
3, 37244, Note_off_c, 1, 59, 0
3, 37248, Note_on_c, 1, 57, 54
3, 37340, Note_off_c, 1, 57, 0
3, 37344, Note_on_c, 1, 59, 54
3, 37436, Note_off_c, 1, 59, 0
3, 37440, Note_on_c, 1, 64, 54
3, 37440, Note_on_c, 1, 60, 54
3, 37532, Note_off_c, 1, 60, 0
3, 37536, Note_on_c, 1, 57, 54
3, 37628, Note_off_c, 1, 64, 0
3, 37628, Note_off_c, 1, 57, 0
3, 37632, Note_on_c, 1, 67, 54
3, 37632, Note_on_c, 1, 59, 54
3, 37724, Note_off_c, 1, 59, 0
3, 37728, Note_on_c, 1, 60, 54
3, 37820, Note_off_c, 1, 60, 0
3, 37824, Note_on_c, 1, 62, 54
3, 37916, Note_off_c, 1, 62, 0
3, 37920, Note_on_c, 1, 59, 54
3, 38012, Note_off_c, 1, 67, 0
3, 38012, Note_off_c, 1, 59, 0
3, 38016, Note_on_c, 1, 69, 54
3, 38016, Note_on_c, 1, 60, 54
3, 38108, Note_off_c, 1, 60, 0
3, 38112, Note_on_c, 1, 62, 54
3, 38204, Note_off_c, 1, 62, 0
3, 38208, Note_on_c, 1, 64, 54
3, 38300, Note_off_c, 1, 64, 0
3, 38304, Note_on_c, 1, 66, 54
3, 38396, Note_off_c, 1, 69, 0
3, 38396, Note_off_c, 1, 66, 0
3, 38400, Note_on_c, 1, 71, 54
3, 38400, Note_on_c, 1, 67, 54
3, 38492, Note_off_c, 1, 67, 0
3, 38496, Note_on_c, 1, 66, 54
3, 38588, Note_off_c, 1, 66, 0
3, 38592, Note_on_c, 1, 67, 54
3, 38684, Note_off_c, 1, 67, 0
3, 38688, Note_on_c, 1, 69, 54
3, 38780, Note_off_c, 1, 71, 0
3, 38780, Note_off_c, 1, 69, 0
3, 38784, Note_on_c, 1, 71, 54
3, 38876, Note_off_c, 1, 71, 0
3, 38880, Note_on_c, 1, 72, 54
3, 38960, Note_on_c, 1, 69, 54
3, 38972, Note_off_c, 1, 72, 0
3, 38976, Note_on_c, 1, 74, 54
3, 39052, Note_off_c, 1, 69, 0
3, 39072, Note_on_c, 1, 71, 54
3, 39164, Note_off_c, 1, 74, 0
3, 39164, Note_off_c, 1, 71, 0
3, 39168, Note_on_c, 1, 72, 54
3, 39168, Note_on_c, 1, 67, 54
3, 39260, Note_off_c, 1, 67, 0
3, 39264, Note_on_c, 1, 66, 54
3, 39356, Note_off_c, 1, 66, 0
3, 39360, Note_on_c, 1, 67, 54
3, 39452, Note_off_c, 1, 67, 0
3, 39456, Note_on_c, 1, 69, 54
3, 39548, Note_off_c, 1, 72, 0
3, 39548, Note_off_c, 1, 69, 0
3, 39552, Note_on_c, 1, 71, 54
3, 39552, Note_on_c, 1, 66, 54
3, 39644, Note_off_c, 1, 66, 0
3, 39648, Note_on_c, 1, 64, 54
3, 39740, Note_off_c, 1, 64, 0
3, 39744, Note_on_c, 1, 66, 54
3, 39836, Note_off_c, 1, 66, 0
3, 39840, Note_on_c, 1, 67, 54
3, 39932, Note_off_c, 1, 71, 0
3, 39932, Note_off_c, 1, 67, 0
3, 39936, Note_on_c, 1, 69, 54
3, 39936, Note_on_c, 1, 64, 54
3, 40028, Note_off_c, 1, 64, 0
3, 40032, Note_on_c, 1, 62, 54
3, 40124, Note_off_c, 1, 62, 0
3, 40128, Note_on_c, 1, 60, 54
3, 40220, Note_off_c, 1, 60, 0
3, 40224, Note_on_c, 1, 59, 54
3, 40316, Note_off_c, 1, 69, 0
3, 40316, Note_off_c, 1, 59, 0
3, 40320, Note_on_c, 1, 57, 54
3, 40412, Note_off_c, 1, 57, 0
3, 40416, Note_on_c, 1, 59, 54
3, 40508, Note_off_c, 1, 59, 0
3, 40512, Note_on_c, 1, 64, 54
3, 40512, Note_on_c, 1, 60, 54
3, 40604, Note_off_c, 1, 60, 0
3, 40608, Note_on_c, 1, 57, 54
3, 40700, Note_off_c, 1, 64, 0
3, 40700, Note_off_c, 1, 57, 0
3, 40704, Note_on_c, 1, 67, 54
3, 40704, Note_on_c, 1, 59, 54
3, 40796, Note_off_c, 1, 59, 0
3, 40800, Note_on_c, 1, 60, 54
3, 40892, Note_off_c, 1, 60, 0
3, 40896, Note_on_c, 1, 62, 54
3, 40988, Note_off_c, 1, 62, 0
3, 40992, Note_on_c, 1, 59, 54
3, 41084, Note_off_c, 1, 67, 0
3, 41084, Note_off_c, 1, 59, 0
3, 41088, Note_on_c, 1, 69, 54
3, 41088, Note_on_c, 1, 60, 54
3, 41180, Note_off_c, 1, 60, 0
3, 41184, Note_on_c, 1, 62, 54
3, 41276, Note_off_c, 1, 62, 0
3, 41280, Note_on_c, 1, 64, 54
3, 41372, Note_off_c, 1, 64, 0
3, 41376, Note_on_c, 1, 66, 54
3, 41468, Note_off_c, 1, 69, 0
3, 41468, Note_off_c, 1, 66, 0
3, 41472, Note_on_c, 1, 67, 87
3, 41472, Note_on_c, 1, 59, 87
3, 41660, Note_off_c, 1, 67, 0
3, 41660, Note_off_c, 1, 59, 0
3, 41664, Note_on_c, 1, 83, 81
3, 41756, Note_off_c, 1, 83, 0
3, 41760, Note_on_c, 1, 79, 81
3, 41852, Note_off_c, 1, 79, 0
3, 41856, Note_on_c, 1, 74, 81
3, 42044, Note_off_c, 1, 74, 0
3, 42048, Note_on_c, 1, 79, 81
3, 42140, Note_off_c, 1, 79, 0
3, 42144, Note_on_c, 1, 74, 81
3, 42236, Note_off_c, 1, 74, 0
3, 42240, Note_on_c, 1, 71, 81
3, 42428, Note_off_c, 1, 71, 0
3, 42432, Note_on_c, 1, 74, 81
3, 42524, Note_off_c, 1, 74, 0
3, 42528, Note_on_c, 1, 71, 81
3, 42620, Note_off_c, 1, 71, 0
3, 42624, Note_on_c, 1, 72, 81
3, 42716, Note_off_c, 1, 72, 0
3, 42720, Note_on_c, 1, 69, 81
3, 42812, Note_off_c, 1, 69, 0
3, 42816, Note_on_c, 1, 81, 81
3, 42908, Note_off_c, 1, 81, 0
3, 42912, Note_on_c, 1, 78, 81
3, 43004, Note_off_c, 1, 78, 0
3, 43008, Note_on_c, 1, 79, 81
3, 43008, Note_on_c, 1, 71, 81
3, 43196, Note_off_c, 1, 79, 0
3, 43196, Note_off_c, 1, 71, 0
3, 43200, Note_on_c, 1, 83, 81
3, 43292, Note_off_c, 1, 83, 0
3, 43296, Note_on_c, 1, 79, 81
3, 43388, Note_off_c, 1, 79, 0
3, 43392, Note_on_c, 1, 74, 81
3, 43580, Note_off_c, 1, 74, 0
3, 43584, Note_on_c, 1, 79, 81
3, 43676, Note_off_c, 1, 79, 0
3, 43680, Note_on_c, 1, 74, 81
3, 43772, Note_off_c, 1, 74, 0
3, 43776, Note_on_c, 1, 71, 81
3, 43964, Note_off_c, 1, 71, 0
3, 43968, Note_on_c, 1, 74, 81
3, 44060, Note_off_c, 1, 74, 0
3, 44064, Note_on_c, 1, 71, 81
3, 44156, Note_off_c, 1, 71, 0
3, 44160, Note_on_c, 1, 72, 81
3, 44252, Note_off_c, 1, 72, 0
3, 44256, Note_on_c, 1, 69, 81
3, 44348, Note_off_c, 1, 69, 0
3, 44352, Note_on_c, 1, 81, 81
3, 44444, Note_off_c, 1, 81, 0
3, 44448, Note_on_c, 1, 78, 81
3, 44540, Note_off_c, 1, 78, 0
3, 44544, Note_on_c, 1, 79, 81
3, 44636, Note_off_c, 1, 79, 0
3, 44640, Note_on_c, 1, 83, 81
3, 44732, Note_off_c, 1, 83, 0
3, 44736, Note_on_c, 1, 74, 81
3, 44828, Note_off_c, 1, 74, 0
3, 44832, Note_on_c, 1, 71, 81
3, 44924, Note_off_c, 1, 71, 0
3, 44928, Note_on_c, 1, 72, 81
3, 45020, Note_off_c, 1, 72, 0
3, 45024, Note_on_c, 1, 69, 81
3, 45116, Note_off_c, 1, 69, 0
3, 45120, Note_on_c, 1, 81, 81
3, 45212, Note_off_c, 1, 81, 0
3, 45216, Note_on_c, 1, 78, 81
3, 45308, Note_off_c, 1, 78, 0
3, 45312, Note_on_c, 1, 79, 81
3, 45404, Note_off_c, 1, 79, 0
3, 45408, Note_on_c, 1, 83, 81
3, 45500, Note_off_c, 1, 83, 0
3, 45504, Note_on_c, 1, 74, 81
3, 45596, Note_off_c, 1, 74, 0
3, 45600, Note_on_c, 1, 71, 81
3, 45692, Note_off_c, 1, 71, 0
3, 45696, Note_on_c, 1, 72, 81
3, 45788, Note_off_c, 1, 72, 0
3, 45792, Note_on_c, 1, 69, 81
3, 45884, Note_off_c, 1, 69, 0
3, 45888, Note_on_c, 1, 81, 81
3, 45980, Note_off_c, 1, 81, 0
3, 45984, Note_on_c, 1, 78, 81
3, 46076, Note_off_c, 1, 78, 0
3, 46080, Note_on_c, 1, 79, 84
3, 46080, Note_on_c, 1, 74, 84
3, 46080, Note_on_c, 1, 71, 84
3, 46460, Note_off_c, 1, 79, 0
3, 46460, Note_off_c, 1, 74, 0
3, 46460, Note_off_c, 1, 71, 0
3, 46464, Note_on_c, 1, 67, 84
3, 46748, Note_off_c, 1, 67, 0
3, 46752, Note_on_c, 1, 67, 84
3, 46844, Note_off_c, 1, 67, 0
3, 46848, Note_on_c, 1, 67, 84
3, 47228, Note_off_c, 1, 67, 0
3, 47616, Note_on_c, 1, 71, 54
3, 47616, Note_on_c, 1, 67, 54
3, 47616, Note_on_c, 1, 62, 54
3, 47804, Note_off_c, 1, 71, 0
3, 47804, Note_off_c, 1, 67, 0
3, 47804, Note_off_c, 1, 62, 0
3, 47808, Note_on_c, 1, 71, 54
3, 47808, Note_on_c, 1, 67, 54
3, 47808, Note_on_c, 1, 62, 54
3, 47996, Note_off_c, 1, 71, 0
3, 47996, Note_off_c, 1, 67, 0
3, 47996, Note_off_c, 1, 62, 0
3, 48000, Note_on_c, 1, 71, 54
3, 48000, Note_on_c, 1, 67, 54
3, 48000, Note_on_c, 1, 62, 54
3, 48188, Note_off_c, 1, 71, 0
3, 48188, Note_off_c, 1, 67, 0
3, 48188, Note_off_c, 1, 62, 0
3, 48192, Note_on_c, 1, 71, 54
3, 48192, Note_on_c, 1, 67, 54
3, 48192, Note_on_c, 1, 62, 54
3, 48380, Note_off_c, 1, 71, 0
3, 48380, Note_off_c, 1, 67, 0
3, 48380, Note_off_c, 1, 62, 0
3, 48384, Note_on_c, 1, 71, 54
3, 48384, Note_on_c, 1, 67, 54
3, 48384, Note_on_c, 1, 62, 54
3, 48572, Note_off_c, 1, 71, 0
3, 48572, Note_off_c, 1, 67, 0
3, 48572, Note_off_c, 1, 62, 0
3, 48576, Note_on_c, 1, 71, 54
3, 48576, Note_on_c, 1, 67, 54
3, 48576, Note_on_c, 1, 62, 54
3, 48764, Note_off_c, 1, 71, 0
3, 48764, Note_off_c, 1, 67, 0
3, 48764, Note_off_c, 1, 62, 0
3, 48768, Note_on_c, 1, 71, 54
3, 48768, Note_on_c, 1, 67, 54
3, 48768, Note_on_c, 1, 62, 54
3, 48956, Note_off_c, 1, 71, 0
3, 48956, Note_off_c, 1, 67, 0
3, 48956, Note_off_c, 1, 62, 0
3, 48960, Note_on_c, 1, 71, 54
3, 48960, Note_on_c, 1, 67, 54
3, 48960, Note_on_c, 1, 62, 54
3, 49148, Note_off_c, 1, 71, 0
3, 49148, Note_off_c, 1, 67, 0
3, 49148, Note_off_c, 1, 62, 0
3, 49152, Note_on_c, 1, 72, 54
3, 49152, Note_on_c, 1, 69, 54
3, 49152, Note_on_c, 1, 62, 54
3, 49340, Note_off_c, 1, 72, 0
3, 49340, Note_off_c, 1, 69, 0
3, 49340, Note_off_c, 1, 62, 0
3, 49344, Note_on_c, 1, 72, 54
3, 49344, Note_on_c, 1, 69, 54
3, 49344, Note_on_c, 1, 62, 54
3, 49532, Note_off_c, 1, 72, 0
3, 49532, Note_off_c, 1, 69, 0
3, 49532, Note_off_c, 1, 62, 0
3, 49536, Note_on_c, 1, 72, 54
3, 49536, Note_on_c, 1, 69, 54
3, 49536, Note_on_c, 1, 62, 54
3, 49724, Note_off_c, 1, 72, 0
3, 49724, Note_off_c, 1, 69, 0
3, 49724, Note_off_c, 1, 62, 0
3, 49728, Note_on_c, 1, 72, 54
3, 49728, Note_on_c, 1, 69, 54
3, 49728, Note_on_c, 1, 62, 54
3, 49916, Note_off_c, 1, 72, 0
3, 49916, Note_off_c, 1, 69, 0
3, 49916, Note_off_c, 1, 62, 0
3, 49920, Note_on_c, 1, 72, 54
3, 49920, Note_on_c, 1, 69, 54
3, 49920, Note_on_c, 1, 62, 54
3, 50108, Note_off_c, 1, 72, 0
3, 50108, Note_off_c, 1, 69, 0
3, 50108, Note_off_c, 1, 62, 0
3, 50112, Note_on_c, 1, 72, 54
3, 50112, Note_on_c, 1, 69, 54
3, 50112, Note_on_c, 1, 62, 54
3, 50300, Note_off_c, 1, 72, 0
3, 50300, Note_off_c, 1, 69, 0
3, 50300, Note_off_c, 1, 62, 0
3, 50304, Note_on_c, 1, 72, 54
3, 50304, Note_on_c, 1, 69, 54
3, 50304, Note_on_c, 1, 62, 54
3, 50492, Note_off_c, 1, 72, 0
3, 50492, Note_off_c, 1, 69, 0
3, 50492, Note_off_c, 1, 62, 0
3, 50496, Note_on_c, 1, 72, 54
3, 50496, Note_on_c, 1, 69, 54
3, 50496, Note_on_c, 1, 62, 54
3, 50684, Note_off_c, 1, 72, 0
3, 50684, Note_off_c, 1, 69, 0
3, 50684, Note_off_c, 1, 62, 0
3, 50688, Note_on_c, 1, 71, 54
3, 50688, Note_on_c, 1, 67, 54
3, 50688, Note_on_c, 1, 62, 54
3, 51068, Note_off_c, 1, 71, 0
3, 51068, Note_off_c, 1, 67, 0
3, 51068, Note_off_c, 1, 62, 0
3, 51072, Note_on_c, 1, 62, 54
3, 51072, Note_on_c, 1, 71, 54
3, 51072, Note_on_c, 1, 67, 54
3, 51452, Note_off_c, 1, 62, 0
3, 51456, Note_on_c, 1, 64, 54
3, 51836, Note_off_c, 1, 71, 0
3, 51836, Note_off_c, 1, 67, 0
3, 51836, Note_off_c, 1, 64, 0
3, 51840, Note_on_c, 1, 69, 54
3, 51840, Note_on_c, 1, 66, 54
3, 51840, Note_on_c, 1, 62, 54
3, 52220, Note_off_c, 1, 69, 0
3, 52220, Note_off_c, 1, 66, 0
3, 52220, Note_off_c, 1, 62, 0
3, 52224, Note_on_c, 1, 67, 54
3, 52224, Note_on_c, 1, 62, 54
3, 52604, Note_off_c, 1, 67, 0
3, 52604, Note_off_c, 1, 62, 0
3, 52608, Note_on_c, 1, 71, 54
3, 52608, Note_on_c, 1, 67, 54
3, 52988, Note_off_c, 1, 71, 0
3, 52988, Note_off_c, 1, 67, 0
3, 52992, Note_on_c, 1, 74, 54
3, 52992, Note_on_c, 1, 71, 54
3, 53372, Note_off_c, 1, 74, 0
3, 53372, Note_off_c, 1, 71, 0
3, 53376, Note_on_c, 1, 79, 54
3, 53376, Note_on_c, 1, 74, 54
3, 53756, Note_off_c, 1, 79, 0
3, 53756, Note_off_c, 1, 74, 0
3, 53760, Note_on_c, 1, 83, 54
3, 53760, Note_on_c, 1, 74, 54
3, 53948, Note_off_c, 1, 83, 0
3, 53948, Note_off_c, 1, 74, 0
3, 53952, Note_on_c, 1, 67, 54
3, 54140, Note_off_c, 1, 67, 0
3, 54144, Note_on_c, 1, 67, 54
3, 54144, Note_on_c, 1, 59, 54
3, 54332, Note_off_c, 1, 67, 0
3, 54332, Note_off_c, 1, 59, 0
3, 54336, Note_on_c, 1, 67, 54
3, 54336, Note_on_c, 1, 59, 54
3, 54524, Note_off_c, 1, 67, 0
3, 54524, Note_off_c, 1, 59, 0
3, 54528, Note_on_c, 1, 67, 54
3, 54528, Note_on_c, 1, 59, 54
3, 54716, Note_off_c, 1, 67, 0
3, 54716, Note_off_c, 1, 59, 0
3, 54720, Note_on_c, 1, 67, 54
3, 54720, Note_on_c, 1, 59, 54
3, 54908, Note_off_c, 1, 67, 0
3, 54908, Note_off_c, 1, 59, 0
3, 54912, Note_on_c, 1, 67, 54
3, 54912, Note_on_c, 1, 59, 54
3, 55100, Note_off_c, 1, 67, 0
3, 55100, Note_off_c, 1, 59, 0
3, 55104, Note_on_c, 1, 67, 54
3, 55104, Note_on_c, 1, 59, 54
3, 55292, Note_off_c, 1, 67, 0
3, 55292, Note_off_c, 1, 59, 0
3, 55296, Note_on_c, 1, 72, 54
3, 55296, Note_on_c, 1, 69, 54
3, 55296, Note_on_c, 1, 62, 54
3, 55484, Note_off_c, 1, 72, 0
3, 55484, Note_off_c, 1, 69, 0
3, 55484, Note_off_c, 1, 62, 0
3, 55488, Note_on_c, 1, 72, 54
3, 55488, Note_on_c, 1, 69, 54
3, 55488, Note_on_c, 1, 62, 54
3, 55676, Note_off_c, 1, 72, 0
3, 55676, Note_off_c, 1, 69, 0
3, 55676, Note_off_c, 1, 62, 0
3, 55680, Note_on_c, 1, 72, 54
3, 55680, Note_on_c, 1, 69, 54
3, 55680, Note_on_c, 1, 62, 54
3, 55868, Note_off_c, 1, 72, 0
3, 55868, Note_off_c, 1, 69, 0
3, 55868, Note_off_c, 1, 62, 0
3, 55872, Note_on_c, 1, 72, 54
3, 55872, Note_on_c, 1, 69, 54
3, 55872, Note_on_c, 1, 62, 54
3, 56060, Note_off_c, 1, 72, 0
3, 56060, Note_off_c, 1, 69, 0
3, 56060, Note_off_c, 1, 62, 0
3, 56064, Note_on_c, 1, 72, 54
3, 56064, Note_on_c, 1, 69, 54
3, 56064, Note_on_c, 1, 62, 54
3, 56252, Note_off_c, 1, 72, 0
3, 56252, Note_off_c, 1, 69, 0
3, 56252, Note_off_c, 1, 62, 0
3, 56256, Note_on_c, 1, 72, 54
3, 56256, Note_on_c, 1, 69, 54
3, 56256, Note_on_c, 1, 62, 54
3, 56444, Note_off_c, 1, 72, 0
3, 56444, Note_off_c, 1, 69, 0
3, 56444, Note_off_c, 1, 62, 0
3, 56448, Note_on_c, 1, 69, 54
3, 56448, Note_on_c, 1, 66, 54
3, 56448, Note_on_c, 1, 62, 54
3, 56636, Note_off_c, 1, 69, 0
3, 56636, Note_off_c, 1, 66, 0
3, 56636, Note_off_c, 1, 62, 0
3, 56640, Note_on_c, 1, 69, 54
3, 56640, Note_on_c, 1, 66, 54
3, 56640, Note_on_c, 1, 62, 54
3, 56828, Note_off_c, 1, 69, 0
3, 56828, Note_off_c, 1, 66, 0
3, 56828, Note_off_c, 1, 62, 0
3, 56832, Note_on_c, 1, 67, 54
3, 56924, Note_off_c, 1, 67, 0
3, 56928, Note_on_c, 1, 69, 54
3, 57020, Note_off_c, 1, 69, 0
3, 57024, Note_on_c, 1, 71, 54
3, 57116, Note_off_c, 1, 71, 0
3, 57120, Note_on_c, 1, 69, 54
3, 57212, Note_off_c, 1, 69, 0
3, 57216, Note_on_c, 1, 67, 54
3, 57308, Note_off_c, 1, 67, 0
3, 57312, Note_on_c, 1, 66, 54
3, 57404, Note_off_c, 1, 66, 0
3, 57408, Note_on_c, 1, 64, 54
3, 57500, Note_off_c, 1, 64, 0
3, 57504, Note_on_c, 1, 62, 54
3, 57596, Note_off_c, 1, 62, 0
3, 57984, Note_on_c, 1, 74, 54
3, 58076, Note_off_c, 1, 74, 0
3, 58080, Note_on_c, 1, 72, 54
3, 58172, Note_off_c, 1, 72, 0
3, 58176, Note_on_c, 1, 71, 54
3, 58268, Note_off_c, 1, 71, 0
3, 58272, Note_on_c, 1, 69, 54
3, 58364, Note_off_c, 1, 69, 0
3, 58368, Note_on_c, 1, 67, 54
3, 58368, Note_on_c, 1, 67, 54
3, 58460, Note_off_c, 1, 67, 0
3, 58464, Note_on_c, 1, 69, 54
3, 58556, Note_off_c, 1, 69, 0
3, 58560, Note_on_c, 1, 71, 54
3, 58652, Note_off_c, 1, 71, 0
3, 58656, Note_on_c, 1, 69, 54
3, 58748, Note_off_c, 1, 69, 0
3, 58752, Note_on_c, 1, 67, 54
3, 58844, Note_off_c, 1, 67, 0
3, 58848, Note_on_c, 1, 66, 54
3, 58940, Note_off_c, 1, 66, 0
3, 58944, Note_on_c, 1, 64, 54
3, 59036, Note_off_c, 1, 64, 0
3, 59040, Note_on_c, 1, 62, 54
3, 59132, Note_off_c, 1, 67, 0
3, 59132, Note_off_c, 1, 62, 0
3, 59136, Note_on_c, 1, 72, 54
3, 59136, Note_on_c, 1, 66, 54
3, 59516, Note_off_c, 1, 72, 0
3, 59516, Note_off_c, 1, 66, 0
3, 59520, Note_on_c, 1, 74, 54
3, 59612, Note_off_c, 1, 74, 0
3, 59616, Note_on_c, 1, 72, 54
3, 59708, Note_off_c, 1, 72, 0
3, 59712, Note_on_c, 1, 71, 54
3, 59804, Note_off_c, 1, 71, 0
3, 59808, Note_on_c, 1, 69, 54
3, 59900, Note_off_c, 1, 69, 0
3, 59904, Note_on_c, 1, 67, 54
3, 59904, Note_on_c, 1, 59, 54
3, 60092, Note_off_c, 1, 67, 0
3, 60092, Note_off_c, 1, 59, 0
3, 60288, Note_on_c, 1, 69, 54
3, 60288, Note_on_c, 1, 66, 54
3, 60288, Note_on_c, 1, 60, 54
3, 60476, Note_off_c, 1, 69, 0
3, 60476, Note_off_c, 1, 66, 0
3, 60476, Note_off_c, 1, 60, 0
3, 60672, Note_on_c, 1, 67, 54
3, 60672, Note_on_c, 1, 59, 54
3, 60860, Note_off_c, 1, 67, 0
3, 60860, Note_off_c, 1, 59, 0
3, 61056, Note_on_c, 1, 69, 54
3, 61056, Note_on_c, 1, 66, 54
3, 61056, Note_on_c, 1, 60, 54
3, 61244, Note_off_c, 1, 69, 0
3, 61244, Note_off_c, 1, 66, 0
3, 61244, Note_off_c, 1, 60, 0
3, 61440, Note_on_c, 1, 67, 54
3, 61440, Note_on_c, 1, 59, 54
3, 61628, Note_off_c, 1, 67, 0
3, 61628, Note_off_c, 1, 59, 0
3, 61632, Note_on_c, 1, 67, 54
3, 61632, Note_on_c, 1, 59, 54
3, 61820, Note_off_c, 1, 67, 0
3, 61824, Note_on_c, 1, 67, 54
3, 61824, Note_on_c, 1, 66, 54
3, 62012, Note_off_c, 1, 59, 0
3, 62012, Note_off_c, 1, 67, 0
3, 62012, Note_off_c, 1, 66, 0
3, 62016, Note_on_c, 1, 67, 54
3, 62016, Note_on_c, 1, 64, 54
3, 62016, Note_on_c, 1, 60, 54
3, 62204, Note_off_c, 1, 67, 0
3, 62204, Note_off_c, 1, 64, 0
3, 62204, Note_off_c, 1, 60, 0
3, 62208, Note_on_c, 1, 67, 54
3, 62208, Note_on_c, 1, 62, 54
3, 62588, Note_off_c, 1, 67, 0
3, 62588, Note_off_c, 1, 62, 0
3, 62976, Note_on_c, 1, 76, 54
3, 62976, Note_on_c, 1, 67, 54
3, 63740, Note_off_c, 1, 76, 0
3, 63740, Note_off_c, 1, 67, 0
3, 63744, Note_on_c, 1, 69, 54
3, 63744, Note_on_c, 1, 62, 54
3, 64508, Note_off_c, 1, 69, 0
3, 64508, Note_off_c, 1, 62, 0
3, 64512, Note_on_c, 1, 67, 54
3, 64512, Note_on_c, 1, 62, 54
3, 64512, Note_on_c, 1, 59, 54
3, 64892, Note_off_c, 1, 67, 0
3, 64892, Note_off_c, 1, 62, 0
3, 64892, Note_off_c, 1, 59, 0
3, 66240, Note_on_c, 1, 64, 54
3, 66240, Note_on_c, 1, 67, 54
3, 66428, Note_off_c, 1, 64, 0
3, 66428, Note_off_c, 1, 67, 0
3, 66432, Note_on_c, 1, 74, 54
3, 66620, Note_off_c, 1, 74, 0
3, 66624, Note_on_c, 1, 71, 54
3, 66624, Note_on_c, 1, 67, 54
3, 66812, Note_off_c, 1, 71, 0
3, 66812, Note_off_c, 1, 67, 0
3, 66816, Note_on_c, 1, 76, 54
3, 66816, Note_on_c, 1, 67, 54
3, 67004, Note_off_c, 1, 76, 0
3, 67004, Note_off_c, 1, 67, 0
3, 67008, Note_on_c, 1, 76, 54
3, 67008, Note_on_c, 1, 67, 54
3, 67196, Note_off_c, 1, 76, 0
3, 67196, Note_off_c, 1, 67, 0
3, 67200, Note_on_c, 1, 72, 54
3, 67200, Note_on_c, 1, 66, 54
3, 67388, Note_off_c, 1, 72, 0
3, 67388, Note_off_c, 1, 66, 0
3, 67392, Note_on_c, 1, 72, 54
3, 67392, Note_on_c, 1, 66, 54
3, 67580, Note_off_c, 1, 72, 0
3, 67580, Note_off_c, 1, 66, 0
3, 67584, Note_on_c, 1, 71, 87
3, 67584, Note_on_c, 1, 67, 87
3, 67584, Note_on_c, 1, 62, 87
3, 67772, Note_off_c, 1, 71, 0
3, 67772, Note_off_c, 1, 67, 0
3, 67772, Note_off_c, 1, 62, 0
3, 67776, Note_on_c, 1, 83, 81
3, 67868, Note_off_c, 1, 83, 0
3, 67872, Note_on_c, 1, 79, 81
3, 67964, Note_off_c, 1, 79, 0
3, 67968, Note_on_c, 1, 74, 81
3, 68156, Note_off_c, 1, 74, 0
3, 68160, Note_on_c, 1, 79, 81
3, 68252, Note_off_c, 1, 79, 0
3, 68256, Note_on_c, 1, 74, 81
3, 68348, Note_off_c, 1, 74, 0
3, 68352, Note_on_c, 1, 71, 81
3, 68540, Note_off_c, 1, 71, 0
3, 68544, Note_on_c, 1, 74, 81
3, 68636, Note_off_c, 1, 74, 0
3, 68640, Note_on_c, 1, 71, 81
3, 68732, Note_off_c, 1, 71, 0
3, 68736, Note_on_c, 1, 72, 81
3, 68828, Note_off_c, 1, 72, 0
3, 68832, Note_on_c, 1, 69, 81
3, 68924, Note_off_c, 1, 69, 0
3, 68928, Note_on_c, 1, 81, 81
3, 69020, Note_off_c, 1, 81, 0
3, 69024, Note_on_c, 1, 78, 81
3, 69116, Note_off_c, 1, 78, 0
3, 69120, Note_on_c, 1, 79, 81
3, 69212, Note_off_c, 1, 79, 0
3, 69216, Note_on_c, 1, 83, 81
3, 69308, Note_off_c, 1, 83, 0
3, 69312, Note_on_c, 1, 74, 81
3, 69404, Note_off_c, 1, 74, 0
3, 69408, Note_on_c, 1, 71, 81
3, 69500, Note_off_c, 1, 71, 0
3, 69504, Note_on_c, 1, 72, 81
3, 69596, Note_off_c, 1, 72, 0
3, 69600, Note_on_c, 1, 69, 81
3, 69692, Note_off_c, 1, 69, 0
3, 69696, Note_on_c, 1, 81, 81
3, 69788, Note_off_c, 1, 81, 0
3, 69792, Note_on_c, 1, 78, 81
3, 69884, Note_off_c, 1, 78, 0
3, 69888, Note_on_c, 1, 79, 81
3, 69980, Note_off_c, 1, 79, 0
3, 69984, Note_on_c, 1, 83, 81
3, 70076, Note_off_c, 1, 83, 0
3, 70080, Note_on_c, 1, 79, 81
3, 70172, Note_off_c, 1, 79, 0
3, 70176, Note_on_c, 1, 76, 81
3, 70268, Note_off_c, 1, 76, 0
3, 70272, Note_on_c, 1, 72, 81
3, 70364, Note_off_c, 1, 72, 0
3, 70368, Note_on_c, 1, 69, 81
3, 70460, Note_off_c, 1, 69, 0
3, 70464, Note_on_c, 1, 81, 81
3, 70556, Note_off_c, 1, 81, 0
3, 70560, Note_on_c, 1, 78, 81
3, 70652, Note_off_c, 1, 78, 0
3, 70656, Note_on_c, 1, 78, 81
3, 70656, Note_on_c, 1, 67, 81
3, 70748, Note_off_c, 1, 78, 0
3, 70748, Note_off_c, 1, 67, 0
3, 70848, Note_on_c, 1, 67, 60
3, 70848, Note_on_c, 1, 64, 60
3, 70940, Note_off_c, 1, 67, 0
3, 70940, Note_off_c, 1, 64, 0
3, 71040, Note_on_c, 1, 67, 60
3, 71040, Note_on_c, 1, 64, 60
3, 71132, Note_off_c, 1, 67, 0
3, 71132, Note_off_c, 1, 64, 0
3, 71232, Note_on_c, 1, 67, 60
3, 71232, Note_on_c, 1, 64, 60
3, 71324, Note_off_c, 1, 67, 0
3, 71324, Note_off_c, 1, 64, 0
3, 71424, Note_on_c, 1, 67, 60
3, 71424, Note_on_c, 1, 64, 60
3, 71516, Note_off_c, 1, 67, 0
3, 71516, Note_off_c, 1, 64, 0
3, 71616, Note_on_c, 1, 67, 60
3, 71616, Note_on_c, 1, 64, 60
3, 71708, Note_off_c, 1, 67, 0
3, 71708, Note_off_c, 1, 64, 0
3, 71808, Note_on_c, 1, 67, 60
3, 71808, Note_on_c, 1, 64, 60
3, 71900, Note_off_c, 1, 67, 0
3, 71900, Note_off_c, 1, 64, 0
3, 72000, Note_on_c, 1, 67, 60
3, 72000, Note_on_c, 1, 64, 60
3, 72092, Note_off_c, 1, 67, 0
3, 72092, Note_off_c, 1, 64, 0
3, 72192, Note_on_c, 1, 67, 60
3, 72192, Note_on_c, 1, 64, 60
3, 72380, Note_off_c, 1, 67, 0
3, 72380, Note_off_c, 1, 64, 0
3, 72384, Note_on_c, 1, 69, 60
3, 72384, Note_on_c, 1, 62, 60
3, 72572, Note_off_c, 1, 69, 0
3, 72572, Note_off_c, 1, 62, 0
3, 72576, Note_on_c, 1, 69, 60
3, 72576, Note_on_c, 1, 62, 60
3, 72764, Note_off_c, 1, 69, 0
3, 72764, Note_off_c, 1, 62, 0
3, 72768, Note_on_c, 1, 69, 60
3, 72768, Note_on_c, 1, 62, 60
3, 72956, Note_off_c, 1, 69, 0
3, 72956, Note_off_c, 1, 62, 0
3, 72960, Note_on_c, 1, 69, 60
3, 72960, Note_on_c, 1, 62, 60
3, 73148, Note_off_c, 1, 69, 0
3, 73148, Note_off_c, 1, 62, 0
3, 73152, Note_on_c, 1, 69, 60
3, 73152, Note_on_c, 1, 62, 60
3, 73340, Note_off_c, 1, 69, 0
3, 73340, Note_off_c, 1, 62, 0
3, 73344, Note_on_c, 1, 72, 60
3, 73532, Note_off_c, 1, 72, 0
3, 73536, Note_on_c, 1, 72, 60
3, 73724, Note_off_c, 1, 72, 0
3, 73728, Note_on_c, 1, 71, 60
3, 73728, Note_on_c, 1, 59, 60
3, 74108, Note_off_c, 1, 71, 0
3, 74108, Note_off_c, 1, 59, 0
3, 74304, Note_on_c, 1, 71, 60
3, 74304, Note_on_c, 1, 67, 60
3, 74492, Note_off_c, 1, 71, 0
3, 74492, Note_off_c, 1, 67, 0
3, 74496, Note_on_c, 1, 69, 60
3, 74496, Note_on_c, 1, 66, 60
3, 74684, Note_off_c, 1, 69, 0
3, 74684, Note_off_c, 1, 66, 0
3, 75072, Note_on_c, 1, 69, 60
3, 75072, Note_on_c, 1, 66, 60
3, 75260, Note_off_c, 1, 69, 0
3, 75260, Note_off_c, 1, 66, 0
3, 75264, Note_on_c, 1, 71, 60
3, 75264, Note_on_c, 1, 67, 60
3, 75264, Note_on_c, 1, 64, 60
3, 75644, Note_off_c, 1, 71, 0
3, 75644, Note_off_c, 1, 67, 0
3, 75644, Note_off_c, 1, 64, 0
3, 75648, Note_on_c, 1, 69, 60
3, 75648, Note_on_c, 1, 66, 60
3, 75648, Note_on_c, 1, 71, 60
3, 76028, Note_off_c, 1, 69, 0
3, 76028, Note_off_c, 1, 66, 0
3, 76032, Note_on_c, 1, 67, 60
3, 76032, Note_on_c, 1, 64, 60
3, 76412, Note_off_c, 1, 71, 0
3, 76412, Note_off_c, 1, 67, 0
3, 76412, Note_off_c, 1, 64, 0
3, 76416, Note_on_c, 1, 71, 60
3, 76416, Note_on_c, 1, 68, 60
3, 76416, Note_on_c, 1, 65, 60
3, 76796, Note_off_c, 1, 71, 0
3, 76796, Note_off_c, 1, 68, 0
3, 76796, Note_off_c, 1, 65, 0
3, 76800, Note_on_c, 1, 69, 60
3, 76800, Note_on_c, 1, 64, 60
3, 76988, Note_off_c, 1, 69, 0
3, 76988, Note_off_c, 1, 64, 0
3, 76992, Note_on_c, 1, 69, 60
3, 76992, Note_on_c, 1, 64, 60
3, 77180, Note_off_c, 1, 69, 0
3, 77180, Note_off_c, 1, 64, 0
3, 77184, Note_on_c, 1, 69, 60
3, 77184, Note_on_c, 1, 67, 60
3, 77184, Note_on_c, 1, 64, 60
3, 77372, Note_off_c, 1, 69, 0
3, 77372, Note_off_c, 1, 67, 0
3, 77372, Note_off_c, 1, 64, 0
3, 77376, Note_on_c, 1, 69, 60
3, 77376, Note_on_c, 1, 67, 60
3, 77376, Note_on_c, 1, 64, 60
3, 77564, Note_off_c, 1, 69, 0
3, 77564, Note_off_c, 1, 67, 0
3, 77564, Note_off_c, 1, 64, 0
3, 77568, Note_on_c, 1, 69, 60
3, 77568, Note_on_c, 1, 66, 60
3, 77568, Note_on_c, 1, 62, 60
3, 77756, Note_off_c, 1, 69, 0
3, 77756, Note_off_c, 1, 66, 0
3, 77756, Note_off_c, 1, 62, 0
3, 77760, Note_on_c, 1, 69, 60
3, 77760, Note_on_c, 1, 66, 60
3, 77760, Note_on_c, 1, 62, 60
3, 77948, Note_off_c, 1, 69, 0
3, 77948, Note_off_c, 1, 66, 0
3, 77948, Note_off_c, 1, 62, 0
3, 77952, Note_on_c, 1, 69, 60
3, 77952, Note_on_c, 1, 62, 60
3, 78140, Note_off_c, 1, 69, 0
3, 78140, Note_off_c, 1, 62, 0
3, 78144, Note_on_c, 1, 69, 60
3, 78144, Note_on_c, 1, 62, 60
3, 78332, Note_off_c, 1, 69, 0
3, 78332, Note_off_c, 1, 62, 0
3, 78336, Note_on_c, 1, 70, 60
3, 78336, Note_on_c, 1, 62, 60
3, 78524, Note_off_c, 1, 70, 0
3, 78524, Note_off_c, 1, 62, 0
3, 78528, Note_on_c, 1, 74, 60
3, 78528, Note_on_c, 1, 62, 60
3, 78716, Note_off_c, 1, 74, 0
3, 78716, Note_off_c, 1, 62, 0
3, 78720, Note_on_c, 1, 75, 60
3, 78720, Note_on_c, 1, 67, 60
3, 78908, Note_off_c, 1, 75, 0
3, 78908, Note_off_c, 1, 67, 0
3, 78912, Note_on_c, 1, 74, 60
3, 78912, Note_on_c, 1, 65, 60
3, 79100, Note_off_c, 1, 74, 0
3, 79100, Note_off_c, 1, 65, 0
3, 79104, Note_on_c, 1, 73, 60
3, 79104, Note_on_c, 1, 64, 60
3, 79292, Note_off_c, 1, 73, 0
3, 79292, Note_off_c, 1, 64, 0
3, 79296, Note_on_c, 1, 73, 60
3, 79296, Note_on_c, 1, 64, 60
3, 79484, Note_off_c, 1, 73, 0
3, 79484, Note_off_c, 1, 64, 0
3, 79488, Note_on_c, 1, 64, 60
3, 79488, Note_on_c, 1, 61, 60
3, 79676, Note_off_c, 1, 64, 0
3, 79676, Note_off_c, 1, 61, 0
3, 79680, Note_on_c, 1, 64, 60
3, 79680, Note_on_c, 1, 61, 60
3, 79868, Note_off_c, 1, 64, 0
3, 79868, Note_off_c, 1, 61, 0
3, 79872, Note_on_c, 1, 66, 60
3, 79872, Note_on_c, 1, 62, 60
3, 80252, Note_off_c, 1, 66, 0
3, 80252, Note_off_c, 1, 62, 0
3, 80448, Note_on_c, 1, 62, 60
3, 80448, Note_on_c, 1, 57, 60
3, 80636, Note_off_c, 1, 62, 0
3, 80636, Note_off_c, 1, 57, 0
3, 80640, Note_on_c, 1, 64, 60
3, 80640, Note_on_c, 1, 67, 60
3, 80640, Note_on_c, 1, 57, 60
3, 81020, Note_off_c, 1, 64, 0
3, 81020, Note_off_c, 1, 67, 0
3, 81020, Note_off_c, 1, 57, 0
3, 81216, Note_on_c, 1, 64, 60
3, 81216, Note_on_c, 1, 57, 60
3, 81404, Note_off_c, 1, 64, 0
3, 81404, Note_off_c, 1, 57, 0
3, 81408, Note_on_c, 1, 66, 60
3, 81408, Note_on_c, 1, 57, 60
3, 81596, Note_off_c, 1, 66, 0
3, 81596, Note_off_c, 1, 57, 0
3, 81600, Note_on_c, 1, 74, 60
3, 81788, Note_off_c, 1, 74, 0
3, 81792, Note_on_c, 1, 78, 60
3, 81980, Note_off_c, 1, 78, 0
3, 81984, Note_on_c, 1, 81, 60
3, 82172, Note_off_c, 1, 81, 0
3, 82176, Note_on_c, 1, 79, 60
3, 82364, Note_off_c, 1, 79, 0
3, 82368, Note_on_c, 1, 76, 60
3, 82556, Note_off_c, 1, 76, 0
3, 82560, Note_on_c, 1, 79, 60
3, 82748, Note_off_c, 1, 79, 0
3, 82752, Note_on_c, 1, 81, 60
3, 82940, Note_off_c, 1, 81, 0
3, 82944, Note_on_c, 1, 78, 60
3, 83324, Note_off_c, 1, 78, 0
3, 83520, Note_on_c, 1, 67, 60
3, 83520, Note_on_c, 1, 62, 60
3, 83708, Note_off_c, 1, 67, 0
3, 83708, Note_off_c, 1, 62, 0
3, 83712, Note_on_c, 1, 72, 60
3, 83712, Note_on_c, 1, 66, 60
3, 84092, Note_off_c, 1, 72, 0
3, 84092, Note_off_c, 1, 66, 0
3, 84288, Note_on_c, 1, 69, 60
3, 84288, Note_on_c, 1, 62, 60
3, 84476, Note_off_c, 1, 69, 0
3, 84476, Note_off_c, 1, 62, 0
3, 84480, Note_on_c, 1, 71, 60
3, 84480, Note_on_c, 1, 62, 60
3, 84860, Note_off_c, 1, 71, 0
3, 84860, Note_off_c, 1, 62, 0
3, 84864, Note_on_c, 1, 75, 60
3, 85244, Note_off_c, 1, 75, 0
3, 85248, Note_on_c, 1, 76, 60
3, 85628, Note_off_c, 1, 76, 0
3, 85632, Note_on_c, 1, 84, 60
3, 85632, Note_on_c, 1, 75, 60
3, 85632, Note_on_c, 1, 69, 60
3, 86012, Note_off_c, 1, 84, 0
3, 86012, Note_off_c, 1, 75, 0
3, 86012, Note_off_c, 1, 69, 0
3, 86016, Note_on_c, 1, 83, 60
3, 86016, Note_on_c, 1, 76, 60
3, 86016, Note_on_c, 1, 67, 60
3, 86016, Note_on_c, 1, 55, 60
3, 86204, Note_off_c, 1, 83, 0
3, 86204, Note_off_c, 1, 76, 0
3, 86204, Note_off_c, 1, 67, 0
3, 86204, Note_off_c, 1, 55, 0
3, 86400, Note_on_c, 1, 76, 60
3, 86400, Note_on_c, 1, 71, 60
3, 86400, Note_on_c, 1, 67, 60
3, 86588, Note_off_c, 1, 76, 0
3, 86588, Note_off_c, 1, 71, 0
3, 86588, Note_off_c, 1, 67, 0
3, 86784, Note_on_c, 1, 76, 60
3, 86784, Note_on_c, 1, 71, 60
3, 86784, Note_on_c, 1, 67, 60
3, 86972, Note_off_c, 1, 76, 0
3, 86972, Note_off_c, 1, 71, 0
3, 86972, Note_off_c, 1, 67, 0
3, 87168, Note_on_c, 1, 74, 60
3, 87168, Note_on_c, 1, 71, 60
3, 87168, Note_on_c, 1, 64, 60
3, 87356, Note_off_c, 1, 74, 0
3, 87356, Note_off_c, 1, 71, 0
3, 87356, Note_off_c, 1, 64, 0
3, 87552, Note_on_c, 1, 73, 60
3, 87552, Note_on_c, 1, 69, 60
3, 87552, Note_on_c, 1, 64, 60
3, 87740, Note_off_c, 1, 73, 0
3, 87740, Note_off_c, 1, 69, 0
3, 87740, Note_off_c, 1, 64, 0
3, 87936, Note_on_c, 1, 69, 60
3, 88028, Note_off_c, 1, 69, 0
3, 88032, Note_on_c, 1, 73, 60
3, 88124, Note_off_c, 1, 73, 0
3, 88128, Note_on_c, 1, 71, 60
3, 88220, Note_off_c, 1, 71, 0
3, 88224, Note_on_c, 1, 74, 60
3, 88316, Note_off_c, 1, 74, 0
3, 88320, Note_on_c, 1, 73, 60
3, 88508, Note_off_c, 1, 73, 0
3, 88704, Note_on_c, 1, 73, 60
3, 88796, Note_off_c, 1, 73, 0
3, 88800, Note_on_c, 1, 76, 60
3, 88892, Note_off_c, 1, 76, 0
3, 88896, Note_on_c, 1, 74, 60
3, 88988, Note_off_c, 1, 74, 0
3, 88992, Note_on_c, 1, 78, 60
3, 89084, Note_off_c, 1, 78, 0
3, 89088, Note_on_c, 1, 76, 60
3, 89276, Note_off_c, 1, 76, 0
3, 89472, Note_on_c, 1, 73, 87
3, 89564, Note_off_c, 1, 73, 0
3, 89568, Note_on_c, 1, 76, 81
3, 89660, Note_off_c, 1, 76, 0
3, 89664, Note_on_c, 1, 74, 81
3, 89756, Note_off_c, 1, 74, 0
3, 89760, Note_on_c, 1, 78, 81
3, 89852, Note_off_c, 1, 78, 0
3, 89856, Note_on_c, 1, 76, 81
3, 89948, Note_off_c, 1, 76, 0
3, 89952, Note_on_c, 1, 79, 81
3, 90044, Note_off_c, 1, 79, 0
3, 90048, Note_on_c, 1, 78, 81
3, 90140, Note_off_c, 1, 78, 0
3, 90144, Note_on_c, 1, 81, 81
3, 90236, Note_off_c, 1, 81, 0
3, 90240, Note_on_c, 1, 79, 81
3, 90332, Note_off_c, 1, 79, 0
3, 90336, Note_on_c, 1, 81, 81
3, 90428, Note_off_c, 1, 81, 0
3, 90432, Note_on_c, 1, 78, 81
3, 90524, Note_off_c, 1, 78, 0
3, 90528, Note_on_c, 1, 79, 81
3, 90620, Note_off_c, 1, 79, 0
3, 90624, Note_on_c, 1, 76, 81
3, 90812, Note_off_c, 1, 76, 0
3, 90816, Note_on_c, 1, 57, 81
3, 90908, Note_off_c, 1, 57, 0
3, 90912, Note_on_c, 1, 61, 81
3, 91004, Note_off_c, 1, 61, 0
3, 91008, Note_on_c, 1, 59, 81
3, 91100, Note_off_c, 1, 59, 0
3, 91104, Note_on_c, 1, 62, 81
3, 91196, Note_off_c, 1, 62, 0
3, 91200, Note_on_c, 1, 61, 81
3, 91292, Note_off_c, 1, 61, 0
3, 91296, Note_on_c, 1, 64, 81
3, 91388, Note_off_c, 1, 64, 0
3, 91392, Note_on_c, 1, 62, 81
3, 91484, Note_off_c, 1, 62, 0
3, 91488, Note_on_c, 1, 66, 81
3, 91580, Note_off_c, 1, 66, 0
3, 91584, Note_on_c, 1, 64, 81
3, 91676, Note_off_c, 1, 64, 0
3, 91680, Note_on_c, 1, 67, 81
3, 91772, Note_off_c, 1, 67, 0
3, 91776, Note_on_c, 1, 66, 81
3, 91868, Note_off_c, 1, 66, 0
3, 91872, Note_on_c, 1, 69, 81
3, 91964, Note_off_c, 1, 69, 0
3, 91968, Note_on_c, 1, 68, 81
3, 92060, Note_off_c, 1, 68, 0
3, 92064, Note_on_c, 1, 71, 81
3, 92156, Note_off_c, 1, 71, 0
3, 92160, Note_on_c, 1, 69, 81
3, 92540, Note_off_c, 1, 69, 0
3, 93696, Note_on_c, 1, 73, 54
3, 93696, Note_on_c, 1, 69, 54
3, 93696, Note_on_c, 1, 64, 54
3, 93884, Note_off_c, 1, 73, 0
3, 93884, Note_off_c, 1, 69, 0
3, 93884, Note_off_c, 1, 64, 0
3, 93888, Note_on_c, 1, 73, 54
3, 93888, Note_on_c, 1, 69, 54
3, 93888, Note_on_c, 1, 64, 54
3, 94076, Note_off_c, 1, 73, 0
3, 94076, Note_off_c, 1, 69, 0
3, 94076, Note_off_c, 1, 64, 0
3, 94080, Note_on_c, 1, 73, 54
3, 94080, Note_on_c, 1, 69, 54
3, 94080, Note_on_c, 1, 64, 54
3, 94268, Note_off_c, 1, 73, 0
3, 94268, Note_off_c, 1, 69, 0
3, 94268, Note_off_c, 1, 64, 0
3, 94272, Note_on_c, 1, 73, 54
3, 94272, Note_on_c, 1, 69, 54
3, 94272, Note_on_c, 1, 64, 54
3, 94460, Note_off_c, 1, 73, 0
3, 94460, Note_off_c, 1, 69, 0
3, 94460, Note_off_c, 1, 64, 0
3, 94464, Note_on_c, 1, 73, 54
3, 94464, Note_on_c, 1, 69, 54
3, 94464, Note_on_c, 1, 64, 54
3, 94652, Note_off_c, 1, 73, 0
3, 94652, Note_off_c, 1, 69, 0
3, 94652, Note_off_c, 1, 64, 0
3, 94656, Note_on_c, 1, 73, 54
3, 94656, Note_on_c, 1, 69, 54
3, 94656, Note_on_c, 1, 64, 54
3, 94844, Note_off_c, 1, 73, 0
3, 94844, Note_off_c, 1, 69, 0
3, 94844, Note_off_c, 1, 64, 0
3, 94848, Note_on_c, 1, 73, 54
3, 94848, Note_on_c, 1, 69, 54
3, 94848, Note_on_c, 1, 64, 54
3, 95036, Note_off_c, 1, 73, 0
3, 95036, Note_off_c, 1, 69, 0
3, 95036, Note_off_c, 1, 64, 0
3, 95040, Note_on_c, 1, 73, 54
3, 95040, Note_on_c, 1, 69, 54
3, 95040, Note_on_c, 1, 64, 54
3, 95228, Note_off_c, 1, 73, 0
3, 95228, Note_off_c, 1, 69, 0
3, 95228, Note_off_c, 1, 64, 0
3, 95232, Note_on_c, 1, 74, 54
3, 95232, Note_on_c, 1, 69, 54
3, 95232, Note_on_c, 1, 66, 54
3, 95612, Note_off_c, 1, 74, 0
3, 95612, Note_off_c, 1, 69, 0
3, 95612, Note_off_c, 1, 66, 0
3, 96768, Note_on_c, 1, 74, 54
3, 96768, Note_on_c, 1, 69, 54
3, 96768, Note_on_c, 1, 66, 54
3, 96956, Note_off_c, 1, 74, 0
3, 96956, Note_off_c, 1, 69, 0
3, 96956, Note_off_c, 1, 66, 0
3, 96960, Note_on_c, 1, 74, 54
3, 96960, Note_on_c, 1, 69, 54
3, 96960, Note_on_c, 1, 66, 54
3, 97148, Note_off_c, 1, 74, 0
3, 97148, Note_off_c, 1, 69, 0
3, 97148, Note_off_c, 1, 66, 0
3, 97152, Note_on_c, 1, 74, 54
3, 97152, Note_on_c, 1, 69, 54
3, 97152, Note_on_c, 1, 66, 54
3, 97340, Note_off_c, 1, 74, 0
3, 97340, Note_off_c, 1, 69, 0
3, 97340, Note_off_c, 1, 66, 0
3, 97344, Note_on_c, 1, 74, 54
3, 97344, Note_on_c, 1, 69, 54
3, 97344, Note_on_c, 1, 66, 54
3, 97532, Note_off_c, 1, 74, 0
3, 97532, Note_off_c, 1, 69, 0
3, 97532, Note_off_c, 1, 66, 0
3, 97536, Note_on_c, 1, 74, 54
3, 97536, Note_on_c, 1, 69, 54
3, 97536, Note_on_c, 1, 66, 54
3, 97724, Note_off_c, 1, 74, 0
3, 97724, Note_off_c, 1, 69, 0
3, 97724, Note_off_c, 1, 66, 0
3, 97728, Note_on_c, 1, 74, 54
3, 97728, Note_on_c, 1, 69, 54
3, 97728, Note_on_c, 1, 66, 54
3, 97916, Note_off_c, 1, 74, 0
3, 97916, Note_off_c, 1, 69, 0
3, 97916, Note_off_c, 1, 66, 0
3, 97920, Note_on_c, 1, 74, 54
3, 97920, Note_on_c, 1, 69, 54
3, 97920, Note_on_c, 1, 66, 54
3, 98108, Note_off_c, 1, 74, 0
3, 98108, Note_off_c, 1, 69, 0
3, 98108, Note_off_c, 1, 66, 0
3, 98112, Note_on_c, 1, 74, 54
3, 98112, Note_on_c, 1, 69, 54
3, 98112, Note_on_c, 1, 66, 54
3, 98300, Note_off_c, 1, 74, 0
3, 98300, Note_off_c, 1, 69, 0
3, 98300, Note_off_c, 1, 66, 0
3, 98304, Note_on_c, 1, 76, 54
3, 98304, Note_on_c, 1, 69, 54
3, 98304, Note_on_c, 1, 67, 54
3, 98684, Note_off_c, 1, 76, 0
3, 98684, Note_off_c, 1, 69, 0
3, 98684, Note_off_c, 1, 67, 0
3, 99840, Note_on_c, 1, 81, 54
3, 99840, Note_on_c, 1, 85, 54
3, 100220, Note_off_c, 1, 81, 0
3, 100220, Note_off_c, 1, 85, 0
3, 100224, Note_on_c, 1, 79, 54
3, 100224, Note_on_c, 1, 83, 54
3, 100604, Note_off_c, 1, 79, 0
3, 100604, Note_off_c, 1, 83, 0
3, 100608, Note_on_c, 1, 78, 54
3, 100608, Note_on_c, 1, 81, 54
3, 100988, Note_off_c, 1, 78, 0
3, 100988, Note_off_c, 1, 81, 0
3, 100992, Note_on_c, 1, 76, 54
3, 100992, Note_on_c, 1, 79, 54
3, 101372, Note_off_c, 1, 76, 0
3, 101372, Note_off_c, 1, 79, 0
3, 101376, Note_on_c, 1, 78, 54
3, 101376, Note_on_c, 1, 76, 54
3, 101564, Note_off_c, 1, 78, 0
3, 101564, Note_off_c, 1, 76, 0
3, 101568, Note_on_c, 1, 66, 54
3, 101568, Note_on_c, 1, 64, 54
3, 101568, Note_on_c, 1, 61, 54
3, 101756, Note_off_c, 1, 66, 0
3, 101756, Note_off_c, 1, 64, 0
3, 101756, Note_off_c, 1, 61, 0
3, 101760, Note_on_c, 1, 66, 54
3, 101760, Note_on_c, 1, 64, 54
3, 101760, Note_on_c, 1, 61, 54
3, 101948, Note_off_c, 1, 66, 0
3, 101948, Note_off_c, 1, 64, 0
3, 101948, Note_off_c, 1, 61, 0
3, 101952, Note_on_c, 1, 66, 54
3, 101952, Note_on_c, 1, 64, 54
3, 101952, Note_on_c, 1, 61, 54
3, 102140, Note_off_c, 1, 66, 0
3, 102140, Note_off_c, 1, 64, 0
3, 102140, Note_off_c, 1, 61, 0
3, 102144, Note_on_c, 1, 66, 54
3, 102144, Note_on_c, 1, 62, 54
3, 102332, Note_off_c, 1, 66, 0
3, 102332, Note_off_c, 1, 62, 0
3, 102336, Note_on_c, 1, 66, 54
3, 102336, Note_on_c, 1, 62, 54
3, 102524, Note_off_c, 1, 66, 0
3, 102524, Note_off_c, 1, 62, 0
3, 102528, Note_on_c, 1, 66, 54
3, 102528, Note_on_c, 1, 62, 54
3, 102716, Note_off_c, 1, 66, 0
3, 102716, Note_off_c, 1, 62, 0
3, 102720, Note_on_c, 1, 66, 54
3, 102720, Note_on_c, 1, 62, 54
3, 102908, Note_off_c, 1, 66, 0
3, 102908, Note_off_c, 1, 62, 0
3, 102912, Note_on_c, 1, 66, 54
3, 102912, Note_on_c, 1, 64, 54
3, 102912, Note_on_c, 1, 61, 54
3, 103100, Note_off_c, 1, 66, 0
3, 103100, Note_off_c, 1, 64, 0
3, 103100, Note_off_c, 1, 61, 0
3, 103104, Note_on_c, 1, 66, 54
3, 103104, Note_on_c, 1, 64, 54
3, 103104, Note_on_c, 1, 61, 54
3, 103292, Note_off_c, 1, 66, 0
3, 103292, Note_off_c, 1, 64, 0
3, 103292, Note_off_c, 1, 61, 0
3, 103296, Note_on_c, 1, 66, 54
3, 103296, Note_on_c, 1, 64, 54
3, 103296, Note_on_c, 1, 61, 54
3, 103484, Note_off_c, 1, 66, 0
3, 103484, Note_off_c, 1, 64, 0
3, 103484, Note_off_c, 1, 61, 0
3, 103488, Note_on_c, 1, 66, 54
3, 103488, Note_on_c, 1, 64, 54
3, 103488, Note_on_c, 1, 61, 54
3, 103676, Note_off_c, 1, 66, 0
3, 103676, Note_off_c, 1, 64, 0
3, 103676, Note_off_c, 1, 61, 0
3, 103680, Note_on_c, 1, 66, 54
3, 103680, Note_on_c, 1, 63, 54
3, 103680, Note_on_c, 1, 60, 54
3, 103868, Note_off_c, 1, 66, 0
3, 103868, Note_off_c, 1, 63, 0
3, 103868, Note_off_c, 1, 60, 0
3, 103872, Note_on_c, 1, 66, 54
3, 103872, Note_on_c, 1, 63, 54
3, 103872, Note_on_c, 1, 60, 54
3, 104060, Note_off_c, 1, 66, 0
3, 104060, Note_off_c, 1, 63, 0
3, 104060, Note_off_c, 1, 60, 0
3, 104064, Note_on_c, 1, 66, 54
3, 104064, Note_on_c, 1, 63, 54
3, 104064, Note_on_c, 1, 60, 54
3, 104252, Note_off_c, 1, 66, 0
3, 104252, Note_off_c, 1, 63, 0
3, 104252, Note_off_c, 1, 60, 0
3, 104256, Note_on_c, 1, 66, 54
3, 104256, Note_on_c, 1, 63, 54
3, 104256, Note_on_c, 1, 60, 54
3, 104444, Note_off_c, 1, 66, 0
3, 104444, Note_off_c, 1, 63, 0
3, 104444, Note_off_c, 1, 60, 0
3, 104448, Note_on_c, 1, 67, 54
3, 104448, Note_on_c, 1, 64, 54
3, 104448, Note_on_c, 1, 59, 54
3, 104636, Note_off_c, 1, 67, 0
3, 104636, Note_off_c, 1, 64, 0
3, 104636, Note_off_c, 1, 59, 0
3, 104640, Note_on_c, 1, 67, 54
3, 104640, Note_on_c, 1, 64, 54
3, 104640, Note_on_c, 1, 59, 54
3, 104828, Note_off_c, 1, 67, 0
3, 104828, Note_off_c, 1, 64, 0
3, 104828, Note_off_c, 1, 59, 0
3, 104832, Note_on_c, 1, 67, 54
3, 104832, Note_on_c, 1, 64, 54
3, 104832, Note_on_c, 1, 59, 54
3, 105020, Note_off_c, 1, 67, 0
3, 105020, Note_off_c, 1, 64, 0
3, 105020, Note_off_c, 1, 59, 0
3, 105024, Note_on_c, 1, 67, 54
3, 105024, Note_on_c, 1, 64, 54
3, 105024, Note_on_c, 1, 59, 54
3, 105212, Note_off_c, 1, 67, 0
3, 105212, Note_off_c, 1, 64, 0
3, 105212, Note_off_c, 1, 59, 0
3, 105216, Note_on_c, 1, 66, 54
3, 105216, Note_on_c, 1, 62, 54
3, 105404, Note_off_c, 1, 66, 0
3, 105404, Note_off_c, 1, 62, 0
3, 105408, Note_on_c, 1, 66, 54
3, 105408, Note_on_c, 1, 62, 54
3, 105596, Note_off_c, 1, 66, 0
3, 105596, Note_off_c, 1, 62, 0
3, 105600, Note_on_c, 1, 67, 54
3, 105600, Note_on_c, 1, 64, 54
3, 105788, Note_off_c, 1, 67, 0
3, 105788, Note_off_c, 1, 64, 0
3, 105792, Note_on_c, 1, 67, 54
3, 105792, Note_on_c, 1, 64, 54
3, 105980, Note_off_c, 1, 67, 0
3, 105980, Note_off_c, 1, 64, 0
3, 105984, Note_on_c, 1, 66, 54
3, 105984, Note_on_c, 1, 62, 54
3, 105984, Note_on_c, 1, 57, 54
3, 106172, Note_off_c, 1, 66, 0
3, 106172, Note_off_c, 1, 62, 0
3, 106172, Note_off_c, 1, 57, 0
3, 106176, Note_on_c, 1, 62, 81
3, 106268, Note_off_c, 1, 62, 0
3, 106272, Note_on_c, 1, 66, 81
3, 106364, Note_off_c, 1, 66, 0
3, 106368, Note_on_c, 1, 64, 81
3, 106460, Note_off_c, 1, 64, 0
3, 106464, Note_on_c, 1, 67, 81
3, 106556, Note_off_c, 1, 67, 0
3, 106560, Note_on_c, 1, 66, 81
3, 106652, Note_off_c, 1, 66, 0
3, 106656, Note_on_c, 1, 69, 81
3, 106748, Note_off_c, 1, 69, 0
3, 106752, Note_on_c, 1, 67, 81
3, 106844, Note_off_c, 1, 67, 0
3, 106848, Note_on_c, 1, 71, 81
3, 106940, Note_off_c, 1, 71, 0
3, 106944, Note_on_c, 1, 69, 81
3, 107036, Note_off_c, 1, 69, 0
3, 107040, Note_on_c, 1, 73, 81
3, 107132, Note_off_c, 1, 73, 0
3, 107136, Note_on_c, 1, 71, 81
3, 107228, Note_off_c, 1, 71, 0
3, 107232, Note_on_c, 1, 74, 81
3, 107324, Note_off_c, 1, 74, 0
3, 107328, Note_on_c, 1, 73, 81
3, 107420, Note_off_c, 1, 73, 0
3, 107424, Note_on_c, 1, 76, 81
3, 107516, Note_off_c, 1, 76, 0
3, 107520, Note_on_c, 1, 74, 81
3, 107900, Note_off_c, 1, 74, 0
3, 109056, Note_on_c, 1, 78, 54
3, 109056, Note_on_c, 1, 74, 54
3, 109244, Note_off_c, 1, 78, 0
3, 109244, Note_off_c, 1, 74, 0
3, 109248, Note_on_c, 1, 78, 54
3, 109248, Note_on_c, 1, 74, 54
3, 109436, Note_off_c, 1, 78, 0
3, 109436, Note_off_c, 1, 74, 0
3, 109440, Note_on_c, 1, 78, 54
3, 109440, Note_on_c, 1, 74, 54
3, 109628, Note_off_c, 1, 78, 0
3, 109628, Note_off_c, 1, 74, 0
3, 109632, Note_on_c, 1, 78, 54
3, 109632, Note_on_c, 1, 74, 54
3, 109820, Note_off_c, 1, 78, 0
3, 109820, Note_off_c, 1, 74, 0
3, 109824, Note_on_c, 1, 76, 54
3, 109824, Note_on_c, 1, 73, 54
3, 110012, Note_off_c, 1, 76, 0
3, 110012, Note_off_c, 1, 73, 0
3, 110016, Note_on_c, 1, 76, 54
3, 110016, Note_on_c, 1, 73, 54
3, 110204, Note_off_c, 1, 76, 0
3, 110204, Note_off_c, 1, 73, 0
3, 110208, Note_on_c, 1, 76, 54
3, 110208, Note_on_c, 1, 73, 54
3, 110396, Note_off_c, 1, 76, 0
3, 110396, Note_off_c, 1, 73, 0
3, 110400, Note_on_c, 1, 76, 54
3, 110400, Note_on_c, 1, 73, 54
3, 110588, Note_off_c, 1, 76, 0
3, 110588, Note_off_c, 1, 73, 0
3, 110592, Note_on_c, 1, 74, 54
3, 110592, Note_on_c, 1, 71, 54
3, 110972, Note_off_c, 1, 74, 0
3, 110972, Note_off_c, 1, 71, 0
3, 112320, Note_on_c, 1, 74, 54
3, 112320, Note_on_c, 1, 71, 54
3, 112508, Note_off_c, 1, 74, 0
3, 112508, Note_off_c, 1, 71, 0
3, 112512, Note_on_c, 1, 73, 54
3, 112512, Note_on_c, 1, 70, 54
3, 112700, Note_off_c, 1, 73, 0
3, 112700, Note_off_c, 1, 70, 0
3, 112704, Note_on_c, 1, 74, 54
3, 112704, Note_on_c, 1, 71, 54
3, 112892, Note_off_c, 1, 74, 0
3, 112892, Note_off_c, 1, 71, 0
3, 112896, Note_on_c, 1, 73, 54
3, 112896, Note_on_c, 1, 70, 54
3, 113084, Note_off_c, 1, 73, 0
3, 113084, Note_off_c, 1, 70, 0
3, 113088, Note_on_c, 1, 74, 54
3, 113088, Note_on_c, 1, 71, 54
3, 113276, Note_off_c, 1, 74, 0
3, 113276, Note_off_c, 1, 71, 0
3, 113280, Note_on_c, 1, 73, 54
3, 113280, Note_on_c, 1, 70, 54
3, 113468, Note_off_c, 1, 73, 0
3, 113468, Note_off_c, 1, 70, 0
3, 113472, Note_on_c, 1, 74, 54
3, 113472, Note_on_c, 1, 71, 54
3, 113660, Note_off_c, 1, 74, 0
3, 113660, Note_off_c, 1, 71, 0
3, 115392, Note_on_c, 1, 71, 54
3, 115392, Note_on_c, 1, 67, 54
3, 115580, Note_off_c, 1, 71, 0
3, 115580, Note_off_c, 1, 67, 0
3, 115584, Note_on_c, 1, 70, 54
3, 115584, Note_on_c, 1, 66, 54
3, 115772, Note_off_c, 1, 70, 0
3, 115772, Note_off_c, 1, 66, 0
3, 115776, Note_on_c, 1, 71, 54
3, 115776, Note_on_c, 1, 67, 54
3, 115964, Note_off_c, 1, 71, 0
3, 115964, Note_off_c, 1, 67, 0
3, 115968, Note_on_c, 1, 70, 54
3, 115968, Note_on_c, 1, 66, 54
3, 116156, Note_off_c, 1, 70, 0
3, 116156, Note_off_c, 1, 66, 0
3, 116160, Note_on_c, 1, 71, 54
3, 116160, Note_on_c, 1, 67, 54
3, 116348, Note_off_c, 1, 71, 0
3, 116348, Note_off_c, 1, 67, 0
3, 116352, Note_on_c, 1, 70, 54
3, 116352, Note_on_c, 1, 66, 54
3, 116540, Note_off_c, 1, 70, 0
3, 116540, Note_off_c, 1, 66, 0
3, 116544, Note_on_c, 1, 71, 54
3, 116544, Note_on_c, 1, 67, 54
3, 116732, Note_off_c, 1, 71, 0
3, 116732, Note_off_c, 1, 67, 0
3, 116736, Note_on_c, 1, 74, 54
3, 116736, Note_on_c, 1, 67, 54
3, 116924, Note_off_c, 1, 74, 0
3, 116924, Note_off_c, 1, 67, 0
3, 116928, Note_on_c, 1, 74, 54
3, 116928, Note_on_c, 1, 67, 54
3, 117116, Note_off_c, 1, 74, 0
3, 117116, Note_off_c, 1, 67, 0
3, 117120, Note_on_c, 1, 74, 54
3, 117120, Note_on_c, 1, 68, 54
3, 117308, Note_off_c, 1, 74, 0
3, 117308, Note_off_c, 1, 68, 0
3, 117312, Note_on_c, 1, 74, 54
3, 117312, Note_on_c, 1, 68, 54
3, 117500, Note_off_c, 1, 74, 0
3, 117500, Note_off_c, 1, 68, 0
3, 117504, Note_on_c, 1, 74, 54
3, 117504, Note_on_c, 1, 69, 54
3, 117692, Note_off_c, 1, 74, 0
3, 117692, Note_off_c, 1, 69, 0
3, 117696, Note_on_c, 1, 74, 54
3, 117696, Note_on_c, 1, 69, 54
3, 117884, Note_off_c, 1, 74, 0
3, 117884, Note_off_c, 1, 69, 0
3, 117888, Note_on_c, 1, 74, 54
3, 117888, Note_on_c, 1, 71, 54
3, 118076, Note_off_c, 1, 74, 0
3, 118076, Note_off_c, 1, 71, 0
3, 118080, Note_on_c, 1, 74, 54
3, 118080, Note_on_c, 1, 71, 54
3, 118268, Note_off_c, 1, 74, 0
3, 118268, Note_off_c, 1, 71, 0
3, 118272, Note_on_c, 1, 73, 54
3, 118272, Note_on_c, 1, 69, 54
3, 118272, Note_on_c, 1, 64, 54
3, 119036, Note_off_c, 1, 73, 0
3, 119036, Note_off_c, 1, 69, 0
3, 119036, Note_off_c, 1, 64, 0
3, 119040, Note_on_c, 1, 74, 54
3, 119040, Note_on_c, 1, 69, 54
3, 119040, Note_on_c, 1, 62, 54
3, 119420, Note_off_c, 1, 74, 0
3, 119420, Note_off_c, 1, 69, 0
3, 119420, Note_off_c, 1, 62, 0
3, 119808, Note_on_c, 1, 78, 87
3, 119808, Note_on_c, 1, 74, 87
3, 119808, Note_on_c, 1, 69, 87
3, 120572, Note_off_c, 1, 78, 0
3, 120572, Note_off_c, 1, 74, 0
3, 120572, Note_off_c, 1, 69, 0
3, 120576, Note_on_c, 1, 81, 81
3, 120668, Note_off_c, 1, 81, 0
3, 120672, Note_on_c, 1, 76, 81
3, 120672, Note_on_c, 1, 71, 81
3, 120672, Note_on_c, 1, 79, 81
3, 120960, Note_on_c, 1, 78, 81
3, 121052, Note_off_c, 1, 76, 0
3, 121052, Note_off_c, 1, 71, 0
3, 121052, Note_off_c, 1, 79, 0
3, 121052, Note_off_c, 1, 78, 0
3, 121056, Note_on_c, 1, 76, 81
3, 121056, Note_on_c, 1, 73, 81
3, 121056, Note_on_c, 1, 69, 81
3, 121152, Note_on_c, 1, 67, 81
3, 121244, Note_off_c, 1, 73, 0
3, 121244, Note_off_c, 1, 69, 0
3, 121340, Note_off_c, 1, 76, 0
3, 121340, Note_off_c, 1, 67, 0
3, 121344, Note_on_c, 1, 74, 54
3, 121344, Note_on_c, 1, 69, 54
3, 121344, Note_on_c, 1, 66, 54
3, 121436, Note_off_c, 1, 74, 0
3, 121436, Note_off_c, 1, 69, 0
3, 121436, Note_off_c, 1, 66, 0
3, 121440, Note_on_c, 1, 71, 54
3, 121532, Note_off_c, 1, 71, 0
3, 121536, Note_on_c, 1, 69, 54
3, 121628, Note_off_c, 1, 69, 0
3, 121632, Note_on_c, 1, 67, 54
3, 121724, Note_off_c, 1, 67, 0
3, 121728, Note_on_c, 1, 66, 54
3, 121820, Note_off_c, 1, 66, 0
3, 121824, Note_on_c, 1, 67, 54
3, 121916, Note_off_c, 1, 67, 0
3, 121920, Note_on_c, 1, 64, 54
3, 121920, Note_on_c, 1, 69, 54
3, 122012, Note_off_c, 1, 64, 0
3, 122016, Note_on_c, 1, 66, 54
3, 122108, Note_off_c, 1, 69, 0
3, 122108, Note_off_c, 1, 66, 0
3, 122112, Note_on_c, 1, 62, 54
3, 122112, Note_on_c, 1, 67, 54
3, 122204, Note_off_c, 1, 62, 0
3, 122208, Note_on_c, 1, 61, 54
3, 122300, Note_off_c, 1, 61, 0
3, 122304, Note_on_c, 1, 62, 54
3, 122396, Note_off_c, 1, 62, 0
3, 122400, Note_on_c, 1, 64, 54
3, 122492, Note_off_c, 1, 67, 0
3, 122492, Note_off_c, 1, 64, 0
3, 122496, Note_on_c, 1, 61, 54
3, 122496, Note_on_c, 1, 66, 54
3, 122588, Note_off_c, 1, 61, 0
3, 122592, Note_on_c, 1, 59, 54
3, 122684, Note_off_c, 1, 59, 0
3, 122688, Note_on_c, 1, 61, 54
3, 122780, Note_off_c, 1, 61, 0
3, 122784, Note_on_c, 1, 62, 54
3, 122876, Note_off_c, 1, 66, 0
3, 122876, Note_off_c, 1, 62, 0
3, 122880, Note_on_c, 1, 59, 54
3, 122880, Note_on_c, 1, 64, 54
3, 122972, Note_off_c, 1, 59, 0
3, 122976, Note_on_c, 1, 63, 54
3, 123068, Note_off_c, 1, 64, 0
3, 123068, Note_off_c, 1, 63, 0
3, 123072, Note_on_c, 1, 64, 54
3, 123164, Note_off_c, 1, 64, 0
3, 123168, Note_on_c, 1, 66, 54
3, 123260, Note_off_c, 1, 66, 0
3, 123264, Note_on_c, 1, 67, 54
3, 123356, Note_off_c, 1, 67, 0
3, 123360, Note_on_c, 1, 71, 54
3, 123452, Note_off_c, 1, 71, 0
3, 123456, Note_on_c, 1, 69, 54
3, 123548, Note_off_c, 1, 69, 0
3, 123552, Note_on_c, 1, 67, 54
3, 123644, Note_off_c, 1, 67, 0
3, 123648, Note_on_c, 1, 66, 54
3, 123740, Note_off_c, 1, 66, 0
3, 123744, Note_on_c, 1, 69, 54
3, 123836, Note_off_c, 1, 69, 0
3, 123840, Note_on_c, 1, 67, 54
3, 123932, Note_off_c, 1, 67, 0
3, 123936, Note_on_c, 1, 66, 54
3, 124028, Note_off_c, 1, 66, 0
3, 124032, Note_on_c, 1, 67, 54
3, 124032, Note_on_c, 1, 64, 54
3, 124124, Note_off_c, 1, 67, 0
3, 124124, Note_off_c, 1, 64, 0
3, 124128, Note_on_c, 1, 64, 54
3, 124220, Note_off_c, 1, 64, 0
3, 124224, Note_on_c, 1, 62, 54
3, 124316, Note_off_c, 1, 62, 0
3, 124320, Note_on_c, 1, 61, 54
3, 124412, Note_off_c, 1, 61, 0
3, 124416, Note_on_c, 1, 66, 54
3, 124416, Note_on_c, 1, 62, 54
3, 124508, Note_off_c, 1, 66, 0
3, 124508, Note_off_c, 1, 62, 0
3, 124512, Note_on_c, 1, 61, 54
3, 124604, Note_off_c, 1, 61, 0
3, 124608, Note_on_c, 1, 62, 54
3, 124700, Note_off_c, 1, 62, 0
3, 124704, Note_on_c, 1, 64, 54
3, 124796, Note_off_c, 1, 64, 0
3, 124800, Note_on_c, 1, 66, 54
3, 124892, Note_off_c, 1, 66, 0
3, 124896, Note_on_c, 1, 67, 54
3, 124988, Note_off_c, 1, 67, 0
3, 124992, Note_on_c, 1, 64, 54
3, 124992, Note_on_c, 1, 69, 54
3, 125084, Note_off_c, 1, 64, 0
3, 125088, Note_on_c, 1, 66, 54
3, 125180, Note_off_c, 1, 69, 0
3, 125180, Note_off_c, 1, 66, 0
3, 125184, Note_on_c, 1, 62, 54
3, 125184, Note_on_c, 1, 67, 54
3, 125276, Note_off_c, 1, 62, 0
3, 125280, Note_on_c, 1, 61, 54
3, 125372, Note_off_c, 1, 61, 0
3, 125376, Note_on_c, 1, 62, 54
3, 125468, Note_off_c, 1, 62, 0
3, 125472, Note_on_c, 1, 64, 54
3, 125564, Note_off_c, 1, 67, 0
3, 125564, Note_off_c, 1, 64, 0
3, 125568, Note_on_c, 1, 61, 54
3, 125568, Note_on_c, 1, 66, 54
3, 125660, Note_off_c, 1, 61, 0
3, 125664, Note_on_c, 1, 59, 54
3, 125756, Note_off_c, 1, 59, 0
3, 125760, Note_on_c, 1, 61, 54
3, 125852, Note_off_c, 1, 61, 0
3, 125856, Note_on_c, 1, 62, 54
3, 125948, Note_off_c, 1, 66, 0
3, 125948, Note_off_c, 1, 62, 0
3, 125952, Note_on_c, 1, 59, 54
3, 125952, Note_on_c, 1, 64, 54
3, 126044, Note_off_c, 1, 59, 0
3, 126048, Note_on_c, 1, 63, 54
3, 126140, Note_off_c, 1, 63, 0
3, 126144, Note_on_c, 1, 64, 54
3, 126236, Note_off_c, 1, 64, 0
3, 126240, Note_on_c, 1, 66, 54
3, 126332, Note_off_c, 1, 64, 0
3, 126332, Note_off_c, 1, 66, 0
3, 126336, Note_on_c, 1, 67, 54
3, 126428, Note_off_c, 1, 67, 0
3, 126432, Note_on_c, 1, 71, 54
3, 126524, Note_off_c, 1, 71, 0
3, 126528, Note_on_c, 1, 69, 54
3, 126528, Note_on_c, 1, 59, 54
3, 126620, Note_off_c, 1, 69, 0
3, 126624, Note_on_c, 1, 67, 54
3, 126716, Note_off_c, 1, 59, 0
3, 126716, Note_off_c, 1, 67, 0
3, 126720, Note_on_c, 1, 66, 54
3, 126720, Note_on_c, 1, 62, 54
3, 126812, Note_off_c, 1, 66, 0
3, 126816, Note_on_c, 1, 69, 54
3, 126908, Note_off_c, 1, 69, 0
3, 126912, Note_on_c, 1, 67, 54
3, 127004, Note_off_c, 1, 67, 0
3, 127008, Note_on_c, 1, 66, 54
3, 127100, Note_off_c, 1, 62, 0
3, 127100, Note_off_c, 1, 66, 0
3, 127104, Note_on_c, 1, 67, 54
3, 127104, Note_on_c, 1, 64, 54
3, 127196, Note_off_c, 1, 67, 0
3, 127200, Note_on_c, 1, 69, 54
3, 127292, Note_off_c, 1, 64, 0
3, 127292, Note_off_c, 1, 69, 0
3, 127296, Note_on_c, 1, 71, 54
3, 127296, Note_on_c, 1, 67, 54
3, 127388, Note_off_c, 1, 71, 0
3, 127392, Note_on_c, 1, 73, 54
3, 127484, Note_off_c, 1, 67, 0
3, 127484, Note_off_c, 1, 73, 0
3, 127488, Note_on_c, 1, 74, 54
3, 127488, Note_on_c, 1, 66, 54
3, 127580, Note_off_c, 1, 74, 0
3, 127584, Note_on_c, 1, 76, 54
3, 127676, Note_off_c, 1, 76, 0
3, 127680, Note_on_c, 1, 78, 54
3, 127772, Note_off_c, 1, 78, 0
3, 127776, Note_on_c, 1, 76, 54
3, 127868, Note_off_c, 1, 66, 0
3, 127868, Note_off_c, 1, 76, 0
3, 127872, Note_on_c, 1, 78, 54
3, 127872, Note_on_c, 1, 74, 54
3, 127964, Note_off_c, 1, 78, 0
3, 127968, Note_on_c, 1, 79, 54
3, 128060, Note_off_c, 1, 74, 0
3, 128060, Note_off_c, 1, 79, 0
3, 128064, Note_on_c, 1, 76, 54
3, 128064, Note_on_c, 1, 73, 54
3, 128156, Note_off_c, 1, 76, 0
3, 128160, Note_on_c, 1, 78, 54
3, 128252, Note_off_c, 1, 73, 0
3, 128252, Note_off_c, 1, 78, 0
3, 128256, Note_on_c, 1, 71, 54
3, 128256, Note_on_c, 1, 74, 54
3, 128348, Note_off_c, 1, 71, 0
3, 128352, Note_on_c, 1, 73, 54
3, 128444, Note_off_c, 1, 73, 0
3, 128448, Note_on_c, 1, 74, 54
3, 128540, Note_off_c, 1, 74, 0
3, 128544, Note_on_c, 1, 71, 54
3, 128636, Note_off_c, 1, 74, 0
3, 128636, Note_off_c, 1, 71, 0
3, 128640, Note_on_c, 1, 69, 54
3, 128640, Note_on_c, 1, 73, 54
3, 128732, Note_off_c, 1, 69, 0
3, 128736, Note_on_c, 1, 71, 54
3, 128828, Note_off_c, 1, 71, 0
3, 128832, Note_on_c, 1, 73, 54
3, 128924, Note_off_c, 1, 73, 0
3, 128928, Note_on_c, 1, 69, 54
3, 129020, Note_off_c, 1, 73, 0
3, 129020, Note_off_c, 1, 69, 0
3, 129024, Note_on_c, 1, 71, 54
3, 129024, Note_on_c, 1, 67, 54
3, 129404, Note_off_c, 1, 71, 0
3, 129408, Note_on_c, 1, 76, 54
3, 129788, Note_off_c, 1, 67, 0
3, 129788, Note_off_c, 1, 76, 0
3, 129792, Note_on_c, 1, 69, 54
3, 129792, Note_on_c, 1, 66, 54
3, 130364, Note_off_c, 1, 69, 0
3, 130368, Note_on_c, 1, 74, 54
3, 130556, Note_off_c, 1, 66, 0
3, 130556, Note_off_c, 1, 74, 0
3, 130560, Note_on_c, 1, 71, 54
3, 130560, Note_on_c, 1, 67, 54
3, 130940, Note_off_c, 1, 71, 0
3, 130944, Note_on_c, 1, 76, 54
3, 131324, Note_off_c, 1, 67, 0
3, 131324, Note_off_c, 1, 76, 0
3, 131328, Note_on_c, 1, 66, 54
3, 131328, Note_on_c, 1, 69, 54
3, 131900, Note_off_c, 1, 69, 0
3, 131904, Note_on_c, 1, 74, 54
3, 132092, Note_off_c, 1, 66, 0
3, 132092, Note_off_c, 1, 74, 0
3, 132096, Note_on_c, 1, 74, 54
3, 132096, Note_on_c, 1, 67, 54
3, 132284, Note_off_c, 1, 74, 0
3, 132284, Note_off_c, 1, 67, 0
3, 133248, Note_on_c, 1, 74, 54
3, 133248, Note_on_c, 1, 71, 54
3, 133248, Note_on_c, 1, 65, 54
3, 133628, Note_off_c, 1, 74, 0
3, 133628, Note_off_c, 1, 71, 0
3, 133628, Note_off_c, 1, 65, 0
3, 133632, Note_on_c, 1, 74, 54
3, 133632, Note_on_c, 1, 69, 54
3, 133632, Note_on_c, 1, 66, 54
3, 133820, Note_off_c, 1, 74, 0
3, 133820, Note_off_c, 1, 69, 0
3, 133820, Note_off_c, 1, 66, 0
3, 133824, Note_on_c, 1, 74, 54
3, 133824, Note_on_c, 1, 69, 54
3, 133824, Note_on_c, 1, 66, 54
3, 134012, Note_off_c, 1, 74, 0
3, 134012, Note_off_c, 1, 69, 0
3, 134012, Note_off_c, 1, 66, 0
3, 134016, Note_on_c, 1, 74, 54
3, 134016, Note_on_c, 1, 69, 54
3, 134016, Note_on_c, 1, 66, 54
3, 134204, Note_off_c, 1, 74, 0
3, 134204, Note_off_c, 1, 69, 0
3, 134204, Note_off_c, 1, 66, 0
3, 134208, Note_on_c, 1, 74, 54
3, 134208, Note_on_c, 1, 69, 54
3, 134208, Note_on_c, 1, 66, 54
3, 134396, Note_off_c, 1, 74, 0
3, 134396, Note_off_c, 1, 69, 0
3, 134396, Note_off_c, 1, 66, 0
3, 134400, Note_on_c, 1, 73, 54
3, 134400, Note_on_c, 1, 67, 54
3, 134400, Note_on_c, 1, 64, 54
3, 134588, Note_off_c, 1, 73, 0
3, 134588, Note_off_c, 1, 67, 0
3, 134588, Note_off_c, 1, 64, 0
3, 134592, Note_on_c, 1, 73, 54
3, 134592, Note_on_c, 1, 67, 54
3, 134592, Note_on_c, 1, 64, 54
3, 134780, Note_off_c, 1, 73, 0
3, 134780, Note_off_c, 1, 67, 0
3, 134780, Note_off_c, 1, 64, 0
3, 134784, Note_on_c, 1, 73, 54
3, 134784, Note_on_c, 1, 67, 54
3, 134784, Note_on_c, 1, 64, 54
3, 134972, Note_off_c, 1, 73, 0
3, 134972, Note_off_c, 1, 67, 0
3, 134972, Note_off_c, 1, 64, 0
3, 134976, Note_on_c, 1, 73, 54
3, 134976, Note_on_c, 1, 67, 54
3, 134976, Note_on_c, 1, 64, 54
3, 135164, Note_off_c, 1, 73, 0
3, 135164, Note_off_c, 1, 67, 0
3, 135164, Note_off_c, 1, 64, 0
3, 135168, Note_on_c, 1, 74, 54
3, 135168, Note_on_c, 1, 66, 54
3, 135168, Note_on_c, 1, 62, 54
3, 135356, Note_off_c, 1, 74, 0
3, 135356, Note_off_c, 1, 66, 0
3, 135356, Note_off_c, 1, 62, 0
3, 135552, Note_on_c, 1, 74, 54
3, 135552, Note_on_c, 1, 67, 54
3, 135552, Note_on_c, 1, 62, 54
3, 135932, Note_off_c, 1, 74, 0
3, 135932, Note_off_c, 1, 67, 0
3, 135932, Note_off_c, 1, 62, 0
3, 135936, Note_on_c, 1, 73, 54
3, 135936, Note_on_c, 1, 64, 54
3, 135936, Note_on_c, 1, 61, 54
3, 136316, Note_off_c, 1, 73, 0
3, 136316, Note_off_c, 1, 64, 0
3, 136316, Note_off_c, 1, 61, 0
3, 136320, Note_on_c, 1, 71, 54
3, 136320, Note_on_c, 1, 65, 54
3, 136320, Note_on_c, 1, 62, 54
3, 136700, Note_off_c, 1, 71, 0
3, 136700, Note_off_c, 1, 65, 0
3, 136700, Note_off_c, 1, 62, 0
3, 136704, Note_on_c, 1, 69, 54
3, 136704, Note_on_c, 1, 66, 54
3, 136704, Note_on_c, 1, 62, 54
3, 136892, Note_off_c, 1, 69, 0
3, 136892, Note_off_c, 1, 66, 0
3, 136892, Note_off_c, 1, 62, 0
3, 136896, Note_on_c, 1, 74, 54
3, 136896, Note_on_c, 1, 66, 54
3, 137084, Note_off_c, 1, 74, 0
3, 137084, Note_off_c, 1, 66, 0
3, 137088, Note_on_c, 1, 74, 54
3, 137088, Note_on_c, 1, 66, 54
3, 137276, Note_off_c, 1, 74, 0
3, 137276, Note_off_c, 1, 66, 0
3, 137280, Note_on_c, 1, 74, 54
3, 137280, Note_on_c, 1, 66, 54
3, 137468, Note_off_c, 1, 74, 0
3, 137468, Note_off_c, 1, 66, 0
3, 137472, Note_on_c, 1, 74, 54
3, 137472, Note_on_c, 1, 66, 54
3, 137660, Note_off_c, 1, 74, 0
3, 137660, Note_off_c, 1, 66, 0
3, 137664, Note_on_c, 1, 78, 54
3, 137664, Note_on_c, 1, 74, 54
3, 137664, Note_on_c, 1, 69, 54
3, 137852, Note_off_c, 1, 78, 0
3, 137852, Note_off_c, 1, 74, 0
3, 137852, Note_off_c, 1, 69, 0
3, 137856, Note_on_c, 1, 78, 54
3, 137856, Note_on_c, 1, 74, 54
3, 137856, Note_on_c, 1, 69, 54
3, 138044, Note_off_c, 1, 78, 0
3, 138044, Note_off_c, 1, 74, 0
3, 138044, Note_off_c, 1, 69, 0
3, 138048, Note_on_c, 1, 78, 54
3, 138048, Note_on_c, 1, 74, 54
3, 138048, Note_on_c, 1, 69, 54
3, 138236, Note_off_c, 1, 78, 0
3, 138236, Note_off_c, 1, 74, 0
3, 138236, Note_off_c, 1, 69, 0
3, 138240, Note_on_c, 1, 76, 54
3, 138240, Note_on_c, 1, 74, 54
3, 138240, Note_on_c, 1, 67, 54
3, 138428, Note_off_c, 1, 76, 0
3, 138428, Note_off_c, 1, 74, 0
3, 138428, Note_off_c, 1, 67, 0
3, 138432, Note_on_c, 1, 76, 54
3, 138432, Note_on_c, 1, 74, 54
3, 138432, Note_on_c, 1, 67, 54
3, 138620, Note_off_c, 1, 76, 0
3, 138620, Note_off_c, 1, 74, 0
3, 138620, Note_off_c, 1, 67, 0
3, 138624, Note_on_c, 1, 76, 54
3, 138624, Note_on_c, 1, 74, 54
3, 138624, Note_on_c, 1, 67, 54
3, 138812, Note_off_c, 1, 76, 0
3, 138812, Note_off_c, 1, 74, 0
3, 138812, Note_off_c, 1, 67, 0
3, 138816, Note_on_c, 1, 76, 54
3, 138816, Note_on_c, 1, 74, 54
3, 138816, Note_on_c, 1, 67, 54
3, 139004, Note_off_c, 1, 76, 0
3, 139004, Note_off_c, 1, 74, 0
3, 139004, Note_off_c, 1, 67, 0
3, 139008, Note_on_c, 1, 76, 54
3, 139008, Note_on_c, 1, 73, 54
3, 139100, Note_off_c, 1, 76, 0
3, 139100, Note_off_c, 1, 73, 0
3, 139104, Note_on_c, 1, 67, 54
3, 139196, Note_off_c, 1, 67, 0
3, 139200, Note_on_c, 1, 76, 54
3, 139200, Note_on_c, 1, 73, 54
3, 139292, Note_off_c, 1, 76, 0
3, 139292, Note_off_c, 1, 73, 0
3, 139296, Note_on_c, 1, 67, 54
3, 139388, Note_off_c, 1, 67, 0
3, 139392, Note_on_c, 1, 76, 54
3, 139392, Note_on_c, 1, 73, 54
3, 139484, Note_off_c, 1, 76, 0
3, 139484, Note_off_c, 1, 73, 0
3, 139488, Note_on_c, 1, 67, 54
3, 139580, Note_off_c, 1, 67, 0
3, 139584, Note_on_c, 1, 76, 54
3, 139584, Note_on_c, 1, 73, 54
3, 139676, Note_off_c, 1, 76, 0
3, 139676, Note_off_c, 1, 73, 0
3, 139680, Note_on_c, 1, 67, 54
3, 139772, Note_off_c, 1, 67, 0
3, 139776, Note_on_c, 1, 74, 87
3, 139776, Note_on_c, 1, 69, 87
3, 139776, Note_on_c, 1, 66, 87
3, 140156, Note_off_c, 1, 74, 0
3, 140156, Note_off_c, 1, 69, 0
3, 140156, Note_off_c, 1, 66, 0
3, 140160, Note_on_c, 1, 66, 82
3, 140160, Note_on_c, 1, 69, 82
3, 140448, Note_on_c, 1, 69, 82
3, 140540, Note_off_c, 1, 66, 0
3, 140540, Note_off_c, 1, 69, 0
3, 140544, Note_on_c, 1, 69, 82
3, 140544, Note_on_c, 1, 66, 82
3, 140732, Note_off_c, 1, 69, 0
3, 140924, Note_off_c, 1, 69, 0
3, 140928, Note_on_c, 1, 69, 82
3, 141308, Note_off_c, 1, 66, 0
3, 141308, Note_off_c, 1, 69, 0
3, 141312, Note_on_c, 1, 76, 82
3, 141312, Note_on_c, 1, 69, 82
3, 141312, Note_on_c, 1, 81, 82
3, 141500, Note_off_c, 1, 81, 0
3, 141504, Note_on_c, 1, 79, 82
3, 141692, Note_off_c, 1, 79, 0
3, 141696, Note_on_c, 1, 79, 82
3, 142076, Note_off_c, 1, 76, 0
3, 142076, Note_off_c, 1, 69, 0
3, 142080, Note_on_c, 1, 76, 81
3, 142080, Note_on_c, 1, 69, 81
3, 142460, Note_off_c, 1, 79, 0
3, 142460, Note_off_c, 1, 76, 0
3, 142460, Note_off_c, 1, 69, 0
3, 142464, Note_on_c, 1, 81, 81
3, 142556, Note_off_c, 1, 81, 0
3, 142560, Note_on_c, 1, 79, 81
3, 142652, Note_off_c, 1, 79, 0
3, 142656, Note_on_c, 1, 78, 81
3, 142748, Note_off_c, 1, 78, 0
3, 142752, Note_on_c, 1, 76, 81
3, 142844, Note_off_c, 1, 76, 0
3, 142848, Note_on_c, 1, 74, 81
3, 142940, Note_off_c, 1, 74, 0
3, 142944, Note_on_c, 1, 69, 81
3, 142944, Note_on_c, 1, 73, 81
3, 143232, Note_on_c, 1, 73, 81
3, 143324, Note_off_c, 1, 73, 0
3, 143520, Note_on_c, 1, 73, 81
3, 143612, Note_off_c, 1, 73, 0
3, 143616, Note_on_c, 1, 73, 81
3, 143616, Note_on_c, 1, 69, 81
3, 143708, Note_off_c, 1, 69, 0
3, 143804, Note_off_c, 1, 73, 0
3, 143996, Note_off_c, 1, 73, 0
3, 144000, Note_on_c, 1, 73, 81
3, 144380, Note_off_c, 1, 69, 0
3, 144380, Note_off_c, 1, 73, 0
3, 144384, Note_on_c, 1, 81, 81
3, 144384, Note_on_c, 1, 69, 81
3, 144384, Note_on_c, 1, 76, 81
3, 144572, Note_off_c, 1, 76, 0
3, 144576, Note_on_c, 1, 74, 81
3, 144764, Note_off_c, 1, 74, 0
3, 144768, Note_on_c, 1, 74, 81
3, 145148, Note_off_c, 1, 81, 0
3, 145148, Note_off_c, 1, 69, 0
3, 145148, Note_off_c, 1, 74, 0
3, 145152, Note_on_c, 1, 81, 81
3, 145152, Note_on_c, 1, 74, 81
3, 145152, Note_on_c, 1, 69, 81
3, 145532, Note_off_c, 1, 81, 0
3, 145532, Note_off_c, 1, 74, 0
3, 145532, Note_off_c, 1, 69, 0
3, 145536, Note_on_c, 1, 74, 54
3, 145628, Note_off_c, 1, 74, 0
3, 145632, Note_on_c, 1, 73, 54
3, 145724, Note_off_c, 1, 73, 0
3, 145728, Note_on_c, 1, 71, 54
3, 145820, Note_off_c, 1, 71, 0
3, 145824, Note_on_c, 1, 69, 54
3, 145916, Note_off_c, 1, 69, 0
3, 145920, Note_on_c, 1, 59, 54
3, 145920, Note_on_c, 1, 67, 54
3, 146012, Note_off_c, 1, 59, 0
3, 146016, Note_on_c, 1, 61, 54
3, 146108, Note_off_c, 1, 61, 0
3, 146112, Note_on_c, 1, 62, 54
3, 146204, Note_off_c, 1, 62, 0
3, 146208, Note_on_c, 1, 59, 54
3, 146300, Note_off_c, 1, 59, 0
3, 146304, Note_on_c, 1, 61, 54
3, 146396, Note_off_c, 1, 61, 0
3, 146400, Note_on_c, 1, 62, 54
3, 146492, Note_off_c, 1, 62, 0
3, 146496, Note_on_c, 1, 64, 54
3, 146588, Note_off_c, 1, 64, 0
3, 146592, Note_on_c, 1, 61, 54
3, 146684, Note_off_c, 1, 67, 0
3, 146684, Note_off_c, 1, 61, 0
3, 146688, Note_on_c, 1, 62, 54
3, 146688, Note_on_c, 1, 66, 54
3, 146780, Note_off_c, 1, 62, 0
3, 146784, Note_on_c, 1, 64, 54
3, 146876, Note_off_c, 1, 64, 0
3, 146880, Note_on_c, 1, 62, 54
3, 146972, Note_off_c, 1, 62, 0
3, 146976, Note_on_c, 1, 61, 54
3, 147068, Note_off_c, 1, 66, 0
3, 147068, Note_off_c, 1, 61, 0
3, 147072, Note_on_c, 1, 74, 54
3, 147072, Note_on_c, 1, 69, 54
3, 147164, Note_off_c, 1, 74, 0
3, 147168, Note_on_c, 1, 72, 54
3, 147260, Note_off_c, 1, 72, 0
3, 147264, Note_on_c, 1, 71, 54
3, 147356, Note_off_c, 1, 71, 0
3, 147360, Note_on_c, 1, 69, 54
3, 147452, Note_off_c, 1, 69, 0
3, 147452, Note_off_c, 1, 69, 0
3, 147456, Note_on_c, 1, 67, 54
3, 147456, Note_on_c, 1, 67, 54
3, 147548, Note_off_c, 1, 67, 0
3, 147552, Note_on_c, 1, 66, 54
3, 147644, Note_off_c, 1, 66, 0
3, 147648, Note_on_c, 1, 64, 54
3, 147740, Note_off_c, 1, 64, 0
3, 147744, Note_on_c, 1, 62, 54
3, 147836, Note_off_c, 1, 62, 0
3, 147840, Note_on_c, 1, 61, 54
3, 147932, Note_off_c, 1, 61, 0
3, 147936, Note_on_c, 1, 62, 54
3, 148028, Note_off_c, 1, 62, 0
3, 148032, Note_on_c, 1, 64, 54
3, 148124, Note_off_c, 1, 64, 0
3, 148128, Note_on_c, 1, 61, 54
3, 148220, Note_off_c, 1, 67, 0
3, 148220, Note_off_c, 1, 61, 0
3, 148224, Note_on_c, 1, 66, 54
3, 148224, Note_on_c, 1, 62, 54
3, 148224, Note_on_c, 1, 62, 54
3, 148316, Note_off_c, 1, 66, 0
3, 148316, Note_off_c, 1, 62, 0
3, 148320, Note_on_c, 1, 66, 54
3, 148412, Note_off_c, 1, 66, 0
3, 148416, Note_on_c, 1, 69, 54
3, 148508, Note_off_c, 1, 69, 0
3, 148512, Note_on_c, 1, 66, 54
3, 148604, Note_off_c, 1, 62, 0
3, 148604, Note_off_c, 1, 66, 0
3, 148608, Note_on_c, 1, 86, 81
3, 148608, Note_on_c, 1, 74, 81
3, 148700, Note_off_c, 1, 86, 0
3, 148704, Note_on_c, 1, 85, 81
3, 148796, Note_off_c, 1, 85, 0
3, 148800, Note_on_c, 1, 83, 81
3, 148892, Note_off_c, 1, 83, 0
3, 148896, Note_on_c, 1, 81, 81
3, 148988, Note_off_c, 1, 74, 0
3, 148988, Note_off_c, 1, 81, 0
3, 148992, Note_on_c, 1, 83, 81
3, 149276, Note_off_c, 1, 83, 0
3, 149280, Note_on_c, 1, 78, 81
3, 149372, Note_off_c, 1, 78, 0
3, 149376, Note_on_c, 1, 79, 81
3, 149660, Note_off_c, 1, 79, 0
3, 149664, Note_on_c, 1, 75, 81
3, 149756, Note_off_c, 1, 75, 0
3, 149760, Note_on_c, 1, 76, 81
3, 149852, Note_off_c, 1, 76, 0
3, 149856, Note_on_c, 1, 78, 81
3, 149948, Note_off_c, 1, 78, 0
3, 149952, Note_on_c, 1, 79, 81
3, 150044, Note_off_c, 1, 79, 0
3, 150048, Note_on_c, 1, 78, 81
3, 150140, Note_off_c, 1, 78, 0
3, 150144, Note_on_c, 1, 76, 81
3, 150236, Note_off_c, 1, 76, 0
3, 150240, Note_on_c, 1, 74, 81
3, 150332, Note_off_c, 1, 74, 0
3, 150336, Note_on_c, 1, 73, 81
3, 150428, Note_off_c, 1, 73, 0
3, 150432, Note_on_c, 1, 71, 81
3, 150524, Note_off_c, 1, 71, 0
3, 150528, Note_on_c, 1, 69, 81
3, 150620, Note_off_c, 1, 69, 0
3, 150624, Note_on_c, 1, 71, 81
3, 150716, Note_off_c, 1, 71, 0
3, 150720, Note_on_c, 1, 73, 81
3, 150812, Note_off_c, 1, 73, 0
3, 150816, Note_on_c, 1, 74, 81
3, 150908, Note_off_c, 1, 74, 0
3, 150912, Note_on_c, 1, 76, 81
3, 151004, Note_off_c, 1, 76, 0
3, 151008, Note_on_c, 1, 78, 81
3, 151100, Note_off_c, 1, 78, 0
3, 151104, Note_on_c, 1, 79, 81
3, 151196, Note_off_c, 1, 79, 0
3, 151200, Note_on_c, 1, 78, 81
3, 151292, Note_off_c, 1, 78, 0
3, 151296, Note_on_c, 1, 79, 81
3, 151388, Note_off_c, 1, 79, 0
3, 151392, Note_on_c, 1, 78, 81
3, 151484, Note_off_c, 1, 78, 0
3, 151488, Note_on_c, 1, 76, 81
3, 151580, Note_off_c, 1, 76, 0
3, 151584, Note_on_c, 1, 74, 81
3, 151676, Note_off_c, 1, 74, 0
3, 151680, Note_on_c, 1, 73, 81
3, 151680, Note_on_c, 1, 81, 81
3, 151772, Note_off_c, 1, 73, 0
3, 151772, Note_off_c, 1, 81, 0
3, 151776, Note_on_c, 1, 83, 81
3, 151868, Note_off_c, 1, 83, 0
3, 151872, Note_on_c, 1, 85, 81
3, 151964, Note_off_c, 1, 85, 0
3, 151968, Note_on_c, 1, 81, 81
3, 152060, Note_off_c, 1, 81, 0
3, 152064, Note_on_c, 1, 86, 81
3, 152064, Note_on_c, 1, 78, 81
3, 152064, Note_on_c, 1, 74, 81
3, 152156, Note_off_c, 1, 86, 0
3, 152156, Note_off_c, 1, 78, 0
3, 152156, Note_off_c, 1, 74, 0
3, 152160, Note_on_c, 1, 85, 81
3, 152252, Note_off_c, 1, 85, 0
3, 152256, Note_on_c, 1, 86, 81
3, 152348, Note_off_c, 1, 86, 0
3, 152352, Note_on_c, 1, 85, 81
3, 152444, Note_off_c, 1, 85, 0
3, 152448, Note_on_c, 1, 86, 81
3, 152448, Note_on_c, 1, 81, 81
3, 152448, Note_on_c, 1, 78, 81
3, 152636, Note_off_c, 1, 86, 0
3, 152636, Note_off_c, 1, 81, 0
3, 152636, Note_off_c, 1, 78, 0
3, 152640, Note_on_c, 1, 74, 81
3, 152828, Note_off_c, 1, 74, 0
3, 152832, Note_on_c, 1, 76, 81
3, 152832, Note_on_c, 1, 74, 81
3, 152924, Note_off_c, 1, 76, 0
3, 152924, Note_off_c, 1, 74, 0
3, 152928, Note_on_c, 1, 71, 81
3, 153020, Note_off_c, 1, 71, 0
3, 153024, Note_on_c, 1, 76, 81
3, 153024, Note_on_c, 1, 74, 81
3, 153116, Note_off_c, 1, 76, 0
3, 153116, Note_off_c, 1, 74, 0
3, 153120, Note_on_c, 1, 71, 81
3, 153212, Note_off_c, 1, 71, 0
3, 153216, Note_on_c, 1, 76, 81
3, 153216, Note_on_c, 1, 73, 81
3, 153308, Note_off_c, 1, 76, 0
3, 153308, Note_off_c, 1, 73, 0
3, 153312, Note_on_c, 1, 69, 81
3, 153404, Note_off_c, 1, 69, 0
3, 153408, Note_on_c, 1, 76, 81
3, 153408, Note_on_c, 1, 73, 81
3, 153500, Note_off_c, 1, 76, 0
3, 153500, Note_off_c, 1, 73, 0
3, 153504, Note_on_c, 1, 67, 81
3, 153596, Note_off_c, 1, 67, 0
3, 153600, Note_on_c, 1, 74, 81
3, 153600, Note_on_c, 1, 69, 81
3, 153600, Note_on_c, 1, 66, 81
3, 153788, Note_off_c, 1, 74, 0
3, 153788, Note_off_c, 1, 69, 0
3, 153788, Note_off_c, 1, 66, 0
3, 153792, Note_on_c, 1, 78, 81
3, 153884, Note_off_c, 1, 78, 0
3, 153888, Note_on_c, 1, 74, 81
3, 153980, Note_off_c, 1, 74, 0
3, 153984, Note_on_c, 1, 69, 81
3, 154172, Note_off_c, 1, 69, 0
3, 154176, Note_on_c, 1, 66, 81
3, 154268, Note_off_c, 1, 66, 0
3, 154272, Note_on_c, 1, 69, 81
3, 154364, Note_off_c, 1, 69, 0
3, 154368, Note_on_c, 1, 74, 81
3, 154556, Note_off_c, 1, 74, 0
3, 154560, Note_on_c, 1, 78, 81
3, 154652, Note_off_c, 1, 78, 0
3, 154656, Note_on_c, 1, 74, 81
3, 154748, Note_off_c, 1, 74, 0
3, 154752, Note_on_c, 1, 81, 81
3, 154752, Note_on_c, 1, 73, 81
3, 154844, Note_off_c, 1, 81, 0
3, 154844, Note_off_c, 1, 73, 0
3, 154848, Note_on_c, 1, 79, 81
3, 154940, Note_off_c, 1, 79, 0
3, 154944, Note_on_c, 1, 76, 81
3, 155036, Note_off_c, 1, 76, 0
3, 155040, Note_on_c, 1, 73, 81
3, 155132, Note_off_c, 1, 73, 0
3, 155136, Note_on_c, 1, 74, 81
3, 155324, Note_off_c, 1, 74, 0
3, 155328, Note_on_c, 1, 78, 81
3, 155420, Note_off_c, 1, 78, 0
3, 155424, Note_on_c, 1, 74, 81
3, 155516, Note_off_c, 1, 74, 0
3, 155520, Note_on_c, 1, 69, 81
3, 155708, Note_off_c, 1, 69, 0
3, 155712, Note_on_c, 1, 66, 81
3, 155804, Note_off_c, 1, 66, 0
3, 155808, Note_on_c, 1, 69, 81
3, 155900, Note_off_c, 1, 69, 0
3, 155904, Note_on_c, 1, 74, 81
3, 156092, Note_off_c, 1, 74, 0
3, 156096, Note_on_c, 1, 78, 81
3, 156188, Note_off_c, 1, 78, 0
3, 156192, Note_on_c, 1, 74, 81
3, 156284, Note_off_c, 1, 74, 0
3, 156288, Note_on_c, 1, 73, 81
3, 156288, Note_on_c, 1, 81, 81
3, 156380, Note_off_c, 1, 73, 0
3, 156380, Note_off_c, 1, 81, 0
3, 156384, Note_on_c, 1, 79, 81
3, 156476, Note_off_c, 1, 79, 0
3, 156480, Note_on_c, 1, 76, 81
3, 156572, Note_off_c, 1, 76, 0
3, 156576, Note_on_c, 1, 73, 81
3, 156668, Note_off_c, 1, 73, 0
3, 156672, Note_on_c, 1, 74, 81
3, 156764, Note_off_c, 1, 74, 0
3, 156768, Note_on_c, 1, 78, 81
3, 156860, Note_off_c, 1, 78, 0
3, 156864, Note_on_c, 1, 74, 81
3, 156956, Note_off_c, 1, 74, 0
3, 156960, Note_on_c, 1, 69, 81
3, 157052, Note_off_c, 1, 69, 0
3, 157056, Note_on_c, 1, 81, 81
3, 157148, Note_off_c, 1, 81, 0
3, 157152, Note_on_c, 1, 79, 81
3, 157244, Note_off_c, 1, 79, 0
3, 157248, Note_on_c, 1, 76, 81
3, 157340, Note_off_c, 1, 76, 0
3, 157344, Note_on_c, 1, 73, 81
3, 157436, Note_off_c, 1, 73, 0
3, 157440, Note_on_c, 1, 74, 81
3, 157532, Note_off_c, 1, 74, 0
3, 157536, Note_on_c, 1, 78, 81
3, 157628, Note_off_c, 1, 78, 0
3, 157632, Note_on_c, 1, 74, 81
3, 157724, Note_off_c, 1, 74, 0
3, 157728, Note_on_c, 1, 69, 81
3, 157820, Note_off_c, 1, 69, 0
3, 157824, Note_on_c, 1, 81, 81
3, 157916, Note_off_c, 1, 81, 0
3, 157920, Note_on_c, 1, 79, 81
3, 158012, Note_off_c, 1, 79, 0
3, 158016, Note_on_c, 1, 76, 81
3, 158108, Note_off_c, 1, 76, 0
3, 158112, Note_on_c, 1, 73, 81
3, 158204, Note_off_c, 1, 73, 0
3, 158208, Note_on_c, 1, 74, 81
3, 158396, Note_off_c, 1, 74, 0
3, 158592, Note_on_c, 1, 73, 54
3, 158592, Note_on_c, 1, 67, 54
3, 158592, Note_on_c, 1, 64, 54
3, 158780, Note_off_c, 1, 73, 0
3, 158780, Note_off_c, 1, 67, 0
3, 158780, Note_off_c, 1, 64, 0
3, 158976, Note_on_c, 1, 74, 54
3, 158976, Note_on_c, 1, 66, 54
3, 159164, Note_off_c, 1, 74, 0
3, 159164, Note_off_c, 1, 66, 0
3, 159360, Note_on_c, 1, 67, 54
3, 159360, Note_on_c, 1, 64, 54
3, 159360, Note_on_c, 1, 61, 54
3, 159548, Note_off_c, 1, 67, 0
3, 159548, Note_off_c, 1, 64, 0
3, 159548, Note_off_c, 1, 61, 0
3, 159744, Note_on_c, 1, 66, 54
3, 159744, Note_on_c, 1, 62, 54
3, 160124, Note_off_c, 1, 66, 0
3, 160124, Note_off_c, 1, 62, 0
3, 160320, Note_on_c, 1, 74, 54
3, 160320, Note_on_c, 1, 69, 54
3, 160508, Note_off_c, 1, 74, 0
3, 160508, Note_off_c, 1, 69, 0
3, 160512, Note_on_c, 1, 79, 54
3, 160512, Note_on_c, 1, 73, 54
3, 160892, Note_off_c, 1, 79, 0
3, 160892, Note_off_c, 1, 73, 0
3, 161088, Note_on_c, 1, 69, 54
3, 161088, Note_on_c, 1, 67, 54
3, 161088, Note_on_c, 1, 64, 54
3, 161276, Note_off_c, 1, 69, 0
3, 161276, Note_off_c, 1, 67, 0
3, 161276, Note_off_c, 1, 64, 0
3, 161280, Note_on_c, 1, 69, 54
3, 161280, Note_on_c, 1, 66, 54
3, 161660, Note_off_c, 1, 69, 0
3, 161660, Note_off_c, 1, 66, 0
3, 161856, Note_on_c, 1, 62, 81
3, 162044, Note_off_c, 1, 62, 0
3, 162048, Note_on_c, 1, 62, 81
3, 162236, Note_off_c, 1, 62, 0
3, 162240, Note_on_c, 1, 64, 81
3, 162332, Note_off_c, 1, 64, 0
3, 162336, Note_on_c, 1, 66, 81
3, 162428, Note_off_c, 1, 66, 0
3, 162432, Note_on_c, 1, 67, 81
3, 162524, Note_off_c, 1, 67, 0
3, 162528, Note_on_c, 1, 69, 81
3, 162620, Note_off_c, 1, 69, 0
3, 162624, Note_on_c, 1, 71, 81
3, 162716, Note_off_c, 1, 71, 0
3, 162720, Note_on_c, 1, 73, 81
3, 162812, Note_off_c, 1, 73, 0
3, 162816, Note_on_c, 1, 74, 81
3, 162908, Note_off_c, 1, 74, 0
3, 162912, Note_on_c, 1, 73, 81
3, 163004, Note_off_c, 1, 73, 0
3, 163008, Note_on_c, 1, 74, 81
3, 163100, Note_off_c, 1, 74, 0
3, 163104, Note_on_c, 1, 76, 81
3, 163196, Note_off_c, 1, 76, 0
3, 163200, Note_on_c, 1, 77, 81
3, 163388, Note_off_c, 1, 77, 0
3, 163392, Note_on_c, 1, 77, 54
3, 163392, Note_on_c, 1, 81, 54
3, 163580, Note_off_c, 1, 77, 0
3, 163580, Note_off_c, 1, 81, 0
3, 163584, Note_on_c, 1, 79, 54
3, 163584, Note_on_c, 1, 76, 54
3, 163772, Note_off_c, 1, 79, 0
3, 163772, Note_off_c, 1, 76, 0
3, 163776, Note_on_c, 1, 77, 54
3, 163776, Note_on_c, 1, 74, 54
3, 163964, Note_off_c, 1, 77, 0
3, 163964, Note_off_c, 1, 74, 0
3, 163968, Note_on_c, 1, 79, 54
3, 163968, Note_on_c, 1, 76, 54
3, 164156, Note_off_c, 1, 79, 0
3, 164156, Note_off_c, 1, 76, 0
3, 164160, Note_on_c, 1, 76, 54
3, 164160, Note_on_c, 1, 73, 54
3, 164348, Note_off_c, 1, 76, 0
3, 164348, Note_off_c, 1, 73, 0
3, 164352, Note_on_c, 1, 77, 54
3, 164352, Note_on_c, 1, 74, 54
3, 164540, Note_off_c, 1, 77, 0
3, 164540, Note_off_c, 1, 74, 0
3, 164544, Note_on_c, 1, 77, 54
3, 164544, Note_on_c, 1, 74, 54
3, 164732, Note_off_c, 1, 77, 0
3, 164732, Note_off_c, 1, 74, 0
3, 164736, Note_on_c, 1, 77, 54
3, 164736, Note_on_c, 1, 74, 54
3, 164924, Note_off_c, 1, 77, 0
3, 164924, Note_off_c, 1, 74, 0
3, 164928, Note_on_c, 1, 77, 54
3, 164928, Note_on_c, 1, 74, 54
3, 165116, Note_off_c, 1, 77, 0
3, 165116, Note_off_c, 1, 74, 0
3, 165120, Note_on_c, 1, 77, 54
3, 165120, Note_on_c, 1, 74, 54
3, 165308, Note_off_c, 1, 77, 0
3, 165308, Note_off_c, 1, 74, 0
3, 165312, Note_on_c, 1, 76, 54
3, 165312, Note_on_c, 1, 72, 54
3, 165500, Note_off_c, 1, 76, 0
3, 165500, Note_off_c, 1, 72, 0
3, 165504, Note_on_c, 1, 75, 54
3, 165504, Note_on_c, 1, 71, 54
3, 165692, Note_off_c, 1, 75, 0
3, 165692, Note_off_c, 1, 71, 0
3, 165696, Note_on_c, 1, 76, 54
3, 165696, Note_on_c, 1, 72, 54
3, 165884, Note_off_c, 1, 76, 0
3, 165884, Note_off_c, 1, 72, 0
3, 165888, Note_on_c, 1, 76, 54
3, 165888, Note_on_c, 1, 72, 54
3, 166076, Note_off_c, 1, 76, 0
3, 166076, Note_off_c, 1, 72, 0
3, 166080, Note_on_c, 1, 74, 54
3, 166080, Note_on_c, 1, 71, 54
3, 166268, Note_off_c, 1, 74, 0
3, 166268, Note_off_c, 1, 71, 0
3, 166272, Note_on_c, 1, 73, 54
3, 166272, Note_on_c, 1, 70, 54
3, 166460, Note_off_c, 1, 73, 0
3, 166460, Note_off_c, 1, 70, 0
3, 166464, Note_on_c, 1, 74, 54
3, 166464, Note_on_c, 1, 71, 54
3, 166652, Note_off_c, 1, 74, 0
3, 166652, Note_off_c, 1, 71, 0
3, 166656, Note_on_c, 1, 74, 54
3, 166656, Note_on_c, 1, 71, 54
3, 166844, Note_off_c, 1, 74, 0
3, 166844, Note_off_c, 1, 71, 0
3, 166848, Note_on_c, 1, 72, 54
3, 166848, Note_on_c, 1, 69, 54
3, 167036, Note_off_c, 1, 72, 0
3, 167036, Note_off_c, 1, 69, 0
3, 167040, Note_on_c, 1, 71, 54
3, 167040, Note_on_c, 1, 68, 54
3, 167228, Note_off_c, 1, 71, 0
3, 167228, Note_off_c, 1, 68, 0
3, 167232, Note_on_c, 1, 72, 54
3, 167232, Note_on_c, 1, 69, 54
3, 167420, Note_off_c, 1, 72, 0
3, 167420, Note_off_c, 1, 69, 0
3, 167424, Note_on_c, 1, 68, 54
3, 167424, Note_on_c, 1, 71, 54
3, 167804, Note_off_c, 1, 68, 0
3, 167804, Note_off_c, 1, 71, 0
3, 167808, Note_on_c, 1, 69, 54
3, 167808, Note_on_c, 1, 72, 54
3, 168188, Note_off_c, 1, 69, 0
3, 168188, Note_off_c, 1, 72, 0
3, 168384, Note_on_c, 1, 66, 54
3, 168384, Note_on_c, 1, 69, 54
3, 168384, Note_on_c, 1, 62, 54
3, 168572, Note_off_c, 1, 66, 0
3, 168572, Note_off_c, 1, 69, 0
3, 168576, Note_on_c, 1, 68, 54
3, 168576, Note_on_c, 1, 71, 54
3, 168764, Note_off_c, 1, 62, 0
3, 168764, Note_off_c, 1, 68, 0
3, 168764, Note_off_c, 1, 71, 0
3, 168768, Note_on_c, 1, 60, 54
3, 168768, Note_on_c, 1, 69, 54
3, 168768, Note_on_c, 1, 72, 54
3, 168956, Note_off_c, 1, 60, 0
3, 168956, Note_off_c, 1, 69, 0
3, 168956, Note_off_c, 1, 72, 0
3, 168960, Note_on_c, 1, 74, 54
3, 168960, Note_on_c, 1, 71, 54
3, 169148, Note_off_c, 1, 74, 0
3, 169148, Note_off_c, 1, 71, 0
3, 169344, Note_on_c, 1, 74, 54
3, 169344, Note_on_c, 1, 71, 54
3, 169344, Note_on_c, 1, 64, 54
3, 169532, Note_off_c, 1, 74, 0
3, 169532, Note_off_c, 1, 71, 0
3, 169532, Note_off_c, 1, 64, 0
3, 169728, Note_on_c, 1, 74, 54
3, 169728, Note_on_c, 1, 71, 54
3, 169728, Note_on_c, 1, 64, 54
3, 169916, Note_off_c, 1, 74, 0
3, 169916, Note_off_c, 1, 71, 0
3, 169916, Note_off_c, 1, 64, 0
3, 170112, Note_on_c, 1, 74, 54
3, 170112, Note_on_c, 1, 71, 54
3, 170112, Note_on_c, 1, 64, 54
3, 170300, Note_off_c, 1, 74, 0
3, 170300, Note_off_c, 1, 71, 0
3, 170300, Note_off_c, 1, 64, 0
3, 170496, Note_on_c, 1, 72, 87
3, 170496, Note_on_c, 1, 69, 87
3, 170496, Note_on_c, 1, 64, 87
3, 170684, Note_off_c, 1, 72, 0
3, 170684, Note_off_c, 1, 69, 0
3, 170684, Note_off_c, 1, 64, 0
3, 170688, Note_on_c, 1, 76, 81
3, 170780, Note_off_c, 1, 76, 0
3, 170784, Note_on_c, 1, 72, 81
3, 170876, Note_off_c, 1, 72, 0
3, 170880, Note_on_c, 1, 81, 81
3, 171068, Note_off_c, 1, 81, 0
3, 171072, Note_on_c, 1, 76, 81
3, 171164, Note_off_c, 1, 76, 0
3, 171168, Note_on_c, 1, 72, 81
3, 171260, Note_off_c, 1, 72, 0
3, 171264, Note_on_c, 1, 69, 81
3, 171452, Note_off_c, 1, 69, 0
3, 171456, Note_on_c, 1, 72, 81
3, 171548, Note_off_c, 1, 72, 0
3, 171552, Note_on_c, 1, 69, 81
3, 171644, Note_off_c, 1, 69, 0
3, 171648, Note_on_c, 1, 76, 81
3, 171648, Note_on_c, 1, 68, 81
3, 171740, Note_off_c, 1, 76, 0
3, 171740, Note_off_c, 1, 68, 0
3, 171744, Note_on_c, 1, 74, 81
3, 171836, Note_off_c, 1, 74, 0
3, 171840, Note_on_c, 1, 71, 81
3, 171932, Note_off_c, 1, 71, 0
3, 171936, Note_on_c, 1, 68, 81
3, 172028, Note_off_c, 1, 68, 0
3, 172032, Note_on_c, 1, 69, 81
3, 172220, Note_off_c, 1, 69, 0
3, 172224, Note_on_c, 1, 76, 81
3, 172316, Note_off_c, 1, 76, 0
3, 172320, Note_on_c, 1, 72, 81
3, 172412, Note_off_c, 1, 72, 0
3, 172416, Note_on_c, 1, 81, 81
3, 172604, Note_off_c, 1, 81, 0
3, 172608, Note_on_c, 1, 76, 81
3, 172700, Note_off_c, 1, 76, 0
3, 172704, Note_on_c, 1, 72, 81
3, 172796, Note_off_c, 1, 72, 0
3, 172800, Note_on_c, 1, 69, 81
3, 172988, Note_off_c, 1, 69, 0
3, 172992, Note_on_c, 1, 72, 81
3, 173084, Note_off_c, 1, 72, 0
3, 173088, Note_on_c, 1, 69, 81
3, 173180, Note_off_c, 1, 69, 0
3, 173184, Note_on_c, 1, 76, 81
3, 173184, Note_on_c, 1, 68, 81
3, 173276, Note_off_c, 1, 76, 0
3, 173276, Note_off_c, 1, 68, 0
3, 173280, Note_on_c, 1, 74, 81
3, 173372, Note_off_c, 1, 74, 0
3, 173376, Note_on_c, 1, 71, 81
3, 173468, Note_off_c, 1, 71, 0
3, 173472, Note_on_c, 1, 68, 81
3, 173564, Note_off_c, 1, 68, 0
3, 173568, Note_on_c, 1, 69, 81
3, 173660, Note_off_c, 1, 69, 0
3, 173664, Note_on_c, 1, 72, 81
3, 173756, Note_off_c, 1, 72, 0
3, 173760, Note_on_c, 1, 69, 81
3, 173852, Note_off_c, 1, 69, 0
3, 173856, Note_on_c, 1, 64, 81
3, 173948, Note_off_c, 1, 64, 0
3, 173952, Note_on_c, 1, 76, 81
3, 174044, Note_off_c, 1, 76, 0
3, 174048, Note_on_c, 1, 74, 81
3, 174140, Note_off_c, 1, 74, 0
3, 174144, Note_on_c, 1, 71, 81
3, 174236, Note_off_c, 1, 71, 0
3, 174240, Note_on_c, 1, 68, 81
3, 174332, Note_off_c, 1, 68, 0
3, 174336, Note_on_c, 1, 69, 81
3, 174428, Note_off_c, 1, 69, 0
3, 174432, Note_on_c, 1, 72, 81
3, 174524, Note_off_c, 1, 72, 0
3, 174528, Note_on_c, 1, 69, 81
3, 174620, Note_off_c, 1, 69, 0
3, 174624, Note_on_c, 1, 64, 81
3, 174716, Note_off_c, 1, 64, 0
3, 174720, Note_on_c, 1, 76, 81
3, 174812, Note_off_c, 1, 76, 0
3, 174816, Note_on_c, 1, 74, 81
3, 174908, Note_off_c, 1, 74, 0
3, 174912, Note_on_c, 1, 71, 81
3, 175004, Note_off_c, 1, 71, 0
3, 175008, Note_on_c, 1, 68, 81
3, 175100, Note_off_c, 1, 68, 0
3, 175104, Note_on_c, 1, 69, 81
3, 175292, Note_off_c, 1, 69, 0
3, 175488, Note_on_c, 1, 74, 54
3, 175488, Note_on_c, 1, 71, 54
3, 175488, Note_on_c, 1, 68, 54
3, 175676, Note_off_c, 1, 74, 0
3, 175676, Note_off_c, 1, 71, 0
3, 175676, Note_off_c, 1, 68, 0
3, 175872, Note_on_c, 1, 72, 54
3, 175872, Note_on_c, 1, 69, 54
3, 175872, Note_on_c, 1, 64, 54
3, 176060, Note_off_c, 1, 72, 0
3, 176060, Note_off_c, 1, 69, 0
3, 176060, Note_off_c, 1, 64, 0
3, 176256, Note_on_c, 1, 76, 54
3, 176256, Note_on_c, 1, 71, 54
3, 176256, Note_on_c, 1, 68, 54
3, 176444, Note_off_c, 1, 76, 0
3, 176444, Note_off_c, 1, 71, 0
3, 176444, Note_off_c, 1, 68, 0
3, 176640, Note_on_c, 1, 72, 54
3, 176640, Note_on_c, 1, 69, 54
3, 176640, Note_on_c, 1, 64, 54
3, 177020, Note_off_c, 1, 72, 0
3, 177020, Note_off_c, 1, 69, 0
3, 177020, Note_off_c, 1, 64, 0
3, 177216, Note_on_c, 1, 76, 54
3, 177216, Note_on_c, 1, 69, 54
3, 177216, Note_on_c, 1, 64, 54
3, 177404, Note_off_c, 1, 76, 0
3, 177404, Note_off_c, 1, 69, 0
3, 177404, Note_off_c, 1, 64, 0
3, 177408, Note_on_c, 1, 71, 54
3, 177408, Note_on_c, 1, 68, 54
3, 177408, Note_on_c, 1, 64, 54
3, 177788, Note_off_c, 1, 71, 0
3, 177788, Note_off_c, 1, 68, 0
3, 177788, Note_off_c, 1, 64, 0
3, 177984, Note_on_c, 1, 74, 54
3, 177984, Note_on_c, 1, 71, 54
3, 178172, Note_off_c, 1, 74, 0
3, 178172, Note_off_c, 1, 71, 0
3, 178176, Note_on_c, 1, 72, 54
3, 178176, Note_on_c, 1, 69, 54
3, 178556, Note_off_c, 1, 72, 0
3, 178556, Note_off_c, 1, 69, 0
3, 178752, Note_on_c, 1, 57, 87
3, 178940, Note_off_c, 1, 57, 0
3, 178944, Note_on_c, 1, 57, 87
3, 179132, Note_off_c, 1, 57, 0
3, 179136, Note_on_c, 1, 59, 84
3, 179228, Note_off_c, 1, 59, 0
3, 179232, Note_on_c, 1, 60, 82
3, 179324, Note_off_c, 1, 60, 0
3, 179328, Note_on_c, 1, 62, 81
3, 179420, Note_off_c, 1, 62, 0
3, 179424, Note_on_c, 1, 64, 81
3, 179516, Note_off_c, 1, 64, 0
3, 179520, Note_on_c, 1, 66, 81
3, 179612, Note_off_c, 1, 66, 0
3, 179616, Note_on_c, 1, 68, 81
3, 179708, Note_off_c, 1, 68, 0
3, 179712, Note_on_c, 1, 69, 54
3, 179804, Note_off_c, 1, 69, 0
3, 179808, Note_on_c, 1, 68, 54
3, 179900, Note_off_c, 1, 68, 0
3, 179904, Note_on_c, 1, 69, 54
3, 179996, Note_off_c, 1, 69, 0
3, 180000, Note_on_c, 1, 71, 54
3, 180092, Note_off_c, 1, 71, 0
3, 180096, Note_on_c, 1, 72, 54
3, 180284, Note_off_c, 1, 72, 0
3, 180288, Note_on_c, 1, 76, 54
3, 180288, Note_on_c, 1, 72, 54
3, 180476, Note_off_c, 1, 76, 0
3, 180476, Note_off_c, 1, 72, 0
3, 180480, Note_on_c, 1, 74, 54
3, 180480, Note_on_c, 1, 71, 54
3, 180668, Note_off_c, 1, 74, 0
3, 180668, Note_off_c, 1, 71, 0
3, 180672, Note_on_c, 1, 72, 54
3, 180672, Note_on_c, 1, 69, 54
3, 180860, Note_off_c, 1, 72, 0
3, 180860, Note_off_c, 1, 69, 0
3, 180864, Note_on_c, 1, 74, 54
3, 180864, Note_on_c, 1, 71, 54
3, 181052, Note_off_c, 1, 74, 0
3, 181052, Note_off_c, 1, 71, 0
3, 181056, Note_on_c, 1, 71, 54
3, 181056, Note_on_c, 1, 68, 54
3, 181244, Note_off_c, 1, 71, 0
3, 181244, Note_off_c, 1, 68, 0
3, 181248, Note_on_c, 1, 72, 54
3, 181248, Note_on_c, 1, 69, 54
3, 181436, Note_off_c, 1, 72, 0
3, 181436, Note_off_c, 1, 69, 0
3, 181440, Note_on_c, 1, 81, 54
3, 181440, Note_on_c, 1, 84, 54
3, 181628, Note_off_c, 1, 81, 0
3, 181628, Note_off_c, 1, 84, 0
3, 181632, Note_on_c, 1, 81, 54
3, 181632, Note_on_c, 1, 84, 54
3, 181820, Note_off_c, 1, 81, 0
3, 181820, Note_off_c, 1, 84, 0
3, 181824, Note_on_c, 1, 81, 54
3, 181824, Note_on_c, 1, 84, 54
3, 182012, Note_off_c, 1, 81, 0
3, 182012, Note_off_c, 1, 84, 0
3, 182016, Note_on_c, 1, 81, 54
3, 182016, Note_on_c, 1, 84, 54
3, 182204, Note_off_c, 1, 81, 0
3, 182204, Note_off_c, 1, 84, 0
3, 182208, Note_on_c, 1, 79, 54
3, 182208, Note_on_c, 1, 83, 54
3, 182396, Note_off_c, 1, 79, 0
3, 182396, Note_off_c, 1, 83, 0
3, 182400, Note_on_c, 1, 78, 54
3, 182400, Note_on_c, 1, 82, 54
3, 182588, Note_off_c, 1, 78, 0
3, 182588, Note_off_c, 1, 82, 0
3, 182592, Note_on_c, 1, 79, 54
3, 182592, Note_on_c, 1, 83, 54
3, 182780, Note_off_c, 1, 79, 0
3, 182780, Note_off_c, 1, 83, 0
3, 182784, Note_on_c, 1, 79, 54
3, 182784, Note_on_c, 1, 83, 54
3, 182972, Note_off_c, 1, 79, 0
3, 182972, Note_off_c, 1, 83, 0
3, 182976, Note_on_c, 1, 78, 54
3, 182976, Note_on_c, 1, 81, 54
3, 183164, Note_off_c, 1, 78, 0
3, 183164, Note_off_c, 1, 81, 0
3, 183168, Note_on_c, 1, 77, 54
3, 183168, Note_on_c, 1, 80, 54
3, 183356, Note_off_c, 1, 77, 0
3, 183356, Note_off_c, 1, 80, 0
3, 183360, Note_on_c, 1, 78, 54
3, 183360, Note_on_c, 1, 81, 54
3, 183548, Note_off_c, 1, 78, 0
3, 183548, Note_off_c, 1, 81, 0
3, 183552, Note_on_c, 1, 78, 54
3, 183552, Note_on_c, 1, 81, 54
3, 183740, Note_off_c, 1, 78, 0
3, 183740, Note_off_c, 1, 81, 0
3, 183744, Note_on_c, 1, 76, 54
3, 183744, Note_on_c, 1, 79, 54
3, 183932, Note_off_c, 1, 76, 0
3, 183932, Note_off_c, 1, 79, 0
3, 183936, Note_on_c, 1, 78, 54
3, 183936, Note_on_c, 1, 75, 54
3, 184124, Note_off_c, 1, 78, 0
3, 184124, Note_off_c, 1, 75, 0
3, 184128, Note_on_c, 1, 79, 54
3, 184128, Note_on_c, 1, 76, 54
3, 184316, Note_off_c, 1, 79, 0
3, 184316, Note_off_c, 1, 76, 0
3, 184320, Note_on_c, 1, 78, 54
3, 184320, Note_on_c, 1, 72, 54
3, 184320, Note_on_c, 1, 69, 54
3, 184700, Note_off_c, 1, 78, 0
3, 184700, Note_off_c, 1, 72, 0
3, 184700, Note_off_c, 1, 69, 0
3, 184704, Note_on_c, 1, 76, 54
3, 184704, Note_on_c, 1, 71, 54
3, 184704, Note_on_c, 1, 67, 54
3, 185084, Note_off_c, 1, 76, 0
3, 185084, Note_off_c, 1, 71, 0
3, 185084, Note_off_c, 1, 67, 0
3, 185280, Note_on_c, 1, 73, 54
3, 185280, Note_on_c, 1, 69, 54
3, 185280, Note_on_c, 1, 64, 54
3, 185468, Note_off_c, 1, 73, 0
3, 185468, Note_off_c, 1, 69, 0
3, 185472, Note_on_c, 1, 75, 54
3, 185472, Note_on_c, 1, 66, 54
3, 185660, Note_off_c, 1, 64, 0
3, 185660, Note_off_c, 1, 75, 0
3, 185660, Note_off_c, 1, 66, 0
3, 185664, Note_on_c, 1, 76, 54
3, 185664, Note_on_c, 1, 67, 54
3, 185852, Note_off_c, 1, 76, 0
3, 185852, Note_off_c, 1, 67, 0
3, 185856, Note_on_c, 1, 78, 54
3, 185856, Note_on_c, 1, 69, 54
3, 185856, Note_on_c, 1, 66, 54
3, 186044, Note_off_c, 1, 78, 0
3, 186044, Note_off_c, 1, 69, 0
3, 186044, Note_off_c, 1, 66, 0
3, 186240, Note_on_c, 1, 69, 54
3, 186240, Note_on_c, 1, 66, 54
3, 186240, Note_on_c, 1, 71, 54
3, 186428, Note_off_c, 1, 69, 0
3, 186428, Note_off_c, 1, 66, 0
3, 186428, Note_off_c, 1, 71, 0
3, 186624, Note_on_c, 1, 71, 54
3, 186624, Note_on_c, 1, 69, 54
3, 186624, Note_on_c, 1, 66, 54
3, 186812, Note_off_c, 1, 71, 0
3, 186812, Note_off_c, 1, 69, 0
3, 186812, Note_off_c, 1, 66, 0
3, 187008, Note_on_c, 1, 71, 54
3, 187008, Note_on_c, 1, 69, 54
3, 187008, Note_on_c, 1, 66, 54
3, 187196, Note_off_c, 1, 71, 0
3, 187196, Note_off_c, 1, 69, 0
3, 187196, Note_off_c, 1, 66, 0
3, 187392, Note_on_c, 1, 71, 54
3, 187392, Note_on_c, 1, 67, 54
3, 187392, Note_on_c, 1, 64, 54
3, 187580, Note_off_c, 1, 71, 0
3, 187580, Note_off_c, 1, 67, 0
3, 187580, Note_off_c, 1, 64, 0
3, 187584, Note_on_c, 1, 71, 54
3, 187584, Note_on_c, 1, 67, 54
3, 187584, Note_on_c, 1, 64, 54
3, 187772, Note_off_c, 1, 71, 0
3, 187772, Note_off_c, 1, 67, 0
3, 187772, Note_off_c, 1, 64, 0
3, 187776, Note_on_c, 1, 71, 54
3, 187776, Note_on_c, 1, 67, 54
3, 187776, Note_on_c, 1, 64, 54
3, 187964, Note_off_c, 1, 71, 0
3, 187964, Note_off_c, 1, 67, 0
3, 187964, Note_off_c, 1, 64, 0
3, 187968, Note_on_c, 1, 71, 54
3, 187968, Note_on_c, 1, 67, 54
3, 187968, Note_on_c, 1, 64, 54
3, 188156, Note_off_c, 1, 71, 0
3, 188156, Note_off_c, 1, 67, 0
3, 188156, Note_off_c, 1, 64, 0
3, 188160, Note_on_c, 1, 71, 54
3, 188160, Note_on_c, 1, 67, 54
3, 188160, Note_on_c, 1, 64, 54
3, 188348, Note_off_c, 1, 71, 0
3, 188348, Note_off_c, 1, 67, 0
3, 188348, Note_off_c, 1, 64, 0
3, 188352, Note_on_c, 1, 71, 54
3, 188352, Note_on_c, 1, 67, 54
3, 188352, Note_on_c, 1, 64, 54
3, 188540, Note_off_c, 1, 71, 0
3, 188540, Note_off_c, 1, 67, 0
3, 188540, Note_off_c, 1, 64, 0
3, 188544, Note_on_c, 1, 76, 54
3, 188544, Note_on_c, 1, 64, 54
3, 188544, Note_on_c, 1, 67, 54
3, 188732, Note_off_c, 1, 76, 0
3, 188732, Note_off_c, 1, 64, 0
3, 188732, Note_off_c, 1, 67, 0
3, 188736, Note_on_c, 1, 76, 54
3, 188736, Note_on_c, 1, 67, 54
3, 188736, Note_on_c, 1, 64, 54
3, 188924, Note_off_c, 1, 76, 0
3, 188924, Note_off_c, 1, 67, 0
3, 188924, Note_off_c, 1, 64, 0
3, 188928, Note_on_c, 1, 72, 54
3, 188928, Note_on_c, 1, 65, 54
3, 189116, Note_off_c, 1, 72, 0
3, 189116, Note_off_c, 1, 65, 0
3, 189312, Note_on_c, 1, 72, 54
3, 189312, Note_on_c, 1, 65, 54
3, 189500, Note_off_c, 1, 72, 0
3, 189500, Note_off_c, 1, 65, 0
3, 189696, Note_on_c, 1, 72, 54
3, 189696, Note_on_c, 1, 65, 54
3, 189884, Note_off_c, 1, 72, 0
3, 189884, Note_off_c, 1, 65, 0
3, 190080, Note_on_c, 1, 72, 54
3, 190080, Note_on_c, 1, 65, 54
3, 190268, Note_off_c, 1, 72, 0
3, 190268, Note_off_c, 1, 65, 0
3, 190464, Note_on_c, 1, 72, 54
3, 190464, Note_on_c, 1, 65, 54
3, 190652, Note_off_c, 1, 72, 0
3, 190652, Note_off_c, 1, 65, 0
3, 190656, Note_on_c, 1, 72, 54
3, 190656, Note_on_c, 1, 65, 54
3, 190844, Note_off_c, 1, 72, 0
3, 190844, Note_off_c, 1, 65, 0
3, 190848, Note_on_c, 1, 72, 54
3, 190848, Note_on_c, 1, 65, 54
3, 191036, Note_off_c, 1, 72, 0
3, 191036, Note_off_c, 1, 65, 0
3, 191040, Note_on_c, 1, 72, 54
3, 191040, Note_on_c, 1, 65, 54
3, 191228, Note_off_c, 1, 72, 0
3, 191228, Note_off_c, 1, 65, 0
3, 191232, Note_on_c, 1, 72, 54
3, 191232, Note_on_c, 1, 65, 54
3, 191420, Note_off_c, 1, 72, 0
3, 191420, Note_off_c, 1, 65, 0
3, 191424, Note_on_c, 1, 69, 54
3, 191424, Note_on_c, 1, 65, 54
3, 191424, Note_on_c, 1, 60, 54
3, 191612, Note_off_c, 1, 69, 0
3, 191612, Note_off_c, 1, 65, 0
3, 191612, Note_off_c, 1, 60, 0
3, 191616, Note_on_c, 1, 69, 54
3, 191616, Note_on_c, 1, 65, 54
3, 191804, Note_off_c, 1, 69, 0
3, 191804, Note_off_c, 1, 65, 0
3, 191808, Note_on_c, 1, 67, 54
3, 191808, Note_on_c, 1, 64, 54
3, 191808, Note_on_c, 1, 61, 54
3, 191996, Note_off_c, 1, 67, 0
3, 191996, Note_off_c, 1, 64, 0
3, 191996, Note_off_c, 1, 61, 0
3, 192000, Note_on_c, 1, 67, 54
3, 192000, Note_on_c, 1, 64, 54
3, 192380, Note_off_c, 1, 67, 0
3, 192380, Note_off_c, 1, 64, 0
3, 192384, Note_on_c, 1, 66, 54
3, 192384, Note_on_c, 1, 63, 54
3, 192572, Note_off_c, 1, 66, 0
3, 192572, Note_off_c, 1, 63, 0
3, 192576, Note_on_c, 1, 71, 87
3, 192764, Note_off_c, 1, 71, 0
3, 192768, Note_on_c, 1, 71, 84
3, 192956, Note_off_c, 1, 71, 0
3, 192960, Note_on_c, 1, 73, 81
3, 193052, Note_off_c, 1, 73, 0
3, 193056, Note_on_c, 1, 75, 81
3, 193148, Note_off_c, 1, 75, 0
3, 193152, Note_on_c, 1, 76, 81
3, 193244, Note_off_c, 1, 76, 0
3, 193248, Note_on_c, 1, 78, 81
3, 193340, Note_off_c, 1, 78, 0
3, 193344, Note_on_c, 1, 79, 81
3, 193436, Note_off_c, 1, 79, 0
3, 193456, Note_on_c, 1, 82, 81
3, 193536, Note_on_c, 1, 83, 81
3, 193548, Note_off_c, 1, 82, 0
3, 193628, Note_off_c, 1, 83, 0
3, 193632, Note_on_c, 1, 82, 81
3, 193724, Note_off_c, 1, 82, 0
3, 193728, Note_on_c, 1, 83, 81
3, 193820, Note_off_c, 1, 83, 0
3, 193824, Note_on_c, 1, 82, 81
3, 193916, Note_off_c, 1, 82, 0
3, 193920, Note_on_c, 1, 83, 81
3, 194108, Note_off_c, 1, 83, 0
3, 194112, Note_on_c, 1, 75, 54
3, 194112, Note_on_c, 1, 71, 54
3, 194300, Note_off_c, 1, 75, 0
3, 194300, Note_off_c, 1, 71, 0
3, 194304, Note_on_c, 1, 76, 54
3, 194304, Note_on_c, 1, 73, 54
3, 194492, Note_off_c, 1, 76, 0
3, 194492, Note_off_c, 1, 73, 0
3, 194496, Note_on_c, 1, 75, 54
3, 194496, Note_on_c, 1, 71, 54
3, 194684, Note_off_c, 1, 75, 0
3, 194684, Note_off_c, 1, 71, 0
3, 194688, Note_on_c, 1, 76, 54
3, 194688, Note_on_c, 1, 73, 54
3, 194876, Note_off_c, 1, 76, 0
3, 194876, Note_off_c, 1, 73, 0
3, 194880, Note_on_c, 1, 78, 54
3, 194880, Note_on_c, 1, 75, 54
3, 195068, Note_off_c, 1, 78, 0
3, 195068, Note_off_c, 1, 75, 0
3, 195072, Note_on_c, 1, 79, 54
3, 195072, Note_on_c, 1, 76, 54
3, 195260, Note_off_c, 1, 79, 0
3, 195260, Note_off_c, 1, 76, 0
3, 196032, Note_on_c, 1, 79, 54
3, 196032, Note_on_c, 1, 83, 54
3, 196032, Note_on_c, 1, 71, 54
3, 196220, Note_off_c, 1, 79, 0
3, 196220, Note_off_c, 1, 83, 0
3, 196220, Note_off_c, 1, 71, 0
3, 196224, Note_on_c, 1, 79, 54
3, 196224, Note_on_c, 1, 71, 54
3, 196412, Note_off_c, 1, 79, 0
3, 196412, Note_off_c, 1, 71, 0
3, 196416, Note_on_c, 1, 71, 54
3, 196416, Note_on_c, 1, 69, 54
3, 196416, Note_on_c, 1, 78, 54
3, 196460, Note_off_c, 1, 78, 0
3, 196464, Note_on_c, 1, 79, 54
3, 196508, Note_off_c, 1, 79, 0
3, 196512, Note_on_c, 1, 76, 54
3, 196556, Note_off_c, 1, 76, 0
3, 196560, Note_on_c, 1, 78, 54
3, 196604, Note_off_c, 1, 71, 0
3, 196604, Note_off_c, 1, 69, 0
3, 196604, Note_off_c, 1, 78, 0
3, 196608, Note_on_c, 1, 76, 54
3, 196608, Note_on_c, 1, 67, 54
3, 196796, Note_off_c, 1, 76, 0
3, 196796, Note_off_c, 1, 67, 0
3, 196992, Note_on_c, 1, 71, 54
3, 196992, Note_on_c, 1, 67, 54
3, 197756, Note_off_c, 1, 71, 0
3, 197756, Note_off_c, 1, 67, 0
3, 197760, Note_on_c, 1, 74, 54
3, 197760, Note_on_c, 1, 68, 54
3, 198140, Note_off_c, 1, 74, 0
3, 198140, Note_off_c, 1, 68, 0
3, 198144, Note_on_c, 1, 72, 54
3, 198144, Note_on_c, 1, 69, 54
3, 198144, Note_on_c, 1, 64, 54
3, 198524, Note_off_c, 1, 72, 0
3, 198524, Note_off_c, 1, 69, 0
3, 198524, Note_off_c, 1, 64, 0
3, 199104, Note_on_c, 1, 76, 54
3, 199104, Note_on_c, 1, 72, 54
3, 199104, Note_on_c, 1, 64, 54
3, 199292, Note_off_c, 1, 76, 0
3, 199292, Note_off_c, 1, 72, 0
3, 199292, Note_off_c, 1, 64, 0
3, 199296, Note_on_c, 1, 72, 54
3, 199296, Note_on_c, 1, 64, 54
3, 199484, Note_off_c, 1, 72, 0
3, 199484, Note_off_c, 1, 64, 0
3, 199488, Note_on_c, 1, 64, 54
3, 199488, Note_on_c, 1, 62, 54
3, 199488, Note_on_c, 1, 71, 54
3, 199532, Note_off_c, 1, 71, 0
3, 199536, Note_on_c, 1, 72, 54
3, 199580, Note_off_c, 1, 72, 0
3, 199584, Note_on_c, 1, 69, 54
3, 199628, Note_off_c, 1, 69, 0
3, 199632, Note_on_c, 1, 71, 54
3, 199676, Note_off_c, 1, 64, 0
3, 199676, Note_off_c, 1, 62, 0
3, 199676, Note_off_c, 1, 71, 0
3, 199680, Note_on_c, 1, 69, 54
3, 199680, Note_on_c, 1, 60, 54
3, 199868, Note_off_c, 1, 69, 0
3, 199868, Note_off_c, 1, 60, 0
3, 200064, Note_on_c, 1, 72, 54
3, 200064, Note_on_c, 1, 69, 54
3, 200252, Note_off_c, 1, 72, 0
3, 200448, Note_on_c, 1, 76, 54
3, 200828, Note_off_c, 1, 69, 0
3, 200828, Note_off_c, 1, 76, 0
3, 200832, Note_on_c, 1, 67, 54
3, 200832, Note_on_c, 1, 64, 54
3, 201212, Note_off_c, 1, 67, 0
3, 201212, Note_off_c, 1, 64, 0
3, 201216, Note_on_c, 1, 66, 54
3, 201596, Note_off_c, 1, 66, 0
3, 202176, Note_on_c, 1, 78, 54
3, 202176, Note_on_c, 1, 81, 54
3, 202364, Note_off_c, 1, 78, 0
3, 202364, Note_off_c, 1, 81, 0
3, 202368, Note_on_c, 1, 78, 54
3, 202368, Note_on_c, 1, 69, 54
3, 202556, Note_off_c, 1, 78, 0
3, 202560, Note_on_c, 1, 67, 54
3, 202560, Note_on_c, 1, 76, 54
3, 202604, Note_off_c, 1, 76, 0
3, 202608, Note_on_c, 1, 78, 54
3, 202652, Note_off_c, 1, 78, 0
3, 202656, Note_on_c, 1, 74, 54
3, 202700, Note_off_c, 1, 74, 0
3, 202704, Note_on_c, 1, 76, 54
3, 202748, Note_off_c, 1, 69, 0
3, 202748, Note_off_c, 1, 67, 0
3, 202748, Note_off_c, 1, 76, 0
3, 202752, Note_on_c, 1, 74, 54
3, 202752, Note_on_c, 1, 69, 54
3, 202752, Note_on_c, 1, 66, 54
3, 202940, Note_off_c, 1, 74, 0
3, 202940, Note_off_c, 1, 69, 0
3, 202940, Note_off_c, 1, 66, 0
3, 203136, Note_on_c, 1, 69, 54
3, 203136, Note_on_c, 1, 66, 54
3, 203900, Note_off_c, 1, 69, 0
3, 203900, Note_off_c, 1, 66, 0
3, 203904, Note_on_c, 1, 72, 54
3, 203904, Note_on_c, 1, 66, 54
3, 204284, Note_off_c, 1, 72, 0
3, 204284, Note_off_c, 1, 66, 0
3, 204288, Note_on_c, 1, 71, 54
3, 204288, Note_on_c, 1, 67, 54
3, 204288, Note_on_c, 1, 62, 54
3, 204668, Note_off_c, 1, 71, 0
3, 204668, Note_off_c, 1, 67, 0
3, 204668, Note_off_c, 1, 62, 0
3, 205248, Note_on_c, 1, 74, 54
3, 205248, Note_on_c, 1, 71, 54
3, 205436, Note_off_c, 1, 74, 0
3, 205436, Note_off_c, 1, 71, 0
3, 205440, Note_on_c, 1, 71, 54
3, 205440, Note_on_c, 1, 62, 54
3, 205628, Note_off_c, 1, 71, 0
3, 205632, Note_on_c, 1, 69, 54
3, 205632, Note_on_c, 1, 60, 54
3, 205820, Note_off_c, 1, 62, 0
3, 205820, Note_off_c, 1, 69, 0
3, 205820, Note_off_c, 1, 60, 0
3, 205824, Note_on_c, 1, 67, 54
3, 205824, Note_on_c, 1, 59, 54
3, 206204, Note_off_c, 1, 67, 0
3, 206204, Note_off_c, 1, 59, 0
3, 206208, Note_on_c, 1, 71, 54
3, 206208, Note_on_c, 1, 67, 54
3, 206588, Note_off_c, 1, 71, 0
3, 206592, Note_on_c, 1, 74, 54
3, 206972, Note_off_c, 1, 67, 0
3, 206972, Note_off_c, 1, 74, 0
3, 206976, Note_on_c, 1, 66, 54
3, 207356, Note_off_c, 1, 66, 0
3, 207360, Note_on_c, 1, 64, 54
3, 207548, Note_off_c, 1, 64, 0
3, 207552, Note_on_c, 1, 67, 54
3, 207552, Note_on_c, 1, 64, 54
3, 207740, Note_off_c, 1, 67, 0
3, 207740, Note_off_c, 1, 64, 0
3, 207744, Note_on_c, 1, 67, 54
3, 207744, Note_on_c, 1, 64, 54
3, 207932, Note_off_c, 1, 67, 0
3, 207932, Note_off_c, 1, 64, 0
3, 207936, Note_on_c, 1, 67, 54
3, 207936, Note_on_c, 1, 64, 54
3, 208124, Note_off_c, 1, 67, 0
3, 208124, Note_off_c, 1, 64, 0
3, 208128, Note_on_c, 1, 68, 54
3, 208128, Note_on_c, 1, 62, 54
3, 208316, Note_off_c, 1, 68, 0
3, 208316, Note_off_c, 1, 62, 0
3, 208320, Note_on_c, 1, 68, 54
3, 208320, Note_on_c, 1, 62, 54
3, 208508, Note_off_c, 1, 68, 0
3, 208508, Note_off_c, 1, 62, 0
3, 208512, Note_on_c, 1, 68, 54
3, 208512, Note_on_c, 1, 62, 54
3, 208700, Note_off_c, 1, 68, 0
3, 208700, Note_off_c, 1, 62, 0
3, 208704, Note_on_c, 1, 68, 54
3, 208704, Note_on_c, 1, 62, 54
3, 208892, Note_off_c, 1, 68, 0
3, 208892, Note_off_c, 1, 62, 0
3, 208896, Note_on_c, 1, 69, 54
3, 208896, Note_on_c, 1, 64, 54
3, 209276, Note_off_c, 1, 69, 0
3, 209276, Note_off_c, 1, 64, 0
3, 209856, Note_on_c, 1, 64, 54
3, 209856, Note_on_c, 1, 60, 54
3, 210044, Note_off_c, 1, 64, 0
3, 210044, Note_off_c, 1, 60, 0
3, 210048, Note_on_c, 1, 65, 54
3, 210048, Note_on_c, 1, 62, 54
3, 210236, Note_off_c, 1, 65, 0
3, 210236, Note_off_c, 1, 62, 0
3, 210240, Note_on_c, 1, 64, 54
3, 210240, Note_on_c, 1, 60, 54
3, 210428, Note_off_c, 1, 64, 0
3, 210428, Note_off_c, 1, 60, 0
3, 210432, Note_on_c, 1, 67, 54
3, 210432, Note_on_c, 1, 62, 54
3, 210620, Note_off_c, 1, 67, 0
3, 210620, Note_off_c, 1, 62, 0
3, 210624, Note_on_c, 1, 67, 54
3, 210624, Note_on_c, 1, 62, 54
3, 210812, Note_off_c, 1, 67, 0
3, 210812, Note_off_c, 1, 62, 0
3, 210816, Note_on_c, 1, 67, 54
3, 210816, Note_on_c, 1, 62, 54
3, 211004, Note_off_c, 1, 67, 0
3, 211004, Note_off_c, 1, 62, 0
3, 211008, Note_on_c, 1, 67, 54
3, 211008, Note_on_c, 1, 62, 54
3, 211196, Note_off_c, 1, 67, 0
3, 211196, Note_off_c, 1, 62, 0
3, 211200, Note_on_c, 1, 69, 54
3, 211200, Note_on_c, 1, 66, 54
3, 211388, Note_off_c, 1, 69, 0
3, 211388, Note_off_c, 1, 66, 0
3, 211392, Note_on_c, 1, 69, 54
3, 211392, Note_on_c, 1, 66, 54
3, 211580, Note_off_c, 1, 69, 0
3, 211580, Note_off_c, 1, 66, 0
3, 211584, Note_on_c, 1, 69, 54
3, 211584, Note_on_c, 1, 66, 54
3, 211772, Note_off_c, 1, 69, 0
3, 211772, Note_off_c, 1, 66, 0
3, 211776, Note_on_c, 1, 69, 54
3, 211776, Note_on_c, 1, 66, 54
3, 211964, Note_off_c, 1, 69, 0
3, 211964, Note_off_c, 1, 66, 0
3, 211968, Note_on_c, 1, 67, 54
3, 211968, Note_on_c, 1, 62, 54
3, 212348, Note_off_c, 1, 67, 0
3, 212348, Note_off_c, 1, 62, 0
3, 212928, Note_on_c, 1, 62, 54
3, 212928, Note_on_c, 1, 59, 54
3, 213116, Note_off_c, 1, 62, 0
3, 213116, Note_off_c, 1, 59, 0
3, 213120, Note_on_c, 1, 63, 54
3, 213120, Note_on_c, 1, 60, 54
3, 213308, Note_off_c, 1, 63, 0
3, 213308, Note_off_c, 1, 60, 0
3, 213312, Note_on_c, 1, 62, 54
3, 213312, Note_on_c, 1, 59, 54
3, 213500, Note_off_c, 1, 62, 0
3, 213500, Note_off_c, 1, 59, 0
3, 213504, Note_on_c, 1, 64, 54
3, 213692, Note_off_c, 1, 64, 0
3, 213696, Note_on_c, 1, 64, 54
3, 213884, Note_off_c, 1, 64, 0
3, 213888, Note_on_c, 1, 64, 54
3, 213888, Note_on_c, 1, 67, 54
3, 214076, Note_off_c, 1, 64, 0
3, 214076, Note_off_c, 1, 67, 0
3, 214080, Note_on_c, 1, 64, 54
3, 214080, Note_on_c, 1, 67, 54
3, 214268, Note_off_c, 1, 64, 0
3, 214268, Note_off_c, 1, 67, 0
3, 214272, Note_on_c, 1, 64, 54
3, 214272, Note_on_c, 1, 69, 54
3, 214460, Note_off_c, 1, 64, 0
3, 214460, Note_off_c, 1, 69, 0
3, 214464, Note_on_c, 1, 64, 54
3, 214464, Note_on_c, 1, 69, 54
3, 214652, Note_off_c, 1, 64, 0
3, 214652, Note_off_c, 1, 69, 0
3, 214656, Note_on_c, 1, 64, 54
3, 214656, Note_on_c, 1, 70, 54
3, 214844, Note_off_c, 1, 64, 0
3, 214844, Note_off_c, 1, 70, 0
3, 214848, Note_on_c, 1, 70, 54
3, 214848, Note_on_c, 1, 64, 54
3, 215036, Note_off_c, 1, 70, 0
3, 215036, Note_off_c, 1, 64, 0
3, 215040, Note_on_c, 1, 69, 54
3, 215040, Note_on_c, 1, 63, 54
3, 215228, Note_off_c, 1, 69, 0
3, 215228, Note_off_c, 1, 63, 0
3, 215232, Note_on_c, 1, 69, 54
3, 215232, Note_on_c, 1, 63, 54
3, 215420, Note_off_c, 1, 69, 0
3, 215420, Note_off_c, 1, 63, 0
3, 215424, Note_on_c, 1, 69, 54
3, 215424, Note_on_c, 1, 63, 54
3, 215612, Note_off_c, 1, 69, 0
3, 215612, Note_off_c, 1, 63, 0
3, 215616, Note_on_c, 1, 69, 54
3, 215616, Note_on_c, 1, 63, 54
3, 215804, Note_off_c, 1, 69, 0
3, 215804, Note_off_c, 1, 63, 0
3, 215808, Note_on_c, 1, 67, 54
3, 215808, Note_on_c, 1, 62, 54
3, 215996, Note_off_c, 1, 67, 0
3, 215996, Note_off_c, 1, 62, 0
3, 216000, Note_on_c, 1, 67, 54
3, 216000, Note_on_c, 1, 62, 54
3, 216188, Note_off_c, 1, 67, 0
3, 216188, Note_off_c, 1, 62, 0
3, 216192, Note_on_c, 1, 67, 54
3, 216192, Note_on_c, 1, 62, 54
3, 216380, Note_off_c, 1, 67, 0
3, 216380, Note_off_c, 1, 62, 0
3, 216384, Note_on_c, 1, 67, 54
3, 216384, Note_on_c, 1, 62, 54
3, 216572, Note_off_c, 1, 67, 0
3, 216572, Note_off_c, 1, 62, 0
3, 216576, Note_on_c, 1, 70, 54
3, 216576, Note_on_c, 1, 67, 54
3, 216576, Note_on_c, 1, 64, 54
3, 216764, Note_off_c, 1, 70, 0
3, 216764, Note_off_c, 1, 67, 0
3, 216764, Note_off_c, 1, 64, 0
3, 216768, Note_on_c, 1, 70, 54
3, 216768, Note_on_c, 1, 67, 54
3, 216768, Note_on_c, 1, 64, 54
3, 216956, Note_off_c, 1, 70, 0
3, 216956, Note_off_c, 1, 67, 0
3, 216956, Note_off_c, 1, 64, 0
3, 216960, Note_on_c, 1, 70, 54
3, 216960, Note_on_c, 1, 67, 54
3, 216960, Note_on_c, 1, 64, 54
3, 217148, Note_off_c, 1, 70, 0
3, 217148, Note_off_c, 1, 67, 0
3, 217148, Note_off_c, 1, 64, 0
3, 217152, Note_on_c, 1, 70, 54
3, 217152, Note_on_c, 1, 67, 54
3, 217152, Note_on_c, 1, 64, 54
3, 217340, Note_off_c, 1, 70, 0
3, 217340, Note_off_c, 1, 67, 0
3, 217340, Note_off_c, 1, 64, 0
3, 217344, Note_on_c, 1, 70, 54
3, 217344, Note_on_c, 1, 67, 54
3, 217344, Note_on_c, 1, 64, 54
3, 217532, Note_off_c, 1, 70, 0
3, 217532, Note_off_c, 1, 67, 0
3, 217532, Note_off_c, 1, 64, 0
3, 217536, Note_on_c, 1, 70, 54
3, 217536, Note_on_c, 1, 67, 54
3, 217536, Note_on_c, 1, 64, 54
3, 217724, Note_off_c, 1, 70, 0
3, 217724, Note_off_c, 1, 67, 0
3, 217724, Note_off_c, 1, 64, 0
3, 217728, Note_on_c, 1, 67, 54
3, 217728, Note_on_c, 1, 64, 54
3, 217728, Note_on_c, 1, 58, 54
3, 217916, Note_off_c, 1, 67, 0
3, 217916, Note_off_c, 1, 64, 0
3, 217916, Note_off_c, 1, 58, 0
3, 217920, Note_on_c, 1, 67, 54
3, 217920, Note_on_c, 1, 64, 54
3, 217920, Note_on_c, 1, 58, 54
3, 218108, Note_off_c, 1, 67, 0
3, 218108, Note_off_c, 1, 64, 0
3, 218108, Note_off_c, 1, 58, 0
3, 218112, Note_on_c, 1, 66, 87
3, 218112, Note_on_c, 1, 62, 87
3, 218112, Note_on_c, 1, 57, 87
3, 218300, Note_off_c, 1, 66, 0
3, 218300, Note_off_c, 1, 62, 0
3, 218300, Note_off_c, 1, 57, 0
3, 218304, Note_on_c, 1, 64, 84
3, 218396, Note_off_c, 1, 64, 0
3, 218400, Note_on_c, 1, 66, 82
3, 218492, Note_off_c, 1, 66, 0
3, 218496, Note_on_c, 1, 67, 81
3, 218588, Note_off_c, 1, 67, 0
3, 218592, Note_on_c, 1, 69, 81
3, 218684, Note_off_c, 1, 69, 0
3, 218688, Note_on_c, 1, 71, 81
3, 218780, Note_off_c, 1, 71, 0
3, 218784, Note_on_c, 1, 73, 81
3, 218876, Note_off_c, 1, 73, 0
3, 218880, Note_on_c, 1, 74, 81
3, 219068, Note_off_c, 1, 74, 0
3, 219072, Note_on_c, 1, 74, 81
3, 219260, Note_off_c, 1, 74, 0
3, 219264, Note_on_c, 1, 74, 81
3, 219452, Note_off_c, 1, 74, 0
3, 219456, Note_on_c, 1, 74, 81
3, 219644, Note_off_c, 1, 74, 0
3, 219648, Note_on_c, 1, 74, 81
3, 219836, Note_off_c, 1, 74, 0
3, 219840, Note_on_c, 1, 76, 54
3, 219932, Note_off_c, 1, 76, 0
3, 219936, Note_on_c, 1, 78, 54
3, 220028, Note_off_c, 1, 78, 0
3, 220032, Note_on_c, 1, 79, 54
3, 220124, Note_off_c, 1, 79, 0
3, 220128, Note_on_c, 1, 81, 54
3, 220220, Note_off_c, 1, 81, 0
3, 220224, Note_on_c, 1, 82, 54
3, 220316, Note_off_c, 1, 82, 0
3, 220320, Note_on_c, 1, 84, 54
3, 220412, Note_off_c, 1, 84, 0
3, 220416, Note_on_c, 1, 86, 54
3, 220416, Note_on_c, 1, 79, 54
3, 220604, Note_off_c, 1, 86, 0
3, 220608, Note_on_c, 1, 86, 54
3, 220796, Note_off_c, 1, 86, 0
3, 220800, Note_on_c, 1, 86, 54
3, 220988, Note_off_c, 1, 86, 0
3, 220992, Note_on_c, 1, 86, 54
3, 221180, Note_off_c, 1, 79, 0
3, 221180, Note_off_c, 1, 86, 0
3, 221184, Note_on_c, 1, 86, 87
3, 221184, Note_on_c, 1, 81, 87
3, 221184, Note_on_c, 1, 78, 87
3, 221372, Note_off_c, 1, 86, 0
3, 221372, Note_off_c, 1, 81, 0
3, 221372, Note_off_c, 1, 78, 0
3, 221376, Note_on_c, 1, 64, 84
3, 221468, Note_off_c, 1, 64, 0
3, 221472, Note_on_c, 1, 66, 82
3, 221564, Note_off_c, 1, 66, 0
3, 221568, Note_on_c, 1, 67, 81
3, 221660, Note_off_c, 1, 67, 0
3, 221664, Note_on_c, 1, 69, 81
3, 221756, Note_off_c, 1, 69, 0
3, 221760, Note_on_c, 1, 71, 81
3, 221852, Note_off_c, 1, 71, 0
3, 221856, Note_on_c, 1, 73, 81
3, 221948, Note_off_c, 1, 73, 0
3, 221952, Note_on_c, 1, 74, 81
3, 222140, Note_off_c, 1, 74, 0
3, 222144, Note_on_c, 1, 74, 81
3, 222332, Note_off_c, 1, 74, 0
3, 222336, Note_on_c, 1, 74, 81
3, 222524, Note_off_c, 1, 74, 0
3, 222528, Note_on_c, 1, 74, 81
3, 222716, Note_off_c, 1, 74, 0
3, 222720, Note_on_c, 1, 74, 81
3, 222908, Note_off_c, 1, 74, 0
3, 222912, Note_on_c, 1, 76, 54
3, 223004, Note_off_c, 1, 76, 0
3, 223008, Note_on_c, 1, 78, 54
3, 223100, Note_off_c, 1, 78, 0
3, 223104, Note_on_c, 1, 79, 54
3, 223196, Note_off_c, 1, 79, 0
3, 223200, Note_on_c, 1, 81, 54
3, 223292, Note_off_c, 1, 81, 0
3, 223296, Note_on_c, 1, 82, 54
3, 223388, Note_off_c, 1, 82, 0
3, 223392, Note_on_c, 1, 84, 54
3, 223484, Note_off_c, 1, 84, 0
3, 223488, Note_on_c, 1, 86, 54
3, 223488, Note_on_c, 1, 79, 54
3, 223676, Note_off_c, 1, 86, 0
3, 223680, Note_on_c, 1, 86, 54
3, 223868, Note_off_c, 1, 86, 0
3, 223872, Note_on_c, 1, 86, 54
3, 224060, Note_off_c, 1, 86, 0
3, 224064, Note_on_c, 1, 86, 54
3, 224252, Note_off_c, 1, 79, 0
3, 224252, Note_off_c, 1, 86, 0
3, 224256, Note_on_c, 1, 86, 87
3, 224256, Note_on_c, 1, 81, 87
3, 224256, Note_on_c, 1, 78, 87
3, 224444, Note_off_c, 1, 86, 0
3, 224444, Note_off_c, 1, 81, 0
3, 224444, Note_off_c, 1, 78, 0
3, 224448, Note_on_c, 1, 64, 84
3, 224540, Note_off_c, 1, 64, 0
3, 224544, Note_on_c, 1, 66, 82
3, 224636, Note_off_c, 1, 66, 0
3, 224640, Note_on_c, 1, 67, 81
3, 224732, Note_off_c, 1, 67, 0
3, 224736, Note_on_c, 1, 69, 81
3, 224828, Note_off_c, 1, 69, 0
3, 224832, Note_on_c, 1, 70, 81
3, 224924, Note_off_c, 1, 70, 0
3, 224928, Note_on_c, 1, 73, 81
3, 225020, Note_off_c, 1, 73, 0
3, 225024, Note_on_c, 1, 74, 81
3, 225212, Note_off_c, 1, 74, 0
3, 225216, Note_on_c, 1, 74, 81
3, 225404, Note_off_c, 1, 74, 0
3, 225408, Note_on_c, 1, 74, 81
3, 225596, Note_off_c, 1, 74, 0
3, 225600, Note_on_c, 1, 74, 81
3, 225788, Note_off_c, 1, 74, 0
3, 225792, Note_on_c, 1, 74, 84
3, 225792, Note_on_c, 1, 74, 84
3, 226556, Note_off_c, 1, 74, 0
3, 226560, Note_on_c, 1, 73, 54
3, 226940, Note_off_c, 1, 73, 0
3, 226944, Note_on_c, 1, 72, 54
3, 227324, Note_off_c, 1, 74, 0
3, 227324, Note_off_c, 1, 72, 0
3, 227328, Note_on_c, 1, 74, 54
3, 227328, Note_on_c, 1, 71, 54
3, 227328, Note_on_c, 1, 62, 54
3, 227708, Note_off_c, 1, 74, 0
3, 227708, Note_off_c, 1, 71, 0
3, 227712, Note_on_c, 1, 72, 54
3, 227712, Note_on_c, 1, 69, 54
3, 228092, Note_off_c, 1, 72, 0
3, 228092, Note_off_c, 1, 69, 0
3, 228096, Note_on_c, 1, 71, 54
3, 228096, Note_on_c, 1, 67, 54
3, 228476, Note_off_c, 1, 62, 0
3, 228476, Note_off_c, 1, 71, 0
3, 228476, Note_off_c, 1, 67, 0
3, 228480, Note_on_c, 1, 69, 54
3, 228480, Note_on_c, 1, 66, 54
3, 228480, Note_on_c, 1, 60, 54
3, 228860, Note_off_c, 1, 69, 0
3, 228860, Note_off_c, 1, 66, 0
3, 228860, Note_off_c, 1, 60, 0
3, 228864, Note_on_c, 1, 79, 87
3, 228864, Note_on_c, 1, 74, 87
3, 228864, Note_on_c, 1, 71, 87
3, 228864, Note_on_c, 1, 67, 87
3, 229244, Note_off_c, 1, 79, 0
3, 229244, Note_off_c, 1, 74, 0
3, 229244, Note_off_c, 1, 71, 0
3, 229244, Note_off_c, 1, 67, 0
3, 229248, Note_on_c, 1, 74, 84
3, 229248, Note_on_c, 1, 71, 84
3, 229248, Note_on_c, 1, 67, 84
3, 229536, Note_on_c, 1, 74, 82
3, 229628, Note_off_c, 1, 74, 0
3, 229632, Note_on_c, 1, 74, 82
3, 229632, Note_on_c, 1, 71, 82
3, 229632, Note_on_c, 1, 62, 82
3, 229820, Note_off_c, 1, 71, 0
3, 229820, Note_off_c, 1, 67, 0
3, 229820, Note_off_c, 1, 74, 0
3, 230012, Note_off_c, 1, 74, 0
3, 230012, Note_off_c, 1, 71, 0
3, 230012, Note_off_c, 1, 62, 0
3, 230016, Note_on_c, 1, 74, 82
3, 230016, Note_on_c, 1, 71, 82
3, 230016, Note_on_c, 1, 67, 82
3, 230396, Note_off_c, 1, 74, 0
3, 230396, Note_off_c, 1, 71, 0
3, 230396, Note_off_c, 1, 67, 0
3, 230400, Note_on_c, 1, 81, 82
3, 230400, Note_on_c, 1, 74, 82
3, 230400, Note_on_c, 1, 86, 82
3, 230588, Note_off_c, 1, 86, 0
3, 230592, Note_on_c, 1, 84, 82
3, 230780, Note_off_c, 1, 84, 0
3, 230784, Note_on_c, 1, 84, 82
3, 231164, Note_off_c, 1, 81, 0
3, 231164, Note_off_c, 1, 74, 0
3, 231168, Note_on_c, 1, 78, 81
3, 231168, Note_on_c, 1, 74, 81
3, 231548, Note_off_c, 1, 84, 0
3, 231548, Note_off_c, 1, 78, 0
3, 231548, Note_off_c, 1, 74, 0
3, 231552, Note_on_c, 1, 78, 81
3, 231552, Note_on_c, 1, 86, 81
3, 231644, Note_off_c, 1, 86, 0
3, 231648, Note_on_c, 1, 84, 81
3, 231740, Note_off_c, 1, 84, 0
3, 231744, Note_on_c, 1, 83, 81
3, 231836, Note_off_c, 1, 83, 0
3, 231840, Note_on_c, 1, 81, 81
3, 231932, Note_off_c, 1, 78, 0
3, 231932, Note_off_c, 1, 81, 0
3, 231936, Note_on_c, 1, 81, 81
3, 231936, Note_on_c, 1, 74, 81
3, 232028, Note_off_c, 1, 81, 0
3, 232032, Note_on_c, 1, 79, 81
3, 232124, Note_off_c, 1, 79, 0
3, 232128, Note_on_c, 1, 78, 81
3, 232220, Note_off_c, 1, 78, 0
3, 232224, Note_on_c, 1, 76, 81
3, 232316, Note_off_c, 1, 74, 0
3, 232316, Note_off_c, 1, 76, 0
3, 232320, Note_on_c, 1, 76, 81
3, 232320, Note_on_c, 1, 72, 81
3, 232412, Note_off_c, 1, 76, 0
3, 232412, Note_off_c, 1, 72, 0
3, 232416, Note_on_c, 1, 74, 81
3, 232416, Note_on_c, 1, 71, 81
3, 232508, Note_off_c, 1, 74, 0
3, 232508, Note_off_c, 1, 71, 0
3, 232512, Note_on_c, 1, 72, 81
3, 232512, Note_on_c, 1, 69, 81
3, 232604, Note_off_c, 1, 72, 0
3, 232604, Note_off_c, 1, 69, 0
3, 232608, Note_on_c, 1, 71, 81
3, 232608, Note_on_c, 1, 67, 81
3, 232700, Note_off_c, 1, 71, 0
3, 232700, Note_off_c, 1, 67, 0
3, 232704, Note_on_c, 1, 71, 81
3, 232704, Note_on_c, 1, 64, 81
3, 232704, Note_on_c, 1, 74, 81
3, 232748, Note_off_c, 1, 74, 0
3, 232752, Note_on_c, 1, 76, 81
3, 232796, Note_off_c, 1, 76, 0
3, 232800, Note_on_c, 1, 74, 81
3, 232844, Note_off_c, 1, 74, 0
3, 232848, Note_on_c, 1, 76, 81
3, 232892, Note_off_c, 1, 76, 0
3, 232896, Note_on_c, 1, 74, 81
3, 232940, Note_off_c, 1, 74, 0
3, 232944, Note_on_c, 1, 76, 81
3, 232988, Note_off_c, 1, 76, 0
3, 232992, Note_on_c, 1, 72, 81
3, 233036, Note_off_c, 1, 72, 0
3, 233040, Note_on_c, 1, 74, 81
3, 233084, Note_off_c, 1, 71, 0
3, 233084, Note_off_c, 1, 64, 0
3, 233084, Note_off_c, 1, 74, 0
3, 233088, Note_on_c, 1, 69, 81
3, 233088, Note_on_c, 1, 66, 81
3, 233088, Note_on_c, 1, 72, 81
3, 233132, Note_off_c, 1, 72, 0
3, 233136, Note_on_c, 1, 74, 81
3, 233180, Note_off_c, 1, 74, 0
3, 233184, Note_on_c, 1, 72, 81
3, 233228, Note_off_c, 1, 72, 0
3, 233232, Note_on_c, 1, 74, 81
3, 233276, Note_off_c, 1, 74, 0
3, 233280, Note_on_c, 1, 72, 81
3, 233324, Note_off_c, 1, 72, 0
3, 233328, Note_on_c, 1, 74, 81
3, 233372, Note_off_c, 1, 74, 0
3, 233376, Note_on_c, 1, 71, 81
3, 233420, Note_off_c, 1, 71, 0
3, 233424, Note_on_c, 1, 72, 81
3, 233468, Note_off_c, 1, 69, 0
3, 233468, Note_off_c, 1, 66, 0
3, 233468, Note_off_c, 1, 72, 0
3, 233472, Note_on_c, 1, 71, 81
3, 233472, Note_on_c, 1, 67, 81
3, 233852, Note_off_c, 1, 71, 0
3, 233852, Note_off_c, 1, 67, 0
3, 233856, Note_on_c, 1, 71, 54
3, 233856, Note_on_c, 1, 67, 54
3, 234236, Note_off_c, 1, 71, 0
3, 234236, Note_off_c, 1, 67, 0
3, 234240, Note_on_c, 1, 74, 54
3, 234240, Note_on_c, 1, 71, 54
3, 234620, Note_off_c, 1, 74, 0
3, 234620, Note_off_c, 1, 71, 0
3, 234624, Note_on_c, 1, 79, 54
3, 234624, Note_on_c, 1, 74, 54
3, 235004, Note_off_c, 1, 79, 0
3, 235004, Note_off_c, 1, 74, 0
3, 235008, Note_on_c, 1, 83, 54
3, 235008, Note_on_c, 1, 74, 54
3, 235196, Note_off_c, 1, 83, 0
3, 235196, Note_off_c, 1, 74, 0
3, 235200, Note_on_c, 1, 67, 54
3, 235200, Note_on_c, 1, 59, 54
3, 235388, Note_off_c, 1, 67, 0
3, 235388, Note_off_c, 1, 59, 0
3, 235392, Note_on_c, 1, 67, 54
3, 235392, Note_on_c, 1, 59, 54
3, 235580, Note_off_c, 1, 67, 0
3, 235580, Note_off_c, 1, 59, 0
3, 235584, Note_on_c, 1, 67, 54
3, 235584, Note_on_c, 1, 59, 54
3, 235772, Note_off_c, 1, 67, 0
3, 235772, Note_off_c, 1, 59, 0
3, 235776, Note_on_c, 1, 67, 54
3, 235776, Note_on_c, 1, 59, 54
3, 235964, Note_off_c, 1, 67, 0
3, 235964, Note_off_c, 1, 59, 0
3, 235968, Note_on_c, 1, 67, 54
3, 235968, Note_on_c, 1, 59, 54
3, 236156, Note_off_c, 1, 67, 0
3, 236156, Note_off_c, 1, 59, 0
3, 236160, Note_on_c, 1, 67, 54
3, 236160, Note_on_c, 1, 59, 54
3, 236348, Note_off_c, 1, 67, 0
3, 236348, Note_off_c, 1, 59, 0
3, 236352, Note_on_c, 1, 67, 54
3, 236352, Note_on_c, 1, 59, 54
3, 236540, Note_off_c, 1, 67, 0
3, 236540, Note_off_c, 1, 59, 0
3, 236544, Note_on_c, 1, 69, 54
3, 236544, Note_on_c, 1, 62, 54
3, 236732, Note_off_c, 1, 69, 0
3, 236732, Note_off_c, 1, 62, 0
3, 236736, Note_on_c, 1, 69, 54
3, 236736, Note_on_c, 1, 62, 54
3, 236924, Note_off_c, 1, 69, 0
3, 236924, Note_off_c, 1, 62, 0
3, 236928, Note_on_c, 1, 69, 54
3, 236928, Note_on_c, 1, 62, 54
3, 237116, Note_off_c, 1, 69, 0
3, 237116, Note_off_c, 1, 62, 0
3, 237120, Note_on_c, 1, 69, 54
3, 237120, Note_on_c, 1, 62, 54
3, 237308, Note_off_c, 1, 69, 0
3, 237308, Note_off_c, 1, 62, 0
3, 237312, Note_on_c, 1, 72, 54
3, 237312, Note_on_c, 1, 69, 54
3, 237312, Note_on_c, 1, 62, 54
3, 237500, Note_off_c, 1, 72, 0
3, 237500, Note_off_c, 1, 69, 0
3, 237500, Note_off_c, 1, 62, 0
3, 237504, Note_on_c, 1, 72, 54
3, 237504, Note_on_c, 1, 69, 54
3, 237504, Note_on_c, 1, 62, 54
3, 237692, Note_off_c, 1, 72, 0
3, 237692, Note_off_c, 1, 69, 0
3, 237692, Note_off_c, 1, 62, 0
3, 237696, Note_on_c, 1, 69, 54
3, 237696, Note_on_c, 1, 66, 54
3, 237696, Note_on_c, 1, 62, 54
3, 237884, Note_off_c, 1, 69, 0
3, 237884, Note_off_c, 1, 66, 0
3, 237884, Note_off_c, 1, 62, 0
3, 237888, Note_on_c, 1, 69, 54
3, 237888, Note_on_c, 1, 66, 54
3, 237888, Note_on_c, 1, 62, 54
3, 238076, Note_off_c, 1, 69, 0
3, 238076, Note_off_c, 1, 66, 0
3, 238076, Note_off_c, 1, 62, 0
3, 238080, Note_on_c, 1, 67, 54
3, 238172, Note_off_c, 1, 67, 0
3, 238176, Note_on_c, 1, 69, 54
3, 238268, Note_off_c, 1, 69, 0
3, 238272, Note_on_c, 1, 71, 54
3, 238364, Note_off_c, 1, 71, 0
3, 238368, Note_on_c, 1, 69, 54
3, 238460, Note_off_c, 1, 69, 0
3, 238464, Note_on_c, 1, 67, 54
3, 238556, Note_off_c, 1, 67, 0
3, 238560, Note_on_c, 1, 66, 54
3, 238652, Note_off_c, 1, 66, 0
3, 238656, Note_on_c, 1, 64, 54
3, 238748, Note_off_c, 1, 64, 0
3, 238752, Note_on_c, 1, 62, 54
3, 238844, Note_off_c, 1, 62, 0
3, 239232, Note_on_c, 1, 74, 54
3, 239324, Note_off_c, 1, 74, 0
3, 239328, Note_on_c, 1, 72, 54
3, 239420, Note_off_c, 1, 72, 0
3, 239424, Note_on_c, 1, 71, 54
3, 239516, Note_off_c, 1, 71, 0
3, 239520, Note_on_c, 1, 69, 54
3, 239612, Note_off_c, 1, 69, 0
3, 239616, Note_on_c, 1, 67, 54
3, 239616, Note_on_c, 1, 67, 54
3, 239708, Note_off_c, 1, 67, 0
3, 239712, Note_on_c, 1, 69, 54
3, 239804, Note_off_c, 1, 69, 0
3, 239808, Note_on_c, 1, 71, 54
3, 239900, Note_off_c, 1, 71, 0
3, 239904, Note_on_c, 1, 69, 54
3, 239996, Note_off_c, 1, 69, 0
3, 240000, Note_on_c, 1, 67, 54
3, 240092, Note_off_c, 1, 67, 0
3, 240096, Note_on_c, 1, 66, 54
3, 240188, Note_off_c, 1, 66, 0
3, 240192, Note_on_c, 1, 64, 54
3, 240284, Note_off_c, 1, 64, 0
3, 240288, Note_on_c, 1, 62, 54
3, 240380, Note_off_c, 1, 67, 0
3, 240380, Note_off_c, 1, 62, 0
3, 240384, Note_on_c, 1, 72, 54
3, 240764, Note_off_c, 1, 72, 0
3, 240768, Note_on_c, 1, 74, 54
3, 240860, Note_off_c, 1, 74, 0
3, 240864, Note_on_c, 1, 72, 54
3, 240956, Note_off_c, 1, 72, 0
3, 240960, Note_on_c, 1, 71, 54
3, 241052, Note_off_c, 1, 71, 0
3, 241056, Note_on_c, 1, 69, 54
3, 241148, Note_off_c, 1, 69, 0
3, 241152, Note_on_c, 1, 67, 81
3, 241340, Note_off_c, 1, 67, 0
3, 241536, Note_on_c, 1, 69, 81
3, 241536, Note_on_c, 1, 66, 81
3, 241536, Note_on_c, 1, 60, 81
3, 241724, Note_off_c, 1, 69, 0
3, 241724, Note_off_c, 1, 66, 0
3, 241724, Note_off_c, 1, 60, 0
3, 241920, Note_on_c, 1, 67, 81
3, 241920, Note_on_c, 1, 64, 81
3, 241920, Note_on_c, 1, 59, 81
3, 242108, Note_off_c, 1, 67, 0
3, 242108, Note_off_c, 1, 64, 0
3, 242108, Note_off_c, 1, 59, 0
3, 242304, Note_on_c, 1, 69, 81
3, 242304, Note_on_c, 1, 66, 81
3, 242304, Note_on_c, 1, 60, 81
3, 242492, Note_off_c, 1, 69, 0
3, 242492, Note_off_c, 1, 66, 0
3, 242492, Note_off_c, 1, 60, 0
3, 242688, Note_on_c, 1, 67, 81
3, 242688, Note_on_c, 1, 59, 81
3, 242876, Note_off_c, 1, 67, 0
3, 242876, Note_off_c, 1, 59, 0
3, 242880, Note_on_c, 1, 67, 81
3, 242880, Note_on_c, 1, 59, 81
3, 243068, Note_off_c, 1, 67, 0
3, 243072, Note_on_c, 1, 67, 81
3, 243072, Note_on_c, 1, 66, 81
3, 243260, Note_off_c, 1, 59, 0
3, 243260, Note_off_c, 1, 67, 0
3, 243260, Note_off_c, 1, 66, 0
3, 243264, Note_on_c, 1, 67, 81
3, 243264, Note_on_c, 1, 64, 81
3, 243264, Note_on_c, 1, 60, 81
3, 243452, Note_off_c, 1, 67, 0
3, 243452, Note_off_c, 1, 64, 0
3, 243452, Note_off_c, 1, 60, 0
3, 243456, Note_on_c, 1, 67, 81
3, 243456, Note_on_c, 1, 62, 81
3, 243836, Note_off_c, 1, 67, 0
3, 243836, Note_off_c, 1, 62, 0
3, 244224, Note_on_c, 1, 76, 81
3, 244224, Note_on_c, 1, 67, 81
3, 244988, Note_off_c, 1, 76, 0
3, 244988, Note_off_c, 1, 67, 0
3, 244992, Note_on_c, 1, 72, 81
3, 244992, Note_on_c, 1, 69, 81
3, 244992, Note_on_c, 1, 62, 81
3, 245756, Note_off_c, 1, 72, 0
3, 245756, Note_off_c, 1, 69, 0
3, 245756, Note_off_c, 1, 62, 0
3, 245760, Note_on_c, 1, 71, 81
3, 245760, Note_on_c, 1, 67, 81
3, 245760, Note_on_c, 1, 62, 81
3, 245948, Note_off_c, 1, 71, 0
3, 245948, Note_off_c, 1, 67, 0
3, 245948, Note_off_c, 1, 62, 0
3, 246144, Note_on_c, 1, 71, 81
3, 246144, Note_on_c, 1, 67, 81
3, 246144, Note_on_c, 1, 62, 81
3, 246332, Note_off_c, 1, 71, 0
3, 246332, Note_off_c, 1, 67, 0
3, 246332, Note_off_c, 1, 62, 0
3, 246528, Note_on_c, 1, 71, 81
3, 246528, Note_on_c, 1, 67, 81
3, 246528, Note_on_c, 1, 62, 81
3, 246716, Note_off_c, 1, 71, 0
3, 246716, Note_off_c, 1, 67, 0
3, 246716, Note_off_c, 1, 62, 0
3, 246912, Note_on_c, 1, 71, 81
3, 246912, Note_on_c, 1, 67, 81
3, 246912, Note_on_c, 1, 62, 81
3, 247100, Note_off_c, 1, 71, 0
3, 247100, Note_off_c, 1, 67, 0
3, 247100, Note_off_c, 1, 62, 0
3, 247488, Note_on_c, 1, 67, 81
3, 247488, Note_on_c, 1, 62, 81
3, 247676, Note_off_c, 1, 67, 0
3, 247676, Note_off_c, 1, 62, 0
3, 247680, Note_on_c, 1, 74, 81
3, 247868, Note_off_c, 1, 74, 0
3, 247872, Note_on_c, 1, 71, 81
3, 247872, Note_on_c, 1, 67, 81
3, 247872, Note_on_c, 1, 62, 81
3, 248060, Note_off_c, 1, 71, 0
3, 248060, Note_off_c, 1, 67, 0
3, 248060, Note_off_c, 1, 62, 0
3, 248064, Note_on_c, 1, 76, 81
3, 248064, Note_on_c, 1, 67, 81
3, 248252, Note_off_c, 1, 76, 0
3, 248252, Note_off_c, 1, 67, 0
3, 248256, Note_on_c, 1, 76, 81
3, 248256, Note_on_c, 1, 67, 81
3, 248444, Note_off_c, 1, 76, 0
3, 248444, Note_off_c, 1, 67, 0
3, 248448, Note_on_c, 1, 72, 81
3, 248448, Note_on_c, 1, 66, 81
3, 248448, Note_on_c, 1, 62, 81
3, 248636, Note_off_c, 1, 72, 0
3, 248636, Note_off_c, 1, 66, 0
3, 248636, Note_off_c, 1, 62, 0
3, 248640, Note_on_c, 1, 72, 81
3, 248640, Note_on_c, 1, 66, 81
3, 248640, Note_on_c, 1, 62, 81
3, 248828, Note_off_c, 1, 72, 0
3, 248828, Note_off_c, 1, 66, 0
3, 248828, Note_off_c, 1, 62, 0
3, 248832, Note_on_c, 1, 71, 87
3, 248832, Note_on_c, 1, 67, 87
3, 248832, Note_on_c, 1, 62, 87
3, 249020, Note_off_c, 1, 71, 0
3, 249020, Note_off_c, 1, 67, 0
3, 249020, Note_off_c, 1, 62, 0
3, 249024, Note_on_c, 1, 83, 84
3, 249116, Note_off_c, 1, 83, 0
3, 249120, Note_on_c, 1, 79, 82
3, 249212, Note_off_c, 1, 79, 0
3, 249216, Note_on_c, 1, 74, 81
3, 249404, Note_off_c, 1, 74, 0
3, 249408, Note_on_c, 1, 79, 81
3, 249500, Note_off_c, 1, 79, 0
3, 249504, Note_on_c, 1, 74, 81
3, 249596, Note_off_c, 1, 74, 0
3, 249600, Note_on_c, 1, 71, 81
3, 249788, Note_off_c, 1, 71, 0
3, 249792, Note_on_c, 1, 74, 81
3, 249884, Note_off_c, 1, 74, 0
3, 249888, Note_on_c, 1, 71, 81
3, 249980, Note_off_c, 1, 71, 0
3, 249984, Note_on_c, 1, 72, 81
3, 250076, Note_off_c, 1, 72, 0
3, 250080, Note_on_c, 1, 69, 81
3, 250172, Note_off_c, 1, 69, 0
3, 250176, Note_on_c, 1, 81, 81
3, 250268, Note_off_c, 1, 81, 0
3, 250272, Note_on_c, 1, 78, 81
3, 250364, Note_off_c, 1, 78, 0
3, 250368, Note_on_c, 1, 79, 81
3, 250460, Note_off_c, 1, 79, 0
3, 250464, Note_on_c, 1, 83, 81
3, 250556, Note_off_c, 1, 83, 0
3, 250560, Note_on_c, 1, 74, 81
3, 250652, Note_off_c, 1, 74, 0
3, 250656, Note_on_c, 1, 71, 81
3, 250748, Note_off_c, 1, 71, 0
3, 250752, Note_on_c, 1, 72, 81
3, 250844, Note_off_c, 1, 72, 0
3, 250848, Note_on_c, 1, 69, 81
3, 250940, Note_off_c, 1, 69, 0
3, 250944, Note_on_c, 1, 81, 81
3, 251036, Note_off_c, 1, 81, 0
3, 251040, Note_on_c, 1, 78, 81
3, 251132, Note_off_c, 1, 78, 0
3, 251136, Note_on_c, 1, 79, 81
3, 251228, Note_off_c, 1, 79, 0
3, 251232, Note_on_c, 1, 83, 81
3, 251324, Note_off_c, 1, 83, 0
3, 251328, Note_on_c, 1, 79, 81
3, 251420, Note_off_c, 1, 79, 0
3, 251424, Note_on_c, 1, 74, 81
3, 251516, Note_off_c, 1, 74, 0
3, 251520, Note_on_c, 1, 71, 81
3, 251612, Note_off_c, 1, 71, 0
3, 251616, Note_on_c, 1, 74, 81
3, 251708, Note_off_c, 1, 74, 0
3, 251712, Note_on_c, 1, 77, 81
3, 251804, Note_off_c, 1, 77, 0
3, 251808, Note_on_c, 1, 74, 81
3, 251900, Note_off_c, 1, 74, 0
3, 251904, Note_on_c, 1, 76, 81
3, 251904, Note_on_c, 1, 72, 81
3, 251904, Note_on_c, 1, 67, 81
3, 252092, Note_off_c, 1, 76, 0
3, 252092, Note_off_c, 1, 72, 0
3, 252092, Note_off_c, 1, 67, 0
3, 252096, Note_on_c, 1, 60, 54
3, 252096, Note_on_c, 1, 64, 54
3, 252284, Note_off_c, 1, 60, 0
3, 252284, Note_off_c, 1, 64, 0
3, 252288, Note_on_c, 1, 64, 54
3, 252288, Note_on_c, 1, 60, 54
3, 252476, Note_off_c, 1, 64, 0
3, 252476, Note_off_c, 1, 60, 0
3, 252480, Note_on_c, 1, 64, 54
3, 252480, Note_on_c, 1, 60, 54
3, 252668, Note_off_c, 1, 64, 0
3, 252668, Note_off_c, 1, 60, 0
3, 252672, Note_on_c, 1, 64, 54
3, 252672, Note_on_c, 1, 60, 54
3, 252860, Note_off_c, 1, 64, 0
3, 252860, Note_off_c, 1, 60, 0
3, 252864, Note_on_c, 1, 64, 54
3, 252864, Note_on_c, 1, 60, 54
3, 253052, Note_off_c, 1, 64, 0
3, 253052, Note_off_c, 1, 60, 0
3, 253056, Note_on_c, 1, 64, 54
3, 253056, Note_on_c, 1, 60, 54
3, 253244, Note_off_c, 1, 64, 0
3, 253244, Note_off_c, 1, 60, 0
3, 253248, Note_on_c, 1, 64, 54
3, 253248, Note_on_c, 1, 60, 54
3, 253436, Note_off_c, 1, 64, 0
3, 253436, Note_off_c, 1, 60, 0
3, 253440, Note_on_c, 1, 64, 54
3, 253440, Note_on_c, 1, 60, 54
3, 253628, Note_off_c, 1, 64, 0
3, 253628, Note_off_c, 1, 60, 0
3, 253632, Note_on_c, 1, 62, 54
3, 253632, Note_on_c, 1, 55, 54
3, 253820, Note_off_c, 1, 62, 0
3, 253820, Note_off_c, 1, 55, 0
3, 253824, Note_on_c, 1, 62, 54
3, 253824, Note_on_c, 1, 55, 54
3, 254012, Note_off_c, 1, 62, 0
3, 254012, Note_off_c, 1, 55, 0
3, 254016, Note_on_c, 1, 62, 54
3, 254016, Note_on_c, 1, 55, 54
3, 254204, Note_off_c, 1, 62, 0
3, 254204, Note_off_c, 1, 55, 0
3, 254208, Note_on_c, 1, 62, 54
3, 254208, Note_on_c, 1, 55, 54
3, 254396, Note_off_c, 1, 62, 0
3, 254396, Note_off_c, 1, 55, 0
3, 254400, Note_on_c, 1, 62, 54
3, 254400, Note_on_c, 1, 55, 54
3, 254588, Note_off_c, 1, 62, 0
3, 254588, Note_off_c, 1, 55, 0
3, 254592, Note_on_c, 1, 62, 54
3, 254592, Note_on_c, 1, 56, 54
3, 254780, Note_off_c, 1, 62, 0
3, 254780, Note_off_c, 1, 56, 0
3, 254784, Note_on_c, 1, 62, 54
3, 254784, Note_on_c, 1, 56, 54
3, 254972, Note_off_c, 1, 62, 0
3, 254972, Note_off_c, 1, 56, 0
3, 254976, Note_on_c, 1, 60, 54
3, 254976, Note_on_c, 1, 57, 54
3, 255356, Note_off_c, 1, 60, 0
3, 255356, Note_off_c, 1, 57, 0
3, 255552, Note_on_c, 1, 76, 54
3, 255552, Note_on_c, 1, 72, 54
3, 255740, Note_off_c, 1, 76, 0
3, 255740, Note_off_c, 1, 72, 0
3, 255744, Note_on_c, 1, 74, 54
3, 255744, Note_on_c, 1, 71, 54
3, 256124, Note_off_c, 1, 74, 0
3, 256124, Note_off_c, 1, 71, 0
3, 256320, Note_on_c, 1, 74, 54
3, 256320, Note_on_c, 1, 71, 54
3, 256508, Note_off_c, 1, 74, 0
3, 256508, Note_off_c, 1, 71, 0
3, 256512, Note_on_c, 1, 72, 54
3, 256512, Note_on_c, 1, 69, 54
3, 256892, Note_off_c, 1, 72, 0
3, 256892, Note_off_c, 1, 69, 0
3, 256896, Note_on_c, 1, 71, 54
3, 256896, Note_on_c, 1, 64, 54
3, 257276, Note_off_c, 1, 71, 0
3, 257276, Note_off_c, 1, 64, 0
3, 257280, Note_on_c, 1, 69, 54
3, 257280, Note_on_c, 1, 64, 54
3, 257660, Note_off_c, 1, 69, 0
3, 257660, Note_off_c, 1, 64, 0
3, 257664, Note_on_c, 1, 76, 54
3, 257664, Note_on_c, 1, 73, 54
3, 257664, Note_on_c, 1, 69, 54
3, 258044, Note_off_c, 1, 76, 0
3, 258044, Note_off_c, 1, 73, 0
3, 258044, Note_off_c, 1, 69, 0
3, 258048, Note_on_c, 1, 74, 54
3, 258048, Note_on_c, 1, 69, 54
3, 258236, Note_off_c, 1, 74, 0
3, 258236, Note_off_c, 1, 69, 0
3, 258240, Note_on_c, 1, 74, 54
3, 258240, Note_on_c, 1, 69, 54
3, 258428, Note_off_c, 1, 74, 0
3, 258428, Note_off_c, 1, 69, 0
3, 258432, Note_on_c, 1, 74, 54
3, 258432, Note_on_c, 1, 72, 54
3, 258432, Note_on_c, 1, 69, 54
3, 258620, Note_off_c, 1, 74, 0
3, 258620, Note_off_c, 1, 72, 0
3, 258620, Note_off_c, 1, 69, 0
3, 258624, Note_on_c, 1, 74, 54
3, 258624, Note_on_c, 1, 72, 54
3, 258624, Note_on_c, 1, 69, 54
3, 258812, Note_off_c, 1, 74, 0
3, 258812, Note_off_c, 1, 72, 0
3, 258812, Note_off_c, 1, 69, 0
3, 258816, Note_on_c, 1, 74, 54
3, 258816, Note_on_c, 1, 71, 54
3, 258816, Note_on_c, 1, 67, 54
3, 259004, Note_off_c, 1, 74, 0
3, 259004, Note_off_c, 1, 71, 0
3, 259004, Note_off_c, 1, 67, 0
3, 259008, Note_on_c, 1, 74, 54
3, 259008, Note_on_c, 1, 71, 54
3, 259008, Note_on_c, 1, 67, 54
3, 259196, Note_off_c, 1, 74, 0
3, 259196, Note_off_c, 1, 71, 0
3, 259196, Note_off_c, 1, 67, 0
3, 259200, Note_on_c, 1, 67, 54
3, 259200, Note_on_c, 1, 62, 54
3, 259200, Note_on_c, 1, 59, 54
3, 259388, Note_off_c, 1, 67, 0
3, 259388, Note_off_c, 1, 62, 0
3, 259388, Note_off_c, 1, 59, 0
3, 259392, Note_on_c, 1, 67, 54
3, 259392, Note_on_c, 1, 62, 54
3, 259392, Note_on_c, 1, 59, 54
3, 259580, Note_off_c, 1, 67, 0
3, 259580, Note_off_c, 1, 62, 0
3, 259580, Note_off_c, 1, 59, 0
3, 259584, Note_on_c, 1, 67, 54
3, 259584, Note_on_c, 1, 63, 54
3, 259772, Note_off_c, 1, 67, 0
3, 259772, Note_off_c, 1, 63, 0
3, 259776, Note_on_c, 1, 67, 54
3, 259964, Note_off_c, 1, 67, 0
3, 259968, Note_on_c, 1, 68, 54
3, 259968, Note_on_c, 1, 60, 54
3, 260156, Note_off_c, 1, 68, 0
3, 260156, Note_off_c, 1, 60, 0
3, 260160, Note_on_c, 1, 67, 54
3, 260160, Note_on_c, 1, 58, 54
3, 260348, Note_off_c, 1, 67, 0
3, 260348, Note_off_c, 1, 58, 0
3, 260352, Note_on_c, 1, 66, 54
3, 260352, Note_on_c, 1, 57, 54
3, 260540, Note_off_c, 1, 66, 0
3, 260540, Note_off_c, 1, 57, 0
3, 260544, Note_on_c, 1, 66, 54
3, 260544, Note_on_c, 1, 57, 54
3, 260732, Note_off_c, 1, 66, 0
3, 260732, Note_off_c, 1, 57, 0
3, 260736, Note_on_c, 1, 66, 54
3, 260736, Note_on_c, 1, 57, 54
3, 260924, Note_off_c, 1, 66, 0
3, 260924, Note_off_c, 1, 57, 0
3, 260928, Note_on_c, 1, 66, 54
3, 260928, Note_on_c, 1, 57, 54
3, 261116, Note_off_c, 1, 66, 0
3, 261116, Note_off_c, 1, 57, 0
3, 261120, Note_on_c, 1, 71, 54
3, 261120, Note_on_c, 1, 59, 54
3, 261500, Note_off_c, 1, 71, 0
3, 261500, Note_off_c, 1, 59, 0
3, 261696, Note_on_c, 1, 62, 54
3, 261696, Note_on_c, 1, 55, 54
3, 261884, Note_off_c, 1, 62, 0
3, 261884, Note_off_c, 1, 55, 0
3, 261888, Note_on_c, 1, 62, 54
3, 261888, Note_on_c, 1, 60, 54
3, 261888, Note_on_c, 1, 57, 54
3, 262268, Note_off_c, 1, 62, 0
3, 262268, Note_off_c, 1, 60, 0
3, 262268, Note_off_c, 1, 57, 0
3, 262464, Note_on_c, 1, 62, 54
3, 262464, Note_on_c, 1, 60, 54
3, 262464, Note_on_c, 1, 57, 54
3, 262652, Note_off_c, 1, 62, 0
3, 262652, Note_off_c, 1, 60, 0
3, 262652, Note_off_c, 1, 57, 0
3, 262656, Note_on_c, 1, 62, 54
3, 262656, Note_on_c, 1, 59, 54
3, 262656, Note_on_c, 1, 55, 54
3, 262844, Note_off_c, 1, 62, 0
3, 262844, Note_off_c, 1, 59, 0
3, 262844, Note_off_c, 1, 55, 0
3, 262848, Note_on_c, 1, 67, 54
3, 263036, Note_off_c, 1, 67, 0
3, 263040, Note_on_c, 1, 71, 54
3, 263228, Note_off_c, 1, 71, 0
3, 263232, Note_on_c, 1, 74, 54
3, 263420, Note_off_c, 1, 74, 0
3, 263424, Note_on_c, 1, 72, 54
3, 263612, Note_off_c, 1, 72, 0
3, 263616, Note_on_c, 1, 69, 54
3, 263804, Note_off_c, 1, 69, 0
3, 263808, Note_on_c, 1, 72, 54
3, 263996, Note_off_c, 1, 72, 0
3, 264000, Note_on_c, 1, 74, 54
3, 264000, Note_on_c, 1, 69, 54
3, 264188, Note_off_c, 1, 74, 0
3, 264188, Note_off_c, 1, 69, 0
3, 264192, Note_on_c, 1, 71, 54
3, 264192, Note_on_c, 1, 67, 54
3, 264572, Note_off_c, 1, 71, 0
3, 264572, Note_off_c, 1, 67, 0
3, 265152, Note_on_c, 1, 67, 54
3, 265340, Note_off_c, 1, 67, 0
3, 265344, Note_on_c, 1, 66, 54
3, 265344, Note_on_c, 1, 62, 54
3, 265532, Note_off_c, 1, 66, 0
3, 265536, Note_on_c, 1, 65, 54
3, 265724, Note_off_c, 1, 62, 0
3, 265724, Note_off_c, 1, 65, 0
3, 265728, Note_on_c, 1, 64, 54
3, 265728, Note_on_c, 1, 60, 54
3, 265728, Note_on_c, 1, 55, 54
3, 266108, Note_off_c, 1, 64, 0
3, 266108, Note_off_c, 1, 60, 0
3, 266108, Note_off_c, 1, 55, 0
3, 266112, Note_on_c, 1, 68, 54
3, 266112, Note_on_c, 1, 65, 54
3, 266492, Note_off_c, 1, 68, 0
3, 266492, Note_off_c, 1, 65, 0
3, 266496, Note_on_c, 1, 69, 54
3, 266496, Note_on_c, 1, 64, 54
3, 266876, Note_off_c, 1, 69, 0
3, 266876, Note_off_c, 1, 64, 0
3, 266880, Note_on_c, 1, 74, 54
3, 266880, Note_on_c, 1, 68, 54
3, 267260, Note_off_c, 1, 74, 0
3, 267260, Note_off_c, 1, 68, 0
3, 267264, Note_on_c, 1, 72, 54
3, 267264, Note_on_c, 1, 69, 54
3, 267264, Note_on_c, 1, 64, 54
3, 267452, Note_off_c, 1, 72, 0
3, 267452, Note_off_c, 1, 69, 0
3, 267452, Note_off_c, 1, 64, 0
3, 267648, Note_on_c, 1, 69, 54
3, 267648, Note_on_c, 1, 64, 54
3, 267648, Note_on_c, 1, 60, 54
3, 267836, Note_off_c, 1, 69, 0
3, 267836, Note_off_c, 1, 64, 0
3, 267836, Note_off_c, 1, 60, 0
3, 268032, Note_on_c, 1, 76, 54
3, 268032, Note_on_c, 1, 69, 54
3, 268220, Note_off_c, 1, 76, 0
3, 268220, Note_off_c, 1, 69, 0
3, 268416, Note_on_c, 1, 67, 54
3, 268416, Note_on_c, 1, 64, 54
3, 268604, Note_off_c, 1, 67, 0
3, 268604, Note_off_c, 1, 64, 0
3, 268800, Note_on_c, 1, 66, 54
3, 268800, Note_on_c, 1, 62, 54
3, 268988, Note_off_c, 1, 66, 0
3, 268988, Note_off_c, 1, 62, 0
3, 269184, Note_on_c, 1, 76, 54
3, 269276, Note_off_c, 1, 76, 0
3, 269280, Note_on_c, 1, 78, 54
3, 269372, Note_off_c, 1, 78, 0
3, 269376, Note_on_c, 1, 76, 54
3, 269468, Note_off_c, 1, 76, 0
3, 269472, Note_on_c, 1, 79, 54
3, 269564, Note_off_c, 1, 79, 0
3, 269568, Note_on_c, 1, 78, 54
3, 269756, Note_off_c, 1, 78, 0
3, 269952, Note_on_c, 1, 78, 54
3, 270044, Note_off_c, 1, 78, 0
3, 270048, Note_on_c, 1, 81, 54
3, 270140, Note_off_c, 1, 81, 0
3, 270144, Note_on_c, 1, 79, 54
3, 270236, Note_off_c, 1, 79, 0
3, 270240, Note_on_c, 1, 83, 54
3, 270332, Note_off_c, 1, 83, 0
3, 270336, Note_on_c, 1, 81, 54
3, 270524, Note_off_c, 1, 81, 0
3, 270720, Note_on_c, 1, 78, 87
3, 270720, Note_on_c, 1, 74, 84
3, 270720, Note_on_c, 1, 66, 82
3, 270720, Note_on_c, 1, 62, 81
3, 270812, Note_off_c, 1, 78, 0
3, 270816, Note_on_c, 1, 81, 81
3, 270908, Note_off_c, 1, 74, 0
3, 270908, Note_off_c, 1, 66, 0
3, 270908, Note_off_c, 1, 62, 0
3, 270908, Note_off_c, 1, 81, 0
3, 270912, Note_on_c, 1, 79, 81
3, 270912, Note_on_c, 1, 73, 81
3, 270912, Note_on_c, 1, 67, 81
3, 270912, Note_on_c, 1, 64, 81
3, 270912, Note_on_c, 1, 62, 81
3, 271004, Note_off_c, 1, 79, 0
3, 271008, Note_on_c, 1, 83, 81
3, 271100, Note_off_c, 1, 73, 0
3, 271100, Note_off_c, 1, 67, 0
3, 271100, Note_off_c, 1, 64, 0
3, 271100, Note_off_c, 1, 62, 0
3, 271100, Note_off_c, 1, 83, 0
3, 271104, Note_on_c, 1, 81, 81
3, 271104, Note_on_c, 1, 72, 81
3, 271104, Note_on_c, 1, 69, 81
3, 271104, Note_on_c, 1, 62, 81
3, 271196, Note_off_c, 1, 81, 0
3, 271200, Note_on_c, 1, 84, 81
3, 271292, Note_off_c, 1, 72, 0
3, 271292, Note_off_c, 1, 69, 0
3, 271292, Note_off_c, 1, 62, 0
3, 271292, Note_off_c, 1, 84, 0
3, 271296, Note_on_c, 1, 83, 81
3, 271296, Note_on_c, 1, 62, 81
3, 271296, Note_on_c, 1, 71, 81
3, 271296, Note_on_c, 1, 67, 81
3, 271388, Note_off_c, 1, 83, 0
3, 271392, Note_on_c, 1, 86, 81
3, 271484, Note_off_c, 1, 62, 0
3, 271484, Note_off_c, 1, 71, 0
3, 271484, Note_off_c, 1, 67, 0
3, 271484, Note_off_c, 1, 86, 0
3, 271488, Note_on_c, 1, 84, 81
3, 271488, Note_on_c, 1, 72, 81
3, 271488, Note_on_c, 1, 66, 81
3, 271488, Note_on_c, 1, 62, 81
3, 271580, Note_off_c, 1, 84, 0
3, 271584, Note_on_c, 1, 86, 81
3, 271676, Note_off_c, 1, 72, 0
3, 271676, Note_off_c, 1, 66, 0
3, 271676, Note_off_c, 1, 62, 0
3, 271676, Note_off_c, 1, 86, 0
3, 271680, Note_on_c, 1, 83, 81
3, 271680, Note_on_c, 1, 71, 81
3, 271680, Note_on_c, 1, 67, 81
3, 271680, Note_on_c, 1, 62, 81
3, 271772, Note_off_c, 1, 83, 0
3, 271776, Note_on_c, 1, 84, 81
3, 271868, Note_off_c, 1, 71, 0
3, 271868, Note_off_c, 1, 67, 0
3, 271868, Note_off_c, 1, 62, 0
3, 271868, Note_off_c, 1, 84, 0
3, 271872, Note_on_c, 1, 81, 81
3, 271872, Note_on_c, 1, 69, 81
3, 271872, Note_on_c, 1, 66, 81
3, 271872, Note_on_c, 1, 62, 81
3, 272060, Note_off_c, 1, 81, 0
3, 272060, Note_off_c, 1, 69, 0
3, 272060, Note_off_c, 1, 66, 0
3, 272060, Note_off_c, 1, 62, 0
3, 272064, Note_on_c, 1, 62, 81
3, 272156, Note_off_c, 1, 62, 0
3, 272160, Note_on_c, 1, 66, 81
3, 272252, Note_off_c, 1, 66, 0
3, 272256, Note_on_c, 1, 64, 81
3, 272348, Note_off_c, 1, 64, 0
3, 272352, Note_on_c, 1, 67, 81
3, 272444, Note_off_c, 1, 67, 0
3, 272448, Note_on_c, 1, 66, 81
3, 272540, Note_off_c, 1, 66, 0
3, 272544, Note_on_c, 1, 69, 81
3, 272636, Note_off_c, 1, 69, 0
3, 272640, Note_on_c, 1, 67, 81
3, 272732, Note_off_c, 1, 67, 0
3, 272736, Note_on_c, 1, 71, 81
3, 272828, Note_off_c, 1, 71, 0
3, 272832, Note_on_c, 1, 69, 81
3, 272924, Note_off_c, 1, 69, 0
3, 272928, Note_on_c, 1, 72, 81
3, 273020, Note_off_c, 1, 72, 0
3, 273024, Note_on_c, 1, 71, 81
3, 273116, Note_off_c, 1, 71, 0
3, 273120, Note_on_c, 1, 74, 81
3, 273212, Note_off_c, 1, 74, 0
3, 273216, Note_on_c, 1, 73, 81
3, 273308, Note_off_c, 1, 73, 0
3, 273312, Note_on_c, 1, 76, 81
3, 273404, Note_off_c, 1, 76, 0
3, 273408, Note_on_c, 1, 74, 81
3, 273788, Note_off_c, 1, 74, 0
3, 274944, Note_on_c, 1, 69, 54
3, 274944, Note_on_c, 1, 66, 54
3, 274944, Note_on_c, 1, 62, 54
3, 275132, Note_off_c, 1, 69, 0
3, 275132, Note_off_c, 1, 66, 0
3, 275132, Note_off_c, 1, 62, 0
3, 275136, Note_on_c, 1, 69, 54
3, 275136, Note_on_c, 1, 66, 54
3, 275136, Note_on_c, 1, 62, 54
3, 275324, Note_off_c, 1, 69, 0
3, 275324, Note_off_c, 1, 66, 0
3, 275324, Note_off_c, 1, 62, 0
3, 275328, Note_on_c, 1, 69, 54
3, 275328, Note_on_c, 1, 66, 54
3, 275328, Note_on_c, 1, 62, 54
3, 275516, Note_off_c, 1, 69, 0
3, 275516, Note_off_c, 1, 66, 0
3, 275516, Note_off_c, 1, 62, 0
3, 275520, Note_on_c, 1, 69, 54
3, 275520, Note_on_c, 1, 66, 54
3, 275520, Note_on_c, 1, 62, 54
3, 275708, Note_off_c, 1, 69, 0
3, 275708, Note_off_c, 1, 66, 0
3, 275708, Note_off_c, 1, 62, 0
3, 275712, Note_on_c, 1, 69, 54
3, 275712, Note_on_c, 1, 66, 54
3, 275712, Note_on_c, 1, 62, 54
3, 275900, Note_off_c, 1, 69, 0
3, 275900, Note_off_c, 1, 66, 0
3, 275900, Note_off_c, 1, 62, 0
3, 275904, Note_on_c, 1, 69, 54
3, 275904, Note_on_c, 1, 66, 54
3, 275904, Note_on_c, 1, 62, 54
3, 276092, Note_off_c, 1, 69, 0
3, 276092, Note_off_c, 1, 66, 0
3, 276092, Note_off_c, 1, 62, 0
3, 276096, Note_on_c, 1, 69, 54
3, 276096, Note_on_c, 1, 66, 54
3, 276096, Note_on_c, 1, 62, 54
3, 276284, Note_off_c, 1, 69, 0
3, 276284, Note_off_c, 1, 66, 0
3, 276284, Note_off_c, 1, 62, 0
3, 276288, Note_on_c, 1, 69, 54
3, 276288, Note_on_c, 1, 66, 54
3, 276288, Note_on_c, 1, 62, 54
3, 276476, Note_off_c, 1, 69, 0
3, 276476, Note_off_c, 1, 66, 0
3, 276476, Note_off_c, 1, 62, 0
3, 276480, Note_on_c, 1, 71, 54
3, 276480, Note_on_c, 1, 67, 54
3, 276480, Note_on_c, 1, 62, 54
3, 276860, Note_off_c, 1, 71, 0
3, 276860, Note_off_c, 1, 67, 0
3, 276860, Note_off_c, 1, 62, 0
3, 278016, Note_on_c, 1, 74, 54
3, 278016, Note_on_c, 1, 67, 54
3, 278016, Note_on_c, 1, 62, 54
3, 278204, Note_off_c, 1, 74, 0
3, 278204, Note_off_c, 1, 67, 0
3, 278204, Note_off_c, 1, 62, 0
3, 278208, Note_on_c, 1, 74, 54
3, 278208, Note_on_c, 1, 67, 54
3, 278208, Note_on_c, 1, 62, 54
3, 278396, Note_off_c, 1, 74, 0
3, 278396, Note_off_c, 1, 67, 0
3, 278396, Note_off_c, 1, 62, 0
3, 278400, Note_on_c, 1, 74, 54
3, 278400, Note_on_c, 1, 67, 54
3, 278400, Note_on_c, 1, 62, 54
3, 278588, Note_off_c, 1, 74, 0
3, 278588, Note_off_c, 1, 67, 0
3, 278588, Note_off_c, 1, 62, 0
3, 278592, Note_on_c, 1, 74, 54
3, 278592, Note_on_c, 1, 62, 54
3, 278592, Note_on_c, 1, 67, 54
3, 278780, Note_off_c, 1, 74, 0
3, 278780, Note_off_c, 1, 62, 0
3, 278780, Note_off_c, 1, 67, 0
3, 278784, Note_on_c, 1, 74, 54
3, 278784, Note_on_c, 1, 67, 54
3, 278784, Note_on_c, 1, 62, 54
3, 278972, Note_off_c, 1, 74, 0
3, 278972, Note_off_c, 1, 67, 0
3, 278972, Note_off_c, 1, 62, 0
3, 278976, Note_on_c, 1, 74, 54
3, 278976, Note_on_c, 1, 67, 54
3, 278976, Note_on_c, 1, 62, 54
3, 279164, Note_off_c, 1, 74, 0
3, 279164, Note_off_c, 1, 67, 0
3, 279164, Note_off_c, 1, 62, 0
3, 279168, Note_on_c, 1, 74, 54
3, 279168, Note_on_c, 1, 67, 54
3, 279168, Note_on_c, 1, 62, 54
3, 279356, Note_off_c, 1, 74, 0
3, 279356, Note_off_c, 1, 67, 0
3, 279356, Note_off_c, 1, 62, 0
3, 279360, Note_on_c, 1, 74, 54
3, 279360, Note_on_c, 1, 67, 54
3, 279360, Note_on_c, 1, 62, 54
3, 279548, Note_off_c, 1, 74, 0
3, 279548, Note_off_c, 1, 67, 0
3, 279548, Note_off_c, 1, 62, 0
3, 279552, Note_on_c, 1, 72, 54
3, 279552, Note_on_c, 1, 69, 54
3, 279552, Note_on_c, 1, 62, 54
3, 279932, Note_off_c, 1, 72, 0
3, 279932, Note_off_c, 1, 69, 0
3, 281084, Note_off_c, 1, 62, 0
3, 281088, Note_on_c, 1, 66, 54
3, 281088, Note_on_c, 1, 62, 54
3, 281468, Note_off_c, 1, 66, 0
3, 281468, Note_off_c, 1, 62, 0
3, 281472, Note_on_c, 1, 64, 54
3, 281472, Note_on_c, 1, 60, 54
3, 281852, Note_off_c, 1, 64, 0
3, 281852, Note_off_c, 1, 60, 0
3, 281856, Note_on_c, 1, 62, 54
3, 281856, Note_on_c, 1, 59, 54
3, 282236, Note_off_c, 1, 62, 0
3, 282236, Note_off_c, 1, 59, 0
3, 282240, Note_on_c, 1, 60, 54
3, 282240, Note_on_c, 1, 57, 54
3, 282620, Note_off_c, 1, 60, 0
3, 282620, Note_off_c, 1, 57, 0
3, 283008, Note_on_c, 1, 81, 54
3, 283008, Note_on_c, 1, 78, 54
3, 283388, Note_off_c, 1, 81, 0
3, 283388, Note_off_c, 1, 78, 0
3, 283392, Note_on_c, 1, 79, 54
3, 283392, Note_on_c, 1, 76, 54
3, 284156, Note_off_c, 1, 79, 0
3, 284156, Note_off_c, 1, 76, 0
3, 284160, Note_on_c, 1, 81, 54
3, 284160, Note_on_c, 1, 78, 54
3, 284924, Note_off_c, 1, 81, 0
3, 284924, Note_off_c, 1, 78, 0
3, 284928, Note_on_c, 1, 77, 54
3, 284928, Note_on_c, 1, 80, 54
3, 285692, Note_off_c, 1, 77, 0
3, 285692, Note_off_c, 1, 80, 0
3, 285696, Note_on_c, 1, 81, 54
3, 285696, Note_on_c, 1, 76, 54
3, 285884, Note_off_c, 1, 81, 0
3, 285884, Note_off_c, 1, 76, 0
3, 285888, Note_on_c, 1, 72, 54
3, 285888, Note_on_c, 1, 69, 54
3, 285888, Note_on_c, 1, 64, 54
3, 286076, Note_off_c, 1, 72, 0
3, 286076, Note_off_c, 1, 69, 0
3, 286076, Note_off_c, 1, 64, 0
3, 286080, Note_on_c, 1, 72, 54
3, 286080, Note_on_c, 1, 69, 54
3, 286080, Note_on_c, 1, 64, 54
3, 286268, Note_off_c, 1, 72, 0
3, 286268, Note_off_c, 1, 69, 0
3, 286268, Note_off_c, 1, 64, 0
3, 286272, Note_on_c, 1, 72, 54
3, 286272, Note_on_c, 1, 69, 54
3, 286272, Note_on_c, 1, 64, 54
3, 286460, Note_off_c, 1, 72, 0
3, 286460, Note_off_c, 1, 69, 0
3, 286460, Note_off_c, 1, 64, 0
3, 286464, Note_on_c, 1, 71, 54
3, 286464, Note_on_c, 1, 67, 54
3, 286464, Note_on_c, 1, 62, 54
3, 286652, Note_off_c, 1, 71, 0
3, 286652, Note_off_c, 1, 67, 0
3, 286652, Note_off_c, 1, 62, 0
3, 286656, Note_on_c, 1, 71, 54
3, 286656, Note_on_c, 1, 67, 54
3, 286656, Note_on_c, 1, 62, 54
3, 286844, Note_off_c, 1, 71, 0
3, 286844, Note_off_c, 1, 67, 0
3, 286844, Note_off_c, 1, 62, 0
3, 286848, Note_on_c, 1, 69, 54
3, 286848, Note_on_c, 1, 66, 54
3, 286848, Note_on_c, 1, 62, 54
3, 286848, Note_on_c, 1, 60, 54
3, 287036, Note_off_c, 1, 69, 0
3, 287036, Note_off_c, 1, 66, 0
3, 287036, Note_off_c, 1, 62, 0
3, 287036, Note_off_c, 1, 60, 0
3, 287040, Note_on_c, 1, 69, 54
3, 287040, Note_on_c, 1, 66, 54
3, 287040, Note_on_c, 1, 62, 54
3, 287040, Note_on_c, 1, 60, 54
3, 287228, Note_off_c, 1, 69, 0
3, 287228, Note_off_c, 1, 66, 0
3, 287228, Note_off_c, 1, 62, 0
3, 287228, Note_off_c, 1, 60, 0
3, 287232, Note_on_c, 1, 67, 54
3, 287232, Note_on_c, 1, 62, 54
3, 287232, Note_on_c, 1, 59, 54
3, 287420, Note_off_c, 1, 67, 0
3, 287420, Note_off_c, 1, 62, 0
3, 287420, Note_off_c, 1, 59, 0
3, 287424, Note_on_c, 1, 55, 87
3, 287516, Note_off_c, 1, 55, 0
3, 287520, Note_on_c, 1, 59, 84
3, 287612, Note_off_c, 1, 59, 0
3, 287616, Note_on_c, 1, 57, 82
3, 287708, Note_off_c, 1, 57, 0
3, 287712, Note_on_c, 1, 60, 81
3, 287804, Note_off_c, 1, 60, 0
3, 287808, Note_on_c, 1, 59, 81
3, 287900, Note_off_c, 1, 59, 0
3, 287904, Note_on_c, 1, 62, 81
3, 287996, Note_off_c, 1, 62, 0
3, 288000, Note_on_c, 1, 60, 81
3, 288092, Note_off_c, 1, 60, 0
3, 288096, Note_on_c, 1, 64, 81
3, 288188, Note_off_c, 1, 64, 0
3, 288192, Note_on_c, 1, 62, 81
3, 288284, Note_off_c, 1, 62, 0
3, 288288, Note_on_c, 1, 66, 81
3, 288380, Note_off_c, 1, 66, 0
3, 288384, Note_on_c, 1, 64, 81
3, 288476, Note_off_c, 1, 64, 0
3, 288480, Note_on_c, 1, 67, 81
3, 288572, Note_off_c, 1, 67, 0
3, 288576, Note_on_c, 1, 66, 81
3, 288668, Note_off_c, 1, 66, 0
3, 288672, Note_on_c, 1, 69, 81
3, 288764, Note_off_c, 1, 69, 0
3, 288768, Note_on_c, 1, 67, 81
3, 289148, Note_off_c, 1, 67, 0
3, 290304, Note_on_c, 1, 71, 54
3, 290304, Note_on_c, 1, 67, 54
3, 290492, Note_off_c, 1, 71, 0
3, 290492, Note_off_c, 1, 67, 0
3, 290496, Note_on_c, 1, 71, 54
3, 290496, Note_on_c, 1, 67, 54
3, 290684, Note_off_c, 1, 71, 0
3, 290684, Note_off_c, 1, 67, 0
3, 290688, Note_on_c, 1, 71, 54
3, 290688, Note_on_c, 1, 67, 54
3, 290876, Note_off_c, 1, 71, 0
3, 290876, Note_off_c, 1, 67, 0
3, 290880, Note_on_c, 1, 71, 54
3, 290880, Note_on_c, 1, 67, 54
3, 291068, Note_off_c, 1, 71, 0
3, 291068, Note_off_c, 1, 67, 0
3, 291072, Note_on_c, 1, 69, 54
3, 291072, Note_on_c, 1, 66, 54
3, 291260, Note_off_c, 1, 69, 0
3, 291260, Note_off_c, 1, 66, 0
3, 291264, Note_on_c, 1, 69, 54
3, 291264, Note_on_c, 1, 66, 54
3, 291452, Note_off_c, 1, 69, 0
3, 291452, Note_off_c, 1, 66, 0
3, 291456, Note_on_c, 1, 69, 54
3, 291456, Note_on_c, 1, 66, 54
3, 291644, Note_off_c, 1, 69, 0
3, 291644, Note_off_c, 1, 66, 0
3, 291648, Note_on_c, 1, 69, 54
3, 291648, Note_on_c, 1, 66, 54
3, 291836, Note_off_c, 1, 69, 0
3, 291836, Note_off_c, 1, 66, 0
3, 291840, Note_on_c, 1, 67, 54
3, 291840, Note_on_c, 1, 64, 54
3, 292220, Note_off_c, 1, 67, 0
3, 292220, Note_off_c, 1, 64, 0
3, 293568, Note_on_c, 1, 67, 54
3, 293568, Note_on_c, 1, 64, 54
3, 293756, Note_off_c, 1, 67, 0
3, 293756, Note_off_c, 1, 64, 0
3, 293760, Note_on_c, 1, 66, 54
3, 293760, Note_on_c, 1, 63, 54
3, 293948, Note_off_c, 1, 66, 0
3, 293948, Note_off_c, 1, 63, 0
3, 293952, Note_on_c, 1, 67, 54
3, 293952, Note_on_c, 1, 64, 54
3, 294140, Note_off_c, 1, 67, 0
3, 294140, Note_off_c, 1, 64, 0
3, 294144, Note_on_c, 1, 66, 54
3, 294144, Note_on_c, 1, 63, 54
3, 294332, Note_off_c, 1, 66, 0
3, 294332, Note_off_c, 1, 63, 0
3, 294336, Note_on_c, 1, 67, 54
3, 294336, Note_on_c, 1, 64, 54
3, 294524, Note_off_c, 1, 67, 0
3, 294524, Note_off_c, 1, 64, 0
3, 294528, Note_on_c, 1, 66, 54
3, 294528, Note_on_c, 1, 63, 54
3, 294716, Note_off_c, 1, 66, 0
3, 294716, Note_off_c, 1, 63, 0
3, 294720, Note_on_c, 1, 67, 54
3, 294720, Note_on_c, 1, 64, 54
3, 294908, Note_off_c, 1, 67, 0
3, 294908, Note_off_c, 1, 64, 0
3, 296640, Note_on_c, 1, 64, 54
3, 296640, Note_on_c, 1, 60, 54
3, 296828, Note_off_c, 1, 64, 0
3, 296828, Note_off_c, 1, 60, 0
3, 296832, Note_on_c, 1, 63, 54
3, 296832, Note_on_c, 1, 59, 54
3, 297020, Note_off_c, 1, 63, 0
3, 297020, Note_off_c, 1, 59, 0
3, 297024, Note_on_c, 1, 64, 54
3, 297024, Note_on_c, 1, 60, 54
3, 297212, Note_off_c, 1, 64, 0
3, 297212, Note_off_c, 1, 60, 0
3, 297216, Note_on_c, 1, 63, 54
3, 297216, Note_on_c, 1, 59, 54
3, 297404, Note_off_c, 1, 63, 0
3, 297404, Note_off_c, 1, 59, 0
3, 297408, Note_on_c, 1, 64, 54
3, 297408, Note_on_c, 1, 60, 54
3, 297596, Note_off_c, 1, 64, 0
3, 297596, Note_off_c, 1, 60, 0
3, 297600, Note_on_c, 1, 63, 54
3, 297600, Note_on_c, 1, 59, 54
3, 297788, Note_off_c, 1, 63, 0
3, 297788, Note_off_c, 1, 59, 0
3, 297792, Note_on_c, 1, 64, 54
3, 297792, Note_on_c, 1, 60, 54
3, 297980, Note_off_c, 1, 64, 0
3, 297980, Note_off_c, 1, 60, 0
3, 297984, Note_on_c, 1, 67, 54
3, 297984, Note_on_c, 1, 64, 54
3, 298172, Note_off_c, 1, 67, 0
3, 298172, Note_off_c, 1, 64, 0
3, 298176, Note_on_c, 1, 67, 54
3, 298176, Note_on_c, 1, 64, 54
3, 298364, Note_off_c, 1, 67, 0
3, 298364, Note_off_c, 1, 64, 0
3, 298368, Note_on_c, 1, 67, 54
3, 298368, Note_on_c, 1, 64, 54
3, 298556, Note_off_c, 1, 67, 0
3, 298556, Note_off_c, 1, 64, 0
3, 298560, Note_on_c, 1, 67, 54
3, 298560, Note_on_c, 1, 64, 54
3, 298748, Note_off_c, 1, 67, 0
3, 298748, Note_off_c, 1, 64, 0
3, 298752, Note_on_c, 1, 67, 54
3, 298752, Note_on_c, 1, 62, 54
3, 298940, Note_off_c, 1, 67, 0
3, 298940, Note_off_c, 1, 62, 0
3, 298944, Note_on_c, 1, 67, 54
3, 298944, Note_on_c, 1, 62, 54
3, 299132, Note_off_c, 1, 67, 0
3, 299132, Note_off_c, 1, 62, 0
3, 299136, Note_on_c, 1, 67, 54
3, 299136, Note_on_c, 1, 64, 54
3, 299136, Note_on_c, 1, 61, 54
3, 299324, Note_off_c, 1, 67, 0
3, 299324, Note_off_c, 1, 64, 0
3, 299324, Note_off_c, 1, 61, 0
3, 299328, Note_on_c, 1, 67, 54
3, 299328, Note_on_c, 1, 64, 54
3, 299328, Note_on_c, 1, 61, 54
3, 299516, Note_off_c, 1, 67, 0
3, 299516, Note_off_c, 1, 64, 0
3, 299516, Note_off_c, 1, 61, 0
3, 299520, Note_on_c, 1, 66, 54
3, 299520, Note_on_c, 1, 62, 54
3, 299520, Note_on_c, 1, 57, 54
3, 300284, Note_off_c, 1, 66, 0
3, 300284, Note_off_c, 1, 62, 0
3, 300284, Note_off_c, 1, 57, 0
3, 300288, Note_on_c, 1, 71, 54
3, 300288, Note_on_c, 1, 67, 54
3, 300288, Note_on_c, 1, 62, 54
3, 300668, Note_off_c, 1, 71, 0
3, 300668, Note_off_c, 1, 67, 0
3, 300668, Note_off_c, 1, 62, 0
3, 301056, Note_on_c, 1, 71, 81
3, 301056, Note_on_c, 1, 67, 81
3, 301820, Note_off_c, 1, 71, 0
3, 301820, Note_off_c, 1, 67, 0
3, 301824, Note_on_c, 1, 74, 81
3, 301824, Note_on_c, 1, 71, 81
3, 301916, Note_off_c, 1, 74, 0
3, 301916, Note_off_c, 1, 71, 0
3, 301920, Note_on_c, 1, 72, 81
3, 301920, Note_on_c, 1, 69, 81
3, 302208, Note_on_c, 1, 71, 81
3, 302208, Note_on_c, 1, 67, 81
3, 302212, Note_off_c, 1, 72, 0
3, 302212, Note_off_c, 1, 69, 0
3, 302300, Note_off_c, 1, 71, 0
3, 302300, Note_off_c, 1, 67, 0
3, 302304, Note_on_c, 1, 69, 81
3, 302304, Note_on_c, 1, 66, 81
3, 302592, Note_on_c, 1, 67, 54
3, 302596, Note_off_c, 1, 66, 0
3, 302596, Note_off_c, 1, 69, 0
3, 302684, Note_off_c, 1, 67, 0
3, 302688, Note_on_c, 1, 66, 54
3, 302780, Note_off_c, 1, 66, 0
3, 302784, Note_on_c, 1, 67, 54
3, 302876, Note_off_c, 1, 67, 0
3, 302880, Note_on_c, 1, 69, 54
3, 302972, Note_off_c, 1, 69, 0
3, 302976, Note_on_c, 1, 71, 54
3, 303068, Note_off_c, 1, 71, 0
3, 303072, Note_on_c, 1, 72, 54
3, 303164, Note_off_c, 1, 72, 0
3, 303168, Note_on_c, 1, 69, 54
3, 303168, Note_on_c, 1, 74, 54
3, 303260, Note_off_c, 1, 69, 0
3, 303264, Note_on_c, 1, 71, 54
3, 303356, Note_off_c, 1, 74, 0
3, 303356, Note_off_c, 1, 71, 0
3, 303360, Note_on_c, 1, 67, 54
3, 303360, Note_on_c, 1, 72, 54
3, 303452, Note_off_c, 1, 67, 0
3, 303456, Note_on_c, 1, 66, 54
3, 303548, Note_off_c, 1, 66, 0
3, 303552, Note_on_c, 1, 67, 54
3, 303644, Note_off_c, 1, 67, 0
3, 303648, Note_on_c, 1, 69, 54
3, 303740, Note_off_c, 1, 72, 0
3, 303740, Note_off_c, 1, 69, 0
3, 303744, Note_on_c, 1, 66, 54
3, 303744, Note_on_c, 1, 71, 54
3, 303836, Note_off_c, 1, 66, 0
3, 303840, Note_on_c, 1, 64, 54
3, 303932, Note_off_c, 1, 64, 0
3, 303936, Note_on_c, 1, 66, 54
3, 304028, Note_off_c, 1, 66, 0
3, 304032, Note_on_c, 1, 67, 54
3, 304124, Note_off_c, 1, 71, 0
3, 304124, Note_off_c, 1, 67, 0
3, 304128, Note_on_c, 1, 69, 54
3, 304128, Note_on_c, 1, 64, 54
3, 304220, Note_off_c, 1, 64, 0
3, 304224, Note_on_c, 1, 62, 54
3, 304316, Note_off_c, 1, 62, 0
3, 304320, Note_on_c, 1, 60, 54
3, 304412, Note_off_c, 1, 60, 0
3, 304416, Note_on_c, 1, 59, 54
3, 304508, Note_off_c, 1, 69, 0
3, 304508, Note_off_c, 1, 59, 0
3, 304512, Note_on_c, 1, 57, 54
3, 304604, Note_off_c, 1, 57, 0
3, 304608, Note_on_c, 1, 59, 54
3, 304700, Note_off_c, 1, 59, 0
3, 304704, Note_on_c, 1, 64, 54
3, 304704, Note_on_c, 1, 60, 54
3, 304796, Note_off_c, 1, 60, 0
3, 304800, Note_on_c, 1, 57, 54
3, 304892, Note_off_c, 1, 64, 0
3, 304892, Note_off_c, 1, 57, 0
3, 304896, Note_on_c, 1, 67, 54
3, 304896, Note_on_c, 1, 59, 54
3, 304988, Note_off_c, 1, 59, 0
3, 304992, Note_on_c, 1, 60, 54
3, 305084, Note_off_c, 1, 60, 0
3, 305088, Note_on_c, 1, 62, 54
3, 305180, Note_off_c, 1, 62, 0
3, 305184, Note_on_c, 1, 59, 54
3, 305276, Note_off_c, 1, 67, 0
3, 305276, Note_off_c, 1, 59, 0
3, 305280, Note_on_c, 1, 69, 54
3, 305280, Note_on_c, 1, 60, 54
3, 305372, Note_off_c, 1, 60, 0
3, 305376, Note_on_c, 1, 62, 54
3, 305468, Note_off_c, 1, 62, 0
3, 305472, Note_on_c, 1, 64, 54
3, 305564, Note_off_c, 1, 64, 0
3, 305568, Note_on_c, 1, 66, 54
3, 305660, Note_off_c, 1, 69, 0
3, 305660, Note_off_c, 1, 66, 0
3, 305664, Note_on_c, 1, 67, 54
3, 305664, Note_on_c, 1, 71, 54
3, 305756, Note_off_c, 1, 67, 0
3, 305760, Note_on_c, 1, 66, 54
3, 305852, Note_off_c, 1, 66, 0
3, 305856, Note_on_c, 1, 67, 54
3, 305948, Note_off_c, 1, 67, 0
3, 305952, Note_on_c, 1, 69, 54
3, 306044, Note_off_c, 1, 71, 0
3, 306044, Note_off_c, 1, 69, 0
3, 306048, Note_on_c, 1, 71, 54
3, 306140, Note_off_c, 1, 71, 0
3, 306144, Note_on_c, 1, 72, 54
3, 306236, Note_off_c, 1, 72, 0
3, 306240, Note_on_c, 1, 69, 54
3, 306240, Note_on_c, 1, 74, 54
3, 306332, Note_off_c, 1, 69, 0
3, 306336, Note_on_c, 1, 71, 54
3, 306428, Note_off_c, 1, 74, 0
3, 306428, Note_off_c, 1, 71, 0
3, 306432, Note_on_c, 1, 67, 54
3, 306432, Note_on_c, 1, 72, 54
3, 306524, Note_off_c, 1, 67, 0
3, 306528, Note_on_c, 1, 66, 54
3, 306620, Note_off_c, 1, 66, 0
3, 306624, Note_on_c, 1, 67, 54
3, 306716, Note_off_c, 1, 67, 0
3, 306720, Note_on_c, 1, 69, 54
3, 306800, Note_on_c, 1, 71, 54
3, 306812, Note_off_c, 1, 72, 0
3, 306812, Note_off_c, 1, 69, 0
3, 306816, Note_on_c, 1, 66, 54
3, 306908, Note_off_c, 1, 66, 0
3, 306912, Note_on_c, 1, 64, 54
3, 307004, Note_off_c, 1, 64, 0
3, 307008, Note_on_c, 1, 66, 54
3, 307100, Note_off_c, 1, 66, 0
3, 307104, Note_on_c, 1, 67, 54
3, 307180, Note_off_c, 1, 71, 0
3, 307196, Note_off_c, 1, 67, 0
3, 307200, Note_on_c, 1, 69, 54
3, 307200, Note_on_c, 1, 64, 54
3, 307292, Note_off_c, 1, 64, 0
3, 307296, Note_on_c, 1, 62, 54
3, 307388, Note_off_c, 1, 62, 0
3, 307392, Note_on_c, 1, 60, 54
3, 307484, Note_off_c, 1, 60, 0
3, 307488, Note_on_c, 1, 59, 54
3, 307580, Note_off_c, 1, 69, 0
3, 307580, Note_off_c, 1, 59, 0
3, 307584, Note_on_c, 1, 57, 54
3, 307676, Note_off_c, 1, 57, 0
3, 307680, Note_on_c, 1, 59, 54
3, 307772, Note_off_c, 1, 59, 0
3, 307776, Note_on_c, 1, 60, 54
3, 307776, Note_on_c, 1, 64, 54
3, 307868, Note_off_c, 1, 60, 0
3, 307872, Note_on_c, 1, 57, 54
3, 307964, Note_off_c, 1, 64, 0
3, 307964, Note_off_c, 1, 57, 0
3, 307968, Note_on_c, 1, 59, 54
3, 307968, Note_on_c, 1, 67, 54
3, 308060, Note_off_c, 1, 59, 0
3, 308064, Note_on_c, 1, 60, 54
3, 308156, Note_off_c, 1, 60, 0
3, 308160, Note_on_c, 1, 62, 54
3, 308252, Note_off_c, 1, 62, 0
3, 308256, Note_on_c, 1, 60, 54
3, 308348, Note_off_c, 1, 67, 0
3, 308348, Note_off_c, 1, 60, 0
3, 308352, Note_on_c, 1, 60, 54
3, 308352, Note_on_c, 1, 69, 54
3, 308444, Note_off_c, 1, 60, 0
3, 308448, Note_on_c, 1, 62, 54
3, 308540, Note_off_c, 1, 62, 0
3, 308544, Note_on_c, 1, 64, 54
3, 308636, Note_off_c, 1, 64, 0
3, 308640, Note_on_c, 1, 66, 54
3, 308732, Note_off_c, 1, 69, 0
3, 308732, Note_off_c, 1, 66, 0
3, 308736, Note_on_c, 1, 71, 54
3, 308736, Note_on_c, 1, 67, 54
3, 308828, Note_off_c, 1, 67, 0
3, 308832, Note_on_c, 1, 66, 54
3, 308924, Note_off_c, 1, 66, 0
3, 308928, Note_on_c, 1, 67, 54
3, 309020, Note_off_c, 1, 67, 0
3, 309024, Note_on_c, 1, 69, 54
3, 309116, Note_off_c, 1, 71, 0
3, 309116, Note_off_c, 1, 69, 0
3, 309120, Note_on_c, 1, 67, 54
3, 309120, Note_on_c, 1, 71, 54
3, 309212, Note_off_c, 1, 71, 0
3, 309216, Note_on_c, 1, 72, 54
3, 309308, Note_off_c, 1, 67, 0
3, 309308, Note_off_c, 1, 72, 0
3, 309312, Note_on_c, 1, 66, 54
3, 309312, Note_on_c, 1, 69, 54
3, 309404, Note_off_c, 1, 69, 0
3, 309408, Note_on_c, 1, 71, 54
3, 309500, Note_off_c, 1, 66, 0
3, 309500, Note_off_c, 1, 71, 0
3, 309504, Note_on_c, 1, 67, 54
3, 309504, Note_on_c, 1, 64, 54
3, 309596, Note_off_c, 1, 64, 0
3, 309600, Note_on_c, 1, 66, 54
3, 309692, Note_off_c, 1, 66, 0
3, 309696, Note_on_c, 1, 67, 54
3, 309788, Note_off_c, 1, 67, 0
3, 309792, Note_on_c, 1, 64, 54
3, 309884, Note_off_c, 1, 67, 0
3, 309884, Note_off_c, 1, 64, 0
3, 309888, Note_on_c, 1, 66, 54
3, 309888, Note_on_c, 1, 62, 54
3, 309980, Note_off_c, 1, 62, 0
3, 309984, Note_on_c, 1, 64, 54
3, 310076, Note_off_c, 1, 64, 0
3, 310080, Note_on_c, 1, 66, 54
3, 310172, Note_off_c, 1, 66, 0
3, 310176, Note_on_c, 1, 62, 54
3, 310268, Note_off_c, 1, 66, 0
3, 310268, Note_off_c, 1, 62, 0
3, 310272, Note_on_c, 1, 64, 54
3, 310652, Note_off_c, 1, 64, 0
3, 310656, Note_on_c, 1, 69, 54
3, 311036, Note_off_c, 1, 69, 0
3, 311040, Note_on_c, 1, 62, 54
3, 311612, Note_off_c, 1, 62, 0
3, 311616, Note_on_c, 1, 67, 54
3, 311804, Note_off_c, 1, 67, 0
3, 311808, Note_on_c, 1, 64, 54
3, 312188, Note_off_c, 1, 64, 0
3, 312192, Note_on_c, 1, 69, 54
3, 312572, Note_off_c, 1, 69, 0
3, 312576, Note_on_c, 1, 74, 54
3, 313148, Note_off_c, 1, 74, 0
3, 313152, Note_on_c, 1, 67, 54
3, 313340, Note_off_c, 1, 67, 0
3, 313344, Note_on_c, 1, 67, 54
3, 313532, Note_off_c, 1, 67, 0
3, 314496, Note_on_c, 1, 79, 54
3, 314496, Note_on_c, 1, 76, 54
3, 314496, Note_on_c, 1, 71, 54
3, 314876, Note_off_c, 1, 79, 0
3, 314876, Note_off_c, 1, 76, 0
3, 314876, Note_off_c, 1, 71, 0
3, 314880, Note_on_c, 1, 71, 54
3, 314880, Note_on_c, 1, 67, 54
3, 314880, Note_on_c, 1, 62, 54
3, 315068, Note_off_c, 1, 71, 0
3, 315068, Note_off_c, 1, 67, 0
3, 315068, Note_off_c, 1, 62, 0
3, 315072, Note_on_c, 1, 71, 54
3, 315072, Note_on_c, 1, 67, 54
3, 315072, Note_on_c, 1, 62, 54
3, 315260, Note_off_c, 1, 71, 0
3, 315260, Note_off_c, 1, 67, 0
3, 315260, Note_off_c, 1, 62, 0
3, 315264, Note_on_c, 1, 71, 54
3, 315264, Note_on_c, 1, 67, 54
3, 315264, Note_on_c, 1, 62, 54
3, 315452, Note_off_c, 1, 71, 0
3, 315452, Note_off_c, 1, 67, 0
3, 315452, Note_off_c, 1, 62, 0
3, 315456, Note_on_c, 1, 71, 54
3, 315456, Note_on_c, 1, 67, 54
3, 315456, Note_on_c, 1, 62, 54
3, 315644, Note_off_c, 1, 71, 0
3, 315644, Note_off_c, 1, 67, 0
3, 315644, Note_off_c, 1, 62, 0
3, 315648, Note_on_c, 1, 69, 54
3, 315648, Note_on_c, 1, 66, 54
3, 315648, Note_on_c, 1, 60, 54
3, 315836, Note_off_c, 1, 69, 0
3, 315836, Note_off_c, 1, 66, 0
3, 315836, Note_off_c, 1, 60, 0
3, 315840, Note_on_c, 1, 69, 54
3, 315840, Note_on_c, 1, 66, 54
3, 315840, Note_on_c, 1, 60, 54
3, 316028, Note_off_c, 1, 69, 0
3, 316028, Note_off_c, 1, 66, 0
3, 316028, Note_off_c, 1, 60, 0
3, 316032, Note_on_c, 1, 69, 54
3, 316032, Note_on_c, 1, 66, 54
3, 316032, Note_on_c, 1, 60, 54
3, 316220, Note_off_c, 1, 69, 0
3, 316220, Note_off_c, 1, 66, 0
3, 316220, Note_off_c, 1, 60, 0
3, 316224, Note_on_c, 1, 69, 54
3, 316224, Note_on_c, 1, 66, 54
3, 316224, Note_on_c, 1, 60, 54
3, 316412, Note_off_c, 1, 69, 0
3, 316412, Note_off_c, 1, 66, 0
3, 316412, Note_off_c, 1, 60, 0
3, 316416, Note_on_c, 1, 67, 54
3, 316416, Note_on_c, 1, 59, 54
3, 316604, Note_off_c, 1, 67, 0
3, 316604, Note_off_c, 1, 59, 0
3, 316800, Note_on_c, 1, 79, 54
3, 316800, Note_on_c, 1, 72, 54
3, 316800, Note_on_c, 1, 67, 54
3, 317180, Note_off_c, 1, 79, 0
3, 317180, Note_off_c, 1, 72, 0
3, 317180, Note_off_c, 1, 67, 0
3, 317184, Note_on_c, 1, 78, 54
3, 317184, Note_on_c, 1, 69, 54
3, 317184, Note_on_c, 1, 66, 54
3, 317564, Note_off_c, 1, 78, 0
3, 317564, Note_off_c, 1, 69, 0
3, 317564, Note_off_c, 1, 66, 0
3, 317568, Note_on_c, 1, 76, 54
3, 317568, Note_on_c, 1, 71, 54
3, 317568, Note_on_c, 1, 67, 54
3, 317948, Note_off_c, 1, 76, 0
3, 317948, Note_off_c, 1, 71, 0
3, 317948, Note_off_c, 1, 67, 0
3, 317952, Note_on_c, 1, 74, 54
3, 317952, Note_on_c, 1, 71, 54
3, 317952, Note_on_c, 1, 67, 54
3, 318140, Note_off_c, 1, 74, 0
3, 318140, Note_off_c, 1, 71, 0
3, 318140, Note_off_c, 1, 67, 0
3, 318144, Note_on_c, 1, 71, 54
3, 318144, Note_on_c, 1, 67, 54
3, 318144, Note_on_c, 1, 62, 54
3, 318332, Note_off_c, 1, 71, 0
3, 318332, Note_off_c, 1, 67, 0
3, 318332, Note_off_c, 1, 62, 0
3, 318336, Note_on_c, 1, 71, 54
3, 318336, Note_on_c, 1, 67, 54
3, 318336, Note_on_c, 1, 62, 54
3, 318524, Note_off_c, 1, 71, 0
3, 318524, Note_off_c, 1, 67, 0
3, 318524, Note_off_c, 1, 62, 0
3, 318528, Note_on_c, 1, 71, 54
3, 318528, Note_on_c, 1, 67, 54
3, 318528, Note_on_c, 1, 62, 54
3, 318716, Note_off_c, 1, 71, 0
3, 318716, Note_off_c, 1, 67, 0
3, 318716, Note_off_c, 1, 62, 0
3, 318720, Note_on_c, 1, 71, 54
3, 318720, Note_on_c, 1, 67, 54
3, 318720, Note_on_c, 1, 62, 54
3, 318908, Note_off_c, 1, 71, 0
3, 318908, Note_off_c, 1, 67, 0
3, 318908, Note_off_c, 1, 62, 0
3, 318912, Note_on_c, 1, 71, 54
3, 318912, Note_on_c, 1, 67, 54
3, 318912, Note_on_c, 1, 62, 54
3, 319100, Note_off_c, 1, 71, 0
3, 319100, Note_off_c, 1, 67, 0
3, 319100, Note_off_c, 1, 62, 0
3, 319104, Note_on_c, 1, 71, 54
3, 319104, Note_on_c, 1, 67, 54
3, 319104, Note_on_c, 1, 62, 54
3, 319292, Note_off_c, 1, 71, 0
3, 319292, Note_off_c, 1, 67, 0
3, 319292, Note_off_c, 1, 62, 0
3, 319296, Note_on_c, 1, 71, 54
3, 319296, Note_on_c, 1, 67, 54
3, 319296, Note_on_c, 1, 62, 54
3, 319484, Note_off_c, 1, 71, 0
3, 319484, Note_off_c, 1, 67, 0
3, 319484, Note_off_c, 1, 62, 0
3, 319488, Note_on_c, 1, 72, 54
3, 319488, Note_on_c, 1, 66, 54
3, 319488, Note_on_c, 1, 62, 54
3, 319676, Note_off_c, 1, 72, 0
3, 319676, Note_off_c, 1, 66, 0
3, 319676, Note_off_c, 1, 62, 0
3, 319680, Note_on_c, 1, 72, 54
3, 319680, Note_on_c, 1, 66, 54
3, 319680, Note_on_c, 1, 62, 54
3, 319868, Note_off_c, 1, 72, 0
3, 319868, Note_off_c, 1, 66, 0
3, 319868, Note_off_c, 1, 62, 0
3, 319872, Note_on_c, 1, 72, 54
3, 319872, Note_on_c, 1, 66, 54
3, 319872, Note_on_c, 1, 62, 54
3, 320060, Note_off_c, 1, 72, 0
3, 320060, Note_off_c, 1, 66, 0
3, 320060, Note_off_c, 1, 62, 0
3, 320064, Note_on_c, 1, 72, 54
3, 320064, Note_on_c, 1, 66, 54
3, 320064, Note_on_c, 1, 62, 54
3, 320252, Note_off_c, 1, 72, 0
3, 320252, Note_off_c, 1, 66, 0
3, 320252, Note_off_c, 1, 62, 0
3, 320256, Note_on_c, 1, 69, 54
3, 320256, Note_on_c, 1, 66, 54
3, 320256, Note_on_c, 1, 62, 54
3, 320348, Note_off_c, 1, 69, 0
3, 320348, Note_off_c, 1, 66, 0
3, 320348, Note_off_c, 1, 62, 0
3, 320352, Note_on_c, 1, 60, 54
3, 320444, Note_off_c, 1, 60, 0
3, 320448, Note_on_c, 1, 69, 54
3, 320448, Note_on_c, 1, 66, 54
3, 320448, Note_on_c, 1, 62, 54
3, 320540, Note_off_c, 1, 69, 0
3, 320540, Note_off_c, 1, 66, 0
3, 320540, Note_off_c, 1, 62, 0
3, 320544, Note_on_c, 1, 60, 54
3, 320636, Note_off_c, 1, 60, 0
3, 320640, Note_on_c, 1, 69, 54
3, 320640, Note_on_c, 1, 66, 54
3, 320640, Note_on_c, 1, 62, 54
3, 320732, Note_off_c, 1, 69, 0
3, 320732, Note_off_c, 1, 66, 0
3, 320732, Note_off_c, 1, 62, 0
3, 320736, Note_on_c, 1, 60, 54
3, 320828, Note_off_c, 1, 60, 0
3, 320832, Note_on_c, 1, 69, 54
3, 320832, Note_on_c, 1, 66, 54
3, 320832, Note_on_c, 1, 62, 54
3, 320924, Note_off_c, 1, 69, 0
3, 320924, Note_off_c, 1, 66, 0
3, 320924, Note_off_c, 1, 62, 0
3, 320928, Note_on_c, 1, 60, 54
3, 321020, Note_off_c, 1, 60, 0
3, 321024, Note_on_c, 1, 79, 87
3, 321024, Note_on_c, 1, 74, 87
3, 321024, Note_on_c, 1, 71, 87
3, 321024, Note_on_c, 1, 67, 87
3, 321404, Note_off_c, 1, 79, 0
3, 321404, Note_off_c, 1, 74, 0
3, 321404, Note_off_c, 1, 71, 0
3, 321404, Note_off_c, 1, 67, 0
3, 321408, Note_on_c, 1, 74, 84
3, 321408, Note_on_c, 1, 71, 84
3, 321408, Note_on_c, 1, 67, 84
3, 321692, Note_off_c, 1, 74, 0
3, 321692, Note_off_c, 1, 71, 0
3, 321692, Note_off_c, 1, 67, 0
3, 321696, Note_on_c, 1, 74, 82
3, 321788, Note_off_c, 1, 74, 0
3, 321792, Note_on_c, 1, 74, 82
3, 321792, Note_on_c, 1, 71, 82
3, 321792, Note_on_c, 1, 62, 82
3, 322172, Note_off_c, 1, 74, 0
3, 322172, Note_off_c, 1, 71, 0
3, 322172, Note_off_c, 1, 62, 0
3, 322176, Note_on_c, 1, 74, 82
3, 322176, Note_on_c, 1, 71, 82
3, 322176, Note_on_c, 1, 67, 82
3, 322556, Note_off_c, 1, 74, 0
3, 322556, Note_off_c, 1, 71, 0
3, 322556, Note_off_c, 1, 67, 0
3, 322560, Note_on_c, 1, 81, 82
3, 322560, Note_on_c, 1, 74, 82
3, 322560, Note_on_c, 1, 86, 82
3, 322748, Note_off_c, 1, 86, 0
3, 322752, Note_on_c, 1, 84, 82
3, 322940, Note_off_c, 1, 84, 0
3, 322944, Note_on_c, 1, 84, 81
3, 323324, Note_off_c, 1, 81, 0
3, 323324, Note_off_c, 1, 74, 0
3, 323328, Note_on_c, 1, 78, 81
3, 323328, Note_on_c, 1, 74, 81
3, 323708, Note_off_c, 1, 84, 0
3, 323708, Note_off_c, 1, 78, 0
3, 323708, Note_off_c, 1, 74, 0
3, 323712, Note_on_c, 1, 74, 81
3, 323712, Note_on_c, 1, 86, 81
3, 323804, Note_off_c, 1, 86, 0
3, 323808, Note_on_c, 1, 84, 81
3, 323900, Note_off_c, 1, 84, 0
3, 323904, Note_on_c, 1, 83, 81
3, 323996, Note_off_c, 1, 83, 0
3, 324000, Note_on_c, 1, 81, 81
3, 324092, Note_off_c, 1, 74, 0
3, 324092, Note_off_c, 1, 81, 0
3, 324096, Note_on_c, 1, 79, 81
3, 324188, Note_off_c, 1, 79, 0
3, 324192, Note_on_c, 1, 78, 81
3, 324192, Note_on_c, 1, 74, 81
3, 324192, Note_on_c, 1, 67, 81
3, 324480, Note_on_c, 1, 74, 81
3, 324480, Note_on_c, 1, 69, 81
3, 324480, Note_on_c, 1, 78, 81
3, 324572, Note_off_c, 1, 78, 0
3, 324572, Note_off_c, 1, 74, 0
3, 324572, Note_off_c, 1, 67, 0
3, 324764, Note_off_c, 1, 74, 0
3, 324764, Note_off_c, 1, 69, 0
3, 324764, Note_off_c, 1, 78, 0
3, 324768, Note_on_c, 1, 78, 81
3, 324860, Note_off_c, 1, 78, 0
3, 324864, Note_on_c, 1, 78, 81
3, 324864, Note_on_c, 1, 74, 81
3, 324864, Note_on_c, 1, 69, 81
3, 325244, Note_off_c, 1, 78, 0
3, 325244, Note_off_c, 1, 74, 0
3, 325244, Note_off_c, 1, 69, 0
3, 325248, Note_on_c, 1, 78, 81
3, 325248, Note_on_c, 1, 74, 81
3, 325248, Note_on_c, 1, 69, 81
3, 325628, Note_off_c, 1, 78, 0
3, 325628, Note_off_c, 1, 74, 0
3, 325628, Note_off_c, 1, 69, 0
3, 325632, Note_on_c, 1, 79, 81
3, 325632, Note_on_c, 1, 88, 81
3, 325820, Note_off_c, 1, 88, 0
3, 325824, Note_on_c, 1, 86, 81
3, 326012, Note_off_c, 1, 79, 0
3, 326012, Note_off_c, 1, 86, 0
3, 326016, Note_on_c, 1, 79, 81
3, 326016, Note_on_c, 1, 74, 81
3, 326016, Note_on_c, 1, 86, 81
3, 326396, Note_off_c, 1, 79, 0
3, 326396, Note_off_c, 1, 74, 0
3, 326400, Note_on_c, 1, 79, 81
3, 326400, Note_on_c, 1, 74, 81
3, 326780, Note_off_c, 1, 86, 0
3, 326780, Note_off_c, 1, 79, 0
3, 326780, Note_off_c, 1, 74, 0
3, 326784, Note_on_c, 1, 83, 81
3, 326876, Note_off_c, 1, 83, 0
3, 326880, Note_on_c, 1, 81, 81
3, 326972, Note_off_c, 1, 81, 0
3, 326976, Note_on_c, 1, 79, 81
3, 327068, Note_off_c, 1, 79, 0
3, 327072, Note_on_c, 1, 78, 81
3, 327164, Note_off_c, 1, 78, 0
3, 327168, Note_on_c, 1, 76, 81
3, 327260, Note_off_c, 1, 76, 0
3, 327264, Note_on_c, 1, 74, 81
3, 327356, Note_off_c, 1, 74, 0
3, 327360, Note_on_c, 1, 76, 81
3, 327452, Note_off_c, 1, 76, 0
3, 327456, Note_on_c, 1, 78, 81
3, 327548, Note_off_c, 1, 78, 0
3, 327552, Note_on_c, 1, 79, 81
3, 327644, Note_off_c, 1, 79, 0
3, 327648, Note_on_c, 1, 78, 81
3, 327740, Note_off_c, 1, 78, 0
3, 327744, Note_on_c, 1, 76, 81
3, 327836, Note_off_c, 1, 76, 0
3, 327840, Note_on_c, 1, 74, 81
3, 327932, Note_off_c, 1, 74, 0
3, 327936, Note_on_c, 1, 72, 81
3, 328028, Note_off_c, 1, 72, 0
3, 328032, Note_on_c, 1, 71, 81
3, 328124, Note_off_c, 1, 71, 0
3, 328128, Note_on_c, 1, 72, 81
3, 328220, Note_off_c, 1, 72, 0
3, 328224, Note_on_c, 1, 74, 81
3, 328316, Note_off_c, 1, 74, 0
3, 328320, Note_on_c, 1, 76, 81
3, 328412, Note_off_c, 1, 76, 0
3, 328416, Note_on_c, 1, 74, 81
3, 328508, Note_off_c, 1, 74, 0
3, 328512, Note_on_c, 1, 72, 81
3, 328604, Note_off_c, 1, 72, 0
3, 328608, Note_on_c, 1, 71, 81
3, 328700, Note_off_c, 1, 71, 0
3, 328704, Note_on_c, 1, 69, 81
3, 328704, Note_on_c, 1, 69, 81
3, 328796, Note_off_c, 1, 69, 0
3, 328800, Note_on_c, 1, 67, 81
3, 328892, Note_off_c, 1, 69, 0
3, 328892, Note_off_c, 1, 67, 0
3, 328896, Note_on_c, 1, 69, 81
3, 328896, Note_on_c, 1, 79, 81
3, 328988, Note_off_c, 1, 69, 0
3, 328992, Note_on_c, 1, 71, 81
3, 329084, Note_off_c, 1, 79, 0
3, 329084, Note_off_c, 1, 71, 0
3, 329088, Note_on_c, 1, 72, 81
3, 329088, Note_on_c, 1, 79, 81
3, 329180, Note_off_c, 1, 72, 0
3, 329184, Note_on_c, 1, 74, 81
3, 329276, Note_off_c, 1, 79, 0
3, 329276, Note_off_c, 1, 74, 0
3, 329280, Note_on_c, 1, 76, 81
3, 329280, Note_on_c, 1, 79, 81
3, 329372, Note_off_c, 1, 76, 0
3, 329376, Note_on_c, 1, 72, 81
3, 329468, Note_off_c, 1, 79, 0
3, 329468, Note_off_c, 1, 72, 0
3, 329472, Note_on_c, 1, 79, 81
3, 329472, Note_on_c, 1, 76, 81
3, 329472, Note_on_c, 1, 69, 81
3, 329660, Note_off_c, 1, 79, 0
3, 329660, Note_off_c, 1, 76, 0
3, 329660, Note_off_c, 1, 69, 0
3, 329664, Note_on_c, 1, 84, 81
3, 329664, Note_on_c, 1, 79, 81
3, 329664, Note_on_c, 1, 72, 81
3, 329852, Note_off_c, 1, 84, 0
3, 329852, Note_off_c, 1, 79, 0
3, 329852, Note_off_c, 1, 72, 0
3, 329856, Note_on_c, 1, 83, 81
3, 329856, Note_on_c, 1, 79, 81
3, 329856, Note_on_c, 1, 71, 81
3, 330044, Note_off_c, 1, 83, 0
3, 330044, Note_off_c, 1, 79, 0
3, 330044, Note_off_c, 1, 71, 0
3, 330048, Note_on_c, 1, 81, 81
3, 330048, Note_on_c, 1, 79, 81
3, 330048, Note_on_c, 1, 76, 81
3, 330048, Note_on_c, 1, 69, 81
3, 330236, Note_off_c, 1, 81, 0
3, 330236, Note_off_c, 1, 79, 0
3, 330236, Note_off_c, 1, 76, 0
3, 330236, Note_off_c, 1, 69, 0
3, 330240, Note_on_c, 1, 83, 81
3, 330240, Note_on_c, 1, 79, 81
3, 330240, Note_on_c, 1, 74, 81
3, 330240, Note_on_c, 1, 71, 81
3, 331772, Note_off_c, 1, 83, 0
3, 331772, Note_off_c, 1, 79, 0
3, 331772, Note_off_c, 1, 74, 0
3, 331772, Note_off_c, 1, 71, 0
3, 333312, Note_on_c, 1, 83, 67
3, 333312, Note_on_c, 1, 79, 67
3, 333312, Note_on_c, 1, 74, 67
3, 333312, Note_on_c, 1, 71, 67
3, 334076, Note_off_c, 1, 83, 0
3, 334076, Note_off_c, 1, 79, 0
3, 334076, Note_off_c, 1, 74, 0
3, 334076, Note_off_c, 1, 71, 0
3, 334848, Note_on_c, 1, 79, 87
3, 334848, Note_on_c, 1, 74, 87
3, 334848, Note_on_c, 1, 71, 87
3, 335036, Note_off_c, 1, 79, 0
3, 335036, Note_off_c, 1, 74, 0
3, 335036, Note_off_c, 1, 71, 0
3, 335040, Note_on_c, 1, 83, 84
3, 335132, Note_off_c, 1, 83, 0
3, 335136, Note_on_c, 1, 79, 82
3, 335228, Note_off_c, 1, 79, 0
3, 335232, Note_on_c, 1, 74, 81
3, 335420, Note_off_c, 1, 74, 0
3, 335424, Note_on_c, 1, 79, 81
3, 335516, Note_off_c, 1, 79, 0
3, 335520, Note_on_c, 1, 74, 81
3, 335612, Note_off_c, 1, 74, 0
3, 335616, Note_on_c, 1, 71, 81
3, 335804, Note_off_c, 1, 71, 0
3, 335808, Note_on_c, 1, 74, 81
3, 335900, Note_off_c, 1, 74, 0
3, 335904, Note_on_c, 1, 71, 81
3, 335996, Note_off_c, 1, 71, 0
3, 336000, Note_on_c, 1, 72, 81
3, 336092, Note_off_c, 1, 72, 0
3, 336096, Note_on_c, 1, 69, 81
3, 336188, Note_off_c, 1, 69, 0
3, 336192, Note_on_c, 1, 81, 81
3, 336284, Note_off_c, 1, 81, 0
3, 336288, Note_on_c, 1, 78, 81
3, 336380, Note_off_c, 1, 78, 0
3, 336384, Note_on_c, 1, 79, 81
3, 336384, Note_on_c, 1, 71, 81
3, 336572, Note_off_c, 1, 79, 0
3, 336572, Note_off_c, 1, 71, 0
3, 336576, Note_on_c, 1, 83, 81
3, 336668, Note_off_c, 1, 83, 0
3, 336672, Note_on_c, 1, 79, 81
3, 336764, Note_off_c, 1, 79, 0
3, 336768, Note_on_c, 1, 74, 81
3, 336956, Note_off_c, 1, 74, 0
3, 336960, Note_on_c, 1, 79, 81
3, 337052, Note_off_c, 1, 79, 0
3, 337056, Note_on_c, 1, 74, 81
3, 337148, Note_off_c, 1, 74, 0
3, 337152, Note_on_c, 1, 71, 81
3, 337340, Note_off_c, 1, 71, 0
3, 337344, Note_on_c, 1, 74, 81
3, 337436, Note_off_c, 1, 74, 0
3, 337440, Note_on_c, 1, 71, 81
3, 337532, Note_off_c, 1, 71, 0
3, 337536, Note_on_c, 1, 72, 81
3, 337628, Note_off_c, 1, 72, 0
3, 337632, Note_on_c, 1, 69, 81
3, 337724, Note_off_c, 1, 69, 0
3, 337728, Note_on_c, 1, 81, 81
3, 337820, Note_off_c, 1, 81, 0
3, 337824, Note_on_c, 1, 78, 81
3, 337916, Note_off_c, 1, 78, 0
3, 337920, Note_on_c, 1, 79, 81
3, 338012, Note_off_c, 1, 79, 0
3, 338016, Note_on_c, 1, 83, 81
3, 338108, Note_off_c, 1, 83, 0
3, 338112, Note_on_c, 1, 74, 81
3, 338204, Note_off_c, 1, 74, 0
3, 338208, Note_on_c, 1, 71, 81
3, 338300, Note_off_c, 1, 71, 0
3, 338304, Note_on_c, 1, 72, 81
3, 338396, Note_off_c, 1, 72, 0
3, 338400, Note_on_c, 1, 69, 81
3, 338492, Note_off_c, 1, 69, 0
3, 338496, Note_on_c, 1, 81, 81
3, 338588, Note_off_c, 1, 81, 0
3, 338592, Note_on_c, 1, 78, 81
3, 338684, Note_off_c, 1, 78, 0
3, 338688, Note_on_c, 1, 79, 81
3, 338780, Note_off_c, 1, 79, 0
3, 338784, Note_on_c, 1, 83, 81
3, 338876, Note_off_c, 1, 83, 0
3, 338880, Note_on_c, 1, 74, 81
3, 338972, Note_off_c, 1, 74, 0
3, 338976, Note_on_c, 1, 71, 81
3, 339068, Note_off_c, 1, 71, 0
3, 339072, Note_on_c, 1, 72, 81
3, 339164, Note_off_c, 1, 72, 0
3, 339168, Note_on_c, 1, 69, 81
3, 339260, Note_off_c, 1, 69, 0
3, 339264, Note_on_c, 1, 81, 81
3, 339356, Note_off_c, 1, 81, 0
3, 339360, Note_on_c, 1, 78, 81
3, 339452, Note_off_c, 1, 78, 0
3, 339456, Note_on_c, 1, 79, 87
3, 339456, Note_on_c, 1, 71, 87
3, 339836, Note_off_c, 1, 79, 0
3, 339836, Note_off_c, 1, 71, 0
3, 339840, Note_on_c, 1, 67, 87
3, 340124, Note_off_c, 1, 67, 0
3, 340128, Note_on_c, 1, 67, 87
3, 340220, Note_off_c, 1, 67, 0
3, 340224, Note_on_c, 1, 67, 87
3, 340604, Note_off_c, 1, 67, 0
3, 340604, End_track
4, 0, Start_track
4, 0, Title_t, "K313-a-Allegro Maestoso"
4, 0, Control_c, 2, 0, 0
4, 0, Program_c, 2, 0
4, 0, Control_c, 2, 7, 80
4, 0, Control_c, 2, 10, 44
4, 0, Control_c, 2, 91, 43
4, 0, Control_c, 2, 93, 39
4, 0, Key_signature, 1, "major"
4, 0, Control_c, 2, 121, 0
4, 144, Control_c, 2, 10, 43
4, 192, Control_c, 2, 91, 63
4, 240, Control_c, 2, 93, 40
4, 288, Program_c, 2, 0
4, 1536, Note_on_c, 2, 55, 81
4, 1536, Note_on_c, 2, 43, 81
4, 1724, Note_off_c, 2, 55, 0
4, 1724, Note_off_c, 2, 43, 0
4, 1728, Note_on_c, 2, 55, 81
4, 1728, Note_on_c, 2, 43, 81
4, 1916, Note_off_c, 2, 55, 0
4, 1916, Note_off_c, 2, 43, 0
4, 1920, Note_on_c, 2, 55, 81
4, 1920, Note_on_c, 2, 43, 81
4, 2108, Note_off_c, 2, 55, 0
4, 2108, Note_off_c, 2, 43, 0
4, 2112, Note_on_c, 2, 55, 81
4, 2112, Note_on_c, 2, 43, 81
4, 2300, Note_off_c, 2, 55, 0
4, 2300, Note_off_c, 2, 43, 0
4, 2304, Note_on_c, 2, 55, 81
4, 2304, Note_on_c, 2, 43, 81
4, 2492, Note_off_c, 2, 55, 0
4, 2492, Note_off_c, 2, 43, 0
4, 2496, Note_on_c, 2, 55, 81
4, 2496, Note_on_c, 2, 43, 81
4, 2684, Note_off_c, 2, 55, 0
4, 2684, Note_off_c, 2, 43, 0
4, 2688, Note_on_c, 2, 55, 81
4, 2688, Note_on_c, 2, 43, 81
4, 2876, Note_off_c, 2, 55, 0
4, 2876, Note_off_c, 2, 43, 0
4, 2880, Note_on_c, 2, 55, 81
4, 2880, Note_on_c, 2, 43, 81
4, 3068, Note_off_c, 2, 55, 0
4, 3068, Note_off_c, 2, 43, 0
4, 3072, Note_on_c, 2, 54, 81
4, 3072, Note_on_c, 2, 42, 81
4, 3260, Note_off_c, 2, 54, 0
4, 3260, Note_off_c, 2, 42, 0
4, 3264, Note_on_c, 2, 54, 81
4, 3264, Note_on_c, 2, 42, 81
4, 3452, Note_off_c, 2, 54, 0
4, 3452, Note_off_c, 2, 42, 0
4, 3456, Note_on_c, 2, 54, 81
4, 3456, Note_on_c, 2, 42, 81
4, 3644, Note_off_c, 2, 54, 0
4, 3644, Note_off_c, 2, 42, 0
4, 3648, Note_on_c, 2, 54, 81
4, 3648, Note_on_c, 2, 42, 81
4, 3836, Note_off_c, 2, 54, 0
4, 3836, Note_off_c, 2, 42, 0
4, 3840, Note_on_c, 2, 50, 81
4, 4028, Note_off_c, 2, 50, 0
4, 4032, Note_on_c, 2, 50, 81
4, 4220, Note_off_c, 2, 50, 0
4, 4224, Note_on_c, 2, 62, 81
4, 4224, Note_on_c, 2, 50, 81
4, 4412, Note_off_c, 2, 62, 0
4, 4412, Note_off_c, 2, 50, 0
4, 4416, Note_on_c, 2, 50, 81
4, 4416, Note_on_c, 2, 60, 81
4, 4604, Note_off_c, 2, 50, 0
4, 4604, Note_off_c, 2, 60, 0
4, 4608, Note_on_c, 2, 59, 81
4, 4608, Note_on_c, 2, 47, 81
4, 4796, Note_off_c, 2, 59, 0
4, 4796, Note_off_c, 2, 47, 0
4, 4800, Note_on_c, 2, 59, 81
4, 4800, Note_on_c, 2, 47, 81
4, 4988, Note_off_c, 2, 59, 0
4, 4988, Note_off_c, 2, 47, 0
4, 4992, Note_on_c, 2, 55, 81
4, 4992, Note_on_c, 2, 43, 81
4, 5180, Note_off_c, 2, 55, 0
4, 5180, Note_off_c, 2, 43, 0
4, 5184, Note_on_c, 2, 55, 81
4, 5184, Note_on_c, 2, 43, 81
4, 5372, Note_off_c, 2, 55, 0
4, 5372, Note_off_c, 2, 43, 0
4, 5376, Note_on_c, 2, 57, 81
4, 5376, Note_on_c, 2, 45, 81
4, 5564, Note_off_c, 2, 57, 0
4, 5564, Note_off_c, 2, 45, 0
4, 5568, Note_on_c, 2, 57, 81
4, 5568, Note_on_c, 2, 45, 81
4, 5756, Note_off_c, 2, 57, 0
4, 5756, Note_off_c, 2, 45, 0
4, 5760, Note_on_c, 2, 50, 81
4, 5760, Note_on_c, 2, 38, 81
4, 5948, Note_off_c, 2, 50, 0
4, 5948, Note_off_c, 2, 38, 0
4, 5952, Note_on_c, 2, 50, 81
4, 5952, Note_on_c, 2, 38, 81
4, 6140, Note_off_c, 2, 50, 0
4, 6140, Note_off_c, 2, 38, 0
4, 6144, Note_on_c, 2, 55, 81
4, 6144, Note_on_c, 2, 43, 81
4, 6332, Note_off_c, 2, 55, 0
4, 6332, Note_off_c, 2, 43, 0
4, 6336, Note_on_c, 2, 55, 81
4, 6524, Note_off_c, 2, 55, 0
4, 6528, Note_on_c, 2, 59, 81
4, 6716, Note_off_c, 2, 59, 0
4, 6720, Note_on_c, 2, 55, 81
4, 6908, Note_off_c, 2, 55, 0
4, 6912, Note_on_c, 2, 50, 81
4, 7100, Note_off_c, 2, 50, 0
4, 7104, Note_on_c, 2, 55, 81
4, 7292, Note_off_c, 2, 55, 0
4, 7296, Note_on_c, 2, 47, 81
4, 7484, Note_off_c, 2, 47, 0
4, 7488, Note_on_c, 2, 50, 81
4, 7676, Note_off_c, 2, 50, 0
4, 7680, Note_on_c, 2, 50, 54
4, 7680, Note_on_c, 2, 43, 54
4, 7868, Note_off_c, 2, 50, 0
4, 7868, Note_off_c, 2, 43, 0
4, 7872, Note_on_c, 2, 50, 54
4, 7872, Note_on_c, 2, 43, 54
4, 8060, Note_off_c, 2, 50, 0
4, 8060, Note_off_c, 2, 43, 0
4, 8064, Note_on_c, 2, 50, 54
4, 8064, Note_on_c, 2, 43, 54
4, 8252, Note_off_c, 2, 50, 0
4, 8252, Note_off_c, 2, 43, 0
4, 8256, Note_on_c, 2, 50, 54
4, 8256, Note_on_c, 2, 43, 54
4, 8444, Note_off_c, 2, 50, 0
4, 8444, Note_off_c, 2, 43, 0
4, 8448, Note_on_c, 2, 50, 54
4, 8448, Note_on_c, 2, 43, 54
4, 8636, Note_off_c, 2, 50, 0
4, 8636, Note_off_c, 2, 43, 0
4, 8640, Note_on_c, 2, 50, 54
4, 8640, Note_on_c, 2, 43, 54
4, 8828, Note_off_c, 2, 50, 0
4, 8828, Note_off_c, 2, 43, 0
4, 8832, Note_on_c, 2, 50, 54
4, 8832, Note_on_c, 2, 43, 54
4, 9020, Note_off_c, 2, 50, 0
4, 9020, Note_off_c, 2, 43, 0
4, 9024, Note_on_c, 2, 50, 54
4, 9024, Note_on_c, 2, 43, 54
4, 9212, Note_off_c, 2, 50, 0
4, 9212, Note_off_c, 2, 43, 0
4, 9216, Note_on_c, 2, 50, 54
4, 9216, Note_on_c, 2, 42, 54
4, 9404, Note_off_c, 2, 50, 0
4, 9404, Note_off_c, 2, 42, 0
4, 9408, Note_on_c, 2, 50, 54
4, 9408, Note_on_c, 2, 42, 54
4, 9596, Note_off_c, 2, 50, 0
4, 9596, Note_off_c, 2, 42, 0
4, 9600, Note_on_c, 2, 50, 54
4, 9600, Note_on_c, 2, 42, 54
4, 9788, Note_off_c, 2, 50, 0
4, 9788, Note_off_c, 2, 42, 0
4, 9792, Note_on_c, 2, 50, 54
4, 9792, Note_on_c, 2, 42, 54
4, 9980, Note_off_c, 2, 50, 0
4, 9980, Note_off_c, 2, 42, 0
4, 9984, Note_on_c, 2, 50, 54
4, 10172, Note_off_c, 2, 50, 0
4, 10176, Note_on_c, 2, 50, 54
4, 10364, Note_off_c, 2, 50, 0
4, 10368, Note_on_c, 2, 50, 54
4, 10556, Note_off_c, 2, 50, 0
4, 10560, Note_on_c, 2, 48, 54
4, 10748, Note_off_c, 2, 48, 0
4, 10752, Note_on_c, 2, 47, 54
4, 10940, Note_off_c, 2, 47, 0
4, 11136, Note_on_c, 2, 59, 54
4, 11324, Note_off_c, 2, 59, 0
4, 11520, Note_on_c, 2, 57, 54
4, 11520, Note_on_c, 2, 60, 54
4, 11612, Note_off_c, 2, 60, 0
4, 11616, Note_on_c, 2, 59, 54
4, 11708, Note_off_c, 2, 57, 0
4, 11708, Note_off_c, 2, 59, 0
4, 11712, Note_on_c, 2, 57, 54
4, 11804, Note_off_c, 2, 57, 0
4, 11808, Note_on_c, 2, 59, 54
4, 11900, Note_off_c, 2, 59, 0
4, 11904, Note_on_c, 2, 60, 54
4, 11904, Note_on_c, 2, 50, 54
4, 11904, Note_on_c, 2, 60, 54
4, 11996, Note_off_c, 2, 60, 0
4, 12016, Note_on_c, 2, 62, 54
4, 12092, Note_off_c, 2, 50, 0
4, 12092, Note_off_c, 2, 60, 0
4, 12096, Note_on_c, 2, 64, 54
4, 12108, Note_off_c, 2, 62, 0
4, 12188, Note_off_c, 2, 64, 0
4, 12192, Note_on_c, 2, 66, 54
4, 12284, Note_off_c, 2, 66, 0
4, 12288, Note_on_c, 2, 59, 54
4, 12288, Note_on_c, 2, 55, 54
4, 12476, Note_off_c, 2, 55, 0
4, 12668, Note_off_c, 2, 59, 0
4, 12672, Note_on_c, 2, 59, 54
4, 12860, Note_off_c, 2, 59, 0
4, 13056, Note_on_c, 2, 57, 54
4, 13056, Note_on_c, 2, 60, 54
4, 13148, Note_off_c, 2, 60, 0
4, 13152, Note_on_c, 2, 59, 54
4, 13244, Note_off_c, 2, 57, 0
4, 13244, Note_off_c, 2, 59, 0
4, 13248, Note_on_c, 2, 57, 54
4, 13340, Note_off_c, 2, 57, 0
4, 13344, Note_on_c, 2, 60, 54
4, 13436, Note_off_c, 2, 60, 0
4, 13440, Note_on_c, 2, 50, 81
4, 13440, Note_on_c, 2, 62, 81
4, 13628, Note_off_c, 2, 62, 0
4, 13632, Note_on_c, 2, 60, 81
4, 13820, Note_off_c, 2, 50, 0
4, 13820, Note_off_c, 2, 60, 0
4, 13824, Note_on_c, 2, 62, 81
4, 13824, Note_on_c, 2, 59, 81
4, 14012, Note_off_c, 2, 62, 0
4, 14016, Note_on_c, 2, 67, 81
4, 14204, Note_off_c, 2, 59, 0
4, 14204, Note_off_c, 2, 67, 0
4, 14208, Note_on_c, 2, 59, 81
4, 14208, Note_on_c, 2, 55, 81
4, 14396, Note_off_c, 2, 59, 0
4, 14400, Note_on_c, 2, 64, 81
4, 14588, Note_off_c, 2, 55, 0
4, 14588, Note_off_c, 2, 64, 0
4, 14592, Note_on_c, 2, 57, 81
4, 14592, Note_on_c, 2, 64, 81
4, 14780, Note_off_c, 2, 57, 0
4, 14784, Note_on_c, 2, 48, 81
4, 14972, Note_off_c, 2, 64, 0
4, 14972, Note_off_c, 2, 48, 0
4, 14976, Note_on_c, 2, 50, 81
4, 14976, Note_on_c, 2, 57, 81
4, 15164, Note_off_c, 2, 50, 0
4, 15168, Note_on_c, 2, 54, 81
4, 15356, Note_off_c, 2, 57, 0
4, 15356, Note_off_c, 2, 54, 0
4, 15360, Note_on_c, 2, 55, 81
4, 15548, Note_off_c, 2, 55, 0
4, 15552, Note_on_c, 2, 59, 81
4, 15552, Note_on_c, 2, 47, 81
4, 15740, Note_off_c, 2, 59, 0
4, 15740, Note_off_c, 2, 47, 0
4, 15744, Note_on_c, 2, 57, 81
4, 15744, Note_on_c, 2, 45, 81
4, 15932, Note_off_c, 2, 57, 0
4, 15932, Note_off_c, 2, 45, 0
4, 15936, Note_on_c, 2, 60, 81
4, 15936, Note_on_c, 2, 48, 81
4, 16124, Note_off_c, 2, 60, 0
4, 16124, Note_off_c, 2, 48, 0
4, 16128, Note_on_c, 2, 62, 81
4, 16128, Note_on_c, 2, 59, 81
4, 16316, Note_off_c, 2, 62, 0
4, 16316, Note_off_c, 2, 59, 0
4, 16320, Note_on_c, 2, 62, 81
4, 16320, Note_on_c, 2, 59, 81
4, 16508, Note_off_c, 2, 62, 0
4, 16508, Note_off_c, 2, 59, 0
4, 16512, Note_on_c, 2, 67, 81
4, 16512, Note_on_c, 2, 59, 81
4, 16700, Note_off_c, 2, 67, 0
4, 16700, Note_off_c, 2, 59, 0
4, 16704, Note_on_c, 2, 67, 81
4, 16704, Note_on_c, 2, 59, 81
4, 16892, Note_off_c, 2, 67, 0
4, 16892, Note_off_c, 2, 59, 0
4, 16896, Note_on_c, 2, 64, 81
4, 16896, Note_on_c, 2, 60, 81
4, 17084, Note_off_c, 2, 64, 0
4, 17084, Note_off_c, 2, 60, 0
4, 17088, Note_on_c, 2, 64, 81
4, 17088, Note_on_c, 2, 60, 81
4, 17276, Note_off_c, 2, 64, 0
4, 17276, Note_off_c, 2, 60, 0
4, 17280, Note_on_c, 2, 64, 81
4, 17280, Note_on_c, 2, 60, 81
4, 17468, Note_off_c, 2, 64, 0
4, 17468, Note_off_c, 2, 60, 0
4, 17472, Note_on_c, 2, 64, 81
4, 17472, Note_on_c, 2, 60, 81
4, 17660, Note_off_c, 2, 64, 0
4, 17660, Note_off_c, 2, 60, 0
4, 17664, Note_on_c, 2, 64, 81
4, 17664, Note_on_c, 2, 60, 81
4, 17852, Note_off_c, 2, 64, 0
4, 17852, Note_off_c, 2, 60, 0
4, 17856, Note_on_c, 2, 64, 81
4, 17856, Note_on_c, 2, 60, 81
4, 18044, Note_off_c, 2, 64, 0
4, 18044, Note_off_c, 2, 60, 0
4, 18048, Note_on_c, 2, 69, 81
4, 18048, Note_on_c, 2, 61, 81
4, 18236, Note_off_c, 2, 69, 0
4, 18236, Note_off_c, 2, 61, 0
4, 18240, Note_on_c, 2, 69, 81
4, 18240, Note_on_c, 2, 61, 81
4, 18428, Note_off_c, 2, 69, 0
4, 18428, Note_off_c, 2, 61, 0
4, 18432, Note_on_c, 2, 69, 81
4, 18432, Note_on_c, 2, 62, 81
4, 18620, Note_off_c, 2, 69, 0
4, 18620, Note_off_c, 2, 62, 0
4, 21696, Note_on_c, 2, 50, 81
4, 21884, Note_off_c, 2, 50, 0
4, 21888, Note_on_c, 2, 52, 81
4, 22076, Note_off_c, 2, 52, 0
4, 22080, Note_on_c, 2, 54, 81
4, 22268, Note_off_c, 2, 54, 0
4, 22272, Note_on_c, 2, 55, 81
4, 22460, Note_off_c, 2, 55, 0
4, 22464, Note_on_c, 2, 57, 81
4, 22652, Note_off_c, 2, 57, 0
4, 22656, Note_on_c, 2, 59, 81
4, 22748, Note_off_c, 2, 59, 0
4, 22752, Note_on_c, 2, 62, 81
4, 22844, Note_off_c, 2, 62, 0
4, 22848, Note_on_c, 2, 61, 81
4, 22940, Note_off_c, 2, 61, 0
4, 22944, Note_on_c, 2, 64, 81
4, 23036, Note_off_c, 2, 64, 0
4, 23040, Note_on_c, 2, 62, 87
4, 23804, Note_off_c, 2, 62, 0
4, 23808, Note_on_c, 2, 63, 81
4, 23852, Note_off_c, 2, 63, 0
4, 23856, Note_on_c, 2, 64, 81
4, 23900, Note_off_c, 2, 64, 0
4, 23904, Note_on_c, 2, 63, 81
4, 23948, Note_off_c, 2, 63, 0
4, 23952, Note_on_c, 2, 64, 81
4, 23996, Note_off_c, 2, 64, 0
4, 24000, Note_on_c, 2, 63, 81
4, 24044, Note_off_c, 2, 63, 0
4, 24048, Note_on_c, 2, 64, 81
4, 24092, Note_off_c, 2, 64, 0
4, 24096, Note_on_c, 2, 63, 81
4, 24140, Note_off_c, 2, 63, 0
4, 24144, Note_on_c, 2, 64, 81
4, 24188, Note_off_c, 2, 64, 0
4, 24192, Note_on_c, 2, 63, 81
4, 24236, Note_off_c, 2, 63, 0
4, 24240, Note_on_c, 2, 64, 81
4, 24284, Note_off_c, 2, 64, 0
4, 24288, Note_on_c, 2, 63, 81
4, 24332, Note_off_c, 2, 63, 0
4, 24336, Note_on_c, 2, 64, 81
4, 24380, Note_off_c, 2, 64, 0
4, 24384, Note_on_c, 2, 61, 81
4, 24476, Note_off_c, 2, 61, 0
4, 24480, Note_on_c, 2, 63, 81
4, 24572, Note_off_c, 2, 63, 0
4, 24576, Note_on_c, 2, 64, 81
4, 24956, Note_off_c, 2, 64, 0
4, 29376, Note_on_c, 2, 60, 60
4, 29376, Note_on_c, 2, 64, 60
4, 29564, Note_off_c, 2, 60, 0
4, 29564, Note_off_c, 2, 64, 0
4, 29568, Note_on_c, 2, 59, 60
4, 29568, Note_on_c, 2, 63, 60
4, 29756, Note_off_c, 2, 59, 0
4, 29756, Note_off_c, 2, 63, 0
4, 29760, Note_on_c, 2, 60, 60
4, 29760, Note_on_c, 2, 64, 60
4, 29948, Note_off_c, 2, 60, 0
4, 29948, Note_off_c, 2, 64, 0
4, 29952, Note_on_c, 2, 59, 60
4, 29952, Note_on_c, 2, 63, 60
4, 30140, Note_off_c, 2, 59, 0
4, 30140, Note_off_c, 2, 63, 0
4, 30144, Note_on_c, 2, 60, 60
4, 30144, Note_on_c, 2, 64, 60
4, 30332, Note_off_c, 2, 60, 0
4, 30332, Note_off_c, 2, 64, 0
4, 30336, Note_on_c, 2, 59, 60
4, 30336, Note_on_c, 2, 63, 60
4, 30524, Note_off_c, 2, 59, 0
4, 30524, Note_off_c, 2, 63, 0
4, 30528, Note_on_c, 2, 60, 60
4, 30528, Note_on_c, 2, 64, 60
4, 30716, Note_off_c, 2, 60, 0
4, 30716, Note_off_c, 2, 64, 0
4, 30720, Note_on_c, 2, 60, 54
4, 30720, Note_on_c, 2, 52, 54
4, 30908, Note_off_c, 2, 60, 0
4, 30908, Note_off_c, 2, 52, 0
4, 30912, Note_on_c, 2, 60, 54
4, 30912, Note_on_c, 2, 52, 54
4, 31100, Note_off_c, 2, 60, 0
4, 31100, Note_off_c, 2, 52, 0
4, 31104, Note_on_c, 2, 61, 54
4, 31104, Note_on_c, 2, 52, 54
4, 31292, Note_off_c, 2, 61, 0
4, 31292, Note_off_c, 2, 52, 0
4, 31296, Note_on_c, 2, 61, 54
4, 31296, Note_on_c, 2, 52, 54
4, 31484, Note_off_c, 2, 61, 0
4, 31484, Note_off_c, 2, 52, 0
4, 31488, Note_on_c, 2, 62, 54
4, 31488, Note_on_c, 2, 50, 54
4, 31676, Note_off_c, 2, 62, 0
4, 31676, Note_off_c, 2, 50, 0
4, 31680, Note_on_c, 2, 62, 54
4, 31680, Note_on_c, 2, 50, 54
4, 31868, Note_off_c, 2, 62, 0
4, 31868, Note_off_c, 2, 50, 0
4, 31872, Note_on_c, 2, 49, 54
4, 32060, Note_off_c, 2, 49, 0
4, 32064, Note_on_c, 2, 49, 54
4, 32252, Note_off_c, 2, 49, 0
4, 32256, Note_on_c, 2, 57, 54
4, 32256, Note_on_c, 2, 48, 54
4, 33020, Note_off_c, 2, 57, 0
4, 33020, Note_off_c, 2, 48, 0
4, 33024, Note_on_c, 2, 55, 54
4, 33024, Note_on_c, 2, 47, 54
4, 33404, Note_off_c, 2, 55, 0
4, 33404, Note_off_c, 2, 47, 0
4, 33984, Note_on_c, 2, 59, 81
4, 34076, Note_off_c, 2, 59, 0
4, 34080, Note_on_c, 2, 57, 81
4, 34172, Note_off_c, 2, 57, 0
4, 34176, Note_on_c, 2, 55, 81
4, 34364, Note_off_c, 2, 55, 0
4, 34368, Note_on_c, 2, 64, 81
4, 34368, Note_on_c, 2, 52, 81
4, 34556, Note_off_c, 2, 64, 0
4, 34556, Note_off_c, 2, 52, 0
4, 34560, Note_on_c, 2, 60, 81
4, 34560, Note_on_c, 2, 48, 81
4, 34748, Note_off_c, 2, 60, 0
4, 34748, Note_off_c, 2, 48, 0
4, 34752, Note_on_c, 2, 57, 81
4, 34752, Note_on_c, 2, 45, 81
4, 34940, Note_off_c, 2, 57, 0
4, 34940, Note_off_c, 2, 45, 0
4, 34944, Note_on_c, 2, 62, 81
4, 34944, Note_on_c, 2, 50, 81
4, 35132, Note_off_c, 2, 62, 0
4, 35132, Note_off_c, 2, 50, 0
4, 35136, Note_on_c, 2, 50, 81
4, 35136, Note_on_c, 2, 38, 81
4, 35324, Note_off_c, 2, 50, 0
4, 35324, Note_off_c, 2, 38, 0
4, 35328, Note_on_c, 2, 55, 81
4, 35328, Note_on_c, 2, 43, 81
4, 35708, Note_off_c, 2, 55, 0
4, 35708, Note_off_c, 2, 43, 0
4, 35712, Note_on_c, 2, 67, 54
4, 35900, Note_off_c, 2, 67, 0
4, 35904, Note_on_c, 2, 66, 54
4, 36092, Note_off_c, 2, 66, 0
4, 36096, Note_on_c, 2, 64, 54
4, 36476, Note_off_c, 2, 64, 0
4, 36480, Note_on_c, 2, 62, 54
4, 36860, Note_off_c, 2, 62, 0
4, 36864, Note_on_c, 2, 60, 54
4, 37052, Note_off_c, 2, 60, 0
4, 37248, Note_on_c, 2, 48, 54
4, 37628, Note_off_c, 2, 48, 0
4, 37632, Note_on_c, 2, 50, 54
4, 38012, Note_off_c, 2, 50, 0
4, 38016, Note_on_c, 2, 50, 54
4, 38396, Note_off_c, 2, 50, 0
4, 38400, Note_on_c, 2, 55, 54
4, 38780, Note_off_c, 2, 55, 0
4, 38784, Note_on_c, 2, 55, 54
4, 38784, Note_on_c, 2, 43, 54
4, 38972, Note_off_c, 2, 55, 0
4, 38972, Note_off_c, 2, 43, 0
4, 38976, Note_on_c, 2, 54, 54
4, 38976, Note_on_c, 2, 42, 54
4, 39164, Note_off_c, 2, 54, 0
4, 39164, Note_off_c, 2, 42, 0
4, 39168, Note_on_c, 2, 52, 54
4, 39168, Note_on_c, 2, 40, 54
4, 39548, Note_off_c, 2, 52, 0
4, 39548, Note_off_c, 2, 40, 0
4, 39552, Note_on_c, 2, 50, 54
4, 39552, Note_on_c, 2, 38, 54
4, 39932, Note_off_c, 2, 50, 0
4, 39932, Note_off_c, 2, 38, 0
4, 39936, Note_on_c, 2, 48, 54
4, 39936, Note_on_c, 2, 36, 54
4, 40316, Note_off_c, 2, 48, 0
4, 40316, Note_off_c, 2, 36, 0
4, 40320, Note_on_c, 2, 52, 54
4, 40320, Note_on_c, 2, 48, 54
4, 40700, Note_off_c, 2, 52, 0
4, 40700, Note_off_c, 2, 48, 0
4, 40704, Note_on_c, 2, 50, 54
4, 41084, Note_off_c, 2, 50, 0
4, 41088, Note_on_c, 2, 50, 54
4, 41468, Note_off_c, 2, 50, 0
4, 41472, Note_on_c, 2, 55, 81
4, 41472, Note_on_c, 2, 43, 81
4, 41852, Note_off_c, 2, 55, 0
4, 41852, Note_off_c, 2, 43, 0
4, 41856, Note_on_c, 2, 59, 81
4, 41856, Note_on_c, 2, 47, 81
4, 42236, Note_off_c, 2, 59, 0
4, 42236, Note_off_c, 2, 47, 0
4, 42240, Note_on_c, 2, 62, 81
4, 42240, Note_on_c, 2, 50, 81
4, 42620, Note_off_c, 2, 62, 0
4, 42620, Note_off_c, 2, 50, 0
4, 42624, Note_on_c, 2, 50, 81
4, 42624, Note_on_c, 2, 38, 81
4, 43004, Note_off_c, 2, 50, 0
4, 43004, Note_off_c, 2, 38, 0
4, 43008, Note_on_c, 2, 55, 81
4, 43008, Note_on_c, 2, 43, 81
4, 43388, Note_off_c, 2, 55, 0
4, 43388, Note_off_c, 2, 43, 0
4, 43392, Note_on_c, 2, 59, 81
4, 43392, Note_on_c, 2, 47, 81
4, 43772, Note_off_c, 2, 59, 0
4, 43772, Note_off_c, 2, 47, 0
4, 43776, Note_on_c, 2, 62, 81
4, 43776, Note_on_c, 2, 50, 81
4, 44156, Note_off_c, 2, 62, 0
4, 44156, Note_off_c, 2, 50, 0
4, 44160, Note_on_c, 2, 60, 81
4, 44160, Note_on_c, 2, 54, 81
4, 44160, Note_on_c, 2, 50, 81
4, 44540, Note_off_c, 2, 60, 0
4, 44540, Note_off_c, 2, 54, 0
4, 44540, Note_off_c, 2, 50, 0
4, 44544, Note_on_c, 2, 59, 81
4, 44544, Note_on_c, 2, 55, 81
4, 44924, Note_off_c, 2, 59, 0
4, 44924, Note_off_c, 2, 55, 0
4, 44928, Note_on_c, 2, 57, 81
4, 44928, Note_on_c, 2, 50, 81
4, 45116, Note_off_c, 2, 57, 0
4, 45116, Note_off_c, 2, 50, 0
4, 45120, Note_on_c, 2, 57, 81
4, 45120, Note_on_c, 2, 50, 81
4, 45308, Note_off_c, 2, 57, 0
4, 45308, Note_off_c, 2, 50, 0
4, 45312, Note_on_c, 2, 59, 81
4, 45312, Note_on_c, 2, 55, 81
4, 45692, Note_off_c, 2, 59, 0
4, 45692, Note_off_c, 2, 55, 0
4, 45696, Note_on_c, 2, 57, 81
4, 45696, Note_on_c, 2, 50, 81
4, 45884, Note_off_c, 2, 57, 0
4, 45884, Note_off_c, 2, 50, 0
4, 45888, Note_on_c, 2, 57, 81
4, 45888, Note_on_c, 2, 50, 81
4, 46076, Note_off_c, 2, 57, 0
4, 46076, Note_off_c, 2, 50, 0
4, 46080, Note_on_c, 2, 55, 81
4, 46080, Note_on_c, 2, 43, 81
4, 46460, Note_off_c, 2, 55, 0
4, 46460, Note_off_c, 2, 43, 0
4, 46464, Note_on_c, 2, 43, 81
4, 46464, Note_on_c, 2, 55, 81
4, 46748, Note_off_c, 2, 43, 0
4, 46748, Note_off_c, 2, 55, 0
4, 46752, Note_on_c, 2, 55, 81
4, 46752, Note_on_c, 2, 43, 81
4, 46844, Note_off_c, 2, 55, 0
4, 46844, Note_off_c, 2, 43, 0
4, 46848, Note_on_c, 2, 55, 81
4, 46848, Note_on_c, 2, 43, 81
4, 47228, Note_off_c, 2, 55, 0
4, 47228, Note_off_c, 2, 43, 0
4, 47616, Note_on_c, 2, 55, 54
4, 47804, Note_off_c, 2, 55, 0
4, 47808, Note_on_c, 2, 55, 54
4, 47996, Note_off_c, 2, 55, 0
4, 48000, Note_on_c, 2, 55, 54
4, 48188, Note_off_c, 2, 55, 0
4, 48192, Note_on_c, 2, 55, 54
4, 48380, Note_off_c, 2, 55, 0
4, 48384, Note_on_c, 2, 55, 54
4, 48572, Note_off_c, 2, 55, 0
4, 48576, Note_on_c, 2, 55, 54
4, 48764, Note_off_c, 2, 55, 0
4, 48768, Note_on_c, 2, 55, 54
4, 48956, Note_off_c, 2, 55, 0
4, 48960, Note_on_c, 2, 55, 54
4, 49148, Note_off_c, 2, 55, 0
4, 49152, Note_on_c, 2, 54, 54
4, 49340, Note_off_c, 2, 54, 0
4, 49344, Note_on_c, 2, 54, 54
4, 49532, Note_off_c, 2, 54, 0
4, 49536, Note_on_c, 2, 54, 54
4, 49724, Note_off_c, 2, 54, 0
4, 49728, Note_on_c, 2, 54, 54
4, 49916, Note_off_c, 2, 54, 0
4, 49920, Note_on_c, 2, 54, 54
4, 50108, Note_off_c, 2, 54, 0
4, 50112, Note_on_c, 2, 54, 54
4, 50300, Note_off_c, 2, 54, 0
4, 50304, Note_on_c, 2, 54, 54
4, 50492, Note_off_c, 2, 54, 0
4, 50496, Note_on_c, 2, 54, 54
4, 50684, Note_off_c, 2, 54, 0
4, 50688, Note_on_c, 2, 55, 54
4, 50876, Note_off_c, 2, 55, 0
4, 50880, Note_on_c, 2, 55, 54
4, 51068, Note_off_c, 2, 55, 0
4, 51072, Note_on_c, 2, 59, 54
4, 51260, Note_off_c, 2, 59, 0
4, 51264, Note_on_c, 2, 59, 54
4, 51452, Note_off_c, 2, 59, 0
4, 51456, Note_on_c, 2, 57, 54
4, 51644, Note_off_c, 2, 57, 0
4, 51648, Note_on_c, 2, 57, 54
4, 51836, Note_off_c, 2, 57, 0
4, 51840, Note_on_c, 2, 50, 54
4, 52028, Note_off_c, 2, 50, 0
4, 52032, Note_on_c, 2, 50, 54
4, 52220, Note_off_c, 2, 50, 0
4, 52224, Note_on_c, 2, 55, 54
4, 52412, Note_off_c, 2, 55, 0
4, 52416, Note_on_c, 2, 55, 54
4, 52604, Note_off_c, 2, 55, 0
4, 52608, Note_on_c, 2, 59, 54
4, 52796, Note_off_c, 2, 59, 0
4, 52800, Note_on_c, 2, 55, 54
4, 52988, Note_off_c, 2, 55, 0
4, 52992, Note_on_c, 2, 50, 54
4, 53180, Note_off_c, 2, 50, 0
4, 53184, Note_on_c, 2, 55, 54
4, 53372, Note_off_c, 2, 55, 0
4, 53376, Note_on_c, 2, 47, 54
4, 53564, Note_off_c, 2, 47, 0
4, 53568, Note_on_c, 2, 50, 54
4, 53756, Note_off_c, 2, 50, 0
4, 53760, Note_on_c, 2, 55, 54
4, 53760, Note_on_c, 2, 43, 54
4, 53948, Note_off_c, 2, 55, 0
4, 53948, Note_off_c, 2, 43, 0
4, 53952, Note_on_c, 2, 50, 54
4, 53952, Note_on_c, 2, 43, 54
4, 54140, Note_off_c, 2, 50, 0
4, 54140, Note_off_c, 2, 43, 0
4, 54144, Note_on_c, 2, 50, 54
4, 54144, Note_on_c, 2, 43, 54
4, 54332, Note_off_c, 2, 50, 0
4, 54332, Note_off_c, 2, 43, 0
4, 54336, Note_on_c, 2, 50, 54
4, 54336, Note_on_c, 2, 43, 54
4, 54524, Note_off_c, 2, 50, 0
4, 54524, Note_off_c, 2, 43, 0
4, 54528, Note_on_c, 2, 50, 54
4, 54528, Note_on_c, 2, 43, 54
4, 54716, Note_off_c, 2, 50, 0
4, 54716, Note_off_c, 2, 43, 0
4, 54720, Note_on_c, 2, 50, 54
4, 54720, Note_on_c, 2, 43, 54
4, 54908, Note_off_c, 2, 50, 0
4, 54908, Note_off_c, 2, 43, 0
4, 54912, Note_on_c, 2, 50, 54
4, 54912, Note_on_c, 2, 43, 54
4, 55100, Note_off_c, 2, 50, 0
4, 55100, Note_off_c, 2, 43, 0
4, 55104, Note_on_c, 2, 50, 54
4, 55104, Note_on_c, 2, 43, 54
4, 55292, Note_off_c, 2, 50, 0
4, 55292, Note_off_c, 2, 43, 0
4, 55296, Note_on_c, 2, 50, 54
4, 55296, Note_on_c, 2, 43, 54
4, 55484, Note_off_c, 2, 50, 0
4, 55484, Note_off_c, 2, 43, 0
4, 55488, Note_on_c, 2, 50, 54
4, 55488, Note_on_c, 2, 43, 54
4, 55676, Note_off_c, 2, 50, 0
4, 55676, Note_off_c, 2, 43, 0
4, 55680, Note_on_c, 2, 50, 54
4, 55680, Note_on_c, 2, 43, 54
4, 55868, Note_off_c, 2, 50, 0
4, 55868, Note_off_c, 2, 43, 0
4, 55872, Note_on_c, 2, 50, 54
4, 55872, Note_on_c, 2, 43, 54
4, 56060, Note_off_c, 2, 50, 0
4, 56060, Note_off_c, 2, 43, 0
4, 56064, Note_on_c, 2, 50, 54
4, 56064, Note_on_c, 2, 43, 54
4, 56252, Note_off_c, 2, 50, 0
4, 56252, Note_off_c, 2, 43, 0
4, 56256, Note_on_c, 2, 50, 54
4, 56256, Note_on_c, 2, 43, 54
4, 56444, Note_off_c, 2, 50, 0
4, 56444, Note_off_c, 2, 43, 0
4, 56448, Note_on_c, 2, 48, 54
4, 56636, Note_off_c, 2, 48, 0
4, 56640, Note_on_c, 2, 48, 54
4, 56828, Note_off_c, 2, 48, 0
4, 56832, Note_on_c, 2, 55, 54
4, 56832, Note_on_c, 2, 47, 54
4, 56832, Note_on_c, 2, 62, 54
4, 57020, Note_off_c, 2, 55, 0
4, 57020, Note_off_c, 2, 47, 0
4, 57212, Note_off_c, 2, 62, 0
4, 57216, Note_on_c, 2, 59, 54
4, 57404, Note_off_c, 2, 59, 0
4, 57600, Note_on_c, 2, 60, 54
4, 57600, Note_on_c, 2, 57, 54
4, 57692, Note_off_c, 2, 60, 0
4, 57696, Note_on_c, 2, 59, 54
4, 57788, Note_off_c, 2, 57, 0
4, 57788, Note_off_c, 2, 59, 0
4, 57792, Note_on_c, 2, 57, 54
4, 57884, Note_off_c, 2, 57, 0
4, 57888, Note_on_c, 2, 59, 54
4, 57980, Note_off_c, 2, 59, 0
4, 57984, Note_on_c, 2, 60, 54
4, 57984, Note_on_c, 2, 50, 54
4, 58076, Note_off_c, 2, 60, 0
4, 58080, Note_on_c, 2, 62, 54
4, 58172, Note_off_c, 2, 50, 0
4, 58172, Note_off_c, 2, 62, 0
4, 58176, Note_on_c, 2, 64, 54
4, 58268, Note_off_c, 2, 64, 0
4, 58272, Note_on_c, 2, 66, 54
4, 58364, Note_off_c, 2, 66, 0
4, 58368, Note_on_c, 2, 59, 54
4, 58368, Note_on_c, 2, 55, 54
4, 58556, Note_off_c, 2, 59, 0
4, 58556, Note_off_c, 2, 55, 0
4, 58752, Note_on_c, 2, 59, 54
4, 58752, Note_on_c, 2, 62, 54
4, 58940, Note_off_c, 2, 59, 0
4, 58940, Note_off_c, 2, 62, 0
4, 59136, Note_on_c, 2, 57, 54
4, 59136, Note_on_c, 2, 60, 54
4, 59228, Note_off_c, 2, 60, 0
4, 59232, Note_on_c, 2, 59, 54
4, 59324, Note_off_c, 2, 57, 0
4, 59324, Note_off_c, 2, 59, 0
4, 59328, Note_on_c, 2, 57, 54
4, 59420, Note_off_c, 2, 57, 0
4, 59424, Note_on_c, 2, 59, 54
4, 59516, Note_off_c, 2, 59, 0
4, 59520, Note_on_c, 2, 50, 54
4, 59520, Note_on_c, 2, 60, 54
4, 59612, Note_off_c, 2, 60, 0
4, 59616, Note_on_c, 2, 62, 54
4, 59708, Note_off_c, 2, 50, 0
4, 59708, Note_off_c, 2, 62, 0
4, 59712, Note_on_c, 2, 64, 54
4, 59804, Note_off_c, 2, 64, 0
4, 59808, Note_on_c, 2, 66, 54
4, 59900, Note_off_c, 2, 66, 0
4, 59904, Note_on_c, 2, 55, 54
4, 60092, Note_off_c, 2, 55, 0
4, 60288, Note_on_c, 2, 50, 54
4, 60476, Note_off_c, 2, 50, 0
4, 60672, Note_on_c, 2, 55, 54
4, 60860, Note_off_c, 2, 55, 0
4, 61056, Note_on_c, 2, 50, 54
4, 61244, Note_off_c, 2, 50, 0
4, 61440, Note_on_c, 2, 52, 54
4, 61628, Note_off_c, 2, 52, 0
4, 61632, Note_on_c, 2, 52, 54
4, 61820, Note_off_c, 2, 52, 0
4, 61824, Note_on_c, 2, 50, 54
4, 62012, Note_off_c, 2, 50, 0
4, 62016, Note_on_c, 2, 48, 54
4, 62204, Note_off_c, 2, 48, 0
4, 62208, Note_on_c, 2, 47, 54
4, 62588, Note_off_c, 2, 47, 0
4, 62976, Note_on_c, 2, 57, 54
4, 62976, Note_on_c, 2, 45, 54
4, 63356, Note_off_c, 2, 45, 0
4, 63360, Note_on_c, 2, 48, 54
4, 63740, Note_off_c, 2, 57, 0
4, 63740, Note_off_c, 2, 48, 0
4, 63744, Note_on_c, 2, 60, 54
4, 63744, Note_on_c, 2, 50, 54
4, 64124, Note_off_c, 2, 50, 0
4, 64128, Note_on_c, 2, 54, 54
4, 64508, Note_off_c, 2, 60, 0
4, 64508, Note_off_c, 2, 54, 0
4, 64512, Note_on_c, 2, 55, 54
4, 64892, Note_off_c, 2, 55, 0
4, 66240, Note_on_c, 2, 59, 54
4, 66240, Note_on_c, 2, 47, 54
4, 66428, Note_off_c, 2, 59, 0
4, 66428, Note_off_c, 2, 47, 0
4, 66432, Note_on_c, 2, 55, 54
4, 66432, Note_on_c, 2, 47, 54
4, 66620, Note_off_c, 2, 55, 0
4, 66620, Note_off_c, 2, 47, 0
4, 66624, Note_on_c, 2, 50, 54
4, 66624, Note_on_c, 2, 47, 54
4, 66812, Note_off_c, 2, 50, 0
4, 66812, Note_off_c, 2, 47, 0
4, 66816, Note_on_c, 2, 48, 54
4, 67004, Note_off_c, 2, 48, 0
4, 67008, Note_on_c, 2, 57, 54
4, 67008, Note_on_c, 2, 48, 54
4, 67196, Note_off_c, 2, 57, 0
4, 67196, Note_off_c, 2, 48, 0
4, 67200, Note_on_c, 2, 62, 54
4, 67200, Note_on_c, 2, 50, 54
4, 67388, Note_off_c, 2, 62, 0
4, 67388, Note_off_c, 2, 50, 0
4, 67392, Note_on_c, 2, 62, 54
4, 67392, Note_on_c, 2, 50, 54
4, 67580, Note_off_c, 2, 62, 0
4, 67580, Note_off_c, 2, 50, 0
4, 67584, Note_on_c, 2, 55, 87
4, 67584, Note_on_c, 2, 43, 87
4, 67964, Note_off_c, 2, 55, 0
4, 67964, Note_off_c, 2, 43, 0
4, 67968, Note_on_c, 2, 59, 81
4, 67968, Note_on_c, 2, 47, 81
4, 68348, Note_off_c, 2, 59, 0
4, 68348, Note_off_c, 2, 47, 0
4, 68352, Note_on_c, 2, 62, 81
4, 68352, Note_on_c, 2, 50, 81
4, 68732, Note_off_c, 2, 62, 0
4, 68732, Note_off_c, 2, 50, 0
4, 68736, Note_on_c, 2, 60, 81
4, 68736, Note_on_c, 2, 54, 81
4, 68736, Note_on_c, 2, 50, 81
4, 69116, Note_off_c, 2, 60, 0
4, 69116, Note_off_c, 2, 54, 0
4, 69116, Note_off_c, 2, 50, 0
4, 69120, Note_on_c, 2, 59, 81
4, 69120, Note_on_c, 2, 55, 81
4, 69500, Note_off_c, 2, 59, 0
4, 69500, Note_off_c, 2, 55, 0
4, 69504, Note_on_c, 2, 60, 81
4, 69504, Note_on_c, 2, 54, 81
4, 69504, Note_on_c, 2, 50, 81
4, 69692, Note_off_c, 2, 60, 0
4, 69692, Note_off_c, 2, 54, 0
4, 69692, Note_off_c, 2, 50, 0
4, 69696, Note_on_c, 2, 60, 81
4, 69696, Note_on_c, 2, 54, 81
4, 69696, Note_on_c, 2, 50, 81
4, 69884, Note_off_c, 2, 60, 0
4, 69884, Note_off_c, 2, 54, 0
4, 69884, Note_off_c, 2, 50, 0
4, 69888, Note_on_c, 2, 59, 81
4, 69888, Note_on_c, 2, 55, 81
4, 70076, Note_off_c, 2, 59, 0
4, 70076, Note_off_c, 2, 55, 0
4, 70080, Note_on_c, 2, 59, 81
4, 70268, Note_off_c, 2, 59, 0
4, 70272, Note_on_c, 2, 66, 81
4, 70272, Note_on_c, 2, 57, 81
4, 70460, Note_off_c, 2, 66, 0
4, 70460, Note_off_c, 2, 57, 0
4, 70464, Note_on_c, 2, 59, 81
4, 70464, Note_on_c, 2, 63, 81
4, 70652, Note_off_c, 2, 59, 0
4, 70652, Note_off_c, 2, 63, 0
4, 70656, Note_on_c, 2, 64, 81
4, 70656, Note_on_c, 2, 59, 81
4, 70656, Note_on_c, 2, 52, 81
4, 71036, Note_off_c, 2, 64, 0
4, 71036, Note_off_c, 2, 59, 0
4, 71036, Note_off_c, 2, 52, 0
4, 72384, Note_on_c, 2, 54, 60
4, 72572, Note_off_c, 2, 54, 0
4, 72576, Note_on_c, 2, 54, 60
4, 72764, Note_off_c, 2, 54, 0
4, 72768, Note_on_c, 2, 54, 60
4, 72956, Note_off_c, 2, 54, 0
4, 72960, Note_on_c, 2, 54, 60
4, 73148, Note_off_c, 2, 54, 0
4, 73152, Note_on_c, 2, 54, 60
4, 73340, Note_off_c, 2, 54, 0
4, 73344, Note_on_c, 2, 54, 60
4, 73344, Note_on_c, 2, 57, 60
4, 73532, Note_off_c, 2, 54, 0
4, 73532, Note_off_c, 2, 57, 0
4, 73536, Note_on_c, 2, 54, 60
4, 73536, Note_on_c, 2, 57, 60
4, 73724, Note_off_c, 2, 54, 0
4, 73724, Note_off_c, 2, 57, 0
4, 73728, Note_on_c, 2, 55, 60
4, 74108, Note_off_c, 2, 55, 0
4, 75648, Note_on_c, 2, 51, 60
4, 76028, Note_off_c, 2, 51, 0
4, 76032, Note_on_c, 2, 52, 60
4, 76412, Note_off_c, 2, 52, 0
4, 76416, Note_on_c, 2, 50, 60
4, 76796, Note_off_c, 2, 50, 0
4, 76800, Note_on_c, 2, 49, 60
4, 76988, Note_off_c, 2, 49, 0
4, 76992, Note_on_c, 2, 49, 60
4, 77180, Note_off_c, 2, 49, 0
4, 77184, Note_on_c, 2, 49, 60
4, 77372, Note_off_c, 2, 49, 0
4, 77376, Note_on_c, 2, 49, 60
4, 77564, Note_off_c, 2, 49, 0
4, 77568, Note_on_c, 2, 50, 60
4, 77756, Note_off_c, 2, 50, 0
4, 77760, Note_on_c, 2, 50, 60
4, 77948, Note_off_c, 2, 50, 0
4, 77952, Note_on_c, 2, 57, 60
4, 77952, Note_on_c, 2, 54, 60
4, 78140, Note_off_c, 2, 57, 0
4, 78140, Note_off_c, 2, 54, 0
4, 78144, Note_on_c, 2, 57, 60
4, 78144, Note_on_c, 2, 54, 60
4, 78332, Note_off_c, 2, 57, 0
4, 78332, Note_off_c, 2, 54, 0
4, 78336, Note_on_c, 2, 55, 60
4, 78524, Note_off_c, 2, 55, 0
4, 78528, Note_on_c, 2, 55, 60
4, 78716, Note_off_c, 2, 55, 0
4, 78720, Note_on_c, 2, 55, 60
4, 78908, Note_off_c, 2, 55, 0
4, 78912, Note_on_c, 2, 55, 60
4, 79100, Note_off_c, 2, 55, 0
4, 79104, Note_on_c, 2, 55, 60
4, 79292, Note_off_c, 2, 55, 0
4, 79296, Note_on_c, 2, 55, 60
4, 79484, Note_off_c, 2, 55, 0
4, 79488, Note_on_c, 2, 55, 60
4, 79676, Note_off_c, 2, 55, 0
4, 79680, Note_on_c, 2, 55, 60
4, 79868, Note_off_c, 2, 55, 0
4, 79872, Note_on_c, 2, 54, 60
4, 80252, Note_off_c, 2, 54, 0
4, 80448, Note_on_c, 2, 54, 60
4, 80636, Note_off_c, 2, 54, 0
4, 80640, Note_on_c, 2, 49, 60
4, 81020, Note_off_c, 2, 49, 0
4, 81216, Note_on_c, 2, 55, 60
4, 81216, Note_on_c, 2, 49, 60
4, 81404, Note_off_c, 2, 55, 0
4, 81404, Note_off_c, 2, 49, 0
4, 81408, Note_on_c, 2, 54, 60
4, 81408, Note_on_c, 2, 50, 60
4, 81788, Note_off_c, 2, 54, 0
4, 81788, Note_off_c, 2, 50, 0
4, 81984, Note_on_c, 2, 62, 60
4, 81984, Note_on_c, 2, 66, 60
4, 82172, Note_off_c, 2, 62, 0
4, 82172, Note_off_c, 2, 66, 0
4, 82176, Note_on_c, 2, 61, 60
4, 82176, Note_on_c, 2, 64, 60
4, 82556, Note_off_c, 2, 61, 0
4, 82556, Note_off_c, 2, 64, 0
4, 82752, Note_on_c, 2, 64, 60
4, 82752, Note_on_c, 2, 61, 60
4, 82940, Note_off_c, 2, 64, 0
4, 82944, Note_on_c, 2, 66, 60
4, 82944, Note_on_c, 2, 62, 60
4, 82948, Note_off_c, 2, 61, 0
4, 83324, Note_off_c, 2, 66, 0
4, 83324, Note_off_c, 2, 62, 0
4, 83520, Note_on_c, 2, 59, 60
4, 83708, Note_off_c, 2, 59, 0
4, 83712, Note_on_c, 2, 57, 60
4, 83712, Note_on_c, 2, 62, 60
4, 84092, Note_off_c, 2, 57, 0
4, 84092, Note_off_c, 2, 62, 0
4, 84288, Note_on_c, 2, 60, 60
4, 84288, Note_on_c, 2, 54, 60
4, 84476, Note_off_c, 2, 60, 0
4, 84476, Note_off_c, 2, 54, 0
4, 84480, Note_on_c, 2, 59, 60
4, 84480, Note_on_c, 2, 55, 60
4, 84860, Note_off_c, 2, 59, 0
4, 84860, Note_off_c, 2, 55, 0
4, 84864, Note_on_c, 2, 60, 60
4, 84864, Note_on_c, 2, 54, 60
4, 85244, Note_off_c, 2, 60, 0
4, 85244, Note_off_c, 2, 54, 0
4, 85248, Note_on_c, 2, 59, 60
4, 85248, Note_on_c, 2, 55, 60
4, 85628, Note_off_c, 2, 59, 0
4, 85628, Note_off_c, 2, 55, 0
4, 86400, Note_on_c, 2, 55, 60
4, 86588, Note_off_c, 2, 55, 0
4, 86784, Note_on_c, 2, 55, 60
4, 86972, Note_off_c, 2, 55, 0
4, 87168, Note_on_c, 2, 56, 60
4, 87356, Note_off_c, 2, 56, 0
4, 87552, Note_on_c, 2, 57, 60
4, 87740, Note_off_c, 2, 57, 0
4, 88704, Note_on_c, 2, 57, 60
4, 88796, Note_off_c, 2, 57, 0
4, 88800, Note_on_c, 2, 60, 60
4, 88892, Note_off_c, 2, 60, 0
4, 88896, Note_on_c, 2, 59, 60
4, 88988, Note_off_c, 2, 59, 0
4, 88992, Note_on_c, 2, 62, 60
4, 89084, Note_off_c, 2, 62, 0
4, 89088, Note_on_c, 2, 61, 60
4, 89276, Note_off_c, 2, 61, 0
4, 89472, Note_on_c, 2, 69, 81
4, 89472, Note_on_c, 2, 61, 81
4, 89472, Note_on_c, 2, 57, 81
4, 89660, Note_off_c, 2, 69, 0
4, 89660, Note_off_c, 2, 61, 0
4, 89660, Note_off_c, 2, 57, 0
4, 89664, Note_on_c, 2, 68, 81
4, 89664, Note_on_c, 2, 62, 81
4, 89664, Note_on_c, 2, 57, 81
4, 89852, Note_off_c, 2, 68, 0
4, 89852, Note_off_c, 2, 62, 0
4, 89852, Note_off_c, 2, 57, 0
4, 89856, Note_on_c, 2, 67, 81
4, 89856, Note_on_c, 2, 64, 81
4, 89856, Note_on_c, 2, 57, 81
4, 90044, Note_off_c, 2, 67, 0
4, 90044, Note_off_c, 2, 64, 0
4, 90044, Note_off_c, 2, 57, 0
4, 90048, Note_on_c, 2, 66, 81
4, 90048, Note_on_c, 2, 62, 81
4, 90048, Note_on_c, 2, 57, 81
4, 90236, Note_off_c, 2, 66, 0
4, 90236, Note_off_c, 2, 62, 0
4, 90236, Note_off_c, 2, 57, 0
4, 90240, Note_on_c, 2, 67, 81
4, 90240, Note_on_c, 2, 61, 81
4, 90240, Note_on_c, 2, 57, 81
4, 90428, Note_off_c, 2, 67, 0
4, 90428, Note_off_c, 2, 61, 0
4, 90428, Note_off_c, 2, 57, 0
4, 90432, Note_on_c, 2, 66, 81
4, 90432, Note_on_c, 2, 62, 81
4, 90432, Note_on_c, 2, 57, 81
4, 90620, Note_off_c, 2, 66, 0
4, 90620, Note_off_c, 2, 62, 0
4, 90620, Note_off_c, 2, 57, 0
4, 90624, Note_on_c, 2, 64, 81
4, 90624, Note_on_c, 2, 61, 81
4, 90624, Note_on_c, 2, 57, 81
4, 90812, Note_off_c, 2, 64, 0
4, 90812, Note_off_c, 2, 61, 0
4, 90812, Note_off_c, 2, 57, 0
4, 90816, Note_on_c, 2, 45, 81
4, 91004, Note_off_c, 2, 45, 0
4, 91008, Note_on_c, 2, 47, 81
4, 91196, Note_off_c, 2, 47, 0
4, 91200, Note_on_c, 2, 49, 81
4, 91388, Note_off_c, 2, 49, 0
4, 91392, Note_on_c, 2, 50, 81
4, 91580, Note_off_c, 2, 50, 0
4, 91584, Note_on_c, 2, 52, 81
4, 91772, Note_off_c, 2, 52, 0
4, 91776, Note_on_c, 2, 54, 81
4, 91868, Note_off_c, 2, 54, 0
4, 91872, Note_on_c, 2, 57, 81
4, 91964, Note_off_c, 2, 57, 0
4, 91968, Note_on_c, 2, 56, 81
4, 92060, Note_off_c, 2, 56, 0
4, 92064, Note_on_c, 2, 59, 81
4, 92156, Note_off_c, 2, 59, 0
4, 92160, Note_on_c, 2, 57, 81
4, 92540, Note_off_c, 2, 57, 0
4, 93696, Note_on_c, 2, 57, 54
4, 93884, Note_off_c, 2, 57, 0
4, 93888, Note_on_c, 2, 57, 54
4, 94076, Note_off_c, 2, 57, 0
4, 94080, Note_on_c, 2, 57, 54
4, 94268, Note_off_c, 2, 57, 0
4, 94272, Note_on_c, 2, 57, 54
4, 94460, Note_off_c, 2, 57, 0
4, 94464, Note_on_c, 2, 55, 54
4, 94652, Note_off_c, 2, 55, 0
4, 94656, Note_on_c, 2, 55, 54
4, 94844, Note_off_c, 2, 55, 0
4, 94848, Note_on_c, 2, 55, 54
4, 95036, Note_off_c, 2, 55, 0
4, 95040, Note_on_c, 2, 55, 54
4, 95228, Note_off_c, 2, 55, 0
4, 95232, Note_on_c, 2, 54, 54
4, 95612, Note_off_c, 2, 54, 0
4, 96768, Note_on_c, 2, 54, 54
4, 96956, Note_off_c, 2, 54, 0
4, 96960, Note_on_c, 2, 54, 54
4, 97148, Note_off_c, 2, 54, 0
4, 97152, Note_on_c, 2, 54, 54
4, 97340, Note_off_c, 2, 54, 0
4, 97344, Note_on_c, 2, 54, 54
4, 97532, Note_off_c, 2, 54, 0
4, 97536, Note_on_c, 2, 54, 54
4, 97724, Note_off_c, 2, 54, 0
4, 97728, Note_on_c, 2, 54, 54
4, 97916, Note_off_c, 2, 54, 0
4, 97920, Note_on_c, 2, 54, 54
4, 98108, Note_off_c, 2, 54, 0
4, 98112, Note_on_c, 2, 54, 54
4, 98300, Note_off_c, 2, 54, 0
4, 98304, Note_on_c, 2, 49, 54
4, 98684, Note_off_c, 2, 49, 0
4, 99840, Note_on_c, 2, 57, 54
4, 99840, Note_on_c, 2, 45, 54
4, 101372, Note_off_c, 2, 57, 0
4, 101372, Note_off_c, 2, 45, 0
4, 101376, Note_on_c, 2, 58, 54
4, 101376, Note_on_c, 2, 46, 54
4, 101564, Note_off_c, 2, 58, 0
4, 101564, Note_off_c, 2, 46, 0
4, 101568, Note_on_c, 2, 58, 54
4, 101568, Note_on_c, 2, 46, 54
4, 101756, Note_off_c, 2, 58, 0
4, 101756, Note_off_c, 2, 46, 0
4, 101760, Note_on_c, 2, 58, 54
4, 101760, Note_on_c, 2, 46, 54
4, 101948, Note_off_c, 2, 58, 0
4, 101948, Note_off_c, 2, 46, 0
4, 101952, Note_on_c, 2, 58, 54
4, 101952, Note_on_c, 2, 46, 54
4, 102140, Note_off_c, 2, 58, 0
4, 102140, Note_off_c, 2, 46, 0
4, 102144, Note_on_c, 2, 59, 54
4, 102144, Note_on_c, 2, 47, 54
4, 102332, Note_off_c, 2, 59, 0
4, 102332, Note_off_c, 2, 47, 0
4, 102336, Note_on_c, 2, 59, 54
4, 102336, Note_on_c, 2, 47, 54
4, 102524, Note_off_c, 2, 59, 0
4, 102524, Note_off_c, 2, 47, 0
4, 102528, Note_on_c, 2, 59, 54
4, 102528, Note_on_c, 2, 47, 54
4, 102716, Note_off_c, 2, 59, 0
4, 102716, Note_off_c, 2, 47, 0
4, 102720, Note_on_c, 2, 59, 54
4, 102720, Note_on_c, 2, 47, 54
4, 102908, Note_off_c, 2, 59, 0
4, 102908, Note_off_c, 2, 47, 0
4, 102912, Note_on_c, 2, 58, 54
4, 102912, Note_on_c, 2, 46, 54
4, 103100, Note_off_c, 2, 58, 0
4, 103100, Note_off_c, 2, 46, 0
4, 103104, Note_on_c, 2, 58, 54
4, 103104, Note_on_c, 2, 46, 54
4, 103292, Note_off_c, 2, 58, 0
4, 103292, Note_off_c, 2, 46, 0
4, 103296, Note_on_c, 2, 58, 54
4, 103296, Note_on_c, 2, 46, 54
4, 103484, Note_off_c, 2, 58, 0
4, 103484, Note_off_c, 2, 46, 0
4, 103488, Note_on_c, 2, 58, 54
4, 103488, Note_on_c, 2, 46, 54
4, 103676, Note_off_c, 2, 58, 0
4, 103676, Note_off_c, 2, 46, 0
4, 103680, Note_on_c, 2, 57, 54
4, 103680, Note_on_c, 2, 45, 54
4, 103868, Note_off_c, 2, 57, 0
4, 103868, Note_off_c, 2, 45, 0
4, 103872, Note_on_c, 2, 57, 54
4, 103872, Note_on_c, 2, 45, 54
4, 104060, Note_off_c, 2, 57, 0
4, 104060, Note_off_c, 2, 45, 0
4, 104064, Note_on_c, 2, 57, 54
4, 104064, Note_on_c, 2, 45, 54
4, 104252, Note_off_c, 2, 57, 0
4, 104252, Note_off_c, 2, 45, 0
4, 104256, Note_on_c, 2, 57, 54
4, 104256, Note_on_c, 2, 45, 54
4, 104444, Note_off_c, 2, 57, 0
4, 104444, Note_off_c, 2, 45, 0
4, 104448, Note_on_c, 2, 55, 54
4, 104448, Note_on_c, 2, 43, 54
4, 104636, Note_off_c, 2, 55, 0
4, 104636, Note_off_c, 2, 43, 0
4, 104640, Note_on_c, 2, 55, 54
4, 104640, Note_on_c, 2, 43, 54
4, 104828, Note_off_c, 2, 55, 0
4, 104828, Note_off_c, 2, 43, 0
4, 104832, Note_on_c, 2, 55, 54
4, 104832, Note_on_c, 2, 43, 54
4, 105020, Note_off_c, 2, 55, 0
4, 105020, Note_off_c, 2, 43, 0
4, 105024, Note_on_c, 2, 55, 54
4, 105024, Note_on_c, 2, 43, 54
4, 105212, Note_off_c, 2, 55, 0
4, 105212, Note_off_c, 2, 43, 0
4, 105216, Note_on_c, 2, 57, 54
4, 105216, Note_on_c, 2, 45, 54
4, 105404, Note_off_c, 2, 57, 0
4, 105404, Note_off_c, 2, 45, 0
4, 105408, Note_on_c, 2, 57, 54
4, 105408, Note_on_c, 2, 45, 54
4, 105596, Note_off_c, 2, 57, 0
4, 105596, Note_off_c, 2, 45, 0
4, 105600, Note_on_c, 2, 57, 54
4, 105600, Note_on_c, 2, 45, 54
4, 105788, Note_off_c, 2, 57, 0
4, 105788, Note_off_c, 2, 45, 0
4, 105792, Note_on_c, 2, 57, 54
4, 105792, Note_on_c, 2, 45, 54
4, 105980, Note_off_c, 2, 57, 0
4, 105980, Note_off_c, 2, 45, 0
4, 105984, Note_on_c, 2, 50, 54
4, 105984, Note_on_c, 2, 38, 54
4, 106172, Note_off_c, 2, 50, 0
4, 106172, Note_off_c, 2, 38, 0
4, 106176, Note_on_c, 2, 50, 81
4, 106364, Note_off_c, 2, 50, 0
4, 106368, Note_on_c, 2, 52, 81
4, 106556, Note_off_c, 2, 52, 0
4, 106560, Note_on_c, 2, 54, 81
4, 106748, Note_off_c, 2, 54, 0
4, 106752, Note_on_c, 2, 55, 81
4, 106940, Note_off_c, 2, 55, 0
4, 106944, Note_on_c, 2, 57, 81
4, 107132, Note_off_c, 2, 57, 0
4, 107136, Note_on_c, 2, 59, 81
4, 107228, Note_off_c, 2, 59, 0
4, 107232, Note_on_c, 2, 62, 81
4, 107324, Note_off_c, 2, 62, 0
4, 107328, Note_on_c, 2, 61, 81
4, 107420, Note_off_c, 2, 61, 0
4, 107424, Note_on_c, 2, 64, 81
4, 107516, Note_off_c, 2, 64, 0
4, 107520, Note_on_c, 2, 62, 81
4, 107900, Note_off_c, 2, 62, 0
4, 116736, Note_on_c, 2, 59, 54
4, 116736, Note_on_c, 2, 47, 54
4, 116924, Note_off_c, 2, 59, 0
4, 116924, Note_off_c, 2, 47, 0
4, 116928, Note_on_c, 2, 59, 54
4, 116928, Note_on_c, 2, 47, 54
4, 117116, Note_off_c, 2, 59, 0
4, 117116, Note_off_c, 2, 47, 0
4, 117120, Note_on_c, 2, 59, 54
4, 117120, Note_on_c, 2, 47, 54
4, 117308, Note_off_c, 2, 59, 0
4, 117308, Note_off_c, 2, 47, 0
4, 117312, Note_on_c, 2, 59, 54
4, 117312, Note_on_c, 2, 47, 54
4, 117500, Note_off_c, 2, 59, 0
4, 117500, Note_off_c, 2, 47, 0
4, 117504, Note_on_c, 2, 57, 54
4, 117504, Note_on_c, 2, 45, 54
4, 117692, Note_off_c, 2, 57, 0
4, 117692, Note_off_c, 2, 45, 0
4, 117696, Note_on_c, 2, 57, 54
4, 117696, Note_on_c, 2, 45, 54
4, 117884, Note_off_c, 2, 57, 0
4, 117884, Note_off_c, 2, 45, 0
4, 117888, Note_on_c, 2, 56, 54
4, 117888, Note_on_c, 2, 44, 54
4, 118076, Note_off_c, 2, 56, 0
4, 118076, Note_off_c, 2, 44, 0
4, 118080, Note_on_c, 2, 56, 54
4, 118080, Note_on_c, 2, 44, 54
4, 118268, Note_off_c, 2, 56, 0
4, 118268, Note_off_c, 2, 44, 0
4, 118272, Note_on_c, 2, 55, 54
4, 118272, Note_on_c, 2, 43, 54
4, 119036, Note_off_c, 2, 55, 0
4, 119036, Note_off_c, 2, 43, 0
4, 119040, Note_on_c, 2, 54, 54
4, 119040, Note_on_c, 2, 42, 54
4, 119420, Note_off_c, 2, 54, 0
4, 119420, Note_off_c, 2, 42, 0
4, 120000, Note_on_c, 2, 54, 81
4, 120092, Note_off_c, 2, 54, 0
4, 120096, Note_on_c, 2, 52, 81
4, 120188, Note_off_c, 2, 52, 0
4, 120192, Note_on_c, 2, 50, 81
4, 120380, Note_off_c, 2, 50, 0
4, 120384, Note_on_c, 2, 59, 81
4, 120384, Note_on_c, 2, 47, 81
4, 120572, Note_off_c, 2, 59, 0
4, 120572, Note_off_c, 2, 47, 0
4, 120576, Note_on_c, 2, 55, 81
4, 120576, Note_on_c, 2, 43, 81
4, 120764, Note_off_c, 2, 55, 0
4, 120764, Note_off_c, 2, 43, 0
4, 120768, Note_on_c, 2, 52, 81
4, 120768, Note_on_c, 2, 40, 81
4, 120956, Note_off_c, 2, 52, 0
4, 120956, Note_off_c, 2, 40, 0
4, 120960, Note_on_c, 2, 57, 81
4, 120960, Note_on_c, 2, 45, 81
4, 121148, Note_off_c, 2, 57, 0
4, 121148, Note_off_c, 2, 45, 0
4, 121152, Note_on_c, 2, 45, 81
4, 121152, Note_on_c, 2, 33, 81
4, 121340, Note_off_c, 2, 45, 0
4, 121340, Note_off_c, 2, 33, 0
4, 121344, Note_on_c, 2, 50, 54
4, 121344, Note_on_c, 2, 38, 54
4, 121532, Note_off_c, 2, 50, 0
4, 121532, Note_off_c, 2, 38, 0
4, 121728, Note_on_c, 2, 62, 54
4, 121916, Note_off_c, 2, 62, 0
4, 121920, Note_on_c, 2, 61, 54
4, 122108, Note_off_c, 2, 61, 0
4, 122112, Note_on_c, 2, 59, 54
4, 122492, Note_off_c, 2, 59, 0
4, 122496, Note_on_c, 2, 57, 54
4, 122876, Note_off_c, 2, 57, 0
4, 122880, Note_on_c, 2, 55, 54
4, 123260, Note_off_c, 2, 55, 0
4, 123264, Note_on_c, 2, 55, 54
4, 123456, Note_on_c, 2, 59, 54
4, 123644, Note_off_c, 2, 55, 0
4, 123644, Note_off_c, 2, 59, 0
4, 123648, Note_on_c, 2, 57, 54
4, 123648, Note_on_c, 2, 62, 54
4, 124028, Note_off_c, 2, 57, 0
4, 124028, Note_off_c, 2, 62, 0
4, 124032, Note_on_c, 2, 57, 54
4, 124412, Note_off_c, 2, 57, 0
4, 124416, Note_on_c, 2, 50, 54
4, 124796, Note_off_c, 2, 50, 0
4, 124800, Note_on_c, 2, 50, 54
4, 124800, Note_on_c, 2, 38, 54
4, 124988, Note_off_c, 2, 50, 0
4, 124988, Note_off_c, 2, 38, 0
4, 124992, Note_on_c, 2, 49, 54
4, 124992, Note_on_c, 2, 37, 54
4, 125180, Note_off_c, 2, 49, 0
4, 125180, Note_off_c, 2, 37, 0
4, 125184, Note_on_c, 2, 47, 54
4, 125184, Note_on_c, 2, 35, 54
4, 125564, Note_off_c, 2, 47, 0
4, 125564, Note_off_c, 2, 35, 0
4, 125568, Note_on_c, 2, 45, 54
4, 125568, Note_on_c, 2, 33, 54
4, 125948, Note_off_c, 2, 45, 0
4, 125948, Note_off_c, 2, 33, 0
4, 125952, Note_on_c, 2, 43, 54
4, 125952, Note_on_c, 2, 31, 54
4, 126332, Note_off_c, 2, 43, 0
4, 126332, Note_off_c, 2, 31, 0
4, 126336, Note_on_c, 2, 43, 54
4, 126716, Note_off_c, 2, 43, 0
4, 126720, Note_on_c, 2, 45, 54
4, 127100, Note_off_c, 2, 45, 0
4, 127104, Note_on_c, 2, 33, 54
4, 127484, Note_off_c, 2, 33, 0
4, 127488, Note_on_c, 2, 38, 54
4, 127868, Note_off_c, 2, 38, 0
4, 133248, Note_on_c, 2, 56, 54
4, 133628, Note_off_c, 2, 56, 0
4, 133632, Note_on_c, 2, 57, 54
4, 133820, Note_off_c, 2, 57, 0
4, 133824, Note_on_c, 2, 57, 54
4, 134012, Note_off_c, 2, 57, 0
4, 134016, Note_on_c, 2, 57, 54
4, 134204, Note_off_c, 2, 57, 0
4, 134208, Note_on_c, 2, 57, 54
4, 134396, Note_off_c, 2, 57, 0
4, 134400, Note_on_c, 2, 58, 54
4, 134588, Note_off_c, 2, 58, 0
4, 134592, Note_on_c, 2, 58, 54
4, 134780, Note_off_c, 2, 58, 0
4, 134784, Note_on_c, 2, 58, 54
4, 134972, Note_off_c, 2, 58, 0
4, 134976, Note_on_c, 2, 58, 54
4, 135164, Note_off_c, 2, 58, 0
4, 135168, Note_on_c, 2, 59, 54
4, 135356, Note_off_c, 2, 59, 0
4, 135552, Note_on_c, 2, 59, 54
4, 135552, Note_on_c, 2, 47, 54
4, 135932, Note_off_c, 2, 59, 0
4, 135932, Note_off_c, 2, 47, 0
4, 135936, Note_on_c, 2, 57, 54
4, 135936, Note_on_c, 2, 45, 54
4, 136316, Note_off_c, 2, 57, 0
4, 136316, Note_off_c, 2, 45, 0
4, 136320, Note_on_c, 2, 56, 54
4, 136320, Note_on_c, 2, 44, 54
4, 136700, Note_off_c, 2, 56, 0
4, 136700, Note_off_c, 2, 44, 0
4, 136704, Note_on_c, 2, 57, 54
4, 136704, Note_on_c, 2, 45, 54
4, 136892, Note_off_c, 2, 57, 0
4, 136892, Note_off_c, 2, 45, 0
4, 136896, Note_on_c, 2, 57, 54
4, 137084, Note_off_c, 2, 57, 0
4, 137088, Note_on_c, 2, 57, 54
4, 137276, Note_off_c, 2, 57, 0
4, 137280, Note_on_c, 2, 57, 54
4, 137468, Note_off_c, 2, 57, 0
4, 137472, Note_on_c, 2, 57, 54
4, 137660, Note_off_c, 2, 57, 0
4, 137664, Note_on_c, 2, 45, 54
4, 137664, Note_on_c, 2, 57, 54
4, 137852, Note_off_c, 2, 45, 0
4, 137852, Note_off_c, 2, 57, 0
4, 137856, Note_on_c, 2, 57, 54
4, 137856, Note_on_c, 2, 45, 54
4, 138044, Note_off_c, 2, 57, 0
4, 138044, Note_off_c, 2, 45, 0
4, 138048, Note_on_c, 2, 57, 54
4, 138048, Note_on_c, 2, 45, 54
4, 138236, Note_off_c, 2, 57, 0
4, 138236, Note_off_c, 2, 45, 0
4, 138240, Note_on_c, 2, 57, 54
4, 138240, Note_on_c, 2, 45, 54
4, 138428, Note_off_c, 2, 57, 0
4, 138428, Note_off_c, 2, 45, 0
4, 138432, Note_on_c, 2, 57, 54
4, 138432, Note_on_c, 2, 45, 54
4, 138620, Note_off_c, 2, 57, 0
4, 138620, Note_off_c, 2, 45, 0
4, 138624, Note_on_c, 2, 57, 54
4, 138624, Note_on_c, 2, 45, 54
4, 138812, Note_off_c, 2, 57, 0
4, 138812, Note_off_c, 2, 45, 0
4, 138816, Note_on_c, 2, 57, 54
4, 138816, Note_on_c, 2, 45, 54
4, 139004, Note_off_c, 2, 57, 0
4, 139004, Note_off_c, 2, 45, 0
4, 139008, Note_on_c, 2, 57, 54
4, 139008, Note_on_c, 2, 45, 54
4, 139196, Note_off_c, 2, 57, 0
4, 139196, Note_off_c, 2, 45, 0
4, 139200, Note_on_c, 2, 57, 54
4, 139200, Note_on_c, 2, 45, 54
4, 139388, Note_off_c, 2, 57, 0
4, 139388, Note_off_c, 2, 45, 0
4, 139392, Note_on_c, 2, 57, 54
4, 139392, Note_on_c, 2, 45, 54
4, 139580, Note_off_c, 2, 57, 0
4, 139580, Note_off_c, 2, 45, 0
4, 139584, Note_on_c, 2, 57, 54
4, 139584, Note_on_c, 2, 45, 54
4, 139772, Note_off_c, 2, 57, 0
4, 139772, Note_off_c, 2, 45, 0
4, 139776, Note_on_c, 2, 50, 81
4, 139776, Note_on_c, 2, 38, 81
4, 139964, Note_off_c, 2, 50, 0
4, 139964, Note_off_c, 2, 38, 0
4, 139968, Note_on_c, 2, 57, 81
4, 139968, Note_on_c, 2, 50, 81
4, 140156, Note_off_c, 2, 57, 0
4, 140156, Note_off_c, 2, 50, 0
4, 140160, Note_on_c, 2, 57, 81
4, 140160, Note_on_c, 2, 50, 81
4, 140348, Note_off_c, 2, 57, 0
4, 140348, Note_off_c, 2, 50, 0
4, 140352, Note_on_c, 2, 57, 81
4, 140352, Note_on_c, 2, 50, 81
4, 140540, Note_off_c, 2, 57, 0
4, 140540, Note_off_c, 2, 50, 0
4, 140544, Note_on_c, 2, 57, 81
4, 140544, Note_on_c, 2, 50, 81
4, 140732, Note_off_c, 2, 57, 0
4, 140732, Note_off_c, 2, 50, 0
4, 140736, Note_on_c, 2, 57, 81
4, 140736, Note_on_c, 2, 50, 81
4, 140924, Note_off_c, 2, 57, 0
4, 140924, Note_off_c, 2, 50, 0
4, 140928, Note_on_c, 2, 57, 81
4, 140928, Note_on_c, 2, 50, 81
4, 141116, Note_off_c, 2, 57, 0
4, 141116, Note_off_c, 2, 50, 0
4, 141120, Note_on_c, 2, 57, 81
4, 141120, Note_on_c, 2, 50, 81
4, 141308, Note_off_c, 2, 57, 0
4, 141308, Note_off_c, 2, 50, 0
4, 141312, Note_on_c, 2, 57, 81
4, 141312, Note_on_c, 2, 49, 81
4, 141500, Note_off_c, 2, 57, 0
4, 141500, Note_off_c, 2, 49, 0
4, 141504, Note_on_c, 2, 57, 81
4, 141504, Note_on_c, 2, 49, 81
4, 141692, Note_off_c, 2, 57, 0
4, 141692, Note_off_c, 2, 49, 0
4, 141696, Note_on_c, 2, 57, 81
4, 141696, Note_on_c, 2, 49, 81
4, 141884, Note_off_c, 2, 57, 0
4, 141884, Note_off_c, 2, 49, 0
4, 141888, Note_on_c, 2, 57, 81
4, 141888, Note_on_c, 2, 49, 81
4, 142076, Note_off_c, 2, 57, 0
4, 142076, Note_off_c, 2, 49, 0
4, 142080, Note_on_c, 2, 57, 81
4, 142080, Note_on_c, 2, 49, 81
4, 142268, Note_off_c, 2, 57, 0
4, 142268, Note_off_c, 2, 49, 0
4, 142272, Note_on_c, 2, 57, 81
4, 142272, Note_on_c, 2, 49, 81
4, 142460, Note_off_c, 2, 57, 0
4, 142460, Note_off_c, 2, 49, 0
4, 142464, Note_on_c, 2, 57, 81
4, 142464, Note_on_c, 2, 49, 81
4, 142652, Note_off_c, 2, 57, 0
4, 142652, Note_off_c, 2, 49, 0
4, 142656, Note_on_c, 2, 57, 81
4, 142656, Note_on_c, 2, 49, 81
4, 142844, Note_off_c, 2, 57, 0
4, 142844, Note_off_c, 2, 49, 0
4, 142848, Note_on_c, 2, 64, 81
4, 142848, Note_on_c, 2, 55, 81
4, 143036, Note_off_c, 2, 64, 0
4, 143036, Note_off_c, 2, 55, 0
4, 143040, Note_on_c, 2, 64, 81
4, 143040, Note_on_c, 2, 55, 81
4, 143228, Note_off_c, 2, 64, 0
4, 143228, Note_off_c, 2, 55, 0
4, 143232, Note_on_c, 2, 64, 81
4, 143232, Note_on_c, 2, 55, 81
4, 143420, Note_off_c, 2, 64, 0
4, 143420, Note_off_c, 2, 55, 0
4, 143424, Note_on_c, 2, 64, 81
4, 143424, Note_on_c, 2, 55, 81
4, 143612, Note_off_c, 2, 64, 0
4, 143612, Note_off_c, 2, 55, 0
4, 143616, Note_on_c, 2, 64, 81
4, 143616, Note_on_c, 2, 55, 81
4, 143804, Note_off_c, 2, 64, 0
4, 143804, Note_off_c, 2, 55, 0
4, 143808, Note_on_c, 2, 64, 81
4, 143808, Note_on_c, 2, 55, 81
4, 143996, Note_off_c, 2, 64, 0
4, 143996, Note_off_c, 2, 55, 0
4, 144000, Note_on_c, 2, 64, 81
4, 144000, Note_on_c, 2, 55, 81
4, 144188, Note_off_c, 2, 64, 0
4, 144188, Note_off_c, 2, 55, 0
4, 144192, Note_on_c, 2, 64, 81
4, 144192, Note_on_c, 2, 55, 81
4, 144380, Note_off_c, 2, 64, 0
4, 144380, Note_off_c, 2, 55, 0
4, 144384, Note_on_c, 2, 62, 81
4, 144384, Note_on_c, 2, 54, 81
4, 144572, Note_off_c, 2, 62, 0
4, 144572, Note_off_c, 2, 54, 0
4, 144576, Note_on_c, 2, 62, 81
4, 144576, Note_on_c, 2, 54, 81
4, 144764, Note_off_c, 2, 62, 0
4, 144764, Note_off_c, 2, 54, 0
4, 144768, Note_on_c, 2, 62, 81
4, 144768, Note_on_c, 2, 54, 81
4, 144956, Note_off_c, 2, 62, 0
4, 144956, Note_off_c, 2, 54, 0
4, 144960, Note_on_c, 2, 62, 81
4, 144960, Note_on_c, 2, 54, 81
4, 145148, Note_off_c, 2, 62, 0
4, 145148, Note_off_c, 2, 54, 0
4, 145152, Note_on_c, 2, 62, 81
4, 145152, Note_on_c, 2, 54, 81
4, 145532, Note_off_c, 2, 62, 0
4, 145532, Note_off_c, 2, 54, 0
4, 145920, Note_on_c, 2, 52, 54
4, 146300, Note_off_c, 2, 52, 0
4, 146304, Note_on_c, 2, 45, 54
4, 146684, Note_off_c, 2, 45, 0
4, 146688, Note_on_c, 2, 50, 54
4, 146876, Note_off_c, 2, 50, 0
4, 147072, Note_on_c, 2, 54, 54
4, 147072, Note_on_c, 2, 62, 54
4, 147260, Note_off_c, 2, 54, 0
4, 147260, Note_off_c, 2, 62, 0
4, 147456, Note_on_c, 2, 52, 54
4, 147836, Note_off_c, 2, 52, 0
4, 147840, Note_on_c, 2, 45, 54
4, 148220, Note_off_c, 2, 45, 0
4, 148224, Note_on_c, 2, 50, 54
4, 148412, Note_off_c, 2, 50, 0
4, 148608, Note_on_c, 2, 62, 81
4, 148608, Note_on_c, 2, 54, 81
4, 148796, Note_off_c, 2, 62, 0
4, 148796, Note_off_c, 2, 54, 0
4, 148800, Note_on_c, 2, 62, 81
4, 148800, Note_on_c, 2, 54, 81
4, 148988, Note_off_c, 2, 62, 0
4, 148988, Note_off_c, 2, 54, 0
4, 148992, Note_on_c, 2, 59, 81
4, 148992, Note_on_c, 2, 55, 81
4, 149180, Note_off_c, 2, 59, 0
4, 149180, Note_off_c, 2, 55, 0
4, 149184, Note_on_c, 2, 64, 81
4, 149372, Note_off_c, 2, 64, 0
4, 149376, Note_on_c, 2, 59, 81
4, 149376, Note_on_c, 2, 55, 81
4, 149564, Note_off_c, 2, 59, 0
4, 149564, Note_off_c, 2, 55, 0
4, 149568, Note_on_c, 2, 64, 81
4, 149756, Note_off_c, 2, 64, 0
4, 149760, Note_on_c, 2, 59, 81
4, 149760, Note_on_c, 2, 55, 81
4, 149948, Note_off_c, 2, 59, 0
4, 149948, Note_off_c, 2, 55, 0
4, 149952, Note_on_c, 2, 59, 81
4, 149952, Note_on_c, 2, 55, 81
4, 150140, Note_off_c, 2, 59, 0
4, 150140, Note_off_c, 2, 55, 0
4, 150144, Note_on_c, 2, 59, 81
4, 150144, Note_on_c, 2, 55, 81
4, 150332, Note_off_c, 2, 59, 0
4, 150332, Note_off_c, 2, 55, 0
4, 150336, Note_on_c, 2, 64, 81
4, 150336, Note_on_c, 2, 55, 81
4, 150524, Note_off_c, 2, 64, 0
4, 150524, Note_off_c, 2, 55, 0
4, 150528, Note_on_c, 2, 64, 81
4, 150528, Note_on_c, 2, 55, 81
4, 150716, Note_off_c, 2, 64, 0
4, 150716, Note_off_c, 2, 55, 0
4, 150720, Note_on_c, 2, 64, 81
4, 150720, Note_on_c, 2, 55, 81
4, 150908, Note_off_c, 2, 64, 0
4, 150908, Note_off_c, 2, 55, 0
4, 150912, Note_on_c, 2, 61, 81
4, 150912, Note_on_c, 2, 52, 81
4, 151100, Note_off_c, 2, 61, 0
4, 151100, Note_off_c, 2, 52, 0
4, 151104, Note_on_c, 2, 61, 81
4, 151104, Note_on_c, 2, 52, 81
4, 151292, Note_off_c, 2, 61, 0
4, 151292, Note_off_c, 2, 52, 0
4, 151296, Note_on_c, 2, 57, 81
4, 151296, Note_on_c, 2, 49, 81
4, 151484, Note_off_c, 2, 57, 0
4, 151484, Note_off_c, 2, 49, 0
4, 151488, Note_on_c, 2, 57, 81
4, 151488, Note_on_c, 2, 49, 81
4, 151676, Note_off_c, 2, 57, 0
4, 151676, Note_off_c, 2, 49, 0
4, 151680, Note_on_c, 2, 57, 81
4, 151680, Note_on_c, 2, 45, 81
4, 151868, Note_off_c, 2, 57, 0
4, 151868, Note_off_c, 2, 45, 0
4, 151872, Note_on_c, 2, 57, 81
4, 151872, Note_on_c, 2, 45, 81
4, 152060, Note_off_c, 2, 57, 0
4, 152060, Note_off_c, 2, 45, 0
4, 152064, Note_on_c, 2, 59, 81
4, 152064, Note_on_c, 2, 47, 81
4, 152252, Note_off_c, 2, 59, 0
4, 152252, Note_off_c, 2, 47, 0
4, 152256, Note_on_c, 2, 59, 81
4, 152256, Note_on_c, 2, 47, 81
4, 152444, Note_off_c, 2, 59, 0
4, 152444, Note_off_c, 2, 47, 0
4, 152448, Note_on_c, 2, 54, 81
4, 152448, Note_on_c, 2, 42, 81
4, 152636, Note_off_c, 2, 54, 0
4, 152636, Note_off_c, 2, 42, 0
4, 152640, Note_on_c, 2, 54, 81
4, 152640, Note_on_c, 2, 42, 81
4, 152828, Note_off_c, 2, 54, 0
4, 152828, Note_off_c, 2, 42, 0
4, 152832, Note_on_c, 2, 55, 81
4, 152832, Note_on_c, 2, 43, 81
4, 153020, Note_off_c, 2, 55, 0
4, 153020, Note_off_c, 2, 43, 0
4, 153024, Note_on_c, 2, 55, 81
4, 153024, Note_on_c, 2, 43, 81
4, 153212, Note_off_c, 2, 55, 0
4, 153212, Note_off_c, 2, 43, 0
4, 153216, Note_on_c, 2, 57, 81
4, 153216, Note_on_c, 2, 45, 81
4, 153404, Note_off_c, 2, 57, 0
4, 153404, Note_off_c, 2, 45, 0
4, 153408, Note_on_c, 2, 57, 81
4, 153408, Note_on_c, 2, 45, 81
4, 153596, Note_off_c, 2, 57, 0
4, 153596, Note_off_c, 2, 45, 0
4, 153600, Note_on_c, 2, 57, 81
4, 153600, Note_on_c, 2, 50, 81
4, 153980, Note_off_c, 2, 57, 0
4, 153980, Note_off_c, 2, 50, 0
4, 153984, Note_on_c, 2, 54, 81
4, 153984, Note_on_c, 2, 50, 81
4, 154364, Note_off_c, 2, 54, 0
4, 154364, Note_off_c, 2, 50, 0
4, 154368, Note_on_c, 2, 57, 81
4, 154368, Note_on_c, 2, 54, 81
4, 154748, Note_off_c, 2, 57, 0
4, 154748, Note_off_c, 2, 54, 0
4, 154752, Note_on_c, 2, 55, 81
4, 154752, Note_on_c, 2, 52, 81
4, 154752, Note_on_c, 2, 45, 81
4, 155132, Note_off_c, 2, 55, 0
4, 155132, Note_off_c, 2, 52, 0
4, 155132, Note_off_c, 2, 45, 0
4, 155136, Note_on_c, 2, 54, 81
4, 155136, Note_on_c, 2, 50, 81
4, 155516, Note_off_c, 2, 54, 0
4, 155516, Note_off_c, 2, 50, 0
4, 155520, Note_on_c, 2, 54, 81
4, 155520, Note_on_c, 2, 50, 81
4, 155900, Note_off_c, 2, 54, 0
4, 155900, Note_off_c, 2, 50, 0
4, 155904, Note_on_c, 2, 57, 81
4, 155904, Note_on_c, 2, 54, 81
4, 156284, Note_off_c, 2, 57, 0
4, 156284, Note_off_c, 2, 54, 0
4, 156288, Note_on_c, 2, 55, 81
4, 156288, Note_on_c, 2, 52, 81
4, 156288, Note_on_c, 2, 45, 81
4, 156668, Note_off_c, 2, 55, 0
4, 156668, Note_off_c, 2, 52, 0
4, 156668, Note_off_c, 2, 45, 0
4, 156672, Note_on_c, 2, 54, 81
4, 156672, Note_on_c, 2, 50, 81
4, 157052, Note_off_c, 2, 54, 0
4, 157052, Note_off_c, 2, 50, 0
4, 157056, Note_on_c, 2, 57, 81
4, 157056, Note_on_c, 2, 64, 81
4, 157056, Note_on_c, 2, 67, 81
4, 157244, Note_off_c, 2, 57, 0
4, 157244, Note_off_c, 2, 64, 0
4, 157244, Note_off_c, 2, 67, 0
4, 157248, Note_on_c, 2, 57, 81
4, 157248, Note_on_c, 2, 64, 81
4, 157248, Note_on_c, 2, 67, 81
4, 157436, Note_off_c, 2, 57, 0
4, 157436, Note_off_c, 2, 64, 0
4, 157436, Note_off_c, 2, 67, 0
4, 157440, Note_on_c, 2, 62, 81
4, 157440, Note_on_c, 2, 66, 81
4, 157820, Note_off_c, 2, 62, 0
4, 157820, Note_off_c, 2, 66, 0
4, 157824, Note_on_c, 2, 57, 81
4, 157824, Note_on_c, 2, 64, 81
4, 157824, Note_on_c, 2, 67, 81
4, 158012, Note_off_c, 2, 57, 0
4, 158012, Note_off_c, 2, 64, 0
4, 158012, Note_off_c, 2, 67, 0
4, 158016, Note_on_c, 2, 57, 81
4, 158016, Note_on_c, 2, 64, 81
4, 158016, Note_on_c, 2, 67, 81
4, 158204, Note_off_c, 2, 57, 0
4, 158204, Note_off_c, 2, 64, 0
4, 158204, Note_off_c, 2, 67, 0
4, 158208, Note_on_c, 2, 62, 81
4, 158208, Note_on_c, 2, 66, 81
4, 158396, Note_off_c, 2, 62, 0
4, 158396, Note_off_c, 2, 66, 0
4, 158592, Note_on_c, 2, 57, 54
4, 158780, Note_off_c, 2, 57, 0
4, 158976, Note_on_c, 2, 62, 54
4, 159164, Note_off_c, 2, 62, 0
4, 159360, Note_on_c, 2, 57, 54
4, 159548, Note_off_c, 2, 57, 0
4, 159744, Note_on_c, 2, 50, 54
4, 160124, Note_off_c, 2, 50, 0
4, 160320, Note_on_c, 2, 62, 54
4, 160320, Note_on_c, 2, 54, 54
4, 160508, Note_off_c, 2, 62, 0
4, 160508, Note_off_c, 2, 54, 0
4, 160512, Note_on_c, 2, 64, 54
4, 160512, Note_on_c, 2, 57, 54
4, 160892, Note_off_c, 2, 64, 0
4, 160892, Note_off_c, 2, 57, 0
4, 161088, Note_on_c, 2, 61, 54
4, 161276, Note_off_c, 2, 61, 0
4, 161280, Note_on_c, 2, 62, 54
4, 161660, Note_off_c, 2, 62, 0
4, 161856, Note_on_c, 2, 50, 81
4, 162044, Note_off_c, 2, 50, 0
4, 162048, Note_on_c, 2, 50, 81
4, 162236, Note_off_c, 2, 50, 0
4, 162240, Note_on_c, 2, 52, 81
4, 162332, Note_off_c, 2, 52, 0
4, 162336, Note_on_c, 2, 54, 81
4, 162428, Note_off_c, 2, 54, 0
4, 162432, Note_on_c, 2, 55, 81
4, 162524, Note_off_c, 2, 55, 0
4, 162528, Note_on_c, 2, 57, 81
4, 162620, Note_off_c, 2, 57, 0
4, 162624, Note_on_c, 2, 59, 81
4, 162716, Note_off_c, 2, 59, 0
4, 162720, Note_on_c, 2, 61, 81
4, 162812, Note_off_c, 2, 61, 0
4, 162816, Note_on_c, 2, 62, 81
4, 162908, Note_off_c, 2, 62, 0
4, 162912, Note_on_c, 2, 61, 81
4, 163004, Note_off_c, 2, 61, 0
4, 163008, Note_on_c, 2, 62, 81
4, 163100, Note_off_c, 2, 62, 0
4, 163104, Note_on_c, 2, 64, 81
4, 163196, Note_off_c, 2, 64, 0
4, 163200, Note_on_c, 2, 65, 81
4, 163388, Note_off_c, 2, 65, 0
4, 163392, Note_on_c, 2, 65, 54
4, 163392, Note_on_c, 2, 69, 54
4, 163580, Note_off_c, 2, 65, 0
4, 163580, Note_off_c, 2, 69, 0
4, 163584, Note_on_c, 2, 67, 54
4, 163584, Note_on_c, 2, 64, 54
4, 163772, Note_off_c, 2, 67, 0
4, 163772, Note_off_c, 2, 64, 0
4, 163776, Note_on_c, 2, 65, 54
4, 163776, Note_on_c, 2, 62, 54
4, 163964, Note_off_c, 2, 65, 0
4, 163964, Note_off_c, 2, 62, 0
4, 163968, Note_on_c, 2, 67, 54
4, 163968, Note_on_c, 2, 64, 54
4, 164156, Note_off_c, 2, 67, 0
4, 164156, Note_off_c, 2, 64, 0
4, 164160, Note_on_c, 2, 64, 54
4, 164160, Note_on_c, 2, 61, 54
4, 164348, Note_off_c, 2, 64, 0
4, 164348, Note_off_c, 2, 61, 0
4, 164352, Note_on_c, 2, 62, 54
4, 164352, Note_on_c, 2, 50, 54
4, 164732, Note_off_c, 2, 62, 0
4, 164732, Note_off_c, 2, 50, 0
4, 165120, Note_on_c, 2, 62, 54
4, 165120, Note_on_c, 2, 50, 54
4, 165500, Note_off_c, 2, 62, 0
4, 165500, Note_off_c, 2, 50, 0
4, 165888, Note_on_c, 2, 62, 54
4, 165888, Note_on_c, 2, 50, 54
4, 166268, Note_off_c, 2, 62, 0
4, 166268, Note_off_c, 2, 50, 0
4, 166656, Note_on_c, 2, 62, 54
4, 166656, Note_on_c, 2, 50, 54
4, 167036, Note_off_c, 2, 62, 0
4, 167036, Note_off_c, 2, 50, 0
4, 167424, Note_on_c, 2, 62, 54
4, 167424, Note_on_c, 2, 50, 54
4, 167804, Note_off_c, 2, 62, 0
4, 167804, Note_off_c, 2, 50, 0
4, 167808, Note_on_c, 2, 60, 54
4, 167808, Note_on_c, 2, 48, 54
4, 168188, Note_off_c, 2, 60, 0
4, 168188, Note_off_c, 2, 48, 0
4, 168384, Note_on_c, 2, 60, 54
4, 168572, Note_off_c, 2, 60, 0
4, 168576, Note_on_c, 2, 59, 54
4, 168764, Note_off_c, 2, 59, 0
4, 168768, Note_on_c, 2, 57, 54
4, 168956, Note_off_c, 2, 57, 0
4, 168960, Note_on_c, 2, 59, 54
4, 168960, Note_on_c, 2, 56, 54
4, 169148, Note_off_c, 2, 59, 0
4, 169148, Note_off_c, 2, 56, 0
4, 169344, Note_on_c, 2, 56, 54
4, 169344, Note_on_c, 2, 44, 54
4, 169532, Note_off_c, 2, 56, 0
4, 169532, Note_off_c, 2, 44, 0
4, 169728, Note_on_c, 2, 56, 54
4, 169728, Note_on_c, 2, 44, 54
4, 169916, Note_off_c, 2, 56, 0
4, 169916, Note_off_c, 2, 44, 0
4, 170112, Note_on_c, 2, 56, 54
4, 170112, Note_on_c, 2, 44, 54
4, 170300, Note_off_c, 2, 56, 0
4, 170300, Note_off_c, 2, 44, 0
4, 170496, Note_on_c, 2, 57, 81
4, 170496, Note_on_c, 2, 45, 81
4, 170876, Note_off_c, 2, 57, 0
4, 170876, Note_off_c, 2, 45, 0
4, 170880, Note_on_c, 2, 60, 81
4, 170880, Note_on_c, 2, 57, 81
4, 171260, Note_off_c, 2, 60, 0
4, 171260, Note_off_c, 2, 57, 0
4, 171264, Note_on_c, 2, 60, 81
4, 171264, Note_on_c, 2, 64, 81
4, 171644, Note_off_c, 2, 60, 0
4, 171644, Note_off_c, 2, 64, 0
4, 171648, Note_on_c, 2, 62, 81
4, 171648, Note_on_c, 2, 59, 81
4, 171648, Note_on_c, 2, 52, 81
4, 172028, Note_off_c, 2, 62, 0
4, 172028, Note_off_c, 2, 59, 0
4, 172028, Note_off_c, 2, 52, 0
4, 172032, Note_on_c, 2, 60, 81
4, 172032, Note_on_c, 2, 57, 81
4, 172412, Note_off_c, 2, 60, 0
4, 172412, Note_off_c, 2, 57, 0
4, 172416, Note_on_c, 2, 60, 81
4, 172416, Note_on_c, 2, 57, 81
4, 172796, Note_off_c, 2, 60, 0
4, 172796, Note_off_c, 2, 57, 0
4, 172800, Note_on_c, 2, 64, 81
4, 172800, Note_on_c, 2, 60, 81
4, 173180, Note_off_c, 2, 64, 0
4, 173180, Note_off_c, 2, 60, 0
4, 173184, Note_on_c, 2, 62, 81
4, 173184, Note_on_c, 2, 59, 81
4, 173184, Note_on_c, 2, 52, 81
4, 173564, Note_off_c, 2, 62, 0
4, 173564, Note_off_c, 2, 59, 0
4, 173564, Note_off_c, 2, 52, 0
4, 173568, Note_on_c, 2, 60, 81
4, 173568, Note_on_c, 2, 57, 81
4, 173948, Note_off_c, 2, 60, 0
4, 173948, Note_off_c, 2, 57, 0
4, 173952, Note_on_c, 2, 62, 81
4, 173952, Note_on_c, 2, 56, 81
4, 173952, Note_on_c, 2, 52, 81
4, 174140, Note_off_c, 2, 62, 0
4, 174140, Note_off_c, 2, 56, 0
4, 174140, Note_off_c, 2, 52, 0
4, 174144, Note_on_c, 2, 62, 81
4, 174144, Note_on_c, 2, 59, 81
4, 174144, Note_on_c, 2, 52, 81
4, 174332, Note_off_c, 2, 62, 0
4, 174332, Note_off_c, 2, 59, 0
4, 174332, Note_off_c, 2, 52, 0
4, 174336, Note_on_c, 2, 60, 81
4, 174336, Note_on_c, 2, 57, 81
4, 174716, Note_off_c, 2, 60, 0
4, 174716, Note_off_c, 2, 57, 0
4, 174720, Note_on_c, 2, 62, 81
4, 174720, Note_on_c, 2, 56, 81
4, 174720, Note_on_c, 2, 52, 81
4, 174908, Note_off_c, 2, 62, 0
4, 174908, Note_off_c, 2, 56, 0
4, 174908, Note_off_c, 2, 52, 0
4, 174912, Note_on_c, 2, 62, 81
4, 174912, Note_on_c, 2, 59, 81
4, 174912, Note_on_c, 2, 52, 81
4, 175100, Note_off_c, 2, 62, 0
4, 175100, Note_off_c, 2, 59, 0
4, 175100, Note_off_c, 2, 52, 0
4, 175104, Note_on_c, 2, 60, 81
4, 175104, Note_on_c, 2, 57, 81
4, 175292, Note_off_c, 2, 60, 0
4, 175292, Note_off_c, 2, 57, 0
4, 175488, Note_on_c, 2, 64, 54
4, 175488, Note_on_c, 2, 52, 54
4, 175676, Note_off_c, 2, 64, 0
4, 175676, Note_off_c, 2, 52, 0
4, 175872, Note_on_c, 2, 57, 54
4, 176060, Note_off_c, 2, 57, 0
4, 176256, Note_on_c, 2, 64, 54
4, 176256, Note_on_c, 2, 52, 54
4, 176444, Note_off_c, 2, 64, 0
4, 176444, Note_off_c, 2, 52, 0
4, 176640, Note_on_c, 2, 57, 54
4, 177020, Note_off_c, 2, 57, 0
4, 177216, Note_on_c, 2, 48, 54
4, 177404, Note_off_c, 2, 48, 0
4, 177408, Note_on_c, 2, 52, 54
4, 177788, Note_off_c, 2, 52, 0
4, 177984, Note_on_c, 2, 64, 54
4, 177984, Note_on_c, 2, 56, 54
4, 178172, Note_off_c, 2, 64, 0
4, 178172, Note_off_c, 2, 56, 0
4, 178176, Note_on_c, 2, 57, 54
4, 178176, Note_on_c, 2, 64, 54
4, 178556, Note_off_c, 2, 57, 0
4, 178556, Note_off_c, 2, 64, 0
4, 178752, Note_on_c, 2, 45, 81
4, 178940, Note_off_c, 2, 45, 0
4, 178944, Note_on_c, 2, 45, 81
4, 179132, Note_off_c, 2, 45, 0
4, 179136, Note_on_c, 2, 47, 81
4, 179228, Note_off_c, 2, 47, 0
4, 179232, Note_on_c, 2, 48, 81
4, 179324, Note_off_c, 2, 48, 0
4, 179328, Note_on_c, 2, 50, 81
4, 179420, Note_off_c, 2, 50, 0
4, 179424, Note_on_c, 2, 52, 81
4, 179516, Note_off_c, 2, 52, 0
4, 179520, Note_on_c, 2, 54, 81
4, 179612, Note_off_c, 2, 54, 0
4, 179616, Note_on_c, 2, 56, 81
4, 179708, Note_off_c, 2, 56, 0
4, 179712, Note_on_c, 2, 57, 54
4, 179804, Note_off_c, 2, 57, 0
4, 179808, Note_on_c, 2, 56, 54
4, 179900, Note_off_c, 2, 56, 0
4, 179904, Note_on_c, 2, 57, 54
4, 179996, Note_off_c, 2, 57, 0
4, 180000, Note_on_c, 2, 59, 54
4, 180092, Note_off_c, 2, 59, 0
4, 180096, Note_on_c, 2, 60, 54
4, 180284, Note_off_c, 2, 60, 0
4, 180288, Note_on_c, 2, 60, 54
4, 180288, Note_on_c, 2, 64, 54
4, 180476, Note_off_c, 2, 60, 0
4, 180476, Note_off_c, 2, 64, 0
4, 180480, Note_on_c, 2, 62, 54
4, 180480, Note_on_c, 2, 59, 54
4, 180668, Note_off_c, 2, 62, 0
4, 180668, Note_off_c, 2, 59, 0
4, 180672, Note_on_c, 2, 60, 54
4, 180672, Note_on_c, 2, 57, 54
4, 180860, Note_off_c, 2, 60, 0
4, 180860, Note_off_c, 2, 57, 0
4, 180864, Note_on_c, 2, 62, 54
4, 180864, Note_on_c, 2, 59, 54
4, 181052, Note_off_c, 2, 62, 0
4, 181052, Note_off_c, 2, 59, 0
4, 181056, Note_on_c, 2, 59, 54
4, 181056, Note_on_c, 2, 56, 54
4, 181244, Note_off_c, 2, 59, 0
4, 181244, Note_off_c, 2, 56, 0
4, 181248, Note_on_c, 2, 57, 54
4, 181628, Note_off_c, 2, 57, 0
4, 182016, Note_on_c, 2, 57, 54
4, 182016, Note_on_c, 2, 69, 54
4, 182016, Note_on_c, 2, 69, 54
4, 182396, Note_off_c, 2, 57, 0
4, 182396, Note_off_c, 2, 69, 0
4, 182780, Note_off_c, 2, 69, 0
4, 182784, Note_on_c, 2, 57, 54
4, 182784, Note_on_c, 2, 69, 54
4, 182784, Note_on_c, 2, 69, 54
4, 183164, Note_off_c, 2, 57, 0
4, 183164, Note_off_c, 2, 69, 0
4, 183552, Note_on_c, 2, 57, 54
4, 183552, Note_on_c, 2, 69, 54
4, 183932, Note_off_c, 2, 69, 0
4, 183932, Note_off_c, 2, 57, 0
4, 184316, Note_off_c, 2, 69, 0
4, 184320, Note_on_c, 2, 57, 54
4, 184700, Note_off_c, 2, 57, 0
4, 184704, Note_on_c, 2, 55, 54
4, 185084, Note_off_c, 2, 55, 0
4, 185280, Note_on_c, 2, 55, 54
4, 185468, Note_off_c, 2, 55, 0
4, 185472, Note_on_c, 2, 54, 54
4, 185660, Note_off_c, 2, 54, 0
4, 185664, Note_on_c, 2, 52, 54
4, 185852, Note_off_c, 2, 52, 0
4, 185856, Note_on_c, 2, 51, 54
4, 186044, Note_off_c, 2, 51, 0
4, 186240, Note_on_c, 2, 51, 54
4, 186428, Note_off_c, 2, 51, 0
4, 186624, Note_on_c, 2, 51, 54
4, 186812, Note_off_c, 2, 51, 0
4, 187008, Note_on_c, 2, 51, 54
4, 187196, Note_off_c, 2, 51, 0
4, 187392, Note_on_c, 2, 52, 54
4, 187580, Note_off_c, 2, 52, 0
4, 187584, Note_on_c, 2, 52, 54
4, 187772, Note_off_c, 2, 52, 0
4, 187776, Note_on_c, 2, 52, 54
4, 187964, Note_off_c, 2, 52, 0
4, 187968, Note_on_c, 2, 52, 54
4, 188156, Note_off_c, 2, 52, 0
4, 188160, Note_on_c, 2, 55, 54
4, 188348, Note_off_c, 2, 55, 0
4, 188352, Note_on_c, 2, 55, 54
4, 188540, Note_off_c, 2, 55, 0
4, 188544, Note_on_c, 2, 55, 54
4, 188732, Note_off_c, 2, 55, 0
4, 188736, Note_on_c, 2, 55, 54
4, 188924, Note_off_c, 2, 55, 0
4, 188928, Note_on_c, 2, 57, 54
4, 189116, Note_off_c, 2, 57, 0
4, 189312, Note_on_c, 2, 57, 54
4, 189500, Note_off_c, 2, 57, 0
4, 189696, Note_on_c, 2, 57, 54
4, 189884, Note_off_c, 2, 57, 0
4, 190080, Note_on_c, 2, 57, 54
4, 190268, Note_off_c, 2, 57, 0
4, 190464, Note_on_c, 2, 57, 54
4, 190652, Note_off_c, 2, 57, 0
4, 190656, Note_on_c, 2, 57, 54
4, 190844, Note_off_c, 2, 57, 0
4, 190848, Note_on_c, 2, 57, 54
4, 191036, Note_off_c, 2, 57, 0
4, 191040, Note_on_c, 2, 57, 54
4, 191228, Note_off_c, 2, 57, 0
4, 191232, Note_on_c, 2, 57, 54
4, 191420, Note_off_c, 2, 57, 0
4, 191424, Note_on_c, 2, 57, 54
4, 191612, Note_off_c, 2, 57, 0
4, 191616, Note_on_c, 2, 57, 54
4, 191804, Note_off_c, 2, 57, 0
4, 191808, Note_on_c, 2, 58, 54
4, 191996, Note_off_c, 2, 58, 0
4, 192000, Note_on_c, 2, 59, 54
4, 192380, Note_off_c, 2, 59, 0
4, 192384, Note_on_c, 2, 59, 54
4, 192572, Note_off_c, 2, 59, 0
4, 192576, Note_on_c, 2, 47, 87
4, 192764, Note_off_c, 2, 47, 0
4, 192768, Note_on_c, 2, 47, 84
4, 192956, Note_off_c, 2, 47, 0
4, 192960, Note_on_c, 2, 49, 81
4, 193052, Note_off_c, 2, 49, 0
4, 193056, Note_on_c, 2, 51, 81
4, 193148, Note_off_c, 2, 51, 0
4, 193152, Note_on_c, 2, 52, 81
4, 193244, Note_off_c, 2, 52, 0
4, 193248, Note_on_c, 2, 54, 81
4, 193340, Note_off_c, 2, 54, 0
4, 193344, Note_on_c, 2, 55, 81
4, 193436, Note_off_c, 2, 55, 0
4, 193440, Note_on_c, 2, 58, 81
4, 193532, Note_off_c, 2, 58, 0
4, 193536, Note_on_c, 2, 59, 81
4, 193628, Note_off_c, 2, 59, 0
4, 193632, Note_on_c, 2, 58, 81
4, 193724, Note_off_c, 2, 58, 0
4, 193728, Note_on_c, 2, 59, 81
4, 193820, Note_off_c, 2, 59, 0
4, 193824, Note_on_c, 2, 58, 81
4, 193916, Note_off_c, 2, 58, 0
4, 193920, Note_on_c, 2, 59, 81
4, 194108, Note_off_c, 2, 59, 0
4, 194112, Note_on_c, 2, 59, 54
4, 194300, Note_off_c, 2, 59, 0
4, 194304, Note_on_c, 2, 59, 54
4, 195068, Note_off_c, 2, 59, 0
4, 195072, Note_on_c, 2, 59, 54
4, 195072, Note_on_c, 2, 52, 54
4, 195452, Note_off_c, 2, 59, 0
4, 195452, Note_off_c, 2, 52, 0
4, 196032, Note_on_c, 2, 52, 54
4, 196220, Note_off_c, 2, 52, 0
4, 196224, Note_on_c, 2, 55, 54
4, 196412, Note_off_c, 2, 55, 0
4, 196416, Note_on_c, 2, 59, 54
4, 196604, Note_off_c, 2, 59, 0
4, 196608, Note_on_c, 2, 64, 54
4, 196796, Note_off_c, 2, 64, 0
4, 196992, Note_on_c, 2, 59, 54
4, 197180, Note_off_c, 2, 59, 0
4, 197376, Note_on_c, 2, 55, 54
4, 197564, Note_off_c, 2, 55, 0
4, 197760, Note_on_c, 2, 52, 54
4, 197948, Note_off_c, 2, 52, 0
4, 198144, Note_on_c, 2, 57, 54
4, 198332, Note_off_c, 2, 57, 0
4, 199104, Note_on_c, 2, 45, 54
4, 199292, Note_off_c, 2, 45, 0
4, 199296, Note_on_c, 2, 48, 54
4, 199484, Note_off_c, 2, 48, 0
4, 199488, Note_on_c, 2, 52, 54
4, 199676, Note_off_c, 2, 52, 0
4, 199680, Note_on_c, 2, 57, 54
4, 200444, Note_off_c, 2, 57, 0
4, 200448, Note_on_c, 2, 57, 54
4, 200448, Note_on_c, 2, 60, 54
4, 200828, Note_off_c, 2, 60, 0
4, 200832, Note_on_c, 2, 61, 54
4, 201212, Note_off_c, 2, 57, 0
4, 201212, Note_off_c, 2, 61, 0
4, 201216, Note_on_c, 2, 62, 54
4, 201216, Note_on_c, 2, 57, 54
4, 201216, Note_on_c, 2, 50, 54
4, 201596, Note_off_c, 2, 57, 0
4, 201596, Note_off_c, 2, 50, 0
4, 201980, Note_off_c, 2, 62, 0
4, 201984, Note_on_c, 2, 62, 54
4, 202176, Note_on_c, 2, 50, 54
4, 202364, Note_off_c, 2, 62, 0
4, 202364, Note_off_c, 2, 50, 0
4, 202368, Note_on_c, 2, 54, 54
4, 202556, Note_off_c, 2, 54, 0
4, 202560, Note_on_c, 2, 57, 54
4, 202748, Note_off_c, 2, 57, 0
4, 202752, Note_on_c, 2, 62, 54
4, 202940, Note_off_c, 2, 62, 0
4, 203136, Note_on_c, 2, 57, 54
4, 203324, Note_off_c, 2, 57, 0
4, 203520, Note_on_c, 2, 54, 54
4, 203708, Note_off_c, 2, 54, 0
4, 203904, Note_on_c, 2, 50, 54
4, 204092, Note_off_c, 2, 50, 0
4, 204288, Note_on_c, 2, 55, 54
4, 205052, Note_off_c, 2, 55, 0
4, 205056, Note_on_c, 2, 59, 54
4, 205248, Note_on_c, 2, 43, 54
4, 205436, Note_off_c, 2, 59, 0
4, 205436, Note_off_c, 2, 43, 0
4, 205440, Note_on_c, 2, 47, 54
4, 205628, Note_off_c, 2, 47, 0
4, 205632, Note_on_c, 2, 50, 54
4, 205820, Note_off_c, 2, 50, 0
4, 205824, Note_on_c, 2, 55, 54
4, 206588, Note_off_c, 2, 55, 0
4, 206592, Note_on_c, 2, 55, 54
4, 206592, Note_on_c, 2, 59, 54
4, 206972, Note_off_c, 2, 59, 0
4, 206976, Note_on_c, 2, 62, 54
4, 207356, Note_off_c, 2, 55, 0
4, 207356, Note_off_c, 2, 62, 0
4, 207360, Note_on_c, 2, 60, 54
4, 207548, Note_off_c, 2, 60, 0
4, 207552, Note_on_c, 2, 60, 54
4, 207740, Note_off_c, 2, 60, 0
4, 207744, Note_on_c, 2, 60, 54
4, 207932, Note_off_c, 2, 60, 0
4, 207936, Note_on_c, 2, 60, 54
4, 208124, Note_off_c, 2, 60, 0
4, 208128, Note_on_c, 2, 59, 54
4, 208316, Note_off_c, 2, 59, 0
4, 208320, Note_on_c, 2, 59, 54
4, 208508, Note_off_c, 2, 59, 0
4, 208512, Note_on_c, 2, 59, 54
4, 208700, Note_off_c, 2, 59, 0
4, 208704, Note_on_c, 2, 59, 54
4, 208892, Note_off_c, 2, 59, 0
4, 208896, Note_on_c, 2, 60, 54
4, 209276, Note_off_c, 2, 60, 0
4, 209856, Note_on_c, 2, 57, 54
4, 210044, Note_off_c, 2, 57, 0
4, 210048, Note_on_c, 2, 56, 54
4, 210236, Note_off_c, 2, 56, 0
4, 210240, Note_on_c, 2, 57, 54
4, 210428, Note_off_c, 2, 57, 0
4, 210432, Note_on_c, 2, 59, 54
4, 210620, Note_off_c, 2, 59, 0
4, 210624, Note_on_c, 2, 59, 54
4, 210812, Note_off_c, 2, 59, 0
4, 210816, Note_on_c, 2, 59, 54
4, 211004, Note_off_c, 2, 59, 0
4, 211008, Note_on_c, 2, 59, 54
4, 211196, Note_off_c, 2, 59, 0
4, 211200, Note_on_c, 2, 60, 54
4, 211388, Note_off_c, 2, 60, 0
4, 211392, Note_on_c, 2, 60, 54
4, 211580, Note_off_c, 2, 60, 0
4, 211584, Note_on_c, 2, 60, 54
4, 211772, Note_off_c, 2, 60, 0
4, 211776, Note_on_c, 2, 60, 54
4, 211964, Note_off_c, 2, 60, 0
4, 211968, Note_on_c, 2, 59, 54
4, 212348, Note_off_c, 2, 59, 0
4, 212928, Note_on_c, 2, 55, 54
4, 213116, Note_off_c, 2, 55, 0
4, 213120, Note_on_c, 2, 54, 54
4, 213308, Note_off_c, 2, 54, 0
4, 213312, Note_on_c, 2, 55, 54
4, 213500, Note_off_c, 2, 55, 0
4, 213504, Note_on_c, 2, 57, 54
4, 213692, Note_off_c, 2, 57, 0
4, 213696, Note_on_c, 2, 57, 54
4, 213884, Note_off_c, 2, 57, 0
4, 213888, Note_on_c, 2, 58, 54
4, 214076, Note_off_c, 2, 58, 0
4, 214080, Note_on_c, 2, 58, 54
4, 214268, Note_off_c, 2, 58, 0
4, 214272, Note_on_c, 2, 57, 54
4, 214460, Note_off_c, 2, 57, 0
4, 214464, Note_on_c, 2, 57, 54
4, 214652, Note_off_c, 2, 57, 0
4, 214656, Note_on_c, 2, 55, 54
4, 214844, Note_off_c, 2, 55, 0
4, 214848, Note_on_c, 2, 55, 54
4, 215036, Note_off_c, 2, 55, 0
4, 215040, Note_on_c, 2, 54, 54
4, 215228, Note_off_c, 2, 54, 0
4, 215232, Note_on_c, 2, 54, 54
4, 215420, Note_off_c, 2, 54, 0
4, 215424, Note_on_c, 2, 54, 54
4, 215612, Note_off_c, 2, 54, 0
4, 215616, Note_on_c, 2, 54, 54
4, 215804, Note_off_c, 2, 54, 0
4, 215808, Note_on_c, 2, 55, 54
4, 215996, Note_off_c, 2, 55, 0
4, 216000, Note_on_c, 2, 55, 54
4, 216188, Note_off_c, 2, 55, 0
4, 216192, Note_on_c, 2, 55, 54
4, 216380, Note_off_c, 2, 55, 0
4, 216384, Note_on_c, 2, 55, 54
4, 216572, Note_off_c, 2, 55, 0
4, 216576, Note_on_c, 2, 49, 54
4, 216764, Note_off_c, 2, 49, 0
4, 216768, Note_on_c, 2, 49, 54
4, 216956, Note_off_c, 2, 49, 0
4, 216960, Note_on_c, 2, 49, 54
4, 217148, Note_off_c, 2, 49, 0
4, 217152, Note_on_c, 2, 49, 54
4, 217340, Note_off_c, 2, 49, 0
4, 217344, Note_on_c, 2, 49, 54
4, 217532, Note_off_c, 2, 49, 0
4, 217536, Note_on_c, 2, 49, 54
4, 217724, Note_off_c, 2, 49, 0
4, 217728, Note_on_c, 2, 49, 54
4, 217916, Note_off_c, 2, 49, 0
4, 217920, Note_on_c, 2, 49, 54
4, 218108, Note_off_c, 2, 49, 0
4, 218112, Note_on_c, 2, 50, 87
4, 218300, Note_off_c, 2, 50, 0
4, 218304, Note_on_c, 2, 52, 84
4, 218396, Note_off_c, 2, 52, 0
4, 218400, Note_on_c, 2, 54, 81
4, 218492, Note_off_c, 2, 54, 0
4, 218496, Note_on_c, 2, 55, 81
4, 218588, Note_off_c, 2, 55, 0
4, 218592, Note_on_c, 2, 57, 81
4, 218684, Note_off_c, 2, 57, 0
4, 218688, Note_on_c, 2, 59, 81
4, 218780, Note_off_c, 2, 59, 0
4, 218784, Note_on_c, 2, 61, 81
4, 218876, Note_off_c, 2, 61, 0
4, 218880, Note_on_c, 2, 62, 81
4, 219068, Note_off_c, 2, 62, 0
4, 219072, Note_on_c, 2, 62, 81
4, 219260, Note_off_c, 2, 62, 0
4, 219264, Note_on_c, 2, 62, 81
4, 219452, Note_off_c, 2, 62, 0
4, 219456, Note_on_c, 2, 62, 81
4, 219644, Note_off_c, 2, 62, 0
4, 219648, Note_on_c, 2, 66, 81
4, 219648, Note_on_c, 2, 62, 81
4, 220028, Note_off_c, 2, 66, 0
4, 220028, Note_off_c, 2, 62, 0
4, 220032, Note_on_c, 2, 62, 54
4, 220220, Note_off_c, 2, 62, 0
4, 220416, Note_on_c, 2, 58, 54
4, 220604, Note_off_c, 2, 58, 0
4, 220800, Note_on_c, 2, 55, 54
4, 220988, Note_off_c, 2, 55, 0
4, 221184, Note_on_c, 2, 50, 87
4, 221372, Note_off_c, 2, 50, 0
4, 221376, Note_on_c, 2, 52, 84
4, 221468, Note_off_c, 2, 52, 0
4, 221472, Note_on_c, 2, 54, 82
4, 221564, Note_off_c, 2, 54, 0
4, 221568, Note_on_c, 2, 55, 81
4, 221660, Note_off_c, 2, 55, 0
4, 221664, Note_on_c, 2, 57, 81
4, 221756, Note_off_c, 2, 57, 0
4, 221760, Note_on_c, 2, 59, 81
4, 221852, Note_off_c, 2, 59, 0
4, 221856, Note_on_c, 2, 61, 81
4, 221948, Note_off_c, 2, 61, 0
4, 221952, Note_on_c, 2, 62, 81
4, 222140, Note_off_c, 2, 62, 0
4, 222144, Note_on_c, 2, 62, 81
4, 222332, Note_off_c, 2, 62, 0
4, 222336, Note_on_c, 2, 62, 81
4, 222524, Note_off_c, 2, 62, 0
4, 222528, Note_on_c, 2, 62, 81
4, 222716, Note_off_c, 2, 62, 0
4, 222720, Note_on_c, 2, 66, 81
4, 222720, Note_on_c, 2, 62, 81
4, 223100, Note_off_c, 2, 66, 0
4, 223100, Note_off_c, 2, 62, 0
4, 223104, Note_on_c, 2, 62, 54
4, 223292, Note_off_c, 2, 62, 0
4, 223488, Note_on_c, 2, 58, 54
4, 223676, Note_off_c, 2, 58, 0
4, 223872, Note_on_c, 2, 55, 54
4, 224060, Note_off_c, 2, 55, 0
4, 224256, Note_on_c, 2, 50, 87
4, 224444, Note_off_c, 2, 50, 0
4, 224448, Note_on_c, 2, 52, 84
4, 224540, Note_off_c, 2, 52, 0
4, 224544, Note_on_c, 2, 54, 82
4, 224636, Note_off_c, 2, 54, 0
4, 224640, Note_on_c, 2, 55, 81
4, 224732, Note_off_c, 2, 55, 0
4, 224736, Note_on_c, 2, 57, 81
4, 224828, Note_off_c, 2, 57, 0
4, 224832, Note_on_c, 2, 58, 81
4, 224924, Note_off_c, 2, 58, 0
4, 224928, Note_on_c, 2, 61, 81
4, 225020, Note_off_c, 2, 61, 0
4, 225024, Note_on_c, 2, 62, 81
4, 225212, Note_off_c, 2, 62, 0
4, 225216, Note_on_c, 2, 62, 81
4, 225404, Note_off_c, 2, 62, 0
4, 225408, Note_on_c, 2, 62, 81
4, 225596, Note_off_c, 2, 62, 0
4, 225600, Note_on_c, 2, 62, 81
4, 225788, Note_off_c, 2, 62, 0
4, 225792, Note_on_c, 2, 62, 87
4, 225792, Note_on_c, 2, 50, 87
4, 227324, Note_off_c, 2, 62, 0
4, 227324, Note_off_c, 2, 50, 0
4, 227328, Note_on_c, 2, 50, 67
4, 227328, Note_on_c, 2, 38, 67
4, 228860, Note_off_c, 2, 50, 0
4, 228860, Note_off_c, 2, 38, 0
4, 228864, Note_on_c, 2, 55, 87
4, 228864, Note_on_c, 2, 43, 87
4, 229052, Note_off_c, 2, 55, 0
4, 229052, Note_off_c, 2, 43, 0
4, 229056, Note_on_c, 2, 55, 81
4, 229056, Note_on_c, 2, 43, 81
4, 229244, Note_off_c, 2, 55, 0
4, 229244, Note_off_c, 2, 43, 0
4, 229248, Note_on_c, 2, 55, 81
4, 229248, Note_on_c, 2, 43, 81
4, 229436, Note_off_c, 2, 55, 0
4, 229436, Note_off_c, 2, 43, 0
4, 229440, Note_on_c, 2, 55, 81
4, 229440, Note_on_c, 2, 43, 81
4, 229628, Note_off_c, 2, 55, 0
4, 229628, Note_off_c, 2, 43, 0
4, 229632, Note_on_c, 2, 55, 81
4, 229632, Note_on_c, 2, 43, 81
4, 229820, Note_off_c, 2, 55, 0
4, 229820, Note_off_c, 2, 43, 0
4, 229824, Note_on_c, 2, 55, 81
4, 229824, Note_on_c, 2, 43, 81
4, 230012, Note_off_c, 2, 55, 0
4, 230012, Note_off_c, 2, 43, 0
4, 230016, Note_on_c, 2, 55, 81
4, 230016, Note_on_c, 2, 43, 81
4, 230204, Note_off_c, 2, 55, 0
4, 230204, Note_off_c, 2, 43, 0
4, 230208, Note_on_c, 2, 55, 81
4, 230208, Note_on_c, 2, 43, 81
4, 230396, Note_off_c, 2, 55, 0
4, 230396, Note_off_c, 2, 43, 0
4, 230400, Note_on_c, 2, 54, 81
4, 230400, Note_on_c, 2, 42, 81
4, 230588, Note_off_c, 2, 54, 0
4, 230588, Note_off_c, 2, 42, 0
4, 230592, Note_on_c, 2, 54, 81
4, 230592, Note_on_c, 2, 42, 81
4, 230780, Note_off_c, 2, 54, 0
4, 230780, Note_off_c, 2, 42, 0
4, 230784, Note_on_c, 2, 54, 81
4, 230784, Note_on_c, 2, 42, 81
4, 230972, Note_off_c, 2, 54, 0
4, 230972, Note_off_c, 2, 42, 0
4, 230976, Note_on_c, 2, 54, 81
4, 230976, Note_on_c, 2, 42, 81
4, 231164, Note_off_c, 2, 54, 0
4, 231164, Note_off_c, 2, 42, 0
4, 231168, Note_on_c, 2, 50, 81
4, 231356, Note_off_c, 2, 50, 0
4, 231360, Note_on_c, 2, 50, 81
4, 231548, Note_off_c, 2, 50, 0
4, 231552, Note_on_c, 2, 50, 81
4, 231552, Note_on_c, 2, 66, 81
4, 231740, Note_off_c, 2, 50, 0
4, 231740, Note_off_c, 2, 66, 0
4, 231744, Note_on_c, 2, 50, 81
4, 231744, Note_on_c, 2, 64, 81
4, 231932, Note_off_c, 2, 50, 0
4, 231932, Note_off_c, 2, 64, 0
4, 231936, Note_on_c, 2, 59, 81
4, 231936, Note_on_c, 2, 47, 81
4, 232124, Note_off_c, 2, 59, 0
4, 232124, Note_off_c, 2, 47, 0
4, 232128, Note_on_c, 2, 59, 81
4, 232128, Note_on_c, 2, 47, 81
4, 232316, Note_off_c, 2, 59, 0
4, 232316, Note_off_c, 2, 47, 0
4, 232320, Note_on_c, 2, 55, 81
4, 232320, Note_on_c, 2, 43, 81
4, 232508, Note_off_c, 2, 55, 0
4, 232508, Note_off_c, 2, 43, 0
4, 232512, Note_on_c, 2, 55, 81
4, 232512, Note_on_c, 2, 43, 81
4, 232700, Note_off_c, 2, 55, 0
4, 232700, Note_off_c, 2, 43, 0
4, 232704, Note_on_c, 2, 57, 81
4, 232704, Note_on_c, 2, 45, 81
4, 232892, Note_off_c, 2, 57, 0
4, 232892, Note_off_c, 2, 45, 0
4, 232896, Note_on_c, 2, 57, 81
4, 232896, Note_on_c, 2, 45, 81
4, 233084, Note_off_c, 2, 57, 0
4, 233084, Note_off_c, 2, 45, 0
4, 233088, Note_on_c, 2, 50, 81
4, 233088, Note_on_c, 2, 38, 81
4, 233276, Note_off_c, 2, 50, 0
4, 233276, Note_off_c, 2, 38, 0
4, 233280, Note_on_c, 2, 50, 81
4, 233280, Note_on_c, 2, 38, 81
4, 233468, Note_off_c, 2, 50, 0
4, 233468, Note_off_c, 2, 38, 0
4, 233472, Note_on_c, 2, 55, 81
4, 233472, Note_on_c, 2, 43, 81
4, 233660, Note_off_c, 2, 55, 0
4, 233660, Note_off_c, 2, 43, 0
4, 233664, Note_on_c, 2, 55, 81
4, 233852, Note_off_c, 2, 55, 0
4, 233856, Note_on_c, 2, 59, 54
4, 234044, Note_off_c, 2, 59, 0
4, 234048, Note_on_c, 2, 55, 54
4, 234236, Note_off_c, 2, 55, 0
4, 234240, Note_on_c, 2, 50, 54
4, 234428, Note_off_c, 2, 50, 0
4, 234432, Note_on_c, 2, 55, 54
4, 234620, Note_off_c, 2, 55, 0
4, 234624, Note_on_c, 2, 47, 54
4, 234812, Note_off_c, 2, 47, 0
4, 234816, Note_on_c, 2, 50, 54
4, 235004, Note_off_c, 2, 50, 0
4, 235008, Note_on_c, 2, 50, 54
4, 235008, Note_on_c, 2, 43, 54
4, 235196, Note_off_c, 2, 50, 0
4, 235196, Note_off_c, 2, 43, 0
4, 235200, Note_on_c, 2, 50, 54
4, 235200, Note_on_c, 2, 43, 54
4, 235388, Note_off_c, 2, 50, 0
4, 235388, Note_off_c, 2, 43, 0
4, 235392, Note_on_c, 2, 50, 54
4, 235392, Note_on_c, 2, 43, 54
4, 235580, Note_off_c, 2, 50, 0
4, 235580, Note_off_c, 2, 43, 0
4, 235584, Note_on_c, 2, 50, 54
4, 235584, Note_on_c, 2, 43, 54
4, 235772, Note_off_c, 2, 50, 0
4, 235772, Note_off_c, 2, 43, 0
4, 235776, Note_on_c, 2, 50, 54
4, 235776, Note_on_c, 2, 43, 54
4, 235964, Note_off_c, 2, 50, 0
4, 235964, Note_off_c, 2, 43, 0
4, 235968, Note_on_c, 2, 50, 54
4, 235968, Note_on_c, 2, 43, 54
4, 236156, Note_off_c, 2, 50, 0
4, 236156, Note_off_c, 2, 43, 0
4, 236160, Note_on_c, 2, 50, 54
4, 236160, Note_on_c, 2, 43, 54
4, 236348, Note_off_c, 2, 50, 0
4, 236348, Note_off_c, 2, 43, 0
4, 236352, Note_on_c, 2, 50, 54
4, 236352, Note_on_c, 2, 43, 54
4, 236540, Note_off_c, 2, 50, 0
4, 236540, Note_off_c, 2, 43, 0
4, 236544, Note_on_c, 2, 50, 54
4, 236544, Note_on_c, 2, 42, 54
4, 236636, Note_off_c, 2, 50, 0
4, 236636, Note_off_c, 2, 42, 0
4, 236736, Note_on_c, 2, 50, 54
4, 236736, Note_on_c, 2, 42, 54
4, 236828, Note_off_c, 2, 50, 0
4, 236828, Note_off_c, 2, 42, 0
4, 236928, Note_on_c, 2, 50, 54
4, 236928, Note_on_c, 2, 42, 54
4, 237020, Note_off_c, 2, 50, 0
4, 237020, Note_off_c, 2, 42, 0
4, 237120, Note_on_c, 2, 50, 54
4, 237120, Note_on_c, 2, 42, 54
4, 237212, Note_off_c, 2, 50, 0
4, 237212, Note_off_c, 2, 42, 0
4, 237312, Note_on_c, 2, 42, 54
4, 237404, Note_off_c, 2, 42, 0
4, 237504, Note_on_c, 2, 42, 54
4, 237596, Note_off_c, 2, 42, 0
4, 237696, Note_on_c, 2, 48, 54
4, 237788, Note_off_c, 2, 48, 0
4, 237888, Note_on_c, 2, 48, 54
4, 237980, Note_off_c, 2, 48, 0
4, 238080, Note_on_c, 2, 47, 54
4, 238172, Note_off_c, 2, 47, 0
4, 238464, Note_on_c, 2, 59, 54
4, 238652, Note_off_c, 2, 59, 0
4, 238848, Note_on_c, 2, 57, 54
4, 238848, Note_on_c, 2, 60, 54
4, 238940, Note_off_c, 2, 60, 0
4, 238944, Note_on_c, 2, 59, 54
4, 239036, Note_off_c, 2, 57, 0
4, 239036, Note_off_c, 2, 59, 0
4, 239040, Note_on_c, 2, 57, 54
4, 239132, Note_off_c, 2, 57, 0
4, 239136, Note_on_c, 2, 59, 54
4, 239228, Note_off_c, 2, 59, 0
4, 239232, Note_on_c, 2, 50, 54
4, 239232, Note_on_c, 2, 60, 54
4, 239324, Note_off_c, 2, 60, 0
4, 239328, Note_on_c, 2, 62, 54
4, 239420, Note_off_c, 2, 50, 0
4, 239420, Note_off_c, 2, 62, 0
4, 239424, Note_on_c, 2, 64, 54
4, 239516, Note_off_c, 2, 64, 0
4, 239520, Note_on_c, 2, 66, 54
4, 239612, Note_off_c, 2, 66, 0
4, 239616, Note_on_c, 2, 59, 54
4, 239616, Note_on_c, 2, 55, 54
4, 239804, Note_off_c, 2, 55, 0
4, 239996, Note_off_c, 2, 59, 0
4, 240000, Note_on_c, 2, 59, 54
4, 240000, Note_on_c, 2, 62, 54
4, 240188, Note_off_c, 2, 59, 0
4, 240188, Note_off_c, 2, 62, 0
4, 240384, Note_on_c, 2, 57, 54
4, 240384, Note_on_c, 2, 60, 54
4, 240476, Note_off_c, 2, 60, 0
4, 240480, Note_on_c, 2, 59, 54
4, 240572, Note_off_c, 2, 57, 0
4, 240572, Note_off_c, 2, 59, 0
4, 240576, Note_on_c, 2, 57, 54
4, 240668, Note_off_c, 2, 57, 0
4, 240672, Note_on_c, 2, 59, 54
4, 240764, Note_off_c, 2, 59, 0
4, 240768, Note_on_c, 2, 60, 54
4, 240768, Note_on_c, 2, 50, 54
4, 240860, Note_off_c, 2, 60, 0
4, 240864, Note_on_c, 2, 62, 54
4, 240956, Note_off_c, 2, 50, 0
4, 240956, Note_off_c, 2, 62, 0
4, 240960, Note_on_c, 2, 64, 54
4, 241052, Note_off_c, 2, 64, 0
4, 241056, Note_on_c, 2, 66, 54
4, 241148, Note_off_c, 2, 66, 0
4, 241152, Note_on_c, 2, 59, 81
4, 241152, Note_on_c, 2, 55, 81
4, 241340, Note_off_c, 2, 59, 0
4, 241340, Note_off_c, 2, 55, 0
4, 241536, Note_on_c, 2, 50, 81
4, 241724, Note_off_c, 2, 50, 0
4, 241920, Note_on_c, 2, 55, 81
4, 242108, Note_off_c, 2, 55, 0
4, 242304, Note_on_c, 2, 50, 81
4, 242492, Note_off_c, 2, 50, 0
4, 242688, Note_on_c, 2, 52, 81
4, 242876, Note_off_c, 2, 52, 0
4, 242880, Note_on_c, 2, 52, 81
4, 243068, Note_off_c, 2, 52, 0
4, 243072, Note_on_c, 2, 50, 81
4, 243260, Note_off_c, 2, 50, 0
4, 243264, Note_on_c, 2, 48, 81
4, 243452, Note_off_c, 2, 48, 0
4, 243456, Note_on_c, 2, 47, 81
4, 243836, Note_off_c, 2, 47, 0
4, 244224, Note_on_c, 2, 57, 81
4, 244224, Note_on_c, 2, 45, 81
4, 244604, Note_off_c, 2, 45, 0
4, 244608, Note_on_c, 2, 48, 81
4, 244988, Note_off_c, 2, 57, 0
4, 244988, Note_off_c, 2, 48, 0
4, 244992, Note_on_c, 2, 50, 81
4, 245372, Note_off_c, 2, 50, 0
4, 245376, Note_on_c, 2, 54, 81
4, 245756, Note_off_c, 2, 54, 0
4, 245760, Note_on_c, 2, 55, 81
4, 245948, Note_off_c, 2, 55, 0
4, 246144, Note_on_c, 2, 50, 81
4, 246332, Note_off_c, 2, 50, 0
4, 246528, Note_on_c, 2, 47, 81
4, 246716, Note_off_c, 2, 47, 0
4, 246912, Note_on_c, 2, 43, 81
4, 247100, Note_off_c, 2, 43, 0
4, 247488, Note_on_c, 2, 59, 81
4, 247488, Note_on_c, 2, 47, 81
4, 247676, Note_off_c, 2, 59, 0
4, 247676, Note_off_c, 2, 47, 0
4, 247680, Note_on_c, 2, 55, 81
4, 247680, Note_on_c, 2, 47, 81
4, 247868, Note_off_c, 2, 55, 0
4, 247868, Note_off_c, 2, 47, 0
4, 247872, Note_on_c, 2, 47, 81
4, 248060, Note_off_c, 2, 47, 0
4, 248064, Note_on_c, 2, 48, 81
4, 248252, Note_off_c, 2, 48, 0
4, 248256, Note_on_c, 2, 57, 81
4, 248256, Note_on_c, 2, 48, 81
4, 248444, Note_off_c, 2, 57, 0
4, 248444, Note_off_c, 2, 48, 0
4, 248448, Note_on_c, 2, 50, 81
4, 248636, Note_off_c, 2, 50, 0
4, 248640, Note_on_c, 2, 50, 81
4, 248828, Note_off_c, 2, 50, 0
4, 248832, Note_on_c, 2, 55, 87
4, 248832, Note_on_c, 2, 43, 87
4, 249212, Note_off_c, 2, 55, 0
4, 249212, Note_off_c, 2, 43, 0
4, 249216, Note_on_c, 2, 59, 81
4, 249216, Note_on_c, 2, 47, 81
4, 249596, Note_off_c, 2, 59, 0
4, 249596, Note_off_c, 2, 47, 0
4, 249600, Note_on_c, 2, 62, 81
4, 249600, Note_on_c, 2, 50, 81
4, 249980, Note_off_c, 2, 62, 0
4, 249980, Note_off_c, 2, 50, 0
4, 249984, Note_on_c, 2, 60, 81
4, 249984, Note_on_c, 2, 54, 81
4, 249984, Note_on_c, 2, 50, 81
4, 250364, Note_off_c, 2, 60, 0
4, 250364, Note_off_c, 2, 54, 0
4, 250364, Note_off_c, 2, 50, 0
4, 250368, Note_on_c, 2, 59, 81
4, 250368, Note_on_c, 2, 55, 81
4, 250748, Note_off_c, 2, 59, 0
4, 250748, Note_off_c, 2, 55, 0
4, 250752, Note_on_c, 2, 60, 81
4, 250752, Note_on_c, 2, 54, 81
4, 250752, Note_on_c, 2, 50, 81
4, 250940, Note_off_c, 2, 60, 0
4, 250940, Note_off_c, 2, 54, 0
4, 250940, Note_off_c, 2, 50, 0
4, 250944, Note_on_c, 2, 60, 81
4, 250944, Note_on_c, 2, 54, 81
4, 250944, Note_on_c, 2, 50, 81
4, 251132, Note_off_c, 2, 60, 0
4, 251132, Note_off_c, 2, 54, 0
4, 251132, Note_off_c, 2, 50, 0
4, 251136, Note_on_c, 2, 59, 81
4, 251136, Note_on_c, 2, 55, 81
4, 251516, Note_off_c, 2, 59, 0
4, 251516, Note_off_c, 2, 55, 0
4, 251520, Note_on_c, 2, 65, 81
4, 251520, Note_on_c, 2, 62, 81
4, 251520, Note_on_c, 2, 55, 81
4, 251708, Note_off_c, 2, 65, 0
4, 251708, Note_off_c, 2, 62, 0
4, 251708, Note_off_c, 2, 55, 0
4, 251712, Note_on_c, 2, 65, 81
4, 251712, Note_on_c, 2, 62, 81
4, 251712, Note_on_c, 2, 55, 81
4, 251900, Note_off_c, 2, 65, 0
4, 251900, Note_off_c, 2, 62, 0
4, 251900, Note_off_c, 2, 55, 0
4, 251904, Note_on_c, 2, 60, 81
4, 251904, Note_on_c, 2, 64, 81
4, 252092, Note_off_c, 2, 60, 0
4, 252092, Note_off_c, 2, 64, 0
4, 253632, Note_on_c, 2, 47, 54
4, 253820, Note_off_c, 2, 47, 0
4, 253824, Note_on_c, 2, 47, 54
4, 254012, Note_off_c, 2, 47, 0
4, 254016, Note_on_c, 2, 47, 54
4, 254204, Note_off_c, 2, 47, 0
4, 254208, Note_on_c, 2, 47, 54
4, 254396, Note_off_c, 2, 47, 0
4, 254400, Note_on_c, 2, 47, 54
4, 254588, Note_off_c, 2, 47, 0
4, 254592, Note_on_c, 2, 47, 54
4, 254780, Note_off_c, 2, 47, 0
4, 254784, Note_on_c, 2, 47, 54
4, 254972, Note_off_c, 2, 47, 0
4, 254976, Note_on_c, 2, 48, 54
4, 255356, Note_off_c, 2, 48, 0
4, 256512, Note_on_c, 2, 60, 54
4, 256892, Note_off_c, 2, 60, 0
4, 256896, Note_on_c, 2, 62, 54
4, 256896, Note_on_c, 2, 56, 54
4, 257276, Note_off_c, 2, 62, 0
4, 257276, Note_off_c, 2, 56, 0
4, 257280, Note_on_c, 2, 60, 54
4, 257280, Note_on_c, 2, 57, 54
4, 257660, Note_off_c, 2, 60, 0
4, 257660, Note_off_c, 2, 57, 0
4, 257664, Note_on_c, 2, 55, 54
4, 258044, Note_off_c, 2, 55, 0
4, 258048, Note_on_c, 2, 54, 54
4, 258236, Note_off_c, 2, 54, 0
4, 258240, Note_on_c, 2, 54, 54
4, 258428, Note_off_c, 2, 54, 0
4, 258432, Note_on_c, 2, 54, 54
4, 258620, Note_off_c, 2, 54, 0
4, 258624, Note_on_c, 2, 54, 54
4, 258812, Note_off_c, 2, 54, 0
4, 258816, Note_on_c, 2, 55, 54
4, 259004, Note_off_c, 2, 55, 0
4, 259008, Note_on_c, 2, 55, 54
4, 259196, Note_off_c, 2, 55, 0
4, 259200, Note_on_c, 2, 47, 54
4, 259388, Note_off_c, 2, 47, 0
4, 259392, Note_on_c, 2, 47, 54
4, 259580, Note_off_c, 2, 47, 0
4, 259584, Note_on_c, 2, 60, 54
4, 259584, Note_on_c, 2, 48, 54
4, 259772, Note_off_c, 2, 60, 0
4, 259772, Note_off_c, 2, 48, 0
4, 259776, Note_on_c, 2, 55, 54
4, 259776, Note_on_c, 2, 48, 54
4, 259964, Note_off_c, 2, 55, 0
4, 259964, Note_off_c, 2, 48, 0
4, 259968, Note_on_c, 2, 56, 54
4, 259968, Note_on_c, 2, 48, 54
4, 260156, Note_off_c, 2, 56, 0
4, 260156, Note_off_c, 2, 48, 0
4, 260160, Note_on_c, 2, 55, 54
4, 260160, Note_on_c, 2, 48, 54
4, 260348, Note_off_c, 2, 55, 0
4, 260348, Note_off_c, 2, 48, 0
4, 260352, Note_on_c, 2, 54, 54
4, 260352, Note_on_c, 2, 48, 54
4, 260540, Note_off_c, 2, 54, 0
4, 260540, Note_off_c, 2, 48, 0
4, 260544, Note_on_c, 2, 48, 54
4, 260732, Note_off_c, 2, 48, 0
4, 260736, Note_on_c, 2, 48, 54
4, 260924, Note_off_c, 2, 48, 0
4, 260928, Note_on_c, 2, 48, 54
4, 261116, Note_off_c, 2, 48, 0
4, 261120, Note_on_c, 2, 50, 54
4, 261120, Note_on_c, 2, 47, 54
4, 261500, Note_off_c, 2, 50, 0
4, 261500, Note_off_c, 2, 47, 0
4, 261696, Note_on_c, 2, 50, 54
4, 261696, Note_on_c, 2, 47, 54
4, 261884, Note_off_c, 2, 50, 0
4, 261884, Note_off_c, 2, 47, 0
4, 261888, Note_on_c, 2, 42, 54
4, 262268, Note_off_c, 2, 42, 0
4, 262464, Note_on_c, 2, 42, 54
4, 262652, Note_off_c, 2, 42, 0
4, 262656, Note_on_c, 2, 42, 54
4, 263036, Note_off_c, 2, 42, 0
4, 263232, Note_on_c, 2, 59, 54
4, 263232, Note_on_c, 2, 55, 54
4, 263420, Note_off_c, 2, 59, 0
4, 263420, Note_off_c, 2, 55, 0
4, 263424, Note_on_c, 2, 57, 54
4, 263424, Note_on_c, 2, 54, 54
4, 263804, Note_off_c, 2, 57, 0
4, 263804, Note_off_c, 2, 54, 0
4, 264000, Note_on_c, 2, 54, 54
4, 264188, Note_off_c, 2, 54, 0
4, 264192, Note_on_c, 2, 55, 54
4, 264572, Note_off_c, 2, 55, 0
4, 265344, Note_on_c, 2, 55, 54
4, 265344, Note_on_c, 2, 47, 54
4, 265724, Note_off_c, 2, 55, 0
4, 265724, Note_off_c, 2, 47, 0
4, 265728, Note_on_c, 2, 48, 54
4, 266108, Note_off_c, 2, 48, 0
4, 266112, Note_on_c, 2, 59, 54
4, 266492, Note_off_c, 2, 59, 0
4, 266496, Note_on_c, 2, 60, 54
4, 266876, Note_off_c, 2, 60, 0
4, 266880, Note_on_c, 2, 65, 54
4, 267260, Note_off_c, 2, 65, 0
4, 267264, Note_on_c, 2, 48, 54
4, 267452, Note_off_c, 2, 48, 0
4, 267648, Note_on_c, 2, 48, 54
4, 267836, Note_off_c, 2, 48, 0
4, 268032, Note_on_c, 2, 57, 54
4, 268032, Note_on_c, 2, 48, 54
4, 268220, Note_off_c, 2, 57, 0
4, 268220, Note_off_c, 2, 48, 0
4, 268416, Note_on_c, 2, 57, 54
4, 268416, Note_on_c, 2, 49, 54
4, 268604, Note_off_c, 2, 57, 0
4, 268604, Note_off_c, 2, 49, 0
4, 268800, Note_on_c, 2, 57, 54
4, 268800, Note_on_c, 2, 50, 54
4, 268988, Note_off_c, 2, 57, 0
4, 268988, Note_off_c, 2, 50, 0
4, 269952, Note_on_c, 2, 62, 54
4, 270044, Note_off_c, 2, 62, 0
4, 270048, Note_on_c, 2, 66, 54
4, 270140, Note_off_c, 2, 66, 0
4, 270144, Note_on_c, 2, 64, 54
4, 270224, Note_on_c, 2, 67, 54
4, 270236, Note_off_c, 2, 64, 0
4, 270316, Note_off_c, 2, 67, 0
4, 270336, Note_on_c, 2, 66, 54
4, 270524, Note_off_c, 2, 66, 0
4, 272064, Note_on_c, 2, 50, 81
4, 272252, Note_off_c, 2, 50, 0
4, 272256, Note_on_c, 2, 52, 81
4, 272444, Note_off_c, 2, 52, 0
4, 272448, Note_on_c, 2, 54, 81
4, 272636, Note_off_c, 2, 54, 0
4, 272640, Note_on_c, 2, 55, 81
4, 272828, Note_off_c, 2, 55, 0
4, 272832, Note_on_c, 2, 57, 81
4, 273020, Note_off_c, 2, 57, 0
4, 273024, Note_on_c, 2, 59, 81
4, 273116, Note_off_c, 2, 59, 0
4, 273120, Note_on_c, 2, 62, 81
4, 273212, Note_off_c, 2, 62, 0
4, 273216, Note_on_c, 2, 61, 81
4, 273308, Note_off_c, 2, 61, 0
4, 273312, Note_on_c, 2, 64, 81
4, 273404, Note_off_c, 2, 64, 0
4, 273408, Note_on_c, 2, 62, 81
4, 273788, Note_off_c, 2, 62, 0
4, 274944, Note_on_c, 2, 50, 54
4, 275132, Note_off_c, 2, 50, 0
4, 275136, Note_on_c, 2, 50, 54
4, 275324, Note_off_c, 2, 50, 0
4, 275328, Note_on_c, 2, 50, 54
4, 275516, Note_off_c, 2, 50, 0
4, 275520, Note_on_c, 2, 50, 54
4, 275708, Note_off_c, 2, 50, 0
4, 275712, Note_on_c, 2, 50, 54
4, 275900, Note_off_c, 2, 50, 0
4, 275904, Note_on_c, 2, 50, 54
4, 276092, Note_off_c, 2, 50, 0
4, 276096, Note_on_c, 2, 50, 54
4, 276284, Note_off_c, 2, 50, 0
4, 276288, Note_on_c, 2, 50, 54
4, 276476, Note_off_c, 2, 50, 0
4, 276480, Note_on_c, 2, 47, 54
4, 276860, Note_off_c, 2, 47, 0
4, 278016, Note_on_c, 2, 47, 54
4, 278204, Note_off_c, 2, 47, 0
4, 278208, Note_on_c, 2, 47, 54
4, 278396, Note_off_c, 2, 47, 0
4, 278400, Note_on_c, 2, 47, 54
4, 278588, Note_off_c, 2, 47, 0
4, 278592, Note_on_c, 2, 47, 54
4, 278780, Note_off_c, 2, 47, 0
4, 278784, Note_on_c, 2, 47, 54
4, 278972, Note_off_c, 2, 47, 0
4, 278976, Note_on_c, 2, 47, 54
4, 279164, Note_off_c, 2, 47, 0
4, 279168, Note_on_c, 2, 47, 54
4, 279356, Note_off_c, 2, 47, 0
4, 279360, Note_on_c, 2, 47, 54
4, 279548, Note_off_c, 2, 47, 0
4, 279552, Note_on_c, 2, 54, 54
4, 279552, Note_on_c, 2, 42, 54
4, 279932, Note_off_c, 2, 54, 0
4, 279932, Note_off_c, 2, 42, 0
4, 281088, Note_on_c, 2, 50, 54
4, 281088, Note_on_c, 2, 38, 54
4, 282620, Note_off_c, 2, 50, 0
4, 282620, Note_off_c, 2, 38, 0
4, 282624, Note_on_c, 2, 59, 54
4, 282624, Note_on_c, 2, 57, 54
4, 282624, Note_on_c, 2, 54, 54
4, 282624, Note_on_c, 2, 51, 54
4, 282812, Note_off_c, 2, 51, 0
4, 282816, Note_on_c, 2, 51, 54
4, 283004, Note_off_c, 2, 59, 0
4, 283004, Note_off_c, 2, 57, 0
4, 283004, Note_off_c, 2, 54, 0
4, 283004, Note_off_c, 2, 51, 0
4, 283008, Note_on_c, 2, 63, 54
4, 283008, Note_on_c, 2, 51, 54
4, 283196, Note_off_c, 2, 63, 0
4, 283196, Note_off_c, 2, 51, 0
4, 283200, Note_on_c, 2, 63, 54
4, 283200, Note_on_c, 2, 51, 54
4, 283388, Note_off_c, 2, 63, 0
4, 283388, Note_off_c, 2, 51, 0
4, 283392, Note_on_c, 2, 64, 54
4, 283392, Note_on_c, 2, 52, 54
4, 283580, Note_off_c, 2, 64, 0
4, 283580, Note_off_c, 2, 52, 0
4, 283584, Note_on_c, 2, 64, 54
4, 283584, Note_on_c, 2, 52, 54
4, 283772, Note_off_c, 2, 64, 0
4, 283772, Note_off_c, 2, 52, 0
4, 283776, Note_on_c, 2, 64, 54
4, 283776, Note_on_c, 2, 52, 54
4, 283964, Note_off_c, 2, 64, 0
4, 283964, Note_off_c, 2, 52, 0
4, 283968, Note_on_c, 2, 64, 54
4, 283968, Note_on_c, 2, 52, 54
4, 284156, Note_off_c, 2, 64, 0
4, 284156, Note_off_c, 2, 52, 0
4, 284160, Note_on_c, 2, 63, 54
4, 284160, Note_on_c, 2, 51, 54
4, 284348, Note_off_c, 2, 63, 0
4, 284348, Note_off_c, 2, 51, 0
4, 284352, Note_on_c, 2, 63, 54
4, 284352, Note_on_c, 2, 51, 54
4, 284540, Note_off_c, 2, 63, 0
4, 284540, Note_off_c, 2, 51, 0
4, 284544, Note_on_c, 2, 63, 54
4, 284544, Note_on_c, 2, 51, 54
4, 284732, Note_off_c, 2, 63, 0
4, 284732, Note_off_c, 2, 51, 0
4, 284736, Note_on_c, 2, 63, 54
4, 284736, Note_on_c, 2, 51, 54
4, 284924, Note_off_c, 2, 63, 0
4, 284924, Note_off_c, 2, 51, 0
4, 284928, Note_on_c, 2, 62, 54
4, 284928, Note_on_c, 2, 50, 54
4, 285116, Note_off_c, 2, 62, 0
4, 285116, Note_off_c, 2, 50, 0
4, 285120, Note_on_c, 2, 62, 54
4, 285120, Note_on_c, 2, 50, 54
4, 285308, Note_off_c, 2, 62, 0
4, 285308, Note_off_c, 2, 50, 0
4, 285312, Note_on_c, 2, 62, 54
4, 285312, Note_on_c, 2, 50, 54
4, 285500, Note_off_c, 2, 62, 0
4, 285500, Note_off_c, 2, 50, 0
4, 285504, Note_on_c, 2, 62, 54
4, 285504, Note_on_c, 2, 50, 54
4, 285692, Note_off_c, 2, 62, 0
4, 285692, Note_off_c, 2, 50, 0
4, 285696, Note_on_c, 2, 60, 54
4, 285696, Note_on_c, 2, 48, 54
4, 285884, Note_off_c, 2, 60, 0
4, 285884, Note_off_c, 2, 48, 0
4, 285888, Note_on_c, 2, 48, 54
4, 286076, Note_off_c, 2, 48, 0
4, 286080, Note_on_c, 2, 48, 54
4, 286268, Note_off_c, 2, 48, 0
4, 286272, Note_on_c, 2, 48, 54
4, 286460, Note_off_c, 2, 48, 0
4, 286464, Note_on_c, 2, 50, 54
4, 286652, Note_off_c, 2, 50, 0
4, 286656, Note_on_c, 2, 50, 54
4, 286844, Note_off_c, 2, 50, 0
4, 286848, Note_on_c, 2, 50, 54
4, 287036, Note_off_c, 2, 50, 0
4, 287040, Note_on_c, 2, 50, 54
4, 287228, Note_off_c, 2, 50, 0
4, 287232, Note_on_c, 2, 43, 54
4, 287420, Note_off_c, 2, 43, 0
4, 287424, Note_on_c, 2, 43, 81
4, 287612, Note_off_c, 2, 43, 0
4, 287616, Note_on_c, 2, 45, 81
4, 287804, Note_off_c, 2, 45, 0
4, 287808, Note_on_c, 2, 47, 81
4, 287996, Note_off_c, 2, 47, 0
4, 288000, Note_on_c, 2, 48, 81
4, 288188, Note_off_c, 2, 48, 0
4, 288192, Note_on_c, 2, 50, 81
4, 288380, Note_off_c, 2, 50, 0
4, 288384, Note_on_c, 2, 52, 81
4, 288476, Note_off_c, 2, 52, 0
4, 288480, Note_on_c, 2, 55, 81
4, 288572, Note_off_c, 2, 55, 0
4, 288576, Note_on_c, 2, 54, 81
4, 288668, Note_off_c, 2, 54, 0
4, 288672, Note_on_c, 2, 57, 81
4, 288764, Note_off_c, 2, 57, 0
4, 288768, Note_on_c, 2, 55, 81
4, 289148, Note_off_c, 2, 55, 0
4, 297984, Note_on_c, 2, 60, 54
4, 297984, Note_on_c, 2, 52, 54
4, 298172, Note_off_c, 2, 60, 0
4, 298172, Note_off_c, 2, 52, 0
4, 298176, Note_on_c, 2, 52, 54
4, 298176, Note_on_c, 2, 60, 54
4, 298364, Note_off_c, 2, 52, 0
4, 298364, Note_off_c, 2, 60, 0
4, 298368, Note_on_c, 2, 61, 54
4, 298368, Note_on_c, 2, 52, 54
4, 298556, Note_off_c, 2, 61, 0
4, 298556, Note_off_c, 2, 52, 0
4, 298560, Note_on_c, 2, 61, 54
4, 298560, Note_on_c, 2, 52, 54
4, 298748, Note_off_c, 2, 61, 0
4, 298748, Note_off_c, 2, 52, 0
4, 298752, Note_on_c, 2, 50, 54
4, 298940, Note_off_c, 2, 50, 0
4, 298944, Note_on_c, 2, 50, 54
4, 299132, Note_off_c, 2, 50, 0
4, 299136, Note_on_c, 2, 49, 54
4, 299324, Note_off_c, 2, 49, 0
4, 299328, Note_on_c, 2, 49, 54
4, 299516, Note_off_c, 2, 49, 0
4, 299520, Note_on_c, 2, 48, 54
4, 300284, Note_off_c, 2, 48, 0
4, 300288, Note_on_c, 2, 47, 54
4, 300668, Note_off_c, 2, 47, 0
4, 301248, Note_on_c, 2, 59, 81
4, 301340, Note_off_c, 2, 59, 0
4, 301344, Note_on_c, 2, 57, 81
4, 301436, Note_off_c, 2, 57, 0
4, 301440, Note_on_c, 2, 55, 81
4, 301628, Note_off_c, 2, 55, 0
4, 301632, Note_on_c, 2, 52, 81
4, 301632, Note_on_c, 2, 64, 81
4, 301820, Note_off_c, 2, 52, 0
4, 301820, Note_off_c, 2, 64, 0
4, 301824, Note_on_c, 2, 60, 81
4, 301824, Note_on_c, 2, 48, 81
4, 302012, Note_off_c, 2, 60, 0
4, 302012, Note_off_c, 2, 48, 0
4, 302016, Note_on_c, 2, 57, 81
4, 302016, Note_on_c, 2, 45, 81
4, 302204, Note_off_c, 2, 57, 0
4, 302204, Note_off_c, 2, 45, 0
4, 302208, Note_on_c, 2, 62, 81
4, 302208, Note_on_c, 2, 50, 81
4, 302396, Note_off_c, 2, 62, 0
4, 302396, Note_off_c, 2, 50, 0
4, 302400, Note_on_c, 2, 50, 81
4, 302400, Note_on_c, 2, 38, 81
4, 302588, Note_off_c, 2, 50, 0
4, 302588, Note_off_c, 2, 38, 0
4, 302592, Note_on_c, 2, 55, 81
4, 302592, Note_on_c, 2, 43, 81
4, 302972, Note_off_c, 2, 55, 0
4, 302972, Note_off_c, 2, 43, 0
4, 302976, Note_on_c, 2, 67, 54
4, 303164, Note_off_c, 2, 67, 0
4, 303168, Note_on_c, 2, 66, 54
4, 303356, Note_off_c, 2, 66, 0
4, 303360, Note_on_c, 2, 64, 54
4, 303740, Note_off_c, 2, 64, 0
4, 303744, Note_on_c, 2, 62, 54
4, 304124, Note_off_c, 2, 62, 0
4, 304128, Note_on_c, 2, 60, 54
4, 304316, Note_off_c, 2, 60, 0
4, 304512, Note_on_c, 2, 48, 54
4, 304892, Note_off_c, 2, 48, 0
4, 304896, Note_on_c, 2, 50, 54
4, 305276, Note_off_c, 2, 50, 0
4, 305280, Note_on_c, 2, 50, 54
4, 305660, Note_off_c, 2, 50, 0
4, 305664, Note_on_c, 2, 55, 54
4, 306044, Note_off_c, 2, 55, 0
4, 306048, Note_on_c, 2, 55, 54
4, 306048, Note_on_c, 2, 43, 54
4, 306236, Note_off_c, 2, 55, 0
4, 306236, Note_off_c, 2, 43, 0
4, 306240, Note_on_c, 2, 54, 54
4, 306240, Note_on_c, 2, 42, 54
4, 306428, Note_off_c, 2, 54, 0
4, 306428, Note_off_c, 2, 42, 0
4, 306432, Note_on_c, 2, 52, 54
4, 306432, Note_on_c, 2, 40, 54
4, 306812, Note_off_c, 2, 52, 0
4, 306812, Note_off_c, 2, 40, 0
4, 306816, Note_on_c, 2, 50, 54
4, 306816, Note_on_c, 2, 38, 54
4, 307196, Note_off_c, 2, 50, 0
4, 307196, Note_off_c, 2, 38, 0
4, 307200, Note_on_c, 2, 48, 54
4, 307200, Note_on_c, 2, 36, 54
4, 307580, Note_off_c, 2, 48, 0
4, 307580, Note_off_c, 2, 36, 0
4, 307584, Note_on_c, 2, 52, 54
4, 307584, Note_on_c, 2, 48, 54
4, 307964, Note_off_c, 2, 52, 0
4, 307964, Note_off_c, 2, 48, 0
4, 307968, Note_on_c, 2, 50, 54
4, 308348, Note_off_c, 2, 50, 0
4, 308352, Note_on_c, 2, 50, 54
4, 308540, Note_off_c, 2, 50, 0
4, 308544, Note_on_c, 2, 60, 54
4, 308732, Note_off_c, 2, 60, 0
4, 308736, Note_on_c, 2, 59, 54
4, 308736, Note_on_c, 2, 55, 54
4, 309116, Note_off_c, 2, 59, 0
4, 309116, Note_off_c, 2, 55, 0
4, 310272, Note_on_c, 2, 60, 54
4, 311036, Note_off_c, 2, 60, 0
4, 311040, Note_on_c, 2, 59, 54
4, 311804, Note_off_c, 2, 59, 0
4, 311808, Note_on_c, 2, 60, 54
4, 312572, Note_off_c, 2, 60, 0
4, 312576, Note_on_c, 2, 59, 54
4, 313340, Note_off_c, 2, 59, 0
4, 313344, Note_on_c, 2, 60, 54
4, 313532, Note_off_c, 2, 60, 0
4, 314496, Note_on_c, 2, 49, 54
4, 314496, Note_on_c, 2, 37, 54
4, 314876, Note_off_c, 2, 49, 0
4, 314876, Note_off_c, 2, 37, 0
4, 314880, Note_on_c, 2, 38, 54
4, 315068, Note_off_c, 2, 38, 0
4, 315072, Note_on_c, 2, 50, 54
4, 315260, Note_off_c, 2, 50, 0
4, 315264, Note_on_c, 2, 38, 54
4, 315452, Note_off_c, 2, 38, 0
4, 315456, Note_on_c, 2, 50, 54
4, 315644, Note_off_c, 2, 50, 0
4, 315648, Note_on_c, 2, 39, 54
4, 315836, Note_off_c, 2, 39, 0
4, 315840, Note_on_c, 2, 51, 54
4, 316028, Note_off_c, 2, 51, 0
4, 316032, Note_on_c, 2, 39, 54
4, 316220, Note_off_c, 2, 39, 0
4, 316224, Note_on_c, 2, 51, 54
4, 316412, Note_off_c, 2, 51, 0
4, 316416, Note_on_c, 2, 52, 54
4, 316416, Note_on_c, 2, 40, 54
4, 316604, Note_off_c, 2, 52, 0
4, 316604, Note_off_c, 2, 40, 0
4, 316800, Note_on_c, 2, 52, 54
4, 316800, Note_on_c, 2, 40, 54
4, 317180, Note_off_c, 2, 52, 0
4, 317180, Note_off_c, 2, 40, 0
4, 317184, Note_on_c, 2, 50, 54
4, 317184, Note_on_c, 2, 38, 54
4, 317564, Note_off_c, 2, 50, 0
4, 317564, Note_off_c, 2, 38, 0
4, 317568, Note_on_c, 2, 49, 54
4, 317568, Note_on_c, 2, 37, 54
4, 317948, Note_off_c, 2, 49, 0
4, 317948, Note_off_c, 2, 37, 0
4, 317952, Note_on_c, 2, 50, 54
4, 317952, Note_on_c, 2, 38, 54
4, 318140, Note_off_c, 2, 50, 0
4, 318140, Note_off_c, 2, 38, 0
4, 318144, Note_on_c, 2, 50, 54
4, 318144, Note_on_c, 2, 38, 54
4, 318332, Note_off_c, 2, 50, 0
4, 318332, Note_off_c, 2, 38, 0
4, 318336, Note_on_c, 2, 50, 54
4, 318336, Note_on_c, 2, 38, 54
4, 318524, Note_off_c, 2, 50, 0
4, 318524, Note_off_c, 2, 38, 0
4, 318528, Note_on_c, 2, 50, 54
4, 318528, Note_on_c, 2, 38, 54
4, 318716, Note_off_c, 2, 50, 0
4, 318716, Note_off_c, 2, 38, 0
4, 318720, Note_on_c, 2, 50, 54
4, 318720, Note_on_c, 2, 38, 54
4, 318908, Note_off_c, 2, 50, 0
4, 318908, Note_off_c, 2, 38, 0
4, 318912, Note_on_c, 2, 50, 54
4, 318912, Note_on_c, 2, 38, 54
4, 319100, Note_off_c, 2, 50, 0
4, 319100, Note_off_c, 2, 38, 0
4, 319104, Note_on_c, 2, 50, 54
4, 319104, Note_on_c, 2, 38, 54
4, 319292, Note_off_c, 2, 50, 0
4, 319292, Note_off_c, 2, 38, 0
4, 319296, Note_on_c, 2, 50, 54
4, 319296, Note_on_c, 2, 38, 54
4, 319484, Note_off_c, 2, 50, 0
4, 319484, Note_off_c, 2, 38, 0
4, 319488, Note_on_c, 2, 50, 54
4, 319488, Note_on_c, 2, 38, 54
4, 319676, Note_off_c, 2, 50, 0
4, 319676, Note_off_c, 2, 38, 0
4, 319680, Note_on_c, 2, 50, 54
4, 319680, Note_on_c, 2, 38, 54
4, 319868, Note_off_c, 2, 50, 0
4, 319868, Note_off_c, 2, 38, 0
4, 319872, Note_on_c, 2, 50, 54
4, 319872, Note_on_c, 2, 38, 54
4, 320060, Note_off_c, 2, 50, 0
4, 320060, Note_off_c, 2, 38, 0
4, 320064, Note_on_c, 2, 50, 54
4, 320064, Note_on_c, 2, 38, 54
4, 320252, Note_off_c, 2, 50, 0
4, 320252, Note_off_c, 2, 38, 0
4, 320256, Note_on_c, 2, 50, 54
4, 320256, Note_on_c, 2, 38, 54
4, 320444, Note_off_c, 2, 50, 0
4, 320444, Note_off_c, 2, 38, 0
4, 320448, Note_on_c, 2, 50, 54
4, 320448, Note_on_c, 2, 38, 54
4, 320636, Note_off_c, 2, 50, 0
4, 320636, Note_off_c, 2, 38, 0
4, 320640, Note_on_c, 2, 50, 54
4, 320640, Note_on_c, 2, 38, 54
4, 320828, Note_off_c, 2, 50, 0
4, 320828, Note_off_c, 2, 38, 0
4, 320832, Note_on_c, 2, 50, 54
4, 320832, Note_on_c, 2, 38, 54
4, 321020, Note_off_c, 2, 50, 0
4, 321020, Note_off_c, 2, 38, 0
4, 321024, Note_on_c, 2, 55, 87
4, 321024, Note_on_c, 2, 43, 87
4, 321212, Note_off_c, 2, 55, 0
4, 321212, Note_off_c, 2, 43, 0
4, 321216, Note_on_c, 2, 55, 81
4, 321216, Note_on_c, 2, 43, 81
4, 321404, Note_off_c, 2, 55, 0
4, 321404, Note_off_c, 2, 43, 0
4, 321408, Note_on_c, 2, 55, 81
4, 321408, Note_on_c, 2, 43, 81
4, 321596, Note_off_c, 2, 55, 0
4, 321596, Note_off_c, 2, 43, 0
4, 321600, Note_on_c, 2, 55, 81
4, 321600, Note_on_c, 2, 43, 81
4, 321788, Note_off_c, 2, 55, 0
4, 321788, Note_off_c, 2, 43, 0
4, 321792, Note_on_c, 2, 55, 81
4, 321792, Note_on_c, 2, 43, 81
4, 321980, Note_off_c, 2, 55, 0
4, 321980, Note_off_c, 2, 43, 0
4, 321984, Note_on_c, 2, 55, 81
4, 321984, Note_on_c, 2, 43, 81
4, 322172, Note_off_c, 2, 55, 0
4, 322172, Note_off_c, 2, 43, 0
4, 322176, Note_on_c, 2, 55, 81
4, 322176, Note_on_c, 2, 43, 81
4, 322364, Note_off_c, 2, 55, 0
4, 322364, Note_off_c, 2, 43, 0
4, 322368, Note_on_c, 2, 55, 81
4, 322368, Note_on_c, 2, 43, 81
4, 322556, Note_off_c, 2, 55, 0
4, 322556, Note_off_c, 2, 43, 0
4, 322560, Note_on_c, 2, 54, 81
4, 322560, Note_on_c, 2, 42, 81
4, 322652, Note_off_c, 2, 54, 0
4, 322652, Note_off_c, 2, 42, 0
4, 322752, Note_on_c, 2, 54, 81
4, 322752, Note_on_c, 2, 42, 81
4, 322844, Note_off_c, 2, 54, 0
4, 322844, Note_off_c, 2, 42, 0
4, 322944, Note_on_c, 2, 54, 81
4, 322944, Note_on_c, 2, 42, 81
4, 323036, Note_off_c, 2, 54, 0
4, 323036, Note_off_c, 2, 42, 0
4, 323136, Note_on_c, 2, 54, 81
4, 323136, Note_on_c, 2, 42, 81
4, 323228, Note_off_c, 2, 54, 0
4, 323228, Note_off_c, 2, 42, 0
4, 323328, Note_on_c, 2, 54, 81
4, 323328, Note_on_c, 2, 42, 81
4, 323420, Note_off_c, 2, 54, 0
4, 323420, Note_off_c, 2, 42, 0
4, 323520, Note_on_c, 2, 54, 81
4, 323520, Note_on_c, 2, 42, 81
4, 323612, Note_off_c, 2, 54, 0
4, 323612, Note_off_c, 2, 42, 0
4, 323712, Note_on_c, 2, 54, 81
4, 323712, Note_on_c, 2, 42, 81
4, 323804, Note_off_c, 2, 54, 0
4, 323804, Note_off_c, 2, 42, 0
4, 323904, Note_on_c, 2, 54, 81
4, 323904, Note_on_c, 2, 42, 81
4, 323996, Note_off_c, 2, 54, 0
4, 323996, Note_off_c, 2, 42, 0
4, 324096, Note_on_c, 2, 60, 81
4, 324096, Note_on_c, 2, 48, 81
4, 324284, Note_off_c, 2, 60, 0
4, 324284, Note_off_c, 2, 48, 0
4, 324288, Note_on_c, 2, 60, 81
4, 324288, Note_on_c, 2, 48, 81
4, 324476, Note_off_c, 2, 60, 0
4, 324476, Note_off_c, 2, 48, 0
4, 324480, Note_on_c, 2, 60, 81
4, 324480, Note_on_c, 2, 48, 81
4, 324668, Note_off_c, 2, 60, 0
4, 324668, Note_off_c, 2, 48, 0
4, 324672, Note_on_c, 2, 60, 81
4, 324672, Note_on_c, 2, 48, 81
4, 324860, Note_off_c, 2, 60, 0
4, 324860, Note_off_c, 2, 48, 0
4, 324864, Note_on_c, 2, 60, 81
4, 324864, Note_on_c, 2, 48, 81
4, 325052, Note_off_c, 2, 60, 0
4, 325052, Note_off_c, 2, 48, 0
4, 325056, Note_on_c, 2, 60, 81
4, 325056, Note_on_c, 2, 48, 81
4, 325244, Note_off_c, 2, 60, 0
4, 325244, Note_off_c, 2, 48, 0
4, 325248, Note_on_c, 2, 60, 81
4, 325248, Note_on_c, 2, 48, 81
4, 325436, Note_off_c, 2, 60, 0
4, 325436, Note_off_c, 2, 48, 0
4, 325440, Note_on_c, 2, 60, 81
4, 325440, Note_on_c, 2, 48, 81
4, 325628, Note_off_c, 2, 60, 0
4, 325628, Note_off_c, 2, 48, 0
4, 325632, Note_on_c, 2, 59, 81
4, 325632, Note_on_c, 2, 47, 81
4, 325820, Note_off_c, 2, 59, 0
4, 325820, Note_off_c, 2, 47, 0
4, 325824, Note_on_c, 2, 59, 81
4, 325824, Note_on_c, 2, 47, 81
4, 326012, Note_off_c, 2, 59, 0
4, 326012, Note_off_c, 2, 47, 0
4, 326016, Note_on_c, 2, 59, 81
4, 326016, Note_on_c, 2, 47, 81
4, 326204, Note_off_c, 2, 59, 0
4, 326204, Note_off_c, 2, 47, 0
4, 326208, Note_on_c, 2, 59, 81
4, 326208, Note_on_c, 2, 47, 81
4, 326396, Note_off_c, 2, 59, 0
4, 326396, Note_off_c, 2, 47, 0
4, 326400, Note_on_c, 2, 59, 81
4, 326400, Note_on_c, 2, 47, 81
4, 326780, Note_off_c, 2, 59, 0
4, 326780, Note_off_c, 2, 47, 0
4, 327168, Note_on_c, 2, 60, 81
4, 327168, Note_on_c, 2, 48, 81
4, 327360, Note_on_c, 2, 55, 81
4, 327548, Note_off_c, 2, 55, 0
4, 327552, Note_on_c, 2, 55, 81
4, 327740, Note_off_c, 2, 60, 0
4, 327740, Note_off_c, 2, 48, 0
4, 327740, Note_off_c, 2, 55, 0
4, 327744, Note_on_c, 2, 62, 81
4, 327744, Note_on_c, 2, 50, 81
4, 327932, Note_off_c, 2, 62, 0
4, 327932, Note_off_c, 2, 50, 0
4, 327936, Note_on_c, 2, 52, 81
4, 327936, Note_on_c, 2, 64, 81
4, 328128, Note_on_c, 2, 55, 81
4, 328316, Note_off_c, 2, 55, 0
4, 328320, Note_on_c, 2, 55, 81
4, 328508, Note_off_c, 2, 52, 0
4, 328508, Note_off_c, 2, 64, 0
4, 328508, Note_off_c, 2, 55, 0
4, 328512, Note_on_c, 2, 62, 81
4, 328512, Note_on_c, 2, 55, 81
4, 328512, Note_on_c, 2, 50, 81
4, 328700, Note_off_c, 2, 62, 0
4, 328700, Note_off_c, 2, 55, 0
4, 328700, Note_off_c, 2, 50, 0
4, 328704, Note_on_c, 2, 60, 81
4, 328704, Note_on_c, 2, 55, 81
4, 328704, Note_on_c, 2, 48, 81
4, 328896, Note_on_c, 2, 60, 81
4, 329084, Note_off_c, 2, 60, 0
4, 329084, Note_off_c, 2, 55, 0
4, 329084, Note_off_c, 2, 48, 0
4, 329084, Note_off_c, 2, 60, 0
4, 329088, Note_on_c, 2, 60, 81
4, 329276, Note_off_c, 2, 60, 0
4, 329280, Note_on_c, 2, 60, 81
4, 329468, Note_off_c, 2, 60, 0
4, 329472, Note_on_c, 2, 60, 81
4, 329660, Note_off_c, 2, 60, 0
4, 329664, Note_on_c, 2, 64, 81
4, 329664, Note_on_c, 2, 52, 81
4, 329852, Note_off_c, 2, 64, 0
4, 329852, Note_off_c, 2, 52, 0
4, 329856, Note_on_c, 2, 50, 81
4, 329856, Note_on_c, 2, 62, 81
4, 330044, Note_off_c, 2, 50, 0
4, 330044, Note_off_c, 2, 62, 0
4, 330048, Note_on_c, 2, 61, 81
4, 330048, Note_on_c, 2, 49, 81
4, 330236, Note_off_c, 2, 61, 0
4, 330236, Note_off_c, 2, 49, 0
4, 330240, Note_on_c, 2, 62, 81
4, 330240, Note_on_c, 2, 50, 81
4, 331772, Note_off_c, 2, 62, 0
4, 331772, Note_off_c, 2, 50, 0
4, 333312, Note_on_c, 2, 62, 67
4, 333312, Note_on_c, 2, 50, 67
4, 334076, Note_off_c, 2, 62, 0
4, 334076, Note_off_c, 2, 50, 0
4, 334848, Note_on_c, 2, 55, 87
4, 334848, Note_on_c, 2, 43, 87
4, 335228, Note_off_c, 2, 55, 0
4, 335228, Note_off_c, 2, 43, 0
4, 335232, Note_on_c, 2, 59, 81
4, 335232, Note_on_c, 2, 47, 81
4, 335612, Note_off_c, 2, 59, 0
4, 335612, Note_off_c, 2, 47, 0
4, 335616, Note_on_c, 2, 62, 81
4, 335616, Note_on_c, 2, 50, 81
4, 335996, Note_off_c, 2, 62, 0
4, 335996, Note_off_c, 2, 50, 0
4, 336000, Note_on_c, 2, 60, 81
4, 336000, Note_on_c, 2, 54, 81
4, 336000, Note_on_c, 2, 50, 81
4, 336380, Note_off_c, 2, 60, 0
4, 336380, Note_off_c, 2, 54, 0
4, 336380, Note_off_c, 2, 50, 0
4, 336384, Note_on_c, 2, 55, 81
4, 336384, Note_on_c, 2, 43, 81
4, 336764, Note_off_c, 2, 55, 0
4, 336764, Note_off_c, 2, 43, 0
4, 336768, Note_on_c, 2, 59, 81
4, 336768, Note_on_c, 2, 47, 81
4, 337148, Note_off_c, 2, 59, 0
4, 337148, Note_off_c, 2, 47, 0
4, 337152, Note_on_c, 2, 62, 81
4, 337152, Note_on_c, 2, 50, 81
4, 337340, Note_off_c, 2, 62, 0
4, 337340, Note_off_c, 2, 50, 0
4, 337536, Note_on_c, 2, 60, 81
4, 337536, Note_on_c, 2, 54, 81
4, 337536, Note_on_c, 2, 50, 81
4, 337724, Note_off_c, 2, 60, 0
4, 337724, Note_off_c, 2, 54, 0
4, 337724, Note_off_c, 2, 50, 0
4, 337920, Note_on_c, 2, 59, 81
4, 337920, Note_on_c, 2, 55, 81
4, 338108, Note_off_c, 2, 59, 0
4, 338108, Note_off_c, 2, 55, 0
4, 338304, Note_on_c, 2, 57, 81
4, 338304, Note_on_c, 2, 60, 81
4, 338304, Note_on_c, 2, 62, 81
4, 338304, Note_on_c, 2, 50, 81
4, 338492, Note_off_c, 2, 57, 0
4, 338492, Note_off_c, 2, 60, 0
4, 338492, Note_off_c, 2, 62, 0
4, 338492, Note_off_c, 2, 50, 0
4, 338496, Note_on_c, 2, 50, 81
4, 338496, Note_on_c, 2, 57, 81
4, 338496, Note_on_c, 2, 60, 81
4, 338496, Note_on_c, 2, 62, 81
4, 338684, Note_off_c, 2, 50, 0
4, 338684, Note_off_c, 2, 57, 0
4, 338684, Note_off_c, 2, 60, 0
4, 338684, Note_off_c, 2, 62, 0
4, 338688, Note_on_c, 2, 62, 81
4, 338688, Note_on_c, 2, 59, 81
4, 338688, Note_on_c, 2, 55, 81
4, 339068, Note_off_c, 2, 62, 0
4, 339068, Note_off_c, 2, 59, 0
4, 339068, Note_off_c, 2, 55, 0
4, 339072, Note_on_c, 2, 50, 81
4, 339072, Note_on_c, 2, 57, 81
4, 339072, Note_on_c, 2, 60, 81
4, 339072, Note_on_c, 2, 62, 81
4, 339260, Note_off_c, 2, 50, 0
4, 339260, Note_off_c, 2, 57, 0
4, 339260, Note_off_c, 2, 60, 0
4, 339260, Note_off_c, 2, 62, 0
4, 339264, Note_on_c, 2, 50, 81
4, 339264, Note_on_c, 2, 57, 81
4, 339264, Note_on_c, 2, 60, 81
4, 339264, Note_on_c, 2, 62, 81
4, 339452, Note_off_c, 2, 50, 0
4, 339452, Note_off_c, 2, 57, 0
4, 339452, Note_off_c, 2, 60, 0
4, 339452, Note_off_c, 2, 62, 0
4, 339456, Note_on_c, 2, 62, 87
4, 339456, Note_on_c, 2, 55, 87
4, 339836, Note_off_c, 2, 62, 0
4, 339836, Note_off_c, 2, 55, 0
4, 339840, Note_on_c, 2, 55, 87
4, 339840, Note_on_c, 2, 43, 87
4, 340124, Note_off_c, 2, 55, 0
4, 340124, Note_off_c, 2, 43, 0
4, 340128, Note_on_c, 2, 55, 87
4, 340128, Note_on_c, 2, 43, 87
4, 340220, Note_off_c, 2, 55, 0
4, 340220, Note_off_c, 2, 43, 0
4, 340224, Note_on_c, 2, 55, 87
4, 340224, Note_on_c, 2, 43, 87
4, 340604, Note_off_c, 2, 55, 0
4, 340604, Note_off_c, 2, 43, 0
4, 340604, End_track
5, 0, Start_track
5, 0, Title_t, "Midi by"
5, 0, Key_signature, 1, "major"
5, 0, End_track
6, 0, Start_track
6, 0, Title_t, "B Fisher"
6, 0, Key_signature, 1, "major"
6, 0, End_track
7, 0, Start_track
7, 0, Key_signature, 1, "major"
7, 0, End_track
8, 0, Start_track
8, 0, Key_signature, 1, "major"
8, 0, End_track
9, 0, Start_track
9, 0, Key_signature, 1, "major"
9, 0, End_track
10, 0, Start_track
10, 0, Key_signature, 1, "major"
10, 0, End_track
11, 0, Start_track
11, 0, Key_signature, 1, "major"
11, 0, End_track
12, 0, Start_track
12, 0, Key_signature, 1, "major"
12, 0, End_track
13, 0, Start_track
13, 0, Key_signature, 1, "major"
13, 0, End_track
14, 0, Start_track
14, 0, Key_signature, 1, "major"
14, 0, End_track
15, 0, Start_track
15, 0, Key_signature, 1, "major"
15, 0, End_track
16, 0, Start_track
16, 0, Key_signature, 1, "major"
16, 0, End_track
17, 0, Start_track
17, 0, Key_signature, 1, "major"
17, 0, End_track
0, 0, End_of_file
