0, 0, Header, 1, 16, 384
1, 0, Start_track
1, 0, Time_signature, 4, 2, 96, 8
1, 0, Sequencer_specific, 3, 0, 0, 65
1, 0, Tempo, 461538
1, 0, End_track
2, 0, Start_track
2, 0, Title_t, "Mozart - Piano"
2, 0, Control_c, 0, 0, 0
2, 0, Program_c, 0, 0
2, 0, Control_c, 0, 7, 80
2, 0, Control_c, 0, 10, 82
2, 0, Control_c, 0, 91, 59
2, 0, Control_c, 0, 93, 51
2, 0, Key_signature, -2, "major"
2, 0, Control_c, 0, 121, 0
2, 96, Control_c, 0, 10, 73
2, 192, Control_c, 0, 91, 63
2, 240, Control_c, 0, 93, 40
2, 288, Program_c, 0, 0
2, 768, Note_on_c, 0, 77, 60
2, 1024, Note_off_c, 0, 77, 100
2, 1152, Note_on_c, 0, 79, 60
2, 1152, Note_on_c, 0, 67, 60
2, 1152, Note_on_c, 0, 58, 60
2, 1408, Note_off_c, 0, 79, 100
2, 1408, Note_off_c, 0, 67, 100
2, 1408, Note_off_c, 0, 58, 100
2, 1536, Note_on_c, 0, 77, 60
2, 1536, Note_on_c, 0, 67, 60
2, 1536, Note_on_c, 0, 60, 60
2, 1664, Note_off_c, 0, 77, 100
2, 1728, Note_on_c, 0, 75, 60
2, 1856, Note_off_c, 0, 75, 100
2, 1920, Note_on_c, 0, 74, 60
2, 2048, Note_off_c, 0, 67, 100
2, 2048, Note_off_c, 0, 60, 100
2, 2048, Note_off_c, 0, 74, 100
2, 2112, Note_on_c, 0, 72, 60
2, 2240, Note_off_c, 0, 72, 100
2, 2304, Note_on_c, 0, 75, 60
2, 2560, Note_off_c, 0, 75, 100
2, 2688, Note_on_c, 0, 77, 60
2, 2688, Note_on_c, 0, 65, 60
2, 2688, Note_on_c, 0, 57, 60
2, 2944, Note_off_c, 0, 77, 100
2, 2944, Note_off_c, 0, 65, 100
2, 2944, Note_off_c, 0, 57, 100
2, 3072, Note_on_c, 0, 75, 60
2, 3072, Note_on_c, 0, 58, 60
2, 3072, Note_on_c, 0, 65, 60
2, 3200, Note_off_c, 0, 75, 100
2, 3264, Note_on_c, 0, 74, 60
2, 3392, Note_off_c, 0, 74, 100
2, 3456, Note_on_c, 0, 72, 60
2, 3584, Note_off_c, 0, 58, 100
2, 3584, Note_off_c, 0, 65, 100
2, 3584, Note_off_c, 0, 72, 100
2, 3648, Note_on_c, 0, 70, 60
2, 3776, Note_off_c, 0, 70, 100
2, 3840, Note_on_c, 0, 77, 60
2, 4096, Note_off_c, 0, 77, 100
2, 4224, Note_on_c, 0, 82, 60
2, 4224, Note_on_c, 0, 70, 60
2, 4224, Note_on_c, 0, 62, 60
2, 4480, Note_off_c, 0, 82, 100
2, 4480, Note_off_c, 0, 70, 100
2, 4480, Note_off_c, 0, 62, 100
2, 4608, Note_on_c, 0, 81, 60
2, 4608, Note_on_c, 0, 63, 60
2, 4608, Note_on_c, 0, 70, 60
2, 4736, Note_off_c, 0, 81, 100
2, 4800, Note_on_c, 0, 79, 60
2, 4864, Note_off_c, 0, 63, 100
2, 4928, Note_off_c, 0, 79, 100
2, 4992, Note_on_c, 0, 79, 60
2, 4992, Note_on_c, 0, 62, 60
2, 5120, Note_off_c, 0, 70, 100
2, 5120, Note_off_c, 0, 79, 100
2, 5184, Note_on_c, 0, 77, 60
2, 5248, Note_off_c, 0, 62, 100
2, 5312, Note_off_c, 0, 77, 100
2, 5376, Note_on_c, 0, 77, 60
2, 5376, Note_on_c, 0, 60, 60
2, 5376, Note_on_c, 0, 69, 60
2, 5504, Note_off_c, 0, 77, 100
2, 5568, Note_on_c, 0, 75, 60
2, 5632, Note_off_c, 0, 60, 100
2, 5632, Note_off_c, 0, 69, 100
2, 5696, Note_off_c, 0, 75, 100
2, 5760, Note_on_c, 0, 75, 60
2, 5760, Note_on_c, 0, 58, 60
2, 5760, Note_on_c, 0, 70, 60
2, 5888, Note_off_c, 0, 75, 100
2, 5952, Note_on_c, 0, 74, 60
2, 6016, Note_off_c, 0, 58, 100
2, 6016, Note_off_c, 0, 70, 100
2, 6080, Note_off_c, 0, 74, 100
2, 6144, Note_on_c, 0, 74, 60
2, 6144, Note_on_c, 0, 70, 60
2, 6144, Note_on_c, 0, 65, 60
2, 6400, Note_off_c, 0, 74, 100
2, 6400, Note_off_c, 0, 70, 100
2, 6528, Note_on_c, 0, 72, 60
2, 6528, Note_on_c, 0, 69, 60
2, 6656, Note_off_c, 0, 65, 100
2, 6784, Note_off_c, 0, 72, 100
2, 6784, Note_off_c, 0, 69, 100
2, 6912, Note_on_c, 0, 77, 90
2, 7040, Note_off_c, 0, 77, 100
2, 7104, Note_on_c, 0, 76, 90
2, 7232, Note_off_c, 0, 76, 100
2, 7296, Note_on_c, 0, 77, 90
2, 7424, Note_off_c, 0, 77, 100
2, 7488, Note_on_c, 0, 79, 90
2, 7616, Note_off_c, 0, 79, 100
2, 7680, Note_on_c, 0, 77, 90
2, 7808, Note_off_c, 0, 77, 100
2, 7872, Note_on_c, 0, 75, 90
2, 8000, Note_off_c, 0, 75, 100
2, 8064, Note_on_c, 0, 74, 90
2, 8192, Note_off_c, 0, 74, 100
2, 8256, Note_on_c, 0, 72, 90
2, 8384, Note_off_c, 0, 72, 100
2, 8448, Note_on_c, 0, 75, 90
2, 8576, Note_off_c, 0, 75, 100
2, 8640, Note_on_c, 0, 74, 90
2, 8768, Note_off_c, 0, 74, 100
2, 8832, Note_on_c, 0, 75, 90
2, 8960, Note_off_c, 0, 75, 100
2, 9024, Note_on_c, 0, 77, 90
2, 9152, Note_off_c, 0, 77, 100
2, 9216, Note_on_c, 0, 75, 90
2, 9344, Note_off_c, 0, 75, 100
2, 9408, Note_on_c, 0, 74, 90
2, 9536, Note_off_c, 0, 74, 100
2, 9600, Note_on_c, 0, 72, 90
2, 9728, Note_off_c, 0, 72, 100
2, 9792, Note_on_c, 0, 70, 90
2, 9920, Note_off_c, 0, 70, 100
2, 9984, Note_on_c, 0, 70, 90
2, 10112, Note_off_c, 0, 70, 100
2, 10176, Note_on_c, 0, 74, 90
2, 10304, Note_off_c, 0, 74, 100
2, 10368, Note_on_c, 0, 77, 90
2, 10496, Note_off_c, 0, 77, 100
2, 10560, Note_on_c, 0, 82, 90
2, 10688, Note_off_c, 0, 82, 100
2, 10752, Note_on_c, 0, 82, 90
2, 10880, Note_off_c, 0, 82, 100
2, 10944, Note_on_c, 0, 79, 90
2, 11072, Note_off_c, 0, 79, 100
2, 11136, Note_on_c, 0, 75, 90
2, 11264, Note_off_c, 0, 75, 100
2, 11328, Note_on_c, 0, 72, 90
2, 11456, Note_off_c, 0, 72, 100
2, 11520, Note_on_c, 0, 70, 90
2, 11568, Note_off_c, 0, 70, 100
2, 11568, Note_on_c, 0, 72, 90
2, 11616, Note_off_c, 0, 72, 100
2, 11616, Note_on_c, 0, 74, 90
2, 11664, Note_off_c, 0, 74, 100
2, 11664, Note_on_c, 0, 72, 90
2, 11712, Note_off_c, 0, 72, 100
2, 11712, Note_on_c, 0, 74, 90
2, 11760, Note_off_c, 0, 74, 100
2, 11760, Note_on_c, 0, 72, 90
2, 11808, Note_off_c, 0, 72, 100
2, 11808, Note_on_c, 0, 74, 90
2, 11856, Note_off_c, 0, 74, 100
2, 11856, Note_on_c, 0, 72, 90
2, 11904, Note_off_c, 0, 72, 100
2, 11904, Note_on_c, 0, 74, 90
2, 11952, Note_off_c, 0, 74, 100
2, 11952, Note_on_c, 0, 72, 90
2, 12000, Note_off_c, 0, 72, 100
2, 12016, Note_on_c, 0, 74, 90
2, 12048, Note_on_c, 0, 72, 90
2, 12064, Note_off_c, 0, 74, 100
2, 12096, Note_off_c, 0, 72, 100
2, 12096, Note_on_c, 0, 70, 90
2, 12188, Note_off_c, 0, 70, 64
2, 12192, Note_on_c, 0, 72, 90
2, 12284, Note_off_c, 0, 72, 64
2, 12288, Note_on_c, 0, 70, 90
2, 12544, Note_off_c, 0, 70, 100
2, 12672, Note_on_c, 0, 70, 60
2, 12800, Note_on_c, 0, 74, 60
2, 12848, Note_off_c, 0, 74, 100
2, 12928, Note_off_c, 0, 70, 100
2, 12928, Note_on_c, 0, 77, 60
2, 12976, Note_off_c, 0, 77, 100
2, 13056, Note_on_c, 0, 72, 60
2, 13184, Note_on_c, 0, 75, 60
2, 13232, Note_off_c, 0, 75, 100
2, 13312, Note_off_c, 0, 72, 100
2, 13312, Note_on_c, 0, 79, 60
2, 13360, Note_off_c, 0, 79, 100
2, 13440, Note_on_c, 0, 69, 60
2, 13568, Note_on_c, 0, 72, 60
2, 13616, Note_off_c, 0, 72, 100
2, 13696, Note_off_c, 0, 69, 100
2, 13696, Note_on_c, 0, 75, 60
2, 13744, Note_off_c, 0, 75, 100
2, 13824, Note_on_c, 0, 70, 60
2, 13952, Note_on_c, 0, 74, 60
2, 14000, Note_off_c, 0, 74, 100
2, 14080, Note_off_c, 0, 70, 100
2, 14080, Note_on_c, 0, 77, 60
2, 14128, Note_off_c, 0, 77, 100
2, 14208, Note_on_c, 0, 62, 60
2, 14336, Note_on_c, 0, 70, 60
2, 14384, Note_off_c, 0, 70, 100
2, 14464, Note_off_c, 0, 62, 100
2, 14464, Note_on_c, 0, 74, 60
2, 14512, Note_off_c, 0, 74, 100
2, 14592, Note_on_c, 0, 63, 60
2, 14720, Note_on_c, 0, 72, 60
2, 14768, Note_off_c, 0, 72, 100
2, 14848, Note_off_c, 0, 63, 100
2, 14848, Note_on_c, 0, 75, 60
2, 14896, Note_off_c, 0, 75, 100
2, 14976, Note_on_c, 0, 64, 60
2, 15104, Note_on_c, 0, 67, 60
2, 15152, Note_off_c, 0, 67, 100
2, 15232, Note_off_c, 0, 64, 100
2, 15232, Note_on_c, 0, 70, 60
2, 15280, Note_off_c, 0, 70, 100
2, 15360, Note_on_c, 0, 65, 90
2, 15488, Note_on_c, 0, 69, 90
2, 15536, Note_off_c, 0, 69, 100
2, 15616, Note_off_c, 0, 65, 100
2, 15616, Note_on_c, 0, 72, 90
2, 15664, Note_off_c, 0, 72, 100
2, 15744, Note_on_c, 0, 74, 90
2, 15792, Note_off_c, 0, 74, 100
2, 15872, Note_on_c, 0, 75, 90
2, 15920, Note_off_c, 0, 75, 100
2, 16000, Note_on_c, 0, 77, 90
2, 16048, Note_off_c, 0, 77, 100
2, 16128, Note_on_c, 0, 75, 90
2, 16176, Note_off_c, 0, 75, 100
2, 16256, Note_on_c, 0, 77, 90
2, 16304, Note_off_c, 0, 77, 100
2, 16384, Note_on_c, 0, 79, 90
2, 16432, Note_off_c, 0, 79, 100
2, 16512, Note_on_c, 0, 72, 90
2, 16560, Note_off_c, 0, 72, 100
2, 16640, Note_on_c, 0, 74, 90
2, 16688, Note_off_c, 0, 74, 100
2, 16768, Note_on_c, 0, 75, 90
2, 16816, Note_off_c, 0, 75, 100
2, 16896, Note_on_c, 0, 75, 90
2, 16944, Note_off_c, 0, 75, 100
2, 17024, Note_on_c, 0, 74, 90
2, 17072, Note_off_c, 0, 74, 100
2, 17152, Note_on_c, 0, 77, 90
2, 17200, Note_off_c, 0, 77, 100
2, 17280, Note_on_c, 0, 79, 90
2, 17328, Note_off_c, 0, 79, 100
2, 17408, Note_on_c, 0, 81, 90
2, 17456, Note_off_c, 0, 81, 100
2, 17536, Note_on_c, 0, 82, 90
2, 17584, Note_off_c, 0, 82, 100
2, 17664, Note_on_c, 0, 81, 90
2, 17712, Note_off_c, 0, 81, 100
2, 17792, Note_on_c, 0, 79, 90
2, 17840, Note_off_c, 0, 79, 100
2, 17920, Note_on_c, 0, 77, 90
2, 17968, Note_off_c, 0, 77, 100
2, 18048, Note_on_c, 0, 75, 90
2, 18096, Note_off_c, 0, 75, 100
2, 18176, Note_on_c, 0, 74, 90
2, 18224, Note_off_c, 0, 74, 100
2, 18304, Note_on_c, 0, 72, 90
2, 18352, Note_off_c, 0, 72, 100
2, 18432, Note_on_c, 0, 70, 90
2, 18688, Note_off_c, 0, 70, 100
2, 18816, Note_on_c, 0, 66, 90
2, 18816, Note_on_c, 0, 70, 90
2, 19072, Note_off_c, 0, 66, 100
2, 19200, Note_on_c, 0, 67, 90
2, 19456, Note_off_c, 0, 67, 100
2, 19584, Note_off_c, 0, 70, 100
2, 19584, Note_on_c, 0, 66, 90
2, 19840, Note_off_c, 0, 66, 100
2, 19968, Note_on_c, 0, 70, 90
2, 19968, Note_on_c, 0, 67, 90
2, 20224, Note_off_c, 0, 70, 100
2, 20224, Note_off_c, 0, 67, 100
2, 20352, Note_on_c, 0, 75, 60
2, 20400, Note_off_c, 0, 75, 100
2, 20480, Note_on_c, 0, 77, 60
2, 20528, Note_off_c, 0, 77, 100
2, 20608, Note_on_c, 0, 79, 60
2, 20656, Note_off_c, 0, 79, 100
2, 20736, Note_on_c, 0, 77, 60
2, 20784, Note_off_c, 0, 77, 100
2, 20864, Note_on_c, 0, 75, 60
2, 20912, Note_off_c, 0, 75, 100
2, 20992, Note_on_c, 0, 74, 60
2, 21040, Note_off_c, 0, 74, 100
2, 21120, Note_on_c, 0, 72, 60
2, 21168, Note_off_c, 0, 72, 100
2, 21248, Note_on_c, 0, 70, 60
2, 21296, Note_off_c, 0, 70, 100
2, 21376, Note_on_c, 0, 69, 60
2, 21424, Note_off_c, 0, 69, 100
2, 21504, Note_on_c, 0, 70, 90
2, 21760, Note_off_c, 0, 70, 100
2, 21888, Note_on_c, 0, 66, 90
2, 21888, Note_on_c, 0, 70, 90
2, 21952, Note_off_c, 0, 66, 100
2, 22272, Note_on_c, 0, 67, 90
2, 22528, Note_off_c, 0, 67, 100
2, 22656, Note_off_c, 0, 70, 100
2, 22656, Note_on_c, 0, 66, 90
2, 22912, Note_off_c, 0, 66, 100
2, 23040, Note_on_c, 0, 70, 90
2, 23296, Note_off_c, 0, 70, 100
2, 23424, Note_on_c, 0, 75, 60
2, 23472, Note_off_c, 0, 75, 100
2, 23552, Note_on_c, 0, 77, 60
2, 23600, Note_off_c, 0, 77, 100
2, 23680, Note_on_c, 0, 79, 60
2, 23728, Note_off_c, 0, 79, 100
2, 23808, Note_on_c, 0, 77, 60
2, 23856, Note_off_c, 0, 77, 100
2, 23936, Note_on_c, 0, 75, 60
2, 23984, Note_off_c, 0, 75, 100
2, 24064, Note_on_c, 0, 74, 60
2, 24112, Note_off_c, 0, 74, 100
2, 24192, Note_on_c, 0, 72, 60
2, 24240, Note_off_c, 0, 72, 100
2, 24320, Note_on_c, 0, 70, 60
2, 24368, Note_off_c, 0, 70, 100
2, 24448, Note_on_c, 0, 69, 60
2, 24496, Note_off_c, 0, 69, 100
2, 24576, Note_on_c, 0, 70, 60
2, 24832, Note_off_c, 0, 70, 100
2, 24960, Note_on_c, 0, 75, 60
2, 25008, Note_off_c, 0, 75, 100
2, 25088, Note_on_c, 0, 72, 60
2, 25136, Note_off_c, 0, 72, 100
2, 25216, Note_on_c, 0, 69, 60
2, 25264, Note_off_c, 0, 69, 100
2, 25344, Note_on_c, 0, 70, 60
2, 25600, Note_off_c, 0, 70, 100
2, 25728, Note_on_c, 0, 75, 60
2, 25776, Note_off_c, 0, 75, 100
2, 25856, Note_on_c, 0, 72, 60
2, 25904, Note_off_c, 0, 72, 100
2, 25984, Note_on_c, 0, 69, 60
2, 26032, Note_off_c, 0, 69, 100
2, 26112, Note_on_c, 0, 70, 49
2, 26368, Note_off_c, 0, 70, 100
2, 26400, Note_on_c, 0, 76, 49
2, 26464, Note_off_c, 0, 76, 100
2, 26496, Note_on_c, 0, 77, 49
2, 26752, Note_off_c, 0, 77, 100
2, 26784, Note_on_c, 0, 81, 49
2, 26848, Note_off_c, 0, 81, 100
2, 26880, Note_on_c, 0, 82, 49
2, 27136, Note_off_c, 0, 82, 100
2, 27648, Note_on_c, 0, 72, 90
2, 27648, Note_on_c, 0, 58, 90
2, 27696, Note_off_c, 0, 58, 100
2, 27696, Note_on_c, 0, 70, 90
2, 27712, Note_off_c, 0, 72, 100
2, 27728, Note_off_c, 0, 70, 100
2, 27744, Note_on_c, 0, 72, 90
2, 27776, Note_off_c, 0, 72, 100
2, 27776, Note_on_c, 0, 62, 90
2, 27792, Note_on_c, 0, 70, 90
2, 27824, Note_off_c, 0, 62, 100
2, 27824, Note_off_c, 0, 70, 100
2, 27840, Note_on_c, 0, 72, 90
2, 27872, Note_off_c, 0, 72, 100
2, 27888, Note_on_c, 0, 70, 90
2, 27904, Note_on_c, 0, 65, 90
2, 27920, Note_off_c, 0, 70, 100
2, 27936, Note_on_c, 0, 72, 90
2, 27952, Note_off_c, 0, 65, 100
2, 27968, Note_off_c, 0, 72, 100
2, 27984, Note_on_c, 0, 70, 90
2, 28016, Note_off_c, 0, 70, 100
2, 28032, Note_on_c, 0, 72, 90
2, 28032, Note_on_c, 0, 58, 90
2, 28064, Note_off_c, 0, 72, 100
2, 28080, Note_off_c, 0, 58, 100
2, 28080, Note_on_c, 0, 70, 90
2, 28112, Note_off_c, 0, 70, 100
2, 28128, Note_on_c, 0, 72, 90
2, 28160, Note_off_c, 0, 72, 100
2, 28160, Note_on_c, 0, 62, 90
2, 28176, Note_on_c, 0, 70, 90
2, 28208, Note_off_c, 0, 62, 100
2, 28208, Note_off_c, 0, 70, 100
2, 28224, Note_on_c, 0, 72, 90
2, 28256, Note_off_c, 0, 72, 100
2, 28272, Note_on_c, 0, 70, 90
2, 28288, Note_on_c, 0, 65, 90
2, 28304, Note_off_c, 0, 70, 100
2, 28320, Note_on_c, 0, 72, 90
2, 28336, Note_off_c, 0, 65, 100
2, 28352, Note_off_c, 0, 72, 100
2, 28368, Note_on_c, 0, 70, 90
2, 28400, Note_off_c, 0, 70, 100
2, 28416, Note_on_c, 0, 72, 90
2, 28416, Note_on_c, 0, 58, 90
2, 28448, Note_off_c, 0, 72, 100
2, 28464, Note_off_c, 0, 58, 100
2, 28464, Note_on_c, 0, 70, 90
2, 28496, Note_off_c, 0, 70, 100
2, 28528, Note_on_c, 0, 72, 90
2, 28544, Note_on_c, 0, 62, 90
2, 28560, Note_off_c, 0, 72, 100
2, 28560, Note_on_c, 0, 70, 90
2, 28592, Note_off_c, 0, 62, 100
2, 28592, Note_off_c, 0, 70, 100
2, 28608, Note_on_c, 0, 69, 90
2, 28672, Note_on_c, 0, 65, 90
2, 28700, Note_off_c, 0, 69, 64
2, 28704, Note_on_c, 0, 70, 90
2, 28720, Note_off_c, 0, 65, 100
2, 28796, Note_off_c, 0, 70, 64
2, 28800, Note_on_c, 0, 74, 90
2, 28800, Note_on_c, 0, 58, 90
2, 28848, Note_off_c, 0, 58, 100
2, 28928, Note_on_c, 0, 62, 90
2, 28976, Note_off_c, 0, 62, 100
2, 29056, Note_off_c, 0, 74, 100
2, 29056, Note_on_c, 0, 65, 90
2, 29104, Note_off_c, 0, 65, 100
2, 29184, Note_on_c, 0, 77, 60
2, 29184, Note_on_c, 0, 58, 60
2, 29232, Note_off_c, 0, 58, 100
2, 29312, Note_on_c, 0, 62, 60
2, 29360, Note_off_c, 0, 62, 100
2, 29440, Note_off_c, 0, 77, 100
2, 29440, Note_on_c, 0, 65, 60
2, 29472, Note_on_c, 0, 81, 60
2, 29488, Note_off_c, 0, 65, 100
2, 29536, Note_off_c, 0, 81, 100
2, 29568, Note_on_c, 0, 82, 60
2, 29568, Note_on_c, 0, 58, 60
2, 29616, Note_off_c, 0, 58, 100
2, 29696, Note_on_c, 0, 62, 60
2, 29744, Note_off_c, 0, 62, 100
2, 29824, Note_off_c, 0, 82, 100
2, 29824, Note_on_c, 0, 65, 60
2, 29856, Note_on_c, 0, 85, 60
2, 29872, Note_off_c, 0, 65, 100
2, 29920, Note_off_c, 0, 85, 100
2, 29952, Note_on_c, 0, 86, 60
2, 29952, Note_on_c, 0, 58, 60
2, 30000, Note_off_c, 0, 58, 100
2, 30080, Note_on_c, 0, 62, 60
2, 30128, Note_off_c, 0, 62, 100
2, 30208, Note_off_c, 0, 86, 100
2, 30208, Note_on_c, 0, 65, 60
2, 30256, Note_off_c, 0, 65, 100
2, 30336, Note_on_c, 0, 58, 60
2, 30384, Note_off_c, 0, 58, 100
2, 30464, Note_on_c, 0, 62, 60
2, 30512, Note_off_c, 0, 62, 100
2, 30592, Note_on_c, 0, 65, 60
2, 30640, Note_off_c, 0, 65, 100
2, 30720, Note_on_c, 0, 70, 90
2, 30720, Note_on_c, 0, 57, 90
2, 30768, Note_off_c, 0, 57, 100
2, 30768, Note_on_c, 0, 69, 90
2, 30784, Note_off_c, 0, 70, 100
2, 30800, Note_off_c, 0, 69, 100
2, 30816, Note_on_c, 0, 70, 90
2, 30848, Note_off_c, 0, 70, 100
2, 30848, Note_on_c, 0, 60, 90
2, 30864, Note_on_c, 0, 69, 90
2, 30896, Note_off_c, 0, 60, 100
2, 30896, Note_off_c, 0, 69, 100
2, 30912, Note_on_c, 0, 70, 90
2, 30944, Note_off_c, 0, 70, 100
2, 30960, Note_on_c, 0, 69, 90
2, 30976, Note_on_c, 0, 65, 90
2, 30992, Note_off_c, 0, 69, 100
2, 31008, Note_on_c, 0, 70, 90
2, 31024, Note_off_c, 0, 65, 100
2, 31040, Note_off_c, 0, 70, 100
2, 31056, Note_on_c, 0, 69, 90
2, 31088, Note_off_c, 0, 69, 100
2, 31104, Note_on_c, 0, 70, 90
2, 31104, Note_on_c, 0, 57, 90
2, 31136, Note_off_c, 0, 70, 100
2, 31152, Note_off_c, 0, 57, 100
2, 31152, Note_on_c, 0, 69, 90
2, 31184, Note_off_c, 0, 69, 100
2, 31200, Note_on_c, 0, 70, 90
2, 31232, Note_off_c, 0, 70, 100
2, 31232, Note_on_c, 0, 60, 90
2, 31248, Note_on_c, 0, 69, 90
2, 31280, Note_off_c, 0, 60, 100
2, 31280, Note_off_c, 0, 69, 100
2, 31296, Note_on_c, 0, 70, 90
2, 31328, Note_off_c, 0, 70, 100
2, 31344, Note_on_c, 0, 69, 90
2, 31360, Note_on_c, 0, 65, 90
2, 31376, Note_off_c, 0, 69, 100
2, 31392, Note_on_c, 0, 70, 90
2, 31408, Note_off_c, 0, 65, 100
2, 31424, Note_off_c, 0, 70, 100
2, 31440, Note_on_c, 0, 69, 90
2, 31472, Note_off_c, 0, 69, 100
2, 31488, Note_on_c, 0, 70, 90
2, 31488, Note_on_c, 0, 57, 90
2, 31520, Note_off_c, 0, 70, 100
2, 31536, Note_off_c, 0, 57, 100
2, 31536, Note_on_c, 0, 69, 90
2, 31568, Note_off_c, 0, 69, 100
2, 31584, Note_on_c, 0, 70, 90
2, 31616, Note_off_c, 0, 70, 100
2, 31616, Note_on_c, 0, 60, 90
2, 31632, Note_on_c, 0, 69, 90
2, 31664, Note_off_c, 0, 60, 100
2, 31676, Note_off_c, 0, 69, 64
2, 31680, Note_on_c, 0, 69, 90
2, 31744, Note_on_c, 0, 65, 90
2, 31772, Note_off_c, 0, 69, 64
2, 31776, Note_on_c, 0, 70, 90
2, 31792, Note_off_c, 0, 65, 100
2, 31868, Note_off_c, 0, 70, 64
2, 31872, Note_on_c, 0, 72, 90
2, 31872, Note_on_c, 0, 57, 90
2, 31920, Note_off_c, 0, 57, 100
2, 32000, Note_on_c, 0, 60, 90
2, 32048, Note_off_c, 0, 60, 100
2, 32128, Note_off_c, 0, 72, 100
2, 32128, Note_on_c, 0, 65, 90
2, 32176, Note_off_c, 0, 65, 100
2, 32256, Note_on_c, 0, 77, 60
2, 32256, Note_on_c, 0, 57, 60
2, 32304, Note_off_c, 0, 57, 100
2, 32384, Note_on_c, 0, 60, 60
2, 32432, Note_off_c, 0, 60, 100
2, 32512, Note_off_c, 0, 77, 100
2, 32512, Note_on_c, 0, 65, 60
2, 32544, Note_on_c, 0, 80, 60
2, 32560, Note_off_c, 0, 65, 100
2, 32608, Note_off_c, 0, 80, 100
2, 32640, Note_on_c, 0, 81, 60
2, 32640, Note_on_c, 0, 57, 60
2, 32688, Note_off_c, 0, 57, 100
2, 32768, Note_on_c, 0, 60, 60
2, 32816, Note_off_c, 0, 60, 100
2, 32896, Note_off_c, 0, 81, 100
2, 32896, Note_on_c, 0, 65, 60
2, 32928, Note_on_c, 0, 83, 60
2, 32944, Note_off_c, 0, 65, 100
2, 32992, Note_off_c, 0, 83, 100
2, 33024, Note_on_c, 0, 84, 69
2, 33024, Note_on_c, 0, 57, 69
2, 33072, Note_off_c, 0, 57, 100
2, 33152, Note_on_c, 0, 60, 72
2, 33200, Note_off_c, 0, 60, 100
2, 33280, Note_off_c, 0, 84, 100
2, 33280, Note_on_c, 0, 65, 76
2, 33328, Note_off_c, 0, 65, 100
2, 33408, Note_on_c, 0, 57, 81
2, 33456, Note_off_c, 0, 57, 100
2, 33536, Note_on_c, 0, 60, 84
2, 33584, Note_off_c, 0, 60, 100
2, 33664, Note_on_c, 0, 65, 87
2, 33712, Note_off_c, 0, 65, 100
2, 33792, Note_on_c, 0, 67, 90
2, 33920, Note_on_c, 0, 84, 90
2, 33968, Note_off_c, 0, 84, 100
2, 34048, Note_off_c, 0, 67, 100
2, 34048, Note_on_c, 0, 82, 90
2, 34096, Note_off_c, 0, 82, 100
2, 34176, Note_on_c, 0, 64, 90
2, 34304, Note_on_c, 0, 81, 90
2, 34352, Note_off_c, 0, 81, 100
2, 34432, Note_off_c, 0, 64, 100
2, 34432, Note_on_c, 0, 79, 90
2, 34480, Note_off_c, 0, 79, 100
2, 34560, Note_on_c, 0, 65, 90
2, 34688, Note_on_c, 0, 82, 90
2, 34736, Note_off_c, 0, 82, 100
2, 34816, Note_off_c, 0, 65, 100
2, 34816, Note_on_c, 0, 81, 90
2, 34864, Note_off_c, 0, 81, 100
2, 34944, Note_on_c, 0, 69, 90
2, 35072, Note_on_c, 0, 79, 90
2, 35120, Note_off_c, 0, 79, 100
2, 35200, Note_off_c, 0, 69, 100
2, 35200, Note_on_c, 0, 77, 90
2, 35248, Note_off_c, 0, 77, 100
2, 35328, Note_on_c, 0, 70, 90
2, 35456, Note_on_c, 0, 81, 90
2, 35504, Note_off_c, 0, 81, 100
2, 35584, Note_off_c, 0, 70, 100
2, 35584, Note_on_c, 0, 79, 90
2, 35632, Note_off_c, 0, 79, 100
2, 35712, Note_on_c, 0, 67, 90
2, 35840, Note_on_c, 0, 77, 90
2, 35888, Note_off_c, 0, 77, 100
2, 35968, Note_off_c, 0, 67, 100
2, 35968, Note_on_c, 0, 76, 90
2, 36016, Note_off_c, 0, 76, 100
2, 36096, Note_on_c, 0, 69, 90
2, 36224, Note_on_c, 0, 79, 90
2, 36272, Note_off_c, 0, 79, 100
2, 36352, Note_off_c, 0, 69, 100
2, 36352, Note_on_c, 0, 77, 90
2, 36400, Note_off_c, 0, 77, 100
2, 36608, Note_on_c, 0, 69, 60
2, 36656, Note_off_c, 0, 69, 100
2, 36736, Note_on_c, 0, 72, 60
2, 36784, Note_off_c, 0, 72, 100
2, 36992, Note_on_c, 0, 72, 60
2, 37040, Note_off_c, 0, 72, 100
2, 37120, Note_on_c, 0, 70, 60
2, 37168, Note_off_c, 0, 70, 100
2, 37376, Note_on_c, 0, 69, 60
2, 37424, Note_off_c, 0, 69, 100
2, 37504, Note_on_c, 0, 67, 60
2, 37552, Note_off_c, 0, 67, 100
2, 37760, Note_on_c, 0, 70, 60
2, 37808, Note_off_c, 0, 70, 100
2, 37888, Note_on_c, 0, 69, 60
2, 37936, Note_off_c, 0, 69, 100
2, 38144, Note_on_c, 0, 67, 60
2, 38192, Note_off_c, 0, 67, 100
2, 38272, Note_on_c, 0, 65, 60
2, 38320, Note_off_c, 0, 65, 100
2, 38528, Note_on_c, 0, 69, 60
2, 38576, Note_off_c, 0, 69, 100
2, 38656, Note_on_c, 0, 67, 60
2, 38704, Note_off_c, 0, 67, 100
2, 38912, Note_on_c, 0, 65, 60
2, 38960, Note_off_c, 0, 65, 100
2, 39040, Note_on_c, 0, 64, 60
2, 39088, Note_off_c, 0, 64, 100
2, 39296, Note_on_c, 0, 65, 90
2, 39344, Note_off_c, 0, 65, 100
2, 39424, Note_on_c, 0, 69, 90
2, 39472, Note_off_c, 0, 69, 100
2, 39552, Note_on_c, 0, 72, 90
2, 39600, Note_off_c, 0, 72, 100
2, 39680, Note_on_c, 0, 77, 90
2, 39728, Note_off_c, 0, 77, 100
2, 39808, Note_on_c, 0, 81, 90
2, 39856, Note_off_c, 0, 81, 100
2, 39936, Note_on_c, 0, 74, 79
2, 39984, Note_off_c, 0, 74, 100
2, 40064, Note_on_c, 0, 79, 79
2, 40112, Note_off_c, 0, 79, 100
2, 40192, Note_on_c, 0, 78, 79
2, 40240, Note_off_c, 0, 78, 100
2, 40320, Note_on_c, 0, 79, 79
2, 40368, Note_off_c, 0, 79, 100
2, 40448, Note_on_c, 0, 82, 79
2, 40496, Note_off_c, 0, 82, 100
2, 40576, Note_on_c, 0, 81, 79
2, 40624, Note_off_c, 0, 81, 100
2, 40704, Note_on_c, 0, 82, 79
2, 40752, Note_off_c, 0, 82, 100
2, 40832, Note_on_c, 0, 86, 79
2, 40880, Note_off_c, 0, 86, 100
2, 40960, Note_on_c, 0, 85, 79
2, 41008, Note_off_c, 0, 85, 100
2, 41088, Note_on_c, 0, 86, 79
2, 41088, Note_on_c, 0, 67, 79
2, 41088, Note_on_c, 0, 58, 79
2, 41136, Note_off_c, 0, 86, 100
2, 41216, Note_on_c, 0, 82, 79
2, 41264, Note_off_c, 0, 82, 100
2, 41344, Note_off_c, 0, 67, 100
2, 41344, Note_off_c, 0, 58, 100
2, 41344, Note_on_c, 0, 79, 79
2, 41392, Note_off_c, 0, 79, 100
2, 41472, Note_on_c, 0, 77, 79
2, 41472, Note_on_c, 0, 69, 79
2, 41728, Note_off_c, 0, 77, 100
2, 41728, Note_off_c, 0, 69, 100
2, 41856, Note_on_c, 0, 76, 79
2, 41856, Note_on_c, 0, 67, 79
2, 42112, Note_off_c, 0, 76, 100
2, 42112, Note_off_c, 0, 67, 100
2, 43008, Note_on_c, 0, 74, 90
2, 43040, Note_off_c, 0, 74, 100
2, 43056, Note_on_c, 0, 72, 90
2, 43088, Note_off_c, 0, 72, 100
2, 43104, Note_on_c, 0, 74, 90
2, 43136, Note_off_c, 0, 74, 100
2, 43152, Note_on_c, 0, 72, 90
2, 43184, Note_off_c, 0, 72, 100
2, 43200, Note_on_c, 0, 74, 90
2, 43244, Note_off_c, 0, 74, 64
2, 43248, Note_on_c, 0, 72, 90
2, 43292, Note_off_c, 0, 72, 64
2, 43296, Note_on_c, 0, 71, 90
2, 43340, Note_off_c, 0, 71, 64
2, 43344, Note_on_c, 0, 72, 90
2, 43388, Note_off_c, 0, 72, 64
2, 43392, Note_on_c, 0, 77, 90
2, 43584, Note_off_c, 0, 77, 100
2, 43680, Note_on_c, 0, 69, 90
2, 43744, Note_off_c, 0, 69, 100
2, 43776, Note_on_c, 0, 72, 90
2, 43808, Note_off_c, 0, 72, 100
2, 43824, Note_on_c, 0, 70, 90
2, 44080, Note_off_c, 0, 70, 100
2, 44160, Note_on_c, 0, 67, 90
2, 44416, Note_off_c, 0, 67, 100
2, 44544, Note_on_c, 0, 79, 90
2, 44576, Note_off_c, 0, 79, 100
2, 44592, Note_on_c, 0, 81, 90
2, 44624, Note_off_c, 0, 81, 100
2, 44640, Note_on_c, 0, 82, 90
2, 44896, Note_off_c, 0, 82, 100
2, 44928, Note_on_c, 0, 81, 90
2, 44992, Note_off_c, 0, 81, 100
2, 45024, Note_on_c, 0, 79, 90
2, 45088, Note_off_c, 0, 79, 100
2, 45120, Note_on_c, 0, 77, 90
2, 45184, Note_off_c, 0, 77, 100
2, 45216, Note_on_c, 0, 76, 90
2, 45280, Note_off_c, 0, 76, 100
2, 45312, Note_on_c, 0, 77, 90
2, 45568, Note_off_c, 0, 77, 100
2, 45696, Note_on_c, 0, 81, 90
2, 45824, Note_off_c, 0, 81, 100
2, 46080, Note_on_c, 0, 74, 90
2, 46112, Note_off_c, 0, 74, 100
2, 46128, Note_on_c, 0, 72, 90
2, 46160, Note_off_c, 0, 72, 100
2, 46176, Note_on_c, 0, 74, 90
2, 46208, Note_off_c, 0, 74, 100
2, 46224, Note_on_c, 0, 72, 90
2, 46256, Note_off_c, 0, 72, 100
2, 46272, Note_on_c, 0, 74, 90
2, 46304, Note_off_c, 0, 74, 100
2, 46320, Note_on_c, 0, 72, 90
2, 46352, Note_off_c, 0, 72, 100
2, 46368, Note_on_c, 0, 71, 90
2, 46400, Note_off_c, 0, 71, 100
2, 46416, Note_on_c, 0, 72, 90
2, 46448, Note_off_c, 0, 72, 100
2, 46464, Note_on_c, 0, 77, 90
2, 46720, Note_off_c, 0, 77, 100
2, 46752, Note_on_c, 0, 69, 90
2, 46816, Note_off_c, 0, 69, 100
2, 46848, Note_on_c, 0, 72, 90
2, 46880, Note_off_c, 0, 72, 100
2, 46896, Note_on_c, 0, 70, 90
2, 47152, Note_off_c, 0, 70, 100
2, 47232, Note_on_c, 0, 67, 90
2, 47488, Note_off_c, 0, 67, 100
2, 47616, Note_on_c, 0, 79, 90
2, 47648, Note_off_c, 0, 79, 100
2, 47664, Note_on_c, 0, 81, 90
2, 47696, Note_off_c, 0, 81, 100
2, 47712, Note_on_c, 0, 84, 90
2, 47968, Note_off_c, 0, 84, 100
2, 48000, Note_on_c, 0, 81, 90
2, 48064, Note_off_c, 0, 81, 100
2, 48096, Note_on_c, 0, 79, 90
2, 48160, Note_off_c, 0, 79, 100
2, 48192, Note_on_c, 0, 77, 90
2, 48256, Note_off_c, 0, 77, 100
2, 48288, Note_on_c, 0, 76, 90
2, 48352, Note_off_c, 0, 76, 100
2, 48384, Note_on_c, 0, 77, 90
2, 48640, Note_off_c, 0, 77, 100
2, 48768, Note_on_c, 0, 81, 90
2, 48896, Note_off_c, 0, 81, 100
2, 49280, Note_on_c, 0, 84, 60
2, 49328, Note_off_c, 0, 84, 100
2, 49408, Note_on_c, 0, 82, 60
2, 49456, Note_off_c, 0, 82, 100
2, 49536, Note_on_c, 0, 81, 60
2, 49584, Note_off_c, 0, 81, 100
2, 49664, Note_on_c, 0, 81, 60
2, 49712, Note_off_c, 0, 81, 100
2, 49792, Note_on_c, 0, 79, 60
2, 49840, Note_off_c, 0, 79, 100
2, 49920, Note_on_c, 0, 77, 60
2, 49968, Note_off_c, 0, 77, 100
2, 50048, Note_on_c, 0, 77, 60
2, 50096, Note_off_c, 0, 77, 100
2, 50176, Note_on_c, 0, 75, 60
2, 50224, Note_off_c, 0, 75, 100
2, 50304, Note_on_c, 0, 74, 60
2, 50352, Note_off_c, 0, 74, 100
2, 50432, Note_on_c, 0, 74, 60
2, 50480, Note_off_c, 0, 74, 100
2, 50560, Note_on_c, 0, 73, 60
2, 50608, Note_off_c, 0, 73, 100
2, 50688, Note_on_c, 0, 74, 69
2, 50816, Note_off_c, 0, 74, 100
2, 50880, Note_on_c, 0, 76, 70
2, 51008, Note_off_c, 0, 76, 100
2, 51072, Note_on_c, 0, 77, 73
2, 51200, Note_off_c, 0, 77, 100
2, 51264, Note_on_c, 0, 78, 76
2, 51392, Note_off_c, 0, 78, 100
2, 51456, Note_on_c, 0, 79, 79
2, 51584, Note_off_c, 0, 79, 100
2, 51648, Note_on_c, 0, 81, 81
2, 51776, Note_off_c, 0, 81, 100
2, 51840, Note_on_c, 0, 82, 84
2, 51840, Note_on_c, 0, 70, 84
2, 51968, Note_off_c, 0, 82, 100
2, 52032, Note_on_c, 0, 86, 87
2, 52096, Note_off_c, 0, 70, 100
2, 52160, Note_off_c, 0, 86, 100
2, 52224, Note_on_c, 0, 86, 90
2, 52224, Note_on_c, 0, 69, 90
2, 52352, Note_off_c, 0, 86, 100
2, 52416, Note_on_c, 0, 84, 90
2, 52480, Note_off_c, 0, 69, 100
2, 52544, Note_off_c, 0, 84, 100
2, 52608, Note_on_c, 0, 74, 90
2, 52608, Note_on_c, 0, 82, 90
2, 52668, Note_off_c, 0, 82, 64
2, 52672, Note_on_c, 0, 84, 90
2, 52732, Note_off_c, 0, 84, 64
2, 52736, Note_on_c, 0, 82, 90
2, 52796, Note_off_c, 0, 82, 64
2, 52800, Note_on_c, 0, 81, 90
2, 52864, Note_off_c, 0, 74, 100
2, 52928, Note_off_c, 0, 81, 100
2, 52992, Note_on_c, 0, 81, 90
2, 52992, Note_on_c, 0, 70, 90
2, 53120, Note_off_c, 0, 81, 100
2, 53184, Note_on_c, 0, 79, 90
2, 53248, Note_off_c, 0, 70, 100
2, 53312, Note_off_c, 0, 79, 100
2, 53376, Note_on_c, 0, 72, 90
2, 53376, Note_on_c, 0, 77, 90
2, 53436, Note_off_c, 0, 77, 64
2, 53440, Note_on_c, 0, 79, 90
2, 53500, Note_off_c, 0, 79, 64
2, 53504, Note_on_c, 0, 77, 90
2, 53564, Note_off_c, 0, 77, 64
2, 53568, Note_on_c, 0, 76, 90
2, 53632, Note_off_c, 0, 72, 100
2, 53696, Note_off_c, 0, 76, 100
2, 53760, Note_on_c, 0, 69, 60
2, 53888, Note_on_c, 0, 84, 60
2, 53936, Note_off_c, 0, 84, 100
2, 54016, Note_off_c, 0, 69, 100
2, 54016, Note_on_c, 0, 82, 60
2, 54064, Note_off_c, 0, 82, 100
2, 54144, Note_on_c, 0, 81, 60
2, 54192, Note_off_c, 0, 81, 100
2, 54272, Note_on_c, 0, 81, 60
2, 54320, Note_off_c, 0, 81, 100
2, 54400, Note_on_c, 0, 79, 60
2, 54448, Note_off_c, 0, 79, 100
2, 54528, Note_on_c, 0, 77, 60
2, 54576, Note_off_c, 0, 77, 100
2, 54656, Note_on_c, 0, 77, 60
2, 54704, Note_off_c, 0, 77, 100
2, 54784, Note_on_c, 0, 75, 60
2, 54832, Note_off_c, 0, 75, 100
2, 54912, Note_on_c, 0, 74, 60
2, 54960, Note_off_c, 0, 74, 100
2, 55040, Note_on_c, 0, 74, 60
2, 55088, Note_off_c, 0, 74, 100
2, 55168, Note_on_c, 0, 73, 60
2, 55216, Note_off_c, 0, 73, 100
2, 55296, Note_on_c, 0, 74, 69
2, 55296, Note_on_c, 0, 70, 69
2, 55424, Note_off_c, 0, 74, 100
2, 55488, Note_on_c, 0, 76, 69
2, 55552, Note_off_c, 0, 70, 100
2, 55616, Note_off_c, 0, 76, 100
2, 55680, Note_on_c, 0, 77, 70
2, 55808, Note_off_c, 0, 77, 100
2, 55872, Note_on_c, 0, 78, 72
2, 56000, Note_off_c, 0, 78, 100
2, 56064, Note_on_c, 0, 79, 73
2, 56192, Note_off_c, 0, 79, 100
2, 56256, Note_on_c, 0, 81, 75
2, 56256, Note_on_c, 0, 66, 75
2, 56384, Note_off_c, 0, 81, 100
2, 56384, Note_off_c, 0, 66, 100
2, 56448, Note_on_c, 0, 82, 76
2, 56448, Note_on_c, 0, 67, 76
2, 56576, Note_off_c, 0, 82, 100
2, 56576, Note_off_c, 0, 67, 100
2, 56640, Note_on_c, 0, 84, 78
2, 56640, Note_on_c, 0, 69, 78
2, 56768, Note_off_c, 0, 84, 100
2, 56768, Note_off_c, 0, 69, 100
2, 56832, Note_on_c, 0, 86, 79
2, 56832, Note_on_c, 0, 70, 79
2, 56960, Note_off_c, 0, 86, 100
2, 56960, Note_off_c, 0, 70, 100
2, 57024, Note_on_c, 0, 88, 79
2, 57024, Note_on_c, 0, 72, 79
2, 57152, Note_off_c, 0, 88, 100
2, 57152, Note_off_c, 0, 72, 100
2, 57216, Note_on_c, 0, 89, 81
2, 57216, Note_on_c, 0, 74, 81
2, 57344, Note_off_c, 0, 89, 100
2, 57344, Note_off_c, 0, 74, 100
2, 57408, Note_on_c, 0, 88, 82
2, 57408, Note_on_c, 0, 73, 82
2, 57536, Note_off_c, 0, 88, 100
2, 57536, Note_off_c, 0, 73, 100
2, 57600, Note_on_c, 0, 89, 84
2, 57600, Note_on_c, 0, 74, 84
2, 57728, Note_off_c, 0, 89, 100
2, 57728, Note_off_c, 0, 74, 100
2, 57792, Note_on_c, 0, 88, 85
2, 57792, Note_on_c, 0, 73, 85
2, 57920, Note_off_c, 0, 88, 100
2, 57920, Note_off_c, 0, 73, 100
2, 57984, Note_on_c, 0, 89, 87
2, 57984, Note_on_c, 0, 74, 87
2, 58112, Note_off_c, 0, 89, 100
2, 58112, Note_off_c, 0, 74, 100
2, 58176, Note_on_c, 0, 88, 88
2, 58176, Note_on_c, 0, 73, 88
2, 58304, Note_off_c, 0, 88, 100
2, 58304, Note_off_c, 0, 73, 100
2, 58368, Note_on_c, 0, 89, 90
2, 58368, Note_on_c, 0, 74, 90
2, 58496, Note_off_c, 0, 89, 100
2, 58560, Note_on_c, 0, 86, 90
2, 58624, Note_off_c, 0, 74, 100
2, 58688, Note_off_c, 0, 86, 100
2, 58752, Note_on_c, 0, 82, 90
2, 58752, Note_on_c, 0, 58, 90
2, 58752, Note_on_c, 0, 65, 90
2, 58880, Note_off_c, 0, 82, 100
2, 58944, Note_on_c, 0, 79, 90
2, 59008, Note_off_c, 0, 58, 100
2, 59072, Note_off_c, 0, 79, 100
2, 59136, Note_on_c, 0, 77, 90
2, 59136, Note_on_c, 0, 60, 90
2, 59168, Note_off_c, 0, 77, 100
2, 59184, Note_on_c, 0, 79, 90
2, 59216, Note_off_c, 0, 79, 100
2, 59232, Note_on_c, 0, 81, 90
2, 59264, Note_off_c, 0, 65, 100
2, 59264, Note_off_c, 0, 81, 100
2, 59328, Note_on_c, 0, 79, 90
2, 59360, Note_off_c, 0, 79, 100
2, 59376, Note_on_c, 0, 81, 90
2, 59408, Note_off_c, 0, 81, 100
2, 59424, Note_on_c, 0, 79, 90
2, 59456, Note_off_c, 0, 79, 100
2, 59472, Note_on_c, 0, 81, 90
2, 59504, Note_off_c, 0, 81, 100
2, 59520, Note_on_c, 0, 79, 90
2, 59520, Note_on_c, 0, 64, 90
2, 59552, Note_off_c, 0, 79, 100
2, 59568, Note_on_c, 0, 81, 90
2, 59600, Note_off_c, 0, 81, 100
2, 59616, Note_on_c, 0, 79, 90
2, 59648, Note_off_c, 0, 60, 100
2, 59648, Note_off_c, 0, 79, 100
2, 59664, Note_on_c, 0, 81, 90
2, 59696, Note_off_c, 0, 81, 100
2, 59712, Note_on_c, 0, 77, 90
2, 59776, Note_off_c, 0, 64, 100
2, 59804, Note_off_c, 0, 77, 64
2, 59808, Note_on_c, 0, 79, 90
2, 59900, Note_off_c, 0, 79, 64
2, 59904, Note_on_c, 0, 77, 90
2, 59904, Note_on_c, 0, 65, 90
2, 60032, Note_off_c, 0, 65, 100
2, 60096, Note_on_c, 0, 72, 90
2, 60160, Note_off_c, 0, 77, 100
2, 60224, Note_off_c, 0, 72, 100
2, 60288, Note_on_c, 0, 75, 60
2, 60288, Note_on_c, 0, 69, 60
2, 60320, Note_off_c, 0, 75, 100
2, 60336, Note_on_c, 0, 77, 60
2, 60368, Note_off_c, 0, 77, 100
2, 60384, Note_on_c, 0, 75, 60
2, 60416, Note_off_c, 0, 69, 100
2, 60416, Note_off_c, 0, 75, 100
2, 60432, Note_on_c, 0, 77, 60
2, 60464, Note_off_c, 0, 77, 100
2, 60480, Note_on_c, 0, 75, 60
2, 60480, Note_on_c, 0, 65, 60
2, 60512, Note_off_c, 0, 75, 100
2, 60528, Note_on_c, 0, 77, 60
2, 60560, Note_off_c, 0, 77, 100
2, 60576, Note_on_c, 0, 75, 60
2, 60608, Note_off_c, 0, 65, 100
2, 60608, Note_off_c, 0, 75, 100
2, 60624, Note_on_c, 0, 77, 60
2, 60656, Note_off_c, 0, 77, 100
2, 60672, Note_on_c, 0, 75, 60
2, 60672, Note_on_c, 0, 69, 60
2, 60704, Note_off_c, 0, 75, 100
2, 60720, Note_on_c, 0, 77, 60
2, 60752, Note_off_c, 0, 77, 100
2, 60768, Note_on_c, 0, 75, 60
2, 60800, Note_off_c, 0, 69, 100
2, 60800, Note_off_c, 0, 75, 100
2, 60816, Note_on_c, 0, 77, 60
2, 60848, Note_off_c, 0, 77, 100
2, 60864, Note_on_c, 0, 75, 60
2, 60864, Note_on_c, 0, 65, 60
2, 60896, Note_off_c, 0, 75, 100
2, 60912, Note_on_c, 0, 77, 60
2, 60944, Note_off_c, 0, 77, 100
2, 60960, Note_on_c, 0, 75, 60
2, 60992, Note_off_c, 0, 65, 100
2, 60992, Note_off_c, 0, 75, 100
2, 61008, Note_on_c, 0, 77, 60
2, 61040, Note_off_c, 0, 77, 100
2, 61056, Note_on_c, 0, 75, 60
2, 61056, Note_on_c, 0, 69, 60
2, 61088, Note_off_c, 0, 75, 100
2, 61104, Note_on_c, 0, 77, 60
2, 61136, Note_off_c, 0, 77, 100
2, 61152, Note_on_c, 0, 75, 60
2, 61184, Note_off_c, 0, 69, 100
2, 61184, Note_off_c, 0, 75, 100
2, 61248, Note_on_c, 0, 65, 60
2, 61248, Note_on_c, 0, 74, 60
2, 61340, Note_off_c, 0, 74, 64
2, 61344, Note_on_c, 0, 75, 60
2, 61376, Note_off_c, 0, 65, 100
2, 61436, Note_off_c, 0, 75, 64
2, 61440, Note_on_c, 0, 74, 90
2, 61440, Note_on_c, 0, 70, 90
2, 61568, Note_off_c, 0, 70, 100
2, 61632, Note_on_c, 0, 65, 90
2, 61696, Note_off_c, 0, 74, 100
2, 61760, Note_off_c, 0, 65, 100
2, 61824, Note_on_c, 0, 76, 60
2, 61824, Note_on_c, 0, 67, 60
2, 61824, Note_on_c, 0, 70, 60
2, 61856, Note_off_c, 0, 76, 100
2, 61872, Note_on_c, 0, 77, 60
2, 61904, Note_off_c, 0, 77, 100
2, 61920, Note_on_c, 0, 76, 60
2, 61952, Note_off_c, 0, 67, 100
2, 61952, Note_off_c, 0, 76, 100
2, 61968, Note_on_c, 0, 77, 60
2, 62000, Note_off_c, 0, 77, 100
2, 62016, Note_on_c, 0, 76, 60
2, 62016, Note_on_c, 0, 65, 60
2, 62048, Note_off_c, 0, 76, 100
2, 62064, Note_on_c, 0, 77, 60
2, 62096, Note_off_c, 0, 77, 100
2, 62112, Note_on_c, 0, 76, 60
2, 62144, Note_off_c, 0, 65, 100
2, 62144, Note_off_c, 0, 76, 100
2, 62160, Note_on_c, 0, 77, 60
2, 62192, Note_off_c, 0, 77, 100
2, 62208, Note_on_c, 0, 76, 60
2, 62208, Note_on_c, 0, 67, 60
2, 62240, Note_off_c, 0, 76, 100
2, 62256, Note_on_c, 0, 77, 60
2, 62288, Note_off_c, 0, 77, 100
2, 62304, Note_on_c, 0, 76, 60
2, 62336, Note_off_c, 0, 67, 100
2, 62336, Note_off_c, 0, 76, 100
2, 62352, Note_on_c, 0, 77, 60
2, 62384, Note_off_c, 0, 77, 100
2, 62400, Note_on_c, 0, 76, 60
2, 62400, Note_on_c, 0, 65, 60
2, 62432, Note_off_c, 0, 76, 100
2, 62448, Note_on_c, 0, 77, 60
2, 62480, Note_off_c, 0, 77, 100
2, 62496, Note_on_c, 0, 76, 60
2, 62528, Note_off_c, 0, 65, 100
2, 62528, Note_off_c, 0, 76, 100
2, 62544, Note_on_c, 0, 77, 60
2, 62576, Note_off_c, 0, 77, 100
2, 62592, Note_off_c, 0, 70, 100
2, 62592, Note_on_c, 0, 76, 60
2, 62592, Note_on_c, 0, 67, 60
2, 62624, Note_off_c, 0, 76, 100
2, 62640, Note_on_c, 0, 77, 60
2, 62672, Note_off_c, 0, 77, 100
2, 62688, Note_on_c, 0, 76, 60
2, 62720, Note_off_c, 0, 67, 100
2, 62720, Note_off_c, 0, 76, 100
2, 62736, Note_on_c, 0, 77, 60
2, 62768, Note_off_c, 0, 77, 100
2, 62784, Note_on_c, 0, 65, 60
2, 62784, Note_on_c, 0, 74, 60
2, 62876, Note_off_c, 0, 74, 64
2, 62880, Note_on_c, 0, 76, 60
2, 62912, Note_off_c, 0, 65, 100
2, 62972, Note_off_c, 0, 76, 64
2, 62976, Note_on_c, 0, 77, 90
2, 62976, Note_on_c, 0, 69, 90
2, 63104, Note_off_c, 0, 69, 100
2, 63168, Note_on_c, 0, 65, 90
2, 63232, Note_off_c, 0, 77, 100
2, 63296, Note_off_c, 0, 65, 100
2, 63360, Note_on_c, 0, 75, 60
2, 63360, Note_on_c, 0, 69, 60
2, 63360, Note_on_c, 0, 72, 60
2, 63392, Note_off_c, 0, 75, 100
2, 63408, Note_on_c, 0, 77, 60
2, 63440, Note_off_c, 0, 77, 100
2, 63456, Note_on_c, 0, 75, 60
2, 63488, Note_off_c, 0, 69, 100
2, 63488, Note_off_c, 0, 75, 100
2, 63504, Note_on_c, 0, 77, 60
2, 63536, Note_off_c, 0, 77, 100
2, 63552, Note_on_c, 0, 75, 60
2, 63552, Note_on_c, 0, 65, 60
2, 63584, Note_off_c, 0, 75, 100
2, 63600, Note_on_c, 0, 77, 60
2, 63632, Note_off_c, 0, 77, 100
2, 63648, Note_on_c, 0, 75, 60
2, 63680, Note_off_c, 0, 65, 100
2, 63680, Note_off_c, 0, 75, 100
2, 63696, Note_on_c, 0, 77, 60
2, 63728, Note_off_c, 0, 77, 100
2, 63744, Note_on_c, 0, 75, 60
2, 63744, Note_on_c, 0, 69, 60
2, 63776, Note_off_c, 0, 75, 100
2, 63792, Note_on_c, 0, 77, 60
2, 63824, Note_off_c, 0, 77, 100
2, 63840, Note_on_c, 0, 75, 60
2, 63872, Note_off_c, 0, 69, 100
2, 63872, Note_off_c, 0, 75, 100
2, 63888, Note_on_c, 0, 77, 60
2, 63920, Note_off_c, 0, 77, 100
2, 63936, Note_on_c, 0, 75, 60
2, 63936, Note_on_c, 0, 65, 60
2, 63968, Note_off_c, 0, 75, 100
2, 63984, Note_on_c, 0, 77, 60
2, 64016, Note_off_c, 0, 77, 100
2, 64032, Note_on_c, 0, 75, 60
2, 64064, Note_off_c, 0, 65, 100
2, 64064, Note_off_c, 0, 75, 100
2, 64080, Note_on_c, 0, 77, 60
2, 64112, Note_off_c, 0, 77, 100
2, 64128, Note_off_c, 0, 72, 100
2, 64128, Note_on_c, 0, 75, 60
2, 64128, Note_on_c, 0, 69, 60
2, 64160, Note_off_c, 0, 75, 100
2, 64176, Note_on_c, 0, 77, 60
2, 64208, Note_off_c, 0, 77, 100
2, 64224, Note_on_c, 0, 75, 60
2, 64256, Note_off_c, 0, 69, 100
2, 64256, Note_off_c, 0, 75, 100
2, 64256, Note_on_c, 0, 77, 60
2, 64288, Note_off_c, 0, 77, 100
2, 64320, Note_on_c, 0, 65, 60
2, 64320, Note_on_c, 0, 74, 60
2, 64412, Note_off_c, 0, 74, 64
2, 64416, Note_on_c, 0, 75, 60
2, 64448, Note_off_c, 0, 65, 100
2, 64508, Note_off_c, 0, 75, 64
2, 64512, Note_on_c, 0, 74, 90
2, 64512, Note_on_c, 0, 70, 90
2, 64640, Note_off_c, 0, 70, 100
2, 64704, Note_on_c, 0, 65, 90
2, 64768, Note_off_c, 0, 74, 100
2, 64832, Note_off_c, 0, 65, 100
2, 64896, Note_on_c, 0, 76, 60
2, 64896, Note_on_c, 0, 70, 60
2, 64896, Note_on_c, 0, 67, 60
2, 64928, Note_off_c, 0, 76, 100
2, 64944, Note_on_c, 0, 77, 60
2, 64976, Note_off_c, 0, 77, 100
2, 64992, Note_on_c, 0, 76, 60
2, 65024, Note_off_c, 0, 67, 100
2, 65024, Note_off_c, 0, 76, 100
2, 65040, Note_on_c, 0, 77, 60
2, 65072, Note_off_c, 0, 77, 100
2, 65088, Note_on_c, 0, 76, 60
2, 65088, Note_on_c, 0, 65, 60
2, 65120, Note_off_c, 0, 76, 100
2, 65136, Note_on_c, 0, 77, 60
2, 65168, Note_off_c, 0, 77, 100
2, 65184, Note_on_c, 0, 76, 60
2, 65216, Note_off_c, 0, 65, 100
2, 65216, Note_off_c, 0, 76, 100
2, 65232, Note_on_c, 0, 77, 60
2, 65264, Note_off_c, 0, 77, 100
2, 65280, Note_on_c, 0, 76, 60
2, 65280, Note_on_c, 0, 67, 60
2, 65312, Note_off_c, 0, 76, 100
2, 65328, Note_on_c, 0, 77, 60
2, 65360, Note_off_c, 0, 77, 100
2, 65376, Note_on_c, 0, 76, 60
2, 65408, Note_off_c, 0, 67, 100
2, 65408, Note_off_c, 0, 76, 100
2, 65424, Note_on_c, 0, 77, 60
2, 65456, Note_off_c, 0, 77, 100
2, 65472, Note_on_c, 0, 76, 60
2, 65472, Note_on_c, 0, 65, 60
2, 65504, Note_off_c, 0, 76, 100
2, 65520, Note_on_c, 0, 77, 60
2, 65552, Note_off_c, 0, 77, 100
2, 65568, Note_on_c, 0, 76, 60
2, 65600, Note_off_c, 0, 65, 100
2, 65600, Note_off_c, 0, 76, 100
2, 65616, Note_on_c, 0, 77, 60
2, 65648, Note_off_c, 0, 77, 100
2, 65664, Note_off_c, 0, 70, 100
2, 65664, Note_on_c, 0, 76, 60
2, 65664, Note_on_c, 0, 67, 60
2, 65696, Note_off_c, 0, 76, 100
2, 65728, Note_on_c, 0, 77, 60
2, 65760, Note_off_c, 0, 77, 100
2, 65760, Note_on_c, 0, 76, 60
2, 65792, Note_off_c, 0, 67, 100
2, 65792, Note_off_c, 0, 76, 100
2, 65808, Note_on_c, 0, 77, 60
2, 65840, Note_off_c, 0, 77, 100
2, 65856, Note_on_c, 0, 65, 60
2, 65856, Note_on_c, 0, 74, 60
2, 65948, Note_off_c, 0, 74, 64
2, 65952, Note_on_c, 0, 76, 60
2, 65984, Note_off_c, 0, 65, 100
2, 66044, Note_off_c, 0, 76, 64
2, 66048, Note_on_c, 0, 77, 90
2, 66048, Note_on_c, 0, 69, 90
2, 66048, Note_on_c, 0, 65, 90
2, 66560, Note_off_c, 0, 77, 100
2, 66816, Note_on_c, 0, 77, 60
2, 66944, Note_off_c, 0, 77, 100
2, 67008, Note_on_c, 0, 82, 60
2, 67136, Note_off_c, 0, 82, 100
2, 67200, Note_on_c, 0, 79, 60
2, 67328, Note_off_c, 0, 79, 100
2, 67392, Note_on_c, 0, 76, 60
2, 67520, Note_off_c, 0, 76, 100
2, 67584, Note_on_c, 0, 77, 90
2, 68096, Note_off_c, 0, 77, 100
2, 68352, Note_on_c, 0, 77, 60
2, 68480, Note_off_c, 0, 77, 100
2, 68544, Note_on_c, 0, 82, 60
2, 68672, Note_off_c, 0, 82, 100
2, 68736, Note_on_c, 0, 79, 60
2, 68864, Note_off_c, 0, 79, 100
2, 68928, Note_on_c, 0, 76, 60
2, 69056, Note_off_c, 0, 76, 100
2, 69120, Note_on_c, 0, 77, 90
2, 69248, Note_off_c, 0, 77, 100
2, 69312, Note_on_c, 0, 79, 60
2, 69440, Note_off_c, 0, 79, 100
2, 69504, Note_on_c, 0, 75, 60
2, 69632, Note_off_c, 0, 75, 100
2, 69696, Note_on_c, 0, 73, 60
2, 69824, Note_off_c, 0, 73, 100
2, 69884, Note_off_c, 0, 65, 64
2, 69884, Note_off_c, 0, 69, 64
2, 69888, Note_on_c, 0, 74, 90
2, 70016, Note_off_c, 0, 74, 100
2, 70080, Note_on_c, 0, 75, 60
2, 70208, Note_off_c, 0, 75, 100
2, 70272, Note_on_c, 0, 72, 60
2, 70400, Note_off_c, 0, 72, 100
2, 70464, Note_on_c, 0, 69, 60
2, 70592, Note_off_c, 0, 69, 100
2, 70656, Note_on_c, 0, 70, 90
2, 70784, Note_off_c, 0, 70, 100
2, 70848, Note_on_c, 0, 72, 90
2, 70976, Note_off_c, 0, 72, 100
2, 71040, Note_on_c, 0, 74, 90
2, 71168, Note_off_c, 0, 74, 100
2, 71232, Note_on_c, 0, 75, 90
2, 71360, Note_off_c, 0, 75, 100
2, 71424, Note_on_c, 0, 77, 60
2, 71680, Note_off_c, 0, 77, 100
2, 71808, Note_on_c, 0, 79, 60
2, 71808, Note_on_c, 0, 67, 60
2, 71808, Note_on_c, 0, 59, 60
2, 72064, Note_off_c, 0, 79, 100
2, 72064, Note_off_c, 0, 67, 100
2, 72064, Note_off_c, 0, 59, 100
2, 72192, Note_on_c, 0, 77, 60
2, 72192, Note_on_c, 0, 67, 60
2, 72192, Note_on_c, 0, 60, 60
2, 72320, Note_off_c, 0, 77, 100
2, 72384, Note_on_c, 0, 75, 60
2, 72512, Note_off_c, 0, 75, 100
2, 72576, Note_on_c, 0, 74, 60
2, 72704, Note_off_c, 0, 67, 100
2, 72704, Note_off_c, 0, 60, 100
2, 72704, Note_off_c, 0, 74, 100
2, 72768, Note_on_c, 0, 72, 60
2, 72896, Note_off_c, 0, 72, 100
2, 72960, Note_on_c, 0, 75, 60
2, 73216, Note_off_c, 0, 75, 100
2, 73344, Note_on_c, 0, 77, 60
2, 73344, Note_on_c, 0, 65, 60
2, 73344, Note_on_c, 0, 57, 60
2, 73600, Note_off_c, 0, 77, 100
2, 73600, Note_off_c, 0, 65, 100
2, 73600, Note_off_c, 0, 57, 100
2, 73728, Note_on_c, 0, 75, 60
2, 73728, Note_on_c, 0, 58, 60
2, 73728, Note_on_c, 0, 67, 60
2, 73856, Note_off_c, 0, 75, 100
2, 73920, Note_on_c, 0, 74, 60
2, 74048, Note_off_c, 0, 74, 100
2, 74112, Note_on_c, 0, 72, 60
2, 74240, Note_off_c, 0, 58, 100
2, 74240, Note_off_c, 0, 67, 100
2, 74240, Note_off_c, 0, 72, 100
2, 74304, Note_on_c, 0, 70, 60
2, 74432, Note_off_c, 0, 70, 100
2, 74496, Note_on_c, 0, 77, 60
2, 74752, Note_off_c, 0, 77, 100
2, 74880, Note_on_c, 0, 82, 60
2, 74880, Note_on_c, 0, 70, 60
2, 74880, Note_on_c, 0, 62, 60
2, 75136, Note_off_c, 0, 82, 100
2, 75136, Note_off_c, 0, 70, 100
2, 75136, Note_off_c, 0, 62, 100
2, 75264, Note_on_c, 0, 81, 60
2, 75264, Note_on_c, 0, 63, 60
2, 75264, Note_on_c, 0, 70, 60
2, 75392, Note_off_c, 0, 81, 100
2, 75456, Note_on_c, 0, 79, 60
2, 75520, Note_off_c, 0, 63, 100
2, 75584, Note_off_c, 0, 79, 100
2, 75648, Note_on_c, 0, 62, 60
2, 75648, Note_on_c, 0, 79, 60
2, 75776, Note_off_c, 0, 70, 100
2, 75776, Note_off_c, 0, 79, 100
2, 75840, Note_on_c, 0, 77, 60
2, 75904, Note_off_c, 0, 62, 100
2, 75968, Note_off_c, 0, 77, 100
2, 76032, Note_on_c, 0, 77, 60
2, 76032, Note_on_c, 0, 69, 60
2, 76032, Note_on_c, 0, 60, 60
2, 76160, Note_off_c, 0, 77, 100
2, 76224, Note_on_c, 0, 75, 60
2, 76288, Note_off_c, 0, 69, 100
2, 76288, Note_off_c, 0, 60, 100
2, 76352, Note_off_c, 0, 75, 100
2, 76416, Note_on_c, 0, 75, 60
2, 76416, Note_on_c, 0, 70, 60
2, 76416, Note_on_c, 0, 58, 60
2, 76544, Note_off_c, 0, 75, 100
2, 76608, Note_on_c, 0, 74, 60
2, 76672, Note_off_c, 0, 70, 100
2, 76672, Note_off_c, 0, 58, 100
2, 76736, Note_off_c, 0, 74, 100
2, 76800, Note_on_c, 0, 74, 60
2, 76800, Note_on_c, 0, 70, 60
2, 76800, Note_on_c, 0, 65, 60
2, 77056, Note_off_c, 0, 74, 100
2, 77056, Note_off_c, 0, 70, 100
2, 77184, Note_on_c, 0, 72, 60
2, 77184, Note_on_c, 0, 69, 60
2, 77312, Note_off_c, 0, 65, 100
2, 77440, Note_off_c, 0, 72, 100
2, 77440, Note_off_c, 0, 69, 100
2, 77568, Note_on_c, 0, 77, 90
2, 77696, Note_off_c, 0, 77, 100
2, 77760, Note_on_c, 0, 76, 90
2, 77888, Note_off_c, 0, 76, 100
2, 77952, Note_on_c, 0, 77, 90
2, 78080, Note_off_c, 0, 77, 100
2, 78144, Note_on_c, 0, 79, 90
2, 78272, Note_off_c, 0, 79, 100
2, 78336, Note_on_c, 0, 77, 90
2, 78464, Note_off_c, 0, 77, 100
2, 78528, Note_on_c, 0, 75, 90
2, 78656, Note_off_c, 0, 75, 100
2, 78720, Note_on_c, 0, 74, 90
2, 78848, Note_off_c, 0, 74, 100
2, 78912, Note_on_c, 0, 72, 90
2, 79040, Note_off_c, 0, 72, 100
2, 79104, Note_on_c, 0, 75, 90
2, 79232, Note_off_c, 0, 75, 100
2, 79296, Note_on_c, 0, 74, 90
2, 79424, Note_off_c, 0, 74, 100
2, 79488, Note_on_c, 0, 75, 90
2, 79616, Note_off_c, 0, 75, 100
2, 79680, Note_on_c, 0, 77, 90
2, 79808, Note_off_c, 0, 77, 100
2, 79872, Note_on_c, 0, 75, 90
2, 80000, Note_off_c, 0, 75, 100
2, 80064, Note_on_c, 0, 74, 90
2, 80192, Note_off_c, 0, 74, 100
2, 80256, Note_on_c, 0, 72, 90
2, 80384, Note_off_c, 0, 72, 100
2, 80448, Note_on_c, 0, 70, 90
2, 80576, Note_off_c, 0, 70, 100
2, 80640, Note_on_c, 0, 70, 90
2, 80768, Note_off_c, 0, 70, 100
2, 80832, Note_on_c, 0, 74, 90
2, 80960, Note_off_c, 0, 74, 100
2, 81024, Note_on_c, 0, 77, 90
2, 81152, Note_off_c, 0, 77, 100
2, 81216, Note_on_c, 0, 82, 90
2, 81344, Note_off_c, 0, 82, 100
2, 81408, Note_on_c, 0, 82, 90
2, 81536, Note_off_c, 0, 82, 100
2, 81600, Note_on_c, 0, 79, 90
2, 81728, Note_off_c, 0, 79, 100
2, 81792, Note_on_c, 0, 75, 90
2, 81920, Note_off_c, 0, 75, 100
2, 81984, Note_on_c, 0, 72, 90
2, 82112, Note_off_c, 0, 72, 100
2, 82176, Note_on_c, 0, 70, 90
2, 82208, Note_off_c, 0, 70, 100
2, 82224, Note_on_c, 0, 72, 90
2, 82256, Note_off_c, 0, 72, 100
2, 82272, Note_on_c, 0, 74, 90
2, 82304, Note_off_c, 0, 74, 100
2, 82320, Note_on_c, 0, 72, 90
2, 82352, Note_off_c, 0, 72, 100
2, 82368, Note_on_c, 0, 74, 90
2, 82412, Note_off_c, 0, 74, 64
2, 82416, Note_on_c, 0, 72, 90
2, 82460, Note_off_c, 0, 72, 64
2, 82464, Note_on_c, 0, 74, 90
2, 82508, Note_off_c, 0, 74, 64
2, 82512, Note_on_c, 0, 72, 90
2, 82556, Note_off_c, 0, 72, 64
2, 82560, Note_on_c, 0, 74, 90
2, 82604, Note_off_c, 0, 74, 64
2, 82608, Note_on_c, 0, 72, 90
2, 82652, Note_off_c, 0, 72, 64
2, 82656, Note_on_c, 0, 74, 90
2, 82700, Note_off_c, 0, 74, 64
2, 82704, Note_on_c, 0, 72, 90
2, 82748, Note_off_c, 0, 72, 64
2, 82752, Note_on_c, 0, 70, 90
2, 82844, Note_off_c, 0, 70, 64
2, 82848, Note_on_c, 0, 72, 90
2, 82940, Note_off_c, 0, 72, 64
2, 82944, Note_on_c, 0, 70, 90
2, 83200, Note_off_c, 0, 70, 100
2, 83328, Note_on_c, 0, 72, 90
2, 83584, Note_off_c, 0, 72, 100
2, 83712, Note_on_c, 0, 73, 90
2, 83968, Note_off_c, 0, 73, 100
2, 84096, Note_on_c, 0, 74, 90
2, 84352, Note_off_c, 0, 74, 100
2, 84480, Note_on_c, 0, 74, 60
2, 84672, Note_on_c, 0, 55, 60
2, 84736, Note_off_c, 0, 74, 100
2, 84800, Note_off_c, 0, 55, 100
2, 84864, Note_on_c, 0, 58, 60
2, 84992, Note_off_c, 0, 58, 100
2, 85056, Note_on_c, 0, 62, 60
2, 85184, Note_off_c, 0, 62, 100
2, 85248, Note_on_c, 0, 67, 60
2, 85440, Note_on_c, 0, 78, 60
2, 85504, Note_off_c, 0, 67, 100
2, 85568, Note_off_c, 0, 78, 100
2, 85632, Note_on_c, 0, 79, 60
2, 85760, Note_off_c, 0, 79, 100
2, 85824, Note_on_c, 0, 82, 60
2, 85952, Note_off_c, 0, 82, 100
2, 86016, Note_on_c, 0, 72, 60
2, 86208, Note_on_c, 0, 57, 60
2, 86272, Note_off_c, 0, 72, 100
2, 86336, Note_off_c, 0, 57, 100
2, 86400, Note_on_c, 0, 60, 60
2, 86528, Note_off_c, 0, 60, 100
2, 86592, Note_on_c, 0, 63, 60
2, 86720, Note_off_c, 0, 63, 100
2, 86784, Note_on_c, 0, 66, 60
2, 86976, Note_on_c, 0, 71, 60
2, 87040, Note_off_c, 0, 66, 100
2, 87104, Note_off_c, 0, 71, 100
2, 87168, Note_on_c, 0, 72, 60
2, 87296, Note_off_c, 0, 72, 100
2, 87360, Note_on_c, 0, 75, 60
2, 87488, Note_off_c, 0, 75, 100
2, 87552, Note_on_c, 0, 66, 60
2, 87808, Note_off_c, 0, 66, 100
2, 88512, Note_on_c, 0, 75, 60
2, 88640, Note_off_c, 0, 75, 100
2, 88704, Note_on_c, 0, 74, 60
2, 88832, Note_off_c, 0, 74, 100
2, 88896, Note_on_c, 0, 65, 60
2, 89024, Note_off_c, 0, 65, 100
2, 89088, Note_on_c, 0, 69, 90
2, 89216, Note_off_c, 0, 69, 100
2, 89280, Note_on_c, 0, 67, 60
2, 89408, Note_off_c, 0, 67, 100
2, 89472, Note_on_c, 0, 70, 90
2, 89600, Note_off_c, 0, 70, 100
2, 89664, Note_on_c, 0, 69, 60
2, 89792, Note_off_c, 0, 69, 100
2, 89856, Note_on_c, 0, 72, 90
2, 89984, Note_off_c, 0, 72, 100
2, 90048, Note_on_c, 0, 70, 60
2, 90176, Note_off_c, 0, 70, 100
2, 90240, Note_on_c, 0, 74, 90
2, 90368, Note_off_c, 0, 74, 100
2, 90432, Note_on_c, 0, 72, 60
2, 90560, Note_off_c, 0, 72, 100
2, 90624, Note_on_c, 0, 75, 90
2, 90624, Note_on_c, 0, 58, 90
2, 90752, Note_off_c, 0, 75, 100
2, 90752, Note_off_c, 0, 58, 100
2, 90816, Note_on_c, 0, 74, 60
2, 90816, Note_on_c, 0, 67, 60
2, 90944, Note_off_c, 0, 74, 100
2, 90944, Note_off_c, 0, 67, 100
2, 91008, Note_on_c, 0, 74, 60
2, 91008, Note_on_c, 0, 62, 60
2, 91136, Note_off_c, 0, 62, 100
2, 91200, Note_on_c, 0, 67, 60
2, 91328, Note_off_c, 0, 67, 100
2, 91392, Note_on_c, 0, 58, 60
2, 91520, Note_off_c, 0, 74, 100
2, 91520, Note_off_c, 0, 58, 100
2, 91584, Note_on_c, 0, 67, 60
2, 91712, Note_off_c, 0, 67, 100
2, 91776, Note_on_c, 0, 77, 60
2, 91776, Note_on_c, 0, 59, 60
2, 91904, Note_off_c, 0, 59, 100
2, 91968, Note_on_c, 0, 67, 60
2, 92032, Note_off_c, 0, 77, 100
2, 92096, Note_off_c, 0, 67, 100
2, 92160, Note_on_c, 0, 77, 90
2, 92160, Note_on_c, 0, 60, 90
2, 92288, Note_off_c, 0, 77, 100
2, 92288, Note_off_c, 0, 60, 100
2, 92352, Note_on_c, 0, 75, 90
2, 92352, Note_on_c, 0, 67, 90
2, 92480, Note_off_c, 0, 75, 100
2, 92480, Note_off_c, 0, 67, 100
2, 92544, Note_on_c, 0, 75, 60
2, 92544, Note_on_c, 0, 63, 60
2, 92672, Note_off_c, 0, 63, 100
2, 92736, Note_on_c, 0, 67, 60
2, 92864, Note_off_c, 0, 67, 100
2, 92928, Note_on_c, 0, 60, 60
2, 93056, Note_off_c, 0, 75, 100
2, 93056, Note_off_c, 0, 60, 100
2, 93120, Note_on_c, 0, 67, 60
2, 93248, Note_off_c, 0, 67, 100
2, 93312, Note_on_c, 0, 74, 60
2, 93312, Note_on_c, 0, 62, 60
2, 93440, Note_off_c, 0, 62, 100
2, 93504, Note_on_c, 0, 67, 60
2, 93568, Note_off_c, 0, 74, 100
2, 93632, Note_off_c, 0, 67, 100
2, 93696, Note_on_c, 0, 74, 90
2, 93696, Note_on_c, 0, 63, 90
2, 93824, Note_off_c, 0, 74, 100
2, 93824, Note_off_c, 0, 63, 100
2, 93888, Note_on_c, 0, 73, 90
2, 93888, Note_on_c, 0, 67, 90
2, 94016, Note_off_c, 0, 73, 100
2, 94016, Note_off_c, 0, 67, 100
2, 94080, Note_on_c, 0, 73, 60
2, 94080, Note_on_c, 0, 70, 60
2, 94208, Note_off_c, 0, 70, 100
2, 94272, Note_on_c, 0, 67, 60
2, 94400, Note_off_c, 0, 67, 100
2, 94464, Note_on_c, 0, 63, 60
2, 94592, Note_off_c, 0, 73, 100
2, 94592, Note_off_c, 0, 63, 100
2, 94656, Note_on_c, 0, 67, 60
2, 94784, Note_off_c, 0, 67, 100
2, 94848, Note_on_c, 0, 85, 60
2, 94848, Note_on_c, 0, 70, 60
2, 94976, Note_off_c, 0, 70, 100
2, 95040, Note_on_c, 0, 67, 60
2, 95104, Note_off_c, 0, 85, 100
2, 95168, Note_off_c, 0, 67, 100
2, 95232, Note_on_c, 0, 70, 90
2, 95232, Note_on_c, 0, 67, 90
2, 95232, Note_on_c, 0, 62, 90
2, 95232, Note_on_c, 0, 85, 60
2, 95276, Note_off_c, 0, 85, 64
2, 95280, Note_on_c, 0, 86, 60
2, 95324, Note_off_c, 0, 86, 64
2, 95328, Note_on_c, 0, 85, 60
2, 95372, Note_off_c, 0, 85, 64
2, 95376, Note_on_c, 0, 86, 60
2, 95420, Note_off_c, 0, 86, 64
2, 95424, Note_on_c, 0, 85, 60
2, 95468, Note_off_c, 0, 85, 64
2, 95472, Note_on_c, 0, 86, 60
2, 95516, Note_off_c, 0, 86, 64
2, 95520, Note_on_c, 0, 85, 60
2, 95564, Note_off_c, 0, 85, 64
2, 95568, Note_on_c, 0, 86, 60
2, 95612, Note_off_c, 0, 86, 64
2, 95616, Note_on_c, 0, 85, 60
2, 95660, Note_off_c, 0, 85, 64
2, 95664, Note_on_c, 0, 86, 60
2, 95708, Note_off_c, 0, 86, 64
2, 95712, Note_on_c, 0, 85, 60
2, 95744, Note_off_c, 0, 70, 100
2, 95744, Note_off_c, 0, 67, 100
2, 95744, Note_off_c, 0, 62, 100
2, 95756, Note_off_c, 0, 85, 64
2, 95808, Note_on_c, 0, 86, 60
2, 95936, Note_off_c, 0, 86, 100
2, 96000, Note_on_c, 0, 74, 60
2, 96000, Note_on_c, 0, 66, 60
2, 96000, Note_on_c, 0, 69, 60
2, 96000, Note_on_c, 0, 62, 60
2, 96256, Note_off_c, 0, 74, 100
2, 96256, Note_off_c, 0, 66, 100
2, 96256, Note_off_c, 0, 69, 100
2, 96256, Note_off_c, 0, 62, 100
2, 96768, Note_on_c, 0, 74, 60
2, 96960, Note_on_c, 0, 55, 60
2, 97024, Note_off_c, 0, 74, 100
2, 97088, Note_off_c, 0, 55, 100
2, 97152, Note_on_c, 0, 58, 60
2, 97280, Note_off_c, 0, 58, 100
2, 97344, Note_on_c, 0, 62, 60
2, 97472, Note_off_c, 0, 62, 100
2, 97536, Note_on_c, 0, 67, 60
2, 97728, Note_on_c, 0, 78, 60
2, 97792, Note_off_c, 0, 67, 100
2, 97856, Note_off_c, 0, 78, 100
2, 97920, Note_on_c, 0, 79, 60
2, 98048, Note_off_c, 0, 79, 100
2, 98112, Note_on_c, 0, 82, 60
2, 98240, Note_off_c, 0, 82, 100
2, 98304, Note_on_c, 0, 72, 60
2, 98496, Note_on_c, 0, 57, 60
2, 98560, Note_off_c, 0, 72, 100
2, 98624, Note_off_c, 0, 57, 100
2, 98688, Note_on_c, 0, 60, 60
2, 98816, Note_off_c, 0, 60, 100
2, 98880, Note_on_c, 0, 63, 60
2, 99008, Note_off_c, 0, 63, 100
2, 99072, Note_on_c, 0, 66, 60
2, 99264, Note_on_c, 0, 71, 60
2, 99328, Note_off_c, 0, 66, 100
2, 99392, Note_off_c, 0, 71, 100
2, 99456, Note_on_c, 0, 72, 60
2, 99584, Note_off_c, 0, 72, 100
2, 99648, Note_on_c, 0, 75, 60
2, 99776, Note_off_c, 0, 75, 100
2, 99840, Note_on_c, 0, 66, 60
2, 100096, Note_off_c, 0, 66, 100
2, 100800, Note_on_c, 0, 75, 60
2, 100928, Note_off_c, 0, 75, 100
2, 100992, Note_on_c, 0, 74, 60
2, 101120, Note_off_c, 0, 74, 100
2, 101184, Note_on_c, 0, 65, 60
2, 101312, Note_off_c, 0, 65, 100
2, 101376, Note_on_c, 0, 69, 90
2, 101504, Note_off_c, 0, 69, 100
2, 101568, Note_on_c, 0, 67, 60
2, 101696, Note_off_c, 0, 67, 100
2, 101760, Note_on_c, 0, 70, 90
2, 101888, Note_off_c, 0, 70, 100
2, 101952, Note_on_c, 0, 69, 60
2, 102080, Note_off_c, 0, 69, 100
2, 102144, Note_on_c, 0, 72, 90
2, 102272, Note_off_c, 0, 72, 100
2, 102336, Note_on_c, 0, 70, 60
2, 102464, Note_off_c, 0, 70, 100
2, 102528, Note_on_c, 0, 74, 90
2, 102656, Note_off_c, 0, 74, 100
2, 102720, Note_on_c, 0, 72, 60
2, 102848, Note_off_c, 0, 72, 100
2, 102912, Note_on_c, 0, 75, 90
2, 102912, Note_on_c, 0, 58, 90
2, 103040, Note_off_c, 0, 75, 100
2, 103040, Note_off_c, 0, 58, 100
2, 103104, Note_on_c, 0, 74, 60
2, 103104, Note_on_c, 0, 67, 60
2, 103232, Note_off_c, 0, 74, 100
2, 103232, Note_off_c, 0, 67, 100
2, 103296, Note_on_c, 0, 74, 60
2, 103296, Note_on_c, 0, 62, 60
2, 103424, Note_off_c, 0, 62, 100
2, 103488, Note_on_c, 0, 67, 60
2, 103616, Note_off_c, 0, 67, 100
2, 103680, Note_on_c, 0, 58, 60
2, 103808, Note_off_c, 0, 74, 100
2, 103808, Note_off_c, 0, 58, 100
2, 103872, Note_on_c, 0, 67, 60
2, 104000, Note_off_c, 0, 67, 100
2, 104064, Note_on_c, 0, 77, 60
2, 104064, Note_on_c, 0, 59, 60
2, 104192, Note_off_c, 0, 59, 100
2, 104256, Note_on_c, 0, 67, 60
2, 104320, Note_off_c, 0, 77, 100
2, 104384, Note_off_c, 0, 67, 100
2, 104448, Note_on_c, 0, 77, 90
2, 104448, Note_on_c, 0, 60, 90
2, 104576, Note_off_c, 0, 77, 100
2, 104576, Note_off_c, 0, 60, 100
2, 104640, Note_on_c, 0, 75, 90
2, 104640, Note_on_c, 0, 67, 90
2, 104768, Note_off_c, 0, 75, 100
2, 104768, Note_off_c, 0, 67, 100
2, 104832, Note_on_c, 0, 75, 60
2, 104832, Note_on_c, 0, 63, 60
2, 104960, Note_off_c, 0, 63, 100
2, 105024, Note_on_c, 0, 67, 60
2, 105152, Note_off_c, 0, 67, 100
2, 105216, Note_on_c, 0, 60, 60
2, 105344, Note_off_c, 0, 75, 100
2, 105344, Note_off_c, 0, 60, 100
2, 105408, Note_on_c, 0, 67, 60
2, 105536, Note_off_c, 0, 67, 100
2, 105600, Note_on_c, 0, 74, 60
2, 105600, Note_on_c, 0, 62, 60
2, 105728, Note_off_c, 0, 62, 100
2, 105792, Note_on_c, 0, 67, 60
2, 105856, Note_off_c, 0, 74, 100
2, 105920, Note_off_c, 0, 67, 100
2, 105984, Note_on_c, 0, 74, 90
2, 105984, Note_on_c, 0, 63, 90
2, 106112, Note_off_c, 0, 74, 100
2, 106112, Note_off_c, 0, 63, 100
2, 106176, Note_on_c, 0, 73, 90
2, 106176, Note_on_c, 0, 67, 90
2, 106304, Note_off_c, 0, 73, 100
2, 106304, Note_off_c, 0, 67, 100
2, 106368, Note_on_c, 0, 73, 60
2, 106368, Note_on_c, 0, 70, 60
2, 106496, Note_off_c, 0, 70, 100
2, 106560, Note_on_c, 0, 67, 60
2, 106688, Note_off_c, 0, 67, 100
2, 106752, Note_on_c, 0, 63, 60
2, 106880, Note_off_c, 0, 73, 100
2, 106880, Note_off_c, 0, 63, 100
2, 106944, Note_on_c, 0, 67, 60
2, 107072, Note_off_c, 0, 67, 100
2, 107136, Note_on_c, 0, 85, 60
2, 107136, Note_on_c, 0, 70, 60
2, 107264, Note_off_c, 0, 70, 100
2, 107328, Note_on_c, 0, 67, 60
2, 107392, Note_off_c, 0, 85, 100
2, 107456, Note_off_c, 0, 67, 100
2, 107520, Note_on_c, 0, 70, 90
2, 107520, Note_on_c, 0, 67, 90
2, 107520, Note_on_c, 0, 62, 90
2, 107520, Note_on_c, 0, 85, 60
2, 107564, Note_off_c, 0, 85, 64
2, 107568, Note_on_c, 0, 86, 60
2, 107612, Note_off_c, 0, 86, 64
2, 107616, Note_on_c, 0, 85, 60
2, 107660, Note_off_c, 0, 85, 64
2, 107664, Note_on_c, 0, 86, 60
2, 107708, Note_off_c, 0, 86, 64
2, 107712, Note_on_c, 0, 85, 60
2, 107756, Note_off_c, 0, 85, 64
2, 107760, Note_on_c, 0, 86, 60
2, 107804, Note_off_c, 0, 86, 64
2, 107808, Note_on_c, 0, 85, 60
2, 107852, Note_off_c, 0, 85, 64
2, 107856, Note_on_c, 0, 86, 60
2, 107900, Note_off_c, 0, 86, 64
2, 107904, Note_on_c, 0, 85, 60
2, 107948, Note_off_c, 0, 85, 64
2, 107952, Note_on_c, 0, 86, 60
2, 107996, Note_off_c, 0, 86, 64
2, 108000, Note_on_c, 0, 85, 60
2, 108032, Note_off_c, 0, 70, 100
2, 108032, Note_off_c, 0, 67, 100
2, 108032, Note_off_c, 0, 62, 100
2, 108044, Note_off_c, 0, 85, 64
2, 108096, Note_on_c, 0, 86, 60
2, 108224, Note_off_c, 0, 86, 100
2, 108288, Note_on_c, 0, 74, 60
2, 108288, Note_on_c, 0, 66, 60
2, 108288, Note_on_c, 0, 69, 60
2, 108288, Note_on_c, 0, 62, 60
2, 108544, Note_off_c, 0, 74, 100
2, 108544, Note_off_c, 0, 66, 100
2, 108544, Note_off_c, 0, 69, 100
2, 108544, Note_off_c, 0, 62, 100
2, 109248, Note_on_c, 0, 86, 90
2, 109248, Note_on_c, 0, 74, 90
2, 109376, Note_off_c, 0, 86, 100
2, 109376, Note_off_c, 0, 74, 100
2, 109440, Note_on_c, 0, 85, 60
2, 109440, Note_on_c, 0, 73, 60
2, 109568, Note_off_c, 0, 85, 100
2, 109568, Note_off_c, 0, 73, 100
2, 109632, Note_on_c, 0, 86, 60
2, 109632, Note_on_c, 0, 74, 60
2, 109760, Note_off_c, 0, 86, 100
2, 109760, Note_off_c, 0, 74, 100
2, 110016, Note_on_c, 0, 84, 60
2, 110016, Note_on_c, 0, 72, 60
2, 110144, Note_off_c, 0, 84, 100
2, 110144, Note_off_c, 0, 72, 100
2, 110208, Note_on_c, 0, 83, 60
2, 110208, Note_on_c, 0, 71, 60
2, 110336, Note_off_c, 0, 83, 100
2, 110336, Note_off_c, 0, 71, 100
2, 110400, Note_on_c, 0, 72, 60
2, 110400, Note_on_c, 0, 84, 60
2, 110528, Note_off_c, 0, 72, 100
2, 110528, Note_off_c, 0, 84, 100
2, 110592, Note_on_c, 0, 82, 60
2, 110592, Note_on_c, 0, 70, 60
2, 111104, Note_off_c, 0, 82, 100
2, 111104, Note_off_c, 0, 70, 100
2, 111360, Note_on_c, 0, 66, 60
2, 111360, Note_on_c, 0, 78, 60
2, 111872, Note_off_c, 0, 66, 100
2, 111872, Note_off_c, 0, 78, 100
2, 112320, Note_on_c, 0, 79, 60
2, 112448, Note_off_c, 0, 79, 100
2, 112512, Note_on_c, 0, 78, 60
2, 112640, Note_off_c, 0, 78, 100
2, 112704, Note_on_c, 0, 77, 60
2, 112832, Note_off_c, 0, 77, 100
2, 112896, Note_on_c, 0, 76, 60
2, 113024, Note_off_c, 0, 76, 100
2, 113088, Note_on_c, 0, 75, 60
2, 113216, Note_off_c, 0, 75, 100
2, 113280, Note_on_c, 0, 74, 60
2, 113408, Note_off_c, 0, 74, 100
2, 113472, Note_on_c, 0, 67, 60
2, 113472, Note_on_c, 0, 63, 60
2, 113472, Note_on_c, 0, 73, 60
2, 113600, Note_off_c, 0, 67, 100
2, 113600, Note_off_c, 0, 63, 100
2, 113600, Note_off_c, 0, 73, 100
2, 113664, Note_on_c, 0, 73, 60
2, 113664, Note_on_c, 0, 67, 60
2, 113664, Note_on_c, 0, 62, 60
2, 113664, Note_on_c, 0, 70, 60
2, 114176, Note_off_c, 0, 73, 100
2, 114176, Note_off_c, 0, 67, 100
2, 114176, Note_off_c, 0, 62, 100
2, 114176, Note_off_c, 0, 70, 100
2, 114432, Note_on_c, 0, 74, 60
2, 114432, Note_on_c, 0, 69, 60
2, 114432, Note_on_c, 0, 66, 60
2, 114432, Note_on_c, 0, 62, 60
2, 114688, Note_off_c, 0, 74, 100
2, 114688, Note_off_c, 0, 69, 100
2, 114688, Note_off_c, 0, 66, 100
2, 114688, Note_off_c, 0, 62, 100
2, 115200, Note_on_c, 0, 74, 90
2, 115200, Note_on_c, 0, 58, 90
2, 115328, Note_off_c, 0, 74, 100
2, 115328, Note_off_c, 0, 58, 100
2, 115392, Note_on_c, 0, 79, 90
2, 115392, Note_on_c, 0, 67, 90
2, 115520, Note_off_c, 0, 79, 100
2, 115520, Note_off_c, 0, 67, 100
2, 115584, Note_on_c, 0, 62, 60
2, 115584, Note_on_c, 0, 79, 60
2, 115712, Note_off_c, 0, 62, 100
2, 115776, Note_on_c, 0, 67, 60
2, 115904, Note_off_c, 0, 67, 100
2, 115968, Note_on_c, 0, 58, 60
2, 116096, Note_off_c, 0, 79, 100
2, 116096, Note_off_c, 0, 58, 100
2, 116160, Note_on_c, 0, 67, 60
2, 116288, Note_off_c, 0, 67, 100
2, 116352, Note_on_c, 0, 77, 60
2, 116352, Note_on_c, 0, 59, 60
2, 116480, Note_off_c, 0, 59, 100
2, 116544, Note_on_c, 0, 67, 60
2, 116608, Note_off_c, 0, 77, 100
2, 116672, Note_off_c, 0, 67, 100
2, 116736, Note_on_c, 0, 77, 60
2, 116736, Note_on_c, 0, 58, 60
2, 116864, Note_off_c, 0, 77, 100
2, 116928, Note_on_c, 0, 74, 60
2, 116992, Note_off_c, 0, 58, 100
2, 117056, Note_off_c, 0, 74, 100
2, 117180, Note_on_c, 0, 66, 90
2, 117196, Note_on_c, 0, 69, 90
2, 117212, Note_on_c, 0, 72, 90
2, 117228, Note_on_c, 0, 75, 90
2, 117436, Note_off_c, 0, 66, 100
2, 117452, Note_off_c, 0, 69, 100
2, 117468, Note_off_c, 0, 72, 100
2, 117484, Note_off_c, 0, 75, 100
2, 118080, Note_on_c, 0, 75, 60
2, 118080, Note_on_c, 0, 72, 60
2, 118208, Note_off_c, 0, 75, 100
2, 118208, Note_off_c, 0, 72, 100
2, 118272, Note_on_c, 0, 75, 60
2, 118272, Note_on_c, 0, 72, 60
2, 118400, Note_off_c, 0, 75, 100
2, 118400, Note_off_c, 0, 72, 100
2, 118464, Note_on_c, 0, 74, 60
2, 118464, Note_on_c, 0, 70, 60
2, 118592, Note_off_c, 0, 74, 100
2, 118592, Note_off_c, 0, 70, 100
2, 118848, Note_on_c, 0, 72, 60
2, 118848, Note_on_c, 0, 69, 60
2, 118976, Note_off_c, 0, 72, 100
2, 118976, Note_off_c, 0, 69, 100
2, 119040, Note_on_c, 0, 72, 60
2, 119040, Note_on_c, 0, 69, 60
2, 119168, Note_off_c, 0, 72, 100
2, 119168, Note_off_c, 0, 69, 100
2, 119228, Note_on_c, 0, 67, 60
2, 119232, Note_on_c, 0, 70, 60
2, 119356, Note_off_c, 0, 67, 100
2, 119360, Note_off_c, 0, 70, 100
2, 119616, Note_on_c, 0, 69, 60
2, 119616, Note_on_c, 0, 66, 60
2, 119744, Note_off_c, 0, 69, 100
2, 119744, Note_off_c, 0, 66, 100
2, 119808, Note_on_c, 0, 66, 60
2, 119808, Note_on_c, 0, 69, 60
2, 120320, Note_off_c, 0, 66, 100
2, 120320, Note_off_c, 0, 69, 100
2, 120576, Note_on_c, 0, 67, 60
2, 120832, Note_off_c, 0, 67, 100
2, 121536, Note_on_c, 0, 86, 90
2, 121536, Note_on_c, 0, 74, 90
2, 121664, Note_off_c, 0, 86, 100
2, 121664, Note_off_c, 0, 74, 100
2, 121728, Note_on_c, 0, 85, 60
2, 121728, Note_on_c, 0, 73, 60
2, 121856, Note_off_c, 0, 85, 100
2, 121856, Note_off_c, 0, 73, 100
2, 121920, Note_on_c, 0, 86, 60
2, 121920, Note_on_c, 0, 74, 60
2, 122048, Note_off_c, 0, 86, 100
2, 122048, Note_off_c, 0, 74, 100
2, 122304, Note_on_c, 0, 84, 60
2, 122304, Note_on_c, 0, 72, 60
2, 122432, Note_off_c, 0, 84, 100
2, 122432, Note_off_c, 0, 72, 100
2, 122496, Note_on_c, 0, 83, 60
2, 122496, Note_on_c, 0, 71, 60
2, 122624, Note_off_c, 0, 83, 100
2, 122624, Note_off_c, 0, 71, 100
2, 122688, Note_on_c, 0, 84, 60
2, 122688, Note_on_c, 0, 72, 60
2, 122816, Note_off_c, 0, 84, 100
2, 122816, Note_off_c, 0, 72, 100
2, 122880, Note_on_c, 0, 82, 60
2, 122880, Note_on_c, 0, 70, 60
2, 123392, Note_off_c, 0, 82, 100
2, 123392, Note_off_c, 0, 70, 100
2, 123648, Note_on_c, 0, 66, 60
2, 123648, Note_on_c, 0, 78, 60
2, 124160, Note_off_c, 0, 66, 100
2, 124160, Note_off_c, 0, 78, 100
2, 124608, Note_on_c, 0, 79, 60
2, 124736, Note_off_c, 0, 79, 100
2, 124800, Note_on_c, 0, 78, 60
2, 124928, Note_off_c, 0, 78, 100
2, 124992, Note_on_c, 0, 77, 60
2, 125120, Note_off_c, 0, 77, 100
2, 125184, Note_on_c, 0, 76, 60
2, 125312, Note_off_c, 0, 76, 100
2, 125376, Note_on_c, 0, 75, 60
2, 125504, Note_off_c, 0, 75, 100
2, 125568, Note_on_c, 0, 74, 60
2, 125696, Note_off_c, 0, 74, 100
2, 125760, Note_on_c, 0, 67, 60
2, 125760, Note_on_c, 0, 63, 60
2, 125760, Note_on_c, 0, 73, 60
2, 125888, Note_off_c, 0, 67, 100
2, 125888, Note_off_c, 0, 63, 100
2, 125888, Note_off_c, 0, 73, 100
2, 125952, Note_on_c, 0, 73, 60
2, 125952, Note_on_c, 0, 67, 60
2, 125952, Note_on_c, 0, 62, 60
2, 125952, Note_on_c, 0, 70, 60
2, 126464, Note_off_c, 0, 73, 100
2, 126464, Note_off_c, 0, 67, 100
2, 126464, Note_off_c, 0, 62, 100
2, 126464, Note_off_c, 0, 70, 100
2, 126720, Note_on_c, 0, 74, 60
2, 126720, Note_on_c, 0, 69, 60
2, 126720, Note_on_c, 0, 66, 60
2, 126720, Note_on_c, 0, 62, 60
2, 126976, Note_off_c, 0, 74, 100
2, 126976, Note_off_c, 0, 69, 100
2, 126976, Note_off_c, 0, 66, 100
2, 126976, Note_off_c, 0, 62, 100
2, 127488, Note_on_c, 0, 74, 90
2, 127488, Note_on_c, 0, 58, 90
2, 127616, Note_off_c, 0, 74, 100
2, 127616, Note_off_c, 0, 58, 100
2, 127680, Note_on_c, 0, 79, 90
2, 127680, Note_on_c, 0, 67, 90
2, 127808, Note_off_c, 0, 79, 100
2, 127808, Note_off_c, 0, 67, 100
2, 127872, Note_on_c, 0, 62, 60
2, 127872, Note_on_c, 0, 79, 60
2, 128000, Note_off_c, 0, 62, 100
2, 128064, Note_on_c, 0, 67, 60
2, 128192, Note_off_c, 0, 67, 100
2, 128256, Note_on_c, 0, 58, 60
2, 128384, Note_off_c, 0, 79, 100
2, 128384, Note_off_c, 0, 58, 100
2, 128448, Note_on_c, 0, 67, 60
2, 128576, Note_off_c, 0, 67, 100
2, 128640, Note_on_c, 0, 77, 60
2, 128640, Note_on_c, 0, 59, 60
2, 128768, Note_off_c, 0, 59, 100
2, 128832, Note_on_c, 0, 67, 60
2, 128896, Note_off_c, 0, 77, 100
2, 128960, Note_off_c, 0, 67, 100
2, 129024, Note_on_c, 0, 77, 60
2, 129024, Note_on_c, 0, 58, 60
2, 129152, Note_off_c, 0, 77, 100
2, 129216, Note_on_c, 0, 74, 60
2, 129280, Note_off_c, 0, 58, 100
2, 129344, Note_off_c, 0, 74, 100
2, 129468, Note_on_c, 0, 66, 90
2, 129484, Note_on_c, 0, 69, 90
2, 129500, Note_on_c, 0, 72, 90
2, 129516, Note_on_c, 0, 75, 90
2, 129724, Note_off_c, 0, 66, 100
2, 129740, Note_off_c, 0, 69, 100
2, 129756, Note_off_c, 0, 72, 100
2, 129772, Note_off_c, 0, 75, 100
2, 130368, Note_on_c, 0, 75, 60
2, 130400, Note_on_c, 0, 72, 60
2, 130496, Note_off_c, 0, 75, 100
2, 130528, Note_off_c, 0, 72, 100
2, 130560, Note_on_c, 0, 75, 60
2, 130560, Note_on_c, 0, 72, 60
2, 130688, Note_off_c, 0, 75, 100
2, 130688, Note_off_c, 0, 72, 100
2, 130752, Note_on_c, 0, 74, 60
2, 130752, Note_on_c, 0, 70, 60
2, 130880, Note_off_c, 0, 74, 100
2, 130880, Note_off_c, 0, 70, 100
2, 131136, Note_on_c, 0, 72, 60
2, 131136, Note_on_c, 0, 69, 60
2, 131264, Note_off_c, 0, 72, 100
2, 131264, Note_off_c, 0, 69, 100
2, 131328, Note_on_c, 0, 72, 60
2, 131328, Note_on_c, 0, 69, 60
2, 131456, Note_off_c, 0, 72, 100
2, 131456, Note_off_c, 0, 69, 100
2, 131520, Note_on_c, 0, 70, 60
2, 131520, Note_on_c, 0, 67, 60
2, 131648, Note_off_c, 0, 70, 100
2, 131648, Note_off_c, 0, 67, 100
2, 131904, Note_on_c, 0, 69, 60
2, 131904, Note_on_c, 0, 66, 60
2, 132032, Note_off_c, 0, 69, 100
2, 132032, Note_off_c, 0, 66, 100
2, 132096, Note_on_c, 0, 66, 60
2, 132096, Note_on_c, 0, 69, 60
2, 132608, Note_off_c, 0, 66, 100
2, 132608, Note_off_c, 0, 69, 100
2, 132864, Note_on_c, 0, 67, 60
2, 133120, Note_off_c, 0, 67, 100
2, 133632, Note_on_c, 0, 62, 90
2, 133632, Note_on_c, 0, 68, 90
2, 133632, Note_on_c, 0, 71, 90
2, 134144, Note_off_c, 0, 62, 100
2, 134144, Note_off_c, 0, 68, 100
2, 134144, Note_off_c, 0, 71, 100
2, 134400, Note_on_c, 0, 72, 90
2, 134400, Note_on_c, 0, 64, 90
2, 134400, Note_on_c, 0, 67, 90
2, 134656, Note_off_c, 0, 72, 100
2, 134656, Note_off_c, 0, 64, 100
2, 134656, Note_off_c, 0, 67, 100
2, 135168, Note_on_c, 0, 73, 60
2, 135168, Note_on_c, 0, 67, 60
2, 135168, Note_on_c, 0, 63, 60
2, 135680, Note_off_c, 0, 73, 100
2, 135680, Note_off_c, 0, 67, 100
2, 135680, Note_off_c, 0, 63, 100
2, 135936, Note_on_c, 0, 74, 60
2, 135936, Note_on_c, 0, 66, 60
2, 135936, Note_on_c, 0, 62, 60
2, 136192, Note_off_c, 0, 74, 100
2, 136192, Note_off_c, 0, 66, 100
2, 136192, Note_off_c, 0, 62, 100
2, 136764, Note_on_c, 0, 65, 90
2, 136780, Note_on_c, 0, 69, 90
2, 136796, Note_on_c, 0, 72, 90
2, 136812, Note_on_c, 0, 75, 90
2, 137020, Note_off_c, 0, 65, 100
2, 137036, Note_off_c, 0, 69, 100
2, 137052, Note_off_c, 0, 72, 100
2, 137068, Note_off_c, 0, 75, 100
2, 139008, Note_on_c, 0, 77, 60
2, 139264, Note_off_c, 0, 77, 100
2, 139392, Note_on_c, 0, 67, 60
2, 139392, Note_on_c, 0, 58, 60
2, 139392, Note_on_c, 0, 79, 60
2, 139648, Note_off_c, 0, 67, 100
2, 139648, Note_off_c, 0, 58, 100
2, 139648, Note_off_c, 0, 79, 100
2, 139776, Note_on_c, 0, 77, 60
2, 139776, Note_on_c, 0, 67, 60
2, 139776, Note_on_c, 0, 60, 60
2, 139904, Note_off_c, 0, 77, 100
2, 139968, Note_on_c, 0, 75, 60
2, 140096, Note_off_c, 0, 75, 100
2, 140160, Note_on_c, 0, 74, 60
2, 140288, Note_off_c, 0, 67, 100
2, 140288, Note_off_c, 0, 60, 100
2, 140288, Note_off_c, 0, 74, 100
2, 140352, Note_on_c, 0, 72, 60
2, 140480, Note_off_c, 0, 72, 100
2, 140544, Note_on_c, 0, 75, 60
2, 140800, Note_off_c, 0, 75, 100
2, 140928, Note_on_c, 0, 65, 60
2, 140928, Note_on_c, 0, 57, 60
2, 140928, Note_on_c, 0, 77, 60
2, 141184, Note_off_c, 0, 65, 100
2, 141184, Note_off_c, 0, 57, 100
2, 141184, Note_off_c, 0, 77, 100
2, 141312, Note_on_c, 0, 75, 60
2, 141312, Note_on_c, 0, 65, 60
2, 141312, Note_on_c, 0, 58, 60
2, 141440, Note_off_c, 0, 75, 100
2, 141504, Note_on_c, 0, 74, 60
2, 141632, Note_off_c, 0, 74, 100
2, 141696, Note_on_c, 0, 72, 60
2, 141824, Note_off_c, 0, 65, 100
2, 141824, Note_off_c, 0, 58, 100
2, 141824, Note_off_c, 0, 72, 100
2, 141888, Note_on_c, 0, 70, 60
2, 142016, Note_off_c, 0, 70, 100
2, 142080, Note_on_c, 0, 77, 60
2, 142336, Note_off_c, 0, 77, 100
2, 142464, Note_on_c, 0, 82, 60
2, 142464, Note_on_c, 0, 62, 60
2, 142464, Note_on_c, 0, 70, 60
2, 142720, Note_off_c, 0, 82, 100
2, 142720, Note_off_c, 0, 62, 100
2, 142720, Note_off_c, 0, 70, 100
2, 142848, Note_on_c, 0, 81, 60
2, 142848, Note_on_c, 0, 70, 60
2, 142848, Note_on_c, 0, 63, 60
2, 142976, Note_off_c, 0, 81, 100
2, 143040, Note_on_c, 0, 79, 60
2, 143104, Note_off_c, 0, 63, 100
2, 143168, Note_off_c, 0, 79, 100
2, 143232, Note_on_c, 0, 79, 60
2, 143248, Note_on_c, 0, 62, 60
2, 143360, Note_off_c, 0, 70, 100
2, 143360, Note_off_c, 0, 79, 100
2, 143424, Note_on_c, 0, 77, 60
2, 143504, Note_off_c, 0, 62, 100
2, 143552, Note_off_c, 0, 77, 100
2, 143616, Note_on_c, 0, 60, 60
2, 143616, Note_on_c, 0, 69, 60
2, 143616, Note_on_c, 0, 77, 60
2, 143744, Note_off_c, 0, 77, 100
2, 143808, Note_on_c, 0, 75, 60
2, 143872, Note_off_c, 0, 60, 100
2, 143872, Note_off_c, 0, 69, 100
2, 143936, Note_off_c, 0, 75, 100
2, 144000, Note_on_c, 0, 75, 60
2, 144000, Note_on_c, 0, 58, 60
2, 144000, Note_on_c, 0, 70, 60
2, 144128, Note_off_c, 0, 75, 100
2, 144192, Note_on_c, 0, 74, 60
2, 144256, Note_off_c, 0, 58, 100
2, 144256, Note_off_c, 0, 70, 100
2, 144320, Note_off_c, 0, 74, 100
2, 144384, Note_on_c, 0, 74, 60
2, 144384, Note_on_c, 0, 70, 60
2, 144384, Note_on_c, 0, 65, 60
2, 144640, Note_off_c, 0, 74, 100
2, 144640, Note_off_c, 0, 70, 100
2, 144768, Note_on_c, 0, 72, 60
2, 144768, Note_on_c, 0, 69, 60
2, 144896, Note_off_c, 0, 65, 100
2, 145024, Note_off_c, 0, 72, 100
2, 145024, Note_off_c, 0, 69, 100
2, 145152, Note_on_c, 0, 77, 90
2, 145280, Note_off_c, 0, 77, 100
2, 145344, Note_on_c, 0, 76, 90
2, 145472, Note_off_c, 0, 76, 100
2, 145536, Note_on_c, 0, 77, 90
2, 145664, Note_off_c, 0, 77, 100
2, 145728, Note_on_c, 0, 79, 90
2, 145856, Note_off_c, 0, 79, 100
2, 145920, Note_on_c, 0, 77, 90
2, 146048, Note_off_c, 0, 77, 100
2, 146112, Note_on_c, 0, 75, 90
2, 146240, Note_off_c, 0, 75, 100
2, 146304, Note_on_c, 0, 74, 90
2, 146432, Note_off_c, 0, 74, 100
2, 146496, Note_on_c, 0, 72, 90
2, 146624, Note_off_c, 0, 72, 100
2, 146688, Note_on_c, 0, 75, 90
2, 146816, Note_off_c, 0, 75, 100
2, 146880, Note_on_c, 0, 74, 90
2, 147008, Note_off_c, 0, 74, 100
2, 147072, Note_on_c, 0, 75, 90
2, 147200, Note_off_c, 0, 75, 100
2, 147264, Note_on_c, 0, 77, 90
2, 147392, Note_off_c, 0, 77, 100
2, 147456, Note_on_c, 0, 75, 90
2, 147584, Note_off_c, 0, 75, 100
2, 147648, Note_on_c, 0, 74, 90
2, 147776, Note_off_c, 0, 74, 100
2, 147840, Note_on_c, 0, 72, 90
2, 147968, Note_off_c, 0, 72, 100
2, 148032, Note_on_c, 0, 70, 90
2, 148160, Note_off_c, 0, 70, 100
2, 148224, Note_on_c, 0, 70, 90
2, 148352, Note_off_c, 0, 70, 100
2, 148416, Note_on_c, 0, 74, 90
2, 148544, Note_off_c, 0, 74, 100
2, 148608, Note_on_c, 0, 77, 90
2, 148736, Note_off_c, 0, 77, 100
2, 148800, Note_on_c, 0, 82, 90
2, 148928, Note_off_c, 0, 82, 100
2, 148992, Note_on_c, 0, 82, 90
2, 149120, Note_off_c, 0, 82, 100
2, 149184, Note_on_c, 0, 79, 90
2, 149312, Note_off_c, 0, 79, 100
2, 149376, Note_on_c, 0, 75, 90
2, 149504, Note_off_c, 0, 75, 100
2, 149568, Note_on_c, 0, 72, 90
2, 149696, Note_off_c, 0, 72, 100
2, 149760, Note_on_c, 0, 70, 90
2, 149792, Note_off_c, 0, 70, 100
2, 149808, Note_on_c, 0, 72, 90
2, 149840, Note_off_c, 0, 72, 100
2, 149856, Note_on_c, 0, 74, 90
2, 149888, Note_off_c, 0, 74, 100
2, 149904, Note_on_c, 0, 72, 90
2, 149936, Note_off_c, 0, 72, 100
2, 149952, Note_on_c, 0, 74, 90
2, 149984, Note_off_c, 0, 74, 100
2, 150000, Note_on_c, 0, 72, 90
2, 150032, Note_off_c, 0, 72, 100
2, 150048, Note_on_c, 0, 74, 90
2, 150080, Note_off_c, 0, 74, 100
2, 150096, Note_on_c, 0, 72, 90
2, 150128, Note_off_c, 0, 72, 100
2, 150144, Note_on_c, 0, 74, 90
2, 150176, Note_off_c, 0, 74, 100
2, 150192, Note_on_c, 0, 72, 90
2, 150224, Note_off_c, 0, 72, 100
2, 150240, Note_on_c, 0, 74, 90
2, 150272, Note_off_c, 0, 74, 100
2, 150288, Note_on_c, 0, 72, 90
2, 150320, Note_off_c, 0, 72, 100
2, 150336, Note_on_c, 0, 70, 90
2, 150428, Note_off_c, 0, 70, 64
2, 150432, Note_on_c, 0, 72, 90
2, 150524, Note_off_c, 0, 72, 64
2, 150528, Note_on_c, 0, 70, 90
2, 150784, Note_off_c, 0, 70, 100
2, 150912, Note_on_c, 0, 70, 60
2, 151040, Note_on_c, 0, 74, 60
2, 151088, Note_off_c, 0, 74, 100
2, 151168, Note_off_c, 0, 70, 100
2, 151168, Note_on_c, 0, 77, 60
2, 151216, Note_off_c, 0, 77, 100
2, 151296, Note_on_c, 0, 72, 60
2, 151424, Note_on_c, 0, 75, 60
2, 151472, Note_off_c, 0, 75, 100
2, 151552, Note_off_c, 0, 72, 100
2, 151552, Note_on_c, 0, 77, 60
2, 151600, Note_off_c, 0, 77, 100
2, 151680, Note_on_c, 0, 69, 60
2, 151808, Note_on_c, 0, 72, 60
2, 151856, Note_off_c, 0, 72, 100
2, 151936, Note_off_c, 0, 69, 100
2, 151936, Note_on_c, 0, 75, 60
2, 151984, Note_off_c, 0, 75, 100
2, 152064, Note_on_c, 0, 70, 60
2, 152192, Note_on_c, 0, 74, 60
2, 152240, Note_off_c, 0, 74, 100
2, 152320, Note_off_c, 0, 70, 100
2, 152320, Note_on_c, 0, 77, 60
2, 152368, Note_off_c, 0, 77, 100
2, 152448, Note_on_c, 0, 62, 60
2, 152576, Note_on_c, 0, 70, 60
2, 152624, Note_off_c, 0, 70, 100
2, 152704, Note_off_c, 0, 62, 100
2, 152704, Note_on_c, 0, 74, 60
2, 152752, Note_off_c, 0, 74, 100
2, 152832, Note_on_c, 0, 63, 60
2, 152960, Note_on_c, 0, 72, 60
2, 153008, Note_off_c, 0, 72, 100
2, 153088, Note_off_c, 0, 63, 100
2, 153088, Note_on_c, 0, 75, 60
2, 153136, Note_off_c, 0, 75, 100
2, 153216, Note_on_c, 0, 64, 60
2, 153344, Note_on_c, 0, 67, 60
2, 153392, Note_off_c, 0, 67, 100
2, 153472, Note_off_c, 0, 64, 100
2, 153472, Note_on_c, 0, 70, 60
2, 153520, Note_off_c, 0, 70, 100
2, 153600, Note_on_c, 0, 65, 60
2, 153856, Note_off_c, 0, 65, 100
2, 153984, Note_on_c, 0, 74, 90
2, 154032, Note_off_c, 0, 74, 100
2, 154112, Note_on_c, 0, 75, 90
2, 154160, Note_off_c, 0, 75, 100
2, 154240, Note_on_c, 0, 77, 90
2, 154288, Note_off_c, 0, 77, 100
2, 154368, Note_on_c, 0, 75, 90
2, 154416, Note_off_c, 0, 75, 100
2, 154496, Note_on_c, 0, 77, 90
2, 154544, Note_off_c, 0, 77, 100
2, 154624, Note_on_c, 0, 79, 90
2, 154672, Note_off_c, 0, 79, 100
2, 154752, Note_on_c, 0, 72, 90
2, 154800, Note_off_c, 0, 72, 100
2, 154880, Note_on_c, 0, 74, 90
2, 154928, Note_off_c, 0, 74, 100
2, 155008, Note_on_c, 0, 75, 90
2, 155056, Note_off_c, 0, 75, 100
2, 155136, Note_on_c, 0, 74, 90
2, 155184, Note_off_c, 0, 74, 100
2, 155264, Note_on_c, 0, 75, 90
2, 155312, Note_off_c, 0, 75, 100
2, 155392, Note_on_c, 0, 77, 90
2, 155440, Note_off_c, 0, 77, 100
2, 155520, Note_on_c, 0, 79, 90
2, 155568, Note_off_c, 0, 79, 100
2, 155648, Note_on_c, 0, 81, 90
2, 155696, Note_off_c, 0, 81, 100
2, 155776, Note_on_c, 0, 82, 90
2, 155824, Note_off_c, 0, 82, 100
2, 155904, Note_on_c, 0, 81, 90
2, 155952, Note_off_c, 0, 81, 100
2, 156032, Note_on_c, 0, 79, 90
2, 156080, Note_off_c, 0, 79, 100
2, 156160, Note_on_c, 0, 77, 90
2, 156208, Note_off_c, 0, 77, 100
2, 156288, Note_on_c, 0, 75, 90
2, 156336, Note_off_c, 0, 75, 100
2, 156416, Note_on_c, 0, 74, 90
2, 156464, Note_off_c, 0, 74, 100
2, 156544, Note_on_c, 0, 72, 90
2, 156592, Note_off_c, 0, 72, 100
2, 156672, Note_on_c, 0, 70, 90
2, 156928, Note_off_c, 0, 70, 100
2, 157056, Note_on_c, 0, 66, 90
2, 157056, Note_on_c, 0, 70, 90
2, 157312, Note_off_c, 0, 66, 100
2, 157440, Note_on_c, 0, 67, 90
2, 157696, Note_off_c, 0, 67, 100
2, 157824, Note_off_c, 0, 70, 100
2, 157824, Note_on_c, 0, 66, 90
2, 158080, Note_off_c, 0, 66, 100
2, 158208, Note_on_c, 0, 67, 90
2, 158208, Note_on_c, 0, 70, 90
2, 158464, Note_off_c, 0, 67, 100
2, 158464, Note_off_c, 0, 70, 100
2, 158592, Note_on_c, 0, 75, 60
2, 158640, Note_off_c, 0, 75, 100
2, 158720, Note_on_c, 0, 77, 60
2, 158768, Note_off_c, 0, 77, 100
2, 158848, Note_on_c, 0, 79, 60
2, 158896, Note_off_c, 0, 79, 100
2, 158976, Note_on_c, 0, 77, 60
2, 159024, Note_off_c, 0, 77, 100
2, 159104, Note_on_c, 0, 75, 60
2, 159152, Note_off_c, 0, 75, 100
2, 159232, Note_on_c, 0, 74, 60
2, 159280, Note_off_c, 0, 74, 100
2, 159360, Note_on_c, 0, 72, 60
2, 159408, Note_off_c, 0, 72, 100
2, 159488, Note_on_c, 0, 70, 60
2, 159536, Note_off_c, 0, 70, 100
2, 159616, Note_on_c, 0, 69, 60
2, 159664, Note_off_c, 0, 69, 100
2, 159744, Note_on_c, 0, 70, 60
2, 160000, Note_off_c, 0, 70, 100
2, 160128, Note_on_c, 0, 70, 90
2, 160128, Note_on_c, 0, 66, 90
2, 160384, Note_off_c, 0, 66, 100
2, 160512, Note_on_c, 0, 67, 90
2, 160768, Note_off_c, 0, 67, 100
2, 160896, Note_off_c, 0, 70, 100
2, 160896, Note_on_c, 0, 66, 90
2, 161152, Note_off_c, 0, 66, 100
2, 161280, Note_on_c, 0, 67, 90
2, 161280, Note_on_c, 0, 70, 90
2, 161536, Note_off_c, 0, 67, 100
2, 161536, Note_off_c, 0, 70, 100
2, 161664, Note_on_c, 0, 75, 60
2, 161712, Note_off_c, 0, 75, 100
2, 161792, Note_on_c, 0, 77, 60
2, 161840, Note_off_c, 0, 77, 100
2, 161920, Note_on_c, 0, 79, 60
2, 161968, Note_off_c, 0, 79, 100
2, 162048, Note_on_c, 0, 77, 60
2, 162096, Note_off_c, 0, 77, 100
2, 162176, Note_on_c, 0, 75, 60
2, 162224, Note_off_c, 0, 75, 100
2, 162304, Note_on_c, 0, 74, 60
2, 162352, Note_off_c, 0, 74, 100
2, 162432, Note_on_c, 0, 72, 60
2, 162480, Note_off_c, 0, 72, 100
2, 162560, Note_on_c, 0, 70, 60
2, 162608, Note_off_c, 0, 70, 100
2, 162688, Note_on_c, 0, 69, 60
2, 162736, Note_off_c, 0, 69, 100
2, 162816, Note_on_c, 0, 70, 60
2, 163072, Note_off_c, 0, 70, 100
2, 163200, Note_on_c, 0, 75, 60
2, 163248, Note_off_c, 0, 75, 100
2, 163328, Note_on_c, 0, 72, 60
2, 163376, Note_off_c, 0, 72, 100
2, 163456, Note_on_c, 0, 69, 60
2, 163504, Note_off_c, 0, 69, 100
2, 163584, Note_on_c, 0, 70, 60
2, 163840, Note_off_c, 0, 70, 100
2, 163968, Note_on_c, 0, 75, 60
2, 164016, Note_off_c, 0, 75, 100
2, 164096, Note_on_c, 0, 72, 60
2, 164144, Note_off_c, 0, 72, 100
2, 164224, Note_on_c, 0, 69, 60
2, 164272, Note_off_c, 0, 69, 100
2, 164352, Note_on_c, 0, 70, 60
2, 164608, Note_off_c, 0, 70, 100
2, 164736, Note_on_c, 0, 75, 49
2, 164768, Note_off_c, 0, 75, 100
2, 164784, Note_on_c, 0, 77, 49
2, 165040, Note_off_c, 0, 77, 100
2, 165120, Note_on_c, 0, 81, 49
2, 165152, Note_off_c, 0, 81, 100
2, 165168, Note_on_c, 0, 82, 49
2, 165424, Note_off_c, 0, 82, 100
2, 165504, Note_on_c, 0, 63, 90
2, 165536, Note_off_c, 0, 63, 100
2, 165552, Note_on_c, 0, 65, 90
2, 165808, Note_off_c, 0, 65, 100
2, 165888, Note_on_c, 0, 67, 90
2, 165888, Note_on_c, 0, 68, 90
2, 165920, Note_off_c, 0, 67, 100
2, 166144, Note_off_c, 0, 68, 100
2, 167424, Note_on_c, 0, 70, 60
2, 167424, Note_on_c, 0, 63, 60
2, 167552, Note_off_c, 0, 63, 100
2, 167616, Note_on_c, 0, 67, 60
2, 167744, Note_off_c, 0, 67, 100
2, 167808, Note_on_c, 0, 63, 60
2, 167936, Note_off_c, 0, 70, 100
2, 167936, Note_off_c, 0, 63, 100
2, 168000, Note_on_c, 0, 67, 60
2, 168128, Note_off_c, 0, 67, 100
2, 168192, Note_on_c, 0, 75, 60
2, 168192, Note_on_c, 0, 63, 60
2, 168320, Note_off_c, 0, 75, 100
2, 168320, Note_off_c, 0, 63, 100
2, 168384, Note_on_c, 0, 74, 60
2, 168384, Note_on_c, 0, 67, 60
2, 168512, Note_off_c, 0, 74, 100
2, 168512, Note_off_c, 0, 67, 100
2, 168576, Note_on_c, 0, 72, 60
2, 168576, Note_on_c, 0, 63, 60
2, 168704, Note_off_c, 0, 72, 100
2, 168704, Note_off_c, 0, 63, 100
2, 168768, Note_on_c, 0, 70, 60
2, 168768, Note_on_c, 0, 67, 60
2, 168896, Note_off_c, 0, 70, 100
2, 168896, Note_off_c, 0, 67, 100
2, 168960, Note_on_c, 0, 70, 90
2, 168960, Note_on_c, 0, 65, 90
2, 168960, Note_on_c, 0, 62, 90
2, 169088, Note_off_c, 0, 65, 100
2, 169152, Note_on_c, 0, 68, 60
2, 169216, Note_off_c, 0, 62, 100
2, 169280, Note_off_c, 0, 68, 100
2, 169344, Note_off_c, 0, 70, 100
2, 169344, Note_on_c, 0, 62, 60
2, 169344, Note_on_c, 0, 65, 60
2, 169472, Note_off_c, 0, 65, 100
2, 169536, Note_on_c, 0, 72, 60
2, 169536, Note_on_c, 0, 68, 60
2, 169600, Note_off_c, 0, 62, 100
2, 169664, Note_off_c, 0, 72, 100
2, 169664, Note_off_c, 0, 68, 100
2, 169728, Note_on_c, 0, 70, 60
2, 169728, Note_on_c, 0, 65, 60
2, 169728, Note_on_c, 0, 62, 60
2, 169856, Note_off_c, 0, 65, 100
2, 169920, Note_on_c, 0, 68, 60
2, 169984, Note_off_c, 0, 70, 100
2, 169984, Note_off_c, 0, 62, 100
2, 170048, Note_off_c, 0, 68, 100
2, 170112, Note_on_c, 0, 65, 60
2, 170112, Note_on_c, 0, 62, 60
2, 170240, Note_off_c, 0, 65, 100
2, 170304, Note_on_c, 0, 68, 60
2, 170368, Note_off_c, 0, 62, 100
2, 170432, Note_off_c, 0, 68, 100
2, 170496, Note_on_c, 0, 63, 60
2, 170624, Note_off_c, 0, 63, 100
2, 170688, Note_on_c, 0, 67, 60
2, 170816, Note_off_c, 0, 67, 100
2, 170880, Note_on_c, 0, 70, 60
2, 170880, Note_on_c, 0, 63, 60
2, 171008, Note_off_c, 0, 63, 100
2, 171072, Note_on_c, 0, 67, 60
2, 171136, Note_off_c, 0, 70, 100
2, 171200, Note_off_c, 0, 67, 100
2, 171264, Note_on_c, 0, 75, 60
2, 171264, Note_on_c, 0, 63, 60
2, 171392, Note_off_c, 0, 75, 100
2, 171392, Note_off_c, 0, 63, 100
2, 171456, Note_on_c, 0, 74, 60
2, 171456, Note_on_c, 0, 67, 60
2, 171584, Note_off_c, 0, 74, 100
2, 171584, Note_off_c, 0, 67, 100
2, 171648, Note_on_c, 0, 72, 60
2, 171648, Note_on_c, 0, 63, 60
2, 171776, Note_off_c, 0, 72, 100
2, 171776, Note_off_c, 0, 63, 100
2, 171840, Note_on_c, 0, 70, 60
2, 171840, Note_on_c, 0, 67, 60
2, 171968, Note_off_c, 0, 70, 100
2, 171968, Note_off_c, 0, 67, 100
2, 172032, Note_on_c, 0, 70, 90
2, 172032, Note_on_c, 0, 65, 90
2, 172032, Note_on_c, 0, 62, 90
2, 172160, Note_off_c, 0, 65, 100
2, 172224, Note_on_c, 0, 68, 60
2, 172288, Note_off_c, 0, 62, 100
2, 172352, Note_off_c, 0, 68, 100
2, 172416, Note_off_c, 0, 70, 100
2, 172416, Note_on_c, 0, 65, 60
2, 172432, Note_on_c, 0, 62, 60
2, 172544, Note_off_c, 0, 65, 100
2, 172608, Note_on_c, 0, 72, 60
2, 172608, Note_on_c, 0, 68, 60
2, 172688, Note_off_c, 0, 62, 100
2, 172736, Note_off_c, 0, 72, 100
2, 172736, Note_off_c, 0, 68, 100
2, 172800, Note_on_c, 0, 70, 60
2, 172800, Note_on_c, 0, 62, 60
2, 172800, Note_on_c, 0, 65, 60
2, 172928, Note_off_c, 0, 65, 100
2, 172992, Note_on_c, 0, 68, 60
2, 173056, Note_off_c, 0, 70, 100
2, 173056, Note_off_c, 0, 62, 100
2, 173120, Note_off_c, 0, 68, 100
2, 173184, Note_on_c, 0, 65, 60
2, 173184, Note_on_c, 0, 62, 60
2, 173312, Note_off_c, 0, 65, 100
2, 173376, Note_on_c, 0, 68, 60
2, 173440, Note_off_c, 0, 62, 100
2, 173504, Note_off_c, 0, 68, 100
2, 173952, Note_on_c, 0, 79, 90
2, 174208, Note_off_c, 0, 79, 100
2, 174336, Note_on_c, 0, 80, 90
2, 174592, Note_off_c, 0, 80, 100
2, 174720, Note_on_c, 0, 82, 90
2, 174976, Note_off_c, 0, 82, 100
2, 175104, Note_on_c, 0, 80, 90
2, 175136, Note_off_c, 0, 80, 100
2, 175152, Note_on_c, 0, 82, 90
2, 175184, Note_off_c, 0, 82, 100
2, 175200, Note_on_c, 0, 84, 90
2, 175584, Note_off_c, 0, 84, 100
2, 175680, Note_on_c, 0, 82, 90
2, 175808, Note_off_c, 0, 82, 100
2, 175872, Note_on_c, 0, 80, 90
2, 176128, Note_off_c, 0, 80, 100
2, 177024, Note_on_c, 0, 70, 90
2, 177280, Note_off_c, 0, 70, 100
2, 177408, Note_on_c, 0, 72, 90
2, 177664, Note_off_c, 0, 72, 100
2, 177792, Note_on_c, 0, 74, 90
2, 178048, Note_off_c, 0, 74, 100
2, 178176, Note_on_c, 0, 75, 90
2, 178208, Note_off_c, 0, 75, 100
2, 178224, Note_on_c, 0, 77, 90
2, 178256, Note_off_c, 0, 77, 100
2, 178272, Note_on_c, 0, 75, 90
2, 178304, Note_off_c, 0, 75, 100
2, 178320, Note_on_c, 0, 77, 90
2, 178352, Note_off_c, 0, 77, 100
2, 178368, Note_on_c, 0, 75, 90
2, 178400, Note_off_c, 0, 75, 100
2, 178416, Note_on_c, 0, 77, 90
2, 178448, Note_off_c, 0, 77, 100
2, 178464, Note_on_c, 0, 75, 90
2, 178496, Note_off_c, 0, 75, 100
2, 178512, Note_on_c, 0, 77, 90
2, 178544, Note_off_c, 0, 77, 100
2, 178560, Note_on_c, 0, 75, 90
2, 178592, Note_off_c, 0, 75, 100
2, 178608, Note_on_c, 0, 77, 90
2, 178640, Note_off_c, 0, 77, 100
2, 178656, Note_on_c, 0, 75, 90
2, 178688, Note_off_c, 0, 75, 100
2, 178704, Note_on_c, 0, 77, 90
2, 178736, Note_off_c, 0, 77, 100
2, 178752, Note_on_c, 0, 77, 90
2, 178880, Note_off_c, 0, 77, 100
2, 178944, Note_on_c, 0, 79, 90
2, 179200, Note_off_c, 0, 79, 100
2, 179904, Note_on_c, 0, 75, 90
2, 180032, Note_off_c, 0, 75, 100
2, 180096, Note_on_c, 0, 79, 60
2, 180096, Note_on_c, 0, 74, 60
2, 180224, Note_off_c, 0, 74, 100
2, 180288, Note_on_c, 0, 75, 60
2, 180352, Note_off_c, 0, 79, 100
2, 180416, Note_off_c, 0, 75, 100
2, 180480, Note_on_c, 0, 80, 60
2, 180480, Note_on_c, 0, 72, 60
2, 180608, Note_off_c, 0, 72, 100
2, 180672, Note_on_c, 0, 74, 60
2, 180736, Note_off_c, 0, 80, 100
2, 180800, Note_off_c, 0, 74, 100
2, 180864, Note_on_c, 0, 82, 60
2, 180864, Note_on_c, 0, 70, 60
2, 180992, Note_off_c, 0, 70, 100
2, 181056, Note_on_c, 0, 72, 60
2, 181120, Note_off_c, 0, 82, 100
2, 181184, Note_off_c, 0, 72, 100
2, 181248, Note_on_c, 0, 80, 60
2, 181248, Note_on_c, 0, 68, 60
2, 181280, Note_off_c, 0, 80, 100
2, 181296, Note_on_c, 0, 82, 60
2, 181328, Note_off_c, 0, 82, 100
2, 181344, Note_on_c, 0, 84, 60
2, 181376, Note_off_c, 0, 68, 100
2, 181440, Note_on_c, 0, 72, 60
2, 181568, Note_off_c, 0, 72, 100
2, 181632, Note_on_c, 0, 74, 60
2, 181728, Note_off_c, 0, 84, 100
2, 181760, Note_off_c, 0, 74, 100
2, 181824, Note_on_c, 0, 82, 60
2, 181824, Note_on_c, 0, 76, 60
2, 181952, Note_off_c, 0, 82, 100
2, 181952, Note_off_c, 0, 76, 100
2, 182016, Note_on_c, 0, 80, 60
2, 182016, Note_on_c, 0, 77, 60
2, 182144, Note_off_c, 0, 77, 100
2, 182208, Note_on_c, 0, 75, 60
2, 182272, Note_off_c, 0, 80, 100
2, 182336, Note_off_c, 0, 75, 100
2, 182400, Note_on_c, 0, 74, 60
2, 182528, Note_off_c, 0, 74, 100
2, 182592, Note_on_c, 0, 72, 60
2, 182720, Note_off_c, 0, 72, 100
2, 182784, Note_on_c, 0, 70, 90
2, 182912, Note_off_c, 0, 70, 100
2, 182976, Note_on_c, 0, 68, 90
2, 183104, Note_off_c, 0, 68, 100
2, 183168, Note_on_c, 0, 70, 90
2, 183168, Note_on_c, 0, 67, 90
2, 183296, Note_off_c, 0, 67, 100
2, 183360, Note_on_c, 0, 63, 90
2, 183424, Note_off_c, 0, 70, 100
2, 183488, Note_off_c, 0, 63, 100
2, 183552, Note_on_c, 0, 72, 90
2, 183552, Note_on_c, 0, 68, 90
2, 183680, Note_off_c, 0, 68, 100
2, 183744, Note_on_c, 0, 65, 90
2, 183808, Note_off_c, 0, 72, 100
2, 183872, Note_off_c, 0, 65, 100
2, 183936, Note_on_c, 0, 74, 90
2, 183936, Note_on_c, 0, 70, 90
2, 184064, Note_off_c, 0, 70, 100
2, 184128, Note_on_c, 0, 58, 90
2, 184192, Note_off_c, 0, 74, 100
2, 184256, Note_off_c, 0, 58, 100
2, 184320, Note_on_c, 0, 63, 90
2, 184576, Note_off_c, 0, 63, 100
2, 184704, Note_on_c, 0, 75, 60
2, 184960, Note_off_c, 0, 75, 100
2, 185088, Note_on_c, 0, 77, 60
2, 185120, Note_off_c, 0, 77, 100
2, 185136, Note_on_c, 0, 79, 60
2, 185392, Note_off_c, 0, 79, 100
2, 185472, Note_on_c, 0, 77, 60
2, 185504, Note_off_c, 0, 77, 100
2, 185520, Note_on_c, 0, 79, 60
2, 185776, Note_off_c, 0, 79, 100
2, 185856, Note_on_c, 0, 71, 90
2, 185856, Note_on_c, 0, 62, 90
2, 185904, Note_off_c, 0, 71, 100
2, 185904, Note_off_c, 0, 62, 100
2, 185984, Note_on_c, 0, 74, 90
2, 185984, Note_on_c, 0, 65, 90
2, 186032, Note_off_c, 0, 74, 100
2, 186032, Note_off_c, 0, 65, 100
2, 186112, Note_on_c, 0, 77, 90
2, 186112, Note_on_c, 0, 69, 90
2, 186160, Note_off_c, 0, 77, 100
2, 186160, Note_off_c, 0, 69, 100
2, 186240, Note_on_c, 0, 80, 90
2, 186240, Note_on_c, 0, 70, 90
2, 186288, Note_off_c, 0, 80, 100
2, 186288, Note_off_c, 0, 70, 100
2, 186368, Note_on_c, 0, 77, 90
2, 186368, Note_on_c, 0, 69, 90
2, 186416, Note_off_c, 0, 77, 100
2, 186416, Note_off_c, 0, 69, 100
2, 186496, Note_on_c, 0, 74, 90
2, 186496, Note_on_c, 0, 65, 90
2, 186544, Note_off_c, 0, 74, 100
2, 186544, Note_off_c, 0, 65, 100
2, 186624, Note_on_c, 0, 71, 90
2, 186624, Note_on_c, 0, 62, 90
2, 186672, Note_off_c, 0, 71, 100
2, 186672, Note_off_c, 0, 62, 100
2, 186752, Note_on_c, 0, 74, 90
2, 186752, Note_on_c, 0, 65, 90
2, 186800, Note_off_c, 0, 74, 100
2, 186800, Note_off_c, 0, 65, 100
2, 186880, Note_on_c, 0, 77, 90
2, 186880, Note_on_c, 0, 69, 90
2, 186928, Note_off_c, 0, 77, 100
2, 186928, Note_off_c, 0, 69, 100
2, 187008, Note_on_c, 0, 80, 90
2, 187008, Note_on_c, 0, 70, 90
2, 187056, Note_off_c, 0, 80, 100
2, 187056, Note_off_c, 0, 70, 100
2, 187136, Note_on_c, 0, 77, 90
2, 187136, Note_on_c, 0, 69, 90
2, 187184, Note_off_c, 0, 77, 100
2, 187184, Note_off_c, 0, 69, 100
2, 187264, Note_on_c, 0, 74, 90
2, 187264, Note_on_c, 0, 65, 90
2, 187312, Note_off_c, 0, 74, 100
2, 187312, Note_off_c, 0, 65, 100
2, 187392, Note_on_c, 0, 72, 60
2, 187392, Note_on_c, 0, 63, 60
2, 187648, Note_off_c, 0, 72, 100
2, 187648, Note_off_c, 0, 63, 100
2, 188160, Note_on_c, 0, 75, 60
2, 188192, Note_off_c, 0, 75, 100
2, 188208, Note_on_c, 0, 77, 60
2, 188464, Note_off_c, 0, 77, 100
2, 188544, Note_on_c, 0, 75, 60
2, 188576, Note_off_c, 0, 75, 100
2, 188592, Note_on_c, 0, 77, 60
2, 188848, Note_off_c, 0, 77, 100
2, 188928, Note_on_c, 0, 69, 90
2, 188928, Note_on_c, 0, 60, 90
2, 188976, Note_off_c, 0, 69, 100
2, 188976, Note_off_c, 0, 60, 100
2, 189056, Note_on_c, 0, 72, 90
2, 189056, Note_on_c, 0, 63, 90
2, 189104, Note_off_c, 0, 72, 100
2, 189104, Note_off_c, 0, 63, 100
2, 189184, Note_on_c, 0, 75, 90
2, 189184, Note_on_c, 0, 67, 90
2, 189232, Note_off_c, 0, 75, 100
2, 189232, Note_off_c, 0, 67, 100
2, 189312, Note_on_c, 0, 78, 90
2, 189312, Note_on_c, 0, 69, 90
2, 189360, Note_off_c, 0, 78, 100
2, 189360, Note_off_c, 0, 69, 100
2, 189440, Note_on_c, 0, 75, 90
2, 189440, Note_on_c, 0, 67, 90
2, 189488, Note_off_c, 0, 75, 100
2, 189488, Note_off_c, 0, 67, 100
2, 189568, Note_on_c, 0, 72, 90
2, 189568, Note_on_c, 0, 63, 90
2, 189616, Note_off_c, 0, 72, 100
2, 189616, Note_off_c, 0, 63, 100
2, 189696, Note_on_c, 0, 69, 90
2, 189696, Note_on_c, 0, 60, 90
2, 189744, Note_off_c, 0, 69, 100
2, 189744, Note_off_c, 0, 60, 100
2, 189824, Note_on_c, 0, 72, 90
2, 189824, Note_on_c, 0, 63, 90
2, 189872, Note_off_c, 0, 72, 100
2, 189872, Note_off_c, 0, 63, 100
2, 189952, Note_on_c, 0, 75, 90
2, 189952, Note_on_c, 0, 67, 90
2, 190000, Note_off_c, 0, 75, 100
2, 190000, Note_off_c, 0, 67, 100
2, 190080, Note_on_c, 0, 79, 90
2, 190080, Note_on_c, 0, 69, 90
2, 190128, Note_off_c, 0, 79, 100
2, 190128, Note_off_c, 0, 69, 100
2, 190208, Note_on_c, 0, 75, 90
2, 190208, Note_on_c, 0, 67, 90
2, 190256, Note_off_c, 0, 75, 100
2, 190256, Note_off_c, 0, 67, 100
2, 190336, Note_on_c, 0, 72, 90
2, 190336, Note_on_c, 0, 63, 90
2, 190384, Note_off_c, 0, 72, 100
2, 190384, Note_off_c, 0, 63, 100
2, 190464, Note_on_c, 0, 70, 90
2, 190464, Note_on_c, 0, 62, 90
2, 190720, Note_off_c, 0, 70, 100
2, 190720, Note_off_c, 0, 62, 100
2, 191232, Note_on_c, 0, 82, 90
2, 191280, Note_off_c, 0, 82, 100
2, 191360, Note_on_c, 0, 81, 90
2, 191408, Note_off_c, 0, 81, 100
2, 191488, Note_on_c, 0, 79, 90
2, 191536, Note_off_c, 0, 79, 100
2, 191616, Note_on_c, 0, 77, 90
2, 191616, Note_on_c, 0, 70, 90
2, 191616, Note_on_c, 0, 62, 90
2, 191664, Note_off_c, 0, 77, 100
2, 191744, Note_on_c, 0, 75, 90
2, 191792, Note_off_c, 0, 75, 100
2, 191872, Note_off_c, 0, 70, 100
2, 191872, Note_off_c, 0, 62, 100
2, 191872, Note_on_c, 0, 74, 90
2, 191920, Note_off_c, 0, 74, 100
2, 192000, Note_on_c, 0, 71, 79
2, 192000, Note_on_c, 0, 63, 79
2, 192000, Note_on_c, 0, 70, 79
2, 192048, Note_off_c, 0, 71, 100
2, 192128, Note_on_c, 0, 72, 79
2, 192176, Note_off_c, 0, 72, 100
2, 192256, Note_off_c, 0, 63, 100
2, 192256, Note_on_c, 0, 75, 79
2, 192304, Note_off_c, 0, 75, 100
2, 192384, Note_on_c, 0, 71, 79
2, 192384, Note_on_c, 0, 67, 79
2, 192432, Note_off_c, 0, 71, 100
2, 192512, Note_on_c, 0, 72, 79
2, 192560, Note_off_c, 0, 72, 100
2, 192640, Note_off_c, 0, 67, 100
2, 192640, Note_on_c, 0, 75, 79
2, 192688, Note_off_c, 0, 75, 100
2, 192768, Note_on_c, 0, 73, 79
2, 192768, Note_on_c, 0, 65, 79
2, 192816, Note_off_c, 0, 73, 100
2, 192896, Note_on_c, 0, 74, 79
2, 192944, Note_off_c, 0, 74, 100
2, 193024, Note_off_c, 0, 65, 100
2, 193024, Note_on_c, 0, 75, 79
2, 193028, Note_off_c, 0, 70, 100
2, 193072, Note_off_c, 0, 75, 100
2, 193152, Note_on_c, 0, 73, 81
2, 193152, Note_on_c, 0, 68, 81
2, 193200, Note_off_c, 0, 73, 100
2, 193280, Note_on_c, 0, 74, 81
2, 193328, Note_off_c, 0, 74, 100
2, 193408, Note_off_c, 0, 68, 100
2, 193408, Note_on_c, 0, 77, 81
2, 193456, Note_off_c, 0, 77, 100
2, 193536, Note_on_c, 0, 74, 82
2, 193536, Note_on_c, 0, 67, 82
2, 193536, Note_on_c, 0, 70, 82
2, 193584, Note_off_c, 0, 74, 100
2, 193664, Note_on_c, 0, 75, 82
2, 193712, Note_off_c, 0, 75, 100
2, 193792, Note_off_c, 0, 67, 100
2, 193792, Note_on_c, 0, 79, 84
2, 193840, Note_off_c, 0, 79, 100
2, 193920, Note_on_c, 0, 74, 84
2, 193920, Note_on_c, 0, 63, 84
2, 193968, Note_off_c, 0, 74, 100
2, 194048, Note_off_c, 0, 70, 100
2, 194048, Note_on_c, 0, 75, 84
2, 194096, Note_off_c, 0, 75, 100
2, 194176, Note_off_c, 0, 63, 100
2, 194176, Note_on_c, 0, 79, 85
2, 194224, Note_off_c, 0, 79, 100
2, 194304, Note_on_c, 0, 76, 85
2, 194304, Note_on_c, 0, 62, 85
2, 194304, Note_on_c, 0, 70, 85
2, 194352, Note_off_c, 0, 76, 100
2, 194432, Note_on_c, 0, 77, 87
2, 194480, Note_off_c, 0, 77, 100
2, 194560, Note_off_c, 0, 62, 100
2, 194560, Note_on_c, 0, 80, 87
2, 194608, Note_off_c, 0, 80, 100
2, 194688, Note_on_c, 0, 76, 87
2, 194688, Note_on_c, 0, 58, 87
2, 194736, Note_off_c, 0, 76, 100
2, 194816, Note_off_c, 0, 70, 100
2, 194816, Note_on_c, 0, 77, 88
2, 194864, Note_off_c, 0, 77, 100
2, 194944, Note_off_c, 0, 58, 100
2, 194944, Note_on_c, 0, 80, 88
2, 194992, Note_off_c, 0, 80, 100
2, 195072, Note_on_c, 0, 78, 90
2, 195072, Note_on_c, 0, 63, 90
2, 195072, Note_on_c, 0, 70, 90
2, 195200, Note_off_c, 0, 78, 100
2, 195264, Note_on_c, 0, 79, 90
2, 195328, Note_off_c, 0, 63, 100
2, 195328, Note_off_c, 0, 70, 100
2, 195392, Note_off_c, 0, 79, 100
2, 195456, Note_on_c, 0, 74, 90
2, 195584, Note_off_c, 0, 74, 100
2, 195648, Note_on_c, 0, 75, 90
2, 195776, Note_off_c, 0, 75, 100
2, 195840, Note_on_c, 0, 71, 90
2, 195968, Note_off_c, 0, 71, 100
2, 196032, Note_on_c, 0, 72, 90
2, 196160, Note_off_c, 0, 72, 100
2, 196224, Note_on_c, 0, 75, 90
2, 196352, Note_off_c, 0, 75, 100
2, 196416, Note_on_c, 0, 72, 90
2, 196544, Note_off_c, 0, 72, 100
2, 196608, Note_on_c, 0, 70, 90
2, 196864, Note_off_c, 0, 70, 100
2, 196992, Note_on_c, 0, 69, 90
2, 197248, Note_off_c, 0, 69, 100
2, 197376, Note_on_c, 0, 65, 90
2, 197424, Note_off_c, 0, 65, 100
2, 197504, Note_on_c, 0, 69, 90
2, 197552, Note_off_c, 0, 69, 100
2, 197632, Note_on_c, 0, 72, 90
2, 197680, Note_off_c, 0, 72, 100
2, 197760, Note_on_c, 0, 77, 90
2, 197808, Note_off_c, 0, 77, 100
2, 197888, Note_on_c, 0, 81, 90
2, 197936, Note_off_c, 0, 81, 100
2, 198016, Note_on_c, 0, 84, 90
2, 198064, Note_off_c, 0, 84, 100
2, 198144, Note_on_c, 0, 82, 90
2, 198400, Note_off_c, 0, 82, 100
2, 198912, Note_on_c, 0, 82, 90
2, 198960, Note_off_c, 0, 82, 100
2, 199040, Note_on_c, 0, 79, 90
2, 199088, Note_off_c, 0, 79, 100
2, 199168, Note_on_c, 0, 76, 90
2, 199216, Note_off_c, 0, 76, 100
2, 199296, Note_on_c, 0, 72, 90
2, 199344, Note_off_c, 0, 72, 100
2, 199424, Note_on_c, 0, 70, 90
2, 199472, Note_off_c, 0, 70, 100
2, 199552, Note_on_c, 0, 67, 90
2, 199600, Note_off_c, 0, 67, 100
2, 199680, Note_on_c, 0, 72, 90
2, 199936, Note_off_c, 0, 72, 100
2, 200448, Note_on_c, 0, 65, 90
2, 200496, Note_off_c, 0, 65, 100
2, 200576, Note_on_c, 0, 69, 90
2, 200624, Note_off_c, 0, 69, 100
2, 200704, Note_on_c, 0, 72, 90
2, 200752, Note_off_c, 0, 72, 100
2, 200832, Note_on_c, 0, 77, 90
2, 200880, Note_off_c, 0, 77, 100
2, 200960, Note_on_c, 0, 81, 90
2, 201008, Note_off_c, 0, 81, 100
2, 201088, Note_on_c, 0, 84, 90
2, 201136, Note_off_c, 0, 84, 100
2, 201216, Note_on_c, 0, 82, 90
2, 201472, Note_off_c, 0, 82, 100
2, 201984, Note_on_c, 0, 82, 90
2, 202032, Note_off_c, 0, 82, 100
2, 202112, Note_on_c, 0, 79, 90
2, 202160, Note_off_c, 0, 79, 100
2, 202240, Note_on_c, 0, 75, 90
2, 202288, Note_off_c, 0, 75, 100
2, 202368, Note_on_c, 0, 72, 90
2, 202416, Note_off_c, 0, 72, 100
2, 202492, Note_on_c, 0, 70, 90
2, 202540, Note_off_c, 0, 70, 100
2, 202624, Note_on_c, 0, 67, 90
2, 202672, Note_off_c, 0, 67, 100
2, 202752, Note_on_c, 0, 69, 90
2, 202816, Note_off_c, 0, 69, 100
2, 202848, Note_on_c, 0, 72, 90
2, 202912, Note_off_c, 0, 72, 100
2, 202944, Note_on_c, 0, 70, 90
2, 203008, Note_off_c, 0, 70, 100
2, 203040, Note_on_c, 0, 69, 90
2, 203104, Note_off_c, 0, 69, 100
2, 203136, Note_on_c, 0, 70, 90
2, 203200, Note_off_c, 0, 70, 100
2, 203232, Note_on_c, 0, 72, 90
2, 203296, Note_off_c, 0, 72, 100
2, 203328, Note_on_c, 0, 74, 90
2, 203392, Note_off_c, 0, 74, 100
2, 203424, Note_on_c, 0, 76, 90
2, 203488, Note_off_c, 0, 76, 100
2, 203520, Note_on_c, 0, 77, 90
2, 203648, Note_off_c, 0, 77, 100
2, 203712, Note_on_c, 0, 77, 90
2, 203840, Note_off_c, 0, 77, 100
2, 203904, Note_on_c, 0, 77, 90
2, 204032, Note_off_c, 0, 77, 100
2, 204096, Note_on_c, 0, 77, 90
2, 204224, Note_off_c, 0, 77, 100
2, 204288, Note_on_c, 0, 77, 79
2, 204320, Note_off_c, 0, 77, 100
2, 204336, Note_on_c, 0, 79, 79
2, 204368, Note_off_c, 0, 79, 100
2, 204384, Note_on_c, 0, 77, 79
2, 204416, Note_off_c, 0, 77, 100
2, 204432, Note_on_c, 0, 79, 79
2, 204464, Note_off_c, 0, 79, 100
2, 204480, Note_on_c, 0, 77, 79
2, 204512, Note_off_c, 0, 77, 100
2, 204528, Note_on_c, 0, 79, 79
2, 204560, Note_off_c, 0, 79, 100
2, 204576, Note_on_c, 0, 77, 79
2, 204608, Note_off_c, 0, 77, 100
2, 204624, Note_on_c, 0, 79, 79
2, 204656, Note_off_c, 0, 79, 100
2, 204672, Note_on_c, 0, 77, 79
2, 204704, Note_off_c, 0, 77, 100
2, 204720, Note_on_c, 0, 79, 79
2, 204752, Note_off_c, 0, 79, 100
2, 204768, Note_on_c, 0, 77, 79
2, 204800, Note_off_c, 0, 77, 100
2, 204816, Note_on_c, 0, 79, 79
2, 204848, Note_off_c, 0, 79, 100
2, 204864, Note_on_c, 0, 77, 79
2, 204896, Note_off_c, 0, 77, 100
2, 204912, Note_on_c, 0, 79, 79
2, 204944, Note_off_c, 0, 79, 100
2, 204960, Note_on_c, 0, 77, 79
2, 204992, Note_off_c, 0, 77, 100
2, 205008, Note_on_c, 0, 79, 79
2, 205040, Note_off_c, 0, 79, 100
2, 205056, Note_on_c, 0, 77, 79
2, 205056, Note_on_c, 0, 65, 79
2, 205056, Note_on_c, 0, 62, 79
2, 205088, Note_off_c, 0, 77, 100
2, 205104, Note_on_c, 0, 79, 79
2, 205136, Note_off_c, 0, 79, 100
2, 205152, Note_on_c, 0, 77, 79
2, 205184, Note_off_c, 0, 77, 100
2, 205200, Note_on_c, 0, 79, 79
2, 205232, Note_off_c, 0, 79, 100
2, 205248, Note_on_c, 0, 77, 79
2, 205280, Note_off_c, 0, 77, 100
2, 205296, Note_on_c, 0, 79, 79
2, 205312, Note_off_c, 0, 65, 100
2, 205312, Note_off_c, 0, 62, 100
2, 205328, Note_off_c, 0, 79, 100
2, 205344, Note_on_c, 0, 77, 79
2, 205376, Note_off_c, 0, 77, 100
2, 205392, Note_on_c, 0, 79, 79
2, 205424, Note_off_c, 0, 79, 100
2, 205440, Note_on_c, 0, 77, 79
2, 205440, Note_on_c, 0, 67, 79
2, 205440, Note_on_c, 0, 58, 79
2, 205472, Note_off_c, 0, 77, 100
2, 205488, Note_on_c, 0, 79, 79
2, 205520, Note_off_c, 0, 79, 100
2, 205536, Note_on_c, 0, 77, 79
2, 205568, Note_off_c, 0, 77, 100
2, 205584, Note_on_c, 0, 79, 79
2, 205616, Note_off_c, 0, 79, 100
2, 205632, Note_on_c, 0, 77, 79
2, 205664, Note_off_c, 0, 77, 100
2, 205680, Note_on_c, 0, 79, 79
2, 205696, Note_off_c, 0, 67, 100
2, 205696, Note_off_c, 0, 58, 100
2, 205712, Note_off_c, 0, 79, 100
2, 205728, Note_on_c, 0, 77, 79
2, 205760, Note_off_c, 0, 77, 100
2, 205776, Note_on_c, 0, 79, 79
2, 205808, Note_off_c, 0, 79, 100
2, 205824, Note_on_c, 0, 77, 79
2, 205824, Note_on_c, 0, 58, 79
2, 205824, Note_on_c, 0, 65, 79
2, 205856, Note_off_c, 0, 77, 100
2, 205872, Note_on_c, 0, 79, 79
2, 205904, Note_off_c, 0, 79, 100
2, 205904, Note_on_c, 0, 77, 79
2, 205936, Note_off_c, 0, 77, 100
2, 205952, Note_off_c, 0, 65, 100
2, 205968, Note_on_c, 0, 79, 79
2, 206000, Note_off_c, 0, 79, 100
2, 206016, Note_on_c, 0, 77, 79
2, 206016, Note_on_c, 0, 63, 79
2, 206048, Note_off_c, 0, 77, 100
2, 206064, Note_on_c, 0, 79, 79
2, 206080, Note_off_c, 0, 58, 100
2, 206096, Note_off_c, 0, 79, 100
2, 206112, Note_on_c, 0, 77, 79
2, 206144, Note_off_c, 0, 63, 100
2, 206144, Note_off_c, 0, 77, 100
2, 206160, Note_on_c, 0, 79, 79
2, 206192, Note_off_c, 0, 79, 100
2, 206208, Note_on_c, 0, 77, 79
2, 206208, Note_on_c, 0, 62, 79
2, 206240, Note_off_c, 0, 77, 100
2, 206256, Note_on_c, 0, 79, 79
2, 206288, Note_off_c, 0, 79, 100
2, 206304, Note_on_c, 0, 77, 79
2, 206336, Note_off_c, 0, 62, 100
2, 206336, Note_off_c, 0, 77, 100
2, 206352, Note_on_c, 0, 79, 79
2, 206384, Note_off_c, 0, 79, 100
2, 206400, Note_on_c, 0, 77, 79
2, 206400, Note_on_c, 0, 60, 79
2, 206432, Note_off_c, 0, 77, 100
2, 206448, Note_on_c, 0, 79, 79
2, 206480, Note_off_c, 0, 79, 100
2, 206496, Note_on_c, 0, 77, 79
2, 206528, Note_off_c, 0, 60, 100
2, 206528, Note_off_c, 0, 77, 100
2, 206544, Note_on_c, 0, 79, 79
2, 206576, Note_off_c, 0, 79, 100
2, 206592, Note_on_c, 0, 77, 79
2, 206592, Note_on_c, 0, 63, 79
2, 206592, Note_on_c, 0, 60, 79
2, 206624, Note_off_c, 0, 77, 100
2, 206640, Note_on_c, 0, 79, 79
2, 206672, Note_off_c, 0, 79, 100
2, 206688, Note_on_c, 0, 77, 79
2, 206720, Note_off_c, 0, 77, 100
2, 206736, Note_on_c, 0, 79, 79
2, 206768, Note_off_c, 0, 79, 100
2, 206784, Note_on_c, 0, 77, 79
2, 206816, Note_off_c, 0, 77, 100
2, 206832, Note_on_c, 0, 79, 79
2, 206848, Note_off_c, 0, 63, 100
2, 206848, Note_off_c, 0, 60, 100
2, 206864, Note_off_c, 0, 79, 100
2, 206880, Note_on_c, 0, 77, 79
2, 206912, Note_off_c, 0, 77, 100
2, 206928, Note_on_c, 0, 79, 79
2, 206960, Note_off_c, 0, 79, 100
2, 206976, Note_on_c, 0, 77, 79
2, 206976, Note_on_c, 0, 65, 79
2, 206976, Note_on_c, 0, 57, 79
2, 207008, Note_off_c, 0, 77, 100
2, 207024, Note_on_c, 0, 79, 79
2, 207056, Note_off_c, 0, 79, 100
2, 207072, Note_on_c, 0, 77, 79
2, 207104, Note_off_c, 0, 77, 100
2, 207120, Note_on_c, 0, 79, 79
2, 207152, Note_off_c, 0, 79, 100
2, 207168, Note_on_c, 0, 77, 79
2, 207200, Note_off_c, 0, 77, 100
2, 207216, Note_on_c, 0, 79, 79
2, 207232, Note_off_c, 0, 65, 100
2, 207232, Note_off_c, 0, 57, 100
2, 207248, Note_off_c, 0, 79, 100
2, 207264, Note_on_c, 0, 77, 79
2, 207296, Note_off_c, 0, 77, 100
2, 207312, Note_on_c, 0, 79, 79
2, 207344, Note_off_c, 0, 79, 100
2, 207360, Note_on_c, 0, 77, 79
2, 207360, Note_on_c, 0, 63, 79
2, 207360, Note_on_c, 0, 58, 79
2, 207392, Note_off_c, 0, 77, 100
2, 207408, Note_on_c, 0, 79, 79
2, 207440, Note_off_c, 0, 79, 100
2, 207456, Note_on_c, 0, 77, 79
2, 207488, Note_off_c, 0, 63, 100
2, 207488, Note_off_c, 0, 77, 100
2, 207504, Note_on_c, 0, 79, 79
2, 207536, Note_off_c, 0, 79, 100
2, 207552, Note_on_c, 0, 77, 79
2, 207552, Note_on_c, 0, 62, 79
2, 207584, Note_off_c, 0, 77, 100
2, 207600, Note_on_c, 0, 79, 79
2, 207616, Note_off_c, 0, 58, 100
2, 207632, Note_off_c, 0, 79, 100
2, 207648, Note_on_c, 0, 77, 79
2, 207680, Note_off_c, 0, 62, 100
2, 207680, Note_off_c, 0, 77, 100
2, 207696, Note_on_c, 0, 79, 79
2, 207728, Note_off_c, 0, 79, 100
2, 207744, Note_on_c, 0, 77, 79
2, 207744, Note_on_c, 0, 60, 79
2, 207776, Note_off_c, 0, 77, 100
2, 207792, Note_on_c, 0, 79, 79
2, 207824, Note_off_c, 0, 79, 100
2, 207840, Note_on_c, 0, 77, 79
2, 207872, Note_off_c, 0, 60, 100
2, 207872, Note_off_c, 0, 77, 100
2, 207888, Note_on_c, 0, 79, 79
2, 207920, Note_off_c, 0, 79, 100
2, 207936, Note_on_c, 0, 77, 79
2, 207936, Note_on_c, 0, 58, 79
2, 207968, Note_off_c, 0, 77, 100
2, 207984, Note_on_c, 0, 79, 79
2, 208016, Note_off_c, 0, 79, 100
2, 208032, Note_on_c, 0, 77, 79
2, 208064, Note_off_c, 0, 58, 100
2, 208064, Note_off_c, 0, 77, 100
2, 208080, Note_on_c, 0, 79, 79
2, 208112, Note_off_c, 0, 79, 100
2, 208128, Note_on_c, 0, 77, 79
2, 208128, Note_on_c, 0, 65, 79
2, 208128, Note_on_c, 0, 62, 79
2, 208160, Note_off_c, 0, 77, 100
2, 208176, Note_on_c, 0, 79, 79
2, 208208, Note_off_c, 0, 79, 100
2, 208224, Note_on_c, 0, 77, 79
2, 208256, Note_off_c, 0, 77, 100
2, 208272, Note_on_c, 0, 79, 79
2, 208304, Note_off_c, 0, 79, 100
2, 208320, Note_on_c, 0, 77, 79
2, 208352, Note_off_c, 0, 77, 100
2, 208368, Note_on_c, 0, 79, 79
2, 208384, Note_off_c, 0, 65, 100
2, 208384, Note_off_c, 0, 62, 100
2, 208400, Note_off_c, 0, 79, 100
2, 208416, Note_on_c, 0, 77, 79
2, 208448, Note_off_c, 0, 77, 100
2, 208464, Note_on_c, 0, 79, 79
2, 208496, Note_off_c, 0, 79, 100
2, 208512, Note_on_c, 0, 77, 79
2, 208512, Note_on_c, 0, 70, 79
2, 208512, Note_on_c, 0, 58, 79
2, 208544, Note_off_c, 0, 77, 100
2, 208560, Note_on_c, 0, 79, 79
2, 208592, Note_off_c, 0, 79, 100
2, 208608, Note_on_c, 0, 77, 79
2, 208640, Note_off_c, 0, 77, 100
2, 208656, Note_on_c, 0, 79, 79
2, 208688, Note_off_c, 0, 79, 100
2, 208704, Note_on_c, 0, 77, 79
2, 208736, Note_off_c, 0, 77, 100
2, 208752, Note_on_c, 0, 79, 79
2, 208768, Note_off_c, 0, 70, 100
2, 208768, Note_off_c, 0, 58, 100
2, 208784, Note_off_c, 0, 79, 100
2, 208800, Note_on_c, 0, 77, 79
2, 208832, Note_off_c, 0, 77, 100
2, 208848, Note_on_c, 0, 79, 79
2, 208880, Note_off_c, 0, 79, 100
2, 208896, Note_on_c, 0, 77, 79
2, 208896, Note_on_c, 0, 60, 79
2, 208928, Note_off_c, 0, 77, 100
2, 208944, Note_on_c, 0, 79, 79
2, 208976, Note_off_c, 0, 79, 100
2, 208992, Note_on_c, 0, 77, 79
2, 209024, Note_off_c, 0, 60, 100
2, 209024, Note_off_c, 0, 77, 100
2, 209040, Note_on_c, 0, 79, 79
2, 209072, Note_off_c, 0, 79, 100
2, 209088, Note_on_c, 0, 77, 79
2, 209088, Note_on_c, 0, 69, 79
2, 209120, Note_off_c, 0, 77, 100
2, 209136, Note_on_c, 0, 79, 79
2, 209168, Note_off_c, 0, 79, 100
2, 209184, Note_on_c, 0, 77, 79
2, 209216, Note_off_c, 0, 69, 100
2, 209216, Note_off_c, 0, 77, 100
2, 209232, Note_on_c, 0, 79, 79
2, 209264, Note_off_c, 0, 79, 100
2, 209280, Note_on_c, 0, 77, 79
2, 209280, Note_on_c, 0, 58, 79
2, 209312, Note_off_c, 0, 77, 100
2, 209328, Note_on_c, 0, 79, 79
2, 209360, Note_off_c, 0, 79, 100
2, 209376, Note_on_c, 0, 77, 79
2, 209408, Note_off_c, 0, 58, 100
2, 209408, Note_off_c, 0, 77, 100
2, 209424, Note_on_c, 0, 79, 79
2, 209456, Note_off_c, 0, 79, 100
2, 209472, Note_on_c, 0, 77, 79
2, 209472, Note_on_c, 0, 67, 79
2, 209504, Note_off_c, 0, 77, 100
2, 209520, Note_on_c, 0, 79, 79
2, 209552, Note_off_c, 0, 79, 100
2, 209568, Note_on_c, 0, 77, 79
2, 209600, Note_off_c, 0, 67, 100
2, 209600, Note_off_c, 0, 77, 100
2, 209616, Note_on_c, 0, 79, 79
2, 209648, Note_off_c, 0, 79, 100
2, 209664, Note_on_c, 0, 77, 79
2, 209664, Note_on_c, 0, 57, 79
2, 209696, Note_off_c, 0, 77, 100
2, 209712, Note_on_c, 0, 79, 79
2, 209744, Note_off_c, 0, 79, 100
2, 209760, Note_on_c, 0, 77, 79
2, 209792, Note_off_c, 0, 57, 100
2, 209792, Note_off_c, 0, 77, 100
2, 209808, Note_on_c, 0, 79, 79
2, 209840, Note_off_c, 0, 79, 100
2, 209856, Note_on_c, 0, 77, 79
2, 209856, Note_on_c, 0, 65, 79
2, 209888, Note_off_c, 0, 77, 100
2, 209904, Note_on_c, 0, 79, 79
2, 209936, Note_off_c, 0, 79, 100
2, 209952, Note_on_c, 0, 77, 79
2, 209984, Note_off_c, 0, 65, 100
2, 209984, Note_off_c, 0, 77, 100
2, 210000, Note_on_c, 0, 79, 79
2, 210032, Note_off_c, 0, 79, 100
2, 210048, Note_on_c, 0, 77, 79
2, 210048, Note_on_c, 0, 55, 79
2, 210080, Note_off_c, 0, 77, 100
2, 210096, Note_on_c, 0, 79, 79
2, 210128, Note_off_c, 0, 79, 100
2, 210144, Note_on_c, 0, 77, 79
2, 210176, Note_off_c, 0, 55, 100
2, 210176, Note_off_c, 0, 77, 100
2, 210192, Note_on_c, 0, 79, 79
2, 210224, Note_off_c, 0, 79, 100
2, 210240, Note_on_c, 0, 77, 79
2, 210240, Note_on_c, 0, 64, 79
2, 210272, Note_off_c, 0, 77, 100
2, 210288, Note_on_c, 0, 79, 79
2, 210332, Note_off_c, 0, 79, 64
2, 210336, Note_on_c, 0, 79, 79
2, 210368, Note_off_c, 0, 64, 100
2, 210428, Note_off_c, 0, 79, 64
2, 210432, Note_on_c, 0, 77, 90
2, 210432, Note_on_c, 0, 65, 90
2, 210496, Note_off_c, 0, 65, 100
2, 210528, Note_on_c, 0, 67, 90
2, 210592, Note_off_c, 0, 67, 100
2, 210624, Note_on_c, 0, 69, 90
2, 210688, Note_off_c, 0, 77, 100
2, 210688, Note_off_c, 0, 69, 100
2, 210720, Note_on_c, 0, 70, 90
2, 210784, Note_off_c, 0, 70, 100
2, 210816, Note_on_c, 0, 72, 90
2, 210880, Note_off_c, 0, 72, 100
2, 210912, Note_on_c, 0, 70, 90
2, 210976, Note_off_c, 0, 70, 100
2, 211008, Note_on_c, 0, 69, 90
2, 211072, Note_off_c, 0, 69, 100
2, 211104, Note_on_c, 0, 67, 90
2, 211168, Note_off_c, 0, 67, 100
2, 211200, Note_on_c, 0, 65, 90
2, 211328, Note_off_c, 0, 65, 100
2, 211392, Note_on_c, 0, 65, 90
2, 211520, Note_off_c, 0, 65, 100
2, 211584, Note_on_c, 0, 65, 90
2, 211712, Note_off_c, 0, 65, 100
2, 211776, Note_on_c, 0, 65, 90
2, 211904, Note_off_c, 0, 65, 100
2, 211968, Note_on_c, 0, 65, 79
2, 212000, Note_off_c, 0, 65, 100
2, 212016, Note_on_c, 0, 67, 79
2, 212048, Note_off_c, 0, 67, 100
2, 212064, Note_on_c, 0, 65, 79
2, 212096, Note_off_c, 0, 65, 100
2, 212112, Note_on_c, 0, 67, 79
2, 212144, Note_off_c, 0, 67, 100
2, 212160, Note_on_c, 0, 65, 79
2, 212192, Note_off_c, 0, 65, 100
2, 212208, Note_on_c, 0, 67, 79
2, 212240, Note_off_c, 0, 67, 100
2, 212256, Note_on_c, 0, 65, 79
2, 212288, Note_off_c, 0, 65, 100
2, 212304, Note_on_c, 0, 67, 79
2, 212336, Note_off_c, 0, 67, 100
2, 212352, Note_on_c, 0, 65, 79
2, 212384, Note_off_c, 0, 65, 100
2, 212400, Note_on_c, 0, 67, 79
2, 212432, Note_off_c, 0, 67, 100
2, 212448, Note_on_c, 0, 65, 79
2, 212480, Note_off_c, 0, 65, 100
2, 212496, Note_on_c, 0, 67, 79
2, 212528, Note_off_c, 0, 67, 100
2, 212544, Note_on_c, 0, 65, 79
2, 212576, Note_off_c, 0, 65, 100
2, 212592, Note_on_c, 0, 67, 79
2, 212624, Note_off_c, 0, 67, 100
2, 212640, Note_on_c, 0, 65, 79
2, 212672, Note_off_c, 0, 65, 100
2, 212688, Note_on_c, 0, 67, 79
2, 212720, Note_off_c, 0, 67, 100
2, 212736, Note_on_c, 0, 74, 79
2, 212736, Note_on_c, 0, 77, 79
2, 212736, Note_on_c, 0, 65, 79
2, 212768, Note_off_c, 0, 65, 100
2, 212784, Note_on_c, 0, 67, 79
2, 212816, Note_off_c, 0, 67, 100
2, 212832, Note_on_c, 0, 65, 79
2, 212864, Note_off_c, 0, 65, 100
2, 212880, Note_on_c, 0, 67, 79
2, 212912, Note_off_c, 0, 67, 100
2, 212928, Note_on_c, 0, 65, 79
2, 212960, Note_off_c, 0, 65, 100
2, 212976, Note_on_c, 0, 67, 79
2, 212992, Note_off_c, 0, 74, 100
2, 212992, Note_off_c, 0, 77, 100
2, 213008, Note_off_c, 0, 67, 100
2, 213024, Note_on_c, 0, 65, 79
2, 213056, Note_off_c, 0, 65, 100
2, 213072, Note_on_c, 0, 67, 79
2, 213104, Note_off_c, 0, 67, 100
2, 213120, Note_on_c, 0, 79, 79
2, 213120, Note_on_c, 0, 71, 79
2, 213120, Note_on_c, 0, 65, 79
2, 213152, Note_off_c, 0, 65, 100
2, 213168, Note_on_c, 0, 67, 79
2, 213200, Note_off_c, 0, 67, 100
2, 213216, Note_on_c, 0, 65, 79
2, 213248, Note_off_c, 0, 65, 100
2, 213264, Note_on_c, 0, 67, 79
2, 213296, Note_off_c, 0, 67, 100
2, 213312, Note_on_c, 0, 65, 79
2, 213344, Note_off_c, 0, 65, 100
2, 213360, Note_on_c, 0, 67, 79
2, 213376, Note_off_c, 0, 79, 100
2, 213376, Note_off_c, 0, 71, 100
2, 213392, Note_off_c, 0, 67, 100
2, 213408, Note_on_c, 0, 65, 79
2, 213440, Note_off_c, 0, 65, 100
2, 213456, Note_on_c, 0, 67, 79
2, 213488, Note_off_c, 0, 67, 100
2, 213504, Note_on_c, 0, 72, 79
2, 213504, Note_on_c, 0, 77, 79
2, 213504, Note_on_c, 0, 65, 79
2, 213536, Note_off_c, 0, 65, 100
2, 213552, Note_on_c, 0, 67, 79
2, 213584, Note_off_c, 0, 67, 100
2, 213600, Note_on_c, 0, 65, 79
2, 213632, Note_off_c, 0, 77, 100
2, 213632, Note_off_c, 0, 65, 100
2, 213648, Note_on_c, 0, 67, 79
2, 213680, Note_off_c, 0, 67, 100
2, 213696, Note_on_c, 0, 75, 79
2, 213696, Note_on_c, 0, 65, 79
2, 213728, Note_off_c, 0, 65, 100
2, 213744, Note_on_c, 0, 67, 79
2, 213760, Note_off_c, 0, 72, 100
2, 213776, Note_off_c, 0, 67, 100
2, 213792, Note_on_c, 0, 65, 79
2, 213824, Note_off_c, 0, 75, 100
2, 213824, Note_off_c, 0, 65, 100
2, 213840, Note_on_c, 0, 67, 79
2, 213872, Note_off_c, 0, 67, 100
2, 213888, Note_on_c, 0, 74, 79
2, 213888, Note_on_c, 0, 65, 79
2, 213920, Note_off_c, 0, 65, 100
2, 213936, Note_on_c, 0, 67, 79
2, 213968, Note_off_c, 0, 67, 100
2, 213984, Note_on_c, 0, 65, 79
2, 214016, Note_off_c, 0, 74, 100
2, 214016, Note_off_c, 0, 65, 100
2, 214032, Note_on_c, 0, 67, 79
2, 214064, Note_off_c, 0, 67, 100
2, 214080, Note_on_c, 0, 72, 79
2, 214080, Note_on_c, 0, 65, 79
2, 214112, Note_off_c, 0, 65, 100
2, 214128, Note_on_c, 0, 67, 79
2, 214160, Note_off_c, 0, 67, 100
2, 214176, Note_on_c, 0, 65, 79
2, 214208, Note_off_c, 0, 72, 100
2, 214208, Note_off_c, 0, 65, 100
2, 214224, Note_on_c, 0, 67, 79
2, 214256, Note_off_c, 0, 67, 100
2, 214272, Note_on_c, 0, 75, 79
2, 214272, Note_on_c, 0, 72, 79
2, 214272, Note_on_c, 0, 65, 79
2, 214304, Note_off_c, 0, 65, 100
2, 214320, Note_on_c, 0, 67, 79
2, 214352, Note_off_c, 0, 67, 100
2, 214368, Note_on_c, 0, 65, 79
2, 214400, Note_off_c, 0, 65, 100
2, 214416, Note_on_c, 0, 67, 79
2, 214448, Note_off_c, 0, 67, 100
2, 214464, Note_on_c, 0, 65, 79
2, 214496, Note_off_c, 0, 65, 100
2, 214512, Note_on_c, 0, 67, 79
2, 214528, Note_off_c, 0, 75, 100
2, 214528, Note_off_c, 0, 72, 100
2, 214544, Note_off_c, 0, 67, 100
2, 214560, Note_on_c, 0, 65, 79
2, 214592, Note_off_c, 0, 65, 100
2, 214608, Note_on_c, 0, 67, 79
2, 214640, Note_off_c, 0, 67, 100
2, 214656, Note_on_c, 0, 69, 79
2, 214656, Note_on_c, 0, 77, 79
2, 214656, Note_on_c, 0, 65, 79
2, 214688, Note_off_c, 0, 65, 100
2, 214704, Note_on_c, 0, 67, 79
2, 214736, Note_off_c, 0, 67, 100
2, 214752, Note_on_c, 0, 65, 79
2, 214784, Note_off_c, 0, 65, 100
2, 214800, Note_on_c, 0, 67, 79
2, 214832, Note_off_c, 0, 67, 100
2, 214848, Note_on_c, 0, 65, 79
2, 214880, Note_off_c, 0, 65, 100
2, 214896, Note_on_c, 0, 67, 79
2, 214912, Note_off_c, 0, 69, 100
2, 214912, Note_off_c, 0, 77, 100
2, 214928, Note_off_c, 0, 67, 100
2, 214944, Note_on_c, 0, 65, 79
2, 214976, Note_off_c, 0, 65, 100
2, 214992, Note_on_c, 0, 67, 79
2, 215024, Note_off_c, 0, 67, 100
2, 215040, Note_on_c, 0, 75, 79
2, 215040, Note_on_c, 0, 70, 79
2, 215040, Note_on_c, 0, 65, 79
2, 215072, Note_off_c, 0, 65, 100
2, 215088, Note_on_c, 0, 67, 79
2, 215120, Note_off_c, 0, 67, 100
2, 215136, Note_on_c, 0, 65, 79
2, 215168, Note_off_c, 0, 75, 100
2, 215168, Note_off_c, 0, 65, 100
2, 215184, Note_on_c, 0, 67, 79
2, 215216, Note_off_c, 0, 67, 100
2, 215232, Note_on_c, 0, 74, 79
2, 215232, Note_on_c, 0, 65, 79
2, 215264, Note_off_c, 0, 65, 100
2, 215280, Note_on_c, 0, 67, 79
2, 215296, Note_off_c, 0, 70, 100
2, 215312, Note_off_c, 0, 67, 100
2, 215328, Note_on_c, 0, 65, 79
2, 215360, Note_off_c, 0, 74, 100
2, 215360, Note_off_c, 0, 65, 100
2, 215376, Note_on_c, 0, 67, 79
2, 215408, Note_off_c, 0, 67, 100
2, 215424, Note_on_c, 0, 72, 79
2, 215424, Note_on_c, 0, 65, 79
2, 215456, Note_off_c, 0, 65, 100
2, 215472, Note_on_c, 0, 67, 79
2, 215504, Note_off_c, 0, 67, 100
2, 215520, Note_on_c, 0, 65, 79
2, 215552, Note_off_c, 0, 72, 100
2, 215552, Note_off_c, 0, 65, 100
2, 215568, Note_on_c, 0, 67, 79
2, 215600, Note_off_c, 0, 67, 100
2, 215616, Note_on_c, 0, 70, 79
2, 215616, Note_on_c, 0, 65, 79
2, 215648, Note_off_c, 0, 65, 100
2, 215664, Note_on_c, 0, 67, 79
2, 215696, Note_off_c, 0, 67, 100
2, 215712, Note_on_c, 0, 65, 79
2, 215744, Note_off_c, 0, 70, 100
2, 215744, Note_off_c, 0, 65, 100
2, 215760, Note_on_c, 0, 67, 79
2, 215792, Note_off_c, 0, 67, 100
2, 215808, Note_on_c, 0, 74, 79
2, 215808, Note_on_c, 0, 77, 79
2, 215808, Note_on_c, 0, 65, 79
2, 215840, Note_off_c, 0, 65, 100
2, 215856, Note_on_c, 0, 67, 79
2, 215888, Note_off_c, 0, 67, 100
2, 215904, Note_on_c, 0, 65, 79
2, 215936, Note_off_c, 0, 65, 100
2, 215952, Note_on_c, 0, 67, 79
2, 215984, Note_off_c, 0, 67, 100
2, 216000, Note_on_c, 0, 65, 79
2, 216032, Note_off_c, 0, 65, 100
2, 216048, Note_on_c, 0, 67, 79
2, 216064, Note_off_c, 0, 74, 100
2, 216064, Note_off_c, 0, 77, 100
2, 216080, Note_off_c, 0, 67, 100
2, 216096, Note_on_c, 0, 65, 79
2, 216128, Note_off_c, 0, 65, 100
2, 216144, Note_on_c, 0, 67, 79
2, 216176, Note_off_c, 0, 67, 100
2, 216192, Note_on_c, 0, 70, 79
2, 216192, Note_on_c, 0, 82, 79
2, 216192, Note_on_c, 0, 65, 79
2, 216224, Note_off_c, 0, 65, 100
2, 216240, Note_on_c, 0, 67, 79
2, 216272, Note_off_c, 0, 67, 100
2, 216288, Note_on_c, 0, 65, 79
2, 216320, Note_off_c, 0, 65, 100
2, 216336, Note_on_c, 0, 67, 79
2, 216368, Note_off_c, 0, 67, 100
2, 216384, Note_on_c, 0, 65, 79
2, 216416, Note_off_c, 0, 65, 100
2, 216432, Note_on_c, 0, 67, 79
2, 216448, Note_off_c, 0, 70, 100
2, 216448, Note_off_c, 0, 82, 100
2, 216464, Note_off_c, 0, 67, 100
2, 216480, Note_on_c, 0, 65, 79
2, 216512, Note_off_c, 0, 65, 100
2, 216528, Note_on_c, 0, 67, 79
2, 216560, Note_off_c, 0, 67, 100
2, 216576, Note_on_c, 0, 72, 79
2, 216576, Note_on_c, 0, 65, 79
2, 216608, Note_off_c, 0, 65, 100
2, 216624, Note_on_c, 0, 67, 79
2, 216656, Note_off_c, 0, 67, 100
2, 216672, Note_on_c, 0, 65, 79
2, 216704, Note_off_c, 0, 72, 100
2, 216704, Note_off_c, 0, 65, 100
2, 216720, Note_on_c, 0, 67, 79
2, 216752, Note_off_c, 0, 67, 100
2, 216768, Note_on_c, 0, 81, 79
2, 216768, Note_on_c, 0, 65, 79
2, 216800, Note_off_c, 0, 65, 100
2, 216816, Note_on_c, 0, 67, 79
2, 216848, Note_off_c, 0, 67, 100
2, 216864, Note_on_c, 0, 65, 79
2, 216896, Note_off_c, 0, 81, 100
2, 216896, Note_off_c, 0, 65, 100
2, 216912, Note_on_c, 0, 67, 79
2, 216944, Note_off_c, 0, 67, 100
2, 216960, Note_on_c, 0, 70, 79
2, 216960, Note_on_c, 0, 65, 79
2, 216992, Note_off_c, 0, 65, 100
2, 217008, Note_on_c, 0, 67, 79
2, 217040, Note_off_c, 0, 67, 100
2, 217056, Note_on_c, 0, 65, 79
2, 217088, Note_off_c, 0, 70, 100
2, 217088, Note_off_c, 0, 65, 100
2, 217104, Note_on_c, 0, 67, 79
2, 217136, Note_off_c, 0, 67, 100
2, 217152, Note_on_c, 0, 79, 79
2, 217152, Note_on_c, 0, 65, 79
2, 217184, Note_off_c, 0, 65, 100
2, 217200, Note_on_c, 0, 67, 79
2, 217232, Note_off_c, 0, 67, 100
2, 217248, Note_on_c, 0, 65, 79
2, 217280, Note_off_c, 0, 79, 100
2, 217280, Note_off_c, 0, 65, 100
2, 217296, Note_on_c, 0, 67, 79
2, 217328, Note_off_c, 0, 67, 100
2, 217344, Note_on_c, 0, 69, 79
2, 217344, Note_on_c, 0, 65, 79
2, 217376, Note_off_c, 0, 65, 100
2, 217392, Note_on_c, 0, 67, 79
2, 217424, Note_off_c, 0, 67, 100
2, 217440, Note_on_c, 0, 65, 79
2, 217472, Note_off_c, 0, 69, 100
2, 217472, Note_off_c, 0, 65, 100
2, 217504, Note_on_c, 0, 67, 79
2, 217536, Note_off_c, 0, 67, 100
2, 217536, Note_on_c, 0, 77, 79
2, 217536, Note_on_c, 0, 65, 79
2, 217568, Note_off_c, 0, 65, 100
2, 217584, Note_on_c, 0, 67, 79
2, 217616, Note_off_c, 0, 67, 100
2, 217632, Note_on_c, 0, 65, 79
2, 217664, Note_off_c, 0, 77, 100
2, 217664, Note_off_c, 0, 65, 100
2, 217680, Note_on_c, 0, 67, 79
2, 217712, Note_off_c, 0, 67, 100
2, 217728, Note_on_c, 0, 67, 79
2, 217728, Note_on_c, 0, 65, 79
2, 217760, Note_off_c, 0, 65, 100
2, 217776, Note_on_c, 0, 67, 79
2, 217808, Note_off_c, 0, 67, 100
2, 217824, Note_on_c, 0, 65, 79
2, 217856, Note_off_c, 0, 67, 100
2, 217856, Note_off_c, 0, 65, 100
2, 217872, Note_on_c, 0, 67, 79
2, 217904, Note_off_c, 0, 67, 100
2, 217920, Note_on_c, 0, 76, 79
2, 217920, Note_on_c, 0, 65, 79
2, 217952, Note_off_c, 0, 65, 100
2, 217968, Note_on_c, 0, 67, 79
2, 218000, Note_off_c, 0, 67, 100
2, 218016, Note_on_c, 0, 67, 79
2, 218048, Note_off_c, 0, 76, 100
2, 218108, Note_off_c, 0, 67, 64
2, 218112, Note_on_c, 0, 65, 90
2, 218124, Note_on_c, 0, 69, 90
2, 218140, Note_on_c, 0, 72, 90
2, 218156, Note_on_c, 0, 77, 90
2, 218160, Note_off_c, 0, 65, 100
2, 218240, Note_on_c, 0, 67, 90
2, 218288, Note_off_c, 0, 67, 100
2, 218368, Note_on_c, 0, 65, 90
2, 218380, Note_off_c, 0, 69, 100
2, 218396, Note_off_c, 0, 72, 100
2, 218412, Note_off_c, 0, 77, 100
2, 218416, Note_off_c, 0, 65, 100
2, 218496, Note_on_c, 0, 63, 90
2, 218544, Note_off_c, 0, 63, 100
2, 218624, Note_on_c, 0, 65, 90
2, 218672, Note_off_c, 0, 65, 100
2, 218752, Note_on_c, 0, 63, 90
2, 218800, Note_off_c, 0, 63, 100
2, 218880, Note_on_c, 0, 62, 90
2, 218928, Note_off_c, 0, 62, 100
2, 219008, Note_on_c, 0, 63, 90
2, 219056, Note_off_c, 0, 63, 100
2, 219136, Note_on_c, 0, 62, 90
2, 219184, Note_off_c, 0, 62, 100
2, 219264, Note_on_c, 0, 60, 90
2, 219312, Note_off_c, 0, 60, 100
2, 219392, Note_on_c, 0, 62, 90
2, 219440, Note_off_c, 0, 62, 100
2, 219520, Note_on_c, 0, 60, 90
2, 219568, Note_off_c, 0, 60, 100
2, 219648, Note_on_c, 0, 58, 90
2, 219648, Note_on_c, 0, 79, 90
2, 219692, Note_off_c, 0, 79, 64
2, 219696, Note_off_c, 0, 58, 100
2, 219696, Note_on_c, 0, 77, 90
2, 219740, Note_off_c, 0, 77, 64
2, 219744, Note_on_c, 0, 79, 90
2, 219776, Note_on_c, 0, 62, 90
2, 219788, Note_off_c, 0, 79, 64
2, 219792, Note_on_c, 0, 77, 90
2, 219824, Note_off_c, 0, 62, 100
2, 219836, Note_off_c, 0, 77, 64
2, 219840, Note_on_c, 0, 75, 90
2, 219904, Note_on_c, 0, 65, 90
2, 219932, Note_off_c, 0, 75, 64
2, 219936, Note_on_c, 0, 77, 90
2, 219952, Note_off_c, 0, 65, 100
2, 220028, Note_off_c, 0, 77, 64
2, 220032, Note_on_c, 0, 58, 90
2, 220032, Note_on_c, 0, 82, 90
2, 220080, Note_off_c, 0, 58, 100
2, 220160, Note_on_c, 0, 62, 90
2, 220208, Note_off_c, 0, 62, 100
2, 220288, Note_on_c, 0, 65, 90
2, 220316, Note_off_c, 0, 82, 64
2, 220320, Note_on_c, 0, 74, 90
2, 220336, Note_off_c, 0, 65, 100
2, 220384, Note_off_c, 0, 74, 100
2, 220416, Note_on_c, 0, 77, 90
2, 220416, Note_on_c, 0, 57, 90
2, 220448, Note_off_c, 0, 77, 100
2, 220464, Note_off_c, 0, 57, 100
2, 220464, Note_on_c, 0, 75, 90
2, 220544, Note_on_c, 0, 60, 90
2, 220592, Note_off_c, 0, 60, 100
2, 220672, Note_on_c, 0, 65, 90
2, 220720, Note_off_c, 0, 75, 100
2, 220720, Note_off_c, 0, 65, 100
2, 220800, Note_on_c, 0, 72, 90
2, 220800, Note_on_c, 0, 57, 90
2, 220848, Note_off_c, 0, 57, 100
2, 220928, Note_on_c, 0, 60, 90
2, 220976, Note_off_c, 0, 60, 100
2, 221056, Note_off_c, 0, 72, 100
2, 221056, Note_on_c, 0, 65, 90
2, 221104, Note_off_c, 0, 65, 100
2, 221184, Note_on_c, 0, 84, 90
2, 221184, Note_on_c, 0, 60, 90
2, 221216, Note_off_c, 0, 84, 100
2, 221232, Note_off_c, 0, 60, 100
2, 221232, Note_on_c, 0, 86, 90
2, 221264, Note_off_c, 0, 86, 100
2, 221280, Note_on_c, 0, 87, 90
2, 221312, Note_on_c, 0, 63, 90
2, 221360, Note_off_c, 0, 63, 100
2, 221440, Note_on_c, 0, 65, 90
2, 221488, Note_off_c, 0, 65, 100
2, 221536, Note_off_c, 0, 87, 100
2, 221568, Note_on_c, 0, 86, 90
2, 221568, Note_on_c, 0, 60, 90
2, 221616, Note_off_c, 0, 60, 100
2, 221632, Note_off_c, 0, 86, 100
2, 221664, Note_on_c, 0, 84, 90
2, 221696, Note_on_c, 0, 65, 90
2, 221728, Note_off_c, 0, 84, 100
2, 221744, Note_off_c, 0, 65, 100
2, 221760, Note_on_c, 0, 82, 90
2, 221824, Note_off_c, 0, 82, 100
2, 221824, Note_on_c, 0, 65, 90
2, 221856, Note_on_c, 0, 81, 90
2, 221872, Note_off_c, 0, 65, 100
2, 221920, Note_off_c, 0, 81, 100
2, 221952, Note_on_c, 0, 82, 90
2, 221952, Note_on_c, 0, 60, 90
2, 222000, Note_off_c, 0, 60, 100
2, 222080, Note_on_c, 0, 65, 90
2, 222128, Note_off_c, 0, 65, 100
2, 222208, Note_off_c, 0, 82, 100
2, 222208, Note_on_c, 0, 70, 90
2, 222256, Note_off_c, 0, 70, 100
2, 222336, Note_on_c, 0, 86, 90
2, 222336, Note_on_c, 0, 65, 90
2, 222384, Note_off_c, 0, 65, 100
2, 222464, Note_off_c, 0, 86, 100
2, 222464, Note_on_c, 0, 62, 90
2, 222512, Note_off_c, 0, 62, 100
2, 222592, Note_on_c, 0, 65, 90
2, 222640, Note_off_c, 0, 65, 100
2, 222720, Note_on_c, 0, 79, 90
2, 222752, Note_off_c, 0, 79, 100
2, 222768, Note_on_c, 0, 77, 90
2, 222800, Note_off_c, 0, 77, 100
2, 222816, Note_on_c, 0, 79, 90
2, 222848, Note_off_c, 0, 79, 100
2, 222864, Note_on_c, 0, 77, 90
2, 222896, Note_off_c, 0, 77, 100
2, 222912, Note_on_c, 0, 75, 90
2, 223004, Note_off_c, 0, 75, 64
2, 223008, Note_on_c, 0, 77, 90
2, 223100, Note_off_c, 0, 77, 64
2, 223104, Note_on_c, 0, 82, 90
2, 223296, Note_off_c, 0, 82, 100
2, 223392, Note_on_c, 0, 74, 90
2, 223456, Note_off_c, 0, 74, 100
2, 223488, Note_on_c, 0, 77, 90
2, 223520, Note_off_c, 0, 77, 100
2, 223536, Note_on_c, 0, 75, 90
2, 223792, Note_off_c, 0, 75, 100
2, 223872, Note_on_c, 0, 72, 90
2, 224128, Note_off_c, 0, 72, 100
2, 224256, Note_on_c, 0, 72, 90
2, 224288, Note_off_c, 0, 72, 100
2, 224304, Note_on_c, 0, 74, 90
2, 224336, Note_off_c, 0, 74, 100
2, 224352, Note_on_c, 0, 75, 90
2, 224608, Note_off_c, 0, 75, 100
2, 224640, Note_on_c, 0, 74, 90
2, 224704, Note_off_c, 0, 74, 100
2, 224736, Note_on_c, 0, 72, 90
2, 224800, Note_off_c, 0, 72, 100
2, 224816, Note_on_c, 0, 70, 90
2, 224880, Note_off_c, 0, 70, 100
2, 224928, Note_on_c, 0, 69, 90
2, 224992, Note_off_c, 0, 69, 100
2, 225024, Note_on_c, 0, 70, 90
2, 225280, Note_off_c, 0, 70, 100
2, 225408, Note_on_c, 0, 74, 90
2, 225664, Note_off_c, 0, 74, 100
2, 225920, Note_on_c, 0, 77, 60
2, 225968, Note_off_c, 0, 77, 100
2, 226048, Note_on_c, 0, 75, 60
2, 226096, Note_off_c, 0, 75, 100
2, 226176, Note_on_c, 0, 74, 60
2, 226224, Note_off_c, 0, 74, 100
2, 226304, Note_on_c, 0, 74, 60
2, 226352, Note_off_c, 0, 74, 100
2, 226432, Note_on_c, 0, 72, 60
2, 226480, Note_off_c, 0, 72, 100
2, 226560, Note_on_c, 0, 70, 60
2, 226608, Note_off_c, 0, 70, 100
2, 226688, Note_on_c, 0, 70, 60
2, 226736, Note_off_c, 0, 70, 100
2, 226816, Note_on_c, 0, 68, 60
2, 226864, Note_off_c, 0, 68, 100
2, 226944, Note_on_c, 0, 67, 60
2, 226992, Note_off_c, 0, 67, 100
2, 227072, Note_on_c, 0, 67, 60
2, 227120, Note_off_c, 0, 67, 100
2, 227200, Note_on_c, 0, 66, 60
2, 227248, Note_off_c, 0, 66, 100
2, 227328, Note_on_c, 0, 67, 69
2, 227456, Note_off_c, 0, 67, 100
2, 227520, Note_on_c, 0, 69, 70
2, 227648, Note_off_c, 0, 69, 100
2, 227712, Note_on_c, 0, 70, 73
2, 227840, Note_off_c, 0, 70, 100
2, 227904, Note_on_c, 0, 71, 76
2, 228032, Note_off_c, 0, 71, 100
2, 228096, Note_on_c, 0, 72, 79
2, 228224, Note_off_c, 0, 72, 100
2, 228288, Note_on_c, 0, 74, 81
2, 228416, Note_off_c, 0, 74, 100
2, 228480, Note_on_c, 0, 75, 84
2, 228480, Note_on_c, 0, 63, 84
2, 228608, Note_off_c, 0, 75, 100
2, 228672, Note_on_c, 0, 79, 87
2, 228736, Note_off_c, 0, 63, 100
2, 228800, Note_off_c, 0, 79, 100
2, 228864, Note_on_c, 0, 79, 90
2, 228864, Note_on_c, 0, 62, 90
2, 228992, Note_off_c, 0, 79, 100
2, 229056, Note_on_c, 0, 77, 90
2, 229120, Note_off_c, 0, 62, 100
2, 229184, Note_off_c, 0, 77, 100
2, 229248, Note_on_c, 0, 67, 90
2, 229248, Note_on_c, 0, 75, 90
2, 229308, Note_off_c, 0, 75, 64
2, 229312, Note_on_c, 0, 77, 90
2, 229372, Note_off_c, 0, 77, 64
2, 229376, Note_on_c, 0, 75, 90
2, 229436, Note_off_c, 0, 75, 64
2, 229440, Note_on_c, 0, 74, 90
2, 229504, Note_off_c, 0, 67, 100
2, 229568, Note_off_c, 0, 74, 100
2, 229632, Note_on_c, 0, 74, 90
2, 229632, Note_on_c, 0, 63, 90
2, 229760, Note_off_c, 0, 74, 100
2, 229824, Note_on_c, 0, 72, 90
2, 229888, Note_off_c, 0, 63, 100
2, 229952, Note_off_c, 0, 72, 100
2, 230016, Note_on_c, 0, 65, 90
2, 230016, Note_on_c, 0, 70, 90
2, 230076, Note_off_c, 0, 70, 64
2, 230080, Note_on_c, 0, 72, 90
2, 230140, Note_off_c, 0, 72, 64
2, 230144, Note_on_c, 0, 70, 90
2, 230204, Note_off_c, 0, 70, 64
2, 230208, Note_on_c, 0, 69, 90
2, 230272, Note_off_c, 0, 65, 100
2, 230336, Note_off_c, 0, 69, 100
2, 230400, Note_on_c, 0, 62, 60
2, 230528, Note_on_c, 0, 77, 60
2, 230576, Note_off_c, 0, 77, 100
2, 230656, Note_off_c, 0, 62, 100
2, 230656, Note_on_c, 0, 75, 60
2, 230704, Note_off_c, 0, 75, 100
2, 230784, Note_on_c, 0, 74, 60
2, 230832, Note_off_c, 0, 74, 100
2, 230912, Note_on_c, 0, 74, 60
2, 230960, Note_off_c, 0, 74, 100
2, 231040, Note_on_c, 0, 72, 60
2, 231088, Note_off_c, 0, 72, 100
2, 231168, Note_on_c, 0, 70, 60
2, 231216, Note_off_c, 0, 70, 100
2, 231296, Note_on_c, 0, 70, 60
2, 231344, Note_off_c, 0, 70, 100
2, 231424, Note_on_c, 0, 68, 60
2, 231472, Note_off_c, 0, 68, 100
2, 231552, Note_on_c, 0, 67, 60
2, 231600, Note_off_c, 0, 67, 100
2, 231680, Note_on_c, 0, 67, 60
2, 231728, Note_off_c, 0, 67, 100
2, 231808, Note_on_c, 0, 66, 60
2, 231856, Note_off_c, 0, 66, 100
2, 231936, Note_on_c, 0, 67, 60
2, 231936, Note_on_c, 0, 63, 60
2, 232064, Note_off_c, 0, 67, 100
2, 232128, Note_on_c, 0, 69, 60
2, 232192, Note_off_c, 0, 63, 100
2, 232256, Note_off_c, 0, 69, 100
2, 232320, Note_on_c, 0, 70, 60
2, 232448, Note_off_c, 0, 70, 100
2, 232512, Note_on_c, 0, 71, 60
2, 232640, Note_off_c, 0, 71, 100
2, 232704, Note_on_c, 0, 72, 69
2, 232832, Note_off_c, 0, 72, 100
2, 232896, Note_on_c, 0, 74, 69
2, 232896, Note_on_c, 0, 58, 69
2, 233024, Note_off_c, 0, 74, 100
2, 233024, Note_off_c, 0, 58, 100
2, 233088, Note_on_c, 0, 75, 70
2, 233088, Note_on_c, 0, 60, 70
2, 233216, Note_off_c, 0, 75, 100
2, 233216, Note_off_c, 0, 60, 100
2, 233280, Note_on_c, 0, 77, 72
2, 233280, Note_on_c, 0, 62, 72
2, 233408, Note_off_c, 0, 77, 100
2, 233408, Note_off_c, 0, 62, 100
2, 233472, Note_on_c, 0, 79, 72
2, 233472, Note_on_c, 0, 63, 72
2, 233600, Note_off_c, 0, 79, 100
2, 233600, Note_off_c, 0, 63, 100
2, 233664, Note_on_c, 0, 81, 73
2, 233664, Note_on_c, 0, 65, 73
2, 233792, Note_off_c, 0, 81, 100
2, 233792, Note_off_c, 0, 65, 100
2, 233856, Note_on_c, 0, 82, 75
2, 233856, Note_on_c, 0, 67, 75
2, 233984, Note_off_c, 0, 82, 100
2, 233984, Note_off_c, 0, 67, 100
2, 234048, Note_on_c, 0, 81, 75
2, 234048, Note_on_c, 0, 66, 75
2, 234176, Note_off_c, 0, 81, 100
2, 234176, Note_off_c, 0, 66, 100
2, 234240, Note_on_c, 0, 82, 76
2, 234240, Note_on_c, 0, 67, 76
2, 234368, Note_off_c, 0, 82, 100
2, 234368, Note_off_c, 0, 67, 100
2, 234432, Note_on_c, 0, 81, 78
2, 234432, Note_on_c, 0, 65, 78
2, 234560, Note_off_c, 0, 81, 100
2, 234560, Note_off_c, 0, 65, 100
2, 234624, Note_on_c, 0, 82, 79
2, 234624, Note_on_c, 0, 67, 79
2, 234752, Note_off_c, 0, 82, 100
2, 234752, Note_off_c, 0, 67, 100
2, 234816, Note_on_c, 0, 81, 79
2, 234816, Note_on_c, 0, 65, 79
2, 234944, Note_off_c, 0, 81, 100
2, 234944, Note_off_c, 0, 65, 100
2, 235008, Note_on_c, 0, 82, 81
2, 235008, Note_on_c, 0, 67, 81
2, 235136, Note_off_c, 0, 82, 100
2, 235136, Note_off_c, 0, 67, 100
2, 235200, Note_on_c, 0, 84, 82
2, 235200, Note_on_c, 0, 69, 82
2, 235328, Note_off_c, 0, 84, 100
2, 235328, Note_off_c, 0, 69, 100
2, 235392, Note_on_c, 0, 86, 82
2, 235392, Note_on_c, 0, 70, 82
2, 235520, Note_off_c, 0, 86, 100
2, 235520, Note_off_c, 0, 70, 100
2, 235584, Note_on_c, 0, 85, 84
2, 235584, Note_on_c, 0, 69, 84
2, 235712, Note_off_c, 0, 85, 100
2, 235712, Note_off_c, 0, 69, 100
2, 235776, Note_on_c, 0, 86, 85
2, 235776, Note_on_c, 0, 70, 85
2, 235904, Note_off_c, 0, 86, 100
2, 235904, Note_off_c, 0, 70, 100
2, 235968, Note_on_c, 0, 85, 85
2, 235968, Note_on_c, 0, 69, 85
2, 236096, Note_off_c, 0, 85, 100
2, 236096, Note_off_c, 0, 69, 100
2, 236160, Note_on_c, 0, 86, 87
2, 236160, Note_on_c, 0, 70, 87
2, 236288, Note_off_c, 0, 86, 100
2, 236288, Note_off_c, 0, 70, 100
2, 236352, Note_on_c, 0, 85, 88
2, 236352, Note_on_c, 0, 69, 88
2, 236480, Note_off_c, 0, 85, 100
2, 236480, Note_off_c, 0, 69, 100
2, 236544, Note_on_c, 0, 86, 90
2, 236544, Note_on_c, 0, 70, 90
2, 236672, Note_off_c, 0, 86, 100
2, 236736, Note_on_c, 0, 82, 90
2, 236800, Note_off_c, 0, 70, 100
2, 236864, Note_off_c, 0, 82, 100
2, 236928, Note_on_c, 0, 77, 90
2, 236928, Note_on_c, 0, 62, 90
2, 236928, Note_on_c, 0, 70, 90
2, 237056, Note_off_c, 0, 77, 100
2, 237120, Note_on_c, 0, 74, 90
2, 237184, Note_off_c, 0, 62, 100
2, 237248, Note_off_c, 0, 74, 100
2, 237312, Note_on_c, 0, 72, 90
2, 237312, Note_on_c, 0, 63, 90
2, 237344, Note_off_c, 0, 72, 100
2, 237360, Note_on_c, 0, 74, 90
2, 237392, Note_off_c, 0, 74, 100
2, 237408, Note_on_c, 0, 72, 90
2, 237440, Note_off_c, 0, 70, 100
2, 237440, Note_off_c, 0, 72, 100
2, 237456, Note_on_c, 0, 74, 90
2, 237488, Note_off_c, 0, 74, 100
2, 237504, Note_on_c, 0, 72, 90
2, 237536, Note_off_c, 0, 72, 100
2, 237552, Note_on_c, 0, 74, 90
2, 237568, Note_off_c, 0, 63, 100
2, 237584, Note_off_c, 0, 74, 100
2, 237600, Note_on_c, 0, 72, 90
2, 237632, Note_off_c, 0, 72, 100
2, 237648, Note_on_c, 0, 74, 90
2, 237680, Note_off_c, 0, 74, 100
2, 237696, Note_on_c, 0, 72, 90
2, 237696, Note_on_c, 0, 69, 90
2, 237696, Note_on_c, 0, 65, 90
2, 237728, Note_off_c, 0, 72, 100
2, 237744, Note_on_c, 0, 74, 90
2, 237776, Note_off_c, 0, 74, 100
2, 237792, Note_on_c, 0, 72, 90
2, 237824, Note_off_c, 0, 72, 100
2, 237840, Note_on_c, 0, 74, 90
2, 237872, Note_off_c, 0, 74, 100
2, 237888, Note_on_c, 0, 70, 90
2, 237952, Note_off_c, 0, 69, 100
2, 237952, Note_off_c, 0, 65, 100
2, 237980, Note_off_c, 0, 70, 64
2, 237984, Note_on_c, 0, 72, 90
2, 238076, Note_off_c, 0, 72, 64
2, 238080, Note_on_c, 0, 70, 90
2, 238272, Note_on_c, 0, 65, 90
2, 238336, Note_off_c, 0, 70, 100
2, 238400, Note_off_c, 0, 65, 100
2, 238464, Note_on_c, 0, 80, 60
2, 238464, Note_on_c, 0, 62, 60
2, 238496, Note_off_c, 0, 80, 100
2, 238512, Note_on_c, 0, 82, 60
2, 238544, Note_off_c, 0, 82, 100
2, 238560, Note_on_c, 0, 80, 60
2, 238592, Note_off_c, 0, 62, 100
2, 238592, Note_off_c, 0, 80, 100
2, 238608, Note_on_c, 0, 82, 60
2, 238640, Note_off_c, 0, 82, 100
2, 238656, Note_on_c, 0, 80, 60
2, 238656, Note_on_c, 0, 58, 60
2, 238688, Note_off_c, 0, 80, 100
2, 238704, Note_on_c, 0, 82, 60
2, 238736, Note_off_c, 0, 82, 100
2, 238752, Note_on_c, 0, 80, 60
2, 238784, Note_off_c, 0, 58, 100
2, 238784, Note_off_c, 0, 80, 100
2, 238800, Note_on_c, 0, 82, 60
2, 238832, Note_off_c, 0, 82, 100
2, 238848, Note_on_c, 0, 80, 60
2, 238848, Note_on_c, 0, 62, 60
2, 238880, Note_off_c, 0, 80, 100
2, 238896, Note_on_c, 0, 82, 60
2, 238928, Note_off_c, 0, 82, 100
2, 238944, Note_on_c, 0, 80, 60
2, 238976, Note_off_c, 0, 62, 100
2, 238976, Note_off_c, 0, 80, 100
2, 238992, Note_on_c, 0, 82, 60
2, 239024, Note_off_c, 0, 82, 100
2, 239040, Note_on_c, 0, 80, 60
2, 239040, Note_on_c, 0, 58, 60
2, 239072, Note_off_c, 0, 80, 100
2, 239088, Note_on_c, 0, 82, 60
2, 239120, Note_off_c, 0, 82, 100
2, 239136, Note_on_c, 0, 80, 60
2, 239168, Note_off_c, 0, 58, 100
2, 239168, Note_off_c, 0, 80, 100
2, 239184, Note_on_c, 0, 82, 60
2, 239216, Note_off_c, 0, 82, 100
2, 239232, Note_on_c, 0, 80, 60
2, 239232, Note_on_c, 0, 62, 60
2, 239264, Note_off_c, 0, 80, 100
2, 239280, Note_on_c, 0, 82, 60
2, 239312, Note_off_c, 0, 82, 100
2, 239328, Note_on_c, 0, 80, 60
2, 239360, Note_off_c, 0, 62, 100
2, 239360, Note_off_c, 0, 80, 100
2, 239376, Note_on_c, 0, 82, 60
2, 239408, Note_off_c, 0, 82, 100
2, 239424, Note_on_c, 0, 58, 60
2, 239424, Note_on_c, 0, 79, 60
2, 239516, Note_off_c, 0, 79, 64
2, 239520, Note_on_c, 0, 80, 60
2, 239552, Note_off_c, 0, 58, 100
2, 239612, Note_off_c, 0, 80, 64
2, 239616, Note_on_c, 0, 79, 90
2, 239616, Note_on_c, 0, 63, 90
2, 239744, Note_off_c, 0, 63, 100
2, 239808, Note_on_c, 0, 58, 60
2, 239872, Note_off_c, 0, 79, 100
2, 239936, Note_off_c, 0, 58, 100
2, 240000, Note_on_c, 0, 81, 60
2, 240000, Note_on_c, 0, 60, 60
2, 240032, Note_off_c, 0, 81, 100
2, 240048, Note_on_c, 0, 82, 60
2, 240080, Note_off_c, 0, 82, 100
2, 240096, Note_on_c, 0, 81, 60
2, 240128, Note_off_c, 0, 60, 100
2, 240128, Note_off_c, 0, 81, 100
2, 240144, Note_on_c, 0, 82, 60
2, 240176, Note_off_c, 0, 82, 100
2, 240192, Note_on_c, 0, 81, 60
2, 240192, Note_on_c, 0, 58, 60
2, 240224, Note_off_c, 0, 81, 100
2, 240240, Note_on_c, 0, 82, 60
2, 240272, Note_off_c, 0, 82, 100
2, 240288, Note_on_c, 0, 81, 60
2, 240320, Note_off_c, 0, 58, 100
2, 240320, Note_off_c, 0, 81, 100
2, 240336, Note_on_c, 0, 82, 60
2, 240368, Note_off_c, 0, 82, 100
2, 240384, Note_on_c, 0, 81, 60
2, 240384, Note_on_c, 0, 60, 60
2, 240416, Note_off_c, 0, 81, 100
2, 240432, Note_on_c, 0, 82, 60
2, 240464, Note_off_c, 0, 82, 100
2, 240480, Note_on_c, 0, 81, 60
2, 240512, Note_off_c, 0, 60, 100
2, 240512, Note_off_c, 0, 81, 100
2, 240528, Note_on_c, 0, 82, 60
2, 240560, Note_off_c, 0, 82, 100
2, 240576, Note_on_c, 0, 81, 60
2, 240576, Note_on_c, 0, 58, 60
2, 240608, Note_off_c, 0, 81, 100
2, 240624, Note_on_c, 0, 82, 60
2, 240656, Note_off_c, 0, 82, 100
2, 240672, Note_on_c, 0, 81, 60
2, 240704, Note_off_c, 0, 58, 100
2, 240704, Note_off_c, 0, 81, 100
2, 240720, Note_on_c, 0, 82, 60
2, 240752, Note_off_c, 0, 82, 100
2, 240768, Note_on_c, 0, 81, 60
2, 240768, Note_on_c, 0, 60, 60
2, 240800, Note_off_c, 0, 81, 100
2, 240816, Note_on_c, 0, 82, 60
2, 240848, Note_off_c, 0, 82, 100
2, 240864, Note_on_c, 0, 81, 60
2, 240896, Note_off_c, 0, 60, 100
2, 240896, Note_off_c, 0, 81, 100
2, 240912, Note_on_c, 0, 82, 60
2, 240944, Note_off_c, 0, 82, 100
2, 240960, Note_on_c, 0, 58, 60
2, 240960, Note_on_c, 0, 79, 60
2, 241052, Note_off_c, 0, 79, 64
2, 241056, Note_on_c, 0, 81, 60
2, 241088, Note_off_c, 0, 58, 100
2, 241148, Note_off_c, 0, 81, 64
2, 241152, Note_on_c, 0, 82, 90
2, 241152, Note_on_c, 0, 62, 90
2, 241280, Note_off_c, 0, 62, 100
2, 241344, Note_on_c, 0, 58, 60
2, 241408, Note_off_c, 0, 82, 100
2, 241472, Note_off_c, 0, 58, 100
2, 241536, Note_on_c, 0, 69, 60
2, 241536, Note_on_c, 0, 62, 60
2, 241568, Note_off_c, 0, 69, 100
2, 241584, Note_on_c, 0, 70, 60
2, 241616, Note_off_c, 0, 70, 100
2, 241632, Note_on_c, 0, 69, 60
2, 241664, Note_off_c, 0, 62, 100
2, 241664, Note_off_c, 0, 69, 100
2, 241680, Note_on_c, 0, 70, 60
2, 241712, Note_off_c, 0, 70, 100
2, 241728, Note_on_c, 0, 69, 60
2, 241728, Note_on_c, 0, 58, 60
2, 241760, Note_off_c, 0, 69, 100
2, 241776, Note_on_c, 0, 70, 60
2, 241808, Note_off_c, 0, 70, 100
2, 241824, Note_on_c, 0, 69, 60
2, 241856, Note_off_c, 0, 58, 100
2, 241856, Note_off_c, 0, 69, 100
2, 241872, Note_on_c, 0, 70, 60
2, 241904, Note_off_c, 0, 70, 100
2, 241920, Note_on_c, 0, 69, 60
2, 241920, Note_on_c, 0, 62, 60
2, 241952, Note_off_c, 0, 69, 100
2, 241968, Note_on_c, 0, 70, 60
2, 242000, Note_off_c, 0, 70, 100
2, 242016, Note_on_c, 0, 69, 60
2, 242048, Note_off_c, 0, 62, 100
2, 242048, Note_off_c, 0, 69, 100
2, 242064, Note_on_c, 0, 70, 60
2, 242096, Note_off_c, 0, 70, 100
2, 242112, Note_on_c, 0, 69, 60
2, 242112, Note_on_c, 0, 58, 60
2, 242144, Note_off_c, 0, 69, 100
2, 242160, Note_on_c, 0, 70, 60
2, 242192, Note_off_c, 0, 70, 100
2, 242208, Note_on_c, 0, 69, 60
2, 242240, Note_off_c, 0, 58, 100
2, 242240, Note_off_c, 0, 69, 100
2, 242256, Note_on_c, 0, 70, 60
2, 242288, Note_off_c, 0, 70, 100
2, 242304, Note_on_c, 0, 69, 60
2, 242304, Note_on_c, 0, 62, 60
2, 242336, Note_off_c, 0, 69, 100
2, 242352, Note_on_c, 0, 70, 60
2, 242384, Note_off_c, 0, 70, 100
2, 242400, Note_on_c, 0, 69, 60
2, 242432, Note_off_c, 0, 62, 100
2, 242432, Note_off_c, 0, 69, 100
2, 242448, Note_on_c, 0, 70, 60
2, 242480, Note_off_c, 0, 70, 100
2, 242496, Note_on_c, 0, 58, 60
2, 242496, Note_on_c, 0, 67, 60
2, 242588, Note_off_c, 0, 67, 64
2, 242592, Note_on_c, 0, 69, 60
2, 242624, Note_off_c, 0, 58, 100
2, 242684, Note_off_c, 0, 69, 64
2, 242688, Note_on_c, 0, 67, 90
2, 242688, Note_on_c, 0, 63, 90
2, 242816, Note_off_c, 0, 63, 100
2, 242880, Note_on_c, 0, 58, 60
2, 242944, Note_off_c, 0, 67, 100
2, 243008, Note_off_c, 0, 58, 100
2, 243072, Note_on_c, 0, 69, 60
2, 243072, Note_on_c, 0, 60, 60
2, 243104, Note_off_c, 0, 69, 100
2, 243120, Note_on_c, 0, 70, 60
2, 243152, Note_off_c, 0, 70, 100
2, 243168, Note_on_c, 0, 69, 60
2, 243200, Note_off_c, 0, 60, 100
2, 243200, Note_off_c, 0, 69, 100
2, 243216, Note_on_c, 0, 70, 60
2, 243248, Note_off_c, 0, 70, 100
2, 243264, Note_on_c, 0, 69, 60
2, 243264, Note_on_c, 0, 58, 60
2, 243296, Note_off_c, 0, 69, 100
2, 243312, Note_on_c, 0, 70, 60
2, 243344, Note_off_c, 0, 70, 100
2, 243360, Note_on_c, 0, 69, 60
2, 243392, Note_off_c, 0, 58, 100
2, 243392, Note_off_c, 0, 69, 100
2, 243408, Note_on_c, 0, 70, 60
2, 243440, Note_off_c, 0, 70, 100
2, 243456, Note_on_c, 0, 69, 60
2, 243456, Note_on_c, 0, 60, 60
2, 243488, Note_off_c, 0, 69, 100
2, 243504, Note_on_c, 0, 70, 60
2, 243536, Note_off_c, 0, 70, 100
2, 243552, Note_on_c, 0, 69, 60
2, 243584, Note_off_c, 0, 60, 100
2, 243584, Note_off_c, 0, 69, 100
2, 243600, Note_on_c, 0, 70, 60
2, 243632, Note_off_c, 0, 70, 100
2, 243648, Note_on_c, 0, 69, 60
2, 243648, Note_on_c, 0, 58, 60
2, 243680, Note_off_c, 0, 69, 100
2, 243696, Note_on_c, 0, 70, 60
2, 243728, Note_off_c, 0, 70, 100
2, 243744, Note_on_c, 0, 69, 60
2, 243776, Note_off_c, 0, 58, 100
2, 243776, Note_off_c, 0, 69, 100
2, 243792, Note_on_c, 0, 70, 60
2, 243824, Note_off_c, 0, 70, 100
2, 243840, Note_on_c, 0, 69, 60
2, 243840, Note_on_c, 0, 60, 60
2, 243872, Note_off_c, 0, 69, 100
2, 243888, Note_on_c, 0, 70, 60
2, 243920, Note_off_c, 0, 70, 100
2, 243936, Note_on_c, 0, 69, 60
2, 243968, Note_off_c, 0, 60, 100
2, 243968, Note_off_c, 0, 69, 100
2, 243984, Note_on_c, 0, 70, 60
2, 244016, Note_off_c, 0, 70, 100
2, 244032, Note_on_c, 0, 67, 60
2, 244064, Note_on_c, 0, 58, 60
2, 244124, Note_off_c, 0, 67, 64
2, 244128, Note_on_c, 0, 69, 60
2, 244192, Note_off_c, 0, 58, 100
2, 244220, Note_off_c, 0, 69, 64
2, 244224, Note_on_c, 0, 62, 60
2, 244416, Note_on_c, 0, 70, 60
2, 244480, Note_off_c, 0, 62, 100
2, 244544, Note_off_c, 0, 70, 100
2, 244608, Note_on_c, 0, 70, 60
2, 244736, Note_off_c, 0, 70, 100
2, 244800, Note_on_c, 0, 71, 60
2, 244928, Note_off_c, 0, 71, 100
2, 244992, Note_on_c, 0, 65, 90
2, 244992, Note_on_c, 0, 57, 90
2, 245184, Note_on_c, 0, 71, 90
2, 245248, Note_off_c, 0, 65, 100
2, 245248, Note_off_c, 0, 57, 100
2, 245312, Note_off_c, 0, 71, 100
2, 245376, Note_on_c, 0, 71, 90
2, 245504, Note_off_c, 0, 71, 100
2, 245568, Note_on_c, 0, 72, 90
2, 245696, Note_off_c, 0, 72, 100
2, 245760, Note_on_c, 0, 65, 60
2, 245760, Note_on_c, 0, 58, 60
2, 245952, Note_on_c, 0, 73, 60
2, 246016, Note_off_c, 0, 65, 100
2, 246016, Note_off_c, 0, 58, 100
2, 246080, Note_off_c, 0, 73, 100
2, 246144, Note_on_c, 0, 73, 60
2, 246272, Note_off_c, 0, 73, 100
2, 246336, Note_on_c, 0, 74, 60
2, 246464, Note_off_c, 0, 74, 100
2, 246528, Note_on_c, 0, 69, 90
2, 246528, Note_on_c, 0, 60, 90
2, 246720, Note_on_c, 0, 74, 90
2, 246784, Note_off_c, 0, 69, 100
2, 246784, Note_off_c, 0, 60, 100
2, 246848, Note_off_c, 0, 74, 100
2, 246912, Note_on_c, 0, 74, 90
2, 247040, Note_off_c, 0, 74, 100
2, 247104, Note_on_c, 0, 75, 90
2, 247232, Note_off_c, 0, 75, 100
2, 247296, Note_on_c, 0, 70, 60
2, 247296, Note_on_c, 0, 62, 60
2, 247488, Note_on_c, 0, 76, 60
2, 247552, Note_off_c, 0, 70, 100
2, 247552, Note_off_c, 0, 62, 100
2, 247616, Note_off_c, 0, 76, 100
2, 247680, Note_on_c, 0, 76, 60
2, 247808, Note_off_c, 0, 76, 100
2, 247872, Note_on_c, 0, 77, 60
2, 248000, Note_off_c, 0, 77, 100
2, 248064, Note_on_c, 0, 77, 70
2, 248320, Note_off_c, 0, 77, 100
2, 248448, Note_on_c, 0, 79, 70
2, 248448, Note_on_c, 0, 58, 70
2, 248448, Note_on_c, 0, 70, 70
2, 248704, Note_off_c, 0, 79, 100
2, 248704, Note_off_c, 0, 58, 100
2, 248704, Note_off_c, 0, 70, 100
2, 248832, Note_on_c, 0, 77, 60
2, 248832, Note_on_c, 0, 70, 60
2, 248832, Note_on_c, 0, 60, 60
2, 248960, Note_off_c, 0, 77, 100
2, 249024, Note_on_c, 0, 75, 60
2, 249152, Note_off_c, 0, 75, 100
2, 249216, Note_on_c, 0, 74, 60
2, 249344, Note_off_c, 0, 70, 100
2, 249344, Note_off_c, 0, 60, 100
2, 249344, Note_off_c, 0, 74, 100
2, 249408, Note_on_c, 0, 72, 60
2, 249536, Note_off_c, 0, 72, 100
2, 249600, Note_on_c, 0, 75, 60
2, 249856, Note_off_c, 0, 75, 100
2, 249984, Note_on_c, 0, 77, 60
2, 249984, Note_on_c, 0, 65, 60
2, 249984, Note_on_c, 0, 57, 60
2, 250240, Note_off_c, 0, 77, 100
2, 250240, Note_off_c, 0, 65, 100
2, 250240, Note_off_c, 0, 57, 100
2, 250368, Note_on_c, 0, 75, 60
2, 250368, Note_on_c, 0, 65, 60
2, 250368, Note_on_c, 0, 58, 60
2, 250496, Note_off_c, 0, 75, 100
2, 250560, Note_on_c, 0, 74, 60
2, 250688, Note_off_c, 0, 74, 100
2, 250752, Note_on_c, 0, 72, 60
2, 250880, Note_off_c, 0, 65, 100
2, 250880, Note_off_c, 0, 58, 100
2, 250880, Note_off_c, 0, 72, 100
2, 250944, Note_on_c, 0, 70, 60
2, 251072, Note_off_c, 0, 70, 100
2, 251136, Note_on_c, 0, 77, 60
2, 251392, Note_off_c, 0, 77, 100
2, 251520, Note_on_c, 0, 82, 60
2, 251520, Note_on_c, 0, 70, 60
2, 251520, Note_on_c, 0, 62, 60
2, 251776, Note_off_c, 0, 82, 100
2, 251776, Note_off_c, 0, 70, 100
2, 251776, Note_off_c, 0, 62, 100
2, 251904, Note_on_c, 0, 81, 60
2, 251904, Note_on_c, 0, 70, 60
2, 251904, Note_on_c, 0, 63, 60
2, 252032, Note_off_c, 0, 81, 100
2, 252096, Note_on_c, 0, 79, 60
2, 252160, Note_off_c, 0, 63, 100
2, 252224, Note_off_c, 0, 79, 100
2, 252288, Note_on_c, 0, 79, 60
2, 252288, Note_on_c, 0, 62, 60
2, 252416, Note_off_c, 0, 70, 100
2, 252416, Note_off_c, 0, 79, 100
2, 252480, Note_on_c, 0, 77, 60
2, 252544, Note_off_c, 0, 62, 100
2, 252608, Note_off_c, 0, 77, 100
2, 252672, Note_on_c, 0, 77, 60
2, 252672, Note_on_c, 0, 69, 60
2, 252672, Note_on_c, 0, 60, 60
2, 252800, Note_off_c, 0, 77, 100
2, 252864, Note_on_c, 0, 75, 60
2, 252928, Note_off_c, 0, 69, 100
2, 252928, Note_off_c, 0, 60, 100
2, 252992, Note_off_c, 0, 75, 100
2, 253056, Note_on_c, 0, 75, 60
2, 253056, Note_on_c, 0, 70, 60
2, 253056, Note_on_c, 0, 58, 60
2, 253184, Note_off_c, 0, 75, 100
2, 253248, Note_on_c, 0, 74, 60
2, 253312, Note_off_c, 0, 70, 100
2, 253312, Note_off_c, 0, 58, 100
2, 253376, Note_off_c, 0, 74, 100
2, 253440, Note_on_c, 0, 74, 60
2, 253440, Note_on_c, 0, 65, 60
2, 253440, Note_on_c, 0, 70, 60
2, 253696, Note_off_c, 0, 74, 100
2, 253696, Note_off_c, 0, 70, 100
2, 253824, Note_on_c, 0, 72, 60
2, 253824, Note_on_c, 0, 69, 60
2, 253952, Note_off_c, 0, 65, 100
2, 254080, Note_off_c, 0, 72, 100
2, 254080, Note_off_c, 0, 69, 100
2, 254208, Note_on_c, 0, 77, 90
2, 254336, Note_off_c, 0, 77, 100
2, 254400, Note_on_c, 0, 75, 90
2, 254528, Note_off_c, 0, 75, 100
2, 254592, Note_on_c, 0, 77, 90
2, 254720, Note_off_c, 0, 77, 100
2, 254784, Note_on_c, 0, 79, 90
2, 254912, Note_off_c, 0, 79, 100
2, 254976, Note_on_c, 0, 77, 90
2, 255104, Note_off_c, 0, 77, 100
2, 255168, Note_on_c, 0, 75, 90
2, 255296, Note_off_c, 0, 75, 100
2, 255360, Note_on_c, 0, 74, 90
2, 255488, Note_off_c, 0, 74, 100
2, 255552, Note_on_c, 0, 72, 90
2, 255680, Note_off_c, 0, 72, 100
2, 255744, Note_on_c, 0, 75, 90
2, 255872, Note_off_c, 0, 75, 100
2, 255936, Note_on_c, 0, 74, 90
2, 256064, Note_off_c, 0, 74, 100
2, 256128, Note_on_c, 0, 75, 90
2, 256256, Note_off_c, 0, 75, 100
2, 256320, Note_on_c, 0, 77, 90
2, 256448, Note_off_c, 0, 77, 100
2, 256512, Note_on_c, 0, 75, 90
2, 256640, Note_off_c, 0, 75, 100
2, 256704, Note_on_c, 0, 74, 90
2, 256832, Note_off_c, 0, 74, 100
2, 256896, Note_on_c, 0, 72, 90
2, 257024, Note_off_c, 0, 72, 100
2, 257088, Note_on_c, 0, 70, 90
2, 257216, Note_off_c, 0, 70, 100
2, 257280, Note_on_c, 0, 70, 90
2, 257408, Note_off_c, 0, 70, 100
2, 257472, Note_on_c, 0, 74, 90
2, 257600, Note_off_c, 0, 74, 100
2, 257664, Note_on_c, 0, 77, 90
2, 257792, Note_off_c, 0, 77, 100
2, 257856, Note_on_c, 0, 82, 90
2, 257984, Note_off_c, 0, 82, 100
2, 258048, Note_on_c, 0, 82, 90
2, 258176, Note_off_c, 0, 82, 100
2, 258240, Note_on_c, 0, 79, 90
2, 258368, Note_off_c, 0, 79, 100
2, 258432, Note_on_c, 0, 75, 90
2, 258560, Note_off_c, 0, 75, 100
2, 258624, Note_on_c, 0, 72, 90
2, 258752, Note_off_c, 0, 72, 100
2, 258816, Note_on_c, 0, 70, 90
2, 258848, Note_off_c, 0, 70, 100
2, 258864, Note_on_c, 0, 72, 90
2, 258896, Note_off_c, 0, 72, 100
2, 258912, Note_on_c, 0, 74, 90
2, 258944, Note_off_c, 0, 74, 100
2, 258960, Note_on_c, 0, 72, 90
2, 258992, Note_off_c, 0, 72, 100
2, 259008, Note_on_c, 0, 74, 90
2, 259040, Note_off_c, 0, 74, 100
2, 259056, Note_on_c, 0, 72, 90
2, 259088, Note_off_c, 0, 72, 100
2, 259104, Note_on_c, 0, 74, 90
2, 259136, Note_off_c, 0, 74, 100
2, 259152, Note_on_c, 0, 72, 90
2, 259184, Note_off_c, 0, 72, 100
2, 259200, Note_on_c, 0, 74, 90
2, 259232, Note_off_c, 0, 74, 100
2, 259248, Note_on_c, 0, 72, 90
2, 259280, Note_off_c, 0, 72, 100
2, 259296, Note_on_c, 0, 74, 90
2, 259328, Note_off_c, 0, 74, 100
2, 259344, Note_on_c, 0, 72, 90
2, 259376, Note_off_c, 0, 72, 100
2, 259392, Note_on_c, 0, 70, 90
2, 259484, Note_off_c, 0, 70, 64
2, 259488, Note_on_c, 0, 72, 90
2, 259580, Note_off_c, 0, 72, 64
2, 259584, Note_on_c, 0, 70, 90
2, 259840, Note_off_c, 0, 70, 100
2, 259968, Note_on_c, 0, 70, 60
2, 260096, Note_on_c, 0, 74, 60
2, 260144, Note_off_c, 0, 74, 100
2, 260224, Note_off_c, 0, 70, 100
2, 260224, Note_on_c, 0, 77, 60
2, 260272, Note_off_c, 0, 77, 100
2, 260352, Note_on_c, 0, 72, 60
2, 260480, Note_on_c, 0, 75, 60
2, 260528, Note_off_c, 0, 75, 100
2, 260608, Note_off_c, 0, 72, 100
2, 260608, Note_on_c, 0, 79, 60
2, 260656, Note_off_c, 0, 79, 100
2, 260736, Note_on_c, 0, 69, 60
2, 260864, Note_on_c, 0, 72, 60
2, 260912, Note_off_c, 0, 72, 100
2, 260992, Note_off_c, 0, 69, 100
2, 260992, Note_on_c, 0, 75, 60
2, 261040, Note_off_c, 0, 75, 100
2, 261120, Note_on_c, 0, 70, 60
2, 261248, Note_on_c, 0, 74, 60
2, 261296, Note_off_c, 0, 74, 100
2, 261376, Note_off_c, 0, 70, 100
2, 261376, Note_on_c, 0, 77, 60
2, 261424, Note_off_c, 0, 77, 100
2, 261504, Note_on_c, 0, 62, 60
2, 261632, Note_on_c, 0, 70, 60
2, 261680, Note_off_c, 0, 70, 100
2, 261760, Note_off_c, 0, 62, 100
2, 261760, Note_on_c, 0, 74, 60
2, 261808, Note_off_c, 0, 74, 100
2, 261888, Note_on_c, 0, 63, 60
2, 262016, Note_on_c, 0, 72, 60
2, 262064, Note_off_c, 0, 72, 100
2, 262144, Note_off_c, 0, 63, 100
2, 262144, Note_on_c, 0, 75, 60
2, 262192, Note_off_c, 0, 75, 100
2, 262272, Note_on_c, 0, 64, 60
2, 262400, Note_on_c, 0, 67, 60
2, 262448, Note_off_c, 0, 67, 100
2, 262528, Note_off_c, 0, 64, 100
2, 262528, Note_on_c, 0, 70, 60
2, 262576, Note_off_c, 0, 70, 100
2, 262656, Note_on_c, 0, 65, 60
2, 262784, Note_on_c, 0, 69, 60
2, 262832, Note_off_c, 0, 69, 100
2, 262912, Note_off_c, 0, 65, 100
2, 262912, Note_on_c, 0, 72, 60
2, 262960, Note_off_c, 0, 72, 100
2, 263040, Note_on_c, 0, 74, 90
2, 263088, Note_off_c, 0, 74, 100
2, 263168, Note_on_c, 0, 75, 90
2, 263216, Note_off_c, 0, 75, 100
2, 263296, Note_on_c, 0, 77, 90
2, 263344, Note_off_c, 0, 77, 100
2, 263424, Note_on_c, 0, 75, 90
2, 263472, Note_off_c, 0, 75, 100
2, 263552, Note_on_c, 0, 77, 90
2, 263600, Note_off_c, 0, 77, 100
2, 263680, Note_on_c, 0, 79, 90
2, 263728, Note_off_c, 0, 79, 100
2, 263808, Note_on_c, 0, 72, 90
2, 263856, Note_off_c, 0, 72, 100
2, 263936, Note_on_c, 0, 74, 90
2, 263984, Note_off_c, 0, 74, 100
2, 264064, Note_on_c, 0, 75, 90
2, 264112, Note_off_c, 0, 75, 100
2, 264192, Note_on_c, 0, 74, 90
2, 264240, Note_off_c, 0, 74, 100
2, 264320, Note_on_c, 0, 75, 90
2, 264368, Note_off_c, 0, 75, 100
2, 264448, Note_on_c, 0, 77, 90
2, 264496, Note_off_c, 0, 77, 100
2, 264576, Note_on_c, 0, 77, 90
2, 264624, Note_off_c, 0, 77, 100
2, 264704, Note_on_c, 0, 81, 90
2, 264752, Note_off_c, 0, 81, 100
2, 264832, Note_on_c, 0, 82, 90
2, 264880, Note_off_c, 0, 82, 100
2, 264960, Note_on_c, 0, 81, 90
2, 265008, Note_off_c, 0, 81, 100
2, 265088, Note_on_c, 0, 79, 90
2, 265136, Note_off_c, 0, 79, 100
2, 265216, Note_on_c, 0, 77, 90
2, 265264, Note_off_c, 0, 77, 100
2, 265344, Note_on_c, 0, 75, 90
2, 265392, Note_off_c, 0, 75, 100
2, 265472, Note_on_c, 0, 74, 90
2, 265520, Note_off_c, 0, 74, 100
2, 265600, Note_on_c, 0, 72, 90
2, 265648, Note_off_c, 0, 72, 100
2, 265728, Note_on_c, 0, 70, 90
2, 265984, Note_off_c, 0, 70, 100
2, 266112, Note_on_c, 0, 66, 90
2, 266112, Note_on_c, 0, 70, 90
2, 266368, Note_off_c, 0, 66, 100
2, 266496, Note_on_c, 0, 67, 90
2, 266752, Note_off_c, 0, 67, 100
2, 266880, Note_off_c, 0, 70, 100
2, 266880, Note_on_c, 0, 66, 90
2, 267136, Note_off_c, 0, 66, 100
2, 267264, Note_on_c, 0, 70, 90
2, 267264, Note_on_c, 0, 67, 90
2, 267520, Note_off_c, 0, 70, 100
2, 267520, Note_off_c, 0, 67, 100
2, 267648, Note_on_c, 0, 75, 60
2, 267696, Note_off_c, 0, 75, 100
2, 267776, Note_on_c, 0, 77, 60
2, 267824, Note_off_c, 0, 77, 100
2, 267904, Note_on_c, 0, 79, 60
2, 267952, Note_off_c, 0, 79, 100
2, 268032, Note_on_c, 0, 77, 60
2, 268080, Note_off_c, 0, 77, 100
2, 268160, Note_on_c, 0, 75, 60
2, 268208, Note_off_c, 0, 75, 100
2, 268288, Note_on_c, 0, 74, 60
2, 268336, Note_off_c, 0, 74, 100
2, 268416, Note_on_c, 0, 72, 60
2, 268464, Note_off_c, 0, 72, 100
2, 268544, Note_on_c, 0, 70, 60
2, 268592, Note_off_c, 0, 70, 100
2, 268672, Note_on_c, 0, 69, 60
2, 268720, Note_off_c, 0, 69, 100
2, 268800, Note_on_c, 0, 70, 60
2, 269056, Note_off_c, 0, 70, 100
2, 269184, Note_on_c, 0, 70, 90
2, 269184, Note_on_c, 0, 66, 90
2, 269440, Note_off_c, 0, 66, 100
2, 269568, Note_on_c, 0, 67, 90
2, 269824, Note_off_c, 0, 67, 100
2, 269952, Note_off_c, 0, 70, 100
2, 269952, Note_on_c, 0, 66, 90
2, 270208, Note_off_c, 0, 66, 100
2, 270336, Note_on_c, 0, 70, 90
2, 270336, Note_on_c, 0, 67, 90
2, 270592, Note_off_c, 0, 70, 100
2, 270592, Note_off_c, 0, 67, 100
2, 270720, Note_on_c, 0, 75, 60
2, 270768, Note_off_c, 0, 75, 100
2, 270848, Note_on_c, 0, 77, 60
2, 270896, Note_off_c, 0, 77, 100
2, 270976, Note_on_c, 0, 79, 60
2, 271024, Note_off_c, 0, 79, 100
2, 271104, Note_on_c, 0, 77, 60
2, 271152, Note_off_c, 0, 77, 100
2, 271232, Note_on_c, 0, 75, 60
2, 271280, Note_off_c, 0, 75, 100
2, 271360, Note_on_c, 0, 74, 60
2, 271408, Note_off_c, 0, 74, 100
2, 271488, Note_on_c, 0, 72, 60
2, 271536, Note_off_c, 0, 72, 100
2, 271616, Note_on_c, 0, 70, 60
2, 271664, Note_off_c, 0, 70, 100
2, 271744, Note_on_c, 0, 69, 60
2, 271792, Note_off_c, 0, 69, 100
2, 271872, Note_on_c, 0, 70, 60
2, 272064, Note_on_c, 0, 75, 60
2, 272128, Note_off_c, 0, 70, 100
2, 272192, Note_off_c, 0, 75, 100
2, 272256, Note_on_c, 0, 72, 60
2, 272384, Note_off_c, 0, 72, 100
2, 272448, Note_on_c, 0, 69, 60
2, 272576, Note_off_c, 0, 69, 100
2, 272640, Note_on_c, 0, 70, 60
2, 272832, Note_on_c, 0, 75, 60
2, 272896, Note_off_c, 0, 70, 100
2, 272960, Note_off_c, 0, 75, 100
2, 273024, Note_on_c, 0, 72, 60
2, 273152, Note_off_c, 0, 72, 100
2, 273216, Note_on_c, 0, 69, 60
2, 273344, Note_off_c, 0, 69, 100
2, 273408, Note_on_c, 0, 70, 60
2, 273664, Note_off_c, 0, 70, 100
2, 273792, Note_on_c, 0, 76, 49
2, 273824, Note_off_c, 0, 76, 100
2, 273840, Note_on_c, 0, 77, 49
2, 274096, Note_off_c, 0, 77, 100
2, 274176, Note_on_c, 0, 81, 49
2, 274208, Note_off_c, 0, 81, 100
2, 274224, Note_on_c, 0, 82, 49
2, 274368, Note_on_c, 0, 75, 49
2, 274480, Note_off_c, 0, 82, 100
2, 274496, Note_off_c, 0, 75, 100
2, 274560, Note_on_c, 0, 72, 60
2, 274688, Note_off_c, 0, 72, 100
2, 274752, Note_on_c, 0, 69, 60
2, 274880, Note_off_c, 0, 69, 100
2, 274944, Note_on_c, 0, 70, 60
2, 275200, Note_off_c, 0, 70, 100
2, 275328, Note_on_c, 0, 76, 49
2, 275360, Note_off_c, 0, 76, 100
2, 275376, Note_on_c, 0, 77, 49
2, 275632, Note_off_c, 0, 77, 100
2, 275712, Note_on_c, 0, 81, 49
2, 275744, Note_off_c, 0, 81, 100
2, 275760, Note_on_c, 0, 82, 49
2, 275904, Note_on_c, 0, 75, 49
2, 276016, Note_off_c, 0, 82, 100
2, 276032, Note_off_c, 0, 75, 100
2, 276096, Note_on_c, 0, 72, 60
2, 276224, Note_off_c, 0, 72, 100
2, 276288, Note_on_c, 0, 69, 60
2, 276416, Note_off_c, 0, 69, 100
2, 276480, Note_on_c, 0, 70, 60
2, 276736, Note_off_c, 0, 70, 100
2, 276864, Note_on_c, 0, 76, 60
2, 276896, Note_off_c, 0, 76, 100
2, 276912, Note_on_c, 0, 77, 60
2, 277168, Note_off_c, 0, 77, 100
2, 277248, Note_on_c, 0, 81, 60
2, 277280, Note_off_c, 0, 81, 100
2, 277296, Note_on_c, 0, 82, 60
2, 277552, Note_off_c, 0, 82, 100
2, 277632, Note_on_c, 0, 64, 90
2, 277664, Note_off_c, 0, 64, 100
2, 277680, Note_on_c, 0, 65, 90
2, 277936, Note_off_c, 0, 65, 100
2, 278016, Note_on_c, 0, 69, 90
2, 278048, Note_off_c, 0, 69, 100
2, 278064, Note_on_c, 0, 70, 90
2, 278320, Note_off_c, 0, 70, 100
2, 278320, End_track
3, 0, Start_track
3, 0, Title_t, "Sonata #6"
3, 0, Control_c, 1, 0, 0
3, 0, Program_c, 1, 0
3, 0, Control_c, 1, 7, 80
3, 0, Control_c, 1, 10, 47
3, 0, Control_c, 1, 91, 77
3, 0, Control_c, 1, 93, 54
3, 0, Key_signature, -2, "major"
3, 0, Control_c, 1, 121, 0
3, 96, Control_c, 1, 10, 43
3, 192, Control_c, 1, 91, 63
3, 240, Control_c, 1, 93, 40
3, 288, Program_c, 1, 0
3, 7296, Note_on_c, 1, 58, 90
3, 7296, Note_on_c, 1, 46, 90
3, 7552, Note_off_c, 1, 58, 100
3, 7552, Note_off_c, 1, 46, 100
3, 7680, Note_on_c, 1, 60, 90
3, 7680, Note_on_c, 1, 48, 90
3, 7936, Note_off_c, 1, 60, 100
3, 7936, Note_off_c, 1, 48, 100
3, 8064, Note_on_c, 1, 63, 90
3, 8064, Note_on_c, 1, 51, 90
3, 8320, Note_off_c, 1, 63, 100
3, 8320, Note_off_c, 1, 51, 100
3, 8832, Note_on_c, 1, 57, 90
3, 8832, Note_on_c, 1, 45, 90
3, 9088, Note_off_c, 1, 57, 100
3, 9088, Note_off_c, 1, 45, 100
3, 9216, Note_on_c, 1, 58, 90
3, 9216, Note_on_c, 1, 46, 90
3, 9472, Note_off_c, 1, 58, 100
3, 9472, Note_off_c, 1, 46, 100
3, 9600, Note_on_c, 1, 62, 90
3, 9600, Note_on_c, 1, 50, 90
3, 9856, Note_off_c, 1, 62, 100
3, 9856, Note_off_c, 1, 50, 100
3, 10368, Note_on_c, 1, 58, 90
3, 10368, Note_on_c, 1, 50, 90
3, 10624, Note_off_c, 1, 58, 100
3, 10624, Note_off_c, 1, 50, 100
3, 10752, Note_on_c, 1, 58, 90
3, 10752, Note_on_c, 1, 51, 90
3, 11008, Note_off_c, 1, 58, 100
3, 11008, Note_off_c, 1, 51, 100
3, 11136, Note_on_c, 1, 58, 90
3, 11136, Note_on_c, 1, 55, 90
3, 11392, Note_off_c, 1, 55, 100
3, 11520, Note_on_c, 1, 53, 90
3, 11648, Note_off_c, 1, 58, 100
3, 11904, Note_on_c, 1, 57, 90
3, 12032, Note_off_c, 1, 53, 100
3, 12160, Note_off_c, 1, 57, 100
3, 12288, Note_on_c, 1, 58, 90
3, 12288, Note_on_c, 1, 46, 90
3, 12544, Note_off_c, 1, 58, 100
3, 12544, Note_off_c, 1, 46, 100
3, 15744, Note_on_c, 1, 46, 90
3, 15744, Note_on_c, 1, 58, 90
3, 16000, Note_off_c, 1, 46, 100
3, 16000, Note_off_c, 1, 58, 100
3, 16128, Note_on_c, 1, 60, 90
3, 16128, Note_on_c, 1, 48, 90
3, 16384, Note_off_c, 1, 60, 100
3, 16384, Note_off_c, 1, 48, 100
3, 16512, Note_on_c, 1, 57, 90
3, 16512, Note_on_c, 1, 45, 90
3, 16768, Note_off_c, 1, 57, 100
3, 16768, Note_off_c, 1, 45, 100
3, 16896, Note_on_c, 1, 58, 90
3, 16896, Note_on_c, 1, 46, 90
3, 17152, Note_off_c, 1, 58, 100
3, 17152, Note_off_c, 1, 46, 100
3, 17280, Note_on_c, 1, 51, 90
3, 17536, Note_off_c, 1, 51, 100
3, 17664, Note_on_c, 1, 53, 90
3, 17920, Note_off_c, 1, 53, 100
3, 18048, Note_on_c, 1, 41, 90
3, 18304, Note_off_c, 1, 41, 100
3, 18432, Note_on_c, 1, 46, 90
3, 18688, Note_off_c, 1, 46, 100
3, 18816, Note_on_c, 1, 50, 90
3, 18816, Note_on_c, 1, 38, 90
3, 19072, Note_off_c, 1, 50, 100
3, 19072, Note_off_c, 1, 38, 100
3, 19200, Note_on_c, 1, 39, 90
3, 19200, Note_on_c, 1, 51, 90
3, 19456, Note_off_c, 1, 39, 100
3, 19456, Note_off_c, 1, 51, 100
3, 19584, Note_on_c, 1, 50, 90
3, 19584, Note_on_c, 1, 38, 90
3, 19840, Note_off_c, 1, 50, 100
3, 19840, Note_off_c, 1, 38, 100
3, 19968, Note_on_c, 1, 51, 90
3, 19968, Note_on_c, 1, 39, 90
3, 20224, Note_off_c, 1, 51, 100
3, 20224, Note_off_c, 1, 39, 100
3, 20736, Note_on_c, 1, 53, 60
3, 20736, Note_on_c, 1, 62, 60
3, 20992, Note_off_c, 1, 62, 100
3, 21120, Note_on_c, 1, 63, 60
3, 21248, Note_off_c, 1, 53, 100
3, 21376, Note_off_c, 1, 63, 100
3, 21504, Note_on_c, 1, 62, 90
3, 21504, Note_on_c, 1, 58, 90
3, 21760, Note_off_c, 1, 62, 100
3, 21760, Note_off_c, 1, 58, 100
3, 21888, Note_on_c, 1, 50, 90
3, 21888, Note_on_c, 1, 38, 90
3, 22144, Note_off_c, 1, 50, 100
3, 22144, Note_off_c, 1, 38, 100
3, 22272, Note_on_c, 1, 39, 90
3, 22272, Note_on_c, 1, 51, 90
3, 22528, Note_off_c, 1, 39, 100
3, 22528, Note_off_c, 1, 51, 100
3, 22656, Note_on_c, 1, 50, 90
3, 22656, Note_on_c, 1, 38, 90
3, 22912, Note_off_c, 1, 50, 100
3, 22912, Note_off_c, 1, 38, 100
3, 23040, Note_on_c, 1, 51, 90
3, 23040, Note_on_c, 1, 39, 90
3, 23296, Note_off_c, 1, 51, 100
3, 23296, Note_off_c, 1, 39, 100
3, 23808, Note_on_c, 1, 53, 60
3, 23808, Note_on_c, 1, 62, 60
3, 24064, Note_off_c, 1, 62, 100
3, 24192, Note_on_c, 1, 63, 60
3, 24320, Note_off_c, 1, 53, 100
3, 24448, Note_off_c, 1, 63, 100
3, 24576, Note_on_c, 1, 58, 60
3, 24576, Note_on_c, 1, 62, 60
3, 24832, Note_off_c, 1, 58, 100
3, 24832, Note_off_c, 1, 62, 100
3, 24960, Note_on_c, 1, 53, 60
3, 24960, Note_on_c, 1, 63, 60
3, 25216, Note_off_c, 1, 53, 100
3, 25216, Note_off_c, 1, 63, 100
3, 25344, Note_on_c, 1, 58, 60
3, 25344, Note_on_c, 1, 62, 60
3, 25600, Note_off_c, 1, 58, 100
3, 25600, Note_off_c, 1, 62, 100
3, 25728, Note_on_c, 1, 53, 60
3, 25728, Note_on_c, 1, 63, 60
3, 25984, Note_off_c, 1, 53, 100
3, 25984, Note_off_c, 1, 63, 100
3, 26112, Note_on_c, 1, 58, 60
3, 26112, Note_on_c, 1, 62, 60
3, 26368, Note_off_c, 1, 58, 100
3, 26368, Note_off_c, 1, 62, 100
3, 36480, Note_on_c, 1, 53, 60
3, 36736, Note_off_c, 1, 53, 100
3, 36864, Note_on_c, 1, 55, 60
3, 37120, Note_off_c, 1, 55, 100
3, 37248, Note_on_c, 1, 52, 60
3, 37504, Note_off_c, 1, 52, 100
3, 37632, Note_on_c, 1, 53, 60
3, 37888, Note_off_c, 1, 53, 100
3, 38016, Note_on_c, 1, 57, 60
3, 38272, Note_off_c, 1, 57, 100
3, 38400, Note_on_c, 1, 58, 60
3, 38656, Note_off_c, 1, 58, 100
3, 38784, Note_on_c, 1, 55, 60
3, 39040, Note_off_c, 1, 55, 100
3, 39168, Note_on_c, 1, 57, 60
3, 39424, Note_off_c, 1, 57, 100
3, 39936, Note_on_c, 1, 58, 79
3, 39936, Note_on_c, 1, 46, 79
3, 40448, Note_off_c, 1, 58, 100
3, 40448, Note_off_c, 1, 46, 100
3, 42240, Note_on_c, 1, 60, 90
3, 42288, Note_off_c, 1, 60, 100
3, 42368, Note_on_c, 1, 62, 90
3, 42416, Note_off_c, 1, 62, 100
3, 42496, Note_on_c, 1, 60, 90
3, 42544, Note_off_c, 1, 60, 100
3, 42624, Note_on_c, 1, 58, 90
3, 42672, Note_off_c, 1, 58, 100
3, 42752, Note_on_c, 1, 57, 90
3, 42800, Note_off_c, 1, 57, 100
3, 42880, Note_on_c, 1, 55, 90
3, 42928, Note_off_c, 1, 55, 100
3, 43008, Note_on_c, 1, 53, 79
3, 43056, Note_off_c, 1, 53, 100
3, 43136, Note_on_c, 1, 57, 79
3, 43184, Note_off_c, 1, 57, 100
3, 43264, Note_on_c, 1, 60, 79
3, 43312, Note_off_c, 1, 60, 100
3, 43392, Note_on_c, 1, 53, 79
3, 43440, Note_off_c, 1, 53, 100
3, 43520, Note_on_c, 1, 57, 79
3, 43568, Note_off_c, 1, 57, 100
3, 43648, Note_on_c, 1, 60, 79
3, 43696, Note_off_c, 1, 60, 100
3, 43776, Note_on_c, 1, 52, 79
3, 43824, Note_off_c, 1, 52, 100
3, 43904, Note_on_c, 1, 55, 79
3, 43952, Note_off_c, 1, 55, 100
3, 44032, Note_on_c, 1, 60, 79
3, 44080, Note_off_c, 1, 60, 100
3, 44160, Note_on_c, 1, 52, 79
3, 44208, Note_off_c, 1, 52, 100
3, 44288, Note_on_c, 1, 55, 79
3, 44336, Note_off_c, 1, 55, 100
3, 44416, Note_on_c, 1, 60, 79
3, 44464, Note_off_c, 1, 60, 100
3, 44544, Note_on_c, 1, 55, 79
3, 44592, Note_off_c, 1, 55, 100
3, 44672, Note_on_c, 1, 58, 79
3, 44720, Note_off_c, 1, 58, 100
3, 44800, Note_on_c, 1, 60, 79
3, 44848, Note_off_c, 1, 60, 100
3, 44928, Note_on_c, 1, 55, 79
3, 44976, Note_off_c, 1, 55, 100
3, 45056, Note_on_c, 1, 58, 79
3, 45104, Note_off_c, 1, 58, 100
3, 45184, Note_on_c, 1, 60, 79
3, 45232, Note_off_c, 1, 60, 100
3, 45312, Note_on_c, 1, 57, 79
3, 45360, Note_off_c, 1, 57, 100
3, 45440, Note_on_c, 1, 60, 79
3, 45488, Note_off_c, 1, 60, 100
3, 45568, Note_on_c, 1, 65, 79
3, 45616, Note_off_c, 1, 65, 100
3, 45696, Note_on_c, 1, 60, 79
3, 45744, Note_off_c, 1, 60, 100
3, 45824, Note_on_c, 1, 57, 79
3, 45872, Note_off_c, 1, 57, 100
3, 45952, Note_on_c, 1, 60, 79
3, 46000, Note_off_c, 1, 60, 100
3, 46080, Note_on_c, 1, 53, 79
3, 46128, Note_off_c, 1, 53, 100
3, 46208, Note_on_c, 1, 57, 79
3, 46256, Note_off_c, 1, 57, 100
3, 46336, Note_on_c, 1, 60, 79
3, 46384, Note_off_c, 1, 60, 100
3, 46464, Note_on_c, 1, 53, 79
3, 46512, Note_off_c, 1, 53, 100
3, 46592, Note_on_c, 1, 57, 79
3, 46640, Note_off_c, 1, 57, 100
3, 46720, Note_on_c, 1, 60, 79
3, 46768, Note_off_c, 1, 60, 100
3, 46848, Note_on_c, 1, 51, 79
3, 46896, Note_off_c, 1, 51, 100
3, 46976, Note_on_c, 1, 55, 79
3, 47024, Note_off_c, 1, 55, 100
3, 47104, Note_on_c, 1, 60, 79
3, 47152, Note_off_c, 1, 60, 100
3, 47232, Note_on_c, 1, 51, 79
3, 47280, Note_off_c, 1, 51, 100
3, 47360, Note_on_c, 1, 55, 79
3, 47408, Note_off_c, 1, 55, 100
3, 47488, Note_on_c, 1, 60, 79
3, 47536, Note_off_c, 1, 60, 100
3, 47616, Note_on_c, 1, 55, 79
3, 47664, Note_off_c, 1, 55, 100
3, 47744, Note_on_c, 1, 58, 79
3, 47792, Note_off_c, 1, 58, 100
3, 47872, Note_on_c, 1, 60, 79
3, 47920, Note_off_c, 1, 60, 100
3, 48000, Note_on_c, 1, 55, 79
3, 48048, Note_off_c, 1, 55, 100
3, 48128, Note_on_c, 1, 58, 79
3, 48176, Note_off_c, 1, 58, 100
3, 48256, Note_on_c, 1, 60, 79
3, 48304, Note_off_c, 1, 60, 100
3, 48384, Note_on_c, 1, 57, 79
3, 48432, Note_off_c, 1, 57, 100
3, 48512, Note_on_c, 1, 60, 79
3, 48560, Note_off_c, 1, 60, 100
3, 48640, Note_on_c, 1, 65, 79
3, 48688, Note_off_c, 1, 65, 100
3, 48768, Note_on_c, 1, 60, 79
3, 48816, Note_off_c, 1, 60, 100
3, 48896, Note_on_c, 1, 57, 79
3, 48944, Note_off_c, 1, 57, 100
3, 49024, Note_on_c, 1, 53, 79
3, 49072, Note_off_c, 1, 53, 100
3, 49152, Note_on_c, 1, 57, 60
3, 49408, Note_off_c, 1, 57, 100
3, 50688, Note_on_c, 1, 58, 69
3, 50944, Note_off_c, 1, 58, 100
3, 77952, Note_on_c, 1, 59, 90
3, 77952, Note_on_c, 1, 47, 90
3, 78208, Note_off_c, 1, 59, 100
3, 78208, Note_off_c, 1, 47, 100
3, 78336, Note_on_c, 1, 60, 90
3, 78336, Note_on_c, 1, 48, 90
3, 78592, Note_off_c, 1, 60, 100
3, 78592, Note_off_c, 1, 48, 100
3, 78720, Note_on_c, 1, 63, 90
3, 78720, Note_on_c, 1, 51, 90
3, 78976, Note_off_c, 1, 63, 100
3, 78976, Note_off_c, 1, 51, 100
3, 79488, Note_on_c, 1, 45, 90
3, 79488, Note_on_c, 1, 57, 90
3, 79744, Note_off_c, 1, 45, 100
3, 79744, Note_off_c, 1, 57, 100
3, 79872, Note_on_c, 1, 58, 90
3, 79872, Note_on_c, 1, 46, 90
3, 80128, Note_off_c, 1, 58, 100
3, 80128, Note_off_c, 1, 46, 100
3, 80256, Note_on_c, 1, 62, 90
3, 80256, Note_on_c, 1, 50, 90
3, 80512, Note_off_c, 1, 62, 100
3, 80512, Note_off_c, 1, 50, 100
3, 81024, Note_on_c, 1, 58, 90
3, 81024, Note_on_c, 1, 50, 90
3, 81280, Note_off_c, 1, 58, 100
3, 81280, Note_off_c, 1, 50, 100
3, 81408, Note_on_c, 1, 58, 90
3, 81408, Note_on_c, 1, 51, 90
3, 81664, Note_off_c, 1, 58, 100
3, 81664, Note_off_c, 1, 51, 100
3, 81792, Note_on_c, 1, 55, 90
3, 81792, Note_on_c, 1, 58, 90
3, 82048, Note_off_c, 1, 55, 100
3, 82176, Note_on_c, 1, 53, 90
3, 82304, Note_off_c, 1, 58, 100
3, 82560, Note_on_c, 1, 57, 90
3, 82688, Note_off_c, 1, 53, 100
3, 82816, Note_off_c, 1, 57, 100
3, 82944, Note_on_c, 1, 58, 90
3, 82944, Note_on_c, 1, 46, 90
3, 83200, Note_off_c, 1, 58, 100
3, 83200, Note_off_c, 1, 46, 100
3, 87744, Note_on_c, 1, 48, 60
3, 87872, Note_off_c, 1, 48, 100
3, 87936, Note_on_c, 1, 51, 60
3, 88064, Note_off_c, 1, 51, 100
3, 88128, Note_on_c, 1, 57, 60
3, 88256, Note_off_c, 1, 57, 100
3, 88320, Note_on_c, 1, 60, 60
3, 88576, Note_off_c, 1, 60, 100
3, 89088, Note_on_c, 1, 59, 90
3, 89344, Note_off_c, 1, 59, 100
3, 89472, Note_on_c, 1, 54, 90
3, 89728, Note_off_c, 1, 54, 100
3, 89856, Note_on_c, 1, 55, 90
3, 90112, Note_off_c, 1, 55, 100
3, 90240, Note_on_c, 1, 57, 90
3, 90496, Note_off_c, 1, 57, 100
3, 100032, Note_on_c, 1, 48, 60
3, 100160, Note_off_c, 1, 48, 100
3, 100224, Note_on_c, 1, 51, 60
3, 100352, Note_off_c, 1, 51, 100
3, 100416, Note_on_c, 1, 57, 60
3, 100544, Note_off_c, 1, 57, 100
3, 100608, Note_on_c, 1, 60, 60
3, 100864, Note_off_c, 1, 60, 100
3, 101376, Note_on_c, 1, 59, 90
3, 101632, Note_off_c, 1, 59, 100
3, 101760, Note_on_c, 1, 54, 90
3, 102016, Note_off_c, 1, 54, 100
3, 102144, Note_on_c, 1, 55, 90
3, 102400, Note_off_c, 1, 55, 100
3, 102528, Note_on_c, 1, 57, 90
3, 102784, Note_off_c, 1, 57, 100
3, 109056, Note_on_c, 1, 50, 60
3, 109056, Note_on_c, 1, 38, 60
3, 109568, Note_off_c, 1, 50, 100
3, 109568, Note_off_c, 1, 38, 100
3, 109824, Note_on_c, 1, 42, 60
3, 109824, Note_on_c, 1, 54, 60
3, 110336, Note_off_c, 1, 42, 100
3, 110336, Note_off_c, 1, 54, 100
3, 110784, Note_on_c, 1, 43, 60
3, 110784, Note_on_c, 1, 55, 60
3, 110912, Note_off_c, 1, 43, 100
3, 110912, Note_off_c, 1, 55, 100
3, 110976, Note_on_c, 1, 54, 60
3, 110976, Note_on_c, 1, 42, 60
3, 111104, Note_off_c, 1, 54, 100
3, 111104, Note_off_c, 1, 42, 100
3, 111168, Note_on_c, 1, 55, 60
3, 111168, Note_on_c, 1, 43, 60
3, 111296, Note_off_c, 1, 55, 100
3, 111296, Note_off_c, 1, 43, 100
3, 111552, Note_on_c, 1, 60, 60
3, 111552, Note_on_c, 1, 48, 60
3, 111680, Note_off_c, 1, 60, 100
3, 111680, Note_off_c, 1, 48, 100
3, 111744, Note_on_c, 1, 59, 60
3, 111744, Note_on_c, 1, 47, 60
3, 111872, Note_off_c, 1, 59, 100
3, 111872, Note_off_c, 1, 47, 100
3, 111936, Note_on_c, 1, 60, 60
3, 111936, Note_on_c, 1, 48, 60
3, 112064, Note_off_c, 1, 60, 100
3, 112064, Note_off_c, 1, 48, 100
3, 112128, Note_on_c, 1, 58, 60
3, 112128, Note_on_c, 1, 46, 60
3, 112384, Note_off_c, 1, 58, 100
3, 112384, Note_off_c, 1, 46, 100
3, 117120, Note_on_c, 1, 48, 90
3, 117132, Note_on_c, 1, 51, 90
3, 117148, Note_on_c, 1, 54, 90
3, 117164, Note_on_c, 1, 57, 90
3, 117376, Note_off_c, 1, 48, 100
3, 117388, Note_off_c, 1, 51, 100
3, 117404, Note_off_c, 1, 54, 100
3, 117420, Note_off_c, 1, 57, 100
3, 118656, Note_on_c, 1, 62, 60
3, 118912, Note_off_c, 1, 62, 100
3, 119424, Note_on_c, 1, 60, 60
3, 119424, Note_on_c, 1, 50, 60
3, 119680, Note_off_c, 1, 60, 100
3, 119680, Note_off_c, 1, 50, 100
3, 119808, Note_on_c, 1, 60, 60
3, 119808, Note_on_c, 1, 55, 60
3, 120316, Note_off_c, 1, 55, 100
3, 120320, Note_off_c, 1, 60, 100
3, 120576, Note_on_c, 1, 58, 60
3, 120576, Note_on_c, 1, 55, 60
3, 120832, Note_off_c, 1, 58, 100
3, 120832, Note_off_c, 1, 55, 100
3, 121344, Note_on_c, 1, 50, 60
3, 121344, Note_on_c, 1, 38, 60
3, 121856, Note_off_c, 1, 50, 100
3, 121856, Note_off_c, 1, 38, 100
3, 122112, Note_on_c, 1, 54, 60
3, 122112, Note_on_c, 1, 42, 60
3, 122624, Note_off_c, 1, 54, 100
3, 122624, Note_off_c, 1, 42, 100
3, 123072, Note_on_c, 1, 43, 60
3, 123072, Note_on_c, 1, 55, 60
3, 123200, Note_off_c, 1, 43, 100
3, 123200, Note_off_c, 1, 55, 100
3, 123264, Note_on_c, 1, 54, 60
3, 123264, Note_on_c, 1, 42, 60
3, 123392, Note_off_c, 1, 54, 100
3, 123392, Note_off_c, 1, 42, 100
3, 123456, Note_on_c, 1, 55, 60
3, 123456, Note_on_c, 1, 43, 60
3, 123584, Note_off_c, 1, 55, 100
3, 123584, Note_off_c, 1, 43, 100
3, 123840, Note_on_c, 1, 60, 60
3, 123840, Note_on_c, 1, 48, 60
3, 123968, Note_off_c, 1, 60, 100
3, 123968, Note_off_c, 1, 48, 100
3, 124032, Note_on_c, 1, 59, 60
3, 124032, Note_on_c, 1, 47, 60
3, 124160, Note_off_c, 1, 59, 100
3, 124160, Note_off_c, 1, 47, 100
3, 124224, Note_on_c, 1, 60, 60
3, 124224, Note_on_c, 1, 48, 60
3, 124352, Note_off_c, 1, 60, 100
3, 124352, Note_off_c, 1, 48, 100
3, 124416, Note_on_c, 1, 58, 60
3, 124416, Note_on_c, 1, 46, 60
3, 124672, Note_off_c, 1, 58, 100
3, 124672, Note_off_c, 1, 46, 100
3, 129408, Note_on_c, 1, 48, 90
3, 129420, Note_on_c, 1, 51, 90
3, 129436, Note_on_c, 1, 54, 90
3, 129452, Note_on_c, 1, 57, 90
3, 129664, Note_off_c, 1, 48, 100
3, 129676, Note_off_c, 1, 51, 100
3, 129692, Note_off_c, 1, 54, 100
3, 129708, Note_off_c, 1, 57, 100
3, 130944, Note_on_c, 1, 62, 60
3, 131200, Note_off_c, 1, 62, 100
3, 131712, Note_on_c, 1, 60, 60
3, 131712, Note_on_c, 1, 50, 60
3, 131968, Note_off_c, 1, 60, 100
3, 131968, Note_off_c, 1, 50, 100
3, 132096, Note_on_c, 1, 60, 60
3, 132096, Note_on_c, 1, 55, 60
3, 132608, Note_off_c, 1, 60, 100
3, 132608, Note_off_c, 1, 55, 100
3, 132864, Note_on_c, 1, 58, 60
3, 132864, Note_on_c, 1, 55, 60
3, 133120, Note_off_c, 1, 58, 100
3, 133120, Note_off_c, 1, 55, 100
3, 133632, Note_on_c, 1, 53, 90
3, 133632, Note_on_c, 1, 41, 90
3, 134144, Note_off_c, 1, 53, 100
3, 134144, Note_off_c, 1, 41, 100
3, 134400, Note_on_c, 1, 52, 90
3, 134400, Note_on_c, 1, 40, 90
3, 134656, Note_off_c, 1, 52, 100
3, 134656, Note_off_c, 1, 40, 100
3, 136704, Note_on_c, 1, 48, 90
3, 136716, Note_on_c, 1, 51, 90
3, 136732, Note_on_c, 1, 53, 90
3, 136748, Note_on_c, 1, 57, 90
3, 136960, Note_off_c, 1, 48, 100
3, 136972, Note_off_c, 1, 51, 100
3, 136988, Note_off_c, 1, 53, 100
3, 137004, Note_off_c, 1, 57, 100
3, 145536, Note_on_c, 1, 59, 90
3, 145536, Note_on_c, 1, 47, 90
3, 145792, Note_off_c, 1, 59, 100
3, 145792, Note_off_c, 1, 47, 100
3, 145920, Note_on_c, 1, 60, 90
3, 145920, Note_on_c, 1, 48, 90
3, 146176, Note_off_c, 1, 60, 100
3, 146176, Note_off_c, 1, 48, 100
3, 146304, Note_on_c, 1, 63, 90
3, 146304, Note_on_c, 1, 51, 90
3, 146560, Note_off_c, 1, 63, 100
3, 146560, Note_off_c, 1, 51, 100
3, 147072, Note_on_c, 1, 57, 90
3, 147072, Note_on_c, 1, 45, 90
3, 147328, Note_off_c, 1, 57, 100
3, 147328, Note_off_c, 1, 45, 100
3, 147456, Note_on_c, 1, 46, 90
3, 147456, Note_on_c, 1, 58, 90
3, 147712, Note_off_c, 1, 46, 100
3, 147712, Note_off_c, 1, 58, 100
3, 147840, Note_on_c, 1, 62, 90
3, 147840, Note_on_c, 1, 50, 90
3, 148096, Note_off_c, 1, 62, 100
3, 148096, Note_off_c, 1, 50, 100
3, 148608, Note_on_c, 1, 50, 90
3, 148608, Note_on_c, 1, 58, 90
3, 148864, Note_off_c, 1, 50, 100
3, 148864, Note_off_c, 1, 58, 100
3, 148992, Note_on_c, 1, 58, 90
3, 148992, Note_on_c, 1, 51, 90
3, 149248, Note_off_c, 1, 58, 100
3, 149248, Note_off_c, 1, 51, 100
3, 149376, Note_on_c, 1, 55, 90
3, 149376, Note_on_c, 1, 58, 90
3, 149632, Note_off_c, 1, 55, 100
3, 149888, Note_off_c, 1, 58, 100
3, 150144, Note_on_c, 1, 58, 90
3, 150144, Note_on_c, 1, 53, 90
3, 150400, Note_off_c, 1, 58, 100
3, 150528, Note_on_c, 1, 58, 90
3, 150528, Note_on_c, 1, 46, 90
3, 150656, Note_off_c, 1, 53, 100
3, 150784, Note_off_c, 1, 58, 100
3, 150784, Note_off_c, 1, 46, 100
3, 153984, Note_on_c, 1, 46, 60
3, 153984, Note_on_c, 1, 58, 60
3, 154240, Note_off_c, 1, 46, 100
3, 154240, Note_off_c, 1, 58, 100
3, 154368, Note_on_c, 1, 60, 60
3, 154368, Note_on_c, 1, 48, 60
3, 154624, Note_off_c, 1, 60, 100
3, 154624, Note_off_c, 1, 48, 100
3, 154752, Note_on_c, 1, 57, 60
3, 154752, Note_on_c, 1, 45, 60
3, 155008, Note_off_c, 1, 57, 100
3, 155008, Note_off_c, 1, 45, 100
3, 155136, Note_on_c, 1, 58, 60
3, 155136, Note_on_c, 1, 46, 60
3, 155392, Note_off_c, 1, 58, 100
3, 155392, Note_off_c, 1, 46, 100
3, 155520, Note_on_c, 1, 51, 60
3, 155776, Note_off_c, 1, 51, 100
3, 155904, Note_on_c, 1, 53, 60
3, 156160, Note_off_c, 1, 53, 100
3, 156288, Note_on_c, 1, 41, 60
3, 156544, Note_off_c, 1, 41, 100
3, 156672, Note_on_c, 1, 46, 60
3, 156928, Note_off_c, 1, 46, 100
3, 157056, Note_on_c, 1, 50, 60
3, 157056, Note_on_c, 1, 38, 60
3, 157312, Note_off_c, 1, 50, 100
3, 157312, Note_off_c, 1, 38, 100
3, 157440, Note_on_c, 1, 39, 60
3, 157440, Note_on_c, 1, 51, 60
3, 157696, Note_off_c, 1, 39, 100
3, 157696, Note_off_c, 1, 51, 100
3, 157824, Note_on_c, 1, 50, 60
3, 157824, Note_on_c, 1, 38, 60
3, 158080, Note_off_c, 1, 50, 100
3, 158080, Note_off_c, 1, 38, 100
3, 158208, Note_on_c, 1, 51, 60
3, 158208, Note_on_c, 1, 39, 60
3, 158464, Note_off_c, 1, 51, 100
3, 158464, Note_off_c, 1, 39, 100
3, 158976, Note_on_c, 1, 53, 60
3, 158976, Note_on_c, 1, 62, 60
3, 159232, Note_off_c, 1, 62, 100
3, 159360, Note_on_c, 1, 63, 60
3, 159488, Note_off_c, 1, 53, 100
3, 159616, Note_off_c, 1, 63, 100
3, 159744, Note_on_c, 1, 62, 60
3, 159744, Note_on_c, 1, 58, 60
3, 160000, Note_off_c, 1, 62, 100
3, 160000, Note_off_c, 1, 58, 100
3, 160128, Note_on_c, 1, 38, 90
3, 160128, Note_on_c, 1, 50, 60
3, 160384, Note_off_c, 1, 38, 100
3, 160384, Note_off_c, 1, 50, 100
3, 160512, Note_on_c, 1, 39, 90
3, 160512, Note_on_c, 1, 51, 90
3, 160768, Note_off_c, 1, 39, 100
3, 160768, Note_off_c, 1, 51, 100
3, 160896, Note_on_c, 1, 38, 90
3, 160896, Note_on_c, 1, 50, 90
3, 161152, Note_off_c, 1, 38, 100
3, 161152, Note_off_c, 1, 50, 100
3, 161280, Note_on_c, 1, 39, 90
3, 161280, Note_on_c, 1, 51, 90
3, 161536, Note_off_c, 1, 39, 100
3, 161536, Note_off_c, 1, 51, 100
3, 162048, Note_on_c, 1, 53, 60
3, 162048, Note_on_c, 1, 62, 60
3, 162304, Note_off_c, 1, 62, 100
3, 162432, Note_on_c, 1, 63, 60
3, 162560, Note_off_c, 1, 53, 100
3, 162688, Note_off_c, 1, 63, 100
3, 162816, Note_on_c, 1, 58, 60
3, 162816, Note_on_c, 1, 62, 60
3, 163072, Note_off_c, 1, 58, 100
3, 163072, Note_off_c, 1, 62, 100
3, 163200, Note_on_c, 1, 53, 60
3, 163200, Note_on_c, 1, 63, 60
3, 163456, Note_off_c, 1, 53, 100
3, 163456, Note_off_c, 1, 63, 100
3, 163584, Note_on_c, 1, 58, 60
3, 163584, Note_on_c, 1, 62, 60
3, 163840, Note_off_c, 1, 58, 100
3, 163840, Note_off_c, 1, 62, 100
3, 163968, Note_on_c, 1, 53, 60
3, 163968, Note_on_c, 1, 63, 60
3, 164224, Note_off_c, 1, 53, 100
3, 164224, Note_off_c, 1, 63, 100
3, 164352, Note_on_c, 1, 58, 60
3, 164352, Note_on_c, 1, 62, 60
3, 164608, Note_off_c, 1, 58, 100
3, 164608, Note_off_c, 1, 62, 100
3, 165504, Note_on_c, 1, 53, 90
3, 165504, Note_on_c, 1, 51, 90
3, 165536, Note_off_c, 1, 51, 100
3, 165760, Note_off_c, 1, 53, 100
3, 165888, Note_on_c, 1, 55, 90
3, 165888, Note_on_c, 1, 56, 90
3, 165920, Note_off_c, 1, 55, 100
3, 166144, Note_off_c, 1, 56, 100
3, 173568, Note_on_c, 1, 63, 90
3, 173696, Note_off_c, 1, 63, 100
3, 173760, Note_on_c, 1, 65, 90
3, 173888, Note_off_c, 1, 65, 100
3, 173952, Note_on_c, 1, 62, 90
3, 174080, Note_off_c, 1, 62, 100
3, 174144, Note_on_c, 1, 63, 90
3, 174272, Note_off_c, 1, 63, 100
3, 174336, Note_on_c, 1, 58, 90
3, 174464, Note_off_c, 1, 58, 100
3, 174528, Note_on_c, 1, 62, 90
3, 174656, Note_off_c, 1, 62, 100
3, 174720, Note_on_c, 1, 58, 90
3, 174848, Note_off_c, 1, 58, 100
3, 174912, Note_on_c, 1, 60, 90
3, 175040, Note_off_c, 1, 60, 100
3, 175104, Note_on_c, 1, 56, 90
3, 175232, Note_off_c, 1, 56, 100
3, 175296, Note_on_c, 1, 60, 90
3, 175424, Note_off_c, 1, 60, 100
3, 175488, Note_on_c, 1, 62, 90
3, 175616, Note_off_c, 1, 62, 100
3, 175680, Note_on_c, 1, 64, 90
3, 175808, Note_off_c, 1, 64, 100
3, 175872, Note_on_c, 1, 65, 90
3, 176000, Note_off_c, 1, 65, 100
3, 176064, Note_on_c, 1, 63, 90
3, 176192, Note_off_c, 1, 63, 100
3, 176256, Note_on_c, 1, 62, 90
3, 176384, Note_off_c, 1, 62, 100
3, 176448, Note_on_c, 1, 60, 90
3, 176576, Note_off_c, 1, 60, 100
3, 176640, Note_on_c, 1, 58, 90
3, 176768, Note_off_c, 1, 58, 100
3, 176832, Note_on_c, 1, 56, 90
3, 176960, Note_off_c, 1, 56, 100
3, 177024, Note_on_c, 1, 55, 90
3, 177152, Note_off_c, 1, 55, 100
3, 177216, Note_on_c, 1, 51, 90
3, 177344, Note_off_c, 1, 51, 100
3, 177408, Note_on_c, 1, 56, 90
3, 177536, Note_off_c, 1, 56, 100
3, 177600, Note_on_c, 1, 53, 90
3, 177728, Note_off_c, 1, 53, 100
3, 177792, Note_on_c, 1, 58, 90
3, 177920, Note_off_c, 1, 58, 100
3, 177984, Note_on_c, 1, 56, 90
3, 178112, Note_off_c, 1, 56, 100
3, 178176, Note_on_c, 1, 55, 90
3, 178304, Note_off_c, 1, 55, 100
3, 178368, Note_on_c, 1, 56, 90
3, 178496, Note_off_c, 1, 56, 100
3, 178560, Note_on_c, 1, 55, 90
3, 178688, Note_off_c, 1, 55, 100
3, 178752, Note_on_c, 1, 53, 90
3, 178880, Note_off_c, 1, 53, 100
3, 178944, Note_on_c, 1, 51, 90
3, 179072, Note_off_c, 1, 51, 100
3, 179136, Note_on_c, 1, 55, 90
3, 179264, Note_off_c, 1, 55, 100
3, 179328, Note_on_c, 1, 58, 90
3, 179456, Note_off_c, 1, 58, 100
3, 179520, Note_on_c, 1, 62, 90
3, 179648, Note_off_c, 1, 62, 100
3, 179712, Note_on_c, 1, 63, 90
3, 179840, Note_off_c, 1, 63, 100
3, 196224, Note_on_c, 1, 51, 90
3, 196224, Note_on_c, 1, 60, 90
3, 196352, Note_off_c, 1, 60, 100
3, 196416, Note_on_c, 1, 63, 90
3, 196480, Note_off_c, 1, 51, 100
3, 196544, Note_off_c, 1, 63, 100
3, 196608, Note_on_c, 1, 53, 90
3, 196608, Note_on_c, 1, 62, 90
3, 196864, Note_off_c, 1, 62, 100
3, 196992, Note_on_c, 1, 60, 90
3, 197120, Note_off_c, 1, 53, 100
3, 197248, Note_off_c, 1, 60, 100
3, 198144, Note_on_c, 1, 43, 90
3, 198192, Note_off_c, 1, 43, 100
3, 198272, Note_on_c, 1, 46, 90
3, 198320, Note_off_c, 1, 46, 100
3, 198400, Note_on_c, 1, 51, 90
3, 198448, Note_off_c, 1, 51, 100
3, 198528, Note_on_c, 1, 55, 90
3, 198576, Note_off_c, 1, 55, 100
3, 198656, Note_on_c, 1, 58, 90
3, 198704, Note_off_c, 1, 58, 100
3, 198784, Note_on_c, 1, 63, 90
3, 198832, Note_off_c, 1, 63, 100
3, 198912, Note_on_c, 1, 67, 90
3, 199168, Note_off_c, 1, 67, 100
3, 199680, Note_on_c, 1, 65, 90
3, 199728, Note_off_c, 1, 65, 100
3, 199808, Note_on_c, 1, 60, 90
3, 199856, Note_off_c, 1, 60, 100
3, 199936, Note_on_c, 1, 57, 90
3, 199984, Note_off_c, 1, 57, 100
3, 200064, Note_on_c, 1, 53, 90
3, 200112, Note_off_c, 1, 53, 100
3, 200192, Note_on_c, 1, 48, 90
3, 200240, Note_off_c, 1, 48, 100
3, 200320, Note_on_c, 1, 45, 90
3, 200368, Note_off_c, 1, 45, 100
3, 200448, Note_on_c, 1, 41, 90
3, 200704, Note_off_c, 1, 41, 100
3, 201216, Note_on_c, 1, 43, 90
3, 201264, Note_off_c, 1, 43, 100
3, 201344, Note_on_c, 1, 46, 90
3, 201392, Note_off_c, 1, 46, 100
3, 201472, Note_on_c, 1, 51, 90
3, 201520, Note_off_c, 1, 51, 100
3, 201600, Note_on_c, 1, 55, 90
3, 201648, Note_off_c, 1, 55, 100
3, 201728, Note_on_c, 1, 58, 90
3, 201776, Note_off_c, 1, 58, 100
3, 201856, Note_on_c, 1, 63, 90
3, 201904, Note_off_c, 1, 63, 100
3, 201984, Note_on_c, 1, 67, 90
3, 202240, Note_off_c, 1, 67, 100
3, 202752, Note_on_c, 1, 53, 90
3, 202764, Note_on_c, 1, 57, 90
3, 202780, Note_on_c, 1, 60, 90
3, 203008, Note_off_c, 1, 53, 100
3, 203020, Note_off_c, 1, 57, 100
3, 203036, Note_off_c, 1, 60, 100
3, 222720, Note_on_c, 1, 58, 79
3, 222768, Note_off_c, 1, 58, 100
3, 222848, Note_on_c, 1, 62, 79
3, 222896, Note_off_c, 1, 62, 100
3, 222976, Note_on_c, 1, 65, 79
3, 223024, Note_off_c, 1, 65, 100
3, 223104, Note_on_c, 1, 58, 79
3, 223152, Note_off_c, 1, 58, 100
3, 223232, Note_on_c, 1, 62, 79
3, 223280, Note_off_c, 1, 62, 100
3, 223360, Note_on_c, 1, 65, 79
3, 223408, Note_off_c, 1, 65, 100
3, 223488, Note_on_c, 1, 57, 79
3, 223536, Note_off_c, 1, 57, 100
3, 223616, Note_on_c, 1, 60, 79
3, 223664, Note_off_c, 1, 60, 100
3, 223744, Note_on_c, 1, 65, 79
3, 223792, Note_off_c, 1, 65, 100
3, 223872, Note_on_c, 1, 57, 79
3, 223920, Note_off_c, 1, 57, 100
3, 224000, Note_on_c, 1, 60, 79
3, 224048, Note_off_c, 1, 60, 100
3, 224128, Note_on_c, 1, 65, 79
3, 224176, Note_off_c, 1, 65, 100
3, 224256, Note_on_c, 1, 51, 79
3, 224304, Note_off_c, 1, 51, 100
3, 224384, Note_on_c, 1, 53, 79
3, 224432, Note_off_c, 1, 53, 100
3, 224512, Note_on_c, 1, 57, 79
3, 224560, Note_off_c, 1, 57, 100
3, 224640, Note_on_c, 1, 51, 79
3, 224688, Note_off_c, 1, 51, 100
3, 224768, Note_on_c, 1, 53, 79
3, 224816, Note_off_c, 1, 53, 100
3, 224896, Note_on_c, 1, 57, 79
3, 224944, Note_off_c, 1, 57, 100
3, 225024, Note_on_c, 1, 50, 79
3, 225072, Note_off_c, 1, 50, 100
3, 225152, Note_on_c, 1, 53, 79
3, 225200, Note_off_c, 1, 53, 100
3, 225280, Note_on_c, 1, 58, 79
3, 225328, Note_off_c, 1, 58, 100
3, 225408, Note_on_c, 1, 53, 79
3, 225456, Note_off_c, 1, 53, 100
3, 225536, Note_on_c, 1, 50, 79
3, 225584, Note_off_c, 1, 50, 100
3, 225664, Note_on_c, 1, 46, 79
3, 225712, Note_off_c, 1, 46, 100
3, 225792, Note_on_c, 1, 50, 60
3, 226048, Note_off_c, 1, 50, 100
3, 227328, Note_on_c, 1, 51, 69
3, 227584, Note_off_c, 1, 51, 100
3, 254592, Note_on_c, 1, 59, 90
3, 254592, Note_on_c, 1, 47, 90
3, 254848, Note_off_c, 1, 59, 100
3, 254848, Note_off_c, 1, 47, 100
3, 254976, Note_on_c, 1, 60, 90
3, 254976, Note_on_c, 1, 48, 90
3, 255232, Note_off_c, 1, 60, 100
3, 255232, Note_off_c, 1, 48, 100
3, 255360, Note_on_c, 1, 63, 90
3, 255360, Note_on_c, 1, 51, 90
3, 255616, Note_off_c, 1, 63, 100
3, 255616, Note_off_c, 1, 51, 100
3, 256128, Note_on_c, 1, 57, 90
3, 256128, Note_on_c, 1, 45, 90
3, 256384, Note_off_c, 1, 57, 100
3, 256384, Note_off_c, 1, 45, 100
3, 256512, Note_on_c, 1, 58, 90
3, 256512, Note_on_c, 1, 46, 90
3, 256768, Note_off_c, 1, 58, 100
3, 256768, Note_off_c, 1, 46, 100
3, 256896, Note_on_c, 1, 62, 90
3, 256896, Note_on_c, 1, 50, 90
3, 257152, Note_off_c, 1, 62, 100
3, 257152, Note_off_c, 1, 50, 100
3, 257664, Note_on_c, 1, 58, 90
3, 257664, Note_on_c, 1, 50, 90
3, 257920, Note_off_c, 1, 58, 100
3, 257920, Note_off_c, 1, 50, 100
3, 258048, Note_on_c, 1, 58, 90
3, 258048, Note_on_c, 1, 51, 90
3, 258304, Note_off_c, 1, 58, 100
3, 258304, Note_off_c, 1, 51, 100
3, 258432, Note_on_c, 1, 55, 90
3, 258432, Note_on_c, 1, 58, 90
3, 258688, Note_off_c, 1, 55, 100
3, 258816, Note_on_c, 1, 53, 90
3, 258944, Note_off_c, 1, 58, 100
3, 259200, Note_on_c, 1, 57, 90
3, 259328, Note_off_c, 1, 53, 100
3, 259456, Note_off_c, 1, 57, 100
3, 259584, Note_on_c, 1, 58, 90
3, 259584, Note_on_c, 1, 46, 90
3, 259840, Note_off_c, 1, 58, 100
3, 259840, Note_off_c, 1, 46, 100
3, 263040, Note_on_c, 1, 58, 90
3, 263040, Note_on_c, 1, 46, 90
3, 263296, Note_off_c, 1, 58, 100
3, 263296, Note_off_c, 1, 46, 100
3, 263424, Note_on_c, 1, 60, 90
3, 263424, Note_on_c, 1, 48, 90
3, 263680, Note_off_c, 1, 60, 100
3, 263680, Note_off_c, 1, 48, 100
3, 263808, Note_on_c, 1, 57, 90
3, 263808, Note_on_c, 1, 45, 90
3, 264064, Note_off_c, 1, 57, 100
3, 264064, Note_off_c, 1, 45, 100
3, 264192, Note_on_c, 1, 58, 90
3, 264192, Note_on_c, 1, 46, 90
3, 264448, Note_off_c, 1, 58, 100
3, 264448, Note_off_c, 1, 46, 100
3, 264576, Note_on_c, 1, 51, 90
3, 264832, Note_off_c, 1, 51, 100
3, 264960, Note_on_c, 1, 53, 90
3, 265216, Note_off_c, 1, 53, 100
3, 265344, Note_on_c, 1, 41, 90
3, 265600, Note_off_c, 1, 41, 100
3, 265728, Note_on_c, 1, 46, 90
3, 265984, Note_off_c, 1, 46, 100
3, 266112, Note_on_c, 1, 50, 90
3, 266112, Note_on_c, 1, 38, 90
3, 266368, Note_off_c, 1, 50, 100
3, 266368, Note_off_c, 1, 38, 100
3, 266496, Note_on_c, 1, 51, 90
3, 266496, Note_on_c, 1, 39, 90
3, 266752, Note_off_c, 1, 51, 100
3, 266752, Note_off_c, 1, 39, 100
3, 266880, Note_on_c, 1, 39, 90
3, 266880, Note_on_c, 1, 50, 90
3, 267136, Note_off_c, 1, 39, 100
3, 267136, Note_off_c, 1, 50, 100
3, 267264, Note_on_c, 1, 51, 90
3, 267264, Note_on_c, 1, 39, 90
3, 267520, Note_off_c, 1, 51, 100
3, 267520, Note_off_c, 1, 39, 100
3, 268032, Note_on_c, 1, 53, 60
3, 268032, Note_on_c, 1, 62, 60
3, 268288, Note_off_c, 1, 62, 100
3, 268416, Note_on_c, 1, 63, 60
3, 268544, Note_off_c, 1, 53, 100
3, 268672, Note_off_c, 1, 63, 100
3, 268800, Note_on_c, 1, 62, 60
3, 268800, Note_on_c, 1, 58, 60
3, 269056, Note_off_c, 1, 62, 100
3, 269056, Note_off_c, 1, 58, 100
3, 269184, Note_on_c, 1, 38, 90
3, 269184, Note_on_c, 1, 50, 90
3, 269440, Note_off_c, 1, 38, 100
3, 269440, Note_off_c, 1, 50, 100
3, 269568, Note_on_c, 1, 39, 90
3, 269568, Note_on_c, 1, 51, 90
3, 269824, Note_off_c, 1, 39, 100
3, 269824, Note_off_c, 1, 51, 100
3, 269952, Note_on_c, 1, 50, 90
3, 269952, Note_on_c, 1, 38, 90
3, 270208, Note_off_c, 1, 50, 100
3, 270208, Note_off_c, 1, 38, 100
3, 270336, Note_on_c, 1, 51, 90
3, 270336, Note_on_c, 1, 39, 90
3, 270592, Note_off_c, 1, 51, 100
3, 270592, Note_off_c, 1, 39, 100
3, 271104, Note_on_c, 1, 53, 60
3, 271104, Note_on_c, 1, 62, 60
3, 271360, Note_off_c, 1, 62, 100
3, 271488, Note_on_c, 1, 63, 60
3, 271616, Note_off_c, 1, 53, 100
3, 271744, Note_off_c, 1, 63, 100
3, 271872, Note_on_c, 1, 58, 60
3, 271872, Note_on_c, 1, 62, 60
3, 272128, Note_off_c, 1, 58, 100
3, 272128, Note_off_c, 1, 62, 100
3, 272256, Note_on_c, 1, 53, 60
3, 272256, Note_on_c, 1, 63, 60
3, 272512, Note_off_c, 1, 53, 100
3, 272512, Note_off_c, 1, 63, 100
3, 272640, Note_on_c, 1, 58, 60
3, 272640, Note_on_c, 1, 62, 60
3, 272896, Note_off_c, 1, 58, 100
3, 272896, Note_off_c, 1, 62, 100
3, 273024, Note_on_c, 1, 53, 60
3, 273024, Note_on_c, 1, 63, 60
3, 273280, Note_off_c, 1, 53, 100
3, 273280, Note_off_c, 1, 63, 100
3, 273408, Note_on_c, 1, 58, 60
3, 273408, Note_on_c, 1, 62, 60
3, 273664, Note_off_c, 1, 58, 100
3, 273664, Note_off_c, 1, 62, 100
3, 274176, Note_on_c, 1, 53, 49
3, 274176, Note_on_c, 1, 63, 49
3, 274432, Note_off_c, 1, 53, 100
3, 274432, Note_off_c, 1, 63, 100
3, 274944, Note_on_c, 1, 58, 60
3, 274944, Note_on_c, 1, 62, 60
3, 275200, Note_off_c, 1, 58, 100
3, 275200, Note_off_c, 1, 62, 100
3, 276096, Note_on_c, 1, 53, 60
3, 276096, Note_on_c, 1, 63, 60
3, 276352, Note_off_c, 1, 53, 100
3, 276352, Note_off_c, 1, 63, 100
3, 276480, Note_on_c, 1, 58, 60
3, 276480, Note_on_c, 1, 62, 60
3, 276736, Note_off_c, 1, 58, 100
3, 276736, Note_off_c, 1, 62, 100
3, 277632, Note_on_c, 1, 52, 90
3, 277664, Note_off_c, 1, 52, 100
3, 277680, Note_on_c, 1, 53, 90
3, 277936, Note_off_c, 1, 53, 100
3, 278016, Note_on_c, 1, 57, 90
3, 278048, Note_off_c, 1, 57, 100
3, 278064, Note_on_c, 1, 58, 90
3, 278320, Note_off_c, 1, 58, 100
3, 278320, End_track
4, 0, Start_track
4, 0, Title_t, "K281 -c -Rondo"
4, 0, Key_signature, -2, "major"
4, 0, End_track
5, 0, Start_track
5, 0, Title_t, "Midi by:"
5, 0, Key_signature, -2, "major"
5, 0, End_track
6, 0, Start_track
6, 0, Title_t, "B.Fisher"
6, 0, Key_signature, -2, "major"
6, 0, End_track
7, 0, Start_track
7, 0, Key_signature, -2, "major"
7, 0, End_track
8, 0, Start_track
8, 0, Key_signature, -2, "major"
8, 0, End_track
9, 0, Start_track
9, 0, Key_signature, -2, "major"
9, 0, End_track
10, 0, Start_track
10, 0, Key_signature, -2, "major"
10, 0, End_track
11, 0, Start_track
11, 0, Key_signature, -2, "major"
11, 0, End_track
12, 0, Start_track
12, 0, Key_signature, -2, "major"
12, 0, End_track
13, 0, Start_track
13, 0, Key_signature, -2, "major"
13, 0, End_track
14, 0, Start_track
14, 0, Key_signature, -2, "major"
14, 0, End_track
15, 0, Start_track
15, 0, Key_signature, -2, "major"
15, 0, End_track
16, 0, Start_track
16, 0, Key_signature, -2, "major"
16, 0, End_track
0, 0, End_of_file
