0, 0, Header, 1, 6, 384
1, 0, Start_track
1, 0, Sequencer_specific, 3, 0, 0, 65
1, 0, Time_signature, 3, 2, 24, 8
1, 0, Key_signature, 0, "major"
1, 0, Tempo, 1000000
1, 48384, Tempo, 1071429
1, 49536, Tempo, 1000000
1, 71424, Tempo, 1200000
1, 73728, Tempo, 1000000
1, 115200, Tempo, 1090909
1, 116352, Tempo, 1000000
1, 119808, Tempo, 1200000
1, 120960, Tempo, 882353
1, 124416, Tempo, 1304348
1, 124800, Tempo, 882353
1, 130176, Tempo, 1304348
1, 130560, Tempo, 1000000
1, 140544, Tempo, 1071429
1, 142848, Tempo, 1000000
1, 142848, End_track
2, 0, Start_track
2, 0, MIDI_port, 0
2, 0, Title_t, "Mozart - Violin"
2, 0, Control_c, 0, 0, 0
2, 0, Control_c, 0, 32, 0
2, 0, Program_c, 0, 40
2, 0, Control_c, 0, 7, 127
2, 0, Control_c, 0, 10, 66
2, 0, Control_c, 0, 91, 72
2, 0, Control_c, 0, 93, 40
2, 0, Control_c, 0, 121, 0
2, 192, Control_c, 0, 10, 63
2, 384, Control_c, 0, 91, 73
2, 480, Control_c, 0, 93, 35
2, 576, Program_c, 0, 40
2, 672, Control_c, 0, 1, 55
2, 10368, Note_on_c, 0, 74, 68
2, 11132, Note_on_c, 0, 74, 0
2, 11136, Note_on_c, 0, 76, 68
2, 11424, Note_on_c, 0, 76, 0
2, 11424, Note_on_c, 0, 72, 74
2, 11504, Note_on_c, 0, 72, 0
2, 11520, Note_on_c, 0, 74, 68
2, 11808, Note_on_c, 0, 74, 0
2, 11808, Note_on_c, 0, 71, 74
2, 11888, Note_on_c, 0, 71, 0
2, 11904, Note_on_c, 0, 79, 68
2, 12288, Note_on_c, 0, 79, 68
2, 12292, Note_on_c, 0, 79, 0
2, 12668, Note_on_c, 0, 79, 0
2, 12672, Note_on_c, 0, 83, 68
2, 12864, Note_on_c, 0, 83, 0
2, 12864, Note_on_c, 0, 78, 68
2, 13052, Note_on_c, 0, 78, 0
2, 13056, Note_on_c, 0, 79, 68
2, 13244, Note_on_c, 0, 79, 0
2, 13248, Note_on_c, 0, 75, 68
2, 13436, Note_on_c, 0, 75, 0
2, 13440, Note_on_c, 0, 76, 68
2, 13628, Note_on_c, 0, 76, 0
2, 13632, Note_on_c, 0, 79, 68
2, 13812, Note_on_c, 0, 79, 0
2, 13824, Note_on_c, 0, 73, 68
2, 14016, Note_on_c, 0, 73, 0
2, 14016, Note_on_c, 0, 74, 68
2, 14204, Note_on_c, 0, 74, 0
2, 14208, Note_on_c, 0, 76, 68
2, 14396, Note_on_c, 0, 76, 0
2, 14400, Note_on_c, 0, 72, 68
2, 14588, Note_on_c, 0, 72, 0
2, 14592, Note_on_c, 0, 70, 68
2, 14780, Note_on_c, 0, 70, 0
2, 14784, Note_on_c, 0, 71, 68
2, 14964, Note_on_c, 0, 71, 0
2, 14976, Note_on_c, 0, 69, 68
2, 15264, Note_on_c, 0, 69, 0
2, 15264, Note_on_c, 0, 81, 74
2, 15344, Note_on_c, 0, 81, 0
2, 15360, Note_on_c, 0, 81, 68
2, 15936, Note_on_c, 0, 81, 0
2, 15936, Note_on_c, 0, 79, 68
2, 16116, Note_on_c, 0, 79, 0
2, 16128, Note_on_c, 0, 79, 68
2, 16416, Note_on_c, 0, 79, 0
2, 16416, Note_on_c, 0, 78, 74
2, 16496, Note_on_c, 0, 78, 0
2, 16512, Note_on_c, 0, 78, 68
2, 17088, Note_on_c, 0, 78, 0
2, 17088, Note_on_c, 0, 76, 68
2, 17268, Note_on_c, 0, 76, 0
2, 17280, Note_on_c, 0, 74, 68
2, 17472, Note_on_c, 0, 74, 0
2, 17472, Note_on_c, 0, 73, 68
2, 17660, Note_on_c, 0, 73, 0
2, 17664, Note_on_c, 0, 72, 68
2, 17852, Note_on_c, 0, 72, 0
2, 17856, Note_on_c, 0, 69, 68
2, 18044, Note_on_c, 0, 69, 0
2, 18048, Note_on_c, 0, 71, 68
2, 18236, Note_on_c, 0, 71, 0
2, 18240, Note_on_c, 0, 76, 68
2, 18420, Note_on_c, 0, 76, 0
2, 18432, Note_on_c, 0, 67, 74
2, 19200, Note_on_c, 0, 67, 0
2, 19200, Note_on_c, 0, 66, 74
2, 19380, Note_on_c, 0, 66, 0
2, 19584, Note_on_c, 0, 81, 68
2, 20352, Note_on_c, 0, 81, 0
2, 20352, Note_on_c, 0, 79, 68
2, 20444, Note_on_c, 0, 79, 0
2, 20448, Note_on_c, 0, 78, 68
2, 20540, Note_on_c, 0, 78, 0
2, 20544, Note_on_c, 0, 76, 68
2, 20636, Note_on_c, 0, 76, 0
2, 20640, Note_on_c, 0, 74, 74
2, 20720, Note_on_c, 0, 74, 0
2, 20736, Note_on_c, 0, 76, 68
2, 21120, Note_on_c, 0, 76, 0
2, 21120, Note_on_c, 0, 73, 68
2, 21500, Note_on_c, 0, 73, 0
2, 21504, Note_on_c, 0, 74, 68
2, 21684, Note_on_c, 0, 74, 0
2, 21792, Note_on_c, 0, 78, 74
2, 21840, Note_on_c, 0, 78, 0
2, 21888, Note_on_c, 0, 76, 68
2, 22272, Note_on_c, 0, 76, 0
2, 22272, Note_on_c, 0, 73, 68
2, 22652, Note_on_c, 0, 73, 0
2, 22656, Note_on_c, 0, 74, 68
2, 22836, Note_on_c, 0, 74, 0
2, 22944, Note_on_c, 0, 83, 74
2, 22992, Note_on_c, 0, 83, 0
2, 23040, Note_on_c, 0, 81, 69
2, 23808, Note_on_c, 0, 81, 0
2, 23808, Note_on_c, 0, 80, 68
2, 24180, Note_on_c, 0, 80, 0
2, 24192, Note_on_c, 0, 79, 68
2, 24672, Note_on_c, 0, 79, 0
2, 24672, Note_on_c, 0, 83, 68
2, 24764, Note_on_c, 0, 83, 0
2, 24768, Note_on_c, 0, 81, 68
2, 24860, Note_on_c, 0, 81, 0
2, 24864, Note_on_c, 0, 79, 74
2, 24944, Note_on_c, 0, 79, 0
2, 24960, Note_on_c, 0, 78, 68
2, 25056, Note_on_c, 0, 78, 0
2, 25056, Note_on_c, 0, 81, 68
2, 25148, Note_on_c, 0, 81, 0
2, 25152, Note_on_c, 0, 79, 68
2, 25244, Note_on_c, 0, 79, 0
2, 25248, Note_on_c, 0, 78, 74
2, 25328, Note_on_c, 0, 78, 0
2, 25344, Note_on_c, 0, 76, 68
2, 25824, Note_on_c, 0, 76, 0
2, 25824, Note_on_c, 0, 79, 68
2, 25916, Note_on_c, 0, 79, 0
2, 25920, Note_on_c, 0, 78, 68
2, 26012, Note_on_c, 0, 78, 0
2, 26016, Note_on_c, 0, 76, 68
2, 26096, Note_on_c, 0, 76, 0
2, 26112, Note_on_c, 0, 74, 68
2, 26208, Note_on_c, 0, 74, 0
2, 26208, Note_on_c, 0, 78, 68
2, 26300, Note_on_c, 0, 78, 0
2, 26304, Note_on_c, 0, 76, 68
2, 26396, Note_on_c, 0, 76, 0
2, 26400, Note_on_c, 0, 74, 68
2, 26480, Note_on_c, 0, 74, 0
2, 26496, Note_on_c, 0, 73, 68
2, 26880, Note_on_c, 0, 73, 0
2, 26880, Note_on_c, 0, 74, 82
2, 26944, Note_on_c, 0, 74, 0
2, 27008, Note_on_c, 0, 76, 79
2, 27072, Note_on_c, 0, 76, 0
2, 27136, Note_on_c, 0, 78, 75
2, 27200, Note_on_c, 0, 78, 0
2, 27264, Note_on_c, 0, 79, 73
2, 27328, Note_on_c, 0, 79, 0
2, 27392, Note_on_c, 0, 81, 71
2, 27456, Note_on_c, 0, 81, 0
2, 27520, Note_on_c, 0, 83, 68
2, 27576, Note_on_c, 0, 83, 0
2, 27648, Note_on_c, 0, 79, 68
2, 27840, Note_on_c, 0, 79, 0
2, 27840, Note_on_c, 0, 78, 74
2, 27860, Note_on_c, 0, 78, 0
2, 27864, Note_on_c, 0, 79, 74
2, 27884, Note_on_c, 0, 79, 0
2, 27888, Note_on_c, 0, 78, 74
2, 27908, Note_on_c, 0, 78, 0
2, 27912, Note_on_c, 0, 79, 74
2, 27932, Note_on_c, 0, 79, 0
2, 27936, Note_on_c, 0, 76, 74
2, 27980, Note_on_c, 0, 76, 0
2, 27984, Note_on_c, 0, 78, 74
2, 28028, Note_on_c, 0, 78, 0
2, 28032, Note_on_c, 0, 76, 68
2, 28412, Note_on_c, 0, 76, 0
2, 31092, Control_c, 0, 1, 55
2, 31096, Control_c, 0, 64, 127
2, 31104, Note_on_c, 0, 81, 75
2, 33020, Note_on_c, 0, 81, 0
2, 33396, Control_c, 0, 64, 0
2, 33408, Note_on_c, 0, 84, 68
2, 33600, Note_on_c, 0, 84, 0
2, 33696, Note_on_c, 0, 83, 74
2, 33776, Note_on_c, 0, 83, 0
2, 33792, Note_on_c, 0, 84, 73
2, 33984, Note_on_c, 0, 84, 0
2, 34080, Note_on_c, 0, 83, 77
2, 34160, Note_on_c, 0, 83, 0
2, 34176, Note_on_c, 0, 84, 81
2, 34368, Note_on_c, 0, 84, 0
2, 34464, Note_on_c, 0, 83, 90
2, 34544, Note_on_c, 0, 83, 0
2, 34560, Note_on_c, 0, 84, 84
2, 34944, Note_on_c, 0, 84, 0
2, 34944, Note_on_c, 0, 83, 79
2, 35124, Note_on_c, 0, 83, 0
2, 35616, Note_on_c, 0, 74, 95
2, 35696, Note_on_c, 0, 74, 0
2, 35712, Note_on_c, 0, 83, 90
2, 35900, Note_on_c, 0, 83, 0
2, 35904, Note_on_c, 0, 83, 90
2, 36288, Note_on_c, 0, 83, 0
2, 36288, Note_on_c, 0, 85, 90
2, 36384, Note_on_c, 0, 85, 0
2, 36384, Note_on_c, 0, 86, 90
2, 36472, Note_on_c, 0, 86, 0
2, 36480, Note_on_c, 0, 86, 90
2, 36576, Note_on_c, 0, 86, 0
2, 36576, Note_on_c, 0, 85, 90
2, 36668, Note_on_c, 0, 85, 0
2, 36672, Note_on_c, 0, 83, 90
2, 36764, Note_on_c, 0, 83, 0
2, 36768, Note_on_c, 0, 81, 95
2, 36848, Note_on_c, 0, 81, 0
2, 36864, Note_on_c, 0, 81, 90
2, 36960, Note_on_c, 0, 81, 0
2, 36960, Note_on_c, 0, 79, 95
2, 37040, Note_on_c, 0, 79, 0
2, 37056, Note_on_c, 0, 79, 90
2, 37440, Note_on_c, 0, 79, 0
2, 37440, Note_on_c, 0, 81, 90
2, 37532, Note_on_c, 0, 81, 0
2, 37536, Note_on_c, 0, 83, 95
2, 37616, Note_on_c, 0, 83, 0
2, 37632, Note_on_c, 0, 83, 90
2, 37728, Note_on_c, 0, 83, 0
2, 37728, Note_on_c, 0, 81, 90
2, 37820, Note_on_c, 0, 81, 0
2, 37824, Note_on_c, 0, 79, 90
2, 37916, Note_on_c, 0, 79, 0
2, 37920, Note_on_c, 0, 78, 95
2, 38000, Note_on_c, 0, 78, 0
2, 38016, Note_on_c, 0, 78, 90
2, 38112, Note_on_c, 0, 78, 0
2, 38112, Note_on_c, 0, 76, 90
2, 38204, Note_on_c, 0, 76, 0
2, 38208, Note_on_c, 0, 79, 90
2, 38300, Note_on_c, 0, 79, 0
2, 38304, Note_on_c, 0, 76, 95
2, 38384, Note_on_c, 0, 76, 0
2, 38400, Note_on_c, 0, 74, 90
2, 38784, Note_on_c, 0, 74, 0
2, 38784, Note_on_c, 0, 73, 90
2, 39156, Note_on_c, 0, 73, 0
2, 39168, Note_on_c, 0, 73, 90
2, 39360, Note_on_c, 0, 73, 0
2, 39360, Note_on_c, 0, 76, 90
2, 39452, Note_on_c, 0, 76, 0
2, 39456, Note_on_c, 0, 74, 95
2, 39536, Note_on_c, 0, 74, 0
2, 39552, Note_on_c, 0, 74, 90
2, 39932, Note_on_c, 0, 74, 0
2, 40320, Note_on_c, 0, 83, 68
2, 40508, Note_on_c, 0, 83, 0
2, 40512, Note_on_c, 0, 83, 68
2, 40896, Note_on_c, 0, 83, 0
2, 40896, Note_on_c, 0, 85, 68
2, 40992, Note_on_c, 0, 85, 0
2, 40992, Note_on_c, 0, 86, 68
2, 41080, Note_on_c, 0, 86, 0
2, 41088, Note_on_c, 0, 86, 68
2, 41184, Note_on_c, 0, 86, 0
2, 41184, Note_on_c, 0, 85, 68
2, 41276, Note_on_c, 0, 85, 0
2, 41280, Note_on_c, 0, 83, 68
2, 41372, Note_on_c, 0, 83, 0
2, 41376, Note_on_c, 0, 81, 74
2, 41456, Note_on_c, 0, 81, 0
2, 41472, Note_on_c, 0, 81, 68
2, 41568, Note_on_c, 0, 81, 0
2, 41568, Note_on_c, 0, 79, 74
2, 41648, Note_on_c, 0, 79, 0
2, 41664, Note_on_c, 0, 79, 68
2, 42048, Note_on_c, 0, 79, 0
2, 42048, Note_on_c, 0, 81, 68
2, 42140, Note_on_c, 0, 81, 0
2, 42144, Note_on_c, 0, 83, 74
2, 42224, Note_on_c, 0, 83, 0
2, 42240, Note_on_c, 0, 83, 68
2, 42336, Note_on_c, 0, 83, 0
2, 42336, Note_on_c, 0, 81, 68
2, 42428, Note_on_c, 0, 81, 0
2, 42432, Note_on_c, 0, 79, 68
2, 42524, Note_on_c, 0, 79, 0
2, 42528, Note_on_c, 0, 78, 74
2, 42608, Note_on_c, 0, 78, 0
2, 42624, Note_on_c, 0, 78, 68
2, 42720, Note_on_c, 0, 78, 0
2, 42720, Note_on_c, 0, 76, 68
2, 42812, Note_on_c, 0, 76, 0
2, 42816, Note_on_c, 0, 79, 68
2, 42908, Note_on_c, 0, 79, 0
2, 42912, Note_on_c, 0, 83, 74
2, 42992, Note_on_c, 0, 83, 0
2, 43008, Note_on_c, 0, 83, 76
2, 43100, Note_on_c, 0, 83, 0
2, 43104, Note_on_c, 0, 74, 68
2, 43384, Note_on_c, 0, 74, 0
2, 43392, Note_on_c, 0, 73, 68
2, 43680, Note_on_c, 0, 73, 0
2, 43680, Note_on_c, 0, 81, 74
2, 43760, Note_on_c, 0, 81, 0
2, 43776, Note_on_c, 0, 80, 68
2, 44160, Note_on_c, 0, 80, 0
2, 44160, Note_on_c, 0, 79, 68
2, 44540, Note_on_c, 0, 79, 0
2, 44544, Note_on_c, 0, 78, 68
2, 44916, Note_on_c, 0, 78, 0
2, 44928, Note_on_c, 0, 78, 68
2, 45020, Note_on_c, 0, 78, 0
2, 45024, Note_on_c, 0, 76, 68
2, 45116, Note_on_c, 0, 76, 0
2, 45120, Note_on_c, 0, 76, 68
2, 46076, Note_on_c, 0, 76, 0
2, 46080, Note_on_c, 0, 76, 78
2, 46176, Note_on_c, 0, 76, 0
2, 46176, Note_on_c, 0, 77, 82
2, 46256, Note_on_c, 0, 77, 0
2, 46272, Note_on_c, 0, 77, 80
2, 47232, Note_on_c, 0, 77, 0
2, 47232, Note_on_c, 0, 78, 90
2, 47420, Note_on_c, 0, 78, 0
2, 47424, Note_on_c, 0, 81, 90
2, 47804, Note_on_c, 0, 81, 0
2, 47808, Note_on_c, 0, 83, 90
2, 48000, Note_on_c, 0, 83, 0
2, 48000, Note_on_c, 0, 85, 90
2, 48188, Note_on_c, 0, 85, 0
2, 48192, Note_on_c, 0, 86, 90
2, 48372, Note_on_c, 0, 86, 0
2, 48384, Note_on_c, 0, 76, 90
2, 48404, Note_on_c, 0, 76, 0
2, 48408, Note_on_c, 0, 78, 90
2, 48428, Note_on_c, 0, 78, 0
2, 48432, Note_on_c, 0, 76, 90
2, 48452, Note_on_c, 0, 76, 0
2, 48456, Note_on_c, 0, 78, 90
2, 48476, Note_on_c, 0, 78, 0
2, 48480, Note_on_c, 0, 76, 90
2, 48500, Note_on_c, 0, 76, 0
2, 48504, Note_on_c, 0, 78, 90
2, 48524, Note_on_c, 0, 78, 0
2, 48528, Note_on_c, 0, 76, 90
2, 48548, Note_on_c, 0, 76, 0
2, 48552, Note_on_c, 0, 78, 90
2, 48572, Note_on_c, 0, 78, 0
2, 48576, Note_on_c, 0, 76, 90
2, 48596, Note_on_c, 0, 76, 0
2, 48600, Note_on_c, 0, 78, 90
2, 48620, Note_on_c, 0, 78, 0
2, 48624, Note_on_c, 0, 76, 90
2, 48644, Note_on_c, 0, 76, 0
2, 48648, Note_on_c, 0, 78, 90
2, 48668, Note_on_c, 0, 78, 0
2, 48672, Note_on_c, 0, 76, 90
2, 48692, Note_on_c, 0, 76, 0
2, 48696, Note_on_c, 0, 78, 90
2, 48716, Note_on_c, 0, 78, 0
2, 48720, Note_on_c, 0, 76, 90
2, 48740, Note_on_c, 0, 76, 0
2, 48744, Note_on_c, 0, 78, 90
2, 48764, Note_on_c, 0, 78, 0
2, 48768, Note_on_c, 0, 76, 90
2, 48788, Note_on_c, 0, 76, 0
2, 48792, Note_on_c, 0, 78, 90
2, 48812, Note_on_c, 0, 78, 0
2, 48816, Note_on_c, 0, 76, 90
2, 48836, Note_on_c, 0, 76, 0
2, 48840, Note_on_c, 0, 78, 90
2, 48860, Note_on_c, 0, 78, 0
2, 48864, Note_on_c, 0, 76, 90
2, 48884, Note_on_c, 0, 76, 0
2, 48888, Note_on_c, 0, 78, 90
2, 48908, Note_on_c, 0, 78, 0
2, 48912, Note_on_c, 0, 76, 90
2, 48932, Note_on_c, 0, 76, 0
2, 48936, Note_on_c, 0, 78, 90
2, 48956, Note_on_c, 0, 78, 0
2, 48960, Note_on_c, 0, 76, 90
2, 48980, Note_on_c, 0, 76, 0
2, 48984, Note_on_c, 0, 78, 90
2, 49004, Note_on_c, 0, 78, 0
2, 49008, Note_on_c, 0, 76, 90
2, 49028, Note_on_c, 0, 76, 0
2, 49032, Note_on_c, 0, 78, 90
2, 49052, Note_on_c, 0, 78, 0
2, 49056, Note_on_c, 0, 76, 90
2, 49076, Note_on_c, 0, 76, 0
2, 49080, Note_on_c, 0, 78, 90
2, 49100, Note_on_c, 0, 78, 0
2, 49104, Note_on_c, 0, 76, 90
2, 49124, Note_on_c, 0, 76, 0
2, 49128, Note_on_c, 0, 78, 90
2, 49148, Note_on_c, 0, 78, 0
2, 49152, Note_on_c, 0, 76, 90
2, 49172, Note_on_c, 0, 76, 0
2, 49176, Note_on_c, 0, 78, 90
2, 49196, Note_on_c, 0, 78, 0
2, 49200, Note_on_c, 0, 76, 90
2, 49220, Note_on_c, 0, 76, 0
2, 49224, Note_on_c, 0, 78, 90
2, 49244, Note_on_c, 0, 78, 0
2, 49248, Note_on_c, 0, 76, 90
2, 49268, Note_on_c, 0, 76, 0
2, 49272, Note_on_c, 0, 78, 90
2, 49292, Note_on_c, 0, 78, 0
2, 49296, Note_on_c, 0, 76, 90
2, 49316, Note_on_c, 0, 76, 0
2, 49320, Note_on_c, 0, 78, 90
2, 49340, Note_on_c, 0, 78, 0
2, 49344, Note_on_c, 0, 74, 90
2, 49432, Note_on_c, 0, 74, 0
2, 49440, Note_on_c, 0, 76, 90
2, 49528, Note_on_c, 0, 76, 0
2, 49536, Note_on_c, 0, 74, 90
2, 49920, Note_on_c, 0, 74, 0
2, 54132, Control_c, 0, 1, 55
2, 54144, Note_on_c, 0, 81, 68
2, 54908, Note_on_c, 0, 81, 0
2, 54912, Note_on_c, 0, 83, 68
2, 55200, Note_on_c, 0, 83, 0
2, 55200, Note_on_c, 0, 79, 74
2, 55280, Note_on_c, 0, 79, 0
2, 55296, Note_on_c, 0, 81, 68
2, 55584, Note_on_c, 0, 81, 0
2, 55584, Note_on_c, 0, 78, 74
2, 55664, Note_on_c, 0, 78, 0
2, 55680, Note_on_c, 0, 86, 68
2, 56064, Note_on_c, 0, 86, 0
2, 56448, Note_on_c, 0, 81, 58
2, 56736, Note_on_c, 0, 81, 0
2, 56736, Note_on_c, 0, 78, 63
2, 56816, Note_on_c, 0, 78, 0
2, 56832, Note_on_c, 0, 86, 58
2, 57216, Note_on_c, 0, 86, 0
2, 57600, Note_on_c, 0, 81, 59
2, 57888, Note_on_c, 0, 81, 0
2, 57888, Note_on_c, 0, 78, 71
2, 57968, Note_on_c, 0, 78, 0
2, 57984, Note_on_c, 0, 87, 69
2, 58368, Note_on_c, 0, 87, 0
2, 58752, Note_on_c, 0, 76, 90
2, 58944, Note_on_c, 0, 76, 0
2, 58944, Note_on_c, 0, 88, 90
2, 59124, Note_on_c, 0, 88, 0
2, 59136, Note_on_c, 0, 88, 90
2, 59712, Note_on_c, 0, 88, 0
2, 59712, Note_on_c, 0, 86, 90
2, 59892, Note_on_c, 0, 86, 0
2, 59904, Note_on_c, 0, 86, 90
2, 60096, Note_on_c, 0, 86, 0
2, 60096, Note_on_c, 0, 84, 90
2, 60276, Note_on_c, 0, 84, 0
2, 60288, Note_on_c, 0, 84, 90
2, 60864, Note_on_c, 0, 84, 0
2, 60864, Note_on_c, 0, 85, 90
2, 61044, Note_on_c, 0, 85, 0
2, 61056, Note_on_c, 0, 85, 90
2, 61248, Note_on_c, 0, 85, 0
2, 61248, Note_on_c, 0, 86, 90
2, 61428, Note_on_c, 0, 86, 0
2, 61440, Note_on_c, 0, 86, 90
2, 62012, Note_on_c, 0, 86, 0
2, 62016, Note_on_c, 0, 84, 90
2, 62208, Note_on_c, 0, 84, 0
2, 62208, Note_on_c, 0, 84, 90
2, 62400, Note_on_c, 0, 84, 0
2, 62400, Note_on_c, 0, 83, 90
2, 62580, Note_on_c, 0, 83, 0
2, 62592, Note_on_c, 0, 83, 90
2, 63168, Note_on_c, 0, 83, 0
2, 63168, Note_on_c, 0, 83, 90
2, 63348, Note_on_c, 0, 83, 0
2, 63360, Note_on_c, 0, 83, 90
2, 63744, Note_on_c, 0, 83, 0
2, 63744, Note_on_c, 0, 84, 90
2, 63924, Note_on_c, 0, 84, 0
2, 63936, Note_on_c, 0, 79, 90
2, 64128, Note_on_c, 0, 79, 0
2, 64128, Note_on_c, 0, 78, 90
2, 64320, Note_on_c, 0, 78, 0
2, 64320, Note_on_c, 0, 76, 90
2, 64512, Note_on_c, 0, 76, 0
2, 64512, Note_on_c, 0, 75, 90
2, 64892, Note_on_c, 0, 75, 0
2, 64896, Note_on_c, 0, 78, 82
2, 65468, Note_on_c, 0, 78, 0
2, 65472, Note_on_c, 0, 83, 72
2, 65660, Note_on_c, 0, 83, 0
2, 65664, Note_on_c, 0, 83, 68
2, 66044, Note_on_c, 0, 83, 0
2, 66048, Note_on_c, 0, 82, 68
2, 66236, Note_on_c, 0, 82, 0
2, 66240, Note_on_c, 0, 79, 68
2, 66432, Note_on_c, 0, 79, 0
2, 66432, Note_on_c, 0, 78, 68
2, 66624, Note_on_c, 0, 78, 0
2, 66624, Note_on_c, 0, 76, 68
2, 66804, Control_c, 0, 1, 55
2, 66816, Note_on_c, 0, 76, 0
2, 66816, Note_on_c, 0, 75, 68
2, 67380, Note_on_c, 0, 75, 0
2, 67392, Note_on_c, 0, 59, 75
2, 67584, Note_on_c, 0, 59, 0
2, 67584, Note_on_c, 0, 59, 75
2, 67776, Note_on_c, 0, 59, 0
2, 67776, Note_on_c, 0, 59, 75
2, 67968, Note_on_c, 0, 59, 0
2, 67968, Note_on_c, 0, 64, 72
2, 68064, Note_on_c, 0, 64, 0
2, 68064, Note_on_c, 0, 63, 72
2, 68152, Note_on_c, 0, 63, 0
2, 68160, Note_on_c, 0, 67, 69
2, 68256, Note_on_c, 0, 67, 0
2, 68256, Note_on_c, 0, 66, 74
2, 68336, Note_on_c, 0, 66, 0
2, 68352, Note_on_c, 0, 72, 68
2, 68448, Note_on_c, 0, 72, 0
2, 68448, Note_on_c, 0, 71, 68
2, 68536, Note_on_c, 0, 71, 0
2, 68544, Note_on_c, 0, 76, 68
2, 68640, Note_on_c, 0, 76, 0
2, 68640, Note_on_c, 0, 75, 74
2, 68720, Note_on_c, 0, 75, 0
2, 68736, Note_on_c, 0, 79, 68
2, 68832, Note_on_c, 0, 79, 0
2, 68832, Note_on_c, 0, 78, 68
2, 68920, Note_on_c, 0, 78, 0
2, 68928, Note_on_c, 0, 84, 68
2, 69024, Note_on_c, 0, 84, 0
2, 69024, Note_on_c, 0, 83, 74
2, 69104, Note_on_c, 0, 83, 0
2, 69120, Note_on_c, 0, 83, 68
2, 69140, Note_on_c, 0, 83, 0
2, 69144, Note_on_c, 0, 84, 69
2, 69164, Note_on_c, 0, 84, 0
2, 69168, Note_on_c, 0, 83, 71
2, 69188, Note_on_c, 0, 83, 0
2, 69192, Note_on_c, 0, 84, 72
2, 69212, Note_on_c, 0, 84, 0
2, 69216, Note_on_c, 0, 83, 73
2, 69236, Note_on_c, 0, 83, 0
2, 69240, Note_on_c, 0, 84, 74
2, 69260, Note_on_c, 0, 84, 0
2, 69264, Note_on_c, 0, 83, 74
2, 69284, Note_on_c, 0, 83, 0
2, 69288, Note_on_c, 0, 84, 74
2, 69308, Note_on_c, 0, 84, 0
2, 69312, Note_on_c, 0, 83, 74
2, 69332, Note_on_c, 0, 83, 0
2, 69336, Note_on_c, 0, 84, 74
2, 69356, Note_on_c, 0, 84, 0
2, 69360, Note_on_c, 0, 81, 71
2, 69404, Note_on_c, 0, 81, 0
2, 69408, Note_on_c, 0, 83, 69
2, 69496, Note_on_c, 0, 83, 0
2, 69696, Note_on_c, 0, 71, 72
2, 69880, Note_on_c, 0, 71, 0
2, 69888, Note_on_c, 0, 83, 70
2, 70072, Note_on_c, 0, 83, 0
2, 70080, Note_on_c, 0, 83, 68
2, 70272, Note_on_c, 0, 83, 0
2, 70272, Note_on_c, 0, 84, 68
2, 70368, Note_on_c, 0, 84, 0
2, 70368, Note_on_c, 0, 83, 68
2, 70456, Note_on_c, 0, 83, 0
2, 70464, Note_on_c, 0, 75, 68
2, 70560, Note_on_c, 0, 75, 0
2, 70560, Note_on_c, 0, 76, 74
2, 70640, Note_on_c, 0, 76, 0
2, 70656, Note_on_c, 0, 79, 68
2, 70752, Note_on_c, 0, 79, 0
2, 70752, Note_on_c, 0, 78, 68
2, 70840, Note_on_c, 0, 78, 0
2, 70848, Note_on_c, 0, 82, 68
2, 70944, Note_on_c, 0, 83, 74
2, 70948, Note_on_c, 0, 82, 0
2, 71024, Note_on_c, 0, 83, 0
2, 71040, Note_on_c, 0, 87, 68
2, 71136, Note_on_c, 0, 87, 0
2, 71136, Note_on_c, 0, 88, 68
2, 71224, Note_on_c, 0, 88, 0
2, 71232, Note_on_c, 0, 91, 68
2, 71328, Note_on_c, 0, 91, 0
2, 71328, Note_on_c, 0, 90, 74
2, 71408, Note_on_c, 0, 90, 0
2, 71412, Control_c, 0, 1, 55
2, 71424, Note_on_c, 0, 95, 70
2, 71808, Note_on_c, 0, 95, 0
2, 72000, Note_on_c, 0, 59, 68
2, 72176, Note_on_c, 0, 66, 68
2, 72184, Note_on_c, 0, 59, 0
2, 72360, Note_on_c, 0, 66, 0
2, 72384, Note_on_c, 0, 71, 68
2, 72564, Control_c, 0, 1, 55
2, 72576, Note_on_c, 0, 71, 0
2, 72576, Note_on_c, 0, 72, 68
2, 73152, Note_on_c, 0, 72, 0
2, 73152, Note_on_c, 0, 71, 68
2, 73336, Note_on_c, 0, 71, 0
2, 73344, Note_on_c, 0, 72, 68
2, 73528, Note_on_c, 0, 72, 0
2, 73536, Note_on_c, 0, 73, 68
2, 73728, Note_on_c, 0, 73, 0
2, 73728, Note_on_c, 0, 74, 68
2, 74492, Note_on_c, 0, 74, 0
2, 74496, Note_on_c, 0, 76, 68
2, 74780, Note_on_c, 0, 76, 0
2, 74784, Note_on_c, 0, 72, 74
2, 74864, Note_on_c, 0, 72, 0
2, 74880, Note_on_c, 0, 74, 68
2, 75164, Note_on_c, 0, 74, 0
2, 75168, Note_on_c, 0, 71, 74
2, 75248, Note_on_c, 0, 71, 0
2, 75264, Note_on_c, 0, 79, 68
2, 75648, Note_on_c, 0, 79, 0
2, 75648, Note_on_c, 0, 79, 68
2, 76032, Note_on_c, 0, 79, 0
2, 76032, Note_on_c, 0, 83, 68
2, 76224, Note_on_c, 0, 83, 0
2, 76224, Note_on_c, 0, 78, 68
2, 76408, Note_on_c, 0, 78, 0
2, 76416, Note_on_c, 0, 79, 68
2, 76600, Note_on_c, 0, 79, 0
2, 76608, Note_on_c, 0, 75, 68
2, 76792, Note_on_c, 0, 75, 0
2, 76800, Note_on_c, 0, 76, 68
2, 76976, Note_on_c, 0, 79, 68
2, 76984, Note_on_c, 0, 76, 0
2, 77160, Note_on_c, 0, 79, 0
2, 77184, Note_on_c, 0, 73, 68
2, 77376, Note_on_c, 0, 73, 0
2, 77376, Note_on_c, 0, 74, 68
2, 77560, Note_on_c, 0, 74, 0
2, 77568, Note_on_c, 0, 76, 68
2, 77752, Note_on_c, 0, 76, 0
2, 77760, Note_on_c, 0, 72, 68
2, 77944, Note_on_c, 0, 72, 0
2, 77952, Note_on_c, 0, 70, 68
2, 78136, Note_on_c, 0, 70, 0
2, 78144, Note_on_c, 0, 71, 68
2, 78328, Note_on_c, 0, 71, 0
2, 78336, Note_on_c, 0, 69, 69
2, 78624, Note_on_c, 0, 69, 0
2, 78624, Note_on_c, 0, 81, 80
2, 78704, Note_on_c, 0, 81, 0
2, 78720, Note_on_c, 0, 81, 80
2, 79296, Note_on_c, 0, 81, 0
2, 79296, Note_on_c, 0, 79, 84
2, 79480, Note_on_c, 0, 79, 0
2, 79488, Note_on_c, 0, 79, 84
2, 79776, Note_on_c, 0, 79, 0
2, 79776, Note_on_c, 0, 78, 90
2, 79856, Note_on_c, 0, 78, 0
2, 79872, Note_on_c, 0, 78, 84
2, 80448, Note_on_c, 0, 76, 84
2, 80452, Note_on_c, 0, 78, 0
2, 80632, Note_on_c, 0, 76, 0
2, 80640, Note_on_c, 0, 74, 79
2, 80832, Note_on_c, 0, 74, 0
2, 80832, Note_on_c, 0, 73, 74
2, 81016, Note_on_c, 0, 73, 0
2, 81024, Note_on_c, 0, 72, 68
2, 81208, Note_on_c, 0, 72, 0
2, 81216, Note_on_c, 0, 69, 68
2, 81400, Note_on_c, 0, 69, 0
2, 81408, Note_on_c, 0, 71, 68
2, 81592, Note_on_c, 0, 71, 0
2, 81600, Note_on_c, 0, 76, 68
2, 81784, Note_on_c, 0, 76, 0
2, 81792, Note_on_c, 0, 67, 71
2, 82560, Note_on_c, 0, 67, 0
2, 82560, Note_on_c, 0, 66, 74
2, 82744, Note_on_c, 0, 66, 0
2, 82944, Note_on_c, 0, 81, 73
2, 83712, Note_on_c, 0, 81, 0
2, 83712, Note_on_c, 0, 79, 68
2, 83804, Note_on_c, 0, 79, 0
2, 83808, Note_on_c, 0, 78, 68
2, 83900, Note_on_c, 0, 78, 0
2, 83904, Note_on_c, 0, 76, 68
2, 83996, Note_on_c, 0, 76, 0
2, 84000, Note_on_c, 0, 74, 68
2, 84080, Note_on_c, 0, 74, 0
2, 84096, Note_on_c, 0, 76, 68
2, 84476, Note_on_c, 0, 76, 0
2, 84480, Note_on_c, 0, 73, 68
2, 84864, Note_on_c, 0, 73, 0
2, 84864, Note_on_c, 0, 74, 68
2, 85048, Note_on_c, 0, 74, 0
2, 85152, Note_on_c, 0, 78, 74
2, 85200, Note_on_c, 0, 78, 0
2, 85248, Note_on_c, 0, 76, 68
2, 85632, Note_on_c, 0, 76, 0
2, 85632, Note_on_c, 0, 73, 68
2, 86012, Note_on_c, 0, 73, 0
2, 86016, Note_on_c, 0, 74, 68
2, 86200, Note_on_c, 0, 74, 0
2, 86400, Note_on_c, 0, 86, 68
2, 87168, Note_on_c, 0, 86, 0
2, 87168, Note_on_c, 0, 84, 68
2, 87260, Note_on_c, 0, 84, 0
2, 87264, Note_on_c, 0, 83, 68
2, 87356, Note_on_c, 0, 83, 0
2, 87360, Note_on_c, 0, 81, 68
2, 87452, Note_on_c, 0, 81, 0
2, 87456, Note_on_c, 0, 79, 74
2, 87536, Note_on_c, 0, 79, 0
2, 87552, Note_on_c, 0, 81, 68
2, 87936, Note_on_c, 0, 81, 0
2, 87936, Note_on_c, 0, 78, 68
2, 88316, Note_on_c, 0, 78, 0
2, 88320, Note_on_c, 0, 79, 68
2, 88504, Note_on_c, 0, 79, 0
2, 88608, Note_on_c, 0, 83, 74
2, 88656, Note_on_c, 0, 83, 0
2, 88704, Note_on_c, 0, 81, 68
2, 89088, Note_on_c, 0, 81, 0
2, 89088, Note_on_c, 0, 78, 68
2, 89468, Note_on_c, 0, 78, 0
2, 89472, Note_on_c, 0, 79, 68
2, 89656, Note_on_c, 0, 79, 0
2, 89760, Note_on_c, 0, 88, 74
2, 89808, Note_on_c, 0, 88, 0
2, 89856, Note_on_c, 0, 86, 74
2, 90624, Note_on_c, 0, 86, 0
2, 90624, Note_on_c, 0, 85, 72
2, 91004, Note_on_c, 0, 85, 0
2, 91008, Note_on_c, 0, 84, 68
2, 91484, Note_on_c, 0, 84, 0
2, 91488, Note_on_c, 0, 88, 68
2, 91584, Note_on_c, 0, 88, 0
2, 91584, Note_on_c, 0, 86, 68
2, 91676, Note_on_c, 0, 86, 0
2, 91680, Note_on_c, 0, 84, 68
2, 91772, Note_on_c, 0, 84, 0
2, 91776, Note_on_c, 0, 83, 68
2, 91868, Note_on_c, 0, 83, 0
2, 91872, Note_on_c, 0, 86, 68
2, 91960, Note_on_c, 0, 86, 0
2, 91968, Note_on_c, 0, 84, 68
2, 92060, Note_on_c, 0, 84, 0
2, 92064, Note_on_c, 0, 83, 74
2, 92144, Note_on_c, 0, 83, 0
2, 92160, Note_on_c, 0, 81, 69
2, 92636, Note_on_c, 0, 81, 0
2, 92640, Note_on_c, 0, 84, 75
2, 92736, Note_on_c, 0, 84, 0
2, 92736, Note_on_c, 0, 83, 77
2, 92828, Note_on_c, 0, 83, 0
2, 92832, Note_on_c, 0, 81, 78
2, 92924, Note_on_c, 0, 81, 0
2, 92928, Note_on_c, 0, 79, 79
2, 93020, Note_on_c, 0, 79, 0
2, 93024, Note_on_c, 0, 83, 80
2, 93116, Note_on_c, 0, 83, 0
2, 93120, Note_on_c, 0, 81, 81
2, 93212, Note_on_c, 0, 81, 0
2, 93216, Note_on_c, 0, 79, 87
2, 93296, Note_on_c, 0, 79, 0
2, 93312, Note_on_c, 0, 78, 84
2, 93696, Note_on_c, 0, 78, 0
2, 93696, Note_on_c, 0, 79, 84
2, 93820, Note_on_c, 0, 79, 0
2, 93824, Note_on_c, 0, 81, 84
2, 93952, Note_on_c, 0, 81, 0
2, 93952, Note_on_c, 0, 83, 83
2, 94080, Note_on_c, 0, 83, 0
2, 94080, Note_on_c, 0, 84, 81
2, 94144, Note_on_c, 0, 84, 0
2, 94208, Note_on_c, 0, 86, 80
2, 94272, Note_on_c, 0, 86, 0
2, 94336, Note_on_c, 0, 88, 78
2, 94400, Note_on_c, 0, 88, 0
2, 94464, Note_on_c, 0, 84, 77
2, 94656, Note_on_c, 0, 84, 0
2, 94656, Note_on_c, 0, 83, 74
2, 94676, Note_on_c, 0, 83, 0
2, 94680, Note_on_c, 0, 84, 74
2, 94700, Note_on_c, 0, 84, 0
2, 94704, Note_on_c, 0, 83, 74
2, 94724, Note_on_c, 0, 83, 0
2, 94728, Note_on_c, 0, 84, 74
2, 94748, Note_on_c, 0, 84, 0
2, 94752, Note_on_c, 0, 81, 74
2, 94796, Note_on_c, 0, 81, 0
2, 94800, Note_on_c, 0, 83, 74
2, 94844, Note_on_c, 0, 83, 0
2, 94848, Note_on_c, 0, 81, 74
2, 95232, Note_on_c, 0, 81, 0
2, 97908, Control_c, 0, 1, 55
2, 97912, Control_c, 0, 64, 127
2, 97920, Note_on_c, 0, 86, 76
2, 100216, Control_c, 0, 64, 0
2, 100220, Note_on_c, 0, 86, 0
2, 100224, Note_on_c, 0, 77, 68
2, 100416, Note_on_c, 0, 77, 0
2, 100512, Note_on_c, 0, 76, 68
2, 100592, Note_on_c, 0, 76, 0
2, 100608, Note_on_c, 0, 77, 69
2, 100800, Note_on_c, 0, 77, 0
2, 100896, Note_on_c, 0, 76, 75
2, 100976, Note_on_c, 0, 76, 0
2, 100992, Note_on_c, 0, 77, 77
2, 101184, Note_on_c, 0, 77, 0
2, 101280, Note_on_c, 0, 76, 89
2, 101360, Note_on_c, 0, 76, 0
2, 101376, Note_on_c, 0, 77, 84
2, 101760, Note_on_c, 0, 77, 0
2, 101760, Note_on_c, 0, 76, 79
2, 101944, Note_on_c, 0, 76, 0
2, 102432, Note_on_c, 0, 67, 90
2, 102524, Note_on_c, 0, 67, 0
2, 102528, Note_on_c, 0, 76, 90
2, 102716, Note_on_c, 0, 76, 0
2, 102720, Note_on_c, 0, 76, 90
2, 103104, Note_on_c, 0, 76, 0
2, 103104, Note_on_c, 0, 78, 90
2, 103200, Note_on_c, 0, 78, 0
2, 103200, Note_on_c, 0, 79, 95
2, 103280, Note_on_c, 0, 79, 0
2, 103296, Note_on_c, 0, 79, 90
2, 103392, Note_on_c, 0, 79, 0
2, 103392, Note_on_c, 0, 78, 90
2, 103484, Note_on_c, 0, 78, 0
2, 103488, Note_on_c, 0, 76, 90
2, 103580, Note_on_c, 0, 76, 0
2, 103584, Note_on_c, 0, 74, 95
2, 103664, Note_on_c, 0, 74, 0
2, 103680, Note_on_c, 0, 74, 90
2, 103776, Note_on_c, 0, 74, 0
2, 103776, Note_on_c, 0, 72, 95
2, 103856, Note_on_c, 0, 72, 0
2, 103872, Note_on_c, 0, 72, 90
2, 104256, Note_on_c, 0, 72, 0
2, 104256, Note_on_c, 0, 74, 90
2, 104348, Note_on_c, 0, 74, 0
2, 104352, Note_on_c, 0, 76, 95
2, 104432, Note_on_c, 0, 76, 0
2, 104448, Note_on_c, 0, 76, 90
2, 104544, Note_on_c, 0, 76, 0
2, 104544, Note_on_c, 0, 74, 90
2, 104636, Note_on_c, 0, 74, 0
2, 104640, Note_on_c, 0, 72, 90
2, 104732, Note_on_c, 0, 72, 0
2, 104736, Note_on_c, 0, 71, 95
2, 104816, Note_on_c, 0, 71, 0
2, 104832, Note_on_c, 0, 71, 90
2, 104928, Note_on_c, 0, 71, 0
2, 104928, Note_on_c, 0, 69, 90
2, 105020, Note_on_c, 0, 69, 0
2, 105024, Note_on_c, 0, 72, 90
2, 105116, Note_on_c, 0, 72, 0
2, 105120, Note_on_c, 0, 69, 95
2, 105200, Note_on_c, 0, 69, 0
2, 105216, Note_on_c, 0, 67, 93
2, 105600, Note_on_c, 0, 67, 0
2, 105600, Note_on_c, 0, 66, 93
2, 105620, Note_on_c, 0, 66, 0
2, 105624, Note_on_c, 0, 67, 93
2, 105644, Note_on_c, 0, 67, 0
2, 105648, Note_on_c, 0, 66, 93
2, 105668, Note_on_c, 0, 66, 0
2, 105672, Note_on_c, 0, 67, 93
2, 105692, Note_on_c, 0, 67, 0
2, 105696, Note_on_c, 0, 66, 93
2, 105716, Note_on_c, 0, 66, 0
2, 105720, Note_on_c, 0, 67, 93
2, 105740, Note_on_c, 0, 67, 0
2, 105744, Note_on_c, 0, 66, 93
2, 105764, Note_on_c, 0, 66, 0
2, 105768, Note_on_c, 0, 67, 93
2, 105788, Note_on_c, 0, 67, 0
2, 105792, Note_on_c, 0, 66, 93
2, 105812, Note_on_c, 0, 66, 0
2, 105816, Note_on_c, 0, 67, 93
2, 105836, Note_on_c, 0, 67, 0
2, 105840, Note_on_c, 0, 67, 93
2, 105860, Note_on_c, 0, 67, 0
2, 105864, Note_on_c, 0, 66, 93
2, 105884, Note_on_c, 0, 66, 0
2, 105888, Note_on_c, 0, 64, 93
2, 105932, Note_on_c, 0, 64, 0
2, 105936, Note_on_c, 0, 66, 93
2, 105980, Note_on_c, 0, 66, 0
2, 105984, Note_on_c, 0, 66, 90
2, 106272, Note_on_c, 0, 66, 0
2, 106272, Note_on_c, 0, 67, 95
2, 106352, Note_on_c, 0, 67, 0
2, 106368, Note_on_c, 0, 67, 90
2, 106752, Note_on_c, 0, 67, 0
2, 107136, Note_on_c, 0, 76, 68
2, 107324, Note_on_c, 0, 76, 0
2, 107328, Note_on_c, 0, 76, 68
2, 107712, Note_on_c, 0, 76, 0
2, 107712, Note_on_c, 0, 78, 68
2, 107808, Note_on_c, 0, 78, 0
2, 107808, Note_on_c, 0, 79, 74
2, 107888, Note_on_c, 0, 79, 0
2, 107904, Note_on_c, 0, 79, 68
2, 108000, Note_on_c, 0, 79, 0
2, 108000, Note_on_c, 0, 78, 68
2, 108092, Note_on_c, 0, 78, 0
2, 108096, Note_on_c, 0, 76, 68
2, 108188, Note_on_c, 0, 76, 0
2, 108192, Note_on_c, 0, 74, 74
2, 108272, Note_on_c, 0, 74, 0
2, 108288, Note_on_c, 0, 74, 68
2, 108384, Note_on_c, 0, 74, 0
2, 108384, Note_on_c, 0, 72, 68
2, 108476, Note_on_c, 0, 72, 0
2, 108480, Note_on_c, 0, 84, 68
2, 108848, Note_on_c, 0, 84, 0
2, 108864, Note_on_c, 0, 86, 68
2, 108960, Note_on_c, 0, 86, 0
2, 108960, Note_on_c, 0, 88, 74
2, 109040, Note_on_c, 0, 88, 0
2, 109056, Note_on_c, 0, 88, 68
2, 109152, Note_on_c, 0, 88, 0
2, 109152, Note_on_c, 0, 86, 68
2, 109244, Note_on_c, 0, 86, 0
2, 109248, Note_on_c, 0, 84, 68
2, 109340, Note_on_c, 0, 84, 0
2, 109344, Note_on_c, 0, 83, 74
2, 109424, Note_on_c, 0, 83, 0
2, 109440, Note_on_c, 0, 83, 68
2, 109536, Note_on_c, 0, 83, 0
2, 109536, Note_on_c, 0, 81, 68
2, 109628, Note_on_c, 0, 81, 0
2, 109632, Note_on_c, 0, 84, 68
2, 109724, Note_on_c, 0, 84, 0
2, 109728, Note_on_c, 0, 88, 74
2, 109808, Note_on_c, 0, 88, 0
2, 109824, Note_on_c, 0, 88, 76
2, 109916, Note_on_c, 0, 88, 0
2, 109920, Note_on_c, 0, 79, 68
2, 110200, Note_on_c, 0, 79, 0
2, 110208, Note_on_c, 0, 78, 68
2, 110492, Note_on_c, 0, 78, 0
2, 110496, Note_on_c, 0, 86, 74
2, 110576, Note_on_c, 0, 86, 0
2, 110592, Note_on_c, 0, 85, 69
2, 110976, Note_on_c, 0, 85, 0
2, 110976, Note_on_c, 0, 84, 75
2, 111344, Note_on_c, 0, 84, 0
2, 111360, Note_on_c, 0, 83, 80
2, 111736, Note_on_c, 0, 83, 0
2, 111744, Note_on_c, 0, 83, 84
2, 111840, Note_on_c, 0, 83, 0
2, 111840, Note_on_c, 0, 81, 84
2, 111920, Note_on_c, 0, 81, 0
2, 111936, Note_on_c, 0, 81, 69
2, 112896, Note_on_c, 0, 81, 69
2, 112984, Note_on_c, 0, 81, 0
2, 112992, Note_on_c, 0, 81, 0
2, 112992, Note_on_c, 0, 82, 80
2, 113084, Note_on_c, 0, 82, 0
2, 113088, Note_on_c, 0, 82, 80
2, 114040, Note_on_c, 0, 82, 0
2, 114048, Note_on_c, 0, 83, 90
2, 114428, Note_on_c, 0, 83, 0
2, 114432, Note_on_c, 0, 86, 90
2, 114912, Note_on_c, 0, 85, 95
2, 114916, Note_on_c, 0, 86, 0
2, 114992, Note_on_c, 0, 85, 0
2, 115008, Note_on_c, 0, 84, 90
2, 115100, Note_on_c, 0, 84, 0
2, 115104, Note_on_c, 0, 83, 95
2, 115184, Note_on_c, 0, 83, 0
2, 115200, Note_on_c, 0, 81, 90
2, 115220, Note_on_c, 0, 81, 0
2, 115224, Note_on_c, 0, 83, 90
2, 115244, Note_on_c, 0, 83, 0
2, 115248, Note_on_c, 0, 81, 90
2, 115268, Note_on_c, 0, 81, 0
2, 115272, Note_on_c, 0, 83, 90
2, 115292, Note_on_c, 0, 83, 0
2, 115296, Note_on_c, 0, 81, 90
2, 115316, Note_on_c, 0, 81, 0
2, 115320, Note_on_c, 0, 83, 90
2, 115340, Note_on_c, 0, 83, 0
2, 115344, Note_on_c, 0, 81, 90
2, 115364, Note_on_c, 0, 81, 0
2, 115368, Note_on_c, 0, 83, 90
2, 115388, Note_on_c, 0, 83, 0
2, 115392, Note_on_c, 0, 81, 90
2, 115412, Note_on_c, 0, 81, 0
2, 115416, Note_on_c, 0, 83, 90
2, 115436, Note_on_c, 0, 83, 0
2, 115440, Note_on_c, 0, 81, 90
2, 115460, Note_on_c, 0, 81, 0
2, 115464, Note_on_c, 0, 83, 90
2, 115484, Note_on_c, 0, 83, 0
2, 115488, Note_on_c, 0, 81, 90
2, 115508, Note_on_c, 0, 81, 0
2, 115512, Note_on_c, 0, 83, 90
2, 115532, Note_on_c, 0, 83, 0
2, 115536, Note_on_c, 0, 81, 90
2, 115556, Note_on_c, 0, 81, 0
2, 115560, Note_on_c, 0, 83, 90
2, 115580, Note_on_c, 0, 83, 0
2, 115584, Note_on_c, 0, 81, 90
2, 115604, Note_on_c, 0, 81, 0
2, 115608, Note_on_c, 0, 83, 90
2, 115628, Note_on_c, 0, 83, 0
2, 115632, Note_on_c, 0, 81, 90
2, 115652, Note_on_c, 0, 81, 0
2, 115656, Note_on_c, 0, 83, 90
2, 115676, Note_on_c, 0, 83, 0
2, 115680, Note_on_c, 0, 81, 90
2, 115700, Note_on_c, 0, 81, 0
2, 115704, Note_on_c, 0, 83, 90
2, 115724, Note_on_c, 0, 83, 0
2, 115728, Note_on_c, 0, 81, 90
2, 115748, Note_on_c, 0, 81, 0
2, 115752, Note_on_c, 0, 83, 90
2, 115772, Note_on_c, 0, 83, 0
2, 115776, Note_on_c, 0, 81, 90
2, 115796, Note_on_c, 0, 81, 0
2, 115800, Note_on_c, 0, 83, 90
2, 115820, Note_on_c, 0, 83, 0
2, 115824, Note_on_c, 0, 81, 90
2, 115844, Note_on_c, 0, 81, 0
2, 115848, Note_on_c, 0, 83, 90
2, 115868, Note_on_c, 0, 83, 0
2, 115872, Note_on_c, 0, 81, 90
2, 115892, Note_on_c, 0, 81, 0
2, 115896, Note_on_c, 0, 83, 90
2, 115916, Note_on_c, 0, 83, 0
2, 115920, Note_on_c, 0, 81, 90
2, 115940, Note_on_c, 0, 81, 0
2, 115944, Note_on_c, 0, 83, 90
2, 115964, Note_on_c, 0, 83, 0
2, 115968, Note_on_c, 0, 81, 90
2, 115988, Note_on_c, 0, 81, 0
2, 115992, Note_on_c, 0, 83, 90
2, 116012, Note_on_c, 0, 83, 0
2, 116016, Note_on_c, 0, 81, 90
2, 116036, Note_on_c, 0, 81, 0
2, 116040, Note_on_c, 0, 83, 90
2, 116060, Note_on_c, 0, 83, 0
2, 116064, Note_on_c, 0, 81, 90
2, 116084, Note_on_c, 0, 81, 0
2, 116088, Note_on_c, 0, 83, 90
2, 116108, Note_on_c, 0, 83, 0
2, 116112, Note_on_c, 0, 81, 90
2, 116132, Note_on_c, 0, 81, 0
2, 116136, Note_on_c, 0, 83, 90
2, 116156, Note_on_c, 0, 83, 0
2, 116160, Note_on_c, 0, 79, 90
2, 116248, Note_on_c, 0, 79, 0
2, 116256, Note_on_c, 0, 81, 90
2, 116344, Note_on_c, 0, 81, 0
2, 116352, Note_on_c, 0, 79, 90
2, 116736, Note_on_c, 0, 79, 0
2, 120960, Note_on_c, 0, 67, 79
2, 121440, Note_on_c, 0, 67, 0
2, 121440, Note_on_c, 0, 66, 84
2, 121520, Note_on_c, 0, 66, 0
2, 121536, Note_on_c, 0, 67, 79
2, 121632, Note_on_c, 0, 67, 0
2, 121632, Note_on_c, 0, 69, 79
2, 121724, Note_on_c, 0, 69, 0
2, 121728, Note_on_c, 0, 67, 79
2, 121820, Note_on_c, 0, 67, 0
2, 121824, Note_on_c, 0, 66, 79
2, 121916, Note_on_c, 0, 66, 0
2, 121920, Note_on_c, 0, 64, 79
2, 122012, Note_on_c, 0, 64, 0
2, 122016, Note_on_c, 0, 62, 84
2, 122096, Note_on_c, 0, 62, 0
2, 122112, Note_on_c, 0, 72, 79
2, 122112, Note_on_c, 0, 62, 79
2, 122112, Note_on_c, 0, 55, 79
2, 122496, Note_on_c, 0, 55, 0
2, 122496, Note_on_c, 0, 62, 0
2, 122592, Note_on_c, 0, 72, 0
2, 122592, Note_on_c, 0, 71, 80
2, 122688, Note_on_c, 0, 71, 0
2, 122688, Note_on_c, 0, 72, 81
2, 122780, Note_on_c, 0, 72, 0
2, 122784, Note_on_c, 0, 74, 82
2, 122876, Note_on_c, 0, 74, 0
2, 122880, Note_on_c, 0, 72, 83
2, 122972, Note_on_c, 0, 72, 0
2, 122976, Note_on_c, 0, 71, 84
2, 123068, Note_on_c, 0, 71, 0
2, 123072, Note_on_c, 0, 69, 85
2, 123164, Note_on_c, 0, 69, 0
2, 123168, Note_on_c, 0, 67, 92
2, 123248, Note_on_c, 0, 67, 0
2, 123264, Note_on_c, 0, 77, 79
2, 123264, Note_on_c, 0, 67, 79
2, 123264, Note_on_c, 0, 55, 79
2, 123648, Note_on_c, 0, 55, 0
2, 123648, Note_on_c, 0, 67, 0
2, 123744, Note_on_c, 0, 77, 0
2, 123744, Note_on_c, 0, 76, 80
2, 123840, Note_on_c, 0, 76, 0
2, 123840, Note_on_c, 0, 77, 81
2, 123932, Note_on_c, 0, 77, 0
2, 123936, Note_on_c, 0, 79, 82
2, 124028, Note_on_c, 0, 79, 0
2, 124032, Note_on_c, 0, 77, 83
2, 124124, Note_on_c, 0, 77, 0
2, 124128, Note_on_c, 0, 76, 84
2, 124220, Note_on_c, 0, 76, 0
2, 124224, Note_on_c, 0, 74, 85
2, 124316, Note_on_c, 0, 74, 0
2, 124320, Note_on_c, 0, 72, 86
2, 124400, Note_on_c, 0, 72, 0
2, 124416, Note_on_c, 0, 88, 81
2, 124416, Note_on_c, 0, 76, 84
2, 124416, Note_on_c, 0, 69, 90
2, 124416, Note_on_c, 0, 60, 90
2, 124608, Note_on_c, 0, 60, 0
2, 124608, Note_on_c, 0, 69, 0
2, 124800, Note_on_c, 0, 76, 0
2, 124896, Note_on_c, 0, 88, 0
2, 124896, Note_on_c, 0, 79, 90
2, 124992, Note_on_c, 0, 79, 0
2, 124992, Note_on_c, 0, 81, 90
2, 125084, Note_on_c, 0, 81, 0
2, 125088, Note_on_c, 0, 84, 90
2, 125180, Note_on_c, 0, 84, 0
2, 125184, Note_on_c, 0, 76, 90
2, 125276, Note_on_c, 0, 76, 0
2, 125280, Note_on_c, 0, 84, 90
2, 125372, Note_on_c, 0, 84, 0
2, 125376, Note_on_c, 0, 81, 90
2, 125468, Note_on_c, 0, 81, 0
2, 125472, Note_on_c, 0, 78, 95
2, 125552, Note_on_c, 0, 78, 0
2, 125568, Note_on_c, 0, 86, 90
2, 125664, Note_on_c, 0, 86, 0
2, 125664, Note_on_c, 0, 78, 90
2, 125756, Note_on_c, 0, 78, 0
2, 125760, Note_on_c, 0, 79, 90
2, 125852, Note_on_c, 0, 79, 0
2, 125856, Note_on_c, 0, 83, 95
2, 125936, Note_on_c, 0, 83, 0
2, 125952, Note_on_c, 0, 76, 90
2, 126048, Note_on_c, 0, 76, 0
2, 126048, Note_on_c, 0, 81, 90
2, 126140, Note_on_c, 0, 81, 0
2, 126144, Note_on_c, 0, 78, 90
2, 126236, Note_on_c, 0, 78, 0
2, 126240, Note_on_c, 0, 74, 95
2, 126320, Note_on_c, 0, 74, 0
2, 126336, Note_on_c, 0, 83, 90
2, 126432, Note_on_c, 0, 83, 0
2, 126432, Note_on_c, 0, 71, 90
2, 126524, Note_on_c, 0, 71, 0
2, 126528, Note_on_c, 0, 72, 90
2, 126620, Note_on_c, 0, 72, 0
2, 126624, Note_on_c, 0, 76, 90
2, 126704, Note_on_c, 0, 76, 0
2, 126720, Note_on_c, 0, 66, 90
2, 126816, Note_on_c, 0, 66, 0
2, 126816, Note_on_c, 0, 74, 90
2, 126908, Note_on_c, 0, 74, 0
2, 126912, Note_on_c, 0, 71, 90
2, 127004, Note_on_c, 0, 71, 0
2, 127008, Note_on_c, 0, 67, 95
2, 127088, Note_on_c, 0, 67, 0
2, 127104, Note_on_c, 0, 72, 90
2, 127200, Note_on_c, 0, 72, 0
2, 127200, Note_on_c, 0, 64, 90
2, 127292, Note_on_c, 0, 64, 0
2, 127296, Note_on_c, 0, 69, 90
2, 127388, Note_on_c, 0, 69, 0
2, 127392, Note_on_c, 0, 72, 95
2, 127472, Note_on_c, 0, 72, 0
2, 127488, Note_on_c, 0, 66, 90
2, 127584, Note_on_c, 0, 66, 0
2, 127584, Note_on_c, 0, 76, 90
2, 127676, Note_on_c, 0, 76, 0
2, 127680, Note_on_c, 0, 72, 90
2, 127772, Note_on_c, 0, 72, 0
2, 127776, Note_on_c, 0, 69, 95
2, 127856, Note_on_c, 0, 69, 0
2, 127872, Note_on_c, 0, 81, 89
2, 127968, Note_on_c, 0, 81, 0
2, 127968, Note_on_c, 0, 78, 89
2, 128060, Note_on_c, 0, 78, 0
2, 128064, Note_on_c, 0, 74, 87
2, 128156, Note_on_c, 0, 74, 0
2, 128160, Note_on_c, 0, 84, 92
2, 128240, Note_on_c, 0, 84, 0
2, 128256, Note_on_c, 0, 81, 93
2, 128276, Note_on_c, 0, 81, 0
2, 128280, Note_on_c, 0, 83, 93
2, 128300, Note_on_c, 0, 83, 0
2, 128304, Note_on_c, 0, 81, 85
2, 128352, Note_on_c, 0, 80, 84
2, 128356, Note_on_c, 0, 81, 0
2, 128444, Note_on_c, 0, 80, 0
2, 128448, Note_on_c, 0, 81, 83
2, 128540, Note_on_c, 0, 81, 0
2, 128544, Note_on_c, 0, 83, 83
2, 128636, Note_on_c, 0, 83, 0
2, 128640, Note_on_c, 0, 84, 93
2, 128660, Note_on_c, 0, 84, 0
2, 128664, Note_on_c, 0, 86, 93
2, 128684, Note_on_c, 0, 86, 0
2, 128688, Note_on_c, 0, 84, 81
2, 128732, Note_on_c, 0, 84, 0
2, 128736, Note_on_c, 0, 83, 81
2, 128828, Note_on_c, 0, 83, 0
2, 128832, Note_on_c, 0, 84, 80
2, 128924, Note_on_c, 0, 84, 0
2, 128928, Note_on_c, 0, 85, 79
2, 129008, Note_on_c, 0, 85, 0
2, 129024, Note_on_c, 0, 86, 87
2, 129044, Note_on_c, 0, 86, 0
2, 129048, Note_on_c, 0, 88, 87
2, 129068, Note_on_c, 0, 88, 0
2, 129072, Note_on_c, 0, 86, 78
2, 129116, Note_on_c, 0, 86, 0
2, 129120, Note_on_c, 0, 84, 78
2, 129212, Note_on_c, 0, 84, 0
2, 129216, Note_on_c, 0, 86, 77
2, 129308, Note_on_c, 0, 86, 0
2, 129312, Note_on_c, 0, 88, 76
2, 129404, Note_on_c, 0, 88, 0
2, 129408, Note_on_c, 0, 90, 84
2, 129428, Note_on_c, 0, 90, 0
2, 129432, Note_on_c, 0, 91, 84
2, 129452, Note_on_c, 0, 91, 0
2, 129456, Note_on_c, 0, 90, 75
2, 129500, Note_on_c, 0, 90, 0
2, 129504, Note_on_c, 0, 88, 74
2, 129596, Note_on_c, 0, 88, 0
2, 129600, Note_on_c, 0, 90, 73
2, 129692, Note_on_c, 0, 90, 0
2, 129696, Note_on_c, 0, 91, 73
2, 129788, Note_on_c, 0, 91, 0
2, 129792, Note_on_c, 0, 93, 78
2, 129812, Note_on_c, 0, 93, 0
2, 129816, Note_on_c, 0, 95, 78
2, 129836, Note_on_c, 0, 95, 0
2, 129840, Note_on_c, 0, 93, 71
2, 129884, Note_on_c, 0, 93, 0
2, 129888, Note_on_c, 0, 92, 71
2, 129980, Note_on_c, 0, 92, 0
2, 129984, Note_on_c, 0, 93, 69
2, 130076, Note_on_c, 0, 93, 0
2, 130080, Note_on_c, 0, 95, 72
2, 130160, Note_on_c, 0, 95, 0
2, 130176, Note_on_c, 0, 96, 74
2, 130748, Note_on_c, 0, 96, 0
2, 130752, Note_on_c, 0, 84, 68
2, 130752, Note_on_c, 0, 74, 68
2, 130944, Note_on_c, 0, 74, 0
2, 130944, Note_on_c, 0, 84, 0
2, 130944, Note_on_c, 0, 84, 68
2, 130944, Note_on_c, 0, 76, 68
2, 131136, Note_on_c, 0, 76, 0
2, 131136, Note_on_c, 0, 84, 0
2, 131136, Note_on_c, 0, 84, 68
2, 131136, Note_on_c, 0, 77, 68
2, 131328, Note_on_c, 0, 77, 0
2, 131328, Note_on_c, 0, 84, 0
2, 131328, Note_on_c, 0, 62, 82
2, 131372, Note_on_c, 0, 62, 0
2, 131376, Note_on_c, 0, 78, 78
2, 131420, Note_on_c, 0, 78, 0
2, 131424, Note_on_c, 0, 84, 68
2, 132180, Note_on_c, 0, 84, 0
2, 132192, Note_on_c, 0, 86, 68
2, 132380, Note_on_c, 0, 86, 0
2, 132384, Note_on_c, 0, 81, 68
2, 132476, Note_on_c, 0, 81, 0
2, 132480, Note_on_c, 0, 67, 80
2, 132524, Note_on_c, 0, 67, 0
2, 132528, Note_on_c, 0, 74, 77
2, 132572, Note_on_c, 0, 74, 0
2, 132576, Note_on_c, 0, 84, 68
2, 132756, Note_on_c, 0, 84, 0
2, 132768, Note_on_c, 0, 83, 74
2, 132848, Note_on_c, 0, 83, 0
2, 132864, Note_on_c, 0, 91, 68
2, 133440, Note_on_c, 0, 91, 0
2, 133440, Note_on_c, 0, 79, 68
2, 133620, Note_on_c, 0, 79, 0
2, 133632, Note_on_c, 0, 69, 68
2, 133632, Note_on_c, 0, 77, 68
2, 134480, Note_on_c, 0, 77, 0
2, 134480, Note_on_c, 0, 69, 0
2, 134496, Note_on_c, 0, 79, 68
2, 134496, Note_on_c, 0, 71, 68
2, 134688, Note_on_c, 0, 71, 0
2, 134688, Note_on_c, 0, 79, 0
2, 134688, Note_on_c, 0, 74, 74
2, 134688, Note_on_c, 0, 67, 74
2, 134768, Note_on_c, 0, 67, 0
2, 134768, Note_on_c, 0, 74, 0
2, 134784, Note_on_c, 0, 78, 68
2, 134784, Note_on_c, 0, 72, 68
2, 134976, Note_on_c, 0, 72, 0
2, 134976, Note_on_c, 0, 78, 0
2, 134976, Note_on_c, 0, 76, 68
2, 134976, Note_on_c, 0, 72, 68
2, 135164, Note_on_c, 0, 72, 0
2, 135164, Note_on_c, 0, 76, 0
2, 135168, Note_on_c, 0, 84, 68
2, 135168, Note_on_c, 0, 76, 68
2, 135348, Note_on_c, 0, 76, 0
2, 135348, Note_on_c, 0, 84, 0
2, 135360, Note_on_c, 0, 84, 71
2, 135360, Note_on_c, 0, 69, 71
2, 135456, Note_on_c, 0, 69, 0
2, 135456, Note_on_c, 0, 84, 0
2, 135456, Note_on_c, 0, 83, 78
2, 135456, Note_on_c, 0, 71, 78
2, 135536, Note_on_c, 0, 71, 0
2, 135536, Note_on_c, 0, 83, 0
2, 135552, Note_on_c, 0, 83, 75
2, 135552, Note_on_c, 0, 71, 75
2, 135648, Note_on_c, 0, 71, 0
2, 135648, Note_on_c, 0, 83, 0
2, 135648, Note_on_c, 0, 81, 82
2, 135648, Note_on_c, 0, 72, 82
2, 135728, Note_on_c, 0, 72, 0
2, 135728, Note_on_c, 0, 81, 0
2, 135744, Note_on_c, 0, 81, 79
2, 135744, Note_on_c, 0, 72, 79
2, 135840, Note_on_c, 0, 72, 0
2, 135840, Note_on_c, 0, 81, 0
2, 135840, Note_on_c, 0, 79, 86
2, 135840, Note_on_c, 0, 73, 86
2, 135920, Note_on_c, 0, 73, 0
2, 135920, Note_on_c, 0, 79, 0
2, 135936, Note_on_c, 0, 79, 68
2, 135936, Note_on_c, 0, 74, 68
2, 136128, Note_on_c, 0, 74, 0
2, 136128, Note_on_c, 0, 79, 0
2, 136128, Note_on_c, 0, 78, 68
2, 136128, Note_on_c, 0, 74, 68
2, 136316, Note_on_c, 0, 74, 0
2, 136316, Note_on_c, 0, 78, 0
2, 136320, Note_on_c, 0, 88, 68
2, 136500, Note_on_c, 0, 88, 0
2, 136512, Note_on_c, 0, 88, 68
2, 136608, Note_on_c, 0, 88, 0
2, 136608, Note_on_c, 0, 86, 74
2, 136688, Note_on_c, 0, 86, 0
2, 136704, Note_on_c, 0, 86, 68
2, 136704, Note_on_c, 0, 74, 68
2, 136800, Note_on_c, 0, 74, 0
2, 136800, Note_on_c, 0, 86, 0
2, 136800, Note_on_c, 0, 85, 74
2, 136800, Note_on_c, 0, 74, 74
2, 136880, Note_on_c, 0, 74, 0
2, 136880, Note_on_c, 0, 85, 0
2, 136896, Note_on_c, 0, 85, 68
2, 136896, Note_on_c, 0, 74, 68
2, 136992, Note_on_c, 0, 74, 0
2, 136992, Note_on_c, 0, 85, 0
2, 136992, Note_on_c, 0, 84, 74
2, 136992, Note_on_c, 0, 74, 74
2, 137072, Note_on_c, 0, 74, 0
2, 137072, Note_on_c, 0, 84, 0
2, 137088, Note_on_c, 0, 83, 71
2, 137088, Note_on_c, 0, 74, 71
2, 137184, Note_on_c, 0, 74, 0
2, 137184, Note_on_c, 0, 83, 0
2, 137184, Note_on_c, 0, 81, 73
2, 137184, Note_on_c, 0, 74, 73
2, 137276, Note_on_c, 0, 74, 0
2, 137276, Note_on_c, 0, 81, 0
2, 137280, Note_on_c, 0, 84, 75
2, 137280, Note_on_c, 0, 76, 75
2, 137372, Note_on_c, 0, 76, 0
2, 137372, Note_on_c, 0, 84, 0
2, 137376, Note_on_c, 0, 81, 77
2, 137376, Note_on_c, 0, 72, 77
2, 137456, Note_on_c, 0, 72, 0
2, 137456, Note_on_c, 0, 81, 0
2, 137472, Note_on_c, 0, 79, 79
2, 137472, Note_on_c, 0, 71, 79
2, 137852, Note_on_c, 0, 71, 0
2, 137852, Note_on_c, 0, 79, 0
2, 137856, Note_on_c, 0, 63, 83
2, 137856, Note_on_c, 0, 78, 82
2, 137856, Note_on_c, 0, 72, 82
2, 138236, Note_on_c, 0, 72, 0
2, 138236, Note_on_c, 0, 78, 0
2, 138236, Note_on_c, 0, 63, 0
2, 138240, Note_on_c, 0, 64, 98
2, 138284, Note_on_c, 0, 64, 0
2, 138288, Note_on_c, 0, 71, 93
2, 138332, Note_on_c, 0, 71, 0
2, 138336, Note_on_c, 0, 81, 90
2, 138432, Note_on_c, 0, 81, 0
2, 138432, Note_on_c, 0, 79, 90
2, 138612, Note_on_c, 0, 79, 0
2, 138624, Note_on_c, 0, 60, 98
2, 138668, Note_on_c, 0, 60, 0
2, 138672, Note_on_c, 0, 67, 93
2, 138716, Note_on_c, 0, 67, 0
2, 138720, Note_on_c, 0, 78, 90
2, 138816, Note_on_c, 0, 78, 0
2, 138816, Note_on_c, 0, 76, 90
2, 138996, Note_on_c, 0, 76, 0
2, 139008, Note_on_c, 0, 59, 98
2, 139052, Note_on_c, 0, 59, 0
2, 139056, Note_on_c, 0, 67, 93
2, 139100, Note_on_c, 0, 67, 0
2, 139104, Note_on_c, 0, 74, 90
2, 139200, Note_on_c, 0, 74, 0
2, 139200, Note_on_c, 0, 73, 90
2, 139380, Note_on_c, 0, 73, 0
2, 139392, Note_on_c, 0, 57, 98
2, 139436, Note_on_c, 0, 57, 0
2, 139440, Note_on_c, 0, 62, 93
2, 139484, Note_on_c, 0, 62, 0
2, 139488, Note_on_c, 0, 72, 90
2, 139488, Note_on_c, 0, 62, 90
2, 139580, Note_on_c, 0, 62, 0
2, 139584, Note_on_c, 0, 63, 87
2, 139772, Note_on_c, 0, 63, 0
2, 139776, Note_on_c, 0, 64, 85
2, 139964, Note_on_c, 0, 64, 0
2, 139968, Note_on_c, 0, 66, 83
2, 140148, Note_on_c, 0, 66, 0
2, 140156, Note_on_c, 0, 72, 0
2, 140160, Note_on_c, 0, 71, 81
2, 140160, Note_on_c, 0, 67, 81
2, 140160, Note_on_c, 0, 59, 81
2, 140348, Note_on_c, 0, 59, 0
2, 140348, Note_on_c, 0, 67, 0
2, 140348, Note_on_c, 0, 71, 0
2, 140352, Note_on_c, 0, 60, 79
2, 140540, Note_on_c, 0, 60, 0
2, 140544, Note_on_c, 0, 62, 96
2, 140588, Note_on_c, 0, 62, 0
2, 140592, Note_on_c, 0, 67, 84
2, 140592, Note_on_c, 0, 69, 90
2, 140612, Note_on_c, 0, 69, 0
2, 140616, Note_on_c, 0, 71, 84
2, 140636, Note_on_c, 0, 71, 0
2, 140640, Note_on_c, 0, 69, 84
2, 140660, Note_on_c, 0, 69, 0
2, 140664, Note_on_c, 0, 71, 84
2, 140684, Note_on_c, 0, 71, 0
2, 140688, Note_on_c, 0, 69, 84
2, 140708, Note_on_c, 0, 69, 0
2, 140712, Note_on_c, 0, 71, 84
2, 140732, Note_on_c, 0, 71, 0
2, 140736, Note_on_c, 0, 69, 84
2, 140756, Note_on_c, 0, 69, 0
2, 140760, Note_on_c, 0, 71, 84
2, 140780, Note_on_c, 0, 71, 0
2, 140784, Note_on_c, 0, 69, 84
2, 140804, Note_on_c, 0, 69, 0
2, 140808, Note_on_c, 0, 71, 84
2, 140828, Note_on_c, 0, 71, 0
2, 140832, Note_on_c, 0, 69, 84
2, 140852, Note_on_c, 0, 69, 0
2, 140856, Note_on_c, 0, 71, 84
2, 140876, Note_on_c, 0, 71, 0
2, 140880, Note_on_c, 0, 69, 84
2, 140900, Note_on_c, 0, 69, 0
2, 140904, Note_on_c, 0, 71, 84
2, 140924, Note_on_c, 0, 71, 0
2, 140928, Note_on_c, 0, 69, 84
2, 140948, Note_on_c, 0, 69, 0
2, 140952, Note_on_c, 0, 71, 84
2, 140972, Note_on_c, 0, 71, 0
2, 140976, Note_on_c, 0, 69, 84
2, 140996, Note_on_c, 0, 69, 0
2, 141000, Note_on_c, 0, 71, 84
2, 141020, Note_on_c, 0, 71, 0
2, 141024, Note_on_c, 0, 69, 84
2, 141044, Note_on_c, 0, 69, 0
2, 141048, Note_on_c, 0, 71, 84
2, 141068, Note_on_c, 0, 71, 0
2, 141072, Note_on_c, 0, 69, 84
2, 141092, Note_on_c, 0, 69, 0
2, 141096, Note_on_c, 0, 71, 84
2, 141116, Note_on_c, 0, 71, 0
2, 141120, Note_on_c, 0, 69, 84
2, 141140, Note_on_c, 0, 69, 0
2, 141144, Note_on_c, 0, 71, 84
2, 141164, Note_on_c, 0, 71, 0
2, 141168, Note_on_c, 0, 69, 84
2, 141188, Note_on_c, 0, 69, 0
2, 141192, Note_on_c, 0, 71, 84
2, 141212, Note_on_c, 0, 71, 0
2, 141216, Note_on_c, 0, 69, 84
2, 141236, Note_on_c, 0, 69, 0
2, 141240, Note_on_c, 0, 71, 84
2, 141260, Note_on_c, 0, 71, 0
2, 141264, Note_on_c, 0, 69, 84
2, 141284, Note_on_c, 0, 69, 0
2, 141288, Note_on_c, 0, 71, 84
2, 141308, Note_on_c, 0, 71, 0
2, 141312, Note_on_c, 0, 69, 84
2, 141332, Note_on_c, 0, 69, 0
2, 141336, Note_on_c, 0, 71, 84
2, 141356, Note_on_c, 0, 71, 0
2, 141360, Note_on_c, 0, 69, 84
2, 141380, Note_on_c, 0, 69, 0
2, 141384, Note_on_c, 0, 71, 84
2, 141404, Note_on_c, 0, 71, 0
2, 141408, Note_on_c, 0, 69, 84
2, 141428, Note_on_c, 0, 69, 0
2, 141432, Note_on_c, 0, 71, 84
2, 141452, Note_on_c, 0, 71, 0
2, 141456, Note_on_c, 0, 69, 84
2, 141476, Note_on_c, 0, 69, 0
2, 141480, Note_on_c, 0, 71, 84
2, 141500, Note_on_c, 0, 71, 0
2, 141504, Note_on_c, 0, 69, 84
2, 141524, Note_on_c, 0, 69, 0
2, 141528, Note_on_c, 0, 71, 84
2, 141548, Note_on_c, 0, 71, 0
2, 141552, Note_on_c, 0, 69, 84
2, 141572, Note_on_c, 0, 69, 0
2, 141576, Note_on_c, 0, 71, 84
2, 141596, Note_on_c, 0, 71, 0
2, 141600, Note_on_c, 0, 69, 84
2, 141620, Note_on_c, 0, 69, 0
2, 141624, Note_on_c, 0, 71, 84
2, 141644, Note_on_c, 0, 71, 0
2, 141648, Note_on_c, 0, 69, 84
2, 141668, Note_on_c, 0, 69, 0
2, 141672, Note_on_c, 0, 71, 84
2, 141692, Note_on_c, 0, 71, 0
2, 141696, Note_on_c, 0, 62, 84
2, 141696, Note_on_c, 0, 57, 84
2, 141740, Note_on_c, 0, 57, 0
2, 141740, Note_on_c, 0, 62, 0
2, 141740, Note_on_c, 0, 67, 0
2, 141744, Note_on_c, 0, 78, 74
2, 141744, Note_on_c, 0, 69, 74
2, 141788, Note_on_c, 0, 69, 0
2, 141788, Note_on_c, 0, 78, 0
2, 141792, Note_on_c, 0, 72, 77
2, 141792, Note_on_c, 0, 79, 77
2, 141884, Note_on_c, 0, 79, 0
2, 141884, Note_on_c, 0, 72, 0
2, 141888, Note_on_c, 0, 78, 80
2, 141888, Note_on_c, 0, 69, 80
2, 141980, Note_on_c, 0, 69, 0
2, 141980, Note_on_c, 0, 78, 0
2, 141984, Note_on_c, 0, 79, 89
2, 141984, Note_on_c, 0, 72, 89
2, 142064, Note_on_c, 0, 72, 0
2, 142064, Note_on_c, 0, 79, 0
2, 142080, Note_on_c, 0, 62, 93
2, 142124, Note_on_c, 0, 62, 0
2, 142128, Note_on_c, 0, 72, 93
2, 142172, Note_on_c, 0, 72, 0
2, 142176, Note_on_c, 0, 78, 90
2, 142196, Note_on_c, 0, 78, 0
2, 142200, Note_on_c, 0, 79, 90
2, 142220, Note_on_c, 0, 79, 0
2, 142224, Note_on_c, 0, 78, 90
2, 142244, Note_on_c, 0, 78, 0
2, 142248, Note_on_c, 0, 79, 90
2, 142268, Note_on_c, 0, 79, 0
2, 142272, Note_on_c, 0, 78, 90
2, 142292, Note_on_c, 0, 78, 0
2, 142296, Note_on_c, 0, 79, 90
2, 142316, Note_on_c, 0, 79, 0
2, 142320, Note_on_c, 0, 78, 90
2, 142340, Note_on_c, 0, 78, 0
2, 142344, Note_on_c, 0, 79, 90
2, 142364, Note_on_c, 0, 79, 0
2, 142368, Note_on_c, 0, 78, 90
2, 142388, Note_on_c, 0, 78, 0
2, 142392, Note_on_c, 0, 79, 90
2, 142412, Note_on_c, 0, 79, 0
2, 142416, Note_on_c, 0, 78, 90
2, 142436, Note_on_c, 0, 78, 0
2, 142440, Note_on_c, 0, 79, 90
2, 142460, Note_on_c, 0, 79, 0
2, 142464, Note_on_c, 0, 78, 90
2, 142484, Note_on_c, 0, 78, 0
2, 142488, Note_on_c, 0, 79, 90
2, 142508, Note_on_c, 0, 79, 0
2, 142512, Note_on_c, 0, 78, 90
2, 142532, Note_on_c, 0, 78, 0
2, 142536, Note_on_c, 0, 79, 90
2, 142556, Note_on_c, 0, 79, 0
2, 142560, Note_on_c, 0, 78, 90
2, 142580, Note_on_c, 0, 78, 0
2, 142584, Note_on_c, 0, 79, 90
2, 142604, Note_on_c, 0, 79, 0
2, 142608, Note_on_c, 0, 78, 90
2, 142628, Note_on_c, 0, 78, 0
2, 142632, Note_on_c, 0, 79, 90
2, 142652, Note_on_c, 0, 79, 0
2, 142656, Note_on_c, 0, 76, 90
2, 142736, Note_on_c, 0, 78, 90
2, 142744, Note_on_c, 0, 76, 0
2, 142824, Note_on_c, 0, 78, 0
2, 142848, Note_on_c, 0, 79, 90
2, 143232, Note_on_c, 0, 79, 0
2, 143232, End_track
3, 0, Start_track
3, 0, MIDI_port, 0
3, 0, Title_t, "Concerto  #2"
3, 0, Control_c, 1, 0, 0
3, 0, Control_c, 1, 32, 0
3, 0, Program_c, 1, 48
3, 0, Control_c, 1, 7, 127
3, 0, Control_c, 1, 10, 45
3, 0, Control_c, 1, 91, 67
3, 0, Control_c, 1, 93, 0
3, 0, Control_c, 1, 121, 0
3, 192, Control_c, 1, 10, 53
3, 384, Control_c, 1, 91, 73
3, 576, Program_c, 1, 48
3, 1152, Note_on_c, 1, 74, 85
3, 1916, Note_on_c, 1, 74, 0
3, 1920, Note_on_c, 1, 76, 85
3, 2208, Note_on_c, 1, 76, 0
3, 2208, Note_on_c, 1, 72, 90
3, 2288, Note_on_c, 1, 72, 0
3, 2304, Note_on_c, 1, 74, 85
3, 2592, Note_on_c, 1, 74, 0
3, 2592, Note_on_c, 1, 71, 90
3, 2672, Note_on_c, 1, 71, 0
3, 2688, Note_on_c, 1, 79, 85
3, 3072, Note_on_c, 1, 79, 0
3, 3072, Note_on_c, 1, 79, 85
3, 3456, Note_on_c, 1, 79, 0
3, 3456, Note_on_c, 1, 83, 65
3, 3456, Note_on_c, 1, 71, 65
3, 3648, Note_on_c, 1, 71, 0
3, 3648, Note_on_c, 1, 83, 0
3, 3648, Note_on_c, 1, 78, 65
3, 3648, Note_on_c, 1, 66, 65
3, 3836, Note_on_c, 1, 66, 0
3, 3836, Note_on_c, 1, 78, 0
3, 3840, Note_on_c, 1, 79, 65
3, 3840, Note_on_c, 1, 67, 65
3, 4028, Note_on_c, 1, 67, 0
3, 4028, Note_on_c, 1, 79, 0
3, 4032, Note_on_c, 1, 75, 65
3, 4032, Note_on_c, 1, 63, 65
3, 4220, Note_on_c, 1, 63, 0
3, 4220, Note_on_c, 1, 75, 0
3, 4224, Note_on_c, 1, 76, 65
3, 4224, Note_on_c, 1, 64, 65
3, 4412, Note_on_c, 1, 64, 0
3, 4412, Note_on_c, 1, 76, 0
3, 4416, Note_on_c, 1, 79, 65
3, 4416, Note_on_c, 1, 67, 65
3, 4596, Note_on_c, 1, 67, 0
3, 4596, Note_on_c, 1, 79, 0
3, 4608, Note_on_c, 1, 73, 65
3, 4608, Note_on_c, 1, 61, 65
3, 4800, Note_on_c, 1, 61, 0
3, 4800, Note_on_c, 1, 73, 0
3, 4800, Note_on_c, 1, 74, 65
3, 4800, Note_on_c, 1, 62, 65
3, 4988, Note_on_c, 1, 62, 0
3, 4988, Note_on_c, 1, 74, 0
3, 4992, Note_on_c, 1, 76, 65
3, 4992, Note_on_c, 1, 64, 65
3, 5180, Note_on_c, 1, 64, 0
3, 5180, Note_on_c, 1, 76, 0
3, 5184, Note_on_c, 1, 72, 65
3, 5372, Note_on_c, 1, 72, 0
3, 5376, Note_on_c, 1, 70, 65
3, 5564, Note_on_c, 1, 70, 0
3, 5568, Note_on_c, 1, 71, 65
3, 5748, Note_on_c, 1, 71, 0
3, 5760, Note_on_c, 1, 69, 85
3, 6048, Note_on_c, 1, 69, 0
3, 6048, Note_on_c, 1, 81, 90
3, 6128, Note_on_c, 1, 81, 0
3, 6144, Note_on_c, 1, 81, 85
3, 6144, Note_on_c, 1, 69, 85
3, 6720, Note_on_c, 1, 69, 0
3, 6720, Note_on_c, 1, 81, 0
3, 6720, Note_on_c, 1, 79, 85
3, 6720, Note_on_c, 1, 67, 85
3, 6900, Note_on_c, 1, 67, 0
3, 6900, Note_on_c, 1, 79, 0
3, 6912, Note_on_c, 1, 79, 85
3, 6912, Note_on_c, 1, 67, 85
3, 7200, Note_on_c, 1, 67, 0
3, 7200, Note_on_c, 1, 79, 0
3, 7200, Note_on_c, 1, 78, 90
3, 7200, Note_on_c, 1, 66, 90
3, 7280, Note_on_c, 1, 66, 0
3, 7280, Note_on_c, 1, 78, 0
3, 7296, Note_on_c, 1, 78, 85
3, 7296, Note_on_c, 1, 66, 85
3, 7872, Note_on_c, 1, 66, 0
3, 7872, Note_on_c, 1, 78, 0
3, 7872, Note_on_c, 1, 76, 85
3, 7872, Note_on_c, 1, 64, 85
3, 8052, Note_on_c, 1, 64, 0
3, 8052, Note_on_c, 1, 76, 0
3, 8064, Note_on_c, 1, 74, 65
3, 8064, Note_on_c, 1, 62, 65
3, 8256, Note_on_c, 1, 62, 0
3, 8256, Note_on_c, 1, 74, 0
3, 8256, Note_on_c, 1, 73, 65
3, 8256, Note_on_c, 1, 61, 65
3, 8444, Note_on_c, 1, 61, 0
3, 8444, Note_on_c, 1, 73, 0
3, 8448, Note_on_c, 1, 72, 65
3, 8448, Note_on_c, 1, 60, 65
3, 8636, Note_on_c, 1, 60, 0
3, 8636, Note_on_c, 1, 72, 0
3, 8640, Note_on_c, 1, 69, 65
3, 8640, Note_on_c, 1, 62, 65
3, 8828, Note_on_c, 1, 62, 0
3, 8828, Note_on_c, 1, 69, 0
3, 8832, Note_on_c, 1, 71, 65
3, 8832, Note_on_c, 1, 62, 65
3, 9020, Note_on_c, 1, 62, 0
3, 9020, Note_on_c, 1, 71, 0
3, 9024, Note_on_c, 1, 76, 65
3, 9024, Note_on_c, 1, 64, 65
3, 9204, Note_on_c, 1, 64, 0
3, 9204, Note_on_c, 1, 76, 0
3, 9216, Note_on_c, 1, 67, 65
3, 9216, Note_on_c, 1, 62, 65
3, 9984, Note_on_c, 1, 62, 0
3, 9984, Note_on_c, 1, 67, 0
3, 9984, Note_on_c, 1, 66, 65
3, 9984, Note_on_c, 1, 62, 65
3, 10164, Note_on_c, 1, 62, 0
3, 10164, Note_on_c, 1, 66, 0
3, 10368, Note_on_c, 1, 62, 65
3, 10368, Note_on_c, 1, 59, 65
3, 10464, Note_on_c, 1, 59, 0
3, 10464, Note_on_c, 1, 62, 0
3, 10464, Note_on_c, 1, 55, 65
3, 10556, Note_on_c, 1, 55, 0
3, 10560, Note_on_c, 1, 62, 65
3, 10560, Note_on_c, 1, 59, 65
3, 10652, Note_on_c, 1, 59, 0
3, 10652, Note_on_c, 1, 62, 0
3, 10656, Note_on_c, 1, 55, 65
3, 10748, Note_on_c, 1, 55, 0
3, 10752, Note_on_c, 1, 62, 65
3, 10752, Note_on_c, 1, 59, 65
3, 10844, Note_on_c, 1, 59, 0
3, 10844, Note_on_c, 1, 62, 0
3, 10848, Note_on_c, 1, 55, 65
3, 10928, Note_on_c, 1, 59, 65
3, 10940, Note_on_c, 1, 55, 0
3, 10944, Note_on_c, 1, 62, 65
3, 11020, Note_on_c, 1, 59, 0
3, 11024, Note_on_c, 1, 62, 0
3, 11040, Note_on_c, 1, 55, 65
3, 11120, Note_on_c, 1, 55, 0
3, 11136, Note_on_c, 1, 64, 65
3, 11136, Note_on_c, 1, 60, 65
3, 11232, Note_on_c, 1, 60, 0
3, 11232, Note_on_c, 1, 64, 0
3, 11232, Note_on_c, 1, 55, 65
3, 11324, Note_on_c, 1, 55, 0
3, 11328, Note_on_c, 1, 64, 65
3, 11328, Note_on_c, 1, 60, 65
3, 11420, Note_on_c, 1, 60, 0
3, 11420, Note_on_c, 1, 64, 0
3, 11424, Note_on_c, 1, 55, 65
3, 11504, Note_on_c, 1, 55, 0
3, 11520, Note_on_c, 1, 62, 65
3, 11520, Note_on_c, 1, 59, 65
3, 11616, Note_on_c, 1, 59, 0
3, 11616, Note_on_c, 1, 62, 0
3, 11616, Note_on_c, 1, 67, 65
3, 11708, Note_on_c, 1, 67, 0
3, 11712, Note_on_c, 1, 71, 65
3, 11712, Note_on_c, 1, 67, 65
3, 11804, Note_on_c, 1, 67, 0
3, 11804, Note_on_c, 1, 71, 0
3, 11808, Note_on_c, 1, 62, 65
3, 11900, Note_on_c, 1, 62, 0
3, 11904, Note_on_c, 1, 71, 65
3, 11904, Note_on_c, 1, 67, 65
3, 11996, Note_on_c, 1, 67, 0
3, 11996, Note_on_c, 1, 71, 0
3, 12000, Note_on_c, 1, 62, 65
3, 12092, Note_on_c, 1, 62, 0
3, 12096, Note_on_c, 1, 71, 65
3, 12096, Note_on_c, 1, 67, 65
3, 12188, Note_on_c, 1, 67, 0
3, 12188, Note_on_c, 1, 71, 0
3, 12192, Note_on_c, 1, 62, 65
3, 12284, Note_on_c, 1, 62, 0
3, 12288, Note_on_c, 1, 71, 65
3, 12288, Note_on_c, 1, 67, 65
3, 12380, Note_on_c, 1, 67, 0
3, 12380, Note_on_c, 1, 71, 0
3, 12384, Note_on_c, 1, 62, 65
3, 12476, Note_on_c, 1, 62, 0
3, 12480, Note_on_c, 1, 71, 65
3, 12480, Note_on_c, 1, 67, 65
3, 12572, Note_on_c, 1, 67, 0
3, 12572, Note_on_c, 1, 71, 0
3, 12576, Note_on_c, 1, 62, 65
3, 12656, Note_on_c, 1, 62, 0
3, 12672, Note_on_c, 1, 71, 65
3, 12672, Note_on_c, 1, 67, 65
3, 12864, Note_on_c, 1, 67, 0
3, 12864, Note_on_c, 1, 71, 0
3, 12864, Note_on_c, 1, 66, 65
3, 13052, Note_on_c, 1, 66, 0
3, 13056, Note_on_c, 1, 67, 65
3, 13244, Note_on_c, 1, 67, 0
3, 13248, Note_on_c, 1, 63, 65
3, 13436, Note_on_c, 1, 63, 0
3, 13440, Note_on_c, 1, 64, 65
3, 13628, Note_on_c, 1, 64, 0
3, 13632, Note_on_c, 1, 67, 65
3, 13820, Note_on_c, 1, 67, 0
3, 13824, Note_on_c, 1, 61, 65
3, 14016, Note_on_c, 1, 61, 0
3, 14016, Note_on_c, 1, 62, 65
3, 14196, Note_on_c, 1, 62, 0
3, 14400, Note_on_c, 1, 69, 65
3, 14592, Note_on_c, 1, 69, 0
3, 14592, Note_on_c, 1, 66, 65
3, 14780, Note_on_c, 1, 66, 0
3, 14784, Note_on_c, 1, 67, 65
3, 14964, Note_on_c, 1, 67, 0
3, 15072, Note_on_c, 1, 72, 65
3, 15168, Note_on_c, 1, 72, 0
3, 15168, Note_on_c, 1, 76, 65
3, 15260, Note_on_c, 1, 76, 0
3, 15264, Note_on_c, 1, 72, 65
3, 15356, Note_on_c, 1, 72, 0
3, 15360, Note_on_c, 1, 76, 65
3, 15452, Note_on_c, 1, 76, 0
3, 15456, Note_on_c, 1, 72, 65
3, 15548, Note_on_c, 1, 72, 0
3, 15552, Note_on_c, 1, 76, 65
3, 15644, Note_on_c, 1, 76, 0
3, 15648, Note_on_c, 1, 72, 65
3, 15740, Note_on_c, 1, 72, 0
3, 15744, Note_on_c, 1, 76, 65
3, 15836, Note_on_c, 1, 76, 0
3, 15840, Note_on_c, 1, 72, 65
3, 15932, Note_on_c, 1, 72, 0
3, 15936, Note_on_c, 1, 74, 65
3, 16028, Note_on_c, 1, 74, 0
3, 16032, Note_on_c, 1, 71, 65
3, 16112, Note_on_c, 1, 71, 0
3, 16224, Note_on_c, 1, 69, 65
3, 16320, Note_on_c, 1, 69, 0
3, 16320, Note_on_c, 1, 72, 65
3, 16412, Note_on_c, 1, 72, 0
3, 16416, Note_on_c, 1, 69, 65
3, 16508, Note_on_c, 1, 69, 0
3, 16512, Note_on_c, 1, 72, 65
3, 16604, Note_on_c, 1, 72, 0
3, 16608, Note_on_c, 1, 69, 65
3, 16700, Note_on_c, 1, 69, 0
3, 16704, Note_on_c, 1, 72, 65
3, 16796, Note_on_c, 1, 72, 0
3, 16800, Note_on_c, 1, 69, 65
3, 16892, Note_on_c, 1, 69, 0
3, 16896, Note_on_c, 1, 72, 65
3, 16988, Note_on_c, 1, 72, 0
3, 16992, Note_on_c, 1, 69, 65
3, 17084, Note_on_c, 1, 69, 0
3, 17088, Note_on_c, 1, 71, 65
3, 17180, Note_on_c, 1, 71, 0
3, 17184, Note_on_c, 1, 67, 65
3, 17264, Note_on_c, 1, 67, 0
3, 17280, Note_on_c, 1, 69, 65
3, 17660, Note_on_c, 1, 69, 0
3, 17856, Note_on_c, 1, 66, 65
3, 17856, Note_on_c, 1, 62, 65
3, 18048, Note_on_c, 1, 66, 0
3, 18048, Note_on_c, 1, 67, 65
3, 18228, Note_on_c, 1, 67, 0
3, 18240, Note_on_c, 1, 62, 0
3, 18240, Note_on_c, 1, 67, 65
3, 18240, Note_on_c, 1, 60, 65
3, 18428, Note_on_c, 1, 60, 0
3, 18428, Note_on_c, 1, 67, 0
3, 18432, Note_on_c, 1, 62, 65
3, 18432, Note_on_c, 1, 59, 65
3, 19200, Note_on_c, 1, 59, 0
3, 19200, Note_on_c, 1, 62, 0
3, 19200, Note_on_c, 1, 62, 65
3, 19200, Note_on_c, 1, 57, 65
3, 19380, Note_on_c, 1, 57, 0
3, 19380, Note_on_c, 1, 62, 0
3, 19392, Note_on_c, 1, 66, 65
3, 19392, Note_on_c, 1, 62, 65
3, 19580, Note_on_c, 1, 62, 0
3, 19580, Note_on_c, 1, 66, 0
3, 19584, Note_on_c, 1, 69, 65
3, 19584, Note_on_c, 1, 66, 65
3, 19772, Note_on_c, 1, 66, 0
3, 19772, Note_on_c, 1, 69, 0
3, 19776, Note_on_c, 1, 66, 65
3, 19776, Note_on_c, 1, 62, 65
3, 19964, Note_on_c, 1, 62, 0
3, 19964, Note_on_c, 1, 66, 0
3, 19968, Note_on_c, 1, 66, 65
3, 19968, Note_on_c, 1, 62, 65
3, 20156, Note_on_c, 1, 62, 0
3, 20156, Note_on_c, 1, 66, 0
3, 20160, Note_on_c, 1, 66, 65
3, 20160, Note_on_c, 1, 62, 65
3, 20348, Note_on_c, 1, 62, 0
3, 20348, Note_on_c, 1, 66, 0
3, 20352, Note_on_c, 1, 69, 65
3, 20352, Note_on_c, 1, 62, 65
3, 20540, Note_on_c, 1, 62, 0
3, 20540, Note_on_c, 1, 69, 0
3, 20544, Note_on_c, 1, 69, 65
3, 20544, Note_on_c, 1, 66, 65
3, 20732, Note_on_c, 1, 66, 0
3, 20732, Note_on_c, 1, 69, 0
3, 20736, Note_on_c, 1, 69, 65
3, 20736, Note_on_c, 1, 67, 65
3, 20924, Note_on_c, 1, 67, 0
3, 20924, Note_on_c, 1, 69, 0
3, 20928, Note_on_c, 1, 69, 65
3, 20928, Note_on_c, 1, 67, 65
3, 21116, Note_on_c, 1, 67, 0
3, 21116, Note_on_c, 1, 69, 0
3, 21120, Note_on_c, 1, 69, 65
3, 21120, Note_on_c, 1, 67, 65
3, 21308, Note_on_c, 1, 67, 0
3, 21308, Note_on_c, 1, 69, 0
3, 21312, Note_on_c, 1, 69, 65
3, 21312, Note_on_c, 1, 67, 65
3, 21500, Note_on_c, 1, 67, 0
3, 21500, Note_on_c, 1, 69, 0
3, 21504, Note_on_c, 1, 69, 65
3, 21504, Note_on_c, 1, 66, 65
3, 21692, Note_on_c, 1, 66, 0
3, 21692, Note_on_c, 1, 69, 0
3, 21696, Note_on_c, 1, 69, 65
3, 21696, Note_on_c, 1, 66, 65
3, 21884, Note_on_c, 1, 66, 0
3, 21884, Note_on_c, 1, 69, 0
3, 21888, Note_on_c, 1, 69, 65
3, 21888, Note_on_c, 1, 67, 65
3, 22076, Note_on_c, 1, 67, 0
3, 22076, Note_on_c, 1, 69, 0
3, 22080, Note_on_c, 1, 69, 65
3, 22080, Note_on_c, 1, 67, 65
3, 22268, Note_on_c, 1, 67, 0
3, 22268, Note_on_c, 1, 69, 0
3, 22272, Note_on_c, 1, 69, 65
3, 22272, Note_on_c, 1, 67, 65
3, 22460, Note_on_c, 1, 67, 0
3, 22460, Note_on_c, 1, 69, 0
3, 22464, Note_on_c, 1, 69, 65
3, 22464, Note_on_c, 1, 67, 65
3, 22652, Note_on_c, 1, 67, 0
3, 22652, Note_on_c, 1, 69, 0
3, 22656, Note_on_c, 1, 69, 65
3, 22656, Note_on_c, 1, 66, 65
3, 22844, Note_on_c, 1, 66, 0
3, 22844, Note_on_c, 1, 69, 0
3, 22848, Note_on_c, 1, 74, 65
3, 22848, Note_on_c, 1, 66, 65
3, 23036, Note_on_c, 1, 66, 0
3, 23036, Note_on_c, 1, 74, 0
3, 23040, Note_on_c, 1, 74, 65
3, 23040, Note_on_c, 1, 64, 65
3, 23228, Note_on_c, 1, 64, 0
3, 23228, Note_on_c, 1, 74, 0
3, 23232, Note_on_c, 1, 71, 67
3, 23232, Note_on_c, 1, 64, 67
3, 23420, Note_on_c, 1, 64, 0
3, 23424, Note_on_c, 1, 64, 70
3, 23612, Note_on_c, 1, 64, 0
3, 23616, Note_on_c, 1, 71, 0
3, 23616, Note_on_c, 1, 72, 75
3, 23616, Note_on_c, 1, 64, 75
3, 23756, Note_on_c, 1, 72, 0
3, 23760, Note_on_c, 1, 74, 85
3, 23804, Note_on_c, 1, 74, 0
3, 23804, Note_on_c, 1, 64, 0
3, 23808, Note_on_c, 1, 76, 75
3, 23808, Note_on_c, 1, 64, 75
3, 23996, Note_on_c, 1, 64, 0
3, 23996, Note_on_c, 1, 76, 0
3, 24000, Note_on_c, 1, 74, 70
3, 24000, Note_on_c, 1, 64, 70
3, 24180, Note_on_c, 1, 64, 0
3, 24180, Note_on_c, 1, 74, 0
3, 24192, Note_on_c, 1, 73, 65
3, 24192, Note_on_c, 1, 57, 65
3, 24380, Note_on_c, 1, 57, 0
3, 24380, Note_on_c, 1, 73, 0
3, 24384, Note_on_c, 1, 73, 65
3, 24384, Note_on_c, 1, 57, 65
3, 24572, Note_on_c, 1, 57, 0
3, 24572, Note_on_c, 1, 73, 0
3, 24576, Note_on_c, 1, 76, 65
3, 24576, Note_on_c, 1, 61, 65
3, 24764, Note_on_c, 1, 61, 0
3, 24764, Note_on_c, 1, 76, 0
3, 24768, Note_on_c, 1, 76, 65
3, 24768, Note_on_c, 1, 61, 65
3, 24956, Note_on_c, 1, 61, 0
3, 24956, Note_on_c, 1, 76, 0
3, 24960, Note_on_c, 1, 69, 65
3, 24960, Note_on_c, 1, 62, 65
3, 25148, Note_on_c, 1, 62, 0
3, 25148, Note_on_c, 1, 69, 0
3, 25152, Note_on_c, 1, 69, 65
3, 25152, Note_on_c, 1, 62, 65
3, 25340, Note_on_c, 1, 62, 0
3, 25340, Note_on_c, 1, 69, 0
3, 25344, Note_on_c, 1, 71, 65
3, 25344, Note_on_c, 1, 67, 65
3, 25532, Note_on_c, 1, 67, 0
3, 25532, Note_on_c, 1, 71, 0
3, 25536, Note_on_c, 1, 71, 65
3, 25536, Note_on_c, 1, 67, 65
3, 25724, Note_on_c, 1, 67, 0
3, 25724, Note_on_c, 1, 71, 0
3, 25728, Note_on_c, 1, 71, 65
3, 25728, Note_on_c, 1, 67, 65
3, 25916, Note_on_c, 1, 67, 0
3, 25916, Note_on_c, 1, 71, 0
3, 25920, Note_on_c, 1, 71, 65
3, 25920, Note_on_c, 1, 67, 65
3, 26108, Note_on_c, 1, 67, 0
3, 26108, Note_on_c, 1, 71, 0
3, 26112, Note_on_c, 1, 69, 65
3, 26112, Note_on_c, 1, 66, 65
3, 26300, Note_on_c, 1, 66, 0
3, 26300, Note_on_c, 1, 69, 0
3, 26304, Note_on_c, 1, 69, 65
3, 26304, Note_on_c, 1, 66, 65
3, 26492, Note_on_c, 1, 66, 0
3, 26492, Note_on_c, 1, 69, 0
3, 26496, Note_on_c, 1, 69, 65
3, 26496, Note_on_c, 1, 67, 65
3, 26496, Note_on_c, 1, 64, 65
3, 26684, Note_on_c, 1, 64, 0
3, 26684, Note_on_c, 1, 67, 0
3, 26684, Note_on_c, 1, 69, 0
3, 26688, Note_on_c, 1, 69, 65
3, 26688, Note_on_c, 1, 64, 65
3, 26688, Note_on_c, 1, 67, 65
3, 26876, Note_on_c, 1, 67, 0
3, 26876, Note_on_c, 1, 64, 0
3, 26876, Note_on_c, 1, 69, 0
3, 26880, Note_on_c, 1, 69, 65
3, 26880, Note_on_c, 1, 66, 65
3, 26880, Note_on_c, 1, 62, 65
3, 27068, Note_on_c, 1, 62, 0
3, 27068, Note_on_c, 1, 66, 0
3, 27068, Note_on_c, 1, 69, 0
3, 27072, Note_on_c, 1, 69, 65
3, 27072, Note_on_c, 1, 62, 65
3, 27260, Note_on_c, 1, 62, 0
3, 27260, Note_on_c, 1, 69, 0
3, 27264, Note_on_c, 1, 74, 65
3, 27264, Note_on_c, 1, 59, 65
3, 27452, Note_on_c, 1, 59, 0
3, 27452, Note_on_c, 1, 74, 0
3, 27456, Note_on_c, 1, 74, 65
3, 27456, Note_on_c, 1, 59, 65
3, 27644, Note_on_c, 1, 59, 0
3, 27644, Note_on_c, 1, 74, 0
3, 27648, Note_on_c, 1, 76, 65
3, 27648, Note_on_c, 1, 57, 65
3, 27840, Note_on_c, 1, 57, 0
3, 27840, Note_on_c, 1, 76, 0
3, 27840, Note_on_c, 1, 69, 65
3, 27840, Note_on_c, 1, 74, 70
3, 27860, Note_on_c, 1, 74, 0
3, 27864, Note_on_c, 1, 76, 70
3, 27884, Note_on_c, 1, 76, 0
3, 27888, Note_on_c, 1, 74, 70
3, 27908, Note_on_c, 1, 74, 0
3, 27912, Note_on_c, 1, 76, 70
3, 27932, Note_on_c, 1, 76, 0
3, 27936, Note_on_c, 1, 73, 70
3, 27980, Note_on_c, 1, 73, 0
3, 27984, Note_on_c, 1, 74, 70
3, 28028, Note_on_c, 1, 74, 0
3, 28028, Note_on_c, 1, 69, 0
3, 28032, Note_on_c, 1, 73, 65
3, 28032, Note_on_c, 1, 57, 65
3, 28212, Note_on_c, 1, 57, 0
3, 28212, Note_on_c, 1, 73, 0
3, 28224, Note_on_c, 1, 69, 85
3, 28224, Note_on_c, 1, 57, 85
3, 28416, Note_on_c, 1, 57, 0
3, 28416, Note_on_c, 1, 69, 0
3, 28416, Note_on_c, 1, 68, 85
3, 28416, Note_on_c, 1, 56, 85
3, 28604, Note_on_c, 1, 56, 0
3, 28604, Note_on_c, 1, 68, 0
3, 28608, Note_on_c, 1, 69, 85
3, 28608, Note_on_c, 1, 57, 85
3, 28788, Note_on_c, 1, 57, 0
3, 28788, Note_on_c, 1, 69, 0
3, 28800, Note_on_c, 1, 74, 85
3, 28800, Note_on_c, 1, 66, 85
3, 28988, Note_on_c, 1, 66, 0
3, 28992, Note_on_c, 1, 66, 85
3, 29180, Note_on_c, 1, 66, 0
3, 29184, Note_on_c, 1, 66, 85
3, 29280, Note_on_c, 1, 74, 0
3, 29280, Note_on_c, 1, 73, 85
3, 29372, Note_on_c, 1, 73, 0
3, 29372, Note_on_c, 1, 66, 0
3, 29376, Note_on_c, 1, 74, 85
3, 29376, Note_on_c, 1, 66, 85
3, 29468, Note_on_c, 1, 74, 0
3, 29472, Note_on_c, 1, 76, 85
3, 29552, Note_on_c, 1, 76, 0
3, 29564, Note_on_c, 1, 66, 0
3, 29568, Note_on_c, 1, 74, 85
3, 29568, Note_on_c, 1, 67, 85
3, 29664, Note_on_c, 1, 74, 0
3, 29664, Note_on_c, 1, 73, 85
3, 29744, Note_on_c, 1, 67, 85
3, 29756, Note_on_c, 1, 67, 0
3, 29756, Note_on_c, 1, 73, 0
3, 29760, Note_on_c, 1, 71, 85
3, 29852, Note_on_c, 1, 71, 0
3, 29856, Note_on_c, 1, 69, 85
3, 29932, Note_on_c, 1, 67, 0
3, 29936, Note_on_c, 1, 69, 0
3, 29952, Note_on_c, 1, 64, 90
3, 29968, Note_on_c, 1, 67, 87
3, 29984, Note_on_c, 1, 79, 85
3, 30140, Note_on_c, 1, 67, 0
3, 30140, Note_on_c, 1, 64, 0
3, 30144, Note_on_c, 1, 69, 85
3, 30332, Note_on_c, 1, 69, 0
3, 30336, Note_on_c, 1, 69, 85
3, 30428, Note_on_c, 1, 79, 0
3, 30432, Note_on_c, 1, 78, 85
3, 30524, Note_on_c, 1, 78, 0
3, 30524, Note_on_c, 1, 69, 0
3, 30528, Note_on_c, 1, 69, 85
3, 30528, Note_on_c, 1, 79, 85
3, 30620, Note_on_c, 1, 79, 0
3, 30624, Note_on_c, 1, 81, 85
3, 30704, Note_on_c, 1, 81, 0
3, 30716, Note_on_c, 1, 69, 0
3, 30720, Note_on_c, 1, 79, 85
3, 30720, Note_on_c, 1, 69, 85
3, 30816, Note_on_c, 1, 79, 0
3, 30816, Note_on_c, 1, 78, 85
3, 30908, Note_on_c, 1, 78, 0
3, 30908, Note_on_c, 1, 69, 0
3, 30912, Note_on_c, 1, 66, 85
3, 30912, Note_on_c, 1, 76, 85
3, 31004, Note_on_c, 1, 76, 0
3, 31008, Note_on_c, 1, 74, 85
3, 31088, Note_on_c, 1, 74, 0
3, 31100, Note_on_c, 1, 66, 0
3, 31104, Note_on_c, 1, 74, 65
3, 31104, Note_on_c, 1, 62, 65
3, 31484, Note_on_c, 1, 62, 0
3, 31488, Note_on_c, 1, 62, 65
3, 31580, Note_on_c, 1, 62, 0
3, 31584, Note_on_c, 1, 74, 0
3, 31584, Note_on_c, 1, 73, 65
3, 31584, Note_on_c, 1, 61, 65
3, 31676, Note_on_c, 1, 61, 0
3, 31676, Note_on_c, 1, 73, 0
3, 31680, Note_on_c, 1, 74, 65
3, 31680, Note_on_c, 1, 62, 65
3, 31772, Note_on_c, 1, 62, 0
3, 31772, Note_on_c, 1, 74, 0
3, 31776, Note_on_c, 1, 76, 65
3, 31776, Note_on_c, 1, 62, 65
3, 31856, Note_on_c, 1, 62, 0
3, 31856, Note_on_c, 1, 76, 0
3, 31872, Note_on_c, 1, 74, 65
3, 31872, Note_on_c, 1, 62, 65
3, 31968, Note_on_c, 1, 62, 0
3, 31968, Note_on_c, 1, 74, 0
3, 31968, Note_on_c, 1, 73, 65
3, 31968, Note_on_c, 1, 61, 65
3, 32060, Note_on_c, 1, 61, 0
3, 32060, Note_on_c, 1, 73, 0
3, 32064, Note_on_c, 1, 71, 65
3, 32064, Note_on_c, 1, 59, 65
3, 32156, Note_on_c, 1, 59, 0
3, 32156, Note_on_c, 1, 71, 0
3, 32160, Note_on_c, 1, 69, 65
3, 32160, Note_on_c, 1, 57, 65
3, 32240, Note_on_c, 1, 57, 0
3, 32240, Note_on_c, 1, 69, 0
3, 32256, Note_on_c, 1, 79, 65
3, 32256, Note_on_c, 1, 67, 65
3, 32736, Note_on_c, 1, 67, 0
3, 32736, Note_on_c, 1, 79, 0
3, 32736, Note_on_c, 1, 78, 65
3, 32736, Note_on_c, 1, 66, 65
3, 32828, Note_on_c, 1, 66, 0
3, 32828, Note_on_c, 1, 78, 0
3, 32832, Note_on_c, 1, 79, 65
3, 32832, Note_on_c, 1, 67, 65
3, 32924, Note_on_c, 1, 67, 0
3, 32924, Note_on_c, 1, 79, 0
3, 32928, Note_on_c, 1, 81, 65
3, 32928, Note_on_c, 1, 69, 65
3, 33008, Note_on_c, 1, 69, 0
3, 33008, Note_on_c, 1, 81, 0
3, 33024, Note_on_c, 1, 79, 65
3, 33024, Note_on_c, 1, 67, 65
3, 33120, Note_on_c, 1, 67, 0
3, 33120, Note_on_c, 1, 79, 0
3, 33120, Note_on_c, 1, 78, 65
3, 33120, Note_on_c, 1, 66, 65
3, 33212, Note_on_c, 1, 66, 0
3, 33212, Note_on_c, 1, 78, 0
3, 33216, Note_on_c, 1, 76, 65
3, 33216, Note_on_c, 1, 64, 65
3, 33308, Note_on_c, 1, 64, 0
3, 33308, Note_on_c, 1, 76, 0
3, 33312, Note_on_c, 1, 74, 65
3, 33312, Note_on_c, 1, 62, 65
3, 33392, Note_on_c, 1, 62, 0
3, 33392, Note_on_c, 1, 74, 0
3, 33408, Note_on_c, 1, 69, 65
3, 33504, Note_on_c, 1, 62, 65
3, 33584, Note_on_c, 1, 60, 65
3, 33596, Note_on_c, 1, 62, 0
3, 33596, Note_on_c, 1, 69, 0
3, 33600, Note_on_c, 1, 67, 65
3, 33676, Note_on_c, 1, 60, 0
3, 33692, Note_on_c, 1, 67, 0
3, 33696, Note_on_c, 1, 62, 65
3, 33788, Note_on_c, 1, 62, 0
3, 33792, Note_on_c, 1, 69, 66
3, 33888, Note_on_c, 1, 62, 68
3, 33968, Note_on_c, 1, 60, 70
3, 33980, Note_on_c, 1, 62, 0
3, 33980, Note_on_c, 1, 69, 0
3, 33984, Note_on_c, 1, 67, 72
3, 34060, Note_on_c, 1, 60, 0
3, 34076, Note_on_c, 1, 67, 0
3, 34080, Note_on_c, 1, 62, 74
3, 34172, Note_on_c, 1, 62, 0
3, 34176, Note_on_c, 1, 69, 76
3, 34272, Note_on_c, 1, 62, 78
3, 34364, Note_on_c, 1, 62, 0
3, 34364, Note_on_c, 1, 69, 0
3, 34368, Note_on_c, 1, 60, 80
3, 34368, Note_on_c, 1, 67, 80
3, 34460, Note_on_c, 1, 67, 0
3, 34460, Note_on_c, 1, 60, 0
3, 34464, Note_on_c, 1, 62, 82
3, 34556, Note_on_c, 1, 62, 0
3, 34560, Note_on_c, 1, 69, 80
3, 34656, Note_on_c, 1, 62, 80
3, 34748, Note_on_c, 1, 62, 0
3, 34752, Note_on_c, 1, 60, 78
3, 34844, Note_on_c, 1, 60, 0
3, 34848, Note_on_c, 1, 62, 78
3, 34940, Note_on_c, 1, 62, 0
3, 34940, Note_on_c, 1, 69, 0
3, 34944, Note_on_c, 1, 67, 76
3, 34944, Note_on_c, 1, 62, 76
3, 35132, Note_on_c, 1, 62, 0
3, 35132, Note_on_c, 1, 67, 0
3, 35712, Note_on_c, 1, 67, 75
3, 35900, Note_on_c, 1, 67, 0
3, 35904, Note_on_c, 1, 67, 75
3, 35904, Note_on_c, 1, 74, 75
3, 36092, Note_on_c, 1, 67, 0
3, 36096, Note_on_c, 1, 67, 75
3, 36284, Note_on_c, 1, 67, 0
3, 36284, Note_on_c, 1, 74, 0
3, 36288, Note_on_c, 1, 67, 75
3, 36288, Note_on_c, 1, 74, 75
3, 36476, Note_on_c, 1, 67, 0
3, 36480, Note_on_c, 1, 66, 75
3, 36668, Note_on_c, 1, 66, 0
3, 36668, Note_on_c, 1, 74, 0
3, 36672, Note_on_c, 1, 74, 75
3, 36672, Note_on_c, 1, 66, 75
3, 36860, Note_on_c, 1, 66, 0
3, 36860, Note_on_c, 1, 74, 0
3, 36864, Note_on_c, 1, 71, 75
3, 36864, Note_on_c, 1, 64, 75
3, 37052, Note_on_c, 1, 64, 0
3, 37052, Note_on_c, 1, 71, 0
3, 37056, Note_on_c, 1, 64, 75
3, 37248, Note_on_c, 1, 61, 75
3, 37436, Note_on_c, 1, 61, 0
3, 37440, Note_on_c, 1, 64, 0
3, 37440, Note_on_c, 1, 66, 75
3, 37440, Note_on_c, 1, 61, 75
3, 37532, Note_on_c, 1, 66, 0
3, 37536, Note_on_c, 1, 67, 75
3, 37616, Note_on_c, 1, 67, 0
3, 37628, Note_on_c, 1, 61, 0
3, 37632, Note_on_c, 1, 67, 75
3, 37632, Note_on_c, 1, 62, 75
3, 37728, Note_on_c, 1, 67, 0
3, 37728, Note_on_c, 1, 66, 75
3, 37820, Note_on_c, 1, 66, 0
3, 37820, Note_on_c, 1, 62, 0
3, 37824, Note_on_c, 1, 71, 75
3, 37824, Note_on_c, 1, 62, 75
3, 37916, Note_on_c, 1, 71, 0
3, 37920, Note_on_c, 1, 69, 75
3, 38000, Note_on_c, 1, 69, 0
3, 38012, Note_on_c, 1, 62, 0
3, 38016, Note_on_c, 1, 69, 75
3, 38016, Note_on_c, 1, 55, 75
3, 38112, Note_on_c, 1, 69, 0
3, 38112, Note_on_c, 1, 67, 75
3, 38204, Note_on_c, 1, 67, 0
3, 38204, Note_on_c, 1, 55, 0
3, 38208, Note_on_c, 1, 71, 75
3, 38208, Note_on_c, 1, 55, 75
3, 38300, Note_on_c, 1, 71, 0
3, 38304, Note_on_c, 1, 67, 75
3, 38384, Note_on_c, 1, 67, 0
3, 38396, Note_on_c, 1, 55, 0
3, 38400, Note_on_c, 1, 66, 75
3, 38400, Note_on_c, 1, 57, 75
3, 38588, Note_on_c, 1, 57, 0
3, 38588, Note_on_c, 1, 66, 0
3, 38592, Note_on_c, 1, 66, 75
3, 38592, Note_on_c, 1, 57, 75
3, 38780, Note_on_c, 1, 57, 0
3, 38780, Note_on_c, 1, 66, 0
3, 38784, Note_on_c, 1, 64, 75
3, 38784, Note_on_c, 1, 57, 75
3, 38972, Note_on_c, 1, 57, 0
3, 38972, Note_on_c, 1, 64, 0
3, 38976, Note_on_c, 1, 64, 75
3, 38976, Note_on_c, 1, 57, 75
3, 39164, Note_on_c, 1, 57, 0
3, 39164, Note_on_c, 1, 64, 0
3, 39168, Note_on_c, 1, 67, 75
3, 39168, Note_on_c, 1, 58, 75
3, 39552, Note_on_c, 1, 58, 0
3, 39552, Note_on_c, 1, 67, 0
3, 39552, Note_on_c, 1, 66, 75
3, 39552, Note_on_c, 1, 59, 75
3, 39924, Note_on_c, 1, 59, 0
3, 39924, Note_on_c, 1, 66, 0
3, 40320, Note_on_c, 1, 74, 65
3, 40320, Note_on_c, 1, 55, 65
3, 40508, Note_on_c, 1, 55, 0
3, 40508, Note_on_c, 1, 74, 0
3, 40512, Note_on_c, 1, 74, 65
3, 40512, Note_on_c, 1, 55, 65
3, 40700, Note_on_c, 1, 55, 0
3, 40700, Note_on_c, 1, 74, 0
3, 40704, Note_on_c, 1, 74, 65
3, 40704, Note_on_c, 1, 55, 65
3, 40896, Note_on_c, 1, 55, 0
3, 40896, Note_on_c, 1, 74, 0
3, 40896, Note_on_c, 1, 71, 65
3, 40896, Note_on_c, 1, 55, 65
3, 41076, Note_on_c, 1, 55, 0
3, 41076, Note_on_c, 1, 71, 0
3, 41088, Note_on_c, 1, 64, 65
3, 41088, Note_on_c, 1, 57, 65
3, 41280, Note_on_c, 1, 57, 0
3, 41280, Note_on_c, 1, 64, 0
3, 41280, Note_on_c, 1, 61, 65
3, 41280, Note_on_c, 1, 57, 65
3, 41460, Note_on_c, 1, 57, 0
3, 41460, Note_on_c, 1, 61, 0
3, 41472, Note_on_c, 1, 62, 65
3, 41472, Note_on_c, 1, 59, 65
3, 41660, Note_on_c, 1, 59, 0
3, 41660, Note_on_c, 1, 62, 0
3, 41664, Note_on_c, 1, 59, 65
3, 41664, Note_on_c, 1, 74, 65
3, 41852, Note_on_c, 1, 59, 0
3, 41856, Note_on_c, 1, 71, 65
3, 42044, Note_on_c, 1, 71, 0
3, 42044, Note_on_c, 1, 74, 0
3, 42048, Note_on_c, 1, 74, 65
3, 42048, Note_on_c, 1, 71, 65
3, 42236, Note_on_c, 1, 71, 0
3, 42240, Note_on_c, 1, 69, 65
3, 42428, Note_on_c, 1, 69, 0
3, 42428, Note_on_c, 1, 74, 0
3, 42432, Note_on_c, 1, 69, 65
3, 42432, Note_on_c, 1, 74, 65
3, 42620, Note_on_c, 1, 69, 0
3, 42816, Note_on_c, 1, 74, 0
3, 42816, Note_on_c, 1, 71, 65
3, 42816, Note_on_c, 1, 55, 65
3, 42908, Note_on_c, 1, 71, 0
3, 42912, Note_on_c, 1, 67, 65
3, 42992, Note_on_c, 1, 67, 0
3, 43004, Note_on_c, 1, 55, 0
3, 43008, Note_on_c, 1, 66, 65
3, 43008, Note_on_c, 1, 57, 65
3, 43196, Note_on_c, 1, 57, 0
3, 43200, Note_on_c, 1, 57, 65
3, 43388, Note_on_c, 1, 57, 0
3, 43388, Note_on_c, 1, 66, 0
3, 43392, Note_on_c, 1, 57, 65
3, 43392, Note_on_c, 1, 66, 65
3, 43580, Note_on_c, 1, 57, 0
3, 43584, Note_on_c, 1, 57, 65
3, 43676, Note_on_c, 1, 66, 0
3, 43680, Note_on_c, 1, 73, 65
3, 43760, Note_on_c, 1, 73, 0
3, 43776, Note_on_c, 1, 57, 0
3, 43776, Note_on_c, 1, 74, 65
3, 43776, Note_on_c, 1, 59, 65
3, 43964, Note_on_c, 1, 59, 0
3, 43968, Note_on_c, 1, 59, 65
3, 44156, Note_on_c, 1, 59, 0
3, 44160, Note_on_c, 1, 74, 0
3, 44160, Note_on_c, 1, 76, 65
3, 44160, Note_on_c, 1, 61, 65
3, 44348, Note_on_c, 1, 61, 0
3, 44352, Note_on_c, 1, 61, 65
3, 44540, Note_on_c, 1, 61, 0
3, 44540, Note_on_c, 1, 76, 0
3, 44544, Note_on_c, 1, 69, 65
3, 44544, Note_on_c, 1, 62, 65
3, 44732, Note_on_c, 1, 62, 0
3, 44736, Note_on_c, 1, 62, 65
3, 44916, Note_on_c, 1, 69, 0
3, 44924, Note_on_c, 1, 62, 0
3, 45120, Note_on_c, 1, 74, 65
3, 45120, Note_on_c, 1, 71, 65
3, 45308, Note_on_c, 1, 71, 0
3, 45308, Note_on_c, 1, 74, 0
3, 45312, Note_on_c, 1, 74, 66
3, 45312, Note_on_c, 1, 71, 66
3, 45500, Note_on_c, 1, 71, 0
3, 45500, Note_on_c, 1, 74, 0
3, 45504, Note_on_c, 1, 74, 67
3, 45504, Note_on_c, 1, 71, 67
3, 45692, Note_on_c, 1, 71, 0
3, 45692, Note_on_c, 1, 74, 0
3, 45696, Note_on_c, 1, 74, 68
3, 45696, Note_on_c, 1, 71, 68
3, 45884, Note_on_c, 1, 71, 0
3, 45884, Note_on_c, 1, 74, 0
3, 45888, Note_on_c, 1, 74, 69
3, 45888, Note_on_c, 1, 71, 69
3, 46076, Note_on_c, 1, 71, 0
3, 46076, Note_on_c, 1, 74, 0
3, 46272, Note_on_c, 1, 74, 71
3, 46272, Note_on_c, 1, 71, 71
3, 46460, Note_on_c, 1, 71, 0
3, 46460, Note_on_c, 1, 74, 0
3, 46464, Note_on_c, 1, 74, 72
3, 46464, Note_on_c, 1, 71, 72
3, 46652, Note_on_c, 1, 71, 0
3, 46652, Note_on_c, 1, 74, 0
3, 46656, Note_on_c, 1, 74, 73
3, 46656, Note_on_c, 1, 71, 73
3, 46844, Note_on_c, 1, 71, 0
3, 46844, Note_on_c, 1, 74, 0
3, 46848, Note_on_c, 1, 74, 74
3, 46848, Note_on_c, 1, 71, 74
3, 47036, Note_on_c, 1, 71, 0
3, 47036, Note_on_c, 1, 74, 0
3, 47040, Note_on_c, 1, 74, 75
3, 47040, Note_on_c, 1, 71, 75
3, 47228, Note_on_c, 1, 71, 0
3, 47228, Note_on_c, 1, 74, 0
3, 47424, Note_on_c, 1, 78, 75
3, 47424, Note_on_c, 1, 74, 75
3, 47612, Note_on_c, 1, 74, 0
3, 47612, Note_on_c, 1, 78, 0
3, 47616, Note_on_c, 1, 78, 75
3, 47616, Note_on_c, 1, 74, 75
3, 47804, Note_on_c, 1, 74, 0
3, 47804, Note_on_c, 1, 78, 0
3, 47808, Note_on_c, 1, 78, 75
3, 47808, Note_on_c, 1, 74, 75
3, 47996, Note_on_c, 1, 74, 0
3, 47996, Note_on_c, 1, 78, 0
3, 48000, Note_on_c, 1, 78, 75
3, 48000, Note_on_c, 1, 74, 75
3, 48188, Note_on_c, 1, 74, 0
3, 48188, Note_on_c, 1, 78, 0
3, 48192, Note_on_c, 1, 78, 75
3, 48192, Note_on_c, 1, 74, 75
3, 48380, Note_on_c, 1, 74, 0
3, 48380, Note_on_c, 1, 78, 0
3, 48480, Note_on_c, 1, 73, 76
3, 48480, Note_on_c, 1, 67, 76
3, 48572, Note_on_c, 1, 67, 0
3, 48572, Note_on_c, 1, 73, 0
3, 48576, Note_on_c, 1, 73, 77
3, 48576, Note_on_c, 1, 67, 77
3, 48668, Note_on_c, 1, 67, 0
3, 48668, Note_on_c, 1, 73, 0
3, 48672, Note_on_c, 1, 73, 78
3, 48672, Note_on_c, 1, 67, 78
3, 48764, Note_on_c, 1, 67, 0
3, 48764, Note_on_c, 1, 73, 0
3, 48768, Note_on_c, 1, 73, 79
3, 48768, Note_on_c, 1, 67, 79
3, 48860, Note_on_c, 1, 67, 0
3, 48860, Note_on_c, 1, 73, 0
3, 48864, Note_on_c, 1, 73, 80
3, 48864, Note_on_c, 1, 67, 80
3, 48956, Note_on_c, 1, 67, 0
3, 48956, Note_on_c, 1, 73, 0
3, 48960, Note_on_c, 1, 73, 81
3, 48960, Note_on_c, 1, 67, 81
3, 49052, Note_on_c, 1, 67, 0
3, 49052, Note_on_c, 1, 73, 0
3, 49056, Note_on_c, 1, 67, 81
3, 49056, Note_on_c, 1, 73, 81
3, 49148, Note_on_c, 1, 73, 0
3, 49148, Note_on_c, 1, 67, 0
3, 49152, Note_on_c, 1, 73, 82
3, 49152, Note_on_c, 1, 67, 82
3, 49244, Note_on_c, 1, 67, 0
3, 49244, Note_on_c, 1, 73, 0
3, 49248, Note_on_c, 1, 73, 83
3, 49248, Note_on_c, 1, 67, 83
3, 49340, Note_on_c, 1, 67, 0
3, 49340, Note_on_c, 1, 73, 0
3, 49344, Note_on_c, 1, 73, 84
3, 49344, Note_on_c, 1, 67, 84
3, 49436, Note_on_c, 1, 67, 0
3, 49436, Note_on_c, 1, 73, 0
3, 49440, Note_on_c, 1, 73, 85
3, 49440, Note_on_c, 1, 67, 85
3, 49532, Note_on_c, 1, 67, 0
3, 49532, Note_on_c, 1, 73, 0
3, 49536, Note_on_c, 1, 74, 85
3, 49536, Note_on_c, 1, 66, 85
3, 49632, Note_on_c, 1, 66, 0
3, 49632, Note_on_c, 1, 74, 85
3, 49728, Note_on_c, 1, 74, 0
3, 49728, Note_on_c, 1, 73, 85
3, 49820, Note_on_c, 1, 73, 0
3, 49820, Note_on_c, 1, 74, 0
3, 49824, Note_on_c, 1, 76, 85
3, 49824, Note_on_c, 1, 86, 85
3, 49904, Note_on_c, 1, 86, 0
3, 49904, Note_on_c, 1, 76, 0
3, 49920, Note_on_c, 1, 86, 85
3, 49920, Note_on_c, 1, 76, 85
3, 50016, Note_on_c, 1, 76, 0
3, 50016, Note_on_c, 1, 74, 85
3, 50108, Note_on_c, 1, 74, 0
3, 50112, Note_on_c, 1, 73, 85
3, 50204, Note_on_c, 1, 73, 0
3, 50208, Note_on_c, 1, 74, 85
3, 50288, Note_on_c, 1, 74, 0
3, 50304, Note_on_c, 1, 76, 85
3, 50400, Note_on_c, 1, 76, 0
3, 50400, Note_on_c, 1, 74, 85
3, 50492, Note_on_c, 1, 74, 0
3, 50496, Note_on_c, 1, 86, 0
3, 50496, Note_on_c, 1, 85, 85
3, 50496, Note_on_c, 1, 73, 85
3, 50588, Note_on_c, 1, 73, 0
3, 50592, Note_on_c, 1, 74, 85
3, 50672, Note_on_c, 1, 74, 0
3, 50676, Note_on_c, 1, 85, 0
3, 50688, Note_on_c, 1, 85, 85
3, 50784, Note_on_c, 1, 74, 85
3, 50880, Note_on_c, 1, 74, 0
3, 50880, Note_on_c, 1, 73, 85
3, 50972, Note_on_c, 1, 73, 0
3, 50976, Note_on_c, 1, 85, 0
3, 50976, Note_on_c, 1, 74, 85
3, 50976, Note_on_c, 1, 83, 85
3, 51056, Note_on_c, 1, 83, 0
3, 51056, Note_on_c, 1, 74, 0
3, 51072, Note_on_c, 1, 83, 85
3, 51072, Note_on_c, 1, 76, 85
3, 51168, Note_on_c, 1, 76, 0
3, 51168, Note_on_c, 1, 74, 85
3, 51260, Note_on_c, 1, 74, 0
3, 51264, Note_on_c, 1, 73, 85
3, 51356, Note_on_c, 1, 73, 0
3, 51360, Note_on_c, 1, 74, 85
3, 51440, Note_on_c, 1, 74, 0
3, 51456, Note_on_c, 1, 76, 85
3, 51552, Note_on_c, 1, 76, 0
3, 51552, Note_on_c, 1, 74, 85
3, 51644, Note_on_c, 1, 74, 0
3, 51648, Note_on_c, 1, 83, 0
3, 51648, Note_on_c, 1, 81, 85
3, 51648, Note_on_c, 1, 73, 85
3, 51740, Note_on_c, 1, 73, 0
3, 51744, Note_on_c, 1, 74, 85
3, 51824, Note_on_c, 1, 74, 0
3, 51828, Note_on_c, 1, 81, 0
3, 51840, Note_on_c, 1, 81, 85
3, 51840, Note_on_c, 1, 73, 85
3, 51932, Note_on_c, 1, 73, 0
3, 51932, Note_on_c, 1, 81, 0
3, 51936, Note_on_c, 1, 79, 85
3, 51936, Note_on_c, 1, 71, 85
3, 52028, Note_on_c, 1, 71, 0
3, 52028, Note_on_c, 1, 79, 0
3, 52032, Note_on_c, 1, 78, 85
3, 52032, Note_on_c, 1, 69, 85
3, 52124, Note_on_c, 1, 69, 0
3, 52124, Note_on_c, 1, 78, 0
3, 52128, Note_on_c, 1, 76, 85
3, 52128, Note_on_c, 1, 67, 85
3, 52220, Note_on_c, 1, 67, 0
3, 52220, Note_on_c, 1, 76, 0
3, 52224, Note_on_c, 1, 74, 85
3, 52224, Note_on_c, 1, 66, 85
3, 52316, Note_on_c, 1, 66, 0
3, 52316, Note_on_c, 1, 74, 0
3, 52320, Note_on_c, 1, 74, 85
3, 52320, Note_on_c, 1, 66, 85
3, 52416, Note_on_c, 1, 66, 0
3, 52416, Note_on_c, 1, 74, 0
3, 52416, Note_on_c, 1, 76, 85
3, 52416, Note_on_c, 1, 67, 85
3, 52508, Note_on_c, 1, 67, 0
3, 52508, Note_on_c, 1, 76, 0
3, 52512, Note_on_c, 1, 78, 85
3, 52512, Note_on_c, 1, 69, 85
3, 52592, Note_on_c, 1, 69, 0
3, 52592, Note_on_c, 1, 78, 0
3, 52608, Note_on_c, 1, 78, 85
3, 52608, Note_on_c, 1, 69, 85
3, 52704, Note_on_c, 1, 69, 0
3, 52704, Note_on_c, 1, 78, 0
3, 52704, Note_on_c, 1, 76, 85
3, 52704, Note_on_c, 1, 67, 85
3, 52796, Note_on_c, 1, 67, 0
3, 52796, Note_on_c, 1, 76, 0
3, 52800, Note_on_c, 1, 74, 85
3, 52800, Note_on_c, 1, 66, 85
3, 52892, Note_on_c, 1, 66, 0
3, 52892, Note_on_c, 1, 74, 0
3, 52896, Note_on_c, 1, 73, 85
3, 52896, Note_on_c, 1, 64, 85
3, 52976, Note_on_c, 1, 64, 0
3, 52976, Note_on_c, 1, 73, 0
3, 52992, Note_on_c, 1, 74, 65
3, 52992, Note_on_c, 1, 66, 65
3, 53180, Note_on_c, 1, 66, 0
3, 53180, Note_on_c, 1, 74, 0
3, 53184, Note_on_c, 1, 69, 65
3, 53184, Note_on_c, 1, 66, 65
3, 53564, Note_on_c, 1, 66, 0
3, 53564, Note_on_c, 1, 69, 0
3, 53568, Note_on_c, 1, 71, 65
3, 53568, Note_on_c, 1, 67, 65
3, 53760, Note_on_c, 1, 67, 0
3, 53760, Note_on_c, 1, 71, 0
3, 53760, Note_on_c, 1, 64, 65
3, 53760, Note_on_c, 1, 61, 65
3, 53948, Note_on_c, 1, 61, 0
3, 53948, Note_on_c, 1, 64, 0
3, 53952, Note_on_c, 1, 67, 65
3, 53952, Note_on_c, 1, 64, 65
3, 54132, Note_on_c, 1, 64, 0
3, 54132, Note_on_c, 1, 67, 0
3, 54144, Note_on_c, 1, 66, 65
3, 54144, Note_on_c, 1, 62, 65
3, 54236, Note_on_c, 1, 62, 0
3, 54236, Note_on_c, 1, 66, 0
3, 54240, Note_on_c, 1, 62, 65
3, 54336, Note_on_c, 1, 62, 0
3, 54336, Note_on_c, 1, 69, 65
3, 54336, Note_on_c, 1, 66, 65
3, 54428, Note_on_c, 1, 66, 0
3, 54428, Note_on_c, 1, 69, 0
3, 54432, Note_on_c, 1, 62, 65
3, 54512, Note_on_c, 1, 62, 0
3, 54528, Note_on_c, 1, 69, 65
3, 54528, Note_on_c, 1, 66, 65
3, 54624, Note_on_c, 1, 66, 0
3, 54624, Note_on_c, 1, 69, 0
3, 54624, Note_on_c, 1, 62, 65
3, 54716, Note_on_c, 1, 62, 0
3, 54720, Note_on_c, 1, 69, 65
3, 54720, Note_on_c, 1, 66, 65
3, 54812, Note_on_c, 1, 66, 0
3, 54812, Note_on_c, 1, 69, 0
3, 54816, Note_on_c, 1, 62, 65
3, 54896, Note_on_c, 1, 62, 0
3, 54912, Note_on_c, 1, 71, 65
3, 54912, Note_on_c, 1, 67, 65
3, 55008, Note_on_c, 1, 67, 0
3, 55008, Note_on_c, 1, 71, 0
3, 55008, Note_on_c, 1, 62, 65
3, 55100, Note_on_c, 1, 62, 0
3, 55104, Note_on_c, 1, 71, 65
3, 55104, Note_on_c, 1, 67, 65
3, 55196, Note_on_c, 1, 67, 0
3, 55196, Note_on_c, 1, 71, 0
3, 55200, Note_on_c, 1, 62, 65
3, 55280, Note_on_c, 1, 62, 0
3, 55376, Note_on_c, 1, 62, 65
3, 55472, Note_on_c, 1, 62, 0
3, 55488, Note_on_c, 1, 69, 65
3, 55488, Note_on_c, 1, 66, 65
3, 55580, Note_on_c, 1, 66, 0
3, 55580, Note_on_c, 1, 69, 0
3, 55584, Note_on_c, 1, 62, 65
3, 55664, Note_on_c, 1, 62, 0
3, 55680, Note_on_c, 1, 69, 65
3, 55680, Note_on_c, 1, 66, 65
3, 55776, Note_on_c, 1, 66, 0
3, 55776, Note_on_c, 1, 69, 0
3, 55776, Note_on_c, 1, 62, 65
3, 55868, Note_on_c, 1, 62, 0
3, 55872, Note_on_c, 1, 69, 65
3, 55872, Note_on_c, 1, 66, 65
3, 55964, Note_on_c, 1, 66, 0
3, 55964, Note_on_c, 1, 69, 0
3, 55968, Note_on_c, 1, 62, 65
3, 56060, Note_on_c, 1, 62, 0
3, 56064, Note_on_c, 1, 69, 65
3, 56064, Note_on_c, 1, 66, 65
3, 56156, Note_on_c, 1, 66, 0
3, 56156, Note_on_c, 1, 69, 0
3, 56160, Note_on_c, 1, 62, 65
3, 56252, Note_on_c, 1, 62, 0
3, 56256, Note_on_c, 1, 69, 65
3, 56256, Note_on_c, 1, 66, 65
3, 56348, Note_on_c, 1, 66, 0
3, 56348, Note_on_c, 1, 69, 0
3, 56352, Note_on_c, 1, 62, 65
3, 56432, Note_on_c, 1, 62, 0
3, 56544, Note_on_c, 1, 62, 55
3, 56640, Note_on_c, 1, 62, 0
3, 56640, Note_on_c, 1, 69, 55
3, 56640, Note_on_c, 1, 66, 55
3, 56732, Note_on_c, 1, 66, 0
3, 56732, Note_on_c, 1, 69, 0
3, 56736, Note_on_c, 1, 62, 55
3, 56816, Note_on_c, 1, 62, 0
3, 56832, Note_on_c, 1, 69, 55
3, 56832, Note_on_c, 1, 66, 55
3, 56928, Note_on_c, 1, 66, 0
3, 56928, Note_on_c, 1, 69, 0
3, 56928, Note_on_c, 1, 62, 55
3, 57020, Note_on_c, 1, 62, 0
3, 57024, Note_on_c, 1, 69, 55
3, 57024, Note_on_c, 1, 66, 55
3, 57116, Note_on_c, 1, 66, 0
3, 57116, Note_on_c, 1, 69, 0
3, 57120, Note_on_c, 1, 62, 55
3, 57212, Note_on_c, 1, 62, 0
3, 57216, Note_on_c, 1, 69, 55
3, 57216, Note_on_c, 1, 66, 55
3, 57308, Note_on_c, 1, 66, 0
3, 57308, Note_on_c, 1, 69, 0
3, 57312, Note_on_c, 1, 62, 55
3, 57404, Note_on_c, 1, 62, 0
3, 57408, Note_on_c, 1, 69, 55
3, 57408, Note_on_c, 1, 66, 55
3, 57500, Note_on_c, 1, 66, 0
3, 57500, Note_on_c, 1, 69, 0
3, 57504, Note_on_c, 1, 62, 55
3, 57584, Note_on_c, 1, 62, 0
3, 57696, Note_on_c, 1, 63, 58
3, 57792, Note_on_c, 1, 63, 0
3, 57792, Note_on_c, 1, 69, 61
3, 57792, Note_on_c, 1, 66, 61
3, 57884, Note_on_c, 1, 66, 0
3, 57884, Note_on_c, 1, 69, 0
3, 57888, Note_on_c, 1, 63, 63
3, 57980, Note_on_c, 1, 63, 0
3, 57984, Note_on_c, 1, 69, 66
3, 57984, Note_on_c, 1, 66, 66
3, 58076, Note_on_c, 1, 66, 0
3, 58076, Note_on_c, 1, 69, 0
3, 58080, Note_on_c, 1, 63, 68
3, 58172, Note_on_c, 1, 63, 0
3, 58176, Note_on_c, 1, 69, 71
3, 58176, Note_on_c, 1, 66, 71
3, 58268, Note_on_c, 1, 66, 0
3, 58268, Note_on_c, 1, 69, 0
3, 58272, Note_on_c, 1, 63, 73
3, 58364, Note_on_c, 1, 63, 0
3, 58368, Note_on_c, 1, 69, 76
3, 58368, Note_on_c, 1, 66, 76
3, 58460, Note_on_c, 1, 66, 0
3, 58460, Note_on_c, 1, 69, 0
3, 58464, Note_on_c, 1, 63, 78
3, 58556, Note_on_c, 1, 63, 0
3, 58560, Note_on_c, 1, 69, 81
3, 58560, Note_on_c, 1, 66, 81
3, 58652, Note_on_c, 1, 66, 0
3, 58652, Note_on_c, 1, 69, 0
3, 58656, Note_on_c, 1, 63, 83
3, 58736, Note_on_c, 1, 63, 0
3, 58752, Note_on_c, 1, 67, 70
3, 58752, Note_on_c, 1, 64, 70
3, 58944, Note_on_c, 1, 64, 0
3, 58944, Note_on_c, 1, 67, 0
3, 58944, Note_on_c, 1, 71, 70
3, 58944, Note_on_c, 1, 67, 70
3, 59124, Note_on_c, 1, 67, 0
3, 59124, Note_on_c, 1, 71, 0
3, 59136, Note_on_c, 1, 71, 70
3, 59136, Note_on_c, 1, 67, 70
3, 59324, Note_on_c, 1, 67, 0
3, 59324, Note_on_c, 1, 71, 0
3, 59328, Note_on_c, 1, 71, 70
3, 59328, Note_on_c, 1, 67, 70
3, 59516, Note_on_c, 1, 67, 0
3, 59516, Note_on_c, 1, 71, 0
3, 59520, Note_on_c, 1, 71, 70
3, 59520, Note_on_c, 1, 67, 70
3, 59712, Note_on_c, 1, 67, 0
3, 59712, Note_on_c, 1, 71, 0
3, 59712, Note_on_c, 1, 76, 71
3, 59712, Note_on_c, 1, 68, 71
3, 59892, Note_on_c, 1, 68, 0
3, 59892, Note_on_c, 1, 76, 0
3, 59904, Note_on_c, 1, 76, 70
3, 59904, Note_on_c, 1, 69, 70
3, 60092, Note_on_c, 1, 69, 0
3, 60092, Note_on_c, 1, 76, 0
3, 60096, Note_on_c, 1, 76, 70
3, 60096, Note_on_c, 1, 69, 70
3, 60284, Note_on_c, 1, 69, 0
3, 60284, Note_on_c, 1, 76, 0
3, 60288, Note_on_c, 1, 76, 70
3, 60288, Note_on_c, 1, 69, 70
3, 60476, Note_on_c, 1, 69, 0
3, 60476, Note_on_c, 1, 76, 0
3, 60480, Note_on_c, 1, 76, 70
3, 60480, Note_on_c, 1, 69, 70
3, 60668, Note_on_c, 1, 69, 0
3, 60668, Note_on_c, 1, 76, 0
3, 60672, Note_on_c, 1, 76, 70
3, 60672, Note_on_c, 1, 69, 70
3, 60864, Note_on_c, 1, 69, 0
3, 60864, Note_on_c, 1, 76, 0
3, 60864, Note_on_c, 1, 69, 70
3, 60864, Note_on_c, 1, 67, 70
3, 61044, Note_on_c, 1, 67, 0
3, 61044, Note_on_c, 1, 69, 0
3, 61056, Note_on_c, 1, 69, 70
3, 61056, Note_on_c, 1, 67, 70
3, 61244, Note_on_c, 1, 67, 0
3, 61244, Note_on_c, 1, 69, 0
3, 61248, Note_on_c, 1, 69, 70
3, 61248, Note_on_c, 1, 66, 70
3, 61436, Note_on_c, 1, 66, 0
3, 61436, Note_on_c, 1, 69, 0
3, 61440, Note_on_c, 1, 69, 70
3, 61440, Note_on_c, 1, 66, 70
3, 61628, Note_on_c, 1, 66, 0
3, 61628, Note_on_c, 1, 69, 0
3, 61632, Note_on_c, 1, 69, 70
3, 61632, Note_on_c, 1, 66, 70
3, 61820, Note_on_c, 1, 66, 0
3, 61820, Note_on_c, 1, 69, 0
3, 61824, Note_on_c, 1, 69, 70
3, 61824, Note_on_c, 1, 66, 70
3, 62012, Note_on_c, 1, 66, 0
3, 62012, Note_on_c, 1, 69, 0
3, 62016, Note_on_c, 1, 69, 70
3, 62016, Note_on_c, 1, 64, 70
3, 62204, Note_on_c, 1, 64, 0
3, 62204, Note_on_c, 1, 69, 0
3, 62208, Note_on_c, 1, 69, 70
3, 62208, Note_on_c, 1, 63, 70
3, 62396, Note_on_c, 1, 63, 0
3, 62396, Note_on_c, 1, 69, 0
3, 62400, Note_on_c, 1, 69, 70
3, 62400, Note_on_c, 1, 63, 70
3, 62576, Note_on_c, 1, 63, 70
3, 62588, Note_on_c, 1, 63, 0
3, 62588, Note_on_c, 1, 69, 0
3, 62592, Note_on_c, 1, 69, 70
3, 62592, Note_on_c, 1, 66, 70
3, 62764, Note_on_c, 1, 63, 0
3, 62768, Note_on_c, 1, 63, 70
3, 62780, Note_on_c, 1, 66, 0
3, 62780, Note_on_c, 1, 69, 0
3, 62784, Note_on_c, 1, 69, 70
3, 62784, Note_on_c, 1, 66, 70
3, 62956, Note_on_c, 1, 63, 0
3, 62960, Note_on_c, 1, 66, 70
3, 62960, Note_on_c, 1, 63, 70
3, 62972, Note_on_c, 1, 66, 0
3, 62972, Note_on_c, 1, 69, 0
3, 62976, Note_on_c, 1, 69, 70
3, 63148, Note_on_c, 1, 66, 0
3, 63148, Note_on_c, 1, 63, 0
3, 63152, Note_on_c, 1, 66, 70
3, 63152, Note_on_c, 1, 63, 70
3, 63164, Note_on_c, 1, 69, 0
3, 63168, Note_on_c, 1, 69, 70
3, 63340, Note_on_c, 1, 63, 0
3, 63340, Note_on_c, 1, 66, 0
3, 63356, Note_on_c, 1, 69, 0
3, 63360, Note_on_c, 1, 67, 70
3, 63360, Note_on_c, 1, 64, 70
3, 63548, Note_on_c, 1, 64, 0
3, 63548, Note_on_c, 1, 67, 0
3, 63552, Note_on_c, 1, 67, 70
3, 63552, Note_on_c, 1, 64, 70
3, 63740, Note_on_c, 1, 64, 0
3, 63740, Note_on_c, 1, 67, 0
3, 63744, Note_on_c, 1, 64, 70
3, 63744, Note_on_c, 1, 60, 70
3, 63932, Note_on_c, 1, 60, 0
3, 63932, Note_on_c, 1, 64, 0
3, 63936, Note_on_c, 1, 64, 70
3, 63936, Note_on_c, 1, 60, 70
3, 64124, Note_on_c, 1, 60, 0
3, 64124, Note_on_c, 1, 64, 0
3, 64128, Note_on_c, 1, 70, 70
3, 64128, Note_on_c, 1, 60, 70
3, 64316, Note_on_c, 1, 60, 0
3, 64316, Note_on_c, 1, 70, 0
3, 64320, Note_on_c, 1, 70, 70
3, 64320, Note_on_c, 1, 60, 70
3, 64508, Note_on_c, 1, 60, 0
3, 64508, Note_on_c, 1, 70, 0
3, 64512, Note_on_c, 1, 71, 69
3, 64512, Note_on_c, 1, 59, 69
3, 64700, Note_on_c, 1, 59, 0
3, 64700, Note_on_c, 1, 71, 0
3, 64704, Note_on_c, 1, 71, 67
3, 64704, Note_on_c, 1, 59, 67
3, 64892, Note_on_c, 1, 59, 0
3, 64892, Note_on_c, 1, 71, 0
3, 64896, Note_on_c, 1, 75, 64
3, 64896, Note_on_c, 1, 59, 64
3, 65084, Note_on_c, 1, 59, 0
3, 65084, Note_on_c, 1, 75, 0
3, 65088, Note_on_c, 1, 75, 62
3, 65088, Note_on_c, 1, 59, 62
3, 65276, Note_on_c, 1, 59, 0
3, 65276, Note_on_c, 1, 75, 0
3, 65280, Note_on_c, 1, 75, 59
3, 65280, Note_on_c, 1, 59, 59
3, 65468, Note_on_c, 1, 59, 0
3, 65468, Note_on_c, 1, 75, 0
3, 65472, Note_on_c, 1, 75, 57
3, 65472, Note_on_c, 1, 59, 57
3, 65660, Note_on_c, 1, 59, 0
3, 65660, Note_on_c, 1, 75, 0
3, 65664, Note_on_c, 1, 76, 55
3, 65664, Note_on_c, 1, 60, 55
3, 65852, Note_on_c, 1, 60, 0
3, 65852, Note_on_c, 1, 76, 0
3, 65856, Note_on_c, 1, 76, 55
3, 65856, Note_on_c, 1, 60, 55
3, 66044, Note_on_c, 1, 60, 0
3, 66044, Note_on_c, 1, 76, 0
3, 66048, Note_on_c, 1, 76, 55
3, 66048, Note_on_c, 1, 60, 55
3, 66236, Note_on_c, 1, 60, 0
3, 66236, Note_on_c, 1, 76, 0
3, 66240, Note_on_c, 1, 76, 55
3, 66240, Note_on_c, 1, 60, 55
3, 66428, Note_on_c, 1, 60, 0
3, 66428, Note_on_c, 1, 76, 0
3, 66432, Note_on_c, 1, 70, 55
3, 66432, Note_on_c, 1, 60, 55
3, 66620, Note_on_c, 1, 60, 0
3, 66620, Note_on_c, 1, 70, 0
3, 66624, Note_on_c, 1, 70, 55
3, 66624, Note_on_c, 1, 60, 55
3, 66812, Note_on_c, 1, 60, 0
3, 66812, Note_on_c, 1, 70, 0
3, 66816, Note_on_c, 1, 71, 55
3, 66816, Note_on_c, 1, 59, 55
3, 67580, Note_on_c, 1, 59, 0
3, 67580, Note_on_c, 1, 71, 0
3, 73728, Note_on_c, 1, 62, 65
3, 73728, Note_on_c, 1, 59, 65
3, 73824, Note_on_c, 1, 59, 0
3, 73824, Note_on_c, 1, 62, 0
3, 73824, Note_on_c, 1, 55, 65
3, 73916, Note_on_c, 1, 55, 0
3, 73920, Note_on_c, 1, 62, 65
3, 73920, Note_on_c, 1, 59, 65
3, 74012, Note_on_c, 1, 59, 0
3, 74012, Note_on_c, 1, 62, 0
3, 74016, Note_on_c, 1, 55, 65
3, 74108, Note_on_c, 1, 55, 0
3, 74112, Note_on_c, 1, 62, 65
3, 74112, Note_on_c, 1, 59, 65
3, 74204, Note_on_c, 1, 59, 0
3, 74204, Note_on_c, 1, 62, 0
3, 74208, Note_on_c, 1, 55, 65
3, 74300, Note_on_c, 1, 55, 0
3, 74304, Note_on_c, 1, 62, 65
3, 74304, Note_on_c, 1, 59, 65
3, 74396, Note_on_c, 1, 59, 0
3, 74396, Note_on_c, 1, 62, 0
3, 74400, Note_on_c, 1, 55, 65
3, 74480, Note_on_c, 1, 55, 0
3, 74496, Note_on_c, 1, 64, 65
3, 74496, Note_on_c, 1, 60, 65
3, 74592, Note_on_c, 1, 60, 0
3, 74592, Note_on_c, 1, 64, 0
3, 74592, Note_on_c, 1, 55, 65
3, 74684, Note_on_c, 1, 55, 0
3, 74688, Note_on_c, 1, 64, 65
3, 74688, Note_on_c, 1, 60, 65
3, 74780, Note_on_c, 1, 60, 0
3, 74780, Note_on_c, 1, 64, 0
3, 74784, Note_on_c, 1, 55, 65
3, 74864, Note_on_c, 1, 55, 0
3, 74880, Note_on_c, 1, 62, 65
3, 74880, Note_on_c, 1, 59, 65
3, 74976, Note_on_c, 1, 59, 0
3, 74976, Note_on_c, 1, 62, 0
3, 74976, Note_on_c, 1, 67, 65
3, 75068, Note_on_c, 1, 67, 0
3, 75072, Note_on_c, 1, 71, 65
3, 75072, Note_on_c, 1, 67, 65
3, 75164, Note_on_c, 1, 67, 0
3, 75164, Note_on_c, 1, 71, 0
3, 75168, Note_on_c, 1, 62, 65
3, 75248, Note_on_c, 1, 62, 0
3, 75264, Note_on_c, 1, 71, 65
3, 75264, Note_on_c, 1, 67, 65
3, 75360, Note_on_c, 1, 67, 0
3, 75360, Note_on_c, 1, 71, 0
3, 75360, Note_on_c, 1, 62, 65
3, 75452, Note_on_c, 1, 62, 0
3, 75456, Note_on_c, 1, 71, 65
3, 75456, Note_on_c, 1, 67, 65
3, 75548, Note_on_c, 1, 67, 0
3, 75548, Note_on_c, 1, 71, 0
3, 75552, Note_on_c, 1, 62, 65
3, 75644, Note_on_c, 1, 62, 0
3, 75648, Note_on_c, 1, 71, 65
3, 75648, Note_on_c, 1, 67, 65
3, 75740, Note_on_c, 1, 67, 0
3, 75740, Note_on_c, 1, 71, 0
3, 75744, Note_on_c, 1, 62, 65
3, 75836, Note_on_c, 1, 62, 0
3, 75840, Note_on_c, 1, 71, 65
3, 75840, Note_on_c, 1, 67, 65
3, 75932, Note_on_c, 1, 67, 0
3, 75932, Note_on_c, 1, 71, 0
3, 75936, Note_on_c, 1, 62, 65
3, 76016, Note_on_c, 1, 62, 0
3, 76032, Note_on_c, 1, 71, 65
3, 76032, Note_on_c, 1, 67, 65
3, 76224, Note_on_c, 1, 67, 0
3, 76224, Note_on_c, 1, 71, 0
3, 76224, Note_on_c, 1, 66, 65
3, 76412, Note_on_c, 1, 66, 0
3, 76416, Note_on_c, 1, 67, 65
3, 76604, Note_on_c, 1, 67, 0
3, 76608, Note_on_c, 1, 63, 65
3, 76796, Note_on_c, 1, 63, 0
3, 76800, Note_on_c, 1, 64, 65
3, 76988, Note_on_c, 1, 64, 0
3, 76992, Note_on_c, 1, 67, 65
3, 77180, Note_on_c, 1, 67, 0
3, 77184, Note_on_c, 1, 61, 65
3, 77376, Note_on_c, 1, 61, 0
3, 77376, Note_on_c, 1, 62, 65
3, 77556, Note_on_c, 1, 62, 0
3, 77760, Note_on_c, 1, 69, 65
3, 77860, Note_on_c, 1, 69, 0
3, 77952, Note_on_c, 1, 66, 65
3, 78144, Note_on_c, 1, 66, 0
3, 78144, Note_on_c, 1, 67, 65
3, 78324, Note_on_c, 1, 67, 0
3, 78432, Note_on_c, 1, 72, 65
3, 78528, Note_on_c, 1, 72, 0
3, 78528, Note_on_c, 1, 76, 65
3, 78620, Note_on_c, 1, 76, 0
3, 78624, Note_on_c, 1, 72, 65
3, 78716, Note_on_c, 1, 72, 0
3, 78720, Note_on_c, 1, 76, 65
3, 78812, Note_on_c, 1, 76, 0
3, 78816, Note_on_c, 1, 72, 65
3, 78908, Note_on_c, 1, 72, 0
3, 78912, Note_on_c, 1, 76, 65
3, 79004, Note_on_c, 1, 76, 0
3, 79008, Note_on_c, 1, 72, 65
3, 79100, Note_on_c, 1, 72, 0
3, 79104, Note_on_c, 1, 76, 65
3, 79196, Note_on_c, 1, 76, 0
3, 79200, Note_on_c, 1, 72, 65
3, 79292, Note_on_c, 1, 72, 0
3, 79296, Note_on_c, 1, 76, 65
3, 79388, Note_on_c, 1, 76, 0
3, 79392, Note_on_c, 1, 72, 65
3, 79472, Note_on_c, 1, 72, 0
3, 79584, Note_on_c, 1, 69, 65
3, 79680, Note_on_c, 1, 69, 0
3, 79680, Note_on_c, 1, 72, 65
3, 79772, Note_on_c, 1, 72, 0
3, 79776, Note_on_c, 1, 69, 65
3, 79868, Note_on_c, 1, 69, 0
3, 79872, Note_on_c, 1, 72, 65
3, 79964, Note_on_c, 1, 72, 0
3, 79968, Note_on_c, 1, 69, 65
3, 80060, Note_on_c, 1, 69, 0
3, 80064, Note_on_c, 1, 72, 65
3, 80156, Note_on_c, 1, 72, 0
3, 80160, Note_on_c, 1, 69, 65
3, 80252, Note_on_c, 1, 69, 0
3, 80256, Note_on_c, 1, 72, 65
3, 80348, Note_on_c, 1, 72, 0
3, 80352, Note_on_c, 1, 69, 65
3, 80444, Note_on_c, 1, 69, 0
3, 80448, Note_on_c, 1, 71, 65
3, 80540, Note_on_c, 1, 71, 0
3, 80544, Note_on_c, 1, 67, 65
3, 80624, Note_on_c, 1, 67, 0
3, 80640, Note_on_c, 1, 69, 65
3, 81020, Note_on_c, 1, 69, 0
3, 81216, Note_on_c, 1, 66, 65
3, 81216, Note_on_c, 1, 62, 65
3, 81408, Note_on_c, 1, 66, 0
3, 81408, Note_on_c, 1, 67, 65
3, 81588, Note_on_c, 1, 67, 0
3, 81600, Note_on_c, 1, 62, 0
3, 81600, Note_on_c, 1, 67, 65
3, 81600, Note_on_c, 1, 60, 65
3, 81788, Note_on_c, 1, 60, 0
3, 81788, Note_on_c, 1, 67, 0
3, 81792, Note_on_c, 1, 62, 65
3, 81792, Note_on_c, 1, 59, 65
3, 82560, Note_on_c, 1, 59, 0
3, 82560, Note_on_c, 1, 62, 0
3, 82560, Note_on_c, 1, 62, 65
3, 82560, Note_on_c, 1, 57, 65
3, 82740, Note_on_c, 1, 57, 0
3, 82740, Note_on_c, 1, 62, 0
3, 82752, Note_on_c, 1, 66, 65
3, 82752, Note_on_c, 1, 62, 65
3, 82940, Note_on_c, 1, 62, 0
3, 82940, Note_on_c, 1, 66, 0
3, 82944, Note_on_c, 1, 69, 65
3, 82944, Note_on_c, 1, 66, 65
3, 83132, Note_on_c, 1, 66, 0
3, 83132, Note_on_c, 1, 69, 0
3, 83136, Note_on_c, 1, 66, 65
3, 83136, Note_on_c, 1, 62, 65
3, 83324, Note_on_c, 1, 62, 0
3, 83324, Note_on_c, 1, 66, 0
3, 83328, Note_on_c, 1, 66, 65
3, 83328, Note_on_c, 1, 62, 65
3, 83516, Note_on_c, 1, 62, 0
3, 83516, Note_on_c, 1, 66, 0
3, 83520, Note_on_c, 1, 66, 65
3, 83520, Note_on_c, 1, 62, 65
3, 83708, Note_on_c, 1, 62, 0
3, 83708, Note_on_c, 1, 66, 0
3, 83712, Note_on_c, 1, 69, 65
3, 83712, Note_on_c, 1, 62, 65
3, 83900, Note_on_c, 1, 62, 0
3, 83900, Note_on_c, 1, 69, 0
3, 83904, Note_on_c, 1, 69, 65
3, 83904, Note_on_c, 1, 66, 65
3, 84092, Note_on_c, 1, 66, 0
3, 84092, Note_on_c, 1, 69, 0
3, 84096, Note_on_c, 1, 69, 65
3, 84096, Note_on_c, 1, 67, 65
3, 84284, Note_on_c, 1, 67, 0
3, 84284, Note_on_c, 1, 69, 0
3, 84288, Note_on_c, 1, 69, 65
3, 84288, Note_on_c, 1, 67, 65
3, 84476, Note_on_c, 1, 67, 0
3, 84476, Note_on_c, 1, 69, 0
3, 84480, Note_on_c, 1, 69, 65
3, 84480, Note_on_c, 1, 67, 65
3, 84668, Note_on_c, 1, 67, 0
3, 84668, Note_on_c, 1, 69, 0
3, 84672, Note_on_c, 1, 69, 65
3, 84672, Note_on_c, 1, 67, 65
3, 84860, Note_on_c, 1, 67, 0
3, 84860, Note_on_c, 1, 69, 0
3, 84864, Note_on_c, 1, 69, 65
3, 84864, Note_on_c, 1, 66, 65
3, 85052, Note_on_c, 1, 66, 0
3, 85052, Note_on_c, 1, 69, 0
3, 85056, Note_on_c, 1, 69, 55
3, 85056, Note_on_c, 1, 66, 65
3, 85244, Note_on_c, 1, 66, 0
3, 85244, Note_on_c, 1, 69, 0
3, 85248, Note_on_c, 1, 69, 55
3, 85248, Note_on_c, 1, 67, 55
3, 85340, Note_on_c, 1, 67, 0
3, 85436, Note_on_c, 1, 69, 0
3, 85440, Note_on_c, 1, 69, 55
3, 85440, Note_on_c, 1, 67, 55
3, 85532, Note_on_c, 1, 67, 0
3, 85628, Note_on_c, 1, 69, 0
3, 85632, Note_on_c, 1, 69, 55
3, 85632, Note_on_c, 1, 67, 55
3, 85724, Note_on_c, 1, 67, 0
3, 85820, Note_on_c, 1, 69, 0
3, 85824, Note_on_c, 1, 69, 55
3, 85824, Note_on_c, 1, 67, 55
3, 85916, Note_on_c, 1, 67, 0
3, 86012, Note_on_c, 1, 69, 0
3, 86016, Note_on_c, 1, 69, 55
3, 86016, Note_on_c, 1, 66, 55
3, 86112, Note_on_c, 1, 66, 0
3, 86112, Note_on_c, 1, 69, 0
3, 86112, Note_on_c, 1, 67, 55
3, 86112, Note_on_c, 1, 64, 55
3, 86204, Note_on_c, 1, 64, 0
3, 86204, Note_on_c, 1, 67, 0
3, 86208, Note_on_c, 1, 66, 55
3, 86208, Note_on_c, 1, 62, 55
3, 86300, Note_on_c, 1, 62, 0
3, 86300, Note_on_c, 1, 66, 0
3, 86304, Note_on_c, 1, 69, 55
3, 86304, Note_on_c, 1, 60, 55
3, 86384, Note_on_c, 1, 60, 0
3, 86384, Note_on_c, 1, 69, 0
3, 86400, Note_on_c, 1, 67, 55
3, 86400, Note_on_c, 1, 59, 55
3, 86588, Note_on_c, 1, 59, 0
3, 86588, Note_on_c, 1, 67, 0
3, 86592, Note_on_c, 1, 71, 55
3, 86592, Note_on_c, 1, 67, 55
3, 86768, Note_on_c, 1, 67, 55
3, 86780, Note_on_c, 1, 67, 0
3, 86780, Note_on_c, 1, 71, 0
3, 86784, Note_on_c, 1, 71, 55
3, 86956, Note_on_c, 1, 67, 0
3, 86972, Note_on_c, 1, 71, 0
3, 86976, Note_on_c, 1, 71, 55
3, 86976, Note_on_c, 1, 67, 55
3, 87164, Note_on_c, 1, 67, 0
3, 87164, Note_on_c, 1, 71, 0
3, 87168, Note_on_c, 1, 74, 55
3, 87168, Note_on_c, 1, 67, 55
3, 87360, Note_on_c, 1, 67, 0
3, 87360, Note_on_c, 1, 74, 0
3, 87360, Note_on_c, 1, 74, 55
3, 87360, Note_on_c, 1, 71, 55
3, 87540, Note_on_c, 1, 71, 0
3, 87540, Note_on_c, 1, 74, 0
3, 87552, Note_on_c, 1, 74, 55
3, 87552, Note_on_c, 1, 72, 55
3, 87740, Note_on_c, 1, 72, 0
3, 87740, Note_on_c, 1, 74, 0
3, 87744, Note_on_c, 1, 74, 55
3, 87744, Note_on_c, 1, 72, 55
3, 87932, Note_on_c, 1, 72, 0
3, 87932, Note_on_c, 1, 74, 0
3, 87936, Note_on_c, 1, 74, 55
3, 87936, Note_on_c, 1, 72, 55
3, 88124, Note_on_c, 1, 72, 0
3, 88124, Note_on_c, 1, 74, 0
3, 88128, Note_on_c, 1, 74, 55
3, 88128, Note_on_c, 1, 72, 55
3, 88316, Note_on_c, 1, 72, 0
3, 88316, Note_on_c, 1, 74, 0
3, 88320, Note_on_c, 1, 74, 55
3, 88320, Note_on_c, 1, 71, 55
3, 88508, Note_on_c, 1, 71, 0
3, 88508, Note_on_c, 1, 74, 0
3, 88512, Note_on_c, 1, 74, 55
3, 88512, Note_on_c, 1, 71, 55
3, 88700, Note_on_c, 1, 71, 0
3, 88700, Note_on_c, 1, 74, 0
3, 88704, Note_on_c, 1, 74, 55
3, 88704, Note_on_c, 1, 72, 55
3, 88892, Note_on_c, 1, 72, 0
3, 88892, Note_on_c, 1, 74, 0
3, 88896, Note_on_c, 1, 74, 55
3, 88896, Note_on_c, 1, 72, 55
3, 89084, Note_on_c, 1, 72, 0
3, 89084, Note_on_c, 1, 74, 0
3, 89088, Note_on_c, 1, 74, 55
3, 89088, Note_on_c, 1, 72, 55
3, 89276, Note_on_c, 1, 72, 0
3, 89276, Note_on_c, 1, 74, 0
3, 89280, Note_on_c, 1, 74, 55
3, 89280, Note_on_c, 1, 72, 55
3, 89468, Note_on_c, 1, 72, 0
3, 89468, Note_on_c, 1, 74, 0
3, 89472, Note_on_c, 1, 74, 55
3, 89472, Note_on_c, 1, 71, 55
3, 89660, Note_on_c, 1, 71, 0
3, 89660, Note_on_c, 1, 74, 0
3, 89664, Note_on_c, 1, 79, 55
3, 89664, Note_on_c, 1, 71, 55
3, 89852, Note_on_c, 1, 71, 0
3, 89852, Note_on_c, 1, 79, 0
3, 89856, Note_on_c, 1, 79, 56
3, 89856, Note_on_c, 1, 69, 56
3, 90044, Note_on_c, 1, 69, 0
3, 90044, Note_on_c, 1, 79, 0
3, 90048, Note_on_c, 1, 69, 60
3, 90048, Note_on_c, 1, 76, 60
3, 90236, Note_on_c, 1, 69, 0
3, 90240, Note_on_c, 1, 69, 65
3, 90428, Note_on_c, 1, 69, 0
3, 90432, Note_on_c, 1, 76, 0
3, 90432, Note_on_c, 1, 69, 70
3, 90432, Note_on_c, 1, 78, 70
3, 90572, Note_on_c, 1, 78, 0
3, 90576, Note_on_c, 1, 79, 75
3, 90620, Note_on_c, 1, 79, 0
3, 90620, Note_on_c, 1, 69, 0
3, 90624, Note_on_c, 1, 81, 65
3, 90624, Note_on_c, 1, 69, 65
3, 90812, Note_on_c, 1, 69, 0
3, 90812, Note_on_c, 1, 81, 0
3, 90816, Note_on_c, 1, 79, 60
3, 90816, Note_on_c, 1, 69, 60
3, 90996, Note_on_c, 1, 69, 0
3, 90996, Note_on_c, 1, 79, 0
3, 91008, Note_on_c, 1, 78, 55
3, 91008, Note_on_c, 1, 62, 55
3, 91196, Note_on_c, 1, 62, 0
3, 91196, Note_on_c, 1, 78, 0
3, 91200, Note_on_c, 1, 78, 55
3, 91200, Note_on_c, 1, 62, 55
3, 91376, Note_on_c, 1, 66, 55
3, 91388, Note_on_c, 1, 62, 0
3, 91388, Note_on_c, 1, 78, 0
3, 91392, Note_on_c, 1, 81, 55
3, 91564, Note_on_c, 1, 66, 0
3, 91580, Note_on_c, 1, 81, 0
3, 91584, Note_on_c, 1, 81, 55
3, 91584, Note_on_c, 1, 66, 55
3, 91772, Note_on_c, 1, 66, 0
3, 91772, Note_on_c, 1, 81, 0
3, 91776, Note_on_c, 1, 74, 55
3, 91776, Note_on_c, 1, 67, 55
3, 91952, Note_on_c, 1, 67, 55
3, 91964, Note_on_c, 1, 67, 0
3, 91964, Note_on_c, 1, 74, 0
3, 91968, Note_on_c, 1, 74, 55
3, 92140, Note_on_c, 1, 67, 0
3, 92156, Note_on_c, 1, 74, 0
3, 92160, Note_on_c, 1, 76, 55
3, 92160, Note_on_c, 1, 72, 55
3, 92348, Note_on_c, 1, 72, 0
3, 92348, Note_on_c, 1, 76, 0
3, 92352, Note_on_c, 1, 76, 55
3, 92352, Note_on_c, 1, 72, 55
3, 92540, Note_on_c, 1, 72, 0
3, 92540, Note_on_c, 1, 76, 0
3, 92544, Note_on_c, 1, 76, 55
3, 92544, Note_on_c, 1, 72, 55
3, 92732, Note_on_c, 1, 72, 0
3, 92732, Note_on_c, 1, 76, 0
3, 92736, Note_on_c, 1, 76, 55
3, 92736, Note_on_c, 1, 72, 55
3, 92912, Note_on_c, 1, 71, 55
3, 92924, Note_on_c, 1, 72, 0
3, 92924, Note_on_c, 1, 76, 0
3, 92928, Note_on_c, 1, 74, 55
3, 93100, Note_on_c, 1, 71, 0
3, 93116, Note_on_c, 1, 74, 0
3, 93120, Note_on_c, 1, 74, 55
3, 93120, Note_on_c, 1, 71, 55
3, 93308, Note_on_c, 1, 71, 0
3, 93308, Note_on_c, 1, 74, 0
3, 93312, Note_on_c, 1, 72, 55
3, 93312, Note_on_c, 1, 69, 55
3, 93500, Note_on_c, 1, 69, 0
3, 93500, Note_on_c, 1, 72, 0
3, 93504, Note_on_c, 1, 72, 55
3, 93504, Note_on_c, 1, 62, 55
3, 93692, Note_on_c, 1, 62, 0
3, 93692, Note_on_c, 1, 72, 0
3, 93696, Note_on_c, 1, 71, 55
3, 93696, Note_on_c, 1, 64, 55
3, 93884, Note_on_c, 1, 64, 0
3, 93884, Note_on_c, 1, 71, 0
3, 93888, Note_on_c, 1, 71, 55
3, 93888, Note_on_c, 1, 64, 55
3, 94064, Note_on_c, 1, 64, 55
3, 94076, Note_on_c, 1, 64, 0
3, 94076, Note_on_c, 1, 71, 0
3, 94080, Note_on_c, 1, 79, 55
3, 94252, Note_on_c, 1, 64, 0
3, 94268, Note_on_c, 1, 79, 0
3, 94272, Note_on_c, 1, 79, 55
3, 94272, Note_on_c, 1, 64, 55
3, 94460, Note_on_c, 1, 64, 0
3, 94460, Note_on_c, 1, 79, 0
3, 94464, Note_on_c, 1, 81, 55
3, 94464, Note_on_c, 1, 62, 55
3, 94656, Note_on_c, 1, 62, 0
3, 94656, Note_on_c, 1, 81, 0
3, 94656, Note_on_c, 1, 74, 55
3, 94656, Note_on_c, 1, 79, 55
3, 94676, Note_on_c, 1, 79, 0
3, 94680, Note_on_c, 1, 81, 55
3, 94700, Note_on_c, 1, 81, 0
3, 94704, Note_on_c, 1, 79, 55
3, 94724, Note_on_c, 1, 79, 0
3, 94728, Note_on_c, 1, 81, 55
3, 94748, Note_on_c, 1, 81, 0
3, 94752, Note_on_c, 1, 78, 55
3, 94796, Note_on_c, 1, 78, 0
3, 94800, Note_on_c, 1, 79, 55
3, 94844, Note_on_c, 1, 79, 0
3, 94844, Note_on_c, 1, 74, 0
3, 94848, Note_on_c, 1, 78, 55
3, 94848, Note_on_c, 1, 62, 55
3, 95040, Note_on_c, 1, 62, 0
3, 95040, Note_on_c, 1, 78, 0
3, 95040, Note_on_c, 1, 74, 85
3, 95040, Note_on_c, 1, 62, 85
3, 95228, Note_on_c, 1, 62, 0
3, 95228, Note_on_c, 1, 74, 0
3, 95232, Note_on_c, 1, 73, 85
3, 95232, Note_on_c, 1, 61, 85
3, 95420, Note_on_c, 1, 61, 0
3, 95420, Note_on_c, 1, 73, 0
3, 95424, Note_on_c, 1, 74, 85
3, 95424, Note_on_c, 1, 62, 85
3, 95604, Note_on_c, 1, 62, 0
3, 95604, Note_on_c, 1, 74, 0
3, 95616, Note_on_c, 1, 79, 85
3, 95616, Note_on_c, 1, 71, 85
3, 95804, Note_on_c, 1, 71, 0
3, 95808, Note_on_c, 1, 71, 85
3, 95996, Note_on_c, 1, 71, 0
3, 96000, Note_on_c, 1, 71, 85
3, 96096, Note_on_c, 1, 79, 0
3, 96096, Note_on_c, 1, 78, 85
3, 96188, Note_on_c, 1, 78, 0
3, 96188, Note_on_c, 1, 71, 0
3, 96192, Note_on_c, 1, 71, 85
3, 96192, Note_on_c, 1, 79, 85
3, 96284, Note_on_c, 1, 79, 0
3, 96288, Note_on_c, 1, 81, 85
3, 96368, Note_on_c, 1, 81, 0
3, 96380, Note_on_c, 1, 71, 0
3, 96384, Note_on_c, 1, 72, 85
3, 96384, Note_on_c, 1, 79, 85
3, 96480, Note_on_c, 1, 79, 0
3, 96480, Note_on_c, 1, 78, 85
3, 96572, Note_on_c, 1, 78, 0
3, 96576, Note_on_c, 1, 72, 0
3, 96576, Note_on_c, 1, 72, 85
3, 96576, Note_on_c, 1, 76, 85
3, 96668, Note_on_c, 1, 76, 0
3, 96672, Note_on_c, 1, 74, 85
3, 96752, Note_on_c, 1, 74, 0
3, 96764, Note_on_c, 1, 72, 0
3, 96768, Note_on_c, 1, 84, 85
3, 96768, Note_on_c, 1, 74, 85
3, 96956, Note_on_c, 1, 74, 0
3, 96960, Note_on_c, 1, 74, 85
3, 97148, Note_on_c, 1, 74, 0
3, 97152, Note_on_c, 1, 78, 85
3, 97248, Note_on_c, 1, 84, 0
3, 97248, Note_on_c, 1, 83, 85
3, 97340, Note_on_c, 1, 83, 0
3, 97340, Note_on_c, 1, 78, 0
3, 97344, Note_on_c, 1, 78, 85
3, 97344, Note_on_c, 1, 84, 85
3, 97436, Note_on_c, 1, 84, 0
3, 97440, Note_on_c, 1, 86, 85
3, 97520, Note_on_c, 1, 86, 0
3, 97532, Note_on_c, 1, 78, 0
3, 97536, Note_on_c, 1, 79, 85
3, 97536, Note_on_c, 1, 84, 85
3, 97632, Note_on_c, 1, 84, 0
3, 97632, Note_on_c, 1, 83, 85
3, 97724, Note_on_c, 1, 83, 0
3, 97724, Note_on_c, 1, 79, 0
3, 97728, Note_on_c, 1, 81, 85
3, 97820, Note_on_c, 1, 81, 0
3, 97824, Note_on_c, 1, 79, 85
3, 97904, Note_on_c, 1, 79, 0
3, 97920, Note_on_c, 1, 79, 65
3, 97920, Note_on_c, 1, 67, 65
3, 98400, Note_on_c, 1, 67, 0
3, 98400, Note_on_c, 1, 79, 0
3, 98400, Note_on_c, 1, 78, 65
3, 98400, Note_on_c, 1, 66, 65
3, 98492, Note_on_c, 1, 66, 0
3, 98492, Note_on_c, 1, 78, 0
3, 98496, Note_on_c, 1, 79, 65
3, 98496, Note_on_c, 1, 67, 65
3, 98588, Note_on_c, 1, 67, 0
3, 98588, Note_on_c, 1, 79, 0
3, 98592, Note_on_c, 1, 81, 65
3, 98592, Note_on_c, 1, 69, 65
3, 98672, Note_on_c, 1, 69, 0
3, 98672, Note_on_c, 1, 81, 0
3, 98688, Note_on_c, 1, 79, 65
3, 98688, Note_on_c, 1, 67, 65
3, 98784, Note_on_c, 1, 67, 0
3, 98784, Note_on_c, 1, 79, 0
3, 98784, Note_on_c, 1, 78, 65
3, 98784, Note_on_c, 1, 66, 65
3, 98864, Note_on_c, 1, 64, 65
3, 98876, Note_on_c, 1, 66, 0
3, 98876, Note_on_c, 1, 78, 0
3, 98880, Note_on_c, 1, 76, 65
3, 98956, Note_on_c, 1, 64, 0
3, 98972, Note_on_c, 1, 76, 0
3, 98976, Note_on_c, 1, 74, 65
3, 98976, Note_on_c, 1, 62, 65
3, 99056, Note_on_c, 1, 62, 0
3, 99056, Note_on_c, 1, 74, 0
3, 99072, Note_on_c, 1, 84, 65
3, 99072, Note_on_c, 1, 72, 65
3, 99552, Note_on_c, 1, 72, 0
3, 99552, Note_on_c, 1, 84, 0
3, 99552, Note_on_c, 1, 83, 65
3, 99552, Note_on_c, 1, 71, 65
3, 99644, Note_on_c, 1, 71, 0
3, 99644, Note_on_c, 1, 83, 0
3, 99648, Note_on_c, 1, 84, 65
3, 99648, Note_on_c, 1, 72, 65
3, 99740, Note_on_c, 1, 72, 0
3, 99740, Note_on_c, 1, 84, 0
3, 99744, Note_on_c, 1, 86, 65
3, 99744, Note_on_c, 1, 74, 65
3, 99824, Note_on_c, 1, 74, 0
3, 99824, Note_on_c, 1, 86, 0
3, 99840, Note_on_c, 1, 84, 65
3, 99840, Note_on_c, 1, 72, 65
3, 99936, Note_on_c, 1, 72, 0
3, 99936, Note_on_c, 1, 84, 0
3, 99936, Note_on_c, 1, 83, 65
3, 99936, Note_on_c, 1, 71, 65
3, 100028, Note_on_c, 1, 71, 0
3, 100028, Note_on_c, 1, 83, 0
3, 100032, Note_on_c, 1, 81, 65
3, 100032, Note_on_c, 1, 69, 65
3, 100124, Note_on_c, 1, 69, 0
3, 100124, Note_on_c, 1, 81, 0
3, 100128, Note_on_c, 1, 79, 65
3, 100128, Note_on_c, 1, 67, 65
3, 100208, Note_on_c, 1, 67, 0
3, 100208, Note_on_c, 1, 79, 0
3, 100224, Note_on_c, 1, 62, 65
3, 100320, Note_on_c, 1, 55, 65
3, 100412, Note_on_c, 1, 55, 0
3, 100416, Note_on_c, 1, 62, 0
3, 100416, Note_on_c, 1, 60, 65
3, 100416, Note_on_c, 1, 54, 65
3, 100496, Note_on_c, 1, 54, 0
3, 100496, Note_on_c, 1, 60, 0
3, 100512, Note_on_c, 1, 55, 65
3, 100604, Note_on_c, 1, 55, 0
3, 100608, Note_on_c, 1, 62, 66
3, 100704, Note_on_c, 1, 55, 67
3, 100796, Note_on_c, 1, 55, 0
3, 100800, Note_on_c, 1, 62, 0
3, 100800, Note_on_c, 1, 60, 69
3, 100800, Note_on_c, 1, 54, 69
3, 100880, Note_on_c, 1, 54, 0
3, 100880, Note_on_c, 1, 60, 0
3, 100896, Note_on_c, 1, 55, 71
3, 100988, Note_on_c, 1, 55, 0
3, 100992, Note_on_c, 1, 62, 73
3, 101088, Note_on_c, 1, 55, 75
3, 101180, Note_on_c, 1, 55, 0
3, 101184, Note_on_c, 1, 62, 0
3, 101184, Note_on_c, 1, 60, 77
3, 101184, Note_on_c, 1, 54, 77
3, 101264, Note_on_c, 1, 54, 0
3, 101264, Note_on_c, 1, 60, 0
3, 101280, Note_on_c, 1, 55, 79
3, 101372, Note_on_c, 1, 55, 0
3, 101376, Note_on_c, 1, 62, 80
3, 101440, Note_on_c, 1, 55, 80
3, 101532, Note_on_c, 1, 55, 0
3, 101568, Note_on_c, 1, 54, 78
3, 101660, Note_on_c, 1, 54, 0
3, 101664, Note_on_c, 1, 55, 76
3, 101756, Note_on_c, 1, 55, 0
3, 101760, Note_on_c, 1, 62, 0
3, 101760, Note_on_c, 1, 60, 75
3, 101760, Note_on_c, 1, 55, 75
3, 101940, Note_on_c, 1, 55, 0
3, 101940, Note_on_c, 1, 60, 0
3, 102528, Note_on_c, 1, 67, 75
3, 102912, Note_on_c, 1, 67, 0
3, 102912, Note_on_c, 1, 67, 75
3, 103292, Note_on_c, 1, 67, 0
3, 103296, Note_on_c, 1, 67, 75
3, 103484, Note_on_c, 1, 67, 0
3, 103680, Note_on_c, 1, 64, 75
3, 103864, Note_on_c, 1, 64, 0
3, 103872, Note_on_c, 1, 69, 75
3, 104256, Note_on_c, 1, 69, 0
3, 104256, Note_on_c, 1, 71, 75
3, 104352, Note_on_c, 1, 71, 0
3, 104352, Note_on_c, 1, 72, 75
3, 104432, Note_on_c, 1, 72, 0
3, 104448, Note_on_c, 1, 72, 75
3, 104544, Note_on_c, 1, 72, 0
3, 104544, Note_on_c, 1, 71, 75
3, 104636, Note_on_c, 1, 71, 0
3, 104640, Note_on_c, 1, 69, 75
3, 104732, Note_on_c, 1, 69, 0
3, 104736, Note_on_c, 1, 67, 75
3, 104816, Note_on_c, 1, 67, 0
3, 104832, Note_on_c, 1, 64, 75
3, 105020, Note_on_c, 1, 64, 0
3, 105024, Note_on_c, 1, 64, 75
3, 105120, Note_on_c, 1, 64, 0
3, 105120, Note_on_c, 1, 60, 75
3, 105200, Note_on_c, 1, 60, 0
3, 105216, Note_on_c, 1, 59, 75
3, 105404, Note_on_c, 1, 59, 0
3, 105408, Note_on_c, 1, 59, 75
3, 105596, Note_on_c, 1, 59, 0
3, 105600, Note_on_c, 1, 60, 75
3, 105788, Note_on_c, 1, 60, 0
3, 105792, Note_on_c, 1, 60, 75
3, 105980, Note_on_c, 1, 60, 0
3, 105984, Note_on_c, 1, 60, 75
3, 106272, Note_on_c, 1, 60, 0
3, 106272, Note_on_c, 1, 59, 80
3, 106352, Note_on_c, 1, 59, 0
3, 106368, Note_on_c, 1, 59, 75
3, 106752, Note_on_c, 1, 59, 0
3, 107136, Note_on_c, 1, 67, 65
3, 107136, Note_on_c, 1, 60, 65
3, 107324, Note_on_c, 1, 60, 0
3, 107324, Note_on_c, 1, 67, 0
3, 107328, Note_on_c, 1, 67, 65
3, 107328, Note_on_c, 1, 60, 65
3, 107516, Note_on_c, 1, 60, 0
3, 107516, Note_on_c, 1, 67, 0
3, 107520, Note_on_c, 1, 67, 65
3, 107520, Note_on_c, 1, 60, 65
3, 107712, Note_on_c, 1, 60, 0
3, 107712, Note_on_c, 1, 67, 0
3, 107712, Note_on_c, 1, 64, 65
3, 107712, Note_on_c, 1, 60, 65
3, 107892, Note_on_c, 1, 60, 0
3, 107892, Note_on_c, 1, 64, 0
3, 107904, Note_on_c, 1, 57, 65
3, 107904, Note_on_c, 1, 62, 65
3, 108096, Note_on_c, 1, 62, 0
3, 108096, Note_on_c, 1, 57, 0
3, 108096, Note_on_c, 1, 66, 65
3, 108096, Note_on_c, 1, 62, 65
3, 108276, Note_on_c, 1, 62, 0
3, 108276, Note_on_c, 1, 66, 0
3, 108288, Note_on_c, 1, 67, 65
3, 108288, Note_on_c, 1, 64, 65
3, 108476, Note_on_c, 1, 64, 0
3, 108476, Note_on_c, 1, 67, 0
3, 108480, Note_on_c, 1, 79, 65
3, 108480, Note_on_c, 1, 64, 65
3, 108668, Note_on_c, 1, 64, 0
3, 108672, Note_on_c, 1, 76, 65
3, 108848, Note_on_c, 1, 76, 65
3, 108860, Note_on_c, 1, 76, 0
3, 108860, Note_on_c, 1, 79, 0
3, 108864, Note_on_c, 1, 79, 65
3, 109036, Note_on_c, 1, 76, 0
3, 109056, Note_on_c, 1, 74, 65
3, 109244, Note_on_c, 1, 74, 0
3, 109248, Note_on_c, 1, 79, 0
3, 109248, Note_on_c, 1, 79, 65
3, 109248, Note_on_c, 1, 74, 65
3, 109436, Note_on_c, 1, 74, 0
3, 109440, Note_on_c, 1, 72, 65
3, 109628, Note_on_c, 1, 72, 0
3, 109628, Note_on_c, 1, 79, 0
3, 109632, Note_on_c, 1, 60, 65
3, 109632, Note_on_c, 1, 76, 65
3, 109724, Note_on_c, 1, 76, 0
3, 109728, Note_on_c, 1, 72, 65
3, 109808, Note_on_c, 1, 72, 0
3, 109820, Note_on_c, 1, 60, 0
3, 109824, Note_on_c, 1, 62, 65
3, 109824, Note_on_c, 1, 71, 65
3, 110012, Note_on_c, 1, 62, 0
3, 110016, Note_on_c, 1, 62, 65
3, 110204, Note_on_c, 1, 62, 0
3, 110204, Note_on_c, 1, 71, 0
3, 110208, Note_on_c, 1, 62, 65
3, 110208, Note_on_c, 1, 69, 65
3, 110396, Note_on_c, 1, 62, 0
3, 110400, Note_on_c, 1, 62, 65
3, 110496, Note_on_c, 1, 78, 65
3, 110500, Note_on_c, 1, 69, 0
3, 110576, Note_on_c, 1, 78, 0
3, 110588, Note_on_c, 1, 62, 0
3, 110592, Note_on_c, 1, 79, 66
3, 110592, Note_on_c, 1, 64, 66
3, 110780, Note_on_c, 1, 64, 0
3, 110784, Note_on_c, 1, 64, 68
3, 110972, Note_on_c, 1, 64, 0
3, 110976, Note_on_c, 1, 79, 0
3, 110976, Note_on_c, 1, 81, 71
3, 110976, Note_on_c, 1, 66, 71
3, 111164, Note_on_c, 1, 66, 0
3, 111168, Note_on_c, 1, 66, 73
3, 111348, Note_on_c, 1, 81, 0
3, 111356, Note_on_c, 1, 66, 0
3, 111360, Note_on_c, 1, 74, 76
3, 111360, Note_on_c, 1, 67, 76
3, 111548, Note_on_c, 1, 67, 0
3, 111552, Note_on_c, 1, 67, 78
3, 111740, Note_on_c, 1, 67, 0
3, 111744, Note_on_c, 1, 74, 0
3, 111936, Note_on_c, 1, 79, 66
3, 111936, Note_on_c, 1, 76, 66
3, 112124, Note_on_c, 1, 76, 0
3, 112124, Note_on_c, 1, 79, 0
3, 112128, Note_on_c, 1, 79, 66
3, 112128, Note_on_c, 1, 76, 66
3, 112316, Note_on_c, 1, 76, 0
3, 112316, Note_on_c, 1, 79, 0
3, 112320, Note_on_c, 1, 79, 67
3, 112320, Note_on_c, 1, 76, 67
3, 112508, Note_on_c, 1, 76, 0
3, 112508, Note_on_c, 1, 79, 0
3, 112512, Note_on_c, 1, 79, 68
3, 112512, Note_on_c, 1, 76, 68
3, 112700, Note_on_c, 1, 76, 0
3, 112700, Note_on_c, 1, 79, 0
3, 112704, Note_on_c, 1, 79, 69
3, 112704, Note_on_c, 1, 76, 69
3, 112892, Note_on_c, 1, 76, 0
3, 112892, Note_on_c, 1, 79, 0
3, 113088, Note_on_c, 1, 79, 71
3, 113088, Note_on_c, 1, 76, 71
3, 113276, Note_on_c, 1, 76, 0
3, 113276, Note_on_c, 1, 79, 0
3, 113280, Note_on_c, 1, 79, 72
3, 113280, Note_on_c, 1, 76, 72
3, 113468, Note_on_c, 1, 76, 0
3, 113468, Note_on_c, 1, 79, 0
3, 113472, Note_on_c, 1, 79, 73
3, 113472, Note_on_c, 1, 76, 73
3, 113660, Note_on_c, 1, 76, 0
3, 113660, Note_on_c, 1, 79, 0
3, 113664, Note_on_c, 1, 79, 74
3, 113664, Note_on_c, 1, 76, 74
3, 113840, Note_on_c, 1, 76, 75
3, 113852, Note_on_c, 1, 76, 0
3, 113852, Note_on_c, 1, 79, 0
3, 113856, Note_on_c, 1, 79, 75
3, 114028, Note_on_c, 1, 76, 0
3, 114044, Note_on_c, 1, 79, 0
3, 114240, Note_on_c, 1, 71, 75
3, 114240, Note_on_c, 1, 67, 75
3, 114428, Note_on_c, 1, 67, 0
3, 114428, Note_on_c, 1, 71, 0
3, 114432, Note_on_c, 1, 71, 75
3, 114432, Note_on_c, 1, 67, 75
3, 114620, Note_on_c, 1, 67, 0
3, 114620, Note_on_c, 1, 71, 0
3, 114624, Note_on_c, 1, 71, 75
3, 114624, Note_on_c, 1, 67, 75
3, 114812, Note_on_c, 1, 67, 0
3, 114812, Note_on_c, 1, 71, 0
3, 114816, Note_on_c, 1, 71, 75
3, 114816, Note_on_c, 1, 67, 75
3, 114992, Note_on_c, 1, 67, 75
3, 115004, Note_on_c, 1, 67, 0
3, 115004, Note_on_c, 1, 71, 0
3, 115008, Note_on_c, 1, 71, 75
3, 115180, Note_on_c, 1, 67, 0
3, 115196, Note_on_c, 1, 71, 0
3, 115200, Note_on_c, 1, 66, 76
3, 115200, Note_on_c, 1, 72, 76
3, 115292, Note_on_c, 1, 72, 0
3, 115292, Note_on_c, 1, 66, 0
3, 115296, Note_on_c, 1, 72, 76
3, 115296, Note_on_c, 1, 66, 76
3, 115388, Note_on_c, 1, 66, 0
3, 115388, Note_on_c, 1, 72, 0
3, 115392, Note_on_c, 1, 66, 77
3, 115392, Note_on_c, 1, 72, 77
3, 115484, Note_on_c, 1, 72, 0
3, 115484, Note_on_c, 1, 66, 0
3, 115488, Note_on_c, 1, 72, 78
3, 115488, Note_on_c, 1, 66, 78
3, 115580, Note_on_c, 1, 66, 0
3, 115580, Note_on_c, 1, 72, 0
3, 115584, Note_on_c, 1, 66, 79
3, 115584, Note_on_c, 1, 72, 79
3, 115676, Note_on_c, 1, 72, 0
3, 115676, Note_on_c, 1, 66, 0
3, 115680, Note_on_c, 1, 78, 80
3, 115680, Note_on_c, 1, 72, 80
3, 115772, Note_on_c, 1, 72, 0
3, 115772, Note_on_c, 1, 78, 0
3, 115776, Note_on_c, 1, 72, 81
3, 115776, Note_on_c, 1, 78, 81
3, 115868, Note_on_c, 1, 78, 0
3, 115868, Note_on_c, 1, 72, 0
3, 115872, Note_on_c, 1, 78, 81
3, 115872, Note_on_c, 1, 72, 81
3, 115952, Note_on_c, 1, 78, 82
3, 115964, Note_on_c, 1, 78, 0
3, 115964, Note_on_c, 1, 72, 0
3, 115968, Note_on_c, 1, 72, 82
3, 116044, Note_on_c, 1, 78, 0
3, 116060, Note_on_c, 1, 72, 0
3, 116064, Note_on_c, 1, 78, 83
3, 116064, Note_on_c, 1, 72, 83
3, 116156, Note_on_c, 1, 72, 0
3, 116156, Note_on_c, 1, 78, 0
3, 116160, Note_on_c, 1, 72, 84
3, 116160, Note_on_c, 1, 78, 84
3, 116252, Note_on_c, 1, 78, 0
3, 116252, Note_on_c, 1, 72, 0
3, 116256, Note_on_c, 1, 78, 85
3, 116256, Note_on_c, 1, 72, 85
3, 116348, Note_on_c, 1, 72, 0
3, 116348, Note_on_c, 1, 78, 0
3, 116352, Note_on_c, 1, 79, 85
3, 116352, Note_on_c, 1, 71, 85
3, 116540, Note_on_c, 1, 71, 0
3, 116540, Note_on_c, 1, 79, 0
3, 116544, Note_on_c, 1, 79, 85
3, 116544, Note_on_c, 1, 67, 85
3, 116544, Note_on_c, 1, 71, 85
3, 116924, Note_on_c, 1, 71, 0
3, 116924, Note_on_c, 1, 67, 0
3, 116924, Note_on_c, 1, 79, 0
3, 116928, Note_on_c, 1, 67, 85
3, 116928, Note_on_c, 1, 74, 85
3, 116928, Note_on_c, 1, 79, 85
3, 117308, Note_on_c, 1, 79, 0
3, 117308, Note_on_c, 1, 74, 0
3, 117308, Note_on_c, 1, 67, 0
3, 117312, Note_on_c, 1, 79, 85
3, 117312, Note_on_c, 1, 77, 85
3, 117312, Note_on_c, 1, 67, 85
3, 117692, Note_on_c, 1, 67, 0
3, 117692, Note_on_c, 1, 77, 0
3, 117692, Note_on_c, 1, 79, 0
3, 117696, Note_on_c, 1, 76, 85
3, 117696, Note_on_c, 1, 67, 85
3, 117696, Note_on_c, 1, 79, 85
3, 118076, Note_on_c, 1, 79, 0
3, 118076, Note_on_c, 1, 67, 0
3, 118076, Note_on_c, 1, 76, 0
3, 118080, Note_on_c, 1, 67, 85
3, 118080, Note_on_c, 1, 72, 85
3, 118080, Note_on_c, 1, 79, 85
3, 118460, Note_on_c, 1, 79, 0
3, 118460, Note_on_c, 1, 72, 0
3, 118460, Note_on_c, 1, 67, 0
3, 118464, Note_on_c, 1, 67, 85
3, 118464, Note_on_c, 1, 79, 85
3, 118464, Note_on_c, 1, 76, 85
3, 118844, Note_on_c, 1, 76, 0
3, 118844, Note_on_c, 1, 79, 0
3, 118844, Note_on_c, 1, 67, 0
3, 118848, Note_on_c, 1, 79, 85
3, 118848, Note_on_c, 1, 74, 85
3, 118848, Note_on_c, 1, 67, 85
3, 119228, Note_on_c, 1, 67, 0
3, 119228, Note_on_c, 1, 74, 0
3, 119228, Note_on_c, 1, 79, 0
3, 119232, Note_on_c, 1, 67, 85
3, 119232, Note_on_c, 1, 72, 85
3, 119232, Note_on_c, 1, 79, 85
3, 119612, Note_on_c, 1, 79, 0
3, 119612, Note_on_c, 1, 72, 0
3, 119612, Note_on_c, 1, 67, 0
3, 119616, Note_on_c, 1, 79, 85
3, 119616, Note_on_c, 1, 76, 85
3, 119616, Note_on_c, 1, 69, 85
3, 119804, Note_on_c, 1, 69, 0
3, 119804, Note_on_c, 1, 76, 0
3, 119804, Note_on_c, 1, 79, 0
3, 119808, Note_on_c, 1, 79, 85
3, 119808, Note_on_c, 1, 74, 85
3, 119808, Note_on_c, 1, 71, 85
3, 120764, Note_on_c, 1, 71, 0
3, 120764, Note_on_c, 1, 74, 0
3, 120764, Note_on_c, 1, 79, 0
3, 142848, Note_on_c, 1, 67, 85
3, 142848, Note_on_c, 1, 67, 85
3, 142944, Note_on_c, 1, 67, 0
3, 142944, Note_on_c, 1, 67, 85
3, 143040, Note_on_c, 1, 66, 85
3, 143132, Note_on_c, 1, 66, 0
3, 143136, Note_on_c, 1, 67, 0
3, 143136, Note_on_c, 1, 67, 0
3, 143136, Note_on_c, 1, 67, 85
3, 143136, Note_on_c, 1, 79, 85
3, 143216, Note_on_c, 1, 79, 0
3, 143216, Note_on_c, 1, 67, 0
3, 143232, Note_on_c, 1, 69, 85
3, 143232, Note_on_c, 1, 79, 85
3, 143328, Note_on_c, 1, 69, 0
3, 143328, Note_on_c, 1, 67, 85
3, 143420, Note_on_c, 1, 67, 0
3, 143424, Note_on_c, 1, 66, 85
3, 143516, Note_on_c, 1, 66, 0
3, 143520, Note_on_c, 1, 67, 85
3, 143600, Note_on_c, 1, 67, 0
3, 143616, Note_on_c, 1, 69, 85
3, 143712, Note_on_c, 1, 69, 0
3, 143712, Note_on_c, 1, 67, 85
3, 143804, Note_on_c, 1, 67, 0
3, 143808, Note_on_c, 1, 79, 0
3, 143808, Note_on_c, 1, 66, 85
3, 143808, Note_on_c, 1, 78, 85
3, 143900, Note_on_c, 1, 66, 0
3, 143904, Note_on_c, 1, 67, 85
3, 143984, Note_on_c, 1, 67, 0
3, 143988, Note_on_c, 1, 78, 0
3, 144000, Note_on_c, 1, 78, 85
3, 144096, Note_on_c, 1, 67, 85
3, 144192, Note_on_c, 1, 67, 0
3, 144192, Note_on_c, 1, 66, 85
3, 144284, Note_on_c, 1, 66, 0
3, 144288, Note_on_c, 1, 78, 0
3, 144288, Note_on_c, 1, 76, 85
3, 144288, Note_on_c, 1, 67, 85
3, 144368, Note_on_c, 1, 67, 0
3, 144368, Note_on_c, 1, 76, 0
3, 144384, Note_on_c, 1, 69, 85
3, 144384, Note_on_c, 1, 76, 85
3, 144480, Note_on_c, 1, 69, 0
3, 144480, Note_on_c, 1, 67, 85
3, 144572, Note_on_c, 1, 67, 0
3, 144576, Note_on_c, 1, 66, 85
3, 144668, Note_on_c, 1, 66, 0
3, 144672, Note_on_c, 1, 67, 85
3, 144752, Note_on_c, 1, 67, 0
3, 144768, Note_on_c, 1, 69, 85
3, 144864, Note_on_c, 1, 69, 0
3, 144864, Note_on_c, 1, 67, 85
3, 144944, Note_on_c, 1, 74, 85
3, 144956, Note_on_c, 1, 67, 0
3, 144960, Note_on_c, 1, 76, 0
3, 144960, Note_on_c, 1, 66, 85
3, 145052, Note_on_c, 1, 66, 0
3, 145056, Note_on_c, 1, 67, 85
3, 145124, Note_on_c, 1, 74, 0
3, 145136, Note_on_c, 1, 67, 0
3, 145152, Note_on_c, 1, 74, 85
3, 145152, Note_on_c, 1, 66, 85
3, 145244, Note_on_c, 1, 66, 0
3, 145244, Note_on_c, 1, 74, 0
3, 145248, Note_on_c, 1, 72, 85
3, 145248, Note_on_c, 1, 64, 85
3, 145340, Note_on_c, 1, 64, 0
3, 145340, Note_on_c, 1, 72, 0
3, 145344, Note_on_c, 1, 71, 85
3, 145344, Note_on_c, 1, 62, 85
3, 145436, Note_on_c, 1, 62, 0
3, 145436, Note_on_c, 1, 71, 0
3, 145440, Note_on_c, 1, 69, 85
3, 145440, Note_on_c, 1, 60, 85
3, 145532, Note_on_c, 1, 60, 0
3, 145532, Note_on_c, 1, 69, 0
3, 145536, Note_on_c, 1, 67, 85
3, 145536, Note_on_c, 1, 59, 85
3, 145628, Note_on_c, 1, 59, 0
3, 145628, Note_on_c, 1, 67, 0
3, 145632, Note_on_c, 1, 67, 85
3, 145632, Note_on_c, 1, 59, 85
3, 145728, Note_on_c, 1, 59, 0
3, 145728, Note_on_c, 1, 67, 0
3, 145728, Note_on_c, 1, 69, 85
3, 145728, Note_on_c, 1, 60, 85
3, 145820, Note_on_c, 1, 60, 0
3, 145820, Note_on_c, 1, 69, 0
3, 145824, Note_on_c, 1, 71, 85
3, 145824, Note_on_c, 1, 62, 85
3, 145904, Note_on_c, 1, 62, 0
3, 145904, Note_on_c, 1, 71, 0
3, 145920, Note_on_c, 1, 71, 85
3, 145920, Note_on_c, 1, 62, 85
3, 146012, Note_on_c, 1, 62, 0
3, 146012, Note_on_c, 1, 71, 0
3, 146016, Note_on_c, 1, 69, 85
3, 146016, Note_on_c, 1, 60, 85
3, 146108, Note_on_c, 1, 60, 0
3, 146108, Note_on_c, 1, 69, 0
3, 146112, Note_on_c, 1, 67, 85
3, 146112, Note_on_c, 1, 59, 85
3, 146204, Note_on_c, 1, 59, 0
3, 146204, Note_on_c, 1, 67, 0
3, 146208, Note_on_c, 1, 66, 85
3, 146208, Note_on_c, 1, 57, 85
3, 146300, Note_on_c, 1, 57, 0
3, 146300, Note_on_c, 1, 66, 0
3, 146304, Note_on_c, 1, 67, 85
3, 146304, Note_on_c, 1, 59, 85
3, 146492, Note_on_c, 1, 59, 0
3, 146492, Note_on_c, 1, 67, 0
3, 146496, Note_on_c, 1, 62, 85
3, 146496, Note_on_c, 1, 59, 85
3, 146876, Note_on_c, 1, 59, 0
3, 146876, Note_on_c, 1, 62, 0
3, 146880, Note_on_c, 1, 64, 85
3, 146880, Note_on_c, 1, 60, 85
3, 147072, Note_on_c, 1, 60, 0
3, 147072, Note_on_c, 1, 64, 0
3, 147072, Note_on_c, 1, 62, 85
3, 147072, Note_on_c, 1, 59, 85
3, 147260, Note_on_c, 1, 59, 0
3, 147260, Note_on_c, 1, 62, 0
3, 147264, Note_on_c, 1, 60, 85
3, 147264, Note_on_c, 1, 57, 85
3, 147444, Note_on_c, 1, 57, 0
3, 147444, Note_on_c, 1, 60, 0
3, 147456, Note_on_c, 1, 60, 85
3, 147456, Note_on_c, 1, 57, 85
3, 148224, Note_on_c, 1, 57, 0
3, 148224, Note_on_c, 1, 60, 0
3, 148224, Note_on_c, 1, 55, 85
3, 148224, Note_on_c, 1, 59, 85
3, 148404, Note_on_c, 1, 59, 0
3, 148404, Note_on_c, 1, 55, 0
3, 148404, End_track
4, 0, Start_track
4, 0, MIDI_port, 0
4, 0, Title_t, "K211 -b -Andante"
4, 0, Control_c, 2, 0, 0
4, 0, Control_c, 2, 32, 0
4, 0, Program_c, 2, 48
4, 0, Control_c, 2, 7, 127
4, 0, Control_c, 2, 10, 89
4, 0, Control_c, 2, 91, 67
4, 0, Control_c, 2, 93, 0
4, 0, Control_c, 2, 121, 0
4, 192, Control_c, 2, 10, 73
4, 384, Control_c, 2, 91, 73
4, 576, Program_c, 2, 48
4, 1152, Note_on_c, 2, 55, 75
4, 1152, Note_on_c, 2, 55, 75
4, 1248, Note_on_c, 2, 55, 0
4, 1248, Note_on_c, 2, 59, 75
4, 1340, Note_on_c, 2, 59, 0
4, 1344, Note_on_c, 2, 62, 75
4, 1436, Note_on_c, 2, 62, 0
4, 1440, Note_on_c, 2, 59, 75
4, 1520, Note_on_c, 2, 59, 0
4, 1536, Note_on_c, 2, 55, 0
4, 1536, Note_on_c, 2, 55, 75
4, 1536, Note_on_c, 2, 55, 75
4, 1632, Note_on_c, 2, 55, 0
4, 1632, Note_on_c, 2, 59, 75
4, 1724, Note_on_c, 2, 59, 0
4, 1728, Note_on_c, 2, 62, 75
4, 1820, Note_on_c, 2, 62, 0
4, 1824, Note_on_c, 2, 59, 75
4, 1904, Note_on_c, 2, 59, 0
4, 1920, Note_on_c, 2, 55, 0
4, 1920, Note_on_c, 2, 55, 75
4, 1920, Note_on_c, 2, 55, 75
4, 2016, Note_on_c, 2, 55, 0
4, 2016, Note_on_c, 2, 60, 75
4, 2096, Note_on_c, 2, 64, 75
4, 2108, Note_on_c, 2, 60, 0
4, 2188, Note_on_c, 2, 64, 0
4, 2192, Note_on_c, 2, 60, 75
4, 2272, Note_on_c, 2, 60, 0
4, 2304, Note_on_c, 2, 55, 0
4, 2304, Note_on_c, 2, 55, 75
4, 2304, Note_on_c, 2, 55, 75
4, 2400, Note_on_c, 2, 55, 0
4, 2400, Note_on_c, 2, 59, 75
4, 2492, Note_on_c, 2, 59, 0
4, 2496, Note_on_c, 2, 62, 75
4, 2588, Note_on_c, 2, 62, 0
4, 2592, Note_on_c, 2, 59, 75
4, 2672, Note_on_c, 2, 59, 0
4, 2688, Note_on_c, 2, 55, 0
4, 2688, Note_on_c, 2, 50, 75
4, 2688, Note_on_c, 2, 50, 75
4, 2784, Note_on_c, 2, 50, 0
4, 2784, Note_on_c, 2, 55, 75
4, 2876, Note_on_c, 2, 55, 0
4, 2880, Note_on_c, 2, 59, 75
4, 2972, Note_on_c, 2, 59, 0
4, 2976, Note_on_c, 2, 55, 75
4, 3056, Note_on_c, 2, 55, 0
4, 3072, Note_on_c, 2, 50, 0
4, 3072, Note_on_c, 2, 47, 75
4, 3072, Note_on_c, 2, 47, 75
4, 3168, Note_on_c, 2, 47, 0
4, 3168, Note_on_c, 2, 50, 75
4, 3260, Note_on_c, 2, 50, 0
4, 3264, Note_on_c, 2, 55, 75
4, 3356, Note_on_c, 2, 55, 0
4, 3360, Note_on_c, 2, 50, 75
4, 3440, Note_on_c, 2, 50, 0
4, 3456, Note_on_c, 2, 47, 0
4, 3456, Note_on_c, 2, 43, 65
4, 3836, Note_on_c, 2, 43, 0
4, 4992, Note_on_c, 2, 57, 65
4, 4992, Note_on_c, 2, 54, 65
4, 5376, Note_on_c, 2, 54, 0
4, 5376, Note_on_c, 2, 57, 0
4, 5376, Note_on_c, 2, 62, 65
4, 5376, Note_on_c, 2, 55, 65
4, 5748, Note_on_c, 2, 55, 0
4, 5748, Note_on_c, 2, 62, 0
4, 5856, Note_on_c, 2, 60, 85
4, 5952, Note_on_c, 2, 60, 0
4, 5952, Note_on_c, 2, 64, 85
4, 6044, Note_on_c, 2, 64, 0
4, 6048, Note_on_c, 2, 60, 85
4, 6140, Note_on_c, 2, 60, 0
4, 6144, Note_on_c, 2, 64, 85
4, 6236, Note_on_c, 2, 64, 0
4, 6240, Note_on_c, 2, 60, 85
4, 6332, Note_on_c, 2, 60, 0
4, 6336, Note_on_c, 2, 64, 85
4, 6428, Note_on_c, 2, 64, 0
4, 6432, Note_on_c, 2, 60, 85
4, 6512, Note_on_c, 2, 60, 0
4, 6528, Note_on_c, 2, 64, 85
4, 6624, Note_on_c, 2, 64, 0
4, 6624, Note_on_c, 2, 60, 85
4, 6716, Note_on_c, 2, 60, 0
4, 6720, Note_on_c, 2, 62, 85
4, 6812, Note_on_c, 2, 62, 0
4, 6816, Note_on_c, 2, 59, 85
4, 6896, Note_on_c, 2, 59, 0
4, 7008, Note_on_c, 2, 57, 85
4, 7104, Note_on_c, 2, 57, 0
4, 7104, Note_on_c, 2, 60, 85
4, 7196, Note_on_c, 2, 60, 0
4, 7200, Note_on_c, 2, 57, 85
4, 7292, Note_on_c, 2, 57, 0
4, 7296, Note_on_c, 2, 60, 85
4, 7388, Note_on_c, 2, 60, 0
4, 7392, Note_on_c, 2, 57, 85
4, 7484, Note_on_c, 2, 57, 0
4, 7488, Note_on_c, 2, 60, 85
4, 7580, Note_on_c, 2, 60, 0
4, 7584, Note_on_c, 2, 57, 85
4, 7664, Note_on_c, 2, 57, 0
4, 7680, Note_on_c, 2, 60, 85
4, 7776, Note_on_c, 2, 60, 0
4, 7776, Note_on_c, 2, 57, 85
4, 7868, Note_on_c, 2, 57, 0
4, 7872, Note_on_c, 2, 59, 85
4, 7964, Note_on_c, 2, 59, 0
4, 7968, Note_on_c, 2, 55, 85
4, 8048, Note_on_c, 2, 55, 0
4, 8064, Note_on_c, 2, 57, 65
4, 8064, Note_on_c, 2, 54, 65
4, 8636, Note_on_c, 2, 54, 0
4, 8636, Note_on_c, 2, 57, 0
4, 8640, Note_on_c, 2, 60, 65
4, 8640, Note_on_c, 2, 54, 65
4, 8832, Note_on_c, 2, 54, 0
4, 8832, Note_on_c, 2, 60, 0
4, 8832, Note_on_c, 2, 59, 65
4, 8832, Note_on_c, 2, 55, 65
4, 9020, Note_on_c, 2, 55, 0
4, 9020, Note_on_c, 2, 59, 0
4, 9024, Note_on_c, 2, 57, 65
4, 9024, Note_on_c, 2, 48, 65
4, 9204, Note_on_c, 2, 48, 0
4, 9204, Note_on_c, 2, 57, 0
4, 9216, Note_on_c, 2, 59, 65
4, 9216, Note_on_c, 2, 50, 65
4, 9984, Note_on_c, 2, 50, 0
4, 9984, Note_on_c, 2, 59, 0
4, 9984, Note_on_c, 2, 57, 65
4, 9984, Note_on_c, 2, 50, 65
4, 10164, Note_on_c, 2, 50, 0
4, 10164, Note_on_c, 2, 57, 0
4, 10368, Note_on_c, 2, 43, 65
4, 10556, Note_on_c, 2, 43, 0
4, 10560, Note_on_c, 2, 43, 65
4, 10748, Note_on_c, 2, 43, 0
4, 10752, Note_on_c, 2, 43, 65
4, 10940, Note_on_c, 2, 43, 0
4, 10944, Note_on_c, 2, 43, 65
4, 11132, Note_on_c, 2, 43, 0
4, 11136, Note_on_c, 2, 43, 65
4, 11324, Note_on_c, 2, 43, 0
4, 11328, Note_on_c, 2, 43, 65
4, 11516, Note_on_c, 2, 43, 0
4, 11520, Note_on_c, 2, 43, 65
4, 11900, Note_on_c, 2, 43, 0
4, 11904, Note_on_c, 2, 50, 65
4, 12284, Note_on_c, 2, 50, 0
4, 12288, Note_on_c, 2, 47, 65
4, 12668, Note_on_c, 2, 47, 0
4, 12672, Note_on_c, 2, 43, 65
4, 13052, Note_on_c, 2, 43, 0
4, 14208, Note_on_c, 2, 57, 65
4, 14208, Note_on_c, 2, 54, 65
4, 14592, Note_on_c, 2, 54, 0
4, 14592, Note_on_c, 2, 57, 0
4, 14592, Note_on_c, 2, 62, 65
4, 14592, Note_on_c, 2, 55, 65
4, 14964, Note_on_c, 2, 55, 0
4, 14964, Note_on_c, 2, 62, 0
4, 14976, Note_on_c, 2, 48, 65
4, 15164, Note_on_c, 2, 48, 0
4, 15168, Note_on_c, 2, 60, 65
4, 15356, Note_on_c, 2, 60, 0
4, 15360, Note_on_c, 2, 60, 65
4, 15548, Note_on_c, 2, 60, 0
4, 15552, Note_on_c, 2, 60, 65
4, 15740, Note_on_c, 2, 60, 0
4, 15744, Note_on_c, 2, 60, 65
4, 15936, Note_on_c, 2, 60, 0
4, 15936, Note_on_c, 2, 59, 65
4, 16116, Note_on_c, 2, 59, 0
4, 16128, Note_on_c, 2, 45, 65
4, 16316, Note_on_c, 2, 45, 0
4, 16320, Note_on_c, 2, 57, 65
4, 16508, Note_on_c, 2, 57, 0
4, 16512, Note_on_c, 2, 57, 65
4, 16700, Note_on_c, 2, 57, 0
4, 16704, Note_on_c, 2, 57, 65
4, 16892, Note_on_c, 2, 57, 0
4, 16896, Note_on_c, 2, 57, 65
4, 17088, Note_on_c, 2, 57, 0
4, 17088, Note_on_c, 2, 55, 65
4, 17268, Note_on_c, 2, 55, 0
4, 17280, Note_on_c, 2, 54, 65
4, 17660, Note_on_c, 2, 54, 0
4, 17856, Note_on_c, 2, 50, 65
4, 18048, Note_on_c, 2, 50, 0
4, 18048, Note_on_c, 2, 55, 65
4, 18236, Note_on_c, 2, 55, 0
4, 18240, Note_on_c, 2, 48, 65
4, 18420, Note_on_c, 2, 48, 0
4, 18432, Note_on_c, 2, 50, 65
4, 18620, Note_on_c, 2, 50, 0
4, 18624, Note_on_c, 2, 50, 65
4, 18812, Note_on_c, 2, 50, 0
4, 18816, Note_on_c, 2, 50, 65
4, 19004, Note_on_c, 2, 50, 0
4, 19008, Note_on_c, 2, 50, 65
4, 19196, Note_on_c, 2, 50, 0
4, 19200, Note_on_c, 2, 48, 65
4, 19296, Note_on_c, 2, 48, 0
4, 19296, Note_on_c, 2, 50, 65
4, 19376, Note_on_c, 2, 50, 0
4, 19392, Note_on_c, 2, 45, 65
4, 19440, Note_on_c, 2, 45, 0
4, 19488, Note_on_c, 2, 42, 65
4, 19536, Note_on_c, 2, 42, 0
4, 19584, Note_on_c, 2, 38, 65
4, 19772, Note_on_c, 2, 38, 0
4, 28800, Note_on_c, 2, 57, 85
4, 28800, Note_on_c, 2, 50, 85
4, 28988, Note_on_c, 2, 50, 0
4, 28988, Note_on_c, 2, 57, 0
4, 28992, Note_on_c, 2, 50, 85
4, 28992, Note_on_c, 2, 57, 85
4, 29180, Note_on_c, 2, 57, 0
4, 29180, Note_on_c, 2, 50, 0
4, 29184, Note_on_c, 2, 57, 85
4, 29184, Note_on_c, 2, 50, 85
4, 29372, Note_on_c, 2, 50, 0
4, 29372, Note_on_c, 2, 57, 0
4, 29376, Note_on_c, 2, 57, 85
4, 29376, Note_on_c, 2, 50, 85
4, 29564, Note_on_c, 2, 50, 0
4, 29564, Note_on_c, 2, 57, 0
4, 29568, Note_on_c, 2, 57, 85
4, 29568, Note_on_c, 2, 50, 85
4, 29756, Note_on_c, 2, 50, 0
4, 29756, Note_on_c, 2, 57, 0
4, 29760, Note_on_c, 2, 57, 85
4, 29760, Note_on_c, 2, 50, 85
4, 29948, Note_on_c, 2, 50, 0
4, 29948, Note_on_c, 2, 57, 0
4, 29952, Note_on_c, 2, 57, 85
4, 29952, Note_on_c, 2, 49, 85
4, 30140, Note_on_c, 2, 49, 0
4, 30140, Note_on_c, 2, 57, 0
4, 30144, Note_on_c, 2, 57, 85
4, 30144, Note_on_c, 2, 49, 85
4, 30332, Note_on_c, 2, 49, 0
4, 30332, Note_on_c, 2, 57, 0
4, 30336, Note_on_c, 2, 61, 85
4, 30336, Note_on_c, 2, 52, 85
4, 30336, Note_on_c, 2, 45, 85
4, 30524, Note_on_c, 2, 45, 0
4, 30524, Note_on_c, 2, 52, 0
4, 30524, Note_on_c, 2, 61, 0
4, 30528, Note_on_c, 2, 61, 85
4, 30528, Note_on_c, 2, 52, 85
4, 30528, Note_on_c, 2, 45, 85
4, 30716, Note_on_c, 2, 45, 0
4, 30716, Note_on_c, 2, 52, 0
4, 30716, Note_on_c, 2, 61, 0
4, 30720, Note_on_c, 2, 62, 85
4, 30720, Note_on_c, 2, 50, 85
4, 30908, Note_on_c, 2, 50, 0
4, 30908, Note_on_c, 2, 62, 0
4, 30912, Note_on_c, 2, 62, 85
4, 30912, Note_on_c, 2, 50, 85
4, 31100, Note_on_c, 2, 50, 0
4, 31100, Note_on_c, 2, 62, 0
4, 31104, Note_on_c, 2, 54, 65
4, 31104, Note_on_c, 2, 50, 65
4, 31292, Note_on_c, 2, 50, 0
4, 31292, Note_on_c, 2, 54, 0
4, 31296, Note_on_c, 2, 54, 65
4, 31296, Note_on_c, 2, 50, 65
4, 31484, Note_on_c, 2, 50, 0
4, 31484, Note_on_c, 2, 54, 0
4, 31488, Note_on_c, 2, 54, 65
4, 31488, Note_on_c, 2, 50, 65
4, 31676, Note_on_c, 2, 50, 0
4, 31676, Note_on_c, 2, 54, 0
4, 31680, Note_on_c, 2, 54, 65
4, 31680, Note_on_c, 2, 50, 65
4, 31868, Note_on_c, 2, 50, 0
4, 31868, Note_on_c, 2, 54, 0
4, 31872, Note_on_c, 2, 55, 65
4, 31872, Note_on_c, 2, 52, 65
4, 32060, Note_on_c, 2, 52, 0
4, 32060, Note_on_c, 2, 55, 0
4, 32064, Note_on_c, 2, 55, 65
4, 32064, Note_on_c, 2, 52, 65
4, 32252, Note_on_c, 2, 52, 0
4, 32252, Note_on_c, 2, 55, 0
4, 32256, Note_on_c, 2, 52, 65
4, 32256, Note_on_c, 2, 49, 65
4, 32444, Note_on_c, 2, 49, 0
4, 32444, Note_on_c, 2, 52, 0
4, 32448, Note_on_c, 2, 52, 65
4, 32448, Note_on_c, 2, 49, 65
4, 32636, Note_on_c, 2, 49, 0
4, 32636, Note_on_c, 2, 52, 0
4, 32640, Note_on_c, 2, 61, 65
4, 32640, Note_on_c, 2, 45, 65
4, 32828, Note_on_c, 2, 45, 0
4, 32828, Note_on_c, 2, 61, 0
4, 32832, Note_on_c, 2, 61, 65
4, 32832, Note_on_c, 2, 45, 65
4, 33020, Note_on_c, 2, 45, 0
4, 33020, Note_on_c, 2, 61, 0
4, 33024, Note_on_c, 2, 62, 65
4, 33024, Note_on_c, 2, 50, 65
4, 33212, Note_on_c, 2, 50, 0
4, 33212, Note_on_c, 2, 62, 0
4, 33216, Note_on_c, 2, 54, 65
4, 33216, Note_on_c, 2, 50, 65
4, 33404, Note_on_c, 2, 50, 0
4, 33404, Note_on_c, 2, 54, 0
4, 33408, Note_on_c, 2, 54, 65
4, 33600, Note_on_c, 2, 54, 0
4, 33600, Note_on_c, 2, 55, 65
4, 33680, Note_on_c, 2, 55, 0
4, 33792, Note_on_c, 2, 54, 65
4, 33984, Note_on_c, 2, 54, 0
4, 33984, Note_on_c, 2, 55, 65
4, 34064, Note_on_c, 2, 55, 0
4, 34176, Note_on_c, 2, 54, 65
4, 34368, Note_on_c, 2, 54, 0
4, 34368, Note_on_c, 2, 55, 65
4, 34448, Note_on_c, 2, 55, 0
4, 34560, Note_on_c, 2, 54, 65
4, 34944, Note_on_c, 2, 54, 0
4, 34944, Note_on_c, 2, 55, 65
4, 35124, Note_on_c, 2, 55, 0
4, 44928, Note_on_c, 2, 55, 65
4, 45308, Note_on_c, 2, 55, 0
4, 46080, Note_on_c, 2, 56, 70
4, 46460, Note_on_c, 2, 56, 0
4, 47232, Note_on_c, 2, 57, 75
4, 47420, Note_on_c, 2, 57, 0
4, 47424, Note_on_c, 2, 57, 75
4, 47612, Note_on_c, 2, 57, 0
4, 47616, Note_on_c, 2, 57, 75
4, 47804, Note_on_c, 2, 57, 0
4, 47808, Note_on_c, 2, 57, 75
4, 47996, Note_on_c, 2, 57, 0
4, 48000, Note_on_c, 2, 57, 75
4, 48188, Note_on_c, 2, 57, 0
4, 48192, Note_on_c, 2, 57, 75
4, 48380, Note_on_c, 2, 57, 0
4, 48384, Note_on_c, 2, 57, 76
4, 48384, Note_on_c, 2, 43, 76
4, 48572, Note_on_c, 2, 43, 0
4, 48572, Note_on_c, 2, 57, 0
4, 48576, Note_on_c, 2, 57, 77
4, 48576, Note_on_c, 2, 45, 77
4, 48764, Note_on_c, 2, 45, 0
4, 48764, Note_on_c, 2, 57, 0
4, 48768, Note_on_c, 2, 57, 79
4, 48768, Note_on_c, 2, 45, 79
4, 48956, Note_on_c, 2, 45, 0
4, 48956, Note_on_c, 2, 57, 0
4, 48960, Note_on_c, 2, 57, 81
4, 48960, Note_on_c, 2, 45, 81
4, 49148, Note_on_c, 2, 45, 0
4, 49148, Note_on_c, 2, 57, 0
4, 49152, Note_on_c, 2, 57, 82
4, 49152, Note_on_c, 2, 45, 82
4, 49340, Note_on_c, 2, 45, 0
4, 49340, Note_on_c, 2, 57, 0
4, 49344, Note_on_c, 2, 57, 84
4, 49344, Note_on_c, 2, 45, 84
4, 49532, Note_on_c, 2, 45, 0
4, 49532, Note_on_c, 2, 57, 0
4, 49536, Note_on_c, 2, 50, 85
4, 49724, Note_on_c, 2, 50, 0
4, 49728, Note_on_c, 2, 47, 85
4, 49916, Note_on_c, 2, 47, 0
4, 49920, Note_on_c, 2, 59, 85
4, 50108, Note_on_c, 2, 59, 0
4, 50112, Note_on_c, 2, 59, 85
4, 50300, Note_on_c, 2, 59, 0
4, 50304, Note_on_c, 2, 57, 85
4, 50492, Note_on_c, 2, 57, 0
4, 50496, Note_on_c, 2, 57, 85
4, 50684, Note_on_c, 2, 57, 0
4, 50880, Note_on_c, 2, 43, 85
4, 51068, Note_on_c, 2, 43, 0
4, 51072, Note_on_c, 2, 55, 85
4, 51260, Note_on_c, 2, 55, 0
4, 51264, Note_on_c, 2, 55, 85
4, 51452, Note_on_c, 2, 55, 0
4, 51456, Note_on_c, 2, 54, 85
4, 51644, Note_on_c, 2, 54, 0
4, 51648, Note_on_c, 2, 54, 85
4, 51836, Note_on_c, 2, 54, 0
4, 51840, Note_on_c, 2, 55, 85
4, 52028, Note_on_c, 2, 55, 0
4, 52032, Note_on_c, 2, 55, 85
4, 52220, Note_on_c, 2, 55, 0
4, 52224, Note_on_c, 2, 57, 85
4, 52412, Note_on_c, 2, 57, 0
4, 52416, Note_on_c, 2, 57, 85
4, 52604, Note_on_c, 2, 57, 0
4, 52608, Note_on_c, 2, 45, 85
4, 52796, Note_on_c, 2, 45, 0
4, 52800, Note_on_c, 2, 45, 85
4, 52988, Note_on_c, 2, 45, 0
4, 52992, Note_on_c, 2, 50, 65
4, 53372, Note_on_c, 2, 50, 0
4, 53376, Note_on_c, 2, 57, 65
4, 53376, Note_on_c, 2, 54, 65
4, 53756, Note_on_c, 2, 54, 0
4, 53756, Note_on_c, 2, 57, 0
4, 53760, Note_on_c, 2, 57, 65
4, 54140, Note_on_c, 2, 57, 0
4, 54144, Note_on_c, 2, 57, 65
4, 54144, Note_on_c, 2, 50, 65
4, 54332, Note_on_c, 2, 50, 0
4, 54332, Note_on_c, 2, 57, 0
4, 54336, Note_on_c, 2, 50, 65
4, 54524, Note_on_c, 2, 50, 0
4, 54528, Note_on_c, 2, 50, 65
4, 54716, Note_on_c, 2, 50, 0
4, 54720, Note_on_c, 2, 50, 65
4, 54908, Note_on_c, 2, 50, 0
4, 54912, Note_on_c, 2, 50, 65
4, 55100, Note_on_c, 2, 50, 0
4, 55104, Note_on_c, 2, 50, 65
4, 55292, Note_on_c, 2, 50, 0
4, 55296, Note_on_c, 2, 38, 65
4, 55484, Note_on_c, 2, 38, 0
4, 55488, Note_on_c, 2, 50, 65
4, 55676, Note_on_c, 2, 50, 0
4, 55680, Note_on_c, 2, 50, 65
4, 55868, Note_on_c, 2, 50, 0
4, 55872, Note_on_c, 2, 50, 65
4, 56060, Note_on_c, 2, 50, 0
4, 56064, Note_on_c, 2, 50, 65
4, 56252, Note_on_c, 2, 50, 0
4, 56256, Note_on_c, 2, 50, 65
4, 56444, Note_on_c, 2, 50, 0
4, 56448, Note_on_c, 2, 60, 55
4, 56636, Note_on_c, 2, 60, 0
4, 56640, Note_on_c, 2, 60, 55
4, 56828, Note_on_c, 2, 60, 0
4, 56832, Note_on_c, 2, 60, 55
4, 57020, Note_on_c, 2, 60, 0
4, 57024, Note_on_c, 2, 60, 55
4, 57212, Note_on_c, 2, 60, 0
4, 57216, Note_on_c, 2, 60, 55
4, 57404, Note_on_c, 2, 60, 0
4, 57408, Note_on_c, 2, 60, 55
4, 57596, Note_on_c, 2, 60, 0
4, 57600, Note_on_c, 2, 59, 56
4, 57788, Note_on_c, 2, 59, 0
4, 57792, Note_on_c, 2, 59, 61
4, 57980, Note_on_c, 2, 59, 0
4, 57984, Note_on_c, 2, 59, 66
4, 58172, Note_on_c, 2, 59, 0
4, 58176, Note_on_c, 2, 59, 71
4, 58364, Note_on_c, 2, 59, 0
4, 58368, Note_on_c, 2, 59, 76
4, 58556, Note_on_c, 2, 59, 0
4, 58560, Note_on_c, 2, 59, 81
4, 58748, Note_on_c, 2, 59, 0
4, 73728, Note_on_c, 2, 43, 65
4, 73916, Note_on_c, 2, 43, 0
4, 73920, Note_on_c, 2, 43, 65
4, 74108, Note_on_c, 2, 43, 0
4, 74112, Note_on_c, 2, 43, 65
4, 74300, Note_on_c, 2, 43, 0
4, 74304, Note_on_c, 2, 43, 65
4, 74492, Note_on_c, 2, 43, 0
4, 74496, Note_on_c, 2, 43, 65
4, 74684, Note_on_c, 2, 43, 0
4, 74688, Note_on_c, 2, 43, 65
4, 74876, Note_on_c, 2, 43, 0
4, 74880, Note_on_c, 2, 43, 65
4, 75260, Note_on_c, 2, 43, 0
4, 75264, Note_on_c, 2, 50, 65
4, 75644, Note_on_c, 2, 50, 0
4, 75648, Note_on_c, 2, 47, 65
4, 76028, Note_on_c, 2, 47, 0
4, 76032, Note_on_c, 2, 43, 65
4, 76412, Note_on_c, 2, 43, 0
4, 77568, Note_on_c, 2, 57, 65
4, 77568, Note_on_c, 2, 54, 65
4, 77952, Note_on_c, 2, 54, 0
4, 77952, Note_on_c, 2, 57, 0
4, 77952, Note_on_c, 2, 55, 65
4, 77952, Note_on_c, 2, 62, 65
4, 78324, Note_on_c, 2, 62, 0
4, 78324, Note_on_c, 2, 55, 0
4, 78336, Note_on_c, 2, 48, 65
4, 78524, Note_on_c, 2, 48, 0
4, 78528, Note_on_c, 2, 60, 65
4, 78716, Note_on_c, 2, 60, 0
4, 78720, Note_on_c, 2, 60, 65
4, 78908, Note_on_c, 2, 60, 0
4, 78912, Note_on_c, 2, 60, 65
4, 79100, Note_on_c, 2, 60, 0
4, 79104, Note_on_c, 2, 60, 65
4, 79296, Note_on_c, 2, 60, 0
4, 79296, Note_on_c, 2, 59, 65
4, 79476, Note_on_c, 2, 59, 0
4, 79488, Note_on_c, 2, 45, 65
4, 79676, Note_on_c, 2, 45, 0
4, 79680, Note_on_c, 2, 57, 65
4, 79868, Note_on_c, 2, 57, 0
4, 79872, Note_on_c, 2, 57, 65
4, 80060, Note_on_c, 2, 57, 0
4, 80064, Note_on_c, 2, 57, 65
4, 80252, Note_on_c, 2, 57, 0
4, 80256, Note_on_c, 2, 57, 65
4, 80448, Note_on_c, 2, 57, 0
4, 80448, Note_on_c, 2, 55, 65
4, 80628, Note_on_c, 2, 55, 0
4, 80640, Note_on_c, 2, 54, 65
4, 81020, Note_on_c, 2, 54, 0
4, 81216, Note_on_c, 2, 50, 65
4, 81408, Note_on_c, 2, 50, 0
4, 81408, Note_on_c, 2, 55, 65
4, 81596, Note_on_c, 2, 55, 0
4, 81600, Note_on_c, 2, 48, 65
4, 81780, Note_on_c, 2, 48, 0
4, 81792, Note_on_c, 2, 50, 65
4, 81980, Note_on_c, 2, 50, 0
4, 81984, Note_on_c, 2, 50, 65
4, 82172, Note_on_c, 2, 50, 0
4, 82176, Note_on_c, 2, 50, 65
4, 82364, Note_on_c, 2, 50, 0
4, 82368, Note_on_c, 2, 50, 65
4, 82556, Note_on_c, 2, 50, 0
4, 82560, Note_on_c, 2, 48, 65
4, 82652, Note_on_c, 2, 48, 0
4, 82656, Note_on_c, 2, 50, 65
4, 82748, Note_on_c, 2, 50, 0
4, 82752, Note_on_c, 2, 45, 65
4, 82844, Note_on_c, 2, 45, 0
4, 82848, Note_on_c, 2, 42, 65
4, 82940, Note_on_c, 2, 42, 0
4, 82944, Note_on_c, 2, 38, 65
4, 83132, Note_on_c, 2, 38, 0
4, 95616, Note_on_c, 2, 62, 85
4, 95616, Note_on_c, 2, 55, 85
4, 95804, Note_on_c, 2, 55, 0
4, 95804, Note_on_c, 2, 62, 0
4, 95808, Note_on_c, 2, 62, 85
4, 95808, Note_on_c, 2, 55, 85
4, 95996, Note_on_c, 2, 55, 0
4, 95996, Note_on_c, 2, 62, 0
4, 96000, Note_on_c, 2, 62, 85
4, 96016, Note_on_c, 2, 55, 85
4, 96188, Note_on_c, 2, 62, 0
4, 96192, Note_on_c, 2, 62, 85
4, 96192, Note_on_c, 2, 55, 85
4, 96204, Note_on_c, 2, 55, 0
4, 96368, Note_on_c, 2, 57, 85
4, 96380, Note_on_c, 2, 62, 0
4, 96380, Note_on_c, 2, 55, 0
4, 96384, Note_on_c, 2, 62, 85
4, 96556, Note_on_c, 2, 57, 0
4, 96572, Note_on_c, 2, 62, 0
4, 96576, Note_on_c, 2, 62, 85
4, 96576, Note_on_c, 2, 57, 85
4, 96764, Note_on_c, 2, 57, 0
4, 96764, Note_on_c, 2, 62, 0
4, 96768, Note_on_c, 2, 62, 85
4, 96768, Note_on_c, 2, 57, 85
4, 96768, Note_on_c, 2, 54, 85
4, 96956, Note_on_c, 2, 54, 0
4, 96956, Note_on_c, 2, 57, 0
4, 96956, Note_on_c, 2, 62, 0
4, 96960, Note_on_c, 2, 62, 85
4, 96960, Note_on_c, 2, 57, 85
4, 96960, Note_on_c, 2, 54, 85
4, 97148, Note_on_c, 2, 54, 0
4, 97148, Note_on_c, 2, 57, 0
4, 97148, Note_on_c, 2, 62, 0
4, 97152, Note_on_c, 2, 62, 85
4, 97152, Note_on_c, 2, 57, 85
4, 97152, Note_on_c, 2, 50, 85
4, 97340, Note_on_c, 2, 50, 0
4, 97340, Note_on_c, 2, 57, 0
4, 97340, Note_on_c, 2, 62, 0
4, 97344, Note_on_c, 2, 62, 85
4, 97344, Note_on_c, 2, 57, 85
4, 97344, Note_on_c, 2, 50, 85
4, 97532, Note_on_c, 2, 50, 0
4, 97532, Note_on_c, 2, 57, 0
4, 97532, Note_on_c, 2, 62, 0
4, 97536, Note_on_c, 2, 62, 85
4, 97536, Note_on_c, 2, 59, 85
4, 97536, Note_on_c, 2, 55, 85
4, 97724, Note_on_c, 2, 55, 0
4, 97724, Note_on_c, 2, 59, 0
4, 97724, Note_on_c, 2, 62, 0
4, 97908, Control_c, 2, 1, 55
4, 97920, Note_on_c, 2, 59, 65
4, 97920, Note_on_c, 2, 55, 65
4, 98108, Note_on_c, 2, 55, 0
4, 98108, Note_on_c, 2, 59, 0
4, 98112, Note_on_c, 2, 59, 65
4, 98112, Note_on_c, 2, 55, 65
4, 98300, Note_on_c, 2, 55, 0
4, 98300, Note_on_c, 2, 59, 0
4, 98304, Note_on_c, 2, 59, 65
4, 98304, Note_on_c, 2, 55, 65
4, 98492, Note_on_c, 2, 55, 0
4, 98492, Note_on_c, 2, 59, 0
4, 98496, Note_on_c, 2, 59, 65
4, 98496, Note_on_c, 2, 55, 65
4, 98684, Note_on_c, 2, 55, 0
4, 98684, Note_on_c, 2, 59, 0
4, 98688, Note_on_c, 2, 60, 65
4, 98688, Note_on_c, 2, 57, 65
4, 98876, Note_on_c, 2, 57, 0
4, 98876, Note_on_c, 2, 60, 0
4, 98880, Note_on_c, 2, 60, 65
4, 98880, Note_on_c, 2, 57, 65
4, 99068, Note_on_c, 2, 57, 0
4, 99068, Note_on_c, 2, 60, 0
4, 99072, Note_on_c, 2, 57, 65
4, 99072, Note_on_c, 2, 54, 65
4, 99260, Note_on_c, 2, 54, 0
4, 99260, Note_on_c, 2, 57, 0
4, 99264, Note_on_c, 2, 57, 65
4, 99264, Note_on_c, 2, 54, 65
4, 99452, Note_on_c, 2, 54, 0
4, 99452, Note_on_c, 2, 57, 0
4, 99456, Note_on_c, 2, 54, 65
4, 99456, Note_on_c, 2, 50, 65
4, 99644, Note_on_c, 2, 50, 0
4, 99644, Note_on_c, 2, 54, 0
4, 99648, Note_on_c, 2, 54, 65
4, 99648, Note_on_c, 2, 50, 65
4, 99836, Note_on_c, 2, 50, 0
4, 99836, Note_on_c, 2, 54, 0
4, 99840, Note_on_c, 2, 55, 65
4, 100028, Note_on_c, 2, 55, 0
4, 100032, Note_on_c, 2, 59, 65
4, 100032, Note_on_c, 2, 55, 65
4, 100220, Note_on_c, 2, 55, 0
4, 100220, Note_on_c, 2, 59, 0
4, 100224, Note_on_c, 2, 47, 65
4, 100416, Note_on_c, 2, 47, 0
4, 100416, Note_on_c, 2, 48, 65
4, 100496, Note_on_c, 2, 48, 0
4, 100608, Note_on_c, 2, 47, 66
4, 100800, Note_on_c, 2, 47, 0
4, 100800, Note_on_c, 2, 48, 69
4, 100880, Note_on_c, 2, 48, 0
4, 100992, Note_on_c, 2, 47, 73
4, 101184, Note_on_c, 2, 47, 0
4, 101184, Note_on_c, 2, 48, 77
4, 101264, Note_on_c, 2, 48, 0
4, 101376, Note_on_c, 2, 47, 80
4, 101760, Note_on_c, 2, 47, 0
4, 101760, Note_on_c, 2, 48, 75
4, 101940, Note_on_c, 2, 48, 0
4, 102528, Note_on_c, 2, 60, 75
4, 102716, Note_on_c, 2, 60, 0
4, 102720, Note_on_c, 2, 60, 75
4, 102908, Note_on_c, 2, 60, 0
4, 102912, Note_on_c, 2, 60, 75
4, 103100, Note_on_c, 2, 60, 0
4, 103104, Note_on_c, 2, 60, 75
4, 103292, Note_on_c, 2, 60, 0
4, 103296, Note_on_c, 2, 59, 75
4, 103484, Note_on_c, 2, 59, 0
4, 103488, Note_on_c, 2, 59, 75
4, 103676, Note_on_c, 2, 59, 0
4, 103680, Note_on_c, 2, 57, 75
4, 103868, Note_on_c, 2, 57, 0
4, 103872, Note_on_c, 2, 57, 75
4, 103872, Note_on_c, 2, 64, 75
4, 104064, Note_on_c, 2, 64, 0
4, 104064, Note_on_c, 2, 57, 0
4, 104064, Note_on_c, 2, 62, 75
4, 104064, Note_on_c, 2, 54, 75
4, 104244, Note_on_c, 2, 54, 0
4, 104244, Note_on_c, 2, 62, 0
4, 104256, Note_on_c, 2, 62, 75
4, 104256, Note_on_c, 2, 54, 75
4, 104444, Note_on_c, 2, 54, 0
4, 104444, Note_on_c, 2, 62, 0
4, 104448, Note_on_c, 2, 62, 75
4, 104448, Note_on_c, 2, 55, 75
4, 104636, Note_on_c, 2, 55, 0
4, 104636, Note_on_c, 2, 62, 0
4, 104640, Note_on_c, 2, 62, 75
4, 104640, Note_on_c, 2, 55, 75
4, 104828, Note_on_c, 2, 55, 0
4, 104828, Note_on_c, 2, 62, 0
4, 104832, Note_on_c, 2, 48, 75
4, 105020, Note_on_c, 2, 48, 0
4, 105024, Note_on_c, 2, 52, 75
4, 105024, Note_on_c, 2, 48, 75
4, 105212, Note_on_c, 2, 48, 0
4, 105212, Note_on_c, 2, 52, 0
4, 105216, Note_on_c, 2, 50, 75
4, 105404, Note_on_c, 2, 50, 0
4, 105408, Note_on_c, 2, 50, 75
4, 105408, Note_on_c, 2, 50, 75
4, 105596, Note_on_c, 2, 50, 0
4, 105596, Note_on_c, 2, 50, 0
4, 105600, Note_on_c, 2, 57, 75
4, 105600, Note_on_c, 2, 51, 75
4, 105788, Note_on_c, 2, 51, 0
4, 105788, Note_on_c, 2, 57, 0
4, 105792, Note_on_c, 2, 57, 75
4, 105792, Note_on_c, 2, 51, 75
4, 105980, Note_on_c, 2, 51, 0
4, 105980, Note_on_c, 2, 57, 0
4, 105984, Note_on_c, 2, 57, 75
4, 105984, Note_on_c, 2, 51, 75
4, 106272, Note_on_c, 2, 51, 0
4, 106272, Note_on_c, 2, 57, 0
4, 106272, Note_on_c, 2, 55, 80
4, 106272, Note_on_c, 2, 52, 80
4, 106352, Note_on_c, 2, 52, 0
4, 106352, Note_on_c, 2, 55, 0
4, 106368, Note_on_c, 2, 55, 75
4, 106368, Note_on_c, 2, 52, 75
4, 106752, Note_on_c, 2, 52, 0
4, 106752, Note_on_c, 2, 55, 0
4, 111744, Note_on_c, 2, 60, 80
4, 111744, Note_on_c, 2, 48, 80
4, 112124, Note_on_c, 2, 48, 0
4, 112124, Note_on_c, 2, 60, 0
4, 112896, Note_on_c, 2, 61, 70
4, 112896, Note_on_c, 2, 49, 70
4, 113276, Note_on_c, 2, 49, 0
4, 113276, Note_on_c, 2, 61, 0
4, 114048, Note_on_c, 2, 62, 75
4, 114048, Note_on_c, 2, 50, 75
4, 114236, Note_on_c, 2, 50, 0
4, 114236, Note_on_c, 2, 62, 0
4, 114240, Note_on_c, 2, 62, 75
4, 114240, Note_on_c, 2, 50, 75
4, 114428, Note_on_c, 2, 50, 0
4, 114428, Note_on_c, 2, 62, 0
4, 114432, Note_on_c, 2, 62, 75
4, 114432, Note_on_c, 2, 50, 75
4, 114620, Note_on_c, 2, 50, 0
4, 114620, Note_on_c, 2, 62, 0
4, 114624, Note_on_c, 2, 62, 75
4, 114624, Note_on_c, 2, 50, 75
4, 114812, Note_on_c, 2, 50, 0
4, 114812, Note_on_c, 2, 62, 0
4, 114816, Note_on_c, 2, 62, 75
4, 114816, Note_on_c, 2, 50, 75
4, 115004, Note_on_c, 2, 50, 0
4, 115004, Note_on_c, 2, 62, 0
4, 115008, Note_on_c, 2, 62, 75
4, 115008, Note_on_c, 2, 50, 75
4, 115196, Note_on_c, 2, 50, 0
4, 115196, Note_on_c, 2, 62, 0
4, 115200, Note_on_c, 2, 62, 76
4, 115200, Note_on_c, 2, 50, 76
4, 115388, Note_on_c, 2, 50, 0
4, 115388, Note_on_c, 2, 62, 0
4, 115392, Note_on_c, 2, 50, 77
4, 115392, Note_on_c, 2, 62, 77
4, 115580, Note_on_c, 2, 62, 0
4, 115580, Note_on_c, 2, 50, 0
4, 115584, Note_on_c, 2, 62, 79
4, 115584, Note_on_c, 2, 50, 79
4, 115772, Note_on_c, 2, 50, 0
4, 115772, Note_on_c, 2, 62, 0
4, 115776, Note_on_c, 2, 50, 81
4, 115776, Note_on_c, 2, 62, 81
4, 115964, Note_on_c, 2, 62, 0
4, 115964, Note_on_c, 2, 50, 0
4, 115968, Note_on_c, 2, 62, 82
4, 115968, Note_on_c, 2, 50, 82
4, 116156, Note_on_c, 2, 50, 0
4, 116156, Note_on_c, 2, 62, 0
4, 116160, Note_on_c, 2, 50, 84
4, 116160, Note_on_c, 2, 62, 84
4, 116348, Note_on_c, 2, 62, 0
4, 116348, Note_on_c, 2, 50, 0
4, 116352, Note_on_c, 2, 62, 85
4, 116352, Note_on_c, 2, 55, 85
4, 116540, Note_on_c, 2, 55, 0
4, 116540, Note_on_c, 2, 62, 0
4, 116544, Note_on_c, 2, 55, 85
4, 116544, Note_on_c, 2, 43, 85
4, 116720, Note_on_c, 2, 55, 85
4, 116732, Note_on_c, 2, 55, 0
4, 116732, Note_on_c, 2, 43, 0
4, 116736, Note_on_c, 2, 43, 85
4, 116924, Note_on_c, 2, 43, 0
4, 116928, Note_on_c, 2, 55, 85
4, 116928, Note_on_c, 2, 43, 85
4, 117100, Note_on_c, 2, 55, 0
4, 117116, Note_on_c, 2, 43, 0
4, 117116, Note_on_c, 2, 55, 0
4, 117120, Note_on_c, 2, 59, 85
4, 117120, Note_on_c, 2, 47, 85
4, 117296, Note_on_c, 2, 47, 85
4, 117308, Note_on_c, 2, 47, 0
4, 117308, Note_on_c, 2, 59, 0
4, 117312, Note_on_c, 2, 59, 85
4, 117484, Note_on_c, 2, 47, 0
4, 117500, Note_on_c, 2, 59, 0
4, 117504, Note_on_c, 2, 60, 85
4, 117504, Note_on_c, 2, 48, 85
4, 117692, Note_on_c, 2, 48, 0
4, 117692, Note_on_c, 2, 60, 0
4, 117696, Note_on_c, 2, 48, 85
4, 117696, Note_on_c, 2, 36, 85
4, 117884, Note_on_c, 2, 36, 0
4, 117884, Note_on_c, 2, 48, 0
4, 117888, Note_on_c, 2, 60, 85
4, 117888, Note_on_c, 2, 48, 85
4, 118076, Note_on_c, 2, 48, 0
4, 118076, Note_on_c, 2, 60, 0
4, 118080, Note_on_c, 2, 60, 85
4, 118080, Note_on_c, 2, 48, 85
4, 118268, Note_on_c, 2, 48, 0
4, 118268, Note_on_c, 2, 60, 0
4, 118272, Note_on_c, 2, 60, 85
4, 118272, Note_on_c, 2, 48, 85
4, 118460, Note_on_c, 2, 48, 0
4, 118460, Note_on_c, 2, 60, 0
4, 118464, Note_on_c, 2, 60, 85
4, 118464, Note_on_c, 2, 48, 85
4, 118652, Note_on_c, 2, 48, 0
4, 118652, Note_on_c, 2, 60, 0
4, 118656, Note_on_c, 2, 60, 85
4, 118656, Note_on_c, 2, 48, 85
4, 118848, Note_on_c, 2, 48, 0
4, 118848, Note_on_c, 2, 60, 0
4, 118848, Note_on_c, 2, 59, 85
4, 118848, Note_on_c, 2, 47, 85
4, 119028, Note_on_c, 2, 47, 0
4, 119028, Note_on_c, 2, 59, 0
4, 119040, Note_on_c, 2, 64, 85
4, 119040, Note_on_c, 2, 52, 85
4, 119228, Note_on_c, 2, 52, 0
4, 119228, Note_on_c, 2, 64, 0
4, 119232, Note_on_c, 2, 52, 85
4, 119232, Note_on_c, 2, 40, 85
4, 119420, Note_on_c, 2, 40, 0
4, 119420, Note_on_c, 2, 52, 0
4, 119424, Note_on_c, 2, 52, 85
4, 119424, Note_on_c, 2, 40, 85
4, 119612, Note_on_c, 2, 40, 0
4, 119612, Note_on_c, 2, 52, 0
4, 119616, Note_on_c, 2, 49, 85
4, 119616, Note_on_c, 2, 37, 85
4, 119804, Note_on_c, 2, 37, 0
4, 119804, Note_on_c, 2, 49, 0
4, 119808, Note_on_c, 2, 50, 85
4, 119808, Note_on_c, 2, 38, 85
4, 120764, Note_on_c, 2, 38, 0
4, 120764, Note_on_c, 2, 50, 0
4, 142848, Note_on_c, 2, 55, 85
4, 143036, Note_on_c, 2, 55, 0
4, 143040, Note_on_c, 2, 52, 85
4, 143228, Note_on_c, 2, 52, 0
4, 143232, Note_on_c, 2, 64, 85
4, 143420, Note_on_c, 2, 64, 0
4, 143424, Note_on_c, 2, 64, 85
4, 143612, Note_on_c, 2, 64, 0
4, 143616, Note_on_c, 2, 62, 85
4, 143804, Note_on_c, 2, 62, 0
4, 143808, Note_on_c, 2, 62, 85
4, 143996, Note_on_c, 2, 62, 0
4, 144192, Note_on_c, 2, 60, 85
4, 144380, Note_on_c, 2, 60, 0
4, 144384, Note_on_c, 2, 48, 85
4, 144572, Note_on_c, 2, 48, 0
4, 144576, Note_on_c, 2, 48, 85
4, 144764, Note_on_c, 2, 48, 0
4, 144768, Note_on_c, 2, 47, 85
4, 144956, Note_on_c, 2, 47, 0
4, 144960, Note_on_c, 2, 47, 85
4, 145148, Note_on_c, 2, 47, 0
4, 145152, Note_on_c, 2, 48, 85
4, 145340, Note_on_c, 2, 48, 0
4, 145344, Note_on_c, 2, 48, 85
4, 145532, Note_on_c, 2, 48, 0
4, 145536, Note_on_c, 2, 50, 85
4, 145724, Note_on_c, 2, 50, 0
4, 145728, Note_on_c, 2, 50, 85
4, 145916, Note_on_c, 2, 50, 0
4, 145920, Note_on_c, 2, 50, 85
4, 145920, Note_on_c, 2, 38, 85
4, 146108, Note_on_c, 2, 38, 0
4, 146108, Note_on_c, 2, 50, 0
4, 146112, Note_on_c, 2, 50, 85
4, 146112, Note_on_c, 2, 38, 85
4, 146300, Note_on_c, 2, 38, 0
4, 146300, Note_on_c, 2, 50, 0
4, 146304, Note_on_c, 2, 50, 85
4, 146304, Note_on_c, 2, 43, 85
4, 146684, Note_on_c, 2, 43, 0
4, 146684, Note_on_c, 2, 50, 0
4, 146688, Note_on_c, 2, 50, 85
4, 146688, Note_on_c, 2, 47, 85
4, 147072, Note_on_c, 2, 47, 0
4, 147072, Note_on_c, 2, 50, 0
4, 147072, Note_on_c, 2, 54, 85
4, 147072, Note_on_c, 2, 50, 85
4, 147444, Note_on_c, 2, 50, 0
4, 147444, Note_on_c, 2, 54, 0
4, 147456, Note_on_c, 2, 54, 85
4, 147456, Note_on_c, 2, 50, 85
4, 147456, Note_on_c, 2, 43, 85
4, 148224, Note_on_c, 2, 43, 0
4, 148224, Note_on_c, 2, 50, 0
4, 148224, Note_on_c, 2, 54, 0
4, 148224, Note_on_c, 2, 55, 85
4, 148224, Note_on_c, 2, 50, 85
4, 148224, Note_on_c, 2, 43, 85
4, 148404, Note_on_c, 2, 43, 0
4, 148404, Note_on_c, 2, 50, 0
4, 148404, Note_on_c, 2, 55, 0
4, 148404, End_track
5, 0, Start_track
5, 0, MIDI_port, 0
5, 0, Title_t, "Midi by:"
5, 0, End_track
6, 0, Start_track
6, 0, MIDI_port, 0
6, 0, Title_t, "B.Fisher"
6, 0, End_track
0, 0, End_of_file
