0, 0, Header, 1, 5, 480
1, 0, Start_track
1, 0, Time_signature, 3, 2, 24, 8
1, 0, Key_signature, 1, "major"
1, 0, Tempo, 1427891
1, 0, Marker_t, "Mozart Quartet #"
1, 96480, Time_signature, 4, 2, 24, 8
1, 96480, Tempo, 386897
1, 324960, Time_signature, 3, 2, 24, 8
1, 324960, Tempo, 468530
1, 405600, Key_signature, 0, "major"
1, 516480, Time_signature, 2, 2, 24, 8
1, 517440, Time_signature, 4, 2, 24, 8
1, 517440, Key_signature, 1, "major"
1, 638400, Time_signature, 2, 2, 24, 8
1, 640320, Time_signature, 4, 2, 24, 8
1, 757440, Time_signature, 2, 2, 24, 8
1, 760320, Time_signature, 4, 2, 24, 8
1, 760320, End_track
2, 0, Start_track
2, 0, MIDI_port, 0
2, 0, Title_t, "Violino I"
2, 0, Program_c, 0, 40
2, 0, Control_c, 0, 7, 95
2, 0, Control_c, 0, 10, 34
2, 0, Note_on_c, 0, 74, 36
2, 0, Text_t, "Mozart First Quartett Series 14 No. 1\015K. Version No. 80\015Composed around 15 March 1770\015\015Transcribed by James Perdue using\015ConcertWare Midi and lots of time!"
2, 48, Control_c, 0, 7, 64
2, 96, Control_c, 0, 7, 78
2, 480, Note_on_c, 0, 74, 0
2, 480, Note_on_c, 0, 74, 36
2, 1200, Note_on_c, 0, 74, 0
2, 1200, Note_on_c, 0, 79, 36
2, 1440, Note_on_c, 0, 79, 0
2, 1440, Note_on_c, 0, 81, 36
2, 1460, Note_on_c, 0, 81, 0
2, 1460, Note_on_c, 0, 79, 36
2, 1500, Note_on_c, 0, 79, 0
2, 1500, Note_on_c, 0, 81, 36
2, 1520, Note_on_c, 0, 81, 0
2, 1520, Note_on_c, 0, 79, 36
2, 1560, Note_on_c, 0, 79, 0
2, 1560, Note_on_c, 0, 81, 36
2, 1580, Note_on_c, 0, 81, 0
2, 1580, Note_on_c, 0, 79, 36
2, 1620, Note_on_c, 0, 79, 0
2, 1620, Note_on_c, 0, 81, 36
2, 1640, Note_on_c, 0, 81, 0
2, 1640, Note_on_c, 0, 79, 36
2, 1680, Note_on_c, 0, 79, 0
2, 1680, Note_on_c, 0, 81, 36
2, 1700, Note_on_c, 0, 81, 0
2, 1700, Note_on_c, 0, 79, 36
2, 1740, Note_on_c, 0, 79, 0
2, 1740, Note_on_c, 0, 81, 36
2, 1760, Note_on_c, 0, 81, 0
2, 1760, Note_on_c, 0, 79, 36
2, 1800, Note_on_c, 0, 79, 0
2, 1800, Note_on_c, 0, 81, 36
2, 1840, Note_on_c, 0, 81, 0
2, 1840, Note_on_c, 0, 79, 36
2, 1920, Note_on_c, 0, 79, 0
2, 1920, Note_on_c, 0, 78, 36
2, 2640, Note_on_c, 0, 78, 0
2, 2640, Note_on_c, 0, 79, 36
2, 2880, Note_on_c, 0, 79, 0
2, 2880, Note_on_c, 0, 81, 36
2, 3120, Note_on_c, 0, 81, 0
2, 3120, Note_on_c, 0, 78, 36
2, 3360, Note_on_c, 0, 78, 0
2, 3360, Note_on_c, 0, 74, 36
2, 4080, Note_on_c, 0, 74, 0
2, 4080, Note_on_c, 0, 72, 36
2, 4320, Note_on_c, 0, 72, 0
2, 4320, Note_on_c, 0, 74, 36
2, 4560, Note_on_c, 0, 74, 0
2, 4560, Note_on_c, 0, 72, 36
2, 4800, Note_on_c, 0, 72, 0
2, 4800, Note_on_c, 0, 71, 36
2, 5280, Note_on_c, 0, 71, 0
2, 5760, Note_on_c, 0, 84, 36
2, 6000, Note_on_c, 0, 84, 0
2, 6000, Note_on_c, 0, 72, 36
2, 6480, Note_on_c, 0, 72, 0
2, 6480, Note_on_c, 0, 76, 36
2, 6600, Note_on_c, 0, 76, 0
2, 6600, Note_on_c, 0, 74, 36
2, 6720, Note_on_c, 0, 74, 0
2, 6720, Note_on_c, 0, 78, 36
2, 6840, Note_on_c, 0, 78, 0
2, 6840, Note_on_c, 0, 76, 36
2, 6960, Note_on_c, 0, 76, 0
2, 6960, Note_on_c, 0, 74, 36
2, 7080, Note_on_c, 0, 74, 0
2, 7080, Note_on_c, 0, 72, 36
2, 7200, Note_on_c, 0, 72, 0
2, 7200, Note_on_c, 0, 71, 36
2, 7320, Note_on_c, 0, 71, 0
2, 7320, Note_on_c, 0, 74, 36
2, 7440, Note_on_c, 0, 74, 0
2, 7440, Note_on_c, 0, 76, 36
2, 7560, Note_on_c, 0, 76, 0
2, 7560, Note_on_c, 0, 78, 36
2, 7680, Note_on_c, 0, 78, 0
2, 7680, Note_on_c, 0, 79, 36
2, 7800, Note_on_c, 0, 79, 0
2, 7800, Note_on_c, 0, 81, 36
2, 7920, Note_on_c, 0, 81, 0
2, 7920, Note_on_c, 0, 83, 36
2, 8040, Note_on_c, 0, 83, 0
2, 8040, Note_on_c, 0, 84, 36
2, 8160, Note_on_c, 0, 84, 0
2, 8160, Note_on_c, 0, 86, 36
2, 8640, Note_on_c, 0, 86, 0
2, 8640, Note_on_c, 0, 86, 36
2, 8880, Note_on_c, 0, 86, 0
2, 8880, Note_on_c, 0, 88, 36
2, 9000, Note_on_c, 0, 88, 0
2, 9000, Note_on_c, 0, 86, 36
2, 9120, Note_on_c, 0, 86, 0
2, 9120, Note_on_c, 0, 84, 36
2, 9600, Note_on_c, 0, 84, 0
2, 9600, Note_on_c, 0, 83, 36
2, 10080, Note_on_c, 0, 83, 0
2, 10080, Note_on_c, 0, 84, 36
2, 10100, Note_on_c, 0, 84, 0
2, 10100, Note_on_c, 0, 83, 36
2, 10140, Note_on_c, 0, 83, 0
2, 10140, Note_on_c, 0, 84, 36
2, 10160, Note_on_c, 0, 84, 0
2, 10160, Note_on_c, 0, 83, 36
2, 10200, Note_on_c, 0, 83, 0
2, 10200, Note_on_c, 0, 84, 36
2, 10220, Note_on_c, 0, 84, 0
2, 10220, Note_on_c, 0, 83, 36
2, 10260, Note_on_c, 0, 83, 0
2, 10260, Note_on_c, 0, 84, 36
2, 10280, Note_on_c, 0, 84, 0
2, 10280, Note_on_c, 0, 83, 36
2, 10320, Note_on_c, 0, 83, 0
2, 10320, Note_on_c, 0, 84, 36
2, 10340, Note_on_c, 0, 84, 0
2, 10340, Note_on_c, 0, 83, 36
2, 10380, Note_on_c, 0, 83, 0
2, 10380, Note_on_c, 0, 84, 36
2, 10400, Note_on_c, 0, 84, 0
2, 10400, Note_on_c, 0, 83, 36
2, 10440, Note_on_c, 0, 83, 0
2, 10440, Note_on_c, 0, 84, 36
2, 10460, Note_on_c, 0, 84, 0
2, 10460, Note_on_c, 0, 83, 36
2, 10500, Note_on_c, 0, 83, 0
2, 10500, Note_on_c, 0, 84, 36
2, 10520, Note_on_c, 0, 84, 0
2, 10520, Note_on_c, 0, 83, 36
2, 10560, Note_on_c, 0, 83, 0
2, 10560, Note_on_c, 0, 81, 36
2, 11040, Note_on_c, 0, 81, 0
2, 11520, Note_on_c, 0, 81, 36
2, 12240, Note_on_c, 0, 81, 0
2, 12240, Note_on_c, 0, 83, 36
2, 12360, Note_on_c, 0, 83, 0
2, 12360, Note_on_c, 0, 81, 36
2, 12480, Note_on_c, 0, 81, 0
2, 12480, Note_on_c, 0, 86, 36
2, 12600, Note_on_c, 0, 86, 0
2, 12600, Note_on_c, 0, 85, 36
2, 12720, Note_on_c, 0, 85, 0
2, 12720, Note_on_c, 0, 83, 36
2, 12840, Note_on_c, 0, 83, 0
2, 12840, Note_on_c, 0, 81, 36
2, 12960, Note_on_c, 0, 81, 0
2, 12960, Note_on_c, 0, 81, 36
2, 13320, Note_on_c, 0, 81, 0
2, 13320, Note_on_c, 0, 83, 36
2, 13440, Note_on_c, 0, 83, 0
2, 13440, Note_on_c, 0, 81, 36
2, 13680, Note_on_c, 0, 81, 0
2, 13680, Note_on_c, 0, 81, 36
2, 13920, Note_on_c, 0, 81, 0
2, 13920, Note_on_c, 0, 81, 36
2, 14160, Note_on_c, 0, 81, 0
2, 14160, Note_on_c, 0, 81, 36
2, 14400, Note_on_c, 0, 81, 0
2, 14400, Note_on_c, 0, 81, 36
2, 14520, Note_on_c, 0, 81, 0
2, 14520, Note_on_c, 0, 78, 36
2, 14640, Note_on_c, 0, 78, 0
2, 14640, Note_on_c, 0, 79, 36
2, 14880, Note_on_c, 0, 79, 0
2, 15120, Note_on_c, 0, 79, 36
2, 15360, Note_on_c, 0, 79, 0
2, 15360, Note_on_c, 0, 79, 36
2, 15600, Note_on_c, 0, 79, 0
2, 15600, Note_on_c, 0, 79, 36
2, 15840, Note_on_c, 0, 79, 0
2, 15840, Note_on_c, 0, 79, 36
2, 15960, Note_on_c, 0, 79, 0
2, 15960, Note_on_c, 0, 76, 36
2, 16080, Note_on_c, 0, 76, 0
2, 16080, Note_on_c, 0, 78, 36
2, 16160, Control_c, 0, 7, 78
2, 16320, Note_on_c, 0, 78, 0
2, 16560, Note_on_c, 0, 78, 36
2, 16800, Note_on_c, 0, 78, 0
2, 16800, Note_on_c, 0, 78, 36
2, 17040, Note_on_c, 0, 78, 0
2, 17040, Note_on_c, 0, 78, 36
2, 17280, Note_on_c, 0, 78, 0
2, 17280, Note_on_c, 0, 76, 36
2, 17760, Note_on_c, 0, 76, 0
2, 20160, Note_on_c, 0, 78, 36
2, 20280, Note_on_c, 0, 78, 0
2, 20280, Note_on_c, 0, 76, 36
2, 20400, Note_on_c, 0, 76, 0
2, 20400, Note_on_c, 0, 78, 36
2, 20520, Note_on_c, 0, 78, 0
2, 20520, Note_on_c, 0, 79, 36
2, 20640, Note_on_c, 0, 79, 0
2, 20640, Note_on_c, 0, 81, 36
2, 20880, Note_on_c, 0, 81, 0
2, 20880, Note_on_c, 0, 74, 36
2, 21120, Note_on_c, 0, 74, 0
2, 21120, Note_on_c, 0, 74, 36
2, 21360, Note_on_c, 0, 74, 0
2, 21360, Note_on_c, 0, 74, 36
2, 21600, Note_on_c, 0, 74, 0
2, 21600, Note_on_c, 0, 79, 36
2, 21720, Note_on_c, 0, 79, 0
2, 21720, Note_on_c, 0, 76, 36
2, 21840, Note_on_c, 0, 76, 0
2, 21840, Note_on_c, 0, 78, 36
2, 21960, Note_on_c, 0, 78, 0
2, 21960, Note_on_c, 0, 74, 36
2, 22080, Note_on_c, 0, 74, 0
2, 22080, Note_on_c, 0, 73, 36
2, 22320, Note_on_c, 0, 73, 0
2, 22320, Note_on_c, 0, 76, 36
2, 22440, Note_on_c, 0, 76, 0
2, 22440, Note_on_c, 0, 73, 36
2, 22560, Note_on_c, 0, 73, 0
2, 22560, Note_on_c, 0, 69, 36
2, 23040, Note_on_c, 0, 69, 0
2, 23040, Note_on_c, 0, 81, 36
2, 24480, Note_on_c, 0, 81, 0
2, 24480, Note_on_c, 0, 81, 36
2, 25920, Note_on_c, 0, 81, 0
2, 26040, Note_on_c, 0, 74, 36
2, 26280, Note_on_c, 0, 74, 0
2, 26280, Note_on_c, 0, 78, 36
2, 26520, Note_on_c, 0, 78, 0
2, 26520, Note_on_c, 0, 81, 36
2, 26760, Note_on_c, 0, 81, 0
2, 26760, Note_on_c, 0, 86, 36
2, 27000, Note_on_c, 0, 86, 0
2, 27000, Note_on_c, 0, 84, 36
2, 27240, Note_on_c, 0, 84, 0
2, 27240, Note_on_c, 0, 81, 36
2, 27360, Note_on_c, 0, 81, 0
2, 27360, Note_on_c, 0, 83, 36
2, 27440, Note_on_c, 0, 83, 0
2, 27440, Note_on_c, 0, 86, 36
2, 27520, Note_on_c, 0, 86, 0
2, 27520, Note_on_c, 0, 83, 36
2, 27600, Note_on_c, 0, 83, 0
2, 27600, Note_on_c, 0, 79, 36
2, 27680, Note_on_c, 0, 79, 0
2, 27680, Note_on_c, 0, 74, 36
2, 27760, Note_on_c, 0, 74, 0
2, 27760, Note_on_c, 0, 71, 36
2, 27840, Note_on_c, 0, 71, 0
2, 27840, Note_on_c, 0, 67, 36
2, 27920, Note_on_c, 0, 67, 0
2, 27920, Note_on_c, 0, 74, 36
2, 28000, Note_on_c, 0, 74, 0
2, 28000, Note_on_c, 0, 71, 36
2, 28080, Note_on_c, 0, 71, 0
2, 28080, Note_on_c, 0, 67, 36
2, 28160, Note_on_c, 0, 67, 0
2, 28160, Note_on_c, 0, 62, 36
2, 28240, Note_on_c, 0, 62, 0
2, 28240, Note_on_c, 0, 59, 36
2, 28320, Note_on_c, 0, 59, 0
2, 28320, Note_on_c, 0, 55, 36
2, 28560, Note_on_c, 0, 55, 0
2, 28560, Note_on_c, 0, 83, 36
2, 28680, Note_on_c, 0, 83, 0
2, 28680, Note_on_c, 0, 79, 36
2, 28800, Note_on_c, 0, 79, 0
2, 28800, Note_on_c, 0, 78, 36
2, 28840, Note_on_c, 0, 78, 0
2, 28840, Note_on_c, 0, 81, 36
2, 28880, Note_on_c, 0, 81, 0
2, 28880, Note_on_c, 0, 79, 36
2, 28920, Note_on_c, 0, 79, 0
2, 28920, Note_on_c, 0, 78, 36
2, 28960, Note_on_c, 0, 78, 0
2, 28960, Note_on_c, 0, 79, 36
2, 29000, Note_on_c, 0, 79, 0
2, 29000, Note_on_c, 0, 81, 36
2, 29040, Note_on_c, 0, 81, 0
2, 29040, Note_on_c, 0, 83, 36
2, 29080, Note_on_c, 0, 83, 0
2, 29080, Note_on_c, 0, 85, 36
2, 29120, Note_on_c, 0, 85, 0
2, 29120, Note_on_c, 0, 86, 36
2, 29160, Note_on_c, 0, 86, 0
2, 29160, Note_on_c, 0, 85, 36
2, 29200, Note_on_c, 0, 85, 0
2, 29200, Note_on_c, 0, 86, 36
2, 29240, Note_on_c, 0, 86, 0
2, 29240, Note_on_c, 0, 85, 36
2, 29280, Note_on_c, 0, 85, 0
2, 29280, Note_on_c, 0, 86, 36
2, 29320, Note_on_c, 0, 86, 0
2, 29320, Note_on_c, 0, 81, 36
2, 29360, Note_on_c, 0, 81, 0
2, 29360, Note_on_c, 0, 78, 36
2, 29400, Note_on_c, 0, 78, 0
2, 29400, Note_on_c, 0, 74, 36
2, 29440, Note_on_c, 0, 74, 0
2, 29440, Note_on_c, 0, 78, 36
2, 29460, Note_on_c, 0, 78, 0
2, 29460, Note_on_c, 0, 76, 36
2, 29500, Note_on_c, 0, 76, 0
2, 29500, Note_on_c, 0, 78, 36
2, 29520, Note_on_c, 0, 78, 0
2, 29520, Note_on_c, 0, 76, 36
2, 29560, Note_on_c, 0, 76, 0
2, 29560, Note_on_c, 0, 78, 36
2, 29580, Note_on_c, 0, 78, 0
2, 29580, Note_on_c, 0, 76, 36
2, 29620, Note_on_c, 0, 76, 0
2, 29620, Note_on_c, 0, 78, 36
2, 29640, Note_on_c, 0, 78, 0
2, 29640, Note_on_c, 0, 76, 36
2, 29680, Note_on_c, 0, 76, 0
2, 29680, Note_on_c, 0, 78, 36
2, 29700, Note_on_c, 0, 78, 0
2, 29700, Note_on_c, 0, 76, 36
2, 29740, Note_on_c, 0, 76, 0
2, 29740, Note_on_c, 0, 78, 36
2, 29760, Note_on_c, 0, 78, 0
2, 29760, Note_on_c, 0, 76, 36
2, 29800, Note_on_c, 0, 76, 0
2, 29800, Note_on_c, 0, 78, 36
2, 29820, Note_on_c, 0, 78, 0
2, 29820, Note_on_c, 0, 76, 36
2, 29860, Note_on_c, 0, 76, 0
2, 29860, Note_on_c, 0, 78, 36
2, 29880, Note_on_c, 0, 78, 0
2, 29880, Note_on_c, 0, 76, 36
2, 29920, Note_on_c, 0, 76, 0
2, 29920, Note_on_c, 0, 78, 36
2, 29940, Note_on_c, 0, 78, 0
2, 29940, Note_on_c, 0, 76, 36
2, 29980, Note_on_c, 0, 76, 0
2, 29980, Note_on_c, 0, 78, 36
2, 30000, Note_on_c, 0, 78, 0
2, 30000, Note_on_c, 0, 76, 36
2, 30040, Note_on_c, 0, 76, 0
2, 30040, Note_on_c, 0, 78, 36
2, 30060, Note_on_c, 0, 78, 0
2, 30060, Note_on_c, 0, 76, 36
2, 30100, Note_on_c, 0, 76, 0
2, 30100, Note_on_c, 0, 78, 36
2, 30120, Note_on_c, 0, 78, 0
2, 30120, Note_on_c, 0, 76, 36
2, 30160, Note_on_c, 0, 76, 0
2, 30160, Note_on_c, 0, 74, 36
2, 30200, Note_on_c, 0, 74, 0
2, 30200, Note_on_c, 0, 76, 36
2, 30240, Note_on_c, 0, 76, 0
2, 30240, Note_on_c, 0, 74, 36
2, 30480, Note_on_c, 0, 74, 0
2, 30480, Note_on_c, 0, 76, 36
2, 30520, Note_on_c, 0, 76, 0
2, 30520, Note_on_c, 0, 78, 36
2, 30560, Note_on_c, 0, 78, 0
2, 30560, Note_on_c, 0, 79, 36
2, 30600, Note_on_c, 0, 79, 0
2, 30600, Note_on_c, 0, 81, 36
2, 30640, Note_on_c, 0, 81, 0
2, 30640, Note_on_c, 0, 83, 36
2, 30680, Note_on_c, 0, 83, 0
2, 30680, Note_on_c, 0, 85, 36
2, 30720, Note_on_c, 0, 85, 0
2, 30720, Note_on_c, 0, 86, 36
2, 30960, Note_on_c, 0, 86, 0
2, 32224, Control_c, 0, 7, 79
2, 33120, Note_on_c, 0, 84, 34
2, 34560, Note_on_c, 0, 84, 0
2, 34560, Note_on_c, 0, 84, 34
2, 34680, Note_on_c, 0, 84, 0
2, 34680, Note_on_c, 0, 83, 34
2, 34800, Note_on_c, 0, 83, 0
2, 34800, Note_on_c, 0, 81, 34
2, 34920, Note_on_c, 0, 81, 0
2, 34920, Note_on_c, 0, 79, 34
2, 35040, Note_on_c, 0, 79, 0
2, 35040, Note_on_c, 0, 78, 34
2, 35520, Note_on_c, 0, 78, 0
2, 35520, Note_on_c, 0, 78, 34
2, 35540, Note_on_c, 0, 78, 0
2, 35540, Note_on_c, 0, 76, 34
2, 35560, Note_on_c, 0, 76, 0
2, 35560, Note_on_c, 0, 78, 34
2, 35600, Note_on_c, 0, 78, 0
2, 35600, Note_on_c, 0, 76, 34
2, 35620, Note_on_c, 0, 76, 0
2, 35620, Note_on_c, 0, 78, 34
2, 35640, Note_on_c, 0, 78, 0
2, 35640, Note_on_c, 0, 76, 34
2, 35660, Note_on_c, 0, 76, 0
2, 35660, Note_on_c, 0, 78, 34
2, 35680, Note_on_c, 0, 78, 0
2, 35680, Note_on_c, 0, 76, 34
2, 35700, Note_on_c, 0, 76, 0
2, 35700, Note_on_c, 0, 78, 34
2, 35740, Note_on_c, 0, 78, 0
2, 35740, Note_on_c, 0, 76, 34
2, 35760, Note_on_c, 0, 76, 0
2, 35760, Note_on_c, 0, 78, 34
2, 35780, Note_on_c, 0, 78, 0
2, 35780, Note_on_c, 0, 76, 34
2, 35800, Note_on_c, 0, 76, 0
2, 35800, Note_on_c, 0, 78, 34
2, 35820, Note_on_c, 0, 78, 0
2, 35820, Note_on_c, 0, 76, 34
2, 35840, Note_on_c, 0, 76, 0
2, 35840, Note_on_c, 0, 78, 34
2, 35880, Note_on_c, 0, 78, 0
2, 35880, Note_on_c, 0, 76, 34
2, 35900, Note_on_c, 0, 76, 0
2, 35900, Note_on_c, 0, 76, 34
2, 35920, Note_on_c, 0, 76, 0
2, 35920, Note_on_c, 0, 74, 34
2, 35960, Note_on_c, 0, 74, 0
2, 35960, Note_on_c, 0, 76, 34
2, 36000, Note_on_c, 0, 76, 0
2, 36000, Note_on_c, 0, 74, 34
2, 36180, Note_on_c, 0, 74, 0
2, 36240, Note_on_c, 0, 69, 34
2, 36480, Note_on_c, 0, 69, 0
2, 36480, Note_on_c, 0, 71, 34
2, 36720, Note_on_c, 0, 71, 0
2, 36720, Note_on_c, 0, 69, 34
2, 36960, Note_on_c, 0, 69, 0
2, 36960, Note_on_c, 0, 71, 34
2, 37200, Note_on_c, 0, 71, 0
2, 37200, Note_on_c, 0, 67, 34
2, 37440, Note_on_c, 0, 67, 0
2, 37440, Note_on_c, 0, 66, 34
2, 37920, Note_on_c, 0, 66, 0
2, 38520, Note_on_c, 0, 81, 34
2, 38580, Note_on_c, 0, 81, 0
2, 38580, Note_on_c, 0, 79, 34
2, 38640, Note_on_c, 0, 79, 0
2, 38640, Note_on_c, 0, 78, 34
2, 38700, Note_on_c, 0, 78, 0
2, 38700, Note_on_c, 0, 76, 34
2, 38760, Note_on_c, 0, 76, 0
2, 38760, Note_on_c, 0, 74, 34
2, 38820, Note_on_c, 0, 74, 0
2, 38820, Note_on_c, 0, 73, 34
2, 38880, Note_on_c, 0, 73, 0
2, 38880, Note_on_c, 0, 73, 34
2, 39840, Note_on_c, 0, 73, 0
2, 39840, Note_on_c, 0, 74, 34
2, 40080, Note_on_c, 0, 74, 0
2, 43200, Note_on_c, 0, 86, 34
2, 44640, Note_on_c, 0, 86, 0
2, 44640, Note_on_c, 0, 86, 34
2, 45120, Note_on_c, 0, 86, 0
2, 45120, Note_on_c, 0, 91, 34
2, 45360, Note_on_c, 0, 91, 0
2, 45360, Note_on_c, 0, 86, 34
2, 45600, Note_on_c, 0, 86, 0
2, 45600, Note_on_c, 0, 84, 34
2, 45840, Note_on_c, 0, 84, 0
2, 45840, Note_on_c, 0, 83, 34
2, 46080, Note_on_c, 0, 83, 0
2, 46080, Note_on_c, 0, 84, 34
2, 46100, Note_on_c, 0, 84, 0
2, 46100, Note_on_c, 0, 83, 34
2, 46140, Note_on_c, 0, 83, 0
2, 46140, Note_on_c, 0, 84, 34
2, 46160, Note_on_c, 0, 84, 0
2, 46160, Note_on_c, 0, 83, 34
2, 46200, Note_on_c, 0, 83, 0
2, 46200, Note_on_c, 0, 84, 34
2, 46220, Note_on_c, 0, 84, 0
2, 46220, Note_on_c, 0, 83, 34
2, 46260, Note_on_c, 0, 83, 0
2, 46260, Note_on_c, 0, 84, 34
2, 46280, Note_on_c, 0, 84, 0
2, 46280, Note_on_c, 0, 83, 34
2, 46320, Note_on_c, 0, 83, 0
2, 46320, Note_on_c, 0, 84, 34
2, 46340, Note_on_c, 0, 84, 0
2, 46340, Note_on_c, 0, 83, 34
2, 46380, Note_on_c, 0, 83, 0
2, 46380, Note_on_c, 0, 84, 34
2, 46400, Note_on_c, 0, 84, 0
2, 46400, Note_on_c, 0, 83, 34
2, 46440, Note_on_c, 0, 83, 0
2, 46440, Note_on_c, 0, 84, 34
2, 46460, Note_on_c, 0, 84, 0
2, 46460, Note_on_c, 0, 83, 34
2, 46500, Note_on_c, 0, 83, 0
2, 46500, Note_on_c, 0, 84, 34
2, 46520, Note_on_c, 0, 84, 0
2, 46520, Note_on_c, 0, 83, 34
2, 46560, Note_on_c, 0, 83, 0
2, 46560, Note_on_c, 0, 81, 34
2, 47040, Note_on_c, 0, 81, 0
2, 47520, Note_on_c, 0, 76, 34
2, 48000, Note_on_c, 0, 76, 0
2, 48000, Note_on_c, 0, 76, 34
2, 48120, Note_on_c, 0, 76, 0
2, 48120, Note_on_c, 0, 78, 34
2, 48240, Note_on_c, 0, 78, 0
2, 48240, Note_on_c, 0, 80, 34
2, 48288, Control_c, 0, 7, 80
2, 48360, Note_on_c, 0, 80, 0
2, 48360, Note_on_c, 0, 81, 34
2, 48480, Note_on_c, 0, 81, 0
2, 48480, Note_on_c, 0, 83, 34
2, 48600, Note_on_c, 0, 83, 0
2, 48600, Note_on_c, 0, 84, 34
2, 48720, Note_on_c, 0, 84, 0
2, 48720, Note_on_c, 0, 86, 34
2, 48840, Note_on_c, 0, 86, 0
2, 48840, Note_on_c, 0, 83, 34
2, 48960, Note_on_c, 0, 83, 0
2, 48960, Note_on_c, 0, 86, 34
2, 49200, Note_on_c, 0, 86, 0
2, 49200, Note_on_c, 0, 84, 32
2, 49680, Note_on_c, 0, 84, 0
2, 49680, Note_on_c, 0, 86, 32
2, 49800, Note_on_c, 0, 86, 0
2, 49800, Note_on_c, 0, 84, 32
2, 49920, Note_on_c, 0, 84, 0
2, 49920, Note_on_c, 0, 88, 32
2, 50160, Note_on_c, 0, 88, 0
2, 50160, Note_on_c, 0, 79, 32
2, 50400, Note_on_c, 0, 79, 0
2, 50400, Note_on_c, 0, 78, 32
2, 50880, Note_on_c, 0, 78, 0
2, 51840, Note_on_c, 0, 67, 32
2, 51920, Note_on_c, 0, 67, 0
2, 51920, Note_on_c, 0, 74, 32
2, 52000, Note_on_c, 0, 74, 0
2, 52000, Note_on_c, 0, 71, 32
2, 52080, Note_on_c, 0, 71, 0
2, 52080, Note_on_c, 0, 67, 32
2, 52160, Note_on_c, 0, 67, 0
2, 52160, Note_on_c, 0, 62, 32
2, 52240, Note_on_c, 0, 62, 0
2, 52240, Note_on_c, 0, 59, 32
2, 52320, Note_on_c, 0, 59, 0
2, 52320, Note_on_c, 0, 55, 32
2, 52560, Note_on_c, 0, 55, 0
2, 53040, Note_on_c, 0, 77, 32
2, 53280, Note_on_c, 0, 77, 0
2, 53280, Note_on_c, 0, 76, 32
2, 53520, Note_on_c, 0, 76, 0
2, 53520, Note_on_c, 0, 88, 32
2, 54000, Note_on_c, 0, 88, 0
2, 54000, Note_on_c, 0, 86, 32
2, 54120, Note_on_c, 0, 86, 0
2, 54120, Note_on_c, 0, 84, 32
2, 54240, Note_on_c, 0, 84, 0
2, 54240, Note_on_c, 0, 83, 32
2, 54360, Note_on_c, 0, 83, 0
2, 54360, Note_on_c, 0, 81, 32
2, 54480, Note_on_c, 0, 81, 0
2, 54480, Note_on_c, 0, 79, 32
2, 54720, Note_on_c, 0, 79, 0
2, 54720, Note_on_c, 0, 78, 32
2, 54840, Note_on_c, 0, 78, 0
2, 54840, Note_on_c, 0, 76, 32
2, 54960, Note_on_c, 0, 76, 0
2, 54960, Note_on_c, 0, 74, 32
2, 55080, Note_on_c, 0, 74, 0
2, 55080, Note_on_c, 0, 76, 32
2, 55200, Note_on_c, 0, 76, 0
2, 55200, Note_on_c, 0, 74, 32
2, 55680, Note_on_c, 0, 74, 0
2, 59040, Note_on_c, 0, 84, 32
2, 59760, Note_on_c, 0, 84, 0
2, 59760, Note_on_c, 0, 81, 32
2, 60000, Note_on_c, 0, 81, 0
2, 60000, Note_on_c, 0, 78, 32
2, 60240, Note_on_c, 0, 78, 0
2, 60240, Note_on_c, 0, 72, 32
2, 60480, Note_on_c, 0, 72, 0
2, 60480, Note_on_c, 0, 74, 32
2, 60720, Note_on_c, 0, 74, 0
2, 60720, Note_on_c, 0, 72, 32
2, 60960, Note_on_c, 0, 72, 0
2, 60960, Note_on_c, 0, 71, 32
2, 61440, Note_on_c, 0, 71, 0
2, 61920, Note_on_c, 0, 76, 32
2, 62640, Note_on_c, 0, 76, 0
2, 62640, Note_on_c, 0, 79, 32
2, 62880, Note_on_c, 0, 79, 0
2, 62880, Note_on_c, 0, 81, 32
2, 62940, Note_on_c, 0, 81, 0
2, 62940, Note_on_c, 0, 79, 32
2, 63060, Note_on_c, 0, 79, 0
2, 63060, Note_on_c, 0, 79, 32
2, 63120, Note_on_c, 0, 79, 0
2, 63120, Note_on_c, 0, 78, 32
2, 63240, Note_on_c, 0, 78, 0
2, 63240, Note_on_c, 0, 76, 32
2, 63360, Note_on_c, 0, 76, 0
2, 63360, Note_on_c, 0, 74, 32
2, 63840, Note_on_c, 0, 74, 0
2, 63840, Note_on_c, 0, 78, 32
2, 64080, Note_on_c, 0, 78, 0
2, 64080, Note_on_c, 0, 76, 32
2, 64200, Note_on_c, 0, 76, 0
2, 64200, Note_on_c, 0, 78, 32
2, 64320, Note_on_c, 0, 78, 0
2, 64320, Note_on_c, 0, 79, 32
2, 64352, Control_c, 0, 7, 81
2, 64440, Note_on_c, 0, 79, 0
2, 64440, Note_on_c, 0, 81, 32
2, 64560, Note_on_c, 0, 81, 0
2, 64560, Note_on_c, 0, 83, 32
2, 64680, Note_on_c, 0, 83, 0
2, 64680, Note_on_c, 0, 84, 32
2, 64800, Note_on_c, 0, 84, 0
2, 64800, Note_on_c, 0, 86, 32
2, 65160, Note_on_c, 0, 86, 0
2, 65160, Note_on_c, 0, 88, 32
2, 65220, Note_on_c, 0, 88, 0
2, 65220, Note_on_c, 0, 86, 32
2, 65280, Note_on_c, 0, 86, 0
2, 65280, Note_on_c, 0, 84, 32
2, 65760, Note_on_c, 0, 84, 0
2, 65760, Note_on_c, 0, 83, 32
2, 66240, Note_on_c, 0, 83, 0
2, 66240, Note_on_c, 0, 84, 32
2, 66260, Note_on_c, 0, 84, 0
2, 66260, Note_on_c, 0, 83, 32
2, 66300, Note_on_c, 0, 83, 0
2, 66300, Note_on_c, 0, 84, 32
2, 66320, Note_on_c, 0, 84, 0
2, 66320, Note_on_c, 0, 83, 32
2, 66360, Note_on_c, 0, 83, 0
2, 66360, Note_on_c, 0, 84, 32
2, 66380, Note_on_c, 0, 84, 0
2, 66380, Note_on_c, 0, 83, 32
2, 66420, Note_on_c, 0, 83, 0
2, 66420, Note_on_c, 0, 84, 32
2, 66440, Note_on_c, 0, 84, 0
2, 66440, Note_on_c, 0, 83, 32
2, 66480, Note_on_c, 0, 83, 0
2, 66480, Note_on_c, 0, 84, 32
2, 66500, Note_on_c, 0, 84, 0
2, 66500, Note_on_c, 0, 83, 32
2, 66540, Note_on_c, 0, 83, 0
2, 66540, Note_on_c, 0, 84, 32
2, 66560, Note_on_c, 0, 84, 0
2, 66560, Note_on_c, 0, 83, 32
2, 66600, Note_on_c, 0, 83, 0
2, 66600, Note_on_c, 0, 84, 32
2, 66620, Note_on_c, 0, 84, 0
2, 66620, Note_on_c, 0, 83, 32
2, 66660, Note_on_c, 0, 83, 0
2, 66660, Note_on_c, 0, 84, 32
2, 66680, Note_on_c, 0, 84, 0
2, 66680, Note_on_c, 0, 83, 32
2, 66720, Note_on_c, 0, 83, 0
2, 66720, Note_on_c, 0, 81, 32
2, 67200, Note_on_c, 0, 81, 0
2, 67680, Note_on_c, 0, 74, 32
2, 68400, Note_on_c, 0, 74, 0
2, 68400, Note_on_c, 0, 76, 32
2, 68520, Note_on_c, 0, 76, 0
2, 68520, Note_on_c, 0, 74, 32
2, 68640, Note_on_c, 0, 74, 0
2, 68640, Note_on_c, 0, 79, 32
2, 68760, Note_on_c, 0, 79, 0
2, 68760, Note_on_c, 0, 78, 32
2, 68880, Note_on_c, 0, 78, 0
2, 68880, Note_on_c, 0, 76, 32
2, 69000, Note_on_c, 0, 76, 0
2, 69000, Note_on_c, 0, 74, 32
2, 69120, Note_on_c, 0, 74, 0
2, 69120, Note_on_c, 0, 74, 32
2, 69240, Note_on_c, 0, 74, 0
2, 69240, Note_on_c, 0, 76, 32
2, 69360, Note_on_c, 0, 76, 0
2, 69360, Note_on_c, 0, 74, 32
2, 69600, Note_on_c, 0, 74, 0
2, 69840, Note_on_c, 0, 86, 32
2, 70080, Note_on_c, 0, 86, 0
2, 70080, Note_on_c, 0, 86, 32
2, 70320, Note_on_c, 0, 86, 0
2, 70320, Note_on_c, 0, 86, 32
2, 70560, Note_on_c, 0, 86, 0
2, 70560, Note_on_c, 0, 86, 32
2, 70680, Note_on_c, 0, 86, 0
2, 70680, Note_on_c, 0, 83, 32
2, 70800, Note_on_c, 0, 83, 0
2, 70800, Note_on_c, 0, 84, 32
2, 71040, Note_on_c, 0, 84, 0
2, 71280, Note_on_c, 0, 84, 32
2, 71520, Note_on_c, 0, 84, 0
2, 71520, Note_on_c, 0, 84, 30
2, 71760, Note_on_c, 0, 84, 0
2, 71760, Note_on_c, 0, 84, 30
2, 72000, Note_on_c, 0, 84, 0
2, 72000, Note_on_c, 0, 84, 30
2, 72120, Note_on_c, 0, 84, 0
2, 72120, Note_on_c, 0, 81, 30
2, 72240, Note_on_c, 0, 81, 0
2, 72240, Note_on_c, 0, 83, 30
2, 72480, Note_on_c, 0, 83, 0
2, 72720, Note_on_c, 0, 83, 30
2, 72960, Note_on_c, 0, 83, 0
2, 72960, Note_on_c, 0, 83, 30
2, 73200, Note_on_c, 0, 83, 0
2, 73200, Note_on_c, 0, 83, 30
2, 73440, Note_on_c, 0, 83, 0
2, 73440, Note_on_c, 0, 81, 30
2, 73920, Note_on_c, 0, 81, 0
2, 76320, Note_on_c, 0, 83, 30
2, 76440, Note_on_c, 0, 83, 0
2, 76440, Note_on_c, 0, 81, 30
2, 76560, Note_on_c, 0, 81, 0
2, 76560, Note_on_c, 0, 83, 30
2, 76680, Note_on_c, 0, 83, 0
2, 76680, Note_on_c, 0, 84, 30
2, 76800, Note_on_c, 0, 84, 0
2, 76800, Note_on_c, 0, 86, 30
2, 77040, Note_on_c, 0, 86, 0
2, 77040, Note_on_c, 0, 79, 30
2, 77280, Note_on_c, 0, 79, 0
2, 77280, Note_on_c, 0, 79, 30
2, 77520, Note_on_c, 0, 79, 0
2, 77520, Note_on_c, 0, 79, 30
2, 77760, Note_on_c, 0, 79, 0
2, 77760, Note_on_c, 0, 84, 30
2, 77880, Note_on_c, 0, 84, 0
2, 77880, Note_on_c, 0, 81, 30
2, 78000, Note_on_c, 0, 81, 0
2, 78000, Note_on_c, 0, 83, 30
2, 78120, Note_on_c, 0, 83, 0
2, 78120, Note_on_c, 0, 79, 30
2, 78240, Note_on_c, 0, 79, 0
2, 78240, Note_on_c, 0, 79, 30
2, 78360, Note_on_c, 0, 79, 0
2, 78360, Note_on_c, 0, 78, 30
2, 78480, Note_on_c, 0, 78, 0
2, 78480, Note_on_c, 0, 81, 30
2, 78600, Note_on_c, 0, 81, 0
2, 78600, Note_on_c, 0, 78, 30
2, 78720, Note_on_c, 0, 78, 0
2, 78720, Note_on_c, 0, 74, 30
2, 79200, Note_on_c, 0, 74, 0
2, 79200, Note_on_c, 0, 86, 30
2, 80416, Control_c, 0, 7, 82
2, 82100, Note_on_c, 0, 86, 0
2, 82200, Note_on_c, 0, 67, 30
2, 82440, Note_on_c, 0, 67, 0
2, 82440, Note_on_c, 0, 71, 30
2, 82680, Note_on_c, 0, 71, 0
2, 82680, Note_on_c, 0, 74, 30
2, 82920, Note_on_c, 0, 74, 0
2, 82920, Note_on_c, 0, 79, 30
2, 83160, Note_on_c, 0, 79, 0
2, 83160, Note_on_c, 0, 86, 30
2, 83400, Note_on_c, 0, 86, 0
2, 83400, Note_on_c, 0, 77, 30
2, 83520, Note_on_c, 0, 77, 0
2, 83520, Note_on_c, 0, 76, 30
2, 83600, Note_on_c, 0, 76, 0
2, 83600, Note_on_c, 0, 79, 30
2, 83680, Note_on_c, 0, 79, 0
2, 83680, Note_on_c, 0, 76, 30
2, 83760, Note_on_c, 0, 76, 0
2, 83760, Note_on_c, 0, 72, 30
2, 83840, Note_on_c, 0, 72, 0
2, 83840, Note_on_c, 0, 76, 30
2, 83920, Note_on_c, 0, 76, 0
2, 83920, Note_on_c, 0, 72, 30
2, 84000, Note_on_c, 0, 72, 0
2, 84000, Note_on_c, 0, 67, 30
2, 84080, Note_on_c, 0, 67, 0
2, 84080, Note_on_c, 0, 72, 30
2, 84160, Note_on_c, 0, 72, 0
2, 84160, Note_on_c, 0, 67, 30
2, 84240, Note_on_c, 0, 67, 0
2, 84240, Note_on_c, 0, 64, 30
2, 84320, Note_on_c, 0, 64, 0
2, 84320, Note_on_c, 0, 67, 30
2, 84400, Note_on_c, 0, 67, 0
2, 84400, Note_on_c, 0, 64, 30
2, 84480, Note_on_c, 0, 64, 0
2, 84480, Note_on_c, 0, 60, 30
2, 84600, Note_on_c, 0, 60, 0
2, 84600, Note_on_c, 0, 79, 30
2, 84720, Note_on_c, 0, 79, 0
2, 84720, Note_on_c, 0, 76, 30
2, 84840, Note_on_c, 0, 76, 0
2, 84840, Note_on_c, 0, 72, 30
2, 84960, Note_on_c, 0, 72, 0
2, 84960, Note_on_c, 0, 71, 30
2, 85020, Note_on_c, 0, 71, 0
2, 85020, Note_on_c, 0, 74, 30
2, 85080, Note_on_c, 0, 74, 0
2, 85080, Note_on_c, 0, 72, 30
2, 85140, Note_on_c, 0, 72, 0
2, 85140, Note_on_c, 0, 71, 30
2, 85200, Note_on_c, 0, 71, 0
2, 85200, Note_on_c, 0, 72, 30
2, 85260, Note_on_c, 0, 72, 0
2, 85260, Note_on_c, 0, 74, 30
2, 85320, Note_on_c, 0, 74, 0
2, 85320, Note_on_c, 0, 76, 30
2, 85380, Note_on_c, 0, 76, 0
2, 85380, Note_on_c, 0, 77, 30
2, 85440, Note_on_c, 0, 77, 0
2, 85440, Note_on_c, 0, 79, 30
2, 85500, Note_on_c, 0, 79, 0
2, 85500, Note_on_c, 0, 81, 30
2, 85560, Note_on_c, 0, 81, 0
2, 85560, Note_on_c, 0, 83, 30
2, 85620, Note_on_c, 0, 83, 0
2, 85620, Note_on_c, 0, 84, 30
2, 85680, Note_on_c, 0, 84, 0
2, 85680, Note_on_c, 0, 86, 30
2, 85800, Note_on_c, 0, 86, 0
2, 85800, Note_on_c, 0, 83, 30
2, 85826, Note_on_c, 0, 83, 0
2, 85832, Note_on_c, 0, 81, 30
2, 85860, Note_on_c, 0, 81, 0
2, 85864, Note_on_c, 0, 83, 30
2, 85890, Note_on_c, 0, 83, 0
2, 85892, Note_on_c, 0, 81, 30
2, 85914, Note_on_c, 0, 81, 0
2, 85922, Note_on_c, 0, 83, 30
2, 85948, Note_on_c, 0, 83, 0
2, 85954, Note_on_c, 0, 81, 30
2, 85982, Note_on_c, 0, 81, 0
2, 85986, Note_on_c, 0, 83, 30
2, 86012, Note_on_c, 0, 83, 0
2, 86014, Note_on_c, 0, 81, 30
2, 86036, Note_on_c, 0, 81, 0
2, 86044, Note_on_c, 0, 83, 30
2, 86070, Note_on_c, 0, 83, 0
2, 86076, Note_on_c, 0, 81, 30
2, 86104, Note_on_c, 0, 81, 0
2, 86108, Note_on_c, 0, 83, 30
2, 86134, Note_on_c, 0, 83, 0
2, 86136, Note_on_c, 0, 81, 30
2, 86158, Note_on_c, 0, 81, 0
2, 86164, Note_on_c, 0, 83, 30
2, 86190, Note_on_c, 0, 83, 0
2, 86196, Note_on_c, 0, 81, 30
2, 86224, Note_on_c, 0, 81, 0
2, 86228, Note_on_c, 0, 83, 30
2, 86254, Note_on_c, 0, 83, 0
2, 86256, Note_on_c, 0, 81, 30
2, 86278, Note_on_c, 0, 81, 0
2, 86282, Note_on_c, 0, 83, 30
2, 86308, Note_on_c, 0, 83, 0
2, 86314, Note_on_c, 0, 81, 30
2, 86342, Note_on_c, 0, 81, 0
2, 86346, Note_on_c, 0, 83, 30
2, 86372, Note_on_c, 0, 83, 0
2, 86374, Note_on_c, 0, 81, 30
2, 86396, Note_on_c, 0, 81, 0
2, 86400, Note_on_c, 0, 79, 30
2, 86520, Note_on_c, 0, 79, 0
2, 86520, Note_on_c, 0, 81, 30
2, 86580, Note_on_c, 0, 81, 0
2, 86580, Note_on_c, 0, 83, 30
2, 86640, Note_on_c, 0, 83, 0
2, 86640, Note_on_c, 0, 84, 30
2, 86700, Note_on_c, 0, 84, 0
2, 86700, Note_on_c, 0, 86, 30
2, 86760, Note_on_c, 0, 86, 0
2, 86760, Note_on_c, 0, 88, 30
2, 86820, Note_on_c, 0, 88, 0
2, 86820, Note_on_c, 0, 90, 30
2, 86880, Note_on_c, 0, 90, 0
2, 86880, Note_on_c, 0, 91, 30
2, 87120, Note_on_c, 0, 91, 0
2, 89280, Note_on_c, 0, 89, 30
2, 90720, Note_on_c, 0, 89, 0
2, 90720, Note_on_c, 0, 89, 30
2, 90840, Note_on_c, 0, 89, 0
2, 90840, Note_on_c, 0, 88, 30
2, 90960, Note_on_c, 0, 88, 0
2, 90960, Note_on_c, 0, 86, 30
2, 91080, Note_on_c, 0, 86, 0
2, 91080, Note_on_c, 0, 84, 30
2, 91200, Note_on_c, 0, 84, 0
2, 91200, Note_on_c, 0, 83, 30
2, 91680, Note_on_c, 0, 83, 0
2, 91680, Note_on_c, 0, 83, 30
2, 91700, Note_on_c, 0, 83, 0
2, 91700, Note_on_c, 0, 81, 30
2, 91740, Note_on_c, 0, 81, 0
2, 91740, Note_on_c, 0, 83, 30
2, 91760, Note_on_c, 0, 83, 0
2, 91760, Note_on_c, 0, 81, 30
2, 91800, Note_on_c, 0, 81, 0
2, 91800, Note_on_c, 0, 83, 30
2, 91820, Note_on_c, 0, 83, 0
2, 91820, Note_on_c, 0, 81, 30
2, 91860, Note_on_c, 0, 81, 0
2, 91860, Note_on_c, 0, 83, 30
2, 91880, Note_on_c, 0, 83, 0
2, 91880, Note_on_c, 0, 81, 30
2, 91920, Note_on_c, 0, 81, 0
2, 91920, Note_on_c, 0, 83, 30
2, 91940, Note_on_c, 0, 83, 0
2, 91940, Note_on_c, 0, 81, 30
2, 91980, Note_on_c, 0, 81, 0
2, 91980, Note_on_c, 0, 83, 30
2, 92000, Note_on_c, 0, 83, 0
2, 92000, Note_on_c, 0, 81, 30
2, 92040, Note_on_c, 0, 81, 0
2, 92040, Note_on_c, 0, 81, 30
2, 92080, Note_on_c, 0, 81, 0
2, 92080, Note_on_c, 0, 79, 30
2, 92120, Note_on_c, 0, 79, 0
2, 92120, Note_on_c, 0, 81, 30
2, 92160, Note_on_c, 0, 81, 0
2, 92160, Note_on_c, 0, 79, 30
2, 92400, Note_on_c, 0, 79, 0
2, 92400, Note_on_c, 0, 74, 29
2, 92640, Note_on_c, 0, 74, 0
2, 92640, Note_on_c, 0, 76, 29
2, 92880, Note_on_c, 0, 76, 0
2, 92880, Note_on_c, 0, 74, 29
2, 93120, Note_on_c, 0, 74, 0
2, 93120, Note_on_c, 0, 76, 29
2, 93360, Note_on_c, 0, 76, 0
2, 93360, Note_on_c, 0, 72, 29
2, 93600, Note_on_c, 0, 72, 0
2, 93600, Note_on_c, 0, 71, 29
2, 94080, Note_on_c, 0, 71, 0
2, 94680, Note_on_c, 0, 86, 29
2, 94740, Note_on_c, 0, 86, 0
2, 94740, Note_on_c, 0, 84, 29
2, 94800, Note_on_c, 0, 84, 0
2, 94800, Note_on_c, 0, 83, 29
2, 94860, Note_on_c, 0, 83, 0
2, 94860, Note_on_c, 0, 81, 29
2, 94920, Note_on_c, 0, 81, 0
2, 94920, Note_on_c, 0, 79, 29
2, 94980, Note_on_c, 0, 79, 0
2, 94980, Note_on_c, 0, 78, 29
2, 95040, Note_on_c, 0, 78, 0
2, 95040, Note_on_c, 0, 78, 29
2, 96000, Note_on_c, 0, 78, 0
2, 96000, Note_on_c, 0, 79, 29
2, 96240, Note_on_c, 0, 79, 0
2, 96479, Control_c, 0, 7, 84
2, 96480, Note_on_c, 0, 79, 94
2, 96480, Control_c, 0, 7, 124
2, 96960, Note_on_c, 0, 79, 0
2, 96960, Note_on_c, 0, 81, 79
2, 97007, Control_c, 0, 7, 108
2, 97020, Note_on_c, 0, 81, 0
2, 97020, Note_on_c, 0, 79, 79
2, 97080, Note_on_c, 0, 79, 0
2, 97080, Note_on_c, 0, 78, 79
2, 97200, Note_on_c, 0, 78, 0
2, 97200, Note_on_c, 0, 79, 79
2, 97320, Note_on_c, 0, 79, 0
2, 97320, Note_on_c, 0, 81, 79
2, 97440, Note_on_c, 0, 81, 0
2, 97440, Note_on_c, 0, 79, 79
2, 97680, Note_on_c, 0, 79, 0
2, 97680, Note_on_c, 0, 79, 79
2, 97920, Note_on_c, 0, 79, 0
2, 97920, Note_on_c, 0, 78, 79
2, 98160, Note_on_c, 0, 78, 0
2, 98160, Note_on_c, 0, 81, 79
2, 98400, Note_on_c, 0, 81, 0
2, 98400, Note_on_c, 0, 79, 79
2, 98640, Note_on_c, 0, 79, 0
2, 98640, Note_on_c, 0, 83, 79
2, 98880, Note_on_c, 0, 83, 0
2, 98880, Note_on_c, 0, 81, 79
2, 99120, Note_on_c, 0, 81, 0
2, 99120, Note_on_c, 0, 84, 79
2, 99360, Note_on_c, 0, 84, 0
2, 99360, Note_on_c, 0, 83, 79
2, 99600, Note_on_c, 0, 83, 0
2, 100320, Note_on_c, 0, 79, 79
2, 101280, Note_on_c, 0, 79, 0
2, 101280, Note_on_c, 0, 74, 79
2, 102240, Note_on_c, 0, 74, 0
2, 102240, Note_on_c, 0, 72, 79
2, 102480, Note_on_c, 0, 72, 0
2, 102480, Note_on_c, 0, 71, 79
2, 102720, Note_on_c, 0, 71, 0
2, 102720, Note_on_c, 0, 69, 79
2, 102960, Note_on_c, 0, 69, 0
2, 102960, Note_on_c, 0, 67, 79
2, 103200, Note_on_c, 0, 67, 0
2, 103200, Note_on_c, 0, 74, 79
2, 103680, Note_on_c, 0, 74, 0
2, 103680, Note_on_c, 0, 62, 79
2, 104160, Note_on_c, 0, 62, 0
2, 104160, Note_on_c, 0, 67, 79
2, 104640, Note_on_c, 0, 67, 0
2, 104640, Note_on_c, 0, 81, 79
2, 104700, Note_on_c, 0, 81, 0
2, 104700, Note_on_c, 0, 79, 79
2, 104760, Note_on_c, 0, 79, 0
2, 104760, Note_on_c, 0, 78, 79
2, 104880, Note_on_c, 0, 78, 0
2, 104880, Note_on_c, 0, 79, 79
2, 105000, Note_on_c, 0, 79, 0
2, 105000, Note_on_c, 0, 81, 79
2, 105120, Note_on_c, 0, 81, 0
2, 105120, Note_on_c, 0, 79, 79
2, 105360, Note_on_c, 0, 79, 0
2, 105360, Note_on_c, 0, 79, 79
2, 105600, Note_on_c, 0, 79, 0
2, 105600, Note_on_c, 0, 78, 79
2, 105840, Note_on_c, 0, 78, 0
2, 105840, Note_on_c, 0, 81, 79
2, 106080, Note_on_c, 0, 81, 0
2, 106080, Note_on_c, 0, 79, 79
2, 106320, Note_on_c, 0, 79, 0
2, 106320, Note_on_c, 0, 83, 79
2, 106560, Note_on_c, 0, 83, 0
2, 106560, Note_on_c, 0, 81, 79
2, 106800, Note_on_c, 0, 81, 0
2, 106800, Note_on_c, 0, 84, 79
2, 107040, Note_on_c, 0, 84, 0
2, 107040, Note_on_c, 0, 83, 79
2, 107280, Note_on_c, 0, 83, 0
2, 108000, Note_on_c, 0, 79, 79
2, 108960, Note_on_c, 0, 79, 0
2, 108960, Note_on_c, 0, 74, 79
2, 109920, Note_on_c, 0, 74, 0
2, 109920, Note_on_c, 0, 72, 79
2, 110160, Note_on_c, 0, 72, 0
2, 110160, Note_on_c, 0, 71, 79
2, 110400, Note_on_c, 0, 71, 0
2, 110400, Note_on_c, 0, 69, 79
2, 110640, Note_on_c, 0, 69, 0
2, 110640, Note_on_c, 0, 67, 79
2, 110880, Note_on_c, 0, 67, 0
2, 110880, Note_on_c, 0, 74, 79
2, 111360, Note_on_c, 0, 74, 0
2, 111360, Note_on_c, 0, 62, 79
2, 111840, Note_on_c, 0, 62, 0
2, 111840, Note_on_c, 0, 67, 79
2, 112320, Note_on_c, 0, 67, 0
2, 112800, Note_on_c, 0, 79, 79
2, 113520, Note_on_c, 0, 79, 0
2, 113520, Note_on_c, 0, 83, 79
2, 113640, Note_on_c, 0, 83, 0
2, 113640, Note_on_c, 0, 79, 79
2, 113760, Note_on_c, 0, 79, 0
2, 113760, Note_on_c, 0, 78, 79
2, 114240, Note_on_c, 0, 78, 0
2, 114720, Note_on_c, 0, 81, 79
2, 115440, Note_on_c, 0, 81, 0
2, 115440, Note_on_c, 0, 84, 79
2, 115560, Note_on_c, 0, 84, 0
2, 115560, Note_on_c, 0, 81, 79
2, 115680, Note_on_c, 0, 81, 0
2, 115680, Note_on_c, 0, 79, 79
2, 116160, Note_on_c, 0, 79, 0
2, 116640, Note_on_c, 0, 79, 79
2, 117360, Note_on_c, 0, 79, 0
2, 117360, Note_on_c, 0, 83, 79
2, 117480, Note_on_c, 0, 83, 0
2, 117480, Note_on_c, 0, 79, 79
2, 117600, Note_on_c, 0, 79, 0
2, 117600, Note_on_c, 0, 78, 79
2, 118080, Note_on_c, 0, 78, 0
2, 118560, Note_on_c, 0, 81, 79
2, 119280, Note_on_c, 0, 81, 0
2, 119280, Note_on_c, 0, 84, 79
2, 119400, Note_on_c, 0, 84, 0
2, 119400, Note_on_c, 0, 81, 79
2, 119520, Note_on_c, 0, 81, 0
2, 119520, Note_on_c, 0, 79, 79
2, 119760, Note_on_c, 0, 79, 0
2, 119760, Note_on_c, 0, 55, 79
2, 120000, Note_on_c, 0, 55, 0
2, 120000, Note_on_c, 0, 57, 79
2, 120240, Note_on_c, 0, 57, 0
2, 120240, Note_on_c, 0, 59, 79
2, 120480, Note_on_c, 0, 59, 0
2, 120480, Note_on_c, 0, 60, 79
2, 120720, Note_on_c, 0, 60, 0
2, 120720, Note_on_c, 0, 62, 79
2, 120960, Note_on_c, 0, 62, 0
2, 120960, Note_on_c, 0, 64, 79
2, 121200, Note_on_c, 0, 64, 0
2, 121200, Note_on_c, 0, 66, 79
2, 121440, Note_on_c, 0, 66, 0
2, 121440, Note_on_c, 0, 67, 79
2, 121680, Note_on_c, 0, 67, 0
2, 121680, Note_on_c, 0, 66, 79
2, 121920, Note_on_c, 0, 66, 0
2, 121920, Note_on_c, 0, 64, 79
2, 122160, Note_on_c, 0, 64, 0
2, 122160, Note_on_c, 0, 62, 79
2, 122400, Note_on_c, 0, 62, 0
2, 122400, Note_on_c, 0, 60, 79
2, 122640, Note_on_c, 0, 60, 0
2, 122640, Note_on_c, 0, 59, 79
2, 122880, Note_on_c, 0, 59, 0
2, 122880, Note_on_c, 0, 57, 79
2, 123120, Note_on_c, 0, 57, 0
2, 123120, Note_on_c, 0, 55, 79
2, 123360, Note_on_c, 0, 55, 0
2, 123360, Note_on_c, 0, 62, 79
2, 123840, Note_on_c, 0, 62, 0
2, 123840, Note_on_c, 0, 78, 79
2, 124320, Note_on_c, 0, 78, 0
2, 124320, Note_on_c, 0, 78, 79
2, 124800, Note_on_c, 0, 78, 0
2, 125280, Note_on_c, 0, 74, 79
2, 126240, Note_on_c, 0, 74, 0
2, 126240, Note_on_c, 0, 78, 79
2, 126720, Note_on_c, 0, 78, 0
2, 126720, Note_on_c, 0, 81, 79
2, 127200, Note_on_c, 0, 81, 0
2, 127200, Note_on_c, 0, 86, 79
2, 128640, Note_on_c, 0, 86, 0
2, 128640, Note_on_c, 0, 88, 79
2, 129120, Note_on_c, 0, 88, 0
2, 129120, Note_on_c, 0, 90, 79
2, 129600, Note_on_c, 0, 90, 0
2, 129600, Note_on_c, 0, 90, 79
2, 130560, Note_on_c, 0, 90, 0
2, 130560, Note_on_c, 0, 91, 79
2, 130800, Note_on_c, 0, 91, 0
2, 130800, Note_on_c, 0, 88, 79
2, 131040, Note_on_c, 0, 88, 0
2, 131040, Note_on_c, 0, 90, 79
2, 131520, Note_on_c, 0, 90, 0
2, 131520, Note_on_c, 0, 78, 79
2, 132480, Note_on_c, 0, 78, 0
2, 132480, Note_on_c, 0, 79, 79
2, 132720, Note_on_c, 0, 79, 0
2, 132720, Note_on_c, 0, 76, 79
2, 132960, Note_on_c, 0, 76, 0
2, 132960, Note_on_c, 0, 74, 79
2, 133920, Note_on_c, 0, 74, 0
2, 133920, Note_on_c, 0, 78, 79
2, 134400, Note_on_c, 0, 78, 0
2, 134400, Note_on_c, 0, 81, 79
2, 134880, Note_on_c, 0, 81, 0
2, 134880, Note_on_c, 0, 86, 79
2, 135000, Note_on_c, 0, 86, 0
2, 135000, Note_on_c, 0, 81, 79
2, 135120, Note_on_c, 0, 81, 0
2, 135120, Note_on_c, 0, 83, 79
2, 135240, Note_on_c, 0, 83, 0
2, 135240, Note_on_c, 0, 81, 79
2, 135360, Note_on_c, 0, 81, 0
2, 135360, Note_on_c, 0, 86, 79
2, 135480, Note_on_c, 0, 86, 0
2, 135480, Note_on_c, 0, 81, 79
2, 135600, Note_on_c, 0, 81, 0
2, 135600, Note_on_c, 0, 83, 79
2, 135720, Note_on_c, 0, 83, 0
2, 135720, Note_on_c, 0, 81, 79
2, 135840, Note_on_c, 0, 81, 0
2, 135840, Note_on_c, 0, 86, 79
2, 136080, Note_on_c, 0, 86, 0
2, 136800, Note_on_c, 0, 91, 79
2, 137280, Note_on_c, 0, 91, 0
2, 137280, Note_on_c, 0, 90, 79
2, 138240, Note_on_c, 0, 90, 0
2, 138240, Note_on_c, 0, 88, 79
2, 138720, Note_on_c, 0, 88, 0
2, 138720, Note_on_c, 0, 86, 79
2, 138840, Note_on_c, 0, 86, 0
2, 138840, Note_on_c, 0, 81, 79
2, 138960, Note_on_c, 0, 81, 0
2, 138960, Note_on_c, 0, 83, 79
2, 139080, Note_on_c, 0, 83, 0
2, 139080, Note_on_c, 0, 81, 79
2, 139200, Note_on_c, 0, 81, 0
2, 139200, Note_on_c, 0, 86, 79
2, 139320, Note_on_c, 0, 86, 0
2, 139320, Note_on_c, 0, 81, 79
2, 139440, Note_on_c, 0, 81, 0
2, 139440, Note_on_c, 0, 83, 79
2, 139560, Note_on_c, 0, 83, 0
2, 139560, Note_on_c, 0, 81, 79
2, 139680, Note_on_c, 0, 81, 0
2, 139680, Note_on_c, 0, 86, 79
2, 139920, Note_on_c, 0, 86, 0
2, 140640, Note_on_c, 0, 91, 79
2, 141120, Note_on_c, 0, 91, 0
2, 141120, Note_on_c, 0, 90, 79
2, 142080, Note_on_c, 0, 90, 0
2, 142080, Note_on_c, 0, 88, 79
2, 142560, Note_on_c, 0, 88, 0
2, 142560, Note_on_c, 0, 86, 79
2, 143040, Note_on_c, 0, 86, 0
2, 144600, Note_on_c, 0, 67, 79
2, 144720, Note_on_c, 0, 67, 0
2, 144720, Note_on_c, 0, 69, 79
2, 144840, Note_on_c, 0, 69, 0
2, 144840, Note_on_c, 0, 71, 79
2, 144960, Note_on_c, 0, 71, 0
2, 144960, Note_on_c, 0, 72, 79
2, 145080, Note_on_c, 0, 72, 0
2, 145080, Note_on_c, 0, 74, 79
2, 145200, Note_on_c, 0, 74, 0
2, 145200, Note_on_c, 0, 76, 79
2, 145320, Note_on_c, 0, 76, 0
2, 145320, Note_on_c, 0, 78, 79
2, 145440, Note_on_c, 0, 78, 0
2, 145440, Note_on_c, 0, 79, 79
2, 145560, Note_on_c, 0, 79, 0
2, 145560, Note_on_c, 0, 74, 79
2, 145680, Note_on_c, 0, 74, 0
2, 145680, Note_on_c, 0, 76, 79
2, 145800, Note_on_c, 0, 76, 0
2, 145800, Note_on_c, 0, 78, 79
2, 145920, Note_on_c, 0, 78, 0
2, 145920, Note_on_c, 0, 79, 79
2, 146040, Note_on_c, 0, 79, 0
2, 146040, Note_on_c, 0, 81, 79
2, 146160, Note_on_c, 0, 81, 0
2, 146160, Note_on_c, 0, 83, 79
2, 146280, Note_on_c, 0, 83, 0
2, 146280, Note_on_c, 0, 84, 79
2, 146400, Note_on_c, 0, 84, 0
2, 146400, Note_on_c, 0, 86, 79
2, 147360, Note_on_c, 0, 86, 0
2, 147360, Note_on_c, 0, 85, 79
2, 147840, Note_on_c, 0, 85, 0
2, 147840, Note_on_c, 0, 83, 79
2, 148320, Note_on_c, 0, 83, 0
2, 148320, Note_on_c, 0, 81, 79
2, 149040, Note_on_c, 0, 81, 0
2, 149040, Note_on_c, 0, 83, 79
2, 149280, Note_on_c, 0, 83, 0
2, 149280, Note_on_c, 0, 74, 79
2, 149760, Note_on_c, 0, 74, 0
2, 149760, Note_on_c, 0, 73, 79
2, 150240, Note_on_c, 0, 73, 0
2, 150240, Note_on_c, 0, 62, 79
2, 150360, Note_on_c, 0, 62, 0
2, 150360, Note_on_c, 0, 74, 79
2, 150480, Note_on_c, 0, 74, 0
2, 150480, Note_on_c, 0, 73, 79
2, 150600, Note_on_c, 0, 73, 0
2, 150600, Note_on_c, 0, 74, 79
2, 150720, Note_on_c, 0, 74, 0
2, 150720, Note_on_c, 0, 72, 79
2, 150840, Note_on_c, 0, 72, 0
2, 150840, Note_on_c, 0, 74, 79
2, 150960, Note_on_c, 0, 74, 0
2, 150960, Note_on_c, 0, 71, 79
2, 151080, Note_on_c, 0, 71, 0
2, 151080, Note_on_c, 0, 74, 79
2, 151200, Note_on_c, 0, 74, 0
2, 151200, Note_on_c, 0, 69, 79
2, 151320, Note_on_c, 0, 69, 0
2, 151320, Note_on_c, 0, 74, 79
2, 151440, Note_on_c, 0, 74, 0
2, 151440, Note_on_c, 0, 71, 79
2, 151560, Note_on_c, 0, 71, 0
2, 151560, Note_on_c, 0, 74, 79
2, 151680, Note_on_c, 0, 74, 0
2, 151680, Note_on_c, 0, 72, 79
2, 151800, Note_on_c, 0, 72, 0
2, 151800, Note_on_c, 0, 74, 79
2, 151920, Note_on_c, 0, 74, 0
2, 151920, Note_on_c, 0, 69, 79
2, 152040, Note_on_c, 0, 69, 0
2, 152040, Note_on_c, 0, 74, 79
2, 152160, Note_on_c, 0, 74, 0
2, 152160, Note_on_c, 0, 71, 79
2, 152640, Note_on_c, 0, 71, 0
2, 153240, Note_on_c, 0, 71, 79
2, 153360, Note_on_c, 0, 71, 0
2, 153360, Note_on_c, 0, 72, 79
2, 153480, Note_on_c, 0, 72, 0
2, 153480, Note_on_c, 0, 74, 79
2, 153600, Note_on_c, 0, 74, 0
2, 153600, Note_on_c, 0, 76, 79
2, 153720, Note_on_c, 0, 76, 0
2, 153720, Note_on_c, 0, 78, 79
2, 153840, Note_on_c, 0, 78, 0
2, 153840, Note_on_c, 0, 79, 79
2, 153960, Note_on_c, 0, 79, 0
2, 153960, Note_on_c, 0, 81, 79
2, 154080, Note_on_c, 0, 81, 0
2, 154080, Note_on_c, 0, 83, 79
2, 155040, Note_on_c, 0, 83, 0
2, 155040, Note_on_c, 0, 81, 79
2, 155520, Note_on_c, 0, 81, 0
2, 155520, Note_on_c, 0, 79, 79
2, 156000, Note_on_c, 0, 79, 0
2, 156000, Note_on_c, 0, 78, 79
2, 156720, Note_on_c, 0, 78, 0
2, 156720, Note_on_c, 0, 79, 79
2, 156960, Note_on_c, 0, 79, 0
2, 156960, Note_on_c, 0, 78, 79
2, 157440, Note_on_c, 0, 78, 0
2, 157440, Note_on_c, 0, 76, 79
2, 157920, Note_on_c, 0, 76, 0
2, 157920, Note_on_c, 0, 74, 79
2, 158400, Note_on_c, 0, 74, 0
2, 158400, Note_on_c, 0, 81, 79
2, 158520, Note_on_c, 0, 81, 0
2, 158520, Note_on_c, 0, 79, 79
2, 158640, Note_on_c, 0, 79, 0
2, 158640, Note_on_c, 0, 78, 79
2, 158760, Note_on_c, 0, 78, 0
2, 158760, Note_on_c, 0, 76, 79
2, 158880, Note_on_c, 0, 76, 0
2, 158880, Note_on_c, 0, 78, 79
2, 159120, Note_on_c, 0, 78, 0
2, 159120, Note_on_c, 0, 81, 79
2, 159360, Note_on_c, 0, 81, 0
2, 159600, Note_on_c, 0, 73, 79
2, 159840, Note_on_c, 0, 73, 0
2, 159840, Note_on_c, 0, 74, 79
2, 160320, Note_on_c, 0, 74, 0
2, 160320, Note_on_c, 0, 81, 79
2, 160440, Note_on_c, 0, 81, 0
2, 160440, Note_on_c, 0, 79, 79
2, 160560, Note_on_c, 0, 79, 0
2, 160560, Note_on_c, 0, 78, 79
2, 160680, Note_on_c, 0, 78, 0
2, 160680, Note_on_c, 0, 76, 79
2, 160800, Note_on_c, 0, 76, 0
2, 160800, Note_on_c, 0, 78, 79
2, 161040, Note_on_c, 0, 78, 0
2, 161040, Note_on_c, 0, 81, 79
2, 161280, Note_on_c, 0, 81, 0
2, 161520, Note_on_c, 0, 73, 79
2, 161760, Note_on_c, 0, 73, 0
2, 161760, Note_on_c, 0, 74, 79
2, 162240, Note_on_c, 0, 74, 0
2, 162240, Note_on_c, 0, 78, 79
2, 162720, Note_on_c, 0, 78, 0
2, 162720, Note_on_c, 0, 78, 79
2, 163200, Note_on_c, 0, 78, 0
2, 163680, Note_on_c, 0, 79, 79
2, 163728, Control_c, 0, 7, 124
2, 164160, Note_on_c, 0, 79, 0
2, 164160, Note_on_c, 0, 81, 79
2, 164220, Note_on_c, 0, 81, 0
2, 164220, Note_on_c, 0, 79, 79
2, 164280, Note_on_c, 0, 79, 0
2, 164280, Note_on_c, 0, 78, 79
2, 164400, Note_on_c, 0, 78, 0
2, 164400, Note_on_c, 0, 79, 79
2, 164495, Control_c, 0, 7, 110
2, 164520, Note_on_c, 0, 79, 0
2, 164520, Note_on_c, 0, 81, 79
2, 164640, Note_on_c, 0, 81, 0
2, 164640, Note_on_c, 0, 79, 79
2, 164880, Note_on_c, 0, 79, 0
2, 164880, Note_on_c, 0, 79, 79
2, 165120, Note_on_c, 0, 79, 0
2, 165120, Note_on_c, 0, 78, 79
2, 165360, Note_on_c, 0, 78, 0
2, 165360, Note_on_c, 0, 81, 79
2, 165600, Note_on_c, 0, 81, 0
2, 165600, Note_on_c, 0, 79, 79
2, 165840, Note_on_c, 0, 79, 0
2, 165840, Note_on_c, 0, 83, 79
2, 166080, Note_on_c, 0, 83, 0
2, 166080, Note_on_c, 0, 81, 79
2, 166320, Note_on_c, 0, 81, 0
2, 166320, Note_on_c, 0, 84, 79
2, 166560, Note_on_c, 0, 84, 0
2, 166560, Note_on_c, 0, 83, 79
2, 166800, Note_on_c, 0, 83, 0
2, 167520, Note_on_c, 0, 79, 79
2, 168480, Note_on_c, 0, 79, 0
2, 168480, Note_on_c, 0, 74, 79
2, 169440, Note_on_c, 0, 74, 0
2, 169440, Note_on_c, 0, 72, 79
2, 169680, Note_on_c, 0, 72, 0
2, 169680, Note_on_c, 0, 71, 79
2, 169920, Note_on_c, 0, 71, 0
2, 169920, Note_on_c, 0, 69, 79
2, 170160, Note_on_c, 0, 69, 0
2, 170160, Note_on_c, 0, 67, 79
2, 170400, Note_on_c, 0, 67, 0
2, 170400, Note_on_c, 0, 74, 79
2, 170880, Note_on_c, 0, 74, 0
2, 170880, Note_on_c, 0, 62, 79
2, 171360, Note_on_c, 0, 62, 0
2, 171360, Note_on_c, 0, 67, 79
2, 171840, Note_on_c, 0, 67, 0
2, 171840, Note_on_c, 0, 81, 79
2, 171900, Note_on_c, 0, 81, 0
2, 171900, Note_on_c, 0, 79, 79
2, 171960, Note_on_c, 0, 79, 0
2, 171960, Note_on_c, 0, 78, 79
2, 172080, Note_on_c, 0, 78, 0
2, 172080, Note_on_c, 0, 79, 79
2, 172200, Note_on_c, 0, 79, 0
2, 172200, Note_on_c, 0, 81, 79
2, 172320, Note_on_c, 0, 81, 0
2, 172320, Note_on_c, 0, 79, 79
2, 172560, Note_on_c, 0, 79, 0
2, 172560, Note_on_c, 0, 79, 79
2, 172800, Note_on_c, 0, 79, 0
2, 172800, Note_on_c, 0, 78, 79
2, 173040, Note_on_c, 0, 78, 0
2, 173040, Note_on_c, 0, 81, 79
2, 173280, Note_on_c, 0, 81, 0
2, 173280, Note_on_c, 0, 79, 79
2, 173520, Note_on_c, 0, 79, 0
2, 173520, Note_on_c, 0, 83, 79
2, 173760, Note_on_c, 0, 83, 0
2, 173760, Note_on_c, 0, 81, 79
2, 174000, Note_on_c, 0, 81, 0
2, 174000, Note_on_c, 0, 84, 79
2, 174240, Note_on_c, 0, 84, 0
2, 174240, Note_on_c, 0, 83, 79
2, 174480, Note_on_c, 0, 83, 0
2, 175200, Note_on_c, 0, 79, 79
2, 176160, Note_on_c, 0, 79, 0
2, 176160, Note_on_c, 0, 74, 79
2, 177120, Note_on_c, 0, 74, 0
2, 177120, Note_on_c, 0, 72, 79
2, 177360, Note_on_c, 0, 72, 0
2, 177360, Note_on_c, 0, 71, 79
2, 177600, Note_on_c, 0, 71, 0
2, 177600, Note_on_c, 0, 69, 79
2, 177840, Note_on_c, 0, 69, 0
2, 177840, Note_on_c, 0, 67, 79
2, 178080, Note_on_c, 0, 67, 0
2, 178080, Note_on_c, 0, 74, 79
2, 178560, Note_on_c, 0, 74, 0
2, 178560, Note_on_c, 0, 62, 79
2, 179040, Note_on_c, 0, 62, 0
2, 179040, Note_on_c, 0, 67, 79
2, 179520, Note_on_c, 0, 67, 0
2, 180000, Note_on_c, 0, 79, 79
2, 180720, Note_on_c, 0, 79, 0
2, 180720, Note_on_c, 0, 83, 79
2, 180840, Note_on_c, 0, 83, 0
2, 180840, Note_on_c, 0, 79, 79
2, 180960, Note_on_c, 0, 79, 0
2, 180960, Note_on_c, 0, 78, 79
2, 181440, Note_on_c, 0, 78, 0
2, 181920, Note_on_c, 0, 81, 79
2, 182640, Note_on_c, 0, 81, 0
2, 182640, Note_on_c, 0, 84, 79
2, 182760, Note_on_c, 0, 84, 0
2, 182760, Note_on_c, 0, 81, 79
2, 182880, Note_on_c, 0, 81, 0
2, 182880, Note_on_c, 0, 79, 79
2, 183360, Note_on_c, 0, 79, 0
2, 183840, Note_on_c, 0, 79, 79
2, 184560, Note_on_c, 0, 79, 0
2, 184560, Note_on_c, 0, 83, 79
2, 184680, Note_on_c, 0, 83, 0
2, 184680, Note_on_c, 0, 79, 79
2, 184800, Note_on_c, 0, 79, 0
2, 184800, Note_on_c, 0, 78, 79
2, 185280, Note_on_c, 0, 78, 0
2, 185760, Note_on_c, 0, 81, 79
2, 186480, Note_on_c, 0, 81, 0
2, 186480, Note_on_c, 0, 84, 79
2, 186600, Note_on_c, 0, 84, 0
2, 186600, Note_on_c, 0, 81, 79
2, 186720, Note_on_c, 0, 81, 0
2, 186720, Note_on_c, 0, 79, 79
2, 186960, Note_on_c, 0, 79, 0
2, 186960, Note_on_c, 0, 55, 79
2, 187200, Note_on_c, 0, 55, 0
2, 187200, Note_on_c, 0, 57, 79
2, 187440, Note_on_c, 0, 57, 0
2, 187440, Note_on_c, 0, 59, 79
2, 187680, Note_on_c, 0, 59, 0
2, 187680, Note_on_c, 0, 60, 79
2, 187920, Note_on_c, 0, 60, 0
2, 187920, Note_on_c, 0, 62, 79
2, 188160, Note_on_c, 0, 62, 0
2, 188160, Note_on_c, 0, 64, 79
2, 188400, Note_on_c, 0, 64, 0
2, 188400, Note_on_c, 0, 66, 79
2, 188640, Note_on_c, 0, 66, 0
2, 188640, Note_on_c, 0, 67, 79
2, 188880, Note_on_c, 0, 67, 0
2, 188880, Note_on_c, 0, 66, 79
2, 189120, Note_on_c, 0, 66, 0
2, 189120, Note_on_c, 0, 64, 79
2, 189360, Note_on_c, 0, 64, 0
2, 189360, Note_on_c, 0, 62, 79
2, 189600, Note_on_c, 0, 62, 0
2, 189600, Note_on_c, 0, 60, 79
2, 189840, Note_on_c, 0, 60, 0
2, 189840, Note_on_c, 0, 59, 79
2, 190080, Note_on_c, 0, 59, 0
2, 190080, Note_on_c, 0, 57, 79
2, 190320, Note_on_c, 0, 57, 0
2, 190320, Note_on_c, 0, 55, 79
2, 190560, Note_on_c, 0, 55, 0
2, 190560, Note_on_c, 0, 62, 79
2, 191040, Note_on_c, 0, 62, 0
2, 191040, Note_on_c, 0, 78, 79
2, 191520, Note_on_c, 0, 78, 0
2, 191520, Note_on_c, 0, 78, 79
2, 192000, Note_on_c, 0, 78, 0
2, 192480, Note_on_c, 0, 74, 79
2, 193440, Note_on_c, 0, 74, 0
2, 193440, Note_on_c, 0, 78, 79
2, 193920, Note_on_c, 0, 78, 0
2, 193920, Note_on_c, 0, 81, 79
2, 194400, Note_on_c, 0, 81, 0
2, 194400, Note_on_c, 0, 86, 79
2, 195840, Note_on_c, 0, 86, 0
2, 195840, Note_on_c, 0, 88, 79
2, 196320, Note_on_c, 0, 88, 0
2, 196320, Note_on_c, 0, 90, 79
2, 196800, Note_on_c, 0, 90, 0
2, 196800, Note_on_c, 0, 90, 79
2, 197760, Note_on_c, 0, 90, 0
2, 197760, Note_on_c, 0, 91, 79
2, 198000, Note_on_c, 0, 91, 0
2, 198000, Note_on_c, 0, 88, 79
2, 198240, Note_on_c, 0, 88, 0
2, 198240, Note_on_c, 0, 90, 79
2, 198720, Note_on_c, 0, 90, 0
2, 198720, Note_on_c, 0, 78, 79
2, 199680, Note_on_c, 0, 78, 0
2, 199680, Note_on_c, 0, 79, 79
2, 199920, Note_on_c, 0, 79, 0
2, 199920, Note_on_c, 0, 76, 79
2, 200160, Note_on_c, 0, 76, 0
2, 200160, Note_on_c, 0, 74, 79
2, 201120, Note_on_c, 0, 74, 0
2, 201120, Note_on_c, 0, 78, 79
2, 201600, Note_on_c, 0, 78, 0
2, 201600, Note_on_c, 0, 81, 79
2, 202080, Note_on_c, 0, 81, 0
2, 202080, Note_on_c, 0, 86, 79
2, 202200, Note_on_c, 0, 86, 0
2, 202200, Note_on_c, 0, 81, 79
2, 202320, Note_on_c, 0, 81, 0
2, 202320, Note_on_c, 0, 83, 79
2, 202440, Note_on_c, 0, 83, 0
2, 202440, Note_on_c, 0, 81, 79
2, 202560, Note_on_c, 0, 81, 0
2, 202560, Note_on_c, 0, 86, 79
2, 202680, Note_on_c, 0, 86, 0
2, 202680, Note_on_c, 0, 81, 79
2, 202800, Note_on_c, 0, 81, 0
2, 202800, Note_on_c, 0, 83, 79
2, 202920, Note_on_c, 0, 83, 0
2, 202920, Note_on_c, 0, 81, 79
2, 203040, Note_on_c, 0, 81, 0
2, 203040, Note_on_c, 0, 86, 79
2, 203280, Note_on_c, 0, 86, 0
2, 204000, Note_on_c, 0, 91, 79
2, 204480, Note_on_c, 0, 91, 0
2, 204480, Note_on_c, 0, 90, 79
2, 205440, Note_on_c, 0, 90, 0
2, 205440, Note_on_c, 0, 88, 79
2, 205920, Note_on_c, 0, 88, 0
2, 205920, Note_on_c, 0, 86, 79
2, 206040, Note_on_c, 0, 86, 0
2, 206040, Note_on_c, 0, 81, 79
2, 206160, Note_on_c, 0, 81, 0
2, 206160, Note_on_c, 0, 83, 79
2, 206280, Note_on_c, 0, 83, 0
2, 206280, Note_on_c, 0, 81, 79
2, 206400, Note_on_c, 0, 81, 0
2, 206400, Note_on_c, 0, 86, 79
2, 206520, Note_on_c, 0, 86, 0
2, 206520, Note_on_c, 0, 81, 79
2, 206640, Note_on_c, 0, 81, 0
2, 206640, Note_on_c, 0, 83, 79
2, 206760, Note_on_c, 0, 83, 0
2, 206760, Note_on_c, 0, 81, 79
2, 206880, Note_on_c, 0, 81, 0
2, 206880, Note_on_c, 0, 86, 79
2, 207120, Note_on_c, 0, 86, 0
2, 207840, Note_on_c, 0, 91, 79
2, 208320, Note_on_c, 0, 91, 0
2, 208320, Note_on_c, 0, 90, 79
2, 209280, Note_on_c, 0, 90, 0
2, 209280, Note_on_c, 0, 88, 79
2, 209760, Note_on_c, 0, 88, 0
2, 209760, Note_on_c, 0, 86, 79
2, 210240, Note_on_c, 0, 86, 0
2, 211800, Note_on_c, 0, 67, 79
2, 211920, Note_on_c, 0, 67, 0
2, 211920, Note_on_c, 0, 69, 79
2, 212040, Note_on_c, 0, 69, 0
2, 212040, Note_on_c, 0, 71, 79
2, 212160, Note_on_c, 0, 71, 0
2, 212160, Note_on_c, 0, 72, 79
2, 212280, Note_on_c, 0, 72, 0
2, 212280, Note_on_c, 0, 74, 79
2, 212400, Note_on_c, 0, 74, 0
2, 212400, Note_on_c, 0, 76, 79
2, 212520, Note_on_c, 0, 76, 0
2, 212520, Note_on_c, 0, 78, 79
2, 212640, Note_on_c, 0, 78, 0
2, 212640, Note_on_c, 0, 79, 79
2, 212760, Note_on_c, 0, 79, 0
2, 212760, Note_on_c, 0, 74, 79
2, 212880, Note_on_c, 0, 74, 0
2, 212880, Note_on_c, 0, 76, 79
2, 213000, Note_on_c, 0, 76, 0
2, 213000, Note_on_c, 0, 78, 79
2, 213120, Note_on_c, 0, 78, 0
2, 213120, Note_on_c, 0, 79, 79
2, 213240, Note_on_c, 0, 79, 0
2, 213240, Note_on_c, 0, 81, 79
2, 213360, Note_on_c, 0, 81, 0
2, 213360, Note_on_c, 0, 83, 79
2, 213480, Note_on_c, 0, 83, 0
2, 213480, Note_on_c, 0, 84, 79
2, 213600, Note_on_c, 0, 84, 0
2, 213600, Note_on_c, 0, 86, 79
2, 214560, Note_on_c, 0, 86, 0
2, 214560, Note_on_c, 0, 85, 79
2, 215040, Note_on_c, 0, 85, 0
2, 215040, Note_on_c, 0, 83, 79
2, 215520, Note_on_c, 0, 83, 0
2, 215520, Note_on_c, 0, 81, 79
2, 216240, Note_on_c, 0, 81, 0
2, 216240, Note_on_c, 0, 83, 79
2, 216480, Note_on_c, 0, 83, 0
2, 216480, Note_on_c, 0, 74, 79
2, 216960, Note_on_c, 0, 74, 0
2, 216960, Note_on_c, 0, 73, 79
2, 217440, Note_on_c, 0, 73, 0
2, 217440, Note_on_c, 0, 62, 79
2, 217560, Note_on_c, 0, 62, 0
2, 217560, Note_on_c, 0, 74, 79
2, 217680, Note_on_c, 0, 74, 0
2, 217680, Note_on_c, 0, 73, 79
2, 217800, Note_on_c, 0, 73, 0
2, 217800, Note_on_c, 0, 74, 79
2, 217920, Note_on_c, 0, 74, 0
2, 217920, Note_on_c, 0, 72, 79
2, 218040, Note_on_c, 0, 72, 0
2, 218040, Note_on_c, 0, 74, 79
2, 218160, Note_on_c, 0, 74, 0
2, 218160, Note_on_c, 0, 71, 79
2, 218280, Note_on_c, 0, 71, 0
2, 218280, Note_on_c, 0, 74, 79
2, 218400, Note_on_c, 0, 74, 0
2, 218400, Note_on_c, 0, 69, 79
2, 218520, Note_on_c, 0, 69, 0
2, 218520, Note_on_c, 0, 74, 79
2, 218640, Note_on_c, 0, 74, 0
2, 218640, Note_on_c, 0, 71, 79
2, 218760, Note_on_c, 0, 71, 0
2, 218760, Note_on_c, 0, 74, 79
2, 218880, Note_on_c, 0, 74, 0
2, 218880, Note_on_c, 0, 72, 79
2, 219000, Note_on_c, 0, 72, 0
2, 219000, Note_on_c, 0, 74, 79
2, 219120, Note_on_c, 0, 74, 0
2, 219120, Note_on_c, 0, 69, 79
2, 219240, Note_on_c, 0, 69, 0
2, 219240, Note_on_c, 0, 74, 79
2, 219360, Note_on_c, 0, 74, 0
2, 219360, Note_on_c, 0, 71, 79
2, 219840, Note_on_c, 0, 71, 0
2, 220440, Note_on_c, 0, 71, 79
2, 220560, Note_on_c, 0, 71, 0
2, 220560, Note_on_c, 0, 72, 79
2, 220680, Note_on_c, 0, 72, 0
2, 220680, Note_on_c, 0, 74, 79
2, 220800, Note_on_c, 0, 74, 0
2, 220800, Note_on_c, 0, 76, 79
2, 220920, Note_on_c, 0, 76, 0
2, 220920, Note_on_c, 0, 78, 79
2, 221040, Note_on_c, 0, 78, 0
2, 221040, Note_on_c, 0, 79, 79
2, 221160, Note_on_c, 0, 79, 0
2, 221160, Note_on_c, 0, 81, 79
2, 221280, Note_on_c, 0, 81, 0
2, 221280, Note_on_c, 0, 83, 79
2, 222240, Note_on_c, 0, 83, 0
2, 222240, Note_on_c, 0, 81, 79
2, 222720, Note_on_c, 0, 81, 0
2, 222720, Note_on_c, 0, 79, 79
2, 223200, Note_on_c, 0, 79, 0
2, 223200, Note_on_c, 0, 78, 79
2, 223920, Note_on_c, 0, 78, 0
2, 223920, Note_on_c, 0, 79, 79
2, 224160, Note_on_c, 0, 79, 0
2, 224160, Note_on_c, 0, 78, 79
2, 224640, Note_on_c, 0, 78, 0
2, 224640, Note_on_c, 0, 76, 79
2, 225120, Note_on_c, 0, 76, 0
2, 225120, Note_on_c, 0, 74, 79
2, 225600, Note_on_c, 0, 74, 0
2, 225600, Note_on_c, 0, 81, 79
2, 225720, Note_on_c, 0, 81, 0
2, 225720, Note_on_c, 0, 79, 79
2, 225840, Note_on_c, 0, 79, 0
2, 225840, Note_on_c, 0, 78, 79
2, 225960, Note_on_c, 0, 78, 0
2, 225960, Note_on_c, 0, 76, 79
2, 226080, Note_on_c, 0, 76, 0
2, 226080, Note_on_c, 0, 78, 79
2, 226320, Note_on_c, 0, 78, 0
2, 226320, Note_on_c, 0, 81, 79
2, 226560, Note_on_c, 0, 81, 0
2, 226800, Note_on_c, 0, 73, 79
2, 227040, Note_on_c, 0, 73, 0
2, 227040, Note_on_c, 0, 74, 79
2, 227520, Note_on_c, 0, 74, 0
2, 227520, Note_on_c, 0, 81, 79
2, 227640, Note_on_c, 0, 81, 0
2, 227640, Note_on_c, 0, 79, 79
2, 227760, Note_on_c, 0, 79, 0
2, 227760, Note_on_c, 0, 78, 79
2, 227880, Note_on_c, 0, 78, 0
2, 227880, Note_on_c, 0, 76, 79
2, 228000, Note_on_c, 0, 76, 0
2, 228000, Note_on_c, 0, 78, 79
2, 228240, Note_on_c, 0, 78, 0
2, 228240, Note_on_c, 0, 81, 79
2, 228480, Note_on_c, 0, 81, 0
2, 228720, Note_on_c, 0, 73, 79
2, 228960, Note_on_c, 0, 73, 0
2, 228960, Note_on_c, 0, 74, 79
2, 229440, Note_on_c, 0, 74, 0
2, 229440, Note_on_c, 0, 78, 79
2, 229920, Note_on_c, 0, 78, 0
2, 229920, Note_on_c, 0, 78, 79
2, 230400, Note_on_c, 0, 78, 0
2, 230880, Note_on_c, 0, 74, 79
2, 232800, Note_on_c, 0, 74, 0
2, 232800, Note_on_c, 0, 76, 79
2, 234720, Note_on_c, 0, 76, 0
2, 234720, Note_on_c, 0, 78, 79
2, 236640, Note_on_c, 0, 78, 0
2, 236640, Note_on_c, 0, 79, 79
2, 238560, Note_on_c, 0, 79, 0
2, 238560, Note_on_c, 0, 78, 79
2, 240480, Note_on_c, 0, 78, 0
2, 240480, Note_on_c, 0, 76, 79
2, 242400, Note_on_c, 0, 76, 0
2, 242400, Note_on_c, 0, 78, 79
2, 242640, Note_on_c, 0, 78, 0
2, 242640, Note_on_c, 0, 79, 79
2, 242880, Note_on_c, 0, 79, 0
2, 242880, Note_on_c, 0, 78, 79
2, 243120, Note_on_c, 0, 78, 0
2, 243120, Note_on_c, 0, 76, 79
2, 243360, Note_on_c, 0, 76, 0
2, 243360, Note_on_c, 0, 74, 79
2, 243600, Note_on_c, 0, 74, 0
2, 243600, Note_on_c, 0, 72, 79
2, 243840, Note_on_c, 0, 72, 0
2, 243840, Note_on_c, 0, 71, 79
2, 244080, Note_on_c, 0, 71, 0
2, 244080, Note_on_c, 0, 69, 79
2, 244320, Note_on_c, 0, 69, 0
2, 244320, Note_on_c, 0, 71, 79
2, 244560, Note_on_c, 0, 71, 0
2, 244560, Note_on_c, 0, 72, 79
2, 244800, Note_on_c, 0, 72, 0
2, 244800, Note_on_c, 0, 74, 79
2, 245040, Note_on_c, 0, 74, 0
2, 245040, Note_on_c, 0, 76, 79
2, 245280, Note_on_c, 0, 76, 0
2, 245280, Note_on_c, 0, 78, 79
2, 245520, Note_on_c, 0, 78, 0
2, 245520, Note_on_c, 0, 79, 79
2, 245760, Note_on_c, 0, 79, 0
2, 245760, Note_on_c, 0, 81, 79
2, 246000, Note_on_c, 0, 81, 0
2, 246000, Note_on_c, 0, 83, 79
2, 246240, Note_on_c, 0, 83, 0
2, 246240, Note_on_c, 0, 84, 79
2, 247200, Note_on_c, 0, 84, 0
2, 247200, Note_on_c, 0, 84, 79
2, 247440, Note_on_c, 0, 84, 0
2, 247440, Note_on_c, 0, 81, 79
2, 247680, Note_on_c, 0, 81, 0
2, 247680, Note_on_c, 0, 86, 79
2, 247920, Note_on_c, 0, 86, 0
2, 247920, Note_on_c, 0, 85, 79
2, 248160, Note_on_c, 0, 85, 0
2, 248160, Note_on_c, 0, 86, 79
2, 248400, Note_on_c, 0, 86, 0
2, 248400, Note_on_c, 0, 84, 79
2, 248640, Note_on_c, 0, 84, 0
2, 248640, Note_on_c, 0, 83, 79
2, 248880, Note_on_c, 0, 83, 0
2, 248880, Note_on_c, 0, 81, 79
2, 249120, Note_on_c, 0, 81, 0
2, 249120, Note_on_c, 0, 79, 79
2, 249360, Note_on_c, 0, 79, 0
2, 249360, Note_on_c, 0, 78, 79
2, 249600, Note_on_c, 0, 78, 0
2, 249600, Note_on_c, 0, 76, 79
2, 249840, Note_on_c, 0, 76, 0
2, 249840, Note_on_c, 0, 74, 79
2, 250080, Note_on_c, 0, 74, 0
2, 250080, Note_on_c, 0, 76, 79
2, 250800, Note_on_c, 0, 76, 0
2, 250800, Note_on_c, 0, 74, 79
2, 251040, Note_on_c, 0, 74, 0
2, 251040, Note_on_c, 0, 72, 79
2, 251280, Note_on_c, 0, 72, 0
2, 251280, Note_on_c, 0, 74, 79
2, 251520, Note_on_c, 0, 74, 0
2, 251520, Note_on_c, 0, 72, 79
2, 251760, Note_on_c, 0, 72, 0
2, 251760, Note_on_c, 0, 71, 79
2, 252000, Note_on_c, 0, 71, 0
2, 252000, Note_on_c, 0, 69, 79
2, 252480, Note_on_c, 0, 69, 0
2, 252720, Note_on_c, 0, 72, 79
2, 252960, Note_on_c, 0, 72, 0
2, 252960, Note_on_c, 0, 72, 79
2, 253200, Note_on_c, 0, 72, 0
2, 253200, Note_on_c, 0, 71, 79
2, 253440, Note_on_c, 0, 71, 0
2, 253680, Note_on_c, 0, 79, 79
2, 253920, Note_on_c, 0, 79, 0
2, 253920, Control_c, 0, 7, 104
2, 253920, Note_on_c, 0, 78, 79
2, 254400, Note_on_c, 0, 78, 0
2, 254640, Note_on_c, 0, 72, 79
2, 254880, Note_on_c, 0, 72, 0
2, 254880, Note_on_c, 0, 72, 79
2, 255120, Note_on_c, 0, 72, 0
2, 255120, Note_on_c, 0, 71, 79
2, 255360, Note_on_c, 0, 71, 0
2, 255600, Note_on_c, 0, 79, 79
2, 255840, Note_on_c, 0, 79, 0
2, 255840, Note_on_c, 0, 78, 79
2, 256320, Note_on_c, 0, 78, 0
2, 256320, Note_on_c, 0, 78, 79
2, 256800, Note_on_c, 0, 78, 0
2, 256800, Note_on_c, 0, 78, 79
2, 257280, Note_on_c, 0, 78, 0
2, 257760, Note_on_c, 0, 79, 79
2, 258240, Note_on_c, 0, 79, 0
2, 258240, Note_on_c, 0, 81, 79
2, 258300, Note_on_c, 0, 81, 0
2, 258300, Note_on_c, 0, 79, 79
2, 258360, Note_on_c, 0, 79, 0
2, 258360, Note_on_c, 0, 78, 79
2, 258480, Note_on_c, 0, 78, 0
2, 258480, Note_on_c, 0, 79, 79
2, 258600, Note_on_c, 0, 79, 0
2, 258600, Note_on_c, 0, 81, 79
2, 258720, Note_on_c, 0, 81, 0
2, 258720, Note_on_c, 0, 79, 79
2, 258960, Note_on_c, 0, 79, 0
2, 258960, Note_on_c, 0, 79, 79
2, 259200, Note_on_c, 0, 79, 0
2, 259200, Note_on_c, 0, 78, 79
2, 259440, Note_on_c, 0, 78, 0
2, 259440, Note_on_c, 0, 81, 79
2, 259680, Note_on_c, 0, 81, 0
2, 259680, Note_on_c, 0, 79, 79
2, 259920, Note_on_c, 0, 79, 0
2, 259920, Note_on_c, 0, 83, 79
2, 260160, Note_on_c, 0, 83, 0
2, 260160, Note_on_c, 0, 81, 79
2, 260400, Note_on_c, 0, 81, 0
2, 260400, Note_on_c, 0, 84, 79
2, 260640, Note_on_c, 0, 84, 0
2, 260640, Note_on_c, 0, 83, 79
2, 260880, Note_on_c, 0, 83, 0
2, 261600, Note_on_c, 0, 79, 79
2, 262560, Note_on_c, 0, 79, 0
2, 262560, Note_on_c, 0, 74, 79
2, 263520, Note_on_c, 0, 74, 0
2, 263520, Note_on_c, 0, 76, 79
2, 263760, Note_on_c, 0, 76, 0
2, 263760, Note_on_c, 0, 74, 79
2, 264000, Note_on_c, 0, 74, 0
2, 264000, Note_on_c, 0, 69, 79
2, 264240, Note_on_c, 0, 69, 0
2, 264240, Note_on_c, 0, 67, 79
2, 264480, Note_on_c, 0, 67, 0
2, 264480, Note_on_c, 0, 74, 79
2, 264960, Note_on_c, 0, 74, 0
2, 264960, Note_on_c, 0, 62, 79
2, 265440, Note_on_c, 0, 62, 0
2, 265440, Note_on_c, 0, 67, 79
2, 265920, Note_on_c, 0, 67, 0
2, 265920, Note_on_c, 0, 79, 79
2, 266040, Note_on_c, 0, 79, 0
2, 266040, Note_on_c, 0, 78, 79
2, 266160, Note_on_c, 0, 78, 0
2, 266160, Note_on_c, 0, 79, 79
2, 266280, Note_on_c, 0, 79, 0
2, 266280, Note_on_c, 0, 81, 79
2, 266400, Note_on_c, 0, 81, 0
2, 266400, Note_on_c, 0, 79, 79
2, 266640, Note_on_c, 0, 79, 0
2, 266640, Note_on_c, 0, 79, 79
2, 266880, Note_on_c, 0, 79, 0
2, 266880, Note_on_c, 0, 78, 79
2, 267120, Note_on_c, 0, 78, 0
2, 267120, Note_on_c, 0, 81, 79
2, 267360, Note_on_c, 0, 81, 0
2, 267360, Note_on_c, 0, 79, 79
2, 267600, Note_on_c, 0, 79, 0
2, 267600, Note_on_c, 0, 83, 79
2, 267840, Note_on_c, 0, 83, 0
2, 267840, Note_on_c, 0, 81, 79
2, 268080, Note_on_c, 0, 81, 0
2, 268080, Note_on_c, 0, 84, 79
2, 268320, Note_on_c, 0, 84, 0
2, 268320, Note_on_c, 0, 83, 79
2, 268560, Note_on_c, 0, 83, 0
2, 269280, Note_on_c, 0, 79, 79
2, 270240, Note_on_c, 0, 79, 0
2, 270240, Note_on_c, 0, 74, 79
2, 271200, Note_on_c, 0, 74, 0
2, 271200, Note_on_c, 0, 72, 79
2, 271260, Note_on_c, 0, 72, 0
2, 271260, Note_on_c, 0, 71, 79
2, 271320, Note_on_c, 0, 71, 0
2, 271320, Note_on_c, 0, 71, 79
2, 271680, Note_on_c, 0, 71, 0
2, 271680, Note_on_c, 0, 69, 79
2, 271920, Note_on_c, 0, 69, 0
2, 271920, Note_on_c, 0, 67, 79
2, 272160, Note_on_c, 0, 67, 0
2, 272160, Note_on_c, 0, 74, 79
2, 272640, Note_on_c, 0, 74, 0
2, 272640, Note_on_c, 0, 62, 79
2, 273120, Note_on_c, 0, 62, 0
2, 273120, Note_on_c, 0, 67, 79
2, 273600, Note_on_c, 0, 67, 0
2, 274080, Note_on_c, 0, 79, 79
2, 274800, Note_on_c, 0, 79, 0
2, 274800, Note_on_c, 0, 83, 79
2, 274920, Note_on_c, 0, 83, 0
2, 274920, Note_on_c, 0, 79, 79
2, 275040, Note_on_c, 0, 79, 0
2, 275040, Note_on_c, 0, 78, 79
2, 275520, Note_on_c, 0, 78, 0
2, 276000, Note_on_c, 0, 81, 79
2, 276720, Note_on_c, 0, 81, 0
2, 276720, Note_on_c, 0, 84, 79
2, 276840, Note_on_c, 0, 84, 0
2, 276840, Note_on_c, 0, 81, 79
2, 276960, Note_on_c, 0, 81, 0
2, 276960, Note_on_c, 0, 79, 79
2, 277440, Note_on_c, 0, 79, 0
2, 277920, Note_on_c, 0, 79, 79
2, 278640, Note_on_c, 0, 79, 0
2, 278640, Note_on_c, 0, 83, 79
2, 278760, Note_on_c, 0, 83, 0
2, 278760, Note_on_c, 0, 79, 79
2, 278880, Note_on_c, 0, 79, 0
2, 278880, Note_on_c, 0, 78, 79
2, 279360, Note_on_c, 0, 78, 0
2, 279840, Note_on_c, 0, 81, 79
2, 280560, Note_on_c, 0, 81, 0
2, 280560, Note_on_c, 0, 84, 79
2, 280680, Note_on_c, 0, 84, 0
2, 280680, Note_on_c, 0, 81, 79
2, 280800, Note_on_c, 0, 81, 0
2, 280800, Note_on_c, 0, 79, 79
2, 281040, Note_on_c, 0, 79, 0
2, 281040, Note_on_c, 0, 55, 79
2, 281280, Note_on_c, 0, 55, 0
2, 281280, Note_on_c, 0, 57, 79
2, 281520, Note_on_c, 0, 57, 0
2, 281520, Note_on_c, 0, 59, 79
2, 281760, Note_on_c, 0, 59, 0
2, 281760, Note_on_c, 0, 60, 79
2, 282000, Note_on_c, 0, 60, 0
2, 282000, Note_on_c, 0, 62, 79
2, 282240, Note_on_c, 0, 62, 0
2, 282240, Note_on_c, 0, 64, 79
2, 282480, Note_on_c, 0, 64, 0
2, 282480, Note_on_c, 0, 66, 79
2, 282720, Note_on_c, 0, 66, 0
2, 282720, Note_on_c, 0, 67, 79
2, 282960, Note_on_c, 0, 67, 0
2, 282960, Note_on_c, 0, 66, 79
2, 283200, Note_on_c, 0, 66, 0
2, 283200, Note_on_c, 0, 64, 79
2, 283440, Note_on_c, 0, 64, 0
2, 283440, Note_on_c, 0, 62, 79
2, 283680, Note_on_c, 0, 62, 0
2, 283680, Note_on_c, 0, 60, 79
2, 283920, Note_on_c, 0, 60, 0
2, 283920, Note_on_c, 0, 59, 79
2, 284160, Note_on_c, 0, 59, 0
2, 284160, Note_on_c, 0, 57, 79
2, 284400, Note_on_c, 0, 57, 0
2, 284400, Note_on_c, 0, 55, 79
2, 284640, Note_on_c, 0, 55, 0
2, 284640, Note_on_c, 0, 62, 79
2, 285120, Note_on_c, 0, 62, 0
2, 285120, Note_on_c, 0, 78, 79
2, 285600, Note_on_c, 0, 78, 0
2, 285600, Note_on_c, 0, 78, 79
2, 286080, Note_on_c, 0, 78, 0
2, 286560, Note_on_c, 0, 67, 79
2, 287520, Note_on_c, 0, 67, 0
2, 287520, Note_on_c, 0, 71, 79
2, 288000, Note_on_c, 0, 71, 0
2, 288000, Note_on_c, 0, 74, 79
2, 288480, Note_on_c, 0, 74, 0
2, 288480, Note_on_c, 0, 79, 79
2, 288960, Note_on_c, 0, 79, 0
2, 288960, Note_on_c, 0, 79, 79
2, 289920, Note_on_c, 0, 79, 0
2, 289920, Note_on_c, 0, 81, 79
2, 290400, Note_on_c, 0, 81, 0
2, 290400, Note_on_c, 0, 83, 79
2, 290880, Note_on_c, 0, 83, 0
2, 290880, Note_on_c, 0, 83, 79
2, 291840, Note_on_c, 0, 83, 0
2, 291840, Note_on_c, 0, 84, 79
2, 292080, Note_on_c, 0, 84, 0
2, 292080, Note_on_c, 0, 81, 79
2, 292320, Note_on_c, 0, 81, 0
2, 292320, Note_on_c, 0, 83, 79
2, 292800, Note_on_c, 0, 83, 0
2, 292800, Note_on_c, 0, 71, 79
2, 293760, Note_on_c, 0, 71, 0
2, 293760, Note_on_c, 0, 72, 79
2, 294000, Note_on_c, 0, 72, 0
2, 294000, Note_on_c, 0, 69, 79
2, 294240, Note_on_c, 0, 69, 0
2, 294240, Note_on_c, 0, 67, 79
2, 295200, Note_on_c, 0, 67, 0
2, 295200, Note_on_c, 0, 71, 79
2, 295680, Note_on_c, 0, 71, 0
2, 295680, Note_on_c, 0, 74, 79
2, 296160, Note_on_c, 0, 74, 0
2, 296160, Note_on_c, 0, 79, 79
2, 296280, Note_on_c, 0, 79, 0
2, 296280, Note_on_c, 0, 74, 79
2, 296400, Note_on_c, 0, 74, 0
2, 296400, Note_on_c, 0, 76, 79
2, 296520, Note_on_c, 0, 76, 0
2, 296520, Note_on_c, 0, 74, 79
2, 296640, Note_on_c, 0, 74, 0
2, 296640, Note_on_c, 0, 79, 79
2, 296760, Note_on_c, 0, 79, 0
2, 296760, Note_on_c, 0, 74, 79
2, 296880, Note_on_c, 0, 74, 0
2, 296880, Note_on_c, 0, 76, 79
2, 297000, Note_on_c, 0, 76, 0
2, 297000, Note_on_c, 0, 74, 79
2, 297120, Note_on_c, 0, 74, 0
2, 297120, Note_on_c, 0, 79, 79
2, 297360, Note_on_c, 0, 79, 0
2, 298080, Note_on_c, 0, 84, 79
2, 298560, Note_on_c, 0, 84, 0
2, 298560, Note_on_c, 0, 83, 79
2, 299520, Note_on_c, 0, 83, 0
2, 299520, Note_on_c, 0, 81, 79
2, 300000, Note_on_c, 0, 81, 0
2, 300000, Note_on_c, 0, 79, 79
2, 300120, Note_on_c, 0, 79, 0
2, 300120, Note_on_c, 0, 74, 79
2, 300240, Note_on_c, 0, 74, 0
2, 300240, Note_on_c, 0, 76, 79
2, 300360, Note_on_c, 0, 76, 0
2, 300360, Note_on_c, 0, 74, 79
2, 300480, Note_on_c, 0, 74, 0
2, 300480, Note_on_c, 0, 79, 79
2, 300600, Note_on_c, 0, 79, 0
2, 300600, Note_on_c, 0, 74, 79
2, 300720, Note_on_c, 0, 74, 0
2, 300720, Note_on_c, 0, 76, 79
2, 300840, Note_on_c, 0, 76, 0
2, 300840, Note_on_c, 0, 74, 79
2, 300960, Note_on_c, 0, 74, 0
2, 300960, Note_on_c, 0, 79, 79
2, 301440, Note_on_c, 0, 79, 0
2, 301920, Note_on_c, 0, 84, 79
2, 302400, Note_on_c, 0, 84, 0
2, 302400, Note_on_c, 0, 83, 79
2, 303360, Note_on_c, 0, 83, 0
2, 303360, Note_on_c, 0, 81, 79
2, 303840, Note_on_c, 0, 81, 0
2, 303840, Note_on_c, 0, 79, 79
2, 304320, Note_on_c, 0, 79, 0
2, 305880, Note_on_c, 0, 60, 79
2, 306000, Note_on_c, 0, 60, 0
2, 306000, Note_on_c, 0, 62, 79
2, 306120, Note_on_c, 0, 62, 0
2, 306120, Note_on_c, 0, 64, 79
2, 306240, Note_on_c, 0, 64, 0
2, 306240, Note_on_c, 0, 65, 79
2, 306360, Note_on_c, 0, 65, 0
2, 306360, Note_on_c, 0, 67, 79
2, 306480, Note_on_c, 0, 67, 0
2, 306480, Note_on_c, 0, 69, 79
2, 306600, Note_on_c, 0, 69, 0
2, 306600, Note_on_c, 0, 71, 79
2, 306720, Note_on_c, 0, 71, 0
2, 306720, Note_on_c, 0, 72, 79
2, 306840, Note_on_c, 0, 72, 0
2, 306840, Note_on_c, 0, 76, 79
2, 306960, Note_on_c, 0, 76, 0
2, 306960, Note_on_c, 0, 77, 79
2, 307080, Note_on_c, 0, 77, 0
2, 307080, Note_on_c, 0, 79, 79
2, 307200, Note_on_c, 0, 79, 0
2, 307200, Note_on_c, 0, 81, 79
2, 307320, Note_on_c, 0, 81, 0
2, 307320, Note_on_c, 0, 83, 79
2, 307440, Note_on_c, 0, 83, 0
2, 307440, Note_on_c, 0, 84, 79
2, 307560, Note_on_c, 0, 84, 0
2, 307560, Note_on_c, 0, 86, 79
2, 307680, Note_on_c, 0, 86, 0
2, 307680, Note_on_c, 0, 88, 79
2, 308640, Note_on_c, 0, 88, 0
2, 308640, Note_on_c, 0, 86, 79
2, 309120, Note_on_c, 0, 86, 0
2, 309120, Note_on_c, 0, 84, 79
2, 309600, Note_on_c, 0, 84, 0
2, 309600, Note_on_c, 0, 83, 79
2, 310320, Note_on_c, 0, 83, 0
2, 310320, Note_on_c, 0, 84, 79
2, 310440, Note_on_c, 0, 84, 0
2, 310440, Note_on_c, 0, 86, 79
2, 310560, Note_on_c, 0, 86, 0
2, 310560, Note_on_c, 0, 79, 79
2, 311040, Note_on_c, 0, 79, 0
2, 311040, Note_on_c, 0, 78, 79
2, 311520, Note_on_c, 0, 78, 0
2, 311520, Note_on_c, 0, 67, 79
2, 311640, Note_on_c, 0, 67, 0
2, 311640, Note_on_c, 0, 79, 79
2, 311760, Note_on_c, 0, 79, 0
2, 311760, Note_on_c, 0, 78, 79
2, 311880, Note_on_c, 0, 78, 0
2, 311880, Note_on_c, 0, 79, 79
2, 312000, Note_on_c, 0, 79, 0
2, 312000, Note_on_c, 0, 77, 79
2, 312120, Note_on_c, 0, 77, 0
2, 312120, Note_on_c, 0, 79, 79
2, 312240, Note_on_c, 0, 79, 0
2, 312240, Note_on_c, 0, 76, 79
2, 312360, Note_on_c, 0, 76, 0
2, 312360, Note_on_c, 0, 79, 79
2, 312480, Note_on_c, 0, 79, 0
2, 312480, Note_on_c, 0, 74, 79
2, 312600, Note_on_c, 0, 74, 0
2, 312600, Note_on_c, 0, 79, 79
2, 312720, Note_on_c, 0, 79, 0
2, 312720, Note_on_c, 0, 76, 79
2, 312840, Note_on_c, 0, 76, 0
2, 312840, Note_on_c, 0, 79, 79
2, 312960, Note_on_c, 0, 79, 0
2, 312960, Note_on_c, 0, 77, 79
2, 313080, Note_on_c, 0, 77, 0
2, 313080, Note_on_c, 0, 79, 79
2, 313200, Note_on_c, 0, 79, 0
2, 313200, Note_on_c, 0, 74, 79
2, 313320, Note_on_c, 0, 74, 0
2, 313320, Note_on_c, 0, 79, 79
2, 313440, Note_on_c, 0, 79, 0
2, 313440, Note_on_c, 0, 76, 79
2, 313920, Note_on_c, 0, 76, 0
2, 314520, Note_on_c, 0, 72, 79
2, 314640, Note_on_c, 0, 72, 0
2, 314640, Note_on_c, 0, 74, 79
2, 314760, Note_on_c, 0, 74, 0
2, 314760, Note_on_c, 0, 76, 79
2, 314880, Note_on_c, 0, 76, 0
2, 314880, Note_on_c, 0, 77, 79
2, 315000, Note_on_c, 0, 77, 0
2, 315000, Note_on_c, 0, 79, 79
2, 315120, Note_on_c, 0, 79, 0
2, 315120, Note_on_c, 0, 81, 79
2, 315240, Note_on_c, 0, 81, 0
2, 315240, Note_on_c, 0, 83, 79
2, 315360, Note_on_c, 0, 83, 0
2, 315360, Note_on_c, 0, 84, 79
2, 316320, Note_on_c, 0, 84, 0
2, 316320, Note_on_c, 0, 83, 79
2, 316800, Note_on_c, 0, 83, 0
2, 316800, Note_on_c, 0, 81, 79
2, 317280, Note_on_c, 0, 81, 0
2, 317280, Note_on_c, 0, 79, 79
2, 318000, Note_on_c, 0, 79, 0
2, 318000, Note_on_c, 0, 81, 79
2, 318120, Note_on_c, 0, 81, 0
2, 318120, Note_on_c, 0, 83, 79
2, 318240, Note_on_c, 0, 83, 0
2, 318240, Note_on_c, 0, 79, 79
2, 318720, Note_on_c, 0, 79, 0
2, 318720, Note_on_c, 0, 78, 79
2, 319200, Note_on_c, 0, 78, 0
2, 319200, Note_on_c, 0, 79, 79
2, 319680, Note_on_c, 0, 79, 0
2, 319680, Note_on_c, 0, 86, 79
2, 319800, Note_on_c, 0, 86, 0
2, 319800, Note_on_c, 0, 84, 79
2, 319920, Note_on_c, 0, 84, 0
2, 319920, Note_on_c, 0, 83, 79
2, 320040, Note_on_c, 0, 83, 0
2, 320040, Note_on_c, 0, 81, 79
2, 320160, Note_on_c, 0, 81, 0
2, 320160, Note_on_c, 0, 83, 79
2, 320400, Note_on_c, 0, 83, 0
2, 320400, Note_on_c, 0, 86, 79
2, 320640, Note_on_c, 0, 86, 0
2, 320880, Note_on_c, 0, 78, 79
2, 321120, Note_on_c, 0, 78, 0
2, 321120, Note_on_c, 0, 79, 79
2, 321600, Note_on_c, 0, 79, 0
2, 321600, Note_on_c, 0, 86, 79
2, 321720, Note_on_c, 0, 86, 0
2, 321720, Note_on_c, 0, 84, 79
2, 321840, Note_on_c, 0, 84, 0
2, 321840, Note_on_c, 0, 83, 79
2, 321960, Note_on_c, 0, 83, 0
2, 321960, Note_on_c, 0, 81, 79
2, 322080, Note_on_c, 0, 81, 0
2, 322080, Note_on_c, 0, 83, 79
2, 322320, Note_on_c, 0, 83, 0
2, 322320, Note_on_c, 0, 86, 79
2, 322560, Note_on_c, 0, 86, 0
2, 322800, Note_on_c, 0, 78, 79
2, 323040, Note_on_c, 0, 78, 0
2, 323040, Note_on_c, 0, 79, 79
2, 323520, Note_on_c, 0, 79, 0
2, 323520, Note_on_c, 0, 79, 79
2, 324000, Note_on_c, 0, 79, 0
2, 324000, Note_on_c, 0, 79, 79
2, 324480, Note_on_c, 0, 79, 0
2, 324960, Note_on_c, 0, 74, 79
2, 326400, Note_on_c, 0, 74, 0
2, 326400, Note_on_c, 0, 84, 79
2, 327840, Note_on_c, 0, 84, 0
2, 327840, Note_on_c, 0, 83, 79
2, 328080, Note_on_c, 0, 83, 0
2, 328320, Note_on_c, 0, 86, 79
2, 328560, Note_on_c, 0, 86, 0
2, 328560, Note_on_c, 0, 84, 79
2, 328800, Note_on_c, 0, 84, 0
2, 328800, Note_on_c, 0, 83, 79
2, 329040, Note_on_c, 0, 83, 0
2, 329040, Note_on_c, 0, 81, 79
2, 329280, Note_on_c, 0, 81, 0
2, 329280, Note_on_c, 0, 79, 79
2, 330240, Note_on_c, 0, 79, 0
2, 330240, Note_on_c, 0, 78, 79
2, 330720, Note_on_c, 0, 78, 0
2, 330720, Note_on_c, 0, 79, 79
2, 331200, Note_on_c, 0, 79, 0
2, 331200, Note_on_c, 0, 81, 79
2, 331680, Note_on_c, 0, 81, 0
2, 331680, Note_on_c, 0, 83, 79
2, 332160, Note_on_c, 0, 83, 0
2, 332160, Note_on_c, 0, 84, 79
2, 332400, Note_on_c, 0, 84, 0
2, 332640, Note_on_c, 0, 72, 79
2, 333120, Note_on_c, 0, 72, 0
2, 333120, Note_on_c, 0, 71, 79
2, 333600, Note_on_c, 0, 71, 0
2, 333600, Note_on_c, 0, 69, 79
2, 333840, Note_on_c, 0, 69, 0
2, 333840, Note_on_c, 0, 71, 79
2, 334080, Note_on_c, 0, 71, 0
2, 334080, Note_on_c, 0, 67, 79
2, 334320, Note_on_c, 0, 67, 0
2, 334560, Note_on_c, 0, 66, 79
2, 334800, Note_on_c, 0, 66, 0
2, 335040, Note_on_c, 0, 67, 79
2, 336000, Note_on_c, 0, 67, 0
2, 336480, Note_on_c, 0, 74, 79
2, 337920, Note_on_c, 0, 74, 0
2, 337920, Note_on_c, 0, 84, 79
2, 339360, Note_on_c, 0, 84, 0
2, 339360, Note_on_c, 0, 83, 79
2, 339600, Note_on_c, 0, 83, 0
2, 339840, Note_on_c, 0, 86, 79
2, 340080, Note_on_c, 0, 86, 0
2, 340080, Note_on_c, 0, 84, 79
2, 340320, Note_on_c, 0, 84, 0
2, 340320, Note_on_c, 0, 83, 79
2, 340560, Note_on_c, 0, 83, 0
2, 340560, Note_on_c, 0, 81, 79
2, 340800, Note_on_c, 0, 81, 0
2, 340800, Note_on_c, 0, 79, 79
2, 341760, Note_on_c, 0, 79, 0
2, 341760, Note_on_c, 0, 78, 79
2, 342240, Note_on_c, 0, 78, 0
2, 342240, Note_on_c, 0, 79, 79
2, 342720, Note_on_c, 0, 79, 0
2, 342720, Note_on_c, 0, 81, 79
2, 343200, Note_on_c, 0, 81, 0
2, 343200, Note_on_c, 0, 83, 79
2, 343680, Note_on_c, 0, 83, 0
2, 343680, Note_on_c, 0, 84, 79
2, 343920, Note_on_c, 0, 84, 0
2, 344160, Note_on_c, 0, 72, 79
2, 344640, Note_on_c, 0, 72, 0
2, 344640, Note_on_c, 0, 71, 79
2, 345120, Note_on_c, 0, 71, 0
2, 345120, Note_on_c, 0, 69, 79
2, 345360, Note_on_c, 0, 69, 0
2, 345360, Note_on_c, 0, 71, 79
2, 345600, Note_on_c, 0, 71, 0
2, 345600, Note_on_c, 0, 67, 79
2, 345840, Note_on_c, 0, 67, 0
2, 346080, Note_on_c, 0, 66, 79
2, 346320, Note_on_c, 0, 66, 0
2, 346560, Note_on_c, 0, 67, 79
2, 347520, Note_on_c, 0, 67, 0
2, 348000, Note_on_c, 0, 83, 79
2, 348048, Control_c, 0, 7, 108
2, 348240, Note_on_c, 0, 83, 0
2, 348240, Note_on_c, 0, 84, 79
2, 348480, Note_on_c, 0, 84, 0
2, 348480, Note_on_c, 0, 81, 79
2, 348576, Control_c, 0, 7, 81
2, 348960, Note_on_c, 0, 81, 0
2, 349103, Control_c, 0, 7, 54
2, 349392, Control_c, 0, 7, 104
2, 349440, Note_on_c, 0, 79, 79
2, 349680, Note_on_c, 0, 79, 0
2, 349680, Note_on_c, 0, 81, 79
2, 349920, Note_on_c, 0, 81, 0
2, 349920, Note_on_c, 0, 78, 79
2, 349992, Control_c, 0, 7, 81
2, 350400, Note_on_c, 0, 78, 0
2, 350591, Control_c, 0, 7, 58
2, 350832, Control_c, 0, 7, 108
2, 350880, Note_on_c, 0, 76, 79
2, 351360, Note_on_c, 0, 76, 0
2, 351360, Note_on_c, 0, 79, 79
2, 351528, Control_c, 0, 7, 84
2, 351840, Note_on_c, 0, 79, 0
2, 351840, Note_on_c, 0, 83, 79
2, 352223, Control_c, 0, 7, 60
2, 352224, Control_c, 0, 7, 82
2, 352320, Note_on_c, 0, 83, 0
2, 352320, Note_on_c, 0, 74, 79
2, 352415, Control_c, 0, 7, 82
2, 352464, Control_c, 0, 7, 64
2, 352512, Control_c, 0, 7, 74
2, 353280, Note_on_c, 0, 74, 0
2, 353280, Note_on_c, 0, 73, 79
2, 353760, Note_on_c, 0, 73, 0
2, 353760, Note_on_c, 0, 74, 79
2, 354240, Note_on_c, 0, 74, 0
2, 354240, Note_on_c, 0, 76, 79
2, 354720, Note_on_c, 0, 76, 0
2, 354720, Note_on_c, 0, 78, 79
2, 355200, Note_on_c, 0, 78, 0
2, 355200, Note_on_c, 0, 79, 79
2, 355680, Note_on_c, 0, 79, 0
2, 355680, Note_on_c, 0, 81, 79
2, 356160, Note_on_c, 0, 81, 0
2, 356160, Note_on_c, 0, 83, 79
2, 356640, Note_on_c, 0, 83, 0
2, 356640, Note_on_c, 0, 81, 79
2, 356880, Note_on_c, 0, 81, 0
2, 357120, Note_on_c, 0, 78, 79
2, 357360, Note_on_c, 0, 78, 0
2, 357360, Note_on_c, 0, 74, 79
2, 357600, Note_on_c, 0, 74, 0
2, 357600, Note_on_c, 0, 76, 79
2, 357840, Note_on_c, 0, 76, 0
2, 357840, Note_on_c, 0, 73, 79
2, 358080, Note_on_c, 0, 73, 0
2, 358080, Note_on_c, 0, 74, 79
2, 359520, Note_on_c, 0, 74, 0
2, 359520, Note_on_c, 0, 74, 79
2, 360000, Note_on_c, 0, 74, 0
2, 360000, Note_on_c, 0, 78, 79
2, 360480, Note_on_c, 0, 78, 0
2, 360480, Note_on_c, 0, 79, 79
2, 360960, Note_on_c, 0, 79, 0
2, 360960, Note_on_c, 0, 81, 79
2, 361440, Note_on_c, 0, 81, 0
2, 361440, Note_on_c, 0, 84, 79
2, 361920, Note_on_c, 0, 84, 0
2, 361920, Note_on_c, 0, 83, 79
2, 362400, Note_on_c, 0, 83, 0
2, 362400, Note_on_c, 0, 88, 79
2, 362640, Note_on_c, 0, 88, 0
2, 362880, Note_on_c, 0, 76, 79
2, 363120, Note_on_c, 0, 76, 0
2, 363360, Note_on_c, 0, 81, 79
2, 363600, Note_on_c, 0, 81, 0
2, 363840, Note_on_c, 0, 79, 79
2, 364800, Note_on_c, 0, 79, 0
2, 364800, Note_on_c, 0, 78, 79
2, 365231, Control_c, 0, 7, 74
2, 365280, Note_on_c, 0, 78, 0
2, 365280, Note_on_c, 0, 74, 79
2, 365280, Control_c, 0, 7, 100
2, 366720, Note_on_c, 0, 74, 0
2, 366720, Note_on_c, 0, 84, 79
2, 368160, Note_on_c, 0, 84, 0
2, 368160, Note_on_c, 0, 83, 79
2, 368400, Note_on_c, 0, 83, 0
2, 368640, Note_on_c, 0, 86, 79
2, 368880, Note_on_c, 0, 86, 0
2, 368880, Note_on_c, 0, 84, 79
2, 369120, Note_on_c, 0, 84, 0
2, 369120, Note_on_c, 0, 83, 79
2, 369360, Note_on_c, 0, 83, 0
2, 369360, Note_on_c, 0, 81, 79
2, 369600, Note_on_c, 0, 81, 0
2, 369600, Note_on_c, 0, 79, 79
2, 370560, Note_on_c, 0, 79, 0
2, 370560, Note_on_c, 0, 78, 79
2, 371040, Note_on_c, 0, 78, 0
2, 371040, Note_on_c, 0, 79, 79
2, 371520, Note_on_c, 0, 79, 0
2, 371520, Note_on_c, 0, 81, 79
2, 372000, Note_on_c, 0, 81, 0
2, 372000, Note_on_c, 0, 83, 79
2, 372480, Note_on_c, 0, 83, 0
2, 372480, Note_on_c, 0, 84, 79
2, 372720, Note_on_c, 0, 84, 0
2, 372960, Note_on_c, 0, 72, 79
2, 373440, Note_on_c, 0, 72, 0
2, 373440, Note_on_c, 0, 71, 79
2, 373920, Note_on_c, 0, 71, 0
2, 373920, Note_on_c, 0, 69, 79
2, 374160, Note_on_c, 0, 69, 0
2, 374160, Note_on_c, 0, 71, 79
2, 374400, Note_on_c, 0, 71, 0
2, 374400, Note_on_c, 0, 67, 79
2, 374640, Note_on_c, 0, 67, 0
2, 374880, Note_on_c, 0, 66, 79
2, 375120, Note_on_c, 0, 66, 0
2, 375360, Note_on_c, 0, 67, 79
2, 376320, Note_on_c, 0, 67, 0
2, 376800, Control_c, 0, 7, 106
2, 376800, Note_on_c, 0, 83, 79
2, 377040, Note_on_c, 0, 83, 0
2, 377040, Note_on_c, 0, 84, 79
2, 377280, Note_on_c, 0, 84, 0
2, 377280, Note_on_c, 0, 81, 79
2, 377496, Control_c, 0, 7, 79
2, 377760, Note_on_c, 0, 81, 0
2, 378191, Control_c, 0, 7, 52
2, 378240, Note_on_c, 0, 79, 79
2, 378288, Control_c, 0, 7, 106
2, 378480, Note_on_c, 0, 79, 0
2, 378480, Note_on_c, 0, 81, 79
2, 378720, Note_on_c, 0, 81, 0
2, 378720, Note_on_c, 0, 78, 79
2, 378936, Control_c, 0, 7, 80
2, 379200, Note_on_c, 0, 78, 0
2, 379583, Control_c, 0, 7, 54
2, 379680, Note_on_c, 0, 76, 79
2, 379680, Control_c, 0, 7, 106
2, 380160, Note_on_c, 0, 76, 0
2, 380160, Note_on_c, 0, 79, 79
2, 380224, Control_c, 0, 7, 89
2, 380640, Note_on_c, 0, 79, 0
2, 380640, Note_on_c, 0, 83, 79
2, 380768, Control_c, 0, 7, 72
2, 381120, Note_on_c, 0, 83, 0
2, 381120, Note_on_c, 0, 74, 79
2, 381311, Control_c, 0, 7, 56
2, 381360, Control_c, 0, 7, 72
2, 382080, Note_on_c, 0, 74, 0
2, 382080, Note_on_c, 0, 73, 79
2, 382560, Note_on_c, 0, 73, 0
2, 382560, Note_on_c, 0, 74, 79
2, 383040, Note_on_c, 0, 74, 0
2, 383040, Note_on_c, 0, 76, 79
2, 383520, Note_on_c, 0, 76, 0
2, 383520, Note_on_c, 0, 78, 79
2, 384000, Note_on_c, 0, 78, 0
2, 384000, Note_on_c, 0, 79, 79
2, 384480, Note_on_c, 0, 79, 0
2, 384480, Note_on_c, 0, 81, 79
2, 384960, Note_on_c, 0, 81, 0
2, 384960, Note_on_c, 0, 83, 79
2, 385440, Note_on_c, 0, 83, 0
2, 385440, Note_on_c, 0, 81, 79
2, 385920, Note_on_c, 0, 81, 0
2, 385920, Note_on_c, 0, 78, 79
2, 386160, Note_on_c, 0, 78, 0
2, 386160, Note_on_c, 0, 74, 79
2, 386400, Note_on_c, 0, 74, 0
2, 386400, Note_on_c, 0, 76, 79
2, 386640, Note_on_c, 0, 76, 0
2, 386640, Note_on_c, 0, 73, 79
2, 386880, Note_on_c, 0, 73, 0
2, 386880, Note_on_c, 0, 74, 79
2, 387744, Control_c, 0, 7, 72
2, 388320, Note_on_c, 0, 74, 0
2, 388320, Note_on_c, 0, 74, 79
2, 388800, Note_on_c, 0, 74, 0
2, 388800, Note_on_c, 0, 78, 79
2, 389280, Note_on_c, 0, 78, 0
2, 389280, Note_on_c, 0, 79, 79
2, 389760, Note_on_c, 0, 79, 0
2, 389760, Note_on_c, 0, 81, 79
2, 390240, Note_on_c, 0, 81, 0
2, 390240, Note_on_c, 0, 84, 79
2, 390720, Note_on_c, 0, 84, 0
2, 390720, Note_on_c, 0, 83, 79
2, 391200, Note_on_c, 0, 83, 0
2, 391200, Note_on_c, 0, 88, 79
2, 391680, Note_on_c, 0, 88, 0
2, 391680, Note_on_c, 0, 76, 79
2, 392160, Note_on_c, 0, 76, 0
2, 392160, Note_on_c, 0, 81, 79
2, 392640, Note_on_c, 0, 81, 0
2, 392640, Note_on_c, 0, 79, 79
2, 393600, Note_on_c, 0, 79, 0
2, 393600, Note_on_c, 0, 78, 79
2, 394080, Note_on_c, 0, 78, 0
2, 394080, Note_on_c, 0, 74, 79
2, 394127, Control_c, 0, 7, 74
2, 394176, Control_c, 0, 7, 98
2, 395520, Note_on_c, 0, 74, 0
2, 395520, Note_on_c, 0, 84, 79
2, 396960, Note_on_c, 0, 84, 0
2, 396960, Note_on_c, 0, 83, 79
2, 397440, Note_on_c, 0, 83, 0
2, 397440, Note_on_c, 0, 86, 79
2, 397680, Note_on_c, 0, 86, 0
2, 397680, Note_on_c, 0, 84, 79
2, 397920, Note_on_c, 0, 84, 0
2, 397920, Note_on_c, 0, 83, 79
2, 398160, Note_on_c, 0, 83, 0
2, 398160, Note_on_c, 0, 81, 79
2, 398400, Note_on_c, 0, 81, 0
2, 398400, Note_on_c, 0, 79, 79
2, 399360, Note_on_c, 0, 79, 0
2, 399360, Note_on_c, 0, 78, 79
2, 399840, Note_on_c, 0, 78, 0
2, 399840, Note_on_c, 0, 79, 79
2, 399888, Control_c, 0, 7, 98
2, 400320, Note_on_c, 0, 79, 0
2, 400320, Note_on_c, 0, 81, 79
2, 400800, Note_on_c, 0, 81, 0
2, 400800, Note_on_c, 0, 83, 79
2, 401280, Note_on_c, 0, 83, 0
2, 401280, Note_on_c, 0, 84, 79
2, 401760, Note_on_c, 0, 84, 0
2, 401760, Note_on_c, 0, 72, 79
2, 402240, Note_on_c, 0, 72, 0
2, 402240, Note_on_c, 0, 71, 79
2, 402720, Note_on_c, 0, 71, 0
2, 402720, Note_on_c, 0, 69, 79
2, 402960, Note_on_c, 0, 69, 0
2, 402960, Note_on_c, 0, 71, 79
2, 403200, Note_on_c, 0, 71, 0
2, 403200, Note_on_c, 0, 67, 79
2, 403680, Note_on_c, 0, 67, 0
2, 403680, Note_on_c, 0, 66, 79
2, 404160, Note_on_c, 0, 66, 0
2, 404160, Note_on_c, 0, 67, 79
2, 405120, Note_on_c, 0, 67, 0
2, 405599, Control_c, 0, 7, 60
2, 405600, Note_on_c, 0, 67, 36
2, 405648, Control_c, 0, 7, 74
2, 406080, Note_on_c, 0, 67, 0
2, 406080, Note_on_c, 0, 72, 36
2, 406560, Note_on_c, 0, 72, 0
2, 406560, Note_on_c, 0, 76, 36
2, 407040, Note_on_c, 0, 76, 0
2, 407040, Note_on_c, 0, 79, 36
2, 408000, Note_on_c, 0, 79, 0
2, 408000, Note_on_c, 0, 74, 36
2, 408240, Note_on_c, 0, 74, 0
2, 408480, Note_on_c, 0, 64, 36
2, 408960, Note_on_c, 0, 64, 0
2, 408960, Note_on_c, 0, 69, 36
2, 409440, Note_on_c, 0, 69, 0
2, 409440, Note_on_c, 0, 72, 36
2, 409920, Note_on_c, 0, 72, 0
2, 409920, Note_on_c, 0, 76, 36
2, 410880, Note_on_c, 0, 76, 0
2, 410880, Note_on_c, 0, 71, 36
2, 411120, Note_on_c, 0, 71, 0
2, 411360, Note_on_c, 0, 60, 36
2, 411840, Note_on_c, 0, 60, 0
2, 411840, Note_on_c, 0, 65, 36
2, 412320, Note_on_c, 0, 65, 0
2, 412320, Note_on_c, 0, 69, 36
2, 412800, Note_on_c, 0, 69, 0
2, 412800, Note_on_c, 0, 67, 36
2, 413040, Note_on_c, 0, 67, 0
2, 413040, Note_on_c, 0, 72, 36
2, 413280, Note_on_c, 0, 72, 0
2, 413280, Note_on_c, 0, 72, 36
2, 414000, Note_on_c, 0, 72, 0
2, 414000, Note_on_c, 0, 76, 36
2, 414240, Note_on_c, 0, 76, 0
2, 414240, Note_on_c, 0, 69, 36
2, 414720, Note_on_c, 0, 69, 0
2, 414720, Note_on_c, 0, 77, 36
2, 414960, Note_on_c, 0, 77, 0
2, 414960, Note_on_c, 0, 74, 36
2, 415200, Note_on_c, 0, 74, 0
2, 415200, Note_on_c, 0, 72, 36
2, 415440, Note_on_c, 0, 72, 0
2, 415440, Note_on_c, 0, 71, 36
2, 415680, Note_on_c, 0, 71, 0
2, 415680, Note_on_c, 0, 71, 36
2, 415920, Note_on_c, 0, 71, 0
2, 415920, Note_on_c, 0, 72, 36
2, 416640, Note_on_c, 0, 72, 0
2, 417120, Note_on_c, 0, 67, 36
2, 417600, Note_on_c, 0, 67, 0
2, 417600, Note_on_c, 0, 72, 36
2, 418080, Note_on_c, 0, 72, 0
2, 418080, Note_on_c, 0, 76, 36
2, 418560, Note_on_c, 0, 76, 0
2, 418560, Note_on_c, 0, 79, 36
2, 419520, Note_on_c, 0, 79, 0
2, 419520, Note_on_c, 0, 74, 36
2, 419760, Note_on_c, 0, 74, 0
2, 420000, Note_on_c, 0, 64, 36
2, 420480, Note_on_c, 0, 64, 0
2, 420480, Note_on_c, 0, 69, 36
2, 420960, Note_on_c, 0, 69, 0
2, 420960, Note_on_c, 0, 72, 36
2, 421440, Note_on_c, 0, 72, 0
2, 421440, Note_on_c, 0, 76, 36
2, 422400, Note_on_c, 0, 76, 0
2, 422400, Note_on_c, 0, 71, 36
2, 422640, Note_on_c, 0, 71, 0
2, 422880, Note_on_c, 0, 60, 36
2, 423360, Note_on_c, 0, 60, 0
2, 423360, Note_on_c, 0, 65, 36
2, 423840, Note_on_c, 0, 65, 0
2, 423840, Note_on_c, 0, 69, 36
2, 424320, Note_on_c, 0, 69, 0
2, 424320, Note_on_c, 0, 67, 36
2, 424560, Note_on_c, 0, 67, 0
2, 424560, Note_on_c, 0, 72, 36
2, 424800, Note_on_c, 0, 72, 0
2, 424800, Note_on_c, 0, 72, 36
2, 425520, Note_on_c, 0, 72, 0
2, 425520, Note_on_c, 0, 76, 36
2, 425760, Note_on_c, 0, 76, 0
2, 425760, Note_on_c, 0, 69, 36
2, 426240, Note_on_c, 0, 69, 0
2, 426240, Note_on_c, 0, 77, 36
2, 426480, Note_on_c, 0, 77, 0
2, 426480, Note_on_c, 0, 74, 36
2, 426720, Note_on_c, 0, 74, 0
2, 426720, Note_on_c, 0, 72, 36
2, 426960, Note_on_c, 0, 72, 0
2, 426960, Note_on_c, 0, 71, 36
2, 427200, Note_on_c, 0, 71, 0
2, 427200, Note_on_c, 0, 71, 36
2, 427440, Note_on_c, 0, 71, 0
2, 427440, Note_on_c, 0, 72, 36
2, 428160, Note_on_c, 0, 72, 0
2, 430079, Control_c, 0, 7, 74
2, 430080, Note_on_c, 0, 79, 79
2, 430080, Control_c, 0, 7, 106
2, 430800, Note_on_c, 0, 79, 0
2, 430800, Note_on_c, 0, 78, 79
2, 430920, Note_on_c, 0, 78, 0
2, 430920, Note_on_c, 0, 76, 79
2, 431040, Note_on_c, 0, 76, 0
2, 431040, Note_on_c, 0, 74, 79
2, 431520, Note_on_c, 0, 74, 0
2, 431520, Control_c, 0, 7, 60
2, 431520, Note_on_c, 0, 71, 36
2, 431568, Control_c, 0, 7, 74
2, 432000, Note_on_c, 0, 71, 0
2, 432000, Note_on_c, 0, 71, 36
2, 432480, Note_on_c, 0, 71, 0
2, 432480, Note_on_c, 0, 72, 36
2, 432720, Note_on_c, 0, 72, 0
2, 432720, Note_on_c, 0, 69, 36
2, 432960, Note_on_c, 0, 69, 0
2, 432960, Note_on_c, 0, 71, 36
2, 433440, Note_on_c, 0, 71, 0
2, 433440, Note_on_c, 0, 74, 36
2, 433500, Note_on_c, 0, 74, 0
2, 433500, Note_on_c, 0, 72, 36
2, 433560, Note_on_c, 0, 72, 0
2, 433560, Note_on_c, 0, 74, 36
2, 433620, Note_on_c, 0, 74, 0
2, 433620, Note_on_c, 0, 72, 36
2, 433680, Note_on_c, 0, 72, 0
2, 433680, Note_on_c, 0, 74, 36
2, 433740, Note_on_c, 0, 74, 0
2, 433740, Note_on_c, 0, 72, 36
2, 433800, Note_on_c, 0, 72, 0
2, 433800, Note_on_c, 0, 74, 36
2, 433860, Note_on_c, 0, 74, 0
2, 433860, Note_on_c, 0, 72, 36
2, 433920, Note_on_c, 0, 72, 0
2, 433920, Note_on_c, 0, 74, 36
2, 434351, Control_c, 0, 7, 74
2, 434400, Note_on_c, 0, 74, 0
2, 434400, Note_on_c, 0, 55, 79
2, 434400, Control_c, 0, 7, 106
2, 434640, Note_on_c, 0, 55, 0
2, 434640, Note_on_c, 0, 79, 79
2, 434880, Note_on_c, 0, 79, 0
2, 434880, Note_on_c, 0, 78, 79
2, 435120, Note_on_c, 0, 78, 0
2, 435120, Note_on_c, 0, 76, 79
2, 435360, Note_on_c, 0, 76, 0
2, 435360, Note_on_c, 0, 74, 79
2, 435600, Note_on_c, 0, 74, 0
2, 435600, Note_on_c, 0, 72, 79
2, 435840, Note_on_c, 0, 72, 0
2, 435840, Note_on_c, 0, 71, 79
2, 436080, Note_on_c, 0, 71, 0
2, 436080, Note_on_c, 0, 76, 79
2, 436320, Note_on_c, 0, 76, 0
2, 436320, Note_on_c, 0, 74, 79
2, 436560, Note_on_c, 0, 74, 0
2, 436560, Note_on_c, 0, 72, 79
2, 436800, Note_on_c, 0, 72, 0
2, 436800, Note_on_c, 0, 71, 79
2, 437040, Note_on_c, 0, 71, 0
2, 437040, Note_on_c, 0, 69, 79
2, 437280, Note_on_c, 0, 69, 0
2, 437280, Note_on_c, 0, 67, 79
2, 437760, Note_on_c, 0, 67, 0
2, 437760, Note_on_c, 0, 57, 79
2, 438240, Note_on_c, 0, 57, 0
2, 438240, Note_on_c, 0, 79, 79
2, 438300, Note_on_c, 0, 79, 0
2, 438300, Note_on_c, 0, 78, 79
2, 438360, Note_on_c, 0, 78, 0
2, 438360, Note_on_c, 0, 79, 79
2, 438420, Note_on_c, 0, 79, 0
2, 438420, Note_on_c, 0, 78, 79
2, 438480, Note_on_c, 0, 78, 0
2, 438480, Note_on_c, 0, 79, 79
2, 438540, Note_on_c, 0, 79, 0
2, 438540, Note_on_c, 0, 78, 79
2, 438600, Note_on_c, 0, 78, 0
2, 438600, Note_on_c, 0, 78, 79
2, 438640, Note_on_c, 0, 78, 0
2, 438640, Note_on_c, 0, 76, 79
2, 438680, Note_on_c, 0, 76, 0
2, 438680, Note_on_c, 0, 78, 79
2, 438720, Note_on_c, 0, 78, 0
2, 438720, Note_on_c, 0, 79, 79
2, 439200, Note_on_c, 0, 79, 0
2, 439200, Note_on_c, 0, 67, 79
2, 439680, Note_on_c, 0, 67, 0
2, 440160, Control_c, 0, 7, 62
2, 440160, Note_on_c, 0, 67, 36
2, 440208, Control_c, 0, 7, 74
2, 440640, Note_on_c, 0, 67, 0
2, 440640, Note_on_c, 0, 69, 36
2, 441120, Note_on_c, 0, 69, 0
2, 441120, Note_on_c, 0, 76, 36
2, 441600, Note_on_c, 0, 76, 0
2, 441600, Note_on_c, 0, 79, 36
2, 442560, Note_on_c, 0, 79, 0
2, 442560, Note_on_c, 0, 74, 36
2, 442800, Note_on_c, 0, 74, 0
2, 443040, Note_on_c, 0, 64, 36
2, 443520, Note_on_c, 0, 64, 0
2, 443520, Note_on_c, 0, 69, 36
2, 444000, Note_on_c, 0, 69, 0
2, 444000, Note_on_c, 0, 72, 36
2, 444480, Note_on_c, 0, 72, 0
2, 444480, Note_on_c, 0, 76, 36
2, 445440, Note_on_c, 0, 76, 0
2, 445440, Note_on_c, 0, 71, 36
2, 445680, Note_on_c, 0, 71, 0
2, 445920, Note_on_c, 0, 60, 36
2, 446400, Note_on_c, 0, 60, 0
2, 446400, Note_on_c, 0, 65, 36
2, 446880, Note_on_c, 0, 65, 0
2, 446880, Note_on_c, 0, 69, 36
2, 447360, Note_on_c, 0, 69, 0
2, 447360, Note_on_c, 0, 67, 36
2, 447600, Note_on_c, 0, 67, 0
2, 447600, Note_on_c, 0, 72, 36
2, 447840, Note_on_c, 0, 72, 0
2, 447840, Note_on_c, 0, 72, 36
2, 448560, Note_on_c, 0, 72, 0
2, 448560, Note_on_c, 0, 76, 36
2, 448800, Note_on_c, 0, 76, 0
2, 448800, Note_on_c, 0, 69, 36
2, 449280, Note_on_c, 0, 69, 0
2, 449280, Note_on_c, 0, 77, 36
2, 449520, Note_on_c, 0, 77, 0
2, 449520, Note_on_c, 0, 74, 36
2, 449760, Note_on_c, 0, 74, 0
2, 449760, Note_on_c, 0, 72, 36
2, 450000, Note_on_c, 0, 72, 0
2, 450000, Note_on_c, 0, 71, 36
2, 450240, Note_on_c, 0, 71, 0
2, 450240, Note_on_c, 0, 71, 36
2, 450480, Note_on_c, 0, 71, 0
2, 450480, Note_on_c, 0, 72, 36
2, 451200, Note_on_c, 0, 72, 0
2, 453023, Control_c, 0, 7, 74
2, 453072, Control_c, 0, 7, 96
2, 453120, Note_on_c, 0, 79, 79
2, 453264, Control_c, 0, 7, 100
2, 453840, Note_on_c, 0, 79, 0
2, 453840, Note_on_c, 0, 78, 79
2, 453960, Note_on_c, 0, 78, 0
2, 453960, Note_on_c, 0, 76, 79
2, 454080, Note_on_c, 0, 76, 0
2, 454080, Note_on_c, 0, 74, 79
2, 454560, Note_on_c, 0, 74, 0
2, 454560, Control_c, 0, 7, 64
2, 454560, Note_on_c, 0, 71, 36
2, 454608, Control_c, 0, 7, 76
2, 455040, Note_on_c, 0, 71, 0
2, 455040, Note_on_c, 0, 71, 36
2, 455520, Note_on_c, 0, 71, 0
2, 455520, Note_on_c, 0, 72, 36
2, 455760, Note_on_c, 0, 72, 0
2, 455760, Note_on_c, 0, 69, 36
2, 456000, Note_on_c, 0, 69, 0
2, 456000, Note_on_c, 0, 71, 36
2, 456480, Note_on_c, 0, 71, 0
2, 456480, Note_on_c, 0, 74, 36
2, 456540, Note_on_c, 0, 74, 0
2, 456540, Note_on_c, 0, 72, 36
2, 456600, Note_on_c, 0, 72, 0
2, 456600, Note_on_c, 0, 74, 36
2, 456660, Note_on_c, 0, 74, 0
2, 456660, Note_on_c, 0, 72, 36
2, 456720, Note_on_c, 0, 72, 0
2, 456720, Note_on_c, 0, 74, 36
2, 456780, Note_on_c, 0, 74, 0
2, 456780, Note_on_c, 0, 72, 36
2, 456840, Note_on_c, 0, 72, 0
2, 456840, Note_on_c, 0, 74, 36
2, 456900, Note_on_c, 0, 74, 0
2, 456900, Note_on_c, 0, 72, 36
2, 456960, Note_on_c, 0, 72, 0
2, 456960, Note_on_c, 0, 74, 36
2, 457391, Control_c, 0, 7, 76
2, 457440, Note_on_c, 0, 74, 0
2, 457440, Note_on_c, 0, 55, 79
2, 457440, Control_c, 0, 7, 100
2, 457680, Note_on_c, 0, 55, 0
2, 457680, Note_on_c, 0, 79, 79
2, 457920, Note_on_c, 0, 79, 0
2, 457920, Note_on_c, 0, 78, 79
2, 458160, Note_on_c, 0, 78, 0
2, 458160, Note_on_c, 0, 76, 79
2, 458400, Note_on_c, 0, 76, 0
2, 458400, Note_on_c, 0, 74, 79
2, 458640, Note_on_c, 0, 74, 0
2, 458640, Note_on_c, 0, 72, 79
2, 458880, Note_on_c, 0, 72, 0
2, 458880, Note_on_c, 0, 71, 79
2, 459120, Note_on_c, 0, 71, 0
2, 459120, Note_on_c, 0, 76, 79
2, 459360, Note_on_c, 0, 76, 0
2, 459360, Note_on_c, 0, 74, 79
2, 459600, Note_on_c, 0, 74, 0
2, 459600, Note_on_c, 0, 72, 79
2, 459840, Note_on_c, 0, 72, 0
2, 459840, Note_on_c, 0, 71, 79
2, 460080, Note_on_c, 0, 71, 0
2, 460080, Note_on_c, 0, 69, 79
2, 460320, Note_on_c, 0, 69, 0
2, 460320, Note_on_c, 0, 67, 79
2, 460800, Note_on_c, 0, 67, 0
2, 460800, Note_on_c, 0, 57, 79
2, 461280, Note_on_c, 0, 57, 0
2, 461280, Note_on_c, 0, 79, 79
2, 461340, Note_on_c, 0, 79, 0
2, 461340, Note_on_c, 0, 78, 79
2, 461400, Note_on_c, 0, 78, 0
2, 461400, Note_on_c, 0, 79, 79
2, 461460, Note_on_c, 0, 79, 0
2, 461460, Note_on_c, 0, 78, 79
2, 461520, Note_on_c, 0, 78, 0
2, 461520, Note_on_c, 0, 79, 79
2, 461580, Note_on_c, 0, 79, 0
2, 461580, Note_on_c, 0, 78, 79
2, 461640, Note_on_c, 0, 78, 0
2, 461640, Note_on_c, 0, 78, 79
2, 461680, Note_on_c, 0, 78, 0
2, 461680, Note_on_c, 0, 76, 79
2, 461720, Note_on_c, 0, 76, 0
2, 461720, Note_on_c, 0, 78, 79
2, 461760, Note_on_c, 0, 78, 0
2, 461760, Note_on_c, 0, 79, 79
2, 462240, Note_on_c, 0, 79, 0
2, 462240, Note_on_c, 0, 67, 79
2, 462720, Note_on_c, 0, 67, 0
2, 463200, Control_c, 0, 7, 72
2, 463200, Note_on_c, 0, 67, 36
2, 463680, Note_on_c, 0, 67, 0
2, 463680, Note_on_c, 0, 69, 36
2, 464160, Note_on_c, 0, 69, 0
2, 464160, Note_on_c, 0, 76, 36
2, 464640, Note_on_c, 0, 76, 0
2, 464640, Note_on_c, 0, 79, 36
2, 465104, Control_c, 0, 7, 72
2, 465600, Note_on_c, 0, 79, 0
2, 465600, Note_on_c, 0, 74, 36
2, 465840, Note_on_c, 0, 74, 0
2, 466080, Note_on_c, 0, 64, 36
2, 466560, Note_on_c, 0, 64, 0
2, 466560, Note_on_c, 0, 69, 36
2, 467008, Control_c, 0, 7, 73
2, 467040, Note_on_c, 0, 69, 0
2, 467040, Note_on_c, 0, 72, 36
2, 467520, Note_on_c, 0, 72, 0
2, 467520, Note_on_c, 0, 76, 36
2, 468480, Note_on_c, 0, 76, 0
2, 468480, Note_on_c, 0, 71, 36
2, 468720, Note_on_c, 0, 71, 0
2, 468912, Control_c, 0, 7, 74
2, 468960, Note_on_c, 0, 60, 36
2, 469440, Note_on_c, 0, 60, 0
2, 469440, Note_on_c, 0, 65, 36
2, 469920, Note_on_c, 0, 65, 0
2, 469920, Note_on_c, 0, 69, 36
2, 470400, Note_on_c, 0, 69, 0
2, 470400, Note_on_c, 0, 67, 36
2, 470640, Note_on_c, 0, 67, 0
2, 470640, Note_on_c, 0, 72, 36
2, 470816, Control_c, 0, 7, 75
2, 470880, Note_on_c, 0, 72, 0
2, 470880, Note_on_c, 0, 72, 36
2, 471600, Note_on_c, 0, 72, 0
2, 471600, Note_on_c, 0, 76, 36
2, 471840, Note_on_c, 0, 76, 0
2, 471840, Note_on_c, 0, 69, 36
2, 472320, Note_on_c, 0, 69, 0
2, 472320, Note_on_c, 0, 77, 36
2, 472560, Note_on_c, 0, 77, 0
2, 472560, Note_on_c, 0, 74, 36
2, 472720, Control_c, 0, 7, 76
2, 472800, Note_on_c, 0, 74, 0
2, 472800, Note_on_c, 0, 72, 36
2, 473040, Note_on_c, 0, 72, 0
2, 473040, Note_on_c, 0, 71, 36
2, 473280, Note_on_c, 0, 71, 0
2, 473280, Note_on_c, 0, 71, 36
2, 473520, Note_on_c, 0, 71, 0
2, 473520, Note_on_c, 0, 72, 36
2, 474240, Note_on_c, 0, 72, 0
2, 474623, Control_c, 0, 7, 78
2, 474672, Control_c, 0, 7, 102
2, 474720, Note_on_c, 0, 74, 36
2, 476160, Note_on_c, 0, 74, 0
2, 476160, Note_on_c, 0, 84, 36
2, 477600, Note_on_c, 0, 84, 0
2, 477600, Note_on_c, 0, 83, 36
2, 478080, Note_on_c, 0, 83, 0
2, 478080, Note_on_c, 0, 86, 36
2, 478320, Note_on_c, 0, 86, 0
2, 478320, Note_on_c, 0, 84, 36
2, 478560, Note_on_c, 0, 84, 0
2, 478560, Note_on_c, 0, 83, 36
2, 478800, Note_on_c, 0, 83, 0
2, 478800, Note_on_c, 0, 81, 36
2, 479040, Note_on_c, 0, 81, 0
2, 479040, Note_on_c, 0, 79, 36
2, 480000, Note_on_c, 0, 79, 0
2, 480000, Note_on_c, 0, 78, 36
2, 480480, Note_on_c, 0, 78, 0
2, 480480, Note_on_c, 0, 79, 36
2, 480960, Note_on_c, 0, 79, 0
2, 480960, Note_on_c, 0, 81, 36
2, 481440, Note_on_c, 0, 81, 0
2, 481440, Note_on_c, 0, 83, 36
2, 481920, Note_on_c, 0, 83, 0
2, 481920, Note_on_c, 0, 84, 36
2, 482400, Note_on_c, 0, 84, 0
2, 482400, Note_on_c, 0, 72, 36
2, 482880, Note_on_c, 0, 72, 0
2, 482880, Note_on_c, 0, 71, 36
2, 483360, Note_on_c, 0, 71, 0
2, 483360, Note_on_c, 0, 69, 36
2, 483600, Note_on_c, 0, 69, 0
2, 483600, Note_on_c, 0, 71, 36
2, 483840, Note_on_c, 0, 71, 0
2, 483840, Note_on_c, 0, 67, 36
2, 484320, Note_on_c, 0, 67, 0
2, 484320, Note_on_c, 0, 66, 36
2, 484800, Note_on_c, 0, 66, 0
2, 484800, Note_on_c, 0, 67, 36
2, 485760, Note_on_c, 0, 67, 0
2, 486240, Control_c, 0, 7, 96
2, 486240, Note_on_c, 0, 83, 36
2, 486480, Note_on_c, 0, 83, 0
2, 486480, Note_on_c, 0, 84, 36
2, 486720, Note_on_c, 0, 84, 0
2, 486720, Note_on_c, 0, 81, 36
2, 486864, Control_c, 0, 7, 62
2, 487200, Note_on_c, 0, 81, 0
2, 487440, Control_c, 0, 7, 94
2, 487680, Note_on_c, 0, 79, 36
2, 487920, Note_on_c, 0, 79, 0
2, 487920, Note_on_c, 0, 81, 36
2, 488136, Control_c, 0, 7, 62
2, 488160, Note_on_c, 0, 81, 0
2, 488160, Note_on_c, 0, 78, 36
2, 488640, Note_on_c, 0, 78, 0
2, 488831, Control_c, 0, 7, 30
2, 489120, Note_on_c, 0, 76, 36
2, 489120, Control_c, 0, 7, 92
2, 489600, Note_on_c, 0, 76, 0
2, 489600, Note_on_c, 0, 79, 36
2, 489840, Control_c, 0, 7, 58
2, 490080, Note_on_c, 0, 79, 0
2, 490080, Note_on_c, 0, 83, 36
2, 490559, Control_c, 0, 7, 24
2, 490560, Note_on_c, 0, 83, 0
2, 490560, Note_on_c, 0, 74, 36
2, 490560, Control_c, 0, 7, 64
2, 491087, Control_c, 0, 7, 64
2, 491136, Control_c, 0, 7, 74
2, 491520, Note_on_c, 0, 74, 0
2, 491520, Note_on_c, 0, 73, 36
2, 492000, Note_on_c, 0, 73, 0
2, 492000, Note_on_c, 0, 74, 36
2, 492480, Note_on_c, 0, 74, 0
2, 492480, Note_on_c, 0, 76, 36
2, 492960, Note_on_c, 0, 76, 0
2, 492960, Note_on_c, 0, 78, 36
2, 493440, Note_on_c, 0, 78, 0
2, 493440, Note_on_c, 0, 79, 36
2, 493920, Note_on_c, 0, 79, 0
2, 493920, Note_on_c, 0, 81, 36
2, 494400, Note_on_c, 0, 81, 0
2, 494400, Note_on_c, 0, 83, 36
2, 494880, Note_on_c, 0, 83, 0
2, 494880, Note_on_c, 0, 81, 36
2, 495360, Note_on_c, 0, 81, 0
2, 495360, Note_on_c, 0, 78, 36
2, 495600, Note_on_c, 0, 78, 0
2, 495600, Note_on_c, 0, 74, 36
2, 495840, Note_on_c, 0, 74, 0
2, 495840, Note_on_c, 0, 76, 36
2, 496080, Note_on_c, 0, 76, 0
2, 496080, Note_on_c, 0, 73, 36
2, 496320, Note_on_c, 0, 73, 0
2, 496320, Note_on_c, 0, 74, 36
2, 497760, Note_on_c, 0, 74, 0
2, 497760, Note_on_c, 0, 74, 36
2, 498240, Note_on_c, 0, 74, 0
2, 498240, Note_on_c, 0, 78, 36
2, 498720, Note_on_c, 0, 78, 0
2, 498720, Note_on_c, 0, 79, 36
2, 499200, Note_on_c, 0, 79, 0
2, 499200, Note_on_c, 0, 81, 36
2, 499680, Note_on_c, 0, 81, 0
2, 499680, Note_on_c, 0, 84, 36
2, 500160, Note_on_c, 0, 84, 0
2, 500160, Note_on_c, 0, 83, 36
2, 500640, Note_on_c, 0, 83, 0
2, 500640, Note_on_c, 0, 88, 36
2, 501120, Note_on_c, 0, 88, 0
2, 501120, Note_on_c, 0, 76, 36
2, 501600, Note_on_c, 0, 76, 0
2, 501600, Note_on_c, 0, 81, 36
2, 502080, Note_on_c, 0, 81, 0
2, 502080, Note_on_c, 0, 79, 36
2, 503040, Note_on_c, 0, 79, 0
2, 503040, Note_on_c, 0, 78, 36
2, 503471, Control_c, 0, 7, 74
2, 503520, Note_on_c, 0, 78, 0
2, 503520, Note_on_c, 0, 74, 79
2, 503520, Control_c, 0, 7, 102
2, 504527, Control_c, 0, 7, 102
2, 504960, Note_on_c, 0, 74, 0
2, 504960, Note_on_c, 0, 84, 79
2, 506400, Note_on_c, 0, 84, 0
2, 506400, Note_on_c, 0, 83, 79
2, 506880, Note_on_c, 0, 83, 0
2, 506880, Note_on_c, 0, 86, 79
2, 507120, Note_on_c, 0, 86, 0
2, 507120, Note_on_c, 0, 84, 79
2, 507360, Note_on_c, 0, 84, 0
2, 507360, Note_on_c, 0, 83, 79
2, 507600, Note_on_c, 0, 83, 0
2, 507600, Note_on_c, 0, 81, 79
2, 507840, Note_on_c, 0, 81, 0
2, 507840, Note_on_c, 0, 79, 79
2, 508800, Note_on_c, 0, 79, 0
2, 508800, Note_on_c, 0, 78, 79
2, 509280, Note_on_c, 0, 78, 0
2, 509280, Note_on_c, 0, 79, 79
2, 509760, Note_on_c, 0, 79, 0
2, 509760, Note_on_c, 0, 81, 79
2, 510240, Note_on_c, 0, 81, 0
2, 510240, Note_on_c, 0, 83, 79
2, 510720, Note_on_c, 0, 83, 0
2, 510720, Note_on_c, 0, 84, 79
2, 511200, Note_on_c, 0, 84, 0
2, 511200, Note_on_c, 0, 72, 79
2, 511680, Note_on_c, 0, 72, 0
2, 511680, Note_on_c, 0, 71, 79
2, 512160, Note_on_c, 0, 71, 0
2, 512160, Note_on_c, 0, 69, 79
2, 512400, Note_on_c, 0, 69, 0
2, 512400, Note_on_c, 0, 71, 79
2, 512640, Note_on_c, 0, 71, 0
2, 512640, Note_on_c, 0, 67, 79
2, 513120, Note_on_c, 0, 67, 0
2, 513120, Note_on_c, 0, 66, 79
2, 513600, Note_on_c, 0, 66, 0
2, 513600, Note_on_c, 0, 67, 79
2, 515040, Note_on_c, 0, 67, 0
2, 516480, Control_c, 0, 7, 62
2, 516480, Note_on_c, 0, 74, 79
2, 516528, Control_c, 0, 7, 74
2, 516960, Note_on_c, 0, 74, 0
2, 516960, Note_on_c, 0, 74, 79
2, 517440, Note_on_c, 0, 74, 0
2, 517440, Note_on_c, 0, 76, 36
2, 517680, Note_on_c, 0, 76, 0
2, 517680, Note_on_c, 0, 74, 36
2, 517920, Note_on_c, 0, 74, 0
2, 517920, Note_on_c, 0, 72, 36
2, 518160, Note_on_c, 0, 72, 0
2, 518160, Note_on_c, 0, 71, 36
2, 518400, Note_on_c, 0, 71, 0
2, 518400, Note_on_c, 0, 76, 36
2, 518880, Note_on_c, 0, 76, 0
2, 518880, Note_on_c, 0, 76, 36
2, 519360, Note_on_c, 0, 76, 0
2, 519360, Note_on_c, 0, 76, 36
2, 520320, Note_on_c, 0, 76, 0
2, 520320, Note_on_c, 0, 72, 36
2, 520800, Note_on_c, 0, 72, 0
2, 520800, Note_on_c, 0, 72, 36
2, 521280, Note_on_c, 0, 72, 0
2, 521280, Note_on_c, 0, 74, 36
2, 521520, Note_on_c, 0, 74, 0
2, 521520, Note_on_c, 0, 72, 36
2, 521760, Note_on_c, 0, 72, 0
2, 521760, Note_on_c, 0, 71, 36
2, 522000, Note_on_c, 0, 71, 0
2, 522000, Note_on_c, 0, 69, 36
2, 522240, Note_on_c, 0, 69, 0
2, 522240, Note_on_c, 0, 69, 36
2, 522720, Note_on_c, 0, 69, 0
2, 522720, Note_on_c, 0, 69, 36
2, 523200, Note_on_c, 0, 69, 0
2, 523200, Note_on_c, 0, 71, 36
2, 523440, Note_on_c, 0, 71, 0
2, 523440, Note_on_c, 0, 69, 36
2, 523680, Note_on_c, 0, 69, 0
2, 523680, Note_on_c, 0, 67, 36
2, 523920, Note_on_c, 0, 67, 0
2, 523920, Note_on_c, 0, 66, 36
2, 524159, Control_c, 0, 7, 74
2, 524160, Note_on_c, 0, 66, 0
2, 524160, Note_on_c, 0, 74, 79
2, 524208, Control_c, 0, 7, 104
2, 524640, Note_on_c, 0, 74, 0
2, 524640, Note_on_c, 0, 74, 79
2, 525120, Note_on_c, 0, 74, 0
2, 525120, Note_on_c, 0, 76, 79
2, 525360, Note_on_c, 0, 76, 0
2, 525360, Note_on_c, 0, 74, 79
2, 525600, Note_on_c, 0, 74, 0
2, 525600, Note_on_c, 0, 72, 79
2, 525840, Note_on_c, 0, 72, 0
2, 525840, Note_on_c, 0, 71, 79
2, 526080, Note_on_c, 0, 71, 0
2, 526080, Note_on_c, 0, 76, 79
2, 526320, Note_on_c, 0, 76, 0
2, 526320, Note_on_c, 0, 74, 79
2, 526560, Note_on_c, 0, 74, 0
2, 526560, Note_on_c, 0, 76, 79
2, 526800, Note_on_c, 0, 76, 0
2, 526800, Note_on_c, 0, 78, 79
2, 527040, Note_on_c, 0, 78, 0
2, 527040, Note_on_c, 0, 79, 79
2, 527280, Note_on_c, 0, 79, 0
2, 527280, Note_on_c, 0, 78, 79
2, 527520, Note_on_c, 0, 78, 0
2, 527520, Note_on_c, 0, 79, 79
2, 527760, Note_on_c, 0, 79, 0
2, 527760, Note_on_c, 0, 81, 79
2, 528000, Note_on_c, 0, 81, 0
2, 528000, Note_on_c, 0, 83, 79
2, 528240, Note_on_c, 0, 83, 0
2, 528240, Note_on_c, 0, 81, 79
2, 528480, Note_on_c, 0, 81, 0
2, 528480, Note_on_c, 0, 83, 79
2, 528720, Note_on_c, 0, 83, 0
2, 528720, Note_on_c, 0, 84, 79
2, 528960, Note_on_c, 0, 84, 0
2, 528960, Note_on_c, 0, 86, 79
2, 529440, Note_on_c, 0, 86, 0
2, 529920, Note_on_c, 0, 71, 79
2, 529980, Note_on_c, 0, 71, 0
2, 529980, Note_on_c, 0, 69, 79
2, 530040, Note_on_c, 0, 69, 0
2, 530040, Note_on_c, 0, 71, 79
2, 530100, Note_on_c, 0, 71, 0
2, 530100, Note_on_c, 0, 69, 79
2, 530160, Note_on_c, 0, 69, 0
2, 530160, Note_on_c, 0, 71, 79
2, 530220, Note_on_c, 0, 71, 0
2, 530220, Note_on_c, 0, 69, 79
2, 530280, Note_on_c, 0, 69, 0
2, 530280, Note_on_c, 0, 71, 79
2, 530340, Note_on_c, 0, 71, 0
2, 530340, Note_on_c, 0, 69, 79
2, 530400, Note_on_c, 0, 69, 0
2, 530400, Note_on_c, 0, 71, 79
2, 530460, Note_on_c, 0, 71, 0
2, 530460, Note_on_c, 0, 69, 79
2, 530520, Note_on_c, 0, 69, 0
2, 530520, Note_on_c, 0, 71, 79
2, 530580, Note_on_c, 0, 71, 0
2, 530580, Note_on_c, 0, 69, 79
2, 530640, Note_on_c, 0, 69, 0
2, 530640, Note_on_c, 0, 71, 79
2, 530700, Note_on_c, 0, 71, 0
2, 530700, Note_on_c, 0, 69, 79
2, 530760, Note_on_c, 0, 69, 0
2, 530760, Note_on_c, 0, 71, 79
2, 530820, Note_on_c, 0, 71, 0
2, 530820, Note_on_c, 0, 69, 79
2, 530880, Note_on_c, 0, 69, 0
2, 530880, Note_on_c, 0, 67, 79
2, 531360, Note_on_c, 0, 67, 0
2, 531840, Note_on_c, 0, 74, 79
2, 531888, Control_c, 0, 7, 66
2, 531936, Control_c, 0, 7, 76
2, 532320, Note_on_c, 0, 74, 0
2, 532320, Note_on_c, 0, 74, 79
2, 532800, Note_on_c, 0, 74, 0
2, 532800, Note_on_c, 0, 76, 36
2, 533040, Note_on_c, 0, 76, 0
2, 533040, Note_on_c, 0, 74, 36
2, 533280, Note_on_c, 0, 74, 0
2, 533280, Note_on_c, 0, 72, 36
2, 533520, Note_on_c, 0, 72, 0
2, 533520, Note_on_c, 0, 71, 36
2, 533760, Note_on_c, 0, 71, 0
2, 533760, Note_on_c, 0, 76, 36
2, 534240, Note_on_c, 0, 76, 0
2, 534240, Note_on_c, 0, 76, 36
2, 534720, Note_on_c, 0, 76, 0
2, 534720, Note_on_c, 0, 76, 36
2, 535680, Note_on_c, 0, 76, 0
2, 535680, Note_on_c, 0, 72, 36
2, 536160, Note_on_c, 0, 72, 0
2, 536160, Note_on_c, 0, 72, 36
2, 536640, Note_on_c, 0, 72, 0
2, 536640, Note_on_c, 0, 74, 36
2, 536880, Note_on_c, 0, 74, 0
2, 536880, Note_on_c, 0, 72, 36
2, 537120, Note_on_c, 0, 72, 0
2, 537120, Note_on_c, 0, 71, 36
2, 537360, Note_on_c, 0, 71, 0
2, 537360, Note_on_c, 0, 69, 36
2, 537600, Note_on_c, 0, 69, 0
2, 537600, Note_on_c, 0, 69, 36
2, 538080, Note_on_c, 0, 69, 0
2, 538080, Note_on_c, 0, 69, 36
2, 538560, Note_on_c, 0, 69, 0
2, 538560, Note_on_c, 0, 71, 36
2, 538800, Note_on_c, 0, 71, 0
2, 538800, Note_on_c, 0, 69, 36
2, 539040, Note_on_c, 0, 69, 0
2, 539040, Note_on_c, 0, 67, 36
2, 539280, Note_on_c, 0, 67, 0
2, 539280, Note_on_c, 0, 66, 36
2, 539520, Note_on_c, 0, 66, 0
2, 539520, Note_on_c, 0, 74, 79
2, 539615, Control_c, 0, 7, 76
2, 539616, Control_c, 0, 7, 104
2, 540000, Note_on_c, 0, 74, 0
2, 540000, Note_on_c, 0, 74, 79
2, 540480, Note_on_c, 0, 74, 0
2, 540480, Note_on_c, 0, 76, 79
2, 540720, Note_on_c, 0, 76, 0
2, 540720, Note_on_c, 0, 74, 79
2, 540960, Note_on_c, 0, 74, 0
2, 540960, Note_on_c, 0, 72, 79
2, 541200, Note_on_c, 0, 72, 0
2, 541200, Note_on_c, 0, 71, 79
2, 541440, Note_on_c, 0, 71, 0
2, 541440, Note_on_c, 0, 76, 79
2, 541680, Note_on_c, 0, 76, 0
2, 541680, Note_on_c, 0, 74, 79
2, 541920, Note_on_c, 0, 74, 0
2, 541920, Note_on_c, 0, 76, 79
2, 542160, Note_on_c, 0, 76, 0
2, 542160, Note_on_c, 0, 78, 79
2, 542400, Note_on_c, 0, 78, 0
2, 542400, Note_on_c, 0, 79, 79
2, 542640, Note_on_c, 0, 79, 0
2, 542640, Note_on_c, 0, 78, 79
2, 542880, Note_on_c, 0, 78, 0
2, 542880, Note_on_c, 0, 79, 79
2, 543120, Note_on_c, 0, 79, 0
2, 543120, Note_on_c, 0, 81, 79
2, 543360, Note_on_c, 0, 81, 0
2, 543360, Note_on_c, 0, 83, 79
2, 543600, Note_on_c, 0, 83, 0
2, 543600, Note_on_c, 0, 81, 79
2, 543840, Note_on_c, 0, 81, 0
2, 543840, Note_on_c, 0, 83, 79
2, 544080, Note_on_c, 0, 83, 0
2, 544080, Note_on_c, 0, 84, 79
2, 544320, Note_on_c, 0, 84, 0
2, 544320, Note_on_c, 0, 86, 79
2, 544800, Note_on_c, 0, 86, 0
2, 545280, Note_on_c, 0, 71, 79
2, 545340, Note_on_c, 0, 71, 0
2, 545340, Note_on_c, 0, 69, 79
2, 545400, Note_on_c, 0, 69, 0
2, 545400, Note_on_c, 0, 71, 79
2, 545460, Note_on_c, 0, 71, 0
2, 545460, Note_on_c, 0, 69, 79
2, 545520, Note_on_c, 0, 69, 0
2, 545520, Note_on_c, 0, 71, 79
2, 545580, Note_on_c, 0, 71, 0
2, 545580, Note_on_c, 0, 69, 79
2, 545640, Note_on_c, 0, 69, 0
2, 545640, Note_on_c, 0, 71, 79
2, 545700, Note_on_c, 0, 71, 0
2, 545700, Note_on_c, 0, 69, 79
2, 545760, Note_on_c, 0, 69, 0
2, 545760, Note_on_c, 0, 71, 79
2, 545820, Note_on_c, 0, 71, 0
2, 545820, Note_on_c, 0, 69, 79
2, 545880, Note_on_c, 0, 69, 0
2, 545880, Note_on_c, 0, 71, 79
2, 545940, Note_on_c, 0, 71, 0
2, 545940, Note_on_c, 0, 69, 79
2, 546000, Note_on_c, 0, 69, 0
2, 546000, Note_on_c, 0, 71, 79
2, 546060, Note_on_c, 0, 71, 0
2, 546060, Note_on_c, 0, 69, 79
2, 546120, Note_on_c, 0, 69, 0
2, 546120, Note_on_c, 0, 71, 79
2, 546180, Note_on_c, 0, 71, 0
2, 546180, Note_on_c, 0, 69, 79
2, 546240, Note_on_c, 0, 69, 0
2, 546240, Note_on_c, 0, 67, 79
2, 546720, Note_on_c, 0, 67, 0
2, 547200, Note_on_c, 0, 79, 79
2, 547680, Note_on_c, 0, 79, 0
2, 547680, Note_on_c, 0, 81, 79
2, 547920, Note_on_c, 0, 81, 0
2, 547920, Note_on_c, 0, 83, 79
2, 548160, Note_on_c, 0, 83, 0
2, 548160, Note_on_c, 0, 83, 79
2, 548400, Note_on_c, 0, 83, 0
2, 548400, Note_on_c, 0, 81, 79
2, 548640, Note_on_c, 0, 81, 0
2, 548640, Note_on_c, 0, 79, 79
2, 548880, Note_on_c, 0, 79, 0
2, 548880, Note_on_c, 0, 78, 79
2, 549120, Note_on_c, 0, 78, 0
2, 549120, Note_on_c, 0, 78, 79
2, 549360, Note_on_c, 0, 78, 0
2, 549360, Note_on_c, 0, 76, 79
2, 549600, Note_on_c, 0, 76, 0
2, 549600, Note_on_c, 0, 74, 79
2, 549840, Note_on_c, 0, 74, 0
2, 549840, Note_on_c, 0, 73, 79
2, 550080, Note_on_c, 0, 73, 0
2, 550080, Note_on_c, 0, 76, 79
2, 550320, Note_on_c, 0, 76, 0
2, 550320, Note_on_c, 0, 74, 79
2, 550560, Note_on_c, 0, 74, 0
2, 550560, Note_on_c, 0, 78, 79
2, 550800, Note_on_c, 0, 78, 0
2, 550800, Note_on_c, 0, 76, 79
2, 551040, Note_on_c, 0, 76, 0
2, 551040, Note_on_c, 0, 79, 79
2, 551280, Note_on_c, 0, 79, 0
2, 551280, Note_on_c, 0, 78, 79
2, 551520, Note_on_c, 0, 78, 0
2, 551520, Note_on_c, 0, 81, 79
2, 551760, Note_on_c, 0, 81, 0
2, 551760, Note_on_c, 0, 79, 79
2, 552000, Note_on_c, 0, 79, 0
2, 552000, Note_on_c, 0, 83, 79
2, 552240, Note_on_c, 0, 83, 0
2, 552240, Note_on_c, 0, 81, 79
2, 552480, Note_on_c, 0, 81, 0
2, 552480, Note_on_c, 0, 79, 79
2, 552720, Note_on_c, 0, 79, 0
2, 552720, Note_on_c, 0, 78, 79
2, 552960, Note_on_c, 0, 78, 0
2, 552960, Note_on_c, 0, 78, 79
2, 553200, Note_on_c, 0, 78, 0
2, 553200, Note_on_c, 0, 76, 79
2, 553440, Note_on_c, 0, 76, 0
2, 553440, Note_on_c, 0, 79, 79
2, 553680, Note_on_c, 0, 79, 0
2, 553680, Note_on_c, 0, 83, 79
2, 553920, Note_on_c, 0, 83, 0
2, 553920, Note_on_c, 0, 74, 79
2, 554400, Note_on_c, 0, 74, 0
2, 554400, Note_on_c, 0, 73, 79
2, 554880, Note_on_c, 0, 73, 0
2, 554880, Note_on_c, 0, 79, 79
2, 555360, Note_on_c, 0, 79, 0
2, 555360, Note_on_c, 0, 81, 79
2, 555600, Note_on_c, 0, 81, 0
2, 555600, Note_on_c, 0, 83, 79
2, 555840, Note_on_c, 0, 83, 0
2, 555840, Note_on_c, 0, 83, 79
2, 556080, Note_on_c, 0, 83, 0
2, 556080, Note_on_c, 0, 81, 79
2, 556320, Note_on_c, 0, 81, 0
2, 556320, Note_on_c, 0, 79, 79
2, 556512, Control_c, 0, 7, 104
2, 556560, Note_on_c, 0, 79, 0
2, 556560, Note_on_c, 0, 78, 79
2, 556800, Note_on_c, 0, 78, 0
2, 556800, Note_on_c, 0, 78, 79
2, 556860, Note_on_c, 0, 78, 0
2, 556860, Note_on_c, 0, 76, 79
2, 556920, Note_on_c, 0, 76, 0
2, 556920, Note_on_c, 0, 76, 79
2, 557280, Note_on_c, 0, 76, 0
2, 557280, Note_on_c, 0, 74, 79
2, 557520, Note_on_c, 0, 74, 0
2, 557520, Note_on_c, 0, 73, 79
2, 557760, Note_on_c, 0, 73, 0
2, 557760, Note_on_c, 0, 76, 79
2, 558000, Note_on_c, 0, 76, 0
2, 558000, Note_on_c, 0, 74, 79
2, 558240, Note_on_c, 0, 74, 0
2, 558240, Note_on_c, 0, 78, 79
2, 558480, Note_on_c, 0, 78, 0
2, 558480, Note_on_c, 0, 76, 79
2, 558720, Note_on_c, 0, 76, 0
2, 558720, Note_on_c, 0, 79, 79
2, 558960, Note_on_c, 0, 79, 0
2, 558960, Note_on_c, 0, 78, 79
2, 559200, Note_on_c, 0, 78, 0
2, 559200, Note_on_c, 0, 81, 79
2, 559440, Note_on_c, 0, 81, 0
2, 559440, Note_on_c, 0, 79, 79
2, 559680, Note_on_c, 0, 79, 0
2, 559680, Note_on_c, 0, 83, 79
2, 559920, Note_on_c, 0, 83, 0
2, 559920, Note_on_c, 0, 81, 79
2, 560160, Note_on_c, 0, 81, 0
2, 560160, Note_on_c, 0, 79, 79
2, 560400, Note_on_c, 0, 79, 0
2, 560400, Note_on_c, 0, 78, 79
2, 560640, Note_on_c, 0, 78, 0
2, 560640, Note_on_c, 0, 78, 79
2, 560880, Note_on_c, 0, 78, 0
2, 560880, Note_on_c, 0, 76, 79
2, 561120, Note_on_c, 0, 76, 0
2, 561120, Note_on_c, 0, 74, 79
2, 561360, Note_on_c, 0, 74, 0
2, 561360, Note_on_c, 0, 73, 79
2, 561600, Note_on_c, 0, 73, 0
2, 561600, Note_on_c, 0, 74, 79
2, 561696, Control_c, 0, 7, 100
2, 562559, Control_c, 0, 7, 100
2, 562560, Note_on_c, 0, 74, 0
2, 562560, Note_on_c, 0, 62, 36
2, 562560, Control_c, 0, 7, 74
2, 563040, Note_on_c, 0, 62, 0
2, 563040, Note_on_c, 0, 62, 36
2, 563280, Note_on_c, 0, 62, 0
2, 563280, Note_on_c, 0, 62, 36
2, 563520, Note_on_c, 0, 62, 0
2, 563520, Note_on_c, 0, 65, 36
2, 564000, Note_on_c, 0, 65, 0
2, 564000, Note_on_c, 0, 64, 36
2, 564480, Note_on_c, 0, 64, 0
2, 564480, Note_on_c, 0, 64, 36
2, 564960, Note_on_c, 0, 64, 0
2, 564960, Note_on_c, 0, 64, 36
2, 565200, Note_on_c, 0, 64, 0
2, 565200, Note_on_c, 0, 64, 36
2, 565440, Note_on_c, 0, 64, 0
2, 565440, Note_on_c, 0, 64, 36
2, 565920, Note_on_c, 0, 64, 0
2, 565920, Note_on_c, 0, 57, 36
2, 566400, Note_on_c, 0, 57, 0
2, 566400, Note_on_c, 0, 60, 36
2, 566880, Note_on_c, 0, 60, 0
2, 566880, Note_on_c, 0, 60, 36
2, 567120, Note_on_c, 0, 60, 0
2, 567120, Note_on_c, 0, 60, 36
2, 567360, Note_on_c, 0, 60, 0
2, 567360, Note_on_c, 0, 63, 36
2, 567840, Note_on_c, 0, 63, 0
2, 567840, Note_on_c, 0, 62, 36
2, 568320, Note_on_c, 0, 62, 0
2, 568320, Note_on_c, 0, 62, 36
2, 568800, Note_on_c, 0, 62, 0
2, 568800, Note_on_c, 0, 62, 36
2, 569040, Note_on_c, 0, 62, 0
2, 569040, Note_on_c, 0, 62, 36
2, 569280, Note_on_c, 0, 62, 0
2, 569280, Note_on_c, 0, 62, 36
2, 569760, Note_on_c, 0, 62, 0
2, 569760, Note_on_c, 0, 55, 36
2, 570240, Note_on_c, 0, 55, 0
2, 570240, Note_on_c, 0, 83, 79
2, 570287, Control_c, 0, 7, 74
2, 570288, Control_c, 0, 7, 108
2, 570480, Note_on_c, 0, 83, 0
2, 570480, Note_on_c, 0, 81, 79
2, 570720, Note_on_c, 0, 81, 0
2, 570720, Note_on_c, 0, 79, 79
2, 570960, Note_on_c, 0, 79, 0
2, 570960, Note_on_c, 0, 78, 79
2, 571200, Note_on_c, 0, 78, 0
2, 571200, Note_on_c, 0, 79, 79
2, 571332, Control_c, 0, 7, 107
2, 571440, Note_on_c, 0, 79, 0
2, 571440, Note_on_c, 0, 78, 79
2, 571680, Note_on_c, 0, 78, 0
2, 571680, Note_on_c, 0, 76, 79
2, 571920, Note_on_c, 0, 76, 0
2, 571920, Note_on_c, 0, 74, 79
2, 572160, Note_on_c, 0, 74, 0
2, 572160, Note_on_c, 0, 76, 79
2, 572376, Control_c, 0, 7, 106
2, 572400, Note_on_c, 0, 76, 0
2, 572400, Note_on_c, 0, 74, 79
2, 572640, Note_on_c, 0, 74, 0
2, 572640, Note_on_c, 0, 72, 79
2, 572880, Note_on_c, 0, 72, 0
2, 572880, Note_on_c, 0, 71, 79
2, 573120, Note_on_c, 0, 71, 0
2, 573120, Note_on_c, 0, 72, 79
2, 573360, Note_on_c, 0, 72, 0
2, 573360, Note_on_c, 0, 71, 79
2, 573420, Control_c, 0, 7, 105
2, 573600, Note_on_c, 0, 71, 0
2, 573600, Note_on_c, 0, 69, 79
2, 573840, Note_on_c, 0, 69, 0
2, 573840, Note_on_c, 0, 67, 79
2, 574080, Note_on_c, 0, 67, 0
2, 574080, Note_on_c, 0, 69, 79
2, 574320, Note_on_c, 0, 69, 0
2, 574320, Note_on_c, 0, 67, 79
2, 574463, Control_c, 0, 7, 104
2, 574560, Note_on_c, 0, 67, 0
2, 574560, Note_on_c, 0, 66, 79
2, 574800, Note_on_c, 0, 66, 0
2, 574800, Note_on_c, 0, 64, 79
2, 575040, Note_on_c, 0, 64, 0
2, 575040, Note_on_c, 0, 62, 79
2, 575520, Note_on_c, 0, 62, 0
2, 575520, Note_on_c, 0, 72, 79
2, 576480, Note_on_c, 0, 72, 0
2, 576480, Note_on_c, 0, 72, 79
2, 576540, Note_on_c, 0, 72, 0
2, 576540, Note_on_c, 0, 71, 79
2, 576600, Note_on_c, 0, 71, 0
2, 576600, Note_on_c, 0, 72, 79
2, 576660, Note_on_c, 0, 72, 0
2, 576660, Note_on_c, 0, 71, 79
2, 576720, Note_on_c, 0, 71, 0
2, 576720, Note_on_c, 0, 72, 79
2, 576780, Note_on_c, 0, 72, 0
2, 576780, Note_on_c, 0, 71, 79
2, 576840, Note_on_c, 0, 71, 0
2, 576840, Note_on_c, 0, 72, 79
2, 576900, Note_on_c, 0, 72, 0
2, 576900, Note_on_c, 0, 71, 79
2, 576960, Note_on_c, 0, 71, 0
2, 576960, Note_on_c, 0, 69, 79
2, 577440, Note_on_c, 0, 69, 0
2, 577920, Note_on_c, 0, 74, 36
2, 577968, Control_c, 0, 7, 58
2, 578016, Control_c, 0, 7, 72
2, 578400, Note_on_c, 0, 74, 0
2, 578400, Note_on_c, 0, 74, 36
2, 578880, Note_on_c, 0, 74, 0
2, 578880, Note_on_c, 0, 76, 36
2, 579120, Note_on_c, 0, 76, 0
2, 579120, Note_on_c, 0, 74, 36
2, 579360, Note_on_c, 0, 74, 0
2, 579360, Note_on_c, 0, 72, 36
2, 579600, Note_on_c, 0, 72, 0
2, 579600, Note_on_c, 0, 71, 36
2, 579840, Note_on_c, 0, 71, 0
2, 579840, Note_on_c, 0, 76, 36
2, 580320, Note_on_c, 0, 76, 0
2, 580320, Note_on_c, 0, 76, 36
2, 580800, Note_on_c, 0, 76, 0
2, 580800, Note_on_c, 0, 76, 36
2, 581760, Note_on_c, 0, 76, 0
2, 581760, Note_on_c, 0, 72, 36
2, 582240, Note_on_c, 0, 72, 0
2, 582240, Note_on_c, 0, 72, 36
2, 582720, Note_on_c, 0, 72, 0
2, 582720, Note_on_c, 0, 74, 36
2, 582960, Note_on_c, 0, 74, 0
2, 582960, Note_on_c, 0, 72, 36
2, 583200, Note_on_c, 0, 72, 0
2, 583200, Note_on_c, 0, 71, 36
2, 583440, Note_on_c, 0, 71, 0
2, 583440, Note_on_c, 0, 69, 36
2, 583680, Note_on_c, 0, 69, 0
2, 583680, Note_on_c, 0, 69, 36
2, 584160, Note_on_c, 0, 69, 0
2, 584160, Note_on_c, 0, 69, 36
2, 584640, Note_on_c, 0, 69, 0
2, 584640, Note_on_c, 0, 71, 36
2, 584880, Note_on_c, 0, 71, 0
2, 584880, Note_on_c, 0, 69, 36
2, 585120, Note_on_c, 0, 69, 0
2, 585120, Note_on_c, 0, 67, 36
2, 585360, Note_on_c, 0, 67, 0
2, 585360, Note_on_c, 0, 66, 36
2, 585600, Note_on_c, 0, 66, 0
2, 585600, Note_on_c, 0, 74, 79
2, 585647, Control_c, 0, 7, 72
2, 585648, Control_c, 0, 7, 106
2, 586080, Note_on_c, 0, 74, 0
2, 586080, Note_on_c, 0, 74, 79
2, 586560, Note_on_c, 0, 74, 0
2, 586560, Note_on_c, 0, 76, 79
2, 586800, Note_on_c, 0, 76, 0
2, 586800, Note_on_c, 0, 74, 79
2, 587040, Note_on_c, 0, 74, 0
2, 587040, Note_on_c, 0, 72, 79
2, 587280, Note_on_c, 0, 72, 0
2, 587280, Note_on_c, 0, 71, 79
2, 587520, Note_on_c, 0, 71, 0
2, 587520, Note_on_c, 0, 76, 79
2, 587760, Note_on_c, 0, 76, 0
2, 587760, Note_on_c, 0, 74, 79
2, 588000, Note_on_c, 0, 74, 0
2, 588000, Note_on_c, 0, 76, 79
2, 588240, Note_on_c, 0, 76, 0
2, 588240, Note_on_c, 0, 78, 79
2, 588480, Note_on_c, 0, 78, 0
2, 588480, Note_on_c, 0, 79, 79
2, 588720, Note_on_c, 0, 79, 0
2, 588720, Note_on_c, 0, 78, 79
2, 588960, Note_on_c, 0, 78, 0
2, 588960, Note_on_c, 0, 79, 79
2, 589200, Note_on_c, 0, 79, 0
2, 589200, Note_on_c, 0, 81, 79
2, 589440, Note_on_c, 0, 81, 0
2, 589440, Note_on_c, 0, 83, 79
2, 589680, Note_on_c, 0, 83, 0
2, 589680, Note_on_c, 0, 81, 79
2, 589920, Note_on_c, 0, 81, 0
2, 589920, Note_on_c, 0, 83, 79
2, 590160, Note_on_c, 0, 83, 0
2, 590160, Note_on_c, 0, 84, 79
2, 590400, Note_on_c, 0, 84, 0
2, 590400, Note_on_c, 0, 86, 79
2, 590880, Note_on_c, 0, 86, 0
2, 591360, Note_on_c, 0, 71, 79
2, 591420, Note_on_c, 0, 71, 0
2, 591420, Note_on_c, 0, 69, 79
2, 591480, Note_on_c, 0, 69, 0
2, 591480, Note_on_c, 0, 71, 79
2, 591540, Note_on_c, 0, 71, 0
2, 591540, Note_on_c, 0, 69, 79
2, 591600, Note_on_c, 0, 69, 0
2, 591600, Note_on_c, 0, 71, 79
2, 591660, Note_on_c, 0, 71, 0
2, 591660, Note_on_c, 0, 69, 79
2, 591720, Note_on_c, 0, 69, 0
2, 591720, Note_on_c, 0, 71, 79
2, 591780, Note_on_c, 0, 71, 0
2, 591780, Note_on_c, 0, 69, 79
2, 591840, Note_on_c, 0, 69, 0
2, 591840, Note_on_c, 0, 71, 79
2, 591900, Note_on_c, 0, 71, 0
2, 591900, Note_on_c, 0, 69, 79
2, 591960, Note_on_c, 0, 69, 0
2, 591960, Note_on_c, 0, 71, 79
2, 592020, Note_on_c, 0, 71, 0
2, 592020, Note_on_c, 0, 69, 79
2, 592080, Note_on_c, 0, 69, 0
2, 592080, Note_on_c, 0, 71, 79
2, 592140, Note_on_c, 0, 71, 0
2, 592140, Note_on_c, 0, 69, 79
2, 592200, Note_on_c, 0, 69, 0
2, 592200, Note_on_c, 0, 71, 79
2, 592260, Note_on_c, 0, 71, 0
2, 592260, Note_on_c, 0, 69, 79
2, 592320, Note_on_c, 0, 69, 0
2, 592320, Note_on_c, 0, 67, 79
2, 592800, Note_on_c, 0, 67, 0
2, 593280, Note_on_c, 0, 79, 79
2, 593760, Note_on_c, 0, 79, 0
2, 593760, Note_on_c, 0, 81, 79
2, 594000, Note_on_c, 0, 81, 0
2, 594000, Note_on_c, 0, 83, 79
2, 594240, Note_on_c, 0, 83, 0
2, 594240, Note_on_c, 0, 83, 79
2, 594480, Note_on_c, 0, 83, 0
2, 594480, Note_on_c, 0, 81, 79
2, 594720, Note_on_c, 0, 81, 0
2, 594720, Note_on_c, 0, 79, 79
2, 594960, Note_on_c, 0, 79, 0
2, 594960, Note_on_c, 0, 78, 79
2, 595200, Note_on_c, 0, 78, 0
2, 595200, Note_on_c, 0, 78, 79
2, 595440, Note_on_c, 0, 78, 0
2, 595440, Note_on_c, 0, 76, 79
2, 595680, Note_on_c, 0, 76, 0
2, 595680, Note_on_c, 0, 74, 79
2, 595920, Note_on_c, 0, 74, 0
2, 595920, Note_on_c, 0, 73, 79
2, 596160, Note_on_c, 0, 73, 0
2, 596160, Note_on_c, 0, 76, 79
2, 596400, Note_on_c, 0, 76, 0
2, 596400, Note_on_c, 0, 74, 79
2, 596640, Note_on_c, 0, 74, 0
2, 596640, Note_on_c, 0, 78, 79
2, 596880, Note_on_c, 0, 78, 0
2, 596880, Note_on_c, 0, 76, 79
2, 597120, Note_on_c, 0, 76, 0
2, 597120, Note_on_c, 0, 79, 79
2, 597360, Note_on_c, 0, 79, 0
2, 597360, Note_on_c, 0, 78, 79
2, 597600, Note_on_c, 0, 78, 0
2, 597600, Note_on_c, 0, 81, 79
2, 597840, Note_on_c, 0, 81, 0
2, 597840, Note_on_c, 0, 79, 79
2, 598080, Note_on_c, 0, 79, 0
2, 598080, Note_on_c, 0, 83, 79
2, 598320, Note_on_c, 0, 83, 0
2, 598320, Note_on_c, 0, 81, 79
2, 598560, Note_on_c, 0, 81, 0
2, 598560, Note_on_c, 0, 79, 79
2, 598800, Note_on_c, 0, 79, 0
2, 598800, Note_on_c, 0, 78, 79
2, 599040, Note_on_c, 0, 78, 0
2, 599040, Note_on_c, 0, 78, 79
2, 599280, Note_on_c, 0, 78, 0
2, 599280, Note_on_c, 0, 76, 79
2, 599520, Note_on_c, 0, 76, 0
2, 599520, Note_on_c, 0, 79, 79
2, 599760, Note_on_c, 0, 79, 0
2, 599760, Note_on_c, 0, 83, 79
2, 600000, Note_on_c, 0, 83, 0
2, 600000, Note_on_c, 0, 74, 79
2, 600480, Note_on_c, 0, 74, 0
2, 600480, Note_on_c, 0, 73, 79
2, 600960, Note_on_c, 0, 73, 0
2, 600960, Note_on_c, 0, 79, 79
2, 601440, Note_on_c, 0, 79, 0
2, 601440, Note_on_c, 0, 81, 79
2, 601680, Note_on_c, 0, 81, 0
2, 601680, Note_on_c, 0, 83, 79
2, 601920, Note_on_c, 0, 83, 0
2, 601920, Note_on_c, 0, 83, 79
2, 602160, Note_on_c, 0, 83, 0
2, 602160, Note_on_c, 0, 81, 79
2, 602400, Note_on_c, 0, 81, 0
2, 602400, Note_on_c, 0, 79, 79
2, 602640, Note_on_c, 0, 79, 0
2, 602640, Note_on_c, 0, 78, 79
2, 602880, Note_on_c, 0, 78, 0
2, 602880, Note_on_c, 0, 78, 79
2, 602940, Note_on_c, 0, 78, 0
2, 602940, Note_on_c, 0, 76, 79
2, 603000, Note_on_c, 0, 76, 0
2, 603000, Note_on_c, 0, 76, 79
2, 603360, Note_on_c, 0, 76, 0
2, 603360, Note_on_c, 0, 74, 79
2, 603600, Note_on_c, 0, 74, 0
2, 603600, Note_on_c, 0, 73, 79
2, 603840, Note_on_c, 0, 73, 0
2, 603840, Note_on_c, 0, 76, 79
2, 604080, Note_on_c, 0, 76, 0
2, 604080, Note_on_c, 0, 74, 79
2, 604320, Note_on_c, 0, 74, 0
2, 604320, Note_on_c, 0, 78, 79
2, 604560, Note_on_c, 0, 78, 0
2, 604560, Note_on_c, 0, 76, 79
2, 604800, Note_on_c, 0, 76, 0
2, 604800, Note_on_c, 0, 79, 79
2, 605040, Note_on_c, 0, 79, 0
2, 605040, Note_on_c, 0, 78, 79
2, 605280, Note_on_c, 0, 78, 0
2, 605280, Note_on_c, 0, 81, 79
2, 605520, Note_on_c, 0, 81, 0
2, 605520, Note_on_c, 0, 79, 79
2, 605760, Note_on_c, 0, 79, 0
2, 605760, Note_on_c, 0, 83, 79
2, 606000, Note_on_c, 0, 83, 0
2, 606000, Note_on_c, 0, 81, 79
2, 606240, Note_on_c, 0, 81, 0
2, 606240, Note_on_c, 0, 79, 79
2, 606480, Note_on_c, 0, 79, 0
2, 606480, Note_on_c, 0, 78, 79
2, 606720, Note_on_c, 0, 78, 0
2, 606720, Note_on_c, 0, 78, 79
2, 606960, Note_on_c, 0, 78, 0
2, 606960, Note_on_c, 0, 76, 79
2, 607200, Note_on_c, 0, 76, 0
2, 607200, Note_on_c, 0, 74, 79
2, 607440, Note_on_c, 0, 74, 0
2, 607440, Note_on_c, 0, 73, 79
2, 607680, Note_on_c, 0, 73, 0
2, 607680, Note_on_c, 0, 74, 79
2, 608640, Note_on_c, 0, 74, 0
2, 608640, Note_on_c, 0, 62, 36
2, 608736, Control_c, 0, 7, 60
2, 608784, Control_c, 0, 7, 76
2, 609120, Note_on_c, 0, 62, 0
2, 609120, Note_on_c, 0, 62, 36
2, 609360, Note_on_c, 0, 62, 0
2, 609360, Note_on_c, 0, 62, 36
2, 609600, Note_on_c, 0, 62, 0
2, 609600, Note_on_c, 0, 65, 36
2, 610080, Note_on_c, 0, 65, 0
2, 610080, Note_on_c, 0, 64, 36
2, 610560, Note_on_c, 0, 64, 0
2, 610560, Note_on_c, 0, 64, 36
2, 611040, Note_on_c, 0, 64, 0
2, 611040, Note_on_c, 0, 64, 36
2, 611280, Note_on_c, 0, 64, 0
2, 611280, Note_on_c, 0, 64, 36
2, 611520, Note_on_c, 0, 64, 0
2, 611520, Note_on_c, 0, 64, 36
2, 612000, Note_on_c, 0, 64, 0
2, 612000, Note_on_c, 0, 57, 36
2, 612480, Note_on_c, 0, 57, 0
2, 612480, Note_on_c, 0, 60, 36
2, 612960, Note_on_c, 0, 60, 0
2, 612960, Note_on_c, 0, 60, 36
2, 613200, Note_on_c, 0, 60, 0
2, 613200, Note_on_c, 0, 60, 36
2, 613440, Note_on_c, 0, 60, 0
2, 613440, Note_on_c, 0, 63, 36
2, 613920, Note_on_c, 0, 63, 0
2, 613920, Note_on_c, 0, 62, 36
2, 614400, Note_on_c, 0, 62, 0
2, 614400, Note_on_c, 0, 62, 36
2, 614880, Note_on_c, 0, 62, 0
2, 614880, Note_on_c, 0, 62, 36
2, 615120, Note_on_c, 0, 62, 0
2, 615120, Note_on_c, 0, 62, 36
2, 615360, Note_on_c, 0, 62, 0
2, 615360, Note_on_c, 0, 62, 36
2, 615840, Note_on_c, 0, 62, 0
2, 615840, Note_on_c, 0, 55, 36
2, 616320, Note_on_c, 0, 55, 0
2, 616320, Note_on_c, 0, 83, 79
2, 616415, Control_c, 0, 7, 76
2, 616560, Note_on_c, 0, 83, 0
2, 616560, Note_on_c, 0, 81, 79
2, 616800, Note_on_c, 0, 81, 0
2, 616800, Note_on_c, 0, 79, 79
2, 617040, Note_on_c, 0, 79, 0
2, 617040, Note_on_c, 0, 78, 79
2, 617280, Note_on_c, 0, 78, 0
2, 617280, Note_on_c, 0, 79, 79
2, 617520, Note_on_c, 0, 79, 0
2, 617520, Note_on_c, 0, 78, 79
2, 617760, Note_on_c, 0, 78, 0
2, 617760, Note_on_c, 0, 76, 79
2, 618000, Note_on_c, 0, 76, 0
2, 618000, Note_on_c, 0, 74, 79
2, 618240, Note_on_c, 0, 74, 0
2, 618240, Note_on_c, 0, 76, 79
2, 618480, Note_on_c, 0, 76, 0
2, 618480, Note_on_c, 0, 74, 79
2, 618720, Note_on_c, 0, 74, 0
2, 618720, Note_on_c, 0, 72, 79
2, 618960, Note_on_c, 0, 72, 0
2, 618960, Note_on_c, 0, 71, 79
2, 619200, Note_on_c, 0, 71, 0
2, 619200, Note_on_c, 0, 72, 79
2, 619440, Note_on_c, 0, 72, 0
2, 619440, Note_on_c, 0, 71, 79
2, 619680, Note_on_c, 0, 71, 0
2, 619680, Note_on_c, 0, 69, 79
2, 619920, Note_on_c, 0, 69, 0
2, 619920, Note_on_c, 0, 67, 79
2, 620160, Note_on_c, 0, 67, 0
2, 620160, Note_on_c, 0, 69, 79
2, 620400, Note_on_c, 0, 69, 0
2, 620400, Note_on_c, 0, 67, 79
2, 620640, Note_on_c, 0, 67, 0
2, 620640, Note_on_c, 0, 66, 79
2, 620880, Note_on_c, 0, 66, 0
2, 620880, Note_on_c, 0, 64, 79
2, 621120, Note_on_c, 0, 64, 0
2, 621120, Note_on_c, 0, 62, 79
2, 621600, Note_on_c, 0, 62, 0
2, 621600, Note_on_c, 0, 72, 79
2, 622560, Note_on_c, 0, 72, 0
2, 622560, Note_on_c, 0, 72, 79
2, 622620, Note_on_c, 0, 72, 0
2, 622620, Note_on_c, 0, 71, 79
2, 622680, Note_on_c, 0, 71, 0
2, 622680, Note_on_c, 0, 72, 79
2, 622740, Note_on_c, 0, 72, 0
2, 622740, Note_on_c, 0, 71, 79
2, 622800, Note_on_c, 0, 71, 0
2, 622800, Note_on_c, 0, 72, 79
2, 622860, Note_on_c, 0, 72, 0
2, 622860, Note_on_c, 0, 71, 79
2, 622920, Note_on_c, 0, 71, 0
2, 622920, Note_on_c, 0, 72, 79
2, 622980, Note_on_c, 0, 72, 0
2, 622980, Note_on_c, 0, 71, 79
2, 623040, Note_on_c, 0, 71, 0
2, 623040, Note_on_c, 0, 69, 79
2, 623520, Note_on_c, 0, 69, 0
2, 624000, Note_on_c, 0, 74, 36
2, 624048, Control_c, 0, 7, 78
2, 624480, Note_on_c, 0, 74, 0
2, 624480, Note_on_c, 0, 74, 36
2, 624960, Note_on_c, 0, 74, 0
2, 624960, Note_on_c, 0, 76, 36
2, 625200, Note_on_c, 0, 76, 0
2, 625200, Note_on_c, 0, 74, 36
2, 625440, Note_on_c, 0, 74, 0
2, 625440, Note_on_c, 0, 72, 36
2, 625680, Note_on_c, 0, 72, 0
2, 625680, Note_on_c, 0, 71, 36
2, 625920, Note_on_c, 0, 71, 0
2, 625920, Note_on_c, 0, 76, 36
2, 625992, Control_c, 0, 7, 77
2, 626400, Note_on_c, 0, 76, 0
2, 626400, Note_on_c, 0, 76, 36
2, 626880, Note_on_c, 0, 76, 0
2, 626880, Note_on_c, 0, 76, 36
2, 627840, Note_on_c, 0, 76, 0
2, 627840, Note_on_c, 0, 72, 36
2, 627936, Control_c, 0, 7, 76
2, 628320, Note_on_c, 0, 72, 0
2, 628320, Note_on_c, 0, 72, 36
2, 628800, Note_on_c, 0, 72, 0
2, 628800, Note_on_c, 0, 74, 36
2, 629040, Note_on_c, 0, 74, 0
2, 629040, Note_on_c, 0, 72, 36
2, 629280, Note_on_c, 0, 72, 0
2, 629280, Note_on_c, 0, 71, 36
2, 629520, Note_on_c, 0, 71, 0
2, 629520, Note_on_c, 0, 69, 36
2, 629760, Note_on_c, 0, 69, 0
2, 629760, Note_on_c, 0, 69, 36
2, 629880, Control_c, 0, 7, 75
2, 630240, Note_on_c, 0, 69, 0
2, 630240, Note_on_c, 0, 69, 36
2, 630720, Note_on_c, 0, 69, 0
2, 630720, Note_on_c, 0, 71, 36
2, 630960, Note_on_c, 0, 71, 0
2, 630960, Note_on_c, 0, 69, 36
2, 631200, Note_on_c, 0, 69, 0
2, 631200, Note_on_c, 0, 67, 36
2, 631440, Note_on_c, 0, 67, 0
2, 631440, Note_on_c, 0, 66, 36
2, 631680, Note_on_c, 0, 66, 0
2, 631680, Note_on_c, 0, 74, 79
2, 631823, Control_c, 0, 7, 74
2, 632160, Note_on_c, 0, 74, 0
2, 632160, Note_on_c, 0, 74, 79
2, 632640, Note_on_c, 0, 74, 0
2, 632640, Note_on_c, 0, 76, 79
2, 632880, Note_on_c, 0, 76, 0
2, 632880, Note_on_c, 0, 74, 79
2, 633120, Note_on_c, 0, 74, 0
2, 633120, Note_on_c, 0, 72, 79
2, 633360, Note_on_c, 0, 72, 0
2, 633360, Note_on_c, 0, 71, 79
2, 633600, Note_on_c, 0, 71, 0
2, 633600, Note_on_c, 0, 76, 79
2, 633840, Note_on_c, 0, 76, 0
2, 633840, Note_on_c, 0, 74, 79
2, 634080, Note_on_c, 0, 74, 0
2, 634080, Note_on_c, 0, 76, 79
2, 634320, Note_on_c, 0, 76, 0
2, 634320, Note_on_c, 0, 78, 79
2, 634560, Note_on_c, 0, 78, 0
2, 634560, Note_on_c, 0, 79, 79
2, 634800, Note_on_c, 0, 79, 0
2, 634800, Note_on_c, 0, 78, 79
2, 635040, Note_on_c, 0, 78, 0
2, 635040, Note_on_c, 0, 79, 79
2, 635280, Note_on_c, 0, 79, 0
2, 635280, Note_on_c, 0, 81, 79
2, 635520, Note_on_c, 0, 81, 0
2, 635520, Note_on_c, 0, 83, 79
2, 635760, Note_on_c, 0, 83, 0
2, 635760, Note_on_c, 0, 81, 79
2, 636000, Note_on_c, 0, 81, 0
2, 636000, Note_on_c, 0, 83, 79
2, 636240, Note_on_c, 0, 83, 0
2, 636240, Note_on_c, 0, 84, 79
2, 636480, Note_on_c, 0, 84, 0
2, 636480, Note_on_c, 0, 86, 79
2, 636960, Note_on_c, 0, 86, 0
2, 637440, Note_on_c, 0, 71, 79
2, 637500, Note_on_c, 0, 71, 0
2, 637500, Note_on_c, 0, 69, 79
2, 637560, Note_on_c, 0, 69, 0
2, 637560, Note_on_c, 0, 71, 79
2, 637620, Note_on_c, 0, 71, 0
2, 637620, Note_on_c, 0, 69, 79
2, 637680, Note_on_c, 0, 69, 0
2, 637680, Note_on_c, 0, 71, 79
2, 637740, Note_on_c, 0, 71, 0
2, 637740, Note_on_c, 0, 69, 79
2, 637800, Note_on_c, 0, 69, 0
2, 637800, Note_on_c, 0, 71, 79
2, 637860, Note_on_c, 0, 71, 0
2, 637860, Note_on_c, 0, 69, 79
2, 637920, Note_on_c, 0, 69, 0
2, 637920, Note_on_c, 0, 71, 79
2, 637980, Note_on_c, 0, 71, 0
2, 637980, Note_on_c, 0, 69, 79
2, 638040, Note_on_c, 0, 69, 0
2, 638040, Note_on_c, 0, 71, 79
2, 638100, Note_on_c, 0, 71, 0
2, 638100, Note_on_c, 0, 69, 79
2, 638160, Note_on_c, 0, 69, 0
2, 638160, Note_on_c, 0, 71, 79
2, 638220, Note_on_c, 0, 71, 0
2, 638220, Note_on_c, 0, 69, 79
2, 638280, Note_on_c, 0, 69, 0
2, 638280, Note_on_c, 0, 71, 79
2, 638340, Note_on_c, 0, 71, 0
2, 638340, Note_on_c, 0, 69, 79
2, 638400, Note_on_c, 0, 69, 0
2, 638400, Note_on_c, 0, 67, 79
2, 638880, Note_on_c, 0, 67, 0
2, 639360, Note_on_c, 0, 67, 36
2, 639407, Control_c, 0, 7, 104
2, 639456, Control_c, 0, 7, 54
2, 639504, Control_c, 0, 7, 68
2, 639840, Note_on_c, 0, 67, 0
2, 639840, Note_on_c, 0, 67, 36
2, 640080, Note_on_c, 0, 67, 0
2, 640080, Note_on_c, 0, 67, 36
2, 640320, Note_on_c, 0, 67, 0
2, 640320, Note_on_c, 0, 70, 36
2, 640800, Note_on_c, 0, 70, 0
2, 640800, Note_on_c, 0, 69, 36
2, 641280, Note_on_c, 0, 69, 0
2, 641280, Note_on_c, 0, 69, 36
2, 641760, Note_on_c, 0, 69, 0
2, 641760, Note_on_c, 0, 69, 36
2, 642000, Note_on_c, 0, 69, 0
2, 642000, Note_on_c, 0, 69, 36
2, 642240, Note_on_c, 0, 69, 0
2, 642240, Note_on_c, 0, 72, 36
2, 642720, Note_on_c, 0, 72, 0
2, 642720, Note_on_c, 0, 70, 36
2, 643200, Note_on_c, 0, 70, 0
2, 643200, Note_on_c, 0, 70, 36
2, 643680, Note_on_c, 0, 70, 0
2, 643680, Note_on_c, 0, 70, 36
2, 643920, Note_on_c, 0, 70, 0
2, 643920, Note_on_c, 0, 70, 36
2, 644160, Note_on_c, 0, 70, 0
2, 644160, Note_on_c, 0, 74, 36
2, 644640, Note_on_c, 0, 74, 0
2, 644640, Note_on_c, 0, 72, 36
2, 645120, Note_on_c, 0, 72, 0
2, 645120, Note_on_c, 0, 72, 36
2, 645600, Note_on_c, 0, 72, 0
2, 645600, Note_on_c, 0, 72, 36
2, 645840, Note_on_c, 0, 72, 0
2, 645840, Note_on_c, 0, 72, 36
2, 646080, Note_on_c, 0, 72, 0
2, 646080, Note_on_c, 0, 75, 36
2, 646560, Note_on_c, 0, 75, 0
2, 646560, Note_on_c, 0, 74, 36
2, 646992, Control_c, 0, 7, 68
2, 647040, Note_on_c, 0, 74, 0
2, 647040, Note_on_c, 0, 74, 36
2, 647520, Note_on_c, 0, 74, 0
2, 647520, Note_on_c, 0, 74, 36
2, 647760, Note_on_c, 0, 74, 0
2, 647760, Note_on_c, 0, 74, 36
2, 648000, Note_on_c, 0, 74, 0
2, 648000, Note_on_c, 0, 77, 36
2, 648480, Note_on_c, 0, 77, 0
2, 648480, Note_on_c, 0, 76, 36
2, 648960, Note_on_c, 0, 76, 0
2, 648960, Note_on_c, 0, 76, 36
2, 649440, Note_on_c, 0, 76, 0
2, 649440, Note_on_c, 0, 76, 36
2, 649680, Note_on_c, 0, 76, 0
2, 649680, Note_on_c, 0, 76, 36
2, 649920, Note_on_c, 0, 76, 0
2, 649920, Note_on_c, 0, 79, 36
2, 650400, Note_on_c, 0, 79, 0
2, 650400, Note_on_c, 0, 77, 36
2, 650880, Note_on_c, 0, 77, 0
2, 654480, Control_c, 0, 7, 69
2, 654720, Note_on_c, 0, 67, 36
2, 655200, Note_on_c, 0, 67, 0
2, 655200, Note_on_c, 0, 67, 36
2, 655440, Note_on_c, 0, 67, 0
2, 655440, Note_on_c, 0, 67, 36
2, 655680, Note_on_c, 0, 67, 0
2, 655680, Note_on_c, 0, 70, 36
2, 656160, Note_on_c, 0, 70, 0
2, 656160, Note_on_c, 0, 69, 36
2, 656640, Note_on_c, 0, 69, 0
2, 656640, Note_on_c, 0, 69, 36
2, 657120, Note_on_c, 0, 69, 0
2, 657120, Note_on_c, 0, 69, 36
2, 657360, Note_on_c, 0, 69, 0
2, 657360, Note_on_c, 0, 69, 36
2, 657600, Note_on_c, 0, 69, 0
2, 657600, Note_on_c, 0, 72, 36
2, 658080, Note_on_c, 0, 72, 0
2, 658080, Note_on_c, 0, 70, 36
2, 658560, Note_on_c, 0, 70, 0
2, 658560, Note_on_c, 0, 70, 36
2, 659040, Note_on_c, 0, 70, 0
2, 659040, Note_on_c, 0, 70, 36
2, 659280, Note_on_c, 0, 70, 0
2, 659280, Note_on_c, 0, 70, 36
2, 659520, Note_on_c, 0, 70, 0
2, 659520, Note_on_c, 0, 74, 36
2, 660000, Note_on_c, 0, 74, 0
2, 660000, Note_on_c, 0, 72, 36
2, 660480, Note_on_c, 0, 72, 0
2, 660480, Note_on_c, 0, 72, 36
2, 660960, Note_on_c, 0, 72, 0
2, 660960, Note_on_c, 0, 72, 36
2, 661200, Note_on_c, 0, 72, 0
2, 661200, Note_on_c, 0, 72, 36
2, 661440, Note_on_c, 0, 72, 0
2, 661440, Note_on_c, 0, 75, 36
2, 661920, Note_on_c, 0, 75, 0
2, 661920, Note_on_c, 0, 74, 36
2, 661968, Control_c, 0, 7, 70
2, 662400, Note_on_c, 0, 74, 0
2, 662400, Note_on_c, 0, 74, 36
2, 662880, Note_on_c, 0, 74, 0
2, 662880, Note_on_c, 0, 74, 36
2, 663120, Note_on_c, 0, 74, 0
2, 663120, Note_on_c, 0, 74, 36
2, 663360, Note_on_c, 0, 74, 0
2, 663360, Note_on_c, 0, 77, 36
2, 663840, Note_on_c, 0, 77, 0
2, 663840, Note_on_c, 0, 76, 36
2, 664320, Note_on_c, 0, 76, 0
2, 664320, Note_on_c, 0, 76, 36
2, 664800, Note_on_c, 0, 76, 0
2, 664800, Note_on_c, 0, 76, 36
2, 665040, Note_on_c, 0, 76, 0
2, 665040, Note_on_c, 0, 76, 36
2, 665280, Note_on_c, 0, 76, 0
2, 665280, Note_on_c, 0, 79, 36
2, 665760, Note_on_c, 0, 79, 0
2, 665760, Note_on_c, 0, 77, 36
2, 666240, Note_on_c, 0, 77, 0
2, 669455, Control_c, 0, 7, 72
2, 669456, Control_c, 0, 7, 102
2, 670080, Note_on_c, 0, 74, 79
2, 670560, Note_on_c, 0, 74, 0
2, 670560, Note_on_c, 0, 74, 79
2, 670800, Note_on_c, 0, 74, 0
2, 670800, Note_on_c, 0, 74, 79
2, 671040, Note_on_c, 0, 74, 0
2, 671040, Note_on_c, 0, 77, 79
2, 671520, Note_on_c, 0, 77, 0
2, 671520, Note_on_c, 0, 71, 79
2, 672000, Note_on_c, 0, 71, 0
2, 672000, Note_on_c, 0, 71, 79
2, 672480, Note_on_c, 0, 71, 0
2, 672480, Note_on_c, 0, 71, 79
2, 672720, Note_on_c, 0, 71, 0
2, 672720, Note_on_c, 0, 71, 79
2, 672960, Note_on_c, 0, 71, 0
2, 672960, Note_on_c, 0, 74, 79
2, 673440, Note_on_c, 0, 74, 0
2, 673440, Note_on_c, 0, 72, 79
2, 673920, Note_on_c, 0, 72, 0
2, 673920, Note_on_c, 0, 72, 79
2, 674400, Note_on_c, 0, 72, 0
2, 674400, Note_on_c, 0, 72, 79
2, 674640, Note_on_c, 0, 72, 0
2, 674640, Note_on_c, 0, 72, 79
2, 674880, Note_on_c, 0, 72, 0
2, 674880, Note_on_c, 0, 75, 79
2, 675360, Note_on_c, 0, 75, 0
2, 675360, Note_on_c, 0, 69, 79
2, 675455, Control_c, 0, 7, 102
2, 675840, Note_on_c, 0, 69, 0
2, 675840, Note_on_c, 0, 69, 79
2, 676320, Note_on_c, 0, 69, 0
2, 676320, Note_on_c, 0, 69, 79
2, 676560, Note_on_c, 0, 69, 0
2, 676560, Note_on_c, 0, 69, 79
2, 676800, Note_on_c, 0, 69, 0
2, 676800, Note_on_c, 0, 72, 79
2, 677280, Note_on_c, 0, 72, 0
2, 677280, Note_on_c, 0, 70, 79
2, 677760, Note_on_c, 0, 70, 0
2, 677760, Note_on_c, 0, 67, 36
2, 677952, Control_c, 0, 7, 72
2, 678720, Note_on_c, 0, 67, 0
2, 678720, Note_on_c, 0, 67, 36
2, 679680, Note_on_c, 0, 67, 0
2, 679680, Note_on_c, 0, 66, 36
2, 680640, Note_on_c, 0, 66, 0
2, 681600, Note_on_c, 0, 70, 36
2, 682560, Note_on_c, 0, 70, 0
2, 682560, Note_on_c, 0, 71, 36
2, 683520, Note_on_c, 0, 71, 0
2, 683520, Note_on_c, 0, 69, 36
2, 684480, Note_on_c, 0, 69, 0
2, 685440, Note_on_c, 0, 79, 36
2, 685920, Note_on_c, 0, 79, 0
2, 685920, Note_on_c, 0, 79, 36
2, 686160, Note_on_c, 0, 79, 0
2, 686160, Note_on_c, 0, 79, 36
2, 686400, Note_on_c, 0, 79, 0
2, 686400, Note_on_c, 0, 79, 36
2, 686880, Note_on_c, 0, 79, 0
2, 686880, Note_on_c, 0, 78, 36
2, 687360, Note_on_c, 0, 78, 0
2, 687360, Note_on_c, 0, 75, 36
2, 687840, Note_on_c, 0, 75, 0
2, 687840, Note_on_c, 0, 75, 36
2, 688080, Note_on_c, 0, 75, 0
2, 688080, Note_on_c, 0, 75, 36
2, 688320, Note_on_c, 0, 75, 0
2, 688320, Note_on_c, 0, 75, 36
2, 688800, Note_on_c, 0, 75, 0
2, 688800, Note_on_c, 0, 74, 36
2, 689280, Note_on_c, 0, 74, 0
2, 689280, Note_on_c, 0, 72, 79
2, 689375, Control_c, 0, 7, 72
2, 689376, Control_c, 0, 7, 98
2, 689760, Note_on_c, 0, 72, 0
2, 689760, Note_on_c, 0, 72, 79
2, 690000, Note_on_c, 0, 72, 0
2, 690000, Note_on_c, 0, 72, 79
2, 690240, Note_on_c, 0, 72, 0
2, 690240, Note_on_c, 0, 72, 79
2, 690480, Note_on_c, 0, 72, 0
2, 690480, Note_on_c, 0, 70, 79
2, 690720, Note_on_c, 0, 70, 0
2, 690720, Note_on_c, 0, 69, 79
2, 690960, Note_on_c, 0, 69, 0
2, 690960, Note_on_c, 0, 67, 79
2, 691200, Note_on_c, 0, 67, 0
2, 691200, Note_on_c, 0, 72, 79
2, 691440, Note_on_c, 0, 72, 0
2, 691440, Note_on_c, 0, 70, 79
2, 691631, Control_c, 0, 7, 98
2, 691680, Note_on_c, 0, 70, 0
2, 691680, Note_on_c, 0, 69, 79
2, 691920, Note_on_c, 0, 69, 0
2, 691920, Note_on_c, 0, 67, 79
2, 692160, Note_on_c, 0, 67, 0
2, 692160, Note_on_c, 0, 66, 79
2, 692640, Note_on_c, 0, 66, 0
2, 692640, Note_on_c, 0, 69, 79
2, 693600, Note_on_c, 0, 69, 0
2, 693600, Note_on_c, 0, 74, 79
2, 694080, Note_on_c, 0, 74, 0
2, 694080, Note_on_c, 0, 72, 79
2, 694140, Note_on_c, 0, 72, 0
2, 694140, Note_on_c, 0, 70, 79
2, 694200, Note_on_c, 0, 70, 0
2, 694200, Note_on_c, 0, 72, 79
2, 694260, Note_on_c, 0, 72, 0
2, 694260, Note_on_c, 0, 70, 79
2, 694320, Note_on_c, 0, 70, 0
2, 694320, Note_on_c, 0, 72, 79
2, 694380, Note_on_c, 0, 72, 0
2, 694380, Note_on_c, 0, 70, 79
2, 694440, Note_on_c, 0, 70, 0
2, 694440, Note_on_c, 0, 72, 79
2, 694500, Note_on_c, 0, 72, 0
2, 694500, Note_on_c, 0, 70, 79
2, 694560, Note_on_c, 0, 70, 0
2, 694560, Note_on_c, 0, 72, 79
2, 694620, Note_on_c, 0, 72, 0
2, 694620, Note_on_c, 0, 70, 79
2, 694680, Note_on_c, 0, 70, 0
2, 694680, Note_on_c, 0, 72, 79
2, 694740, Note_on_c, 0, 72, 0
2, 694740, Note_on_c, 0, 70, 79
2, 694800, Note_on_c, 0, 70, 0
2, 694800, Note_on_c, 0, 72, 79
2, 694860, Note_on_c, 0, 72, 0
2, 694860, Note_on_c, 0, 70, 79
2, 694920, Note_on_c, 0, 70, 0
2, 694920, Note_on_c, 0, 72, 79
2, 694980, Note_on_c, 0, 72, 0
2, 694980, Note_on_c, 0, 72, 79
2, 695040, Note_on_c, 0, 72, 0
2, 695040, Note_on_c, 0, 70, 79
2, 695100, Note_on_c, 0, 70, 0
2, 695100, Note_on_c, 0, 72, 79
2, 695160, Note_on_c, 0, 72, 0
2, 695160, Note_on_c, 0, 70, 79
2, 695220, Note_on_c, 0, 70, 0
2, 695220, Note_on_c, 0, 72, 79
2, 695280, Note_on_c, 0, 72, 0
2, 695280, Note_on_c, 0, 70, 79
2, 695340, Note_on_c, 0, 70, 0
2, 695340, Note_on_c, 0, 72, 79
2, 695400, Note_on_c, 0, 72, 0
2, 695400, Note_on_c, 0, 70, 79
2, 695460, Note_on_c, 0, 70, 0
2, 695460, Note_on_c, 0, 72, 79
2, 695520, Note_on_c, 0, 72, 0
2, 695520, Note_on_c, 0, 70, 79
2, 695580, Note_on_c, 0, 70, 0
2, 695580, Note_on_c, 0, 72, 79
2, 695640, Note_on_c, 0, 72, 0
2, 695640, Note_on_c, 0, 70, 79
2, 695700, Note_on_c, 0, 70, 0
2, 695700, Note_on_c, 0, 72, 79
2, 695760, Note_on_c, 0, 72, 0
2, 695760, Note_on_c, 0, 70, 79
2, 695820, Note_on_c, 0, 70, 0
2, 695820, Note_on_c, 0, 72, 79
2, 695880, Note_on_c, 0, 72, 0
2, 695880, Note_on_c, 0, 70, 79
2, 695940, Note_on_c, 0, 70, 0
2, 695940, Note_on_c, 0, 72, 79
2, 696000, Note_on_c, 0, 72, 0
2, 696000, Note_on_c, 0, 69, 79
2, 696864, Control_c, 0, 7, 56
2, 696912, Control_c, 0, 7, 68
2, 696960, Note_on_c, 0, 69, 0
2, 696960, Note_on_c, 0, 74, 79
2, 697440, Note_on_c, 0, 74, 0
2, 697440, Note_on_c, 0, 74, 79
2, 697920, Note_on_c, 0, 74, 0
2, 697920, Note_on_c, 0, 76, 36
2, 698160, Note_on_c, 0, 76, 0
2, 698160, Note_on_c, 0, 74, 36
2, 698400, Note_on_c, 0, 74, 0
2, 698400, Note_on_c, 0, 72, 36
2, 698640, Note_on_c, 0, 72, 0
2, 698640, Note_on_c, 0, 71, 36
2, 698880, Note_on_c, 0, 71, 0
2, 698880, Note_on_c, 0, 76, 36
2, 699360, Note_on_c, 0, 76, 0
2, 699360, Note_on_c, 0, 76, 36
2, 699840, Note_on_c, 0, 76, 0
2, 699840, Note_on_c, 0, 76, 36
2, 700800, Note_on_c, 0, 76, 0
2, 700800, Note_on_c, 0, 72, 36
2, 700824, Control_c, 0, 7, 68
2, 701280, Note_on_c, 0, 72, 0
2, 701280, Note_on_c, 0, 72, 36
2, 701760, Note_on_c, 0, 72, 0
2, 701760, Note_on_c, 0, 74, 36
2, 702000, Note_on_c, 0, 74, 0
2, 702000, Note_on_c, 0, 72, 36
2, 702240, Note_on_c, 0, 72, 0
2, 702240, Note_on_c, 0, 71, 36
2, 702480, Note_on_c, 0, 71, 0
2, 702480, Note_on_c, 0, 69, 36
2, 702720, Note_on_c, 0, 69, 0
2, 702720, Note_on_c, 0, 69, 36
2, 703200, Note_on_c, 0, 69, 0
2, 703200, Note_on_c, 0, 69, 36
2, 703680, Note_on_c, 0, 69, 0
2, 703680, Note_on_c, 0, 71, 36
2, 703920, Note_on_c, 0, 71, 0
2, 703920, Note_on_c, 0, 69, 36
2, 704160, Note_on_c, 0, 69, 0
2, 704160, Note_on_c, 0, 67, 36
2, 704400, Note_on_c, 0, 67, 0
2, 704400, Note_on_c, 0, 66, 36
2, 704640, Note_on_c, 0, 66, 0
2, 704640, Note_on_c, 0, 74, 79
2, 704735, Control_c, 0, 7, 70
2, 704736, Control_c, 0, 7, 96
2, 705120, Note_on_c, 0, 74, 0
2, 705120, Note_on_c, 0, 74, 79
2, 705600, Note_on_c, 0, 74, 0
2, 705600, Note_on_c, 0, 76, 79
2, 705840, Note_on_c, 0, 76, 0
2, 705840, Note_on_c, 0, 74, 79
2, 706080, Note_on_c, 0, 74, 0
2, 706080, Note_on_c, 0, 72, 79
2, 706320, Note_on_c, 0, 72, 0
2, 706320, Note_on_c, 0, 71, 79
2, 706560, Note_on_c, 0, 71, 0
2, 706560, Note_on_c, 0, 76, 79
2, 706800, Note_on_c, 0, 76, 0
2, 706800, Note_on_c, 0, 74, 79
2, 707040, Note_on_c, 0, 74, 0
2, 707040, Note_on_c, 0, 76, 79
2, 707280, Note_on_c, 0, 76, 0
2, 707280, Note_on_c, 0, 78, 79
2, 707520, Note_on_c, 0, 78, 0
2, 707520, Note_on_c, 0, 79, 79
2, 707760, Note_on_c, 0, 79, 0
2, 707760, Note_on_c, 0, 78, 79
2, 708000, Note_on_c, 0, 78, 0
2, 708000, Note_on_c, 0, 79, 79
2, 708240, Note_on_c, 0, 79, 0
2, 708240, Note_on_c, 0, 81, 79
2, 708480, Note_on_c, 0, 81, 0
2, 708480, Note_on_c, 0, 83, 79
2, 708720, Note_on_c, 0, 83, 0
2, 708720, Note_on_c, 0, 81, 79
2, 708960, Note_on_c, 0, 81, 0
2, 708960, Note_on_c, 0, 83, 79
2, 709200, Note_on_c, 0, 83, 0
2, 709200, Note_on_c, 0, 84, 79
2, 709440, Note_on_c, 0, 84, 0
2, 709440, Note_on_c, 0, 86, 79
2, 709920, Note_on_c, 0, 86, 0
2, 710400, Note_on_c, 0, 71, 79
2, 710460, Note_on_c, 0, 71, 0
2, 710460, Note_on_c, 0, 69, 79
2, 710520, Note_on_c, 0, 69, 0
2, 710520, Note_on_c, 0, 71, 79
2, 710580, Note_on_c, 0, 71, 0
2, 710580, Note_on_c, 0, 69, 79
2, 710640, Note_on_c, 0, 69, 0
2, 710640, Note_on_c, 0, 71, 79
2, 710700, Note_on_c, 0, 71, 0
2, 710700, Note_on_c, 0, 69, 79
2, 710760, Note_on_c, 0, 69, 0
2, 710760, Note_on_c, 0, 71, 79
2, 710820, Note_on_c, 0, 71, 0
2, 710820, Note_on_c, 0, 69, 79
2, 710880, Note_on_c, 0, 69, 0
2, 710880, Note_on_c, 0, 71, 79
2, 710940, Note_on_c, 0, 71, 0
2, 710940, Note_on_c, 0, 69, 79
2, 711000, Note_on_c, 0, 69, 0
2, 711000, Note_on_c, 0, 71, 79
2, 711060, Note_on_c, 0, 71, 0
2, 711060, Note_on_c, 0, 69, 79
2, 711120, Note_on_c, 0, 69, 0
2, 711120, Note_on_c, 0, 71, 79
2, 711180, Note_on_c, 0, 71, 0
2, 711180, Note_on_c, 0, 69, 79
2, 711240, Note_on_c, 0, 69, 0
2, 711240, Note_on_c, 0, 71, 79
2, 711300, Note_on_c, 0, 71, 0
2, 711300, Note_on_c, 0, 69, 79
2, 711360, Note_on_c, 0, 69, 0
2, 711360, Note_on_c, 0, 67, 79
2, 711840, Note_on_c, 0, 67, 0
2, 712320, Note_on_c, 0, 79, 79
2, 712800, Note_on_c, 0, 79, 0
2, 712800, Note_on_c, 0, 81, 79
2, 713040, Note_on_c, 0, 81, 0
2, 713040, Note_on_c, 0, 83, 79
2, 713280, Note_on_c, 0, 83, 0
2, 713280, Note_on_c, 0, 83, 79
2, 713520, Note_on_c, 0, 83, 0
2, 713520, Note_on_c, 0, 81, 79
2, 713760, Note_on_c, 0, 81, 0
2, 713760, Note_on_c, 0, 79, 79
2, 714000, Note_on_c, 0, 79, 0
2, 714000, Note_on_c, 0, 78, 79
2, 714240, Note_on_c, 0, 78, 0
2, 714240, Note_on_c, 0, 78, 79
2, 714480, Note_on_c, 0, 78, 0
2, 714480, Note_on_c, 0, 76, 79
2, 714720, Note_on_c, 0, 76, 0
2, 714720, Note_on_c, 0, 74, 79
2, 714960, Note_on_c, 0, 74, 0
2, 714960, Note_on_c, 0, 73, 79
2, 715200, Note_on_c, 0, 73, 0
2, 715200, Note_on_c, 0, 76, 79
2, 715440, Note_on_c, 0, 76, 0
2, 715440, Note_on_c, 0, 74, 79
2, 715680, Note_on_c, 0, 74, 0
2, 715680, Note_on_c, 0, 78, 79
2, 715920, Note_on_c, 0, 78, 0
2, 715920, Note_on_c, 0, 76, 79
2, 716160, Note_on_c, 0, 76, 0
2, 716160, Note_on_c, 0, 79, 79
2, 716400, Note_on_c, 0, 79, 0
2, 716400, Note_on_c, 0, 78, 79
2, 716640, Note_on_c, 0, 78, 0
2, 716640, Note_on_c, 0, 81, 79
2, 716880, Note_on_c, 0, 81, 0
2, 716880, Note_on_c, 0, 79, 79
2, 717120, Note_on_c, 0, 79, 0
2, 717120, Note_on_c, 0, 83, 79
2, 717360, Note_on_c, 0, 83, 0
2, 717360, Note_on_c, 0, 81, 79
2, 717600, Note_on_c, 0, 81, 0
2, 717600, Note_on_c, 0, 79, 79
2, 717840, Note_on_c, 0, 79, 0
2, 717840, Note_on_c, 0, 78, 79
2, 718080, Note_on_c, 0, 78, 0
2, 718080, Note_on_c, 0, 78, 79
2, 718320, Note_on_c, 0, 78, 0
2, 718320, Note_on_c, 0, 76, 79
2, 718560, Note_on_c, 0, 76, 0
2, 718560, Note_on_c, 0, 79, 79
2, 718800, Note_on_c, 0, 79, 0
2, 718800, Note_on_c, 0, 83, 79
2, 719040, Note_on_c, 0, 83, 0
2, 719040, Note_on_c, 0, 74, 79
2, 719520, Note_on_c, 0, 74, 0
2, 719520, Note_on_c, 0, 73, 79
2, 720000, Note_on_c, 0, 73, 0
2, 720000, Note_on_c, 0, 79, 79
2, 720480, Note_on_c, 0, 79, 0
2, 720480, Note_on_c, 0, 81, 79
2, 720720, Note_on_c, 0, 81, 0
2, 720720, Note_on_c, 0, 83, 79
2, 720960, Note_on_c, 0, 83, 0
2, 720960, Note_on_c, 0, 83, 79
2, 721200, Note_on_c, 0, 83, 0
2, 721200, Note_on_c, 0, 81, 79
2, 721440, Note_on_c, 0, 81, 0
2, 721440, Note_on_c, 0, 79, 79
2, 721680, Note_on_c, 0, 79, 0
2, 721680, Note_on_c, 0, 78, 79
2, 721920, Note_on_c, 0, 78, 0
2, 721920, Note_on_c, 0, 78, 79
2, 721980, Note_on_c, 0, 78, 0
2, 721980, Note_on_c, 0, 76, 79
2, 722040, Note_on_c, 0, 76, 0
2, 722040, Note_on_c, 0, 76, 79
2, 722400, Note_on_c, 0, 76, 0
2, 722400, Note_on_c, 0, 74, 79
2, 722640, Note_on_c, 0, 74, 0
2, 722640, Note_on_c, 0, 73, 79
2, 722880, Note_on_c, 0, 73, 0
2, 722880, Note_on_c, 0, 76, 79
2, 723120, Note_on_c, 0, 76, 0
2, 723120, Note_on_c, 0, 74, 79
2, 723360, Note_on_c, 0, 74, 0
2, 723360, Note_on_c, 0, 78, 79
2, 723600, Note_on_c, 0, 78, 0
2, 723600, Note_on_c, 0, 76, 79
2, 723840, Note_on_c, 0, 76, 0
2, 723840, Note_on_c, 0, 79, 79
2, 724080, Note_on_c, 0, 79, 0
2, 724080, Note_on_c, 0, 78, 79
2, 724320, Note_on_c, 0, 78, 0
2, 724320, Note_on_c, 0, 81, 79
2, 724560, Note_on_c, 0, 81, 0
2, 724560, Note_on_c, 0, 79, 79
2, 724800, Note_on_c, 0, 79, 0
2, 724800, Note_on_c, 0, 83, 79
2, 725040, Note_on_c, 0, 83, 0
2, 725040, Note_on_c, 0, 81, 79
2, 725280, Note_on_c, 0, 81, 0
2, 725280, Note_on_c, 0, 79, 79
2, 725520, Note_on_c, 0, 79, 0
2, 725520, Note_on_c, 0, 78, 79
2, 725760, Note_on_c, 0, 78, 0
2, 725760, Note_on_c, 0, 78, 79
2, 726000, Note_on_c, 0, 78, 0
2, 726000, Note_on_c, 0, 76, 79
2, 726240, Note_on_c, 0, 76, 0
2, 726240, Note_on_c, 0, 74, 79
2, 726480, Note_on_c, 0, 74, 0
2, 726480, Note_on_c, 0, 73, 79
2, 726720, Note_on_c, 0, 73, 0
2, 726720, Note_on_c, 0, 74, 79
2, 727679, Control_c, 0, 7, 96
2, 727680, Note_on_c, 0, 74, 0
2, 727680, Note_on_c, 0, 62, 36
2, 727680, Control_c, 0, 7, 58
2, 727728, Control_c, 0, 7, 72
2, 728160, Note_on_c, 0, 62, 0
2, 728160, Note_on_c, 0, 62, 36
2, 728400, Note_on_c, 0, 62, 0
2, 728400, Note_on_c, 0, 62, 36
2, 728640, Note_on_c, 0, 62, 0
2, 728640, Note_on_c, 0, 65, 36
2, 729120, Note_on_c, 0, 65, 0
2, 729120, Note_on_c, 0, 64, 36
2, 729600, Note_on_c, 0, 64, 0
2, 729600, Note_on_c, 0, 64, 36
2, 730080, Note_on_c, 0, 64, 0
2, 730080, Note_on_c, 0, 64, 36
2, 730320, Note_on_c, 0, 64, 0
2, 730320, Note_on_c, 0, 64, 36
2, 730560, Note_on_c, 0, 64, 0
2, 730560, Note_on_c, 0, 64, 36
2, 731040, Note_on_c, 0, 64, 0
2, 731040, Note_on_c, 0, 57, 36
2, 731520, Note_on_c, 0, 57, 0
2, 731520, Note_on_c, 0, 60, 36
2, 731544, Control_c, 0, 7, 72
2, 732000, Note_on_c, 0, 60, 0
2, 732000, Note_on_c, 0, 60, 36
2, 732240, Note_on_c, 0, 60, 0
2, 732240, Note_on_c, 0, 60, 36
2, 732480, Note_on_c, 0, 60, 0
2, 732480, Note_on_c, 0, 63, 36
2, 732960, Note_on_c, 0, 63, 0
2, 732960, Note_on_c, 0, 62, 36
2, 733440, Note_on_c, 0, 62, 0
2, 733440, Note_on_c, 0, 62, 36
2, 733920, Note_on_c, 0, 62, 0
2, 733920, Note_on_c, 0, 62, 36
2, 734160, Note_on_c, 0, 62, 0
2, 734160, Note_on_c, 0, 62, 36
2, 734400, Note_on_c, 0, 62, 0
2, 734400, Note_on_c, 0, 62, 36
2, 734880, Note_on_c, 0, 62, 0
2, 734880, Note_on_c, 0, 55, 36
2, 735359, Control_c, 0, 7, 74
2, 735360, Note_on_c, 0, 55, 0
2, 735360, Note_on_c, 0, 83, 79
2, 735408, Control_c, 0, 7, 102
2, 735600, Note_on_c, 0, 83, 0
2, 735600, Note_on_c, 0, 81, 79
2, 735840, Note_on_c, 0, 81, 0
2, 735840, Note_on_c, 0, 79, 79
2, 736080, Note_on_c, 0, 79, 0
2, 736080, Note_on_c, 0, 78, 79
2, 736320, Note_on_c, 0, 78, 0
2, 736320, Note_on_c, 0, 79, 79
2, 736560, Note_on_c, 0, 79, 0
2, 736560, Note_on_c, 0, 78, 79
2, 736800, Note_on_c, 0, 78, 0
2, 736800, Note_on_c, 0, 76, 79
2, 737040, Note_on_c, 0, 76, 0
2, 737040, Note_on_c, 0, 74, 79
2, 737280, Note_on_c, 0, 74, 0
2, 737280, Note_on_c, 0, 76, 79
2, 737520, Note_on_c, 0, 76, 0
2, 737520, Note_on_c, 0, 74, 79
2, 737760, Note_on_c, 0, 74, 0
2, 737760, Note_on_c, 0, 72, 79
2, 738000, Note_on_c, 0, 72, 0
2, 738000, Note_on_c, 0, 71, 79
2, 738240, Note_on_c, 0, 71, 0
2, 738240, Note_on_c, 0, 72, 79
2, 738480, Note_on_c, 0, 72, 0
2, 738480, Note_on_c, 0, 71, 79
2, 738720, Note_on_c, 0, 71, 0
2, 738720, Note_on_c, 0, 69, 79
2, 738960, Note_on_c, 0, 69, 0
2, 738960, Note_on_c, 0, 67, 79
2, 739200, Note_on_c, 0, 67, 0
2, 739200, Note_on_c, 0, 69, 79
2, 739440, Note_on_c, 0, 69, 0
2, 739440, Note_on_c, 0, 67, 79
2, 739680, Note_on_c, 0, 67, 0
2, 739680, Note_on_c, 0, 66, 79
2, 739920, Note_on_c, 0, 66, 0
2, 739920, Note_on_c, 0, 64, 79
2, 740160, Note_on_c, 0, 64, 0
2, 740160, Note_on_c, 0, 62, 79
2, 740640, Note_on_c, 0, 62, 0
2, 740640, Note_on_c, 0, 72, 79
2, 741600, Note_on_c, 0, 72, 0
2, 741600, Note_on_c, 0, 72, 79
2, 741660, Note_on_c, 0, 72, 0
2, 741660, Note_on_c, 0, 71, 79
2, 741720, Note_on_c, 0, 71, 0
2, 741720, Note_on_c, 0, 72, 79
2, 741780, Note_on_c, 0, 72, 0
2, 741780, Note_on_c, 0, 71, 79
2, 741840, Note_on_c, 0, 71, 0
2, 741840, Note_on_c, 0, 72, 79
2, 741900, Note_on_c, 0, 72, 0
2, 741900, Note_on_c, 0, 71, 79
2, 741960, Note_on_c, 0, 71, 0
2, 741960, Note_on_c, 0, 72, 79
2, 742020, Note_on_c, 0, 72, 0
2, 742020, Note_on_c, 0, 71, 79
2, 742080, Note_on_c, 0, 71, 0
2, 742080, Note_on_c, 0, 69, 79
2, 742560, Note_on_c, 0, 69, 0
2, 743039, Control_c, 0, 7, 102
2, 743040, Note_on_c, 0, 74, 36
2, 743280, Control_c, 0, 7, 46
2, 743328, Control_c, 0, 7, 58
2, 743520, Note_on_c, 0, 74, 0
2, 743520, Note_on_c, 0, 74, 36
2, 744000, Note_on_c, 0, 74, 0
2, 744000, Note_on_c, 0, 76, 36
2, 744240, Note_on_c, 0, 76, 0
2, 744240, Note_on_c, 0, 74, 36
2, 744480, Note_on_c, 0, 74, 0
2, 744480, Note_on_c, 0, 72, 36
2, 744720, Note_on_c, 0, 72, 0
2, 744720, Note_on_c, 0, 71, 36
2, 744960, Note_on_c, 0, 71, 0
2, 744960, Note_on_c, 0, 76, 36
2, 745440, Note_on_c, 0, 76, 0
2, 745440, Note_on_c, 0, 76, 36
2, 745920, Note_on_c, 0, 76, 0
2, 745920, Note_on_c, 0, 76, 36
2, 746880, Note_on_c, 0, 76, 0
2, 746880, Note_on_c, 0, 72, 36
2, 747360, Note_on_c, 0, 72, 0
2, 747360, Note_on_c, 0, 72, 36
2, 747840, Note_on_c, 0, 72, 0
2, 747840, Note_on_c, 0, 74, 36
2, 748080, Note_on_c, 0, 74, 0
2, 748080, Note_on_c, 0, 72, 36
2, 748320, Note_on_c, 0, 72, 0
2, 748320, Note_on_c, 0, 71, 36
2, 748560, Note_on_c, 0, 71, 0
2, 748560, Note_on_c, 0, 69, 36
2, 748800, Note_on_c, 0, 69, 0
2, 748800, Note_on_c, 0, 69, 36
2, 749280, Note_on_c, 0, 69, 0
2, 749280, Note_on_c, 0, 69, 36
2, 749508, Control_c, 0, 7, 58
2, 749760, Note_on_c, 0, 69, 0
2, 749760, Note_on_c, 0, 71, 36
2, 750000, Note_on_c, 0, 71, 0
2, 750000, Note_on_c, 0, 69, 36
2, 750240, Note_on_c, 0, 69, 0
2, 750240, Note_on_c, 0, 67, 36
2, 750480, Note_on_c, 0, 67, 0
2, 750480, Note_on_c, 0, 66, 36
2, 750720, Note_on_c, 0, 66, 0
2, 750720, Note_on_c, 0, 74, 79
2, 751200, Note_on_c, 0, 74, 0
2, 751200, Note_on_c, 0, 74, 79
2, 751680, Note_on_c, 0, 74, 0
2, 751680, Note_on_c, 0, 76, 79
2, 751920, Note_on_c, 0, 76, 0
2, 751920, Note_on_c, 0, 74, 79
2, 752160, Note_on_c, 0, 74, 0
2, 752160, Note_on_c, 0, 72, 79
2, 752400, Note_on_c, 0, 72, 0
2, 752400, Note_on_c, 0, 71, 79
2, 752640, Note_on_c, 0, 71, 0
2, 752640, Note_on_c, 0, 76, 79
2, 752880, Note_on_c, 0, 76, 0
2, 752880, Note_on_c, 0, 74, 79
2, 753120, Note_on_c, 0, 74, 0
2, 753120, Note_on_c, 0, 76, 79
2, 753360, Note_on_c, 0, 76, 0
2, 753360, Note_on_c, 0, 78, 79
2, 753600, Note_on_c, 0, 78, 0
2, 753600, Note_on_c, 0, 79, 79
2, 753840, Note_on_c, 0, 79, 0
2, 753840, Note_on_c, 0, 78, 79
2, 754080, Note_on_c, 0, 78, 0
2, 754080, Note_on_c, 0, 79, 79
2, 754320, Note_on_c, 0, 79, 0
2, 754320, Note_on_c, 0, 81, 79
2, 754560, Note_on_c, 0, 81, 0
2, 754560, Note_on_c, 0, 83, 79
2, 754800, Note_on_c, 0, 83, 0
2, 754800, Note_on_c, 0, 81, 79
2, 755040, Note_on_c, 0, 81, 0
2, 755040, Note_on_c, 0, 83, 79
2, 755280, Note_on_c, 0, 83, 0
2, 755280, Note_on_c, 0, 84, 79
2, 755520, Note_on_c, 0, 84, 0
2, 755520, Note_on_c, 0, 86, 79
2, 755688, Control_c, 0, 7, 59
2, 756000, Note_on_c, 0, 86, 0
2, 756480, Note_on_c, 0, 71, 79
2, 756540, Note_on_c, 0, 71, 0
2, 756540, Note_on_c, 0, 69, 79
2, 756600, Note_on_c, 0, 69, 0
2, 756600, Note_on_c, 0, 71, 79
2, 756660, Note_on_c, 0, 71, 0
2, 756660, Note_on_c, 0, 69, 79
2, 756720, Note_on_c, 0, 69, 0
2, 756720, Note_on_c, 0, 71, 79
2, 756780, Note_on_c, 0, 71, 0
2, 756780, Note_on_c, 0, 69, 79
2, 756840, Note_on_c, 0, 69, 0
2, 756840, Note_on_c, 0, 71, 79
2, 756900, Note_on_c, 0, 71, 0
2, 756900, Note_on_c, 0, 69, 79
2, 756960, Note_on_c, 0, 69, 0
2, 756960, Note_on_c, 0, 71, 79
2, 757020, Note_on_c, 0, 71, 0
2, 757020, Note_on_c, 0, 69, 79
2, 757080, Note_on_c, 0, 69, 0
2, 757080, Note_on_c, 0, 71, 79
2, 757140, Note_on_c, 0, 71, 0
2, 757140, Note_on_c, 0, 69, 79
2, 757200, Note_on_c, 0, 69, 0
2, 757200, Note_on_c, 0, 71, 79
2, 757260, Note_on_c, 0, 71, 0
2, 757260, Note_on_c, 0, 69, 79
2, 757320, Note_on_c, 0, 69, 0
2, 757320, Note_on_c, 0, 71, 79
2, 757380, Note_on_c, 0, 71, 0
2, 757380, Note_on_c, 0, 69, 79
2, 757440, Note_on_c, 0, 69, 0
2, 757440, Note_on_c, 0, 67, 79
2, 757920, Note_on_c, 0, 67, 0
2, 759360, Note_on_c, 0, 74, 79
2, 759840, Note_on_c, 0, 74, 0
2, 759840, Note_on_c, 0, 74, 79
2, 760320, Note_on_c, 0, 74, 0
2, 760320, Note_on_c, 0, 76, 79
2, 760560, Note_on_c, 0, 76, 0
2, 760560, Note_on_c, 0, 74, 79
2, 760800, Note_on_c, 0, 74, 0
2, 760800, Note_on_c, 0, 72, 79
2, 761040, Note_on_c, 0, 72, 0
2, 761040, Note_on_c, 0, 71, 79
2, 761280, Note_on_c, 0, 71, 0
2, 761280, Note_on_c, 0, 76, 79
2, 761760, Note_on_c, 0, 76, 0
2, 761760, Note_on_c, 0, 76, 79
2, 761868, Control_c, 0, 7, 60
2, 762240, Note_on_c, 0, 76, 0
2, 762240, Note_on_c, 0, 76, 79
2, 763200, Note_on_c, 0, 76, 0
2, 763200, Note_on_c, 0, 72, 79
2, 763680, Note_on_c, 0, 72, 0
2, 763680, Note_on_c, 0, 72, 79
2, 764160, Note_on_c, 0, 72, 0
2, 764160, Note_on_c, 0, 74, 79
2, 764400, Note_on_c, 0, 74, 0
2, 764400, Note_on_c, 0, 72, 79
2, 764640, Note_on_c, 0, 72, 0
2, 764640, Note_on_c, 0, 71, 79
2, 764880, Note_on_c, 0, 71, 0
2, 764880, Note_on_c, 0, 69, 79
2, 765120, Note_on_c, 0, 69, 0
2, 765120, Note_on_c, 0, 69, 79
2, 765600, Note_on_c, 0, 69, 0
2, 765600, Note_on_c, 0, 69, 79
2, 766080, Note_on_c, 0, 69, 0
2, 766080, Note_on_c, 0, 71, 79
2, 766320, Note_on_c, 0, 71, 0
2, 766320, Note_on_c, 0, 69, 79
2, 766560, Note_on_c, 0, 69, 0
2, 766560, Note_on_c, 0, 67, 79
2, 766800, Note_on_c, 0, 67, 0
2, 766800, Note_on_c, 0, 66, 79
2, 767040, Note_on_c, 0, 66, 0
2, 767040, Note_on_c, 0, 74, 79
2, 767520, Note_on_c, 0, 74, 0
2, 767520, Note_on_c, 0, 74, 79
2, 768000, Note_on_c, 0, 74, 0
2, 768000, Note_on_c, 0, 76, 79
2, 768047, Control_c, 0, 7, 62
2, 768096, Control_c, 0, 7, 96
2, 768240, Note_on_c, 0, 76, 0
2, 768240, Note_on_c, 0, 74, 79
2, 768480, Note_on_c, 0, 74, 0
2, 768480, Note_on_c, 0, 72, 79
2, 768720, Note_on_c, 0, 72, 0
2, 768720, Note_on_c, 0, 71, 79
2, 768960, Note_on_c, 0, 71, 0
2, 768960, Note_on_c, 0, 76, 79
2, 769200, Note_on_c, 0, 76, 0
2, 769200, Note_on_c, 0, 74, 79
2, 769440, Note_on_c, 0, 74, 0
2, 769440, Note_on_c, 0, 76, 79
2, 769680, Note_on_c, 0, 76, 0
2, 769680, Note_on_c, 0, 78, 79
2, 769920, Note_on_c, 0, 78, 0
2, 769920, Note_on_c, 0, 79, 79
2, 770160, Note_on_c, 0, 79, 0
2, 770160, Note_on_c, 0, 78, 79
2, 770216, Control_c, 0, 7, 96
2, 770400, Note_on_c, 0, 78, 0
2, 770400, Note_on_c, 0, 79, 79
2, 770640, Note_on_c, 0, 79, 0
2, 770640, Note_on_c, 0, 81, 79
2, 770880, Note_on_c, 0, 81, 0
2, 770880, Note_on_c, 0, 83, 79
2, 771120, Note_on_c, 0, 83, 0
2, 771120, Note_on_c, 0, 81, 79
2, 771360, Note_on_c, 0, 81, 0
2, 771360, Note_on_c, 0, 83, 79
2, 771600, Note_on_c, 0, 83, 0
2, 771600, Note_on_c, 0, 84, 79
2, 771840, Note_on_c, 0, 84, 0
2, 771840, Note_on_c, 0, 86, 79
2, 772320, Note_on_c, 0, 86, 0
2, 772336, Control_c, 0, 7, 97
2, 774456, Control_c, 0, 7, 98
2, 776576, Control_c, 0, 7, 99
2, 776640, Note_on_c, 0, 76, 79
2, 776880, Note_on_c, 0, 76, 0
2, 776880, Note_on_c, 0, 74, 79
2, 777120, Note_on_c, 0, 74, 0
2, 777120, Note_on_c, 0, 76, 79
2, 777360, Note_on_c, 0, 76, 0
2, 777360, Note_on_c, 0, 78, 79
2, 777600, Note_on_c, 0, 78, 0
2, 777600, Note_on_c, 0, 79, 79
2, 777840, Note_on_c, 0, 79, 0
2, 777840, Note_on_c, 0, 78, 79
2, 778080, Note_on_c, 0, 78, 0
2, 778080, Note_on_c, 0, 79, 79
2, 778320, Note_on_c, 0, 79, 0
2, 778320, Note_on_c, 0, 81, 79
2, 778560, Note_on_c, 0, 81, 0
2, 778560, Note_on_c, 0, 83, 79
2, 778696, Control_c, 0, 7, 100
2, 778800, Note_on_c, 0, 83, 0
2, 778800, Note_on_c, 0, 81, 79
2, 779040, Note_on_c, 0, 81, 0
2, 779040, Note_on_c, 0, 83, 79
2, 779280, Note_on_c, 0, 83, 0
2, 779280, Note_on_c, 0, 84, 79
2, 779520, Note_on_c, 0, 84, 0
2, 779520, Note_on_c, 0, 86, 79
2, 780000, Note_on_c, 0, 86, 0
2, 780815, Control_c, 0, 7, 102
2, 781392, Control_c, 0, 7, 48
2, 781395, Control_c, 0, 7, 82
2, 781440, Note_on_c, 0, 71, 36
2, 781551, Control_c, 0, 7, 81
2, 781560, Note_on_c, 0, 71, 0
2, 781560, Note_on_c, 0, 69, 36
2, 781680, Note_on_c, 0, 69, 0
2, 781680, Note_on_c, 0, 71, 36
2, 781708, Control_c, 0, 7, 80
2, 781800, Note_on_c, 0, 71, 0
2, 781800, Note_on_c, 0, 69, 36
2, 781864, Control_c, 0, 7, 79
2, 781920, Note_on_c, 0, 69, 0
2, 781920, Note_on_c, 0, 71, 36
2, 782021, Control_c, 0, 7, 78
2, 782040, Note_on_c, 0, 71, 0
2, 782040, Note_on_c, 0, 69, 36
2, 782160, Note_on_c, 0, 69, 0
2, 782160, Note_on_c, 0, 71, 36
2, 782177, Control_c, 0, 7, 77
2, 782280, Note_on_c, 0, 71, 0
2, 782280, Note_on_c, 0, 69, 36
2, 782334, Control_c, 0, 7, 76
2, 782400, Note_on_c, 0, 69, 0
2, 782400, Note_on_c, 0, 71, 36
2, 782490, Control_c, 0, 7, 75
2, 782520, Note_on_c, 0, 71, 0
2, 782520, Note_on_c, 0, 69, 36
2, 782640, Note_on_c, 0, 69, 0
2, 782640, Note_on_c, 0, 71, 36
2, 782647, Control_c, 0, 7, 74
2, 782760, Note_on_c, 0, 71, 0
2, 782760, Note_on_c, 0, 69, 36
2, 782804, Control_c, 0, 7, 73
2, 782880, Note_on_c, 0, 69, 0
2, 782880, Note_on_c, 0, 71, 36
2, 782960, Control_c, 0, 7, 72
2, 783000, Note_on_c, 0, 71, 0
2, 783000, Note_on_c, 0, 69, 36
2, 783117, Control_c, 0, 7, 71
2, 783120, Note_on_c, 0, 69, 0
2, 783120, Note_on_c, 0, 71, 36
2, 783240, Note_on_c, 0, 71, 0
2, 783240, Note_on_c, 0, 69, 36
2, 783273, Control_c, 0, 7, 70
2, 783360, Note_on_c, 0, 69, 0
2, 783360, Note_on_c, 0, 67, 36
2, 783430, Control_c, 0, 7, 69
2, 783586, Control_c, 0, 7, 68
2, 783743, Control_c, 0, 7, 67
2, 783840, Note_on_c, 0, 67, 0
2, 783899, Control_c, 0, 7, 66
2, 784751, Control_c, 0, 7, 48
2, 784751, End_track
3, 0, Start_track
3, 0, MIDI_port, 0
3, 0, Title_t, "Violino II"
3, 0, Program_c, 1, 40
3, 0, Control_c, 1, 7, 95
3, 0, Control_c, 1, 10, 54
3, 48, Control_c, 1, 7, 64
3, 2880, Note_on_c, 1, 86, 36
3, 4320, Note_on_c, 1, 86, 0
3, 4320, Note_on_c, 1, 86, 36
3, 5040, Note_on_c, 1, 86, 0
3, 5040, Note_on_c, 1, 74, 36
3, 5160, Note_on_c, 1, 74, 0
3, 5160, Note_on_c, 1, 79, 36
3, 5280, Note_on_c, 1, 79, 0
3, 5280, Note_on_c, 1, 79, 36
3, 5400, Note_on_c, 1, 79, 0
3, 5400, Note_on_c, 1, 83, 36
3, 5520, Note_on_c, 1, 83, 0
3, 5520, Note_on_c, 1, 84, 36
3, 5640, Note_on_c, 1, 84, 0
3, 5640, Note_on_c, 1, 86, 36
3, 5760, Note_on_c, 1, 86, 0
3, 5760, Note_on_c, 1, 88, 36
3, 6000, Note_on_c, 1, 88, 0
3, 6000, Note_on_c, 1, 76, 36
3, 6480, Note_on_c, 1, 76, 0
3, 6480, Note_on_c, 1, 79, 36
3, 6600, Note_on_c, 1, 79, 0
3, 6600, Note_on_c, 1, 78, 36
3, 6720, Note_on_c, 1, 78, 0
3, 6720, Note_on_c, 1, 81, 36
3, 6840, Note_on_c, 1, 81, 0
3, 6840, Note_on_c, 1, 79, 36
3, 6960, Note_on_c, 1, 79, 0
3, 6960, Note_on_c, 1, 78, 36
3, 7080, Note_on_c, 1, 78, 0
3, 7080, Note_on_c, 1, 76, 36
3, 7200, Note_on_c, 1, 76, 0
3, 7200, Note_on_c, 1, 74, 36
3, 7320, Note_on_c, 1, 74, 0
3, 7320, Note_on_c, 1, 71, 36
3, 7440, Note_on_c, 1, 71, 0
3, 7440, Note_on_c, 1, 72, 36
3, 7560, Note_on_c, 1, 72, 0
3, 7560, Note_on_c, 1, 74, 36
3, 7680, Note_on_c, 1, 74, 0
3, 7680, Note_on_c, 1, 76, 36
3, 7800, Note_on_c, 1, 76, 0
3, 7800, Note_on_c, 1, 78, 36
3, 7920, Note_on_c, 1, 78, 0
3, 7920, Note_on_c, 1, 79, 36
3, 8040, Note_on_c, 1, 79, 0
3, 8040, Note_on_c, 1, 81, 36
3, 8160, Note_on_c, 1, 81, 0
3, 8160, Note_on_c, 1, 83, 36
3, 8640, Note_on_c, 1, 83, 0
3, 8640, Note_on_c, 1, 83, 36
3, 8880, Note_on_c, 1, 83, 0
3, 8880, Note_on_c, 1, 84, 36
3, 9000, Note_on_c, 1, 84, 0
3, 9000, Note_on_c, 1, 83, 36
3, 9120, Note_on_c, 1, 83, 0
3, 9120, Note_on_c, 1, 81, 36
3, 9600, Note_on_c, 1, 81, 0
3, 9600, Note_on_c, 1, 79, 36
3, 10080, Note_on_c, 1, 79, 0
3, 10080, Note_on_c, 1, 81, 36
3, 10100, Note_on_c, 1, 81, 0
3, 10100, Note_on_c, 1, 79, 36
3, 10140, Note_on_c, 1, 79, 0
3, 10140, Note_on_c, 1, 81, 36
3, 10160, Note_on_c, 1, 81, 0
3, 10160, Note_on_c, 1, 79, 36
3, 10200, Note_on_c, 1, 79, 0
3, 10200, Note_on_c, 1, 81, 36
3, 10220, Note_on_c, 1, 81, 0
3, 10220, Note_on_c, 1, 79, 36
3, 10260, Note_on_c, 1, 79, 0
3, 10260, Note_on_c, 1, 81, 36
3, 10280, Note_on_c, 1, 81, 0
3, 10280, Note_on_c, 1, 79, 36
3, 10320, Note_on_c, 1, 79, 0
3, 10320, Note_on_c, 1, 81, 36
3, 10340, Note_on_c, 1, 81, 0
3, 10340, Note_on_c, 1, 79, 36
3, 10380, Note_on_c, 1, 79, 0
3, 10380, Note_on_c, 1, 81, 36
3, 10400, Note_on_c, 1, 81, 0
3, 10400, Note_on_c, 1, 79, 36
3, 10440, Note_on_c, 1, 79, 0
3, 10440, Note_on_c, 1, 81, 36
3, 10460, Note_on_c, 1, 81, 0
3, 10460, Note_on_c, 1, 79, 36
3, 10500, Note_on_c, 1, 79, 0
3, 10500, Note_on_c, 1, 81, 36
3, 10520, Note_on_c, 1, 81, 0
3, 10520, Note_on_c, 1, 79, 36
3, 10560, Note_on_c, 1, 79, 0
3, 10560, Note_on_c, 1, 78, 36
3, 11040, Note_on_c, 1, 78, 0
3, 14400, Note_on_c, 1, 86, 36
3, 15840, Note_on_c, 1, 86, 0
3, 15840, Note_on_c, 1, 86, 36
3, 17072, Control_c, 1, 7, 63
3, 17280, Note_on_c, 1, 86, 0
3, 17280, Note_on_c, 1, 86, 36
3, 17360, Note_on_c, 1, 86, 0
3, 17360, Note_on_c, 1, 83, 36
3, 17440, Note_on_c, 1, 83, 0
3, 17440, Note_on_c, 1, 81, 36
3, 17520, Note_on_c, 1, 81, 0
3, 17520, Note_on_c, 1, 80, 36
3, 17600, Note_on_c, 1, 80, 0
3, 17600, Note_on_c, 1, 78, 36
3, 17680, Note_on_c, 1, 78, 0
3, 17680, Note_on_c, 1, 76, 36
3, 17760, Note_on_c, 1, 76, 0
3, 17760, Note_on_c, 1, 74, 36
3, 17840, Note_on_c, 1, 74, 0
3, 17840, Note_on_c, 1, 71, 36
3, 17920, Note_on_c, 1, 71, 0
3, 17920, Note_on_c, 1, 69, 36
3, 18000, Note_on_c, 1, 69, 0
3, 18000, Note_on_c, 1, 68, 36
3, 18080, Note_on_c, 1, 68, 0
3, 18080, Note_on_c, 1, 66, 36
3, 18160, Note_on_c, 1, 66, 0
3, 18160, Note_on_c, 1, 64, 36
3, 18240, Note_on_c, 1, 64, 0
3, 18240, Note_on_c, 1, 74, 36
3, 18360, Note_on_c, 1, 74, 0
3, 18360, Note_on_c, 1, 71, 36
3, 18480, Note_on_c, 1, 71, 0
3, 18480, Note_on_c, 1, 83, 36
3, 18600, Note_on_c, 1, 83, 0
3, 18600, Note_on_c, 1, 74, 36
3, 18720, Note_on_c, 1, 74, 0
3, 18720, Note_on_c, 1, 73, 36
3, 18840, Note_on_c, 1, 73, 0
3, 18840, Note_on_c, 1, 71, 36
3, 18960, Note_on_c, 1, 71, 0
3, 18960, Note_on_c, 1, 69, 36
3, 19080, Note_on_c, 1, 69, 0
3, 19080, Note_on_c, 1, 71, 36
3, 19200, Note_on_c, 1, 71, 0
3, 19200, Note_on_c, 1, 69, 36
3, 19680, Note_on_c, 1, 69, 0
3, 20160, Note_on_c, 1, 81, 36
3, 21600, Note_on_c, 1, 81, 0
3, 21600, Note_on_c, 1, 81, 36
3, 23040, Note_on_c, 1, 81, 0
3, 23040, Note_on_c, 1, 78, 36
3, 23160, Note_on_c, 1, 78, 0
3, 23160, Note_on_c, 1, 76, 36
3, 23280, Note_on_c, 1, 76, 0
3, 23280, Note_on_c, 1, 78, 36
3, 23400, Note_on_c, 1, 78, 0
3, 23400, Note_on_c, 1, 79, 36
3, 23520, Note_on_c, 1, 79, 0
3, 23520, Note_on_c, 1, 81, 36
3, 23760, Note_on_c, 1, 81, 0
3, 23760, Note_on_c, 1, 74, 36
3, 24000, Note_on_c, 1, 74, 0
3, 24000, Note_on_c, 1, 74, 36
3, 24240, Note_on_c, 1, 74, 0
3, 24240, Note_on_c, 1, 74, 36
3, 24480, Note_on_c, 1, 74, 0
3, 24480, Note_on_c, 1, 79, 36
3, 24600, Note_on_c, 1, 79, 0
3, 24600, Note_on_c, 1, 76, 36
3, 24720, Note_on_c, 1, 76, 0
3, 24720, Note_on_c, 1, 78, 36
3, 24840, Note_on_c, 1, 78, 0
3, 24840, Note_on_c, 1, 74, 36
3, 24960, Note_on_c, 1, 74, 0
3, 24960, Note_on_c, 1, 73, 36
3, 25200, Note_on_c, 1, 73, 0
3, 25200, Note_on_c, 1, 76, 36
3, 25320, Note_on_c, 1, 76, 0
3, 25320, Note_on_c, 1, 73, 36
3, 25440, Note_on_c, 1, 73, 0
3, 25440, Note_on_c, 1, 69, 36
3, 25920, Note_on_c, 1, 69, 0
3, 25920, Note_on_c, 1, 66, 36
3, 26160, Note_on_c, 1, 66, 0
3, 26160, Note_on_c, 1, 66, 36
3, 26400, Note_on_c, 1, 66, 0
3, 26400, Note_on_c, 1, 69, 36
3, 26640, Note_on_c, 1, 69, 0
3, 26640, Note_on_c, 1, 69, 36
3, 26880, Note_on_c, 1, 69, 0
3, 26880, Note_on_c, 1, 69, 36
3, 27120, Note_on_c, 1, 69, 0
3, 27120, Note_on_c, 1, 69, 36
3, 27360, Note_on_c, 1, 69, 0
3, 27360, Note_on_c, 1, 67, 36
3, 27600, Note_on_c, 1, 67, 0
3, 28560, Note_on_c, 1, 74, 36
3, 28680, Note_on_c, 1, 74, 0
3, 28680, Note_on_c, 1, 76, 36
3, 28800, Note_on_c, 1, 76, 0
3, 28800, Note_on_c, 1, 74, 36
3, 29040, Note_on_c, 1, 74, 0
3, 29040, Note_on_c, 1, 74, 36
3, 29520, Note_on_c, 1, 74, 0
3, 29520, Note_on_c, 1, 74, 36
3, 30000, Note_on_c, 1, 74, 0
3, 30000, Note_on_c, 1, 73, 36
3, 30240, Note_on_c, 1, 73, 0
3, 30240, Note_on_c, 1, 74, 36
3, 30720, Note_on_c, 1, 74, 0
3, 31680, Note_on_c, 1, 74, 36
3, 31920, Note_on_c, 1, 74, 0
3, 31920, Note_on_c, 1, 76, 36
3, 31960, Note_on_c, 1, 76, 0
3, 31960, Note_on_c, 1, 78, 36
3, 32000, Note_on_c, 1, 78, 0
3, 32000, Note_on_c, 1, 79, 36
3, 32040, Note_on_c, 1, 79, 0
3, 32040, Note_on_c, 1, 81, 36
3, 32080, Note_on_c, 1, 81, 0
3, 32080, Note_on_c, 1, 83, 36
3, 32120, Note_on_c, 1, 83, 0
3, 32120, Note_on_c, 1, 85, 36
3, 32160, Note_on_c, 1, 85, 0
3, 32160, Note_on_c, 1, 86, 36
3, 32400, Note_on_c, 1, 86, 0
3, 33120, Note_on_c, 1, 81, 36
3, 34096, Control_c, 1, 7, 62
3, 34560, Note_on_c, 1, 81, 0
3, 34560, Note_on_c, 1, 81, 36
3, 34680, Note_on_c, 1, 81, 0
3, 34680, Note_on_c, 1, 79, 36
3, 34800, Note_on_c, 1, 79, 0
3, 34800, Note_on_c, 1, 78, 36
3, 34920, Note_on_c, 1, 78, 0
3, 34920, Note_on_c, 1, 76, 36
3, 35040, Note_on_c, 1, 76, 0
3, 35040, Note_on_c, 1, 74, 36
3, 35520, Note_on_c, 1, 74, 0
3, 35520, Note_on_c, 1, 74, 36
3, 35540, Note_on_c, 1, 74, 0
3, 35540, Note_on_c, 1, 73, 36
3, 35580, Note_on_c, 1, 73, 0
3, 35580, Note_on_c, 1, 74, 36
3, 35600, Note_on_c, 1, 74, 0
3, 35600, Note_on_c, 1, 73, 36
3, 35640, Note_on_c, 1, 73, 0
3, 35640, Note_on_c, 1, 74, 36
3, 35660, Note_on_c, 1, 74, 0
3, 35660, Note_on_c, 1, 73, 36
3, 35700, Note_on_c, 1, 73, 0
3, 35700, Note_on_c, 1, 74, 36
3, 35720, Note_on_c, 1, 74, 0
3, 35720, Note_on_c, 1, 73, 36
3, 35760, Note_on_c, 1, 73, 0
3, 35760, Note_on_c, 1, 74, 36
3, 35780, Note_on_c, 1, 74, 0
3, 35780, Note_on_c, 1, 73, 36
3, 35820, Note_on_c, 1, 73, 0
3, 35820, Note_on_c, 1, 74, 36
3, 35840, Note_on_c, 1, 74, 0
3, 35840, Note_on_c, 1, 73, 36
3, 35880, Note_on_c, 1, 73, 0
3, 35880, Note_on_c, 1, 74, 36
3, 35900, Note_on_c, 1, 74, 0
3, 35900, Note_on_c, 1, 73, 36
3, 35920, Note_on_c, 1, 73, 0
3, 35920, Note_on_c, 1, 71, 36
3, 35960, Note_on_c, 1, 71, 0
3, 35960, Note_on_c, 1, 73, 36
3, 36000, Note_on_c, 1, 73, 0
3, 36000, Note_on_c, 1, 74, 36
3, 36480, Note_on_c, 1, 74, 0
3, 37080, Note_on_c, 1, 81, 36
3, 37140, Note_on_c, 1, 81, 0
3, 37140, Note_on_c, 1, 79, 36
3, 37200, Note_on_c, 1, 79, 0
3, 37200, Note_on_c, 1, 78, 36
3, 37260, Note_on_c, 1, 78, 0
3, 37260, Note_on_c, 1, 76, 36
3, 37320, Note_on_c, 1, 76, 0
3, 37320, Note_on_c, 1, 74, 36
3, 37380, Note_on_c, 1, 74, 0
3, 37380, Note_on_c, 1, 73, 36
3, 37440, Note_on_c, 1, 73, 0
3, 37440, Note_on_c, 1, 74, 36
3, 37680, Note_on_c, 1, 74, 0
3, 37680, Note_on_c, 1, 69, 36
3, 37920, Note_on_c, 1, 69, 0
3, 37920, Note_on_c, 1, 71, 36
3, 38160, Note_on_c, 1, 71, 0
3, 38160, Note_on_c, 1, 69, 36
3, 38400, Note_on_c, 1, 69, 0
3, 38400, Note_on_c, 1, 71, 36
3, 38640, Note_on_c, 1, 71, 0
3, 38640, Note_on_c, 1, 67, 36
3, 38880, Note_on_c, 1, 67, 0
3, 38880, Note_on_c, 1, 67, 36
3, 39840, Note_on_c, 1, 67, 0
3, 39840, Note_on_c, 1, 66, 36
3, 40080, Note_on_c, 1, 66, 0
3, 41760, Note_on_c, 1, 79, 36
3, 43200, Note_on_c, 1, 79, 0
3, 43200, Note_on_c, 1, 81, 36
3, 43680, Note_on_c, 1, 81, 0
3, 43680, Note_on_c, 1, 79, 36
3, 44160, Note_on_c, 1, 79, 0
3, 44160, Note_on_c, 1, 78, 36
3, 44640, Note_on_c, 1, 78, 0
3, 44640, Note_on_c, 1, 79, 36
3, 45360, Note_on_c, 1, 79, 0
3, 45360, Note_on_c, 1, 83, 36
3, 45600, Note_on_c, 1, 83, 0
3, 45600, Note_on_c, 1, 81, 36
3, 45840, Note_on_c, 1, 81, 0
3, 45840, Note_on_c, 1, 79, 36
3, 46080, Note_on_c, 1, 79, 0
3, 46080, Note_on_c, 1, 81, 36
3, 46100, Note_on_c, 1, 81, 0
3, 46100, Note_on_c, 1, 79, 36
3, 46140, Note_on_c, 1, 79, 0
3, 46140, Note_on_c, 1, 81, 36
3, 46160, Note_on_c, 1, 81, 0
3, 46160, Note_on_c, 1, 79, 36
3, 46200, Note_on_c, 1, 79, 0
3, 46200, Note_on_c, 1, 81, 36
3, 46220, Note_on_c, 1, 81, 0
3, 46220, Note_on_c, 1, 79, 36
3, 46260, Note_on_c, 1, 79, 0
3, 46260, Note_on_c, 1, 81, 36
3, 46280, Note_on_c, 1, 81, 0
3, 46280, Note_on_c, 1, 79, 36
3, 46320, Note_on_c, 1, 79, 0
3, 46320, Note_on_c, 1, 81, 36
3, 46340, Note_on_c, 1, 81, 0
3, 46340, Note_on_c, 1, 79, 36
3, 46380, Note_on_c, 1, 79, 0
3, 46380, Note_on_c, 1, 81, 36
3, 46400, Note_on_c, 1, 81, 0
3, 46400, Note_on_c, 1, 79, 36
3, 46440, Note_on_c, 1, 79, 0
3, 46440, Note_on_c, 1, 81, 36
3, 46460, Note_on_c, 1, 81, 0
3, 46460, Note_on_c, 1, 79, 36
3, 46500, Note_on_c, 1, 79, 0
3, 46500, Note_on_c, 1, 81, 36
3, 46520, Note_on_c, 1, 81, 0
3, 46520, Note_on_c, 1, 79, 36
3, 46560, Note_on_c, 1, 79, 0
3, 46560, Note_on_c, 1, 78, 36
3, 47040, Note_on_c, 1, 78, 0
3, 48960, Note_on_c, 1, 69, 36
3, 49040, Note_on_c, 1, 69, 0
3, 49040, Note_on_c, 1, 76, 36
3, 49120, Note_on_c, 1, 76, 0
3, 49120, Note_on_c, 1, 72, 36
3, 49200, Note_on_c, 1, 72, 0
3, 49200, Note_on_c, 1, 69, 36
3, 49280, Note_on_c, 1, 69, 0
3, 49280, Note_on_c, 1, 64, 36
3, 49360, Note_on_c, 1, 64, 0
3, 49360, Note_on_c, 1, 60, 36
3, 49440, Note_on_c, 1, 60, 0
3, 49440, Note_on_c, 1, 57, 36
3, 49680, Note_on_c, 1, 57, 0
3, 50160, Note_on_c, 1, 73, 36
3, 50400, Note_on_c, 1, 73, 0
3, 50400, Note_on_c, 1, 74, 36
3, 50880, Note_on_c, 1, 74, 0
3, 50880, Note_on_c, 1, 74, 36
3, 51000, Note_on_c, 1, 74, 0
3, 51000, Note_on_c, 1, 76, 36
3, 51120, Note_on_c, 1, 76, 0
3, 51120, Control_c, 1, 7, 61
3, 51120, Note_on_c, 1, 78, 36
3, 51240, Note_on_c, 1, 78, 0
3, 51240, Note_on_c, 1, 79, 36
3, 51360, Note_on_c, 1, 79, 0
3, 51360, Note_on_c, 1, 81, 36
3, 51480, Note_on_c, 1, 81, 0
3, 51480, Note_on_c, 1, 83, 36
3, 51600, Note_on_c, 1, 83, 0
3, 51600, Note_on_c, 1, 84, 36
3, 51720, Note_on_c, 1, 84, 0
3, 51720, Note_on_c, 1, 81, 36
3, 51840, Note_on_c, 1, 81, 0
3, 51840, Note_on_c, 1, 84, 36
3, 52080, Note_on_c, 1, 84, 0
3, 52080, Note_on_c, 1, 83, 36
3, 52560, Note_on_c, 1, 83, 0
3, 52560, Note_on_c, 1, 81, 36
3, 52680, Note_on_c, 1, 81, 0
3, 52680, Note_on_c, 1, 79, 36
3, 52800, Note_on_c, 1, 79, 0
3, 52800, Note_on_c, 1, 86, 36
3, 53040, Note_on_c, 1, 86, 0
3, 53040, Note_on_c, 1, 71, 36
3, 53280, Note_on_c, 1, 71, 0
3, 53280, Note_on_c, 1, 72, 36
3, 53760, Note_on_c, 1, 72, 0
3, 55440, Note_on_c, 1, 88, 36
3, 55680, Note_on_c, 1, 88, 0
3, 55680, Note_on_c, 1, 86, 36
3, 55920, Note_on_c, 1, 86, 0
3, 55920, Note_on_c, 1, 78, 36
3, 56160, Note_on_c, 1, 78, 0
3, 56160, Note_on_c, 1, 79, 36
3, 56400, Note_on_c, 1, 79, 0
3, 56400, Note_on_c, 1, 74, 36
3, 56640, Note_on_c, 1, 74, 0
3, 56640, Note_on_c, 1, 74, 36
3, 57120, Note_on_c, 1, 74, 0
3, 57120, Note_on_c, 1, 74, 36
3, 57240, Note_on_c, 1, 74, 0
3, 57240, Note_on_c, 1, 83, 36
3, 57360, Note_on_c, 1, 83, 0
3, 57360, Note_on_c, 1, 81, 36
3, 57480, Note_on_c, 1, 81, 0
3, 57480, Note_on_c, 1, 79, 36
3, 57600, Note_on_c, 1, 79, 0
3, 57600, Note_on_c, 1, 81, 36
3, 57840, Note_on_c, 1, 81, 0
3, 57840, Note_on_c, 1, 79, 36
3, 58080, Note_on_c, 1, 79, 0
3, 58080, Note_on_c, 1, 78, 36
3, 58800, Note_on_c, 1, 78, 0
3, 58800, Note_on_c, 1, 79, 36
3, 59040, Note_on_c, 1, 79, 0
3, 59040, Note_on_c, 1, 81, 36
3, 59520, Note_on_c, 1, 81, 0
3, 61920, Note_on_c, 1, 72, 36
3, 62640, Note_on_c, 1, 72, 0
3, 62640, Note_on_c, 1, 76, 36
3, 62880, Note_on_c, 1, 76, 0
3, 62880, Note_on_c, 1, 76, 36
3, 63120, Note_on_c, 1, 76, 0
3, 63120, Note_on_c, 1, 74, 36
3, 63240, Note_on_c, 1, 74, 0
3, 63240, Note_on_c, 1, 72, 36
3, 63360, Note_on_c, 1, 72, 0
3, 63360, Note_on_c, 1, 71, 36
3, 64080, Note_on_c, 1, 71, 0
3, 64080, Note_on_c, 1, 72, 36
3, 64200, Note_on_c, 1, 72, 0
3, 64200, Note_on_c, 1, 74, 36
3, 64320, Note_on_c, 1, 74, 0
3, 64320, Note_on_c, 1, 76, 36
3, 64440, Note_on_c, 1, 76, 0
3, 64440, Note_on_c, 1, 78, 36
3, 64560, Note_on_c, 1, 78, 0
3, 64560, Note_on_c, 1, 79, 36
3, 64680, Note_on_c, 1, 79, 0
3, 64680, Note_on_c, 1, 81, 36
3, 64800, Note_on_c, 1, 81, 0
3, 64800, Note_on_c, 1, 83, 36
3, 65160, Note_on_c, 1, 83, 0
3, 65160, Note_on_c, 1, 84, 36
3, 65220, Note_on_c, 1, 84, 0
3, 65220, Note_on_c, 1, 83, 36
3, 65280, Note_on_c, 1, 83, 0
3, 65280, Note_on_c, 1, 81, 36
3, 65760, Note_on_c, 1, 81, 0
3, 65760, Note_on_c, 1, 79, 36
3, 66240, Note_on_c, 1, 79, 0
3, 66240, Note_on_c, 1, 81, 36
3, 66260, Note_on_c, 1, 81, 0
3, 66260, Note_on_c, 1, 79, 36
3, 66300, Note_on_c, 1, 79, 0
3, 66300, Note_on_c, 1, 81, 36
3, 66320, Note_on_c, 1, 81, 0
3, 66320, Note_on_c, 1, 79, 36
3, 66360, Note_on_c, 1, 79, 0
3, 66360, Note_on_c, 1, 81, 36
3, 66380, Note_on_c, 1, 81, 0
3, 66380, Note_on_c, 1, 79, 36
3, 66420, Note_on_c, 1, 79, 0
3, 66420, Note_on_c, 1, 81, 36
3, 66440, Note_on_c, 1, 81, 0
3, 66440, Note_on_c, 1, 79, 36
3, 66480, Note_on_c, 1, 79, 0
3, 66480, Note_on_c, 1, 81, 36
3, 66500, Note_on_c, 1, 81, 0
3, 66500, Note_on_c, 1, 79, 36
3, 66540, Note_on_c, 1, 79, 0
3, 66540, Note_on_c, 1, 81, 36
3, 66560, Note_on_c, 1, 81, 0
3, 66560, Note_on_c, 1, 79, 36
3, 66600, Note_on_c, 1, 79, 0
3, 66600, Note_on_c, 1, 81, 36
3, 66620, Note_on_c, 1, 81, 0
3, 66620, Note_on_c, 1, 79, 36
3, 66660, Note_on_c, 1, 79, 0
3, 66660, Note_on_c, 1, 81, 36
3, 66680, Note_on_c, 1, 81, 0
3, 66680, Note_on_c, 1, 79, 36
3, 66720, Note_on_c, 1, 79, 0
3, 66720, Note_on_c, 1, 78, 36
3, 67200, Note_on_c, 1, 78, 0
3, 68144, Control_c, 1, 7, 60
3, 70560, Note_on_c, 1, 79, 36
3, 72000, Note_on_c, 1, 79, 0
3, 72000, Note_on_c, 1, 79, 36
3, 73440, Note_on_c, 1, 79, 0
3, 73440, Note_on_c, 1, 79, 36
3, 73520, Note_on_c, 1, 79, 0
3, 73520, Note_on_c, 1, 76, 36
3, 73600, Note_on_c, 1, 76, 0
3, 73600, Note_on_c, 1, 74, 36
3, 73680, Note_on_c, 1, 74, 0
3, 73680, Note_on_c, 1, 73, 36
3, 73760, Note_on_c, 1, 73, 0
3, 73760, Note_on_c, 1, 71, 36
3, 73840, Note_on_c, 1, 71, 0
3, 73840, Note_on_c, 1, 69, 36
3, 73920, Note_on_c, 1, 69, 0
3, 73920, Note_on_c, 1, 67, 36
3, 74000, Note_on_c, 1, 67, 0
3, 74000, Note_on_c, 1, 64, 36
3, 74080, Note_on_c, 1, 64, 0
3, 74080, Note_on_c, 1, 62, 36
3, 74160, Note_on_c, 1, 62, 0
3, 74160, Note_on_c, 1, 61, 36
3, 74240, Note_on_c, 1, 61, 0
3, 74240, Note_on_c, 1, 59, 36
3, 74320, Note_on_c, 1, 59, 0
3, 74320, Note_on_c, 1, 57, 36
3, 74400, Note_on_c, 1, 57, 0
3, 74400, Note_on_c, 1, 76, 36
3, 74520, Note_on_c, 1, 76, 0
3, 74520, Note_on_c, 1, 69, 36
3, 74640, Note_on_c, 1, 69, 0
3, 74640, Note_on_c, 1, 79, 36
3, 74760, Note_on_c, 1, 79, 0
3, 74760, Note_on_c, 1, 76, 36
3, 74880, Note_on_c, 1, 76, 0
3, 74880, Note_on_c, 1, 78, 36
3, 75000, Note_on_c, 1, 78, 0
3, 75000, Note_on_c, 1, 76, 36
3, 75120, Note_on_c, 1, 76, 0
3, 75120, Note_on_c, 1, 74, 36
3, 75240, Note_on_c, 1, 74, 0
3, 75240, Note_on_c, 1, 76, 36
3, 75360, Note_on_c, 1, 76, 0
3, 75360, Note_on_c, 1, 74, 36
3, 75840, Note_on_c, 1, 74, 0
3, 76320, Note_on_c, 1, 74, 36
3, 77760, Note_on_c, 1, 74, 0
3, 77760, Note_on_c, 1, 74, 36
3, 78720, Note_on_c, 1, 74, 0
3, 78720, Note_on_c, 1, 74, 36
3, 79080, Note_on_c, 1, 74, 0
3, 79080, Note_on_c, 1, 66, 36
3, 79200, Note_on_c, 1, 66, 0
3, 79200, Note_on_c, 1, 67, 36
3, 79320, Note_on_c, 1, 67, 0
3, 79320, Note_on_c, 1, 69, 36
3, 79440, Note_on_c, 1, 69, 0
3, 79440, Note_on_c, 1, 71, 36
3, 79560, Note_on_c, 1, 71, 0
3, 79560, Note_on_c, 1, 72, 36
3, 79680, Note_on_c, 1, 72, 0
3, 79680, Note_on_c, 1, 74, 36
3, 79920, Note_on_c, 1, 74, 0
3, 79920, Note_on_c, 1, 67, 36
3, 80160, Note_on_c, 1, 67, 0
3, 80160, Note_on_c, 1, 67, 36
3, 80400, Note_on_c, 1, 67, 0
3, 80400, Note_on_c, 1, 67, 36
3, 80640, Note_on_c, 1, 67, 0
3, 80640, Note_on_c, 1, 72, 36
3, 80760, Note_on_c, 1, 72, 0
3, 80760, Note_on_c, 1, 69, 36
3, 80880, Note_on_c, 1, 69, 0
3, 80880, Note_on_c, 1, 71, 36
3, 81000, Note_on_c, 1, 71, 0
3, 81000, Note_on_c, 1, 67, 36
3, 81120, Note_on_c, 1, 67, 0
3, 81120, Note_on_c, 1, 66, 36
3, 81360, Note_on_c, 1, 66, 0
3, 81360, Note_on_c, 1, 69, 36
3, 81480, Note_on_c, 1, 69, 0
3, 81480, Note_on_c, 1, 66, 36
3, 81600, Note_on_c, 1, 66, 0
3, 81600, Note_on_c, 1, 62, 36
3, 82080, Note_on_c, 1, 62, 0
3, 82080, Note_on_c, 1, 62, 36
3, 82320, Note_on_c, 1, 62, 0
3, 82320, Note_on_c, 1, 62, 36
3, 82560, Note_on_c, 1, 62, 0
3, 82560, Note_on_c, 1, 67, 36
3, 82800, Note_on_c, 1, 67, 0
3, 82800, Note_on_c, 1, 67, 36
3, 83040, Note_on_c, 1, 67, 0
3, 83040, Note_on_c, 1, 67, 36
3, 83280, Note_on_c, 1, 67, 0
3, 83280, Note_on_c, 1, 67, 36
3, 83520, Note_on_c, 1, 67, 0
3, 83520, Note_on_c, 1, 67, 36
3, 83760, Note_on_c, 1, 67, 0
3, 84720, Note_on_c, 1, 67, 36
3, 84960, Note_on_c, 1, 67, 0
3, 84960, Note_on_c, 1, 67, 36
3, 85168, Control_c, 1, 7, 59
3, 85200, Note_on_c, 1, 67, 0
3, 85200, Note_on_c, 1, 67, 36
3, 85680, Note_on_c, 1, 67, 0
3, 85680, Note_on_c, 1, 83, 36
3, 85800, Note_on_c, 1, 83, 0
3, 85920, Note_on_c, 1, 79, 36
3, 85940, Note_on_c, 1, 79, 0
3, 85940, Note_on_c, 1, 78, 36
3, 85980, Note_on_c, 1, 78, 0
3, 85980, Note_on_c, 1, 79, 36
3, 86000, Note_on_c, 1, 79, 0
3, 86000, Note_on_c, 1, 78, 36
3, 86040, Note_on_c, 1, 78, 0
3, 86040, Note_on_c, 1, 79, 36
3, 86060, Note_on_c, 1, 79, 0
3, 86060, Note_on_c, 1, 78, 36
3, 86100, Note_on_c, 1, 78, 0
3, 86100, Note_on_c, 1, 79, 36
3, 86120, Note_on_c, 1, 79, 0
3, 86120, Note_on_c, 1, 78, 36
3, 86160, Note_on_c, 1, 78, 0
3, 86160, Note_on_c, 1, 79, 36
3, 86180, Note_on_c, 1, 79, 0
3, 86180, Note_on_c, 1, 78, 36
3, 86220, Note_on_c, 1, 78, 0
3, 86220, Note_on_c, 1, 79, 36
3, 86240, Note_on_c, 1, 79, 0
3, 86240, Note_on_c, 1, 78, 36
3, 86280, Note_on_c, 1, 78, 0
3, 86280, Note_on_c, 1, 79, 36
3, 86300, Note_on_c, 1, 79, 0
3, 86300, Note_on_c, 1, 78, 36
3, 86340, Note_on_c, 1, 78, 0
3, 86340, Note_on_c, 1, 79, 36
3, 86360, Note_on_c, 1, 79, 0
3, 86360, Note_on_c, 1, 78, 36
3, 86400, Note_on_c, 1, 78, 0
3, 86400, Note_on_c, 1, 79, 36
3, 86880, Note_on_c, 1, 79, 0
3, 87840, Note_on_c, 1, 79, 36
3, 88080, Note_on_c, 1, 79, 0
3, 88080, Note_on_c, 1, 81, 36
3, 88120, Note_on_c, 1, 81, 0
3, 88120, Note_on_c, 1, 83, 36
3, 88160, Note_on_c, 1, 83, 0
3, 88160, Note_on_c, 1, 84, 36
3, 88200, Note_on_c, 1, 84, 0
3, 88200, Note_on_c, 1, 86, 36
3, 88240, Note_on_c, 1, 86, 0
3, 88240, Note_on_c, 1, 88, 36
3, 88280, Note_on_c, 1, 88, 0
3, 88280, Note_on_c, 1, 90, 36
3, 88320, Note_on_c, 1, 90, 0
3, 88320, Note_on_c, 1, 91, 36
3, 88560, Note_on_c, 1, 91, 0
3, 89280, Note_on_c, 1, 86, 36
3, 90720, Note_on_c, 1, 86, 0
3, 90720, Note_on_c, 1, 86, 36
3, 90780, Note_on_c, 1, 86, 0
3, 90780, Note_on_c, 1, 84, 36
3, 90840, Note_on_c, 1, 84, 0
3, 90840, Note_on_c, 1, 84, 36
3, 90960, Note_on_c, 1, 84, 0
3, 90960, Note_on_c, 1, 83, 36
3, 91080, Note_on_c, 1, 83, 0
3, 91080, Note_on_c, 1, 81, 36
3, 91200, Note_on_c, 1, 81, 0
3, 91200, Note_on_c, 1, 79, 36
3, 91680, Note_on_c, 1, 79, 0
3, 91680, Note_on_c, 1, 79, 36
3, 91700, Note_on_c, 1, 79, 0
3, 91700, Note_on_c, 1, 78, 36
3, 91740, Note_on_c, 1, 78, 0
3, 91740, Note_on_c, 1, 79, 36
3, 91760, Note_on_c, 1, 79, 0
3, 91760, Note_on_c, 1, 78, 36
3, 91800, Note_on_c, 1, 78, 0
3, 91800, Note_on_c, 1, 79, 36
3, 91820, Note_on_c, 1, 79, 0
3, 91820, Note_on_c, 1, 78, 36
3, 91860, Note_on_c, 1, 78, 0
3, 91860, Note_on_c, 1, 79, 36
3, 91880, Note_on_c, 1, 79, 0
3, 91880, Note_on_c, 1, 78, 36
3, 91920, Note_on_c, 1, 78, 0
3, 91920, Note_on_c, 1, 79, 36
3, 91940, Note_on_c, 1, 79, 0
3, 91940, Note_on_c, 1, 78, 36
3, 91980, Note_on_c, 1, 78, 0
3, 91980, Note_on_c, 1, 79, 36
3, 92000, Note_on_c, 1, 79, 0
3, 92000, Note_on_c, 1, 78, 36
3, 92040, Note_on_c, 1, 78, 0
3, 92040, Note_on_c, 1, 78, 36
3, 92080, Note_on_c, 1, 78, 0
3, 92080, Note_on_c, 1, 76, 36
3, 92120, Note_on_c, 1, 76, 0
3, 92120, Note_on_c, 1, 78, 36
3, 92160, Note_on_c, 1, 78, 0
3, 92160, Note_on_c, 1, 79, 36
3, 92640, Note_on_c, 1, 79, 0
3, 93240, Note_on_c, 1, 86, 36
3, 93300, Note_on_c, 1, 86, 0
3, 93300, Note_on_c, 1, 84, 36
3, 93360, Note_on_c, 1, 84, 0
3, 93360, Note_on_c, 1, 83, 36
3, 93420, Note_on_c, 1, 83, 0
3, 93420, Note_on_c, 1, 81, 36
3, 93480, Note_on_c, 1, 81, 0
3, 93480, Note_on_c, 1, 79, 36
3, 93540, Note_on_c, 1, 79, 0
3, 93540, Note_on_c, 1, 78, 36
3, 93600, Note_on_c, 1, 78, 0
3, 93600, Note_on_c, 1, 79, 36
3, 93840, Note_on_c, 1, 79, 0
3, 93840, Note_on_c, 1, 74, 36
3, 94080, Note_on_c, 1, 74, 0
3, 94080, Note_on_c, 1, 76, 36
3, 94320, Note_on_c, 1, 76, 0
3, 94320, Note_on_c, 1, 74, 36
3, 94560, Note_on_c, 1, 74, 0
3, 94560, Note_on_c, 1, 76, 36
3, 94800, Note_on_c, 1, 76, 0
3, 94800, Note_on_c, 1, 72, 36
3, 95040, Note_on_c, 1, 72, 0
3, 95040, Note_on_c, 1, 72, 36
3, 96000, Note_on_c, 1, 72, 0
3, 96000, Note_on_c, 1, 71, 36
3, 96240, Note_on_c, 1, 71, 0
3, 96480, Control_c, 1, 7, 104
3, 96480, Note_on_c, 1, 71, 94
3, 96960, Note_on_c, 1, 71, 0
3, 96960, Note_on_c, 1, 72, 79
3, 97020, Note_on_c, 1, 72, 0
3, 97020, Note_on_c, 1, 71, 79
3, 97080, Note_on_c, 1, 71, 0
3, 97080, Note_on_c, 1, 69, 79
3, 97200, Note_on_c, 1, 69, 0
3, 97200, Note_on_c, 1, 71, 79
3, 97320, Note_on_c, 1, 71, 0
3, 97320, Note_on_c, 1, 72, 79
3, 97440, Note_on_c, 1, 72, 0
3, 97440, Note_on_c, 1, 71, 79
3, 97680, Note_on_c, 1, 71, 0
3, 97680, Note_on_c, 1, 71, 79
3, 97920, Note_on_c, 1, 71, 0
3, 97920, Note_on_c, 1, 69, 79
3, 98160, Note_on_c, 1, 69, 0
3, 98160, Note_on_c, 1, 72, 79
3, 98400, Note_on_c, 1, 72, 0
3, 98400, Note_on_c, 1, 71, 79
3, 98640, Note_on_c, 1, 71, 0
3, 98640, Note_on_c, 1, 67, 79
3, 98880, Note_on_c, 1, 67, 0
3, 98880, Note_on_c, 1, 66, 79
3, 99120, Note_on_c, 1, 66, 0
3, 99120, Note_on_c, 1, 69, 79
3, 99360, Note_on_c, 1, 69, 0
3, 99360, Note_on_c, 1, 67, 79
3, 99600, Note_on_c, 1, 67, 0
3, 100320, Note_on_c, 1, 71, 79
3, 101280, Note_on_c, 1, 71, 0
3, 101280, Note_on_c, 1, 74, 79
3, 102240, Note_on_c, 1, 74, 0
3, 102240, Note_on_c, 1, 72, 79
3, 102480, Note_on_c, 1, 72, 0
3, 102480, Note_on_c, 1, 71, 79
3, 102720, Note_on_c, 1, 71, 0
3, 102720, Note_on_c, 1, 69, 79
3, 102960, Note_on_c, 1, 69, 0
3, 102960, Note_on_c, 1, 67, 79
3, 103200, Note_on_c, 1, 67, 0
3, 103200, Note_on_c, 1, 74, 79
3, 103680, Note_on_c, 1, 74, 0
3, 103680, Note_on_c, 1, 62, 79
3, 104160, Note_on_c, 1, 62, 0
3, 104160, Note_on_c, 1, 67, 79
3, 104640, Note_on_c, 1, 67, 0
3, 104640, Note_on_c, 1, 72, 79
3, 104700, Note_on_c, 1, 72, 0
3, 104700, Note_on_c, 1, 71, 79
3, 104760, Note_on_c, 1, 71, 0
3, 104760, Note_on_c, 1, 69, 79
3, 104880, Note_on_c, 1, 69, 0
3, 104880, Note_on_c, 1, 71, 79
3, 105000, Note_on_c, 1, 71, 0
3, 105000, Note_on_c, 1, 72, 79
3, 105120, Note_on_c, 1, 72, 0
3, 105120, Note_on_c, 1, 71, 79
3, 105360, Note_on_c, 1, 71, 0
3, 105360, Note_on_c, 1, 71, 79
3, 105600, Note_on_c, 1, 71, 0
3, 105600, Note_on_c, 1, 69, 79
3, 105840, Note_on_c, 1, 69, 0
3, 105840, Note_on_c, 1, 72, 79
3, 106080, Note_on_c, 1, 72, 0
3, 106080, Note_on_c, 1, 71, 79
3, 106320, Note_on_c, 1, 71, 0
3, 106320, Note_on_c, 1, 67, 79
3, 106560, Note_on_c, 1, 67, 0
3, 106560, Note_on_c, 1, 66, 79
3, 106800, Note_on_c, 1, 66, 0
3, 106800, Note_on_c, 1, 69, 79
3, 107040, Note_on_c, 1, 69, 0
3, 107040, Note_on_c, 1, 67, 79
3, 107280, Note_on_c, 1, 67, 0
3, 108000, Note_on_c, 1, 71, 79
3, 108960, Note_on_c, 1, 71, 0
3, 108960, Note_on_c, 1, 74, 79
3, 109920, Note_on_c, 1, 74, 0
3, 109920, Note_on_c, 1, 72, 79
3, 110160, Note_on_c, 1, 72, 0
3, 110160, Note_on_c, 1, 71, 79
3, 110400, Note_on_c, 1, 71, 0
3, 110400, Note_on_c, 1, 69, 79
3, 110640, Note_on_c, 1, 69, 0
3, 110640, Note_on_c, 1, 67, 79
3, 110880, Note_on_c, 1, 67, 0
3, 110880, Note_on_c, 1, 74, 79
3, 111360, Note_on_c, 1, 74, 0
3, 111360, Note_on_c, 1, 62, 79
3, 111840, Note_on_c, 1, 62, 0
3, 111840, Note_on_c, 1, 67, 79
3, 111960, Note_on_c, 1, 67, 0
3, 111960, Note_on_c, 1, 62, 79
3, 112080, Note_on_c, 1, 62, 0
3, 112080, Note_on_c, 1, 62, 79
3, 112200, Note_on_c, 1, 62, 0
3, 112200, Note_on_c, 1, 62, 79
3, 112320, Note_on_c, 1, 62, 0
3, 112320, Note_on_c, 1, 62, 79
3, 112440, Note_on_c, 1, 62, 0
3, 112440, Note_on_c, 1, 62, 79
3, 112560, Note_on_c, 1, 62, 0
3, 112560, Note_on_c, 1, 62, 79
3, 112680, Note_on_c, 1, 62, 0
3, 112680, Note_on_c, 1, 62, 79
3, 112800, Note_on_c, 1, 62, 0
3, 112800, Program_c, 1, 4
3, 112800, Note_on_c, 1, 62, 79
3, 113760, Note_on_c, 1, 62, 0
3, 113760, Note_on_c, 1, 62, 79
3, 114720, Note_on_c, 1, 62, 0
3, 114720, Note_on_c, 1, 66, 79
3, 115680, Note_on_c, 1, 66, 0
3, 115680, Program_c, 1, 1
3, 115680, Note_on_c, 1, 67, 79
3, 115800, Note_on_c, 1, 67, 0
3, 115800, Note_on_c, 1, 62, 79
3, 115920, Note_on_c, 1, 62, 0
3, 115920, Note_on_c, 1, 62, 79
3, 116040, Note_on_c, 1, 62, 0
3, 116040, Note_on_c, 1, 62, 79
3, 116160, Note_on_c, 1, 62, 0
3, 116160, Note_on_c, 1, 62, 79
3, 116280, Note_on_c, 1, 62, 0
3, 116280, Note_on_c, 1, 62, 79
3, 116400, Note_on_c, 1, 62, 0
3, 116400, Note_on_c, 1, 62, 79
3, 116520, Note_on_c, 1, 62, 0
3, 116520, Note_on_c, 1, 62, 79
3, 116640, Note_on_c, 1, 62, 0
3, 116640, Program_c, 1, 4
3, 116640, Note_on_c, 1, 62, 79
3, 117600, Note_on_c, 1, 62, 0
3, 117600, Note_on_c, 1, 62, 79
3, 118560, Note_on_c, 1, 62, 0
3, 118560, Note_on_c, 1, 66, 79
3, 119520, Note_on_c, 1, 66, 0
3, 119520, Program_c, 1, 1
3, 119520, Note_on_c, 1, 67, 79
3, 119760, Note_on_c, 1, 67, 0
3, 119760, Note_on_c, 1, 55, 79
3, 120000, Note_on_c, 1, 55, 0
3, 120000, Note_on_c, 1, 57, 79
3, 120240, Note_on_c, 1, 57, 0
3, 120240, Note_on_c, 1, 59, 79
3, 120480, Note_on_c, 1, 59, 0
3, 120480, Note_on_c, 1, 60, 79
3, 120720, Note_on_c, 1, 60, 0
3, 120720, Note_on_c, 1, 62, 79
3, 120960, Note_on_c, 1, 62, 0
3, 120960, Note_on_c, 1, 64, 79
3, 121200, Note_on_c, 1, 64, 0
3, 121200, Note_on_c, 1, 66, 79
3, 121440, Note_on_c, 1, 66, 0
3, 121440, Note_on_c, 1, 67, 79
3, 121680, Note_on_c, 1, 67, 0
3, 121680, Note_on_c, 1, 66, 79
3, 121920, Note_on_c, 1, 66, 0
3, 121920, Note_on_c, 1, 64, 79
3, 122160, Note_on_c, 1, 64, 0
3, 122160, Note_on_c, 1, 62, 79
3, 122400, Note_on_c, 1, 62, 0
3, 122400, Note_on_c, 1, 60, 79
3, 122640, Note_on_c, 1, 60, 0
3, 122640, Note_on_c, 1, 59, 79
3, 122880, Note_on_c, 1, 59, 0
3, 122880, Note_on_c, 1, 57, 79
3, 123120, Note_on_c, 1, 57, 0
3, 123120, Note_on_c, 1, 55, 79
3, 123360, Note_on_c, 1, 55, 0
3, 123360, Note_on_c, 1, 62, 79
3, 123840, Note_on_c, 1, 62, 0
3, 123840, Note_on_c, 1, 78, 79
3, 124320, Note_on_c, 1, 78, 0
3, 124320, Note_on_c, 1, 78, 79
3, 124800, Note_on_c, 1, 78, 0
3, 127200, Note_on_c, 1, 74, 79
3, 128160, Note_on_c, 1, 74, 0
3, 128160, Note_on_c, 1, 78, 79
3, 128640, Note_on_c, 1, 78, 0
3, 128640, Note_on_c, 1, 81, 79
3, 129120, Note_on_c, 1, 81, 0
3, 129120, Note_on_c, 1, 86, 79
3, 129600, Note_on_c, 1, 86, 0
3, 129600, Note_on_c, 1, 86, 79
3, 130560, Note_on_c, 1, 86, 0
3, 130560, Note_on_c, 1, 88, 79
3, 130800, Note_on_c, 1, 88, 0
3, 130800, Note_on_c, 1, 85, 79
3, 131040, Note_on_c, 1, 85, 0
3, 131040, Note_on_c, 1, 86, 79
3, 131520, Note_on_c, 1, 86, 0
3, 131520, Note_on_c, 1, 74, 79
3, 132480, Note_on_c, 1, 74, 0
3, 132480, Note_on_c, 1, 76, 79
3, 132720, Note_on_c, 1, 76, 0
3, 132720, Note_on_c, 1, 73, 79
3, 132960, Note_on_c, 1, 73, 0
3, 132960, Note_on_c, 1, 74, 79
3, 133440, Note_on_c, 1, 74, 0
3, 135840, Note_on_c, 1, 86, 79
3, 135960, Note_on_c, 1, 86, 0
3, 135960, Note_on_c, 1, 81, 79
3, 136080, Note_on_c, 1, 81, 0
3, 136080, Note_on_c, 1, 83, 79
3, 136200, Note_on_c, 1, 83, 0
3, 136200, Note_on_c, 1, 81, 79
3, 136320, Note_on_c, 1, 81, 0
3, 136320, Note_on_c, 1, 86, 79
3, 136440, Note_on_c, 1, 86, 0
3, 136440, Note_on_c, 1, 81, 79
3, 136560, Note_on_c, 1, 81, 0
3, 136560, Note_on_c, 1, 83, 79
3, 136680, Note_on_c, 1, 83, 0
3, 136680, Note_on_c, 1, 81, 79
3, 136800, Note_on_c, 1, 81, 0
3, 136800, Note_on_c, 1, 81, 79
3, 138720, Note_on_c, 1, 81, 0
3, 138720, Note_on_c, 1, 81, 79
3, 139200, Note_on_c, 1, 81, 0
3, 139680, Note_on_c, 1, 86, 79
3, 139800, Note_on_c, 1, 86, 0
3, 139800, Note_on_c, 1, 81, 79
3, 139920, Note_on_c, 1, 81, 0
3, 139920, Note_on_c, 1, 83, 79
3, 140040, Note_on_c, 1, 83, 0
3, 140040, Note_on_c, 1, 81, 79
3, 140160, Note_on_c, 1, 81, 0
3, 140160, Note_on_c, 1, 86, 79
3, 140280, Note_on_c, 1, 86, 0
3, 140280, Note_on_c, 1, 81, 79
3, 140400, Note_on_c, 1, 81, 0
3, 140400, Note_on_c, 1, 83, 79
3, 140520, Note_on_c, 1, 83, 0
3, 140520, Note_on_c, 1, 81, 79
3, 140640, Note_on_c, 1, 81, 0
3, 140640, Note_on_c, 1, 81, 79
3, 142560, Note_on_c, 1, 81, 0
3, 142560, Note_on_c, 1, 81, 79
3, 142680, Note_on_c, 1, 81, 0
3, 142680, Note_on_c, 1, 74, 79
3, 142800, Note_on_c, 1, 74, 0
3, 142800, Note_on_c, 1, 73, 79
3, 142920, Note_on_c, 1, 73, 0
3, 142920, Note_on_c, 1, 74, 79
3, 143040, Note_on_c, 1, 74, 0
3, 143040, Note_on_c, 1, 72, 79
3, 143160, Note_on_c, 1, 72, 0
3, 143160, Note_on_c, 1, 74, 79
3, 143280, Note_on_c, 1, 74, 0
3, 143280, Note_on_c, 1, 71, 79
3, 143400, Note_on_c, 1, 71, 0
3, 143400, Note_on_c, 1, 74, 79
3, 143520, Note_on_c, 1, 74, 0
3, 143520, Note_on_c, 1, 69, 79
3, 143640, Note_on_c, 1, 69, 0
3, 143640, Note_on_c, 1, 74, 79
3, 143760, Note_on_c, 1, 74, 0
3, 143760, Note_on_c, 1, 71, 79
3, 143880, Note_on_c, 1, 71, 0
3, 143880, Note_on_c, 1, 74, 79
3, 144000, Note_on_c, 1, 74, 0
3, 144000, Note_on_c, 1, 72, 79
3, 144120, Note_on_c, 1, 72, 0
3, 144120, Note_on_c, 1, 74, 79
3, 144240, Note_on_c, 1, 74, 0
3, 144240, Note_on_c, 1, 69, 79
3, 144360, Note_on_c, 1, 69, 0
3, 144360, Note_on_c, 1, 74, 79
3, 144480, Note_on_c, 1, 74, 0
3, 144480, Note_on_c, 1, 71, 79
3, 144960, Note_on_c, 1, 71, 0
3, 145560, Note_on_c, 1, 71, 79
3, 145680, Note_on_c, 1, 71, 0
3, 145680, Note_on_c, 1, 72, 79
3, 145800, Note_on_c, 1, 72, 0
3, 145800, Note_on_c, 1, 74, 79
3, 145920, Note_on_c, 1, 74, 0
3, 145920, Note_on_c, 1, 76, 79
3, 146040, Note_on_c, 1, 76, 0
3, 146040, Note_on_c, 1, 78, 79
3, 146160, Note_on_c, 1, 78, 0
3, 146160, Note_on_c, 1, 79, 79
3, 146280, Note_on_c, 1, 79, 0
3, 146280, Note_on_c, 1, 81, 79
3, 146400, Note_on_c, 1, 81, 0
3, 146400, Note_on_c, 1, 83, 79
3, 147360, Note_on_c, 1, 83, 0
3, 147360, Note_on_c, 1, 81, 79
3, 147840, Note_on_c, 1, 81, 0
3, 147840, Note_on_c, 1, 79, 79
3, 148320, Note_on_c, 1, 79, 0
3, 148320, Note_on_c, 1, 78, 79
3, 149040, Note_on_c, 1, 78, 0
3, 149040, Note_on_c, 1, 79, 79
3, 149280, Note_on_c, 1, 79, 0
3, 149280, Note_on_c, 1, 78, 79
3, 149760, Note_on_c, 1, 78, 0
3, 149760, Note_on_c, 1, 76, 79
3, 150240, Note_on_c, 1, 76, 0
3, 150240, Note_on_c, 1, 74, 79
3, 150720, Note_on_c, 1, 74, 0
3, 152280, Note_on_c, 1, 67, 79
3, 152400, Note_on_c, 1, 67, 0
3, 152400, Note_on_c, 1, 69, 79
3, 152520, Note_on_c, 1, 69, 0
3, 152520, Note_on_c, 1, 71, 79
3, 152640, Note_on_c, 1, 71, 0
3, 152640, Note_on_c, 1, 72, 79
3, 152760, Note_on_c, 1, 72, 0
3, 152760, Note_on_c, 1, 74, 79
3, 152880, Note_on_c, 1, 74, 0
3, 152880, Note_on_c, 1, 76, 79
3, 153000, Note_on_c, 1, 76, 0
3, 153000, Note_on_c, 1, 78, 79
3, 153120, Note_on_c, 1, 78, 0
3, 153120, Note_on_c, 1, 79, 79
3, 153240, Note_on_c, 1, 79, 0
3, 153240, Note_on_c, 1, 74, 79
3, 153360, Note_on_c, 1, 74, 0
3, 153360, Note_on_c, 1, 76, 79
3, 153480, Note_on_c, 1, 76, 0
3, 153480, Note_on_c, 1, 78, 79
3, 153600, Note_on_c, 1, 78, 0
3, 153600, Note_on_c, 1, 79, 79
3, 153720, Note_on_c, 1, 79, 0
3, 153720, Note_on_c, 1, 81, 79
3, 153840, Note_on_c, 1, 81, 0
3, 153840, Note_on_c, 1, 83, 79
3, 153960, Note_on_c, 1, 83, 0
3, 153960, Note_on_c, 1, 84, 79
3, 154080, Note_on_c, 1, 84, 0
3, 154080, Note_on_c, 1, 86, 79
3, 155040, Note_on_c, 1, 86, 0
3, 155040, Note_on_c, 1, 85, 79
3, 155520, Note_on_c, 1, 85, 0
3, 155520, Note_on_c, 1, 83, 79
3, 156000, Note_on_c, 1, 83, 0
3, 156000, Note_on_c, 1, 81, 79
3, 156720, Note_on_c, 1, 81, 0
3, 156720, Note_on_c, 1, 83, 79
3, 156960, Note_on_c, 1, 83, 0
3, 156960, Note_on_c, 1, 74, 79
3, 157440, Note_on_c, 1, 74, 0
3, 157440, Note_on_c, 1, 73, 79
3, 157920, Note_on_c, 1, 73, 0
3, 157920, Note_on_c, 1, 74, 79
3, 158400, Note_on_c, 1, 74, 0
3, 158400, Note_on_c, 1, 62, 79
3, 159360, Note_on_c, 1, 62, 0
3, 159360, Note_on_c, 1, 67, 79
3, 159840, Note_on_c, 1, 67, 0
3, 159840, Note_on_c, 1, 66, 79
3, 160320, Note_on_c, 1, 66, 0
3, 160320, Note_on_c, 1, 73, 79
3, 160440, Note_on_c, 1, 73, 0
3, 160440, Note_on_c, 1, 71, 79
3, 160560, Note_on_c, 1, 71, 0
3, 160560, Note_on_c, 1, 69, 79
3, 160680, Note_on_c, 1, 69, 0
3, 160680, Note_on_c, 1, 67, 79
3, 160800, Note_on_c, 1, 67, 0
3, 160800, Note_on_c, 1, 69, 79
3, 161040, Note_on_c, 1, 69, 0
3, 161040, Note_on_c, 1, 66, 79
3, 161280, Note_on_c, 1, 66, 0
3, 161280, Note_on_c, 1, 67, 79
3, 161760, Note_on_c, 1, 67, 0
3, 161760, Note_on_c, 1, 66, 79
3, 162240, Note_on_c, 1, 66, 0
3, 162240, Note_on_c, 1, 69, 79
3, 162720, Note_on_c, 1, 69, 0
3, 162720, Note_on_c, 1, 69, 79
3, 163200, Note_on_c, 1, 69, 0
3, 163680, Note_on_c, 1, 71, 79
3, 164160, Note_on_c, 1, 71, 0
3, 164160, Note_on_c, 1, 72, 79
3, 164220, Note_on_c, 1, 72, 0
3, 164220, Note_on_c, 1, 71, 79
3, 164280, Note_on_c, 1, 71, 0
3, 164280, Note_on_c, 1, 69, 79
3, 164400, Note_on_c, 1, 69, 0
3, 164400, Note_on_c, 1, 71, 79
3, 164520, Note_on_c, 1, 71, 0
3, 164520, Note_on_c, 1, 72, 79
3, 164640, Note_on_c, 1, 72, 0
3, 164640, Note_on_c, 1, 71, 79
3, 164880, Note_on_c, 1, 71, 0
3, 164880, Note_on_c, 1, 71, 79
3, 165120, Note_on_c, 1, 71, 0
3, 165120, Note_on_c, 1, 69, 79
3, 165360, Note_on_c, 1, 69, 0
3, 165360, Note_on_c, 1, 72, 79
3, 165600, Note_on_c, 1, 72, 0
3, 165600, Note_on_c, 1, 71, 79
3, 165840, Note_on_c, 1, 71, 0
3, 165840, Note_on_c, 1, 67, 79
3, 166080, Note_on_c, 1, 67, 0
3, 166080, Note_on_c, 1, 66, 79
3, 166320, Note_on_c, 1, 66, 0
3, 166320, Note_on_c, 1, 69, 79
3, 166560, Note_on_c, 1, 69, 0
3, 166560, Note_on_c, 1, 67, 79
3, 166800, Note_on_c, 1, 67, 0
3, 167520, Note_on_c, 1, 71, 79
3, 168480, Note_on_c, 1, 71, 0
3, 168480, Note_on_c, 1, 74, 79
3, 169440, Note_on_c, 1, 74, 0
3, 169440, Note_on_c, 1, 72, 79
3, 169680, Note_on_c, 1, 72, 0
3, 169680, Note_on_c, 1, 71, 79
3, 169920, Note_on_c, 1, 71, 0
3, 169920, Note_on_c, 1, 69, 79
3, 170160, Note_on_c, 1, 69, 0
3, 170160, Note_on_c, 1, 67, 79
3, 170400, Note_on_c, 1, 67, 0
3, 170400, Note_on_c, 1, 74, 79
3, 170880, Note_on_c, 1, 74, 0
3, 170880, Note_on_c, 1, 62, 79
3, 171360, Note_on_c, 1, 62, 0
3, 171360, Note_on_c, 1, 67, 79
3, 171840, Note_on_c, 1, 67, 0
3, 171840, Note_on_c, 1, 72, 79
3, 171900, Note_on_c, 1, 72, 0
3, 171900, Note_on_c, 1, 71, 79
3, 171960, Note_on_c, 1, 71, 0
3, 171960, Note_on_c, 1, 69, 79
3, 172080, Note_on_c, 1, 69, 0
3, 172080, Note_on_c, 1, 71, 79
3, 172200, Note_on_c, 1, 71, 0
3, 172200, Note_on_c, 1, 72, 79
3, 172320, Note_on_c, 1, 72, 0
3, 172320, Note_on_c, 1, 71, 79
3, 172560, Note_on_c, 1, 71, 0
3, 172560, Note_on_c, 1, 71, 79
3, 172800, Note_on_c, 1, 71, 0
3, 172800, Note_on_c, 1, 69, 79
3, 173040, Note_on_c, 1, 69, 0
3, 173040, Note_on_c, 1, 72, 79
3, 173280, Note_on_c, 1, 72, 0
3, 173280, Note_on_c, 1, 71, 79
3, 173520, Note_on_c, 1, 71, 0
3, 173520, Note_on_c, 1, 67, 79
3, 173760, Note_on_c, 1, 67, 0
3, 173760, Note_on_c, 1, 66, 79
3, 174000, Note_on_c, 1, 66, 0
3, 174000, Note_on_c, 1, 69, 79
3, 174240, Note_on_c, 1, 69, 0
3, 174240, Note_on_c, 1, 67, 79
3, 174480, Note_on_c, 1, 67, 0
3, 175200, Note_on_c, 1, 71, 79
3, 176160, Note_on_c, 1, 71, 0
3, 176160, Note_on_c, 1, 74, 79
3, 177120, Note_on_c, 1, 74, 0
3, 177120, Note_on_c, 1, 72, 79
3, 177360, Note_on_c, 1, 72, 0
3, 177360, Note_on_c, 1, 71, 79
3, 177600, Note_on_c, 1, 71, 0
3, 177600, Note_on_c, 1, 69, 79
3, 177840, Note_on_c, 1, 69, 0
3, 177840, Note_on_c, 1, 67, 79
3, 178080, Note_on_c, 1, 67, 0
3, 178080, Note_on_c, 1, 74, 79
3, 178560, Note_on_c, 1, 74, 0
3, 178560, Note_on_c, 1, 62, 79
3, 179040, Note_on_c, 1, 62, 0
3, 179040, Note_on_c, 1, 67, 79
3, 179160, Note_on_c, 1, 67, 0
3, 179160, Note_on_c, 1, 62, 79
3, 179280, Note_on_c, 1, 62, 0
3, 179280, Note_on_c, 1, 62, 79
3, 179400, Note_on_c, 1, 62, 0
3, 179400, Note_on_c, 1, 62, 79
3, 179520, Note_on_c, 1, 62, 0
3, 179520, Note_on_c, 1, 62, 79
3, 179640, Note_on_c, 1, 62, 0
3, 179640, Note_on_c, 1, 62, 79
3, 179760, Note_on_c, 1, 62, 0
3, 179760, Note_on_c, 1, 62, 79
3, 179880, Note_on_c, 1, 62, 0
3, 179880, Note_on_c, 1, 62, 79
3, 180000, Note_on_c, 1, 62, 0
3, 180000, Program_c, 1, 4
3, 180000, Note_on_c, 1, 62, 79
3, 180960, Note_on_c, 1, 62, 0
3, 180960, Note_on_c, 1, 62, 79
3, 181920, Note_on_c, 1, 62, 0
3, 181920, Note_on_c, 1, 66, 79
3, 182880, Note_on_c, 1, 66, 0
3, 182880, Program_c, 1, 1
3, 182880, Note_on_c, 1, 67, 79
3, 183000, Note_on_c, 1, 67, 0
3, 183000, Note_on_c, 1, 62, 79
3, 183120, Note_on_c, 1, 62, 0
3, 183120, Note_on_c, 1, 62, 79
3, 183240, Note_on_c, 1, 62, 0
3, 183240, Note_on_c, 1, 62, 79
3, 183360, Note_on_c, 1, 62, 0
3, 183360, Note_on_c, 1, 62, 79
3, 183480, Note_on_c, 1, 62, 0
3, 183480, Note_on_c, 1, 62, 79
3, 183600, Note_on_c, 1, 62, 0
3, 183600, Note_on_c, 1, 62, 79
3, 183720, Note_on_c, 1, 62, 0
3, 183720, Note_on_c, 1, 62, 79
3, 183840, Note_on_c, 1, 62, 0
3, 183840, Program_c, 1, 4
3, 183840, Note_on_c, 1, 62, 79
3, 184800, Note_on_c, 1, 62, 0
3, 184800, Note_on_c, 1, 62, 79
3, 185760, Note_on_c, 1, 62, 0
3, 185760, Note_on_c, 1, 66, 79
3, 186720, Note_on_c, 1, 66, 0
3, 186720, Program_c, 1, 1
3, 186720, Note_on_c, 1, 67, 79
3, 186960, Note_on_c, 1, 67, 0
3, 186960, Note_on_c, 1, 55, 79
3, 187200, Note_on_c, 1, 55, 0
3, 187200, Note_on_c, 1, 57, 79
3, 187440, Note_on_c, 1, 57, 0
3, 187440, Note_on_c, 1, 59, 79
3, 187680, Note_on_c, 1, 59, 0
3, 187680, Note_on_c, 1, 60, 79
3, 187920, Note_on_c, 1, 60, 0
3, 187920, Note_on_c, 1, 62, 79
3, 188160, Note_on_c, 1, 62, 0
3, 188160, Note_on_c, 1, 64, 79
3, 188400, Note_on_c, 1, 64, 0
3, 188400, Note_on_c, 1, 66, 79
3, 188640, Note_on_c, 1, 66, 0
3, 188640, Note_on_c, 1, 67, 79
3, 188880, Note_on_c, 1, 67, 0
3, 188880, Note_on_c, 1, 66, 79
3, 189120, Note_on_c, 1, 66, 0
3, 189120, Note_on_c, 1, 64, 79
3, 189360, Note_on_c, 1, 64, 0
3, 189360, Note_on_c, 1, 62, 79
3, 189600, Note_on_c, 1, 62, 0
3, 189600, Note_on_c, 1, 60, 79
3, 189840, Note_on_c, 1, 60, 0
3, 189840, Note_on_c, 1, 59, 79
3, 190080, Note_on_c, 1, 59, 0
3, 190080, Note_on_c, 1, 57, 79
3, 190320, Note_on_c, 1, 57, 0
3, 190320, Note_on_c, 1, 55, 79
3, 190560, Note_on_c, 1, 55, 0
3, 190560, Note_on_c, 1, 62, 79
3, 191040, Note_on_c, 1, 62, 0
3, 191040, Note_on_c, 1, 78, 79
3, 191520, Note_on_c, 1, 78, 0
3, 191520, Note_on_c, 1, 78, 79
3, 192000, Note_on_c, 1, 78, 0
3, 194400, Note_on_c, 1, 74, 79
3, 195360, Note_on_c, 1, 74, 0
3, 195360, Note_on_c, 1, 78, 79
3, 195840, Note_on_c, 1, 78, 0
3, 195840, Note_on_c, 1, 81, 79
3, 196320, Note_on_c, 1, 81, 0
3, 196320, Note_on_c, 1, 86, 79
3, 196800, Note_on_c, 1, 86, 0
3, 196800, Note_on_c, 1, 86, 79
3, 197760, Note_on_c, 1, 86, 0
3, 197760, Note_on_c, 1, 88, 79
3, 198000, Note_on_c, 1, 88, 0
3, 198000, Note_on_c, 1, 85, 79
3, 198240, Note_on_c, 1, 85, 0
3, 198240, Note_on_c, 1, 86, 79
3, 198720, Note_on_c, 1, 86, 0
3, 198720, Note_on_c, 1, 74, 79
3, 199680, Note_on_c, 1, 74, 0
3, 199680, Note_on_c, 1, 76, 79
3, 199920, Note_on_c, 1, 76, 0
3, 199920, Note_on_c, 1, 73, 79
3, 200160, Note_on_c, 1, 73, 0
3, 200160, Note_on_c, 1, 74, 79
3, 200640, Note_on_c, 1, 74, 0
3, 203040, Note_on_c, 1, 86, 79
3, 203160, Note_on_c, 1, 86, 0
3, 203160, Note_on_c, 1, 81, 79
3, 203280, Note_on_c, 1, 81, 0
3, 203280, Note_on_c, 1, 83, 79
3, 203400, Note_on_c, 1, 83, 0
3, 203400, Note_on_c, 1, 81, 79
3, 203520, Note_on_c, 1, 81, 0
3, 203520, Note_on_c, 1, 86, 79
3, 203640, Note_on_c, 1, 86, 0
3, 203640, Note_on_c, 1, 81, 79
3, 203760, Note_on_c, 1, 81, 0
3, 203760, Note_on_c, 1, 83, 79
3, 203880, Note_on_c, 1, 83, 0
3, 203880, Note_on_c, 1, 81, 79
3, 204000, Note_on_c, 1, 81, 0
3, 204000, Note_on_c, 1, 81, 79
3, 205920, Note_on_c, 1, 81, 0
3, 205920, Note_on_c, 1, 81, 79
3, 206400, Note_on_c, 1, 81, 0
3, 206880, Note_on_c, 1, 86, 79
3, 207000, Note_on_c, 1, 86, 0
3, 207000, Note_on_c, 1, 81, 79
3, 207120, Note_on_c, 1, 81, 0
3, 207120, Note_on_c, 1, 83, 79
3, 207240, Note_on_c, 1, 83, 0
3, 207240, Note_on_c, 1, 81, 79
3, 207360, Note_on_c, 1, 81, 0
3, 207360, Note_on_c, 1, 86, 79
3, 207480, Note_on_c, 1, 86, 0
3, 207480, Note_on_c, 1, 81, 79
3, 207600, Note_on_c, 1, 81, 0
3, 207600, Note_on_c, 1, 83, 79
3, 207720, Note_on_c, 1, 83, 0
3, 207720, Note_on_c, 1, 81, 79
3, 207840, Note_on_c, 1, 81, 0
3, 207840, Note_on_c, 1, 81, 79
3, 209760, Note_on_c, 1, 81, 0
3, 209760, Note_on_c, 1, 81, 79
3, 209880, Note_on_c, 1, 81, 0
3, 209880, Note_on_c, 1, 74, 79
3, 210000, Note_on_c, 1, 74, 0
3, 210000, Note_on_c, 1, 73, 79
3, 210120, Note_on_c, 1, 73, 0
3, 210120, Note_on_c, 1, 74, 79
3, 210240, Note_on_c, 1, 74, 0
3, 210240, Note_on_c, 1, 72, 79
3, 210360, Note_on_c, 1, 72, 0
3, 210360, Note_on_c, 1, 74, 79
3, 210480, Note_on_c, 1, 74, 0
3, 210480, Note_on_c, 1, 71, 79
3, 210600, Note_on_c, 1, 71, 0
3, 210600, Note_on_c, 1, 74, 79
3, 210720, Note_on_c, 1, 74, 0
3, 210720, Note_on_c, 1, 69, 79
3, 210840, Note_on_c, 1, 69, 0
3, 210840, Note_on_c, 1, 74, 79
3, 210960, Note_on_c, 1, 74, 0
3, 210960, Note_on_c, 1, 71, 79
3, 211080, Note_on_c, 1, 71, 0
3, 211080, Note_on_c, 1, 74, 79
3, 211200, Note_on_c, 1, 74, 0
3, 211200, Note_on_c, 1, 72, 79
3, 211320, Note_on_c, 1, 72, 0
3, 211320, Note_on_c, 1, 74, 79
3, 211440, Note_on_c, 1, 74, 0
3, 211440, Note_on_c, 1, 69, 79
3, 211560, Note_on_c, 1, 69, 0
3, 211560, Note_on_c, 1, 74, 79
3, 211680, Note_on_c, 1, 74, 0
3, 211680, Note_on_c, 1, 71, 79
3, 212160, Note_on_c, 1, 71, 0
3, 212760, Note_on_c, 1, 71, 79
3, 212880, Note_on_c, 1, 71, 0
3, 212880, Note_on_c, 1, 72, 79
3, 213000, Note_on_c, 1, 72, 0
3, 213000, Note_on_c, 1, 74, 79
3, 213120, Note_on_c, 1, 74, 0
3, 213120, Note_on_c, 1, 76, 79
3, 213240, Note_on_c, 1, 76, 0
3, 213240, Note_on_c, 1, 78, 79
3, 213360, Note_on_c, 1, 78, 0
3, 213360, Note_on_c, 1, 79, 79
3, 213480, Note_on_c, 1, 79, 0
3, 213480, Note_on_c, 1, 81, 79
3, 213600, Note_on_c, 1, 81, 0
3, 213600, Note_on_c, 1, 83, 79
3, 214560, Note_on_c, 1, 83, 0
3, 214560, Note_on_c, 1, 81, 79
3, 215040, Note_on_c, 1, 81, 0
3, 215040, Note_on_c, 1, 79, 79
3, 215520, Note_on_c, 1, 79, 0
3, 215520, Note_on_c, 1, 78, 79
3, 216240, Note_on_c, 1, 78, 0
3, 216240, Note_on_c, 1, 79, 79
3, 216480, Note_on_c, 1, 79, 0
3, 216480, Note_on_c, 1, 78, 79
3, 216960, Note_on_c, 1, 78, 0
3, 216960, Note_on_c, 1, 76, 79
3, 217440, Note_on_c, 1, 76, 0
3, 217440, Note_on_c, 1, 74, 79
3, 217920, Note_on_c, 1, 74, 0
3, 219480, Note_on_c, 1, 67, 79
3, 219600, Note_on_c, 1, 67, 0
3, 219600, Note_on_c, 1, 69, 79
3, 219720, Note_on_c, 1, 69, 0
3, 219720, Note_on_c, 1, 71, 79
3, 219840, Note_on_c, 1, 71, 0
3, 219840, Note_on_c, 1, 72, 79
3, 219960, Note_on_c, 1, 72, 0
3, 219960, Note_on_c, 1, 74, 79
3, 220080, Note_on_c, 1, 74, 0
3, 220080, Note_on_c, 1, 76, 79
3, 220200, Note_on_c, 1, 76, 0
3, 220200, Note_on_c, 1, 78, 79
3, 220320, Note_on_c, 1, 78, 0
3, 220320, Note_on_c, 1, 79, 79
3, 220440, Note_on_c, 1, 79, 0
3, 220440, Note_on_c, 1, 74, 79
3, 220560, Note_on_c, 1, 74, 0
3, 220560, Note_on_c, 1, 76, 79
3, 220680, Note_on_c, 1, 76, 0
3, 220680, Note_on_c, 1, 78, 79
3, 220800, Note_on_c, 1, 78, 0
3, 220800, Note_on_c, 1, 79, 79
3, 220920, Note_on_c, 1, 79, 0
3, 220920, Note_on_c, 1, 81, 79
3, 221040, Note_on_c, 1, 81, 0
3, 221040, Note_on_c, 1, 83, 79
3, 221160, Note_on_c, 1, 83, 0
3, 221160, Note_on_c, 1, 84, 79
3, 221280, Note_on_c, 1, 84, 0
3, 221280, Note_on_c, 1, 86, 79
3, 222240, Note_on_c, 1, 86, 0
3, 222240, Note_on_c, 1, 85, 79
3, 222720, Note_on_c, 1, 85, 0
3, 222720, Note_on_c, 1, 83, 79
3, 223200, Note_on_c, 1, 83, 0
3, 223200, Note_on_c, 1, 81, 79
3, 223920, Note_on_c, 1, 81, 0
3, 223920, Note_on_c, 1, 83, 79
3, 224160, Note_on_c, 1, 83, 0
3, 224160, Note_on_c, 1, 74, 79
3, 224640, Note_on_c, 1, 74, 0
3, 224640, Note_on_c, 1, 73, 79
3, 225120, Note_on_c, 1, 73, 0
3, 225120, Note_on_c, 1, 74, 79
3, 225600, Note_on_c, 1, 74, 0
3, 225600, Note_on_c, 1, 62, 79
3, 226560, Note_on_c, 1, 62, 0
3, 226560, Note_on_c, 1, 67, 79
3, 227040, Note_on_c, 1, 67, 0
3, 227040, Note_on_c, 1, 66, 79
3, 227520, Note_on_c, 1, 66, 0
3, 227520, Note_on_c, 1, 73, 79
3, 227640, Note_on_c, 1, 73, 0
3, 227640, Note_on_c, 1, 71, 79
3, 227760, Note_on_c, 1, 71, 0
3, 227760, Note_on_c, 1, 69, 79
3, 227880, Note_on_c, 1, 69, 0
3, 227880, Note_on_c, 1, 67, 79
3, 228000, Note_on_c, 1, 67, 0
3, 228000, Note_on_c, 1, 69, 79
3, 228240, Note_on_c, 1, 69, 0
3, 228240, Note_on_c, 1, 66, 79
3, 228480, Note_on_c, 1, 66, 0
3, 228480, Note_on_c, 1, 67, 79
3, 228960, Note_on_c, 1, 67, 0
3, 228960, Note_on_c, 1, 66, 79
3, 229440, Note_on_c, 1, 66, 0
3, 229440, Note_on_c, 1, 69, 79
3, 229920, Note_on_c, 1, 69, 0
3, 229920, Note_on_c, 1, 69, 79
3, 230400, Note_on_c, 1, 69, 0
3, 234720, Note_on_c, 1, 74, 79
3, 236640, Note_on_c, 1, 74, 0
3, 236640, Note_on_c, 1, 76, 79
3, 238560, Note_on_c, 1, 76, 0
3, 238560, Note_on_c, 1, 76, 79
3, 239520, Note_on_c, 1, 76, 0
3, 239520, Note_on_c, 1, 74, 79
3, 240480, Note_on_c, 1, 74, 0
3, 240480, Note_on_c, 1, 74, 79
3, 241440, Note_on_c, 1, 74, 0
3, 241440, Note_on_c, 1, 73, 79
3, 242400, Note_on_c, 1, 73, 0
3, 242400, Note_on_c, 1, 74, 79
3, 242640, Note_on_c, 1, 74, 0
3, 242640, Note_on_c, 1, 76, 79
3, 242880, Note_on_c, 1, 76, 0
3, 242880, Note_on_c, 1, 74, 79
3, 243120, Note_on_c, 1, 74, 0
3, 243120, Note_on_c, 1, 72, 79
3, 243360, Note_on_c, 1, 72, 0
3, 243360, Note_on_c, 1, 71, 79
3, 243600, Note_on_c, 1, 71, 0
3, 243600, Note_on_c, 1, 69, 79
3, 243840, Note_on_c, 1, 69, 0
3, 243840, Note_on_c, 1, 67, 79
3, 244080, Note_on_c, 1, 67, 0
3, 244080, Note_on_c, 1, 66, 79
3, 244320, Note_on_c, 1, 66, 0
3, 244320, Note_on_c, 1, 67, 79
3, 244560, Note_on_c, 1, 67, 0
3, 244560, Note_on_c, 1, 69, 79
3, 244800, Note_on_c, 1, 69, 0
3, 244800, Note_on_c, 1, 71, 79
3, 245040, Note_on_c, 1, 71, 0
3, 245040, Note_on_c, 1, 72, 79
3, 245280, Note_on_c, 1, 72, 0
3, 245280, Note_on_c, 1, 74, 79
3, 245520, Note_on_c, 1, 74, 0
3, 245520, Note_on_c, 1, 76, 79
3, 245760, Note_on_c, 1, 76, 0
3, 245760, Note_on_c, 1, 78, 79
3, 246000, Note_on_c, 1, 78, 0
3, 246000, Note_on_c, 1, 79, 79
3, 246240, Note_on_c, 1, 79, 0
3, 246240, Note_on_c, 1, 79, 79
3, 246480, Note_on_c, 1, 79, 0
3, 246480, Note_on_c, 1, 76, 79
3, 246720, Note_on_c, 1, 76, 0
3, 246720, Note_on_c, 1, 81, 79
3, 246960, Note_on_c, 1, 81, 0
3, 246960, Note_on_c, 1, 79, 79
3, 247200, Note_on_c, 1, 79, 0
3, 247200, Note_on_c, 1, 78, 79
3, 248160, Note_on_c, 1, 78, 0
3, 248160, Note_on_c, 1, 78, 79
3, 248400, Note_on_c, 1, 78, 0
3, 248400, Note_on_c, 1, 74, 79
3, 248640, Note_on_c, 1, 74, 0
3, 248640, Note_on_c, 1, 79, 79
3, 248880, Note_on_c, 1, 79, 0
3, 248880, Note_on_c, 1, 78, 79
3, 249120, Note_on_c, 1, 78, 0
3, 249120, Note_on_c, 1, 76, 79
3, 249360, Note_on_c, 1, 76, 0
3, 249360, Note_on_c, 1, 74, 79
3, 249600, Note_on_c, 1, 74, 0
3, 249600, Note_on_c, 1, 72, 79
3, 249840, Note_on_c, 1, 72, 0
3, 249840, Note_on_c, 1, 71, 79
3, 250080, Note_on_c, 1, 71, 0
3, 250080, Note_on_c, 1, 71, 79
3, 250320, Note_on_c, 1, 71, 0
3, 250320, Note_on_c, 1, 67, 79
3, 250560, Note_on_c, 1, 67, 0
3, 250560, Note_on_c, 1, 72, 79
3, 250800, Note_on_c, 1, 72, 0
3, 250800, Note_on_c, 1, 71, 79
3, 251040, Note_on_c, 1, 71, 0
3, 251040, Note_on_c, 1, 69, 79
3, 251280, Note_on_c, 1, 69, 0
3, 251280, Note_on_c, 1, 71, 79
3, 251520, Note_on_c, 1, 71, 0
3, 251520, Note_on_c, 1, 69, 79
3, 251760, Note_on_c, 1, 69, 0
3, 251760, Note_on_c, 1, 67, 79
3, 252000, Note_on_c, 1, 67, 0
3, 252000, Note_on_c, 1, 66, 79
3, 252480, Note_on_c, 1, 66, 0
3, 252720, Note_on_c, 1, 69, 79
3, 252960, Note_on_c, 1, 69, 0
3, 252960, Note_on_c, 1, 69, 79
3, 253200, Note_on_c, 1, 69, 0
3, 253200, Note_on_c, 1, 67, 79
3, 253440, Note_on_c, 1, 67, 0
3, 253680, Note_on_c, 1, 71, 79
3, 253920, Note_on_c, 1, 71, 0
3, 253920, Control_c, 1, 7, 104
3, 253920, Note_on_c, 1, 69, 79
3, 254400, Note_on_c, 1, 69, 0
3, 254640, Note_on_c, 1, 69, 79
3, 254880, Note_on_c, 1, 69, 0
3, 254880, Note_on_c, 1, 69, 79
3, 255120, Note_on_c, 1, 69, 0
3, 255120, Note_on_c, 1, 67, 79
3, 255360, Note_on_c, 1, 67, 0
3, 255600, Note_on_c, 1, 71, 79
3, 255840, Note_on_c, 1, 71, 0
3, 255840, Note_on_c, 1, 69, 79
3, 256320, Note_on_c, 1, 69, 0
3, 256320, Note_on_c, 1, 69, 79
3, 256800, Note_on_c, 1, 69, 0
3, 256800, Note_on_c, 1, 69, 79
3, 257280, Note_on_c, 1, 69, 0
3, 257760, Note_on_c, 1, 71, 79
3, 258240, Note_on_c, 1, 71, 0
3, 258240, Note_on_c, 1, 72, 79
3, 258300, Note_on_c, 1, 72, 0
3, 258300, Note_on_c, 1, 71, 79
3, 258360, Note_on_c, 1, 71, 0
3, 258360, Note_on_c, 1, 69, 79
3, 258480, Note_on_c, 1, 69, 0
3, 258480, Note_on_c, 1, 71, 79
3, 258600, Note_on_c, 1, 71, 0
3, 258600, Note_on_c, 1, 72, 79
3, 258720, Note_on_c, 1, 72, 0
3, 258720, Note_on_c, 1, 71, 79
3, 258960, Note_on_c, 1, 71, 0
3, 258960, Note_on_c, 1, 71, 79
3, 259200, Note_on_c, 1, 71, 0
3, 259200, Note_on_c, 1, 69, 79
3, 259440, Note_on_c, 1, 69, 0
3, 259440, Note_on_c, 1, 72, 79
3, 259680, Note_on_c, 1, 72, 0
3, 259680, Note_on_c, 1, 71, 79
3, 259920, Note_on_c, 1, 71, 0
3, 259920, Note_on_c, 1, 67, 79
3, 260160, Note_on_c, 1, 67, 0
3, 260160, Note_on_c, 1, 66, 79
3, 260400, Note_on_c, 1, 66, 0
3, 260400, Note_on_c, 1, 69, 79
3, 260640, Note_on_c, 1, 69, 0
3, 260640, Note_on_c, 1, 67, 79
3, 260880, Note_on_c, 1, 67, 0
3, 261600, Note_on_c, 1, 71, 79
3, 262560, Note_on_c, 1, 71, 0
3, 262560, Note_on_c, 1, 74, 79
3, 263520, Note_on_c, 1, 74, 0
3, 263520, Note_on_c, 1, 72, 79
3, 263760, Note_on_c, 1, 72, 0
3, 263760, Note_on_c, 1, 71, 79
3, 264000, Note_on_c, 1, 71, 0
3, 264000, Note_on_c, 1, 69, 79
3, 264240, Note_on_c, 1, 69, 0
3, 264240, Note_on_c, 1, 67, 79
3, 264480, Note_on_c, 1, 67, 0
3, 264480, Note_on_c, 1, 74, 79
3, 264960, Note_on_c, 1, 74, 0
3, 264960, Note_on_c, 1, 62, 79
3, 265440, Note_on_c, 1, 62, 0
3, 265440, Note_on_c, 1, 55, 79
3, 265920, Note_on_c, 1, 55, 0
3, 265920, Note_on_c, 1, 71, 79
3, 266040, Note_on_c, 1, 71, 0
3, 266040, Note_on_c, 1, 69, 79
3, 266160, Note_on_c, 1, 69, 0
3, 266160, Note_on_c, 1, 71, 79
3, 266280, Note_on_c, 1, 71, 0
3, 266280, Note_on_c, 1, 72, 79
3, 266400, Note_on_c, 1, 72, 0
3, 266400, Note_on_c, 1, 71, 79
3, 266640, Note_on_c, 1, 71, 0
3, 266640, Note_on_c, 1, 71, 79
3, 266880, Note_on_c, 1, 71, 0
3, 266880, Note_on_c, 1, 69, 79
3, 267120, Note_on_c, 1, 69, 0
3, 267120, Note_on_c, 1, 72, 79
3, 267360, Note_on_c, 1, 72, 0
3, 267360, Note_on_c, 1, 71, 79
3, 267600, Note_on_c, 1, 71, 0
3, 267600, Note_on_c, 1, 67, 79
3, 267840, Note_on_c, 1, 67, 0
3, 267840, Note_on_c, 1, 66, 79
3, 268080, Note_on_c, 1, 66, 0
3, 268080, Note_on_c, 1, 69, 79
3, 268320, Note_on_c, 1, 69, 0
3, 268320, Note_on_c, 1, 67, 79
3, 268560, Note_on_c, 1, 67, 0
3, 269280, Note_on_c, 1, 71, 79
3, 270240, Note_on_c, 1, 71, 0
3, 270240, Note_on_c, 1, 74, 79
3, 271200, Note_on_c, 1, 74, 0
3, 271200, Note_on_c, 1, 72, 79
3, 271260, Note_on_c, 1, 72, 0
3, 271260, Note_on_c, 1, 71, 79
3, 271320, Note_on_c, 1, 71, 0
3, 271320, Note_on_c, 1, 71, 79
3, 271680, Note_on_c, 1, 71, 0
3, 271680, Note_on_c, 1, 69, 79
3, 271920, Note_on_c, 1, 69, 0
3, 271920, Note_on_c, 1, 67, 79
3, 272160, Note_on_c, 1, 67, 0
3, 272160, Note_on_c, 1, 74, 79
3, 272640, Note_on_c, 1, 74, 0
3, 272640, Note_on_c, 1, 62, 79
3, 273120, Note_on_c, 1, 62, 0
3, 273120, Note_on_c, 1, 67, 79
3, 273240, Note_on_c, 1, 67, 0
3, 273240, Note_on_c, 1, 62, 79
3, 273360, Note_on_c, 1, 62, 0
3, 273360, Note_on_c, 1, 62, 79
3, 273480, Note_on_c, 1, 62, 0
3, 273480, Note_on_c, 1, 62, 79
3, 273600, Note_on_c, 1, 62, 0
3, 273600, Note_on_c, 1, 62, 79
3, 273720, Note_on_c, 1, 62, 0
3, 273720, Note_on_c, 1, 62, 79
3, 273840, Note_on_c, 1, 62, 0
3, 273840, Note_on_c, 1, 62, 79
3, 273960, Note_on_c, 1, 62, 0
3, 273960, Note_on_c, 1, 62, 79
3, 274080, Note_on_c, 1, 62, 0
3, 274080, Note_on_c, 1, 62, 79
3, 275040, Note_on_c, 1, 62, 0
3, 275040, Note_on_c, 1, 62, 79
3, 276000, Note_on_c, 1, 62, 0
3, 276000, Note_on_c, 1, 66, 79
3, 276960, Note_on_c, 1, 66, 0
3, 276960, Note_on_c, 1, 67, 79
3, 277080, Note_on_c, 1, 67, 0
3, 277080, Note_on_c, 1, 62, 79
3, 277200, Note_on_c, 1, 62, 0
3, 277200, Note_on_c, 1, 62, 79
3, 277320, Note_on_c, 1, 62, 0
3, 277320, Note_on_c, 1, 62, 79
3, 277440, Note_on_c, 1, 62, 0
3, 277440, Note_on_c, 1, 62, 79
3, 277560, Note_on_c, 1, 62, 0
3, 277560, Note_on_c, 1, 62, 79
3, 277680, Note_on_c, 1, 62, 0
3, 277680, Note_on_c, 1, 62, 79
3, 277800, Note_on_c, 1, 62, 0
3, 277800, Note_on_c, 1, 62, 79
3, 277920, Note_on_c, 1, 62, 0
3, 277920, Note_on_c, 1, 62, 79
3, 278880, Note_on_c, 1, 62, 0
3, 278880, Note_on_c, 1, 62, 79
3, 279840, Note_on_c, 1, 62, 0
3, 279840, Note_on_c, 1, 66, 79
3, 280800, Note_on_c, 1, 66, 0
3, 280800, Note_on_c, 1, 67, 79
3, 281040, Note_on_c, 1, 67, 0
3, 281040, Note_on_c, 1, 55, 79
3, 281280, Note_on_c, 1, 55, 0
3, 281280, Note_on_c, 1, 57, 79
3, 281520, Note_on_c, 1, 57, 0
3, 281520, Note_on_c, 1, 59, 79
3, 281760, Note_on_c, 1, 59, 0
3, 281760, Note_on_c, 1, 60, 79
3, 282000, Note_on_c, 1, 60, 0
3, 282000, Note_on_c, 1, 62, 79
3, 282240, Note_on_c, 1, 62, 0
3, 282240, Note_on_c, 1, 64, 79
3, 282480, Note_on_c, 1, 64, 0
3, 282480, Note_on_c, 1, 66, 79
3, 282720, Note_on_c, 1, 66, 0
3, 282720, Note_on_c, 1, 67, 79
3, 282960, Note_on_c, 1, 67, 0
3, 282960, Note_on_c, 1, 66, 79
3, 283200, Note_on_c, 1, 66, 0
3, 283200, Note_on_c, 1, 64, 79
3, 283440, Note_on_c, 1, 64, 0
3, 283440, Note_on_c, 1, 62, 79
3, 283680, Note_on_c, 1, 62, 0
3, 283680, Note_on_c, 1, 60, 79
3, 283920, Note_on_c, 1, 60, 0
3, 283920, Note_on_c, 1, 59, 79
3, 284160, Note_on_c, 1, 59, 0
3, 284160, Note_on_c, 1, 57, 79
3, 284400, Note_on_c, 1, 57, 0
3, 284400, Note_on_c, 1, 55, 79
3, 284640, Note_on_c, 1, 55, 0
3, 284640, Note_on_c, 1, 62, 79
3, 285120, Note_on_c, 1, 62, 0
3, 285120, Note_on_c, 1, 69, 79
3, 285600, Note_on_c, 1, 69, 0
3, 285600, Note_on_c, 1, 69, 79
3, 286080, Note_on_c, 1, 69, 0
3, 288480, Note_on_c, 1, 67, 79
3, 289440, Note_on_c, 1, 67, 0
3, 289440, Note_on_c, 1, 71, 79
3, 289920, Note_on_c, 1, 71, 0
3, 289920, Note_on_c, 1, 74, 79
3, 290400, Note_on_c, 1, 74, 0
3, 290400, Note_on_c, 1, 79, 79
3, 290880, Note_on_c, 1, 79, 0
3, 290880, Note_on_c, 1, 79, 79
3, 291840, Note_on_c, 1, 79, 0
3, 291840, Note_on_c, 1, 81, 79
3, 292080, Note_on_c, 1, 81, 0
3, 292080, Note_on_c, 1, 78, 79
3, 292320, Note_on_c, 1, 78, 0
3, 292320, Note_on_c, 1, 79, 79
3, 292800, Note_on_c, 1, 79, 0
3, 292800, Note_on_c, 1, 67, 79
3, 293760, Note_on_c, 1, 67, 0
3, 293760, Note_on_c, 1, 69, 79
3, 294000, Note_on_c, 1, 69, 0
3, 294000, Note_on_c, 1, 66, 79
3, 294240, Note_on_c, 1, 66, 0
3, 294240, Note_on_c, 1, 67, 79
3, 294720, Note_on_c, 1, 67, 0
3, 297120, Note_on_c, 1, 79, 79
3, 297240, Note_on_c, 1, 79, 0
3, 297240, Note_on_c, 1, 74, 79
3, 297360, Note_on_c, 1, 74, 0
3, 297360, Note_on_c, 1, 76, 79
3, 297480, Note_on_c, 1, 76, 0
3, 297480, Note_on_c, 1, 74, 79
3, 297600, Note_on_c, 1, 74, 0
3, 297600, Note_on_c, 1, 79, 79
3, 297720, Note_on_c, 1, 79, 0
3, 297720, Note_on_c, 1, 74, 79
3, 297840, Note_on_c, 1, 74, 0
3, 297840, Note_on_c, 1, 76, 79
3, 297960, Note_on_c, 1, 76, 0
3, 297960, Note_on_c, 1, 74, 79
3, 298080, Note_on_c, 1, 74, 0
3, 298080, Note_on_c, 1, 86, 79
3, 300000, Note_on_c, 1, 86, 0
3, 300000, Note_on_c, 1, 86, 79
3, 300240, Note_on_c, 1, 86, 0
3, 300960, Note_on_c, 1, 79, 79
3, 301080, Note_on_c, 1, 79, 0
3, 301080, Note_on_c, 1, 74, 79
3, 301200, Note_on_c, 1, 74, 0
3, 301200, Note_on_c, 1, 76, 79
3, 301320, Note_on_c, 1, 76, 0
3, 301320, Note_on_c, 1, 74, 79
3, 301440, Note_on_c, 1, 74, 0
3, 301440, Note_on_c, 1, 79, 79
3, 301560, Note_on_c, 1, 79, 0
3, 301560, Note_on_c, 1, 74, 79
3, 301680, Note_on_c, 1, 74, 0
3, 301680, Note_on_c, 1, 76, 79
3, 301800, Note_on_c, 1, 76, 0
3, 301800, Note_on_c, 1, 74, 79
3, 301920, Note_on_c, 1, 74, 0
3, 301920, Note_on_c, 1, 86, 79
3, 303840, Note_on_c, 1, 86, 0
3, 303840, Note_on_c, 1, 86, 79
3, 303960, Note_on_c, 1, 86, 0
3, 303960, Note_on_c, 1, 79, 79
3, 304080, Note_on_c, 1, 79, 0
3, 304080, Note_on_c, 1, 78, 79
3, 304200, Note_on_c, 1, 78, 0
3, 304200, Note_on_c, 1, 79, 79
3, 304320, Note_on_c, 1, 79, 0
3, 304320, Note_on_c, 1, 77, 79
3, 304440, Note_on_c, 1, 77, 0
3, 304440, Note_on_c, 1, 79, 79
3, 304560, Note_on_c, 1, 79, 0
3, 304560, Note_on_c, 1, 76, 79
3, 304680, Note_on_c, 1, 76, 0
3, 304680, Note_on_c, 1, 79, 79
3, 304800, Note_on_c, 1, 79, 0
3, 304800, Note_on_c, 1, 74, 79
3, 304920, Note_on_c, 1, 74, 0
3, 304920, Note_on_c, 1, 79, 79
3, 305040, Note_on_c, 1, 79, 0
3, 305040, Note_on_c, 1, 77, 79
3, 305160, Note_on_c, 1, 77, 0
3, 305160, Note_on_c, 1, 79, 79
3, 305280, Note_on_c, 1, 79, 0
3, 305280, Note_on_c, 1, 76, 79
3, 305400, Note_on_c, 1, 76, 0
3, 305400, Note_on_c, 1, 79, 79
3, 305520, Note_on_c, 1, 79, 0
3, 305520, Note_on_c, 1, 74, 79
3, 305640, Note_on_c, 1, 74, 0
3, 305640, Note_on_c, 1, 79, 79
3, 305760, Note_on_c, 1, 79, 0
3, 305760, Note_on_c, 1, 76, 79
3, 306240, Note_on_c, 1, 76, 0
3, 306840, Note_on_c, 1, 72, 79
3, 306960, Note_on_c, 1, 72, 0
3, 306960, Note_on_c, 1, 74, 79
3, 307080, Note_on_c, 1, 74, 0
3, 307080, Note_on_c, 1, 76, 79
3, 307200, Note_on_c, 1, 76, 0
3, 307200, Note_on_c, 1, 77, 79
3, 307320, Note_on_c, 1, 77, 0
3, 307320, Note_on_c, 1, 79, 79
3, 307440, Note_on_c, 1, 79, 0
3, 307440, Note_on_c, 1, 81, 79
3, 307560, Note_on_c, 1, 81, 0
3, 307560, Note_on_c, 1, 83, 79
3, 307680, Note_on_c, 1, 83, 0
3, 307680, Note_on_c, 1, 84, 79
3, 308640, Note_on_c, 1, 84, 0
3, 308640, Note_on_c, 1, 83, 79
3, 309120, Note_on_c, 1, 83, 0
3, 309120, Note_on_c, 1, 81, 79
3, 309600, Note_on_c, 1, 81, 0
3, 309600, Note_on_c, 1, 79, 79
3, 310320, Note_on_c, 1, 79, 0
3, 310320, Note_on_c, 1, 81, 79
3, 310440, Note_on_c, 1, 81, 0
3, 310440, Note_on_c, 1, 83, 79
3, 310560, Note_on_c, 1, 83, 0
3, 310560, Note_on_c, 1, 71, 79
3, 311040, Note_on_c, 1, 71, 0
3, 311040, Note_on_c, 1, 69, 79
3, 311520, Note_on_c, 1, 69, 0
3, 311520, Note_on_c, 1, 67, 79
3, 312000, Note_on_c, 1, 67, 0
3, 313560, Note_on_c, 1, 60, 79
3, 313680, Note_on_c, 1, 60, 0
3, 313680, Note_on_c, 1, 62, 79
3, 313800, Note_on_c, 1, 62, 0
3, 313800, Note_on_c, 1, 64, 79
3, 313920, Note_on_c, 1, 64, 0
3, 313920, Note_on_c, 1, 65, 79
3, 314040, Note_on_c, 1, 65, 0
3, 314040, Note_on_c, 1, 67, 79
3, 314160, Note_on_c, 1, 67, 0
3, 314160, Note_on_c, 1, 69, 79
3, 314280, Note_on_c, 1, 69, 0
3, 314280, Note_on_c, 1, 71, 79
3, 314400, Note_on_c, 1, 71, 0
3, 314400, Note_on_c, 1, 72, 79
3, 314520, Note_on_c, 1, 72, 0
3, 314520, Note_on_c, 1, 76, 79
3, 314640, Note_on_c, 1, 76, 0
3, 314640, Note_on_c, 1, 77, 79
3, 314760, Note_on_c, 1, 77, 0
3, 314760, Note_on_c, 1, 79, 79
3, 314880, Note_on_c, 1, 79, 0
3, 314880, Note_on_c, 1, 81, 79
3, 315000, Note_on_c, 1, 81, 0
3, 315000, Note_on_c, 1, 83, 79
3, 315120, Note_on_c, 1, 83, 0
3, 315120, Note_on_c, 1, 84, 79
3, 315240, Note_on_c, 1, 84, 0
3, 315240, Note_on_c, 1, 86, 79
3, 315360, Note_on_c, 1, 86, 0
3, 315360, Note_on_c, 1, 88, 79
3, 316320, Note_on_c, 1, 88, 0
3, 316320, Note_on_c, 1, 86, 79
3, 316800, Note_on_c, 1, 86, 0
3, 316800, Note_on_c, 1, 84, 79
3, 317280, Note_on_c, 1, 84, 0
3, 317280, Note_on_c, 1, 83, 79
3, 318000, Note_on_c, 1, 83, 0
3, 318000, Note_on_c, 1, 84, 79
3, 318120, Note_on_c, 1, 84, 0
3, 318120, Note_on_c, 1, 86, 79
3, 318240, Note_on_c, 1, 86, 0
3, 318240, Note_on_c, 1, 71, 79
3, 318720, Note_on_c, 1, 71, 0
3, 318720, Note_on_c, 1, 69, 79
3, 319200, Note_on_c, 1, 69, 0
3, 319200, Note_on_c, 1, 67, 79
3, 319680, Note_on_c, 1, 67, 0
3, 319680, Note_on_c, 1, 55, 79
3, 320640, Note_on_c, 1, 55, 0
3, 320640, Note_on_c, 1, 60, 79
3, 321120, Note_on_c, 1, 60, 0
3, 321120, Note_on_c, 1, 59, 79
3, 321600, Note_on_c, 1, 59, 0
3, 321600, Note_on_c, 1, 66, 79
3, 321720, Note_on_c, 1, 66, 0
3, 321720, Note_on_c, 1, 64, 79
3, 321840, Note_on_c, 1, 64, 0
3, 321840, Note_on_c, 1, 62, 79
3, 321960, Note_on_c, 1, 62, 0
3, 321960, Note_on_c, 1, 60, 79
3, 322080, Note_on_c, 1, 60, 0
3, 322080, Note_on_c, 1, 62, 79
3, 322320, Note_on_c, 1, 62, 0
3, 322320, Note_on_c, 1, 59, 79
3, 322560, Note_on_c, 1, 59, 0
3, 322560, Note_on_c, 1, 60, 79
3, 323040, Note_on_c, 1, 60, 0
3, 323040, Note_on_c, 1, 59, 79
3, 323520, Note_on_c, 1, 59, 0
3, 323520, Note_on_c, 1, 71, 79
3, 324000, Note_on_c, 1, 71, 0
3, 324000, Note_on_c, 1, 71, 79
3, 324480, Note_on_c, 1, 71, 0
3, 324960, Note_on_c, 1, 67, 79
3, 325200, Note_on_c, 1, 67, 0
3, 325440, Note_on_c, 1, 71, 79
3, 325680, Note_on_c, 1, 71, 0
3, 325920, Note_on_c, 1, 67, 79
3, 326160, Note_on_c, 1, 67, 0
3, 326400, Note_on_c, 1, 66, 79
3, 326640, Note_on_c, 1, 66, 0
3, 326880, Note_on_c, 1, 69, 79
3, 327120, Note_on_c, 1, 69, 0
3, 327360, Note_on_c, 1, 62, 79
3, 327600, Note_on_c, 1, 62, 0
3, 327840, Note_on_c, 1, 67, 79
3, 328080, Note_on_c, 1, 67, 0
3, 328320, Note_on_c, 1, 64, 79
3, 328560, Note_on_c, 1, 64, 0
3, 328800, Note_on_c, 1, 60, 79
3, 329040, Note_on_c, 1, 60, 0
3, 329280, Note_on_c, 1, 62, 79
3, 330720, Note_on_c, 1, 62, 0
3, 330720, Note_on_c, 1, 67, 79
3, 331200, Note_on_c, 1, 67, 0
3, 331200, Note_on_c, 1, 69, 79
3, 331680, Note_on_c, 1, 69, 0
3, 331680, Note_on_c, 1, 71, 79
3, 332160, Note_on_c, 1, 71, 0
3, 332160, Note_on_c, 1, 72, 79
3, 332400, Note_on_c, 1, 72, 0
3, 332640, Note_on_c, 1, 69, 79
3, 333120, Note_on_c, 1, 69, 0
3, 333120, Note_on_c, 1, 67, 79
3, 333600, Note_on_c, 1, 67, 0
3, 333600, Note_on_c, 1, 64, 79
3, 333840, Note_on_c, 1, 64, 0
3, 334080, Note_on_c, 1, 62, 79
3, 334320, Note_on_c, 1, 62, 0
3, 334560, Note_on_c, 1, 60, 79
3, 334800, Note_on_c, 1, 60, 0
3, 335040, Note_on_c, 1, 59, 79
3, 336000, Note_on_c, 1, 59, 0
3, 336480, Note_on_c, 1, 67, 79
3, 336720, Note_on_c, 1, 67, 0
3, 336960, Note_on_c, 1, 71, 79
3, 337200, Note_on_c, 1, 71, 0
3, 337440, Note_on_c, 1, 67, 79
3, 337680, Note_on_c, 1, 67, 0
3, 337920, Note_on_c, 1, 66, 79
3, 338160, Note_on_c, 1, 66, 0
3, 338400, Note_on_c, 1, 69, 79
3, 338640, Note_on_c, 1, 69, 0
3, 338880, Note_on_c, 1, 62, 79
3, 339120, Note_on_c, 1, 62, 0
3, 339360, Note_on_c, 1, 67, 79
3, 339600, Note_on_c, 1, 67, 0
3, 339840, Note_on_c, 1, 64, 79
3, 340080, Note_on_c, 1, 64, 0
3, 340320, Note_on_c, 1, 60, 79
3, 340560, Note_on_c, 1, 60, 0
3, 340800, Note_on_c, 1, 62, 79
3, 342240, Note_on_c, 1, 62, 0
3, 342240, Note_on_c, 1, 67, 79
3, 342720, Note_on_c, 1, 67, 0
3, 342720, Note_on_c, 1, 69, 79
3, 343200, Note_on_c, 1, 69, 0
3, 343200, Note_on_c, 1, 71, 79
3, 343680, Note_on_c, 1, 71, 0
3, 343680, Note_on_c, 1, 72, 79
3, 343920, Note_on_c, 1, 72, 0
3, 344160, Note_on_c, 1, 69, 79
3, 344640, Note_on_c, 1, 69, 0
3, 344640, Note_on_c, 1, 67, 79
3, 345120, Note_on_c, 1, 67, 0
3, 345120, Note_on_c, 1, 64, 79
3, 345360, Note_on_c, 1, 64, 0
3, 345600, Note_on_c, 1, 62, 79
3, 345840, Note_on_c, 1, 62, 0
3, 346080, Note_on_c, 1, 60, 79
3, 346320, Note_on_c, 1, 60, 0
3, 346560, Note_on_c, 1, 59, 79
3, 347520, Note_on_c, 1, 59, 0
3, 348000, Note_on_c, 1, 71, 79
3, 348048, Control_c, 1, 7, 108
3, 348240, Note_on_c, 1, 71, 0
3, 348240, Note_on_c, 1, 72, 79
3, 348480, Note_on_c, 1, 72, 0
3, 348480, Note_on_c, 1, 69, 79
3, 348960, Note_on_c, 1, 69, 0
3, 349392, Control_c, 1, 7, 104
3, 349440, Note_on_c, 1, 67, 79
3, 349680, Note_on_c, 1, 67, 0
3, 349680, Note_on_c, 1, 69, 79
3, 349920, Note_on_c, 1, 69, 0
3, 349920, Note_on_c, 1, 66, 79
3, 350400, Note_on_c, 1, 66, 0
3, 350832, Control_c, 1, 7, 108
3, 350880, Note_on_c, 1, 64, 79
3, 351360, Note_on_c, 1, 64, 0
3, 351360, Note_on_c, 1, 67, 79
3, 351528, Control_c, 1, 7, 84
3, 351840, Note_on_c, 1, 67, 0
3, 351840, Note_on_c, 1, 71, 79
3, 352224, Control_c, 1, 7, 82
3, 352320, Note_on_c, 1, 71, 0
3, 352320, Note_on_c, 1, 62, 79
3, 352464, Control_c, 1, 7, 64
3, 353280, Note_on_c, 1, 62, 0
3, 353280, Note_on_c, 1, 61, 79
3, 353760, Note_on_c, 1, 61, 0
3, 353760, Note_on_c, 1, 62, 79
3, 354240, Note_on_c, 1, 62, 0
3, 354240, Note_on_c, 1, 64, 79
3, 354720, Note_on_c, 1, 64, 0
3, 354720, Note_on_c, 1, 66, 79
3, 355200, Note_on_c, 1, 66, 0
3, 355200, Note_on_c, 1, 67, 79
3, 355680, Note_on_c, 1, 67, 0
3, 355680, Note_on_c, 1, 69, 79
3, 356160, Note_on_c, 1, 69, 0
3, 356160, Note_on_c, 1, 71, 79
3, 356640, Note_on_c, 1, 71, 0
3, 356640, Note_on_c, 1, 69, 79
3, 356880, Note_on_c, 1, 69, 0
3, 357120, Note_on_c, 1, 66, 79
3, 357360, Note_on_c, 1, 66, 0
3, 357360, Note_on_c, 1, 62, 79
3, 357600, Note_on_c, 1, 62, 0
3, 357600, Note_on_c, 1, 64, 79
3, 357840, Note_on_c, 1, 64, 0
3, 357840, Note_on_c, 1, 61, 79
3, 358080, Note_on_c, 1, 61, 0
3, 358080, Note_on_c, 1, 62, 79
3, 358320, Note_on_c, 1, 62, 0
3, 358560, Note_on_c, 1, 66, 79
3, 358800, Note_on_c, 1, 66, 0
3, 358944, Control_c, 1, 7, 63
3, 359040, Note_on_c, 1, 69, 79
3, 359280, Note_on_c, 1, 69, 0
3, 359520, Note_on_c, 1, 72, 79
3, 360480, Note_on_c, 1, 72, 0
3, 360480, Note_on_c, 1, 71, 79
3, 360960, Note_on_c, 1, 71, 0
3, 360960, Note_on_c, 1, 66, 79
3, 361920, Note_on_c, 1, 66, 0
3, 361920, Note_on_c, 1, 67, 79
3, 362160, Note_on_c, 1, 67, 0
3, 362880, Note_on_c, 1, 69, 79
3, 363120, Note_on_c, 1, 69, 0
3, 363360, Note_on_c, 1, 69, 79
3, 363600, Note_on_c, 1, 69, 0
3, 363840, Note_on_c, 1, 69, 79
3, 365280, Note_on_c, 1, 69, 0
3, 365280, Control_c, 1, 7, 100
3, 365280, Note_on_c, 1, 67, 79
3, 365520, Note_on_c, 1, 67, 0
3, 365760, Note_on_c, 1, 71, 79
3, 366000, Note_on_c, 1, 71, 0
3, 366240, Note_on_c, 1, 67, 79
3, 366480, Note_on_c, 1, 67, 0
3, 366720, Note_on_c, 1, 66, 79
3, 366960, Note_on_c, 1, 66, 0
3, 367200, Note_on_c, 1, 69, 79
3, 367440, Note_on_c, 1, 69, 0
3, 367680, Note_on_c, 1, 62, 79
3, 367920, Note_on_c, 1, 62, 0
3, 368160, Note_on_c, 1, 67, 79
3, 368400, Note_on_c, 1, 67, 0
3, 368640, Note_on_c, 1, 67, 79
3, 368880, Note_on_c, 1, 67, 0
3, 369120, Note_on_c, 1, 60, 79
3, 369360, Note_on_c, 1, 60, 0
3, 369600, Note_on_c, 1, 62, 79
3, 371040, Note_on_c, 1, 62, 0
3, 371040, Note_on_c, 1, 67, 79
3, 371280, Note_on_c, 1, 67, 0
3, 371520, Note_on_c, 1, 69, 79
3, 371760, Note_on_c, 1, 69, 0
3, 372000, Note_on_c, 1, 71, 79
3, 372240, Note_on_c, 1, 71, 0
3, 372480, Note_on_c, 1, 72, 79
3, 372720, Note_on_c, 1, 72, 0
3, 372960, Note_on_c, 1, 69, 79
3, 373440, Note_on_c, 1, 69, 0
3, 373440, Note_on_c, 1, 67, 79
3, 373920, Note_on_c, 1, 67, 0
3, 373920, Note_on_c, 1, 64, 79
3, 374160, Note_on_c, 1, 64, 0
3, 374400, Note_on_c, 1, 59, 79
3, 374640, Note_on_c, 1, 59, 0
3, 374880, Note_on_c, 1, 57, 79
3, 375120, Note_on_c, 1, 57, 0
3, 375360, Note_on_c, 1, 59, 79
3, 376320, Note_on_c, 1, 59, 0
3, 376800, Control_c, 1, 7, 106
3, 376800, Note_on_c, 1, 71, 36
3, 377040, Note_on_c, 1, 71, 0
3, 377040, Note_on_c, 1, 72, 36
3, 377280, Note_on_c, 1, 72, 0
3, 377280, Note_on_c, 1, 69, 36
3, 377760, Note_on_c, 1, 69, 0
3, 378191, Control_c, 1, 7, 52
3, 378240, Note_on_c, 1, 67, 36
3, 378288, Control_c, 1, 7, 106
3, 378480, Note_on_c, 1, 67, 0
3, 378480, Note_on_c, 1, 69, 36
3, 378720, Note_on_c, 1, 69, 0
3, 378720, Note_on_c, 1, 66, 36
3, 379200, Note_on_c, 1, 66, 0
3, 379583, Control_c, 1, 7, 54
3, 379680, Note_on_c, 1, 64, 36
3, 379680, Control_c, 1, 7, 106
3, 380160, Note_on_c, 1, 64, 0
3, 380160, Note_on_c, 1, 67, 36
3, 380224, Control_c, 1, 7, 89
3, 380640, Note_on_c, 1, 67, 0
3, 380640, Note_on_c, 1, 71, 36
3, 380768, Control_c, 1, 7, 72
3, 381120, Note_on_c, 1, 71, 0
3, 381120, Note_on_c, 1, 62, 36
3, 381311, Control_c, 1, 7, 56
3, 381360, Control_c, 1, 7, 64
3, 382080, Note_on_c, 1, 62, 0
3, 382080, Note_on_c, 1, 61, 36
3, 382560, Note_on_c, 1, 61, 0
3, 382560, Note_on_c, 1, 62, 36
3, 383040, Note_on_c, 1, 62, 0
3, 383040, Note_on_c, 1, 64, 36
3, 383520, Note_on_c, 1, 64, 0
3, 383520, Note_on_c, 1, 66, 36
3, 384000, Note_on_c, 1, 66, 0
3, 384000, Note_on_c, 1, 67, 36
3, 384480, Note_on_c, 1, 67, 0
3, 384480, Note_on_c, 1, 69, 36
3, 384960, Note_on_c, 1, 69, 0
3, 384960, Note_on_c, 1, 71, 36
3, 385440, Note_on_c, 1, 71, 0
3, 385440, Note_on_c, 1, 69, 36
3, 385920, Note_on_c, 1, 69, 0
3, 385920, Note_on_c, 1, 66, 36
3, 386160, Note_on_c, 1, 66, 0
3, 386160, Note_on_c, 1, 62, 36
3, 386400, Note_on_c, 1, 62, 0
3, 386400, Note_on_c, 1, 64, 36
3, 386640, Note_on_c, 1, 64, 0
3, 386640, Note_on_c, 1, 61, 36
3, 386880, Note_on_c, 1, 61, 0
3, 386880, Note_on_c, 1, 62, 36
3, 387360, Note_on_c, 1, 62, 0
3, 387360, Note_on_c, 1, 66, 36
3, 387840, Note_on_c, 1, 66, 0
3, 387840, Note_on_c, 1, 69, 36
3, 388320, Note_on_c, 1, 69, 0
3, 388320, Note_on_c, 1, 72, 36
3, 389280, Note_on_c, 1, 72, 0
3, 389280, Note_on_c, 1, 71, 36
3, 389760, Note_on_c, 1, 71, 0
3, 389760, Note_on_c, 1, 66, 36
3, 390720, Note_on_c, 1, 66, 0
3, 390720, Note_on_c, 1, 67, 36
3, 391200, Note_on_c, 1, 67, 0
3, 391680, Note_on_c, 1, 69, 36
3, 392160, Note_on_c, 1, 69, 0
3, 392160, Note_on_c, 1, 69, 36
3, 392640, Note_on_c, 1, 69, 0
3, 392640, Note_on_c, 1, 69, 36
3, 394080, Note_on_c, 1, 69, 0
3, 394080, Note_on_c, 1, 67, 79
3, 394176, Control_c, 1, 7, 98
3, 394560, Note_on_c, 1, 67, 0
3, 394560, Note_on_c, 1, 71, 79
3, 395040, Note_on_c, 1, 71, 0
3, 395040, Note_on_c, 1, 67, 79
3, 395520, Note_on_c, 1, 67, 0
3, 395520, Note_on_c, 1, 66, 79
3, 396000, Note_on_c, 1, 66, 0
3, 396000, Note_on_c, 1, 69, 79
3, 396480, Note_on_c, 1, 69, 0
3, 396480, Note_on_c, 1, 62, 79
3, 396960, Note_on_c, 1, 62, 0
3, 396960, Note_on_c, 1, 67, 79
3, 397440, Note_on_c, 1, 67, 0
3, 397440, Note_on_c, 1, 64, 79
3, 397920, Note_on_c, 1, 64, 0
3, 397920, Note_on_c, 1, 60, 79
3, 398400, Note_on_c, 1, 60, 0
3, 398400, Note_on_c, 1, 62, 79
3, 399840, Note_on_c, 1, 62, 0
3, 399840, Note_on_c, 1, 67, 79
3, 399888, Control_c, 1, 7, 98
3, 400320, Note_on_c, 1, 67, 0
3, 400320, Note_on_c, 1, 69, 79
3, 400800, Note_on_c, 1, 69, 0
3, 400800, Note_on_c, 1, 71, 79
3, 401280, Note_on_c, 1, 71, 0
3, 401280, Note_on_c, 1, 72, 79
3, 401760, Note_on_c, 1, 72, 0
3, 401760, Note_on_c, 1, 69, 79
3, 402240, Note_on_c, 1, 69, 0
3, 402240, Note_on_c, 1, 67, 79
3, 402720, Note_on_c, 1, 67, 0
3, 402720, Note_on_c, 1, 64, 79
3, 403200, Note_on_c, 1, 64, 0
3, 403200, Note_on_c, 1, 59, 79
3, 403680, Note_on_c, 1, 59, 0
3, 403680, Note_on_c, 1, 57, 79
3, 404160, Note_on_c, 1, 57, 0
3, 404160, Note_on_c, 1, 59, 79
3, 405120, Note_on_c, 1, 59, 0
3, 405599, Control_c, 1, 7, 60
3, 405600, Note_on_c, 1, 67, 36
3, 406080, Note_on_c, 1, 67, 0
3, 406080, Note_on_c, 1, 67, 36
3, 406560, Note_on_c, 1, 67, 0
3, 406560, Note_on_c, 1, 67, 36
3, 407040, Note_on_c, 1, 67, 0
3, 407040, Note_on_c, 1, 67, 36
3, 407520, Note_on_c, 1, 67, 0
3, 407520, Note_on_c, 1, 67, 36
3, 408000, Note_on_c, 1, 67, 0
3, 408000, Note_on_c, 1, 67, 36
3, 408480, Note_on_c, 1, 67, 0
3, 408480, Note_on_c, 1, 64, 36
3, 408960, Note_on_c, 1, 64, 0
3, 408960, Note_on_c, 1, 64, 36
3, 409440, Note_on_c, 1, 64, 0
3, 409440, Note_on_c, 1, 64, 36
3, 409920, Note_on_c, 1, 64, 0
3, 409920, Note_on_c, 1, 64, 36
3, 410400, Note_on_c, 1, 64, 0
3, 410400, Note_on_c, 1, 64, 36
3, 410880, Note_on_c, 1, 64, 0
3, 410880, Note_on_c, 1, 64, 36
3, 411360, Note_on_c, 1, 64, 0
3, 411360, Note_on_c, 1, 60, 36
3, 411840, Note_on_c, 1, 60, 0
3, 411840, Note_on_c, 1, 60, 36
3, 412320, Note_on_c, 1, 60, 0
3, 412320, Note_on_c, 1, 60, 36
3, 412800, Note_on_c, 1, 60, 0
3, 412800, Note_on_c, 1, 60, 36
3, 413280, Note_on_c, 1, 60, 0
3, 413280, Note_on_c, 1, 60, 36
3, 413760, Note_on_c, 1, 60, 0
3, 413760, Note_on_c, 1, 60, 36
3, 414240, Note_on_c, 1, 60, 0
3, 414240, Note_on_c, 1, 60, 36
3, 414720, Note_on_c, 1, 60, 0
3, 414960, Note_on_c, 1, 69, 36
3, 415200, Note_on_c, 1, 69, 0
3, 415200, Note_on_c, 1, 67, 36
3, 415440, Note_on_c, 1, 67, 0
3, 415440, Note_on_c, 1, 65, 36
3, 415680, Note_on_c, 1, 65, 0
3, 415680, Note_on_c, 1, 65, 36
3, 415920, Note_on_c, 1, 65, 0
3, 415920, Note_on_c, 1, 64, 36
3, 416640, Note_on_c, 1, 64, 0
3, 417120, Note_on_c, 1, 67, 36
3, 417600, Note_on_c, 1, 67, 0
3, 417600, Note_on_c, 1, 67, 36
3, 418080, Note_on_c, 1, 67, 0
3, 418080, Note_on_c, 1, 67, 36
3, 418560, Note_on_c, 1, 67, 0
3, 418560, Note_on_c, 1, 67, 36
3, 419040, Note_on_c, 1, 67, 0
3, 419040, Note_on_c, 1, 67, 36
3, 419520, Note_on_c, 1, 67, 0
3, 419520, Note_on_c, 1, 67, 36
3, 420000, Note_on_c, 1, 67, 0
3, 420000, Note_on_c, 1, 64, 36
3, 420480, Note_on_c, 1, 64, 0
3, 420480, Note_on_c, 1, 64, 36
3, 420960, Note_on_c, 1, 64, 0
3, 420960, Note_on_c, 1, 64, 36
3, 421440, Note_on_c, 1, 64, 0
3, 421440, Note_on_c, 1, 64, 36
3, 421920, Note_on_c, 1, 64, 0
3, 421920, Note_on_c, 1, 64, 36
3, 422400, Note_on_c, 1, 64, 0
3, 422400, Note_on_c, 1, 64, 36
3, 422880, Note_on_c, 1, 64, 0
3, 422880, Note_on_c, 1, 60, 36
3, 423360, Note_on_c, 1, 60, 0
3, 423360, Note_on_c, 1, 60, 36
3, 423840, Note_on_c, 1, 60, 0
3, 423840, Note_on_c, 1, 60, 36
3, 424320, Note_on_c, 1, 60, 0
3, 424320, Note_on_c, 1, 60, 36
3, 424800, Note_on_c, 1, 60, 0
3, 424800, Note_on_c, 1, 60, 36
3, 425280, Note_on_c, 1, 60, 0
3, 425280, Note_on_c, 1, 60, 36
3, 425760, Note_on_c, 1, 60, 0
3, 425760, Note_on_c, 1, 60, 36
3, 426240, Note_on_c, 1, 60, 0
3, 426480, Note_on_c, 1, 69, 36
3, 426720, Note_on_c, 1, 69, 0
3, 426720, Note_on_c, 1, 67, 36
3, 426960, Note_on_c, 1, 67, 0
3, 426960, Note_on_c, 1, 65, 36
3, 427200, Note_on_c, 1, 65, 0
3, 427200, Note_on_c, 1, 65, 36
3, 427440, Note_on_c, 1, 65, 0
3, 427440, Note_on_c, 1, 64, 36
3, 428160, Note_on_c, 1, 64, 0
3, 428520, Control_c, 1, 7, 110
3, 428640, Note_on_c, 1, 79, 79
3, 428940, Control_c, 1, 7, 109
3, 429360, Note_on_c, 1, 79, 0
3, 429360, Note_on_c, 1, 78, 79
3, 429360, Control_c, 1, 7, 108
3, 429480, Note_on_c, 1, 78, 0
3, 429480, Note_on_c, 1, 76, 79
3, 429600, Note_on_c, 1, 76, 0
3, 429600, Note_on_c, 1, 74, 79
3, 429780, Control_c, 1, 7, 107
3, 430080, Note_on_c, 1, 74, 0
3, 430080, Note_on_c, 1, 76, 79
3, 430199, Control_c, 1, 7, 106
3, 430800, Note_on_c, 1, 76, 0
3, 430800, Note_on_c, 1, 74, 79
3, 430920, Note_on_c, 1, 74, 0
3, 430920, Note_on_c, 1, 72, 79
3, 431040, Note_on_c, 1, 72, 0
3, 431040, Note_on_c, 1, 71, 79
3, 431520, Note_on_c, 1, 71, 0
3, 431520, Control_c, 1, 7, 60
3, 431520, Note_on_c, 1, 67, 36
3, 432000, Note_on_c, 1, 67, 0
3, 432000, Note_on_c, 1, 67, 36
3, 432480, Note_on_c, 1, 67, 0
3, 432480, Note_on_c, 1, 69, 36
3, 432720, Note_on_c, 1, 69, 0
3, 432720, Note_on_c, 1, 66, 36
3, 432960, Note_on_c, 1, 66, 0
3, 432960, Note_on_c, 1, 67, 36
3, 433440, Note_on_c, 1, 67, 0
3, 433440, Note_on_c, 1, 69, 36
3, 433920, Note_on_c, 1, 69, 0
3, 433920, Note_on_c, 1, 71, 36
3, 434400, Note_on_c, 1, 71, 0
3, 434400, Control_c, 1, 7, 106
3, 435840, Note_on_c, 1, 55, 79
3, 436080, Note_on_c, 1, 55, 0
3, 436080, Note_on_c, 1, 79, 79
3, 436320, Note_on_c, 1, 79, 0
3, 436320, Note_on_c, 1, 78, 79
3, 436560, Note_on_c, 1, 78, 0
3, 436560, Note_on_c, 1, 76, 79
3, 436800, Note_on_c, 1, 76, 0
3, 436800, Note_on_c, 1, 74, 79
3, 437040, Note_on_c, 1, 74, 0
3, 437040, Note_on_c, 1, 72, 79
3, 437280, Note_on_c, 1, 72, 0
3, 437280, Note_on_c, 1, 71, 79
3, 437520, Note_on_c, 1, 71, 0
3, 437520, Note_on_c, 1, 67, 79
3, 437760, Note_on_c, 1, 67, 0
3, 437760, Note_on_c, 1, 76, 79
3, 438240, Note_on_c, 1, 76, 0
3, 438240, Note_on_c, 1, 72, 79
3, 438720, Note_on_c, 1, 72, 0
3, 438720, Note_on_c, 1, 71, 79
3, 439200, Note_on_c, 1, 71, 0
3, 439200, Note_on_c, 1, 55, 79
3, 439680, Note_on_c, 1, 55, 0
3, 439680, Note_on_c, 1, 67, 79
3, 440160, Note_on_c, 1, 67, 0
3, 440160, Control_c, 1, 7, 62
3, 440160, Note_on_c, 1, 67, 36
3, 440640, Note_on_c, 1, 67, 0
3, 440640, Note_on_c, 1, 67, 36
3, 441120, Note_on_c, 1, 67, 0
3, 441120, Note_on_c, 1, 67, 36
3, 441600, Note_on_c, 1, 67, 0
3, 441600, Note_on_c, 1, 67, 36
3, 442080, Note_on_c, 1, 67, 0
3, 442080, Note_on_c, 1, 67, 36
3, 442560, Note_on_c, 1, 67, 0
3, 442560, Note_on_c, 1, 67, 36
3, 443040, Note_on_c, 1, 67, 0
3, 443040, Note_on_c, 1, 64, 36
3, 443520, Note_on_c, 1, 64, 0
3, 443520, Note_on_c, 1, 64, 36
3, 444000, Note_on_c, 1, 64, 0
3, 444000, Note_on_c, 1, 64, 36
3, 444480, Note_on_c, 1, 64, 0
3, 444480, Note_on_c, 1, 64, 36
3, 444960, Note_on_c, 1, 64, 0
3, 444960, Note_on_c, 1, 64, 36
3, 445440, Note_on_c, 1, 64, 0
3, 445440, Note_on_c, 1, 64, 36
3, 445920, Note_on_c, 1, 64, 0
3, 445920, Note_on_c, 1, 60, 36
3, 446400, Note_on_c, 1, 60, 0
3, 446400, Note_on_c, 1, 60, 36
3, 446880, Note_on_c, 1, 60, 0
3, 446880, Note_on_c, 1, 60, 36
3, 447360, Note_on_c, 1, 60, 0
3, 447360, Note_on_c, 1, 60, 36
3, 447840, Note_on_c, 1, 60, 0
3, 447840, Note_on_c, 1, 60, 36
3, 448320, Note_on_c, 1, 60, 0
3, 448320, Note_on_c, 1, 60, 36
3, 448800, Note_on_c, 1, 60, 0
3, 448800, Note_on_c, 1, 60, 36
3, 449280, Note_on_c, 1, 60, 0
3, 449520, Note_on_c, 1, 69, 36
3, 449760, Note_on_c, 1, 69, 0
3, 449760, Note_on_c, 1, 67, 36
3, 450000, Note_on_c, 1, 67, 0
3, 450000, Note_on_c, 1, 65, 36
3, 450240, Note_on_c, 1, 65, 0
3, 450240, Note_on_c, 1, 65, 36
3, 450480, Note_on_c, 1, 65, 0
3, 450480, Note_on_c, 1, 64, 36
3, 451200, Note_on_c, 1, 64, 0
3, 451680, Control_c, 1, 7, 106
3, 451680, Note_on_c, 1, 79, 79
3, 452400, Note_on_c, 1, 79, 0
3, 452400, Note_on_c, 1, 78, 79
3, 452520, Note_on_c, 1, 78, 0
3, 452520, Note_on_c, 1, 76, 79
3, 452640, Note_on_c, 1, 76, 0
3, 452640, Note_on_c, 1, 74, 79
3, 453120, Note_on_c, 1, 74, 0
3, 453120, Note_on_c, 1, 76, 79
3, 453840, Note_on_c, 1, 76, 0
3, 453840, Note_on_c, 1, 74, 79
3, 453960, Note_on_c, 1, 74, 0
3, 453960, Note_on_c, 1, 72, 79
3, 454080, Note_on_c, 1, 72, 0
3, 454080, Note_on_c, 1, 71, 79
3, 454559, Control_c, 1, 7, 106
3, 454560, Note_on_c, 1, 71, 0
3, 454560, Note_on_c, 1, 67, 36
3, 454560, Control_c, 1, 7, 64
3, 455040, Note_on_c, 1, 67, 0
3, 455040, Note_on_c, 1, 67, 36
3, 455520, Note_on_c, 1, 67, 0
3, 455520, Note_on_c, 1, 69, 36
3, 455760, Note_on_c, 1, 69, 0
3, 455760, Note_on_c, 1, 66, 36
3, 456000, Note_on_c, 1, 66, 0
3, 456000, Note_on_c, 1, 67, 36
3, 456480, Note_on_c, 1, 67, 0
3, 456480, Note_on_c, 1, 69, 36
3, 456960, Note_on_c, 1, 69, 0
3, 456960, Note_on_c, 1, 71, 36
3, 457440, Note_on_c, 1, 71, 0
3, 457440, Control_c, 1, 7, 100
3, 458880, Note_on_c, 1, 55, 79
3, 459120, Note_on_c, 1, 55, 0
3, 459120, Note_on_c, 1, 79, 79
3, 459360, Note_on_c, 1, 79, 0
3, 459360, Note_on_c, 1, 78, 79
3, 459600, Note_on_c, 1, 78, 0
3, 459600, Note_on_c, 1, 76, 79
3, 459840, Note_on_c, 1, 76, 0
3, 459840, Note_on_c, 1, 74, 79
3, 460080, Note_on_c, 1, 74, 0
3, 460080, Note_on_c, 1, 72, 79
3, 460320, Note_on_c, 1, 72, 0
3, 460320, Note_on_c, 1, 71, 79
3, 460560, Note_on_c, 1, 71, 0
3, 460560, Note_on_c, 1, 67, 79
3, 460800, Note_on_c, 1, 67, 0
3, 460800, Note_on_c, 1, 76, 79
3, 461280, Note_on_c, 1, 76, 0
3, 461280, Note_on_c, 1, 72, 79
3, 461760, Note_on_c, 1, 72, 0
3, 461760, Note_on_c, 1, 71, 79
3, 462240, Note_on_c, 1, 71, 0
3, 462240, Note_on_c, 1, 55, 79
3, 462720, Note_on_c, 1, 55, 0
3, 462720, Note_on_c, 1, 67, 79
3, 463200, Note_on_c, 1, 67, 0
3, 463200, Control_c, 1, 7, 62
3, 463200, Note_on_c, 1, 67, 36
3, 463680, Note_on_c, 1, 67, 0
3, 463680, Note_on_c, 1, 67, 36
3, 464160, Note_on_c, 1, 67, 0
3, 464160, Note_on_c, 1, 67, 36
3, 464640, Note_on_c, 1, 67, 0
3, 464640, Note_on_c, 1, 67, 36
3, 465120, Note_on_c, 1, 67, 0
3, 465120, Note_on_c, 1, 67, 36
3, 465600, Note_on_c, 1, 67, 0
3, 465600, Note_on_c, 1, 67, 36
3, 466080, Note_on_c, 1, 67, 0
3, 466080, Note_on_c, 1, 64, 36
3, 466560, Note_on_c, 1, 64, 0
3, 466560, Note_on_c, 1, 64, 36
3, 467040, Note_on_c, 1, 64, 0
3, 467040, Note_on_c, 1, 64, 36
3, 467520, Note_on_c, 1, 64, 0
3, 467520, Note_on_c, 1, 64, 36
3, 468000, Note_on_c, 1, 64, 0
3, 468000, Note_on_c, 1, 64, 36
3, 468480, Note_on_c, 1, 64, 0
3, 468480, Note_on_c, 1, 64, 36
3, 468960, Note_on_c, 1, 64, 0
3, 468960, Note_on_c, 1, 60, 36
3, 469440, Note_on_c, 1, 60, 0
3, 469440, Note_on_c, 1, 60, 36
3, 469920, Note_on_c, 1, 60, 0
3, 469920, Note_on_c, 1, 60, 36
3, 470400, Note_on_c, 1, 60, 0
3, 470400, Note_on_c, 1, 60, 36
3, 470880, Note_on_c, 1, 60, 0
3, 470880, Note_on_c, 1, 60, 36
3, 471360, Note_on_c, 1, 60, 0
3, 471360, Note_on_c, 1, 60, 36
3, 471840, Note_on_c, 1, 60, 0
3, 471840, Note_on_c, 1, 60, 36
3, 472320, Note_on_c, 1, 60, 0
3, 472560, Note_on_c, 1, 69, 36
3, 472800, Note_on_c, 1, 69, 0
3, 472800, Note_on_c, 1, 67, 36
3, 473040, Note_on_c, 1, 67, 0
3, 473040, Note_on_c, 1, 65, 36
3, 473280, Note_on_c, 1, 65, 0
3, 473280, Note_on_c, 1, 65, 36
3, 473520, Note_on_c, 1, 65, 0
3, 473520, Note_on_c, 1, 64, 36
3, 474240, Note_on_c, 1, 64, 0
3, 474672, Control_c, 1, 7, 102
3, 474720, Note_on_c, 1, 67, 36
3, 475200, Note_on_c, 1, 67, 0
3, 475200, Note_on_c, 1, 71, 36
3, 475680, Note_on_c, 1, 71, 0
3, 475680, Note_on_c, 1, 67, 36
3, 476160, Note_on_c, 1, 67, 0
3, 476160, Note_on_c, 1, 66, 36
3, 476640, Note_on_c, 1, 66, 0
3, 476640, Note_on_c, 1, 69, 36
3, 477120, Note_on_c, 1, 69, 0
3, 477120, Note_on_c, 1, 62, 36
3, 477600, Note_on_c, 1, 62, 0
3, 477600, Note_on_c, 1, 67, 36
3, 478080, Note_on_c, 1, 67, 0
3, 478080, Note_on_c, 1, 64, 36
3, 478560, Note_on_c, 1, 64, 0
3, 478560, Note_on_c, 1, 60, 36
3, 479040, Note_on_c, 1, 60, 0
3, 479040, Note_on_c, 1, 62, 36
3, 480480, Note_on_c, 1, 62, 0
3, 480480, Note_on_c, 1, 67, 36
3, 480960, Note_on_c, 1, 67, 0
3, 480960, Note_on_c, 1, 69, 36
3, 481440, Note_on_c, 1, 69, 0
3, 481440, Note_on_c, 1, 71, 36
3, 481920, Note_on_c, 1, 71, 0
3, 481920, Note_on_c, 1, 72, 36
3, 482400, Note_on_c, 1, 72, 0
3, 482400, Note_on_c, 1, 69, 36
3, 482880, Note_on_c, 1, 69, 0
3, 482880, Note_on_c, 1, 67, 36
3, 483360, Note_on_c, 1, 67, 0
3, 483360, Note_on_c, 1, 64, 36
3, 483840, Note_on_c, 1, 64, 0
3, 483840, Note_on_c, 1, 62, 36
3, 484320, Note_on_c, 1, 62, 0
3, 484320, Note_on_c, 1, 60, 36
3, 484800, Note_on_c, 1, 60, 0
3, 484800, Note_on_c, 1, 59, 36
3, 485760, Note_on_c, 1, 59, 0
3, 486240, Note_on_c, 1, 71, 36
3, 486432, Control_c, 1, 7, 88
3, 486480, Note_on_c, 1, 71, 0
3, 486480, Note_on_c, 1, 72, 36
3, 486720, Note_on_c, 1, 72, 0
3, 486720, Note_on_c, 1, 69, 36
3, 487200, Note_on_c, 1, 69, 0
3, 487679, Control_c, 1, 7, 56
3, 487680, Note_on_c, 1, 67, 36
3, 487776, Control_c, 1, 7, 102
3, 487920, Note_on_c, 1, 67, 0
3, 487920, Note_on_c, 1, 69, 36
3, 488016, Control_c, 1, 7, 76
3, 488160, Note_on_c, 1, 69, 0
3, 488160, Note_on_c, 1, 66, 36
3, 488208, Control_c, 1, 7, 52
3, 488640, Note_on_c, 1, 66, 0
3, 489120, Note_on_c, 1, 64, 36
3, 489552, Control_c, 1, 7, 70
3, 489600, Note_on_c, 1, 64, 0
3, 489600, Note_on_c, 1, 67, 36
3, 490080, Note_on_c, 1, 67, 0
3, 490080, Note_on_c, 1, 71, 36
3, 490512, Control_c, 1, 7, 60
3, 490560, Note_on_c, 1, 71, 0
3, 490560, Note_on_c, 1, 62, 36
3, 491087, Control_c, 1, 7, 64
3, 491520, Note_on_c, 1, 62, 0
3, 491520, Note_on_c, 1, 61, 36
3, 492000, Note_on_c, 1, 61, 0
3, 492000, Note_on_c, 1, 62, 36
3, 492480, Note_on_c, 1, 62, 0
3, 492480, Note_on_c, 1, 64, 36
3, 492960, Note_on_c, 1, 64, 0
3, 492960, Note_on_c, 1, 66, 36
3, 493440, Note_on_c, 1, 66, 0
3, 493440, Note_on_c, 1, 67, 36
3, 493920, Note_on_c, 1, 67, 0
3, 493920, Note_on_c, 1, 69, 36
3, 494400, Note_on_c, 1, 69, 0
3, 494400, Note_on_c, 1, 71, 36
3, 494880, Note_on_c, 1, 71, 0
3, 494880, Note_on_c, 1, 69, 36
3, 495360, Note_on_c, 1, 69, 0
3, 495360, Note_on_c, 1, 66, 36
3, 495600, Note_on_c, 1, 66, 0
3, 495600, Note_on_c, 1, 62, 36
3, 495840, Note_on_c, 1, 62, 0
3, 495840, Note_on_c, 1, 64, 36
3, 496080, Note_on_c, 1, 64, 0
3, 496080, Note_on_c, 1, 61, 36
3, 496320, Note_on_c, 1, 61, 0
3, 496320, Note_on_c, 1, 62, 36
3, 496800, Note_on_c, 1, 62, 0
3, 496800, Note_on_c, 1, 66, 36
3, 497280, Note_on_c, 1, 66, 0
3, 497280, Note_on_c, 1, 69, 36
3, 497760, Note_on_c, 1, 69, 0
3, 497760, Note_on_c, 1, 72, 36
3, 498720, Note_on_c, 1, 72, 0
3, 498720, Note_on_c, 1, 71, 36
3, 499200, Note_on_c, 1, 71, 0
3, 499200, Note_on_c, 1, 66, 36
3, 500160, Note_on_c, 1, 66, 0
3, 500160, Note_on_c, 1, 67, 36
3, 500640, Note_on_c, 1, 67, 0
3, 501120, Note_on_c, 1, 69, 36
3, 501600, Note_on_c, 1, 69, 0
3, 501600, Note_on_c, 1, 69, 36
3, 502080, Note_on_c, 1, 69, 0
3, 502080, Note_on_c, 1, 69, 36
3, 503520, Note_on_c, 1, 69, 0
3, 503520, Control_c, 1, 7, 102
3, 503520, Note_on_c, 1, 67, 79
3, 504000, Note_on_c, 1, 67, 0
3, 504000, Note_on_c, 1, 71, 79
3, 504480, Note_on_c, 1, 71, 0
3, 504480, Note_on_c, 1, 67, 79
3, 504527, Control_c, 1, 7, 102
3, 504960, Note_on_c, 1, 67, 0
3, 504960, Note_on_c, 1, 66, 79
3, 505440, Note_on_c, 1, 66, 0
3, 505440, Note_on_c, 1, 69, 79
3, 505920, Note_on_c, 1, 69, 0
3, 505920, Note_on_c, 1, 62, 79
3, 506400, Note_on_c, 1, 62, 0
3, 506400, Note_on_c, 1, 67, 79
3, 506880, Note_on_c, 1, 67, 0
3, 506880, Note_on_c, 1, 64, 79
3, 507360, Note_on_c, 1, 64, 0
3, 507360, Note_on_c, 1, 60, 79
3, 507840, Note_on_c, 1, 60, 0
3, 507840, Note_on_c, 1, 62, 79
3, 509280, Note_on_c, 1, 62, 0
3, 509280, Note_on_c, 1, 67, 79
3, 509760, Note_on_c, 1, 67, 0
3, 509760, Note_on_c, 1, 69, 79
3, 510240, Note_on_c, 1, 69, 0
3, 510240, Note_on_c, 1, 71, 79
3, 510720, Note_on_c, 1, 71, 0
3, 510720, Note_on_c, 1, 72, 79
3, 511200, Note_on_c, 1, 72, 0
3, 511200, Note_on_c, 1, 69, 79
3, 511680, Note_on_c, 1, 69, 0
3, 511680, Note_on_c, 1, 67, 79
3, 512160, Note_on_c, 1, 67, 0
3, 512160, Note_on_c, 1, 64, 79
3, 512640, Note_on_c, 1, 64, 0
3, 512640, Note_on_c, 1, 59, 79
3, 513120, Note_on_c, 1, 59, 0
3, 513120, Note_on_c, 1, 57, 79
3, 513600, Note_on_c, 1, 57, 0
3, 513600, Note_on_c, 1, 59, 79
3, 515040, Note_on_c, 1, 59, 0
3, 516480, Control_c, 1, 7, 62
3, 518400, Note_on_c, 1, 67, 36
3, 518880, Note_on_c, 1, 67, 0
3, 518880, Note_on_c, 1, 67, 36
3, 519360, Note_on_c, 1, 67, 0
3, 519360, Note_on_c, 1, 69, 36
3, 519600, Note_on_c, 1, 69, 0
3, 519600, Note_on_c, 1, 67, 36
3, 519840, Note_on_c, 1, 67, 0
3, 519840, Note_on_c, 1, 64, 36
3, 520080, Note_on_c, 1, 64, 0
3, 520080, Note_on_c, 1, 66, 36
3, 520320, Note_on_c, 1, 66, 0
3, 520320, Note_on_c, 1, 69, 36
3, 520800, Note_on_c, 1, 69, 0
3, 520800, Note_on_c, 1, 69, 36
3, 521280, Note_on_c, 1, 69, 0
3, 521280, Note_on_c, 1, 69, 36
3, 522240, Note_on_c, 1, 69, 0
3, 522240, Note_on_c, 1, 60, 36
3, 522720, Note_on_c, 1, 60, 0
3, 522720, Note_on_c, 1, 60, 36
3, 523200, Note_on_c, 1, 60, 0
3, 523200, Note_on_c, 1, 62, 36
3, 523440, Note_on_c, 1, 62, 0
3, 523440, Note_on_c, 1, 60, 36
3, 523680, Note_on_c, 1, 60, 0
3, 523680, Note_on_c, 1, 59, 36
3, 523920, Note_on_c, 1, 59, 0
3, 523920, Note_on_c, 1, 57, 36
3, 524160, Note_on_c, 1, 57, 0
3, 524160, Note_on_c, 1, 55, 79
3, 524208, Control_c, 1, 7, 104
3, 524640, Note_on_c, 1, 55, 0
3, 524640, Note_on_c, 1, 55, 79
3, 525120, Note_on_c, 1, 55, 0
3, 525120, Note_on_c, 1, 55, 79
3, 526080, Note_on_c, 1, 55, 0
3, 526080, Note_on_c, 1, 72, 79
3, 526320, Note_on_c, 1, 72, 0
3, 526320, Note_on_c, 1, 71, 79
3, 526560, Note_on_c, 1, 71, 0
3, 526560, Note_on_c, 1, 72, 79
3, 526800, Note_on_c, 1, 72, 0
3, 526800, Note_on_c, 1, 69, 79
3, 527040, Note_on_c, 1, 69, 0
3, 527040, Note_on_c, 1, 71, 79
3, 527280, Note_on_c, 1, 71, 0
3, 527280, Note_on_c, 1, 69, 79
3, 527520, Note_on_c, 1, 69, 0
3, 527520, Note_on_c, 1, 71, 79
3, 527760, Note_on_c, 1, 71, 0
3, 527760, Note_on_c, 1, 66, 79
3, 528000, Note_on_c, 1, 66, 0
3, 528000, Note_on_c, 1, 67, 79
3, 528240, Note_on_c, 1, 67, 0
3, 528240, Note_on_c, 1, 66, 79
3, 528480, Note_on_c, 1, 66, 0
3, 528480, Note_on_c, 1, 67, 79
3, 528720, Note_on_c, 1, 67, 0
3, 528720, Note_on_c, 1, 69, 79
3, 528960, Note_on_c, 1, 69, 0
3, 528960, Note_on_c, 1, 71, 79
3, 529440, Note_on_c, 1, 71, 0
3, 529920, Note_on_c, 1, 67, 79
3, 529980, Note_on_c, 1, 67, 0
3, 529980, Note_on_c, 1, 66, 79
3, 530040, Note_on_c, 1, 66, 0
3, 530040, Note_on_c, 1, 67, 79
3, 530100, Note_on_c, 1, 67, 0
3, 530100, Note_on_c, 1, 66, 79
3, 530220, Note_on_c, 1, 66, 0
3, 530220, Note_on_c, 1, 67, 79
3, 530280, Note_on_c, 1, 67, 0
3, 530280, Note_on_c, 1, 66, 79
3, 530340, Note_on_c, 1, 66, 0
3, 530340, Note_on_c, 1, 67, 79
3, 530400, Note_on_c, 1, 67, 0
3, 530400, Note_on_c, 1, 66, 79
3, 530460, Note_on_c, 1, 66, 0
3, 530460, Note_on_c, 1, 67, 79
3, 530520, Note_on_c, 1, 67, 0
3, 530520, Note_on_c, 1, 66, 79
3, 530580, Note_on_c, 1, 66, 0
3, 530580, Note_on_c, 1, 67, 79
3, 530640, Note_on_c, 1, 67, 0
3, 530640, Note_on_c, 1, 66, 79
3, 530700, Note_on_c, 1, 66, 0
3, 530700, Note_on_c, 1, 67, 79
3, 530760, Note_on_c, 1, 67, 0
3, 530760, Note_on_c, 1, 66, 79
3, 530880, Note_on_c, 1, 66, 0
3, 530880, Note_on_c, 1, 67, 79
3, 531360, Note_on_c, 1, 67, 0
3, 531888, Control_c, 1, 7, 66
3, 533760, Note_on_c, 1, 67, 79
3, 534240, Note_on_c, 1, 67, 0
3, 534240, Note_on_c, 1, 67, 79
3, 534720, Note_on_c, 1, 67, 0
3, 534720, Note_on_c, 1, 69, 79
3, 534960, Note_on_c, 1, 69, 0
3, 534960, Note_on_c, 1, 67, 79
3, 535200, Note_on_c, 1, 67, 0
3, 535200, Note_on_c, 1, 64, 79
3, 535440, Note_on_c, 1, 64, 0
3, 535440, Note_on_c, 1, 66, 79
3, 535680, Note_on_c, 1, 66, 0
3, 535680, Note_on_c, 1, 69, 79
3, 535728, Control_c, 1, 7, 66
3, 536160, Note_on_c, 1, 69, 0
3, 536160, Note_on_c, 1, 69, 79
3, 536640, Note_on_c, 1, 69, 0
3, 536640, Note_on_c, 1, 69, 79
3, 537600, Note_on_c, 1, 69, 0
3, 537600, Note_on_c, 1, 60, 79
3, 538080, Note_on_c, 1, 60, 0
3, 538080, Note_on_c, 1, 60, 79
3, 538560, Note_on_c, 1, 60, 0
3, 538560, Note_on_c, 1, 62, 79
3, 538800, Note_on_c, 1, 62, 0
3, 538800, Note_on_c, 1, 60, 79
3, 539040, Note_on_c, 1, 60, 0
3, 539040, Note_on_c, 1, 59, 79
3, 539280, Note_on_c, 1, 59, 0
3, 539280, Note_on_c, 1, 57, 79
3, 539520, Note_on_c, 1, 57, 0
3, 539520, Note_on_c, 1, 55, 79
3, 539616, Control_c, 1, 7, 104
3, 540000, Note_on_c, 1, 55, 0
3, 540000, Note_on_c, 1, 55, 79
3, 540480, Note_on_c, 1, 55, 0
3, 540480, Note_on_c, 1, 55, 79
3, 541440, Note_on_c, 1, 55, 0
3, 541440, Note_on_c, 1, 72, 79
3, 541680, Note_on_c, 1, 72, 0
3, 541680, Note_on_c, 1, 71, 79
3, 541920, Note_on_c, 1, 71, 0
3, 541920, Note_on_c, 1, 72, 79
3, 542160, Note_on_c, 1, 72, 0
3, 542160, Note_on_c, 1, 69, 79
3, 542400, Note_on_c, 1, 69, 0
3, 542400, Note_on_c, 1, 71, 79
3, 542640, Note_on_c, 1, 71, 0
3, 542640, Note_on_c, 1, 69, 79
3, 542880, Note_on_c, 1, 69, 0
3, 542880, Note_on_c, 1, 71, 79
3, 543120, Note_on_c, 1, 71, 0
3, 543120, Note_on_c, 1, 66, 79
3, 543360, Note_on_c, 1, 66, 0
3, 543360, Note_on_c, 1, 67, 79
3, 543600, Note_on_c, 1, 67, 0
3, 543600, Note_on_c, 1, 66, 79
3, 543840, Note_on_c, 1, 66, 0
3, 543840, Note_on_c, 1, 67, 79
3, 544080, Note_on_c, 1, 67, 0
3, 544080, Note_on_c, 1, 69, 79
3, 544320, Note_on_c, 1, 69, 0
3, 544320, Note_on_c, 1, 71, 79
3, 544800, Note_on_c, 1, 71, 0
3, 545280, Note_on_c, 1, 68, 79
3, 545340, Note_on_c, 1, 68, 0
3, 545340, Note_on_c, 1, 66, 79
3, 545400, Note_on_c, 1, 66, 0
3, 545400, Note_on_c, 1, 68, 79
3, 545460, Note_on_c, 1, 68, 0
3, 545460, Note_on_c, 1, 66, 79
3, 545580, Note_on_c, 1, 66, 0
3, 545580, Note_on_c, 1, 68, 79
3, 545640, Note_on_c, 1, 68, 0
3, 545640, Note_on_c, 1, 66, 79
3, 545700, Note_on_c, 1, 66, 0
3, 545700, Note_on_c, 1, 68, 79
3, 545760, Note_on_c, 1, 68, 0
3, 545760, Note_on_c, 1, 66, 79
3, 545820, Note_on_c, 1, 66, 0
3, 545820, Note_on_c, 1, 68, 79
3, 545880, Note_on_c, 1, 68, 0
3, 545880, Note_on_c, 1, 66, 79
3, 545940, Note_on_c, 1, 66, 0
3, 545940, Note_on_c, 1, 68, 79
3, 546000, Note_on_c, 1, 68, 0
3, 546000, Note_on_c, 1, 66, 79
3, 546060, Note_on_c, 1, 66, 0
3, 546060, Note_on_c, 1, 68, 79
3, 546120, Note_on_c, 1, 68, 0
3, 546120, Note_on_c, 1, 66, 79
3, 546240, Note_on_c, 1, 66, 0
3, 546240, Note_on_c, 1, 67, 79
3, 546720, Note_on_c, 1, 67, 0
3, 547200, Note_on_c, 1, 64, 79
3, 547680, Note_on_c, 1, 64, 0
3, 547680, Note_on_c, 1, 66, 79
3, 547920, Note_on_c, 1, 66, 0
3, 547920, Note_on_c, 1, 67, 79
3, 548160, Note_on_c, 1, 67, 0
3, 548160, Note_on_c, 1, 67, 79
3, 548400, Note_on_c, 1, 67, 0
3, 548400, Note_on_c, 1, 66, 79
3, 548640, Note_on_c, 1, 66, 0
3, 548640, Note_on_c, 1, 71, 79
3, 548880, Note_on_c, 1, 71, 0
3, 548880, Note_on_c, 1, 69, 79
3, 549120, Note_on_c, 1, 69, 0
3, 549120, Note_on_c, 1, 69, 79
3, 549360, Note_on_c, 1, 69, 0
3, 549360, Note_on_c, 1, 67, 79
3, 549600, Note_on_c, 1, 67, 0
3, 549600, Note_on_c, 1, 66, 79
3, 549840, Note_on_c, 1, 66, 0
3, 549840, Note_on_c, 1, 64, 79
3, 550080, Note_on_c, 1, 64, 0
3, 550080, Note_on_c, 1, 67, 79
3, 550320, Note_on_c, 1, 67, 0
3, 550320, Note_on_c, 1, 66, 79
3, 550560, Note_on_c, 1, 66, 0
3, 550560, Note_on_c, 1, 62, 79
3, 550800, Note_on_c, 1, 62, 0
3, 550800, Note_on_c, 1, 61, 79
3, 551040, Note_on_c, 1, 61, 0
3, 551040, Note_on_c, 1, 64, 79
3, 551280, Note_on_c, 1, 64, 0
3, 551280, Note_on_c, 1, 62, 79
3, 551520, Note_on_c, 1, 62, 0
3, 551520, Note_on_c, 1, 66, 79
3, 551760, Note_on_c, 1, 66, 0
3, 551760, Note_on_c, 1, 64, 79
3, 552000, Note_on_c, 1, 64, 0
3, 552000, Note_on_c, 1, 67, 79
3, 552240, Note_on_c, 1, 67, 0
3, 552240, Note_on_c, 1, 66, 79
3, 552480, Note_on_c, 1, 66, 0
3, 552480, Note_on_c, 1, 64, 79
3, 552720, Note_on_c, 1, 64, 0
3, 552720, Note_on_c, 1, 62, 79
3, 552960, Note_on_c, 1, 62, 0
3, 552960, Note_on_c, 1, 71, 79
3, 553440, Note_on_c, 1, 71, 0
3, 553440, Note_on_c, 1, 67, 79
3, 553920, Note_on_c, 1, 67, 0
3, 553920, Note_on_c, 1, 66, 79
3, 554400, Note_on_c, 1, 66, 0
3, 554400, Note_on_c, 1, 64, 79
3, 554880, Note_on_c, 1, 64, 0
3, 554880, Note_on_c, 1, 64, 79
3, 555360, Note_on_c, 1, 64, 0
3, 555360, Note_on_c, 1, 66, 79
3, 555600, Note_on_c, 1, 66, 0
3, 555600, Note_on_c, 1, 67, 79
3, 555840, Note_on_c, 1, 67, 0
3, 555840, Note_on_c, 1, 67, 79
3, 556080, Note_on_c, 1, 67, 0
3, 556080, Note_on_c, 1, 66, 79
3, 556320, Note_on_c, 1, 66, 0
3, 556320, Note_on_c, 1, 71, 79
3, 556512, Control_c, 1, 7, 104
3, 556560, Note_on_c, 1, 71, 0
3, 556560, Note_on_c, 1, 69, 79
3, 556800, Note_on_c, 1, 69, 0
3, 556800, Note_on_c, 1, 69, 79
3, 557040, Note_on_c, 1, 69, 0
3, 557040, Note_on_c, 1, 67, 79
3, 557280, Note_on_c, 1, 67, 0
3, 557280, Note_on_c, 1, 66, 79
3, 557520, Note_on_c, 1, 66, 0
3, 557520, Note_on_c, 1, 64, 79
3, 557760, Note_on_c, 1, 64, 0
3, 557760, Note_on_c, 1, 67, 79
3, 558000, Note_on_c, 1, 67, 0
3, 558000, Note_on_c, 1, 66, 79
3, 558240, Note_on_c, 1, 66, 0
3, 558240, Note_on_c, 1, 62, 79
3, 558480, Note_on_c, 1, 62, 0
3, 558480, Note_on_c, 1, 61, 79
3, 558720, Note_on_c, 1, 61, 0
3, 558720, Note_on_c, 1, 64, 79
3, 558960, Note_on_c, 1, 64, 0
3, 558960, Note_on_c, 1, 62, 79
3, 559200, Note_on_c, 1, 62, 0
3, 559200, Note_on_c, 1, 66, 79
3, 559440, Note_on_c, 1, 66, 0
3, 559440, Note_on_c, 1, 64, 79
3, 559680, Note_on_c, 1, 64, 0
3, 559680, Note_on_c, 1, 67, 79
3, 559920, Note_on_c, 1, 67, 0
3, 559920, Note_on_c, 1, 66, 79
3, 560160, Note_on_c, 1, 66, 0
3, 560160, Note_on_c, 1, 71, 79
3, 560400, Note_on_c, 1, 71, 0
3, 560400, Note_on_c, 1, 69, 79
3, 560640, Note_on_c, 1, 69, 0
3, 560640, Note_on_c, 1, 69, 79
3, 560880, Note_on_c, 1, 69, 0
3, 560880, Note_on_c, 1, 67, 79
3, 561120, Note_on_c, 1, 67, 0
3, 561120, Note_on_c, 1, 66, 79
3, 561360, Note_on_c, 1, 66, 0
3, 561360, Note_on_c, 1, 64, 79
3, 561600, Note_on_c, 1, 64, 0
3, 561600, Note_on_c, 1, 66, 79
3, 562560, Note_on_c, 1, 66, 0
3, 562608, Control_c, 1, 7, 56
3, 564000, Note_on_c, 1, 62, 36
3, 564480, Note_on_c, 1, 62, 0
3, 564960, Note_on_c, 1, 62, 36
3, 565440, Note_on_c, 1, 62, 0
3, 565920, Note_on_c, 1, 60, 36
3, 566400, Note_on_c, 1, 60, 0
3, 566880, Note_on_c, 1, 64, 36
3, 567360, Note_on_c, 1, 64, 0
3, 567840, Note_on_c, 1, 60, 36
3, 568320, Note_on_c, 1, 60, 0
3, 568800, Note_on_c, 1, 60, 36
3, 569280, Note_on_c, 1, 60, 0
3, 569760, Note_on_c, 1, 59, 36
3, 570240, Note_on_c, 1, 59, 0
3, 570240, Note_on_c, 1, 79, 79
3, 570287, Control_c, 1, 7, 56
3, 570288, Control_c, 1, 7, 108
3, 570480, Note_on_c, 1, 79, 0
3, 570480, Note_on_c, 1, 78, 79
3, 570720, Note_on_c, 1, 78, 0
3, 570720, Note_on_c, 1, 76, 79
3, 570960, Note_on_c, 1, 76, 0
3, 570960, Note_on_c, 1, 74, 79
3, 571200, Note_on_c, 1, 74, 0
3, 571200, Note_on_c, 1, 76, 79
3, 571332, Control_c, 1, 7, 107
3, 571440, Note_on_c, 1, 76, 0
3, 571440, Note_on_c, 1, 74, 79
3, 571680, Note_on_c, 1, 74, 0
3, 571680, Note_on_c, 1, 72, 79
3, 571920, Note_on_c, 1, 72, 0
3, 571920, Note_on_c, 1, 71, 79
3, 572160, Note_on_c, 1, 71, 0
3, 572160, Note_on_c, 1, 72, 79
3, 572376, Control_c, 1, 7, 106
3, 572400, Note_on_c, 1, 72, 0
3, 572400, Note_on_c, 1, 71, 79
3, 572640, Note_on_c, 1, 71, 0
3, 572640, Note_on_c, 1, 69, 79
3, 572880, Note_on_c, 1, 69, 0
3, 572880, Note_on_c, 1, 67, 79
3, 573120, Note_on_c, 1, 67, 0
3, 573120, Note_on_c, 1, 69, 79
3, 573360, Note_on_c, 1, 69, 0
3, 573360, Note_on_c, 1, 67, 79
3, 573420, Control_c, 1, 7, 105
3, 573600, Note_on_c, 1, 67, 0
3, 573600, Note_on_c, 1, 66, 79
3, 573840, Note_on_c, 1, 66, 0
3, 573840, Note_on_c, 1, 64, 79
3, 574080, Note_on_c, 1, 64, 0
3, 574080, Note_on_c, 1, 66, 79
3, 574320, Note_on_c, 1, 66, 0
3, 574320, Note_on_c, 1, 64, 79
3, 574463, Control_c, 1, 7, 104
3, 574560, Note_on_c, 1, 64, 0
3, 574560, Note_on_c, 1, 62, 79
3, 574800, Note_on_c, 1, 62, 0
3, 574800, Note_on_c, 1, 61, 79
3, 575040, Note_on_c, 1, 61, 0
3, 575040, Note_on_c, 1, 62, 79
3, 575520, Note_on_c, 1, 62, 0
3, 575520, Note_on_c, 1, 69, 79
3, 576480, Note_on_c, 1, 69, 0
3, 576480, Note_on_c, 1, 69, 79
3, 576540, Note_on_c, 1, 69, 0
3, 576540, Note_on_c, 1, 67, 79
3, 576600, Note_on_c, 1, 67, 0
3, 576600, Note_on_c, 1, 69, 79
3, 576660, Note_on_c, 1, 69, 0
3, 576660, Note_on_c, 1, 67, 79
3, 576720, Note_on_c, 1, 67, 0
3, 576720, Note_on_c, 1, 69, 79
3, 576780, Note_on_c, 1, 69, 0
3, 576780, Note_on_c, 1, 67, 79
3, 576840, Note_on_c, 1, 67, 0
3, 576840, Note_on_c, 1, 69, 79
3, 576900, Note_on_c, 1, 69, 0
3, 576900, Note_on_c, 1, 67, 79
3, 576960, Note_on_c, 1, 67, 0
3, 576960, Note_on_c, 1, 66, 79
3, 577440, Note_on_c, 1, 66, 0
3, 577968, Control_c, 1, 7, 58
3, 579840, Note_on_c, 1, 67, 79
3, 580320, Note_on_c, 1, 67, 0
3, 580320, Note_on_c, 1, 67, 79
3, 580800, Note_on_c, 1, 67, 0
3, 580800, Note_on_c, 1, 69, 79
3, 580860, Note_on_c, 1, 69, 0
3, 580860, Note_on_c, 1, 67, 79
3, 580920, Note_on_c, 1, 67, 0
3, 580920, Note_on_c, 1, 67, 79
3, 581280, Note_on_c, 1, 67, 0
3, 581280, Note_on_c, 1, 66, 79
3, 581520, Note_on_c, 1, 66, 0
3, 581520, Note_on_c, 1, 64, 79
3, 581760, Note_on_c, 1, 64, 0
3, 581760, Note_on_c, 1, 69, 79
3, 582240, Note_on_c, 1, 69, 0
3, 582240, Note_on_c, 1, 69, 79
3, 582720, Note_on_c, 1, 69, 0
3, 582720, Note_on_c, 1, 69, 79
3, 583680, Note_on_c, 1, 69, 0
3, 583680, Note_on_c, 1, 60, 79
3, 584160, Note_on_c, 1, 60, 0
3, 584160, Note_on_c, 1, 60, 79
3, 584640, Note_on_c, 1, 60, 0
3, 584640, Note_on_c, 1, 62, 79
3, 584880, Note_on_c, 1, 62, 0
3, 584880, Note_on_c, 1, 60, 79
3, 585120, Note_on_c, 1, 60, 0
3, 585120, Note_on_c, 1, 59, 79
3, 585360, Note_on_c, 1, 59, 0
3, 585360, Note_on_c, 1, 57, 79
3, 585600, Note_on_c, 1, 57, 0
3, 585600, Note_on_c, 1, 55, 79
3, 585648, Control_c, 1, 7, 106
3, 586080, Note_on_c, 1, 55, 0
3, 586080, Note_on_c, 1, 55, 79
3, 586560, Note_on_c, 1, 55, 0
3, 586560, Note_on_c, 1, 55, 79
3, 587520, Note_on_c, 1, 55, 0
3, 587520, Note_on_c, 1, 72, 79
3, 587760, Note_on_c, 1, 72, 0
3, 587760, Note_on_c, 1, 71, 79
3, 588000, Note_on_c, 1, 71, 0
3, 588000, Note_on_c, 1, 72, 79
3, 588240, Note_on_c, 1, 72, 0
3, 588240, Note_on_c, 1, 69, 79
3, 588480, Note_on_c, 1, 69, 0
3, 588480, Note_on_c, 1, 71, 79
3, 588720, Note_on_c, 1, 71, 0
3, 588720, Note_on_c, 1, 69, 79
3, 588960, Note_on_c, 1, 69, 0
3, 588960, Note_on_c, 1, 71, 79
3, 589200, Note_on_c, 1, 71, 0
3, 589200, Note_on_c, 1, 66, 79
3, 589440, Note_on_c, 1, 66, 0
3, 589440, Note_on_c, 1, 67, 79
3, 589680, Note_on_c, 1, 67, 0
3, 589680, Note_on_c, 1, 66, 79
3, 589920, Note_on_c, 1, 66, 0
3, 589920, Note_on_c, 1, 67, 79
3, 590160, Note_on_c, 1, 67, 0
3, 590160, Note_on_c, 1, 69, 79
3, 590400, Note_on_c, 1, 69, 0
3, 590400, Note_on_c, 1, 71, 79
3, 590880, Note_on_c, 1, 71, 0
3, 591360, Note_on_c, 1, 69, 79
3, 591420, Note_on_c, 1, 69, 0
3, 591420, Note_on_c, 1, 66, 79
3, 591480, Note_on_c, 1, 66, 0
3, 591480, Note_on_c, 1, 69, 79
3, 591540, Note_on_c, 1, 69, 0
3, 591540, Note_on_c, 1, 66, 79
3, 591660, Note_on_c, 1, 66, 0
3, 591660, Note_on_c, 1, 69, 79
3, 591720, Note_on_c, 1, 69, 0
3, 591720, Note_on_c, 1, 66, 79
3, 591780, Note_on_c, 1, 66, 0
3, 591780, Note_on_c, 1, 69, 79
3, 591840, Note_on_c, 1, 69, 0
3, 591840, Note_on_c, 1, 66, 79
3, 591900, Note_on_c, 1, 66, 0
3, 591900, Note_on_c, 1, 69, 79
3, 591960, Note_on_c, 1, 69, 0
3, 591960, Note_on_c, 1, 66, 79
3, 592020, Note_on_c, 1, 66, 0
3, 592020, Note_on_c, 1, 69, 79
3, 592080, Note_on_c, 1, 69, 0
3, 592080, Note_on_c, 1, 66, 79
3, 592200, Note_on_c, 1, 66, 0
3, 592200, Note_on_c, 1, 69, 79
3, 592260, Note_on_c, 1, 69, 0
3, 592260, Note_on_c, 1, 66, 79
3, 592320, Note_on_c, 1, 66, 0
3, 592320, Note_on_c, 1, 67, 79
3, 592800, Note_on_c, 1, 67, 0
3, 593280, Note_on_c, 1, 64, 79
3, 593760, Note_on_c, 1, 64, 0
3, 593760, Note_on_c, 1, 66, 79
3, 594000, Note_on_c, 1, 66, 0
3, 594000, Note_on_c, 1, 67, 79
3, 594240, Note_on_c, 1, 67, 0
3, 594240, Note_on_c, 1, 67, 79
3, 594480, Note_on_c, 1, 67, 0
3, 594480, Note_on_c, 1, 66, 79
3, 594720, Note_on_c, 1, 66, 0
3, 594720, Note_on_c, 1, 71, 79
3, 594960, Note_on_c, 1, 71, 0
3, 594960, Note_on_c, 1, 69, 79
3, 595200, Note_on_c, 1, 69, 0
3, 595200, Note_on_c, 1, 69, 79
3, 595440, Note_on_c, 1, 69, 0
3, 595440, Note_on_c, 1, 67, 79
3, 595680, Note_on_c, 1, 67, 0
3, 595680, Note_on_c, 1, 66, 79
3, 595920, Note_on_c, 1, 66, 0
3, 595920, Note_on_c, 1, 64, 79
3, 596160, Note_on_c, 1, 64, 0
3, 596160, Note_on_c, 1, 67, 79
3, 596400, Note_on_c, 1, 67, 0
3, 596400, Note_on_c, 1, 66, 79
3, 596640, Note_on_c, 1, 66, 0
3, 596640, Note_on_c, 1, 62, 79
3, 596880, Note_on_c, 1, 62, 0
3, 596880, Note_on_c, 1, 61, 79
3, 597120, Note_on_c, 1, 61, 0
3, 597120, Note_on_c, 1, 64, 79
3, 597360, Note_on_c, 1, 64, 0
3, 597360, Note_on_c, 1, 62, 79
3, 597600, Note_on_c, 1, 62, 0
3, 597600, Note_on_c, 1, 66, 79
3, 597840, Note_on_c, 1, 66, 0
3, 597840, Note_on_c, 1, 64, 79
3, 598080, Note_on_c, 1, 64, 0
3, 598080, Note_on_c, 1, 67, 79
3, 598320, Note_on_c, 1, 67, 0
3, 598320, Note_on_c, 1, 66, 79
3, 598560, Note_on_c, 1, 66, 0
3, 598560, Note_on_c, 1, 64, 79
3, 598800, Note_on_c, 1, 64, 0
3, 598800, Note_on_c, 1, 62, 79
3, 599040, Note_on_c, 1, 62, 0
3, 599040, Note_on_c, 1, 71, 79
3, 599520, Note_on_c, 1, 71, 0
3, 599520, Note_on_c, 1, 67, 79
3, 600000, Note_on_c, 1, 67, 0
3, 600000, Note_on_c, 1, 66, 79
3, 600480, Note_on_c, 1, 66, 0
3, 600480, Note_on_c, 1, 64, 79
3, 600960, Note_on_c, 1, 64, 0
3, 600960, Note_on_c, 1, 64, 79
3, 601440, Note_on_c, 1, 64, 0
3, 601440, Note_on_c, 1, 66, 79
3, 601680, Note_on_c, 1, 66, 0
3, 601680, Note_on_c, 1, 67, 79
3, 601920, Note_on_c, 1, 67, 0
3, 601920, Note_on_c, 1, 67, 79
3, 602160, Note_on_c, 1, 67, 0
3, 602160, Note_on_c, 1, 66, 79
3, 602400, Note_on_c, 1, 66, 0
3, 602400, Note_on_c, 1, 71, 79
3, 602640, Note_on_c, 1, 71, 0
3, 602640, Note_on_c, 1, 69, 79
3, 602880, Note_on_c, 1, 69, 0
3, 602880, Note_on_c, 1, 69, 79
3, 603120, Note_on_c, 1, 69, 0
3, 603120, Note_on_c, 1, 67, 79
3, 603360, Note_on_c, 1, 67, 0
3, 603360, Note_on_c, 1, 66, 79
3, 603600, Note_on_c, 1, 66, 0
3, 603600, Note_on_c, 1, 64, 79
3, 603840, Note_on_c, 1, 64, 0
3, 603840, Note_on_c, 1, 67, 79
3, 604080, Note_on_c, 1, 67, 0
3, 604080, Note_on_c, 1, 66, 79
3, 604320, Note_on_c, 1, 66, 0
3, 604320, Note_on_c, 1, 62, 79
3, 604560, Note_on_c, 1, 62, 0
3, 604560, Note_on_c, 1, 61, 79
3, 604800, Note_on_c, 1, 61, 0
3, 604800, Note_on_c, 1, 64, 79
3, 605040, Note_on_c, 1, 64, 0
3, 605040, Note_on_c, 1, 62, 79
3, 605280, Note_on_c, 1, 62, 0
3, 605280, Note_on_c, 1, 66, 79
3, 605520, Note_on_c, 1, 66, 0
3, 605520, Note_on_c, 1, 64, 79
3, 605760, Note_on_c, 1, 64, 0
3, 605760, Note_on_c, 1, 67, 79
3, 606000, Note_on_c, 1, 67, 0
3, 606000, Note_on_c, 1, 66, 79
3, 606240, Note_on_c, 1, 66, 0
3, 606240, Note_on_c, 1, 71, 79
3, 606480, Note_on_c, 1, 71, 0
3, 606480, Note_on_c, 1, 69, 79
3, 606720, Note_on_c, 1, 69, 0
3, 606720, Note_on_c, 1, 69, 79
3, 606960, Note_on_c, 1, 69, 0
3, 606960, Note_on_c, 1, 67, 79
3, 607200, Note_on_c, 1, 67, 0
3, 607200, Note_on_c, 1, 66, 79
3, 607440, Note_on_c, 1, 66, 0
3, 607440, Note_on_c, 1, 64, 79
3, 607680, Note_on_c, 1, 64, 0
3, 607680, Note_on_c, 1, 66, 79
3, 608640, Note_on_c, 1, 66, 0
3, 608736, Control_c, 1, 7, 60
3, 610080, Note_on_c, 1, 62, 36
3, 610560, Note_on_c, 1, 62, 0
3, 611040, Note_on_c, 1, 62, 36
3, 611520, Note_on_c, 1, 62, 0
3, 612000, Note_on_c, 1, 60, 36
3, 612480, Note_on_c, 1, 60, 0
3, 612960, Note_on_c, 1, 64, 36
3, 613440, Note_on_c, 1, 64, 0
3, 613920, Note_on_c, 1, 60, 36
3, 614400, Note_on_c, 1, 60, 0
3, 614880, Note_on_c, 1, 60, 36
3, 615360, Note_on_c, 1, 60, 0
3, 615840, Note_on_c, 1, 59, 36
3, 616320, Note_on_c, 1, 59, 0
3, 616320, Note_on_c, 1, 79, 79
3, 616367, Control_c, 1, 7, 60
3, 616368, Control_c, 1, 7, 108
3, 616560, Note_on_c, 1, 79, 0
3, 616560, Note_on_c, 1, 78, 79
3, 616800, Note_on_c, 1, 78, 0
3, 616800, Note_on_c, 1, 76, 79
3, 617040, Note_on_c, 1, 76, 0
3, 617040, Note_on_c, 1, 74, 79
3, 617280, Note_on_c, 1, 74, 0
3, 617280, Note_on_c, 1, 76, 79
3, 617520, Note_on_c, 1, 76, 0
3, 617520, Note_on_c, 1, 74, 79
3, 617760, Note_on_c, 1, 74, 0
3, 617760, Note_on_c, 1, 72, 79
3, 618000, Note_on_c, 1, 72, 0
3, 618000, Note_on_c, 1, 71, 79
3, 618240, Note_on_c, 1, 71, 0
3, 618240, Note_on_c, 1, 72, 79
3, 618480, Note_on_c, 1, 72, 0
3, 618480, Note_on_c, 1, 71, 79
3, 618720, Note_on_c, 1, 71, 0
3, 618720, Note_on_c, 1, 69, 79
3, 618960, Note_on_c, 1, 69, 0
3, 618960, Note_on_c, 1, 67, 79
3, 619200, Note_on_c, 1, 67, 0
3, 619200, Note_on_c, 1, 69, 79
3, 619440, Note_on_c, 1, 69, 0
3, 619440, Note_on_c, 1, 67, 79
3, 619680, Note_on_c, 1, 67, 0
3, 619680, Note_on_c, 1, 66, 79
3, 619920, Note_on_c, 1, 66, 0
3, 619920, Note_on_c, 1, 64, 79
3, 620160, Note_on_c, 1, 64, 0
3, 620160, Note_on_c, 1, 66, 79
3, 620400, Note_on_c, 1, 66, 0
3, 620400, Note_on_c, 1, 64, 79
3, 620640, Note_on_c, 1, 64, 0
3, 620640, Note_on_c, 1, 62, 79
3, 620880, Note_on_c, 1, 62, 0
3, 620880, Note_on_c, 1, 61, 79
3, 621120, Note_on_c, 1, 61, 0
3, 621120, Note_on_c, 1, 62, 79
3, 621600, Note_on_c, 1, 62, 0
3, 621600, Note_on_c, 1, 69, 79
3, 622560, Note_on_c, 1, 69, 0
3, 622560, Note_on_c, 1, 69, 79
3, 622620, Note_on_c, 1, 69, 0
3, 622620, Note_on_c, 1, 67, 79
3, 622680, Note_on_c, 1, 67, 0
3, 622680, Note_on_c, 1, 69, 79
3, 622740, Note_on_c, 1, 69, 0
3, 622740, Note_on_c, 1, 67, 79
3, 622800, Note_on_c, 1, 67, 0
3, 622800, Note_on_c, 1, 69, 79
3, 622860, Note_on_c, 1, 69, 0
3, 622860, Note_on_c, 1, 67, 79
3, 622920, Note_on_c, 1, 67, 0
3, 622920, Note_on_c, 1, 69, 79
3, 622980, Note_on_c, 1, 69, 0
3, 622980, Note_on_c, 1, 67, 79
3, 623040, Note_on_c, 1, 67, 0
3, 623040, Note_on_c, 1, 66, 79
3, 623520, Note_on_c, 1, 66, 0
3, 624048, Control_c, 1, 7, 60
3, 625920, Note_on_c, 1, 67, 79
3, 626400, Note_on_c, 1, 67, 0
3, 626400, Note_on_c, 1, 67, 79
3, 626880, Note_on_c, 1, 67, 0
3, 626880, Note_on_c, 1, 69, 79
3, 626940, Note_on_c, 1, 69, 0
3, 626940, Note_on_c, 1, 67, 79
3, 627000, Note_on_c, 1, 67, 0
3, 627000, Note_on_c, 1, 67, 79
3, 627360, Note_on_c, 1, 67, 0
3, 627360, Note_on_c, 1, 66, 79
3, 627600, Note_on_c, 1, 66, 0
3, 627600, Note_on_c, 1, 64, 79
3, 627840, Note_on_c, 1, 64, 0
3, 627840, Note_on_c, 1, 69, 79
3, 628320, Note_on_c, 1, 69, 0
3, 628320, Note_on_c, 1, 69, 79
3, 628800, Note_on_c, 1, 69, 0
3, 628800, Note_on_c, 1, 69, 79
3, 629760, Note_on_c, 1, 69, 0
3, 629760, Note_on_c, 1, 60, 79
3, 630240, Note_on_c, 1, 60, 0
3, 630240, Note_on_c, 1, 60, 79
3, 630720, Note_on_c, 1, 60, 0
3, 630720, Note_on_c, 1, 62, 79
3, 630960, Note_on_c, 1, 62, 0
3, 630960, Note_on_c, 1, 60, 79
3, 631200, Note_on_c, 1, 60, 0
3, 631200, Note_on_c, 1, 59, 79
3, 631440, Note_on_c, 1, 59, 0
3, 631440, Note_on_c, 1, 57, 79
3, 631680, Note_on_c, 1, 57, 0
3, 631680, Note_on_c, 1, 55, 79
3, 631775, Control_c, 1, 7, 60
3, 631776, Control_c, 1, 7, 104
3, 632160, Note_on_c, 1, 55, 0
3, 632160, Note_on_c, 1, 55, 79
3, 632640, Note_on_c, 1, 55, 0
3, 632640, Note_on_c, 1, 55, 79
3, 633600, Note_on_c, 1, 55, 0
3, 633600, Note_on_c, 1, 72, 79
3, 633840, Note_on_c, 1, 72, 0
3, 633840, Note_on_c, 1, 71, 79
3, 634080, Note_on_c, 1, 71, 0
3, 634080, Note_on_c, 1, 72, 79
3, 634320, Note_on_c, 1, 72, 0
3, 634320, Note_on_c, 1, 69, 79
3, 634560, Note_on_c, 1, 69, 0
3, 634560, Note_on_c, 1, 71, 79
3, 634800, Note_on_c, 1, 71, 0
3, 634800, Note_on_c, 1, 69, 79
3, 635040, Note_on_c, 1, 69, 0
3, 635040, Note_on_c, 1, 71, 79
3, 635280, Note_on_c, 1, 71, 0
3, 635280, Note_on_c, 1, 66, 79
3, 635520, Note_on_c, 1, 66, 0
3, 635520, Note_on_c, 1, 67, 79
3, 635760, Note_on_c, 1, 67, 0
3, 635760, Note_on_c, 1, 66, 79
3, 636000, Note_on_c, 1, 66, 0
3, 636000, Note_on_c, 1, 67, 79
3, 636240, Note_on_c, 1, 67, 0
3, 636240, Note_on_c, 1, 69, 79
3, 636480, Note_on_c, 1, 69, 0
3, 636480, Note_on_c, 1, 71, 79
3, 636960, Note_on_c, 1, 71, 0
3, 637440, Note_on_c, 1, 69, 79
3, 637500, Note_on_c, 1, 69, 0
3, 637500, Note_on_c, 1, 66, 79
3, 637560, Note_on_c, 1, 66, 0
3, 637560, Note_on_c, 1, 69, 79
3, 637620, Note_on_c, 1, 69, 0
3, 637620, Note_on_c, 1, 66, 79
3, 637740, Note_on_c, 1, 66, 0
3, 637740, Note_on_c, 1, 69, 79
3, 637800, Note_on_c, 1, 69, 0
3, 637800, Note_on_c, 1, 66, 79
3, 637860, Note_on_c, 1, 66, 0
3, 637860, Note_on_c, 1, 69, 79
3, 637920, Note_on_c, 1, 69, 0
3, 637920, Note_on_c, 1, 66, 79
3, 637980, Note_on_c, 1, 66, 0
3, 637980, Note_on_c, 1, 69, 79
3, 638040, Note_on_c, 1, 69, 0
3, 638040, Note_on_c, 1, 66, 79
3, 638100, Note_on_c, 1, 66, 0
3, 638100, Note_on_c, 1, 69, 79
3, 638160, Note_on_c, 1, 69, 0
3, 638160, Note_on_c, 1, 66, 79
3, 638280, Note_on_c, 1, 66, 0
3, 638280, Note_on_c, 1, 69, 79
3, 638340, Note_on_c, 1, 69, 0
3, 638340, Note_on_c, 1, 66, 79
3, 638400, Note_on_c, 1, 66, 0
3, 638400, Note_on_c, 1, 67, 79
3, 638880, Note_on_c, 1, 67, 0
3, 639360, Note_on_c, 1, 67, 36
3, 639407, Control_c, 1, 7, 104
3, 639456, Control_c, 1, 7, 54
3, 640320, Note_on_c, 1, 67, 0
3, 640320, Note_on_c, 1, 67, 36
3, 641280, Note_on_c, 1, 67, 0
3, 641280, Note_on_c, 1, 66, 36
3, 642240, Note_on_c, 1, 66, 0
3, 642240, Note_on_c, 1, 67, 36
3, 643200, Note_on_c, 1, 67, 0
3, 646080, Note_on_c, 1, 65, 36
3, 647040, Note_on_c, 1, 65, 0
3, 647040, Note_on_c, 1, 74, 36
3, 648000, Note_on_c, 1, 74, 0
3, 648000, Note_on_c, 1, 74, 36
3, 648960, Note_on_c, 1, 74, 0
3, 648960, Note_on_c, 1, 73, 36
3, 649920, Note_on_c, 1, 73, 0
3, 649920, Note_on_c, 1, 74, 36
3, 650880, Note_on_c, 1, 74, 0
3, 650880, Note_on_c, 1, 65, 36
3, 651360, Note_on_c, 1, 65, 0
3, 651360, Note_on_c, 1, 65, 36
3, 651840, Note_on_c, 1, 65, 0
3, 651840, Note_on_c, 1, 65, 36
3, 652080, Note_on_c, 1, 65, 0
3, 652080, Note_on_c, 1, 64, 36
3, 652320, Note_on_c, 1, 64, 0
3, 652320, Note_on_c, 1, 62, 36
3, 653280, Note_on_c, 1, 62, 0
3, 653280, Note_on_c, 1, 61, 36
3, 653760, Note_on_c, 1, 61, 0
3, 653760, Note_on_c, 1, 62, 36
3, 654720, Note_on_c, 1, 62, 0
3, 654720, Note_on_c, 1, 67, 36
3, 655680, Note_on_c, 1, 67, 0
3, 655680, Note_on_c, 1, 67, 36
3, 656640, Note_on_c, 1, 67, 0
3, 656640, Note_on_c, 1, 66, 36
3, 657600, Note_on_c, 1, 66, 0
3, 657600, Note_on_c, 1, 67, 36
3, 658560, Note_on_c, 1, 67, 0
3, 661440, Note_on_c, 1, 65, 36
3, 662400, Note_on_c, 1, 65, 0
3, 662400, Note_on_c, 1, 74, 36
3, 663360, Note_on_c, 1, 74, 0
3, 663360, Note_on_c, 1, 74, 36
3, 664320, Note_on_c, 1, 74, 0
3, 664320, Note_on_c, 1, 73, 36
3, 665280, Note_on_c, 1, 73, 0
3, 665280, Note_on_c, 1, 74, 36
3, 666240, Note_on_c, 1, 74, 0
3, 666240, Note_on_c, 1, 65, 36
3, 666720, Note_on_c, 1, 65, 0
3, 666720, Note_on_c, 1, 65, 36
3, 667200, Note_on_c, 1, 65, 0
3, 667200, Note_on_c, 1, 65, 36
3, 667440, Note_on_c, 1, 65, 0
3, 667440, Note_on_c, 1, 64, 36
3, 667680, Note_on_c, 1, 64, 0
3, 667680, Note_on_c, 1, 62, 36
3, 668640, Note_on_c, 1, 62, 0
3, 668640, Note_on_c, 1, 61, 36
3, 669120, Note_on_c, 1, 61, 0
3, 669120, Note_on_c, 1, 62, 36
3, 669355, Control_c, 1, 7, 54
3, 670080, Note_on_c, 1, 62, 0
3, 670080, Note_on_c, 1, 74, 79
3, 670121, Control_c, 1, 7, 54
3, 670122, Control_c, 1, 7, 104
3, 670560, Note_on_c, 1, 74, 0
3, 670560, Note_on_c, 1, 74, 79
3, 670800, Note_on_c, 1, 74, 0
3, 670800, Note_on_c, 1, 74, 79
3, 671040, Note_on_c, 1, 74, 0
3, 671040, Note_on_c, 1, 77, 79
3, 671520, Note_on_c, 1, 77, 0
3, 671520, Note_on_c, 1, 71, 79
3, 672000, Note_on_c, 1, 71, 0
3, 672000, Note_on_c, 1, 71, 79
3, 672480, Note_on_c, 1, 71, 0
3, 672480, Note_on_c, 1, 71, 79
3, 672720, Note_on_c, 1, 71, 0
3, 672720, Note_on_c, 1, 71, 79
3, 672747, Control_c, 1, 7, 103
3, 672960, Note_on_c, 1, 71, 0
3, 672960, Note_on_c, 1, 74, 79
3, 673440, Note_on_c, 1, 74, 0
3, 673440, Note_on_c, 1, 72, 79
3, 673920, Note_on_c, 1, 72, 0
3, 673920, Note_on_c, 1, 72, 79
3, 674400, Note_on_c, 1, 72, 0
3, 674400, Note_on_c, 1, 72, 79
3, 674640, Note_on_c, 1, 72, 0
3, 674640, Note_on_c, 1, 72, 79
3, 674880, Note_on_c, 1, 72, 0
3, 674880, Note_on_c, 1, 75, 79
3, 675360, Note_on_c, 1, 75, 0
3, 675360, Note_on_c, 1, 69, 79
3, 675372, Control_c, 1, 7, 102
3, 675455, Control_c, 1, 7, 102
3, 675840, Note_on_c, 1, 69, 0
3, 675840, Note_on_c, 1, 69, 79
3, 676320, Note_on_c, 1, 69, 0
3, 676320, Note_on_c, 1, 69, 79
3, 676560, Note_on_c, 1, 69, 0
3, 676560, Note_on_c, 1, 69, 79
3, 676800, Note_on_c, 1, 69, 0
3, 676800, Note_on_c, 1, 72, 79
3, 677280, Note_on_c, 1, 72, 0
3, 677280, Note_on_c, 1, 70, 79
3, 677760, Note_on_c, 1, 70, 0
3, 677760, Note_on_c, 1, 55, 36
3, 677952, Control_c, 1, 7, 58
3, 678240, Note_on_c, 1, 55, 0
3, 678240, Note_on_c, 1, 55, 36
3, 678480, Note_on_c, 1, 55, 0
3, 678480, Note_on_c, 1, 55, 36
3, 678720, Note_on_c, 1, 55, 0
3, 678720, Note_on_c, 1, 58, 36
3, 679200, Note_on_c, 1, 58, 0
3, 679200, Note_on_c, 1, 57, 36
3, 679680, Note_on_c, 1, 57, 0
3, 679680, Note_on_c, 1, 57, 36
3, 680160, Note_on_c, 1, 57, 0
3, 680160, Note_on_c, 1, 57, 36
3, 680400, Note_on_c, 1, 57, 0
3, 680400, Note_on_c, 1, 57, 36
3, 680640, Note_on_c, 1, 57, 0
3, 680640, Note_on_c, 1, 60, 36
3, 681120, Note_on_c, 1, 60, 0
3, 681120, Note_on_c, 1, 58, 36
3, 681600, Note_on_c, 1, 58, 0
3, 681600, Note_on_c, 1, 58, 36
3, 682080, Note_on_c, 1, 58, 0
3, 682080, Note_on_c, 1, 58, 36
3, 682320, Note_on_c, 1, 58, 0
3, 682320, Note_on_c, 1, 58, 36
3, 682560, Note_on_c, 1, 58, 0
3, 682560, Note_on_c, 1, 62, 36
3, 683040, Note_on_c, 1, 62, 0
3, 683040, Note_on_c, 1, 60, 36
3, 683520, Note_on_c, 1, 60, 0
3, 683520, Note_on_c, 1, 60, 36
3, 684000, Note_on_c, 1, 60, 0
3, 684000, Note_on_c, 1, 60, 36
3, 684240, Note_on_c, 1, 60, 0
3, 684240, Note_on_c, 1, 60, 36
3, 684480, Note_on_c, 1, 60, 0
3, 684480, Note_on_c, 1, 63, 36
3, 684960, Note_on_c, 1, 63, 0
3, 684960, Note_on_c, 1, 62, 36
3, 685440, Note_on_c, 1, 62, 0
3, 685440, Note_on_c, 1, 74, 36
3, 685920, Note_on_c, 1, 74, 0
3, 685920, Note_on_c, 1, 74, 36
3, 686160, Note_on_c, 1, 74, 0
3, 686160, Note_on_c, 1, 74, 36
3, 686400, Note_on_c, 1, 74, 0
3, 686400, Note_on_c, 1, 72, 36
3, 687360, Note_on_c, 1, 72, 0
3, 687360, Note_on_c, 1, 70, 36
3, 687840, Note_on_c, 1, 70, 0
3, 687840, Note_on_c, 1, 70, 36
3, 688080, Note_on_c, 1, 70, 0
3, 688080, Note_on_c, 1, 70, 36
3, 688320, Note_on_c, 1, 70, 0
3, 688320, Note_on_c, 1, 69, 36
3, 689279, Control_c, 1, 7, 58
3, 689280, Note_on_c, 1, 69, 0
3, 689280, Note_on_c, 1, 69, 79
3, 689376, Control_c, 1, 7, 98
3, 689760, Note_on_c, 1, 69, 0
3, 689760, Note_on_c, 1, 69, 79
3, 690000, Note_on_c, 1, 69, 0
3, 690000, Note_on_c, 1, 69, 79
3, 690240, Note_on_c, 1, 69, 0
3, 690240, Note_on_c, 1, 67, 79
3, 691200, Note_on_c, 1, 67, 0
3, 691200, Note_on_c, 1, 61, 79
3, 691631, Control_c, 1, 7, 98
3, 692160, Note_on_c, 1, 61, 0
3, 692160, Note_on_c, 1, 62, 79
3, 692640, Note_on_c, 1, 62, 0
3, 692640, Note_on_c, 1, 66, 79
3, 693600, Note_on_c, 1, 66, 0
3, 693600, Note_on_c, 1, 69, 79
3, 694080, Note_on_c, 1, 69, 0
3, 694080, Note_on_c, 1, 67, 79
3, 694140, Note_on_c, 1, 67, 0
3, 694140, Note_on_c, 1, 66, 79
3, 694200, Note_on_c, 1, 66, 0
3, 694200, Note_on_c, 1, 67, 79
3, 694260, Note_on_c, 1, 67, 0
3, 694260, Note_on_c, 1, 66, 79
3, 694320, Note_on_c, 1, 66, 0
3, 694320, Note_on_c, 1, 67, 79
3, 694380, Note_on_c, 1, 67, 0
3, 694380, Note_on_c, 1, 66, 79
3, 694440, Note_on_c, 1, 66, 0
3, 694440, Note_on_c, 1, 67, 79
3, 694500, Note_on_c, 1, 67, 0
3, 694500, Note_on_c, 1, 66, 79
3, 694560, Note_on_c, 1, 66, 0
3, 694560, Note_on_c, 1, 67, 79
3, 694620, Note_on_c, 1, 67, 0
3, 694620, Note_on_c, 1, 66, 79
3, 694680, Note_on_c, 1, 66, 0
3, 694680, Note_on_c, 1, 67, 79
3, 694740, Note_on_c, 1, 67, 0
3, 694740, Note_on_c, 1, 66, 79
3, 694800, Note_on_c, 1, 66, 0
3, 694800, Note_on_c, 1, 67, 79
3, 694860, Note_on_c, 1, 67, 0
3, 694860, Note_on_c, 1, 66, 79
3, 694920, Note_on_c, 1, 66, 0
3, 694920, Note_on_c, 1, 67, 79
3, 694980, Note_on_c, 1, 67, 0
3, 694980, Note_on_c, 1, 66, 79
3, 695040, Note_on_c, 1, 66, 0
3, 695040, Note_on_c, 1, 67, 79
3, 695100, Note_on_c, 1, 67, 0
3, 695100, Note_on_c, 1, 66, 79
3, 695160, Note_on_c, 1, 66, 0
3, 695160, Note_on_c, 1, 67, 79
3, 695220, Note_on_c, 1, 67, 0
3, 695220, Note_on_c, 1, 66, 79
3, 695280, Note_on_c, 1, 66, 0
3, 695280, Note_on_c, 1, 67, 79
3, 695340, Note_on_c, 1, 67, 0
3, 695340, Note_on_c, 1, 66, 79
3, 695400, Note_on_c, 1, 66, 0
3, 695400, Note_on_c, 1, 67, 79
3, 695460, Note_on_c, 1, 67, 0
3, 695460, Note_on_c, 1, 66, 79
3, 695520, Note_on_c, 1, 66, 0
3, 695520, Note_on_c, 1, 67, 79
3, 695580, Note_on_c, 1, 67, 0
3, 695580, Note_on_c, 1, 66, 79
3, 695640, Note_on_c, 1, 66, 0
3, 695640, Note_on_c, 1, 67, 79
3, 695700, Note_on_c, 1, 67, 0
3, 695700, Note_on_c, 1, 66, 79
3, 695760, Note_on_c, 1, 66, 0
3, 695760, Note_on_c, 1, 67, 79
3, 695820, Note_on_c, 1, 67, 0
3, 695820, Note_on_c, 1, 66, 79
3, 695880, Note_on_c, 1, 66, 0
3, 695880, Note_on_c, 1, 67, 79
3, 695940, Note_on_c, 1, 67, 0
3, 695940, Note_on_c, 1, 66, 79
3, 696000, Note_on_c, 1, 66, 0
3, 696000, Note_on_c, 1, 66, 79
3, 696864, Control_c, 1, 7, 56
3, 696960, Note_on_c, 1, 66, 0
3, 698880, Note_on_c, 1, 67, 79
3, 699360, Note_on_c, 1, 67, 0
3, 699360, Note_on_c, 1, 67, 79
3, 699840, Note_on_c, 1, 67, 0
3, 699840, Note_on_c, 1, 69, 79
3, 700080, Note_on_c, 1, 69, 0
3, 700080, Note_on_c, 1, 67, 79
3, 700320, Note_on_c, 1, 67, 0
3, 700320, Note_on_c, 1, 64, 79
3, 700560, Note_on_c, 1, 64, 0
3, 700560, Note_on_c, 1, 66, 79
3, 700800, Note_on_c, 1, 66, 0
3, 700800, Note_on_c, 1, 69, 79
3, 701280, Note_on_c, 1, 69, 0
3, 701280, Note_on_c, 1, 69, 79
3, 701760, Note_on_c, 1, 69, 0
3, 701760, Note_on_c, 1, 69, 79
3, 702720, Note_on_c, 1, 69, 0
3, 702720, Note_on_c, 1, 60, 79
3, 703200, Note_on_c, 1, 60, 0
3, 703200, Note_on_c, 1, 60, 79
3, 703680, Note_on_c, 1, 60, 0
3, 703680, Note_on_c, 1, 62, 79
3, 703920, Note_on_c, 1, 62, 0
3, 703920, Note_on_c, 1, 60, 79
3, 704160, Note_on_c, 1, 60, 0
3, 704160, Note_on_c, 1, 59, 79
3, 704400, Note_on_c, 1, 59, 0
3, 704400, Note_on_c, 1, 57, 79
3, 704640, Note_on_c, 1, 57, 0
3, 704640, Note_on_c, 1, 55, 79
3, 704735, Control_c, 1, 7, 56
3, 704736, Control_c, 1, 7, 96
3, 705120, Note_on_c, 1, 55, 0
3, 705120, Note_on_c, 1, 55, 79
3, 705600, Note_on_c, 1, 55, 0
3, 705600, Note_on_c, 1, 55, 79
3, 706560, Note_on_c, 1, 55, 0
3, 706560, Note_on_c, 1, 72, 79
3, 706800, Note_on_c, 1, 72, 0
3, 706800, Note_on_c, 1, 71, 79
3, 707040, Note_on_c, 1, 71, 0
3, 707040, Note_on_c, 1, 72, 79
3, 707280, Note_on_c, 1, 72, 0
3, 707280, Note_on_c, 1, 69, 79
3, 707520, Note_on_c, 1, 69, 0
3, 707520, Note_on_c, 1, 71, 79
3, 707760, Note_on_c, 1, 71, 0
3, 707760, Note_on_c, 1, 69, 79
3, 708000, Note_on_c, 1, 69, 0
3, 708000, Note_on_c, 1, 71, 79
3, 708240, Note_on_c, 1, 71, 0
3, 708240, Note_on_c, 1, 66, 79
3, 708480, Note_on_c, 1, 66, 0
3, 708480, Note_on_c, 1, 67, 79
3, 708720, Note_on_c, 1, 67, 0
3, 708720, Note_on_c, 1, 66, 79
3, 708960, Note_on_c, 1, 66, 0
3, 708960, Note_on_c, 1, 67, 79
3, 709200, Note_on_c, 1, 67, 0
3, 709200, Note_on_c, 1, 69, 79
3, 709440, Note_on_c, 1, 69, 0
3, 709440, Note_on_c, 1, 71, 79
3, 709920, Note_on_c, 1, 71, 0
3, 710400, Note_on_c, 1, 68, 79
3, 710460, Note_on_c, 1, 68, 0
3, 710460, Note_on_c, 1, 66, 79
3, 710520, Note_on_c, 1, 66, 0
3, 710520, Note_on_c, 1, 68, 79
3, 710580, Note_on_c, 1, 68, 0
3, 710580, Note_on_c, 1, 66, 79
3, 710700, Note_on_c, 1, 66, 0
3, 710700, Note_on_c, 1, 68, 79
3, 710760, Note_on_c, 1, 68, 0
3, 710760, Note_on_c, 1, 66, 79
3, 710820, Note_on_c, 1, 66, 0
3, 710820, Note_on_c, 1, 68, 79
3, 710880, Note_on_c, 1, 68, 0
3, 710880, Note_on_c, 1, 66, 79
3, 710940, Note_on_c, 1, 66, 0
3, 710940, Note_on_c, 1, 68, 79
3, 711000, Note_on_c, 1, 68, 0
3, 711000, Note_on_c, 1, 66, 79
3, 711060, Note_on_c, 1, 66, 0
3, 711060, Note_on_c, 1, 68, 79
3, 711120, Note_on_c, 1, 68, 0
3, 711120, Note_on_c, 1, 66, 79
3, 711180, Note_on_c, 1, 66, 0
3, 711180, Note_on_c, 1, 68, 79
3, 711240, Note_on_c, 1, 68, 0
3, 711240, Note_on_c, 1, 66, 79
3, 711360, Note_on_c, 1, 66, 0
3, 711360, Note_on_c, 1, 67, 79
3, 711840, Note_on_c, 1, 67, 0
3, 712320, Note_on_c, 1, 64, 79
3, 712800, Note_on_c, 1, 64, 0
3, 712800, Note_on_c, 1, 66, 79
3, 713040, Note_on_c, 1, 66, 0
3, 713040, Note_on_c, 1, 67, 79
3, 713280, Note_on_c, 1, 67, 0
3, 713280, Note_on_c, 1, 67, 79
3, 713520, Note_on_c, 1, 67, 0
3, 713520, Note_on_c, 1, 66, 79
3, 713760, Note_on_c, 1, 66, 0
3, 713760, Note_on_c, 1, 71, 79
3, 714000, Note_on_c, 1, 71, 0
3, 714000, Note_on_c, 1, 69, 79
3, 714240, Note_on_c, 1, 69, 0
3, 714240, Note_on_c, 1, 69, 79
3, 714480, Note_on_c, 1, 69, 0
3, 714480, Note_on_c, 1, 67, 79
3, 714720, Note_on_c, 1, 67, 0
3, 714720, Note_on_c, 1, 66, 79
3, 714960, Note_on_c, 1, 66, 0
3, 714960, Note_on_c, 1, 64, 79
3, 715200, Note_on_c, 1, 64, 0
3, 715200, Note_on_c, 1, 67, 79
3, 715440, Note_on_c, 1, 67, 0
3, 715440, Note_on_c, 1, 66, 79
3, 715680, Note_on_c, 1, 66, 0
3, 715680, Note_on_c, 1, 62, 79
3, 715920, Note_on_c, 1, 62, 0
3, 715920, Note_on_c, 1, 61, 79
3, 716160, Note_on_c, 1, 61, 0
3, 716160, Note_on_c, 1, 64, 79
3, 716400, Note_on_c, 1, 64, 0
3, 716400, Note_on_c, 1, 62, 79
3, 716640, Note_on_c, 1, 62, 0
3, 716640, Note_on_c, 1, 66, 79
3, 716880, Note_on_c, 1, 66, 0
3, 716880, Note_on_c, 1, 64, 79
3, 717120, Note_on_c, 1, 64, 0
3, 717120, Note_on_c, 1, 67, 79
3, 717360, Note_on_c, 1, 67, 0
3, 717360, Note_on_c, 1, 66, 79
3, 717600, Note_on_c, 1, 66, 0
3, 717600, Note_on_c, 1, 64, 79
3, 717840, Note_on_c, 1, 64, 0
3, 717840, Note_on_c, 1, 62, 79
3, 718080, Note_on_c, 1, 62, 0
3, 718080, Note_on_c, 1, 71, 79
3, 718560, Note_on_c, 1, 71, 0
3, 718560, Note_on_c, 1, 67, 79
3, 719040, Note_on_c, 1, 67, 0
3, 719040, Note_on_c, 1, 66, 79
3, 719520, Note_on_c, 1, 66, 0
3, 719520, Note_on_c, 1, 64, 79
3, 720000, Note_on_c, 1, 64, 0
3, 720000, Note_on_c, 1, 64, 79
3, 720480, Note_on_c, 1, 64, 0
3, 720480, Note_on_c, 1, 66, 79
3, 720720, Note_on_c, 1, 66, 0
3, 720720, Note_on_c, 1, 67, 79
3, 720960, Note_on_c, 1, 67, 0
3, 720960, Note_on_c, 1, 67, 79
3, 721200, Note_on_c, 1, 67, 0
3, 721200, Note_on_c, 1, 66, 79
3, 721440, Note_on_c, 1, 66, 0
3, 721440, Note_on_c, 1, 71, 79
3, 721680, Note_on_c, 1, 71, 0
3, 721680, Note_on_c, 1, 69, 79
3, 721920, Note_on_c, 1, 69, 0
3, 721920, Note_on_c, 1, 69, 79
3, 722160, Note_on_c, 1, 69, 0
3, 722160, Note_on_c, 1, 67, 79
3, 722400, Note_on_c, 1, 67, 0
3, 722400, Note_on_c, 1, 66, 79
3, 722640, Note_on_c, 1, 66, 0
3, 722640, Note_on_c, 1, 64, 79
3, 722880, Note_on_c, 1, 64, 0
3, 722880, Note_on_c, 1, 67, 79
3, 723120, Note_on_c, 1, 67, 0
3, 723120, Note_on_c, 1, 66, 79
3, 723360, Note_on_c, 1, 66, 0
3, 723360, Note_on_c, 1, 62, 79
3, 723600, Note_on_c, 1, 62, 0
3, 723600, Note_on_c, 1, 61, 79
3, 723840, Note_on_c, 1, 61, 0
3, 723840, Note_on_c, 1, 64, 79
3, 724080, Note_on_c, 1, 64, 0
3, 724080, Note_on_c, 1, 62, 79
3, 724320, Note_on_c, 1, 62, 0
3, 724320, Note_on_c, 1, 66, 79
3, 724560, Note_on_c, 1, 66, 0
3, 724560, Note_on_c, 1, 64, 79
3, 724800, Note_on_c, 1, 64, 0
3, 724800, Note_on_c, 1, 67, 79
3, 725040, Note_on_c, 1, 67, 0
3, 725040, Note_on_c, 1, 66, 79
3, 725280, Note_on_c, 1, 66, 0
3, 725280, Note_on_c, 1, 71, 79
3, 725520, Note_on_c, 1, 71, 0
3, 725520, Note_on_c, 1, 69, 79
3, 725760, Note_on_c, 1, 69, 0
3, 725760, Note_on_c, 1, 69, 79
3, 726000, Note_on_c, 1, 69, 0
3, 726000, Note_on_c, 1, 67, 79
3, 726240, Note_on_c, 1, 67, 0
3, 726240, Note_on_c, 1, 66, 79
3, 726480, Note_on_c, 1, 66, 0
3, 726480, Note_on_c, 1, 64, 79
3, 726720, Note_on_c, 1, 64, 0
3, 726720, Note_on_c, 1, 66, 79
3, 727679, Control_c, 1, 7, 96
3, 727680, Note_on_c, 1, 66, 0
3, 727680, Control_c, 1, 7, 58
3, 729120, Note_on_c, 1, 62, 36
3, 729600, Note_on_c, 1, 62, 0
3, 730080, Note_on_c, 1, 62, 36
3, 730560, Note_on_c, 1, 62, 0
3, 731040, Note_on_c, 1, 60, 36
3, 731520, Note_on_c, 1, 60, 0
3, 732000, Note_on_c, 1, 64, 36
3, 732480, Note_on_c, 1, 64, 0
3, 732960, Note_on_c, 1, 60, 36
3, 733440, Note_on_c, 1, 60, 0
3, 733920, Note_on_c, 1, 60, 36
3, 734400, Note_on_c, 1, 60, 0
3, 734880, Note_on_c, 1, 59, 36
3, 735360, Note_on_c, 1, 59, 0
3, 735360, Note_on_c, 1, 79, 79
3, 735408, Control_c, 1, 7, 102
3, 735600, Note_on_c, 1, 79, 0
3, 735600, Note_on_c, 1, 78, 79
3, 735840, Note_on_c, 1, 78, 0
3, 735840, Note_on_c, 1, 76, 79
3, 736080, Note_on_c, 1, 76, 0
3, 736080, Note_on_c, 1, 74, 79
3, 736320, Note_on_c, 1, 74, 0
3, 736320, Note_on_c, 1, 76, 79
3, 736560, Note_on_c, 1, 76, 0
3, 736560, Note_on_c, 1, 74, 79
3, 736800, Note_on_c, 1, 74, 0
3, 736800, Note_on_c, 1, 72, 79
3, 737040, Note_on_c, 1, 72, 0
3, 737040, Note_on_c, 1, 71, 79
3, 737280, Note_on_c, 1, 71, 0
3, 737280, Note_on_c, 1, 72, 79
3, 737520, Note_on_c, 1, 72, 0
3, 737520, Note_on_c, 1, 71, 79
3, 737760, Note_on_c, 1, 71, 0
3, 737760, Note_on_c, 1, 69, 79
3, 738000, Note_on_c, 1, 69, 0
3, 738000, Note_on_c, 1, 67, 79
3, 738240, Note_on_c, 1, 67, 0
3, 738240, Note_on_c, 1, 69, 79
3, 738480, Note_on_c, 1, 69, 0
3, 738480, Note_on_c, 1, 67, 79
3, 738720, Note_on_c, 1, 67, 0
3, 738720, Note_on_c, 1, 66, 79
3, 738960, Note_on_c, 1, 66, 0
3, 738960, Note_on_c, 1, 64, 79
3, 739200, Note_on_c, 1, 64, 0
3, 739200, Note_on_c, 1, 66, 79
3, 739440, Note_on_c, 1, 66, 0
3, 739440, Note_on_c, 1, 64, 79
3, 739680, Note_on_c, 1, 64, 0
3, 739680, Note_on_c, 1, 62, 79
3, 739920, Note_on_c, 1, 62, 0
3, 739920, Note_on_c, 1, 61, 79
3, 740160, Note_on_c, 1, 61, 0
3, 740160, Note_on_c, 1, 62, 79
3, 740640, Note_on_c, 1, 62, 0
3, 740640, Note_on_c, 1, 69, 79
3, 741600, Note_on_c, 1, 69, 0
3, 741600, Note_on_c, 1, 69, 79
3, 741660, Note_on_c, 1, 69, 0
3, 741660, Note_on_c, 1, 67, 79
3, 741720, Note_on_c, 1, 67, 0
3, 741720, Note_on_c, 1, 69, 79
3, 741780, Note_on_c, 1, 69, 0
3, 741780, Note_on_c, 1, 67, 79
3, 741840, Note_on_c, 1, 67, 0
3, 741840, Note_on_c, 1, 69, 79
3, 741900, Note_on_c, 1, 69, 0
3, 741900, Note_on_c, 1, 67, 79
3, 741960, Note_on_c, 1, 67, 0
3, 741960, Note_on_c, 1, 69, 79
3, 742020, Note_on_c, 1, 69, 0
3, 742020, Note_on_c, 1, 67, 79
3, 742080, Note_on_c, 1, 67, 0
3, 742080, Note_on_c, 1, 66, 79
3, 742560, Note_on_c, 1, 66, 0
3, 742920, Control_c, 1, 7, 102
3, 743279, Control_c, 1, 7, 102
3, 743280, Control_c, 1, 7, 46
3, 744960, Note_on_c, 1, 67, 79
3, 745440, Note_on_c, 1, 67, 0
3, 745440, Note_on_c, 1, 67, 79
3, 745920, Note_on_c, 1, 67, 0
3, 745920, Note_on_c, 1, 69, 79
3, 746160, Note_on_c, 1, 69, 0
3, 746160, Note_on_c, 1, 67, 79
3, 746400, Note_on_c, 1, 67, 0
3, 746400, Note_on_c, 1, 66, 79
3, 746640, Note_on_c, 1, 66, 0
3, 746640, Note_on_c, 1, 64, 79
3, 746880, Note_on_c, 1, 64, 0
3, 746880, Note_on_c, 1, 69, 79
3, 747360, Note_on_c, 1, 69, 0
3, 747360, Note_on_c, 1, 69, 79
3, 747840, Note_on_c, 1, 69, 0
3, 747840, Note_on_c, 1, 69, 79
3, 748800, Note_on_c, 1, 69, 0
3, 748800, Note_on_c, 1, 60, 79
3, 749280, Note_on_c, 1, 60, 0
3, 749280, Note_on_c, 1, 60, 79
3, 749760, Note_on_c, 1, 60, 0
3, 749760, Note_on_c, 1, 62, 79
3, 750000, Note_on_c, 1, 62, 0
3, 750000, Note_on_c, 1, 60, 79
3, 750240, Note_on_c, 1, 60, 0
3, 750240, Note_on_c, 1, 59, 79
3, 750480, Note_on_c, 1, 59, 0
3, 750480, Note_on_c, 1, 57, 79
3, 750720, Note_on_c, 1, 57, 0
3, 750720, Note_on_c, 1, 55, 79
3, 751200, Note_on_c, 1, 55, 0
3, 751200, Note_on_c, 1, 55, 79
3, 751680, Note_on_c, 1, 55, 0
3, 751680, Note_on_c, 1, 55, 79
3, 752640, Note_on_c, 1, 55, 0
3, 752640, Note_on_c, 1, 72, 79
3, 752880, Note_on_c, 1, 72, 0
3, 752880, Note_on_c, 1, 71, 79
3, 753120, Note_on_c, 1, 71, 0
3, 753120, Note_on_c, 1, 72, 79
3, 753360, Note_on_c, 1, 72, 0
3, 753360, Note_on_c, 1, 69, 79
3, 753600, Note_on_c, 1, 69, 0
3, 753600, Note_on_c, 1, 71, 79
3, 753840, Note_on_c, 1, 71, 0
3, 753840, Note_on_c, 1, 69, 79
3, 754080, Note_on_c, 1, 69, 0
3, 754080, Note_on_c, 1, 71, 79
3, 754320, Note_on_c, 1, 71, 0
3, 754320, Note_on_c, 1, 66, 79
3, 754560, Note_on_c, 1, 66, 0
3, 754560, Note_on_c, 1, 67, 79
3, 754800, Note_on_c, 1, 67, 0
3, 754800, Note_on_c, 1, 66, 79
3, 755040, Note_on_c, 1, 66, 0
3, 755040, Note_on_c, 1, 67, 79
3, 755280, Note_on_c, 1, 67, 0
3, 755280, Note_on_c, 1, 69, 79
3, 755520, Note_on_c, 1, 69, 0
3, 755520, Note_on_c, 1, 71, 79
3, 756000, Note_on_c, 1, 71, 0
3, 756480, Note_on_c, 1, 69, 79
3, 756540, Note_on_c, 1, 69, 0
3, 756540, Note_on_c, 1, 66, 79
3, 756600, Note_on_c, 1, 66, 0
3, 756600, Note_on_c, 1, 69, 79
3, 756660, Note_on_c, 1, 69, 0
3, 756660, Note_on_c, 1, 66, 79
3, 756780, Note_on_c, 1, 66, 0
3, 756780, Note_on_c, 1, 69, 79
3, 756840, Note_on_c, 1, 69, 0
3, 756840, Note_on_c, 1, 66, 79
3, 756900, Note_on_c, 1, 66, 0
3, 756900, Note_on_c, 1, 69, 79
3, 756960, Note_on_c, 1, 69, 0
3, 756960, Note_on_c, 1, 66, 79
3, 757020, Note_on_c, 1, 66, 0
3, 757020, Note_on_c, 1, 69, 79
3, 757080, Note_on_c, 1, 69, 0
3, 757080, Note_on_c, 1, 66, 79
3, 757140, Note_on_c, 1, 66, 0
3, 757140, Note_on_c, 1, 69, 79
3, 757200, Note_on_c, 1, 69, 0
3, 757200, Note_on_c, 1, 66, 79
3, 757320, Note_on_c, 1, 66, 0
3, 757320, Note_on_c, 1, 69, 79
3, 757380, Note_on_c, 1, 69, 0
3, 757380, Note_on_c, 1, 66, 79
3, 757440, Note_on_c, 1, 66, 0
3, 757440, Note_on_c, 1, 67, 79
3, 757920, Note_on_c, 1, 67, 0
3, 759023, Control_c, 1, 7, 46
3, 761280, Note_on_c, 1, 67, 79
3, 761760, Note_on_c, 1, 67, 0
3, 761760, Note_on_c, 1, 67, 79
3, 762240, Note_on_c, 1, 67, 0
3, 762240, Note_on_c, 1, 69, 79
3, 762480, Note_on_c, 1, 69, 0
3, 762480, Note_on_c, 1, 67, 79
3, 762720, Note_on_c, 1, 67, 0
3, 762720, Note_on_c, 1, 66, 79
3, 762960, Note_on_c, 1, 66, 0
3, 762960, Note_on_c, 1, 64, 79
3, 763200, Note_on_c, 1, 64, 0
3, 763200, Note_on_c, 1, 69, 79
3, 763680, Note_on_c, 1, 69, 0
3, 763680, Note_on_c, 1, 69, 79
3, 764160, Note_on_c, 1, 69, 0
3, 764160, Note_on_c, 1, 69, 79
3, 765120, Note_on_c, 1, 69, 0
3, 765120, Note_on_c, 1, 60, 79
3, 765600, Note_on_c, 1, 60, 0
3, 765600, Note_on_c, 1, 60, 79
3, 766080, Note_on_c, 1, 60, 0
3, 766080, Note_on_c, 1, 62, 79
3, 766320, Note_on_c, 1, 62, 0
3, 766320, Note_on_c, 1, 60, 79
3, 766560, Note_on_c, 1, 60, 0
3, 766560, Note_on_c, 1, 59, 79
3, 766800, Note_on_c, 1, 59, 0
3, 766800, Note_on_c, 1, 57, 79
3, 767040, Note_on_c, 1, 57, 0
3, 767040, Note_on_c, 1, 55, 79
3, 767520, Note_on_c, 1, 55, 0
3, 767520, Note_on_c, 1, 55, 79
3, 768000, Note_on_c, 1, 55, 0
3, 768000, Note_on_c, 1, 55, 79
3, 768096, Control_c, 1, 7, 96
3, 768960, Note_on_c, 1, 55, 0
3, 768960, Note_on_c, 1, 72, 79
3, 769200, Note_on_c, 1, 72, 0
3, 769200, Note_on_c, 1, 71, 79
3, 769440, Note_on_c, 1, 71, 0
3, 769440, Note_on_c, 1, 72, 79
3, 769680, Note_on_c, 1, 72, 0
3, 769680, Note_on_c, 1, 69, 79
3, 769920, Note_on_c, 1, 69, 0
3, 769920, Note_on_c, 1, 71, 79
3, 770160, Note_on_c, 1, 71, 0
3, 770160, Note_on_c, 1, 69, 79
3, 770216, Control_c, 1, 7, 96
3, 770400, Note_on_c, 1, 69, 0
3, 770400, Note_on_c, 1, 71, 79
3, 770640, Note_on_c, 1, 71, 0
3, 770640, Note_on_c, 1, 66, 79
3, 770880, Note_on_c, 1, 66, 0
3, 770880, Note_on_c, 1, 67, 79
3, 771120, Note_on_c, 1, 67, 0
3, 771120, Note_on_c, 1, 66, 79
3, 771360, Note_on_c, 1, 66, 0
3, 771360, Note_on_c, 1, 67, 79
3, 771600, Note_on_c, 1, 67, 0
3, 771600, Note_on_c, 1, 69, 79
3, 771840, Note_on_c, 1, 69, 0
3, 771840, Note_on_c, 1, 71, 79
3, 772320, Note_on_c, 1, 71, 0
3, 772336, Control_c, 1, 7, 97
3, 774456, Control_c, 1, 7, 98
3, 776576, Control_c, 1, 7, 99
3, 776640, Note_on_c, 1, 64, 79
3, 776880, Note_on_c, 1, 64, 0
3, 776880, Note_on_c, 1, 62, 79
3, 777120, Note_on_c, 1, 62, 0
3, 777120, Note_on_c, 1, 64, 79
3, 777360, Note_on_c, 1, 64, 0
3, 777360, Note_on_c, 1, 66, 79
3, 777600, Note_on_c, 1, 66, 0
3, 777600, Note_on_c, 1, 67, 79
3, 777840, Note_on_c, 1, 67, 0
3, 777840, Note_on_c, 1, 66, 79
3, 778080, Note_on_c, 1, 66, 0
3, 778080, Note_on_c, 1, 67, 79
3, 778320, Note_on_c, 1, 67, 0
3, 778320, Note_on_c, 1, 69, 79
3, 778560, Note_on_c, 1, 69, 0
3, 778560, Note_on_c, 1, 71, 79
3, 778696, Control_c, 1, 7, 100
3, 778800, Note_on_c, 1, 71, 0
3, 778800, Note_on_c, 1, 69, 79
3, 779040, Note_on_c, 1, 69, 0
3, 779040, Note_on_c, 1, 71, 79
3, 779280, Note_on_c, 1, 71, 0
3, 779280, Note_on_c, 1, 72, 79
3, 779520, Note_on_c, 1, 72, 0
3, 779520, Note_on_c, 1, 74, 79
3, 780000, Note_on_c, 1, 74, 0
3, 780815, Control_c, 1, 7, 102
3, 781392, Control_c, 1, 7, 48
3, 781440, Note_on_c, 1, 68, 36
3, 781444, Note_on_c, 1, 66, 58
3, 781455, Control_c, 1, 7, 80
3, 781558, Control_c, 1, 7, 79
3, 781560, Note_on_c, 1, 68, 0
3, 781560, Note_on_c, 1, 66, 36
3, 781661, Control_c, 1, 7, 78
3, 781680, Note_on_c, 1, 66, 0
3, 781680, Note_on_c, 1, 68, 36
3, 781764, Control_c, 1, 7, 77
3, 781800, Note_on_c, 1, 68, 0
3, 781800, Note_on_c, 1, 66, 36
3, 781868, Control_c, 1, 7, 76
3, 781920, Note_on_c, 1, 66, 0
3, 781920, Note_on_c, 1, 68, 36
3, 781971, Control_c, 1, 7, 75
3, 782040, Note_on_c, 1, 68, 0
3, 782040, Note_on_c, 1, 66, 36
3, 782074, Control_c, 1, 7, 74
3, 782160, Note_on_c, 1, 66, 0
3, 782160, Note_on_c, 1, 68, 36
3, 782177, Control_c, 1, 7, 73
3, 782280, Note_on_c, 1, 68, 0
3, 782280, Note_on_c, 1, 66, 36
3, 782281, Control_c, 1, 7, 72
3, 782384, Control_c, 1, 7, 71
3, 782400, Note_on_c, 1, 66, 0
3, 782400, Note_on_c, 1, 68, 36
3, 782487, Control_c, 1, 7, 70
3, 782520, Note_on_c, 1, 68, 0
3, 782520, Note_on_c, 1, 66, 36
3, 782590, Control_c, 1, 7, 69
3, 782640, Note_on_c, 1, 66, 0
3, 782640, Note_on_c, 1, 68, 36
3, 782694, Control_c, 1, 7, 68
3, 782760, Note_on_c, 1, 68, 0
3, 782760, Note_on_c, 1, 66, 36
3, 782797, Control_c, 1, 7, 67
3, 782880, Note_on_c, 1, 66, 0
3, 782880, Note_on_c, 1, 68, 36
3, 782900, Control_c, 1, 7, 66
3, 783000, Note_on_c, 1, 68, 0
3, 783000, Note_on_c, 1, 66, 36
3, 783003, Control_c, 1, 7, 65
3, 783107, Control_c, 1, 7, 64
3, 783120, Note_on_c, 1, 66, 0
3, 783120, Note_on_c, 1, 68, 36
3, 783210, Control_c, 1, 7, 63
3, 783240, Note_on_c, 1, 68, 0
3, 783240, Note_on_c, 1, 66, 36
3, 783313, Control_c, 1, 7, 62
3, 783360, Note_on_c, 1, 66, 0
3, 783364, Note_on_c, 1, 66, 0
3, 783380, Note_on_c, 1, 67, 58
3, 783416, Control_c, 1, 7, 61
3, 783520, Control_c, 1, 7, 60
3, 783620, Note_on_c, 1, 67, 0
3, 783623, Control_c, 1, 7, 59
3, 783726, Control_c, 1, 7, 58
3, 783829, Control_c, 1, 7, 57
3, 783933, Control_c, 1, 7, 56
3, 784036, Control_c, 1, 7, 55
3, 784139, Control_c, 1, 7, 54
3, 784242, Control_c, 1, 7, 53
3, 784346, Control_c, 1, 7, 52
3, 784449, Control_c, 1, 7, 51
3, 784552, Control_c, 1, 7, 50
3, 784655, Control_c, 1, 7, 49
3, 784758, Control_c, 1, 7, 48
3, 784758, End_track
4, 0, Start_track
4, 0, MIDI_port, 0
4, 0, Title_t, "Viola"
4, 0, Program_c, 2, 41
4, 0, Control_c, 2, 7, 95
4, 0, Control_c, 2, 10, 74
4, 0, Note_on_c, 2, 59, 36
4, 48, Control_c, 2, 7, 64
4, 240, Note_on_c, 2, 59, 0
4, 240, Note_on_c, 2, 59, 36
4, 480, Note_on_c, 2, 59, 0
4, 480, Note_on_c, 2, 59, 36
4, 720, Note_on_c, 2, 59, 0
4, 720, Note_on_c, 2, 59, 36
4, 960, Note_on_c, 2, 59, 0
4, 960, Note_on_c, 2, 59, 36
4, 1200, Note_on_c, 2, 59, 0
4, 1200, Note_on_c, 2, 59, 36
4, 1440, Note_on_c, 2, 59, 0
4, 1440, Note_on_c, 2, 60, 36
4, 1680, Note_on_c, 2, 60, 0
4, 1680, Note_on_c, 2, 60, 36
4, 1920, Note_on_c, 2, 60, 0
4, 1920, Note_on_c, 2, 60, 36
4, 2160, Note_on_c, 2, 60, 0
4, 2160, Note_on_c, 2, 60, 36
4, 2400, Note_on_c, 2, 60, 0
4, 2400, Note_on_c, 2, 60, 36
4, 2640, Note_on_c, 2, 60, 0
4, 2640, Note_on_c, 2, 59, 36
4, 2880, Note_on_c, 2, 59, 0
4, 2880, Note_on_c, 2, 57, 36
4, 3120, Note_on_c, 2, 57, 0
4, 3120, Note_on_c, 2, 57, 36
4, 3360, Note_on_c, 2, 57, 0
4, 3360, Note_on_c, 2, 57, 36
4, 3600, Note_on_c, 2, 57, 0
4, 3600, Note_on_c, 2, 57, 36
4, 3840, Note_on_c, 2, 57, 0
4, 3840, Note_on_c, 2, 57, 36
4, 4080, Note_on_c, 2, 57, 0
4, 4080, Note_on_c, 2, 57, 36
4, 4320, Note_on_c, 2, 57, 0
4, 4320, Note_on_c, 2, 59, 36
4, 4560, Note_on_c, 2, 59, 0
4, 4560, Note_on_c, 2, 55, 36
4, 4800, Note_on_c, 2, 55, 0
4, 4800, Note_on_c, 2, 55, 36
4, 5280, Note_on_c, 2, 55, 0
4, 7200, Note_on_c, 2, 67, 36
4, 7440, Note_on_c, 2, 67, 0
4, 7440, Note_on_c, 2, 55, 36
4, 7920, Note_on_c, 2, 55, 0
4, 7920, Note_on_c, 2, 55, 36
4, 8160, Note_on_c, 2, 55, 0
4, 8280, Note_on_c, 2, 59, 36
4, 8400, Note_on_c, 2, 59, 0
4, 8400, Note_on_c, 2, 60, 36
4, 8520, Note_on_c, 2, 60, 0
4, 8520, Note_on_c, 2, 62, 36
4, 8640, Note_on_c, 2, 62, 0
4, 8640, Note_on_c, 2, 64, 36
4, 8880, Note_on_c, 2, 64, 0
4, 8880, Note_on_c, 2, 64, 36
4, 9120, Note_on_c, 2, 64, 0
4, 9120, Note_on_c, 2, 64, 36
4, 9360, Note_on_c, 2, 64, 0
4, 9360, Note_on_c, 2, 64, 36
4, 9600, Note_on_c, 2, 64, 0
4, 9600, Note_on_c, 2, 64, 36
4, 9840, Note_on_c, 2, 64, 0
4, 9840, Note_on_c, 2, 64, 36
4, 10080, Note_on_c, 2, 64, 0
4, 10080, Note_on_c, 2, 62, 36
4, 10560, Note_on_c, 2, 62, 0
4, 11520, Note_on_c, 2, 66, 36
4, 11760, Note_on_c, 2, 66, 0
4, 11760, Note_on_c, 2, 66, 36
4, 12000, Note_on_c, 2, 66, 0
4, 12000, Note_on_c, 2, 66, 36
4, 12240, Note_on_c, 2, 66, 0
4, 12240, Note_on_c, 2, 66, 36
4, 12480, Note_on_c, 2, 66, 0
4, 12480, Note_on_c, 2, 66, 36
4, 12720, Note_on_c, 2, 66, 0
4, 12720, Note_on_c, 2, 66, 36
4, 12960, Note_on_c, 2, 66, 0
4, 12960, Note_on_c, 2, 64, 36
4, 13200, Note_on_c, 2, 64, 0
4, 13200, Note_on_c, 2, 64, 36
4, 13440, Note_on_c, 2, 64, 0
4, 13440, Note_on_c, 2, 64, 36
4, 13680, Note_on_c, 2, 64, 0
4, 13680, Note_on_c, 2, 64, 36
4, 13920, Note_on_c, 2, 64, 0
4, 13920, Note_on_c, 2, 64, 36
4, 14160, Note_on_c, 2, 64, 0
4, 14160, Note_on_c, 2, 64, 36
4, 14400, Note_on_c, 2, 64, 0
4, 14400, Note_on_c, 2, 62, 36
4, 14880, Note_on_c, 2, 62, 0
4, 17072, Control_c, 2, 7, 63
4, 17280, Note_on_c, 2, 64, 36
4, 17520, Note_on_c, 2, 64, 0
4, 17520, Note_on_c, 2, 64, 36
4, 18000, Note_on_c, 2, 64, 0
4, 18000, Note_on_c, 2, 64, 36
4, 18480, Note_on_c, 2, 64, 0
4, 18480, Note_on_c, 2, 64, 36
4, 18720, Note_on_c, 2, 64, 0
4, 18720, Note_on_c, 2, 64, 36
4, 18840, Note_on_c, 2, 64, 0
4, 18840, Note_on_c, 2, 62, 36
4, 18960, Note_on_c, 2, 62, 0
4, 18960, Note_on_c, 2, 61, 36
4, 19080, Note_on_c, 2, 61, 0
4, 19080, Note_on_c, 2, 62, 36
4, 19200, Note_on_c, 2, 62, 0
4, 19200, Note_on_c, 2, 61, 36
4, 19440, Note_on_c, 2, 61, 0
4, 19440, Note_on_c, 2, 71, 36
4, 19680, Note_on_c, 2, 71, 0
4, 19680, Note_on_c, 2, 69, 36
4, 19920, Note_on_c, 2, 69, 0
4, 19920, Note_on_c, 2, 61, 36
4, 20160, Note_on_c, 2, 61, 0
4, 20160, Note_on_c, 2, 62, 36
4, 20280, Note_on_c, 2, 62, 0
4, 20280, Note_on_c, 2, 61, 36
4, 20400, Note_on_c, 2, 61, 0
4, 20400, Note_on_c, 2, 62, 36
4, 20520, Note_on_c, 2, 62, 0
4, 20520, Note_on_c, 2, 64, 36
4, 20640, Note_on_c, 2, 64, 0
4, 20640, Note_on_c, 2, 66, 36
4, 20880, Note_on_c, 2, 66, 0
4, 20880, Note_on_c, 2, 66, 36
4, 21120, Note_on_c, 2, 66, 0
4, 21120, Note_on_c, 2, 66, 36
4, 21360, Note_on_c, 2, 66, 0
4, 21360, Note_on_c, 2, 66, 36
4, 21600, Note_on_c, 2, 66, 0
4, 21600, Note_on_c, 2, 67, 36
4, 21720, Note_on_c, 2, 67, 0
4, 21720, Note_on_c, 2, 64, 36
4, 21840, Note_on_c, 2, 64, 0
4, 21840, Note_on_c, 2, 66, 36
4, 21960, Note_on_c, 2, 66, 0
4, 21960, Note_on_c, 2, 62, 36
4, 22080, Note_on_c, 2, 62, 0
4, 22080, Note_on_c, 2, 61, 36
4, 22320, Note_on_c, 2, 61, 0
4, 22320, Note_on_c, 2, 64, 36
4, 22440, Note_on_c, 2, 64, 0
4, 22440, Note_on_c, 2, 62, 36
4, 22560, Note_on_c, 2, 62, 0
4, 22560, Note_on_c, 2, 57, 36
4, 22680, Note_on_c, 2, 57, 0
4, 22680, Note_on_c, 2, 71, 36
4, 22800, Note_on_c, 2, 71, 0
4, 22800, Note_on_c, 2, 69, 36
4, 22920, Note_on_c, 2, 69, 0
4, 22920, Note_on_c, 2, 61, 36
4, 23040, Note_on_c, 2, 61, 0
4, 23040, Note_on_c, 2, 62, 36
4, 23160, Note_on_c, 2, 62, 0
4, 23160, Note_on_c, 2, 61, 36
4, 23280, Note_on_c, 2, 61, 0
4, 23280, Note_on_c, 2, 62, 36
4, 23400, Note_on_c, 2, 62, 0
4, 23400, Note_on_c, 2, 64, 36
4, 23520, Note_on_c, 2, 64, 0
4, 23520, Note_on_c, 2, 66, 36
4, 23760, Note_on_c, 2, 66, 0
4, 23760, Note_on_c, 2, 66, 36
4, 24000, Note_on_c, 2, 66, 0
4, 24000, Note_on_c, 2, 66, 36
4, 24240, Note_on_c, 2, 66, 0
4, 24240, Note_on_c, 2, 66, 36
4, 24480, Note_on_c, 2, 66, 0
4, 24480, Note_on_c, 2, 67, 36
4, 24600, Note_on_c, 2, 67, 0
4, 24600, Note_on_c, 2, 64, 36
4, 24720, Note_on_c, 2, 64, 0
4, 24720, Note_on_c, 2, 66, 36
4, 24840, Note_on_c, 2, 66, 0
4, 24840, Note_on_c, 2, 62, 36
4, 24960, Note_on_c, 2, 62, 0
4, 24960, Note_on_c, 2, 61, 36
4, 25200, Note_on_c, 2, 61, 0
4, 25200, Note_on_c, 2, 64, 36
4, 25320, Note_on_c, 2, 64, 0
4, 25320, Note_on_c, 2, 61, 36
4, 25440, Note_on_c, 2, 61, 0
4, 25440, Note_on_c, 2, 57, 36
4, 25560, Note_on_c, 2, 57, 0
4, 25560, Note_on_c, 2, 71, 36
4, 25680, Note_on_c, 2, 71, 0
4, 25680, Note_on_c, 2, 69, 36
4, 25800, Note_on_c, 2, 69, 0
4, 25800, Note_on_c, 2, 61, 36
4, 25920, Note_on_c, 2, 61, 0
4, 25920, Note_on_c, 2, 62, 36
4, 26160, Note_on_c, 2, 62, 0
4, 26160, Note_on_c, 2, 62, 36
4, 26400, Note_on_c, 2, 62, 0
4, 26400, Note_on_c, 2, 62, 36
4, 26640, Note_on_c, 2, 62, 0
4, 26640, Note_on_c, 2, 62, 36
4, 26880, Note_on_c, 2, 62, 0
4, 26880, Note_on_c, 2, 62, 36
4, 27120, Note_on_c, 2, 62, 0
4, 27120, Note_on_c, 2, 62, 36
4, 27360, Note_on_c, 2, 62, 0
4, 27360, Note_on_c, 2, 62, 36
4, 27600, Note_on_c, 2, 62, 0
4, 28560, Note_on_c, 2, 67, 36
4, 28800, Note_on_c, 2, 67, 0
4, 28800, Note_on_c, 2, 69, 36
4, 29040, Note_on_c, 2, 69, 0
4, 29040, Note_on_c, 2, 69, 36
4, 29280, Note_on_c, 2, 69, 0
4, 29280, Note_on_c, 2, 69, 36
4, 29520, Note_on_c, 2, 69, 0
4, 29520, Note_on_c, 2, 69, 36
4, 29760, Note_on_c, 2, 69, 0
4, 29760, Note_on_c, 2, 69, 36
4, 30000, Note_on_c, 2, 69, 0
4, 30000, Note_on_c, 2, 69, 36
4, 30240, Note_on_c, 2, 69, 0
4, 30240, Note_on_c, 2, 66, 36
4, 30720, Note_on_c, 2, 66, 0
4, 30840, Note_on_c, 2, 66, 36
4, 30960, Note_on_c, 2, 66, 0
4, 30960, Note_on_c, 2, 64, 36
4, 31080, Note_on_c, 2, 64, 0
4, 31080, Note_on_c, 2, 66, 36
4, 31200, Note_on_c, 2, 66, 0
4, 31200, Note_on_c, 2, 67, 36
4, 31320, Note_on_c, 2, 67, 0
4, 31320, Note_on_c, 2, 66, 36
4, 31440, Note_on_c, 2, 66, 0
4, 31440, Note_on_c, 2, 64, 36
4, 31560, Note_on_c, 2, 64, 0
4, 31560, Note_on_c, 2, 66, 36
4, 31680, Note_on_c, 2, 66, 0
4, 31680, Note_on_c, 2, 66, 36
4, 32160, Note_on_c, 2, 66, 0
4, 32280, Note_on_c, 2, 62, 36
4, 32400, Note_on_c, 2, 62, 0
4, 32400, Note_on_c, 2, 61, 36
4, 32520, Note_on_c, 2, 61, 0
4, 32520, Note_on_c, 2, 62, 36
4, 32640, Note_on_c, 2, 62, 0
4, 32640, Note_on_c, 2, 64, 36
4, 32760, Note_on_c, 2, 64, 0
4, 32760, Note_on_c, 2, 62, 36
4, 32880, Note_on_c, 2, 62, 0
4, 32880, Note_on_c, 2, 61, 36
4, 33000, Note_on_c, 2, 61, 0
4, 33000, Note_on_c, 2, 62, 36
4, 33120, Note_on_c, 2, 62, 0
4, 33120, Note_on_c, 2, 62, 36
4, 33360, Note_on_c, 2, 62, 0
4, 33360, Note_on_c, 2, 64, 36
4, 33400, Note_on_c, 2, 64, 0
4, 33400, Note_on_c, 2, 66, 36
4, 33440, Note_on_c, 2, 66, 0
4, 33440, Note_on_c, 2, 67, 36
4, 33480, Note_on_c, 2, 67, 0
4, 33480, Note_on_c, 2, 69, 36
4, 33520, Note_on_c, 2, 69, 0
4, 33520, Note_on_c, 2, 71, 36
4, 33560, Note_on_c, 2, 71, 0
4, 33560, Note_on_c, 2, 73, 36
4, 33600, Note_on_c, 2, 73, 0
4, 33600, Note_on_c, 2, 74, 36
4, 33840, Note_on_c, 2, 74, 0
4, 33840, Note_on_c, 2, 62, 36
4, 34080, Note_on_c, 2, 62, 0
4, 34080, Note_on_c, 2, 62, 36
4, 34096, Control_c, 2, 7, 62
4, 34320, Note_on_c, 2, 62, 0
4, 34320, Note_on_c, 2, 62, 36
4, 34560, Note_on_c, 2, 62, 0
4, 34560, Note_on_c, 2, 62, 36
4, 34800, Note_on_c, 2, 62, 0
4, 34800, Note_on_c, 2, 59, 36
4, 35040, Note_on_c, 2, 59, 0
4, 35040, Note_on_c, 2, 57, 36
4, 35280, Note_on_c, 2, 57, 0
4, 35280, Note_on_c, 2, 57, 36
4, 35520, Note_on_c, 2, 57, 0
4, 35520, Note_on_c, 2, 57, 36
4, 35760, Note_on_c, 2, 57, 0
4, 35760, Note_on_c, 2, 55, 36
4, 36000, Note_on_c, 2, 55, 0
4, 36000, Note_on_c, 2, 54, 36
4, 36180, Note_on_c, 2, 54, 0
4, 36240, Note_on_c, 2, 66, 36
4, 36480, Note_on_c, 2, 66, 0
4, 36480, Note_on_c, 2, 67, 36
4, 36720, Note_on_c, 2, 67, 0
4, 36720, Note_on_c, 2, 66, 36
4, 36960, Note_on_c, 2, 66, 0
4, 36960, Note_on_c, 2, 67, 36
4, 37200, Note_on_c, 2, 67, 0
4, 37200, Note_on_c, 2, 64, 36
4, 37440, Note_on_c, 2, 64, 0
4, 37440, Note_on_c, 2, 62, 36
4, 38400, Note_on_c, 2, 62, 0
4, 38640, Note_on_c, 2, 64, 36
4, 38880, Note_on_c, 2, 64, 0
4, 38880, Note_on_c, 2, 64, 36
4, 39840, Note_on_c, 2, 64, 0
4, 39840, Note_on_c, 2, 62, 36
4, 40080, Note_on_c, 2, 62, 0
4, 40320, Note_on_c, 2, 74, 36
4, 41760, Note_on_c, 2, 74, 0
4, 41760, Note_on_c, 2, 74, 36
4, 42240, Note_on_c, 2, 74, 0
4, 42240, Note_on_c, 2, 73, 36
4, 43200, Note_on_c, 2, 73, 0
4, 43200, Note_on_c, 2, 72, 36
4, 43680, Note_on_c, 2, 72, 0
4, 43680, Note_on_c, 2, 71, 36
4, 44160, Note_on_c, 2, 71, 0
4, 44160, Note_on_c, 2, 72, 36
4, 44640, Note_on_c, 2, 72, 0
4, 44640, Note_on_c, 2, 71, 36
4, 45120, Note_on_c, 2, 71, 0
4, 45360, Note_on_c, 2, 62, 36
4, 45600, Note_on_c, 2, 62, 0
4, 45600, Note_on_c, 2, 64, 36
4, 45840, Note_on_c, 2, 64, 0
4, 45840, Note_on_c, 2, 64, 36
4, 46080, Note_on_c, 2, 64, 0
4, 46080, Note_on_c, 2, 62, 36
4, 46560, Note_on_c, 2, 62, 0
4, 47520, Note_on_c, 2, 71, 36
4, 47760, Note_on_c, 2, 71, 0
4, 47760, Note_on_c, 2, 71, 36
4, 48000, Note_on_c, 2, 71, 0
4, 48000, Note_on_c, 2, 71, 36
4, 48240, Note_on_c, 2, 71, 0
4, 48240, Note_on_c, 2, 71, 36
4, 48480, Note_on_c, 2, 71, 0
4, 48480, Note_on_c, 2, 71, 36
4, 48720, Note_on_c, 2, 71, 0
4, 48720, Note_on_c, 2, 71, 36
4, 48960, Note_on_c, 2, 71, 0
4, 48960, Note_on_c, 2, 64, 36
4, 49440, Note_on_c, 2, 64, 0
4, 49520, Note_on_c, 2, 57, 36
4, 49600, Note_on_c, 2, 57, 0
4, 49600, Note_on_c, 2, 60, 36
4, 49680, Note_on_c, 2, 60, 0
4, 49680, Note_on_c, 2, 64, 36
4, 49760, Note_on_c, 2, 64, 0
4, 49760, Note_on_c, 2, 60, 36
4, 49840, Note_on_c, 2, 60, 0
4, 49840, Note_on_c, 2, 64, 36
4, 49920, Note_on_c, 2, 64, 0
4, 49920, Note_on_c, 2, 69, 36
4, 50160, Note_on_c, 2, 69, 0
4, 50160, Note_on_c, 2, 64, 36
4, 50400, Note_on_c, 2, 64, 0
4, 50400, Note_on_c, 2, 66, 36
4, 50640, Note_on_c, 2, 66, 0
4, 50640, Note_on_c, 2, 66, 36
4, 50880, Note_on_c, 2, 66, 0
4, 50880, Note_on_c, 2, 66, 36
4, 51120, Note_on_c, 2, 66, 0
4, 51120, Control_c, 2, 7, 61
4, 51120, Note_on_c, 2, 66, 36
4, 51360, Note_on_c, 2, 66, 0
4, 51360, Note_on_c, 2, 66, 36
4, 51600, Note_on_c, 2, 66, 0
4, 51600, Note_on_c, 2, 66, 36
4, 51840, Note_on_c, 2, 66, 0
4, 51840, Note_on_c, 2, 67, 36
4, 52320, Note_on_c, 2, 67, 0
4, 52400, Note_on_c, 2, 55, 36
4, 52480, Note_on_c, 2, 55, 0
4, 52480, Note_on_c, 2, 59, 36
4, 52560, Note_on_c, 2, 59, 0
4, 52560, Note_on_c, 2, 62, 36
4, 52640, Note_on_c, 2, 62, 0
4, 52640, Note_on_c, 2, 59, 36
4, 52720, Note_on_c, 2, 59, 0
4, 52720, Note_on_c, 2, 62, 36
4, 52800, Note_on_c, 2, 62, 0
4, 52800, Note_on_c, 2, 67, 36
4, 53040, Note_on_c, 2, 67, 0
4, 53040, Note_on_c, 2, 62, 36
4, 53280, Note_on_c, 2, 62, 0
4, 53280, Note_on_c, 2, 60, 36
4, 53520, Note_on_c, 2, 60, 0
4, 53520, Note_on_c, 2, 60, 36
4, 53760, Note_on_c, 2, 60, 0
4, 53760, Note_on_c, 2, 60, 36
4, 54000, Note_on_c, 2, 60, 0
4, 54000, Note_on_c, 2, 64, 36
4, 54240, Note_on_c, 2, 64, 0
4, 54240, Note_on_c, 2, 64, 36
4, 54480, Note_on_c, 2, 64, 0
4, 54480, Note_on_c, 2, 64, 36
4, 54720, Note_on_c, 2, 64, 0
4, 54720, Note_on_c, 2, 57, 36
4, 54840, Note_on_c, 2, 57, 0
4, 54840, Note_on_c, 2, 55, 36
4, 54960, Note_on_c, 2, 55, 0
4, 54960, Note_on_c, 2, 54, 36
4, 55080, Note_on_c, 2, 54, 0
4, 55080, Note_on_c, 2, 55, 36
4, 55200, Note_on_c, 2, 55, 0
4, 55200, Note_on_c, 2, 54, 36
4, 55680, Note_on_c, 2, 54, 0
4, 56160, Note_on_c, 2, 59, 36
4, 56400, Note_on_c, 2, 59, 0
4, 56400, Note_on_c, 2, 59, 36
4, 56640, Note_on_c, 2, 59, 0
4, 56640, Note_on_c, 2, 59, 36
4, 56880, Note_on_c, 2, 59, 0
4, 56880, Note_on_c, 2, 59, 36
4, 57120, Note_on_c, 2, 59, 0
4, 57120, Note_on_c, 2, 59, 36
4, 57360, Note_on_c, 2, 59, 0
4, 57360, Note_on_c, 2, 59, 36
4, 57600, Note_on_c, 2, 59, 0
4, 57600, Note_on_c, 2, 60, 36
4, 57840, Note_on_c, 2, 60, 0
4, 57840, Note_on_c, 2, 60, 36
4, 58080, Note_on_c, 2, 60, 0
4, 58080, Note_on_c, 2, 60, 36
4, 58320, Note_on_c, 2, 60, 0
4, 58320, Note_on_c, 2, 60, 36
4, 58560, Note_on_c, 2, 60, 0
4, 58560, Note_on_c, 2, 60, 36
4, 58800, Note_on_c, 2, 60, 0
4, 58800, Note_on_c, 2, 59, 36
4, 58920, Note_on_c, 2, 59, 0
4, 58920, Note_on_c, 2, 60, 36
4, 59040, Note_on_c, 2, 60, 0
4, 59040, Note_on_c, 2, 62, 36
4, 59280, Note_on_c, 2, 62, 0
4, 59280, Note_on_c, 2, 62, 36
4, 59520, Note_on_c, 2, 62, 0
4, 59520, Note_on_c, 2, 57, 36
4, 59760, Note_on_c, 2, 57, 0
4, 59760, Note_on_c, 2, 57, 36
4, 60000, Note_on_c, 2, 57, 0
4, 60000, Note_on_c, 2, 57, 36
4, 60240, Note_on_c, 2, 57, 0
4, 60240, Note_on_c, 2, 57, 36
4, 60480, Note_on_c, 2, 57, 0
4, 60480, Note_on_c, 2, 59, 36
4, 60720, Note_on_c, 2, 59, 0
4, 60720, Note_on_c, 2, 57, 36
4, 60960, Note_on_c, 2, 57, 0
4, 60960, Note_on_c, 2, 55, 36
4, 61200, Note_on_c, 2, 55, 0
4, 61200, Note_on_c, 2, 67, 36
4, 61440, Note_on_c, 2, 67, 0
4, 61440, Note_on_c, 2, 66, 36
4, 61680, Note_on_c, 2, 66, 0
4, 61680, Note_on_c, 2, 67, 36
4, 61920, Note_on_c, 2, 67, 0
4, 61920, Note_on_c, 2, 67, 36
4, 62160, Note_on_c, 2, 67, 0
4, 62160, Note_on_c, 2, 67, 36
4, 62400, Note_on_c, 2, 67, 0
4, 62400, Note_on_c, 2, 67, 36
4, 62640, Note_on_c, 2, 67, 0
4, 62640, Note_on_c, 2, 67, 36
4, 62880, Note_on_c, 2, 67, 0
4, 62880, Note_on_c, 2, 67, 36
4, 63120, Note_on_c, 2, 67, 0
4, 63120, Note_on_c, 2, 67, 36
4, 63360, Note_on_c, 2, 67, 0
4, 63360, Note_on_c, 2, 67, 36
4, 63600, Note_on_c, 2, 67, 0
4, 63600, Note_on_c, 2, 67, 36
4, 63840, Note_on_c, 2, 67, 0
4, 63840, Note_on_c, 2, 55, 36
4, 64320, Note_on_c, 2, 55, 0
4, 65040, Note_on_c, 2, 62, 36
4, 65280, Note_on_c, 2, 62, 0
4, 65280, Note_on_c, 2, 64, 36
4, 65520, Note_on_c, 2, 64, 0
4, 65520, Note_on_c, 2, 64, 36
4, 65760, Note_on_c, 2, 64, 0
4, 65760, Note_on_c, 2, 64, 36
4, 66000, Note_on_c, 2, 64, 0
4, 66000, Note_on_c, 2, 64, 36
4, 66240, Note_on_c, 2, 64, 0
4, 66240, Note_on_c, 2, 62, 36
4, 66720, Note_on_c, 2, 62, 0
4, 67680, Note_on_c, 2, 71, 36
4, 67920, Note_on_c, 2, 71, 0
4, 67920, Note_on_c, 2, 71, 36
4, 68144, Control_c, 2, 7, 60
4, 68160, Note_on_c, 2, 71, 0
4, 68160, Note_on_c, 2, 71, 36
4, 68400, Note_on_c, 2, 71, 0
4, 68400, Note_on_c, 2, 71, 36
4, 68640, Note_on_c, 2, 71, 0
4, 68640, Note_on_c, 2, 71, 36
4, 68880, Note_on_c, 2, 71, 0
4, 68880, Note_on_c, 2, 71, 36
4, 69120, Note_on_c, 2, 71, 0
4, 69120, Note_on_c, 2, 69, 36
4, 69360, Note_on_c, 2, 69, 0
4, 69360, Note_on_c, 2, 69, 36
4, 69600, Note_on_c, 2, 69, 0
4, 69600, Note_on_c, 2, 69, 36
4, 69840, Note_on_c, 2, 69, 0
4, 69840, Note_on_c, 2, 69, 36
4, 70080, Note_on_c, 2, 69, 0
4, 70080, Note_on_c, 2, 69, 36
4, 70320, Note_on_c, 2, 69, 0
4, 70320, Note_on_c, 2, 69, 36
4, 70560, Note_on_c, 2, 69, 0
4, 70560, Note_on_c, 2, 67, 36
4, 71040, Note_on_c, 2, 67, 0
4, 73680, Note_on_c, 2, 69, 36
4, 74160, Note_on_c, 2, 69, 0
4, 74160, Note_on_c, 2, 69, 36
4, 74640, Note_on_c, 2, 69, 0
4, 74640, Note_on_c, 2, 69, 36
4, 74880, Note_on_c, 2, 69, 0
4, 74880, Note_on_c, 2, 69, 36
4, 75000, Note_on_c, 2, 69, 0
4, 75000, Note_on_c, 2, 67, 36
4, 75120, Note_on_c, 2, 67, 0
4, 75120, Note_on_c, 2, 66, 36
4, 75240, Note_on_c, 2, 66, 0
4, 75240, Note_on_c, 2, 67, 36
4, 75360, Note_on_c, 2, 67, 0
4, 75360, Note_on_c, 2, 66, 36
4, 75600, Note_on_c, 2, 66, 0
4, 75600, Note_on_c, 2, 76, 36
4, 75840, Note_on_c, 2, 76, 0
4, 75840, Note_on_c, 2, 74, 36
4, 76080, Note_on_c, 2, 74, 0
4, 76080, Note_on_c, 2, 66, 36
4, 76320, Note_on_c, 2, 66, 0
4, 76320, Note_on_c, 2, 67, 36
4, 76440, Note_on_c, 2, 67, 0
4, 76440, Note_on_c, 2, 66, 36
4, 76560, Note_on_c, 2, 66, 0
4, 76560, Note_on_c, 2, 67, 36
4, 76680, Note_on_c, 2, 67, 0
4, 76680, Note_on_c, 2, 69, 36
4, 76800, Note_on_c, 2, 69, 0
4, 76800, Note_on_c, 2, 71, 36
4, 77040, Note_on_c, 2, 71, 0
4, 77040, Note_on_c, 2, 71, 36
4, 77280, Note_on_c, 2, 71, 0
4, 77280, Note_on_c, 2, 71, 36
4, 77520, Note_on_c, 2, 71, 0
4, 77520, Note_on_c, 2, 71, 36
4, 77760, Note_on_c, 2, 71, 0
4, 77760, Note_on_c, 2, 72, 36
4, 77880, Note_on_c, 2, 72, 0
4, 77880, Note_on_c, 2, 69, 36
4, 78000, Note_on_c, 2, 69, 0
4, 78000, Note_on_c, 2, 71, 36
4, 78120, Note_on_c, 2, 71, 0
4, 78120, Note_on_c, 2, 67, 36
4, 78240, Note_on_c, 2, 67, 0
4, 78240, Note_on_c, 2, 66, 36
4, 78480, Note_on_c, 2, 66, 0
4, 78480, Note_on_c, 2, 69, 36
4, 78600, Note_on_c, 2, 69, 0
4, 78600, Note_on_c, 2, 66, 36
4, 78720, Note_on_c, 2, 66, 0
4, 78720, Note_on_c, 2, 62, 36
4, 78840, Note_on_c, 2, 62, 0
4, 78840, Note_on_c, 2, 64, 36
4, 78960, Note_on_c, 2, 64, 0
4, 78960, Note_on_c, 2, 62, 36
4, 79080, Note_on_c, 2, 62, 0
4, 79080, Note_on_c, 2, 60, 36
4, 79200, Note_on_c, 2, 60, 0
4, 79200, Note_on_c, 2, 59, 36
4, 79320, Note_on_c, 2, 59, 0
4, 79320, Note_on_c, 2, 57, 36
4, 79440, Note_on_c, 2, 57, 0
4, 79440, Note_on_c, 2, 55, 36
4, 79560, Note_on_c, 2, 55, 0
4, 79560, Note_on_c, 2, 57, 36
4, 79680, Note_on_c, 2, 57, 0
4, 79680, Note_on_c, 2, 59, 36
4, 79920, Note_on_c, 2, 59, 0
4, 79920, Note_on_c, 2, 59, 36
4, 80160, Note_on_c, 2, 59, 0
4, 80160, Note_on_c, 2, 59, 36
4, 80400, Note_on_c, 2, 59, 0
4, 80400, Note_on_c, 2, 59, 36
4, 80640, Note_on_c, 2, 59, 0
4, 80640, Note_on_c, 2, 60, 36
4, 80760, Note_on_c, 2, 60, 0
4, 80760, Note_on_c, 2, 57, 36
4, 80880, Note_on_c, 2, 57, 0
4, 80880, Note_on_c, 2, 59, 36
4, 81000, Note_on_c, 2, 59, 0
4, 81000, Note_on_c, 2, 55, 36
4, 81120, Note_on_c, 2, 55, 0
4, 81120, Note_on_c, 2, 54, 36
4, 81360, Note_on_c, 2, 54, 0
4, 81360, Note_on_c, 2, 57, 36
4, 81480, Note_on_c, 2, 57, 0
4, 81480, Note_on_c, 2, 54, 36
4, 81600, Note_on_c, 2, 54, 0
4, 81600, Note_on_c, 2, 50, 36
4, 81720, Note_on_c, 2, 50, 0
4, 81720, Note_on_c, 2, 64, 36
4, 81840, Note_on_c, 2, 64, 0
4, 81840, Note_on_c, 2, 62, 36
4, 81960, Note_on_c, 2, 62, 0
4, 81960, Note_on_c, 2, 54, 36
4, 82080, Note_on_c, 2, 54, 0
4, 82080, Note_on_c, 2, 55, 36
4, 82320, Note_on_c, 2, 55, 0
4, 82320, Note_on_c, 2, 55, 36
4, 82560, Note_on_c, 2, 55, 0
4, 82560, Note_on_c, 2, 62, 36
4, 82800, Note_on_c, 2, 62, 0
4, 82800, Note_on_c, 2, 62, 36
4, 83040, Note_on_c, 2, 62, 0
4, 83040, Note_on_c, 2, 62, 36
4, 83280, Note_on_c, 2, 62, 0
4, 83280, Note_on_c, 2, 62, 36
4, 83520, Note_on_c, 2, 62, 0
4, 83520, Note_on_c, 2, 60, 36
4, 83760, Note_on_c, 2, 60, 0
4, 84720, Note_on_c, 2, 64, 36
4, 84960, Note_on_c, 2, 64, 0
4, 84960, Note_on_c, 2, 62, 36
4, 85168, Control_c, 2, 7, 59
4, 85200, Note_on_c, 2, 62, 0
4, 85200, Note_on_c, 2, 62, 36
4, 85440, Note_on_c, 2, 62, 0
4, 85440, Note_on_c, 2, 62, 36
4, 85680, Note_on_c, 2, 62, 0
4, 85680, Note_on_c, 2, 62, 36
4, 85920, Note_on_c, 2, 62, 0
4, 85920, Note_on_c, 2, 62, 36
4, 86160, Note_on_c, 2, 62, 0
4, 86160, Note_on_c, 2, 62, 36
4, 86400, Note_on_c, 2, 62, 0
4, 86400, Note_on_c, 2, 62, 36
4, 86880, Note_on_c, 2, 62, 0
4, 87000, Note_on_c, 2, 71, 36
4, 87120, Note_on_c, 2, 71, 0
4, 87120, Note_on_c, 2, 69, 36
4, 87240, Note_on_c, 2, 69, 0
4, 87240, Note_on_c, 2, 71, 36
4, 87360, Note_on_c, 2, 71, 0
4, 87360, Note_on_c, 2, 72, 36
4, 87480, Note_on_c, 2, 72, 0
4, 87480, Note_on_c, 2, 71, 36
4, 87600, Note_on_c, 2, 71, 0
4, 87600, Note_on_c, 2, 69, 36
4, 87720, Note_on_c, 2, 69, 0
4, 87720, Note_on_c, 2, 71, 36
4, 87840, Note_on_c, 2, 71, 0
4, 87840, Note_on_c, 2, 71, 36
4, 88320, Note_on_c, 2, 71, 0
4, 88440, Note_on_c, 2, 67, 36
4, 88560, Note_on_c, 2, 67, 0
4, 88560, Note_on_c, 2, 66, 36
4, 88680, Note_on_c, 2, 66, 0
4, 88680, Note_on_c, 2, 67, 36
4, 88800, Note_on_c, 2, 67, 0
4, 88800, Note_on_c, 2, 69, 36
4, 88920, Note_on_c, 2, 69, 0
4, 88920, Note_on_c, 2, 67, 36
4, 89040, Note_on_c, 2, 67, 0
4, 89040, Note_on_c, 2, 66, 36
4, 89160, Note_on_c, 2, 66, 0
4, 89160, Note_on_c, 2, 67, 36
4, 89280, Note_on_c, 2, 67, 0
4, 89280, Note_on_c, 2, 55, 36
4, 89520, Note_on_c, 2, 55, 0
4, 89520, Note_on_c, 2, 57, 36
4, 89560, Note_on_c, 2, 57, 0
4, 89560, Note_on_c, 2, 59, 36
4, 89600, Note_on_c, 2, 59, 0
4, 89600, Note_on_c, 2, 60, 36
4, 89640, Note_on_c, 2, 60, 0
4, 89640, Note_on_c, 2, 62, 36
4, 89680, Note_on_c, 2, 62, 0
4, 89680, Note_on_c, 2, 64, 36
4, 89720, Note_on_c, 2, 64, 0
4, 89720, Note_on_c, 2, 66, 36
4, 89760, Note_on_c, 2, 66, 0
4, 89760, Note_on_c, 2, 67, 36
4, 90000, Note_on_c, 2, 67, 0
4, 90000, Note_on_c, 2, 55, 36
4, 90240, Note_on_c, 2, 55, 0
4, 90240, Note_on_c, 2, 55, 36
4, 90480, Note_on_c, 2, 55, 0
4, 90480, Note_on_c, 2, 55, 36
4, 90720, Note_on_c, 2, 55, 0
4, 90720, Note_on_c, 2, 55, 36
4, 90960, Note_on_c, 2, 55, 0
4, 90960, Note_on_c, 2, 64, 36
4, 91200, Note_on_c, 2, 64, 0
4, 91200, Note_on_c, 2, 62, 36
4, 91440, Note_on_c, 2, 62, 0
4, 91440, Note_on_c, 2, 62, 36
4, 91680, Note_on_c, 2, 62, 0
4, 91680, Note_on_c, 2, 62, 36
4, 91920, Note_on_c, 2, 62, 0
4, 91920, Note_on_c, 2, 62, 36
4, 92160, Note_on_c, 2, 62, 0
4, 92160, Note_on_c, 2, 62, 36
4, 92400, Note_on_c, 2, 62, 0
4, 92400, Note_on_c, 2, 71, 36
4, 92640, Note_on_c, 2, 71, 0
4, 92640, Note_on_c, 2, 72, 36
4, 92880, Note_on_c, 2, 72, 0
4, 92880, Note_on_c, 2, 71, 36
4, 93120, Note_on_c, 2, 71, 0
4, 93120, Note_on_c, 2, 72, 36
4, 93360, Note_on_c, 2, 72, 0
4, 93360, Note_on_c, 2, 69, 36
4, 93600, Note_on_c, 2, 69, 0
4, 93600, Note_on_c, 2, 67, 36
4, 93840, Note_on_c, 2, 67, 0
4, 93840, Note_on_c, 2, 71, 36
4, 94080, Note_on_c, 2, 71, 0
4, 94080, Note_on_c, 2, 72, 36
4, 94320, Note_on_c, 2, 72, 0
4, 94320, Note_on_c, 2, 71, 36
4, 94560, Note_on_c, 2, 71, 0
4, 94560, Note_on_c, 2, 72, 36
4, 94800, Note_on_c, 2, 72, 0
4, 94800, Note_on_c, 2, 69, 36
4, 95040, Note_on_c, 2, 69, 0
4, 95040, Note_on_c, 2, 69, 36
4, 96000, Note_on_c, 2, 69, 0
4, 96000, Note_on_c, 2, 67, 36
4, 96240, Note_on_c, 2, 67, 0
4, 96480, Control_c, 2, 7, 104
4, 96480, Note_on_c, 2, 55, 79
4, 96720, Note_on_c, 2, 55, 0
4, 96720, Note_on_c, 2, 55, 79
4, 96960, Note_on_c, 2, 55, 0
4, 96960, Note_on_c, 2, 55, 79
4, 97200, Note_on_c, 2, 55, 0
4, 97200, Note_on_c, 2, 55, 79
4, 97440, Note_on_c, 2, 55, 0
4, 97440, Note_on_c, 2, 55, 79
4, 97680, Note_on_c, 2, 55, 0
4, 97680, Note_on_c, 2, 55, 79
4, 97920, Note_on_c, 2, 55, 0
4, 97920, Note_on_c, 2, 55, 79
4, 98160, Note_on_c, 2, 55, 0
4, 98160, Note_on_c, 2, 55, 79
4, 98400, Note_on_c, 2, 55, 0
4, 98400, Note_on_c, 2, 55, 79
4, 98640, Note_on_c, 2, 55, 0
4, 98640, Note_on_c, 2, 55, 79
4, 98880, Note_on_c, 2, 55, 0
4, 98880, Note_on_c, 2, 55, 79
4, 99120, Note_on_c, 2, 55, 0
4, 99120, Note_on_c, 2, 55, 79
4, 99360, Note_on_c, 2, 55, 0
4, 99360, Note_on_c, 2, 55, 79
4, 99840, Note_on_c, 2, 55, 0
4, 100320, Note_on_c, 2, 67, 79
4, 101280, Note_on_c, 2, 67, 0
4, 101280, Note_on_c, 2, 62, 79
4, 102240, Note_on_c, 2, 62, 0
4, 102240, Note_on_c, 2, 60, 79
4, 102480, Note_on_c, 2, 60, 0
4, 102480, Note_on_c, 2, 59, 79
4, 102720, Note_on_c, 2, 59, 0
4, 102720, Note_on_c, 2, 57, 79
4, 102960, Note_on_c, 2, 57, 0
4, 102960, Note_on_c, 2, 55, 79
4, 103200, Note_on_c, 2, 55, 0
4, 103200, Note_on_c, 2, 62, 79
4, 103680, Note_on_c, 2, 62, 0
4, 103680, Note_on_c, 2, 50, 79
4, 104160, Note_on_c, 2, 50, 0
4, 104160, Note_on_c, 2, 55, 79
4, 104400, Note_on_c, 2, 55, 0
4, 104400, Note_on_c, 2, 55, 79
4, 104640, Note_on_c, 2, 55, 0
4, 104640, Note_on_c, 2, 55, 79
4, 104880, Note_on_c, 2, 55, 0
4, 104880, Note_on_c, 2, 55, 79
4, 105120, Note_on_c, 2, 55, 0
4, 105120, Note_on_c, 2, 55, 79
4, 105360, Note_on_c, 2, 55, 0
4, 105360, Note_on_c, 2, 55, 79
4, 105600, Note_on_c, 2, 55, 0
4, 105600, Note_on_c, 2, 55, 79
4, 105840, Note_on_c, 2, 55, 0
4, 105840, Note_on_c, 2, 55, 79
4, 106080, Note_on_c, 2, 55, 0
4, 106080, Note_on_c, 2, 55, 79
4, 106320, Note_on_c, 2, 55, 0
4, 106320, Note_on_c, 2, 55, 79
4, 106560, Note_on_c, 2, 55, 0
4, 106560, Note_on_c, 2, 55, 79
4, 106800, Note_on_c, 2, 55, 0
4, 106800, Note_on_c, 2, 55, 79
4, 107040, Note_on_c, 2, 55, 0
4, 107040, Note_on_c, 2, 55, 79
4, 107520, Note_on_c, 2, 55, 0
4, 108000, Note_on_c, 2, 67, 79
4, 108960, Note_on_c, 2, 67, 0
4, 108960, Note_on_c, 2, 62, 79
4, 109920, Note_on_c, 2, 62, 0
4, 109920, Note_on_c, 2, 60, 79
4, 110160, Note_on_c, 2, 60, 0
4, 110160, Note_on_c, 2, 59, 79
4, 110400, Note_on_c, 2, 59, 0
4, 110400, Note_on_c, 2, 57, 79
4, 110640, Note_on_c, 2, 57, 0
4, 110640, Note_on_c, 2, 55, 79
4, 110880, Note_on_c, 2, 55, 0
4, 110880, Note_on_c, 2, 62, 79
4, 111360, Note_on_c, 2, 62, 0
4, 111360, Note_on_c, 2, 50, 79
4, 111840, Note_on_c, 2, 50, 0
4, 111840, Note_on_c, 2, 55, 79
4, 111960, Note_on_c, 2, 55, 0
4, 111960, Note_on_c, 2, 59, 79
4, 112080, Note_on_c, 2, 59, 0
4, 112080, Note_on_c, 2, 59, 79
4, 112200, Note_on_c, 2, 59, 0
4, 112200, Note_on_c, 2, 59, 79
4, 112320, Note_on_c, 2, 59, 0
4, 112320, Note_on_c, 2, 59, 79
4, 112440, Note_on_c, 2, 59, 0
4, 112440, Note_on_c, 2, 59, 79
4, 112560, Note_on_c, 2, 59, 0
4, 112560, Note_on_c, 2, 59, 79
4, 112680, Note_on_c, 2, 59, 0
4, 112680, Note_on_c, 2, 59, 79
4, 112800, Note_on_c, 2, 59, 0
4, 112800, Program_c, 2, 5
4, 112800, Note_on_c, 2, 59, 79
4, 113760, Note_on_c, 2, 59, 0
4, 113760, Note_on_c, 2, 60, 79
4, 114720, Note_on_c, 2, 60, 0
4, 114720, Note_on_c, 2, 60, 79
4, 115680, Note_on_c, 2, 60, 0
4, 115680, Note_on_c, 2, 59, 79
4, 116640, Note_on_c, 2, 59, 0
4, 116640, Note_on_c, 2, 59, 79
4, 117600, Note_on_c, 2, 59, 0
4, 117600, Note_on_c, 2, 60, 79
4, 118560, Note_on_c, 2, 60, 0
4, 118560, Note_on_c, 2, 60, 79
4, 119520, Note_on_c, 2, 60, 0
4, 119520, Program_c, 2, 2
4, 119520, Note_on_c, 2, 59, 79
4, 119760, Note_on_c, 2, 59, 0
4, 119760, Note_on_c, 2, 55, 79
4, 120000, Note_on_c, 2, 55, 0
4, 120000, Note_on_c, 2, 57, 79
4, 120240, Note_on_c, 2, 57, 0
4, 120240, Note_on_c, 2, 59, 79
4, 120480, Note_on_c, 2, 59, 0
4, 120480, Note_on_c, 2, 60, 79
4, 120720, Note_on_c, 2, 60, 0
4, 120720, Note_on_c, 2, 62, 79
4, 120960, Note_on_c, 2, 62, 0
4, 120960, Note_on_c, 2, 64, 79
4, 121200, Note_on_c, 2, 64, 0
4, 121200, Note_on_c, 2, 66, 79
4, 121440, Note_on_c, 2, 66, 0
4, 121440, Note_on_c, 2, 67, 79
4, 121680, Note_on_c, 2, 67, 0
4, 121680, Note_on_c, 2, 66, 79
4, 121920, Note_on_c, 2, 66, 0
4, 121920, Note_on_c, 2, 64, 79
4, 122160, Note_on_c, 2, 64, 0
4, 122160, Note_on_c, 2, 62, 79
4, 122400, Note_on_c, 2, 62, 0
4, 122400, Note_on_c, 2, 60, 79
4, 122640, Note_on_c, 2, 60, 0
4, 122640, Note_on_c, 2, 59, 79
4, 122880, Note_on_c, 2, 59, 0
4, 122880, Note_on_c, 2, 57, 79
4, 123120, Note_on_c, 2, 57, 0
4, 123120, Note_on_c, 2, 55, 79
4, 123360, Note_on_c, 2, 55, 0
4, 123360, Note_on_c, 2, 62, 79
4, 123840, Note_on_c, 2, 62, 0
4, 123840, Note_on_c, 2, 74, 79
4, 124320, Note_on_c, 2, 74, 0
4, 124320, Note_on_c, 2, 62, 79
4, 124800, Note_on_c, 2, 62, 0
4, 129120, Note_on_c, 2, 62, 79
4, 130080, Note_on_c, 2, 62, 0
4, 130080, Note_on_c, 2, 66, 79
4, 130560, Note_on_c, 2, 66, 0
4, 130560, Note_on_c, 2, 69, 79
4, 131040, Note_on_c, 2, 69, 0
4, 131040, Note_on_c, 2, 74, 79
4, 131520, Note_on_c, 2, 74, 0
4, 131520, Note_on_c, 2, 69, 79
4, 132480, Note_on_c, 2, 69, 0
4, 132480, Note_on_c, 2, 69, 79
4, 132960, Note_on_c, 2, 69, 0
4, 132960, Note_on_c, 2, 69, 79
4, 133440, Note_on_c, 2, 69, 0
4, 134880, Note_on_c, 2, 62, 79
4, 135120, Note_on_c, 2, 62, 0
4, 135120, Note_on_c, 2, 66, 79
4, 135360, Note_on_c, 2, 66, 0
4, 135360, Note_on_c, 2, 62, 79
4, 135600, Note_on_c, 2, 62, 0
4, 135600, Note_on_c, 2, 66, 79
4, 135840, Note_on_c, 2, 66, 0
4, 135840, Note_on_c, 2, 62, 79
4, 136320, Note_on_c, 2, 62, 0
4, 136800, Note_on_c, 2, 61, 79
4, 137280, Note_on_c, 2, 61, 0
4, 137280, Note_on_c, 2, 62, 79
4, 138240, Note_on_c, 2, 62, 0
4, 138240, Note_on_c, 2, 62, 79
4, 138720, Note_on_c, 2, 62, 0
4, 138720, Note_on_c, 2, 62, 79
4, 138960, Note_on_c, 2, 62, 0
4, 138960, Note_on_c, 2, 66, 79
4, 139200, Note_on_c, 2, 66, 0
4, 139200, Note_on_c, 2, 62, 79
4, 139440, Note_on_c, 2, 62, 0
4, 139440, Note_on_c, 2, 66, 79
4, 139680, Note_on_c, 2, 66, 0
4, 139680, Note_on_c, 2, 62, 79
4, 140160, Note_on_c, 2, 62, 0
4, 140640, Note_on_c, 2, 61, 79
4, 141120, Note_on_c, 2, 61, 0
4, 141120, Note_on_c, 2, 62, 79
4, 142080, Note_on_c, 2, 62, 0
4, 142080, Note_on_c, 2, 61, 79
4, 142560, Note_on_c, 2, 61, 0
4, 142560, Note_on_c, 2, 62, 79
4, 143040, Note_on_c, 2, 62, 0
4, 143040, Note_on_c, 2, 62, 79
4, 144000, Note_on_c, 2, 62, 0
4, 144000, Note_on_c, 2, 62, 79
4, 144480, Note_on_c, 2, 62, 0
4, 144480, Note_on_c, 2, 62, 79
4, 144960, Note_on_c, 2, 62, 0
4, 148320, Note_on_c, 2, 69, 79
4, 149760, Note_on_c, 2, 69, 0
4, 149760, Note_on_c, 2, 67, 79
4, 150240, Note_on_c, 2, 67, 0
4, 150240, Note_on_c, 2, 66, 79
4, 150720, Note_on_c, 2, 66, 0
4, 150720, Note_on_c, 2, 62, 79
4, 151680, Note_on_c, 2, 62, 0
4, 151680, Note_on_c, 2, 62, 79
4, 152160, Note_on_c, 2, 62, 0
4, 152160, Note_on_c, 2, 62, 79
4, 152640, Note_on_c, 2, 62, 0
4, 156000, Note_on_c, 2, 69, 79
4, 157440, Note_on_c, 2, 69, 0
4, 157440, Note_on_c, 2, 67, 79
4, 157920, Note_on_c, 2, 67, 0
4, 157920, Note_on_c, 2, 66, 79
4, 158400, Note_on_c, 2, 66, 0
4, 158400, Note_on_c, 2, 72, 79
4, 158520, Note_on_c, 2, 72, 0
4, 158520, Note_on_c, 2, 71, 79
4, 158640, Note_on_c, 2, 71, 0
4, 158640, Note_on_c, 2, 69, 79
4, 158760, Note_on_c, 2, 69, 0
4, 158760, Note_on_c, 2, 67, 79
4, 158880, Note_on_c, 2, 67, 0
4, 158880, Note_on_c, 2, 69, 79
4, 159120, Note_on_c, 2, 69, 0
4, 159120, Note_on_c, 2, 66, 79
4, 159360, Note_on_c, 2, 66, 0
4, 159360, Note_on_c, 2, 64, 79
4, 159840, Note_on_c, 2, 64, 0
4, 159840, Note_on_c, 2, 62, 79
4, 161280, Note_on_c, 2, 62, 0
4, 161280, Note_on_c, 2, 64, 79
4, 161760, Note_on_c, 2, 64, 0
4, 161760, Note_on_c, 2, 62, 79
4, 162240, Note_on_c, 2, 62, 0
4, 162240, Note_on_c, 2, 62, 79
4, 162720, Note_on_c, 2, 62, 0
4, 162720, Note_on_c, 2, 62, 79
4, 163200, Note_on_c, 2, 62, 0
4, 163680, Note_on_c, 2, 55, 79
4, 163920, Note_on_c, 2, 55, 0
4, 163920, Note_on_c, 2, 55, 79
4, 164160, Note_on_c, 2, 55, 0
4, 164160, Note_on_c, 2, 55, 79
4, 164400, Note_on_c, 2, 55, 0
4, 164400, Note_on_c, 2, 55, 79
4, 164640, Note_on_c, 2, 55, 0
4, 164640, Note_on_c, 2, 55, 79
4, 164880, Note_on_c, 2, 55, 0
4, 164880, Note_on_c, 2, 55, 79
4, 165120, Note_on_c, 2, 55, 0
4, 165120, Note_on_c, 2, 55, 79
4, 165360, Note_on_c, 2, 55, 0
4, 165360, Note_on_c, 2, 55, 79
4, 165600, Note_on_c, 2, 55, 0
4, 165600, Note_on_c, 2, 55, 79
4, 165840, Note_on_c, 2, 55, 0
4, 165840, Note_on_c, 2, 55, 79
4, 166080, Note_on_c, 2, 55, 0
4, 166080, Note_on_c, 2, 55, 79
4, 166320, Note_on_c, 2, 55, 0
4, 166320, Note_on_c, 2, 55, 79
4, 166560, Note_on_c, 2, 55, 0
4, 166560, Note_on_c, 2, 55, 79
4, 167040, Note_on_c, 2, 55, 0
4, 167520, Note_on_c, 2, 67, 79
4, 168480, Note_on_c, 2, 67, 0
4, 168480, Note_on_c, 2, 62, 79
4, 169440, Note_on_c, 2, 62, 0
4, 169440, Note_on_c, 2, 60, 79
4, 169680, Note_on_c, 2, 60, 0
4, 169680, Note_on_c, 2, 59, 79
4, 169920, Note_on_c, 2, 59, 0
4, 169920, Note_on_c, 2, 57, 79
4, 170160, Note_on_c, 2, 57, 0
4, 170160, Note_on_c, 2, 55, 79
4, 170400, Note_on_c, 2, 55, 0
4, 170400, Note_on_c, 2, 62, 79
4, 170880, Note_on_c, 2, 62, 0
4, 170880, Note_on_c, 2, 50, 79
4, 171360, Note_on_c, 2, 50, 0
4, 171360, Note_on_c, 2, 55, 79
4, 171600, Note_on_c, 2, 55, 0
4, 171600, Note_on_c, 2, 55, 79
4, 171840, Note_on_c, 2, 55, 0
4, 171840, Note_on_c, 2, 55, 79
4, 172080, Note_on_c, 2, 55, 0
4, 172080, Note_on_c, 2, 55, 79
4, 172320, Note_on_c, 2, 55, 0
4, 172320, Note_on_c, 2, 55, 79
4, 172560, Note_on_c, 2, 55, 0
4, 172560, Note_on_c, 2, 55, 79
4, 172800, Note_on_c, 2, 55, 0
4, 172800, Note_on_c, 2, 55, 79
4, 173040, Note_on_c, 2, 55, 0
4, 173040, Note_on_c, 2, 55, 79
4, 173280, Note_on_c, 2, 55, 0
4, 173280, Note_on_c, 2, 55, 79
4, 173520, Note_on_c, 2, 55, 0
4, 173520, Note_on_c, 2, 55, 79
4, 173760, Note_on_c, 2, 55, 0
4, 173760, Note_on_c, 2, 55, 79
4, 174000, Note_on_c, 2, 55, 0
4, 174000, Note_on_c, 2, 55, 79
4, 174240, Note_on_c, 2, 55, 0
4, 174240, Note_on_c, 2, 55, 79
4, 174720, Note_on_c, 2, 55, 0
4, 175200, Note_on_c, 2, 67, 79
4, 176160, Note_on_c, 2, 67, 0
4, 176160, Note_on_c, 2, 62, 79
4, 177120, Note_on_c, 2, 62, 0
4, 177120, Note_on_c, 2, 60, 79
4, 177360, Note_on_c, 2, 60, 0
4, 177360, Note_on_c, 2, 59, 79
4, 177600, Note_on_c, 2, 59, 0
4, 177600, Note_on_c, 2, 57, 79
4, 177840, Note_on_c, 2, 57, 0
4, 177840, Note_on_c, 2, 55, 79
4, 178080, Note_on_c, 2, 55, 0
4, 178080, Note_on_c, 2, 62, 79
4, 178560, Note_on_c, 2, 62, 0
4, 178560, Note_on_c, 2, 50, 79
4, 179040, Note_on_c, 2, 50, 0
4, 179040, Note_on_c, 2, 55, 79
4, 179160, Note_on_c, 2, 55, 0
4, 179160, Note_on_c, 2, 59, 79
4, 179280, Note_on_c, 2, 59, 0
4, 179280, Note_on_c, 2, 59, 79
4, 179400, Note_on_c, 2, 59, 0
4, 179400, Note_on_c, 2, 59, 79
4, 179520, Note_on_c, 2, 59, 0
4, 179520, Note_on_c, 2, 59, 79
4, 179640, Note_on_c, 2, 59, 0
4, 179640, Note_on_c, 2, 59, 79
4, 179760, Note_on_c, 2, 59, 0
4, 179760, Note_on_c, 2, 59, 79
4, 179880, Note_on_c, 2, 59, 0
4, 179880, Note_on_c, 2, 59, 79
4, 180000, Note_on_c, 2, 59, 0
4, 180000, Program_c, 2, 5
4, 180000, Note_on_c, 2, 59, 79
4, 180960, Note_on_c, 2, 59, 0
4, 180960, Note_on_c, 2, 60, 79
4, 181920, Note_on_c, 2, 60, 0
4, 181920, Note_on_c, 2, 60, 79
4, 182880, Note_on_c, 2, 60, 0
4, 182880, Note_on_c, 2, 59, 79
4, 183840, Note_on_c, 2, 59, 0
4, 183840, Note_on_c, 2, 59, 79
4, 184800, Note_on_c, 2, 59, 0
4, 184800, Note_on_c, 2, 60, 79
4, 185760, Note_on_c, 2, 60, 0
4, 185760, Note_on_c, 2, 60, 79
4, 186720, Note_on_c, 2, 60, 0
4, 186720, Program_c, 2, 2
4, 186720, Note_on_c, 2, 59, 79
4, 186960, Note_on_c, 2, 59, 0
4, 186960, Note_on_c, 2, 55, 79
4, 187200, Note_on_c, 2, 55, 0
4, 187200, Note_on_c, 2, 57, 79
4, 187440, Note_on_c, 2, 57, 0
4, 187440, Note_on_c, 2, 59, 79
4, 187680, Note_on_c, 2, 59, 0
4, 187680, Note_on_c, 2, 60, 79
4, 187920, Note_on_c, 2, 60, 0
4, 187920, Note_on_c, 2, 62, 79
4, 188160, Note_on_c, 2, 62, 0
4, 188160, Note_on_c, 2, 64, 79
4, 188400, Note_on_c, 2, 64, 0
4, 188400, Note_on_c, 2, 66, 79
4, 188640, Note_on_c, 2, 66, 0
4, 188640, Note_on_c, 2, 67, 79
4, 188880, Note_on_c, 2, 67, 0
4, 188880, Note_on_c, 2, 66, 79
4, 189120, Note_on_c, 2, 66, 0
4, 189120, Note_on_c, 2, 64, 79
4, 189360, Note_on_c, 2, 64, 0
4, 189360, Note_on_c, 2, 62, 79
4, 189600, Note_on_c, 2, 62, 0
4, 189600, Note_on_c, 2, 60, 79
4, 189840, Note_on_c, 2, 60, 0
4, 189840, Note_on_c, 2, 59, 79
4, 190080, Note_on_c, 2, 59, 0
4, 190080, Note_on_c, 2, 57, 79
4, 190320, Note_on_c, 2, 57, 0
4, 190320, Note_on_c, 2, 55, 79
4, 190560, Note_on_c, 2, 55, 0
4, 190560, Note_on_c, 2, 62, 79
4, 191040, Note_on_c, 2, 62, 0
4, 191040, Note_on_c, 2, 74, 79
4, 191520, Note_on_c, 2, 74, 0
4, 191520, Note_on_c, 2, 62, 79
4, 192000, Note_on_c, 2, 62, 0
4, 196320, Note_on_c, 2, 62, 79
4, 197280, Note_on_c, 2, 62, 0
4, 197280, Note_on_c, 2, 66, 79
4, 197760, Note_on_c, 2, 66, 0
4, 197760, Note_on_c, 2, 69, 79
4, 198240, Note_on_c, 2, 69, 0
4, 198240, Note_on_c, 2, 74, 79
4, 198720, Note_on_c, 2, 74, 0
4, 198720, Note_on_c, 2, 69, 79
4, 199680, Note_on_c, 2, 69, 0
4, 199680, Note_on_c, 2, 69, 79
4, 200160, Note_on_c, 2, 69, 0
4, 200160, Note_on_c, 2, 69, 79
4, 200640, Note_on_c, 2, 69, 0
4, 202080, Note_on_c, 2, 62, 79
4, 202320, Note_on_c, 2, 62, 0
4, 202320, Note_on_c, 2, 66, 79
4, 202560, Note_on_c, 2, 66, 0
4, 202560, Note_on_c, 2, 62, 79
4, 202800, Note_on_c, 2, 62, 0
4, 202800, Note_on_c, 2, 66, 79
4, 203040, Note_on_c, 2, 66, 0
4, 203040, Note_on_c, 2, 62, 79
4, 203520, Note_on_c, 2, 62, 0
4, 204000, Note_on_c, 2, 61, 79
4, 204480, Note_on_c, 2, 61, 0
4, 204480, Note_on_c, 2, 62, 79
4, 205440, Note_on_c, 2, 62, 0
4, 205440, Note_on_c, 2, 62, 79
4, 205920, Note_on_c, 2, 62, 0
4, 205920, Note_on_c, 2, 62, 79
4, 206160, Note_on_c, 2, 62, 0
4, 206160, Note_on_c, 2, 66, 79
4, 206400, Note_on_c, 2, 66, 0
4, 206400, Note_on_c, 2, 62, 79
4, 206640, Note_on_c, 2, 62, 0
4, 206640, Note_on_c, 2, 66, 79
4, 206880, Note_on_c, 2, 66, 0
4, 206880, Note_on_c, 2, 62, 79
4, 207360, Note_on_c, 2, 62, 0
4, 207840, Note_on_c, 2, 61, 79
4, 208320, Note_on_c, 2, 61, 0
4, 208320, Note_on_c, 2, 62, 79
4, 209280, Note_on_c, 2, 62, 0
4, 209280, Note_on_c, 2, 61, 79
4, 209760, Note_on_c, 2, 61, 0
4, 209760, Note_on_c, 2, 62, 79
4, 210240, Note_on_c, 2, 62, 0
4, 210240, Note_on_c, 2, 62, 79
4, 211200, Note_on_c, 2, 62, 0
4, 211200, Note_on_c, 2, 62, 79
4, 211680, Note_on_c, 2, 62, 0
4, 211680, Note_on_c, 2, 62, 79
4, 212160, Note_on_c, 2, 62, 0
4, 215520, Note_on_c, 2, 69, 79
4, 216960, Note_on_c, 2, 69, 0
4, 216960, Note_on_c, 2, 67, 79
4, 217440, Note_on_c, 2, 67, 0
4, 217440, Note_on_c, 2, 66, 79
4, 217920, Note_on_c, 2, 66, 0
4, 217920, Note_on_c, 2, 62, 79
4, 218880, Note_on_c, 2, 62, 0
4, 218880, Note_on_c, 2, 62, 79
4, 219360, Note_on_c, 2, 62, 0
4, 219360, Note_on_c, 2, 62, 79
4, 219840, Note_on_c, 2, 62, 0
4, 223200, Note_on_c, 2, 69, 79
4, 224640, Note_on_c, 2, 69, 0
4, 224640, Note_on_c, 2, 67, 79
4, 225120, Note_on_c, 2, 67, 0
4, 225120, Note_on_c, 2, 66, 79
4, 225600, Note_on_c, 2, 66, 0
4, 225600, Note_on_c, 2, 72, 79
4, 225720, Note_on_c, 2, 72, 0
4, 225720, Note_on_c, 2, 71, 79
4, 225840, Note_on_c, 2, 71, 0
4, 225840, Note_on_c, 2, 69, 79
4, 225960, Note_on_c, 2, 69, 0
4, 225960, Note_on_c, 2, 67, 79
4, 226080, Note_on_c, 2, 67, 0
4, 226080, Note_on_c, 2, 69, 79
4, 226320, Note_on_c, 2, 69, 0
4, 226320, Note_on_c, 2, 66, 79
4, 226560, Note_on_c, 2, 66, 0
4, 226560, Note_on_c, 2, 64, 79
4, 227040, Note_on_c, 2, 64, 0
4, 227040, Note_on_c, 2, 62, 79
4, 228480, Note_on_c, 2, 62, 0
4, 228480, Note_on_c, 2, 64, 79
4, 228960, Note_on_c, 2, 64, 0
4, 228960, Note_on_c, 2, 62, 79
4, 229440, Note_on_c, 2, 62, 0
4, 229440, Note_on_c, 2, 62, 79
4, 229920, Note_on_c, 2, 62, 0
4, 229920, Note_on_c, 2, 62, 79
4, 230400, Note_on_c, 2, 62, 0
4, 230880, Note_on_c, 2, 74, 79
4, 231120, Note_on_c, 2, 74, 0
4, 231120, Note_on_c, 2, 73, 79
4, 231360, Note_on_c, 2, 73, 0
4, 231360, Note_on_c, 2, 71, 79
4, 231600, Note_on_c, 2, 71, 0
4, 231600, Note_on_c, 2, 69, 79
4, 231840, Note_on_c, 2, 69, 0
4, 231840, Note_on_c, 2, 71, 79
4, 232080, Note_on_c, 2, 71, 0
4, 232080, Note_on_c, 2, 69, 79
4, 232320, Note_on_c, 2, 69, 0
4, 232320, Note_on_c, 2, 67, 79
4, 232560, Note_on_c, 2, 67, 0
4, 232560, Note_on_c, 2, 66, 79
4, 232800, Note_on_c, 2, 66, 0
4, 232800, Note_on_c, 2, 67, 79
4, 233040, Note_on_c, 2, 67, 0
4, 233040, Note_on_c, 2, 66, 79
4, 233280, Note_on_c, 2, 66, 0
4, 233280, Note_on_c, 2, 67, 79
4, 233520, Note_on_c, 2, 67, 0
4, 233520, Note_on_c, 2, 64, 79
4, 233760, Note_on_c, 2, 64, 0
4, 233760, Note_on_c, 2, 69, 79
4, 234000, Note_on_c, 2, 69, 0
4, 234000, Note_on_c, 2, 67, 79
4, 234240, Note_on_c, 2, 67, 0
4, 234240, Note_on_c, 2, 69, 79
4, 234480, Note_on_c, 2, 69, 0
4, 234480, Note_on_c, 2, 57, 79
4, 234720, Note_on_c, 2, 57, 0
4, 234720, Note_on_c, 2, 62, 79
4, 234960, Note_on_c, 2, 62, 0
4, 234960, Note_on_c, 2, 61, 79
4, 235200, Note_on_c, 2, 61, 0
4, 235200, Note_on_c, 2, 62, 79
4, 235440, Note_on_c, 2, 62, 0
4, 235440, Note_on_c, 2, 64, 79
4, 235680, Note_on_c, 2, 64, 0
4, 235680, Note_on_c, 2, 66, 79
4, 235920, Note_on_c, 2, 66, 0
4, 235920, Note_on_c, 2, 64, 79
4, 236160, Note_on_c, 2, 64, 0
4, 236160, Note_on_c, 2, 66, 79
4, 236400, Note_on_c, 2, 66, 0
4, 236400, Note_on_c, 2, 62, 79
4, 236640, Note_on_c, 2, 62, 0
4, 236640, Note_on_c, 2, 61, 79
4, 236880, Note_on_c, 2, 61, 0
4, 236880, Note_on_c, 2, 62, 79
4, 237120, Note_on_c, 2, 62, 0
4, 237120, Note_on_c, 2, 64, 79
4, 237360, Note_on_c, 2, 64, 0
4, 237360, Note_on_c, 2, 62, 79
4, 237600, Note_on_c, 2, 62, 0
4, 237600, Note_on_c, 2, 61, 79
4, 237840, Note_on_c, 2, 61, 0
4, 237840, Note_on_c, 2, 57, 79
4, 238080, Note_on_c, 2, 57, 0
4, 238080, Note_on_c, 2, 59, 79
4, 238320, Note_on_c, 2, 59, 0
4, 238320, Note_on_c, 2, 61, 79
4, 238560, Note_on_c, 2, 61, 0
4, 238560, Note_on_c, 2, 62, 79
4, 238800, Note_on_c, 2, 62, 0
4, 238800, Note_on_c, 2, 61, 79
4, 239040, Note_on_c, 2, 61, 0
4, 239040, Note_on_c, 2, 59, 79
4, 239280, Note_on_c, 2, 59, 0
4, 239280, Note_on_c, 2, 57, 79
4, 239520, Note_on_c, 2, 57, 0
4, 239520, Note_on_c, 2, 59, 79
4, 239760, Note_on_c, 2, 59, 0
4, 239760, Note_on_c, 2, 57, 79
4, 240000, Note_on_c, 2, 57, 0
4, 240000, Note_on_c, 2, 55, 79
4, 240240, Note_on_c, 2, 55, 0
4, 240240, Note_on_c, 2, 54, 79
4, 240480, Note_on_c, 2, 54, 0
4, 240480, Note_on_c, 2, 55, 79
4, 240720, Note_on_c, 2, 55, 0
4, 240720, Note_on_c, 2, 54, 79
4, 240960, Note_on_c, 2, 54, 0
4, 240960, Note_on_c, 2, 55, 79
4, 241200, Note_on_c, 2, 55, 0
4, 241200, Note_on_c, 2, 52, 79
4, 241440, Note_on_c, 2, 52, 0
4, 241440, Note_on_c, 2, 57, 79
4, 241680, Note_on_c, 2, 57, 0
4, 241680, Note_on_c, 2, 55, 79
4, 241920, Note_on_c, 2, 55, 0
4, 241920, Note_on_c, 2, 54, 79
4, 242160, Note_on_c, 2, 54, 0
4, 242160, Note_on_c, 2, 52, 79
4, 242400, Note_on_c, 2, 52, 0
4, 242400, Note_on_c, 2, 50, 79
4, 244320, Note_on_c, 2, 50, 0
4, 244320, Note_on_c, 2, 50, 79
4, 244800, Note_on_c, 2, 50, 0
4, 248160, Note_on_c, 2, 55, 79
4, 250080, Note_on_c, 2, 55, 0
4, 250080, Note_on_c, 2, 57, 79
4, 252000, Note_on_c, 2, 57, 0
4, 252000, Note_on_c, 2, 62, 79
4, 252480, Note_on_c, 2, 62, 0
4, 253920, Control_c, 2, 7, 104
4, 253920, Note_on_c, 2, 62, 79
4, 254400, Note_on_c, 2, 62, 0
4, 255840, Note_on_c, 2, 62, 79
4, 256320, Note_on_c, 2, 62, 0
4, 256320, Note_on_c, 2, 62, 79
4, 256800, Note_on_c, 2, 62, 0
4, 256800, Note_on_c, 2, 62, 79
4, 257280, Note_on_c, 2, 62, 0
4, 257760, Note_on_c, 2, 55, 79
4, 258000, Note_on_c, 2, 55, 0
4, 258000, Note_on_c, 2, 55, 79
4, 258240, Note_on_c, 2, 55, 0
4, 258240, Note_on_c, 2, 55, 79
4, 258480, Note_on_c, 2, 55, 0
4, 258480, Note_on_c, 2, 55, 79
4, 258720, Note_on_c, 2, 55, 0
4, 258720, Note_on_c, 2, 55, 79
4, 258960, Note_on_c, 2, 55, 0
4, 258960, Note_on_c, 2, 55, 79
4, 259200, Note_on_c, 2, 55, 0
4, 259200, Note_on_c, 2, 55, 79
4, 259440, Note_on_c, 2, 55, 0
4, 259440, Note_on_c, 2, 55, 79
4, 259680, Note_on_c, 2, 55, 0
4, 259680, Note_on_c, 2, 55, 79
4, 259920, Note_on_c, 2, 55, 0
4, 259920, Note_on_c, 2, 55, 79
4, 260160, Note_on_c, 2, 55, 0
4, 260160, Note_on_c, 2, 55, 79
4, 260400, Note_on_c, 2, 55, 0
4, 260400, Note_on_c, 2, 55, 79
4, 260640, Note_on_c, 2, 55, 0
4, 260640, Note_on_c, 2, 55, 79
4, 261120, Note_on_c, 2, 55, 0
4, 261600, Note_on_c, 2, 67, 79
4, 262560, Note_on_c, 2, 67, 0
4, 262560, Note_on_c, 2, 62, 79
4, 263520, Note_on_c, 2, 62, 0
4, 263520, Note_on_c, 2, 60, 79
4, 263760, Note_on_c, 2, 60, 0
4, 263760, Note_on_c, 2, 59, 79
4, 264000, Note_on_c, 2, 59, 0
4, 264000, Note_on_c, 2, 57, 79
4, 264240, Note_on_c, 2, 57, 0
4, 264240, Note_on_c, 2, 55, 79
4, 264480, Note_on_c, 2, 55, 0
4, 264480, Note_on_c, 2, 62, 79
4, 264960, Note_on_c, 2, 62, 0
4, 264960, Note_on_c, 2, 50, 79
4, 265440, Note_on_c, 2, 50, 0
4, 265440, Note_on_c, 2, 55, 79
4, 265680, Note_on_c, 2, 55, 0
4, 265680, Note_on_c, 2, 55, 79
4, 265920, Note_on_c, 2, 55, 0
4, 265920, Note_on_c, 2, 55, 79
4, 266160, Note_on_c, 2, 55, 0
4, 266160, Note_on_c, 2, 55, 79
4, 266400, Note_on_c, 2, 55, 0
4, 266400, Note_on_c, 2, 55, 79
4, 266640, Note_on_c, 2, 55, 0
4, 266640, Note_on_c, 2, 55, 79
4, 266880, Note_on_c, 2, 55, 0
4, 266880, Note_on_c, 2, 55, 79
4, 267120, Note_on_c, 2, 55, 0
4, 267120, Note_on_c, 2, 55, 79
4, 267360, Note_on_c, 2, 55, 0
4, 267360, Note_on_c, 2, 55, 79
4, 267600, Note_on_c, 2, 55, 0
4, 267600, Note_on_c, 2, 55, 79
4, 267840, Note_on_c, 2, 55, 0
4, 267840, Note_on_c, 2, 55, 79
4, 268080, Note_on_c, 2, 55, 0
4, 268080, Note_on_c, 2, 55, 79
4, 268320, Note_on_c, 2, 55, 0
4, 268320, Note_on_c, 2, 55, 79
4, 268560, Note_on_c, 2, 55, 0
4, 269280, Note_on_c, 2, 67, 79
4, 270240, Note_on_c, 2, 67, 0
4, 270240, Note_on_c, 2, 62, 79
4, 271200, Note_on_c, 2, 62, 0
4, 271200, Note_on_c, 2, 60, 79
4, 271260, Note_on_c, 2, 60, 0
4, 271260, Note_on_c, 2, 59, 79
4, 271320, Note_on_c, 2, 59, 0
4, 271320, Note_on_c, 2, 59, 79
4, 271680, Note_on_c, 2, 59, 0
4, 271680, Note_on_c, 2, 57, 79
4, 271920, Note_on_c, 2, 57, 0
4, 271920, Note_on_c, 2, 55, 79
4, 272160, Note_on_c, 2, 55, 0
4, 272160, Note_on_c, 2, 62, 79
4, 272640, Note_on_c, 2, 62, 0
4, 272640, Note_on_c, 2, 50, 79
4, 273120, Note_on_c, 2, 50, 0
4, 273120, Note_on_c, 2, 55, 79
4, 273240, Note_on_c, 2, 55, 0
4, 273240, Note_on_c, 2, 59, 79
4, 273360, Note_on_c, 2, 59, 0
4, 273360, Note_on_c, 2, 59, 79
4, 273480, Note_on_c, 2, 59, 0
4, 273480, Note_on_c, 2, 59, 79
4, 273600, Note_on_c, 2, 59, 0
4, 273600, Note_on_c, 2, 59, 79
4, 273720, Note_on_c, 2, 59, 0
4, 273720, Note_on_c, 2, 59, 79
4, 273840, Note_on_c, 2, 59, 0
4, 273840, Note_on_c, 2, 59, 79
4, 273960, Note_on_c, 2, 59, 0
4, 273960, Note_on_c, 2, 59, 79
4, 274080, Note_on_c, 2, 59, 0
4, 274080, Note_on_c, 2, 59, 79
4, 275040, Note_on_c, 2, 59, 0
4, 275040, Note_on_c, 2, 60, 79
4, 276000, Note_on_c, 2, 60, 0
4, 276000, Note_on_c, 2, 60, 79
4, 276960, Note_on_c, 2, 60, 0
4, 276960, Note_on_c, 2, 59, 79
4, 277920, Note_on_c, 2, 59, 0
4, 277920, Note_on_c, 2, 59, 79
4, 278880, Note_on_c, 2, 59, 0
4, 278880, Note_on_c, 2, 60, 79
4, 279840, Note_on_c, 2, 60, 0
4, 279840, Note_on_c, 2, 60, 79
4, 280800, Note_on_c, 2, 60, 0
4, 280800, Note_on_c, 2, 59, 79
4, 281040, Note_on_c, 2, 59, 0
4, 281040, Note_on_c, 2, 55, 79
4, 281280, Note_on_c, 2, 55, 0
4, 281280, Note_on_c, 2, 57, 79
4, 281520, Note_on_c, 2, 57, 0
4, 281520, Note_on_c, 2, 59, 79
4, 281760, Note_on_c, 2, 59, 0
4, 281760, Note_on_c, 2, 60, 79
4, 282000, Note_on_c, 2, 60, 0
4, 282000, Note_on_c, 2, 62, 79
4, 282240, Note_on_c, 2, 62, 0
4, 282240, Note_on_c, 2, 64, 79
4, 282480, Note_on_c, 2, 64, 0
4, 282480, Note_on_c, 2, 66, 79
4, 282720, Note_on_c, 2, 66, 0
4, 282720, Note_on_c, 2, 67, 79
4, 282960, Note_on_c, 2, 67, 0
4, 282960, Note_on_c, 2, 66, 79
4, 283200, Note_on_c, 2, 66, 0
4, 283200, Note_on_c, 2, 64, 79
4, 283440, Note_on_c, 2, 64, 0
4, 283440, Note_on_c, 2, 62, 79
4, 283680, Note_on_c, 2, 62, 0
4, 283680, Note_on_c, 2, 60, 79
4, 283920, Note_on_c, 2, 60, 0
4, 283920, Note_on_c, 2, 59, 79
4, 284160, Note_on_c, 2, 59, 0
4, 284160, Note_on_c, 2, 57, 79
4, 284400, Note_on_c, 2, 57, 0
4, 284400, Note_on_c, 2, 55, 79
4, 284640, Note_on_c, 2, 55, 0
4, 284640, Note_on_c, 2, 62, 79
4, 285120, Note_on_c, 2, 62, 0
4, 285120, Note_on_c, 2, 74, 79
4, 285600, Note_on_c, 2, 74, 0
4, 285600, Note_on_c, 2, 62, 79
4, 286080, Note_on_c, 2, 62, 0
4, 290400, Note_on_c, 2, 55, 79
4, 291360, Note_on_c, 2, 55, 0
4, 291360, Note_on_c, 2, 59, 79
4, 291840, Note_on_c, 2, 59, 0
4, 291840, Note_on_c, 2, 62, 79
4, 292320, Note_on_c, 2, 62, 0
4, 292320, Note_on_c, 2, 62, 79
4, 292800, Note_on_c, 2, 62, 0
4, 292800, Note_on_c, 2, 62, 79
4, 293760, Note_on_c, 2, 62, 0
4, 293760, Note_on_c, 2, 62, 79
4, 294240, Note_on_c, 2, 62, 0
4, 294240, Note_on_c, 2, 62, 79
4, 294720, Note_on_c, 2, 62, 0
4, 296160, Note_on_c, 2, 55, 79
4, 296400, Note_on_c, 2, 55, 0
4, 296400, Note_on_c, 2, 59, 79
4, 296640, Note_on_c, 2, 59, 0
4, 296640, Note_on_c, 2, 55, 79
4, 296880, Note_on_c, 2, 55, 0
4, 296880, Note_on_c, 2, 59, 79
4, 297120, Note_on_c, 2, 59, 0
4, 297120, Note_on_c, 2, 55, 79
4, 297600, Note_on_c, 2, 55, 0
4, 298080, Note_on_c, 2, 54, 79
4, 298560, Note_on_c, 2, 54, 0
4, 298560, Note_on_c, 2, 55, 79
4, 299520, Note_on_c, 2, 55, 0
4, 299520, Note_on_c, 2, 54, 79
4, 300000, Note_on_c, 2, 54, 0
4, 300000, Note_on_c, 2, 55, 79
4, 300240, Note_on_c, 2, 55, 0
4, 300240, Note_on_c, 2, 59, 79
4, 300480, Note_on_c, 2, 59, 0
4, 300480, Note_on_c, 2, 55, 79
4, 300720, Note_on_c, 2, 55, 0
4, 300720, Note_on_c, 2, 59, 79
4, 300960, Note_on_c, 2, 59, 0
4, 300960, Note_on_c, 2, 55, 79
4, 301440, Note_on_c, 2, 55, 0
4, 301920, Note_on_c, 2, 54, 79
4, 302400, Note_on_c, 2, 54, 0
4, 302400, Note_on_c, 2, 55, 79
4, 303360, Note_on_c, 2, 55, 0
4, 303360, Note_on_c, 2, 54, 79
4, 303840, Note_on_c, 2, 54, 0
4, 303840, Note_on_c, 2, 55, 79
4, 304320, Note_on_c, 2, 55, 0
4, 304320, Note_on_c, 2, 67, 79
4, 305280, Note_on_c, 2, 67, 0
4, 305280, Note_on_c, 2, 67, 79
4, 305760, Note_on_c, 2, 67, 0
4, 305760, Note_on_c, 2, 67, 79
4, 306240, Note_on_c, 2, 67, 0
4, 309600, Note_on_c, 2, 62, 79
4, 311040, Note_on_c, 2, 62, 0
4, 311040, Note_on_c, 2, 60, 79
4, 311520, Note_on_c, 2, 60, 0
4, 311520, Note_on_c, 2, 59, 79
4, 312000, Note_on_c, 2, 59, 0
4, 312000, Note_on_c, 2, 55, 79
4, 312960, Note_on_c, 2, 55, 0
4, 312960, Note_on_c, 2, 67, 79
4, 313440, Note_on_c, 2, 67, 0
4, 313440, Note_on_c, 2, 67, 79
4, 313920, Note_on_c, 2, 67, 0
4, 317280, Note_on_c, 2, 62, 79
4, 318720, Note_on_c, 2, 62, 0
4, 318720, Note_on_c, 2, 60, 79
4, 319200, Note_on_c, 2, 60, 0
4, 319200, Note_on_c, 2, 59, 79
4, 319680, Note_on_c, 2, 59, 0
4, 319680, Note_on_c, 2, 66, 79
4, 319800, Note_on_c, 2, 66, 0
4, 319800, Note_on_c, 2, 64, 79
4, 319920, Note_on_c, 2, 64, 0
4, 319920, Note_on_c, 2, 62, 79
4, 320040, Note_on_c, 2, 62, 0
4, 320040, Note_on_c, 2, 60, 79
4, 320160, Note_on_c, 2, 60, 0
4, 320160, Note_on_c, 2, 62, 79
4, 320400, Note_on_c, 2, 62, 0
4, 320400, Note_on_c, 2, 59, 79
4, 320640, Note_on_c, 2, 59, 0
4, 320640, Note_on_c, 2, 57, 79
4, 321120, Note_on_c, 2, 57, 0
4, 321120, Note_on_c, 2, 55, 79
4, 321600, Note_on_c, 2, 55, 0
4, 321600, Note_on_c, 2, 55, 79
4, 322560, Note_on_c, 2, 55, 0
4, 322560, Note_on_c, 2, 57, 79
4, 323040, Note_on_c, 2, 57, 0
4, 323040, Note_on_c, 2, 55, 79
4, 323520, Note_on_c, 2, 55, 0
4, 323520, Note_on_c, 2, 55, 79
4, 324000, Note_on_c, 2, 55, 0
4, 324000, Note_on_c, 2, 55, 79
4, 324480, Note_on_c, 2, 55, 0
4, 328800, Note_on_c, 2, 64, 79
4, 329040, Note_on_c, 2, 64, 0
4, 329280, Note_on_c, 2, 59, 79
4, 330240, Note_on_c, 2, 59, 0
4, 330240, Note_on_c, 2, 57, 79
4, 330720, Note_on_c, 2, 57, 0
4, 330720, Note_on_c, 2, 62, 79
4, 331200, Note_on_c, 2, 62, 0
4, 331200, Note_on_c, 2, 66, 79
4, 331680, Note_on_c, 2, 66, 0
4, 331680, Note_on_c, 2, 67, 79
4, 332160, Note_on_c, 2, 67, 0
4, 332160, Note_on_c, 2, 69, 79
4, 332400, Note_on_c, 2, 69, 0
4, 332640, Note_on_c, 2, 62, 79
4, 333600, Note_on_c, 2, 62, 0
4, 333600, Note_on_c, 2, 60, 79
4, 333840, Note_on_c, 2, 60, 0
4, 334080, Note_on_c, 2, 59, 79
4, 334320, Note_on_c, 2, 59, 0
4, 334560, Note_on_c, 2, 57, 79
4, 334800, Note_on_c, 2, 57, 0
4, 335040, Note_on_c, 2, 55, 79
4, 336000, Note_on_c, 2, 55, 0
4, 340320, Note_on_c, 2, 64, 79
4, 340560, Note_on_c, 2, 64, 0
4, 340800, Note_on_c, 2, 59, 79
4, 341760, Note_on_c, 2, 59, 0
4, 341760, Note_on_c, 2, 57, 79
4, 342240, Note_on_c, 2, 57, 0
4, 342240, Note_on_c, 2, 62, 79
4, 342720, Note_on_c, 2, 62, 0
4, 342720, Note_on_c, 2, 66, 79
4, 343200, Note_on_c, 2, 66, 0
4, 343200, Note_on_c, 2, 67, 79
4, 343680, Note_on_c, 2, 67, 0
4, 343680, Note_on_c, 2, 69, 79
4, 343920, Note_on_c, 2, 69, 0
4, 344160, Note_on_c, 2, 62, 79
4, 345120, Note_on_c, 2, 62, 0
4, 345120, Note_on_c, 2, 60, 79
4, 345360, Note_on_c, 2, 60, 0
4, 345600, Note_on_c, 2, 59, 79
4, 345840, Note_on_c, 2, 59, 0
4, 346080, Note_on_c, 2, 57, 79
4, 346320, Note_on_c, 2, 57, 0
4, 346560, Note_on_c, 2, 55, 79
4, 347520, Note_on_c, 2, 55, 0
4, 348048, Control_c, 2, 7, 108
4, 348480, Note_on_c, 2, 62, 36
4, 348576, Control_c, 2, 7, 81
4, 348720, Note_on_c, 2, 62, 0
4, 348720, Note_on_c, 2, 66, 36
4, 348960, Note_on_c, 2, 66, 0
4, 348960, Note_on_c, 2, 69, 36
4, 349103, Control_c, 2, 7, 54
4, 349200, Note_on_c, 2, 69, 0
4, 349392, Control_c, 2, 7, 104
4, 349920, Note_on_c, 2, 57, 36
4, 349992, Control_c, 2, 7, 81
4, 350160, Note_on_c, 2, 57, 0
4, 350160, Note_on_c, 2, 62, 36
4, 350400, Note_on_c, 2, 62, 0
4, 350400, Note_on_c, 2, 66, 36
4, 350591, Control_c, 2, 7, 58
4, 350640, Note_on_c, 2, 66, 0
4, 350832, Control_c, 2, 7, 108
4, 351528, Control_c, 2, 7, 84
4, 351840, Note_on_c, 2, 67, 36
4, 352080, Note_on_c, 2, 67, 0
4, 352223, Control_c, 2, 7, 60
4, 352224, Control_c, 2, 7, 82
4, 352320, Note_on_c, 2, 66, 36
4, 352415, Control_c, 2, 7, 82
4, 352464, Control_c, 2, 7, 64
4, 353280, Note_on_c, 2, 66, 0
4, 353280, Note_on_c, 2, 64, 36
4, 353760, Note_on_c, 2, 64, 0
4, 354240, Note_on_c, 2, 61, 36
4, 354720, Note_on_c, 2, 61, 0
4, 354720, Note_on_c, 2, 62, 36
4, 355200, Note_on_c, 2, 62, 0
4, 355200, Note_on_c, 2, 62, 36
4, 355680, Note_on_c, 2, 62, 0
4, 355680, Note_on_c, 2, 66, 36
4, 356160, Note_on_c, 2, 66, 0
4, 356160, Note_on_c, 2, 67, 36
4, 356640, Note_on_c, 2, 67, 0
4, 356640, Note_on_c, 2, 66, 36
4, 356880, Note_on_c, 2, 66, 0
4, 357120, Note_on_c, 2, 69, 36
4, 357360, Note_on_c, 2, 69, 0
4, 357360, Note_on_c, 2, 66, 36
4, 357600, Note_on_c, 2, 66, 0
4, 357600, Note_on_c, 2, 67, 36
4, 357840, Note_on_c, 2, 67, 0
4, 357840, Note_on_c, 2, 64, 36
4, 358080, Note_on_c, 2, 64, 0
4, 358080, Note_on_c, 2, 62, 36
4, 358560, Note_on_c, 2, 62, 0
4, 358944, Control_c, 2, 7, 63
4, 362400, Note_on_c, 2, 48, 36
4, 362640, Note_on_c, 2, 48, 0
4, 362880, Note_on_c, 2, 60, 36
4, 363120, Note_on_c, 2, 60, 0
4, 363360, Note_on_c, 2, 61, 36
4, 363600, Note_on_c, 2, 61, 0
4, 363840, Note_on_c, 2, 62, 36
4, 364080, Note_on_c, 2, 62, 0
4, 364320, Note_on_c, 2, 57, 36
4, 364560, Note_on_c, 2, 57, 0
4, 364800, Note_on_c, 2, 50, 36
4, 365040, Note_on_c, 2, 50, 0
4, 365280, Control_c, 2, 7, 100
4, 369120, Note_on_c, 2, 64, 36
4, 369360, Note_on_c, 2, 64, 0
4, 369600, Note_on_c, 2, 59, 36
4, 370560, Note_on_c, 2, 59, 0
4, 370560, Note_on_c, 2, 57, 36
4, 371040, Note_on_c, 2, 57, 0
4, 371040, Note_on_c, 2, 62, 36
4, 371520, Note_on_c, 2, 62, 0
4, 371520, Note_on_c, 2, 66, 36
4, 372000, Note_on_c, 2, 66, 0
4, 372000, Note_on_c, 2, 67, 36
4, 372480, Note_on_c, 2, 67, 0
4, 372480, Note_on_c, 2, 69, 36
4, 372720, Note_on_c, 2, 69, 0
4, 372960, Note_on_c, 2, 62, 36
4, 373920, Note_on_c, 2, 62, 0
4, 374400, Note_on_c, 2, 62, 36
4, 374640, Note_on_c, 2, 62, 0
4, 374880, Note_on_c, 2, 62, 36
4, 375120, Note_on_c, 2, 62, 0
4, 375360, Note_on_c, 2, 62, 36
4, 376320, Note_on_c, 2, 62, 0
4, 376800, Control_c, 2, 7, 106
4, 377280, Note_on_c, 2, 62, 36
4, 377496, Control_c, 2, 7, 79
4, 377520, Note_on_c, 2, 62, 0
4, 377520, Note_on_c, 2, 66, 36
4, 377760, Note_on_c, 2, 66, 0
4, 377760, Note_on_c, 2, 69, 36
4, 378191, Control_c, 2, 7, 52
4, 378240, Note_on_c, 2, 69, 0
4, 378288, Control_c, 2, 7, 106
4, 378720, Note_on_c, 2, 57, 36
4, 378936, Control_c, 2, 7, 80
4, 378960, Note_on_c, 2, 57, 0
4, 378960, Note_on_c, 2, 62, 36
4, 379200, Note_on_c, 2, 62, 0
4, 379200, Note_on_c, 2, 66, 36
4, 379583, Control_c, 2, 7, 54
4, 379680, Note_on_c, 2, 66, 0
4, 379680, Control_c, 2, 7, 106
4, 380224, Control_c, 2, 7, 89
4, 380640, Note_on_c, 2, 67, 36
4, 380768, Control_c, 2, 7, 72
4, 381120, Note_on_c, 2, 67, 0
4, 381120, Note_on_c, 2, 66, 36
4, 381311, Control_c, 2, 7, 56
4, 381360, Control_c, 2, 7, 64
4, 382080, Note_on_c, 2, 66, 0
4, 382080, Note_on_c, 2, 64, 36
4, 382560, Note_on_c, 2, 64, 0
4, 383040, Note_on_c, 2, 61, 36
4, 383520, Note_on_c, 2, 61, 0
4, 383520, Note_on_c, 2, 62, 36
4, 384000, Note_on_c, 2, 62, 0
4, 384000, Note_on_c, 2, 62, 36
4, 384480, Note_on_c, 2, 62, 0
4, 384480, Note_on_c, 2, 66, 36
4, 384960, Note_on_c, 2, 66, 0
4, 384960, Note_on_c, 2, 67, 36
4, 385440, Note_on_c, 2, 67, 0
4, 385440, Note_on_c, 2, 66, 36
4, 385920, Note_on_c, 2, 66, 0
4, 385920, Note_on_c, 2, 69, 36
4, 386160, Note_on_c, 2, 69, 0
4, 386160, Note_on_c, 2, 66, 36
4, 386400, Note_on_c, 2, 66, 0
4, 386400, Note_on_c, 2, 67, 36
4, 386640, Note_on_c, 2, 67, 0
4, 386640, Note_on_c, 2, 64, 36
4, 386880, Note_on_c, 2, 64, 0
4, 386880, Note_on_c, 2, 62, 36
4, 387360, Note_on_c, 2, 62, 0
4, 391200, Note_on_c, 2, 48, 36
4, 391680, Note_on_c, 2, 48, 0
4, 391680, Note_on_c, 2, 60, 36
4, 392160, Note_on_c, 2, 60, 0
4, 392160, Note_on_c, 2, 61, 36
4, 392640, Note_on_c, 2, 61, 0
4, 392640, Note_on_c, 2, 62, 36
4, 393120, Note_on_c, 2, 62, 0
4, 393120, Note_on_c, 2, 57, 36
4, 393600, Note_on_c, 2, 57, 0
4, 393600, Note_on_c, 2, 50, 36
4, 394080, Note_on_c, 2, 50, 0
4, 394127, Control_c, 2, 7, 64
4, 394176, Control_c, 2, 7, 98
4, 397920, Note_on_c, 2, 64, 36
4, 398400, Note_on_c, 2, 64, 0
4, 398400, Note_on_c, 2, 59, 36
4, 399360, Note_on_c, 2, 59, 0
4, 399360, Note_on_c, 2, 57, 36
4, 399840, Note_on_c, 2, 57, 0
4, 399840, Note_on_c, 2, 62, 36
4, 399888, Control_c, 2, 7, 98
4, 400320, Note_on_c, 2, 62, 0
4, 400320, Note_on_c, 2, 66, 36
4, 400800, Note_on_c, 2, 66, 0
4, 400800, Note_on_c, 2, 67, 36
4, 401280, Note_on_c, 2, 67, 0
4, 401280, Note_on_c, 2, 69, 36
4, 401760, Note_on_c, 2, 69, 0
4, 401760, Note_on_c, 2, 62, 36
4, 402720, Note_on_c, 2, 62, 0
4, 403200, Note_on_c, 2, 62, 36
4, 403680, Note_on_c, 2, 62, 0
4, 403680, Note_on_c, 2, 62, 36
4, 404160, Note_on_c, 2, 62, 0
4, 404160, Note_on_c, 2, 62, 36
4, 405120, Note_on_c, 2, 62, 0
4, 405599, Control_c, 2, 7, 60
4, 405600, Note_on_c, 2, 64, 36
4, 406080, Note_on_c, 2, 64, 0
4, 406080, Note_on_c, 2, 64, 36
4, 406560, Note_on_c, 2, 64, 0
4, 406560, Note_on_c, 2, 64, 36
4, 407040, Note_on_c, 2, 64, 0
4, 407040, Note_on_c, 2, 62, 36
4, 407520, Note_on_c, 2, 62, 0
4, 407520, Note_on_c, 2, 62, 36
4, 408000, Note_on_c, 2, 62, 0
4, 408000, Note_on_c, 2, 62, 36
4, 408480, Note_on_c, 2, 62, 0
4, 408480, Note_on_c, 2, 60, 36
4, 408960, Note_on_c, 2, 60, 0
4, 408960, Note_on_c, 2, 60, 36
4, 409440, Note_on_c, 2, 60, 0
4, 409440, Note_on_c, 2, 60, 36
4, 409920, Note_on_c, 2, 60, 0
4, 409920, Note_on_c, 2, 59, 36
4, 410400, Note_on_c, 2, 59, 0
4, 410400, Note_on_c, 2, 59, 36
4, 410880, Note_on_c, 2, 59, 0
4, 410880, Note_on_c, 2, 59, 36
4, 411360, Note_on_c, 2, 59, 0
4, 411360, Note_on_c, 2, 57, 36
4, 411840, Note_on_c, 2, 57, 0
4, 411840, Note_on_c, 2, 57, 36
4, 412320, Note_on_c, 2, 57, 0
4, 412320, Note_on_c, 2, 57, 36
4, 412800, Note_on_c, 2, 57, 0
4, 412800, Note_on_c, 2, 55, 36
4, 413280, Note_on_c, 2, 55, 0
4, 413280, Note_on_c, 2, 55, 36
4, 413760, Note_on_c, 2, 55, 0
4, 413760, Note_on_c, 2, 55, 36
4, 414240, Note_on_c, 2, 55, 0
4, 414240, Note_on_c, 2, 53, 36
4, 414720, Note_on_c, 2, 53, 0
4, 414720, Note_on_c, 2, 69, 36
4, 414960, Note_on_c, 2, 69, 0
4, 414960, Note_on_c, 2, 65, 36
4, 415200, Note_on_c, 2, 65, 0
4, 415200, Note_on_c, 2, 64, 36
4, 415440, Note_on_c, 2, 64, 0
4, 415440, Note_on_c, 2, 62, 36
4, 415680, Note_on_c, 2, 62, 0
4, 415680, Note_on_c, 2, 62, 36
4, 415920, Note_on_c, 2, 62, 0
4, 415920, Note_on_c, 2, 64, 36
4, 416640, Note_on_c, 2, 64, 0
4, 417120, Note_on_c, 2, 64, 36
4, 417600, Note_on_c, 2, 64, 0
4, 417600, Note_on_c, 2, 64, 36
4, 418080, Note_on_c, 2, 64, 0
4, 418080, Note_on_c, 2, 64, 36
4, 418560, Note_on_c, 2, 64, 0
4, 418560, Note_on_c, 2, 62, 36
4, 419040, Note_on_c, 2, 62, 0
4, 419040, Note_on_c, 2, 62, 36
4, 419520, Note_on_c, 2, 62, 0
4, 419520, Note_on_c, 2, 62, 36
4, 420000, Note_on_c, 2, 62, 0
4, 420000, Note_on_c, 2, 60, 36
4, 420480, Note_on_c, 2, 60, 0
4, 420480, Note_on_c, 2, 60, 36
4, 420960, Note_on_c, 2, 60, 0
4, 420960, Note_on_c, 2, 60, 36
4, 421440, Note_on_c, 2, 60, 0
4, 421440, Note_on_c, 2, 59, 36
4, 421920, Note_on_c, 2, 59, 0
4, 421920, Note_on_c, 2, 59, 36
4, 422400, Note_on_c, 2, 59, 0
4, 422400, Note_on_c, 2, 59, 36
4, 422880, Note_on_c, 2, 59, 0
4, 422880, Note_on_c, 2, 57, 36
4, 423360, Note_on_c, 2, 57, 0
4, 423360, Note_on_c, 2, 57, 36
4, 423840, Note_on_c, 2, 57, 0
4, 423840, Note_on_c, 2, 57, 36
4, 424320, Note_on_c, 2, 57, 0
4, 424320, Note_on_c, 2, 55, 36
4, 424800, Note_on_c, 2, 55, 0
4, 424800, Note_on_c, 2, 55, 36
4, 425280, Note_on_c, 2, 55, 0
4, 425280, Note_on_c, 2, 55, 36
4, 425760, Note_on_c, 2, 55, 0
4, 425760, Note_on_c, 2, 53, 36
4, 426240, Note_on_c, 2, 53, 0
4, 426240, Note_on_c, 2, 69, 36
4, 426480, Note_on_c, 2, 69, 0
4, 426480, Note_on_c, 2, 65, 36
4, 426720, Note_on_c, 2, 65, 0
4, 426720, Note_on_c, 2, 64, 36
4, 426960, Note_on_c, 2, 64, 0
4, 426960, Note_on_c, 2, 62, 36
4, 427200, Note_on_c, 2, 62, 0
4, 427200, Note_on_c, 2, 62, 36
4, 427440, Note_on_c, 2, 62, 0
4, 427440, Note_on_c, 2, 64, 36
4, 428160, Note_on_c, 2, 64, 0
4, 428640, Control_c, 2, 7, 100
4, 428640, Note_on_c, 2, 67, 79
4, 429120, Note_on_c, 2, 67, 0
4, 429120, Note_on_c, 2, 67, 79
4, 429600, Note_on_c, 2, 67, 0
4, 429600, Note_on_c, 2, 67, 79
4, 430080, Note_on_c, 2, 67, 0
4, 430080, Note_on_c, 2, 67, 79
4, 430560, Note_on_c, 2, 67, 0
4, 430560, Note_on_c, 2, 67, 79
4, 431040, Note_on_c, 2, 67, 0
4, 431040, Note_on_c, 2, 67, 79
4, 431519, Control_c, 2, 7, 100
4, 431520, Note_on_c, 2, 67, 0
4, 431520, Note_on_c, 2, 55, 79
4, 431520, Control_c, 2, 7, 60
4, 432000, Note_on_c, 2, 55, 0
4, 432000, Note_on_c, 2, 55, 79
4, 432480, Note_on_c, 2, 55, 0
4, 432480, Note_on_c, 2, 55, 79
4, 432960, Note_on_c, 2, 55, 0
4, 432960, Note_on_c, 2, 55, 79
4, 433440, Note_on_c, 2, 55, 0
4, 433440, Note_on_c, 2, 55, 79
4, 433920, Note_on_c, 2, 55, 0
4, 433920, Note_on_c, 2, 55, 79
4, 434400, Note_on_c, 2, 55, 0
4, 434400, Control_c, 2, 7, 106
4, 434400, Note_on_c, 2, 55, 79
4, 434880, Note_on_c, 2, 55, 0
4, 435840, Note_on_c, 2, 55, 79
4, 436320, Note_on_c, 2, 55, 0
4, 437280, Note_on_c, 2, 62, 79
4, 437760, Note_on_c, 2, 62, 0
4, 437760, Note_on_c, 2, 60, 79
4, 438240, Note_on_c, 2, 60, 0
4, 438240, Note_on_c, 2, 57, 79
4, 438720, Note_on_c, 2, 57, 0
4, 438720, Note_on_c, 2, 55, 79
4, 439200, Note_on_c, 2, 55, 0
4, 439200, Note_on_c, 2, 59, 79
4, 439440, Note_on_c, 2, 59, 0
4, 439440, Note_on_c, 2, 62, 79
4, 439680, Note_on_c, 2, 62, 0
4, 439680, Note_on_c, 2, 62, 79
4, 439920, Note_on_c, 2, 62, 0
4, 439920, Note_on_c, 2, 65, 79
4, 440160, Note_on_c, 2, 65, 0
4, 440160, Control_c, 2, 7, 62
4, 440160, Note_on_c, 2, 64, 36
4, 440640, Note_on_c, 2, 64, 0
4, 440640, Note_on_c, 2, 64, 36
4, 441120, Note_on_c, 2, 64, 0
4, 441120, Note_on_c, 2, 64, 36
4, 441600, Note_on_c, 2, 64, 0
4, 441600, Note_on_c, 2, 62, 36
4, 442080, Note_on_c, 2, 62, 0
4, 442080, Note_on_c, 2, 62, 36
4, 442560, Note_on_c, 2, 62, 0
4, 442560, Note_on_c, 2, 62, 36
4, 443040, Note_on_c, 2, 62, 0
4, 443040, Note_on_c, 2, 60, 36
4, 443520, Note_on_c, 2, 60, 0
4, 443520, Note_on_c, 2, 60, 36
4, 444000, Note_on_c, 2, 60, 0
4, 444000, Note_on_c, 2, 60, 36
4, 444480, Note_on_c, 2, 60, 0
4, 444480, Note_on_c, 2, 59, 36
4, 444960, Note_on_c, 2, 59, 0
4, 444960, Note_on_c, 2, 59, 36
4, 445440, Note_on_c, 2, 59, 0
4, 445440, Note_on_c, 2, 59, 36
4, 445920, Note_on_c, 2, 59, 0
4, 445920, Note_on_c, 2, 57, 36
4, 446400, Note_on_c, 2, 57, 0
4, 446400, Note_on_c, 2, 57, 36
4, 446880, Note_on_c, 2, 57, 0
4, 446880, Note_on_c, 2, 57, 36
4, 447360, Note_on_c, 2, 57, 0
4, 447360, Note_on_c, 2, 55, 36
4, 447840, Note_on_c, 2, 55, 0
4, 447840, Note_on_c, 2, 55, 36
4, 448320, Note_on_c, 2, 55, 0
4, 448320, Note_on_c, 2, 55, 36
4, 448800, Note_on_c, 2, 55, 0
4, 448800, Note_on_c, 2, 53, 36
4, 449280, Note_on_c, 2, 53, 0
4, 449280, Note_on_c, 2, 69, 36
4, 449520, Note_on_c, 2, 69, 0
4, 449520, Note_on_c, 2, 65, 36
4, 449760, Note_on_c, 2, 65, 0
4, 449760, Note_on_c, 2, 64, 36
4, 450000, Note_on_c, 2, 64, 0
4, 450000, Note_on_c, 2, 62, 36
4, 450240, Note_on_c, 2, 62, 0
4, 450240, Note_on_c, 2, 62, 36
4, 450480, Note_on_c, 2, 62, 0
4, 450480, Note_on_c, 2, 64, 36
4, 451200, Note_on_c, 2, 64, 0
4, 451680, Control_c, 2, 7, 98
4, 451680, Note_on_c, 2, 67, 79
4, 452160, Note_on_c, 2, 67, 0
4, 452160, Note_on_c, 2, 67, 79
4, 452640, Note_on_c, 2, 67, 0
4, 452640, Note_on_c, 2, 67, 79
4, 453120, Note_on_c, 2, 67, 0
4, 453120, Note_on_c, 2, 67, 79
4, 453600, Note_on_c, 2, 67, 0
4, 453600, Note_on_c, 2, 67, 79
4, 454080, Note_on_c, 2, 67, 0
4, 454080, Note_on_c, 2, 67, 79
4, 454559, Control_c, 2, 7, 98
4, 454560, Note_on_c, 2, 67, 0
4, 454560, Note_on_c, 2, 55, 79
4, 454560, Control_c, 2, 7, 64
4, 455040, Note_on_c, 2, 55, 0
4, 455040, Note_on_c, 2, 55, 79
4, 455520, Note_on_c, 2, 55, 0
4, 455520, Note_on_c, 2, 55, 79
4, 456000, Note_on_c, 2, 55, 0
4, 456000, Note_on_c, 2, 55, 79
4, 456480, Note_on_c, 2, 55, 0
4, 456480, Note_on_c, 2, 55, 79
4, 456960, Note_on_c, 2, 55, 0
4, 456960, Note_on_c, 2, 55, 79
4, 457440, Note_on_c, 2, 55, 0
4, 457440, Control_c, 2, 7, 100
4, 457440, Note_on_c, 2, 55, 79
4, 457920, Note_on_c, 2, 55, 0
4, 458880, Note_on_c, 2, 55, 79
4, 459360, Note_on_c, 2, 55, 0
4, 460320, Note_on_c, 2, 62, 79
4, 460800, Note_on_c, 2, 62, 0
4, 460800, Note_on_c, 2, 60, 79
4, 461280, Note_on_c, 2, 60, 0
4, 461280, Note_on_c, 2, 57, 79
4, 461760, Note_on_c, 2, 57, 0
4, 461760, Note_on_c, 2, 55, 79
4, 462240, Note_on_c, 2, 55, 0
4, 462240, Note_on_c, 2, 59, 79
4, 462480, Note_on_c, 2, 59, 0
4, 462480, Note_on_c, 2, 62, 79
4, 462720, Note_on_c, 2, 62, 0
4, 462720, Note_on_c, 2, 62, 79
4, 462960, Note_on_c, 2, 62, 0
4, 462960, Note_on_c, 2, 65, 79
4, 463200, Note_on_c, 2, 65, 0
4, 463200, Control_c, 2, 7, 62
4, 463200, Note_on_c, 2, 64, 36
4, 463680, Note_on_c, 2, 64, 0
4, 463680, Note_on_c, 2, 64, 36
4, 464160, Note_on_c, 2, 64, 0
4, 464160, Note_on_c, 2, 64, 36
4, 464640, Note_on_c, 2, 64, 0
4, 464640, Note_on_c, 2, 62, 36
4, 465120, Note_on_c, 2, 62, 0
4, 465120, Note_on_c, 2, 62, 36
4, 465600, Note_on_c, 2, 62, 0
4, 465600, Note_on_c, 2, 62, 36
4, 466080, Note_on_c, 2, 62, 0
4, 466080, Note_on_c, 2, 60, 36
4, 466560, Note_on_c, 2, 60, 0
4, 466560, Note_on_c, 2, 60, 36
4, 467040, Note_on_c, 2, 60, 0
4, 467040, Note_on_c, 2, 60, 36
4, 467520, Note_on_c, 2, 60, 0
4, 467520, Note_on_c, 2, 59, 36
4, 468000, Note_on_c, 2, 59, 0
4, 468000, Note_on_c, 2, 59, 36
4, 468480, Note_on_c, 2, 59, 0
4, 468480, Note_on_c, 2, 59, 36
4, 468960, Note_on_c, 2, 59, 0
4, 468960, Note_on_c, 2, 57, 36
4, 469440, Note_on_c, 2, 57, 0
4, 469440, Note_on_c, 2, 57, 36
4, 469920, Note_on_c, 2, 57, 0
4, 469920, Note_on_c, 2, 57, 36
4, 470400, Note_on_c, 2, 57, 0
4, 470400, Note_on_c, 2, 55, 36
4, 470880, Note_on_c, 2, 55, 0
4, 470880, Note_on_c, 2, 55, 36
4, 471360, Note_on_c, 2, 55, 0
4, 471360, Note_on_c, 2, 55, 36
4, 471840, Note_on_c, 2, 55, 0
4, 471840, Note_on_c, 2, 53, 36
4, 472320, Note_on_c, 2, 53, 0
4, 472320, Note_on_c, 2, 69, 36
4, 472560, Note_on_c, 2, 69, 0
4, 472560, Note_on_c, 2, 65, 36
4, 472800, Note_on_c, 2, 65, 0
4, 472800, Note_on_c, 2, 64, 36
4, 473040, Note_on_c, 2, 64, 0
4, 473040, Note_on_c, 2, 62, 36
4, 473280, Note_on_c, 2, 62, 0
4, 473280, Note_on_c, 2, 62, 36
4, 473520, Note_on_c, 2, 62, 0
4, 473520, Note_on_c, 2, 64, 36
4, 474240, Note_on_c, 2, 64, 0
4, 474672, Control_c, 2, 7, 102
4, 478560, Note_on_c, 2, 64, 36
4, 479040, Note_on_c, 2, 64, 0
4, 479040, Note_on_c, 2, 59, 36
4, 480000, Note_on_c, 2, 59, 0
4, 480000, Note_on_c, 2, 57, 36
4, 480480, Note_on_c, 2, 57, 0
4, 480480, Note_on_c, 2, 62, 36
4, 480960, Note_on_c, 2, 62, 0
4, 480960, Note_on_c, 2, 66, 36
4, 481440, Note_on_c, 2, 66, 0
4, 481440, Note_on_c, 2, 67, 36
4, 481920, Note_on_c, 2, 67, 0
4, 481920, Note_on_c, 2, 69, 36
4, 482400, Note_on_c, 2, 69, 0
4, 482400, Note_on_c, 2, 62, 36
4, 483360, Note_on_c, 2, 62, 0
4, 483360, Note_on_c, 2, 60, 36
4, 483840, Note_on_c, 2, 60, 0
4, 483840, Note_on_c, 2, 59, 36
4, 484320, Note_on_c, 2, 59, 0
4, 484320, Note_on_c, 2, 57, 36
4, 484800, Note_on_c, 2, 57, 0
4, 484800, Note_on_c, 2, 55, 36
4, 485760, Note_on_c, 2, 55, 0
4, 486288, Control_c, 2, 7, 114
4, 486336, Control_c, 2, 7, 110
4, 486432, Control_c, 2, 7, 88
4, 486720, Note_on_c, 2, 62, 36
4, 486720, Control_c, 2, 7, 68
4, 486815, Control_c, 2, 7, 68
4, 486816, Control_c, 2, 7, 64
4, 486960, Note_on_c, 2, 62, 0
4, 486960, Note_on_c, 2, 66, 36
4, 487200, Note_on_c, 2, 66, 0
4, 487200, Note_on_c, 2, 69, 36
4, 487343, Control_c, 2, 7, 64
4, 487344, Control_c, 2, 7, 56
4, 487679, Control_c, 2, 7, 56
4, 487680, Note_on_c, 2, 69, 0
4, 487727, Control_c, 2, 7, 60
4, 487776, Control_c, 2, 7, 102
4, 488016, Control_c, 2, 7, 76
4, 488160, Note_on_c, 2, 57, 36
4, 488208, Control_c, 2, 7, 52
4, 488400, Note_on_c, 2, 57, 0
4, 488400, Note_on_c, 2, 62, 36
4, 488640, Note_on_c, 2, 62, 0
4, 488640, Note_on_c, 2, 66, 36
4, 489120, Note_on_c, 2, 66, 0
4, 489167, Control_c, 2, 7, 48
4, 489215, Control_c, 2, 7, 60
4, 489216, Control_c, 2, 7, 100
4, 489552, Control_c, 2, 7, 70
4, 490080, Note_on_c, 2, 67, 36
4, 490127, Control_c, 2, 7, 58
4, 490128, Control_c, 2, 7, 46
4, 490415, Control_c, 2, 7, 46
4, 490416, Control_c, 2, 7, 54
4, 490512, Control_c, 2, 7, 60
4, 490560, Note_on_c, 2, 67, 0
4, 490560, Note_on_c, 2, 66, 36
4, 490560, Control_c, 2, 7, 64
4, 491087, Control_c, 2, 7, 64
4, 491520, Note_on_c, 2, 66, 0
4, 491520, Note_on_c, 2, 64, 36
4, 492000, Note_on_c, 2, 64, 0
4, 492480, Note_on_c, 2, 61, 36
4, 492960, Note_on_c, 2, 61, 0
4, 492960, Note_on_c, 2, 62, 36
4, 493440, Note_on_c, 2, 62, 0
4, 493440, Note_on_c, 2, 62, 36
4, 493920, Note_on_c, 2, 62, 0
4, 493920, Note_on_c, 2, 66, 36
4, 494400, Note_on_c, 2, 66, 0
4, 494400, Note_on_c, 2, 67, 36
4, 494880, Note_on_c, 2, 67, 0
4, 494880, Note_on_c, 2, 66, 36
4, 495360, Note_on_c, 2, 66, 0
4, 495360, Note_on_c, 2, 69, 36
4, 495600, Note_on_c, 2, 69, 0
4, 495600, Note_on_c, 2, 66, 36
4, 495840, Note_on_c, 2, 66, 0
4, 495840, Note_on_c, 2, 67, 36
4, 496080, Note_on_c, 2, 67, 0
4, 496080, Note_on_c, 2, 64, 36
4, 496320, Note_on_c, 2, 64, 0
4, 496320, Note_on_c, 2, 62, 36
4, 496800, Note_on_c, 2, 62, 0
4, 500640, Note_on_c, 2, 48, 36
4, 501120, Note_on_c, 2, 48, 0
4, 501120, Note_on_c, 2, 60, 36
4, 501600, Note_on_c, 2, 60, 0
4, 501600, Note_on_c, 2, 61, 36
4, 502080, Note_on_c, 2, 61, 0
4, 502080, Note_on_c, 2, 62, 36
4, 502560, Note_on_c, 2, 62, 0
4, 502560, Note_on_c, 2, 57, 36
4, 503040, Note_on_c, 2, 57, 0
4, 503040, Note_on_c, 2, 50, 36
4, 503520, Note_on_c, 2, 50, 0
4, 503520, Control_c, 2, 7, 102
4, 504527, Control_c, 2, 7, 102
4, 507360, Note_on_c, 2, 64, 36
4, 507840, Note_on_c, 2, 64, 0
4, 507840, Note_on_c, 2, 59, 36
4, 508800, Note_on_c, 2, 59, 0
4, 508800, Note_on_c, 2, 57, 36
4, 509280, Note_on_c, 2, 57, 0
4, 509280, Note_on_c, 2, 62, 36
4, 509760, Note_on_c, 2, 62, 0
4, 509760, Note_on_c, 2, 66, 36
4, 510240, Note_on_c, 2, 66, 0
4, 510240, Note_on_c, 2, 67, 36
4, 510720, Note_on_c, 2, 67, 0
4, 510720, Note_on_c, 2, 69, 36
4, 511200, Note_on_c, 2, 69, 0
4, 511200, Note_on_c, 2, 62, 36
4, 512160, Note_on_c, 2, 62, 0
4, 512640, Note_on_c, 2, 62, 36
4, 513120, Note_on_c, 2, 62, 0
4, 513120, Note_on_c, 2, 62, 36
4, 513600, Note_on_c, 2, 62, 0
4, 513600, Note_on_c, 2, 62, 36
4, 515040, Note_on_c, 2, 62, 0
4, 516480, Control_c, 2, 7, 62
4, 516480, Note_on_c, 2, 59, 36
4, 516960, Note_on_c, 2, 59, 0
4, 516960, Note_on_c, 2, 59, 36
4, 517440, Note_on_c, 2, 59, 0
4, 517440, Note_on_c, 2, 60, 36
4, 517680, Note_on_c, 2, 60, 0
4, 517680, Note_on_c, 2, 59, 36
4, 517920, Note_on_c, 2, 59, 0
4, 517920, Note_on_c, 2, 57, 36
4, 518160, Note_on_c, 2, 57, 0
4, 518160, Note_on_c, 2, 55, 36
4, 518400, Note_on_c, 2, 55, 0
4, 518400, Note_on_c, 2, 60, 36
4, 518880, Note_on_c, 2, 60, 0
4, 518880, Note_on_c, 2, 60, 36
4, 519360, Note_on_c, 2, 60, 0
4, 519360, Note_on_c, 2, 60, 36
4, 520320, Note_on_c, 2, 60, 0
4, 520320, Note_on_c, 2, 64, 36
4, 520800, Note_on_c, 2, 64, 0
4, 520800, Note_on_c, 2, 64, 36
4, 521280, Note_on_c, 2, 64, 0
4, 521280, Note_on_c, 2, 66, 36
4, 521520, Note_on_c, 2, 66, 0
4, 521520, Note_on_c, 2, 64, 36
4, 521760, Note_on_c, 2, 64, 0
4, 521760, Note_on_c, 2, 62, 36
4, 522000, Note_on_c, 2, 62, 0
4, 522000, Note_on_c, 2, 60, 36
4, 522240, Note_on_c, 2, 60, 0
4, 522240, Note_on_c, 2, 54, 36
4, 522720, Note_on_c, 2, 54, 0
4, 522720, Note_on_c, 2, 54, 36
4, 523200, Note_on_c, 2, 54, 0
4, 523200, Note_on_c, 2, 54, 36
4, 524160, Note_on_c, 2, 54, 0
4, 524160, Note_on_c, 2, 59, 79
4, 524208, Control_c, 2, 7, 104
4, 524640, Note_on_c, 2, 59, 0
4, 524640, Note_on_c, 2, 59, 79
4, 525120, Note_on_c, 2, 59, 0
4, 525120, Note_on_c, 2, 60, 79
4, 525360, Note_on_c, 2, 60, 0
4, 525360, Note_on_c, 2, 59, 79
4, 525600, Note_on_c, 2, 59, 0
4, 525600, Note_on_c, 2, 57, 79
4, 525840, Note_on_c, 2, 57, 0
4, 525840, Note_on_c, 2, 55, 79
4, 526080, Note_on_c, 2, 55, 0
4, 526080, Note_on_c, 2, 67, 79
4, 526560, Note_on_c, 2, 67, 0
4, 529920, Note_on_c, 2, 62, 79
4, 529980, Note_on_c, 2, 62, 0
4, 529980, Note_on_c, 2, 60, 79
4, 530100, Note_on_c, 2, 60, 0
4, 530100, Note_on_c, 2, 62, 79
4, 530160, Note_on_c, 2, 62, 0
4, 530160, Note_on_c, 2, 60, 79
4, 530220, Note_on_c, 2, 60, 0
4, 530220, Note_on_c, 2, 62, 79
4, 530280, Note_on_c, 2, 62, 0
4, 530280, Note_on_c, 2, 60, 79
4, 530340, Note_on_c, 2, 60, 0
4, 530340, Note_on_c, 2, 62, 79
4, 530400, Note_on_c, 2, 62, 0
4, 530400, Note_on_c, 2, 60, 79
4, 530460, Note_on_c, 2, 60, 0
4, 530460, Note_on_c, 2, 62, 79
4, 530520, Note_on_c, 2, 62, 0
4, 530520, Note_on_c, 2, 60, 79
4, 530580, Note_on_c, 2, 60, 0
4, 530580, Note_on_c, 2, 62, 79
4, 530640, Note_on_c, 2, 62, 0
4, 530640, Note_on_c, 2, 60, 79
4, 530700, Note_on_c, 2, 60, 0
4, 530700, Note_on_c, 2, 62, 79
4, 530760, Note_on_c, 2, 62, 0
4, 530760, Note_on_c, 2, 60, 79
4, 530880, Note_on_c, 2, 60, 0
4, 530880, Note_on_c, 2, 59, 79
4, 531360, Note_on_c, 2, 59, 0
4, 531840, Note_on_c, 2, 59, 79
4, 531888, Control_c, 2, 7, 66
4, 532320, Note_on_c, 2, 59, 0
4, 532320, Note_on_c, 2, 59, 79
4, 532800, Note_on_c, 2, 59, 0
4, 532800, Note_on_c, 2, 60, 79
4, 533040, Note_on_c, 2, 60, 0
4, 533040, Note_on_c, 2, 59, 79
4, 533280, Note_on_c, 2, 59, 0
4, 533280, Note_on_c, 2, 57, 79
4, 533520, Note_on_c, 2, 57, 0
4, 533520, Note_on_c, 2, 55, 79
4, 533760, Note_on_c, 2, 55, 0
4, 533760, Note_on_c, 2, 60, 79
4, 534240, Note_on_c, 2, 60, 0
4, 534240, Note_on_c, 2, 60, 79
4, 534720, Note_on_c, 2, 60, 0
4, 534720, Note_on_c, 2, 60, 79
4, 535680, Note_on_c, 2, 60, 0
4, 535680, Note_on_c, 2, 64, 79
4, 535728, Control_c, 2, 7, 66
4, 536160, Note_on_c, 2, 64, 0
4, 536160, Note_on_c, 2, 64, 79
4, 536640, Note_on_c, 2, 64, 0
4, 536640, Note_on_c, 2, 66, 79
4, 536880, Note_on_c, 2, 66, 0
4, 536880, Note_on_c, 2, 64, 79
4, 537120, Note_on_c, 2, 64, 0
4, 537120, Note_on_c, 2, 62, 79
4, 537360, Note_on_c, 2, 62, 0
4, 537360, Note_on_c, 2, 60, 79
4, 537600, Note_on_c, 2, 60, 0
4, 537600, Note_on_c, 2, 54, 79
4, 538080, Note_on_c, 2, 54, 0
4, 538080, Note_on_c, 2, 54, 79
4, 538560, Note_on_c, 2, 54, 0
4, 538560, Note_on_c, 2, 54, 79
4, 539520, Note_on_c, 2, 54, 0
4, 539520, Note_on_c, 2, 59, 79
4, 539567, Control_c, 2, 7, 68
4, 539616, Control_c, 2, 7, 104
4, 540000, Note_on_c, 2, 59, 0
4, 540000, Note_on_c, 2, 59, 79
4, 540480, Note_on_c, 2, 59, 0
4, 540480, Note_on_c, 2, 60, 79
4, 540720, Note_on_c, 2, 60, 0
4, 540720, Note_on_c, 2, 59, 79
4, 540960, Note_on_c, 2, 59, 0
4, 540960, Note_on_c, 2, 57, 79
4, 541200, Note_on_c, 2, 57, 0
4, 541200, Note_on_c, 2, 55, 79
4, 541440, Note_on_c, 2, 55, 0
4, 541440, Note_on_c, 2, 67, 79
4, 541920, Note_on_c, 2, 67, 0
4, 545280, Note_on_c, 2, 62, 79
4, 545340, Note_on_c, 2, 62, 0
4, 545340, Note_on_c, 2, 60, 79
4, 545460, Note_on_c, 2, 60, 0
4, 545460, Note_on_c, 2, 62, 79
4, 545520, Note_on_c, 2, 62, 0
4, 545520, Note_on_c, 2, 60, 79
4, 545580, Note_on_c, 2, 60, 0
4, 545580, Note_on_c, 2, 62, 79
4, 545640, Note_on_c, 2, 62, 0
4, 545640, Note_on_c, 2, 60, 79
4, 545700, Note_on_c, 2, 60, 0
4, 545700, Note_on_c, 2, 62, 79
4, 545760, Note_on_c, 2, 62, 0
4, 545760, Note_on_c, 2, 60, 79
4, 545820, Note_on_c, 2, 60, 0
4, 545820, Note_on_c, 2, 62, 79
4, 545880, Note_on_c, 2, 62, 0
4, 545880, Note_on_c, 2, 60, 79
4, 545940, Note_on_c, 2, 60, 0
4, 545940, Note_on_c, 2, 62, 79
4, 546000, Note_on_c, 2, 62, 0
4, 546000, Note_on_c, 2, 60, 79
4, 546060, Note_on_c, 2, 60, 0
4, 546060, Note_on_c, 2, 62, 79
4, 546120, Note_on_c, 2, 62, 0
4, 546120, Note_on_c, 2, 60, 79
4, 546240, Note_on_c, 2, 60, 0
4, 546240, Note_on_c, 2, 59, 79
4, 546720, Note_on_c, 2, 59, 0
4, 548160, Note_on_c, 2, 57, 79
4, 549120, Note_on_c, 2, 57, 0
4, 549120, Note_on_c, 2, 57, 79
4, 550080, Note_on_c, 2, 57, 0
4, 550080, Note_on_c, 2, 57, 79
4, 550560, Note_on_c, 2, 57, 0
4, 552000, Note_on_c, 2, 62, 79
4, 553440, Note_on_c, 2, 62, 0
4, 553440, Note_on_c, 2, 71, 79
4, 553920, Note_on_c, 2, 71, 0
4, 553920, Note_on_c, 2, 69, 79
4, 554880, Note_on_c, 2, 69, 0
4, 555840, Note_on_c, 2, 57, 79
4, 556512, Control_c, 2, 7, 104
4, 556800, Note_on_c, 2, 57, 0
4, 556800, Note_on_c, 2, 57, 79
4, 557760, Note_on_c, 2, 57, 0
4, 557760, Note_on_c, 2, 57, 79
4, 558720, Note_on_c, 2, 57, 0
4, 560160, Note_on_c, 2, 62, 79
4, 560640, Note_on_c, 2, 62, 0
4, 560640, Note_on_c, 2, 69, 79
4, 561120, Note_on_c, 2, 69, 0
4, 561120, Note_on_c, 2, 57, 79
4, 561600, Note_on_c, 2, 57, 0
4, 561600, Note_on_c, 2, 57, 79
4, 562560, Note_on_c, 2, 57, 0
4, 562608, Control_c, 2, 7, 56
4, 564000, Note_on_c, 2, 59, 36
4, 564480, Note_on_c, 2, 59, 0
4, 564960, Note_on_c, 2, 56, 36
4, 565440, Note_on_c, 2, 56, 0
4, 565920, Note_on_c, 2, 57, 36
4, 566400, Note_on_c, 2, 57, 0
4, 566880, Note_on_c, 2, 57, 36
4, 567360, Note_on_c, 2, 57, 0
4, 567840, Note_on_c, 2, 57, 36
4, 568320, Note_on_c, 2, 57, 0
4, 568800, Note_on_c, 2, 54, 36
4, 569280, Note_on_c, 2, 54, 0
4, 569760, Note_on_c, 2, 55, 36
4, 570240, Note_on_c, 2, 55, 0
4, 570287, Control_c, 2, 7, 56
4, 570288, Control_c, 2, 7, 108
4, 571332, Control_c, 2, 7, 107
4, 572376, Control_c, 2, 7, 106
4, 573420, Control_c, 2, 7, 105
4, 574463, Control_c, 2, 7, 104
4, 575040, Note_on_c, 2, 62, 79
4, 576960, Note_on_c, 2, 62, 0
4, 576960, Note_on_c, 2, 62, 79
4, 577440, Note_on_c, 2, 62, 0
4, 577920, Note_on_c, 2, 59, 79
4, 577968, Control_c, 2, 7, 58
4, 578400, Note_on_c, 2, 59, 0
4, 578400, Note_on_c, 2, 59, 79
4, 578880, Note_on_c, 2, 59, 0
4, 578880, Note_on_c, 2, 60, 79
4, 579120, Note_on_c, 2, 60, 0
4, 579120, Note_on_c, 2, 59, 79
4, 579360, Note_on_c, 2, 59, 0
4, 579360, Note_on_c, 2, 57, 79
4, 579600, Note_on_c, 2, 57, 0
4, 579600, Note_on_c, 2, 55, 79
4, 579840, Note_on_c, 2, 55, 0
4, 579840, Note_on_c, 2, 60, 79
4, 580320, Note_on_c, 2, 60, 0
4, 580320, Note_on_c, 2, 60, 79
4, 580800, Note_on_c, 2, 60, 0
4, 580800, Note_on_c, 2, 60, 79
4, 581760, Note_on_c, 2, 60, 0
4, 581760, Note_on_c, 2, 64, 79
4, 582240, Note_on_c, 2, 64, 0
4, 582240, Note_on_c, 2, 64, 79
4, 582720, Note_on_c, 2, 64, 0
4, 582720, Note_on_c, 2, 66, 79
4, 582960, Note_on_c, 2, 66, 0
4, 582960, Note_on_c, 2, 64, 79
4, 583200, Note_on_c, 2, 64, 0
4, 583200, Note_on_c, 2, 62, 79
4, 583440, Note_on_c, 2, 62, 0
4, 583440, Note_on_c, 2, 60, 79
4, 583680, Note_on_c, 2, 60, 0
4, 583680, Note_on_c, 2, 54, 79
4, 584160, Note_on_c, 2, 54, 0
4, 584160, Note_on_c, 2, 54, 79
4, 584640, Note_on_c, 2, 54, 0
4, 584640, Note_on_c, 2, 54, 79
4, 585600, Note_on_c, 2, 54, 0
4, 585600, Note_on_c, 2, 59, 79
4, 585648, Control_c, 2, 7, 106
4, 586080, Note_on_c, 2, 59, 0
4, 586080, Note_on_c, 2, 59, 79
4, 586560, Note_on_c, 2, 59, 0
4, 586560, Note_on_c, 2, 60, 79
4, 586800, Note_on_c, 2, 60, 0
4, 586800, Note_on_c, 2, 59, 79
4, 587040, Note_on_c, 2, 59, 0
4, 587040, Note_on_c, 2, 57, 79
4, 587280, Note_on_c, 2, 57, 0
4, 587280, Note_on_c, 2, 55, 79
4, 587520, Note_on_c, 2, 55, 0
4, 587520, Note_on_c, 2, 67, 79
4, 588000, Note_on_c, 2, 67, 0
4, 591360, Note_on_c, 2, 64, 79
4, 591420, Note_on_c, 2, 64, 0
4, 591420, Note_on_c, 2, 60, 79
4, 591480, Note_on_c, 2, 60, 0
4, 591480, Note_on_c, 2, 64, 79
4, 591540, Note_on_c, 2, 64, 0
4, 591540, Note_on_c, 2, 60, 79
4, 591660, Note_on_c, 2, 60, 0
4, 591660, Note_on_c, 2, 64, 79
4, 591720, Note_on_c, 2, 64, 0
4, 591720, Note_on_c, 2, 60, 79
4, 591780, Note_on_c, 2, 60, 0
4, 591780, Note_on_c, 2, 64, 79
4, 591840, Note_on_c, 2, 64, 0
4, 591840, Note_on_c, 2, 60, 79
4, 591900, Note_on_c, 2, 60, 0
4, 591900, Note_on_c, 2, 64, 79
4, 591960, Note_on_c, 2, 64, 0
4, 591960, Note_on_c, 2, 60, 79
4, 592020, Note_on_c, 2, 60, 0
4, 592020, Note_on_c, 2, 64, 79
4, 592080, Note_on_c, 2, 64, 0
4, 592080, Note_on_c, 2, 60, 79
4, 592140, Note_on_c, 2, 60, 0
4, 592140, Note_on_c, 2, 64, 79
4, 592200, Note_on_c, 2, 64, 0
4, 592200, Note_on_c, 2, 60, 79
4, 592260, Note_on_c, 2, 60, 0
4, 592260, Note_on_c, 2, 64, 79
4, 592320, Note_on_c, 2, 64, 0
4, 592320, Note_on_c, 2, 59, 79
4, 592800, Note_on_c, 2, 59, 0
4, 594240, Note_on_c, 2, 57, 79
4, 595200, Note_on_c, 2, 57, 0
4, 595200, Note_on_c, 2, 57, 79
4, 596160, Note_on_c, 2, 57, 0
4, 596160, Note_on_c, 2, 57, 79
4, 596640, Note_on_c, 2, 57, 0
4, 598080, Note_on_c, 2, 62, 79
4, 599520, Note_on_c, 2, 62, 0
4, 599520, Note_on_c, 2, 71, 79
4, 600000, Note_on_c, 2, 71, 0
4, 600000, Note_on_c, 2, 69, 79
4, 600960, Note_on_c, 2, 69, 0
4, 601920, Note_on_c, 2, 57, 79
4, 602880, Note_on_c, 2, 57, 0
4, 602880, Note_on_c, 2, 57, 79
4, 603840, Note_on_c, 2, 57, 0
4, 603840, Note_on_c, 2, 57, 79
4, 604800, Note_on_c, 2, 57, 0
4, 606240, Note_on_c, 2, 62, 79
4, 606720, Note_on_c, 2, 62, 0
4, 606720, Note_on_c, 2, 69, 79
4, 607200, Note_on_c, 2, 69, 0
4, 607200, Note_on_c, 2, 57, 79
4, 607680, Note_on_c, 2, 57, 0
4, 607680, Note_on_c, 2, 57, 79
4, 608640, Note_on_c, 2, 57, 0
4, 608736, Control_c, 2, 7, 60
4, 610080, Note_on_c, 2, 59, 36
4, 610560, Note_on_c, 2, 59, 0
4, 611040, Note_on_c, 2, 56, 36
4, 611520, Note_on_c, 2, 56, 0
4, 612000, Note_on_c, 2, 57, 36
4, 612480, Note_on_c, 2, 57, 0
4, 612960, Note_on_c, 2, 57, 36
4, 613440, Note_on_c, 2, 57, 0
4, 613920, Note_on_c, 2, 57, 36
4, 614400, Note_on_c, 2, 57, 0
4, 614880, Note_on_c, 2, 54, 36
4, 615360, Note_on_c, 2, 54, 0
4, 615840, Note_on_c, 2, 55, 36
4, 616320, Note_on_c, 2, 55, 0
4, 616367, Control_c, 2, 7, 60
4, 616368, Control_c, 2, 7, 108
4, 621120, Note_on_c, 2, 62, 79
4, 623040, Note_on_c, 2, 62, 0
4, 623040, Note_on_c, 2, 62, 79
4, 623520, Note_on_c, 2, 62, 0
4, 624000, Note_on_c, 2, 59, 79
4, 624048, Control_c, 2, 7, 60
4, 624480, Note_on_c, 2, 59, 0
4, 624480, Note_on_c, 2, 59, 79
4, 624960, Note_on_c, 2, 59, 0
4, 624960, Note_on_c, 2, 60, 79
4, 625200, Note_on_c, 2, 60, 0
4, 625200, Note_on_c, 2, 59, 79
4, 625440, Note_on_c, 2, 59, 0
4, 625440, Note_on_c, 2, 57, 79
4, 625680, Note_on_c, 2, 57, 0
4, 625680, Note_on_c, 2, 55, 79
4, 625920, Note_on_c, 2, 55, 0
4, 625920, Note_on_c, 2, 60, 79
4, 626400, Note_on_c, 2, 60, 0
4, 626400, Note_on_c, 2, 60, 79
4, 626880, Note_on_c, 2, 60, 0
4, 626880, Note_on_c, 2, 60, 79
4, 627840, Note_on_c, 2, 60, 0
4, 627840, Note_on_c, 2, 64, 79
4, 628320, Note_on_c, 2, 64, 0
4, 628320, Note_on_c, 2, 64, 79
4, 628800, Note_on_c, 2, 64, 0
4, 628800, Note_on_c, 2, 66, 79
4, 629040, Note_on_c, 2, 66, 0
4, 629040, Note_on_c, 2, 64, 79
4, 629280, Note_on_c, 2, 64, 0
4, 629280, Note_on_c, 2, 62, 79
4, 629520, Note_on_c, 2, 62, 0
4, 629520, Note_on_c, 2, 60, 79
4, 629760, Note_on_c, 2, 60, 0
4, 629760, Note_on_c, 2, 54, 79
4, 630240, Note_on_c, 2, 54, 0
4, 630240, Note_on_c, 2, 54, 79
4, 630720, Note_on_c, 2, 54, 0
4, 630720, Note_on_c, 2, 54, 79
4, 631680, Note_on_c, 2, 54, 0
4, 631680, Note_on_c, 2, 59, 79
4, 631775, Control_c, 2, 7, 60
4, 631776, Control_c, 2, 7, 104
4, 632160, Note_on_c, 2, 59, 0
4, 632160, Note_on_c, 2, 59, 79
4, 632640, Note_on_c, 2, 59, 0
4, 632640, Note_on_c, 2, 60, 79
4, 632880, Note_on_c, 2, 60, 0
4, 632880, Note_on_c, 2, 59, 79
4, 633120, Note_on_c, 2, 59, 0
4, 633120, Note_on_c, 2, 57, 79
4, 633360, Note_on_c, 2, 57, 0
4, 633360, Note_on_c, 2, 55, 79
4, 633600, Note_on_c, 2, 55, 0
4, 633600, Note_on_c, 2, 67, 79
4, 634080, Note_on_c, 2, 67, 0
4, 637440, Note_on_c, 2, 64, 79
4, 637500, Note_on_c, 2, 64, 0
4, 637500, Note_on_c, 2, 60, 79
4, 637560, Note_on_c, 2, 60, 0
4, 637560, Note_on_c, 2, 64, 79
4, 637620, Note_on_c, 2, 64, 0
4, 637620, Note_on_c, 2, 60, 79
4, 637740, Note_on_c, 2, 60, 0
4, 637740, Note_on_c, 2, 64, 79
4, 637800, Note_on_c, 2, 64, 0
4, 637800, Note_on_c, 2, 60, 79
4, 637860, Note_on_c, 2, 60, 0
4, 637860, Note_on_c, 2, 64, 79
4, 637920, Note_on_c, 2, 64, 0
4, 637920, Note_on_c, 2, 60, 79
4, 637980, Note_on_c, 2, 60, 0
4, 637980, Note_on_c, 2, 64, 79
4, 638040, Note_on_c, 2, 64, 0
4, 638040, Note_on_c, 2, 60, 79
4, 638100, Note_on_c, 2, 60, 0
4, 638100, Note_on_c, 2, 64, 79
4, 638160, Note_on_c, 2, 64, 0
4, 638160, Note_on_c, 2, 60, 79
4, 638220, Note_on_c, 2, 60, 0
4, 638220, Note_on_c, 2, 64, 79
4, 638280, Note_on_c, 2, 64, 0
4, 638280, Note_on_c, 2, 60, 79
4, 638340, Note_on_c, 2, 60, 0
4, 638340, Note_on_c, 2, 64, 79
4, 638400, Note_on_c, 2, 64, 0
4, 638400, Note_on_c, 2, 59, 79
4, 638880, Note_on_c, 2, 59, 0
4, 639407, Control_c, 2, 7, 104
4, 639456, Control_c, 2, 7, 54
4, 642240, Note_on_c, 2, 62, 36
4, 643200, Note_on_c, 2, 62, 0
4, 643200, Note_on_c, 2, 70, 36
4, 644160, Note_on_c, 2, 70, 0
4, 644160, Note_on_c, 2, 70, 36
4, 645120, Note_on_c, 2, 70, 0
4, 645120, Note_on_c, 2, 69, 36
4, 646080, Note_on_c, 2, 69, 0
4, 646080, Note_on_c, 2, 70, 36
4, 647040, Note_on_c, 2, 70, 0
4, 649920, Note_on_c, 2, 69, 36
4, 650880, Note_on_c, 2, 69, 0
4, 650880, Note_on_c, 2, 57, 36
4, 651360, Note_on_c, 2, 57, 0
4, 651360, Note_on_c, 2, 57, 36
4, 651840, Note_on_c, 2, 57, 0
4, 651840, Note_on_c, 2, 57, 36
4, 652080, Note_on_c, 2, 57, 0
4, 652080, Note_on_c, 2, 55, 36
4, 652320, Note_on_c, 2, 55, 0
4, 652320, Note_on_c, 2, 53, 36
4, 653280, Note_on_c, 2, 53, 0
4, 653280, Note_on_c, 2, 52, 36
4, 653760, Note_on_c, 2, 52, 0
4, 653760, Note_on_c, 2, 50, 36
4, 654720, Note_on_c, 2, 50, 0
4, 657600, Note_on_c, 2, 62, 36
4, 658560, Note_on_c, 2, 62, 0
4, 658560, Note_on_c, 2, 70, 36
4, 659520, Note_on_c, 2, 70, 0
4, 659520, Note_on_c, 2, 70, 36
4, 660480, Note_on_c, 2, 70, 0
4, 660480, Note_on_c, 2, 69, 36
4, 661440, Note_on_c, 2, 69, 0
4, 661440, Note_on_c, 2, 70, 36
4, 662400, Note_on_c, 2, 70, 0
4, 665280, Note_on_c, 2, 69, 36
4, 666240, Note_on_c, 2, 69, 0
4, 666240, Note_on_c, 2, 57, 36
4, 666720, Note_on_c, 2, 57, 0
4, 666720, Note_on_c, 2, 57, 36
4, 667200, Note_on_c, 2, 57, 0
4, 667200, Note_on_c, 2, 57, 36
4, 667440, Note_on_c, 2, 57, 0
4, 667440, Note_on_c, 2, 55, 36
4, 667680, Note_on_c, 2, 55, 0
4, 667680, Note_on_c, 2, 53, 36
4, 668640, Note_on_c, 2, 53, 0
4, 668640, Note_on_c, 2, 52, 36
4, 669120, Note_on_c, 2, 52, 0
4, 669120, Note_on_c, 2, 50, 36
4, 669369, Control_c, 2, 7, 54
4, 669541, Control_c, 2, 7, 54
4, 669713, Control_c, 2, 7, 56
4, 669938, Control_c, 2, 7, 54
4, 670080, Note_on_c, 2, 50, 0
4, 670080, Note_on_c, 2, 62, 79
4, 670369, Control_c, 2, 7, 55
4, 670404, Control_c, 2, 7, 106
4, 670560, Note_on_c, 2, 62, 0
4, 670560, Note_on_c, 2, 62, 79
4, 670800, Note_on_c, 2, 62, 0
4, 670800, Note_on_c, 2, 62, 79
4, 671040, Note_on_c, 2, 62, 0
4, 671040, Note_on_c, 2, 65, 79
4, 671520, Note_on_c, 2, 65, 0
4, 671520, Note_on_c, 2, 59, 79
4, 671663, Control_c, 2, 7, 105
4, 672000, Note_on_c, 2, 59, 0
4, 672000, Note_on_c, 2, 59, 79
4, 672480, Note_on_c, 2, 59, 0
4, 672480, Note_on_c, 2, 59, 79
4, 672720, Note_on_c, 2, 59, 0
4, 672720, Note_on_c, 2, 59, 79
4, 672922, Control_c, 2, 7, 104
4, 672960, Note_on_c, 2, 59, 0
4, 672960, Note_on_c, 2, 62, 79
4, 673440, Note_on_c, 2, 62, 0
4, 673440, Note_on_c, 2, 60, 79
4, 673920, Note_on_c, 2, 60, 0
4, 673920, Note_on_c, 2, 60, 79
4, 674181, Control_c, 2, 7, 103
4, 674400, Note_on_c, 2, 60, 0
4, 674400, Note_on_c, 2, 60, 79
4, 674640, Note_on_c, 2, 60, 0
4, 674640, Note_on_c, 2, 60, 79
4, 674880, Note_on_c, 2, 60, 0
4, 674880, Note_on_c, 2, 63, 79
4, 675360, Note_on_c, 2, 63, 0
4, 675360, Note_on_c, 2, 57, 79
4, 675440, Control_c, 2, 7, 102
4, 675455, Control_c, 2, 7, 102
4, 675840, Note_on_c, 2, 57, 0
4, 675840, Note_on_c, 2, 57, 79
4, 676320, Note_on_c, 2, 57, 0
4, 676320, Note_on_c, 2, 57, 79
4, 676560, Note_on_c, 2, 57, 0
4, 676560, Note_on_c, 2, 57, 79
4, 676800, Note_on_c, 2, 57, 0
4, 676800, Note_on_c, 2, 60, 79
4, 677280, Note_on_c, 2, 60, 0
4, 677280, Note_on_c, 2, 58, 79
4, 677760, Note_on_c, 2, 58, 0
4, 677952, Control_c, 2, 7, 58
4, 679680, Note_on_c, 2, 69, 36
4, 680640, Note_on_c, 2, 69, 0
4, 680640, Note_on_c, 2, 69, 36
4, 681600, Note_on_c, 2, 69, 0
4, 681600, Note_on_c, 2, 67, 36
4, 682560, Note_on_c, 2, 67, 0
4, 683520, Note_on_c, 2, 72, 36
4, 684480, Note_on_c, 2, 72, 0
4, 684480, Note_on_c, 2, 72, 36
4, 685440, Note_on_c, 2, 72, 0
4, 685440, Note_on_c, 2, 70, 36
4, 685920, Note_on_c, 2, 70, 0
4, 685920, Note_on_c, 2, 70, 36
4, 686160, Note_on_c, 2, 70, 0
4, 686160, Note_on_c, 2, 70, 36
4, 686400, Note_on_c, 2, 70, 0
4, 686400, Note_on_c, 2, 69, 36
4, 687360, Note_on_c, 2, 69, 0
4, 687360, Note_on_c, 2, 67, 36
4, 687840, Note_on_c, 2, 67, 0
4, 687840, Note_on_c, 2, 67, 36
4, 688080, Note_on_c, 2, 67, 0
4, 688080, Note_on_c, 2, 67, 36
4, 688320, Note_on_c, 2, 67, 0
4, 688320, Note_on_c, 2, 66, 36
4, 689279, Control_c, 2, 7, 58
4, 689280, Note_on_c, 2, 66, 0
4, 689280, Note_on_c, 2, 62, 79
4, 689376, Control_c, 2, 7, 98
4, 689760, Note_on_c, 2, 62, 0
4, 689760, Note_on_c, 2, 62, 79
4, 690000, Note_on_c, 2, 62, 0
4, 690000, Note_on_c, 2, 62, 79
4, 690240, Note_on_c, 2, 62, 0
4, 690240, Note_on_c, 2, 62, 79
4, 691200, Note_on_c, 2, 62, 0
4, 691200, Note_on_c, 2, 55, 79
4, 691631, Control_c, 2, 7, 98
4, 692160, Note_on_c, 2, 55, 0
4, 692160, Note_on_c, 2, 57, 79
4, 692640, Note_on_c, 2, 57, 0
4, 692640, Note_on_c, 2, 62, 79
4, 693600, Note_on_c, 2, 62, 0
4, 693600, Note_on_c, 2, 66, 79
4, 694080, Note_on_c, 2, 66, 0
4, 694080, Note_on_c, 2, 62, 79
4, 696000, Note_on_c, 2, 62, 0
4, 696000, Note_on_c, 2, 62, 79
4, 696864, Control_c, 2, 7, 56
4, 696960, Note_on_c, 2, 62, 0
4, 696960, Note_on_c, 2, 59, 79
4, 697440, Note_on_c, 2, 59, 0
4, 697440, Note_on_c, 2, 59, 79
4, 697920, Note_on_c, 2, 59, 0
4, 697920, Note_on_c, 2, 60, 79
4, 698160, Note_on_c, 2, 60, 0
4, 698160, Note_on_c, 2, 59, 79
4, 698400, Note_on_c, 2, 59, 0
4, 698400, Note_on_c, 2, 57, 79
4, 698640, Note_on_c, 2, 57, 0
4, 698640, Note_on_c, 2, 55, 79
4, 698880, Note_on_c, 2, 55, 0
4, 698880, Note_on_c, 2, 60, 79
4, 699360, Note_on_c, 2, 60, 0
4, 699360, Note_on_c, 2, 60, 79
4, 699840, Note_on_c, 2, 60, 0
4, 699840, Note_on_c, 2, 60, 79
4, 700800, Note_on_c, 2, 60, 0
4, 700800, Note_on_c, 2, 64, 79
4, 701280, Note_on_c, 2, 64, 0
4, 701280, Note_on_c, 2, 64, 79
4, 701760, Note_on_c, 2, 64, 0
4, 701760, Note_on_c, 2, 66, 79
4, 702000, Note_on_c, 2, 66, 0
4, 702000, Note_on_c, 2, 64, 79
4, 702240, Note_on_c, 2, 64, 0
4, 702240, Note_on_c, 2, 62, 79
4, 702480, Note_on_c, 2, 62, 0
4, 702480, Note_on_c, 2, 60, 79
4, 702720, Note_on_c, 2, 60, 0
4, 702720, Note_on_c, 2, 54, 79
4, 703200, Note_on_c, 2, 54, 0
4, 703200, Note_on_c, 2, 54, 79
4, 703680, Note_on_c, 2, 54, 0
4, 703680, Note_on_c, 2, 54, 79
4, 704640, Note_on_c, 2, 54, 0
4, 704640, Note_on_c, 2, 59, 79
4, 704735, Control_c, 2, 7, 56
4, 704736, Control_c, 2, 7, 96
4, 705120, Note_on_c, 2, 59, 0
4, 705120, Note_on_c, 2, 59, 79
4, 705600, Note_on_c, 2, 59, 0
4, 705600, Note_on_c, 2, 60, 79
4, 705840, Note_on_c, 2, 60, 0
4, 705840, Note_on_c, 2, 59, 79
4, 706080, Note_on_c, 2, 59, 0
4, 706080, Note_on_c, 2, 57, 79
4, 706320, Note_on_c, 2, 57, 0
4, 706320, Note_on_c, 2, 55, 79
4, 706560, Note_on_c, 2, 55, 0
4, 706560, Note_on_c, 2, 67, 79
4, 707040, Note_on_c, 2, 67, 0
4, 710400, Note_on_c, 2, 62, 79
4, 710460, Note_on_c, 2, 62, 0
4, 710460, Note_on_c, 2, 60, 79
4, 710580, Note_on_c, 2, 60, 0
4, 710580, Note_on_c, 2, 62, 79
4, 710640, Note_on_c, 2, 62, 0
4, 710640, Note_on_c, 2, 60, 79
4, 710700, Note_on_c, 2, 60, 0
4, 710700, Note_on_c, 2, 62, 79
4, 710760, Note_on_c, 2, 62, 0
4, 710760, Note_on_c, 2, 60, 79
4, 710820, Note_on_c, 2, 60, 0
4, 710820, Note_on_c, 2, 62, 79
4, 710880, Note_on_c, 2, 62, 0
4, 710880, Note_on_c, 2, 60, 79
4, 710940, Note_on_c, 2, 60, 0
4, 710940, Note_on_c, 2, 62, 79
4, 711000, Note_on_c, 2, 62, 0
4, 711000, Note_on_c, 2, 60, 79
4, 711060, Note_on_c, 2, 60, 0
4, 711060, Note_on_c, 2, 62, 79
4, 711120, Note_on_c, 2, 62, 0
4, 711120, Note_on_c, 2, 60, 79
4, 711180, Note_on_c, 2, 60, 0
4, 711180, Note_on_c, 2, 62, 79
4, 711240, Note_on_c, 2, 62, 0
4, 711240, Note_on_c, 2, 60, 79
4, 711360, Note_on_c, 2, 60, 0
4, 711360, Note_on_c, 2, 59, 79
4, 711840, Note_on_c, 2, 59, 0
4, 713280, Note_on_c, 2, 57, 79
4, 714240, Note_on_c, 2, 57, 0
4, 714240, Note_on_c, 2, 57, 79
4, 715200, Note_on_c, 2, 57, 0
4, 715200, Note_on_c, 2, 57, 79
4, 715680, Note_on_c, 2, 57, 0
4, 717120, Note_on_c, 2, 62, 79
4, 718560, Note_on_c, 2, 62, 0
4, 718560, Note_on_c, 2, 71, 79
4, 719040, Note_on_c, 2, 71, 0
4, 719040, Note_on_c, 2, 69, 79
4, 720000, Note_on_c, 2, 69, 0
4, 720960, Note_on_c, 2, 57, 79
4, 721920, Note_on_c, 2, 57, 0
4, 721920, Note_on_c, 2, 57, 79
4, 722880, Note_on_c, 2, 57, 0
4, 722880, Note_on_c, 2, 57, 79
4, 723840, Note_on_c, 2, 57, 0
4, 725280, Note_on_c, 2, 62, 79
4, 725760, Note_on_c, 2, 62, 0
4, 725760, Note_on_c, 2, 69, 79
4, 726240, Note_on_c, 2, 69, 0
4, 726240, Note_on_c, 2, 57, 79
4, 726720, Note_on_c, 2, 57, 0
4, 726720, Note_on_c, 2, 57, 79
4, 727679, Control_c, 2, 7, 96
4, 727680, Note_on_c, 2, 57, 0
4, 727680, Control_c, 2, 7, 58
4, 729120, Note_on_c, 2, 59, 36
4, 729600, Note_on_c, 2, 59, 0
4, 730080, Note_on_c, 2, 56, 36
4, 730560, Note_on_c, 2, 56, 0
4, 731040, Note_on_c, 2, 57, 36
4, 731520, Note_on_c, 2, 57, 0
4, 732000, Note_on_c, 2, 57, 36
4, 732480, Note_on_c, 2, 57, 0
4, 732960, Note_on_c, 2, 57, 36
4, 733440, Note_on_c, 2, 57, 0
4, 733920, Note_on_c, 2, 54, 36
4, 734400, Note_on_c, 2, 54, 0
4, 734880, Note_on_c, 2, 55, 36
4, 735360, Note_on_c, 2, 55, 0
4, 735408, Control_c, 2, 7, 102
4, 740160, Note_on_c, 2, 62, 79
4, 742080, Note_on_c, 2, 62, 0
4, 742080, Note_on_c, 2, 62, 79
4, 742560, Note_on_c, 2, 62, 0
4, 743008, Control_c, 2, 7, 50
4, 743040, Note_on_c, 2, 59, 79
4, 743040, Control_c, 2, 7, 50
4, 743520, Note_on_c, 2, 59, 0
4, 743520, Note_on_c, 2, 59, 79
4, 744000, Note_on_c, 2, 59, 0
4, 744000, Note_on_c, 2, 60, 79
4, 744240, Note_on_c, 2, 60, 0
4, 744240, Note_on_c, 2, 59, 79
4, 744480, Note_on_c, 2, 59, 0
4, 744480, Note_on_c, 2, 57, 79
4, 744720, Note_on_c, 2, 57, 0
4, 744720, Note_on_c, 2, 55, 79
4, 744960, Note_on_c, 2, 55, 0
4, 744960, Note_on_c, 2, 60, 79
4, 745440, Note_on_c, 2, 60, 0
4, 745440, Note_on_c, 2, 60, 79
4, 745920, Note_on_c, 2, 60, 0
4, 745920, Note_on_c, 2, 60, 79
4, 746880, Note_on_c, 2, 60, 0
4, 746880, Note_on_c, 2, 64, 79
4, 747360, Note_on_c, 2, 64, 0
4, 747360, Note_on_c, 2, 64, 79
4, 747840, Note_on_c, 2, 64, 0
4, 747840, Note_on_c, 2, 66, 79
4, 748080, Note_on_c, 2, 66, 0
4, 748080, Note_on_c, 2, 64, 79
4, 748320, Note_on_c, 2, 64, 0
4, 748320, Note_on_c, 2, 62, 79
4, 748560, Note_on_c, 2, 62, 0
4, 748560, Note_on_c, 2, 60, 79
4, 748800, Note_on_c, 2, 60, 0
4, 748800, Note_on_c, 2, 54, 79
4, 749280, Note_on_c, 2, 54, 0
4, 749280, Note_on_c, 2, 54, 79
4, 749760, Note_on_c, 2, 54, 0
4, 749760, Note_on_c, 2, 54, 79
4, 750720, Note_on_c, 2, 54, 0
4, 750720, Note_on_c, 2, 59, 79
4, 751200, Note_on_c, 2, 59, 0
4, 751200, Note_on_c, 2, 59, 79
4, 751680, Note_on_c, 2, 59, 0
4, 751680, Note_on_c, 2, 60, 79
4, 751920, Note_on_c, 2, 60, 0
4, 751920, Note_on_c, 2, 59, 79
4, 752160, Note_on_c, 2, 59, 0
4, 752160, Note_on_c, 2, 57, 79
4, 752400, Note_on_c, 2, 57, 0
4, 752400, Note_on_c, 2, 55, 79
4, 752640, Note_on_c, 2, 55, 0
4, 752640, Note_on_c, 2, 67, 79
4, 753120, Note_on_c, 2, 67, 0
4, 756480, Note_on_c, 2, 64, 79
4, 756540, Note_on_c, 2, 64, 0
4, 756540, Note_on_c, 2, 60, 79
4, 756600, Note_on_c, 2, 60, 0
4, 756600, Note_on_c, 2, 64, 79
4, 756660, Note_on_c, 2, 64, 0
4, 756660, Note_on_c, 2, 60, 79
4, 756780, Note_on_c, 2, 60, 0
4, 756780, Note_on_c, 2, 64, 79
4, 756840, Note_on_c, 2, 64, 0
4, 756840, Note_on_c, 2, 60, 79
4, 756900, Note_on_c, 2, 60, 0
4, 756900, Note_on_c, 2, 64, 79
4, 756960, Note_on_c, 2, 64, 0
4, 756960, Note_on_c, 2, 60, 79
4, 757020, Note_on_c, 2, 60, 0
4, 757020, Note_on_c, 2, 64, 79
4, 757080, Note_on_c, 2, 64, 0
4, 757080, Note_on_c, 2, 60, 79
4, 757140, Note_on_c, 2, 60, 0
4, 757140, Note_on_c, 2, 64, 79
4, 757200, Note_on_c, 2, 64, 0
4, 757200, Note_on_c, 2, 60, 79
4, 757260, Note_on_c, 2, 60, 0
4, 757260, Note_on_c, 2, 64, 79
4, 757320, Note_on_c, 2, 64, 0
4, 757320, Note_on_c, 2, 60, 79
4, 757380, Note_on_c, 2, 60, 0
4, 757380, Note_on_c, 2, 64, 79
4, 757440, Note_on_c, 2, 64, 0
4, 757440, Note_on_c, 2, 59, 79
4, 757920, Note_on_c, 2, 59, 0
4, 759360, Note_on_c, 2, 59, 79
4, 759840, Note_on_c, 2, 59, 0
4, 759840, Note_on_c, 2, 59, 79
4, 760320, Note_on_c, 2, 59, 0
4, 760320, Note_on_c, 2, 60, 79
4, 760560, Note_on_c, 2, 60, 0
4, 760560, Note_on_c, 2, 59, 79
4, 760800, Note_on_c, 2, 59, 0
4, 760800, Note_on_c, 2, 57, 79
4, 761040, Note_on_c, 2, 57, 0
4, 761040, Note_on_c, 2, 55, 79
4, 761280, Note_on_c, 2, 55, 0
4, 761280, Note_on_c, 2, 60, 79
4, 761760, Note_on_c, 2, 60, 0
4, 761760, Note_on_c, 2, 60, 79
4, 762240, Note_on_c, 2, 60, 0
4, 762240, Note_on_c, 2, 60, 79
4, 763200, Note_on_c, 2, 60, 0
4, 763200, Note_on_c, 2, 64, 79
4, 763680, Note_on_c, 2, 64, 0
4, 763680, Note_on_c, 2, 64, 79
4, 764160, Note_on_c, 2, 64, 0
4, 764160, Note_on_c, 2, 66, 79
4, 764400, Note_on_c, 2, 66, 0
4, 764400, Note_on_c, 2, 64, 79
4, 764640, Note_on_c, 2, 64, 0
4, 764640, Note_on_c, 2, 62, 79
4, 764880, Note_on_c, 2, 62, 0
4, 764880, Note_on_c, 2, 60, 79
4, 765120, Note_on_c, 2, 60, 0
4, 765120, Note_on_c, 2, 54, 79
4, 765600, Note_on_c, 2, 54, 0
4, 765600, Note_on_c, 2, 54, 79
4, 766080, Note_on_c, 2, 54, 0
4, 766080, Note_on_c, 2, 54, 79
4, 767040, Note_on_c, 2, 54, 0
4, 767040, Note_on_c, 2, 59, 79
4, 767520, Note_on_c, 2, 59, 0
4, 767520, Note_on_c, 2, 59, 79
4, 767999, Control_c, 2, 7, 50
4, 768000, Note_on_c, 2, 59, 0
4, 768000, Note_on_c, 2, 60, 79
4, 768000, Control_c, 2, 7, 94
4, 768240, Note_on_c, 2, 60, 0
4, 768240, Note_on_c, 2, 59, 79
4, 768480, Note_on_c, 2, 59, 0
4, 768480, Note_on_c, 2, 57, 79
4, 768720, Note_on_c, 2, 57, 0
4, 768720, Note_on_c, 2, 55, 79
4, 768960, Note_on_c, 2, 55, 0
4, 768960, Note_on_c, 2, 67, 79
4, 769440, Note_on_c, 2, 67, 0
4, 772799, Control_c, 2, 7, 94
4, 772800, Note_on_c, 2, 64, 79
4, 773040, Note_on_c, 2, 64, 0
4, 773040, Note_on_c, 2, 62, 79
4, 773280, Note_on_c, 2, 62, 0
4, 773280, Note_on_c, 2, 64, 79
4, 773520, Note_on_c, 2, 64, 0
4, 773520, Note_on_c, 2, 66, 79
4, 773760, Note_on_c, 2, 66, 0
4, 773760, Note_on_c, 2, 67, 79
4, 774000, Note_on_c, 2, 67, 0
4, 774000, Note_on_c, 2, 66, 79
4, 774240, Note_on_c, 2, 66, 0
4, 774240, Note_on_c, 2, 67, 79
4, 774456, Control_c, 2, 7, 98
4, 774480, Note_on_c, 2, 67, 0
4, 774480, Note_on_c, 2, 69, 79
4, 774720, Note_on_c, 2, 69, 0
4, 774720, Note_on_c, 2, 71, 79
4, 774960, Note_on_c, 2, 71, 0
4, 774960, Note_on_c, 2, 69, 79
4, 775200, Note_on_c, 2, 69, 0
4, 775200, Note_on_c, 2, 71, 79
4, 775440, Note_on_c, 2, 71, 0
4, 775440, Note_on_c, 2, 72, 79
4, 775680, Note_on_c, 2, 72, 0
4, 775680, Note_on_c, 2, 74, 79
4, 776160, Note_on_c, 2, 74, 0
4, 776576, Control_c, 2, 7, 99
4, 776640, Note_on_c, 2, 72, 79
4, 776880, Note_on_c, 2, 72, 0
4, 776880, Note_on_c, 2, 71, 79
4, 777120, Note_on_c, 2, 71, 0
4, 777120, Note_on_c, 2, 72, 79
4, 777360, Note_on_c, 2, 72, 0
4, 777360, Note_on_c, 2, 69, 79
4, 777600, Note_on_c, 2, 69, 0
4, 777600, Note_on_c, 2, 71, 79
4, 777840, Note_on_c, 2, 71, 0
4, 777840, Note_on_c, 2, 69, 79
4, 778080, Note_on_c, 2, 69, 0
4, 778080, Note_on_c, 2, 71, 79
4, 778320, Note_on_c, 2, 71, 0
4, 778320, Note_on_c, 2, 66, 79
4, 778560, Note_on_c, 2, 66, 0
4, 778560, Note_on_c, 2, 67, 79
4, 778696, Control_c, 2, 7, 100
4, 778800, Note_on_c, 2, 67, 0
4, 778800, Note_on_c, 2, 66, 79
4, 779040, Note_on_c, 2, 66, 0
4, 779040, Note_on_c, 2, 67, 79
4, 779280, Note_on_c, 2, 67, 0
4, 779280, Note_on_c, 2, 69, 79
4, 779520, Note_on_c, 2, 69, 0
4, 779520, Note_on_c, 2, 71, 79
4, 780000, Note_on_c, 2, 71, 0
4, 780815, Control_c, 2, 7, 102
4, 781392, Control_c, 2, 7, 48
4, 781400, Control_c, 2, 7, 98
4, 781440, Note_on_c, 2, 62, 36
4, 781560, Note_on_c, 2, 62, 0
4, 781560, Note_on_c, 2, 60, 36
4, 781680, Note_on_c, 2, 60, 0
4, 781680, Note_on_c, 2, 62, 36
4, 781800, Note_on_c, 2, 62, 0
4, 781800, Note_on_c, 2, 60, 36
4, 781920, Note_on_c, 2, 60, 0
4, 781920, Note_on_c, 2, 62, 36
4, 782040, Note_on_c, 2, 62, 0
4, 782040, Note_on_c, 2, 60, 36
4, 782160, Note_on_c, 2, 60, 0
4, 782160, Note_on_c, 2, 62, 36
4, 782280, Note_on_c, 2, 62, 0
4, 782280, Note_on_c, 2, 60, 36
4, 782400, Note_on_c, 2, 60, 0
4, 782400, Note_on_c, 2, 62, 36
4, 782520, Note_on_c, 2, 62, 0
4, 782520, Note_on_c, 2, 60, 36
4, 782640, Note_on_c, 2, 60, 0
4, 782640, Note_on_c, 2, 62, 36
4, 782760, Note_on_c, 2, 62, 0
4, 782760, Note_on_c, 2, 60, 36
4, 782880, Note_on_c, 2, 60, 0
4, 782880, Note_on_c, 2, 62, 36
4, 783000, Note_on_c, 2, 62, 0
4, 783000, Note_on_c, 2, 60, 36
4, 783120, Note_on_c, 2, 60, 0
4, 783120, Note_on_c, 2, 62, 36
4, 783240, Note_on_c, 2, 62, 0
4, 783240, Note_on_c, 2, 60, 36
4, 783360, Note_on_c, 2, 60, 0
4, 783360, Note_on_c, 2, 59, 36
4, 783384, Control_c, 2, 7, 88
4, 783436, Control_c, 2, 7, 86
4, 783489, Control_c, 2, 7, 85
4, 783542, Control_c, 2, 7, 84
4, 783595, Control_c, 2, 7, 82
4, 783648, Control_c, 2, 7, 81
4, 783700, Control_c, 2, 7, 80
4, 783753, Control_c, 2, 7, 78
4, 783806, Control_c, 2, 7, 77
4, 783840, Note_on_c, 2, 59, 0
4, 783859, Control_c, 2, 7, 76
4, 783912, Control_c, 2, 7, 74
4, 783964, Control_c, 2, 7, 73
4, 784017, Control_c, 2, 7, 72
4, 784070, Control_c, 2, 7, 70
4, 784123, Control_c, 2, 7, 69
4, 784175, Control_c, 2, 7, 68
4, 784751, Control_c, 2, 7, 48
4, 784751, End_track
5, 0, Start_track
5, 0, MIDI_port, 0
5, 0, Title_t, "Cello"
5, 0, Program_c, 3, 42
5, 0, Control_c, 3, 7, 95
5, 0, Control_c, 3, 10, 94
5, 0, Note_on_c, 3, 55, 36
5, 48, Control_c, 3, 7, 64
5, 240, Note_on_c, 3, 55, 0
5, 240, Note_on_c, 3, 55, 36
5, 480, Note_on_c, 3, 55, 0
5, 480, Note_on_c, 3, 55, 36
5, 720, Note_on_c, 3, 55, 0
5, 720, Note_on_c, 3, 55, 36
5, 960, Note_on_c, 3, 55, 0
5, 960, Note_on_c, 3, 55, 36
5, 1200, Note_on_c, 3, 55, 0
5, 1200, Note_on_c, 3, 55, 36
5, 1440, Note_on_c, 3, 55, 0
5, 1440, Note_on_c, 3, 57, 36
5, 1680, Note_on_c, 3, 57, 0
5, 1680, Note_on_c, 3, 57, 36
5, 1920, Note_on_c, 3, 57, 0
5, 1920, Note_on_c, 3, 57, 36
5, 2160, Note_on_c, 3, 57, 0
5, 2160, Note_on_c, 3, 57, 36
5, 2400, Note_on_c, 3, 57, 0
5, 2400, Note_on_c, 3, 57, 36
5, 2640, Note_on_c, 3, 57, 0
5, 2640, Note_on_c, 3, 55, 36
5, 2880, Note_on_c, 3, 55, 0
5, 2880, Note_on_c, 3, 54, 36
5, 3120, Note_on_c, 3, 54, 0
5, 3120, Note_on_c, 3, 54, 36
5, 3360, Note_on_c, 3, 54, 0
5, 3360, Note_on_c, 3, 54, 36
5, 3600, Note_on_c, 3, 54, 0
5, 3600, Note_on_c, 3, 54, 36
5, 3840, Note_on_c, 3, 54, 0
5, 3840, Note_on_c, 3, 54, 36
5, 4080, Note_on_c, 3, 54, 0
5, 4080, Note_on_c, 3, 54, 36
5, 4320, Note_on_c, 3, 54, 0
5, 4320, Note_on_c, 3, 55, 36
5, 4560, Note_on_c, 3, 55, 0
5, 4560, Note_on_c, 3, 55, 36
5, 4800, Note_on_c, 3, 55, 0
5, 4800, Note_on_c, 3, 55, 36
5, 5040, Note_on_c, 3, 55, 0
5, 5040, Note_on_c, 3, 55, 36
5, 5280, Note_on_c, 3, 55, 0
5, 5280, Note_on_c, 3, 55, 36
5, 5520, Note_on_c, 3, 55, 0
5, 5520, Note_on_c, 3, 55, 36
5, 5760, Note_on_c, 3, 55, 0
5, 5760, Note_on_c, 3, 55, 36
5, 6000, Note_on_c, 3, 55, 0
5, 6000, Note_on_c, 3, 55, 36
5, 6240, Note_on_c, 3, 55, 0
5, 6240, Note_on_c, 3, 55, 36
5, 6480, Note_on_c, 3, 55, 0
5, 6480, Note_on_c, 3, 55, 36
5, 6720, Note_on_c, 3, 55, 0
5, 6720, Note_on_c, 3, 55, 36
5, 6960, Note_on_c, 3, 55, 0
5, 6960, Note_on_c, 3, 55, 36
5, 7200, Note_on_c, 3, 55, 0
5, 7200, Note_on_c, 3, 55, 36
5, 7440, Note_on_c, 3, 55, 0
5, 7440, Note_on_c, 3, 55, 36
5, 7680, Note_on_c, 3, 55, 0
5, 7680, Note_on_c, 3, 55, 36
5, 7920, Note_on_c, 3, 55, 0
5, 7920, Note_on_c, 3, 55, 36
5, 8160, Note_on_c, 3, 55, 0
5, 8160, Note_on_c, 3, 55, 36
5, 8280, Note_on_c, 3, 55, 0
5, 8280, Note_on_c, 3, 55, 36
5, 8400, Note_on_c, 3, 55, 0
5, 8400, Note_on_c, 3, 57, 36
5, 8520, Note_on_c, 3, 57, 0
5, 8520, Note_on_c, 3, 59, 36
5, 8640, Note_on_c, 3, 59, 0
5, 8640, Note_on_c, 3, 60, 36
5, 8880, Note_on_c, 3, 60, 0
5, 8880, Note_on_c, 3, 48, 36
5, 9120, Note_on_c, 3, 48, 0
5, 9120, Note_on_c, 3, 48, 36
5, 9360, Note_on_c, 3, 48, 0
5, 9360, Note_on_c, 3, 48, 36
5, 9600, Note_on_c, 3, 48, 0
5, 9600, Note_on_c, 3, 49, 36
5, 9840, Note_on_c, 3, 49, 0
5, 9840, Note_on_c, 3, 49, 36
5, 10080, Note_on_c, 3, 49, 0
5, 10080, Note_on_c, 3, 50, 36
5, 10560, Note_on_c, 3, 50, 0
5, 10800, Note_on_c, 3, 50, 36
5, 11040, Note_on_c, 3, 50, 0
5, 11040, Note_on_c, 3, 54, 36
5, 11280, Note_on_c, 3, 54, 0
5, 11280, Note_on_c, 3, 57, 36
5, 11520, Note_on_c, 3, 57, 0
5, 11520, Note_on_c, 3, 62, 36
5, 11760, Note_on_c, 3, 62, 0
5, 11760, Note_on_c, 3, 62, 36
5, 12000, Note_on_c, 3, 62, 0
5, 12000, Note_on_c, 3, 62, 36
5, 12240, Note_on_c, 3, 62, 0
5, 12240, Note_on_c, 3, 62, 36
5, 12480, Note_on_c, 3, 62, 0
5, 12480, Note_on_c, 3, 62, 36
5, 12720, Note_on_c, 3, 62, 0
5, 12720, Note_on_c, 3, 62, 36
5, 12960, Note_on_c, 3, 62, 0
5, 12960, Note_on_c, 3, 61, 36
5, 13200, Note_on_c, 3, 61, 0
5, 13200, Note_on_c, 3, 61, 36
5, 13440, Note_on_c, 3, 61, 0
5, 13440, Note_on_c, 3, 61, 36
5, 13680, Note_on_c, 3, 61, 0
5, 13680, Note_on_c, 3, 61, 36
5, 13920, Note_on_c, 3, 61, 0
5, 13920, Note_on_c, 3, 61, 36
5, 14160, Note_on_c, 3, 61, 0
5, 14160, Note_on_c, 3, 61, 36
5, 14400, Note_on_c, 3, 61, 0
5, 14400, Note_on_c, 3, 59, 36
5, 14640, Note_on_c, 3, 59, 0
5, 14640, Note_on_c, 3, 59, 36
5, 14880, Note_on_c, 3, 59, 0
5, 14880, Note_on_c, 3, 59, 36
5, 15120, Note_on_c, 3, 59, 0
5, 15120, Note_on_c, 3, 59, 36
5, 15360, Note_on_c, 3, 59, 0
5, 15360, Note_on_c, 3, 59, 36
5, 15600, Note_on_c, 3, 59, 0
5, 15600, Note_on_c, 3, 59, 36
5, 15840, Note_on_c, 3, 59, 0
5, 15840, Note_on_c, 3, 57, 36
5, 16080, Note_on_c, 3, 57, 0
5, 16080, Note_on_c, 3, 57, 36
5, 16320, Note_on_c, 3, 57, 0
5, 16320, Note_on_c, 3, 57, 36
5, 16560, Note_on_c, 3, 57, 0
5, 16560, Note_on_c, 3, 57, 36
5, 16800, Note_on_c, 3, 57, 0
5, 16800, Note_on_c, 3, 57, 36
5, 17040, Note_on_c, 3, 57, 0
5, 17040, Note_on_c, 3, 57, 36
5, 17072, Control_c, 3, 7, 63
5, 17280, Note_on_c, 3, 57, 0
5, 17280, Note_on_c, 3, 56, 36
5, 17760, Note_on_c, 3, 56, 0
5, 18480, Note_on_c, 3, 56, 36
5, 18720, Note_on_c, 3, 56, 0
5, 18720, Note_on_c, 3, 57, 36
5, 19440, Note_on_c, 3, 57, 0
5, 19440, Note_on_c, 3, 55, 36
5, 19680, Note_on_c, 3, 55, 0
5, 19680, Note_on_c, 3, 54, 36
5, 19920, Note_on_c, 3, 54, 0
5, 19920, Note_on_c, 3, 52, 36
5, 20160, Note_on_c, 3, 52, 0
5, 20160, Note_on_c, 3, 50, 36
5, 20880, Note_on_c, 3, 50, 0
5, 20880, Note_on_c, 3, 62, 36
5, 21120, Note_on_c, 3, 62, 0
5, 21120, Note_on_c, 3, 62, 36
5, 21360, Note_on_c, 3, 62, 0
5, 21360, Note_on_c, 3, 62, 36
5, 21600, Note_on_c, 3, 62, 0
5, 21600, Note_on_c, 3, 61, 36
5, 21840, Note_on_c, 3, 61, 0
5, 21840, Note_on_c, 3, 62, 36
5, 22080, Note_on_c, 3, 62, 0
5, 22080, Note_on_c, 3, 57, 36
5, 22560, Note_on_c, 3, 57, 0
5, 22560, Note_on_c, 3, 57, 36
5, 22680, Note_on_c, 3, 57, 0
5, 22680, Note_on_c, 3, 55, 36
5, 22800, Note_on_c, 3, 55, 0
5, 22800, Note_on_c, 3, 54, 36
5, 22920, Note_on_c, 3, 54, 0
5, 22920, Note_on_c, 3, 52, 36
5, 23040, Note_on_c, 3, 52, 0
5, 23040, Note_on_c, 3, 50, 36
5, 23760, Note_on_c, 3, 50, 0
5, 23760, Note_on_c, 3, 62, 36
5, 24000, Note_on_c, 3, 62, 0
5, 24000, Note_on_c, 3, 62, 36
5, 24240, Note_on_c, 3, 62, 0
5, 24240, Note_on_c, 3, 62, 36
5, 24480, Note_on_c, 3, 62, 0
5, 24480, Note_on_c, 3, 61, 36
5, 24720, Note_on_c, 3, 61, 0
5, 24720, Note_on_c, 3, 62, 36
5, 24960, Note_on_c, 3, 62, 0
5, 24960, Note_on_c, 3, 57, 36
5, 25440, Note_on_c, 3, 57, 0
5, 25440, Note_on_c, 3, 57, 36
5, 25560, Note_on_c, 3, 57, 0
5, 25560, Note_on_c, 3, 55, 36
5, 25680, Note_on_c, 3, 55, 0
5, 25680, Note_on_c, 3, 54, 36
5, 25800, Note_on_c, 3, 54, 0
5, 25800, Note_on_c, 3, 52, 36
5, 25920, Note_on_c, 3, 52, 0
5, 25920, Note_on_c, 3, 50, 36
5, 26160, Note_on_c, 3, 50, 0
5, 26160, Note_on_c, 3, 50, 36
5, 26400, Note_on_c, 3, 50, 0
5, 26400, Note_on_c, 3, 54, 36
5, 26640, Note_on_c, 3, 54, 0
5, 26640, Note_on_c, 3, 54, 36
5, 26880, Note_on_c, 3, 54, 0
5, 26880, Note_on_c, 3, 54, 36
5, 27120, Note_on_c, 3, 54, 0
5, 27120, Note_on_c, 3, 54, 36
5, 27360, Note_on_c, 3, 54, 0
5, 27360, Note_on_c, 3, 55, 36
5, 27600, Note_on_c, 3, 55, 0
5, 28560, Note_on_c, 3, 55, 36
5, 28800, Note_on_c, 3, 55, 0
5, 28800, Note_on_c, 3, 57, 36
5, 29040, Note_on_c, 3, 57, 0
5, 29040, Note_on_c, 3, 57, 36
5, 29280, Note_on_c, 3, 57, 0
5, 29280, Note_on_c, 3, 57, 36
5, 29520, Note_on_c, 3, 57, 0
5, 29520, Note_on_c, 3, 57, 36
5, 29760, Note_on_c, 3, 57, 0
5, 29760, Note_on_c, 3, 45, 36
5, 30000, Note_on_c, 3, 45, 0
5, 30000, Note_on_c, 3, 45, 36
5, 30240, Note_on_c, 3, 45, 0
5, 30240, Note_on_c, 3, 50, 36
5, 30720, Note_on_c, 3, 50, 0
5, 30840, Note_on_c, 3, 50, 36
5, 30960, Note_on_c, 3, 50, 0
5, 30960, Note_on_c, 3, 49, 36
5, 31080, Note_on_c, 3, 49, 0
5, 31080, Note_on_c, 3, 50, 36
5, 31200, Note_on_c, 3, 50, 0
5, 31200, Note_on_c, 3, 52, 36
5, 31320, Note_on_c, 3, 52, 0
5, 31320, Note_on_c, 3, 50, 36
5, 31440, Note_on_c, 3, 50, 0
5, 31440, Note_on_c, 3, 49, 36
5, 31560, Note_on_c, 3, 49, 0
5, 31560, Note_on_c, 3, 50, 36
5, 31680, Note_on_c, 3, 50, 0
5, 31680, Note_on_c, 3, 47, 36
5, 32160, Note_on_c, 3, 47, 0
5, 32280, Note_on_c, 3, 59, 36
5, 32400, Note_on_c, 3, 59, 0
5, 32400, Note_on_c, 3, 57, 36
5, 32520, Note_on_c, 3, 57, 0
5, 32520, Note_on_c, 3, 59, 36
5, 32640, Note_on_c, 3, 59, 0
5, 32640, Note_on_c, 3, 61, 36
5, 32760, Note_on_c, 3, 61, 0
5, 32760, Note_on_c, 3, 59, 36
5, 32880, Note_on_c, 3, 59, 0
5, 32880, Note_on_c, 3, 57, 36
5, 33000, Note_on_c, 3, 57, 0
5, 33000, Note_on_c, 3, 59, 36
5, 33120, Note_on_c, 3, 59, 0
5, 33120, Note_on_c, 3, 54, 36
5, 33600, Note_on_c, 3, 54, 0
5, 33840, Note_on_c, 3, 54, 36
5, 34080, Note_on_c, 3, 54, 0
5, 34080, Note_on_c, 3, 54, 36
5, 34096, Control_c, 3, 7, 62
5, 34320, Note_on_c, 3, 54, 0
5, 34320, Note_on_c, 3, 54, 36
5, 34560, Note_on_c, 3, 54, 0
5, 34560, Note_on_c, 3, 55, 36
5, 34800, Note_on_c, 3, 55, 0
5, 34800, Note_on_c, 3, 55, 36
5, 35040, Note_on_c, 3, 55, 0
5, 35040, Note_on_c, 3, 57, 36
5, 35280, Note_on_c, 3, 57, 0
5, 35280, Note_on_c, 3, 57, 36
5, 35520, Note_on_c, 3, 57, 0
5, 35520, Note_on_c, 3, 45, 36
5, 35760, Note_on_c, 3, 45, 0
5, 35760, Note_on_c, 3, 45, 36
5, 36000, Note_on_c, 3, 45, 0
5, 36000, Note_on_c, 3, 50, 36
5, 37440, Note_on_c, 3, 50, 0
5, 37440, Note_on_c, 3, 50, 36
5, 37680, Note_on_c, 3, 50, 0
5, 37680, Note_on_c, 3, 54, 36
5, 37920, Note_on_c, 3, 54, 0
5, 37920, Note_on_c, 3, 55, 36
5, 38160, Note_on_c, 3, 55, 0
5, 38160, Note_on_c, 3, 54, 36
5, 38400, Note_on_c, 3, 54, 0
5, 38400, Note_on_c, 3, 55, 36
5, 38640, Note_on_c, 3, 55, 0
5, 38640, Note_on_c, 3, 57, 36
5, 38880, Note_on_c, 3, 57, 0
5, 38880, Note_on_c, 3, 50, 36
5, 39840, Note_on_c, 3, 50, 0
5, 39840, Note_on_c, 3, 50, 36
5, 40080, Note_on_c, 3, 50, 0
5, 40320, Note_on_c, 3, 50, 36
5, 40560, Note_on_c, 3, 50, 0
5, 40560, Note_on_c, 3, 54, 36
5, 40800, Note_on_c, 3, 54, 0
5, 40800, Note_on_c, 3, 50, 36
5, 41040, Note_on_c, 3, 50, 0
5, 41040, Note_on_c, 3, 54, 36
5, 41280, Note_on_c, 3, 54, 0
5, 41280, Note_on_c, 3, 50, 36
5, 41520, Note_on_c, 3, 50, 0
5, 41520, Note_on_c, 3, 54, 36
5, 41760, Note_on_c, 3, 54, 0
5, 41760, Note_on_c, 3, 52, 36
5, 42000, Note_on_c, 3, 52, 0
5, 42000, Note_on_c, 3, 55, 36
5, 42240, Note_on_c, 3, 55, 0
5, 42240, Note_on_c, 3, 52, 36
5, 42480, Note_on_c, 3, 52, 0
5, 42480, Note_on_c, 3, 55, 36
5, 42720, Note_on_c, 3, 55, 0
5, 42720, Note_on_c, 3, 52, 36
5, 42960, Note_on_c, 3, 52, 0
5, 42960, Note_on_c, 3, 55, 36
5, 43200, Note_on_c, 3, 55, 0
5, 43200, Note_on_c, 3, 54, 36
5, 43440, Note_on_c, 3, 54, 0
5, 43440, Note_on_c, 3, 50, 36
5, 43680, Note_on_c, 3, 50, 0
5, 43680, Note_on_c, 3, 55, 36
5, 43920, Note_on_c, 3, 55, 0
5, 43920, Note_on_c, 3, 54, 36
5, 44160, Note_on_c, 3, 54, 0
5, 44160, Note_on_c, 3, 57, 36
5, 44400, Note_on_c, 3, 57, 0
5, 44400, Note_on_c, 3, 50, 36
5, 44640, Note_on_c, 3, 50, 0
5, 44640, Note_on_c, 3, 55, 36
5, 44880, Note_on_c, 3, 55, 0
5, 44880, Note_on_c, 3, 59, 36
5, 45120, Note_on_c, 3, 59, 0
5, 45120, Note_on_c, 3, 55, 36
5, 45360, Note_on_c, 3, 55, 0
5, 45360, Note_on_c, 3, 43, 36
5, 45600, Note_on_c, 3, 43, 0
5, 45600, Note_on_c, 3, 48, 36
5, 45840, Note_on_c, 3, 48, 0
5, 45840, Note_on_c, 3, 49, 36
5, 46080, Note_on_c, 3, 49, 0
5, 46080, Note_on_c, 3, 50, 36
5, 46560, Note_on_c, 3, 50, 0
5, 46800, Note_on_c, 3, 62, 36
5, 47040, Note_on_c, 3, 62, 0
5, 47040, Note_on_c, 3, 59, 36
5, 47280, Note_on_c, 3, 59, 0
5, 47280, Note_on_c, 3, 57, 36
5, 47520, Note_on_c, 3, 57, 0
5, 47520, Note_on_c, 3, 56, 36
5, 47760, Note_on_c, 3, 56, 0
5, 47760, Note_on_c, 3, 56, 36
5, 48000, Note_on_c, 3, 56, 0
5, 48000, Note_on_c, 3, 56, 36
5, 48240, Note_on_c, 3, 56, 0
5, 48240, Note_on_c, 3, 56, 36
5, 48480, Note_on_c, 3, 56, 0
5, 48480, Note_on_c, 3, 56, 36
5, 48720, Note_on_c, 3, 56, 0
5, 48720, Note_on_c, 3, 56, 36
5, 48960, Note_on_c, 3, 56, 0
5, 48960, Note_on_c, 3, 57, 36
5, 49200, Note_on_c, 3, 57, 0
5, 49200, Note_on_c, 3, 45, 36
5, 49440, Note_on_c, 3, 45, 0
5, 49440, Note_on_c, 3, 45, 36
5, 49680, Note_on_c, 3, 45, 0
5, 49680, Note_on_c, 3, 45, 36
5, 49920, Note_on_c, 3, 45, 0
5, 49920, Note_on_c, 3, 45, 36
5, 50160, Note_on_c, 3, 45, 0
5, 50160, Note_on_c, 3, 45, 36
5, 50400, Note_on_c, 3, 45, 0
5, 50400, Note_on_c, 3, 50, 36
5, 50640, Note_on_c, 3, 50, 0
5, 50640, Note_on_c, 3, 50, 36
5, 50880, Note_on_c, 3, 50, 0
5, 50880, Note_on_c, 3, 50, 36
5, 51120, Note_on_c, 3, 50, 0
5, 51120, Control_c, 3, 7, 61
5, 51120, Note_on_c, 3, 50, 36
5, 51360, Note_on_c, 3, 50, 0
5, 51360, Note_on_c, 3, 50, 36
5, 51600, Note_on_c, 3, 50, 0
5, 51600, Note_on_c, 3, 50, 36
5, 51840, Note_on_c, 3, 50, 0
5, 51840, Note_on_c, 3, 55, 36
5, 52080, Note_on_c, 3, 55, 0
5, 52080, Note_on_c, 3, 43, 36
5, 52320, Note_on_c, 3, 43, 0
5, 52320, Note_on_c, 3, 43, 36
5, 52560, Note_on_c, 3, 43, 0
5, 52560, Note_on_c, 3, 43, 36
5, 52800, Note_on_c, 3, 43, 0
5, 52800, Note_on_c, 3, 43, 36
5, 53040, Note_on_c, 3, 43, 0
5, 53040, Note_on_c, 3, 43, 36
5, 53280, Note_on_c, 3, 43, 0
5, 53280, Note_on_c, 3, 48, 36
5, 53520, Note_on_c, 3, 48, 0
5, 53520, Note_on_c, 3, 48, 36
5, 53760, Note_on_c, 3, 48, 0
5, 53760, Note_on_c, 3, 48, 36
5, 54000, Note_on_c, 3, 48, 0
5, 54000, Note_on_c, 3, 48, 36
5, 54240, Note_on_c, 3, 48, 0
5, 54240, Note_on_c, 3, 48, 36
5, 54480, Note_on_c, 3, 48, 0
5, 54480, Note_on_c, 3, 49, 36
5, 54720, Note_on_c, 3, 49, 0
5, 54720, Note_on_c, 3, 50, 36
5, 55440, Note_on_c, 3, 50, 0
5, 55440, Note_on_c, 3, 60, 36
5, 55680, Note_on_c, 3, 60, 0
5, 55680, Note_on_c, 3, 59, 36
5, 55920, Note_on_c, 3, 59, 0
5, 55920, Note_on_c, 3, 57, 36
5, 56160, Note_on_c, 3, 57, 0
5, 56160, Note_on_c, 3, 55, 36
5, 56400, Note_on_c, 3, 55, 0
5, 56400, Note_on_c, 3, 55, 36
5, 56640, Note_on_c, 3, 55, 0
5, 56640, Note_on_c, 3, 55, 36
5, 56880, Note_on_c, 3, 55, 0
5, 56880, Note_on_c, 3, 55, 36
5, 57120, Note_on_c, 3, 55, 0
5, 57120, Note_on_c, 3, 55, 36
5, 57360, Note_on_c, 3, 55, 0
5, 57360, Note_on_c, 3, 55, 36
5, 57600, Note_on_c, 3, 55, 0
5, 57600, Note_on_c, 3, 57, 36
5, 57840, Note_on_c, 3, 57, 0
5, 57840, Note_on_c, 3, 57, 36
5, 58080, Note_on_c, 3, 57, 0
5, 58080, Note_on_c, 3, 57, 36
5, 58320, Note_on_c, 3, 57, 0
5, 58320, Note_on_c, 3, 57, 36
5, 58560, Note_on_c, 3, 57, 0
5, 58560, Note_on_c, 3, 57, 36
5, 58800, Note_on_c, 3, 57, 0
5, 58800, Note_on_c, 3, 55, 36
5, 59040, Note_on_c, 3, 55, 0
5, 59040, Note_on_c, 3, 54, 36
5, 59280, Note_on_c, 3, 54, 0
5, 59280, Note_on_c, 3, 54, 36
5, 59520, Note_on_c, 3, 54, 0
5, 59520, Note_on_c, 3, 54, 36
5, 59760, Note_on_c, 3, 54, 0
5, 59760, Note_on_c, 3, 54, 36
5, 60000, Note_on_c, 3, 54, 0
5, 60000, Note_on_c, 3, 54, 36
5, 60240, Note_on_c, 3, 54, 0
5, 60240, Note_on_c, 3, 54, 36
5, 60480, Note_on_c, 3, 54, 0
5, 60480, Note_on_c, 3, 55, 36
5, 60720, Note_on_c, 3, 55, 0
5, 60720, Note_on_c, 3, 55, 36
5, 60960, Note_on_c, 3, 55, 0
5, 60960, Note_on_c, 3, 55, 36
5, 61200, Note_on_c, 3, 55, 0
5, 61200, Note_on_c, 3, 55, 36
5, 61440, Note_on_c, 3, 55, 0
5, 61440, Note_on_c, 3, 57, 36
5, 61680, Note_on_c, 3, 57, 0
5, 61680, Note_on_c, 3, 59, 36
5, 61920, Note_on_c, 3, 59, 0
5, 61920, Note_on_c, 3, 60, 36
5, 62160, Note_on_c, 3, 60, 0
5, 62160, Note_on_c, 3, 60, 36
5, 62400, Note_on_c, 3, 60, 0
5, 62400, Note_on_c, 3, 60, 36
5, 62640, Note_on_c, 3, 60, 0
5, 62640, Note_on_c, 3, 60, 36
5, 62880, Note_on_c, 3, 60, 0
5, 62880, Note_on_c, 3, 60, 36
5, 63120, Note_on_c, 3, 60, 0
5, 63120, Note_on_c, 3, 60, 36
5, 63360, Note_on_c, 3, 60, 0
5, 63360, Note_on_c, 3, 55, 36
5, 63600, Note_on_c, 3, 55, 0
5, 63600, Note_on_c, 3, 55, 36
5, 63840, Note_on_c, 3, 55, 0
5, 63840, Note_on_c, 3, 43, 36
5, 64320, Note_on_c, 3, 43, 0
5, 65040, Note_on_c, 3, 55, 36
5, 65280, Note_on_c, 3, 55, 0
5, 65280, Note_on_c, 3, 48, 36
5, 65520, Note_on_c, 3, 48, 0
5, 65520, Note_on_c, 3, 48, 36
5, 65760, Note_on_c, 3, 48, 0
5, 65760, Note_on_c, 3, 49, 36
5, 66000, Note_on_c, 3, 49, 0
5, 66000, Note_on_c, 3, 49, 36
5, 66240, Note_on_c, 3, 49, 0
5, 66240, Note_on_c, 3, 50, 36
5, 66960, Note_on_c, 3, 50, 0
5, 66960, Note_on_c, 3, 60, 36
5, 67200, Note_on_c, 3, 60, 0
5, 67200, Note_on_c, 3, 59, 36
5, 67440, Note_on_c, 3, 59, 0
5, 67440, Note_on_c, 3, 57, 36
5, 67680, Note_on_c, 3, 57, 0
5, 67680, Note_on_c, 3, 55, 36
5, 67920, Note_on_c, 3, 55, 0
5, 67920, Note_on_c, 3, 55, 36
5, 68144, Control_c, 3, 7, 60
5, 68160, Note_on_c, 3, 55, 0
5, 68160, Note_on_c, 3, 55, 36
5, 68400, Note_on_c, 3, 55, 0
5, 68400, Note_on_c, 3, 55, 36
5, 68640, Note_on_c, 3, 55, 0
5, 68640, Note_on_c, 3, 55, 36
5, 68880, Note_on_c, 3, 55, 0
5, 68880, Note_on_c, 3, 55, 36
5, 69120, Note_on_c, 3, 55, 0
5, 69120, Note_on_c, 3, 54, 36
5, 69360, Note_on_c, 3, 54, 0
5, 69360, Note_on_c, 3, 54, 36
5, 69600, Note_on_c, 3, 54, 0
5, 69600, Note_on_c, 3, 54, 36
5, 69840, Note_on_c, 3, 54, 0
5, 69840, Note_on_c, 3, 54, 36
5, 70080, Note_on_c, 3, 54, 0
5, 70080, Note_on_c, 3, 54, 36
5, 70320, Note_on_c, 3, 54, 0
5, 70320, Note_on_c, 3, 54, 36
5, 70560, Note_on_c, 3, 54, 0
5, 70560, Note_on_c, 3, 52, 36
5, 70800, Note_on_c, 3, 52, 0
5, 70800, Note_on_c, 3, 52, 36
5, 71040, Note_on_c, 3, 52, 0
5, 71040, Note_on_c, 3, 52, 36
5, 71280, Note_on_c, 3, 52, 0
5, 71280, Note_on_c, 3, 52, 36
5, 71520, Note_on_c, 3, 52, 0
5, 71520, Note_on_c, 3, 52, 36
5, 71760, Note_on_c, 3, 52, 0
5, 71760, Note_on_c, 3, 52, 36
5, 72000, Note_on_c, 3, 52, 0
5, 72000, Note_on_c, 3, 50, 36
5, 72240, Note_on_c, 3, 50, 0
5, 72240, Note_on_c, 3, 50, 36
5, 72480, Note_on_c, 3, 50, 0
5, 72480, Note_on_c, 3, 50, 36
5, 72720, Note_on_c, 3, 50, 0
5, 72720, Note_on_c, 3, 50, 36
5, 72960, Note_on_c, 3, 50, 0
5, 72960, Note_on_c, 3, 50, 36
5, 73200, Note_on_c, 3, 50, 0
5, 73200, Note_on_c, 3, 50, 36
5, 73440, Note_on_c, 3, 50, 0
5, 73440, Note_on_c, 3, 49, 36
5, 73680, Note_on_c, 3, 49, 0
5, 73680, Note_on_c, 3, 49, 36
5, 73920, Note_on_c, 3, 49, 0
5, 73920, Note_on_c, 3, 49, 36
5, 74160, Note_on_c, 3, 49, 0
5, 74160, Note_on_c, 3, 49, 36
5, 74400, Note_on_c, 3, 49, 0
5, 74400, Note_on_c, 3, 49, 36
5, 74640, Note_on_c, 3, 49, 0
5, 74640, Note_on_c, 3, 49, 36
5, 74880, Note_on_c, 3, 49, 0
5, 74880, Note_on_c, 3, 50, 36
5, 75600, Note_on_c, 3, 50, 0
5, 75600, Note_on_c, 3, 60, 36
5, 75840, Note_on_c, 3, 60, 0
5, 75840, Note_on_c, 3, 59, 36
5, 76080, Note_on_c, 3, 59, 0
5, 76080, Note_on_c, 3, 57, 36
5, 76320, Note_on_c, 3, 57, 0
5, 76320, Note_on_c, 3, 55, 36
5, 77040, Note_on_c, 3, 55, 0
5, 77040, Note_on_c, 3, 55, 36
5, 77280, Note_on_c, 3, 55, 0
5, 77280, Note_on_c, 3, 55, 36
5, 77520, Note_on_c, 3, 55, 0
5, 77520, Note_on_c, 3, 55, 36
5, 77760, Note_on_c, 3, 55, 0
5, 77760, Note_on_c, 3, 54, 36
5, 78000, Note_on_c, 3, 54, 0
5, 78000, Note_on_c, 3, 55, 36
5, 78240, Note_on_c, 3, 55, 0
5, 78240, Note_on_c, 3, 62, 36
5, 78720, Note_on_c, 3, 62, 0
5, 78720, Note_on_c, 3, 50, 36
5, 78840, Note_on_c, 3, 50, 0
5, 78840, Note_on_c, 3, 48, 36
5, 78960, Note_on_c, 3, 48, 0
5, 78960, Note_on_c, 3, 47, 36
5, 79080, Note_on_c, 3, 47, 0
5, 79080, Note_on_c, 3, 45, 36
5, 79200, Note_on_c, 3, 45, 0
5, 79200, Note_on_c, 3, 43, 36
5, 79920, Note_on_c, 3, 43, 0
5, 79920, Note_on_c, 3, 55, 36
5, 80160, Note_on_c, 3, 55, 0
5, 80160, Note_on_c, 3, 55, 36
5, 80400, Note_on_c, 3, 55, 0
5, 80400, Note_on_c, 3, 55, 36
5, 80640, Note_on_c, 3, 55, 0
5, 80640, Note_on_c, 3, 54, 36
5, 80880, Note_on_c, 3, 54, 0
5, 80880, Note_on_c, 3, 55, 36
5, 81120, Note_on_c, 3, 55, 0
5, 81120, Note_on_c, 3, 50, 36
5, 81600, Note_on_c, 3, 50, 0
5, 81600, Note_on_c, 3, 50, 36
5, 81720, Note_on_c, 3, 50, 0
5, 81720, Note_on_c, 3, 48, 36
5, 81840, Note_on_c, 3, 48, 0
5, 81840, Note_on_c, 3, 47, 36
5, 81960, Note_on_c, 3, 47, 0
5, 81960, Note_on_c, 3, 45, 36
5, 82080, Note_on_c, 3, 45, 0
5, 82080, Note_on_c, 3, 47, 36
5, 82320, Note_on_c, 3, 47, 0
5, 82320, Note_on_c, 3, 47, 36
5, 82560, Note_on_c, 3, 47, 0
5, 82560, Note_on_c, 3, 47, 36
5, 82800, Note_on_c, 3, 47, 0
5, 82800, Note_on_c, 3, 47, 36
5, 83040, Note_on_c, 3, 47, 0
5, 83040, Note_on_c, 3, 47, 36
5, 83280, Note_on_c, 3, 47, 0
5, 83280, Note_on_c, 3, 47, 36
5, 83520, Note_on_c, 3, 47, 0
5, 83520, Note_on_c, 3, 48, 36
5, 83760, Note_on_c, 3, 48, 0
5, 84720, Note_on_c, 3, 48, 36
5, 84960, Note_on_c, 3, 48, 0
5, 84960, Note_on_c, 3, 50, 36
5, 85168, Control_c, 3, 7, 59
5, 85200, Note_on_c, 3, 50, 0
5, 85200, Note_on_c, 3, 50, 36
5, 85440, Note_on_c, 3, 50, 0
5, 85440, Note_on_c, 3, 50, 36
5, 85680, Note_on_c, 3, 50, 0
5, 85680, Note_on_c, 3, 50, 36
5, 85920, Note_on_c, 3, 50, 0
5, 85920, Note_on_c, 3, 50, 36
5, 86160, Note_on_c, 3, 50, 0
5, 86160, Note_on_c, 3, 50, 36
5, 86400, Note_on_c, 3, 50, 0
5, 86400, Note_on_c, 3, 43, 36
5, 86880, Note_on_c, 3, 43, 0
5, 87000, Note_on_c, 3, 55, 36
5, 87120, Note_on_c, 3, 55, 0
5, 87120, Note_on_c, 3, 54, 36
5, 87240, Note_on_c, 3, 54, 0
5, 87240, Note_on_c, 3, 55, 36
5, 87360, Note_on_c, 3, 55, 0
5, 87360, Note_on_c, 3, 57, 36
5, 87480, Note_on_c, 3, 57, 0
5, 87480, Note_on_c, 3, 55, 36
5, 87600, Note_on_c, 3, 55, 0
5, 87600, Note_on_c, 3, 54, 36
5, 87720, Note_on_c, 3, 54, 0
5, 87720, Note_on_c, 3, 55, 36
5, 87840, Note_on_c, 3, 55, 0
5, 87840, Note_on_c, 3, 52, 36
5, 88320, Note_on_c, 3, 52, 0
5, 88440, Note_on_c, 3, 52, 36
5, 88560, Note_on_c, 3, 52, 0
5, 88560, Note_on_c, 3, 51, 36
5, 88680, Note_on_c, 3, 51, 0
5, 88680, Note_on_c, 3, 52, 36
5, 88800, Note_on_c, 3, 52, 0
5, 88800, Note_on_c, 3, 54, 36
5, 88920, Note_on_c, 3, 54, 0
5, 88920, Note_on_c, 3, 52, 36
5, 89040, Note_on_c, 3, 52, 0
5, 89040, Note_on_c, 3, 51, 36
5, 89160, Note_on_c, 3, 51, 0
5, 89160, Note_on_c, 3, 52, 36
5, 89280, Note_on_c, 3, 52, 0
5, 89280, Note_on_c, 3, 47, 36
5, 89760, Note_on_c, 3, 47, 0
5, 90000, Note_on_c, 3, 47, 36
5, 90240, Note_on_c, 3, 47, 0
5, 90240, Note_on_c, 3, 47, 36
5, 90480, Note_on_c, 3, 47, 0
5, 90480, Note_on_c, 3, 47, 36
5, 90720, Note_on_c, 3, 47, 0
5, 90720, Note_on_c, 3, 48, 36
5, 90960, Note_on_c, 3, 48, 0
5, 90960, Note_on_c, 3, 48, 36
5, 91200, Note_on_c, 3, 48, 0
5, 91200, Note_on_c, 3, 50, 36
5, 91440, Note_on_c, 3, 50, 0
5, 91440, Note_on_c, 3, 50, 36
5, 91680, Note_on_c, 3, 50, 0
5, 91680, Note_on_c, 3, 50, 36
5, 91920, Note_on_c, 3, 50, 0
5, 91920, Note_on_c, 3, 50, 36
5, 92160, Note_on_c, 3, 50, 0
5, 92160, Note_on_c, 3, 55, 36
5, 93600, Note_on_c, 3, 55, 0
5, 93600, Note_on_c, 3, 55, 36
5, 95040, Note_on_c, 3, 55, 0
5, 95040, Note_on_c, 3, 55, 36
5, 96000, Note_on_c, 3, 55, 0
5, 96000, Note_on_c, 3, 43, 36
5, 96240, Note_on_c, 3, 43, 0
5, 96480, Control_c, 3, 7, 104
5, 96480, Note_on_c, 3, 55, 79
5, 96960, Note_on_c, 3, 55, 0
5, 100320, Note_on_c, 3, 55, 79
5, 101280, Note_on_c, 3, 55, 0
5, 101280, Note_on_c, 3, 50, 79
5, 102240, Note_on_c, 3, 50, 0
5, 102240, Note_on_c, 3, 48, 79
5, 102480, Note_on_c, 3, 48, 0
5, 102480, Note_on_c, 3, 47, 79
5, 102720, Note_on_c, 3, 47, 0
5, 102720, Note_on_c, 3, 45, 79
5, 102960, Note_on_c, 3, 45, 0
5, 102960, Note_on_c, 3, 43, 79
5, 103200, Note_on_c, 3, 43, 0
5, 103200, Note_on_c, 3, 50, 79
5, 103680, Note_on_c, 3, 50, 0
5, 104160, Note_on_c, 3, 55, 79
5, 104640, Note_on_c, 3, 55, 0
5, 108000, Note_on_c, 3, 55, 79
5, 108960, Note_on_c, 3, 55, 0
5, 108960, Note_on_c, 3, 50, 79
5, 109920, Note_on_c, 3, 50, 0
5, 109920, Note_on_c, 3, 48, 79
5, 110160, Note_on_c, 3, 48, 0
5, 110160, Note_on_c, 3, 47, 79
5, 110400, Note_on_c, 3, 47, 0
5, 110400, Note_on_c, 3, 45, 79
5, 110640, Note_on_c, 3, 45, 0
5, 110640, Note_on_c, 3, 43, 79
5, 110880, Note_on_c, 3, 43, 0
5, 110880, Note_on_c, 3, 50, 79
5, 111360, Note_on_c, 3, 50, 0
5, 111840, Note_on_c, 3, 55, 79
5, 112080, Note_on_c, 3, 55, 0
5, 112080, Note_on_c, 3, 55, 79
5, 112320, Note_on_c, 3, 55, 0
5, 112320, Note_on_c, 3, 55, 79
5, 112560, Note_on_c, 3, 55, 0
5, 112560, Note_on_c, 3, 55, 79
5, 112800, Note_on_c, 3, 55, 0
5, 112800, Note_on_c, 3, 55, 79
5, 113040, Note_on_c, 3, 55, 0
5, 113040, Note_on_c, 3, 55, 79
5, 113280, Note_on_c, 3, 55, 0
5, 113280, Note_on_c, 3, 55, 79
5, 113520, Note_on_c, 3, 55, 0
5, 113520, Note_on_c, 3, 55, 79
5, 113760, Note_on_c, 3, 55, 0
5, 113760, Note_on_c, 3, 57, 79
5, 114000, Note_on_c, 3, 57, 0
5, 114000, Note_on_c, 3, 57, 79
5, 114240, Note_on_c, 3, 57, 0
5, 114240, Note_on_c, 3, 57, 79
5, 114480, Note_on_c, 3, 57, 0
5, 114480, Note_on_c, 3, 57, 79
5, 114720, Note_on_c, 3, 57, 0
5, 114720, Note_on_c, 3, 50, 79
5, 114960, Note_on_c, 3, 50, 0
5, 114960, Note_on_c, 3, 50, 79
5, 115200, Note_on_c, 3, 50, 0
5, 115200, Note_on_c, 3, 50, 79
5, 115440, Note_on_c, 3, 50, 0
5, 115440, Note_on_c, 3, 50, 79
5, 115680, Note_on_c, 3, 50, 0
5, 115680, Note_on_c, 3, 43, 79
5, 115920, Note_on_c, 3, 43, 0
5, 115920, Note_on_c, 3, 43, 79
5, 116160, Note_on_c, 3, 43, 0
5, 116160, Note_on_c, 3, 43, 79
5, 116400, Note_on_c, 3, 43, 0
5, 116400, Note_on_c, 3, 43, 79
5, 116640, Note_on_c, 3, 43, 0
5, 116640, Note_on_c, 3, 55, 79
5, 116880, Note_on_c, 3, 55, 0
5, 116880, Note_on_c, 3, 55, 79
5, 117120, Note_on_c, 3, 55, 0
5, 117120, Note_on_c, 3, 55, 79
5, 117360, Note_on_c, 3, 55, 0
5, 117360, Note_on_c, 3, 55, 79
5, 117600, Note_on_c, 3, 55, 0
5, 117600, Note_on_c, 3, 57, 79
5, 117840, Note_on_c, 3, 57, 0
5, 117840, Note_on_c, 3, 57, 79
5, 118080, Note_on_c, 3, 57, 0
5, 118080, Note_on_c, 3, 57, 79
5, 118320, Note_on_c, 3, 57, 0
5, 118320, Note_on_c, 3, 57, 79
5, 118560, Note_on_c, 3, 57, 0
5, 118560, Note_on_c, 3, 50, 79
5, 118800, Note_on_c, 3, 50, 0
5, 118800, Note_on_c, 3, 50, 79
5, 119040, Note_on_c, 3, 50, 0
5, 119040, Note_on_c, 3, 50, 79
5, 119280, Note_on_c, 3, 50, 0
5, 119280, Note_on_c, 3, 50, 79
5, 119520, Note_on_c, 3, 50, 0
5, 119520, Note_on_c, 3, 55, 79
5, 119760, Note_on_c, 3, 55, 0
5, 119760, Note_on_c, 3, 43, 79
5, 120000, Note_on_c, 3, 43, 0
5, 120000, Note_on_c, 3, 45, 79
5, 120240, Note_on_c, 3, 45, 0
5, 120240, Note_on_c, 3, 47, 79
5, 120480, Note_on_c, 3, 47, 0
5, 120480, Note_on_c, 3, 48, 79
5, 120720, Note_on_c, 3, 48, 0
5, 120720, Note_on_c, 3, 50, 79
5, 120960, Note_on_c, 3, 50, 0
5, 120960, Note_on_c, 3, 52, 79
5, 121200, Note_on_c, 3, 52, 0
5, 121200, Note_on_c, 3, 54, 79
5, 121440, Note_on_c, 3, 54, 0
5, 121440, Note_on_c, 3, 55, 79
5, 121680, Note_on_c, 3, 55, 0
5, 121680, Note_on_c, 3, 54, 79
5, 121920, Note_on_c, 3, 54, 0
5, 121920, Note_on_c, 3, 52, 79
5, 122160, Note_on_c, 3, 52, 0
5, 122160, Note_on_c, 3, 50, 79
5, 122400, Note_on_c, 3, 50, 0
5, 122400, Note_on_c, 3, 48, 79
5, 122640, Note_on_c, 3, 48, 0
5, 122640, Note_on_c, 3, 47, 79
5, 122880, Note_on_c, 3, 47, 0
5, 122880, Note_on_c, 3, 45, 79
5, 123120, Note_on_c, 3, 45, 0
5, 123120, Note_on_c, 3, 43, 79
5, 123360, Note_on_c, 3, 43, 0
5, 123360, Note_on_c, 3, 50, 79
5, 123840, Note_on_c, 3, 50, 0
5, 123840, Note_on_c, 3, 62, 79
5, 124320, Note_on_c, 3, 62, 0
5, 124320, Note_on_c, 3, 50, 79
5, 124800, Note_on_c, 3, 50, 0
5, 131040, Note_on_c, 3, 50, 79
5, 132000, Note_on_c, 3, 50, 0
5, 132000, Note_on_c, 3, 54, 79
5, 132480, Note_on_c, 3, 54, 0
5, 132480, Note_on_c, 3, 57, 79
5, 132960, Note_on_c, 3, 57, 0
5, 132960, Note_on_c, 3, 50, 79
5, 133920, Note_on_c, 3, 50, 0
5, 133920, Note_on_c, 3, 54, 79
5, 134400, Note_on_c, 3, 54, 0
5, 134400, Note_on_c, 3, 57, 79
5, 134880, Note_on_c, 3, 57, 0
5, 134880, Note_on_c, 3, 62, 79
5, 135360, Note_on_c, 3, 62, 0
5, 136800, Note_on_c, 3, 57, 79
5, 137040, Note_on_c, 3, 57, 0
5, 137040, Note_on_c, 3, 57, 79
5, 137280, Note_on_c, 3, 57, 0
5, 137280, Note_on_c, 3, 57, 79
5, 137520, Note_on_c, 3, 57, 0
5, 137520, Note_on_c, 3, 57, 79
5, 137760, Note_on_c, 3, 57, 0
5, 137760, Note_on_c, 3, 57, 79
5, 138000, Note_on_c, 3, 57, 0
5, 138000, Note_on_c, 3, 57, 79
5, 138240, Note_on_c, 3, 57, 0
5, 138240, Note_on_c, 3, 57, 79
5, 138480, Note_on_c, 3, 57, 0
5, 138480, Note_on_c, 3, 57, 79
5, 138720, Note_on_c, 3, 57, 0
5, 138720, Note_on_c, 3, 50, 79
5, 139200, Note_on_c, 3, 50, 0
5, 140640, Note_on_c, 3, 57, 79
5, 140880, Note_on_c, 3, 57, 0
5, 140880, Note_on_c, 3, 57, 79
5, 141120, Note_on_c, 3, 57, 0
5, 141120, Note_on_c, 3, 57, 79
5, 141360, Note_on_c, 3, 57, 0
5, 141360, Note_on_c, 3, 57, 79
5, 141600, Note_on_c, 3, 57, 0
5, 141600, Note_on_c, 3, 57, 79
5, 141840, Note_on_c, 3, 57, 0
5, 141840, Note_on_c, 3, 57, 79
5, 142080, Note_on_c, 3, 57, 0
5, 142080, Note_on_c, 3, 57, 79
5, 142320, Note_on_c, 3, 57, 0
5, 142320, Note_on_c, 3, 57, 79
5, 142560, Note_on_c, 3, 57, 0
5, 142560, Note_on_c, 3, 50, 79
5, 142800, Note_on_c, 3, 50, 0
5, 142800, Note_on_c, 3, 50, 79
5, 143040, Note_on_c, 3, 50, 0
5, 143040, Note_on_c, 3, 54, 79
5, 143280, Note_on_c, 3, 54, 0
5, 143280, Note_on_c, 3, 55, 79
5, 143520, Note_on_c, 3, 55, 0
5, 143520, Note_on_c, 3, 54, 79
5, 143760, Note_on_c, 3, 54, 0
5, 143760, Note_on_c, 3, 55, 79
5, 144000, Note_on_c, 3, 55, 0
5, 144000, Note_on_c, 3, 57, 79
5, 144240, Note_on_c, 3, 57, 0
5, 144240, Note_on_c, 3, 54, 79
5, 144480, Note_on_c, 3, 54, 0
5, 144480, Note_on_c, 3, 55, 79
5, 144960, Note_on_c, 3, 55, 0
5, 146400, Note_on_c, 3, 55, 79
5, 146640, Note_on_c, 3, 55, 0
5, 146640, Note_on_c, 3, 55, 79
5, 146880, Note_on_c, 3, 55, 0
5, 146880, Note_on_c, 3, 55, 79
5, 147120, Note_on_c, 3, 55, 0
5, 147120, Note_on_c, 3, 55, 79
5, 147360, Note_on_c, 3, 55, 0
5, 147360, Note_on_c, 3, 55, 79
5, 147600, Note_on_c, 3, 55, 0
5, 147600, Note_on_c, 3, 55, 79
5, 147840, Note_on_c, 3, 55, 0
5, 147840, Note_on_c, 3, 55, 79
5, 148080, Note_on_c, 3, 55, 0
5, 148080, Note_on_c, 3, 55, 79
5, 148320, Note_on_c, 3, 55, 0
5, 148320, Note_on_c, 3, 57, 79
5, 148560, Note_on_c, 3, 57, 0
5, 148560, Note_on_c, 3, 57, 79
5, 148800, Note_on_c, 3, 57, 0
5, 148800, Note_on_c, 3, 57, 79
5, 149040, Note_on_c, 3, 57, 0
5, 149040, Note_on_c, 3, 57, 79
5, 149280, Note_on_c, 3, 57, 0
5, 149280, Note_on_c, 3, 45, 79
5, 149520, Note_on_c, 3, 45, 0
5, 149520, Note_on_c, 3, 45, 79
5, 149760, Note_on_c, 3, 45, 0
5, 149760, Note_on_c, 3, 45, 79
5, 150000, Note_on_c, 3, 45, 0
5, 150000, Note_on_c, 3, 45, 79
5, 150240, Note_on_c, 3, 45, 0
5, 150240, Note_on_c, 3, 50, 79
5, 150720, Note_on_c, 3, 50, 0
5, 150720, Note_on_c, 3, 57, 79
5, 150960, Note_on_c, 3, 57, 0
5, 150960, Note_on_c, 3, 55, 79
5, 151200, Note_on_c, 3, 55, 0
5, 151200, Note_on_c, 3, 54, 79
5, 151440, Note_on_c, 3, 54, 0
5, 151440, Note_on_c, 3, 55, 79
5, 151680, Note_on_c, 3, 55, 0
5, 151680, Note_on_c, 3, 57, 79
5, 151920, Note_on_c, 3, 57, 0
5, 151920, Note_on_c, 3, 54, 79
5, 152160, Note_on_c, 3, 54, 0
5, 152160, Note_on_c, 3, 55, 79
5, 152640, Note_on_c, 3, 55, 0
5, 154080, Note_on_c, 3, 55, 79
5, 154320, Note_on_c, 3, 55, 0
5, 154320, Note_on_c, 3, 55, 79
5, 154560, Note_on_c, 3, 55, 0
5, 154560, Note_on_c, 3, 55, 79
5, 154800, Note_on_c, 3, 55, 0
5, 154800, Note_on_c, 3, 55, 79
5, 155040, Note_on_c, 3, 55, 0
5, 155040, Note_on_c, 3, 55, 79
5, 155280, Note_on_c, 3, 55, 0
5, 155280, Note_on_c, 3, 55, 79
5, 155520, Note_on_c, 3, 55, 0
5, 155520, Note_on_c, 3, 55, 79
5, 155760, Note_on_c, 3, 55, 0
5, 155760, Note_on_c, 3, 55, 79
5, 156000, Note_on_c, 3, 55, 0
5, 156000, Note_on_c, 3, 57, 79
5, 156240, Note_on_c, 3, 57, 0
5, 156240, Note_on_c, 3, 57, 79
5, 156480, Note_on_c, 3, 57, 0
5, 156480, Note_on_c, 3, 57, 79
5, 156720, Note_on_c, 3, 57, 0
5, 156720, Note_on_c, 3, 57, 79
5, 156960, Note_on_c, 3, 57, 0
5, 156960, Note_on_c, 3, 45, 79
5, 157200, Note_on_c, 3, 45, 0
5, 157200, Note_on_c, 3, 45, 79
5, 157440, Note_on_c, 3, 45, 0
5, 157440, Note_on_c, 3, 45, 79
5, 157680, Note_on_c, 3, 45, 0
5, 157680, Note_on_c, 3, 45, 79
5, 157920, Note_on_c, 3, 45, 0
5, 157920, Note_on_c, 3, 50, 79
5, 159840, Note_on_c, 3, 50, 0
5, 159840, Note_on_c, 3, 50, 79
5, 161760, Note_on_c, 3, 50, 0
5, 161760, Note_on_c, 3, 50, 79
5, 162240, Note_on_c, 3, 50, 0
5, 162240, Note_on_c, 3, 50, 79
5, 162720, Note_on_c, 3, 50, 0
5, 162720, Note_on_c, 3, 50, 79
5, 163200, Note_on_c, 3, 50, 0
5, 163680, Note_on_c, 3, 55, 79
5, 164160, Note_on_c, 3, 55, 0
5, 167520, Note_on_c, 3, 55, 79
5, 168480, Note_on_c, 3, 55, 0
5, 168480, Note_on_c, 3, 50, 79
5, 169440, Note_on_c, 3, 50, 0
5, 169440, Note_on_c, 3, 48, 79
5, 169680, Note_on_c, 3, 48, 0
5, 169680, Note_on_c, 3, 47, 79
5, 169920, Note_on_c, 3, 47, 0
5, 169920, Note_on_c, 3, 45, 79
5, 170160, Note_on_c, 3, 45, 0
5, 170160, Note_on_c, 3, 43, 79
5, 170400, Note_on_c, 3, 43, 0
5, 170400, Note_on_c, 3, 50, 79
5, 170880, Note_on_c, 3, 50, 0
5, 171360, Note_on_c, 3, 55, 79
5, 171840, Note_on_c, 3, 55, 0
5, 175200, Note_on_c, 3, 55, 79
5, 176160, Note_on_c, 3, 55, 0
5, 176160, Note_on_c, 3, 50, 79
5, 177120, Note_on_c, 3, 50, 0
5, 177120, Note_on_c, 3, 48, 79
5, 177360, Note_on_c, 3, 48, 0
5, 177360, Note_on_c, 3, 47, 79
5, 177600, Note_on_c, 3, 47, 0
5, 177600, Note_on_c, 3, 45, 79
5, 177840, Note_on_c, 3, 45, 0
5, 177840, Note_on_c, 3, 43, 79
5, 178080, Note_on_c, 3, 43, 0
5, 178080, Note_on_c, 3, 50, 79
5, 178560, Note_on_c, 3, 50, 0
5, 179040, Note_on_c, 3, 55, 79
5, 179280, Note_on_c, 3, 55, 0
5, 179280, Note_on_c, 3, 55, 79
5, 179520, Note_on_c, 3, 55, 0
5, 179520, Note_on_c, 3, 55, 79
5, 179760, Note_on_c, 3, 55, 0
5, 179760, Note_on_c, 3, 55, 79
5, 180000, Note_on_c, 3, 55, 0
5, 180000, Note_on_c, 3, 55, 79
5, 180240, Note_on_c, 3, 55, 0
5, 180240, Note_on_c, 3, 55, 79
5, 180480, Note_on_c, 3, 55, 0
5, 180480, Note_on_c, 3, 55, 79
5, 180720, Note_on_c, 3, 55, 0
5, 180720, Note_on_c, 3, 55, 79
5, 180960, Note_on_c, 3, 55, 0
5, 180960, Note_on_c, 3, 57, 79
5, 181200, Note_on_c, 3, 57, 0
5, 181200, Note_on_c, 3, 57, 79
5, 181440, Note_on_c, 3, 57, 0
5, 181440, Note_on_c, 3, 57, 79
5, 181680, Note_on_c, 3, 57, 0
5, 181680, Note_on_c, 3, 57, 79
5, 181920, Note_on_c, 3, 57, 0
5, 181920, Note_on_c, 3, 50, 79
5, 182160, Note_on_c, 3, 50, 0
5, 182160, Note_on_c, 3, 50, 79
5, 182400, Note_on_c, 3, 50, 0
5, 182400, Note_on_c, 3, 50, 79
5, 182640, Note_on_c, 3, 50, 0
5, 182640, Note_on_c, 3, 50, 79
5, 182880, Note_on_c, 3, 50, 0
5, 182880, Note_on_c, 3, 43, 79
5, 183120, Note_on_c, 3, 43, 0
5, 183120, Note_on_c, 3, 43, 79
5, 183360, Note_on_c, 3, 43, 0
5, 183360, Note_on_c, 3, 43, 79
5, 183600, Note_on_c, 3, 43, 0
5, 183600, Note_on_c, 3, 43, 79
5, 183840, Note_on_c, 3, 43, 0
5, 183840, Note_on_c, 3, 55, 79
5, 184080, Note_on_c, 3, 55, 0
5, 184080, Note_on_c, 3, 55, 79
5, 184320, Note_on_c, 3, 55, 0
5, 184320, Note_on_c, 3, 55, 79
5, 184560, Note_on_c, 3, 55, 0
5, 184560, Note_on_c, 3, 55, 79
5, 184800, Note_on_c, 3, 55, 0
5, 184800, Note_on_c, 3, 57, 79
5, 185040, Note_on_c, 3, 57, 0
5, 185040, Note_on_c, 3, 57, 79
5, 185280, Note_on_c, 3, 57, 0
5, 185280, Note_on_c, 3, 57, 79
5, 185520, Note_on_c, 3, 57, 0
5, 185520, Note_on_c, 3, 57, 79
5, 185760, Note_on_c, 3, 57, 0
5, 185760, Note_on_c, 3, 50, 79
5, 186000, Note_on_c, 3, 50, 0
5, 186000, Note_on_c, 3, 50, 79
5, 186240, Note_on_c, 3, 50, 0
5, 186240, Note_on_c, 3, 50, 79
5, 186480, Note_on_c, 3, 50, 0
5, 186480, Note_on_c, 3, 50, 79
5, 186720, Note_on_c, 3, 50, 0
5, 186720, Note_on_c, 3, 55, 79
5, 186960, Note_on_c, 3, 55, 0
5, 186960, Note_on_c, 3, 43, 79
5, 187200, Note_on_c, 3, 43, 0
5, 187200, Note_on_c, 3, 45, 79
5, 187440, Note_on_c, 3, 45, 0
5, 187440, Note_on_c, 3, 47, 79
5, 187680, Note_on_c, 3, 47, 0
5, 187680, Note_on_c, 3, 48, 79
5, 187920, Note_on_c, 3, 48, 0
5, 187920, Note_on_c, 3, 50, 79
5, 188160, Note_on_c, 3, 50, 0
5, 188160, Note_on_c, 3, 52, 79
5, 188400, Note_on_c, 3, 52, 0
5, 188400, Note_on_c, 3, 54, 79
5, 188640, Note_on_c, 3, 54, 0
5, 188640, Note_on_c, 3, 55, 79
5, 188880, Note_on_c, 3, 55, 0
5, 188880, Note_on_c, 3, 54, 79
5, 189120, Note_on_c, 3, 54, 0
5, 189120, Note_on_c, 3, 52, 79
5, 189360, Note_on_c, 3, 52, 0
5, 189360, Note_on_c, 3, 50, 79
5, 189600, Note_on_c, 3, 50, 0
5, 189600, Note_on_c, 3, 48, 79
5, 189840, Note_on_c, 3, 48, 0
5, 189840, Note_on_c, 3, 47, 79
5, 190080, Note_on_c, 3, 47, 0
5, 190080, Note_on_c, 3, 45, 79
5, 190320, Note_on_c, 3, 45, 0
5, 190320, Note_on_c, 3, 43, 79
5, 190560, Note_on_c, 3, 43, 0
5, 190560, Note_on_c, 3, 50, 79
5, 191040, Note_on_c, 3, 50, 0
5, 191040, Note_on_c, 3, 62, 79
5, 191520, Note_on_c, 3, 62, 0
5, 191520, Note_on_c, 3, 50, 79
5, 192000, Note_on_c, 3, 50, 0
5, 198240, Note_on_c, 3, 50, 79
5, 199200, Note_on_c, 3, 50, 0
5, 199200, Note_on_c, 3, 54, 79
5, 199680, Note_on_c, 3, 54, 0
5, 199680, Note_on_c, 3, 57, 79
5, 200160, Note_on_c, 3, 57, 0
5, 200160, Note_on_c, 3, 50, 79
5, 201120, Note_on_c, 3, 50, 0
5, 201120, Note_on_c, 3, 54, 79
5, 201600, Note_on_c, 3, 54, 0
5, 201600, Note_on_c, 3, 57, 79
5, 202080, Note_on_c, 3, 57, 0
5, 202080, Note_on_c, 3, 62, 79
5, 202560, Note_on_c, 3, 62, 0
5, 204000, Note_on_c, 3, 57, 79
5, 204240, Note_on_c, 3, 57, 0
5, 204240, Note_on_c, 3, 57, 79
5, 204480, Note_on_c, 3, 57, 0
5, 204480, Note_on_c, 3, 57, 79
5, 204720, Note_on_c, 3, 57, 0
5, 204720, Note_on_c, 3, 57, 79
5, 204960, Note_on_c, 3, 57, 0
5, 204960, Note_on_c, 3, 57, 79
5, 205200, Note_on_c, 3, 57, 0
5, 205200, Note_on_c, 3, 57, 79
5, 205440, Note_on_c, 3, 57, 0
5, 205440, Note_on_c, 3, 57, 79
5, 205680, Note_on_c, 3, 57, 0
5, 205680, Note_on_c, 3, 57, 79
5, 205920, Note_on_c, 3, 57, 0
5, 205920, Note_on_c, 3, 50, 79
5, 206400, Note_on_c, 3, 50, 0
5, 207840, Note_on_c, 3, 57, 79
5, 208080, Note_on_c, 3, 57, 0
5, 208080, Note_on_c, 3, 57, 79
5, 208320, Note_on_c, 3, 57, 0
5, 208320, Note_on_c, 3, 57, 79
5, 208560, Note_on_c, 3, 57, 0
5, 208560, Note_on_c, 3, 57, 79
5, 208800, Note_on_c, 3, 57, 0
5, 208800, Note_on_c, 3, 57, 79
5, 209040, Note_on_c, 3, 57, 0
5, 209040, Note_on_c, 3, 57, 79
5, 209280, Note_on_c, 3, 57, 0
5, 209280, Note_on_c, 3, 57, 79
5, 209520, Note_on_c, 3, 57, 0
5, 209520, Note_on_c, 3, 57, 79
5, 209760, Note_on_c, 3, 57, 0
5, 209760, Note_on_c, 3, 50, 79
5, 210000, Note_on_c, 3, 50, 0
5, 210000, Note_on_c, 3, 50, 79
5, 210240, Note_on_c, 3, 50, 0
5, 210240, Note_on_c, 3, 54, 79
5, 210480, Note_on_c, 3, 54, 0
5, 210480, Note_on_c, 3, 55, 79
5, 210720, Note_on_c, 3, 55, 0
5, 210720, Note_on_c, 3, 54, 79
5, 210960, Note_on_c, 3, 54, 0
5, 210960, Note_on_c, 3, 55, 79
5, 211200, Note_on_c, 3, 55, 0
5, 211200, Note_on_c, 3, 57, 79
5, 211440, Note_on_c, 3, 57, 0
5, 211440, Note_on_c, 3, 54, 79
5, 211680, Note_on_c, 3, 54, 0
5, 211680, Note_on_c, 3, 55, 79
5, 212160, Note_on_c, 3, 55, 0
5, 213600, Note_on_c, 3, 55, 79
5, 213840, Note_on_c, 3, 55, 0
5, 213840, Note_on_c, 3, 55, 79
5, 214080, Note_on_c, 3, 55, 0
5, 214080, Note_on_c, 3, 55, 79
5, 214320, Note_on_c, 3, 55, 0
5, 214320, Note_on_c, 3, 55, 79
5, 214560, Note_on_c, 3, 55, 0
5, 214560, Note_on_c, 3, 55, 79
5, 214800, Note_on_c, 3, 55, 0
5, 214800, Note_on_c, 3, 55, 79
5, 215040, Note_on_c, 3, 55, 0
5, 215040, Note_on_c, 3, 55, 79
5, 215280, Note_on_c, 3, 55, 0
5, 215280, Note_on_c, 3, 55, 79
5, 215520, Note_on_c, 3, 55, 0
5, 215520, Note_on_c, 3, 57, 79
5, 215760, Note_on_c, 3, 57, 0
5, 215760, Note_on_c, 3, 57, 79
5, 216000, Note_on_c, 3, 57, 0
5, 216000, Note_on_c, 3, 57, 79
5, 216240, Note_on_c, 3, 57, 0
5, 216240, Note_on_c, 3, 57, 79
5, 216480, Note_on_c, 3, 57, 0
5, 216480, Note_on_c, 3, 45, 79
5, 216720, Note_on_c, 3, 45, 0
5, 216720, Note_on_c, 3, 45, 79
5, 216960, Note_on_c, 3, 45, 0
5, 216960, Note_on_c, 3, 45, 79
5, 217200, Note_on_c, 3, 45, 0
5, 217200, Note_on_c, 3, 45, 79
5, 217440, Note_on_c, 3, 45, 0
5, 217440, Note_on_c, 3, 50, 79
5, 217920, Note_on_c, 3, 50, 0
5, 217920, Note_on_c, 3, 57, 79
5, 218160, Note_on_c, 3, 57, 0
5, 218160, Note_on_c, 3, 55, 79
5, 218400, Note_on_c, 3, 55, 0
5, 218400, Note_on_c, 3, 54, 79
5, 218640, Note_on_c, 3, 54, 0
5, 218640, Note_on_c, 3, 55, 79
5, 218880, Note_on_c, 3, 55, 0
5, 218880, Note_on_c, 3, 57, 79
5, 219120, Note_on_c, 3, 57, 0
5, 219120, Note_on_c, 3, 54, 79
5, 219360, Note_on_c, 3, 54, 0
5, 219360, Note_on_c, 3, 55, 79
5, 219840, Note_on_c, 3, 55, 0
5, 221280, Note_on_c, 3, 55, 79
5, 221520, Note_on_c, 3, 55, 0
5, 221520, Note_on_c, 3, 55, 79
5, 221760, Note_on_c, 3, 55, 0
5, 221760, Note_on_c, 3, 55, 79
5, 222000, Note_on_c, 3, 55, 0
5, 222000, Note_on_c, 3, 55, 79
5, 222240, Note_on_c, 3, 55, 0
5, 222240, Note_on_c, 3, 55, 79
5, 222480, Note_on_c, 3, 55, 0
5, 222480, Note_on_c, 3, 55, 79
5, 222720, Note_on_c, 3, 55, 0
5, 222720, Note_on_c, 3, 55, 79
5, 222960, Note_on_c, 3, 55, 0
5, 222960, Note_on_c, 3, 55, 79
5, 223200, Note_on_c, 3, 55, 0
5, 223200, Note_on_c, 3, 57, 79
5, 223440, Note_on_c, 3, 57, 0
5, 223440, Note_on_c, 3, 57, 79
5, 223680, Note_on_c, 3, 57, 0
5, 223680, Note_on_c, 3, 57, 79
5, 223920, Note_on_c, 3, 57, 0
5, 223920, Note_on_c, 3, 57, 79
5, 224160, Note_on_c, 3, 57, 0
5, 224160, Note_on_c, 3, 45, 79
5, 224400, Note_on_c, 3, 45, 0
5, 224400, Note_on_c, 3, 45, 79
5, 224640, Note_on_c, 3, 45, 0
5, 224640, Note_on_c, 3, 45, 79
5, 224880, Note_on_c, 3, 45, 0
5, 224880, Note_on_c, 3, 45, 79
5, 225120, Note_on_c, 3, 45, 0
5, 225120, Note_on_c, 3, 50, 79
5, 227040, Note_on_c, 3, 50, 0
5, 227040, Note_on_c, 3, 50, 79
5, 228960, Note_on_c, 3, 50, 0
5, 228960, Note_on_c, 3, 50, 79
5, 229440, Note_on_c, 3, 50, 0
5, 229440, Note_on_c, 3, 50, 79
5, 229920, Note_on_c, 3, 50, 0
5, 229920, Note_on_c, 3, 50, 79
5, 230400, Note_on_c, 3, 50, 0
5, 244320, Note_on_c, 3, 43, 79
5, 246240, Note_on_c, 3, 43, 0
5, 246240, Note_on_c, 3, 45, 79
5, 248160, Note_on_c, 3, 45, 0
5, 248160, Note_on_c, 3, 47, 79
5, 250080, Note_on_c, 3, 47, 0
5, 250080, Note_on_c, 3, 48, 79
5, 252000, Note_on_c, 3, 48, 0
5, 252000, Note_on_c, 3, 50, 79
5, 252480, Note_on_c, 3, 50, 0
5, 252480, Note_on_c, 3, 54, 79
5, 252960, Note_on_c, 3, 54, 0
5, 252960, Note_on_c, 3, 55, 79
5, 253440, Note_on_c, 3, 55, 0
5, 253440, Note_on_c, 3, 59, 79
5, 253920, Note_on_c, 3, 59, 0
5, 253920, Control_c, 3, 7, 104
5, 253920, Note_on_c, 3, 50, 79
5, 254400, Note_on_c, 3, 50, 0
5, 254400, Note_on_c, 3, 54, 79
5, 254880, Note_on_c, 3, 54, 0
5, 254880, Note_on_c, 3, 55, 79
5, 255360, Note_on_c, 3, 55, 0
5, 255360, Note_on_c, 3, 59, 79
5, 255840, Note_on_c, 3, 59, 0
5, 255840, Note_on_c, 3, 50, 79
5, 256320, Note_on_c, 3, 50, 0
5, 256320, Note_on_c, 3, 62, 79
5, 256800, Note_on_c, 3, 62, 0
5, 256800, Note_on_c, 3, 50, 79
5, 257040, Note_on_c, 3, 50, 0
5, 257040, Note_on_c, 3, 60, 79
5, 257280, Note_on_c, 3, 60, 0
5, 257280, Note_on_c, 3, 59, 79
5, 257520, Note_on_c, 3, 59, 0
5, 257520, Note_on_c, 3, 57, 79
5, 257760, Note_on_c, 3, 57, 0
5, 257760, Note_on_c, 3, 55, 79
5, 258240, Note_on_c, 3, 55, 0
5, 261600, Note_on_c, 3, 55, 79
5, 262560, Note_on_c, 3, 55, 0
5, 262560, Note_on_c, 3, 50, 79
5, 263520, Note_on_c, 3, 50, 0
5, 263520, Note_on_c, 3, 48, 79
5, 263760, Note_on_c, 3, 48, 0
5, 263760, Note_on_c, 3, 47, 79
5, 264000, Note_on_c, 3, 47, 0
5, 264000, Note_on_c, 3, 45, 79
5, 264240, Note_on_c, 3, 45, 0
5, 264240, Note_on_c, 3, 43, 79
5, 264480, Note_on_c, 3, 43, 0
5, 264480, Note_on_c, 3, 50, 79
5, 264960, Note_on_c, 3, 50, 0
5, 265440, Note_on_c, 3, 55, 79
5, 265920, Note_on_c, 3, 55, 0
5, 269280, Note_on_c, 3, 55, 79
5, 270240, Note_on_c, 3, 55, 0
5, 270240, Note_on_c, 3, 50, 79
5, 271200, Note_on_c, 3, 50, 0
5, 271200, Note_on_c, 3, 48, 79
5, 271260, Note_on_c, 3, 48, 0
5, 271260, Note_on_c, 3, 47, 79
5, 271320, Note_on_c, 3, 47, 0
5, 271320, Note_on_c, 3, 47, 79
5, 271680, Note_on_c, 3, 47, 0
5, 271680, Note_on_c, 3, 45, 79
5, 271920, Note_on_c, 3, 45, 0
5, 271920, Note_on_c, 3, 43, 79
5, 272160, Note_on_c, 3, 43, 0
5, 272160, Note_on_c, 3, 50, 79
5, 272640, Note_on_c, 3, 50, 0
5, 273120, Note_on_c, 3, 55, 79
5, 273360, Note_on_c, 3, 55, 0
5, 273360, Note_on_c, 3, 55, 79
5, 273600, Note_on_c, 3, 55, 0
5, 273600, Note_on_c, 3, 55, 79
5, 273840, Note_on_c, 3, 55, 0
5, 273840, Note_on_c, 3, 55, 79
5, 274080, Note_on_c, 3, 55, 0
5, 274080, Note_on_c, 3, 55, 79
5, 274320, Note_on_c, 3, 55, 0
5, 274320, Note_on_c, 3, 55, 79
5, 274560, Note_on_c, 3, 55, 0
5, 274560, Note_on_c, 3, 55, 79
5, 274800, Note_on_c, 3, 55, 0
5, 274800, Note_on_c, 3, 55, 79
5, 275040, Note_on_c, 3, 55, 0
5, 275040, Note_on_c, 3, 57, 79
5, 275280, Note_on_c, 3, 57, 0
5, 275280, Note_on_c, 3, 57, 79
5, 275520, Note_on_c, 3, 57, 0
5, 275520, Note_on_c, 3, 57, 79
5, 275760, Note_on_c, 3, 57, 0
5, 275760, Note_on_c, 3, 57, 79
5, 276000, Note_on_c, 3, 57, 0
5, 276000, Note_on_c, 3, 50, 79
5, 276240, Note_on_c, 3, 50, 0
5, 276240, Note_on_c, 3, 50, 79
5, 276480, Note_on_c, 3, 50, 0
5, 276480, Note_on_c, 3, 50, 79
5, 276720, Note_on_c, 3, 50, 0
5, 276720, Note_on_c, 3, 50, 79
5, 276960, Note_on_c, 3, 50, 0
5, 276960, Note_on_c, 3, 43, 79
5, 277200, Note_on_c, 3, 43, 0
5, 277200, Note_on_c, 3, 43, 79
5, 277440, Note_on_c, 3, 43, 0
5, 277440, Note_on_c, 3, 43, 79
5, 277680, Note_on_c, 3, 43, 0
5, 277680, Note_on_c, 3, 43, 79
5, 277920, Note_on_c, 3, 43, 0
5, 277920, Note_on_c, 3, 55, 79
5, 278160, Note_on_c, 3, 55, 0
5, 278160, Note_on_c, 3, 55, 79
5, 278400, Note_on_c, 3, 55, 0
5, 278400, Note_on_c, 3, 55, 79
5, 278640, Note_on_c, 3, 55, 0
5, 278640, Note_on_c, 3, 55, 79
5, 278880, Note_on_c, 3, 55, 0
5, 278880, Note_on_c, 3, 57, 79
5, 279120, Note_on_c, 3, 57, 0
5, 279120, Note_on_c, 3, 57, 79
5, 279360, Note_on_c, 3, 57, 0
5, 279360, Note_on_c, 3, 57, 79
5, 279600, Note_on_c, 3, 57, 0
5, 279600, Note_on_c, 3, 57, 79
5, 279840, Note_on_c, 3, 57, 0
5, 279840, Note_on_c, 3, 50, 79
5, 280080, Note_on_c, 3, 50, 0
5, 280080, Note_on_c, 3, 50, 79
5, 280320, Note_on_c, 3, 50, 0
5, 280320, Note_on_c, 3, 50, 79
5, 280560, Note_on_c, 3, 50, 0
5, 280560, Note_on_c, 3, 50, 79
5, 280800, Note_on_c, 3, 50, 0
5, 280800, Note_on_c, 3, 55, 79
5, 281040, Note_on_c, 3, 55, 0
5, 281040, Note_on_c, 3, 43, 79
5, 281280, Note_on_c, 3, 43, 0
5, 281280, Note_on_c, 3, 45, 79
5, 281520, Note_on_c, 3, 45, 0
5, 281520, Note_on_c, 3, 47, 79
5, 281760, Note_on_c, 3, 47, 0
5, 281760, Note_on_c, 3, 48, 79
5, 282000, Note_on_c, 3, 48, 0
5, 282000, Note_on_c, 3, 50, 79
5, 282240, Note_on_c, 3, 50, 0
5, 282240, Note_on_c, 3, 52, 79
5, 282480, Note_on_c, 3, 52, 0
5, 282480, Note_on_c, 3, 54, 79
5, 282720, Note_on_c, 3, 54, 0
5, 282720, Note_on_c, 3, 55, 79
5, 282960, Note_on_c, 3, 55, 0
5, 282960, Note_on_c, 3, 54, 79
5, 283200, Note_on_c, 3, 54, 0
5, 283200, Note_on_c, 3, 52, 79
5, 283440, Note_on_c, 3, 52, 0
5, 283440, Note_on_c, 3, 50, 79
5, 283680, Note_on_c, 3, 50, 0
5, 283680, Note_on_c, 3, 48, 79
5, 283920, Note_on_c, 3, 48, 0
5, 283920, Note_on_c, 3, 47, 79
5, 284160, Note_on_c, 3, 47, 0
5, 284160, Note_on_c, 3, 45, 79
5, 284400, Note_on_c, 3, 45, 0
5, 284400, Note_on_c, 3, 43, 79
5, 284640, Note_on_c, 3, 43, 0
5, 284640, Note_on_c, 3, 50, 79
5, 285120, Note_on_c, 3, 50, 0
5, 285120, Note_on_c, 3, 62, 79
5, 285600, Note_on_c, 3, 62, 0
5, 285600, Note_on_c, 3, 50, 79
5, 286080, Note_on_c, 3, 50, 0
5, 292320, Note_on_c, 3, 43, 79
5, 293280, Note_on_c, 3, 43, 0
5, 293280, Note_on_c, 3, 47, 79
5, 293760, Note_on_c, 3, 47, 0
5, 293760, Note_on_c, 3, 50, 79
5, 294240, Note_on_c, 3, 50, 0
5, 294240, Note_on_c, 3, 55, 79
5, 295200, Note_on_c, 3, 55, 0
5, 295200, Note_on_c, 3, 59, 79
5, 295680, Note_on_c, 3, 59, 0
5, 295680, Note_on_c, 3, 62, 79
5, 296160, Note_on_c, 3, 62, 0
5, 296160, Note_on_c, 3, 55, 79
5, 296640, Note_on_c, 3, 55, 0
5, 298080, Note_on_c, 3, 50, 79
5, 298320, Note_on_c, 3, 50, 0
5, 298320, Note_on_c, 3, 50, 79
5, 298560, Note_on_c, 3, 50, 0
5, 298560, Note_on_c, 3, 50, 79
5, 298800, Note_on_c, 3, 50, 0
5, 298800, Note_on_c, 3, 50, 79
5, 299040, Note_on_c, 3, 50, 0
5, 299040, Note_on_c, 3, 50, 79
5, 299280, Note_on_c, 3, 50, 0
5, 299280, Note_on_c, 3, 50, 79
5, 299520, Note_on_c, 3, 50, 0
5, 299520, Note_on_c, 3, 50, 79
5, 299760, Note_on_c, 3, 50, 0
5, 299760, Note_on_c, 3, 50, 79
5, 300000, Note_on_c, 3, 50, 0
5, 300000, Note_on_c, 3, 43, 79
5, 300480, Note_on_c, 3, 43, 0
5, 301920, Note_on_c, 3, 50, 79
5, 302160, Note_on_c, 3, 50, 0
5, 302160, Note_on_c, 3, 50, 79
5, 302400, Note_on_c, 3, 50, 0
5, 302400, Note_on_c, 3, 50, 79
5, 302640, Note_on_c, 3, 50, 0
5, 302640, Note_on_c, 3, 50, 79
5, 302880, Note_on_c, 3, 50, 0
5, 302880, Note_on_c, 3, 50, 79
5, 303120, Note_on_c, 3, 50, 0
5, 303120, Note_on_c, 3, 50, 79
5, 303360, Note_on_c, 3, 50, 0
5, 303360, Note_on_c, 3, 50, 79
5, 303600, Note_on_c, 3, 50, 0
5, 303600, Note_on_c, 3, 50, 79
5, 303840, Note_on_c, 3, 50, 0
5, 303840, Note_on_c, 3, 43, 79
5, 304080, Note_on_c, 3, 43, 0
5, 304080, Note_on_c, 3, 55, 79
5, 304320, Note_on_c, 3, 55, 0
5, 304320, Note_on_c, 3, 59, 79
5, 304560, Note_on_c, 3, 59, 0
5, 304560, Note_on_c, 3, 60, 79
5, 304800, Note_on_c, 3, 60, 0
5, 304800, Note_on_c, 3, 59, 79
5, 305040, Note_on_c, 3, 59, 0
5, 305040, Note_on_c, 3, 62, 79
5, 305280, Note_on_c, 3, 62, 0
5, 305280, Note_on_c, 3, 60, 79
5, 305520, Note_on_c, 3, 60, 0
5, 305520, Note_on_c, 3, 59, 79
5, 305760, Note_on_c, 3, 59, 0
5, 305760, Note_on_c, 3, 60, 79
5, 306240, Note_on_c, 3, 60, 0
5, 307680, Note_on_c, 3, 60, 79
5, 307920, Note_on_c, 3, 60, 0
5, 307920, Note_on_c, 3, 60, 79
5, 308160, Note_on_c, 3, 60, 0
5, 308160, Note_on_c, 3, 60, 79
5, 308400, Note_on_c, 3, 60, 0
5, 308400, Note_on_c, 3, 60, 79
5, 308640, Note_on_c, 3, 60, 0
5, 308640, Note_on_c, 3, 60, 79
5, 308880, Note_on_c, 3, 60, 0
5, 308880, Note_on_c, 3, 60, 79
5, 309120, Note_on_c, 3, 60, 0
5, 309120, Note_on_c, 3, 60, 79
5, 309360, Note_on_c, 3, 60, 0
5, 309360, Note_on_c, 3, 60, 79
5, 309600, Note_on_c, 3, 60, 0
5, 309600, Note_on_c, 3, 62, 79
5, 309840, Note_on_c, 3, 62, 0
5, 309840, Note_on_c, 3, 62, 79
5, 310080, Note_on_c, 3, 62, 0
5, 310080, Note_on_c, 3, 62, 79
5, 310320, Note_on_c, 3, 62, 0
5, 310320, Note_on_c, 3, 62, 79
5, 310560, Note_on_c, 3, 62, 0
5, 310560, Note_on_c, 3, 50, 79
5, 310800, Note_on_c, 3, 50, 0
5, 310800, Note_on_c, 3, 50, 79
5, 311040, Note_on_c, 3, 50, 0
5, 311040, Note_on_c, 3, 50, 79
5, 311280, Note_on_c, 3, 50, 0
5, 311280, Note_on_c, 3, 50, 79
5, 311520, Note_on_c, 3, 50, 0
5, 311520, Note_on_c, 3, 55, 79
5, 312000, Note_on_c, 3, 55, 0
5, 312000, Note_on_c, 3, 62, 79
5, 312240, Note_on_c, 3, 62, 0
5, 312240, Note_on_c, 3, 60, 79
5, 312480, Note_on_c, 3, 60, 0
5, 312480, Note_on_c, 3, 59, 79
5, 312720, Note_on_c, 3, 59, 0
5, 312720, Note_on_c, 3, 60, 79
5, 312960, Note_on_c, 3, 60, 0
5, 312960, Note_on_c, 3, 62, 79
5, 313200, Note_on_c, 3, 62, 0
5, 313200, Note_on_c, 3, 59, 79
5, 313440, Note_on_c, 3, 59, 0
5, 313440, Note_on_c, 3, 60, 79
5, 313920, Note_on_c, 3, 60, 0
5, 315360, Note_on_c, 3, 60, 79
5, 315600, Note_on_c, 3, 60, 0
5, 315600, Note_on_c, 3, 60, 79
5, 315840, Note_on_c, 3, 60, 0
5, 315840, Note_on_c, 3, 60, 79
5, 316080, Note_on_c, 3, 60, 0
5, 316080, Note_on_c, 3, 60, 79
5, 316320, Note_on_c, 3, 60, 0
5, 316320, Note_on_c, 3, 60, 79
5, 316560, Note_on_c, 3, 60, 0
5, 316560, Note_on_c, 3, 60, 79
5, 316800, Note_on_c, 3, 60, 0
5, 316800, Note_on_c, 3, 60, 79
5, 317040, Note_on_c, 3, 60, 0
5, 317040, Note_on_c, 3, 60, 79
5, 317280, Note_on_c, 3, 60, 0
5, 317280, Note_on_c, 3, 62, 79
5, 317520, Note_on_c, 3, 62, 0
5, 317520, Note_on_c, 3, 62, 79
5, 317760, Note_on_c, 3, 62, 0
5, 317760, Note_on_c, 3, 62, 79
5, 318000, Note_on_c, 3, 62, 0
5, 318000, Note_on_c, 3, 62, 79
5, 318240, Note_on_c, 3, 62, 0
5, 318240, Note_on_c, 3, 50, 79
5, 318480, Note_on_c, 3, 50, 0
5, 318480, Note_on_c, 3, 50, 79
5, 318720, Note_on_c, 3, 50, 0
5, 318720, Note_on_c, 3, 50, 79
5, 318960, Note_on_c, 3, 50, 0
5, 318960, Note_on_c, 3, 50, 79
5, 319200, Note_on_c, 3, 50, 0
5, 319200, Note_on_c, 3, 55, 79
5, 321120, Note_on_c, 3, 55, 0
5, 321120, Note_on_c, 3, 55, 79
5, 323040, Note_on_c, 3, 55, 79
5, 323160, Note_on_c, 3, 55, 0
5, 323520, Note_on_c, 3, 55, 0
5, 323544, Note_on_c, 3, 43, 79
5, 324024, Note_on_c, 3, 43, 0
5, 324024, Note_on_c, 3, 43, 79
5, 324504, Note_on_c, 3, 43, 0
5, 324960, Control_c, 3, 7, 72
5, 324960, Note_on_c, 3, 43, 79
5, 325320, Note_on_c, 3, 43, 0
5, 325439, Control_c, 3, 7, 72
5, 325560, Control_c, 3, 7, 100
5, 329280, Note_on_c, 3, 50, 79
5, 329520, Note_on_c, 3, 50, 0
5, 329760, Note_on_c, 3, 50, 79
5, 330240, Note_on_c, 3, 50, 0
5, 330240, Note_on_c, 3, 48, 79
5, 330720, Note_on_c, 3, 48, 0
5, 330720, Note_on_c, 3, 47, 79
5, 331200, Note_on_c, 3, 47, 0
5, 331200, Note_on_c, 3, 45, 79
5, 331680, Note_on_c, 3, 45, 0
5, 331680, Note_on_c, 3, 43, 79
5, 332160, Note_on_c, 3, 43, 0
5, 332160, Note_on_c, 3, 42, 79
5, 332400, Note_on_c, 3, 42, 0
5, 332640, Note_on_c, 3, 54, 79
5, 333120, Note_on_c, 3, 54, 0
5, 333120, Note_on_c, 3, 55, 79
5, 333600, Note_on_c, 3, 55, 0
5, 333600, Note_on_c, 3, 48, 79
5, 333840, Note_on_c, 3, 48, 0
5, 334080, Note_on_c, 3, 50, 79
5, 334320, Note_on_c, 3, 50, 0
5, 334560, Note_on_c, 3, 50, 79
5, 334800, Note_on_c, 3, 50, 0
5, 335040, Note_on_c, 3, 43, 79
5, 335280, Note_on_c, 3, 43, 0
5, 335520, Note_on_c, 3, 47, 79
5, 335760, Note_on_c, 3, 47, 0
5, 336000, Note_on_c, 3, 50, 79
5, 336240, Note_on_c, 3, 50, 0
5, 336480, Note_on_c, 3, 55, 79
5, 336960, Note_on_c, 3, 55, 0
5, 340800, Note_on_c, 3, 50, 79
5, 341040, Note_on_c, 3, 50, 0
5, 341280, Note_on_c, 3, 50, 79
5, 341760, Note_on_c, 3, 50, 0
5, 341760, Note_on_c, 3, 48, 79
5, 342240, Note_on_c, 3, 48, 0
5, 342240, Note_on_c, 3, 47, 79
5, 342720, Note_on_c, 3, 47, 0
5, 342720, Note_on_c, 3, 45, 79
5, 343200, Note_on_c, 3, 45, 0
5, 343200, Note_on_c, 3, 43, 79
5, 343680, Note_on_c, 3, 43, 0
5, 343680, Note_on_c, 3, 42, 79
5, 343920, Note_on_c, 3, 42, 0
5, 344160, Note_on_c, 3, 54, 79
5, 344640, Note_on_c, 3, 54, 0
5, 344640, Note_on_c, 3, 55, 79
5, 345120, Note_on_c, 3, 55, 0
5, 345120, Note_on_c, 3, 48, 79
5, 345360, Note_on_c, 3, 48, 0
5, 345600, Note_on_c, 3, 50, 79
5, 345840, Note_on_c, 3, 50, 0
5, 346080, Note_on_c, 3, 50, 79
5, 346320, Note_on_c, 3, 50, 0
5, 346560, Note_on_c, 3, 43, 79
5, 346800, Note_on_c, 3, 43, 0
5, 347040, Note_on_c, 3, 47, 79
5, 347280, Note_on_c, 3, 47, 0
5, 347520, Note_on_c, 3, 50, 79
5, 347760, Note_on_c, 3, 50, 0
5, 347999, Control_c, 3, 7, 100
5, 348000, Note_on_c, 3, 55, 79
5, 348048, Control_c, 3, 7, 108
5, 348480, Note_on_c, 3, 55, 0
5, 348480, Note_on_c, 3, 54, 79
5, 348576, Control_c, 3, 7, 81
5, 348960, Note_on_c, 3, 54, 0
5, 348960, Note_on_c, 3, 54, 79
5, 349103, Control_c, 3, 7, 54
5, 349200, Note_on_c, 3, 54, 0
5, 349392, Control_c, 3, 7, 104
5, 349440, Note_on_c, 3, 52, 79
5, 349920, Note_on_c, 3, 52, 0
5, 349920, Note_on_c, 3, 50, 79
5, 349992, Control_c, 3, 7, 81
5, 350400, Note_on_c, 3, 50, 0
5, 350400, Note_on_c, 3, 50, 79
5, 350591, Control_c, 3, 7, 58
5, 350640, Note_on_c, 3, 50, 0
5, 350832, Control_c, 3, 7, 108
5, 350880, Note_on_c, 3, 43, 79
5, 351528, Control_c, 3, 7, 84
5, 352223, Control_c, 3, 7, 60
5, 352224, Control_c, 3, 7, 82
5, 352320, Note_on_c, 3, 43, 0
5, 352320, Note_on_c, 3, 45, 79
5, 352415, Control_c, 3, 7, 82
5, 352464, Control_c, 3, 7, 64
5, 352560, Note_on_c, 3, 45, 0
5, 352800, Note_on_c, 3, 57, 79
5, 353280, Note_on_c, 3, 57, 0
5, 353280, Note_on_c, 3, 55, 79
5, 353760, Note_on_c, 3, 55, 0
5, 353760, Note_on_c, 3, 54, 79
5, 354240, Note_on_c, 3, 54, 0
5, 354240, Note_on_c, 3, 52, 79
5, 354720, Note_on_c, 3, 52, 0
5, 354720, Note_on_c, 3, 50, 79
5, 355200, Note_on_c, 3, 50, 0
5, 355200, Note_on_c, 3, 59, 79
5, 355680, Note_on_c, 3, 59, 0
5, 355680, Note_on_c, 3, 57, 79
5, 356160, Note_on_c, 3, 57, 0
5, 356160, Note_on_c, 3, 55, 79
5, 356640, Note_on_c, 3, 55, 0
5, 356640, Note_on_c, 3, 54, 79
5, 356880, Note_on_c, 3, 54, 0
5, 357120, Note_on_c, 3, 55, 79
5, 357360, Note_on_c, 3, 55, 0
5, 357600, Note_on_c, 3, 57, 79
5, 357840, Note_on_c, 3, 57, 0
5, 358080, Note_on_c, 3, 50, 79
5, 358320, Note_on_c, 3, 50, 0
5, 358944, Control_c, 3, 7, 63
5, 365280, Control_c, 3, 7, 100
5, 369600, Note_on_c, 3, 50, 79
5, 369840, Note_on_c, 3, 50, 0
5, 370080, Note_on_c, 3, 50, 79
5, 370560, Note_on_c, 3, 50, 0
5, 370560, Note_on_c, 3, 48, 79
5, 371040, Note_on_c, 3, 48, 0
5, 371040, Note_on_c, 3, 47, 79
5, 371520, Note_on_c, 3, 47, 0
5, 371520, Note_on_c, 3, 45, 79
5, 372000, Note_on_c, 3, 45, 0
5, 372000, Note_on_c, 3, 43, 79
5, 372480, Note_on_c, 3, 43, 0
5, 372480, Note_on_c, 3, 42, 79
5, 372720, Note_on_c, 3, 42, 0
5, 372960, Note_on_c, 3, 54, 79
5, 373440, Note_on_c, 3, 54, 0
5, 373440, Note_on_c, 3, 55, 79
5, 373920, Note_on_c, 3, 55, 0
5, 373920, Note_on_c, 3, 48, 79
5, 374160, Note_on_c, 3, 48, 0
5, 374400, Note_on_c, 3, 50, 79
5, 374640, Note_on_c, 3, 50, 0
5, 374880, Note_on_c, 3, 50, 79
5, 375120, Note_on_c, 3, 50, 0
5, 375360, Note_on_c, 3, 43, 79
5, 375600, Note_on_c, 3, 43, 0
5, 375840, Note_on_c, 3, 47, 79
5, 376080, Note_on_c, 3, 47, 0
5, 376320, Note_on_c, 3, 50, 79
5, 376560, Note_on_c, 3, 50, 0
5, 376800, Control_c, 3, 7, 106
5, 377280, Note_on_c, 3, 54, 36
5, 377496, Control_c, 3, 7, 79
5, 377760, Note_on_c, 3, 54, 0
5, 377760, Note_on_c, 3, 54, 36
5, 378191, Control_c, 3, 7, 52
5, 378240, Note_on_c, 3, 54, 0
5, 378240, Note_on_c, 3, 52, 36
5, 378288, Control_c, 3, 7, 106
5, 378720, Note_on_c, 3, 52, 0
5, 378720, Note_on_c, 3, 50, 36
5, 378936, Control_c, 3, 7, 80
5, 379200, Note_on_c, 3, 50, 0
5, 379200, Note_on_c, 3, 50, 36
5, 379583, Control_c, 3, 7, 54
5, 379680, Note_on_c, 3, 50, 0
5, 379680, Note_on_c, 3, 43, 36
5, 379680, Control_c, 3, 7, 106
5, 380224, Control_c, 3, 7, 89
5, 380768, Control_c, 3, 7, 72
5, 381120, Note_on_c, 3, 43, 0
5, 381120, Note_on_c, 3, 45, 36
5, 381311, Control_c, 3, 7, 56
5, 381360, Control_c, 3, 7, 64
5, 381600, Note_on_c, 3, 45, 0
5, 381600, Note_on_c, 3, 57, 36
5, 382080, Note_on_c, 3, 57, 0
5, 382080, Note_on_c, 3, 55, 36
5, 382560, Note_on_c, 3, 55, 0
5, 382560, Note_on_c, 3, 54, 36
5, 383040, Note_on_c, 3, 54, 0
5, 383040, Note_on_c, 3, 52, 36
5, 383520, Note_on_c, 3, 52, 0
5, 383520, Note_on_c, 3, 50, 36
5, 384000, Note_on_c, 3, 50, 0
5, 384000, Note_on_c, 3, 59, 36
5, 384480, Note_on_c, 3, 59, 0
5, 384480, Note_on_c, 3, 57, 36
5, 384960, Note_on_c, 3, 57, 0
5, 384960, Note_on_c, 3, 55, 36
5, 385440, Note_on_c, 3, 55, 0
5, 385440, Note_on_c, 3, 54, 36
5, 385920, Note_on_c, 3, 54, 0
5, 385920, Note_on_c, 3, 55, 36
5, 386400, Note_on_c, 3, 55, 0
5, 386400, Note_on_c, 3, 57, 36
5, 386880, Note_on_c, 3, 57, 0
5, 386880, Note_on_c, 3, 50, 36
5, 387360, Note_on_c, 3, 50, 0
5, 394127, Control_c, 3, 7, 64
5, 394176, Control_c, 3, 7, 98
5, 398400, Note_on_c, 3, 50, 79
5, 398880, Note_on_c, 3, 50, 0
5, 398880, Note_on_c, 3, 50, 79
5, 399360, Note_on_c, 3, 50, 0
5, 399360, Note_on_c, 3, 48, 79
5, 399840, Note_on_c, 3, 48, 0
5, 399840, Note_on_c, 3, 47, 79
5, 399888, Control_c, 3, 7, 98
5, 400320, Note_on_c, 3, 47, 0
5, 400320, Note_on_c, 3, 45, 79
5, 400800, Note_on_c, 3, 45, 0
5, 400800, Note_on_c, 3, 43, 79
5, 401280, Note_on_c, 3, 43, 0
5, 401280, Note_on_c, 3, 42, 79
5, 401760, Note_on_c, 3, 42, 0
5, 401760, Note_on_c, 3, 54, 79
5, 402240, Note_on_c, 3, 54, 0
5, 402240, Note_on_c, 3, 55, 79
5, 402720, Note_on_c, 3, 55, 0
5, 402720, Note_on_c, 3, 48, 79
5, 403200, Note_on_c, 3, 48, 0
5, 403200, Note_on_c, 3, 50, 79
5, 403680, Note_on_c, 3, 50, 0
5, 403680, Note_on_c, 3, 50, 79
5, 404160, Note_on_c, 3, 50, 0
5, 404160, Note_on_c, 3, 43, 79
5, 404640, Note_on_c, 3, 43, 0
5, 404640, Note_on_c, 3, 47, 79
5, 405120, Note_on_c, 3, 47, 0
5, 405120, Note_on_c, 3, 50, 79
5, 405599, Control_c, 3, 7, 60
5, 405600, Note_on_c, 3, 50, 0
5, 405600, Note_on_c, 3, 60, 36
5, 406080, Note_on_c, 3, 60, 0
5, 406080, Note_on_c, 3, 60, 36
5, 406560, Note_on_c, 3, 60, 0
5, 406560, Note_on_c, 3, 60, 36
5, 407040, Note_on_c, 3, 60, 0
5, 407040, Note_on_c, 3, 59, 36
5, 407520, Note_on_c, 3, 59, 0
5, 407520, Note_on_c, 3, 59, 36
5, 408000, Note_on_c, 3, 59, 0
5, 408000, Note_on_c, 3, 59, 36
5, 408480, Note_on_c, 3, 59, 0
5, 408480, Note_on_c, 3, 57, 36
5, 408960, Note_on_c, 3, 57, 0
5, 408960, Note_on_c, 3, 57, 36
5, 409440, Note_on_c, 3, 57, 0
5, 409440, Note_on_c, 3, 57, 36
5, 409920, Note_on_c, 3, 57, 0
5, 409920, Note_on_c, 3, 55, 36
5, 410400, Note_on_c, 3, 55, 0
5, 410400, Note_on_c, 3, 55, 36
5, 410880, Note_on_c, 3, 55, 0
5, 410880, Note_on_c, 3, 55, 36
5, 411360, Note_on_c, 3, 55, 0
5, 411360, Note_on_c, 3, 53, 36
5, 411840, Note_on_c, 3, 53, 0
5, 411840, Note_on_c, 3, 53, 36
5, 412320, Note_on_c, 3, 53, 0
5, 412320, Note_on_c, 3, 53, 36
5, 412800, Note_on_c, 3, 53, 0
5, 412800, Note_on_c, 3, 52, 36
5, 413280, Note_on_c, 3, 52, 0
5, 413280, Note_on_c, 3, 52, 36
5, 413760, Note_on_c, 3, 52, 0
5, 413760, Note_on_c, 3, 52, 36
5, 414240, Note_on_c, 3, 52, 0
5, 414240, Note_on_c, 3, 53, 36
5, 414720, Note_on_c, 3, 53, 0
5, 414720, Note_on_c, 3, 50, 36
5, 415200, Note_on_c, 3, 50, 0
5, 415200, Note_on_c, 3, 55, 36
5, 415680, Note_on_c, 3, 55, 0
5, 415680, Note_on_c, 3, 48, 36
5, 416160, Note_on_c, 3, 48, 0
5, 416160, Note_on_c, 3, 43, 36
5, 416640, Note_on_c, 3, 43, 0
5, 416640, Note_on_c, 3, 36, 36
5, 417120, Note_on_c, 3, 36, 0
5, 417120, Note_on_c, 3, 60, 36
5, 417600, Note_on_c, 3, 60, 0
5, 417600, Note_on_c, 3, 60, 36
5, 418080, Note_on_c, 3, 60, 0
5, 418080, Note_on_c, 3, 60, 36
5, 418560, Note_on_c, 3, 60, 0
5, 418560, Note_on_c, 3, 59, 36
5, 419040, Note_on_c, 3, 59, 0
5, 419040, Note_on_c, 3, 59, 36
5, 419520, Note_on_c, 3, 59, 0
5, 419520, Note_on_c, 3, 59, 36
5, 420000, Note_on_c, 3, 59, 0
5, 420000, Note_on_c, 3, 57, 36
5, 420480, Note_on_c, 3, 57, 0
5, 420480, Note_on_c, 3, 57, 36
5, 420960, Note_on_c, 3, 57, 0
5, 420960, Note_on_c, 3, 57, 36
5, 421440, Note_on_c, 3, 57, 0
5, 421440, Note_on_c, 3, 55, 36
5, 421920, Note_on_c, 3, 55, 0
5, 421920, Note_on_c, 3, 55, 36
5, 422400, Note_on_c, 3, 55, 0
5, 422400, Note_on_c, 3, 55, 36
5, 422880, Note_on_c, 3, 55, 0
5, 422880, Note_on_c, 3, 53, 36
5, 423360, Note_on_c, 3, 53, 0
5, 423360, Note_on_c, 3, 53, 36
5, 423840, Note_on_c, 3, 53, 0
5, 423840, Note_on_c, 3, 53, 36
5, 424320, Note_on_c, 3, 53, 0
5, 424320, Note_on_c, 3, 52, 36
5, 424800, Note_on_c, 3, 52, 0
5, 424800, Note_on_c, 3, 52, 36
5, 425280, Note_on_c, 3, 52, 0
5, 425280, Note_on_c, 3, 52, 36
5, 425760, Note_on_c, 3, 52, 0
5, 425760, Note_on_c, 3, 53, 36
5, 426240, Note_on_c, 3, 53, 0
5, 426240, Note_on_c, 3, 50, 36
5, 426720, Note_on_c, 3, 50, 0
5, 426720, Note_on_c, 3, 55, 36
5, 427200, Note_on_c, 3, 55, 0
5, 427200, Note_on_c, 3, 48, 36
5, 427680, Note_on_c, 3, 48, 0
5, 427680, Note_on_c, 3, 43, 36
5, 428160, Note_on_c, 3, 43, 0
5, 428160, Note_on_c, 3, 36, 36
5, 428640, Note_on_c, 3, 36, 0
5, 430080, Control_c, 3, 7, 106
5, 431520, Control_c, 3, 7, 60
5, 434400, Note_on_c, 3, 43, 79
5, 434400, Control_c, 3, 7, 106
5, 434880, Note_on_c, 3, 43, 0
5, 435840, Note_on_c, 3, 43, 79
5, 436320, Note_on_c, 3, 43, 0
5, 436320, Note_on_c, 3, 55, 79
5, 436800, Note_on_c, 3, 55, 0
5, 436800, Note_on_c, 3, 48, 79
5, 437280, Note_on_c, 3, 48, 0
5, 437280, Note_on_c, 3, 55, 79
5, 437760, Note_on_c, 3, 55, 0
5, 437760, Note_on_c, 3, 48, 79
5, 438240, Note_on_c, 3, 48, 0
5, 438240, Note_on_c, 3, 50, 79
5, 438720, Note_on_c, 3, 50, 0
5, 438720, Note_on_c, 3, 43, 79
5, 439200, Note_on_c, 3, 43, 0
5, 439200, Note_on_c, 3, 43, 79
5, 439680, Note_on_c, 3, 43, 0
5, 439680, Note_on_c, 3, 60, 79
5, 439740, Note_on_c, 3, 60, 0
5, 439740, Note_on_c, 3, 59, 79
5, 439800, Note_on_c, 3, 59, 0
5, 439800, Note_on_c, 3, 60, 79
5, 439860, Note_on_c, 3, 60, 0
5, 439860, Note_on_c, 3, 59, 79
5, 439920, Note_on_c, 3, 59, 0
5, 439920, Note_on_c, 3, 60, 79
5, 439980, Note_on_c, 3, 60, 0
5, 439980, Note_on_c, 3, 59, 79
5, 440040, Note_on_c, 3, 59, 0
5, 440040, Note_on_c, 3, 59, 79
5, 440080, Note_on_c, 3, 59, 0
5, 440080, Note_on_c, 3, 57, 79
5, 440120, Note_on_c, 3, 57, 0
5, 440120, Note_on_c, 3, 59, 79
5, 440160, Note_on_c, 3, 59, 0
5, 440160, Control_c, 3, 7, 62
5, 440160, Note_on_c, 3, 60, 36
5, 440640, Note_on_c, 3, 60, 0
5, 440640, Note_on_c, 3, 60, 36
5, 441120, Note_on_c, 3, 60, 0
5, 441120, Note_on_c, 3, 60, 36
5, 441600, Note_on_c, 3, 60, 0
5, 441600, Note_on_c, 3, 59, 36
5, 442080, Note_on_c, 3, 59, 0
5, 442080, Note_on_c, 3, 59, 36
5, 442560, Note_on_c, 3, 59, 0
5, 442560, Note_on_c, 3, 59, 36
5, 443040, Note_on_c, 3, 59, 0
5, 443040, Note_on_c, 3, 57, 36
5, 443520, Note_on_c, 3, 57, 0
5, 443520, Note_on_c, 3, 57, 36
5, 444000, Note_on_c, 3, 57, 0
5, 444000, Note_on_c, 3, 57, 36
5, 444480, Note_on_c, 3, 57, 0
5, 444480, Note_on_c, 3, 55, 36
5, 444960, Note_on_c, 3, 55, 0
5, 444960, Note_on_c, 3, 55, 36
5, 445440, Note_on_c, 3, 55, 0
5, 445440, Note_on_c, 3, 55, 36
5, 445920, Note_on_c, 3, 55, 0
5, 445920, Note_on_c, 3, 53, 36
5, 446400, Note_on_c, 3, 53, 0
5, 446400, Note_on_c, 3, 53, 36
5, 446880, Note_on_c, 3, 53, 0
5, 446880, Note_on_c, 3, 53, 36
5, 447360, Note_on_c, 3, 53, 0
5, 447360, Note_on_c, 3, 52, 36
5, 447840, Note_on_c, 3, 52, 0
5, 447840, Note_on_c, 3, 52, 36
5, 448320, Note_on_c, 3, 52, 0
5, 448320, Note_on_c, 3, 52, 36
5, 448800, Note_on_c, 3, 52, 0
5, 448800, Note_on_c, 3, 53, 36
5, 449280, Note_on_c, 3, 53, 0
5, 449280, Note_on_c, 3, 50, 36
5, 449760, Note_on_c, 3, 50, 0
5, 449760, Note_on_c, 3, 55, 36
5, 450240, Note_on_c, 3, 55, 0
5, 450240, Note_on_c, 3, 48, 36
5, 450720, Note_on_c, 3, 48, 0
5, 450720, Note_on_c, 3, 36, 36
5, 451200, Note_on_c, 3, 36, 0
5, 453072, Control_c, 3, 7, 96
5, 453264, Control_c, 3, 7, 100
5, 454560, Control_c, 3, 7, 64
5, 457440, Note_on_c, 3, 43, 79
5, 457440, Control_c, 3, 7, 100
5, 457920, Note_on_c, 3, 43, 0
5, 458880, Note_on_c, 3, 43, 79
5, 459360, Note_on_c, 3, 43, 0
5, 459360, Note_on_c, 3, 55, 79
5, 459840, Note_on_c, 3, 55, 0
5, 459840, Note_on_c, 3, 48, 79
5, 460320, Note_on_c, 3, 48, 0
5, 460320, Note_on_c, 3, 55, 79
5, 460800, Note_on_c, 3, 55, 0
5, 460800, Note_on_c, 3, 48, 79
5, 461280, Note_on_c, 3, 48, 0
5, 461280, Note_on_c, 3, 50, 79
5, 461760, Note_on_c, 3, 50, 0
5, 461760, Note_on_c, 3, 43, 79
5, 462240, Note_on_c, 3, 43, 0
5, 462240, Note_on_c, 3, 43, 79
5, 462720, Note_on_c, 3, 43, 0
5, 462720, Note_on_c, 3, 60, 79
5, 462780, Note_on_c, 3, 60, 0
5, 462780, Note_on_c, 3, 59, 79
5, 462840, Note_on_c, 3, 59, 0
5, 462840, Note_on_c, 3, 60, 79
5, 462900, Note_on_c, 3, 60, 0
5, 462900, Note_on_c, 3, 59, 79
5, 462960, Note_on_c, 3, 59, 0
5, 462960, Note_on_c, 3, 60, 79
5, 463020, Note_on_c, 3, 60, 0
5, 463020, Note_on_c, 3, 59, 79
5, 463080, Note_on_c, 3, 59, 0
5, 463080, Note_on_c, 3, 59, 79
5, 463120, Note_on_c, 3, 59, 0
5, 463120, Note_on_c, 3, 57, 79
5, 463160, Note_on_c, 3, 57, 0
5, 463160, Note_on_c, 3, 59, 79
5, 463200, Note_on_c, 3, 59, 0
5, 463200, Control_c, 3, 7, 62
5, 463200, Note_on_c, 3, 60, 36
5, 463680, Note_on_c, 3, 60, 0
5, 463680, Note_on_c, 3, 60, 36
5, 464160, Note_on_c, 3, 60, 0
5, 464160, Note_on_c, 3, 60, 36
5, 464640, Note_on_c, 3, 60, 0
5, 464640, Note_on_c, 3, 59, 36
5, 465120, Note_on_c, 3, 59, 0
5, 465120, Note_on_c, 3, 59, 36
5, 465600, Note_on_c, 3, 59, 0
5, 465600, Note_on_c, 3, 59, 36
5, 466080, Note_on_c, 3, 59, 0
5, 466080, Note_on_c, 3, 57, 36
5, 466560, Note_on_c, 3, 57, 0
5, 466560, Note_on_c, 3, 57, 36
5, 467040, Note_on_c, 3, 57, 0
5, 467040, Note_on_c, 3, 57, 36
5, 467520, Note_on_c, 3, 57, 0
5, 467520, Note_on_c, 3, 55, 36
5, 468000, Note_on_c, 3, 55, 0
5, 468000, Note_on_c, 3, 55, 36
5, 468480, Note_on_c, 3, 55, 0
5, 468480, Note_on_c, 3, 55, 36
5, 468960, Note_on_c, 3, 55, 0
5, 468960, Note_on_c, 3, 53, 36
5, 469440, Note_on_c, 3, 53, 0
5, 469440, Note_on_c, 3, 53, 36
5, 469920, Note_on_c, 3, 53, 0
5, 469920, Note_on_c, 3, 53, 36
5, 470400, Note_on_c, 3, 53, 0
5, 470400, Note_on_c, 3, 52, 36
5, 470880, Note_on_c, 3, 52, 0
5, 470880, Note_on_c, 3, 52, 36
5, 471360, Note_on_c, 3, 52, 0
5, 471360, Note_on_c, 3, 52, 36
5, 471840, Note_on_c, 3, 52, 0
5, 471840, Note_on_c, 3, 53, 36
5, 472320, Note_on_c, 3, 53, 0
5, 472320, Note_on_c, 3, 50, 36
5, 472800, Note_on_c, 3, 50, 0
5, 472800, Note_on_c, 3, 55, 36
5, 473280, Note_on_c, 3, 55, 0
5, 473280, Note_on_c, 3, 48, 36
5, 473760, Note_on_c, 3, 48, 0
5, 473760, Note_on_c, 3, 36, 36
5, 474240, Note_on_c, 3, 36, 0
5, 474672, Control_c, 3, 7, 102
5, 474720, Note_on_c, 3, 55, 36
5, 475200, Note_on_c, 3, 55, 0
5, 479040, Note_on_c, 3, 50, 36
5, 479520, Note_on_c, 3, 50, 0
5, 479520, Note_on_c, 3, 50, 36
5, 480000, Note_on_c, 3, 50, 0
5, 480000, Note_on_c, 3, 48, 36
5, 480480, Note_on_c, 3, 48, 0
5, 480480, Note_on_c, 3, 47, 36
5, 480960, Note_on_c, 3, 47, 0
5, 480960, Note_on_c, 3, 45, 36
5, 481440, Note_on_c, 3, 45, 0
5, 481440, Note_on_c, 3, 43, 36
5, 481920, Note_on_c, 3, 43, 0
5, 481920, Note_on_c, 3, 42, 36
5, 482400, Note_on_c, 3, 42, 0
5, 482400, Note_on_c, 3, 54, 36
5, 482880, Note_on_c, 3, 54, 0
5, 482880, Note_on_c, 3, 55, 36
5, 483360, Note_on_c, 3, 55, 0
5, 483360, Note_on_c, 3, 48, 36
5, 483840, Note_on_c, 3, 48, 0
5, 483840, Note_on_c, 3, 50, 36
5, 484320, Note_on_c, 3, 50, 0
5, 484320, Note_on_c, 3, 50, 36
5, 484800, Note_on_c, 3, 50, 0
5, 484800, Note_on_c, 3, 43, 36
5, 485280, Note_on_c, 3, 43, 0
5, 485280, Note_on_c, 3, 47, 36
5, 485760, Note_on_c, 3, 47, 0
5, 485760, Note_on_c, 3, 50, 36
5, 486240, Note_on_c, 3, 50, 0
5, 486240, Note_on_c, 3, 55, 36
5, 486288, Control_c, 3, 7, 114
5, 486336, Control_c, 3, 7, 110
5, 486432, Control_c, 3, 7, 88
5, 486720, Note_on_c, 3, 55, 0
5, 486720, Note_on_c, 3, 54, 36
5, 486720, Control_c, 3, 7, 68
5, 486815, Control_c, 3, 7, 68
5, 486816, Control_c, 3, 7, 64
5, 487200, Note_on_c, 3, 54, 0
5, 487200, Note_on_c, 3, 54, 36
5, 487343, Control_c, 3, 7, 64
5, 487344, Control_c, 3, 7, 56
5, 487679, Control_c, 3, 7, 56
5, 487680, Note_on_c, 3, 54, 0
5, 487680, Note_on_c, 3, 52, 36
5, 487727, Control_c, 3, 7, 60
5, 487776, Control_c, 3, 7, 102
5, 488016, Control_c, 3, 7, 76
5, 488160, Note_on_c, 3, 52, 0
5, 488160, Note_on_c, 3, 50, 36
5, 488208, Control_c, 3, 7, 52
5, 488640, Note_on_c, 3, 50, 0
5, 488640, Note_on_c, 3, 50, 36
5, 489120, Note_on_c, 3, 50, 0
5, 489120, Note_on_c, 3, 43, 36
5, 489167, Control_c, 3, 7, 48
5, 489215, Control_c, 3, 7, 60
5, 489216, Control_c, 3, 7, 100
5, 489552, Control_c, 3, 7, 70
5, 490127, Control_c, 3, 7, 58
5, 490128, Control_c, 3, 7, 46
5, 490415, Control_c, 3, 7, 46
5, 490416, Control_c, 3, 7, 54
5, 490512, Control_c, 3, 7, 60
5, 490560, Note_on_c, 3, 43, 0
5, 490560, Note_on_c, 3, 45, 36
5, 490560, Control_c, 3, 7, 64
5, 491040, Note_on_c, 3, 45, 0
5, 491040, Note_on_c, 3, 57, 36
5, 491087, Control_c, 3, 7, 64
5, 491520, Note_on_c, 3, 57, 0
5, 491520, Note_on_c, 3, 55, 36
5, 492000, Note_on_c, 3, 55, 0
5, 492000, Note_on_c, 3, 54, 36
5, 492480, Note_on_c, 3, 54, 0
5, 492480, Note_on_c, 3, 52, 36
5, 492960, Note_on_c, 3, 52, 0
5, 492960, Note_on_c, 3, 50, 36
5, 493440, Note_on_c, 3, 50, 0
5, 493440, Note_on_c, 3, 59, 36
5, 493920, Note_on_c, 3, 59, 0
5, 493920, Note_on_c, 3, 57, 36
5, 494400, Note_on_c, 3, 57, 0
5, 494400, Note_on_c, 3, 55, 36
5, 494880, Note_on_c, 3, 55, 0
5, 494880, Note_on_c, 3, 54, 36
5, 495360, Note_on_c, 3, 54, 0
5, 495360, Note_on_c, 3, 55, 36
5, 495840, Note_on_c, 3, 55, 0
5, 495840, Note_on_c, 3, 57, 36
5, 496320, Note_on_c, 3, 57, 0
5, 496320, Note_on_c, 3, 50, 36
5, 496800, Note_on_c, 3, 50, 0
5, 503520, Control_c, 3, 7, 102
5, 504527, Control_c, 3, 7, 102
5, 507840, Note_on_c, 3, 50, 79
5, 508320, Note_on_c, 3, 50, 0
5, 508320, Note_on_c, 3, 50, 79
5, 508800, Note_on_c, 3, 50, 0
5, 508800, Note_on_c, 3, 48, 79
5, 509280, Note_on_c, 3, 48, 0
5, 509280, Note_on_c, 3, 47, 79
5, 509760, Note_on_c, 3, 47, 0
5, 509760, Note_on_c, 3, 45, 79
5, 510240, Note_on_c, 3, 45, 0
5, 510240, Note_on_c, 3, 43, 79
5, 510720, Note_on_c, 3, 43, 0
5, 510720, Note_on_c, 3, 42, 79
5, 511200, Note_on_c, 3, 42, 0
5, 511200, Note_on_c, 3, 54, 79
5, 511680, Note_on_c, 3, 54, 0
5, 511680, Note_on_c, 3, 55, 79
5, 512160, Note_on_c, 3, 55, 0
5, 512160, Note_on_c, 3, 48, 79
5, 512640, Note_on_c, 3, 48, 0
5, 512640, Note_on_c, 3, 50, 79
5, 513120, Note_on_c, 3, 50, 0
5, 513120, Note_on_c, 3, 50, 79
5, 513600, Note_on_c, 3, 50, 0
5, 513600, Note_on_c, 3, 43, 79
5, 514080, Note_on_c, 3, 43, 0
5, 516480, Control_c, 3, 7, 62
5, 516480, Note_on_c, 3, 55, 36
5, 516960, Note_on_c, 3, 55, 0
5, 516960, Note_on_c, 3, 55, 36
5, 517440, Note_on_c, 3, 55, 0
5, 517440, Note_on_c, 3, 55, 36
5, 518400, Note_on_c, 3, 55, 0
5, 518400, Note_on_c, 3, 48, 36
5, 518880, Note_on_c, 3, 48, 0
5, 518880, Note_on_c, 3, 48, 36
5, 519360, Note_on_c, 3, 48, 0
5, 519360, Note_on_c, 3, 48, 36
5, 520320, Note_on_c, 3, 48, 0
5, 520320, Note_on_c, 3, 45, 36
5, 520800, Note_on_c, 3, 45, 0
5, 520800, Note_on_c, 3, 45, 36
5, 521280, Note_on_c, 3, 45, 0
5, 521280, Note_on_c, 3, 45, 36
5, 522240, Note_on_c, 3, 45, 0
5, 522240, Note_on_c, 3, 50, 36
5, 522720, Note_on_c, 3, 50, 0
5, 522720, Note_on_c, 3, 50, 36
5, 523200, Note_on_c, 3, 50, 0
5, 523200, Note_on_c, 3, 50, 36
5, 524160, Note_on_c, 3, 50, 0
5, 524160, Note_on_c, 3, 55, 79
5, 524208, Control_c, 3, 7, 104
5, 524640, Note_on_c, 3, 55, 0
5, 524640, Note_on_c, 3, 55, 79
5, 525120, Note_on_c, 3, 55, 0
5, 525120, Note_on_c, 3, 55, 79
5, 526080, Note_on_c, 3, 55, 0
5, 529920, Note_on_c, 3, 50, 79
5, 530880, Note_on_c, 3, 50, 0
5, 530880, Note_on_c, 3, 43, 79
5, 531360, Note_on_c, 3, 43, 0
5, 531840, Note_on_c, 3, 55, 79
5, 531888, Control_c, 3, 7, 66
5, 532320, Note_on_c, 3, 55, 0
5, 532320, Note_on_c, 3, 55, 79
5, 532800, Note_on_c, 3, 55, 0
5, 532800, Note_on_c, 3, 55, 79
5, 533760, Note_on_c, 3, 55, 0
5, 533760, Note_on_c, 3, 48, 79
5, 534240, Note_on_c, 3, 48, 0
5, 534240, Note_on_c, 3, 48, 79
5, 534720, Note_on_c, 3, 48, 0
5, 534720, Note_on_c, 3, 48, 79
5, 535680, Note_on_c, 3, 48, 0
5, 535680, Note_on_c, 3, 45, 79
5, 535728, Control_c, 3, 7, 66
5, 536160, Note_on_c, 3, 45, 0
5, 536160, Note_on_c, 3, 45, 79
5, 536640, Note_on_c, 3, 45, 0
5, 536640, Note_on_c, 3, 45, 79
5, 537600, Note_on_c, 3, 45, 0
5, 537600, Note_on_c, 3, 50, 79
5, 538080, Note_on_c, 3, 50, 0
5, 538080, Note_on_c, 3, 50, 79
5, 538560, Note_on_c, 3, 50, 0
5, 538560, Note_on_c, 3, 50, 79
5, 539520, Note_on_c, 3, 50, 0
5, 539520, Note_on_c, 3, 55, 79
5, 539567, Control_c, 3, 7, 68
5, 539616, Control_c, 3, 7, 104
5, 540000, Note_on_c, 3, 55, 0
5, 540000, Note_on_c, 3, 55, 79
5, 540480, Note_on_c, 3, 55, 0
5, 540480, Note_on_c, 3, 55, 79
5, 541440, Note_on_c, 3, 55, 0
5, 545280, Note_on_c, 3, 50, 79
5, 546240, Note_on_c, 3, 50, 0
5, 546240, Note_on_c, 3, 43, 79
5, 546720, Note_on_c, 3, 43, 0
5, 548160, Note_on_c, 3, 57, 79
5, 549120, Note_on_c, 3, 57, 0
5, 549120, Note_on_c, 3, 45, 79
5, 550080, Note_on_c, 3, 45, 0
5, 550080, Note_on_c, 3, 50, 79
5, 550560, Note_on_c, 3, 50, 0
5, 552000, Note_on_c, 3, 50, 79
5, 552960, Note_on_c, 3, 50, 0
5, 552960, Note_on_c, 3, 43, 79
5, 553920, Note_on_c, 3, 43, 0
5, 553920, Note_on_c, 3, 45, 79
5, 554880, Note_on_c, 3, 45, 0
5, 555840, Note_on_c, 3, 57, 79
5, 556512, Control_c, 3, 7, 104
5, 556800, Note_on_c, 3, 57, 0
5, 556800, Note_on_c, 3, 45, 79
5, 557760, Note_on_c, 3, 45, 0
5, 557760, Note_on_c, 3, 50, 79
5, 558720, Note_on_c, 3, 50, 0
5, 559680, Note_on_c, 3, 62, 79
5, 560640, Note_on_c, 3, 62, 0
5, 560640, Note_on_c, 3, 57, 79
5, 561600, Note_on_c, 3, 57, 0
5, 561600, Note_on_c, 3, 50, 79
5, 562560, Note_on_c, 3, 50, 0
5, 562608, Control_c, 3, 7, 56
5, 563520, Note_on_c, 3, 56, 36
5, 564000, Note_on_c, 3, 56, 0
5, 564480, Note_on_c, 3, 52, 36
5, 564960, Note_on_c, 3, 52, 0
5, 565440, Note_on_c, 3, 57, 36
5, 565920, Note_on_c, 3, 57, 0
5, 566400, Note_on_c, 3, 55, 36
5, 566880, Note_on_c, 3, 55, 0
5, 567360, Note_on_c, 3, 54, 36
5, 567840, Note_on_c, 3, 54, 0
5, 568320, Note_on_c, 3, 50, 36
5, 568800, Note_on_c, 3, 50, 0
5, 569280, Note_on_c, 3, 55, 36
5, 569760, Note_on_c, 3, 55, 0
5, 570287, Control_c, 3, 7, 56
5, 570288, Control_c, 3, 7, 108
5, 571332, Control_c, 3, 7, 107
5, 572376, Control_c, 3, 7, 106
5, 573420, Control_c, 3, 7, 105
5, 574463, Control_c, 3, 7, 104
5, 575040, Note_on_c, 3, 54, 79
5, 576000, Note_on_c, 3, 54, 0
5, 576000, Note_on_c, 3, 55, 79
5, 576960, Note_on_c, 3, 55, 0
5, 576960, Note_on_c, 3, 50, 79
5, 577440, Note_on_c, 3, 50, 0
5, 577920, Note_on_c, 3, 55, 79
5, 577968, Control_c, 3, 7, 58
5, 578400, Note_on_c, 3, 55, 0
5, 578400, Note_on_c, 3, 55, 79
5, 578880, Note_on_c, 3, 55, 0
5, 578880, Note_on_c, 3, 55, 79
5, 579840, Note_on_c, 3, 55, 0
5, 579840, Note_on_c, 3, 48, 79
5, 580320, Note_on_c, 3, 48, 0
5, 580320, Note_on_c, 3, 48, 79
5, 580800, Note_on_c, 3, 48, 0
5, 580800, Note_on_c, 3, 48, 79
5, 581760, Note_on_c, 3, 48, 0
5, 581760, Note_on_c, 3, 45, 79
5, 582240, Note_on_c, 3, 45, 0
5, 582240, Note_on_c, 3, 45, 79
5, 582720, Note_on_c, 3, 45, 0
5, 582720, Note_on_c, 3, 45, 79
5, 583680, Note_on_c, 3, 45, 0
5, 583680, Note_on_c, 3, 50, 79
5, 584160, Note_on_c, 3, 50, 0
5, 584160, Note_on_c, 3, 50, 79
5, 584640, Note_on_c, 3, 50, 0
5, 584640, Note_on_c, 3, 50, 79
5, 585600, Note_on_c, 3, 50, 0
5, 585600, Note_on_c, 3, 55, 79
5, 585648, Control_c, 3, 7, 106
5, 586080, Note_on_c, 3, 55, 0
5, 586080, Note_on_c, 3, 55, 79
5, 586560, Note_on_c, 3, 55, 0
5, 586560, Note_on_c, 3, 55, 79
5, 587520, Note_on_c, 3, 55, 0
5, 591360, Note_on_c, 3, 50, 79
5, 592320, Note_on_c, 3, 50, 0
5, 592320, Note_on_c, 3, 43, 79
5, 592800, Note_on_c, 3, 43, 0
5, 594240, Note_on_c, 3, 57, 79
5, 595200, Note_on_c, 3, 57, 0
5, 595200, Note_on_c, 3, 45, 79
5, 596160, Note_on_c, 3, 45, 0
5, 596160, Note_on_c, 3, 50, 79
5, 596640, Note_on_c, 3, 50, 0
5, 598080, Note_on_c, 3, 50, 79
5, 599040, Note_on_c, 3, 50, 0
5, 599040, Note_on_c, 3, 43, 79
5, 600000, Note_on_c, 3, 43, 0
5, 600000, Note_on_c, 3, 45, 79
5, 600960, Note_on_c, 3, 45, 0
5, 601920, Note_on_c, 3, 57, 79
5, 602880, Note_on_c, 3, 57, 0
5, 602880, Note_on_c, 3, 45, 79
5, 603840, Note_on_c, 3, 45, 0
5, 603840, Note_on_c, 3, 50, 79
5, 604800, Note_on_c, 3, 50, 0
5, 605760, Note_on_c, 3, 62, 79
5, 606720, Note_on_c, 3, 62, 0
5, 606720, Note_on_c, 3, 57, 79
5, 607680, Note_on_c, 3, 57, 0
5, 607680, Note_on_c, 3, 50, 79
5, 608640, Note_on_c, 3, 50, 0
5, 608736, Control_c, 3, 7, 60
5, 609600, Note_on_c, 3, 56, 36
5, 610080, Note_on_c, 3, 56, 0
5, 610560, Note_on_c, 3, 52, 36
5, 611040, Note_on_c, 3, 52, 0
5, 611520, Note_on_c, 3, 57, 36
5, 612000, Note_on_c, 3, 57, 0
5, 612480, Note_on_c, 3, 55, 36
5, 612960, Note_on_c, 3, 55, 0
5, 613440, Note_on_c, 3, 54, 36
5, 613920, Note_on_c, 3, 54, 0
5, 614400, Note_on_c, 3, 50, 36
5, 614880, Note_on_c, 3, 50, 0
5, 615360, Note_on_c, 3, 55, 36
5, 615840, Note_on_c, 3, 55, 0
5, 616367, Control_c, 3, 7, 60
5, 616368, Control_c, 3, 7, 108
5, 621120, Note_on_c, 3, 54, 79
5, 622080, Note_on_c, 3, 54, 0
5, 622080, Note_on_c, 3, 55, 79
5, 623040, Note_on_c, 3, 55, 0
5, 623040, Note_on_c, 3, 50, 79
5, 623520, Note_on_c, 3, 50, 0
5, 624000, Note_on_c, 3, 55, 79
5, 624048, Control_c, 3, 7, 60
5, 624480, Note_on_c, 3, 55, 0
5, 624480, Note_on_c, 3, 55, 79
5, 624960, Note_on_c, 3, 55, 0
5, 624960, Note_on_c, 3, 55, 79
5, 625920, Note_on_c, 3, 55, 0
5, 625920, Note_on_c, 3, 48, 79
5, 626400, Note_on_c, 3, 48, 0
5, 626400, Note_on_c, 3, 48, 79
5, 626880, Note_on_c, 3, 48, 0
5, 626880, Note_on_c, 3, 48, 79
5, 627840, Note_on_c, 3, 48, 0
5, 627840, Note_on_c, 3, 45, 79
5, 628320, Note_on_c, 3, 45, 0
5, 628320, Note_on_c, 3, 45, 79
5, 628800, Note_on_c, 3, 45, 0
5, 628800, Note_on_c, 3, 45, 79
5, 629760, Note_on_c, 3, 45, 0
5, 629760, Note_on_c, 3, 50, 79
5, 630240, Note_on_c, 3, 50, 0
5, 630240, Note_on_c, 3, 50, 79
5, 630720, Note_on_c, 3, 50, 0
5, 630720, Note_on_c, 3, 50, 79
5, 631680, Note_on_c, 3, 50, 0
5, 631680, Note_on_c, 3, 55, 79
5, 631775, Control_c, 3, 7, 60
5, 631776, Control_c, 3, 7, 104
5, 632160, Note_on_c, 3, 55, 0
5, 632160, Note_on_c, 3, 55, 79
5, 632640, Note_on_c, 3, 55, 0
5, 632640, Note_on_c, 3, 55, 79
5, 633600, Note_on_c, 3, 55, 0
5, 637440, Note_on_c, 3, 50, 79
5, 638400, Note_on_c, 3, 50, 0
5, 638400, Note_on_c, 3, 43, 79
5, 638880, Note_on_c, 3, 43, 0
5, 639407, Control_c, 3, 7, 104
5, 639456, Control_c, 3, 7, 54
5, 641280, Note_on_c, 3, 50, 36
5, 642240, Note_on_c, 3, 50, 0
5, 642240, Note_on_c, 3, 43, 36
5, 643200, Note_on_c, 3, 43, 0
5, 645120, Note_on_c, 3, 53, 36
5, 646080, Note_on_c, 3, 53, 0
5, 646080, Note_on_c, 3, 46, 36
5, 647040, Note_on_c, 3, 46, 0
5, 648960, Note_on_c, 3, 57, 36
5, 649920, Note_on_c, 3, 57, 0
5, 649920, Note_on_c, 3, 50, 36
5, 650880, Note_on_c, 3, 50, 0
5, 650880, Note_on_c, 3, 50, 36
5, 651840, Note_on_c, 3, 50, 0
5, 651840, Note_on_c, 3, 43, 36
5, 652800, Note_on_c, 3, 43, 0
5, 652800, Note_on_c, 3, 45, 36
5, 653760, Note_on_c, 3, 45, 0
5, 653760, Note_on_c, 3, 38, 36
5, 654720, Note_on_c, 3, 38, 0
5, 656640, Note_on_c, 3, 50, 36
5, 657600, Note_on_c, 3, 50, 0
5, 657600, Note_on_c, 3, 43, 36
5, 658560, Note_on_c, 3, 43, 0
5, 660480, Note_on_c, 3, 53, 36
5, 661440, Note_on_c, 3, 53, 0
5, 661440, Note_on_c, 3, 46, 36
5, 662400, Note_on_c, 3, 46, 0
5, 664320, Note_on_c, 3, 57, 36
5, 665280, Note_on_c, 3, 57, 0
5, 665280, Note_on_c, 3, 50, 36
5, 666240, Note_on_c, 3, 50, 0
5, 666240, Note_on_c, 3, 50, 36
5, 667200, Note_on_c, 3, 50, 0
5, 667200, Note_on_c, 3, 43, 36
5, 668160, Note_on_c, 3, 43, 0
5, 668160, Note_on_c, 3, 45, 36
5, 669120, Note_on_c, 3, 45, 0
5, 669120, Note_on_c, 3, 38, 36
5, 669296, Control_c, 3, 7, 54
5, 670080, Note_on_c, 3, 38, 0
5, 670080, Note_on_c, 3, 62, 79
5, 670475, Control_c, 3, 7, 54
5, 670560, Note_on_c, 3, 62, 0
5, 670560, Note_on_c, 3, 62, 79
5, 670800, Note_on_c, 3, 62, 0
5, 670800, Note_on_c, 3, 62, 79
5, 670948, Control_c, 3, 7, 100
5, 671040, Note_on_c, 3, 62, 0
5, 671040, Note_on_c, 3, 65, 79
5, 671520, Note_on_c, 3, 65, 0
5, 671520, Note_on_c, 3, 59, 79
5, 672000, Note_on_c, 3, 59, 0
5, 672000, Note_on_c, 3, 59, 79
5, 672480, Note_on_c, 3, 59, 0
5, 672480, Note_on_c, 3, 59, 79
5, 672720, Note_on_c, 3, 59, 0
5, 672720, Note_on_c, 3, 59, 79
5, 672960, Note_on_c, 3, 59, 0
5, 672960, Note_on_c, 3, 62, 79
5, 673249, Control_c, 3, 7, 100
5, 673440, Note_on_c, 3, 62, 0
5, 673440, Note_on_c, 3, 60, 79
5, 673920, Note_on_c, 3, 60, 0
5, 673920, Note_on_c, 3, 60, 79
5, 674400, Note_on_c, 3, 60, 0
5, 674400, Note_on_c, 3, 60, 79
5, 674640, Note_on_c, 3, 60, 0
5, 674640, Note_on_c, 3, 60, 79
5, 674880, Note_on_c, 3, 60, 0
5, 674880, Note_on_c, 3, 63, 79
5, 675360, Note_on_c, 3, 63, 0
5, 675360, Note_on_c, 3, 57, 79
5, 675549, Control_c, 3, 7, 102
5, 675840, Note_on_c, 3, 57, 0
5, 675840, Note_on_c, 3, 57, 79
5, 676320, Note_on_c, 3, 57, 0
5, 676320, Note_on_c, 3, 57, 79
5, 676560, Note_on_c, 3, 57, 0
5, 676560, Note_on_c, 3, 57, 79
5, 676800, Note_on_c, 3, 57, 0
5, 676800, Note_on_c, 3, 60, 79
5, 677280, Note_on_c, 3, 60, 0
5, 677280, Note_on_c, 3, 58, 79
5, 677674, Control_c, 3, 7, 58
5, 677760, Note_on_c, 3, 58, 0
5, 677760, Note_on_c, 3, 51, 36
5, 678145, Control_c, 3, 7, 58
5, 678720, Note_on_c, 3, 51, 0
5, 678720, Note_on_c, 3, 48, 36
5, 679680, Note_on_c, 3, 48, 0
5, 679680, Note_on_c, 3, 50, 36
5, 680640, Note_on_c, 3, 50, 0
5, 680640, Note_on_c, 3, 43, 36
5, 681600, Note_on_c, 3, 43, 0
5, 681600, Note_on_c, 3, 55, 36
5, 682560, Note_on_c, 3, 55, 0
5, 682560, Note_on_c, 3, 51, 36
5, 683520, Note_on_c, 3, 51, 0
5, 683520, Note_on_c, 3, 53, 36
5, 684480, Note_on_c, 3, 53, 0
5, 684480, Note_on_c, 3, 46, 36
5, 685440, Note_on_c, 3, 46, 0
5, 689279, Control_c, 3, 7, 58
5, 689280, Note_on_c, 3, 54, 79
5, 689376, Control_c, 3, 7, 98
5, 689760, Note_on_c, 3, 54, 0
5, 689760, Note_on_c, 3, 54, 79
5, 690000, Note_on_c, 3, 54, 0
5, 690000, Note_on_c, 3, 54, 79
5, 690240, Note_on_c, 3, 54, 0
5, 690240, Note_on_c, 3, 55, 79
5, 691200, Note_on_c, 3, 55, 0
5, 691200, Note_on_c, 3, 51, 79
5, 691631, Control_c, 3, 7, 98
5, 692160, Note_on_c, 3, 51, 0
5, 692160, Note_on_c, 3, 50, 79
5, 693120, Note_on_c, 3, 50, 0
5, 693120, Note_on_c, 3, 38, 79
5, 694080, Note_on_c, 3, 38, 0
5, 694080, Note_on_c, 3, 43, 79
5, 696000, Note_on_c, 3, 43, 0
5, 696000, Note_on_c, 3, 38, 79
5, 696864, Control_c, 3, 7, 56
5, 696960, Note_on_c, 3, 38, 0
5, 696960, Note_on_c, 3, 55, 79
5, 696960, Control_c, 3, 7, 56
5, 697440, Note_on_c, 3, 55, 0
5, 697440, Note_on_c, 3, 55, 79
5, 697920, Note_on_c, 3, 55, 0
5, 697920, Note_on_c, 3, 55, 79
5, 698880, Note_on_c, 3, 55, 0
5, 698880, Note_on_c, 3, 48, 79
5, 698923, Control_c, 3, 7, 56
5, 699360, Note_on_c, 3, 48, 0
5, 699360, Note_on_c, 3, 48, 79
5, 699840, Note_on_c, 3, 48, 0
5, 699840, Note_on_c, 3, 48, 79
5, 700800, Note_on_c, 3, 48, 0
5, 700800, Note_on_c, 3, 45, 79
5, 700887, Control_c, 3, 7, 57
5, 701280, Note_on_c, 3, 45, 0
5, 701280, Note_on_c, 3, 45, 79
5, 701760, Note_on_c, 3, 45, 0
5, 701760, Note_on_c, 3, 45, 79
5, 702720, Note_on_c, 3, 45, 0
5, 702720, Note_on_c, 3, 50, 79
5, 702850, Control_c, 3, 7, 58
5, 703200, Note_on_c, 3, 50, 0
5, 703200, Note_on_c, 3, 50, 79
5, 703680, Note_on_c, 3, 50, 0
5, 703680, Note_on_c, 3, 50, 79
5, 704640, Note_on_c, 3, 50, 0
5, 704640, Note_on_c, 3, 55, 79
5, 704813, Control_c, 3, 7, 60
5, 704932, Control_c, 3, 7, 104
5, 705120, Note_on_c, 3, 55, 0
5, 705120, Note_on_c, 3, 55, 79
5, 705600, Note_on_c, 3, 55, 0
5, 705600, Note_on_c, 3, 55, 79
5, 706560, Note_on_c, 3, 55, 0
5, 706829, Control_c, 3, 7, 103
5, 708727, Control_c, 3, 7, 102
5, 710400, Note_on_c, 3, 50, 79
5, 710625, Control_c, 3, 7, 101
5, 711360, Note_on_c, 3, 50, 0
5, 711360, Note_on_c, 3, 43, 79
5, 711840, Note_on_c, 3, 43, 0
5, 712523, Control_c, 3, 7, 100
5, 713280, Note_on_c, 3, 57, 79
5, 714240, Note_on_c, 3, 57, 0
5, 714240, Note_on_c, 3, 45, 79
5, 714421, Control_c, 3, 7, 99
5, 715200, Note_on_c, 3, 45, 0
5, 715200, Note_on_c, 3, 50, 79
5, 715680, Note_on_c, 3, 50, 0
5, 716319, Control_c, 3, 7, 98
5, 717120, Note_on_c, 3, 50, 79
5, 718080, Note_on_c, 3, 50, 0
5, 718080, Note_on_c, 3, 43, 79
5, 718216, Control_c, 3, 7, 97
5, 719040, Note_on_c, 3, 43, 0
5, 719040, Note_on_c, 3, 45, 79
5, 720000, Note_on_c, 3, 45, 0
5, 720114, Control_c, 3, 7, 96
5, 720960, Note_on_c, 3, 57, 79
5, 721920, Note_on_c, 3, 57, 0
5, 721920, Note_on_c, 3, 45, 79
5, 722012, Control_c, 3, 7, 95
5, 722880, Note_on_c, 3, 45, 0
5, 722880, Note_on_c, 3, 50, 79
5, 723840, Note_on_c, 3, 50, 0
5, 723910, Control_c, 3, 7, 94
5, 724800, Note_on_c, 3, 62, 79
5, 725760, Note_on_c, 3, 62, 0
5, 725760, Note_on_c, 3, 57, 79
5, 725808, Control_c, 3, 7, 93
5, 726720, Note_on_c, 3, 57, 0
5, 726720, Note_on_c, 3, 50, 79
5, 727680, Note_on_c, 3, 50, 0
5, 727705, Control_c, 3, 7, 92
5, 728640, Note_on_c, 3, 56, 36
5, 729120, Note_on_c, 3, 56, 0
5, 729600, Note_on_c, 3, 52, 36
5, 730080, Note_on_c, 3, 52, 0
5, 730560, Note_on_c, 3, 57, 36
5, 731040, Note_on_c, 3, 57, 0
5, 731520, Note_on_c, 3, 55, 36
5, 732000, Note_on_c, 3, 55, 0
5, 732480, Note_on_c, 3, 54, 36
5, 732960, Note_on_c, 3, 54, 0
5, 733440, Note_on_c, 3, 50, 36
5, 733920, Note_on_c, 3, 50, 0
5, 734400, Note_on_c, 3, 55, 36
5, 734880, Note_on_c, 3, 55, 0
5, 735408, Control_c, 3, 7, 102
5, 740160, Note_on_c, 3, 54, 79
5, 741120, Note_on_c, 3, 54, 0
5, 741120, Note_on_c, 3, 55, 79
5, 742080, Note_on_c, 3, 55, 0
5, 742080, Control_c, 3, 7, 50
5, 742080, Note_on_c, 3, 50, 79
5, 742102, Control_c, 3, 7, 48
5, 742560, Note_on_c, 3, 50, 0
5, 743040, Note_on_c, 3, 55, 79
5, 743281, Control_c, 3, 7, 48
5, 743520, Note_on_c, 3, 55, 0
5, 743520, Note_on_c, 3, 55, 79
5, 744000, Note_on_c, 3, 55, 0
5, 744000, Note_on_c, 3, 55, 79
5, 744960, Note_on_c, 3, 55, 0
5, 744960, Note_on_c, 3, 48, 79
5, 745440, Note_on_c, 3, 48, 0
5, 745440, Note_on_c, 3, 48, 79
5, 745920, Note_on_c, 3, 48, 0
5, 745920, Note_on_c, 3, 48, 79
5, 746880, Note_on_c, 3, 48, 0
5, 746880, Note_on_c, 3, 45, 79
5, 747360, Note_on_c, 3, 45, 0
5, 747360, Note_on_c, 3, 45, 79
5, 747840, Note_on_c, 3, 45, 0
5, 747840, Note_on_c, 3, 45, 79
5, 748800, Note_on_c, 3, 45, 0
5, 748800, Note_on_c, 3, 50, 79
5, 749280, Note_on_c, 3, 50, 0
5, 749280, Note_on_c, 3, 50, 79
5, 749760, Note_on_c, 3, 50, 0
5, 749760, Note_on_c, 3, 50, 79
5, 750720, Note_on_c, 3, 50, 0
5, 750720, Note_on_c, 3, 55, 79
5, 751200, Note_on_c, 3, 55, 0
5, 751200, Note_on_c, 3, 55, 79
5, 751680, Note_on_c, 3, 55, 0
5, 751680, Note_on_c, 3, 55, 79
5, 752640, Note_on_c, 3, 55, 0
5, 756480, Note_on_c, 3, 50, 79
5, 757440, Note_on_c, 3, 50, 0
5, 757440, Note_on_c, 3, 43, 79
5, 757920, Note_on_c, 3, 43, 0
5, 759023, Control_c, 3, 7, 46
5, 759360, Note_on_c, 3, 55, 79
5, 759840, Note_on_c, 3, 55, 0
5, 759840, Note_on_c, 3, 55, 79
5, 760320, Note_on_c, 3, 55, 0
5, 760320, Note_on_c, 3, 55, 79
5, 761280, Note_on_c, 3, 55, 0
5, 761280, Note_on_c, 3, 48, 79
5, 761760, Note_on_c, 3, 48, 0
5, 761760, Note_on_c, 3, 48, 79
5, 762240, Note_on_c, 3, 48, 0
5, 762240, Note_on_c, 3, 48, 79
5, 763200, Note_on_c, 3, 48, 0
5, 763200, Note_on_c, 3, 45, 79
5, 763680, Note_on_c, 3, 45, 0
5, 763680, Note_on_c, 3, 45, 79
5, 764160, Note_on_c, 3, 45, 0
5, 764160, Note_on_c, 3, 45, 79
5, 765120, Note_on_c, 3, 45, 0
5, 765120, Note_on_c, 3, 50, 79
5, 765600, Note_on_c, 3, 50, 0
5, 765600, Note_on_c, 3, 50, 79
5, 766080, Note_on_c, 3, 50, 0
5, 766080, Note_on_c, 3, 50, 79
5, 767040, Note_on_c, 3, 50, 0
5, 767040, Note_on_c, 3, 55, 79
5, 767520, Note_on_c, 3, 55, 0
5, 767520, Note_on_c, 3, 55, 79
5, 768000, Note_on_c, 3, 55, 0
5, 768000, Note_on_c, 3, 55, 79
5, 768096, Control_c, 3, 7, 96
5, 768960, Note_on_c, 3, 55, 0
5, 770216, Control_c, 3, 7, 96
5, 772336, Control_c, 3, 7, 97
5, 772800, Note_on_c, 3, 60, 79
5, 773040, Note_on_c, 3, 60, 0
5, 773040, Note_on_c, 3, 59, 79
5, 773280, Note_on_c, 3, 59, 0
5, 773280, Note_on_c, 3, 60, 79
5, 773520, Note_on_c, 3, 60, 0
5, 773520, Note_on_c, 3, 57, 79
5, 773760, Note_on_c, 3, 57, 0
5, 773760, Note_on_c, 3, 59, 79
5, 774000, Note_on_c, 3, 59, 0
5, 774000, Note_on_c, 3, 57, 79
5, 774240, Note_on_c, 3, 57, 0
5, 774240, Note_on_c, 3, 59, 79
5, 774456, Control_c, 3, 7, 98
5, 774480, Note_on_c, 3, 59, 0
5, 774480, Note_on_c, 3, 54, 79
5, 774720, Note_on_c, 3, 54, 0
5, 774720, Note_on_c, 3, 55, 79
5, 774960, Note_on_c, 3, 55, 0
5, 774960, Note_on_c, 3, 54, 79
5, 775200, Note_on_c, 3, 54, 0
5, 775200, Note_on_c, 3, 55, 79
5, 775440, Note_on_c, 3, 55, 0
5, 775440, Note_on_c, 3, 57, 79
5, 775680, Note_on_c, 3, 57, 0
5, 775680, Note_on_c, 3, 59, 79
5, 776160, Note_on_c, 3, 59, 0
5, 776576, Control_c, 3, 7, 99
5, 776640, Note_on_c, 3, 60, 79
5, 776880, Note_on_c, 3, 60, 0
5, 776880, Note_on_c, 3, 59, 79
5, 777120, Note_on_c, 3, 59, 0
5, 777120, Note_on_c, 3, 60, 79
5, 777360, Note_on_c, 3, 60, 0
5, 777360, Note_on_c, 3, 57, 79
5, 777600, Note_on_c, 3, 57, 0
5, 777600, Note_on_c, 3, 59, 79
5, 777840, Note_on_c, 3, 59, 0
5, 777840, Note_on_c, 3, 57, 79
5, 778080, Note_on_c, 3, 57, 0
5, 778080, Note_on_c, 3, 59, 79
5, 778320, Note_on_c, 3, 59, 0
5, 778320, Note_on_c, 3, 54, 79
5, 778560, Note_on_c, 3, 54, 0
5, 778560, Note_on_c, 3, 55, 79
5, 778696, Control_c, 3, 7, 100
5, 778800, Note_on_c, 3, 55, 0
5, 778800, Note_on_c, 3, 54, 79
5, 779040, Note_on_c, 3, 54, 0
5, 779040, Note_on_c, 3, 55, 79
5, 779280, Note_on_c, 3, 55, 0
5, 779280, Note_on_c, 3, 57, 79
5, 779520, Note_on_c, 3, 57, 0
5, 779520, Note_on_c, 3, 59, 79
5, 780000, Note_on_c, 3, 59, 0
5, 780815, Control_c, 3, 7, 102
5, 781392, Control_c, 3, 7, 48
5, 781440, Note_on_c, 3, 50, 36
5, 783360, Note_on_c, 3, 50, 0
5, 783360, Note_on_c, 3, 43, 36
5, 783840, Note_on_c, 3, 43, 0
5, 784751, Control_c, 3, 7, 48
5, 784751, End_track
0, 0, End_of_file
