0, 0, Header, 1, 14, 960
1, 0, Start_track
1, 0, Tempo, 500000
1, 0, Title_t, "Mozart K.477"
1, 960, Control_c, 0, 64, 0
1, 960, Control_c, 0, 7, 127
1, 960, Control_c, 0, 10, 64
1, 1460, Program_c, 0, 68
1, 3820, Control_c, 0, 0, 0
1, 3830, Control_c, 0, 32, 0
1, 3840, Program_c, 0, 68
1, 3840, Time_signature, 2, 1, 48, 8
1, 3840, Tempo, 300000
1, 7680, Control_c, 0, 1, 15
1, 7680, Control_c, 0, 7, 65
1, 7680, Control_c, 0, 91, 127
1, 7680, Control_c, 0, 93, 9
1, 7680, Control_c, 0, 10, 54
1, 11520, Tempo, 1000000
1, 11520, Control_c, 0, 11, 95
1, 11520, Note_on_c, 0, 75, 89
1, 15240, Note_off_c, 0, 75, 89
1, 15360, Control_c, 0, 11, 86
1, 15360, Note_on_c, 0, 74, 80
1, 16550, Note_off_c, 0, 74, 80
1, 26880, Control_c, 0, 11, 95
1, 26880, Note_on_c, 0, 79, 89
1, 30600, Note_off_c, 0, 79, 89
1, 30720, Control_c, 0, 11, 86
1, 30720, Note_on_c, 0, 77, 80
1, 31910, Note_off_c, 0, 77, 80
1, 34560, Control_c, 0, 11, 95
1, 34560, Note_on_c, 0, 75, 89
1, 38280, Note_off_c, 0, 75, 89
1, 38400, Control_c, 0, 11, 91
1, 38400, Note_on_c, 0, 74, 87
1, 39590, Note_off_c, 0, 74, 87
1, 42240, Control_c, 0, 11, 99
1, 42240, Note_on_c, 0, 75, 93
1, 45960, Note_off_c, 0, 75, 93
1, 46080, Note_on_c, 0, 74, 93
1, 47270, Note_off_c, 0, 74, 93
1, 54720, Note_on_c, 0, 67, 93
1, 56580, Note_off_c, 0, 67, 93
1, 56640, Note_on_c, 0, 67, 93
1, 58530, Note_off_c, 0, 67, 93
1, 58560, Note_on_c, 0, 75, 93
1, 60420, Note_off_c, 0, 75, 93
1, 60480, Note_on_c, 0, 74, 93
1, 60940, Note_off_c, 0, 74, 93
1, 60960, Note_on_c, 0, 72, 93
1, 61420, Note_off_c, 0, 72, 93
1, 61440, Note_on_c, 0, 71, 93
1, 64780, Note_off_c, 0, 71, 93
1, 64800, Note_on_c, 0, 74, 93
1, 65260, Note_off_c, 0, 74, 93
1, 65280, Note_on_c, 0, 72, 93
1, 66210, Note_off_c, 0, 72, 93
1, 66240, Note_on_c, 0, 75, 93
1, 68100, Note_off_c, 0, 75, 93
1, 68160, Note_on_c, 0, 74, 93
1, 68620, Note_off_c, 0, 74, 93
1, 68640, Note_on_c, 0, 72, 93
1, 69100, Note_off_c, 0, 72, 93
1, 69120, Note_on_c, 0, 71, 93
1, 72460, Note_off_c, 0, 71, 93
1, 72480, Note_on_c, 0, 77, 93
1, 72940, Note_off_c, 0, 77, 93
1, 72960, Note_on_c, 0, 75, 93
1, 73890, Note_off_c, 0, 75, 93
1, 73920, Note_on_c, 0, 75, 93
1, 75780, Note_off_c, 0, 75, 93
1, 75840, Note_on_c, 0, 74, 93
1, 76300, Note_off_c, 0, 74, 93
1, 76320, Note_on_c, 0, 72, 93
1, 76780, Note_off_c, 0, 72, 93
1, 76800, Note_on_c, 0, 70, 93
1, 80520, Note_off_c, 0, 70, 93
1, 80640, Note_on_c, 0, 79, 93
1, 84360, Note_off_c, 0, 79, 93
1, 84480, Note_on_c, 0, 80, 93
1, 88200, Note_off_c, 0, 80, 93
1, 88320, Note_on_c, 0, 78, 93
1, 92040, Note_off_c, 0, 78, 93
1, 92160, Note_on_c, 0, 77, 93
1, 93350, Note_off_c, 0, 77, 93
1, 103680, Note_on_c, 0, 63, 93
1, 105540, Note_off_c, 0, 63, 93
1, 105600, Note_on_c, 0, 65, 93
1, 107460, Note_off_c, 0, 65, 93
1, 107520, Note_on_c, 0, 67, 93
1, 109380, Note_off_c, 0, 67, 93
1, 109440, Note_on_c, 0, 67, 93
1, 110370, Note_off_c, 0, 67, 93
1, 110400, Note_on_c, 0, 67, 93
1, 111330, Note_off_c, 0, 67, 93
1, 111360, Note_on_c, 0, 67, 93
1, 114150, Note_off_c, 0, 67, 93
1, 114240, Note_on_c, 0, 67, 93
1, 115170, Note_off_c, 0, 67, 93
1, 115200, Note_on_c, 0, 68, 93
1, 116130, Note_off_c, 0, 68, 93
1, 116160, Note_on_c, 0, 67, 93
1, 117090, Note_off_c, 0, 67, 93
1, 117120, Note_on_c, 0, 65, 93
1, 118980, Note_off_c, 0, 65, 93
1, 119040, Note_on_c, 0, 67, 93
1, 120230, Note_off_c, 0, 67, 93
1, 122880, Note_on_c, 0, 67, 93
1, 124740, Note_off_c, 0, 67, 93
1, 124800, Note_on_c, 0, 67, 93
1, 125730, Note_off_c, 0, 67, 93
1, 125760, Note_on_c, 0, 67, 93
1, 126690, Note_off_c, 0, 67, 93
1, 126720, Note_on_c, 0, 67, 93
1, 129510, Note_off_c, 0, 67, 93
1, 129600, Note_on_c, 0, 67, 93
1, 130530, Note_off_c, 0, 67, 93
1, 130560, Note_on_c, 0, 65, 93
1, 131490, Note_off_c, 0, 65, 93
1, 131520, Note_on_c, 0, 63, 93
1, 132450, Note_off_c, 0, 63, 93
1, 132480, Note_on_c, 0, 65, 93
1, 134340, Note_off_c, 0, 65, 93
1, 134400, Note_on_c, 0, 67, 93
1, 135590, Note_off_c, 0, 67, 93
1, 142080, Note_on_c, 0, 63, 93
1, 143940, Note_off_c, 0, 63, 93
1, 144000, Note_on_c, 0, 63, 93
1, 144930, Note_off_c, 0, 63, 93
1, 144960, Note_on_c, 0, 63, 93
1, 145890, Note_off_c, 0, 63, 93
1, 145920, Note_on_c, 0, 63, 93
1, 148710, Note_off_c, 0, 63, 93
1, 148800, Note_on_c, 0, 63, 93
1, 149730, Note_off_c, 0, 63, 93
1, 149760, Note_on_c, 0, 67, 93
1, 153480, Note_off_c, 0, 67, 93
1, 153600, Note_on_c, 0, 63, 93
1, 155750, Note_off_c, 0, 63, 93
1, 157440, Note_on_c, 0, 65, 93
1, 161160, Note_off_c, 0, 65, 93
1, 161280, Note_on_c, 0, 67, 93
1, 163140, Note_off_c, 0, 67, 93
1, 163200, Note_on_c, 0, 67, 93
1, 164130, Note_off_c, 0, 67, 93
1, 164160, Note_on_c, 0, 67, 93
1, 165090, Note_off_c, 0, 67, 93
1, 165120, Note_on_c, 0, 67, 93
1, 166980, Note_off_c, 0, 67, 93
1, 167040, Note_on_c, 0, 70, 93
1, 168900, Note_off_c, 0, 70, 93
1, 168960, Note_on_c, 0, 70, 93
1, 170820, Note_off_c, 0, 70, 93
1, 170880, Note_on_c, 0, 72, 93
1, 172740, Note_off_c, 0, 72, 93
1, 172800, Note_on_c, 0, 70, 93
1, 175590, Note_off_c, 0, 70, 93
1, 175680, Note_on_c, 0, 68, 93
1, 176610, Note_off_c, 0, 68, 93
1, 176640, Note_on_c, 0, 67, 93
1, 177830, Note_off_c, 0, 67, 93
1, 181440, Note_on_c, 0, 73, 93
1, 183300, Note_off_c, 0, 73, 93
1, 183360, Note_on_c, 0, 72, 93
1, 183820, Note_off_c, 0, 72, 93
1, 183840, Note_on_c, 0, 70, 93
1, 184300, Note_off_c, 0, 70, 93
1, 184320, Note_on_c, 0, 68, 93
1, 185510, Note_off_c, 0, 68, 93
1, 189120, Note_on_c, 0, 75, 93
1, 190980, Note_off_c, 0, 75, 93
1, 191040, Note_on_c, 0, 74, 93
1, 191500, Note_off_c, 0, 74, 93
1, 191520, Note_on_c, 0, 72, 93
1, 191980, Note_off_c, 0, 72, 93
1, 192000, Note_on_c, 0, 71, 93
1, 192930, Note_off_c, 0, 71, 93
1, 192960, Note_on_c, 0, 74, 93
1, 193890, Note_off_c, 0, 74, 93
1, 193920, Note_on_c, 0, 75, 93
1, 195780, Note_off_c, 0, 75, 93
1, 195840, Note_on_c, 0, 74, 93
1, 197700, Note_off_c, 0, 74, 93
1, 197760, Note_on_c, 0, 75, 93
1, 199620, Note_off_c, 0, 75, 93
1, 199680, Note_on_c, 0, 74, 93
1, 200870, Note_off_c, 0, 74, 93
1, 203520, Note_on_c, 0, 75, 93
1, 207240, Note_off_c, 0, 75, 93
1, 207360, Note_on_c, 0, 74, 93
1, 208290, Note_off_c, 0, 74, 93
1, 208320, Note_on_c, 0, 71, 93
1, 209710, Note_off_c, 0, 71, 93
1, 209760, Note_on_c, 0, 72, 93
1, 210220, Note_off_c, 0, 72, 93
1, 210240, Note_on_c, 0, 74, 93
1, 210700, Note_off_c, 0, 74, 93
1, 210720, Note_on_c, 0, 75, 93
1, 211180, Note_off_c, 0, 75, 93
1, 211200, Note_on_c, 0, 77, 93
1, 214920, Note_off_c, 0, 77, 93
1, 215040, Note_on_c, 0, 75, 93
1, 215970, Note_off_c, 0, 75, 93
1, 216000, Note_on_c, 0, 84, 93
1, 217860, Note_off_c, 0, 84, 93
1, 217920, Note_on_c, 0, 84, 93
1, 218850, Note_off_c, 0, 84, 93
1, 218880, Note_on_c, 0, 84, 93
1, 219810, Note_off_c, 0, 84, 93
1, 219840, Note_on_c, 0, 75, 93
1, 221700, Note_off_c, 0, 75, 93
1, 221760, Note_on_c, 0, 74, 93
1, 222220, Note_off_c, 0, 74, 93
1, 222240, Note_on_c, 0, 72, 93
1, 222700, Note_off_c, 0, 72, 93
1, 222720, Note_on_c, 0, 71, 93
1, 226060, Note_off_c, 0, 71, 93
1, 226080, Note_on_c, 0, 74, 93
1, 226540, Note_off_c, 0, 74, 93
1, 226560, Note_on_c, 0, 72, 93
1, 227490, Note_off_c, 0, 72, 93
1, 227520, Note_on_c, 0, 75, 93
1, 229380, Note_off_c, 0, 75, 93
1, 229440, Note_on_c, 0, 74, 93
1, 229900, Note_off_c, 0, 74, 93
1, 229920, Note_on_c, 0, 72, 93
1, 230380, Note_off_c, 0, 72, 93
1, 230400, Note_on_c, 0, 71, 93
1, 233740, Note_off_c, 0, 71, 93
1, 233760, Note_on_c, 0, 77, 93
1, 234220, Note_off_c, 0, 77, 93
1, 234240, Note_on_c, 0, 75, 93
1, 235430, Note_off_c, 0, 75, 93
1, 236160, Note_on_c, 0, 82, 93
1, 238020, Note_off_c, 0, 82, 93
1, 238080, Note_on_c, 0, 80, 93
1, 241800, Note_off_c, 0, 80, 93
1, 241920, Note_on_c, 0, 81, 93
1, 245640, Note_off_c, 0, 81, 93
1, 245760, Note_on_c, 0, 75, 93
1, 247620, Note_off_c, 0, 75, 93
1, 247680, Note_on_c, 0, 74, 93
1, 249540, Note_off_c, 0, 74, 93
1, 249600, Note_on_c, 0, 72, 93
1, 251460, Note_off_c, 0, 72, 93
1, 251520, Note_on_c, 0, 67, 93
1, 253380, Note_off_c, 0, 67, 93
1, 253440, Note_on_c, 0, 68, 93
1, 254370, Note_off_c, 0, 68, 93
1, 254400, Note_on_c, 0, 69, 93
1, 255330, Note_off_c, 0, 69, 93
1, 255360, Note_on_c, 0, 70, 93
1, 256290, Note_off_c, 0, 70, 93
1, 256320, Note_on_c, 0, 71, 93
1, 257250, Note_off_c, 0, 71, 93
1, 257280, Note_on_c, 0, 72, 93
1, 259140, Note_off_c, 0, 72, 93
1, 259200, Note_on_c, 0, 79, 93
1, 261060, Note_off_c, 0, 79, 93
1, 261120, Note_on_c, 0, 80, 93
1, 262050, Note_off_c, 0, 80, 93
1, 262080, Note_on_c, 0, 81, 93
1, 263010, Note_off_c, 0, 81, 93
1, 263040, Note_on_c, 0, 82, 93
1, 263970, Note_off_c, 0, 82, 93
1, 264000, Note_on_c, 0, 83, 93
1, 264930, Note_off_c, 0, 83, 93
1, 264960, Tempo, 1090909
1, 264960, Note_on_c, 0, 84, 93
1, 266150, Note_off_c, 0, 84, 93
1, 266880, Tempo, 1200000
1, 266880, Note_on_c, 0, 80, 93
1, 268070, Note_off_c, 0, 80, 93
1, 268800, Tempo, 1395348
1, 268800, Note_on_c, 0, 79, 93
1, 269990, Note_off_c, 0, 79, 93
1, 270720, Control_c, 0, 11, 95
1, 270720, Tempo, 1714285
1, 270720, Note_on_c, 0, 79, 89
1, 271910, Note_off_c, 0, 79, 89
1, 272640, Tempo, 2000000
1, 272640, Control_c, 0, 11, 91
1, 272640, Note_on_c, 0, 75, 87
1, 276360, Note_off_c, 0, 75, 87
1, 276480, Control_c, 0, 11, 99
1, 276480, Control_c, 0, 11, 119
1, 276480, Control_c, 0, 11, 86
1, 276480, End_track
2, 0, Start_track
2, 960, Control_c, 1, 64, 0
2, 960, Control_c, 1, 7, 127
2, 960, Control_c, 1, 10, 64
2, 1460, Program_c, 1, 68
2, 3820, Control_c, 1, 0, 0
2, 3830, Control_c, 1, 32, 0
2, 3840, Program_c, 1, 68
2, 7680, Control_c, 1, 1, 10
2, 7680, Control_c, 1, 7, 65
2, 7680, Control_c, 1, 91, 127
2, 7680, Control_c, 1, 93, 9
2, 7680, Control_c, 1, 10, 55
2, 11520, Control_c, 1, 11, 95
2, 11520, Note_on_c, 1, 72, 89
2, 15240, Note_off_c, 1, 72, 89
2, 15360, Control_c, 1, 11, 86
2, 15360, Note_on_c, 1, 71, 80
2, 16550, Note_off_c, 1, 71, 80
2, 26880, Control_c, 1, 11, 95
2, 26880, Note_on_c, 1, 75, 89
2, 30600, Note_off_c, 1, 75, 89
2, 30720, Control_c, 1, 11, 86
2, 30720, Note_on_c, 1, 74, 80
2, 31910, Note_off_c, 1, 74, 80
2, 34560, Control_c, 1, 11, 95
2, 34560, Note_on_c, 1, 72, 89
2, 38280, Note_off_c, 1, 72, 89
2, 38400, Control_c, 1, 11, 91
2, 38400, Note_on_c, 1, 71, 87
2, 39590, Note_off_c, 1, 71, 87
2, 42240, Control_c, 1, 11, 99
2, 42240, Note_on_c, 1, 72, 93
2, 45960, Note_off_c, 1, 72, 93
2, 46080, Note_on_c, 1, 71, 93
2, 47270, Note_off_c, 1, 71, 93
2, 54720, Note_on_c, 1, 60, 93
2, 56580, Note_off_c, 1, 60, 93
2, 56640, Note_on_c, 1, 60, 93
2, 58530, Note_off_c, 1, 60, 93
2, 58560, Note_on_c, 1, 67, 93
2, 60420, Note_off_c, 1, 67, 93
2, 60480, Note_on_c, 1, 65, 93
2, 60940, Note_off_c, 1, 65, 93
2, 60960, Note_on_c, 1, 63, 93
2, 61420, Note_off_c, 1, 63, 93
2, 61440, Note_on_c, 1, 62, 93
2, 64780, Note_off_c, 1, 62, 93
2, 64800, Note_on_c, 1, 65, 93
2, 65260, Note_off_c, 1, 65, 93
2, 65280, Note_on_c, 1, 63, 93
2, 66210, Note_off_c, 1, 63, 93
2, 66240, Note_on_c, 1, 67, 93
2, 68100, Note_off_c, 1, 67, 93
2, 68160, Note_on_c, 1, 65, 93
2, 68620, Note_off_c, 1, 65, 93
2, 68640, Note_on_c, 1, 63, 93
2, 69100, Note_off_c, 1, 63, 93
2, 69120, Note_on_c, 1, 62, 93
2, 72460, Note_off_c, 1, 62, 93
2, 72480, Note_on_c, 1, 74, 93
2, 72940, Note_off_c, 1, 74, 93
2, 72960, Note_on_c, 1, 72, 93
2, 73890, Note_off_c, 1, 72, 93
2, 73920, Note_on_c, 1, 67, 93
2, 75780, Note_off_c, 1, 67, 93
2, 75840, Note_on_c, 1, 65, 93
2, 76300, Note_off_c, 1, 65, 93
2, 76320, Note_on_c, 1, 63, 93
2, 76780, Note_off_c, 1, 63, 93
2, 76800, Note_on_c, 1, 62, 93
2, 79590, Note_off_c, 1, 62, 93
2, 79680, Note_on_c, 1, 63, 93
2, 80140, Note_off_c, 1, 63, 93
2, 80160, Note_on_c, 1, 62, 93
2, 80620, Note_off_c, 1, 62, 93
2, 80640, Note_on_c, 1, 63, 93
2, 81570, Note_off_c, 1, 63, 93
2, 81600, Note_on_c, 1, 75, 93
2, 84390, Note_off_c, 1, 75, 93
2, 84480, Note_on_c, 1, 77, 93
2, 88200, Note_off_c, 1, 77, 93
2, 88320, Note_on_c, 1, 75, 93
2, 92040, Note_off_c, 1, 75, 93
2, 92160, Note_on_c, 1, 74, 93
2, 93350, Note_off_c, 1, 74, 93
2, 103680, Note_on_c, 1, 63, 93
2, 105540, Note_off_c, 1, 63, 93
2, 105600, Note_on_c, 1, 65, 93
2, 107460, Note_off_c, 1, 65, 93
2, 107520, Note_on_c, 1, 67, 93
2, 109380, Note_off_c, 1, 67, 93
2, 109440, Note_on_c, 1, 67, 93
2, 110370, Note_off_c, 1, 67, 93
2, 110400, Note_on_c, 1, 67, 93
2, 111330, Note_off_c, 1, 67, 93
2, 111360, Note_on_c, 1, 67, 93
2, 114150, Note_off_c, 1, 67, 93
2, 114240, Note_on_c, 1, 67, 93
2, 115170, Note_off_c, 1, 67, 93
2, 115200, Note_on_c, 1, 68, 93
2, 116130, Note_off_c, 1, 68, 93
2, 116160, Note_on_c, 1, 67, 93
2, 117090, Note_off_c, 1, 67, 93
2, 117120, Note_on_c, 1, 65, 93
2, 118980, Note_off_c, 1, 65, 93
2, 119040, Note_on_c, 1, 67, 93
2, 120230, Note_off_c, 1, 67, 93
2, 122880, Note_on_c, 1, 67, 93
2, 124740, Note_off_c, 1, 67, 93
2, 124800, Note_on_c, 1, 67, 93
2, 125730, Note_off_c, 1, 67, 93
2, 125760, Note_on_c, 1, 67, 93
2, 126690, Note_off_c, 1, 67, 93
2, 126720, Note_on_c, 1, 67, 93
2, 129510, Note_off_c, 1, 67, 93
2, 129600, Note_on_c, 1, 67, 93
2, 130530, Note_off_c, 1, 67, 93
2, 130560, Note_on_c, 1, 65, 93
2, 131490, Note_off_c, 1, 65, 93
2, 131520, Note_on_c, 1, 63, 93
2, 132450, Note_off_c, 1, 63, 93
2, 132480, Note_on_c, 1, 65, 93
2, 134340, Note_off_c, 1, 65, 93
2, 134400, Note_on_c, 1, 67, 93
2, 135590, Note_off_c, 1, 67, 93
2, 142080, Note_on_c, 1, 60, 93
2, 143940, Note_off_c, 1, 60, 93
2, 144000, Note_on_c, 1, 60, 93
2, 144930, Note_off_c, 1, 60, 93
2, 144960, Note_on_c, 1, 60, 93
2, 145890, Note_off_c, 1, 60, 93
2, 145920, Note_on_c, 1, 60, 93
2, 148710, Note_off_c, 1, 60, 93
2, 148800, Note_on_c, 1, 60, 93
2, 149730, Note_off_c, 1, 60, 93
2, 149760, Note_on_c, 1, 67, 93
2, 153480, Note_off_c, 1, 67, 93
2, 153600, Note_on_c, 1, 60, 93
2, 155750, Note_off_c, 1, 60, 93
2, 157440, Note_on_c, 1, 62, 93
2, 161160, Note_off_c, 1, 62, 93
2, 161280, Note_on_c, 1, 63, 93
2, 163140, Note_off_c, 1, 63, 93
2, 163200, Note_on_c, 1, 63, 93
2, 164130, Note_off_c, 1, 63, 93
2, 164160, Note_on_c, 1, 63, 93
2, 165090, Note_off_c, 1, 63, 93
2, 165120, Note_on_c, 1, 63, 93
2, 166980, Note_off_c, 1, 63, 93
2, 167040, Note_on_c, 1, 62, 93
2, 168900, Note_off_c, 1, 62, 93
2, 168960, Note_on_c, 1, 63, 93
2, 174660, Note_off_c, 1, 63, 93
2, 174720, Note_on_c, 1, 62, 93
2, 176580, Note_off_c, 1, 62, 93
2, 176640, Note_on_c, 1, 63, 93
2, 177830, Note_off_c, 1, 63, 93
2, 181440, Note_on_c, 1, 70, 93
2, 183300, Note_off_c, 1, 70, 93
2, 183360, Note_on_c, 1, 68, 93
2, 183820, Note_off_c, 1, 68, 93
2, 183840, Note_on_c, 1, 67, 93
2, 184300, Note_off_c, 1, 67, 93
2, 184320, Note_on_c, 1, 65, 93
2, 185510, Note_off_c, 1, 65, 93
2, 189120, Note_on_c, 1, 72, 93
2, 190980, Note_off_c, 1, 72, 93
2, 191040, Note_on_c, 1, 71, 93
2, 191500, Note_off_c, 1, 71, 93
2, 191520, Note_on_c, 1, 69, 93
2, 191980, Note_off_c, 1, 69, 93
2, 192000, Note_on_c, 1, 67, 93
2, 192930, Note_off_c, 1, 67, 93
2, 192960, Note_on_c, 1, 71, 93
2, 193890, Note_off_c, 1, 71, 93
2, 193920, Note_on_c, 1, 72, 93
2, 195780, Note_off_c, 1, 72, 93
2, 195840, Note_on_c, 1, 71, 93
2, 197700, Note_off_c, 1, 71, 93
2, 197760, Note_on_c, 1, 72, 93
2, 199620, Note_off_c, 1, 72, 93
2, 199680, Note_on_c, 1, 71, 93
2, 200870, Note_off_c, 1, 71, 93
2, 203520, Note_on_c, 1, 72, 93
2, 207240, Note_off_c, 1, 72, 93
2, 207360, Note_on_c, 1, 71, 93
2, 208290, Note_off_c, 1, 71, 93
2, 208320, Note_on_c, 1, 62, 93
2, 209710, Note_off_c, 1, 62, 93
2, 209760, Note_on_c, 1, 67, 93
2, 210220, Note_off_c, 1, 67, 93
2, 210240, Note_on_c, 1, 70, 93
2, 210700, Note_off_c, 1, 70, 93
2, 210720, Note_on_c, 1, 72, 93
2, 211180, Note_off_c, 1, 72, 93
2, 211200, Note_on_c, 1, 74, 93
2, 214920, Note_off_c, 1, 74, 93
2, 215040, Note_on_c, 1, 72, 93
2, 215970, Note_off_c, 1, 72, 93
2, 216000, Note_on_c, 1, 75, 93
2, 217860, Note_off_c, 1, 75, 93
2, 217920, Note_on_c, 1, 75, 93
2, 218850, Note_off_c, 1, 75, 93
2, 218880, Note_on_c, 1, 75, 93
2, 219810, Note_off_c, 1, 75, 93
2, 219840, Note_on_c, 1, 67, 93
2, 221700, Note_off_c, 1, 67, 93
2, 221760, Note_on_c, 1, 65, 93
2, 222220, Note_off_c, 1, 65, 93
2, 222240, Note_on_c, 1, 63, 93
2, 222700, Note_off_c, 1, 63, 93
2, 222720, Note_on_c, 1, 62, 93
2, 226060, Note_off_c, 1, 62, 93
2, 226080, Note_on_c, 1, 65, 93
2, 226540, Note_off_c, 1, 65, 93
2, 226560, Note_on_c, 1, 63, 93
2, 227490, Note_off_c, 1, 63, 93
2, 227520, Note_on_c, 1, 67, 93
2, 229380, Note_off_c, 1, 67, 93
2, 229440, Note_on_c, 1, 65, 93
2, 229900, Note_off_c, 1, 65, 93
2, 229920, Note_on_c, 1, 63, 93
2, 230380, Note_off_c, 1, 63, 93
2, 230400, Note_on_c, 1, 62, 93
2, 233740, Note_off_c, 1, 62, 93
2, 233760, Note_on_c, 1, 74, 93
2, 234220, Note_off_c, 1, 74, 93
2, 234240, Note_on_c, 1, 72, 93
2, 235430, Note_off_c, 1, 72, 93
2, 236160, Note_on_c, 1, 79, 93
2, 238020, Note_off_c, 1, 79, 93
2, 238080, Note_on_c, 1, 77, 93
2, 241800, Note_off_c, 1, 77, 93
2, 241920, Note_on_c, 1, 75, 93
2, 245640, Note_off_c, 1, 75, 93
2, 245760, Note_on_c, 1, 72, 93
2, 247620, Note_off_c, 1, 72, 93
2, 247680, Note_on_c, 1, 71, 93
2, 249540, Note_off_c, 1, 71, 93
2, 249600, Note_on_c, 1, 72, 93
2, 250790, Note_off_c, 1, 72, 93
2, 259200, Note_on_c, 1, 67, 93
2, 261060, Note_off_c, 1, 67, 93
2, 261120, Note_on_c, 1, 68, 93
2, 262050, Note_off_c, 1, 68, 93
2, 262080, Note_on_c, 1, 69, 93
2, 263010, Note_off_c, 1, 69, 93
2, 263040, Note_on_c, 1, 70, 93
2, 263970, Note_off_c, 1, 70, 93
2, 264000, Note_on_c, 1, 71, 93
2, 264930, Note_off_c, 1, 71, 93
2, 264960, Note_on_c, 1, 72, 93
2, 266150, Note_off_c, 1, 72, 93
2, 266880, Note_on_c, 1, 72, 93
2, 268070, Note_off_c, 1, 72, 93
2, 268800, Note_on_c, 1, 72, 93
2, 269990, Note_off_c, 1, 72, 93
2, 270720, Control_c, 1, 11, 95
2, 270720, Note_on_c, 1, 71, 89
2, 271910, Note_off_c, 1, 71, 89
2, 272640, Control_c, 1, 11, 91
2, 272640, Note_on_c, 1, 72, 87
2, 276360, Note_off_c, 1, 72, 87
2, 276480, Control_c, 1, 11, 99
2, 276480, Control_c, 1, 11, 119
2, 276480, Control_c, 1, 11, 86
2, 276480, End_track
3, 0, Start_track
3, 960, Control_c, 2, 64, 0
3, 960, Control_c, 2, 7, 127
3, 960, Control_c, 2, 10, 64
3, 1460, Program_c, 2, 71
3, 3820, Control_c, 2, 0, 0
3, 3830, Control_c, 2, 32, 0
3, 3840, Program_c, 2, 71
3, 7680, Control_c, 2, 1, 8
3, 7680, Control_c, 2, 7, 68
3, 7680, Control_c, 2, 91, 127
3, 7680, Control_c, 2, 93, 18
3, 7680, Control_c, 2, 10, 50
3, 26880, Control_c, 2, 11, 99
3, 26880, Note_on_c, 2, 70, 93
3, 31910, Note_off_c, 2, 70, 93
3, 34560, Note_on_c, 2, 67, 93
3, 39590, Note_off_c, 2, 67, 93
3, 54720, Note_on_c, 2, 63, 93
3, 56580, Note_off_c, 2, 63, 93
3, 56640, Note_on_c, 2, 63, 93
3, 57570, Note_off_c, 2, 63, 93
3, 57600, Note_on_c, 2, 63, 93
3, 58790, Note_off_c, 2, 63, 93
3, 61440, Note_on_c, 2, 68, 93
3, 64230, Note_off_c, 2, 68, 93
3, 64320, Note_on_c, 2, 67, 93
3, 65250, Note_off_c, 2, 67, 93
3, 65280, Note_on_c, 2, 67, 93
3, 66470, Note_off_c, 2, 67, 93
3, 69120, Note_on_c, 2, 68, 93
3, 71910, Note_off_c, 2, 68, 93
3, 72000, Note_on_c, 2, 67, 93
3, 72930, Note_off_c, 2, 67, 93
3, 72960, Note_on_c, 2, 67, 93
3, 74150, Note_off_c, 2, 67, 93
3, 77760, Note_on_c, 2, 65, 93
3, 79620, Note_off_c, 2, 65, 93
3, 79680, Note_on_c, 2, 67, 93
3, 80140, Note_off_c, 2, 67, 93
3, 80160, Note_on_c, 2, 68, 93
3, 80620, Note_off_c, 2, 68, 93
3, 80640, Note_on_c, 2, 67, 93
3, 81570, Note_off_c, 2, 67, 93
3, 81600, Note_on_c, 2, 70, 93
3, 89510, Note_off_c, 2, 70, 93
3, 93120, Control_c, 2, 11, 119
3, 93120, Note_on_c, 2, 58, 111
3, 95270, Note_off_c, 2, 58, 111
3, 96960, Note_on_c, 2, 58, 111
3, 99110, Note_off_c, 2, 58, 111
3, 103680, Note_on_c, 2, 63, 111
3, 105540, Note_off_c, 2, 63, 111
3, 105600, Note_on_c, 2, 65, 111
3, 107460, Note_off_c, 2, 65, 111
3, 107520, Note_on_c, 2, 67, 111
3, 109380, Note_off_c, 2, 67, 111
3, 109440, Note_on_c, 2, 67, 111
3, 110370, Note_off_c, 2, 67, 111
3, 110400, Note_on_c, 2, 67, 111
3, 111330, Note_off_c, 2, 67, 111
3, 111360, Note_on_c, 2, 67, 111
3, 114150, Note_off_c, 2, 67, 111
3, 114240, Note_on_c, 2, 67, 111
3, 115170, Note_off_c, 2, 67, 111
3, 115200, Note_on_c, 2, 68, 111
3, 116130, Note_off_c, 2, 68, 111
3, 116160, Note_on_c, 2, 67, 111
3, 117090, Note_off_c, 2, 67, 111
3, 117120, Note_on_c, 2, 65, 111
3, 118980, Note_off_c, 2, 65, 111
3, 119040, Note_on_c, 2, 67, 111
3, 120230, Note_off_c, 2, 67, 111
3, 122880, Note_on_c, 2, 67, 111
3, 124740, Note_off_c, 2, 67, 111
3, 124800, Note_on_c, 2, 67, 111
3, 125730, Note_off_c, 2, 67, 111
3, 125760, Note_on_c, 2, 67, 111
3, 126690, Note_off_c, 2, 67, 111
3, 126720, Note_on_c, 2, 67, 111
3, 129510, Note_off_c, 2, 67, 111
3, 129600, Note_on_c, 2, 67, 111
3, 130530, Note_off_c, 2, 67, 111
3, 130560, Note_on_c, 2, 65, 111
3, 131490, Note_off_c, 2, 65, 111
3, 131520, Note_on_c, 2, 63, 111
3, 132450, Note_off_c, 2, 63, 111
3, 132480, Note_on_c, 2, 65, 111
3, 134340, Note_off_c, 2, 65, 111
3, 134400, Note_on_c, 2, 67, 111
3, 135590, Note_off_c, 2, 67, 111
3, 142080, Note_on_c, 2, 63, 111
3, 143940, Note_off_c, 2, 63, 111
3, 144000, Note_on_c, 2, 63, 111
3, 144930, Note_off_c, 2, 63, 111
3, 144960, Note_on_c, 2, 63, 111
3, 145890, Note_off_c, 2, 63, 111
3, 145920, Note_on_c, 2, 63, 111
3, 148710, Note_off_c, 2, 63, 111
3, 148800, Note_on_c, 2, 63, 111
3, 149730, Note_off_c, 2, 63, 111
3, 149760, Note_on_c, 2, 58, 111
3, 153480, Note_off_c, 2, 58, 111
3, 153600, Note_on_c, 2, 63, 111
3, 155750, Note_off_c, 2, 63, 111
3, 157440, Note_on_c, 2, 58, 111
3, 161160, Note_off_c, 2, 58, 111
3, 161280, Note_on_c, 2, 58, 111
3, 163140, Note_off_c, 2, 58, 111
3, 163200, Note_on_c, 2, 58, 111
3, 164130, Note_off_c, 2, 58, 111
3, 164160, Note_on_c, 2, 58, 111
3, 165090, Note_off_c, 2, 58, 111
3, 165120, Note_on_c, 2, 60, 111
3, 166980, Note_off_c, 2, 60, 111
3, 167040, Note_on_c, 2, 65, 111
3, 168900, Note_off_c, 2, 65, 111
3, 168960, Note_on_c, 2, 67, 111
3, 170820, Note_off_c, 2, 67, 111
3, 170880, Note_on_c, 2, 68, 111
3, 172740, Note_off_c, 2, 68, 111
3, 172800, Control_c, 2, 11, 95
3, 172800, Note_on_c, 2, 67, 89
3, 174660, Note_off_c, 2, 67, 89
3, 174720, Note_on_c, 2, 65, 89
3, 176580, Note_off_c, 2, 65, 89
3, 176640, Note_on_c, 2, 63, 89
3, 177830, Note_off_c, 2, 63, 89
3, 192000, Control_c, 2, 11, 99
3, 192000, Note_on_c, 2, 79, 93
3, 200870, Note_off_c, 2, 79, 93
3, 203520, Note_on_c, 2, 67, 93
3, 208290, Note_off_c, 2, 67, 93
3, 208320, Note_on_c, 2, 65, 93
3, 208780, Note_off_c, 2, 65, 93
3, 208800, Note_on_c, 2, 67, 93
3, 209260, Note_off_c, 2, 67, 93
3, 209280, Note_on_c, 2, 68, 93
3, 209740, Note_off_c, 2, 68, 93
3, 209760, Note_on_c, 2, 67, 93
3, 210220, Note_off_c, 2, 67, 93
3, 210240, Note_on_c, 2, 65, 93
3, 210700, Note_off_c, 2, 65, 93
3, 210720, Note_on_c, 2, 63, 93
3, 211180, Note_off_c, 2, 63, 93
3, 211200, Note_on_c, 2, 67, 93
3, 215970, Note_off_c, 2, 67, 93
3, 216000, Note_on_c, 2, 67, 93
3, 217860, Note_off_c, 2, 67, 93
3, 217920, Note_on_c, 2, 67, 93
3, 218850, Note_off_c, 2, 67, 93
3, 218880, Note_on_c, 2, 67, 93
3, 220070, Note_off_c, 2, 67, 93
3, 222720, Note_on_c, 2, 68, 93
3, 225510, Note_off_c, 2, 68, 93
3, 225600, Note_on_c, 2, 67, 93
3, 226530, Note_off_c, 2, 67, 93
3, 226560, Note_on_c, 2, 67, 93
3, 227750, Note_off_c, 2, 67, 93
3, 230400, Note_on_c, 2, 68, 93
3, 233190, Note_off_c, 2, 68, 93
3, 233280, Note_on_c, 2, 67, 93
3, 234210, Note_off_c, 2, 67, 93
3, 234240, Note_on_c, 2, 67, 93
3, 235430, Note_off_c, 2, 67, 93
3, 236160, Note_on_c, 2, 72, 93
3, 245640, Note_off_c, 2, 72, 93
3, 266880, Note_on_c, 2, 74, 93
3, 268070, Note_off_c, 2, 74, 93
3, 268800, Note_on_c, 2, 75, 93
3, 269990, Note_off_c, 2, 75, 93
3, 270720, Control_c, 2, 11, 95
3, 270720, Note_on_c, 2, 74, 89
3, 271910, Note_off_c, 2, 74, 89
3, 272640, Control_c, 2, 11, 91
3, 272640, Note_on_c, 2, 67, 87
3, 276360, Note_off_c, 2, 67, 87
3, 276480, Control_c, 2, 11, 99
3, 276480, Control_c, 2, 11, 119
3, 276480, Control_c, 2, 11, 86
3, 276480, End_track
4, 0, Start_track
4, 960, Control_c, 3, 64, 0
4, 960, Control_c, 3, 7, 127
4, 960, Control_c, 3, 10, 64
4, 1460, Program_c, 3, 71
4, 3820, Control_c, 3, 0, 0
4, 3830, Control_c, 3, 32, 0
4, 3840, Program_c, 3, 71
4, 7680, Control_c, 3, 1, 5
4, 7680, Control_c, 3, 7, 68
4, 7680, Control_c, 3, 91, 127
4, 7680, Control_c, 3, 93, 15
4, 7680, Control_c, 3, 10, 52
4, 19200, Control_c, 3, 11, 95
4, 19200, Note_on_c, 3, 55, 90
4, 22920, Note_off_c, 3, 55, 90
4, 23040, Note_on_c, 3, 48, 90
4, 24230, Note_off_c, 3, 48, 90
4, 26880, Control_c, 3, 11, 99
4, 26880, Note_on_c, 3, 51, 94
4, 30600, Note_off_c, 3, 51, 94
4, 30720, Note_on_c, 3, 46, 94
4, 31910, Note_off_c, 3, 46, 94
4, 34560, Note_on_c, 3, 48, 94
4, 38280, Note_off_c, 3, 48, 94
4, 38400, Note_on_c, 3, 43, 94
4, 39590, Note_off_c, 3, 43, 94
4, 50880, Control_c, 3, 11, 119
4, 50880, Note_on_c, 3, 43, 112
4, 51810, Note_off_c, 3, 43, 112
4, 51840, Note_on_c, 3, 47, 112
4, 52770, Note_off_c, 3, 47, 112
4, 52800, Note_on_c, 3, 43, 112
4, 53730, Note_off_c, 3, 43, 112
4, 53760, Note_on_c, 3, 48, 112
4, 54950, Note_off_c, 3, 48, 112
4, 61920, Control_c, 3, 11, 99
4, 61920, Note_on_c, 3, 56, 94
4, 62380, Note_off_c, 3, 56, 94
4, 62400, Note_on_c, 3, 53, 94
4, 62860, Note_off_c, 3, 53, 94
4, 62880, Note_on_c, 3, 50, 94
4, 63340, Note_off_c, 3, 50, 94
4, 63360, Note_on_c, 3, 47, 94
4, 63820, Note_off_c, 3, 47, 94
4, 63840, Note_on_c, 3, 50, 94
4, 64300, Note_off_c, 3, 50, 94
4, 64320, Note_on_c, 3, 43, 94
4, 64780, Note_off_c, 3, 43, 94
4, 64800, Note_on_c, 3, 47, 94
4, 65260, Note_off_c, 3, 47, 94
4, 65280, Note_on_c, 3, 48, 94
4, 66470, Note_off_c, 3, 48, 94
4, 69600, Note_on_c, 3, 56, 94
4, 70060, Note_off_c, 3, 56, 94
4, 70080, Note_on_c, 3, 53, 94
4, 70540, Note_off_c, 3, 53, 94
4, 70560, Note_on_c, 3, 50, 94
4, 71020, Note_off_c, 3, 50, 94
4, 71040, Note_on_c, 3, 47, 94
4, 71500, Note_off_c, 3, 47, 94
4, 71520, Note_on_c, 3, 50, 94
4, 71980, Note_off_c, 3, 50, 94
4, 72000, Note_on_c, 3, 43, 94
4, 72460, Note_off_c, 3, 43, 94
4, 72480, Note_on_c, 3, 47, 94
4, 72940, Note_off_c, 3, 47, 94
4, 72960, Note_on_c, 3, 48, 94
4, 74150, Note_off_c, 3, 48, 94
4, 77760, Note_on_c, 3, 56, 94
4, 79620, Note_off_c, 3, 56, 94
4, 79680, Note_on_c, 3, 55, 94
4, 80140, Note_off_c, 3, 55, 94
4, 80160, Note_on_c, 3, 53, 94
4, 80620, Note_off_c, 3, 53, 94
4, 80640, Note_on_c, 3, 51, 94
4, 81830, Note_off_c, 3, 51, 94
4, 83280, Note_on_c, 3, 51, 94
4, 83510, Note_off_c, 3, 51, 94
4, 83520, Note_on_c, 3, 55, 94
4, 84210, Note_off_c, 3, 55, 94
4, 84240, Note_on_c, 3, 51, 94
4, 84470, Note_off_c, 3, 51, 94
4, 84480, Note_on_c, 3, 58, 94
4, 85410, Note_off_c, 3, 58, 94
4, 85440, Note_on_c, 3, 46, 94
4, 86630, Note_off_c, 3, 46, 94
4, 87120, Note_on_c, 3, 46, 94
4, 87350, Note_off_c, 3, 46, 94
4, 87360, Note_on_c, 3, 50, 94
4, 88050, Note_off_c, 3, 50, 94
4, 88080, Note_on_c, 3, 46, 94
4, 88310, Note_off_c, 3, 46, 94
4, 88320, Note_on_c, 3, 51, 94
4, 89510, Note_off_c, 3, 51, 94
4, 93120, Control_c, 3, 11, 119
4, 93120, Note_on_c, 3, 46, 112
4, 95270, Note_off_c, 3, 46, 112
4, 96960, Note_on_c, 3, 46, 112
4, 99110, Note_off_c, 3, 46, 112
4, 138240, Control_c, 3, 11, 99
4, 138240, Note_on_c, 3, 48, 94
4, 141960, Note_off_c, 3, 48, 94
4, 142080, Note_on_c, 3, 48, 94
4, 143940, Note_off_c, 3, 48, 94
4, 144000, Note_on_c, 3, 48, 94
4, 144930, Note_off_c, 3, 48, 94
4, 144960, Note_on_c, 3, 48, 94
4, 145890, Note_off_c, 3, 48, 94
4, 145920, Note_on_c, 3, 48, 94
4, 148710, Note_off_c, 3, 48, 94
4, 148800, Note_on_c, 3, 48, 94
4, 149730, Note_off_c, 3, 48, 94
4, 149760, Note_on_c, 3, 51, 94
4, 153480, Note_off_c, 3, 51, 94
4, 153600, Note_on_c, 3, 48, 94
4, 155750, Note_off_c, 3, 48, 94
4, 157440, Note_on_c, 3, 46, 94
4, 161160, Note_off_c, 3, 46, 94
4, 161280, Note_on_c, 3, 51, 94
4, 163140, Note_off_c, 3, 51, 94
4, 163200, Note_on_c, 3, 51, 94
4, 164130, Note_off_c, 3, 51, 94
4, 164160, Note_on_c, 3, 51, 94
4, 165090, Note_off_c, 3, 51, 94
4, 165120, Note_on_c, 3, 48, 94
4, 166980, Note_off_c, 3, 48, 94
4, 167040, Note_on_c, 3, 46, 94
4, 168900, Note_off_c, 3, 46, 94
4, 168960, Note_on_c, 3, 51, 94
4, 170820, Note_off_c, 3, 51, 94
4, 170880, Note_on_c, 3, 44, 94
4, 172740, Note_off_c, 3, 44, 94
4, 172800, Control_c, 3, 11, 95
4, 172800, Note_on_c, 3, 46, 90
4, 176520, Note_off_c, 3, 46, 90
4, 176640, Note_on_c, 3, 51, 90
4, 177830, Note_off_c, 3, 51, 90
4, 192720, Control_c, 3, 11, 99
4, 192720, Note_on_c, 3, 43, 94
4, 192950, Note_off_c, 3, 43, 94
4, 192960, Note_on_c, 3, 47, 94
4, 193650, Note_off_c, 3, 47, 94
4, 193680, Note_on_c, 3, 43, 94
4, 193910, Note_off_c, 3, 43, 94
4, 193920, Note_on_c, 3, 48, 94
4, 194610, Note_off_c, 3, 48, 94
4, 194640, Note_on_c, 3, 48, 94
4, 194870, Note_off_c, 3, 48, 94
4, 194880, Note_on_c, 3, 51, 94
4, 195570, Note_off_c, 3, 51, 94
4, 195600, Note_on_c, 3, 48, 94
4, 195830, Note_off_c, 3, 48, 94
4, 195840, Note_on_c, 3, 55, 94
4, 196530, Note_off_c, 3, 55, 94
4, 196560, Note_on_c, 3, 43, 94
4, 196790, Note_off_c, 3, 43, 94
4, 196800, Note_on_c, 3, 47, 94
4, 197490, Note_off_c, 3, 47, 94
4, 197520, Note_on_c, 3, 43, 94
4, 197750, Note_off_c, 3, 43, 94
4, 197760, Note_on_c, 3, 48, 94
4, 198450, Note_off_c, 3, 48, 94
4, 198480, Note_on_c, 3, 48, 94
4, 198710, Note_off_c, 3, 48, 94
4, 198720, Note_on_c, 3, 51, 94
4, 199410, Note_off_c, 3, 51, 94
4, 199440, Note_on_c, 3, 48, 94
4, 199670, Note_off_c, 3, 48, 94
4, 199680, Note_on_c, 3, 55, 94
4, 200140, Note_off_c, 3, 55, 94
4, 200160, Note_on_c, 3, 56, 94
4, 200620, Note_off_c, 3, 56, 94
4, 200640, Note_on_c, 3, 55, 94
4, 201100, Note_off_c, 3, 55, 94
4, 201120, Note_on_c, 3, 54, 94
4, 201580, Note_off_c, 3, 54, 94
4, 201600, Note_on_c, 3, 55, 94
4, 202060, Note_off_c, 3, 55, 94
4, 202080, Note_on_c, 3, 50, 94
4, 202540, Note_off_c, 3, 50, 94
4, 202560, Note_on_c, 3, 51, 94
4, 203020, Note_off_c, 3, 51, 94
4, 203040, Note_on_c, 3, 47, 94
4, 203500, Note_off_c, 3, 47, 94
4, 203520, Note_on_c, 3, 48, 94
4, 207240, Note_off_c, 3, 48, 94
4, 207360, Note_on_c, 3, 43, 94
4, 208550, Note_off_c, 3, 43, 94
4, 211200, Note_on_c, 3, 43, 94
4, 214920, Note_off_c, 3, 43, 94
4, 215040, Note_on_c, 3, 48, 94
4, 215970, Note_off_c, 3, 48, 94
4, 216000, Note_on_c, 3, 48, 94
4, 217860, Note_off_c, 3, 48, 94
4, 217920, Note_on_c, 3, 48, 94
4, 218850, Note_off_c, 3, 48, 94
4, 218880, Note_on_c, 3, 48, 94
4, 220070, Note_off_c, 3, 48, 94
4, 222720, Control_c, 3, 11, 105
4, 223200, Note_on_c, 3, 56, 98
4, 223660, Note_off_c, 3, 56, 98
4, 223680, Note_on_c, 3, 53, 98
4, 224140, Note_off_c, 3, 53, 98
4, 224160, Note_on_c, 3, 50, 98
4, 224620, Note_off_c, 3, 50, 98
4, 224640, Note_on_c, 3, 47, 98
4, 225100, Note_off_c, 3, 47, 98
4, 225120, Note_on_c, 3, 50, 98
4, 225580, Note_off_c, 3, 50, 98
4, 225600, Note_on_c, 3, 43, 98
4, 226060, Note_off_c, 3, 43, 98
4, 226080, Note_on_c, 3, 47, 98
4, 226540, Note_off_c, 3, 47, 98
4, 226560, Note_on_c, 3, 48, 98
4, 227750, Note_off_c, 3, 48, 98
4, 230880, Note_on_c, 3, 56, 98
4, 231340, Note_off_c, 3, 56, 98
4, 231360, Note_on_c, 3, 53, 98
4, 231820, Note_off_c, 3, 53, 98
4, 231840, Note_on_c, 3, 50, 98
4, 232300, Note_off_c, 3, 50, 98
4, 232320, Note_on_c, 3, 47, 98
4, 232780, Note_off_c, 3, 47, 98
4, 232800, Note_on_c, 3, 50, 98
4, 233260, Note_off_c, 3, 50, 98
4, 233280, Note_on_c, 3, 43, 98
4, 233740, Note_off_c, 3, 43, 98
4, 233760, Note_on_c, 3, 47, 98
4, 234220, Note_off_c, 3, 47, 98
4, 234240, Note_on_c, 3, 48, 98
4, 234930, Note_off_c, 3, 48, 98
4, 234960, Note_on_c, 3, 48, 98
4, 235190, Note_off_c, 3, 48, 98
4, 235200, Note_on_c, 3, 51, 98
4, 235890, Note_off_c, 3, 51, 98
4, 235920, Note_on_c, 3, 55, 98
4, 236150, Note_off_c, 3, 55, 98
4, 236160, Note_on_c, 3, 52, 98
4, 238020, Note_off_c, 3, 52, 98
4, 238080, Note_on_c, 3, 53, 98
4, 238770, Note_off_c, 3, 53, 98
4, 238800, Note_on_c, 3, 53, 98
4, 239030, Note_off_c, 3, 53, 98
4, 239040, Note_on_c, 3, 56, 98
4, 239730, Note_off_c, 3, 56, 98
4, 239760, Note_on_c, 3, 60, 98
4, 239990, Note_off_c, 3, 60, 98
4, 240000, Note_on_c, 3, 53, 98
4, 241860, Note_off_c, 3, 53, 98
4, 241920, Note_on_c, 3, 54, 98
4, 242610, Note_off_c, 3, 54, 98
4, 242640, Note_on_c, 3, 54, 98
4, 242870, Note_off_c, 3, 54, 98
4, 242880, Note_on_c, 3, 57, 98
4, 243570, Note_off_c, 3, 57, 98
4, 243600, Note_on_c, 3, 60, 98
4, 243830, Note_off_c, 3, 60, 98
4, 243840, Note_on_c, 3, 54, 98
4, 245700, Note_off_c, 3, 54, 98
4, 249600, Note_on_c, 3, 48, 98
4, 251460, Note_off_c, 3, 48, 98
4, 251520, Note_on_c, 3, 52, 98
4, 253380, Note_off_c, 3, 52, 98
4, 253440, Note_on_c, 3, 53, 98
4, 255300, Note_off_c, 3, 53, 98
4, 255360, Note_on_c, 3, 55, 98
4, 257220, Note_off_c, 3, 55, 98
4, 257280, Note_on_c, 3, 48, 98
4, 259140, Note_off_c, 3, 48, 98
4, 259200, Note_on_c, 3, 52, 98
4, 261060, Note_off_c, 3, 52, 98
4, 261120, Note_on_c, 3, 41, 98
4, 262980, Note_off_c, 3, 41, 98
4, 263040, Note_on_c, 3, 43, 98
4, 264900, Note_off_c, 3, 43, 98
4, 264960, Note_on_c, 3, 44, 98
4, 266150, Note_off_c, 3, 44, 98
4, 266880, Note_on_c, 3, 41, 98
4, 268070, Note_off_c, 3, 41, 98
4, 268800, Note_on_c, 3, 43, 98
4, 269990, Note_off_c, 3, 43, 98
4, 270720, Control_c, 3, 11, 95
4, 270720, Note_on_c, 3, 43, 90
4, 271910, Note_off_c, 3, 43, 90
4, 272640, Control_c, 3, 11, 91
4, 272640, Note_on_c, 3, 48, 88
4, 276360, Note_off_c, 3, 48, 88
4, 276480, Control_c, 3, 11, 99
4, 276480, Control_c, 3, 11, 119
4, 276480, Control_c, 3, 11, 86
4, 276480, End_track
5, 0, Start_track
5, 960, Control_c, 4, 64, 0
5, 960, Control_c, 4, 7, 127
5, 960, Control_c, 4, 10, 64
5, 1460, Program_c, 4, 70
5, 3820, Control_c, 4, 0, 0
5, 3830, Control_c, 4, 32, 0
5, 3840, Program_c, 4, 70
5, 7680, Control_c, 4, 1, 20
5, 7680, Control_c, 4, 7, 67
5, 7680, Control_c, 4, 91, 127
5, 7680, Control_c, 4, 93, 19
5, 11520, Control_c, 4, 10, 62
5, 19200, Control_c, 4, 11, 95
5, 19200, Note_on_c, 4, 43, 90
5, 22920, Note_off_c, 4, 43, 90
5, 23040, Note_on_c, 4, 36, 90
5, 24230, Note_off_c, 4, 36, 90
5, 26880, Control_c, 4, 11, 99
5, 26880, Note_on_c, 4, 51, 94
5, 30600, Note_off_c, 4, 51, 94
5, 30720, Note_on_c, 4, 46, 94
5, 31910, Note_off_c, 4, 46, 94
5, 34560, Note_on_c, 4, 48, 94
5, 38280, Note_off_c, 4, 48, 94
5, 38400, Note_on_c, 4, 43, 94
5, 39590, Note_off_c, 4, 43, 94
5, 50880, Control_c, 4, 11, 119
5, 50880, Note_on_c, 4, 43, 112
5, 51810, Note_off_c, 4, 43, 112
5, 51840, Note_on_c, 4, 47, 112
5, 52770, Note_off_c, 4, 47, 112
5, 52800, Note_on_c, 4, 43, 112
5, 53730, Note_off_c, 4, 43, 112
5, 53760, Note_on_c, 4, 48, 112
5, 54950, Note_off_c, 4, 48, 112
5, 61440, Note_on_c, 4, 48, 112
5, 66470, Note_off_c, 4, 48, 112
5, 69120, Note_on_c, 4, 48, 112
5, 74150, Note_off_c, 4, 48, 112
5, 77760, Control_c, 4, 11, 99
5, 77760, Note_on_c, 4, 56, 94
5, 79620, Note_off_c, 4, 56, 94
5, 79680, Note_on_c, 4, 55, 94
5, 80140, Note_off_c, 4, 55, 94
5, 80160, Note_on_c, 4, 53, 94
5, 80620, Note_off_c, 4, 53, 94
5, 80640, Note_on_c, 4, 51, 94
5, 84360, Note_off_c, 4, 51, 94
5, 84480, Note_on_c, 4, 50, 94
5, 88200, Note_off_c, 4, 50, 94
5, 93120, Control_c, 4, 11, 119
5, 93120, Note_on_c, 4, 46, 112
5, 95270, Note_off_c, 4, 46, 112
5, 96960, Note_on_c, 4, 46, 112
5, 99110, Note_off_c, 4, 46, 112
5, 138240, Control_c, 4, 11, 99
5, 138240, Note_on_c, 4, 48, 94
5, 141960, Note_off_c, 4, 48, 94
5, 142080, Note_on_c, 4, 48, 94
5, 143940, Note_off_c, 4, 48, 94
5, 144000, Note_on_c, 4, 48, 94
5, 144930, Note_off_c, 4, 48, 94
5, 144960, Note_on_c, 4, 48, 94
5, 145890, Note_off_c, 4, 48, 94
5, 145920, Note_on_c, 4, 48, 94
5, 148710, Note_off_c, 4, 48, 94
5, 148800, Note_on_c, 4, 48, 94
5, 149730, Note_off_c, 4, 48, 94
5, 149760, Note_on_c, 4, 51, 94
5, 153480, Note_off_c, 4, 51, 94
5, 153600, Note_on_c, 4, 48, 94
5, 155750, Note_off_c, 4, 48, 94
5, 157440, Note_on_c, 4, 46, 94
5, 161160, Note_off_c, 4, 46, 94
5, 161280, Note_on_c, 4, 51, 94
5, 163140, Note_off_c, 4, 51, 94
5, 163200, Note_on_c, 4, 51, 94
5, 164130, Note_off_c, 4, 51, 94
5, 164160, Note_on_c, 4, 51, 94
5, 165090, Note_off_c, 4, 51, 94
5, 165120, Note_on_c, 4, 48, 94
5, 166980, Note_off_c, 4, 48, 94
5, 167040, Note_on_c, 4, 46, 94
5, 168900, Note_off_c, 4, 46, 94
5, 168960, Note_on_c, 4, 51, 94
5, 170820, Note_off_c, 4, 51, 94
5, 170880, Note_on_c, 4, 44, 94
5, 172740, Note_off_c, 4, 44, 94
5, 172800, Control_c, 4, 11, 95
5, 172800, Note_on_c, 4, 46, 90
5, 176520, Note_off_c, 4, 46, 90
5, 176640, Note_on_c, 4, 39, 90
5, 177830, Note_off_c, 4, 39, 90
5, 192000, Control_c, 4, 11, 99
5, 192000, Note_on_c, 4, 43, 94
5, 193190, Note_off_c, 4, 43, 94
5, 194880, Note_on_c, 4, 48, 94
5, 195810, Note_off_c, 4, 48, 94
5, 195840, Note_on_c, 4, 43, 94
5, 197030, Note_off_c, 4, 43, 94
5, 198720, Note_on_c, 4, 48, 94
5, 199650, Note_off_c, 4, 48, 94
5, 199680, Note_on_c, 4, 43, 94
5, 200870, Note_off_c, 4, 43, 94
5, 203520, Note_on_c, 4, 48, 94
5, 207240, Note_off_c, 4, 48, 94
5, 207360, Note_on_c, 4, 43, 94
5, 208550, Note_off_c, 4, 43, 94
5, 211200, Note_on_c, 4, 43, 94
5, 214920, Note_off_c, 4, 43, 94
5, 215040, Note_on_c, 4, 48, 94
5, 215970, Note_off_c, 4, 48, 94
5, 216000, Note_on_c, 4, 48, 94
5, 217860, Note_off_c, 4, 48, 94
5, 217920, Note_on_c, 4, 48, 94
5, 218850, Note_off_c, 4, 48, 94
5, 218880, Note_on_c, 4, 48, 94
5, 220070, Note_off_c, 4, 48, 94
5, 222720, Control_c, 4, 11, 105
5, 222720, Note_on_c, 4, 48, 98
5, 227750, Note_off_c, 4, 48, 98
5, 230400, Note_on_c, 4, 48, 98
5, 234120, Note_off_c, 4, 48, 98
5, 234240, Note_on_c, 4, 48, 98
5, 236100, Note_off_c, 4, 48, 98
5, 236160, Note_on_c, 4, 40, 98
5, 238020, Note_off_c, 4, 40, 98
5, 238080, Note_on_c, 4, 41, 98
5, 240870, Note_off_c, 4, 41, 98
5, 240960, Note_on_c, 4, 41, 98
5, 241890, Note_off_c, 4, 41, 98
5, 241920, Note_on_c, 4, 42, 98
5, 243780, Note_off_c, 4, 42, 98
5, 243840, Note_on_c, 4, 42, 98
5, 244770, Note_off_c, 4, 42, 98
5, 244800, Note_on_c, 4, 42, 98
5, 245730, Note_off_c, 4, 42, 98
5, 245760, Control_c, 4, 11, 99
5, 245760, Note_on_c, 4, 43, 94
5, 249480, Note_off_c, 4, 43, 94
5, 249600, Note_on_c, 4, 36, 94
5, 250790, Note_off_c, 4, 36, 94
5, 264960, Note_on_c, 4, 44, 94
5, 266150, Note_off_c, 4, 44, 94
5, 266880, Note_on_c, 4, 41, 94
5, 268070, Note_off_c, 4, 41, 94
5, 268800, Note_on_c, 4, 43, 94
5, 269990, Note_off_c, 4, 43, 94
5, 270720, Control_c, 4, 11, 95
5, 270720, Note_on_c, 4, 43, 90
5, 271910, Note_off_c, 4, 43, 90
5, 272640, Control_c, 4, 11, 91
5, 272640, Note_on_c, 4, 36, 88
5, 276360, Note_off_c, 4, 36, 88
5, 276480, Control_c, 4, 11, 99
5, 276480, Control_c, 4, 11, 119
5, 276480, Control_c, 4, 11, 86
5, 276480, End_track
6, 0, Start_track
6, 960, Control_c, 5, 64, 0
6, 960, Control_c, 5, 7, 127
6, 960, Control_c, 5, 10, 64
6, 1460, Program_c, 5, 60
6, 3820, Control_c, 5, 0, 0
6, 3830, Control_c, 5, 32, 0
6, 3840, Program_c, 5, 60
6, 7680, Control_c, 5, 1, 4
6, 7680, Control_c, 5, 7, 80
6, 7680, Control_c, 5, 91, 127
6, 7682, Control_c, 5, 93, 28
6, 11520, Control_c, 5, 10, 57
6, 19200, Control_c, 5, 11, 95
6, 19200, Note_on_c, 5, 65, 89
6, 22920, Note_off_c, 5, 65, 89
6, 23040, Note_on_c, 5, 63, 89
6, 24230, Note_off_c, 5, 63, 89
6, 26880, Control_c, 5, 11, 99
6, 26880, Note_on_c, 5, 63, 93
6, 30600, Note_off_c, 5, 63, 93
6, 30720, Note_on_c, 5, 65, 93
6, 31910, Note_off_c, 5, 65, 93
6, 34560, Note_on_c, 5, 63, 93
6, 38280, Note_off_c, 5, 63, 93
6, 38400, Note_on_c, 5, 55, 93
6, 39590, Note_off_c, 5, 55, 93
6, 49920, Note_on_c, 5, 65, 93
6, 53640, Note_off_c, 5, 65, 93
6, 53760, Note_on_c, 5, 63, 93
6, 54950, Note_off_c, 5, 63, 93
6, 61440, Note_on_c, 5, 65, 93
6, 65160, Note_off_c, 5, 65, 93
6, 65280, Note_on_c, 5, 63, 93
6, 66470, Note_off_c, 5, 63, 93
6, 69120, Note_on_c, 5, 65, 93
6, 72840, Note_off_c, 5, 65, 93
6, 72960, Note_on_c, 5, 63, 93
6, 74150, Note_off_c, 5, 63, 93
6, 76800, Control_c, 5, 11, 127
6, 76800, Note_on_c, 5, 58, 119
6, 77730, Note_off_c, 5, 58, 119
6, 77760, Note_on_c, 5, 58, 119
6, 78690, Note_off_c, 5, 58, 119
6, 78720, Note_on_c, 5, 58, 119
6, 79650, Note_off_c, 5, 58, 119
6, 79680, Note_on_c, 5, 58, 119
6, 80610, Note_off_c, 5, 58, 119
6, 80640, Note_on_c, 5, 58, 119
6, 81830, Note_off_c, 5, 58, 119
6, 83280, Note_on_c, 5, 51, 119
6, 83280, Note_on_c, 5, 51, 119
6, 83510, Note_off_c, 5, 51, 119
6, 83510, Note_off_c, 5, 51, 119
6, 83520, Note_on_c, 5, 55, 119
6, 83520, Note_on_c, 5, 55, 119
6, 84210, Note_off_c, 5, 55, 119
6, 84210, Note_off_c, 5, 55, 119
6, 84240, Note_on_c, 5, 51, 119
6, 84240, Note_on_c, 5, 51, 119
6, 84470, Note_off_c, 5, 51, 119
6, 84470, Note_off_c, 5, 51, 119
6, 84480, Note_on_c, 5, 58, 119
6, 84480, Note_on_c, 5, 58, 119
6, 85410, Note_off_c, 5, 58, 119
6, 85410, Note_off_c, 5, 58, 119
6, 85440, Note_on_c, 5, 46, 119
6, 85440, Note_on_c, 5, 46, 119
6, 86630, Note_off_c, 5, 46, 119
6, 86630, Note_off_c, 5, 46, 119
6, 87120, Note_on_c, 5, 46, 119
6, 87120, Note_on_c, 5, 46, 119
6, 87350, Note_off_c, 5, 46, 119
6, 87350, Note_off_c, 5, 46, 119
6, 87360, Note_on_c, 5, 50, 119
6, 87360, Note_on_c, 5, 50, 119
6, 88050, Note_off_c, 5, 50, 119
6, 88050, Note_off_c, 5, 50, 119
6, 88080, Note_on_c, 5, 46, 119
6, 88080, Note_on_c, 5, 46, 119
6, 88310, Note_off_c, 5, 46, 119
6, 88310, Note_off_c, 5, 46, 119
6, 88320, Note_on_c, 5, 51, 119
6, 88320, Note_on_c, 5, 51, 119
6, 89510, Note_off_c, 5, 51, 119
6, 89510, Note_off_c, 5, 51, 119
6, 93120, Control_c, 5, 11, 119
6, 93120, Note_on_c, 5, 46, 111
6, 95270, Note_off_c, 5, 46, 111
6, 96960, Note_on_c, 5, 46, 111
6, 99110, Note_off_c, 5, 46, 111
6, 142080, Note_on_c, 5, 55, 111
6, 143940, Note_off_c, 5, 55, 111
6, 144000, Note_on_c, 5, 55, 111
6, 144930, Note_off_c, 5, 55, 111
6, 144960, Note_on_c, 5, 55, 111
6, 145890, Note_off_c, 5, 55, 111
6, 145920, Note_on_c, 5, 55, 111
6, 148710, Note_off_c, 5, 55, 111
6, 148800, Note_on_c, 5, 55, 111
6, 149730, Note_off_c, 5, 55, 111
6, 149760, Note_on_c, 5, 51, 111
6, 153480, Note_off_c, 5, 51, 111
6, 153600, Note_on_c, 5, 55, 111
6, 155750, Note_off_c, 5, 55, 111
6, 157440, Note_on_c, 5, 46, 111
6, 161160, Note_off_c, 5, 46, 111
6, 161280, Note_on_c, 5, 51, 111
6, 163140, Note_off_c, 5, 51, 111
6, 163200, Note_on_c, 5, 51, 111
6, 164130, Note_off_c, 5, 51, 111
6, 164160, Note_on_c, 5, 51, 111
6, 165090, Note_off_c, 5, 51, 111
6, 165120, Note_on_c, 5, 55, 111
6, 166980, Note_off_c, 5, 55, 111
6, 167040, Note_on_c, 5, 46, 111
6, 168900, Note_off_c, 5, 46, 111
6, 168960, Note_on_c, 5, 51, 111
6, 170820, Note_off_c, 5, 51, 111
6, 170880, Note_on_c, 5, 32, 111
6, 172740, Note_off_c, 5, 32, 111
6, 172800, Control_c, 5, 11, 99
6, 172800, Note_on_c, 5, 34, 93
6, 176520, Note_off_c, 5, 34, 93
6, 176640, Note_on_c, 5, 27, 93
6, 177830, Note_off_c, 5, 27, 93
6, 192000, Control_c, 5, 11, 127
6, 192000, Note_on_c, 5, 67, 119
6, 194610, Note_off_c, 5, 67, 119
6, 194640, Note_on_c, 5, 63, 119
6, 194870, Note_off_c, 5, 63, 119
6, 194880, Note_on_c, 5, 67, 119
6, 195570, Note_off_c, 5, 67, 119
6, 195600, Note_on_c, 5, 63, 119
6, 195830, Note_off_c, 5, 63, 119
6, 195840, Note_on_c, 5, 67, 119
6, 198450, Note_off_c, 5, 67, 119
6, 198480, Note_on_c, 5, 63, 119
6, 198710, Note_off_c, 5, 63, 119
6, 198720, Note_on_c, 5, 67, 119
6, 199410, Note_off_c, 5, 67, 119
6, 199440, Note_on_c, 5, 63, 119
6, 199670, Note_off_c, 5, 63, 119
6, 199680, Note_on_c, 5, 67, 119
6, 200870, Note_off_c, 5, 67, 119
6, 203520, Note_on_c, 5, 55, 119
6, 208550, Note_off_c, 5, 55, 119
6, 211200, Note_on_c, 5, 65, 119
6, 214920, Note_off_c, 5, 65, 119
6, 215040, Note_on_c, 5, 63, 119
6, 215970, Note_off_c, 5, 63, 119
6, 216000, Note_on_c, 5, 55, 119
6, 217860, Note_off_c, 5, 55, 119
6, 217920, Note_on_c, 5, 55, 119
6, 218850, Note_off_c, 5, 55, 119
6, 218880, Note_on_c, 5, 55, 119
6, 220070, Note_off_c, 5, 55, 119
6, 222720, Control_c, 5, 11, 105
6, 222720, Note_on_c, 5, 65, 97
6, 226440, Note_off_c, 5, 65, 97
6, 226560, Note_on_c, 5, 63, 97
6, 227750, Note_off_c, 5, 63, 97
6, 230400, Note_on_c, 5, 65, 97
6, 234120, Note_off_c, 5, 65, 97
6, 234240, Control_c, 5, 11, 127
6, 234240, Note_on_c, 5, 63, 119
6, 234930, Note_off_c, 5, 63, 119
6, 234960, Note_on_c, 5, 63, 119
6, 235190, Note_off_c, 5, 63, 119
6, 235200, Note_on_c, 5, 63, 119
6, 235890, Note_off_c, 5, 63, 119
6, 235920, Note_on_c, 5, 63, 119
6, 236150, Note_off_c, 5, 63, 119
6, 236160, Note_on_c, 5, 67, 119
6, 238020, Note_off_c, 5, 67, 119
6, 238080, Note_on_c, 5, 65, 119
6, 238770, Note_off_c, 5, 65, 119
6, 238800, Note_on_c, 5, 65, 119
6, 239030, Note_off_c, 5, 65, 119
6, 239040, Note_on_c, 5, 65, 119
6, 239730, Note_off_c, 5, 65, 119
6, 239760, Note_on_c, 5, 65, 119
6, 239990, Note_off_c, 5, 65, 119
6, 240000, Note_on_c, 5, 65, 119
6, 241860, Note_off_c, 5, 65, 119
6, 241920, Note_on_c, 5, 63, 119
6, 242610, Note_off_c, 5, 63, 119
6, 242640, Note_on_c, 5, 63, 119
6, 242870, Note_off_c, 5, 63, 119
6, 242880, Note_on_c, 5, 63, 119
6, 243570, Note_off_c, 5, 63, 119
6, 243600, Note_on_c, 5, 63, 119
6, 243830, Note_off_c, 5, 63, 119
6, 243840, Note_on_c, 5, 63, 119
6, 245700, Note_off_c, 5, 63, 119
6, 245760, Control_c, 5, 11, 99
6, 245760, Note_on_c, 5, 55, 93
6, 250790, Note_off_c, 5, 55, 93
6, 253440, Note_on_c, 5, 65, 93
6, 255300, Note_off_c, 5, 65, 93
6, 255360, Note_on_c, 5, 67, 93
6, 257220, Note_off_c, 5, 67, 93
6, 257280, Note_on_c, 5, 63, 93
6, 258470, Note_off_c, 5, 63, 93
6, 261120, Note_on_c, 5, 65, 93
6, 262980, Note_off_c, 5, 65, 93
6, 263040, Note_on_c, 5, 67, 93
6, 264900, Note_off_c, 5, 67, 93
6, 264960, Control_c, 5, 11, 105
6, 264960, Note_on_c, 5, 63, 97
6, 266150, Note_off_c, 5, 63, 97
6, 266880, Note_on_c, 5, 65, 97
6, 268070, Note_off_c, 5, 65, 97
6, 268800, Control_c, 5, 11, 99
6, 268800, Note_on_c, 5, 67, 93
6, 269990, Note_off_c, 5, 67, 93
6, 270720, Control_c, 5, 11, 95
6, 270720, Note_on_c, 5, 67, 89
6, 271910, Note_off_c, 5, 67, 89
6, 272640, Note_on_c, 5, 55, 89
6, 276360, Note_off_c, 5, 55, 89
6, 276480, Control_c, 5, 11, 105
6, 276480, Control_c, 5, 11, 119
6, 276480, Control_c, 5, 11, 86
6, 276480, End_track
7, 0, Start_track
7, 960, Control_c, 6, 64, 0
7, 960, Control_c, 6, 7, 127
7, 960, Control_c, 6, 10, 64
7, 1460, Program_c, 6, 60
7, 3820, Control_c, 6, 0, 0
7, 3830, Control_c, 6, 32, 0
7, 3840, Program_c, 6, 60
7, 7680, Control_c, 6, 1, 4
7, 7680, Control_c, 6, 7, 80
7, 7680, Control_c, 6, 91, 127
7, 7680, Control_c, 6, 93, 28
7, 11520, Control_c, 6, 10, 59
7, 19200, Control_c, 6, 11, 95
7, 19200, Note_on_c, 6, 62, 89
7, 22920, Note_off_c, 6, 62, 89
7, 23040, Note_on_c, 6, 60, 89
7, 24230, Note_off_c, 6, 60, 89
7, 26880, Control_c, 6, 11, 99
7, 26880, Note_on_c, 6, 67, 93
7, 30600, Note_off_c, 6, 67, 93
7, 30720, Note_on_c, 6, 62, 93
7, 31910, Note_off_c, 6, 62, 93
7, 34560, Note_on_c, 6, 60, 93
7, 38280, Note_off_c, 6, 60, 93
7, 38400, Note_on_c, 6, 62, 93
7, 39590, Note_off_c, 6, 62, 93
7, 49920, Note_on_c, 6, 62, 93
7, 53640, Note_off_c, 6, 62, 93
7, 53760, Note_on_c, 6, 60, 93
7, 54950, Note_off_c, 6, 60, 93
7, 61440, Note_on_c, 6, 48, 93
7, 66470, Note_off_c, 6, 48, 93
7, 69120, Note_on_c, 6, 48, 93
7, 74150, Note_off_c, 6, 48, 93
7, 138240, Control_c, 6, 11, 105
7, 138240, Note_on_c, 6, 48, 97
7, 141960, Note_off_c, 6, 48, 97
7, 142080, Note_on_c, 6, 48, 97
7, 143940, Note_off_c, 6, 48, 97
7, 144000, Note_on_c, 6, 48, 97
7, 144930, Note_off_c, 6, 48, 97
7, 144960, Note_on_c, 6, 48, 97
7, 145890, Note_off_c, 6, 48, 97
7, 145920, Note_on_c, 6, 48, 97
7, 148710, Note_off_c, 6, 48, 97
7, 148800, Note_on_c, 6, 48, 97
7, 149730, Note_off_c, 6, 48, 97
7, 149760, Note_on_c, 6, 55, 97
7, 153480, Note_off_c, 6, 55, 97
7, 153600, Note_on_c, 6, 48, 97
7, 155750, Note_off_c, 6, 48, 97
7, 157440, Note_on_c, 6, 62, 97
7, 161160, Note_off_c, 6, 62, 97
7, 161280, Note_on_c, 6, 55, 97
7, 163140, Note_off_c, 6, 55, 97
7, 163200, Note_on_c, 6, 55, 97
7, 164130, Note_off_c, 6, 55, 97
7, 164160, Note_on_c, 6, 55, 97
7, 165090, Note_off_c, 6, 55, 97
7, 165120, Note_on_c, 6, 48, 97
7, 167270, Note_off_c, 6, 48, 97
7, 192000, Control_c, 6, 11, 99
7, 192000, Note_on_c, 6, 55, 93
7, 194610, Note_off_c, 6, 55, 93
7, 194640, Note_on_c, 6, 48, 93
7, 194870, Note_off_c, 6, 48, 93
7, 194880, Note_on_c, 6, 48, 93
7, 195570, Note_off_c, 6, 48, 93
7, 195600, Note_on_c, 6, 48, 93
7, 195830, Note_off_c, 6, 48, 93
7, 195840, Note_on_c, 6, 55, 93
7, 198450, Note_off_c, 6, 55, 93
7, 198480, Note_on_c, 6, 48, 93
7, 198710, Note_off_c, 6, 48, 93
7, 198720, Note_on_c, 6, 48, 93
7, 199410, Note_off_c, 6, 48, 93
7, 199440, Note_on_c, 6, 48, 93
7, 199670, Note_off_c, 6, 48, 93
7, 199680, Note_on_c, 6, 55, 93
7, 200870, Note_off_c, 6, 55, 93
7, 203520, Note_on_c, 6, 48, 93
7, 207240, Note_off_c, 6, 48, 93
7, 207360, Note_on_c, 6, 43, 93
7, 208550, Note_off_c, 6, 43, 93
7, 211200, Note_on_c, 6, 62, 93
7, 214920, Note_off_c, 6, 62, 93
7, 215040, Note_on_c, 6, 60, 93
7, 215970, Note_off_c, 6, 60, 93
7, 216000, Note_on_c, 6, 48, 93
7, 217860, Note_off_c, 6, 48, 93
7, 217920, Note_on_c, 6, 48, 93
7, 218850, Note_off_c, 6, 48, 93
7, 218880, Note_on_c, 6, 48, 93
7, 220070, Note_off_c, 6, 48, 93
7, 222720, Note_on_c, 6, 48, 93
7, 227750, Note_off_c, 6, 48, 93
7, 230400, Note_on_c, 6, 48, 93
7, 234930, Note_off_c, 6, 48, 93
7, 234960, Note_on_c, 6, 48, 93
7, 235190, Note_off_c, 6, 48, 93
7, 235200, Note_on_c, 6, 48, 93
7, 235890, Note_off_c, 6, 48, 93
7, 235920, Note_on_c, 6, 48, 93
7, 236150, Note_off_c, 6, 48, 93
7, 236160, Note_on_c, 6, 48, 93
7, 238770, Note_off_c, 6, 48, 93
7, 238800, Note_on_c, 6, 48, 93
7, 239030, Note_off_c, 6, 48, 93
7, 239040, Note_on_c, 6, 48, 93
7, 239730, Note_off_c, 6, 48, 93
7, 239760, Note_on_c, 6, 48, 93
7, 239990, Note_off_c, 6, 48, 93
7, 240000, Note_on_c, 6, 48, 93
7, 242610, Note_off_c, 6, 48, 93
7, 242640, Note_on_c, 6, 48, 93
7, 242870, Note_off_c, 6, 48, 93
7, 242880, Note_on_c, 6, 48, 93
7, 243570, Note_off_c, 6, 48, 93
7, 243600, Note_on_c, 6, 48, 93
7, 243830, Note_off_c, 6, 48, 93
7, 243840, Note_on_c, 6, 48, 93
7, 245700, Note_off_c, 6, 48, 93
7, 245760, Control_c, 6, 11, 105
7, 245760, Note_on_c, 6, 43, 97
7, 249480, Note_off_c, 6, 43, 97
7, 249600, Note_on_c, 6, 48, 97
7, 251460, Note_off_c, 6, 48, 97
7, 251520, Note_on_c, 6, 60, 97
7, 253380, Note_off_c, 6, 60, 97
7, 257280, Note_on_c, 6, 60, 97
7, 261000, Note_off_c, 6, 60, 97
7, 264960, Control_c, 6, 11, 95
7, 264960, Note_on_c, 6, 60, 89
7, 266150, Note_off_c, 6, 60, 89
7, 266880, Note_on_c, 6, 60, 89
7, 268070, Note_off_c, 6, 60, 89
7, 268800, Note_on_c, 6, 60, 89
7, 269990, Note_off_c, 6, 60, 89
7, 270720, Control_c, 6, 11, 91
7, 270720, Note_on_c, 6, 55, 87
7, 271910, Note_off_c, 6, 55, 87
7, 272640, Note_on_c, 6, 48, 87
7, 276360, Note_off_c, 6, 48, 87
7, 276480, Control_c, 6, 11, 99
7, 276480, Control_c, 6, 11, 119
7, 276480, Control_c, 6, 11, 86
7, 276480, End_track
8, 0, Start_track
8, 960, Control_c, 7, 64, 0
8, 960, Control_c, 7, 7, 127
8, 960, Control_c, 7, 10, 64
8, 1460, Program_c, 7, 60
8, 3820, Control_c, 7, 0, 0
8, 3830, Control_c, 7, 32, 0
8, 3840, Program_c, 7, 58
8, 7680, Control_c, 7, 1, 4
8, 7680, Control_c, 7, 7, 70
8, 7683, Control_c, 7, 91, 127
8, 7685, Control_c, 7, 93, 23
8, 11520, Control_c, 7, 10, 80
8, 19200, Control_c, 7, 11, 95
8, 19200, Note_on_c, 7, 65, 67
8, 22920, Note_off_c, 7, 65, 67
8, 23040, Note_on_c, 7, 63, 67
8, 24230, Note_off_c, 7, 63, 67
8, 26880, Control_c, 7, 11, 99
8, 26880, Note_on_c, 7, 63, 71
8, 30600, Note_off_c, 7, 63, 71
8, 30720, Note_on_c, 7, 65, 71
8, 31910, Note_off_c, 7, 65, 71
8, 34560, Note_on_c, 7, 63, 71
8, 38280, Note_off_c, 7, 63, 71
8, 38400, Note_on_c, 7, 55, 71
8, 39590, Note_off_c, 7, 55, 71
8, 49920, Note_on_c, 7, 65, 71
8, 53640, Note_off_c, 7, 65, 71
8, 53760, Note_on_c, 7, 63, 71
8, 54950, Note_off_c, 7, 63, 71
8, 61440, Note_on_c, 7, 65, 71
8, 65160, Note_off_c, 7, 65, 71
8, 65280, Note_on_c, 7, 63, 71
8, 66470, Note_off_c, 7, 63, 71
8, 69120, Note_on_c, 7, 65, 71
8, 72840, Note_off_c, 7, 65, 71
8, 72960, Note_on_c, 7, 63, 71
8, 74150, Note_off_c, 7, 63, 71
8, 76800, Control_c, 7, 11, 127
8, 76800, Note_on_c, 7, 58, 97
8, 77730, Note_off_c, 7, 58, 97
8, 77760, Note_on_c, 7, 58, 97
8, 78690, Note_off_c, 7, 58, 97
8, 78720, Note_on_c, 7, 58, 97
8, 79650, Note_off_c, 7, 58, 97
8, 79680, Note_on_c, 7, 58, 97
8, 80610, Note_off_c, 7, 58, 97
8, 80640, Note_on_c, 7, 58, 97
8, 81830, Note_off_c, 7, 58, 97
8, 83280, Note_on_c, 7, 51, 97
8, 83280, Note_on_c, 7, 51, 97
8, 83510, Note_off_c, 7, 51, 97
8, 83510, Note_off_c, 7, 51, 97
8, 83520, Note_on_c, 7, 55, 97
8, 83520, Note_on_c, 7, 55, 97
8, 84210, Note_off_c, 7, 55, 97
8, 84210, Note_off_c, 7, 55, 97
8, 84240, Note_on_c, 7, 51, 97
8, 84240, Note_on_c, 7, 51, 97
8, 84470, Note_off_c, 7, 51, 97
8, 84470, Note_off_c, 7, 51, 97
8, 84480, Note_on_c, 7, 58, 97
8, 84480, Note_on_c, 7, 58, 97
8, 85410, Note_off_c, 7, 58, 97
8, 85410, Note_off_c, 7, 58, 97
8, 85440, Note_on_c, 7, 46, 97
8, 85440, Note_on_c, 7, 46, 97
8, 86630, Note_off_c, 7, 46, 97
8, 86630, Note_off_c, 7, 46, 97
8, 87120, Note_on_c, 7, 46, 97
8, 87120, Note_on_c, 7, 46, 97
8, 87350, Note_off_c, 7, 46, 97
8, 87350, Note_off_c, 7, 46, 97
8, 87360, Note_on_c, 7, 50, 97
8, 87360, Note_on_c, 7, 50, 97
8, 88050, Note_off_c, 7, 50, 97
8, 88050, Note_off_c, 7, 50, 97
8, 88080, Note_on_c, 7, 46, 97
8, 88080, Note_on_c, 7, 46, 97
8, 88310, Note_off_c, 7, 46, 97
8, 88310, Note_off_c, 7, 46, 97
8, 88320, Note_on_c, 7, 51, 97
8, 88320, Note_on_c, 7, 51, 97
8, 89510, Note_off_c, 7, 51, 97
8, 89510, Note_off_c, 7, 51, 97
8, 93120, Control_c, 7, 11, 119
8, 93120, Note_on_c, 7, 46, 89
8, 95270, Note_off_c, 7, 46, 89
8, 96960, Note_on_c, 7, 46, 89
8, 99110, Note_off_c, 7, 46, 89
8, 142080, Note_on_c, 7, 55, 89
8, 143940, Note_off_c, 7, 55, 89
8, 144000, Note_on_c, 7, 55, 89
8, 144930, Note_off_c, 7, 55, 89
8, 144960, Note_on_c, 7, 55, 89
8, 145890, Note_off_c, 7, 55, 89
8, 145920, Note_on_c, 7, 55, 89
8, 148710, Note_off_c, 7, 55, 89
8, 148800, Note_on_c, 7, 55, 89
8, 149730, Note_off_c, 7, 55, 89
8, 149760, Note_on_c, 7, 51, 89
8, 153480, Note_off_c, 7, 51, 89
8, 153600, Note_on_c, 7, 55, 89
8, 155750, Note_off_c, 7, 55, 89
8, 157440, Note_on_c, 7, 46, 89
8, 161160, Note_off_c, 7, 46, 89
8, 161280, Note_on_c, 7, 51, 89
8, 163140, Note_off_c, 7, 51, 89
8, 163200, Note_on_c, 7, 51, 89
8, 164130, Note_off_c, 7, 51, 89
8, 164160, Note_on_c, 7, 51, 89
8, 165090, Note_off_c, 7, 51, 89
8, 165120, Note_on_c, 7, 55, 89
8, 166980, Note_off_c, 7, 55, 89
8, 167040, Note_on_c, 7, 46, 89
8, 168900, Note_off_c, 7, 46, 89
8, 168960, Note_on_c, 7, 51, 89
8, 170820, Note_off_c, 7, 51, 89
8, 170880, Note_on_c, 7, 32, 89
8, 172740, Note_off_c, 7, 32, 89
8, 172800, Control_c, 7, 11, 99
8, 172800, Note_on_c, 7, 34, 71
8, 176520, Note_off_c, 7, 34, 71
8, 176640, Note_on_c, 7, 27, 71
8, 177830, Note_off_c, 7, 27, 71
8, 192000, Control_c, 7, 11, 127
8, 192000, Note_on_c, 7, 67, 97
8, 194610, Note_off_c, 7, 67, 97
8, 194640, Note_on_c, 7, 63, 97
8, 194870, Note_off_c, 7, 63, 97
8, 194880, Note_on_c, 7, 67, 97
8, 195570, Note_off_c, 7, 67, 97
8, 195600, Note_on_c, 7, 63, 97
8, 195830, Note_off_c, 7, 63, 97
8, 195840, Note_on_c, 7, 67, 97
8, 198450, Note_off_c, 7, 67, 97
8, 198480, Note_on_c, 7, 63, 97
8, 198710, Note_off_c, 7, 63, 97
8, 198720, Note_on_c, 7, 67, 97
8, 199410, Note_off_c, 7, 67, 97
8, 199440, Note_on_c, 7, 63, 97
8, 199670, Note_off_c, 7, 63, 97
8, 199680, Note_on_c, 7, 67, 97
8, 200870, Note_off_c, 7, 67, 97
8, 203520, Note_on_c, 7, 55, 97
8, 208550, Note_off_c, 7, 55, 97
8, 211200, Note_on_c, 7, 65, 97
8, 214920, Note_off_c, 7, 65, 97
8, 215040, Note_on_c, 7, 63, 97
8, 215970, Note_off_c, 7, 63, 97
8, 216000, Note_on_c, 7, 55, 97
8, 217860, Note_off_c, 7, 55, 97
8, 217920, Note_on_c, 7, 55, 97
8, 218850, Note_off_c, 7, 55, 97
8, 218880, Note_on_c, 7, 55, 97
8, 220070, Note_off_c, 7, 55, 97
8, 222720, Control_c, 7, 11, 105
8, 222720, Note_on_c, 7, 65, 75
8, 226440, Note_off_c, 7, 65, 75
8, 226560, Note_on_c, 7, 63, 75
8, 227750, Note_off_c, 7, 63, 75
8, 230400, Note_on_c, 7, 65, 75
8, 234120, Note_off_c, 7, 65, 75
8, 234240, Control_c, 7, 11, 127
8, 234240, Note_on_c, 7, 63, 97
8, 234930, Note_off_c, 7, 63, 97
8, 234960, Note_on_c, 7, 63, 97
8, 235190, Note_off_c, 7, 63, 97
8, 235200, Note_on_c, 7, 63, 97
8, 235890, Note_off_c, 7, 63, 97
8, 235920, Note_on_c, 7, 63, 97
8, 236150, Note_off_c, 7, 63, 97
8, 236160, Note_on_c, 7, 67, 97
8, 238020, Note_off_c, 7, 67, 97
8, 238080, Note_on_c, 7, 65, 97
8, 238770, Note_off_c, 7, 65, 97
8, 238800, Note_on_c, 7, 65, 97
8, 239030, Note_off_c, 7, 65, 97
8, 239040, Note_on_c, 7, 65, 97
8, 239730, Note_off_c, 7, 65, 97
8, 239760, Note_on_c, 7, 65, 97
8, 239990, Note_off_c, 7, 65, 97
8, 240000, Note_on_c, 7, 65, 97
8, 241860, Note_off_c, 7, 65, 97
8, 241920, Note_on_c, 7, 63, 97
8, 242610, Note_off_c, 7, 63, 97
8, 242640, Note_on_c, 7, 63, 97
8, 242870, Note_off_c, 7, 63, 97
8, 242880, Note_on_c, 7, 63, 97
8, 243570, Note_off_c, 7, 63, 97
8, 243600, Note_on_c, 7, 63, 97
8, 243830, Note_off_c, 7, 63, 97
8, 243840, Note_on_c, 7, 63, 97
8, 245700, Note_off_c, 7, 63, 97
8, 245760, Control_c, 7, 11, 99
8, 245760, Note_on_c, 7, 55, 71
8, 250790, Note_off_c, 7, 55, 71
8, 253440, Note_on_c, 7, 65, 71
8, 255300, Note_off_c, 7, 65, 71
8, 255360, Note_on_c, 7, 67, 71
8, 257220, Note_off_c, 7, 67, 71
8, 257280, Note_on_c, 7, 63, 71
8, 258470, Note_off_c, 7, 63, 71
8, 261120, Note_on_c, 7, 65, 71
8, 262980, Note_off_c, 7, 65, 71
8, 263040, Note_on_c, 7, 67, 71
8, 264900, Note_off_c, 7, 67, 71
8, 264960, Control_c, 7, 11, 105
8, 264960, Note_on_c, 7, 63, 75
8, 266150, Note_off_c, 7, 63, 75
8, 266880, Note_on_c, 7, 65, 75
8, 268070, Note_off_c, 7, 65, 75
8, 268800, Control_c, 7, 11, 99
8, 268800, Note_on_c, 7, 67, 71
8, 269990, Note_off_c, 7, 67, 71
8, 270720, Control_c, 7, 11, 95
8, 270720, Note_on_c, 7, 67, 67
8, 271910, Note_off_c, 7, 67, 67
8, 272640, Note_on_c, 7, 55, 67
8, 276360, Note_off_c, 7, 55, 67
8, 276480, Control_c, 7, 11, 105
8, 276480, Control_c, 7, 11, 119
8, 276480, Control_c, 7, 11, 86
8, 276480, End_track
9, 0, Start_track
9, 960, Control_c, 8, 64, 0
9, 960, Control_c, 8, 7, 127
9, 960, Control_c, 8, 10, 64
9, 1460, Program_c, 8, 60
9, 3820, Control_c, 8, 0, 0
9, 3830, Control_c, 8, 32, 0
9, 3840, Program_c, 8, 58
9, 7680, Control_c, 8, 1, 4
9, 7680, Control_c, 8, 7, 67
9, 7680, Control_c, 8, 91, 127
9, 7680, Control_c, 8, 93, 28
9, 11520, Control_c, 8, 10, 82
9, 19200, Control_c, 8, 11, 95
9, 19200, Note_on_c, 8, 62, 70
9, 22920, Note_off_c, 8, 62, 70
9, 23040, Note_on_c, 8, 60, 70
9, 24230, Note_off_c, 8, 60, 70
9, 26880, Control_c, 8, 11, 99
9, 26880, Note_on_c, 8, 67, 74
9, 30600, Note_off_c, 8, 67, 74
9, 30720, Note_on_c, 8, 62, 74
9, 31910, Note_off_c, 8, 62, 74
9, 34560, Note_on_c, 8, 60, 74
9, 38280, Note_off_c, 8, 60, 74
9, 38400, Note_on_c, 8, 62, 74
9, 39590, Note_off_c, 8, 62, 74
9, 49920, Note_on_c, 8, 62, 74
9, 53640, Note_off_c, 8, 62, 74
9, 53760, Note_on_c, 8, 60, 74
9, 54950, Note_off_c, 8, 60, 74
9, 61440, Note_on_c, 8, 48, 74
9, 66470, Note_off_c, 8, 48, 74
9, 69120, Note_on_c, 8, 48, 74
9, 74150, Note_off_c, 8, 48, 74
9, 138240, Control_c, 8, 11, 105
9, 138240, Note_on_c, 8, 48, 78
9, 141960, Note_off_c, 8, 48, 78
9, 142080, Note_on_c, 8, 48, 78
9, 143940, Note_off_c, 8, 48, 78
9, 144000, Note_on_c, 8, 48, 78
9, 144930, Note_off_c, 8, 48, 78
9, 144960, Note_on_c, 8, 48, 78
9, 145890, Note_off_c, 8, 48, 78
9, 145920, Note_on_c, 8, 48, 78
9, 148710, Note_off_c, 8, 48, 78
9, 148800, Note_on_c, 8, 48, 78
9, 149730, Note_off_c, 8, 48, 78
9, 149760, Note_on_c, 8, 55, 78
9, 153480, Note_off_c, 8, 55, 78
9, 153600, Note_on_c, 8, 48, 78
9, 155750, Note_off_c, 8, 48, 78
9, 157440, Note_on_c, 8, 62, 78
9, 161160, Note_off_c, 8, 62, 78
9, 161280, Note_on_c, 8, 55, 78
9, 163140, Note_off_c, 8, 55, 78
9, 163200, Note_on_c, 8, 55, 78
9, 164130, Note_off_c, 8, 55, 78
9, 164160, Note_on_c, 8, 55, 78
9, 165090, Note_off_c, 8, 55, 78
9, 165120, Note_on_c, 8, 48, 78
9, 167270, Note_off_c, 8, 48, 78
9, 192000, Control_c, 8, 11, 99
9, 192000, Note_on_c, 8, 55, 74
9, 194610, Note_off_c, 8, 55, 74
9, 194640, Note_on_c, 8, 48, 74
9, 194870, Note_off_c, 8, 48, 74
9, 194880, Note_on_c, 8, 48, 74
9, 195570, Note_off_c, 8, 48, 74
9, 195600, Note_on_c, 8, 48, 74
9, 195830, Note_off_c, 8, 48, 74
9, 195840, Note_on_c, 8, 55, 74
9, 198450, Note_off_c, 8, 55, 74
9, 198480, Note_on_c, 8, 48, 74
9, 198710, Note_off_c, 8, 48, 74
9, 198720, Note_on_c, 8, 48, 74
9, 199410, Note_off_c, 8, 48, 74
9, 199440, Note_on_c, 8, 48, 74
9, 199670, Note_off_c, 8, 48, 74
9, 199680, Note_on_c, 8, 55, 74
9, 200870, Note_off_c, 8, 55, 74
9, 203520, Note_on_c, 8, 48, 74
9, 207240, Note_off_c, 8, 48, 74
9, 207360, Note_on_c, 8, 43, 74
9, 208550, Note_off_c, 8, 43, 74
9, 211200, Note_on_c, 8, 62, 74
9, 214920, Note_off_c, 8, 62, 74
9, 215040, Note_on_c, 8, 60, 74
9, 215970, Note_off_c, 8, 60, 74
9, 216000, Note_on_c, 8, 48, 74
9, 217860, Note_off_c, 8, 48, 74
9, 217920, Note_on_c, 8, 48, 74
9, 218850, Note_off_c, 8, 48, 74
9, 218880, Note_on_c, 8, 48, 74
9, 220070, Note_off_c, 8, 48, 74
9, 222720, Note_on_c, 8, 48, 74
9, 227750, Note_off_c, 8, 48, 74
9, 230400, Note_on_c, 8, 48, 74
9, 234930, Note_off_c, 8, 48, 74
9, 234960, Note_on_c, 8, 48, 74
9, 235190, Note_off_c, 8, 48, 74
9, 235200, Note_on_c, 8, 48, 74
9, 235890, Note_off_c, 8, 48, 74
9, 235920, Note_on_c, 8, 48, 74
9, 236150, Note_off_c, 8, 48, 74
9, 236160, Note_on_c, 8, 48, 74
9, 238770, Note_off_c, 8, 48, 74
9, 238800, Note_on_c, 8, 48, 74
9, 239030, Note_off_c, 8, 48, 74
9, 239040, Note_on_c, 8, 48, 74
9, 239730, Note_off_c, 8, 48, 74
9, 239760, Note_on_c, 8, 48, 74
9, 239990, Note_off_c, 8, 48, 74
9, 240000, Note_on_c, 8, 48, 74
9, 242610, Note_off_c, 8, 48, 74
9, 242640, Note_on_c, 8, 48, 74
9, 242870, Note_off_c, 8, 48, 74
9, 242880, Note_on_c, 8, 48, 74
9, 243570, Note_off_c, 8, 48, 74
9, 243600, Note_on_c, 8, 48, 74
9, 243830, Note_off_c, 8, 48, 74
9, 243840, Note_on_c, 8, 48, 74
9, 245700, Note_off_c, 8, 48, 74
9, 245760, Control_c, 8, 11, 105
9, 245760, Note_on_c, 8, 43, 78
9, 249480, Note_off_c, 8, 43, 78
9, 249600, Note_on_c, 8, 48, 78
9, 251460, Note_off_c, 8, 48, 78
9, 251520, Note_on_c, 8, 60, 78
9, 253380, Note_off_c, 8, 60, 78
9, 257280, Note_on_c, 8, 60, 78
9, 261000, Note_off_c, 8, 60, 78
9, 264960, Control_c, 8, 11, 95
9, 264960, Note_on_c, 8, 60, 70
9, 266150, Note_off_c, 8, 60, 70
9, 266880, Note_on_c, 8, 60, 70
9, 268070, Note_off_c, 8, 60, 70
9, 268800, Note_on_c, 8, 60, 70
9, 269990, Note_off_c, 8, 60, 70
9, 270720, Control_c, 8, 11, 91
9, 270720, Note_on_c, 8, 55, 68
9, 271910, Note_off_c, 8, 55, 68
9, 272640, Note_on_c, 8, 48, 68
9, 276360, Note_off_c, 8, 48, 68
9, 276480, Control_c, 8, 11, 99
9, 276480, Control_c, 8, 11, 119
9, 276480, Control_c, 8, 11, 86
9, 276480, End_track
10, 0, Start_track
10, 960, Control_c, 9, 64, 0
10, 960, Control_c, 9, 7, 127
10, 960, Control_c, 9, 10, 64
10, 1460, Program_c, 9, 48
10, 3820, Control_c, 9, 0, 0
10, 3830, Control_c, 9, 32, 0
10, 3840, Program_c, 9, 47
10, 7680, Control_c, 9, 1, 0
10, 7680, Control_c, 9, 7, 92
10, 7680, Control_c, 9, 91, 127
10, 7680, Control_c, 9, 93, 35
10, 7680, Control_c, 9, 10, 76
10, 42240, Control_c, 9, 11, 95
10, 42240, Note_on_c, 9, 48, 72
10, 45600, Note_off_c, 9, 48, 72
10, 46080, Note_on_c, 9, 43, 72
10, 48600, Note_off_c, 9, 43, 72
10, 53760, Note_on_c, 9, 48, 72
10, 57120, Note_off_c, 9, 48, 72
10, 57600, Note_on_c, 9, 48, 72
10, 60960, Note_off_c, 9, 48, 72
10, 192000, Control_c, 9, 11, 119
10, 192000, Note_on_c, 9, 43, 94
10, 193680, Note_off_c, 9, 43, 94
10, 194880, Note_on_c, 9, 43, 94
10, 195720, Note_off_c, 9, 43, 94
10, 195840, Note_on_c, 9, 43, 94
10, 197520, Note_off_c, 9, 43, 94
10, 198720, Note_on_c, 9, 43, 94
10, 199560, Note_off_c, 9, 43, 94
10, 199680, Note_on_c, 9, 43, 94
10, 203040, Note_off_c, 9, 43, 94
10, 207360, Control_c, 9, 11, 105
10, 207360, Note_on_c, 9, 43, 80
10, 210720, Note_off_c, 9, 43, 80
10, 218880, Note_on_c, 9, 48, 80
10, 222240, Note_off_c, 9, 48, 80
10, 222720, Note_on_c, 9, 48, 80
10, 226080, Note_off_c, 9, 48, 80
10, 230400, Note_on_c, 9, 48, 80
10, 234870, Note_off_c, 9, 48, 80
10, 234960, Control_c, 9, 11, 119
10, 234960, Note_on_c, 9, 48, 94
10, 235170, Note_off_c, 9, 48, 94
10, 235200, Note_on_c, 9, 48, 94
10, 235830, Note_off_c, 9, 48, 94
10, 235920, Note_on_c, 9, 48, 94
10, 236130, Note_off_c, 9, 48, 94
10, 236160, Note_on_c, 9, 48, 94
10, 237840, Note_off_c, 9, 48, 94
10, 238800, Note_on_c, 9, 48, 94
10, 239010, Note_off_c, 9, 48, 94
10, 239040, Note_on_c, 9, 48, 94
10, 239670, Note_off_c, 9, 48, 94
10, 239760, Note_on_c, 9, 48, 94
10, 239970, Note_off_c, 9, 48, 94
10, 240000, Note_on_c, 9, 48, 94
10, 242550, Note_off_c, 9, 48, 94
10, 242640, Note_on_c, 9, 48, 94
10, 242850, Note_off_c, 9, 48, 94
10, 242880, Note_on_c, 9, 48, 94
10, 243510, Note_off_c, 9, 48, 94
10, 243600, Note_on_c, 9, 48, 94
10, 243810, Note_off_c, 9, 48, 94
10, 243840, Note_on_c, 9, 48, 94
10, 245520, Note_off_c, 9, 48, 94
10, 245760, Control_c, 9, 11, 86
10, 245760, Control_c, 9, 64, 127
10, 245760, Note_on_c, 9, 43, 63
10, 246600, Note_off_c, 9, 43, 63
10, 246720, Note_on_c, 9, 43, 63
10, 246820, Note_off_c, 9, 43, 63
10, 246840, Note_on_c, 9, 43, 63
10, 246940, Note_off_c, 9, 43, 63
10, 246960, Note_on_c, 9, 43, 63
10, 247060, Note_off_c, 9, 43, 63
10, 247080, Note_on_c, 9, 43, 63
10, 247180, Note_off_c, 9, 43, 63
10, 247200, Note_on_c, 9, 43, 63
10, 247300, Note_off_c, 9, 43, 63
10, 247320, Note_on_c, 9, 43, 63
10, 247420, Note_off_c, 9, 43, 63
10, 247440, Note_on_c, 9, 43, 63
10, 247540, Note_off_c, 9, 43, 63
10, 247560, Note_on_c, 9, 43, 63
10, 247660, Note_off_c, 9, 43, 63
10, 247680, Note_on_c, 9, 43, 63
10, 247780, Note_off_c, 9, 43, 63
10, 247800, Note_on_c, 9, 43, 63
10, 247900, Note_off_c, 9, 43, 63
10, 247920, Note_on_c, 9, 43, 63
10, 248020, Note_off_c, 9, 43, 63
10, 248040, Note_on_c, 9, 43, 63
10, 248140, Note_off_c, 9, 43, 63
10, 248160, Note_on_c, 9, 43, 63
10, 248260, Note_off_c, 9, 43, 63
10, 248280, Note_on_c, 9, 43, 63
10, 248380, Note_off_c, 9, 43, 63
10, 248400, Note_on_c, 9, 43, 63
10, 248500, Note_off_c, 9, 43, 63
10, 248520, Note_on_c, 9, 43, 63
10, 248620, Note_off_c, 9, 43, 63
10, 248640, Note_on_c, 9, 43, 63
10, 248740, Note_off_c, 9, 43, 63
10, 248760, Note_on_c, 9, 43, 63
10, 248860, Note_off_c, 9, 43, 63
10, 248880, Note_on_c, 9, 43, 63
10, 248980, Note_off_c, 9, 43, 63
10, 249000, Note_on_c, 9, 43, 63
10, 249100, Note_off_c, 9, 43, 63
10, 249120, Note_on_c, 9, 43, 63
10, 249220, Note_off_c, 9, 43, 63
10, 249240, Note_on_c, 9, 43, 63
10, 249340, Note_off_c, 9, 43, 63
10, 249360, Note_on_c, 9, 43, 63
10, 249460, Note_off_c, 9, 43, 63
10, 249480, Note_on_c, 9, 43, 63
10, 249580, Note_off_c, 9, 43, 63
10, 249600, Note_on_c, 9, 48, 63
10, 252960, Note_off_c, 9, 48, 63
10, 272640, Note_on_c, 9, 48, 63
10, 276360, Note_off_c, 9, 48, 63
10, 276480, End_track
11, 0, Start_track
11, 960, Control_c, 10, 64, 0
11, 960, Control_c, 10, 7, 127
11, 960, Control_c, 10, 10, 64
11, 1460, Program_c, 10, 48
11, 3820, Control_c, 10, 0, 0
11, 3830, Control_c, 10, 32, 0
11, 3840, Program_c, 10, 48
11, 7680, Control_c, 10, 1, 0
11, 7680, Control_c, 10, 7, 96
11, 7680, Control_c, 10, 91, 127
11, 7680, Control_c, 10, 93, 6
11, 7680, Control_c, 10, 10, 44
11, 38880, Control_c, 10, 11, 99
11, 38880, Note_on_c, 10, 68, 86
11, 39300, Note_off_c, 10, 68, 86
11, 39360, Note_on_c, 10, 67, 86
11, 39780, Note_off_c, 10, 67, 86
11, 39840, Note_on_c, 10, 66, 86
11, 40260, Note_off_c, 10, 66, 86
11, 40320, Note_on_c, 10, 67, 86
11, 40740, Note_off_c, 10, 67, 86
11, 40800, Note_on_c, 10, 62, 86
11, 41220, Note_off_c, 10, 62, 86
11, 41280, Note_on_c, 10, 63, 86
11, 41700, Note_off_c, 10, 63, 86
11, 41760, Note_on_c, 10, 59, 86
11, 42180, Note_off_c, 10, 59, 86
11, 42240, Note_on_c, 10, 60, 86
11, 42660, Note_off_c, 10, 60, 86
11, 42720, Note_on_c, 10, 63, 86
11, 43140, Note_off_c, 10, 63, 86
11, 43200, Note_on_c, 10, 68, 86
11, 43620, Note_off_c, 10, 68, 86
11, 43680, Note_on_c, 10, 67, 86
11, 44100, Note_off_c, 10, 67, 86
11, 44160, Note_on_c, 10, 66, 86
11, 44580, Note_off_c, 10, 66, 86
11, 44640, Note_on_c, 10, 69, 86
11, 45060, Note_off_c, 10, 69, 86
11, 45120, Note_on_c, 10, 72, 86
11, 45540, Note_off_c, 10, 72, 86
11, 45600, Note_on_c, 10, 78, 86
11, 46020, Note_off_c, 10, 78, 86
11, 46080, Note_on_c, 10, 79, 86
11, 46500, Note_off_c, 10, 79, 86
11, 46560, Note_on_c, 10, 80, 86
11, 46980, Note_off_c, 10, 80, 86
11, 47040, Note_on_c, 10, 77, 86
11, 47460, Note_off_c, 10, 77, 86
11, 47520, Note_on_c, 10, 74, 86
11, 47940, Note_off_c, 10, 74, 86
11, 48000, Note_on_c, 10, 71, 86
11, 48420, Note_off_c, 10, 71, 86
11, 48480, Note_on_c, 10, 68, 86
11, 48900, Note_off_c, 10, 68, 86
11, 48960, Note_on_c, 10, 65, 86
11, 49380, Note_off_c, 10, 65, 86
11, 49440, Note_on_c, 10, 62, 86
11, 49860, Note_off_c, 10, 62, 86
11, 49920, Note_on_c, 10, 56, 86
11, 50340, Note_off_c, 10, 56, 86
11, 50400, Note_on_c, 10, 55, 86
11, 50820, Note_off_c, 10, 55, 86
11, 50880, Note_on_c, 10, 59, 86
11, 51300, Note_off_c, 10, 59, 86
11, 51360, Note_on_c, 10, 62, 86
11, 51780, Note_off_c, 10, 62, 86
11, 51840, Note_on_c, 10, 67, 86
11, 52260, Note_off_c, 10, 67, 86
11, 52320, Note_on_c, 10, 71, 86
11, 52740, Note_off_c, 10, 71, 86
11, 52800, Note_on_c, 10, 74, 86
11, 53220, Note_off_c, 10, 74, 86
11, 53280, Note_on_c, 10, 79, 86
11, 53700, Note_off_c, 10, 79, 86
11, 53760, Note_on_c, 10, 80, 86
11, 54180, Note_off_c, 10, 80, 86
11, 54240, Note_on_c, 10, 79, 86
11, 54660, Note_off_c, 10, 79, 86
11, 54720, Note_on_c, 10, 74, 86
11, 55140, Note_off_c, 10, 74, 86
11, 55200, Note_on_c, 10, 75, 86
11, 55620, Note_off_c, 10, 75, 86
11, 55680, Note_on_c, 10, 71, 86
11, 56100, Note_off_c, 10, 71, 86
11, 56160, Note_on_c, 10, 72, 86
11, 56580, Note_off_c, 10, 72, 86
11, 56640, Note_on_c, 10, 66, 86
11, 57060, Note_off_c, 10, 66, 86
11, 57120, Note_on_c, 10, 67, 86
11, 57540, Note_off_c, 10, 67, 86
11, 57600, Note_on_c, 10, 63, 86
11, 58770, Note_off_c, 10, 63, 86
11, 61920, Note_on_c, 10, 74, 86
11, 62340, Note_off_c, 10, 74, 86
11, 62400, Note_on_c, 10, 77, 86
11, 62820, Note_off_c, 10, 77, 86
11, 62880, Note_on_c, 10, 77, 86
11, 63300, Note_off_c, 10, 77, 86
11, 63360, Note_on_c, 10, 77, 86
11, 64620, Note_off_c, 10, 77, 86
11, 64800, Note_on_c, 10, 79, 86
11, 64900, Note_off_c, 10, 79, 86
11, 64920, Note_on_c, 10, 77, 86
11, 65020, Note_off_c, 10, 77, 86
11, 65040, Note_on_c, 10, 75, 86
11, 65140, Note_off_c, 10, 75, 86
11, 65160, Note_on_c, 10, 74, 86
11, 65260, Note_off_c, 10, 74, 86
11, 65280, Note_on_c, 10, 75, 86
11, 66450, Note_off_c, 10, 75, 86
11, 69600, Note_on_c, 10, 71, 86
11, 70020, Note_off_c, 10, 71, 86
11, 70080, Note_on_c, 10, 80, 86
11, 70500, Note_off_c, 10, 80, 86
11, 70560, Note_on_c, 10, 80, 86
11, 70980, Note_off_c, 10, 80, 86
11, 71040, Note_on_c, 10, 80, 86
11, 72300, Note_off_c, 10, 80, 86
11, 72480, Note_on_c, 10, 79, 86
11, 72580, Note_off_c, 10, 79, 86
11, 72600, Note_on_c, 10, 77, 86
11, 72700, Note_off_c, 10, 77, 86
11, 72720, Note_on_c, 10, 75, 86
11, 72820, Note_off_c, 10, 75, 86
11, 72840, Note_on_c, 10, 74, 86
11, 72940, Note_off_c, 10, 74, 86
11, 72960, Note_on_c, 10, 75, 86
11, 74130, Note_off_c, 10, 75, 86
11, 79200, Control_c, 10, 11, 105
11, 79200, Note_on_c, 10, 70, 90
11, 79620, Note_off_c, 10, 70, 90
11, 79680, Note_on_c, 10, 82, 90
11, 80100, Note_off_c, 10, 82, 90
11, 80160, Note_on_c, 10, 82, 90
11, 80580, Note_off_c, 10, 82, 90
11, 80640, Note_on_c, 10, 82, 90
11, 81480, Note_off_c, 10, 82, 90
11, 81600, Note_on_c, 10, 82, 90
11, 82230, Note_off_c, 10, 82, 90
11, 82320, Note_on_c, 10, 79, 90
11, 82420, Note_off_c, 10, 79, 90
11, 82440, Note_on_c, 10, 75, 90
11, 82540, Note_off_c, 10, 75, 90
11, 82560, Note_on_c, 10, 70, 90
11, 82980, Note_off_c, 10, 70, 90
11, 83040, Note_on_c, 10, 70, 90
11, 83460, Note_off_c, 10, 70, 90
11, 83520, Note_on_c, 10, 82, 90
11, 83940, Note_off_c, 10, 82, 90
11, 84000, Note_on_c, 10, 82, 90
11, 84420, Note_off_c, 10, 82, 90
11, 84480, Note_on_c, 10, 82, 90
11, 86130, Note_off_c, 10, 82, 90
11, 86160, Note_on_c, 10, 77, 90
11, 86260, Note_off_c, 10, 77, 90
11, 86280, Note_on_c, 10, 74, 90
11, 86380, Note_off_c, 10, 74, 90
11, 86400, Note_on_c, 10, 70, 90
11, 86820, Note_off_c, 10, 70, 90
11, 86880, Note_on_c, 10, 70, 90
11, 87300, Note_off_c, 10, 70, 90
11, 87360, Note_on_c, 10, 82, 90
11, 87780, Note_off_c, 10, 82, 90
11, 87840, Note_on_c, 10, 82, 90
11, 88260, Note_off_c, 10, 82, 90
11, 88320, Note_on_c, 10, 82, 90
11, 88740, Note_off_c, 10, 82, 90
11, 88800, Note_on_c, 10, 70, 90
11, 89640, Note_off_c, 10, 70, 90
11, 89760, Note_on_c, 10, 71, 90
11, 90660, Note_off_c, 10, 71, 90
11, 90720, Note_on_c, 10, 70, 90
11, 91560, Note_off_c, 10, 70, 90
11, 91680, Note_on_c, 10, 69, 90
11, 92100, Note_off_c, 10, 69, 90
11, 92160, Note_on_c, 10, 70, 90
11, 93330, Note_off_c, 10, 70, 90
11, 95040, Note_on_c, 10, 72, 90
11, 95670, Note_off_c, 10, 72, 90
11, 95760, Note_on_c, 10, 70, 90
11, 95970, Note_off_c, 10, 70, 90
11, 96000, Note_on_c, 10, 70, 90
11, 97170, Note_off_c, 10, 70, 90
11, 98880, Note_on_c, 10, 72, 90
11, 99510, Note_off_c, 10, 72, 90
11, 99600, Note_on_c, 10, 70, 90
11, 99810, Note_off_c, 10, 70, 90
11, 99840, Control_c, 10, 11, 99
11, 99840, Note_on_c, 10, 70, 86
11, 100680, Note_off_c, 10, 70, 86
11, 100800, Note_on_c, 10, 70, 86
11, 102480, Note_off_c, 10, 70, 86
11, 102720, Note_on_c, 10, 70, 86
11, 104100, Note_off_c, 10, 70, 86
11, 104160, Control_c, 10, 11, 91
11, 104160, Note_on_c, 10, 75, 80
11, 104790, Note_off_c, 10, 75, 80
11, 105120, Note_on_c, 10, 70, 80
11, 105330, Note_off_c, 10, 70, 80
11, 105360, Note_on_c, 10, 67, 80
11, 105570, Note_off_c, 10, 67, 80
11, 105600, Note_on_c, 10, 65, 80
11, 106020, Note_off_c, 10, 65, 80
11, 106080, Note_on_c, 10, 72, 80
11, 106710, Note_off_c, 10, 72, 80
11, 107040, Note_on_c, 10, 70, 80
11, 107250, Note_off_c, 10, 70, 80
11, 107280, Note_on_c, 10, 65, 80
11, 107490, Note_off_c, 10, 65, 80
11, 107520, Note_on_c, 10, 67, 80
11, 107940, Note_off_c, 10, 67, 80
11, 108000, Note_on_c, 10, 70, 80
11, 108630, Note_off_c, 10, 70, 80
11, 108960, Note_on_c, 10, 75, 80
11, 109170, Note_off_c, 10, 75, 80
11, 109200, Note_on_c, 10, 70, 80
11, 109410, Note_off_c, 10, 70, 80
11, 109440, Note_on_c, 10, 79, 80
11, 109860, Note_off_c, 10, 79, 80
11, 109920, Note_on_c, 10, 70, 80
11, 110340, Note_off_c, 10, 70, 80
11, 110400, Note_on_c, 10, 71, 80
11, 110820, Note_off_c, 10, 71, 80
11, 110880, Note_on_c, 10, 77, 80
11, 111300, Note_off_c, 10, 77, 80
11, 111360, Note_on_c, 10, 75, 80
11, 111780, Note_off_c, 10, 75, 80
11, 111840, Note_on_c, 10, 72, 80
11, 112470, Note_off_c, 10, 72, 80
11, 112800, Note_on_c, 10, 72, 80
11, 113010, Note_off_c, 10, 72, 80
11, 113040, Note_on_c, 10, 67, 80
11, 113250, Note_off_c, 10, 67, 80
11, 113280, Note_on_c, 10, 75, 80
11, 113700, Note_off_c, 10, 75, 80
11, 113760, Note_on_c, 10, 72, 80
11, 114180, Note_off_c, 10, 72, 80
11, 114240, Note_on_c, 10, 73, 80
11, 114660, Note_off_c, 10, 73, 80
11, 114720, Note_on_c, 10, 64, 80
11, 115140, Note_off_c, 10, 64, 80
11, 115200, Note_on_c, 10, 65, 80
11, 115620, Note_off_c, 10, 65, 80
11, 115680, Note_on_c, 10, 72, 80
11, 116310, Note_off_c, 10, 72, 80
11, 116640, Note_on_c, 10, 72, 80
11, 116850, Note_off_c, 10, 72, 80
11, 116880, Note_on_c, 10, 63, 80
11, 117090, Note_off_c, 10, 63, 80
11, 117120, Note_on_c, 10, 62, 80
11, 117540, Note_off_c, 10, 62, 80
11, 117600, Note_on_c, 10, 72, 80
11, 118020, Note_off_c, 10, 72, 80
11, 118080, Note_on_c, 10, 70, 80
11, 118500, Note_off_c, 10, 70, 80
11, 118560, Note_on_c, 10, 68, 80
11, 118980, Note_off_c, 10, 68, 80
11, 119040, Note_on_c, 10, 67, 80
11, 119460, Note_off_c, 10, 67, 80
11, 119520, Note_on_c, 10, 70, 80
11, 120150, Note_off_c, 10, 70, 80
11, 120480, Control_c, 10, 11, 99
11, 120480, Note_on_c, 10, 79, 86
11, 120690, Note_off_c, 10, 79, 86
11, 120720, Note_on_c, 10, 72, 86
11, 120930, Note_off_c, 10, 72, 86
11, 120960, Note_on_c, 10, 77, 86
11, 121380, Note_off_c, 10, 77, 86
11, 121440, Note_on_c, 10, 70, 86
11, 121860, Note_off_c, 10, 70, 86
11, 121920, Note_on_c, 10, 69, 86
11, 122340, Note_off_c, 10, 69, 86
11, 122400, Note_on_c, 10, 75, 86
11, 122820, Note_off_c, 10, 75, 86
11, 122880, Control_c, 10, 11, 91
11, 122880, Note_on_c, 10, 74, 80
11, 123300, Note_off_c, 10, 74, 80
11, 123360, Note_on_c, 10, 67, 80
11, 123990, Note_off_c, 10, 67, 80
11, 124320, Note_on_c, 10, 75, 80
11, 124530, Note_off_c, 10, 75, 80
11, 124560, Note_on_c, 10, 72, 80
11, 124770, Note_off_c, 10, 72, 80
11, 124800, Note_on_c, 10, 71, 80
11, 125220, Note_off_c, 10, 71, 80
11, 125280, Note_on_c, 10, 74, 80
11, 125910, Note_off_c, 10, 74, 80
11, 126240, Note_on_c, 10, 74, 80
11, 126450, Note_off_c, 10, 74, 80
11, 126480, Note_on_c, 10, 71, 80
11, 126690, Note_off_c, 10, 71, 80
11, 126720, Note_on_c, 10, 74, 80
11, 127140, Note_off_c, 10, 74, 80
11, 127200, Note_on_c, 10, 72, 80
11, 127830, Note_off_c, 10, 72, 80
11, 128160, Note_on_c, 10, 77, 80
11, 128370, Note_off_c, 10, 77, 80
11, 128400, Note_on_c, 10, 74, 80
11, 128610, Note_off_c, 10, 74, 80
11, 128640, Note_on_c, 10, 77, 80
11, 129060, Note_off_c, 10, 77, 80
11, 129120, Note_on_c, 10, 75, 80
11, 129750, Note_off_c, 10, 75, 80
11, 130080, Note_on_c, 10, 76, 80
11, 130290, Note_off_c, 10, 76, 80
11, 130320, Note_on_c, 10, 72, 80
11, 130530, Note_off_c, 10, 72, 80
11, 130560, Note_on_c, 10, 84, 80
11, 130980, Note_off_c, 10, 84, 80
11, 131040, Note_on_c, 10, 72, 80
11, 131670, Note_off_c, 10, 72, 80
11, 132000, Note_on_c, 10, 72, 80
11, 132210, Note_off_c, 10, 72, 80
11, 132240, Note_on_c, 10, 71, 80
11, 132450, Note_off_c, 10, 71, 80
11, 132480, Note_on_c, 10, 72, 80
11, 132900, Note_off_c, 10, 72, 80
11, 132960, Note_on_c, 10, 75, 80
11, 133380, Note_off_c, 10, 75, 80
11, 133440, Note_on_c, 10, 74, 80
11, 133860, Note_off_c, 10, 74, 80
11, 133920, Note_on_c, 10, 72, 80
11, 134340, Note_off_c, 10, 72, 80
11, 134400, Note_on_c, 10, 71, 80
11, 134820, Note_off_c, 10, 71, 80
11, 134880, Note_on_c, 10, 74, 80
11, 135510, Note_off_c, 10, 74, 80
11, 135840, Control_c, 10, 11, 99
11, 135840, Note_on_c, 10, 74, 86
11, 136050, Note_off_c, 10, 74, 86
11, 136080, Note_on_c, 10, 67, 86
11, 136290, Note_off_c, 10, 67, 86
11, 136320, Note_on_c, 10, 79, 86
11, 136740, Note_off_c, 10, 79, 86
11, 136800, Note_on_c, 10, 72, 86
11, 137220, Note_off_c, 10, 72, 86
11, 137280, Note_on_c, 10, 71, 86
11, 137700, Note_off_c, 10, 71, 86
11, 137760, Note_on_c, 10, 77, 86
11, 138180, Note_off_c, 10, 77, 86
11, 138240, Note_on_c, 10, 75, 86
11, 139410, Note_off_c, 10, 75, 86
11, 140640, Control_c, 10, 11, 105
11, 140640, Note_on_c, 10, 67, 90
11, 141060, Note_off_c, 10, 67, 90
11, 141120, Note_on_c, 10, 75, 90
11, 141540, Note_off_c, 10, 75, 90
11, 141600, Note_on_c, 10, 75, 90
11, 142020, Note_off_c, 10, 75, 90
11, 142080, Note_on_c, 10, 75, 90
11, 143730, Note_off_c, 10, 75, 90
11, 143760, Note_on_c, 10, 74, 90
11, 143830, Note_off_c, 10, 74, 90
11, 143840, Note_on_c, 10, 72, 90
11, 143910, Note_off_c, 10, 72, 90
11, 143920, Note_on_c, 10, 71, 90
11, 143990, Note_off_c, 10, 71, 90
11, 144000, Note_on_c, 10, 72, 90
11, 144420, Note_off_c, 10, 72, 90
11, 144480, Note_on_c, 10, 72, 90
11, 144900, Note_off_c, 10, 72, 90
11, 144960, Note_on_c, 10, 79, 90
11, 145380, Note_off_c, 10, 79, 90
11, 145440, Note_on_c, 10, 79, 90
11, 145860, Note_off_c, 10, 79, 90
11, 145920, Note_on_c, 10, 79, 90
11, 147570, Note_off_c, 10, 79, 90
11, 147600, Note_on_c, 10, 77, 90
11, 147670, Note_off_c, 10, 77, 90
11, 147680, Note_on_c, 10, 75, 90
11, 147750, Note_off_c, 10, 75, 90
11, 147760, Note_on_c, 10, 74, 90
11, 147830, Note_off_c, 10, 74, 90
11, 147840, Note_on_c, 10, 75, 90
11, 148260, Note_off_c, 10, 75, 90
11, 148320, Note_on_c, 10, 72, 90
11, 148740, Note_off_c, 10, 72, 90
11, 148800, Note_on_c, 10, 79, 90
11, 149220, Note_off_c, 10, 79, 90
11, 149280, Note_on_c, 10, 79, 90
11, 149700, Note_off_c, 10, 79, 90
11, 149760, Note_on_c, 10, 79, 90
11, 151410, Note_off_c, 10, 79, 90
11, 151440, Note_on_c, 10, 77, 90
11, 151510, Note_off_c, 10, 77, 90
11, 151520, Note_on_c, 10, 75, 90
11, 151590, Note_off_c, 10, 75, 90
11, 151600, Note_on_c, 10, 74, 90
11, 151670, Note_off_c, 10, 74, 90
11, 151680, Note_on_c, 10, 75, 90
11, 153330, Note_off_c, 10, 75, 90
11, 153360, Note_on_c, 10, 65, 90
11, 153360, Note_on_c, 10, 67, 90
11, 153460, Note_off_c, 10, 65, 90
11, 153460, Note_off_c, 10, 67, 90
11, 153480, Note_on_c, 10, 63, 90
11, 153480, Note_on_c, 10, 62, 90
11, 153580, Note_off_c, 10, 63, 90
11, 153600, Note_on_c, 10, 63, 90
11, 154020, Note_off_c, 10, 62, 90
11, 155250, Note_off_c, 10, 63, 90
11, 155280, Note_on_c, 10, 62, 90
11, 155350, Note_off_c, 10, 62, 90
11, 155360, Note_on_c, 10, 60, 90
11, 155430, Note_off_c, 10, 60, 90
11, 155440, Note_on_c, 10, 59, 90
11, 155510, Note_off_c, 10, 59, 90
11, 155520, Note_on_c, 10, 60, 90
11, 156240, Note_on_c, 10, 72, 90
11, 156340, Note_off_c, 10, 72, 90
11, 156360, Note_off_c, 10, 60, 90
11, 156360, Note_on_c, 10, 74, 90
11, 156460, Note_off_c, 10, 74, 90
11, 156480, Note_on_c, 10, 75, 90
11, 157110, Note_off_c, 10, 75, 90
11, 157200, Note_on_c, 10, 77, 90
11, 157270, Note_off_c, 10, 77, 90
11, 157280, Note_on_c, 10, 79, 90
11, 157350, Note_off_c, 10, 79, 90
11, 157360, Note_on_c, 10, 81, 90
11, 157430, Note_off_c, 10, 81, 90
11, 157440, Note_on_c, 10, 82, 90
11, 159090, Note_off_c, 10, 82, 90
11, 159120, Note_on_c, 10, 63, 90
11, 159120, Note_on_c, 10, 65, 90
11, 159220, Note_off_c, 10, 63, 90
11, 159220, Note_off_c, 10, 65, 90
11, 159240, Note_on_c, 10, 60, 90
11, 159240, Note_on_c, 10, 62, 90
11, 159340, Note_off_c, 10, 60, 90
11, 159340, Note_off_c, 10, 62, 90
11, 159360, Note_on_c, 10, 58, 90
11, 159780, Note_off_c, 10, 58, 90
11, 159840, Note_on_c, 10, 70, 90
11, 160260, Note_off_c, 10, 70, 90
11, 160320, Note_on_c, 10, 82, 90
11, 160740, Note_off_c, 10, 82, 90
11, 160800, Note_on_c, 10, 82, 90
11, 161220, Note_off_c, 10, 82, 90
11, 161280, Note_on_c, 10, 82, 90
11, 162930, Note_off_c, 10, 82, 90
11, 162960, Note_on_c, 10, 80, 90
11, 163030, Note_off_c, 10, 80, 90
11, 163040, Note_on_c, 10, 79, 90
11, 163110, Note_off_c, 10, 79, 90
11, 163120, Note_on_c, 10, 77, 90
11, 163190, Note_off_c, 10, 77, 90
11, 163200, Note_on_c, 10, 79, 90
11, 163620, Note_off_c, 10, 79, 90
11, 163680, Note_on_c, 10, 70, 90
11, 164100, Note_off_c, 10, 70, 90
11, 164160, Note_on_c, 10, 79, 90
11, 164580, Note_off_c, 10, 79, 90
11, 164640, Note_on_c, 10, 79, 90
11, 165060, Note_off_c, 10, 79, 90
11, 165120, Note_on_c, 10, 79, 90
11, 166770, Note_off_c, 10, 79, 90
11, 166800, Note_on_c, 10, 75, 90
11, 166800, Note_on_c, 10, 77, 90
11, 166900, Note_off_c, 10, 75, 90
11, 166900, Note_off_c, 10, 77, 90
11, 166920, Note_on_c, 10, 79, 90
11, 166920, Note_on_c, 10, 81, 90
11, 167020, Note_off_c, 10, 79, 90
11, 167020, Note_off_c, 10, 81, 90
11, 167040, Note_on_c, 10, 82, 90
11, 168690, Note_off_c, 10, 82, 90
11, 168720, Note_on_c, 10, 74, 90
11, 168790, Note_off_c, 10, 74, 90
11, 168800, Note_on_c, 10, 75, 90
11, 168870, Note_off_c, 10, 75, 90
11, 168880, Note_on_c, 10, 77, 90
11, 168950, Note_off_c, 10, 77, 90
11, 168960, Note_on_c, 10, 79, 90
11, 170610, Note_off_c, 10, 79, 90
11, 170640, Note_on_c, 10, 67, 90
11, 170710, Note_off_c, 10, 67, 90
11, 170720, Note_on_c, 10, 68, 90
11, 170790, Note_off_c, 10, 68, 90
11, 170800, Note_on_c, 10, 70, 90
11, 170870, Note_off_c, 10, 70, 90
11, 170880, Note_on_c, 10, 72, 90
11, 172530, Note_off_c, 10, 72, 90
11, 172560, Note_on_c, 10, 63, 90
11, 172630, Note_off_c, 10, 63, 90
11, 172640, Note_on_c, 10, 62, 90
11, 172710, Note_off_c, 10, 62, 90
11, 172720, Note_on_c, 10, 60, 90
11, 172790, Note_off_c, 10, 60, 90
11, 172800, Note_on_c, 10, 58, 90
11, 174450, Note_off_c, 10, 58, 90
11, 174480, Note_on_c, 10, 79, 90
11, 174550, Note_off_c, 10, 79, 90
11, 174560, Note_on_c, 10, 77, 90
11, 174630, Note_off_c, 10, 77, 90
11, 174640, Note_on_c, 10, 75, 90
11, 174710, Note_off_c, 10, 75, 90
11, 174720, Control_c, 10, 11, 99
11, 174720, Note_on_c, 10, 74, 86
11, 175140, Note_off_c, 10, 74, 86
11, 175200, Note_on_c, 10, 77, 86
11, 175620, Note_off_c, 10, 77, 86
11, 175680, Note_on_c, 10, 65, 86
11, 176100, Note_off_c, 10, 65, 86
11, 176160, Note_on_c, 10, 68, 86
11, 176580, Note_off_c, 10, 68, 86
11, 176640, Control_c, 10, 11, 95
11, 176640, Note_on_c, 10, 67, 82
11, 177060, Note_off_c, 10, 67, 82
11, 177120, Note_on_c, 10, 63, 82
11, 177960, Note_off_c, 10, 63, 82
11, 178080, Note_on_c, 10, 67, 82
11, 178980, Note_off_c, 10, 67, 82
11, 179040, Note_on_c, 10, 70, 82
11, 179880, Note_off_c, 10, 70, 82
11, 180000, Note_on_c, 10, 73, 82
11, 180900, Note_off_c, 10, 73, 82
11, 180960, Note_on_c, 10, 70, 82
11, 181800, Note_off_c, 10, 70, 82
11, 181920, Note_on_c, 10, 67, 82
11, 182820, Note_off_c, 10, 67, 82
11, 182880, Note_on_c, 10, 64, 82
11, 183720, Note_off_c, 10, 64, 82
11, 183840, Note_on_c, 10, 60, 82
11, 184740, Note_off_c, 10, 60, 82
11, 184800, Control_c, 10, 11, 99
11, 184800, Note_on_c, 10, 65, 86
11, 185640, Note_off_c, 10, 65, 86
11, 185760, Note_on_c, 10, 68, 86
11, 186660, Note_off_c, 10, 68, 86
11, 186720, Note_on_c, 10, 72, 86
11, 187560, Note_off_c, 10, 72, 86
11, 187680, Note_on_c, 10, 75, 86
11, 188580, Note_off_c, 10, 75, 86
11, 188640, Note_on_c, 10, 72, 86
11, 189480, Note_off_c, 10, 72, 86
11, 189600, Note_on_c, 10, 69, 86
11, 190500, Note_off_c, 10, 69, 86
11, 190560, Note_on_c, 10, 66, 86
11, 191400, Note_off_c, 10, 66, 86
11, 191520, Note_on_c, 10, 62, 86
11, 192420, Note_off_c, 10, 62, 86
11, 192480, Control_c, 10, 11, 119
11, 192480, Note_on_c, 10, 67, 104
11, 192900, Note_off_c, 10, 67, 104
11, 192960, Note_on_c, 10, 79, 104
11, 193380, Note_off_c, 10, 79, 104
11, 193440, Note_on_c, 10, 79, 104
11, 193860, Note_off_c, 10, 79, 104
11, 193920, Note_on_c, 10, 79, 104
11, 195180, Note_off_c, 10, 79, 104
11, 195360, Note_on_c, 10, 77, 104
11, 195460, Note_off_c, 10, 77, 104
11, 195480, Note_on_c, 10, 75, 104
11, 195580, Note_off_c, 10, 75, 104
11, 195600, Note_on_c, 10, 74, 104
11, 195700, Note_off_c, 10, 74, 104
11, 195720, Note_on_c, 10, 72, 104
11, 195820, Note_off_c, 10, 72, 104
11, 195840, Note_on_c, 10, 71, 104
11, 196260, Note_off_c, 10, 71, 104
11, 196320, Note_on_c, 10, 74, 104
11, 196740, Note_off_c, 10, 74, 104
11, 196800, Note_on_c, 10, 79, 104
11, 197220, Note_off_c, 10, 79, 104
11, 197280, Note_on_c, 10, 79, 104
11, 197700, Note_off_c, 10, 79, 104
11, 197760, Note_on_c, 10, 79, 104
11, 199020, Note_off_c, 10, 79, 104
11, 199200, Note_on_c, 10, 77, 104
11, 199300, Note_off_c, 10, 77, 104
11, 199320, Note_on_c, 10, 75, 104
11, 199420, Note_off_c, 10, 75, 104
11, 199440, Note_on_c, 10, 74, 104
11, 199540, Note_off_c, 10, 74, 104
11, 199560, Note_on_c, 10, 72, 104
11, 199660, Note_off_c, 10, 72, 104
11, 199680, Note_on_c, 10, 71, 104
11, 200100, Note_off_c, 10, 71, 104
11, 200160, Note_on_c, 10, 68, 104
11, 200580, Note_off_c, 10, 68, 104
11, 200640, Note_on_c, 10, 67, 104
11, 201060, Note_off_c, 10, 67, 104
11, 201120, Note_on_c, 10, 66, 104
11, 201540, Note_off_c, 10, 66, 104
11, 201600, Control_c, 10, 11, 99
11, 201600, Note_on_c, 10, 67, 86
11, 202020, Note_off_c, 10, 67, 86
11, 202080, Note_on_c, 10, 62, 86
11, 202500, Note_off_c, 10, 62, 86
11, 202560, Note_on_c, 10, 63, 86
11, 202980, Note_off_c, 10, 63, 86
11, 203040, Note_on_c, 10, 59, 86
11, 203460, Note_off_c, 10, 59, 86
11, 203520, Note_on_c, 10, 60, 86
11, 203940, Note_off_c, 10, 60, 86
11, 204000, Note_on_c, 10, 59, 86
11, 204420, Note_off_c, 10, 59, 86
11, 204480, Note_on_c, 10, 60, 86
11, 204900, Note_off_c, 10, 60, 86
11, 204960, Note_on_c, 10, 62, 86
11, 205380, Note_off_c, 10, 62, 86
11, 205440, Note_on_c, 10, 63, 86
11, 205860, Note_off_c, 10, 63, 86
11, 205920, Note_on_c, 10, 64, 86
11, 206340, Note_off_c, 10, 64, 86
11, 206400, Note_on_c, 10, 65, 86
11, 206820, Note_off_c, 10, 65, 86
11, 206880, Note_on_c, 10, 66, 86
11, 207300, Note_off_c, 10, 66, 86
11, 207360, Note_on_c, 10, 67, 86
11, 207780, Note_off_c, 10, 67, 86
11, 207840, Note_on_c, 10, 65, 86
11, 208260, Note_off_c, 10, 65, 86
11, 208320, Note_on_c, 10, 68, 86
11, 208740, Note_off_c, 10, 68, 86
11, 208800, Note_on_c, 10, 67, 86
11, 209220, Note_off_c, 10, 67, 86
11, 209280, Note_on_c, 10, 65, 86
11, 209700, Note_off_c, 10, 65, 86
11, 209760, Note_on_c, 10, 63, 86
11, 210180, Note_off_c, 10, 63, 86
11, 210240, Note_on_c, 10, 62, 86
11, 210660, Note_off_c, 10, 62, 86
11, 210720, Note_on_c, 10, 60, 86
11, 211140, Note_off_c, 10, 60, 86
11, 211200, Note_on_c, 10, 59, 86
11, 211620, Note_off_c, 10, 59, 86
11, 211680, Note_on_c, 10, 60, 86
11, 212100, Note_off_c, 10, 60, 86
11, 212160, Note_on_c, 10, 62, 86
11, 212580, Note_off_c, 10, 62, 86
11, 212640, Note_on_c, 10, 55, 86
11, 213060, Note_off_c, 10, 55, 86
11, 213120, Note_on_c, 10, 56, 86
11, 213540, Note_off_c, 10, 56, 86
11, 213600, Note_on_c, 10, 57, 86
11, 214020, Note_off_c, 10, 57, 86
11, 214080, Note_on_c, 10, 58, 86
11, 214500, Note_off_c, 10, 58, 86
11, 214560, Note_on_c, 10, 59, 86
11, 214980, Note_off_c, 10, 59, 86
11, 215040, Note_on_c, 10, 60, 86
11, 215460, Note_off_c, 10, 60, 86
11, 215520, Note_on_c, 10, 63, 86
11, 215940, Note_off_c, 10, 63, 86
11, 216000, Note_on_c, 10, 65, 86
11, 216420, Note_off_c, 10, 65, 86
11, 216480, Note_on_c, 10, 66, 86
11, 216900, Note_off_c, 10, 66, 86
11, 216960, Note_on_c, 10, 67, 86
11, 217380, Note_off_c, 10, 67, 86
11, 217440, Note_on_c, 10, 68, 86
11, 217860, Note_off_c, 10, 68, 86
11, 217920, Note_on_c, 10, 69, 86
11, 218340, Note_off_c, 10, 69, 86
11, 218400, Note_on_c, 10, 71, 86
11, 218820, Note_off_c, 10, 71, 86
11, 218880, Note_on_c, 10, 72, 86
11, 220050, Note_off_c, 10, 72, 86
11, 223200, Note_on_c, 10, 74, 86
11, 223620, Note_off_c, 10, 74, 86
11, 223680, Note_on_c, 10, 77, 86
11, 224100, Note_off_c, 10, 77, 86
11, 224160, Note_on_c, 10, 77, 86
11, 224580, Note_off_c, 10, 77, 86
11, 224640, Note_on_c, 10, 77, 86
11, 225900, Note_off_c, 10, 77, 86
11, 226080, Note_on_c, 10, 79, 86
11, 226180, Note_off_c, 10, 79, 86
11, 226200, Note_on_c, 10, 77, 86
11, 226300, Note_off_c, 10, 77, 86
11, 226320, Note_on_c, 10, 75, 86
11, 226420, Note_off_c, 10, 75, 86
11, 226440, Note_on_c, 10, 74, 86
11, 226540, Note_off_c, 10, 74, 86
11, 226560, Note_on_c, 10, 75, 86
11, 227730, Note_off_c, 10, 75, 86
11, 230880, Control_c, 10, 11, 119
11, 230880, Note_on_c, 10, 71, 104
11, 231300, Note_off_c, 10, 71, 104
11, 231360, Note_on_c, 10, 80, 104
11, 231780, Note_off_c, 10, 80, 104
11, 231840, Note_on_c, 10, 80, 104
11, 232260, Note_off_c, 10, 80, 104
11, 232320, Note_on_c, 10, 80, 104
11, 233580, Note_off_c, 10, 80, 104
11, 233760, Note_on_c, 10, 79, 104
11, 233860, Note_off_c, 10, 79, 104
11, 233880, Note_on_c, 10, 77, 104
11, 233980, Note_off_c, 10, 77, 104
11, 234000, Note_on_c, 10, 75, 104
11, 234100, Note_off_c, 10, 75, 104
11, 234120, Note_on_c, 10, 74, 104
11, 234220, Note_off_c, 10, 74, 104
11, 234240, Note_on_c, 10, 75, 104
11, 234660, Note_off_c, 10, 75, 104
11, 234720, Note_on_c, 10, 72, 104
11, 235140, Note_off_c, 10, 72, 104
11, 235200, Note_on_c, 10, 84, 104
11, 235620, Note_off_c, 10, 84, 104
11, 235680, Note_on_c, 10, 84, 104
11, 236100, Note_off_c, 10, 84, 104
11, 236160, Note_on_c, 10, 84, 104
11, 238500, Note_off_c, 10, 84, 104
11, 238560, Note_on_c, 10, 72, 104
11, 238980, Note_off_c, 10, 72, 104
11, 239040, Note_on_c, 10, 84, 104
11, 239460, Note_off_c, 10, 84, 104
11, 239520, Note_on_c, 10, 84, 104
11, 239940, Note_off_c, 10, 84, 104
11, 240000, Note_on_c, 10, 84, 104
11, 242340, Note_off_c, 10, 84, 104
11, 242400, Note_on_c, 10, 72, 104
11, 242820, Note_off_c, 10, 72, 104
11, 242880, Note_on_c, 10, 84, 104
11, 243300, Note_off_c, 10, 84, 104
11, 243360, Note_on_c, 10, 84, 104
11, 243780, Note_off_c, 10, 84, 104
11, 243840, Note_on_c, 10, 84, 104
11, 245520, Note_off_c, 10, 84, 104
11, 245760, Control_c, 10, 11, 95
11, 246240, Note_on_c, 10, 63, 82
11, 246660, Note_off_c, 10, 63, 82
11, 246720, Note_on_c, 10, 63, 82
11, 247140, Note_off_c, 10, 63, 82
11, 247200, Note_on_c, 10, 63, 82
11, 247890, Note_off_c, 10, 63, 82
11, 248160, Note_on_c, 10, 62, 82
11, 248580, Note_off_c, 10, 62, 82
11, 248640, Note_on_c, 10, 62, 82
11, 249060, Note_off_c, 10, 62, 82
11, 249120, Note_on_c, 10, 62, 82
11, 249540, Note_off_c, 10, 62, 82
11, 250080, Note_on_c, 10, 60, 82
11, 250390, Note_off_c, 10, 60, 82
11, 250440, Note_on_c, 10, 63, 82
11, 250540, Note_off_c, 10, 63, 82
11, 250560, Note_on_c, 10, 67, 82
11, 250980, Note_off_c, 10, 67, 82
11, 251040, Note_on_c, 10, 67, 82
11, 251730, Note_off_c, 10, 67, 82
11, 252000, Note_on_c, 10, 64, 82
11, 252310, Note_off_c, 10, 64, 82
11, 252360, Note_on_c, 10, 67, 82
11, 252460, Note_off_c, 10, 67, 82
11, 252480, Note_on_c, 10, 70, 82
11, 252900, Note_off_c, 10, 70, 82
11, 252960, Note_on_c, 10, 70, 82
11, 253380, Note_off_c, 10, 70, 82
11, 253920, Note_on_c, 10, 68, 82
11, 254550, Note_off_c, 10, 68, 82
11, 254880, Note_on_c, 10, 63, 82
11, 255300, Note_off_c, 10, 63, 82
11, 255360, Note_on_c, 10, 62, 82
11, 255780, Note_off_c, 10, 62, 82
11, 255840, Note_on_c, 10, 68, 82
11, 256260, Note_off_c, 10, 68, 82
11, 256320, Note_on_c, 10, 67, 82
11, 256740, Note_off_c, 10, 67, 82
11, 256800, Note_on_c, 10, 65, 82
11, 257220, Note_off_c, 10, 65, 82
11, 257760, Note_on_c, 10, 63, 82
11, 258070, Note_off_c, 10, 63, 82
11, 258120, Note_on_c, 10, 67, 82
11, 258220, Note_off_c, 10, 67, 82
11, 258240, Note_on_c, 10, 72, 82
11, 258660, Note_off_c, 10, 72, 82
11, 258720, Note_on_c, 10, 72, 82
11, 259410, Note_off_c, 10, 72, 82
11, 259680, Note_on_c, 10, 64, 82
11, 259990, Note_off_c, 10, 64, 82
11, 260040, Note_on_c, 10, 67, 82
11, 260140, Note_off_c, 10, 67, 82
11, 260160, Note_on_c, 10, 72, 82
11, 260580, Note_off_c, 10, 72, 82
11, 260640, Note_on_c, 10, 72, 82
11, 261060, Note_off_c, 10, 72, 82
11, 261120, Note_on_c, 10, 72, 82
11, 261540, Note_off_c, 10, 72, 82
11, 261600, Note_on_c, 10, 66, 82
11, 262020, Note_off_c, 10, 66, 82
11, 262080, Note_on_c, 10, 65, 82
11, 262500, Note_off_c, 10, 65, 82
11, 262560, Note_on_c, 10, 63, 82
11, 262980, Note_off_c, 10, 63, 82
11, 263040, Note_on_c, 10, 62, 82
11, 263460, Note_off_c, 10, 62, 82
11, 263520, Note_on_c, 10, 68, 82
11, 263940, Note_off_c, 10, 68, 82
11, 264000, Note_on_c, 10, 67, 82
11, 264420, Note_off_c, 10, 67, 82
11, 264480, Note_on_c, 10, 65, 82
11, 264900, Note_off_c, 10, 65, 82
11, 264960, Control_c, 10, 11, 99
11, 264960, Note_on_c, 10, 63, 86
11, 266130, Note_off_c, 10, 63, 86
11, 266880, Control_c, 10, 11, 95
11, 266880, Note_on_c, 10, 68, 82
11, 268050, Note_off_c, 10, 68, 82
11, 268800, Control_c, 10, 11, 91
11, 268800, Note_on_c, 10, 67, 80
11, 269970, Note_off_c, 10, 67, 80
11, 270720, Control_c, 10, 11, 86
11, 270720, Note_on_c, 10, 67, 73
11, 271890, Note_off_c, 10, 67, 73
11, 272640, Note_on_c, 10, 55, 73
11, 272640, Note_on_c, 10, 63, 73
11, 276360, Note_off_c, 10, 55, 73
11, 276360, Note_off_c, 10, 63, 73
11, 276480, Control_c, 10, 11, 95
11, 276480, Control_c, 10, 11, 119
11, 276480, Control_c, 10, 11, 86
11, 276480, End_track
12, 0, Start_track
12, 960, Control_c, 11, 64, 0
12, 960, Control_c, 11, 7, 127
12, 960, Control_c, 11, 10, 64
12, 1460, Program_c, 11, 48
12, 3820, Control_c, 11, 0, 0
12, 3830, Control_c, 11, 32, 0
12, 3840, Program_c, 11, 49
12, 7680, Control_c, 11, 1, 1
12, 7680, Control_c, 11, 7, 93
12, 7680, Control_c, 11, 91, 127
12, 7680, Control_c, 11, 93, 4
12, 7680, Control_c, 11, 10, 55
12, 42240, Control_c, 11, 11, 99
12, 42240, Note_on_c, 11, 63, 82
12, 45960, Note_off_c, 11, 63, 82
12, 46080, Note_on_c, 11, 62, 82
12, 47010, Note_off_c, 11, 62, 82
12, 47040, Note_on_c, 11, 65, 82
12, 48900, Note_off_c, 11, 65, 82
12, 48960, Note_on_c, 11, 65, 82
12, 49890, Note_off_c, 11, 65, 82
12, 49920, Note_on_c, 11, 74, 82
12, 53640, Note_off_c, 11, 74, 82
12, 53760, Note_on_c, 11, 72, 82
12, 54690, Note_off_c, 11, 72, 82
12, 54720, Note_on_c, 11, 55, 82
12, 54720, Note_on_c, 11, 63, 82
12, 56580, Note_off_c, 11, 55, 82
12, 56580, Note_off_c, 11, 63, 82
12, 56640, Note_on_c, 11, 55, 82
12, 56640, Note_on_c, 11, 63, 82
12, 57570, Note_off_c, 11, 55, 82
12, 57570, Note_off_c, 11, 63, 82
12, 57600, Note_on_c, 11, 55, 82
12, 57600, Note_on_c, 11, 63, 82
12, 58790, Note_off_c, 11, 55, 82
12, 58790, Note_off_c, 11, 63, 82
12, 61440, Note_on_c, 11, 59, 82
12, 61440, Note_on_c, 11, 62, 82
12, 61900, Note_off_c, 11, 59, 82
12, 61900, Note_off_c, 11, 62, 82
12, 61920, Note_on_c, 11, 59, 82
12, 61920, Note_on_c, 11, 62, 82
12, 62850, Note_off_c, 11, 59, 82
12, 62850, Note_off_c, 11, 62, 82
12, 62880, Note_on_c, 11, 59, 82
12, 62880, Note_on_c, 11, 62, 82
12, 63820, Note_off_c, 11, 59, 82
12, 63820, Note_off_c, 11, 62, 82
12, 63840, Note_on_c, 11, 59, 82
12, 63840, Note_on_c, 11, 62, 82
12, 64770, Note_off_c, 11, 59, 82
12, 64770, Note_off_c, 11, 62, 82
12, 64800, Note_on_c, 11, 65, 82
12, 64800, Note_on_c, 11, 55, 82
12, 65260, Note_off_c, 11, 65, 82
12, 65280, Note_on_c, 11, 63, 82
12, 65970, Note_off_c, 11, 63, 82
12, 65970, Note_off_c, 11, 55, 82
12, 69120, Note_on_c, 11, 62, 82
12, 69120, Note_on_c, 11, 65, 82
12, 69580, Note_off_c, 11, 62, 82
12, 69580, Note_off_c, 11, 65, 82
12, 69600, Note_on_c, 11, 62, 82
12, 69600, Note_on_c, 11, 65, 82
12, 70530, Note_off_c, 11, 62, 82
12, 70530, Note_off_c, 11, 65, 82
12, 70560, Note_on_c, 11, 62, 82
12, 70560, Note_on_c, 11, 65, 82
12, 71500, Note_off_c, 11, 62, 82
12, 71500, Note_off_c, 11, 65, 82
12, 71520, Note_on_c, 11, 62, 82
12, 71520, Note_on_c, 11, 65, 82
12, 72450, Note_off_c, 11, 62, 82
12, 72450, Note_off_c, 11, 65, 82
12, 72480, Note_on_c, 11, 55, 82
12, 72480, Note_on_c, 11, 65, 82
12, 72940, Note_off_c, 11, 55, 82
12, 72940, Note_off_c, 11, 65, 82
12, 72960, Note_on_c, 11, 55, 82
12, 72960, Note_on_c, 11, 63, 82
12, 73650, Note_off_c, 11, 55, 82
12, 73650, Note_off_c, 11, 63, 82
12, 80640, Note_on_c, 11, 58, 82
12, 80640, Note_on_c, 11, 67, 82
12, 81100, Note_off_c, 11, 58, 82
12, 81100, Note_off_c, 11, 67, 82
12, 81120, Note_on_c, 11, 58, 82
12, 81120, Note_on_c, 11, 67, 82
12, 82050, Note_off_c, 11, 58, 82
12, 82050, Note_off_c, 11, 67, 82
12, 82080, Note_on_c, 11, 58, 82
12, 82080, Note_on_c, 11, 67, 82
12, 83020, Note_off_c, 11, 58, 82
12, 83020, Note_off_c, 11, 67, 82
12, 83040, Note_on_c, 11, 58, 82
12, 83040, Note_on_c, 11, 67, 82
12, 83970, Note_off_c, 11, 58, 82
12, 83970, Note_off_c, 11, 67, 82
12, 84000, Note_on_c, 11, 67, 82
12, 84000, Note_on_c, 11, 58, 82
12, 84460, Note_off_c, 11, 67, 82
12, 84480, Note_on_c, 11, 68, 82
12, 84940, Note_off_c, 11, 68, 82
12, 84940, Note_off_c, 11, 58, 82
12, 84960, Note_on_c, 11, 58, 82
12, 84960, Note_on_c, 11, 68, 82
12, 85890, Note_off_c, 11, 58, 82
12, 85890, Note_off_c, 11, 68, 82
12, 85920, Note_on_c, 11, 58, 82
12, 85920, Note_on_c, 11, 68, 82
12, 86860, Note_off_c, 11, 58, 82
12, 86860, Note_off_c, 11, 68, 82
12, 86880, Note_on_c, 11, 58, 82
12, 86880, Note_on_c, 11, 68, 82
12, 87810, Note_off_c, 11, 58, 82
12, 87810, Note_off_c, 11, 68, 82
12, 87840, Note_on_c, 11, 58, 82
12, 87840, Note_on_c, 11, 68, 82
12, 88300, Note_off_c, 11, 58, 82
12, 88300, Note_off_c, 11, 68, 82
12, 88320, Note_on_c, 11, 66, 82
12, 92040, Note_off_c, 11, 66, 82
12, 92160, Note_on_c, 11, 65, 82
12, 93350, Note_off_c, 11, 65, 82
12, 95040, Note_on_c, 11, 66, 82
12, 95730, Note_off_c, 11, 66, 82
12, 95760, Note_on_c, 11, 65, 82
12, 95990, Note_off_c, 11, 65, 82
12, 96000, Note_on_c, 11, 65, 82
12, 97190, Note_off_c, 11, 65, 82
12, 98880, Note_on_c, 11, 66, 82
12, 99570, Note_off_c, 11, 66, 82
12, 99600, Note_on_c, 11, 65, 82
12, 99830, Note_off_c, 11, 65, 82
12, 99840, Note_on_c, 11, 65, 82
12, 100770, Note_off_c, 11, 65, 82
12, 100800, Note_on_c, 11, 65, 82
12, 101730, Note_off_c, 11, 65, 82
12, 101760, Note_on_c, 11, 67, 82
12, 102690, Note_off_c, 11, 67, 82
12, 102720, Note_on_c, 11, 68, 82
12, 103650, Note_off_c, 11, 68, 82
12, 103680, Note_on_c, 11, 67, 82
12, 104610, Note_off_c, 11, 67, 82
12, 104640, Note_on_c, 11, 63, 82
12, 106500, Note_off_c, 11, 63, 82
12, 106560, Note_on_c, 11, 62, 82
12, 107490, Note_off_c, 11, 62, 82
12, 107520, Note_on_c, 11, 63, 82
12, 110310, Note_off_c, 11, 63, 82
12, 110400, Note_on_c, 11, 65, 82
12, 110860, Note_off_c, 11, 65, 82
12, 110880, Note_on_c, 11, 71, 82
12, 111340, Note_off_c, 11, 71, 82
12, 111360, Note_on_c, 11, 72, 82
12, 112290, Note_off_c, 11, 72, 82
12, 112320, Note_on_c, 11, 63, 82
12, 114180, Note_off_c, 11, 63, 82
12, 114240, Note_on_c, 11, 64, 82
12, 114700, Note_off_c, 11, 64, 82
12, 114720, Note_on_c, 11, 61, 82
12, 115180, Note_off_c, 11, 61, 82
12, 115200, Note_on_c, 11, 60, 82
12, 117060, Note_off_c, 11, 60, 82
12, 117120, Note_on_c, 11, 68, 82
12, 118050, Note_off_c, 11, 68, 82
12, 118080, Note_on_c, 11, 62, 82
12, 119010, Note_off_c, 11, 62, 82
12, 119040, Note_on_c, 11, 63, 82
12, 119970, Note_off_c, 11, 63, 82
12, 120000, Note_on_c, 11, 69, 82
12, 120930, Note_off_c, 11, 69, 82
12, 120960, Note_on_c, 11, 70, 82
12, 121890, Note_off_c, 11, 70, 82
12, 121920, Note_on_c, 11, 65, 82
12, 122850, Note_off_c, 11, 65, 82
12, 122880, Note_on_c, 11, 67, 82
12, 123810, Note_off_c, 11, 67, 82
12, 123840, Note_on_c, 11, 60, 82
12, 124770, Note_off_c, 11, 60, 82
12, 124800, Note_on_c, 11, 62, 82
12, 125730, Note_off_c, 11, 62, 82
12, 125760, Note_on_c, 11, 59, 82
12, 126690, Note_off_c, 11, 59, 82
12, 126720, Note_on_c, 11, 60, 82
12, 127650, Note_off_c, 11, 60, 82
12, 127680, Note_on_c, 11, 71, 82
12, 128610, Note_off_c, 11, 71, 82
12, 128640, Note_on_c, 11, 72, 82
12, 131490, Note_off_c, 11, 72, 82
12, 131520, Note_on_c, 11, 60, 82
12, 133380, Note_off_c, 11, 60, 82
12, 133440, Note_on_c, 11, 59, 82
12, 133900, Note_off_c, 11, 59, 82
12, 133920, Note_on_c, 11, 60, 82
12, 134380, Note_off_c, 11, 60, 82
12, 134400, Note_on_c, 11, 62, 82
12, 135330, Note_off_c, 11, 62, 82
12, 135360, Note_on_c, 11, 55, 82
12, 135360, Note_on_c, 11, 67, 82
12, 137220, Note_off_c, 11, 55, 82
12, 137220, Note_off_c, 11, 67, 82
12, 137280, Note_on_c, 11, 55, 82
12, 137280, Note_on_c, 11, 67, 82
12, 138210, Note_off_c, 11, 55, 82
12, 138210, Note_off_c, 11, 67, 82
12, 138240, Note_on_c, 11, 55, 82
12, 138240, Note_on_c, 11, 67, 82
12, 138700, Note_off_c, 11, 55, 82
12, 138700, Note_off_c, 11, 67, 82
12, 138720, Note_on_c, 11, 55, 82
12, 138720, Note_on_c, 11, 63, 82
12, 139650, Note_off_c, 11, 55, 82
12, 139650, Note_off_c, 11, 63, 82
12, 139680, Note_on_c, 11, 55, 82
12, 139680, Note_on_c, 11, 63, 82
12, 140620, Note_off_c, 11, 55, 82
12, 140620, Note_off_c, 11, 63, 82
12, 140640, Note_on_c, 11, 55, 82
12, 140640, Note_on_c, 11, 63, 82
12, 141570, Note_off_c, 11, 55, 82
12, 141570, Note_off_c, 11, 63, 82
12, 141600, Note_on_c, 11, 55, 82
12, 141600, Note_on_c, 11, 63, 82
12, 142540, Note_off_c, 11, 55, 82
12, 142540, Note_off_c, 11, 63, 82
12, 142560, Note_on_c, 11, 55, 82
12, 142560, Note_on_c, 11, 63, 82
12, 143490, Note_off_c, 11, 55, 82
12, 143490, Note_off_c, 11, 63, 82
12, 143520, Note_on_c, 11, 55, 82
12, 143520, Note_on_c, 11, 63, 82
12, 144460, Note_off_c, 11, 55, 82
12, 144460, Note_off_c, 11, 63, 82
12, 144480, Note_on_c, 11, 55, 82
12, 144480, Note_on_c, 11, 63, 82
12, 145410, Note_off_c, 11, 55, 82
12, 145410, Note_off_c, 11, 63, 82
12, 145440, Note_on_c, 11, 55, 82
12, 145440, Note_on_c, 11, 63, 82
12, 146380, Note_off_c, 11, 55, 82
12, 146380, Note_off_c, 11, 63, 82
12, 146400, Note_on_c, 11, 55, 82
12, 146400, Note_on_c, 11, 63, 82
12, 147330, Note_off_c, 11, 55, 82
12, 147330, Note_off_c, 11, 63, 82
12, 147360, Note_on_c, 11, 55, 82
12, 147360, Note_on_c, 11, 63, 82
12, 148300, Note_off_c, 11, 55, 82
12, 148300, Note_off_c, 11, 63, 82
12, 148320, Note_on_c, 11, 55, 82
12, 148320, Note_on_c, 11, 63, 82
12, 149250, Note_off_c, 11, 55, 82
12, 149250, Note_off_c, 11, 63, 82
12, 149280, Note_on_c, 11, 55, 82
12, 149280, Note_on_c, 11, 63, 82
12, 149740, Note_off_c, 11, 55, 82
12, 149740, Note_off_c, 11, 63, 82
12, 149760, Note_on_c, 11, 58, 82
12, 150220, Note_off_c, 11, 58, 82
12, 150240, Note_on_c, 11, 58, 82
12, 151170, Note_off_c, 11, 58, 82
12, 151200, Note_on_c, 11, 58, 82
12, 152140, Note_off_c, 11, 58, 82
12, 152160, Note_on_c, 11, 58, 82
12, 153090, Note_off_c, 11, 58, 82
12, 153120, Note_on_c, 11, 58, 82
12, 153580, Note_off_c, 11, 58, 82
12, 153600, Note_on_c, 11, 60, 82
12, 154060, Note_off_c, 11, 60, 82
12, 154080, Note_on_c, 11, 60, 82
12, 155010, Note_off_c, 11, 60, 82
12, 155040, Note_on_c, 11, 60, 82
12, 155500, Note_off_c, 11, 60, 82
12, 155520, Note_on_c, 11, 63, 82
12, 155980, Note_off_c, 11, 63, 82
12, 156000, Note_on_c, 11, 63, 82
12, 156930, Note_off_c, 11, 63, 82
12, 156960, Note_on_c, 11, 63, 82
12, 157420, Note_off_c, 11, 63, 82
12, 157440, Note_on_c, 11, 62, 82
12, 157900, Note_off_c, 11, 62, 82
12, 157920, Note_on_c, 11, 65, 82
12, 158850, Note_off_c, 11, 65, 82
12, 158880, Note_on_c, 11, 65, 82
12, 159820, Note_off_c, 11, 65, 82
12, 159840, Note_on_c, 11, 65, 82
12, 160770, Note_off_c, 11, 65, 82
12, 160800, Note_on_c, 11, 65, 82
12, 161260, Note_off_c, 11, 65, 82
12, 161280, Note_on_c, 11, 58, 82
12, 161280, Note_on_c, 11, 67, 82
12, 161740, Note_off_c, 11, 58, 82
12, 161740, Note_off_c, 11, 67, 82
12, 161760, Note_on_c, 11, 58, 82
12, 161760, Note_on_c, 11, 67, 82
12, 162690, Note_off_c, 11, 58, 82
12, 162690, Note_off_c, 11, 67, 82
12, 162720, Note_on_c, 11, 58, 82
12, 162720, Note_on_c, 11, 67, 82
12, 163660, Note_off_c, 11, 58, 82
12, 163660, Note_off_c, 11, 67, 82
12, 163680, Note_on_c, 11, 58, 82
12, 163680, Note_on_c, 11, 67, 82
12, 164610, Note_off_c, 11, 58, 82
12, 164610, Note_off_c, 11, 67, 82
12, 164640, Note_on_c, 11, 58, 82
12, 164640, Note_on_c, 11, 67, 82
12, 165100, Note_off_c, 11, 58, 82
12, 165120, Note_on_c, 11, 55, 82
12, 165580, Note_off_c, 11, 67, 82
12, 165600, Note_on_c, 11, 67, 82
12, 165810, Note_off_c, 11, 55, 82
12, 166530, Note_off_c, 11, 67, 82
12, 166560, Note_on_c, 11, 67, 82
12, 167020, Note_off_c, 11, 67, 82
12, 167040, Note_on_c, 11, 62, 82
12, 167040, Note_on_c, 11, 70, 82
12, 167500, Note_off_c, 11, 62, 82
12, 167500, Note_off_c, 11, 70, 82
12, 167520, Note_on_c, 11, 62, 82
12, 167520, Note_on_c, 11, 70, 82
12, 168450, Note_off_c, 11, 62, 82
12, 168450, Note_off_c, 11, 70, 82
12, 168480, Note_on_c, 11, 62, 82
12, 168480, Note_on_c, 11, 70, 82
12, 168940, Note_off_c, 11, 62, 82
12, 168960, Note_on_c, 11, 63, 82
12, 169420, Note_off_c, 11, 63, 82
12, 169420, Note_off_c, 11, 70, 82
12, 169440, Note_on_c, 11, 63, 82
12, 169440, Note_on_c, 11, 70, 82
12, 170370, Note_off_c, 11, 63, 82
12, 170370, Note_off_c, 11, 70, 82
12, 170400, Note_on_c, 11, 70, 82
12, 170400, Note_on_c, 11, 63, 82
12, 170860, Note_off_c, 11, 70, 82
12, 170880, Note_on_c, 11, 72, 82
12, 171340, Note_off_c, 11, 72, 82
12, 171340, Note_off_c, 11, 63, 82
12, 171360, Note_on_c, 11, 63, 82
12, 171360, Note_on_c, 11, 72, 82
12, 172290, Note_off_c, 11, 63, 82
12, 172290, Note_off_c, 11, 72, 82
12, 172320, Note_on_c, 11, 72, 82
12, 172320, Note_on_c, 11, 63, 82
12, 172780, Note_off_c, 11, 72, 82
12, 172800, Note_on_c, 11, 70, 82
12, 173260, Note_off_c, 11, 70, 82
12, 173260, Note_off_c, 11, 63, 82
12, 173280, Note_on_c, 11, 63, 82
12, 173280, Note_on_c, 11, 70, 82
12, 174210, Note_off_c, 11, 63, 82
12, 174210, Note_off_c, 11, 70, 82
12, 174240, Note_on_c, 11, 63, 82
12, 174240, Note_on_c, 11, 70, 82
12, 174700, Note_off_c, 11, 63, 82
12, 174720, Note_on_c, 11, 62, 82
12, 175180, Note_off_c, 11, 62, 82
12, 175180, Note_off_c, 11, 70, 82
12, 175200, Note_on_c, 11, 62, 82
12, 175200, Note_on_c, 11, 70, 82
12, 175660, Note_off_c, 11, 62, 82
12, 175660, Note_off_c, 11, 70, 82
12, 175680, Note_on_c, 11, 58, 82
12, 175680, Note_on_c, 11, 68, 82
12, 176140, Note_off_c, 11, 58, 82
12, 176140, Note_off_c, 11, 68, 82
12, 176160, Note_on_c, 11, 58, 82
12, 176160, Note_on_c, 11, 68, 82
12, 176620, Note_off_c, 11, 58, 82
12, 176620, Note_off_c, 11, 68, 82
12, 176640, Note_on_c, 11, 58, 82
12, 176640, Note_on_c, 11, 67, 82
12, 177570, Note_off_c, 11, 58, 82
12, 177600, Note_on_c, 11, 55, 82
12, 177830, Note_off_c, 11, 67, 82
12, 178560, Note_on_c, 11, 63, 82
12, 178790, Note_off_c, 11, 55, 82
12, 179490, Note_off_c, 11, 63, 82
12, 179520, Note_on_c, 11, 67, 82
12, 181410, Note_off_c, 11, 67, 82
12, 181440, Note_on_c, 11, 61, 82
12, 182370, Note_off_c, 11, 61, 82
12, 182400, Note_on_c, 11, 60, 82
12, 183330, Note_off_c, 11, 60, 82
12, 183360, Note_on_c, 11, 64, 82
12, 184290, Note_off_c, 11, 64, 82
12, 184320, Note_on_c, 11, 65, 82
12, 185250, Note_off_c, 11, 65, 82
12, 185280, Note_on_c, 11, 56, 82
12, 186210, Note_off_c, 11, 56, 82
12, 186240, Note_on_c, 11, 65, 82
12, 187170, Note_off_c, 11, 65, 82
12, 187200, Note_on_c, 11, 68, 82
12, 188130, Note_off_c, 11, 68, 82
12, 188160, Note_on_c, 11, 69, 82
12, 189090, Note_off_c, 11, 69, 82
12, 189120, Note_on_c, 11, 63, 82
12, 190050, Note_off_c, 11, 63, 82
12, 190080, Note_on_c, 11, 62, 82
12, 191010, Note_off_c, 11, 62, 82
12, 191040, Note_on_c, 11, 66, 82
12, 191970, Note_off_c, 11, 66, 82
12, 192000, Note_on_c, 11, 67, 82
12, 192460, Note_off_c, 11, 67, 82
12, 192480, Note_on_c, 11, 59, 82
12, 192480, Note_on_c, 11, 62, 82
12, 193410, Note_off_c, 11, 59, 82
12, 193410, Note_off_c, 11, 62, 82
12, 193440, Note_on_c, 11, 59, 82
12, 193440, Note_on_c, 11, 62, 82
12, 193900, Note_off_c, 11, 59, 82
12, 193900, Note_off_c, 11, 62, 82
12, 193920, Note_on_c, 11, 60, 82
12, 193920, Note_on_c, 11, 63, 82
12, 194380, Note_off_c, 11, 60, 82
12, 194380, Note_off_c, 11, 63, 82
12, 194400, Note_on_c, 11, 60, 82
12, 194400, Note_on_c, 11, 63, 82
12, 195330, Note_off_c, 11, 60, 82
12, 195330, Note_off_c, 11, 63, 82
12, 195360, Note_on_c, 11, 60, 82
12, 195360, Note_on_c, 11, 63, 82
12, 195820, Note_off_c, 11, 60, 82
12, 195820, Note_off_c, 11, 63, 82
12, 195840, Note_on_c, 11, 59, 82
12, 195840, Note_on_c, 11, 62, 82
12, 196300, Note_off_c, 11, 59, 82
12, 196300, Note_off_c, 11, 62, 82
12, 196320, Note_on_c, 11, 59, 82
12, 196320, Note_on_c, 11, 62, 82
12, 197250, Note_off_c, 11, 59, 82
12, 197250, Note_off_c, 11, 62, 82
12, 197280, Note_on_c, 11, 59, 82
12, 197280, Note_on_c, 11, 62, 82
12, 197740, Note_off_c, 11, 59, 82
12, 197740, Note_off_c, 11, 62, 82
12, 197760, Note_on_c, 11, 60, 82
12, 197760, Note_on_c, 11, 63, 82
12, 198220, Note_off_c, 11, 60, 82
12, 198220, Note_off_c, 11, 63, 82
12, 198240, Note_on_c, 11, 60, 82
12, 198240, Note_on_c, 11, 63, 82
12, 199170, Note_off_c, 11, 60, 82
12, 199170, Note_off_c, 11, 63, 82
12, 199200, Note_on_c, 11, 60, 82
12, 199200, Note_on_c, 11, 63, 82
12, 199660, Note_off_c, 11, 60, 82
12, 199660, Note_off_c, 11, 63, 82
12, 199680, Note_on_c, 11, 62, 82
12, 199680, Note_on_c, 11, 59, 82
12, 200140, Note_off_c, 11, 62, 82
12, 200160, Note_on_c, 11, 68, 82
12, 200370, Note_off_c, 11, 59, 82
12, 200620, Note_off_c, 11, 68, 82
12, 200640, Note_on_c, 11, 67, 82
12, 201100, Note_off_c, 11, 67, 82
12, 201120, Note_on_c, 11, 66, 82
12, 201580, Note_off_c, 11, 66, 82
12, 201600, Note_on_c, 11, 67, 82
12, 202080, Note_on_c, 11, 62, 82
12, 202290, Note_off_c, 11, 67, 82
12, 202540, Note_off_c, 11, 62, 82
12, 202560, Note_on_c, 11, 63, 82
12, 203020, Note_off_c, 11, 63, 82
12, 203040, Note_on_c, 11, 59, 82
12, 203500, Note_off_c, 11, 59, 82
12, 203520, Note_on_c, 11, 60, 82
12, 203980, Note_off_c, 11, 60, 82
12, 204000, Note_on_c, 11, 59, 82
12, 204460, Note_off_c, 11, 59, 82
12, 204480, Note_on_c, 11, 60, 82
12, 204940, Note_off_c, 11, 60, 82
12, 204960, Note_on_c, 11, 62, 82
12, 205420, Note_off_c, 11, 62, 82
12, 205440, Note_on_c, 11, 63, 82
12, 205900, Note_off_c, 11, 63, 82
12, 205920, Note_on_c, 11, 64, 82
12, 206380, Note_off_c, 11, 64, 82
12, 206400, Note_on_c, 11, 65, 82
12, 206860, Note_off_c, 11, 65, 82
12, 206880, Note_on_c, 11, 66, 82
12, 207340, Note_off_c, 11, 66, 82
12, 207360, Note_on_c, 11, 67, 82
12, 207820, Note_off_c, 11, 67, 82
12, 207840, Note_on_c, 11, 65, 82
12, 208300, Note_off_c, 11, 65, 82
12, 208320, Note_on_c, 11, 68, 82
12, 208780, Note_off_c, 11, 68, 82
12, 208800, Note_on_c, 11, 67, 82
12, 209260, Note_off_c, 11, 67, 82
12, 209280, Note_on_c, 11, 65, 82
12, 209740, Note_off_c, 11, 65, 82
12, 209760, Note_on_c, 11, 63, 82
12, 210220, Note_off_c, 11, 63, 82
12, 210240, Note_on_c, 11, 62, 82
12, 210700, Note_off_c, 11, 62, 82
12, 210720, Note_on_c, 11, 60, 82
12, 211180, Note_off_c, 11, 60, 82
12, 211200, Note_on_c, 11, 59, 82
12, 211660, Note_off_c, 11, 59, 82
12, 211680, Note_on_c, 11, 60, 82
12, 212140, Note_off_c, 11, 60, 82
12, 212160, Note_on_c, 11, 62, 82
12, 212620, Note_off_c, 11, 62, 82
12, 212640, Note_on_c, 11, 55, 82
12, 213100, Note_off_c, 11, 55, 82
12, 213120, Note_on_c, 11, 56, 82
12, 213580, Note_off_c, 11, 56, 82
12, 213600, Note_on_c, 11, 57, 82
12, 214060, Note_off_c, 11, 57, 82
12, 214080, Note_on_c, 11, 58, 82
12, 214540, Note_off_c, 11, 58, 82
12, 214560, Note_on_c, 11, 59, 82
12, 215020, Note_off_c, 11, 59, 82
12, 215040, Note_on_c, 11, 60, 82
12, 215500, Note_off_c, 11, 60, 82
12, 215520, Note_on_c, 11, 63, 82
12, 215980, Note_off_c, 11, 63, 82
12, 216000, Note_on_c, 11, 65, 82
12, 216460, Note_off_c, 11, 65, 82
12, 216480, Note_on_c, 11, 66, 82
12, 216940, Note_off_c, 11, 66, 82
12, 216960, Note_on_c, 11, 67, 82
12, 217420, Note_off_c, 11, 67, 82
12, 217440, Note_on_c, 11, 68, 82
12, 217900, Note_off_c, 11, 68, 82
12, 217920, Note_on_c, 11, 69, 82
12, 218380, Note_off_c, 11, 69, 82
12, 218400, Note_on_c, 11, 71, 82
12, 218860, Note_off_c, 11, 71, 82
12, 218880, Note_on_c, 11, 72, 82
12, 220070, Note_off_c, 11, 72, 82
12, 222720, Note_on_c, 11, 59, 82
12, 222720, Note_on_c, 11, 62, 82
12, 223180, Note_off_c, 11, 59, 82
12, 223180, Note_off_c, 11, 62, 82
12, 223200, Note_on_c, 11, 59, 82
12, 223200, Note_on_c, 11, 62, 82
12, 224130, Note_off_c, 11, 59, 82
12, 224130, Note_off_c, 11, 62, 82
12, 224160, Note_on_c, 11, 59, 82
12, 224160, Note_on_c, 11, 62, 82
12, 225100, Note_off_c, 11, 59, 82
12, 225100, Note_off_c, 11, 62, 82
12, 225120, Note_on_c, 11, 59, 82
12, 225120, Note_on_c, 11, 62, 82
12, 226050, Note_off_c, 11, 59, 82
12, 226050, Note_off_c, 11, 62, 82
12, 226080, Note_on_c, 11, 65, 82
12, 226080, Note_on_c, 11, 55, 82
12, 226540, Note_off_c, 11, 65, 82
12, 226560, Note_on_c, 11, 63, 82
12, 227250, Note_off_c, 11, 63, 82
12, 227250, Note_off_c, 11, 55, 82
12, 230400, Note_on_c, 11, 62, 82
12, 230400, Note_on_c, 11, 65, 82
12, 230860, Note_off_c, 11, 62, 82
12, 230860, Note_off_c, 11, 65, 82
12, 230880, Note_on_c, 11, 62, 82
12, 230880, Note_on_c, 11, 65, 82
12, 231810, Note_off_c, 11, 62, 82
12, 231810, Note_off_c, 11, 65, 82
12, 231840, Note_on_c, 11, 62, 82
12, 231840, Note_on_c, 11, 65, 82
12, 232780, Note_off_c, 11, 62, 82
12, 232780, Note_off_c, 11, 65, 82
12, 232800, Note_on_c, 11, 62, 82
12, 232800, Note_on_c, 11, 65, 82
12, 233730, Note_off_c, 11, 62, 82
12, 233730, Note_off_c, 11, 65, 82
12, 233760, Note_on_c, 11, 65, 82
12, 233760, Note_on_c, 11, 55, 82
12, 234220, Note_off_c, 11, 65, 82
12, 234240, Note_on_c, 11, 63, 82
12, 234700, Note_off_c, 11, 63, 82
12, 234700, Note_off_c, 11, 55, 82
12, 234720, Note_on_c, 11, 63, 82
12, 234720, Note_on_c, 11, 72, 82
12, 235650, Note_off_c, 11, 63, 82
12, 235680, Note_on_c, 11, 72, 82
12, 235910, Note_off_c, 11, 72, 82
12, 236620, Note_off_c, 11, 72, 82
12, 236640, Note_on_c, 11, 72, 82
12, 237570, Note_off_c, 11, 72, 82
12, 237600, Note_on_c, 11, 63, 82
12, 237600, Note_on_c, 11, 72, 82
12, 238060, Note_off_c, 11, 63, 82
12, 238080, Note_on_c, 11, 65, 82
12, 238540, Note_off_c, 11, 65, 82
12, 238540, Note_off_c, 11, 72, 82
12, 238560, Note_on_c, 11, 65, 82
12, 238560, Note_on_c, 11, 72, 82
12, 239490, Note_off_c, 11, 65, 82
12, 239490, Note_off_c, 11, 72, 82
12, 239520, Note_on_c, 11, 65, 82
12, 239520, Note_on_c, 11, 72, 82
12, 240460, Note_off_c, 11, 65, 82
12, 240460, Note_off_c, 11, 72, 82
12, 240480, Note_on_c, 11, 65, 82
12, 240480, Note_on_c, 11, 72, 82
12, 241410, Note_off_c, 11, 65, 82
12, 241410, Note_off_c, 11, 72, 82
12, 241440, Note_on_c, 11, 65, 82
12, 241440, Note_on_c, 11, 72, 82
12, 241900, Note_off_c, 11, 65, 82
12, 241920, Note_on_c, 11, 63, 82
12, 242380, Note_off_c, 11, 63, 82
12, 242380, Note_off_c, 11, 72, 82
12, 242400, Note_on_c, 11, 63, 82
12, 242400, Note_on_c, 11, 72, 82
12, 243330, Note_off_c, 11, 63, 82
12, 243330, Note_off_c, 11, 72, 82
12, 243360, Note_on_c, 11, 63, 82
12, 243360, Note_on_c, 11, 72, 82
12, 244300, Note_off_c, 11, 63, 82
12, 244300, Note_off_c, 11, 72, 82
12, 244320, Note_on_c, 11, 63, 82
12, 244320, Note_on_c, 11, 72, 82
12, 245250, Note_off_c, 11, 63, 82
12, 245250, Note_off_c, 11, 72, 82
12, 245280, Note_on_c, 11, 63, 82
12, 245280, Note_on_c, 11, 72, 82
12, 245740, Note_off_c, 11, 63, 82
12, 245740, Note_off_c, 11, 72, 82
12, 246240, Note_on_c, 11, 60, 82
12, 246700, Note_off_c, 11, 60, 82
12, 246720, Note_on_c, 11, 60, 82
12, 247180, Note_off_c, 11, 60, 82
12, 247200, Note_on_c, 11, 60, 82
12, 247910, Note_off_c, 11, 60, 82
12, 248160, Note_on_c, 11, 59, 82
12, 248620, Note_off_c, 11, 59, 82
12, 248640, Note_on_c, 11, 59, 82
12, 249100, Note_off_c, 11, 59, 82
12, 249120, Note_on_c, 11, 59, 82
12, 249580, Note_off_c, 11, 59, 82
12, 250080, Note_on_c, 11, 60, 82
12, 250540, Note_off_c, 11, 60, 82
12, 250560, Note_on_c, 11, 63, 82
12, 251020, Note_off_c, 11, 63, 82
12, 251040, Note_on_c, 11, 63, 82
12, 251750, Note_off_c, 11, 63, 82
12, 252000, Note_on_c, 11, 60, 82
12, 252340, Note_off_c, 11, 60, 82
12, 252360, Note_on_c, 11, 64, 82
12, 252470, Note_off_c, 11, 64, 82
12, 252480, Note_on_c, 11, 67, 82
12, 252940, Note_off_c, 11, 67, 82
12, 252960, Note_on_c, 11, 67, 82
12, 253420, Note_off_c, 11, 67, 82
12, 253920, Note_on_c, 11, 65, 82
12, 254610, Note_off_c, 11, 65, 82
12, 254880, Note_on_c, 11, 60, 82
12, 255340, Note_off_c, 11, 60, 82
12, 255360, Note_on_c, 11, 58, 82
12, 255820, Note_off_c, 11, 58, 82
12, 255840, Note_on_c, 11, 65, 82
12, 256300, Note_off_c, 11, 65, 82
12, 256320, Note_on_c, 11, 63, 82
12, 256780, Note_off_c, 11, 63, 82
12, 256800, Note_on_c, 11, 62, 82
12, 257260, Note_off_c, 11, 62, 82
12, 257760, Note_on_c, 11, 60, 82
12, 258220, Note_off_c, 11, 60, 82
12, 258240, Note_on_c, 11, 63, 82
12, 258700, Note_off_c, 11, 63, 82
12, 258720, Note_on_c, 11, 63, 82
12, 259430, Note_off_c, 11, 63, 82
12, 259680, Note_on_c, 11, 60, 82
12, 260140, Note_off_c, 11, 60, 82
12, 260160, Note_on_c, 11, 67, 82
12, 260620, Note_off_c, 11, 67, 82
12, 260640, Note_on_c, 11, 70, 82
12, 261100, Note_off_c, 11, 70, 82
12, 261120, Note_on_c, 11, 68, 82
12, 261580, Note_off_c, 11, 68, 82
12, 261600, Note_on_c, 11, 63, 82
12, 262060, Note_off_c, 11, 63, 82
12, 262080, Note_on_c, 11, 61, 82
12, 262540, Note_off_c, 11, 61, 82
12, 262560, Note_on_c, 11, 60, 82
12, 263020, Note_off_c, 11, 60, 82
12, 263040, Note_on_c, 11, 58, 82
12, 263500, Note_off_c, 11, 58, 82
12, 263520, Note_on_c, 11, 65, 82
12, 263980, Note_off_c, 11, 65, 82
12, 264000, Note_on_c, 11, 63, 82
12, 264460, Note_off_c, 11, 63, 82
12, 264480, Note_on_c, 11, 62, 82
12, 264940, Note_off_c, 11, 62, 82
12, 264960, Note_on_c, 11, 60, 82
12, 266150, Note_off_c, 11, 60, 82
12, 266880, Control_c, 11, 11, 95
12, 266880, Note_on_c, 11, 62, 78
12, 268070, Note_off_c, 11, 62, 78
12, 268800, Control_c, 11, 11, 91
12, 268800, Note_on_c, 11, 63, 76
12, 269990, Note_off_c, 11, 63, 76
12, 270720, Control_c, 11, 11, 86
12, 270720, Note_on_c, 11, 62, 69
12, 271910, Note_off_c, 11, 62, 69
12, 272640, Note_on_c, 11, 60, 69
12, 276360, Note_off_c, 11, 60, 69
12, 276480, Control_c, 11, 11, 95
12, 276480, Control_c, 11, 11, 119
12, 276480, Control_c, 11, 11, 86
12, 276480, End_track
13, 0, Start_track
13, 960, Control_c, 12, 64, 0
13, 960, Control_c, 12, 7, 127
13, 960, Control_c, 12, 10, 64
13, 1460, Program_c, 12, 48
13, 3820, Control_c, 12, 0, 0
13, 3830, Control_c, 12, 32, 0
13, 3840, Program_c, 12, 49
13, 7680, Control_c, 12, 1, 0
13, 7680, Control_c, 12, 7, 98
13, 7680, Control_c, 12, 91, 127
13, 7680, Control_c, 12, 93, 6
13, 7680, Control_c, 12, 10, 78
13, 42240, Control_c, 12, 11, 99
13, 42240, Note_on_c, 12, 60, 82
13, 45960, Note_off_c, 12, 60, 82
13, 46080, Note_on_c, 12, 59, 82
13, 47010, Note_off_c, 12, 59, 82
13, 47040, Note_on_c, 12, 59, 82
13, 47040, Note_on_c, 12, 62, 82
13, 48900, Note_off_c, 12, 59, 82
13, 48900, Note_off_c, 12, 62, 82
13, 48960, Note_on_c, 12, 59, 82
13, 48960, Note_on_c, 12, 62, 82
13, 49890, Note_off_c, 12, 59, 82
13, 49890, Note_off_c, 12, 62, 82
13, 49920, Note_on_c, 12, 65, 82
13, 53640, Note_off_c, 12, 65, 82
13, 53760, Note_on_c, 12, 63, 82
13, 54690, Note_off_c, 12, 63, 82
13, 54720, Note_on_c, 12, 48, 82
13, 54720, Note_on_c, 12, 60, 82
13, 56580, Note_off_c, 12, 48, 82
13, 56580, Note_off_c, 12, 60, 82
13, 56640, Note_on_c, 12, 48, 82
13, 56640, Note_on_c, 12, 60, 82
13, 57570, Note_off_c, 12, 48, 82
13, 57570, Note_off_c, 12, 60, 82
13, 57600, Note_on_c, 12, 48, 82
13, 57600, Note_on_c, 12, 60, 82
13, 58790, Note_off_c, 12, 48, 82
13, 58790, Note_off_c, 12, 60, 82
13, 61440, Note_on_c, 12, 56, 82
13, 61900, Note_off_c, 12, 56, 82
13, 61920, Note_on_c, 12, 56, 82
13, 62850, Note_off_c, 12, 56, 82
13, 62880, Note_on_c, 12, 56, 82
13, 63820, Note_off_c, 12, 56, 82
13, 63840, Note_on_c, 12, 56, 82
13, 64300, Note_off_c, 12, 56, 82
13, 64320, Note_on_c, 12, 55, 82
13, 64780, Note_off_c, 12, 55, 82
13, 64800, Note_on_c, 12, 59, 82
13, 65260, Note_off_c, 12, 59, 82
13, 65280, Note_on_c, 12, 60, 82
13, 66470, Note_off_c, 12, 60, 82
13, 69120, Note_on_c, 12, 59, 82
13, 69580, Note_off_c, 12, 59, 82
13, 69600, Note_on_c, 12, 59, 82
13, 70530, Note_off_c, 12, 59, 82
13, 70560, Note_on_c, 12, 59, 82
13, 71500, Note_off_c, 12, 59, 82
13, 71520, Note_on_c, 12, 59, 82
13, 72450, Note_off_c, 12, 59, 82
13, 72480, Note_on_c, 12, 59, 82
13, 72940, Note_off_c, 12, 59, 82
13, 72960, Note_on_c, 12, 60, 82
13, 74150, Note_off_c, 12, 60, 82
13, 80640, Note_on_c, 12, 63, 82
13, 81100, Note_off_c, 12, 63, 82
13, 81120, Note_on_c, 12, 63, 82
13, 82050, Note_off_c, 12, 63, 82
13, 82080, Note_on_c, 12, 63, 82
13, 83020, Note_off_c, 12, 63, 82
13, 83040, Note_on_c, 12, 63, 82
13, 83970, Note_off_c, 12, 63, 82
13, 84000, Note_on_c, 12, 63, 82
13, 84460, Note_off_c, 12, 63, 82
13, 84480, Note_on_c, 12, 65, 82
13, 84940, Note_off_c, 12, 65, 82
13, 84960, Note_on_c, 12, 65, 82
13, 85890, Note_off_c, 12, 65, 82
13, 85920, Note_on_c, 12, 65, 82
13, 86860, Note_off_c, 12, 65, 82
13, 86880, Note_on_c, 12, 65, 82
13, 87810, Note_off_c, 12, 65, 82
13, 87840, Note_on_c, 12, 65, 82
13, 88300, Note_off_c, 12, 65, 82
13, 88320, Note_on_c, 12, 63, 82
13, 92040, Note_off_c, 12, 63, 82
13, 92160, Note_on_c, 12, 62, 82
13, 93350, Note_off_c, 12, 62, 82
13, 95040, Note_on_c, 12, 63, 82
13, 95730, Note_off_c, 12, 63, 82
13, 95760, Note_on_c, 12, 62, 82
13, 95990, Note_off_c, 12, 62, 82
13, 96000, Note_on_c, 12, 62, 82
13, 97190, Note_off_c, 12, 62, 82
13, 98880, Note_on_c, 12, 63, 82
13, 99570, Note_off_c, 12, 63, 82
13, 99600, Note_on_c, 12, 62, 82
13, 99830, Note_off_c, 12, 62, 82
13, 99840, Note_on_c, 12, 62, 82
13, 100770, Note_off_c, 12, 62, 82
13, 100800, Note_on_c, 12, 62, 82
13, 101730, Note_off_c, 12, 62, 82
13, 101760, Note_on_c, 12, 63, 82
13, 102690, Note_off_c, 12, 63, 82
13, 102720, Note_on_c, 12, 62, 82
13, 103650, Note_off_c, 12, 62, 82
13, 103680, Note_on_c, 12, 63, 82
13, 104610, Note_off_c, 12, 63, 82
13, 104640, Note_on_c, 12, 58, 82
13, 105570, Note_off_c, 12, 58, 82
13, 105600, Note_on_c, 12, 60, 82
13, 106530, Note_off_c, 12, 60, 82
13, 106560, Note_on_c, 12, 56, 82
13, 107490, Note_off_c, 12, 56, 82
13, 107520, Note_on_c, 12, 55, 82
13, 108450, Note_off_c, 12, 55, 82
13, 108480, Note_on_c, 12, 58, 82
13, 109410, Note_off_c, 12, 58, 82
13, 109440, Note_on_c, 12, 55, 82
13, 110370, Note_off_c, 12, 55, 82
13, 110400, Note_on_c, 12, 53, 82
13, 111330, Note_off_c, 12, 53, 82
13, 111360, Note_on_c, 12, 55, 82
13, 112290, Note_off_c, 12, 55, 82
13, 112320, Note_on_c, 12, 60, 82
13, 114180, Note_off_c, 12, 60, 82
13, 114240, Note_on_c, 12, 58, 82
13, 115170, Note_off_c, 12, 58, 82
13, 115200, Note_on_c, 12, 56, 82
13, 116130, Note_off_c, 12, 56, 82
13, 116160, Note_on_c, 12, 51, 82
13, 117090, Note_off_c, 12, 51, 82
13, 117120, Note_on_c, 12, 58, 82
13, 119970, Note_off_c, 12, 58, 82
13, 120000, Note_on_c, 12, 60, 82
13, 120930, Note_off_c, 12, 60, 82
13, 120960, Note_on_c, 12, 62, 82
13, 121890, Note_off_c, 12, 62, 82
13, 121920, Note_on_c, 12, 63, 82
13, 122380, Note_off_c, 12, 63, 82
13, 122400, Note_on_c, 12, 57, 82
13, 122860, Note_off_c, 12, 57, 82
13, 122880, Note_on_c, 12, 58, 82
13, 123810, Note_off_c, 12, 58, 82
13, 123840, Note_on_c, 12, 56, 82
13, 124770, Note_off_c, 12, 56, 82
13, 124800, Note_on_c, 12, 55, 82
13, 125730, Note_off_c, 12, 55, 82
13, 125760, Note_on_c, 12, 53, 82
13, 126690, Note_off_c, 12, 53, 82
13, 126720, Note_on_c, 12, 51, 82
13, 127650, Note_off_c, 12, 51, 82
13, 127680, Note_on_c, 12, 50, 82
13, 128610, Note_off_c, 12, 50, 82
13, 128640, Note_on_c, 12, 48, 82
13, 129570, Note_off_c, 12, 48, 82
13, 129600, Note_on_c, 12, 58, 82
13, 130530, Note_off_c, 12, 58, 82
13, 130560, Note_on_c, 12, 56, 82
13, 131490, Note_off_c, 12, 56, 82
13, 131520, Note_on_c, 12, 55, 82
13, 132450, Note_off_c, 12, 55, 82
13, 132480, Note_on_c, 12, 56, 82
13, 134340, Note_off_c, 12, 56, 82
13, 134400, Note_on_c, 12, 55, 82
13, 135330, Note_off_c, 12, 55, 82
13, 135360, Note_on_c, 12, 59, 82
13, 136290, Note_off_c, 12, 59, 82
13, 136320, Note_on_c, 12, 60, 82
13, 137250, Note_off_c, 12, 60, 82
13, 137280, Note_on_c, 12, 65, 82
13, 137740, Note_off_c, 12, 65, 82
13, 137760, Note_on_c, 12, 59, 82
13, 138220, Note_off_c, 12, 59, 82
13, 138240, Note_on_c, 12, 60, 82
13, 138700, Note_off_c, 12, 60, 82
13, 138720, Note_on_c, 12, 48, 82
13, 138720, Note_on_c, 12, 60, 82
13, 139650, Note_off_c, 12, 48, 82
13, 139650, Note_off_c, 12, 60, 82
13, 139680, Note_on_c, 12, 48, 82
13, 139680, Note_on_c, 12, 60, 82
13, 140620, Note_off_c, 12, 48, 82
13, 140620, Note_off_c, 12, 60, 82
13, 140640, Note_on_c, 12, 48, 82
13, 140640, Note_on_c, 12, 60, 82
13, 141570, Note_off_c, 12, 48, 82
13, 141570, Note_off_c, 12, 60, 82
13, 141600, Note_on_c, 12, 48, 82
13, 141600, Note_on_c, 12, 60, 82
13, 142540, Note_off_c, 12, 48, 82
13, 142540, Note_off_c, 12, 60, 82
13, 142560, Note_on_c, 12, 48, 82
13, 142560, Note_on_c, 12, 60, 82
13, 143490, Note_off_c, 12, 48, 82
13, 143490, Note_off_c, 12, 60, 82
13, 143520, Note_on_c, 12, 48, 82
13, 143520, Note_on_c, 12, 60, 82
13, 144460, Note_off_c, 12, 48, 82
13, 144460, Note_off_c, 12, 60, 82
13, 144480, Note_on_c, 12, 48, 82
13, 144480, Note_on_c, 12, 60, 82
13, 145410, Note_off_c, 12, 48, 82
13, 145410, Note_off_c, 12, 60, 82
13, 145440, Note_on_c, 12, 48, 82
13, 145440, Note_on_c, 12, 60, 82
13, 146380, Note_off_c, 12, 48, 82
13, 146380, Note_off_c, 12, 60, 82
13, 146400, Note_on_c, 12, 48, 82
13, 146400, Note_on_c, 12, 60, 82
13, 147330, Note_off_c, 12, 48, 82
13, 147330, Note_off_c, 12, 60, 82
13, 147360, Note_on_c, 12, 48, 82
13, 147360, Note_on_c, 12, 60, 82
13, 148300, Note_off_c, 12, 48, 82
13, 148300, Note_off_c, 12, 60, 82
13, 148320, Note_on_c, 12, 48, 82
13, 148320, Note_on_c, 12, 60, 82
13, 149250, Note_off_c, 12, 48, 82
13, 149250, Note_off_c, 12, 60, 82
13, 149280, Note_on_c, 12, 48, 82
13, 149280, Note_on_c, 12, 60, 82
13, 149740, Note_off_c, 12, 48, 82
13, 149740, Note_off_c, 12, 60, 82
13, 149760, Note_on_c, 12, 51, 82
13, 149760, Note_on_c, 12, 55, 82
13, 150220, Note_off_c, 12, 51, 82
13, 150220, Note_off_c, 12, 55, 82
13, 150240, Note_on_c, 12, 51, 82
13, 150240, Note_on_c, 12, 55, 82
13, 151170, Note_off_c, 12, 51, 82
13, 151170, Note_off_c, 12, 55, 82
13, 151200, Note_on_c, 12, 51, 82
13, 151200, Note_on_c, 12, 55, 82
13, 152140, Note_off_c, 12, 51, 82
13, 152140, Note_off_c, 12, 55, 82
13, 152160, Note_on_c, 12, 51, 82
13, 152160, Note_on_c, 12, 55, 82
13, 153090, Note_off_c, 12, 51, 82
13, 153090, Note_off_c, 12, 55, 82
13, 153120, Note_on_c, 12, 51, 82
13, 153120, Note_on_c, 12, 55, 82
13, 154060, Note_off_c, 12, 51, 82
13, 154060, Note_off_c, 12, 55, 82
13, 154080, Note_on_c, 12, 51, 82
13, 154080, Note_on_c, 12, 55, 82
13, 155010, Note_off_c, 12, 51, 82
13, 155010, Note_off_c, 12, 55, 82
13, 155040, Note_on_c, 12, 55, 82
13, 155040, Note_on_c, 12, 51, 82
13, 155500, Note_off_c, 12, 55, 82
13, 155520, Note_on_c, 12, 57, 82
13, 155980, Note_off_c, 12, 57, 82
13, 155980, Note_off_c, 12, 51, 82
13, 156000, Note_on_c, 12, 51, 82
13, 156000, Note_on_c, 12, 57, 82
13, 156930, Note_off_c, 12, 51, 82
13, 156930, Note_off_c, 12, 57, 82
13, 156960, Note_on_c, 12, 51, 82
13, 156960, Note_on_c, 12, 57, 82
13, 157420, Note_off_c, 12, 51, 82
13, 157420, Note_off_c, 12, 57, 82
13, 157440, Note_on_c, 12, 53, 82
13, 157440, Note_on_c, 12, 58, 82
13, 157900, Note_off_c, 12, 53, 82
13, 157900, Note_off_c, 12, 58, 82
13, 157920, Note_on_c, 12, 58, 82
13, 157920, Note_on_c, 12, 62, 82
13, 158850, Note_off_c, 12, 58, 82
13, 158850, Note_off_c, 12, 62, 82
13, 158880, Note_on_c, 12, 58, 82
13, 158880, Note_on_c, 12, 62, 82
13, 159820, Note_off_c, 12, 58, 82
13, 159820, Note_off_c, 12, 62, 82
13, 159840, Note_on_c, 12, 58, 82
13, 159840, Note_on_c, 12, 62, 82
13, 160770, Note_off_c, 12, 58, 82
13, 160770, Note_off_c, 12, 62, 82
13, 160800, Note_on_c, 12, 58, 82
13, 160800, Note_on_c, 12, 62, 82
13, 161260, Note_off_c, 12, 58, 82
13, 161260, Note_off_c, 12, 62, 82
13, 161280, Note_on_c, 12, 55, 82
13, 161280, Note_on_c, 12, 63, 82
13, 161740, Note_off_c, 12, 55, 82
13, 161740, Note_off_c, 12, 63, 82
13, 161760, Note_on_c, 12, 55, 82
13, 161760, Note_on_c, 12, 63, 82
13, 162690, Note_off_c, 12, 55, 82
13, 162690, Note_off_c, 12, 63, 82
13, 162720, Note_on_c, 12, 55, 82
13, 162720, Note_on_c, 12, 63, 82
13, 163660, Note_off_c, 12, 55, 82
13, 163660, Note_off_c, 12, 63, 82
13, 163680, Note_on_c, 12, 55, 82
13, 163680, Note_on_c, 12, 63, 82
13, 164610, Note_off_c, 12, 55, 82
13, 164610, Note_off_c, 12, 63, 82
13, 164640, Note_on_c, 12, 55, 82
13, 164640, Note_on_c, 12, 63, 82
13, 165100, Note_off_c, 12, 55, 82
13, 165120, Note_on_c, 12, 60, 82
13, 165580, Note_off_c, 12, 60, 82
13, 165580, Note_off_c, 12, 63, 82
13, 165600, Note_on_c, 12, 60, 82
13, 165600, Note_on_c, 12, 63, 82
13, 166530, Note_off_c, 12, 60, 82
13, 166530, Note_off_c, 12, 63, 82
13, 166560, Note_on_c, 12, 60, 82
13, 166560, Note_on_c, 12, 63, 82
13, 167020, Note_off_c, 12, 60, 82
13, 167020, Note_off_c, 12, 63, 82
13, 167040, Note_on_c, 12, 58, 82
13, 167040, Note_on_c, 12, 65, 82
13, 167500, Note_off_c, 12, 58, 82
13, 167500, Note_off_c, 12, 65, 82
13, 167520, Note_on_c, 12, 58, 82
13, 167520, Note_on_c, 12, 65, 82
13, 168450, Note_off_c, 12, 58, 82
13, 168450, Note_off_c, 12, 65, 82
13, 168480, Note_on_c, 12, 65, 82
13, 168480, Note_on_c, 12, 58, 82
13, 168940, Note_off_c, 12, 65, 82
13, 168960, Note_on_c, 12, 67, 82
13, 169420, Note_off_c, 12, 67, 82
13, 169420, Note_off_c, 12, 58, 82
13, 169440, Note_on_c, 12, 58, 82
13, 169440, Note_on_c, 12, 67, 82
13, 170370, Note_off_c, 12, 58, 82
13, 170370, Note_off_c, 12, 67, 82
13, 170400, Note_on_c, 12, 58, 82
13, 170400, Note_on_c, 12, 67, 82
13, 170860, Note_off_c, 12, 58, 82
13, 170860, Note_off_c, 12, 67, 82
13, 170880, Note_on_c, 12, 56, 82
13, 170880, Note_on_c, 12, 68, 82
13, 171340, Note_off_c, 12, 56, 82
13, 171340, Note_off_c, 12, 68, 82
13, 171360, Note_on_c, 12, 56, 82
13, 171360, Note_on_c, 12, 68, 82
13, 172290, Note_off_c, 12, 56, 82
13, 172290, Note_off_c, 12, 68, 82
13, 172320, Note_on_c, 12, 56, 82
13, 172320, Note_on_c, 12, 68, 82
13, 172780, Note_off_c, 12, 56, 82
13, 172780, Note_off_c, 12, 68, 82
13, 172800, Note_on_c, 12, 58, 82
13, 172800, Note_on_c, 12, 67, 82
13, 173260, Note_off_c, 12, 58, 82
13, 173260, Note_off_c, 12, 67, 82
13, 173280, Note_on_c, 12, 58, 82
13, 173280, Note_on_c, 12, 67, 82
13, 174210, Note_off_c, 12, 58, 82
13, 174210, Note_off_c, 12, 67, 82
13, 174240, Note_on_c, 12, 67, 82
13, 174240, Note_on_c, 12, 58, 82
13, 174700, Note_off_c, 12, 67, 82
13, 174720, Note_on_c, 12, 65, 82
13, 175180, Note_off_c, 12, 65, 82
13, 175180, Note_off_c, 12, 58, 82
13, 175200, Note_on_c, 12, 62, 82
13, 175200, Note_on_c, 12, 65, 82
13, 176130, Note_off_c, 12, 62, 82
13, 176130, Note_off_c, 12, 65, 82
13, 176160, Note_on_c, 12, 62, 82
13, 176160, Note_on_c, 12, 65, 82
13, 176620, Note_off_c, 12, 62, 82
13, 176620, Note_off_c, 12, 65, 82
13, 176640, Note_on_c, 12, 63, 82
13, 177570, Note_off_c, 12, 63, 82
13, 177600, Note_on_c, 12, 58, 82
13, 179460, Note_off_c, 12, 58, 82
13, 179520, Note_on_c, 12, 58, 82
13, 181410, Note_off_c, 12, 58, 82
13, 181440, Note_on_c, 12, 55, 82
13, 183300, Note_off_c, 12, 55, 82
13, 183360, Note_on_c, 12, 60, 82
13, 185250, Note_off_c, 12, 60, 82
13, 185280, Note_on_c, 12, 60, 82
13, 187140, Note_off_c, 12, 60, 82
13, 187200, Note_on_c, 12, 60, 82
13, 189090, Note_off_c, 12, 60, 82
13, 189120, Note_on_c, 12, 57, 82
13, 190980, Note_off_c, 12, 57, 82
13, 191040, Note_on_c, 12, 62, 82
13, 191970, Note_off_c, 12, 62, 82
13, 192000, Note_on_c, 12, 62, 82
13, 192460, Note_off_c, 12, 62, 82
13, 192480, Note_on_c, 12, 55, 82
13, 192480, Note_on_c, 12, 67, 82
13, 193410, Note_off_c, 12, 55, 82
13, 193410, Note_off_c, 12, 67, 82
13, 193440, Note_on_c, 12, 55, 82
13, 193440, Note_on_c, 12, 67, 82
13, 194380, Note_off_c, 12, 55, 82
13, 194380, Note_off_c, 12, 67, 82
13, 194400, Note_on_c, 12, 55, 82
13, 194400, Note_on_c, 12, 67, 82
13, 195330, Note_off_c, 12, 55, 82
13, 195330, Note_off_c, 12, 67, 82
13, 195360, Note_on_c, 12, 55, 82
13, 195360, Note_on_c, 12, 67, 82
13, 196300, Note_off_c, 12, 55, 82
13, 196300, Note_off_c, 12, 67, 82
13, 196320, Note_on_c, 12, 55, 82
13, 196320, Note_on_c, 12, 67, 82
13, 197250, Note_off_c, 12, 55, 82
13, 197250, Note_off_c, 12, 67, 82
13, 197280, Note_on_c, 12, 55, 82
13, 197280, Note_on_c, 12, 67, 82
13, 198220, Note_off_c, 12, 55, 82
13, 198220, Note_off_c, 12, 67, 82
13, 198240, Note_on_c, 12, 55, 82
13, 198240, Note_on_c, 12, 67, 82
13, 199170, Note_off_c, 12, 55, 82
13, 199170, Note_off_c, 12, 67, 82
13, 199200, Note_on_c, 12, 67, 82
13, 199200, Note_on_c, 12, 55, 82
13, 200140, Note_off_c, 12, 67, 82
13, 200160, Note_on_c, 12, 68, 82
13, 200370, Note_off_c, 12, 55, 82
13, 200620, Note_off_c, 12, 68, 82
13, 200640, Note_on_c, 12, 67, 82
13, 201100, Note_off_c, 12, 67, 82
13, 201120, Note_on_c, 12, 66, 82
13, 201580, Note_off_c, 12, 66, 82
13, 201600, Note_on_c, 12, 67, 82
13, 202060, Note_off_c, 12, 67, 82
13, 202080, Note_on_c, 12, 62, 82
13, 202540, Note_off_c, 12, 62, 82
13, 202560, Note_on_c, 12, 63, 82
13, 203040, Note_on_c, 12, 59, 82
13, 203250, Note_off_c, 12, 63, 82
13, 203500, Note_off_c, 12, 59, 82
13, 203520, Note_on_c, 12, 60, 82
13, 203980, Note_off_c, 12, 60, 82
13, 204000, Note_on_c, 12, 59, 82
13, 204460, Note_off_c, 12, 59, 82
13, 204480, Note_on_c, 12, 60, 82
13, 204940, Note_off_c, 12, 60, 82
13, 204960, Note_on_c, 12, 50, 82
13, 205420, Note_off_c, 12, 50, 82
13, 205440, Note_on_c, 12, 51, 82
13, 205900, Note_off_c, 12, 51, 82
13, 205920, Note_on_c, 12, 52, 82
13, 206380, Note_off_c, 12, 52, 82
13, 206400, Note_on_c, 12, 53, 82
13, 206860, Note_off_c, 12, 53, 82
13, 206880, Note_on_c, 12, 54, 82
13, 207340, Note_off_c, 12, 54, 82
13, 207360, Note_on_c, 12, 55, 82
13, 207820, Note_off_c, 12, 55, 82
13, 207840, Note_on_c, 12, 53, 82
13, 208300, Note_off_c, 12, 53, 82
13, 208320, Note_on_c, 12, 56, 82
13, 208780, Note_off_c, 12, 56, 82
13, 208800, Note_on_c, 12, 55, 82
13, 209260, Note_off_c, 12, 55, 82
13, 209280, Note_on_c, 12, 53, 82
13, 209740, Note_off_c, 12, 53, 82
13, 209760, Note_on_c, 12, 51, 82
13, 210220, Note_off_c, 12, 51, 82
13, 210240, Note_on_c, 12, 50, 82
13, 210700, Note_off_c, 12, 50, 82
13, 210720, Note_on_c, 12, 48, 82
13, 211180, Note_off_c, 12, 48, 82
13, 211200, Note_on_c, 12, 59, 82
13, 211660, Note_off_c, 12, 59, 82
13, 211680, Note_on_c, 12, 60, 82
13, 212140, Note_off_c, 12, 60, 82
13, 212160, Note_on_c, 12, 62, 82
13, 212620, Note_off_c, 12, 62, 82
13, 212640, Note_on_c, 12, 55, 82
13, 213100, Note_off_c, 12, 55, 82
13, 213120, Note_on_c, 12, 56, 82
13, 213580, Note_off_c, 12, 56, 82
13, 213600, Note_on_c, 12, 57, 82
13, 214060, Note_off_c, 12, 57, 82
13, 214080, Note_on_c, 12, 58, 82
13, 214540, Note_off_c, 12, 58, 82
13, 214560, Note_on_c, 12, 59, 82
13, 215020, Note_off_c, 12, 59, 82
13, 215040, Note_on_c, 12, 60, 82
13, 215500, Note_off_c, 12, 60, 82
13, 215520, Note_on_c, 12, 51, 82
13, 215980, Note_off_c, 12, 51, 82
13, 216000, Note_on_c, 12, 53, 82
13, 216460, Note_off_c, 12, 53, 82
13, 216480, Note_on_c, 12, 54, 82
13, 216940, Note_off_c, 12, 54, 82
13, 216960, Note_on_c, 12, 55, 82
13, 217420, Note_off_c, 12, 55, 82
13, 217440, Note_on_c, 12, 56, 82
13, 217900, Note_off_c, 12, 56, 82
13, 217920, Note_on_c, 12, 57, 82
13, 218380, Note_off_c, 12, 57, 82
13, 218400, Note_on_c, 12, 59, 82
13, 218860, Note_off_c, 12, 59, 82
13, 218880, Note_on_c, 12, 60, 82
13, 220070, Note_off_c, 12, 60, 82
13, 222720, Note_on_c, 12, 56, 82
13, 223180, Note_off_c, 12, 56, 82
13, 223200, Note_on_c, 12, 56, 82
13, 224130, Note_off_c, 12, 56, 82
13, 224160, Note_on_c, 12, 56, 82
13, 225100, Note_off_c, 12, 56, 82
13, 225120, Note_on_c, 12, 56, 82
13, 225580, Note_off_c, 12, 56, 82
13, 225600, Note_on_c, 12, 55, 82
13, 226060, Note_off_c, 12, 55, 82
13, 226080, Note_on_c, 12, 59, 82
13, 226540, Note_off_c, 12, 59, 82
13, 226560, Note_on_c, 12, 60, 82
13, 227750, Note_off_c, 12, 60, 82
13, 230400, Note_on_c, 12, 59, 82
13, 230860, Note_off_c, 12, 59, 82
13, 230880, Note_on_c, 12, 59, 82
13, 231810, Note_off_c, 12, 59, 82
13, 231840, Note_on_c, 12, 59, 82
13, 232780, Note_off_c, 12, 59, 82
13, 232800, Note_on_c, 12, 59, 82
13, 233730, Note_off_c, 12, 59, 82
13, 233760, Note_on_c, 12, 59, 82
13, 234220, Note_off_c, 12, 59, 82
13, 234240, Note_on_c, 12, 60, 82
13, 234700, Note_off_c, 12, 60, 82
13, 234720, Note_on_c, 12, 67, 82
13, 235650, Note_off_c, 12, 67, 82
13, 235680, Note_on_c, 12, 67, 82
13, 236620, Note_off_c, 12, 67, 82
13, 236640, Note_on_c, 12, 67, 82
13, 236640, Note_on_c, 12, 70, 82
13, 237570, Note_off_c, 12, 67, 82
13, 237570, Note_off_c, 12, 70, 82
13, 237600, Note_on_c, 12, 67, 82
13, 237600, Note_on_c, 12, 70, 82
13, 238060, Note_off_c, 12, 67, 82
13, 238060, Note_off_c, 12, 70, 82
13, 238080, Note_on_c, 12, 60, 82
13, 238080, Note_on_c, 12, 68, 82
13, 238540, Note_off_c, 12, 60, 82
13, 238540, Note_off_c, 12, 68, 82
13, 238560, Note_on_c, 12, 60, 82
13, 238560, Note_on_c, 12, 68, 82
13, 239490, Note_off_c, 12, 60, 82
13, 239490, Note_off_c, 12, 68, 82
13, 239520, Note_on_c, 12, 60, 82
13, 239520, Note_on_c, 12, 68, 82
13, 240460, Note_off_c, 12, 60, 82
13, 240460, Note_off_c, 12, 68, 82
13, 240480, Note_on_c, 12, 60, 82
13, 240480, Note_on_c, 12, 68, 82
13, 241410, Note_off_c, 12, 60, 82
13, 241410, Note_off_c, 12, 68, 82
13, 241440, Note_on_c, 12, 68, 82
13, 241440, Note_on_c, 12, 60, 82
13, 241900, Note_off_c, 12, 68, 82
13, 241920, Note_on_c, 12, 69, 82
13, 242380, Note_off_c, 12, 69, 82
13, 242380, Note_off_c, 12, 60, 82
13, 242400, Note_on_c, 12, 60, 82
13, 242400, Note_on_c, 12, 69, 82
13, 243330, Note_off_c, 12, 60, 82
13, 243330, Note_off_c, 12, 69, 82
13, 243360, Note_on_c, 12, 60, 82
13, 243360, Note_on_c, 12, 69, 82
13, 244300, Note_off_c, 12, 60, 82
13, 244300, Note_off_c, 12, 69, 82
13, 244320, Note_on_c, 12, 60, 82
13, 244320, Note_on_c, 12, 69, 82
13, 245250, Note_off_c, 12, 60, 82
13, 245250, Note_off_c, 12, 69, 82
13, 245280, Note_on_c, 12, 60, 82
13, 245280, Note_on_c, 12, 69, 82
13, 245740, Note_off_c, 12, 60, 82
13, 245740, Note_off_c, 12, 69, 82
13, 246240, Note_on_c, 12, 55, 82
13, 246700, Note_off_c, 12, 55, 82
13, 246720, Note_on_c, 12, 55, 82
13, 247180, Note_off_c, 12, 55, 82
13, 247200, Note_on_c, 12, 55, 82
13, 247910, Note_off_c, 12, 55, 82
13, 248160, Note_on_c, 12, 53, 82
13, 248160, Note_on_c, 12, 55, 82
13, 248620, Note_off_c, 12, 53, 82
13, 248620, Note_off_c, 12, 55, 82
13, 248640, Note_on_c, 12, 53, 82
13, 248640, Note_on_c, 12, 55, 82
13, 249100, Note_off_c, 12, 53, 82
13, 249100, Note_off_c, 12, 55, 82
13, 249120, Note_on_c, 12, 53, 82
13, 249120, Note_on_c, 12, 55, 82
13, 249580, Note_off_c, 12, 53, 82
13, 249580, Note_off_c, 12, 55, 82
13, 249600, Note_on_c, 12, 51, 82
13, 249600, Note_on_c, 12, 55, 82
13, 250790, Note_off_c, 12, 51, 82
13, 250790, Note_off_c, 12, 55, 82
13, 252480, Note_on_c, 12, 52, 82
13, 253410, Note_off_c, 12, 52, 82
13, 253440, Note_on_c, 12, 53, 82
13, 255300, Note_off_c, 12, 53, 82
13, 255360, Note_on_c, 12, 55, 82
13, 260070, Note_off_c, 12, 55, 82
13, 260160, Note_on_c, 12, 64, 82
13, 261090, Note_off_c, 12, 64, 82
13, 261120, Note_on_c, 12, 65, 82
13, 262980, Note_off_c, 12, 65, 82
13, 263040, Note_on_c, 12, 67, 82
13, 264900, Note_off_c, 12, 67, 82
13, 264960, Note_on_c, 12, 68, 82
13, 266150, Note_off_c, 12, 68, 82
13, 266880, Control_c, 12, 11, 95
13, 266880, Note_on_c, 12, 60, 78
13, 268070, Note_off_c, 12, 60, 78
13, 268800, Control_c, 12, 11, 91
13, 268800, Note_on_c, 12, 60, 76
13, 269990, Note_off_c, 12, 60, 76
13, 270720, Control_c, 12, 11, 86
13, 270720, Note_on_c, 12, 59, 69
13, 271910, Note_off_c, 12, 59, 69
13, 272640, Note_on_c, 12, 48, 69
13, 272640, Note_on_c, 12, 60, 69
13, 276360, Note_off_c, 12, 48, 69
13, 276360, Note_off_c, 12, 60, 69
13, 276480, Control_c, 12, 11, 95
13, 276480, Control_c, 12, 11, 119
13, 276480, Control_c, 12, 11, 86
13, 276480, End_track
14, 0, Start_track
14, 960, Control_c, 13, 64, 0
14, 960, Control_c, 13, 7, 127
14, 960, Control_c, 13, 10, 64
14, 1460, Program_c, 13, 48
14, 3820, Control_c, 13, 0, 0
14, 3830, Control_c, 13, 32, 0
14, 3840, Program_c, 13, 48
14, 7680, Control_c, 13, 1, 0
14, 7680, Control_c, 13, 7, 100
14, 7680, Control_c, 13, 91, 127
14, 7680, Control_c, 13, 93, 10
14, 7680, Control_c, 13, 10, 90
14, 42240, Control_c, 13, 11, 99
14, 42240, Note_on_c, 13, 36, 86
14, 45960, Note_off_c, 13, 36, 86
14, 46080, Note_on_c, 13, 31, 86
14, 47010, Note_off_c, 13, 31, 86
14, 47040, Note_on_c, 13, 44, 86
14, 47970, Note_off_c, 13, 44, 86
14, 48000, Note_on_c, 13, 41, 86
14, 48930, Note_off_c, 13, 41, 86
14, 48960, Note_on_c, 13, 38, 86
14, 49890, Note_off_c, 13, 38, 86
14, 49920, Note_on_c, 13, 35, 86
14, 53640, Note_off_c, 13, 35, 86
14, 53760, Note_on_c, 13, 36, 86
14, 54690, Note_off_c, 13, 36, 86
14, 54720, Note_on_c, 13, 48, 86
14, 55650, Note_off_c, 13, 48, 86
14, 55680, Note_on_c, 13, 43, 86
14, 56610, Note_off_c, 13, 43, 86
14, 56640, Note_on_c, 13, 39, 86
14, 57570, Note_off_c, 13, 39, 86
14, 57600, Note_on_c, 13, 36, 86
14, 58020, Note_off_c, 13, 36, 86
14, 58080, Note_on_c, 13, 36, 86
14, 58500, Note_off_c, 13, 36, 86
14, 58560, Note_on_c, 13, 36, 86
14, 58980, Note_off_c, 13, 36, 86
14, 59040, Note_on_c, 13, 36, 86
14, 59460, Note_off_c, 13, 36, 86
14, 59520, Note_on_c, 13, 36, 86
14, 59940, Note_off_c, 13, 36, 86
14, 60000, Note_on_c, 13, 36, 86
14, 60420, Note_off_c, 13, 36, 86
14, 60480, Note_on_c, 13, 36, 86
14, 60900, Note_off_c, 13, 36, 86
14, 60960, Note_on_c, 13, 36, 86
14, 61380, Note_off_c, 13, 36, 86
14, 61440, Note_on_c, 13, 36, 86
14, 61860, Note_off_c, 13, 36, 86
14, 61920, Note_on_c, 13, 36, 86
14, 62340, Note_off_c, 13, 36, 86
14, 62400, Note_on_c, 13, 36, 86
14, 62820, Note_off_c, 13, 36, 86
14, 62880, Note_on_c, 13, 36, 86
14, 63300, Note_off_c, 13, 36, 86
14, 63360, Note_on_c, 13, 36, 86
14, 63780, Note_off_c, 13, 36, 86
14, 63840, Note_on_c, 13, 36, 86
14, 64260, Note_off_c, 13, 36, 86
14, 64320, Note_on_c, 13, 36, 86
14, 64740, Note_off_c, 13, 36, 86
14, 64800, Note_on_c, 13, 36, 86
14, 65220, Note_off_c, 13, 36, 86
14, 65280, Note_on_c, 13, 36, 86
14, 65700, Note_off_c, 13, 36, 86
14, 65760, Note_on_c, 13, 36, 86
14, 66180, Note_off_c, 13, 36, 86
14, 66240, Note_on_c, 13, 36, 86
14, 66660, Note_off_c, 13, 36, 86
14, 66720, Note_on_c, 13, 36, 86
14, 67140, Note_off_c, 13, 36, 86
14, 67200, Note_on_c, 13, 36, 86
14, 67620, Note_off_c, 13, 36, 86
14, 67680, Note_on_c, 13, 36, 86
14, 68100, Note_off_c, 13, 36, 86
14, 68160, Note_on_c, 13, 36, 86
14, 68580, Note_off_c, 13, 36, 86
14, 68640, Note_on_c, 13, 36, 86
14, 69060, Note_off_c, 13, 36, 86
14, 69120, Note_on_c, 13, 36, 86
14, 69540, Note_off_c, 13, 36, 86
14, 69600, Note_on_c, 13, 36, 86
14, 70020, Note_off_c, 13, 36, 86
14, 70080, Note_on_c, 13, 36, 86
14, 70500, Note_off_c, 13, 36, 86
14, 70560, Note_on_c, 13, 36, 86
14, 70980, Note_off_c, 13, 36, 86
14, 71040, Note_on_c, 13, 36, 86
14, 71460, Note_off_c, 13, 36, 86
14, 71520, Note_on_c, 13, 36, 86
14, 71940, Note_off_c, 13, 36, 86
14, 72000, Note_on_c, 13, 36, 86
14, 72420, Note_off_c, 13, 36, 86
14, 72480, Note_on_c, 13, 36, 86
14, 72900, Note_off_c, 13, 36, 86
14, 72960, Note_on_c, 13, 36, 86
14, 74130, Note_off_c, 13, 36, 86
14, 77760, Control_c, 13, 11, 105
14, 77760, Note_on_c, 13, 44, 90
14, 79440, Note_off_c, 13, 44, 90
14, 79680, Note_on_c, 13, 43, 90
14, 80100, Note_off_c, 13, 43, 90
14, 80160, Note_on_c, 13, 41, 90
14, 80580, Note_off_c, 13, 41, 90
14, 80640, Note_on_c, 13, 39, 90
14, 81270, Note_off_c, 13, 39, 90
14, 81360, Note_on_c, 13, 39, 90
14, 81570, Note_off_c, 13, 39, 90
14, 81600, Note_on_c, 13, 43, 90
14, 82230, Note_off_c, 13, 43, 90
14, 82320, Note_on_c, 13, 46, 90
14, 82530, Note_off_c, 13, 46, 90
14, 82560, Note_on_c, 13, 51, 90
14, 83400, Note_off_c, 13, 51, 90
14, 83520, Note_on_c, 13, 39, 90
14, 84360, Note_off_c, 13, 39, 90
14, 85200, Note_on_c, 13, 38, 90
14, 85410, Note_off_c, 13, 38, 90
14, 85440, Note_on_c, 13, 41, 90
14, 86070, Note_off_c, 13, 41, 90
14, 86160, Note_on_c, 13, 46, 90
14, 86370, Note_off_c, 13, 46, 90
14, 86400, Note_on_c, 13, 50, 90
14, 87240, Note_off_c, 13, 50, 90
14, 87360, Note_on_c, 13, 38, 90
14, 88200, Note_off_c, 13, 38, 90
14, 88320, Note_on_c, 13, 39, 90
14, 92040, Note_off_c, 13, 39, 90
14, 92160, Note_on_c, 13, 34, 90
14, 93350, Note_off_c, 13, 34, 90
14, 95040, Note_on_c, 13, 45, 90
14, 95730, Note_off_c, 13, 45, 90
14, 95760, Note_on_c, 13, 46, 90
14, 95990, Note_off_c, 13, 46, 90
14, 96000, Note_on_c, 13, 46, 90
14, 97190, Note_off_c, 13, 46, 90
14, 98880, Note_on_c, 13, 45, 90
14, 99570, Note_off_c, 13, 45, 90
14, 99600, Note_on_c, 13, 46, 90
14, 99830, Note_off_c, 13, 46, 90
14, 99840, Control_c, 13, 11, 99
14, 99840, Note_on_c, 13, 46, 86
14, 100770, Note_off_c, 13, 46, 86
14, 100800, Note_on_c, 13, 44, 86
14, 101730, Note_off_c, 13, 44, 86
14, 101760, Note_on_c, 13, 43, 86
14, 102690, Note_off_c, 13, 43, 86
14, 102720, Note_on_c, 13, 41, 86
14, 103650, Note_off_c, 13, 41, 86
14, 103680, Note_on_c, 13, 39, 86
14, 104610, Note_off_c, 13, 39, 86
14, 104640, Note_on_c, 13, 31, 86
14, 105570, Note_off_c, 13, 31, 86
14, 105600, Note_on_c, 13, 32, 86
14, 106530, Note_off_c, 13, 32, 86
14, 106560, Note_on_c, 13, 34, 86
14, 107490, Note_off_c, 13, 34, 86
14, 107520, Note_on_c, 13, 39, 86
14, 108450, Note_off_c, 13, 39, 86
14, 108480, Note_on_c, 13, 43, 86
14, 109410, Note_off_c, 13, 43, 86
14, 109440, Note_on_c, 13, 39, 86
14, 110370, Note_off_c, 13, 39, 86
14, 110400, Note_on_c, 13, 38, 86
14, 111330, Note_off_c, 13, 38, 86
14, 111360, Note_on_c, 13, 36, 86
14, 112290, Note_off_c, 13, 36, 86
14, 112320, Note_on_c, 13, 39, 86
14, 113250, Note_off_c, 13, 39, 86
14, 113280, Note_on_c, 13, 36, 86
14, 114210, Note_off_c, 13, 36, 86
14, 114240, Note_on_c, 13, 34, 86
14, 115170, Note_off_c, 13, 34, 86
14, 115200, Note_on_c, 13, 32, 86
14, 116130, Note_off_c, 13, 32, 86
14, 116160, Note_on_c, 13, 33, 86
14, 117090, Note_off_c, 13, 33, 86
14, 117120, Note_on_c, 13, 34, 86
14, 118980, Note_off_c, 13, 34, 86
14, 119040, Note_on_c, 13, 39, 86
14, 119970, Note_off_c, 13, 39, 86
14, 120000, Note_on_c, 13, 51, 86
14, 120930, Note_off_c, 13, 51, 86
14, 120960, Note_on_c, 13, 50, 86
14, 121890, Note_off_c, 13, 50, 86
14, 121920, Note_on_c, 13, 48, 86
14, 122850, Note_off_c, 13, 48, 86
14, 122880, Note_on_c, 13, 46, 86
14, 123810, Note_off_c, 13, 46, 86
14, 123840, Note_on_c, 13, 44, 86
14, 124770, Note_off_c, 13, 44, 86
14, 124800, Note_on_c, 13, 43, 86
14, 125730, Note_off_c, 13, 43, 86
14, 125760, Note_on_c, 13, 41, 86
14, 126690, Note_off_c, 13, 41, 86
14, 126720, Note_on_c, 13, 39, 86
14, 127650, Note_off_c, 13, 39, 86
14, 127680, Note_on_c, 13, 38, 86
14, 128610, Note_off_c, 13, 38, 86
14, 128640, Note_on_c, 13, 36, 86
14, 129570, Note_off_c, 13, 36, 86
14, 129600, Note_on_c, 13, 34, 86
14, 130530, Note_off_c, 13, 34, 86
14, 130560, Note_on_c, 13, 32, 86
14, 131490, Note_off_c, 13, 32, 86
14, 131520, Note_on_c, 13, 31, 86
14, 132450, Note_off_c, 13, 31, 86
14, 132480, Note_on_c, 13, 32, 86
14, 133410, Note_off_c, 13, 32, 86
14, 133440, Note_on_c, 13, 44, 86
14, 134370, Note_off_c, 13, 44, 86
14, 134400, Note_on_c, 13, 43, 86
14, 135330, Note_off_c, 13, 43, 86
14, 135360, Note_on_c, 13, 41, 86
14, 136290, Note_off_c, 13, 41, 86
14, 136320, Note_on_c, 13, 39, 86
14, 137250, Note_off_c, 13, 39, 86
14, 137280, Note_on_c, 13, 38, 86
14, 138210, Note_off_c, 13, 38, 86
14, 138960, Control_c, 13, 11, 119
14, 138960, Note_on_c, 13, 36, 104
14, 139170, Note_off_c, 13, 36, 104
14, 139200, Note_on_c, 13, 39, 104
14, 139830, Note_off_c, 13, 39, 104
14, 139920, Note_on_c, 13, 43, 104
14, 140130, Note_off_c, 13, 43, 104
14, 140160, Note_on_c, 13, 48, 104
14, 141000, Note_off_c, 13, 48, 104
14, 141120, Note_on_c, 13, 36, 104
14, 141960, Note_off_c, 13, 36, 104
14, 142800, Note_on_c, 13, 36, 104
14, 143010, Note_off_c, 13, 36, 104
14, 143040, Note_on_c, 13, 39, 104
14, 143670, Note_off_c, 13, 39, 104
14, 143760, Note_on_c, 13, 43, 104
14, 143970, Note_off_c, 13, 43, 104
14, 144000, Note_on_c, 13, 48, 104
14, 144840, Note_off_c, 13, 48, 104
14, 144960, Note_on_c, 13, 36, 104
14, 145800, Note_off_c, 13, 36, 104
14, 146640, Note_on_c, 13, 36, 104
14, 146850, Note_off_c, 13, 36, 104
14, 146880, Note_on_c, 13, 39, 104
14, 147510, Note_off_c, 13, 39, 104
14, 147600, Note_on_c, 13, 43, 104
14, 147810, Note_off_c, 13, 43, 104
14, 147840, Note_on_c, 13, 48, 104
14, 148680, Note_off_c, 13, 48, 104
14, 148800, Note_on_c, 13, 36, 104
14, 149640, Note_off_c, 13, 36, 104
14, 150480, Note_on_c, 13, 39, 104
14, 150690, Note_off_c, 13, 39, 104
14, 150720, Note_on_c, 13, 43, 104
14, 151350, Note_off_c, 13, 43, 104
14, 151440, Note_on_c, 13, 46, 104
14, 151650, Note_off_c, 13, 46, 104
14, 151680, Note_on_c, 13, 51, 104
14, 152310, Note_off_c, 13, 51, 104
14, 152400, Note_on_c, 13, 46, 104
14, 152610, Note_off_c, 13, 46, 104
14, 152640, Note_on_c, 13, 43, 104
14, 153270, Note_off_c, 13, 43, 104
14, 153360, Note_on_c, 13, 39, 104
14, 153570, Note_off_c, 13, 39, 104
14, 153600, Note_on_c, 13, 36, 104
14, 154230, Note_off_c, 13, 36, 104
14, 154320, Note_on_c, 13, 36, 104
14, 154530, Note_off_c, 13, 36, 104
14, 154560, Note_on_c, 13, 39, 104
14, 155190, Note_off_c, 13, 39, 104
14, 155280, Note_on_c, 13, 43, 104
14, 155490, Note_off_c, 13, 43, 104
14, 155520, Note_on_c, 13, 48, 104
14, 156150, Note_off_c, 13, 48, 104
14, 156240, Note_on_c, 13, 45, 104
14, 156450, Note_off_c, 13, 45, 104
14, 156480, Note_on_c, 13, 39, 104
14, 157110, Note_off_c, 13, 39, 104
14, 157200, Note_on_c, 13, 36, 104
14, 157410, Note_off_c, 13, 36, 104
14, 157440, Note_on_c, 13, 34, 104
14, 158070, Note_off_c, 13, 34, 104
14, 158160, Note_on_c, 13, 34, 104
14, 158370, Note_off_c, 13, 34, 104
14, 158400, Note_on_c, 13, 38, 104
14, 159030, Note_off_c, 13, 38, 104
14, 159120, Note_on_c, 13, 41, 104
14, 159330, Note_off_c, 13, 41, 104
14, 159360, Note_on_c, 13, 46, 104
14, 160200, Note_off_c, 13, 46, 104
14, 160320, Note_on_c, 13, 34, 104
14, 161160, Note_off_c, 13, 34, 104
14, 162000, Note_on_c, 13, 39, 104
14, 162210, Note_off_c, 13, 39, 104
14, 162240, Note_on_c, 13, 43, 104
14, 162870, Note_off_c, 13, 43, 104
14, 162960, Note_on_c, 13, 46, 104
14, 163170, Note_off_c, 13, 46, 104
14, 163200, Note_on_c, 13, 51, 104
14, 164040, Note_off_c, 13, 51, 104
14, 164160, Note_on_c, 13, 39, 104
14, 165000, Note_off_c, 13, 39, 104
14, 165840, Note_on_c, 13, 36, 104
14, 166050, Note_off_c, 13, 36, 104
14, 166080, Note_on_c, 13, 39, 104
14, 166710, Note_off_c, 13, 39, 104
14, 166800, Note_on_c, 13, 36, 104
14, 167010, Note_off_c, 13, 36, 104
14, 167040, Note_on_c, 13, 34, 104
14, 167670, Note_off_c, 13, 34, 104
14, 167760, Note_on_c, 13, 34, 104
14, 167970, Note_off_c, 13, 34, 104
14, 168000, Note_on_c, 13, 38, 104
14, 168630, Note_off_c, 13, 38, 104
14, 168720, Note_on_c, 13, 34, 104
14, 168930, Note_off_c, 13, 34, 104
14, 168960, Note_on_c, 13, 39, 104
14, 169590, Note_off_c, 13, 39, 104
14, 169680, Note_on_c, 13, 46, 104
14, 169890, Note_off_c, 13, 46, 104
14, 169920, Note_on_c, 13, 43, 104
14, 170550, Note_off_c, 13, 43, 104
14, 170640, Note_on_c, 13, 39, 104
14, 170850, Note_off_c, 13, 39, 104
14, 170880, Note_on_c, 13, 44, 104
14, 171510, Note_off_c, 13, 44, 104
14, 171600, Note_on_c, 13, 39, 104
14, 171810, Note_off_c, 13, 39, 104
14, 171840, Note_on_c, 13, 36, 104
14, 172470, Note_off_c, 13, 36, 104
14, 172560, Note_on_c, 13, 32, 104
14, 172770, Note_off_c, 13, 32, 104
14, 172800, Note_on_c, 13, 34, 104
14, 173430, Note_off_c, 13, 34, 104
14, 173520, Note_on_c, 13, 39, 104
14, 173730, Note_off_c, 13, 39, 104
14, 173760, Note_on_c, 13, 43, 104
14, 174390, Note_off_c, 13, 43, 104
14, 174480, Note_on_c, 13, 39, 104
14, 174690, Note_off_c, 13, 39, 104
14, 174720, Control_c, 13, 11, 105
14, 174720, Note_on_c, 13, 46, 90
14, 175560, Note_off_c, 13, 46, 90
14, 175680, Note_on_c, 13, 34, 90
14, 176520, Note_off_c, 13, 34, 90
14, 176640, Control_c, 13, 11, 99
14, 176640, Note_on_c, 13, 39, 86
14, 177570, Note_off_c, 13, 39, 86
14, 177600, Note_on_c, 13, 39, 86
14, 178530, Note_off_c, 13, 39, 86
14, 178560, Note_on_c, 13, 39, 86
14, 179490, Note_off_c, 13, 39, 86
14, 179520, Note_on_c, 13, 39, 86
14, 180450, Note_off_c, 13, 39, 86
14, 180480, Note_on_c, 13, 40, 86
14, 181410, Note_off_c, 13, 40, 86
14, 181440, Note_on_c, 13, 40, 86
14, 182370, Note_off_c, 13, 40, 86
14, 182400, Note_on_c, 13, 40, 86
14, 183330, Note_off_c, 13, 40, 86
14, 183360, Note_on_c, 13, 36, 86
14, 184290, Note_off_c, 13, 36, 86
14, 184320, Note_on_c, 13, 41, 86
14, 185250, Note_off_c, 13, 41, 86
14, 185280, Note_on_c, 13, 41, 86
14, 186210, Note_off_c, 13, 41, 86
14, 186240, Note_on_c, 13, 41, 86
14, 187170, Note_off_c, 13, 41, 86
14, 187200, Note_on_c, 13, 41, 86
14, 188130, Note_off_c, 13, 41, 86
14, 188160, Note_on_c, 13, 42, 86
14, 189090, Note_off_c, 13, 42, 86
14, 189120, Note_on_c, 13, 42, 86
14, 190050, Note_off_c, 13, 42, 86
14, 190080, Note_on_c, 13, 42, 86
14, 191010, Note_off_c, 13, 42, 86
14, 191040, Note_on_c, 13, 38, 86
14, 191970, Note_off_c, 13, 38, 86
14, 192000, Note_on_c, 13, 43, 86
14, 193190, Note_off_c, 13, 43, 86
14, 194640, Note_on_c, 13, 36, 86
14, 194870, Note_off_c, 13, 36, 86
14, 194880, Note_on_c, 13, 39, 86
14, 195570, Note_off_c, 13, 39, 86
14, 195600, Note_on_c, 13, 36, 86
14, 195830, Note_off_c, 13, 36, 86
14, 195840, Note_on_c, 13, 43, 86
14, 197030, Note_off_c, 13, 43, 86
14, 198480, Note_on_c, 13, 36, 86
14, 198710, Note_off_c, 13, 36, 86
14, 198720, Note_on_c, 13, 39, 86
14, 199410, Note_off_c, 13, 39, 86
14, 199440, Note_on_c, 13, 36, 86
14, 199670, Note_off_c, 13, 36, 86
14, 199680, Note_on_c, 13, 43, 86
14, 200140, Note_off_c, 13, 43, 86
14, 200160, Note_on_c, 13, 44, 86
14, 200620, Note_off_c, 13, 44, 86
14, 200640, Note_on_c, 13, 43, 86
14, 201100, Note_off_c, 13, 43, 86
14, 201120, Note_on_c, 13, 42, 86
14, 201580, Note_off_c, 13, 42, 86
14, 201600, Note_on_c, 13, 43, 86
14, 202060, Note_off_c, 13, 43, 86
14, 202080, Note_on_c, 13, 38, 86
14, 202540, Note_off_c, 13, 38, 86
14, 202560, Note_on_c, 13, 39, 86
14, 203020, Note_off_c, 13, 39, 86
14, 203040, Note_on_c, 13, 35, 86
14, 203500, Note_off_c, 13, 35, 86
14, 203520, Note_on_c, 13, 36, 86
14, 203980, Note_off_c, 13, 36, 86
14, 204000, Note_on_c, 13, 35, 86
14, 204460, Note_off_c, 13, 35, 86
14, 204480, Note_on_c, 13, 36, 86
14, 204940, Note_off_c, 13, 36, 86
14, 204960, Note_on_c, 13, 38, 86
14, 205420, Note_off_c, 13, 38, 86
14, 205440, Note_on_c, 13, 39, 86
14, 205900, Note_off_c, 13, 39, 86
14, 205920, Note_on_c, 13, 40, 86
14, 206380, Note_off_c, 13, 40, 86
14, 206400, Note_on_c, 13, 41, 86
14, 206860, Note_off_c, 13, 41, 86
14, 206880, Note_on_c, 13, 42, 86
14, 207340, Note_off_c, 13, 42, 86
14, 207360, Note_on_c, 13, 43, 86
14, 207820, Note_off_c, 13, 43, 86
14, 207840, Note_on_c, 13, 41, 86
14, 208300, Note_off_c, 13, 41, 86
14, 208320, Note_on_c, 13, 44, 86
14, 208780, Note_off_c, 13, 44, 86
14, 208800, Note_on_c, 13, 43, 86
14, 209260, Note_off_c, 13, 43, 86
14, 209280, Note_on_c, 13, 41, 86
14, 209740, Note_off_c, 13, 41, 86
14, 209760, Note_on_c, 13, 39, 86
14, 210220, Note_off_c, 13, 39, 86
14, 210240, Note_on_c, 13, 38, 86
14, 210700, Note_off_c, 13, 38, 86
14, 210720, Note_on_c, 13, 36, 86
14, 211180, Note_off_c, 13, 36, 86
14, 211200, Note_on_c, 13, 35, 86
14, 211660, Note_off_c, 13, 35, 86
14, 211680, Note_on_c, 13, 36, 86
14, 212140, Note_off_c, 13, 36, 86
14, 212160, Note_on_c, 13, 38, 86
14, 212620, Note_off_c, 13, 38, 86
14, 212640, Note_on_c, 13, 31, 86
14, 213100, Note_off_c, 13, 31, 86
14, 213120, Note_on_c, 13, 32, 86
14, 213580, Note_off_c, 13, 32, 86
14, 213600, Note_on_c, 13, 33, 86
14, 214060, Note_off_c, 13, 33, 86
14, 214080, Note_on_c, 13, 34, 86
14, 214540, Note_off_c, 13, 34, 86
14, 214560, Note_on_c, 13, 35, 86
14, 215020, Note_off_c, 13, 35, 86
14, 215040, Note_on_c, 13, 36, 86
14, 215500, Note_off_c, 13, 36, 86
14, 215520, Note_on_c, 13, 39, 86
14, 215980, Note_off_c, 13, 39, 86
14, 216000, Note_on_c, 13, 41, 86
14, 216460, Note_off_c, 13, 41, 86
14, 216480, Note_on_c, 13, 42, 86
14, 216940, Note_off_c, 13, 42, 86
14, 216960, Note_on_c, 13, 43, 86
14, 217420, Note_off_c, 13, 43, 86
14, 217440, Note_on_c, 13, 44, 86
14, 217900, Note_off_c, 13, 44, 86
14, 217920, Note_on_c, 13, 45, 86
14, 218380, Note_off_c, 13, 45, 86
14, 218400, Note_on_c, 13, 47, 86
14, 218860, Note_off_c, 13, 47, 86
14, 218880, Note_on_c, 13, 48, 86
14, 219340, Note_off_c, 13, 48, 86
14, 219360, Note_on_c, 13, 36, 86
14, 219780, Note_off_c, 13, 36, 86
14, 219840, Note_on_c, 13, 36, 86
14, 220260, Note_off_c, 13, 36, 86
14, 220320, Note_on_c, 13, 36, 86
14, 220740, Note_off_c, 13, 36, 86
14, 220800, Note_on_c, 13, 36, 86
14, 221220, Note_off_c, 13, 36, 86
14, 221280, Note_on_c, 13, 36, 86
14, 221700, Note_off_c, 13, 36, 86
14, 221760, Note_on_c, 13, 36, 86
14, 222180, Note_off_c, 13, 36, 86
14, 222240, Note_on_c, 13, 36, 86
14, 222660, Note_off_c, 13, 36, 86
14, 222720, Note_on_c, 13, 36, 86
14, 223140, Note_off_c, 13, 36, 86
14, 223200, Note_on_c, 13, 36, 86
14, 223620, Note_off_c, 13, 36, 86
14, 223680, Note_on_c, 13, 36, 86
14, 224100, Note_off_c, 13, 36, 86
14, 224160, Note_on_c, 13, 36, 86
14, 224580, Note_off_c, 13, 36, 86
14, 224640, Note_on_c, 13, 36, 86
14, 225060, Note_off_c, 13, 36, 86
14, 225120, Note_on_c, 13, 36, 86
14, 225540, Note_off_c, 13, 36, 86
14, 225600, Note_on_c, 13, 36, 86
14, 226020, Note_off_c, 13, 36, 86
14, 226080, Note_on_c, 13, 36, 86
14, 226500, Note_off_c, 13, 36, 86
14, 226560, Note_on_c, 13, 36, 86
14, 226980, Note_off_c, 13, 36, 86
14, 227040, Note_on_c, 13, 36, 86
14, 227460, Note_off_c, 13, 36, 86
14, 227520, Note_on_c, 13, 36, 86
14, 227940, Note_off_c, 13, 36, 86
14, 228000, Note_on_c, 13, 36, 86
14, 228420, Note_off_c, 13, 36, 86
14, 228480, Note_on_c, 13, 36, 86
14, 228900, Note_off_c, 13, 36, 86
14, 228960, Note_on_c, 13, 36, 86
14, 229380, Note_off_c, 13, 36, 86
14, 229440, Note_on_c, 13, 36, 86
14, 229860, Note_off_c, 13, 36, 86
14, 229920, Note_on_c, 13, 36, 86
14, 230340, Note_off_c, 13, 36, 86
14, 230400, Note_on_c, 13, 36, 86
14, 230820, Note_off_c, 13, 36, 86
14, 230880, Note_on_c, 13, 36, 86
14, 231300, Note_off_c, 13, 36, 86
14, 231360, Note_on_c, 13, 36, 86
14, 231780, Note_off_c, 13, 36, 86
14, 231840, Note_on_c, 13, 36, 86
14, 232260, Note_off_c, 13, 36, 86
14, 232320, Note_on_c, 13, 36, 86
14, 232740, Note_off_c, 13, 36, 86
14, 232800, Note_on_c, 13, 36, 86
14, 233220, Note_off_c, 13, 36, 86
14, 233280, Note_on_c, 13, 36, 86
14, 233700, Note_off_c, 13, 36, 86
14, 233760, Note_on_c, 13, 36, 86
14, 234180, Note_off_c, 13, 36, 86
14, 234240, Note_on_c, 13, 36, 86
14, 235410, Note_off_c, 13, 36, 86
14, 236880, Control_c, 13, 11, 105
14, 236880, Note_on_c, 13, 40, 90
14, 237090, Note_off_c, 13, 40, 90
14, 237120, Note_on_c, 13, 43, 90
14, 237750, Note_off_c, 13, 43, 90
14, 237840, Note_on_c, 13, 46, 90
14, 238050, Note_off_c, 13, 46, 90
14, 238080, Note_on_c, 13, 41, 90
14, 239250, Note_off_c, 13, 41, 90
14, 240720, Note_on_c, 13, 41, 90
14, 240930, Note_off_c, 13, 41, 90
14, 240960, Note_on_c, 13, 44, 90
14, 241590, Note_off_c, 13, 44, 90
14, 241680, Note_on_c, 13, 48, 90
14, 241890, Note_off_c, 13, 48, 90
14, 241920, Note_on_c, 13, 42, 90
14, 243090, Note_off_c, 13, 42, 90
14, 244560, Note_on_c, 13, 42, 90
14, 244770, Note_off_c, 13, 42, 90
14, 244800, Note_on_c, 13, 45, 90
14, 245430, Note_off_c, 13, 45, 90
14, 245520, Note_on_c, 13, 48, 90
14, 245730, Note_off_c, 13, 48, 90
14, 245760, Control_c, 13, 11, 95
14, 245760, Note_on_c, 13, 43, 82
14, 246930, Note_off_c, 13, 43, 82
14, 247680, Note_on_c, 13, 31, 82
14, 248850, Note_off_c, 13, 31, 82
14, 249600, Note_on_c, 13, 36, 82
14, 250790, Note_off_c, 13, 36, 82
14, 251520, Note_on_c, 13, 36, 82
14, 252710, Note_off_c, 13, 36, 82
14, 253440, Note_on_c, 13, 41, 82
14, 254630, Note_off_c, 13, 41, 82
14, 255360, Note_on_c, 13, 43, 82
14, 256550, Note_off_c, 13, 43, 82
14, 257280, Note_on_c, 13, 36, 82
14, 258470, Note_off_c, 13, 36, 82
14, 259200, Note_on_c, 13, 36, 82
14, 260390, Note_off_c, 13, 36, 82
14, 261120, Note_on_c, 13, 41, 82
14, 262310, Note_off_c, 13, 41, 82
14, 263040, Note_on_c, 13, 43, 82
14, 264230, Note_off_c, 13, 43, 82
14, 264960, Control_c, 13, 11, 99
14, 264960, Note_on_c, 13, 44, 86
14, 266150, Note_off_c, 13, 44, 86
14, 266880, Control_c, 13, 11, 95
14, 266880, Note_on_c, 13, 41, 82
14, 268070, Note_off_c, 13, 41, 82
14, 268800, Control_c, 13, 11, 91
14, 268800, Note_on_c, 13, 43, 80
14, 269990, Note_off_c, 13, 43, 80
14, 270720, Control_c, 13, 11, 86
14, 270720, Note_on_c, 13, 31, 73
14, 271910, Note_off_c, 13, 31, 73
14, 272640, Note_on_c, 13, 36, 73
14, 276360, Note_off_c, 13, 36, 73
14, 276480, Control_c, 13, 11, 95
14, 276480, Control_c, 13, 11, 119
14, 276480, Control_c, 13, 11, 86
14, 276480, End_track
0, 0, End_of_file
