0, 0, Header, 1, 20, 120
1, 0, Start_track
1, 0, Title_t, "La Flûte Enchantée (Die Zauberflöte) - W.A. Mozart"
1, 0, Title_t, "Acte II, Aria N°14"
1, 0, Copyright_t, "© Eric Stéphan - Mars 1995"
1, 0, MIDI_port, 0
1, 0, System_exclusive, 10, 65, 16, 66, 18, 64, 0, 127, 0, 65, 247
1, 0, MIDI_port, 0
1, 0, Time_signature, 4, 2, 24, 8
1, 0, Key_signature, -1, "major"
1, 0, Tempo, 387097
1, 0, Marker_t, "© Eric Stéphan - Mars 1995"
1, 0, Marker_t, "Sequenced with Cakewalk 3.0 and a Roland SCB-55"
1, 0, Marker_t, """La Flûte Enchantée"" W.A. Mozart (Acte II, Aria)"
1, 9850, Tempo, 387097
1, 9860, Tempo, 389610
1, 9873, Tempo, 392157
1, 9883, Tempo, 394737
1, 9893, Tempo, 397351
1, 9906, Tempo, 400000
1, 9916, Tempo, 402685
1, 9926, Tempo, 405405
1, 9940, Tempo, 408163
1, 9950, Tempo, 410959
1, 9960, Tempo, 413793
1, 13466, Tempo, 416667
1, 13490, Tempo, 419580
1, 13513, Tempo, 422535
1, 13536, Tempo, 425532
1, 13560, Tempo, 428571
1, 15480, Tempo, 428571
1, 15490, Tempo, 425532
1, 15496, Tempo, 422535
1, 15506, Tempo, 419580
1, 15513, Tempo, 416667
1, 15520, Tempo, 413793
1, 15530, Tempo, 410959
1, 15536, Tempo, 408163
1, 15546, Tempo, 405405
1, 15553, Tempo, 402685
1, 15560, Tempo, 400000
1, 15570, Tempo, 397351
1, 15576, Tempo, 394737
1, 15586, Tempo, 392157
1, 15593, Tempo, 389610
1, 15600, Tempo, 387097
1, 16813, Tempo, 387097
1, 16823, Tempo, 389610
1, 16833, Tempo, 392157
1, 16846, Tempo, 394737
1, 16856, Tempo, 397351
1, 16866, Tempo, 400000
1, 16876, Tempo, 402685
1, 16890, Tempo, 405405
1, 16900, Tempo, 408163
1, 16910, Tempo, 410959
1, 16920, Tempo, 413793
1, 18720, Tempo, 413793
1, 18743, Tempo, 416667
1, 18766, Tempo, 419580
1, 18790, Tempo, 422535
1, 18813, Tempo, 425532
1, 18836, Tempo, 428571
1, 20760, Tempo, 425532
1, 20770, Tempo, 422535
1, 20776, Tempo, 419580
1, 20786, Tempo, 416667
1, 20793, Tempo, 413793
1, 20803, Tempo, 410959
1, 20810, Tempo, 408163
1, 20820, Tempo, 405405
1, 20826, Tempo, 402685
1, 20836, Tempo, 400000
1, 20843, Tempo, 397351
1, 20853, Tempo, 394737
1, 20860, Tempo, 392157
1, 20870, Tempo, 389610
1, 20876, Tempo, 387097
1, 32640, Tempo, 387097
1, 32710, Tempo, 389610
1, 32780, Tempo, 392157
1, 32846, Tempo, 394737
1, 32916, Tempo, 397351
1, 32983, Tempo, 400000
1, 33053, Tempo, 402685
1, 33120, Tempo, 405405
1, 38400, Tempo, 405405
1, 38470, Tempo, 402685
1, 38540, Tempo, 400000
1, 38606, Tempo, 397351
1, 38676, Tempo, 394737
1, 38743, Tempo, 392157
1, 38813, Tempo, 389610
1, 38880, Tempo, 387097
1, 40800, Tempo, 387097
1, 40850, Tempo, 389610
1, 40896, Tempo, 392157
1, 40946, Tempo, 394737
1, 40993, Tempo, 397351
1, 41040, Tempo, 400000
1, 41090, Tempo, 402685
1, 41136, Tempo, 405405
1, 41186, Tempo, 408163
1, 41233, Tempo, 410959
1, 41280, Tempo, 413793
1, 41330, Tempo, 416667
1, 41376, Tempo, 419580
1, 41426, Tempo, 422535
1, 41473, Tempo, 425532
1, 41520, Tempo, 428571
1, 41570, Tempo, 431655
1, 41616, Tempo, 434783
1, 41666, Tempo, 437956
1, 41713, Tempo, 441176
1, 41760, Tempo, 444444
1, 41996, Tempo, 759494
1, 42223, Tempo, 444444
1, 46083, Tempo, 444444
1, 46110, Tempo, 441176
1, 46133, Tempo, 437956
1, 46156, Tempo, 434783
1, 46180, Tempo, 431655
1, 46203, Tempo, 428571
1, 46226, Tempo, 425532
1, 46250, Tempo, 422535
1, 46273, Tempo, 419580
1, 46296, Tempo, 416667
1, 46320, Tempo, 413793
1, 46346, Tempo, 410959
1, 46370, Tempo, 408163
1, 46393, Tempo, 405405
1, 46416, Tempo, 402685
1, 46440, Tempo, 400000
1, 46463, Tempo, 397351
1, 46486, Tempo, 394737
1, 46510, Tempo, 392157
1, 46533, Tempo, 389610
1, 46556, Tempo, 387097
1, 46556, End_track
2, 0, Start_track
2, 0, MIDI_port, 0
2, 0, Title_t, "Reine de la Nuit (Piano 2)"
2, 10, MIDI_port, 0
2, 10, System_exclusive, 25, 65, 16, 66, 18, 64, 1, 16, 0, 1, 1, 2, 2, 4, 4, 2, 1, 0, 3, 3, 1, 1, 1, 0, 21, 247
2, 10, MIDI_port, 0
2, 212, Control_c, 0, 0, 0
2, 212, Program_c, 0, 1
2, 213, Control_c, 0, 7, 120
2, 214, Control_c, 0, 10, 64
2, 215, Control_c, 0, 11, 127
2, 216, Control_c, 0, 91, 60
2, 217, Control_c, 0, 93, 10
2, 218, Control_c, 0, 99, 1
2, 218, Control_c, 0, 98, 32
2, 218, Control_c, 0, 6, 64
2, 218, Control_c, 0, 38, 0
2, 219, Control_c, 0, 99, 1
2, 219, Control_c, 0, 98, 33
2, 219, Control_c, 0, 6, 64
2, 219, Control_c, 0, 38, 0
2, 220, Control_c, 0, 99, 1
2, 220, Control_c, 0, 98, 99
2, 220, Control_c, 0, 6, 64
2, 220, Control_c, 0, 38, 0
2, 1260, Note_on_c, 0, 69, 102
2, 1260, Lyric_t, "Der "
2, 1319, Note_on_c, 0, 69, 0
2, 1320, Note_on_c, 0, 69, 100
2, 1320, Lyric_t, "Höl"
2, 1379, Note_on_c, 0, 69, 0
2, 1380, Note_on_c, 0, 69, 99
2, 1380, Lyric_t, "le "
2, 1439, Note_on_c, 0, 69, 0
2, 1440, Note_on_c, 0, 74, 125
2, 1440, Lyric_t, "Ra"
2, 1619, Note_on_c, 0, 74, 0
2, 1620, Note_on_c, 0, 69, 101
2, 1620, Lyric_t, "che "
2, 1679, Note_on_c, 0, 69, 0
2, 1680, Note_on_c, 0, 77, 125
2, 1680, Lyric_t, "kocht "
2, 1739, Note_on_c, 0, 77, 0
2, 1740, Note_on_c, 0, 77, 124
2, 1740, Lyric_t, "in "
2, 1799, Note_on_c, 0, 77, 0
2, 1800, Note_on_c, 0, 76, 118
2, 1800, Lyric_t, "mei"
2, 1859, Note_on_c, 0, 76, 0
2, 1860, Note_on_c, 0, 76, 109
2, 1860, Lyric_t, "nem "
2, 1919, Note_on_c, 0, 76, 0
2, 1920, Note_on_c, 0, 74, 100
2, 1920, Lyric_t, "Her"
2, 2039, Note_on_c, 0, 74, 0
2, 2040, Note_on_c, 0, 69, 102
2, 2040, Lyric_t, "zen, "
2, 2159, Note_on_c, 0, 69, 0
2, 2400, Note_on_c, 0, 79, 124
2, 2400, Lyric_t, "Tod "
2, 2639, Note_on_c, 0, 79, 0
2, 2760, Note_on_c, 0, 76, 103
2, 2760, Lyric_t, "und "
2, 2819, Note_on_c, 0, 76, 0
2, 2820, Note_on_c, 0, 73, 101
2, 2820, Lyric_t, "Ver"
2, 2879, Note_on_c, 0, 73, 0
2, 2880, Note_on_c, 0, 81, 124
2, 2880, Lyric_t, "zwei"
2, 2999, Note_on_c, 0, 81, 0
2, 3000, Note_on_c, 0, 74, 114
2, 3000, Lyric_t, "flung "
2, 3119, Note_on_c, 0, 74, 0
2, 3360, Note_on_c, 0, 75, 88
2, 3360, Lyric_t, "Tod "
2, 3599, Note_on_c, 0, 75, 0
2, 3600, Note_on_c, 0, 78, 99
2, 3600, Lyric_t, "und "
2, 3779, Note_on_c, 0, 78, 0
2, 3780, Note_on_c, 0, 78, 101
2, 3780, Lyric_t, "Ver"
2, 3839, Note_on_c, 0, 78, 0
2, 3840, Note_on_c, 0, 79, 110
2, 3840, Lyric_t, "zwei"
2, 3959, Note_on_c, 0, 79, 0
2, 3960, Note_on_c, 0, 81, 119
2, 3960, Lyric_t, "flung "
2, 4079, Note_on_c, 0, 81, 0
2, 4080, Note_on_c, 0, 82, 127
2, 4080, Lyric_t, "flam"
2, 4439, Note_on_c, 0, 82, 0
2, 4440, Note_on_c, 0, 79, 126
2, 4440, Lyric_t, "met "
2, 4559, Note_on_c, 0, 79, 0
2, 4560, Note_on_c, 0, 75, 116
2, 4560, Lyric_t, "um "
2, 4679, Note_on_c, 0, 75, 0
2, 4680, Note_on_c, 0, 74, 111
2, 4680, Lyric_t, "mich "
2, 4799, Note_on_c, 0, 74, 0
2, 4800, Note_on_c, 0, 73, 107
2, 4800, Lyric_t, "her! "
2, 4919, Note_on_c, 0, 73, 0
2, 5280, Note_on_c, 0, 65, 110
2, 5280, Lyric_t, "Fühlt "
2, 5519, Note_on_c, 0, 65, 0
2, 5520, Note_on_c, 0, 69, 117
2, 5520, Lyric_t, "nicht "
2, 5639, Note_on_c, 0, 69, 0
2, 5640, Note_on_c, 0, 72, 120
2, 5640, Lyric_t, "durch "
2, 5759, Note_on_c, 0, 72, 0
2, 5760, Note_on_c, 0, 77, 126
2, 5760, Lyric_t, "dich "
2, 5999, Note_on_c, 0, 77, 0
2, 6180, Note_on_c, 0, 72, 108
2, 6180, Lyric_t, "Sa"
2, 6239, Note_on_c, 0, 72, 0
2, 6240, Note_on_c, 0, 81, 125
2, 6240, Lyric_t, "ra"
2, 6299, Note_on_c, 0, 81, 0
2, 6300, Note_on_c, 0, 79, 119
2, 6359, Note_on_c, 0, 79, 0
2, 6360, Note_on_c, 0, 77, 114
2, 6360, Lyric_t, "stro "
2, 6419, Note_on_c, 0, 77, 0
2, 6420, Note_on_c, 0, 76, 110
2, 6479, Note_on_c, 0, 76, 0
2, 6480, Note_on_c, 0, 74, 106
2, 6480, Lyric_t, "To"
2, 6539, Note_on_c, 0, 74, 0
2, 6540, Note_on_c, 0, 72, 104
2, 6599, Note_on_c, 0, 72, 0
2, 6600, Note_on_c, 0, 70, 101
2, 6600, Lyric_t, "dess"
2, 6659, Note_on_c, 0, 70, 0
2, 6660, Note_on_c, 0, 69, 104
2, 6719, Note_on_c, 0, 69, 0
2, 6720, Note_on_c, 0, 70, 113
2, 6720, Lyric_t, "chmer"
2, 6839, Note_on_c, 0, 70, 0
2, 6840, Note_on_c, 0, 79, 127
2, 6840, Lyric_t, "zen, "
2, 6959, Note_on_c, 0, 79, 0
2, 7140, Note_on_c, 0, 79, 127
2, 7140, Lyric_t, "Sa"
2, 7199, Note_on_c, 0, 79, 0
2, 7200, Note_on_c, 0, 82, 126
2, 7200, Lyric_t, "ra"
2, 7259, Note_on_c, 0, 82, 0
2, 7260, Note_on_c, 0, 81, 122
2, 7319, Note_on_c, 0, 81, 0
2, 7320, Note_on_c, 0, 79, 117
2, 7320, Lyric_t, "stro "
2, 7379, Note_on_c, 0, 79, 0
2, 7380, Note_on_c, 0, 77, 112
2, 7439, Note_on_c, 0, 77, 0
2, 7440, Note_on_c, 0, 76, 107
2, 7440, Lyric_t, "To"
2, 7499, Note_on_c, 0, 76, 0
2, 7500, Note_on_c, 0, 74, 105
2, 7559, Note_on_c, 0, 74, 0
2, 7560, Note_on_c, 0, 72, 102
2, 7560, Lyric_t, "dess"
2, 7619, Note_on_c, 0, 72, 0
2, 7620, Note_on_c, 0, 70, 100
2, 7679, Note_on_c, 0, 70, 0
2, 7680, Note_on_c, 0, 69, 100
2, 7680, Lyric_t, "chmer"
2, 7799, Note_on_c, 0, 69, 0
2, 7800, Note_on_c, 0, 77, 126
2, 7800, Lyric_t, "zen, "
2, 7919, Note_on_c, 0, 77, 0
2, 8280, Note_on_c, 0, 70, 93
2, 8280, Lyric_t, "so "
2, 8399, Note_on_c, 0, 70, 0
2, 8400, Note_on_c, 0, 74, 97
2, 8400, Lyric_t, "bist "
2, 8519, Note_on_c, 0, 74, 0
2, 8520, Note_on_c, 0, 77, 106
2, 8520, Lyric_t, "du "
2, 8639, Note_on_c, 0, 77, 0
2, 8640, Note_on_c, 0, 82, 112
2, 8640, Lyric_t, "mei"
2, 8879, Note_on_c, 0, 82, 0
2, 8880, Note_on_c, 0, 81, 116
2, 8880, Lyric_t, "ne "
2, 9119, Note_on_c, 0, 81, 0
2, 9120, Note_on_c, 0, 80, 117
2, 9120, Lyric_t, "Toch"
2, 9299, Note_on_c, 0, 80, 0
2, 9300, Note_on_c, 0, 77, 116
2, 9300, Lyric_t, "ter "
2, 9359, Note_on_c, 0, 77, 0
2, 9360, Note_on_c, 0, 80, 113
2, 9360, Lyric_t, "nim"
2, 9539, Note_on_c, 0, 80, 0
2, 9540, Note_on_c, 0, 77, 116
2, 9540, Lyric_t, "mer"
2, 9599, Note_on_c, 0, 77, 0
2, 9600, Note_on_c, 0, 76, 115
2, 9600, Lyric_t, "mehr, "
2, 9839, Note_on_c, 0, 76, 0
2, 9960, Note_on_c, 0, 72, 102
2, 9960, Lyric_t, "so "
2, 10079, Note_on_c, 0, 72, 0
2, 10080, Note_on_c, 0, 77, 116
2, 10080, Lyric_t, "bist "
2, 10319, Note_on_c, 0, 77, 0
2, 10320, Note_on_c, 0, 79, 117
2, 10320, Lyric_t, "du "
2, 10559, Note_on_c, 0, 79, 0
2, 10560, Note_on_c, 0, 81, 125
2, 10560, Lyric_t, "mein', "
2, 10799, Note_on_c, 0, 81, 0
2, 10920, Note_on_c, 0, 72, 98
2, 10920, Lyric_t, "meine "
2, 10979, Note_on_c, 0, 72, 0
2, 10980, Note_on_c, 0, 72, 98
2, 11039, Note_on_c, 0, 72, 0
2, 11040, Note_on_c, 0, 77, 109
2, 11040, Lyric_t, "Toch"
2, 11219, Note_on_c, 0, 77, 0
2, 11220, Note_on_c, 0, 77, 105
2, 11220, Lyric_t, "ter "
2, 11279, Note_on_c, 0, 77, 0
2, 11280, Note_on_c, 0, 79, 112
2, 11280, Lyric_t, "nim"
2, 11459, Note_on_c, 0, 79, 0
2, 11460, Note_on_c, 0, 79, 108
2, 11460, Lyric_t, "mer"
2, 11519, Note_on_c, 0, 79, 0
2, 11520, Note_on_c, 0, 81, 118
2, 11520, Lyric_t, "mehr, "
2, 11759, Note_on_c, 0, 81, 0
2, 11880, Note_on_c, 0, 82, 118
2, 11885, Note_on_c, 0, 82, 0
2, 11886, Note_on_c, 0, 81, 118
2, 11909, Note_on_c, 0, 81, 0
2, 11910, Note_on_c, 0, 79, 118
2, 11939, Note_on_c, 0, 79, 0
2, 11940, Note_on_c, 0, 81, 118
2, 11969, Note_on_c, 0, 81, 0
2, 11970, Note_on_c, 0, 82, 118
2, 11999, Note_on_c, 0, 82, 0
2, 12000, Note_on_c, 0, 84, 119
2, 12059, Note_on_c, 0, 84, 0
2, 12060, Note_on_c, 0, 84, 119
2, 12119, Note_on_c, 0, 84, 0
2, 12120, Note_on_c, 0, 84, 120
2, 12179, Note_on_c, 0, 84, 0
2, 12180, Note_on_c, 0, 84, 120
2, 12239, Note_on_c, 0, 84, 0
2, 12240, Note_on_c, 0, 84, 118
2, 12299, Note_on_c, 0, 84, 0
2, 12300, Note_on_c, 0, 84, 119
2, 12359, Note_on_c, 0, 84, 0
2, 12360, Note_on_c, 0, 84, 119
2, 12419, Note_on_c, 0, 84, 0
2, 12420, Note_on_c, 0, 84, 120
2, 12479, Note_on_c, 0, 84, 0
2, 12480, Note_on_c, 0, 77, 120
2, 12719, Note_on_c, 0, 77, 0
2, 12840, Note_on_c, 0, 79, 110
2, 12845, Note_on_c, 0, 79, 0
2, 12846, Note_on_c, 0, 77, 110
2, 12869, Note_on_c, 0, 77, 0
2, 12870, Note_on_c, 0, 76, 111
2, 12899, Note_on_c, 0, 76, 0
2, 12900, Note_on_c, 0, 77, 110
2, 12929, Note_on_c, 0, 77, 0
2, 12930, Note_on_c, 0, 79, 111
2, 12959, Note_on_c, 0, 79, 0
2, 12960, Note_on_c, 0, 81, 113
2, 13019, Note_on_c, 0, 81, 0
2, 13020, Note_on_c, 0, 81, 117
2, 13079, Note_on_c, 0, 81, 0
2, 13080, Note_on_c, 0, 81, 117
2, 13139, Note_on_c, 0, 81, 0
2, 13140, Note_on_c, 0, 81, 117
2, 13199, Note_on_c, 0, 81, 0
2, 13200, Note_on_c, 0, 81, 117
2, 13259, Note_on_c, 0, 81, 0
2, 13260, Note_on_c, 0, 81, 117
2, 13319, Note_on_c, 0, 81, 0
2, 13320, Note_on_c, 0, 81, 117
2, 13379, Note_on_c, 0, 81, 0
2, 13380, Note_on_c, 0, 81, 116
2, 13439, Note_on_c, 0, 81, 0
2, 13440, Note_on_c, 0, 74, 117
2, 13679, Note_on_c, 0, 74, 0
2, 13800, Note_on_c, 0, 76, 119
2, 13805, Note_on_c, 0, 76, 0
2, 13806, Note_on_c, 0, 74, 119
2, 13829, Note_on_c, 0, 74, 0
2, 13830, Note_on_c, 0, 72, 119
2, 13859, Note_on_c, 0, 72, 0
2, 13860, Note_on_c, 0, 74, 119
2, 13889, Note_on_c, 0, 74, 0
2, 13890, Note_on_c, 0, 76, 119
2, 13919, Note_on_c, 0, 76, 0
2, 13920, Note_on_c, 0, 77, 120
2, 13979, Note_on_c, 0, 77, 0
2, 13980, Note_on_c, 0, 77, 119
2, 14039, Note_on_c, 0, 77, 0
2, 14040, Note_on_c, 0, 77, 119
2, 14099, Note_on_c, 0, 77, 0
2, 14100, Note_on_c, 0, 72, 105
2, 14159, Note_on_c, 0, 72, 0
2, 14160, Note_on_c, 0, 79, 120
2, 14219, Note_on_c, 0, 79, 0
2, 14220, Note_on_c, 0, 79, 119
2, 14279, Note_on_c, 0, 79, 0
2, 14280, Note_on_c, 0, 79, 119
2, 14339, Note_on_c, 0, 79, 0
2, 14340, Note_on_c, 0, 72, 127
2, 14399, Note_on_c, 0, 72, 0
2, 14400, Note_on_c, 0, 81, 127
2, 14459, Note_on_c, 0, 81, 0
2, 14460, Note_on_c, 0, 77, 127
2, 14519, Note_on_c, 0, 77, 0
2, 14520, Note_on_c, 0, 81, 127
2, 14579, Note_on_c, 0, 81, 0
2, 14580, Note_on_c, 0, 84, 127
2, 14639, Note_on_c, 0, 84, 0
2, 14640, Note_on_c, 0, 89, 127
2, 14699, Note_on_c, 0, 89, 0
2, 14700, Note_on_c, 0, 84, 127
2, 14759, Note_on_c, 0, 84, 0
2, 14760, Note_on_c, 0, 86, 127
2, 14819, Note_on_c, 0, 86, 0
2, 14820, Note_on_c, 0, 82, 127
2, 14879, Note_on_c, 0, 82, 0
2, 14880, Note_on_c, 0, 84, 127
2, 14939, Note_on_c, 0, 84, 0
2, 14940, Note_on_c, 0, 77, 127
2, 14999, Note_on_c, 0, 77, 0
2, 15000, Note_on_c, 0, 81, 127
2, 15059, Note_on_c, 0, 81, 0
2, 15060, Note_on_c, 0, 84, 127
2, 15119, Note_on_c, 0, 84, 0
2, 15120, Note_on_c, 0, 89, 127
2, 15179, Note_on_c, 0, 89, 0
2, 15180, Note_on_c, 0, 84, 127
2, 15239, Note_on_c, 0, 84, 0
2, 15240, Note_on_c, 0, 86, 127
2, 15299, Note_on_c, 0, 86, 0
2, 15300, Note_on_c, 0, 82, 127
2, 15359, Note_on_c, 0, 82, 0
2, 15360, Note_on_c, 0, 84, 127
2, 15479, Note_on_c, 0, 84, 0
2, 15600, Note_on_c, 0, 77, 127
2, 15600, Lyric_t, "mei"
2, 15779, Note_on_c, 0, 77, 0
2, 15780, Note_on_c, 0, 77, 127
2, 15780, Lyric_t, "ne "
2, 15839, Note_on_c, 0, 77, 0
2, 15840, Note_on_c, 0, 79, 127
2, 15840, Lyric_t, "Toch"
2, 16079, Note_on_c, 0, 79, 0
2, 16080, Note_on_c, 0, 82, 127
2, 16080, Lyric_t, "ter "
2, 16319, Note_on_c, 0, 82, 0
2, 16320, Note_on_c, 0, 72, 127
2, 16320, Lyric_t, "nim"
2, 16679, Note_on_c, 0, 72, 0
2, 16680, Note_on_c, 0, 74, 127
2, 16739, Note_on_c, 0, 74, 0
2, 16740, Note_on_c, 0, 76, 127
2, 16740, Lyric_t, "mer"
2, 16799, Note_on_c, 0, 76, 0
2, 16800, Note_on_c, 0, 77, 127
2, 16800, Lyric_t, "mehr, "
2, 17039, Note_on_c, 0, 77, 0
2, 17160, Note_on_c, 0, 82, 112
2, 17165, Note_on_c, 0, 82, 0
2, 17166, Note_on_c, 0, 81, 112
2, 17189, Note_on_c, 0, 81, 0
2, 17190, Note_on_c, 0, 79, 113
2, 17219, Note_on_c, 0, 79, 0
2, 17220, Note_on_c, 0, 81, 113
2, 17249, Note_on_c, 0, 81, 0
2, 17250, Note_on_c, 0, 82, 115
2, 17279, Note_on_c, 0, 82, 0
2, 17280, Note_on_c, 0, 84, 116
2, 17339, Note_on_c, 0, 84, 0
2, 17340, Note_on_c, 0, 84, 117
2, 17399, Note_on_c, 0, 84, 0
2, 17400, Note_on_c, 0, 84, 117
2, 17459, Note_on_c, 0, 84, 0
2, 17460, Note_on_c, 0, 84, 117
2, 17519, Note_on_c, 0, 84, 0
2, 17520, Note_on_c, 0, 84, 117
2, 17579, Note_on_c, 0, 84, 0
2, 17580, Note_on_c, 0, 84, 117
2, 17639, Note_on_c, 0, 84, 0
2, 17640, Note_on_c, 0, 84, 117
2, 17699, Note_on_c, 0, 84, 0
2, 17700, Note_on_c, 0, 84, 117
2, 17759, Note_on_c, 0, 84, 0
2, 17760, Note_on_c, 0, 77, 118
2, 17999, Note_on_c, 0, 77, 0
2, 18120, Note_on_c, 0, 79, 108
2, 18125, Note_on_c, 0, 79, 0
2, 18126, Note_on_c, 0, 77, 108
2, 18149, Note_on_c, 0, 77, 0
2, 18150, Note_on_c, 0, 76, 109
2, 18179, Note_on_c, 0, 76, 0
2, 18180, Note_on_c, 0, 77, 109
2, 18209, Note_on_c, 0, 77, 0
2, 18210, Note_on_c, 0, 79, 110
2, 18239, Note_on_c, 0, 79, 0
2, 18240, Note_on_c, 0, 81, 113
2, 18299, Note_on_c, 0, 81, 0
2, 18300, Note_on_c, 0, 81, 114
2, 18359, Note_on_c, 0, 81, 0
2, 18360, Note_on_c, 0, 81, 115
2, 18419, Note_on_c, 0, 81, 0
2, 18420, Note_on_c, 0, 81, 115
2, 18479, Note_on_c, 0, 81, 0
2, 18480, Note_on_c, 0, 81, 115
2, 18539, Note_on_c, 0, 81, 0
2, 18540, Note_on_c, 0, 81, 115
2, 18599, Note_on_c, 0, 81, 0
2, 18600, Note_on_c, 0, 81, 115
2, 18659, Note_on_c, 0, 81, 0
2, 18660, Note_on_c, 0, 81, 115
2, 18719, Note_on_c, 0, 81, 0
2, 18720, Note_on_c, 0, 74, 116
2, 18959, Note_on_c, 0, 74, 0
2, 19080, Note_on_c, 0, 76, 120
2, 19085, Note_on_c, 0, 76, 0
2, 19086, Note_on_c, 0, 74, 120
2, 19109, Note_on_c, 0, 74, 0
2, 19110, Note_on_c, 0, 72, 120
2, 19139, Note_on_c, 0, 72, 0
2, 19140, Note_on_c, 0, 74, 119
2, 19169, Note_on_c, 0, 74, 0
2, 19170, Note_on_c, 0, 76, 118
2, 19199, Note_on_c, 0, 76, 0
2, 19200, Note_on_c, 0, 77, 117
2, 19259, Note_on_c, 0, 77, 0
2, 19260, Note_on_c, 0, 77, 114
2, 19319, Note_on_c, 0, 77, 0
2, 19320, Note_on_c, 0, 77, 115
2, 19379, Note_on_c, 0, 77, 0
2, 19380, Note_on_c, 0, 72, 119
2, 19439, Note_on_c, 0, 72, 0
2, 19440, Note_on_c, 0, 79, 125
2, 19499, Note_on_c, 0, 79, 0
2, 19500, Note_on_c, 0, 79, 126
2, 19559, Note_on_c, 0, 79, 0
2, 19560, Note_on_c, 0, 79, 126
2, 19619, Note_on_c, 0, 79, 0
2, 19620, Note_on_c, 0, 72, 127
2, 19679, Note_on_c, 0, 72, 0
2, 19680, Note_on_c, 0, 81, 127
2, 19739, Note_on_c, 0, 81, 0
2, 19740, Note_on_c, 0, 77, 127
2, 19799, Note_on_c, 0, 77, 0
2, 19800, Note_on_c, 0, 81, 127
2, 19859, Note_on_c, 0, 81, 0
2, 19860, Note_on_c, 0, 84, 127
2, 19919, Note_on_c, 0, 84, 0
2, 19920, Note_on_c, 0, 89, 127
2, 19979, Note_on_c, 0, 89, 0
2, 19980, Note_on_c, 0, 84, 127
2, 20039, Note_on_c, 0, 84, 0
2, 20040, Note_on_c, 0, 86, 127
2, 20099, Note_on_c, 0, 86, 0
2, 20100, Note_on_c, 0, 82, 127
2, 20159, Note_on_c, 0, 82, 0
2, 20160, Note_on_c, 0, 84, 127
2, 20219, Note_on_c, 0, 84, 0
2, 20220, Note_on_c, 0, 77, 127
2, 20279, Note_on_c, 0, 77, 0
2, 20280, Note_on_c, 0, 81, 127
2, 20339, Note_on_c, 0, 81, 0
2, 20340, Note_on_c, 0, 84, 127
2, 20399, Note_on_c, 0, 84, 0
2, 20400, Note_on_c, 0, 89, 127
2, 20459, Note_on_c, 0, 89, 0
2, 20460, Note_on_c, 0, 84, 127
2, 20519, Note_on_c, 0, 84, 0
2, 20520, Note_on_c, 0, 86, 127
2, 20579, Note_on_c, 0, 86, 0
2, 20580, Note_on_c, 0, 82, 127
2, 20639, Note_on_c, 0, 82, 0
2, 20640, Note_on_c, 0, 84, 127
2, 20759, Note_on_c, 0, 84, 0
2, 20880, Note_on_c, 0, 77, 127
2, 20880, Lyric_t, "so "
2, 21119, Note_on_c, 0, 77, 0
2, 21120, Note_on_c, 0, 79, 127
2, 21120, Lyric_t, "bist "
2, 21299, Note_on_c, 0, 79, 0
2, 21300, Note_on_c, 0, 79, 127
2, 21300, Lyric_t, "du "
2, 21359, Note_on_c, 0, 79, 0
2, 21360, Note_on_c, 0, 80, 127
2, 21360, Lyric_t, "mei"
2, 21539, Note_on_c, 0, 80, 0
2, 21540, Note_on_c, 0, 80, 127
2, 21540, Lyric_t, "ne "
2, 21599, Note_on_c, 0, 80, 0
2, 21600, Note_on_c, 0, 81, 127
2, 21600, Lyric_t, "Toch"
2, 21839, Note_on_c, 0, 81, 0
2, 21840, Note_on_c, 0, 77, 127
2, 21840, Lyric_t, "ter "
2, 22079, Note_on_c, 0, 77, 0
2, 22080, Note_on_c, 0, 72, 127
2, 22080, Lyric_t, "nim"
2, 22439, Note_on_c, 0, 72, 0
2, 22440, Note_on_c, 0, 74, 127
2, 22440, Lyric_t, "mer"
2, 22499, Note_on_c, 0, 74, 0
2, 22500, Note_on_c, 0, 76, 127
2, 22559, Note_on_c, 0, 76, 0
2, 22560, Note_on_c, 0, 77, 127
2, 22560, Lyric_t, "mehr! "
2, 22679, Note_on_c, 0, 77, 0
2, 25380, Note_on_c, 0, 77, 110
2, 25380, Lyric_t, "Ver"
2, 25439, Note_on_c, 0, 77, 0
2, 25440, Note_on_c, 0, 77, 114
2, 25440, Lyric_t, "stos"
2, 25619, Note_on_c, 0, 77, 0
2, 25620, Note_on_c, 0, 77, 112
2, 25620, Lyric_t, "sen "
2, 25679, Note_on_c, 0, 77, 0
2, 25680, Note_on_c, 0, 77, 112
2, 25680, Lyric_t, "sei "
2, 25859, Note_on_c, 0, 77, 0
2, 25860, Note_on_c, 0, 77, 111
2, 25860, Lyric_t, "auf "
2, 25919, Note_on_c, 0, 77, 0
2, 25920, Note_on_c, 0, 77, 116
2, 25920, Lyric_t, "e"
2, 26039, Note_on_c, 0, 77, 0
2, 26040, Note_on_c, 0, 65, 94
2, 26040, Lyric_t, "wig, "
2, 26159, Note_on_c, 0, 65, 0
2, 26340, Note_on_c, 0, 77, 115
2, 26340, Lyric_t, "ver"
2, 26399, Note_on_c, 0, 77, 0
2, 26400, Note_on_c, 0, 77, 108
2, 26400, Lyric_t, "las"
2, 26579, Note_on_c, 0, 77, 0
2, 26580, Note_on_c, 0, 77, 110
2, 26580, Lyric_t, "sen "
2, 26639, Note_on_c, 0, 77, 0
2, 26640, Note_on_c, 0, 77, 113
2, 26640, Lyric_t, "sei "
2, 26819, Note_on_c, 0, 77, 0
2, 26820, Note_on_c, 0, 77, 114
2, 26820, Lyric_t, "auf "
2, 26879, Note_on_c, 0, 77, 0
2, 26880, Note_on_c, 0, 77, 116
2, 26880, Lyric_t, "e"
2, 26999, Note_on_c, 0, 77, 0
2, 27000, Note_on_c, 0, 65, 118
2, 27000, Lyric_t, "wig, "
2, 27119, Note_on_c, 0, 65, 0
2, 27300, Note_on_c, 0, 77, 105
2, 27300, Lyric_t, "zer"
2, 27359, Note_on_c, 0, 77, 0
2, 27360, Note_on_c, 0, 77, 103
2, 27360, Lyric_t, "trüm"
2, 27539, Note_on_c, 0, 77, 0
2, 27540, Note_on_c, 0, 77, 112
2, 27540, Lyric_t, "mert "
2, 27599, Note_on_c, 0, 77, 0
2, 27600, Note_on_c, 0, 77, 106
2, 27600, Lyric_t, "sei'n "
2, 27779, Note_on_c, 0, 77, 0
2, 27780, Note_on_c, 0, 77, 105
2, 27780, Lyric_t, "auf "
2, 27839, Note_on_c, 0, 77, 0
2, 27840, Note_on_c, 0, 77, 114
2, 27840, Lyric_t, "e"
2, 27959, Note_on_c, 0, 77, 0
2, 27960, Note_on_c, 0, 65, 113
2, 27960, Lyric_t, "wig "
2, 28079, Note_on_c, 0, 65, 0
2, 28200, Note_on_c, 0, 65, 110
2, 28200, Lyric_t, "al"
2, 28259, Note_on_c, 0, 65, 0
2, 28260, Note_on_c, 0, 65, 111
2, 28260, Lyric_t, "le "
2, 28319, Note_on_c, 0, 65, 0
2, 28320, Note_on_c, 0, 75, 118
2, 28320, Lyric_t, "Ban"
2, 28559, Note_on_c, 0, 75, 0
2, 28560, Note_on_c, 0, 72, 115
2, 28560, Lyric_t, "de "
2, 28799, Note_on_c, 0, 72, 0
2, 28800, Note_on_c, 0, 69, 109
2, 28800, Lyric_t, "der "
2, 29039, Note_on_c, 0, 69, 0
2, 29040, Note_on_c, 0, 74, 117
2, 29040, Lyric_t, "Na"
2, 29279, Note_on_c, 0, 74, 0
2, 29280, Note_on_c, 0, 67, 108
2, 29280, Lyric_t, "tur, "
2, 29399, Note_on_c, 0, 67, 0
2, 29700, Note_on_c, 0, 79, 117
2, 29700, Lyric_t, "ver"
2, 29759, Note_on_c, 0, 79, 0
2, 29760, Note_on_c, 0, 79, 117
2, 29760, Lyric_t, "stos"
2, 29879, Note_on_c, 0, 79, 0
2, 29880, Note_on_c, 0, 67, 100
2, 29880, Lyric_t, "sen, "
2, 29999, Note_on_c, 0, 67, 0
2, 30180, Note_on_c, 0, 79, 117
2, 30180, Lyric_t, "ver"
2, 30239, Note_on_c, 0, 79, 0
2, 30240, Note_on_c, 0, 79, 117
2, 30240, Lyric_t, "las"
2, 30359, Note_on_c, 0, 79, 0
2, 30360, Note_on_c, 0, 67, 100
2, 30360, Lyric_t, "sen "
2, 30479, Note_on_c, 0, 67, 0
2, 30600, Note_on_c, 0, 79, 116
2, 30600, Lyric_t, "und "
2, 30659, Note_on_c, 0, 79, 0
2, 30660, Note_on_c, 0, 79, 117
2, 30660, Lyric_t, "zer"
2, 30719, Note_on_c, 0, 79, 0
2, 30720, Note_on_c, 0, 79, 118
2, 30720, Lyric_t, "trüm"
2, 30839, Note_on_c, 0, 79, 0
2, 30840, Note_on_c, 0, 67, 100
2, 30840, Lyric_t, "mert "
2, 30959, Note_on_c, 0, 67, 0
2, 31080, Note_on_c, 0, 67, 101
2, 31080, Lyric_t, "al"
2, 31139, Note_on_c, 0, 67, 0
2, 31140, Note_on_c, 0, 67, 100
2, 31140, Lyric_t, "le "
2, 31199, Note_on_c, 0, 67, 0
2, 31200, Note_on_c, 0, 77, 117
2, 31200, Lyric_t, "Ban"
2, 31439, Note_on_c, 0, 77, 0
2, 31440, Note_on_c, 0, 74, 110
2, 31440, Lyric_t, "de "
2, 31679, Note_on_c, 0, 74, 0
2, 31680, Note_on_c, 0, 71, 99
2, 31680, Lyric_t, "der "
2, 31919, Note_on_c, 0, 71, 0
2, 31920, Note_on_c, 0, 76, 116
2, 31920, Lyric_t, "Na"
2, 32159, Note_on_c, 0, 76, 0
2, 32160, Note_on_c, 0, 69, 100
2, 32160, Lyric_t, "tur, "
2, 32279, Note_on_c, 0, 69, 0
2, 32640, Note_on_c, 0, 69, 99
2, 32640, Lyric_t, "al"
2, 32879, Note_on_c, 0, 69, 0
2, 32880, Note_on_c, 0, 76, 118
2, 32880, Lyric_t, "le "
2, 33119, Note_on_c, 0, 76, 0
2, 33120, Note_on_c, 0, 77, 102
2, 33120, Lyric_t, "Ban"
2, 33159, Note_on_c, 0, 77, 0
2, 33160, Note_on_c, 0, 79, 107
2, 33199, Note_on_c, 0, 79, 0
2, 33200, Note_on_c, 0, 77, 112
2, 33239, Note_on_c, 0, 77, 0
2, 33240, Note_on_c, 0, 81, 117
2, 33279, Note_on_c, 0, 81, 0
2, 33280, Note_on_c, 0, 82, 115
2, 33319, Note_on_c, 0, 82, 0
2, 33320, Note_on_c, 0, 81, 111
2, 33359, Note_on_c, 0, 81, 0
2, 33360, Note_on_c, 0, 77, 108
2, 33399, Note_on_c, 0, 77, 0
2, 33400, Note_on_c, 0, 79, 106
2, 33439, Note_on_c, 0, 79, 0
2, 33440, Note_on_c, 0, 77, 106
2, 33479, Note_on_c, 0, 77, 0
2, 33480, Note_on_c, 0, 74, 105
2, 33519, Note_on_c, 0, 74, 0
2, 33520, Note_on_c, 0, 76, 104
2, 33559, Note_on_c, 0, 76, 0
2, 33560, Note_on_c, 0, 74, 102
2, 33599, Note_on_c, 0, 74, 0
2, 33600, Note_on_c, 0, 73, 102
2, 33639, Note_on_c, 0, 73, 0
2, 33640, Note_on_c, 0, 74, 102
2, 33679, Note_on_c, 0, 74, 0
2, 33680, Note_on_c, 0, 73, 101
2, 33719, Note_on_c, 0, 73, 0
2, 33720, Note_on_c, 0, 69, 101
2, 33759, Note_on_c, 0, 69, 0
2, 33760, Note_on_c, 0, 71, 102
2, 33799, Note_on_c, 0, 71, 0
2, 33800, Note_on_c, 0, 69, 104
2, 33839, Note_on_c, 0, 69, 0
2, 33840, Note_on_c, 0, 73, 106
2, 33879, Note_on_c, 0, 73, 0
2, 33880, Note_on_c, 0, 74, 108
2, 33919, Note_on_c, 0, 74, 0
2, 33920, Note_on_c, 0, 73, 110
2, 33959, Note_on_c, 0, 73, 0
2, 33960, Note_on_c, 0, 76, 113
2, 33999, Note_on_c, 0, 76, 0
2, 34000, Note_on_c, 0, 77, 116
2, 34039, Note_on_c, 0, 77, 0
2, 34040, Note_on_c, 0, 76, 118
2, 34079, Note_on_c, 0, 76, 0
2, 34080, Note_on_c, 0, 77, 118
2, 34119, Note_on_c, 0, 77, 0
2, 34120, Note_on_c, 0, 79, 119
2, 34159, Note_on_c, 0, 79, 0
2, 34160, Note_on_c, 0, 77, 122
2, 34199, Note_on_c, 0, 77, 0
2, 34200, Note_on_c, 0, 81, 126
2, 34239, Note_on_c, 0, 81, 0
2, 34240, Note_on_c, 0, 82, 127
2, 34279, Note_on_c, 0, 82, 0
2, 34280, Note_on_c, 0, 81, 127
2, 34319, Note_on_c, 0, 81, 0
2, 34320, Note_on_c, 0, 77, 125
2, 34359, Note_on_c, 0, 77, 0
2, 34360, Note_on_c, 0, 79, 122
2, 34399, Note_on_c, 0, 79, 0
2, 34400, Note_on_c, 0, 77, 120
2, 34439, Note_on_c, 0, 77, 0
2, 34440, Note_on_c, 0, 74, 117
2, 34479, Note_on_c, 0, 74, 0
2, 34480, Note_on_c, 0, 76, 115
2, 34519, Note_on_c, 0, 76, 0
2, 34520, Note_on_c, 0, 74, 114
2, 34559, Note_on_c, 0, 74, 0
2, 34560, Note_on_c, 0, 73, 112
2, 34599, Note_on_c, 0, 73, 0
2, 34600, Note_on_c, 0, 74, 110
2, 34639, Note_on_c, 0, 74, 0
2, 34640, Note_on_c, 0, 73, 107
2, 34679, Note_on_c, 0, 73, 0
2, 34680, Note_on_c, 0, 69, 104
2, 34719, Note_on_c, 0, 69, 0
2, 34720, Note_on_c, 0, 71, 102
2, 34759, Note_on_c, 0, 71, 0
2, 34760, Note_on_c, 0, 69, 104
2, 34799, Note_on_c, 0, 69, 0
2, 34800, Note_on_c, 0, 73, 104
2, 34839, Note_on_c, 0, 73, 0
2, 34840, Note_on_c, 0, 74, 111
2, 34879, Note_on_c, 0, 74, 0
2, 34880, Note_on_c, 0, 73, 113
2, 34919, Note_on_c, 0, 73, 0
2, 34920, Note_on_c, 0, 76, 117
2, 34959, Note_on_c, 0, 76, 0
2, 34960, Note_on_c, 0, 77, 121
2, 34999, Note_on_c, 0, 77, 0
2, 35000, Note_on_c, 0, 76, 122
2, 35039, Note_on_c, 0, 76, 0
2, 35040, Note_on_c, 0, 77, 116
2, 35159, Note_on_c, 0, 77, 0
2, 35580, Note_on_c, 0, 74, 103
2, 35639, Note_on_c, 0, 74, 0
2, 35640, Note_on_c, 0, 77, 109
2, 35699, Note_on_c, 0, 77, 0
2, 35700, Note_on_c, 0, 81, 112
2, 35759, Note_on_c, 0, 81, 0
2, 35760, Note_on_c, 0, 86, 114
2, 35819, Note_on_c, 0, 86, 0
2, 35820, Note_on_c, 0, 81, 117
2, 35879, Note_on_c, 0, 81, 0
2, 35880, Note_on_c, 0, 82, 118
2, 35939, Note_on_c, 0, 82, 0
2, 35940, Note_on_c, 0, 79, 117
2, 35999, Note_on_c, 0, 79, 0
2, 36000, Note_on_c, 0, 81, 117
2, 36119, Note_on_c, 0, 81, 0
2, 36540, Note_on_c, 0, 74, 102
2, 36599, Note_on_c, 0, 74, 0
2, 36600, Note_on_c, 0, 77, 109
2, 36659, Note_on_c, 0, 77, 0
2, 36660, Note_on_c, 0, 81, 110
2, 36719, Note_on_c, 0, 81, 0
2, 36720, Note_on_c, 0, 86, 111
2, 36779, Note_on_c, 0, 86, 0
2, 36780, Note_on_c, 0, 81, 111
2, 36839, Note_on_c, 0, 81, 0
2, 36840, Note_on_c, 0, 82, 112
2, 36899, Note_on_c, 0, 82, 0
2, 36900, Note_on_c, 0, 79, 111
2, 36959, Note_on_c, 0, 79, 0
2, 36960, Note_on_c, 0, 81, 111
2, 37019, Note_on_c, 0, 81, 0
2, 37020, Note_on_c, 0, 74, 111
2, 37079, Note_on_c, 0, 74, 0
2, 37080, Note_on_c, 0, 77, 112
2, 37139, Note_on_c, 0, 77, 0
2, 37140, Note_on_c, 0, 81, 115
2, 37199, Note_on_c, 0, 81, 0
2, 37200, Note_on_c, 0, 86, 115
2, 37259, Note_on_c, 0, 86, 0
2, 37260, Note_on_c, 0, 81, 115
2, 37319, Note_on_c, 0, 81, 0
2, 37320, Note_on_c, 0, 86, 116
2, 37379, Note_on_c, 0, 86, 0
2, 37380, Note_on_c, 0, 84, 115
2, 37439, Note_on_c, 0, 84, 0
2, 37440, Note_on_c, 0, 82, 117
2, 37499, Note_on_c, 0, 82, 0
2, 37500, Note_on_c, 0, 79, 117
2, 37559, Note_on_c, 0, 79, 0
2, 37560, Note_on_c, 0, 84, 118
2, 37619, Note_on_c, 0, 84, 0
2, 37620, Note_on_c, 0, 82, 117
2, 37679, Note_on_c, 0, 82, 0
2, 37680, Note_on_c, 0, 81, 115
2, 37739, Note_on_c, 0, 81, 0
2, 37740, Note_on_c, 0, 77, 114
2, 37799, Note_on_c, 0, 77, 0
2, 37800, Note_on_c, 0, 82, 112
2, 37859, Note_on_c, 0, 82, 0
2, 37860, Note_on_c, 0, 81, 114
2, 37919, Note_on_c, 0, 81, 0
2, 37920, Note_on_c, 0, 79, 115
2, 37979, Note_on_c, 0, 79, 0
2, 37980, Note_on_c, 0, 76, 115
2, 38039, Note_on_c, 0, 76, 0
2, 38040, Note_on_c, 0, 81, 115
2, 38099, Note_on_c, 0, 81, 0
2, 38100, Note_on_c, 0, 79, 114
2, 38159, Note_on_c, 0, 79, 0
2, 38160, Note_on_c, 0, 77, 111
2, 38279, Note_on_c, 0, 77, 0
2, 38280, Note_on_c, 0, 74, 105
2, 38280, Lyric_t, "de, "
2, 38399, Note_on_c, 0, 74, 0
2, 38400, Note_on_c, 0, 75, 98
2, 38400, Lyric_t, "al"
2, 38639, Note_on_c, 0, 75, 0
2, 38640, Note_on_c, 0, 79, 114
2, 38640, Lyric_t, "le "
2, 38879, Note_on_c, 0, 79, 0
2, 38880, Note_on_c, 0, 82, 119
2, 38880, Lyric_t, "Ban"
2, 38999, Note_on_c, 0, 82, 0
2, 39000, Note_on_c, 0, 79, 113
2, 39000, Lyric_t, "de "
2, 39119, Note_on_c, 0, 79, 0
2, 39120, Note_on_c, 0, 75, 109
2, 39120, Lyric_t, "der "
2, 39239, Note_on_c, 0, 75, 0
2, 39240, Note_on_c, 0, 74, 107
2, 39240, Lyric_t, "Na"
2, 39359, Note_on_c, 0, 74, 0
2, 39360, Note_on_c, 0, 73, 92
2, 39360, Lyric_t, "tur, "
2, 39479, Note_on_c, 0, 73, 0
2, 39720, Note_on_c, 0, 69, 94
2, 39720, Lyric_t, "wenn "
2, 39839, Note_on_c, 0, 69, 0
2, 39840, Note_on_c, 0, 73, 111
2, 39840, Lyric_t, "nicht "
2, 40079, Note_on_c, 0, 73, 0
2, 40200, Note_on_c, 0, 73, 102
2, 40200, Lyric_t, "durch "
2, 40319, Note_on_c, 0, 73, 0
2, 40320, Note_on_c, 0, 76, 115
2, 40320, Lyric_t, "dich "
2, 40559, Note_on_c, 0, 76, 0
2, 40680, Note_on_c, 0, 76, 112
2, 40680, Lyric_t, "Sa"
2, 40799, Note_on_c, 0, 76, 0
2, 40800, Note_on_c, 0, 79, 126
2, 40800, Lyric_t, "ra"
2, 40919, Note_on_c, 0, 79, 0
2, 40920, Note_on_c, 0, 76, 117
2, 40920, Lyric_t, "stro "
2, 41039, Note_on_c, 0, 76, 0
2, 41040, Note_on_c, 0, 73, 112
2, 41040, Lyric_t, "wird "
2, 41159, Note_on_c, 0, 73, 0
2, 41160, Note_on_c, 0, 69, 105
2, 41160, Lyric_t, "er"
2, 41279, Note_on_c, 0, 69, 0
2, 41280, Note_on_c, 0, 70, 104
2, 41280, Lyric_t, "blas"
2, 41759, Note_on_c, 0, 70, 0
2, 41760, Note_on_c, 0, 69, 104
2, 41760, Lyric_t, "sen! "
2, 41879, Note_on_c, 0, 69, 0
2, 42240, Note_on_c, 0, 74, 110
2, 42240, Lyric_t, "Hört, "
2, 42479, Note_on_c, 0, 74, 0
2, 42720, Note_on_c, 0, 77, 119
2, 42720, Lyric_t, "hört, "
2, 42959, Note_on_c, 0, 77, 0
2, 43200, Note_on_c, 0, 82, 127
2, 43200, Lyric_t, "hört, "
2, 44399, Note_on_c, 0, 82, 0
2, 44400, Note_on_c, 0, 79, 118
2, 44400, Lyric_t, "Ra"
2, 44579, Note_on_c, 0, 79, 0
2, 44580, Note_on_c, 0, 75, 108
2, 44580, Lyric_t, "che"
2, 44639, Note_on_c, 0, 75, 0
2, 44640, Note_on_c, 0, 73, 103
2, 44640, Lyric_t, "göt"
2, 44759, Note_on_c, 0, 73, 0
2, 44760, Note_on_c, 0, 73, 101
2, 44760, Lyric_t, "ter! "
2, 44879, Note_on_c, 0, 73, 0
2, 45120, Note_on_c, 0, 77, 118
2, 45120, Lyric_t, "hört "
2, 45599, Note_on_c, 0, 77, 0
2, 45720, Note_on_c, 0, 74, 113
2, 45720, Lyric_t, "der "
2, 45839, Note_on_c, 0, 74, 0
2, 45840, Note_on_c, 0, 73, 107
2, 45840, Lyric_t, "Mut"
2, 46019, Note_on_c, 0, 73, 0
2, 46020, Note_on_c, 0, 74, 100
2, 46020, Lyric_t, "ter "
2, 46079, Note_on_c, 0, 74, 0
2, 46080, Note_on_c, 0, 69, 100
2, 46080, Lyric_t, "Schwur! "
2, 46319, Note_on_c, 0, 69, 0
2, 46319, End_track
3, 0, Start_track
3, 0, MIDI_port, 0
3, 0, Title_t, "Translation"
3, 125, Control_c, 1, 0, 0
3, 127, Program_c, 1, 54
3, 128, Control_c, 1, 7, 127
3, 128, Control_c, 1, 10, 64
3, 215, Control_c, 1, 11, 127
3, 216, Control_c, 1, 91, 60
3, 217, Control_c, 1, 93, 10
3, 218, Control_c, 1, 99, 1
3, 218, Control_c, 1, 98, 32
3, 218, Control_c, 1, 6, 64
3, 218, Control_c, 1, 38, 0
3, 219, Control_c, 1, 99, 1
3, 219, Control_c, 1, 98, 33
3, 219, Control_c, 1, 6, 64
3, 219, Control_c, 1, 38, 0
3, 220, Control_c, 1, 99, 1
3, 220, Control_c, 1, 98, 99
3, 220, Control_c, 1, 6, 64
3, 220, Control_c, 1, 38, 0
3, 1260, Note_on_c, 1, 69, 102
3, 1260, Lyric_t, "Hell's "
3, 1319, Note_on_c, 1, 69, 0
3, 1320, Note_on_c, 1, 69, 100
3, 1320, Lyric_t, "revenge "
3, 1379, Note_on_c, 1, 69, 0
3, 1380, Note_on_c, 1, 69, 99
3, 1380, Lyric_t, "Boils "
3, 1439, Note_on_c, 1, 69, 0
3, 1440, Note_on_c, 1, 74, 125
3, 1619, Note_on_c, 1, 74, 0
3, 1620, Note_on_c, 1, 69, 101
3, 1679, Note_on_c, 1, 69, 0
3, 1680, Note_on_c, 1, 77, 125
3, 1680, Lyric_t, "in "
3, 1739, Note_on_c, 1, 77, 0
3, 1740, Note_on_c, 1, 77, 124
3, 1740, Lyric_t, "my "
3, 1799, Note_on_c, 1, 77, 0
3, 1800, Note_on_c, 1, 76, 118
3, 1800, Lyric_t, "heart "
3, 1859, Note_on_c, 1, 76, 0
3, 1860, Note_on_c, 1, 76, 109
3, 1919, Note_on_c, 1, 76, 0
3, 1920, Note_on_c, 1, 74, 100
3, 2039, Note_on_c, 1, 74, 0
3, 2040, Note_on_c, 1, 69, 102
3, 2159, Note_on_c, 1, 69, 0
3, 2400, Note_on_c, 1, 79, 124
3, 2400, Lyric_t, "Death "
3, 2639, Note_on_c, 1, 79, 0
3, 2760, Note_on_c, 1, 76, 103
3, 2760, Lyric_t, "and "
3, 2819, Note_on_c, 1, 76, 0
3, 2820, Note_on_c, 1, 73, 101
3, 2820, Lyric_t, "desperation "
3, 2879, Note_on_c, 1, 73, 0
3, 2880, Note_on_c, 1, 81, 124
3, 2999, Note_on_c, 1, 81, 0
3, 3000, Note_on_c, 1, 74, 114
3, 3119, Note_on_c, 1, 74, 0
3, 3360, Note_on_c, 1, 75, 88
3, 3360, Lyric_t, "death "
3, 3599, Note_on_c, 1, 75, 0
3, 3600, Note_on_c, 1, 78, 99
3, 3600, Lyric_t, "and "
3, 3779, Note_on_c, 1, 78, 0
3, 3780, Note_on_c, 1, 78, 101
3, 3780, Lyric_t, "desperation "
3, 3839, Note_on_c, 1, 78, 0
3, 3840, Note_on_c, 1, 79, 110
3, 3959, Note_on_c, 1, 79, 0
3, 3960, Note_on_c, 1, 81, 119
3, 4079, Note_on_c, 1, 81, 0
3, 4080, Note_on_c, 1, 82, 127
3, 4080, Lyric_t, "blaze "
3, 4439, Note_on_c, 1, 82, 0
3, 4440, Note_on_c, 1, 79, 126
3, 4440, Lyric_t, "all "
3, 4559, Note_on_c, 1, 79, 0
3, 4560, Note_on_c, 1, 75, 116
3, 4560, Lyric_t, "around "
3, 4679, Note_on_c, 1, 75, 0
3, 4680, Note_on_c, 1, 74, 111
3, 4680, Lyric_t, "me! "
3, 4799, Note_on_c, 1, 74, 0
3, 4800, Note_on_c, 1, 73, 107
3, 4919, Note_on_c, 1, 73, 0
3, 5280, Note_on_c, 1, 65, 110
3, 5280, Lyric_t, "if, "
3, 5519, Note_on_c, 1, 65, 0
3, 5520, Note_on_c, 1, 69, 117
3, 5520, Lyric_t, "through "
3, 5639, Note_on_c, 1, 69, 0
3, 5640, Note_on_c, 1, 72, 120
3, 5759, Note_on_c, 1, 72, 0
3, 5760, Note_on_c, 1, 77, 126
3, 5760, Lyric_t, "you, "
3, 5999, Note_on_c, 1, 77, 0
3, 6180, Note_on_c, 1, 72, 108
3, 6180, Lyric_t, "Sarastro "
3, 6239, Note_on_c, 1, 72, 0
3, 6240, Note_on_c, 1, 81, 125
3, 6299, Note_on_c, 1, 81, 0
3, 6300, Note_on_c, 1, 79, 119
3, 6359, Note_on_c, 1, 79, 0
3, 6360, Note_on_c, 1, 77, 114
3, 6419, Note_on_c, 1, 77, 0
3, 6420, Note_on_c, 1, 76, 110
3, 6420, Lyric_t, "does "
3, 6479, Note_on_c, 1, 76, 0
3, 6480, Note_on_c, 1, 74, 106
3, 6480, Lyric_t, "not "
3, 6539, Note_on_c, 1, 74, 0
3, 6540, Note_on_c, 1, 72, 104
3, 6540, Lyric_t, "feel "
3, 6599, Note_on_c, 1, 72, 0
3, 6600, Note_on_c, 1, 70, 101
3, 6600, Lyric_t, "the "
3, 6659, Note_on_c, 1, 70, 0
3, 6660, Note_on_c, 1, 69, 104
3, 6660, Lyric_t, "pains "
3, 6719, Note_on_c, 1, 69, 0
3, 6720, Note_on_c, 1, 70, 113
3, 6720, Lyric_t, "of "
3, 6839, Note_on_c, 1, 70, 0
3, 6840, Note_on_c, 1, 79, 127
3, 6840, Lyric_t, "death, "
3, 6959, Note_on_c, 1, 79, 0
3, 7140, Note_on_c, 1, 79, 127
3, 7140, Lyric_t, "Sarastro "
3, 7199, Note_on_c, 1, 79, 0
3, 7200, Note_on_c, 1, 82, 126
3, 7259, Note_on_c, 1, 82, 0
3, 7260, Note_on_c, 1, 81, 122
3, 7319, Note_on_c, 1, 81, 0
3, 7320, Note_on_c, 1, 79, 117
3, 7379, Note_on_c, 1, 79, 0
3, 7380, Note_on_c, 1, 77, 112
3, 7380, Lyric_t, "does "
3, 7439, Note_on_c, 1, 77, 0
3, 7440, Note_on_c, 1, 76, 107
3, 7440, Lyric_t, "not "
3, 7499, Note_on_c, 1, 76, 0
3, 7500, Note_on_c, 1, 74, 105
3, 7500, Lyric_t, "feel "
3, 7559, Note_on_c, 1, 74, 0
3, 7560, Note_on_c, 1, 72, 102
3, 7560, Lyric_t, "the "
3, 7619, Note_on_c, 1, 72, 0
3, 7620, Note_on_c, 1, 70, 100
3, 7620, Lyric_t, "pains "
3, 7679, Note_on_c, 1, 70, 0
3, 7680, Note_on_c, 1, 69, 100
3, 7680, Lyric_t, "of "
3, 7799, Note_on_c, 1, 69, 0
3, 7800, Note_on_c, 1, 77, 126
3, 7800, Lyric_t, "death, "
3, 7919, Note_on_c, 1, 77, 0
3, 8280, Note_on_c, 1, 70, 93
3, 8280, Lyric_t, "then "
3, 8399, Note_on_c, 1, 70, 0
3, 8400, Note_on_c, 1, 74, 97
3, 8400, Lyric_t, "you "
3, 8519, Note_on_c, 1, 74, 0
3, 8520, Note_on_c, 1, 77, 106
3, 8520, Lyric_t, "are "
3, 8639, Note_on_c, 1, 77, 0
3, 8640, Note_on_c, 1, 82, 112
3, 8640, Lyric_t, "no "
3, 8879, Note_on_c, 1, 82, 0
3, 8880, Note_on_c, 1, 81, 116
3, 8880, Lyric_t, "longer "
3, 9119, Note_on_c, 1, 81, 0
3, 9120, Note_on_c, 1, 80, 117
3, 9120, Lyric_t, "my "
3, 9299, Note_on_c, 1, 80, 0
3, 9300, Note_on_c, 1, 77, 116
3, 9300, Lyric_t, "daughter, "
3, 9359, Note_on_c, 1, 77, 0
3, 9360, Note_on_c, 1, 80, 113
3, 9539, Note_on_c, 1, 80, 0
3, 9540, Note_on_c, 1, 77, 116
3, 9599, Note_on_c, 1, 77, 0
3, 9600, Note_on_c, 1, 76, 115
3, 9839, Note_on_c, 1, 76, 0
3, 9960, Note_on_c, 1, 72, 102
3, 9960, Lyric_t, "then "
3, 10079, Note_on_c, 1, 72, 0
3, 10080, Note_on_c, 1, 77, 116
3, 10080, Lyric_t, "you "
3, 10319, Note_on_c, 1, 77, 0
3, 10320, Note_on_c, 1, 79, 117
3, 10559, Note_on_c, 1, 79, 0
3, 10560, Note_on_c, 1, 81, 125
3, 10799, Note_on_c, 1, 81, 0
3, 10920, Note_on_c, 1, 72, 98
3, 10920, Lyric_t, "are "
3, 10979, Note_on_c, 1, 72, 0
3, 10980, Note_on_c, 1, 72, 98
3, 10980, Lyric_t, "no "
3, 11039, Note_on_c, 1, 72, 0
3, 11040, Note_on_c, 1, 77, 109
3, 11040, Lyric_t, "longer "
3, 11219, Note_on_c, 1, 77, 0
3, 11220, Note_on_c, 1, 77, 105
3, 11220, Lyric_t, "my "
3, 11279, Note_on_c, 1, 77, 0
3, 11280, Note_on_c, 1, 79, 112
3, 11280, Lyric_t, "daughter, "
3, 11459, Note_on_c, 1, 79, 0
3, 11460, Note_on_c, 1, 79, 108
3, 11519, Note_on_c, 1, 79, 0
3, 11520, Note_on_c, 1, 81, 118
3, 11759, Note_on_c, 1, 81, 0
3, 11880, Note_on_c, 1, 82, 118
3, 11885, Note_on_c, 1, 82, 0
3, 11886, Note_on_c, 1, 81, 118
3, 11909, Note_on_c, 1, 81, 0
3, 11910, Note_on_c, 1, 79, 118
3, 11939, Note_on_c, 1, 79, 0
3, 11940, Note_on_c, 1, 81, 118
3, 11969, Note_on_c, 1, 81, 0
3, 11970, Note_on_c, 1, 82, 118
3, 11999, Note_on_c, 1, 82, 0
3, 12000, Note_on_c, 1, 84, 119
3, 12059, Note_on_c, 1, 84, 0
3, 12060, Note_on_c, 1, 84, 119
3, 12119, Note_on_c, 1, 84, 0
3, 12120, Note_on_c, 1, 84, 120
3, 12179, Note_on_c, 1, 84, 0
3, 12180, Note_on_c, 1, 84, 120
3, 12239, Note_on_c, 1, 84, 0
3, 12240, Note_on_c, 1, 84, 118
3, 12299, Note_on_c, 1, 84, 0
3, 12300, Note_on_c, 1, 84, 119
3, 12359, Note_on_c, 1, 84, 0
3, 12360, Note_on_c, 1, 84, 119
3, 12419, Note_on_c, 1, 84, 0
3, 12420, Note_on_c, 1, 84, 120
3, 12479, Note_on_c, 1, 84, 0
3, 12480, Note_on_c, 1, 77, 120
3, 12719, Note_on_c, 1, 77, 0
3, 12840, Note_on_c, 1, 79, 110
3, 12845, Note_on_c, 1, 79, 0
3, 12846, Note_on_c, 1, 77, 110
3, 12869, Note_on_c, 1, 77, 0
3, 12870, Note_on_c, 1, 76, 111
3, 12899, Note_on_c, 1, 76, 0
3, 12900, Note_on_c, 1, 77, 110
3, 12929, Note_on_c, 1, 77, 0
3, 12930, Note_on_c, 1, 79, 111
3, 12959, Note_on_c, 1, 79, 0
3, 12960, Note_on_c, 1, 81, 113
3, 13019, Note_on_c, 1, 81, 0
3, 13020, Note_on_c, 1, 81, 117
3, 13079, Note_on_c, 1, 81, 0
3, 13080, Note_on_c, 1, 81, 117
3, 13139, Note_on_c, 1, 81, 0
3, 13140, Note_on_c, 1, 81, 117
3, 13199, Note_on_c, 1, 81, 0
3, 13200, Note_on_c, 1, 81, 117
3, 13259, Note_on_c, 1, 81, 0
3, 13260, Note_on_c, 1, 81, 117
3, 13319, Note_on_c, 1, 81, 0
3, 13320, Note_on_c, 1, 81, 117
3, 13379, Note_on_c, 1, 81, 0
3, 13380, Note_on_c, 1, 81, 116
3, 13439, Note_on_c, 1, 81, 0
3, 13440, Note_on_c, 1, 74, 117
3, 13679, Note_on_c, 1, 74, 0
3, 13800, Note_on_c, 1, 76, 119
3, 13805, Note_on_c, 1, 76, 0
3, 13806, Note_on_c, 1, 74, 119
3, 13829, Note_on_c, 1, 74, 0
3, 13830, Note_on_c, 1, 72, 119
3, 13859, Note_on_c, 1, 72, 0
3, 13860, Note_on_c, 1, 74, 119
3, 13889, Note_on_c, 1, 74, 0
3, 13890, Note_on_c, 1, 76, 119
3, 13919, Note_on_c, 1, 76, 0
3, 13920, Note_on_c, 1, 77, 120
3, 13979, Note_on_c, 1, 77, 0
3, 13980, Note_on_c, 1, 77, 119
3, 14039, Note_on_c, 1, 77, 0
3, 14040, Note_on_c, 1, 77, 119
3, 14099, Note_on_c, 1, 77, 0
3, 14100, Note_on_c, 1, 72, 105
3, 14159, Note_on_c, 1, 72, 0
3, 14160, Note_on_c, 1, 79, 120
3, 14219, Note_on_c, 1, 79, 0
3, 14220, Note_on_c, 1, 79, 119
3, 14279, Note_on_c, 1, 79, 0
3, 14280, Note_on_c, 1, 79, 119
3, 14339, Note_on_c, 1, 79, 0
3, 14340, Note_on_c, 1, 72, 127
3, 14399, Note_on_c, 1, 72, 0
3, 14400, Note_on_c, 1, 81, 127
3, 14459, Note_on_c, 1, 81, 0
3, 14460, Note_on_c, 1, 77, 127
3, 14519, Note_on_c, 1, 77, 0
3, 14520, Note_on_c, 1, 81, 127
3, 14579, Note_on_c, 1, 81, 0
3, 14580, Note_on_c, 1, 84, 127
3, 14639, Note_on_c, 1, 84, 0
3, 14640, Note_on_c, 1, 89, 127
3, 14699, Note_on_c, 1, 89, 0
3, 14700, Note_on_c, 1, 84, 127
3, 14759, Note_on_c, 1, 84, 0
3, 14760, Note_on_c, 1, 86, 127
3, 14819, Note_on_c, 1, 86, 0
3, 14820, Note_on_c, 1, 82, 127
3, 14879, Note_on_c, 1, 82, 0
3, 14880, Note_on_c, 1, 84, 127
3, 14939, Note_on_c, 1, 84, 0
3, 14940, Note_on_c, 1, 77, 127
3, 14999, Note_on_c, 1, 77, 0
3, 15000, Note_on_c, 1, 81, 127
3, 15059, Note_on_c, 1, 81, 0
3, 15060, Note_on_c, 1, 84, 127
3, 15119, Note_on_c, 1, 84, 0
3, 15120, Note_on_c, 1, 89, 127
3, 15179, Note_on_c, 1, 89, 0
3, 15180, Note_on_c, 1, 84, 127
3, 15239, Note_on_c, 1, 84, 0
3, 15240, Note_on_c, 1, 86, 127
3, 15299, Note_on_c, 1, 86, 0
3, 15300, Note_on_c, 1, 82, 127
3, 15359, Note_on_c, 1, 82, 0
3, 15360, Note_on_c, 1, 84, 127
3, 15479, Note_on_c, 1, 84, 0
3, 15600, Note_on_c, 1, 77, 127
3, 15600, Lyric_t, "no "
3, 15779, Note_on_c, 1, 77, 0
3, 15780, Note_on_c, 1, 77, 127
3, 15780, Lyric_t, "longer "
3, 15839, Note_on_c, 1, 77, 0
3, 15840, Note_on_c, 1, 79, 127
3, 15840, Lyric_t, "my "
3, 16079, Note_on_c, 1, 79, 0
3, 16080, Note_on_c, 1, 82, 127
3, 16080, Lyric_t, "daughter, "
3, 16319, Note_on_c, 1, 82, 0
3, 16320, Note_on_c, 1, 72, 127
3, 16679, Note_on_c, 1, 72, 0
3, 16680, Note_on_c, 1, 74, 127
3, 16739, Note_on_c, 1, 74, 0
3, 16740, Note_on_c, 1, 76, 127
3, 16799, Note_on_c, 1, 76, 0
3, 16800, Note_on_c, 1, 77, 127
3, 17039, Note_on_c, 1, 77, 0
3, 17160, Note_on_c, 1, 82, 112
3, 17165, Note_on_c, 1, 82, 0
3, 17166, Note_on_c, 1, 81, 112
3, 17189, Note_on_c, 1, 81, 0
3, 17190, Note_on_c, 1, 79, 113
3, 17219, Note_on_c, 1, 79, 0
3, 17220, Note_on_c, 1, 81, 113
3, 17249, Note_on_c, 1, 81, 0
3, 17250, Note_on_c, 1, 82, 115
3, 17279, Note_on_c, 1, 82, 0
3, 17280, Note_on_c, 1, 84, 116
3, 17339, Note_on_c, 1, 84, 0
3, 17340, Note_on_c, 1, 84, 117
3, 17399, Note_on_c, 1, 84, 0
3, 17400, Note_on_c, 1, 84, 117
3, 17459, Note_on_c, 1, 84, 0
3, 17460, Note_on_c, 1, 84, 117
3, 17519, Note_on_c, 1, 84, 0
3, 17520, Note_on_c, 1, 84, 117
3, 17579, Note_on_c, 1, 84, 0
3, 17580, Note_on_c, 1, 84, 117
3, 17639, Note_on_c, 1, 84, 0
3, 17640, Note_on_c, 1, 84, 117
3, 17699, Note_on_c, 1, 84, 0
3, 17700, Note_on_c, 1, 84, 117
3, 17759, Note_on_c, 1, 84, 0
3, 17760, Note_on_c, 1, 77, 118
3, 17999, Note_on_c, 1, 77, 0
3, 18120, Note_on_c, 1, 79, 108
3, 18125, Note_on_c, 1, 79, 0
3, 18126, Note_on_c, 1, 77, 108
3, 18149, Note_on_c, 1, 77, 0
3, 18150, Note_on_c, 1, 76, 109
3, 18179, Note_on_c, 1, 76, 0
3, 18180, Note_on_c, 1, 77, 109
3, 18209, Note_on_c, 1, 77, 0
3, 18210, Note_on_c, 1, 79, 110
3, 18239, Note_on_c, 1, 79, 0
3, 18240, Note_on_c, 1, 81, 113
3, 18299, Note_on_c, 1, 81, 0
3, 18300, Note_on_c, 1, 81, 114
3, 18359, Note_on_c, 1, 81, 0
3, 18360, Note_on_c, 1, 81, 115
3, 18419, Note_on_c, 1, 81, 0
3, 18420, Note_on_c, 1, 81, 115
3, 18479, Note_on_c, 1, 81, 0
3, 18480, Note_on_c, 1, 81, 115
3, 18539, Note_on_c, 1, 81, 0
3, 18540, Note_on_c, 1, 81, 115
3, 18599, Note_on_c, 1, 81, 0
3, 18600, Note_on_c, 1, 81, 115
3, 18659, Note_on_c, 1, 81, 0
3, 18660, Note_on_c, 1, 81, 115
3, 18719, Note_on_c, 1, 81, 0
3, 18720, Note_on_c, 1, 74, 116
3, 18959, Note_on_c, 1, 74, 0
3, 19080, Note_on_c, 1, 76, 120
3, 19085, Note_on_c, 1, 76, 0
3, 19086, Note_on_c, 1, 74, 120
3, 19109, Note_on_c, 1, 74, 0
3, 19110, Note_on_c, 1, 72, 120
3, 19139, Note_on_c, 1, 72, 0
3, 19140, Note_on_c, 1, 74, 119
3, 19169, Note_on_c, 1, 74, 0
3, 19170, Note_on_c, 1, 76, 118
3, 19199, Note_on_c, 1, 76, 0
3, 19200, Note_on_c, 1, 77, 117
3, 19259, Note_on_c, 1, 77, 0
3, 19260, Note_on_c, 1, 77, 114
3, 19319, Note_on_c, 1, 77, 0
3, 19320, Note_on_c, 1, 77, 115
3, 19379, Note_on_c, 1, 77, 0
3, 19380, Note_on_c, 1, 72, 119
3, 19439, Note_on_c, 1, 72, 0
3, 19440, Note_on_c, 1, 79, 125
3, 19499, Note_on_c, 1, 79, 0
3, 19500, Note_on_c, 1, 79, 126
3, 19559, Note_on_c, 1, 79, 0
3, 19560, Note_on_c, 1, 79, 126
3, 19619, Note_on_c, 1, 79, 0
3, 19620, Note_on_c, 1, 72, 127
3, 19679, Note_on_c, 1, 72, 0
3, 19680, Note_on_c, 1, 81, 127
3, 19739, Note_on_c, 1, 81, 0
3, 19740, Note_on_c, 1, 77, 127
3, 19799, Note_on_c, 1, 77, 0
3, 19800, Note_on_c, 1, 81, 127
3, 19859, Note_on_c, 1, 81, 0
3, 19860, Note_on_c, 1, 84, 127
3, 19919, Note_on_c, 1, 84, 0
3, 19920, Note_on_c, 1, 89, 127
3, 19979, Note_on_c, 1, 89, 0
3, 19980, Note_on_c, 1, 84, 127
3, 20039, Note_on_c, 1, 84, 0
3, 20040, Note_on_c, 1, 86, 127
3, 20099, Note_on_c, 1, 86, 0
3, 20100, Note_on_c, 1, 82, 127
3, 20159, Note_on_c, 1, 82, 0
3, 20160, Note_on_c, 1, 84, 127
3, 20219, Note_on_c, 1, 84, 0
3, 20220, Note_on_c, 1, 77, 127
3, 20279, Note_on_c, 1, 77, 0
3, 20280, Note_on_c, 1, 81, 127
3, 20339, Note_on_c, 1, 81, 0
3, 20340, Note_on_c, 1, 84, 127
3, 20399, Note_on_c, 1, 84, 0
3, 20400, Note_on_c, 1, 89, 127
3, 20459, Note_on_c, 1, 89, 0
3, 20460, Note_on_c, 1, 84, 127
3, 20519, Note_on_c, 1, 84, 0
3, 20520, Note_on_c, 1, 86, 127
3, 20579, Note_on_c, 1, 86, 0
3, 20580, Note_on_c, 1, 82, 127
3, 20639, Note_on_c, 1, 82, 0
3, 20640, Note_on_c, 1, 84, 127
3, 20759, Note_on_c, 1, 84, 0
3, 20880, Note_on_c, 1, 77, 127
3, 20880, Lyric_t, "then "
3, 21119, Note_on_c, 1, 77, 0
3, 21120, Note_on_c, 1, 79, 127
3, 21120, Lyric_t, "you "
3, 21299, Note_on_c, 1, 79, 0
3, 21300, Note_on_c, 1, 79, 127
3, 21300, Lyric_t, "are "
3, 21359, Note_on_c, 1, 79, 0
3, 21360, Note_on_c, 1, 80, 127
3, 21360, Lyric_t, "no "
3, 21539, Note_on_c, 1, 80, 0
3, 21540, Note_on_c, 1, 80, 127
3, 21540, Lyric_t, "longer "
3, 21599, Note_on_c, 1, 80, 0
3, 21600, Note_on_c, 1, 81, 127
3, 21600, Lyric_t, "my "
3, 21839, Note_on_c, 1, 81, 0
3, 21840, Note_on_c, 1, 77, 127
3, 21840, Lyric_t, "daughter! "
3, 22079, Note_on_c, 1, 77, 0
3, 22080, Note_on_c, 1, 72, 127
3, 22439, Note_on_c, 1, 72, 0
3, 22440, Note_on_c, 1, 74, 127
3, 22499, Note_on_c, 1, 74, 0
3, 22500, Note_on_c, 1, 76, 127
3, 22559, Note_on_c, 1, 76, 0
3, 22560, Note_on_c, 1, 77, 127
3, 22679, Note_on_c, 1, 77, 0
3, 25380, Note_on_c, 1, 77, 110
3, 25380, Lyric_t, "Be "
3, 25439, Note_on_c, 1, 77, 0
3, 25440, Note_on_c, 1, 77, 114
3, 25440, Lyric_t, "cast "
3, 25619, Note_on_c, 1, 77, 0
3, 25620, Note_on_c, 1, 77, 112
3, 25620, Lyric_t, "out "
3, 25679, Note_on_c, 1, 77, 0
3, 25680, Note_on_c, 1, 77, 112
3, 25680, Lyric_t, "forever, "
3, 25859, Note_on_c, 1, 77, 0
3, 25860, Note_on_c, 1, 77, 111
3, 25919, Note_on_c, 1, 77, 0
3, 25920, Note_on_c, 1, 77, 116
3, 26039, Note_on_c, 1, 77, 0
3, 26040, Note_on_c, 1, 65, 94
3, 26159, Note_on_c, 1, 65, 0
3, 26340, Note_on_c, 1, 77, 115
3, 26340, Lyric_t, "be "
3, 26399, Note_on_c, 1, 77, 0
3, 26400, Note_on_c, 1, 77, 108
3, 26400, Lyric_t, "forsaken "
3, 26579, Note_on_c, 1, 77, 0
3, 26580, Note_on_c, 1, 77, 110
3, 26580, Lyric_t, "forever, "
3, 26639, Note_on_c, 1, 77, 0
3, 26640, Note_on_c, 1, 77, 113
3, 26819, Note_on_c, 1, 77, 0
3, 26820, Note_on_c, 1, 77, 114
3, 26879, Note_on_c, 1, 77, 0
3, 26880, Note_on_c, 1, 77, 116
3, 26999, Note_on_c, 1, 77, 0
3, 27000, Note_on_c, 1, 65, 118
3, 27119, Note_on_c, 1, 65, 0
3, 27300, Note_on_c, 1, 77, 105
3, 27300, Lyric_t, "be "
3, 27359, Note_on_c, 1, 77, 0
3, 27360, Note_on_c, 1, 77, 103
3, 27360, Lyric_t, "ruined "
3, 27539, Note_on_c, 1, 77, 0
3, 27540, Note_on_c, 1, 77, 112
3, 27540, Lyric_t, "forever "
3, 27599, Note_on_c, 1, 77, 0
3, 27600, Note_on_c, 1, 77, 106
3, 27600, Lyric_t, "all "
3, 27779, Note_on_c, 1, 77, 0
3, 27780, Note_on_c, 1, 77, 105
3, 27780, Lyric_t, "natural "
3, 27839, Note_on_c, 1, 77, 0
3, 27840, Note_on_c, 1, 77, 114
3, 27840, Lyric_t, "bonds, "
3, 27959, Note_on_c, 1, 77, 0
3, 27960, Note_on_c, 1, 65, 113
3, 28079, Note_on_c, 1, 65, 0
3, 28200, Note_on_c, 1, 65, 110
3, 28259, Note_on_c, 1, 65, 0
3, 28260, Note_on_c, 1, 65, 111
3, 28319, Note_on_c, 1, 65, 0
3, 28320, Note_on_c, 1, 75, 118
3, 28559, Note_on_c, 1, 75, 0
3, 28560, Note_on_c, 1, 72, 115
3, 28799, Note_on_c, 1, 72, 0
3, 28800, Note_on_c, 1, 69, 109
3, 29039, Note_on_c, 1, 69, 0
3, 29040, Note_on_c, 1, 74, 117
3, 29279, Note_on_c, 1, 74, 0
3, 29280, Note_on_c, 1, 67, 108
3, 29399, Note_on_c, 1, 67, 0
3, 29700, Note_on_c, 1, 79, 117
3, 29700, Lyric_t, "cast "
3, 29759, Note_on_c, 1, 79, 0
3, 29760, Note_on_c, 1, 79, 117
3, 29760, Lyric_t, "out, "
3, 29879, Note_on_c, 1, 79, 0
3, 29880, Note_on_c, 1, 67, 100
3, 29999, Note_on_c, 1, 67, 0
3, 30180, Note_on_c, 1, 79, 117
3, 30180, Lyric_t, "forsaken "
3, 30239, Note_on_c, 1, 79, 0
3, 30240, Note_on_c, 1, 79, 117
3, 30359, Note_on_c, 1, 79, 0
3, 30360, Note_on_c, 1, 67, 100
3, 30479, Note_on_c, 1, 67, 0
3, 30600, Note_on_c, 1, 79, 116
3, 30600, Lyric_t, "and "
3, 30659, Note_on_c, 1, 79, 0
3, 30660, Note_on_c, 1, 79, 117
3, 30660, Lyric_t, "ruined "
3, 30719, Note_on_c, 1, 79, 0
3, 30720, Note_on_c, 1, 79, 118
3, 30839, Note_on_c, 1, 79, 0
3, 30840, Note_on_c, 1, 67, 100
3, 30959, Note_on_c, 1, 67, 0
3, 31080, Note_on_c, 1, 67, 101
3, 31080, Lyric_t, "all "
3, 31139, Note_on_c, 1, 67, 0
3, 31140, Note_on_c, 1, 67, 100
3, 31199, Note_on_c, 1, 67, 0
3, 31200, Note_on_c, 1, 77, 117
3, 31200, Lyric_t, "natural "
3, 31439, Note_on_c, 1, 77, 0
3, 31440, Note_on_c, 1, 74, 110
3, 31440, Lyric_t, "bonds, "
3, 31679, Note_on_c, 1, 74, 0
3, 31680, Note_on_c, 1, 71, 99
3, 31919, Note_on_c, 1, 71, 0
3, 31920, Note_on_c, 1, 76, 116
3, 32159, Note_on_c, 1, 76, 0
3, 32160, Note_on_c, 1, 69, 100
3, 32279, Note_on_c, 1, 69, 0
3, 32640, Note_on_c, 1, 69, 99
3, 32640, Lyric_t, "all "
3, 32879, Note_on_c, 1, 69, 0
3, 32880, Note_on_c, 1, 76, 118
3, 32880, Lyric_t, "natu "
3, 33119, Note_on_c, 1, 76, 0
3, 33120, Note_on_c, 1, 77, 102
3, 33159, Note_on_c, 1, 77, 0
3, 33160, Note_on_c, 1, 79, 107
3, 33199, Note_on_c, 1, 79, 0
3, 33200, Note_on_c, 1, 77, 112
3, 33239, Note_on_c, 1, 77, 0
3, 33240, Note_on_c, 1, 81, 117
3, 33279, Note_on_c, 1, 81, 0
3, 33280, Note_on_c, 1, 82, 115
3, 33319, Note_on_c, 1, 82, 0
3, 33320, Note_on_c, 1, 81, 111
3, 33359, Note_on_c, 1, 81, 0
3, 33360, Note_on_c, 1, 77, 108
3, 33399, Note_on_c, 1, 77, 0
3, 33400, Note_on_c, 1, 79, 106
3, 33439, Note_on_c, 1, 79, 0
3, 33440, Note_on_c, 1, 77, 106
3, 33479, Note_on_c, 1, 77, 0
3, 33480, Note_on_c, 1, 74, 105
3, 33519, Note_on_c, 1, 74, 0
3, 33520, Note_on_c, 1, 76, 104
3, 33559, Note_on_c, 1, 76, 0
3, 33560, Note_on_c, 1, 74, 102
3, 33599, Note_on_c, 1, 74, 0
3, 33600, Note_on_c, 1, 73, 102
3, 33639, Note_on_c, 1, 73, 0
3, 33640, Note_on_c, 1, 74, 102
3, 33679, Note_on_c, 1, 74, 0
3, 33680, Note_on_c, 1, 73, 101
3, 33719, Note_on_c, 1, 73, 0
3, 33720, Note_on_c, 1, 69, 101
3, 33759, Note_on_c, 1, 69, 0
3, 33760, Note_on_c, 1, 71, 102
3, 33799, Note_on_c, 1, 71, 0
3, 33800, Note_on_c, 1, 69, 104
3, 33839, Note_on_c, 1, 69, 0
3, 33840, Note_on_c, 1, 73, 106
3, 33879, Note_on_c, 1, 73, 0
3, 33880, Note_on_c, 1, 74, 108
3, 33919, Note_on_c, 1, 74, 0
3, 33920, Note_on_c, 1, 73, 110
3, 33959, Note_on_c, 1, 73, 0
3, 33960, Note_on_c, 1, 76, 113
3, 33999, Note_on_c, 1, 76, 0
3, 34000, Note_on_c, 1, 77, 116
3, 34039, Note_on_c, 1, 77, 0
3, 34040, Note_on_c, 1, 76, 118
3, 34079, Note_on_c, 1, 76, 0
3, 34080, Note_on_c, 1, 77, 118
3, 34119, Note_on_c, 1, 77, 0
3, 34120, Note_on_c, 1, 79, 119
3, 34159, Note_on_c, 1, 79, 0
3, 34160, Note_on_c, 1, 77, 122
3, 34199, Note_on_c, 1, 77, 0
3, 34200, Note_on_c, 1, 81, 126
3, 34239, Note_on_c, 1, 81, 0
3, 34240, Note_on_c, 1, 82, 127
3, 34279, Note_on_c, 1, 82, 0
3, 34280, Note_on_c, 1, 81, 127
3, 34319, Note_on_c, 1, 81, 0
3, 34320, Note_on_c, 1, 77, 125
3, 34359, Note_on_c, 1, 77, 0
3, 34360, Note_on_c, 1, 79, 122
3, 34399, Note_on_c, 1, 79, 0
3, 34400, Note_on_c, 1, 77, 120
3, 34439, Note_on_c, 1, 77, 0
3, 34440, Note_on_c, 1, 74, 117
3, 34479, Note_on_c, 1, 74, 0
3, 34480, Note_on_c, 1, 76, 115
3, 34519, Note_on_c, 1, 76, 0
3, 34520, Note_on_c, 1, 74, 114
3, 34559, Note_on_c, 1, 74, 0
3, 34560, Note_on_c, 1, 73, 112
3, 34599, Note_on_c, 1, 73, 0
3, 34600, Note_on_c, 1, 74, 110
3, 34639, Note_on_c, 1, 74, 0
3, 34640, Note_on_c, 1, 73, 107
3, 34679, Note_on_c, 1, 73, 0
3, 34680, Note_on_c, 1, 69, 104
3, 34719, Note_on_c, 1, 69, 0
3, 34720, Note_on_c, 1, 71, 102
3, 34759, Note_on_c, 1, 71, 0
3, 34760, Note_on_c, 1, 69, 104
3, 34799, Note_on_c, 1, 69, 0
3, 34800, Note_on_c, 1, 73, 104
3, 34839, Note_on_c, 1, 73, 0
3, 34840, Note_on_c, 1, 74, 111
3, 34879, Note_on_c, 1, 74, 0
3, 34880, Note_on_c, 1, 73, 113
3, 34919, Note_on_c, 1, 73, 0
3, 34920, Note_on_c, 1, 76, 117
3, 34959, Note_on_c, 1, 76, 0
3, 34960, Note_on_c, 1, 77, 121
3, 34999, Note_on_c, 1, 77, 0
3, 35000, Note_on_c, 1, 76, 122
3, 35039, Note_on_c, 1, 76, 0
3, 35040, Note_on_c, 1, 77, 116
3, 35159, Note_on_c, 1, 77, 0
3, 35580, Note_on_c, 1, 74, 103
3, 35639, Note_on_c, 1, 74, 0
3, 35640, Note_on_c, 1, 77, 109
3, 35699, Note_on_c, 1, 77, 0
3, 35700, Note_on_c, 1, 81, 112
3, 35759, Note_on_c, 1, 81, 0
3, 35760, Note_on_c, 1, 86, 114
3, 35819, Note_on_c, 1, 86, 0
3, 35820, Note_on_c, 1, 81, 117
3, 35879, Note_on_c, 1, 81, 0
3, 35880, Note_on_c, 1, 82, 118
3, 35939, Note_on_c, 1, 82, 0
3, 35940, Note_on_c, 1, 79, 117
3, 35999, Note_on_c, 1, 79, 0
3, 36000, Note_on_c, 1, 81, 117
3, 36119, Note_on_c, 1, 81, 0
3, 36540, Note_on_c, 1, 74, 102
3, 36599, Note_on_c, 1, 74, 0
3, 36600, Note_on_c, 1, 77, 109
3, 36659, Note_on_c, 1, 77, 0
3, 36660, Note_on_c, 1, 81, 110
3, 36719, Note_on_c, 1, 81, 0
3, 36720, Note_on_c, 1, 86, 111
3, 36779, Note_on_c, 1, 86, 0
3, 36780, Note_on_c, 1, 81, 111
3, 36839, Note_on_c, 1, 81, 0
3, 36840, Note_on_c, 1, 82, 112
3, 36899, Note_on_c, 1, 82, 0
3, 36900, Note_on_c, 1, 79, 111
3, 36959, Note_on_c, 1, 79, 0
3, 36960, Note_on_c, 1, 81, 111
3, 37019, Note_on_c, 1, 81, 0
3, 37020, Note_on_c, 1, 74, 111
3, 37079, Note_on_c, 1, 74, 0
3, 37080, Note_on_c, 1, 77, 112
3, 37139, Note_on_c, 1, 77, 0
3, 37140, Note_on_c, 1, 81, 115
3, 37199, Note_on_c, 1, 81, 0
3, 37200, Note_on_c, 1, 86, 115
3, 37259, Note_on_c, 1, 86, 0
3, 37260, Note_on_c, 1, 81, 115
3, 37319, Note_on_c, 1, 81, 0
3, 37320, Note_on_c, 1, 86, 116
3, 37379, Note_on_c, 1, 86, 0
3, 37380, Note_on_c, 1, 84, 115
3, 37439, Note_on_c, 1, 84, 0
3, 37440, Note_on_c, 1, 82, 117
3, 37499, Note_on_c, 1, 82, 0
3, 37500, Note_on_c, 1, 79, 117
3, 37559, Note_on_c, 1, 79, 0
3, 37560, Note_on_c, 1, 84, 118
3, 37619, Note_on_c, 1, 84, 0
3, 37620, Note_on_c, 1, 82, 117
3, 37679, Note_on_c, 1, 82, 0
3, 37680, Note_on_c, 1, 81, 115
3, 37739, Note_on_c, 1, 81, 0
3, 37740, Note_on_c, 1, 77, 114
3, 37799, Note_on_c, 1, 77, 0
3, 37800, Note_on_c, 1, 82, 112
3, 37859, Note_on_c, 1, 82, 0
3, 37860, Note_on_c, 1, 81, 114
3, 37919, Note_on_c, 1, 81, 0
3, 37920, Note_on_c, 1, 79, 115
3, 37979, Note_on_c, 1, 79, 0
3, 37980, Note_on_c, 1, 76, 115
3, 38039, Note_on_c, 1, 76, 0
3, 38040, Note_on_c, 1, 81, 115
3, 38099, Note_on_c, 1, 81, 0
3, 38100, Note_on_c, 1, 79, 114
3, 38159, Note_on_c, 1, 79, 0
3, 38160, Note_on_c, 1, 77, 111
3, 38279, Note_on_c, 1, 77, 0
3, 38280, Note_on_c, 1, 74, 105
3, 38280, Lyric_t, "ral, "
3, 38399, Note_on_c, 1, 74, 0
3, 38400, Note_on_c, 1, 75, 98
3, 38400, Lyric_t, "all "
3, 38639, Note_on_c, 1, 75, 0
3, 38640, Note_on_c, 1, 79, 114
3, 38640, Lyric_t, "natural "
3, 38879, Note_on_c, 1, 79, 0
3, 38880, Note_on_c, 1, 82, 119
3, 38880, Lyric_t, "bonds, "
3, 38999, Note_on_c, 1, 82, 0
3, 39000, Note_on_c, 1, 79, 113
3, 39119, Note_on_c, 1, 79, 0
3, 39120, Note_on_c, 1, 75, 109
3, 39239, Note_on_c, 1, 75, 0
3, 39240, Note_on_c, 1, 74, 107
3, 39359, Note_on_c, 1, 74, 0
3, 39360, Note_on_c, 1, 73, 92
3, 39479, Note_on_c, 1, 73, 0
3, 39720, Note_on_c, 1, 69, 94
3, 39720, Lyric_t, "if "
3, 39839, Note_on_c, 1, 69, 0
3, 39840, Note_on_c, 1, 73, 111
3, 39840, Lyric_t, "Sarastro "
3, 40079, Note_on_c, 1, 73, 0
3, 40200, Note_on_c, 1, 73, 102
3, 40200, Lyric_t, "be "
3, 40319, Note_on_c, 1, 73, 0
3, 40320, Note_on_c, 1, 76, 115
3, 40320, Lyric_t, "not "
3, 40559, Note_on_c, 1, 76, 0
3, 40680, Note_on_c, 1, 76, 112
3, 40680, Lyric_t, "destroyed "
3, 40799, Note_on_c, 1, 76, 0
3, 40800, Note_on_c, 1, 79, 126
3, 40800, Lyric_t, "by "
3, 40919, Note_on_c, 1, 79, 0
3, 40920, Note_on_c, 1, 76, 117
3, 40920, Lyric_t, "you! "
3, 41039, Note_on_c, 1, 76, 0
3, 41040, Note_on_c, 1, 73, 112
3, 41159, Note_on_c, 1, 73, 0
3, 41160, Note_on_c, 1, 69, 105
3, 41279, Note_on_c, 1, 69, 0
3, 41280, Note_on_c, 1, 70, 104
3, 41759, Note_on_c, 1, 70, 0
3, 41760, Note_on_c, 1, 69, 104
3, 41879, Note_on_c, 1, 69, 0
3, 42240, Note_on_c, 1, 74, 110
3, 42240, Lyric_t, "Heed, "
3, 42479, Note_on_c, 1, 74, 0
3, 42720, Note_on_c, 1, 77, 119
3, 42720, Lyric_t, "Heed, "
3, 42959, Note_on_c, 1, 77, 0
3, 43200, Note_on_c, 1, 82, 127
3, 43200, Lyric_t, "Heed "
3, 44399, Note_on_c, 1, 82, 0
3, 44400, Note_on_c, 1, 79, 118
3, 44400, Lyric_t, "gods "
3, 44579, Note_on_c, 1, 79, 0
3, 44580, Note_on_c, 1, 75, 108
3, 44580, Lyric_t, "of "
3, 44639, Note_on_c, 1, 75, 0
3, 44640, Note_on_c, 1, 73, 103
3, 44640, Lyric_t, "vengeance! "
3, 44759, Note_on_c, 1, 73, 0
3, 44760, Note_on_c, 1, 73, 101
3, 44879, Note_on_c, 1, 73, 0
3, 45120, Note_on_c, 1, 77, 118
3, 45120, Lyric_t, "Heed "
3, 45599, Note_on_c, 1, 77, 0
3, 45720, Note_on_c, 1, 74, 113
3, 45720, Lyric_t, "a "
3, 45839, Note_on_c, 1, 74, 0
3, 45840, Note_on_c, 1, 73, 107
3, 45840, Lyric_t, "mother's "
3, 46019, Note_on_c, 1, 73, 0
3, 46020, Note_on_c, 1, 74, 100
3, 46020, Lyric_t, "oath! "
3, 46079, Note_on_c, 1, 74, 0
3, 46080, Note_on_c, 1, 69, 100
3, 46319, Note_on_c, 1, 69, 0
3, 46319, End_track
4, 0, Start_track
4, 0, MIDI_port, 0
4, 0, Title_t, "Flute"
4, 123, Control_c, 2, 11, 127
4, 124, Control_c, 2, 91, 45
4, 125, Control_c, 2, 93, 5
4, 126, Control_c, 2, 99, 1
4, 126, Control_c, 2, 98, 32
4, 126, Control_c, 2, 6, 60
4, 126, Control_c, 2, 38, 0
4, 127, Control_c, 2, 99, 1
4, 127, Control_c, 2, 98, 33
4, 127, Control_c, 2, 6, 58
4, 127, Control_c, 2, 38, 0
4, 128, Control_c, 2, 99, 1
4, 128, Control_c, 2, 98, 99
4, 128, Control_c, 2, 6, 64
4, 128, Control_c, 2, 38, 0
4, 129, Control_c, 2, 99, 1
4, 129, Control_c, 2, 98, 8
4, 129, Control_c, 2, 6, 65
4, 129, Control_c, 2, 38, 0
4, 130, Control_c, 2, 0, 0
4, 130, Control_c, 2, 99, 1
4, 130, Control_c, 2, 98, 9
4, 130, Control_c, 2, 6, 69
4, 130, Control_c, 2, 38, 0
4, 131, Control_c, 2, 99, 1
4, 131, Control_c, 2, 98, 10
4, 131, Control_c, 2, 6, 54
4, 131, Control_c, 2, 38, 0
4, 132, Program_c, 2, 73
4, 133, Control_c, 2, 7, 70
4, 133, Control_c, 2, 10, 60
4, 960, Note_on_c, 2, 86, 123
4, 960, Control_c, 2, 11, 127
4, 965, Control_c, 2, 11, 126
4, 970, Control_c, 2, 11, 125
4, 975, Control_c, 2, 11, 124
4, 980, Control_c, 2, 11, 122
4, 985, Control_c, 2, 11, 121
4, 990, Control_c, 2, 11, 120
4, 995, Control_c, 2, 11, 118
4, 1000, Control_c, 2, 11, 117
4, 1005, Control_c, 2, 11, 116
4, 1010, Control_c, 2, 11, 114
4, 1015, Control_c, 2, 11, 113
4, 1020, Control_c, 2, 11, 112
4, 1025, Control_c, 2, 11, 110
4, 1030, Control_c, 2, 11, 109
4, 1035, Control_c, 2, 11, 108
4, 1040, Control_c, 2, 11, 106
4, 1045, Control_c, 2, 11, 105
4, 1050, Control_c, 2, 11, 104
4, 1055, Control_c, 2, 11, 103
4, 1060, Control_c, 2, 11, 101
4, 1065, Control_c, 2, 11, 100
4, 1070, Control_c, 2, 11, 99
4, 1075, Control_c, 2, 11, 97
4, 1080, Control_c, 2, 11, 96
4, 1085, Control_c, 2, 11, 95
4, 1090, Control_c, 2, 11, 93
4, 1095, Control_c, 2, 11, 92
4, 1100, Control_c, 2, 11, 91
4, 1105, Control_c, 2, 11, 89
4, 1110, Control_c, 2, 11, 88
4, 1115, Control_c, 2, 11, 87
4, 1120, Control_c, 2, 11, 85
4, 1125, Control_c, 2, 11, 84
4, 1130, Control_c, 2, 11, 83
4, 1135, Control_c, 2, 11, 82
4, 1140, Control_c, 2, 11, 80
4, 1145, Control_c, 2, 11, 79
4, 1150, Control_c, 2, 11, 78
4, 1155, Control_c, 2, 11, 76
4, 1160, Control_c, 2, 11, 75
4, 1165, Control_c, 2, 11, 74
4, 1170, Control_c, 2, 11, 72
4, 1175, Control_c, 2, 11, 71
4, 1180, Control_c, 2, 11, 70
4, 1185, Control_c, 2, 11, 68
4, 1190, Control_c, 2, 11, 67
4, 1195, Control_c, 2, 11, 66
4, 1200, Control_c, 2, 11, 64
4, 1439, Note_on_c, 2, 86, 0
4, 1440, Control_c, 2, 11, 127
4, 2160, Note_on_c, 2, 81, 127
4, 2160, Note_on_c, 2, 77, 127
4, 2399, Note_on_c, 2, 77, 0
4, 2399, Note_on_c, 2, 81, 0
4, 2640, Note_on_c, 2, 85, 127
4, 2640, Note_on_c, 2, 82, 127
4, 2879, Note_on_c, 2, 82, 0
4, 2879, Note_on_c, 2, 85, 0
4, 3120, Note_on_c, 2, 81, 127
4, 3120, Note_on_c, 2, 86, 127
4, 3359, Note_on_c, 2, 86, 0
4, 3359, Note_on_c, 2, 81, 0
4, 4920, Note_on_c, 2, 84, 127
4, 5039, Note_on_c, 2, 84, 0
4, 5040, Note_on_c, 2, 83, 120
4, 5040, Note_on_c, 2, 86, 121
4, 5159, Note_on_c, 2, 86, 0
4, 5159, Note_on_c, 2, 83, 0
4, 5160, Note_on_c, 2, 82, 122
4, 5160, Note_on_c, 2, 88, 122
4, 5279, Note_on_c, 2, 88, 0
4, 5279, Note_on_c, 2, 82, 0
4, 5280, Note_on_c, 2, 89, 127
4, 5280, Note_on_c, 2, 81, 127
4, 5399, Note_on_c, 2, 81, 0
4, 5399, Note_on_c, 2, 89, 0
4, 6840, Note_on_c, 2, 82, 100
4, 6840, Note_on_c, 2, 86, 100
4, 7079, Note_on_c, 2, 86, 0
4, 7079, Note_on_c, 2, 82, 0
4, 7080, Note_on_c, 2, 82, 100
4, 7080, Note_on_c, 2, 86, 100
4, 7199, Note_on_c, 2, 86, 0
4, 7199, Note_on_c, 2, 82, 0
4, 7800, Note_on_c, 2, 65, 123
4, 7800, Note_on_c, 2, 69, 123
4, 8039, Note_on_c, 2, 69, 0
4, 8039, Note_on_c, 2, 65, 0
4, 8040, Note_on_c, 2, 69, 100
4, 8040, Note_on_c, 2, 65, 100
4, 8159, Note_on_c, 2, 65, 0
4, 8159, Note_on_c, 2, 69, 0
4, 8160, Note_on_c, 2, 70, 81
4, 8160, Note_on_c, 2, 65, 81
4, 8279, Note_on_c, 2, 65, 0
4, 8279, Note_on_c, 2, 70, 0
4, 12060, Note_on_c, 2, 84, 80
4, 12060, Note_on_c, 2, 79, 80
4, 12119, Note_on_c, 2, 79, 0
4, 12119, Note_on_c, 2, 84, 0
4, 12120, Note_on_c, 2, 79, 80
4, 12120, Note_on_c, 2, 84, 80
4, 12179, Note_on_c, 2, 84, 0
4, 12179, Note_on_c, 2, 79, 0
4, 12180, Note_on_c, 2, 84, 79
4, 12180, Note_on_c, 2, 79, 79
4, 12239, Note_on_c, 2, 79, 0
4, 12239, Note_on_c, 2, 84, 0
4, 12240, Note_on_c, 2, 79, 79
4, 12240, Note_on_c, 2, 84, 79
4, 12299, Note_on_c, 2, 84, 0
4, 12299, Note_on_c, 2, 79, 0
4, 12300, Note_on_c, 2, 84, 79
4, 12300, Note_on_c, 2, 79, 79
4, 12359, Note_on_c, 2, 79, 0
4, 12359, Note_on_c, 2, 84, 0
4, 12360, Note_on_c, 2, 84, 79
4, 12360, Note_on_c, 2, 79, 79
4, 12419, Note_on_c, 2, 79, 0
4, 12419, Note_on_c, 2, 84, 0
4, 12420, Note_on_c, 2, 79, 79
4, 12420, Note_on_c, 2, 84, 79
4, 12479, Note_on_c, 2, 84, 0
4, 12479, Note_on_c, 2, 79, 0
4, 12480, Note_on_c, 2, 81, 79
4, 12480, Note_on_c, 2, 89, 79
4, 12719, Note_on_c, 2, 89, 0
4, 12719, Note_on_c, 2, 81, 0
4, 13020, Note_on_c, 2, 76, 79
4, 13020, Note_on_c, 2, 81, 79
4, 13079, Note_on_c, 2, 81, 0
4, 13079, Note_on_c, 2, 76, 0
4, 13080, Note_on_c, 2, 76, 79
4, 13080, Note_on_c, 2, 81, 79
4, 13139, Note_on_c, 2, 81, 0
4, 13139, Note_on_c, 2, 76, 0
4, 13140, Note_on_c, 2, 76, 78
4, 13140, Note_on_c, 2, 81, 78
4, 13199, Note_on_c, 2, 81, 0
4, 13199, Note_on_c, 2, 76, 0
4, 13200, Note_on_c, 2, 76, 79
4, 13200, Note_on_c, 2, 81, 79
4, 13259, Note_on_c, 2, 81, 0
4, 13259, Note_on_c, 2, 76, 0
4, 13260, Note_on_c, 2, 81, 79
4, 13260, Note_on_c, 2, 76, 79
4, 13319, Note_on_c, 2, 76, 0
4, 13319, Note_on_c, 2, 81, 0
4, 13320, Note_on_c, 2, 76, 79
4, 13320, Note_on_c, 2, 81, 79
4, 13379, Note_on_c, 2, 81, 0
4, 13379, Note_on_c, 2, 76, 0
4, 13380, Note_on_c, 2, 76, 80
4, 13380, Note_on_c, 2, 81, 80
4, 13439, Note_on_c, 2, 81, 0
4, 13439, Note_on_c, 2, 76, 0
4, 13440, Note_on_c, 2, 77, 80
4, 13440, Note_on_c, 2, 86, 80
4, 13679, Note_on_c, 2, 86, 0
4, 13679, Note_on_c, 2, 77, 0
4, 14640, Note_on_c, 2, 84, 79
4, 14640, Note_on_c, 2, 81, 79
4, 14699, Note_on_c, 2, 81, 0
4, 14699, Note_on_c, 2, 84, 0
4, 14760, Note_on_c, 2, 82, 79
4, 14760, Note_on_c, 2, 86, 79
4, 14819, Note_on_c, 2, 86, 0
4, 14819, Note_on_c, 2, 82, 0
4, 14880, Note_on_c, 2, 84, 79
4, 14880, Note_on_c, 2, 81, 79
4, 14999, Note_on_c, 2, 81, 0
4, 14999, Note_on_c, 2, 84, 0
4, 15120, Note_on_c, 2, 84, 79
4, 15120, Note_on_c, 2, 81, 79
4, 15179, Note_on_c, 2, 81, 0
4, 15179, Note_on_c, 2, 84, 0
4, 15240, Note_on_c, 2, 82, 79
4, 15240, Note_on_c, 2, 86, 79
4, 15299, Note_on_c, 2, 86, 0
4, 15299, Note_on_c, 2, 82, 0
4, 15360, Note_on_c, 2, 84, 79
4, 15360, Note_on_c, 2, 81, 79
4, 15479, Note_on_c, 2, 81, 0
4, 15479, Note_on_c, 2, 84, 0
4, 17340, Note_on_c, 2, 84, 79
4, 17340, Note_on_c, 2, 79, 79
4, 17399, Note_on_c, 2, 79, 0
4, 17399, Note_on_c, 2, 84, 0
4, 17400, Note_on_c, 2, 79, 80
4, 17400, Note_on_c, 2, 84, 80
4, 17459, Note_on_c, 2, 84, 0
4, 17459, Note_on_c, 2, 79, 0
4, 17460, Note_on_c, 2, 79, 80
4, 17460, Note_on_c, 2, 84, 80
4, 17519, Note_on_c, 2, 84, 0
4, 17519, Note_on_c, 2, 79, 0
4, 17520, Note_on_c, 2, 79, 80
4, 17520, Note_on_c, 2, 84, 80
4, 17579, Note_on_c, 2, 84, 0
4, 17579, Note_on_c, 2, 79, 0
4, 17580, Note_on_c, 2, 79, 80
4, 17580, Note_on_c, 2, 84, 80
4, 17639, Note_on_c, 2, 84, 0
4, 17639, Note_on_c, 2, 79, 0
4, 17640, Note_on_c, 2, 79, 80
4, 17640, Note_on_c, 2, 84, 80
4, 17699, Note_on_c, 2, 84, 0
4, 17699, Note_on_c, 2, 79, 0
4, 17700, Note_on_c, 2, 79, 79
4, 17700, Note_on_c, 2, 84, 79
4, 17759, Note_on_c, 2, 84, 0
4, 17759, Note_on_c, 2, 79, 0
4, 17760, Note_on_c, 2, 81, 79
4, 17760, Note_on_c, 2, 89, 79
4, 17999, Note_on_c, 2, 89, 0
4, 17999, Note_on_c, 2, 81, 0
4, 18300, Note_on_c, 2, 76, 80
4, 18300, Note_on_c, 2, 81, 80
4, 18359, Note_on_c, 2, 81, 0
4, 18359, Note_on_c, 2, 76, 0
4, 18360, Note_on_c, 2, 76, 79
4, 18360, Note_on_c, 2, 81, 79
4, 18419, Note_on_c, 2, 81, 0
4, 18419, Note_on_c, 2, 76, 0
4, 18420, Note_on_c, 2, 76, 80
4, 18420, Note_on_c, 2, 81, 80
4, 18479, Note_on_c, 2, 81, 0
4, 18479, Note_on_c, 2, 76, 0
4, 18480, Note_on_c, 2, 76, 80
4, 18480, Note_on_c, 2, 81, 80
4, 18539, Note_on_c, 2, 81, 0
4, 18539, Note_on_c, 2, 76, 0
4, 18540, Note_on_c, 2, 81, 80
4, 18540, Note_on_c, 2, 76, 80
4, 18599, Note_on_c, 2, 76, 0
4, 18599, Note_on_c, 2, 81, 0
4, 18600, Note_on_c, 2, 76, 80
4, 18600, Note_on_c, 2, 81, 80
4, 18659, Note_on_c, 2, 81, 0
4, 18659, Note_on_c, 2, 76, 0
4, 18660, Note_on_c, 2, 76, 81
4, 18660, Note_on_c, 2, 81, 81
4, 18719, Note_on_c, 2, 81, 0
4, 18719, Note_on_c, 2, 76, 0
4, 18720, Note_on_c, 2, 77, 81
4, 18720, Note_on_c, 2, 86, 81
4, 18959, Note_on_c, 2, 86, 0
4, 18959, Note_on_c, 2, 77, 0
4, 19920, Note_on_c, 2, 84, 81
4, 19920, Note_on_c, 2, 81, 81
4, 19979, Note_on_c, 2, 81, 0
4, 19979, Note_on_c, 2, 84, 0
4, 20040, Note_on_c, 2, 82, 81
4, 20040, Note_on_c, 2, 86, 81
4, 20099, Note_on_c, 2, 86, 0
4, 20099, Note_on_c, 2, 82, 0
4, 20160, Note_on_c, 2, 84, 81
4, 20160, Note_on_c, 2, 81, 81
4, 20279, Note_on_c, 2, 81, 0
4, 20279, Note_on_c, 2, 84, 0
4, 20400, Note_on_c, 2, 84, 81
4, 20400, Note_on_c, 2, 81, 81
4, 20459, Note_on_c, 2, 81, 0
4, 20459, Note_on_c, 2, 84, 0
4, 20520, Note_on_c, 2, 82, 81
4, 20520, Note_on_c, 2, 86, 81
4, 20579, Note_on_c, 2, 86, 0
4, 20579, Note_on_c, 2, 82, 0
4, 20640, Note_on_c, 2, 84, 81
4, 20640, Note_on_c, 2, 81, 81
4, 20759, Note_on_c, 2, 81, 0
4, 20759, Note_on_c, 2, 84, 0
4, 21600, Note_on_c, 2, 81, 113
4, 21600, Note_on_c, 2, 84, 113
4, 22199, Note_on_c, 2, 84, 0
4, 22199, Note_on_c, 2, 81, 0
4, 22200, Note_on_c, 2, 81, 111
4, 22289, Note_on_c, 2, 81, 0
4, 22290, Note_on_c, 2, 81, 112
4, 22319, Note_on_c, 2, 81, 0
4, 22320, Note_on_c, 2, 79, 111
4, 22320, Note_on_c, 2, 84, 111
4, 22439, Note_on_c, 2, 84, 0
4, 22439, Note_on_c, 2, 79, 0
4, 22440, Note_on_c, 2, 84, 109
4, 22440, Note_on_c, 2, 79, 109
4, 22529, Note_on_c, 2, 79, 0
4, 22529, Note_on_c, 2, 84, 0
4, 22530, Note_on_c, 2, 84, 109
4, 22530, Note_on_c, 2, 79, 109
4, 22559, Note_on_c, 2, 79, 0
4, 22559, Note_on_c, 2, 84, 0
4, 22560, Note_on_c, 2, 77, 109
4, 22679, Note_on_c, 2, 77, 0
4, 22920, Note_on_c, 2, 82, 111
4, 22920, Note_on_c, 2, 88, 111
4, 23039, Note_on_c, 2, 88, 0
4, 23039, Note_on_c, 2, 82, 0
4, 23040, Note_on_c, 2, 81, 111
4, 23040, Note_on_c, 2, 89, 111
4, 23159, Note_on_c, 2, 89, 0
4, 23159, Note_on_c, 2, 81, 0
4, 23400, Note_on_c, 2, 82, 111
4, 23400, Note_on_c, 2, 88, 111
4, 23519, Note_on_c, 2, 88, 0
4, 23519, Note_on_c, 2, 82, 0
4, 23520, Note_on_c, 2, 81, 110
4, 23520, Note_on_c, 2, 89, 110
4, 23639, Note_on_c, 2, 89, 0
4, 23639, Note_on_c, 2, 81, 0
4, 23640, Note_on_c, 2, 86, 109
4, 23699, Note_on_c, 2, 86, 0
4, 23700, Note_on_c, 2, 89, 110
4, 23759, Note_on_c, 2, 89, 0
4, 23760, Note_on_c, 2, 82, 108
4, 23819, Note_on_c, 2, 82, 0
4, 23820, Note_on_c, 2, 86, 108
4, 23879, Note_on_c, 2, 86, 0
4, 23880, Note_on_c, 2, 79, 109
4, 23939, Note_on_c, 2, 79, 0
4, 23940, Note_on_c, 2, 82, 109
4, 23999, Note_on_c, 2, 82, 0
4, 24000, Note_on_c, 2, 76, 109
4, 24119, Note_on_c, 2, 76, 0
4, 24120, Note_on_c, 2, 84, 109
4, 24120, Note_on_c, 2, 81, 109
4, 24239, Note_on_c, 2, 81, 0
4, 24239, Note_on_c, 2, 84, 0
4, 24240, Note_on_c, 2, 82, 109
4, 24240, Note_on_c, 2, 79, 109
4, 24359, Note_on_c, 2, 79, 0
4, 24359, Note_on_c, 2, 82, 0
4, 24360, Note_on_c, 2, 76, 108
4, 24360, Note_on_c, 2, 79, 108
4, 24479, Note_on_c, 2, 79, 0
4, 24479, Note_on_c, 2, 76, 0
4, 24480, Note_on_c, 2, 77, 108
4, 24599, Note_on_c, 2, 77, 0
4, 24960, Note_on_c, 2, 89, 118
4, 24960, Note_on_c, 2, 77, 118
4, 25439, Note_on_c, 2, 77, 0
4, 25439, Note_on_c, 2, 89, 0
4, 25920, Note_on_c, 2, 89, 116
4, 25920, Note_on_c, 2, 77, 116
4, 26399, Note_on_c, 2, 77, 0
4, 26399, Note_on_c, 2, 89, 0
4, 26880, Note_on_c, 2, 89, 118
4, 26880, Note_on_c, 2, 77, 118
4, 27359, Note_on_c, 2, 77, 0
4, 27359, Note_on_c, 2, 89, 0
4, 27840, Note_on_c, 2, 89, 119
4, 27840, Note_on_c, 2, 77, 119
4, 28319, Note_on_c, 2, 77, 0
4, 28319, Note_on_c, 2, 89, 0
4, 28320, Note_on_c, 2, 87, 113
4, 28559, Note_on_c, 2, 87, 0
4, 28560, Note_on_c, 2, 84, 111
4, 28799, Note_on_c, 2, 84, 0
4, 28800, Note_on_c, 2, 81, 113
4, 29039, Note_on_c, 2, 81, 0
4, 29040, Note_on_c, 2, 86, 109
4, 29279, Note_on_c, 2, 86, 0
4, 29280, Note_on_c, 2, 79, 114
4, 29399, Note_on_c, 2, 79, 0
4, 29760, Note_on_c, 2, 91, 117
4, 29760, Note_on_c, 2, 79, 117
4, 30239, Note_on_c, 2, 79, 0
4, 30239, Note_on_c, 2, 91, 0
4, 30720, Note_on_c, 2, 91, 119
4, 30720, Note_on_c, 2, 79, 119
4, 31199, Note_on_c, 2, 79, 0
4, 31199, Note_on_c, 2, 91, 0
4, 31200, Note_on_c, 2, 89, 113
4, 31439, Note_on_c, 2, 89, 0
4, 31440, Note_on_c, 2, 86, 87
4, 31679, Note_on_c, 2, 86, 0
4, 31680, Note_on_c, 2, 83, 85
4, 31919, Note_on_c, 2, 83, 0
4, 31920, Note_on_c, 2, 88, 85
4, 32159, Note_on_c, 2, 88, 0
4, 32160, Note_on_c, 2, 81, 84
4, 32279, Note_on_c, 2, 81, 0
4, 32280, Note_on_c, 2, 81, 119
4, 32519, Note_on_c, 2, 81, 0
4, 32520, Note_on_c, 2, 81, 109
4, 32639, Note_on_c, 2, 81, 0
4, 37020, Note_on_c, 2, 74, 91
4, 37079, Note_on_c, 2, 74, 0
4, 37080, Note_on_c, 2, 77, 91
4, 37139, Note_on_c, 2, 77, 0
4, 37140, Note_on_c, 2, 81, 91
4, 37199, Note_on_c, 2, 81, 0
4, 37200, Note_on_c, 2, 86, 90
4, 37259, Note_on_c, 2, 86, 0
4, 37260, Note_on_c, 2, 81, 90
4, 37319, Note_on_c, 2, 81, 0
4, 37320, Note_on_c, 2, 86, 90
4, 37379, Note_on_c, 2, 86, 0
4, 37380, Note_on_c, 2, 84, 89
4, 37439, Note_on_c, 2, 84, 0
4, 37440, Note_on_c, 2, 82, 88
4, 37499, Note_on_c, 2, 82, 0
4, 37500, Note_on_c, 2, 79, 88
4, 37559, Note_on_c, 2, 79, 0
4, 37560, Note_on_c, 2, 84, 89
4, 37619, Note_on_c, 2, 84, 0
4, 37620, Note_on_c, 2, 82, 91
4, 37679, Note_on_c, 2, 82, 0
4, 37680, Note_on_c, 2, 81, 91
4, 37739, Note_on_c, 2, 81, 0
4, 37740, Note_on_c, 2, 77, 91
4, 37799, Note_on_c, 2, 77, 0
4, 37800, Note_on_c, 2, 82, 91
4, 37859, Note_on_c, 2, 82, 0
4, 37860, Note_on_c, 2, 81, 92
4, 37919, Note_on_c, 2, 81, 0
4, 37920, Note_on_c, 2, 79, 92
4, 37979, Note_on_c, 2, 79, 0
4, 37980, Note_on_c, 2, 76, 91
4, 38039, Note_on_c, 2, 76, 0
4, 38040, Note_on_c, 2, 81, 91
4, 38099, Note_on_c, 2, 81, 0
4, 38100, Note_on_c, 2, 79, 91
4, 38159, Note_on_c, 2, 79, 0
4, 38160, Note_on_c, 2, 77, 91
4, 38219, Note_on_c, 2, 77, 0
4, 38220, Note_on_c, 2, 81, 92
4, 38279, Note_on_c, 2, 81, 0
4, 38280, Note_on_c, 2, 74, 93
4, 38339, Note_on_c, 2, 74, 0
4, 38340, Note_on_c, 2, 77, 92
4, 38399, Note_on_c, 2, 77, 0
4, 38400, Note_on_c, 2, 75, 92
4, 39239, Note_on_c, 2, 75, 0
4, 39240, Note_on_c, 2, 74, 103
4, 39359, Note_on_c, 2, 74, 0
4, 39360, Note_on_c, 2, 73, 113
4, 39479, Note_on_c, 2, 73, 0
4, 39480, Note_on_c, 2, 81, 120
4, 39480, Note_on_c, 2, 76, 120
4, 39599, Note_on_c, 2, 76, 0
4, 39599, Note_on_c, 2, 81, 0
4, 39600, Note_on_c, 2, 81, 123
4, 39600, Note_on_c, 2, 76, 123
4, 39719, Note_on_c, 2, 76, 0
4, 39719, Note_on_c, 2, 81, 0
4, 39960, Note_on_c, 2, 85, 125
4, 39960, Note_on_c, 2, 81, 125
4, 40079, Note_on_c, 2, 81, 0
4, 40079, Note_on_c, 2, 85, 0
4, 40080, Note_on_c, 2, 85, 125
4, 40080, Note_on_c, 2, 81, 125
4, 40199, Note_on_c, 2, 81, 0
4, 40199, Note_on_c, 2, 85, 0
4, 40440, Note_on_c, 2, 85, 127
4, 40440, Note_on_c, 2, 88, 127
4, 40559, Note_on_c, 2, 88, 0
4, 40559, Note_on_c, 2, 85, 0
4, 40560, Note_on_c, 2, 85, 126
4, 40560, Note_on_c, 2, 88, 126
4, 40679, Note_on_c, 2, 88, 0
4, 40679, Note_on_c, 2, 85, 0
4, 41400, Note_on_c, 2, 82, 122
4, 41639, Note_on_c, 2, 82, 0
4, 41640, Note_on_c, 2, 82, 120
4, 41759, Note_on_c, 2, 82, 0
4, 41760, Note_on_c, 2, 81, 119
4, 41999, Note_on_c, 2, 81, 0
4, 42480, Note_on_c, 2, 86, 121
4, 42719, Note_on_c, 2, 86, 0
4, 42960, Note_on_c, 2, 89, 119
4, 43199, Note_on_c, 2, 89, 0
4, 43440, Note_on_c, 2, 89, 120
4, 43440, Note_on_c, 2, 86, 120
4, 43679, Note_on_c, 2, 86, 0
4, 43679, Note_on_c, 2, 89, 0
4, 43680, Note_on_c, 2, 87, 122
4, 43680, Note_on_c, 2, 91, 122
4, 43799, Note_on_c, 2, 91, 0
4, 43799, Note_on_c, 2, 87, 0
4, 43800, Note_on_c, 2, 89, 124
4, 43800, Note_on_c, 2, 86, 124
4, 43919, Note_on_c, 2, 86, 0
4, 43919, Note_on_c, 2, 89, 0
4, 43920, Note_on_c, 2, 87, 124
4, 43920, Note_on_c, 2, 91, 124
4, 44039, Note_on_c, 2, 91, 0
4, 44039, Note_on_c, 2, 87, 0
4, 44040, Note_on_c, 2, 86, 124
4, 44040, Note_on_c, 2, 89, 124
4, 44159, Note_on_c, 2, 89, 0
4, 44159, Note_on_c, 2, 86, 0
4, 44160, Note_on_c, 2, 87, 124
4, 44160, Note_on_c, 2, 91, 124
4, 44279, Note_on_c, 2, 91, 0
4, 44279, Note_on_c, 2, 87, 0
4, 44850, Note_on_c, 2, 85, 123
4, 44850, Note_on_c, 2, 88, 123
4, 44879, Note_on_c, 2, 88, 0
4, 44879, Note_on_c, 2, 85, 0
4, 44880, Note_on_c, 2, 85, 123
4, 44880, Note_on_c, 2, 88, 123
4, 44999, Note_on_c, 2, 88, 0
4, 44999, Note_on_c, 2, 85, 0
4, 45090, Note_on_c, 2, 89, 123
4, 45090, Note_on_c, 2, 86, 123
4, 45119, Note_on_c, 2, 86, 0
4, 45119, Note_on_c, 2, 89, 0
4, 45120, Note_on_c, 2, 86, 123
4, 45120, Note_on_c, 2, 89, 123
4, 45359, Note_on_c, 2, 89, 0
4, 45359, Note_on_c, 2, 86, 0
4, 46320, Note_on_c, 2, 85, 122
4, 46559, Note_on_c, 2, 85, 0
4, 46560, Note_on_c, 2, 86, 126
4, 46619, Note_on_c, 2, 86, 0
4, 46620, Note_on_c, 2, 85, 126
4, 46679, Note_on_c, 2, 85, 0
4, 46680, Note_on_c, 2, 86, 126
4, 46739, Note_on_c, 2, 86, 0
4, 46740, Note_on_c, 2, 88, 126
4, 46799, Note_on_c, 2, 88, 0
4, 46800, Note_on_c, 2, 89, 126
4, 46859, Note_on_c, 2, 89, 0
4, 46860, Note_on_c, 2, 90, 127
4, 46919, Note_on_c, 2, 90, 0
4, 46920, Note_on_c, 2, 91, 127
4, 46979, Note_on_c, 2, 91, 0
4, 46980, Note_on_c, 2, 92, 127
4, 47039, Note_on_c, 2, 92, 0
4, 47040, Note_on_c, 2, 93, 127
4, 47159, Note_on_c, 2, 93, 0
4, 47280, Note_on_c, 2, 81, 127
4, 47399, Note_on_c, 2, 81, 0
4, 47520, Note_on_c, 2, 81, 127
4, 47520, Note_on_c, 2, 86, 127
4, 47759, Note_on_c, 2, 86, 0
4, 47759, Note_on_c, 2, 81, 0
4, 47759, End_track
5, 0, Start_track
5, 0, MIDI_port, 0
5, 0, Title_t, "Hautbois"
5, 135, Control_c, 3, 0, 0
5, 136, Control_c, 3, 11, 127
5, 137, Program_c, 3, 68
5, 137, Control_c, 3, 91, 60
5, 138, Control_c, 3, 7, 62
5, 138, Control_c, 3, 10, 68
5, 138, Control_c, 3, 93, 20
5, 139, Control_c, 3, 99, 1
5, 139, Control_c, 3, 98, 32
5, 139, Control_c, 3, 6, 55
5, 139, Control_c, 3, 38, 0
5, 140, Control_c, 3, 99, 1
5, 140, Control_c, 3, 98, 33
5, 140, Control_c, 3, 6, 55
5, 140, Control_c, 3, 38, 0
5, 141, Control_c, 3, 99, 1
5, 141, Control_c, 3, 98, 99
5, 141, Control_c, 3, 6, 64
5, 141, Control_c, 3, 38, 0
5, 960, Note_on_c, 3, 81, 120
5, 960, Note_on_c, 3, 77, 120
5, 960, Control_c, 3, 11, 127
5, 965, Control_c, 3, 11, 126
5, 970, Control_c, 3, 11, 125
5, 975, Control_c, 3, 11, 123
5, 980, Control_c, 3, 11, 122
5, 985, Control_c, 3, 11, 121
5, 990, Control_c, 3, 11, 119
5, 995, Control_c, 3, 11, 118
5, 1000, Control_c, 3, 11, 117
5, 1005, Control_c, 3, 11, 115
5, 1010, Control_c, 3, 11, 114
5, 1015, Control_c, 3, 11, 113
5, 1020, Control_c, 3, 11, 111
5, 1025, Control_c, 3, 11, 110
5, 1030, Control_c, 3, 11, 109
5, 1035, Control_c, 3, 11, 107
5, 1040, Control_c, 3, 11, 106
5, 1045, Control_c, 3, 11, 105
5, 1050, Control_c, 3, 11, 103
5, 1055, Control_c, 3, 11, 102
5, 1060, Control_c, 3, 11, 101
5, 1065, Control_c, 3, 11, 99
5, 1070, Control_c, 3, 11, 98
5, 1075, Control_c, 3, 11, 97
5, 1080, Control_c, 3, 11, 95
5, 1085, Control_c, 3, 11, 94
5, 1090, Control_c, 3, 11, 93
5, 1095, Control_c, 3, 11, 91
5, 1100, Control_c, 3, 11, 90
5, 1105, Control_c, 3, 11, 89
5, 1110, Control_c, 3, 11, 87
5, 1115, Control_c, 3, 11, 86
5, 1120, Control_c, 3, 11, 85
5, 1125, Control_c, 3, 11, 83
5, 1130, Control_c, 3, 11, 82
5, 1135, Control_c, 3, 11, 81
5, 1140, Control_c, 3, 11, 79
5, 1145, Control_c, 3, 11, 78
5, 1150, Control_c, 3, 11, 77
5, 1155, Control_c, 3, 11, 75
5, 1160, Control_c, 3, 11, 74
5, 1165, Control_c, 3, 11, 73
5, 1170, Control_c, 3, 11, 71
5, 1175, Control_c, 3, 11, 70
5, 1180, Control_c, 3, 11, 69
5, 1185, Control_c, 3, 11, 67
5, 1190, Control_c, 3, 11, 66
5, 1195, Control_c, 3, 11, 64
5, 1439, Note_on_c, 3, 77, 0
5, 1439, Note_on_c, 3, 81, 0
5, 1440, Control_c, 3, 11, 127
5, 2160, Note_on_c, 3, 69, 127
5, 2160, Note_on_c, 3, 74, 127
5, 2399, Note_on_c, 3, 74, 0
5, 2399, Note_on_c, 3, 69, 0
5, 2640, Note_on_c, 3, 73, 127
5, 2640, Note_on_c, 3, 79, 127
5, 2879, Note_on_c, 3, 79, 0
5, 2879, Note_on_c, 3, 73, 0
5, 3120, Note_on_c, 3, 77, 127
5, 3120, Note_on_c, 3, 74, 127
5, 3359, Note_on_c, 3, 74, 0
5, 3359, Note_on_c, 3, 77, 0
5, 4920, Note_on_c, 3, 72, 102
5, 5039, Note_on_c, 3, 72, 0
5, 5040, Note_on_c, 3, 71, 120
5, 5040, Note_on_c, 3, 74, 120
5, 5159, Note_on_c, 3, 74, 0
5, 5159, Note_on_c, 3, 71, 0
5, 5160, Note_on_c, 3, 70, 120
5, 5160, Note_on_c, 3, 76, 120
5, 5279, Note_on_c, 3, 76, 0
5, 5279, Note_on_c, 3, 70, 0
5, 5280, Note_on_c, 3, 77, 127
5, 5280, Note_on_c, 3, 69, 127
5, 5399, Note_on_c, 3, 69, 0
5, 5399, Note_on_c, 3, 77, 0
5, 6840, Note_on_c, 3, 70, 100
5, 6840, Note_on_c, 3, 74, 100
5, 7079, Note_on_c, 3, 74, 0
5, 7079, Note_on_c, 3, 70, 0
5, 7080, Note_on_c, 3, 70, 101
5, 7080, Note_on_c, 3, 74, 100
5, 7199, Note_on_c, 3, 74, 0
5, 7199, Note_on_c, 3, 70, 0
5, 7800, Note_on_c, 3, 69, 122
5, 7800, Note_on_c, 3, 72, 122
5, 8039, Note_on_c, 3, 72, 0
5, 8039, Note_on_c, 3, 69, 0
5, 8040, Note_on_c, 3, 72, 101
5, 8040, Note_on_c, 3, 69, 101
5, 8159, Note_on_c, 3, 69, 0
5, 8159, Note_on_c, 3, 72, 0
5, 8160, Note_on_c, 3, 70, 80
5, 8160, Note_on_c, 3, 74, 80
5, 8279, Note_on_c, 3, 74, 0
5, 8279, Note_on_c, 3, 70, 0
5, 12060, Note_on_c, 3, 76, 81
5, 12119, Note_on_c, 3, 76, 0
5, 12120, Note_on_c, 3, 76, 80
5, 12179, Note_on_c, 3, 76, 0
5, 12180, Note_on_c, 3, 76, 79
5, 12239, Note_on_c, 3, 76, 0
5, 12240, Note_on_c, 3, 76, 79
5, 12299, Note_on_c, 3, 76, 0
5, 12300, Note_on_c, 3, 76, 79
5, 12359, Note_on_c, 3, 76, 0
5, 12360, Note_on_c, 3, 76, 79
5, 12419, Note_on_c, 3, 76, 0
5, 12420, Note_on_c, 3, 76, 79
5, 12479, Note_on_c, 3, 76, 0
5, 12480, Note_on_c, 3, 74, 79
5, 12719, Note_on_c, 3, 74, 0
5, 13020, Note_on_c, 3, 72, 79
5, 13079, Note_on_c, 3, 72, 0
5, 13080, Note_on_c, 3, 72, 79
5, 13139, Note_on_c, 3, 72, 0
5, 13140, Note_on_c, 3, 72, 79
5, 13199, Note_on_c, 3, 72, 0
5, 13200, Note_on_c, 3, 72, 79
5, 13259, Note_on_c, 3, 72, 0
5, 13260, Note_on_c, 3, 72, 79
5, 13319, Note_on_c, 3, 72, 0
5, 13320, Note_on_c, 3, 72, 79
5, 13379, Note_on_c, 3, 72, 0
5, 13380, Note_on_c, 3, 72, 79
5, 13439, Note_on_c, 3, 72, 0
5, 13440, Note_on_c, 3, 70, 79
5, 13679, Note_on_c, 3, 70, 0
5, 14640, Note_on_c, 3, 77, 79
5, 14699, Note_on_c, 3, 77, 0
5, 14760, Note_on_c, 3, 77, 79
5, 14819, Note_on_c, 3, 77, 0
5, 14880, Note_on_c, 3, 77, 79
5, 14999, Note_on_c, 3, 77, 0
5, 15120, Note_on_c, 3, 77, 79
5, 15179, Note_on_c, 3, 77, 0
5, 15240, Note_on_c, 3, 77, 79
5, 15299, Note_on_c, 3, 77, 0
5, 15360, Note_on_c, 3, 77, 79
5, 15479, Note_on_c, 3, 77, 0
5, 17340, Note_on_c, 3, 76, 80
5, 17399, Note_on_c, 3, 76, 0
5, 17400, Note_on_c, 3, 76, 80
5, 17459, Note_on_c, 3, 76, 0
5, 17460, Note_on_c, 3, 76, 80
5, 17519, Note_on_c, 3, 76, 0
5, 17520, Note_on_c, 3, 76, 80
5, 17579, Note_on_c, 3, 76, 0
5, 17580, Note_on_c, 3, 76, 80
5, 17639, Note_on_c, 3, 76, 0
5, 17640, Note_on_c, 3, 76, 80
5, 17699, Note_on_c, 3, 76, 0
5, 17700, Note_on_c, 3, 76, 80
5, 17759, Note_on_c, 3, 76, 0
5, 17760, Note_on_c, 3, 74, 80
5, 17999, Note_on_c, 3, 74, 0
5, 18300, Note_on_c, 3, 72, 80
5, 18359, Note_on_c, 3, 72, 0
5, 18360, Note_on_c, 3, 72, 80
5, 18419, Note_on_c, 3, 72, 0
5, 18420, Note_on_c, 3, 72, 80
5, 18479, Note_on_c, 3, 72, 0
5, 18480, Note_on_c, 3, 72, 80
5, 18539, Note_on_c, 3, 72, 0
5, 18540, Note_on_c, 3, 72, 80
5, 18599, Note_on_c, 3, 72, 0
5, 18600, Note_on_c, 3, 72, 80
5, 18659, Note_on_c, 3, 72, 0
5, 18660, Note_on_c, 3, 72, 80
5, 18719, Note_on_c, 3, 72, 0
5, 18720, Note_on_c, 3, 70, 80
5, 18959, Note_on_c, 3, 70, 0
5, 19920, Note_on_c, 3, 77, 80
5, 19979, Note_on_c, 3, 77, 0
5, 20040, Note_on_c, 3, 77, 80
5, 20099, Note_on_c, 3, 77, 0
5, 20160, Note_on_c, 3, 77, 81
5, 20279, Note_on_c, 3, 77, 0
5, 20400, Note_on_c, 3, 77, 81
5, 20459, Note_on_c, 3, 77, 0
5, 20520, Note_on_c, 3, 77, 81
5, 20579, Note_on_c, 3, 77, 0
5, 20640, Note_on_c, 3, 77, 81
5, 20759, Note_on_c, 3, 77, 0
5, 21600, Note_on_c, 3, 69, 112
5, 21600, Note_on_c, 3, 72, 112
5, 22199, Note_on_c, 3, 72, 0
5, 22199, Note_on_c, 3, 69, 0
5, 22200, Note_on_c, 3, 72, 111
5, 22200, Note_on_c, 3, 77, 111
5, 22289, Note_on_c, 3, 77, 0
5, 22289, Note_on_c, 3, 72, 0
5, 22290, Note_on_c, 3, 72, 112
5, 22290, Note_on_c, 3, 77, 112
5, 22319, Note_on_c, 3, 77, 0
5, 22319, Note_on_c, 3, 72, 0
5, 22320, Note_on_c, 3, 70, 111
5, 22320, Note_on_c, 3, 76, 112
5, 22439, Note_on_c, 3, 76, 0
5, 22439, Note_on_c, 3, 70, 0
5, 22440, Note_on_c, 3, 70, 110
5, 22440, Note_on_c, 3, 76, 110
5, 22529, Note_on_c, 3, 76, 0
5, 22529, Note_on_c, 3, 70, 0
5, 22530, Note_on_c, 3, 70, 109
5, 22530, Note_on_c, 3, 76, 109
5, 22559, Note_on_c, 3, 76, 0
5, 22559, Note_on_c, 3, 70, 0
5, 22560, Note_on_c, 3, 69, 110
5, 22560, Note_on_c, 3, 77, 110
5, 22679, Note_on_c, 3, 77, 0
5, 22679, Note_on_c, 3, 69, 0
5, 22920, Note_on_c, 3, 70, 111
5, 22920, Note_on_c, 3, 79, 110
5, 23039, Note_on_c, 3, 79, 0
5, 23039, Note_on_c, 3, 70, 0
5, 23040, Note_on_c, 3, 69, 110
5, 23040, Note_on_c, 3, 77, 111
5, 23159, Note_on_c, 3, 77, 0
5, 23159, Note_on_c, 3, 69, 0
5, 23400, Note_on_c, 3, 70, 112
5, 23400, Note_on_c, 3, 79, 112
5, 23519, Note_on_c, 3, 79, 0
5, 23519, Note_on_c, 3, 70, 0
5, 23520, Note_on_c, 3, 77, 110
5, 23520, Note_on_c, 3, 69, 110
5, 23639, Note_on_c, 3, 69, 0
5, 23639, Note_on_c, 3, 77, 0
5, 23640, Note_on_c, 3, 74, 109
5, 23699, Note_on_c, 3, 74, 0
5, 23700, Note_on_c, 3, 77, 110
5, 23759, Note_on_c, 3, 77, 0
5, 23760, Note_on_c, 3, 70, 108
5, 23819, Note_on_c, 3, 70, 0
5, 23820, Note_on_c, 3, 74, 109
5, 23879, Note_on_c, 3, 74, 0
5, 23880, Note_on_c, 3, 67, 110
5, 23939, Note_on_c, 3, 67, 0
5, 23940, Note_on_c, 3, 70, 109
5, 23999, Note_on_c, 3, 70, 0
5, 24000, Note_on_c, 3, 64, 110
5, 24119, Note_on_c, 3, 64, 0
5, 24120, Note_on_c, 3, 69, 109
5, 24120, Note_on_c, 3, 72, 110
5, 24239, Note_on_c, 3, 72, 0
5, 24239, Note_on_c, 3, 69, 0
5, 24240, Note_on_c, 3, 70, 109
5, 24240, Note_on_c, 3, 74, 109
5, 24359, Note_on_c, 3, 74, 0
5, 24359, Note_on_c, 3, 70, 0
5, 24360, Note_on_c, 3, 67, 109
5, 24360, Note_on_c, 3, 76, 109
5, 24479, Note_on_c, 3, 76, 0
5, 24479, Note_on_c, 3, 67, 0
5, 24480, Note_on_c, 3, 77, 110
5, 24480, Note_on_c, 3, 69, 110
5, 24599, Note_on_c, 3, 69, 0
5, 24599, Note_on_c, 3, 77, 0
5, 24960, Note_on_c, 3, 77, 115
5, 24960, Note_on_c, 3, 65, 115
5, 25439, Note_on_c, 3, 65, 0
5, 25439, Note_on_c, 3, 77, 0
5, 25920, Note_on_c, 3, 65, 117
5, 25920, Note_on_c, 3, 77, 117
5, 26399, Note_on_c, 3, 77, 0
5, 26399, Note_on_c, 3, 65, 0
5, 26880, Note_on_c, 3, 77, 117
5, 26880, Note_on_c, 3, 65, 117
5, 27359, Note_on_c, 3, 65, 0
5, 27359, Note_on_c, 3, 77, 0
5, 27840, Note_on_c, 3, 65, 119
5, 27840, Note_on_c, 3, 77, 119
5, 28319, Note_on_c, 3, 77, 0
5, 28319, Note_on_c, 3, 65, 0
5, 28320, Note_on_c, 3, 75, 113
5, 28559, Note_on_c, 3, 75, 0
5, 28560, Note_on_c, 3, 72, 111
5, 28799, Note_on_c, 3, 72, 0
5, 28800, Note_on_c, 3, 69, 114
5, 29039, Note_on_c, 3, 69, 0
5, 29040, Note_on_c, 3, 74, 110
5, 29279, Note_on_c, 3, 74, 0
5, 29280, Note_on_c, 3, 67, 113
5, 29399, Note_on_c, 3, 67, 0
5, 29760, Note_on_c, 3, 79, 117
5, 29760, Note_on_c, 3, 67, 117
5, 30239, Note_on_c, 3, 67, 0
5, 30239, Note_on_c, 3, 79, 0
5, 30720, Note_on_c, 3, 79, 118
5, 30720, Note_on_c, 3, 67, 119
5, 31199, Note_on_c, 3, 67, 0
5, 31199, Note_on_c, 3, 79, 0
5, 31200, Note_on_c, 3, 77, 113
5, 31439, Note_on_c, 3, 77, 0
5, 31440, Note_on_c, 3, 74, 87
5, 31679, Note_on_c, 3, 74, 0
5, 31680, Note_on_c, 3, 71, 88
5, 31919, Note_on_c, 3, 71, 0
5, 31920, Note_on_c, 3, 76, 88
5, 32159, Note_on_c, 3, 76, 0
5, 32160, Note_on_c, 3, 69, 88
5, 32279, Note_on_c, 3, 69, 0
5, 32280, Note_on_c, 3, 73, 116
5, 32280, Note_on_c, 3, 76, 116
5, 32519, Note_on_c, 3, 76, 0
5, 32519, Note_on_c, 3, 73, 0
5, 32520, Note_on_c, 3, 73, 110
5, 32520, Note_on_c, 3, 76, 110
5, 32639, Note_on_c, 3, 76, 0
5, 32639, Note_on_c, 3, 73, 0
5, 39480, Note_on_c, 3, 73, 120
5, 39480, Note_on_c, 3, 69, 120
5, 39599, Note_on_c, 3, 69, 0
5, 39599, Note_on_c, 3, 73, 0
5, 39600, Note_on_c, 3, 73, 120
5, 39600, Note_on_c, 3, 69, 120
5, 39719, Note_on_c, 3, 69, 0
5, 39719, Note_on_c, 3, 73, 0
5, 39960, Note_on_c, 3, 73, 123
5, 39960, Note_on_c, 3, 76, 123
5, 40079, Note_on_c, 3, 76, 0
5, 40079, Note_on_c, 3, 73, 0
5, 40080, Note_on_c, 3, 73, 125
5, 40080, Note_on_c, 3, 76, 125
5, 40199, Note_on_c, 3, 76, 0
5, 40199, Note_on_c, 3, 73, 0
5, 40440, Note_on_c, 3, 81, 126
5, 40440, Note_on_c, 3, 76, 126
5, 40559, Note_on_c, 3, 76, 0
5, 40559, Note_on_c, 3, 81, 0
5, 40560, Note_on_c, 3, 81, 126
5, 40560, Note_on_c, 3, 76, 126
5, 40679, Note_on_c, 3, 76, 0
5, 40679, Note_on_c, 3, 81, 0
5, 41400, Note_on_c, 3, 79, 122
5, 41400, Note_on_c, 3, 74, 122
5, 41520, Note_on_c, 3, 74, 0
5, 41520, Note_on_c, 3, 73, 122
5, 41639, Note_on_c, 3, 79, 0
5, 41640, Note_on_c, 3, 73, 0
5, 41640, Note_on_c, 3, 79, 120
5, 41640, Note_on_c, 3, 74, 120
5, 41759, Note_on_c, 3, 74, 0
5, 41759, Note_on_c, 3, 79, 0
5, 41760, Note_on_c, 3, 79, 119
5, 41760, Note_on_c, 3, 76, 120
5, 41999, Note_on_c, 3, 79, 0
5, 42000, Note_on_c, 3, 76, 0
5, 42480, Note_on_c, 3, 74, 120
5, 42719, Note_on_c, 3, 74, 0
5, 42960, Note_on_c, 3, 77, 119
5, 43199, Note_on_c, 3, 77, 0
5, 43440, Note_on_c, 3, 77, 120
5, 43440, Note_on_c, 3, 74, 120
5, 43679, Note_on_c, 3, 74, 0
5, 43679, Note_on_c, 3, 77, 0
5, 43680, Note_on_c, 3, 75, 122
5, 43680, Note_on_c, 3, 79, 122
5, 43799, Note_on_c, 3, 79, 0
5, 43799, Note_on_c, 3, 75, 0
5, 43800, Note_on_c, 3, 77, 124
5, 43800, Note_on_c, 3, 74, 124
5, 43919, Note_on_c, 3, 74, 0
5, 43919, Note_on_c, 3, 77, 0
5, 43920, Note_on_c, 3, 75, 124
5, 43920, Note_on_c, 3, 79, 124
5, 44039, Note_on_c, 3, 79, 0
5, 44039, Note_on_c, 3, 75, 0
5, 44040, Note_on_c, 3, 77, 124
5, 44040, Note_on_c, 3, 74, 124
5, 44159, Note_on_c, 3, 74, 0
5, 44159, Note_on_c, 3, 77, 0
5, 44160, Note_on_c, 3, 75, 124
5, 44160, Note_on_c, 3, 79, 124
5, 44279, Note_on_c, 3, 79, 0
5, 44279, Note_on_c, 3, 75, 0
5, 44850, Note_on_c, 3, 82, 124
5, 44850, Note_on_c, 3, 76, 124
5, 44879, Note_on_c, 3, 76, 0
5, 44879, Note_on_c, 3, 82, 0
5, 44880, Note_on_c, 3, 82, 123
5, 44880, Note_on_c, 3, 76, 123
5, 44999, Note_on_c, 3, 76, 0
5, 44999, Note_on_c, 3, 82, 0
5, 45090, Note_on_c, 3, 83, 123
5, 45090, Note_on_c, 3, 77, 123
5, 45119, Note_on_c, 3, 77, 0
5, 45119, Note_on_c, 3, 83, 0
5, 45120, Note_on_c, 3, 83, 122
5, 45120, Note_on_c, 3, 77, 122
5, 45359, Note_on_c, 3, 77, 0
5, 45359, Note_on_c, 3, 83, 0
5, 46320, Note_on_c, 3, 79, 122
5, 46320, Note_on_c, 3, 76, 122
5, 46559, Note_on_c, 3, 76, 0
5, 46559, Note_on_c, 3, 79, 0
5, 46560, Note_on_c, 3, 77, 126
5, 46560, Note_on_c, 3, 74, 126
5, 46619, Note_on_c, 3, 74, 0
5, 46619, Note_on_c, 3, 77, 0
5, 46620, Note_on_c, 3, 73, 126
5, 46679, Note_on_c, 3, 73, 0
5, 46680, Note_on_c, 3, 74, 126
5, 46739, Note_on_c, 3, 74, 0
5, 46740, Note_on_c, 3, 76, 126
5, 46799, Note_on_c, 3, 76, 0
5, 46800, Note_on_c, 3, 77, 126
5, 46859, Note_on_c, 3, 77, 0
5, 46860, Note_on_c, 3, 78, 127
5, 46919, Note_on_c, 3, 78, 0
5, 46920, Note_on_c, 3, 79, 127
5, 46979, Note_on_c, 3, 79, 0
5, 46980, Note_on_c, 3, 80, 127
5, 47039, Note_on_c, 3, 80, 0
5, 47040, Note_on_c, 3, 81, 127
5, 47159, Note_on_c, 3, 81, 0
5, 47280, Note_on_c, 3, 69, 127
5, 47280, Note_on_c, 3, 81, 127
5, 47399, Note_on_c, 3, 81, 0
5, 47399, Note_on_c, 3, 69, 0
5, 47520, Note_on_c, 3, 77, 127
5, 47520, Note_on_c, 3, 74, 127
5, 47759, Note_on_c, 3, 74, 0
5, 47759, Note_on_c, 3, 77, 0
5, 47759, End_track
6, 0, Start_track
6, 0, MIDI_port, 0
6, 0, Title_t, "Basson"
6, 140, Control_c, 4, 0, 0
6, 142, Program_c, 4, 70
6, 143, Control_c, 4, 7, 62
6, 143, Control_c, 4, 10, 70
6, 146, Control_c, 4, 11, 127
6, 147, Control_c, 4, 91, 45
6, 148, Control_c, 4, 93, 0
6, 149, Control_c, 4, 99, 1
6, 149, Control_c, 4, 98, 32
6, 149, Control_c, 4, 6, 60
6, 149, Control_c, 4, 38, 0
6, 150, Control_c, 4, 99, 1
6, 150, Control_c, 4, 98, 33
6, 150, Control_c, 4, 6, 60
6, 150, Control_c, 4, 38, 0
6, 151, Control_c, 4, 99, 1
6, 151, Control_c, 4, 98, 99
6, 151, Control_c, 4, 6, 64
6, 151, Control_c, 4, 38, 0
6, 152, Control_c, 4, 99, 1
6, 152, Control_c, 4, 98, 8
6, 152, Control_c, 4, 6, 65
6, 152, Control_c, 4, 38, 0
6, 153, Control_c, 4, 99, 1
6, 153, Control_c, 4, 98, 9
6, 153, Control_c, 4, 6, 68
6, 153, Control_c, 4, 38, 0
6, 154, Control_c, 4, 99, 1
6, 154, Control_c, 4, 98, 10
6, 154, Control_c, 4, 6, 54
6, 154, Control_c, 4, 38, 0
6, 960, Note_on_c, 4, 65, 121
6, 960, Note_on_c, 4, 62, 121
6, 960, Control_c, 4, 11, 127
6, 965, Control_c, 4, 11, 126
6, 970, Control_c, 4, 11, 125
6, 975, Control_c, 4, 11, 124
6, 980, Control_c, 4, 11, 122
6, 985, Control_c, 4, 11, 121
6, 990, Control_c, 4, 11, 120
6, 995, Control_c, 4, 11, 118
6, 1000, Control_c, 4, 11, 117
6, 1005, Control_c, 4, 11, 116
6, 1010, Control_c, 4, 11, 114
6, 1015, Control_c, 4, 11, 113
6, 1020, Control_c, 4, 11, 112
6, 1025, Control_c, 4, 11, 110
6, 1030, Control_c, 4, 11, 109
6, 1035, Control_c, 4, 11, 108
6, 1040, Control_c, 4, 11, 106
6, 1045, Control_c, 4, 11, 105
6, 1050, Control_c, 4, 11, 104
6, 1055, Control_c, 4, 11, 103
6, 1060, Control_c, 4, 11, 101
6, 1065, Control_c, 4, 11, 100
6, 1070, Control_c, 4, 11, 99
6, 1075, Control_c, 4, 11, 97
6, 1080, Control_c, 4, 11, 96
6, 1085, Control_c, 4, 11, 95
6, 1090, Control_c, 4, 11, 93
6, 1095, Control_c, 4, 11, 92
6, 1100, Control_c, 4, 11, 91
6, 1105, Control_c, 4, 11, 89
6, 1110, Control_c, 4, 11, 88
6, 1115, Control_c, 4, 11, 87
6, 1120, Control_c, 4, 11, 85
6, 1125, Control_c, 4, 11, 84
6, 1130, Control_c, 4, 11, 83
6, 1135, Control_c, 4, 11, 82
6, 1140, Control_c, 4, 11, 80
6, 1145, Control_c, 4, 11, 79
6, 1150, Control_c, 4, 11, 78
6, 1155, Control_c, 4, 11, 76
6, 1160, Control_c, 4, 11, 75
6, 1165, Control_c, 4, 11, 74
6, 1170, Control_c, 4, 11, 72
6, 1175, Control_c, 4, 11, 71
6, 1180, Control_c, 4, 11, 70
6, 1185, Control_c, 4, 11, 68
6, 1190, Control_c, 4, 11, 67
6, 1195, Control_c, 4, 11, 66
6, 1200, Control_c, 4, 11, 64
6, 1439, Note_on_c, 4, 62, 0
6, 1439, Note_on_c, 4, 65, 0
6, 1440, Control_c, 4, 11, 127
6, 2160, Note_on_c, 4, 57, 127
6, 2160, Note_on_c, 4, 62, 127
6, 2399, Note_on_c, 4, 62, 0
6, 2399, Note_on_c, 4, 57, 0
6, 2640, Note_on_c, 4, 58, 127
6, 2640, Note_on_c, 4, 61, 127
6, 2879, Note_on_c, 4, 61, 0
6, 2879, Note_on_c, 4, 58, 0
6, 3120, Note_on_c, 4, 62, 127
6, 3120, Note_on_c, 4, 65, 127
6, 3359, Note_on_c, 4, 65, 0
6, 3359, Note_on_c, 4, 62, 0
6, 4920, Note_on_c, 4, 60, 100
6, 5039, Note_on_c, 4, 60, 0
6, 5040, Note_on_c, 4, 59, 121
6, 5040, Note_on_c, 4, 62, 121
6, 5159, Note_on_c, 4, 62, 0
6, 5159, Note_on_c, 4, 59, 0
6, 5160, Note_on_c, 4, 58, 121
6, 5160, Note_on_c, 4, 64, 121
6, 5279, Note_on_c, 4, 64, 0
6, 5279, Note_on_c, 4, 58, 0
6, 5280, Note_on_c, 4, 57, 127
6, 5280, Note_on_c, 4, 65, 127
6, 5399, Note_on_c, 4, 65, 0
6, 5399, Note_on_c, 4, 57, 0
6, 6840, Note_on_c, 4, 58, 100
6, 6840, Note_on_c, 4, 67, 100
6, 7079, Note_on_c, 4, 67, 0
6, 7079, Note_on_c, 4, 58, 0
6, 7080, Note_on_c, 4, 58, 101
6, 7080, Note_on_c, 4, 67, 101
6, 7199, Note_on_c, 4, 67, 0
6, 7199, Note_on_c, 4, 58, 0
6, 7800, Note_on_c, 4, 60, 122
6, 7800, Note_on_c, 4, 57, 123
6, 8039, Note_on_c, 4, 57, 0
6, 8039, Note_on_c, 4, 60, 0
6, 8040, Note_on_c, 4, 57, 101
6, 8040, Note_on_c, 4, 60, 102
6, 8159, Note_on_c, 4, 60, 0
6, 8159, Note_on_c, 4, 57, 0
6, 8160, Note_on_c, 4, 58, 80
6, 8160, Note_on_c, 4, 62, 81
6, 8279, Note_on_c, 4, 62, 0
6, 8279, Note_on_c, 4, 58, 0
6, 21600, Note_on_c, 4, 60, 113
6, 22199, Note_on_c, 4, 60, 0
6, 22200, Note_on_c, 4, 60, 111
6, 22289, Note_on_c, 4, 60, 0
6, 22290, Note_on_c, 4, 60, 112
6, 22319, Note_on_c, 4, 60, 0
6, 22320, Note_on_c, 4, 48, 111
6, 22439, Note_on_c, 4, 48, 0
6, 22440, Note_on_c, 4, 48, 110
6, 22529, Note_on_c, 4, 48, 0
6, 22530, Note_on_c, 4, 48, 109
6, 22559, Note_on_c, 4, 48, 0
6, 22560, Note_on_c, 4, 53, 110
6, 22679, Note_on_c, 4, 53, 0
6, 22920, Note_on_c, 4, 48, 111
6, 23039, Note_on_c, 4, 48, 0
6, 23040, Note_on_c, 4, 53, 111
6, 23159, Note_on_c, 4, 53, 0
6, 23400, Note_on_c, 4, 48, 112
6, 23519, Note_on_c, 4, 48, 0
6, 23520, Note_on_c, 4, 53, 110
6, 23639, Note_on_c, 4, 53, 0
6, 23640, Note_on_c, 4, 62, 109
6, 23699, Note_on_c, 4, 62, 0
6, 23700, Note_on_c, 4, 65, 111
6, 23759, Note_on_c, 4, 65, 0
6, 23760, Note_on_c, 4, 58, 109
6, 23819, Note_on_c, 4, 58, 0
6, 23820, Note_on_c, 4, 62, 111
6, 23879, Note_on_c, 4, 62, 0
6, 23880, Note_on_c, 4, 55, 110
6, 23939, Note_on_c, 4, 55, 0
6, 23940, Note_on_c, 4, 58, 110
6, 23999, Note_on_c, 4, 58, 0
6, 24000, Note_on_c, 4, 52, 111
6, 24119, Note_on_c, 4, 52, 0
6, 24120, Note_on_c, 4, 53, 110
6, 24239, Note_on_c, 4, 53, 0
6, 24240, Note_on_c, 4, 46, 110
6, 24359, Note_on_c, 4, 46, 0
6, 24360, Note_on_c, 4, 48, 110
6, 24479, Note_on_c, 4, 48, 0
6, 24480, Note_on_c, 4, 41, 110
6, 24599, Note_on_c, 4, 41, 0
6, 25020, Note_on_c, 4, 53, 117
6, 25020, Note_on_c, 4, 57, 117
6, 25079, Note_on_c, 4, 57, 0
6, 25079, Note_on_c, 4, 53, 0
6, 25080, Note_on_c, 4, 55, 118
6, 25080, Note_on_c, 4, 58, 118
6, 25139, Note_on_c, 4, 58, 0
6, 25139, Note_on_c, 4, 55, 0
6, 25140, Note_on_c, 4, 60, 119
6, 25140, Note_on_c, 4, 57, 119
6, 25199, Note_on_c, 4, 57, 0
6, 25199, Note_on_c, 4, 60, 0
6, 25200, Note_on_c, 4, 62, 120
6, 25200, Note_on_c, 4, 58, 120
6, 25259, Note_on_c, 4, 58, 0
6, 25259, Note_on_c, 4, 62, 0
6, 25260, Note_on_c, 4, 57, 120
6, 25260, Note_on_c, 4, 60, 120
6, 25319, Note_on_c, 4, 60, 0
6, 25319, Note_on_c, 4, 57, 0
6, 25320, Note_on_c, 4, 58, 119
6, 25320, Note_on_c, 4, 62, 119
6, 25379, Note_on_c, 4, 62, 0
6, 25379, Note_on_c, 4, 58, 0
6, 25380, Note_on_c, 4, 58, 119
6, 25380, Note_on_c, 4, 55, 119
6, 25439, Note_on_c, 4, 55, 0
6, 25439, Note_on_c, 4, 58, 0
6, 25440, Note_on_c, 4, 57, 119
6, 25440, Note_on_c, 4, 53, 119
6, 25559, Note_on_c, 4, 53, 0
6, 25559, Note_on_c, 4, 57, 0
6, 25980, Note_on_c, 4, 53, 115
6, 25980, Note_on_c, 4, 57, 115
6, 26039, Note_on_c, 4, 57, 0
6, 26039, Note_on_c, 4, 53, 0
6, 26040, Note_on_c, 4, 58, 119
6, 26040, Note_on_c, 4, 55, 119
6, 26099, Note_on_c, 4, 55, 0
6, 26099, Note_on_c, 4, 58, 0
6, 26100, Note_on_c, 4, 60, 120
6, 26100, Note_on_c, 4, 57, 120
6, 26159, Note_on_c, 4, 57, 0
6, 26159, Note_on_c, 4, 60, 0
6, 26160, Note_on_c, 4, 62, 120
6, 26160, Note_on_c, 4, 58, 120
6, 26219, Note_on_c, 4, 58, 0
6, 26219, Note_on_c, 4, 62, 0
6, 26220, Note_on_c, 4, 60, 120
6, 26220, Note_on_c, 4, 57, 120
6, 26279, Note_on_c, 4, 57, 0
6, 26279, Note_on_c, 4, 60, 0
6, 26280, Note_on_c, 4, 62, 120
6, 26280, Note_on_c, 4, 58, 120
6, 26339, Note_on_c, 4, 58, 0
6, 26339, Note_on_c, 4, 62, 0
6, 26340, Note_on_c, 4, 58, 120
6, 26340, Note_on_c, 4, 55, 120
6, 26399, Note_on_c, 4, 55, 0
6, 26399, Note_on_c, 4, 58, 0
6, 26400, Note_on_c, 4, 57, 120
6, 26400, Note_on_c, 4, 53, 120
6, 26519, Note_on_c, 4, 53, 0
6, 26519, Note_on_c, 4, 57, 0
6, 26940, Note_on_c, 4, 57, 117
6, 26940, Note_on_c, 4, 53, 117
6, 26999, Note_on_c, 4, 53, 0
6, 26999, Note_on_c, 4, 57, 0
6, 27000, Note_on_c, 4, 58, 118
6, 27000, Note_on_c, 4, 55, 118
6, 27059, Note_on_c, 4, 55, 0
6, 27059, Note_on_c, 4, 58, 0
6, 27060, Note_on_c, 4, 57, 118
6, 27060, Note_on_c, 4, 60, 118
6, 27119, Note_on_c, 4, 60, 0
6, 27119, Note_on_c, 4, 57, 0
6, 27120, Note_on_c, 4, 62, 118
6, 27120, Note_on_c, 4, 58, 118
6, 27179, Note_on_c, 4, 58, 0
6, 27179, Note_on_c, 4, 62, 0
6, 27180, Note_on_c, 4, 57, 118
6, 27180, Note_on_c, 4, 60, 118
6, 27239, Note_on_c, 4, 60, 0
6, 27239, Note_on_c, 4, 57, 0
6, 27240, Note_on_c, 4, 58, 118
6, 27240, Note_on_c, 4, 62, 118
6, 27299, Note_on_c, 4, 62, 0
6, 27299, Note_on_c, 4, 58, 0
6, 27300, Note_on_c, 4, 58, 118
6, 27300, Note_on_c, 4, 55, 118
6, 27359, Note_on_c, 4, 55, 0
6, 27359, Note_on_c, 4, 58, 0
6, 27360, Note_on_c, 4, 53, 118
6, 27360, Note_on_c, 4, 57, 118
6, 27479, Note_on_c, 4, 57, 0
6, 27479, Note_on_c, 4, 53, 0
6, 27900, Note_on_c, 4, 57, 118
6, 27900, Note_on_c, 4, 53, 118
6, 27959, Note_on_c, 4, 53, 0
6, 27959, Note_on_c, 4, 57, 0
6, 27960, Note_on_c, 4, 55, 118
6, 27960, Note_on_c, 4, 58, 119
6, 28019, Note_on_c, 4, 58, 0
6, 28019, Note_on_c, 4, 55, 0
6, 28020, Note_on_c, 4, 60, 119
6, 28020, Note_on_c, 4, 57, 119
6, 28079, Note_on_c, 4, 57, 0
6, 28079, Note_on_c, 4, 60, 0
6, 28080, Note_on_c, 4, 62, 119
6, 28080, Note_on_c, 4, 58, 119
6, 28139, Note_on_c, 4, 58, 0
6, 28139, Note_on_c, 4, 62, 0
6, 28140, Note_on_c, 4, 57, 119
6, 28140, Note_on_c, 4, 60, 119
6, 28199, Note_on_c, 4, 60, 0
6, 28199, Note_on_c, 4, 57, 0
6, 28200, Note_on_c, 4, 58, 119
6, 28200, Note_on_c, 4, 62, 119
6, 28259, Note_on_c, 4, 62, 0
6, 28259, Note_on_c, 4, 58, 0
6, 28260, Note_on_c, 4, 58, 119
6, 28260, Note_on_c, 4, 55, 119
6, 28319, Note_on_c, 4, 55, 0
6, 28319, Note_on_c, 4, 58, 0
6, 28320, Note_on_c, 4, 63, 114
6, 28320, Note_on_c, 4, 54, 114
6, 28439, Note_on_c, 4, 54, 0
6, 28559, Note_on_c, 4, 63, 0
6, 28560, Note_on_c, 4, 60, 110
6, 28799, Note_on_c, 4, 60, 0
6, 28800, Note_on_c, 4, 57, 113
6, 29039, Note_on_c, 4, 57, 0
6, 29040, Note_on_c, 4, 62, 110
6, 29279, Note_on_c, 4, 62, 0
6, 29280, Note_on_c, 4, 55, 111
6, 29399, Note_on_c, 4, 55, 0
6, 29820, Note_on_c, 4, 58, 118
6, 29820, Note_on_c, 4, 55, 118
6, 29879, Note_on_c, 4, 55, 0
6, 29879, Note_on_c, 4, 58, 0
6, 29880, Note_on_c, 4, 60, 118
6, 29880, Note_on_c, 4, 57, 118
6, 29939, Note_on_c, 4, 57, 0
6, 29939, Note_on_c, 4, 60, 0
6, 29940, Note_on_c, 4, 58, 118
6, 29940, Note_on_c, 4, 62, 118
6, 29999, Note_on_c, 4, 62, 0
6, 29999, Note_on_c, 4, 58, 0
6, 30000, Note_on_c, 4, 60, 118
6, 30000, Note_on_c, 4, 63, 118
6, 30059, Note_on_c, 4, 63, 0
6, 30059, Note_on_c, 4, 60, 0
6, 30060, Note_on_c, 4, 58, 118
6, 30060, Note_on_c, 4, 62, 118
6, 30119, Note_on_c, 4, 62, 0
6, 30119, Note_on_c, 4, 58, 0
6, 30120, Note_on_c, 4, 60, 118
6, 30120, Note_on_c, 4, 63, 118
6, 30179, Note_on_c, 4, 63, 0
6, 30179, Note_on_c, 4, 60, 0
6, 30180, Note_on_c, 4, 57, 118
6, 30180, Note_on_c, 4, 60, 118
6, 30239, Note_on_c, 4, 60, 0
6, 30239, Note_on_c, 4, 57, 0
6, 30240, Note_on_c, 4, 55, 118
6, 30240, Note_on_c, 4, 58, 118
6, 30359, Note_on_c, 4, 58, 0
6, 30359, Note_on_c, 4, 55, 0
6, 30780, Note_on_c, 4, 58, 119
6, 30780, Note_on_c, 4, 55, 119
6, 30839, Note_on_c, 4, 55, 0
6, 30839, Note_on_c, 4, 58, 0
6, 30840, Note_on_c, 4, 57, 119
6, 30840, Note_on_c, 4, 60, 119
6, 30899, Note_on_c, 4, 60, 0
6, 30899, Note_on_c, 4, 57, 0
6, 30900, Note_on_c, 4, 58, 119
6, 30900, Note_on_c, 4, 62, 119
6, 30959, Note_on_c, 4, 62, 0
6, 30959, Note_on_c, 4, 58, 0
6, 30960, Note_on_c, 4, 63, 119
6, 30960, Note_on_c, 4, 60, 119
6, 31019, Note_on_c, 4, 60, 0
6, 31019, Note_on_c, 4, 63, 0
6, 31020, Note_on_c, 4, 62, 119
6, 31020, Note_on_c, 4, 58, 119
6, 31079, Note_on_c, 4, 58, 0
6, 31079, Note_on_c, 4, 62, 0
6, 31080, Note_on_c, 4, 63, 119
6, 31080, Note_on_c, 4, 60, 119
6, 31139, Note_on_c, 4, 60, 0
6, 31139, Note_on_c, 4, 63, 0
6, 31140, Note_on_c, 4, 60, 119
6, 31140, Note_on_c, 4, 57, 119
6, 31199, Note_on_c, 4, 57, 0
6, 31199, Note_on_c, 4, 60, 0
6, 31200, Note_on_c, 4, 56, 113
6, 31200, Note_on_c, 4, 65, 113
6, 31319, Note_on_c, 4, 56, 0
6, 31439, Note_on_c, 4, 65, 0
6, 31440, Note_on_c, 4, 62, 91
6, 31679, Note_on_c, 4, 62, 0
6, 31680, Note_on_c, 4, 59, 89
6, 31919, Note_on_c, 4, 59, 0
6, 31920, Note_on_c, 4, 64, 90
6, 32159, Note_on_c, 4, 64, 0
6, 32160, Note_on_c, 4, 57, 87
6, 32279, Note_on_c, 4, 57, 0
6, 32280, Note_on_c, 4, 61, 115
6, 32280, Note_on_c, 4, 64, 116
6, 32519, Note_on_c, 4, 64, 0
6, 32519, Note_on_c, 4, 61, 0
6, 32520, Note_on_c, 4, 61, 110
6, 32520, Note_on_c, 4, 64, 110
6, 32639, Note_on_c, 4, 64, 0
6, 32639, Note_on_c, 4, 61, 0
6, 39480, Note_on_c, 4, 61, 120
6, 39480, Note_on_c, 4, 64, 120
6, 39599, Note_on_c, 4, 64, 0
6, 39599, Note_on_c, 4, 61, 0
6, 39600, Note_on_c, 4, 64, 120
6, 39600, Note_on_c, 4, 61, 121
6, 39719, Note_on_c, 4, 61, 0
6, 39719, Note_on_c, 4, 64, 0
6, 39960, Note_on_c, 4, 61, 123
6, 39960, Note_on_c, 4, 64, 123
6, 40079, Note_on_c, 4, 64, 0
6, 40079, Note_on_c, 4, 61, 0
6, 40080, Note_on_c, 4, 61, 125
6, 40080, Note_on_c, 4, 64, 125
6, 40199, Note_on_c, 4, 64, 0
6, 40199, Note_on_c, 4, 61, 0
6, 40440, Note_on_c, 4, 61, 126
6, 40440, Note_on_c, 4, 64, 126
6, 40559, Note_on_c, 4, 64, 0
6, 40559, Note_on_c, 4, 61, 0
6, 40560, Note_on_c, 4, 64, 126
6, 40560, Note_on_c, 4, 61, 126
6, 40679, Note_on_c, 4, 61, 0
6, 40679, Note_on_c, 4, 64, 0
6, 41400, Note_on_c, 4, 58, 122
6, 41400, Note_on_c, 4, 62, 122
6, 41519, Note_on_c, 4, 62, 0
6, 41520, Note_on_c, 4, 61, 122
6, 41639, Note_on_c, 4, 61, 0
6, 41639, Note_on_c, 4, 58, 0
6, 41640, Note_on_c, 4, 62, 120
6, 41640, Note_on_c, 4, 58, 120
6, 41759, Note_on_c, 4, 58, 0
6, 41759, Note_on_c, 4, 62, 0
6, 41760, Note_on_c, 4, 64, 119
6, 41760, Note_on_c, 4, 57, 119
6, 41999, Note_on_c, 4, 57, 0
6, 41999, Note_on_c, 4, 64, 0
6, 42480, Note_on_c, 4, 50, 120
6, 42480, Note_on_c, 4, 62, 120
6, 42719, Note_on_c, 4, 62, 0
6, 42719, Note_on_c, 4, 50, 0
6, 42960, Note_on_c, 4, 53, 119
6, 42960, Note_on_c, 4, 65, 119
6, 43199, Note_on_c, 4, 65, 0
6, 43199, Note_on_c, 4, 53, 0
6, 43440, Note_on_c, 4, 53, 120
6, 43440, Note_on_c, 4, 62, 120
6, 43679, Note_on_c, 4, 62, 0
6, 43679, Note_on_c, 4, 53, 0
6, 43680, Note_on_c, 4, 63, 122
6, 43680, Note_on_c, 4, 55, 122
6, 43799, Note_on_c, 4, 55, 0
6, 43799, Note_on_c, 4, 63, 0
6, 43800, Note_on_c, 4, 53, 124
6, 43800, Note_on_c, 4, 62, 124
6, 43919, Note_on_c, 4, 62, 0
6, 43919, Note_on_c, 4, 53, 0
6, 43920, Note_on_c, 4, 63, 124
6, 43920, Note_on_c, 4, 55, 124
6, 44039, Note_on_c, 4, 55, 0
6, 44039, Note_on_c, 4, 63, 0
6, 44040, Note_on_c, 4, 53, 124
6, 44040, Note_on_c, 4, 62, 124
6, 44159, Note_on_c, 4, 62, 0
6, 44159, Note_on_c, 4, 53, 0
6, 44160, Note_on_c, 4, 63, 124
6, 44160, Note_on_c, 4, 55, 124
6, 44279, Note_on_c, 4, 55, 0
6, 44279, Note_on_c, 4, 63, 0
6, 44850, Note_on_c, 4, 55, 124
6, 44879, Note_on_c, 4, 55, 0
6, 44880, Note_on_c, 4, 55, 123
6, 44999, Note_on_c, 4, 55, 0
6, 45090, Note_on_c, 4, 56, 123
6, 45119, Note_on_c, 4, 56, 0
6, 45120, Note_on_c, 4, 56, 122
6, 45359, Note_on_c, 4, 56, 0
6, 46320, Note_on_c, 4, 57, 122
6, 46559, Note_on_c, 4, 57, 0
6, 46560, Note_on_c, 4, 58, 126
6, 46919, Note_on_c, 4, 58, 0
6, 46920, Note_on_c, 4, 59, 127
6, 47039, Note_on_c, 4, 59, 0
6, 47040, Note_on_c, 4, 57, 127
6, 47159, Note_on_c, 4, 57, 0
6, 47280, Note_on_c, 4, 57, 127
6, 47399, Note_on_c, 4, 57, 0
6, 47520, Note_on_c, 4, 50, 127
6, 47759, Note_on_c, 4, 50, 0
6, 47759, End_track
7, 0, Start_track
7, 0, MIDI_port, 0
7, 0, Title_t, "Contre Basson"
7, 960, Note_on_c, 4, 53, 123
7, 960, Note_on_c, 4, 50, 123
7, 960, Control_c, 4, 11, 127
7, 965, Control_c, 4, 11, 126
7, 970, Control_c, 4, 11, 125
7, 975, Control_c, 4, 11, 124
7, 980, Control_c, 4, 11, 122
7, 985, Control_c, 4, 11, 121
7, 990, Control_c, 4, 11, 120
7, 995, Control_c, 4, 11, 118
7, 1000, Control_c, 4, 11, 117
7, 1005, Control_c, 4, 11, 116
7, 1010, Control_c, 4, 11, 114
7, 1015, Control_c, 4, 11, 113
7, 1020, Control_c, 4, 11, 112
7, 1025, Control_c, 4, 11, 110
7, 1030, Control_c, 4, 11, 109
7, 1035, Control_c, 4, 11, 108
7, 1040, Control_c, 4, 11, 106
7, 1045, Control_c, 4, 11, 105
7, 1050, Control_c, 4, 11, 104
7, 1055, Control_c, 4, 11, 103
7, 1060, Control_c, 4, 11, 101
7, 1065, Control_c, 4, 11, 100
7, 1070, Control_c, 4, 11, 99
7, 1075, Control_c, 4, 11, 97
7, 1080, Control_c, 4, 11, 96
7, 1085, Control_c, 4, 11, 95
7, 1090, Control_c, 4, 11, 93
7, 1095, Control_c, 4, 11, 92
7, 1100, Control_c, 4, 11, 91
7, 1105, Control_c, 4, 11, 89
7, 1110, Control_c, 4, 11, 88
7, 1115, Control_c, 4, 11, 87
7, 1120, Control_c, 4, 11, 85
7, 1125, Control_c, 4, 11, 84
7, 1130, Control_c, 4, 11, 83
7, 1135, Control_c, 4, 11, 82
7, 1140, Control_c, 4, 11, 80
7, 1145, Control_c, 4, 11, 79
7, 1150, Control_c, 4, 11, 78
7, 1155, Control_c, 4, 11, 76
7, 1160, Control_c, 4, 11, 75
7, 1165, Control_c, 4, 11, 74
7, 1170, Control_c, 4, 11, 72
7, 1175, Control_c, 4, 11, 71
7, 1180, Control_c, 4, 11, 70
7, 1185, Control_c, 4, 11, 68
7, 1190, Control_c, 4, 11, 67
7, 1195, Control_c, 4, 11, 66
7, 1200, Control_c, 4, 11, 64
7, 1439, Note_on_c, 4, 50, 0
7, 1439, Note_on_c, 4, 53, 0
7, 1440, Control_c, 4, 11, 127
7, 2160, Note_on_c, 4, 45, 127
7, 2160, Note_on_c, 4, 50, 127
7, 2399, Note_on_c, 4, 50, 0
7, 2399, Note_on_c, 4, 45, 0
7, 2640, Note_on_c, 4, 46, 127
7, 2640, Note_on_c, 4, 49, 127
7, 2879, Note_on_c, 4, 49, 0
7, 2879, Note_on_c, 4, 46, 0
7, 3120, Note_on_c, 4, 50, 127
7, 3120, Note_on_c, 4, 53, 127
7, 3359, Note_on_c, 4, 53, 0
7, 3359, Note_on_c, 4, 50, 0
7, 4920, Note_on_c, 4, 48, 100
7, 5039, Note_on_c, 4, 48, 0
7, 5040, Note_on_c, 4, 47, 121
7, 5040, Note_on_c, 4, 50, 121
7, 5159, Note_on_c, 4, 50, 0
7, 5159, Note_on_c, 4, 47, 0
7, 5160, Note_on_c, 4, 46, 121
7, 5160, Note_on_c, 4, 52, 121
7, 5279, Note_on_c, 4, 52, 0
7, 5279, Note_on_c, 4, 46, 0
7, 5280, Note_on_c, 4, 45, 127
7, 5280, Note_on_c, 4, 53, 127
7, 5399, Note_on_c, 4, 53, 0
7, 5399, Note_on_c, 4, 45, 0
7, 6840, Note_on_c, 4, 46, 100
7, 6840, Note_on_c, 4, 55, 100
7, 7079, Note_on_c, 4, 55, 0
7, 7079, Note_on_c, 4, 46, 0
7, 7080, Note_on_c, 4, 46, 101
7, 7080, Note_on_c, 4, 55, 101
7, 7199, Note_on_c, 4, 55, 0
7, 7199, Note_on_c, 4, 46, 0
7, 7800, Note_on_c, 4, 48, 123
7, 7800, Note_on_c, 4, 45, 123
7, 8039, Note_on_c, 4, 45, 0
7, 8039, Note_on_c, 4, 48, 0
7, 8040, Note_on_c, 4, 45, 102
7, 8040, Note_on_c, 4, 48, 102
7, 8159, Note_on_c, 4, 48, 0
7, 8159, Note_on_c, 4, 45, 0
7, 8160, Note_on_c, 4, 46, 81
7, 8160, Note_on_c, 4, 50, 81
7, 8279, Note_on_c, 4, 50, 0
7, 8279, Note_on_c, 4, 46, 0
7, 21600, Note_on_c, 4, 48, 113
7, 22199, Note_on_c, 4, 48, 0
7, 22200, Note_on_c, 4, 48, 111
7, 22289, Note_on_c, 4, 48, 0
7, 22290, Note_on_c, 4, 48, 111
7, 22319, Note_on_c, 4, 48, 0
7, 22320, Note_on_c, 4, 36, 111
7, 22439, Note_on_c, 4, 36, 0
7, 22440, Note_on_c, 4, 36, 110
7, 22529, Note_on_c, 4, 36, 0
7, 22530, Note_on_c, 4, 36, 109
7, 22559, Note_on_c, 4, 36, 0
7, 22560, Note_on_c, 4, 41, 110
7, 22679, Note_on_c, 4, 41, 0
7, 22920, Note_on_c, 4, 36, 111
7, 23039, Note_on_c, 4, 36, 0
7, 23040, Note_on_c, 4, 41, 111
7, 23159, Note_on_c, 4, 41, 0
7, 23400, Note_on_c, 4, 36, 112
7, 23519, Note_on_c, 4, 36, 0
7, 23520, Note_on_c, 4, 41, 110
7, 23639, Note_on_c, 4, 41, 0
7, 23640, Note_on_c, 4, 50, 109
7, 23699, Note_on_c, 4, 50, 0
7, 23700, Note_on_c, 4, 53, 111
7, 23759, Note_on_c, 4, 53, 0
7, 23760, Note_on_c, 4, 46, 110
7, 23819, Note_on_c, 4, 46, 0
7, 23820, Note_on_c, 4, 50, 111
7, 23879, Note_on_c, 4, 50, 0
7, 23880, Note_on_c, 4, 43, 110
7, 23939, Note_on_c, 4, 43, 0
7, 23940, Note_on_c, 4, 46, 110
7, 23999, Note_on_c, 4, 46, 0
7, 24000, Note_on_c, 4, 40, 111
7, 24119, Note_on_c, 4, 40, 0
7, 24120, Note_on_c, 4, 41, 110
7, 24239, Note_on_c, 4, 41, 0
7, 24240, Note_on_c, 4, 34, 110
7, 24359, Note_on_c, 4, 34, 0
7, 24360, Note_on_c, 4, 36, 110
7, 24479, Note_on_c, 4, 36, 0
7, 24480, Note_on_c, 4, 29, 110
7, 24599, Note_on_c, 4, 29, 0
7, 25020, Note_on_c, 4, 41, 117
7, 25020, Note_on_c, 4, 45, 117
7, 25079, Note_on_c, 4, 45, 0
7, 25079, Note_on_c, 4, 41, 0
7, 25080, Note_on_c, 4, 43, 118
7, 25080, Note_on_c, 4, 46, 118
7, 25139, Note_on_c, 4, 46, 0
7, 25139, Note_on_c, 4, 43, 0
7, 25140, Note_on_c, 4, 48, 119
7, 25140, Note_on_c, 4, 45, 119
7, 25199, Note_on_c, 4, 45, 0
7, 25199, Note_on_c, 4, 48, 0
7, 25200, Note_on_c, 4, 50, 120
7, 25200, Note_on_c, 4, 46, 120
7, 25259, Note_on_c, 4, 46, 0
7, 25259, Note_on_c, 4, 50, 0
7, 25260, Note_on_c, 4, 45, 120
7, 25260, Note_on_c, 4, 48, 120
7, 25319, Note_on_c, 4, 48, 0
7, 25319, Note_on_c, 4, 45, 0
7, 25320, Note_on_c, 4, 46, 119
7, 25320, Note_on_c, 4, 50, 119
7, 25379, Note_on_c, 4, 50, 0
7, 25379, Note_on_c, 4, 46, 0
7, 25380, Note_on_c, 4, 46, 119
7, 25380, Note_on_c, 4, 43, 119
7, 25439, Note_on_c, 4, 43, 0
7, 25439, Note_on_c, 4, 46, 0
7, 25440, Note_on_c, 4, 45, 119
7, 25440, Note_on_c, 4, 41, 119
7, 25559, Note_on_c, 4, 41, 0
7, 25559, Note_on_c, 4, 45, 0
7, 25980, Note_on_c, 4, 41, 116
7, 25980, Note_on_c, 4, 45, 116
7, 26039, Note_on_c, 4, 45, 0
7, 26039, Note_on_c, 4, 41, 0
7, 26040, Note_on_c, 4, 46, 119
7, 26040, Note_on_c, 4, 43, 119
7, 26099, Note_on_c, 4, 43, 0
7, 26099, Note_on_c, 4, 46, 0
7, 26100, Note_on_c, 4, 48, 120
7, 26100, Note_on_c, 4, 45, 120
7, 26159, Note_on_c, 4, 45, 0
7, 26159, Note_on_c, 4, 48, 0
7, 26160, Note_on_c, 4, 50, 120
7, 26160, Note_on_c, 4, 46, 120
7, 26219, Note_on_c, 4, 46, 0
7, 26219, Note_on_c, 4, 50, 0
7, 26220, Note_on_c, 4, 48, 120
7, 26220, Note_on_c, 4, 45, 120
7, 26279, Note_on_c, 4, 45, 0
7, 26279, Note_on_c, 4, 48, 0
7, 26280, Note_on_c, 4, 50, 120
7, 26280, Note_on_c, 4, 46, 120
7, 26339, Note_on_c, 4, 46, 0
7, 26339, Note_on_c, 4, 50, 0
7, 26340, Note_on_c, 4, 46, 120
7, 26340, Note_on_c, 4, 43, 120
7, 26399, Note_on_c, 4, 43, 0
7, 26399, Note_on_c, 4, 46, 0
7, 26400, Note_on_c, 4, 45, 120
7, 26400, Note_on_c, 4, 41, 120
7, 26519, Note_on_c, 4, 41, 0
7, 26519, Note_on_c, 4, 45, 0
7, 26940, Note_on_c, 4, 45, 117
7, 26940, Note_on_c, 4, 41, 117
7, 26999, Note_on_c, 4, 41, 0
7, 26999, Note_on_c, 4, 45, 0
7, 27000, Note_on_c, 4, 46, 118
7, 27000, Note_on_c, 4, 43, 118
7, 27059, Note_on_c, 4, 43, 0
7, 27059, Note_on_c, 4, 46, 0
7, 27060, Note_on_c, 4, 45, 118
7, 27060, Note_on_c, 4, 48, 118
7, 27119, Note_on_c, 4, 48, 0
7, 27119, Note_on_c, 4, 45, 0
7, 27120, Note_on_c, 4, 50, 118
7, 27120, Note_on_c, 4, 46, 118
7, 27179, Note_on_c, 4, 46, 0
7, 27179, Note_on_c, 4, 50, 0
7, 27180, Note_on_c, 4, 45, 118
7, 27180, Note_on_c, 4, 48, 118
7, 27239, Note_on_c, 4, 48, 0
7, 27239, Note_on_c, 4, 45, 0
7, 27240, Note_on_c, 4, 46, 118
7, 27240, Note_on_c, 4, 50, 118
7, 27299, Note_on_c, 4, 50, 0
7, 27299, Note_on_c, 4, 46, 0
7, 27300, Note_on_c, 4, 46, 118
7, 27300, Note_on_c, 4, 43, 118
7, 27359, Note_on_c, 4, 43, 0
7, 27359, Note_on_c, 4, 46, 0
7, 27360, Note_on_c, 4, 41, 118
7, 27360, Note_on_c, 4, 45, 118
7, 27479, Note_on_c, 4, 45, 0
7, 27479, Note_on_c, 4, 41, 0
7, 27900, Note_on_c, 4, 45, 118
7, 27900, Note_on_c, 4, 41, 118
7, 27959, Note_on_c, 4, 41, 0
7, 27959, Note_on_c, 4, 45, 0
7, 27960, Note_on_c, 4, 43, 119
7, 27960, Note_on_c, 4, 46, 119
7, 28019, Note_on_c, 4, 46, 0
7, 28019, Note_on_c, 4, 43, 0
7, 28020, Note_on_c, 4, 48, 119
7, 28020, Note_on_c, 4, 45, 119
7, 28079, Note_on_c, 4, 45, 0
7, 28079, Note_on_c, 4, 48, 0
7, 28080, Note_on_c, 4, 50, 119
7, 28080, Note_on_c, 4, 46, 119
7, 28139, Note_on_c, 4, 46, 0
7, 28139, Note_on_c, 4, 50, 0
7, 28140, Note_on_c, 4, 45, 119
7, 28140, Note_on_c, 4, 48, 119
7, 28199, Note_on_c, 4, 48, 0
7, 28199, Note_on_c, 4, 45, 0
7, 28200, Note_on_c, 4, 46, 119
7, 28200, Note_on_c, 4, 50, 119
7, 28259, Note_on_c, 4, 50, 0
7, 28259, Note_on_c, 4, 46, 0
7, 28260, Note_on_c, 4, 46, 119
7, 28260, Note_on_c, 4, 43, 119
7, 28319, Note_on_c, 4, 43, 0
7, 28319, Note_on_c, 4, 46, 0
7, 28320, Note_on_c, 4, 51, 114
7, 28320, Note_on_c, 4, 42, 114
7, 28439, Note_on_c, 4, 42, 0
7, 28559, Note_on_c, 4, 51, 0
7, 28560, Note_on_c, 4, 48, 110
7, 28799, Note_on_c, 4, 48, 0
7, 28800, Note_on_c, 4, 45, 113
7, 29039, Note_on_c, 4, 45, 0
7, 29040, Note_on_c, 4, 50, 110
7, 29279, Note_on_c, 4, 50, 0
7, 29280, Note_on_c, 4, 43, 111
7, 29399, Note_on_c, 4, 43, 0
7, 29820, Note_on_c, 4, 46, 118
7, 29820, Note_on_c, 4, 43, 118
7, 29879, Note_on_c, 4, 43, 0
7, 29879, Note_on_c, 4, 46, 0
7, 29880, Note_on_c, 4, 48, 118
7, 29880, Note_on_c, 4, 45, 118
7, 29939, Note_on_c, 4, 45, 0
7, 29939, Note_on_c, 4, 48, 0
7, 29940, Note_on_c, 4, 46, 118
7, 29940, Note_on_c, 4, 50, 118
7, 29999, Note_on_c, 4, 50, 0
7, 29999, Note_on_c, 4, 46, 0
7, 30000, Note_on_c, 4, 48, 118
7, 30000, Note_on_c, 4, 51, 118
7, 30059, Note_on_c, 4, 51, 0
7, 30059, Note_on_c, 4, 48, 0
7, 30060, Note_on_c, 4, 46, 118
7, 30060, Note_on_c, 4, 50, 118
7, 30119, Note_on_c, 4, 50, 0
7, 30119, Note_on_c, 4, 46, 0
7, 30120, Note_on_c, 4, 48, 118
7, 30120, Note_on_c, 4, 51, 118
7, 30179, Note_on_c, 4, 51, 0
7, 30179, Note_on_c, 4, 48, 0
7, 30180, Note_on_c, 4, 45, 118
7, 30180, Note_on_c, 4, 48, 118
7, 30239, Note_on_c, 4, 48, 0
7, 30239, Note_on_c, 4, 45, 0
7, 30240, Note_on_c, 4, 43, 118
7, 30240, Note_on_c, 4, 46, 118
7, 30359, Note_on_c, 4, 46, 0
7, 30359, Note_on_c, 4, 43, 0
7, 30780, Note_on_c, 4, 46, 119
7, 30780, Note_on_c, 4, 43, 119
7, 30839, Note_on_c, 4, 43, 0
7, 30839, Note_on_c, 4, 46, 0
7, 30840, Note_on_c, 4, 45, 119
7, 30840, Note_on_c, 4, 48, 119
7, 30899, Note_on_c, 4, 48, 0
7, 30899, Note_on_c, 4, 45, 0
7, 30900, Note_on_c, 4, 46, 119
7, 30900, Note_on_c, 4, 50, 119
7, 30959, Note_on_c, 4, 50, 0
7, 30959, Note_on_c, 4, 46, 0
7, 30960, Note_on_c, 4, 51, 119
7, 30960, Note_on_c, 4, 48, 119
7, 31019, Note_on_c, 4, 48, 0
7, 31019, Note_on_c, 4, 51, 0
7, 31020, Note_on_c, 4, 50, 119
7, 31020, Note_on_c, 4, 46, 119
7, 31079, Note_on_c, 4, 46, 0
7, 31079, Note_on_c, 4, 50, 0
7, 31080, Note_on_c, 4, 51, 119
7, 31080, Note_on_c, 4, 48, 119
7, 31139, Note_on_c, 4, 48, 0
7, 31139, Note_on_c, 4, 51, 0
7, 31140, Note_on_c, 4, 48, 119
7, 31140, Note_on_c, 4, 45, 119
7, 31199, Note_on_c, 4, 45, 0
7, 31199, Note_on_c, 4, 48, 0
7, 31200, Note_on_c, 4, 44, 112
7, 31200, Note_on_c, 4, 53, 112
7, 31319, Note_on_c, 4, 44, 0
7, 31439, Note_on_c, 4, 53, 0
7, 31440, Note_on_c, 4, 50, 92
7, 31679, Note_on_c, 4, 50, 0
7, 31680, Note_on_c, 4, 47, 91
7, 31919, Note_on_c, 4, 47, 0
7, 31920, Note_on_c, 4, 52, 89
7, 32159, Note_on_c, 4, 52, 0
7, 32160, Note_on_c, 4, 45, 87
7, 32279, Note_on_c, 4, 45, 0
7, 32280, Note_on_c, 4, 49, 115
7, 32280, Note_on_c, 4, 52, 116
7, 32519, Note_on_c, 4, 52, 0
7, 32519, Note_on_c, 4, 49, 0
7, 32520, Note_on_c, 4, 49, 110
7, 32520, Note_on_c, 4, 52, 110
7, 32639, Note_on_c, 4, 52, 0
7, 32639, Note_on_c, 4, 49, 0
7, 39480, Note_on_c, 4, 49, 120
7, 39480, Note_on_c, 4, 52, 120
7, 39599, Note_on_c, 4, 52, 0
7, 39599, Note_on_c, 4, 49, 0
7, 39600, Note_on_c, 4, 52, 121
7, 39600, Note_on_c, 4, 49, 121
7, 39719, Note_on_c, 4, 49, 0
7, 39719, Note_on_c, 4, 52, 0
7, 39960, Note_on_c, 4, 49, 123
7, 39960, Note_on_c, 4, 52, 123
7, 40079, Note_on_c, 4, 52, 0
7, 40079, Note_on_c, 4, 49, 0
7, 40080, Note_on_c, 4, 49, 125
7, 40080, Note_on_c, 4, 52, 125
7, 40199, Note_on_c, 4, 52, 0
7, 40199, Note_on_c, 4, 49, 0
7, 40440, Note_on_c, 4, 49, 126
7, 40440, Note_on_c, 4, 52, 126
7, 40559, Note_on_c, 4, 52, 0
7, 40559, Note_on_c, 4, 49, 0
7, 40560, Note_on_c, 4, 52, 126
7, 40560, Note_on_c, 4, 49, 126
7, 40679, Note_on_c, 4, 49, 0
7, 40679, Note_on_c, 4, 52, 0
7, 41400, Note_on_c, 4, 46, 122
7, 41400, Note_on_c, 4, 50, 122
7, 41519, Note_on_c, 4, 50, 0
7, 41520, Note_on_c, 4, 49, 122
7, 41639, Note_on_c, 4, 49, 0
7, 41639, Note_on_c, 4, 46, 0
7, 41640, Note_on_c, 4, 50, 120
7, 41640, Note_on_c, 4, 46, 120
7, 41759, Note_on_c, 4, 46, 0
7, 41759, Note_on_c, 4, 50, 0
7, 41760, Note_on_c, 4, 52, 119
7, 41760, Note_on_c, 4, 45, 119
7, 41999, Note_on_c, 4, 45, 0
7, 41999, Note_on_c, 4, 52, 0
7, 42480, Note_on_c, 4, 38, 120
7, 42480, Note_on_c, 4, 50, 120
7, 42719, Note_on_c, 4, 50, 0
7, 42719, Note_on_c, 4, 38, 0
7, 42960, Note_on_c, 4, 41, 119
7, 42960, Note_on_c, 4, 53, 119
7, 43199, Note_on_c, 4, 53, 0
7, 43199, Note_on_c, 4, 41, 0
7, 43440, Note_on_c, 4, 41, 120
7, 43440, Note_on_c, 4, 50, 120
7, 43679, Note_on_c, 4, 50, 0
7, 43679, Note_on_c, 4, 41, 0
7, 43680, Note_on_c, 4, 51, 122
7, 43680, Note_on_c, 4, 43, 122
7, 43799, Note_on_c, 4, 43, 0
7, 43799, Note_on_c, 4, 51, 0
7, 43800, Note_on_c, 4, 41, 124
7, 43800, Note_on_c, 4, 50, 124
7, 43919, Note_on_c, 4, 50, 0
7, 43919, Note_on_c, 4, 41, 0
7, 43920, Note_on_c, 4, 51, 124
7, 43920, Note_on_c, 4, 43, 124
7, 44039, Note_on_c, 4, 43, 0
7, 44039, Note_on_c, 4, 51, 0
7, 44040, Note_on_c, 4, 41, 124
7, 44040, Note_on_c, 4, 50, 124
7, 44159, Note_on_c, 4, 50, 0
7, 44159, Note_on_c, 4, 41, 0
7, 44160, Note_on_c, 4, 51, 124
7, 44160, Note_on_c, 4, 43, 124
7, 44279, Note_on_c, 4, 43, 0
7, 44279, Note_on_c, 4, 51, 0
7, 44850, Note_on_c, 4, 43, 124
7, 44879, Note_on_c, 4, 43, 0
7, 44880, Note_on_c, 4, 43, 123
7, 44999, Note_on_c, 4, 43, 0
7, 45090, Note_on_c, 4, 44, 123
7, 45119, Note_on_c, 4, 44, 0
7, 45120, Note_on_c, 4, 44, 122
7, 45359, Note_on_c, 4, 44, 0
7, 46320, Note_on_c, 4, 45, 122
7, 46559, Note_on_c, 4, 45, 0
7, 46560, Note_on_c, 4, 46, 126
7, 46919, Note_on_c, 4, 46, 0
7, 46920, Note_on_c, 4, 47, 127
7, 47039, Note_on_c, 4, 47, 0
7, 47040, Note_on_c, 4, 45, 127
7, 47159, Note_on_c, 4, 45, 0
7, 47280, Note_on_c, 4, 45, 127
7, 47399, Note_on_c, 4, 45, 0
7, 47520, Note_on_c, 4, 38, 127
7, 47759, Note_on_c, 4, 38, 0
7, 47759, End_track
8, 0, Start_track
8, 0, MIDI_port, 0
8, 0, Title_t, "Cor en Fa"
8, 145, Control_c, 5, 0, 0
8, 147, Program_c, 5, 60
8, 148, Control_c, 5, 7, 75
8, 148, Control_c, 5, 10, 64
8, 159, Control_c, 5, 11, 127
8, 160, Control_c, 5, 91, 70
8, 161, Control_c, 5, 93, 25
8, 162, Control_c, 5, 99, 1
8, 162, Control_c, 5, 98, 32
8, 162, Control_c, 5, 6, 62
8, 162, Control_c, 5, 38, 0
8, 163, Control_c, 5, 99, 1
8, 163, Control_c, 5, 98, 33
8, 163, Control_c, 5, 6, 64
8, 163, Control_c, 5, 38, 0
8, 164, Control_c, 5, 99, 1
8, 164, Control_c, 5, 98, 99
8, 164, Control_c, 5, 6, 66
8, 164, Control_c, 5, 38, 0
8, 960, Note_on_c, 5, 57, 123
8, 960, Note_on_c, 5, 69, 123
8, 960, Control_c, 5, 11, 127
8, 965, Control_c, 5, 11, 126
8, 970, Control_c, 5, 11, 125
8, 975, Control_c, 5, 11, 124
8, 980, Control_c, 5, 11, 122
8, 985, Control_c, 5, 11, 121
8, 990, Control_c, 5, 11, 120
8, 995, Control_c, 5, 11, 118
8, 1000, Control_c, 5, 11, 117
8, 1005, Control_c, 5, 11, 116
8, 1010, Control_c, 5, 11, 114
8, 1015, Control_c, 5, 11, 113
8, 1020, Control_c, 5, 11, 112
8, 1025, Control_c, 5, 11, 110
8, 1030, Control_c, 5, 11, 109
8, 1035, Control_c, 5, 11, 108
8, 1040, Control_c, 5, 11, 106
8, 1045, Control_c, 5, 11, 105
8, 1050, Control_c, 5, 11, 104
8, 1055, Control_c, 5, 11, 103
8, 1060, Control_c, 5, 11, 101
8, 1065, Control_c, 5, 11, 100
8, 1070, Control_c, 5, 11, 99
8, 1075, Control_c, 5, 11, 97
8, 1080, Control_c, 5, 11, 96
8, 1085, Control_c, 5, 11, 95
8, 1090, Control_c, 5, 11, 93
8, 1095, Control_c, 5, 11, 92
8, 1100, Control_c, 5, 11, 91
8, 1105, Control_c, 5, 11, 89
8, 1110, Control_c, 5, 11, 88
8, 1115, Control_c, 5, 11, 87
8, 1120, Control_c, 5, 11, 85
8, 1125, Control_c, 5, 11, 84
8, 1130, Control_c, 5, 11, 83
8, 1135, Control_c, 5, 11, 82
8, 1140, Control_c, 5, 11, 80
8, 1145, Control_c, 5, 11, 79
8, 1150, Control_c, 5, 11, 78
8, 1155, Control_c, 5, 11, 76
8, 1160, Control_c, 5, 11, 75
8, 1165, Control_c, 5, 11, 74
8, 1170, Control_c, 5, 11, 72
8, 1175, Control_c, 5, 11, 71
8, 1180, Control_c, 5, 11, 70
8, 1185, Control_c, 5, 11, 68
8, 1190, Control_c, 5, 11, 67
8, 1195, Control_c, 5, 11, 66
8, 1200, Control_c, 5, 11, 64
8, 1439, Note_on_c, 5, 69, 0
8, 1439, Note_on_c, 5, 57, 0
8, 1440, Control_c, 5, 11, 127
8, 2160, Note_on_c, 5, 65, 116
8, 2160, Note_on_c, 5, 53, 116
8, 2399, Note_on_c, 5, 53, 0
8, 2399, Note_on_c, 5, 65, 0
8, 2640, Note_on_c, 5, 67, 115
8, 2640, Note_on_c, 5, 70, 115
8, 2879, Note_on_c, 5, 70, 0
8, 2879, Note_on_c, 5, 67, 0
8, 3120, Note_on_c, 5, 57, 117
8, 3120, Note_on_c, 5, 69, 117
8, 3359, Note_on_c, 5, 69, 0
8, 3359, Note_on_c, 5, 57, 0
8, 5160, Note_on_c, 5, 60, 110
8, 5279, Note_on_c, 5, 60, 0
8, 5280, Note_on_c, 5, 60, 110
8, 5519, Note_on_c, 5, 60, 0
8, 7800, Note_on_c, 5, 65, 115
8, 7800, Note_on_c, 5, 53, 115
8, 8039, Note_on_c, 5, 53, 0
8, 8039, Note_on_c, 5, 65, 0
8, 8040, Note_on_c, 5, 53, 114
8, 8040, Note_on_c, 5, 65, 114
8, 8159, Note_on_c, 5, 65, 0
8, 8159, Note_on_c, 5, 53, 0
8, 8160, Note_on_c, 5, 65, 115
8, 8160, Note_on_c, 5, 53, 115
8, 8279, Note_on_c, 5, 53, 0
8, 8279, Note_on_c, 5, 65, 0
8, 21600, Note_on_c, 5, 65, 114
8, 21600, Note_on_c, 5, 69, 114
8, 22199, Note_on_c, 5, 69, 0
8, 22199, Note_on_c, 5, 65, 0
8, 22200, Note_on_c, 5, 65, 116
8, 22200, Note_on_c, 5, 69, 116
8, 22289, Note_on_c, 5, 69, 0
8, 22289, Note_on_c, 5, 65, 0
8, 22290, Note_on_c, 5, 65, 116
8, 22290, Note_on_c, 5, 69, 116
8, 22319, Note_on_c, 5, 69, 0
8, 22319, Note_on_c, 5, 65, 0
8, 22320, Note_on_c, 5, 60, 115
8, 22320, Note_on_c, 5, 67, 115
8, 22439, Note_on_c, 5, 67, 0
8, 22439, Note_on_c, 5, 60, 0
8, 22440, Note_on_c, 5, 60, 115
8, 22440, Note_on_c, 5, 67, 115
8, 22529, Note_on_c, 5, 67, 0
8, 22529, Note_on_c, 5, 60, 0
8, 22530, Note_on_c, 5, 67, 114
8, 22530, Note_on_c, 5, 60, 114
8, 22559, Note_on_c, 5, 60, 0
8, 22559, Note_on_c, 5, 67, 0
8, 22560, Note_on_c, 5, 57, 114
8, 22560, Note_on_c, 5, 65, 114
8, 22679, Note_on_c, 5, 65, 0
8, 22679, Note_on_c, 5, 57, 0
8, 22920, Note_on_c, 5, 60, 114
8, 22920, Note_on_c, 5, 67, 114
8, 23039, Note_on_c, 5, 67, 0
8, 23039, Note_on_c, 5, 60, 0
8, 23040, Note_on_c, 5, 65, 115
8, 23040, Note_on_c, 5, 69, 115
8, 23159, Note_on_c, 5, 69, 0
8, 23159, Note_on_c, 5, 65, 0
8, 23400, Note_on_c, 5, 60, 116
8, 23400, Note_on_c, 5, 67, 116
8, 23519, Note_on_c, 5, 67, 0
8, 23519, Note_on_c, 5, 60, 0
8, 23520, Note_on_c, 5, 65, 115
8, 23520, Note_on_c, 5, 69, 115
8, 23639, Note_on_c, 5, 69, 0
8, 23639, Note_on_c, 5, 65, 0
8, 24120, Note_on_c, 5, 69, 114
8, 24120, Note_on_c, 5, 72, 114
8, 24239, Note_on_c, 5, 72, 0
8, 24239, Note_on_c, 5, 69, 0
8, 24240, Note_on_c, 5, 67, 109
8, 24240, Note_on_c, 5, 70, 116
8, 24359, Note_on_c, 5, 70, 0
8, 24359, Note_on_c, 5, 67, 0
8, 24360, Note_on_c, 5, 60, 114
8, 24360, Note_on_c, 5, 67, 112
8, 24479, Note_on_c, 5, 67, 0
8, 24479, Note_on_c, 5, 60, 0
8, 24480, Note_on_c, 5, 57, 110
8, 24480, Note_on_c, 5, 65, 116
8, 24599, Note_on_c, 5, 65, 0
8, 24599, Note_on_c, 5, 57, 0
8, 24960, Note_on_c, 5, 53, 113
8, 24960, Note_on_c, 5, 65, 113
8, 25439, Note_on_c, 5, 65, 0
8, 25439, Note_on_c, 5, 53, 0
8, 25920, Note_on_c, 5, 65, 114
8, 25920, Note_on_c, 5, 53, 114
8, 26399, Note_on_c, 5, 53, 0
8, 26399, Note_on_c, 5, 65, 0
8, 26880, Note_on_c, 5, 65, 114
8, 26880, Note_on_c, 5, 53, 114
8, 27359, Note_on_c, 5, 53, 0
8, 27359, Note_on_c, 5, 65, 0
8, 27840, Note_on_c, 5, 65, 114
8, 27840, Note_on_c, 5, 53, 114
8, 28319, Note_on_c, 5, 53, 0
8, 28319, Note_on_c, 5, 65, 0
8, 29760, Note_on_c, 5, 67, 115
8, 30239, Note_on_c, 5, 67, 0
8, 30720, Note_on_c, 5, 67, 116
8, 31199, Note_on_c, 5, 67, 0
8, 32280, Note_on_c, 5, 57, 115
8, 32280, Note_on_c, 5, 69, 115
8, 32519, Note_on_c, 5, 69, 0
8, 32519, Note_on_c, 5, 57, 0
8, 32520, Note_on_c, 5, 69, 116
8, 32520, Note_on_c, 5, 57, 116
8, 32639, Note_on_c, 5, 57, 0
8, 32639, Note_on_c, 5, 69, 0
8, 39480, Note_on_c, 5, 57, 114
8, 39480, Note_on_c, 5, 69, 114
8, 39599, Note_on_c, 5, 69, 0
8, 39599, Note_on_c, 5, 57, 0
8, 39600, Note_on_c, 5, 57, 114
8, 39600, Note_on_c, 5, 69, 114
8, 39719, Note_on_c, 5, 69, 0
8, 39719, Note_on_c, 5, 57, 0
8, 39960, Note_on_c, 5, 57, 114
8, 39960, Note_on_c, 5, 69, 114
8, 40079, Note_on_c, 5, 69, 0
8, 40079, Note_on_c, 5, 57, 0
8, 40080, Note_on_c, 5, 57, 114
8, 40080, Note_on_c, 5, 69, 114
8, 40199, Note_on_c, 5, 69, 0
8, 40199, Note_on_c, 5, 57, 0
8, 40440, Note_on_c, 5, 57, 114
8, 40440, Note_on_c, 5, 69, 114
8, 40559, Note_on_c, 5, 69, 0
8, 40559, Note_on_c, 5, 57, 0
8, 40560, Note_on_c, 5, 57, 114
8, 40560, Note_on_c, 5, 69, 114
8, 40679, Note_on_c, 5, 69, 0
8, 40679, Note_on_c, 5, 57, 0
8, 41400, Note_on_c, 5, 67, 114
8, 41639, Note_on_c, 5, 67, 0
8, 41640, Note_on_c, 5, 67, 114
8, 41759, Note_on_c, 5, 67, 0
8, 41760, Note_on_c, 5, 67, 113
8, 41999, Note_on_c, 5, 67, 0
8, 42960, Note_on_c, 5, 53, 115
8, 42960, Note_on_c, 5, 65, 97
8, 43199, Note_on_c, 5, 65, 0
8, 43199, Note_on_c, 5, 53, 0
8, 43440, Note_on_c, 5, 65, 113
8, 43679, Note_on_c, 5, 65, 0
8, 43680, Note_on_c, 5, 67, 115
8, 43799, Note_on_c, 5, 67, 0
8, 43800, Note_on_c, 5, 65, 116
8, 43919, Note_on_c, 5, 65, 0
8, 43920, Note_on_c, 5, 67, 114
8, 44039, Note_on_c, 5, 67, 0
8, 44040, Note_on_c, 5, 65, 114
8, 44159, Note_on_c, 5, 65, 0
8, 44160, Note_on_c, 5, 67, 114
8, 44279, Note_on_c, 5, 67, 0
8, 44850, Note_on_c, 5, 67, 113
8, 44879, Note_on_c, 5, 67, 0
8, 44880, Note_on_c, 5, 67, 114
8, 44999, Note_on_c, 5, 67, 0
8, 45090, Note_on_c, 5, 53, 114
8, 45090, Note_on_c, 5, 65, 114
8, 45119, Note_on_c, 5, 65, 0
8, 45120, Note_on_c, 5, 53, 0
8, 45120, Note_on_c, 5, 53, 114
8, 45120, Note_on_c, 5, 65, 114
8, 45359, Note_on_c, 5, 65, 0
8, 45360, Note_on_c, 5, 53, 0
8, 46320, Note_on_c, 5, 57, 114
8, 46320, Note_on_c, 5, 69, 114
8, 46559, Note_on_c, 5, 69, 0
8, 46559, Note_on_c, 5, 57, 0
8, 47040, Note_on_c, 5, 57, 112
8, 47040, Note_on_c, 5, 65, 112
8, 47159, Note_on_c, 5, 65, 0
8, 47159, Note_on_c, 5, 57, 0
8, 47280, Note_on_c, 5, 69, 114
8, 47280, Note_on_c, 5, 57, 114
8, 47399, Note_on_c, 5, 57, 0
8, 47399, Note_on_c, 5, 69, 0
8, 47520, Note_on_c, 5, 57, 127
8, 47520, Note_on_c, 5, 65, 127
8, 47759, Note_on_c, 5, 65, 0
8, 47759, Note_on_c, 5, 57, 0
8, 47759, End_track
9, 0, Start_track
9, 0, MIDI_port, 0
9, 0, Title_t, "Trombone en Ré"
9, 150, Control_c, 6, 0, 0
9, 152, Program_c, 6, 57
9, 153, Control_c, 6, 7, 70
9, 153, Control_c, 6, 10, 80
9, 169, Control_c, 6, 11, 127
9, 170, Control_c, 6, 91, 80
9, 171, Control_c, 6, 93, 20
9, 172, Control_c, 6, 99, 1
9, 172, Control_c, 6, 98, 32
9, 172, Control_c, 6, 6, 64
9, 172, Control_c, 6, 38, 0
9, 173, Control_c, 6, 99, 1
9, 173, Control_c, 6, 98, 33
9, 173, Control_c, 6, 6, 62
9, 173, Control_c, 6, 38, 0
9, 174, Control_c, 6, 99, 1
9, 174, Control_c, 6, 98, 99
9, 174, Control_c, 6, 6, 64
9, 174, Control_c, 6, 38, 0
9, 960, Note_on_c, 6, 50, 119
9, 960, Note_on_c, 6, 62, 119
9, 960, Control_c, 6, 11, 127
9, 965, Control_c, 6, 11, 126
9, 970, Control_c, 6, 11, 125
9, 975, Control_c, 6, 11, 124
9, 980, Control_c, 6, 11, 122
9, 985, Control_c, 6, 11, 121
9, 990, Control_c, 6, 11, 120
9, 995, Control_c, 6, 11, 118
9, 1000, Control_c, 6, 11, 117
9, 1005, Control_c, 6, 11, 116
9, 1010, Control_c, 6, 11, 114
9, 1015, Control_c, 6, 11, 113
9, 1020, Control_c, 6, 11, 112
9, 1025, Control_c, 6, 11, 110
9, 1030, Control_c, 6, 11, 109
9, 1035, Control_c, 6, 11, 108
9, 1040, Control_c, 6, 11, 106
9, 1045, Control_c, 6, 11, 105
9, 1050, Control_c, 6, 11, 104
9, 1055, Control_c, 6, 11, 103
9, 1060, Control_c, 6, 11, 101
9, 1065, Control_c, 6, 11, 100
9, 1070, Control_c, 6, 11, 99
9, 1075, Control_c, 6, 11, 97
9, 1080, Control_c, 6, 11, 96
9, 1085, Control_c, 6, 11, 95
9, 1090, Control_c, 6, 11, 93
9, 1095, Control_c, 6, 11, 92
9, 1100, Control_c, 6, 11, 91
9, 1105, Control_c, 6, 11, 89
9, 1110, Control_c, 6, 11, 88
9, 1115, Control_c, 6, 11, 87
9, 1120, Control_c, 6, 11, 85
9, 1125, Control_c, 6, 11, 84
9, 1130, Control_c, 6, 11, 83
9, 1135, Control_c, 6, 11, 82
9, 1140, Control_c, 6, 11, 80
9, 1145, Control_c, 6, 11, 79
9, 1150, Control_c, 6, 11, 78
9, 1155, Control_c, 6, 11, 76
9, 1160, Control_c, 6, 11, 75
9, 1165, Control_c, 6, 11, 74
9, 1170, Control_c, 6, 11, 72
9, 1175, Control_c, 6, 11, 71
9, 1180, Control_c, 6, 11, 70
9, 1185, Control_c, 6, 11, 68
9, 1190, Control_c, 6, 11, 67
9, 1195, Control_c, 6, 11, 66
9, 1200, Control_c, 6, 11, 64
9, 1439, Note_on_c, 6, 62, 0
9, 1439, Note_on_c, 6, 50, 0
9, 1440, Control_c, 6, 11, 127
9, 2160, Note_on_c, 6, 50, 114
9, 2160, Note_on_c, 6, 57, 104
9, 2399, Note_on_c, 6, 57, 0
9, 2399, Note_on_c, 6, 50, 0
9, 3120, Note_on_c, 6, 50, 117
9, 3120, Note_on_c, 6, 62, 110
9, 3359, Note_on_c, 6, 62, 0
9, 3359, Note_on_c, 6, 50, 0
9, 32280, Note_on_c, 6, 57, 113
9, 32280, Note_on_c, 6, 45, 113
9, 32519, Note_on_c, 6, 45, 0
9, 32519, Note_on_c, 6, 57, 0
9, 32520, Note_on_c, 6, 57, 115
9, 32520, Note_on_c, 6, 45, 114
9, 32639, Note_on_c, 6, 45, 0
9, 32639, Note_on_c, 6, 57, 0
9, 39480, Note_on_c, 6, 45, 113
9, 39480, Note_on_c, 6, 57, 113
9, 39599, Note_on_c, 6, 57, 0
9, 39599, Note_on_c, 6, 45, 0
9, 39600, Note_on_c, 6, 45, 113
9, 39600, Note_on_c, 6, 57, 113
9, 39719, Note_on_c, 6, 57, 0
9, 39719, Note_on_c, 6, 45, 0
9, 39960, Note_on_c, 6, 45, 114
9, 39960, Note_on_c, 6, 57, 114
9, 40079, Note_on_c, 6, 57, 0
9, 40079, Note_on_c, 6, 45, 0
9, 40080, Note_on_c, 6, 57, 115
9, 40080, Note_on_c, 6, 45, 115
9, 40199, Note_on_c, 6, 45, 0
9, 40199, Note_on_c, 6, 57, 0
9, 40440, Note_on_c, 6, 57, 115
9, 40440, Note_on_c, 6, 45, 115
9, 40559, Note_on_c, 6, 45, 0
9, 40559, Note_on_c, 6, 57, 0
9, 40560, Note_on_c, 6, 57, 114
9, 40560, Note_on_c, 6, 45, 114
9, 40679, Note_on_c, 6, 45, 0
9, 40679, Note_on_c, 6, 57, 0
9, 41760, Note_on_c, 6, 45, 117
9, 41760, Note_on_c, 6, 57, 110
9, 41999, Note_on_c, 6, 57, 0
9, 41999, Note_on_c, 6, 45, 0
9, 42480, Note_on_c, 6, 50, 118
9, 42480, Note_on_c, 6, 62, 113
9, 42719, Note_on_c, 6, 62, 0
9, 42719, Note_on_c, 6, 50, 0
9, 42960, Note_on_c, 6, 50, 118
9, 42960, Note_on_c, 6, 62, 105
9, 43199, Note_on_c, 6, 62, 0
9, 43199, Note_on_c, 6, 50, 0
9, 45090, Note_on_c, 6, 50, 117
9, 45090, Note_on_c, 6, 62, 113
9, 45119, Note_on_c, 6, 62, 0
9, 45119, Note_on_c, 6, 50, 0
9, 45120, Note_on_c, 6, 50, 116
9, 45120, Note_on_c, 6, 62, 104
9, 45359, Note_on_c, 6, 62, 0
9, 45359, Note_on_c, 6, 50, 0
9, 46320, Note_on_c, 6, 45, 114
9, 46320, Note_on_c, 6, 57, 104
9, 46559, Note_on_c, 6, 57, 0
9, 46559, Note_on_c, 6, 45, 0
9, 46560, Note_on_c, 6, 62, 95
9, 46560, Note_on_c, 6, 50, 95
9, 46619, Note_on_c, 6, 50, 0
9, 46619, Note_on_c, 6, 62, 0
9, 46620, Note_on_c, 6, 50, 99
9, 46620, Note_on_c, 6, 62, 99
9, 46679, Note_on_c, 6, 62, 0
9, 46679, Note_on_c, 6, 50, 0
9, 46680, Note_on_c, 6, 62, 108
9, 46680, Note_on_c, 6, 50, 108
9, 46739, Note_on_c, 6, 50, 0
9, 46739, Note_on_c, 6, 62, 0
9, 46740, Note_on_c, 6, 62, 114
9, 46740, Note_on_c, 6, 50, 114
9, 46799, Note_on_c, 6, 50, 0
9, 46799, Note_on_c, 6, 62, 0
9, 46800, Note_on_c, 6, 50, 123
9, 46800, Note_on_c, 6, 62, 123
9, 46859, Note_on_c, 6, 62, 0
9, 46859, Note_on_c, 6, 50, 0
9, 46860, Note_on_c, 6, 62, 127
9, 46860, Note_on_c, 6, 50, 127
9, 46919, Note_on_c, 6, 50, 0
9, 46919, Note_on_c, 6, 62, 0
9, 46920, Note_on_c, 6, 62, 127
9, 46920, Note_on_c, 6, 50, 127
9, 46979, Note_on_c, 6, 50, 0
9, 46979, Note_on_c, 6, 62, 0
9, 46980, Note_on_c, 6, 62, 127
9, 46980, Note_on_c, 6, 50, 127
9, 47039, Note_on_c, 6, 50, 0
9, 47039, Note_on_c, 6, 62, 0
9, 47040, Note_on_c, 6, 62, 127
9, 47040, Note_on_c, 6, 50, 127
9, 47159, Note_on_c, 6, 50, 0
9, 47159, Note_on_c, 6, 62, 0
9, 47280, Note_on_c, 6, 45, 127
9, 47280, Note_on_c, 6, 57, 127
9, 47399, Note_on_c, 6, 57, 0
9, 47399, Note_on_c, 6, 45, 0
9, 47520, Note_on_c, 6, 50, 127
9, 47520, Note_on_c, 6, 57, 127
9, 47759, Note_on_c, 6, 57, 0
9, 47759, Note_on_c, 6, 50, 0
9, 47759, End_track
10, 0, Start_track
10, 0, MIDI_port, 0
10, 0, Title_t, "Timbale en Ré"
10, 155, Control_c, 7, 0, 0
10, 157, Program_c, 7, 47
10, 158, Control_c, 7, 7, 127
10, 158, Control_c, 7, 10, 50
10, 179, Control_c, 7, 11, 127
10, 180, Control_c, 7, 91, 70
10, 181, Control_c, 7, 93, 10
10, 960, Note_on_c, 7, 40, 127
10, 1079, Note_on_c, 7, 40, 0
10, 2160, Note_on_c, 7, 40, 127
10, 2279, Note_on_c, 7, 40, 0
10, 3120, Note_on_c, 7, 40, 127
10, 3239, Note_on_c, 7, 40, 0
10, 32280, Note_on_c, 7, 35, 127
10, 32369, Note_on_c, 7, 35, 0
10, 32370, Note_on_c, 7, 35, 127
10, 32399, Note_on_c, 7, 35, 0
10, 32400, Note_on_c, 7, 35, 127
10, 32519, Note_on_c, 7, 35, 0
10, 32520, Note_on_c, 7, 35, 127
10, 32639, Note_on_c, 7, 35, 0
10, 39480, Note_on_c, 7, 35, 127
10, 39599, Note_on_c, 7, 35, 0
10, 39600, Note_on_c, 7, 35, 127
10, 39719, Note_on_c, 7, 35, 0
10, 39960, Note_on_c, 7, 35, 127
10, 40079, Note_on_c, 7, 35, 0
10, 40080, Note_on_c, 7, 35, 127
10, 40199, Note_on_c, 7, 35, 0
10, 40440, Note_on_c, 7, 35, 127
10, 40559, Note_on_c, 7, 35, 0
10, 40560, Note_on_c, 7, 35, 127
10, 40679, Note_on_c, 7, 35, 0
10, 41760, Note_on_c, 7, 35, 127
10, 41879, Note_on_c, 7, 35, 0
10, 42480, Note_on_c, 7, 40, 127
10, 42599, Note_on_c, 7, 40, 0
10, 42960, Note_on_c, 7, 40, 127
10, 43079, Note_on_c, 7, 40, 0
10, 45090, Note_on_c, 7, 40, 127
10, 45119, Note_on_c, 7, 40, 0
10, 45120, Note_on_c, 7, 40, 127
10, 45359, Note_on_c, 7, 40, 0
10, 46320, Note_on_c, 7, 35, 127
10, 46439, Note_on_c, 7, 35, 0
10, 46560, Note_on_c, 7, 40, 92
10, 46567, Note_on_c, 7, 40, 0
10, 46568, Note_on_c, 7, 42, 93
10, 46575, Note_on_c, 7, 42, 0
10, 46576, Note_on_c, 7, 40, 95
10, 46583, Note_on_c, 7, 40, 0
10, 46584, Note_on_c, 7, 42, 97
10, 46591, Note_on_c, 7, 42, 0
10, 46592, Note_on_c, 7, 40, 97
10, 46599, Note_on_c, 7, 40, 0
10, 46600, Note_on_c, 7, 42, 99
10, 46607, Note_on_c, 7, 42, 0
10, 46608, Note_on_c, 7, 40, 100
10, 46615, Note_on_c, 7, 40, 0
10, 46616, Note_on_c, 7, 42, 101
10, 46623, Note_on_c, 7, 42, 0
10, 46624, Note_on_c, 7, 40, 103
10, 46631, Note_on_c, 7, 40, 0
10, 46632, Note_on_c, 7, 42, 104
10, 46639, Note_on_c, 7, 42, 0
10, 46640, Note_on_c, 7, 40, 106
10, 46647, Note_on_c, 7, 40, 0
10, 46648, Note_on_c, 7, 42, 106
10, 46655, Note_on_c, 7, 42, 0
10, 46656, Note_on_c, 7, 40, 108
10, 46663, Note_on_c, 7, 40, 0
10, 46664, Note_on_c, 7, 42, 109
10, 46671, Note_on_c, 7, 42, 0
10, 46672, Note_on_c, 7, 40, 110
10, 46679, Note_on_c, 7, 40, 0
10, 46680, Note_on_c, 7, 42, 111
10, 46687, Note_on_c, 7, 42, 0
10, 46688, Note_on_c, 7, 40, 111
10, 46695, Note_on_c, 7, 40, 0
10, 46696, Note_on_c, 7, 42, 112
10, 46703, Note_on_c, 7, 42, 0
10, 46704, Note_on_c, 7, 40, 113
10, 46711, Note_on_c, 7, 40, 0
10, 46712, Note_on_c, 7, 42, 113
10, 46719, Note_on_c, 7, 42, 0
10, 46720, Note_on_c, 7, 40, 114
10, 46727, Note_on_c, 7, 40, 0
10, 46728, Note_on_c, 7, 42, 114
10, 46735, Note_on_c, 7, 42, 0
10, 46736, Note_on_c, 7, 40, 116
10, 46743, Note_on_c, 7, 40, 0
10, 46744, Note_on_c, 7, 42, 117
10, 46751, Note_on_c, 7, 42, 0
10, 46752, Note_on_c, 7, 40, 117
10, 46759, Note_on_c, 7, 40, 0
10, 46760, Note_on_c, 7, 42, 118
10, 46767, Note_on_c, 7, 42, 0
10, 46768, Note_on_c, 7, 40, 118
10, 46775, Note_on_c, 7, 40, 0
10, 46776, Note_on_c, 7, 42, 119
10, 46783, Note_on_c, 7, 42, 0
10, 46784, Note_on_c, 7, 40, 120
10, 46791, Note_on_c, 7, 40, 0
10, 46792, Note_on_c, 7, 42, 120
10, 46799, Note_on_c, 7, 42, 0
10, 46800, Note_on_c, 7, 40, 121
10, 46807, Note_on_c, 7, 40, 0
10, 46808, Note_on_c, 7, 42, 122
10, 46815, Note_on_c, 7, 42, 0
10, 46816, Note_on_c, 7, 40, 123
10, 46823, Note_on_c, 7, 40, 0
10, 46824, Note_on_c, 7, 42, 124
10, 46831, Note_on_c, 7, 42, 0
10, 46832, Note_on_c, 7, 40, 125
10, 46839, Note_on_c, 7, 40, 0
10, 46840, Note_on_c, 7, 42, 126
10, 46847, Note_on_c, 7, 42, 0
10, 46848, Note_on_c, 7, 40, 127
10, 46855, Note_on_c, 7, 40, 0
10, 46856, Note_on_c, 7, 42, 127
10, 46863, Note_on_c, 7, 42, 0
10, 46864, Note_on_c, 7, 40, 127
10, 46871, Note_on_c, 7, 40, 0
10, 46872, Note_on_c, 7, 42, 127
10, 46879, Note_on_c, 7, 42, 0
10, 46880, Note_on_c, 7, 40, 127
10, 46887, Note_on_c, 7, 40, 0
10, 46888, Note_on_c, 7, 42, 127
10, 46895, Note_on_c, 7, 42, 0
10, 46896, Note_on_c, 7, 40, 127
10, 46903, Note_on_c, 7, 40, 0
10, 46904, Note_on_c, 7, 42, 127
10, 46911, Note_on_c, 7, 42, 0
10, 46912, Note_on_c, 7, 40, 127
10, 46919, Note_on_c, 7, 40, 0
10, 46920, Note_on_c, 7, 42, 127
10, 46927, Note_on_c, 7, 42, 0
10, 46928, Note_on_c, 7, 40, 127
10, 46935, Note_on_c, 7, 40, 0
10, 46936, Note_on_c, 7, 42, 127
10, 46943, Note_on_c, 7, 42, 0
10, 46944, Note_on_c, 7, 40, 127
10, 46951, Note_on_c, 7, 40, 0
10, 46952, Note_on_c, 7, 42, 127
10, 46959, Note_on_c, 7, 42, 0
10, 46960, Note_on_c, 7, 40, 127
10, 46967, Note_on_c, 7, 40, 0
10, 46968, Note_on_c, 7, 42, 127
10, 46975, Note_on_c, 7, 42, 0
10, 46976, Note_on_c, 7, 40, 127
10, 46983, Note_on_c, 7, 40, 0
10, 46984, Note_on_c, 7, 42, 127
10, 46991, Note_on_c, 7, 42, 0
10, 46992, Note_on_c, 7, 40, 127
10, 46999, Note_on_c, 7, 40, 0
10, 47000, Note_on_c, 7, 42, 127
10, 47007, Note_on_c, 7, 42, 0
10, 47008, Note_on_c, 7, 40, 127
10, 47015, Note_on_c, 7, 40, 0
10, 47016, Note_on_c, 7, 42, 127
10, 47023, Note_on_c, 7, 42, 0
10, 47024, Note_on_c, 7, 40, 127
10, 47031, Note_on_c, 7, 40, 0
10, 47032, Note_on_c, 7, 42, 127
10, 47039, Note_on_c, 7, 42, 0
10, 47040, Note_on_c, 7, 35, 127
10, 47159, Note_on_c, 7, 35, 0
10, 47280, Note_on_c, 7, 35, 127
10, 47399, Note_on_c, 7, 35, 0
10, 47520, Note_on_c, 7, 40, 127
10, 47759, Note_on_c, 7, 40, 0
10, 47759, End_track
11, 0, Start_track
11, 0, MIDI_port, 0
11, 0, Title_t, "Violons"
11, 170, Control_c, 10, 0, 0
11, 172, Program_c, 10, 48
11, 173, Control_c, 10, 7, 72
11, 173, Control_c, 10, 10, 40
11, 185, Control_c, 10, 11, 127
11, 186, Control_c, 10, 91, 55
11, 187, Control_c, 10, 93, 20
11, 188, Control_c, 10, 1, 10
11, 188, Control_c, 10, 99, 1
11, 188, Control_c, 10, 98, 32
11, 188, Control_c, 10, 6, 56
11, 188, Control_c, 10, 38, 0
11, 189, Control_c, 10, 99, 1
11, 189, Control_c, 10, 98, 33
11, 189, Control_c, 10, 6, 56
11, 189, Control_c, 10, 38, 0
11, 190, Control_c, 10, 99, 1
11, 190, Control_c, 10, 98, 99
11, 190, Control_c, 10, 6, 67
11, 190, Control_c, 10, 38, 0
11, 480, Note_on_c, 10, 62, 60
11, 509, Note_on_c, 10, 62, 0
11, 510, Note_on_c, 10, 62, 60
11, 539, Note_on_c, 10, 62, 0
11, 540, Note_on_c, 10, 62, 60
11, 569, Note_on_c, 10, 62, 0
11, 570, Note_on_c, 10, 62, 60
11, 599, Note_on_c, 10, 62, 0
11, 600, Note_on_c, 10, 62, 60
11, 630, Note_on_c, 10, 62, 0
11, 630, Note_on_c, 10, 62, 60
11, 660, Note_on_c, 10, 62, 0
11, 660, Note_on_c, 10, 62, 60
11, 690, Note_on_c, 10, 62, 0
11, 690, Note_on_c, 10, 62, 59
11, 720, Note_on_c, 10, 62, 0
11, 720, Note_on_c, 10, 62, 59
11, 750, Note_on_c, 10, 62, 0
11, 750, Note_on_c, 10, 62, 59
11, 780, Note_on_c, 10, 62, 0
11, 780, Note_on_c, 10, 62, 59
11, 810, Note_on_c, 10, 62, 0
11, 810, Note_on_c, 10, 62, 59
11, 840, Note_on_c, 10, 62, 0
11, 840, Note_on_c, 10, 62, 61
11, 870, Note_on_c, 10, 62, 0
11, 870, Note_on_c, 10, 62, 62
11, 900, Note_on_c, 10, 62, 0
11, 900, Note_on_c, 10, 62, 62
11, 930, Note_on_c, 10, 62, 0
11, 930, Note_on_c, 10, 62, 61
11, 960, Note_on_c, 10, 62, 0
11, 960, Note_on_c, 10, 62, 125
11, 989, Note_on_c, 10, 62, 0
11, 990, Note_on_c, 10, 62, 121
11, 1019, Note_on_c, 10, 62, 0
11, 1020, Note_on_c, 10, 62, 116
11, 1049, Note_on_c, 10, 62, 0
11, 1050, Note_on_c, 10, 62, 111
11, 1079, Note_on_c, 10, 62, 0
11, 1080, Note_on_c, 10, 62, 107
11, 1110, Note_on_c, 10, 62, 0
11, 1110, Note_on_c, 10, 62, 102
11, 1140, Note_on_c, 10, 62, 0
11, 1140, Note_on_c, 10, 62, 97
11, 1170, Note_on_c, 10, 62, 0
11, 1170, Note_on_c, 10, 62, 92
11, 1200, Note_on_c, 10, 62, 0
11, 1200, Note_on_c, 10, 62, 85
11, 1230, Note_on_c, 10, 62, 0
11, 1230, Note_on_c, 10, 62, 78
11, 1260, Note_on_c, 10, 62, 0
11, 1260, Note_on_c, 10, 62, 74
11, 1290, Note_on_c, 10, 62, 0
11, 1290, Note_on_c, 10, 62, 69
11, 1320, Note_on_c, 10, 62, 0
11, 1320, Note_on_c, 10, 62, 66
11, 1350, Note_on_c, 10, 62, 0
11, 1350, Note_on_c, 10, 62, 62
11, 1380, Note_on_c, 10, 62, 0
11, 1380, Note_on_c, 10, 62, 60
11, 1410, Note_on_c, 10, 62, 0
11, 1410, Note_on_c, 10, 62, 60
11, 1440, Note_on_c, 10, 62, 0
11, 1440, Note_on_c, 10, 74, 72
11, 1499, Note_on_c, 10, 74, 0
11, 1560, Note_on_c, 10, 69, 72
11, 1619, Note_on_c, 10, 69, 0
11, 1680, Note_on_c, 10, 77, 74
11, 1739, Note_on_c, 10, 77, 0
11, 1800, Note_on_c, 10, 76, 75
11, 1859, Note_on_c, 10, 76, 0
11, 1920, Note_on_c, 10, 74, 76
11, 2039, Note_on_c, 10, 74, 0
11, 2160, Note_on_c, 10, 77, 126
11, 2279, Note_on_c, 10, 77, 0
11, 2280, Note_on_c, 10, 76, 108
11, 2309, Note_on_c, 10, 76, 0
11, 2310, Note_on_c, 10, 74, 103
11, 2339, Note_on_c, 10, 74, 0
11, 2340, Note_on_c, 10, 73, 96
11, 2369, Note_on_c, 10, 73, 0
11, 2370, Note_on_c, 10, 74, 88
11, 2399, Note_on_c, 10, 74, 0
11, 2400, Note_on_c, 10, 73, 81
11, 2519, Note_on_c, 10, 73, 0
11, 2640, Note_on_c, 10, 79, 127
11, 2759, Note_on_c, 10, 79, 0
11, 2760, Note_on_c, 10, 77, 97
11, 2789, Note_on_c, 10, 77, 0
11, 2790, Note_on_c, 10, 76, 90
11, 2819, Note_on_c, 10, 76, 0
11, 2820, Note_on_c, 10, 74, 85
11, 2849, Note_on_c, 10, 74, 0
11, 2850, Note_on_c, 10, 76, 82
11, 2879, Note_on_c, 10, 76, 0
11, 2880, Note_on_c, 10, 74, 77
11, 2999, Note_on_c, 10, 74, 0
11, 3120, Note_on_c, 10, 81, 124
11, 3239, Note_on_c, 10, 81, 0
11, 3240, Note_on_c, 10, 79, 101
11, 3269, Note_on_c, 10, 79, 0
11, 3270, Note_on_c, 10, 77, 96
11, 3299, Note_on_c, 10, 77, 0
11, 3300, Note_on_c, 10, 76, 91
11, 3329, Note_on_c, 10, 76, 0
11, 3330, Note_on_c, 10, 74, 86
11, 3359, Note_on_c, 10, 74, 0
11, 3360, Note_on_c, 10, 75, 120
11, 3419, Note_on_c, 10, 75, 0
11, 3420, Note_on_c, 10, 75, 102
11, 3479, Note_on_c, 10, 75, 0
11, 3480, Note_on_c, 10, 75, 70
11, 3539, Note_on_c, 10, 75, 0
11, 3540, Note_on_c, 10, 75, 69
11, 3599, Note_on_c, 10, 75, 0
11, 3600, Note_on_c, 10, 78, 120
11, 3659, Note_on_c, 10, 78, 0
11, 3660, Note_on_c, 10, 78, 101
11, 3719, Note_on_c, 10, 78, 0
11, 3720, Note_on_c, 10, 78, 67
11, 3779, Note_on_c, 10, 78, 0
11, 3780, Note_on_c, 10, 78, 68
11, 3839, Note_on_c, 10, 78, 0
11, 3840, Note_on_c, 10, 79, 75
11, 3899, Note_on_c, 10, 79, 0
11, 3900, Note_on_c, 10, 79, 82
11, 3959, Note_on_c, 10, 79, 0
11, 3960, Note_on_c, 10, 81, 94
11, 4019, Note_on_c, 10, 81, 0
11, 4020, Note_on_c, 10, 81, 99
11, 4079, Note_on_c, 10, 81, 0
11, 4080, Note_on_c, 10, 82, 105
11, 4139, Note_on_c, 10, 82, 0
11, 4140, Note_on_c, 10, 82, 113
11, 4259, Note_on_c, 10, 82, 0
11, 4260, Note_on_c, 10, 82, 114
11, 4379, Note_on_c, 10, 82, 0
11, 4380, Note_on_c, 10, 82, 101
11, 4439, Note_on_c, 10, 82, 0
11, 4440, Note_on_c, 10, 79, 90
11, 4499, Note_on_c, 10, 79, 0
11, 4500, Note_on_c, 10, 79, 80
11, 4559, Note_on_c, 10, 79, 0
11, 4560, Note_on_c, 10, 75, 72
11, 4619, Note_on_c, 10, 75, 0
11, 4620, Note_on_c, 10, 75, 71
11, 4679, Note_on_c, 10, 75, 0
11, 4680, Note_on_c, 10, 74, 71
11, 4739, Note_on_c, 10, 74, 0
11, 4740, Note_on_c, 10, 74, 71
11, 4799, Note_on_c, 10, 74, 0
11, 4800, Note_on_c, 10, 73, 71
11, 4919, Note_on_c, 10, 73, 0
11, 4920, Note_on_c, 10, 57, 115
11, 5039, Note_on_c, 10, 57, 0
11, 5040, Note_on_c, 10, 56, 114
11, 5159, Note_on_c, 10, 56, 0
11, 5160, Note_on_c, 10, 55, 114
11, 5279, Note_on_c, 10, 55, 0
11, 5280, Note_on_c, 10, 69, 114
11, 5280, Note_on_c, 10, 57, 114
11, 5519, Note_on_c, 10, 57, 0
11, 5519, Note_on_c, 10, 69, 0
11, 5520, Note_on_c, 10, 69, 73
11, 5639, Note_on_c, 10, 69, 0
11, 5640, Note_on_c, 10, 72, 74
11, 5759, Note_on_c, 10, 72, 0
11, 5760, Note_on_c, 10, 77, 73
11, 5879, Note_on_c, 10, 77, 0
11, 5880, Note_on_c, 10, 69, 73
11, 5999, Note_on_c, 10, 69, 0
11, 6000, Note_on_c, 10, 72, 73
11, 6119, Note_on_c, 10, 72, 0
11, 6120, Note_on_c, 10, 77, 75
11, 6239, Note_on_c, 10, 77, 0
11, 6240, Note_on_c, 10, 81, 76
11, 6299, Note_on_c, 10, 81, 0
11, 6300, Note_on_c, 10, 79, 75
11, 6359, Note_on_c, 10, 79, 0
11, 6360, Note_on_c, 10, 77, 73
11, 6419, Note_on_c, 10, 77, 0
11, 6420, Note_on_c, 10, 76, 72
11, 6479, Note_on_c, 10, 76, 0
11, 6480, Note_on_c, 10, 74, 72
11, 6539, Note_on_c, 10, 74, 0
11, 6540, Note_on_c, 10, 72, 72
11, 6599, Note_on_c, 10, 72, 0
11, 6600, Note_on_c, 10, 70, 72
11, 6659, Note_on_c, 10, 70, 0
11, 6660, Note_on_c, 10, 69, 72
11, 6719, Note_on_c, 10, 69, 0
11, 6720, Note_on_c, 10, 70, 71
11, 6779, Note_on_c, 10, 70, 0
11, 6780, Note_on_c, 10, 67, 70
11, 6839, Note_on_c, 10, 67, 0
11, 6840, Note_on_c, 10, 70, 79
11, 6899, Note_on_c, 10, 70, 0
11, 6900, Note_on_c, 10, 74, 82
11, 6959, Note_on_c, 10, 74, 0
11, 6960, Note_on_c, 10, 79, 87
11, 7019, Note_on_c, 10, 79, 0
11, 7020, Note_on_c, 10, 70, 94
11, 7079, Note_on_c, 10, 70, 0
11, 7080, Note_on_c, 10, 74, 102
11, 7139, Note_on_c, 10, 74, 0
11, 7140, Note_on_c, 10, 79, 110
11, 7199, Note_on_c, 10, 79, 0
11, 7200, Note_on_c, 10, 82, 100
11, 7259, Note_on_c, 10, 82, 0
11, 7260, Note_on_c, 10, 81, 80
11, 7319, Note_on_c, 10, 81, 0
11, 7320, Note_on_c, 10, 79, 70
11, 7379, Note_on_c, 10, 79, 0
11, 7380, Note_on_c, 10, 77, 71
11, 7439, Note_on_c, 10, 77, 0
11, 7440, Note_on_c, 10, 76, 71
11, 7499, Note_on_c, 10, 76, 0
11, 7500, Note_on_c, 10, 74, 72
11, 7559, Note_on_c, 10, 74, 0
11, 7560, Note_on_c, 10, 72, 71
11, 7619, Note_on_c, 10, 72, 0
11, 7620, Note_on_c, 10, 70, 70
11, 7679, Note_on_c, 10, 70, 0
11, 7680, Note_on_c, 10, 69, 76
11, 7739, Note_on_c, 10, 69, 0
11, 7740, Note_on_c, 10, 65, 84
11, 7799, Note_on_c, 10, 65, 0
11, 7800, Note_on_c, 10, 69, 90
11, 7859, Note_on_c, 10, 69, 0
11, 7860, Note_on_c, 10, 72, 97
11, 7919, Note_on_c, 10, 72, 0
11, 7920, Note_on_c, 10, 77, 105
11, 7979, Note_on_c, 10, 77, 0
11, 7980, Note_on_c, 10, 81, 110
11, 8039, Note_on_c, 10, 81, 0
11, 8040, Note_on_c, 10, 84, 115
11, 8099, Note_on_c, 10, 84, 0
11, 8100, Note_on_c, 10, 77, 119
11, 8159, Note_on_c, 10, 77, 0
11, 8160, Note_on_c, 10, 82, 71
11, 8279, Note_on_c, 10, 82, 0
11, 8280, Note_on_c, 10, 70, 72
11, 8399, Note_on_c, 10, 70, 0
11, 8400, Note_on_c, 10, 74, 73
11, 8519, Note_on_c, 10, 74, 0
11, 8520, Note_on_c, 10, 77, 72
11, 8639, Note_on_c, 10, 77, 0
11, 8640, Note_on_c, 10, 82, 115
11, 8699, Note_on_c, 10, 82, 0
11, 8700, Note_on_c, 10, 82, 96
11, 8759, Note_on_c, 10, 82, 0
11, 8760, Note_on_c, 10, 82, 70
11, 8819, Note_on_c, 10, 82, 0
11, 8820, Note_on_c, 10, 82, 70
11, 8879, Note_on_c, 10, 82, 0
11, 8880, Note_on_c, 10, 81, 112
11, 8939, Note_on_c, 10, 81, 0
11, 8940, Note_on_c, 10, 81, 96
11, 8999, Note_on_c, 10, 81, 0
11, 9000, Note_on_c, 10, 81, 69
11, 9059, Note_on_c, 10, 81, 0
11, 9060, Note_on_c, 10, 81, 69
11, 9119, Note_on_c, 10, 81, 0
11, 9120, Note_on_c, 10, 80, 70
11, 9179, Note_on_c, 10, 80, 0
11, 9180, Note_on_c, 10, 80, 71
11, 9299, Note_on_c, 10, 80, 0
11, 9300, Note_on_c, 10, 77, 71
11, 9359, Note_on_c, 10, 77, 0
11, 9360, Note_on_c, 10, 80, 72
11, 9419, Note_on_c, 10, 80, 0
11, 9420, Note_on_c, 10, 80, 73
11, 9539, Note_on_c, 10, 80, 0
11, 9540, Note_on_c, 10, 77, 73
11, 9599, Note_on_c, 10, 77, 0
11, 9600, Note_on_c, 10, 76, 72
11, 9659, Note_on_c, 10, 76, 0
11, 9660, Note_on_c, 10, 60, 95
11, 9719, Note_on_c, 10, 60, 0
11, 9720, Note_on_c, 10, 59, 95
11, 9779, Note_on_c, 10, 59, 0
11, 9780, Note_on_c, 10, 60, 94
11, 9839, Note_on_c, 10, 60, 0
11, 9840, Note_on_c, 10, 59, 95
11, 9899, Note_on_c, 10, 59, 0
11, 9900, Note_on_c, 10, 60, 94
11, 9959, Note_on_c, 10, 60, 0
11, 10020, Note_on_c, 10, 72, 73
11, 10079, Note_on_c, 10, 72, 0
11, 10080, Note_on_c, 10, 77, 71
11, 10259, Note_on_c, 10, 77, 0
11, 10260, Note_on_c, 10, 79, 71
11, 10265, Note_on_c, 10, 79, 0
11, 10266, Note_on_c, 10, 77, 71
11, 10271, Note_on_c, 10, 77, 0
11, 10272, Note_on_c, 10, 76, 71
11, 10277, Note_on_c, 10, 76, 0
11, 10278, Note_on_c, 10, 77, 71
11, 10319, Note_on_c, 10, 77, 0
11, 10320, Note_on_c, 10, 79, 70
11, 10499, Note_on_c, 10, 79, 0
11, 10500, Note_on_c, 10, 81, 70
11, 10505, Note_on_c, 10, 81, 0
11, 10506, Note_on_c, 10, 79, 70
11, 10511, Note_on_c, 10, 79, 0
11, 10512, Note_on_c, 10, 77, 70
11, 10517, Note_on_c, 10, 77, 0
11, 10518, Note_on_c, 10, 79, 70
11, 10559, Note_on_c, 10, 79, 0
11, 10560, Note_on_c, 10, 81, 70
11, 10619, Note_on_c, 10, 81, 0
11, 10620, Note_on_c, 10, 60, 94
11, 10679, Note_on_c, 10, 60, 0
11, 10680, Note_on_c, 10, 59, 95
11, 10739, Note_on_c, 10, 59, 0
11, 10740, Note_on_c, 10, 60, 94
11, 10799, Note_on_c, 10, 60, 0
11, 10800, Note_on_c, 10, 59, 93
11, 10859, Note_on_c, 10, 59, 0
11, 10860, Note_on_c, 10, 60, 92
11, 10919, Note_on_c, 10, 60, 0
11, 10980, Note_on_c, 10, 72, 68
11, 11039, Note_on_c, 10, 72, 0
11, 11040, Note_on_c, 10, 77, 69
11, 11219, Note_on_c, 10, 77, 0
11, 11220, Note_on_c, 10, 79, 70
11, 11225, Note_on_c, 10, 79, 0
11, 11226, Note_on_c, 10, 77, 70
11, 11231, Note_on_c, 10, 77, 0
11, 11232, Note_on_c, 10, 76, 70
11, 11237, Note_on_c, 10, 76, 0
11, 11238, Note_on_c, 10, 77, 70
11, 11279, Note_on_c, 10, 77, 0
11, 11280, Note_on_c, 10, 79, 71
11, 11459, Note_on_c, 10, 79, 0
11, 11460, Note_on_c, 10, 81, 70
11, 11465, Note_on_c, 10, 81, 0
11, 11466, Note_on_c, 10, 79, 70
11, 11471, Note_on_c, 10, 79, 0
11, 11472, Note_on_c, 10, 77, 69
11, 11477, Note_on_c, 10, 77, 0
11, 11478, Note_on_c, 10, 79, 69
11, 11519, Note_on_c, 10, 79, 0
11, 11520, Note_on_c, 10, 81, 69
11, 11579, Note_on_c, 10, 81, 0
11, 11580, Note_on_c, 10, 81, 70
11, 11639, Note_on_c, 10, 81, 0
11, 11640, Note_on_c, 10, 81, 71
11, 11699, Note_on_c, 10, 81, 0
11, 11700, Note_on_c, 10, 81, 72
11, 11759, Note_on_c, 10, 81, 0
11, 11760, Note_on_c, 10, 81, 72
11, 11819, Note_on_c, 10, 81, 0
11, 11820, Note_on_c, 10, 81, 68
11, 11879, Note_on_c, 10, 81, 0
11, 11880, Note_on_c, 10, 81, 68
11, 11939, Note_on_c, 10, 81, 0
11, 11940, Note_on_c, 10, 81, 68
11, 11999, Note_on_c, 10, 81, 0
11, 12000, Note_on_c, 10, 79, 69
11, 12239, Note_on_c, 10, 79, 0
11, 12540, Note_on_c, 10, 77, 71
11, 12599, Note_on_c, 10, 77, 0
11, 12600, Note_on_c, 10, 77, 71
11, 12659, Note_on_c, 10, 77, 0
11, 12660, Note_on_c, 10, 77, 72
11, 12719, Note_on_c, 10, 77, 0
11, 12720, Note_on_c, 10, 77, 71
11, 12779, Note_on_c, 10, 77, 0
11, 12780, Note_on_c, 10, 77, 71
11, 12839, Note_on_c, 10, 77, 0
11, 12840, Note_on_c, 10, 77, 71
11, 12899, Note_on_c, 10, 77, 0
11, 12900, Note_on_c, 10, 77, 70
11, 12959, Note_on_c, 10, 77, 0
11, 12960, Note_on_c, 10, 76, 70
11, 13199, Note_on_c, 10, 76, 0
11, 13500, Note_on_c, 10, 74, 71
11, 13559, Note_on_c, 10, 74, 0
11, 13560, Note_on_c, 10, 74, 72
11, 13619, Note_on_c, 10, 74, 0
11, 13620, Note_on_c, 10, 74, 72
11, 13679, Note_on_c, 10, 74, 0
11, 13680, Note_on_c, 10, 74, 72
11, 13739, Note_on_c, 10, 74, 0
11, 13740, Note_on_c, 10, 74, 71
11, 13799, Note_on_c, 10, 74, 0
11, 13800, Note_on_c, 10, 74, 70
11, 13859, Note_on_c, 10, 74, 0
11, 13860, Note_on_c, 10, 74, 69
11, 13919, Note_on_c, 10, 74, 0
11, 13920, Note_on_c, 10, 72, 69
11, 14039, Note_on_c, 10, 72, 0
11, 14160, Note_on_c, 10, 72, 69
11, 14279, Note_on_c, 10, 72, 0
11, 14400, Note_on_c, 10, 72, 70
11, 14519, Note_on_c, 10, 72, 0
11, 15600, Note_on_c, 10, 77, 114
11, 15659, Note_on_c, 10, 77, 0
11, 15660, Note_on_c, 10, 77, 94
11, 15719, Note_on_c, 10, 77, 0
11, 15720, Note_on_c, 10, 77, 70
11, 15779, Note_on_c, 10, 77, 0
11, 15780, Note_on_c, 10, 77, 71
11, 15839, Note_on_c, 10, 77, 0
11, 15840, Note_on_c, 10, 79, 116
11, 15899, Note_on_c, 10, 79, 0
11, 15900, Note_on_c, 10, 79, 95
11, 15959, Note_on_c, 10, 79, 0
11, 15960, Note_on_c, 10, 79, 69
11, 16019, Note_on_c, 10, 79, 0
11, 16020, Note_on_c, 10, 79, 69
11, 16079, Note_on_c, 10, 79, 0
11, 16080, Note_on_c, 10, 82, 114
11, 16139, Note_on_c, 10, 82, 0
11, 16140, Note_on_c, 10, 82, 93
11, 16199, Note_on_c, 10, 82, 0
11, 16200, Note_on_c, 10, 82, 70
11, 16259, Note_on_c, 10, 82, 0
11, 16260, Note_on_c, 10, 82, 70
11, 16319, Note_on_c, 10, 82, 0
11, 16320, Note_on_c, 10, 72, 113
11, 16379, Note_on_c, 10, 72, 0
11, 16380, Note_on_c, 10, 72, 94
11, 16499, Note_on_c, 10, 72, 0
11, 16500, Note_on_c, 10, 72, 71
11, 16619, Note_on_c, 10, 72, 0
11, 16620, Note_on_c, 10, 72, 72
11, 16679, Note_on_c, 10, 72, 0
11, 16680, Note_on_c, 10, 74, 72
11, 16739, Note_on_c, 10, 74, 0
11, 16740, Note_on_c, 10, 76, 72
11, 16799, Note_on_c, 10, 76, 0
11, 16800, Note_on_c, 10, 77, 72
11, 16859, Note_on_c, 10, 77, 0
11, 16860, Note_on_c, 10, 81, 72
11, 16919, Note_on_c, 10, 81, 0
11, 16920, Note_on_c, 10, 81, 71
11, 16979, Note_on_c, 10, 81, 0
11, 16980, Note_on_c, 10, 81, 71
11, 17039, Note_on_c, 10, 81, 0
11, 17040, Note_on_c, 10, 81, 71
11, 17099, Note_on_c, 10, 81, 0
11, 17100, Note_on_c, 10, 81, 70
11, 17159, Note_on_c, 10, 81, 0
11, 17160, Note_on_c, 10, 81, 70
11, 17219, Note_on_c, 10, 81, 0
11, 17220, Note_on_c, 10, 81, 69
11, 17279, Note_on_c, 10, 81, 0
11, 17280, Note_on_c, 10, 79, 69
11, 17519, Note_on_c, 10, 79, 0
11, 17820, Note_on_c, 10, 77, 70
11, 17879, Note_on_c, 10, 77, 0
11, 17880, Note_on_c, 10, 77, 70
11, 17939, Note_on_c, 10, 77, 0
11, 17940, Note_on_c, 10, 77, 70
11, 17999, Note_on_c, 10, 77, 0
11, 18000, Note_on_c, 10, 77, 70
11, 18059, Note_on_c, 10, 77, 0
11, 18060, Note_on_c, 10, 77, 70
11, 18119, Note_on_c, 10, 77, 0
11, 18120, Note_on_c, 10, 77, 70
11, 18179, Note_on_c, 10, 77, 0
11, 18180, Note_on_c, 10, 77, 70
11, 18239, Note_on_c, 10, 77, 0
11, 18240, Note_on_c, 10, 76, 70
11, 18479, Note_on_c, 10, 76, 0
11, 18780, Note_on_c, 10, 74, 70
11, 18839, Note_on_c, 10, 74, 0
11, 18840, Note_on_c, 10, 74, 69
11, 18899, Note_on_c, 10, 74, 0
11, 18900, Note_on_c, 10, 74, 69
11, 18959, Note_on_c, 10, 74, 0
11, 18960, Note_on_c, 10, 74, 69
11, 19019, Note_on_c, 10, 74, 0
11, 19020, Note_on_c, 10, 74, 69
11, 19079, Note_on_c, 10, 74, 0
11, 19080, Note_on_c, 10, 74, 69
11, 19139, Note_on_c, 10, 74, 0
11, 19140, Note_on_c, 10, 74, 69
11, 19199, Note_on_c, 10, 74, 0
11, 19200, Note_on_c, 10, 72, 68
11, 19319, Note_on_c, 10, 72, 0
11, 19440, Note_on_c, 10, 72, 71
11, 19559, Note_on_c, 10, 72, 0
11, 19680, Note_on_c, 10, 72, 70
11, 19799, Note_on_c, 10, 72, 0
11, 20880, Note_on_c, 10, 77, 109
11, 20939, Note_on_c, 10, 77, 0
11, 20940, Note_on_c, 10, 77, 88
11, 20999, Note_on_c, 10, 77, 0
11, 21000, Note_on_c, 10, 77, 71
11, 21059, Note_on_c, 10, 77, 0
11, 21060, Note_on_c, 10, 77, 71
11, 21119, Note_on_c, 10, 77, 0
11, 21120, Note_on_c, 10, 79, 106
11, 21179, Note_on_c, 10, 79, 0
11, 21180, Note_on_c, 10, 79, 87
11, 21239, Note_on_c, 10, 79, 0
11, 21240, Note_on_c, 10, 79, 71
11, 21299, Note_on_c, 10, 79, 0
11, 21300, Note_on_c, 10, 79, 71
11, 21359, Note_on_c, 10, 79, 0
11, 21360, Note_on_c, 10, 80, 107
11, 21419, Note_on_c, 10, 80, 0
11, 21420, Note_on_c, 10, 80, 85
11, 21479, Note_on_c, 10, 80, 0
11, 21480, Note_on_c, 10, 80, 72
11, 21539, Note_on_c, 10, 80, 0
11, 21540, Note_on_c, 10, 80, 72
11, 21599, Note_on_c, 10, 80, 0
11, 21600, Note_on_c, 10, 81, 72
11, 21659, Note_on_c, 10, 81, 0
11, 21660, Note_on_c, 10, 81, 74
11, 21719, Note_on_c, 10, 81, 0
11, 21720, Note_on_c, 10, 72, 82
11, 21779, Note_on_c, 10, 72, 0
11, 21780, Note_on_c, 10, 72, 87
11, 21839, Note_on_c, 10, 72, 0
11, 21840, Note_on_c, 10, 77, 91
11, 21899, Note_on_c, 10, 77, 0
11, 21900, Note_on_c, 10, 77, 95
11, 21959, Note_on_c, 10, 77, 0
11, 21960, Note_on_c, 10, 81, 102
11, 22019, Note_on_c, 10, 81, 0
11, 22020, Note_on_c, 10, 81, 113
11, 22079, Note_on_c, 10, 81, 0
11, 22080, Note_on_c, 10, 84, 122
11, 22199, Note_on_c, 10, 84, 0
11, 22320, Note_on_c, 10, 76, 125
11, 22320, Note_on_c, 10, 70, 125
11, 22320, Note_on_c, 10, 67, 125
11, 22439, Note_on_c, 10, 67, 0
11, 22439, Note_on_c, 10, 70, 0
11, 22439, Note_on_c, 10, 76, 0
11, 22560, Note_on_c, 10, 77, 123
11, 22589, Note_on_c, 10, 77, 0
11, 22590, Note_on_c, 10, 72, 103
11, 22619, Note_on_c, 10, 72, 0
11, 22620, Note_on_c, 10, 74, 106
11, 22649, Note_on_c, 10, 74, 0
11, 22650, Note_on_c, 10, 76, 109
11, 22679, Note_on_c, 10, 76, 0
11, 22680, Note_on_c, 10, 77, 115
11, 22709, Note_on_c, 10, 77, 0
11, 22710, Note_on_c, 10, 79, 121
11, 22739, Note_on_c, 10, 79, 0
11, 22740, Note_on_c, 10, 81, 126
11, 22769, Note_on_c, 10, 81, 0
11, 22770, Note_on_c, 10, 82, 127
11, 22799, Note_on_c, 10, 82, 0
11, 22800, Note_on_c, 10, 84, 127
11, 22829, Note_on_c, 10, 84, 0
11, 22830, Note_on_c, 10, 82, 125
11, 22859, Note_on_c, 10, 82, 0
11, 22860, Note_on_c, 10, 81, 116
11, 22889, Note_on_c, 10, 81, 0
11, 22890, Note_on_c, 10, 79, 108
11, 22919, Note_on_c, 10, 79, 0
11, 22920, Note_on_c, 10, 81, 106
11, 22949, Note_on_c, 10, 81, 0
11, 22950, Note_on_c, 10, 79, 105
11, 22979, Note_on_c, 10, 79, 0
11, 22980, Note_on_c, 10, 77, 105
11, 23009, Note_on_c, 10, 77, 0
11, 23010, Note_on_c, 10, 76, 103
11, 23039, Note_on_c, 10, 76, 0
11, 23040, Note_on_c, 10, 77, 105
11, 23069, Note_on_c, 10, 77, 0
11, 23070, Note_on_c, 10, 72, 106
11, 23099, Note_on_c, 10, 72, 0
11, 23100, Note_on_c, 10, 74, 111
11, 23129, Note_on_c, 10, 74, 0
11, 23130, Note_on_c, 10, 76, 114
11, 23159, Note_on_c, 10, 76, 0
11, 23160, Note_on_c, 10, 77, 117
11, 23189, Note_on_c, 10, 77, 0
11, 23190, Note_on_c, 10, 79, 119
11, 23219, Note_on_c, 10, 79, 0
11, 23220, Note_on_c, 10, 81, 122
11, 23249, Note_on_c, 10, 81, 0
11, 23250, Note_on_c, 10, 82, 127
11, 23279, Note_on_c, 10, 82, 0
11, 23280, Note_on_c, 10, 84, 127
11, 23309, Note_on_c, 10, 84, 0
11, 23310, Note_on_c, 10, 82, 126
11, 23339, Note_on_c, 10, 82, 0
11, 23340, Note_on_c, 10, 81, 122
11, 23369, Note_on_c, 10, 81, 0
11, 23370, Note_on_c, 10, 79, 118
11, 23399, Note_on_c, 10, 79, 0
11, 23400, Note_on_c, 10, 81, 115
11, 23429, Note_on_c, 10, 81, 0
11, 23430, Note_on_c, 10, 79, 109
11, 23459, Note_on_c, 10, 79, 0
11, 23460, Note_on_c, 10, 77, 106
11, 23489, Note_on_c, 10, 77, 0
11, 23490, Note_on_c, 10, 76, 104
11, 23519, Note_on_c, 10, 76, 0
11, 23520, Note_on_c, 10, 77, 110
11, 23550, Note_on_c, 10, 77, 0
11, 23550, Note_on_c, 10, 77, 114
11, 23580, Note_on_c, 10, 77, 0
11, 23580, Note_on_c, 10, 81, 119
11, 23610, Note_on_c, 10, 81, 0
11, 23610, Note_on_c, 10, 81, 127
11, 23640, Note_on_c, 10, 81, 0
11, 23640, Note_on_c, 10, 74, 123
11, 23670, Note_on_c, 10, 74, 0
11, 23670, Note_on_c, 10, 74, 123
11, 23700, Note_on_c, 10, 74, 0
11, 23700, Note_on_c, 10, 77, 123
11, 23730, Note_on_c, 10, 77, 0
11, 23730, Note_on_c, 10, 77, 122
11, 23760, Note_on_c, 10, 77, 0
11, 23760, Note_on_c, 10, 70, 122
11, 23790, Note_on_c, 10, 70, 0
11, 23790, Note_on_c, 10, 70, 122
11, 23820, Note_on_c, 10, 70, 0
11, 23820, Note_on_c, 10, 74, 122
11, 23850, Note_on_c, 10, 74, 0
11, 23850, Note_on_c, 10, 74, 122
11, 23880, Note_on_c, 10, 74, 0
11, 23880, Note_on_c, 10, 67, 121
11, 23910, Note_on_c, 10, 67, 0
11, 23910, Note_on_c, 10, 67, 120
11, 23940, Note_on_c, 10, 67, 0
11, 23940, Note_on_c, 10, 70, 117
11, 23970, Note_on_c, 10, 70, 0
11, 23970, Note_on_c, 10, 70, 112
11, 24000, Note_on_c, 10, 70, 0
11, 24000, Note_on_c, 10, 64, 105
11, 24119, Note_on_c, 10, 64, 0
11, 24120, Note_on_c, 10, 81, 122
11, 24120, Note_on_c, 10, 72, 122
11, 24120, Note_on_c, 10, 65, 122
11, 24239, Note_on_c, 10, 65, 0
11, 24239, Note_on_c, 10, 72, 0
11, 24239, Note_on_c, 10, 81, 0
11, 24240, Note_on_c, 10, 82, 123
11, 24240, Note_on_c, 10, 74, 123
11, 24240, Note_on_c, 10, 65, 123
11, 24359, Note_on_c, 10, 65, 0
11, 24359, Note_on_c, 10, 74, 0
11, 24359, Note_on_c, 10, 82, 0
11, 24360, Note_on_c, 10, 79, 125
11, 24360, Note_on_c, 10, 72, 125
11, 24360, Note_on_c, 10, 64, 125
11, 24479, Note_on_c, 10, 64, 0
11, 24479, Note_on_c, 10, 72, 0
11, 24479, Note_on_c, 10, 79, 0
11, 24480, Note_on_c, 10, 77, 69
11, 24509, Note_on_c, 10, 77, 0
11, 24510, Note_on_c, 10, 77, 70
11, 24539, Note_on_c, 10, 77, 0
11, 24540, Note_on_c, 10, 77, 70
11, 24569, Note_on_c, 10, 77, 0
11, 24570, Note_on_c, 10, 77, 70
11, 24599, Note_on_c, 10, 77, 0
11, 24600, Note_on_c, 10, 77, 70
11, 24630, Note_on_c, 10, 77, 0
11, 24630, Note_on_c, 10, 77, 70
11, 24660, Note_on_c, 10, 77, 0
11, 24660, Note_on_c, 10, 77, 70
11, 24690, Note_on_c, 10, 77, 0
11, 24690, Note_on_c, 10, 77, 70
11, 24720, Note_on_c, 10, 77, 0
11, 24720, Note_on_c, 10, 77, 70
11, 24750, Note_on_c, 10, 77, 0
11, 24750, Note_on_c, 10, 77, 69
11, 24780, Note_on_c, 10, 77, 0
11, 24780, Note_on_c, 10, 77, 69
11, 24810, Note_on_c, 10, 77, 0
11, 24810, Note_on_c, 10, 77, 69
11, 24840, Note_on_c, 10, 77, 0
11, 24840, Note_on_c, 10, 77, 69
11, 24870, Note_on_c, 10, 77, 0
11, 24870, Note_on_c, 10, 77, 69
11, 24900, Note_on_c, 10, 77, 0
11, 24900, Note_on_c, 10, 77, 70
11, 24930, Note_on_c, 10, 77, 0
11, 24930, Note_on_c, 10, 77, 71
11, 24960, Note_on_c, 10, 77, 0
11, 24960, Note_on_c, 10, 77, 124
11, 24989, Note_on_c, 10, 77, 0
11, 24990, Note_on_c, 10, 77, 122
11, 25019, Note_on_c, 10, 77, 0
11, 25020, Note_on_c, 10, 77, 123
11, 25049, Note_on_c, 10, 77, 0
11, 25050, Note_on_c, 10, 77, 123
11, 25079, Note_on_c, 10, 77, 0
11, 25080, Note_on_c, 10, 77, 124
11, 25110, Note_on_c, 10, 77, 0
11, 25110, Note_on_c, 10, 77, 124
11, 25140, Note_on_c, 10, 77, 0
11, 25140, Note_on_c, 10, 77, 124
11, 25170, Note_on_c, 10, 77, 0
11, 25170, Note_on_c, 10, 77, 124
11, 25200, Note_on_c, 10, 77, 0
11, 25200, Note_on_c, 10, 77, 124
11, 25230, Note_on_c, 10, 77, 0
11, 25230, Note_on_c, 10, 77, 124
11, 25260, Note_on_c, 10, 77, 0
11, 25260, Note_on_c, 10, 77, 124
11, 25290, Note_on_c, 10, 77, 0
11, 25290, Note_on_c, 10, 77, 124
11, 25320, Note_on_c, 10, 77, 0
11, 25320, Note_on_c, 10, 77, 124
11, 25350, Note_on_c, 10, 77, 0
11, 25350, Note_on_c, 10, 77, 123
11, 25380, Note_on_c, 10, 77, 0
11, 25380, Note_on_c, 10, 77, 124
11, 25410, Note_on_c, 10, 77, 0
11, 25410, Note_on_c, 10, 77, 124
11, 25440, Note_on_c, 10, 77, 0
11, 25440, Note_on_c, 10, 77, 72
11, 25469, Note_on_c, 10, 77, 0
11, 25470, Note_on_c, 10, 77, 73
11, 25499, Note_on_c, 10, 77, 0
11, 25500, Note_on_c, 10, 77, 73
11, 25529, Note_on_c, 10, 77, 0
11, 25530, Note_on_c, 10, 77, 74
11, 25559, Note_on_c, 10, 77, 0
11, 25560, Note_on_c, 10, 77, 74
11, 25590, Note_on_c, 10, 77, 0
11, 25590, Note_on_c, 10, 77, 73
11, 25620, Note_on_c, 10, 77, 0
11, 25620, Note_on_c, 10, 77, 73
11, 25650, Note_on_c, 10, 77, 0
11, 25650, Note_on_c, 10, 77, 73
11, 25680, Note_on_c, 10, 77, 0
11, 25680, Note_on_c, 10, 77, 72
11, 25710, Note_on_c, 10, 77, 0
11, 25710, Note_on_c, 10, 77, 72
11, 25740, Note_on_c, 10, 77, 0
11, 25740, Note_on_c, 10, 77, 72
11, 25770, Note_on_c, 10, 77, 0
11, 25770, Note_on_c, 10, 77, 72
11, 25800, Note_on_c, 10, 77, 0
11, 25800, Note_on_c, 10, 77, 73
11, 25830, Note_on_c, 10, 77, 0
11, 25830, Note_on_c, 10, 77, 73
11, 25860, Note_on_c, 10, 77, 0
11, 25860, Note_on_c, 10, 77, 73
11, 25890, Note_on_c, 10, 77, 0
11, 25890, Note_on_c, 10, 77, 73
11, 25920, Note_on_c, 10, 77, 0
11, 25920, Note_on_c, 10, 77, 122
11, 25949, Note_on_c, 10, 77, 0
11, 25950, Note_on_c, 10, 77, 123
11, 25979, Note_on_c, 10, 77, 0
11, 25980, Note_on_c, 10, 77, 123
11, 26009, Note_on_c, 10, 77, 0
11, 26010, Note_on_c, 10, 77, 123
11, 26039, Note_on_c, 10, 77, 0
11, 26040, Note_on_c, 10, 77, 123
11, 26070, Note_on_c, 10, 77, 0
11, 26070, Note_on_c, 10, 77, 124
11, 26100, Note_on_c, 10, 77, 0
11, 26100, Note_on_c, 10, 77, 125
11, 26130, Note_on_c, 10, 77, 0
11, 26130, Note_on_c, 10, 77, 125
11, 26160, Note_on_c, 10, 77, 0
11, 26160, Note_on_c, 10, 77, 125
11, 26190, Note_on_c, 10, 77, 0
11, 26190, Note_on_c, 10, 77, 125
11, 26220, Note_on_c, 10, 77, 0
11, 26220, Note_on_c, 10, 77, 125
11, 26250, Note_on_c, 10, 77, 0
11, 26250, Note_on_c, 10, 77, 125
11, 26280, Note_on_c, 10, 77, 0
11, 26280, Note_on_c, 10, 77, 125
11, 26310, Note_on_c, 10, 77, 0
11, 26310, Note_on_c, 10, 77, 125
11, 26340, Note_on_c, 10, 77, 0
11, 26340, Note_on_c, 10, 77, 125
11, 26370, Note_on_c, 10, 77, 0
11, 26370, Note_on_c, 10, 77, 124
11, 26400, Note_on_c, 10, 77, 0
11, 26400, Note_on_c, 10, 77, 72
11, 26429, Note_on_c, 10, 77, 0
11, 26430, Note_on_c, 10, 77, 72
11, 26459, Note_on_c, 10, 77, 0
11, 26460, Note_on_c, 10, 77, 72
11, 26489, Note_on_c, 10, 77, 0
11, 26490, Note_on_c, 10, 77, 73
11, 26519, Note_on_c, 10, 77, 0
11, 26520, Note_on_c, 10, 77, 73
11, 26550, Note_on_c, 10, 77, 0
11, 26550, Note_on_c, 10, 77, 73
11, 26580, Note_on_c, 10, 77, 0
11, 26580, Note_on_c, 10, 77, 73
11, 26610, Note_on_c, 10, 77, 0
11, 26610, Note_on_c, 10, 77, 72
11, 26640, Note_on_c, 10, 77, 0
11, 26640, Note_on_c, 10, 77, 72
11, 26670, Note_on_c, 10, 77, 0
11, 26670, Note_on_c, 10, 77, 72
11, 26700, Note_on_c, 10, 77, 0
11, 26700, Note_on_c, 10, 77, 72
11, 26730, Note_on_c, 10, 77, 0
11, 26730, Note_on_c, 10, 77, 72
11, 26760, Note_on_c, 10, 77, 0
11, 26760, Note_on_c, 10, 77, 72
11, 26790, Note_on_c, 10, 77, 0
11, 26790, Note_on_c, 10, 77, 72
11, 26820, Note_on_c, 10, 77, 0
11, 26820, Note_on_c, 10, 77, 72
11, 26850, Note_on_c, 10, 77, 0
11, 26850, Note_on_c, 10, 77, 72
11, 26880, Note_on_c, 10, 77, 0
11, 26880, Note_on_c, 10, 77, 125
11, 26909, Note_on_c, 10, 77, 0
11, 26910, Note_on_c, 10, 77, 125
11, 26939, Note_on_c, 10, 77, 0
11, 26940, Note_on_c, 10, 77, 125
11, 26969, Note_on_c, 10, 77, 0
11, 26970, Note_on_c, 10, 77, 125
11, 26999, Note_on_c, 10, 77, 0
11, 27000, Note_on_c, 10, 77, 125
11, 27030, Note_on_c, 10, 77, 0
11, 27030, Note_on_c, 10, 77, 125
11, 27060, Note_on_c, 10, 77, 0
11, 27060, Note_on_c, 10, 77, 125
11, 27090, Note_on_c, 10, 77, 0
11, 27090, Note_on_c, 10, 77, 124
11, 27120, Note_on_c, 10, 77, 0
11, 27120, Note_on_c, 10, 77, 124
11, 27150, Note_on_c, 10, 77, 0
11, 27150, Note_on_c, 10, 77, 125
11, 27180, Note_on_c, 10, 77, 0
11, 27180, Note_on_c, 10, 77, 125
11, 27210, Note_on_c, 10, 77, 0
11, 27210, Note_on_c, 10, 77, 125
11, 27240, Note_on_c, 10, 77, 0
11, 27240, Note_on_c, 10, 77, 125
11, 27270, Note_on_c, 10, 77, 0
11, 27270, Note_on_c, 10, 77, 125
11, 27300, Note_on_c, 10, 77, 0
11, 27300, Note_on_c, 10, 77, 124
11, 27330, Note_on_c, 10, 77, 0
11, 27330, Note_on_c, 10, 77, 124
11, 27360, Note_on_c, 10, 77, 0
11, 27360, Note_on_c, 10, 77, 71
11, 27389, Note_on_c, 10, 77, 0
11, 27390, Note_on_c, 10, 77, 71
11, 27419, Note_on_c, 10, 77, 0
11, 27420, Note_on_c, 10, 77, 71
11, 27449, Note_on_c, 10, 77, 0
11, 27450, Note_on_c, 10, 77, 72
11, 27479, Note_on_c, 10, 77, 0
11, 27480, Note_on_c, 10, 77, 72
11, 27510, Note_on_c, 10, 77, 0
11, 27510, Note_on_c, 10, 77, 72
11, 27540, Note_on_c, 10, 77, 0
11, 27540, Note_on_c, 10, 77, 73
11, 27570, Note_on_c, 10, 77, 0
11, 27570, Note_on_c, 10, 77, 73
11, 27600, Note_on_c, 10, 77, 0
11, 27600, Note_on_c, 10, 77, 74
11, 27630, Note_on_c, 10, 77, 0
11, 27630, Note_on_c, 10, 77, 73
11, 27660, Note_on_c, 10, 77, 0
11, 27660, Note_on_c, 10, 77, 73
11, 27690, Note_on_c, 10, 77, 0
11, 27690, Note_on_c, 10, 77, 73
11, 27720, Note_on_c, 10, 77, 0
11, 27720, Note_on_c, 10, 77, 73
11, 27750, Note_on_c, 10, 77, 0
11, 27750, Note_on_c, 10, 77, 73
11, 27780, Note_on_c, 10, 77, 0
11, 27780, Note_on_c, 10, 77, 72
11, 27810, Note_on_c, 10, 77, 0
11, 27810, Note_on_c, 10, 77, 72
11, 27840, Note_on_c, 10, 77, 0
11, 27840, Note_on_c, 10, 77, 124
11, 27869, Note_on_c, 10, 77, 0
11, 27870, Note_on_c, 10, 77, 124
11, 27899, Note_on_c, 10, 77, 0
11, 27900, Note_on_c, 10, 77, 124
11, 27929, Note_on_c, 10, 77, 0
11, 27930, Note_on_c, 10, 77, 124
11, 27959, Note_on_c, 10, 77, 0
11, 27960, Note_on_c, 10, 77, 125
11, 27990, Note_on_c, 10, 77, 0
11, 27990, Note_on_c, 10, 77, 125
11, 28020, Note_on_c, 10, 77, 0
11, 28020, Note_on_c, 10, 77, 125
11, 28050, Note_on_c, 10, 77, 0
11, 28050, Note_on_c, 10, 77, 126
11, 28080, Note_on_c, 10, 77, 0
11, 28080, Note_on_c, 10, 77, 126
11, 28110, Note_on_c, 10, 77, 0
11, 28110, Note_on_c, 10, 77, 126
11, 28140, Note_on_c, 10, 77, 0
11, 28140, Note_on_c, 10, 77, 126
11, 28170, Note_on_c, 10, 77, 0
11, 28170, Note_on_c, 10, 77, 126
11, 28200, Note_on_c, 10, 77, 0
11, 28200, Note_on_c, 10, 77, 126
11, 28230, Note_on_c, 10, 77, 0
11, 28230, Note_on_c, 10, 77, 126
11, 28260, Note_on_c, 10, 77, 0
11, 28260, Note_on_c, 10, 77, 125
11, 28290, Note_on_c, 10, 77, 0
11, 28290, Note_on_c, 10, 77, 125
11, 28320, Note_on_c, 10, 77, 0
11, 28320, Note_on_c, 10, 75, 100
11, 28350, Note_on_c, 10, 75, 0
11, 28350, Note_on_c, 10, 75, 71
11, 28380, Note_on_c, 10, 75, 0
11, 28380, Note_on_c, 10, 75, 72
11, 28410, Note_on_c, 10, 75, 0
11, 28410, Note_on_c, 10, 75, 72
11, 28440, Note_on_c, 10, 75, 0
11, 28440, Note_on_c, 10, 75, 71
11, 28470, Note_on_c, 10, 75, 0
11, 28470, Note_on_c, 10, 75, 71
11, 28500, Note_on_c, 10, 75, 0
11, 28500, Note_on_c, 10, 75, 71
11, 28530, Note_on_c, 10, 75, 0
11, 28530, Note_on_c, 10, 75, 72
11, 28560, Note_on_c, 10, 75, 0
11, 28560, Note_on_c, 10, 72, 73
11, 28590, Note_on_c, 10, 72, 0
11, 28590, Note_on_c, 10, 72, 72
11, 28620, Note_on_c, 10, 72, 0
11, 28620, Note_on_c, 10, 72, 71
11, 28650, Note_on_c, 10, 72, 0
11, 28650, Note_on_c, 10, 72, 70
11, 28680, Note_on_c, 10, 72, 0
11, 28680, Note_on_c, 10, 72, 70
11, 28710, Note_on_c, 10, 72, 0
11, 28710, Note_on_c, 10, 72, 70
11, 28740, Note_on_c, 10, 72, 0
11, 28740, Note_on_c, 10, 72, 70
11, 28770, Note_on_c, 10, 72, 0
11, 28770, Note_on_c, 10, 72, 69
11, 28800, Note_on_c, 10, 72, 0
11, 28800, Note_on_c, 10, 69, 69
11, 28830, Note_on_c, 10, 69, 0
11, 28830, Note_on_c, 10, 69, 70
11, 28860, Note_on_c, 10, 69, 0
11, 28860, Note_on_c, 10, 69, 70
11, 28890, Note_on_c, 10, 69, 0
11, 28890, Note_on_c, 10, 69, 70
11, 28920, Note_on_c, 10, 69, 0
11, 28920, Note_on_c, 10, 69, 70
11, 28950, Note_on_c, 10, 69, 0
11, 28950, Note_on_c, 10, 69, 70
11, 28980, Note_on_c, 10, 69, 0
11, 28980, Note_on_c, 10, 69, 70
11, 29010, Note_on_c, 10, 69, 0
11, 29010, Note_on_c, 10, 69, 71
11, 29040, Note_on_c, 10, 69, 0
11, 29040, Note_on_c, 10, 74, 71
11, 29070, Note_on_c, 10, 74, 0
11, 29070, Note_on_c, 10, 74, 72
11, 29100, Note_on_c, 10, 74, 0
11, 29100, Note_on_c, 10, 74, 72
11, 29130, Note_on_c, 10, 74, 0
11, 29130, Note_on_c, 10, 74, 73
11, 29160, Note_on_c, 10, 74, 0
11, 29160, Note_on_c, 10, 74, 73
11, 29190, Note_on_c, 10, 74, 0
11, 29190, Note_on_c, 10, 74, 73
11, 29220, Note_on_c, 10, 74, 0
11, 29220, Note_on_c, 10, 74, 73
11, 29250, Note_on_c, 10, 74, 0
11, 29250, Note_on_c, 10, 74, 73
11, 29280, Note_on_c, 10, 74, 0
11, 29280, Note_on_c, 10, 79, 73
11, 29310, Note_on_c, 10, 79, 0
11, 29310, Note_on_c, 10, 79, 73
11, 29340, Note_on_c, 10, 79, 0
11, 29340, Note_on_c, 10, 79, 73
11, 29370, Note_on_c, 10, 79, 0
11, 29370, Note_on_c, 10, 79, 73
11, 29400, Note_on_c, 10, 79, 0
11, 29400, Note_on_c, 10, 79, 73
11, 29430, Note_on_c, 10, 79, 0
11, 29430, Note_on_c, 10, 79, 73
11, 29460, Note_on_c, 10, 79, 0
11, 29460, Note_on_c, 10, 79, 73
11, 29490, Note_on_c, 10, 79, 0
11, 29490, Note_on_c, 10, 79, 73
11, 29520, Note_on_c, 10, 79, 0
11, 29520, Note_on_c, 10, 79, 73
11, 29550, Note_on_c, 10, 79, 0
11, 29550, Note_on_c, 10, 79, 73
11, 29580, Note_on_c, 10, 79, 0
11, 29580, Note_on_c, 10, 79, 73
11, 29610, Note_on_c, 10, 79, 0
11, 29610, Note_on_c, 10, 79, 72
11, 29640, Note_on_c, 10, 79, 0
11, 29640, Note_on_c, 10, 79, 71
11, 29670, Note_on_c, 10, 79, 0
11, 29670, Note_on_c, 10, 79, 71
11, 29700, Note_on_c, 10, 79, 0
11, 29700, Note_on_c, 10, 79, 71
11, 29730, Note_on_c, 10, 79, 0
11, 29730, Note_on_c, 10, 79, 72
11, 29760, Note_on_c, 10, 79, 0
11, 29760, Note_on_c, 10, 79, 126
11, 29790, Note_on_c, 10, 79, 0
11, 29790, Note_on_c, 10, 79, 127
11, 29820, Note_on_c, 10, 79, 0
11, 29820, Note_on_c, 10, 79, 127
11, 29850, Note_on_c, 10, 79, 0
11, 29850, Note_on_c, 10, 79, 127
11, 29880, Note_on_c, 10, 79, 0
11, 29880, Note_on_c, 10, 79, 127
11, 29910, Note_on_c, 10, 79, 0
11, 29910, Note_on_c, 10, 79, 127
11, 29940, Note_on_c, 10, 79, 0
11, 29940, Note_on_c, 10, 79, 127
11, 29970, Note_on_c, 10, 79, 0
11, 29970, Note_on_c, 10, 79, 127
11, 30000, Note_on_c, 10, 79, 0
11, 30000, Note_on_c, 10, 79, 127
11, 30030, Note_on_c, 10, 79, 0
11, 30030, Note_on_c, 10, 79, 127
11, 30060, Note_on_c, 10, 79, 0
11, 30060, Note_on_c, 10, 79, 126
11, 30090, Note_on_c, 10, 79, 0
11, 30090, Note_on_c, 10, 79, 126
11, 30120, Note_on_c, 10, 79, 0
11, 30120, Note_on_c, 10, 79, 125
11, 30150, Note_on_c, 10, 79, 0
11, 30150, Note_on_c, 10, 79, 125
11, 30180, Note_on_c, 10, 79, 0
11, 30180, Note_on_c, 10, 79, 126
11, 30210, Note_on_c, 10, 79, 0
11, 30210, Note_on_c, 10, 79, 126
11, 30240, Note_on_c, 10, 79, 0
11, 30240, Note_on_c, 10, 79, 70
11, 30270, Note_on_c, 10, 79, 0
11, 30270, Note_on_c, 10, 79, 70
11, 30300, Note_on_c, 10, 79, 0
11, 30300, Note_on_c, 10, 79, 70
11, 30330, Note_on_c, 10, 79, 0
11, 30330, Note_on_c, 10, 79, 70
11, 30360, Note_on_c, 10, 79, 0
11, 30360, Note_on_c, 10, 79, 70
11, 30390, Note_on_c, 10, 79, 0
11, 30390, Note_on_c, 10, 79, 70
11, 30420, Note_on_c, 10, 79, 0
11, 30420, Note_on_c, 10, 79, 71
11, 30450, Note_on_c, 10, 79, 0
11, 30450, Note_on_c, 10, 79, 72
11, 30480, Note_on_c, 10, 79, 0
11, 30480, Note_on_c, 10, 79, 72
11, 30510, Note_on_c, 10, 79, 0
11, 30510, Note_on_c, 10, 79, 72
11, 30540, Note_on_c, 10, 79, 0
11, 30540, Note_on_c, 10, 79, 71
11, 30570, Note_on_c, 10, 79, 0
11, 30570, Note_on_c, 10, 79, 70
11, 30600, Note_on_c, 10, 79, 0
11, 30600, Note_on_c, 10, 79, 70
11, 30630, Note_on_c, 10, 79, 0
11, 30630, Note_on_c, 10, 79, 70
11, 30660, Note_on_c, 10, 79, 0
11, 30660, Note_on_c, 10, 79, 70
11, 30690, Note_on_c, 10, 79, 0
11, 30690, Note_on_c, 10, 79, 70
11, 30720, Note_on_c, 10, 79, 0
11, 30720, Note_on_c, 10, 79, 125
11, 30750, Note_on_c, 10, 79, 0
11, 30750, Note_on_c, 10, 79, 125
11, 30780, Note_on_c, 10, 79, 0
11, 30780, Note_on_c, 10, 79, 125
11, 30810, Note_on_c, 10, 79, 0
11, 30810, Note_on_c, 10, 79, 126
11, 30840, Note_on_c, 10, 79, 0
11, 30840, Note_on_c, 10, 79, 126
11, 30870, Note_on_c, 10, 79, 0
11, 30870, Note_on_c, 10, 79, 126
11, 30900, Note_on_c, 10, 79, 0
11, 30900, Note_on_c, 10, 79, 127
11, 30930, Note_on_c, 10, 79, 0
11, 30930, Note_on_c, 10, 79, 127
11, 30960, Note_on_c, 10, 79, 0
11, 30960, Note_on_c, 10, 79, 127
11, 30990, Note_on_c, 10, 79, 0
11, 30990, Note_on_c, 10, 79, 127
11, 31020, Note_on_c, 10, 79, 0
11, 31020, Note_on_c, 10, 79, 127
11, 31050, Note_on_c, 10, 79, 0
11, 31050, Note_on_c, 10, 79, 127
11, 31080, Note_on_c, 10, 79, 0
11, 31080, Note_on_c, 10, 79, 126
11, 31110, Note_on_c, 10, 79, 0
11, 31110, Note_on_c, 10, 79, 126
11, 31140, Note_on_c, 10, 79, 0
11, 31140, Note_on_c, 10, 79, 126
11, 31170, Note_on_c, 10, 79, 0
11, 31170, Note_on_c, 10, 79, 126
11, 31200, Note_on_c, 10, 79, 0
11, 31200, Note_on_c, 10, 77, 72
11, 31230, Note_on_c, 10, 77, 0
11, 31230, Note_on_c, 10, 77, 72
11, 31260, Note_on_c, 10, 77, 0
11, 31260, Note_on_c, 10, 77, 72
11, 31290, Note_on_c, 10, 77, 0
11, 31290, Note_on_c, 10, 77, 72
11, 31320, Note_on_c, 10, 77, 0
11, 31320, Note_on_c, 10, 77, 72
11, 31350, Note_on_c, 10, 77, 0
11, 31350, Note_on_c, 10, 77, 72
11, 31380, Note_on_c, 10, 77, 0
11, 31380, Note_on_c, 10, 77, 71
11, 31410, Note_on_c, 10, 77, 0
11, 31410, Note_on_c, 10, 77, 71
11, 31440, Note_on_c, 10, 77, 0
11, 31440, Note_on_c, 10, 74, 70
11, 31470, Note_on_c, 10, 74, 0
11, 31470, Note_on_c, 10, 74, 71
11, 31500, Note_on_c, 10, 74, 0
11, 31500, Note_on_c, 10, 74, 72
11, 31530, Note_on_c, 10, 74, 0
11, 31530, Note_on_c, 10, 74, 72
11, 31560, Note_on_c, 10, 74, 0
11, 31560, Note_on_c, 10, 74, 71
11, 31590, Note_on_c, 10, 74, 0
11, 31590, Note_on_c, 10, 74, 71
11, 31620, Note_on_c, 10, 74, 0
11, 31620, Note_on_c, 10, 74, 71
11, 31650, Note_on_c, 10, 74, 0
11, 31650, Note_on_c, 10, 74, 71
11, 31680, Note_on_c, 10, 74, 0
11, 31680, Note_on_c, 10, 71, 70
11, 31710, Note_on_c, 10, 71, 0
11, 31710, Note_on_c, 10, 71, 70
11, 31740, Note_on_c, 10, 71, 0
11, 31740, Note_on_c, 10, 71, 70
11, 31770, Note_on_c, 10, 71, 0
11, 31770, Note_on_c, 10, 71, 70
11, 31800, Note_on_c, 10, 71, 0
11, 31800, Note_on_c, 10, 71, 70
11, 31830, Note_on_c, 10, 71, 0
11, 31830, Note_on_c, 10, 71, 70
11, 31860, Note_on_c, 10, 71, 0
11, 31860, Note_on_c, 10, 71, 70
11, 31890, Note_on_c, 10, 71, 0
11, 31890, Note_on_c, 10, 71, 70
11, 31920, Note_on_c, 10, 71, 0
11, 31920, Note_on_c, 10, 76, 69
11, 31950, Note_on_c, 10, 76, 0
11, 31950, Note_on_c, 10, 76, 70
11, 31980, Note_on_c, 10, 76, 0
11, 31980, Note_on_c, 10, 76, 70
11, 32010, Note_on_c, 10, 76, 0
11, 32010, Note_on_c, 10, 76, 70
11, 32040, Note_on_c, 10, 76, 0
11, 32040, Note_on_c, 10, 76, 70
11, 32070, Note_on_c, 10, 76, 0
11, 32070, Note_on_c, 10, 76, 70
11, 32100, Note_on_c, 10, 76, 0
11, 32100, Note_on_c, 10, 76, 69
11, 32130, Note_on_c, 10, 76, 0
11, 32130, Note_on_c, 10, 76, 69
11, 32160, Note_on_c, 10, 76, 0
11, 32160, Note_on_c, 10, 69, 70
11, 32279, Note_on_c, 10, 69, 0
11, 32280, Note_on_c, 10, 69, 101
11, 32519, Note_on_c, 10, 69, 0
11, 32520, Note_on_c, 10, 69, 121
11, 32759, Note_on_c, 10, 69, 0
11, 32760, Note_on_c, 10, 64, 70
11, 32879, Note_on_c, 10, 64, 0
11, 32880, Note_on_c, 10, 64, 69
11, 32999, Note_on_c, 10, 64, 0
11, 33000, Note_on_c, 10, 64, 70
11, 33119, Note_on_c, 10, 64, 0
11, 33240, Note_on_c, 10, 65, 71
11, 33359, Note_on_c, 10, 65, 0
11, 33360, Note_on_c, 10, 65, 73
11, 33479, Note_on_c, 10, 65, 0
11, 33480, Note_on_c, 10, 65, 70
11, 33599, Note_on_c, 10, 65, 0
11, 33720, Note_on_c, 10, 64, 71
11, 33839, Note_on_c, 10, 64, 0
11, 33840, Note_on_c, 10, 64, 71
11, 33959, Note_on_c, 10, 64, 0
11, 33960, Note_on_c, 10, 64, 70
11, 34079, Note_on_c, 10, 64, 0
11, 34200, Note_on_c, 10, 65, 71
11, 34319, Note_on_c, 10, 65, 0
11, 34320, Note_on_c, 10, 65, 72
11, 34439, Note_on_c, 10, 65, 0
11, 34440, Note_on_c, 10, 65, 72
11, 34559, Note_on_c, 10, 65, 0
11, 34680, Note_on_c, 10, 64, 72
11, 34799, Note_on_c, 10, 64, 0
11, 34800, Note_on_c, 10, 64, 72
11, 34919, Note_on_c, 10, 64, 0
11, 34920, Note_on_c, 10, 64, 72
11, 35039, Note_on_c, 10, 64, 0
11, 35040, Note_on_c, 10, 65, 72
11, 35099, Note_on_c, 10, 65, 0
11, 35100, Note_on_c, 10, 74, 72
11, 35159, Note_on_c, 10, 74, 0
11, 35160, Note_on_c, 10, 77, 72
11, 35219, Note_on_c, 10, 77, 0
11, 35220, Note_on_c, 10, 81, 72
11, 35279, Note_on_c, 10, 81, 0
11, 35280, Note_on_c, 10, 86, 71
11, 35339, Note_on_c, 10, 86, 0
11, 35340, Note_on_c, 10, 81, 71
11, 35399, Note_on_c, 10, 81, 0
11, 35400, Note_on_c, 10, 82, 70
11, 35459, Note_on_c, 10, 82, 0
11, 35460, Note_on_c, 10, 79, 70
11, 35519, Note_on_c, 10, 79, 0
11, 35520, Note_on_c, 10, 81, 71
11, 35639, Note_on_c, 10, 81, 0
11, 35760, Note_on_c, 10, 69, 70
11, 35819, Note_on_c, 10, 69, 0
11, 35880, Note_on_c, 10, 70, 70
11, 35939, Note_on_c, 10, 70, 0
11, 36000, Note_on_c, 10, 69, 70
11, 36059, Note_on_c, 10, 69, 0
11, 36060, Note_on_c, 10, 74, 71
11, 36119, Note_on_c, 10, 74, 0
11, 36120, Note_on_c, 10, 77, 70
11, 36179, Note_on_c, 10, 77, 0
11, 36180, Note_on_c, 10, 81, 70
11, 36239, Note_on_c, 10, 81, 0
11, 36240, Note_on_c, 10, 86, 70
11, 36299, Note_on_c, 10, 86, 0
11, 36300, Note_on_c, 10, 81, 69
11, 36359, Note_on_c, 10, 81, 0
11, 36360, Note_on_c, 10, 82, 69
11, 36419, Note_on_c, 10, 82, 0
11, 36420, Note_on_c, 10, 79, 69
11, 36479, Note_on_c, 10, 79, 0
11, 36480, Note_on_c, 10, 81, 69
11, 36599, Note_on_c, 10, 81, 0
11, 36720, Note_on_c, 10, 69, 72
11, 36779, Note_on_c, 10, 69, 0
11, 36840, Note_on_c, 10, 70, 72
11, 36899, Note_on_c, 10, 70, 0
11, 36960, Note_on_c, 10, 69, 73
11, 37079, Note_on_c, 10, 69, 0
11, 37320, Note_on_c, 10, 74, 70
11, 37379, Note_on_c, 10, 74, 0
11, 37440, Note_on_c, 10, 74, 70
11, 37499, Note_on_c, 10, 74, 0
11, 37560, Note_on_c, 10, 72, 71
11, 37619, Note_on_c, 10, 72, 0
11, 37680, Note_on_c, 10, 72, 71
11, 37739, Note_on_c, 10, 72, 0
11, 37800, Note_on_c, 10, 70, 72
11, 37859, Note_on_c, 10, 70, 0
11, 37920, Note_on_c, 10, 70, 70
11, 37979, Note_on_c, 10, 70, 0
11, 38040, Note_on_c, 10, 69, 69
11, 38099, Note_on_c, 10, 69, 0
11, 38160, Note_on_c, 10, 69, 69
11, 38279, Note_on_c, 10, 69, 0
11, 38400, Note_on_c, 10, 63, 71
11, 38430, Note_on_c, 10, 63, 0
11, 38430, Note_on_c, 10, 63, 71
11, 38460, Note_on_c, 10, 63, 0
11, 38460, Note_on_c, 10, 63, 71
11, 38490, Note_on_c, 10, 63, 0
11, 38490, Note_on_c, 10, 63, 72
11, 38520, Note_on_c, 10, 63, 0
11, 38520, Note_on_c, 10, 63, 72
11, 38550, Note_on_c, 10, 63, 0
11, 38550, Note_on_c, 10, 63, 72
11, 38580, Note_on_c, 10, 63, 0
11, 38580, Note_on_c, 10, 63, 72
11, 38610, Note_on_c, 10, 63, 0
11, 38610, Note_on_c, 10, 63, 71
11, 38640, Note_on_c, 10, 63, 0
11, 38640, Note_on_c, 10, 63, 71
11, 38670, Note_on_c, 10, 63, 0
11, 38670, Note_on_c, 10, 63, 71
11, 38700, Note_on_c, 10, 63, 0
11, 38700, Note_on_c, 10, 63, 71
11, 38730, Note_on_c, 10, 63, 0
11, 38730, Note_on_c, 10, 63, 71
11, 38760, Note_on_c, 10, 63, 0
11, 38760, Note_on_c, 10, 63, 70
11, 38790, Note_on_c, 10, 63, 0
11, 38790, Note_on_c, 10, 63, 70
11, 38820, Note_on_c, 10, 63, 0
11, 38820, Note_on_c, 10, 63, 70
11, 38850, Note_on_c, 10, 63, 0
11, 38850, Note_on_c, 10, 63, 70
11, 38880, Note_on_c, 10, 63, 0
11, 38880, Note_on_c, 10, 63, 70
11, 38910, Note_on_c, 10, 63, 0
11, 38910, Note_on_c, 10, 63, 71
11, 38940, Note_on_c, 10, 63, 0
11, 38940, Note_on_c, 10, 63, 71
11, 38970, Note_on_c, 10, 63, 0
11, 38970, Note_on_c, 10, 63, 71
11, 39000, Note_on_c, 10, 63, 0
11, 39000, Note_on_c, 10, 63, 71
11, 39030, Note_on_c, 10, 63, 0
11, 39030, Note_on_c, 10, 63, 71
11, 39060, Note_on_c, 10, 63, 0
11, 39060, Note_on_c, 10, 63, 71
11, 39090, Note_on_c, 10, 63, 0
11, 39090, Note_on_c, 10, 63, 71
11, 39120, Note_on_c, 10, 63, 0
11, 39120, Note_on_c, 10, 63, 71
11, 39150, Note_on_c, 10, 63, 0
11, 39150, Note_on_c, 10, 63, 74
11, 39180, Note_on_c, 10, 63, 0
11, 39180, Note_on_c, 10, 63, 75
11, 39210, Note_on_c, 10, 63, 0
11, 39210, Note_on_c, 10, 63, 79
11, 39240, Note_on_c, 10, 63, 0
11, 39240, Note_on_c, 10, 62, 83
11, 39270, Note_on_c, 10, 62, 0
11, 39270, Note_on_c, 10, 62, 86
11, 39300, Note_on_c, 10, 62, 0
11, 39300, Note_on_c, 10, 62, 89
11, 39330, Note_on_c, 10, 62, 0
11, 39330, Note_on_c, 10, 62, 93
11, 39360, Note_on_c, 10, 62, 0
11, 39360, Note_on_c, 10, 61, 100
11, 39479, Note_on_c, 10, 61, 0
11, 39480, Note_on_c, 10, 64, 125
11, 39480, Note_on_c, 10, 73, 125
11, 39480, Note_on_c, 10, 81, 125
11, 39599, Note_on_c, 10, 81, 0
11, 39599, Note_on_c, 10, 73, 0
11, 39599, Note_on_c, 10, 64, 0
11, 39600, Note_on_c, 10, 57, 125
11, 39719, Note_on_c, 10, 57, 0
11, 39960, Note_on_c, 10, 73, 127
11, 39960, Note_on_c, 10, 81, 127
11, 39960, Note_on_c, 10, 64, 127
11, 40079, Note_on_c, 10, 64, 0
11, 40079, Note_on_c, 10, 81, 0
11, 40079, Note_on_c, 10, 73, 0
11, 40080, Note_on_c, 10, 57, 127
11, 40199, Note_on_c, 10, 57, 0
11, 40440, Note_on_c, 10, 73, 127
11, 40440, Note_on_c, 10, 64, 127
11, 40440, Note_on_c, 10, 81, 127
11, 40559, Note_on_c, 10, 81, 0
11, 40559, Note_on_c, 10, 64, 0
11, 40559, Note_on_c, 10, 73, 0
11, 40560, Note_on_c, 10, 57, 127
11, 40679, Note_on_c, 10, 57, 0
11, 41400, Note_on_c, 10, 67, 124
11, 41430, Note_on_c, 10, 67, 0
11, 41430, Note_on_c, 10, 67, 122
11, 41460, Note_on_c, 10, 67, 0
11, 41460, Note_on_c, 10, 67, 119
11, 41490, Note_on_c, 10, 67, 0
11, 41490, Note_on_c, 10, 67, 118
11, 41520, Note_on_c, 10, 67, 0
11, 41520, Note_on_c, 10, 64, 116
11, 41550, Note_on_c, 10, 64, 0
11, 41550, Note_on_c, 10, 64, 114
11, 41580, Note_on_c, 10, 64, 0
11, 41580, Note_on_c, 10, 64, 111
11, 41610, Note_on_c, 10, 64, 0
11, 41610, Note_on_c, 10, 64, 109
11, 41640, Note_on_c, 10, 64, 0
11, 41640, Note_on_c, 10, 62, 106
11, 41670, Note_on_c, 10, 62, 0
11, 41670, Note_on_c, 10, 62, 102
11, 41700, Note_on_c, 10, 62, 0
11, 41700, Note_on_c, 10, 62, 100
11, 41730, Note_on_c, 10, 62, 0
11, 41730, Note_on_c, 10, 62, 98
11, 41760, Note_on_c, 10, 62, 0
11, 41760, Note_on_c, 10, 61, 96
11, 41999, Note_on_c, 10, 61, 0
11, 42420, Note_on_c, 10, 69, 112
11, 42439, Note_on_c, 10, 69, 0
11, 42440, Note_on_c, 10, 71, 116
11, 42459, Note_on_c, 10, 71, 0
11, 42460, Note_on_c, 10, 73, 120
11, 42479, Note_on_c, 10, 73, 0
11, 42480, Note_on_c, 10, 74, 125
11, 42719, Note_on_c, 10, 74, 0
11, 42900, Note_on_c, 10, 73, 110
11, 42919, Note_on_c, 10, 73, 0
11, 42920, Note_on_c, 10, 74, 114
11, 42939, Note_on_c, 10, 74, 0
11, 42940, Note_on_c, 10, 76, 118
11, 42959, Note_on_c, 10, 76, 0
11, 42960, Note_on_c, 10, 77, 124
11, 43199, Note_on_c, 10, 77, 0
11, 43440, Note_on_c, 10, 62, 93
11, 43679, Note_on_c, 10, 62, 0
11, 43680, Note_on_c, 10, 63, 94
11, 43709, Note_on_c, 10, 63, 0
11, 43710, Note_on_c, 10, 67, 94
11, 43739, Note_on_c, 10, 67, 0
11, 43740, Note_on_c, 10, 65, 93
11, 43769, Note_on_c, 10, 65, 0
11, 43770, Note_on_c, 10, 63, 93
11, 43799, Note_on_c, 10, 63, 0
11, 43800, Note_on_c, 10, 62, 93
11, 43829, Note_on_c, 10, 62, 0
11, 43830, Note_on_c, 10, 65, 92
11, 43859, Note_on_c, 10, 65, 0
11, 43860, Note_on_c, 10, 63, 91
11, 43889, Note_on_c, 10, 63, 0
11, 43890, Note_on_c, 10, 62, 91
11, 43919, Note_on_c, 10, 62, 0
11, 43920, Note_on_c, 10, 63, 91
11, 43949, Note_on_c, 10, 63, 0
11, 43950, Note_on_c, 10, 67, 91
11, 43979, Note_on_c, 10, 67, 0
11, 43980, Note_on_c, 10, 65, 91
11, 44009, Note_on_c, 10, 65, 0
11, 44010, Note_on_c, 10, 63, 91
11, 44039, Note_on_c, 10, 63, 0
11, 44040, Note_on_c, 10, 62, 91
11, 44069, Note_on_c, 10, 62, 0
11, 44070, Note_on_c, 10, 65, 91
11, 44099, Note_on_c, 10, 65, 0
11, 44100, Note_on_c, 10, 63, 91
11, 44129, Note_on_c, 10, 63, 0
11, 44130, Note_on_c, 10, 62, 91
11, 44159, Note_on_c, 10, 62, 0
11, 44160, Note_on_c, 10, 63, 91
11, 44279, Note_on_c, 10, 63, 0
11, 44850, Note_on_c, 10, 85, 91
11, 44850, Note_on_c, 10, 76, 91
11, 44879, Note_on_c, 10, 76, 0
11, 44879, Note_on_c, 10, 85, 0
11, 44880, Note_on_c, 10, 85, 91
11, 44880, Note_on_c, 10, 76, 91
11, 44999, Note_on_c, 10, 76, 0
11, 44999, Note_on_c, 10, 85, 0
11, 45090, Note_on_c, 10, 86, 90
11, 45090, Note_on_c, 10, 77, 90
11, 45119, Note_on_c, 10, 77, 0
11, 45119, Note_on_c, 10, 86, 0
11, 45120, Note_on_c, 10, 86, 90
11, 45120, Note_on_c, 10, 77, 90
11, 45359, Note_on_c, 10, 77, 0
11, 45359, Note_on_c, 10, 86, 0
11, 46320, Note_on_c, 10, 69, 88
11, 46320, Note_on_c, 10, 76, 88
11, 46320, Note_on_c, 10, 85, 88
11, 46439, Note_on_c, 10, 85, 0
11, 46439, Note_on_c, 10, 76, 0
11, 46439, Note_on_c, 10, 69, 0
11, 46560, Note_on_c, 10, 86, 89
11, 46619, Note_on_c, 10, 86, 0
11, 46620, Note_on_c, 10, 86, 97
11, 46739, Note_on_c, 10, 86, 0
11, 46740, Note_on_c, 10, 86, 109
11, 46859, Note_on_c, 10, 86, 0
11, 46860, Note_on_c, 10, 86, 118
11, 46979, Note_on_c, 10, 86, 0
11, 46980, Note_on_c, 10, 86, 126
11, 47159, Note_on_c, 10, 86, 0
11, 47280, Note_on_c, 10, 81, 127
11, 47280, Note_on_c, 10, 73, 127
11, 47280, Note_on_c, 10, 64, 127
11, 47399, Note_on_c, 10, 64, 0
11, 47399, Note_on_c, 10, 73, 0
11, 47519, Note_on_c, 10, 81, 0
11, 47520, Note_on_c, 10, 62, 127
11, 47520, Note_on_c, 10, 74, 127
11, 47759, Note_on_c, 10, 74, 0
11, 47759, Note_on_c, 10, 62, 0
11, 47759, End_track
12, 0, Start_track
12, 0, MIDI_port, 0
12, 0, Title_t, "Violons"
12, 175, Control_c, 11, 0, 0
12, 177, Program_c, 11, 48
12, 178, Control_c, 11, 7, 70
12, 178, Control_c, 11, 10, 15
12, 195, Control_c, 11, 11, 127
12, 196, Control_c, 11, 91, 70
12, 197, Control_c, 11, 93, 30
12, 198, Control_c, 11, 1, 10
12, 198, Control_c, 11, 99, 1
12, 198, Control_c, 11, 98, 32
12, 198, Control_c, 11, 6, 52
12, 198, Control_c, 11, 38, 0
12, 199, Control_c, 11, 99, 1
12, 199, Control_c, 11, 98, 33
12, 199, Control_c, 11, 6, 50
12, 199, Control_c, 11, 38, 0
12, 200, Control_c, 11, 99, 1
12, 200, Control_c, 11, 98, 99
12, 200, Control_c, 11, 6, 65
12, 200, Control_c, 11, 38, 0
12, 480, Note_on_c, 11, 57, 70
12, 509, Note_on_c, 11, 57, 0
12, 510, Note_on_c, 11, 57, 70
12, 539, Note_on_c, 11, 57, 0
12, 540, Note_on_c, 11, 57, 71
12, 569, Note_on_c, 11, 57, 0
12, 570, Note_on_c, 11, 57, 71
12, 599, Note_on_c, 11, 57, 0
12, 600, Note_on_c, 11, 57, 72
12, 630, Note_on_c, 11, 57, 0
12, 630, Note_on_c, 11, 57, 72
12, 660, Note_on_c, 11, 57, 0
12, 660, Note_on_c, 11, 57, 71
12, 690, Note_on_c, 11, 57, 0
12, 690, Note_on_c, 11, 57, 71
12, 720, Note_on_c, 11, 57, 0
12, 720, Note_on_c, 11, 57, 71
12, 750, Note_on_c, 11, 57, 0
12, 750, Note_on_c, 11, 57, 71
12, 780, Note_on_c, 11, 57, 0
12, 780, Note_on_c, 11, 57, 71
12, 810, Note_on_c, 11, 57, 0
12, 810, Note_on_c, 11, 57, 71
12, 840, Note_on_c, 11, 57, 0
12, 840, Note_on_c, 11, 57, 71
12, 870, Note_on_c, 11, 57, 0
12, 870, Note_on_c, 11, 57, 70
12, 900, Note_on_c, 11, 57, 0
12, 900, Note_on_c, 11, 57, 70
12, 930, Note_on_c, 11, 57, 0
12, 930, Note_on_c, 11, 57, 71
12, 960, Note_on_c, 11, 57, 0
12, 960, Note_on_c, 11, 57, 126
12, 989, Note_on_c, 11, 57, 0
12, 990, Note_on_c, 11, 57, 123
12, 1019, Note_on_c, 11, 57, 0
12, 1020, Note_on_c, 11, 57, 120
12, 1049, Note_on_c, 11, 57, 0
12, 1050, Note_on_c, 11, 57, 114
12, 1079, Note_on_c, 11, 57, 0
12, 1080, Note_on_c, 11, 57, 109
12, 1110, Note_on_c, 11, 57, 0
12, 1110, Note_on_c, 11, 57, 106
12, 1140, Note_on_c, 11, 57, 0
12, 1140, Note_on_c, 11, 57, 102
12, 1170, Note_on_c, 11, 57, 0
12, 1170, Note_on_c, 11, 57, 94
12, 1200, Note_on_c, 11, 57, 0
12, 1200, Note_on_c, 11, 57, 86
12, 1230, Note_on_c, 11, 57, 0
12, 1230, Note_on_c, 11, 57, 79
12, 1260, Note_on_c, 11, 57, 0
12, 1260, Note_on_c, 11, 57, 74
12, 1290, Note_on_c, 11, 57, 0
12, 1290, Note_on_c, 11, 57, 71
12, 1320, Note_on_c, 11, 57, 0
12, 1320, Note_on_c, 11, 57, 69
12, 1350, Note_on_c, 11, 57, 0
12, 1350, Note_on_c, 11, 57, 69
12, 1380, Note_on_c, 11, 57, 0
12, 1380, Note_on_c, 11, 57, 68
12, 1410, Note_on_c, 11, 57, 0
12, 1410, Note_on_c, 11, 57, 68
12, 1440, Note_on_c, 11, 57, 0
12, 1440, Note_on_c, 11, 65, 68
12, 1499, Note_on_c, 11, 65, 0
12, 1560, Note_on_c, 11, 65, 71
12, 1619, Note_on_c, 11, 65, 0
12, 1680, Note_on_c, 11, 74, 70
12, 1739, Note_on_c, 11, 74, 0
12, 1800, Note_on_c, 11, 73, 70
12, 1859, Note_on_c, 11, 73, 0
12, 1920, Note_on_c, 11, 74, 67
12, 2039, Note_on_c, 11, 74, 0
12, 2160, Note_on_c, 11, 57, 126
12, 2190, Note_on_c, 11, 57, 0
12, 2190, Note_on_c, 11, 57, 124
12, 2220, Note_on_c, 11, 57, 0
12, 2220, Note_on_c, 11, 57, 117
12, 2250, Note_on_c, 11, 57, 0
12, 2250, Note_on_c, 11, 57, 109
12, 2280, Note_on_c, 11, 57, 0
12, 2280, Note_on_c, 11, 57, 103
12, 2310, Note_on_c, 11, 57, 0
12, 2310, Note_on_c, 11, 57, 97
12, 2340, Note_on_c, 11, 57, 0
12, 2340, Note_on_c, 11, 57, 90
12, 2370, Note_on_c, 11, 57, 0
12, 2370, Note_on_c, 11, 57, 85
12, 2400, Note_on_c, 11, 57, 0
12, 2400, Note_on_c, 11, 67, 78
12, 2519, Note_on_c, 11, 67, 0
12, 2640, Note_on_c, 11, 61, 126
12, 2670, Note_on_c, 11, 61, 0
12, 2670, Note_on_c, 11, 61, 123
12, 2700, Note_on_c, 11, 61, 0
12, 2700, Note_on_c, 11, 61, 114
12, 2730, Note_on_c, 11, 61, 0
12, 2730, Note_on_c, 11, 61, 107
12, 2760, Note_on_c, 11, 61, 0
12, 2760, Note_on_c, 11, 61, 100
12, 2790, Note_on_c, 11, 61, 0
12, 2790, Note_on_c, 11, 61, 94
12, 2820, Note_on_c, 11, 61, 0
12, 2820, Note_on_c, 11, 61, 88
12, 2850, Note_on_c, 11, 61, 0
12, 2850, Note_on_c, 11, 61, 82
12, 2880, Note_on_c, 11, 61, 0
12, 2880, Note_on_c, 11, 69, 76
12, 2999, Note_on_c, 11, 69, 0
12, 3120, Note_on_c, 11, 62, 127
12, 3150, Note_on_c, 11, 62, 0
12, 3150, Note_on_c, 11, 62, 121
12, 3180, Note_on_c, 11, 62, 0
12, 3180, Note_on_c, 11, 62, 116
12, 3210, Note_on_c, 11, 62, 0
12, 3210, Note_on_c, 11, 62, 111
12, 3240, Note_on_c, 11, 62, 0
12, 3240, Note_on_c, 11, 62, 105
12, 3270, Note_on_c, 11, 62, 0
12, 3270, Note_on_c, 11, 62, 100
12, 3300, Note_on_c, 11, 62, 0
12, 3300, Note_on_c, 11, 62, 96
12, 3330, Note_on_c, 11, 62, 0
12, 3330, Note_on_c, 11, 62, 92
12, 3360, Note_on_c, 11, 62, 0
12, 3360, Note_on_c, 11, 70, 123
12, 3419, Note_on_c, 11, 70, 0
12, 3420, Note_on_c, 11, 70, 101
12, 3479, Note_on_c, 11, 70, 0
12, 3480, Note_on_c, 11, 70, 73
12, 3539, Note_on_c, 11, 70, 0
12, 3540, Note_on_c, 11, 70, 72
12, 3599, Note_on_c, 11, 70, 0
12, 3600, Note_on_c, 11, 72, 122
12, 3659, Note_on_c, 11, 72, 0
12, 3660, Note_on_c, 11, 72, 100
12, 3719, Note_on_c, 11, 72, 0
12, 3720, Note_on_c, 11, 72, 70
12, 3779, Note_on_c, 11, 72, 0
12, 3780, Note_on_c, 11, 72, 69
12, 3839, Note_on_c, 11, 72, 0
12, 3840, Note_on_c, 11, 74, 71
12, 3899, Note_on_c, 11, 74, 0
12, 3900, Note_on_c, 11, 74, 71
12, 3959, Note_on_c, 11, 74, 0
12, 3960, Note_on_c, 11, 74, 73
12, 4019, Note_on_c, 11, 74, 0
12, 4020, Note_on_c, 11, 74, 78
12, 4079, Note_on_c, 11, 74, 0
12, 4080, Note_on_c, 11, 74, 85
12, 4139, Note_on_c, 11, 74, 0
12, 4140, Note_on_c, 11, 74, 104
12, 4259, Note_on_c, 11, 74, 0
12, 4260, Note_on_c, 11, 74, 103
12, 4319, Note_on_c, 11, 74, 0
12, 4320, Note_on_c, 11, 75, 70
12, 4379, Note_on_c, 11, 75, 0
12, 4380, Note_on_c, 11, 75, 70
12, 4439, Note_on_c, 11, 75, 0
12, 4440, Note_on_c, 11, 70, 70
12, 4499, Note_on_c, 11, 70, 0
12, 4500, Note_on_c, 11, 70, 70
12, 4559, Note_on_c, 11, 70, 0
12, 4560, Note_on_c, 11, 67, 70
12, 4619, Note_on_c, 11, 67, 0
12, 4620, Note_on_c, 11, 67, 70
12, 4679, Note_on_c, 11, 67, 0
12, 4680, Note_on_c, 11, 65, 70
12, 4739, Note_on_c, 11, 65, 0
12, 4740, Note_on_c, 11, 65, 70
12, 4799, Note_on_c, 11, 65, 0
12, 4800, Note_on_c, 11, 64, 71
12, 4919, Note_on_c, 11, 64, 0
12, 4920, Note_on_c, 11, 57, 97
12, 5039, Note_on_c, 11, 57, 0
12, 5040, Note_on_c, 11, 56, 116
12, 5159, Note_on_c, 11, 56, 0
12, 5160, Note_on_c, 11, 55, 122
12, 5279, Note_on_c, 11, 55, 0
12, 5280, Note_on_c, 11, 60, 122
12, 5310, Note_on_c, 11, 60, 0
12, 5310, Note_on_c, 11, 60, 73
12, 5340, Note_on_c, 11, 60, 0
12, 5340, Note_on_c, 11, 60, 72
12, 5370, Note_on_c, 11, 60, 0
12, 5370, Note_on_c, 11, 60, 72
12, 5400, Note_on_c, 11, 60, 0
12, 5400, Note_on_c, 11, 60, 72
12, 5430, Note_on_c, 11, 60, 0
12, 5430, Note_on_c, 11, 60, 72
12, 5460, Note_on_c, 11, 60, 0
12, 5460, Note_on_c, 11, 60, 72
12, 5490, Note_on_c, 11, 60, 0
12, 5490, Note_on_c, 11, 60, 72
12, 5520, Note_on_c, 11, 60, 0
12, 5520, Note_on_c, 11, 60, 72
12, 5550, Note_on_c, 11, 60, 0
12, 5550, Note_on_c, 11, 60, 72
12, 5580, Note_on_c, 11, 60, 0
12, 5580, Note_on_c, 11, 60, 72
12, 5610, Note_on_c, 11, 60, 0
12, 5610, Note_on_c, 11, 60, 72
12, 5640, Note_on_c, 11, 60, 0
12, 5640, Note_on_c, 11, 60, 72
12, 5670, Note_on_c, 11, 60, 0
12, 5670, Note_on_c, 11, 60, 72
12, 5700, Note_on_c, 11, 60, 0
12, 5700, Note_on_c, 11, 60, 72
12, 5730, Note_on_c, 11, 60, 0
12, 5730, Note_on_c, 11, 60, 72
12, 5760, Note_on_c, 11, 60, 0
12, 5760, Note_on_c, 11, 60, 72
12, 5790, Note_on_c, 11, 60, 0
12, 5790, Note_on_c, 11, 60, 72
12, 5820, Note_on_c, 11, 60, 0
12, 5820, Note_on_c, 11, 60, 72
12, 5850, Note_on_c, 11, 60, 0
12, 5850, Note_on_c, 11, 60, 72
12, 5880, Note_on_c, 11, 60, 0
12, 5880, Note_on_c, 11, 60, 72
12, 5910, Note_on_c, 11, 60, 0
12, 5910, Note_on_c, 11, 60, 72
12, 5940, Note_on_c, 11, 60, 0
12, 5940, Note_on_c, 11, 60, 72
12, 5970, Note_on_c, 11, 60, 0
12, 5970, Note_on_c, 11, 60, 72
12, 6000, Note_on_c, 11, 60, 0
12, 6000, Note_on_c, 11, 60, 72
12, 6030, Note_on_c, 11, 60, 0
12, 6030, Note_on_c, 11, 60, 72
12, 6060, Note_on_c, 11, 60, 0
12, 6060, Note_on_c, 11, 60, 72
12, 6090, Note_on_c, 11, 60, 0
12, 6090, Note_on_c, 11, 60, 72
12, 6120, Note_on_c, 11, 60, 0
12, 6120, Note_on_c, 11, 60, 72
12, 6150, Note_on_c, 11, 60, 0
12, 6150, Note_on_c, 11, 60, 72
12, 6180, Note_on_c, 11, 60, 0
12, 6180, Note_on_c, 11, 60, 72
12, 6210, Note_on_c, 11, 60, 0
12, 6210, Note_on_c, 11, 60, 72
12, 6240, Note_on_c, 11, 60, 0
12, 6240, Note_on_c, 11, 60, 72
12, 6270, Note_on_c, 11, 60, 0
12, 6270, Note_on_c, 11, 60, 72
12, 6300, Note_on_c, 11, 60, 0
12, 6300, Note_on_c, 11, 60, 72
12, 6330, Note_on_c, 11, 60, 0
12, 6330, Note_on_c, 11, 60, 72
12, 6360, Note_on_c, 11, 60, 0
12, 6360, Note_on_c, 11, 60, 72
12, 6390, Note_on_c, 11, 60, 0
12, 6390, Note_on_c, 11, 60, 72
12, 6420, Note_on_c, 11, 60, 0
12, 6420, Note_on_c, 11, 60, 72
12, 6450, Note_on_c, 11, 60, 0
12, 6450, Note_on_c, 11, 60, 72
12, 6480, Note_on_c, 11, 60, 0
12, 6480, Note_on_c, 11, 60, 72
12, 6510, Note_on_c, 11, 60, 0
12, 6510, Note_on_c, 11, 60, 72
12, 6540, Note_on_c, 11, 60, 0
12, 6540, Note_on_c, 11, 60, 72
12, 6570, Note_on_c, 11, 60, 0
12, 6570, Note_on_c, 11, 60, 72
12, 6600, Note_on_c, 11, 60, 0
12, 6600, Note_on_c, 11, 60, 72
12, 6630, Note_on_c, 11, 60, 0
12, 6630, Note_on_c, 11, 60, 72
12, 6660, Note_on_c, 11, 60, 0
12, 6660, Note_on_c, 11, 60, 72
12, 6690, Note_on_c, 11, 60, 0
12, 6690, Note_on_c, 11, 60, 71
12, 6720, Note_on_c, 11, 60, 0
12, 6720, Note_on_c, 11, 62, 74
12, 6750, Note_on_c, 11, 62, 0
12, 6750, Note_on_c, 11, 62, 74
12, 6780, Note_on_c, 11, 62, 0
12, 6780, Note_on_c, 11, 62, 75
12, 6810, Note_on_c, 11, 62, 0
12, 6810, Note_on_c, 11, 62, 76
12, 6840, Note_on_c, 11, 62, 0
12, 6840, Note_on_c, 11, 62, 78
12, 6870, Note_on_c, 11, 62, 0
12, 6870, Note_on_c, 11, 62, 80
12, 6900, Note_on_c, 11, 62, 0
12, 6900, Note_on_c, 11, 62, 82
12, 6930, Note_on_c, 11, 62, 0
12, 6930, Note_on_c, 11, 62, 85
12, 6960, Note_on_c, 11, 62, 0
12, 6960, Note_on_c, 11, 62, 89
12, 6990, Note_on_c, 11, 62, 0
12, 6990, Note_on_c, 11, 62, 93
12, 7020, Note_on_c, 11, 62, 0
12, 7020, Note_on_c, 11, 62, 97
12, 7050, Note_on_c, 11, 62, 0
12, 7050, Note_on_c, 11, 62, 99
12, 7080, Note_on_c, 11, 62, 0
12, 7080, Note_on_c, 11, 62, 104
12, 7110, Note_on_c, 11, 62, 0
12, 7110, Note_on_c, 11, 62, 108
12, 7140, Note_on_c, 11, 62, 0
12, 7140, Note_on_c, 11, 62, 112
12, 7170, Note_on_c, 11, 62, 0
12, 7170, Note_on_c, 11, 62, 116
12, 7200, Note_on_c, 11, 62, 0
12, 7200, Note_on_c, 11, 60, 72
12, 7230, Note_on_c, 11, 60, 0
12, 7230, Note_on_c, 11, 60, 71
12, 7260, Note_on_c, 11, 60, 0
12, 7260, Note_on_c, 11, 60, 71
12, 7290, Note_on_c, 11, 60, 0
12, 7290, Note_on_c, 11, 60, 71
12, 7320, Note_on_c, 11, 60, 0
12, 7320, Note_on_c, 11, 60, 71
12, 7350, Note_on_c, 11, 60, 0
12, 7350, Note_on_c, 11, 60, 71
12, 7380, Note_on_c, 11, 60, 0
12, 7380, Note_on_c, 11, 60, 71
12, 7410, Note_on_c, 11, 60, 0
12, 7410, Note_on_c, 11, 60, 72
12, 7440, Note_on_c, 11, 60, 0
12, 7440, Note_on_c, 11, 60, 73
12, 7470, Note_on_c, 11, 60, 0
12, 7470, Note_on_c, 11, 60, 73
12, 7500, Note_on_c, 11, 60, 0
12, 7500, Note_on_c, 11, 60, 73
12, 7530, Note_on_c, 11, 60, 0
12, 7530, Note_on_c, 11, 60, 73
12, 7560, Note_on_c, 11, 60, 0
12, 7560, Note_on_c, 11, 60, 73
12, 7590, Note_on_c, 11, 60, 0
12, 7590, Note_on_c, 11, 60, 73
12, 7620, Note_on_c, 11, 60, 0
12, 7620, Note_on_c, 11, 60, 73
12, 7650, Note_on_c, 11, 60, 0
12, 7650, Note_on_c, 11, 60, 73
12, 7680, Note_on_c, 11, 60, 0
12, 7680, Note_on_c, 11, 60, 73
12, 7710, Note_on_c, 11, 60, 0
12, 7710, Note_on_c, 11, 60, 73
12, 7740, Note_on_c, 11, 60, 0
12, 7740, Note_on_c, 11, 60, 74
12, 7770, Note_on_c, 11, 60, 0
12, 7770, Note_on_c, 11, 60, 73
12, 7800, Note_on_c, 11, 60, 0
12, 7800, Note_on_c, 11, 60, 77
12, 7830, Note_on_c, 11, 60, 0
12, 7830, Note_on_c, 11, 60, 79
12, 7860, Note_on_c, 11, 60, 0
12, 7860, Note_on_c, 11, 60, 82
12, 7890, Note_on_c, 11, 60, 0
12, 7890, Note_on_c, 11, 60, 85
12, 7920, Note_on_c, 11, 60, 0
12, 7920, Note_on_c, 11, 60, 88
12, 7950, Note_on_c, 11, 60, 0
12, 7950, Note_on_c, 11, 60, 91
12, 7980, Note_on_c, 11, 60, 0
12, 7980, Note_on_c, 11, 60, 94
12, 8010, Note_on_c, 11, 60, 0
12, 8010, Note_on_c, 11, 60, 98
12, 8040, Note_on_c, 11, 60, 0
12, 8040, Note_on_c, 11, 60, 99
12, 8070, Note_on_c, 11, 60, 0
12, 8070, Note_on_c, 11, 60, 102
12, 8100, Note_on_c, 11, 60, 0
12, 8100, Note_on_c, 11, 60, 108
12, 8130, Note_on_c, 11, 60, 0
12, 8130, Note_on_c, 11, 60, 117
12, 8160, Note_on_c, 11, 60, 0
12, 8160, Note_on_c, 11, 62, 70
12, 8279, Note_on_c, 11, 62, 0
12, 8640, Note_on_c, 11, 77, 111
12, 8699, Note_on_c, 11, 77, 0
12, 8700, Note_on_c, 11, 77, 95
12, 8759, Note_on_c, 11, 77, 0
12, 8760, Note_on_c, 11, 77, 70
12, 8819, Note_on_c, 11, 77, 0
12, 8820, Note_on_c, 11, 77, 71
12, 8879, Note_on_c, 11, 77, 0
12, 8880, Note_on_c, 11, 77, 111
12, 8939, Note_on_c, 11, 77, 0
12, 8940, Note_on_c, 11, 77, 94
12, 8999, Note_on_c, 11, 77, 0
12, 9000, Note_on_c, 11, 77, 72
12, 9059, Note_on_c, 11, 77, 0
12, 9060, Note_on_c, 11, 77, 72
12, 9119, Note_on_c, 11, 77, 0
12, 9120, Note_on_c, 11, 65, 73
12, 9179, Note_on_c, 11, 65, 0
12, 9180, Note_on_c, 11, 65, 73
12, 9299, Note_on_c, 11, 65, 0
12, 9300, Note_on_c, 11, 68, 72
12, 9359, Note_on_c, 11, 68, 0
12, 9360, Note_on_c, 11, 65, 72
12, 9419, Note_on_c, 11, 65, 0
12, 9420, Note_on_c, 11, 65, 72
12, 9539, Note_on_c, 11, 65, 0
12, 9540, Note_on_c, 11, 68, 72
12, 9599, Note_on_c, 11, 68, 0
12, 9600, Note_on_c, 11, 67, 73
12, 9659, Note_on_c, 11, 67, 0
12, 9660, Note_on_c, 11, 60, 94
12, 9719, Note_on_c, 11, 60, 0
12, 9720, Note_on_c, 11, 59, 92
12, 9779, Note_on_c, 11, 59, 0
12, 9780, Note_on_c, 11, 60, 92
12, 9839, Note_on_c, 11, 60, 0
12, 9840, Note_on_c, 11, 59, 92
12, 9899, Note_on_c, 11, 59, 0
12, 9900, Note_on_c, 11, 60, 91
12, 9959, Note_on_c, 11, 60, 0
12, 10020, Note_on_c, 11, 64, 72
12, 10079, Note_on_c, 11, 64, 0
12, 10080, Note_on_c, 11, 72, 72
12, 10199, Note_on_c, 11, 72, 0
12, 10260, Note_on_c, 11, 69, 71
12, 10319, Note_on_c, 11, 69, 0
12, 10320, Note_on_c, 11, 70, 71
12, 10439, Note_on_c, 11, 70, 0
12, 10500, Note_on_c, 11, 64, 71
12, 10559, Note_on_c, 11, 64, 0
12, 10560, Note_on_c, 11, 65, 71
12, 10619, Note_on_c, 11, 65, 0
12, 10620, Note_on_c, 11, 60, 96
12, 10679, Note_on_c, 11, 60, 0
12, 10680, Note_on_c, 11, 59, 96
12, 10739, Note_on_c, 11, 59, 0
12, 10740, Note_on_c, 11, 60, 95
12, 10799, Note_on_c, 11, 60, 0
12, 10800, Note_on_c, 11, 59, 95
12, 10859, Note_on_c, 11, 59, 0
12, 10860, Note_on_c, 11, 60, 94
12, 10919, Note_on_c, 11, 60, 0
12, 10980, Note_on_c, 11, 64, 71
12, 11039, Note_on_c, 11, 64, 0
12, 11040, Note_on_c, 11, 72, 71
12, 11159, Note_on_c, 11, 72, 0
12, 11220, Note_on_c, 11, 69, 71
12, 11279, Note_on_c, 11, 69, 0
12, 11280, Note_on_c, 11, 70, 71
12, 11399, Note_on_c, 11, 70, 0
12, 11460, Note_on_c, 11, 64, 70
12, 11519, Note_on_c, 11, 64, 0
12, 11520, Note_on_c, 11, 65, 70
12, 11579, Note_on_c, 11, 65, 0
12, 11580, Note_on_c, 11, 72, 72
12, 11639, Note_on_c, 11, 72, 0
12, 11640, Note_on_c, 11, 72, 72
12, 11699, Note_on_c, 11, 72, 0
12, 11700, Note_on_c, 11, 72, 72
12, 11759, Note_on_c, 11, 72, 0
12, 11760, Note_on_c, 11, 72, 72
12, 11819, Note_on_c, 11, 72, 0
12, 11820, Note_on_c, 11, 72, 72
12, 11879, Note_on_c, 11, 72, 0
12, 11880, Note_on_c, 11, 72, 71
12, 11939, Note_on_c, 11, 72, 0
12, 11940, Note_on_c, 11, 72, 71
12, 11999, Note_on_c, 11, 72, 0
12, 12000, Note_on_c, 11, 72, 71
12, 12239, Note_on_c, 11, 72, 0
12, 12540, Note_on_c, 11, 69, 70
12, 12599, Note_on_c, 11, 69, 0
12, 12600, Note_on_c, 11, 69, 69
12, 12659, Note_on_c, 11, 69, 0
12, 12660, Note_on_c, 11, 69, 69
12, 12719, Note_on_c, 11, 69, 0
12, 12720, Note_on_c, 11, 69, 70
12, 12779, Note_on_c, 11, 69, 0
12, 12780, Note_on_c, 11, 69, 71
12, 12839, Note_on_c, 11, 69, 0
12, 12840, Note_on_c, 11, 69, 71
12, 12899, Note_on_c, 11, 69, 0
12, 12900, Note_on_c, 11, 69, 71
12, 12959, Note_on_c, 11, 69, 0
12, 12960, Note_on_c, 11, 69, 71
12, 13199, Note_on_c, 11, 69, 0
12, 13500, Note_on_c, 11, 65, 71
12, 13559, Note_on_c, 11, 65, 0
12, 13560, Note_on_c, 11, 65, 71
12, 13619, Note_on_c, 11, 65, 0
12, 13620, Note_on_c, 11, 65, 71
12, 13679, Note_on_c, 11, 65, 0
12, 13680, Note_on_c, 11, 65, 71
12, 13739, Note_on_c, 11, 65, 0
12, 13740, Note_on_c, 11, 65, 71
12, 13799, Note_on_c, 11, 65, 0
12, 13800, Note_on_c, 11, 65, 71
12, 13859, Note_on_c, 11, 65, 0
12, 13860, Note_on_c, 11, 65, 71
12, 13919, Note_on_c, 11, 65, 0
12, 13920, Note_on_c, 11, 65, 70
12, 14039, Note_on_c, 11, 65, 0
12, 14160, Note_on_c, 11, 67, 72
12, 14279, Note_on_c, 11, 67, 0
12, 14400, Note_on_c, 11, 69, 70
12, 14519, Note_on_c, 11, 69, 0
12, 15600, Note_on_c, 11, 69, 113
12, 15659, Note_on_c, 11, 69, 0
12, 15660, Note_on_c, 11, 69, 94
12, 15719, Note_on_c, 11, 69, 0
12, 15720, Note_on_c, 11, 69, 70
12, 15779, Note_on_c, 11, 69, 0
12, 15780, Note_on_c, 11, 69, 70
12, 15839, Note_on_c, 11, 69, 0
12, 15840, Note_on_c, 11, 74, 112
12, 15899, Note_on_c, 11, 74, 0
12, 15900, Note_on_c, 11, 74, 93
12, 15959, Note_on_c, 11, 74, 0
12, 15960, Note_on_c, 11, 74, 70
12, 16019, Note_on_c, 11, 74, 0
12, 16020, Note_on_c, 11, 74, 70
12, 16079, Note_on_c, 11, 74, 0
12, 16080, Note_on_c, 11, 79, 114
12, 16139, Note_on_c, 11, 79, 0
12, 16140, Note_on_c, 11, 79, 93
12, 16199, Note_on_c, 11, 79, 0
12, 16200, Note_on_c, 11, 79, 72
12, 16259, Note_on_c, 11, 79, 0
12, 16260, Note_on_c, 11, 79, 71
12, 16319, Note_on_c, 11, 79, 0
12, 16320, Note_on_c, 11, 67, 114
12, 16379, Note_on_c, 11, 67, 0
12, 16380, Note_on_c, 11, 67, 91
12, 16499, Note_on_c, 11, 67, 0
12, 16500, Note_on_c, 11, 67, 70
12, 16619, Note_on_c, 11, 67, 0
12, 16620, Note_on_c, 11, 67, 71
12, 16679, Note_on_c, 11, 67, 0
12, 16680, Note_on_c, 11, 69, 71
12, 16739, Note_on_c, 11, 69, 0
12, 16740, Note_on_c, 11, 70, 71
12, 16799, Note_on_c, 11, 70, 0
12, 16800, Note_on_c, 11, 69, 71
12, 16859, Note_on_c, 11, 69, 0
12, 16860, Note_on_c, 11, 72, 71
12, 16919, Note_on_c, 11, 72, 0
12, 16920, Note_on_c, 11, 72, 71
12, 16979, Note_on_c, 11, 72, 0
12, 16980, Note_on_c, 11, 72, 71
12, 17039, Note_on_c, 11, 72, 0
12, 17040, Note_on_c, 11, 72, 71
12, 17099, Note_on_c, 11, 72, 0
12, 17100, Note_on_c, 11, 72, 71
12, 17159, Note_on_c, 11, 72, 0
12, 17160, Note_on_c, 11, 72, 71
12, 17219, Note_on_c, 11, 72, 0
12, 17220, Note_on_c, 11, 72, 71
12, 17279, Note_on_c, 11, 72, 0
12, 17280, Note_on_c, 11, 72, 70
12, 17519, Note_on_c, 11, 72, 0
12, 17820, Note_on_c, 11, 69, 71
12, 17879, Note_on_c, 11, 69, 0
12, 17880, Note_on_c, 11, 69, 71
12, 17939, Note_on_c, 11, 69, 0
12, 17940, Note_on_c, 11, 69, 70
12, 17999, Note_on_c, 11, 69, 0
12, 18000, Note_on_c, 11, 69, 71
12, 18059, Note_on_c, 11, 69, 0
12, 18060, Note_on_c, 11, 69, 71
12, 18119, Note_on_c, 11, 69, 0
12, 18120, Note_on_c, 11, 69, 72
12, 18179, Note_on_c, 11, 69, 0
12, 18180, Note_on_c, 11, 69, 72
12, 18239, Note_on_c, 11, 69, 0
12, 18240, Note_on_c, 11, 69, 72
12, 18479, Note_on_c, 11, 69, 0
12, 18780, Note_on_c, 11, 65, 72
12, 18839, Note_on_c, 11, 65, 0
12, 18840, Note_on_c, 11, 65, 73
12, 18899, Note_on_c, 11, 65, 0
12, 18900, Note_on_c, 11, 65, 73
12, 18959, Note_on_c, 11, 65, 0
12, 18960, Note_on_c, 11, 65, 72
12, 19019, Note_on_c, 11, 65, 0
12, 19020, Note_on_c, 11, 65, 71
12, 19079, Note_on_c, 11, 65, 0
12, 19080, Note_on_c, 11, 65, 71
12, 19139, Note_on_c, 11, 65, 0
12, 19140, Note_on_c, 11, 65, 71
12, 19199, Note_on_c, 11, 65, 0
12, 19200, Note_on_c, 11, 65, 72
12, 19319, Note_on_c, 11, 65, 0
12, 19440, Note_on_c, 11, 67, 69
12, 19559, Note_on_c, 11, 67, 0
12, 19680, Note_on_c, 11, 69, 69
12, 19799, Note_on_c, 11, 69, 0
12, 20880, Note_on_c, 11, 77, 112
12, 20939, Note_on_c, 11, 77, 0
12, 20940, Note_on_c, 11, 77, 93
12, 20999, Note_on_c, 11, 77, 0
12, 21000, Note_on_c, 11, 77, 71
12, 21059, Note_on_c, 11, 77, 0
12, 21060, Note_on_c, 11, 77, 71
12, 21119, Note_on_c, 11, 77, 0
12, 21120, Note_on_c, 11, 77, 110
12, 21179, Note_on_c, 11, 77, 0
12, 21180, Note_on_c, 11, 77, 93
12, 21239, Note_on_c, 11, 77, 0
12, 21240, Note_on_c, 11, 77, 69
12, 21299, Note_on_c, 11, 77, 0
12, 21300, Note_on_c, 11, 77, 69
12, 21359, Note_on_c, 11, 77, 0
12, 21360, Note_on_c, 11, 77, 111
12, 21419, Note_on_c, 11, 77, 0
12, 21420, Note_on_c, 11, 77, 93
12, 21479, Note_on_c, 11, 77, 0
12, 21480, Note_on_c, 11, 77, 69
12, 21539, Note_on_c, 11, 77, 0
12, 21540, Note_on_c, 11, 77, 71
12, 21599, Note_on_c, 11, 77, 0
12, 21600, Note_on_c, 11, 77, 69
12, 21659, Note_on_c, 11, 77, 0
12, 21660, Note_on_c, 11, 77, 72
12, 21719, Note_on_c, 11, 77, 0
12, 21720, Note_on_c, 11, 69, 76
12, 21779, Note_on_c, 11, 69, 0
12, 21780, Note_on_c, 11, 69, 84
12, 21839, Note_on_c, 11, 69, 0
12, 21840, Note_on_c, 11, 72, 91
12, 21899, Note_on_c, 11, 72, 0
12, 21900, Note_on_c, 11, 72, 98
12, 21959, Note_on_c, 11, 72, 0
12, 21960, Note_on_c, 11, 77, 106
12, 22019, Note_on_c, 11, 77, 0
12, 22020, Note_on_c, 11, 77, 115
12, 22079, Note_on_c, 11, 77, 0
12, 22080, Note_on_c, 11, 81, 123
12, 22199, Note_on_c, 11, 81, 0
12, 22320, Note_on_c, 11, 70, 125
12, 22320, Note_on_c, 11, 76, 125
12, 22320, Note_on_c, 11, 67, 125
12, 22439, Note_on_c, 11, 67, 0
12, 22439, Note_on_c, 11, 76, 0
12, 22439, Note_on_c, 11, 70, 0
12, 22560, Note_on_c, 11, 77, 103
12, 22589, Note_on_c, 11, 77, 0
12, 22590, Note_on_c, 11, 72, 100
12, 22619, Note_on_c, 11, 72, 0
12, 22620, Note_on_c, 11, 74, 105
12, 22649, Note_on_c, 11, 74, 0
12, 22650, Note_on_c, 11, 76, 107
12, 22679, Note_on_c, 11, 76, 0
12, 22680, Note_on_c, 11, 77, 110
12, 22709, Note_on_c, 11, 77, 0
12, 22710, Note_on_c, 11, 79, 115
12, 22739, Note_on_c, 11, 79, 0
12, 22740, Note_on_c, 11, 81, 119
12, 22769, Note_on_c, 11, 81, 0
12, 22770, Note_on_c, 11, 82, 125
12, 22799, Note_on_c, 11, 82, 0
12, 22800, Note_on_c, 11, 84, 127
12, 22829, Note_on_c, 11, 84, 0
12, 22830, Note_on_c, 11, 82, 124
12, 22859, Note_on_c, 11, 82, 0
12, 22860, Note_on_c, 11, 81, 122
12, 22889, Note_on_c, 11, 81, 0
12, 22890, Note_on_c, 11, 79, 119
12, 22919, Note_on_c, 11, 79, 0
12, 22920, Note_on_c, 11, 81, 115
12, 22949, Note_on_c, 11, 81, 0
12, 22950, Note_on_c, 11, 79, 112
12, 22979, Note_on_c, 11, 79, 0
12, 22980, Note_on_c, 11, 77, 111
12, 23009, Note_on_c, 11, 77, 0
12, 23010, Note_on_c, 11, 76, 110
12, 23039, Note_on_c, 11, 76, 0
12, 23040, Note_on_c, 11, 77, 108
12, 23069, Note_on_c, 11, 77, 0
12, 23070, Note_on_c, 11, 72, 102
12, 23099, Note_on_c, 11, 72, 0
12, 23100, Note_on_c, 11, 74, 102
12, 23129, Note_on_c, 11, 74, 0
12, 23130, Note_on_c, 11, 76, 110
12, 23159, Note_on_c, 11, 76, 0
12, 23160, Note_on_c, 11, 77, 113
12, 23189, Note_on_c, 11, 77, 0
12, 23190, Note_on_c, 11, 79, 116
12, 23219, Note_on_c, 11, 79, 0
12, 23220, Note_on_c, 11, 81, 122
12, 23249, Note_on_c, 11, 81, 0
12, 23250, Note_on_c, 11, 82, 125
12, 23279, Note_on_c, 11, 82, 0
12, 23280, Note_on_c, 11, 84, 127
12, 23309, Note_on_c, 11, 84, 0
12, 23310, Note_on_c, 11, 82, 127
12, 23339, Note_on_c, 11, 82, 0
12, 23340, Note_on_c, 11, 81, 124
12, 23369, Note_on_c, 11, 81, 0
12, 23370, Note_on_c, 11, 79, 119
12, 23399, Note_on_c, 11, 79, 0
12, 23400, Note_on_c, 11, 81, 115
12, 23429, Note_on_c, 11, 81, 0
12, 23430, Note_on_c, 11, 79, 111
12, 23459, Note_on_c, 11, 79, 0
12, 23460, Note_on_c, 11, 77, 107
12, 23489, Note_on_c, 11, 77, 0
12, 23490, Note_on_c, 11, 76, 102
12, 23519, Note_on_c, 11, 76, 0
12, 23520, Note_on_c, 11, 77, 113
12, 23550, Note_on_c, 11, 77, 0
12, 23550, Note_on_c, 11, 77, 117
12, 23580, Note_on_c, 11, 77, 0
12, 23580, Note_on_c, 11, 81, 121
12, 23610, Note_on_c, 11, 81, 0
12, 23610, Note_on_c, 11, 81, 123
12, 23640, Note_on_c, 11, 81, 0
12, 23640, Note_on_c, 11, 74, 123
12, 23670, Note_on_c, 11, 74, 0
12, 23670, Note_on_c, 11, 74, 125
12, 23700, Note_on_c, 11, 74, 0
12, 23700, Note_on_c, 11, 77, 125
12, 23730, Note_on_c, 11, 77, 0
12, 23730, Note_on_c, 11, 77, 126
12, 23760, Note_on_c, 11, 77, 0
12, 23760, Note_on_c, 11, 70, 126
12, 23790, Note_on_c, 11, 70, 0
12, 23790, Note_on_c, 11, 70, 126
12, 23820, Note_on_c, 11, 70, 0
12, 23820, Note_on_c, 11, 74, 126
12, 23850, Note_on_c, 11, 74, 0
12, 23850, Note_on_c, 11, 74, 126
12, 23880, Note_on_c, 11, 74, 0
12, 23880, Note_on_c, 11, 67, 126
12, 23910, Note_on_c, 11, 67, 0
12, 23910, Note_on_c, 11, 67, 126
12, 23940, Note_on_c, 11, 67, 0
12, 23940, Note_on_c, 11, 70, 126
12, 23970, Note_on_c, 11, 70, 0
12, 23970, Note_on_c, 11, 70, 126
12, 24000, Note_on_c, 11, 70, 0
12, 24000, Note_on_c, 11, 64, 126
12, 24119, Note_on_c, 11, 64, 0
12, 24120, Note_on_c, 11, 81, 127
12, 24120, Note_on_c, 11, 72, 127
12, 24120, Note_on_c, 11, 65, 127
12, 24239, Note_on_c, 11, 65, 0
12, 24239, Note_on_c, 11, 72, 0
12, 24239, Note_on_c, 11, 81, 0
12, 24240, Note_on_c, 11, 82, 127
12, 24240, Note_on_c, 11, 74, 127
12, 24240, Note_on_c, 11, 65, 127
12, 24359, Note_on_c, 11, 65, 0
12, 24359, Note_on_c, 11, 74, 0
12, 24359, Note_on_c, 11, 82, 0
12, 24360, Note_on_c, 11, 79, 127
12, 24360, Note_on_c, 11, 72, 127
12, 24360, Note_on_c, 11, 64, 127
12, 24479, Note_on_c, 11, 64, 0
12, 24479, Note_on_c, 11, 72, 0
12, 24479, Note_on_c, 11, 79, 0
12, 24480, Note_on_c, 11, 65, 126
12, 24480, Note_on_c, 11, 72, 126
12, 24480, Note_on_c, 11, 77, 126
12, 24599, Note_on_c, 11, 77, 0
12, 24599, Note_on_c, 11, 72, 0
12, 24599, Note_on_c, 11, 65, 0
12, 25020, Note_on_c, 11, 57, 123
12, 25079, Note_on_c, 11, 57, 0
12, 25080, Note_on_c, 11, 58, 123
12, 25139, Note_on_c, 11, 58, 0
12, 25140, Note_on_c, 11, 60, 124
12, 25199, Note_on_c, 11, 60, 0
12, 25200, Note_on_c, 11, 62, 124
12, 25259, Note_on_c, 11, 62, 0
12, 25260, Note_on_c, 11, 60, 125
12, 25319, Note_on_c, 11, 60, 0
12, 25320, Note_on_c, 11, 62, 125
12, 25379, Note_on_c, 11, 62, 0
12, 25380, Note_on_c, 11, 58, 125
12, 25439, Note_on_c, 11, 58, 0
12, 25440, Note_on_c, 11, 57, 125
12, 25499, Note_on_c, 11, 57, 0
12, 25500, Note_on_c, 11, 69, 72
12, 25559, Note_on_c, 11, 69, 0
12, 25560, Note_on_c, 11, 70, 72
12, 25619, Note_on_c, 11, 70, 0
12, 25620, Note_on_c, 11, 72, 72
12, 25679, Note_on_c, 11, 72, 0
12, 25680, Note_on_c, 11, 74, 72
12, 25739, Note_on_c, 11, 74, 0
12, 25740, Note_on_c, 11, 72, 72
12, 25799, Note_on_c, 11, 72, 0
12, 25800, Note_on_c, 11, 74, 72
12, 25859, Note_on_c, 11, 74, 0
12, 25860, Note_on_c, 11, 70, 71
12, 25919, Note_on_c, 11, 70, 0
12, 25920, Note_on_c, 11, 69, 72
12, 25979, Note_on_c, 11, 69, 0
12, 25980, Note_on_c, 11, 57, 126
12, 26039, Note_on_c, 11, 57, 0
12, 26040, Note_on_c, 11, 58, 125
12, 26099, Note_on_c, 11, 58, 0
12, 26100, Note_on_c, 11, 60, 125
12, 26159, Note_on_c, 11, 60, 0
12, 26160, Note_on_c, 11, 62, 125
12, 26219, Note_on_c, 11, 62, 0
12, 26220, Note_on_c, 11, 60, 124
12, 26279, Note_on_c, 11, 60, 0
12, 26280, Note_on_c, 11, 62, 124
12, 26339, Note_on_c, 11, 62, 0
12, 26340, Note_on_c, 11, 58, 123
12, 26399, Note_on_c, 11, 58, 0
12, 26400, Note_on_c, 11, 57, 124
12, 26459, Note_on_c, 11, 57, 0
12, 26460, Note_on_c, 11, 69, 70
12, 26519, Note_on_c, 11, 69, 0
12, 26520, Note_on_c, 11, 70, 69
12, 26579, Note_on_c, 11, 70, 0
12, 26580, Note_on_c, 11, 72, 71
12, 26639, Note_on_c, 11, 72, 0
12, 26640, Note_on_c, 11, 74, 71
12, 26699, Note_on_c, 11, 74, 0
12, 26700, Note_on_c, 11, 72, 71
12, 26759, Note_on_c, 11, 72, 0
12, 26760, Note_on_c, 11, 74, 71
12, 26819, Note_on_c, 11, 74, 0
12, 26820, Note_on_c, 11, 70, 71
12, 26879, Note_on_c, 11, 70, 0
12, 26880, Note_on_c, 11, 69, 71
12, 26939, Note_on_c, 11, 69, 0
12, 26940, Note_on_c, 11, 57, 123
12, 26999, Note_on_c, 11, 57, 0
12, 27000, Note_on_c, 11, 58, 123
12, 27059, Note_on_c, 11, 58, 0
12, 27060, Note_on_c, 11, 60, 123
12, 27119, Note_on_c, 11, 60, 0
12, 27120, Note_on_c, 11, 62, 123
12, 27179, Note_on_c, 11, 62, 0
12, 27180, Note_on_c, 11, 60, 123
12, 27239, Note_on_c, 11, 60, 0
12, 27240, Note_on_c, 11, 62, 124
12, 27299, Note_on_c, 11, 62, 0
12, 27300, Note_on_c, 11, 58, 124
12, 27359, Note_on_c, 11, 58, 0
12, 27360, Note_on_c, 11, 57, 123
12, 27419, Note_on_c, 11, 57, 0
12, 27420, Note_on_c, 11, 69, 72
12, 27479, Note_on_c, 11, 69, 0
12, 27480, Note_on_c, 11, 70, 73
12, 27539, Note_on_c, 11, 70, 0
12, 27540, Note_on_c, 11, 72, 72
12, 27599, Note_on_c, 11, 72, 0
12, 27600, Note_on_c, 11, 74, 72
12, 27659, Note_on_c, 11, 74, 0
12, 27660, Note_on_c, 11, 72, 73
12, 27719, Note_on_c, 11, 72, 0
12, 27720, Note_on_c, 11, 74, 73
12, 27779, Note_on_c, 11, 74, 0
12, 27780, Note_on_c, 11, 70, 73
12, 27839, Note_on_c, 11, 70, 0
12, 27840, Note_on_c, 11, 69, 73
12, 27899, Note_on_c, 11, 69, 0
12, 27900, Note_on_c, 11, 57, 126
12, 27959, Note_on_c, 11, 57, 0
12, 27960, Note_on_c, 11, 58, 125
12, 28019, Note_on_c, 11, 58, 0
12, 28020, Note_on_c, 11, 60, 125
12, 28079, Note_on_c, 11, 60, 0
12, 28080, Note_on_c, 11, 62, 125
12, 28139, Note_on_c, 11, 62, 0
12, 28140, Note_on_c, 11, 60, 125
12, 28199, Note_on_c, 11, 60, 0
12, 28200, Note_on_c, 11, 62, 125
12, 28259, Note_on_c, 11, 62, 0
12, 28260, Note_on_c, 11, 58, 125
12, 28319, Note_on_c, 11, 58, 0
12, 28320, Note_on_c, 11, 60, 102
12, 28350, Note_on_c, 11, 60, 0
12, 28350, Note_on_c, 11, 60, 70
12, 28380, Note_on_c, 11, 60, 0
12, 28380, Note_on_c, 11, 60, 71
12, 28410, Note_on_c, 11, 60, 0
12, 28410, Note_on_c, 11, 60, 72
12, 28440, Note_on_c, 11, 60, 0
12, 28440, Note_on_c, 11, 60, 72
12, 28470, Note_on_c, 11, 60, 0
12, 28470, Note_on_c, 11, 60, 72
12, 28500, Note_on_c, 11, 60, 0
12, 28500, Note_on_c, 11, 60, 71
12, 28530, Note_on_c, 11, 60, 0
12, 28530, Note_on_c, 11, 60, 71
12, 28560, Note_on_c, 11, 60, 0
12, 28560, Note_on_c, 11, 63, 70
12, 28590, Note_on_c, 11, 63, 0
12, 28590, Note_on_c, 11, 63, 70
12, 28620, Note_on_c, 11, 63, 0
12, 28620, Note_on_c, 11, 63, 70
12, 28650, Note_on_c, 11, 63, 0
12, 28650, Note_on_c, 11, 63, 70
12, 28680, Note_on_c, 11, 63, 0
12, 28680, Note_on_c, 11, 63, 70
12, 28710, Note_on_c, 11, 63, 0
12, 28710, Note_on_c, 11, 63, 70
12, 28740, Note_on_c, 11, 63, 0
12, 28740, Note_on_c, 11, 63, 69
12, 28770, Note_on_c, 11, 63, 0
12, 28770, Note_on_c, 11, 63, 69
12, 28800, Note_on_c, 11, 63, 0
12, 28800, Note_on_c, 11, 60, 69
12, 28830, Note_on_c, 11, 60, 0
12, 28830, Note_on_c, 11, 60, 69
12, 28860, Note_on_c, 11, 60, 0
12, 28860, Note_on_c, 11, 60, 69
12, 28890, Note_on_c, 11, 60, 0
12, 28890, Note_on_c, 11, 60, 69
12, 28920, Note_on_c, 11, 60, 0
12, 28920, Note_on_c, 11, 60, 70
12, 28950, Note_on_c, 11, 60, 0
12, 28950, Note_on_c, 11, 60, 70
12, 28980, Note_on_c, 11, 60, 0
12, 28980, Note_on_c, 11, 60, 71
12, 29010, Note_on_c, 11, 60, 0
12, 29010, Note_on_c, 11, 60, 71
12, 29040, Note_on_c, 11, 60, 0
12, 29040, Note_on_c, 11, 60, 70
12, 29070, Note_on_c, 11, 60, 0
12, 29070, Note_on_c, 11, 60, 70
12, 29100, Note_on_c, 11, 60, 0
12, 29100, Note_on_c, 11, 60, 70
12, 29130, Note_on_c, 11, 60, 0
12, 29130, Note_on_c, 11, 60, 70
12, 29160, Note_on_c, 11, 60, 0
12, 29160, Note_on_c, 11, 60, 70
12, 29190, Note_on_c, 11, 60, 0
12, 29190, Note_on_c, 11, 60, 69
12, 29220, Note_on_c, 11, 60, 0
12, 29220, Note_on_c, 11, 60, 69
12, 29250, Note_on_c, 11, 60, 0
12, 29250, Note_on_c, 11, 60, 69
12, 29280, Note_on_c, 11, 60, 0
12, 29280, Note_on_c, 11, 58, 69
12, 29339, Note_on_c, 11, 58, 0
12, 29340, Note_on_c, 11, 70, 68
12, 29399, Note_on_c, 11, 70, 0
12, 29400, Note_on_c, 11, 72, 68
12, 29459, Note_on_c, 11, 72, 0
12, 29460, Note_on_c, 11, 74, 68
12, 29519, Note_on_c, 11, 74, 0
12, 29520, Note_on_c, 11, 75, 69
12, 29579, Note_on_c, 11, 75, 0
12, 29580, Note_on_c, 11, 74, 70
12, 29639, Note_on_c, 11, 74, 0
12, 29640, Note_on_c, 11, 75, 70
12, 29699, Note_on_c, 11, 75, 0
12, 29700, Note_on_c, 11, 72, 70
12, 29759, Note_on_c, 11, 72, 0
12, 29760, Note_on_c, 11, 70, 70
12, 29819, Note_on_c, 11, 70, 0
12, 29820, Note_on_c, 11, 58, 125
12, 29879, Note_on_c, 11, 58, 0
12, 29880, Note_on_c, 11, 60, 126
12, 29939, Note_on_c, 11, 60, 0
12, 29940, Note_on_c, 11, 62, 127
12, 29999, Note_on_c, 11, 62, 0
12, 30000, Note_on_c, 11, 63, 127
12, 30059, Note_on_c, 11, 63, 0
12, 30060, Note_on_c, 11, 62, 127
12, 30119, Note_on_c, 11, 62, 0
12, 30120, Note_on_c, 11, 63, 127
12, 30179, Note_on_c, 11, 63, 0
12, 30180, Note_on_c, 11, 60, 126
12, 30239, Note_on_c, 11, 60, 0
12, 30240, Note_on_c, 11, 58, 126
12, 30299, Note_on_c, 11, 58, 0
12, 30300, Note_on_c, 11, 70, 72
12, 30359, Note_on_c, 11, 70, 0
12, 30360, Note_on_c, 11, 72, 73
12, 30419, Note_on_c, 11, 72, 0
12, 30420, Note_on_c, 11, 74, 72
12, 30479, Note_on_c, 11, 74, 0
12, 30480, Note_on_c, 11, 75, 72
12, 30539, Note_on_c, 11, 75, 0
12, 30540, Note_on_c, 11, 74, 72
12, 30599, Note_on_c, 11, 74, 0
12, 30600, Note_on_c, 11, 75, 72
12, 30659, Note_on_c, 11, 75, 0
12, 30660, Note_on_c, 11, 72, 71
12, 30719, Note_on_c, 11, 72, 0
12, 30720, Note_on_c, 11, 70, 70
12, 30779, Note_on_c, 11, 70, 0
12, 30780, Note_on_c, 11, 58, 125
12, 30839, Note_on_c, 11, 58, 0
12, 30840, Note_on_c, 11, 60, 125
12, 30899, Note_on_c, 11, 60, 0
12, 30900, Note_on_c, 11, 62, 125
12, 30959, Note_on_c, 11, 62, 0
12, 30960, Note_on_c, 11, 63, 125
12, 31019, Note_on_c, 11, 63, 0
12, 31020, Note_on_c, 11, 62, 125
12, 31079, Note_on_c, 11, 62, 0
12, 31080, Note_on_c, 11, 63, 125
12, 31139, Note_on_c, 11, 63, 0
12, 31140, Note_on_c, 11, 60, 125
12, 31199, Note_on_c, 11, 60, 0
12, 31200, Note_on_c, 11, 62, 123
12, 31230, Note_on_c, 11, 62, 0
12, 31230, Note_on_c, 11, 62, 71
12, 31260, Note_on_c, 11, 62, 0
12, 31260, Note_on_c, 11, 62, 71
12, 31290, Note_on_c, 11, 62, 0
12, 31290, Note_on_c, 11, 62, 71
12, 31320, Note_on_c, 11, 62, 0
12, 31320, Note_on_c, 11, 62, 71
12, 31350, Note_on_c, 11, 62, 0
12, 31350, Note_on_c, 11, 62, 71
12, 31380, Note_on_c, 11, 62, 0
12, 31380, Note_on_c, 11, 62, 71
12, 31410, Note_on_c, 11, 62, 0
12, 31410, Note_on_c, 11, 62, 71
12, 31440, Note_on_c, 11, 62, 0
12, 31440, Note_on_c, 11, 65, 71
12, 31470, Note_on_c, 11, 65, 0
12, 31470, Note_on_c, 11, 65, 71
12, 31500, Note_on_c, 11, 65, 0
12, 31500, Note_on_c, 11, 65, 71
12, 31530, Note_on_c, 11, 65, 0
12, 31530, Note_on_c, 11, 65, 71
12, 31560, Note_on_c, 11, 65, 0
12, 31560, Note_on_c, 11, 65, 71
12, 31590, Note_on_c, 11, 65, 0
12, 31590, Note_on_c, 11, 65, 71
12, 31620, Note_on_c, 11, 65, 0
12, 31620, Note_on_c, 11, 65, 71
12, 31650, Note_on_c, 11, 65, 0
12, 31650, Note_on_c, 11, 65, 71
12, 31680, Note_on_c, 11, 65, 0
12, 31680, Note_on_c, 11, 62, 71
12, 31710, Note_on_c, 11, 62, 0
12, 31710, Note_on_c, 11, 62, 71
12, 31740, Note_on_c, 11, 62, 0
12, 31740, Note_on_c, 11, 62, 71
12, 31770, Note_on_c, 11, 62, 0
12, 31770, Note_on_c, 11, 62, 71
12, 31800, Note_on_c, 11, 62, 0
12, 31800, Note_on_c, 11, 62, 71
12, 31830, Note_on_c, 11, 62, 0
12, 31830, Note_on_c, 11, 62, 71
12, 31860, Note_on_c, 11, 62, 0
12, 31860, Note_on_c, 11, 62, 71
12, 31890, Note_on_c, 11, 62, 0
12, 31890, Note_on_c, 11, 62, 71
12, 31920, Note_on_c, 11, 62, 0
12, 31920, Note_on_c, 11, 62, 71
12, 31950, Note_on_c, 11, 62, 0
12, 31950, Note_on_c, 11, 62, 71
12, 31980, Note_on_c, 11, 62, 0
12, 31980, Note_on_c, 11, 62, 71
12, 32010, Note_on_c, 11, 62, 0
12, 32010, Note_on_c, 11, 62, 71
12, 32040, Note_on_c, 11, 62, 0
12, 32040, Note_on_c, 11, 62, 71
12, 32070, Note_on_c, 11, 62, 0
12, 32070, Note_on_c, 11, 62, 71
12, 32100, Note_on_c, 11, 62, 0
12, 32100, Note_on_c, 11, 62, 71
12, 32130, Note_on_c, 11, 62, 0
12, 32130, Note_on_c, 11, 62, 71
12, 32160, Note_on_c, 11, 62, 0
12, 32160, Note_on_c, 11, 61, 71
12, 32279, Note_on_c, 11, 61, 0
12, 32280, Note_on_c, 11, 61, 106
12, 32280, Note_on_c, 11, 64, 106
12, 32519, Note_on_c, 11, 64, 0
12, 32519, Note_on_c, 11, 61, 0
12, 32520, Note_on_c, 11, 61, 119
12, 32520, Note_on_c, 11, 64, 119
12, 32759, Note_on_c, 11, 64, 0
12, 32759, Note_on_c, 11, 61, 0
12, 32760, Note_on_c, 11, 61, 70
12, 32879, Note_on_c, 11, 61, 0
12, 32880, Note_on_c, 11, 61, 70
12, 32999, Note_on_c, 11, 61, 0
12, 33000, Note_on_c, 11, 61, 69
12, 33119, Note_on_c, 11, 61, 0
12, 33240, Note_on_c, 11, 62, 70
12, 33359, Note_on_c, 11, 62, 0
12, 33360, Note_on_c, 11, 62, 69
12, 33479, Note_on_c, 11, 62, 0
12, 33480, Note_on_c, 11, 62, 72
12, 33599, Note_on_c, 11, 62, 0
12, 33720, Note_on_c, 11, 61, 70
12, 33839, Note_on_c, 11, 61, 0
12, 33840, Note_on_c, 11, 61, 68
12, 33959, Note_on_c, 11, 61, 0
12, 33960, Note_on_c, 11, 61, 68
12, 34079, Note_on_c, 11, 61, 0
12, 34200, Note_on_c, 11, 62, 69
12, 34319, Note_on_c, 11, 62, 0
12, 34320, Note_on_c, 11, 62, 68
12, 34439, Note_on_c, 11, 62, 0
12, 34440, Note_on_c, 11, 62, 68
12, 34559, Note_on_c, 11, 62, 0
12, 34680, Note_on_c, 11, 61, 70
12, 34799, Note_on_c, 11, 61, 0
12, 34800, Note_on_c, 11, 61, 69
12, 34919, Note_on_c, 11, 61, 0
12, 34920, Note_on_c, 11, 61, 68
12, 35039, Note_on_c, 11, 61, 0
12, 35040, Note_on_c, 11, 62, 68
12, 35159, Note_on_c, 11, 62, 0
12, 35280, Note_on_c, 11, 69, 68
12, 35339, Note_on_c, 11, 69, 0
12, 35400, Note_on_c, 11, 70, 69
12, 35459, Note_on_c, 11, 70, 0
12, 35520, Note_on_c, 11, 69, 69
12, 35639, Note_on_c, 11, 69, 0
12, 35760, Note_on_c, 11, 65, 68
12, 35819, Note_on_c, 11, 65, 0
12, 35880, Note_on_c, 11, 67, 68
12, 35939, Note_on_c, 11, 67, 0
12, 36000, Note_on_c, 11, 65, 68
12, 36119, Note_on_c, 11, 65, 0
12, 36240, Note_on_c, 11, 69, 68
12, 36299, Note_on_c, 11, 69, 0
12, 36360, Note_on_c, 11, 70, 69
12, 36419, Note_on_c, 11, 70, 0
12, 36480, Note_on_c, 11, 69, 69
12, 36599, Note_on_c, 11, 69, 0
12, 36720, Note_on_c, 11, 65, 71
12, 36779, Note_on_c, 11, 65, 0
12, 36840, Note_on_c, 11, 67, 71
12, 36899, Note_on_c, 11, 67, 0
12, 36960, Note_on_c, 11, 65, 69
12, 37079, Note_on_c, 11, 65, 0
12, 37320, Note_on_c, 11, 69, 70
12, 37379, Note_on_c, 11, 69, 0
12, 37440, Note_on_c, 11, 70, 71
12, 37499, Note_on_c, 11, 70, 0
12, 37560, Note_on_c, 11, 67, 71
12, 37619, Note_on_c, 11, 67, 0
12, 37680, Note_on_c, 11, 69, 71
12, 37739, Note_on_c, 11, 69, 0
12, 37800, Note_on_c, 11, 65, 71
12, 37859, Note_on_c, 11, 65, 0
12, 37920, Note_on_c, 11, 67, 71
12, 37979, Note_on_c, 11, 67, 0
12, 38040, Note_on_c, 11, 64, 71
12, 38099, Note_on_c, 11, 64, 0
12, 38160, Note_on_c, 11, 65, 71
12, 38279, Note_on_c, 11, 65, 0
12, 38400, Note_on_c, 11, 58, 71
12, 38430, Note_on_c, 11, 58, 0
12, 38430, Note_on_c, 11, 58, 71
12, 38460, Note_on_c, 11, 58, 0
12, 38460, Note_on_c, 11, 58, 71
12, 38490, Note_on_c, 11, 58, 0
12, 38490, Note_on_c, 11, 58, 71
12, 38520, Note_on_c, 11, 58, 0
12, 38520, Note_on_c, 11, 58, 71
12, 38550, Note_on_c, 11, 58, 0
12, 38550, Note_on_c, 11, 58, 71
12, 38580, Note_on_c, 11, 58, 0
12, 38580, Note_on_c, 11, 58, 71
12, 38610, Note_on_c, 11, 58, 0
12, 38610, Note_on_c, 11, 58, 71
12, 38640, Note_on_c, 11, 58, 0
12, 38640, Note_on_c, 11, 58, 71
12, 38670, Note_on_c, 11, 58, 0
12, 38670, Note_on_c, 11, 58, 71
12, 38700, Note_on_c, 11, 58, 0
12, 38700, Note_on_c, 11, 58, 71
12, 38730, Note_on_c, 11, 58, 0
12, 38730, Note_on_c, 11, 58, 71
12, 38760, Note_on_c, 11, 58, 0
12, 38760, Note_on_c, 11, 58, 71
12, 38790, Note_on_c, 11, 58, 0
12, 38790, Note_on_c, 11, 58, 71
12, 38820, Note_on_c, 11, 58, 0
12, 38820, Note_on_c, 11, 58, 71
12, 38850, Note_on_c, 11, 58, 0
12, 38850, Note_on_c, 11, 58, 71
12, 38880, Note_on_c, 11, 58, 0
12, 38880, Note_on_c, 11, 58, 72
12, 38910, Note_on_c, 11, 58, 0
12, 38910, Note_on_c, 11, 58, 71
12, 38940, Note_on_c, 11, 58, 0
12, 38940, Note_on_c, 11, 58, 75
12, 38970, Note_on_c, 11, 58, 0
12, 38970, Note_on_c, 11, 58, 76
12, 39000, Note_on_c, 11, 58, 0
12, 39000, Note_on_c, 11, 58, 79
12, 39030, Note_on_c, 11, 58, 0
12, 39030, Note_on_c, 11, 58, 80
12, 39060, Note_on_c, 11, 58, 0
12, 39060, Note_on_c, 11, 58, 82
12, 39090, Note_on_c, 11, 58, 0
12, 39090, Note_on_c, 11, 58, 84
12, 39120, Note_on_c, 11, 58, 0
12, 39120, Note_on_c, 11, 58, 86
12, 39150, Note_on_c, 11, 58, 0
12, 39150, Note_on_c, 11, 58, 89
12, 39180, Note_on_c, 11, 58, 0
12, 39180, Note_on_c, 11, 58, 92
12, 39210, Note_on_c, 11, 58, 0
12, 39210, Note_on_c, 11, 58, 95
12, 39240, Note_on_c, 11, 58, 0
12, 39240, Note_on_c, 11, 59, 99
12, 39270, Note_on_c, 11, 59, 0
12, 39270, Note_on_c, 11, 59, 103
12, 39300, Note_on_c, 11, 59, 0
12, 39300, Note_on_c, 11, 59, 108
12, 39330, Note_on_c, 11, 59, 0
12, 39330, Note_on_c, 11, 59, 112
12, 39360, Note_on_c, 11, 59, 0
12, 39360, Note_on_c, 11, 57, 115
12, 39479, Note_on_c, 11, 57, 0
12, 39480, Note_on_c, 11, 64, 127
12, 39480, Note_on_c, 11, 73, 127
12, 39480, Note_on_c, 11, 81, 127
12, 39599, Note_on_c, 11, 81, 0
12, 39599, Note_on_c, 11, 73, 0
12, 39599, Note_on_c, 11, 64, 0
12, 39600, Note_on_c, 11, 57, 127
12, 39719, Note_on_c, 11, 57, 0
12, 39960, Note_on_c, 11, 73, 127
12, 39960, Note_on_c, 11, 81, 127
12, 39960, Note_on_c, 11, 64, 127
12, 40079, Note_on_c, 11, 64, 0
12, 40079, Note_on_c, 11, 81, 0
12, 40079, Note_on_c, 11, 73, 0
12, 40080, Note_on_c, 11, 57, 127
12, 40199, Note_on_c, 11, 57, 0
12, 40440, Note_on_c, 11, 73, 127
12, 40440, Note_on_c, 11, 64, 127
12, 40440, Note_on_c, 11, 81, 127
12, 40559, Note_on_c, 11, 81, 0
12, 40559, Note_on_c, 11, 64, 0
12, 40559, Note_on_c, 11, 73, 0
12, 40560, Note_on_c, 11, 57, 126
12, 40679, Note_on_c, 11, 57, 0
12, 41400, Note_on_c, 11, 67, 127
12, 41430, Note_on_c, 11, 67, 0
12, 41430, Note_on_c, 11, 67, 124
12, 41460, Note_on_c, 11, 67, 0
12, 41460, Note_on_c, 11, 67, 123
12, 41490, Note_on_c, 11, 67, 0
12, 41490, Note_on_c, 11, 67, 121
12, 41520, Note_on_c, 11, 67, 0
12, 41520, Note_on_c, 11, 64, 119
12, 41550, Note_on_c, 11, 64, 0
12, 41550, Note_on_c, 11, 64, 118
12, 41580, Note_on_c, 11, 64, 0
12, 41580, Note_on_c, 11, 64, 115
12, 41610, Note_on_c, 11, 64, 0
12, 41610, Note_on_c, 11, 64, 115
12, 41640, Note_on_c, 11, 64, 0
12, 41640, Note_on_c, 11, 62, 111
12, 41670, Note_on_c, 11, 62, 0
12, 41670, Note_on_c, 11, 62, 108
12, 41700, Note_on_c, 11, 62, 0
12, 41700, Note_on_c, 11, 62, 106
12, 41730, Note_on_c, 11, 62, 0
12, 41730, Note_on_c, 11, 62, 102
12, 41760, Note_on_c, 11, 62, 0
12, 41760, Note_on_c, 11, 61, 99
12, 41999, Note_on_c, 11, 61, 0
12, 42420, Note_on_c, 11, 69, 104
12, 42439, Note_on_c, 11, 69, 0
12, 42440, Note_on_c, 11, 71, 111
12, 42459, Note_on_c, 11, 71, 0
12, 42460, Note_on_c, 11, 73, 115
12, 42479, Note_on_c, 11, 73, 0
12, 42480, Note_on_c, 11, 74, 125
12, 42719, Note_on_c, 11, 74, 0
12, 42900, Note_on_c, 11, 73, 100
12, 42919, Note_on_c, 11, 73, 0
12, 42920, Note_on_c, 11, 74, 109
12, 42939, Note_on_c, 11, 74, 0
12, 42940, Note_on_c, 11, 76, 116
12, 42959, Note_on_c, 11, 76, 0
12, 42960, Note_on_c, 11, 77, 124
12, 43199, Note_on_c, 11, 77, 0
12, 43440, Note_on_c, 11, 62, 93
12, 43679, Note_on_c, 11, 62, 0
12, 43680, Note_on_c, 11, 63, 92
12, 43709, Note_on_c, 11, 63, 0
12, 43710, Note_on_c, 11, 67, 92
12, 43739, Note_on_c, 11, 67, 0
12, 43740, Note_on_c, 11, 65, 92
12, 43769, Note_on_c, 11, 65, 0
12, 43770, Note_on_c, 11, 63, 92
12, 43799, Note_on_c, 11, 63, 0
12, 43800, Note_on_c, 11, 62, 92
12, 43829, Note_on_c, 11, 62, 0
12, 43830, Note_on_c, 11, 65, 92
12, 43859, Note_on_c, 11, 65, 0
12, 43860, Note_on_c, 11, 63, 92
12, 43889, Note_on_c, 11, 63, 0
12, 43890, Note_on_c, 11, 62, 92
12, 43919, Note_on_c, 11, 62, 0
12, 43920, Note_on_c, 11, 63, 92
12, 43949, Note_on_c, 11, 63, 0
12, 43950, Note_on_c, 11, 67, 92
12, 43979, Note_on_c, 11, 67, 0
12, 43980, Note_on_c, 11, 65, 92
12, 44009, Note_on_c, 11, 65, 0
12, 44010, Note_on_c, 11, 63, 91
12, 44039, Note_on_c, 11, 63, 0
12, 44040, Note_on_c, 11, 62, 91
12, 44069, Note_on_c, 11, 62, 0
12, 44070, Note_on_c, 11, 65, 91
12, 44099, Note_on_c, 11, 65, 0
12, 44100, Note_on_c, 11, 63, 91
12, 44129, Note_on_c, 11, 63, 0
12, 44130, Note_on_c, 11, 62, 91
12, 44159, Note_on_c, 11, 62, 0
12, 44160, Note_on_c, 11, 63, 91
12, 44279, Note_on_c, 11, 63, 0
12, 44850, Note_on_c, 11, 73, 91
12, 44850, Note_on_c, 11, 76, 91
12, 44879, Note_on_c, 11, 76, 0
12, 44879, Note_on_c, 11, 73, 0
12, 44880, Note_on_c, 11, 73, 91
12, 44880, Note_on_c, 11, 76, 91
12, 44999, Note_on_c, 11, 76, 0
12, 44999, Note_on_c, 11, 73, 0
12, 45090, Note_on_c, 11, 74, 90
12, 45090, Note_on_c, 11, 77, 90
12, 45119, Note_on_c, 11, 77, 0
12, 45119, Note_on_c, 11, 74, 0
12, 45120, Note_on_c, 11, 74, 90
12, 45120, Note_on_c, 11, 77, 90
12, 45359, Note_on_c, 11, 77, 0
12, 45359, Note_on_c, 11, 74, 0
12, 46320, Note_on_c, 11, 69, 92
12, 46320, Note_on_c, 11, 79, 92
12, 46559, Note_on_c, 11, 79, 0
12, 46559, Note_on_c, 11, 69, 0
12, 46560, Note_on_c, 11, 77, 90
12, 46619, Note_on_c, 11, 77, 0
12, 46620, Note_on_c, 11, 73, 95
12, 46649, Note_on_c, 11, 73, 0
12, 46650, Note_on_c, 11, 73, 97
12, 46679, Note_on_c, 11, 73, 0
12, 46680, Note_on_c, 11, 74, 99
12, 46709, Note_on_c, 11, 74, 0
12, 46710, Note_on_c, 11, 74, 101
12, 46739, Note_on_c, 11, 74, 0
12, 46740, Note_on_c, 11, 76, 103
12, 46769, Note_on_c, 11, 76, 0
12, 46770, Note_on_c, 11, 76, 105
12, 46799, Note_on_c, 11, 76, 0
12, 46800, Note_on_c, 11, 77, 107
12, 46829, Note_on_c, 11, 77, 0
12, 46830, Note_on_c, 11, 77, 109
12, 46859, Note_on_c, 11, 77, 0
12, 46860, Note_on_c, 11, 78, 112
12, 46889, Note_on_c, 11, 78, 0
12, 46890, Note_on_c, 11, 78, 115
12, 46919, Note_on_c, 11, 78, 0
12, 46920, Note_on_c, 11, 79, 117
12, 46949, Note_on_c, 11, 79, 0
12, 46950, Note_on_c, 11, 79, 120
12, 46979, Note_on_c, 11, 79, 0
12, 46980, Note_on_c, 11, 80, 123
12, 47009, Note_on_c, 11, 80, 0
12, 47010, Note_on_c, 11, 80, 125
12, 47039, Note_on_c, 11, 80, 0
12, 47040, Note_on_c, 11, 81, 127
12, 47159, Note_on_c, 11, 81, 0
12, 47280, Note_on_c, 11, 73, 127
12, 47280, Note_on_c, 11, 81, 127
12, 47280, Note_on_c, 11, 64, 127
12, 47399, Note_on_c, 11, 64, 0
12, 47399, Note_on_c, 11, 81, 0
12, 47399, Note_on_c, 11, 73, 0
12, 47520, Note_on_c, 11, 74, 127
12, 47520, Note_on_c, 11, 62, 127
12, 47759, Note_on_c, 11, 62, 0
12, 47759, Note_on_c, 11, 74, 0
12, 47759, End_track
13, 0, Start_track
13, 0, MIDI_port, 0
13, 0, Title_t, "Viole"
13, 180, Control_c, 12, 0, 0
13, 182, Program_c, 12, 41
13, 183, Control_c, 12, 7, 70
13, 183, Control_c, 12, 10, 88
13, 205, Control_c, 12, 11, 127
13, 206, Control_c, 12, 91, 100
13, 207, Control_c, 12, 93, 40
13, 208, Control_c, 12, 1, 20
13, 208, Control_c, 12, 99, 1
13, 208, Control_c, 12, 98, 32
13, 208, Control_c, 12, 6, 56
13, 208, Control_c, 12, 38, 0
13, 209, Control_c, 12, 99, 1
13, 209, Control_c, 12, 98, 33
13, 209, Control_c, 12, 6, 54
13, 209, Control_c, 12, 38, 0
13, 210, Control_c, 12, 99, 1
13, 210, Control_c, 12, 98, 99
13, 210, Control_c, 12, 6, 66
13, 210, Control_c, 12, 38, 0
13, 480, Note_on_c, 12, 53, 74
13, 509, Note_on_c, 12, 53, 0
13, 510, Note_on_c, 12, 53, 74
13, 539, Note_on_c, 12, 53, 0
13, 540, Note_on_c, 12, 53, 75
13, 569, Note_on_c, 12, 53, 0
13, 570, Note_on_c, 12, 53, 75
13, 599, Note_on_c, 12, 53, 0
13, 600, Note_on_c, 12, 53, 75
13, 630, Note_on_c, 12, 53, 0
13, 630, Note_on_c, 12, 53, 75
13, 660, Note_on_c, 12, 53, 0
13, 660, Note_on_c, 12, 53, 75
13, 690, Note_on_c, 12, 53, 0
13, 690, Note_on_c, 12, 53, 75
13, 720, Note_on_c, 12, 53, 0
13, 720, Note_on_c, 12, 53, 75
13, 750, Note_on_c, 12, 53, 0
13, 750, Note_on_c, 12, 53, 76
13, 780, Note_on_c, 12, 53, 0
13, 780, Note_on_c, 12, 53, 76
13, 810, Note_on_c, 12, 53, 0
13, 810, Note_on_c, 12, 53, 76
13, 840, Note_on_c, 12, 53, 0
13, 840, Note_on_c, 12, 53, 76
13, 870, Note_on_c, 12, 53, 0
13, 870, Note_on_c, 12, 53, 77
13, 900, Note_on_c, 12, 53, 0
13, 900, Note_on_c, 12, 53, 77
13, 930, Note_on_c, 12, 53, 0
13, 930, Note_on_c, 12, 53, 77
13, 960, Note_on_c, 12, 53, 0
13, 960, Note_on_c, 12, 53, 126
13, 989, Note_on_c, 12, 53, 0
13, 990, Note_on_c, 12, 53, 122
13, 1019, Note_on_c, 12, 53, 0
13, 1020, Note_on_c, 12, 53, 117
13, 1049, Note_on_c, 12, 53, 0
13, 1050, Note_on_c, 12, 53, 110
13, 1079, Note_on_c, 12, 53, 0
13, 1080, Note_on_c, 12, 53, 103
13, 1110, Note_on_c, 12, 53, 0
13, 1110, Note_on_c, 12, 53, 98
13, 1140, Note_on_c, 12, 53, 0
13, 1140, Note_on_c, 12, 53, 92
13, 1170, Note_on_c, 12, 53, 0
13, 1170, Note_on_c, 12, 53, 87
13, 1200, Note_on_c, 12, 53, 0
13, 1200, Note_on_c, 12, 53, 78
13, 1230, Note_on_c, 12, 53, 0
13, 1230, Note_on_c, 12, 53, 75
13, 1260, Note_on_c, 12, 53, 0
13, 1260, Note_on_c, 12, 53, 75
13, 1290, Note_on_c, 12, 53, 0
13, 1290, Note_on_c, 12, 53, 75
13, 1320, Note_on_c, 12, 53, 0
13, 1320, Note_on_c, 12, 53, 75
13, 1350, Note_on_c, 12, 53, 0
13, 1350, Note_on_c, 12, 53, 74
13, 1380, Note_on_c, 12, 53, 0
13, 1380, Note_on_c, 12, 53, 74
13, 1410, Note_on_c, 12, 53, 0
13, 1410, Note_on_c, 12, 53, 74
13, 1440, Note_on_c, 12, 53, 0
13, 1440, Note_on_c, 12, 57, 72
13, 1499, Note_on_c, 12, 57, 0
13, 1560, Note_on_c, 12, 62, 79
13, 1619, Note_on_c, 12, 62, 0
13, 1680, Note_on_c, 12, 69, 80
13, 1739, Note_on_c, 12, 69, 0
13, 1800, Note_on_c, 12, 67, 80
13, 1859, Note_on_c, 12, 67, 0
13, 1920, Note_on_c, 12, 65, 80
13, 2039, Note_on_c, 12, 65, 0
13, 2160, Note_on_c, 12, 65, 124
13, 2190, Note_on_c, 12, 65, 0
13, 2190, Note_on_c, 12, 65, 120
13, 2220, Note_on_c, 12, 65, 0
13, 2220, Note_on_c, 12, 65, 114
13, 2250, Note_on_c, 12, 65, 0
13, 2250, Note_on_c, 12, 65, 104
13, 2280, Note_on_c, 12, 65, 0
13, 2280, Note_on_c, 12, 65, 96
13, 2310, Note_on_c, 12, 65, 0
13, 2310, Note_on_c, 12, 65, 90
13, 2340, Note_on_c, 12, 65, 0
13, 2340, Note_on_c, 12, 65, 83
13, 2370, Note_on_c, 12, 65, 0
13, 2370, Note_on_c, 12, 65, 77
13, 2400, Note_on_c, 12, 65, 0
13, 2400, Note_on_c, 12, 64, 74
13, 2519, Note_on_c, 12, 64, 0
13, 2640, Note_on_c, 12, 67, 127
13, 2670, Note_on_c, 12, 67, 0
13, 2670, Note_on_c, 12, 67, 121
13, 2700, Note_on_c, 12, 67, 0
13, 2700, Note_on_c, 12, 67, 116
13, 2730, Note_on_c, 12, 67, 0
13, 2730, Note_on_c, 12, 67, 109
13, 2760, Note_on_c, 12, 67, 0
13, 2760, Note_on_c, 12, 67, 103
13, 2790, Note_on_c, 12, 67, 0
13, 2790, Note_on_c, 12, 67, 96
13, 2820, Note_on_c, 12, 67, 0
13, 2820, Note_on_c, 12, 67, 89
13, 2850, Note_on_c, 12, 67, 0
13, 2850, Note_on_c, 12, 67, 81
13, 2880, Note_on_c, 12, 67, 0
13, 2880, Note_on_c, 12, 65, 75
13, 2999, Note_on_c, 12, 65, 0
13, 3120, Note_on_c, 12, 69, 127
13, 3150, Note_on_c, 12, 69, 0
13, 3150, Note_on_c, 12, 69, 120
13, 3180, Note_on_c, 12, 69, 0
13, 3180, Note_on_c, 12, 69, 113
13, 3210, Note_on_c, 12, 69, 0
13, 3210, Note_on_c, 12, 69, 108
13, 3240, Note_on_c, 12, 69, 0
13, 3240, Note_on_c, 12, 69, 102
13, 3270, Note_on_c, 12, 69, 0
13, 3270, Note_on_c, 12, 69, 97
13, 3300, Note_on_c, 12, 69, 0
13, 3300, Note_on_c, 12, 69, 90
13, 3330, Note_on_c, 12, 69, 0
13, 3330, Note_on_c, 12, 69, 86
13, 3360, Note_on_c, 12, 69, 0
13, 3360, Note_on_c, 12, 67, 125
13, 3419, Note_on_c, 12, 67, 0
13, 3420, Note_on_c, 12, 67, 100
13, 3479, Note_on_c, 12, 67, 0
13, 3480, Note_on_c, 12, 67, 76
13, 3539, Note_on_c, 12, 67, 0
13, 3540, Note_on_c, 12, 67, 75
13, 3599, Note_on_c, 12, 67, 0
13, 3600, Note_on_c, 12, 69, 124
13, 3659, Note_on_c, 12, 69, 0
13, 3660, Note_on_c, 12, 69, 100
13, 3719, Note_on_c, 12, 69, 0
13, 3720, Note_on_c, 12, 69, 76
13, 3779, Note_on_c, 12, 69, 0
13, 3780, Note_on_c, 12, 69, 75
13, 3839, Note_on_c, 12, 69, 0
13, 3840, Note_on_c, 12, 70, 76
13, 3899, Note_on_c, 12, 70, 0
13, 3900, Note_on_c, 12, 70, 75
13, 3959, Note_on_c, 12, 70, 0
13, 3960, Note_on_c, 12, 66, 79
13, 4019, Note_on_c, 12, 66, 0
13, 4020, Note_on_c, 12, 66, 84
13, 4079, Note_on_c, 12, 66, 0
13, 4080, Note_on_c, 12, 67, 91
13, 4139, Note_on_c, 12, 67, 0
13, 4140, Note_on_c, 12, 67, 99
13, 4199, Note_on_c, 12, 67, 0
13, 4200, Note_on_c, 12, 67, 110
13, 4259, Note_on_c, 12, 67, 0
13, 4260, Note_on_c, 12, 67, 113
13, 4319, Note_on_c, 12, 67, 0
13, 4320, Note_on_c, 12, 67, 73
13, 4379, Note_on_c, 12, 67, 0
13, 4380, Note_on_c, 12, 67, 72
13, 4439, Note_on_c, 12, 67, 0
13, 4440, Note_on_c, 12, 67, 72
13, 4499, Note_on_c, 12, 67, 0
13, 4500, Note_on_c, 12, 67, 73
13, 4559, Note_on_c, 12, 67, 0
13, 4560, Note_on_c, 12, 67, 72
13, 4619, Note_on_c, 12, 67, 0
13, 4620, Note_on_c, 12, 67, 72
13, 4679, Note_on_c, 12, 67, 0
13, 4680, Note_on_c, 12, 71, 72
13, 4739, Note_on_c, 12, 71, 0
13, 4740, Note_on_c, 12, 71, 71
13, 4799, Note_on_c, 12, 71, 0
13, 4800, Note_on_c, 12, 69, 71
13, 4919, Note_on_c, 12, 69, 0
13, 4920, Note_on_c, 12, 57, 102
13, 5039, Note_on_c, 12, 57, 0
13, 5040, Note_on_c, 12, 56, 113
13, 5159, Note_on_c, 12, 56, 0
13, 5160, Note_on_c, 12, 55, 122
13, 5279, Note_on_c, 12, 55, 0
13, 5280, Note_on_c, 12, 57, 125
13, 5310, Note_on_c, 12, 57, 0
13, 5310, Note_on_c, 12, 57, 70
13, 5340, Note_on_c, 12, 57, 0
13, 5340, Note_on_c, 12, 57, 72
13, 5370, Note_on_c, 12, 57, 0
13, 5370, Note_on_c, 12, 57, 73
13, 5400, Note_on_c, 12, 57, 0
13, 5400, Note_on_c, 12, 57, 73
13, 5430, Note_on_c, 12, 57, 0
13, 5430, Note_on_c, 12, 57, 72
13, 5460, Note_on_c, 12, 57, 0
13, 5460, Note_on_c, 12, 57, 72
13, 5490, Note_on_c, 12, 57, 0
13, 5490, Note_on_c, 12, 57, 71
13, 5520, Note_on_c, 12, 57, 0
13, 5520, Note_on_c, 12, 57, 71
13, 5550, Note_on_c, 12, 57, 0
13, 5550, Note_on_c, 12, 57, 72
13, 5580, Note_on_c, 12, 57, 0
13, 5580, Note_on_c, 12, 57, 72
13, 5610, Note_on_c, 12, 57, 0
13, 5610, Note_on_c, 12, 57, 72
13, 5640, Note_on_c, 12, 57, 0
13, 5640, Note_on_c, 12, 57, 72
13, 5670, Note_on_c, 12, 57, 0
13, 5670, Note_on_c, 12, 57, 72
13, 5700, Note_on_c, 12, 57, 0
13, 5700, Note_on_c, 12, 57, 72
13, 5730, Note_on_c, 12, 57, 0
13, 5730, Note_on_c, 12, 57, 72
13, 5760, Note_on_c, 12, 57, 0
13, 5760, Note_on_c, 12, 57, 72
13, 5790, Note_on_c, 12, 57, 0
13, 5790, Note_on_c, 12, 57, 72
13, 5820, Note_on_c, 12, 57, 0
13, 5820, Note_on_c, 12, 57, 73
13, 5850, Note_on_c, 12, 57, 0
13, 5850, Note_on_c, 12, 57, 73
13, 5880, Note_on_c, 12, 57, 0
13, 5880, Note_on_c, 12, 57, 73
13, 5910, Note_on_c, 12, 57, 0
13, 5910, Note_on_c, 12, 57, 73
13, 5940, Note_on_c, 12, 57, 0
13, 5940, Note_on_c, 12, 57, 72
13, 5970, Note_on_c, 12, 57, 0
13, 5970, Note_on_c, 12, 57, 72
13, 6000, Note_on_c, 12, 57, 0
13, 6000, Note_on_c, 12, 57, 72
13, 6030, Note_on_c, 12, 57, 0
13, 6030, Note_on_c, 12, 57, 71
13, 6060, Note_on_c, 12, 57, 0
13, 6060, Note_on_c, 12, 57, 71
13, 6090, Note_on_c, 12, 57, 0
13, 6090, Note_on_c, 12, 57, 71
13, 6120, Note_on_c, 12, 57, 0
13, 6120, Note_on_c, 12, 57, 71
13, 6150, Note_on_c, 12, 57, 0
13, 6150, Note_on_c, 12, 57, 71
13, 6180, Note_on_c, 12, 57, 0
13, 6180, Note_on_c, 12, 57, 71
13, 6210, Note_on_c, 12, 57, 0
13, 6210, Note_on_c, 12, 57, 71
13, 6240, Note_on_c, 12, 57, 0
13, 6240, Note_on_c, 12, 57, 71
13, 6270, Note_on_c, 12, 57, 0
13, 6270, Note_on_c, 12, 57, 71
13, 6300, Note_on_c, 12, 57, 0
13, 6300, Note_on_c, 12, 57, 72
13, 6330, Note_on_c, 12, 57, 0
13, 6330, Note_on_c, 12, 57, 72
13, 6360, Note_on_c, 12, 57, 0
13, 6360, Note_on_c, 12, 57, 72
13, 6390, Note_on_c, 12, 57, 0
13, 6390, Note_on_c, 12, 57, 71
13, 6420, Note_on_c, 12, 57, 0
13, 6420, Note_on_c, 12, 57, 71
13, 6450, Note_on_c, 12, 57, 0
13, 6450, Note_on_c, 12, 57, 71
13, 6480, Note_on_c, 12, 57, 0
13, 6480, Note_on_c, 12, 57, 71
13, 6510, Note_on_c, 12, 57, 0
13, 6510, Note_on_c, 12, 57, 71
13, 6540, Note_on_c, 12, 57, 0
13, 6540, Note_on_c, 12, 57, 71
13, 6570, Note_on_c, 12, 57, 0
13, 6570, Note_on_c, 12, 57, 71
13, 6600, Note_on_c, 12, 57, 0
13, 6600, Note_on_c, 12, 57, 71
13, 6630, Note_on_c, 12, 57, 0
13, 6630, Note_on_c, 12, 57, 71
13, 6660, Note_on_c, 12, 57, 0
13, 6660, Note_on_c, 12, 57, 71
13, 6690, Note_on_c, 12, 57, 0
13, 6690, Note_on_c, 12, 57, 70
13, 6720, Note_on_c, 12, 57, 0
13, 6720, Note_on_c, 12, 55, 70
13, 6750, Note_on_c, 12, 55, 0
13, 6750, Note_on_c, 12, 55, 71
13, 6780, Note_on_c, 12, 55, 0
13, 6780, Note_on_c, 12, 55, 74
13, 6810, Note_on_c, 12, 55, 0
13, 6810, Note_on_c, 12, 55, 77
13, 6840, Note_on_c, 12, 55, 0
13, 6840, Note_on_c, 12, 55, 78
13, 6870, Note_on_c, 12, 55, 0
13, 6870, Note_on_c, 12, 55, 81
13, 6900, Note_on_c, 12, 55, 0
13, 6900, Note_on_c, 12, 55, 84
13, 6930, Note_on_c, 12, 55, 0
13, 6930, Note_on_c, 12, 55, 87
13, 6960, Note_on_c, 12, 55, 0
13, 6960, Note_on_c, 12, 58, 91
13, 6990, Note_on_c, 12, 58, 0
13, 6990, Note_on_c, 12, 58, 96
13, 7020, Note_on_c, 12, 58, 0
13, 7020, Note_on_c, 12, 58, 99
13, 7050, Note_on_c, 12, 58, 0
13, 7050, Note_on_c, 12, 58, 102
13, 7080, Note_on_c, 12, 58, 0
13, 7080, Note_on_c, 12, 58, 102
13, 7110, Note_on_c, 12, 58, 0
13, 7110, Note_on_c, 12, 58, 108
13, 7140, Note_on_c, 12, 58, 0
13, 7140, Note_on_c, 12, 58, 114
13, 7170, Note_on_c, 12, 58, 0
13, 7170, Note_on_c, 12, 58, 116
13, 7200, Note_on_c, 12, 58, 0
13, 7200, Note_on_c, 12, 55, 71
13, 7230, Note_on_c, 12, 55, 0
13, 7230, Note_on_c, 12, 55, 71
13, 7260, Note_on_c, 12, 55, 0
13, 7260, Note_on_c, 12, 55, 70
13, 7290, Note_on_c, 12, 55, 0
13, 7290, Note_on_c, 12, 55, 70
13, 7320, Note_on_c, 12, 55, 0
13, 7320, Note_on_c, 12, 55, 70
13, 7350, Note_on_c, 12, 55, 0
13, 7350, Note_on_c, 12, 55, 71
13, 7380, Note_on_c, 12, 55, 0
13, 7380, Note_on_c, 12, 55, 72
13, 7410, Note_on_c, 12, 55, 0
13, 7410, Note_on_c, 12, 55, 72
13, 7440, Note_on_c, 12, 55, 0
13, 7440, Note_on_c, 12, 55, 72
13, 7470, Note_on_c, 12, 55, 0
13, 7470, Note_on_c, 12, 55, 73
13, 7500, Note_on_c, 12, 55, 0
13, 7500, Note_on_c, 12, 55, 72
13, 7530, Note_on_c, 12, 55, 0
13, 7530, Note_on_c, 12, 55, 72
13, 7560, Note_on_c, 12, 55, 0
13, 7560, Note_on_c, 12, 55, 72
13, 7590, Note_on_c, 12, 55, 0
13, 7590, Note_on_c, 12, 55, 72
13, 7620, Note_on_c, 12, 55, 0
13, 7620, Note_on_c, 12, 55, 72
13, 7650, Note_on_c, 12, 55, 0
13, 7650, Note_on_c, 12, 55, 72
13, 7680, Note_on_c, 12, 55, 0
13, 7680, Note_on_c, 12, 53, 71
13, 7710, Note_on_c, 12, 53, 0
13, 7710, Note_on_c, 12, 53, 74
13, 7740, Note_on_c, 12, 53, 0
13, 7740, Note_on_c, 12, 53, 76
13, 7770, Note_on_c, 12, 53, 0
13, 7770, Note_on_c, 12, 53, 79
13, 7800, Note_on_c, 12, 53, 0
13, 7800, Note_on_c, 12, 53, 81
13, 7830, Note_on_c, 12, 53, 0
13, 7830, Note_on_c, 12, 53, 84
13, 7860, Note_on_c, 12, 53, 0
13, 7860, Note_on_c, 12, 53, 88
13, 7890, Note_on_c, 12, 53, 0
13, 7890, Note_on_c, 12, 53, 92
13, 7920, Note_on_c, 12, 53, 0
13, 7920, Note_on_c, 12, 57, 95
13, 7950, Note_on_c, 12, 57, 0
13, 7950, Note_on_c, 12, 57, 96
13, 7980, Note_on_c, 12, 57, 0
13, 7980, Note_on_c, 12, 57, 98
13, 8010, Note_on_c, 12, 57, 0
13, 8010, Note_on_c, 12, 57, 101
13, 8040, Note_on_c, 12, 57, 0
13, 8040, Note_on_c, 12, 57, 103
13, 8070, Note_on_c, 12, 57, 0
13, 8070, Note_on_c, 12, 57, 108
13, 8100, Note_on_c, 12, 57, 0
13, 8100, Note_on_c, 12, 57, 112
13, 8130, Note_on_c, 12, 57, 0
13, 8130, Note_on_c, 12, 57, 115
13, 8160, Note_on_c, 12, 57, 0
13, 8160, Note_on_c, 12, 58, 71
13, 8279, Note_on_c, 12, 58, 0
13, 8640, Note_on_c, 12, 62, 114
13, 8699, Note_on_c, 12, 62, 0
13, 8700, Note_on_c, 12, 62, 97
13, 8759, Note_on_c, 12, 62, 0
13, 8760, Note_on_c, 12, 62, 71
13, 8819, Note_on_c, 12, 62, 0
13, 8820, Note_on_c, 12, 62, 71
13, 8879, Note_on_c, 12, 62, 0
13, 8880, Note_on_c, 12, 60, 113
13, 8939, Note_on_c, 12, 60, 0
13, 8940, Note_on_c, 12, 60, 96
13, 8999, Note_on_c, 12, 60, 0
13, 9000, Note_on_c, 12, 60, 72
13, 9059, Note_on_c, 12, 60, 0
13, 9060, Note_on_c, 12, 60, 72
13, 9119, Note_on_c, 12, 60, 0
13, 9120, Note_on_c, 12, 62, 72
13, 9179, Note_on_c, 12, 62, 0
13, 9180, Note_on_c, 12, 62, 73
13, 9239, Note_on_c, 12, 62, 0
13, 9240, Note_on_c, 12, 62, 73
13, 9299, Note_on_c, 12, 62, 0
13, 9300, Note_on_c, 12, 62, 74
13, 9359, Note_on_c, 12, 62, 0
13, 9360, Note_on_c, 12, 62, 74
13, 9419, Note_on_c, 12, 62, 0
13, 9420, Note_on_c, 12, 62, 73
13, 9479, Note_on_c, 12, 62, 0
13, 9480, Note_on_c, 12, 62, 73
13, 9539, Note_on_c, 12, 62, 0
13, 9540, Note_on_c, 12, 62, 73
13, 9599, Note_on_c, 12, 62, 0
13, 9600, Note_on_c, 12, 64, 73
13, 9659, Note_on_c, 12, 64, 0
13, 9660, Note_on_c, 12, 60, 95
13, 9719, Note_on_c, 12, 60, 0
13, 9720, Note_on_c, 12, 59, 96
13, 9779, Note_on_c, 12, 59, 0
13, 9780, Note_on_c, 12, 60, 96
13, 9839, Note_on_c, 12, 60, 0
13, 9840, Note_on_c, 12, 59, 95
13, 9899, Note_on_c, 12, 59, 0
13, 9900, Note_on_c, 12, 60, 91
13, 9959, Note_on_c, 12, 60, 0
13, 9960, Note_on_c, 12, 58, 92
13, 10019, Note_on_c, 12, 58, 0
13, 10020, Note_on_c, 12, 55, 73
13, 10079, Note_on_c, 12, 55, 0
13, 10080, Note_on_c, 12, 57, 73
13, 10139, Note_on_c, 12, 57, 0
13, 10140, Note_on_c, 12, 60, 72
13, 10199, Note_on_c, 12, 60, 0
13, 10200, Note_on_c, 12, 57, 72
13, 10259, Note_on_c, 12, 57, 0
13, 10260, Note_on_c, 12, 53, 72
13, 10319, Note_on_c, 12, 53, 0
13, 10320, Note_on_c, 12, 52, 72
13, 10379, Note_on_c, 12, 52, 0
13, 10380, Note_on_c, 12, 55, 72
13, 10439, Note_on_c, 12, 55, 0
13, 10440, Note_on_c, 12, 52, 72
13, 10499, Note_on_c, 12, 52, 0
13, 10500, Note_on_c, 12, 48, 71
13, 10559, Note_on_c, 12, 48, 0
13, 10560, Note_on_c, 12, 53, 71
13, 10619, Note_on_c, 12, 53, 0
13, 10620, Note_on_c, 12, 60, 95
13, 10679, Note_on_c, 12, 60, 0
13, 10680, Note_on_c, 12, 59, 96
13, 10739, Note_on_c, 12, 59, 0
13, 10740, Note_on_c, 12, 60, 95
13, 10799, Note_on_c, 12, 60, 0
13, 10800, Note_on_c, 12, 59, 93
13, 10859, Note_on_c, 12, 59, 0
13, 10860, Note_on_c, 12, 60, 93
13, 10919, Note_on_c, 12, 60, 0
13, 10920, Note_on_c, 12, 58, 93
13, 10979, Note_on_c, 12, 58, 0
13, 10980, Note_on_c, 12, 55, 71
13, 11039, Note_on_c, 12, 55, 0
13, 11040, Note_on_c, 12, 57, 71
13, 11099, Note_on_c, 12, 57, 0
13, 11100, Note_on_c, 12, 60, 71
13, 11159, Note_on_c, 12, 60, 0
13, 11160, Note_on_c, 12, 57, 71
13, 11219, Note_on_c, 12, 57, 0
13, 11220, Note_on_c, 12, 53, 71
13, 11279, Note_on_c, 12, 53, 0
13, 11280, Note_on_c, 12, 52, 71
13, 11339, Note_on_c, 12, 52, 0
13, 11340, Note_on_c, 12, 55, 71
13, 11399, Note_on_c, 12, 55, 0
13, 11400, Note_on_c, 12, 52, 71
13, 11459, Note_on_c, 12, 52, 0
13, 11460, Note_on_c, 12, 48, 71
13, 11519, Note_on_c, 12, 48, 0
13, 11520, Note_on_c, 12, 53, 71
13, 11579, Note_on_c, 12, 53, 0
13, 11580, Note_on_c, 12, 65, 71
13, 11639, Note_on_c, 12, 65, 0
13, 11640, Note_on_c, 12, 65, 72
13, 11699, Note_on_c, 12, 65, 0
13, 11700, Note_on_c, 12, 65, 72
13, 11759, Note_on_c, 12, 65, 0
13, 11760, Note_on_c, 12, 65, 72
13, 11819, Note_on_c, 12, 65, 0
13, 11820, Note_on_c, 12, 65, 72
13, 11879, Note_on_c, 12, 65, 0
13, 11880, Note_on_c, 12, 65, 72
13, 11939, Note_on_c, 12, 65, 0
13, 11940, Note_on_c, 12, 65, 72
13, 11999, Note_on_c, 12, 65, 0
13, 12000, Note_on_c, 12, 64, 72
13, 12239, Note_on_c, 12, 64, 0
13, 12540, Note_on_c, 12, 62, 69
13, 12599, Note_on_c, 12, 62, 0
13, 12600, Note_on_c, 12, 62, 70
13, 12659, Note_on_c, 12, 62, 0
13, 12660, Note_on_c, 12, 62, 70
13, 12719, Note_on_c, 12, 62, 0
13, 12720, Note_on_c, 12, 62, 70
13, 12779, Note_on_c, 12, 62, 0
13, 12780, Note_on_c, 12, 62, 70
13, 12839, Note_on_c, 12, 62, 0
13, 12840, Note_on_c, 12, 62, 71
13, 12899, Note_on_c, 12, 62, 0
13, 12900, Note_on_c, 12, 62, 72
13, 12959, Note_on_c, 12, 62, 0
13, 12960, Note_on_c, 12, 60, 71
13, 13199, Note_on_c, 12, 60, 0
13, 13500, Note_on_c, 12, 58, 71
13, 13559, Note_on_c, 12, 58, 0
13, 13560, Note_on_c, 12, 58, 71
13, 13619, Note_on_c, 12, 58, 0
13, 13620, Note_on_c, 12, 58, 71
13, 13679, Note_on_c, 12, 58, 0
13, 13680, Note_on_c, 12, 58, 70
13, 13739, Note_on_c, 12, 58, 0
13, 13740, Note_on_c, 12, 58, 70
13, 13799, Note_on_c, 12, 58, 0
13, 13800, Note_on_c, 12, 58, 70
13, 13859, Note_on_c, 12, 58, 0
13, 13860, Note_on_c, 12, 58, 70
13, 13919, Note_on_c, 12, 58, 0
13, 13920, Note_on_c, 12, 57, 70
13, 14039, Note_on_c, 12, 57, 0
13, 14160, Note_on_c, 12, 64, 72
13, 14279, Note_on_c, 12, 64, 0
13, 14400, Note_on_c, 12, 65, 72
13, 14519, Note_on_c, 12, 65, 0
13, 15600, Note_on_c, 12, 65, 112
13, 15659, Note_on_c, 12, 65, 0
13, 15660, Note_on_c, 12, 65, 92
13, 15719, Note_on_c, 12, 65, 0
13, 15720, Note_on_c, 12, 65, 72
13, 15779, Note_on_c, 12, 65, 0
13, 15780, Note_on_c, 12, 65, 72
13, 15839, Note_on_c, 12, 65, 0
13, 15840, Note_on_c, 12, 70, 114
13, 15899, Note_on_c, 12, 70, 0
13, 15900, Note_on_c, 12, 70, 94
13, 15959, Note_on_c, 12, 70, 0
13, 15960, Note_on_c, 12, 70, 71
13, 16019, Note_on_c, 12, 70, 0
13, 16020, Note_on_c, 12, 70, 69
13, 16079, Note_on_c, 12, 70, 0
13, 16080, Note_on_c, 12, 74, 116
13, 16139, Note_on_c, 12, 74, 0
13, 16140, Note_on_c, 12, 74, 90
13, 16199, Note_on_c, 12, 74, 0
13, 16200, Note_on_c, 12, 74, 71
13, 16259, Note_on_c, 12, 74, 0
13, 16260, Note_on_c, 12, 74, 72
13, 16319, Note_on_c, 12, 74, 0
13, 16320, Note_on_c, 12, 64, 114
13, 16379, Note_on_c, 12, 64, 0
13, 16380, Note_on_c, 12, 64, 89
13, 16499, Note_on_c, 12, 64, 0
13, 16500, Note_on_c, 12, 64, 71
13, 16619, Note_on_c, 12, 64, 0
13, 16620, Note_on_c, 12, 64, 72
13, 16679, Note_on_c, 12, 64, 0
13, 16680, Note_on_c, 12, 65, 72
13, 16739, Note_on_c, 12, 65, 0
13, 16740, Note_on_c, 12, 67, 72
13, 16799, Note_on_c, 12, 67, 0
13, 16800, Note_on_c, 12, 65, 73
13, 16859, Note_on_c, 12, 65, 0
13, 16860, Note_on_c, 12, 65, 73
13, 16919, Note_on_c, 12, 65, 0
13, 16920, Note_on_c, 12, 65, 73
13, 16979, Note_on_c, 12, 65, 0
13, 16980, Note_on_c, 12, 65, 72
13, 17039, Note_on_c, 12, 65, 0
13, 17040, Note_on_c, 12, 65, 71
13, 17099, Note_on_c, 12, 65, 0
13, 17100, Note_on_c, 12, 65, 70
13, 17159, Note_on_c, 12, 65, 0
13, 17160, Note_on_c, 12, 65, 69
13, 17219, Note_on_c, 12, 65, 0
13, 17220, Note_on_c, 12, 65, 69
13, 17279, Note_on_c, 12, 65, 0
13, 17280, Note_on_c, 12, 64, 69
13, 17519, Note_on_c, 12, 64, 0
13, 17820, Note_on_c, 12, 62, 70
13, 17879, Note_on_c, 12, 62, 0
13, 17880, Note_on_c, 12, 62, 70
13, 17939, Note_on_c, 12, 62, 0
13, 17940, Note_on_c, 12, 62, 70
13, 17999, Note_on_c, 12, 62, 0
13, 18000, Note_on_c, 12, 62, 70
13, 18059, Note_on_c, 12, 62, 0
13, 18060, Note_on_c, 12, 62, 71
13, 18119, Note_on_c, 12, 62, 0
13, 18120, Note_on_c, 12, 62, 71
13, 18179, Note_on_c, 12, 62, 0
13, 18180, Note_on_c, 12, 62, 70
13, 18239, Note_on_c, 12, 62, 0
13, 18240, Note_on_c, 12, 60, 70
13, 18479, Note_on_c, 12, 60, 0
13, 18780, Note_on_c, 12, 58, 69
13, 18839, Note_on_c, 12, 58, 0
13, 18840, Note_on_c, 12, 58, 70
13, 18899, Note_on_c, 12, 58, 0
13, 18900, Note_on_c, 12, 58, 71
13, 18959, Note_on_c, 12, 58, 0
13, 18960, Note_on_c, 12, 58, 71
13, 19019, Note_on_c, 12, 58, 0
13, 19020, Note_on_c, 12, 58, 71
13, 19079, Note_on_c, 12, 58, 0
13, 19080, Note_on_c, 12, 58, 71
13, 19139, Note_on_c, 12, 58, 0
13, 19140, Note_on_c, 12, 58, 70
13, 19199, Note_on_c, 12, 58, 0
13, 19200, Note_on_c, 12, 57, 70
13, 19319, Note_on_c, 12, 57, 0
13, 19440, Note_on_c, 12, 64, 70
13, 19559, Note_on_c, 12, 64, 0
13, 19680, Note_on_c, 12, 65, 71
13, 19799, Note_on_c, 12, 65, 0
13, 20880, Note_on_c, 12, 72, 115
13, 20939, Note_on_c, 12, 72, 0
13, 20940, Note_on_c, 12, 72, 92
13, 20999, Note_on_c, 12, 72, 0
13, 21000, Note_on_c, 12, 72, 69
13, 21059, Note_on_c, 12, 72, 0
13, 21060, Note_on_c, 12, 72, 70
13, 21119, Note_on_c, 12, 72, 0
13, 21120, Note_on_c, 12, 74, 114
13, 21179, Note_on_c, 12, 74, 0
13, 21180, Note_on_c, 12, 74, 94
13, 21239, Note_on_c, 12, 74, 0
13, 21240, Note_on_c, 12, 74, 69
13, 21299, Note_on_c, 12, 74, 0
13, 21300, Note_on_c, 12, 74, 69
13, 21359, Note_on_c, 12, 74, 0
13, 21360, Note_on_c, 12, 74, 112
13, 21419, Note_on_c, 12, 74, 0
13, 21420, Note_on_c, 12, 74, 91
13, 21479, Note_on_c, 12, 74, 0
13, 21480, Note_on_c, 12, 74, 70
13, 21539, Note_on_c, 12, 74, 0
13, 21540, Note_on_c, 12, 74, 70
13, 21599, Note_on_c, 12, 74, 0
13, 21600, Note_on_c, 12, 72, 72
13, 21659, Note_on_c, 12, 72, 0
13, 21660, Note_on_c, 12, 72, 76
13, 21719, Note_on_c, 12, 72, 0
13, 21720, Note_on_c, 12, 72, 81
13, 21779, Note_on_c, 12, 72, 0
13, 21780, Note_on_c, 12, 72, 87
13, 21839, Note_on_c, 12, 72, 0
13, 21840, Note_on_c, 12, 69, 91
13, 21899, Note_on_c, 12, 69, 0
13, 21900, Note_on_c, 12, 69, 95
13, 21959, Note_on_c, 12, 69, 0
13, 21960, Note_on_c, 12, 65, 102
13, 22019, Note_on_c, 12, 65, 0
13, 22020, Note_on_c, 12, 65, 112
13, 22079, Note_on_c, 12, 65, 0
13, 22080, Note_on_c, 12, 60, 124
13, 22199, Note_on_c, 12, 60, 0
13, 22320, Note_on_c, 12, 48, 124
13, 22320, Note_on_c, 12, 60, 124
13, 22439, Note_on_c, 12, 60, 0
13, 22439, Note_on_c, 12, 48, 0
13, 22560, Note_on_c, 12, 65, 125
13, 22679, Note_on_c, 12, 65, 0
13, 22920, Note_on_c, 12, 60, 124
13, 23039, Note_on_c, 12, 60, 0
13, 23040, Note_on_c, 12, 65, 126
13, 23159, Note_on_c, 12, 65, 0
13, 23400, Note_on_c, 12, 60, 122
13, 23519, Note_on_c, 12, 60, 0
13, 23520, Note_on_c, 12, 65, 122
13, 23639, Note_on_c, 12, 65, 0
13, 23640, Note_on_c, 12, 74, 121
13, 23699, Note_on_c, 12, 74, 0
13, 23700, Note_on_c, 12, 77, 121
13, 23759, Note_on_c, 12, 77, 0
13, 23760, Note_on_c, 12, 70, 121
13, 23819, Note_on_c, 12, 70, 0
13, 23820, Note_on_c, 12, 74, 120
13, 23879, Note_on_c, 12, 74, 0
13, 23880, Note_on_c, 12, 67, 120
13, 23939, Note_on_c, 12, 67, 0
13, 23940, Note_on_c, 12, 70, 120
13, 23999, Note_on_c, 12, 70, 0
13, 24000, Note_on_c, 12, 64, 119
13, 24119, Note_on_c, 12, 64, 0
13, 24120, Note_on_c, 12, 65, 118
13, 24239, Note_on_c, 12, 65, 0
13, 24240, Note_on_c, 12, 58, 118
13, 24359, Note_on_c, 12, 58, 0
13, 24360, Note_on_c, 12, 60, 118
13, 24479, Note_on_c, 12, 60, 0
13, 24480, Note_on_c, 12, 53, 118
13, 24599, Note_on_c, 12, 53, 0
13, 25020, Note_on_c, 12, 53, 123
13, 25079, Note_on_c, 12, 53, 0
13, 25080, Note_on_c, 12, 55, 123
13, 25139, Note_on_c, 12, 55, 0
13, 25140, Note_on_c, 12, 57, 124
13, 25199, Note_on_c, 12, 57, 0
13, 25200, Note_on_c, 12, 58, 125
13, 25259, Note_on_c, 12, 58, 0
13, 25260, Note_on_c, 12, 57, 126
13, 25319, Note_on_c, 12, 57, 0
13, 25320, Note_on_c, 12, 58, 126
13, 25379, Note_on_c, 12, 58, 0
13, 25380, Note_on_c, 12, 55, 126
13, 25439, Note_on_c, 12, 55, 0
13, 25440, Note_on_c, 12, 53, 126
13, 25499, Note_on_c, 12, 53, 0
13, 25500, Note_on_c, 12, 65, 73
13, 25559, Note_on_c, 12, 65, 0
13, 25560, Note_on_c, 12, 67, 74
13, 25619, Note_on_c, 12, 67, 0
13, 25620, Note_on_c, 12, 69, 74
13, 25679, Note_on_c, 12, 69, 0
13, 25680, Note_on_c, 12, 70, 74
13, 25739, Note_on_c, 12, 70, 0
13, 25740, Note_on_c, 12, 69, 74
13, 25799, Note_on_c, 12, 69, 0
13, 25800, Note_on_c, 12, 70, 74
13, 25859, Note_on_c, 12, 70, 0
13, 25860, Note_on_c, 12, 67, 74
13, 25919, Note_on_c, 12, 67, 0
13, 25920, Note_on_c, 12, 65, 74
13, 25979, Note_on_c, 12, 65, 0
13, 25980, Note_on_c, 12, 53, 119
13, 26039, Note_on_c, 12, 53, 0
13, 26040, Note_on_c, 12, 55, 118
13, 26099, Note_on_c, 12, 55, 0
13, 26100, Note_on_c, 12, 57, 116
13, 26159, Note_on_c, 12, 57, 0
13, 26160, Note_on_c, 12, 58, 116
13, 26219, Note_on_c, 12, 58, 0
13, 26220, Note_on_c, 12, 57, 117
13, 26279, Note_on_c, 12, 57, 0
13, 26280, Note_on_c, 12, 58, 118
13, 26339, Note_on_c, 12, 58, 0
13, 26340, Note_on_c, 12, 55, 119
13, 26399, Note_on_c, 12, 55, 0
13, 26400, Note_on_c, 12, 53, 120
13, 26459, Note_on_c, 12, 53, 0
13, 26460, Note_on_c, 12, 65, 72
13, 26519, Note_on_c, 12, 65, 0
13, 26520, Note_on_c, 12, 67, 72
13, 26579, Note_on_c, 12, 67, 0
13, 26580, Note_on_c, 12, 69, 73
13, 26639, Note_on_c, 12, 69, 0
13, 26640, Note_on_c, 12, 70, 73
13, 26699, Note_on_c, 12, 70, 0
13, 26700, Note_on_c, 12, 69, 73
13, 26759, Note_on_c, 12, 69, 0
13, 26760, Note_on_c, 12, 70, 74
13, 26819, Note_on_c, 12, 70, 0
13, 26820, Note_on_c, 12, 67, 74
13, 26879, Note_on_c, 12, 67, 0
13, 26880, Note_on_c, 12, 65, 75
13, 26939, Note_on_c, 12, 65, 0
13, 26940, Note_on_c, 12, 53, 124
13, 26999, Note_on_c, 12, 53, 0
13, 27000, Note_on_c, 12, 55, 125
13, 27059, Note_on_c, 12, 55, 0
13, 27060, Note_on_c, 12, 57, 124
13, 27119, Note_on_c, 12, 57, 0
13, 27120, Note_on_c, 12, 58, 125
13, 27179, Note_on_c, 12, 58, 0
13, 27180, Note_on_c, 12, 57, 125
13, 27239, Note_on_c, 12, 57, 0
13, 27240, Note_on_c, 12, 58, 125
13, 27299, Note_on_c, 12, 58, 0
13, 27300, Note_on_c, 12, 55, 125
13, 27359, Note_on_c, 12, 55, 0
13, 27360, Note_on_c, 12, 53, 124
13, 27419, Note_on_c, 12, 53, 0
13, 27420, Note_on_c, 12, 65, 72
13, 27479, Note_on_c, 12, 65, 0
13, 27480, Note_on_c, 12, 67, 72
13, 27539, Note_on_c, 12, 67, 0
13, 27540, Note_on_c, 12, 69, 72
13, 27599, Note_on_c, 12, 69, 0
13, 27600, Note_on_c, 12, 70, 72
13, 27659, Note_on_c, 12, 70, 0
13, 27660, Note_on_c, 12, 69, 71
13, 27719, Note_on_c, 12, 69, 0
13, 27720, Note_on_c, 12, 70, 72
13, 27779, Note_on_c, 12, 70, 0
13, 27780, Note_on_c, 12, 67, 72
13, 27839, Note_on_c, 12, 67, 0
13, 27840, Note_on_c, 12, 65, 72
13, 27899, Note_on_c, 12, 65, 0
13, 27900, Note_on_c, 12, 53, 126
13, 27959, Note_on_c, 12, 53, 0
13, 27960, Note_on_c, 12, 55, 126
13, 28019, Note_on_c, 12, 55, 0
13, 28020, Note_on_c, 12, 57, 125
13, 28079, Note_on_c, 12, 57, 0
13, 28080, Note_on_c, 12, 58, 125
13, 28139, Note_on_c, 12, 58, 0
13, 28140, Note_on_c, 12, 57, 124
13, 28199, Note_on_c, 12, 57, 0
13, 28200, Note_on_c, 12, 58, 124
13, 28259, Note_on_c, 12, 58, 0
13, 28260, Note_on_c, 12, 55, 126
13, 28319, Note_on_c, 12, 55, 0
13, 28320, Note_on_c, 12, 57, 98
13, 28350, Note_on_c, 12, 57, 0
13, 28350, Note_on_c, 12, 57, 71
13, 28380, Note_on_c, 12, 57, 0
13, 28380, Note_on_c, 12, 57, 71
13, 28410, Note_on_c, 12, 57, 0
13, 28410, Note_on_c, 12, 57, 70
13, 28440, Note_on_c, 12, 57, 0
13, 28440, Note_on_c, 12, 57, 70
13, 28470, Note_on_c, 12, 57, 0
13, 28470, Note_on_c, 12, 57, 70
13, 28500, Note_on_c, 12, 57, 0
13, 28500, Note_on_c, 12, 57, 70
13, 28530, Note_on_c, 12, 57, 0
13, 28530, Note_on_c, 12, 57, 70
13, 28560, Note_on_c, 12, 57, 0
13, 28560, Note_on_c, 12, 57, 70
13, 28590, Note_on_c, 12, 57, 0
13, 28590, Note_on_c, 12, 57, 70
13, 28620, Note_on_c, 12, 57, 0
13, 28620, Note_on_c, 12, 57, 70
13, 28650, Note_on_c, 12, 57, 0
13, 28650, Note_on_c, 12, 57, 69
13, 28680, Note_on_c, 12, 57, 0
13, 28680, Note_on_c, 12, 57, 69
13, 28710, Note_on_c, 12, 57, 0
13, 28710, Note_on_c, 12, 57, 70
13, 28740, Note_on_c, 12, 57, 0
13, 28740, Note_on_c, 12, 57, 71
13, 28770, Note_on_c, 12, 57, 0
13, 28770, Note_on_c, 12, 57, 71
13, 28800, Note_on_c, 12, 57, 0
13, 28800, Note_on_c, 12, 62, 71
13, 28830, Note_on_c, 12, 62, 0
13, 28830, Note_on_c, 12, 62, 71
13, 28860, Note_on_c, 12, 62, 0
13, 28860, Note_on_c, 12, 62, 71
13, 28890, Note_on_c, 12, 62, 0
13, 28890, Note_on_c, 12, 62, 72
13, 28920, Note_on_c, 12, 62, 0
13, 28920, Note_on_c, 12, 62, 72
13, 28950, Note_on_c, 12, 62, 0
13, 28950, Note_on_c, 12, 62, 72
13, 28980, Note_on_c, 12, 62, 0
13, 28980, Note_on_c, 12, 62, 72
13, 29010, Note_on_c, 12, 62, 0
13, 29010, Note_on_c, 12, 62, 72
13, 29040, Note_on_c, 12, 62, 0
13, 29040, Note_on_c, 12, 62, 72
13, 29070, Note_on_c, 12, 62, 0
13, 29070, Note_on_c, 12, 62, 72
13, 29100, Note_on_c, 12, 62, 0
13, 29100, Note_on_c, 12, 62, 71
13, 29130, Note_on_c, 12, 62, 0
13, 29130, Note_on_c, 12, 62, 71
13, 29160, Note_on_c, 12, 62, 0
13, 29160, Note_on_c, 12, 62, 71
13, 29190, Note_on_c, 12, 62, 0
13, 29190, Note_on_c, 12, 62, 71
13, 29220, Note_on_c, 12, 62, 0
13, 29220, Note_on_c, 12, 62, 71
13, 29250, Note_on_c, 12, 62, 0
13, 29250, Note_on_c, 12, 62, 71
13, 29280, Note_on_c, 12, 62, 0
13, 29280, Note_on_c, 12, 55, 71
13, 29339, Note_on_c, 12, 55, 0
13, 29340, Note_on_c, 12, 67, 72
13, 29399, Note_on_c, 12, 67, 0
13, 29400, Note_on_c, 12, 69, 72
13, 29459, Note_on_c, 12, 69, 0
13, 29460, Note_on_c, 12, 70, 71
13, 29519, Note_on_c, 12, 70, 0
13, 29520, Note_on_c, 12, 72, 71
13, 29579, Note_on_c, 12, 72, 0
13, 29580, Note_on_c, 12, 70, 71
13, 29639, Note_on_c, 12, 70, 0
13, 29640, Note_on_c, 12, 72, 71
13, 29699, Note_on_c, 12, 72, 0
13, 29700, Note_on_c, 12, 69, 71
13, 29759, Note_on_c, 12, 69, 0
13, 29760, Note_on_c, 12, 67, 71
13, 29819, Note_on_c, 12, 67, 0
13, 29820, Note_on_c, 12, 55, 126
13, 29879, Note_on_c, 12, 55, 0
13, 29880, Note_on_c, 12, 57, 126
13, 29939, Note_on_c, 12, 57, 0
13, 29940, Note_on_c, 12, 58, 126
13, 29999, Note_on_c, 12, 58, 0
13, 30000, Note_on_c, 12, 60, 127
13, 30059, Note_on_c, 12, 60, 0
13, 30060, Note_on_c, 12, 58, 127
13, 30119, Note_on_c, 12, 58, 0
13, 30120, Note_on_c, 12, 60, 127
13, 30179, Note_on_c, 12, 60, 0
13, 30180, Note_on_c, 12, 57, 127
13, 30239, Note_on_c, 12, 57, 0
13, 30240, Note_on_c, 12, 55, 124
13, 30299, Note_on_c, 12, 55, 0
13, 30300, Note_on_c, 12, 67, 71
13, 30359, Note_on_c, 12, 67, 0
13, 30360, Note_on_c, 12, 69, 72
13, 30419, Note_on_c, 12, 69, 0
13, 30420, Note_on_c, 12, 70, 71
13, 30479, Note_on_c, 12, 70, 0
13, 30480, Note_on_c, 12, 72, 71
13, 30539, Note_on_c, 12, 72, 0
13, 30540, Note_on_c, 12, 70, 71
13, 30599, Note_on_c, 12, 70, 0
13, 30600, Note_on_c, 12, 72, 71
13, 30659, Note_on_c, 12, 72, 0
13, 30660, Note_on_c, 12, 69, 71
13, 30719, Note_on_c, 12, 69, 0
13, 30720, Note_on_c, 12, 67, 72
13, 30779, Note_on_c, 12, 67, 0
13, 30780, Note_on_c, 12, 55, 127
13, 30839, Note_on_c, 12, 55, 0
13, 30840, Note_on_c, 12, 57, 127
13, 30899, Note_on_c, 12, 57, 0
13, 30900, Note_on_c, 12, 58, 127
13, 30959, Note_on_c, 12, 58, 0
13, 30960, Note_on_c, 12, 60, 127
13, 31019, Note_on_c, 12, 60, 0
13, 31020, Note_on_c, 12, 58, 126
13, 31079, Note_on_c, 12, 58, 0
13, 31080, Note_on_c, 12, 60, 126
13, 31139, Note_on_c, 12, 60, 0
13, 31140, Note_on_c, 12, 57, 126
13, 31199, Note_on_c, 12, 57, 0
13, 31200, Note_on_c, 12, 59, 126
13, 31230, Note_on_c, 12, 59, 0
13, 31230, Note_on_c, 12, 59, 72
13, 31260, Note_on_c, 12, 59, 0
13, 31260, Note_on_c, 12, 59, 71
13, 31290, Note_on_c, 12, 59, 0
13, 31290, Note_on_c, 12, 59, 71
13, 31320, Note_on_c, 12, 59, 0
13, 31320, Note_on_c, 12, 59, 71
13, 31350, Note_on_c, 12, 59, 0
13, 31350, Note_on_c, 12, 59, 72
13, 31380, Note_on_c, 12, 59, 0
13, 31380, Note_on_c, 12, 59, 72
13, 31410, Note_on_c, 12, 59, 0
13, 31410, Note_on_c, 12, 59, 73
13, 31440, Note_on_c, 12, 59, 0
13, 31440, Note_on_c, 12, 59, 73
13, 31470, Note_on_c, 12, 59, 0
13, 31470, Note_on_c, 12, 59, 72
13, 31500, Note_on_c, 12, 59, 0
13, 31500, Note_on_c, 12, 59, 71
13, 31530, Note_on_c, 12, 59, 0
13, 31530, Note_on_c, 12, 59, 71
13, 31560, Note_on_c, 12, 59, 0
13, 31560, Note_on_c, 12, 59, 70
13, 31590, Note_on_c, 12, 59, 0
13, 31590, Note_on_c, 12, 59, 70
13, 31620, Note_on_c, 12, 59, 0
13, 31620, Note_on_c, 12, 59, 70
13, 31650, Note_on_c, 12, 59, 0
13, 31650, Note_on_c, 12, 59, 71
13, 31680, Note_on_c, 12, 59, 0
13, 31680, Note_on_c, 12, 64, 71
13, 31710, Note_on_c, 12, 64, 0
13, 31710, Note_on_c, 12, 64, 71
13, 31740, Note_on_c, 12, 64, 0
13, 31740, Note_on_c, 12, 64, 70
13, 31770, Note_on_c, 12, 64, 0
13, 31770, Note_on_c, 12, 64, 70
13, 31800, Note_on_c, 12, 64, 0
13, 31800, Note_on_c, 12, 64, 70
13, 31830, Note_on_c, 12, 64, 0
13, 31830, Note_on_c, 12, 64, 70
13, 31860, Note_on_c, 12, 64, 0
13, 31860, Note_on_c, 12, 64, 70
13, 31890, Note_on_c, 12, 64, 0
13, 31890, Note_on_c, 12, 64, 70
13, 31920, Note_on_c, 12, 64, 0
13, 31920, Note_on_c, 12, 64, 70
13, 31950, Note_on_c, 12, 64, 0
13, 31950, Note_on_c, 12, 64, 70
13, 31980, Note_on_c, 12, 64, 0
13, 31980, Note_on_c, 12, 64, 70
13, 32010, Note_on_c, 12, 64, 0
13, 32010, Note_on_c, 12, 64, 70
13, 32040, Note_on_c, 12, 64, 0
13, 32040, Note_on_c, 12, 64, 70
13, 32070, Note_on_c, 12, 64, 0
13, 32070, Note_on_c, 12, 64, 70
13, 32100, Note_on_c, 12, 64, 0
13, 32100, Note_on_c, 12, 64, 70
13, 32130, Note_on_c, 12, 64, 0
13, 32130, Note_on_c, 12, 64, 70
13, 32160, Note_on_c, 12, 64, 0
13, 32160, Note_on_c, 12, 64, 70
13, 32219, Note_on_c, 12, 64, 0
13, 32220, Note_on_c, 12, 69, 71
13, 32279, Note_on_c, 12, 69, 0
13, 32280, Note_on_c, 12, 73, 103
13, 32339, Note_on_c, 12, 73, 0
13, 32340, Note_on_c, 12, 69, 103
13, 32399, Note_on_c, 12, 69, 0
13, 32400, Note_on_c, 12, 64, 69
13, 32459, Note_on_c, 12, 64, 0
13, 32460, Note_on_c, 12, 69, 68
13, 32519, Note_on_c, 12, 69, 0
13, 32520, Note_on_c, 12, 61, 68
13, 32579, Note_on_c, 12, 61, 0
13, 32580, Note_on_c, 12, 64, 69
13, 32639, Note_on_c, 12, 64, 0
13, 32640, Note_on_c, 12, 57, 71
13, 32759, Note_on_c, 12, 57, 0
13, 32760, Note_on_c, 12, 57, 68
13, 32879, Note_on_c, 12, 57, 0
13, 32880, Note_on_c, 12, 57, 69
13, 32999, Note_on_c, 12, 57, 0
13, 33000, Note_on_c, 12, 57, 70
13, 33119, Note_on_c, 12, 57, 0
13, 33240, Note_on_c, 12, 57, 72
13, 33359, Note_on_c, 12, 57, 0
13, 33360, Note_on_c, 12, 57, 73
13, 33479, Note_on_c, 12, 57, 0
13, 33480, Note_on_c, 12, 57, 73
13, 33599, Note_on_c, 12, 57, 0
13, 33720, Note_on_c, 12, 57, 71
13, 33839, Note_on_c, 12, 57, 0
13, 33840, Note_on_c, 12, 57, 72
13, 33959, Note_on_c, 12, 57, 0
13, 33960, Note_on_c, 12, 57, 72
13, 34079, Note_on_c, 12, 57, 0
13, 34200, Note_on_c, 12, 57, 71
13, 34319, Note_on_c, 12, 57, 0
13, 34320, Note_on_c, 12, 57, 71
13, 34439, Note_on_c, 12, 57, 0
13, 34440, Note_on_c, 12, 57, 71
13, 34559, Note_on_c, 12, 57, 0
13, 34680, Note_on_c, 12, 57, 70
13, 34799, Note_on_c, 12, 57, 0
13, 34800, Note_on_c, 12, 57, 70
13, 34919, Note_on_c, 12, 57, 0
13, 34920, Note_on_c, 12, 57, 71
13, 35039, Note_on_c, 12, 57, 0
13, 35040, Note_on_c, 12, 57, 72
13, 35159, Note_on_c, 12, 57, 0
13, 35280, Note_on_c, 12, 65, 73
13, 35339, Note_on_c, 12, 65, 0
13, 35400, Note_on_c, 12, 67, 73
13, 35459, Note_on_c, 12, 67, 0
13, 35520, Note_on_c, 12, 65, 74
13, 35639, Note_on_c, 12, 65, 0
13, 35760, Note_on_c, 12, 62, 74
13, 35819, Note_on_c, 12, 62, 0
13, 35880, Note_on_c, 12, 62, 74
13, 35939, Note_on_c, 12, 62, 0
13, 36000, Note_on_c, 12, 62, 74
13, 36119, Note_on_c, 12, 62, 0
13, 36240, Note_on_c, 12, 65, 73
13, 36299, Note_on_c, 12, 65, 0
13, 36360, Note_on_c, 12, 67, 73
13, 36419, Note_on_c, 12, 67, 0
13, 36480, Note_on_c, 12, 65, 73
13, 36599, Note_on_c, 12, 65, 0
13, 36720, Note_on_c, 12, 62, 73
13, 36779, Note_on_c, 12, 62, 0
13, 36840, Note_on_c, 12, 62, 72
13, 36899, Note_on_c, 12, 62, 0
13, 36960, Note_on_c, 12, 62, 72
13, 37079, Note_on_c, 12, 62, 0
13, 37320, Note_on_c, 12, 65, 73
13, 37379, Note_on_c, 12, 65, 0
13, 37440, Note_on_c, 12, 67, 73
13, 37499, Note_on_c, 12, 67, 0
13, 37560, Note_on_c, 12, 64, 73
13, 37619, Note_on_c, 12, 64, 0
13, 37680, Note_on_c, 12, 65, 73
13, 37739, Note_on_c, 12, 65, 0
13, 37800, Note_on_c, 12, 62, 73
13, 37859, Note_on_c, 12, 62, 0
13, 37920, Note_on_c, 12, 64, 72
13, 37979, Note_on_c, 12, 64, 0
13, 38040, Note_on_c, 12, 61, 72
13, 38099, Note_on_c, 12, 61, 0
13, 38160, Note_on_c, 12, 62, 72
13, 38279, Note_on_c, 12, 62, 0
13, 38400, Note_on_c, 12, 55, 73
13, 38430, Note_on_c, 12, 55, 0
13, 38430, Note_on_c, 12, 55, 72
13, 38460, Note_on_c, 12, 55, 0
13, 38460, Note_on_c, 12, 55, 72
13, 38490, Note_on_c, 12, 55, 0
13, 38490, Note_on_c, 12, 55, 72
13, 38520, Note_on_c, 12, 55, 0
13, 38520, Note_on_c, 12, 55, 72
13, 38550, Note_on_c, 12, 55, 0
13, 38550, Note_on_c, 12, 55, 72
13, 38580, Note_on_c, 12, 55, 0
13, 38580, Note_on_c, 12, 55, 72
13, 38610, Note_on_c, 12, 55, 0
13, 38610, Note_on_c, 12, 55, 71
13, 38640, Note_on_c, 12, 55, 0
13, 38640, Note_on_c, 12, 55, 71
13, 38670, Note_on_c, 12, 55, 0
13, 38670, Note_on_c, 12, 55, 71
13, 38700, Note_on_c, 12, 55, 0
13, 38700, Note_on_c, 12, 55, 70
13, 38730, Note_on_c, 12, 55, 0
13, 38730, Note_on_c, 12, 55, 70
13, 38760, Note_on_c, 12, 55, 0
13, 38760, Note_on_c, 12, 55, 70
13, 38790, Note_on_c, 12, 55, 0
13, 38790, Note_on_c, 12, 55, 70
13, 38820, Note_on_c, 12, 55, 0
13, 38820, Note_on_c, 12, 55, 70
13, 38850, Note_on_c, 12, 55, 0
13, 38850, Note_on_c, 12, 55, 70
13, 38880, Note_on_c, 12, 55, 0
13, 38880, Note_on_c, 12, 55, 70
13, 38910, Note_on_c, 12, 55, 0
13, 38910, Note_on_c, 12, 55, 72
13, 38940, Note_on_c, 12, 55, 0
13, 38940, Note_on_c, 12, 55, 75
13, 38970, Note_on_c, 12, 55, 0
13, 38970, Note_on_c, 12, 55, 77
13, 39000, Note_on_c, 12, 55, 0
13, 39000, Note_on_c, 12, 55, 80
13, 39030, Note_on_c, 12, 55, 0
13, 39030, Note_on_c, 12, 55, 82
13, 39060, Note_on_c, 12, 55, 0
13, 39060, Note_on_c, 12, 55, 85
13, 39090, Note_on_c, 12, 55, 0
13, 39090, Note_on_c, 12, 55, 88
13, 39120, Note_on_c, 12, 55, 0
13, 39120, Note_on_c, 12, 55, 91
13, 39150, Note_on_c, 12, 55, 0
13, 39150, Note_on_c, 12, 55, 94
13, 39180, Note_on_c, 12, 55, 0
13, 39180, Note_on_c, 12, 55, 97
13, 39210, Note_on_c, 12, 55, 0
13, 39210, Note_on_c, 12, 55, 101
13, 39240, Note_on_c, 12, 55, 0
13, 39240, Note_on_c, 12, 53, 104
13, 39270, Note_on_c, 12, 53, 0
13, 39270, Note_on_c, 12, 53, 107
13, 39300, Note_on_c, 12, 53, 0
13, 39300, Note_on_c, 12, 53, 109
13, 39330, Note_on_c, 12, 53, 0
13, 39330, Note_on_c, 12, 53, 113
13, 39360, Note_on_c, 12, 53, 0
13, 39360, Note_on_c, 12, 52, 118
13, 39479, Note_on_c, 12, 52, 0
13, 39480, Note_on_c, 12, 69, 126
13, 39599, Note_on_c, 12, 69, 0
13, 39600, Note_on_c, 12, 57, 125
13, 39719, Note_on_c, 12, 57, 0
13, 39960, Note_on_c, 12, 69, 125
13, 40079, Note_on_c, 12, 69, 0
13, 40080, Note_on_c, 12, 57, 126
13, 40199, Note_on_c, 12, 57, 0
13, 40440, Note_on_c, 12, 69, 124
13, 40559, Note_on_c, 12, 69, 0
13, 40560, Note_on_c, 12, 57, 127
13, 40679, Note_on_c, 12, 57, 0
13, 41400, Note_on_c, 12, 55, 124
13, 41430, Note_on_c, 12, 55, 0
13, 41430, Note_on_c, 12, 55, 123
13, 41460, Note_on_c, 12, 55, 0
13, 41460, Note_on_c, 12, 55, 123
13, 41490, Note_on_c, 12, 55, 0
13, 41490, Note_on_c, 12, 55, 122
13, 41520, Note_on_c, 12, 55, 0
13, 41520, Note_on_c, 12, 52, 121
13, 41550, Note_on_c, 12, 52, 0
13, 41550, Note_on_c, 12, 52, 120
13, 41580, Note_on_c, 12, 52, 0
13, 41580, Note_on_c, 12, 52, 120
13, 41610, Note_on_c, 12, 52, 0
13, 41610, Note_on_c, 12, 52, 119
13, 41640, Note_on_c, 12, 52, 0
13, 41640, Note_on_c, 12, 50, 119
13, 41670, Note_on_c, 12, 50, 0
13, 41670, Note_on_c, 12, 50, 119
13, 41700, Note_on_c, 12, 50, 0
13, 41700, Note_on_c, 12, 50, 118
13, 41730, Note_on_c, 12, 50, 0
13, 41730, Note_on_c, 12, 50, 118
13, 41760, Note_on_c, 12, 50, 0
13, 41760, Note_on_c, 12, 49, 118
13, 41999, Note_on_c, 12, 49, 0
13, 42420, Note_on_c, 12, 57, 100
13, 42435, Note_on_c, 12, 59, 104
13, 42439, Note_on_c, 12, 57, 0
13, 42454, Note_on_c, 12, 59, 0
13, 42465, Note_on_c, 12, 61, 114
13, 42480, Note_on_c, 12, 62, 120
13, 42484, Note_on_c, 12, 61, 0
13, 42719, Note_on_c, 12, 62, 0
13, 42900, Note_on_c, 12, 61, 105
13, 42919, Note_on_c, 12, 61, 0
13, 42920, Note_on_c, 12, 62, 109
13, 42939, Note_on_c, 12, 62, 0
13, 42940, Note_on_c, 12, 64, 115
13, 42959, Note_on_c, 12, 64, 0
13, 42960, Note_on_c, 12, 65, 123
13, 43199, Note_on_c, 12, 65, 0
13, 43440, Note_on_c, 12, 52, 91
13, 43679, Note_on_c, 12, 52, 0
13, 43680, Note_on_c, 12, 55, 90
13, 43739, Note_on_c, 12, 55, 0
13, 43740, Note_on_c, 12, 55, 90
13, 43799, Note_on_c, 12, 55, 0
13, 43800, Note_on_c, 12, 53, 91
13, 43859, Note_on_c, 12, 53, 0
13, 43860, Note_on_c, 12, 53, 91
13, 43919, Note_on_c, 12, 53, 0
13, 43920, Note_on_c, 12, 55, 92
13, 43979, Note_on_c, 12, 55, 0
13, 43980, Note_on_c, 12, 55, 91
13, 44039, Note_on_c, 12, 55, 0
13, 44040, Note_on_c, 12, 53, 92
13, 44099, Note_on_c, 12, 53, 0
13, 44100, Note_on_c, 12, 53, 93
13, 44159, Note_on_c, 12, 53, 0
13, 44160, Note_on_c, 12, 55, 93
13, 44279, Note_on_c, 12, 55, 0
13, 44850, Note_on_c, 12, 70, 89
13, 44879, Note_on_c, 12, 70, 0
13, 44880, Note_on_c, 12, 70, 90
13, 44999, Note_on_c, 12, 70, 0
13, 45090, Note_on_c, 12, 71, 90
13, 45119, Note_on_c, 12, 71, 0
13, 45120, Note_on_c, 12, 71, 90
13, 45359, Note_on_c, 12, 71, 0
13, 46320, Note_on_c, 12, 64, 90
13, 46439, Note_on_c, 12, 64, 0
13, 46560, Note_on_c, 12, 62, 87
13, 46619, Note_on_c, 12, 62, 0
13, 46620, Note_on_c, 12, 61, 92
13, 46649, Note_on_c, 12, 61, 0
13, 46650, Note_on_c, 12, 61, 94
13, 46679, Note_on_c, 12, 61, 0
13, 46680, Note_on_c, 12, 62, 96
13, 46709, Note_on_c, 12, 62, 0
13, 46710, Note_on_c, 12, 62, 98
13, 46739, Note_on_c, 12, 62, 0
13, 46740, Note_on_c, 12, 64, 100
13, 46769, Note_on_c, 12, 64, 0
13, 46770, Note_on_c, 12, 64, 103
13, 46799, Note_on_c, 12, 64, 0
13, 46800, Note_on_c, 12, 65, 105
13, 46829, Note_on_c, 12, 65, 0
13, 46830, Note_on_c, 12, 65, 107
13, 46859, Note_on_c, 12, 65, 0
13, 46860, Note_on_c, 12, 66, 110
13, 46889, Note_on_c, 12, 66, 0
13, 46890, Note_on_c, 12, 66, 112
13, 46919, Note_on_c, 12, 66, 0
13, 46920, Note_on_c, 12, 67, 114
13, 46949, Note_on_c, 12, 67, 0
13, 46950, Note_on_c, 12, 67, 115
13, 46979, Note_on_c, 12, 67, 0
13, 46980, Note_on_c, 12, 68, 118
13, 47009, Note_on_c, 12, 68, 0
13, 47010, Note_on_c, 12, 68, 122
13, 47039, Note_on_c, 12, 68, 0
13, 47040, Note_on_c, 12, 69, 125
13, 47159, Note_on_c, 12, 69, 0
13, 47280, Note_on_c, 12, 57, 126
13, 47399, Note_on_c, 12, 57, 0
13, 47520, Note_on_c, 12, 50, 126
13, 47520, Note_on_c, 12, 62, 126
13, 47759, Note_on_c, 12, 62, 0
13, 47759, Note_on_c, 12, 50, 0
13, 47759, End_track
14, 0, Start_track
14, 0, MIDI_port, 0
14, 0, Title_t, "Violoncelle"
14, 185, Control_c, 13, 0, 0
14, 187, Program_c, 13, 42
14, 188, Control_c, 13, 7, 66
14, 188, Control_c, 13, 10, 105
14, 225, Control_c, 13, 11, 127
14, 226, Control_c, 13, 91, 85
14, 227, Control_c, 13, 93, 10
14, 228, Control_c, 13, 1, 30
14, 228, Control_c, 13, 99, 1
14, 228, Control_c, 13, 98, 32
14, 228, Control_c, 13, 6, 64
14, 228, Control_c, 13, 38, 0
14, 229, Control_c, 13, 99, 1
14, 229, Control_c, 13, 98, 33
14, 229, Control_c, 13, 6, 64
14, 229, Control_c, 13, 38, 0
14, 230, Control_c, 13, 99, 1
14, 230, Control_c, 13, 98, 99
14, 230, Control_c, 13, 6, 64
14, 230, Control_c, 13, 38, 0
14, 960, Note_on_c, 13, 57, 127
14, 965, Note_on_c, 13, 57, 0
14, 966, Note_on_c, 13, 59, 127
14, 971, Note_on_c, 13, 59, 0
14, 972, Note_on_c, 13, 61, 127
14, 977, Note_on_c, 13, 61, 0
14, 978, Note_on_c, 13, 62, 127
14, 1079, Note_on_c, 13, 62, 0
14, 1080, Note_on_c, 13, 57, 123
14, 1199, Note_on_c, 13, 57, 0
14, 1200, Note_on_c, 13, 53, 108
14, 1319, Note_on_c, 13, 53, 0
14, 1320, Note_on_c, 13, 50, 79
14, 1439, Note_on_c, 13, 50, 0
14, 1440, Note_on_c, 13, 50, 70
14, 1499, Note_on_c, 13, 50, 0
14, 1500, Note_on_c, 13, 50, 71
14, 1559, Note_on_c, 13, 50, 0
14, 1560, Note_on_c, 13, 50, 71
14, 1619, Note_on_c, 13, 50, 0
14, 1620, Note_on_c, 13, 50, 71
14, 1679, Note_on_c, 13, 50, 0
14, 1680, Note_on_c, 13, 50, 71
14, 1739, Note_on_c, 13, 50, 0
14, 1740, Note_on_c, 13, 50, 70
14, 1799, Note_on_c, 13, 50, 0
14, 1800, Note_on_c, 13, 50, 71
14, 1859, Note_on_c, 13, 50, 0
14, 1860, Note_on_c, 13, 50, 70
14, 1919, Note_on_c, 13, 50, 0
14, 1920, Note_on_c, 13, 50, 70
14, 1979, Note_on_c, 13, 50, 0
14, 1980, Note_on_c, 13, 50, 71
14, 2039, Note_on_c, 13, 50, 0
14, 2040, Note_on_c, 13, 50, 71
14, 2099, Note_on_c, 13, 50, 0
14, 2100, Note_on_c, 13, 50, 70
14, 2159, Note_on_c, 13, 50, 0
14, 2160, Note_on_c, 13, 50, 127
14, 2219, Note_on_c, 13, 50, 0
14, 2220, Note_on_c, 13, 50, 127
14, 2279, Note_on_c, 13, 50, 0
14, 2280, Note_on_c, 13, 50, 127
14, 2339, Note_on_c, 13, 50, 0
14, 2340, Note_on_c, 13, 50, 127
14, 2399, Note_on_c, 13, 50, 0
14, 2400, Note_on_c, 13, 52, 72
14, 2459, Note_on_c, 13, 52, 0
14, 2460, Note_on_c, 13, 52, 72
14, 2519, Note_on_c, 13, 52, 0
14, 2520, Note_on_c, 13, 52, 72
14, 2579, Note_on_c, 13, 52, 0
14, 2580, Note_on_c, 13, 52, 72
14, 2639, Note_on_c, 13, 52, 0
14, 2640, Note_on_c, 13, 52, 125
14, 2699, Note_on_c, 13, 52, 0
14, 2700, Note_on_c, 13, 52, 125
14, 2759, Note_on_c, 13, 52, 0
14, 2760, Note_on_c, 13, 52, 125
14, 2819, Note_on_c, 13, 52, 0
14, 2820, Note_on_c, 13, 52, 125
14, 2879, Note_on_c, 13, 52, 0
14, 2880, Note_on_c, 13, 53, 73
14, 2939, Note_on_c, 13, 53, 0
14, 2940, Note_on_c, 13, 53, 73
14, 2999, Note_on_c, 13, 53, 0
14, 3000, Note_on_c, 13, 53, 74
14, 3059, Note_on_c, 13, 53, 0
14, 3060, Note_on_c, 13, 53, 74
14, 3119, Note_on_c, 13, 53, 0
14, 3120, Note_on_c, 13, 53, 125
14, 3179, Note_on_c, 13, 53, 0
14, 3180, Note_on_c, 13, 53, 125
14, 3239, Note_on_c, 13, 53, 0
14, 3240, Note_on_c, 13, 53, 125
14, 3299, Note_on_c, 13, 53, 0
14, 3300, Note_on_c, 13, 53, 125
14, 3359, Note_on_c, 13, 53, 0
14, 3360, Note_on_c, 13, 55, 124
14, 3419, Note_on_c, 13, 55, 0
14, 3420, Note_on_c, 13, 55, 99
14, 3479, Note_on_c, 13, 55, 0
14, 3480, Note_on_c, 13, 55, 70
14, 3539, Note_on_c, 13, 55, 0
14, 3540, Note_on_c, 13, 55, 70
14, 3599, Note_on_c, 13, 55, 0
14, 3600, Note_on_c, 13, 57, 124
14, 3659, Note_on_c, 13, 57, 0
14, 3660, Note_on_c, 13, 57, 100
14, 3719, Note_on_c, 13, 57, 0
14, 3720, Note_on_c, 13, 57, 71
14, 3779, Note_on_c, 13, 57, 0
14, 3780, Note_on_c, 13, 57, 72
14, 3839, Note_on_c, 13, 57, 0
14, 3840, Note_on_c, 13, 58, 69
14, 3899, Note_on_c, 13, 58, 0
14, 3900, Note_on_c, 13, 58, 69
14, 3959, Note_on_c, 13, 58, 0
14, 3960, Note_on_c, 13, 54, 69
14, 4019, Note_on_c, 13, 54, 0
14, 4020, Note_on_c, 13, 54, 69
14, 4079, Note_on_c, 13, 54, 0
14, 4080, Note_on_c, 13, 55, 75
14, 4139, Note_on_c, 13, 55, 0
14, 4140, Note_on_c, 13, 55, 81
14, 4199, Note_on_c, 13, 55, 0
14, 4200, Note_on_c, 13, 55, 92
14, 4259, Note_on_c, 13, 55, 0
14, 4260, Note_on_c, 13, 55, 104
14, 4319, Note_on_c, 13, 55, 0
14, 4320, Note_on_c, 13, 55, 69
14, 4379, Note_on_c, 13, 55, 0
14, 4380, Note_on_c, 13, 55, 69
14, 4439, Note_on_c, 13, 55, 0
14, 4440, Note_on_c, 13, 55, 71
14, 4499, Note_on_c, 13, 55, 0
14, 4500, Note_on_c, 13, 55, 71
14, 4559, Note_on_c, 13, 55, 0
14, 4560, Note_on_c, 13, 55, 71
14, 4619, Note_on_c, 13, 55, 0
14, 4620, Note_on_c, 13, 55, 71
14, 4679, Note_on_c, 13, 55, 0
14, 4680, Note_on_c, 13, 56, 70
14, 4739, Note_on_c, 13, 56, 0
14, 4740, Note_on_c, 13, 56, 70
14, 4799, Note_on_c, 13, 56, 0
14, 4800, Note_on_c, 13, 57, 69
14, 4919, Note_on_c, 13, 57, 0
14, 4920, Note_on_c, 13, 57, 107
14, 5039, Note_on_c, 13, 57, 0
14, 5040, Note_on_c, 13, 56, 112
14, 5159, Note_on_c, 13, 56, 0
14, 5160, Note_on_c, 13, 55, 119
14, 5279, Note_on_c, 13, 55, 0
14, 5280, Note_on_c, 13, 53, 123
14, 5339, Note_on_c, 13, 53, 0
14, 5340, Note_on_c, 13, 53, 71
14, 5399, Note_on_c, 13, 53, 0
14, 5400, Note_on_c, 13, 53, 72
14, 5459, Note_on_c, 13, 53, 0
14, 5460, Note_on_c, 13, 53, 72
14, 5519, Note_on_c, 13, 53, 0
14, 5520, Note_on_c, 13, 53, 71
14, 5579, Note_on_c, 13, 53, 0
14, 5580, Note_on_c, 13, 53, 71
14, 5639, Note_on_c, 13, 53, 0
14, 5640, Note_on_c, 13, 53, 70
14, 5699, Note_on_c, 13, 53, 0
14, 5700, Note_on_c, 13, 53, 70
14, 5759, Note_on_c, 13, 53, 0
14, 5760, Note_on_c, 13, 53, 70
14, 5819, Note_on_c, 13, 53, 0
14, 5820, Note_on_c, 13, 53, 70
14, 5879, Note_on_c, 13, 53, 0
14, 5880, Note_on_c, 13, 53, 70
14, 5939, Note_on_c, 13, 53, 0
14, 5940, Note_on_c, 13, 53, 70
14, 5999, Note_on_c, 13, 53, 0
14, 6000, Note_on_c, 13, 53, 70
14, 6059, Note_on_c, 13, 53, 0
14, 6060, Note_on_c, 13, 53, 70
14, 6119, Note_on_c, 13, 53, 0
14, 6120, Note_on_c, 13, 53, 69
14, 6179, Note_on_c, 13, 53, 0
14, 6180, Note_on_c, 13, 53, 69
14, 6239, Note_on_c, 13, 53, 0
14, 6240, Note_on_c, 13, 53, 69
14, 6299, Note_on_c, 13, 53, 0
14, 6300, Note_on_c, 13, 53, 69
14, 6359, Note_on_c, 13, 53, 0
14, 6360, Note_on_c, 13, 53, 69
14, 6419, Note_on_c, 13, 53, 0
14, 6420, Note_on_c, 13, 53, 69
14, 6479, Note_on_c, 13, 53, 0
14, 6480, Note_on_c, 13, 53, 69
14, 6539, Note_on_c, 13, 53, 0
14, 6540, Note_on_c, 13, 53, 69
14, 6599, Note_on_c, 13, 53, 0
14, 6600, Note_on_c, 13, 53, 70
14, 6659, Note_on_c, 13, 53, 0
14, 6660, Note_on_c, 13, 53, 70
14, 6719, Note_on_c, 13, 53, 0
14, 6720, Note_on_c, 13, 53, 70
14, 6779, Note_on_c, 13, 53, 0
14, 6780, Note_on_c, 13, 53, 69
14, 6839, Note_on_c, 13, 53, 0
14, 6840, Note_on_c, 13, 53, 72
14, 6899, Note_on_c, 13, 53, 0
14, 6900, Note_on_c, 13, 53, 79
14, 6959, Note_on_c, 13, 53, 0
14, 6960, Note_on_c, 13, 53, 84
14, 7019, Note_on_c, 13, 53, 0
14, 7020, Note_on_c, 13, 53, 94
14, 7079, Note_on_c, 13, 53, 0
14, 7080, Note_on_c, 13, 53, 102
14, 7139, Note_on_c, 13, 53, 0
14, 7140, Note_on_c, 13, 53, 108
14, 7199, Note_on_c, 13, 53, 0
14, 7200, Note_on_c, 13, 52, 69
14, 7259, Note_on_c, 13, 52, 0
14, 7260, Note_on_c, 13, 52, 71
14, 7319, Note_on_c, 13, 52, 0
14, 7320, Note_on_c, 13, 52, 71
14, 7379, Note_on_c, 13, 52, 0
14, 7380, Note_on_c, 13, 52, 71
14, 7439, Note_on_c, 13, 52, 0
14, 7440, Note_on_c, 13, 52, 71
14, 7499, Note_on_c, 13, 52, 0
14, 7500, Note_on_c, 13, 52, 72
14, 7559, Note_on_c, 13, 52, 0
14, 7560, Note_on_c, 13, 52, 72
14, 7619, Note_on_c, 13, 52, 0
14, 7620, Note_on_c, 13, 52, 72
14, 7679, Note_on_c, 13, 52, 0
14, 7680, Note_on_c, 13, 51, 72
14, 7739, Note_on_c, 13, 51, 0
14, 7740, Note_on_c, 13, 51, 74
14, 7799, Note_on_c, 13, 51, 0
14, 7800, Note_on_c, 13, 51, 80
14, 7859, Note_on_c, 13, 51, 0
14, 7860, Note_on_c, 13, 51, 84
14, 7919, Note_on_c, 13, 51, 0
14, 7920, Note_on_c, 13, 51, 88
14, 7979, Note_on_c, 13, 51, 0
14, 7980, Note_on_c, 13, 51, 93
14, 8039, Note_on_c, 13, 51, 0
14, 8040, Note_on_c, 13, 51, 100
14, 8099, Note_on_c, 13, 51, 0
14, 8100, Note_on_c, 13, 51, 109
14, 8159, Note_on_c, 13, 51, 0
14, 8160, Note_on_c, 13, 50, 70
14, 8279, Note_on_c, 13, 50, 0
14, 8640, Note_on_c, 13, 62, 114
14, 8699, Note_on_c, 13, 62, 0
14, 8700, Note_on_c, 13, 62, 95
14, 8759, Note_on_c, 13, 62, 0
14, 8760, Note_on_c, 13, 62, 70
14, 8819, Note_on_c, 13, 62, 0
14, 8820, Note_on_c, 13, 62, 70
14, 8879, Note_on_c, 13, 62, 0
14, 8880, Note_on_c, 13, 60, 113
14, 8939, Note_on_c, 13, 60, 0
14, 8940, Note_on_c, 13, 60, 96
14, 8999, Note_on_c, 13, 60, 0
14, 9000, Note_on_c, 13, 60, 70
14, 9059, Note_on_c, 13, 60, 0
14, 9060, Note_on_c, 13, 60, 70
14, 9119, Note_on_c, 13, 60, 0
14, 9120, Note_on_c, 13, 59, 70
14, 9179, Note_on_c, 13, 59, 0
14, 9180, Note_on_c, 13, 59, 70
14, 9239, Note_on_c, 13, 59, 0
14, 9240, Note_on_c, 13, 59, 70
14, 9299, Note_on_c, 13, 59, 0
14, 9300, Note_on_c, 13, 59, 70
14, 9359, Note_on_c, 13, 59, 0
14, 9360, Note_on_c, 13, 59, 70
14, 9419, Note_on_c, 13, 59, 0
14, 9420, Note_on_c, 13, 59, 70
14, 9479, Note_on_c, 13, 59, 0
14, 9480, Note_on_c, 13, 59, 70
14, 9539, Note_on_c, 13, 59, 0
14, 9540, Note_on_c, 13, 59, 70
14, 9599, Note_on_c, 13, 59, 0
14, 9600, Note_on_c, 13, 60, 71
14, 9659, Note_on_c, 13, 60, 0
14, 9660, Note_on_c, 13, 60, 96
14, 9719, Note_on_c, 13, 60, 0
14, 9720, Note_on_c, 13, 59, 96
14, 9779, Note_on_c, 13, 59, 0
14, 9780, Note_on_c, 13, 60, 96
14, 9839, Note_on_c, 13, 60, 0
14, 9840, Note_on_c, 13, 59, 95
14, 9899, Note_on_c, 13, 59, 0
14, 9900, Note_on_c, 13, 60, 94
14, 9959, Note_on_c, 13, 60, 0
14, 9960, Note_on_c, 13, 58, 69
14, 10019, Note_on_c, 13, 58, 0
14, 10020, Note_on_c, 13, 55, 69
14, 10079, Note_on_c, 13, 55, 0
14, 10080, Note_on_c, 13, 57, 70
14, 10139, Note_on_c, 13, 57, 0
14, 10140, Note_on_c, 13, 60, 70
14, 10199, Note_on_c, 13, 60, 0
14, 10200, Note_on_c, 13, 57, 70
14, 10259, Note_on_c, 13, 57, 0
14, 10260, Note_on_c, 13, 53, 70
14, 10319, Note_on_c, 13, 53, 0
14, 10320, Note_on_c, 13, 52, 70
14, 10379, Note_on_c, 13, 52, 0
14, 10380, Note_on_c, 13, 55, 70
14, 10439, Note_on_c, 13, 55, 0
14, 10440, Note_on_c, 13, 52, 71
14, 10499, Note_on_c, 13, 52, 0
14, 10500, Note_on_c, 13, 48, 70
14, 10559, Note_on_c, 13, 48, 0
14, 10560, Note_on_c, 13, 53, 70
14, 10619, Note_on_c, 13, 53, 0
14, 10620, Note_on_c, 13, 60, 92
14, 10679, Note_on_c, 13, 60, 0
14, 10680, Note_on_c, 13, 59, 92
14, 10739, Note_on_c, 13, 59, 0
14, 10740, Note_on_c, 13, 60, 90
14, 10799, Note_on_c, 13, 60, 0
14, 10800, Note_on_c, 13, 59, 89
14, 10859, Note_on_c, 13, 59, 0
14, 10860, Note_on_c, 13, 60, 89
14, 10919, Note_on_c, 13, 60, 0
14, 10920, Note_on_c, 13, 58, 71
14, 10979, Note_on_c, 13, 58, 0
14, 10980, Note_on_c, 13, 55, 71
14, 11039, Note_on_c, 13, 55, 0
14, 11040, Note_on_c, 13, 57, 72
14, 11099, Note_on_c, 13, 57, 0
14, 11100, Note_on_c, 13, 60, 72
14, 11159, Note_on_c, 13, 60, 0
14, 11160, Note_on_c, 13, 57, 72
14, 11219, Note_on_c, 13, 57, 0
14, 11220, Note_on_c, 13, 53, 72
14, 11279, Note_on_c, 13, 53, 0
14, 11280, Note_on_c, 13, 52, 72
14, 11339, Note_on_c, 13, 52, 0
14, 11340, Note_on_c, 13, 55, 72
14, 11399, Note_on_c, 13, 55, 0
14, 11400, Note_on_c, 13, 52, 72
14, 11459, Note_on_c, 13, 52, 0
14, 11460, Note_on_c, 13, 48, 72
14, 11519, Note_on_c, 13, 48, 0
14, 11520, Note_on_c, 13, 53, 72
14, 11579, Note_on_c, 13, 53, 0
14, 11580, Note_on_c, 13, 65, 72
14, 11639, Note_on_c, 13, 65, 0
14, 11640, Note_on_c, 13, 65, 72
14, 11699, Note_on_c, 13, 65, 0
14, 11700, Note_on_c, 13, 65, 72
14, 11759, Note_on_c, 13, 65, 0
14, 11760, Note_on_c, 13, 65, 73
14, 11819, Note_on_c, 13, 65, 0
14, 11820, Note_on_c, 13, 65, 73
14, 11879, Note_on_c, 13, 65, 0
14, 11880, Note_on_c, 13, 65, 73
14, 11939, Note_on_c, 13, 65, 0
14, 11940, Note_on_c, 13, 65, 72
14, 11999, Note_on_c, 13, 65, 0
14, 12000, Note_on_c, 13, 64, 73
14, 12239, Note_on_c, 13, 64, 0
14, 12540, Note_on_c, 13, 62, 71
14, 12599, Note_on_c, 13, 62, 0
14, 12600, Note_on_c, 13, 62, 71
14, 12659, Note_on_c, 13, 62, 0
14, 12660, Note_on_c, 13, 62, 71
14, 12719, Note_on_c, 13, 62, 0
14, 12720, Note_on_c, 13, 62, 70
14, 12779, Note_on_c, 13, 62, 0
14, 12780, Note_on_c, 13, 62, 69
14, 12839, Note_on_c, 13, 62, 0
14, 12840, Note_on_c, 13, 62, 69
14, 12899, Note_on_c, 13, 62, 0
14, 12900, Note_on_c, 13, 62, 69
14, 12959, Note_on_c, 13, 62, 0
14, 12960, Note_on_c, 13, 60, 69
14, 13199, Note_on_c, 13, 60, 0
14, 13500, Note_on_c, 13, 58, 72
14, 13559, Note_on_c, 13, 58, 0
14, 13560, Note_on_c, 13, 58, 71
14, 13619, Note_on_c, 13, 58, 0
14, 13620, Note_on_c, 13, 58, 71
14, 13679, Note_on_c, 13, 58, 0
14, 13680, Note_on_c, 13, 58, 71
14, 13739, Note_on_c, 13, 58, 0
14, 13740, Note_on_c, 13, 58, 71
14, 13799, Note_on_c, 13, 58, 0
14, 13800, Note_on_c, 13, 58, 71
14, 13859, Note_on_c, 13, 58, 0
14, 13860, Note_on_c, 13, 58, 71
14, 13919, Note_on_c, 13, 58, 0
14, 13920, Note_on_c, 13, 57, 71
14, 14039, Note_on_c, 13, 57, 0
14, 14160, Note_on_c, 13, 64, 73
14, 14279, Note_on_c, 13, 64, 0
14, 14400, Note_on_c, 13, 65, 71
14, 14519, Note_on_c, 13, 65, 0
14, 15600, Note_on_c, 13, 62, 114
14, 15659, Note_on_c, 13, 62, 0
14, 15660, Note_on_c, 13, 62, 94
14, 15719, Note_on_c, 13, 62, 0
14, 15720, Note_on_c, 13, 62, 70
14, 15779, Note_on_c, 13, 62, 0
14, 15780, Note_on_c, 13, 62, 70
14, 15839, Note_on_c, 13, 62, 0
14, 15840, Note_on_c, 13, 58, 114
14, 15899, Note_on_c, 13, 58, 0
14, 15900, Note_on_c, 13, 58, 94
14, 15959, Note_on_c, 13, 58, 0
14, 15960, Note_on_c, 13, 58, 69
14, 16019, Note_on_c, 13, 58, 0
14, 16020, Note_on_c, 13, 58, 69
14, 16079, Note_on_c, 13, 58, 0
14, 16080, Note_on_c, 13, 55, 116
14, 16139, Note_on_c, 13, 55, 0
14, 16140, Note_on_c, 13, 55, 93
14, 16199, Note_on_c, 13, 55, 0
14, 16200, Note_on_c, 13, 55, 73
14, 16259, Note_on_c, 13, 55, 0
14, 16260, Note_on_c, 13, 55, 73
14, 16319, Note_on_c, 13, 55, 0
14, 16320, Note_on_c, 13, 60, 120
14, 16379, Note_on_c, 13, 60, 0
14, 16380, Note_on_c, 13, 60, 92
14, 16439, Note_on_c, 13, 60, 0
14, 16440, Note_on_c, 13, 60, 72
14, 16499, Note_on_c, 13, 60, 0
14, 16500, Note_on_c, 13, 60, 72
14, 16559, Note_on_c, 13, 60, 0
14, 16560, Note_on_c, 13, 48, 72
14, 16619, Note_on_c, 13, 48, 0
14, 16620, Note_on_c, 13, 48, 73
14, 16679, Note_on_c, 13, 48, 0
14, 16680, Note_on_c, 13, 48, 73
14, 16739, Note_on_c, 13, 48, 0
14, 16740, Note_on_c, 13, 48, 73
14, 16799, Note_on_c, 13, 48, 0
14, 16800, Note_on_c, 13, 53, 73
14, 16859, Note_on_c, 13, 53, 0
14, 16860, Note_on_c, 13, 65, 73
14, 16919, Note_on_c, 13, 65, 0
14, 16920, Note_on_c, 13, 65, 73
14, 16979, Note_on_c, 13, 65, 0
14, 16980, Note_on_c, 13, 65, 73
14, 17039, Note_on_c, 13, 65, 0
14, 17040, Note_on_c, 13, 65, 72
14, 17099, Note_on_c, 13, 65, 0
14, 17100, Note_on_c, 13, 65, 72
14, 17159, Note_on_c, 13, 65, 0
14, 17160, Note_on_c, 13, 65, 72
14, 17219, Note_on_c, 13, 65, 0
14, 17220, Note_on_c, 13, 65, 72
14, 17279, Note_on_c, 13, 65, 0
14, 17280, Note_on_c, 13, 64, 71
14, 17519, Note_on_c, 13, 64, 0
14, 17820, Note_on_c, 13, 62, 70
14, 17879, Note_on_c, 13, 62, 0
14, 17880, Note_on_c, 13, 62, 70
14, 17939, Note_on_c, 13, 62, 0
14, 17940, Note_on_c, 13, 62, 70
14, 17999, Note_on_c, 13, 62, 0
14, 18000, Note_on_c, 13, 62, 70
14, 18059, Note_on_c, 13, 62, 0
14, 18060, Note_on_c, 13, 62, 70
14, 18119, Note_on_c, 13, 62, 0
14, 18120, Note_on_c, 13, 62, 70
14, 18179, Note_on_c, 13, 62, 0
14, 18180, Note_on_c, 13, 62, 70
14, 18239, Note_on_c, 13, 62, 0
14, 18240, Note_on_c, 13, 60, 70
14, 18479, Note_on_c, 13, 60, 0
14, 18780, Note_on_c, 13, 58, 71
14, 18839, Note_on_c, 13, 58, 0
14, 18840, Note_on_c, 13, 58, 70
14, 18899, Note_on_c, 13, 58, 0
14, 18900, Note_on_c, 13, 58, 70
14, 18959, Note_on_c, 13, 58, 0
14, 18960, Note_on_c, 13, 58, 70
14, 19019, Note_on_c, 13, 58, 0
14, 19020, Note_on_c, 13, 58, 70
14, 19079, Note_on_c, 13, 58, 0
14, 19080, Note_on_c, 13, 58, 69
14, 19139, Note_on_c, 13, 58, 0
14, 19140, Note_on_c, 13, 58, 69
14, 19199, Note_on_c, 13, 58, 0
14, 19200, Note_on_c, 13, 57, 69
14, 19319, Note_on_c, 13, 57, 0
14, 19440, Note_on_c, 13, 64, 73
14, 19559, Note_on_c, 13, 64, 0
14, 19680, Note_on_c, 13, 65, 73
14, 19799, Note_on_c, 13, 65, 0
14, 20880, Note_on_c, 13, 57, 111
14, 20939, Note_on_c, 13, 57, 0
14, 20940, Note_on_c, 13, 57, 93
14, 20999, Note_on_c, 13, 57, 0
14, 21000, Note_on_c, 13, 57, 70
14, 21059, Note_on_c, 13, 57, 0
14, 21060, Note_on_c, 13, 57, 69
14, 21119, Note_on_c, 13, 57, 0
14, 21120, Note_on_c, 13, 58, 110
14, 21179, Note_on_c, 13, 58, 0
14, 21180, Note_on_c, 13, 58, 92
14, 21239, Note_on_c, 13, 58, 0
14, 21240, Note_on_c, 13, 58, 70
14, 21299, Note_on_c, 13, 58, 0
14, 21300, Note_on_c, 13, 58, 70
14, 21359, Note_on_c, 13, 58, 0
14, 21360, Note_on_c, 13, 59, 115
14, 21419, Note_on_c, 13, 59, 0
14, 21420, Note_on_c, 13, 59, 92
14, 21479, Note_on_c, 13, 59, 0
14, 21480, Note_on_c, 13, 59, 69
14, 21539, Note_on_c, 13, 59, 0
14, 21540, Note_on_c, 13, 59, 70
14, 21599, Note_on_c, 13, 59, 0
14, 21600, Note_on_c, 13, 60, 70
14, 21659, Note_on_c, 13, 60, 0
14, 21660, Note_on_c, 13, 60, 74
14, 21719, Note_on_c, 13, 60, 0
14, 21720, Note_on_c, 13, 60, 81
14, 21779, Note_on_c, 13, 60, 0
14, 21780, Note_on_c, 13, 60, 87
14, 21839, Note_on_c, 13, 60, 0
14, 21840, Note_on_c, 13, 57, 91
14, 21899, Note_on_c, 13, 57, 0
14, 21900, Note_on_c, 13, 57, 98
14, 21959, Note_on_c, 13, 57, 0
14, 21960, Note_on_c, 13, 53, 104
14, 22019, Note_on_c, 13, 53, 0
14, 22020, Note_on_c, 13, 53, 114
14, 22079, Note_on_c, 13, 53, 0
14, 22080, Note_on_c, 13, 48, 126
14, 22199, Note_on_c, 13, 48, 0
14, 22320, Note_on_c, 13, 48, 127
14, 22439, Note_on_c, 13, 48, 0
14, 22560, Note_on_c, 13, 53, 123
14, 22679, Note_on_c, 13, 53, 0
14, 22920, Note_on_c, 13, 48, 127
14, 23039, Note_on_c, 13, 48, 0
14, 23040, Note_on_c, 13, 53, 127
14, 23159, Note_on_c, 13, 53, 0
14, 23400, Note_on_c, 13, 48, 126
14, 23519, Note_on_c, 13, 48, 0
14, 23520, Note_on_c, 13, 53, 123
14, 23639, Note_on_c, 13, 53, 0
14, 23640, Note_on_c, 13, 62, 122
14, 23699, Note_on_c, 13, 62, 0
14, 23700, Note_on_c, 13, 65, 122
14, 23759, Note_on_c, 13, 65, 0
14, 23760, Note_on_c, 13, 58, 122
14, 23819, Note_on_c, 13, 58, 0
14, 23820, Note_on_c, 13, 62, 122
14, 23879, Note_on_c, 13, 62, 0
14, 23880, Note_on_c, 13, 55, 122
14, 23939, Note_on_c, 13, 55, 0
14, 23940, Note_on_c, 13, 58, 122
14, 23999, Note_on_c, 13, 58, 0
14, 24000, Note_on_c, 13, 52, 123
14, 24119, Note_on_c, 13, 52, 0
14, 24120, Note_on_c, 13, 53, 123
14, 24239, Note_on_c, 13, 53, 0
14, 24240, Note_on_c, 13, 46, 127
14, 24359, Note_on_c, 13, 46, 0
14, 24360, Note_on_c, 13, 48, 127
14, 24479, Note_on_c, 13, 48, 0
14, 24480, Note_on_c, 13, 41, 127
14, 24599, Note_on_c, 13, 41, 0
14, 25020, Note_on_c, 13, 53, 121
14, 25079, Note_on_c, 13, 53, 0
14, 25080, Note_on_c, 13, 55, 122
14, 25139, Note_on_c, 13, 55, 0
14, 25140, Note_on_c, 13, 57, 122
14, 25199, Note_on_c, 13, 57, 0
14, 25200, Note_on_c, 13, 58, 122
14, 25259, Note_on_c, 13, 58, 0
14, 25260, Note_on_c, 13, 57, 122
14, 25319, Note_on_c, 13, 57, 0
14, 25320, Note_on_c, 13, 58, 122
14, 25379, Note_on_c, 13, 58, 0
14, 25380, Note_on_c, 13, 55, 122
14, 25439, Note_on_c, 13, 55, 0
14, 25440, Note_on_c, 13, 53, 122
14, 25559, Note_on_c, 13, 53, 0
14, 25980, Note_on_c, 13, 53, 124
14, 26039, Note_on_c, 13, 53, 0
14, 26040, Note_on_c, 13, 55, 123
14, 26099, Note_on_c, 13, 55, 0
14, 26100, Note_on_c, 13, 57, 123
14, 26159, Note_on_c, 13, 57, 0
14, 26160, Note_on_c, 13, 58, 123
14, 26219, Note_on_c, 13, 58, 0
14, 26220, Note_on_c, 13, 57, 123
14, 26279, Note_on_c, 13, 57, 0
14, 26280, Note_on_c, 13, 58, 123
14, 26339, Note_on_c, 13, 58, 0
14, 26340, Note_on_c, 13, 55, 123
14, 26399, Note_on_c, 13, 55, 0
14, 26400, Note_on_c, 13, 53, 123
14, 26519, Note_on_c, 13, 53, 0
14, 26940, Note_on_c, 13, 53, 127
14, 26999, Note_on_c, 13, 53, 0
14, 27000, Note_on_c, 13, 55, 126
14, 27059, Note_on_c, 13, 55, 0
14, 27060, Note_on_c, 13, 57, 126
14, 27119, Note_on_c, 13, 57, 0
14, 27120, Note_on_c, 13, 58, 126
14, 27179, Note_on_c, 13, 58, 0
14, 27180, Note_on_c, 13, 57, 126
14, 27239, Note_on_c, 13, 57, 0
14, 27240, Note_on_c, 13, 58, 125
14, 27299, Note_on_c, 13, 58, 0
14, 27300, Note_on_c, 13, 55, 125
14, 27359, Note_on_c, 13, 55, 0
14, 27360, Note_on_c, 13, 53, 125
14, 27479, Note_on_c, 13, 53, 0
14, 27900, Note_on_c, 13, 53, 125
14, 27959, Note_on_c, 13, 53, 0
14, 27960, Note_on_c, 13, 55, 125
14, 28019, Note_on_c, 13, 55, 0
14, 28020, Note_on_c, 13, 57, 125
14, 28079, Note_on_c, 13, 57, 0
14, 28080, Note_on_c, 13, 58, 125
14, 28139, Note_on_c, 13, 58, 0
14, 28140, Note_on_c, 13, 57, 125
14, 28199, Note_on_c, 13, 57, 0
14, 28200, Note_on_c, 13, 58, 125
14, 28259, Note_on_c, 13, 58, 0
14, 28260, Note_on_c, 13, 55, 125
14, 28319, Note_on_c, 13, 55, 0
14, 28320, Note_on_c, 13, 54, 125
14, 28379, Note_on_c, 13, 54, 0
14, 28380, Note_on_c, 13, 54, 71
14, 28439, Note_on_c, 13, 54, 0
14, 28440, Note_on_c, 13, 54, 71
14, 28499, Note_on_c, 13, 54, 0
14, 28500, Note_on_c, 13, 54, 71
14, 28559, Note_on_c, 13, 54, 0
14, 28560, Note_on_c, 13, 54, 71
14, 28619, Note_on_c, 13, 54, 0
14, 28620, Note_on_c, 13, 54, 70
14, 28679, Note_on_c, 13, 54, 0
14, 28680, Note_on_c, 13, 54, 70
14, 28739, Note_on_c, 13, 54, 0
14, 28740, Note_on_c, 13, 54, 71
14, 28799, Note_on_c, 13, 54, 0
14, 28800, Note_on_c, 13, 54, 70
14, 28859, Note_on_c, 13, 54, 0
14, 28860, Note_on_c, 13, 54, 70
14, 28919, Note_on_c, 13, 54, 0
14, 28920, Note_on_c, 13, 54, 69
14, 28979, Note_on_c, 13, 54, 0
14, 28980, Note_on_c, 13, 54, 68
14, 29039, Note_on_c, 13, 54, 0
14, 29040, Note_on_c, 13, 54, 70
14, 29099, Note_on_c, 13, 54, 0
14, 29100, Note_on_c, 13, 54, 70
14, 29159, Note_on_c, 13, 54, 0
14, 29160, Note_on_c, 13, 54, 70
14, 29219, Note_on_c, 13, 54, 0
14, 29220, Note_on_c, 13, 54, 71
14, 29279, Note_on_c, 13, 54, 0
14, 29280, Note_on_c, 13, 55, 71
14, 29399, Note_on_c, 13, 55, 0
14, 29820, Note_on_c, 13, 55, 127
14, 29879, Note_on_c, 13, 55, 0
14, 29880, Note_on_c, 13, 57, 127
14, 29939, Note_on_c, 13, 57, 0
14, 29940, Note_on_c, 13, 58, 127
14, 29999, Note_on_c, 13, 58, 0
14, 30000, Note_on_c, 13, 60, 126
14, 30059, Note_on_c, 13, 60, 0
14, 30060, Note_on_c, 13, 58, 126
14, 30119, Note_on_c, 13, 58, 0
14, 30120, Note_on_c, 13, 60, 125
14, 30179, Note_on_c, 13, 60, 0
14, 30180, Note_on_c, 13, 57, 125
14, 30239, Note_on_c, 13, 57, 0
14, 30240, Note_on_c, 13, 55, 126
14, 30359, Note_on_c, 13, 55, 0
14, 30780, Note_on_c, 13, 55, 124
14, 30839, Note_on_c, 13, 55, 0
14, 30840, Note_on_c, 13, 57, 125
14, 30899, Note_on_c, 13, 57, 0
14, 30900, Note_on_c, 13, 58, 125
14, 30959, Note_on_c, 13, 58, 0
14, 30960, Note_on_c, 13, 60, 125
14, 31019, Note_on_c, 13, 60, 0
14, 31020, Note_on_c, 13, 58, 125
14, 31079, Note_on_c, 13, 58, 0
14, 31080, Note_on_c, 13, 60, 125
14, 31139, Note_on_c, 13, 60, 0
14, 31140, Note_on_c, 13, 57, 125
14, 31199, Note_on_c, 13, 57, 0
14, 31200, Note_on_c, 13, 56, 124
14, 31259, Note_on_c, 13, 56, 0
14, 31260, Note_on_c, 13, 56, 73
14, 31319, Note_on_c, 13, 56, 0
14, 31320, Note_on_c, 13, 56, 73
14, 31379, Note_on_c, 13, 56, 0
14, 31380, Note_on_c, 13, 56, 73
14, 31439, Note_on_c, 13, 56, 0
14, 31440, Note_on_c, 13, 56, 73
14, 31499, Note_on_c, 13, 56, 0
14, 31500, Note_on_c, 13, 56, 73
14, 31559, Note_on_c, 13, 56, 0
14, 31560, Note_on_c, 13, 56, 74
14, 31619, Note_on_c, 13, 56, 0
14, 31620, Note_on_c, 13, 56, 75
14, 31679, Note_on_c, 13, 56, 0
14, 31680, Note_on_c, 13, 56, 75
14, 31739, Note_on_c, 13, 56, 0
14, 31740, Note_on_c, 13, 56, 75
14, 31799, Note_on_c, 13, 56, 0
14, 31800, Note_on_c, 13, 56, 74
14, 31859, Note_on_c, 13, 56, 0
14, 31860, Note_on_c, 13, 56, 73
14, 31919, Note_on_c, 13, 56, 0
14, 31920, Note_on_c, 13, 56, 73
14, 31979, Note_on_c, 13, 56, 0
14, 31980, Note_on_c, 13, 56, 73
14, 32039, Note_on_c, 13, 56, 0
14, 32040, Note_on_c, 13, 56, 73
14, 32099, Note_on_c, 13, 56, 0
14, 32100, Note_on_c, 13, 56, 74
14, 32159, Note_on_c, 13, 56, 0
14, 32160, Note_on_c, 13, 57, 75
14, 32219, Note_on_c, 13, 57, 0
14, 32220, Note_on_c, 13, 57, 75
14, 32279, Note_on_c, 13, 57, 0
14, 32280, Note_on_c, 13, 61, 100
14, 32339, Note_on_c, 13, 61, 0
14, 32340, Note_on_c, 13, 57, 100
14, 32399, Note_on_c, 13, 57, 0
14, 32400, Note_on_c, 13, 52, 99
14, 32459, Note_on_c, 13, 52, 0
14, 32460, Note_on_c, 13, 57, 99
14, 32519, Note_on_c, 13, 57, 0
14, 32520, Note_on_c, 13, 49, 99
14, 32579, Note_on_c, 13, 49, 0
14, 32580, Note_on_c, 13, 52, 99
14, 32639, Note_on_c, 13, 52, 0
14, 32640, Note_on_c, 13, 45, 100
14, 32759, Note_on_c, 13, 45, 0
14, 33120, Note_on_c, 13, 57, 100
14, 33239, Note_on_c, 13, 57, 0
14, 33600, Note_on_c, 13, 45, 71
14, 33719, Note_on_c, 13, 45, 0
14, 34080, Note_on_c, 13, 57, 72
14, 34199, Note_on_c, 13, 57, 0
14, 34560, Note_on_c, 13, 45, 72
14, 34679, Note_on_c, 13, 45, 0
14, 35040, Note_on_c, 13, 50, 72
14, 35159, Note_on_c, 13, 50, 0
14, 35280, Note_on_c, 13, 62, 73
14, 35339, Note_on_c, 13, 62, 0
14, 35400, Note_on_c, 13, 62, 73
14, 35459, Note_on_c, 13, 62, 0
14, 35520, Note_on_c, 13, 62, 73
14, 35639, Note_on_c, 13, 62, 0
14, 35760, Note_on_c, 13, 62, 70
14, 35819, Note_on_c, 13, 62, 0
14, 35880, Note_on_c, 13, 62, 69
14, 35939, Note_on_c, 13, 62, 0
14, 36000, Note_on_c, 13, 62, 70
14, 36119, Note_on_c, 13, 62, 0
14, 36240, Note_on_c, 13, 62, 70
14, 36299, Note_on_c, 13, 62, 0
14, 36360, Note_on_c, 13, 62, 69
14, 36419, Note_on_c, 13, 62, 0
14, 36480, Note_on_c, 13, 62, 69
14, 36599, Note_on_c, 13, 62, 0
14, 36720, Note_on_c, 13, 62, 72
14, 36779, Note_on_c, 13, 62, 0
14, 36840, Note_on_c, 13, 62, 72
14, 36899, Note_on_c, 13, 62, 0
14, 36960, Note_on_c, 13, 62, 72
14, 37079, Note_on_c, 13, 62, 0
14, 37320, Note_on_c, 13, 65, 70
14, 37379, Note_on_c, 13, 65, 0
14, 37440, Note_on_c, 13, 67, 72
14, 37499, Note_on_c, 13, 67, 0
14, 37560, Note_on_c, 13, 64, 72
14, 37619, Note_on_c, 13, 64, 0
14, 37680, Note_on_c, 13, 65, 70
14, 37739, Note_on_c, 13, 65, 0
14, 37800, Note_on_c, 13, 62, 70
14, 37859, Note_on_c, 13, 62, 0
14, 37920, Note_on_c, 13, 64, 70
14, 37979, Note_on_c, 13, 64, 0
14, 38040, Note_on_c, 13, 61, 72
14, 38099, Note_on_c, 13, 61, 0
14, 38160, Note_on_c, 13, 62, 72
14, 38279, Note_on_c, 13, 62, 0
14, 38400, Note_on_c, 13, 55, 67
14, 38459, Note_on_c, 13, 55, 0
14, 38460, Note_on_c, 13, 55, 67
14, 38519, Note_on_c, 13, 55, 0
14, 38520, Note_on_c, 13, 55, 68
14, 38579, Note_on_c, 13, 55, 0
14, 38580, Note_on_c, 13, 55, 68
14, 38639, Note_on_c, 13, 55, 0
14, 38640, Note_on_c, 13, 55, 68
14, 38699, Note_on_c, 13, 55, 0
14, 38700, Note_on_c, 13, 55, 69
14, 38759, Note_on_c, 13, 55, 0
14, 38760, Note_on_c, 13, 55, 70
14, 38819, Note_on_c, 13, 55, 0
14, 38820, Note_on_c, 13, 55, 70
14, 38879, Note_on_c, 13, 55, 0
14, 38880, Note_on_c, 13, 55, 70
14, 38939, Note_on_c, 13, 55, 0
14, 38940, Note_on_c, 13, 55, 70
14, 38999, Note_on_c, 13, 55, 0
14, 39000, Note_on_c, 13, 55, 78
14, 39059, Note_on_c, 13, 55, 0
14, 39060, Note_on_c, 13, 55, 84
14, 39119, Note_on_c, 13, 55, 0
14, 39120, Note_on_c, 13, 55, 89
14, 39179, Note_on_c, 13, 55, 0
14, 39180, Note_on_c, 13, 55, 97
14, 39239, Note_on_c, 13, 55, 0
14, 39240, Note_on_c, 13, 56, 105
14, 39299, Note_on_c, 13, 56, 0
14, 39300, Note_on_c, 13, 56, 110
14, 39359, Note_on_c, 13, 56, 0
14, 39360, Note_on_c, 13, 57, 118
14, 39479, Note_on_c, 13, 57, 0
14, 39480, Note_on_c, 13, 57, 127
14, 39599, Note_on_c, 13, 57, 0
14, 39600, Note_on_c, 13, 45, 127
14, 39719, Note_on_c, 13, 45, 0
14, 39960, Note_on_c, 13, 57, 125
14, 40079, Note_on_c, 13, 57, 0
14, 40080, Note_on_c, 13, 45, 125
14, 40199, Note_on_c, 13, 45, 0
14, 40440, Note_on_c, 13, 57, 125
14, 40559, Note_on_c, 13, 57, 0
14, 40560, Note_on_c, 13, 45, 125
14, 40679, Note_on_c, 13, 45, 0
14, 41400, Note_on_c, 13, 55, 125
14, 41519, Note_on_c, 13, 55, 0
14, 41520, Note_on_c, 13, 52, 125
14, 41639, Note_on_c, 13, 52, 0
14, 41640, Note_on_c, 13, 50, 125
14, 41759, Note_on_c, 13, 50, 0
14, 41760, Note_on_c, 13, 49, 125
14, 41879, Note_on_c, 13, 49, 0
14, 42420, Note_on_c, 13, 45, 101
14, 42439, Note_on_c, 13, 45, 0
14, 42440, Note_on_c, 13, 47, 105
14, 42459, Note_on_c, 13, 47, 0
14, 42460, Note_on_c, 13, 49, 112
14, 42479, Note_on_c, 13, 49, 0
14, 42480, Note_on_c, 13, 50, 126
14, 42719, Note_on_c, 13, 50, 0
14, 42900, Note_on_c, 13, 49, 103
14, 42919, Note_on_c, 13, 49, 0
14, 42920, Note_on_c, 13, 50, 110
14, 42939, Note_on_c, 13, 50, 0
14, 42940, Note_on_c, 13, 52, 115
14, 42959, Note_on_c, 13, 52, 0
14, 42960, Note_on_c, 13, 53, 125
14, 43199, Note_on_c, 13, 53, 0
14, 43440, Note_on_c, 13, 56, 91
14, 43679, Note_on_c, 13, 56, 0
14, 43680, Note_on_c, 13, 55, 91
14, 43739, Note_on_c, 13, 55, 0
14, 43740, Note_on_c, 13, 55, 91
14, 43799, Note_on_c, 13, 55, 0
14, 43800, Note_on_c, 13, 56, 92
14, 43859, Note_on_c, 13, 56, 0
14, 43860, Note_on_c, 13, 56, 92
14, 43919, Note_on_c, 13, 56, 0
14, 43920, Note_on_c, 13, 55, 92
14, 43979, Note_on_c, 13, 55, 0
14, 43980, Note_on_c, 13, 55, 92
14, 44039, Note_on_c, 13, 55, 0
14, 44040, Note_on_c, 13, 56, 92
14, 44099, Note_on_c, 13, 56, 0
14, 44100, Note_on_c, 13, 56, 92
14, 44159, Note_on_c, 13, 56, 0
14, 44160, Note_on_c, 13, 55, 92
14, 44279, Note_on_c, 13, 55, 0
14, 44850, Note_on_c, 13, 55, 92
14, 44879, Note_on_c, 13, 55, 0
14, 44880, Note_on_c, 13, 55, 93
14, 44999, Note_on_c, 13, 55, 0
14, 45090, Note_on_c, 13, 56, 92
14, 45119, Note_on_c, 13, 56, 0
14, 45120, Note_on_c, 13, 56, 92
14, 45359, Note_on_c, 13, 56, 0
14, 46320, Note_on_c, 13, 57, 91
14, 46559, Note_on_c, 13, 57, 0
14, 46560, Note_on_c, 13, 58, 90
14, 46919, Note_on_c, 13, 58, 0
14, 46920, Note_on_c, 13, 59, 112
14, 47039, Note_on_c, 13, 59, 0
14, 47040, Note_on_c, 13, 57, 126
14, 47159, Note_on_c, 13, 57, 0
14, 47280, Note_on_c, 13, 57, 127
14, 47399, Note_on_c, 13, 57, 0
14, 47520, Note_on_c, 13, 50, 127
14, 47759, Note_on_c, 13, 50, 0
14, 47759, End_track
15, 0, Start_track
15, 0, MIDI_port, 0
15, 0, Title_t, "Contrebasse"
15, 190, Control_c, 14, 0, 0
15, 192, Program_c, 14, 43
15, 193, Control_c, 14, 7, 66
15, 193, Control_c, 14, 10, 120
15, 235, Control_c, 14, 11, 127
15, 236, Control_c, 14, 91, 100
15, 237, Control_c, 14, 93, 10
15, 238, Control_c, 14, 1, 5
15, 238, Control_c, 14, 99, 1
15, 238, Control_c, 14, 98, 32
15, 238, Control_c, 14, 6, 64
15, 238, Control_c, 14, 38, 0
15, 239, Control_c, 14, 99, 1
15, 239, Control_c, 14, 98, 33
15, 239, Control_c, 14, 6, 64
15, 239, Control_c, 14, 38, 0
15, 240, Control_c, 14, 99, 1
15, 240, Control_c, 14, 98, 99
15, 240, Control_c, 14, 6, 64
15, 240, Control_c, 14, 38, 0
15, 960, Note_on_c, 14, 45, 127
15, 965, Note_on_c, 14, 45, 0
15, 966, Note_on_c, 14, 47, 127
15, 971, Note_on_c, 14, 47, 0
15, 972, Note_on_c, 14, 49, 127
15, 977, Note_on_c, 14, 49, 0
15, 978, Note_on_c, 14, 50, 127
15, 1079, Note_on_c, 14, 50, 0
15, 1080, Note_on_c, 14, 45, 123
15, 1199, Note_on_c, 14, 45, 0
15, 1200, Note_on_c, 14, 41, 108
15, 1319, Note_on_c, 14, 41, 0
15, 1320, Note_on_c, 14, 38, 79
15, 1439, Note_on_c, 14, 38, 0
15, 1440, Note_on_c, 14, 38, 70
15, 1499, Note_on_c, 14, 38, 0
15, 1500, Note_on_c, 14, 38, 71
15, 1559, Note_on_c, 14, 38, 0
15, 1560, Note_on_c, 14, 38, 71
15, 1619, Note_on_c, 14, 38, 0
15, 1620, Note_on_c, 14, 38, 71
15, 1679, Note_on_c, 14, 38, 0
15, 1680, Note_on_c, 14, 38, 71
15, 1739, Note_on_c, 14, 38, 0
15, 1740, Note_on_c, 14, 38, 70
15, 1799, Note_on_c, 14, 38, 0
15, 1800, Note_on_c, 14, 38, 71
15, 1859, Note_on_c, 14, 38, 0
15, 1860, Note_on_c, 14, 38, 70
15, 1919, Note_on_c, 14, 38, 0
15, 1920, Note_on_c, 14, 38, 70
15, 1979, Note_on_c, 14, 38, 0
15, 1980, Note_on_c, 14, 38, 71
15, 2039, Note_on_c, 14, 38, 0
15, 2040, Note_on_c, 14, 38, 71
15, 2099, Note_on_c, 14, 38, 0
15, 2100, Note_on_c, 14, 38, 70
15, 2159, Note_on_c, 14, 38, 0
15, 2160, Note_on_c, 14, 38, 127
15, 2219, Note_on_c, 14, 38, 0
15, 2220, Note_on_c, 14, 38, 127
15, 2279, Note_on_c, 14, 38, 0
15, 2280, Note_on_c, 14, 38, 127
15, 2339, Note_on_c, 14, 38, 0
15, 2340, Note_on_c, 14, 38, 127
15, 2399, Note_on_c, 14, 38, 0
15, 2400, Note_on_c, 14, 40, 72
15, 2459, Note_on_c, 14, 40, 0
15, 2460, Note_on_c, 14, 40, 72
15, 2519, Note_on_c, 14, 40, 0
15, 2520, Note_on_c, 14, 40, 72
15, 2579, Note_on_c, 14, 40, 0
15, 2580, Note_on_c, 14, 40, 72
15, 2639, Note_on_c, 14, 40, 0
15, 2640, Note_on_c, 14, 40, 125
15, 2699, Note_on_c, 14, 40, 0
15, 2700, Note_on_c, 14, 40, 125
15, 2759, Note_on_c, 14, 40, 0
15, 2760, Note_on_c, 14, 40, 125
15, 2819, Note_on_c, 14, 40, 0
15, 2820, Note_on_c, 14, 40, 125
15, 2879, Note_on_c, 14, 40, 0
15, 2880, Note_on_c, 14, 41, 73
15, 2939, Note_on_c, 14, 41, 0
15, 2940, Note_on_c, 14, 41, 73
15, 2999, Note_on_c, 14, 41, 0
15, 3000, Note_on_c, 14, 41, 74
15, 3059, Note_on_c, 14, 41, 0
15, 3060, Note_on_c, 14, 41, 74
15, 3119, Note_on_c, 14, 41, 0
15, 3120, Note_on_c, 14, 41, 125
15, 3179, Note_on_c, 14, 41, 0
15, 3180, Note_on_c, 14, 41, 125
15, 3239, Note_on_c, 14, 41, 0
15, 3240, Note_on_c, 14, 41, 125
15, 3299, Note_on_c, 14, 41, 0
15, 3300, Note_on_c, 14, 41, 125
15, 3359, Note_on_c, 14, 41, 0
15, 3360, Note_on_c, 14, 43, 124
15, 3419, Note_on_c, 14, 43, 0
15, 3420, Note_on_c, 14, 43, 72
15, 3479, Note_on_c, 14, 43, 0
15, 3480, Note_on_c, 14, 43, 70
15, 3539, Note_on_c, 14, 43, 0
15, 3540, Note_on_c, 14, 43, 70
15, 3599, Note_on_c, 14, 43, 0
15, 3600, Note_on_c, 14, 45, 124
15, 3659, Note_on_c, 14, 45, 0
15, 3660, Note_on_c, 14, 45, 72
15, 3719, Note_on_c, 14, 45, 0
15, 3720, Note_on_c, 14, 45, 71
15, 3779, Note_on_c, 14, 45, 0
15, 3780, Note_on_c, 14, 45, 72
15, 3839, Note_on_c, 14, 45, 0
15, 3840, Note_on_c, 14, 46, 69
15, 3899, Note_on_c, 14, 46, 0
15, 3900, Note_on_c, 14, 46, 69
15, 3959, Note_on_c, 14, 46, 0
15, 3960, Note_on_c, 14, 42, 69
15, 4019, Note_on_c, 14, 42, 0
15, 4020, Note_on_c, 14, 42, 69
15, 4079, Note_on_c, 14, 42, 0
15, 4080, Note_on_c, 14, 43, 75
15, 4139, Note_on_c, 14, 43, 0
15, 4140, Note_on_c, 14, 43, 81
15, 4199, Note_on_c, 14, 43, 0
15, 4200, Note_on_c, 14, 43, 92
15, 4259, Note_on_c, 14, 43, 0
15, 4260, Note_on_c, 14, 43, 104
15, 4319, Note_on_c, 14, 43, 0
15, 4320, Note_on_c, 14, 43, 69
15, 4379, Note_on_c, 14, 43, 0
15, 4380, Note_on_c, 14, 43, 69
15, 4439, Note_on_c, 14, 43, 0
15, 4440, Note_on_c, 14, 43, 71
15, 4499, Note_on_c, 14, 43, 0
15, 4500, Note_on_c, 14, 43, 71
15, 4559, Note_on_c, 14, 43, 0
15, 4560, Note_on_c, 14, 43, 71
15, 4619, Note_on_c, 14, 43, 0
15, 4620, Note_on_c, 14, 43, 71
15, 4679, Note_on_c, 14, 43, 0
15, 4680, Note_on_c, 14, 44, 70
15, 4739, Note_on_c, 14, 44, 0
15, 4740, Note_on_c, 14, 44, 70
15, 4799, Note_on_c, 14, 44, 0
15, 4800, Note_on_c, 14, 45, 69
15, 4919, Note_on_c, 14, 45, 0
15, 4920, Note_on_c, 14, 45, 100
15, 5039, Note_on_c, 14, 45, 0
15, 5040, Note_on_c, 14, 44, 112
15, 5159, Note_on_c, 14, 44, 0
15, 5160, Note_on_c, 14, 43, 119
15, 5279, Note_on_c, 14, 43, 0
15, 5280, Note_on_c, 14, 41, 123
15, 5339, Note_on_c, 14, 41, 0
15, 5340, Note_on_c, 14, 41, 71
15, 5399, Note_on_c, 14, 41, 0
15, 5400, Note_on_c, 14, 41, 72
15, 5459, Note_on_c, 14, 41, 0
15, 5460, Note_on_c, 14, 41, 72
15, 5519, Note_on_c, 14, 41, 0
15, 5520, Note_on_c, 14, 41, 71
15, 5579, Note_on_c, 14, 41, 0
15, 5580, Note_on_c, 14, 41, 71
15, 5639, Note_on_c, 14, 41, 0
15, 5640, Note_on_c, 14, 41, 70
15, 5699, Note_on_c, 14, 41, 0
15, 5700, Note_on_c, 14, 41, 70
15, 5759, Note_on_c, 14, 41, 0
15, 5760, Note_on_c, 14, 41, 70
15, 5819, Note_on_c, 14, 41, 0
15, 5820, Note_on_c, 14, 41, 70
15, 5879, Note_on_c, 14, 41, 0
15, 5880, Note_on_c, 14, 41, 70
15, 5939, Note_on_c, 14, 41, 0
15, 5940, Note_on_c, 14, 41, 70
15, 5999, Note_on_c, 14, 41, 0
15, 6000, Note_on_c, 14, 41, 70
15, 6059, Note_on_c, 14, 41, 0
15, 6060, Note_on_c, 14, 41, 70
15, 6119, Note_on_c, 14, 41, 0
15, 6120, Note_on_c, 14, 41, 69
15, 6179, Note_on_c, 14, 41, 0
15, 6180, Note_on_c, 14, 41, 69
15, 6239, Note_on_c, 14, 41, 0
15, 6240, Note_on_c, 14, 41, 69
15, 6299, Note_on_c, 14, 41, 0
15, 6300, Note_on_c, 14, 41, 69
15, 6359, Note_on_c, 14, 41, 0
15, 6360, Note_on_c, 14, 41, 69
15, 6419, Note_on_c, 14, 41, 0
15, 6420, Note_on_c, 14, 41, 69
15, 6479, Note_on_c, 14, 41, 0
15, 6480, Note_on_c, 14, 41, 69
15, 6539, Note_on_c, 14, 41, 0
15, 6540, Note_on_c, 14, 41, 69
15, 6599, Note_on_c, 14, 41, 0
15, 6600, Note_on_c, 14, 41, 70
15, 6659, Note_on_c, 14, 41, 0
15, 6660, Note_on_c, 14, 41, 70
15, 6719, Note_on_c, 14, 41, 0
15, 6720, Note_on_c, 14, 41, 70
15, 6779, Note_on_c, 14, 41, 0
15, 6780, Note_on_c, 14, 41, 69
15, 6839, Note_on_c, 14, 41, 0
15, 6840, Note_on_c, 14, 41, 72
15, 6899, Note_on_c, 14, 41, 0
15, 6900, Note_on_c, 14, 41, 79
15, 6959, Note_on_c, 14, 41, 0
15, 6960, Note_on_c, 14, 41, 84
15, 7019, Note_on_c, 14, 41, 0
15, 7020, Note_on_c, 14, 41, 94
15, 7079, Note_on_c, 14, 41, 0
15, 7080, Note_on_c, 14, 41, 102
15, 7139, Note_on_c, 14, 41, 0
15, 7140, Note_on_c, 14, 41, 108
15, 7199, Note_on_c, 14, 41, 0
15, 7200, Note_on_c, 14, 40, 69
15, 7259, Note_on_c, 14, 40, 0
15, 7260, Note_on_c, 14, 40, 71
15, 7319, Note_on_c, 14, 40, 0
15, 7320, Note_on_c, 14, 40, 71
15, 7379, Note_on_c, 14, 40, 0
15, 7380, Note_on_c, 14, 40, 71
15, 7439, Note_on_c, 14, 40, 0
15, 7440, Note_on_c, 14, 40, 71
15, 7499, Note_on_c, 14, 40, 0
15, 7500, Note_on_c, 14, 40, 72
15, 7559, Note_on_c, 14, 40, 0
15, 7560, Note_on_c, 14, 40, 72
15, 7619, Note_on_c, 14, 40, 0
15, 7620, Note_on_c, 14, 40, 72
15, 7679, Note_on_c, 14, 40, 0
15, 7680, Note_on_c, 14, 39, 72
15, 7739, Note_on_c, 14, 39, 0
15, 7740, Note_on_c, 14, 39, 74
15, 7799, Note_on_c, 14, 39, 0
15, 7800, Note_on_c, 14, 39, 80
15, 7859, Note_on_c, 14, 39, 0
15, 7860, Note_on_c, 14, 39, 84
15, 7919, Note_on_c, 14, 39, 0
15, 7920, Note_on_c, 14, 39, 88
15, 7979, Note_on_c, 14, 39, 0
15, 7980, Note_on_c, 14, 39, 93
15, 8039, Note_on_c, 14, 39, 0
15, 8040, Note_on_c, 14, 39, 100
15, 8099, Note_on_c, 14, 39, 0
15, 8100, Note_on_c, 14, 39, 109
15, 8159, Note_on_c, 14, 39, 0
15, 8160, Note_on_c, 14, 38, 70
15, 8279, Note_on_c, 14, 38, 0
15, 8640, Note_on_c, 14, 50, 114
15, 8699, Note_on_c, 14, 50, 0
15, 8700, Note_on_c, 14, 50, 70
15, 8759, Note_on_c, 14, 50, 0
15, 8760, Note_on_c, 14, 50, 70
15, 8819, Note_on_c, 14, 50, 0
15, 8820, Note_on_c, 14, 50, 70
15, 8879, Note_on_c, 14, 50, 0
15, 8880, Note_on_c, 14, 48, 113
15, 8939, Note_on_c, 14, 48, 0
15, 8940, Note_on_c, 14, 48, 70
15, 8999, Note_on_c, 14, 48, 0
15, 9000, Note_on_c, 14, 48, 70
15, 9059, Note_on_c, 14, 48, 0
15, 9060, Note_on_c, 14, 48, 70
15, 9119, Note_on_c, 14, 48, 0
15, 9120, Note_on_c, 14, 47, 70
15, 9179, Note_on_c, 14, 47, 0
15, 9180, Note_on_c, 14, 47, 70
15, 9239, Note_on_c, 14, 47, 0
15, 9240, Note_on_c, 14, 47, 70
15, 9299, Note_on_c, 14, 47, 0
15, 9300, Note_on_c, 14, 47, 70
15, 9359, Note_on_c, 14, 47, 0
15, 9360, Note_on_c, 14, 47, 70
15, 9419, Note_on_c, 14, 47, 0
15, 9420, Note_on_c, 14, 47, 70
15, 9479, Note_on_c, 14, 47, 0
15, 9480, Note_on_c, 14, 47, 70
15, 9539, Note_on_c, 14, 47, 0
15, 9540, Note_on_c, 14, 47, 70
15, 9599, Note_on_c, 14, 47, 0
15, 9600, Note_on_c, 14, 48, 71
15, 9659, Note_on_c, 14, 48, 0
15, 9660, Note_on_c, 14, 48, 96
15, 9719, Note_on_c, 14, 48, 0
15, 9720, Note_on_c, 14, 47, 96
15, 9779, Note_on_c, 14, 47, 0
15, 9780, Note_on_c, 14, 48, 96
15, 9839, Note_on_c, 14, 48, 0
15, 9840, Note_on_c, 14, 47, 95
15, 9899, Note_on_c, 14, 47, 0
15, 9900, Note_on_c, 14, 48, 94
15, 9959, Note_on_c, 14, 48, 0
15, 9960, Note_on_c, 14, 46, 69
15, 10019, Note_on_c, 14, 46, 0
15, 10020, Note_on_c, 14, 43, 69
15, 10079, Note_on_c, 14, 43, 0
15, 10080, Note_on_c, 14, 45, 70
15, 10139, Note_on_c, 14, 45, 0
15, 10140, Note_on_c, 14, 48, 70
15, 10199, Note_on_c, 14, 48, 0
15, 10200, Note_on_c, 14, 45, 70
15, 10259, Note_on_c, 14, 45, 0
15, 10260, Note_on_c, 14, 41, 70
15, 10319, Note_on_c, 14, 41, 0
15, 10320, Note_on_c, 14, 40, 70
15, 10379, Note_on_c, 14, 40, 0
15, 10380, Note_on_c, 14, 43, 70
15, 10439, Note_on_c, 14, 43, 0
15, 10440, Note_on_c, 14, 40, 71
15, 10499, Note_on_c, 14, 40, 0
15, 10500, Note_on_c, 14, 36, 70
15, 10559, Note_on_c, 14, 36, 0
15, 10560, Note_on_c, 14, 41, 70
15, 10619, Note_on_c, 14, 41, 0
15, 10620, Note_on_c, 14, 48, 92
15, 10679, Note_on_c, 14, 48, 0
15, 10680, Note_on_c, 14, 47, 92
15, 10739, Note_on_c, 14, 47, 0
15, 10740, Note_on_c, 14, 48, 90
15, 10799, Note_on_c, 14, 48, 0
15, 10800, Note_on_c, 14, 47, 89
15, 10859, Note_on_c, 14, 47, 0
15, 10860, Note_on_c, 14, 48, 89
15, 10919, Note_on_c, 14, 48, 0
15, 10920, Note_on_c, 14, 46, 71
15, 10979, Note_on_c, 14, 46, 0
15, 10980, Note_on_c, 14, 43, 71
15, 11039, Note_on_c, 14, 43, 0
15, 11040, Note_on_c, 14, 45, 72
15, 11099, Note_on_c, 14, 45, 0
15, 11100, Note_on_c, 14, 48, 72
15, 11159, Note_on_c, 14, 48, 0
15, 11160, Note_on_c, 14, 45, 72
15, 11219, Note_on_c, 14, 45, 0
15, 11220, Note_on_c, 14, 41, 72
15, 11279, Note_on_c, 14, 41, 0
15, 11280, Note_on_c, 14, 40, 72
15, 11339, Note_on_c, 14, 40, 0
15, 11340, Note_on_c, 14, 43, 72
15, 11399, Note_on_c, 14, 43, 0
15, 11400, Note_on_c, 14, 40, 72
15, 11459, Note_on_c, 14, 40, 0
15, 11460, Note_on_c, 14, 36, 72
15, 11519, Note_on_c, 14, 36, 0
15, 11520, Note_on_c, 14, 41, 72
15, 11579, Note_on_c, 14, 41, 0
15, 11580, Note_on_c, 14, 53, 72
15, 11639, Note_on_c, 14, 53, 0
15, 11640, Note_on_c, 14, 53, 72
15, 11699, Note_on_c, 14, 53, 0
15, 11700, Note_on_c, 14, 53, 72
15, 11759, Note_on_c, 14, 53, 0
15, 11760, Note_on_c, 14, 53, 73
15, 11819, Note_on_c, 14, 53, 0
15, 11820, Note_on_c, 14, 53, 73
15, 11879, Note_on_c, 14, 53, 0
15, 11880, Note_on_c, 14, 53, 73
15, 11939, Note_on_c, 14, 53, 0
15, 11940, Note_on_c, 14, 53, 72
15, 11999, Note_on_c, 14, 53, 0
15, 12000, Note_on_c, 14, 52, 73
15, 12239, Note_on_c, 14, 52, 0
15, 12540, Note_on_c, 14, 50, 71
15, 12599, Note_on_c, 14, 50, 0
15, 12600, Note_on_c, 14, 50, 71
15, 12659, Note_on_c, 14, 50, 0
15, 12660, Note_on_c, 14, 50, 71
15, 12719, Note_on_c, 14, 50, 0
15, 12720, Note_on_c, 14, 50, 70
15, 12779, Note_on_c, 14, 50, 0
15, 12780, Note_on_c, 14, 50, 69
15, 12839, Note_on_c, 14, 50, 0
15, 12840, Note_on_c, 14, 50, 69
15, 12899, Note_on_c, 14, 50, 0
15, 12900, Note_on_c, 14, 50, 69
15, 12959, Note_on_c, 14, 50, 0
15, 12960, Note_on_c, 14, 48, 69
15, 13199, Note_on_c, 14, 48, 0
15, 13500, Note_on_c, 14, 46, 72
15, 13559, Note_on_c, 14, 46, 0
15, 13560, Note_on_c, 14, 46, 71
15, 13619, Note_on_c, 14, 46, 0
15, 13620, Note_on_c, 14, 46, 71
15, 13679, Note_on_c, 14, 46, 0
15, 13680, Note_on_c, 14, 46, 71
15, 13739, Note_on_c, 14, 46, 0
15, 13740, Note_on_c, 14, 46, 71
15, 13799, Note_on_c, 14, 46, 0
15, 13800, Note_on_c, 14, 46, 71
15, 13859, Note_on_c, 14, 46, 0
15, 13860, Note_on_c, 14, 46, 71
15, 13919, Note_on_c, 14, 46, 0
15, 13920, Note_on_c, 14, 45, 71
15, 14039, Note_on_c, 14, 45, 0
15, 14160, Note_on_c, 14, 52, 73
15, 14279, Note_on_c, 14, 52, 0
15, 14400, Note_on_c, 14, 53, 71
15, 14519, Note_on_c, 14, 53, 0
15, 15600, Note_on_c, 14, 50, 114
15, 15659, Note_on_c, 14, 50, 0
15, 15660, Note_on_c, 14, 50, 70
15, 15719, Note_on_c, 14, 50, 0
15, 15720, Note_on_c, 14, 50, 70
15, 15779, Note_on_c, 14, 50, 0
15, 15780, Note_on_c, 14, 50, 70
15, 15839, Note_on_c, 14, 50, 0
15, 15840, Note_on_c, 14, 46, 114
15, 15899, Note_on_c, 14, 46, 0
15, 15900, Note_on_c, 14, 46, 70
15, 15959, Note_on_c, 14, 46, 0
15, 15960, Note_on_c, 14, 46, 69
15, 16019, Note_on_c, 14, 46, 0
15, 16020, Note_on_c, 14, 46, 69
15, 16079, Note_on_c, 14, 46, 0
15, 16080, Note_on_c, 14, 43, 116
15, 16139, Note_on_c, 14, 43, 0
15, 16140, Note_on_c, 14, 43, 71
15, 16199, Note_on_c, 14, 43, 0
15, 16200, Note_on_c, 14, 43, 73
15, 16259, Note_on_c, 14, 43, 0
15, 16260, Note_on_c, 14, 43, 73
15, 16319, Note_on_c, 14, 43, 0
15, 16320, Note_on_c, 14, 48, 120
15, 16379, Note_on_c, 14, 48, 0
15, 16380, Note_on_c, 14, 48, 72
15, 16439, Note_on_c, 14, 48, 0
15, 16440, Note_on_c, 14, 48, 72
15, 16499, Note_on_c, 14, 48, 0
15, 16500, Note_on_c, 14, 48, 72
15, 16559, Note_on_c, 14, 48, 0
15, 16560, Note_on_c, 14, 36, 72
15, 16619, Note_on_c, 14, 36, 0
15, 16620, Note_on_c, 14, 36, 73
15, 16679, Note_on_c, 14, 36, 0
15, 16680, Note_on_c, 14, 36, 73
15, 16739, Note_on_c, 14, 36, 0
15, 16740, Note_on_c, 14, 36, 73
15, 16799, Note_on_c, 14, 36, 0
15, 16800, Note_on_c, 14, 41, 73
15, 16859, Note_on_c, 14, 41, 0
15, 16860, Note_on_c, 14, 53, 73
15, 16919, Note_on_c, 14, 53, 0
15, 16920, Note_on_c, 14, 53, 73
15, 16979, Note_on_c, 14, 53, 0
15, 16980, Note_on_c, 14, 53, 73
15, 17039, Note_on_c, 14, 53, 0
15, 17040, Note_on_c, 14, 53, 72
15, 17099, Note_on_c, 14, 53, 0
15, 17100, Note_on_c, 14, 53, 72
15, 17159, Note_on_c, 14, 53, 0
15, 17160, Note_on_c, 14, 53, 72
15, 17219, Note_on_c, 14, 53, 0
15, 17220, Note_on_c, 14, 53, 72
15, 17279, Note_on_c, 14, 53, 0
15, 17280, Note_on_c, 14, 52, 71
15, 17519, Note_on_c, 14, 52, 0
15, 17820, Note_on_c, 14, 50, 70
15, 17879, Note_on_c, 14, 50, 0
15, 17880, Note_on_c, 14, 50, 70
15, 17939, Note_on_c, 14, 50, 0
15, 17940, Note_on_c, 14, 50, 70
15, 17999, Note_on_c, 14, 50, 0
15, 18000, Note_on_c, 14, 50, 70
15, 18059, Note_on_c, 14, 50, 0
15, 18060, Note_on_c, 14, 50, 70
15, 18119, Note_on_c, 14, 50, 0
15, 18120, Note_on_c, 14, 50, 70
15, 18179, Note_on_c, 14, 50, 0
15, 18180, Note_on_c, 14, 50, 70
15, 18239, Note_on_c, 14, 50, 0
15, 18240, Note_on_c, 14, 48, 70
15, 18479, Note_on_c, 14, 48, 0
15, 18780, Note_on_c, 14, 46, 71
15, 18839, Note_on_c, 14, 46, 0
15, 18840, Note_on_c, 14, 46, 70
15, 18899, Note_on_c, 14, 46, 0
15, 18900, Note_on_c, 14, 46, 70
15, 18959, Note_on_c, 14, 46, 0
15, 18960, Note_on_c, 14, 46, 70
15, 19019, Note_on_c, 14, 46, 0
15, 19020, Note_on_c, 14, 46, 70
15, 19079, Note_on_c, 14, 46, 0
15, 19080, Note_on_c, 14, 46, 69
15, 19139, Note_on_c, 14, 46, 0
15, 19140, Note_on_c, 14, 46, 69
15, 19199, Note_on_c, 14, 46, 0
15, 19200, Note_on_c, 14, 45, 69
15, 19319, Note_on_c, 14, 45, 0
15, 19440, Note_on_c, 14, 52, 73
15, 19559, Note_on_c, 14, 52, 0
15, 19680, Note_on_c, 14, 53, 73
15, 19799, Note_on_c, 14, 53, 0
15, 20880, Note_on_c, 14, 45, 111
15, 20939, Note_on_c, 14, 45, 0
15, 20940, Note_on_c, 14, 45, 70
15, 20999, Note_on_c, 14, 45, 0
15, 21000, Note_on_c, 14, 45, 70
15, 21059, Note_on_c, 14, 45, 0
15, 21060, Note_on_c, 14, 45, 69
15, 21119, Note_on_c, 14, 45, 0
15, 21120, Note_on_c, 14, 46, 110
15, 21179, Note_on_c, 14, 46, 0
15, 21180, Note_on_c, 14, 46, 70
15, 21239, Note_on_c, 14, 46, 0
15, 21240, Note_on_c, 14, 46, 70
15, 21299, Note_on_c, 14, 46, 0
15, 21300, Note_on_c, 14, 46, 70
15, 21359, Note_on_c, 14, 46, 0
15, 21360, Note_on_c, 14, 47, 115
15, 21419, Note_on_c, 14, 47, 0
15, 21420, Note_on_c, 14, 47, 69
15, 21479, Note_on_c, 14, 47, 0
15, 21480, Note_on_c, 14, 47, 69
15, 21539, Note_on_c, 14, 47, 0
15, 21540, Note_on_c, 14, 47, 70
15, 21599, Note_on_c, 14, 47, 0
15, 21600, Note_on_c, 14, 48, 70
15, 21659, Note_on_c, 14, 48, 0
15, 21660, Note_on_c, 14, 48, 74
15, 21719, Note_on_c, 14, 48, 0
15, 21720, Note_on_c, 14, 48, 81
15, 21779, Note_on_c, 14, 48, 0
15, 21780, Note_on_c, 14, 48, 87
15, 21839, Note_on_c, 14, 48, 0
15, 21840, Note_on_c, 14, 45, 91
15, 21899, Note_on_c, 14, 45, 0
15, 21900, Note_on_c, 14, 45, 98
15, 21959, Note_on_c, 14, 45, 0
15, 21960, Note_on_c, 14, 41, 104
15, 22019, Note_on_c, 14, 41, 0
15, 22020, Note_on_c, 14, 41, 114
15, 22079, Note_on_c, 14, 41, 0
15, 22080, Note_on_c, 14, 36, 126
15, 22199, Note_on_c, 14, 36, 0
15, 22320, Note_on_c, 14, 36, 127
15, 22439, Note_on_c, 14, 36, 0
15, 22560, Note_on_c, 14, 41, 123
15, 22679, Note_on_c, 14, 41, 0
15, 22920, Note_on_c, 14, 36, 127
15, 23039, Note_on_c, 14, 36, 0
15, 23040, Note_on_c, 14, 41, 127
15, 23159, Note_on_c, 14, 41, 0
15, 23400, Note_on_c, 14, 36, 126
15, 23519, Note_on_c, 14, 36, 0
15, 23520, Note_on_c, 14, 41, 123
15, 23639, Note_on_c, 14, 41, 0
15, 23640, Note_on_c, 14, 50, 122
15, 23699, Note_on_c, 14, 50, 0
15, 23700, Note_on_c, 14, 53, 122
15, 23759, Note_on_c, 14, 53, 0
15, 23760, Note_on_c, 14, 46, 122
15, 23819, Note_on_c, 14, 46, 0
15, 23820, Note_on_c, 14, 50, 122
15, 23879, Note_on_c, 14, 50, 0
15, 23880, Note_on_c, 14, 43, 122
15, 23939, Note_on_c, 14, 43, 0
15, 23940, Note_on_c, 14, 46, 122
15, 23999, Note_on_c, 14, 46, 0
15, 24000, Note_on_c, 14, 40, 123
15, 24119, Note_on_c, 14, 40, 0
15, 24120, Note_on_c, 14, 41, 123
15, 24239, Note_on_c, 14, 41, 0
15, 24240, Note_on_c, 14, 34, 127
15, 24359, Note_on_c, 14, 34, 0
15, 24360, Note_on_c, 14, 36, 127
15, 24479, Note_on_c, 14, 36, 0
15, 24480, Note_on_c, 14, 29, 127
15, 24599, Note_on_c, 14, 29, 0
15, 25020, Note_on_c, 14, 41, 121
15, 25079, Note_on_c, 14, 41, 0
15, 25080, Note_on_c, 14, 43, 122
15, 25139, Note_on_c, 14, 43, 0
15, 25140, Note_on_c, 14, 45, 122
15, 25199, Note_on_c, 14, 45, 0
15, 25200, Note_on_c, 14, 46, 122
15, 25259, Note_on_c, 14, 46, 0
15, 25260, Note_on_c, 14, 45, 122
15, 25319, Note_on_c, 14, 45, 0
15, 25320, Note_on_c, 14, 46, 122
15, 25379, Note_on_c, 14, 46, 0
15, 25380, Note_on_c, 14, 43, 122
15, 25439, Note_on_c, 14, 43, 0
15, 25440, Note_on_c, 14, 41, 122
15, 25559, Note_on_c, 14, 41, 0
15, 25980, Note_on_c, 14, 41, 124
15, 26039, Note_on_c, 14, 41, 0
15, 26040, Note_on_c, 14, 43, 123
15, 26099, Note_on_c, 14, 43, 0
15, 26100, Note_on_c, 14, 45, 123
15, 26159, Note_on_c, 14, 45, 0
15, 26160, Note_on_c, 14, 46, 123
15, 26219, Note_on_c, 14, 46, 0
15, 26220, Note_on_c, 14, 45, 123
15, 26279, Note_on_c, 14, 45, 0
15, 26280, Note_on_c, 14, 46, 123
15, 26339, Note_on_c, 14, 46, 0
15, 26340, Note_on_c, 14, 43, 123
15, 26399, Note_on_c, 14, 43, 0
15, 26400, Note_on_c, 14, 41, 123
15, 26519, Note_on_c, 14, 41, 0
15, 26940, Note_on_c, 14, 41, 127
15, 26999, Note_on_c, 14, 41, 0
15, 27000, Note_on_c, 14, 43, 126
15, 27059, Note_on_c, 14, 43, 0
15, 27060, Note_on_c, 14, 45, 126
15, 27119, Note_on_c, 14, 45, 0
15, 27120, Note_on_c, 14, 46, 126
15, 27179, Note_on_c, 14, 46, 0
15, 27180, Note_on_c, 14, 45, 126
15, 27239, Note_on_c, 14, 45, 0
15, 27240, Note_on_c, 14, 46, 125
15, 27299, Note_on_c, 14, 46, 0
15, 27300, Note_on_c, 14, 43, 125
15, 27359, Note_on_c, 14, 43, 0
15, 27360, Note_on_c, 14, 41, 125
15, 27479, Note_on_c, 14, 41, 0
15, 27900, Note_on_c, 14, 41, 125
15, 27959, Note_on_c, 14, 41, 0
15, 27960, Note_on_c, 14, 43, 125
15, 28019, Note_on_c, 14, 43, 0
15, 28020, Note_on_c, 14, 45, 125
15, 28079, Note_on_c, 14, 45, 0
15, 28080, Note_on_c, 14, 46, 125
15, 28139, Note_on_c, 14, 46, 0
15, 28140, Note_on_c, 14, 45, 125
15, 28199, Note_on_c, 14, 45, 0
15, 28200, Note_on_c, 14, 46, 125
15, 28259, Note_on_c, 14, 46, 0
15, 28260, Note_on_c, 14, 43, 125
15, 28319, Note_on_c, 14, 43, 0
15, 28320, Note_on_c, 14, 42, 125
15, 28379, Note_on_c, 14, 42, 0
15, 28380, Note_on_c, 14, 42, 71
15, 28439, Note_on_c, 14, 42, 0
15, 28440, Note_on_c, 14, 42, 71
15, 28499, Note_on_c, 14, 42, 0
15, 28500, Note_on_c, 14, 42, 71
15, 28559, Note_on_c, 14, 42, 0
15, 28560, Note_on_c, 14, 42, 71
15, 28619, Note_on_c, 14, 42, 0
15, 28620, Note_on_c, 14, 42, 70
15, 28679, Note_on_c, 14, 42, 0
15, 28680, Note_on_c, 14, 42, 70
15, 28739, Note_on_c, 14, 42, 0
15, 28740, Note_on_c, 14, 42, 71
15, 28799, Note_on_c, 14, 42, 0
15, 28800, Note_on_c, 14, 42, 70
15, 28859, Note_on_c, 14, 42, 0
15, 28860, Note_on_c, 14, 42, 70
15, 28919, Note_on_c, 14, 42, 0
15, 28920, Note_on_c, 14, 42, 69
15, 28979, Note_on_c, 14, 42, 0
15, 28980, Note_on_c, 14, 42, 68
15, 29039, Note_on_c, 14, 42, 0
15, 29040, Note_on_c, 14, 42, 70
15, 29099, Note_on_c, 14, 42, 0
15, 29100, Note_on_c, 14, 42, 70
15, 29159, Note_on_c, 14, 42, 0
15, 29160, Note_on_c, 14, 42, 70
15, 29219, Note_on_c, 14, 42, 0
15, 29220, Note_on_c, 14, 42, 71
15, 29279, Note_on_c, 14, 42, 0
15, 29280, Note_on_c, 14, 43, 71
15, 29399, Note_on_c, 14, 43, 0
15, 29820, Note_on_c, 14, 43, 127
15, 29879, Note_on_c, 14, 43, 0
15, 29880, Note_on_c, 14, 45, 127
15, 29939, Note_on_c, 14, 45, 0
15, 29940, Note_on_c, 14, 46, 127
15, 29999, Note_on_c, 14, 46, 0
15, 30000, Note_on_c, 14, 48, 126
15, 30059, Note_on_c, 14, 48, 0
15, 30060, Note_on_c, 14, 46, 126
15, 30119, Note_on_c, 14, 46, 0
15, 30120, Note_on_c, 14, 48, 125
15, 30179, Note_on_c, 14, 48, 0
15, 30180, Note_on_c, 14, 45, 125
15, 30239, Note_on_c, 14, 45, 0
15, 30240, Note_on_c, 14, 43, 126
15, 30359, Note_on_c, 14, 43, 0
15, 30780, Note_on_c, 14, 43, 124
15, 30839, Note_on_c, 14, 43, 0
15, 30840, Note_on_c, 14, 45, 125
15, 30899, Note_on_c, 14, 45, 0
15, 30900, Note_on_c, 14, 46, 125
15, 30959, Note_on_c, 14, 46, 0
15, 30960, Note_on_c, 14, 48, 125
15, 31019, Note_on_c, 14, 48, 0
15, 31020, Note_on_c, 14, 46, 125
15, 31079, Note_on_c, 14, 46, 0
15, 31080, Note_on_c, 14, 48, 125
15, 31139, Note_on_c, 14, 48, 0
15, 31140, Note_on_c, 14, 45, 125
15, 31199, Note_on_c, 14, 45, 0
15, 31200, Note_on_c, 14, 44, 124
15, 31259, Note_on_c, 14, 44, 0
15, 31260, Note_on_c, 14, 44, 73
15, 31319, Note_on_c, 14, 44, 0
15, 31320, Note_on_c, 14, 44, 73
15, 31379, Note_on_c, 14, 44, 0
15, 31380, Note_on_c, 14, 44, 73
15, 31439, Note_on_c, 14, 44, 0
15, 31440, Note_on_c, 14, 44, 73
15, 31499, Note_on_c, 14, 44, 0
15, 31500, Note_on_c, 14, 44, 73
15, 31559, Note_on_c, 14, 44, 0
15, 31560, Note_on_c, 14, 44, 74
15, 31619, Note_on_c, 14, 44, 0
15, 31620, Note_on_c, 14, 44, 75
15, 31679, Note_on_c, 14, 44, 0
15, 31680, Note_on_c, 14, 44, 75
15, 31739, Note_on_c, 14, 44, 0
15, 31740, Note_on_c, 14, 44, 75
15, 31799, Note_on_c, 14, 44, 0
15, 31800, Note_on_c, 14, 44, 74
15, 31859, Note_on_c, 14, 44, 0
15, 31860, Note_on_c, 14, 44, 73
15, 31919, Note_on_c, 14, 44, 0
15, 31920, Note_on_c, 14, 44, 73
15, 31979, Note_on_c, 14, 44, 0
15, 31980, Note_on_c, 14, 44, 73
15, 32039, Note_on_c, 14, 44, 0
15, 32040, Note_on_c, 14, 44, 73
15, 32099, Note_on_c, 14, 44, 0
15, 32100, Note_on_c, 14, 44, 74
15, 32159, Note_on_c, 14, 44, 0
15, 32160, Note_on_c, 14, 45, 75
15, 32219, Note_on_c, 14, 45, 0
15, 32220, Note_on_c, 14, 45, 75
15, 32279, Note_on_c, 14, 45, 0
15, 32280, Note_on_c, 14, 49, 100
15, 32339, Note_on_c, 14, 49, 0
15, 32340, Note_on_c, 14, 45, 100
15, 32399, Note_on_c, 14, 45, 0
15, 32400, Note_on_c, 14, 40, 99
15, 32459, Note_on_c, 14, 40, 0
15, 32460, Note_on_c, 14, 45, 99
15, 32519, Note_on_c, 14, 45, 0
15, 32520, Note_on_c, 14, 37, 99
15, 32579, Note_on_c, 14, 37, 0
15, 32580, Note_on_c, 14, 40, 99
15, 32639, Note_on_c, 14, 40, 0
15, 32640, Note_on_c, 14, 33, 100
15, 32759, Note_on_c, 14, 33, 0
15, 33120, Note_on_c, 14, 45, 100
15, 33239, Note_on_c, 14, 45, 0
15, 33600, Note_on_c, 14, 33, 71
15, 33719, Note_on_c, 14, 33, 0
15, 34080, Note_on_c, 14, 45, 72
15, 34199, Note_on_c, 14, 45, 0
15, 34560, Note_on_c, 14, 33, 72
15, 34679, Note_on_c, 14, 33, 0
15, 35040, Note_on_c, 14, 38, 72
15, 35159, Note_on_c, 14, 38, 0
15, 35280, Note_on_c, 14, 50, 73
15, 35339, Note_on_c, 14, 50, 0
15, 35400, Note_on_c, 14, 50, 73
15, 35459, Note_on_c, 14, 50, 0
15, 35520, Note_on_c, 14, 50, 73
15, 35639, Note_on_c, 14, 50, 0
15, 35760, Note_on_c, 14, 50, 70
15, 35819, Note_on_c, 14, 50, 0
15, 35880, Note_on_c, 14, 50, 69
15, 35939, Note_on_c, 14, 50, 0
15, 36000, Note_on_c, 14, 50, 70
15, 36119, Note_on_c, 14, 50, 0
15, 36240, Note_on_c, 14, 50, 70
15, 36299, Note_on_c, 14, 50, 0
15, 36360, Note_on_c, 14, 50, 69
15, 36419, Note_on_c, 14, 50, 0
15, 36480, Note_on_c, 14, 50, 69
15, 36599, Note_on_c, 14, 50, 0
15, 36720, Note_on_c, 14, 50, 72
15, 36779, Note_on_c, 14, 50, 0
15, 36840, Note_on_c, 14, 50, 72
15, 36899, Note_on_c, 14, 50, 0
15, 36960, Note_on_c, 14, 50, 72
15, 37079, Note_on_c, 14, 50, 0
15, 37320, Note_on_c, 14, 53, 70
15, 37379, Note_on_c, 14, 53, 0
15, 37440, Note_on_c, 14, 55, 72
15, 37499, Note_on_c, 14, 55, 0
15, 37560, Note_on_c, 14, 52, 72
15, 37619, Note_on_c, 14, 52, 0
15, 37680, Note_on_c, 14, 53, 70
15, 37739, Note_on_c, 14, 53, 0
15, 37800, Note_on_c, 14, 50, 70
15, 37859, Note_on_c, 14, 50, 0
15, 37920, Note_on_c, 14, 52, 70
15, 37979, Note_on_c, 14, 52, 0
15, 38040, Note_on_c, 14, 49, 72
15, 38099, Note_on_c, 14, 49, 0
15, 38160, Note_on_c, 14, 50, 72
15, 38279, Note_on_c, 14, 50, 0
15, 38400, Note_on_c, 14, 43, 67
15, 38459, Note_on_c, 14, 43, 0
15, 38460, Note_on_c, 14, 43, 67
15, 38519, Note_on_c, 14, 43, 0
15, 38520, Note_on_c, 14, 43, 68
15, 38579, Note_on_c, 14, 43, 0
15, 38580, Note_on_c, 14, 43, 68
15, 38639, Note_on_c, 14, 43, 0
15, 38640, Note_on_c, 14, 43, 68
15, 38699, Note_on_c, 14, 43, 0
15, 38700, Note_on_c, 14, 43, 69
15, 38759, Note_on_c, 14, 43, 0
15, 38760, Note_on_c, 14, 43, 70
15, 38819, Note_on_c, 14, 43, 0
15, 38820, Note_on_c, 14, 43, 70
15, 38879, Note_on_c, 14, 43, 0
15, 38880, Note_on_c, 14, 43, 70
15, 38939, Note_on_c, 14, 43, 0
15, 38940, Note_on_c, 14, 43, 70
15, 38999, Note_on_c, 14, 43, 0
15, 39000, Note_on_c, 14, 43, 78
15, 39059, Note_on_c, 14, 43, 0
15, 39060, Note_on_c, 14, 43, 84
15, 39119, Note_on_c, 14, 43, 0
15, 39120, Note_on_c, 14, 43, 89
15, 39179, Note_on_c, 14, 43, 0
15, 39180, Note_on_c, 14, 43, 97
15, 39239, Note_on_c, 14, 43, 0
15, 39240, Note_on_c, 14, 44, 105
15, 39299, Note_on_c, 14, 44, 0
15, 39300, Note_on_c, 14, 44, 110
15, 39359, Note_on_c, 14, 44, 0
15, 39360, Note_on_c, 14, 45, 118
15, 39479, Note_on_c, 14, 45, 0
15, 39480, Note_on_c, 14, 45, 127
15, 39599, Note_on_c, 14, 45, 0
15, 39600, Note_on_c, 14, 33, 127
15, 39719, Note_on_c, 14, 33, 0
15, 39960, Note_on_c, 14, 45, 125
15, 40079, Note_on_c, 14, 45, 0
15, 40080, Note_on_c, 14, 33, 125
15, 40199, Note_on_c, 14, 33, 0
15, 40440, Note_on_c, 14, 45, 125
15, 40559, Note_on_c, 14, 45, 0
15, 40560, Note_on_c, 14, 33, 125
15, 40679, Note_on_c, 14, 33, 0
15, 41400, Note_on_c, 14, 43, 125
15, 41519, Note_on_c, 14, 43, 0
15, 41520, Note_on_c, 14, 40, 125
15, 41639, Note_on_c, 14, 40, 0
15, 41640, Note_on_c, 14, 38, 125
15, 41759, Note_on_c, 14, 38, 0
15, 41760, Note_on_c, 14, 37, 125
15, 41879, Note_on_c, 14, 37, 0
15, 42420, Note_on_c, 14, 33, 101
15, 42439, Note_on_c, 14, 33, 0
15, 42440, Note_on_c, 14, 35, 105
15, 42459, Note_on_c, 14, 35, 0
15, 42460, Note_on_c, 14, 37, 112
15, 42479, Note_on_c, 14, 37, 0
15, 42480, Note_on_c, 14, 38, 126
15, 42719, Note_on_c, 14, 38, 0
15, 42900, Note_on_c, 14, 37, 103
15, 42919, Note_on_c, 14, 37, 0
15, 42920, Note_on_c, 14, 38, 110
15, 42939, Note_on_c, 14, 38, 0
15, 42940, Note_on_c, 14, 40, 115
15, 42959, Note_on_c, 14, 40, 0
15, 42960, Note_on_c, 14, 41, 125
15, 43199, Note_on_c, 14, 41, 0
15, 43440, Note_on_c, 14, 44, 91
15, 43679, Note_on_c, 14, 44, 0
15, 43680, Note_on_c, 14, 43, 91
15, 43739, Note_on_c, 14, 43, 0
15, 43740, Note_on_c, 14, 43, 91
15, 43799, Note_on_c, 14, 43, 0
15, 43800, Note_on_c, 14, 44, 92
15, 43859, Note_on_c, 14, 44, 0
15, 43860, Note_on_c, 14, 44, 92
15, 43919, Note_on_c, 14, 44, 0
15, 43920, Note_on_c, 14, 43, 92
15, 43979, Note_on_c, 14, 43, 0
15, 43980, Note_on_c, 14, 43, 92
15, 44039, Note_on_c, 14, 43, 0
15, 44040, Note_on_c, 14, 44, 92
15, 44099, Note_on_c, 14, 44, 0
15, 44100, Note_on_c, 14, 44, 92
15, 44159, Note_on_c, 14, 44, 0
15, 44160, Note_on_c, 14, 43, 92
15, 44279, Note_on_c, 14, 43, 0
15, 44850, Note_on_c, 14, 43, 92
15, 44879, Note_on_c, 14, 43, 0
15, 44880, Note_on_c, 14, 43, 93
15, 44999, Note_on_c, 14, 43, 0
15, 45090, Note_on_c, 14, 44, 92
15, 45119, Note_on_c, 14, 44, 0
15, 45120, Note_on_c, 14, 44, 92
15, 45359, Note_on_c, 14, 44, 0
15, 46320, Note_on_c, 14, 45, 91
15, 46559, Note_on_c, 14, 45, 0
15, 46560, Note_on_c, 14, 46, 90
15, 46919, Note_on_c, 14, 46, 0
15, 46920, Note_on_c, 14, 47, 112
15, 47039, Note_on_c, 14, 47, 0
15, 47040, Note_on_c, 14, 45, 126
15, 47159, Note_on_c, 14, 45, 0
15, 47280, Note_on_c, 14, 45, 127
15, 47399, Note_on_c, 14, 45, 0
15, 47520, Note_on_c, 14, 38, 127
15, 47759, Note_on_c, 14, 38, 0
15, 47759, End_track
16, 0, Start_track
16, 0, MIDI_port, 0
16, 0, Title_t, "SFX : Tonnerre"
16, 167, Program_c, 9, 56
16, 168, Control_c, 9, 7, 127
16, 168, Control_c, 9, 10, 64
16, 343, Control_c, 9, 11, 127
16, 344, Control_c, 9, 91, 100
16, 345, Control_c, 9, 93, 50
16, 48000, Note_on_c, 9, 80, 127
16, 49439, Note_on_c, 9, 80, 0
16, 49439, End_track
17, 0, Start_track
17, 0, MIDI_port, 0
17, 0, Title_t, "Sequenced with Cakewalk 5.0"
17, 0, End_track
18, 0, Start_track
18, 0, MIDI_port, 0
18, 0, Title_t, "Optimised for Roland SCB 55"
18, 0, End_track
19, 0, Start_track
19, 0, MIDI_port, 0
19, 0, Title_t, "Eric Stéphan (05/95) rev. 2.1"
19, 0, End_track
20, 0, Start_track
20, 0, MIDI_port, 0
20, 0, Title_t, "eric.stephan@wanadoo.fr"
20, 0, End_track
0, 0, End_of_file
