0, 0, Header, 1, 15, 240
1, 0, Start_track
1, 0, MIDI_port, 0
1, 0, System_exclusive, 5, 126, 127, 9, 1, 247
1, 0, MIDI_port, 0
1, 0, Time_signature, 4, 2, 24, 8
1, 0, Key_signature, 0, "major"
1, 0, Tempo, 284360
1, 0, Marker_t, "Symphony No. 40  ""Allegro molto"" by Wolfgang Amadeus Mozart"
1, 30720, Marker_t, "Sequenced by Jason M. Stone"
1, 40320, Tempo, 315789
1, 41280, Tempo, 284360
1, 95040, Tempo, 315789
1, 96960, Tempo, 284360
1, 192960, Tempo, 315789
1, 193920, Tempo, 284360
1, 312000, Tempo, 300000
1, 312960, Tempo, 284360
1, 382080, Tempo, 315789
1, 382560, Tempo, 389610
1, 383040, Tempo, 540541
1, 383040, End_track
2, 0, Start_track
2, 0, MIDI_port, 0
2, 0, Title_t, "Flauto."
2, 0, Program_c, 8, 73
2, 60, Control_c, 8, 91, 127
2, 130, Control_c, 8, 10, 84
2, 13680, Note_on_c, 8, 78, 75
2, 13920, Note_on_c, 8, 78, 0
2, 13920, Note_on_c, 8, 79, 75
2, 14160, Note_on_c, 8, 79, 0
2, 14160, Note_on_c, 8, 81, 75
2, 14400, Note_on_c, 8, 81, 0
2, 14400, Note_on_c, 8, 82, 75
2, 14640, Note_on_c, 8, 82, 0
2, 14640, Note_on_c, 8, 84, 75
2, 14760, Note_on_c, 8, 84, 0
2, 14760, Note_on_c, 8, 82, 75
2, 14880, Note_on_c, 8, 82, 0
2, 14880, Note_on_c, 8, 81, 75
2, 15120, Note_on_c, 8, 81, 0
2, 15120, Note_on_c, 8, 79, 75
2, 15360, Note_on_c, 8, 79, 0
2, 15360, Note_on_c, 8, 78, 75
2, 15552, Note_on_c, 8, 78, 0
2, 15840, Note_on_c, 8, 85, 80
2, 16320, Note_on_c, 8, 85, 0
2, 16320, Note_on_c, 8, 86, 80
2, 16560, Note_on_c, 8, 86, 0
2, 16800, Note_on_c, 8, 85, 80
2, 17280, Note_on_c, 8, 85, 0
2, 17280, Note_on_c, 8, 86, 80
2, 17520, Note_on_c, 8, 86, 0
2, 17760, Note_on_c, 8, 85, 80
2, 18240, Note_on_c, 8, 85, 0
2, 18240, Note_on_c, 8, 86, 75
2, 18384, Note_on_c, 8, 86, 0
2, 18480, Note_on_c, 8, 85, 68
2, 18624, Note_on_c, 8, 85, 0
2, 18720, Note_on_c, 8, 86, 60
2, 18864, Note_on_c, 8, 86, 0
2, 18960, Note_on_c, 8, 85, 53
2, 19104, Note_on_c, 8, 85, 0
2, 19200, Note_on_c, 8, 86, 53
2, 19584, Note_on_c, 8, 86, 0
2, 26880, Note_on_c, 8, 82, 80
2, 27840, Note_on_c, 8, 82, 0
2, 27840, Note_on_c, 8, 89, 80
2, 28800, Note_on_c, 8, 89, 0
2, 28800, Note_on_c, 8, 87, 80
2, 29760, Note_on_c, 8, 87, 0
2, 29760, Note_on_c, 8, 86, 80
2, 30720, Note_on_c, 8, 86, 0
2, 30720, Note_on_c, 8, 84, 80
2, 31680, Note_on_c, 8, 84, 0
2, 31680, Note_on_c, 8, 82, 80
2, 32640, Note_on_c, 8, 82, 0
2, 32640, Note_on_c, 8, 88, 80
2, 33480, Note_on_c, 8, 88, 0
2, 33480, Note_on_c, 8, 89, 80
2, 33576, Note_on_c, 8, 89, 0
2, 33600, Note_on_c, 8, 88, 80
2, 34440, Note_on_c, 8, 88, 0
2, 34440, Note_on_c, 8, 89, 80
2, 34536, Note_on_c, 8, 89, 0
2, 34560, Note_on_c, 8, 88, 80
2, 35400, Note_on_c, 8, 88, 0
2, 35400, Note_on_c, 8, 89, 80
2, 35496, Note_on_c, 8, 89, 0
2, 35520, Note_on_c, 8, 88, 80
2, 36480, Note_on_c, 8, 88, 0
2, 36480, Note_on_c, 8, 89, 80
2, 36960, Note_on_c, 8, 89, 0
2, 36960, Note_on_c, 8, 87, 80
2, 37440, Note_on_c, 8, 87, 0
2, 37440, Note_on_c, 8, 85, 80
2, 37920, Note_on_c, 8, 85, 0
2, 37920, Note_on_c, 8, 88, 80
2, 38400, Note_on_c, 8, 88, 0
2, 38400, Note_on_c, 8, 89, 80
2, 38880, Note_on_c, 8, 89, 0
2, 38880, Note_on_c, 8, 87, 80
2, 39360, Note_on_c, 8, 87, 0
2, 39360, Note_on_c, 8, 85, 80
2, 39840, Note_on_c, 8, 85, 0
2, 39840, Note_on_c, 8, 88, 80
2, 40320, Note_on_c, 8, 88, 0
2, 40320, Note_on_c, 8, 89, 80
2, 40560, Note_on_c, 8, 89, 0
2, 40800, Note_on_c, 8, 77, 56
2, 41040, Note_on_c, 8, 77, 0
2, 49920, Note_on_c, 8, 89, 64
2, 50640, Note_on_c, 8, 89, 0
2, 50640, Note_on_c, 8, 88, 64
2, 50880, Note_on_c, 8, 88, 0
2, 50880, Note_on_c, 8, 87, 64
2, 51240, Note_on_c, 8, 87, 0
2, 52080, Note_on_c, 8, 82, 64
2, 52224, Note_on_c, 8, 82, 0
2, 52320, Note_on_c, 8, 82, 64
2, 52560, Note_on_c, 8, 82, 0
2, 52560, Note_on_c, 8, 84, 64
2, 52800, Note_on_c, 8, 84, 0
2, 52800, Note_on_c, 8, 86, 64
2, 53160, Note_on_c, 8, 86, 0
2, 53160, Note_on_c, 8, 87, 64
2, 53280, Note_on_c, 8, 87, 0
2, 53280, Note_on_c, 8, 84, 64
2, 53520, Note_on_c, 8, 84, 0
2, 55920, Note_on_c, 8, 79, 80
2, 56400, Note_on_c, 8, 79, 0
2, 56400, Note_on_c, 8, 80, 80
2, 56640, Note_on_c, 8, 80, 0
2, 56880, Note_on_c, 8, 79, 80
2, 57360, Note_on_c, 8, 79, 0
2, 57360, Note_on_c, 8, 80, 80
2, 57600, Note_on_c, 8, 80, 0
2, 57840, Note_on_c, 8, 79, 80
2, 58320, Note_on_c, 8, 79, 0
2, 58320, Note_on_c, 8, 80, 80
2, 58560, Note_on_c, 8, 80, 0
2, 58800, Note_on_c, 8, 79, 80
2, 59280, Note_on_c, 8, 79, 0
2, 59280, Note_on_c, 8, 80, 80
2, 59520, Note_on_c, 8, 80, 0
2, 59520, Note_on_c, 8, 82, 80
2, 60480, Note_on_c, 8, 82, 0
2, 60480, Note_on_c, 8, 91, 80
2, 61440, Note_on_c, 8, 91, 0
2, 61440, Note_on_c, 8, 89, 80
2, 62400, Note_on_c, 8, 89, 0
2, 62400, Note_on_c, 8, 84, 80
2, 62460, Note_on_c, 8, 84, 0
2, 62460, Note_on_c, 8, 86, 80
2, 62520, Note_on_c, 8, 86, 0
2, 62520, Note_on_c, 8, 84, 80
2, 62580, Note_on_c, 8, 84, 0
2, 62580, Note_on_c, 8, 86, 80
2, 62640, Note_on_c, 8, 86, 0
2, 62640, Note_on_c, 8, 84, 80
2, 62700, Note_on_c, 8, 84, 0
2, 62700, Note_on_c, 8, 86, 80
2, 62760, Note_on_c, 8, 86, 0
2, 62760, Note_on_c, 8, 84, 80
2, 62820, Note_on_c, 8, 84, 0
2, 62820, Note_on_c, 8, 86, 80
2, 62880, Note_on_c, 8, 86, 0
2, 62880, Note_on_c, 8, 84, 80
2, 62940, Note_on_c, 8, 84, 0
2, 62940, Note_on_c, 8, 86, 80
2, 63000, Note_on_c, 8, 86, 0
2, 63000, Note_on_c, 8, 84, 80
2, 63060, Note_on_c, 8, 84, 0
2, 63060, Note_on_c, 8, 86, 80
2, 63120, Note_on_c, 8, 86, 0
2, 63120, Note_on_c, 8, 84, 80
2, 63180, Note_on_c, 8, 84, 0
2, 63180, Note_on_c, 8, 86, 80
2, 63240, Note_on_c, 8, 86, 0
2, 63240, Note_on_c, 8, 82, 80
2, 63300, Note_on_c, 8, 82, 0
2, 63300, Note_on_c, 8, 84, 80
2, 63360, Note_on_c, 8, 84, 0
2, 63360, Note_on_c, 8, 82, 80
2, 63552, Note_on_c, 8, 82, 0
2, 66240, Note_on_c, 8, 84, 80
2, 66480, Note_on_c, 8, 84, 0
2, 66720, Note_on_c, 8, 86, 80
2, 66960, Note_on_c, 8, 86, 0
2, 67200, Note_on_c, 8, 91, 80
2, 67776, Note_on_c, 8, 91, 0
2, 67800, Note_on_c, 8, 89, 64
2, 67890, Note_on_c, 8, 89, 0
2, 67920, Note_on_c, 8, 87, 64
2, 68010, Note_on_c, 8, 87, 0
2, 68040, Note_on_c, 8, 86, 64
2, 68130, Note_on_c, 8, 86, 0
2, 68160, Note_on_c, 8, 84, 64
2, 68250, Note_on_c, 8, 84, 0
2, 68280, Note_on_c, 8, 82, 64
2, 68370, Note_on_c, 8, 82, 0
2, 68400, Note_on_c, 8, 81, 64
2, 68490, Note_on_c, 8, 81, 0
2, 68520, Note_on_c, 8, 79, 64
2, 68610, Note_on_c, 8, 79, 0
2, 68640, Note_on_c, 8, 77, 64
2, 68730, Note_on_c, 8, 77, 0
2, 68760, Note_on_c, 8, 75, 64
2, 68850, Note_on_c, 8, 75, 0
2, 68880, Note_on_c, 8, 74, 64
2, 68970, Note_on_c, 8, 74, 0
2, 69000, Note_on_c, 8, 72, 64
2, 69090, Note_on_c, 8, 72, 0
2, 69120, Note_on_c, 8, 70, 80
2, 69360, Note_on_c, 8, 70, 0
2, 73920, Note_on_c, 8, 90, 80
2, 74688, Note_on_c, 8, 90, 0
2, 74880, Note_on_c, 8, 91, 80
2, 75720, Note_on_c, 8, 91, 0
2, 75720, Note_on_c, 8, 87, 80
2, 75816, Note_on_c, 8, 87, 0
2, 81600, Note_on_c, 8, 90, 80
2, 82560, Note_on_c, 8, 90, 0
2, 82560, Note_on_c, 8, 91, 80
2, 83400, Note_on_c, 8, 91, 0
2, 83400, Note_on_c, 8, 87, 80
2, 83520, Note_on_c, 8, 87, 0
2, 83520, Note_on_c, 8, 86, 80
2, 84000, Note_on_c, 8, 86, 0
2, 84000, Note_on_c, 8, 84, 80
2, 84480, Note_on_c, 8, 84, 0
2, 84480, Note_on_c, 8, 82, 80
2, 84864, Note_on_c, 8, 82, 0
2, 85320, Note_on_c, 8, 89, 80
2, 85416, Note_on_c, 8, 89, 0
2, 85440, Note_on_c, 8, 87, 80
2, 85536, Note_on_c, 8, 87, 0
2, 85560, Note_on_c, 8, 86, 80
2, 85656, Note_on_c, 8, 86, 0
2, 85680, Note_on_c, 8, 84, 80
2, 85776, Note_on_c, 8, 84, 0
2, 85800, Note_on_c, 8, 82, 80
2, 85896, Note_on_c, 8, 82, 0
2, 85920, Note_on_c, 8, 81, 80
2, 86016, Note_on_c, 8, 81, 0
2, 86040, Note_on_c, 8, 79, 80
2, 86136, Note_on_c, 8, 79, 0
2, 86160, Note_on_c, 8, 77, 80
2, 86256, Note_on_c, 8, 77, 0
2, 86280, Note_on_c, 8, 75, 80
2, 86376, Note_on_c, 8, 75, 0
2, 86400, Note_on_c, 8, 74, 80
2, 86544, Note_on_c, 8, 74, 0
2, 86640, Note_on_c, 8, 77, 80
2, 86784, Note_on_c, 8, 77, 0
2, 86880, Note_on_c, 8, 79, 80
2, 87024, Note_on_c, 8, 79, 0
2, 87120, Note_on_c, 8, 81, 80
2, 87264, Note_on_c, 8, 81, 0
2, 87360, Note_on_c, 8, 82, 80
2, 87456, Note_on_c, 8, 82, 0
2, 87480, Note_on_c, 8, 77, 80
2, 87576, Note_on_c, 8, 77, 0
2, 87600, Note_on_c, 8, 86, 80
2, 87696, Note_on_c, 8, 86, 0
2, 87720, Note_on_c, 8, 84, 80
2, 87816, Note_on_c, 8, 84, 0
2, 87840, Note_on_c, 8, 82, 80
2, 87936, Note_on_c, 8, 82, 0
2, 87960, Note_on_c, 8, 81, 80
2, 88056, Note_on_c, 8, 81, 0
2, 88080, Note_on_c, 8, 79, 80
2, 88176, Note_on_c, 8, 79, 0
2, 88200, Note_on_c, 8, 77, 80
2, 88296, Note_on_c, 8, 77, 0
2, 88320, Note_on_c, 8, 87, 80
2, 88416, Note_on_c, 8, 87, 0
2, 88440, Note_on_c, 8, 86, 80
2, 88536, Note_on_c, 8, 86, 0
2, 88560, Note_on_c, 8, 84, 80
2, 88656, Note_on_c, 8, 84, 0
2, 88680, Note_on_c, 8, 82, 80
2, 88776, Note_on_c, 8, 82, 0
2, 88800, Note_on_c, 8, 81, 80
2, 88896, Note_on_c, 8, 81, 0
2, 88920, Note_on_c, 8, 84, 80
2, 89016, Note_on_c, 8, 84, 0
2, 89040, Note_on_c, 8, 89, 80
2, 89136, Note_on_c, 8, 89, 0
2, 89160, Note_on_c, 8, 87, 80
2, 89256, Note_on_c, 8, 87, 0
2, 89280, Note_on_c, 8, 86, 80
2, 89472, Note_on_c, 8, 86, 0
2, 90000, Note_on_c, 8, 87, 80
2, 90192, Note_on_c, 8, 87, 0
2, 90240, Note_on_c, 8, 86, 80
2, 90432, Note_on_c, 8, 86, 0
2, 90480, Note_on_c, 8, 91, 80
2, 90672, Note_on_c, 8, 91, 0
2, 90720, Note_on_c, 8, 89, 80
2, 90912, Note_on_c, 8, 89, 0
2, 90960, Note_on_c, 8, 81, 80
2, 91152, Note_on_c, 8, 81, 0
2, 91200, Note_on_c, 8, 82, 80
2, 91392, Note_on_c, 8, 82, 0
2, 91440, Note_on_c, 8, 82, 80
2, 91536, Note_on_c, 8, 82, 0
2, 91560, Note_on_c, 8, 82, 80
2, 91656, Note_on_c, 8, 82, 0
2, 91680, Note_on_c, 8, 81, 80
2, 91872, Note_on_c, 8, 81, 0
2, 91920, Note_on_c, 8, 81, 80
2, 92016, Note_on_c, 8, 81, 0
2, 92040, Note_on_c, 8, 81, 80
2, 92136, Note_on_c, 8, 81, 0
2, 92160, Note_on_c, 8, 82, 80
2, 92352, Note_on_c, 8, 82, 0
2, 92400, Note_on_c, 8, 82, 80
2, 92496, Note_on_c, 8, 82, 0
2, 92520, Note_on_c, 8, 82, 80
2, 92616, Note_on_c, 8, 82, 0
2, 92640, Note_on_c, 8, 81, 80
2, 92832, Note_on_c, 8, 81, 0
2, 92880, Note_on_c, 8, 81, 80
2, 92976, Note_on_c, 8, 81, 0
2, 93000, Note_on_c, 8, 81, 80
2, 93096, Note_on_c, 8, 81, 0
2, 93120, Note_on_c, 8, 82, 80
2, 93312, Note_on_c, 8, 82, 0
2, 93360, Note_on_c, 8, 82, 80
2, 93456, Note_on_c, 8, 82, 0
2, 93480, Note_on_c, 8, 82, 80
2, 93576, Note_on_c, 8, 82, 0
2, 93600, Note_on_c, 8, 81, 80
2, 93792, Note_on_c, 8, 81, 0
2, 93840, Note_on_c, 8, 81, 80
2, 93936, Note_on_c, 8, 81, 0
2, 93960, Note_on_c, 8, 81, 80
2, 94056, Note_on_c, 8, 81, 0
2, 94080, Note_on_c, 8, 82, 80
2, 94272, Note_on_c, 8, 82, 0
2, 94320, Note_on_c, 8, 81, 80
2, 94512, Note_on_c, 8, 81, 0
2, 94560, Note_on_c, 8, 82, 80
2, 94752, Note_on_c, 8, 82, 0
2, 94800, Note_on_c, 8, 81, 80
2, 94992, Note_on_c, 8, 81, 0
2, 95040, Note_on_c, 8, 82, 80
2, 95328, Note_on_c, 8, 82, 0
2, 96000, Note_on_c, 8, 78, 80
2, 96288, Note_on_c, 8, 78, 0
2, 109680, Note_on_c, 8, 78, 75
2, 109920, Note_on_c, 8, 78, 0
2, 109920, Note_on_c, 8, 79, 75
2, 110160, Note_on_c, 8, 79, 0
2, 110160, Note_on_c, 8, 81, 75
2, 110400, Note_on_c, 8, 81, 0
2, 110400, Note_on_c, 8, 82, 75
2, 110640, Note_on_c, 8, 82, 0
2, 110640, Note_on_c, 8, 84, 75
2, 110760, Note_on_c, 8, 84, 0
2, 110760, Note_on_c, 8, 82, 75
2, 110880, Note_on_c, 8, 82, 0
2, 110880, Note_on_c, 8, 81, 75
2, 111120, Note_on_c, 8, 81, 0
2, 111120, Note_on_c, 8, 79, 75
2, 111360, Note_on_c, 8, 79, 0
2, 111360, Note_on_c, 8, 78, 75
2, 111552, Note_on_c, 8, 78, 0
2, 111840, Note_on_c, 8, 85, 80
2, 112320, Note_on_c, 8, 85, 0
2, 112320, Note_on_c, 8, 86, 80
2, 112560, Note_on_c, 8, 86, 0
2, 112800, Note_on_c, 8, 85, 80
2, 113280, Note_on_c, 8, 85, 0
2, 113280, Note_on_c, 8, 86, 80
2, 113520, Note_on_c, 8, 86, 0
2, 113760, Note_on_c, 8, 85, 80
2, 114240, Note_on_c, 8, 85, 0
2, 114240, Note_on_c, 8, 86, 75
2, 114384, Note_on_c, 8, 86, 0
2, 114480, Note_on_c, 8, 85, 68
2, 114624, Note_on_c, 8, 85, 0
2, 114720, Note_on_c, 8, 86, 60
2, 114864, Note_on_c, 8, 86, 0
2, 114960, Note_on_c, 8, 85, 53
2, 115104, Note_on_c, 8, 85, 0
2, 115200, Note_on_c, 8, 86, 53
2, 115584, Note_on_c, 8, 86, 0
2, 122880, Note_on_c, 8, 82, 80
2, 123840, Note_on_c, 8, 82, 0
2, 123840, Note_on_c, 8, 89, 80
2, 124800, Note_on_c, 8, 89, 0
2, 124800, Note_on_c, 8, 87, 80
2, 125760, Note_on_c, 8, 87, 0
2, 125760, Note_on_c, 8, 86, 80
2, 126720, Note_on_c, 8, 86, 0
2, 126720, Note_on_c, 8, 84, 80
2, 127680, Note_on_c, 8, 84, 0
2, 127680, Note_on_c, 8, 82, 80
2, 128640, Note_on_c, 8, 82, 0
2, 128640, Note_on_c, 8, 88, 80
2, 129480, Note_on_c, 8, 88, 0
2, 129480, Note_on_c, 8, 89, 80
2, 129576, Note_on_c, 8, 89, 0
2, 129600, Note_on_c, 8, 88, 80
2, 130440, Note_on_c, 8, 88, 0
2, 130440, Note_on_c, 8, 89, 80
2, 130536, Note_on_c, 8, 89, 0
2, 130560, Note_on_c, 8, 88, 80
2, 131400, Note_on_c, 8, 88, 0
2, 131400, Note_on_c, 8, 89, 80
2, 131496, Note_on_c, 8, 89, 0
2, 131520, Note_on_c, 8, 88, 80
2, 132480, Note_on_c, 8, 88, 0
2, 132480, Note_on_c, 8, 89, 80
2, 132960, Note_on_c, 8, 89, 0
2, 132960, Note_on_c, 8, 87, 80
2, 133440, Note_on_c, 8, 87, 0
2, 133440, Note_on_c, 8, 85, 80
2, 133920, Note_on_c, 8, 85, 0
2, 133920, Note_on_c, 8, 88, 80
2, 134400, Note_on_c, 8, 88, 0
2, 134400, Note_on_c, 8, 89, 80
2, 134880, Note_on_c, 8, 89, 0
2, 134880, Note_on_c, 8, 87, 80
2, 135360, Note_on_c, 8, 87, 0
2, 135360, Note_on_c, 8, 85, 80
2, 135840, Note_on_c, 8, 85, 0
2, 135840, Note_on_c, 8, 88, 80
2, 136320, Note_on_c, 8, 88, 0
2, 136320, Note_on_c, 8, 89, 80
2, 136560, Note_on_c, 8, 89, 0
2, 136800, Note_on_c, 8, 77, 56
2, 137040, Note_on_c, 8, 77, 0
2, 145920, Note_on_c, 8, 89, 64
2, 146640, Note_on_c, 8, 89, 0
2, 146640, Note_on_c, 8, 88, 64
2, 146880, Note_on_c, 8, 88, 0
2, 146880, Note_on_c, 8, 87, 64
2, 147240, Note_on_c, 8, 87, 0
2, 148080, Note_on_c, 8, 82, 64
2, 148224, Note_on_c, 8, 82, 0
2, 148320, Note_on_c, 8, 82, 64
2, 148560, Note_on_c, 8, 82, 0
2, 148560, Note_on_c, 8, 84, 64
2, 148800, Note_on_c, 8, 84, 0
2, 148800, Note_on_c, 8, 86, 64
2, 149160, Note_on_c, 8, 86, 0
2, 149160, Note_on_c, 8, 87, 64
2, 149280, Note_on_c, 8, 87, 0
2, 149280, Note_on_c, 8, 84, 64
2, 149520, Note_on_c, 8, 84, 0
2, 151920, Note_on_c, 8, 79, 80
2, 152400, Note_on_c, 8, 79, 0
2, 152400, Note_on_c, 8, 80, 80
2, 152640, Note_on_c, 8, 80, 0
2, 152880, Note_on_c, 8, 79, 80
2, 153360, Note_on_c, 8, 79, 0
2, 153360, Note_on_c, 8, 80, 80
2, 153600, Note_on_c, 8, 80, 0
2, 153840, Note_on_c, 8, 79, 80
2, 154320, Note_on_c, 8, 79, 0
2, 154320, Note_on_c, 8, 80, 80
2, 154560, Note_on_c, 8, 80, 0
2, 154800, Note_on_c, 8, 79, 80
2, 155280, Note_on_c, 8, 79, 0
2, 155280, Note_on_c, 8, 80, 80
2, 155520, Note_on_c, 8, 80, 0
2, 155520, Note_on_c, 8, 82, 80
2, 156480, Note_on_c, 8, 82, 0
2, 156480, Note_on_c, 8, 91, 80
2, 157440, Note_on_c, 8, 91, 0
2, 157440, Note_on_c, 8, 89, 80
2, 158400, Note_on_c, 8, 89, 0
2, 158400, Note_on_c, 8, 84, 80
2, 158460, Note_on_c, 8, 84, 0
2, 158460, Note_on_c, 8, 86, 80
2, 158520, Note_on_c, 8, 86, 0
2, 158520, Note_on_c, 8, 84, 80
2, 158580, Note_on_c, 8, 84, 0
2, 158580, Note_on_c, 8, 86, 80
2, 158640, Note_on_c, 8, 86, 0
2, 158640, Note_on_c, 8, 84, 80
2, 158700, Note_on_c, 8, 84, 0
2, 158700, Note_on_c, 8, 86, 80
2, 158760, Note_on_c, 8, 86, 0
2, 158760, Note_on_c, 8, 84, 80
2, 158820, Note_on_c, 8, 84, 0
2, 158820, Note_on_c, 8, 86, 80
2, 158880, Note_on_c, 8, 86, 0
2, 158880, Note_on_c, 8, 84, 80
2, 158940, Note_on_c, 8, 84, 0
2, 158940, Note_on_c, 8, 86, 80
2, 159000, Note_on_c, 8, 86, 0
2, 159000, Note_on_c, 8, 84, 80
2, 159060, Note_on_c, 8, 84, 0
2, 159060, Note_on_c, 8, 86, 80
2, 159120, Note_on_c, 8, 86, 0
2, 159120, Note_on_c, 8, 84, 80
2, 159180, Note_on_c, 8, 84, 0
2, 159180, Note_on_c, 8, 86, 80
2, 159240, Note_on_c, 8, 86, 0
2, 159240, Note_on_c, 8, 82, 80
2, 159300, Note_on_c, 8, 82, 0
2, 159300, Note_on_c, 8, 84, 80
2, 159360, Note_on_c, 8, 84, 0
2, 159360, Note_on_c, 8, 82, 80
2, 159552, Note_on_c, 8, 82, 0
2, 162240, Note_on_c, 8, 84, 80
2, 162480, Note_on_c, 8, 84, 0
2, 162720, Note_on_c, 8, 86, 80
2, 162960, Note_on_c, 8, 86, 0
2, 163200, Note_on_c, 8, 91, 80
2, 163776, Note_on_c, 8, 91, 0
2, 163800, Note_on_c, 8, 89, 64
2, 163890, Note_on_c, 8, 89, 0
2, 163920, Note_on_c, 8, 87, 64
2, 164010, Note_on_c, 8, 87, 0
2, 164040, Note_on_c, 8, 86, 64
2, 164130, Note_on_c, 8, 86, 0
2, 164160, Note_on_c, 8, 84, 64
2, 164250, Note_on_c, 8, 84, 0
2, 164280, Note_on_c, 8, 82, 64
2, 164370, Note_on_c, 8, 82, 0
2, 164400, Note_on_c, 8, 81, 64
2, 164490, Note_on_c, 8, 81, 0
2, 164520, Note_on_c, 8, 79, 64
2, 164610, Note_on_c, 8, 79, 0
2, 164640, Note_on_c, 8, 77, 64
2, 164730, Note_on_c, 8, 77, 0
2, 164760, Note_on_c, 8, 75, 64
2, 164850, Note_on_c, 8, 75, 0
2, 164880, Note_on_c, 8, 74, 64
2, 164970, Note_on_c, 8, 74, 0
2, 165000, Note_on_c, 8, 72, 64
2, 165090, Note_on_c, 8, 72, 0
2, 165120, Note_on_c, 8, 70, 80
2, 165360, Note_on_c, 8, 70, 0
2, 169920, Note_on_c, 8, 90, 80
2, 170688, Note_on_c, 8, 90, 0
2, 170880, Note_on_c, 8, 91, 80
2, 171720, Note_on_c, 8, 91, 0
2, 171720, Note_on_c, 8, 87, 80
2, 171816, Note_on_c, 8, 87, 0
2, 177600, Note_on_c, 8, 90, 80
2, 178560, Note_on_c, 8, 90, 0
2, 178560, Note_on_c, 8, 91, 80
2, 179400, Note_on_c, 8, 91, 0
2, 179400, Note_on_c, 8, 87, 80
2, 179520, Note_on_c, 8, 87, 0
2, 179520, Note_on_c, 8, 86, 80
2, 180000, Note_on_c, 8, 86, 0
2, 180000, Note_on_c, 8, 84, 80
2, 180480, Note_on_c, 8, 84, 0
2, 180480, Note_on_c, 8, 82, 80
2, 180864, Note_on_c, 8, 82, 0
2, 181320, Note_on_c, 8, 89, 80
2, 181416, Note_on_c, 8, 89, 0
2, 181440, Note_on_c, 8, 87, 80
2, 181536, Note_on_c, 8, 87, 0
2, 181560, Note_on_c, 8, 86, 80
2, 181656, Note_on_c, 8, 86, 0
2, 181680, Note_on_c, 8, 84, 80
2, 181776, Note_on_c, 8, 84, 0
2, 181800, Note_on_c, 8, 82, 80
2, 181896, Note_on_c, 8, 82, 0
2, 181920, Note_on_c, 8, 81, 80
2, 182016, Note_on_c, 8, 81, 0
2, 182040, Note_on_c, 8, 79, 80
2, 182136, Note_on_c, 8, 79, 0
2, 182160, Note_on_c, 8, 77, 80
2, 182256, Note_on_c, 8, 77, 0
2, 182280, Note_on_c, 8, 75, 80
2, 182376, Note_on_c, 8, 75, 0
2, 182400, Note_on_c, 8, 74, 80
2, 182544, Note_on_c, 8, 74, 0
2, 182640, Note_on_c, 8, 77, 80
2, 182784, Note_on_c, 8, 77, 0
2, 182880, Note_on_c, 8, 79, 80
2, 183024, Note_on_c, 8, 79, 0
2, 183120, Note_on_c, 8, 81, 80
2, 183264, Note_on_c, 8, 81, 0
2, 183360, Note_on_c, 8, 82, 80
2, 183456, Note_on_c, 8, 82, 0
2, 183480, Note_on_c, 8, 77, 80
2, 183576, Note_on_c, 8, 77, 0
2, 183600, Note_on_c, 8, 86, 80
2, 183696, Note_on_c, 8, 86, 0
2, 183720, Note_on_c, 8, 84, 80
2, 183816, Note_on_c, 8, 84, 0
2, 183840, Note_on_c, 8, 82, 80
2, 183936, Note_on_c, 8, 82, 0
2, 183960, Note_on_c, 8, 81, 80
2, 184056, Note_on_c, 8, 81, 0
2, 184080, Note_on_c, 8, 79, 80
2, 184176, Note_on_c, 8, 79, 0
2, 184200, Note_on_c, 8, 77, 80
2, 184296, Note_on_c, 8, 77, 0
2, 184320, Note_on_c, 8, 87, 80
2, 184416, Note_on_c, 8, 87, 0
2, 184440, Note_on_c, 8, 86, 80
2, 184536, Note_on_c, 8, 86, 0
2, 184560, Note_on_c, 8, 84, 80
2, 184656, Note_on_c, 8, 84, 0
2, 184680, Note_on_c, 8, 82, 80
2, 184776, Note_on_c, 8, 82, 0
2, 184800, Note_on_c, 8, 81, 80
2, 184896, Note_on_c, 8, 81, 0
2, 184920, Note_on_c, 8, 84, 80
2, 185016, Note_on_c, 8, 84, 0
2, 185040, Note_on_c, 8, 89, 80
2, 185136, Note_on_c, 8, 89, 0
2, 185160, Note_on_c, 8, 87, 80
2, 185256, Note_on_c, 8, 87, 0
2, 185280, Note_on_c, 8, 86, 80
2, 185472, Note_on_c, 8, 86, 0
2, 186000, Note_on_c, 8, 87, 80
2, 186192, Note_on_c, 8, 87, 0
2, 186240, Note_on_c, 8, 86, 80
2, 186432, Note_on_c, 8, 86, 0
2, 186480, Note_on_c, 8, 91, 80
2, 186672, Note_on_c, 8, 91, 0
2, 186720, Note_on_c, 8, 89, 80
2, 186912, Note_on_c, 8, 89, 0
2, 186960, Note_on_c, 8, 81, 80
2, 187152, Note_on_c, 8, 81, 0
2, 187200, Note_on_c, 8, 82, 80
2, 187392, Note_on_c, 8, 82, 0
2, 187440, Note_on_c, 8, 82, 80
2, 187536, Note_on_c, 8, 82, 0
2, 187560, Note_on_c, 8, 82, 80
2, 187656, Note_on_c, 8, 82, 0
2, 187680, Note_on_c, 8, 81, 80
2, 187872, Note_on_c, 8, 81, 0
2, 187920, Note_on_c, 8, 81, 80
2, 188016, Note_on_c, 8, 81, 0
2, 188040, Note_on_c, 8, 81, 80
2, 188136, Note_on_c, 8, 81, 0
2, 188160, Note_on_c, 8, 82, 80
2, 188352, Note_on_c, 8, 82, 0
2, 188400, Note_on_c, 8, 82, 80
2, 188496, Note_on_c, 8, 82, 0
2, 188520, Note_on_c, 8, 82, 80
2, 188616, Note_on_c, 8, 82, 0
2, 188640, Note_on_c, 8, 81, 80
2, 188832, Note_on_c, 8, 81, 0
2, 188880, Note_on_c, 8, 81, 80
2, 188976, Note_on_c, 8, 81, 0
2, 189000, Note_on_c, 8, 81, 80
2, 189096, Note_on_c, 8, 81, 0
2, 189120, Note_on_c, 8, 82, 80
2, 189312, Note_on_c, 8, 82, 0
2, 189360, Note_on_c, 8, 82, 80
2, 189456, Note_on_c, 8, 82, 0
2, 189480, Note_on_c, 8, 82, 80
2, 189576, Note_on_c, 8, 82, 0
2, 189600, Note_on_c, 8, 81, 80
2, 189792, Note_on_c, 8, 81, 0
2, 189840, Note_on_c, 8, 81, 80
2, 189936, Note_on_c, 8, 81, 0
2, 189960, Note_on_c, 8, 81, 80
2, 190056, Note_on_c, 8, 81, 0
2, 190080, Note_on_c, 8, 82, 80
2, 190272, Note_on_c, 8, 82, 0
2, 190320, Note_on_c, 8, 81, 80
2, 190512, Note_on_c, 8, 81, 0
2, 190560, Note_on_c, 8, 82, 80
2, 190752, Note_on_c, 8, 82, 0
2, 190800, Note_on_c, 8, 81, 80
2, 190992, Note_on_c, 8, 81, 0
2, 191040, Note_on_c, 8, 82, 80
2, 191328, Note_on_c, 8, 82, 0
2, 192000, Note_on_c, 8, 78, 80
2, 192288, Note_on_c, 8, 78, 0
2, 192960, Note_on_c, 8, 79, 80
2, 193152, Note_on_c, 8, 79, 0
2, 193440, Note_on_c, 8, 80, 80
2, 193632, Note_on_c, 8, 80, 0
2, 193920, Note_on_c, 8, 86, 64
2, 194880, Note_on_c, 8, 86, 0
2, 194880, Note_on_c, 8, 85, 64
2, 195360, Note_on_c, 8, 85, 0
2, 195360, Note_on_c, 8, 83, 64
2, 195840, Note_on_c, 8, 83, 0
2, 195840, Note_on_c, 8, 81, 64
2, 196320, Note_on_c, 8, 81, 0
2, 196320, Note_on_c, 8, 80, 64
2, 196800, Note_on_c, 8, 80, 0
2, 196800, Note_on_c, 8, 78, 64
2, 197088, Note_on_c, 8, 78, 0
2, 206160, Note_on_c, 8, 90, 80
2, 206640, Note_on_c, 8, 90, 0
2, 206640, Note_on_c, 8, 88, 80
2, 207120, Note_on_c, 8, 88, 0
2, 207120, Note_on_c, 8, 87, 80
2, 207360, Note_on_c, 8, 87, 0
2, 207360, Note_on_c, 8, 88, 80
2, 207720, Note_on_c, 8, 88, 0
2, 210000, Note_on_c, 8, 88, 80
2, 210480, Note_on_c, 8, 88, 0
2, 210480, Note_on_c, 8, 86, 80
2, 210960, Note_on_c, 8, 86, 0
2, 210960, Note_on_c, 8, 85, 80
2, 211200, Note_on_c, 8, 85, 0
2, 211200, Note_on_c, 8, 86, 80
2, 211560, Note_on_c, 8, 86, 0
2, 213840, Note_on_c, 8, 86, 72
2, 214320, Note_on_c, 8, 86, 0
2, 214320, Note_on_c, 8, 84, 72
2, 214800, Note_on_c, 8, 84, 0
2, 214800, Note_on_c, 8, 83, 72
2, 215040, Note_on_c, 8, 83, 0
2, 215040, Note_on_c, 8, 84, 72
2, 215400, Note_on_c, 8, 84, 0
2, 216960, Note_on_c, 8, 77, 72
2, 217680, Note_on_c, 8, 77, 0
2, 217680, Note_on_c, 8, 84, 72
2, 217920, Note_on_c, 8, 84, 0
2, 217920, Note_on_c, 8, 89, 72
2, 218400, Note_on_c, 8, 89, 0
2, 218400, Note_on_c, 8, 87, 72
2, 218880, Note_on_c, 8, 87, 0
2, 218880, Note_on_c, 8, 86, 72
2, 219840, Note_on_c, 8, 86, 0
2, 219840, Note_on_c, 8, 86, 72
2, 221040, Note_on_c, 8, 86, 0
2, 221040, Note_on_c, 8, 84, 72
2, 221160, Note_on_c, 8, 84, 0
2, 221160, Note_on_c, 8, 82, 72
2, 221280, Note_on_c, 8, 82, 0
2, 221280, Note_on_c, 8, 84, 72
2, 222960, Note_on_c, 8, 84, 0
2, 222960, Note_on_c, 8, 82, 72
2, 223080, Note_on_c, 8, 82, 0
2, 223080, Note_on_c, 8, 81, 72
2, 223200, Note_on_c, 8, 81, 0
2, 223200, Note_on_c, 8, 82, 72
2, 223560, Note_on_c, 8, 82, 0
2, 223680, Note_on_c, 8, 91, 80
2, 223968, Note_on_c, 8, 91, 0
2, 224040, Note_on_c, 8, 89, 80
2, 224136, Note_on_c, 8, 89, 0
2, 224160, Note_on_c, 8, 88, 80
2, 224448, Note_on_c, 8, 88, 0
2, 224520, Note_on_c, 8, 86, 80
2, 224616, Note_on_c, 8, 86, 0
2, 224640, Note_on_c, 8, 85, 80
2, 224880, Note_on_c, 8, 85, 0
2, 224880, Note_on_c, 8, 88, 80
2, 225120, Note_on_c, 8, 88, 0
2, 225120, Note_on_c, 8, 89, 80
2, 225360, Note_on_c, 8, 89, 0
2, 225360, Note_on_c, 8, 86, 80
2, 225600, Note_on_c, 8, 86, 0
2, 225600, Note_on_c, 8, 85, 80
2, 225840, Note_on_c, 8, 85, 0
2, 225840, Note_on_c, 8, 88, 80
2, 226080, Note_on_c, 8, 88, 0
2, 226080, Note_on_c, 8, 89, 80
2, 226320, Note_on_c, 8, 89, 0
2, 226320, Note_on_c, 8, 86, 80
2, 226560, Note_on_c, 8, 86, 0
2, 226560, Note_on_c, 8, 85, 80
2, 226800, Note_on_c, 8, 85, 0
2, 226800, Note_on_c, 8, 88, 80
2, 227040, Note_on_c, 8, 88, 0
2, 227040, Note_on_c, 8, 89, 80
2, 227280, Note_on_c, 8, 89, 0
2, 227280, Note_on_c, 8, 86, 80
2, 227520, Note_on_c, 8, 86, 0
2, 227520, Note_on_c, 8, 85, 80
2, 227760, Note_on_c, 8, 85, 0
2, 227760, Note_on_c, 8, 88, 80
2, 228000, Note_on_c, 8, 88, 0
2, 228000, Note_on_c, 8, 89, 80
2, 228240, Note_on_c, 8, 89, 0
2, 228240, Note_on_c, 8, 86, 80
2, 228480, Note_on_c, 8, 86, 0
2, 228480, Note_on_c, 8, 85, 80
2, 228960, Note_on_c, 8, 85, 0
2, 230160, Note_on_c, 8, 77, 64
2, 230280, Note_on_c, 8, 77, 0
2, 230280, Note_on_c, 8, 75, 64
2, 230400, Note_on_c, 8, 75, 0
2, 230400, Note_on_c, 8, 75, 64
2, 230592, Note_on_c, 8, 75, 0
2, 230640, Note_on_c, 8, 77, 64
2, 230760, Note_on_c, 8, 77, 0
2, 230760, Note_on_c, 8, 75, 64
2, 230880, Note_on_c, 8, 75, 0
2, 230880, Note_on_c, 8, 75, 64
2, 231072, Note_on_c, 8, 75, 0
2, 231120, Note_on_c, 8, 75, 64
2, 231312, Note_on_c, 8, 75, 0
2, 232080, Note_on_c, 8, 78, 64
2, 232200, Note_on_c, 8, 78, 0
2, 232200, Note_on_c, 8, 77, 64
2, 232320, Note_on_c, 8, 77, 0
2, 232320, Note_on_c, 8, 77, 64
2, 232512, Note_on_c, 8, 77, 0
2, 232560, Note_on_c, 8, 78, 64
2, 232680, Note_on_c, 8, 78, 0
2, 232680, Note_on_c, 8, 77, 64
2, 232800, Note_on_c, 8, 77, 0
2, 232800, Note_on_c, 8, 77, 64
2, 232992, Note_on_c, 8, 77, 0
2, 233040, Note_on_c, 8, 77, 64
2, 233232, Note_on_c, 8, 77, 0
2, 234000, Note_on_c, 8, 79, 64
2, 234120, Note_on_c, 8, 79, 0
2, 234120, Note_on_c, 8, 77, 64
2, 234240, Note_on_c, 8, 77, 0
2, 234240, Note_on_c, 8, 77, 64
2, 234432, Note_on_c, 8, 77, 0
2, 234480, Note_on_c, 8, 79, 64
2, 234600, Note_on_c, 8, 79, 0
2, 234600, Note_on_c, 8, 77, 64
2, 234720, Note_on_c, 8, 77, 0
2, 234720, Note_on_c, 8, 77, 64
2, 234912, Note_on_c, 8, 77, 0
2, 234960, Note_on_c, 8, 77, 64
2, 235152, Note_on_c, 8, 77, 0
2, 235920, Note_on_c, 8, 80, 64
2, 236040, Note_on_c, 8, 80, 0
2, 236040, Note_on_c, 8, 79, 64
2, 236160, Note_on_c, 8, 79, 0
2, 236160, Note_on_c, 8, 79, 64
2, 236352, Note_on_c, 8, 79, 0
2, 236400, Note_on_c, 8, 80, 64
2, 236520, Note_on_c, 8, 80, 0
2, 236520, Note_on_c, 8, 79, 64
2, 236640, Note_on_c, 8, 79, 0
2, 236640, Note_on_c, 8, 79, 64
2, 236832, Note_on_c, 8, 79, 0
2, 236880, Note_on_c, 8, 79, 64
2, 237072, Note_on_c, 8, 79, 0
2, 238320, Note_on_c, 8, 83, 64
2, 238440, Note_on_c, 8, 83, 0
2, 238440, Note_on_c, 8, 84, 64
2, 238548, Note_on_c, 8, 84, 0
2, 238560, Note_on_c, 8, 84, 64
2, 238776, Note_on_c, 8, 84, 0
2, 240240, Note_on_c, 8, 87, 64
2, 240360, Note_on_c, 8, 87, 0
2, 240360, Note_on_c, 8, 86, 64
2, 240468, Note_on_c, 8, 86, 0
2, 240480, Note_on_c, 8, 86, 64
2, 240696, Note_on_c, 8, 86, 0
2, 242160, Note_on_c, 8, 91, 64
2, 242280, Note_on_c, 8, 91, 0
2, 242280, Note_on_c, 8, 90, 64
2, 242388, Note_on_c, 8, 90, 0
2, 242400, Note_on_c, 8, 90, 64
2, 242616, Note_on_c, 8, 90, 0
2, 242880, Note_on_c, 8, 81, 64
2, 243120, Note_on_c, 8, 81, 0
2, 243120, Note_on_c, 8, 84, 64
2, 243360, Note_on_c, 8, 84, 0
2, 243360, Note_on_c, 8, 87, 64
2, 243600, Note_on_c, 8, 87, 0
2, 243840, Note_on_c, 8, 79, 64
2, 244080, Note_on_c, 8, 79, 0
2, 244080, Note_on_c, 8, 82, 64
2, 244320, Note_on_c, 8, 82, 0
2, 244320, Note_on_c, 8, 86, 64
2, 244560, Note_on_c, 8, 86, 0
2, 244800, Note_on_c, 8, 91, 64
2, 245040, Note_on_c, 8, 91, 0
2, 245040, Note_on_c, 8, 88, 64
2, 245280, Note_on_c, 8, 88, 0
2, 245280, Note_on_c, 8, 85, 64
2, 245520, Note_on_c, 8, 85, 0
2, 245760, Note_on_c, 8, 86, 64
2, 246000, Note_on_c, 8, 86, 0
2, 246000, Note_on_c, 8, 81, 64
2, 246240, Note_on_c, 8, 81, 0
2, 246240, Note_on_c, 8, 78, 64
2, 246480, Note_on_c, 8, 78, 0
2, 246720, Note_on_c, 8, 81, 64
2, 246960, Note_on_c, 8, 81, 0
2, 246960, Note_on_c, 8, 84, 64
2, 247200, Note_on_c, 8, 84, 0
2, 247200, Note_on_c, 8, 90, 64
2, 247440, Note_on_c, 8, 90, 0
2, 247680, Note_on_c, 8, 82, 64
2, 247920, Note_on_c, 8, 82, 0
2, 247920, Note_on_c, 8, 86, 64
2, 248160, Note_on_c, 8, 86, 0
2, 248160, Note_on_c, 8, 91, 64
2, 248400, Note_on_c, 8, 91, 0
2, 249840, Note_on_c, 8, 87, 64
2, 249960, Note_on_c, 8, 87, 0
2, 249960, Note_on_c, 8, 86, 64
2, 250080, Note_on_c, 8, 86, 0
2, 250080, Note_on_c, 8, 86, 64
2, 250800, Note_on_c, 8, 86, 0
2, 250800, Note_on_c, 8, 86, 64
2, 250920, Note_on_c, 8, 86, 0
2, 250920, Note_on_c, 8, 84, 64
2, 251040, Note_on_c, 8, 84, 0
2, 251040, Note_on_c, 8, 84, 64
2, 251760, Note_on_c, 8, 84, 0
2, 251760, Note_on_c, 8, 84, 64
2, 251880, Note_on_c, 8, 84, 0
2, 251880, Note_on_c, 8, 83, 64
2, 252000, Note_on_c, 8, 83, 0
2, 252000, Note_on_c, 8, 82, 64
2, 252720, Note_on_c, 8, 82, 0
2, 252720, Note_on_c, 8, 82, 64
2, 252840, Note_on_c, 8, 82, 0
2, 252840, Note_on_c, 8, 81, 64
2, 252960, Note_on_c, 8, 81, 0
2, 252960, Note_on_c, 8, 81, 64
2, 253680, Note_on_c, 8, 81, 0
2, 253680, Note_on_c, 8, 81, 64
2, 253800, Note_on_c, 8, 81, 0
2, 253800, Note_on_c, 8, 80, 64
2, 253920, Note_on_c, 8, 80, 0
2, 253920, Note_on_c, 8, 79, 64
2, 254880, Note_on_c, 8, 79, 0
2, 254880, Note_on_c, 8, 78, 64
2, 255360, Note_on_c, 8, 78, 0
2, 255360, Note_on_c, 8, 79, 64
2, 255720, Note_on_c, 8, 79, 0
2, 266160, Note_on_c, 8, 78, 75
2, 266400, Note_on_c, 8, 78, 0
2, 266400, Note_on_c, 8, 79, 75
2, 266640, Note_on_c, 8, 79, 0
2, 266640, Note_on_c, 8, 81, 75
2, 266880, Note_on_c, 8, 81, 0
2, 266880, Note_on_c, 8, 82, 75
2, 267120, Note_on_c, 8, 82, 0
2, 267120, Note_on_c, 8, 84, 75
2, 267240, Note_on_c, 8, 84, 0
2, 267240, Note_on_c, 8, 82, 75
2, 267360, Note_on_c, 8, 82, 0
2, 267360, Note_on_c, 8, 81, 75
2, 267600, Note_on_c, 8, 81, 0
2, 267600, Note_on_c, 8, 79, 75
2, 267840, Note_on_c, 8, 79, 0
2, 267840, Note_on_c, 8, 78, 75
2, 268032, Note_on_c, 8, 78, 0
2, 268320, Note_on_c, 8, 85, 80
2, 268800, Note_on_c, 8, 85, 0
2, 268800, Note_on_c, 8, 86, 80
2, 269040, Note_on_c, 8, 86, 0
2, 269280, Note_on_c, 8, 85, 80
2, 269760, Note_on_c, 8, 85, 0
2, 269760, Note_on_c, 8, 86, 80
2, 270000, Note_on_c, 8, 86, 0
2, 270240, Note_on_c, 8, 85, 80
2, 270720, Note_on_c, 8, 85, 0
2, 270720, Note_on_c, 8, 86, 75
2, 270864, Note_on_c, 8, 86, 0
2, 270960, Note_on_c, 8, 85, 68
2, 271104, Note_on_c, 8, 85, 0
2, 271200, Note_on_c, 8, 86, 60
2, 271344, Note_on_c, 8, 86, 0
2, 271440, Note_on_c, 8, 85, 53
2, 271584, Note_on_c, 8, 85, 0
2, 271680, Note_on_c, 8, 86, 53
2, 272064, Note_on_c, 8, 86, 0
2, 275520, Note_on_c, 8, 82, 64
2, 276480, Note_on_c, 8, 82, 0
2, 276480, Note_on_c, 8, 83, 64
2, 277440, Note_on_c, 8, 83, 0
2, 277440, Note_on_c, 8, 82, 64
2, 277920, Note_on_c, 8, 82, 0
2, 277920, Note_on_c, 8, 86, 64
2, 278880, Note_on_c, 8, 86, 0
2, 278880, Note_on_c, 8, 80, 64
2, 279360, Note_on_c, 8, 80, 0
2, 279360, Note_on_c, 8, 79, 80
2, 279840, Note_on_c, 8, 79, 0
2, 279840, Note_on_c, 8, 75, 80
2, 280320, Note_on_c, 8, 75, 0
2, 280320, Note_on_c, 8, 82, 80
2, 281280, Note_on_c, 8, 82, 0
2, 281280, Note_on_c, 8, 80, 80
2, 282240, Note_on_c, 8, 80, 0
2, 282240, Note_on_c, 8, 79, 80
2, 282720, Note_on_c, 8, 79, 0
2, 282720, Note_on_c, 8, 91, 80
2, 283200, Note_on_c, 8, 91, 0
2, 283200, Note_on_c, 8, 89, 80
2, 284160, Note_on_c, 8, 89, 0
2, 284160, Note_on_c, 8, 88, 80
2, 284640, Note_on_c, 8, 88, 0
2, 284640, Note_on_c, 8, 85, 80
2, 285120, Note_on_c, 8, 85, 0
2, 285120, Note_on_c, 8, 84, 80
2, 285600, Note_on_c, 8, 84, 0
2, 285600, Note_on_c, 8, 82, 80
2, 286080, Note_on_c, 8, 82, 0
2, 286080, Note_on_c, 8, 80, 80
2, 286560, Note_on_c, 8, 80, 0
2, 286560, Note_on_c, 8, 77, 80
2, 287040, Note_on_c, 8, 77, 0
2, 287040, Note_on_c, 8, 84, 80
2, 288000, Note_on_c, 8, 84, 0
2, 288000, Note_on_c, 8, 85, 80
2, 288960, Note_on_c, 8, 85, 0
2, 288960, Note_on_c, 8, 84, 80
2, 289920, Note_on_c, 8, 84, 0
2, 289920, Note_on_c, 8, 82, 80
2, 290880, Note_on_c, 8, 82, 0
2, 290880, Note_on_c, 8, 80, 64
2, 291072, Note_on_c, 8, 80, 0
2, 291120, Note_on_c, 8, 89, 64
2, 291312, Note_on_c, 8, 89, 0
2, 291360, Note_on_c, 8, 89, 64
2, 291552, Note_on_c, 8, 89, 0
2, 291600, Note_on_c, 8, 89, 64
2, 291792, Note_on_c, 8, 89, 0
2, 292080, Note_on_c, 8, 89, 64
2, 292272, Note_on_c, 8, 89, 0
2, 292320, Note_on_c, 8, 89, 64
2, 292512, Note_on_c, 8, 89, 0
2, 292560, Note_on_c, 8, 89, 64
2, 292752, Note_on_c, 8, 89, 0
2, 293040, Note_on_c, 8, 89, 64
2, 293280, Note_on_c, 8, 89, 0
2, 293280, Note_on_c, 8, 87, 64
2, 293520, Note_on_c, 8, 87, 0
2, 293520, Note_on_c, 8, 87, 64
2, 293760, Note_on_c, 8, 87, 0
2, 294000, Note_on_c, 8, 87, 64
2, 294240, Note_on_c, 8, 87, 0
2, 294240, Note_on_c, 8, 87, 64
2, 294480, Note_on_c, 8, 87, 0
2, 294480, Note_on_c, 8, 87, 64
2, 294720, Note_on_c, 8, 87, 0
2, 294960, Note_on_c, 8, 87, 64
2, 295200, Note_on_c, 8, 87, 0
2, 295200, Note_on_c, 8, 86, 64
2, 295440, Note_on_c, 8, 86, 0
2, 295440, Note_on_c, 8, 86, 64
2, 295680, Note_on_c, 8, 86, 0
2, 295920, Note_on_c, 8, 86, 64
2, 296160, Note_on_c, 8, 86, 0
2, 296160, Note_on_c, 8, 86, 64
2, 296400, Note_on_c, 8, 86, 0
2, 296400, Note_on_c, 8, 86, 64
2, 296640, Note_on_c, 8, 86, 0
2, 296880, Note_on_c, 8, 86, 64
2, 297120, Note_on_c, 8, 86, 0
2, 297120, Note_on_c, 8, 84, 64
2, 297360, Note_on_c, 8, 84, 0
2, 297360, Note_on_c, 8, 84, 64
2, 297600, Note_on_c, 8, 84, 0
2, 297840, Note_on_c, 8, 84, 64
2, 298080, Note_on_c, 8, 84, 0
2, 298080, Note_on_c, 8, 84, 64
2, 298320, Note_on_c, 8, 84, 0
2, 298320, Note_on_c, 8, 78, 64
2, 298560, Note_on_c, 8, 78, 0
2, 298560, Note_on_c, 8, 79, 80
2, 299328, Note_on_c, 8, 79, 0
2, 299520, Note_on_c, 8, 86, 80
2, 300288, Note_on_c, 8, 86, 0
2, 300480, Note_on_c, 8, 84, 80
2, 301440, Note_on_c, 8, 84, 0
2, 301440, Note_on_c, 8, 82, 80
2, 302400, Note_on_c, 8, 82, 0
2, 302400, Note_on_c, 8, 81, 80
2, 303120, Note_on_c, 8, 81, 0
2, 303120, Note_on_c, 8, 78, 80
2, 303360, Note_on_c, 8, 78, 0
2, 303360, Note_on_c, 8, 79, 80
2, 304080, Note_on_c, 8, 79, 0
2, 304080, Note_on_c, 8, 86, 80
2, 304320, Note_on_c, 8, 86, 0
2, 304320, Note_on_c, 8, 85, 80
2, 305160, Note_on_c, 8, 85, 0
2, 305160, Note_on_c, 8, 86, 80
2, 305256, Note_on_c, 8, 86, 0
2, 305280, Note_on_c, 8, 85, 80
2, 306120, Note_on_c, 8, 85, 0
2, 306120, Note_on_c, 8, 86, 80
2, 306216, Note_on_c, 8, 86, 0
2, 306240, Note_on_c, 8, 85, 80
2, 307080, Note_on_c, 8, 85, 0
2, 307080, Note_on_c, 8, 86, 80
2, 307176, Note_on_c, 8, 86, 0
2, 307200, Note_on_c, 8, 85, 80
2, 307968, Note_on_c, 8, 85, 0
2, 308160, Note_on_c, 8, 86, 80
2, 308640, Note_on_c, 8, 86, 0
2, 308640, Note_on_c, 8, 84, 80
2, 309120, Note_on_c, 8, 84, 0
2, 309120, Note_on_c, 8, 82, 80
2, 309600, Note_on_c, 8, 82, 0
2, 309600, Note_on_c, 8, 85, 80
2, 310080, Note_on_c, 8, 85, 0
2, 310080, Note_on_c, 8, 86, 80
2, 310560, Note_on_c, 8, 86, 0
2, 310560, Note_on_c, 8, 90, 80
2, 311040, Note_on_c, 8, 90, 0
2, 311040, Note_on_c, 8, 91, 80
2, 311520, Note_on_c, 8, 91, 0
2, 311520, Note_on_c, 8, 85, 80
2, 312000, Note_on_c, 8, 85, 0
2, 312000, Note_on_c, 8, 86, 80
2, 312360, Note_on_c, 8, 86, 0
2, 312480, Note_on_c, 8, 74, 64
2, 312840, Note_on_c, 8, 74, 0
2, 314880, Note_on_c, 8, 84, 64
2, 315600, Note_on_c, 8, 84, 0
2, 315600, Note_on_c, 8, 86, 64
2, 315660, Note_on_c, 8, 86, 0
2, 315660, Note_on_c, 8, 84, 64
2, 315720, Note_on_c, 8, 84, 0
2, 315720, Note_on_c, 8, 82, 64
2, 315780, Note_on_c, 8, 82, 0
2, 315780, Note_on_c, 8, 81, 64
2, 315840, Note_on_c, 8, 81, 0
2, 315840, Note_on_c, 8, 79, 64
2, 316200, Note_on_c, 8, 79, 0
2, 320640, Note_on_c, 8, 79, 64
2, 320760, Note_on_c, 8, 79, 0
2, 320760, Note_on_c, 8, 78, 64
2, 320880, Note_on_c, 8, 78, 0
2, 320880, Note_on_c, 8, 81, 64
2, 321000, Note_on_c, 8, 81, 0
2, 321000, Note_on_c, 8, 79, 64
2, 321120, Note_on_c, 8, 79, 0
2, 321120, Note_on_c, 8, 82, 64
2, 321240, Note_on_c, 8, 82, 0
2, 321240, Note_on_c, 8, 81, 64
2, 321360, Note_on_c, 8, 81, 0
2, 321360, Note_on_c, 8, 84, 64
2, 321480, Note_on_c, 8, 84, 0
2, 321480, Note_on_c, 8, 82, 64
2, 321600, Note_on_c, 8, 82, 0
2, 321600, Note_on_c, 8, 86, 64
2, 322320, Note_on_c, 8, 86, 0
2, 322320, Note_on_c, 8, 85, 64
2, 322560, Note_on_c, 8, 85, 0
2, 322560, Note_on_c, 8, 84, 64
2, 322800, Note_on_c, 8, 84, 0
2, 323760, Note_on_c, 8, 79, 64
2, 323952, Note_on_c, 8, 79, 0
2, 324000, Note_on_c, 8, 79, 64
2, 324240, Note_on_c, 8, 79, 0
2, 324240, Note_on_c, 8, 81, 64
2, 324480, Note_on_c, 8, 81, 0
2, 324480, Note_on_c, 8, 82, 64
2, 324840, Note_on_c, 8, 82, 0
2, 324840, Note_on_c, 8, 84, 64
2, 324960, Note_on_c, 8, 84, 0
2, 324960, Note_on_c, 8, 81, 64
2, 325200, Note_on_c, 8, 81, 0
2, 325440, Note_on_c, 8, 87, 64
2, 326160, Note_on_c, 8, 87, 0
2, 326160, Note_on_c, 8, 86, 64
2, 326400, Note_on_c, 8, 86, 0
2, 326400, Note_on_c, 8, 85, 64
2, 326640, Note_on_c, 8, 85, 0
2, 326640, Note_on_c, 8, 84, 64
2, 326880, Note_on_c, 8, 84, 0
2, 326880, Note_on_c, 8, 83, 64
2, 327120, Note_on_c, 8, 83, 0
2, 327120, Note_on_c, 8, 82, 64
2, 327360, Note_on_c, 8, 82, 0
2, 327600, Note_on_c, 8, 86, 64
2, 328080, Note_on_c, 8, 86, 0
2, 328080, Note_on_c, 8, 87, 64
2, 328320, Note_on_c, 8, 87, 0
2, 328560, Note_on_c, 8, 86, 64
2, 329040, Note_on_c, 8, 86, 0
2, 329040, Note_on_c, 8, 87, 64
2, 329280, Note_on_c, 8, 87, 0
2, 329520, Note_on_c, 8, 86, 64
2, 330000, Note_on_c, 8, 86, 0
2, 330000, Note_on_c, 8, 87, 64
2, 330240, Note_on_c, 8, 87, 0
2, 330480, Note_on_c, 8, 86, 64
2, 330960, Note_on_c, 8, 86, 0
2, 330960, Note_on_c, 8, 87, 64
2, 331200, Note_on_c, 8, 87, 0
2, 331200, Note_on_c, 8, 86, 64
2, 333120, Note_on_c, 8, 86, 0
2, 333120, Note_on_c, 8, 87, 80
2, 333504, Note_on_c, 8, 87, 0
2, 333600, Note_on_c, 8, 84, 80
2, 333792, Note_on_c, 8, 84, 0
2, 333840, Note_on_c, 8, 81, 80
2, 334032, Note_on_c, 8, 81, 0
2, 334080, Note_on_c, 8, 82, 80
2, 334320, Note_on_c, 8, 82, 0
2, 334320, Note_on_c, 8, 85, 80
2, 334560, Note_on_c, 8, 85, 0
2, 334560, Note_on_c, 8, 89, 80
2, 335424, Note_on_c, 8, 89, 0
2, 335520, Note_on_c, 8, 86, 80
2, 335712, Note_on_c, 8, 86, 0
2, 335760, Note_on_c, 8, 83, 80
2, 335952, Note_on_c, 8, 83, 0
2, 336000, Note_on_c, 8, 84, 80
2, 336240, Note_on_c, 8, 84, 0
2, 336240, Note_on_c, 8, 87, 80
2, 336480, Note_on_c, 8, 87, 0
2, 336480, Note_on_c, 8, 91, 80
2, 337344, Note_on_c, 8, 91, 0
2, 337440, Note_on_c, 8, 88, 80
2, 337632, Note_on_c, 8, 88, 0
2, 337680, Note_on_c, 8, 85, 80
2, 337872, Note_on_c, 8, 85, 0
2, 337920, Note_on_c, 8, 86, 80
2, 338832, Note_on_c, 8, 86, 0
2, 338880, Note_on_c, 8, 81, 80
2, 338940, Note_on_c, 8, 81, 0
2, 338940, Note_on_c, 8, 82, 80
2, 339000, Note_on_c, 8, 82, 0
2, 339000, Note_on_c, 8, 81, 80
2, 339060, Note_on_c, 8, 81, 0
2, 339060, Note_on_c, 8, 82, 80
2, 339120, Note_on_c, 8, 82, 0
2, 339120, Note_on_c, 8, 81, 80
2, 339180, Note_on_c, 8, 81, 0
2, 339180, Note_on_c, 8, 82, 80
2, 339240, Note_on_c, 8, 82, 0
2, 339240, Note_on_c, 8, 81, 80
2, 339300, Note_on_c, 8, 81, 0
2, 339300, Note_on_c, 8, 82, 80
2, 339360, Note_on_c, 8, 82, 0
2, 339360, Note_on_c, 8, 81, 80
2, 339420, Note_on_c, 8, 81, 0
2, 339420, Note_on_c, 8, 82, 80
2, 339480, Note_on_c, 8, 82, 0
2, 339480, Note_on_c, 8, 81, 80
2, 339540, Note_on_c, 8, 81, 0
2, 339540, Note_on_c, 8, 82, 80
2, 339600, Note_on_c, 8, 82, 0
2, 339600, Note_on_c, 8, 81, 80
2, 339660, Note_on_c, 8, 81, 0
2, 339660, Note_on_c, 8, 82, 80
2, 339720, Note_on_c, 8, 82, 0
2, 339720, Note_on_c, 8, 79, 80
2, 339780, Note_on_c, 8, 79, 0
2, 339780, Note_on_c, 8, 81, 80
2, 339840, Note_on_c, 8, 81, 0
2, 339840, Note_on_c, 8, 79, 80
2, 340080, Note_on_c, 8, 79, 0
2, 342720, Note_on_c, 8, 81, 80
2, 342912, Note_on_c, 8, 81, 0
2, 343200, Note_on_c, 8, 82, 80
2, 343392, Note_on_c, 8, 82, 0
2, 343680, Note_on_c, 8, 87, 64
2, 344064, Note_on_c, 8, 87, 0
2, 344280, Note_on_c, 8, 86, 64
2, 344376, Note_on_c, 8, 86, 0
2, 344400, Note_on_c, 8, 84, 64
2, 344496, Note_on_c, 8, 84, 0
2, 344520, Note_on_c, 8, 82, 64
2, 344616, Note_on_c, 8, 82, 0
2, 344640, Note_on_c, 8, 81, 64
2, 344736, Note_on_c, 8, 81, 0
2, 344760, Note_on_c, 8, 79, 64
2, 344856, Note_on_c, 8, 79, 0
2, 344880, Note_on_c, 8, 78, 64
2, 344976, Note_on_c, 8, 78, 0
2, 345000, Note_on_c, 8, 75, 64
2, 345096, Note_on_c, 8, 75, 0
2, 345120, Note_on_c, 8, 74, 64
2, 345216, Note_on_c, 8, 74, 0
2, 345240, Note_on_c, 8, 72, 64
2, 345336, Note_on_c, 8, 72, 0
2, 345360, Note_on_c, 8, 70, 64
2, 345456, Note_on_c, 8, 70, 0
2, 345480, Note_on_c, 8, 69, 64
2, 345576, Note_on_c, 8, 69, 0
2, 345600, Note_on_c, 8, 67, 64
2, 345792, Note_on_c, 8, 67, 0
2, 348240, Note_on_c, 8, 87, 64
2, 348360, Note_on_c, 8, 87, 0
2, 348360, Note_on_c, 8, 86, 64
2, 348480, Note_on_c, 8, 86, 0
2, 348480, Note_on_c, 8, 86, 64
2, 348672, Note_on_c, 8, 86, 0
2, 348720, Note_on_c, 8, 87, 64
2, 348840, Note_on_c, 8, 87, 0
2, 348840, Note_on_c, 8, 86, 64
2, 348960, Note_on_c, 8, 86, 0
2, 348960, Note_on_c, 8, 86, 64
2, 349152, Note_on_c, 8, 86, 0
2, 350400, Note_on_c, 8, 89, 80
2, 351360, Note_on_c, 8, 89, 0
2, 351360, Note_on_c, 8, 87, 80
2, 352320, Note_on_c, 8, 87, 0
2, 352320, Note_on_c, 8, 86, 80
2, 352800, Note_on_c, 8, 86, 0
2, 352800, Note_on_c, 8, 81, 80
2, 353280, Note_on_c, 8, 81, 0
2, 353280, Note_on_c, 8, 79, 80
2, 353520, Note_on_c, 8, 79, 0
2, 356880, Note_on_c, 8, 87, 64
2, 357000, Note_on_c, 8, 87, 0
2, 357000, Note_on_c, 8, 86, 64
2, 357120, Note_on_c, 8, 86, 0
2, 357120, Note_on_c, 8, 86, 64
2, 357312, Note_on_c, 8, 86, 0
2, 357360, Note_on_c, 8, 87, 64
2, 357480, Note_on_c, 8, 87, 0
2, 357480, Note_on_c, 8, 86, 64
2, 357600, Note_on_c, 8, 86, 0
2, 357600, Note_on_c, 8, 86, 64
2, 357792, Note_on_c, 8, 86, 0
2, 358080, Note_on_c, 8, 89, 80
2, 359040, Note_on_c, 8, 89, 0
2, 359040, Note_on_c, 8, 87, 80
2, 360000, Note_on_c, 8, 87, 0
2, 360000, Note_on_c, 8, 86, 80
2, 360480, Note_on_c, 8, 86, 0
2, 360480, Note_on_c, 8, 81, 80
2, 360960, Note_on_c, 8, 81, 0
2, 360960, Note_on_c, 8, 79, 80
2, 361344, Note_on_c, 8, 79, 0
2, 361800, Note_on_c, 8, 86, 80
2, 361896, Note_on_c, 8, 86, 0
2, 361920, Note_on_c, 8, 84, 80
2, 362016, Note_on_c, 8, 84, 0
2, 362040, Note_on_c, 8, 82, 80
2, 362136, Note_on_c, 8, 82, 0
2, 362160, Note_on_c, 8, 81, 80
2, 362256, Note_on_c, 8, 81, 0
2, 362280, Note_on_c, 8, 79, 80
2, 362376, Note_on_c, 8, 79, 0
2, 362400, Note_on_c, 8, 78, 80
2, 362496, Note_on_c, 8, 78, 0
2, 362520, Note_on_c, 8, 75, 80
2, 362616, Note_on_c, 8, 75, 0
2, 362640, Note_on_c, 8, 74, 80
2, 362736, Note_on_c, 8, 74, 0
2, 362760, Note_on_c, 8, 72, 80
2, 362856, Note_on_c, 8, 72, 0
2, 362880, Note_on_c, 8, 70, 80
2, 363072, Note_on_c, 8, 70, 0
2, 363120, Note_on_c, 8, 86, 80
2, 363312, Note_on_c, 8, 86, 0
2, 363360, Note_on_c, 8, 87, 80
2, 363552, Note_on_c, 8, 87, 0
2, 363600, Note_on_c, 8, 78, 80
2, 363792, Note_on_c, 8, 78, 0
2, 363840, Note_on_c, 8, 79, 80
2, 364032, Note_on_c, 8, 79, 0
2, 365160, Note_on_c, 8, 91, 80
2, 365256, Note_on_c, 8, 91, 0
2, 365280, Note_on_c, 8, 90, 80
2, 365376, Note_on_c, 8, 90, 0
2, 365400, Note_on_c, 8, 87, 80
2, 365496, Note_on_c, 8, 87, 0
2, 365520, Note_on_c, 8, 86, 80
2, 365616, Note_on_c, 8, 86, 0
2, 365640, Note_on_c, 8, 84, 80
2, 365736, Note_on_c, 8, 84, 0
2, 365760, Note_on_c, 8, 82, 80
2, 365952, Note_on_c, 8, 82, 0
2, 366000, Note_on_c, 8, 79, 80
2, 366384, Note_on_c, 8, 79, 0
2, 366480, Note_on_c, 8, 80, 80
2, 366912, Note_on_c, 8, 80, 0
2, 366960, Note_on_c, 8, 81, 80
2, 367344, Note_on_c, 8, 81, 0
2, 367440, Note_on_c, 8, 82, 80
2, 367872, Note_on_c, 8, 82, 0
2, 367920, Note_on_c, 8, 83, 80
2, 368304, Note_on_c, 8, 83, 0
2, 368400, Note_on_c, 8, 84, 80
2, 368832, Note_on_c, 8, 84, 0
2, 368880, Note_on_c, 8, 85, 80
2, 369264, Note_on_c, 8, 85, 0
2, 369540, Note_on_c, 8, 86, 64
2, 369600, Note_on_c, 8, 86, 0
2, 369600, Note_on_c, 8, 86, 64
2, 370560, Note_on_c, 8, 86, 0
2, 370560, Note_on_c, 8, 78, 64
2, 371520, Note_on_c, 8, 78, 0
2, 371520, Note_on_c, 8, 79, 64
2, 371880, Note_on_c, 8, 79, 0
2, 376080, Note_on_c, 8, 87, 64
2, 376200, Note_on_c, 8, 87, 0
2, 376200, Note_on_c, 8, 86, 64
2, 376320, Note_on_c, 8, 86, 0
2, 376320, Note_on_c, 8, 86, 64
2, 376512, Note_on_c, 8, 86, 0
2, 376560, Note_on_c, 8, 87, 64
2, 376680, Note_on_c, 8, 87, 0
2, 376680, Note_on_c, 8, 86, 64
2, 376800, Note_on_c, 8, 86, 0
2, 376800, Note_on_c, 8, 86, 64
2, 376992, Note_on_c, 8, 86, 0
2, 377040, Note_on_c, 8, 87, 64
2, 377160, Note_on_c, 8, 87, 0
2, 377160, Note_on_c, 8, 86, 64
2, 377280, Note_on_c, 8, 86, 0
2, 377280, Note_on_c, 8, 86, 80
2, 377472, Note_on_c, 8, 86, 0
2, 377520, Note_on_c, 8, 86, 80
2, 377616, Note_on_c, 8, 86, 0
2, 377640, Note_on_c, 8, 86, 80
2, 377736, Note_on_c, 8, 86, 0
2, 377760, Note_on_c, 8, 86, 80
2, 377952, Note_on_c, 8, 86, 0
2, 378000, Note_on_c, 8, 86, 80
2, 378096, Note_on_c, 8, 86, 0
2, 378120, Note_on_c, 8, 86, 80
2, 378216, Note_on_c, 8, 86, 0
2, 378240, Note_on_c, 8, 86, 80
2, 378432, Note_on_c, 8, 86, 0
2, 378480, Note_on_c, 8, 86, 80
2, 378576, Note_on_c, 8, 86, 0
2, 378600, Note_on_c, 8, 86, 80
2, 378696, Note_on_c, 8, 86, 0
2, 378720, Note_on_c, 8, 86, 80
2, 378912, Note_on_c, 8, 86, 0
2, 378960, Note_on_c, 8, 86, 80
2, 379056, Note_on_c, 8, 86, 0
2, 379080, Note_on_c, 8, 86, 80
2, 379176, Note_on_c, 8, 86, 0
2, 379200, Note_on_c, 8, 86, 80
2, 379392, Note_on_c, 8, 86, 0
2, 379440, Note_on_c, 8, 86, 80
2, 379536, Note_on_c, 8, 86, 0
2, 379560, Note_on_c, 8, 86, 80
2, 379656, Note_on_c, 8, 86, 0
2, 379680, Note_on_c, 8, 86, 80
2, 379872, Note_on_c, 8, 86, 0
2, 379920, Note_on_c, 8, 86, 80
2, 380016, Note_on_c, 8, 86, 0
2, 380040, Note_on_c, 8, 86, 80
2, 380136, Note_on_c, 8, 86, 0
2, 380160, Note_on_c, 8, 86, 80
2, 380352, Note_on_c, 8, 86, 0
2, 380400, Note_on_c, 8, 90, 80
2, 380592, Note_on_c, 8, 90, 0
2, 380640, Note_on_c, 8, 91, 80
2, 380832, Note_on_c, 8, 91, 0
2, 380880, Note_on_c, 8, 90, 80
2, 381072, Note_on_c, 8, 90, 0
2, 381120, Note_on_c, 8, 91, 80
2, 381480, Note_on_c, 8, 91, 0
2, 382080, Note_on_c, 8, 91, 80
2, 382320, Note_on_c, 8, 91, 0
2, 382560, Note_on_c, 8, 91, 80
2, 382800, Note_on_c, 8, 91, 0
2, 383040, Note_on_c, 8, 91, 80
2, 383760, Note_on_c, 8, 91, 0
2, 383760, End_track
3, 0, Start_track
3, 0, MIDI_port, 0
3, 0, Title_t, "Oboi."
3, 0, Program_c, 0, 68
3, 56, Control_c, 0, 10, 63
3, 96, Control_c, 0, 91, 127
3, 15840, Note_on_c, 0, 79, 80
3, 15840, Note_on_c, 0, 82, 80
3, 16320, Note_on_c, 0, 82, 0
3, 16320, Note_on_c, 0, 79, 0
3, 16320, Note_on_c, 0, 78, 80
3, 16320, Note_on_c, 0, 81, 80
3, 16560, Note_on_c, 0, 81, 0
3, 16560, Note_on_c, 0, 78, 0
3, 16800, Note_on_c, 0, 82, 80
3, 16800, Note_on_c, 0, 79, 80
3, 17280, Note_on_c, 0, 79, 0
3, 17280, Note_on_c, 0, 82, 0
3, 17280, Note_on_c, 0, 81, 80
3, 17280, Note_on_c, 0, 78, 80
3, 17520, Note_on_c, 0, 78, 0
3, 17520, Note_on_c, 0, 81, 0
3, 17760, Note_on_c, 0, 79, 80
3, 17760, Note_on_c, 0, 82, 80
3, 18240, Note_on_c, 0, 82, 0
3, 18240, Note_on_c, 0, 79, 0
3, 18240, Note_on_c, 0, 81, 75
3, 18240, Note_on_c, 0, 78, 75
3, 18384, Note_on_c, 0, 78, 0
3, 18384, Note_on_c, 0, 81, 0
3, 18480, Note_on_c, 0, 82, 68
3, 18480, Note_on_c, 0, 79, 68
3, 18624, Note_on_c, 0, 79, 0
3, 18624, Note_on_c, 0, 82, 0
3, 18720, Note_on_c, 0, 78, 60
3, 18720, Note_on_c, 0, 81, 60
3, 18864, Note_on_c, 0, 81, 0
3, 18864, Note_on_c, 0, 78, 0
3, 18960, Note_on_c, 0, 82, 53
3, 18960, Note_on_c, 0, 79, 53
3, 19104, Note_on_c, 0, 79, 0
3, 19104, Note_on_c, 0, 82, 0
3, 19200, Note_on_c, 0, 78, 53
3, 19200, Note_on_c, 0, 81, 53
3, 19584, Note_on_c, 0, 81, 0
3, 19584, Note_on_c, 0, 78, 0
3, 21120, Note_on_c, 0, 82, 80
3, 21120, Note_on_c, 0, 74, 80
3, 23040, Note_on_c, 0, 74, 0
3, 23040, Note_on_c, 0, 72, 80
3, 24960, Note_on_c, 0, 72, 0
3, 24960, Note_on_c, 0, 82, 0
3, 24960, Note_on_c, 0, 72, 80
3, 24960, Note_on_c, 0, 81, 80
3, 26880, Note_on_c, 0, 81, 0
3, 26880, Note_on_c, 0, 72, 0
3, 26880, Note_on_c, 0, 74, 80
3, 26880, Note_on_c, 0, 82, 80
3, 27840, Note_on_c, 0, 82, 0
3, 27840, Note_on_c, 0, 74, 0
3, 27840, Note_on_c, 0, 77, 80
3, 28800, Note_on_c, 0, 77, 0
3, 28800, Note_on_c, 0, 75, 80
3, 29760, Note_on_c, 0, 75, 0
3, 29760, Note_on_c, 0, 74, 80
3, 30720, Note_on_c, 0, 74, 0
3, 30720, Note_on_c, 0, 72, 80
3, 31680, Note_on_c, 0, 72, 0
3, 31680, Note_on_c, 0, 70, 80
3, 32640, Note_on_c, 0, 70, 0
3, 32640, Note_on_c, 0, 79, 80
3, 32640, Note_on_c, 0, 82, 80
3, 33600, Note_on_c, 0, 82, 0
3, 33600, Note_on_c, 0, 79, 0
3, 33600, Note_on_c, 0, 82, 80
3, 33600, Note_on_c, 0, 79, 80
3, 34560, Note_on_c, 0, 79, 0
3, 34560, Note_on_c, 0, 82, 0
3, 34560, Note_on_c, 0, 82, 80
3, 34560, Note_on_c, 0, 79, 80
3, 35520, Note_on_c, 0, 79, 0
3, 35520, Note_on_c, 0, 82, 0
3, 35520, Note_on_c, 0, 82, 80
3, 35520, Note_on_c, 0, 79, 80
3, 36480, Note_on_c, 0, 79, 0
3, 36480, Note_on_c, 0, 82, 0
3, 36480, Note_on_c, 0, 77, 80
3, 36480, Note_on_c, 0, 81, 80
3, 37440, Note_on_c, 0, 81, 0
3, 37440, Note_on_c, 0, 82, 80
3, 37920, Note_on_c, 0, 82, 0
3, 37920, Note_on_c, 0, 77, 0
3, 37920, Note_on_c, 0, 76, 80
3, 37920, Note_on_c, 0, 79, 80
3, 38400, Note_on_c, 0, 79, 0
3, 38400, Note_on_c, 0, 76, 0
3, 38400, Note_on_c, 0, 77, 80
3, 38400, Note_on_c, 0, 81, 80
3, 39360, Note_on_c, 0, 81, 0
3, 39360, Note_on_c, 0, 77, 0
3, 39360, Note_on_c, 0, 82, 80
3, 39360, Note_on_c, 0, 77, 80
3, 39840, Note_on_c, 0, 77, 0
3, 39840, Note_on_c, 0, 79, 80
3, 40320, Note_on_c, 0, 79, 0
3, 40320, Note_on_c, 0, 82, 0
3, 40320, Note_on_c, 0, 77, 80
3, 40320, Note_on_c, 0, 81, 80
3, 40560, Note_on_c, 0, 81, 0
3, 40560, Note_on_c, 0, 77, 0
3, 40800, Note_on_c, 0, 72, 56
3, 40800, Note_on_c, 0, 69, 56
3, 41040, Note_on_c, 0, 69, 0
3, 41040, Note_on_c, 0, 72, 0
3, 59520, Note_on_c, 0, 73, 80
3, 59520, Note_on_c, 0, 79, 80
3, 60480, Note_on_c, 0, 79, 0
3, 60480, Note_on_c, 0, 82, 80
3, 61440, Note_on_c, 0, 82, 0
3, 61440, Note_on_c, 0, 73, 0
3, 61440, Note_on_c, 0, 74, 80
3, 61440, Note_on_c, 0, 82, 80
3, 62400, Note_on_c, 0, 82, 0
3, 62400, Note_on_c, 0, 74, 0
3, 62400, Note_on_c, 0, 75, 80
3, 62400, Note_on_c, 0, 81, 80
3, 62460, Note_on_c, 0, 81, 0
3, 62460, Note_on_c, 0, 82, 80
3, 62520, Note_on_c, 0, 82, 0
3, 62520, Note_on_c, 0, 81, 80
3, 62580, Note_on_c, 0, 81, 0
3, 62580, Note_on_c, 0, 82, 80
3, 62640, Note_on_c, 0, 82, 0
3, 62640, Note_on_c, 0, 81, 80
3, 62700, Note_on_c, 0, 81, 0
3, 62700, Note_on_c, 0, 82, 80
3, 62760, Note_on_c, 0, 82, 0
3, 62760, Note_on_c, 0, 81, 80
3, 62820, Note_on_c, 0, 81, 0
3, 62820, Note_on_c, 0, 82, 80
3, 62880, Note_on_c, 0, 82, 0
3, 62880, Note_on_c, 0, 81, 80
3, 62940, Note_on_c, 0, 81, 0
3, 62940, Note_on_c, 0, 82, 80
3, 63000, Note_on_c, 0, 82, 0
3, 63000, Note_on_c, 0, 81, 80
3, 63060, Note_on_c, 0, 81, 0
3, 63060, Note_on_c, 0, 82, 80
3, 63120, Note_on_c, 0, 82, 0
3, 63120, Note_on_c, 0, 81, 80
3, 63180, Note_on_c, 0, 81, 0
3, 63180, Note_on_c, 0, 82, 80
3, 63240, Note_on_c, 0, 82, 0
3, 63240, Note_on_c, 0, 79, 80
3, 63300, Note_on_c, 0, 79, 0
3, 63300, Note_on_c, 0, 81, 80
3, 63360, Note_on_c, 0, 81, 0
3, 63360, Note_on_c, 0, 75, 0
3, 63360, Note_on_c, 0, 74, 80
3, 63360, Note_on_c, 0, 82, 80
3, 63552, Note_on_c, 0, 82, 0
3, 63552, Note_on_c, 0, 74, 0
3, 65280, Note_on_c, 0, 74, 80
3, 65280, Note_on_c, 0, 77, 80
3, 65520, Note_on_c, 0, 77, 0
3, 65520, Note_on_c, 0, 74, 0
3, 65760, Note_on_c, 0, 75, 80
3, 65760, Note_on_c, 0, 79, 80
3, 66000, Note_on_c, 0, 79, 0
3, 66000, Note_on_c, 0, 75, 0
3, 66240, Note_on_c, 0, 77, 80
3, 66240, Note_on_c, 0, 81, 80
3, 66480, Note_on_c, 0, 81, 0
3, 66480, Note_on_c, 0, 77, 0
3, 66720, Note_on_c, 0, 82, 80
3, 66720, Note_on_c, 0, 77, 80
3, 66960, Note_on_c, 0, 77, 0
3, 66960, Note_on_c, 0, 82, 0
3, 73920, Note_on_c, 0, 81, 80
3, 73920, Note_on_c, 0, 84, 80
3, 74688, Note_on_c, 0, 84, 0
3, 74688, Note_on_c, 0, 81, 0
3, 81600, Note_on_c, 0, 84, 80
3, 81600, Note_on_c, 0, 81, 80
3, 82560, Note_on_c, 0, 81, 0
3, 82560, Note_on_c, 0, 84, 0
3, 82560, Note_on_c, 0, 82, 80
3, 83040, Note_on_c, 0, 82, 0
3, 83040, Note_on_c, 0, 84, 80
3, 83520, Note_on_c, 0, 84, 0
3, 83520, Note_on_c, 0, 77, 80
3, 83520, Note_on_c, 0, 82, 80
3, 84000, Note_on_c, 0, 82, 0
3, 84000, Note_on_c, 0, 77, 0
3, 84000, Note_on_c, 0, 75, 80
3, 84000, Note_on_c, 0, 81, 80
3, 84480, Note_on_c, 0, 81, 0
3, 84480, Note_on_c, 0, 75, 0
3, 84480, Note_on_c, 0, 82, 80
3, 84480, Note_on_c, 0, 74, 80
3, 84864, Note_on_c, 0, 74, 0
3, 84864, Note_on_c, 0, 82, 0
3, 85320, Note_on_c, 0, 77, 80
3, 85416, Note_on_c, 0, 77, 0
3, 85440, Note_on_c, 0, 75, 80
3, 85536, Note_on_c, 0, 75, 0
3, 85560, Note_on_c, 0, 74, 80
3, 85656, Note_on_c, 0, 74, 0
3, 85680, Note_on_c, 0, 72, 80
3, 85776, Note_on_c, 0, 72, 0
3, 85800, Note_on_c, 0, 70, 80
3, 85896, Note_on_c, 0, 70, 0
3, 85920, Note_on_c, 0, 69, 80
3, 86016, Note_on_c, 0, 69, 0
3, 86040, Note_on_c, 0, 67, 80
3, 86136, Note_on_c, 0, 67, 0
3, 86160, Note_on_c, 0, 65, 80
3, 86256, Note_on_c, 0, 65, 0
3, 86280, Note_on_c, 0, 63, 80
3, 86376, Note_on_c, 0, 63, 0
3, 86400, Note_on_c, 0, 62, 80
3, 86544, Note_on_c, 0, 62, 0
3, 86640, Note_on_c, 0, 70, 80
3, 86640, Note_on_c, 0, 77, 80
3, 86784, Note_on_c, 0, 77, 0
3, 86880, Note_on_c, 0, 79, 80
3, 87024, Note_on_c, 0, 79, 0
3, 87024, Note_on_c, 0, 70, 0
3, 87120, Note_on_c, 0, 75, 80
3, 87120, Note_on_c, 0, 81, 80
3, 87264, Note_on_c, 0, 81, 0
3, 87264, Note_on_c, 0, 75, 0
3, 87360, Note_on_c, 0, 74, 80
3, 87360, Note_on_c, 0, 82, 80
3, 87456, Note_on_c, 0, 82, 0
3, 87456, Note_on_c, 0, 74, 0
3, 87480, Note_on_c, 0, 77, 80
3, 87576, Note_on_c, 0, 77, 0
3, 87600, Note_on_c, 0, 86, 80
3, 87696, Note_on_c, 0, 86, 0
3, 87720, Note_on_c, 0, 84, 80
3, 87816, Note_on_c, 0, 84, 0
3, 87840, Note_on_c, 0, 82, 80
3, 87936, Note_on_c, 0, 82, 0
3, 87960, Note_on_c, 0, 81, 80
3, 88056, Note_on_c, 0, 81, 0
3, 88080, Note_on_c, 0, 79, 80
3, 88176, Note_on_c, 0, 79, 0
3, 88200, Note_on_c, 0, 77, 80
3, 88296, Note_on_c, 0, 77, 0
3, 88320, Note_on_c, 0, 75, 80
3, 88416, Note_on_c, 0, 75, 0
3, 88440, Note_on_c, 0, 74, 80
3, 88536, Note_on_c, 0, 74, 0
3, 88560, Note_on_c, 0, 72, 80
3, 88656, Note_on_c, 0, 72, 0
3, 88680, Note_on_c, 0, 70, 80
3, 88776, Note_on_c, 0, 70, 0
3, 88800, Note_on_c, 0, 69, 80
3, 88896, Note_on_c, 0, 69, 0
3, 88920, Note_on_c, 0, 72, 80
3, 89016, Note_on_c, 0, 72, 0
3, 89040, Note_on_c, 0, 77, 80
3, 89136, Note_on_c, 0, 77, 0
3, 89160, Note_on_c, 0, 75, 80
3, 89256, Note_on_c, 0, 75, 0
3, 89280, Note_on_c, 0, 74, 80
3, 89472, Note_on_c, 0, 74, 0
3, 89520, Note_on_c, 0, 70, 80
3, 89520, Note_on_c, 0, 77, 80
3, 89712, Note_on_c, 0, 77, 0
3, 89712, Note_on_c, 0, 70, 0
3, 89760, Note_on_c, 0, 75, 80
3, 89760, Note_on_c, 0, 79, 80
3, 89952, Note_on_c, 0, 79, 0
3, 89952, Note_on_c, 0, 75, 0
3, 90000, Note_on_c, 0, 81, 80
3, 90000, Note_on_c, 0, 84, 80
3, 90192, Note_on_c, 0, 84, 0
3, 90192, Note_on_c, 0, 81, 0
3, 90240, Note_on_c, 0, 82, 80
3, 90432, Note_on_c, 0, 82, 0
3, 90480, Note_on_c, 0, 75, 80
3, 90480, Note_on_c, 0, 82, 80
3, 90672, Note_on_c, 0, 82, 0
3, 90672, Note_on_c, 0, 75, 0
3, 90720, Note_on_c, 0, 74, 80
3, 90720, Note_on_c, 0, 82, 80
3, 90912, Note_on_c, 0, 82, 0
3, 90912, Note_on_c, 0, 74, 0
3, 90960, Note_on_c, 0, 75, 80
3, 90960, Note_on_c, 0, 77, 80
3, 91152, Note_on_c, 0, 77, 0
3, 91152, Note_on_c, 0, 75, 0
3, 91200, Note_on_c, 0, 74, 80
3, 91200, Note_on_c, 0, 77, 80
3, 91392, Note_on_c, 0, 77, 0
3, 91392, Note_on_c, 0, 74, 0
3, 91440, Note_on_c, 0, 74, 80
3, 91440, Note_on_c, 0, 77, 80
3, 91536, Note_on_c, 0, 77, 0
3, 91536, Note_on_c, 0, 74, 0
3, 91560, Note_on_c, 0, 74, 80
3, 91560, Note_on_c, 0, 77, 80
3, 91656, Note_on_c, 0, 77, 0
3, 91656, Note_on_c, 0, 74, 0
3, 91680, Note_on_c, 0, 75, 80
3, 91680, Note_on_c, 0, 77, 80
3, 91872, Note_on_c, 0, 77, 0
3, 91872, Note_on_c, 0, 75, 0
3, 91920, Note_on_c, 0, 75, 80
3, 91920, Note_on_c, 0, 77, 80
3, 92016, Note_on_c, 0, 77, 0
3, 92016, Note_on_c, 0, 75, 0
3, 92040, Note_on_c, 0, 75, 80
3, 92040, Note_on_c, 0, 77, 80
3, 92136, Note_on_c, 0, 77, 0
3, 92136, Note_on_c, 0, 75, 0
3, 92160, Note_on_c, 0, 77, 80
3, 92160, Note_on_c, 0, 74, 80
3, 92352, Note_on_c, 0, 74, 0
3, 92352, Note_on_c, 0, 77, 0
3, 92400, Note_on_c, 0, 77, 80
3, 92400, Note_on_c, 0, 74, 80
3, 92496, Note_on_c, 0, 74, 0
3, 92496, Note_on_c, 0, 77, 0
3, 92520, Note_on_c, 0, 77, 80
3, 92520, Note_on_c, 0, 74, 80
3, 92616, Note_on_c, 0, 74, 0
3, 92616, Note_on_c, 0, 77, 0
3, 92640, Note_on_c, 0, 77, 80
3, 92640, Note_on_c, 0, 75, 80
3, 92832, Note_on_c, 0, 75, 0
3, 92832, Note_on_c, 0, 77, 0
3, 92880, Note_on_c, 0, 77, 80
3, 92880, Note_on_c, 0, 75, 80
3, 92976, Note_on_c, 0, 75, 0
3, 92976, Note_on_c, 0, 77, 0
3, 93000, Note_on_c, 0, 77, 80
3, 93000, Note_on_c, 0, 75, 80
3, 93096, Note_on_c, 0, 75, 0
3, 93096, Note_on_c, 0, 77, 0
3, 93120, Note_on_c, 0, 74, 80
3, 93120, Note_on_c, 0, 77, 80
3, 93312, Note_on_c, 0, 77, 0
3, 93312, Note_on_c, 0, 74, 0
3, 93360, Note_on_c, 0, 74, 80
3, 93360, Note_on_c, 0, 77, 80
3, 93456, Note_on_c, 0, 77, 0
3, 93456, Note_on_c, 0, 74, 0
3, 93480, Note_on_c, 0, 74, 80
3, 93480, Note_on_c, 0, 77, 80
3, 93576, Note_on_c, 0, 77, 0
3, 93576, Note_on_c, 0, 74, 0
3, 93600, Note_on_c, 0, 75, 80
3, 93600, Note_on_c, 0, 77, 80
3, 93792, Note_on_c, 0, 77, 0
3, 93792, Note_on_c, 0, 75, 0
3, 93840, Note_on_c, 0, 75, 80
3, 93840, Note_on_c, 0, 77, 80
3, 93936, Note_on_c, 0, 77, 0
3, 93936, Note_on_c, 0, 75, 0
3, 93960, Note_on_c, 0, 75, 80
3, 93960, Note_on_c, 0, 77, 80
3, 94056, Note_on_c, 0, 77, 0
3, 94056, Note_on_c, 0, 75, 0
3, 94080, Note_on_c, 0, 74, 80
3, 94080, Note_on_c, 0, 77, 80
3, 94272, Note_on_c, 0, 77, 0
3, 94272, Note_on_c, 0, 74, 0
3, 94320, Note_on_c, 0, 75, 80
3, 94320, Note_on_c, 0, 77, 80
3, 94512, Note_on_c, 0, 77, 0
3, 94512, Note_on_c, 0, 75, 0
3, 94560, Note_on_c, 0, 74, 80
3, 94560, Note_on_c, 0, 77, 80
3, 94752, Note_on_c, 0, 77, 0
3, 94752, Note_on_c, 0, 74, 0
3, 94800, Note_on_c, 0, 75, 80
3, 94800, Note_on_c, 0, 77, 80
3, 94992, Note_on_c, 0, 77, 0
3, 94992, Note_on_c, 0, 75, 0
3, 95040, Note_on_c, 0, 74, 80
3, 95040, Note_on_c, 0, 77, 80
3, 95328, Note_on_c, 0, 77, 0
3, 95328, Note_on_c, 0, 74, 0
3, 96000, Note_on_c, 0, 72, 80
3, 96000, Note_on_c, 0, 78, 80
3, 96288, Note_on_c, 0, 78, 0
3, 96288, Note_on_c, 0, 72, 0
3, 111840, Note_on_c, 0, 82, 80
3, 111840, Note_on_c, 0, 79, 80
3, 112320, Note_on_c, 0, 79, 0
3, 112320, Note_on_c, 0, 82, 0
3, 112320, Note_on_c, 0, 81, 80
3, 112320, Note_on_c, 0, 78, 80
3, 112560, Note_on_c, 0, 78, 0
3, 112560, Note_on_c, 0, 81, 0
3, 112800, Note_on_c, 0, 79, 80
3, 112800, Note_on_c, 0, 82, 80
3, 113280, Note_on_c, 0, 82, 0
3, 113280, Note_on_c, 0, 79, 0
3, 113280, Note_on_c, 0, 78, 80
3, 113280, Note_on_c, 0, 81, 80
3, 113520, Note_on_c, 0, 81, 0
3, 113520, Note_on_c, 0, 78, 0
3, 113760, Note_on_c, 0, 82, 80
3, 113760, Note_on_c, 0, 79, 80
3, 114240, Note_on_c, 0, 79, 0
3, 114240, Note_on_c, 0, 82, 0
3, 114240, Note_on_c, 0, 78, 75
3, 114240, Note_on_c, 0, 81, 75
3, 114384, Note_on_c, 0, 81, 0
3, 114384, Note_on_c, 0, 78, 0
3, 114480, Note_on_c, 0, 79, 68
3, 114480, Note_on_c, 0, 82, 68
3, 114624, Note_on_c, 0, 82, 0
3, 114624, Note_on_c, 0, 79, 0
3, 114720, Note_on_c, 0, 81, 60
3, 114720, Note_on_c, 0, 78, 60
3, 114864, Note_on_c, 0, 78, 0
3, 114864, Note_on_c, 0, 81, 0
3, 114960, Note_on_c, 0, 79, 53
3, 114960, Note_on_c, 0, 82, 53
3, 115104, Note_on_c, 0, 82, 0
3, 115104, Note_on_c, 0, 79, 0
3, 115200, Note_on_c, 0, 81, 53
3, 115200, Note_on_c, 0, 78, 53
3, 115584, Note_on_c, 0, 78, 0
3, 115584, Note_on_c, 0, 81, 0
3, 117120, Note_on_c, 0, 82, 80
3, 117120, Note_on_c, 0, 74, 80
3, 119040, Note_on_c, 0, 74, 0
3, 119040, Note_on_c, 0, 72, 80
3, 120960, Note_on_c, 0, 72, 0
3, 120960, Note_on_c, 0, 82, 0
3, 120960, Note_on_c, 0, 81, 80
3, 120960, Note_on_c, 0, 72, 80
3, 122880, Note_on_c, 0, 72, 0
3, 122880, Note_on_c, 0, 81, 0
3, 122880, Note_on_c, 0, 82, 80
3, 122880, Note_on_c, 0, 74, 80
3, 123840, Note_on_c, 0, 74, 0
3, 123840, Note_on_c, 0, 82, 0
3, 123840, Note_on_c, 0, 77, 80
3, 124800, Note_on_c, 0, 77, 0
3, 124800, Note_on_c, 0, 75, 80
3, 125760, Note_on_c, 0, 75, 0
3, 125760, Note_on_c, 0, 74, 80
3, 126720, Note_on_c, 0, 74, 0
3, 126720, Note_on_c, 0, 72, 80
3, 127680, Note_on_c, 0, 72, 0
3, 127680, Note_on_c, 0, 70, 80
3, 128640, Note_on_c, 0, 70, 0
3, 128640, Note_on_c, 0, 82, 80
3, 128640, Note_on_c, 0, 79, 80
3, 129600, Note_on_c, 0, 79, 0
3, 129600, Note_on_c, 0, 82, 0
3, 129600, Note_on_c, 0, 79, 80
3, 129600, Note_on_c, 0, 82, 80
3, 130560, Note_on_c, 0, 82, 0
3, 130560, Note_on_c, 0, 79, 0
3, 130560, Note_on_c, 0, 79, 80
3, 130560, Note_on_c, 0, 82, 80
3, 131520, Note_on_c, 0, 82, 0
3, 131520, Note_on_c, 0, 79, 0
3, 131520, Note_on_c, 0, 79, 80
3, 131520, Note_on_c, 0, 82, 80
3, 132480, Note_on_c, 0, 82, 0
3, 132480, Note_on_c, 0, 79, 0
3, 132480, Note_on_c, 0, 77, 80
3, 132480, Note_on_c, 0, 81, 80
3, 133440, Note_on_c, 0, 81, 0
3, 133440, Note_on_c, 0, 82, 80
3, 133920, Note_on_c, 0, 82, 0
3, 133920, Note_on_c, 0, 77, 0
3, 133920, Note_on_c, 0, 79, 80
3, 133920, Note_on_c, 0, 76, 80
3, 134400, Note_on_c, 0, 76, 0
3, 134400, Note_on_c, 0, 79, 0
3, 134400, Note_on_c, 0, 81, 80
3, 134400, Note_on_c, 0, 77, 80
3, 135360, Note_on_c, 0, 77, 0
3, 135360, Note_on_c, 0, 81, 0
3, 135360, Note_on_c, 0, 82, 80
3, 135360, Note_on_c, 0, 77, 80
3, 135840, Note_on_c, 0, 77, 0
3, 135840, Note_on_c, 0, 79, 80
3, 136320, Note_on_c, 0, 79, 0
3, 136320, Note_on_c, 0, 82, 0
3, 136320, Note_on_c, 0, 81, 80
3, 136320, Note_on_c, 0, 77, 80
3, 136560, Note_on_c, 0, 77, 0
3, 136560, Note_on_c, 0, 81, 0
3, 136800, Note_on_c, 0, 69, 56
3, 136800, Note_on_c, 0, 72, 56
3, 137040, Note_on_c, 0, 72, 0
3, 137040, Note_on_c, 0, 69, 0
3, 155520, Note_on_c, 0, 73, 80
3, 155520, Note_on_c, 0, 79, 80
3, 156480, Note_on_c, 0, 79, 0
3, 156480, Note_on_c, 0, 82, 80
3, 157440, Note_on_c, 0, 82, 0
3, 157440, Note_on_c, 0, 73, 0
3, 157440, Note_on_c, 0, 82, 80
3, 157440, Note_on_c, 0, 74, 80
3, 158400, Note_on_c, 0, 74, 0
3, 158400, Note_on_c, 0, 82, 0
3, 158400, Note_on_c, 0, 75, 80
3, 158400, Note_on_c, 0, 81, 80
3, 158460, Note_on_c, 0, 81, 0
3, 158460, Note_on_c, 0, 82, 80
3, 158520, Note_on_c, 0, 82, 0
3, 158520, Note_on_c, 0, 81, 80
3, 158580, Note_on_c, 0, 81, 0
3, 158580, Note_on_c, 0, 82, 80
3, 158640, Note_on_c, 0, 82, 0
3, 158640, Note_on_c, 0, 81, 80
3, 158700, Note_on_c, 0, 81, 0
3, 158700, Note_on_c, 0, 82, 80
3, 158760, Note_on_c, 0, 82, 0
3, 158760, Note_on_c, 0, 81, 80
3, 158820, Note_on_c, 0, 81, 0
3, 158820, Note_on_c, 0, 82, 80
3, 158880, Note_on_c, 0, 82, 0
3, 158880, Note_on_c, 0, 81, 80
3, 158940, Note_on_c, 0, 81, 0
3, 158940, Note_on_c, 0, 82, 80
3, 159000, Note_on_c, 0, 82, 0
3, 159000, Note_on_c, 0, 81, 80
3, 159060, Note_on_c, 0, 81, 0
3, 159060, Note_on_c, 0, 82, 80
3, 159120, Note_on_c, 0, 82, 0
3, 159120, Note_on_c, 0, 81, 80
3, 159180, Note_on_c, 0, 81, 0
3, 159180, Note_on_c, 0, 82, 80
3, 159240, Note_on_c, 0, 82, 0
3, 159240, Note_on_c, 0, 79, 80
3, 159300, Note_on_c, 0, 79, 0
3, 159300, Note_on_c, 0, 81, 80
3, 159360, Note_on_c, 0, 81, 0
3, 159360, Note_on_c, 0, 75, 0
3, 159360, Note_on_c, 0, 82, 80
3, 159360, Note_on_c, 0, 74, 80
3, 159552, Note_on_c, 0, 74, 0
3, 159552, Note_on_c, 0, 82, 0
3, 161280, Note_on_c, 0, 77, 80
3, 161280, Note_on_c, 0, 74, 80
3, 161520, Note_on_c, 0, 74, 0
3, 161520, Note_on_c, 0, 77, 0
3, 161760, Note_on_c, 0, 79, 80
3, 161760, Note_on_c, 0, 75, 80
3, 162000, Note_on_c, 0, 75, 0
3, 162000, Note_on_c, 0, 79, 0
3, 162240, Note_on_c, 0, 81, 80
3, 162240, Note_on_c, 0, 77, 80
3, 162480, Note_on_c, 0, 77, 0
3, 162480, Note_on_c, 0, 81, 0
3, 162720, Note_on_c, 0, 77, 80
3, 162720, Note_on_c, 0, 82, 80
3, 162960, Note_on_c, 0, 82, 0
3, 162960, Note_on_c, 0, 77, 0
3, 169920, Note_on_c, 0, 84, 80
3, 169920, Note_on_c, 0, 81, 80
3, 170688, Note_on_c, 0, 81, 0
3, 170688, Note_on_c, 0, 84, 0
3, 177600, Note_on_c, 0, 81, 80
3, 177600, Note_on_c, 0, 84, 80
3, 178560, Note_on_c, 0, 84, 0
3, 178560, Note_on_c, 0, 81, 0
3, 178560, Note_on_c, 0, 82, 80
3, 179040, Note_on_c, 0, 82, 0
3, 179040, Note_on_c, 0, 84, 80
3, 179520, Note_on_c, 0, 84, 0
3, 179520, Note_on_c, 0, 82, 80
3, 179520, Note_on_c, 0, 77, 80
3, 180000, Note_on_c, 0, 77, 0
3, 180000, Note_on_c, 0, 82, 0
3, 180000, Note_on_c, 0, 81, 80
3, 180000, Note_on_c, 0, 75, 80
3, 180480, Note_on_c, 0, 75, 0
3, 180480, Note_on_c, 0, 81, 0
3, 180480, Note_on_c, 0, 74, 80
3, 180480, Note_on_c, 0, 82, 80
3, 180864, Note_on_c, 0, 82, 0
3, 180864, Note_on_c, 0, 74, 0
3, 181320, Note_on_c, 0, 77, 80
3, 181416, Note_on_c, 0, 77, 0
3, 181440, Note_on_c, 0, 75, 80
3, 181536, Note_on_c, 0, 75, 0
3, 181560, Note_on_c, 0, 74, 80
3, 181656, Note_on_c, 0, 74, 0
3, 181680, Note_on_c, 0, 72, 80
3, 181776, Note_on_c, 0, 72, 0
3, 181800, Note_on_c, 0, 70, 80
3, 181896, Note_on_c, 0, 70, 0
3, 181920, Note_on_c, 0, 69, 80
3, 182016, Note_on_c, 0, 69, 0
3, 182040, Note_on_c, 0, 67, 80
3, 182136, Note_on_c, 0, 67, 0
3, 182160, Note_on_c, 0, 65, 80
3, 182256, Note_on_c, 0, 65, 0
3, 182280, Note_on_c, 0, 63, 80
3, 182376, Note_on_c, 0, 63, 0
3, 182400, Note_on_c, 0, 62, 80
3, 182544, Note_on_c, 0, 62, 0
3, 182640, Note_on_c, 0, 70, 80
3, 182640, Note_on_c, 0, 77, 80
3, 182784, Note_on_c, 0, 77, 0
3, 182880, Note_on_c, 0, 79, 80
3, 183024, Note_on_c, 0, 79, 0
3, 183024, Note_on_c, 0, 70, 0
3, 183120, Note_on_c, 0, 81, 80
3, 183120, Note_on_c, 0, 75, 80
3, 183264, Note_on_c, 0, 75, 0
3, 183264, Note_on_c, 0, 81, 0
3, 183360, Note_on_c, 0, 82, 80
3, 183360, Note_on_c, 0, 74, 80
3, 183456, Note_on_c, 0, 74, 0
3, 183456, Note_on_c, 0, 82, 0
3, 183480, Note_on_c, 0, 77, 80
3, 183576, Note_on_c, 0, 77, 0
3, 183600, Note_on_c, 0, 86, 80
3, 183696, Note_on_c, 0, 86, 0
3, 183720, Note_on_c, 0, 84, 80
3, 183816, Note_on_c, 0, 84, 0
3, 183840, Note_on_c, 0, 82, 80
3, 183936, Note_on_c, 0, 82, 0
3, 183960, Note_on_c, 0, 81, 80
3, 184056, Note_on_c, 0, 81, 0
3, 184080, Note_on_c, 0, 79, 80
3, 184176, Note_on_c, 0, 79, 0
3, 184200, Note_on_c, 0, 77, 80
3, 184296, Note_on_c, 0, 77, 0
3, 184320, Note_on_c, 0, 75, 80
3, 184416, Note_on_c, 0, 75, 0
3, 184440, Note_on_c, 0, 74, 80
3, 184536, Note_on_c, 0, 74, 0
3, 184560, Note_on_c, 0, 72, 80
3, 184656, Note_on_c, 0, 72, 0
3, 184680, Note_on_c, 0, 70, 80
3, 184776, Note_on_c, 0, 70, 0
3, 184800, Note_on_c, 0, 69, 80
3, 184896, Note_on_c, 0, 69, 0
3, 184920, Note_on_c, 0, 72, 80
3, 185016, Note_on_c, 0, 72, 0
3, 185040, Note_on_c, 0, 77, 80
3, 185136, Note_on_c, 0, 77, 0
3, 185160, Note_on_c, 0, 75, 80
3, 185256, Note_on_c, 0, 75, 0
3, 185280, Note_on_c, 0, 74, 80
3, 185472, Note_on_c, 0, 74, 0
3, 185520, Note_on_c, 0, 77, 80
3, 185520, Note_on_c, 0, 70, 80
3, 185712, Note_on_c, 0, 70, 0
3, 185712, Note_on_c, 0, 77, 0
3, 185760, Note_on_c, 0, 79, 80
3, 185760, Note_on_c, 0, 75, 80
3, 185952, Note_on_c, 0, 75, 0
3, 185952, Note_on_c, 0, 79, 0
3, 186000, Note_on_c, 0, 84, 80
3, 186000, Note_on_c, 0, 81, 80
3, 186192, Note_on_c, 0, 81, 0
3, 186192, Note_on_c, 0, 84, 0
3, 186240, Note_on_c, 0, 82, 80
3, 186432, Note_on_c, 0, 82, 0
3, 186480, Note_on_c, 0, 82, 80
3, 186480, Note_on_c, 0, 75, 80
3, 186672, Note_on_c, 0, 75, 0
3, 186672, Note_on_c, 0, 82, 0
3, 186720, Note_on_c, 0, 82, 80
3, 186720, Note_on_c, 0, 74, 80
3, 186912, Note_on_c, 0, 74, 0
3, 186912, Note_on_c, 0, 82, 0
3, 186960, Note_on_c, 0, 77, 80
3, 186960, Note_on_c, 0, 75, 80
3, 187152, Note_on_c, 0, 75, 0
3, 187152, Note_on_c, 0, 77, 0
3, 187200, Note_on_c, 0, 77, 80
3, 187200, Note_on_c, 0, 74, 80
3, 187392, Note_on_c, 0, 74, 0
3, 187392, Note_on_c, 0, 77, 0
3, 187440, Note_on_c, 0, 77, 80
3, 187440, Note_on_c, 0, 74, 80
3, 187536, Note_on_c, 0, 74, 0
3, 187536, Note_on_c, 0, 77, 0
3, 187560, Note_on_c, 0, 77, 80
3, 187560, Note_on_c, 0, 74, 80
3, 187656, Note_on_c, 0, 74, 0
3, 187656, Note_on_c, 0, 77, 0
3, 187680, Note_on_c, 0, 77, 80
3, 187680, Note_on_c, 0, 75, 80
3, 187872, Note_on_c, 0, 75, 0
3, 187872, Note_on_c, 0, 77, 0
3, 187920, Note_on_c, 0, 77, 80
3, 187920, Note_on_c, 0, 75, 80
3, 188016, Note_on_c, 0, 75, 0
3, 188016, Note_on_c, 0, 77, 0
3, 188040, Note_on_c, 0, 77, 80
3, 188040, Note_on_c, 0, 75, 80
3, 188136, Note_on_c, 0, 75, 0
3, 188136, Note_on_c, 0, 77, 0
3, 188160, Note_on_c, 0, 74, 80
3, 188160, Note_on_c, 0, 77, 80
3, 188352, Note_on_c, 0, 77, 0
3, 188352, Note_on_c, 0, 74, 0
3, 188400, Note_on_c, 0, 74, 80
3, 188400, Note_on_c, 0, 77, 80
3, 188496, Note_on_c, 0, 77, 0
3, 188496, Note_on_c, 0, 74, 0
3, 188520, Note_on_c, 0, 74, 80
3, 188520, Note_on_c, 0, 77, 80
3, 188616, Note_on_c, 0, 77, 0
3, 188616, Note_on_c, 0, 74, 0
3, 188640, Note_on_c, 0, 75, 80
3, 188640, Note_on_c, 0, 77, 80
3, 188832, Note_on_c, 0, 77, 0
3, 188832, Note_on_c, 0, 75, 0
3, 188880, Note_on_c, 0, 75, 80
3, 188880, Note_on_c, 0, 77, 80
3, 188976, Note_on_c, 0, 77, 0
3, 188976, Note_on_c, 0, 75, 0
3, 189000, Note_on_c, 0, 75, 80
3, 189000, Note_on_c, 0, 77, 80
3, 189096, Note_on_c, 0, 77, 0
3, 189096, Note_on_c, 0, 75, 0
3, 189120, Note_on_c, 0, 77, 80
3, 189120, Note_on_c, 0, 74, 80
3, 189312, Note_on_c, 0, 74, 0
3, 189312, Note_on_c, 0, 77, 0
3, 189360, Note_on_c, 0, 77, 80
3, 189360, Note_on_c, 0, 74, 80
3, 189456, Note_on_c, 0, 74, 0
3, 189456, Note_on_c, 0, 77, 0
3, 189480, Note_on_c, 0, 77, 80
3, 189480, Note_on_c, 0, 74, 80
3, 189576, Note_on_c, 0, 74, 0
3, 189576, Note_on_c, 0, 77, 0
3, 189600, Note_on_c, 0, 77, 80
3, 189600, Note_on_c, 0, 75, 80
3, 189792, Note_on_c, 0, 75, 0
3, 189792, Note_on_c, 0, 77, 0
3, 189840, Note_on_c, 0, 77, 80
3, 189840, Note_on_c, 0, 75, 80
3, 189936, Note_on_c, 0, 75, 0
3, 189936, Note_on_c, 0, 77, 0
3, 189960, Note_on_c, 0, 77, 80
3, 189960, Note_on_c, 0, 75, 80
3, 190056, Note_on_c, 0, 75, 0
3, 190056, Note_on_c, 0, 77, 0
3, 190080, Note_on_c, 0, 77, 80
3, 190080, Note_on_c, 0, 74, 80
3, 190272, Note_on_c, 0, 74, 0
3, 190272, Note_on_c, 0, 77, 0
3, 190320, Note_on_c, 0, 77, 80
3, 190320, Note_on_c, 0, 75, 80
3, 190512, Note_on_c, 0, 75, 0
3, 190512, Note_on_c, 0, 77, 0
3, 190560, Note_on_c, 0, 77, 80
3, 190560, Note_on_c, 0, 74, 80
3, 190752, Note_on_c, 0, 74, 0
3, 190752, Note_on_c, 0, 77, 0
3, 190800, Note_on_c, 0, 77, 80
3, 190800, Note_on_c, 0, 75, 80
3, 190992, Note_on_c, 0, 75, 0
3, 190992, Note_on_c, 0, 77, 0
3, 191040, Note_on_c, 0, 77, 80
3, 191040, Note_on_c, 0, 74, 80
3, 191328, Note_on_c, 0, 74, 0
3, 191328, Note_on_c, 0, 77, 0
3, 192000, Note_on_c, 0, 78, 80
3, 192000, Note_on_c, 0, 72, 80
3, 192288, Note_on_c, 0, 72, 0
3, 192288, Note_on_c, 0, 78, 0
3, 192960, Note_on_c, 0, 70, 80
3, 192960, Note_on_c, 0, 79, 80
3, 193152, Note_on_c, 0, 79, 0
3, 193152, Note_on_c, 0, 70, 0
3, 193440, Note_on_c, 0, 71, 80
3, 193440, Note_on_c, 0, 80, 80
3, 193632, Note_on_c, 0, 80, 0
3, 193632, Note_on_c, 0, 71, 0
3, 193920, Note_on_c, 0, 83, 64
3, 194880, Note_on_c, 0, 83, 0
3, 194880, Note_on_c, 0, 81, 64
3, 195360, Note_on_c, 0, 81, 0
3, 195360, Note_on_c, 0, 80, 64
3, 195840, Note_on_c, 0, 80, 0
3, 195840, Note_on_c, 0, 78, 64
3, 196320, Note_on_c, 0, 78, 0
3, 196320, Note_on_c, 0, 77, 64
3, 196800, Note_on_c, 0, 77, 0
3, 196800, Note_on_c, 0, 78, 64
3, 197088, Note_on_c, 0, 78, 0
3, 206160, Note_on_c, 0, 78, 80
3, 206160, Note_on_c, 0, 81, 80
3, 206400, Note_on_c, 0, 81, 0
3, 206400, Note_on_c, 0, 79, 80
3, 206640, Note_on_c, 0, 78, 0
3, 206640, Note_on_c, 0, 76, 80
3, 206880, Note_on_c, 0, 79, 0
3, 206880, Note_on_c, 0, 78, 80
3, 207120, Note_on_c, 0, 76, 0
3, 207120, Note_on_c, 0, 75, 80
3, 207360, Note_on_c, 0, 75, 0
3, 207360, Note_on_c, 0, 78, 0
3, 207360, Note_on_c, 0, 79, 80
3, 207360, Note_on_c, 0, 76, 80
3, 207720, Note_on_c, 0, 76, 0
3, 207720, Note_on_c, 0, 79, 0
3, 210000, Note_on_c, 0, 76, 80
3, 210240, Note_on_c, 0, 81, 80
3, 210480, Note_on_c, 0, 76, 0
3, 210480, Note_on_c, 0, 74, 80
3, 210720, Note_on_c, 0, 81, 0
3, 210720, Note_on_c, 0, 79, 80
3, 210960, Note_on_c, 0, 74, 0
3, 210960, Note_on_c, 0, 73, 80
3, 211200, Note_on_c, 0, 73, 0
3, 211200, Note_on_c, 0, 79, 0
3, 211200, Note_on_c, 0, 77, 80
3, 211200, Note_on_c, 0, 74, 80
3, 211560, Note_on_c, 0, 74, 0
3, 211560, Note_on_c, 0, 77, 0
3, 213840, Note_on_c, 0, 74, 72
3, 213840, Note_on_c, 0, 77, 72
3, 214080, Note_on_c, 0, 77, 0
3, 214080, Note_on_c, 0, 76, 72
3, 214320, Note_on_c, 0, 74, 0
3, 214320, Note_on_c, 0, 72, 72
3, 214560, Note_on_c, 0, 76, 0
3, 214560, Note_on_c, 0, 74, 72
3, 214800, Note_on_c, 0, 72, 0
3, 214800, Note_on_c, 0, 71, 72
3, 215040, Note_on_c, 0, 71, 0
3, 215040, Note_on_c, 0, 74, 0
3, 215040, Note_on_c, 0, 76, 72
3, 215040, Note_on_c, 0, 72, 72
3, 215400, Note_on_c, 0, 72, 0
3, 215400, Note_on_c, 0, 76, 0
3, 216960, Note_on_c, 0, 65, 72
3, 216960, Note_on_c, 0, 77, 72
3, 217680, Note_on_c, 0, 77, 0
3, 217680, Note_on_c, 0, 65, 0
3, 217680, Note_on_c, 0, 84, 72
3, 217680, Note_on_c, 0, 72, 72
3, 217920, Note_on_c, 0, 72, 0
3, 217920, Note_on_c, 0, 77, 72
3, 218160, Note_on_c, 0, 84, 0
3, 218160, Note_on_c, 0, 82, 72
3, 218400, Note_on_c, 0, 77, 0
3, 218400, Note_on_c, 0, 75, 72
3, 218640, Note_on_c, 0, 82, 0
3, 218640, Note_on_c, 0, 81, 72
3, 218880, Note_on_c, 0, 81, 0
3, 218880, Note_on_c, 0, 75, 0
3, 218880, Note_on_c, 0, 74, 72
3, 218880, Note_on_c, 0, 82, 72
3, 219360, Note_on_c, 0, 82, 0
3, 219360, Note_on_c, 0, 77, 72
3, 219840, Note_on_c, 0, 77, 0
3, 219840, Note_on_c, 0, 74, 0
3, 219840, Note_on_c, 0, 74, 72
3, 219840, Note_on_c, 0, 86, 72
3, 221040, Note_on_c, 0, 86, 0
3, 221040, Note_on_c, 0, 74, 0
3, 221040, Note_on_c, 0, 72, 72
3, 221040, Note_on_c, 0, 84, 72
3, 221160, Note_on_c, 0, 84, 0
3, 221160, Note_on_c, 0, 72, 0
3, 221160, Note_on_c, 0, 70, 72
3, 221160, Note_on_c, 0, 82, 72
3, 221280, Note_on_c, 0, 82, 0
3, 221280, Note_on_c, 0, 70, 0
3, 221280, Note_on_c, 0, 72, 72
3, 221280, Note_on_c, 0, 84, 72
3, 222960, Note_on_c, 0, 84, 0
3, 222960, Note_on_c, 0, 72, 0
3, 222960, Note_on_c, 0, 70, 72
3, 222960, Note_on_c, 0, 82, 72
3, 223080, Note_on_c, 0, 82, 0
3, 223080, Note_on_c, 0, 70, 0
3, 223080, Note_on_c, 0, 69, 72
3, 223080, Note_on_c, 0, 81, 72
3, 223200, Note_on_c, 0, 81, 0
3, 223200, Note_on_c, 0, 69, 0
3, 223200, Note_on_c, 0, 70, 72
3, 223200, Note_on_c, 0, 82, 72
3, 223560, Note_on_c, 0, 82, 0
3, 223560, Note_on_c, 0, 70, 0
3, 223680, Note_on_c, 0, 79, 80
3, 223968, Note_on_c, 0, 79, 0
3, 224040, Note_on_c, 0, 77, 80
3, 224136, Note_on_c, 0, 77, 0
3, 224160, Note_on_c, 0, 76, 80
3, 224448, Note_on_c, 0, 76, 0
3, 224520, Note_on_c, 0, 74, 80
3, 224616, Note_on_c, 0, 74, 0
3, 224640, Note_on_c, 0, 73, 80
3, 224640, Note_on_c, 0, 76, 80
3, 225120, Note_on_c, 0, 76, 0
3, 225120, Note_on_c, 0, 73, 0
3, 225120, Note_on_c, 0, 74, 80
3, 225120, Note_on_c, 0, 77, 80
3, 225600, Note_on_c, 0, 77, 0
3, 225600, Note_on_c, 0, 74, 0
3, 225600, Note_on_c, 0, 76, 80
3, 225600, Note_on_c, 0, 73, 80
3, 226080, Note_on_c, 0, 73, 0
3, 226080, Note_on_c, 0, 76, 0
3, 226080, Note_on_c, 0, 77, 80
3, 226080, Note_on_c, 0, 74, 80
3, 226560, Note_on_c, 0, 74, 0
3, 226560, Note_on_c, 0, 77, 0
3, 226560, Note_on_c, 0, 76, 80
3, 226560, Note_on_c, 0, 73, 80
3, 227040, Note_on_c, 0, 73, 0
3, 227040, Note_on_c, 0, 76, 0
3, 227040, Note_on_c, 0, 77, 80
3, 227040, Note_on_c, 0, 74, 80
3, 227520, Note_on_c, 0, 74, 0
3, 227520, Note_on_c, 0, 77, 0
3, 227520, Note_on_c, 0, 76, 80
3, 227520, Note_on_c, 0, 73, 80
3, 228000, Note_on_c, 0, 73, 0
3, 228000, Note_on_c, 0, 76, 0
3, 228000, Note_on_c, 0, 77, 80
3, 228000, Note_on_c, 0, 74, 80
3, 228480, Note_on_c, 0, 74, 0
3, 228480, Note_on_c, 0, 77, 0
3, 228480, Note_on_c, 0, 73, 80
3, 228480, Note_on_c, 0, 76, 80
3, 228960, Note_on_c, 0, 76, 0
3, 228960, Note_on_c, 0, 73, 0
3, 242880, Note_on_c, 0, 75, 64
3, 242880, Note_on_c, 0, 78, 64
3, 243120, Note_on_c, 0, 78, 0
3, 243120, Note_on_c, 0, 75, 0
3, 243120, Note_on_c, 0, 78, 64
3, 243120, Note_on_c, 0, 81, 64
3, 243360, Note_on_c, 0, 81, 0
3, 243360, Note_on_c, 0, 78, 0
3, 243360, Note_on_c, 0, 81, 64
3, 243360, Note_on_c, 0, 84, 64
3, 243600, Note_on_c, 0, 84, 0
3, 243600, Note_on_c, 0, 81, 0
3, 243840, Note_on_c, 0, 70, 64
3, 243840, Note_on_c, 0, 74, 64
3, 244080, Note_on_c, 0, 74, 0
3, 244080, Note_on_c, 0, 70, 0
3, 244080, Note_on_c, 0, 74, 64
3, 244080, Note_on_c, 0, 79, 64
3, 244320, Note_on_c, 0, 79, 0
3, 244320, Note_on_c, 0, 74, 0
3, 244320, Note_on_c, 0, 79, 64
3, 244320, Note_on_c, 0, 82, 64
3, 244560, Note_on_c, 0, 82, 0
3, 244560, Note_on_c, 0, 79, 0
3, 244800, Note_on_c, 0, 82, 64
3, 244800, Note_on_c, 0, 85, 64
3, 245040, Note_on_c, 0, 85, 0
3, 245040, Note_on_c, 0, 82, 0
3, 245040, Note_on_c, 0, 79, 64
3, 245040, Note_on_c, 0, 82, 64
3, 245280, Note_on_c, 0, 82, 0
3, 245280, Note_on_c, 0, 79, 0
3, 245280, Note_on_c, 0, 76, 64
3, 245280, Note_on_c, 0, 79, 64
3, 245520, Note_on_c, 0, 79, 0
3, 245520, Note_on_c, 0, 76, 0
3, 245760, Note_on_c, 0, 78, 64
3, 245760, Note_on_c, 0, 81, 64
3, 246000, Note_on_c, 0, 81, 0
3, 246000, Note_on_c, 0, 78, 0
3, 246000, Note_on_c, 0, 74, 64
3, 246000, Note_on_c, 0, 78, 64
3, 246240, Note_on_c, 0, 78, 0
3, 246240, Note_on_c, 0, 74, 0
3, 246240, Note_on_c, 0, 69, 64
3, 246240, Note_on_c, 0, 74, 64
3, 246480, Note_on_c, 0, 74, 0
3, 246480, Note_on_c, 0, 69, 0
3, 246720, Note_on_c, 0, 72, 64
3, 246720, Note_on_c, 0, 78, 64
3, 246960, Note_on_c, 0, 78, 0
3, 246960, Note_on_c, 0, 72, 0
3, 246960, Note_on_c, 0, 78, 64
3, 246960, Note_on_c, 0, 81, 64
3, 247200, Note_on_c, 0, 81, 0
3, 247200, Note_on_c, 0, 78, 0
3, 247200, Note_on_c, 0, 81, 64
3, 247200, Note_on_c, 0, 84, 64
3, 247440, Note_on_c, 0, 84, 0
3, 247440, Note_on_c, 0, 81, 0
3, 247680, Note_on_c, 0, 74, 64
3, 247680, Note_on_c, 0, 79, 64
3, 247920, Note_on_c, 0, 79, 0
3, 247920, Note_on_c, 0, 74, 0
3, 247920, Note_on_c, 0, 79, 64
3, 247920, Note_on_c, 0, 82, 64
3, 248160, Note_on_c, 0, 82, 0
3, 248160, Note_on_c, 0, 79, 0
3, 248160, Note_on_c, 0, 82, 64
3, 248160, Note_on_c, 0, 86, 64
3, 248400, Note_on_c, 0, 86, 0
3, 248400, Note_on_c, 0, 82, 0
3, 268320, Note_on_c, 0, 82, 80
3, 268320, Note_on_c, 0, 79, 80
3, 268800, Note_on_c, 0, 79, 0
3, 268800, Note_on_c, 0, 82, 0
3, 268800, Note_on_c, 0, 81, 80
3, 268800, Note_on_c, 0, 78, 80
3, 269040, Note_on_c, 0, 78, 0
3, 269040, Note_on_c, 0, 81, 0
3, 269280, Note_on_c, 0, 79, 80
3, 269280, Note_on_c, 0, 82, 80
3, 269760, Note_on_c, 0, 82, 0
3, 269760, Note_on_c, 0, 79, 0
3, 269760, Note_on_c, 0, 78, 80
3, 269760, Note_on_c, 0, 81, 80
3, 270000, Note_on_c, 0, 81, 0
3, 270000, Note_on_c, 0, 78, 0
3, 270240, Note_on_c, 0, 82, 80
3, 270240, Note_on_c, 0, 79, 80
3, 270720, Note_on_c, 0, 79, 0
3, 270720, Note_on_c, 0, 82, 0
3, 270720, Note_on_c, 0, 78, 75
3, 270720, Note_on_c, 0, 81, 75
3, 270864, Note_on_c, 0, 81, 0
3, 270864, Note_on_c, 0, 78, 0
3, 270960, Note_on_c, 0, 79, 68
3, 270960, Note_on_c, 0, 82, 68
3, 271104, Note_on_c, 0, 82, 0
3, 271104, Note_on_c, 0, 79, 0
3, 271200, Note_on_c, 0, 81, 60
3, 271200, Note_on_c, 0, 78, 60
3, 271344, Note_on_c, 0, 78, 0
3, 271344, Note_on_c, 0, 81, 0
3, 271440, Note_on_c, 0, 79, 53
3, 271440, Note_on_c, 0, 82, 53
3, 271584, Note_on_c, 0, 82, 0
3, 271584, Note_on_c, 0, 79, 0
3, 271680, Note_on_c, 0, 81, 53
3, 271680, Note_on_c, 0, 78, 53
3, 272064, Note_on_c, 0, 78, 0
3, 272064, Note_on_c, 0, 81, 0
3, 275520, Note_on_c, 0, 80, 64
3, 277440, Note_on_c, 0, 80, 0
3, 277440, Note_on_c, 0, 80, 64
3, 278880, Note_on_c, 0, 80, 0
3, 278880, Note_on_c, 0, 77, 64
3, 279360, Note_on_c, 0, 77, 0
3, 279360, Note_on_c, 0, 75, 80
3, 280320, Note_on_c, 0, 75, 0
3, 280320, Note_on_c, 0, 70, 80
3, 280320, Note_on_c, 0, 82, 80
3, 281280, Note_on_c, 0, 82, 0
3, 281280, Note_on_c, 0, 70, 0
3, 281280, Note_on_c, 0, 68, 80
3, 281280, Note_on_c, 0, 80, 80
3, 282240, Note_on_c, 0, 80, 0
3, 282240, Note_on_c, 0, 68, 0
3, 282240, Note_on_c, 0, 67, 80
3, 282240, Note_on_c, 0, 79, 80
3, 283200, Note_on_c, 0, 79, 0
3, 283200, Note_on_c, 0, 67, 0
3, 283200, Note_on_c, 0, 65, 80
3, 284160, Note_on_c, 0, 65, 0
3, 284160, Note_on_c, 0, 64, 80
3, 284640, Note_on_c, 0, 64, 0
3, 284640, Note_on_c, 0, 61, 80
3, 285120, Note_on_c, 0, 61, 0
3, 285120, Note_on_c, 0, 60, 80
3, 285600, Note_on_c, 0, 60, 0
3, 285600, Note_on_c, 0, 67, 80
3, 285600, Note_on_c, 0, 70, 80
3, 286080, Note_on_c, 0, 70, 0
3, 286080, Note_on_c, 0, 67, 0
3, 286080, Note_on_c, 0, 65, 80
3, 286080, Note_on_c, 0, 68, 80
3, 286560, Note_on_c, 0, 68, 0
3, 286560, Note_on_c, 0, 65, 0
3, 286560, Note_on_c, 0, 65, 80
3, 287040, Note_on_c, 0, 65, 0
3, 287040, Note_on_c, 0, 72, 80
3, 287040, Note_on_c, 0, 72, 80
3, 287520, Note_on_c, 0, 72, 0
3, 287520, Note_on_c, 0, 84, 80
3, 288000, Note_on_c, 0, 72, 0
3, 288480, Note_on_c, 0, 84, 0
3, 288480, Note_on_c, 0, 82, 80
3, 288960, Note_on_c, 0, 82, 0
3, 288960, Note_on_c, 0, 72, 80
3, 288960, Note_on_c, 0, 82, 80
3, 289440, Note_on_c, 0, 82, 0
3, 289440, Note_on_c, 0, 80, 80
3, 289920, Note_on_c, 0, 72, 0
3, 289920, Note_on_c, 0, 70, 80
3, 290400, Note_on_c, 0, 80, 0
3, 290400, Note_on_c, 0, 79, 80
3, 290880, Note_on_c, 0, 79, 0
3, 290880, Note_on_c, 0, 70, 0
3, 290880, Note_on_c, 0, 68, 64
3, 290880, Note_on_c, 0, 77, 64
3, 291072, Note_on_c, 0, 77, 0
3, 291072, Note_on_c, 0, 68, 0
3, 291120, Note_on_c, 0, 77, 64
3, 291120, Note_on_c, 0, 80, 64
3, 291312, Note_on_c, 0, 80, 0
3, 291312, Note_on_c, 0, 77, 0
3, 291360, Note_on_c, 0, 77, 64
3, 291360, Note_on_c, 0, 80, 64
3, 291552, Note_on_c, 0, 80, 0
3, 291552, Note_on_c, 0, 77, 0
3, 291600, Note_on_c, 0, 77, 64
3, 291600, Note_on_c, 0, 80, 64
3, 291792, Note_on_c, 0, 80, 0
3, 291792, Note_on_c, 0, 77, 0
3, 292080, Note_on_c, 0, 74, 64
3, 292080, Note_on_c, 0, 80, 64
3, 292272, Note_on_c, 0, 80, 0
3, 292272, Note_on_c, 0, 74, 0
3, 292320, Note_on_c, 0, 74, 64
3, 292320, Note_on_c, 0, 80, 64
3, 292512, Note_on_c, 0, 80, 0
3, 292512, Note_on_c, 0, 74, 0
3, 292560, Note_on_c, 0, 74, 64
3, 292560, Note_on_c, 0, 80, 64
3, 292752, Note_on_c, 0, 80, 0
3, 292752, Note_on_c, 0, 74, 0
3, 293040, Note_on_c, 0, 74, 64
3, 293040, Note_on_c, 0, 79, 64
3, 293520, Note_on_c, 0, 79, 0
3, 293520, Note_on_c, 0, 74, 0
3, 293520, Note_on_c, 0, 74, 64
3, 293520, Note_on_c, 0, 79, 64
3, 293760, Note_on_c, 0, 79, 0
3, 293760, Note_on_c, 0, 74, 0
3, 294000, Note_on_c, 0, 72, 64
3, 294000, Note_on_c, 0, 79, 64
3, 294240, Note_on_c, 0, 79, 0
3, 294240, Note_on_c, 0, 72, 0
3, 294240, Note_on_c, 0, 72, 64
3, 294240, Note_on_c, 0, 79, 64
3, 294480, Note_on_c, 0, 79, 0
3, 294480, Note_on_c, 0, 72, 0
3, 294480, Note_on_c, 0, 72, 64
3, 294480, Note_on_c, 0, 79, 64
3, 294720, Note_on_c, 0, 79, 0
3, 294720, Note_on_c, 0, 72, 0
3, 294960, Note_on_c, 0, 72, 64
3, 294960, Note_on_c, 0, 77, 64
3, 295440, Note_on_c, 0, 77, 0
3, 295440, Note_on_c, 0, 72, 0
3, 295440, Note_on_c, 0, 72, 64
3, 295440, Note_on_c, 0, 77, 64
3, 295680, Note_on_c, 0, 77, 0
3, 295680, Note_on_c, 0, 72, 0
3, 295920, Note_on_c, 0, 71, 64
3, 295920, Note_on_c, 0, 77, 64
3, 296160, Note_on_c, 0, 77, 0
3, 296160, Note_on_c, 0, 71, 0
3, 296160, Note_on_c, 0, 71, 64
3, 296160, Note_on_c, 0, 77, 64
3, 296400, Note_on_c, 0, 77, 0
3, 296400, Note_on_c, 0, 71, 0
3, 296400, Note_on_c, 0, 71, 64
3, 296400, Note_on_c, 0, 77, 64
3, 296640, Note_on_c, 0, 77, 0
3, 296640, Note_on_c, 0, 71, 0
3, 296880, Note_on_c, 0, 72, 64
3, 296880, Note_on_c, 0, 75, 64
3, 297360, Note_on_c, 0, 75, 0
3, 297360, Note_on_c, 0, 72, 0
3, 297360, Note_on_c, 0, 72, 64
3, 297360, Note_on_c, 0, 75, 64
3, 297600, Note_on_c, 0, 75, 0
3, 297600, Note_on_c, 0, 72, 0
3, 297840, Note_on_c, 0, 69, 64
3, 297840, Note_on_c, 0, 78, 64
3, 298320, Note_on_c, 0, 78, 0
3, 298320, Note_on_c, 0, 69, 0
3, 298320, Note_on_c, 0, 72, 64
3, 298320, Note_on_c, 0, 74, 64
3, 298560, Note_on_c, 0, 74, 0
3, 298560, Note_on_c, 0, 72, 0
3, 298560, Note_on_c, 0, 70, 80
3, 298560, Note_on_c, 0, 74, 80
3, 299328, Note_on_c, 0, 74, 0
3, 299328, Note_on_c, 0, 70, 0
3, 299520, Note_on_c, 0, 74, 80
3, 300288, Note_on_c, 0, 74, 0
3, 300480, Note_on_c, 0, 72, 80
3, 300480, Note_on_c, 0, 84, 80
3, 301440, Note_on_c, 0, 84, 0
3, 301440, Note_on_c, 0, 72, 0
3, 301440, Note_on_c, 0, 70, 80
3, 301440, Note_on_c, 0, 82, 80
3, 302400, Note_on_c, 0, 82, 0
3, 302400, Note_on_c, 0, 70, 0
3, 302400, Note_on_c, 0, 81, 80
3, 302400, Note_on_c, 0, 69, 80
3, 303120, Note_on_c, 0, 69, 0
3, 303120, Note_on_c, 0, 81, 0
3, 303120, Note_on_c, 0, 66, 80
3, 303120, Note_on_c, 0, 78, 80
3, 303360, Note_on_c, 0, 78, 0
3, 303360, Note_on_c, 0, 66, 0
3, 303360, Note_on_c, 0, 79, 80
3, 303360, Note_on_c, 0, 67, 80
3, 304080, Note_on_c, 0, 67, 0
3, 304080, Note_on_c, 0, 74, 80
3, 304320, Note_on_c, 0, 74, 0
3, 304320, Note_on_c, 0, 79, 0
3, 304320, Note_on_c, 0, 76, 80
3, 304320, Note_on_c, 0, 79, 80
3, 305088, Note_on_c, 0, 79, 0
3, 305088, Note_on_c, 0, 76, 0
3, 305280, Note_on_c, 0, 76, 80
3, 305280, Note_on_c, 0, 79, 80
3, 306048, Note_on_c, 0, 79, 0
3, 306048, Note_on_c, 0, 76, 0
3, 306240, Note_on_c, 0, 76, 80
3, 306240, Note_on_c, 0, 79, 80
3, 307008, Note_on_c, 0, 79, 0
3, 307008, Note_on_c, 0, 76, 0
3, 307200, Note_on_c, 0, 76, 80
3, 307200, Note_on_c, 0, 79, 80
3, 307968, Note_on_c, 0, 79, 0
3, 307968, Note_on_c, 0, 76, 0
3, 308160, Note_on_c, 0, 74, 80
3, 308160, Note_on_c, 0, 78, 80
3, 308640, Note_on_c, 0, 78, 0
3, 308640, Note_on_c, 0, 74, 0
3, 308640, Note_on_c, 0, 78, 80
3, 308640, Note_on_c, 0, 81, 80
3, 309120, Note_on_c, 0, 81, 0
3, 309120, Note_on_c, 0, 78, 0
3, 309120, Note_on_c, 0, 79, 80
3, 309120, Note_on_c, 0, 82, 80
3, 309600, Note_on_c, 0, 82, 0
3, 309600, Note_on_c, 0, 79, 0
3, 309600, Note_on_c, 0, 76, 80
3, 309600, Note_on_c, 0, 79, 80
3, 310080, Note_on_c, 0, 79, 0
3, 310080, Note_on_c, 0, 76, 0
3, 310080, Note_on_c, 0, 74, 80
3, 310080, Note_on_c, 0, 78, 80
3, 310560, Note_on_c, 0, 78, 0
3, 310560, Note_on_c, 0, 74, 0
3, 310560, Note_on_c, 0, 81, 80
3, 310560, Note_on_c, 0, 84, 80
3, 311040, Note_on_c, 0, 84, 0
3, 311040, Note_on_c, 0, 81, 0
3, 311040, Note_on_c, 0, 79, 80
3, 311040, Note_on_c, 0, 82, 80
3, 311520, Note_on_c, 0, 82, 0
3, 311520, Note_on_c, 0, 79, 0
3, 311520, Note_on_c, 0, 76, 80
3, 311520, Note_on_c, 0, 79, 80
3, 312000, Note_on_c, 0, 79, 0
3, 312000, Note_on_c, 0, 76, 0
3, 312000, Note_on_c, 0, 74, 80
3, 312000, Note_on_c, 0, 78, 80
3, 312360, Note_on_c, 0, 78, 0
3, 312360, Note_on_c, 0, 74, 0
3, 312480, Note_on_c, 0, 69, 64
3, 312480, Note_on_c, 0, 66, 64
3, 312840, Note_on_c, 0, 66, 0
3, 312840, Note_on_c, 0, 69, 0
3, 314880, Note_on_c, 0, 72, 64
3, 315600, Note_on_c, 0, 72, 0
3, 315600, Note_on_c, 0, 74, 64
3, 315660, Note_on_c, 0, 74, 0
3, 315660, Note_on_c, 0, 72, 64
3, 315720, Note_on_c, 0, 72, 0
3, 315720, Note_on_c, 0, 70, 64
3, 315780, Note_on_c, 0, 70, 0
3, 315780, Note_on_c, 0, 69, 64
3, 315840, Note_on_c, 0, 69, 0
3, 315840, Note_on_c, 0, 67, 64
3, 316200, Note_on_c, 0, 67, 0
3, 320640, Note_on_c, 0, 67, 64
3, 320880, Note_on_c, 0, 67, 0
3, 320880, Note_on_c, 0, 69, 64
3, 321120, Note_on_c, 0, 69, 0
3, 321120, Note_on_c, 0, 70, 64
3, 321360, Note_on_c, 0, 70, 0
3, 321360, Note_on_c, 0, 72, 64
3, 321600, Note_on_c, 0, 72, 0
3, 321600, Note_on_c, 0, 74, 64
3, 322320, Note_on_c, 0, 74, 0
3, 322320, Note_on_c, 0, 73, 64
3, 322560, Note_on_c, 0, 73, 0
3, 322560, Note_on_c, 0, 72, 64
3, 322800, Note_on_c, 0, 72, 0
3, 323760, Note_on_c, 0, 71, 64
3, 324000, Note_on_c, 0, 71, 0
3, 324000, Note_on_c, 0, 79, 64
3, 324000, Note_on_c, 0, 72, 64
3, 324240, Note_on_c, 0, 72, 0
3, 324240, Note_on_c, 0, 73, 64
3, 324480, Note_on_c, 0, 73, 0
3, 324480, Note_on_c, 0, 74, 64
3, 324840, Note_on_c, 0, 79, 0
3, 324840, Note_on_c, 0, 81, 64
3, 324960, Note_on_c, 0, 81, 0
3, 324960, Note_on_c, 0, 74, 0
3, 324960, Note_on_c, 0, 78, 64
3, 325200, Note_on_c, 0, 78, 0
3, 333120, Note_on_c, 0, 66, 80
3, 333120, Note_on_c, 0, 75, 80
3, 333504, Note_on_c, 0, 75, 0
3, 333600, Note_on_c, 0, 72, 80
3, 333792, Note_on_c, 0, 72, 0
3, 333840, Note_on_c, 0, 69, 80
3, 333888, Note_on_c, 0, 66, 0
3, 334032, Note_on_c, 0, 69, 0
3, 334080, Note_on_c, 0, 65, 80
3, 334080, Note_on_c, 0, 70, 80
3, 334320, Note_on_c, 0, 70, 0
3, 334320, Note_on_c, 0, 73, 80
3, 334560, Note_on_c, 0, 73, 0
3, 334560, Note_on_c, 0, 77, 80
3, 335040, Note_on_c, 0, 65, 0
3, 335040, Note_on_c, 0, 68, 80
3, 335424, Note_on_c, 0, 77, 0
3, 335520, Note_on_c, 0, 74, 80
3, 335712, Note_on_c, 0, 74, 0
3, 335760, Note_on_c, 0, 71, 80
3, 335952, Note_on_c, 0, 71, 0
3, 336000, Note_on_c, 0, 68, 0
3, 336000, Note_on_c, 0, 67, 80
3, 336000, Note_on_c, 0, 72, 80
3, 336240, Note_on_c, 0, 72, 0
3, 336240, Note_on_c, 0, 75, 80
3, 336480, Note_on_c, 0, 75, 0
3, 336480, Note_on_c, 0, 79, 80
3, 336960, Note_on_c, 0, 67, 0
3, 336960, Note_on_c, 0, 70, 80
3, 337344, Note_on_c, 0, 79, 0
3, 337440, Note_on_c, 0, 76, 80
3, 337632, Note_on_c, 0, 76, 0
3, 337680, Note_on_c, 0, 73, 80
3, 337872, Note_on_c, 0, 73, 0
3, 337920, Note_on_c, 0, 70, 0
3, 337920, Note_on_c, 0, 70, 80
3, 337920, Note_on_c, 0, 74, 80
3, 338688, Note_on_c, 0, 74, 0
3, 338688, Note_on_c, 0, 70, 0
3, 338880, Note_on_c, 0, 72, 80
3, 338880, Note_on_c, 0, 78, 80
3, 338940, Note_on_c, 0, 78, 0
3, 338940, Note_on_c, 0, 79, 80
3, 339000, Note_on_c, 0, 79, 0
3, 339000, Note_on_c, 0, 78, 80
3, 339060, Note_on_c, 0, 78, 0
3, 339060, Note_on_c, 0, 79, 80
3, 339120, Note_on_c, 0, 79, 0
3, 339120, Note_on_c, 0, 78, 80
3, 339180, Note_on_c, 0, 78, 0
3, 339180, Note_on_c, 0, 79, 80
3, 339240, Note_on_c, 0, 79, 0
3, 339240, Note_on_c, 0, 78, 80
3, 339300, Note_on_c, 0, 78, 0
3, 339300, Note_on_c, 0, 79, 80
3, 339360, Note_on_c, 0, 79, 0
3, 339360, Note_on_c, 0, 78, 80
3, 339420, Note_on_c, 0, 78, 0
3, 339420, Note_on_c, 0, 79, 80
3, 339480, Note_on_c, 0, 79, 0
3, 339480, Note_on_c, 0, 78, 80
3, 339540, Note_on_c, 0, 78, 0
3, 339540, Note_on_c, 0, 79, 80
3, 339600, Note_on_c, 0, 79, 0
3, 339600, Note_on_c, 0, 78, 80
3, 339660, Note_on_c, 0, 78, 0
3, 339660, Note_on_c, 0, 79, 80
3, 339720, Note_on_c, 0, 79, 0
3, 339720, Note_on_c, 0, 76, 80
3, 339780, Note_on_c, 0, 76, 0
3, 339780, Note_on_c, 0, 78, 80
3, 339840, Note_on_c, 0, 78, 0
3, 339840, Note_on_c, 0, 72, 0
3, 339840, Note_on_c, 0, 70, 80
3, 339840, Note_on_c, 0, 79, 80
3, 340080, Note_on_c, 0, 79, 0
3, 340080, Note_on_c, 0, 70, 0
3, 341760, Note_on_c, 0, 71, 80
3, 341760, Note_on_c, 0, 74, 80
3, 341952, Note_on_c, 0, 74, 0
3, 341952, Note_on_c, 0, 71, 0
3, 342240, Note_on_c, 0, 75, 80
3, 342240, Note_on_c, 0, 72, 80
3, 342432, Note_on_c, 0, 72, 0
3, 342432, Note_on_c, 0, 75, 0
3, 342720, Note_on_c, 0, 74, 80
3, 342720, Note_on_c, 0, 78, 80
3, 342912, Note_on_c, 0, 78, 0
3, 342912, Note_on_c, 0, 74, 0
3, 343200, Note_on_c, 0, 79, 80
3, 343200, Note_on_c, 0, 74, 80
3, 343392, Note_on_c, 0, 74, 0
3, 343392, Note_on_c, 0, 79, 0
3, 350400, Note_on_c, 0, 79, 80
3, 350400, Note_on_c, 0, 83, 80
3, 351360, Note_on_c, 0, 83, 0
3, 351360, Note_on_c, 0, 79, 0
3, 351360, Note_on_c, 0, 79, 80
3, 351360, Note_on_c, 0, 84, 80
3, 352320, Note_on_c, 0, 84, 0
3, 352320, Note_on_c, 0, 79, 0
3, 352320, Note_on_c, 0, 79, 80
3, 352320, Note_on_c, 0, 82, 80
3, 352800, Note_on_c, 0, 82, 0
3, 352800, Note_on_c, 0, 79, 0
3, 352800, Note_on_c, 0, 72, 80
3, 352800, Note_on_c, 0, 78, 80
3, 353280, Note_on_c, 0, 78, 0
3, 353280, Note_on_c, 0, 72, 0
3, 353280, Note_on_c, 0, 70, 80
3, 353280, Note_on_c, 0, 79, 80
3, 353520, Note_on_c, 0, 79, 0
3, 353520, Note_on_c, 0, 70, 0
3, 358080, Note_on_c, 0, 83, 80
3, 358080, Note_on_c, 0, 79, 80
3, 359040, Note_on_c, 0, 79, 0
3, 359040, Note_on_c, 0, 83, 0
3, 359040, Note_on_c, 0, 84, 80
3, 359040, Note_on_c, 0, 79, 80
3, 360000, Note_on_c, 0, 79, 0
3, 360000, Note_on_c, 0, 84, 0
3, 360000, Note_on_c, 0, 82, 80
3, 360000, Note_on_c, 0, 79, 80
3, 360480, Note_on_c, 0, 79, 0
3, 360480, Note_on_c, 0, 82, 0
3, 360480, Note_on_c, 0, 78, 80
3, 360480, Note_on_c, 0, 72, 80
3, 360960, Note_on_c, 0, 72, 0
3, 360960, Note_on_c, 0, 78, 0
3, 360960, Note_on_c, 0, 79, 80
3, 360960, Note_on_c, 0, 70, 80
3, 361344, Note_on_c, 0, 70, 0
3, 361344, Note_on_c, 0, 79, 0
3, 361800, Note_on_c, 0, 74, 80
3, 361896, Note_on_c, 0, 74, 0
3, 361920, Note_on_c, 0, 72, 80
3, 362016, Note_on_c, 0, 72, 0
3, 362040, Note_on_c, 0, 70, 80
3, 362136, Note_on_c, 0, 70, 0
3, 362160, Note_on_c, 0, 69, 80
3, 362256, Note_on_c, 0, 69, 0
3, 362280, Note_on_c, 0, 67, 80
3, 362376, Note_on_c, 0, 67, 0
3, 362400, Note_on_c, 0, 66, 80
3, 362496, Note_on_c, 0, 66, 0
3, 362520, Note_on_c, 0, 75, 80
3, 362616, Note_on_c, 0, 75, 0
3, 362640, Note_on_c, 0, 74, 80
3, 362736, Note_on_c, 0, 74, 0
3, 362760, Note_on_c, 0, 72, 80
3, 362856, Note_on_c, 0, 72, 0
3, 362880, Note_on_c, 0, 70, 80
3, 363072, Note_on_c, 0, 70, 0
3, 363120, Note_on_c, 0, 74, 80
3, 363120, Note_on_c, 0, 79, 80
3, 363312, Note_on_c, 0, 79, 0
3, 363312, Note_on_c, 0, 74, 0
3, 363360, Note_on_c, 0, 72, 80
3, 363360, Note_on_c, 0, 79, 80
3, 363552, Note_on_c, 0, 79, 0
3, 363552, Note_on_c, 0, 72, 0
3, 363600, Note_on_c, 0, 69, 80
3, 363600, Note_on_c, 0, 72, 80
3, 363792, Note_on_c, 0, 72, 0
3, 363792, Note_on_c, 0, 69, 0
3, 363840, Note_on_c, 0, 67, 80
3, 363840, Note_on_c, 0, 70, 80
3, 363936, Note_on_c, 0, 70, 0
3, 363936, Note_on_c, 0, 67, 0
3, 363960, Note_on_c, 0, 74, 80
3, 364056, Note_on_c, 0, 74, 0
3, 364080, Note_on_c, 0, 82, 80
3, 364176, Note_on_c, 0, 82, 0
3, 364200, Note_on_c, 0, 81, 80
3, 364296, Note_on_c, 0, 81, 0
3, 364320, Note_on_c, 0, 79, 80
3, 364416, Note_on_c, 0, 79, 0
3, 364440, Note_on_c, 0, 77, 80
3, 364536, Note_on_c, 0, 77, 0
3, 364560, Note_on_c, 0, 75, 80
3, 364656, Note_on_c, 0, 75, 0
3, 364680, Note_on_c, 0, 74, 80
3, 364776, Note_on_c, 0, 74, 0
3, 364800, Note_on_c, 0, 73, 80
3, 364896, Note_on_c, 0, 73, 0
3, 364920, Note_on_c, 0, 76, 80
3, 365016, Note_on_c, 0, 76, 0
3, 365040, Note_on_c, 0, 81, 80
3, 365136, Note_on_c, 0, 81, 0
3, 365160, Note_on_c, 0, 79, 80
3, 365256, Note_on_c, 0, 79, 0
3, 365280, Note_on_c, 0, 78, 80
3, 365376, Note_on_c, 0, 78, 0
3, 365400, Note_on_c, 0, 75, 80
3, 365496, Note_on_c, 0, 75, 0
3, 365520, Note_on_c, 0, 74, 80
3, 365616, Note_on_c, 0, 74, 0
3, 365640, Note_on_c, 0, 72, 80
3, 365736, Note_on_c, 0, 72, 0
3, 365760, Note_on_c, 0, 70, 80
3, 365952, Note_on_c, 0, 70, 0
3, 366000, Note_on_c, 0, 67, 80
3, 366000, Note_on_c, 0, 79, 80
3, 366384, Note_on_c, 0, 79, 0
3, 366384, Note_on_c, 0, 67, 0
3, 366480, Note_on_c, 0, 68, 80
3, 366480, Note_on_c, 0, 80, 80
3, 366912, Note_on_c, 0, 80, 0
3, 366912, Note_on_c, 0, 68, 0
3, 366960, Note_on_c, 0, 69, 80
3, 366960, Note_on_c, 0, 81, 80
3, 367344, Note_on_c, 0, 81, 0
3, 367344, Note_on_c, 0, 69, 0
3, 367440, Note_on_c, 0, 70, 80
3, 367440, Note_on_c, 0, 82, 80
3, 367872, Note_on_c, 0, 82, 0
3, 367872, Note_on_c, 0, 70, 0
3, 367920, Note_on_c, 0, 71, 80
3, 367920, Note_on_c, 0, 83, 80
3, 368304, Note_on_c, 0, 83, 0
3, 368304, Note_on_c, 0, 71, 0
3, 368400, Note_on_c, 0, 72, 80
3, 368400, Note_on_c, 0, 84, 80
3, 368832, Note_on_c, 0, 84, 0
3, 368832, Note_on_c, 0, 72, 0
3, 368880, Note_on_c, 0, 73, 80
3, 368880, Note_on_c, 0, 85, 80
3, 369264, Note_on_c, 0, 85, 0
3, 369264, Note_on_c, 0, 73, 0
3, 377280, Note_on_c, 0, 79, 80
3, 377280, Note_on_c, 0, 82, 80
3, 377472, Note_on_c, 0, 82, 0
3, 377472, Note_on_c, 0, 79, 0
3, 377520, Note_on_c, 0, 79, 80
3, 377520, Note_on_c, 0, 82, 80
3, 377616, Note_on_c, 0, 82, 0
3, 377616, Note_on_c, 0, 79, 0
3, 377640, Note_on_c, 0, 79, 80
3, 377640, Note_on_c, 0, 82, 80
3, 377736, Note_on_c, 0, 82, 0
3, 377736, Note_on_c, 0, 79, 0
3, 377760, Note_on_c, 0, 78, 80
3, 377760, Note_on_c, 0, 81, 80
3, 377952, Note_on_c, 0, 81, 0
3, 377952, Note_on_c, 0, 78, 0
3, 378000, Note_on_c, 0, 78, 80
3, 378000, Note_on_c, 0, 81, 80
3, 378096, Note_on_c, 0, 81, 0
3, 378096, Note_on_c, 0, 78, 0
3, 378120, Note_on_c, 0, 78, 80
3, 378120, Note_on_c, 0, 81, 80
3, 378216, Note_on_c, 0, 81, 0
3, 378216, Note_on_c, 0, 78, 0
3, 378240, Note_on_c, 0, 82, 80
3, 378240, Note_on_c, 0, 79, 80
3, 378432, Note_on_c, 0, 79, 0
3, 378432, Note_on_c, 0, 82, 0
3, 378480, Note_on_c, 0, 82, 80
3, 378480, Note_on_c, 0, 79, 80
3, 378576, Note_on_c, 0, 79, 0
3, 378576, Note_on_c, 0, 82, 0
3, 378600, Note_on_c, 0, 82, 80
3, 378600, Note_on_c, 0, 79, 80
3, 378696, Note_on_c, 0, 79, 0
3, 378696, Note_on_c, 0, 82, 0
3, 378720, Note_on_c, 0, 81, 80
3, 378720, Note_on_c, 0, 78, 80
3, 378912, Note_on_c, 0, 78, 0
3, 378912, Note_on_c, 0, 81, 0
3, 378960, Note_on_c, 0, 81, 80
3, 378960, Note_on_c, 0, 78, 80
3, 379056, Note_on_c, 0, 78, 0
3, 379056, Note_on_c, 0, 81, 0
3, 379080, Note_on_c, 0, 81, 80
3, 379080, Note_on_c, 0, 78, 80
3, 379176, Note_on_c, 0, 78, 0
3, 379176, Note_on_c, 0, 81, 0
3, 379200, Note_on_c, 0, 82, 80
3, 379200, Note_on_c, 0, 79, 80
3, 379392, Note_on_c, 0, 79, 0
3, 379392, Note_on_c, 0, 82, 0
3, 379440, Note_on_c, 0, 82, 80
3, 379440, Note_on_c, 0, 79, 80
3, 379536, Note_on_c, 0, 79, 0
3, 379536, Note_on_c, 0, 82, 0
3, 379560, Note_on_c, 0, 82, 80
3, 379560, Note_on_c, 0, 79, 80
3, 379656, Note_on_c, 0, 79, 0
3, 379656, Note_on_c, 0, 82, 0
3, 379680, Note_on_c, 0, 81, 80
3, 379680, Note_on_c, 0, 78, 80
3, 379872, Note_on_c, 0, 78, 0
3, 379872, Note_on_c, 0, 81, 0
3, 379920, Note_on_c, 0, 81, 80
3, 379920, Note_on_c, 0, 78, 80
3, 380016, Note_on_c, 0, 78, 0
3, 380016, Note_on_c, 0, 81, 0
3, 380040, Note_on_c, 0, 81, 80
3, 380040, Note_on_c, 0, 78, 80
3, 380136, Note_on_c, 0, 78, 0
3, 380136, Note_on_c, 0, 81, 0
3, 380160, Note_on_c, 0, 79, 80
3, 380160, Note_on_c, 0, 82, 80
3, 380352, Note_on_c, 0, 82, 0
3, 380352, Note_on_c, 0, 79, 0
3, 380400, Note_on_c, 0, 78, 80
3, 380400, Note_on_c, 0, 81, 80
3, 380592, Note_on_c, 0, 81, 0
3, 380592, Note_on_c, 0, 78, 0
3, 380640, Note_on_c, 0, 79, 80
3, 380640, Note_on_c, 0, 82, 80
3, 380832, Note_on_c, 0, 82, 0
3, 380832, Note_on_c, 0, 79, 0
3, 380880, Note_on_c, 0, 78, 80
3, 380880, Note_on_c, 0, 81, 80
3, 381072, Note_on_c, 0, 81, 0
3, 381072, Note_on_c, 0, 78, 0
3, 381120, Note_on_c, 0, 79, 80
3, 381120, Note_on_c, 0, 82, 80
3, 381480, Note_on_c, 0, 82, 0
3, 381480, Note_on_c, 0, 79, 0
3, 382080, Note_on_c, 0, 79, 80
3, 382080, Note_on_c, 0, 82, 80
3, 382320, Note_on_c, 0, 82, 0
3, 382320, Note_on_c, 0, 79, 0
3, 382560, Note_on_c, 0, 79, 80
3, 382560, Note_on_c, 0, 82, 80
3, 382800, Note_on_c, 0, 82, 0
3, 382800, Note_on_c, 0, 79, 0
3, 383040, Note_on_c, 0, 79, 80
3, 383040, Note_on_c, 0, 82, 80
3, 383760, Note_on_c, 0, 82, 0
3, 383760, Note_on_c, 0, 79, 0
3, 383760, End_track
4, 0, Start_track
4, 0, MIDI_port, 0
4, 0, Title_t, "Clarinetti."
4, 0, Program_c, 10, 71
4, 160, Control_c, 10, 10, 91
4, 380, Control_c, 10, 91, 127
4, 13680, Note_on_c, 10, 66, 56
4, 13920, Note_on_c, 10, 66, 0
4, 13920, Note_on_c, 10, 67, 56
4, 14160, Note_on_c, 10, 67, 0
4, 14160, Note_on_c, 10, 69, 56
4, 14400, Note_on_c, 10, 69, 0
4, 14400, Note_on_c, 10, 70, 56
4, 14640, Note_on_c, 10, 70, 0
4, 14640, Note_on_c, 10, 72, 56
4, 14760, Note_on_c, 10, 72, 0
4, 14760, Note_on_c, 10, 70, 56
4, 14880, Note_on_c, 10, 70, 0
4, 14880, Note_on_c, 10, 69, 56
4, 15120, Note_on_c, 10, 69, 0
4, 15120, Note_on_c, 10, 67, 56
4, 15360, Note_on_c, 10, 67, 0
4, 15360, Note_on_c, 10, 66, 56
4, 15552, Note_on_c, 10, 66, 0
4, 15840, Note_on_c, 10, 73, 80
4, 15840, Note_on_c, 10, 76, 80
4, 16320, Note_on_c, 10, 76, 0
4, 16320, Note_on_c, 10, 73, 0
4, 16320, Note_on_c, 10, 74, 80
4, 16320, Note_on_c, 10, 78, 80
4, 16560, Note_on_c, 10, 78, 0
4, 16560, Note_on_c, 10, 74, 0
4, 16800, Note_on_c, 10, 76, 80
4, 16800, Note_on_c, 10, 73, 80
4, 17280, Note_on_c, 10, 73, 0
4, 17280, Note_on_c, 10, 76, 0
4, 17280, Note_on_c, 10, 78, 80
4, 17280, Note_on_c, 10, 74, 80
4, 17520, Note_on_c, 10, 74, 0
4, 17520, Note_on_c, 10, 78, 0
4, 17760, Note_on_c, 10, 73, 80
4, 17760, Note_on_c, 10, 76, 80
4, 18240, Note_on_c, 10, 76, 0
4, 18240, Note_on_c, 10, 73, 0
4, 18240, Note_on_c, 10, 78, 75
4, 18240, Note_on_c, 10, 74, 75
4, 18384, Note_on_c, 10, 74, 0
4, 18384, Note_on_c, 10, 78, 0
4, 18480, Note_on_c, 10, 76, 68
4, 18480, Note_on_c, 10, 73, 68
4, 18624, Note_on_c, 10, 73, 0
4, 18624, Note_on_c, 10, 76, 0
4, 18720, Note_on_c, 10, 74, 60
4, 18720, Note_on_c, 10, 78, 60
4, 18864, Note_on_c, 10, 78, 0
4, 18864, Note_on_c, 10, 74, 0
4, 18960, Note_on_c, 10, 76, 53
4, 18960, Note_on_c, 10, 73, 53
4, 19104, Note_on_c, 10, 73, 0
4, 19104, Note_on_c, 10, 76, 0
4, 19200, Note_on_c, 10, 74, 53
4, 19200, Note_on_c, 10, 78, 53
4, 19584, Note_on_c, 10, 78, 0
4, 19584, Note_on_c, 10, 74, 0
4, 26880, Note_on_c, 10, 70, 80
4, 27840, Note_on_c, 10, 70, 0
4, 27840, Note_on_c, 10, 65, 80
4, 28800, Note_on_c, 10, 65, 0
4, 28800, Note_on_c, 10, 75, 80
4, 29760, Note_on_c, 10, 75, 0
4, 29760, Note_on_c, 10, 74, 80
4, 30720, Note_on_c, 10, 74, 0
4, 30720, Note_on_c, 10, 72, 80
4, 31680, Note_on_c, 10, 72, 0
4, 31680, Note_on_c, 10, 70, 80
4, 32640, Note_on_c, 10, 70, 0
4, 32640, Note_on_c, 10, 70, 80
4, 32640, Note_on_c, 10, 76, 80
4, 33480, Note_on_c, 10, 76, 0
4, 33480, Note_on_c, 10, 70, 0
4, 33480, Note_on_c, 10, 77, 80
4, 33576, Note_on_c, 10, 77, 0
4, 33600, Note_on_c, 10, 70, 80
4, 33600, Note_on_c, 10, 76, 80
4, 34440, Note_on_c, 10, 76, 0
4, 34440, Note_on_c, 10, 70, 0
4, 34440, Note_on_c, 10, 77, 80
4, 34536, Note_on_c, 10, 77, 0
4, 34560, Note_on_c, 10, 70, 80
4, 34560, Note_on_c, 10, 76, 80
4, 35400, Note_on_c, 10, 76, 0
4, 35400, Note_on_c, 10, 70, 0
4, 35400, Note_on_c, 10, 77, 80
4, 35496, Note_on_c, 10, 77, 0
4, 35520, Note_on_c, 10, 70, 80
4, 35520, Note_on_c, 10, 76, 80
4, 36480, Note_on_c, 10, 76, 0
4, 36480, Note_on_c, 10, 70, 0
4, 36480, Note_on_c, 10, 69, 80
4, 36480, Note_on_c, 10, 77, 80
4, 36960, Note_on_c, 10, 77, 0
4, 36960, Note_on_c, 10, 69, 0
4, 36960, Note_on_c, 10, 72, 80
4, 36960, Note_on_c, 10, 75, 80
4, 37440, Note_on_c, 10, 75, 0
4, 37440, Note_on_c, 10, 72, 0
4, 37440, Note_on_c, 10, 70, 80
4, 37440, Note_on_c, 10, 73, 80
4, 38400, Note_on_c, 10, 73, 0
4, 38400, Note_on_c, 10, 70, 0
4, 38400, Note_on_c, 10, 69, 80
4, 38400, Note_on_c, 10, 72, 80
4, 38880, Note_on_c, 10, 72, 0
4, 38880, Note_on_c, 10, 69, 0
4, 38880, Note_on_c, 10, 72, 80
4, 38880, Note_on_c, 10, 75, 80
4, 39360, Note_on_c, 10, 75, 0
4, 39360, Note_on_c, 10, 72, 0
4, 39360, Note_on_c, 10, 70, 80
4, 39360, Note_on_c, 10, 73, 80
4, 39840, Note_on_c, 10, 73, 0
4, 39840, Note_on_c, 10, 70, 0
4, 39840, Note_on_c, 10, 76, 80
4, 39840, Note_on_c, 10, 73, 80
4, 40320, Note_on_c, 10, 73, 0
4, 40320, Note_on_c, 10, 76, 0
4, 40320, Note_on_c, 10, 72, 80
4, 40320, Note_on_c, 10, 77, 80
4, 40560, Note_on_c, 10, 77, 0
4, 40560, Note_on_c, 10, 72, 0
4, 40800, Note_on_c, 10, 72, 56
4, 40800, Note_on_c, 10, 69, 56
4, 41040, Note_on_c, 10, 69, 0
4, 41040, Note_on_c, 10, 72, 0
4, 43200, Note_on_c, 10, 75, 75
4, 43920, Note_on_c, 10, 75, 0
4, 43920, Note_on_c, 10, 77, 67
4, 43980, Note_on_c, 10, 77, 0
4, 43980, Note_on_c, 10, 75, 66
4, 44040, Note_on_c, 10, 75, 0
4, 44040, Note_on_c, 10, 74, 65
4, 44100, Note_on_c, 10, 74, 0
4, 44100, Note_on_c, 10, 72, 65
4, 44160, Note_on_c, 10, 72, 0
4, 44160, Note_on_c, 10, 70, 56
4, 44400, Note_on_c, 10, 70, 0
4, 48960, Note_on_c, 10, 70, 64
4, 49080, Note_on_c, 10, 70, 0
4, 49080, Note_on_c, 10, 69, 64
4, 49200, Note_on_c, 10, 69, 0
4, 49200, Note_on_c, 10, 72, 64
4, 49320, Note_on_c, 10, 72, 0
4, 49320, Note_on_c, 10, 70, 64
4, 49440, Note_on_c, 10, 70, 0
4, 49440, Note_on_c, 10, 74, 64
4, 49560, Note_on_c, 10, 74, 0
4, 49560, Note_on_c, 10, 72, 64
4, 49680, Note_on_c, 10, 72, 0
4, 49680, Note_on_c, 10, 75, 64
4, 49800, Note_on_c, 10, 75, 0
4, 49800, Note_on_c, 10, 74, 64
4, 49920, Note_on_c, 10, 74, 0
4, 49920, Note_on_c, 10, 77, 64
4, 50640, Note_on_c, 10, 77, 0
4, 50640, Note_on_c, 10, 76, 64
4, 50880, Note_on_c, 10, 76, 0
4, 50880, Note_on_c, 10, 75, 64
4, 51240, Note_on_c, 10, 75, 0
4, 52080, Note_on_c, 10, 70, 64
4, 52224, Note_on_c, 10, 70, 0
4, 52320, Note_on_c, 10, 70, 64
4, 52320, Note_on_c, 10, 70, 64
4, 52560, Note_on_c, 10, 70, 0
4, 52560, Note_on_c, 10, 72, 64
4, 52800, Note_on_c, 10, 72, 0
4, 52800, Note_on_c, 10, 74, 64
4, 53160, Note_on_c, 10, 74, 0
4, 53160, Note_on_c, 10, 70, 0
4, 53160, Note_on_c, 10, 72, 64
4, 53160, Note_on_c, 10, 75, 64
4, 53280, Note_on_c, 10, 75, 0
4, 53280, Note_on_c, 10, 72, 0
4, 53280, Note_on_c, 10, 69, 64
4, 53280, Note_on_c, 10, 72, 64
4, 53520, Note_on_c, 10, 72, 0
4, 53520, Note_on_c, 10, 69, 0
4, 53760, Note_on_c, 10, 79, 64
4, 54480, Note_on_c, 10, 79, 0
4, 54480, Note_on_c, 10, 78, 64
4, 54720, Note_on_c, 10, 78, 0
4, 54720, Note_on_c, 10, 77, 64
4, 54960, Note_on_c, 10, 77, 0
4, 54960, Note_on_c, 10, 76, 64
4, 55200, Note_on_c, 10, 76, 0
4, 55200, Note_on_c, 10, 75, 64
4, 55440, Note_on_c, 10, 75, 0
4, 55440, Note_on_c, 10, 74, 64
4, 55680, Note_on_c, 10, 74, 0
4, 55680, Note_on_c, 10, 70, 64
4, 55680, Note_on_c, 10, 73, 64
4, 56400, Note_on_c, 10, 73, 0
4, 56400, Note_on_c, 10, 70, 0
4, 56400, Note_on_c, 10, 68, 64
4, 56400, Note_on_c, 10, 72, 64
4, 56640, Note_on_c, 10, 72, 0
4, 56640, Note_on_c, 10, 68, 0
4, 56640, Note_on_c, 10, 73, 64
4, 56640, Note_on_c, 10, 70, 64
4, 57360, Note_on_c, 10, 70, 0
4, 57360, Note_on_c, 10, 73, 0
4, 57360, Note_on_c, 10, 72, 64
4, 57360, Note_on_c, 10, 68, 64
4, 57600, Note_on_c, 10, 68, 0
4, 57600, Note_on_c, 10, 72, 0
4, 57600, Note_on_c, 10, 73, 64
4, 57600, Note_on_c, 10, 70, 64
4, 58320, Note_on_c, 10, 70, 0
4, 58320, Note_on_c, 10, 73, 0
4, 58320, Note_on_c, 10, 72, 64
4, 58320, Note_on_c, 10, 68, 64
4, 58560, Note_on_c, 10, 68, 0
4, 58560, Note_on_c, 10, 72, 0
4, 58560, Note_on_c, 10, 73, 64
4, 58560, Note_on_c, 10, 70, 64
4, 59280, Note_on_c, 10, 70, 0
4, 59280, Note_on_c, 10, 73, 0
4, 59280, Note_on_c, 10, 72, 64
4, 59280, Note_on_c, 10, 68, 64
4, 59520, Note_on_c, 10, 68, 0
4, 59520, Note_on_c, 10, 72, 0
4, 59520, Note_on_c, 10, 67, 80
4, 59520, Note_on_c, 10, 70, 80
4, 60480, Note_on_c, 10, 70, 0
4, 60480, Note_on_c, 10, 67, 0
4, 60480, Note_on_c, 10, 70, 80
4, 60480, Note_on_c, 10, 73, 80
4, 61440, Note_on_c, 10, 73, 0
4, 61440, Note_on_c, 10, 70, 0
4, 61440, Note_on_c, 10, 70, 80
4, 61440, Note_on_c, 10, 74, 80
4, 62400, Note_on_c, 10, 74, 0
4, 62400, Note_on_c, 10, 70, 0
4, 62400, Note_on_c, 10, 69, 80
4, 62400, Note_on_c, 10, 72, 80
4, 63360, Note_on_c, 10, 72, 0
4, 63360, Note_on_c, 10, 69, 0
4, 63360, Note_on_c, 10, 70, 80
4, 63600, Note_on_c, 10, 70, 0
4, 65280, Note_on_c, 10, 62, 80
4, 65280, Note_on_c, 10, 65, 80
4, 65520, Note_on_c, 10, 65, 0
4, 65520, Note_on_c, 10, 62, 0
4, 65760, Note_on_c, 10, 63, 80
4, 65760, Note_on_c, 10, 67, 80
4, 66000, Note_on_c, 10, 67, 0
4, 66000, Note_on_c, 10, 63, 0
4, 66240, Note_on_c, 10, 69, 80
4, 66240, Note_on_c, 10, 72, 80
4, 66480, Note_on_c, 10, 72, 0
4, 66480, Note_on_c, 10, 69, 0
4, 66720, Note_on_c, 10, 74, 80
4, 66720, Note_on_c, 10, 70, 80
4, 66960, Note_on_c, 10, 70, 0
4, 66960, Note_on_c, 10, 74, 0
4, 69840, Note_on_c, 10, 79, 64
4, 69960, Note_on_c, 10, 79, 0
4, 69960, Note_on_c, 10, 77, 64
4, 70080, Note_on_c, 10, 77, 0
4, 70080, Note_on_c, 10, 77, 64
4, 70272, Note_on_c, 10, 77, 0
4, 70320, Note_on_c, 10, 79, 64
4, 70440, Note_on_c, 10, 79, 0
4, 70440, Note_on_c, 10, 77, 64
4, 70560, Note_on_c, 10, 77, 0
4, 70560, Note_on_c, 10, 77, 64
4, 70752, Note_on_c, 10, 77, 0
4, 71760, Note_on_c, 10, 79, 64
4, 71880, Note_on_c, 10, 79, 0
4, 71880, Note_on_c, 10, 77, 64
4, 72000, Note_on_c, 10, 77, 0
4, 72000, Note_on_c, 10, 77, 64
4, 72192, Note_on_c, 10, 77, 0
4, 72240, Note_on_c, 10, 79, 64
4, 72360, Note_on_c, 10, 79, 0
4, 72360, Note_on_c, 10, 77, 64
4, 72480, Note_on_c, 10, 77, 0
4, 72480, Note_on_c, 10, 77, 64
4, 72672, Note_on_c, 10, 77, 0
4, 73920, Note_on_c, 10, 72, 80
4, 73920, Note_on_c, 10, 78, 80
4, 74688, Note_on_c, 10, 78, 0
4, 74688, Note_on_c, 10, 72, 0
4, 78480, Note_on_c, 10, 79, 64
4, 78600, Note_on_c, 10, 79, 0
4, 78600, Note_on_c, 10, 77, 64
4, 78720, Note_on_c, 10, 77, 0
4, 78720, Note_on_c, 10, 77, 64
4, 78912, Note_on_c, 10, 77, 0
4, 78960, Note_on_c, 10, 79, 64
4, 79080, Note_on_c, 10, 79, 0
4, 79080, Note_on_c, 10, 77, 64
4, 79200, Note_on_c, 10, 77, 0
4, 79200, Note_on_c, 10, 77, 64
4, 79392, Note_on_c, 10, 77, 0
4, 80400, Note_on_c, 10, 79, 64
4, 80520, Note_on_c, 10, 79, 0
4, 80520, Note_on_c, 10, 77, 64
4, 80640, Note_on_c, 10, 77, 0
4, 80640, Note_on_c, 10, 77, 64
4, 80832, Note_on_c, 10, 77, 0
4, 80880, Note_on_c, 10, 79, 64
4, 81000, Note_on_c, 10, 79, 0
4, 81000, Note_on_c, 10, 77, 64
4, 81120, Note_on_c, 10, 77, 0
4, 81120, Note_on_c, 10, 77, 64
4, 81312, Note_on_c, 10, 77, 0
4, 81600, Note_on_c, 10, 78, 80
4, 81600, Note_on_c, 10, 72, 80
4, 82560, Note_on_c, 10, 72, 0
4, 82560, Note_on_c, 10, 78, 0
4, 82560, Note_on_c, 10, 70, 80
4, 83040, Note_on_c, 10, 70, 0
4, 83040, Note_on_c, 10, 75, 80
4, 83520, Note_on_c, 10, 75, 0
4, 83520, Note_on_c, 10, 74, 80
4, 83520, Note_on_c, 10, 77, 80
4, 83880, Note_on_c, 10, 77, 0
4, 83880, Note_on_c, 10, 74, 0
4, 83880, Note_on_c, 10, 70, 80
4, 83880, Note_on_c, 10, 74, 80
4, 84000, Note_on_c, 10, 74, 0
4, 84000, Note_on_c, 10, 70, 0
4, 84000, Note_on_c, 10, 75, 80
4, 84000, Note_on_c, 10, 72, 80
4, 84360, Note_on_c, 10, 72, 0
4, 84360, Note_on_c, 10, 75, 0
4, 84360, Note_on_c, 10, 69, 80
4, 84360, Note_on_c, 10, 72, 80
4, 84480, Note_on_c, 10, 72, 0
4, 84480, Note_on_c, 10, 69, 0
4, 84480, Note_on_c, 10, 70, 80
4, 84864, Note_on_c, 10, 70, 0
4, 85320, Note_on_c, 10, 77, 80
4, 85416, Note_on_c, 10, 77, 0
4, 85440, Note_on_c, 10, 75, 80
4, 85536, Note_on_c, 10, 75, 0
4, 85560, Note_on_c, 10, 74, 80
4, 85656, Note_on_c, 10, 74, 0
4, 85680, Note_on_c, 10, 72, 80
4, 85776, Note_on_c, 10, 72, 0
4, 85800, Note_on_c, 10, 70, 80
4, 85896, Note_on_c, 10, 70, 0
4, 85920, Note_on_c, 10, 69, 80
4, 86016, Note_on_c, 10, 69, 0
4, 86040, Note_on_c, 10, 67, 80
4, 86136, Note_on_c, 10, 67, 0
4, 86160, Note_on_c, 10, 65, 80
4, 86256, Note_on_c, 10, 65, 0
4, 86280, Note_on_c, 10, 63, 80
4, 86376, Note_on_c, 10, 63, 0
4, 86400, Note_on_c, 10, 62, 80
4, 86544, Note_on_c, 10, 62, 0
4, 86640, Note_on_c, 10, 70, 80
4, 86640, Note_on_c, 10, 77, 80
4, 86784, Note_on_c, 10, 77, 0
4, 86880, Note_on_c, 10, 79, 80
4, 87024, Note_on_c, 10, 79, 0
4, 87024, Note_on_c, 10, 70, 0
4, 87120, Note_on_c, 10, 69, 80
4, 87120, Note_on_c, 10, 72, 80
4, 87264, Note_on_c, 10, 72, 0
4, 87264, Note_on_c, 10, 69, 0
4, 87360, Note_on_c, 10, 70, 80
4, 87456, Note_on_c, 10, 70, 0
4, 87480, Note_on_c, 10, 65, 80
4, 87576, Note_on_c, 10, 65, 0
4, 87600, Note_on_c, 10, 74, 80
4, 87696, Note_on_c, 10, 74, 0
4, 87720, Note_on_c, 10, 72, 80
4, 87816, Note_on_c, 10, 72, 0
4, 87840, Note_on_c, 10, 70, 80
4, 87936, Note_on_c, 10, 70, 0
4, 87960, Note_on_c, 10, 69, 80
4, 88056, Note_on_c, 10, 69, 0
4, 88080, Note_on_c, 10, 67, 80
4, 88176, Note_on_c, 10, 67, 0
4, 88200, Note_on_c, 10, 65, 80
4, 88296, Note_on_c, 10, 65, 0
4, 88320, Note_on_c, 10, 63, 80
4, 88416, Note_on_c, 10, 63, 0
4, 88440, Note_on_c, 10, 62, 80
4, 88536, Note_on_c, 10, 62, 0
4, 88560, Note_on_c, 10, 60, 80
4, 88656, Note_on_c, 10, 60, 0
4, 88680, Note_on_c, 10, 58, 80
4, 88776, Note_on_c, 10, 58, 0
4, 88800, Note_on_c, 10, 57, 80
4, 88896, Note_on_c, 10, 57, 0
4, 88920, Note_on_c, 10, 60, 80
4, 89016, Note_on_c, 10, 60, 0
4, 89040, Note_on_c, 10, 65, 80
4, 89136, Note_on_c, 10, 65, 0
4, 89160, Note_on_c, 10, 63, 80
4, 89256, Note_on_c, 10, 63, 0
4, 89280, Note_on_c, 10, 62, 80
4, 89472, Note_on_c, 10, 62, 0
4, 90000, Note_on_c, 10, 69, 80
4, 90000, Note_on_c, 10, 75, 80
4, 90192, Note_on_c, 10, 75, 0
4, 90192, Note_on_c, 10, 69, 0
4, 90240, Note_on_c, 10, 70, 80
4, 90240, Note_on_c, 10, 74, 80
4, 90432, Note_on_c, 10, 74, 0
4, 90432, Note_on_c, 10, 70, 0
4, 90480, Note_on_c, 10, 75, 80
4, 90480, Note_on_c, 10, 79, 80
4, 90672, Note_on_c, 10, 79, 0
4, 90672, Note_on_c, 10, 75, 0
4, 90720, Note_on_c, 10, 74, 80
4, 90720, Note_on_c, 10, 77, 80
4, 90912, Note_on_c, 10, 77, 0
4, 90912, Note_on_c, 10, 74, 0
4, 90960, Note_on_c, 10, 69, 80
4, 90960, Note_on_c, 10, 72, 80
4, 91152, Note_on_c, 10, 72, 0
4, 91152, Note_on_c, 10, 69, 0
4, 91200, Note_on_c, 10, 70, 80
4, 91200, Note_on_c, 10, 74, 80
4, 91392, Note_on_c, 10, 74, 0
4, 91392, Note_on_c, 10, 70, 0
4, 91440, Note_on_c, 10, 70, 80
4, 91440, Note_on_c, 10, 74, 80
4, 91536, Note_on_c, 10, 74, 0
4, 91536, Note_on_c, 10, 70, 0
4, 91560, Note_on_c, 10, 70, 80
4, 91560, Note_on_c, 10, 74, 80
4, 91656, Note_on_c, 10, 74, 0
4, 91656, Note_on_c, 10, 70, 0
4, 91680, Note_on_c, 10, 69, 80
4, 91680, Note_on_c, 10, 72, 80
4, 91872, Note_on_c, 10, 72, 0
4, 91872, Note_on_c, 10, 69, 0
4, 91920, Note_on_c, 10, 69, 80
4, 91920, Note_on_c, 10, 72, 80
4, 92016, Note_on_c, 10, 72, 0
4, 92016, Note_on_c, 10, 69, 0
4, 92040, Note_on_c, 10, 69, 80
4, 92040, Note_on_c, 10, 72, 80
4, 92136, Note_on_c, 10, 72, 0
4, 92136, Note_on_c, 10, 69, 0
4, 92160, Note_on_c, 10, 70, 80
4, 92160, Note_on_c, 10, 74, 80
4, 92352, Note_on_c, 10, 74, 0
4, 92352, Note_on_c, 10, 70, 0
4, 92400, Note_on_c, 10, 70, 80
4, 92400, Note_on_c, 10, 74, 80
4, 92496, Note_on_c, 10, 74, 0
4, 92496, Note_on_c, 10, 70, 0
4, 92520, Note_on_c, 10, 70, 80
4, 92520, Note_on_c, 10, 74, 80
4, 92616, Note_on_c, 10, 74, 0
4, 92616, Note_on_c, 10, 70, 0
4, 92640, Note_on_c, 10, 69, 80
4, 92640, Note_on_c, 10, 72, 80
4, 92832, Note_on_c, 10, 72, 0
4, 92832, Note_on_c, 10, 69, 0
4, 92880, Note_on_c, 10, 69, 80
4, 92880, Note_on_c, 10, 72, 80
4, 92976, Note_on_c, 10, 72, 0
4, 92976, Note_on_c, 10, 69, 0
4, 93000, Note_on_c, 10, 69, 80
4, 93000, Note_on_c, 10, 72, 80
4, 93096, Note_on_c, 10, 72, 0
4, 93096, Note_on_c, 10, 69, 0
4, 93120, Note_on_c, 10, 74, 80
4, 93120, Note_on_c, 10, 70, 80
4, 93312, Note_on_c, 10, 70, 0
4, 93312, Note_on_c, 10, 74, 0
4, 93360, Note_on_c, 10, 74, 80
4, 93360, Note_on_c, 10, 70, 80
4, 93456, Note_on_c, 10, 70, 0
4, 93456, Note_on_c, 10, 74, 0
4, 93480, Note_on_c, 10, 74, 80
4, 93480, Note_on_c, 10, 70, 80
4, 93576, Note_on_c, 10, 70, 0
4, 93576, Note_on_c, 10, 74, 0
4, 93600, Note_on_c, 10, 72, 80
4, 93600, Note_on_c, 10, 69, 80
4, 93792, Note_on_c, 10, 69, 0
4, 93792, Note_on_c, 10, 72, 0
4, 93840, Note_on_c, 10, 72, 80
4, 93840, Note_on_c, 10, 69, 80
4, 93936, Note_on_c, 10, 69, 0
4, 93936, Note_on_c, 10, 72, 0
4, 93960, Note_on_c, 10, 72, 80
4, 93960, Note_on_c, 10, 69, 80
4, 94056, Note_on_c, 10, 69, 0
4, 94056, Note_on_c, 10, 72, 0
4, 94080, Note_on_c, 10, 70, 80
4, 94080, Note_on_c, 10, 74, 80
4, 94272, Note_on_c, 10, 74, 0
4, 94272, Note_on_c, 10, 70, 0
4, 94320, Note_on_c, 10, 69, 80
4, 94320, Note_on_c, 10, 72, 80
4, 94512, Note_on_c, 10, 72, 0
4, 94512, Note_on_c, 10, 69, 0
4, 94560, Note_on_c, 10, 70, 80
4, 94560, Note_on_c, 10, 74, 80
4, 94752, Note_on_c, 10, 74, 0
4, 94752, Note_on_c, 10, 70, 0
4, 94800, Note_on_c, 10, 69, 80
4, 94800, Note_on_c, 10, 72, 80
4, 94992, Note_on_c, 10, 72, 0
4, 94992, Note_on_c, 10, 69, 0
4, 95040, Note_on_c, 10, 70, 80
4, 95040, Note_on_c, 10, 74, 80
4, 95328, Note_on_c, 10, 74, 0
4, 95328, Note_on_c, 10, 70, 0
4, 96000, Note_on_c, 10, 72, 80
4, 96000, Note_on_c, 10, 78, 80
4, 96288, Note_on_c, 10, 78, 0
4, 96288, Note_on_c, 10, 72, 0
4, 109680, Note_on_c, 10, 66, 56
4, 109920, Note_on_c, 10, 66, 0
4, 109920, Note_on_c, 10, 67, 56
4, 110160, Note_on_c, 10, 67, 0
4, 110160, Note_on_c, 10, 69, 56
4, 110400, Note_on_c, 10, 69, 0
4, 110400, Note_on_c, 10, 70, 56
4, 110640, Note_on_c, 10, 70, 0
4, 110640, Note_on_c, 10, 72, 56
4, 110760, Note_on_c, 10, 72, 0
4, 110760, Note_on_c, 10, 70, 56
4, 110880, Note_on_c, 10, 70, 0
4, 110880, Note_on_c, 10, 69, 56
4, 111120, Note_on_c, 10, 69, 0
4, 111120, Note_on_c, 10, 67, 56
4, 111360, Note_on_c, 10, 67, 0
4, 111360, Note_on_c, 10, 66, 56
4, 111552, Note_on_c, 10, 66, 0
4, 111840, Note_on_c, 10, 76, 80
4, 111840, Note_on_c, 10, 73, 80
4, 112320, Note_on_c, 10, 73, 0
4, 112320, Note_on_c, 10, 76, 0
4, 112320, Note_on_c, 10, 78, 80
4, 112320, Note_on_c, 10, 74, 80
4, 112560, Note_on_c, 10, 74, 0
4, 112560, Note_on_c, 10, 78, 0
4, 112800, Note_on_c, 10, 73, 80
4, 112800, Note_on_c, 10, 76, 80
4, 113280, Note_on_c, 10, 76, 0
4, 113280, Note_on_c, 10, 73, 0
4, 113280, Note_on_c, 10, 74, 80
4, 113280, Note_on_c, 10, 78, 80
4, 113520, Note_on_c, 10, 78, 0
4, 113520, Note_on_c, 10, 74, 0
4, 113760, Note_on_c, 10, 76, 80
4, 113760, Note_on_c, 10, 73, 80
4, 114240, Note_on_c, 10, 73, 0
4, 114240, Note_on_c, 10, 76, 0
4, 114240, Note_on_c, 10, 74, 75
4, 114240, Note_on_c, 10, 78, 75
4, 114384, Note_on_c, 10, 78, 0
4, 114384, Note_on_c, 10, 74, 0
4, 114480, Note_on_c, 10, 73, 68
4, 114480, Note_on_c, 10, 76, 68
4, 114624, Note_on_c, 10, 76, 0
4, 114624, Note_on_c, 10, 73, 0
4, 114720, Note_on_c, 10, 78, 60
4, 114720, Note_on_c, 10, 74, 60
4, 114864, Note_on_c, 10, 74, 0
4, 114864, Note_on_c, 10, 78, 0
4, 114960, Note_on_c, 10, 73, 53
4, 114960, Note_on_c, 10, 76, 53
4, 115104, Note_on_c, 10, 76, 0
4, 115104, Note_on_c, 10, 73, 0
4, 115200, Note_on_c, 10, 78, 53
4, 115200, Note_on_c, 10, 74, 53
4, 115584, Note_on_c, 10, 74, 0
4, 115584, Note_on_c, 10, 78, 0
4, 122880, Note_on_c, 10, 70, 80
4, 123840, Note_on_c, 10, 70, 0
4, 123840, Note_on_c, 10, 65, 80
4, 124800, Note_on_c, 10, 65, 0
4, 124800, Note_on_c, 10, 75, 80
4, 125760, Note_on_c, 10, 75, 0
4, 125760, Note_on_c, 10, 74, 80
4, 126720, Note_on_c, 10, 74, 0
4, 126720, Note_on_c, 10, 72, 80
4, 127680, Note_on_c, 10, 72, 0
4, 127680, Note_on_c, 10, 70, 80
4, 128640, Note_on_c, 10, 70, 0
4, 128640, Note_on_c, 10, 76, 80
4, 128640, Note_on_c, 10, 70, 80
4, 129480, Note_on_c, 10, 70, 0
4, 129480, Note_on_c, 10, 76, 0
4, 129480, Note_on_c, 10, 77, 80
4, 129576, Note_on_c, 10, 77, 0
4, 129600, Note_on_c, 10, 76, 80
4, 129600, Note_on_c, 10, 70, 80
4, 130440, Note_on_c, 10, 70, 0
4, 130440, Note_on_c, 10, 76, 0
4, 130440, Note_on_c, 10, 77, 80
4, 130536, Note_on_c, 10, 77, 0
4, 130560, Note_on_c, 10, 76, 80
4, 130560, Note_on_c, 10, 70, 80
4, 131400, Note_on_c, 10, 70, 0
4, 131400, Note_on_c, 10, 76, 0
4, 131400, Note_on_c, 10, 77, 80
4, 131496, Note_on_c, 10, 77, 0
4, 131520, Note_on_c, 10, 76, 80
4, 131520, Note_on_c, 10, 70, 80
4, 132480, Note_on_c, 10, 70, 0
4, 132480, Note_on_c, 10, 76, 0
4, 132480, Note_on_c, 10, 77, 80
4, 132480, Note_on_c, 10, 69, 80
4, 132960, Note_on_c, 10, 69, 0
4, 132960, Note_on_c, 10, 77, 0
4, 132960, Note_on_c, 10, 75, 80
4, 132960, Note_on_c, 10, 72, 80
4, 133440, Note_on_c, 10, 72, 0
4, 133440, Note_on_c, 10, 75, 0
4, 133440, Note_on_c, 10, 73, 80
4, 133440, Note_on_c, 10, 70, 80
4, 134400, Note_on_c, 10, 70, 0
4, 134400, Note_on_c, 10, 73, 0
4, 134400, Note_on_c, 10, 72, 80
4, 134400, Note_on_c, 10, 69, 80
4, 134880, Note_on_c, 10, 69, 0
4, 134880, Note_on_c, 10, 72, 0
4, 134880, Note_on_c, 10, 75, 80
4, 134880, Note_on_c, 10, 72, 80
4, 135360, Note_on_c, 10, 72, 0
4, 135360, Note_on_c, 10, 75, 0
4, 135360, Note_on_c, 10, 73, 80
4, 135360, Note_on_c, 10, 70, 80
4, 135840, Note_on_c, 10, 70, 0
4, 135840, Note_on_c, 10, 73, 0
4, 135840, Note_on_c, 10, 73, 80
4, 135840, Note_on_c, 10, 76, 80
4, 136320, Note_on_c, 10, 76, 0
4, 136320, Note_on_c, 10, 73, 0
4, 136320, Note_on_c, 10, 77, 80
4, 136320, Note_on_c, 10, 72, 80
4, 136560, Note_on_c, 10, 72, 0
4, 136560, Note_on_c, 10, 77, 0
4, 136800, Note_on_c, 10, 69, 56
4, 136800, Note_on_c, 10, 72, 56
4, 137040, Note_on_c, 10, 72, 0
4, 137040, Note_on_c, 10, 69, 0
4, 139200, Note_on_c, 10, 75, 75
4, 139920, Note_on_c, 10, 75, 0
4, 139920, Note_on_c, 10, 77, 67
4, 139980, Note_on_c, 10, 77, 0
4, 139980, Note_on_c, 10, 75, 66
4, 140040, Note_on_c, 10, 75, 0
4, 140040, Note_on_c, 10, 74, 65
4, 140100, Note_on_c, 10, 74, 0
4, 140100, Note_on_c, 10, 72, 65
4, 140160, Note_on_c, 10, 72, 0
4, 140160, Note_on_c, 10, 70, 56
4, 140400, Note_on_c, 10, 70, 0
4, 144960, Note_on_c, 10, 70, 64
4, 145080, Note_on_c, 10, 70, 0
4, 145080, Note_on_c, 10, 69, 64
4, 145200, Note_on_c, 10, 69, 0
4, 145200, Note_on_c, 10, 72, 64
4, 145320, Note_on_c, 10, 72, 0
4, 145320, Note_on_c, 10, 70, 64
4, 145440, Note_on_c, 10, 70, 0
4, 145440, Note_on_c, 10, 74, 64
4, 145560, Note_on_c, 10, 74, 0
4, 145560, Note_on_c, 10, 72, 64
4, 145680, Note_on_c, 10, 72, 0
4, 145680, Note_on_c, 10, 75, 64
4, 145800, Note_on_c, 10, 75, 0
4, 145800, Note_on_c, 10, 74, 64
4, 145920, Note_on_c, 10, 74, 0
4, 145920, Note_on_c, 10, 77, 64
4, 146640, Note_on_c, 10, 77, 0
4, 146640, Note_on_c, 10, 76, 64
4, 146880, Note_on_c, 10, 76, 0
4, 146880, Note_on_c, 10, 75, 64
4, 147240, Note_on_c, 10, 75, 0
4, 148080, Note_on_c, 10, 70, 64
4, 148224, Note_on_c, 10, 70, 0
4, 148320, Note_on_c, 10, 70, 64
4, 148320, Note_on_c, 10, 70, 64
4, 148560, Note_on_c, 10, 70, 0
4, 148560, Note_on_c, 10, 72, 64
4, 148800, Note_on_c, 10, 72, 0
4, 148800, Note_on_c, 10, 74, 64
4, 149160, Note_on_c, 10, 74, 0
4, 149160, Note_on_c, 10, 70, 0
4, 149160, Note_on_c, 10, 75, 64
4, 149160, Note_on_c, 10, 72, 64
4, 149280, Note_on_c, 10, 72, 0
4, 149280, Note_on_c, 10, 75, 0
4, 149280, Note_on_c, 10, 72, 64
4, 149280, Note_on_c, 10, 69, 64
4, 149520, Note_on_c, 10, 69, 0
4, 149520, Note_on_c, 10, 72, 0
4, 149760, Note_on_c, 10, 79, 64
4, 150480, Note_on_c, 10, 79, 0
4, 150480, Note_on_c, 10, 78, 64
4, 150720, Note_on_c, 10, 78, 0
4, 150720, Note_on_c, 10, 77, 64
4, 150960, Note_on_c, 10, 77, 0
4, 150960, Note_on_c, 10, 76, 64
4, 151200, Note_on_c, 10, 76, 0
4, 151200, Note_on_c, 10, 75, 64
4, 151440, Note_on_c, 10, 75, 0
4, 151440, Note_on_c, 10, 74, 64
4, 151680, Note_on_c, 10, 74, 0
4, 151680, Note_on_c, 10, 73, 64
4, 151680, Note_on_c, 10, 70, 64
4, 152400, Note_on_c, 10, 70, 0
4, 152400, Note_on_c, 10, 73, 0
4, 152400, Note_on_c, 10, 72, 64
4, 152400, Note_on_c, 10, 68, 64
4, 152640, Note_on_c, 10, 68, 0
4, 152640, Note_on_c, 10, 72, 0
4, 152640, Note_on_c, 10, 70, 64
4, 152640, Note_on_c, 10, 73, 64
4, 153360, Note_on_c, 10, 73, 0
4, 153360, Note_on_c, 10, 70, 0
4, 153360, Note_on_c, 10, 68, 64
4, 153360, Note_on_c, 10, 72, 64
4, 153600, Note_on_c, 10, 72, 0
4, 153600, Note_on_c, 10, 68, 0
4, 153600, Note_on_c, 10, 70, 64
4, 153600, Note_on_c, 10, 73, 64
4, 154320, Note_on_c, 10, 73, 0
4, 154320, Note_on_c, 10, 70, 0
4, 154320, Note_on_c, 10, 68, 64
4, 154320, Note_on_c, 10, 72, 64
4, 154560, Note_on_c, 10, 72, 0
4, 154560, Note_on_c, 10, 68, 0
4, 154560, Note_on_c, 10, 70, 64
4, 154560, Note_on_c, 10, 73, 64
4, 155280, Note_on_c, 10, 73, 0
4, 155280, Note_on_c, 10, 70, 0
4, 155280, Note_on_c, 10, 68, 64
4, 155280, Note_on_c, 10, 72, 64
4, 155520, Note_on_c, 10, 72, 0
4, 155520, Note_on_c, 10, 68, 0
4, 155520, Note_on_c, 10, 70, 80
4, 155520, Note_on_c, 10, 67, 80
4, 156480, Note_on_c, 10, 67, 0
4, 156480, Note_on_c, 10, 70, 0
4, 156480, Note_on_c, 10, 73, 80
4, 156480, Note_on_c, 10, 70, 80
4, 157440, Note_on_c, 10, 70, 0
4, 157440, Note_on_c, 10, 73, 0
4, 157440, Note_on_c, 10, 74, 80
4, 157440, Note_on_c, 10, 70, 80
4, 158400, Note_on_c, 10, 70, 0
4, 158400, Note_on_c, 10, 74, 0
4, 158400, Note_on_c, 10, 72, 80
4, 158400, Note_on_c, 10, 69, 80
4, 159360, Note_on_c, 10, 69, 0
4, 159360, Note_on_c, 10, 72, 0
4, 159360, Note_on_c, 10, 70, 80
4, 159600, Note_on_c, 10, 70, 0
4, 161280, Note_on_c, 10, 65, 80
4, 161280, Note_on_c, 10, 62, 80
4, 161520, Note_on_c, 10, 62, 0
4, 161520, Note_on_c, 10, 65, 0
4, 161760, Note_on_c, 10, 67, 80
4, 161760, Note_on_c, 10, 63, 80
4, 162000, Note_on_c, 10, 63, 0
4, 162000, Note_on_c, 10, 67, 0
4, 162240, Note_on_c, 10, 72, 80
4, 162240, Note_on_c, 10, 69, 80
4, 162480, Note_on_c, 10, 69, 0
4, 162480, Note_on_c, 10, 72, 0
4, 162720, Note_on_c, 10, 70, 80
4, 162720, Note_on_c, 10, 74, 80
4, 162960, Note_on_c, 10, 74, 0
4, 162960, Note_on_c, 10, 70, 0
4, 165840, Note_on_c, 10, 79, 64
4, 165960, Note_on_c, 10, 79, 0
4, 165960, Note_on_c, 10, 77, 64
4, 166080, Note_on_c, 10, 77, 0
4, 166080, Note_on_c, 10, 77, 64
4, 166272, Note_on_c, 10, 77, 0
4, 166320, Note_on_c, 10, 79, 64
4, 166440, Note_on_c, 10, 79, 0
4, 166440, Note_on_c, 10, 77, 64
4, 166560, Note_on_c, 10, 77, 0
4, 166560, Note_on_c, 10, 77, 64
4, 166752, Note_on_c, 10, 77, 0
4, 167760, Note_on_c, 10, 79, 64
4, 167880, Note_on_c, 10, 79, 0
4, 167880, Note_on_c, 10, 77, 64
4, 168000, Note_on_c, 10, 77, 0
4, 168000, Note_on_c, 10, 77, 64
4, 168192, Note_on_c, 10, 77, 0
4, 168240, Note_on_c, 10, 79, 64
4, 168360, Note_on_c, 10, 79, 0
4, 168360, Note_on_c, 10, 77, 64
4, 168480, Note_on_c, 10, 77, 0
4, 168480, Note_on_c, 10, 77, 64
4, 168672, Note_on_c, 10, 77, 0
4, 169920, Note_on_c, 10, 78, 80
4, 169920, Note_on_c, 10, 72, 80
4, 170688, Note_on_c, 10, 72, 0
4, 170688, Note_on_c, 10, 78, 0
4, 174480, Note_on_c, 10, 79, 64
4, 174600, Note_on_c, 10, 79, 0
4, 174600, Note_on_c, 10, 77, 64
4, 174720, Note_on_c, 10, 77, 0
4, 174720, Note_on_c, 10, 77, 64
4, 174912, Note_on_c, 10, 77, 0
4, 174960, Note_on_c, 10, 79, 64
4, 175080, Note_on_c, 10, 79, 0
4, 175080, Note_on_c, 10, 77, 64
4, 175200, Note_on_c, 10, 77, 0
4, 175200, Note_on_c, 10, 77, 64
4, 175392, Note_on_c, 10, 77, 0
4, 176400, Note_on_c, 10, 79, 64
4, 176520, Note_on_c, 10, 79, 0
4, 176520, Note_on_c, 10, 77, 64
4, 176640, Note_on_c, 10, 77, 0
4, 176640, Note_on_c, 10, 77, 64
4, 176832, Note_on_c, 10, 77, 0
4, 176880, Note_on_c, 10, 79, 64
4, 177000, Note_on_c, 10, 79, 0
4, 177000, Note_on_c, 10, 77, 64
4, 177120, Note_on_c, 10, 77, 0
4, 177120, Note_on_c, 10, 77, 64
4, 177312, Note_on_c, 10, 77, 0
4, 177600, Note_on_c, 10, 72, 80
4, 177600, Note_on_c, 10, 78, 80
4, 178560, Note_on_c, 10, 78, 0
4, 178560, Note_on_c, 10, 72, 0
4, 178560, Note_on_c, 10, 70, 80
4, 179040, Note_on_c, 10, 70, 0
4, 179040, Note_on_c, 10, 75, 80
4, 179520, Note_on_c, 10, 75, 0
4, 179520, Note_on_c, 10, 77, 80
4, 179520, Note_on_c, 10, 74, 80
4, 179880, Note_on_c, 10, 74, 0
4, 179880, Note_on_c, 10, 77, 0
4, 179880, Note_on_c, 10, 74, 80
4, 179880, Note_on_c, 10, 70, 80
4, 180000, Note_on_c, 10, 70, 0
4, 180000, Note_on_c, 10, 74, 0
4, 180000, Note_on_c, 10, 72, 80
4, 180000, Note_on_c, 10, 75, 80
4, 180360, Note_on_c, 10, 75, 0
4, 180360, Note_on_c, 10, 72, 0
4, 180360, Note_on_c, 10, 72, 80
4, 180360, Note_on_c, 10, 69, 80
4, 180480, Note_on_c, 10, 69, 0
4, 180480, Note_on_c, 10, 72, 0
4, 180480, Note_on_c, 10, 70, 80
4, 180864, Note_on_c, 10, 70, 0
4, 181320, Note_on_c, 10, 77, 80
4, 181416, Note_on_c, 10, 77, 0
4, 181440, Note_on_c, 10, 75, 80
4, 181536, Note_on_c, 10, 75, 0
4, 181560, Note_on_c, 10, 74, 80
4, 181656, Note_on_c, 10, 74, 0
4, 181680, Note_on_c, 10, 72, 80
4, 181776, Note_on_c, 10, 72, 0
4, 181800, Note_on_c, 10, 70, 80
4, 181896, Note_on_c, 10, 70, 0
4, 181920, Note_on_c, 10, 69, 80
4, 182016, Note_on_c, 10, 69, 0
4, 182040, Note_on_c, 10, 67, 80
4, 182136, Note_on_c, 10, 67, 0
4, 182160, Note_on_c, 10, 65, 80
4, 182256, Note_on_c, 10, 65, 0
4, 182280, Note_on_c, 10, 63, 80
4, 182376, Note_on_c, 10, 63, 0
4, 182400, Note_on_c, 10, 62, 80
4, 182544, Note_on_c, 10, 62, 0
4, 182640, Note_on_c, 10, 70, 80
4, 182640, Note_on_c, 10, 77, 80
4, 182784, Note_on_c, 10, 77, 0
4, 182880, Note_on_c, 10, 79, 80
4, 183024, Note_on_c, 10, 79, 0
4, 183024, Note_on_c, 10, 70, 0
4, 183120, Note_on_c, 10, 72, 80
4, 183120, Note_on_c, 10, 69, 80
4, 183264, Note_on_c, 10, 69, 0
4, 183264, Note_on_c, 10, 72, 0
4, 183360, Note_on_c, 10, 70, 80
4, 183456, Note_on_c, 10, 70, 0
4, 183480, Note_on_c, 10, 65, 80
4, 183576, Note_on_c, 10, 65, 0
4, 183600, Note_on_c, 10, 74, 80
4, 183696, Note_on_c, 10, 74, 0
4, 183720, Note_on_c, 10, 72, 80
4, 183816, Note_on_c, 10, 72, 0
4, 183840, Note_on_c, 10, 70, 80
4, 183936, Note_on_c, 10, 70, 0
4, 183960, Note_on_c, 10, 69, 80
4, 184056, Note_on_c, 10, 69, 0
4, 184080, Note_on_c, 10, 67, 80
4, 184176, Note_on_c, 10, 67, 0
4, 184200, Note_on_c, 10, 65, 80
4, 184296, Note_on_c, 10, 65, 0
4, 184320, Note_on_c, 10, 63, 80
4, 184416, Note_on_c, 10, 63, 0
4, 184440, Note_on_c, 10, 62, 80
4, 184536, Note_on_c, 10, 62, 0
4, 184560, Note_on_c, 10, 60, 80
4, 184656, Note_on_c, 10, 60, 0
4, 184680, Note_on_c, 10, 58, 80
4, 184776, Note_on_c, 10, 58, 0
4, 184800, Note_on_c, 10, 57, 80
4, 184896, Note_on_c, 10, 57, 0
4, 184920, Note_on_c, 10, 60, 80
4, 185016, Note_on_c, 10, 60, 0
4, 185040, Note_on_c, 10, 65, 80
4, 185136, Note_on_c, 10, 65, 0
4, 185160, Note_on_c, 10, 63, 80
4, 185256, Note_on_c, 10, 63, 0
4, 185280, Note_on_c, 10, 62, 80
4, 185472, Note_on_c, 10, 62, 0
4, 186000, Note_on_c, 10, 75, 80
4, 186000, Note_on_c, 10, 69, 80
4, 186192, Note_on_c, 10, 69, 0
4, 186192, Note_on_c, 10, 75, 0
4, 186240, Note_on_c, 10, 74, 80
4, 186240, Note_on_c, 10, 70, 80
4, 186432, Note_on_c, 10, 70, 0
4, 186432, Note_on_c, 10, 74, 0
4, 186480, Note_on_c, 10, 79, 80
4, 186480, Note_on_c, 10, 75, 80
4, 186672, Note_on_c, 10, 75, 0
4, 186672, Note_on_c, 10, 79, 0
4, 186720, Note_on_c, 10, 77, 80
4, 186720, Note_on_c, 10, 74, 80
4, 186912, Note_on_c, 10, 74, 0
4, 186912, Note_on_c, 10, 77, 0
4, 186960, Note_on_c, 10, 72, 80
4, 186960, Note_on_c, 10, 69, 80
4, 187152, Note_on_c, 10, 69, 0
4, 187152, Note_on_c, 10, 72, 0
4, 187200, Note_on_c, 10, 74, 80
4, 187200, Note_on_c, 10, 70, 80
4, 187392, Note_on_c, 10, 70, 0
4, 187392, Note_on_c, 10, 74, 0
4, 187440, Note_on_c, 10, 74, 80
4, 187440, Note_on_c, 10, 70, 80
4, 187536, Note_on_c, 10, 70, 0
4, 187536, Note_on_c, 10, 74, 0
4, 187560, Note_on_c, 10, 74, 80
4, 187560, Note_on_c, 10, 70, 80
4, 187656, Note_on_c, 10, 70, 0
4, 187656, Note_on_c, 10, 74, 0
4, 187680, Note_on_c, 10, 72, 80
4, 187680, Note_on_c, 10, 69, 80
4, 187872, Note_on_c, 10, 69, 0
4, 187872, Note_on_c, 10, 72, 0
4, 187920, Note_on_c, 10, 72, 80
4, 187920, Note_on_c, 10, 69, 80
4, 188016, Note_on_c, 10, 69, 0
4, 188016, Note_on_c, 10, 72, 0
4, 188040, Note_on_c, 10, 72, 80
4, 188040, Note_on_c, 10, 69, 80
4, 188136, Note_on_c, 10, 69, 0
4, 188136, Note_on_c, 10, 72, 0
4, 188160, Note_on_c, 10, 74, 80
4, 188160, Note_on_c, 10, 70, 80
4, 188352, Note_on_c, 10, 70, 0
4, 188352, Note_on_c, 10, 74, 0
4, 188400, Note_on_c, 10, 74, 80
4, 188400, Note_on_c, 10, 70, 80
4, 188496, Note_on_c, 10, 70, 0
4, 188496, Note_on_c, 10, 74, 0
4, 188520, Note_on_c, 10, 74, 80
4, 188520, Note_on_c, 10, 70, 80
4, 188616, Note_on_c, 10, 70, 0
4, 188616, Note_on_c, 10, 74, 0
4, 188640, Note_on_c, 10, 72, 80
4, 188640, Note_on_c, 10, 69, 80
4, 188832, Note_on_c, 10, 69, 0
4, 188832, Note_on_c, 10, 72, 0
4, 188880, Note_on_c, 10, 72, 80
4, 188880, Note_on_c, 10, 69, 80
4, 188976, Note_on_c, 10, 69, 0
4, 188976, Note_on_c, 10, 72, 0
4, 189000, Note_on_c, 10, 72, 80
4, 189000, Note_on_c, 10, 69, 80
4, 189096, Note_on_c, 10, 69, 0
4, 189096, Note_on_c, 10, 72, 0
4, 189120, Note_on_c, 10, 70, 80
4, 189120, Note_on_c, 10, 74, 80
4, 189312, Note_on_c, 10, 74, 0
4, 189312, Note_on_c, 10, 70, 0
4, 189360, Note_on_c, 10, 70, 80
4, 189360, Note_on_c, 10, 74, 80
4, 189456, Note_on_c, 10, 74, 0
4, 189456, Note_on_c, 10, 70, 0
4, 189480, Note_on_c, 10, 70, 80
4, 189480, Note_on_c, 10, 74, 80
4, 189576, Note_on_c, 10, 74, 0
4, 189576, Note_on_c, 10, 70, 0
4, 189600, Note_on_c, 10, 69, 80
4, 189600, Note_on_c, 10, 72, 80
4, 189792, Note_on_c, 10, 72, 0
4, 189792, Note_on_c, 10, 69, 0
4, 189840, Note_on_c, 10, 69, 80
4, 189840, Note_on_c, 10, 72, 80
4, 189936, Note_on_c, 10, 72, 0
4, 189936, Note_on_c, 10, 69, 0
4, 189960, Note_on_c, 10, 69, 80
4, 189960, Note_on_c, 10, 72, 80
4, 190056, Note_on_c, 10, 72, 0
4, 190056, Note_on_c, 10, 69, 0
4, 190080, Note_on_c, 10, 74, 80
4, 190080, Note_on_c, 10, 70, 80
4, 190272, Note_on_c, 10, 70, 0
4, 190272, Note_on_c, 10, 74, 0
4, 190320, Note_on_c, 10, 72, 80
4, 190320, Note_on_c, 10, 69, 80
4, 190512, Note_on_c, 10, 69, 0
4, 190512, Note_on_c, 10, 72, 0
4, 190560, Note_on_c, 10, 74, 80
4, 190560, Note_on_c, 10, 70, 80
4, 190752, Note_on_c, 10, 70, 0
4, 190752, Note_on_c, 10, 74, 0
4, 190800, Note_on_c, 10, 72, 80
4, 190800, Note_on_c, 10, 69, 80
4, 190992, Note_on_c, 10, 69, 0
4, 190992, Note_on_c, 10, 72, 0
4, 191040, Note_on_c, 10, 74, 80
4, 191040, Note_on_c, 10, 70, 80
4, 191328, Note_on_c, 10, 70, 0
4, 191328, Note_on_c, 10, 74, 0
4, 192000, Note_on_c, 10, 78, 80
4, 192000, Note_on_c, 10, 72, 80
4, 192288, Note_on_c, 10, 72, 0
4, 192288, Note_on_c, 10, 78, 0
4, 192960, Note_on_c, 10, 70, 80
4, 192960, Note_on_c, 10, 79, 80
4, 193152, Note_on_c, 10, 79, 0
4, 193152, Note_on_c, 10, 70, 0
4, 193440, Note_on_c, 10, 71, 80
4, 193440, Note_on_c, 10, 80, 80
4, 193632, Note_on_c, 10, 80, 0
4, 193632, Note_on_c, 10, 71, 0
4, 206160, Note_on_c, 10, 78, 80
4, 206160, Note_on_c, 10, 81, 80
4, 206400, Note_on_c, 10, 81, 0
4, 206400, Note_on_c, 10, 79, 80
4, 206640, Note_on_c, 10, 78, 0
4, 206640, Note_on_c, 10, 76, 80
4, 206880, Note_on_c, 10, 79, 0
4, 206880, Note_on_c, 10, 78, 80
4, 207120, Note_on_c, 10, 76, 0
4, 207120, Note_on_c, 10, 75, 80
4, 207360, Note_on_c, 10, 75, 0
4, 207360, Note_on_c, 10, 78, 0
4, 207360, Note_on_c, 10, 76, 80
4, 207360, Note_on_c, 10, 79, 80
4, 207720, Note_on_c, 10, 79, 0
4, 207720, Note_on_c, 10, 76, 0
4, 210000, Note_on_c, 10, 76, 80
4, 210240, Note_on_c, 10, 81, 80
4, 210480, Note_on_c, 10, 76, 0
4, 210480, Note_on_c, 10, 74, 80
4, 210720, Note_on_c, 10, 81, 0
4, 210720, Note_on_c, 10, 79, 80
4, 210960, Note_on_c, 10, 74, 0
4, 210960, Note_on_c, 10, 73, 80
4, 211200, Note_on_c, 10, 73, 0
4, 211200, Note_on_c, 10, 79, 0
4, 211200, Note_on_c, 10, 74, 80
4, 211200, Note_on_c, 10, 77, 80
4, 211560, Note_on_c, 10, 77, 0
4, 211560, Note_on_c, 10, 74, 0
4, 213840, Note_on_c, 10, 74, 72
4, 213840, Note_on_c, 10, 77, 72
4, 214080, Note_on_c, 10, 77, 0
4, 214080, Note_on_c, 10, 76, 72
4, 214320, Note_on_c, 10, 74, 0
4, 214320, Note_on_c, 10, 72, 72
4, 214560, Note_on_c, 10, 76, 0
4, 214560, Note_on_c, 10, 74, 72
4, 214800, Note_on_c, 10, 72, 0
4, 214800, Note_on_c, 10, 71, 72
4, 215040, Note_on_c, 10, 71, 0
4, 215040, Note_on_c, 10, 74, 0
4, 215040, Note_on_c, 10, 72, 72
4, 215040, Note_on_c, 10, 76, 72
4, 215400, Note_on_c, 10, 76, 0
4, 215400, Note_on_c, 10, 72, 0
4, 216960, Note_on_c, 10, 65, 72
4, 217680, Note_on_c, 10, 65, 0
4, 217680, Note_on_c, 10, 72, 72
4, 217920, Note_on_c, 10, 77, 72
4, 218160, Note_on_c, 10, 72, 0
4, 218160, Note_on_c, 10, 70, 72
4, 218400, Note_on_c, 10, 77, 0
4, 218400, Note_on_c, 10, 75, 72
4, 218640, Note_on_c, 10, 70, 0
4, 218640, Note_on_c, 10, 69, 72
4, 218880, Note_on_c, 10, 69, 0
4, 218880, Note_on_c, 10, 75, 0
4, 218880, Note_on_c, 10, 74, 72
4, 218880, Note_on_c, 10, 70, 72
4, 219360, Note_on_c, 10, 70, 0
4, 219360, Note_on_c, 10, 65, 72
4, 219840, Note_on_c, 10, 65, 0
4, 219840, Note_on_c, 10, 74, 0
4, 219840, Note_on_c, 10, 74, 72
4, 221040, Note_on_c, 10, 74, 0
4, 221040, Note_on_c, 10, 72, 72
4, 221160, Note_on_c, 10, 72, 0
4, 221160, Note_on_c, 10, 70, 72
4, 221280, Note_on_c, 10, 70, 0
4, 221280, Note_on_c, 10, 72, 72
4, 222960, Note_on_c, 10, 72, 0
4, 222960, Note_on_c, 10, 70, 72
4, 223080, Note_on_c, 10, 70, 0
4, 223080, Note_on_c, 10, 69, 72
4, 223200, Note_on_c, 10, 69, 0
4, 223200, Note_on_c, 10, 70, 72
4, 223560, Note_on_c, 10, 70, 0
4, 223680, Note_on_c, 10, 79, 80
4, 223968, Note_on_c, 10, 79, 0
4, 224040, Note_on_c, 10, 77, 80
4, 224136, Note_on_c, 10, 77, 0
4, 224160, Note_on_c, 10, 76, 80
4, 224448, Note_on_c, 10, 76, 0
4, 224520, Note_on_c, 10, 74, 80
4, 224616, Note_on_c, 10, 74, 0
4, 224640, Note_on_c, 10, 73, 80
4, 224640, Note_on_c, 10, 76, 80
4, 225120, Note_on_c, 10, 76, 0
4, 225120, Note_on_c, 10, 73, 0
4, 225120, Note_on_c, 10, 74, 80
4, 225120, Note_on_c, 10, 77, 80
4, 225600, Note_on_c, 10, 77, 0
4, 225600, Note_on_c, 10, 74, 0
4, 225600, Note_on_c, 10, 76, 80
4, 225600, Note_on_c, 10, 73, 80
4, 226080, Note_on_c, 10, 73, 0
4, 226080, Note_on_c, 10, 76, 0
4, 226080, Note_on_c, 10, 77, 80
4, 226080, Note_on_c, 10, 74, 80
4, 226560, Note_on_c, 10, 74, 0
4, 226560, Note_on_c, 10, 77, 0
4, 226560, Note_on_c, 10, 76, 80
4, 226560, Note_on_c, 10, 73, 80
4, 227040, Note_on_c, 10, 73, 0
4, 227040, Note_on_c, 10, 76, 0
4, 227040, Note_on_c, 10, 77, 80
4, 227040, Note_on_c, 10, 74, 80
4, 227520, Note_on_c, 10, 74, 0
4, 227520, Note_on_c, 10, 77, 0
4, 227520, Note_on_c, 10, 76, 80
4, 227520, Note_on_c, 10, 73, 80
4, 228000, Note_on_c, 10, 73, 0
4, 228000, Note_on_c, 10, 76, 0
4, 228000, Note_on_c, 10, 77, 80
4, 228000, Note_on_c, 10, 74, 80
4, 228480, Note_on_c, 10, 74, 0
4, 228480, Note_on_c, 10, 77, 0
4, 228480, Note_on_c, 10, 73, 80
4, 228480, Note_on_c, 10, 76, 80
4, 228960, Note_on_c, 10, 76, 0
4, 228960, Note_on_c, 10, 73, 0
4, 230160, Note_on_c, 10, 73, 64
4, 230280, Note_on_c, 10, 73, 0
4, 230280, Note_on_c, 10, 72, 64
4, 230400, Note_on_c, 10, 72, 0
4, 230400, Note_on_c, 10, 65, 64
4, 230400, Note_on_c, 10, 72, 64
4, 230592, Note_on_c, 10, 72, 0
4, 230640, Note_on_c, 10, 73, 64
4, 230760, Note_on_c, 10, 73, 0
4, 230760, Note_on_c, 10, 72, 64
4, 230880, Note_on_c, 10, 72, 0
4, 230880, Note_on_c, 10, 72, 64
4, 231072, Note_on_c, 10, 72, 0
4, 231120, Note_on_c, 10, 72, 64
4, 231312, Note_on_c, 10, 72, 0
4, 232080, Note_on_c, 10, 75, 64
4, 232200, Note_on_c, 10, 75, 0
4, 232200, Note_on_c, 10, 73, 64
4, 232320, Note_on_c, 10, 73, 0
4, 232320, Note_on_c, 10, 73, 64
4, 232512, Note_on_c, 10, 73, 0
4, 232560, Note_on_c, 10, 75, 64
4, 232680, Note_on_c, 10, 75, 0
4, 232680, Note_on_c, 10, 73, 64
4, 232800, Note_on_c, 10, 73, 0
4, 232800, Note_on_c, 10, 73, 64
4, 232992, Note_on_c, 10, 73, 0
4, 233040, Note_on_c, 10, 73, 64
4, 233232, Note_on_c, 10, 73, 0
4, 233280, Note_on_c, 10, 65, 0
4, 233280, Note_on_c, 10, 67, 80
4, 234000, Note_on_c, 10, 75, 64
4, 234120, Note_on_c, 10, 75, 0
4, 234120, Note_on_c, 10, 74, 64
4, 234240, Note_on_c, 10, 74, 0
4, 234240, Note_on_c, 10, 74, 64
4, 234432, Note_on_c, 10, 74, 0
4, 234480, Note_on_c, 10, 75, 64
4, 234600, Note_on_c, 10, 75, 0
4, 234600, Note_on_c, 10, 74, 64
4, 234720, Note_on_c, 10, 74, 0
4, 234720, Note_on_c, 10, 74, 64
4, 234912, Note_on_c, 10, 74, 0
4, 234960, Note_on_c, 10, 74, 64
4, 235152, Note_on_c, 10, 74, 0
4, 235920, Note_on_c, 10, 77, 64
4, 236040, Note_on_c, 10, 77, 0
4, 236040, Note_on_c, 10, 75, 64
4, 236160, Note_on_c, 10, 75, 0
4, 236160, Note_on_c, 10, 75, 64
4, 236352, Note_on_c, 10, 75, 0
4, 236400, Note_on_c, 10, 77, 64
4, 236520, Note_on_c, 10, 77, 0
4, 236520, Note_on_c, 10, 75, 64
4, 236640, Note_on_c, 10, 75, 0
4, 236640, Note_on_c, 10, 75, 64
4, 236832, Note_on_c, 10, 75, 0
4, 236880, Note_on_c, 10, 75, 64
4, 237072, Note_on_c, 10, 75, 0
4, 237120, Note_on_c, 10, 67, 0
4, 238320, Note_on_c, 10, 74, 64
4, 238320, Note_on_c, 10, 80, 64
4, 238440, Note_on_c, 10, 80, 0
4, 238440, Note_on_c, 10, 74, 0
4, 238440, Note_on_c, 10, 75, 64
4, 238440, Note_on_c, 10, 81, 64
4, 238548, Note_on_c, 10, 81, 0
4, 238548, Note_on_c, 10, 75, 0
4, 238560, Note_on_c, 10, 75, 64
4, 238560, Note_on_c, 10, 81, 64
4, 238776, Note_on_c, 10, 81, 0
4, 238776, Note_on_c, 10, 75, 0
4, 240240, Note_on_c, 10, 71, 64
4, 240240, Note_on_c, 10, 80, 64
4, 240360, Note_on_c, 10, 80, 0
4, 240360, Note_on_c, 10, 71, 0
4, 240360, Note_on_c, 10, 72, 64
4, 240360, Note_on_c, 10, 81, 64
4, 240468, Note_on_c, 10, 81, 0
4, 240468, Note_on_c, 10, 72, 0
4, 240480, Note_on_c, 10, 72, 64
4, 240480, Note_on_c, 10, 81, 64
4, 240696, Note_on_c, 10, 81, 0
4, 240696, Note_on_c, 10, 72, 0
4, 242160, Note_on_c, 10, 80, 64
4, 242160, Note_on_c, 10, 71, 64
4, 242280, Note_on_c, 10, 71, 0
4, 242280, Note_on_c, 10, 80, 0
4, 242280, Note_on_c, 10, 81, 64
4, 242280, Note_on_c, 10, 72, 64
4, 242388, Note_on_c, 10, 72, 0
4, 242388, Note_on_c, 10, 81, 0
4, 242400, Note_on_c, 10, 81, 64
4, 242400, Note_on_c, 10, 72, 64
4, 242616, Note_on_c, 10, 72, 0
4, 242616, Note_on_c, 10, 81, 0
4, 242880, Note_on_c, 10, 69, 64
4, 242880, Note_on_c, 10, 72, 64
4, 243120, Note_on_c, 10, 72, 0
4, 243120, Note_on_c, 10, 69, 0
4, 243120, Note_on_c, 10, 72, 64
4, 243120, Note_on_c, 10, 75, 64
4, 243360, Note_on_c, 10, 75, 0
4, 243360, Note_on_c, 10, 72, 0
4, 243360, Note_on_c, 10, 75, 64
4, 243360, Note_on_c, 10, 78, 64
4, 243600, Note_on_c, 10, 78, 0
4, 243600, Note_on_c, 10, 75, 0
4, 243840, Note_on_c, 10, 67, 64
4, 243840, Note_on_c, 10, 70, 64
4, 244080, Note_on_c, 10, 70, 0
4, 244080, Note_on_c, 10, 67, 0
4, 244080, Note_on_c, 10, 70, 64
4, 244080, Note_on_c, 10, 74, 64
4, 244320, Note_on_c, 10, 74, 0
4, 244320, Note_on_c, 10, 70, 0
4, 244320, Note_on_c, 10, 74, 64
4, 244320, Note_on_c, 10, 79, 64
4, 244560, Note_on_c, 10, 79, 0
4, 244560, Note_on_c, 10, 74, 0
4, 244800, Note_on_c, 10, 76, 64
4, 244800, Note_on_c, 10, 79, 64
4, 245040, Note_on_c, 10, 79, 0
4, 245040, Note_on_c, 10, 76, 0
4, 245040, Note_on_c, 10, 73, 64
4, 245040, Note_on_c, 10, 76, 64
4, 245280, Note_on_c, 10, 76, 0
4, 245280, Note_on_c, 10, 73, 0
4, 245280, Note_on_c, 10, 70, 64
4, 245280, Note_on_c, 10, 73, 64
4, 245520, Note_on_c, 10, 73, 0
4, 245520, Note_on_c, 10, 70, 0
4, 245760, Note_on_c, 10, 69, 64
4, 245760, Note_on_c, 10, 74, 64
4, 246000, Note_on_c, 10, 74, 0
4, 246000, Note_on_c, 10, 69, 0
4, 246000, Note_on_c, 10, 66, 64
4, 246000, Note_on_c, 10, 69, 64
4, 246240, Note_on_c, 10, 69, 0
4, 246240, Note_on_c, 10, 66, 0
4, 246240, Note_on_c, 10, 62, 64
4, 246240, Note_on_c, 10, 66, 64
4, 246480, Note_on_c, 10, 66, 0
4, 246480, Note_on_c, 10, 62, 0
4, 246720, Note_on_c, 10, 66, 64
4, 246720, Note_on_c, 10, 69, 64
4, 246960, Note_on_c, 10, 69, 0
4, 246960, Note_on_c, 10, 66, 0
4, 246960, Note_on_c, 10, 69, 64
4, 246960, Note_on_c, 10, 72, 64
4, 247200, Note_on_c, 10, 72, 0
4, 247200, Note_on_c, 10, 69, 0
4, 247200, Note_on_c, 10, 72, 64
4, 247200, Note_on_c, 10, 78, 64
4, 247440, Note_on_c, 10, 78, 0
4, 247440, Note_on_c, 10, 72, 0
4, 247680, Note_on_c, 10, 67, 64
4, 247680, Note_on_c, 10, 70, 64
4, 247920, Note_on_c, 10, 70, 0
4, 247920, Note_on_c, 10, 67, 0
4, 247920, Note_on_c, 10, 70, 64
4, 247920, Note_on_c, 10, 74, 64
4, 248160, Note_on_c, 10, 74, 0
4, 248160, Note_on_c, 10, 70, 0
4, 248160, Note_on_c, 10, 74, 64
4, 248160, Note_on_c, 10, 79, 64
4, 248400, Note_on_c, 10, 79, 0
4, 248400, Note_on_c, 10, 74, 0
4, 250320, Note_on_c, 10, 78, 58
4, 250320, Note_on_c, 10, 81, 58
4, 250440, Note_on_c, 10, 81, 0
4, 250440, Note_on_c, 10, 78, 0
4, 250440, Note_on_c, 10, 77, 58
4, 250440, Note_on_c, 10, 80, 58
4, 250560, Note_on_c, 10, 80, 0
4, 250560, Note_on_c, 10, 77, 0
4, 250560, Note_on_c, 10, 76, 58
4, 250560, Note_on_c, 10, 79, 58
4, 251280, Note_on_c, 10, 79, 0
4, 251280, Note_on_c, 10, 76, 0
4, 251280, Note_on_c, 10, 76, 58
4, 251280, Note_on_c, 10, 79, 58
4, 251400, Note_on_c, 10, 79, 0
4, 251400, Note_on_c, 10, 76, 0
4, 251400, Note_on_c, 10, 75, 58
4, 251400, Note_on_c, 10, 78, 58
4, 251520, Note_on_c, 10, 78, 0
4, 251520, Note_on_c, 10, 75, 0
4, 251520, Note_on_c, 10, 74, 58
4, 251520, Note_on_c, 10, 77, 58
4, 252240, Note_on_c, 10, 77, 0
4, 252240, Note_on_c, 10, 74, 0
4, 252240, Note_on_c, 10, 74, 58
4, 252240, Note_on_c, 10, 77, 58
4, 252360, Note_on_c, 10, 77, 0
4, 252360, Note_on_c, 10, 74, 0
4, 252360, Note_on_c, 10, 73, 58
4, 252360, Note_on_c, 10, 76, 58
4, 252480, Note_on_c, 10, 76, 0
4, 252480, Note_on_c, 10, 73, 0
4, 252480, Note_on_c, 10, 73, 58
4, 252480, Note_on_c, 10, 76, 58
4, 253200, Note_on_c, 10, 76, 0
4, 253200, Note_on_c, 10, 73, 0
4, 253200, Note_on_c, 10, 72, 58
4, 253200, Note_on_c, 10, 75, 58
4, 253320, Note_on_c, 10, 75, 0
4, 253320, Note_on_c, 10, 72, 0
4, 253320, Note_on_c, 10, 71, 58
4, 253320, Note_on_c, 10, 74, 58
4, 253440, Note_on_c, 10, 74, 0
4, 253440, Note_on_c, 10, 71, 0
4, 253440, Note_on_c, 10, 71, 58
4, 253440, Note_on_c, 10, 74, 58
4, 253920, Note_on_c, 10, 74, 0
4, 253920, Note_on_c, 10, 71, 0
4, 253920, Note_on_c, 10, 70, 58
4, 253920, Note_on_c, 10, 73, 58
4, 254400, Note_on_c, 10, 73, 0
4, 254400, Note_on_c, 10, 70, 0
4, 254400, Note_on_c, 10, 69, 51
4, 254400, Note_on_c, 10, 72, 51
4, 255360, Note_on_c, 10, 72, 0
4, 255360, Note_on_c, 10, 69, 0
4, 255360, Note_on_c, 10, 67, 51
4, 255360, Note_on_c, 10, 70, 51
4, 255720, Note_on_c, 10, 70, 0
4, 255720, Note_on_c, 10, 67, 0
4, 266160, Note_on_c, 10, 66, 56
4, 266400, Note_on_c, 10, 66, 0
4, 266400, Note_on_c, 10, 67, 56
4, 266640, Note_on_c, 10, 67, 0
4, 266640, Note_on_c, 10, 69, 56
4, 266880, Note_on_c, 10, 69, 0
4, 266880, Note_on_c, 10, 70, 56
4, 267120, Note_on_c, 10, 70, 0
4, 267120, Note_on_c, 10, 72, 56
4, 267240, Note_on_c, 10, 72, 0
4, 267240, Note_on_c, 10, 70, 56
4, 267360, Note_on_c, 10, 70, 0
4, 267360, Note_on_c, 10, 69, 56
4, 267600, Note_on_c, 10, 69, 0
4, 267600, Note_on_c, 10, 67, 56
4, 267840, Note_on_c, 10, 67, 0
4, 267840, Note_on_c, 10, 66, 56
4, 268032, Note_on_c, 10, 66, 0
4, 268320, Note_on_c, 10, 76, 80
4, 268320, Note_on_c, 10, 73, 80
4, 268800, Note_on_c, 10, 73, 0
4, 268800, Note_on_c, 10, 76, 0
4, 268800, Note_on_c, 10, 78, 80
4, 268800, Note_on_c, 10, 74, 80
4, 269040, Note_on_c, 10, 74, 0
4, 269040, Note_on_c, 10, 78, 0
4, 269280, Note_on_c, 10, 73, 80
4, 269280, Note_on_c, 10, 76, 80
4, 269760, Note_on_c, 10, 76, 0
4, 269760, Note_on_c, 10, 73, 0
4, 269760, Note_on_c, 10, 74, 80
4, 269760, Note_on_c, 10, 78, 80
4, 270000, Note_on_c, 10, 78, 0
4, 270000, Note_on_c, 10, 74, 0
4, 270240, Note_on_c, 10, 76, 80
4, 270240, Note_on_c, 10, 73, 80
4, 270720, Note_on_c, 10, 73, 0
4, 270720, Note_on_c, 10, 76, 0
4, 270720, Note_on_c, 10, 74, 75
4, 270720, Note_on_c, 10, 78, 75
4, 270864, Note_on_c, 10, 78, 0
4, 270864, Note_on_c, 10, 74, 0
4, 270960, Note_on_c, 10, 73, 68
4, 270960, Note_on_c, 10, 76, 68
4, 271104, Note_on_c, 10, 76, 0
4, 271104, Note_on_c, 10, 73, 0
4, 271200, Note_on_c, 10, 78, 60
4, 271200, Note_on_c, 10, 74, 60
4, 271344, Note_on_c, 10, 74, 0
4, 271344, Note_on_c, 10, 78, 0
4, 271440, Note_on_c, 10, 73, 53
4, 271440, Note_on_c, 10, 76, 53
4, 271584, Note_on_c, 10, 76, 0
4, 271584, Note_on_c, 10, 73, 0
4, 271680, Note_on_c, 10, 78, 53
4, 271680, Note_on_c, 10, 74, 53
4, 272064, Note_on_c, 10, 74, 0
4, 272064, Note_on_c, 10, 78, 0
4, 279360, Note_on_c, 10, 63, 80
4, 279360, Note_on_c, 10, 75, 80
4, 280320, Note_on_c, 10, 75, 0
4, 280320, Note_on_c, 10, 63, 0
4, 280320, Note_on_c, 10, 58, 80
4, 280320, Note_on_c, 10, 70, 80
4, 281280, Note_on_c, 10, 70, 0
4, 281280, Note_on_c, 10, 58, 0
4, 281280, Note_on_c, 10, 68, 80
4, 282240, Note_on_c, 10, 68, 0
4, 282240, Note_on_c, 10, 67, 80
4, 283200, Note_on_c, 10, 67, 0
4, 283200, Note_on_c, 10, 77, 80
4, 284160, Note_on_c, 10, 77, 0
4, 284160, Note_on_c, 10, 76, 80
4, 284640, Note_on_c, 10, 76, 0
4, 284640, Note_on_c, 10, 73, 80
4, 285120, Note_on_c, 10, 73, 0
4, 285120, Note_on_c, 10, 72, 80
4, 285600, Note_on_c, 10, 72, 0
4, 285600, Note_on_c, 10, 76, 80
4, 285600, Note_on_c, 10, 79, 80
4, 286080, Note_on_c, 10, 79, 0
4, 286080, Note_on_c, 10, 76, 0
4, 286080, Note_on_c, 10, 77, 80
4, 287040, Note_on_c, 10, 77, 0
4, 287040, Note_on_c, 10, 72, 80
4, 287040, Note_on_c, 10, 72, 80
4, 288000, Note_on_c, 10, 72, 0
4, 288000, Note_on_c, 10, 73, 80
4, 288480, Note_on_c, 10, 72, 0
4, 288480, Note_on_c, 10, 70, 80
4, 288960, Note_on_c, 10, 70, 0
4, 288960, Note_on_c, 10, 73, 0
4, 288960, Note_on_c, 10, 72, 80
4, 288960, Note_on_c, 10, 70, 80
4, 289440, Note_on_c, 10, 70, 0
4, 289440, Note_on_c, 10, 68, 80
4, 289920, Note_on_c, 10, 72, 0
4, 289920, Note_on_c, 10, 70, 80
4, 290400, Note_on_c, 10, 68, 0
4, 290400, Note_on_c, 10, 67, 80
4, 290880, Note_on_c, 10, 67, 0
4, 290880, Note_on_c, 10, 70, 0
4, 290880, Note_on_c, 10, 65, 64
4, 290880, Note_on_c, 10, 68, 64
4, 291072, Note_on_c, 10, 68, 0
4, 291072, Note_on_c, 10, 65, 0
4, 291120, Note_on_c, 10, 68, 64
4, 291120, Note_on_c, 10, 72, 64
4, 291312, Note_on_c, 10, 72, 0
4, 291312, Note_on_c, 10, 68, 0
4, 291360, Note_on_c, 10, 68, 64
4, 291360, Note_on_c, 10, 72, 64
4, 291552, Note_on_c, 10, 72, 0
4, 291552, Note_on_c, 10, 68, 0
4, 291600, Note_on_c, 10, 68, 64
4, 291600, Note_on_c, 10, 72, 64
4, 291792, Note_on_c, 10, 72, 0
4, 291792, Note_on_c, 10, 68, 0
4, 292080, Note_on_c, 10, 68, 64
4, 292080, Note_on_c, 10, 77, 64
4, 292272, Note_on_c, 10, 77, 0
4, 292272, Note_on_c, 10, 68, 0
4, 292320, Note_on_c, 10, 68, 64
4, 292320, Note_on_c, 10, 77, 64
4, 292512, Note_on_c, 10, 77, 0
4, 292512, Note_on_c, 10, 68, 0
4, 292560, Note_on_c, 10, 68, 64
4, 292560, Note_on_c, 10, 77, 64
4, 292752, Note_on_c, 10, 77, 0
4, 292752, Note_on_c, 10, 68, 0
4, 293040, Note_on_c, 10, 70, 64
4, 293040, Note_on_c, 10, 77, 64
4, 293280, Note_on_c, 10, 77, 0
4, 293280, Note_on_c, 10, 75, 64
4, 293520, Note_on_c, 10, 75, 0
4, 293520, Note_on_c, 10, 70, 0
4, 293520, Note_on_c, 10, 70, 64
4, 293520, Note_on_c, 10, 75, 64
4, 293760, Note_on_c, 10, 75, 0
4, 293760, Note_on_c, 10, 70, 0
4, 294000, Note_on_c, 10, 67, 64
4, 294000, Note_on_c, 10, 75, 64
4, 294240, Note_on_c, 10, 75, 0
4, 294240, Note_on_c, 10, 67, 0
4, 294240, Note_on_c, 10, 67, 64
4, 294240, Note_on_c, 10, 75, 64
4, 294480, Note_on_c, 10, 75, 0
4, 294480, Note_on_c, 10, 67, 0
4, 294480, Note_on_c, 10, 67, 64
4, 294480, Note_on_c, 10, 75, 64
4, 294720, Note_on_c, 10, 75, 0
4, 294720, Note_on_c, 10, 67, 0
4, 294960, Note_on_c, 10, 69, 64
4, 294960, Note_on_c, 10, 75, 64
4, 295200, Note_on_c, 10, 75, 0
4, 295200, Note_on_c, 10, 74, 64
4, 295440, Note_on_c, 10, 74, 0
4, 295440, Note_on_c, 10, 69, 0
4, 295440, Note_on_c, 10, 69, 64
4, 295440, Note_on_c, 10, 74, 64
4, 295680, Note_on_c, 10, 74, 0
4, 295680, Note_on_c, 10, 69, 0
4, 295920, Note_on_c, 10, 65, 64
4, 295920, Note_on_c, 10, 74, 64
4, 296160, Note_on_c, 10, 74, 0
4, 296160, Note_on_c, 10, 65, 0
4, 296160, Note_on_c, 10, 65, 64
4, 296160, Note_on_c, 10, 74, 64
4, 296400, Note_on_c, 10, 74, 0
4, 296400, Note_on_c, 10, 65, 0
4, 296400, Note_on_c, 10, 65, 64
4, 296400, Note_on_c, 10, 74, 64
4, 296640, Note_on_c, 10, 74, 0
4, 296640, Note_on_c, 10, 65, 0
4, 296880, Note_on_c, 10, 63, 64
4, 296880, Note_on_c, 10, 72, 64
4, 297360, Note_on_c, 10, 72, 0
4, 297360, Note_on_c, 10, 63, 0
4, 297360, Note_on_c, 10, 63, 64
4, 297360, Note_on_c, 10, 72, 64
4, 297600, Note_on_c, 10, 72, 0
4, 297600, Note_on_c, 10, 63, 0
4, 297840, Note_on_c, 10, 62, 64
4, 297840, Note_on_c, 10, 66, 64
4, 298320, Note_on_c, 10, 66, 0
4, 298320, Note_on_c, 10, 62, 0
4, 298320, Note_on_c, 10, 66, 64
4, 298320, Note_on_c, 10, 69, 64
4, 298560, Note_on_c, 10, 69, 0
4, 298560, Note_on_c, 10, 66, 0
4, 298560, Note_on_c, 10, 67, 80
4, 298560, Note_on_c, 10, 70, 80
4, 299328, Note_on_c, 10, 70, 0
4, 299328, Note_on_c, 10, 67, 0
4, 299520, Note_on_c, 10, 62, 80
4, 299520, Note_on_c, 10, 74, 80
4, 300288, Note_on_c, 10, 74, 0
4, 300288, Note_on_c, 10, 62, 0
4, 300480, Note_on_c, 10, 72, 80
4, 301440, Note_on_c, 10, 72, 0
4, 301440, Note_on_c, 10, 70, 80
4, 302400, Note_on_c, 10, 70, 0
4, 302400, Note_on_c, 10, 69, 80
4, 303120, Note_on_c, 10, 69, 0
4, 303120, Note_on_c, 10, 66, 80
4, 303360, Note_on_c, 10, 66, 0
4, 303360, Note_on_c, 10, 67, 80
4, 303360, Note_on_c, 10, 67, 80
4, 304080, Note_on_c, 10, 67, 0
4, 304080, Note_on_c, 10, 74, 80
4, 304320, Note_on_c, 10, 74, 0
4, 304320, Note_on_c, 10, 67, 0
4, 304320, Note_on_c, 10, 67, 80
4, 304320, Note_on_c, 10, 73, 80
4, 305160, Note_on_c, 10, 73, 0
4, 305160, Note_on_c, 10, 67, 0
4, 305160, Note_on_c, 10, 74, 80
4, 305256, Note_on_c, 10, 74, 0
4, 305280, Note_on_c, 10, 67, 80
4, 305280, Note_on_c, 10, 73, 80
4, 306120, Note_on_c, 10, 73, 0
4, 306120, Note_on_c, 10, 67, 0
4, 306120, Note_on_c, 10, 74, 80
4, 306216, Note_on_c, 10, 74, 0
4, 306240, Note_on_c, 10, 67, 80
4, 306240, Note_on_c, 10, 73, 80
4, 307080, Note_on_c, 10, 73, 0
4, 307080, Note_on_c, 10, 67, 0
4, 307080, Note_on_c, 10, 74, 80
4, 307176, Note_on_c, 10, 74, 0
4, 307200, Note_on_c, 10, 67, 80
4, 307200, Note_on_c, 10, 73, 80
4, 307968, Note_on_c, 10, 73, 0
4, 307968, Note_on_c, 10, 67, 0
4, 308160, Note_on_c, 10, 66, 80
4, 308160, Note_on_c, 10, 74, 80
4, 308640, Note_on_c, 10, 74, 0
4, 308640, Note_on_c, 10, 66, 0
4, 308640, Note_on_c, 10, 69, 80
4, 308640, Note_on_c, 10, 72, 80
4, 309120, Note_on_c, 10, 72, 0
4, 309120, Note_on_c, 10, 69, 0
4, 309120, Note_on_c, 10, 67, 80
4, 309120, Note_on_c, 10, 70, 80
4, 309600, Note_on_c, 10, 70, 0
4, 309600, Note_on_c, 10, 67, 0
4, 309600, Note_on_c, 10, 70, 80
4, 309600, Note_on_c, 10, 73, 80
4, 310080, Note_on_c, 10, 73, 0
4, 310080, Note_on_c, 10, 70, 0
4, 310080, Note_on_c, 10, 69, 80
4, 310080, Note_on_c, 10, 74, 80
4, 310560, Note_on_c, 10, 74, 0
4, 310560, Note_on_c, 10, 69, 0
4, 310560, Note_on_c, 10, 72, 80
4, 310560, Note_on_c, 10, 78, 80
4, 311040, Note_on_c, 10, 78, 0
4, 311040, Note_on_c, 10, 72, 0
4, 311040, Note_on_c, 10, 70, 80
4, 311040, Note_on_c, 10, 79, 80
4, 311520, Note_on_c, 10, 79, 0
4, 311520, Note_on_c, 10, 70, 0
4, 311520, Note_on_c, 10, 70, 80
4, 311520, Note_on_c, 10, 73, 80
4, 312000, Note_on_c, 10, 73, 0
4, 312000, Note_on_c, 10, 70, 0
4, 312000, Note_on_c, 10, 69, 80
4, 312000, Note_on_c, 10, 74, 80
4, 312360, Note_on_c, 10, 74, 0
4, 312360, Note_on_c, 10, 69, 0
4, 312480, Note_on_c, 10, 69, 64
4, 312480, Note_on_c, 10, 66, 64
4, 312840, Note_on_c, 10, 66, 0
4, 312840, Note_on_c, 10, 69, 0
4, 327360, Note_on_c, 10, 77, 64
4, 327360, Note_on_c, 10, 80, 64
4, 328080, Note_on_c, 10, 80, 0
4, 328080, Note_on_c, 10, 77, 0
4, 328080, Note_on_c, 10, 75, 64
4, 328080, Note_on_c, 10, 79, 64
4, 328320, Note_on_c, 10, 79, 0
4, 328320, Note_on_c, 10, 75, 0
4, 328320, Note_on_c, 10, 77, 64
4, 328320, Note_on_c, 10, 80, 64
4, 329040, Note_on_c, 10, 80, 0
4, 329040, Note_on_c, 10, 77, 0
4, 329040, Note_on_c, 10, 75, 64
4, 329040, Note_on_c, 10, 79, 64
4, 329280, Note_on_c, 10, 79, 0
4, 329280, Note_on_c, 10, 75, 0
4, 329280, Note_on_c, 10, 77, 64
4, 329280, Note_on_c, 10, 80, 64
4, 330000, Note_on_c, 10, 80, 0
4, 330000, Note_on_c, 10, 77, 0
4, 330000, Note_on_c, 10, 75, 64
4, 330000, Note_on_c, 10, 79, 64
4, 330240, Note_on_c, 10, 79, 0
4, 330240, Note_on_c, 10, 75, 0
4, 330240, Note_on_c, 10, 77, 64
4, 330240, Note_on_c, 10, 80, 64
4, 330960, Note_on_c, 10, 80, 0
4, 330960, Note_on_c, 10, 77, 0
4, 330960, Note_on_c, 10, 75, 64
4, 330960, Note_on_c, 10, 79, 64
4, 331200, Note_on_c, 10, 79, 0
4, 331200, Note_on_c, 10, 75, 0
4, 331200, Note_on_c, 10, 77, 64
4, 331200, Note_on_c, 10, 80, 64
4, 332640, Note_on_c, 10, 80, 0
4, 332640, Note_on_c, 10, 77, 0
4, 332640, Note_on_c, 10, 68, 64
4, 332640, Note_on_c, 10, 74, 64
4, 333120, Note_on_c, 10, 74, 0
4, 333120, Note_on_c, 10, 68, 0
4, 333120, Note_on_c, 10, 66, 80
4, 333120, Note_on_c, 10, 75, 80
4, 333504, Note_on_c, 10, 75, 0
4, 333600, Note_on_c, 10, 72, 80
4, 333792, Note_on_c, 10, 72, 0
4, 333840, Note_on_c, 10, 69, 80
4, 333888, Note_on_c, 10, 66, 0
4, 334032, Note_on_c, 10, 69, 0
4, 334080, Note_on_c, 10, 65, 80
4, 334080, Note_on_c, 10, 70, 80
4, 334320, Note_on_c, 10, 70, 0
4, 334320, Note_on_c, 10, 73, 80
4, 334560, Note_on_c, 10, 73, 0
4, 334560, Note_on_c, 10, 77, 80
4, 335040, Note_on_c, 10, 65, 0
4, 335040, Note_on_c, 10, 68, 80
4, 335424, Note_on_c, 10, 77, 0
4, 335520, Note_on_c, 10, 74, 80
4, 335712, Note_on_c, 10, 74, 0
4, 335760, Note_on_c, 10, 71, 80
4, 335952, Note_on_c, 10, 71, 0
4, 336000, Note_on_c, 10, 68, 0
4, 336000, Note_on_c, 10, 67, 80
4, 336000, Note_on_c, 10, 72, 80
4, 336240, Note_on_c, 10, 72, 0
4, 336240, Note_on_c, 10, 75, 80
4, 336480, Note_on_c, 10, 75, 0
4, 336480, Note_on_c, 10, 79, 80
4, 336960, Note_on_c, 10, 67, 0
4, 336960, Note_on_c, 10, 70, 80
4, 337344, Note_on_c, 10, 79, 0
4, 337440, Note_on_c, 10, 76, 80
4, 337632, Note_on_c, 10, 76, 0
4, 337680, Note_on_c, 10, 73, 80
4, 337872, Note_on_c, 10, 73, 0
4, 337920, Note_on_c, 10, 70, 0
4, 337920, Note_on_c, 10, 70, 80
4, 337920, Note_on_c, 10, 74, 80
4, 338400, Note_on_c, 10, 74, 0
4, 338400, Note_on_c, 10, 70, 0
4, 338400, Note_on_c, 10, 67, 80
4, 338400, Note_on_c, 10, 70, 80
4, 338880, Note_on_c, 10, 70, 0
4, 338880, Note_on_c, 10, 67, 0
4, 338880, Note_on_c, 10, 69, 80
4, 338880, Note_on_c, 10, 72, 80
4, 339360, Note_on_c, 10, 72, 0
4, 339360, Note_on_c, 10, 69, 0
4, 339360, Note_on_c, 10, 66, 80
4, 339360, Note_on_c, 10, 69, 80
4, 339840, Note_on_c, 10, 69, 0
4, 339840, Note_on_c, 10, 66, 0
4, 339840, Note_on_c, 10, 67, 80
4, 340080, Note_on_c, 10, 67, 0
4, 341760, Note_on_c, 10, 62, 80
4, 341760, Note_on_c, 10, 67, 80
4, 341952, Note_on_c, 10, 67, 0
4, 341952, Note_on_c, 10, 62, 0
4, 342240, Note_on_c, 10, 67, 80
4, 342240, Note_on_c, 10, 63, 80
4, 342432, Note_on_c, 10, 63, 0
4, 342432, Note_on_c, 10, 67, 0
4, 342720, Note_on_c, 10, 66, 80
4, 342720, Note_on_c, 10, 69, 80
4, 342912, Note_on_c, 10, 69, 0
4, 342912, Note_on_c, 10, 66, 0
4, 343200, Note_on_c, 10, 70, 80
4, 343200, Note_on_c, 10, 67, 80
4, 343392, Note_on_c, 10, 67, 0
4, 343392, Note_on_c, 10, 70, 0
4, 346320, Note_on_c, 10, 75, 64
4, 346440, Note_on_c, 10, 75, 0
4, 346440, Note_on_c, 10, 74, 64
4, 346560, Note_on_c, 10, 74, 0
4, 346560, Note_on_c, 10, 74, 64
4, 346800, Note_on_c, 10, 74, 0
4, 346800, Note_on_c, 10, 75, 64
4, 346920, Note_on_c, 10, 75, 0
4, 346920, Note_on_c, 10, 74, 64
4, 347016, Note_on_c, 10, 74, 0
4, 347040, Note_on_c, 10, 74, 64
4, 347232, Note_on_c, 10, 74, 0
4, 348240, Note_on_c, 10, 75, 64
4, 348360, Note_on_c, 10, 75, 0
4, 348360, Note_on_c, 10, 74, 64
4, 348480, Note_on_c, 10, 74, 0
4, 348480, Note_on_c, 10, 74, 64
4, 348720, Note_on_c, 10, 74, 0
4, 348720, Note_on_c, 10, 75, 64
4, 348840, Note_on_c, 10, 75, 0
4, 348840, Note_on_c, 10, 74, 64
4, 348936, Note_on_c, 10, 74, 0
4, 348960, Note_on_c, 10, 74, 64
4, 349152, Note_on_c, 10, 74, 0
4, 350400, Note_on_c, 10, 71, 80
4, 350400, Note_on_c, 10, 77, 80
4, 351360, Note_on_c, 10, 77, 0
4, 351360, Note_on_c, 10, 71, 0
4, 351360, Note_on_c, 10, 72, 80
4, 351360, Note_on_c, 10, 75, 80
4, 352320, Note_on_c, 10, 75, 0
4, 352320, Note_on_c, 10, 72, 0
4, 352320, Note_on_c, 10, 70, 80
4, 352320, Note_on_c, 10, 74, 80
4, 352680, Note_on_c, 10, 74, 0
4, 352680, Note_on_c, 10, 70, 0
4, 352680, Note_on_c, 10, 70, 80
4, 352680, Note_on_c, 10, 67, 80
4, 352800, Note_on_c, 10, 67, 0
4, 352800, Note_on_c, 10, 70, 0
4, 352800, Note_on_c, 10, 72, 80
4, 352800, Note_on_c, 10, 69, 80
4, 353160, Note_on_c, 10, 69, 0
4, 353160, Note_on_c, 10, 72, 0
4, 353160, Note_on_c, 10, 66, 80
4, 353160, Note_on_c, 10, 69, 80
4, 353280, Note_on_c, 10, 69, 0
4, 353280, Note_on_c, 10, 66, 0
4, 353280, Note_on_c, 10, 67, 80
4, 353520, Note_on_c, 10, 67, 0
4, 354960, Note_on_c, 10, 75, 64
4, 355080, Note_on_c, 10, 75, 0
4, 355080, Note_on_c, 10, 74, 64
4, 355200, Note_on_c, 10, 74, 0
4, 355200, Note_on_c, 10, 74, 64
4, 355440, Note_on_c, 10, 74, 0
4, 355440, Note_on_c, 10, 75, 64
4, 355560, Note_on_c, 10, 75, 0
4, 355560, Note_on_c, 10, 74, 64
4, 355656, Note_on_c, 10, 74, 0
4, 355680, Note_on_c, 10, 74, 64
4, 355872, Note_on_c, 10, 74, 0
4, 356880, Note_on_c, 10, 75, 64
4, 357000, Note_on_c, 10, 75, 0
4, 357000, Note_on_c, 10, 74, 64
4, 357120, Note_on_c, 10, 74, 0
4, 357120, Note_on_c, 10, 74, 64
4, 357360, Note_on_c, 10, 74, 0
4, 357360, Note_on_c, 10, 75, 64
4, 357480, Note_on_c, 10, 75, 0
4, 357480, Note_on_c, 10, 74, 64
4, 357576, Note_on_c, 10, 74, 0
4, 357600, Note_on_c, 10, 74, 64
4, 357792, Note_on_c, 10, 74, 0
4, 358080, Note_on_c, 10, 77, 80
4, 358080, Note_on_c, 10, 71, 80
4, 359040, Note_on_c, 10, 71, 0
4, 359040, Note_on_c, 10, 77, 0
4, 359040, Note_on_c, 10, 75, 80
4, 359040, Note_on_c, 10, 72, 80
4, 360000, Note_on_c, 10, 72, 0
4, 360000, Note_on_c, 10, 75, 0
4, 360000, Note_on_c, 10, 74, 80
4, 360000, Note_on_c, 10, 70, 80
4, 360360, Note_on_c, 10, 70, 0
4, 360360, Note_on_c, 10, 74, 0
4, 360360, Note_on_c, 10, 67, 80
4, 360360, Note_on_c, 10, 70, 80
4, 360480, Note_on_c, 10, 70, 0
4, 360480, Note_on_c, 10, 67, 0
4, 360480, Note_on_c, 10, 69, 80
4, 360480, Note_on_c, 10, 72, 80
4, 360840, Note_on_c, 10, 72, 0
4, 360840, Note_on_c, 10, 69, 0
4, 360840, Note_on_c, 10, 69, 80
4, 360840, Note_on_c, 10, 66, 80
4, 360960, Note_on_c, 10, 66, 0
4, 360960, Note_on_c, 10, 69, 0
4, 360960, Note_on_c, 10, 67, 80
4, 361344, Note_on_c, 10, 67, 0
4, 361800, Note_on_c, 10, 74, 80
4, 361896, Note_on_c, 10, 74, 0
4, 361920, Note_on_c, 10, 72, 80
4, 362016, Note_on_c, 10, 72, 0
4, 362040, Note_on_c, 10, 70, 80
4, 362136, Note_on_c, 10, 70, 0
4, 362160, Note_on_c, 10, 69, 80
4, 362256, Note_on_c, 10, 69, 0
4, 362280, Note_on_c, 10, 67, 80
4, 362376, Note_on_c, 10, 67, 0
4, 362400, Note_on_c, 10, 66, 80
4, 362496, Note_on_c, 10, 66, 0
4, 362520, Note_on_c, 10, 75, 80
4, 362616, Note_on_c, 10, 75, 0
4, 362640, Note_on_c, 10, 74, 80
4, 362736, Note_on_c, 10, 74, 0
4, 362760, Note_on_c, 10, 72, 80
4, 362856, Note_on_c, 10, 72, 0
4, 362880, Note_on_c, 10, 70, 80
4, 363072, Note_on_c, 10, 70, 0
4, 363120, Note_on_c, 10, 67, 80
4, 363120, Note_on_c, 10, 74, 80
4, 363312, Note_on_c, 10, 74, 0
4, 363312, Note_on_c, 10, 67, 0
4, 363360, Note_on_c, 10, 67, 80
4, 363360, Note_on_c, 10, 75, 80
4, 363552, Note_on_c, 10, 75, 0
4, 363552, Note_on_c, 10, 67, 0
4, 363600, Note_on_c, 10, 66, 80
4, 363600, Note_on_c, 10, 69, 80
4, 363792, Note_on_c, 10, 69, 0
4, 363792, Note_on_c, 10, 66, 0
4, 363840, Note_on_c, 10, 67, 80
4, 364032, Note_on_c, 10, 67, 0
4, 364080, Note_on_c, 10, 82, 80
4, 364176, Note_on_c, 10, 82, 0
4, 364200, Note_on_c, 10, 81, 80
4, 364296, Note_on_c, 10, 81, 0
4, 364320, Note_on_c, 10, 79, 80
4, 364416, Note_on_c, 10, 79, 0
4, 364440, Note_on_c, 10, 77, 80
4, 364536, Note_on_c, 10, 77, 0
4, 364560, Note_on_c, 10, 75, 80
4, 364656, Note_on_c, 10, 75, 0
4, 364680, Note_on_c, 10, 74, 80
4, 364776, Note_on_c, 10, 74, 0
4, 364800, Note_on_c, 10, 73, 80
4, 364896, Note_on_c, 10, 73, 0
4, 364920, Note_on_c, 10, 76, 80
4, 365016, Note_on_c, 10, 76, 0
4, 365040, Note_on_c, 10, 81, 80
4, 365136, Note_on_c, 10, 81, 0
4, 365160, Note_on_c, 10, 79, 80
4, 365256, Note_on_c, 10, 79, 0
4, 365280, Note_on_c, 10, 78, 80
4, 365376, Note_on_c, 10, 78, 0
4, 365400, Note_on_c, 10, 75, 80
4, 365496, Note_on_c, 10, 75, 0
4, 365520, Note_on_c, 10, 74, 80
4, 365616, Note_on_c, 10, 74, 0
4, 365640, Note_on_c, 10, 72, 80
4, 365736, Note_on_c, 10, 72, 0
4, 365760, Note_on_c, 10, 70, 80
4, 365952, Note_on_c, 10, 70, 0
4, 366000, Note_on_c, 10, 67, 80
4, 366384, Note_on_c, 10, 67, 0
4, 366480, Note_on_c, 10, 68, 80
4, 366912, Note_on_c, 10, 68, 0
4, 366960, Note_on_c, 10, 69, 80
4, 367344, Note_on_c, 10, 69, 0
4, 367440, Note_on_c, 10, 70, 80
4, 367872, Note_on_c, 10, 70, 0
4, 367920, Note_on_c, 10, 71, 80
4, 368304, Note_on_c, 10, 71, 0
4, 368400, Note_on_c, 10, 72, 80
4, 368832, Note_on_c, 10, 72, 0
4, 368880, Note_on_c, 10, 73, 80
4, 369264, Note_on_c, 10, 73, 0
4, 369540, Note_on_c, 10, 70, 64
4, 369540, Note_on_c, 10, 79, 64
4, 369600, Note_on_c, 10, 79, 0
4, 369600, Note_on_c, 10, 70, 0
4, 369600, Note_on_c, 10, 70, 64
4, 369600, Note_on_c, 10, 79, 64
4, 370560, Note_on_c, 10, 79, 0
4, 370560, Note_on_c, 10, 70, 0
4, 370560, Note_on_c, 10, 69, 64
4, 370560, Note_on_c, 10, 72, 64
4, 371520, Note_on_c, 10, 72, 0
4, 371520, Note_on_c, 10, 69, 0
4, 371520, Note_on_c, 10, 67, 64
4, 371520, Note_on_c, 10, 70, 64
4, 371880, Note_on_c, 10, 70, 0
4, 371880, Note_on_c, 10, 67, 0
4, 376080, Note_on_c, 10, 75, 64
4, 376200, Note_on_c, 10, 75, 0
4, 376200, Note_on_c, 10, 74, 64
4, 376320, Note_on_c, 10, 74, 0
4, 376320, Note_on_c, 10, 74, 64
4, 376512, Note_on_c, 10, 74, 0
4, 376560, Note_on_c, 10, 75, 64
4, 376680, Note_on_c, 10, 75, 0
4, 376680, Note_on_c, 10, 74, 64
4, 376800, Note_on_c, 10, 74, 0
4, 376800, Note_on_c, 10, 74, 64
4, 376992, Note_on_c, 10, 74, 0
4, 377040, Note_on_c, 10, 75, 64
4, 377160, Note_on_c, 10, 75, 0
4, 377160, Note_on_c, 10, 74, 64
4, 377280, Note_on_c, 10, 74, 0
4, 377280, Note_on_c, 10, 70, 80
4, 377280, Note_on_c, 10, 74, 80
4, 377472, Note_on_c, 10, 74, 0
4, 377472, Note_on_c, 10, 70, 0
4, 377520, Note_on_c, 10, 70, 80
4, 377520, Note_on_c, 10, 74, 80
4, 377616, Note_on_c, 10, 74, 0
4, 377616, Note_on_c, 10, 70, 0
4, 377640, Note_on_c, 10, 70, 80
4, 377640, Note_on_c, 10, 74, 80
4, 377736, Note_on_c, 10, 74, 0
4, 377736, Note_on_c, 10, 70, 0
4, 377760, Note_on_c, 10, 72, 80
4, 377760, Note_on_c, 10, 74, 80
4, 377952, Note_on_c, 10, 74, 0
4, 377952, Note_on_c, 10, 72, 0
4, 378000, Note_on_c, 10, 72, 80
4, 378000, Note_on_c, 10, 74, 80
4, 378096, Note_on_c, 10, 74, 0
4, 378096, Note_on_c, 10, 72, 0
4, 378120, Note_on_c, 10, 72, 80
4, 378120, Note_on_c, 10, 74, 80
4, 378216, Note_on_c, 10, 74, 0
4, 378216, Note_on_c, 10, 72, 0
4, 378240, Note_on_c, 10, 74, 80
4, 378240, Note_on_c, 10, 70, 80
4, 378432, Note_on_c, 10, 70, 0
4, 378432, Note_on_c, 10, 74, 0
4, 378480, Note_on_c, 10, 74, 80
4, 378480, Note_on_c, 10, 70, 80
4, 378576, Note_on_c, 10, 70, 0
4, 378576, Note_on_c, 10, 74, 0
4, 378600, Note_on_c, 10, 74, 80
4, 378600, Note_on_c, 10, 70, 80
4, 378696, Note_on_c, 10, 70, 0
4, 378696, Note_on_c, 10, 74, 0
4, 378720, Note_on_c, 10, 74, 80
4, 378720, Note_on_c, 10, 72, 80
4, 378912, Note_on_c, 10, 72, 0
4, 378912, Note_on_c, 10, 74, 0
4, 378960, Note_on_c, 10, 74, 80
4, 378960, Note_on_c, 10, 72, 80
4, 379056, Note_on_c, 10, 72, 0
4, 379056, Note_on_c, 10, 74, 0
4, 379080, Note_on_c, 10, 74, 80
4, 379080, Note_on_c, 10, 72, 80
4, 379176, Note_on_c, 10, 72, 0
4, 379176, Note_on_c, 10, 74, 0
4, 379200, Note_on_c, 10, 74, 80
4, 379200, Note_on_c, 10, 70, 80
4, 379392, Note_on_c, 10, 70, 0
4, 379392, Note_on_c, 10, 74, 0
4, 379440, Note_on_c, 10, 74, 80
4, 379440, Note_on_c, 10, 70, 80
4, 379536, Note_on_c, 10, 70, 0
4, 379536, Note_on_c, 10, 74, 0
4, 379560, Note_on_c, 10, 74, 80
4, 379560, Note_on_c, 10, 70, 80
4, 379656, Note_on_c, 10, 70, 0
4, 379656, Note_on_c, 10, 74, 0
4, 379680, Note_on_c, 10, 74, 80
4, 379680, Note_on_c, 10, 72, 80
4, 379872, Note_on_c, 10, 72, 0
4, 379872, Note_on_c, 10, 74, 0
4, 379920, Note_on_c, 10, 74, 80
4, 379920, Note_on_c, 10, 72, 80
4, 380016, Note_on_c, 10, 72, 0
4, 380016, Note_on_c, 10, 74, 0
4, 380040, Note_on_c, 10, 74, 80
4, 380040, Note_on_c, 10, 72, 80
4, 380136, Note_on_c, 10, 72, 0
4, 380136, Note_on_c, 10, 74, 0
4, 380160, Note_on_c, 10, 70, 80
4, 380160, Note_on_c, 10, 74, 80
4, 380352, Note_on_c, 10, 74, 0
4, 380352, Note_on_c, 10, 70, 0
4, 380400, Note_on_c, 10, 72, 80
4, 380400, Note_on_c, 10, 74, 80
4, 380592, Note_on_c, 10, 74, 0
4, 380592, Note_on_c, 10, 72, 0
4, 380640, Note_on_c, 10, 70, 80
4, 380640, Note_on_c, 10, 74, 80
4, 380832, Note_on_c, 10, 74, 0
4, 380832, Note_on_c, 10, 70, 0
4, 380880, Note_on_c, 10, 72, 80
4, 380880, Note_on_c, 10, 74, 80
4, 381072, Note_on_c, 10, 74, 0
4, 381072, Note_on_c, 10, 72, 0
4, 381120, Note_on_c, 10, 70, 80
4, 381120, Note_on_c, 10, 74, 80
4, 381480, Note_on_c, 10, 74, 0
4, 381480, Note_on_c, 10, 70, 0
4, 382080, Note_on_c, 10, 70, 80
4, 382080, Note_on_c, 10, 74, 80
4, 382320, Note_on_c, 10, 74, 0
4, 382320, Note_on_c, 10, 70, 0
4, 382560, Note_on_c, 10, 70, 80
4, 382560, Note_on_c, 10, 74, 80
4, 382800, Note_on_c, 10, 74, 0
4, 382800, Note_on_c, 10, 70, 0
4, 383040, Note_on_c, 10, 70, 80
4, 383040, Note_on_c, 10, 74, 80
4, 383760, Note_on_c, 10, 74, 0
4, 383760, Note_on_c, 10, 70, 0
4, 383760, End_track
5, 0, Start_track
5, 0, MIDI_port, 0
5, 0, Title_t, "Fagotti."
5, 0, Program_c, 11, 70
5, 116, Control_c, 11, 10, 53
5, 164, Control_c, 11, 91, 127
5, 13680, Note_on_c, 11, 54, 56
5, 13920, Note_on_c, 11, 54, 0
5, 13920, Note_on_c, 11, 55, 56
5, 14160, Note_on_c, 11, 55, 0
5, 14160, Note_on_c, 11, 57, 56
5, 14400, Note_on_c, 11, 57, 0
5, 14400, Note_on_c, 11, 58, 56
5, 14640, Note_on_c, 11, 58, 0
5, 14640, Note_on_c, 11, 60, 56
5, 14760, Note_on_c, 11, 60, 0
5, 14760, Note_on_c, 11, 58, 56
5, 14880, Note_on_c, 11, 58, 0
5, 14880, Note_on_c, 11, 57, 56
5, 15120, Note_on_c, 11, 57, 0
5, 15120, Note_on_c, 11, 55, 56
5, 15360, Note_on_c, 11, 55, 0
5, 15360, Note_on_c, 11, 54, 56
5, 15552, Note_on_c, 11, 54, 0
5, 15840, Note_on_c, 11, 58, 80
5, 15840, Note_on_c, 11, 64, 80
5, 16320, Note_on_c, 11, 64, 0
5, 16320, Note_on_c, 11, 58, 0
5, 16320, Note_on_c, 11, 57, 80
5, 16320, Note_on_c, 11, 66, 80
5, 16560, Note_on_c, 11, 66, 0
5, 16560, Note_on_c, 11, 57, 0
5, 16800, Note_on_c, 11, 64, 80
5, 16800, Note_on_c, 11, 58, 80
5, 17280, Note_on_c, 11, 58, 0
5, 17280, Note_on_c, 11, 64, 0
5, 17280, Note_on_c, 11, 66, 80
5, 17280, Note_on_c, 11, 57, 80
5, 17520, Note_on_c, 11, 57, 0
5, 17520, Note_on_c, 11, 66, 0
5, 17760, Note_on_c, 11, 58, 80
5, 17760, Note_on_c, 11, 64, 80
5, 18240, Note_on_c, 11, 64, 0
5, 18240, Note_on_c, 11, 58, 0
5, 18240, Note_on_c, 11, 66, 75
5, 18240, Note_on_c, 11, 57, 75
5, 18384, Note_on_c, 11, 57, 0
5, 18384, Note_on_c, 11, 66, 0
5, 18480, Note_on_c, 11, 64, 68
5, 18480, Note_on_c, 11, 58, 68
5, 18624, Note_on_c, 11, 58, 0
5, 18624, Note_on_c, 11, 64, 0
5, 18720, Note_on_c, 11, 57, 60
5, 18720, Note_on_c, 11, 66, 60
5, 18864, Note_on_c, 11, 66, 0
5, 18864, Note_on_c, 11, 57, 0
5, 18960, Note_on_c, 11, 58, 53
5, 18960, Note_on_c, 11, 64, 53
5, 19104, Note_on_c, 11, 64, 0
5, 19104, Note_on_c, 11, 58, 0
5, 19200, Note_on_c, 11, 57, 56
5, 19200, Note_on_c, 11, 66, 56
5, 19680, Note_on_c, 11, 66, 0
5, 19680, Note_on_c, 11, 60, 56
5, 20160, Note_on_c, 11, 60, 0
5, 20160, Note_on_c, 11, 57, 0
5, 20160, Note_on_c, 11, 55, 56
5, 20160, Note_on_c, 11, 58, 56
5, 20640, Note_on_c, 11, 58, 0
5, 20640, Note_on_c, 11, 55, 0
5, 20640, Note_on_c, 11, 54, 56
5, 20640, Note_on_c, 11, 57, 56
5, 21120, Note_on_c, 11, 57, 0
5, 21120, Note_on_c, 11, 54, 0
5, 21120, Note_on_c, 11, 58, 56
5, 21120, Note_on_c, 11, 55, 56
5, 21360, Note_on_c, 11, 55, 0
5, 21360, Note_on_c, 11, 58, 0
5, 23040, Note_on_c, 11, 67, 56
5, 23040, Note_on_c, 11, 63, 56
5, 24960, Note_on_c, 11, 63, 0
5, 24960, Note_on_c, 11, 67, 0
5, 24960, Note_on_c, 11, 63, 56
5, 24960, Note_on_c, 11, 65, 56
5, 26880, Note_on_c, 11, 65, 0
5, 26880, Note_on_c, 11, 63, 0
5, 26880, Note_on_c, 11, 62, 80
5, 26880, Note_on_c, 11, 65, 80
5, 27120, Note_on_c, 11, 65, 0
5, 27120, Note_on_c, 11, 62, 0
5, 27120, Note_on_c, 11, 58, 80
5, 27216, Note_on_c, 11, 58, 0
5, 27240, Note_on_c, 11, 62, 80
5, 27336, Note_on_c, 11, 62, 0
5, 27360, Note_on_c, 11, 58, 80
5, 27456, Note_on_c, 11, 58, 0
5, 27480, Note_on_c, 11, 62, 80
5, 27576, Note_on_c, 11, 62, 0
5, 27600, Note_on_c, 11, 58, 80
5, 27696, Note_on_c, 11, 58, 0
5, 27720, Note_on_c, 11, 62, 80
5, 27816, Note_on_c, 11, 62, 0
5, 27840, Note_on_c, 11, 57, 80
5, 27936, Note_on_c, 11, 57, 0
5, 27960, Note_on_c, 11, 60, 80
5, 28056, Note_on_c, 11, 60, 0
5, 28080, Note_on_c, 11, 57, 80
5, 28176, Note_on_c, 11, 57, 0
5, 28200, Note_on_c, 11, 60, 80
5, 28296, Note_on_c, 11, 60, 0
5, 28320, Note_on_c, 11, 57, 80
5, 28416, Note_on_c, 11, 57, 0
5, 28440, Note_on_c, 11, 60, 80
5, 28536, Note_on_c, 11, 60, 0
5, 28560, Note_on_c, 11, 57, 80
5, 28656, Note_on_c, 11, 57, 0
5, 28680, Note_on_c, 11, 60, 80
5, 28776, Note_on_c, 11, 60, 0
5, 28800, Note_on_c, 11, 55, 80
5, 28896, Note_on_c, 11, 55, 0
5, 28920, Note_on_c, 11, 58, 80
5, 29016, Note_on_c, 11, 58, 0
5, 29040, Note_on_c, 11, 55, 80
5, 29136, Note_on_c, 11, 55, 0
5, 29160, Note_on_c, 11, 58, 80
5, 29256, Note_on_c, 11, 58, 0
5, 29280, Note_on_c, 11, 55, 80
5, 29376, Note_on_c, 11, 55, 0
5, 29400, Note_on_c, 11, 58, 80
5, 29496, Note_on_c, 11, 58, 0
5, 29520, Note_on_c, 11, 55, 80
5, 29616, Note_on_c, 11, 55, 0
5, 29640, Note_on_c, 11, 58, 80
5, 29736, Note_on_c, 11, 58, 0
5, 29760, Note_on_c, 11, 53, 80
5, 29856, Note_on_c, 11, 53, 0
5, 29880, Note_on_c, 11, 58, 80
5, 29976, Note_on_c, 11, 58, 0
5, 30000, Note_on_c, 11, 53, 80
5, 30096, Note_on_c, 11, 53, 0
5, 30120, Note_on_c, 11, 58, 80
5, 30216, Note_on_c, 11, 58, 0
5, 30240, Note_on_c, 11, 53, 80
5, 30336, Note_on_c, 11, 53, 0
5, 30360, Note_on_c, 11, 58, 80
5, 30456, Note_on_c, 11, 58, 0
5, 30480, Note_on_c, 11, 53, 80
5, 30576, Note_on_c, 11, 53, 0
5, 30600, Note_on_c, 11, 58, 80
5, 30696, Note_on_c, 11, 58, 0
5, 30720, Note_on_c, 11, 51, 80
5, 30816, Note_on_c, 11, 51, 0
5, 30840, Note_on_c, 11, 55, 80
5, 30936, Note_on_c, 11, 55, 0
5, 30960, Note_on_c, 11, 51, 80
5, 31056, Note_on_c, 11, 51, 0
5, 31080, Note_on_c, 11, 55, 80
5, 31176, Note_on_c, 11, 55, 0
5, 31200, Note_on_c, 11, 51, 80
5, 31296, Note_on_c, 11, 51, 0
5, 31320, Note_on_c, 11, 55, 80
5, 31416, Note_on_c, 11, 55, 0
5, 31440, Note_on_c, 11, 51, 80
5, 31536, Note_on_c, 11, 51, 0
5, 31560, Note_on_c, 11, 55, 80
5, 31656, Note_on_c, 11, 55, 0
5, 31680, Note_on_c, 11, 50, 80
5, 31776, Note_on_c, 11, 50, 0
5, 31800, Note_on_c, 11, 53, 80
5, 31896, Note_on_c, 11, 53, 0
5, 31920, Note_on_c, 11, 50, 80
5, 32016, Note_on_c, 11, 50, 0
5, 32040, Note_on_c, 11, 53, 80
5, 32136, Note_on_c, 11, 53, 0
5, 32160, Note_on_c, 11, 50, 80
5, 32256, Note_on_c, 11, 50, 0
5, 32280, Note_on_c, 11, 53, 80
5, 32376, Note_on_c, 11, 53, 0
5, 32400, Note_on_c, 11, 50, 80
5, 32496, Note_on_c, 11, 50, 0
5, 32520, Note_on_c, 11, 53, 80
5, 32616, Note_on_c, 11, 53, 0
5, 32640, Note_on_c, 11, 55, 80
5, 32640, Note_on_c, 11, 64, 80
5, 33480, Note_on_c, 11, 64, 0
5, 33480, Note_on_c, 11, 55, 0
5, 33480, Note_on_c, 11, 65, 80
5, 33576, Note_on_c, 11, 65, 0
5, 33600, Note_on_c, 11, 55, 80
5, 33600, Note_on_c, 11, 64, 80
5, 34440, Note_on_c, 11, 64, 0
5, 34440, Note_on_c, 11, 55, 0
5, 34440, Note_on_c, 11, 65, 80
5, 34536, Note_on_c, 11, 65, 0
5, 34560, Note_on_c, 11, 55, 80
5, 34560, Note_on_c, 11, 64, 80
5, 35400, Note_on_c, 11, 64, 0
5, 35400, Note_on_c, 11, 55, 0
5, 35400, Note_on_c, 11, 65, 80
5, 35496, Note_on_c, 11, 65, 0
5, 35520, Note_on_c, 11, 55, 80
5, 35520, Note_on_c, 11, 64, 80
5, 36480, Note_on_c, 11, 64, 0
5, 36480, Note_on_c, 11, 55, 0
5, 36480, Note_on_c, 11, 53, 80
5, 36480, Note_on_c, 11, 65, 80
5, 36576, Note_on_c, 11, 65, 0
5, 36576, Note_on_c, 11, 53, 0
5, 36600, Note_on_c, 11, 53, 80
5, 36696, Note_on_c, 11, 53, 0
5, 36720, Note_on_c, 11, 53, 80
5, 36816, Note_on_c, 11, 53, 0
5, 36840, Note_on_c, 11, 53, 80
5, 36936, Note_on_c, 11, 53, 0
5, 36960, Note_on_c, 11, 53, 80
5, 37056, Note_on_c, 11, 53, 0
5, 37080, Note_on_c, 11, 53, 80
5, 37176, Note_on_c, 11, 53, 0
5, 37200, Note_on_c, 11, 53, 80
5, 37296, Note_on_c, 11, 53, 0
5, 37320, Note_on_c, 11, 53, 80
5, 37416, Note_on_c, 11, 53, 0
5, 37440, Note_on_c, 11, 53, 80
5, 37536, Note_on_c, 11, 53, 0
5, 37560, Note_on_c, 11, 53, 80
5, 37656, Note_on_c, 11, 53, 0
5, 37680, Note_on_c, 11, 53, 80
5, 37776, Note_on_c, 11, 53, 0
5, 37800, Note_on_c, 11, 53, 80
5, 37896, Note_on_c, 11, 53, 0
5, 37920, Note_on_c, 11, 53, 80
5, 38016, Note_on_c, 11, 53, 0
5, 38040, Note_on_c, 11, 53, 80
5, 38136, Note_on_c, 11, 53, 0
5, 38160, Note_on_c, 11, 53, 80
5, 38256, Note_on_c, 11, 53, 0
5, 38280, Note_on_c, 11, 53, 80
5, 38376, Note_on_c, 11, 53, 0
5, 38400, Note_on_c, 11, 53, 80
5, 38496, Note_on_c, 11, 53, 0
5, 38520, Note_on_c, 11, 53, 80
5, 38616, Note_on_c, 11, 53, 0
5, 38640, Note_on_c, 11, 53, 80
5, 38736, Note_on_c, 11, 53, 0
5, 38760, Note_on_c, 11, 53, 80
5, 38856, Note_on_c, 11, 53, 0
5, 38880, Note_on_c, 11, 53, 80
5, 38976, Note_on_c, 11, 53, 0
5, 39000, Note_on_c, 11, 53, 80
5, 39096, Note_on_c, 11, 53, 0
5, 39120, Note_on_c, 11, 53, 80
5, 39216, Note_on_c, 11, 53, 0
5, 39240, Note_on_c, 11, 53, 80
5, 39336, Note_on_c, 11, 53, 0
5, 39360, Note_on_c, 11, 53, 80
5, 39456, Note_on_c, 11, 53, 0
5, 39480, Note_on_c, 11, 53, 80
5, 39576, Note_on_c, 11, 53, 0
5, 39600, Note_on_c, 11, 53, 80
5, 39696, Note_on_c, 11, 53, 0
5, 39720, Note_on_c, 11, 53, 80
5, 39816, Note_on_c, 11, 53, 0
5, 39840, Note_on_c, 11, 53, 80
5, 39936, Note_on_c, 11, 53, 0
5, 39960, Note_on_c, 11, 53, 80
5, 40056, Note_on_c, 11, 53, 0
5, 40080, Note_on_c, 11, 53, 80
5, 40176, Note_on_c, 11, 53, 0
5, 40200, Note_on_c, 11, 53, 80
5, 40296, Note_on_c, 11, 53, 0
5, 40320, Note_on_c, 11, 53, 80
5, 40560, Note_on_c, 11, 53, 0
5, 40800, Note_on_c, 11, 41, 56
5, 41040, Note_on_c, 11, 41, 0
5, 43200, Note_on_c, 11, 63, 75
5, 43920, Note_on_c, 11, 63, 0
5, 43920, Note_on_c, 11, 65, 67
5, 43980, Note_on_c, 11, 65, 0
5, 43980, Note_on_c, 11, 63, 66
5, 44040, Note_on_c, 11, 63, 0
5, 44040, Note_on_c, 11, 62, 65
5, 44100, Note_on_c, 11, 62, 0
5, 44100, Note_on_c, 11, 60, 65
5, 44160, Note_on_c, 11, 60, 0
5, 44160, Note_on_c, 11, 58, 56
5, 44400, Note_on_c, 11, 58, 0
5, 48960, Note_on_c, 11, 58, 64
5, 49080, Note_on_c, 11, 58, 0
5, 49080, Note_on_c, 11, 57, 64
5, 49200, Note_on_c, 11, 57, 0
5, 49200, Note_on_c, 11, 60, 64
5, 49320, Note_on_c, 11, 60, 0
5, 49320, Note_on_c, 11, 58, 64
5, 49440, Note_on_c, 11, 58, 0
5, 49440, Note_on_c, 11, 62, 64
5, 49560, Note_on_c, 11, 62, 0
5, 49560, Note_on_c, 11, 60, 64
5, 49680, Note_on_c, 11, 60, 0
5, 49680, Note_on_c, 11, 63, 64
5, 49800, Note_on_c, 11, 63, 0
5, 49800, Note_on_c, 11, 62, 64
5, 49920, Note_on_c, 11, 62, 0
5, 49920, Note_on_c, 11, 62, 64
5, 49920, Note_on_c, 11, 65, 64
5, 50640, Note_on_c, 11, 65, 0
5, 50640, Note_on_c, 11, 62, 0
5, 50640, Note_on_c, 11, 60, 64
5, 50640, Note_on_c, 11, 64, 64
5, 50880, Note_on_c, 11, 64, 0
5, 50880, Note_on_c, 11, 60, 0
5, 50880, Note_on_c, 11, 53, 64
5, 50880, Note_on_c, 11, 63, 64
5, 51240, Note_on_c, 11, 63, 0
5, 51240, Note_on_c, 11, 53, 0
5, 52080, Note_on_c, 11, 55, 64
5, 52080, Note_on_c, 11, 62, 64
5, 52224, Note_on_c, 11, 62, 0
5, 52224, Note_on_c, 11, 55, 0
5, 52320, Note_on_c, 11, 55, 64
5, 52320, Note_on_c, 11, 62, 64
5, 52560, Note_on_c, 11, 62, 0
5, 52560, Note_on_c, 11, 55, 0
5, 52560, Note_on_c, 11, 52, 64
5, 52560, Note_on_c, 11, 67, 64
5, 52800, Note_on_c, 11, 67, 0
5, 52800, Note_on_c, 11, 52, 0
5, 52800, Note_on_c, 11, 53, 64
5, 52800, Note_on_c, 11, 65, 64
5, 53280, Note_on_c, 11, 65, 0
5, 53280, Note_on_c, 11, 53, 0
5, 55920, Note_on_c, 11, 61, 64
5, 55920, Note_on_c, 11, 58, 64
5, 56400, Note_on_c, 11, 58, 0
5, 56400, Note_on_c, 11, 61, 0
5, 56400, Note_on_c, 11, 56, 64
5, 56400, Note_on_c, 11, 60, 64
5, 56640, Note_on_c, 11, 60, 0
5, 56640, Note_on_c, 11, 56, 0
5, 56880, Note_on_c, 11, 58, 64
5, 56880, Note_on_c, 11, 61, 64
5, 57360, Note_on_c, 11, 61, 0
5, 57360, Note_on_c, 11, 58, 0
5, 57360, Note_on_c, 11, 60, 64
5, 57360, Note_on_c, 11, 56, 64
5, 57600, Note_on_c, 11, 56, 0
5, 57600, Note_on_c, 11, 60, 0
5, 57840, Note_on_c, 11, 58, 64
5, 57840, Note_on_c, 11, 61, 64
5, 58320, Note_on_c, 11, 61, 0
5, 58320, Note_on_c, 11, 58, 0
5, 58320, Note_on_c, 11, 60, 64
5, 58320, Note_on_c, 11, 56, 64
5, 58560, Note_on_c, 11, 56, 0
5, 58560, Note_on_c, 11, 60, 0
5, 58800, Note_on_c, 11, 58, 64
5, 58800, Note_on_c, 11, 61, 64
5, 59280, Note_on_c, 11, 61, 0
5, 59280, Note_on_c, 11, 58, 0
5, 59280, Note_on_c, 11, 60, 64
5, 59280, Note_on_c, 11, 56, 64
5, 59520, Note_on_c, 11, 56, 0
5, 59520, Note_on_c, 11, 60, 0
5, 59520, Note_on_c, 11, 51, 80
5, 59616, Note_on_c, 11, 51, 0
5, 59640, Note_on_c, 11, 51, 80
5, 59736, Note_on_c, 11, 51, 0
5, 59760, Note_on_c, 11, 51, 80
5, 59856, Note_on_c, 11, 51, 0
5, 59880, Note_on_c, 11, 51, 80
5, 59976, Note_on_c, 11, 51, 0
5, 60000, Note_on_c, 11, 51, 80
5, 60096, Note_on_c, 11, 51, 0
5, 60120, Note_on_c, 11, 51, 80
5, 60216, Note_on_c, 11, 51, 0
5, 60240, Note_on_c, 11, 51, 80
5, 60336, Note_on_c, 11, 51, 0
5, 60360, Note_on_c, 11, 51, 80
5, 60456, Note_on_c, 11, 51, 0
5, 60480, Note_on_c, 11, 52, 80
5, 60576, Note_on_c, 11, 52, 0
5, 60600, Note_on_c, 11, 52, 80
5, 60696, Note_on_c, 11, 52, 0
5, 60720, Note_on_c, 11, 52, 80
5, 60816, Note_on_c, 11, 52, 0
5, 60840, Note_on_c, 11, 52, 80
5, 60936, Note_on_c, 11, 52, 0
5, 60960, Note_on_c, 11, 52, 80
5, 61056, Note_on_c, 11, 52, 0
5, 61080, Note_on_c, 11, 52, 80
5, 61176, Note_on_c, 11, 52, 0
5, 61200, Note_on_c, 11, 52, 80
5, 61296, Note_on_c, 11, 52, 0
5, 61320, Note_on_c, 11, 52, 80
5, 61416, Note_on_c, 11, 52, 0
5, 61440, Note_on_c, 11, 53, 80
5, 61536, Note_on_c, 11, 53, 0
5, 61560, Note_on_c, 11, 53, 80
5, 61656, Note_on_c, 11, 53, 0
5, 61680, Note_on_c, 11, 53, 80
5, 61776, Note_on_c, 11, 53, 0
5, 61800, Note_on_c, 11, 53, 80
5, 61896, Note_on_c, 11, 53, 0
5, 61920, Note_on_c, 11, 53, 80
5, 62016, Note_on_c, 11, 53, 0
5, 62040, Note_on_c, 11, 53, 80
5, 62136, Note_on_c, 11, 53, 0
5, 62160, Note_on_c, 11, 53, 80
5, 62256, Note_on_c, 11, 53, 0
5, 62280, Note_on_c, 11, 53, 80
5, 62376, Note_on_c, 11, 53, 0
5, 62400, Note_on_c, 11, 41, 80
5, 62496, Note_on_c, 11, 41, 0
5, 62520, Note_on_c, 11, 41, 80
5, 62616, Note_on_c, 11, 41, 0
5, 62640, Note_on_c, 11, 41, 80
5, 62736, Note_on_c, 11, 41, 0
5, 62760, Note_on_c, 11, 41, 80
5, 62856, Note_on_c, 11, 41, 0
5, 62880, Note_on_c, 11, 41, 80
5, 62976, Note_on_c, 11, 41, 0
5, 63000, Note_on_c, 11, 41, 80
5, 63096, Note_on_c, 11, 41, 0
5, 63120, Note_on_c, 11, 41, 80
5, 63216, Note_on_c, 11, 41, 0
5, 63240, Note_on_c, 11, 41, 80
5, 63336, Note_on_c, 11, 41, 0
5, 63360, Note_on_c, 11, 46, 80
5, 63552, Note_on_c, 11, 46, 0
5, 63600, Note_on_c, 11, 50, 80
5, 64080, Note_on_c, 11, 50, 0
5, 64080, Note_on_c, 11, 51, 80
5, 64272, Note_on_c, 11, 51, 0
5, 64320, Note_on_c, 11, 52, 80
5, 64512, Note_on_c, 11, 52, 0
5, 64560, Note_on_c, 11, 53, 80
5, 64752, Note_on_c, 11, 53, 0
5, 64800, Note_on_c, 11, 54, 80
5, 64992, Note_on_c, 11, 54, 0
5, 65040, Note_on_c, 11, 55, 80
5, 65232, Note_on_c, 11, 55, 0
5, 65280, Note_on_c, 11, 56, 80
5, 65520, Note_on_c, 11, 56, 0
5, 65760, Note_on_c, 11, 55, 80
5, 66000, Note_on_c, 11, 55, 0
5, 66240, Note_on_c, 11, 57, 80
5, 66240, Note_on_c, 11, 60, 80
5, 66480, Note_on_c, 11, 60, 0
5, 66480, Note_on_c, 11, 57, 0
5, 66720, Note_on_c, 11, 62, 80
5, 66720, Note_on_c, 11, 58, 80
5, 66960, Note_on_c, 11, 58, 0
5, 66960, Note_on_c, 11, 62, 0
5, 67200, Note_on_c, 11, 67, 80
5, 67776, Note_on_c, 11, 67, 0
5, 67800, Note_on_c, 11, 65, 64
5, 67890, Note_on_c, 11, 65, 0
5, 67920, Note_on_c, 11, 63, 64
5, 68010, Note_on_c, 11, 63, 0
5, 68040, Note_on_c, 11, 62, 64
5, 68130, Note_on_c, 11, 62, 0
5, 68160, Note_on_c, 11, 60, 64
5, 68250, Note_on_c, 11, 60, 0
5, 68280, Note_on_c, 11, 58, 64
5, 68370, Note_on_c, 11, 58, 0
5, 68400, Note_on_c, 11, 57, 64
5, 68490, Note_on_c, 11, 57, 0
5, 68520, Note_on_c, 11, 55, 64
5, 68610, Note_on_c, 11, 55, 0
5, 68640, Note_on_c, 11, 53, 64
5, 68730, Note_on_c, 11, 53, 0
5, 68760, Note_on_c, 11, 51, 64
5, 68850, Note_on_c, 11, 51, 0
5, 68880, Note_on_c, 11, 50, 64
5, 68970, Note_on_c, 11, 50, 0
5, 69000, Note_on_c, 11, 48, 64
5, 69090, Note_on_c, 11, 48, 0
5, 69120, Note_on_c, 11, 46, 80
5, 69360, Note_on_c, 11, 46, 0
5, 70800, Note_on_c, 11, 67, 64
5, 70920, Note_on_c, 11, 67, 0
5, 70920, Note_on_c, 11, 65, 64
5, 71040, Note_on_c, 11, 65, 0
5, 71040, Note_on_c, 11, 65, 64
5, 71232, Note_on_c, 11, 65, 0
5, 71280, Note_on_c, 11, 67, 64
5, 71400, Note_on_c, 11, 67, 0
5, 71400, Note_on_c, 11, 65, 64
5, 71520, Note_on_c, 11, 65, 0
5, 71520, Note_on_c, 11, 65, 64
5, 71712, Note_on_c, 11, 65, 0
5, 72720, Note_on_c, 11, 67, 64
5, 72840, Note_on_c, 11, 67, 0
5, 72840, Note_on_c, 11, 65, 64
5, 72960, Note_on_c, 11, 65, 0
5, 72960, Note_on_c, 11, 65, 64
5, 73152, Note_on_c, 11, 65, 0
5, 73200, Note_on_c, 11, 67, 64
5, 73320, Note_on_c, 11, 67, 0
5, 73320, Note_on_c, 11, 65, 64
5, 73440, Note_on_c, 11, 65, 0
5, 73440, Note_on_c, 11, 65, 64
5, 73632, Note_on_c, 11, 65, 0
5, 73920, Note_on_c, 11, 50, 80
5, 74016, Note_on_c, 11, 50, 0
5, 74040, Note_on_c, 11, 50, 80
5, 74136, Note_on_c, 11, 50, 0
5, 74160, Note_on_c, 11, 50, 80
5, 74256, Note_on_c, 11, 50, 0
5, 74280, Note_on_c, 11, 50, 80
5, 74376, Note_on_c, 11, 50, 0
5, 74400, Note_on_c, 11, 50, 80
5, 74496, Note_on_c, 11, 50, 0
5, 74520, Note_on_c, 11, 50, 80
5, 74616, Note_on_c, 11, 50, 0
5, 74640, Note_on_c, 11, 50, 80
5, 74736, Note_on_c, 11, 50, 0
5, 74760, Note_on_c, 11, 50, 80
5, 74856, Note_on_c, 11, 50, 0
5, 74880, Note_on_c, 11, 55, 80
5, 74976, Note_on_c, 11, 55, 0
5, 75000, Note_on_c, 11, 55, 80
5, 75096, Note_on_c, 11, 55, 0
5, 75120, Note_on_c, 11, 55, 80
5, 75216, Note_on_c, 11, 55, 0
5, 75240, Note_on_c, 11, 55, 80
5, 75336, Note_on_c, 11, 55, 0
5, 75360, Note_on_c, 11, 51, 80
5, 75456, Note_on_c, 11, 51, 0
5, 75480, Note_on_c, 11, 51, 80
5, 75576, Note_on_c, 11, 51, 0
5, 75600, Note_on_c, 11, 51, 80
5, 75696, Note_on_c, 11, 51, 0
5, 75720, Note_on_c, 11, 51, 80
5, 75816, Note_on_c, 11, 51, 0
5, 75840, Note_on_c, 11, 53, 80
5, 75936, Note_on_c, 11, 53, 0
5, 75960, Note_on_c, 11, 53, 80
5, 76056, Note_on_c, 11, 53, 0
5, 76080, Note_on_c, 11, 53, 80
5, 76176, Note_on_c, 11, 53, 0
5, 76200, Note_on_c, 11, 53, 80
5, 76296, Note_on_c, 11, 53, 0
5, 76320, Note_on_c, 11, 41, 80
5, 76416, Note_on_c, 11, 41, 0
5, 76440, Note_on_c, 11, 41, 80
5, 76536, Note_on_c, 11, 41, 0
5, 76560, Note_on_c, 11, 41, 80
5, 76656, Note_on_c, 11, 41, 0
5, 76680, Note_on_c, 11, 41, 80
5, 76776, Note_on_c, 11, 41, 0
5, 76800, Note_on_c, 11, 46, 80
5, 77040, Note_on_c, 11, 46, 0
5, 77520, Note_on_c, 11, 67, 64
5, 77640, Note_on_c, 11, 67, 0
5, 77640, Note_on_c, 11, 65, 64
5, 77760, Note_on_c, 11, 65, 0
5, 77760, Note_on_c, 11, 65, 64
5, 77952, Note_on_c, 11, 65, 0
5, 78000, Note_on_c, 11, 67, 64
5, 78120, Note_on_c, 11, 67, 0
5, 78120, Note_on_c, 11, 65, 64
5, 78240, Note_on_c, 11, 65, 0
5, 78240, Note_on_c, 11, 65, 64
5, 78432, Note_on_c, 11, 65, 0
5, 79440, Note_on_c, 11, 67, 64
5, 79560, Note_on_c, 11, 67, 0
5, 79560, Note_on_c, 11, 65, 64
5, 79680, Note_on_c, 11, 65, 0
5, 79680, Note_on_c, 11, 65, 64
5, 79872, Note_on_c, 11, 65, 0
5, 79920, Note_on_c, 11, 67, 64
5, 80040, Note_on_c, 11, 67, 0
5, 80040, Note_on_c, 11, 65, 64
5, 80160, Note_on_c, 11, 65, 0
5, 80160, Note_on_c, 11, 65, 64
5, 80352, Note_on_c, 11, 65, 0
5, 81600, Note_on_c, 11, 50, 80
5, 81696, Note_on_c, 11, 50, 0
5, 81720, Note_on_c, 11, 50, 80
5, 81816, Note_on_c, 11, 50, 0
5, 81840, Note_on_c, 11, 50, 80
5, 81936, Note_on_c, 11, 50, 0
5, 81960, Note_on_c, 11, 50, 80
5, 82056, Note_on_c, 11, 50, 0
5, 82080, Note_on_c, 11, 50, 80
5, 82176, Note_on_c, 11, 50, 0
5, 82200, Note_on_c, 11, 50, 80
5, 82296, Note_on_c, 11, 50, 0
5, 82320, Note_on_c, 11, 50, 80
5, 82416, Note_on_c, 11, 50, 0
5, 82440, Note_on_c, 11, 50, 80
5, 82536, Note_on_c, 11, 50, 0
5, 82560, Note_on_c, 11, 55, 80
5, 82656, Note_on_c, 11, 55, 0
5, 82680, Note_on_c, 11, 55, 80
5, 82776, Note_on_c, 11, 55, 0
5, 82800, Note_on_c, 11, 55, 80
5, 82896, Note_on_c, 11, 55, 0
5, 82920, Note_on_c, 11, 55, 80
5, 83016, Note_on_c, 11, 55, 0
5, 83040, Note_on_c, 11, 51, 80
5, 83136, Note_on_c, 11, 51, 0
5, 83160, Note_on_c, 11, 51, 80
5, 83256, Note_on_c, 11, 51, 0
5, 83280, Note_on_c, 11, 51, 80
5, 83376, Note_on_c, 11, 51, 0
5, 83400, Note_on_c, 11, 51, 80
5, 83496, Note_on_c, 11, 51, 0
5, 83520, Note_on_c, 11, 53, 80
5, 83616, Note_on_c, 11, 53, 0
5, 83640, Note_on_c, 11, 53, 80
5, 83736, Note_on_c, 11, 53, 0
5, 83760, Note_on_c, 11, 53, 80
5, 83856, Note_on_c, 11, 53, 0
5, 83880, Note_on_c, 11, 53, 80
5, 83976, Note_on_c, 11, 53, 0
5, 84000, Note_on_c, 11, 41, 80
5, 84096, Note_on_c, 11, 41, 0
5, 84120, Note_on_c, 11, 41, 80
5, 84216, Note_on_c, 11, 41, 0
5, 84240, Note_on_c, 11, 41, 80
5, 84336, Note_on_c, 11, 41, 0
5, 84360, Note_on_c, 11, 41, 80
5, 84456, Note_on_c, 11, 41, 0
5, 84480, Note_on_c, 11, 46, 80
5, 84864, Note_on_c, 11, 46, 0
5, 85320, Note_on_c, 11, 65, 80
5, 85416, Note_on_c, 11, 65, 0
5, 85440, Note_on_c, 11, 63, 80
5, 85536, Note_on_c, 11, 63, 0
5, 85560, Note_on_c, 11, 62, 80
5, 85656, Note_on_c, 11, 62, 0
5, 85680, Note_on_c, 11, 60, 80
5, 85776, Note_on_c, 11, 60, 0
5, 85800, Note_on_c, 11, 58, 80
5, 85896, Note_on_c, 11, 58, 0
5, 85920, Note_on_c, 11, 57, 80
5, 86016, Note_on_c, 11, 57, 0
5, 86040, Note_on_c, 11, 55, 80
5, 86136, Note_on_c, 11, 55, 0
5, 86160, Note_on_c, 11, 53, 80
5, 86256, Note_on_c, 11, 53, 0
5, 86280, Note_on_c, 11, 51, 80
5, 86376, Note_on_c, 11, 51, 0
5, 86400, Note_on_c, 11, 50, 80
5, 86544, Note_on_c, 11, 50, 0
5, 86640, Note_on_c, 11, 50, 80
5, 86784, Note_on_c, 11, 50, 0
5, 86880, Note_on_c, 11, 51, 80
5, 87024, Note_on_c, 11, 51, 0
5, 87120, Note_on_c, 11, 53, 80
5, 87264, Note_on_c, 11, 53, 0
5, 87360, Note_on_c, 11, 58, 80
5, 87456, Note_on_c, 11, 58, 0
5, 87480, Note_on_c, 11, 53, 80
5, 87576, Note_on_c, 11, 53, 0
5, 87600, Note_on_c, 11, 62, 80
5, 87696, Note_on_c, 11, 62, 0
5, 87720, Note_on_c, 11, 60, 80
5, 87816, Note_on_c, 11, 60, 0
5, 87840, Note_on_c, 11, 58, 80
5, 87936, Note_on_c, 11, 58, 0
5, 87960, Note_on_c, 11, 57, 80
5, 88056, Note_on_c, 11, 57, 0
5, 88080, Note_on_c, 11, 55, 80
5, 88176, Note_on_c, 11, 55, 0
5, 88200, Note_on_c, 11, 53, 80
5, 88296, Note_on_c, 11, 53, 0
5, 88320, Note_on_c, 11, 51, 80
5, 88416, Note_on_c, 11, 51, 0
5, 88440, Note_on_c, 11, 50, 80
5, 88536, Note_on_c, 11, 50, 0
5, 88560, Note_on_c, 11, 48, 80
5, 88656, Note_on_c, 11, 48, 0
5, 88680, Note_on_c, 11, 46, 80
5, 88776, Note_on_c, 11, 46, 0
5, 88800, Note_on_c, 11, 45, 80
5, 88896, Note_on_c, 11, 45, 0
5, 88920, Note_on_c, 11, 48, 80
5, 89016, Note_on_c, 11, 48, 0
5, 89040, Note_on_c, 11, 53, 80
5, 89136, Note_on_c, 11, 53, 0
5, 89160, Note_on_c, 11, 51, 80
5, 89256, Note_on_c, 11, 51, 0
5, 89280, Note_on_c, 11, 50, 80
5, 89472, Note_on_c, 11, 50, 0
5, 89520, Note_on_c, 11, 50, 80
5, 89712, Note_on_c, 11, 50, 0
5, 89760, Note_on_c, 11, 51, 80
5, 89952, Note_on_c, 11, 51, 0
5, 90000, Note_on_c, 11, 53, 80
5, 90192, Note_on_c, 11, 53, 0
5, 90240, Note_on_c, 11, 55, 80
5, 90432, Note_on_c, 11, 55, 0
5, 90480, Note_on_c, 11, 51, 80
5, 90672, Note_on_c, 11, 51, 0
5, 90720, Note_on_c, 11, 53, 80
5, 90912, Note_on_c, 11, 53, 0
5, 90960, Note_on_c, 11, 41, 80
5, 91152, Note_on_c, 11, 41, 0
5, 91200, Note_on_c, 11, 46, 80
5, 91392, Note_on_c, 11, 46, 0
5, 91440, Note_on_c, 11, 58, 80
5, 91440, Note_on_c, 11, 62, 80
5, 91536, Note_on_c, 11, 62, 0
5, 91536, Note_on_c, 11, 58, 0
5, 91560, Note_on_c, 11, 62, 80
5, 91560, Note_on_c, 11, 58, 80
5, 91656, Note_on_c, 11, 58, 0
5, 91656, Note_on_c, 11, 62, 0
5, 91680, Note_on_c, 11, 60, 80
5, 91680, Note_on_c, 11, 63, 80
5, 91872, Note_on_c, 11, 63, 0
5, 91872, Note_on_c, 11, 60, 0
5, 91920, Note_on_c, 11, 60, 80
5, 91920, Note_on_c, 11, 63, 80
5, 92016, Note_on_c, 11, 63, 0
5, 92016, Note_on_c, 11, 60, 0
5, 92040, Note_on_c, 11, 60, 80
5, 92040, Note_on_c, 11, 63, 80
5, 92136, Note_on_c, 11, 63, 0
5, 92136, Note_on_c, 11, 60, 0
5, 92160, Note_on_c, 11, 58, 80
5, 92160, Note_on_c, 11, 62, 80
5, 92352, Note_on_c, 11, 62, 0
5, 92352, Note_on_c, 11, 58, 0
5, 92400, Note_on_c, 11, 58, 80
5, 92400, Note_on_c, 11, 62, 80
5, 92496, Note_on_c, 11, 62, 0
5, 92496, Note_on_c, 11, 58, 0
5, 92520, Note_on_c, 11, 58, 80
5, 92520, Note_on_c, 11, 62, 80
5, 92616, Note_on_c, 11, 62, 0
5, 92616, Note_on_c, 11, 58, 0
5, 92640, Note_on_c, 11, 60, 80
5, 92640, Note_on_c, 11, 63, 80
5, 92832, Note_on_c, 11, 63, 0
5, 92832, Note_on_c, 11, 60, 0
5, 92880, Note_on_c, 11, 60, 80
5, 92880, Note_on_c, 11, 63, 80
5, 92976, Note_on_c, 11, 63, 0
5, 92976, Note_on_c, 11, 60, 0
5, 93000, Note_on_c, 11, 60, 80
5, 93000, Note_on_c, 11, 63, 80
5, 93096, Note_on_c, 11, 63, 0
5, 93096, Note_on_c, 11, 60, 0
5, 93120, Note_on_c, 11, 62, 80
5, 93120, Note_on_c, 11, 58, 80
5, 93312, Note_on_c, 11, 58, 0
5, 93312, Note_on_c, 11, 62, 0
5, 93360, Note_on_c, 11, 62, 80
5, 93360, Note_on_c, 11, 58, 80
5, 93456, Note_on_c, 11, 58, 0
5, 93456, Note_on_c, 11, 62, 0
5, 93480, Note_on_c, 11, 62, 80
5, 93480, Note_on_c, 11, 58, 80
5, 93576, Note_on_c, 11, 58, 0
5, 93576, Note_on_c, 11, 62, 0
5, 93600, Note_on_c, 11, 63, 80
5, 93600, Note_on_c, 11, 60, 80
5, 93792, Note_on_c, 11, 60, 0
5, 93792, Note_on_c, 11, 63, 0
5, 93840, Note_on_c, 11, 63, 80
5, 93840, Note_on_c, 11, 60, 80
5, 93936, Note_on_c, 11, 60, 0
5, 93936, Note_on_c, 11, 63, 0
5, 93960, Note_on_c, 11, 63, 80
5, 93960, Note_on_c, 11, 60, 80
5, 94056, Note_on_c, 11, 60, 0
5, 94056, Note_on_c, 11, 63, 0
5, 94080, Note_on_c, 11, 58, 80
5, 94080, Note_on_c, 11, 62, 80
5, 94272, Note_on_c, 11, 62, 0
5, 94272, Note_on_c, 11, 58, 0
5, 94320, Note_on_c, 11, 60, 80
5, 94320, Note_on_c, 11, 63, 80
5, 94512, Note_on_c, 11, 63, 0
5, 94512, Note_on_c, 11, 60, 0
5, 94560, Note_on_c, 11, 58, 80
5, 94560, Note_on_c, 11, 62, 80
5, 94752, Note_on_c, 11, 62, 0
5, 94752, Note_on_c, 11, 58, 0
5, 94800, Note_on_c, 11, 60, 80
5, 94800, Note_on_c, 11, 63, 80
5, 94992, Note_on_c, 11, 63, 0
5, 94992, Note_on_c, 11, 60, 0
5, 95040, Note_on_c, 11, 58, 80
5, 95040, Note_on_c, 11, 62, 80
5, 95328, Note_on_c, 11, 62, 0
5, 95328, Note_on_c, 11, 58, 0
5, 96000, Note_on_c, 11, 57, 80
5, 96288, Note_on_c, 11, 57, 0
5, 109680, Note_on_c, 11, 54, 56
5, 109920, Note_on_c, 11, 54, 0
5, 109920, Note_on_c, 11, 55, 56
5, 110160, Note_on_c, 11, 55, 0
5, 110160, Note_on_c, 11, 57, 56
5, 110400, Note_on_c, 11, 57, 0
5, 110400, Note_on_c, 11, 58, 56
5, 110640, Note_on_c, 11, 58, 0
5, 110640, Note_on_c, 11, 60, 56
5, 110760, Note_on_c, 11, 60, 0
5, 110760, Note_on_c, 11, 58, 56
5, 110880, Note_on_c, 11, 58, 0
5, 110880, Note_on_c, 11, 57, 56
5, 111120, Note_on_c, 11, 57, 0
5, 111120, Note_on_c, 11, 55, 56
5, 111360, Note_on_c, 11, 55, 0
5, 111360, Note_on_c, 11, 54, 56
5, 111552, Note_on_c, 11, 54, 0
5, 111840, Note_on_c, 11, 64, 80
5, 111840, Note_on_c, 11, 58, 80
5, 112320, Note_on_c, 11, 58, 0
5, 112320, Note_on_c, 11, 64, 0
5, 112320, Note_on_c, 11, 66, 80
5, 112320, Note_on_c, 11, 57, 80
5, 112560, Note_on_c, 11, 57, 0
5, 112560, Note_on_c, 11, 66, 0
5, 112800, Note_on_c, 11, 58, 80
5, 112800, Note_on_c, 11, 64, 80
5, 113280, Note_on_c, 11, 64, 0
5, 113280, Note_on_c, 11, 58, 0
5, 113280, Note_on_c, 11, 57, 80
5, 113280, Note_on_c, 11, 66, 80
5, 113520, Note_on_c, 11, 66, 0
5, 113520, Note_on_c, 11, 57, 0
5, 113760, Note_on_c, 11, 64, 80
5, 113760, Note_on_c, 11, 58, 80
5, 114240, Note_on_c, 11, 58, 0
5, 114240, Note_on_c, 11, 64, 0
5, 114240, Note_on_c, 11, 57, 75
5, 114240, Note_on_c, 11, 66, 75
5, 114384, Note_on_c, 11, 66, 0
5, 114384, Note_on_c, 11, 57, 0
5, 114480, Note_on_c, 11, 58, 68
5, 114480, Note_on_c, 11, 64, 68
5, 114624, Note_on_c, 11, 64, 0
5, 114624, Note_on_c, 11, 58, 0
5, 114720, Note_on_c, 11, 66, 60
5, 114720, Note_on_c, 11, 57, 60
5, 114864, Note_on_c, 11, 57, 0
5, 114864, Note_on_c, 11, 66, 0
5, 114960, Note_on_c, 11, 64, 53
5, 114960, Note_on_c, 11, 58, 53
5, 115104, Note_on_c, 11, 58, 0
5, 115104, Note_on_c, 11, 64, 0
5, 115200, Note_on_c, 11, 57, 56
5, 115200, Note_on_c, 11, 66, 56
5, 115680, Note_on_c, 11, 66, 0
5, 115680, Note_on_c, 11, 60, 56
5, 116160, Note_on_c, 11, 60, 0
5, 116160, Note_on_c, 11, 57, 0
5, 116160, Note_on_c, 11, 58, 56
5, 116160, Note_on_c, 11, 55, 56
5, 116640, Note_on_c, 11, 55, 0
5, 116640, Note_on_c, 11, 58, 0
5, 116640, Note_on_c, 11, 57, 56
5, 116640, Note_on_c, 11, 54, 56
5, 117120, Note_on_c, 11, 54, 0
5, 117120, Note_on_c, 11, 57, 0
5, 117120, Note_on_c, 11, 55, 56
5, 117120, Note_on_c, 11, 58, 56
5, 117360, Note_on_c, 11, 58, 0
5, 117360, Note_on_c, 11, 55, 0
5, 119040, Note_on_c, 11, 63, 56
5, 119040, Note_on_c, 11, 67, 56
5, 120960, Note_on_c, 11, 67, 0
5, 120960, Note_on_c, 11, 63, 0
5, 120960, Note_on_c, 11, 65, 56
5, 120960, Note_on_c, 11, 63, 56
5, 122880, Note_on_c, 11, 63, 0
5, 122880, Note_on_c, 11, 65, 0
5, 122880, Note_on_c, 11, 65, 80
5, 122880, Note_on_c, 11, 62, 80
5, 123120, Note_on_c, 11, 62, 0
5, 123120, Note_on_c, 11, 65, 0
5, 123120, Note_on_c, 11, 58, 80
5, 123216, Note_on_c, 11, 58, 0
5, 123240, Note_on_c, 11, 62, 80
5, 123336, Note_on_c, 11, 62, 0
5, 123360, Note_on_c, 11, 58, 80
5, 123456, Note_on_c, 11, 58, 0
5, 123480, Note_on_c, 11, 62, 80
5, 123576, Note_on_c, 11, 62, 0
5, 123600, Note_on_c, 11, 58, 80
5, 123696, Note_on_c, 11, 58, 0
5, 123720, Note_on_c, 11, 62, 80
5, 123816, Note_on_c, 11, 62, 0
5, 123840, Note_on_c, 11, 57, 80
5, 123936, Note_on_c, 11, 57, 0
5, 123960, Note_on_c, 11, 60, 80
5, 124056, Note_on_c, 11, 60, 0
5, 124080, Note_on_c, 11, 57, 80
5, 124176, Note_on_c, 11, 57, 0
5, 124200, Note_on_c, 11, 60, 80
5, 124296, Note_on_c, 11, 60, 0
5, 124320, Note_on_c, 11, 57, 80
5, 124416, Note_on_c, 11, 57, 0
5, 124440, Note_on_c, 11, 60, 80
5, 124536, Note_on_c, 11, 60, 0
5, 124560, Note_on_c, 11, 57, 80
5, 124656, Note_on_c, 11, 57, 0
5, 124680, Note_on_c, 11, 60, 80
5, 124776, Note_on_c, 11, 60, 0
5, 124800, Note_on_c, 11, 55, 80
5, 124896, Note_on_c, 11, 55, 0
5, 124920, Note_on_c, 11, 58, 80
5, 125016, Note_on_c, 11, 58, 0
5, 125040, Note_on_c, 11, 55, 80
5, 125136, Note_on_c, 11, 55, 0
5, 125160, Note_on_c, 11, 58, 80
5, 125256, Note_on_c, 11, 58, 0
5, 125280, Note_on_c, 11, 55, 80
5, 125376, Note_on_c, 11, 55, 0
5, 125400, Note_on_c, 11, 58, 80
5, 125496, Note_on_c, 11, 58, 0
5, 125520, Note_on_c, 11, 55, 80
5, 125616, Note_on_c, 11, 55, 0
5, 125640, Note_on_c, 11, 58, 80
5, 125736, Note_on_c, 11, 58, 0
5, 125760, Note_on_c, 11, 53, 80
5, 125856, Note_on_c, 11, 53, 0
5, 125880, Note_on_c, 11, 58, 80
5, 125976, Note_on_c, 11, 58, 0
5, 126000, Note_on_c, 11, 53, 80
5, 126096, Note_on_c, 11, 53, 0
5, 126120, Note_on_c, 11, 58, 80
5, 126216, Note_on_c, 11, 58, 0
5, 126240, Note_on_c, 11, 53, 80
5, 126336, Note_on_c, 11, 53, 0
5, 126360, Note_on_c, 11, 58, 80
5, 126456, Note_on_c, 11, 58, 0
5, 126480, Note_on_c, 11, 53, 80
5, 126576, Note_on_c, 11, 53, 0
5, 126600, Note_on_c, 11, 58, 80
5, 126696, Note_on_c, 11, 58, 0
5, 126720, Note_on_c, 11, 51, 80
5, 126816, Note_on_c, 11, 51, 0
5, 126840, Note_on_c, 11, 55, 80
5, 126936, Note_on_c, 11, 55, 0
5, 126960, Note_on_c, 11, 51, 80
5, 127056, Note_on_c, 11, 51, 0
5, 127080, Note_on_c, 11, 55, 80
5, 127176, Note_on_c, 11, 55, 0
5, 127200, Note_on_c, 11, 51, 80
5, 127296, Note_on_c, 11, 51, 0
5, 127320, Note_on_c, 11, 55, 80
5, 127416, Note_on_c, 11, 55, 0
5, 127440, Note_on_c, 11, 51, 80
5, 127536, Note_on_c, 11, 51, 0
5, 127560, Note_on_c, 11, 55, 80
5, 127656, Note_on_c, 11, 55, 0
5, 127680, Note_on_c, 11, 50, 80
5, 127776, Note_on_c, 11, 50, 0
5, 127800, Note_on_c, 11, 53, 80
5, 127896, Note_on_c, 11, 53, 0
5, 127920, Note_on_c, 11, 50, 80
5, 128016, Note_on_c, 11, 50, 0
5, 128040, Note_on_c, 11, 53, 80
5, 128136, Note_on_c, 11, 53, 0
5, 128160, Note_on_c, 11, 50, 80
5, 128256, Note_on_c, 11, 50, 0
5, 128280, Note_on_c, 11, 53, 80
5, 128376, Note_on_c, 11, 53, 0
5, 128400, Note_on_c, 11, 50, 80
5, 128496, Note_on_c, 11, 50, 0
5, 128520, Note_on_c, 11, 53, 80
5, 128616, Note_on_c, 11, 53, 0
5, 128640, Note_on_c, 11, 64, 80
5, 128640, Note_on_c, 11, 55, 80
5, 129480, Note_on_c, 11, 55, 0
5, 129480, Note_on_c, 11, 64, 0
5, 129480, Note_on_c, 11, 65, 80
5, 129576, Note_on_c, 11, 65, 0
5, 129600, Note_on_c, 11, 64, 80
5, 129600, Note_on_c, 11, 55, 80
5, 130440, Note_on_c, 11, 55, 0
5, 130440, Note_on_c, 11, 64, 0
5, 130440, Note_on_c, 11, 65, 80
5, 130536, Note_on_c, 11, 65, 0
5, 130560, Note_on_c, 11, 64, 80
5, 130560, Note_on_c, 11, 55, 80
5, 131400, Note_on_c, 11, 55, 0
5, 131400, Note_on_c, 11, 64, 0
5, 131400, Note_on_c, 11, 65, 80
5, 131496, Note_on_c, 11, 65, 0
5, 131520, Note_on_c, 11, 64, 80
5, 131520, Note_on_c, 11, 55, 80
5, 132480, Note_on_c, 11, 55, 0
5, 132480, Note_on_c, 11, 64, 0
5, 132480, Note_on_c, 11, 65, 80
5, 132480, Note_on_c, 11, 53, 80
5, 132576, Note_on_c, 11, 53, 0
5, 132576, Note_on_c, 11, 65, 0
5, 132600, Note_on_c, 11, 53, 80
5, 132696, Note_on_c, 11, 53, 0
5, 132720, Note_on_c, 11, 53, 80
5, 132816, Note_on_c, 11, 53, 0
5, 132840, Note_on_c, 11, 53, 80
5, 132936, Note_on_c, 11, 53, 0
5, 132960, Note_on_c, 11, 53, 80
5, 133056, Note_on_c, 11, 53, 0
5, 133080, Note_on_c, 11, 53, 80
5, 133176, Note_on_c, 11, 53, 0
5, 133200, Note_on_c, 11, 53, 80
5, 133296, Note_on_c, 11, 53, 0
5, 133320, Note_on_c, 11, 53, 80
5, 133416, Note_on_c, 11, 53, 0
5, 133440, Note_on_c, 11, 53, 80
5, 133536, Note_on_c, 11, 53, 0
5, 133560, Note_on_c, 11, 53, 80
5, 133656, Note_on_c, 11, 53, 0
5, 133680, Note_on_c, 11, 53, 80
5, 133776, Note_on_c, 11, 53, 0
5, 133800, Note_on_c, 11, 53, 80
5, 133896, Note_on_c, 11, 53, 0
5, 133920, Note_on_c, 11, 53, 80
5, 134016, Note_on_c, 11, 53, 0
5, 134040, Note_on_c, 11, 53, 80
5, 134136, Note_on_c, 11, 53, 0
5, 134160, Note_on_c, 11, 53, 80
5, 134256, Note_on_c, 11, 53, 0
5, 134280, Note_on_c, 11, 53, 80
5, 134376, Note_on_c, 11, 53, 0
5, 134400, Note_on_c, 11, 53, 80
5, 134496, Note_on_c, 11, 53, 0
5, 134520, Note_on_c, 11, 53, 80
5, 134616, Note_on_c, 11, 53, 0
5, 134640, Note_on_c, 11, 53, 80
5, 134736, Note_on_c, 11, 53, 0
5, 134760, Note_on_c, 11, 53, 80
5, 134856, Note_on_c, 11, 53, 0
5, 134880, Note_on_c, 11, 53, 80
5, 134976, Note_on_c, 11, 53, 0
5, 135000, Note_on_c, 11, 53, 80
5, 135096, Note_on_c, 11, 53, 0
5, 135120, Note_on_c, 11, 53, 80
5, 135216, Note_on_c, 11, 53, 0
5, 135240, Note_on_c, 11, 53, 80
5, 135336, Note_on_c, 11, 53, 0
5, 135360, Note_on_c, 11, 53, 80
5, 135456, Note_on_c, 11, 53, 0
5, 135480, Note_on_c, 11, 53, 80
5, 135576, Note_on_c, 11, 53, 0
5, 135600, Note_on_c, 11, 53, 80
5, 135696, Note_on_c, 11, 53, 0
5, 135720, Note_on_c, 11, 53, 80
5, 135816, Note_on_c, 11, 53, 0
5, 135840, Note_on_c, 11, 53, 80
5, 135936, Note_on_c, 11, 53, 0
5, 135960, Note_on_c, 11, 53, 80
5, 136056, Note_on_c, 11, 53, 0
5, 136080, Note_on_c, 11, 53, 80
5, 136176, Note_on_c, 11, 53, 0
5, 136200, Note_on_c, 11, 53, 80
5, 136296, Note_on_c, 11, 53, 0
5, 136320, Note_on_c, 11, 53, 80
5, 136560, Note_on_c, 11, 53, 0
5, 136800, Note_on_c, 11, 41, 56
5, 137040, Note_on_c, 11, 41, 0
5, 139200, Note_on_c, 11, 63, 75
5, 139920, Note_on_c, 11, 63, 0
5, 139920, Note_on_c, 11, 65, 67
5, 139980, Note_on_c, 11, 65, 0
5, 139980, Note_on_c, 11, 63, 66
5, 140040, Note_on_c, 11, 63, 0
5, 140040, Note_on_c, 11, 62, 65
5, 140100, Note_on_c, 11, 62, 0
5, 140100, Note_on_c, 11, 60, 65
5, 140160, Note_on_c, 11, 60, 0
5, 140160, Note_on_c, 11, 58, 56
5, 140400, Note_on_c, 11, 58, 0
5, 144960, Note_on_c, 11, 58, 64
5, 145080, Note_on_c, 11, 58, 0
5, 145080, Note_on_c, 11, 57, 64
5, 145200, Note_on_c, 11, 57, 0
5, 145200, Note_on_c, 11, 60, 64
5, 145320, Note_on_c, 11, 60, 0
5, 145320, Note_on_c, 11, 58, 64
5, 145440, Note_on_c, 11, 58, 0
5, 145440, Note_on_c, 11, 62, 64
5, 145560, Note_on_c, 11, 62, 0
5, 145560, Note_on_c, 11, 60, 64
5, 145680, Note_on_c, 11, 60, 0
5, 145680, Note_on_c, 11, 63, 64
5, 145800, Note_on_c, 11, 63, 0
5, 145800, Note_on_c, 11, 62, 64
5, 145920, Note_on_c, 11, 62, 0
5, 145920, Note_on_c, 11, 65, 64
5, 145920, Note_on_c, 11, 62, 64
5, 146640, Note_on_c, 11, 62, 0
5, 146640, Note_on_c, 11, 65, 0
5, 146640, Note_on_c, 11, 64, 64
5, 146640, Note_on_c, 11, 60, 64
5, 146880, Note_on_c, 11, 60, 0
5, 146880, Note_on_c, 11, 64, 0
5, 146880, Note_on_c, 11, 63, 64
5, 146880, Note_on_c, 11, 53, 64
5, 147240, Note_on_c, 11, 53, 0
5, 147240, Note_on_c, 11, 63, 0
5, 148080, Note_on_c, 11, 62, 64
5, 148080, Note_on_c, 11, 55, 64
5, 148224, Note_on_c, 11, 55, 0
5, 148224, Note_on_c, 11, 62, 0
5, 148320, Note_on_c, 11, 62, 64
5, 148320, Note_on_c, 11, 55, 64
5, 148560, Note_on_c, 11, 55, 0
5, 148560, Note_on_c, 11, 62, 0
5, 148560, Note_on_c, 11, 67, 64
5, 148560, Note_on_c, 11, 52, 64
5, 148800, Note_on_c, 11, 52, 0
5, 148800, Note_on_c, 11, 67, 0
5, 148800, Note_on_c, 11, 65, 64
5, 148800, Note_on_c, 11, 53, 64
5, 149280, Note_on_c, 11, 53, 0
5, 149280, Note_on_c, 11, 65, 0
5, 151920, Note_on_c, 11, 58, 64
5, 151920, Note_on_c, 11, 61, 64
5, 152400, Note_on_c, 11, 61, 0
5, 152400, Note_on_c, 11, 58, 0
5, 152400, Note_on_c, 11, 60, 64
5, 152400, Note_on_c, 11, 56, 64
5, 152640, Note_on_c, 11, 56, 0
5, 152640, Note_on_c, 11, 60, 0
5, 152880, Note_on_c, 11, 61, 64
5, 152880, Note_on_c, 11, 58, 64
5, 153360, Note_on_c, 11, 58, 0
5, 153360, Note_on_c, 11, 61, 0
5, 153360, Note_on_c, 11, 56, 64
5, 153360, Note_on_c, 11, 60, 64
5, 153600, Note_on_c, 11, 60, 0
5, 153600, Note_on_c, 11, 56, 0
5, 153840, Note_on_c, 11, 61, 64
5, 153840, Note_on_c, 11, 58, 64
5, 154320, Note_on_c, 11, 58, 0
5, 154320, Note_on_c, 11, 61, 0
5, 154320, Note_on_c, 11, 56, 64
5, 154320, Note_on_c, 11, 60, 64
5, 154560, Note_on_c, 11, 60, 0
5, 154560, Note_on_c, 11, 56, 0
5, 154800, Note_on_c, 11, 61, 64
5, 154800, Note_on_c, 11, 58, 64
5, 155280, Note_on_c, 11, 58, 0
5, 155280, Note_on_c, 11, 61, 0
5, 155280, Note_on_c, 11, 56, 64
5, 155280, Note_on_c, 11, 60, 64
5, 155520, Note_on_c, 11, 60, 0
5, 155520, Note_on_c, 11, 56, 0
5, 155520, Note_on_c, 11, 51, 80
5, 155616, Note_on_c, 11, 51, 0
5, 155640, Note_on_c, 11, 51, 80
5, 155736, Note_on_c, 11, 51, 0
5, 155760, Note_on_c, 11, 51, 80
5, 155856, Note_on_c, 11, 51, 0
5, 155880, Note_on_c, 11, 51, 80
5, 155976, Note_on_c, 11, 51, 0
5, 156000, Note_on_c, 11, 51, 80
5, 156096, Note_on_c, 11, 51, 0
5, 156120, Note_on_c, 11, 51, 80
5, 156216, Note_on_c, 11, 51, 0
5, 156240, Note_on_c, 11, 51, 80
5, 156336, Note_on_c, 11, 51, 0
5, 156360, Note_on_c, 11, 51, 80
5, 156456, Note_on_c, 11, 51, 0
5, 156480, Note_on_c, 11, 52, 80
5, 156576, Note_on_c, 11, 52, 0
5, 156600, Note_on_c, 11, 52, 80
5, 156696, Note_on_c, 11, 52, 0
5, 156720, Note_on_c, 11, 52, 80
5, 156816, Note_on_c, 11, 52, 0
5, 156840, Note_on_c, 11, 52, 80
5, 156936, Note_on_c, 11, 52, 0
5, 156960, Note_on_c, 11, 52, 80
5, 157056, Note_on_c, 11, 52, 0
5, 157080, Note_on_c, 11, 52, 80
5, 157176, Note_on_c, 11, 52, 0
5, 157200, Note_on_c, 11, 52, 80
5, 157296, Note_on_c, 11, 52, 0
5, 157320, Note_on_c, 11, 52, 80
5, 157416, Note_on_c, 11, 52, 0
5, 157440, Note_on_c, 11, 53, 80
5, 157536, Note_on_c, 11, 53, 0
5, 157560, Note_on_c, 11, 53, 80
5, 157656, Note_on_c, 11, 53, 0
5, 157680, Note_on_c, 11, 53, 80
5, 157776, Note_on_c, 11, 53, 0
5, 157800, Note_on_c, 11, 53, 80
5, 157896, Note_on_c, 11, 53, 0
5, 157920, Note_on_c, 11, 53, 80
5, 158016, Note_on_c, 11, 53, 0
5, 158040, Note_on_c, 11, 53, 80
5, 158136, Note_on_c, 11, 53, 0
5, 158160, Note_on_c, 11, 53, 80
5, 158256, Note_on_c, 11, 53, 0
5, 158280, Note_on_c, 11, 53, 80
5, 158376, Note_on_c, 11, 53, 0
5, 158400, Note_on_c, 11, 41, 80
5, 158496, Note_on_c, 11, 41, 0
5, 158520, Note_on_c, 11, 41, 80
5, 158616, Note_on_c, 11, 41, 0
5, 158640, Note_on_c, 11, 41, 80
5, 158736, Note_on_c, 11, 41, 0
5, 158760, Note_on_c, 11, 41, 80
5, 158856, Note_on_c, 11, 41, 0
5, 158880, Note_on_c, 11, 41, 80
5, 158976, Note_on_c, 11, 41, 0
5, 159000, Note_on_c, 11, 41, 80
5, 159096, Note_on_c, 11, 41, 0
5, 159120, Note_on_c, 11, 41, 80
5, 159216, Note_on_c, 11, 41, 0
5, 159240, Note_on_c, 11, 41, 80
5, 159336, Note_on_c, 11, 41, 0
5, 159360, Note_on_c, 11, 46, 80
5, 159552, Note_on_c, 11, 46, 0
5, 159600, Note_on_c, 11, 50, 80
5, 160080, Note_on_c, 11, 50, 0
5, 160080, Note_on_c, 11, 51, 80
5, 160272, Note_on_c, 11, 51, 0
5, 160320, Note_on_c, 11, 52, 80
5, 160512, Note_on_c, 11, 52, 0
5, 160560, Note_on_c, 11, 53, 80
5, 160752, Note_on_c, 11, 53, 0
5, 160800, Note_on_c, 11, 54, 80
5, 160992, Note_on_c, 11, 54, 0
5, 161040, Note_on_c, 11, 55, 80
5, 161232, Note_on_c, 11, 55, 0
5, 161280, Note_on_c, 11, 56, 80
5, 161520, Note_on_c, 11, 56, 0
5, 161760, Note_on_c, 11, 55, 80
5, 162000, Note_on_c, 11, 55, 0
5, 162240, Note_on_c, 11, 60, 80
5, 162240, Note_on_c, 11, 57, 80
5, 162480, Note_on_c, 11, 57, 0
5, 162480, Note_on_c, 11, 60, 0
5, 162720, Note_on_c, 11, 58, 80
5, 162720, Note_on_c, 11, 62, 80
5, 162960, Note_on_c, 11, 62, 0
5, 162960, Note_on_c, 11, 58, 0
5, 163200, Note_on_c, 11, 67, 80
5, 163776, Note_on_c, 11, 67, 0
5, 163800, Note_on_c, 11, 65, 64
5, 163890, Note_on_c, 11, 65, 0
5, 163920, Note_on_c, 11, 63, 64
5, 164010, Note_on_c, 11, 63, 0
5, 164040, Note_on_c, 11, 62, 64
5, 164130, Note_on_c, 11, 62, 0
5, 164160, Note_on_c, 11, 60, 64
5, 164250, Note_on_c, 11, 60, 0
5, 164280, Note_on_c, 11, 58, 64
5, 164370, Note_on_c, 11, 58, 0
5, 164400, Note_on_c, 11, 57, 64
5, 164490, Note_on_c, 11, 57, 0
5, 164520, Note_on_c, 11, 55, 64
5, 164610, Note_on_c, 11, 55, 0
5, 164640, Note_on_c, 11, 53, 64
5, 164730, Note_on_c, 11, 53, 0
5, 164760, Note_on_c, 11, 51, 64
5, 164850, Note_on_c, 11, 51, 0
5, 164880, Note_on_c, 11, 50, 64
5, 164970, Note_on_c, 11, 50, 0
5, 165000, Note_on_c, 11, 48, 64
5, 165090, Note_on_c, 11, 48, 0
5, 165120, Note_on_c, 11, 46, 80
5, 165360, Note_on_c, 11, 46, 0
5, 166800, Note_on_c, 11, 67, 64
5, 166920, Note_on_c, 11, 67, 0
5, 166920, Note_on_c, 11, 65, 64
5, 167040, Note_on_c, 11, 65, 0
5, 167040, Note_on_c, 11, 65, 64
5, 167232, Note_on_c, 11, 65, 0
5, 167280, Note_on_c, 11, 67, 64
5, 167400, Note_on_c, 11, 67, 0
5, 167400, Note_on_c, 11, 65, 64
5, 167520, Note_on_c, 11, 65, 0
5, 167520, Note_on_c, 11, 65, 64
5, 167712, Note_on_c, 11, 65, 0
5, 168720, Note_on_c, 11, 67, 64
5, 168840, Note_on_c, 11, 67, 0
5, 168840, Note_on_c, 11, 65, 64
5, 168960, Note_on_c, 11, 65, 0
5, 168960, Note_on_c, 11, 65, 64
5, 169152, Note_on_c, 11, 65, 0
5, 169200, Note_on_c, 11, 67, 64
5, 169320, Note_on_c, 11, 67, 0
5, 169320, Note_on_c, 11, 65, 64
5, 169440, Note_on_c, 11, 65, 0
5, 169440, Note_on_c, 11, 65, 64
5, 169632, Note_on_c, 11, 65, 0
5, 169920, Note_on_c, 11, 50, 80
5, 170016, Note_on_c, 11, 50, 0
5, 170040, Note_on_c, 11, 50, 80
5, 170136, Note_on_c, 11, 50, 0
5, 170160, Note_on_c, 11, 50, 80
5, 170256, Note_on_c, 11, 50, 0
5, 170280, Note_on_c, 11, 50, 80
5, 170376, Note_on_c, 11, 50, 0
5, 170400, Note_on_c, 11, 50, 80
5, 170496, Note_on_c, 11, 50, 0
5, 170520, Note_on_c, 11, 50, 80
5, 170616, Note_on_c, 11, 50, 0
5, 170640, Note_on_c, 11, 50, 80
5, 170736, Note_on_c, 11, 50, 0
5, 170760, Note_on_c, 11, 50, 80
5, 170856, Note_on_c, 11, 50, 0
5, 170880, Note_on_c, 11, 55, 80
5, 170976, Note_on_c, 11, 55, 0
5, 171000, Note_on_c, 11, 55, 80
5, 171096, Note_on_c, 11, 55, 0
5, 171120, Note_on_c, 11, 55, 80
5, 171216, Note_on_c, 11, 55, 0
5, 171240, Note_on_c, 11, 55, 80
5, 171336, Note_on_c, 11, 55, 0
5, 171360, Note_on_c, 11, 51, 80
5, 171456, Note_on_c, 11, 51, 0
5, 171480, Note_on_c, 11, 51, 80
5, 171576, Note_on_c, 11, 51, 0
5, 171600, Note_on_c, 11, 51, 80
5, 171696, Note_on_c, 11, 51, 0
5, 171720, Note_on_c, 11, 51, 80
5, 171816, Note_on_c, 11, 51, 0
5, 171840, Note_on_c, 11, 53, 80
5, 171936, Note_on_c, 11, 53, 0
5, 171960, Note_on_c, 11, 53, 80
5, 172056, Note_on_c, 11, 53, 0
5, 172080, Note_on_c, 11, 53, 80
5, 172176, Note_on_c, 11, 53, 0
5, 172200, Note_on_c, 11, 53, 80
5, 172296, Note_on_c, 11, 53, 0
5, 172320, Note_on_c, 11, 41, 80
5, 172416, Note_on_c, 11, 41, 0
5, 172440, Note_on_c, 11, 41, 80
5, 172536, Note_on_c, 11, 41, 0
5, 172560, Note_on_c, 11, 41, 80
5, 172656, Note_on_c, 11, 41, 0
5, 172680, Note_on_c, 11, 41, 80
5, 172776, Note_on_c, 11, 41, 0
5, 172800, Note_on_c, 11, 46, 80
5, 173040, Note_on_c, 11, 46, 0
5, 173520, Note_on_c, 11, 67, 64
5, 173640, Note_on_c, 11, 67, 0
5, 173640, Note_on_c, 11, 65, 64
5, 173760, Note_on_c, 11, 65, 0
5, 173760, Note_on_c, 11, 65, 64
5, 173952, Note_on_c, 11, 65, 0
5, 174000, Note_on_c, 11, 67, 64
5, 174120, Note_on_c, 11, 67, 0
5, 174120, Note_on_c, 11, 65, 64
5, 174240, Note_on_c, 11, 65, 0
5, 174240, Note_on_c, 11, 65, 64
5, 174432, Note_on_c, 11, 65, 0
5, 175440, Note_on_c, 11, 67, 64
5, 175560, Note_on_c, 11, 67, 0
5, 175560, Note_on_c, 11, 65, 64
5, 175680, Note_on_c, 11, 65, 0
5, 175680, Note_on_c, 11, 65, 64
5, 175872, Note_on_c, 11, 65, 0
5, 175920, Note_on_c, 11, 67, 64
5, 176040, Note_on_c, 11, 67, 0
5, 176040, Note_on_c, 11, 65, 64
5, 176160, Note_on_c, 11, 65, 0
5, 176160, Note_on_c, 11, 65, 64
5, 176352, Note_on_c, 11, 65, 0
5, 177600, Note_on_c, 11, 50, 80
5, 177696, Note_on_c, 11, 50, 0
5, 177720, Note_on_c, 11, 50, 80
5, 177816, Note_on_c, 11, 50, 0
5, 177840, Note_on_c, 11, 50, 80
5, 177936, Note_on_c, 11, 50, 0
5, 177960, Note_on_c, 11, 50, 80
5, 178056, Note_on_c, 11, 50, 0
5, 178080, Note_on_c, 11, 50, 80
5, 178176, Note_on_c, 11, 50, 0
5, 178200, Note_on_c, 11, 50, 80
5, 178296, Note_on_c, 11, 50, 0
5, 178320, Note_on_c, 11, 50, 80
5, 178416, Note_on_c, 11, 50, 0
5, 178440, Note_on_c, 11, 50, 80
5, 178536, Note_on_c, 11, 50, 0
5, 178560, Note_on_c, 11, 55, 80
5, 178656, Note_on_c, 11, 55, 0
5, 178680, Note_on_c, 11, 55, 80
5, 178776, Note_on_c, 11, 55, 0
5, 178800, Note_on_c, 11, 55, 80
5, 178896, Note_on_c, 11, 55, 0
5, 178920, Note_on_c, 11, 55, 80
5, 179016, Note_on_c, 11, 55, 0
5, 179040, Note_on_c, 11, 51, 80
5, 179136, Note_on_c, 11, 51, 0
5, 179160, Note_on_c, 11, 51, 80
5, 179256, Note_on_c, 11, 51, 0
5, 179280, Note_on_c, 11, 51, 80
5, 179376, Note_on_c, 11, 51, 0
5, 179400, Note_on_c, 11, 51, 80
5, 179496, Note_on_c, 11, 51, 0
5, 179520, Note_on_c, 11, 53, 80
5, 179616, Note_on_c, 11, 53, 0
5, 179640, Note_on_c, 11, 53, 80
5, 179736, Note_on_c, 11, 53, 0
5, 179760, Note_on_c, 11, 53, 80
5, 179856, Note_on_c, 11, 53, 0
5, 179880, Note_on_c, 11, 53, 80
5, 179976, Note_on_c, 11, 53, 0
5, 180000, Note_on_c, 11, 41, 80
5, 180096, Note_on_c, 11, 41, 0
5, 180120, Note_on_c, 11, 41, 80
5, 180216, Note_on_c, 11, 41, 0
5, 180240, Note_on_c, 11, 41, 80
5, 180336, Note_on_c, 11, 41, 0
5, 180360, Note_on_c, 11, 41, 80
5, 180456, Note_on_c, 11, 41, 0
5, 180480, Note_on_c, 11, 46, 80
5, 180864, Note_on_c, 11, 46, 0
5, 181320, Note_on_c, 11, 65, 80
5, 181416, Note_on_c, 11, 65, 0
5, 181440, Note_on_c, 11, 63, 80
5, 181536, Note_on_c, 11, 63, 0
5, 181560, Note_on_c, 11, 62, 80
5, 181656, Note_on_c, 11, 62, 0
5, 181680, Note_on_c, 11, 60, 80
5, 181776, Note_on_c, 11, 60, 0
5, 181800, Note_on_c, 11, 58, 80
5, 181896, Note_on_c, 11, 58, 0
5, 181920, Note_on_c, 11, 57, 80
5, 182016, Note_on_c, 11, 57, 0
5, 182040, Note_on_c, 11, 55, 80
5, 182136, Note_on_c, 11, 55, 0
5, 182160, Note_on_c, 11, 53, 80
5, 182256, Note_on_c, 11, 53, 0
5, 182280, Note_on_c, 11, 51, 80
5, 182376, Note_on_c, 11, 51, 0
5, 182400, Note_on_c, 11, 50, 80
5, 182544, Note_on_c, 11, 50, 0
5, 182640, Note_on_c, 11, 50, 80
5, 182784, Note_on_c, 11, 50, 0
5, 182880, Note_on_c, 11, 51, 80
5, 183024, Note_on_c, 11, 51, 0
5, 183120, Note_on_c, 11, 53, 80
5, 183264, Note_on_c, 11, 53, 0
5, 183360, Note_on_c, 11, 58, 80
5, 183456, Note_on_c, 11, 58, 0
5, 183480, Note_on_c, 11, 53, 80
5, 183576, Note_on_c, 11, 53, 0
5, 183600, Note_on_c, 11, 62, 80
5, 183696, Note_on_c, 11, 62, 0
5, 183720, Note_on_c, 11, 60, 80
5, 183816, Note_on_c, 11, 60, 0
5, 183840, Note_on_c, 11, 58, 80
5, 183936, Note_on_c, 11, 58, 0
5, 183960, Note_on_c, 11, 57, 80
5, 184056, Note_on_c, 11, 57, 0
5, 184080, Note_on_c, 11, 55, 80
5, 184176, Note_on_c, 11, 55, 0
5, 184200, Note_on_c, 11, 53, 80
5, 184296, Note_on_c, 11, 53, 0
5, 184320, Note_on_c, 11, 51, 80
5, 184416, Note_on_c, 11, 51, 0
5, 184440, Note_on_c, 11, 50, 80
5, 184536, Note_on_c, 11, 50, 0
5, 184560, Note_on_c, 11, 48, 80
5, 184656, Note_on_c, 11, 48, 0
5, 184680, Note_on_c, 11, 46, 80
5, 184776, Note_on_c, 11, 46, 0
5, 184800, Note_on_c, 11, 45, 80
5, 184896, Note_on_c, 11, 45, 0
5, 184920, Note_on_c, 11, 48, 80
5, 185016, Note_on_c, 11, 48, 0
5, 185040, Note_on_c, 11, 53, 80
5, 185136, Note_on_c, 11, 53, 0
5, 185160, Note_on_c, 11, 51, 80
5, 185256, Note_on_c, 11, 51, 0
5, 185280, Note_on_c, 11, 50, 80
5, 185472, Note_on_c, 11, 50, 0
5, 185520, Note_on_c, 11, 50, 80
5, 185712, Note_on_c, 11, 50, 0
5, 185760, Note_on_c, 11, 51, 80
5, 185952, Note_on_c, 11, 51, 0
5, 186000, Note_on_c, 11, 53, 80
5, 186192, Note_on_c, 11, 53, 0
5, 186240, Note_on_c, 11, 55, 80
5, 186432, Note_on_c, 11, 55, 0
5, 186480, Note_on_c, 11, 51, 80
5, 186672, Note_on_c, 11, 51, 0
5, 186720, Note_on_c, 11, 53, 80
5, 186912, Note_on_c, 11, 53, 0
5, 186960, Note_on_c, 11, 41, 80
5, 187152, Note_on_c, 11, 41, 0
5, 187200, Note_on_c, 11, 46, 80
5, 187392, Note_on_c, 11, 46, 0
5, 187440, Note_on_c, 11, 62, 80
5, 187440, Note_on_c, 11, 58, 80
5, 187536, Note_on_c, 11, 58, 0
5, 187536, Note_on_c, 11, 62, 0
5, 187560, Note_on_c, 11, 58, 80
5, 187560, Note_on_c, 11, 62, 80
5, 187656, Note_on_c, 11, 62, 0
5, 187656, Note_on_c, 11, 58, 0
5, 187680, Note_on_c, 11, 63, 80
5, 187680, Note_on_c, 11, 60, 80
5, 187872, Note_on_c, 11, 60, 0
5, 187872, Note_on_c, 11, 63, 0
5, 187920, Note_on_c, 11, 63, 80
5, 187920, Note_on_c, 11, 60, 80
5, 188016, Note_on_c, 11, 60, 0
5, 188016, Note_on_c, 11, 63, 0
5, 188040, Note_on_c, 11, 63, 80
5, 188040, Note_on_c, 11, 60, 80
5, 188136, Note_on_c, 11, 60, 0
5, 188136, Note_on_c, 11, 63, 0
5, 188160, Note_on_c, 11, 62, 80
5, 188160, Note_on_c, 11, 58, 80
5, 188352, Note_on_c, 11, 58, 0
5, 188352, Note_on_c, 11, 62, 0
5, 188400, Note_on_c, 11, 62, 80
5, 188400, Note_on_c, 11, 58, 80
5, 188496, Note_on_c, 11, 58, 0
5, 188496, Note_on_c, 11, 62, 0
5, 188520, Note_on_c, 11, 62, 80
5, 188520, Note_on_c, 11, 58, 80
5, 188616, Note_on_c, 11, 58, 0
5, 188616, Note_on_c, 11, 62, 0
5, 188640, Note_on_c, 11, 63, 80
5, 188640, Note_on_c, 11, 60, 80
5, 188832, Note_on_c, 11, 60, 0
5, 188832, Note_on_c, 11, 63, 0
5, 188880, Note_on_c, 11, 63, 80
5, 188880, Note_on_c, 11, 60, 80
5, 188976, Note_on_c, 11, 60, 0
5, 188976, Note_on_c, 11, 63, 0
5, 189000, Note_on_c, 11, 63, 80
5, 189000, Note_on_c, 11, 60, 80
5, 189096, Note_on_c, 11, 60, 0
5, 189096, Note_on_c, 11, 63, 0
5, 189120, Note_on_c, 11, 58, 80
5, 189120, Note_on_c, 11, 62, 80
5, 189312, Note_on_c, 11, 62, 0
5, 189312, Note_on_c, 11, 58, 0
5, 189360, Note_on_c, 11, 58, 80
5, 189360, Note_on_c, 11, 62, 80
5, 189456, Note_on_c, 11, 62, 0
5, 189456, Note_on_c, 11, 58, 0
5, 189480, Note_on_c, 11, 58, 80
5, 189480, Note_on_c, 11, 62, 80
5, 189576, Note_on_c, 11, 62, 0
5, 189576, Note_on_c, 11, 58, 0
5, 189600, Note_on_c, 11, 60, 80
5, 189600, Note_on_c, 11, 63, 80
5, 189792, Note_on_c, 11, 63, 0
5, 189792, Note_on_c, 11, 60, 0
5, 189840, Note_on_c, 11, 60, 80
5, 189840, Note_on_c, 11, 63, 80
5, 189936, Note_on_c, 11, 63, 0
5, 189936, Note_on_c, 11, 60, 0
5, 189960, Note_on_c, 11, 60, 80
5, 189960, Note_on_c, 11, 63, 80
5, 190056, Note_on_c, 11, 63, 0
5, 190056, Note_on_c, 11, 60, 0
5, 190080, Note_on_c, 11, 62, 80
5, 190080, Note_on_c, 11, 58, 80
5, 190272, Note_on_c, 11, 58, 0
5, 190272, Note_on_c, 11, 62, 0
5, 190320, Note_on_c, 11, 63, 80
5, 190320, Note_on_c, 11, 60, 80
5, 190512, Note_on_c, 11, 60, 0
5, 190512, Note_on_c, 11, 63, 0
5, 190560, Note_on_c, 11, 62, 80
5, 190560, Note_on_c, 11, 58, 80
5, 190752, Note_on_c, 11, 58, 0
5, 190752, Note_on_c, 11, 62, 0
5, 190800, Note_on_c, 11, 63, 80
5, 190800, Note_on_c, 11, 60, 80
5, 190992, Note_on_c, 11, 60, 0
5, 190992, Note_on_c, 11, 63, 0
5, 191040, Note_on_c, 11, 62, 80
5, 191040, Note_on_c, 11, 58, 80
5, 191328, Note_on_c, 11, 58, 0
5, 191328, Note_on_c, 11, 62, 0
5, 192000, Note_on_c, 11, 57, 80
5, 192288, Note_on_c, 11, 57, 0
5, 192960, Note_on_c, 11, 55, 80
5, 193152, Note_on_c, 11, 55, 0
5, 193440, Note_on_c, 11, 53, 80
5, 193632, Note_on_c, 11, 53, 0
5, 193920, Note_on_c, 11, 59, 64
5, 193920, Note_on_c, 11, 62, 64
5, 194880, Note_on_c, 11, 62, 0
5, 194880, Note_on_c, 11, 59, 0
5, 194880, Note_on_c, 11, 57, 64
5, 194880, Note_on_c, 11, 61, 64
5, 195360, Note_on_c, 11, 61, 0
5, 195360, Note_on_c, 11, 57, 0
5, 195360, Note_on_c, 11, 56, 64
5, 195360, Note_on_c, 11, 59, 64
5, 195840, Note_on_c, 11, 59, 0
5, 195840, Note_on_c, 11, 56, 0
5, 195840, Note_on_c, 11, 54, 64
5, 195840, Note_on_c, 11, 57, 64
5, 196320, Note_on_c, 11, 57, 0
5, 196320, Note_on_c, 11, 54, 0
5, 196320, Note_on_c, 11, 53, 64
5, 196320, Note_on_c, 11, 56, 64
5, 196800, Note_on_c, 11, 56, 0
5, 196800, Note_on_c, 11, 53, 0
5, 196800, Note_on_c, 11, 54, 64
5, 197088, Note_on_c, 11, 54, 0
5, 198720, Note_on_c, 11, 54, 64
5, 198720, Note_on_c, 11, 63, 64
5, 199680, Note_on_c, 11, 63, 0
5, 199680, Note_on_c, 11, 62, 64
5, 200640, Note_on_c, 11, 62, 0
5, 200640, Note_on_c, 11, 54, 0
5, 200640, Note_on_c, 11, 53, 64
5, 200640, Note_on_c, 11, 61, 64
5, 202560, Note_on_c, 11, 61, 0
5, 202560, Note_on_c, 11, 53, 0
5, 202560, Note_on_c, 11, 52, 64
5, 202560, Note_on_c, 11, 61, 64
5, 203520, Note_on_c, 11, 61, 0
5, 203520, Note_on_c, 11, 52, 0
5, 203520, Note_on_c, 11, 52, 64
5, 203520, Note_on_c, 11, 60, 64
5, 204480, Note_on_c, 11, 60, 0
5, 204480, Note_on_c, 11, 52, 0
5, 204480, Note_on_c, 11, 51, 64
5, 204480, Note_on_c, 11, 59, 64
5, 206160, Note_on_c, 11, 59, 0
5, 206160, Note_on_c, 11, 51, 0
5, 206160, Note_on_c, 11, 60, 80
5, 206280, Note_on_c, 11, 60, 0
5, 206280, Note_on_c, 11, 59, 80
5, 206400, Note_on_c, 11, 59, 0
5, 206400, Note_on_c, 11, 59, 80
5, 206640, Note_on_c, 11, 59, 0
5, 206640, Note_on_c, 11, 60, 80
5, 206760, Note_on_c, 11, 60, 0
5, 206760, Note_on_c, 11, 59, 80
5, 206880, Note_on_c, 11, 59, 0
5, 206880, Note_on_c, 11, 59, 80
5, 207120, Note_on_c, 11, 59, 0
5, 207120, Note_on_c, 11, 60, 80
5, 207240, Note_on_c, 11, 60, 0
5, 207240, Note_on_c, 11, 59, 80
5, 207360, Note_on_c, 11, 59, 0
5, 207360, Note_on_c, 11, 59, 80
5, 207600, Note_on_c, 11, 59, 0
5, 207600, Note_on_c, 11, 67, 80
5, 207840, Note_on_c, 11, 67, 0
5, 208080, Note_on_c, 11, 67, 80
5, 208176, Note_on_c, 11, 67, 0
5, 208200, Note_on_c, 11, 66, 80
5, 208296, Note_on_c, 11, 66, 0
5, 208320, Note_on_c, 11, 64, 80
5, 208512, Note_on_c, 11, 64, 0
5, 208560, Note_on_c, 11, 64, 80
5, 208656, Note_on_c, 11, 64, 0
5, 208680, Note_on_c, 11, 62, 80
5, 208776, Note_on_c, 11, 62, 0
5, 208800, Note_on_c, 11, 60, 80
5, 208992, Note_on_c, 11, 60, 0
5, 209040, Note_on_c, 11, 60, 80
5, 209136, Note_on_c, 11, 60, 0
5, 209160, Note_on_c, 11, 59, 80
5, 209256, Note_on_c, 11, 59, 0
5, 209280, Note_on_c, 11, 57, 80
5, 209376, Note_on_c, 11, 57, 0
5, 209400, Note_on_c, 11, 59, 80
5, 209496, Note_on_c, 11, 59, 0
5, 209520, Note_on_c, 11, 60, 80
5, 209616, Note_on_c, 11, 60, 0
5, 209640, Note_on_c, 11, 59, 80
5, 209736, Note_on_c, 11, 59, 0
5, 209760, Note_on_c, 11, 57, 80
5, 209856, Note_on_c, 11, 57, 0
5, 209880, Note_on_c, 11, 58, 80
5, 209976, Note_on_c, 11, 58, 0
5, 210000, Note_on_c, 11, 55, 80
5, 210096, Note_on_c, 11, 55, 0
5, 210120, Note_on_c, 11, 57, 80
5, 210216, Note_on_c, 11, 57, 0
5, 210240, Note_on_c, 11, 53, 80
5, 210336, Note_on_c, 11, 53, 0
5, 210360, Note_on_c, 11, 57, 80
5, 210456, Note_on_c, 11, 57, 0
5, 210480, Note_on_c, 11, 62, 80
5, 210576, Note_on_c, 11, 62, 0
5, 210600, Note_on_c, 11, 53, 80
5, 210696, Note_on_c, 11, 53, 0
5, 210720, Note_on_c, 11, 52, 80
5, 210816, Note_on_c, 11, 52, 0
5, 210840, Note_on_c, 11, 55, 80
5, 210936, Note_on_c, 11, 55, 0
5, 210960, Note_on_c, 11, 61, 80
5, 211056, Note_on_c, 11, 61, 0
5, 211080, Note_on_c, 11, 52, 80
5, 211176, Note_on_c, 11, 52, 0
5, 211200, Note_on_c, 11, 50, 80
5, 211296, Note_on_c, 11, 50, 0
5, 211320, Note_on_c, 11, 45, 80
5, 211416, Note_on_c, 11, 45, 0
5, 211440, Note_on_c, 11, 47, 80
5, 211536, Note_on_c, 11, 47, 0
5, 211560, Note_on_c, 11, 49, 80
5, 211656, Note_on_c, 11, 49, 0
5, 211680, Note_on_c, 11, 50, 80
5, 211776, Note_on_c, 11, 50, 0
5, 211800, Note_on_c, 11, 45, 80
5, 211896, Note_on_c, 11, 45, 0
5, 211920, Note_on_c, 11, 50, 80
5, 212016, Note_on_c, 11, 50, 0
5, 212040, Note_on_c, 11, 52, 80
5, 212136, Note_on_c, 11, 52, 0
5, 212160, Note_on_c, 11, 53, 80
5, 212256, Note_on_c, 11, 53, 0
5, 212280, Note_on_c, 11, 50, 80
5, 212376, Note_on_c, 11, 50, 0
5, 212400, Note_on_c, 11, 52, 80
5, 212496, Note_on_c, 11, 52, 0
5, 212520, Note_on_c, 11, 53, 80
5, 212616, Note_on_c, 11, 53, 0
5, 212640, Note_on_c, 11, 55, 80
5, 212736, Note_on_c, 11, 55, 0
5, 212760, Note_on_c, 11, 50, 80
5, 212856, Note_on_c, 11, 50, 0
5, 212880, Note_on_c, 11, 55, 80
5, 212976, Note_on_c, 11, 55, 0
5, 213000, Note_on_c, 11, 57, 80
5, 213096, Note_on_c, 11, 57, 0
5, 213120, Note_on_c, 11, 58, 80
5, 213312, Note_on_c, 11, 58, 0
5, 213360, Note_on_c, 11, 43, 80
5, 213552, Note_on_c, 11, 43, 0
5, 213840, Note_on_c, 11, 57, 80
5, 213936, Note_on_c, 11, 57, 0
5, 213960, Note_on_c, 11, 55, 80
5, 214056, Note_on_c, 11, 55, 0
5, 214080, Note_on_c, 11, 55, 80
5, 214272, Note_on_c, 11, 55, 0
5, 214320, Note_on_c, 11, 57, 80
5, 214416, Note_on_c, 11, 57, 0
5, 214440, Note_on_c, 11, 55, 80
5, 214536, Note_on_c, 11, 55, 0
5, 214560, Note_on_c, 11, 55, 80
5, 214752, Note_on_c, 11, 55, 0
5, 214800, Note_on_c, 11, 57, 80
5, 214896, Note_on_c, 11, 57, 0
5, 214920, Note_on_c, 11, 55, 80
5, 215016, Note_on_c, 11, 55, 0
5, 215040, Note_on_c, 11, 55, 80
5, 215232, Note_on_c, 11, 55, 0
5, 215280, Note_on_c, 11, 64, 80
5, 215472, Note_on_c, 11, 64, 0
5, 215760, Note_on_c, 11, 64, 80
5, 215856, Note_on_c, 11, 64, 0
5, 215880, Note_on_c, 11, 62, 80
5, 215976, Note_on_c, 11, 62, 0
5, 216000, Note_on_c, 11, 60, 80
5, 216192, Note_on_c, 11, 60, 0
5, 216240, Note_on_c, 11, 60, 80
5, 216336, Note_on_c, 11, 60, 0
5, 216360, Note_on_c, 11, 58, 80
5, 216456, Note_on_c, 11, 58, 0
5, 216480, Note_on_c, 11, 57, 80
5, 216672, Note_on_c, 11, 57, 0
5, 216720, Note_on_c, 11, 57, 80
5, 216816, Note_on_c, 11, 57, 0
5, 216840, Note_on_c, 11, 55, 80
5, 216936, Note_on_c, 11, 55, 0
5, 216960, Note_on_c, 11, 53, 80
5, 217056, Note_on_c, 11, 53, 0
5, 217080, Note_on_c, 11, 55, 80
5, 217176, Note_on_c, 11, 55, 0
5, 217200, Note_on_c, 11, 57, 80
5, 217296, Note_on_c, 11, 57, 0
5, 217320, Note_on_c, 11, 55, 80
5, 217416, Note_on_c, 11, 55, 0
5, 217440, Note_on_c, 11, 53, 80
5, 217536, Note_on_c, 11, 53, 0
5, 217560, Note_on_c, 11, 55, 80
5, 217656, Note_on_c, 11, 55, 0
5, 217680, Note_on_c, 11, 51, 80
5, 217776, Note_on_c, 11, 51, 0
5, 217800, Note_on_c, 11, 53, 80
5, 217896, Note_on_c, 11, 53, 0
5, 217920, Note_on_c, 11, 50, 80
5, 218016, Note_on_c, 11, 50, 0
5, 218040, Note_on_c, 11, 53, 80
5, 218136, Note_on_c, 11, 53, 0
5, 218160, Note_on_c, 11, 58, 80
5, 218256, Note_on_c, 11, 58, 0
5, 218280, Note_on_c, 11, 50, 80
5, 218376, Note_on_c, 11, 50, 0
5, 218400, Note_on_c, 11, 48, 80
5, 218496, Note_on_c, 11, 48, 0
5, 218520, Note_on_c, 11, 51, 80
5, 218616, Note_on_c, 11, 51, 0
5, 218640, Note_on_c, 11, 57, 80
5, 218736, Note_on_c, 11, 57, 0
5, 218760, Note_on_c, 11, 48, 80
5, 218856, Note_on_c, 11, 48, 0
5, 218880, Note_on_c, 11, 46, 80
5, 218976, Note_on_c, 11, 46, 0
5, 219000, Note_on_c, 11, 41, 80
5, 219096, Note_on_c, 11, 41, 0
5, 219120, Note_on_c, 11, 43, 80
5, 219216, Note_on_c, 11, 43, 0
5, 219240, Note_on_c, 11, 45, 80
5, 219336, Note_on_c, 11, 45, 0
5, 219360, Note_on_c, 11, 46, 80
5, 219456, Note_on_c, 11, 46, 0
5, 219480, Note_on_c, 11, 45, 80
5, 219576, Note_on_c, 11, 45, 0
5, 219600, Note_on_c, 11, 46, 80
5, 219696, Note_on_c, 11, 46, 0
5, 219720, Note_on_c, 11, 48, 80
5, 219816, Note_on_c, 11, 48, 0
5, 219840, Note_on_c, 11, 50, 80
5, 219936, Note_on_c, 11, 50, 0
5, 219960, Note_on_c, 11, 46, 80
5, 220056, Note_on_c, 11, 46, 0
5, 220080, Note_on_c, 11, 48, 80
5, 220176, Note_on_c, 11, 48, 0
5, 220200, Note_on_c, 11, 50, 80
5, 220296, Note_on_c, 11, 50, 0
5, 220320, Note_on_c, 11, 51, 80
5, 220416, Note_on_c, 11, 51, 0
5, 220440, Note_on_c, 11, 50, 80
5, 220536, Note_on_c, 11, 50, 0
5, 220560, Note_on_c, 11, 51, 80
5, 220656, Note_on_c, 11, 51, 0
5, 220680, Note_on_c, 11, 53, 80
5, 220776, Note_on_c, 11, 53, 0
5, 220800, Note_on_c, 11, 55, 80
5, 220896, Note_on_c, 11, 55, 0
5, 220920, Note_on_c, 11, 51, 80
5, 221016, Note_on_c, 11, 51, 0
5, 221040, Note_on_c, 11, 53, 80
5, 221136, Note_on_c, 11, 53, 0
5, 221160, Note_on_c, 11, 55, 80
5, 221256, Note_on_c, 11, 55, 0
5, 221280, Note_on_c, 11, 57, 80
5, 221376, Note_on_c, 11, 57, 0
5, 221400, Note_on_c, 11, 55, 80
5, 221496, Note_on_c, 11, 55, 0
5, 221520, Note_on_c, 11, 57, 80
5, 221616, Note_on_c, 11, 57, 0
5, 221640, Note_on_c, 11, 58, 80
5, 221736, Note_on_c, 11, 58, 0
5, 221760, Note_on_c, 11, 60, 80
5, 221856, Note_on_c, 11, 60, 0
5, 221880, Note_on_c, 11, 57, 80
5, 221976, Note_on_c, 11, 57, 0
5, 222000, Note_on_c, 11, 58, 80
5, 222096, Note_on_c, 11, 58, 0
5, 222120, Note_on_c, 11, 60, 80
5, 222216, Note_on_c, 11, 60, 0
5, 222240, Note_on_c, 11, 62, 80
5, 222336, Note_on_c, 11, 62, 0
5, 222360, Note_on_c, 11, 61, 80
5, 222456, Note_on_c, 11, 61, 0
5, 222480, Note_on_c, 11, 62, 80
5, 222576, Note_on_c, 11, 62, 0
5, 222600, Note_on_c, 11, 64, 80
5, 222696, Note_on_c, 11, 64, 0
5, 222720, Note_on_c, 11, 66, 80
5, 222816, Note_on_c, 11, 66, 0
5, 222840, Note_on_c, 11, 62, 80
5, 222936, Note_on_c, 11, 62, 0
5, 222960, Note_on_c, 11, 64, 80
5, 223056, Note_on_c, 11, 64, 0
5, 223080, Note_on_c, 11, 66, 80
5, 223176, Note_on_c, 11, 66, 0
5, 223200, Note_on_c, 11, 67, 80
5, 223296, Note_on_c, 11, 67, 0
5, 223320, Note_on_c, 11, 63, 80
5, 223416, Note_on_c, 11, 63, 0
5, 223440, Note_on_c, 11, 62, 80
5, 223536, Note_on_c, 11, 62, 0
5, 223560, Note_on_c, 11, 60, 80
5, 223656, Note_on_c, 11, 60, 0
5, 223680, Note_on_c, 11, 58, 80
5, 223776, Note_on_c, 11, 58, 0
5, 223800, Note_on_c, 11, 60, 80
5, 223896, Note_on_c, 11, 60, 0
5, 223920, Note_on_c, 11, 58, 80
5, 224016, Note_on_c, 11, 58, 0
5, 224040, Note_on_c, 11, 57, 80
5, 224136, Note_on_c, 11, 57, 0
5, 224160, Note_on_c, 11, 55, 80
5, 224256, Note_on_c, 11, 55, 0
5, 224280, Note_on_c, 11, 53, 80
5, 224376, Note_on_c, 11, 53, 0
5, 224400, Note_on_c, 11, 55, 80
5, 224496, Note_on_c, 11, 55, 0
5, 224520, Note_on_c, 11, 56, 80
5, 224616, Note_on_c, 11, 56, 0
5, 224640, Note_on_c, 11, 57, 80
5, 224736, Note_on_c, 11, 57, 0
5, 224760, Note_on_c, 11, 57, 80
5, 224856, Note_on_c, 11, 57, 0
5, 224880, Note_on_c, 11, 57, 80
5, 224976, Note_on_c, 11, 57, 0
5, 225000, Note_on_c, 11, 57, 80
5, 225096, Note_on_c, 11, 57, 0
5, 225120, Note_on_c, 11, 57, 80
5, 225216, Note_on_c, 11, 57, 0
5, 225240, Note_on_c, 11, 57, 80
5, 225336, Note_on_c, 11, 57, 0
5, 225360, Note_on_c, 11, 57, 80
5, 225456, Note_on_c, 11, 57, 0
5, 225480, Note_on_c, 11, 57, 80
5, 225576, Note_on_c, 11, 57, 0
5, 225600, Note_on_c, 11, 57, 80
5, 225696, Note_on_c, 11, 57, 0
5, 225720, Note_on_c, 11, 57, 80
5, 225816, Note_on_c, 11, 57, 0
5, 225840, Note_on_c, 11, 57, 80
5, 225936, Note_on_c, 11, 57, 0
5, 225960, Note_on_c, 11, 57, 80
5, 226056, Note_on_c, 11, 57, 0
5, 226080, Note_on_c, 11, 57, 80
5, 226176, Note_on_c, 11, 57, 0
5, 226200, Note_on_c, 11, 57, 80
5, 226296, Note_on_c, 11, 57, 0
5, 226320, Note_on_c, 11, 57, 80
5, 226416, Note_on_c, 11, 57, 0
5, 226440, Note_on_c, 11, 57, 80
5, 226536, Note_on_c, 11, 57, 0
5, 226560, Note_on_c, 11, 57, 80
5, 226656, Note_on_c, 11, 57, 0
5, 226680, Note_on_c, 11, 57, 80
5, 226776, Note_on_c, 11, 57, 0
5, 226800, Note_on_c, 11, 57, 80
5, 226896, Note_on_c, 11, 57, 0
5, 226920, Note_on_c, 11, 57, 80
5, 227016, Note_on_c, 11, 57, 0
5, 227040, Note_on_c, 11, 57, 80
5, 227136, Note_on_c, 11, 57, 0
5, 227160, Note_on_c, 11, 57, 80
5, 227256, Note_on_c, 11, 57, 0
5, 227280, Note_on_c, 11, 57, 80
5, 227376, Note_on_c, 11, 57, 0
5, 227400, Note_on_c, 11, 57, 80
5, 227496, Note_on_c, 11, 57, 0
5, 227520, Note_on_c, 11, 57, 80
5, 227616, Note_on_c, 11, 57, 0
5, 227640, Note_on_c, 11, 57, 80
5, 227736, Note_on_c, 11, 57, 0
5, 227760, Note_on_c, 11, 57, 80
5, 227856, Note_on_c, 11, 57, 0
5, 227880, Note_on_c, 11, 57, 80
5, 227976, Note_on_c, 11, 57, 0
5, 228000, Note_on_c, 11, 57, 80
5, 228096, Note_on_c, 11, 57, 0
5, 228120, Note_on_c, 11, 57, 80
5, 228216, Note_on_c, 11, 57, 0
5, 228240, Note_on_c, 11, 57, 80
5, 228336, Note_on_c, 11, 57, 0
5, 228360, Note_on_c, 11, 57, 80
5, 228456, Note_on_c, 11, 57, 0
5, 228480, Note_on_c, 11, 57, 80
5, 228960, Note_on_c, 11, 57, 0
5, 230400, Note_on_c, 11, 65, 64
5, 233280, Note_on_c, 11, 65, 0
5, 233280, Note_on_c, 11, 67, 64
5, 236880, Note_on_c, 11, 67, 0
5, 238320, Note_on_c, 11, 65, 64
5, 238440, Note_on_c, 11, 65, 0
5, 238440, Note_on_c, 11, 66, 64
5, 238548, Note_on_c, 11, 66, 0
5, 238560, Note_on_c, 11, 66, 64
5, 238776, Note_on_c, 11, 66, 0
5, 240240, Note_on_c, 11, 67, 64
5, 240360, Note_on_c, 11, 67, 0
5, 240360, Note_on_c, 11, 66, 64
5, 240468, Note_on_c, 11, 66, 0
5, 240480, Note_on_c, 11, 66, 64
5, 240696, Note_on_c, 11, 66, 0
5, 242160, Note_on_c, 11, 63, 64
5, 242280, Note_on_c, 11, 63, 0
5, 242280, Note_on_c, 11, 62, 64
5, 242388, Note_on_c, 11, 62, 0
5, 242400, Note_on_c, 11, 62, 64
5, 242616, Note_on_c, 11, 62, 0
5, 242880, Note_on_c, 11, 60, 64
5, 242880, Note_on_c, 11, 63, 64
5, 243120, Note_on_c, 11, 63, 0
5, 243120, Note_on_c, 11, 60, 0
5, 243120, Note_on_c, 11, 57, 64
5, 243120, Note_on_c, 11, 60, 64
5, 243360, Note_on_c, 11, 60, 0
5, 243360, Note_on_c, 11, 57, 0
5, 243360, Note_on_c, 11, 54, 64
5, 243360, Note_on_c, 11, 57, 64
5, 243600, Note_on_c, 11, 57, 0
5, 243600, Note_on_c, 11, 54, 0
5, 243840, Note_on_c, 11, 58, 64
5, 243840, Note_on_c, 11, 62, 64
5, 244080, Note_on_c, 11, 62, 0
5, 244080, Note_on_c, 11, 58, 0
5, 244080, Note_on_c, 11, 55, 64
5, 244080, Note_on_c, 11, 58, 64
5, 244320, Note_on_c, 11, 58, 0
5, 244320, Note_on_c, 11, 55, 0
5, 244320, Note_on_c, 11, 50, 64
5, 244320, Note_on_c, 11, 55, 64
5, 244560, Note_on_c, 11, 55, 0
5, 244560, Note_on_c, 11, 50, 0
5, 244800, Note_on_c, 11, 52, 64
5, 244800, Note_on_c, 11, 55, 64
5, 245040, Note_on_c, 11, 55, 0
5, 245040, Note_on_c, 11, 52, 0
5, 245040, Note_on_c, 11, 55, 64
5, 245040, Note_on_c, 11, 58, 64
5, 245280, Note_on_c, 11, 58, 0
5, 245280, Note_on_c, 11, 55, 0
5, 245280, Note_on_c, 11, 58, 64
5, 245280, Note_on_c, 11, 64, 64
5, 245520, Note_on_c, 11, 64, 0
5, 245520, Note_on_c, 11, 58, 0
5, 245760, Note_on_c, 11, 54, 64
5, 245760, Note_on_c, 11, 57, 64
5, 246000, Note_on_c, 11, 57, 0
5, 246000, Note_on_c, 11, 54, 0
5, 246000, Note_on_c, 11, 57, 64
5, 246000, Note_on_c, 11, 62, 64
5, 246240, Note_on_c, 11, 62, 0
5, 246240, Note_on_c, 11, 57, 0
5, 246240, Note_on_c, 11, 62, 64
5, 246240, Note_on_c, 11, 66, 64
5, 246480, Note_on_c, 11, 66, 0
5, 246480, Note_on_c, 11, 62, 0
5, 246720, Note_on_c, 11, 57, 64
5, 246720, Note_on_c, 11, 60, 64
5, 246960, Note_on_c, 11, 60, 0
5, 246960, Note_on_c, 11, 57, 0
5, 246960, Note_on_c, 11, 54, 64
5, 246960, Note_on_c, 11, 57, 64
5, 247200, Note_on_c, 11, 57, 0
5, 247200, Note_on_c, 11, 54, 0
5, 247200, Note_on_c, 11, 50, 64
5, 247200, Note_on_c, 11, 54, 64
5, 247440, Note_on_c, 11, 54, 0
5, 247440, Note_on_c, 11, 50, 0
5, 247680, Note_on_c, 11, 58, 64
5, 247680, Note_on_c, 11, 62, 64
5, 247920, Note_on_c, 11, 62, 0
5, 247920, Note_on_c, 11, 58, 0
5, 247920, Note_on_c, 11, 55, 64
5, 247920, Note_on_c, 11, 58, 64
5, 248160, Note_on_c, 11, 58, 0
5, 248160, Note_on_c, 11, 55, 0
5, 248160, Note_on_c, 11, 50, 64
5, 248160, Note_on_c, 11, 55, 64
5, 248400, Note_on_c, 11, 55, 0
5, 248400, Note_on_c, 11, 50, 0
5, 249600, Note_on_c, 11, 50, 64
5, 249600, Note_on_c, 11, 62, 64
5, 250560, Note_on_c, 11, 62, 0
5, 250560, Note_on_c, 11, 50, 0
5, 250560, Note_on_c, 11, 50, 64
5, 250560, Note_on_c, 11, 62, 64
5, 251520, Note_on_c, 11, 62, 0
5, 251520, Note_on_c, 11, 50, 0
5, 251520, Note_on_c, 11, 50, 64
5, 251520, Note_on_c, 11, 62, 64
5, 252480, Note_on_c, 11, 62, 0
5, 252480, Note_on_c, 11, 50, 0
5, 252480, Note_on_c, 11, 50, 64
5, 252480, Note_on_c, 11, 62, 64
5, 253920, Note_on_c, 11, 62, 0
5, 253920, Note_on_c, 11, 50, 0
5, 253920, Note_on_c, 11, 67, 51
5, 253920, Note_on_c, 11, 58, 51
5, 254400, Note_on_c, 11, 58, 0
5, 254400, Note_on_c, 11, 57, 64
5, 254880, Note_on_c, 11, 67, 0
5, 254880, Note_on_c, 11, 66, 64
5, 255360, Note_on_c, 11, 66, 0
5, 255360, Note_on_c, 11, 57, 0
5, 255360, Note_on_c, 11, 55, 64
5, 255360, Note_on_c, 11, 67, 64
5, 255720, Note_on_c, 11, 67, 0
5, 255720, Note_on_c, 11, 55, 0
5, 257280, Note_on_c, 11, 63, 64
5, 259200, Note_on_c, 11, 63, 0
5, 259200, Note_on_c, 11, 62, 64
5, 259680, Note_on_c, 11, 62, 0
5, 259680, Note_on_c, 11, 60, 64
5, 260160, Note_on_c, 11, 60, 0
5, 260160, Note_on_c, 11, 57, 64
5, 260640, Note_on_c, 11, 57, 0
5, 260640, Note_on_c, 11, 54, 64
5, 261120, Note_on_c, 11, 54, 0
5, 261120, Note_on_c, 11, 55, 64
5, 261360, Note_on_c, 11, 55, 0
5, 266160, Note_on_c, 11, 54, 56
5, 266400, Note_on_c, 11, 54, 0
5, 266400, Note_on_c, 11, 55, 56
5, 266640, Note_on_c, 11, 55, 0
5, 266640, Note_on_c, 11, 57, 56
5, 266880, Note_on_c, 11, 57, 0
5, 266880, Note_on_c, 11, 58, 56
5, 267120, Note_on_c, 11, 58, 0
5, 267120, Note_on_c, 11, 60, 56
5, 267240, Note_on_c, 11, 60, 0
5, 267240, Note_on_c, 11, 58, 56
5, 267360, Note_on_c, 11, 58, 0
5, 267360, Note_on_c, 11, 57, 56
5, 267600, Note_on_c, 11, 57, 0
5, 267600, Note_on_c, 11, 55, 56
5, 267840, Note_on_c, 11, 55, 0
5, 267840, Note_on_c, 11, 54, 56
5, 268032, Note_on_c, 11, 54, 0
5, 268320, Note_on_c, 11, 64, 80
5, 268320, Note_on_c, 11, 58, 80
5, 268800, Note_on_c, 11, 58, 0
5, 268800, Note_on_c, 11, 64, 0
5, 268800, Note_on_c, 11, 66, 80
5, 268800, Note_on_c, 11, 57, 80
5, 269040, Note_on_c, 11, 57, 0
5, 269040, Note_on_c, 11, 66, 0
5, 269280, Note_on_c, 11, 58, 80
5, 269280, Note_on_c, 11, 64, 80
5, 269760, Note_on_c, 11, 64, 0
5, 269760, Note_on_c, 11, 58, 0
5, 269760, Note_on_c, 11, 57, 80
5, 269760, Note_on_c, 11, 66, 80
5, 270000, Note_on_c, 11, 66, 0
5, 270000, Note_on_c, 11, 57, 0
5, 270240, Note_on_c, 11, 64, 80
5, 270240, Note_on_c, 11, 58, 80
5, 270720, Note_on_c, 11, 58, 0
5, 270720, Note_on_c, 11, 64, 0
5, 270720, Note_on_c, 11, 57, 75
5, 270720, Note_on_c, 11, 66, 75
5, 270864, Note_on_c, 11, 66, 0
5, 270864, Note_on_c, 11, 57, 0
5, 270960, Note_on_c, 11, 58, 68
5, 270960, Note_on_c, 11, 64, 68
5, 271104, Note_on_c, 11, 64, 0
5, 271104, Note_on_c, 11, 58, 0
5, 271200, Note_on_c, 11, 66, 60
5, 271200, Note_on_c, 11, 57, 60
5, 271344, Note_on_c, 11, 57, 0
5, 271344, Note_on_c, 11, 66, 0
5, 271440, Note_on_c, 11, 64, 53
5, 271440, Note_on_c, 11, 58, 53
5, 271584, Note_on_c, 11, 58, 0
5, 271584, Note_on_c, 11, 64, 0
5, 271680, Note_on_c, 11, 57, 56
5, 271680, Note_on_c, 11, 66, 56
5, 272160, Note_on_c, 11, 66, 0
5, 272160, Note_on_c, 11, 60, 56
5, 272640, Note_on_c, 11, 60, 0
5, 272640, Note_on_c, 11, 57, 0
5, 272640, Note_on_c, 11, 55, 64
5, 272640, Note_on_c, 11, 58, 64
5, 273120, Note_on_c, 11, 58, 0
5, 273120, Note_on_c, 11, 55, 0
5, 273120, Note_on_c, 11, 54, 64
5, 273120, Note_on_c, 11, 57, 64
5, 273600, Note_on_c, 11, 57, 0
5, 273600, Note_on_c, 11, 54, 0
5, 273600, Note_on_c, 11, 55, 64
5, 273600, Note_on_c, 11, 58, 64
5, 273960, Note_on_c, 11, 58, 0
5, 273960, Note_on_c, 11, 55, 0
5, 275520, Note_on_c, 11, 62, 64
5, 276480, Note_on_c, 11, 62, 0
5, 276480, Note_on_c, 11, 63, 64
5, 277440, Note_on_c, 11, 63, 0
5, 277440, Note_on_c, 11, 65, 64
5, 277920, Note_on_c, 11, 65, 0
5, 277920, Note_on_c, 11, 62, 64
5, 278400, Note_on_c, 11, 62, 0
5, 278400, Note_on_c, 11, 58, 64
5, 278880, Note_on_c, 11, 58, 0
5, 278880, Note_on_c, 11, 62, 64
5, 279360, Note_on_c, 11, 62, 0
5, 279360, Note_on_c, 11, 67, 80
5, 279360, Note_on_c, 11, 51, 80
5, 279456, Note_on_c, 11, 51, 0
5, 279480, Note_on_c, 11, 55, 80
5, 279552, Note_on_c, 11, 67, 0
5, 279576, Note_on_c, 11, 55, 0
5, 279600, Note_on_c, 11, 58, 80
5, 279696, Note_on_c, 11, 58, 0
5, 279720, Note_on_c, 11, 63, 80
5, 279816, Note_on_c, 11, 63, 0
5, 279840, Note_on_c, 11, 67, 80
5, 279936, Note_on_c, 11, 67, 0
5, 279960, Note_on_c, 11, 65, 80
5, 280056, Note_on_c, 11, 65, 0
5, 280080, Note_on_c, 11, 67, 80
5, 280176, Note_on_c, 11, 67, 0
5, 280200, Note_on_c, 11, 63, 80
5, 280296, Note_on_c, 11, 63, 0
5, 280320, Note_on_c, 11, 62, 80
5, 280416, Note_on_c, 11, 62, 0
5, 280440, Note_on_c, 11, 63, 80
5, 280536, Note_on_c, 11, 63, 0
5, 280560, Note_on_c, 11, 65, 80
5, 280656, Note_on_c, 11, 65, 0
5, 280680, Note_on_c, 11, 63, 80
5, 280776, Note_on_c, 11, 63, 0
5, 280800, Note_on_c, 11, 62, 80
5, 280896, Note_on_c, 11, 62, 0
5, 280920, Note_on_c, 11, 60, 80
5, 281016, Note_on_c, 11, 60, 0
5, 281040, Note_on_c, 11, 62, 80
5, 281136, Note_on_c, 11, 62, 0
5, 281160, Note_on_c, 11, 58, 80
5, 281256, Note_on_c, 11, 58, 0
5, 281280, Note_on_c, 11, 60, 80
5, 281376, Note_on_c, 11, 60, 0
5, 281400, Note_on_c, 11, 63, 80
5, 281496, Note_on_c, 11, 63, 0
5, 281520, Note_on_c, 11, 60, 80
5, 281616, Note_on_c, 11, 60, 0
5, 281640, Note_on_c, 11, 63, 80
5, 281736, Note_on_c, 11, 63, 0
5, 281760, Note_on_c, 11, 60, 80
5, 281856, Note_on_c, 11, 60, 0
5, 281880, Note_on_c, 11, 63, 80
5, 281976, Note_on_c, 11, 63, 0
5, 282000, Note_on_c, 11, 60, 80
5, 282096, Note_on_c, 11, 60, 0
5, 282120, Note_on_c, 11, 63, 80
5, 282216, Note_on_c, 11, 63, 0
5, 282240, Note_on_c, 11, 58, 80
5, 282336, Note_on_c, 11, 58, 0
5, 282360, Note_on_c, 11, 63, 80
5, 282456, Note_on_c, 11, 63, 0
5, 282480, Note_on_c, 11, 58, 80
5, 282576, Note_on_c, 11, 58, 0
5, 282600, Note_on_c, 11, 63, 80
5, 282696, Note_on_c, 11, 63, 0
5, 282720, Note_on_c, 11, 58, 80
5, 282816, Note_on_c, 11, 58, 0
5, 282840, Note_on_c, 11, 63, 80
5, 282936, Note_on_c, 11, 63, 0
5, 282960, Note_on_c, 11, 58, 80
5, 283056, Note_on_c, 11, 58, 0
5, 283080, Note_on_c, 11, 63, 80
5, 283176, Note_on_c, 11, 63, 0
5, 283200, Note_on_c, 11, 56, 80
5, 283296, Note_on_c, 11, 56, 0
5, 283320, Note_on_c, 11, 60, 80
5, 283416, Note_on_c, 11, 60, 0
5, 283440, Note_on_c, 11, 56, 80
5, 283536, Note_on_c, 11, 56, 0
5, 283560, Note_on_c, 11, 60, 80
5, 283656, Note_on_c, 11, 60, 0
5, 283680, Note_on_c, 11, 56, 80
5, 283776, Note_on_c, 11, 56, 0
5, 283800, Note_on_c, 11, 60, 80
5, 283896, Note_on_c, 11, 60, 0
5, 283920, Note_on_c, 11, 56, 80
5, 284016, Note_on_c, 11, 56, 0
5, 284040, Note_on_c, 11, 60, 80
5, 284136, Note_on_c, 11, 60, 0
5, 284160, Note_on_c, 11, 55, 80
5, 284256, Note_on_c, 11, 55, 0
5, 284280, Note_on_c, 11, 58, 80
5, 284376, Note_on_c, 11, 58, 0
5, 284400, Note_on_c, 11, 55, 80
5, 284496, Note_on_c, 11, 55, 0
5, 284520, Note_on_c, 11, 58, 80
5, 284616, Note_on_c, 11, 58, 0
5, 284640, Note_on_c, 11, 53, 80
5, 284736, Note_on_c, 11, 53, 0
5, 284760, Note_on_c, 11, 56, 80
5, 284856, Note_on_c, 11, 56, 0
5, 284880, Note_on_c, 11, 53, 80
5, 284976, Note_on_c, 11, 53, 0
5, 285000, Note_on_c, 11, 56, 80
5, 285096, Note_on_c, 11, 56, 0
5, 285120, Note_on_c, 11, 52, 80
5, 285216, Note_on_c, 11, 52, 0
5, 285240, Note_on_c, 11, 55, 80
5, 285336, Note_on_c, 11, 55, 0
5, 285360, Note_on_c, 11, 52, 80
5, 285456, Note_on_c, 11, 52, 0
5, 285480, Note_on_c, 11, 55, 80
5, 285576, Note_on_c, 11, 55, 0
5, 285600, Note_on_c, 11, 48, 80
5, 285696, Note_on_c, 11, 48, 0
5, 285720, Note_on_c, 11, 52, 80
5, 285816, Note_on_c, 11, 52, 0
5, 285840, Note_on_c, 11, 48, 80
5, 285936, Note_on_c, 11, 48, 0
5, 285960, Note_on_c, 11, 52, 80
5, 286056, Note_on_c, 11, 52, 0
5, 286080, Note_on_c, 11, 53, 80
5, 286848, Note_on_c, 11, 53, 0
5, 287040, Note_on_c, 11, 60, 80
5, 287880, Note_on_c, 11, 60, 0
5, 287880, Note_on_c, 11, 60, 80
5, 287976, Note_on_c, 11, 60, 0
5, 288000, Note_on_c, 11, 58, 80
5, 288192, Note_on_c, 11, 58, 0
5, 288240, Note_on_c, 11, 61, 80
5, 288432, Note_on_c, 11, 61, 0
5, 288480, Note_on_c, 11, 67, 80
5, 288672, Note_on_c, 11, 67, 0
5, 288960, Note_on_c, 11, 56, 80
5, 289152, Note_on_c, 11, 56, 0
5, 289200, Note_on_c, 11, 60, 80
5, 289392, Note_on_c, 11, 60, 0
5, 289440, Note_on_c, 11, 65, 80
5, 289632, Note_on_c, 11, 65, 0
5, 289800, Note_on_c, 11, 56, 80
5, 289896, Note_on_c, 11, 56, 0
5, 289920, Note_on_c, 11, 55, 80
5, 290112, Note_on_c, 11, 55, 0
5, 290160, Note_on_c, 11, 58, 80
5, 290352, Note_on_c, 11, 58, 0
5, 290400, Note_on_c, 11, 64, 80
5, 290592, Note_on_c, 11, 64, 0
5, 290760, Note_on_c, 11, 55, 80
5, 290856, Note_on_c, 11, 55, 0
5, 290880, Note_on_c, 11, 53, 80
5, 291072, Note_on_c, 11, 53, 0
5, 291120, Note_on_c, 11, 56, 80
5, 291312, Note_on_c, 11, 56, 0
5, 291360, Note_on_c, 11, 60, 80
5, 291552, Note_on_c, 11, 60, 0
5, 291720, Note_on_c, 11, 41, 80
5, 291816, Note_on_c, 11, 41, 0
5, 291840, Note_on_c, 11, 46, 80
5, 292032, Note_on_c, 11, 46, 0
5, 292080, Note_on_c, 11, 50, 80
5, 292272, Note_on_c, 11, 50, 0
5, 292320, Note_on_c, 11, 53, 80
5, 292512, Note_on_c, 11, 53, 0
5, 292680, Note_on_c, 11, 46, 80
5, 292776, Note_on_c, 11, 46, 0
5, 292800, Note_on_c, 11, 51, 80
5, 292992, Note_on_c, 11, 51, 0
5, 293040, Note_on_c, 11, 55, 80
5, 293232, Note_on_c, 11, 55, 0
5, 293280, Note_on_c, 11, 58, 80
5, 293472, Note_on_c, 11, 58, 0
5, 293640, Note_on_c, 11, 39, 80
5, 293736, Note_on_c, 11, 39, 0
5, 293760, Note_on_c, 11, 44, 80
5, 293952, Note_on_c, 11, 44, 0
5, 294000, Note_on_c, 11, 48, 80
5, 294192, Note_on_c, 11, 48, 0
5, 294240, Note_on_c, 11, 51, 80
5, 294432, Note_on_c, 11, 51, 0
5, 294600, Note_on_c, 11, 44, 80
5, 294696, Note_on_c, 11, 44, 0
5, 294720, Note_on_c, 11, 50, 80
5, 294912, Note_on_c, 11, 50, 0
5, 294960, Note_on_c, 11, 53, 80
5, 295152, Note_on_c, 11, 53, 0
5, 295200, Note_on_c, 11, 57, 80
5, 295392, Note_on_c, 11, 57, 0
5, 295560, Note_on_c, 11, 50, 80
5, 295656, Note_on_c, 11, 50, 0
5, 295680, Note_on_c, 11, 55, 80
5, 295872, Note_on_c, 11, 55, 0
5, 295920, Note_on_c, 11, 59, 80
5, 296112, Note_on_c, 11, 59, 0
5, 296160, Note_on_c, 11, 62, 80
5, 296352, Note_on_c, 11, 62, 0
5, 296520, Note_on_c, 11, 43, 80
5, 296616, Note_on_c, 11, 43, 0
5, 296640, Note_on_c, 11, 48, 80
5, 296832, Note_on_c, 11, 48, 0
5, 296880, Note_on_c, 11, 51, 80
5, 297072, Note_on_c, 11, 51, 0
5, 297120, Note_on_c, 11, 57, 80
5, 297312, Note_on_c, 11, 57, 0
5, 297480, Note_on_c, 11, 48, 80
5, 297576, Note_on_c, 11, 48, 0
5, 297600, Note_on_c, 11, 50, 80
5, 297792, Note_on_c, 11, 50, 0
5, 297840, Note_on_c, 11, 54, 80
5, 298032, Note_on_c, 11, 54, 0
5, 298080, Note_on_c, 11, 57, 80
5, 298272, Note_on_c, 11, 57, 0
5, 298560, Note_on_c, 11, 55, 80
5, 298656, Note_on_c, 11, 55, 0
5, 298680, Note_on_c, 11, 58, 80
5, 298776, Note_on_c, 11, 58, 0
5, 298800, Note_on_c, 11, 55, 80
5, 298896, Note_on_c, 11, 55, 0
5, 298920, Note_on_c, 11, 58, 80
5, 299016, Note_on_c, 11, 58, 0
5, 299040, Note_on_c, 11, 55, 80
5, 299136, Note_on_c, 11, 55, 0
5, 299160, Note_on_c, 11, 58, 80
5, 299256, Note_on_c, 11, 58, 0
5, 299280, Note_on_c, 11, 55, 80
5, 299376, Note_on_c, 11, 55, 0
5, 299400, Note_on_c, 11, 58, 80
5, 299496, Note_on_c, 11, 58, 0
5, 299520, Note_on_c, 11, 53, 80
5, 299616, Note_on_c, 11, 53, 0
5, 299640, Note_on_c, 11, 57, 80
5, 299736, Note_on_c, 11, 57, 0
5, 299760, Note_on_c, 11, 53, 80
5, 299856, Note_on_c, 11, 53, 0
5, 299880, Note_on_c, 11, 57, 80
5, 299976, Note_on_c, 11, 57, 0
5, 300000, Note_on_c, 11, 53, 80
5, 300096, Note_on_c, 11, 53, 0
5, 300120, Note_on_c, 11, 57, 80
5, 300216, Note_on_c, 11, 57, 0
5, 300240, Note_on_c, 11, 53, 80
5, 300336, Note_on_c, 11, 53, 0
5, 300360, Note_on_c, 11, 57, 80
5, 300456, Note_on_c, 11, 57, 0
5, 300480, Note_on_c, 11, 51, 80
5, 300576, Note_on_c, 11, 51, 0
5, 300600, Note_on_c, 11, 55, 80
5, 300696, Note_on_c, 11, 55, 0
5, 300720, Note_on_c, 11, 51, 80
5, 300816, Note_on_c, 11, 51, 0
5, 300840, Note_on_c, 11, 55, 80
5, 300936, Note_on_c, 11, 55, 0
5, 300960, Note_on_c, 11, 51, 80
5, 301056, Note_on_c, 11, 51, 0
5, 301080, Note_on_c, 11, 55, 80
5, 301176, Note_on_c, 11, 55, 0
5, 301200, Note_on_c, 11, 51, 80
5, 301296, Note_on_c, 11, 51, 0
5, 301320, Note_on_c, 11, 55, 80
5, 301416, Note_on_c, 11, 55, 0
5, 301440, Note_on_c, 11, 50, 80
5, 301536, Note_on_c, 11, 50, 0
5, 301560, Note_on_c, 11, 55, 80
5, 301656, Note_on_c, 11, 55, 0
5, 301680, Note_on_c, 11, 50, 80
5, 301776, Note_on_c, 11, 50, 0
5, 301800, Note_on_c, 11, 55, 80
5, 301896, Note_on_c, 11, 55, 0
5, 301920, Note_on_c, 11, 50, 80
5, 302016, Note_on_c, 11, 50, 0
5, 302040, Note_on_c, 11, 55, 80
5, 302136, Note_on_c, 11, 55, 0
5, 302160, Note_on_c, 11, 50, 80
5, 302256, Note_on_c, 11, 50, 0
5, 302280, Note_on_c, 11, 55, 80
5, 302376, Note_on_c, 11, 55, 0
5, 302400, Note_on_c, 11, 48, 80
5, 302496, Note_on_c, 11, 48, 0
5, 302520, Note_on_c, 11, 51, 80
5, 302616, Note_on_c, 11, 51, 0
5, 302640, Note_on_c, 11, 48, 80
5, 302736, Note_on_c, 11, 48, 0
5, 302760, Note_on_c, 11, 51, 80
5, 302856, Note_on_c, 11, 51, 0
5, 302880, Note_on_c, 11, 48, 80
5, 302976, Note_on_c, 11, 48, 0
5, 303000, Note_on_c, 11, 51, 80
5, 303096, Note_on_c, 11, 51, 0
5, 303120, Note_on_c, 11, 48, 80
5, 303216, Note_on_c, 11, 48, 0
5, 303240, Note_on_c, 11, 51, 80
5, 303336, Note_on_c, 11, 51, 0
5, 303360, Note_on_c, 11, 46, 80
5, 303456, Note_on_c, 11, 46, 0
5, 303480, Note_on_c, 11, 50, 80
5, 303576, Note_on_c, 11, 50, 0
5, 303600, Note_on_c, 11, 46, 80
5, 303696, Note_on_c, 11, 46, 0
5, 303720, Note_on_c, 11, 50, 80
5, 303816, Note_on_c, 11, 50, 0
5, 303840, Note_on_c, 11, 46, 80
5, 303936, Note_on_c, 11, 46, 0
5, 303960, Note_on_c, 11, 50, 80
5, 304056, Note_on_c, 11, 50, 0
5, 304080, Note_on_c, 11, 46, 80
5, 304176, Note_on_c, 11, 46, 0
5, 304200, Note_on_c, 11, 50, 80
5, 304296, Note_on_c, 11, 50, 0
5, 304320, Note_on_c, 11, 52, 80
5, 304320, Note_on_c, 11, 61, 80
5, 305160, Note_on_c, 11, 61, 0
5, 305160, Note_on_c, 11, 52, 0
5, 305160, Note_on_c, 11, 62, 80
5, 305256, Note_on_c, 11, 62, 0
5, 305280, Note_on_c, 11, 52, 80
5, 305280, Note_on_c, 11, 61, 80
5, 306120, Note_on_c, 11, 61, 0
5, 306120, Note_on_c, 11, 52, 0
5, 306120, Note_on_c, 11, 62, 80
5, 306216, Note_on_c, 11, 62, 0
5, 306240, Note_on_c, 11, 52, 80
5, 306240, Note_on_c, 11, 61, 80
5, 307080, Note_on_c, 11, 61, 0
5, 307080, Note_on_c, 11, 52, 0
5, 307080, Note_on_c, 11, 62, 80
5, 307176, Note_on_c, 11, 62, 0
5, 307200, Note_on_c, 11, 52, 80
5, 307200, Note_on_c, 11, 61, 80
5, 307968, Note_on_c, 11, 61, 0
5, 307968, Note_on_c, 11, 52, 0
5, 308160, Note_on_c, 11, 50, 80
5, 308160, Note_on_c, 11, 62, 80
5, 308256, Note_on_c, 11, 62, 0
5, 308256, Note_on_c, 11, 50, 0
5, 308280, Note_on_c, 11, 50, 80
5, 308376, Note_on_c, 11, 50, 0
5, 308400, Note_on_c, 11, 50, 80
5, 308496, Note_on_c, 11, 50, 0
5, 308520, Note_on_c, 11, 50, 80
5, 308616, Note_on_c, 11, 50, 0
5, 308640, Note_on_c, 11, 50, 80
5, 308736, Note_on_c, 11, 50, 0
5, 308760, Note_on_c, 11, 50, 80
5, 308856, Note_on_c, 11, 50, 0
5, 308880, Note_on_c, 11, 50, 80
5, 308976, Note_on_c, 11, 50, 0
5, 309000, Note_on_c, 11, 50, 80
5, 309096, Note_on_c, 11, 50, 0
5, 309120, Note_on_c, 11, 50, 80
5, 309216, Note_on_c, 11, 50, 0
5, 309240, Note_on_c, 11, 50, 80
5, 309336, Note_on_c, 11, 50, 0
5, 309360, Note_on_c, 11, 50, 80
5, 309456, Note_on_c, 11, 50, 0
5, 309480, Note_on_c, 11, 50, 80
5, 309576, Note_on_c, 11, 50, 0
5, 309600, Note_on_c, 11, 50, 80
5, 309696, Note_on_c, 11, 50, 0
5, 309720, Note_on_c, 11, 50, 80
5, 309816, Note_on_c, 11, 50, 0
5, 309840, Note_on_c, 11, 50, 80
5, 309936, Note_on_c, 11, 50, 0
5, 309960, Note_on_c, 11, 50, 80
5, 310056, Note_on_c, 11, 50, 0
5, 310080, Note_on_c, 11, 50, 80
5, 310176, Note_on_c, 11, 50, 0
5, 310200, Note_on_c, 11, 50, 80
5, 310296, Note_on_c, 11, 50, 0
5, 310320, Note_on_c, 11, 50, 80
5, 310416, Note_on_c, 11, 50, 0
5, 310440, Note_on_c, 11, 50, 80
5, 310536, Note_on_c, 11, 50, 0
5, 310560, Note_on_c, 11, 50, 80
5, 310656, Note_on_c, 11, 50, 0
5, 310680, Note_on_c, 11, 50, 80
5, 310776, Note_on_c, 11, 50, 0
5, 310800, Note_on_c, 11, 50, 80
5, 310896, Note_on_c, 11, 50, 0
5, 310920, Note_on_c, 11, 50, 80
5, 311016, Note_on_c, 11, 50, 0
5, 311040, Note_on_c, 11, 50, 80
5, 311136, Note_on_c, 11, 50, 0
5, 311160, Note_on_c, 11, 50, 80
5, 311256, Note_on_c, 11, 50, 0
5, 311280, Note_on_c, 11, 50, 80
5, 311376, Note_on_c, 11, 50, 0
5, 311400, Note_on_c, 11, 50, 80
5, 311496, Note_on_c, 11, 50, 0
5, 311520, Note_on_c, 11, 50, 80
5, 311616, Note_on_c, 11, 50, 0
5, 311640, Note_on_c, 11, 50, 80
5, 311736, Note_on_c, 11, 50, 0
5, 311760, Note_on_c, 11, 50, 80
5, 311856, Note_on_c, 11, 50, 0
5, 311880, Note_on_c, 11, 50, 80
5, 311976, Note_on_c, 11, 50, 0
5, 312000, Note_on_c, 11, 50, 80
5, 312360, Note_on_c, 11, 50, 0
5, 312480, Note_on_c, 11, 50, 64
5, 312840, Note_on_c, 11, 50, 0
5, 314880, Note_on_c, 11, 60, 64
5, 315600, Note_on_c, 11, 60, 0
5, 315600, Note_on_c, 11, 62, 64
5, 315660, Note_on_c, 11, 62, 0
5, 315660, Note_on_c, 11, 60, 64
5, 315720, Note_on_c, 11, 60, 0
5, 315720, Note_on_c, 11, 58, 64
5, 315780, Note_on_c, 11, 58, 0
5, 315780, Note_on_c, 11, 57, 64
5, 315840, Note_on_c, 11, 57, 0
5, 315840, Note_on_c, 11, 55, 64
5, 316200, Note_on_c, 11, 55, 0
5, 320640, Note_on_c, 11, 55, 64
5, 320760, Note_on_c, 11, 55, 0
5, 320760, Note_on_c, 11, 54, 64
5, 320880, Note_on_c, 11, 54, 0
5, 320880, Note_on_c, 11, 57, 64
5, 321000, Note_on_c, 11, 57, 0
5, 321000, Note_on_c, 11, 55, 64
5, 321120, Note_on_c, 11, 55, 0
5, 321120, Note_on_c, 11, 58, 64
5, 321240, Note_on_c, 11, 58, 0
5, 321240, Note_on_c, 11, 57, 64
5, 321360, Note_on_c, 11, 57, 0
5, 321360, Note_on_c, 11, 60, 64
5, 321480, Note_on_c, 11, 60, 0
5, 321480, Note_on_c, 11, 58, 64
5, 321600, Note_on_c, 11, 58, 0
5, 321600, Note_on_c, 11, 58, 64
5, 321600, Note_on_c, 11, 62, 64
5, 322320, Note_on_c, 11, 62, 0
5, 322320, Note_on_c, 11, 58, 0
5, 322320, Note_on_c, 11, 57, 64
5, 322320, Note_on_c, 11, 64, 64
5, 322560, Note_on_c, 11, 64, 0
5, 322560, Note_on_c, 11, 57, 0
5, 322560, Note_on_c, 11, 62, 64
5, 322560, Note_on_c, 11, 66, 64
5, 322800, Note_on_c, 11, 66, 0
5, 322800, Note_on_c, 11, 62, 0
5, 323760, Note_on_c, 11, 53, 64
5, 323760, Note_on_c, 11, 65, 64
5, 324000, Note_on_c, 11, 65, 0
5, 324000, Note_on_c, 11, 53, 0
5, 324000, Note_on_c, 11, 52, 64
5, 324000, Note_on_c, 11, 64, 64
5, 324240, Note_on_c, 11, 64, 0
5, 324240, Note_on_c, 11, 52, 0
5, 324240, Note_on_c, 11, 51, 64
5, 324240, Note_on_c, 11, 63, 64
5, 324480, Note_on_c, 11, 63, 0
5, 324480, Note_on_c, 11, 51, 0
5, 324480, Note_on_c, 11, 50, 64
5, 324480, Note_on_c, 11, 62, 64
5, 324960, Note_on_c, 11, 62, 0
5, 324960, Note_on_c, 11, 50, 0
5, 325440, Note_on_c, 11, 63, 64
5, 326160, Note_on_c, 11, 63, 0
5, 326160, Note_on_c, 11, 62, 64
5, 326400, Note_on_c, 11, 62, 0
5, 326400, Note_on_c, 11, 61, 64
5, 326640, Note_on_c, 11, 61, 0
5, 326640, Note_on_c, 11, 60, 64
5, 326880, Note_on_c, 11, 60, 0
5, 326880, Note_on_c, 11, 59, 64
5, 327120, Note_on_c, 11, 59, 0
5, 327120, Note_on_c, 11, 58, 64
5, 327360, Note_on_c, 11, 58, 0
5, 327600, Note_on_c, 11, 53, 64
5, 327600, Note_on_c, 11, 56, 64
5, 328080, Note_on_c, 11, 56, 0
5, 328080, Note_on_c, 11, 53, 0
5, 328080, Note_on_c, 11, 51, 64
5, 328080, Note_on_c, 11, 55, 64
5, 328320, Note_on_c, 11, 55, 0
5, 328320, Note_on_c, 11, 51, 0
5, 328560, Note_on_c, 11, 56, 64
5, 328560, Note_on_c, 11, 53, 64
5, 329040, Note_on_c, 11, 53, 0
5, 329040, Note_on_c, 11, 56, 0
5, 329040, Note_on_c, 11, 55, 64
5, 329040, Note_on_c, 11, 51, 64
5, 329280, Note_on_c, 11, 51, 0
5, 329280, Note_on_c, 11, 55, 0
5, 329520, Note_on_c, 11, 56, 64
5, 329520, Note_on_c, 11, 53, 64
5, 330000, Note_on_c, 11, 53, 0
5, 330000, Note_on_c, 11, 56, 0
5, 330000, Note_on_c, 11, 55, 64
5, 330000, Note_on_c, 11, 51, 64
5, 330240, Note_on_c, 11, 51, 0
5, 330240, Note_on_c, 11, 55, 0
5, 330480, Note_on_c, 11, 56, 64
5, 330480, Note_on_c, 11, 53, 64
5, 330960, Note_on_c, 11, 53, 0
5, 330960, Note_on_c, 11, 56, 0
5, 330960, Note_on_c, 11, 55, 64
5, 330960, Note_on_c, 11, 51, 64
5, 331200, Note_on_c, 11, 51, 0
5, 331200, Note_on_c, 11, 55, 0
5, 331200, Note_on_c, 11, 53, 64
5, 331200, Note_on_c, 11, 56, 64
5, 332160, Note_on_c, 11, 56, 0
5, 332160, Note_on_c, 11, 53, 0
5, 332160, Note_on_c, 11, 56, 64
5, 332160, Note_on_c, 11, 62, 64
5, 333120, Note_on_c, 11, 62, 0
5, 333120, Note_on_c, 11, 56, 0
5, 333120, Note_on_c, 11, 57, 80
5, 333120, Note_on_c, 11, 63, 80
5, 333600, Note_on_c, 11, 63, 0
5, 333600, Note_on_c, 11, 57, 0
5, 333600, Note_on_c, 11, 51, 80
5, 333600, Note_on_c, 11, 60, 80
5, 333840, Note_on_c, 11, 60, 0
5, 333840, Note_on_c, 11, 57, 80
5, 334080, Note_on_c, 11, 57, 0
5, 334080, Note_on_c, 11, 51, 0
5, 334080, Note_on_c, 11, 49, 80
5, 334080, Note_on_c, 11, 58, 80
5, 334320, Note_on_c, 11, 58, 0
5, 334320, Note_on_c, 11, 61, 80
5, 334560, Note_on_c, 11, 61, 0
5, 334560, Note_on_c, 11, 49, 0
5, 334560, Note_on_c, 11, 65, 80
5, 334560, Note_on_c, 11, 58, 80
5, 335040, Note_on_c, 11, 58, 0
5, 335040, Note_on_c, 11, 59, 80
5, 335424, Note_on_c, 11, 65, 0
5, 335520, Note_on_c, 11, 59, 0
5, 335520, Note_on_c, 11, 53, 80
5, 335520, Note_on_c, 11, 62, 80
5, 335712, Note_on_c, 11, 62, 0
5, 335760, Note_on_c, 11, 59, 80
5, 335952, Note_on_c, 11, 59, 0
5, 336000, Note_on_c, 11, 53, 0
5, 336000, Note_on_c, 11, 51, 80
5, 336000, Note_on_c, 11, 60, 80
5, 336240, Note_on_c, 11, 60, 0
5, 336240, Note_on_c, 11, 63, 80
5, 336480, Note_on_c, 11, 63, 0
5, 336480, Note_on_c, 11, 51, 0
5, 336480, Note_on_c, 11, 67, 80
5, 336480, Note_on_c, 11, 60, 80
5, 336960, Note_on_c, 11, 60, 0
5, 336960, Note_on_c, 11, 61, 80
5, 337344, Note_on_c, 11, 67, 0
5, 337440, Note_on_c, 11, 61, 0
5, 337440, Note_on_c, 11, 55, 80
5, 337440, Note_on_c, 11, 64, 80
5, 337632, Note_on_c, 11, 64, 0
5, 337680, Note_on_c, 11, 61, 80
5, 337872, Note_on_c, 11, 61, 0
5, 337920, Note_on_c, 11, 55, 0
5, 337920, Note_on_c, 11, 62, 80
5, 338016, Note_on_c, 11, 62, 0
5, 338040, Note_on_c, 11, 62, 80
5, 338136, Note_on_c, 11, 62, 0
5, 338160, Note_on_c, 11, 62, 80
5, 338256, Note_on_c, 11, 62, 0
5, 338280, Note_on_c, 11, 62, 80
5, 338376, Note_on_c, 11, 62, 0
5, 338400, Note_on_c, 11, 62, 80
5, 338496, Note_on_c, 11, 62, 0
5, 338520, Note_on_c, 11, 62, 80
5, 338616, Note_on_c, 11, 62, 0
5, 338640, Note_on_c, 11, 62, 80
5, 338736, Note_on_c, 11, 62, 0
5, 338760, Note_on_c, 11, 62, 80
5, 338856, Note_on_c, 11, 62, 0
5, 338880, Note_on_c, 11, 50, 80
5, 338976, Note_on_c, 11, 50, 0
5, 339000, Note_on_c, 11, 50, 80
5, 339096, Note_on_c, 11, 50, 0
5, 339120, Note_on_c, 11, 50, 80
5, 339216, Note_on_c, 11, 50, 0
5, 339240, Note_on_c, 11, 50, 80
5, 339336, Note_on_c, 11, 50, 0
5, 339360, Note_on_c, 11, 50, 80
5, 339456, Note_on_c, 11, 50, 0
5, 339480, Note_on_c, 11, 50, 80
5, 339576, Note_on_c, 11, 50, 0
5, 339600, Note_on_c, 11, 50, 80
5, 339696, Note_on_c, 11, 50, 0
5, 339720, Note_on_c, 11, 50, 80
5, 339816, Note_on_c, 11, 50, 0
5, 339840, Note_on_c, 11, 55, 80
5, 340032, Note_on_c, 11, 55, 0
5, 340080, Note_on_c, 11, 46, 80
5, 340560, Note_on_c, 11, 46, 0
5, 340560, Note_on_c, 11, 48, 80
5, 340752, Note_on_c, 11, 48, 0
5, 340800, Note_on_c, 11, 49, 80
5, 340992, Note_on_c, 11, 49, 0
5, 341040, Note_on_c, 11, 50, 80
5, 341232, Note_on_c, 11, 50, 0
5, 341280, Note_on_c, 11, 51, 80
5, 341472, Note_on_c, 11, 51, 0
5, 341520, Note_on_c, 11, 52, 80
5, 341712, Note_on_c, 11, 52, 0
5, 341760, Note_on_c, 11, 53, 80
5, 341952, Note_on_c, 11, 53, 0
5, 342240, Note_on_c, 11, 51, 80
5, 342432, Note_on_c, 11, 51, 0
5, 342720, Note_on_c, 11, 54, 80
5, 342720, Note_on_c, 11, 57, 80
5, 342912, Note_on_c, 11, 57, 0
5, 342912, Note_on_c, 11, 54, 0
5, 343200, Note_on_c, 11, 58, 80
5, 343200, Note_on_c, 11, 55, 80
5, 343392, Note_on_c, 11, 55, 0
5, 343392, Note_on_c, 11, 58, 0
5, 343680, Note_on_c, 11, 63, 80
5, 344064, Note_on_c, 11, 63, 0
5, 344280, Note_on_c, 11, 62, 80
5, 344376, Note_on_c, 11, 62, 0
5, 344400, Note_on_c, 11, 60, 80
5, 344496, Note_on_c, 11, 60, 0
5, 344520, Note_on_c, 11, 58, 80
5, 344616, Note_on_c, 11, 58, 0
5, 344640, Note_on_c, 11, 57, 80
5, 344736, Note_on_c, 11, 57, 0
5, 344760, Note_on_c, 11, 55, 80
5, 344856, Note_on_c, 11, 55, 0
5, 344880, Note_on_c, 11, 54, 80
5, 344976, Note_on_c, 11, 54, 0
5, 345000, Note_on_c, 11, 51, 80
5, 345096, Note_on_c, 11, 51, 0
5, 345120, Note_on_c, 11, 50, 80
5, 345216, Note_on_c, 11, 50, 0
5, 345240, Note_on_c, 11, 48, 80
5, 345336, Note_on_c, 11, 48, 0
5, 345360, Note_on_c, 11, 46, 80
5, 345456, Note_on_c, 11, 46, 0
5, 345480, Note_on_c, 11, 45, 80
5, 345576, Note_on_c, 11, 45, 0
5, 345600, Note_on_c, 11, 43, 80
5, 345792, Note_on_c, 11, 43, 0
5, 347280, Note_on_c, 11, 63, 64
5, 347400, Note_on_c, 11, 63, 0
5, 347400, Note_on_c, 11, 62, 64
5, 347520, Note_on_c, 11, 62, 0
5, 347520, Note_on_c, 11, 62, 64
5, 347712, Note_on_c, 11, 62, 0
5, 347760, Note_on_c, 11, 63, 64
5, 347880, Note_on_c, 11, 63, 0
5, 347880, Note_on_c, 11, 62, 64
5, 348000, Note_on_c, 11, 62, 0
5, 348000, Note_on_c, 11, 62, 64
5, 348192, Note_on_c, 11, 62, 0
5, 349200, Note_on_c, 11, 51, 64
5, 349200, Note_on_c, 11, 63, 64
5, 349320, Note_on_c, 11, 63, 0
5, 349320, Note_on_c, 11, 51, 0
5, 349320, Note_on_c, 11, 50, 64
5, 349320, Note_on_c, 11, 62, 64
5, 349440, Note_on_c, 11, 62, 0
5, 349440, Note_on_c, 11, 50, 0
5, 349440, Note_on_c, 11, 50, 64
5, 349440, Note_on_c, 11, 62, 64
5, 349632, Note_on_c, 11, 62, 0
5, 349632, Note_on_c, 11, 50, 0
5, 349680, Note_on_c, 11, 51, 64
5, 349680, Note_on_c, 11, 63, 64
5, 349800, Note_on_c, 11, 63, 0
5, 349800, Note_on_c, 11, 51, 0
5, 349800, Note_on_c, 11, 50, 64
5, 349800, Note_on_c, 11, 62, 64
5, 349920, Note_on_c, 11, 62, 0
5, 349920, Note_on_c, 11, 50, 0
5, 349920, Note_on_c, 11, 50, 64
5, 349920, Note_on_c, 11, 62, 64
5, 350112, Note_on_c, 11, 62, 0
5, 350112, Note_on_c, 11, 50, 0
5, 350400, Note_on_c, 11, 55, 80
5, 350496, Note_on_c, 11, 55, 0
5, 350520, Note_on_c, 11, 55, 80
5, 350616, Note_on_c, 11, 55, 0
5, 350640, Note_on_c, 11, 55, 80
5, 350736, Note_on_c, 11, 55, 0
5, 350760, Note_on_c, 11, 55, 80
5, 350856, Note_on_c, 11, 55, 0
5, 350880, Note_on_c, 11, 55, 80
5, 350976, Note_on_c, 11, 55, 0
5, 351000, Note_on_c, 11, 55, 80
5, 351096, Note_on_c, 11, 55, 0
5, 351120, Note_on_c, 11, 55, 80
5, 351216, Note_on_c, 11, 55, 0
5, 351240, Note_on_c, 11, 55, 80
5, 351336, Note_on_c, 11, 55, 0
5, 351360, Note_on_c, 11, 60, 80
5, 351456, Note_on_c, 11, 60, 0
5, 351480, Note_on_c, 11, 60, 80
5, 351576, Note_on_c, 11, 60, 0
5, 351600, Note_on_c, 11, 60, 80
5, 351696, Note_on_c, 11, 60, 0
5, 351720, Note_on_c, 11, 60, 80
5, 351816, Note_on_c, 11, 60, 0
5, 351840, Note_on_c, 11, 60, 80
5, 351936, Note_on_c, 11, 60, 0
5, 351960, Note_on_c, 11, 60, 80
5, 352056, Note_on_c, 11, 60, 0
5, 352080, Note_on_c, 11, 60, 80
5, 352176, Note_on_c, 11, 60, 0
5, 352200, Note_on_c, 11, 60, 80
5, 352296, Note_on_c, 11, 60, 0
5, 352320, Note_on_c, 11, 62, 80
5, 352416, Note_on_c, 11, 62, 0
5, 352440, Note_on_c, 11, 62, 80
5, 352536, Note_on_c, 11, 62, 0
5, 352560, Note_on_c, 11, 62, 80
5, 352656, Note_on_c, 11, 62, 0
5, 352680, Note_on_c, 11, 62, 80
5, 352776, Note_on_c, 11, 62, 0
5, 352800, Note_on_c, 11, 50, 80
5, 352896, Note_on_c, 11, 50, 0
5, 352920, Note_on_c, 11, 50, 80
5, 353016, Note_on_c, 11, 50, 0
5, 353040, Note_on_c, 11, 50, 80
5, 353136, Note_on_c, 11, 50, 0
5, 353160, Note_on_c, 11, 50, 80
5, 353256, Note_on_c, 11, 50, 0
5, 353280, Note_on_c, 11, 55, 80
5, 353520, Note_on_c, 11, 55, 0
5, 354000, Note_on_c, 11, 63, 64
5, 354120, Note_on_c, 11, 63, 0
5, 354120, Note_on_c, 11, 62, 64
5, 354240, Note_on_c, 11, 62, 0
5, 354240, Note_on_c, 11, 62, 64
5, 354432, Note_on_c, 11, 62, 0
5, 354480, Note_on_c, 11, 63, 64
5, 354600, Note_on_c, 11, 63, 0
5, 354600, Note_on_c, 11, 62, 64
5, 354720, Note_on_c, 11, 62, 0
5, 354720, Note_on_c, 11, 62, 64
5, 354912, Note_on_c, 11, 62, 0
5, 355920, Note_on_c, 11, 63, 64
5, 355920, Note_on_c, 11, 51, 64
5, 356040, Note_on_c, 11, 51, 0
5, 356040, Note_on_c, 11, 63, 0
5, 356040, Note_on_c, 11, 62, 64
5, 356040, Note_on_c, 11, 50, 64
5, 356160, Note_on_c, 11, 50, 0
5, 356160, Note_on_c, 11, 62, 0
5, 356160, Note_on_c, 11, 62, 64
5, 356160, Note_on_c, 11, 50, 64
5, 356352, Note_on_c, 11, 50, 0
5, 356352, Note_on_c, 11, 62, 0
5, 356400, Note_on_c, 11, 63, 64
5, 356400, Note_on_c, 11, 51, 64
5, 356520, Note_on_c, 11, 51, 0
5, 356520, Note_on_c, 11, 63, 0
5, 356520, Note_on_c, 11, 62, 64
5, 356520, Note_on_c, 11, 50, 64
5, 356640, Note_on_c, 11, 50, 0
5, 356640, Note_on_c, 11, 62, 0
5, 356640, Note_on_c, 11, 62, 64
5, 356640, Note_on_c, 11, 50, 64
5, 356832, Note_on_c, 11, 50, 0
5, 356832, Note_on_c, 11, 62, 0
5, 358080, Note_on_c, 11, 55, 80
5, 358176, Note_on_c, 11, 55, 0
5, 358200, Note_on_c, 11, 55, 80
5, 358296, Note_on_c, 11, 55, 0
5, 358320, Note_on_c, 11, 55, 80
5, 358416, Note_on_c, 11, 55, 0
5, 358440, Note_on_c, 11, 55, 80
5, 358536, Note_on_c, 11, 55, 0
5, 358560, Note_on_c, 11, 55, 80
5, 358656, Note_on_c, 11, 55, 0
5, 358680, Note_on_c, 11, 55, 80
5, 358776, Note_on_c, 11, 55, 0
5, 358800, Note_on_c, 11, 55, 80
5, 358896, Note_on_c, 11, 55, 0
5, 358920, Note_on_c, 11, 55, 80
5, 359016, Note_on_c, 11, 55, 0
5, 359040, Note_on_c, 11, 60, 80
5, 359136, Note_on_c, 11, 60, 0
5, 359160, Note_on_c, 11, 60, 80
5, 359256, Note_on_c, 11, 60, 0
5, 359280, Note_on_c, 11, 60, 80
5, 359376, Note_on_c, 11, 60, 0
5, 359400, Note_on_c, 11, 60, 80
5, 359496, Note_on_c, 11, 60, 0
5, 359520, Note_on_c, 11, 60, 80
5, 359616, Note_on_c, 11, 60, 0
5, 359640, Note_on_c, 11, 60, 80
5, 359736, Note_on_c, 11, 60, 0
5, 359760, Note_on_c, 11, 60, 80
5, 359856, Note_on_c, 11, 60, 0
5, 359880, Note_on_c, 11, 60, 80
5, 359976, Note_on_c, 11, 60, 0
5, 360000, Note_on_c, 11, 62, 80
5, 360096, Note_on_c, 11, 62, 0
5, 360120, Note_on_c, 11, 62, 80
5, 360216, Note_on_c, 11, 62, 0
5, 360240, Note_on_c, 11, 62, 80
5, 360336, Note_on_c, 11, 62, 0
5, 360360, Note_on_c, 11, 62, 80
5, 360456, Note_on_c, 11, 62, 0
5, 360480, Note_on_c, 11, 50, 80
5, 360576, Note_on_c, 11, 50, 0
5, 360600, Note_on_c, 11, 50, 80
5, 360696, Note_on_c, 11, 50, 0
5, 360720, Note_on_c, 11, 50, 80
5, 360816, Note_on_c, 11, 50, 0
5, 360840, Note_on_c, 11, 50, 80
5, 360936, Note_on_c, 11, 50, 0
5, 360960, Note_on_c, 11, 55, 80
5, 361344, Note_on_c, 11, 55, 0
5, 361800, Note_on_c, 11, 62, 80
5, 361896, Note_on_c, 11, 62, 0
5, 361920, Note_on_c, 11, 60, 80
5, 362016, Note_on_c, 11, 60, 0
5, 362040, Note_on_c, 11, 58, 80
5, 362136, Note_on_c, 11, 58, 0
5, 362160, Note_on_c, 11, 57, 80
5, 362256, Note_on_c, 11, 57, 0
5, 362280, Note_on_c, 11, 55, 80
5, 362376, Note_on_c, 11, 55, 0
5, 362400, Note_on_c, 11, 54, 80
5, 362496, Note_on_c, 11, 54, 0
5, 362520, Note_on_c, 11, 51, 80
5, 362616, Note_on_c, 11, 51, 0
5, 362640, Note_on_c, 11, 50, 80
5, 362736, Note_on_c, 11, 50, 0
5, 362760, Note_on_c, 11, 48, 80
5, 362856, Note_on_c, 11, 48, 0
5, 362880, Note_on_c, 11, 46, 80
5, 363072, Note_on_c, 11, 46, 0
5, 363120, Note_on_c, 11, 46, 80
5, 363312, Note_on_c, 11, 46, 0
5, 363360, Note_on_c, 11, 48, 80
5, 363552, Note_on_c, 11, 48, 0
5, 363600, Note_on_c, 11, 50, 80
5, 363792, Note_on_c, 11, 50, 0
5, 363840, Note_on_c, 11, 55, 80
5, 363936, Note_on_c, 11, 55, 0
5, 363960, Note_on_c, 11, 50, 80
5, 364056, Note_on_c, 11, 50, 0
5, 364080, Note_on_c, 11, 58, 80
5, 364176, Note_on_c, 11, 58, 0
5, 364200, Note_on_c, 11, 57, 80
5, 364296, Note_on_c, 11, 57, 0
5, 364320, Note_on_c, 11, 55, 80
5, 364416, Note_on_c, 11, 55, 0
5, 364440, Note_on_c, 11, 53, 80
5, 364536, Note_on_c, 11, 53, 0
5, 364560, Note_on_c, 11, 51, 80
5, 364656, Note_on_c, 11, 51, 0
5, 364680, Note_on_c, 11, 50, 80
5, 364776, Note_on_c, 11, 50, 0
5, 364800, Note_on_c, 11, 49, 80
5, 364896, Note_on_c, 11, 49, 0
5, 364920, Note_on_c, 11, 52, 80
5, 365016, Note_on_c, 11, 52, 0
5, 365040, Note_on_c, 11, 57, 80
5, 365136, Note_on_c, 11, 57, 0
5, 365160, Note_on_c, 11, 55, 80
5, 365256, Note_on_c, 11, 55, 0
5, 365280, Note_on_c, 11, 54, 80
5, 365376, Note_on_c, 11, 54, 0
5, 365400, Note_on_c, 11, 51, 80
5, 365496, Note_on_c, 11, 51, 0
5, 365520, Note_on_c, 11, 50, 80
5, 365616, Note_on_c, 11, 50, 0
5, 365640, Note_on_c, 11, 48, 80
5, 365736, Note_on_c, 11, 48, 0
5, 365760, Note_on_c, 11, 46, 80
5, 365952, Note_on_c, 11, 46, 0
5, 366000, Note_on_c, 11, 55, 80
5, 366384, Note_on_c, 11, 55, 0
5, 366480, Note_on_c, 11, 56, 80
5, 366912, Note_on_c, 11, 56, 0
5, 366960, Note_on_c, 11, 57, 80
5, 367344, Note_on_c, 11, 57, 0
5, 367440, Note_on_c, 11, 58, 80
5, 367872, Note_on_c, 11, 58, 0
5, 367920, Note_on_c, 11, 59, 80
5, 368304, Note_on_c, 11, 59, 0
5, 368400, Note_on_c, 11, 60, 80
5, 368832, Note_on_c, 11, 60, 0
5, 368880, Note_on_c, 11, 61, 80
5, 369264, Note_on_c, 11, 61, 0
5, 369540, Note_on_c, 11, 50, 64
5, 369540, Note_on_c, 11, 62, 64
5, 369600, Note_on_c, 11, 62, 0
5, 369600, Note_on_c, 11, 50, 0
5, 369600, Note_on_c, 11, 50, 64
5, 369600, Note_on_c, 11, 62, 64
5, 371520, Note_on_c, 11, 50, 0
5, 371520, Note_on_c, 11, 55, 64
5, 371880, Note_on_c, 11, 55, 0
5, 371880, Note_on_c, 11, 62, 0
5, 376080, Note_on_c, 11, 63, 64
5, 376200, Note_on_c, 11, 63, 0
5, 376200, Note_on_c, 11, 62, 64
5, 376320, Note_on_c, 11, 62, 0
5, 376320, Note_on_c, 11, 62, 64
5, 376512, Note_on_c, 11, 62, 0
5, 376560, Note_on_c, 11, 63, 64
5, 376680, Note_on_c, 11, 63, 0
5, 376680, Note_on_c, 11, 62, 64
5, 376800, Note_on_c, 11, 62, 0
5, 376800, Note_on_c, 11, 62, 64
5, 376992, Note_on_c, 11, 62, 0
5, 377040, Note_on_c, 11, 63, 64
5, 377160, Note_on_c, 11, 63, 0
5, 377160, Note_on_c, 11, 62, 64
5, 377280, Note_on_c, 11, 62, 0
5, 377280, Note_on_c, 11, 50, 80
5, 377280, Note_on_c, 11, 62, 80
5, 377472, Note_on_c, 11, 62, 0
5, 377472, Note_on_c, 11, 50, 0
5, 377520, Note_on_c, 11, 55, 80
5, 377520, Note_on_c, 11, 58, 80
5, 377616, Note_on_c, 11, 58, 0
5, 377616, Note_on_c, 11, 55, 0
5, 377640, Note_on_c, 11, 55, 80
5, 377640, Note_on_c, 11, 58, 80
5, 377736, Note_on_c, 11, 58, 0
5, 377736, Note_on_c, 11, 55, 0
5, 377760, Note_on_c, 11, 57, 80
5, 377760, Note_on_c, 11, 60, 80
5, 377952, Note_on_c, 11, 60, 0
5, 377952, Note_on_c, 11, 57, 0
5, 378000, Note_on_c, 11, 57, 80
5, 378000, Note_on_c, 11, 60, 80
5, 378096, Note_on_c, 11, 60, 0
5, 378096, Note_on_c, 11, 57, 0
5, 378120, Note_on_c, 11, 57, 80
5, 378120, Note_on_c, 11, 60, 80
5, 378216, Note_on_c, 11, 60, 0
5, 378216, Note_on_c, 11, 57, 0
5, 378240, Note_on_c, 11, 58, 80
5, 378240, Note_on_c, 11, 55, 80
5, 378432, Note_on_c, 11, 55, 0
5, 378432, Note_on_c, 11, 58, 0
5, 378480, Note_on_c, 11, 58, 80
5, 378480, Note_on_c, 11, 55, 80
5, 378576, Note_on_c, 11, 55, 0
5, 378576, Note_on_c, 11, 58, 0
5, 378600, Note_on_c, 11, 58, 80
5, 378600, Note_on_c, 11, 55, 80
5, 378696, Note_on_c, 11, 55, 0
5, 378696, Note_on_c, 11, 58, 0
5, 378720, Note_on_c, 11, 60, 80
5, 378720, Note_on_c, 11, 57, 80
5, 378912, Note_on_c, 11, 57, 0
5, 378912, Note_on_c, 11, 60, 0
5, 378960, Note_on_c, 11, 60, 80
5, 378960, Note_on_c, 11, 57, 80
5, 379056, Note_on_c, 11, 57, 0
5, 379056, Note_on_c, 11, 60, 0
5, 379080, Note_on_c, 11, 60, 80
5, 379080, Note_on_c, 11, 57, 80
5, 379176, Note_on_c, 11, 57, 0
5, 379176, Note_on_c, 11, 60, 0
5, 379200, Note_on_c, 11, 58, 80
5, 379200, Note_on_c, 11, 55, 80
5, 379392, Note_on_c, 11, 55, 0
5, 379392, Note_on_c, 11, 58, 0
5, 379440, Note_on_c, 11, 58, 80
5, 379440, Note_on_c, 11, 55, 80
5, 379536, Note_on_c, 11, 55, 0
5, 379536, Note_on_c, 11, 58, 0
5, 379560, Note_on_c, 11, 58, 80
5, 379560, Note_on_c, 11, 55, 80
5, 379656, Note_on_c, 11, 55, 0
5, 379656, Note_on_c, 11, 58, 0
5, 379680, Note_on_c, 11, 60, 80
5, 379680, Note_on_c, 11, 57, 80
5, 379872, Note_on_c, 11, 57, 0
5, 379872, Note_on_c, 11, 60, 0
5, 379920, Note_on_c, 11, 60, 80
5, 379920, Note_on_c, 11, 57, 80
5, 380016, Note_on_c, 11, 57, 0
5, 380016, Note_on_c, 11, 60, 0
5, 380040, Note_on_c, 11, 60, 80
5, 380040, Note_on_c, 11, 57, 80
5, 380136, Note_on_c, 11, 57, 0
5, 380136, Note_on_c, 11, 60, 0
5, 380160, Note_on_c, 11, 55, 80
5, 380160, Note_on_c, 11, 58, 80
5, 380352, Note_on_c, 11, 58, 0
5, 380352, Note_on_c, 11, 55, 0
5, 380400, Note_on_c, 11, 57, 80
5, 380400, Note_on_c, 11, 66, 80
5, 380592, Note_on_c, 11, 66, 0
5, 380592, Note_on_c, 11, 57, 0
5, 380640, Note_on_c, 11, 58, 80
5, 380640, Note_on_c, 11, 67, 80
5, 380832, Note_on_c, 11, 67, 0
5, 380832, Note_on_c, 11, 58, 0
5, 380880, Note_on_c, 11, 57, 80
5, 380880, Note_on_c, 11, 66, 80
5, 381072, Note_on_c, 11, 66, 0
5, 381072, Note_on_c, 11, 57, 0
5, 381120, Note_on_c, 11, 67, 80
5, 381120, Note_on_c, 11, 58, 80
5, 381480, Note_on_c, 11, 58, 0
5, 381480, Note_on_c, 11, 67, 0
5, 382080, Note_on_c, 11, 55, 80
5, 382080, Note_on_c, 11, 62, 80
5, 382320, Note_on_c, 11, 62, 0
5, 382320, Note_on_c, 11, 55, 0
5, 382560, Note_on_c, 11, 55, 80
5, 382560, Note_on_c, 11, 62, 80
5, 382800, Note_on_c, 11, 62, 0
5, 382800, Note_on_c, 11, 55, 0
5, 383040, Note_on_c, 11, 43, 80
5, 383040, Note_on_c, 11, 62, 80
5, 383760, Note_on_c, 11, 62, 0
5, 383760, Note_on_c, 11, 43, 0
5, 383760, End_track
6, 0, Start_track
6, 0, MIDI_port, 0
6, 0, Title_t, "Corni in B."
6, 0, Program_c, 1, 60
6, 76, Control_c, 1, 10, 46
6, 690, Control_c, 1, 91, 127
6, 15840, Note_on_c, 1, 70, 80
6, 16320, Note_on_c, 1, 70, 0
6, 16320, Note_on_c, 1, 74, 80
6, 16560, Note_on_c, 1, 74, 0
6, 16800, Note_on_c, 1, 70, 80
6, 17280, Note_on_c, 1, 70, 0
6, 17280, Note_on_c, 1, 74, 80
6, 17520, Note_on_c, 1, 74, 0
6, 17760, Note_on_c, 1, 70, 80
6, 18240, Note_on_c, 1, 70, 0
6, 18240, Note_on_c, 1, 74, 75
6, 18384, Note_on_c, 1, 74, 0
6, 18480, Note_on_c, 1, 70, 68
6, 18624, Note_on_c, 1, 70, 0
6, 18720, Note_on_c, 1, 74, 60
6, 18864, Note_on_c, 1, 74, 0
6, 18960, Note_on_c, 1, 70, 53
6, 19104, Note_on_c, 1, 70, 0
6, 19200, Note_on_c, 1, 74, 53
6, 19584, Note_on_c, 1, 74, 0
6, 26880, Note_on_c, 1, 70, 80
6, 27840, Note_on_c, 1, 70, 0
6, 27840, Note_on_c, 1, 65, 80
6, 28800, Note_on_c, 1, 65, 0
6, 28800, Note_on_c, 1, 58, 80
6, 29280, Note_on_c, 1, 58, 0
6, 29280, Note_on_c, 1, 58, 80
6, 29640, Note_on_c, 1, 58, 0
6, 29640, Note_on_c, 1, 58, 80
6, 29760, Note_on_c, 1, 58, 0
6, 29760, Note_on_c, 1, 58, 80
6, 30720, Note_on_c, 1, 58, 0
6, 32640, Note_on_c, 1, 58, 80
6, 33600, Note_on_c, 1, 58, 0
6, 33600, Note_on_c, 1, 58, 80
6, 33984, Note_on_c, 1, 58, 0
6, 34080, Note_on_c, 1, 58, 80
6, 34464, Note_on_c, 1, 58, 0
6, 34560, Note_on_c, 1, 58, 80
6, 34944, Note_on_c, 1, 58, 0
6, 35040, Note_on_c, 1, 58, 80
6, 35424, Note_on_c, 1, 58, 0
6, 35520, Note_on_c, 1, 58, 80
6, 36480, Note_on_c, 1, 58, 0
6, 36480, Note_on_c, 1, 65, 80
6, 37440, Note_on_c, 1, 65, 0
6, 37440, Note_on_c, 1, 65, 80
6, 37920, Note_on_c, 1, 65, 0
6, 37920, Note_on_c, 1, 65, 80
6, 38400, Note_on_c, 1, 65, 0
6, 38400, Note_on_c, 1, 65, 80
6, 38880, Note_on_c, 1, 65, 0
6, 38880, Note_on_c, 1, 65, 80
6, 39120, Note_on_c, 1, 65, 0
6, 39120, Note_on_c, 1, 65, 80
6, 39360, Note_on_c, 1, 65, 0
6, 39360, Note_on_c, 1, 65, 80
6, 39600, Note_on_c, 1, 65, 0
6, 39600, Note_on_c, 1, 65, 80
6, 39840, Note_on_c, 1, 65, 0
6, 39840, Note_on_c, 1, 65, 80
6, 40080, Note_on_c, 1, 65, 0
6, 40080, Note_on_c, 1, 65, 80
6, 40320, Note_on_c, 1, 65, 0
6, 40320, Note_on_c, 1, 65, 80
6, 40560, Note_on_c, 1, 65, 0
6, 40800, Note_on_c, 1, 65, 56
6, 41040, Note_on_c, 1, 65, 0
6, 59520, Note_on_c, 1, 58, 80
6, 60480, Note_on_c, 1, 58, 0
6, 60480, Note_on_c, 1, 70, 80
6, 61440, Note_on_c, 1, 70, 0
6, 61440, Note_on_c, 1, 65, 80
6, 61920, Note_on_c, 1, 65, 0
6, 61920, Note_on_c, 1, 65, 80
6, 62280, Note_on_c, 1, 65, 0
6, 62280, Note_on_c, 1, 65, 80
6, 62400, Note_on_c, 1, 65, 0
6, 62400, Note_on_c, 1, 65, 80
6, 62880, Note_on_c, 1, 65, 0
6, 62880, Note_on_c, 1, 65, 80
6, 63360, Note_on_c, 1, 65, 0
6, 63360, Note_on_c, 1, 58, 80
6, 63600, Note_on_c, 1, 58, 0
6, 65280, Note_on_c, 1, 70, 80
6, 65520, Note_on_c, 1, 70, 0
6, 65760, Note_on_c, 1, 70, 80
6, 66000, Note_on_c, 1, 70, 0
6, 66240, Note_on_c, 1, 65, 80
6, 66480, Note_on_c, 1, 65, 0
6, 66720, Note_on_c, 1, 65, 80
6, 66960, Note_on_c, 1, 65, 0
6, 73920, Note_on_c, 1, 62, 80
6, 74880, Note_on_c, 1, 62, 0
6, 74880, Note_on_c, 1, 58, 80
6, 75360, Note_on_c, 1, 58, 0
6, 76320, Note_on_c, 1, 65, 80
6, 76560, Note_on_c, 1, 65, 0
6, 76800, Note_on_c, 1, 65, 80
6, 77040, Note_on_c, 1, 65, 0
6, 81600, Note_on_c, 1, 62, 80
6, 82560, Note_on_c, 1, 62, 0
6, 82560, Note_on_c, 1, 58, 80
6, 83040, Note_on_c, 1, 58, 0
6, 84000, Note_on_c, 1, 65, 80
6, 84240, Note_on_c, 1, 65, 0
6, 84480, Note_on_c, 1, 65, 80
6, 84672, Note_on_c, 1, 65, 0
6, 86640, Note_on_c, 1, 58, 80
6, 86784, Note_on_c, 1, 58, 0
6, 86880, Note_on_c, 1, 58, 80
6, 87024, Note_on_c, 1, 58, 0
6, 87120, Note_on_c, 1, 65, 80
6, 87264, Note_on_c, 1, 65, 0
6, 87360, Note_on_c, 1, 65, 80
6, 87552, Note_on_c, 1, 65, 0
6, 89520, Note_on_c, 1, 58, 80
6, 89712, Note_on_c, 1, 58, 0
6, 89760, Note_on_c, 1, 58, 80
6, 89952, Note_on_c, 1, 58, 0
6, 90000, Note_on_c, 1, 65, 80
6, 90192, Note_on_c, 1, 65, 0
6, 90240, Note_on_c, 1, 70, 80
6, 90432, Note_on_c, 1, 70, 0
6, 90480, Note_on_c, 1, 70, 80
6, 90672, Note_on_c, 1, 70, 0
6, 90720, Note_on_c, 1, 70, 80
6, 90912, Note_on_c, 1, 70, 0
6, 90960, Note_on_c, 1, 65, 80
6, 91152, Note_on_c, 1, 65, 0
6, 91200, Note_on_c, 1, 65, 80
6, 91392, Note_on_c, 1, 65, 0
6, 91440, Note_on_c, 1, 65, 80
6, 91536, Note_on_c, 1, 65, 0
6, 91560, Note_on_c, 1, 65, 80
6, 91656, Note_on_c, 1, 65, 0
6, 91680, Note_on_c, 1, 65, 80
6, 91872, Note_on_c, 1, 65, 0
6, 91920, Note_on_c, 1, 65, 80
6, 92016, Note_on_c, 1, 65, 0
6, 92040, Note_on_c, 1, 65, 80
6, 92136, Note_on_c, 1, 65, 0
6, 92160, Note_on_c, 1, 65, 80
6, 92352, Note_on_c, 1, 65, 0
6, 92400, Note_on_c, 1, 65, 80
6, 92496, Note_on_c, 1, 65, 0
6, 92520, Note_on_c, 1, 65, 80
6, 92616, Note_on_c, 1, 65, 0
6, 92640, Note_on_c, 1, 65, 80
6, 92832, Note_on_c, 1, 65, 0
6, 92880, Note_on_c, 1, 65, 80
6, 92976, Note_on_c, 1, 65, 0
6, 93000, Note_on_c, 1, 65, 80
6, 93096, Note_on_c, 1, 65, 0
6, 93120, Note_on_c, 1, 65, 80
6, 93312, Note_on_c, 1, 65, 0
6, 93360, Note_on_c, 1, 65, 80
6, 93456, Note_on_c, 1, 65, 0
6, 93480, Note_on_c, 1, 65, 80
6, 93576, Note_on_c, 1, 65, 0
6, 93600, Note_on_c, 1, 65, 80
6, 93792, Note_on_c, 1, 65, 0
6, 93840, Note_on_c, 1, 65, 80
6, 93936, Note_on_c, 1, 65, 0
6, 93960, Note_on_c, 1, 65, 80
6, 94056, Note_on_c, 1, 65, 0
6, 94080, Note_on_c, 1, 65, 80
6, 94272, Note_on_c, 1, 65, 0
6, 94320, Note_on_c, 1, 65, 80
6, 94512, Note_on_c, 1, 65, 0
6, 94560, Note_on_c, 1, 65, 80
6, 94752, Note_on_c, 1, 65, 0
6, 94800, Note_on_c, 1, 65, 80
6, 94992, Note_on_c, 1, 65, 0
6, 95040, Note_on_c, 1, 65, 80
6, 95328, Note_on_c, 1, 65, 0
6, 96000, Note_on_c, 1, 62, 80
6, 96288, Note_on_c, 1, 62, 0
6, 111840, Note_on_c, 1, 70, 80
6, 112320, Note_on_c, 1, 70, 0
6, 112320, Note_on_c, 1, 74, 80
6, 112560, Note_on_c, 1, 74, 0
6, 112800, Note_on_c, 1, 70, 80
6, 113280, Note_on_c, 1, 70, 0
6, 113280, Note_on_c, 1, 74, 80
6, 113520, Note_on_c, 1, 74, 0
6, 113760, Note_on_c, 1, 70, 80
6, 114240, Note_on_c, 1, 70, 0
6, 114240, Note_on_c, 1, 74, 75
6, 114384, Note_on_c, 1, 74, 0
6, 114480, Note_on_c, 1, 70, 68
6, 114624, Note_on_c, 1, 70, 0
6, 114720, Note_on_c, 1, 74, 60
6, 114864, Note_on_c, 1, 74, 0
6, 114960, Note_on_c, 1, 70, 53
6, 115104, Note_on_c, 1, 70, 0
6, 115200, Note_on_c, 1, 74, 53
6, 115584, Note_on_c, 1, 74, 0
6, 122880, Note_on_c, 1, 70, 80
6, 123840, Note_on_c, 1, 70, 0
6, 123840, Note_on_c, 1, 65, 80
6, 124800, Note_on_c, 1, 65, 0
6, 124800, Note_on_c, 1, 58, 80
6, 125280, Note_on_c, 1, 58, 0
6, 125280, Note_on_c, 1, 58, 80
6, 125640, Note_on_c, 1, 58, 0
6, 125640, Note_on_c, 1, 58, 80
6, 125760, Note_on_c, 1, 58, 0
6, 125760, Note_on_c, 1, 58, 80
6, 126720, Note_on_c, 1, 58, 0
6, 128640, Note_on_c, 1, 58, 80
6, 129600, Note_on_c, 1, 58, 0
6, 129600, Note_on_c, 1, 58, 80
6, 129984, Note_on_c, 1, 58, 0
6, 130080, Note_on_c, 1, 58, 80
6, 130464, Note_on_c, 1, 58, 0
6, 130560, Note_on_c, 1, 58, 80
6, 130944, Note_on_c, 1, 58, 0
6, 131040, Note_on_c, 1, 58, 80
6, 131424, Note_on_c, 1, 58, 0
6, 131520, Note_on_c, 1, 58, 80
6, 132480, Note_on_c, 1, 58, 0
6, 132480, Note_on_c, 1, 65, 80
6, 133440, Note_on_c, 1, 65, 0
6, 133440, Note_on_c, 1, 65, 80
6, 133920, Note_on_c, 1, 65, 0
6, 133920, Note_on_c, 1, 65, 80
6, 134400, Note_on_c, 1, 65, 0
6, 134400, Note_on_c, 1, 65, 80
6, 134880, Note_on_c, 1, 65, 0
6, 134880, Note_on_c, 1, 65, 80
6, 135120, Note_on_c, 1, 65, 0
6, 135120, Note_on_c, 1, 65, 80
6, 135360, Note_on_c, 1, 65, 0
6, 135360, Note_on_c, 1, 65, 80
6, 135600, Note_on_c, 1, 65, 0
6, 135600, Note_on_c, 1, 65, 80
6, 135840, Note_on_c, 1, 65, 0
6, 135840, Note_on_c, 1, 65, 80
6, 136080, Note_on_c, 1, 65, 0
6, 136080, Note_on_c, 1, 65, 80
6, 136320, Note_on_c, 1, 65, 0
6, 136320, Note_on_c, 1, 65, 80
6, 136560, Note_on_c, 1, 65, 0
6, 136800, Note_on_c, 1, 65, 56
6, 137040, Note_on_c, 1, 65, 0
6, 155520, Note_on_c, 1, 58, 80
6, 156480, Note_on_c, 1, 58, 0
6, 156480, Note_on_c, 1, 70, 80
6, 157440, Note_on_c, 1, 70, 0
6, 157440, Note_on_c, 1, 65, 80
6, 157920, Note_on_c, 1, 65, 0
6, 157920, Note_on_c, 1, 65, 80
6, 158280, Note_on_c, 1, 65, 0
6, 158280, Note_on_c, 1, 65, 80
6, 158400, Note_on_c, 1, 65, 0
6, 158400, Note_on_c, 1, 65, 80
6, 158880, Note_on_c, 1, 65, 0
6, 158880, Note_on_c, 1, 65, 80
6, 159360, Note_on_c, 1, 65, 0
6, 159360, Note_on_c, 1, 58, 80
6, 159600, Note_on_c, 1, 58, 0
6, 161280, Note_on_c, 1, 70, 80
6, 161520, Note_on_c, 1, 70, 0
6, 161760, Note_on_c, 1, 70, 80
6, 162000, Note_on_c, 1, 70, 0
6, 162240, Note_on_c, 1, 65, 80
6, 162480, Note_on_c, 1, 65, 0
6, 162720, Note_on_c, 1, 65, 80
6, 162960, Note_on_c, 1, 65, 0
6, 169920, Note_on_c, 1, 62, 80
6, 170880, Note_on_c, 1, 62, 0
6, 170880, Note_on_c, 1, 58, 80
6, 171360, Note_on_c, 1, 58, 0
6, 172320, Note_on_c, 1, 65, 80
6, 172560, Note_on_c, 1, 65, 0
6, 172800, Note_on_c, 1, 65, 80
6, 173040, Note_on_c, 1, 65, 0
6, 177600, Note_on_c, 1, 62, 80
6, 178560, Note_on_c, 1, 62, 0
6, 178560, Note_on_c, 1, 58, 80
6, 179040, Note_on_c, 1, 58, 0
6, 180000, Note_on_c, 1, 65, 80
6, 180240, Note_on_c, 1, 65, 0
6, 180480, Note_on_c, 1, 65, 80
6, 180672, Note_on_c, 1, 65, 0
6, 182640, Note_on_c, 1, 58, 80
6, 182784, Note_on_c, 1, 58, 0
6, 182880, Note_on_c, 1, 58, 80
6, 183024, Note_on_c, 1, 58, 0
6, 183120, Note_on_c, 1, 65, 80
6, 183264, Note_on_c, 1, 65, 0
6, 183360, Note_on_c, 1, 65, 80
6, 183552, Note_on_c, 1, 65, 0
6, 185520, Note_on_c, 1, 58, 80
6, 185712, Note_on_c, 1, 58, 0
6, 185760, Note_on_c, 1, 58, 80
6, 185952, Note_on_c, 1, 58, 0
6, 186000, Note_on_c, 1, 65, 80
6, 186192, Note_on_c, 1, 65, 0
6, 186240, Note_on_c, 1, 70, 80
6, 186432, Note_on_c, 1, 70, 0
6, 186480, Note_on_c, 1, 70, 80
6, 186672, Note_on_c, 1, 70, 0
6, 186720, Note_on_c, 1, 70, 80
6, 186912, Note_on_c, 1, 70, 0
6, 186960, Note_on_c, 1, 65, 80
6, 187152, Note_on_c, 1, 65, 0
6, 187200, Note_on_c, 1, 65, 80
6, 187392, Note_on_c, 1, 65, 0
6, 187440, Note_on_c, 1, 65, 80
6, 187536, Note_on_c, 1, 65, 0
6, 187560, Note_on_c, 1, 65, 80
6, 187656, Note_on_c, 1, 65, 0
6, 187680, Note_on_c, 1, 65, 80
6, 187872, Note_on_c, 1, 65, 0
6, 187920, Note_on_c, 1, 65, 80
6, 188016, Note_on_c, 1, 65, 0
6, 188040, Note_on_c, 1, 65, 80
6, 188136, Note_on_c, 1, 65, 0
6, 188160, Note_on_c, 1, 65, 80
6, 188352, Note_on_c, 1, 65, 0
6, 188400, Note_on_c, 1, 65, 80
6, 188496, Note_on_c, 1, 65, 0
6, 188520, Note_on_c, 1, 65, 80
6, 188616, Note_on_c, 1, 65, 0
6, 188640, Note_on_c, 1, 65, 80
6, 188832, Note_on_c, 1, 65, 0
6, 188880, Note_on_c, 1, 65, 80
6, 188976, Note_on_c, 1, 65, 0
6, 189000, Note_on_c, 1, 65, 80
6, 189096, Note_on_c, 1, 65, 0
6, 189120, Note_on_c, 1, 65, 80
6, 189312, Note_on_c, 1, 65, 0
6, 189360, Note_on_c, 1, 65, 80
6, 189456, Note_on_c, 1, 65, 0
6, 189480, Note_on_c, 1, 65, 80
6, 189576, Note_on_c, 1, 65, 0
6, 189600, Note_on_c, 1, 65, 80
6, 189792, Note_on_c, 1, 65, 0
6, 189840, Note_on_c, 1, 65, 80
6, 189936, Note_on_c, 1, 65, 0
6, 189960, Note_on_c, 1, 65, 80
6, 190056, Note_on_c, 1, 65, 0
6, 190080, Note_on_c, 1, 65, 80
6, 190272, Note_on_c, 1, 65, 0
6, 190320, Note_on_c, 1, 65, 80
6, 190512, Note_on_c, 1, 65, 0
6, 190560, Note_on_c, 1, 65, 80
6, 190752, Note_on_c, 1, 65, 0
6, 190800, Note_on_c, 1, 65, 80
6, 190992, Note_on_c, 1, 65, 0
6, 191040, Note_on_c, 1, 65, 80
6, 191328, Note_on_c, 1, 65, 0
6, 192000, Note_on_c, 1, 62, 80
6, 192288, Note_on_c, 1, 62, 0
6, 192960, Note_on_c, 1, 58, 80
6, 193152, Note_on_c, 1, 58, 0
6, 193440, Note_on_c, 1, 62, 80
6, 193632, Note_on_c, 1, 62, 0
6, 211200, Note_on_c, 1, 62, 80
6, 212160, Note_on_c, 1, 62, 0
6, 212160, Note_on_c, 1, 62, 80
6, 212544, Note_on_c, 1, 62, 0
6, 212640, Note_on_c, 1, 62, 80
6, 213024, Note_on_c, 1, 62, 0
6, 213120, Note_on_c, 1, 62, 80
6, 213312, Note_on_c, 1, 62, 0
6, 213360, Note_on_c, 1, 58, 80
6, 213552, Note_on_c, 1, 58, 0
6, 215040, Note_on_c, 1, 72, 80
6, 216000, Note_on_c, 1, 72, 0
6, 216000, Note_on_c, 1, 72, 80
6, 216384, Note_on_c, 1, 72, 0
6, 216480, Note_on_c, 1, 72, 80
6, 216864, Note_on_c, 1, 72, 0
6, 216960, Note_on_c, 1, 65, 72
6, 217920, Note_on_c, 1, 65, 0
6, 217920, Note_on_c, 1, 65, 72
6, 218400, Note_on_c, 1, 65, 0
6, 218400, Note_on_c, 1, 65, 72
6, 218760, Note_on_c, 1, 65, 0
6, 218760, Note_on_c, 1, 65, 72
6, 218880, Note_on_c, 1, 65, 0
6, 218880, Note_on_c, 1, 65, 80
6, 219840, Note_on_c, 1, 65, 0
6, 219840, Note_on_c, 1, 58, 80
6, 220080, Note_on_c, 1, 58, 0
6, 220320, Note_on_c, 1, 58, 80
6, 220560, Note_on_c, 1, 58, 0
6, 222240, Note_on_c, 1, 62, 80
6, 222480, Note_on_c, 1, 62, 0
6, 222720, Note_on_c, 1, 74, 80
6, 223440, Note_on_c, 1, 74, 0
6, 242880, Note_on_c, 1, 62, 64
6, 243840, Note_on_c, 1, 62, 0
6, 243840, Note_on_c, 1, 62, 64
6, 244800, Note_on_c, 1, 62, 0
6, 244800, Note_on_c, 1, 62, 64
6, 245760, Note_on_c, 1, 62, 0
6, 245760, Note_on_c, 1, 62, 64
6, 246720, Note_on_c, 1, 62, 0
6, 246720, Note_on_c, 1, 62, 64
6, 247680, Note_on_c, 1, 62, 0
6, 247680, Note_on_c, 1, 62, 64
6, 248256, Note_on_c, 1, 62, 0
6, 248400, Note_on_c, 1, 62, 64
6, 248592, Note_on_c, 1, 62, 0
6, 248640, Note_on_c, 1, 62, 64
6, 248832, Note_on_c, 1, 62, 0
6, 248880, Note_on_c, 1, 62, 64
6, 249072, Note_on_c, 1, 62, 0
6, 249120, Note_on_c, 1, 62, 64
6, 249312, Note_on_c, 1, 62, 0
6, 249360, Note_on_c, 1, 62, 64
6, 249552, Note_on_c, 1, 62, 0
6, 249600, Note_on_c, 1, 62, 80
6, 249792, Note_on_c, 1, 62, 0
6, 253440, Note_on_c, 1, 62, 51
6, 255600, Note_on_c, 1, 62, 0
6, 268320, Note_on_c, 1, 70, 80
6, 268800, Note_on_c, 1, 70, 0
6, 268800, Note_on_c, 1, 74, 80
6, 269040, Note_on_c, 1, 74, 0
6, 269280, Note_on_c, 1, 70, 80
6, 269760, Note_on_c, 1, 70, 0
6, 269760, Note_on_c, 1, 74, 80
6, 270000, Note_on_c, 1, 74, 0
6, 270240, Note_on_c, 1, 70, 80
6, 270720, Note_on_c, 1, 70, 0
6, 270720, Note_on_c, 1, 74, 75
6, 270864, Note_on_c, 1, 74, 0
6, 270960, Note_on_c, 1, 70, 68
6, 271104, Note_on_c, 1, 70, 0
6, 271200, Note_on_c, 1, 74, 60
6, 271344, Note_on_c, 1, 74, 0
6, 271440, Note_on_c, 1, 70, 53
6, 271584, Note_on_c, 1, 70, 0
6, 271680, Note_on_c, 1, 74, 53
6, 272064, Note_on_c, 1, 74, 0
6, 279360, Note_on_c, 1, 58, 80
6, 280128, Note_on_c, 1, 58, 0
6, 280320, Note_on_c, 1, 65, 80
6, 281088, Note_on_c, 1, 65, 0
6, 284160, Note_on_c, 1, 70, 80
6, 285120, Note_on_c, 1, 70, 0
6, 285120, Note_on_c, 1, 72, 80
6, 285312, Note_on_c, 1, 72, 0
6, 285600, Note_on_c, 1, 72, 80
6, 285792, Note_on_c, 1, 72, 0
6, 286080, Note_on_c, 1, 65, 80
6, 286848, Note_on_c, 1, 65, 0
6, 287040, Note_on_c, 1, 72, 80
6, 287808, Note_on_c, 1, 72, 0
6, 290880, Note_on_c, 1, 65, 80
6, 291264, Note_on_c, 1, 65, 0
6, 291360, Note_on_c, 1, 65, 80
6, 291552, Note_on_c, 1, 65, 0
6, 291600, Note_on_c, 1, 65, 80
6, 291792, Note_on_c, 1, 65, 0
6, 291840, Note_on_c, 1, 58, 80
6, 292224, Note_on_c, 1, 58, 0
6, 292320, Note_on_c, 1, 58, 80
6, 292512, Note_on_c, 1, 58, 0
6, 292560, Note_on_c, 1, 58, 80
6, 292752, Note_on_c, 1, 58, 0
6, 292800, Note_on_c, 1, 58, 80
6, 293184, Note_on_c, 1, 58, 0
6, 293280, Note_on_c, 1, 70, 80
6, 293472, Note_on_c, 1, 70, 0
6, 293520, Note_on_c, 1, 70, 80
6, 293712, Note_on_c, 1, 70, 0
6, 293760, Note_on_c, 1, 72, 80
6, 294144, Note_on_c, 1, 72, 0
6, 294240, Note_on_c, 1, 72, 80
6, 294432, Note_on_c, 1, 72, 0
6, 294480, Note_on_c, 1, 72, 80
6, 294672, Note_on_c, 1, 72, 0
6, 294720, Note_on_c, 1, 72, 80
6, 295104, Note_on_c, 1, 72, 0
6, 295200, Note_on_c, 1, 72, 80
6, 295584, Note_on_c, 1, 72, 0
6, 295680, Note_on_c, 1, 74, 80
6, 296064, Note_on_c, 1, 74, 0
6, 296160, Note_on_c, 1, 74, 80
6, 296352, Note_on_c, 1, 74, 0
6, 296400, Note_on_c, 1, 74, 80
6, 296592, Note_on_c, 1, 74, 0
6, 296640, Note_on_c, 1, 74, 80
6, 297024, Note_on_c, 1, 74, 0
6, 297120, Note_on_c, 1, 72, 80
6, 297504, Note_on_c, 1, 72, 0
6, 297600, Note_on_c, 1, 72, 80
6, 297984, Note_on_c, 1, 72, 0
6, 298080, Note_on_c, 1, 72, 80
6, 298272, Note_on_c, 1, 72, 0
6, 298320, Note_on_c, 1, 72, 80
6, 298512, Note_on_c, 1, 72, 0
6, 298560, Note_on_c, 1, 70, 80
6, 299328, Note_on_c, 1, 70, 0
6, 299520, Note_on_c, 1, 74, 80
6, 300288, Note_on_c, 1, 74, 0
6, 301440, Note_on_c, 1, 62, 80
6, 302208, Note_on_c, 1, 62, 0
6, 303360, Note_on_c, 1, 62, 80
6, 304128, Note_on_c, 1, 62, 0
6, 308160, Note_on_c, 1, 62, 80
6, 308928, Note_on_c, 1, 62, 0
6, 309120, Note_on_c, 1, 62, 80
6, 309504, Note_on_c, 1, 62, 0
6, 309600, Note_on_c, 1, 62, 80
6, 309984, Note_on_c, 1, 62, 0
6, 310080, Note_on_c, 1, 62, 80
6, 310464, Note_on_c, 1, 62, 0
6, 310560, Note_on_c, 1, 62, 80
6, 310752, Note_on_c, 1, 62, 0
6, 310800, Note_on_c, 1, 62, 80
6, 310992, Note_on_c, 1, 62, 0
6, 311040, Note_on_c, 1, 62, 80
6, 311232, Note_on_c, 1, 62, 0
6, 311280, Note_on_c, 1, 62, 80
6, 311472, Note_on_c, 1, 62, 0
6, 311520, Note_on_c, 1, 62, 80
6, 311712, Note_on_c, 1, 62, 0
6, 311760, Note_on_c, 1, 62, 80
6, 311952, Note_on_c, 1, 62, 0
6, 312000, Note_on_c, 1, 62, 80
6, 312360, Note_on_c, 1, 62, 0
6, 312480, Note_on_c, 1, 62, 64
6, 312840, Note_on_c, 1, 62, 0
6, 327360, Note_on_c, 1, 58, 56
6, 331200, Note_on_c, 1, 58, 0
6, 331200, Note_on_c, 1, 65, 64
6, 333120, Note_on_c, 1, 65, 0
6, 334080, Note_on_c, 1, 65, 64
6, 336000, Note_on_c, 1, 65, 0
6, 336000, Note_on_c, 1, 72, 80
6, 336960, Note_on_c, 1, 72, 0
6, 336960, Note_on_c, 1, 70, 80
6, 337440, Note_on_c, 1, 70, 0
6, 337440, Note_on_c, 1, 58, 80
6, 337680, Note_on_c, 1, 58, 0
6, 337680, Note_on_c, 1, 58, 80
6, 337920, Note_on_c, 1, 58, 0
6, 337920, Note_on_c, 1, 58, 80
6, 338400, Note_on_c, 1, 58, 0
6, 338400, Note_on_c, 1, 70, 80
6, 338880, Note_on_c, 1, 70, 0
6, 338880, Note_on_c, 1, 62, 80
6, 339840, Note_on_c, 1, 62, 0
6, 339840, Note_on_c, 1, 58, 80
6, 340080, Note_on_c, 1, 58, 0
6, 342720, Note_on_c, 1, 62, 80
6, 342912, Note_on_c, 1, 62, 0
6, 343200, Note_on_c, 1, 62, 80
6, 343392, Note_on_c, 1, 62, 0
6, 350400, Note_on_c, 1, 74, 80
6, 351360, Note_on_c, 1, 74, 0
6, 351360, Note_on_c, 1, 72, 80
6, 352320, Note_on_c, 1, 72, 0
6, 352320, Note_on_c, 1, 74, 80
6, 352800, Note_on_c, 1, 74, 0
6, 352800, Note_on_c, 1, 74, 80
6, 353280, Note_on_c, 1, 74, 0
6, 353280, Note_on_c, 1, 70, 80
6, 353520, Note_on_c, 1, 70, 0
6, 354240, Note_on_c, 1, 62, 39
6, 358080, Note_on_c, 1, 62, 0
6, 358080, Note_on_c, 1, 74, 80
6, 359040, Note_on_c, 1, 74, 0
6, 359040, Note_on_c, 1, 72, 80
6, 360000, Note_on_c, 1, 72, 0
6, 360000, Note_on_c, 1, 74, 80
6, 360480, Note_on_c, 1, 74, 0
6, 360480, Note_on_c, 1, 74, 80
6, 360960, Note_on_c, 1, 74, 0
6, 360960, Note_on_c, 1, 70, 80
6, 361152, Note_on_c, 1, 70, 0
6, 363600, Note_on_c, 1, 72, 80
6, 363792, Note_on_c, 1, 72, 0
6, 363840, Note_on_c, 1, 70, 80
6, 364032, Note_on_c, 1, 70, 0
6, 369600, Note_on_c, 1, 74, 64
6, 371880, Note_on_c, 1, 74, 0
6, 377280, Note_on_c, 1, 62, 80
6, 377472, Note_on_c, 1, 62, 0
6, 377520, Note_on_c, 1, 62, 80
6, 377616, Note_on_c, 1, 62, 0
6, 377640, Note_on_c, 1, 62, 80
6, 377736, Note_on_c, 1, 62, 0
6, 377760, Note_on_c, 1, 62, 80
6, 377952, Note_on_c, 1, 62, 0
6, 378000, Note_on_c, 1, 62, 80
6, 378096, Note_on_c, 1, 62, 0
6, 378120, Note_on_c, 1, 62, 80
6, 378216, Note_on_c, 1, 62, 0
6, 378240, Note_on_c, 1, 62, 80
6, 378432, Note_on_c, 1, 62, 0
6, 378480, Note_on_c, 1, 62, 80
6, 378576, Note_on_c, 1, 62, 0
6, 378600, Note_on_c, 1, 62, 80
6, 378696, Note_on_c, 1, 62, 0
6, 378720, Note_on_c, 1, 62, 80
6, 378912, Note_on_c, 1, 62, 0
6, 378960, Note_on_c, 1, 62, 80
6, 379056, Note_on_c, 1, 62, 0
6, 379080, Note_on_c, 1, 62, 80
6, 379176, Note_on_c, 1, 62, 0
6, 379200, Note_on_c, 1, 62, 80
6, 379392, Note_on_c, 1, 62, 0
6, 379440, Note_on_c, 1, 62, 80
6, 379536, Note_on_c, 1, 62, 0
6, 379560, Note_on_c, 1, 62, 80
6, 379656, Note_on_c, 1, 62, 0
6, 379680, Note_on_c, 1, 62, 80
6, 379872, Note_on_c, 1, 62, 0
6, 379920, Note_on_c, 1, 62, 80
6, 380016, Note_on_c, 1, 62, 0
6, 380040, Note_on_c, 1, 62, 80
6, 380136, Note_on_c, 1, 62, 0
6, 380160, Note_on_c, 1, 62, 80
6, 380352, Note_on_c, 1, 62, 0
6, 380400, Note_on_c, 1, 62, 80
6, 380592, Note_on_c, 1, 62, 0
6, 380640, Note_on_c, 1, 62, 80
6, 380832, Note_on_c, 1, 62, 0
6, 380880, Note_on_c, 1, 62, 80
6, 381072, Note_on_c, 1, 62, 0
6, 381120, Note_on_c, 1, 62, 80
6, 381480, Note_on_c, 1, 62, 0
6, 382080, Note_on_c, 1, 58, 80
6, 382320, Note_on_c, 1, 58, 0
6, 382560, Note_on_c, 1, 58, 80
6, 382800, Note_on_c, 1, 58, 0
6, 383040, Note_on_c, 1, 58, 80
6, 383760, Note_on_c, 1, 58, 0
6, 383760, End_track
7, 0, Start_track
7, 0, MIDI_port, 0
7, 0, Title_t, "Corni in G."
7, 0, Program_c, 2, 60
7, 88, Control_c, 2, 10, 40
7, 674, Control_c, 2, 91, 127
7, 15840, Note_on_c, 2, 67, 80
7, 16320, Note_on_c, 2, 67, 0
7, 16320, Note_on_c, 2, 69, 80
7, 16560, Note_on_c, 2, 69, 0
7, 16800, Note_on_c, 2, 67, 80
7, 17280, Note_on_c, 2, 67, 0
7, 17280, Note_on_c, 2, 69, 80
7, 17520, Note_on_c, 2, 69, 0
7, 17760, Note_on_c, 2, 67, 80
7, 18240, Note_on_c, 2, 67, 0
7, 18240, Note_on_c, 2, 69, 75
7, 18384, Note_on_c, 2, 69, 0
7, 18480, Note_on_c, 2, 67, 68
7, 18624, Note_on_c, 2, 67, 0
7, 18720, Note_on_c, 2, 69, 60
7, 18864, Note_on_c, 2, 69, 0
7, 18960, Note_on_c, 2, 67, 53
7, 19104, Note_on_c, 2, 67, 0
7, 19200, Note_on_c, 2, 69, 53
7, 19584, Note_on_c, 2, 69, 0
7, 32640, Note_on_c, 2, 67, 80
7, 33600, Note_on_c, 2, 67, 0
7, 33600, Note_on_c, 2, 67, 80
7, 33984, Note_on_c, 2, 67, 0
7, 34080, Note_on_c, 2, 67, 80
7, 34464, Note_on_c, 2, 67, 0
7, 34560, Note_on_c, 2, 67, 80
7, 34944, Note_on_c, 2, 67, 0
7, 35040, Note_on_c, 2, 67, 80
7, 35424, Note_on_c, 2, 67, 0
7, 35520, Note_on_c, 2, 67, 80
7, 36480, Note_on_c, 2, 67, 0
7, 59520, Note_on_c, 2, 55, 80
7, 60480, Note_on_c, 2, 55, 0
7, 60480, Note_on_c, 2, 67, 80
7, 61440, Note_on_c, 2, 67, 0
7, 73920, Note_on_c, 2, 69, 80
7, 74880, Note_on_c, 2, 69, 0
7, 74880, Note_on_c, 2, 67, 80
7, 75360, Note_on_c, 2, 67, 0
7, 76800, Note_on_c, 2, 62, 80
7, 77040, Note_on_c, 2, 62, 0
7, 81600, Note_on_c, 2, 69, 80
7, 82560, Note_on_c, 2, 69, 0
7, 82560, Note_on_c, 2, 67, 80
7, 83040, Note_on_c, 2, 67, 0
7, 84480, Note_on_c, 2, 62, 80
7, 84672, Note_on_c, 2, 62, 0
7, 87360, Note_on_c, 2, 62, 80
7, 87552, Note_on_c, 2, 62, 0
7, 91200, Note_on_c, 2, 62, 80
7, 91392, Note_on_c, 2, 62, 0
7, 92160, Note_on_c, 2, 62, 80
7, 92352, Note_on_c, 2, 62, 0
7, 93120, Note_on_c, 2, 62, 80
7, 93312, Note_on_c, 2, 62, 0
7, 95040, Note_on_c, 2, 62, 80
7, 95328, Note_on_c, 2, 62, 0
7, 96000, Note_on_c, 2, 50, 80
7, 96288, Note_on_c, 2, 50, 0
7, 111840, Note_on_c, 2, 67, 80
7, 112320, Note_on_c, 2, 67, 0
7, 112320, Note_on_c, 2, 69, 80
7, 112560, Note_on_c, 2, 69, 0
7, 112800, Note_on_c, 2, 67, 80
7, 113280, Note_on_c, 2, 67, 0
7, 113280, Note_on_c, 2, 69, 80
7, 113520, Note_on_c, 2, 69, 0
7, 113760, Note_on_c, 2, 67, 80
7, 114240, Note_on_c, 2, 67, 0
7, 114240, Note_on_c, 2, 69, 75
7, 114384, Note_on_c, 2, 69, 0
7, 114480, Note_on_c, 2, 67, 68
7, 114624, Note_on_c, 2, 67, 0
7, 114720, Note_on_c, 2, 69, 60
7, 114864, Note_on_c, 2, 69, 0
7, 114960, Note_on_c, 2, 67, 53
7, 115104, Note_on_c, 2, 67, 0
7, 115200, Note_on_c, 2, 69, 53
7, 115584, Note_on_c, 2, 69, 0
7, 128640, Note_on_c, 2, 67, 80
7, 129600, Note_on_c, 2, 67, 0
7, 129600, Note_on_c, 2, 67, 80
7, 129984, Note_on_c, 2, 67, 0
7, 130080, Note_on_c, 2, 67, 80
7, 130464, Note_on_c, 2, 67, 0
7, 130560, Note_on_c, 2, 67, 80
7, 130944, Note_on_c, 2, 67, 0
7, 131040, Note_on_c, 2, 67, 80
7, 131424, Note_on_c, 2, 67, 0
7, 131520, Note_on_c, 2, 67, 80
7, 132480, Note_on_c, 2, 67, 0
7, 155520, Note_on_c, 2, 55, 80
7, 156480, Note_on_c, 2, 55, 0
7, 156480, Note_on_c, 2, 67, 80
7, 157440, Note_on_c, 2, 67, 0
7, 169920, Note_on_c, 2, 69, 80
7, 170880, Note_on_c, 2, 69, 0
7, 170880, Note_on_c, 2, 67, 80
7, 171360, Note_on_c, 2, 67, 0
7, 172800, Note_on_c, 2, 62, 80
7, 173040, Note_on_c, 2, 62, 0
7, 177600, Note_on_c, 2, 69, 80
7, 178560, Note_on_c, 2, 69, 0
7, 178560, Note_on_c, 2, 67, 80
7, 179040, Note_on_c, 2, 67, 0
7, 180480, Note_on_c, 2, 62, 80
7, 180672, Note_on_c, 2, 62, 0
7, 183360, Note_on_c, 2, 62, 80
7, 183552, Note_on_c, 2, 62, 0
7, 187200, Note_on_c, 2, 62, 80
7, 187392, Note_on_c, 2, 62, 0
7, 188160, Note_on_c, 2, 62, 80
7, 188352, Note_on_c, 2, 62, 0
7, 189120, Note_on_c, 2, 62, 80
7, 189312, Note_on_c, 2, 62, 0
7, 191040, Note_on_c, 2, 62, 80
7, 191328, Note_on_c, 2, 62, 0
7, 192000, Note_on_c, 2, 50, 80
7, 192288, Note_on_c, 2, 50, 0
7, 192960, Note_on_c, 2, 62, 80
7, 193152, Note_on_c, 2, 62, 0
7, 193440, Note_on_c, 2, 71, 80
7, 193632, Note_on_c, 2, 71, 0
7, 206400, Note_on_c, 2, 59, 80
7, 206880, Note_on_c, 2, 59, 0
7, 206880, Note_on_c, 2, 59, 80
7, 207240, Note_on_c, 2, 59, 0
7, 207240, Note_on_c, 2, 59, 80
7, 207360, Note_on_c, 2, 59, 0
7, 207360, Note_on_c, 2, 59, 80
7, 207600, Note_on_c, 2, 59, 0
7, 207600, Note_on_c, 2, 67, 80
7, 207840, Note_on_c, 2, 67, 0
7, 209280, Note_on_c, 2, 69, 80
7, 210240, Note_on_c, 2, 69, 0
7, 210240, Note_on_c, 2, 69, 80
7, 210720, Note_on_c, 2, 69, 0
7, 210720, Note_on_c, 2, 69, 80
7, 211200, Note_on_c, 2, 69, 0
7, 211200, Note_on_c, 2, 69, 80
7, 212160, Note_on_c, 2, 69, 0
7, 212160, Note_on_c, 2, 50, 80
7, 212544, Note_on_c, 2, 50, 0
7, 212640, Note_on_c, 2, 50, 80
7, 213024, Note_on_c, 2, 50, 0
7, 213120, Note_on_c, 2, 55, 80
7, 213312, Note_on_c, 2, 55, 0
7, 213360, Note_on_c, 2, 55, 80
7, 213552, Note_on_c, 2, 55, 0
7, 214080, Note_on_c, 2, 55, 80
7, 214560, Note_on_c, 2, 55, 0
7, 214560, Note_on_c, 2, 55, 80
7, 214920, Note_on_c, 2, 55, 0
7, 214920, Note_on_c, 2, 55, 80
7, 215040, Note_on_c, 2, 55, 0
7, 215040, Note_on_c, 2, 55, 80
7, 215520, Note_on_c, 2, 55, 0
7, 218880, Note_on_c, 2, 62, 80
7, 219840, Note_on_c, 2, 62, 0
7, 221760, Note_on_c, 2, 69, 80
7, 222000, Note_on_c, 2, 69, 0
7, 222240, Note_on_c, 2, 69, 80
7, 222480, Note_on_c, 2, 69, 0
7, 222720, Note_on_c, 2, 62, 80
7, 223200, Note_on_c, 2, 62, 0
7, 223200, Note_on_c, 2, 67, 80
7, 223440, Note_on_c, 2, 67, 0
7, 224640, Note_on_c, 2, 69, 80
7, 225600, Note_on_c, 2, 69, 0
7, 225600, Note_on_c, 2, 69, 80
7, 226080, Note_on_c, 2, 69, 0
7, 226080, Note_on_c, 2, 69, 80
7, 226560, Note_on_c, 2, 69, 0
7, 226560, Note_on_c, 2, 69, 80
7, 227520, Note_on_c, 2, 69, 0
7, 227520, Note_on_c, 2, 69, 80
7, 228000, Note_on_c, 2, 69, 0
7, 228000, Note_on_c, 2, 69, 80
7, 228480, Note_on_c, 2, 69, 0
7, 228480, Note_on_c, 2, 69, 80
7, 229440, Note_on_c, 2, 69, 0
7, 242880, Note_on_c, 2, 50, 64
7, 243840, Note_on_c, 2, 50, 0
7, 243840, Note_on_c, 2, 50, 64
7, 244800, Note_on_c, 2, 50, 0
7, 244800, Note_on_c, 2, 50, 64
7, 245760, Note_on_c, 2, 50, 0
7, 245760, Note_on_c, 2, 50, 64
7, 246720, Note_on_c, 2, 50, 0
7, 246720, Note_on_c, 2, 50, 64
7, 247680, Note_on_c, 2, 50, 0
7, 247680, Note_on_c, 2, 50, 64
7, 248256, Note_on_c, 2, 50, 0
7, 248400, Note_on_c, 2, 50, 64
7, 248592, Note_on_c, 2, 50, 0
7, 248640, Note_on_c, 2, 50, 64
7, 248832, Note_on_c, 2, 50, 0
7, 248880, Note_on_c, 2, 50, 64
7, 249072, Note_on_c, 2, 50, 0
7, 249120, Note_on_c, 2, 50, 64
7, 249312, Note_on_c, 2, 50, 0
7, 249360, Note_on_c, 2, 50, 64
7, 249552, Note_on_c, 2, 50, 0
7, 249600, Note_on_c, 2, 50, 80
7, 249792, Note_on_c, 2, 50, 0
7, 253440, Note_on_c, 2, 50, 51
7, 255360, Note_on_c, 2, 50, 0
7, 255360, Note_on_c, 2, 55, 51
7, 255600, Note_on_c, 2, 55, 0
7, 268320, Note_on_c, 2, 67, 80
7, 268800, Note_on_c, 2, 67, 0
7, 268800, Note_on_c, 2, 69, 80
7, 269040, Note_on_c, 2, 69, 0
7, 269280, Note_on_c, 2, 67, 80
7, 269760, Note_on_c, 2, 67, 0
7, 269760, Note_on_c, 2, 69, 80
7, 270000, Note_on_c, 2, 69, 0
7, 270240, Note_on_c, 2, 67, 80
7, 270720, Note_on_c, 2, 67, 0
7, 270720, Note_on_c, 2, 69, 75
7, 270864, Note_on_c, 2, 69, 0
7, 270960, Note_on_c, 2, 67, 68
7, 271104, Note_on_c, 2, 67, 0
7, 271200, Note_on_c, 2, 69, 60
7, 271344, Note_on_c, 2, 69, 0
7, 271440, Note_on_c, 2, 67, 53
7, 271584, Note_on_c, 2, 67, 0
7, 271680, Note_on_c, 2, 69, 53
7, 272064, Note_on_c, 2, 69, 0
7, 279360, Note_on_c, 2, 67, 80
7, 280128, Note_on_c, 2, 67, 0
7, 280320, Note_on_c, 2, 62, 80
7, 281088, Note_on_c, 2, 62, 0
7, 285120, Note_on_c, 2, 67, 80
7, 285312, Note_on_c, 2, 67, 0
7, 285600, Note_on_c, 2, 67, 80
7, 285792, Note_on_c, 2, 67, 0
7, 292800, Note_on_c, 2, 67, 80
7, 293184, Note_on_c, 2, 67, 0
7, 293280, Note_on_c, 2, 67, 80
7, 293472, Note_on_c, 2, 67, 0
7, 293520, Note_on_c, 2, 67, 80
7, 293712, Note_on_c, 2, 67, 0
7, 293760, Note_on_c, 2, 67, 80
7, 294144, Note_on_c, 2, 67, 0
7, 294240, Note_on_c, 2, 55, 80
7, 294624, Note_on_c, 2, 55, 0
7, 294960, Note_on_c, 2, 69, 80
7, 295152, Note_on_c, 2, 69, 0
7, 295200, Note_on_c, 2, 69, 80
7, 295392, Note_on_c, 2, 69, 0
7, 295440, Note_on_c, 2, 69, 80
7, 295632, Note_on_c, 2, 69, 0
7, 295680, Note_on_c, 2, 67, 80
7, 296064, Note_on_c, 2, 67, 0
7, 296160, Note_on_c, 2, 67, 80
7, 296352, Note_on_c, 2, 67, 0
7, 296400, Note_on_c, 2, 67, 80
7, 296592, Note_on_c, 2, 67, 0
7, 296640, Note_on_c, 2, 67, 80
7, 297024, Note_on_c, 2, 67, 0
7, 297120, Note_on_c, 2, 55, 80
7, 297312, Note_on_c, 2, 55, 0
7, 297360, Note_on_c, 2, 55, 80
7, 297552, Note_on_c, 2, 55, 0
7, 297600, Note_on_c, 2, 62, 80
7, 297984, Note_on_c, 2, 62, 0
7, 298080, Note_on_c, 2, 62, 80
7, 298272, Note_on_c, 2, 62, 0
7, 298320, Note_on_c, 2, 62, 80
7, 298512, Note_on_c, 2, 62, 0
7, 298560, Note_on_c, 2, 62, 80
7, 299328, Note_on_c, 2, 62, 0
7, 299520, Note_on_c, 2, 50, 80
7, 300288, Note_on_c, 2, 50, 0
7, 301440, Note_on_c, 2, 67, 80
7, 302208, Note_on_c, 2, 67, 0
7, 303360, Note_on_c, 2, 55, 80
7, 304128, Note_on_c, 2, 55, 0
7, 304320, Note_on_c, 2, 55, 80
7, 305088, Note_on_c, 2, 55, 0
7, 305280, Note_on_c, 2, 55, 80
7, 305664, Note_on_c, 2, 55, 0
7, 305760, Note_on_c, 2, 55, 80
7, 306144, Note_on_c, 2, 55, 0
7, 306240, Note_on_c, 2, 55, 80
7, 306624, Note_on_c, 2, 55, 0
7, 306720, Note_on_c, 2, 55, 80
7, 307104, Note_on_c, 2, 55, 0
7, 307200, Note_on_c, 2, 55, 80
7, 307968, Note_on_c, 2, 55, 0
7, 308160, Note_on_c, 2, 50, 80
7, 308928, Note_on_c, 2, 50, 0
7, 309120, Note_on_c, 2, 50, 80
7, 309504, Note_on_c, 2, 50, 0
7, 309600, Note_on_c, 2, 50, 80
7, 309984, Note_on_c, 2, 50, 0
7, 310080, Note_on_c, 2, 50, 80
7, 310464, Note_on_c, 2, 50, 0
7, 310560, Note_on_c, 2, 50, 80
7, 310752, Note_on_c, 2, 50, 0
7, 310800, Note_on_c, 2, 50, 80
7, 310992, Note_on_c, 2, 50, 0
7, 311040, Note_on_c, 2, 50, 80
7, 311232, Note_on_c, 2, 50, 0
7, 311280, Note_on_c, 2, 50, 80
7, 311472, Note_on_c, 2, 50, 0
7, 311520, Note_on_c, 2, 50, 80
7, 311712, Note_on_c, 2, 50, 0
7, 311760, Note_on_c, 2, 50, 80
7, 311952, Note_on_c, 2, 50, 0
7, 312000, Note_on_c, 2, 50, 80
7, 312360, Note_on_c, 2, 50, 0
7, 312480, Note_on_c, 2, 50, 64
7, 312840, Note_on_c, 2, 50, 0
7, 335040, Note_on_c, 2, 62, 80
7, 336000, Note_on_c, 2, 62, 0
7, 336000, Note_on_c, 2, 67, 80
7, 336960, Note_on_c, 2, 67, 0
7, 336960, Note_on_c, 2, 67, 80
7, 337440, Note_on_c, 2, 67, 0
7, 337440, Note_on_c, 2, 55, 80
7, 337680, Note_on_c, 2, 55, 0
7, 337680, Note_on_c, 2, 55, 80
7, 337920, Note_on_c, 2, 55, 0
7, 337920, Note_on_c, 2, 55, 80
7, 338400, Note_on_c, 2, 55, 0
7, 338400, Note_on_c, 2, 67, 80
7, 338880, Note_on_c, 2, 67, 0
7, 338880, Note_on_c, 2, 69, 80
7, 339840, Note_on_c, 2, 69, 0
7, 339840, Note_on_c, 2, 67, 80
7, 340080, Note_on_c, 2, 67, 0
7, 341760, Note_on_c, 2, 67, 80
7, 341952, Note_on_c, 2, 67, 0
7, 342240, Note_on_c, 2, 55, 80
7, 342432, Note_on_c, 2, 55, 0
7, 342720, Note_on_c, 2, 50, 80
7, 342912, Note_on_c, 2, 50, 0
7, 343200, Note_on_c, 2, 50, 80
7, 343392, Note_on_c, 2, 50, 0
7, 350400, Note_on_c, 2, 67, 80
7, 351360, Note_on_c, 2, 67, 0
7, 351360, Note_on_c, 2, 67, 80
7, 352320, Note_on_c, 2, 67, 0
7, 352320, Note_on_c, 2, 62, 80
7, 352800, Note_on_c, 2, 62, 0
7, 352800, Note_on_c, 2, 62, 80
7, 353280, Note_on_c, 2, 62, 0
7, 353280, Note_on_c, 2, 62, 80
7, 353520, Note_on_c, 2, 62, 0
7, 354240, Note_on_c, 2, 50, 39
7, 358080, Note_on_c, 2, 50, 0
7, 358080, Note_on_c, 2, 67, 80
7, 359040, Note_on_c, 2, 67, 0
7, 359040, Note_on_c, 2, 67, 80
7, 360000, Note_on_c, 2, 67, 0
7, 360000, Note_on_c, 2, 62, 80
7, 360480, Note_on_c, 2, 62, 0
7, 360480, Note_on_c, 2, 62, 80
7, 360960, Note_on_c, 2, 62, 0
7, 360960, Note_on_c, 2, 62, 80
7, 361152, Note_on_c, 2, 62, 0
7, 363120, Note_on_c, 2, 67, 80
7, 363312, Note_on_c, 2, 67, 0
7, 363360, Note_on_c, 2, 67, 80
7, 363552, Note_on_c, 2, 67, 0
7, 363600, Note_on_c, 2, 62, 80
7, 363792, Note_on_c, 2, 62, 0
7, 363840, Note_on_c, 2, 62, 80
7, 364032, Note_on_c, 2, 62, 0
7, 365760, Note_on_c, 2, 55, 80
7, 366144, Note_on_c, 2, 55, 0
7, 366240, Note_on_c, 2, 55, 80
7, 366624, Note_on_c, 2, 55, 0
7, 366720, Note_on_c, 2, 55, 80
7, 367104, Note_on_c, 2, 55, 0
7, 367200, Note_on_c, 2, 55, 80
7, 367584, Note_on_c, 2, 55, 0
7, 367680, Note_on_c, 2, 55, 80
7, 368064, Note_on_c, 2, 55, 0
7, 368160, Note_on_c, 2, 55, 80
7, 368544, Note_on_c, 2, 55, 0
7, 368640, Note_on_c, 2, 55, 80
7, 369024, Note_on_c, 2, 55, 0
7, 369120, Note_on_c, 2, 55, 80
7, 369312, Note_on_c, 2, 55, 0
7, 369600, Note_on_c, 2, 62, 64
7, 371520, Note_on_c, 2, 62, 0
7, 371520, Note_on_c, 2, 67, 64
7, 371880, Note_on_c, 2, 67, 0
7, 373440, Note_on_c, 2, 55, 56
7, 375360, Note_on_c, 2, 55, 0
7, 375360, Note_on_c, 2, 50, 39
7, 377280, Note_on_c, 2, 50, 0
7, 377280, Note_on_c, 2, 55, 80
7, 377472, Note_on_c, 2, 55, 0
7, 377760, Note_on_c, 2, 50, 80
7, 377952, Note_on_c, 2, 50, 0
7, 378240, Note_on_c, 2, 55, 80
7, 378432, Note_on_c, 2, 55, 0
7, 378720, Note_on_c, 2, 50, 80
7, 378912, Note_on_c, 2, 50, 0
7, 379200, Note_on_c, 2, 55, 80
7, 379392, Note_on_c, 2, 55, 0
7, 379680, Note_on_c, 2, 50, 80
7, 379872, Note_on_c, 2, 50, 0
7, 380160, Note_on_c, 2, 55, 80
7, 380352, Note_on_c, 2, 55, 0
7, 380400, Note_on_c, 2, 50, 80
7, 380592, Note_on_c, 2, 50, 0
7, 380640, Note_on_c, 2, 55, 80
7, 380832, Note_on_c, 2, 55, 0
7, 380880, Note_on_c, 2, 50, 80
7, 381072, Note_on_c, 2, 50, 0
7, 381120, Note_on_c, 2, 55, 80
7, 381480, Note_on_c, 2, 55, 0
7, 382080, Note_on_c, 2, 55, 80
7, 382320, Note_on_c, 2, 55, 0
7, 382560, Note_on_c, 2, 55, 80
7, 382800, Note_on_c, 2, 55, 0
7, 383040, Note_on_c, 2, 55, 80
7, 383760, Note_on_c, 2, 55, 0
7, 383760, End_track
8, 0, Start_track
8, 0, MIDI_port, 0
8, 0, Title_t, "Violino I."
8, 0, Program_c, 3, 48
8, 54, Control_c, 3, 91, 127
8, 140, Control_c, 3, 10, 124
8, 1680, Note_on_c, 3, 75, 80
8, 1800, Note_on_c, 3, 75, 0
8, 1800, Note_on_c, 3, 74, 80
8, 1920, Note_on_c, 3, 74, 0
8, 1920, Note_on_c, 3, 74, 80
8, 2112, Note_on_c, 3, 74, 0
8, 2160, Note_on_c, 3, 75, 80
8, 2280, Note_on_c, 3, 75, 0
8, 2280, Note_on_c, 3, 74, 80
8, 2400, Note_on_c, 3, 74, 0
8, 2400, Note_on_c, 3, 74, 80
8, 2592, Note_on_c, 3, 74, 0
8, 2640, Note_on_c, 3, 75, 80
8, 2760, Note_on_c, 3, 75, 0
8, 2760, Note_on_c, 3, 74, 80
8, 2880, Note_on_c, 3, 74, 0
8, 2880, Note_on_c, 3, 74, 80
8, 3120, Note_on_c, 3, 74, 0
8, 3120, Note_on_c, 3, 82, 80
8, 3312, Note_on_c, 3, 82, 0
8, 3600, Note_on_c, 3, 82, 80
8, 3720, Note_on_c, 3, 82, 0
8, 3720, Note_on_c, 3, 81, 80
8, 3840, Note_on_c, 3, 81, 0
8, 3840, Note_on_c, 3, 79, 80
8, 4032, Note_on_c, 3, 79, 0
8, 4080, Note_on_c, 3, 79, 80
8, 4200, Note_on_c, 3, 79, 0
8, 4200, Note_on_c, 3, 77, 80
8, 4320, Note_on_c, 3, 77, 0
8, 4320, Note_on_c, 3, 75, 80
8, 4512, Note_on_c, 3, 75, 0
8, 4560, Note_on_c, 3, 75, 80
8, 4680, Note_on_c, 3, 75, 0
8, 4680, Note_on_c, 3, 74, 80
8, 4800, Note_on_c, 3, 74, 0
8, 4800, Note_on_c, 3, 72, 80
8, 4992, Note_on_c, 3, 72, 0
8, 5040, Note_on_c, 3, 72, 80
8, 5232, Note_on_c, 3, 72, 0
8, 5520, Note_on_c, 3, 74, 80
8, 5640, Note_on_c, 3, 74, 0
8, 5640, Note_on_c, 3, 72, 80
8, 5760, Note_on_c, 3, 72, 0
8, 5760, Note_on_c, 3, 72, 80
8, 5952, Note_on_c, 3, 72, 0
8, 6000, Note_on_c, 3, 74, 80
8, 6120, Note_on_c, 3, 74, 0
8, 6120, Note_on_c, 3, 72, 80
8, 6240, Note_on_c, 3, 72, 0
8, 6240, Note_on_c, 3, 72, 80
8, 6432, Note_on_c, 3, 72, 0
8, 6480, Note_on_c, 3, 74, 80
8, 6600, Note_on_c, 3, 74, 0
8, 6600, Note_on_c, 3, 72, 80
8, 6720, Note_on_c, 3, 72, 0
8, 6720, Note_on_c, 3, 72, 80
8, 6960, Note_on_c, 3, 72, 0
8, 6960, Note_on_c, 3, 81, 80
8, 7152, Note_on_c, 3, 81, 0
8, 7440, Note_on_c, 3, 81, 80
8, 7560, Note_on_c, 3, 81, 0
8, 7560, Note_on_c, 3, 79, 80
8, 7680, Note_on_c, 3, 79, 0
8, 7680, Note_on_c, 3, 78, 80
8, 7872, Note_on_c, 3, 78, 0
8, 7920, Note_on_c, 3, 78, 80
8, 8040, Note_on_c, 3, 78, 0
8, 8040, Note_on_c, 3, 75, 80
8, 8160, Note_on_c, 3, 75, 0
8, 8160, Note_on_c, 3, 74, 80
8, 8352, Note_on_c, 3, 74, 0
8, 8400, Note_on_c, 3, 74, 80
8, 8520, Note_on_c, 3, 74, 0
8, 8520, Note_on_c, 3, 72, 80
8, 8640, Note_on_c, 3, 72, 0
8, 8640, Note_on_c, 3, 70, 80
8, 8832, Note_on_c, 3, 70, 0
8, 8880, Note_on_c, 3, 70, 80
8, 9072, Note_on_c, 3, 70, 0
8, 9360, Note_on_c, 3, 82, 80
8, 9480, Note_on_c, 3, 82, 0
8, 9480, Note_on_c, 3, 81, 80
8, 9600, Note_on_c, 3, 81, 0
8, 9600, Note_on_c, 3, 81, 80
8, 9840, Note_on_c, 3, 81, 0
8, 9840, Note_on_c, 3, 84, 80
8, 10080, Note_on_c, 3, 84, 0
8, 10080, Note_on_c, 3, 78, 80
8, 10320, Note_on_c, 3, 78, 0
8, 10320, Note_on_c, 3, 81, 80
8, 10560, Note_on_c, 3, 81, 0
8, 10560, Note_on_c, 3, 79, 80
8, 10800, Note_on_c, 3, 79, 0
8, 10800, Note_on_c, 3, 74, 80
8, 10992, Note_on_c, 3, 74, 0
8, 11280, Note_on_c, 3, 82, 80
8, 11400, Note_on_c, 3, 82, 0
8, 11400, Note_on_c, 3, 81, 80
8, 11520, Note_on_c, 3, 81, 0
8, 11520, Note_on_c, 3, 81, 80
8, 11760, Note_on_c, 3, 81, 0
8, 11760, Note_on_c, 3, 84, 80
8, 12000, Note_on_c, 3, 84, 0
8, 12000, Note_on_c, 3, 78, 80
8, 12240, Note_on_c, 3, 78, 0
8, 12240, Note_on_c, 3, 81, 80
8, 12480, Note_on_c, 3, 81, 0
8, 12480, Note_on_c, 3, 79, 80
8, 12720, Note_on_c, 3, 79, 0
8, 12720, Note_on_c, 3, 82, 80
8, 12960, Note_on_c, 3, 82, 0
8, 12960, Note_on_c, 3, 81, 80
8, 13080, Note_on_c, 3, 81, 0
8, 13080, Note_on_c, 3, 79, 80
8, 13200, Note_on_c, 3, 79, 0
8, 13200, Note_on_c, 3, 77, 80
8, 13320, Note_on_c, 3, 77, 0
8, 13320, Note_on_c, 3, 75, 80
8, 13440, Note_on_c, 3, 75, 0
8, 13440, Note_on_c, 3, 74, 80
8, 14400, Note_on_c, 3, 74, 0
8, 14400, Note_on_c, 3, 73, 80
8, 15360, Note_on_c, 3, 73, 0
8, 15360, Note_on_c, 3, 74, 80
8, 15744, Note_on_c, 3, 74, 0
8, 16080, Note_on_c, 3, 62, 110
8, 16176, Note_on_c, 3, 62, 0
8, 16200, Note_on_c, 3, 62, 110
8, 16296, Note_on_c, 3, 62, 0
8, 16320, Note_on_c, 3, 62, 110
8, 16704, Note_on_c, 3, 62, 0
8, 17040, Note_on_c, 3, 62, 110
8, 17136, Note_on_c, 3, 62, 0
8, 17160, Note_on_c, 3, 62, 110
8, 17256, Note_on_c, 3, 62, 0
8, 17280, Note_on_c, 3, 62, 110
8, 17664, Note_on_c, 3, 62, 0
8, 18000, Note_on_c, 3, 62, 110
8, 18096, Note_on_c, 3, 62, 0
8, 18120, Note_on_c, 3, 62, 110
8, 18216, Note_on_c, 3, 62, 0
8, 18240, Note_on_c, 3, 62, 110
8, 18432, Note_on_c, 3, 62, 0
8, 18480, Note_on_c, 3, 62, 105
8, 18576, Note_on_c, 3, 62, 0
8, 18600, Note_on_c, 3, 62, 102
8, 18696, Note_on_c, 3, 62, 0
8, 18720, Note_on_c, 3, 62, 100
8, 18912, Note_on_c, 3, 62, 0
8, 18960, Note_on_c, 3, 62, 95
8, 19056, Note_on_c, 3, 62, 0
8, 19080, Note_on_c, 3, 62, 92
8, 19176, Note_on_c, 3, 62, 0
8, 19200, Note_on_c, 3, 62, 80
8, 19584, Note_on_c, 3, 62, 0
8, 19920, Note_on_c, 3, 75, 80
8, 20040, Note_on_c, 3, 75, 0
8, 20040, Note_on_c, 3, 74, 80
8, 20160, Note_on_c, 3, 74, 0
8, 20160, Note_on_c, 3, 74, 80
8, 20352, Note_on_c, 3, 74, 0
8, 20400, Note_on_c, 3, 75, 80
8, 20520, Note_on_c, 3, 75, 0
8, 20520, Note_on_c, 3, 74, 80
8, 20640, Note_on_c, 3, 74, 0
8, 20640, Note_on_c, 3, 74, 80
8, 20832, Note_on_c, 3, 74, 0
8, 20880, Note_on_c, 3, 75, 80
8, 21000, Note_on_c, 3, 75, 0
8, 21000, Note_on_c, 3, 74, 80
8, 21120, Note_on_c, 3, 74, 0
8, 21120, Note_on_c, 3, 74, 80
8, 21360, Note_on_c, 3, 74, 0
8, 21360, Note_on_c, 3, 82, 80
8, 21552, Note_on_c, 3, 82, 0
8, 21840, Note_on_c, 3, 82, 80
8, 21960, Note_on_c, 3, 82, 0
8, 21960, Note_on_c, 3, 81, 80
8, 22080, Note_on_c, 3, 81, 0
8, 22080, Note_on_c, 3, 79, 80
8, 22272, Note_on_c, 3, 79, 0
8, 22320, Note_on_c, 3, 79, 80
8, 22440, Note_on_c, 3, 79, 0
8, 22440, Note_on_c, 3, 77, 80
8, 22560, Note_on_c, 3, 77, 0
8, 22560, Note_on_c, 3, 75, 80
8, 22752, Note_on_c, 3, 75, 0
8, 22800, Note_on_c, 3, 75, 80
8, 22920, Note_on_c, 3, 75, 0
8, 22920, Note_on_c, 3, 74, 80
8, 23040, Note_on_c, 3, 74, 0
8, 23040, Note_on_c, 3, 72, 80
8, 23232, Note_on_c, 3, 72, 0
8, 23280, Note_on_c, 3, 72, 80
8, 23472, Note_on_c, 3, 72, 0
8, 23760, Note_on_c, 3, 77, 80
8, 23880, Note_on_c, 3, 77, 0
8, 23880, Note_on_c, 3, 75, 80
8, 24000, Note_on_c, 3, 75, 0
8, 24000, Note_on_c, 3, 75, 80
8, 24192, Note_on_c, 3, 75, 0
8, 24240, Note_on_c, 3, 77, 80
8, 24360, Note_on_c, 3, 77, 0
8, 24360, Note_on_c, 3, 75, 80
8, 24480, Note_on_c, 3, 75, 0
8, 24480, Note_on_c, 3, 75, 80
8, 24672, Note_on_c, 3, 75, 0
8, 24720, Note_on_c, 3, 77, 80
8, 24840, Note_on_c, 3, 77, 0
8, 24840, Note_on_c, 3, 75, 80
8, 24960, Note_on_c, 3, 75, 0
8, 24960, Note_on_c, 3, 75, 80
8, 25200, Note_on_c, 3, 75, 0
8, 25200, Note_on_c, 3, 84, 80
8, 25392, Note_on_c, 3, 84, 0
8, 25680, Note_on_c, 3, 84, 80
8, 25800, Note_on_c, 3, 84, 0
8, 25800, Note_on_c, 3, 82, 80
8, 25920, Note_on_c, 3, 82, 0
8, 25920, Note_on_c, 3, 81, 80
8, 26112, Note_on_c, 3, 81, 0
8, 26160, Note_on_c, 3, 81, 80
8, 26280, Note_on_c, 3, 81, 0
8, 26280, Note_on_c, 3, 79, 80
8, 26400, Note_on_c, 3, 79, 0
8, 26400, Note_on_c, 3, 77, 80
8, 26592, Note_on_c, 3, 77, 0
8, 26640, Note_on_c, 3, 77, 80
8, 26760, Note_on_c, 3, 77, 0
8, 26760, Note_on_c, 3, 75, 80
8, 26880, Note_on_c, 3, 75, 0
8, 26880, Note_on_c, 3, 74, 110
8, 26880, Note_on_c, 3, 82, 110
8, 27840, Note_on_c, 3, 82, 0
8, 27840, Note_on_c, 3, 74, 0
8, 27840, Note_on_c, 3, 77, 110
8, 28680, Note_on_c, 3, 77, 0
8, 28680, Note_on_c, 3, 77, 110
8, 28776, Note_on_c, 3, 77, 0
8, 28800, Note_on_c, 3, 75, 110
8, 28944, Note_on_c, 3, 75, 0
8, 29040, Note_on_c, 3, 79, 110
8, 29184, Note_on_c, 3, 79, 0
8, 29280, Note_on_c, 3, 82, 110
8, 29424, Note_on_c, 3, 82, 0
8, 29760, Note_on_c, 3, 74, 110
8, 29904, Note_on_c, 3, 74, 0
8, 30000, Note_on_c, 3, 77, 110
8, 30144, Note_on_c, 3, 77, 0
8, 30240, Note_on_c, 3, 82, 110
8, 30384, Note_on_c, 3, 82, 0
8, 30600, Note_on_c, 3, 74, 110
8, 30696, Note_on_c, 3, 74, 0
8, 30720, Note_on_c, 3, 72, 110
8, 30864, Note_on_c, 3, 72, 0
8, 30960, Note_on_c, 3, 75, 110
8, 31104, Note_on_c, 3, 75, 0
8, 31200, Note_on_c, 3, 79, 110
8, 31344, Note_on_c, 3, 79, 0
8, 31440, Note_on_c, 3, 72, 110
8, 31584, Note_on_c, 3, 72, 0
8, 31680, Note_on_c, 3, 70, 110
8, 31824, Note_on_c, 3, 70, 0
8, 31920, Note_on_c, 3, 74, 110
8, 32064, Note_on_c, 3, 74, 0
8, 32160, Note_on_c, 3, 77, 110
8, 32304, Note_on_c, 3, 77, 0
8, 32520, Note_on_c, 3, 77, 110
8, 32592, Note_on_c, 3, 77, 0
8, 32640, Note_on_c, 3, 76, 110
8, 32712, Note_on_c, 3, 76, 0
8, 32760, Note_on_c, 3, 77, 110
8, 32832, Note_on_c, 3, 77, 0
8, 32880, Note_on_c, 3, 79, 110
8, 32952, Note_on_c, 3, 79, 0
8, 33000, Note_on_c, 3, 81, 110
8, 33072, Note_on_c, 3, 81, 0
8, 33120, Note_on_c, 3, 82, 110
8, 33192, Note_on_c, 3, 82, 0
8, 33240, Note_on_c, 3, 84, 110
8, 33312, Note_on_c, 3, 84, 0
8, 33360, Note_on_c, 3, 85, 110
8, 33432, Note_on_c, 3, 85, 0
8, 33480, Note_on_c, 3, 77, 110
8, 33552, Note_on_c, 3, 77, 0
8, 33600, Note_on_c, 3, 76, 110
8, 33672, Note_on_c, 3, 76, 0
8, 33720, Note_on_c, 3, 77, 110
8, 33792, Note_on_c, 3, 77, 0
8, 33840, Note_on_c, 3, 79, 110
8, 33912, Note_on_c, 3, 79, 0
8, 33960, Note_on_c, 3, 81, 110
8, 34032, Note_on_c, 3, 81, 0
8, 34080, Note_on_c, 3, 82, 110
8, 34152, Note_on_c, 3, 82, 0
8, 34200, Note_on_c, 3, 84, 110
8, 34272, Note_on_c, 3, 84, 0
8, 34320, Note_on_c, 3, 85, 110
8, 34392, Note_on_c, 3, 85, 0
8, 34440, Note_on_c, 3, 77, 110
8, 34512, Note_on_c, 3, 77, 0
8, 34560, Note_on_c, 3, 76, 110
8, 34632, Note_on_c, 3, 76, 0
8, 34680, Note_on_c, 3, 77, 110
8, 34752, Note_on_c, 3, 77, 0
8, 34800, Note_on_c, 3, 79, 110
8, 34872, Note_on_c, 3, 79, 0
8, 34920, Note_on_c, 3, 81, 110
8, 34992, Note_on_c, 3, 81, 0
8, 35040, Note_on_c, 3, 82, 110
8, 35112, Note_on_c, 3, 82, 0
8, 35160, Note_on_c, 3, 84, 110
8, 35232, Note_on_c, 3, 84, 0
8, 35280, Note_on_c, 3, 85, 110
8, 35352, Note_on_c, 3, 85, 0
8, 35400, Note_on_c, 3, 77, 110
8, 35472, Note_on_c, 3, 77, 0
8, 35520, Note_on_c, 3, 76, 110
8, 35592, Note_on_c, 3, 76, 0
8, 35640, Note_on_c, 3, 77, 110
8, 35712, Note_on_c, 3, 77, 0
8, 35760, Note_on_c, 3, 79, 110
8, 35832, Note_on_c, 3, 79, 0
8, 35880, Note_on_c, 3, 81, 110
8, 35952, Note_on_c, 3, 81, 0
8, 36000, Note_on_c, 3, 82, 110
8, 36072, Note_on_c, 3, 82, 0
8, 36120, Note_on_c, 3, 84, 110
8, 36192, Note_on_c, 3, 84, 0
8, 36240, Note_on_c, 3, 85, 110
8, 36312, Note_on_c, 3, 85, 0
8, 36360, Note_on_c, 3, 76, 110
8, 36432, Note_on_c, 3, 76, 0
8, 36480, Note_on_c, 3, 77, 110
8, 36864, Note_on_c, 3, 77, 0
8, 36960, Note_on_c, 3, 84, 110
8, 37104, Note_on_c, 3, 84, 0
8, 37200, Note_on_c, 3, 81, 110
8, 37344, Note_on_c, 3, 81, 0
8, 37440, Note_on_c, 3, 85, 110
8, 37824, Note_on_c, 3, 85, 0
8, 37920, Note_on_c, 3, 76, 110
8, 38064, Note_on_c, 3, 76, 0
8, 38160, Note_on_c, 3, 79, 110
8, 38304, Note_on_c, 3, 79, 0
8, 38400, Note_on_c, 3, 77, 110
8, 38784, Note_on_c, 3, 77, 0
8, 38880, Note_on_c, 3, 84, 110
8, 38952, Note_on_c, 3, 84, 0
8, 39000, Note_on_c, 3, 81, 110
8, 39072, Note_on_c, 3, 81, 0
8, 39120, Note_on_c, 3, 84, 110
8, 39192, Note_on_c, 3, 84, 0
8, 39240, Note_on_c, 3, 81, 110
8, 39312, Note_on_c, 3, 81, 0
8, 39360, Note_on_c, 3, 85, 110
8, 39432, Note_on_c, 3, 85, 0
8, 39480, Note_on_c, 3, 82, 110
8, 39552, Note_on_c, 3, 82, 0
8, 39600, Note_on_c, 3, 85, 110
8, 39672, Note_on_c, 3, 85, 0
8, 39720, Note_on_c, 3, 82, 110
8, 39792, Note_on_c, 3, 82, 0
8, 39840, Note_on_c, 3, 76, 110
8, 39912, Note_on_c, 3, 76, 0
8, 39960, Note_on_c, 3, 79, 110
8, 40032, Note_on_c, 3, 79, 0
8, 40080, Note_on_c, 3, 76, 110
8, 40152, Note_on_c, 3, 76, 0
8, 40200, Note_on_c, 3, 79, 110
8, 40272, Note_on_c, 3, 79, 0
8, 40320, Note_on_c, 3, 77, 110
8, 40560, Note_on_c, 3, 77, 0
8, 40800, Note_on_c, 3, 57, 77
8, 40800, Note_on_c, 3, 65, 77
8, 41040, Note_on_c, 3, 65, 0
8, 41040, Note_on_c, 3, 57, 0
8, 42240, Note_on_c, 3, 77, 80
8, 42960, Note_on_c, 3, 77, 0
8, 42960, Note_on_c, 3, 76, 80
8, 43200, Note_on_c, 3, 76, 0
8, 43200, Note_on_c, 3, 75, 80
8, 43560, Note_on_c, 3, 75, 0
8, 44400, Note_on_c, 3, 70, 80
8, 44544, Note_on_c, 3, 70, 0
8, 44640, Note_on_c, 3, 70, 80
8, 44880, Note_on_c, 3, 70, 0
8, 44880, Note_on_c, 3, 72, 80
8, 45120, Note_on_c, 3, 72, 0
8, 45120, Note_on_c, 3, 74, 80
8, 45480, Note_on_c, 3, 74, 0
8, 45480, Note_on_c, 3, 75, 80
8, 45600, Note_on_c, 3, 75, 0
8, 45600, Note_on_c, 3, 72, 80
8, 45888, Note_on_c, 3, 72, 0
8, 46080, Note_on_c, 3, 79, 80
8, 46800, Note_on_c, 3, 79, 0
8, 46800, Note_on_c, 3, 78, 80
8, 47040, Note_on_c, 3, 78, 0
8, 47040, Note_on_c, 3, 77, 80
8, 47280, Note_on_c, 3, 77, 0
8, 47280, Note_on_c, 3, 76, 80
8, 47520, Note_on_c, 3, 76, 0
8, 47520, Note_on_c, 3, 75, 80
8, 47760, Note_on_c, 3, 75, 0
8, 47760, Note_on_c, 3, 74, 80
8, 48000, Note_on_c, 3, 74, 0
8, 48000, Note_on_c, 3, 72, 80
8, 48240, Note_on_c, 3, 72, 0
8, 48240, Note_on_c, 3, 75, 80
8, 48720, Note_on_c, 3, 75, 0
8, 48720, Note_on_c, 3, 69, 80
8, 48960, Note_on_c, 3, 69, 0
8, 48960, Note_on_c, 3, 70, 80
8, 49320, Note_on_c, 3, 70, 0
8, 50880, Note_on_c, 3, 75, 80
8, 51600, Note_on_c, 3, 75, 0
8, 51600, Note_on_c, 3, 77, 80
8, 51660, Note_on_c, 3, 77, 0
8, 51660, Note_on_c, 3, 75, 80
8, 51720, Note_on_c, 3, 75, 0
8, 51720, Note_on_c, 3, 74, 80
8, 51780, Note_on_c, 3, 74, 0
8, 51780, Note_on_c, 3, 72, 80
8, 51840, Note_on_c, 3, 72, 0
8, 51840, Note_on_c, 3, 70, 64
8, 52128, Note_on_c, 3, 70, 0
8, 53760, Note_on_c, 3, 67, 80
8, 54480, Note_on_c, 3, 67, 0
8, 54480, Note_on_c, 3, 66, 80
8, 54720, Note_on_c, 3, 66, 0
8, 54720, Note_on_c, 3, 65, 80
8, 54960, Note_on_c, 3, 65, 0
8, 54960, Note_on_c, 3, 64, 80
8, 55200, Note_on_c, 3, 64, 0
8, 55200, Note_on_c, 3, 63, 80
8, 55440, Note_on_c, 3, 63, 0
8, 55440, Note_on_c, 3, 62, 80
8, 55680, Note_on_c, 3, 62, 0
8, 55680, Note_on_c, 3, 61, 80
8, 56400, Note_on_c, 3, 61, 0
8, 56400, Note_on_c, 3, 60, 80
8, 56640, Note_on_c, 3, 60, 0
8, 56640, Note_on_c, 3, 61, 80
8, 57360, Note_on_c, 3, 61, 0
8, 57360, Note_on_c, 3, 60, 80
8, 57600, Note_on_c, 3, 60, 0
8, 57600, Note_on_c, 3, 61, 80
8, 58320, Note_on_c, 3, 61, 0
8, 58320, Note_on_c, 3, 60, 80
8, 58560, Note_on_c, 3, 60, 0
8, 58560, Note_on_c, 3, 61, 80
8, 59280, Note_on_c, 3, 61, 0
8, 59280, Note_on_c, 3, 60, 80
8, 59520, Note_on_c, 3, 60, 0
8, 59520, Note_on_c, 3, 61, 75
8, 59616, Note_on_c, 3, 61, 0
8, 59640, Note_on_c, 3, 73, 78
8, 59736, Note_on_c, 3, 73, 0
8, 59760, Note_on_c, 3, 73, 81
8, 59856, Note_on_c, 3, 73, 0
8, 59880, Note_on_c, 3, 73, 84
8, 59976, Note_on_c, 3, 73, 0
8, 60000, Note_on_c, 3, 73, 88
8, 60096, Note_on_c, 3, 73, 0
8, 60120, Note_on_c, 3, 73, 91
8, 60216, Note_on_c, 3, 73, 0
8, 60240, Note_on_c, 3, 73, 94
8, 60336, Note_on_c, 3, 73, 0
8, 60360, Note_on_c, 3, 73, 97
8, 60456, Note_on_c, 3, 73, 0
8, 60480, Note_on_c, 3, 73, 100
8, 60576, Note_on_c, 3, 73, 0
8, 60600, Note_on_c, 3, 85, 101
8, 60696, Note_on_c, 3, 85, 0
8, 60720, Note_on_c, 3, 85, 103
8, 60816, Note_on_c, 3, 85, 0
8, 60840, Note_on_c, 3, 85, 104
8, 60936, Note_on_c, 3, 85, 0
8, 60960, Note_on_c, 3, 85, 105
8, 61056, Note_on_c, 3, 85, 0
8, 61080, Note_on_c, 3, 85, 106
8, 61176, Note_on_c, 3, 85, 0
8, 61200, Note_on_c, 3, 85, 108
8, 61296, Note_on_c, 3, 85, 0
8, 61320, Note_on_c, 3, 85, 109
8, 61416, Note_on_c, 3, 85, 0
8, 61440, Note_on_c, 3, 86, 110
8, 62400, Note_on_c, 3, 86, 0
8, 62400, Note_on_c, 3, 81, 110
8, 62460, Note_on_c, 3, 81, 0
8, 62460, Note_on_c, 3, 82, 110
8, 62520, Note_on_c, 3, 82, 0
8, 62520, Note_on_c, 3, 81, 110
8, 62580, Note_on_c, 3, 81, 0
8, 62580, Note_on_c, 3, 82, 110
8, 62640, Note_on_c, 3, 82, 0
8, 62640, Note_on_c, 3, 81, 110
8, 62700, Note_on_c, 3, 81, 0
8, 62700, Note_on_c, 3, 82, 110
8, 62760, Note_on_c, 3, 82, 0
8, 62760, Note_on_c, 3, 81, 110
8, 62820, Note_on_c, 3, 81, 0
8, 62820, Note_on_c, 3, 82, 110
8, 62880, Note_on_c, 3, 82, 0
8, 62880, Note_on_c, 3, 81, 110
8, 62940, Note_on_c, 3, 81, 0
8, 62940, Note_on_c, 3, 82, 110
8, 63000, Note_on_c, 3, 82, 0
8, 63000, Note_on_c, 3, 81, 110
8, 63060, Note_on_c, 3, 81, 0
8, 63060, Note_on_c, 3, 82, 110
8, 63120, Note_on_c, 3, 82, 0
8, 63120, Note_on_c, 3, 81, 110
8, 63180, Note_on_c, 3, 81, 0
8, 63180, Note_on_c, 3, 82, 110
8, 63240, Note_on_c, 3, 82, 0
8, 63240, Note_on_c, 3, 79, 110
8, 63300, Note_on_c, 3, 79, 0
8, 63300, Note_on_c, 3, 81, 110
8, 63360, Note_on_c, 3, 81, 0
8, 63360, Note_on_c, 3, 82, 110
8, 63504, Note_on_c, 3, 82, 0
8, 63600, Note_on_c, 3, 62, 110
8, 63672, Note_on_c, 3, 62, 0
8, 63720, Note_on_c, 3, 62, 110
8, 63792, Note_on_c, 3, 62, 0
8, 63840, Note_on_c, 3, 62, 110
8, 63912, Note_on_c, 3, 62, 0
8, 63960, Note_on_c, 3, 62, 110
8, 64032, Note_on_c, 3, 62, 0
8, 64080, Note_on_c, 3, 63, 110
8, 64152, Note_on_c, 3, 63, 0
8, 64200, Note_on_c, 3, 63, 110
8, 64272, Note_on_c, 3, 63, 0
8, 64320, Note_on_c, 3, 64, 110
8, 64392, Note_on_c, 3, 64, 0
8, 64440, Note_on_c, 3, 64, 110
8, 64512, Note_on_c, 3, 64, 0
8, 64560, Note_on_c, 3, 65, 110
8, 64632, Note_on_c, 3, 65, 0
8, 64680, Note_on_c, 3, 65, 110
8, 64752, Note_on_c, 3, 65, 0
8, 64800, Note_on_c, 3, 66, 110
8, 64872, Note_on_c, 3, 66, 0
8, 64920, Note_on_c, 3, 66, 110
8, 64992, Note_on_c, 3, 66, 0
8, 65040, Note_on_c, 3, 67, 110
8, 65112, Note_on_c, 3, 67, 0
8, 65160, Note_on_c, 3, 67, 110
8, 65232, Note_on_c, 3, 67, 0
8, 65280, Note_on_c, 3, 68, 110
8, 65472, Note_on_c, 3, 68, 0
8, 65700, Note_on_c, 3, 68, 127
8, 65748, Note_on_c, 3, 68, 0
8, 65760, Note_on_c, 3, 67, 110
8, 65952, Note_on_c, 3, 67, 0
8, 66180, Note_on_c, 3, 67, 127
8, 66228, Note_on_c, 3, 67, 0
8, 66240, Note_on_c, 3, 75, 110
8, 66432, Note_on_c, 3, 75, 0
8, 66660, Note_on_c, 3, 75, 127
8, 66708, Note_on_c, 3, 75, 0
8, 66720, Note_on_c, 3, 74, 110
8, 66912, Note_on_c, 3, 74, 0
8, 67140, Note_on_c, 3, 74, 127
8, 67188, Note_on_c, 3, 74, 0
8, 67200, Note_on_c, 3, 79, 110
8, 67776, Note_on_c, 3, 79, 0
8, 67800, Note_on_c, 3, 77, 90
8, 67890, Note_on_c, 3, 77, 0
8, 67920, Note_on_c, 3, 75, 90
8, 68010, Note_on_c, 3, 75, 0
8, 68040, Note_on_c, 3, 74, 90
8, 68130, Note_on_c, 3, 74, 0
8, 68160, Note_on_c, 3, 72, 90
8, 68250, Note_on_c, 3, 72, 0
8, 68280, Note_on_c, 3, 70, 90
8, 68370, Note_on_c, 3, 70, 0
8, 68400, Note_on_c, 3, 69, 90
8, 68490, Note_on_c, 3, 69, 0
8, 68520, Note_on_c, 3, 67, 90
8, 68610, Note_on_c, 3, 67, 0
8, 68640, Note_on_c, 3, 65, 90
8, 68730, Note_on_c, 3, 65, 0
8, 68760, Note_on_c, 3, 63, 90
8, 68850, Note_on_c, 3, 63, 0
8, 68880, Note_on_c, 3, 62, 90
8, 68970, Note_on_c, 3, 62, 0
8, 69000, Note_on_c, 3, 60, 90
8, 69090, Note_on_c, 3, 60, 0
8, 69120, Note_on_c, 3, 58, 80
8, 69312, Note_on_c, 3, 58, 0
8, 69600, Note_on_c, 3, 82, 80
8, 70560, Note_on_c, 3, 82, 0
8, 70560, Note_on_c, 3, 81, 80
8, 71040, Note_on_c, 3, 81, 0
8, 71520, Note_on_c, 3, 82, 80
8, 72480, Note_on_c, 3, 82, 0
8, 72480, Note_on_c, 3, 81, 80
8, 72960, Note_on_c, 3, 81, 0
8, 73680, Note_on_c, 3, 87, 110
8, 73800, Note_on_c, 3, 87, 0
8, 73800, Note_on_c, 3, 86, 110
8, 73920, Note_on_c, 3, 86, 0
8, 73920, Note_on_c, 3, 86, 110
8, 74112, Note_on_c, 3, 86, 0
8, 74160, Note_on_c, 3, 87, 110
8, 74280, Note_on_c, 3, 87, 0
8, 74280, Note_on_c, 3, 86, 110
8, 74400, Note_on_c, 3, 86, 0
8, 74400, Note_on_c, 3, 86, 110
8, 74592, Note_on_c, 3, 86, 0
8, 74640, Note_on_c, 3, 87, 110
8, 74760, Note_on_c, 3, 87, 0
8, 74760, Note_on_c, 3, 86, 110
8, 74880, Note_on_c, 3, 86, 0
8, 74880, Note_on_c, 3, 86, 110
8, 75264, Note_on_c, 3, 86, 0
8, 75360, Note_on_c, 3, 87, 110
8, 75648, Note_on_c, 3, 87, 0
8, 75720, Note_on_c, 3, 84, 110
8, 75816, Note_on_c, 3, 84, 0
8, 75840, Note_on_c, 3, 82, 110
8, 76128, Note_on_c, 3, 82, 0
8, 76200, Note_on_c, 3, 86, 110
8, 76296, Note_on_c, 3, 86, 0
8, 76320, Note_on_c, 3, 84, 110
8, 76608, Note_on_c, 3, 84, 0
8, 76680, Note_on_c, 3, 81, 110
8, 76776, Note_on_c, 3, 81, 0
8, 76800, Note_on_c, 3, 82, 110
8, 77040, Note_on_c, 3, 82, 0
8, 78240, Note_on_c, 3, 87, 64
8, 79200, Note_on_c, 3, 87, 0
8, 79200, Note_on_c, 3, 86, 64
8, 79440, Note_on_c, 3, 86, 0
8, 80160, Note_on_c, 3, 75, 80
8, 81120, Note_on_c, 3, 75, 0
8, 81120, Note_on_c, 3, 74, 80
8, 81360, Note_on_c, 3, 74, 0
8, 81360, Note_on_c, 3, 87, 110
8, 81480, Note_on_c, 3, 87, 0
8, 81480, Note_on_c, 3, 86, 110
8, 81600, Note_on_c, 3, 86, 0
8, 81600, Note_on_c, 3, 86, 110
8, 81792, Note_on_c, 3, 86, 0
8, 81840, Note_on_c, 3, 87, 110
8, 81960, Note_on_c, 3, 87, 0
8, 81960, Note_on_c, 3, 86, 110
8, 82080, Note_on_c, 3, 86, 0
8, 82080, Note_on_c, 3, 86, 110
8, 82272, Note_on_c, 3, 86, 0
8, 82320, Note_on_c, 3, 87, 110
8, 82440, Note_on_c, 3, 87, 0
8, 82440, Note_on_c, 3, 86, 110
8, 82560, Note_on_c, 3, 86, 0
8, 82560, Note_on_c, 3, 86, 110
8, 82944, Note_on_c, 3, 86, 0
8, 83040, Note_on_c, 3, 87, 110
8, 83328, Note_on_c, 3, 87, 0
8, 83400, Note_on_c, 3, 84, 110
8, 83496, Note_on_c, 3, 84, 0
8, 83520, Note_on_c, 3, 82, 110
8, 83808, Note_on_c, 3, 82, 0
8, 83880, Note_on_c, 3, 86, 110
8, 83976, Note_on_c, 3, 86, 0
8, 84000, Note_on_c, 3, 84, 110
8, 84288, Note_on_c, 3, 84, 0
8, 84360, Note_on_c, 3, 81, 110
8, 84456, Note_on_c, 3, 81, 0
8, 84480, Note_on_c, 3, 82, 127
8, 84576, Note_on_c, 3, 82, 0
8, 84600, Note_on_c, 3, 77, 127
8, 84696, Note_on_c, 3, 77, 0
8, 84720, Note_on_c, 3, 86, 127
8, 84792, Note_on_c, 3, 86, 0
8, 84840, Note_on_c, 3, 84, 127
8, 84912, Note_on_c, 3, 84, 0
8, 84960, Note_on_c, 3, 82, 127
8, 85032, Note_on_c, 3, 82, 0
8, 85080, Note_on_c, 3, 81, 127
8, 85152, Note_on_c, 3, 81, 0
8, 85200, Note_on_c, 3, 79, 127
8, 85272, Note_on_c, 3, 79, 0
8, 85320, Note_on_c, 3, 77, 127
8, 85392, Note_on_c, 3, 77, 0
8, 85440, Note_on_c, 3, 75, 127
8, 85512, Note_on_c, 3, 75, 0
8, 85560, Note_on_c, 3, 74, 127
8, 85632, Note_on_c, 3, 74, 0
8, 85680, Note_on_c, 3, 72, 127
8, 85752, Note_on_c, 3, 72, 0
8, 85800, Note_on_c, 3, 70, 127
8, 85872, Note_on_c, 3, 70, 0
8, 85920, Note_on_c, 3, 69, 127
8, 85992, Note_on_c, 3, 69, 0
8, 86040, Note_on_c, 3, 67, 127
8, 86112, Note_on_c, 3, 67, 0
8, 86160, Note_on_c, 3, 65, 127
8, 86232, Note_on_c, 3, 65, 0
8, 86280, Note_on_c, 3, 63, 127
8, 86352, Note_on_c, 3, 63, 0
8, 86400, Note_on_c, 3, 62, 127
8, 86544, Note_on_c, 3, 62, 0
8, 86640, Note_on_c, 3, 77, 127
8, 86784, Note_on_c, 3, 77, 0
8, 86880, Note_on_c, 3, 79, 127
8, 87024, Note_on_c, 3, 79, 0
8, 87120, Note_on_c, 3, 69, 127
8, 87264, Note_on_c, 3, 69, 0
8, 87360, Note_on_c, 3, 70, 127
8, 87432, Note_on_c, 3, 70, 0
8, 87480, Note_on_c, 3, 65, 127
8, 87552, Note_on_c, 3, 65, 0
8, 87600, Note_on_c, 3, 74, 127
8, 87672, Note_on_c, 3, 74, 0
8, 87720, Note_on_c, 3, 72, 127
8, 87792, Note_on_c, 3, 72, 0
8, 87840, Note_on_c, 3, 70, 127
8, 87912, Note_on_c, 3, 70, 0
8, 87960, Note_on_c, 3, 69, 127
8, 88032, Note_on_c, 3, 69, 0
8, 88080, Note_on_c, 3, 67, 127
8, 88152, Note_on_c, 3, 67, 0
8, 88200, Note_on_c, 3, 65, 127
8, 88272, Note_on_c, 3, 65, 0
8, 88320, Note_on_c, 3, 63, 127
8, 88392, Note_on_c, 3, 63, 0
8, 88440, Note_on_c, 3, 62, 127
8, 88512, Note_on_c, 3, 62, 0
8, 88560, Note_on_c, 3, 60, 127
8, 88632, Note_on_c, 3, 60, 0
8, 88680, Note_on_c, 3, 58, 127
8, 88752, Note_on_c, 3, 58, 0
8, 88800, Note_on_c, 3, 57, 127
8, 88872, Note_on_c, 3, 57, 0
8, 88920, Note_on_c, 3, 60, 127
8, 88992, Note_on_c, 3, 60, 0
8, 89040, Note_on_c, 3, 65, 127
8, 89112, Note_on_c, 3, 65, 0
8, 89160, Note_on_c, 3, 63, 127
8, 89232, Note_on_c, 3, 63, 0
8, 89280, Note_on_c, 3, 62, 127
8, 89424, Note_on_c, 3, 62, 0
8, 89520, Note_on_c, 3, 77, 127
8, 89664, Note_on_c, 3, 77, 0
8, 89760, Note_on_c, 3, 79, 127
8, 89904, Note_on_c, 3, 79, 0
8, 90000, Note_on_c, 3, 81, 127
8, 90144, Note_on_c, 3, 81, 0
8, 90240, Note_on_c, 3, 82, 127
8, 90384, Note_on_c, 3, 82, 0
8, 90480, Note_on_c, 3, 79, 127
8, 90624, Note_on_c, 3, 79, 0
8, 90720, Note_on_c, 3, 77, 127
8, 90864, Note_on_c, 3, 77, 0
8, 90960, Note_on_c, 3, 69, 127
8, 91104, Note_on_c, 3, 69, 0
8, 91200, Note_on_c, 3, 70, 127
8, 91320, Note_on_c, 3, 70, 0
8, 91320, Note_on_c, 3, 74, 127
8, 91392, Note_on_c, 3, 74, 0
8, 91440, Note_on_c, 3, 77, 127
8, 91512, Note_on_c, 3, 77, 0
8, 91560, Note_on_c, 3, 82, 127
8, 91632, Note_on_c, 3, 82, 0
8, 91680, Note_on_c, 3, 81, 127
8, 91800, Note_on_c, 3, 81, 0
8, 91800, Note_on_c, 3, 77, 127
8, 91872, Note_on_c, 3, 77, 0
8, 91920, Note_on_c, 3, 84, 127
8, 91992, Note_on_c, 3, 84, 0
8, 92040, Note_on_c, 3, 81, 127
8, 92112, Note_on_c, 3, 81, 0
8, 92160, Note_on_c, 3, 82, 127
8, 92280, Note_on_c, 3, 82, 0
8, 92280, Note_on_c, 3, 77, 127
8, 92352, Note_on_c, 3, 77, 0
8, 92400, Note_on_c, 3, 86, 127
8, 92472, Note_on_c, 3, 86, 0
8, 92520, Note_on_c, 3, 82, 127
8, 92592, Note_on_c, 3, 82, 0
8, 92640, Note_on_c, 3, 81, 127
8, 92760, Note_on_c, 3, 81, 0
8, 92760, Note_on_c, 3, 77, 127
8, 92832, Note_on_c, 3, 77, 0
8, 92880, Note_on_c, 3, 84, 127
8, 92952, Note_on_c, 3, 84, 0
8, 93000, Note_on_c, 3, 81, 127
8, 93072, Note_on_c, 3, 81, 0
8, 93120, Note_on_c, 3, 82, 127
8, 93240, Note_on_c, 3, 82, 0
8, 93240, Note_on_c, 3, 77, 127
8, 93312, Note_on_c, 3, 77, 0
8, 93360, Note_on_c, 3, 86, 127
8, 93432, Note_on_c, 3, 86, 0
8, 93480, Note_on_c, 3, 82, 127
8, 93552, Note_on_c, 3, 82, 0
8, 93600, Note_on_c, 3, 81, 127
8, 93720, Note_on_c, 3, 81, 0
8, 93720, Note_on_c, 3, 77, 127
8, 93792, Note_on_c, 3, 77, 0
8, 93840, Note_on_c, 3, 84, 127
8, 93912, Note_on_c, 3, 84, 0
8, 93960, Note_on_c, 3, 81, 127
8, 94032, Note_on_c, 3, 81, 0
8, 94080, Note_on_c, 3, 82, 127
8, 94200, Note_on_c, 3, 82, 0
8, 94200, Note_on_c, 3, 86, 127
8, 94272, Note_on_c, 3, 86, 0
8, 94320, Note_on_c, 3, 84, 127
8, 94392, Note_on_c, 3, 84, 0
8, 94440, Note_on_c, 3, 81, 127
8, 94512, Note_on_c, 3, 81, 0
8, 94560, Note_on_c, 3, 82, 127
8, 94680, Note_on_c, 3, 82, 0
8, 94680, Note_on_c, 3, 86, 127
8, 94752, Note_on_c, 3, 86, 0
8, 94800, Note_on_c, 3, 84, 127
8, 94872, Note_on_c, 3, 84, 0
8, 94920, Note_on_c, 3, 81, 127
8, 94992, Note_on_c, 3, 81, 0
8, 95040, Note_on_c, 3, 82, 127
8, 95400, Note_on_c, 3, 82, 0
8, 96000, Note_on_c, 3, 62, 127
8, 96000, Note_on_c, 3, 72, 127
8, 96000, Note_on_c, 3, 78, 127
8, 96360, Note_on_c, 3, 78, 0
8, 96360, Note_on_c, 3, 72, 0
8, 96360, Note_on_c, 3, 62, 0
8, 97680, Note_on_c, 3, 75, 80
8, 97800, Note_on_c, 3, 75, 0
8, 97800, Note_on_c, 3, 74, 80
8, 97920, Note_on_c, 3, 74, 0
8, 97920, Note_on_c, 3, 74, 80
8, 98112, Note_on_c, 3, 74, 0
8, 98160, Note_on_c, 3, 75, 80
8, 98280, Note_on_c, 3, 75, 0
8, 98280, Note_on_c, 3, 74, 80
8, 98400, Note_on_c, 3, 74, 0
8, 98400, Note_on_c, 3, 74, 80
8, 98592, Note_on_c, 3, 74, 0
8, 98640, Note_on_c, 3, 75, 80
8, 98760, Note_on_c, 3, 75, 0
8, 98760, Note_on_c, 3, 74, 80
8, 98880, Note_on_c, 3, 74, 0
8, 98880, Note_on_c, 3, 74, 80
8, 99120, Note_on_c, 3, 74, 0
8, 99120, Note_on_c, 3, 82, 80
8, 99312, Note_on_c, 3, 82, 0
8, 99600, Note_on_c, 3, 82, 80
8, 99720, Note_on_c, 3, 82, 0
8, 99720, Note_on_c, 3, 81, 80
8, 99840, Note_on_c, 3, 81, 0
8, 99840, Note_on_c, 3, 79, 80
8, 100032, Note_on_c, 3, 79, 0
8, 100080, Note_on_c, 3, 79, 80
8, 100200, Note_on_c, 3, 79, 0
8, 100200, Note_on_c, 3, 77, 80
8, 100320, Note_on_c, 3, 77, 0
8, 100320, Note_on_c, 3, 75, 80
8, 100512, Note_on_c, 3, 75, 0
8, 100560, Note_on_c, 3, 75, 80
8, 100680, Note_on_c, 3, 75, 0
8, 100680, Note_on_c, 3, 74, 80
8, 100800, Note_on_c, 3, 74, 0
8, 100800, Note_on_c, 3, 72, 80
8, 100992, Note_on_c, 3, 72, 0
8, 101040, Note_on_c, 3, 72, 80
8, 101232, Note_on_c, 3, 72, 0
8, 101520, Note_on_c, 3, 74, 80
8, 101640, Note_on_c, 3, 74, 0
8, 101640, Note_on_c, 3, 72, 80
8, 101760, Note_on_c, 3, 72, 0
8, 101760, Note_on_c, 3, 72, 80
8, 101952, Note_on_c, 3, 72, 0
8, 102000, Note_on_c, 3, 74, 80
8, 102120, Note_on_c, 3, 74, 0
8, 102120, Note_on_c, 3, 72, 80
8, 102240, Note_on_c, 3, 72, 0
8, 102240, Note_on_c, 3, 72, 80
8, 102432, Note_on_c, 3, 72, 0
8, 102480, Note_on_c, 3, 74, 80
8, 102600, Note_on_c, 3, 74, 0
8, 102600, Note_on_c, 3, 72, 80
8, 102720, Note_on_c, 3, 72, 0
8, 102720, Note_on_c, 3, 72, 80
8, 102960, Note_on_c, 3, 72, 0
8, 102960, Note_on_c, 3, 81, 80
8, 103152, Note_on_c, 3, 81, 0
8, 103440, Note_on_c, 3, 81, 80
8, 103560, Note_on_c, 3, 81, 0
8, 103560, Note_on_c, 3, 79, 80
8, 103680, Note_on_c, 3, 79, 0
8, 103680, Note_on_c, 3, 78, 80
8, 103872, Note_on_c, 3, 78, 0
8, 103920, Note_on_c, 3, 78, 80
8, 104040, Note_on_c, 3, 78, 0
8, 104040, Note_on_c, 3, 75, 80
8, 104160, Note_on_c, 3, 75, 0
8, 104160, Note_on_c, 3, 74, 80
8, 104352, Note_on_c, 3, 74, 0
8, 104400, Note_on_c, 3, 74, 80
8, 104520, Note_on_c, 3, 74, 0
8, 104520, Note_on_c, 3, 72, 80
8, 104640, Note_on_c, 3, 72, 0
8, 104640, Note_on_c, 3, 70, 80
8, 104832, Note_on_c, 3, 70, 0
8, 104880, Note_on_c, 3, 70, 80
8, 105072, Note_on_c, 3, 70, 0
8, 105360, Note_on_c, 3, 82, 80
8, 105480, Note_on_c, 3, 82, 0
8, 105480, Note_on_c, 3, 81, 80
8, 105600, Note_on_c, 3, 81, 0
8, 105600, Note_on_c, 3, 81, 80
8, 105840, Note_on_c, 3, 81, 0
8, 105840, Note_on_c, 3, 84, 80
8, 106080, Note_on_c, 3, 84, 0
8, 106080, Note_on_c, 3, 78, 80
8, 106320, Note_on_c, 3, 78, 0
8, 106320, Note_on_c, 3, 81, 80
8, 106560, Note_on_c, 3, 81, 0
8, 106560, Note_on_c, 3, 79, 80
8, 106800, Note_on_c, 3, 79, 0
8, 106800, Note_on_c, 3, 74, 80
8, 106992, Note_on_c, 3, 74, 0
8, 107280, Note_on_c, 3, 82, 80
8, 107400, Note_on_c, 3, 82, 0
8, 107400, Note_on_c, 3, 81, 80
8, 107520, Note_on_c, 3, 81, 0
8, 107520, Note_on_c, 3, 81, 80
8, 107760, Note_on_c, 3, 81, 0
8, 107760, Note_on_c, 3, 84, 80
8, 108000, Note_on_c, 3, 84, 0
8, 108000, Note_on_c, 3, 78, 80
8, 108240, Note_on_c, 3, 78, 0
8, 108240, Note_on_c, 3, 81, 80
8, 108480, Note_on_c, 3, 81, 0
8, 108480, Note_on_c, 3, 79, 80
8, 108720, Note_on_c, 3, 79, 0
8, 108720, Note_on_c, 3, 82, 80
8, 108960, Note_on_c, 3, 82, 0
8, 108960, Note_on_c, 3, 81, 80
8, 109080, Note_on_c, 3, 81, 0
8, 109080, Note_on_c, 3, 79, 80
8, 109200, Note_on_c, 3, 79, 0
8, 109200, Note_on_c, 3, 77, 80
8, 109320, Note_on_c, 3, 77, 0
8, 109320, Note_on_c, 3, 75, 80
8, 109440, Note_on_c, 3, 75, 0
8, 109440, Note_on_c, 3, 74, 80
8, 110400, Note_on_c, 3, 74, 0
8, 110400, Note_on_c, 3, 73, 80
8, 111360, Note_on_c, 3, 73, 0
8, 111360, Note_on_c, 3, 74, 80
8, 111744, Note_on_c, 3, 74, 0
8, 112080, Note_on_c, 3, 62, 110
8, 112176, Note_on_c, 3, 62, 0
8, 112200, Note_on_c, 3, 62, 110
8, 112296, Note_on_c, 3, 62, 0
8, 112320, Note_on_c, 3, 62, 110
8, 112704, Note_on_c, 3, 62, 0
8, 113040, Note_on_c, 3, 62, 110
8, 113136, Note_on_c, 3, 62, 0
8, 113160, Note_on_c, 3, 62, 110
8, 113256, Note_on_c, 3, 62, 0
8, 113280, Note_on_c, 3, 62, 110
8, 113664, Note_on_c, 3, 62, 0
8, 114000, Note_on_c, 3, 62, 110
8, 114096, Note_on_c, 3, 62, 0
8, 114120, Note_on_c, 3, 62, 110
8, 114216, Note_on_c, 3, 62, 0
8, 114240, Note_on_c, 3, 62, 110
8, 114432, Note_on_c, 3, 62, 0
8, 114480, Note_on_c, 3, 62, 105
8, 114576, Note_on_c, 3, 62, 0
8, 114600, Note_on_c, 3, 62, 102
8, 114696, Note_on_c, 3, 62, 0
8, 114720, Note_on_c, 3, 62, 100
8, 114912, Note_on_c, 3, 62, 0
8, 114960, Note_on_c, 3, 62, 95
8, 115056, Note_on_c, 3, 62, 0
8, 115080, Note_on_c, 3, 62, 92
8, 115176, Note_on_c, 3, 62, 0
8, 115200, Note_on_c, 3, 62, 80
8, 115584, Note_on_c, 3, 62, 0
8, 115920, Note_on_c, 3, 75, 80
8, 116040, Note_on_c, 3, 75, 0
8, 116040, Note_on_c, 3, 74, 80
8, 116160, Note_on_c, 3, 74, 0
8, 116160, Note_on_c, 3, 74, 80
8, 116352, Note_on_c, 3, 74, 0
8, 116400, Note_on_c, 3, 75, 80
8, 116520, Note_on_c, 3, 75, 0
8, 116520, Note_on_c, 3, 74, 80
8, 116640, Note_on_c, 3, 74, 0
8, 116640, Note_on_c, 3, 74, 80
8, 116832, Note_on_c, 3, 74, 0
8, 116880, Note_on_c, 3, 75, 80
8, 117000, Note_on_c, 3, 75, 0
8, 117000, Note_on_c, 3, 74, 80
8, 117120, Note_on_c, 3, 74, 0
8, 117120, Note_on_c, 3, 74, 80
8, 117360, Note_on_c, 3, 74, 0
8, 117360, Note_on_c, 3, 82, 80
8, 117552, Note_on_c, 3, 82, 0
8, 117840, Note_on_c, 3, 82, 80
8, 117960, Note_on_c, 3, 82, 0
8, 117960, Note_on_c, 3, 81, 80
8, 118080, Note_on_c, 3, 81, 0
8, 118080, Note_on_c, 3, 79, 80
8, 118272, Note_on_c, 3, 79, 0
8, 118320, Note_on_c, 3, 79, 80
8, 118440, Note_on_c, 3, 79, 0
8, 118440, Note_on_c, 3, 77, 80
8, 118560, Note_on_c, 3, 77, 0
8, 118560, Note_on_c, 3, 75, 80
8, 118752, Note_on_c, 3, 75, 0
8, 118800, Note_on_c, 3, 75, 80
8, 118920, Note_on_c, 3, 75, 0
8, 118920, Note_on_c, 3, 74, 80
8, 119040, Note_on_c, 3, 74, 0
8, 119040, Note_on_c, 3, 72, 80
8, 119232, Note_on_c, 3, 72, 0
8, 119280, Note_on_c, 3, 72, 80
8, 119472, Note_on_c, 3, 72, 0
8, 119760, Note_on_c, 3, 77, 80
8, 119880, Note_on_c, 3, 77, 0
8, 119880, Note_on_c, 3, 75, 80
8, 120000, Note_on_c, 3, 75, 0
8, 120000, Note_on_c, 3, 75, 80
8, 120192, Note_on_c, 3, 75, 0
8, 120240, Note_on_c, 3, 77, 80
8, 120360, Note_on_c, 3, 77, 0
8, 120360, Note_on_c, 3, 75, 80
8, 120480, Note_on_c, 3, 75, 0
8, 120480, Note_on_c, 3, 75, 80
8, 120672, Note_on_c, 3, 75, 0
8, 120720, Note_on_c, 3, 77, 80
8, 120840, Note_on_c, 3, 77, 0
8, 120840, Note_on_c, 3, 75, 80
8, 120960, Note_on_c, 3, 75, 0
8, 120960, Note_on_c, 3, 75, 80
8, 121200, Note_on_c, 3, 75, 0
8, 121200, Note_on_c, 3, 84, 80
8, 121392, Note_on_c, 3, 84, 0
8, 121680, Note_on_c, 3, 84, 80
8, 121800, Note_on_c, 3, 84, 0
8, 121800, Note_on_c, 3, 82, 80
8, 121920, Note_on_c, 3, 82, 0
8, 121920, Note_on_c, 3, 81, 80
8, 122112, Note_on_c, 3, 81, 0
8, 122160, Note_on_c, 3, 81, 80
8, 122280, Note_on_c, 3, 81, 0
8, 122280, Note_on_c, 3, 79, 80
8, 122400, Note_on_c, 3, 79, 0
8, 122400, Note_on_c, 3, 77, 80
8, 122592, Note_on_c, 3, 77, 0
8, 122640, Note_on_c, 3, 77, 80
8, 122760, Note_on_c, 3, 77, 0
8, 122760, Note_on_c, 3, 75, 80
8, 122880, Note_on_c, 3, 75, 0
8, 122880, Note_on_c, 3, 82, 110
8, 122880, Note_on_c, 3, 74, 110
8, 123840, Note_on_c, 3, 74, 0
8, 123840, Note_on_c, 3, 82, 0
8, 123840, Note_on_c, 3, 77, 110
8, 124680, Note_on_c, 3, 77, 0
8, 124680, Note_on_c, 3, 77, 110
8, 124776, Note_on_c, 3, 77, 0
8, 124800, Note_on_c, 3, 75, 110
8, 124944, Note_on_c, 3, 75, 0
8, 125040, Note_on_c, 3, 79, 110
8, 125184, Note_on_c, 3, 79, 0
8, 125280, Note_on_c, 3, 82, 110
8, 125424, Note_on_c, 3, 82, 0
8, 125760, Note_on_c, 3, 74, 110
8, 125904, Note_on_c, 3, 74, 0
8, 126000, Note_on_c, 3, 77, 110
8, 126144, Note_on_c, 3, 77, 0
8, 126240, Note_on_c, 3, 82, 110
8, 126384, Note_on_c, 3, 82, 0
8, 126600, Note_on_c, 3, 74, 110
8, 126696, Note_on_c, 3, 74, 0
8, 126720, Note_on_c, 3, 72, 110
8, 126864, Note_on_c, 3, 72, 0
8, 126960, Note_on_c, 3, 75, 110
8, 127104, Note_on_c, 3, 75, 0
8, 127200, Note_on_c, 3, 79, 110
8, 127344, Note_on_c, 3, 79, 0
8, 127440, Note_on_c, 3, 72, 110
8, 127584, Note_on_c, 3, 72, 0
8, 127680, Note_on_c, 3, 70, 110
8, 127824, Note_on_c, 3, 70, 0
8, 127920, Note_on_c, 3, 74, 110
8, 128064, Note_on_c, 3, 74, 0
8, 128160, Note_on_c, 3, 77, 110
8, 128304, Note_on_c, 3, 77, 0
8, 128520, Note_on_c, 3, 77, 110
8, 128592, Note_on_c, 3, 77, 0
8, 128640, Note_on_c, 3, 76, 110
8, 128712, Note_on_c, 3, 76, 0
8, 128760, Note_on_c, 3, 77, 110
8, 128832, Note_on_c, 3, 77, 0
8, 128880, Note_on_c, 3, 79, 110
8, 128952, Note_on_c, 3, 79, 0
8, 129000, Note_on_c, 3, 81, 110
8, 129072, Note_on_c, 3, 81, 0
8, 129120, Note_on_c, 3, 82, 110
8, 129192, Note_on_c, 3, 82, 0
8, 129240, Note_on_c, 3, 84, 110
8, 129312, Note_on_c, 3, 84, 0
8, 129360, Note_on_c, 3, 85, 110
8, 129432, Note_on_c, 3, 85, 0
8, 129480, Note_on_c, 3, 77, 110
8, 129552, Note_on_c, 3, 77, 0
8, 129600, Note_on_c, 3, 76, 110
8, 129672, Note_on_c, 3, 76, 0
8, 129720, Note_on_c, 3, 77, 110
8, 129792, Note_on_c, 3, 77, 0
8, 129840, Note_on_c, 3, 79, 110
8, 129912, Note_on_c, 3, 79, 0
8, 129960, Note_on_c, 3, 81, 110
8, 130032, Note_on_c, 3, 81, 0
8, 130080, Note_on_c, 3, 82, 110
8, 130152, Note_on_c, 3, 82, 0
8, 130200, Note_on_c, 3, 84, 110
8, 130272, Note_on_c, 3, 84, 0
8, 130320, Note_on_c, 3, 85, 110
8, 130392, Note_on_c, 3, 85, 0
8, 130440, Note_on_c, 3, 77, 110
8, 130512, Note_on_c, 3, 77, 0
8, 130560, Note_on_c, 3, 76, 110
8, 130632, Note_on_c, 3, 76, 0
8, 130680, Note_on_c, 3, 77, 110
8, 130752, Note_on_c, 3, 77, 0
8, 130800, Note_on_c, 3, 79, 110
8, 130872, Note_on_c, 3, 79, 0
8, 130920, Note_on_c, 3, 81, 110
8, 130992, Note_on_c, 3, 81, 0
8, 131040, Note_on_c, 3, 82, 110
8, 131112, Note_on_c, 3, 82, 0
8, 131160, Note_on_c, 3, 84, 110
8, 131232, Note_on_c, 3, 84, 0
8, 131280, Note_on_c, 3, 85, 110
8, 131352, Note_on_c, 3, 85, 0
8, 131400, Note_on_c, 3, 77, 110
8, 131472, Note_on_c, 3, 77, 0
8, 131520, Note_on_c, 3, 76, 110
8, 131592, Note_on_c, 3, 76, 0
8, 131640, Note_on_c, 3, 77, 110
8, 131712, Note_on_c, 3, 77, 0
8, 131760, Note_on_c, 3, 79, 110
8, 131832, Note_on_c, 3, 79, 0
8, 131880, Note_on_c, 3, 81, 110
8, 131952, Note_on_c, 3, 81, 0
8, 132000, Note_on_c, 3, 82, 110
8, 132072, Note_on_c, 3, 82, 0
8, 132120, Note_on_c, 3, 84, 110
8, 132192, Note_on_c, 3, 84, 0
8, 132240, Note_on_c, 3, 85, 110
8, 132312, Note_on_c, 3, 85, 0
8, 132360, Note_on_c, 3, 76, 110
8, 132432, Note_on_c, 3, 76, 0
8, 132480, Note_on_c, 3, 77, 110
8, 132864, Note_on_c, 3, 77, 0
8, 132960, Note_on_c, 3, 84, 110
8, 133104, Note_on_c, 3, 84, 0
8, 133200, Note_on_c, 3, 81, 110
8, 133344, Note_on_c, 3, 81, 0
8, 133440, Note_on_c, 3, 85, 110
8, 133824, Note_on_c, 3, 85, 0
8, 133920, Note_on_c, 3, 76, 110
8, 134064, Note_on_c, 3, 76, 0
8, 134160, Note_on_c, 3, 79, 110
8, 134304, Note_on_c, 3, 79, 0
8, 134400, Note_on_c, 3, 77, 110
8, 134784, Note_on_c, 3, 77, 0
8, 134880, Note_on_c, 3, 84, 110
8, 134952, Note_on_c, 3, 84, 0
8, 135000, Note_on_c, 3, 81, 110
8, 135072, Note_on_c, 3, 81, 0
8, 135120, Note_on_c, 3, 84, 110
8, 135192, Note_on_c, 3, 84, 0
8, 135240, Note_on_c, 3, 81, 110
8, 135312, Note_on_c, 3, 81, 0
8, 135360, Note_on_c, 3, 85, 110
8, 135432, Note_on_c, 3, 85, 0
8, 135480, Note_on_c, 3, 82, 110
8, 135552, Note_on_c, 3, 82, 0
8, 135600, Note_on_c, 3, 85, 110
8, 135672, Note_on_c, 3, 85, 0
8, 135720, Note_on_c, 3, 82, 110
8, 135792, Note_on_c, 3, 82, 0
8, 135840, Note_on_c, 3, 76, 110
8, 135912, Note_on_c, 3, 76, 0
8, 135960, Note_on_c, 3, 79, 110
8, 136032, Note_on_c, 3, 79, 0
8, 136080, Note_on_c, 3, 76, 110
8, 136152, Note_on_c, 3, 76, 0
8, 136200, Note_on_c, 3, 79, 110
8, 136272, Note_on_c, 3, 79, 0
8, 136320, Note_on_c, 3, 77, 110
8, 136560, Note_on_c, 3, 77, 0
8, 136800, Note_on_c, 3, 65, 77
8, 136800, Note_on_c, 3, 57, 77
8, 137040, Note_on_c, 3, 57, 0
8, 137040, Note_on_c, 3, 65, 0
8, 138240, Note_on_c, 3, 77, 80
8, 138960, Note_on_c, 3, 77, 0
8, 138960, Note_on_c, 3, 76, 80
8, 139200, Note_on_c, 3, 76, 0
8, 139200, Note_on_c, 3, 75, 80
8, 139560, Note_on_c, 3, 75, 0
8, 140400, Note_on_c, 3, 70, 80
8, 140544, Note_on_c, 3, 70, 0
8, 140640, Note_on_c, 3, 70, 80
8, 140880, Note_on_c, 3, 70, 0
8, 140880, Note_on_c, 3, 72, 80
8, 141120, Note_on_c, 3, 72, 0
8, 141120, Note_on_c, 3, 74, 80
8, 141480, Note_on_c, 3, 74, 0
8, 141480, Note_on_c, 3, 75, 80
8, 141600, Note_on_c, 3, 75, 0
8, 141600, Note_on_c, 3, 72, 80
8, 141888, Note_on_c, 3, 72, 0
8, 142080, Note_on_c, 3, 79, 80
8, 142800, Note_on_c, 3, 79, 0
8, 142800, Note_on_c, 3, 78, 80
8, 143040, Note_on_c, 3, 78, 0
8, 143040, Note_on_c, 3, 77, 80
8, 143280, Note_on_c, 3, 77, 0
8, 143280, Note_on_c, 3, 76, 80
8, 143520, Note_on_c, 3, 76, 0
8, 143520, Note_on_c, 3, 75, 80
8, 143760, Note_on_c, 3, 75, 0
8, 143760, Note_on_c, 3, 74, 80
8, 144000, Note_on_c, 3, 74, 0
8, 144000, Note_on_c, 3, 72, 80
8, 144240, Note_on_c, 3, 72, 0
8, 144240, Note_on_c, 3, 75, 80
8, 144720, Note_on_c, 3, 75, 0
8, 144720, Note_on_c, 3, 69, 80
8, 144960, Note_on_c, 3, 69, 0
8, 144960, Note_on_c, 3, 70, 80
8, 145320, Note_on_c, 3, 70, 0
8, 146880, Note_on_c, 3, 75, 80
8, 147600, Note_on_c, 3, 75, 0
8, 147600, Note_on_c, 3, 77, 80
8, 147660, Note_on_c, 3, 77, 0
8, 147660, Note_on_c, 3, 75, 80
8, 147720, Note_on_c, 3, 75, 0
8, 147720, Note_on_c, 3, 74, 80
8, 147780, Note_on_c, 3, 74, 0
8, 147780, Note_on_c, 3, 72, 80
8, 147840, Note_on_c, 3, 72, 0
8, 147840, Note_on_c, 3, 70, 64
8, 148128, Note_on_c, 3, 70, 0
8, 149760, Note_on_c, 3, 67, 80
8, 150480, Note_on_c, 3, 67, 0
8, 150480, Note_on_c, 3, 66, 80
8, 150720, Note_on_c, 3, 66, 0
8, 150720, Note_on_c, 3, 65, 80
8, 150960, Note_on_c, 3, 65, 0
8, 150960, Note_on_c, 3, 64, 80
8, 151200, Note_on_c, 3, 64, 0
8, 151200, Note_on_c, 3, 63, 80
8, 151440, Note_on_c, 3, 63, 0
8, 151440, Note_on_c, 3, 62, 80
8, 151680, Note_on_c, 3, 62, 0
8, 151680, Note_on_c, 3, 61, 80
8, 152400, Note_on_c, 3, 61, 0
8, 152400, Note_on_c, 3, 60, 80
8, 152640, Note_on_c, 3, 60, 0
8, 152640, Note_on_c, 3, 61, 80
8, 153360, Note_on_c, 3, 61, 0
8, 153360, Note_on_c, 3, 60, 80
8, 153600, Note_on_c, 3, 60, 0
8, 153600, Note_on_c, 3, 61, 80
8, 154320, Note_on_c, 3, 61, 0
8, 154320, Note_on_c, 3, 60, 80
8, 154560, Note_on_c, 3, 60, 0
8, 154560, Note_on_c, 3, 61, 80
8, 155280, Note_on_c, 3, 61, 0
8, 155280, Note_on_c, 3, 60, 80
8, 155520, Note_on_c, 3, 60, 0
8, 155520, Note_on_c, 3, 61, 75
8, 155616, Note_on_c, 3, 61, 0
8, 155640, Note_on_c, 3, 73, 78
8, 155736, Note_on_c, 3, 73, 0
8, 155760, Note_on_c, 3, 73, 81
8, 155856, Note_on_c, 3, 73, 0
8, 155880, Note_on_c, 3, 73, 84
8, 155976, Note_on_c, 3, 73, 0
8, 156000, Note_on_c, 3, 73, 88
8, 156096, Note_on_c, 3, 73, 0
8, 156120, Note_on_c, 3, 73, 91
8, 156216, Note_on_c, 3, 73, 0
8, 156240, Note_on_c, 3, 73, 94
8, 156336, Note_on_c, 3, 73, 0
8, 156360, Note_on_c, 3, 73, 97
8, 156456, Note_on_c, 3, 73, 0
8, 156480, Note_on_c, 3, 73, 100
8, 156576, Note_on_c, 3, 73, 0
8, 156600, Note_on_c, 3, 85, 101
8, 156696, Note_on_c, 3, 85, 0
8, 156720, Note_on_c, 3, 85, 103
8, 156816, Note_on_c, 3, 85, 0
8, 156840, Note_on_c, 3, 85, 104
8, 156936, Note_on_c, 3, 85, 0
8, 156960, Note_on_c, 3, 85, 105
8, 157056, Note_on_c, 3, 85, 0
8, 157080, Note_on_c, 3, 85, 106
8, 157176, Note_on_c, 3, 85, 0
8, 157200, Note_on_c, 3, 85, 108
8, 157296, Note_on_c, 3, 85, 0
8, 157320, Note_on_c, 3, 85, 109
8, 157416, Note_on_c, 3, 85, 0
8, 157440, Note_on_c, 3, 86, 110
8, 158400, Note_on_c, 3, 86, 0
8, 158400, Note_on_c, 3, 81, 110
8, 158460, Note_on_c, 3, 81, 0
8, 158460, Note_on_c, 3, 82, 110
8, 158520, Note_on_c, 3, 82, 0
8, 158520, Note_on_c, 3, 81, 110
8, 158580, Note_on_c, 3, 81, 0
8, 158580, Note_on_c, 3, 82, 110
8, 158640, Note_on_c, 3, 82, 0
8, 158640, Note_on_c, 3, 81, 110
8, 158700, Note_on_c, 3, 81, 0
8, 158700, Note_on_c, 3, 82, 110
8, 158760, Note_on_c, 3, 82, 0
8, 158760, Note_on_c, 3, 81, 110
8, 158820, Note_on_c, 3, 81, 0
8, 158820, Note_on_c, 3, 82, 110
8, 158880, Note_on_c, 3, 82, 0
8, 158880, Note_on_c, 3, 81, 110
8, 158940, Note_on_c, 3, 81, 0
8, 158940, Note_on_c, 3, 82, 110
8, 159000, Note_on_c, 3, 82, 0
8, 159000, Note_on_c, 3, 81, 110
8, 159060, Note_on_c, 3, 81, 0
8, 159060, Note_on_c, 3, 82, 110
8, 159120, Note_on_c, 3, 82, 0
8, 159120, Note_on_c, 3, 81, 110
8, 159180, Note_on_c, 3, 81, 0
8, 159180, Note_on_c, 3, 82, 110
8, 159240, Note_on_c, 3, 82, 0
8, 159240, Note_on_c, 3, 79, 110
8, 159300, Note_on_c, 3, 79, 0
8, 159300, Note_on_c, 3, 81, 110
8, 159360, Note_on_c, 3, 81, 0
8, 159360, Note_on_c, 3, 82, 110
8, 159504, Note_on_c, 3, 82, 0
8, 159600, Note_on_c, 3, 62, 110
8, 159672, Note_on_c, 3, 62, 0
8, 159720, Note_on_c, 3, 62, 110
8, 159792, Note_on_c, 3, 62, 0
8, 159840, Note_on_c, 3, 62, 110
8, 159912, Note_on_c, 3, 62, 0
8, 159960, Note_on_c, 3, 62, 110
8, 160032, Note_on_c, 3, 62, 0
8, 160080, Note_on_c, 3, 63, 110
8, 160152, Note_on_c, 3, 63, 0
8, 160200, Note_on_c, 3, 63, 110
8, 160272, Note_on_c, 3, 63, 0
8, 160320, Note_on_c, 3, 64, 110
8, 160392, Note_on_c, 3, 64, 0
8, 160440, Note_on_c, 3, 64, 110
8, 160512, Note_on_c, 3, 64, 0
8, 160560, Note_on_c, 3, 65, 110
8, 160632, Note_on_c, 3, 65, 0
8, 160680, Note_on_c, 3, 65, 110
8, 160752, Note_on_c, 3, 65, 0
8, 160800, Note_on_c, 3, 66, 110
8, 160872, Note_on_c, 3, 66, 0
8, 160920, Note_on_c, 3, 66, 110
8, 160992, Note_on_c, 3, 66, 0
8, 161040, Note_on_c, 3, 67, 110
8, 161112, Note_on_c, 3, 67, 0
8, 161160, Note_on_c, 3, 67, 110
8, 161232, Note_on_c, 3, 67, 0
8, 161280, Note_on_c, 3, 68, 110
8, 161472, Note_on_c, 3, 68, 0
8, 161700, Note_on_c, 3, 68, 127
8, 161748, Note_on_c, 3, 68, 0
8, 161760, Note_on_c, 3, 67, 110
8, 161952, Note_on_c, 3, 67, 0
8, 162180, Note_on_c, 3, 67, 127
8, 162228, Note_on_c, 3, 67, 0
8, 162240, Note_on_c, 3, 75, 110
8, 162432, Note_on_c, 3, 75, 0
8, 162660, Note_on_c, 3, 75, 127
8, 162708, Note_on_c, 3, 75, 0
8, 162720, Note_on_c, 3, 74, 110
8, 162912, Note_on_c, 3, 74, 0
8, 163140, Note_on_c, 3, 74, 127
8, 163188, Note_on_c, 3, 74, 0
8, 163200, Note_on_c, 3, 79, 110
8, 163776, Note_on_c, 3, 79, 0
8, 163800, Note_on_c, 3, 77, 90
8, 163890, Note_on_c, 3, 77, 0
8, 163920, Note_on_c, 3, 75, 90
8, 164010, Note_on_c, 3, 75, 0
8, 164040, Note_on_c, 3, 74, 90
8, 164130, Note_on_c, 3, 74, 0
8, 164160, Note_on_c, 3, 72, 90
8, 164250, Note_on_c, 3, 72, 0
8, 164280, Note_on_c, 3, 70, 90
8, 164370, Note_on_c, 3, 70, 0
8, 164400, Note_on_c, 3, 69, 90
8, 164490, Note_on_c, 3, 69, 0
8, 164520, Note_on_c, 3, 67, 90
8, 164610, Note_on_c, 3, 67, 0
8, 164640, Note_on_c, 3, 65, 90
8, 164730, Note_on_c, 3, 65, 0
8, 164760, Note_on_c, 3, 63, 90
8, 164850, Note_on_c, 3, 63, 0
8, 164880, Note_on_c, 3, 62, 90
8, 164970, Note_on_c, 3, 62, 0
8, 165000, Note_on_c, 3, 60, 90
8, 165090, Note_on_c, 3, 60, 0
8, 165120, Note_on_c, 3, 58, 80
8, 165312, Note_on_c, 3, 58, 0
8, 165600, Note_on_c, 3, 82, 80
8, 166560, Note_on_c, 3, 82, 0
8, 166560, Note_on_c, 3, 81, 80
8, 167040, Note_on_c, 3, 81, 0
8, 167520, Note_on_c, 3, 82, 80
8, 168480, Note_on_c, 3, 82, 0
8, 168480, Note_on_c, 3, 81, 80
8, 168960, Note_on_c, 3, 81, 0
8, 169680, Note_on_c, 3, 87, 110
8, 169800, Note_on_c, 3, 87, 0
8, 169800, Note_on_c, 3, 86, 110
8, 169920, Note_on_c, 3, 86, 0
8, 169920, Note_on_c, 3, 86, 110
8, 170112, Note_on_c, 3, 86, 0
8, 170160, Note_on_c, 3, 87, 110
8, 170280, Note_on_c, 3, 87, 0
8, 170280, Note_on_c, 3, 86, 110
8, 170400, Note_on_c, 3, 86, 0
8, 170400, Note_on_c, 3, 86, 110
8, 170592, Note_on_c, 3, 86, 0
8, 170640, Note_on_c, 3, 87, 110
8, 170760, Note_on_c, 3, 87, 0
8, 170760, Note_on_c, 3, 86, 110
8, 170880, Note_on_c, 3, 86, 0
8, 170880, Note_on_c, 3, 86, 110
8, 171264, Note_on_c, 3, 86, 0
8, 171360, Note_on_c, 3, 87, 110
8, 171648, Note_on_c, 3, 87, 0
8, 171720, Note_on_c, 3, 84, 110
8, 171816, Note_on_c, 3, 84, 0
8, 171840, Note_on_c, 3, 82, 110
8, 172128, Note_on_c, 3, 82, 0
8, 172200, Note_on_c, 3, 86, 110
8, 172296, Note_on_c, 3, 86, 0
8, 172320, Note_on_c, 3, 84, 110
8, 172608, Note_on_c, 3, 84, 0
8, 172680, Note_on_c, 3, 81, 110
8, 172776, Note_on_c, 3, 81, 0
8, 172800, Note_on_c, 3, 82, 110
8, 173040, Note_on_c, 3, 82, 0
8, 174240, Note_on_c, 3, 87, 64
8, 175200, Note_on_c, 3, 87, 0
8, 175200, Note_on_c, 3, 86, 64
8, 175440, Note_on_c, 3, 86, 0
8, 176160, Note_on_c, 3, 75, 80
8, 177120, Note_on_c, 3, 75, 0
8, 177120, Note_on_c, 3, 74, 80
8, 177360, Note_on_c, 3, 74, 0
8, 177360, Note_on_c, 3, 87, 110
8, 177480, Note_on_c, 3, 87, 0
8, 177480, Note_on_c, 3, 86, 110
8, 177600, Note_on_c, 3, 86, 0
8, 177600, Note_on_c, 3, 86, 110
8, 177792, Note_on_c, 3, 86, 0
8, 177840, Note_on_c, 3, 87, 110
8, 177960, Note_on_c, 3, 87, 0
8, 177960, Note_on_c, 3, 86, 110
8, 178080, Note_on_c, 3, 86, 0
8, 178080, Note_on_c, 3, 86, 110
8, 178272, Note_on_c, 3, 86, 0
8, 178320, Note_on_c, 3, 87, 110
8, 178440, Note_on_c, 3, 87, 0
8, 178440, Note_on_c, 3, 86, 110
8, 178560, Note_on_c, 3, 86, 0
8, 178560, Note_on_c, 3, 86, 110
8, 178944, Note_on_c, 3, 86, 0
8, 179040, Note_on_c, 3, 87, 110
8, 179328, Note_on_c, 3, 87, 0
8, 179400, Note_on_c, 3, 84, 110
8, 179496, Note_on_c, 3, 84, 0
8, 179520, Note_on_c, 3, 82, 110
8, 179808, Note_on_c, 3, 82, 0
8, 179880, Note_on_c, 3, 86, 110
8, 179976, Note_on_c, 3, 86, 0
8, 180000, Note_on_c, 3, 84, 110
8, 180288, Note_on_c, 3, 84, 0
8, 180360, Note_on_c, 3, 81, 110
8, 180456, Note_on_c, 3, 81, 0
8, 180480, Note_on_c, 3, 82, 127
8, 180576, Note_on_c, 3, 82, 0
8, 180600, Note_on_c, 3, 77, 127
8, 180696, Note_on_c, 3, 77, 0
8, 180720, Note_on_c, 3, 86, 127
8, 180792, Note_on_c, 3, 86, 0
8, 180840, Note_on_c, 3, 84, 127
8, 180912, Note_on_c, 3, 84, 0
8, 180960, Note_on_c, 3, 82, 127
8, 181032, Note_on_c, 3, 82, 0
8, 181080, Note_on_c, 3, 81, 127
8, 181152, Note_on_c, 3, 81, 0
8, 181200, Note_on_c, 3, 79, 127
8, 181272, Note_on_c, 3, 79, 0
8, 181320, Note_on_c, 3, 77, 127
8, 181392, Note_on_c, 3, 77, 0
8, 181440, Note_on_c, 3, 75, 127
8, 181512, Note_on_c, 3, 75, 0
8, 181560, Note_on_c, 3, 74, 127
8, 181632, Note_on_c, 3, 74, 0
8, 181680, Note_on_c, 3, 72, 127
8, 181752, Note_on_c, 3, 72, 0
8, 181800, Note_on_c, 3, 70, 127
8, 181872, Note_on_c, 3, 70, 0
8, 181920, Note_on_c, 3, 69, 127
8, 181992, Note_on_c, 3, 69, 0
8, 182040, Note_on_c, 3, 67, 127
8, 182112, Note_on_c, 3, 67, 0
8, 182160, Note_on_c, 3, 65, 127
8, 182232, Note_on_c, 3, 65, 0
8, 182280, Note_on_c, 3, 63, 127
8, 182352, Note_on_c, 3, 63, 0
8, 182400, Note_on_c, 3, 62, 127
8, 182544, Note_on_c, 3, 62, 0
8, 182640, Note_on_c, 3, 77, 127
8, 182784, Note_on_c, 3, 77, 0
8, 182880, Note_on_c, 3, 79, 127
8, 183024, Note_on_c, 3, 79, 0
8, 183120, Note_on_c, 3, 69, 127
8, 183264, Note_on_c, 3, 69, 0
8, 183360, Note_on_c, 3, 70, 127
8, 183432, Note_on_c, 3, 70, 0
8, 183480, Note_on_c, 3, 65, 127
8, 183552, Note_on_c, 3, 65, 0
8, 183600, Note_on_c, 3, 74, 127
8, 183672, Note_on_c, 3, 74, 0
8, 183720, Note_on_c, 3, 72, 127
8, 183792, Note_on_c, 3, 72, 0
8, 183840, Note_on_c, 3, 70, 127
8, 183912, Note_on_c, 3, 70, 0
8, 183960, Note_on_c, 3, 69, 127
8, 184032, Note_on_c, 3, 69, 0
8, 184080, Note_on_c, 3, 67, 127
8, 184152, Note_on_c, 3, 67, 0
8, 184200, Note_on_c, 3, 65, 127
8, 184272, Note_on_c, 3, 65, 0
8, 184320, Note_on_c, 3, 63, 127
8, 184392, Note_on_c, 3, 63, 0
8, 184440, Note_on_c, 3, 62, 127
8, 184512, Note_on_c, 3, 62, 0
8, 184560, Note_on_c, 3, 60, 127
8, 184632, Note_on_c, 3, 60, 0
8, 184680, Note_on_c, 3, 58, 127
8, 184752, Note_on_c, 3, 58, 0
8, 184800, Note_on_c, 3, 57, 127
8, 184872, Note_on_c, 3, 57, 0
8, 184920, Note_on_c, 3, 60, 127
8, 184992, Note_on_c, 3, 60, 0
8, 185040, Note_on_c, 3, 65, 127
8, 185112, Note_on_c, 3, 65, 0
8, 185160, Note_on_c, 3, 63, 127
8, 185232, Note_on_c, 3, 63, 0
8, 185280, Note_on_c, 3, 62, 127
8, 185424, Note_on_c, 3, 62, 0
8, 185520, Note_on_c, 3, 77, 127
8, 185664, Note_on_c, 3, 77, 0
8, 185760, Note_on_c, 3, 79, 127
8, 185904, Note_on_c, 3, 79, 0
8, 186000, Note_on_c, 3, 81, 127
8, 186144, Note_on_c, 3, 81, 0
8, 186240, Note_on_c, 3, 82, 127
8, 186384, Note_on_c, 3, 82, 0
8, 186480, Note_on_c, 3, 79, 127
8, 186624, Note_on_c, 3, 79, 0
8, 186720, Note_on_c, 3, 77, 127
8, 186864, Note_on_c, 3, 77, 0
8, 186960, Note_on_c, 3, 69, 127
8, 187104, Note_on_c, 3, 69, 0
8, 187200, Note_on_c, 3, 70, 127
8, 187320, Note_on_c, 3, 70, 0
8, 187320, Note_on_c, 3, 74, 127
8, 187392, Note_on_c, 3, 74, 0
8, 187440, Note_on_c, 3, 77, 127
8, 187512, Note_on_c, 3, 77, 0
8, 187560, Note_on_c, 3, 82, 127
8, 187632, Note_on_c, 3, 82, 0
8, 187680, Note_on_c, 3, 81, 127
8, 187800, Note_on_c, 3, 81, 0
8, 187800, Note_on_c, 3, 77, 127
8, 187872, Note_on_c, 3, 77, 0
8, 187920, Note_on_c, 3, 84, 127
8, 187992, Note_on_c, 3, 84, 0
8, 188040, Note_on_c, 3, 81, 127
8, 188112, Note_on_c, 3, 81, 0
8, 188160, Note_on_c, 3, 82, 127
8, 188280, Note_on_c, 3, 82, 0
8, 188280, Note_on_c, 3, 77, 127
8, 188352, Note_on_c, 3, 77, 0
8, 188400, Note_on_c, 3, 86, 127
8, 188472, Note_on_c, 3, 86, 0
8, 188520, Note_on_c, 3, 82, 127
8, 188592, Note_on_c, 3, 82, 0
8, 188640, Note_on_c, 3, 81, 127
8, 188760, Note_on_c, 3, 81, 0
8, 188760, Note_on_c, 3, 77, 127
8, 188832, Note_on_c, 3, 77, 0
8, 188880, Note_on_c, 3, 84, 127
8, 188952, Note_on_c, 3, 84, 0
8, 189000, Note_on_c, 3, 81, 127
8, 189072, Note_on_c, 3, 81, 0
8, 189120, Note_on_c, 3, 82, 127
8, 189240, Note_on_c, 3, 82, 0
8, 189240, Note_on_c, 3, 77, 127
8, 189312, Note_on_c, 3, 77, 0
8, 189360, Note_on_c, 3, 86, 127
8, 189432, Note_on_c, 3, 86, 0
8, 189480, Note_on_c, 3, 82, 127
8, 189552, Note_on_c, 3, 82, 0
8, 189600, Note_on_c, 3, 81, 127
8, 189720, Note_on_c, 3, 81, 0
8, 189720, Note_on_c, 3, 77, 127
8, 189792, Note_on_c, 3, 77, 0
8, 189840, Note_on_c, 3, 84, 127
8, 189912, Note_on_c, 3, 84, 0
8, 189960, Note_on_c, 3, 81, 127
8, 190032, Note_on_c, 3, 81, 0
8, 190080, Note_on_c, 3, 82, 127
8, 190200, Note_on_c, 3, 82, 0
8, 190200, Note_on_c, 3, 86, 127
8, 190272, Note_on_c, 3, 86, 0
8, 190320, Note_on_c, 3, 84, 127
8, 190392, Note_on_c, 3, 84, 0
8, 190440, Note_on_c, 3, 81, 127
8, 190512, Note_on_c, 3, 81, 0
8, 190560, Note_on_c, 3, 82, 127
8, 190680, Note_on_c, 3, 82, 0
8, 190680, Note_on_c, 3, 86, 127
8, 190752, Note_on_c, 3, 86, 0
8, 190800, Note_on_c, 3, 84, 127
8, 190872, Note_on_c, 3, 84, 0
8, 190920, Note_on_c, 3, 81, 127
8, 190992, Note_on_c, 3, 81, 0
8, 191040, Note_on_c, 3, 82, 127
8, 191400, Note_on_c, 3, 82, 0
8, 192000, Note_on_c, 3, 78, 127
8, 192000, Note_on_c, 3, 72, 127
8, 192000, Note_on_c, 3, 62, 127
8, 192360, Note_on_c, 3, 62, 0
8, 192360, Note_on_c, 3, 72, 0
8, 192360, Note_on_c, 3, 78, 0
8, 192960, Note_on_c, 3, 62, 110
8, 192960, Note_on_c, 3, 70, 110
8, 192960, Note_on_c, 3, 79, 110
8, 193248, Note_on_c, 3, 79, 0
8, 193248, Note_on_c, 3, 70, 0
8, 193248, Note_on_c, 3, 62, 0
8, 193440, Note_on_c, 3, 80, 110
8, 193440, Note_on_c, 3, 71, 110
8, 193440, Note_on_c, 3, 62, 110
8, 193728, Note_on_c, 3, 62, 0
8, 193728, Note_on_c, 3, 71, 0
8, 193728, Note_on_c, 3, 80, 0
8, 195600, Note_on_c, 3, 74, 80
8, 195720, Note_on_c, 3, 74, 0
8, 195720, Note_on_c, 3, 73, 80
8, 195840, Note_on_c, 3, 73, 0
8, 195840, Note_on_c, 3, 73, 80
8, 196032, Note_on_c, 3, 73, 0
8, 196080, Note_on_c, 3, 74, 80
8, 196200, Note_on_c, 3, 74, 0
8, 196200, Note_on_c, 3, 73, 80
8, 196320, Note_on_c, 3, 73, 0
8, 196320, Note_on_c, 3, 73, 80
8, 196512, Note_on_c, 3, 73, 0
8, 196560, Note_on_c, 3, 74, 80
8, 196680, Note_on_c, 3, 74, 0
8, 196680, Note_on_c, 3, 73, 80
8, 196800, Note_on_c, 3, 73, 0
8, 196800, Note_on_c, 3, 73, 80
8, 197040, Note_on_c, 3, 73, 0
8, 197040, Note_on_c, 3, 81, 80
8, 197232, Note_on_c, 3, 81, 0
8, 197520, Note_on_c, 3, 81, 80
8, 197640, Note_on_c, 3, 81, 0
8, 197640, Note_on_c, 3, 80, 80
8, 197760, Note_on_c, 3, 80, 0
8, 197760, Note_on_c, 3, 78, 80
8, 197952, Note_on_c, 3, 78, 0
8, 198000, Note_on_c, 3, 78, 80
8, 198120, Note_on_c, 3, 78, 0
8, 198120, Note_on_c, 3, 76, 80
8, 198240, Note_on_c, 3, 76, 0
8, 198240, Note_on_c, 3, 74, 80
8, 198432, Note_on_c, 3, 74, 0
8, 198480, Note_on_c, 3, 74, 80
8, 198600, Note_on_c, 3, 74, 0
8, 198600, Note_on_c, 3, 73, 80
8, 198720, Note_on_c, 3, 73, 0
8, 198720, Note_on_c, 3, 72, 80
8, 198912, Note_on_c, 3, 72, 0
8, 198960, Note_on_c, 3, 72, 80
8, 199152, Note_on_c, 3, 72, 0
8, 199440, Note_on_c, 3, 73, 80
8, 199560, Note_on_c, 3, 73, 0
8, 199560, Note_on_c, 3, 71, 80
8, 199680, Note_on_c, 3, 71, 0
8, 199680, Note_on_c, 3, 71, 80
8, 199872, Note_on_c, 3, 71, 0
8, 199920, Note_on_c, 3, 73, 80
8, 200040, Note_on_c, 3, 73, 0
8, 200040, Note_on_c, 3, 71, 80
8, 200160, Note_on_c, 3, 71, 0
8, 200160, Note_on_c, 3, 71, 80
8, 200352, Note_on_c, 3, 71, 0
8, 200400, Note_on_c, 3, 73, 80
8, 200520, Note_on_c, 3, 73, 0
8, 200520, Note_on_c, 3, 71, 80
8, 200640, Note_on_c, 3, 71, 0
8, 200640, Note_on_c, 3, 71, 80
8, 200880, Note_on_c, 3, 71, 0
8, 200880, Note_on_c, 3, 80, 80
8, 201072, Note_on_c, 3, 80, 0
8, 201360, Note_on_c, 3, 80, 80
8, 201480, Note_on_c, 3, 80, 0
8, 201480, Note_on_c, 3, 78, 80
8, 201600, Note_on_c, 3, 78, 0
8, 201600, Note_on_c, 3, 77, 80
8, 201792, Note_on_c, 3, 77, 0
8, 201840, Note_on_c, 3, 77, 80
8, 201960, Note_on_c, 3, 77, 0
8, 201960, Note_on_c, 3, 74, 80
8, 202080, Note_on_c, 3, 74, 0
8, 202080, Note_on_c, 3, 73, 80
8, 202272, Note_on_c, 3, 73, 0
8, 202320, Note_on_c, 3, 73, 80
8, 202440, Note_on_c, 3, 73, 0
8, 202440, Note_on_c, 3, 71, 80
8, 202560, Note_on_c, 3, 71, 0
8, 202560, Note_on_c, 3, 70, 80
8, 202752, Note_on_c, 3, 70, 0
8, 202800, Note_on_c, 3, 70, 80
8, 202992, Note_on_c, 3, 70, 0
8, 203280, Note_on_c, 3, 71, 80
8, 203400, Note_on_c, 3, 71, 0
8, 203400, Note_on_c, 3, 69, 80
8, 203520, Note_on_c, 3, 69, 0
8, 203520, Note_on_c, 3, 69, 80
8, 203712, Note_on_c, 3, 69, 0
8, 203760, Note_on_c, 3, 71, 80
8, 203880, Note_on_c, 3, 71, 0
8, 203880, Note_on_c, 3, 69, 80
8, 204000, Note_on_c, 3, 69, 0
8, 204000, Note_on_c, 3, 69, 80
8, 204192, Note_on_c, 3, 69, 0
8, 204240, Note_on_c, 3, 71, 80
8, 204360, Note_on_c, 3, 71, 0
8, 204360, Note_on_c, 3, 69, 80
8, 204480, Note_on_c, 3, 69, 0
8, 204480, Note_on_c, 3, 69, 80
8, 204720, Note_on_c, 3, 69, 0
8, 204720, Note_on_c, 3, 78, 80
8, 204912, Note_on_c, 3, 78, 0
8, 205200, Note_on_c, 3, 78, 80
8, 205320, Note_on_c, 3, 78, 0
8, 205320, Note_on_c, 3, 76, 80
8, 205440, Note_on_c, 3, 76, 0
8, 205440, Note_on_c, 3, 75, 80
8, 205632, Note_on_c, 3, 75, 0
8, 205680, Note_on_c, 3, 75, 80
8, 205800, Note_on_c, 3, 75, 0
8, 205800, Note_on_c, 3, 72, 80
8, 205920, Note_on_c, 3, 72, 0
8, 205920, Note_on_c, 3, 71, 80
8, 206016, Note_on_c, 3, 71, 0
8, 206040, Note_on_c, 3, 75, 80
8, 206136, Note_on_c, 3, 75, 0
8, 206160, Note_on_c, 3, 78, 110
8, 206244, Note_on_c, 3, 78, 0
8, 206280, Note_on_c, 3, 69, 110
8, 206364, Note_on_c, 3, 69, 0
8, 206400, Note_on_c, 3, 67, 110
8, 206484, Note_on_c, 3, 67, 0
8, 206520, Note_on_c, 3, 71, 110
8, 206604, Note_on_c, 3, 71, 0
8, 206640, Note_on_c, 3, 76, 110
8, 206724, Note_on_c, 3, 76, 0
8, 206760, Note_on_c, 3, 67, 110
8, 206844, Note_on_c, 3, 67, 0
8, 206880, Note_on_c, 3, 66, 110
8, 206964, Note_on_c, 3, 66, 0
8, 207000, Note_on_c, 3, 69, 110
8, 207084, Note_on_c, 3, 69, 0
8, 207120, Note_on_c, 3, 75, 110
8, 207204, Note_on_c, 3, 75, 0
8, 207240, Note_on_c, 3, 66, 110
8, 207324, Note_on_c, 3, 66, 0
8, 207360, Note_on_c, 3, 67, 110
8, 207444, Note_on_c, 3, 67, 0
8, 207480, Note_on_c, 3, 71, 110
8, 207564, Note_on_c, 3, 71, 0
8, 207600, Note_on_c, 3, 73, 110
8, 207684, Note_on_c, 3, 73, 0
8, 207720, Note_on_c, 3, 75, 110
8, 207804, Note_on_c, 3, 75, 0
8, 207840, Note_on_c, 3, 76, 110
8, 207924, Note_on_c, 3, 76, 0
8, 207960, Note_on_c, 3, 71, 110
8, 208044, Note_on_c, 3, 71, 0
8, 208080, Note_on_c, 3, 76, 110
8, 208164, Note_on_c, 3, 76, 0
8, 208200, Note_on_c, 3, 78, 110
8, 208284, Note_on_c, 3, 78, 0
8, 208320, Note_on_c, 3, 79, 110
8, 208404, Note_on_c, 3, 79, 0
8, 208440, Note_on_c, 3, 76, 110
8, 208524, Note_on_c, 3, 76, 0
8, 208560, Note_on_c, 3, 78, 110
8, 208644, Note_on_c, 3, 78, 0
8, 208680, Note_on_c, 3, 80, 110
8, 208764, Note_on_c, 3, 80, 0
8, 208800, Note_on_c, 3, 81, 110
8, 208884, Note_on_c, 3, 81, 0
8, 208920, Note_on_c, 3, 76, 110
8, 209004, Note_on_c, 3, 76, 0
8, 209040, Note_on_c, 3, 81, 110
8, 209124, Note_on_c, 3, 81, 0
8, 209160, Note_on_c, 3, 83, 110
8, 209244, Note_on_c, 3, 83, 0
8, 209280, Note_on_c, 3, 84, 110
8, 209472, Note_on_c, 3, 84, 0
8, 209520, Note_on_c, 3, 69, 110
8, 209712, Note_on_c, 3, 69, 0
8, 210000, Note_on_c, 3, 82, 110
8, 210120, Note_on_c, 3, 82, 0
8, 210120, Note_on_c, 3, 81, 110
8, 210240, Note_on_c, 3, 81, 0
8, 210240, Note_on_c, 3, 81, 110
8, 210480, Note_on_c, 3, 81, 0
8, 210480, Note_on_c, 3, 82, 110
8, 210600, Note_on_c, 3, 82, 0
8, 210600, Note_on_c, 3, 81, 110
8, 210720, Note_on_c, 3, 81, 0
8, 210720, Note_on_c, 3, 81, 110
8, 210960, Note_on_c, 3, 81, 0
8, 210960, Note_on_c, 3, 82, 110
8, 211080, Note_on_c, 3, 82, 0
8, 211080, Note_on_c, 3, 81, 110
8, 211200, Note_on_c, 3, 81, 0
8, 211200, Note_on_c, 3, 81, 110
8, 211440, Note_on_c, 3, 81, 0
8, 211440, Note_on_c, 3, 89, 110
8, 211680, Note_on_c, 3, 89, 0
8, 211920, Note_on_c, 3, 89, 110
8, 212040, Note_on_c, 3, 89, 0
8, 212040, Note_on_c, 3, 88, 110
8, 212160, Note_on_c, 3, 88, 0
8, 212160, Note_on_c, 3, 86, 110
8, 212400, Note_on_c, 3, 86, 0
8, 212400, Note_on_c, 3, 86, 110
8, 212520, Note_on_c, 3, 86, 0
8, 212520, Note_on_c, 3, 84, 110
8, 212640, Note_on_c, 3, 84, 0
8, 212640, Note_on_c, 3, 82, 110
8, 212880, Note_on_c, 3, 82, 0
8, 212880, Note_on_c, 3, 82, 110
8, 213000, Note_on_c, 3, 82, 0
8, 213000, Note_on_c, 3, 81, 110
8, 213120, Note_on_c, 3, 81, 0
8, 213120, Note_on_c, 3, 79, 110
8, 213204, Note_on_c, 3, 79, 0
8, 213240, Note_on_c, 3, 74, 110
8, 213324, Note_on_c, 3, 74, 0
8, 213360, Note_on_c, 3, 70, 110
8, 213444, Note_on_c, 3, 70, 0
8, 213480, Note_on_c, 3, 72, 110
8, 213564, Note_on_c, 3, 72, 0
8, 213600, Note_on_c, 3, 74, 110
8, 213684, Note_on_c, 3, 74, 0
8, 213720, Note_on_c, 3, 71, 110
8, 213804, Note_on_c, 3, 71, 0
8, 213840, Note_on_c, 3, 74, 110
8, 213924, Note_on_c, 3, 74, 0
8, 213960, Note_on_c, 3, 65, 110
8, 214044, Note_on_c, 3, 65, 0
8, 214080, Note_on_c, 3, 64, 110
8, 214164, Note_on_c, 3, 64, 0
8, 214200, Note_on_c, 3, 67, 110
8, 214284, Note_on_c, 3, 67, 0
8, 214320, Note_on_c, 3, 72, 110
8, 214404, Note_on_c, 3, 72, 0
8, 214440, Note_on_c, 3, 64, 110
8, 214524, Note_on_c, 3, 64, 0
8, 214560, Note_on_c, 3, 62, 110
8, 214644, Note_on_c, 3, 62, 0
8, 214680, Note_on_c, 3, 65, 110
8, 214764, Note_on_c, 3, 65, 0
8, 214800, Note_on_c, 3, 71, 110
8, 214884, Note_on_c, 3, 71, 0
8, 214920, Note_on_c, 3, 62, 110
8, 215004, Note_on_c, 3, 62, 0
8, 215040, Note_on_c, 3, 64, 110
8, 215124, Note_on_c, 3, 64, 0
8, 215160, Note_on_c, 3, 67, 110
8, 215244, Note_on_c, 3, 67, 0
8, 215280, Note_on_c, 3, 69, 110
8, 215364, Note_on_c, 3, 69, 0
8, 215400, Note_on_c, 3, 71, 110
8, 215484, Note_on_c, 3, 71, 0
8, 215520, Note_on_c, 3, 72, 110
8, 215604, Note_on_c, 3, 72, 0
8, 215640, Note_on_c, 3, 67, 110
8, 215724, Note_on_c, 3, 67, 0
8, 215760, Note_on_c, 3, 72, 110
8, 215844, Note_on_c, 3, 72, 0
8, 215880, Note_on_c, 3, 74, 110
8, 215964, Note_on_c, 3, 74, 0
8, 216000, Note_on_c, 3, 76, 110
8, 216084, Note_on_c, 3, 76, 0
8, 216120, Note_on_c, 3, 72, 110
8, 216204, Note_on_c, 3, 72, 0
8, 216240, Note_on_c, 3, 74, 110
8, 216324, Note_on_c, 3, 74, 0
8, 216360, Note_on_c, 3, 76, 110
8, 216444, Note_on_c, 3, 76, 0
8, 216480, Note_on_c, 3, 77, 110
8, 216564, Note_on_c, 3, 77, 0
8, 216600, Note_on_c, 3, 72, 110
8, 216684, Note_on_c, 3, 72, 0
8, 216720, Note_on_c, 3, 77, 110
8, 216804, Note_on_c, 3, 77, 0
8, 216840, Note_on_c, 3, 79, 110
8, 216924, Note_on_c, 3, 79, 0
8, 216960, Note_on_c, 3, 81, 110
8, 217152, Note_on_c, 3, 81, 0
8, 217200, Note_on_c, 3, 65, 110
8, 217392, Note_on_c, 3, 65, 0
8, 217680, Note_on_c, 3, 79, 110
8, 217800, Note_on_c, 3, 79, 0
8, 217800, Note_on_c, 3, 77, 110
8, 217920, Note_on_c, 3, 77, 0
8, 217920, Note_on_c, 3, 77, 110
8, 218160, Note_on_c, 3, 77, 0
8, 218160, Note_on_c, 3, 79, 110
8, 218280, Note_on_c, 3, 79, 0
8, 218280, Note_on_c, 3, 77, 110
8, 218400, Note_on_c, 3, 77, 0
8, 218400, Note_on_c, 3, 77, 110
8, 218640, Note_on_c, 3, 77, 0
8, 218640, Note_on_c, 3, 79, 110
8, 218760, Note_on_c, 3, 79, 0
8, 218760, Note_on_c, 3, 77, 110
8, 218880, Note_on_c, 3, 77, 0
8, 218880, Note_on_c, 3, 77, 110
8, 219120, Note_on_c, 3, 77, 0
8, 219120, Note_on_c, 3, 86, 110
8, 219360, Note_on_c, 3, 86, 0
8, 219600, Note_on_c, 3, 86, 110
8, 219720, Note_on_c, 3, 86, 0
8, 219720, Note_on_c, 3, 84, 110
8, 219840, Note_on_c, 3, 84, 0
8, 219840, Note_on_c, 3, 82, 110
8, 220080, Note_on_c, 3, 82, 0
8, 220080, Note_on_c, 3, 82, 110
8, 220200, Note_on_c, 3, 82, 0
8, 220200, Note_on_c, 3, 81, 110
8, 220320, Note_on_c, 3, 81, 0
8, 220320, Note_on_c, 3, 79, 110
8, 220560, Note_on_c, 3, 79, 0
8, 220560, Note_on_c, 3, 79, 110
8, 220680, Note_on_c, 3, 79, 0
8, 220680, Note_on_c, 3, 77, 110
8, 220800, Note_on_c, 3, 77, 0
8, 220800, Note_on_c, 3, 75, 110
8, 221040, Note_on_c, 3, 75, 0
8, 221040, Note_on_c, 3, 84, 110
8, 221280, Note_on_c, 3, 84, 0
8, 221520, Note_on_c, 3, 84, 110
8, 221640, Note_on_c, 3, 84, 0
8, 221640, Note_on_c, 3, 82, 110
8, 221760, Note_on_c, 3, 82, 0
8, 221760, Note_on_c, 3, 81, 110
8, 222000, Note_on_c, 3, 81, 0
8, 222000, Note_on_c, 3, 81, 110
8, 222120, Note_on_c, 3, 81, 0
8, 222120, Note_on_c, 3, 79, 110
8, 222240, Note_on_c, 3, 79, 0
8, 222240, Note_on_c, 3, 78, 110
8, 222480, Note_on_c, 3, 78, 0
8, 222480, Note_on_c, 3, 78, 110
8, 222600, Note_on_c, 3, 78, 0
8, 222600, Note_on_c, 3, 76, 110
8, 222720, Note_on_c, 3, 76, 0
8, 222720, Note_on_c, 3, 74, 110
8, 222960, Note_on_c, 3, 74, 0
8, 222960, Note_on_c, 3, 82, 110
8, 223200, Note_on_c, 3, 82, 0
8, 223440, Note_on_c, 3, 82, 110
8, 223560, Note_on_c, 3, 82, 0
8, 223560, Note_on_c, 3, 81, 110
8, 223680, Note_on_c, 3, 81, 0
8, 223680, Note_on_c, 3, 79, 110
8, 223872, Note_on_c, 3, 79, 0
8, 223920, Note_on_c, 3, 79, 110
8, 224016, Note_on_c, 3, 79, 0
8, 224040, Note_on_c, 3, 77, 110
8, 224136, Note_on_c, 3, 77, 0
8, 224160, Note_on_c, 3, 76, 110
8, 224352, Note_on_c, 3, 76, 0
8, 224400, Note_on_c, 3, 76, 110
8, 224496, Note_on_c, 3, 76, 0
8, 224520, Note_on_c, 3, 74, 110
8, 224616, Note_on_c, 3, 74, 0
8, 224640, Note_on_c, 3, 73, 110
8, 224832, Note_on_c, 3, 73, 0
8, 224880, Note_on_c, 3, 81, 110
8, 225072, Note_on_c, 3, 81, 0
8, 225360, Note_on_c, 3, 82, 110
8, 225480, Note_on_c, 3, 82, 0
8, 225480, Note_on_c, 3, 81, 110
8, 225600, Note_on_c, 3, 81, 0
8, 225600, Note_on_c, 3, 81, 110
8, 225792, Note_on_c, 3, 81, 0
8, 225840, Note_on_c, 3, 82, 110
8, 225960, Note_on_c, 3, 82, 0
8, 225960, Note_on_c, 3, 81, 110
8, 226080, Note_on_c, 3, 81, 0
8, 226080, Note_on_c, 3, 81, 110
8, 226272, Note_on_c, 3, 81, 0
8, 226320, Note_on_c, 3, 82, 110
8, 226440, Note_on_c, 3, 82, 0
8, 226440, Note_on_c, 3, 81, 110
8, 226560, Note_on_c, 3, 81, 0
8, 226560, Note_on_c, 3, 81, 110
8, 226752, Note_on_c, 3, 81, 0
8, 226800, Note_on_c, 3, 81, 110
8, 226992, Note_on_c, 3, 81, 0
8, 227280, Note_on_c, 3, 82, 110
8, 227400, Note_on_c, 3, 82, 0
8, 227400, Note_on_c, 3, 81, 110
8, 227520, Note_on_c, 3, 81, 0
8, 227520, Note_on_c, 3, 81, 110
8, 227712, Note_on_c, 3, 81, 0
8, 227760, Note_on_c, 3, 82, 110
8, 227880, Note_on_c, 3, 82, 0
8, 227880, Note_on_c, 3, 81, 110
8, 228000, Note_on_c, 3, 81, 0
8, 228000, Note_on_c, 3, 81, 110
8, 228192, Note_on_c, 3, 81, 0
8, 228240, Note_on_c, 3, 82, 110
8, 228360, Note_on_c, 3, 82, 0
8, 228360, Note_on_c, 3, 81, 110
8, 228480, Note_on_c, 3, 81, 0
8, 228480, Note_on_c, 3, 81, 110
8, 228672, Note_on_c, 3, 81, 0
8, 228720, Note_on_c, 3, 81, 110
8, 228912, Note_on_c, 3, 81, 0
8, 229200, Note_on_c, 3, 82, 80
8, 229320, Note_on_c, 3, 82, 0
8, 229320, Note_on_c, 3, 81, 80
8, 229440, Note_on_c, 3, 81, 0
8, 229440, Note_on_c, 3, 81, 80
8, 229632, Note_on_c, 3, 81, 0
8, 229680, Note_on_c, 3, 82, 80
8, 229800, Note_on_c, 3, 82, 0
8, 229800, Note_on_c, 3, 81, 80
8, 229920, Note_on_c, 3, 81, 0
8, 229920, Note_on_c, 3, 81, 80
8, 230112, Note_on_c, 3, 81, 0
8, 230160, Note_on_c, 3, 82, 80
8, 230280, Note_on_c, 3, 82, 0
8, 230280, Note_on_c, 3, 81, 80
8, 230400, Note_on_c, 3, 81, 0
8, 230400, Note_on_c, 3, 81, 80
8, 230592, Note_on_c, 3, 81, 0
8, 230640, Note_on_c, 3, 81, 80
8, 230832, Note_on_c, 3, 81, 0
8, 231120, Note_on_c, 3, 84, 80
8, 231240, Note_on_c, 3, 84, 0
8, 231240, Note_on_c, 3, 82, 80
8, 231360, Note_on_c, 3, 82, 0
8, 231360, Note_on_c, 3, 82, 80
8, 231552, Note_on_c, 3, 82, 0
8, 231600, Note_on_c, 3, 84, 80
8, 231720, Note_on_c, 3, 84, 0
8, 231720, Note_on_c, 3, 82, 80
8, 231840, Note_on_c, 3, 82, 0
8, 231840, Note_on_c, 3, 82, 80
8, 232032, Note_on_c, 3, 82, 0
8, 232080, Note_on_c, 3, 84, 80
8, 232200, Note_on_c, 3, 84, 0
8, 232200, Note_on_c, 3, 82, 80
8, 232320, Note_on_c, 3, 82, 0
8, 232320, Note_on_c, 3, 82, 80
8, 232512, Note_on_c, 3, 82, 0
8, 232560, Note_on_c, 3, 82, 80
8, 232752, Note_on_c, 3, 82, 0
8, 233040, Note_on_c, 3, 84, 80
8, 233160, Note_on_c, 3, 84, 0
8, 233160, Note_on_c, 3, 83, 80
8, 233280, Note_on_c, 3, 83, 0
8, 233280, Note_on_c, 3, 83, 80
8, 233472, Note_on_c, 3, 83, 0
8, 233520, Note_on_c, 3, 84, 80
8, 233640, Note_on_c, 3, 84, 0
8, 233640, Note_on_c, 3, 83, 80
8, 233760, Note_on_c, 3, 83, 0
8, 233760, Note_on_c, 3, 83, 80
8, 233952, Note_on_c, 3, 83, 0
8, 234000, Note_on_c, 3, 84, 80
8, 234120, Note_on_c, 3, 84, 0
8, 234120, Note_on_c, 3, 83, 80
8, 234240, Note_on_c, 3, 83, 0
8, 234240, Note_on_c, 3, 83, 80
8, 234432, Note_on_c, 3, 83, 0
8, 234480, Note_on_c, 3, 83, 80
8, 234672, Note_on_c, 3, 83, 0
8, 234960, Note_on_c, 3, 86, 80
8, 235080, Note_on_c, 3, 86, 0
8, 235080, Note_on_c, 3, 84, 80
8, 235200, Note_on_c, 3, 84, 0
8, 235200, Note_on_c, 3, 84, 80
8, 235392, Note_on_c, 3, 84, 0
8, 235440, Note_on_c, 3, 86, 80
8, 235560, Note_on_c, 3, 86, 0
8, 235560, Note_on_c, 3, 84, 80
8, 235680, Note_on_c, 3, 84, 0
8, 235680, Note_on_c, 3, 84, 80
8, 235872, Note_on_c, 3, 84, 0
8, 235920, Note_on_c, 3, 86, 80
8, 236040, Note_on_c, 3, 86, 0
8, 236040, Note_on_c, 3, 84, 80
8, 236160, Note_on_c, 3, 84, 0
8, 236160, Note_on_c, 3, 84, 80
8, 236352, Note_on_c, 3, 84, 0
8, 236400, Note_on_c, 3, 84, 80
8, 236592, Note_on_c, 3, 84, 0
8, 236880, Note_on_c, 3, 82, 80
8, 237000, Note_on_c, 3, 82, 0
8, 237000, Note_on_c, 3, 81, 80
8, 237120, Note_on_c, 3, 81, 0
8, 237120, Note_on_c, 3, 81, 80
8, 237312, Note_on_c, 3, 81, 0
8, 237360, Note_on_c, 3, 82, 80
8, 237480, Note_on_c, 3, 82, 0
8, 237480, Note_on_c, 3, 81, 80
8, 237600, Note_on_c, 3, 81, 0
8, 237600, Note_on_c, 3, 81, 80
8, 237792, Note_on_c, 3, 81, 0
8, 237840, Note_on_c, 3, 82, 80
8, 237960, Note_on_c, 3, 82, 0
8, 237960, Note_on_c, 3, 81, 80
8, 238080, Note_on_c, 3, 81, 0
8, 238080, Note_on_c, 3, 81, 80
8, 238272, Note_on_c, 3, 81, 0
8, 238800, Note_on_c, 3, 79, 80
8, 238920, Note_on_c, 3, 79, 0
8, 238920, Note_on_c, 3, 78, 80
8, 239040, Note_on_c, 3, 78, 0
8, 239040, Note_on_c, 3, 78, 80
8, 239232, Note_on_c, 3, 78, 0
8, 239280, Note_on_c, 3, 79, 80
8, 239400, Note_on_c, 3, 79, 0
8, 239400, Note_on_c, 3, 78, 80
8, 239520, Note_on_c, 3, 78, 0
8, 239520, Note_on_c, 3, 78, 80
8, 239712, Note_on_c, 3, 78, 0
8, 239760, Note_on_c, 3, 79, 80
8, 239880, Note_on_c, 3, 79, 0
8, 239880, Note_on_c, 3, 78, 80
8, 240000, Note_on_c, 3, 78, 0
8, 240000, Note_on_c, 3, 78, 80
8, 240192, Note_on_c, 3, 78, 0
8, 240720, Note_on_c, 3, 75, 80
8, 240840, Note_on_c, 3, 75, 0
8, 240840, Note_on_c, 3, 74, 80
8, 240960, Note_on_c, 3, 74, 0
8, 240960, Note_on_c, 3, 74, 80
8, 241152, Note_on_c, 3, 74, 0
8, 241200, Note_on_c, 3, 75, 80
8, 241320, Note_on_c, 3, 75, 0
8, 241320, Note_on_c, 3, 74, 80
8, 241440, Note_on_c, 3, 74, 0
8, 241440, Note_on_c, 3, 74, 80
8, 241632, Note_on_c, 3, 74, 0
8, 241680, Note_on_c, 3, 75, 80
8, 241800, Note_on_c, 3, 75, 0
8, 241800, Note_on_c, 3, 74, 80
8, 241920, Note_on_c, 3, 74, 0
8, 241920, Note_on_c, 3, 74, 80
8, 242112, Note_on_c, 3, 74, 0
8, 242640, Note_on_c, 3, 86, 110
8, 242760, Note_on_c, 3, 86, 0
8, 242760, Note_on_c, 3, 87, 110
8, 242856, Note_on_c, 3, 87, 0
8, 242880, Note_on_c, 3, 87, 110
8, 243120, Note_on_c, 3, 87, 0
8, 243600, Note_on_c, 3, 87, 110
8, 243720, Note_on_c, 3, 87, 0
8, 243720, Note_on_c, 3, 86, 110
8, 243816, Note_on_c, 3, 86, 0
8, 243840, Note_on_c, 3, 86, 110
8, 244080, Note_on_c, 3, 86, 0
8, 244560, Note_on_c, 3, 86, 110
8, 244680, Note_on_c, 3, 86, 0
8, 244680, Note_on_c, 3, 85, 110
8, 244776, Note_on_c, 3, 85, 0
8, 244800, Note_on_c, 3, 85, 110
8, 245040, Note_on_c, 3, 85, 0
8, 245520, Note_on_c, 3, 85, 110
8, 245640, Note_on_c, 3, 85, 0
8, 245640, Note_on_c, 3, 86, 110
8, 245736, Note_on_c, 3, 86, 0
8, 245760, Note_on_c, 3, 86, 110
8, 246000, Note_on_c, 3, 86, 0
8, 246480, Note_on_c, 3, 83, 110
8, 246600, Note_on_c, 3, 83, 0
8, 246600, Note_on_c, 3, 84, 110
8, 246696, Note_on_c, 3, 84, 0
8, 246720, Note_on_c, 3, 84, 110
8, 246960, Note_on_c, 3, 84, 0
8, 247440, Note_on_c, 3, 81, 110
8, 247560, Note_on_c, 3, 81, 0
8, 247560, Note_on_c, 3, 82, 110
8, 247656, Note_on_c, 3, 82, 0
8, 247680, Note_on_c, 3, 82, 110
8, 247920, Note_on_c, 3, 82, 0
8, 248400, Note_on_c, 3, 80, 110
8, 248520, Note_on_c, 3, 80, 0
8, 248520, Note_on_c, 3, 81, 110
8, 248616, Note_on_c, 3, 81, 0
8, 248640, Note_on_c, 3, 81, 110
8, 248808, Note_on_c, 3, 81, 0
8, 248880, Note_on_c, 3, 78, 105
8, 249000, Note_on_c, 3, 78, 0
8, 249000, Note_on_c, 3, 79, 102
8, 249096, Note_on_c, 3, 79, 0
8, 249120, Note_on_c, 3, 79, 100
8, 249288, Note_on_c, 3, 79, 0
8, 249360, Note_on_c, 3, 73, 95
8, 249480, Note_on_c, 3, 73, 0
8, 249480, Note_on_c, 3, 74, 92
8, 249576, Note_on_c, 3, 74, 0
8, 249600, Note_on_c, 3, 74, 90
8, 249960, Note_on_c, 3, 74, 0
8, 254160, Note_on_c, 3, 75, 80
8, 254280, Note_on_c, 3, 75, 0
8, 254280, Note_on_c, 3, 74, 80
8, 254400, Note_on_c, 3, 74, 0
8, 254400, Note_on_c, 3, 74, 80
8, 254592, Note_on_c, 3, 74, 0
8, 254640, Note_on_c, 3, 75, 80
8, 254760, Note_on_c, 3, 75, 0
8, 254760, Note_on_c, 3, 74, 80
8, 254880, Note_on_c, 3, 74, 0
8, 254880, Note_on_c, 3, 74, 80
8, 255072, Note_on_c, 3, 74, 0
8, 255120, Note_on_c, 3, 75, 80
8, 255240, Note_on_c, 3, 75, 0
8, 255240, Note_on_c, 3, 74, 80
8, 255360, Note_on_c, 3, 74, 0
8, 255360, Note_on_c, 3, 74, 80
8, 255600, Note_on_c, 3, 74, 0
8, 255600, Note_on_c, 3, 82, 80
8, 255792, Note_on_c, 3, 82, 0
8, 256080, Note_on_c, 3, 82, 80
8, 256200, Note_on_c, 3, 82, 0
8, 256200, Note_on_c, 3, 81, 80
8, 256320, Note_on_c, 3, 81, 0
8, 256320, Note_on_c, 3, 79, 80
8, 256512, Note_on_c, 3, 79, 0
8, 256560, Note_on_c, 3, 79, 80
8, 256680, Note_on_c, 3, 79, 0
8, 256680, Note_on_c, 3, 77, 80
8, 256800, Note_on_c, 3, 77, 0
8, 256800, Note_on_c, 3, 75, 80
8, 256992, Note_on_c, 3, 75, 0
8, 257040, Note_on_c, 3, 75, 80
8, 257160, Note_on_c, 3, 75, 0
8, 257160, Note_on_c, 3, 74, 80
8, 257280, Note_on_c, 3, 74, 0
8, 257280, Note_on_c, 3, 72, 80
8, 257472, Note_on_c, 3, 72, 0
8, 257520, Note_on_c, 3, 72, 80
8, 257712, Note_on_c, 3, 72, 0
8, 258000, Note_on_c, 3, 74, 80
8, 258120, Note_on_c, 3, 74, 0
8, 258120, Note_on_c, 3, 72, 80
8, 258240, Note_on_c, 3, 72, 0
8, 258240, Note_on_c, 3, 72, 80
8, 258432, Note_on_c, 3, 72, 0
8, 258480, Note_on_c, 3, 74, 80
8, 258600, Note_on_c, 3, 74, 0
8, 258600, Note_on_c, 3, 72, 80
8, 258720, Note_on_c, 3, 72, 0
8, 258720, Note_on_c, 3, 72, 80
8, 258912, Note_on_c, 3, 72, 0
8, 258960, Note_on_c, 3, 74, 80
8, 259080, Note_on_c, 3, 74, 0
8, 259080, Note_on_c, 3, 72, 80
8, 259200, Note_on_c, 3, 72, 0
8, 259200, Note_on_c, 3, 72, 80
8, 259440, Note_on_c, 3, 72, 0
8, 259440, Note_on_c, 3, 81, 80
8, 259632, Note_on_c, 3, 81, 0
8, 259920, Note_on_c, 3, 81, 80
8, 260040, Note_on_c, 3, 81, 0
8, 260040, Note_on_c, 3, 79, 80
8, 260160, Note_on_c, 3, 79, 0
8, 260160, Note_on_c, 3, 78, 80
8, 260352, Note_on_c, 3, 78, 0
8, 260400, Note_on_c, 3, 78, 80
8, 260520, Note_on_c, 3, 78, 0
8, 260520, Note_on_c, 3, 75, 80
8, 260640, Note_on_c, 3, 75, 0
8, 260640, Note_on_c, 3, 74, 80
8, 260832, Note_on_c, 3, 74, 0
8, 260880, Note_on_c, 3, 74, 80
8, 261000, Note_on_c, 3, 74, 0
8, 261000, Note_on_c, 3, 72, 80
8, 261120, Note_on_c, 3, 72, 0
8, 261120, Note_on_c, 3, 70, 80
8, 261312, Note_on_c, 3, 70, 0
8, 261360, Note_on_c, 3, 70, 80
8, 261552, Note_on_c, 3, 70, 0
8, 261840, Note_on_c, 3, 82, 80
8, 261960, Note_on_c, 3, 82, 0
8, 261960, Note_on_c, 3, 81, 80
8, 262080, Note_on_c, 3, 81, 0
8, 262080, Note_on_c, 3, 81, 80
8, 262320, Note_on_c, 3, 81, 0
8, 262320, Note_on_c, 3, 84, 80
8, 262560, Note_on_c, 3, 84, 0
8, 262560, Note_on_c, 3, 78, 80
8, 262800, Note_on_c, 3, 78, 0
8, 262800, Note_on_c, 3, 81, 80
8, 263040, Note_on_c, 3, 81, 0
8, 263040, Note_on_c, 3, 79, 80
8, 263280, Note_on_c, 3, 79, 0
8, 263280, Note_on_c, 3, 74, 80
8, 263472, Note_on_c, 3, 74, 0
8, 263760, Note_on_c, 3, 82, 80
8, 263880, Note_on_c, 3, 82, 0
8, 263880, Note_on_c, 3, 81, 80
8, 264000, Note_on_c, 3, 81, 0
8, 264000, Note_on_c, 3, 81, 80
8, 264240, Note_on_c, 3, 81, 0
8, 264240, Note_on_c, 3, 84, 80
8, 264480, Note_on_c, 3, 84, 0
8, 264480, Note_on_c, 3, 78, 80
8, 264720, Note_on_c, 3, 78, 0
8, 264720, Note_on_c, 3, 81, 80
8, 264960, Note_on_c, 3, 81, 0
8, 264960, Note_on_c, 3, 79, 80
8, 265200, Note_on_c, 3, 79, 0
8, 265200, Note_on_c, 3, 82, 80
8, 265440, Note_on_c, 3, 82, 0
8, 265440, Note_on_c, 3, 81, 80
8, 265560, Note_on_c, 3, 81, 0
8, 265560, Note_on_c, 3, 79, 80
8, 265680, Note_on_c, 3, 79, 0
8, 265680, Note_on_c, 3, 77, 80
8, 265800, Note_on_c, 3, 77, 0
8, 265800, Note_on_c, 3, 75, 80
8, 265920, Note_on_c, 3, 75, 0
8, 265920, Note_on_c, 3, 74, 80
8, 266880, Note_on_c, 3, 74, 0
8, 266880, Note_on_c, 3, 73, 80
8, 267840, Note_on_c, 3, 73, 0
8, 267840, Note_on_c, 3, 74, 80
8, 268224, Note_on_c, 3, 74, 0
8, 268560, Note_on_c, 3, 62, 110
8, 268656, Note_on_c, 3, 62, 0
8, 268680, Note_on_c, 3, 62, 110
8, 268776, Note_on_c, 3, 62, 0
8, 268800, Note_on_c, 3, 62, 110
8, 269184, Note_on_c, 3, 62, 0
8, 269520, Note_on_c, 3, 62, 110
8, 269616, Note_on_c, 3, 62, 0
8, 269640, Note_on_c, 3, 62, 110
8, 269736, Note_on_c, 3, 62, 0
8, 269760, Note_on_c, 3, 62, 110
8, 270144, Note_on_c, 3, 62, 0
8, 270480, Note_on_c, 3, 62, 110
8, 270576, Note_on_c, 3, 62, 0
8, 270600, Note_on_c, 3, 62, 110
8, 270696, Note_on_c, 3, 62, 0
8, 270720, Note_on_c, 3, 62, 110
8, 270912, Note_on_c, 3, 62, 0
8, 270960, Note_on_c, 3, 62, 105
8, 271056, Note_on_c, 3, 62, 0
8, 271080, Note_on_c, 3, 62, 102
8, 271176, Note_on_c, 3, 62, 0
8, 271200, Note_on_c, 3, 62, 100
8, 271392, Note_on_c, 3, 62, 0
8, 271440, Note_on_c, 3, 62, 95
8, 271536, Note_on_c, 3, 62, 0
8, 271560, Note_on_c, 3, 62, 92
8, 271656, Note_on_c, 3, 62, 0
8, 271680, Note_on_c, 3, 62, 80
8, 272064, Note_on_c, 3, 62, 0
8, 272400, Note_on_c, 3, 75, 80
8, 272520, Note_on_c, 3, 75, 0
8, 272520, Note_on_c, 3, 74, 80
8, 272640, Note_on_c, 3, 74, 0
8, 272640, Note_on_c, 3, 74, 80
8, 272832, Note_on_c, 3, 74, 0
8, 272880, Note_on_c, 3, 75, 80
8, 273000, Note_on_c, 3, 75, 0
8, 273000, Note_on_c, 3, 74, 80
8, 273120, Note_on_c, 3, 74, 0
8, 273120, Note_on_c, 3, 74, 80
8, 273312, Note_on_c, 3, 74, 0
8, 273360, Note_on_c, 3, 75, 80
8, 273480, Note_on_c, 3, 75, 0
8, 273480, Note_on_c, 3, 74, 80
8, 273600, Note_on_c, 3, 74, 0
8, 273600, Note_on_c, 3, 74, 80
8, 273840, Note_on_c, 3, 74, 0
8, 273840, Note_on_c, 3, 82, 80
8, 274032, Note_on_c, 3, 82, 0
8, 274320, Note_on_c, 3, 82, 80
8, 274440, Note_on_c, 3, 82, 0
8, 274440, Note_on_c, 3, 80, 80
8, 274560, Note_on_c, 3, 80, 0
8, 274560, Note_on_c, 3, 79, 80
8, 274752, Note_on_c, 3, 79, 0
8, 274800, Note_on_c, 3, 79, 80
8, 274920, Note_on_c, 3, 79, 0
8, 274920, Note_on_c, 3, 77, 80
8, 275040, Note_on_c, 3, 77, 0
8, 275040, Note_on_c, 3, 75, 80
8, 275232, Note_on_c, 3, 75, 0
8, 275280, Note_on_c, 3, 77, 80
8, 275400, Note_on_c, 3, 77, 0
8, 275400, Note_on_c, 3, 75, 80
8, 275520, Note_on_c, 3, 75, 0
8, 275520, Note_on_c, 3, 74, 80
8, 275712, Note_on_c, 3, 74, 0
8, 275760, Note_on_c, 3, 74, 80
8, 275952, Note_on_c, 3, 74, 0
8, 276240, Note_on_c, 3, 82, 80
8, 276360, Note_on_c, 3, 82, 0
8, 276360, Note_on_c, 3, 80, 80
8, 276480, Note_on_c, 3, 80, 0
8, 276480, Note_on_c, 3, 80, 80
8, 276672, Note_on_c, 3, 80, 0
8, 276720, Note_on_c, 3, 82, 80
8, 276840, Note_on_c, 3, 82, 0
8, 276840, Note_on_c, 3, 80, 80
8, 276960, Note_on_c, 3, 80, 0
8, 276960, Note_on_c, 3, 80, 80
8, 277152, Note_on_c, 3, 80, 0
8, 277200, Note_on_c, 3, 82, 80
8, 277320, Note_on_c, 3, 82, 0
8, 277320, Note_on_c, 3, 80, 80
8, 277440, Note_on_c, 3, 80, 0
8, 277440, Note_on_c, 3, 80, 80
8, 277680, Note_on_c, 3, 80, 0
8, 277680, Note_on_c, 3, 70, 80
8, 277872, Note_on_c, 3, 70, 0
8, 278160, Note_on_c, 3, 77, 80
8, 278280, Note_on_c, 3, 77, 0
8, 278280, Note_on_c, 3, 75, 80
8, 278400, Note_on_c, 3, 75, 0
8, 278400, Note_on_c, 3, 74, 80
8, 278592, Note_on_c, 3, 74, 0
8, 278640, Note_on_c, 3, 74, 80
8, 278760, Note_on_c, 3, 74, 0
8, 278760, Note_on_c, 3, 72, 80
8, 278880, Note_on_c, 3, 72, 0
8, 278880, Note_on_c, 3, 70, 80
8, 279072, Note_on_c, 3, 70, 0
8, 279120, Note_on_c, 3, 70, 80
8, 279240, Note_on_c, 3, 70, 0
8, 279240, Note_on_c, 3, 68, 80
8, 279360, Note_on_c, 3, 68, 0
8, 279360, Note_on_c, 3, 67, 110
8, 279360, Note_on_c, 3, 75, 110
8, 280176, Note_on_c, 3, 75, 0
8, 280176, Note_on_c, 3, 67, 0
8, 280320, Note_on_c, 3, 82, 110
8, 280320, Note_on_c, 3, 62, 110
8, 280320, Note_on_c, 3, 70, 110
8, 280524, Note_on_c, 3, 70, 0
8, 280524, Note_on_c, 3, 62, 0
8, 280932, Note_on_c, 3, 82, 0
8, 281160, Note_on_c, 3, 82, 110
8, 281256, Note_on_c, 3, 82, 0
8, 281280, Note_on_c, 3, 80, 110
8, 281424, Note_on_c, 3, 80, 0
8, 281520, Note_on_c, 3, 84, 110
8, 281664, Note_on_c, 3, 84, 0
8, 281760, Note_on_c, 3, 87, 110
8, 281904, Note_on_c, 3, 87, 0
8, 282240, Note_on_c, 3, 79, 110
8, 282384, Note_on_c, 3, 79, 0
8, 282480, Note_on_c, 3, 82, 110
8, 282624, Note_on_c, 3, 82, 0
8, 282720, Note_on_c, 3, 87, 110
8, 282864, Note_on_c, 3, 87, 0
8, 283080, Note_on_c, 3, 79, 110
8, 283152, Note_on_c, 3, 79, 0
8, 283200, Note_on_c, 3, 77, 110
8, 283344, Note_on_c, 3, 77, 0
8, 283440, Note_on_c, 3, 80, 110
8, 283584, Note_on_c, 3, 80, 0
8, 283680, Note_on_c, 3, 84, 110
8, 283824, Note_on_c, 3, 84, 0
8, 283920, Note_on_c, 3, 77, 110
8, 284064, Note_on_c, 3, 77, 0
8, 284160, Note_on_c, 3, 76, 110
8, 284304, Note_on_c, 3, 76, 0
8, 284400, Note_on_c, 3, 79, 110
8, 284544, Note_on_c, 3, 79, 0
8, 284640, Note_on_c, 3, 82, 110
8, 284784, Note_on_c, 3, 82, 0
8, 284880, Note_on_c, 3, 73, 110
8, 285024, Note_on_c, 3, 73, 0
8, 285120, Note_on_c, 3, 72, 110
8, 285264, Note_on_c, 3, 72, 0
8, 285360, Note_on_c, 3, 76, 110
8, 285504, Note_on_c, 3, 76, 0
8, 285600, Note_on_c, 3, 79, 110
8, 285744, Note_on_c, 3, 79, 0
8, 285840, Note_on_c, 3, 70, 110
8, 285984, Note_on_c, 3, 70, 0
8, 286080, Note_on_c, 3, 68, 100
8, 286164, Note_on_c, 3, 68, 0
8, 286200, Note_on_c, 3, 65, 100
8, 286284, Note_on_c, 3, 65, 0
8, 286320, Note_on_c, 3, 72, 100
8, 286404, Note_on_c, 3, 72, 0
8, 286440, Note_on_c, 3, 68, 100
8, 286524, Note_on_c, 3, 68, 0
8, 286560, Note_on_c, 3, 77, 100
8, 286644, Note_on_c, 3, 77, 0
8, 286680, Note_on_c, 3, 72, 100
8, 286764, Note_on_c, 3, 72, 0
8, 286800, Note_on_c, 3, 80, 100
8, 286884, Note_on_c, 3, 80, 0
8, 286920, Note_on_c, 3, 77, 100
8, 287004, Note_on_c, 3, 77, 0
8, 287040, Note_on_c, 3, 76, 100
8, 287124, Note_on_c, 3, 76, 0
8, 287160, Note_on_c, 3, 79, 100
8, 287244, Note_on_c, 3, 79, 0
8, 287280, Note_on_c, 3, 84, 100
8, 287364, Note_on_c, 3, 84, 0
8, 287400, Note_on_c, 3, 82, 100
8, 287484, Note_on_c, 3, 82, 0
8, 287520, Note_on_c, 3, 80, 100
8, 287604, Note_on_c, 3, 80, 0
8, 287640, Note_on_c, 3, 79, 100
8, 287724, Note_on_c, 3, 79, 0
8, 287760, Note_on_c, 3, 77, 100
8, 287844, Note_on_c, 3, 77, 0
8, 287880, Note_on_c, 3, 75, 100
8, 287964, Note_on_c, 3, 75, 0
8, 288000, Note_on_c, 3, 73, 100
8, 288084, Note_on_c, 3, 73, 0
8, 288120, Note_on_c, 3, 77, 100
8, 288204, Note_on_c, 3, 77, 0
8, 288240, Note_on_c, 3, 82, 100
8, 288324, Note_on_c, 3, 82, 0
8, 288360, Note_on_c, 3, 80, 100
8, 288444, Note_on_c, 3, 80, 0
8, 288480, Note_on_c, 3, 79, 100
8, 288564, Note_on_c, 3, 79, 0
8, 288600, Note_on_c, 3, 77, 100
8, 288684, Note_on_c, 3, 77, 0
8, 288720, Note_on_c, 3, 75, 100
8, 288804, Note_on_c, 3, 75, 0
8, 288840, Note_on_c, 3, 73, 100
8, 288924, Note_on_c, 3, 73, 0
8, 288960, Note_on_c, 3, 72, 100
8, 289056, Note_on_c, 3, 72, 0
8, 289080, Note_on_c, 3, 75, 100
8, 289176, Note_on_c, 3, 75, 0
8, 289200, Note_on_c, 3, 80, 100
8, 289296, Note_on_c, 3, 80, 0
8, 289320, Note_on_c, 3, 79, 100
8, 289416, Note_on_c, 3, 79, 0
8, 289440, Note_on_c, 3, 77, 100
8, 289536, Note_on_c, 3, 77, 0
8, 289560, Note_on_c, 3, 75, 100
8, 289656, Note_on_c, 3, 75, 0
8, 289680, Note_on_c, 3, 74, 100
8, 289776, Note_on_c, 3, 74, 0
8, 289800, Note_on_c, 3, 72, 100
8, 289896, Note_on_c, 3, 72, 0
8, 289920, Note_on_c, 3, 70, 100
8, 290016, Note_on_c, 3, 70, 0
8, 290040, Note_on_c, 3, 73, 103
8, 290136, Note_on_c, 3, 73, 0
8, 290160, Note_on_c, 3, 79, 105
8, 290256, Note_on_c, 3, 79, 0
8, 290280, Note_on_c, 3, 77, 108
8, 290376, Note_on_c, 3, 77, 0
8, 290400, Note_on_c, 3, 76, 110
8, 290496, Note_on_c, 3, 76, 0
8, 290520, Note_on_c, 3, 73, 113
8, 290616, Note_on_c, 3, 73, 0
8, 290640, Note_on_c, 3, 72, 115
8, 290736, Note_on_c, 3, 72, 0
8, 290760, Note_on_c, 3, 70, 118
8, 290856, Note_on_c, 3, 70, 0
8, 290880, Note_on_c, 3, 68, 127
8, 291120, Note_on_c, 3, 68, 0
8, 291240, Note_on_c, 3, 72, 127
8, 291336, Note_on_c, 3, 72, 0
8, 291360, Note_on_c, 3, 77, 127
8, 291504, Note_on_c, 3, 77, 0
8, 291600, Note_on_c, 3, 80, 127
8, 291744, Note_on_c, 3, 80, 0
8, 291840, Note_on_c, 3, 58, 127
8, 292080, Note_on_c, 3, 58, 0
8, 292200, Note_on_c, 3, 77, 127
8, 292296, Note_on_c, 3, 77, 0
8, 292320, Note_on_c, 3, 82, 127
8, 292464, Note_on_c, 3, 82, 0
8, 292560, Note_on_c, 3, 86, 127
8, 292704, Note_on_c, 3, 86, 0
8, 292800, Note_on_c, 3, 63, 127
8, 293040, Note_on_c, 3, 63, 0
8, 293160, Note_on_c, 3, 70, 127
8, 293256, Note_on_c, 3, 70, 0
8, 293280, Note_on_c, 3, 75, 127
8, 293424, Note_on_c, 3, 75, 0
8, 293520, Note_on_c, 3, 79, 127
8, 293664, Note_on_c, 3, 79, 0
8, 293760, Note_on_c, 3, 56, 127
8, 294000, Note_on_c, 3, 56, 0
8, 294120, Note_on_c, 3, 75, 127
8, 294216, Note_on_c, 3, 75, 0
8, 294240, Note_on_c, 3, 80, 127
8, 294384, Note_on_c, 3, 80, 0
8, 294480, Note_on_c, 3, 84, 127
8, 294624, Note_on_c, 3, 84, 0
8, 294720, Note_on_c, 3, 62, 127
8, 294960, Note_on_c, 3, 62, 0
8, 295080, Note_on_c, 3, 81, 127
8, 295176, Note_on_c, 3, 81, 0
8, 295200, Note_on_c, 3, 86, 127
8, 295344, Note_on_c, 3, 86, 0
8, 295440, Note_on_c, 3, 89, 127
8, 295584, Note_on_c, 3, 89, 0
8, 295680, Note_on_c, 3, 55, 127
8, 295920, Note_on_c, 3, 55, 0
8, 296040, Note_on_c, 3, 74, 127
8, 296136, Note_on_c, 3, 74, 0
8, 296160, Note_on_c, 3, 79, 127
8, 296304, Note_on_c, 3, 79, 0
8, 296400, Note_on_c, 3, 83, 127
8, 296544, Note_on_c, 3, 83, 0
8, 296640, Note_on_c, 3, 60, 127
8, 296880, Note_on_c, 3, 60, 0
8, 297000, Note_on_c, 3, 67, 127
8, 297096, Note_on_c, 3, 67, 0
8, 297120, Note_on_c, 3, 72, 127
8, 297264, Note_on_c, 3, 72, 0
8, 297360, Note_on_c, 3, 75, 127
8, 297504, Note_on_c, 3, 75, 0
8, 297600, Note_on_c, 3, 62, 127
8, 297840, Note_on_c, 3, 62, 0
8, 297960, Note_on_c, 3, 72, 127
8, 298056, Note_on_c, 3, 72, 0
8, 298080, Note_on_c, 3, 78, 127
8, 298224, Note_on_c, 3, 78, 0
8, 298320, Note_on_c, 3, 81, 127
8, 298464, Note_on_c, 3, 81, 0
8, 298560, Note_on_c, 3, 55, 127
8, 298560, Note_on_c, 3, 67, 127
8, 299376, Note_on_c, 3, 67, 0
8, 299376, Note_on_c, 3, 55, 0
8, 299520, Note_on_c, 3, 62, 127
8, 299520, Note_on_c, 3, 74, 127
8, 300360, Note_on_c, 3, 74, 0
8, 300360, Note_on_c, 3, 62, 0
8, 300360, Note_on_c, 3, 74, 127
8, 300462, Note_on_c, 3, 74, 0
8, 300480, Note_on_c, 3, 72, 127
8, 300624, Note_on_c, 3, 72, 0
8, 300720, Note_on_c, 3, 75, 127
8, 300864, Note_on_c, 3, 75, 0
8, 300960, Note_on_c, 3, 79, 127
8, 301104, Note_on_c, 3, 79, 0
8, 301440, Note_on_c, 3, 70, 127
8, 301584, Note_on_c, 3, 70, 0
8, 301680, Note_on_c, 3, 74, 127
8, 301824, Note_on_c, 3, 74, 0
8, 301920, Note_on_c, 3, 79, 127
8, 302064, Note_on_c, 3, 79, 0
8, 302280, Note_on_c, 3, 82, 127
8, 302376, Note_on_c, 3, 82, 0
8, 302400, Note_on_c, 3, 81, 127
8, 302544, Note_on_c, 3, 81, 0
8, 302640, Note_on_c, 3, 84, 127
8, 302784, Note_on_c, 3, 84, 0
8, 302880, Note_on_c, 3, 87, 127
8, 303024, Note_on_c, 3, 87, 0
8, 303240, Note_on_c, 3, 78, 127
8, 303336, Note_on_c, 3, 78, 0
8, 303360, Note_on_c, 3, 79, 127
8, 303504, Note_on_c, 3, 79, 0
8, 303600, Note_on_c, 3, 82, 127
8, 303744, Note_on_c, 3, 82, 0
8, 303840, Note_on_c, 3, 86, 127
8, 303984, Note_on_c, 3, 86, 0
8, 304200, Note_on_c, 3, 74, 127
8, 304296, Note_on_c, 3, 74, 0
8, 304320, Note_on_c, 3, 73, 127
8, 304404, Note_on_c, 3, 73, 0
8, 304440, Note_on_c, 3, 74, 127
8, 304524, Note_on_c, 3, 74, 0
8, 304560, Note_on_c, 3, 76, 127
8, 304644, Note_on_c, 3, 76, 0
8, 304680, Note_on_c, 3, 77, 127
8, 304764, Note_on_c, 3, 77, 0
8, 304800, Note_on_c, 3, 79, 127
8, 304884, Note_on_c, 3, 79, 0
8, 304920, Note_on_c, 3, 81, 127
8, 305004, Note_on_c, 3, 81, 0
8, 305040, Note_on_c, 3, 82, 127
8, 305124, Note_on_c, 3, 82, 0
8, 305160, Note_on_c, 3, 74, 127
8, 305244, Note_on_c, 3, 74, 0
8, 305280, Note_on_c, 3, 73, 127
8, 305364, Note_on_c, 3, 73, 0
8, 305400, Note_on_c, 3, 74, 127
8, 305484, Note_on_c, 3, 74, 0
8, 305520, Note_on_c, 3, 76, 127
8, 305604, Note_on_c, 3, 76, 0
8, 305640, Note_on_c, 3, 77, 127
8, 305724, Note_on_c, 3, 77, 0
8, 305760, Note_on_c, 3, 79, 127
8, 305844, Note_on_c, 3, 79, 0
8, 305880, Note_on_c, 3, 81, 127
8, 305964, Note_on_c, 3, 81, 0
8, 306000, Note_on_c, 3, 82, 127
8, 306084, Note_on_c, 3, 82, 0
8, 306120, Note_on_c, 3, 74, 127
8, 306204, Note_on_c, 3, 74, 0
8, 306240, Note_on_c, 3, 73, 127
8, 306324, Note_on_c, 3, 73, 0
8, 306360, Note_on_c, 3, 74, 127
8, 306444, Note_on_c, 3, 74, 0
8, 306480, Note_on_c, 3, 76, 127
8, 306564, Note_on_c, 3, 76, 0
8, 306600, Note_on_c, 3, 77, 127
8, 306684, Note_on_c, 3, 77, 0
8, 306720, Note_on_c, 3, 79, 127
8, 306804, Note_on_c, 3, 79, 0
8, 306840, Note_on_c, 3, 81, 127
8, 306924, Note_on_c, 3, 81, 0
8, 306960, Note_on_c, 3, 82, 127
8, 307044, Note_on_c, 3, 82, 0
8, 307080, Note_on_c, 3, 74, 127
8, 307164, Note_on_c, 3, 74, 0
8, 307200, Note_on_c, 3, 73, 127
8, 307284, Note_on_c, 3, 73, 0
8, 307320, Note_on_c, 3, 74, 127
8, 307404, Note_on_c, 3, 74, 0
8, 307440, Note_on_c, 3, 76, 127
8, 307524, Note_on_c, 3, 76, 0
8, 307560, Note_on_c, 3, 77, 127
8, 307644, Note_on_c, 3, 77, 0
8, 307680, Note_on_c, 3, 79, 127
8, 307764, Note_on_c, 3, 79, 0
8, 307800, Note_on_c, 3, 81, 127
8, 307884, Note_on_c, 3, 81, 0
8, 307920, Note_on_c, 3, 82, 127
8, 308004, Note_on_c, 3, 82, 0
8, 308040, Note_on_c, 3, 69, 127
8, 308124, Note_on_c, 3, 69, 0
8, 308160, Note_on_c, 3, 74, 127
8, 308544, Note_on_c, 3, 74, 0
8, 308640, Note_on_c, 3, 81, 127
8, 308784, Note_on_c, 3, 81, 0
8, 308880, Note_on_c, 3, 78, 127
8, 309024, Note_on_c, 3, 78, 0
8, 309120, Note_on_c, 3, 82, 127
8, 309504, Note_on_c, 3, 82, 0
8, 309600, Note_on_c, 3, 73, 127
8, 309744, Note_on_c, 3, 73, 0
8, 309840, Note_on_c, 3, 76, 127
8, 309984, Note_on_c, 3, 76, 0
8, 310080, Note_on_c, 3, 74, 127
8, 310464, Note_on_c, 3, 74, 0
8, 310560, Note_on_c, 3, 81, 127
8, 310644, Note_on_c, 3, 81, 0
8, 310680, Note_on_c, 3, 78, 127
8, 310764, Note_on_c, 3, 78, 0
8, 310800, Note_on_c, 3, 81, 127
8, 310884, Note_on_c, 3, 81, 0
8, 310920, Note_on_c, 3, 78, 127
8, 311004, Note_on_c, 3, 78, 0
8, 311040, Note_on_c, 3, 82, 127
8, 311124, Note_on_c, 3, 82, 0
8, 311160, Note_on_c, 3, 79, 127
8, 311244, Note_on_c, 3, 79, 0
8, 311280, Note_on_c, 3, 82, 127
8, 311364, Note_on_c, 3, 82, 0
8, 311400, Note_on_c, 3, 79, 127
8, 311484, Note_on_c, 3, 79, 0
8, 311520, Note_on_c, 3, 73, 127
8, 311604, Note_on_c, 3, 73, 0
8, 311640, Note_on_c, 3, 76, 127
8, 311724, Note_on_c, 3, 76, 0
8, 311760, Note_on_c, 3, 73, 127
8, 311844, Note_on_c, 3, 73, 0
8, 311880, Note_on_c, 3, 76, 127
8, 311964, Note_on_c, 3, 76, 0
8, 312000, Note_on_c, 3, 74, 127
8, 312360, Note_on_c, 3, 74, 0
8, 312480, Note_on_c, 3, 86, 80
8, 312480, Note_on_c, 3, 74, 80
8, 312480, Note_on_c, 3, 62, 80
8, 312840, Note_on_c, 3, 62, 0
8, 312840, Note_on_c, 3, 74, 0
8, 312840, Note_on_c, 3, 86, 0
8, 313920, Note_on_c, 3, 74, 80
8, 314640, Note_on_c, 3, 74, 0
8, 314640, Note_on_c, 3, 73, 80
8, 314880, Note_on_c, 3, 73, 0
8, 314880, Note_on_c, 3, 72, 80
8, 315240, Note_on_c, 3, 72, 0
8, 316080, Note_on_c, 3, 67, 80
8, 316272, Note_on_c, 3, 67, 0
8, 316320, Note_on_c, 3, 67, 80
8, 316560, Note_on_c, 3, 67, 0
8, 316560, Note_on_c, 3, 69, 80
8, 316800, Note_on_c, 3, 69, 0
8, 316800, Note_on_c, 3, 70, 80
8, 317160, Note_on_c, 3, 70, 0
8, 317160, Note_on_c, 3, 72, 80
8, 317280, Note_on_c, 3, 72, 0
8, 317280, Note_on_c, 3, 69, 80
8, 317472, Note_on_c, 3, 69, 0
8, 317760, Note_on_c, 3, 75, 80
8, 318480, Note_on_c, 3, 75, 0
8, 318480, Note_on_c, 3, 74, 80
8, 318720, Note_on_c, 3, 74, 0
8, 318720, Note_on_c, 3, 73, 80
8, 318960, Note_on_c, 3, 73, 0
8, 318960, Note_on_c, 3, 72, 80
8, 319200, Note_on_c, 3, 72, 0
8, 319200, Note_on_c, 3, 71, 80
8, 319440, Note_on_c, 3, 71, 0
8, 319440, Note_on_c, 3, 70, 80
8, 319680, Note_on_c, 3, 70, 0
8, 319680, Note_on_c, 3, 69, 80
8, 319920, Note_on_c, 3, 69, 0
8, 319920, Note_on_c, 3, 72, 80
8, 320400, Note_on_c, 3, 72, 0
8, 320400, Note_on_c, 3, 66, 80
8, 320640, Note_on_c, 3, 66, 0
8, 320640, Note_on_c, 3, 67, 80
8, 321000, Note_on_c, 3, 67, 0
8, 322560, Note_on_c, 3, 72, 80
8, 323280, Note_on_c, 3, 72, 0
8, 323280, Note_on_c, 3, 74, 80
8, 323340, Note_on_c, 3, 74, 0
8, 323340, Note_on_c, 3, 72, 80
8, 323400, Note_on_c, 3, 72, 0
8, 323400, Note_on_c, 3, 70, 80
8, 323460, Note_on_c, 3, 70, 0
8, 323460, Note_on_c, 3, 69, 80
8, 323520, Note_on_c, 3, 69, 0
8, 323520, Note_on_c, 3, 67, 80
8, 323880, Note_on_c, 3, 67, 0
8, 325440, Note_on_c, 3, 75, 80
8, 326160, Note_on_c, 3, 75, 0
8, 326160, Note_on_c, 3, 74, 80
8, 326400, Note_on_c, 3, 74, 0
8, 326400, Note_on_c, 3, 73, 80
8, 326640, Note_on_c, 3, 73, 0
8, 326640, Note_on_c, 3, 72, 80
8, 326880, Note_on_c, 3, 72, 0
8, 326880, Note_on_c, 3, 71, 80
8, 327120, Note_on_c, 3, 71, 0
8, 327120, Note_on_c, 3, 70, 80
8, 327360, Note_on_c, 3, 70, 0
8, 327360, Note_on_c, 3, 68, 80
8, 328080, Note_on_c, 3, 68, 0
8, 328080, Note_on_c, 3, 67, 80
8, 328320, Note_on_c, 3, 67, 0
8, 328320, Note_on_c, 3, 68, 80
8, 329040, Note_on_c, 3, 68, 0
8, 329040, Note_on_c, 3, 67, 80
8, 329280, Note_on_c, 3, 67, 0
8, 329280, Note_on_c, 3, 68, 80
8, 330000, Note_on_c, 3, 68, 0
8, 330000, Note_on_c, 3, 67, 80
8, 330240, Note_on_c, 3, 67, 0
8, 330240, Note_on_c, 3, 68, 80
8, 330960, Note_on_c, 3, 68, 0
8, 330960, Note_on_c, 3, 67, 80
8, 331200, Note_on_c, 3, 67, 0
8, 331200, Note_on_c, 3, 68, 85
8, 331284, Note_on_c, 3, 68, 0
8, 331320, Note_on_c, 3, 80, 86
8, 331404, Note_on_c, 3, 80, 0
8, 331440, Note_on_c, 3, 80, 86
8, 331524, Note_on_c, 3, 80, 0
8, 331560, Note_on_c, 3, 80, 87
8, 331644, Note_on_c, 3, 80, 0
8, 331680, Note_on_c, 3, 80, 88
8, 331764, Note_on_c, 3, 80, 0
8, 331800, Note_on_c, 3, 80, 88
8, 331884, Note_on_c, 3, 80, 0
8, 331920, Note_on_c, 3, 80, 89
8, 332004, Note_on_c, 3, 80, 0
8, 332040, Note_on_c, 3, 80, 89
8, 332124, Note_on_c, 3, 80, 0
8, 332160, Note_on_c, 3, 80, 90
8, 332244, Note_on_c, 3, 80, 0
8, 332280, Note_on_c, 3, 80, 93
8, 332364, Note_on_c, 3, 80, 0
8, 332400, Note_on_c, 3, 80, 95
8, 332484, Note_on_c, 3, 80, 0
8, 332520, Note_on_c, 3, 80, 98
8, 332604, Note_on_c, 3, 80, 0
8, 332640, Note_on_c, 3, 80, 100
8, 332724, Note_on_c, 3, 80, 0
8, 332760, Note_on_c, 3, 80, 103
8, 332844, Note_on_c, 3, 80, 0
8, 332880, Note_on_c, 3, 80, 105
8, 332964, Note_on_c, 3, 80, 0
8, 333000, Note_on_c, 3, 80, 108
8, 333084, Note_on_c, 3, 80, 0
8, 333120, Note_on_c, 3, 81, 110
8, 333696, Note_on_c, 3, 81, 0
8, 333840, Note_on_c, 3, 81, 110
8, 333900, Note_on_c, 3, 81, 0
8, 333900, Note_on_c, 3, 82, 110
8, 333960, Note_on_c, 3, 82, 0
8, 333960, Note_on_c, 3, 79, 110
8, 334020, Note_on_c, 3, 79, 0
8, 334020, Note_on_c, 3, 81, 110
8, 334080, Note_on_c, 3, 81, 0
8, 334080, Note_on_c, 3, 82, 110
8, 334656, Note_on_c, 3, 82, 0
8, 334800, Note_on_c, 3, 82, 110
8, 334860, Note_on_c, 3, 82, 0
8, 334860, Note_on_c, 3, 84, 110
8, 334920, Note_on_c, 3, 84, 0
8, 334920, Note_on_c, 3, 81, 110
8, 334980, Note_on_c, 3, 81, 0
8, 334980, Note_on_c, 3, 82, 110
8, 335040, Note_on_c, 3, 82, 0
8, 335040, Note_on_c, 3, 83, 110
8, 335616, Note_on_c, 3, 83, 0
8, 335760, Note_on_c, 3, 83, 110
8, 335820, Note_on_c, 3, 83, 0
8, 335820, Note_on_c, 3, 84, 110
8, 335880, Note_on_c, 3, 84, 0
8, 335880, Note_on_c, 3, 81, 110
8, 335940, Note_on_c, 3, 81, 0
8, 335940, Note_on_c, 3, 83, 110
8, 336000, Note_on_c, 3, 83, 0
8, 336000, Note_on_c, 3, 84, 110
8, 336576, Note_on_c, 3, 84, 0
8, 336720, Note_on_c, 3, 84, 110
8, 336780, Note_on_c, 3, 84, 0
8, 336780, Note_on_c, 3, 86, 110
8, 336840, Note_on_c, 3, 86, 0
8, 336840, Note_on_c, 3, 83, 110
8, 336900, Note_on_c, 3, 83, 0
8, 336900, Note_on_c, 3, 84, 110
8, 336960, Note_on_c, 3, 84, 0
8, 336960, Note_on_c, 3, 85, 110
8, 337104, Note_on_c, 3, 85, 0
8, 337200, Note_on_c, 3, 85, 110
8, 337344, Note_on_c, 3, 85, 0
8, 337440, Note_on_c, 3, 85, 110
8, 337584, Note_on_c, 3, 85, 0
8, 337680, Note_on_c, 3, 85, 110
8, 337824, Note_on_c, 3, 85, 0
8, 337920, Note_on_c, 3, 62, 110
8, 337977, Note_on_c, 3, 62, 0
8, 337980, Note_on_c, 3, 86, 110
8, 337980, Note_on_c, 3, 74, 110
8, 338037, Note_on_c, 3, 74, 0
8, 338784, Note_on_c, 3, 86, 0
8, 338880, Note_on_c, 3, 78, 110
8, 338940, Note_on_c, 3, 78, 0
8, 338940, Note_on_c, 3, 79, 110
8, 339000, Note_on_c, 3, 79, 0
8, 339000, Note_on_c, 3, 78, 110
8, 339060, Note_on_c, 3, 78, 0
8, 339060, Note_on_c, 3, 79, 110
8, 339120, Note_on_c, 3, 79, 0
8, 339120, Note_on_c, 3, 78, 110
8, 339180, Note_on_c, 3, 78, 0
8, 339180, Note_on_c, 3, 79, 110
8, 339240, Note_on_c, 3, 79, 0
8, 339240, Note_on_c, 3, 78, 110
8, 339300, Note_on_c, 3, 78, 0
8, 339300, Note_on_c, 3, 79, 110
8, 339360, Note_on_c, 3, 79, 0
8, 339360, Note_on_c, 3, 78, 110
8, 339420, Note_on_c, 3, 78, 0
8, 339420, Note_on_c, 3, 79, 110
8, 339480, Note_on_c, 3, 79, 0
8, 339480, Note_on_c, 3, 78, 110
8, 339540, Note_on_c, 3, 78, 0
8, 339540, Note_on_c, 3, 79, 110
8, 339600, Note_on_c, 3, 79, 0
8, 339600, Note_on_c, 3, 78, 110
8, 339660, Note_on_c, 3, 78, 0
8, 339660, Note_on_c, 3, 79, 110
8, 339720, Note_on_c, 3, 79, 0
8, 339720, Note_on_c, 3, 76, 110
8, 339780, Note_on_c, 3, 76, 0
8, 339780, Note_on_c, 3, 78, 110
8, 339840, Note_on_c, 3, 78, 0
8, 339840, Note_on_c, 3, 79, 110
8, 340008, Note_on_c, 3, 79, 0
8, 340080, Note_on_c, 3, 58, 110
8, 340164, Note_on_c, 3, 58, 0
8, 340200, Note_on_c, 3, 58, 110
8, 340284, Note_on_c, 3, 58, 0
8, 340320, Note_on_c, 3, 58, 110
8, 340404, Note_on_c, 3, 58, 0
8, 340440, Note_on_c, 3, 58, 110
8, 340524, Note_on_c, 3, 58, 0
8, 340560, Note_on_c, 3, 60, 110
8, 340644, Note_on_c, 3, 60, 0
8, 340680, Note_on_c, 3, 60, 110
8, 340764, Note_on_c, 3, 60, 0
8, 340800, Note_on_c, 3, 61, 110
8, 340884, Note_on_c, 3, 61, 0
8, 340920, Note_on_c, 3, 61, 110
8, 341004, Note_on_c, 3, 61, 0
8, 341040, Note_on_c, 3, 62, 110
8, 341124, Note_on_c, 3, 62, 0
8, 341160, Note_on_c, 3, 62, 110
8, 341244, Note_on_c, 3, 62, 0
8, 341280, Note_on_c, 3, 63, 110
8, 341364, Note_on_c, 3, 63, 0
8, 341400, Note_on_c, 3, 63, 110
8, 341484, Note_on_c, 3, 63, 0
8, 341520, Note_on_c, 3, 64, 110
8, 341604, Note_on_c, 3, 64, 0
8, 341640, Note_on_c, 3, 64, 110
8, 341724, Note_on_c, 3, 64, 0
8, 341760, Note_on_c, 3, 65, 110
8, 342000, Note_on_c, 3, 65, 0
8, 342180, Note_on_c, 3, 65, 127
8, 342228, Note_on_c, 3, 65, 0
8, 342240, Note_on_c, 3, 63, 110
8, 342480, Note_on_c, 3, 63, 0
8, 342660, Note_on_c, 3, 63, 127
8, 342708, Note_on_c, 3, 63, 0
8, 342720, Note_on_c, 3, 72, 110
8, 342960, Note_on_c, 3, 72, 0
8, 343140, Note_on_c, 3, 72, 127
8, 343188, Note_on_c, 3, 72, 0
8, 343200, Note_on_c, 3, 70, 110
8, 343440, Note_on_c, 3, 70, 0
8, 343620, Note_on_c, 3, 70, 127
8, 343668, Note_on_c, 3, 70, 0
8, 343680, Note_on_c, 3, 75, 110
8, 344256, Note_on_c, 3, 75, 0
8, 344280, Note_on_c, 3, 74, 80
8, 344364, Note_on_c, 3, 74, 0
8, 344400, Note_on_c, 3, 72, 80
8, 344484, Note_on_c, 3, 72, 0
8, 344520, Note_on_c, 3, 70, 80
8, 344604, Note_on_c, 3, 70, 0
8, 344640, Note_on_c, 3, 69, 80
8, 344724, Note_on_c, 3, 69, 0
8, 344760, Note_on_c, 3, 67, 80
8, 344844, Note_on_c, 3, 67, 0
8, 344880, Note_on_c, 3, 66, 80
8, 344964, Note_on_c, 3, 66, 0
8, 345000, Note_on_c, 3, 63, 80
8, 345084, Note_on_c, 3, 63, 0
8, 345120, Note_on_c, 3, 62, 80
8, 345204, Note_on_c, 3, 62, 0
8, 345240, Note_on_c, 3, 60, 80
8, 345324, Note_on_c, 3, 60, 0
8, 345360, Note_on_c, 3, 58, 80
8, 345444, Note_on_c, 3, 58, 0
8, 345480, Note_on_c, 3, 57, 80
8, 345564, Note_on_c, 3, 57, 0
8, 345600, Note_on_c, 3, 55, 80
8, 345792, Note_on_c, 3, 55, 0
8, 346080, Note_on_c, 3, 79, 80
8, 347040, Note_on_c, 3, 79, 0
8, 347040, Note_on_c, 3, 78, 80
8, 347280, Note_on_c, 3, 78, 0
8, 348000, Note_on_c, 3, 67, 80
8, 348960, Note_on_c, 3, 67, 0
8, 348960, Note_on_c, 3, 66, 80
8, 349200, Note_on_c, 3, 66, 0
8, 350160, Note_on_c, 3, 80, 110
8, 350280, Note_on_c, 3, 80, 0
8, 350280, Note_on_c, 3, 79, 110
8, 350400, Note_on_c, 3, 79, 0
8, 350400, Note_on_c, 3, 79, 110
8, 350592, Note_on_c, 3, 79, 0
8, 350640, Note_on_c, 3, 80, 110
8, 350760, Note_on_c, 3, 80, 0
8, 350760, Note_on_c, 3, 79, 110
8, 350880, Note_on_c, 3, 79, 0
8, 350880, Note_on_c, 3, 79, 110
8, 351072, Note_on_c, 3, 79, 0
8, 351120, Note_on_c, 3, 80, 110
8, 351240, Note_on_c, 3, 80, 0
8, 351240, Note_on_c, 3, 79, 110
8, 351360, Note_on_c, 3, 79, 0
8, 351360, Note_on_c, 3, 79, 110
8, 351744, Note_on_c, 3, 79, 0
8, 351840, Note_on_c, 3, 87, 110
8, 352128, Note_on_c, 3, 87, 0
8, 352200, Note_on_c, 3, 84, 110
8, 352296, Note_on_c, 3, 84, 0
8, 352320, Note_on_c, 3, 82, 110
8, 352608, Note_on_c, 3, 82, 0
8, 352680, Note_on_c, 3, 86, 110
8, 352776, Note_on_c, 3, 86, 0
8, 352800, Note_on_c, 3, 78, 110
8, 353088, Note_on_c, 3, 78, 0
8, 353160, Note_on_c, 3, 81, 110
8, 353256, Note_on_c, 3, 81, 0
8, 353280, Note_on_c, 3, 79, 110
8, 353520, Note_on_c, 3, 79, 0
8, 354720, Note_on_c, 3, 84, 64
8, 355680, Note_on_c, 3, 84, 0
8, 355680, Note_on_c, 3, 82, 64
8, 355920, Note_on_c, 3, 82, 0
8, 356640, Note_on_c, 3, 72, 80
8, 357600, Note_on_c, 3, 72, 0
8, 357600, Note_on_c, 3, 70, 80
8, 357840, Note_on_c, 3, 70, 0
8, 357840, Note_on_c, 3, 80, 110
8, 357960, Note_on_c, 3, 80, 0
8, 357960, Note_on_c, 3, 79, 110
8, 358080, Note_on_c, 3, 79, 0
8, 358080, Note_on_c, 3, 79, 110
8, 358272, Note_on_c, 3, 79, 0
8, 358320, Note_on_c, 3, 80, 110
8, 358440, Note_on_c, 3, 80, 0
8, 358440, Note_on_c, 3, 79, 110
8, 358560, Note_on_c, 3, 79, 0
8, 358560, Note_on_c, 3, 79, 110
8, 358752, Note_on_c, 3, 79, 0
8, 358800, Note_on_c, 3, 80, 110
8, 358920, Note_on_c, 3, 80, 0
8, 358920, Note_on_c, 3, 79, 110
8, 359040, Note_on_c, 3, 79, 0
8, 359040, Note_on_c, 3, 79, 110
8, 359424, Note_on_c, 3, 79, 0
8, 359520, Note_on_c, 3, 87, 110
8, 359808, Note_on_c, 3, 87, 0
8, 359880, Note_on_c, 3, 84, 110
8, 359976, Note_on_c, 3, 84, 0
8, 360000, Note_on_c, 3, 82, 110
8, 360288, Note_on_c, 3, 82, 0
8, 360360, Note_on_c, 3, 79, 110
8, 360456, Note_on_c, 3, 79, 0
8, 360480, Note_on_c, 3, 86, 110
8, 360768, Note_on_c, 3, 86, 0
8, 360840, Note_on_c, 3, 78, 110
8, 360936, Note_on_c, 3, 78, 0
8, 360960, Note_on_c, 3, 79, 110
8, 361044, Note_on_c, 3, 79, 0
8, 361080, Note_on_c, 3, 74, 110
8, 361164, Note_on_c, 3, 74, 0
8, 361200, Note_on_c, 3, 82, 110
8, 361284, Note_on_c, 3, 82, 0
8, 361320, Note_on_c, 3, 81, 110
8, 361404, Note_on_c, 3, 81, 0
8, 361440, Note_on_c, 3, 79, 110
8, 361524, Note_on_c, 3, 79, 0
8, 361560, Note_on_c, 3, 77, 110
8, 361644, Note_on_c, 3, 77, 0
8, 361680, Note_on_c, 3, 75, 110
8, 361764, Note_on_c, 3, 75, 0
8, 361800, Note_on_c, 3, 74, 110
8, 361884, Note_on_c, 3, 74, 0
8, 361920, Note_on_c, 3, 72, 110
8, 362004, Note_on_c, 3, 72, 0
8, 362040, Note_on_c, 3, 70, 110
8, 362124, Note_on_c, 3, 70, 0
8, 362160, Note_on_c, 3, 69, 110
8, 362244, Note_on_c, 3, 69, 0
8, 362280, Note_on_c, 3, 67, 110
8, 362364, Note_on_c, 3, 67, 0
8, 362400, Note_on_c, 3, 66, 110
8, 362484, Note_on_c, 3, 66, 0
8, 362520, Note_on_c, 3, 63, 110
8, 362604, Note_on_c, 3, 63, 0
8, 362640, Note_on_c, 3, 62, 110
8, 362724, Note_on_c, 3, 62, 0
8, 362760, Note_on_c, 3, 60, 110
8, 362844, Note_on_c, 3, 60, 0
8, 362880, Note_on_c, 3, 58, 110
8, 363024, Note_on_c, 3, 58, 0
8, 363120, Note_on_c, 3, 74, 110
8, 363264, Note_on_c, 3, 74, 0
8, 363360, Note_on_c, 3, 75, 110
8, 363504, Note_on_c, 3, 75, 0
8, 363600, Note_on_c, 3, 66, 110
8, 363744, Note_on_c, 3, 66, 0
8, 363840, Note_on_c, 3, 67, 110
8, 363924, Note_on_c, 3, 67, 0
8, 363960, Note_on_c, 3, 62, 110
8, 364044, Note_on_c, 3, 62, 0
8, 364080, Note_on_c, 3, 70, 110
8, 364164, Note_on_c, 3, 70, 0
8, 364200, Note_on_c, 3, 69, 110
8, 364284, Note_on_c, 3, 69, 0
8, 364320, Note_on_c, 3, 67, 110
8, 364404, Note_on_c, 3, 67, 0
8, 364440, Note_on_c, 3, 65, 110
8, 364524, Note_on_c, 3, 65, 0
8, 364560, Note_on_c, 3, 63, 110
8, 364644, Note_on_c, 3, 63, 0
8, 364680, Note_on_c, 3, 62, 110
8, 364764, Note_on_c, 3, 62, 0
8, 364800, Note_on_c, 3, 61, 110
8, 364884, Note_on_c, 3, 61, 0
8, 364920, Note_on_c, 3, 64, 110
8, 365004, Note_on_c, 3, 64, 0
8, 365040, Note_on_c, 3, 69, 110
8, 365124, Note_on_c, 3, 69, 0
8, 365160, Note_on_c, 3, 67, 110
8, 365244, Note_on_c, 3, 67, 0
8, 365280, Note_on_c, 3, 66, 110
8, 365364, Note_on_c, 3, 66, 0
8, 365400, Note_on_c, 3, 63, 110
8, 365484, Note_on_c, 3, 63, 0
8, 365520, Note_on_c, 3, 62, 110
8, 365604, Note_on_c, 3, 62, 0
8, 365640, Note_on_c, 3, 60, 110
8, 365724, Note_on_c, 3, 60, 0
8, 365760, Note_on_c, 3, 58, 110
8, 366000, Note_on_c, 3, 58, 0
8, 366180, Note_on_c, 3, 79, 127
8, 366228, Note_on_c, 3, 79, 0
8, 366240, Note_on_c, 3, 79, 110
8, 366480, Note_on_c, 3, 79, 0
8, 366660, Note_on_c, 3, 80, 127
8, 366708, Note_on_c, 3, 80, 0
8, 366720, Note_on_c, 3, 80, 110
8, 366960, Note_on_c, 3, 80, 0
8, 367140, Note_on_c, 3, 81, 127
8, 367188, Note_on_c, 3, 81, 0
8, 367200, Note_on_c, 3, 81, 110
8, 367440, Note_on_c, 3, 81, 0
8, 367620, Note_on_c, 3, 82, 127
8, 367668, Note_on_c, 3, 82, 0
8, 367680, Note_on_c, 3, 82, 110
8, 367920, Note_on_c, 3, 82, 0
8, 368100, Note_on_c, 3, 83, 127
8, 368148, Note_on_c, 3, 83, 0
8, 368160, Note_on_c, 3, 83, 110
8, 368400, Note_on_c, 3, 83, 0
8, 368580, Note_on_c, 3, 84, 127
8, 368628, Note_on_c, 3, 84, 0
8, 368640, Note_on_c, 3, 84, 110
8, 368880, Note_on_c, 3, 84, 0
8, 369060, Note_on_c, 3, 85, 127
8, 369108, Note_on_c, 3, 85, 0
8, 369120, Note_on_c, 3, 85, 110
8, 369360, Note_on_c, 3, 85, 0
8, 372240, Note_on_c, 3, 80, 80
8, 372360, Note_on_c, 3, 80, 0
8, 372360, Note_on_c, 3, 79, 80
8, 372480, Note_on_c, 3, 79, 0
8, 372480, Note_on_c, 3, 79, 80
8, 372672, Note_on_c, 3, 79, 0
8, 372720, Note_on_c, 3, 80, 80
8, 372840, Note_on_c, 3, 80, 0
8, 372840, Note_on_c, 3, 79, 80
8, 372960, Note_on_c, 3, 79, 0
8, 372960, Note_on_c, 3, 79, 80
8, 373152, Note_on_c, 3, 79, 0
8, 373200, Note_on_c, 3, 80, 80
8, 373320, Note_on_c, 3, 80, 0
8, 373320, Note_on_c, 3, 79, 80
8, 373440, Note_on_c, 3, 79, 0
8, 373440, Note_on_c, 3, 79, 80
8, 373680, Note_on_c, 3, 79, 0
8, 373680, Note_on_c, 3, 84, 80
8, 374160, Note_on_c, 3, 84, 0
8, 374160, Note_on_c, 3, 82, 80
8, 374640, Note_on_c, 3, 82, 0
8, 374640, Note_on_c, 3, 81, 80
8, 375120, Note_on_c, 3, 81, 0
8, 375120, Note_on_c, 3, 79, 80
8, 375360, Note_on_c, 3, 79, 0
8, 375360, Note_on_c, 3, 78, 80
8, 377280, Note_on_c, 3, 78, 0
8, 377280, Note_on_c, 3, 79, 110
8, 377400, Note_on_c, 3, 79, 0
8, 377400, Note_on_c, 3, 74, 110
8, 377496, Note_on_c, 3, 74, 0
8, 377520, Note_on_c, 3, 82, 110
8, 377616, Note_on_c, 3, 82, 0
8, 377640, Note_on_c, 3, 79, 110
8, 377736, Note_on_c, 3, 79, 0
8, 377760, Note_on_c, 3, 78, 110
8, 377880, Note_on_c, 3, 78, 0
8, 377880, Note_on_c, 3, 74, 110
8, 377976, Note_on_c, 3, 74, 0
8, 378000, Note_on_c, 3, 81, 110
8, 378096, Note_on_c, 3, 81, 0
8, 378120, Note_on_c, 3, 78, 110
8, 378216, Note_on_c, 3, 78, 0
8, 378240, Note_on_c, 3, 79, 110
8, 378360, Note_on_c, 3, 79, 0
8, 378360, Note_on_c, 3, 74, 110
8, 378456, Note_on_c, 3, 74, 0
8, 378480, Note_on_c, 3, 82, 110
8, 378576, Note_on_c, 3, 82, 0
8, 378600, Note_on_c, 3, 79, 110
8, 378696, Note_on_c, 3, 79, 0
8, 378720, Note_on_c, 3, 78, 110
8, 378840, Note_on_c, 3, 78, 0
8, 378840, Note_on_c, 3, 74, 110
8, 378936, Note_on_c, 3, 74, 0
8, 378960, Note_on_c, 3, 81, 110
8, 379056, Note_on_c, 3, 81, 0
8, 379080, Note_on_c, 3, 78, 110
8, 379176, Note_on_c, 3, 78, 0
8, 379200, Note_on_c, 3, 79, 110
8, 379320, Note_on_c, 3, 79, 0
8, 379320, Note_on_c, 3, 74, 110
8, 379416, Note_on_c, 3, 74, 0
8, 379440, Note_on_c, 3, 82, 110
8, 379536, Note_on_c, 3, 82, 0
8, 379560, Note_on_c, 3, 79, 110
8, 379656, Note_on_c, 3, 79, 0
8, 379680, Note_on_c, 3, 78, 110
8, 379800, Note_on_c, 3, 78, 0
8, 379800, Note_on_c, 3, 74, 110
8, 379896, Note_on_c, 3, 74, 0
8, 379920, Note_on_c, 3, 81, 110
8, 380016, Note_on_c, 3, 81, 0
8, 380040, Note_on_c, 3, 78, 110
8, 380136, Note_on_c, 3, 78, 0
8, 380160, Note_on_c, 3, 79, 110
8, 380280, Note_on_c, 3, 79, 0
8, 380280, Note_on_c, 3, 82, 110
8, 380376, Note_on_c, 3, 82, 0
8, 380400, Note_on_c, 3, 81, 110
8, 380496, Note_on_c, 3, 81, 0
8, 380520, Note_on_c, 3, 78, 110
8, 380616, Note_on_c, 3, 78, 0
8, 380640, Note_on_c, 3, 79, 110
8, 380760, Note_on_c, 3, 79, 0
8, 380760, Note_on_c, 3, 82, 110
8, 380856, Note_on_c, 3, 82, 0
8, 380880, Note_on_c, 3, 81, 110
8, 380976, Note_on_c, 3, 81, 0
8, 381000, Note_on_c, 3, 78, 110
8, 381096, Note_on_c, 3, 78, 0
8, 381120, Note_on_c, 3, 79, 110
8, 381480, Note_on_c, 3, 79, 0
8, 382080, Note_on_c, 3, 62, 110
8, 382080, Note_on_c, 3, 70, 110
8, 382080, Note_on_c, 3, 79, 110
8, 382320, Note_on_c, 3, 79, 0
8, 382320, Note_on_c, 3, 70, 0
8, 382320, Note_on_c, 3, 62, 0
8, 382560, Note_on_c, 3, 82, 110
8, 382560, Note_on_c, 3, 74, 110
8, 382560, Note_on_c, 3, 67, 110
8, 382800, Note_on_c, 3, 67, 0
8, 382800, Note_on_c, 3, 74, 0
8, 382800, Note_on_c, 3, 82, 0
8, 383040, Note_on_c, 3, 55, 110
8, 383760, Note_on_c, 3, 55, 0
8, 383760, End_track
9, 0, Start_track
9, 0, MIDI_port, 0
9, 0, Title_t, "Violino II."
9, 0, Program_c, 4, 48
9, 156, Control_c, 4, 10, 9
9, 302, Control_c, 4, 91, 127
9, 1680, Note_on_c, 4, 63, 80
9, 1800, Note_on_c, 4, 63, 0
9, 1800, Note_on_c, 4, 62, 80
9, 1920, Note_on_c, 4, 62, 0
9, 1920, Note_on_c, 4, 62, 80
9, 2112, Note_on_c, 4, 62, 0
9, 2160, Note_on_c, 4, 63, 80
9, 2280, Note_on_c, 4, 63, 0
9, 2280, Note_on_c, 4, 62, 80
9, 2400, Note_on_c, 4, 62, 0
9, 2400, Note_on_c, 4, 62, 80
9, 2592, Note_on_c, 4, 62, 0
9, 2640, Note_on_c, 4, 63, 80
9, 2760, Note_on_c, 4, 63, 0
9, 2760, Note_on_c, 4, 62, 80
9, 2880, Note_on_c, 4, 62, 0
9, 2880, Note_on_c, 4, 62, 80
9, 3120, Note_on_c, 4, 62, 0
9, 3120, Note_on_c, 4, 70, 80
9, 3312, Note_on_c, 4, 70, 0
9, 3600, Note_on_c, 4, 70, 80
9, 3720, Note_on_c, 4, 70, 0
9, 3720, Note_on_c, 4, 69, 80
9, 3840, Note_on_c, 4, 69, 0
9, 3840, Note_on_c, 4, 67, 80
9, 4032, Note_on_c, 4, 67, 0
9, 4080, Note_on_c, 4, 67, 80
9, 4200, Note_on_c, 4, 67, 0
9, 4200, Note_on_c, 4, 65, 80
9, 4320, Note_on_c, 4, 65, 0
9, 4320, Note_on_c, 4, 63, 80
9, 4512, Note_on_c, 4, 63, 0
9, 4560, Note_on_c, 4, 63, 80
9, 4680, Note_on_c, 4, 63, 0
9, 4680, Note_on_c, 4, 62, 80
9, 4800, Note_on_c, 4, 62, 0
9, 4800, Note_on_c, 4, 60, 80
9, 4992, Note_on_c, 4, 60, 0
9, 5040, Note_on_c, 4, 60, 80
9, 5232, Note_on_c, 4, 60, 0
9, 5520, Note_on_c, 4, 62, 80
9, 5640, Note_on_c, 4, 62, 0
9, 5640, Note_on_c, 4, 60, 80
9, 5760, Note_on_c, 4, 60, 0
9, 5760, Note_on_c, 4, 60, 80
9, 5952, Note_on_c, 4, 60, 0
9, 6000, Note_on_c, 4, 62, 80
9, 6120, Note_on_c, 4, 62, 0
9, 6120, Note_on_c, 4, 60, 80
9, 6240, Note_on_c, 4, 60, 0
9, 6240, Note_on_c, 4, 60, 80
9, 6432, Note_on_c, 4, 60, 0
9, 6480, Note_on_c, 4, 62, 80
9, 6600, Note_on_c, 4, 62, 0
9, 6600, Note_on_c, 4, 60, 80
9, 6720, Note_on_c, 4, 60, 0
9, 6720, Note_on_c, 4, 60, 80
9, 6960, Note_on_c, 4, 60, 0
9, 6960, Note_on_c, 4, 69, 80
9, 7152, Note_on_c, 4, 69, 0
9, 7440, Note_on_c, 4, 69, 80
9, 7560, Note_on_c, 4, 69, 0
9, 7560, Note_on_c, 4, 67, 80
9, 7680, Note_on_c, 4, 67, 0
9, 7680, Note_on_c, 4, 66, 80
9, 7872, Note_on_c, 4, 66, 0
9, 7920, Note_on_c, 4, 66, 80
9, 8040, Note_on_c, 4, 66, 0
9, 8040, Note_on_c, 4, 63, 80
9, 8160, Note_on_c, 4, 63, 0
9, 8160, Note_on_c, 4, 62, 80
9, 8352, Note_on_c, 4, 62, 0
9, 8400, Note_on_c, 4, 62, 80
9, 8520, Note_on_c, 4, 62, 0
9, 8520, Note_on_c, 4, 60, 80
9, 8640, Note_on_c, 4, 60, 0
9, 8640, Note_on_c, 4, 58, 80
9, 8832, Note_on_c, 4, 58, 0
9, 8880, Note_on_c, 4, 58, 80
9, 9072, Note_on_c, 4, 58, 0
9, 9360, Note_on_c, 4, 70, 80
9, 9480, Note_on_c, 4, 70, 0
9, 9480, Note_on_c, 4, 69, 80
9, 9600, Note_on_c, 4, 69, 0
9, 9600, Note_on_c, 4, 69, 80
9, 9840, Note_on_c, 4, 69, 0
9, 9840, Note_on_c, 4, 72, 80
9, 10080, Note_on_c, 4, 72, 0
9, 10080, Note_on_c, 4, 66, 80
9, 10320, Note_on_c, 4, 66, 0
9, 10320, Note_on_c, 4, 69, 80
9, 10560, Note_on_c, 4, 69, 0
9, 10560, Note_on_c, 4, 67, 80
9, 10800, Note_on_c, 4, 67, 0
9, 10800, Note_on_c, 4, 62, 80
9, 10992, Note_on_c, 4, 62, 0
9, 11280, Note_on_c, 4, 70, 80
9, 11400, Note_on_c, 4, 70, 0
9, 11400, Note_on_c, 4, 69, 80
9, 11520, Note_on_c, 4, 69, 0
9, 11520, Note_on_c, 4, 69, 80
9, 11760, Note_on_c, 4, 69, 0
9, 11760, Note_on_c, 4, 72, 80
9, 12000, Note_on_c, 4, 72, 0
9, 12000, Note_on_c, 4, 66, 80
9, 12240, Note_on_c, 4, 66, 0
9, 12240, Note_on_c, 4, 69, 80
9, 12480, Note_on_c, 4, 69, 0
9, 12480, Note_on_c, 4, 67, 80
9, 12720, Note_on_c, 4, 67, 0
9, 12720, Note_on_c, 4, 70, 80
9, 12960, Note_on_c, 4, 70, 0
9, 12960, Note_on_c, 4, 69, 80
9, 13080, Note_on_c, 4, 69, 0
9, 13080, Note_on_c, 4, 67, 80
9, 13200, Note_on_c, 4, 67, 0
9, 13200, Note_on_c, 4, 65, 80
9, 13320, Note_on_c, 4, 65, 0
9, 13320, Note_on_c, 4, 63, 80
9, 13440, Note_on_c, 4, 63, 0
9, 13440, Note_on_c, 4, 62, 80
9, 14400, Note_on_c, 4, 62, 0
9, 14400, Note_on_c, 4, 61, 80
9, 15360, Note_on_c, 4, 61, 0
9, 15360, Note_on_c, 4, 62, 80
9, 15744, Note_on_c, 4, 62, 0
9, 16080, Note_on_c, 4, 62, 110
9, 16176, Note_on_c, 4, 62, 0
9, 16200, Note_on_c, 4, 62, 110
9, 16296, Note_on_c, 4, 62, 0
9, 16320, Note_on_c, 4, 62, 110
9, 16704, Note_on_c, 4, 62, 0
9, 17040, Note_on_c, 4, 62, 110
9, 17136, Note_on_c, 4, 62, 0
9, 17160, Note_on_c, 4, 62, 110
9, 17256, Note_on_c, 4, 62, 0
9, 17280, Note_on_c, 4, 62, 110
9, 17664, Note_on_c, 4, 62, 0
9, 18000, Note_on_c, 4, 62, 110
9, 18096, Note_on_c, 4, 62, 0
9, 18120, Note_on_c, 4, 62, 110
9, 18216, Note_on_c, 4, 62, 0
9, 18240, Note_on_c, 4, 62, 110
9, 18432, Note_on_c, 4, 62, 0
9, 18480, Note_on_c, 4, 62, 105
9, 18576, Note_on_c, 4, 62, 0
9, 18600, Note_on_c, 4, 62, 102
9, 18696, Note_on_c, 4, 62, 0
9, 18720, Note_on_c, 4, 62, 100
9, 18912, Note_on_c, 4, 62, 0
9, 18960, Note_on_c, 4, 62, 95
9, 19056, Note_on_c, 4, 62, 0
9, 19080, Note_on_c, 4, 62, 92
9, 19176, Note_on_c, 4, 62, 0
9, 19200, Note_on_c, 4, 62, 80
9, 19584, Note_on_c, 4, 62, 0
9, 19920, Note_on_c, 4, 63, 80
9, 20040, Note_on_c, 4, 63, 0
9, 20040, Note_on_c, 4, 62, 80
9, 20160, Note_on_c, 4, 62, 0
9, 20160, Note_on_c, 4, 62, 80
9, 20352, Note_on_c, 4, 62, 0
9, 20400, Note_on_c, 4, 63, 80
9, 20520, Note_on_c, 4, 63, 0
9, 20520, Note_on_c, 4, 62, 80
9, 20640, Note_on_c, 4, 62, 0
9, 20640, Note_on_c, 4, 62, 80
9, 20832, Note_on_c, 4, 62, 0
9, 20880, Note_on_c, 4, 63, 80
9, 21000, Note_on_c, 4, 63, 0
9, 21000, Note_on_c, 4, 62, 80
9, 21120, Note_on_c, 4, 62, 0
9, 21120, Note_on_c, 4, 62, 80
9, 21360, Note_on_c, 4, 62, 0
9, 21360, Note_on_c, 4, 70, 80
9, 21552, Note_on_c, 4, 70, 0
9, 21840, Note_on_c, 4, 70, 80
9, 21960, Note_on_c, 4, 70, 0
9, 21960, Note_on_c, 4, 69, 80
9, 22080, Note_on_c, 4, 69, 0
9, 22080, Note_on_c, 4, 67, 80
9, 22272, Note_on_c, 4, 67, 0
9, 22320, Note_on_c, 4, 67, 80
9, 22440, Note_on_c, 4, 67, 0
9, 22440, Note_on_c, 4, 65, 80
9, 22560, Note_on_c, 4, 65, 0
9, 22560, Note_on_c, 4, 63, 80
9, 22752, Note_on_c, 4, 63, 0
9, 22800, Note_on_c, 4, 63, 80
9, 22920, Note_on_c, 4, 63, 0
9, 22920, Note_on_c, 4, 62, 80
9, 23040, Note_on_c, 4, 62, 0
9, 23040, Note_on_c, 4, 60, 80
9, 23232, Note_on_c, 4, 60, 0
9, 23280, Note_on_c, 4, 60, 80
9, 23472, Note_on_c, 4, 60, 0
9, 23760, Note_on_c, 4, 65, 80
9, 23880, Note_on_c, 4, 65, 0
9, 23880, Note_on_c, 4, 63, 80
9, 24000, Note_on_c, 4, 63, 0
9, 24000, Note_on_c, 4, 63, 80
9, 24192, Note_on_c, 4, 63, 0
9, 24240, Note_on_c, 4, 65, 80
9, 24360, Note_on_c, 4, 65, 0
9, 24360, Note_on_c, 4, 63, 80
9, 24480, Note_on_c, 4, 63, 0
9, 24480, Note_on_c, 4, 63, 80
9, 24672, Note_on_c, 4, 63, 0
9, 24720, Note_on_c, 4, 65, 80
9, 24840, Note_on_c, 4, 65, 0
9, 24840, Note_on_c, 4, 63, 80
9, 24960, Note_on_c, 4, 63, 0
9, 24960, Note_on_c, 4, 63, 80
9, 25200, Note_on_c, 4, 63, 0
9, 25200, Note_on_c, 4, 72, 80
9, 25392, Note_on_c, 4, 72, 0
9, 25680, Note_on_c, 4, 72, 80
9, 25800, Note_on_c, 4, 72, 0
9, 25800, Note_on_c, 4, 70, 80
9, 25920, Note_on_c, 4, 70, 0
9, 25920, Note_on_c, 4, 69, 80
9, 26112, Note_on_c, 4, 69, 0
9, 26160, Note_on_c, 4, 69, 80
9, 26280, Note_on_c, 4, 69, 0
9, 26280, Note_on_c, 4, 67, 80
9, 26400, Note_on_c, 4, 67, 0
9, 26400, Note_on_c, 4, 65, 80
9, 26592, Note_on_c, 4, 65, 0
9, 26640, Note_on_c, 4, 65, 80
9, 26760, Note_on_c, 4, 65, 0
9, 26760, Note_on_c, 4, 63, 80
9, 26880, Note_on_c, 4, 63, 0
9, 26880, Note_on_c, 4, 62, 110
9, 26880, Note_on_c, 4, 70, 110
9, 27840, Note_on_c, 4, 70, 0
9, 27840, Note_on_c, 4, 62, 0
9, 27840, Note_on_c, 4, 77, 110
9, 27840, Note_on_c, 4, 69, 110
9, 28680, Note_on_c, 4, 69, 0
9, 28680, Note_on_c, 4, 77, 0
9, 28680, Note_on_c, 4, 77, 110
9, 28776, Note_on_c, 4, 77, 0
9, 28800, Note_on_c, 4, 75, 110
9, 28944, Note_on_c, 4, 75, 0
9, 29040, Note_on_c, 4, 79, 110
9, 29184, Note_on_c, 4, 79, 0
9, 29280, Note_on_c, 4, 82, 110
9, 29424, Note_on_c, 4, 82, 0
9, 29760, Note_on_c, 4, 74, 110
9, 29904, Note_on_c, 4, 74, 0
9, 30000, Note_on_c, 4, 77, 110
9, 30144, Note_on_c, 4, 77, 0
9, 30240, Note_on_c, 4, 82, 110
9, 30384, Note_on_c, 4, 82, 0
9, 30600, Note_on_c, 4, 74, 110
9, 30696, Note_on_c, 4, 74, 0
9, 30720, Note_on_c, 4, 72, 110
9, 30864, Note_on_c, 4, 72, 0
9, 30960, Note_on_c, 4, 75, 110
9, 31104, Note_on_c, 4, 75, 0
9, 31200, Note_on_c, 4, 79, 110
9, 31344, Note_on_c, 4, 79, 0
9, 31440, Note_on_c, 4, 72, 110
9, 31584, Note_on_c, 4, 72, 0
9, 31680, Note_on_c, 4, 70, 110
9, 31824, Note_on_c, 4, 70, 0
9, 31920, Note_on_c, 4, 74, 110
9, 32064, Note_on_c, 4, 74, 0
9, 32160, Note_on_c, 4, 77, 110
9, 32304, Note_on_c, 4, 77, 0
9, 32520, Note_on_c, 4, 65, 110
9, 32592, Note_on_c, 4, 65, 0
9, 32640, Note_on_c, 4, 64, 110
9, 32700, Note_on_c, 4, 64, 0
9, 32760, Note_on_c, 4, 65, 110
9, 32820, Note_on_c, 4, 65, 0
9, 32880, Note_on_c, 4, 67, 110
9, 32940, Note_on_c, 4, 67, 0
9, 33000, Note_on_c, 4, 69, 110
9, 33060, Note_on_c, 4, 69, 0
9, 33120, Note_on_c, 4, 70, 110
9, 33180, Note_on_c, 4, 70, 0
9, 33240, Note_on_c, 4, 72, 110
9, 33300, Note_on_c, 4, 72, 0
9, 33360, Note_on_c, 4, 73, 110
9, 33420, Note_on_c, 4, 73, 0
9, 33480, Note_on_c, 4, 65, 110
9, 33540, Note_on_c, 4, 65, 0
9, 33600, Note_on_c, 4, 64, 110
9, 33660, Note_on_c, 4, 64, 0
9, 33720, Note_on_c, 4, 65, 110
9, 33780, Note_on_c, 4, 65, 0
9, 33840, Note_on_c, 4, 67, 110
9, 33900, Note_on_c, 4, 67, 0
9, 33960, Note_on_c, 4, 69, 110
9, 34020, Note_on_c, 4, 69, 0
9, 34080, Note_on_c, 4, 70, 110
9, 34140, Note_on_c, 4, 70, 0
9, 34200, Note_on_c, 4, 72, 110
9, 34260, Note_on_c, 4, 72, 0
9, 34320, Note_on_c, 4, 73, 110
9, 34380, Note_on_c, 4, 73, 0
9, 34440, Note_on_c, 4, 65, 110
9, 34500, Note_on_c, 4, 65, 0
9, 34560, Note_on_c, 4, 64, 110
9, 34620, Note_on_c, 4, 64, 0
9, 34680, Note_on_c, 4, 65, 110
9, 34740, Note_on_c, 4, 65, 0
9, 34800, Note_on_c, 4, 67, 110
9, 34860, Note_on_c, 4, 67, 0
9, 34920, Note_on_c, 4, 69, 110
9, 34980, Note_on_c, 4, 69, 0
9, 35040, Note_on_c, 4, 70, 110
9, 35100, Note_on_c, 4, 70, 0
9, 35160, Note_on_c, 4, 72, 110
9, 35220, Note_on_c, 4, 72, 0
9, 35280, Note_on_c, 4, 73, 110
9, 35340, Note_on_c, 4, 73, 0
9, 35400, Note_on_c, 4, 65, 110
9, 35460, Note_on_c, 4, 65, 0
9, 35520, Note_on_c, 4, 64, 110
9, 35580, Note_on_c, 4, 64, 0
9, 35640, Note_on_c, 4, 65, 110
9, 35700, Note_on_c, 4, 65, 0
9, 35760, Note_on_c, 4, 67, 110
9, 35820, Note_on_c, 4, 67, 0
9, 35880, Note_on_c, 4, 69, 110
9, 35940, Note_on_c, 4, 69, 0
9, 36000, Note_on_c, 4, 70, 110
9, 36060, Note_on_c, 4, 70, 0
9, 36120, Note_on_c, 4, 72, 110
9, 36180, Note_on_c, 4, 72, 0
9, 36240, Note_on_c, 4, 73, 110
9, 36300, Note_on_c, 4, 73, 0
9, 36360, Note_on_c, 4, 64, 110
9, 36420, Note_on_c, 4, 64, 0
9, 36480, Note_on_c, 4, 65, 110
9, 36540, Note_on_c, 4, 65, 0
9, 36600, Note_on_c, 4, 77, 110
9, 36660, Note_on_c, 4, 77, 0
9, 36720, Note_on_c, 4, 77, 110
9, 36780, Note_on_c, 4, 77, 0
9, 36840, Note_on_c, 4, 77, 110
9, 36900, Note_on_c, 4, 77, 0
9, 36960, Note_on_c, 4, 75, 110
9, 37020, Note_on_c, 4, 75, 0
9, 37080, Note_on_c, 4, 75, 110
9, 37140, Note_on_c, 4, 75, 0
9, 37200, Note_on_c, 4, 75, 110
9, 37260, Note_on_c, 4, 75, 0
9, 37320, Note_on_c, 4, 75, 110
9, 37380, Note_on_c, 4, 75, 0
9, 37440, Note_on_c, 4, 73, 110
9, 37500, Note_on_c, 4, 73, 0
9, 37560, Note_on_c, 4, 73, 110
9, 37620, Note_on_c, 4, 73, 0
9, 37680, Note_on_c, 4, 73, 110
9, 37740, Note_on_c, 4, 73, 0
9, 37800, Note_on_c, 4, 73, 110
9, 37860, Note_on_c, 4, 73, 0
9, 37920, Note_on_c, 4, 73, 110
9, 37980, Note_on_c, 4, 73, 0
9, 38040, Note_on_c, 4, 73, 110
9, 38100, Note_on_c, 4, 73, 0
9, 38160, Note_on_c, 4, 73, 110
9, 38220, Note_on_c, 4, 73, 0
9, 38280, Note_on_c, 4, 73, 110
9, 38340, Note_on_c, 4, 73, 0
9, 38400, Note_on_c, 4, 72, 110
9, 38460, Note_on_c, 4, 72, 0
9, 38520, Note_on_c, 4, 72, 110
9, 38580, Note_on_c, 4, 72, 0
9, 38640, Note_on_c, 4, 72, 110
9, 38700, Note_on_c, 4, 72, 0
9, 38760, Note_on_c, 4, 72, 110
9, 38820, Note_on_c, 4, 72, 0
9, 38880, Note_on_c, 4, 75, 110
9, 38940, Note_on_c, 4, 75, 0
9, 39000, Note_on_c, 4, 75, 110
9, 39060, Note_on_c, 4, 75, 0
9, 39120, Note_on_c, 4, 75, 110
9, 39180, Note_on_c, 4, 75, 0
9, 39240, Note_on_c, 4, 75, 110
9, 39300, Note_on_c, 4, 75, 0
9, 39360, Note_on_c, 4, 73, 110
9, 39420, Note_on_c, 4, 73, 0
9, 39480, Note_on_c, 4, 73, 110
9, 39540, Note_on_c, 4, 73, 0
9, 39600, Note_on_c, 4, 73, 110
9, 39660, Note_on_c, 4, 73, 0
9, 39720, Note_on_c, 4, 73, 110
9, 39780, Note_on_c, 4, 73, 0
9, 39840, Note_on_c, 4, 70, 110
9, 39900, Note_on_c, 4, 70, 0
9, 39960, Note_on_c, 4, 70, 110
9, 40020, Note_on_c, 4, 70, 0
9, 40080, Note_on_c, 4, 70, 110
9, 40140, Note_on_c, 4, 70, 0
9, 40200, Note_on_c, 4, 70, 110
9, 40260, Note_on_c, 4, 70, 0
9, 40320, Note_on_c, 4, 69, 110
9, 40560, Note_on_c, 4, 69, 0
9, 40800, Note_on_c, 4, 65, 77
9, 40800, Note_on_c, 4, 57, 77
9, 41040, Note_on_c, 4, 57, 0
9, 41040, Note_on_c, 4, 65, 0
9, 42240, Note_on_c, 4, 65, 80
9, 42960, Note_on_c, 4, 65, 0
9, 42960, Note_on_c, 4, 64, 80
9, 43200, Note_on_c, 4, 64, 0
9, 43200, Note_on_c, 4, 63, 80
9, 43560, Note_on_c, 4, 63, 0
9, 44400, Note_on_c, 4, 58, 80
9, 44544, Note_on_c, 4, 58, 0
9, 44640, Note_on_c, 4, 58, 80
9, 44880, Note_on_c, 4, 58, 0
9, 44880, Note_on_c, 4, 58, 80
9, 45120, Note_on_c, 4, 58, 0
9, 45120, Note_on_c, 4, 58, 80
9, 45480, Note_on_c, 4, 58, 0
9, 45480, Note_on_c, 4, 60, 80
9, 45600, Note_on_c, 4, 60, 0
9, 45600, Note_on_c, 4, 57, 80
9, 45888, Note_on_c, 4, 57, 0
9, 46080, Note_on_c, 4, 67, 80
9, 46800, Note_on_c, 4, 67, 0
9, 46800, Note_on_c, 4, 66, 80
9, 47040, Note_on_c, 4, 66, 0
9, 47040, Note_on_c, 4, 65, 80
9, 47280, Note_on_c, 4, 65, 0
9, 47280, Note_on_c, 4, 64, 80
9, 47520, Note_on_c, 4, 64, 0
9, 47520, Note_on_c, 4, 63, 80
9, 47760, Note_on_c, 4, 63, 0
9, 47760, Note_on_c, 4, 62, 80
9, 48000, Note_on_c, 4, 62, 0
9, 48000, Note_on_c, 4, 60, 80
9, 48240, Note_on_c, 4, 60, 0
9, 48240, Note_on_c, 4, 63, 80
9, 48720, Note_on_c, 4, 63, 0
9, 48720, Note_on_c, 4, 57, 80
9, 48960, Note_on_c, 4, 57, 0
9, 48960, Note_on_c, 4, 58, 80
9, 49320, Note_on_c, 4, 58, 0
9, 50880, Note_on_c, 4, 63, 80
9, 51600, Note_on_c, 4, 63, 0
9, 51600, Note_on_c, 4, 65, 80
9, 51660, Note_on_c, 4, 65, 0
9, 51660, Note_on_c, 4, 63, 80
9, 51720, Note_on_c, 4, 63, 0
9, 51720, Note_on_c, 4, 62, 80
9, 51780, Note_on_c, 4, 62, 0
9, 51780, Note_on_c, 4, 60, 80
9, 51840, Note_on_c, 4, 60, 0
9, 51840, Note_on_c, 4, 58, 64
9, 52128, Note_on_c, 4, 58, 0
9, 53760, Note_on_c, 4, 60, 80
9, 54720, Note_on_c, 4, 60, 0
9, 54720, Note_on_c, 4, 59, 80
9, 54960, Note_on_c, 4, 59, 0
9, 54960, Note_on_c, 4, 58, 80
9, 55200, Note_on_c, 4, 58, 0
9, 55200, Note_on_c, 4, 57, 80
9, 55440, Note_on_c, 4, 57, 0
9, 55440, Note_on_c, 4, 56, 80
9, 55680, Note_on_c, 4, 56, 0
9, 55680, Note_on_c, 4, 58, 64
9, 55800, Note_on_c, 4, 58, 0
9, 55800, Note_on_c, 4, 55, 64
9, 55920, Note_on_c, 4, 55, 0
9, 55920, Note_on_c, 4, 58, 64
9, 56040, Note_on_c, 4, 58, 0
9, 56040, Note_on_c, 4, 55, 64
9, 56160, Note_on_c, 4, 55, 0
9, 56160, Note_on_c, 4, 58, 64
9, 56280, Note_on_c, 4, 58, 0
9, 56280, Note_on_c, 4, 55, 64
9, 56400, Note_on_c, 4, 55, 0
9, 56400, Note_on_c, 4, 56, 64
9, 56520, Note_on_c, 4, 56, 0
9, 56520, Note_on_c, 4, 60, 64
9, 56640, Note_on_c, 4, 60, 0
9, 56640, Note_on_c, 4, 58, 64
9, 56760, Note_on_c, 4, 58, 0
9, 56760, Note_on_c, 4, 55, 64
9, 56880, Note_on_c, 4, 55, 0
9, 56880, Note_on_c, 4, 58, 64
9, 57000, Note_on_c, 4, 58, 0
9, 57000, Note_on_c, 4, 55, 64
9, 57120, Note_on_c, 4, 55, 0
9, 57120, Note_on_c, 4, 58, 64
9, 57240, Note_on_c, 4, 58, 0
9, 57240, Note_on_c, 4, 55, 64
9, 57360, Note_on_c, 4, 55, 0
9, 57360, Note_on_c, 4, 56, 64
9, 57480, Note_on_c, 4, 56, 0
9, 57480, Note_on_c, 4, 60, 64
9, 57600, Note_on_c, 4, 60, 0
9, 57600, Note_on_c, 4, 58, 64
9, 57720, Note_on_c, 4, 58, 0
9, 57720, Note_on_c, 4, 55, 64
9, 57840, Note_on_c, 4, 55, 0
9, 57840, Note_on_c, 4, 58, 64
9, 57960, Note_on_c, 4, 58, 0
9, 57960, Note_on_c, 4, 55, 64
9, 58080, Note_on_c, 4, 55, 0
9, 58080, Note_on_c, 4, 58, 64
9, 58200, Note_on_c, 4, 58, 0
9, 58200, Note_on_c, 4, 55, 64
9, 58320, Note_on_c, 4, 55, 0
9, 58320, Note_on_c, 4, 56, 64
9, 58440, Note_on_c, 4, 56, 0
9, 58440, Note_on_c, 4, 60, 64
9, 58560, Note_on_c, 4, 60, 0
9, 58560, Note_on_c, 4, 58, 64
9, 58680, Note_on_c, 4, 58, 0
9, 58680, Note_on_c, 4, 55, 64
9, 58800, Note_on_c, 4, 55, 0
9, 58800, Note_on_c, 4, 58, 64
9, 58920, Note_on_c, 4, 58, 0
9, 58920, Note_on_c, 4, 55, 64
9, 59040, Note_on_c, 4, 55, 0
9, 59040, Note_on_c, 4, 58, 64
9, 59160, Note_on_c, 4, 58, 0
9, 59160, Note_on_c, 4, 55, 64
9, 59280, Note_on_c, 4, 55, 0
9, 59280, Note_on_c, 4, 56, 64
9, 59400, Note_on_c, 4, 56, 0
9, 59400, Note_on_c, 4, 60, 64
9, 59520, Note_on_c, 4, 60, 0
9, 59520, Note_on_c, 4, 58, 75
9, 59616, Note_on_c, 4, 58, 0
9, 59640, Note_on_c, 4, 70, 78
9, 59736, Note_on_c, 4, 70, 0
9, 59760, Note_on_c, 4, 70, 81
9, 59856, Note_on_c, 4, 70, 0
9, 59880, Note_on_c, 4, 70, 84
9, 59976, Note_on_c, 4, 70, 0
9, 60000, Note_on_c, 4, 70, 88
9, 60096, Note_on_c, 4, 70, 0
9, 60120, Note_on_c, 4, 70, 91
9, 60216, Note_on_c, 4, 70, 0
9, 60240, Note_on_c, 4, 70, 94
9, 60336, Note_on_c, 4, 70, 0
9, 60360, Note_on_c, 4, 70, 97
9, 60456, Note_on_c, 4, 70, 0
9, 60480, Note_on_c, 4, 70, 100
9, 60576, Note_on_c, 4, 70, 0
9, 60600, Note_on_c, 4, 82, 101
9, 60696, Note_on_c, 4, 82, 0
9, 60720, Note_on_c, 4, 82, 103
9, 60816, Note_on_c, 4, 82, 0
9, 60840, Note_on_c, 4, 82, 104
9, 60936, Note_on_c, 4, 82, 0
9, 60960, Note_on_c, 4, 82, 105
9, 61056, Note_on_c, 4, 82, 0
9, 61080, Note_on_c, 4, 82, 106
9, 61176, Note_on_c, 4, 82, 0
9, 61200, Note_on_c, 4, 82, 108
9, 61296, Note_on_c, 4, 82, 0
9, 61320, Note_on_c, 4, 82, 109
9, 61416, Note_on_c, 4, 82, 0
9, 61440, Note_on_c, 4, 82, 110
9, 61680, Note_on_c, 4, 82, 0
9, 61680, Note_on_c, 4, 77, 110
9, 61680, Note_on_c, 4, 74, 110
9, 62160, Note_on_c, 4, 74, 0
9, 62160, Note_on_c, 4, 77, 0
9, 62160, Note_on_c, 4, 74, 110
9, 62160, Note_on_c, 4, 77, 110
9, 62400, Note_on_c, 4, 77, 0
9, 62400, Note_on_c, 4, 74, 0
9, 62400, Note_on_c, 4, 75, 110
9, 62400, Note_on_c, 4, 77, 110
9, 62640, Note_on_c, 4, 77, 0
9, 62640, Note_on_c, 4, 75, 0
9, 62640, Note_on_c, 4, 77, 110
9, 62640, Note_on_c, 4, 75, 110
9, 63120, Note_on_c, 4, 75, 0
9, 63120, Note_on_c, 4, 77, 0
9, 63120, Note_on_c, 4, 75, 110
9, 63120, Note_on_c, 4, 77, 110
9, 63360, Note_on_c, 4, 77, 0
9, 63360, Note_on_c, 4, 75, 0
9, 63360, Note_on_c, 4, 74, 110
9, 63360, Note_on_c, 4, 77, 110
9, 63504, Note_on_c, 4, 77, 0
9, 63504, Note_on_c, 4, 74, 0
9, 63600, Note_on_c, 4, 62, 110
9, 63672, Note_on_c, 4, 62, 0
9, 63720, Note_on_c, 4, 62, 110
9, 63792, Note_on_c, 4, 62, 0
9, 63840, Note_on_c, 4, 62, 110
9, 63912, Note_on_c, 4, 62, 0
9, 63960, Note_on_c, 4, 62, 110
9, 64032, Note_on_c, 4, 62, 0
9, 64080, Note_on_c, 4, 63, 110
9, 64152, Note_on_c, 4, 63, 0
9, 64200, Note_on_c, 4, 63, 110
9, 64272, Note_on_c, 4, 63, 0
9, 64320, Note_on_c, 4, 64, 110
9, 64392, Note_on_c, 4, 64, 0
9, 64440, Note_on_c, 4, 64, 110
9, 64512, Note_on_c, 4, 64, 0
9, 64560, Note_on_c, 4, 65, 110
9, 64632, Note_on_c, 4, 65, 0
9, 64680, Note_on_c, 4, 65, 110
9, 64752, Note_on_c, 4, 65, 0
9, 64800, Note_on_c, 4, 66, 110
9, 64872, Note_on_c, 4, 66, 0
9, 64920, Note_on_c, 4, 66, 110
9, 64992, Note_on_c, 4, 66, 0
9, 65040, Note_on_c, 4, 67, 110
9, 65112, Note_on_c, 4, 67, 0
9, 65160, Note_on_c, 4, 67, 110
9, 65232, Note_on_c, 4, 67, 0
9, 65280, Note_on_c, 4, 68, 110
9, 65472, Note_on_c, 4, 68, 0
9, 65700, Note_on_c, 4, 68, 127
9, 65748, Note_on_c, 4, 68, 0
9, 65760, Note_on_c, 4, 67, 110
9, 65952, Note_on_c, 4, 67, 0
9, 66180, Note_on_c, 4, 67, 127
9, 66228, Note_on_c, 4, 67, 0
9, 66240, Note_on_c, 4, 75, 110
9, 66432, Note_on_c, 4, 75, 0
9, 66660, Note_on_c, 4, 75, 127
9, 66708, Note_on_c, 4, 75, 0
9, 66720, Note_on_c, 4, 74, 110
9, 66912, Note_on_c, 4, 74, 0
9, 67140, Note_on_c, 4, 74, 127
9, 67188, Note_on_c, 4, 74, 0
9, 67200, Note_on_c, 4, 79, 110
9, 67776, Note_on_c, 4, 79, 0
9, 67800, Note_on_c, 4, 77, 90
9, 67890, Note_on_c, 4, 77, 0
9, 67920, Note_on_c, 4, 75, 90
9, 68010, Note_on_c, 4, 75, 0
9, 68040, Note_on_c, 4, 74, 90
9, 68130, Note_on_c, 4, 74, 0
9, 68160, Note_on_c, 4, 72, 90
9, 68250, Note_on_c, 4, 72, 0
9, 68280, Note_on_c, 4, 70, 90
9, 68370, Note_on_c, 4, 70, 0
9, 68400, Note_on_c, 4, 69, 90
9, 68490, Note_on_c, 4, 69, 0
9, 68520, Note_on_c, 4, 67, 90
9, 68610, Note_on_c, 4, 67, 0
9, 68640, Note_on_c, 4, 65, 90
9, 68730, Note_on_c, 4, 65, 0
9, 68760, Note_on_c, 4, 63, 90
9, 68850, Note_on_c, 4, 63, 0
9, 68880, Note_on_c, 4, 62, 90
9, 68970, Note_on_c, 4, 62, 0
9, 69000, Note_on_c, 4, 60, 90
9, 69090, Note_on_c, 4, 60, 0
9, 69120, Note_on_c, 4, 62, 80
9, 69240, Note_on_c, 4, 62, 0
9, 69240, Note_on_c, 4, 65, 80
9, 69360, Note_on_c, 4, 65, 0
9, 69360, Note_on_c, 4, 62, 80
9, 69480, Note_on_c, 4, 62, 0
9, 69480, Note_on_c, 4, 65, 80
9, 69600, Note_on_c, 4, 65, 0
9, 69600, Note_on_c, 4, 62, 80
9, 69720, Note_on_c, 4, 62, 0
9, 69720, Note_on_c, 4, 65, 80
9, 69840, Note_on_c, 4, 65, 0
9, 69840, Note_on_c, 4, 62, 80
9, 69960, Note_on_c, 4, 62, 0
9, 69960, Note_on_c, 4, 65, 80
9, 70080, Note_on_c, 4, 65, 0
9, 70080, Note_on_c, 4, 63, 80
9, 70200, Note_on_c, 4, 63, 0
9, 70200, Note_on_c, 4, 65, 80
9, 70320, Note_on_c, 4, 65, 0
9, 70320, Note_on_c, 4, 63, 80
9, 70440, Note_on_c, 4, 63, 0
9, 70440, Note_on_c, 4, 65, 80
9, 70560, Note_on_c, 4, 65, 0
9, 70560, Note_on_c, 4, 60, 80
9, 70680, Note_on_c, 4, 60, 0
9, 70680, Note_on_c, 4, 65, 80
9, 70800, Note_on_c, 4, 65, 0
9, 70800, Note_on_c, 4, 60, 80
9, 70920, Note_on_c, 4, 60, 0
9, 70920, Note_on_c, 4, 65, 80
9, 71040, Note_on_c, 4, 65, 0
9, 71040, Note_on_c, 4, 58, 80
9, 71160, Note_on_c, 4, 58, 0
9, 71160, Note_on_c, 4, 65, 80
9, 71280, Note_on_c, 4, 65, 0
9, 71280, Note_on_c, 4, 58, 80
9, 71400, Note_on_c, 4, 58, 0
9, 71400, Note_on_c, 4, 65, 80
9, 71520, Note_on_c, 4, 65, 0
9, 71520, Note_on_c, 4, 58, 80
9, 71640, Note_on_c, 4, 58, 0
9, 71640, Note_on_c, 4, 65, 80
9, 71760, Note_on_c, 4, 65, 0
9, 71760, Note_on_c, 4, 62, 80
9, 71880, Note_on_c, 4, 62, 0
9, 71880, Note_on_c, 4, 65, 80
9, 72000, Note_on_c, 4, 65, 0
9, 72000, Note_on_c, 4, 63, 80
9, 72120, Note_on_c, 4, 63, 0
9, 72120, Note_on_c, 4, 65, 80
9, 72240, Note_on_c, 4, 65, 0
9, 72240, Note_on_c, 4, 63, 80
9, 72360, Note_on_c, 4, 63, 0
9, 72360, Note_on_c, 4, 65, 80
9, 72480, Note_on_c, 4, 65, 0
9, 72480, Note_on_c, 4, 60, 80
9, 72600, Note_on_c, 4, 60, 0
9, 72600, Note_on_c, 4, 65, 80
9, 72720, Note_on_c, 4, 65, 0
9, 72720, Note_on_c, 4, 60, 80
9, 72840, Note_on_c, 4, 60, 0
9, 72840, Note_on_c, 4, 65, 80
9, 72960, Note_on_c, 4, 65, 0
9, 72960, Note_on_c, 4, 58, 80
9, 73080, Note_on_c, 4, 58, 0
9, 73080, Note_on_c, 4, 65, 80
9, 73200, Note_on_c, 4, 65, 0
9, 73200, Note_on_c, 4, 58, 80
9, 73320, Note_on_c, 4, 58, 0
9, 73320, Note_on_c, 4, 65, 80
9, 73440, Note_on_c, 4, 65, 0
9, 73440, Note_on_c, 4, 58, 80
9, 73560, Note_on_c, 4, 58, 0
9, 73560, Note_on_c, 4, 65, 80
9, 73680, Note_on_c, 4, 65, 0
9, 73680, Note_on_c, 4, 70, 80
9, 73800, Note_on_c, 4, 70, 0
9, 73800, Note_on_c, 4, 65, 80
9, 73920, Note_on_c, 4, 65, 0
9, 73920, Note_on_c, 4, 72, 110
9, 73920, Note_on_c, 4, 78, 110
9, 74016, Note_on_c, 4, 78, 0
9, 74016, Note_on_c, 4, 72, 0
9, 74040, Note_on_c, 4, 72, 110
9, 74040, Note_on_c, 4, 78, 110
9, 74136, Note_on_c, 4, 78, 0
9, 74136, Note_on_c, 4, 72, 0
9, 74160, Note_on_c, 4, 72, 110
9, 74160, Note_on_c, 4, 78, 110
9, 74256, Note_on_c, 4, 78, 0
9, 74256, Note_on_c, 4, 72, 0
9, 74280, Note_on_c, 4, 72, 110
9, 74280, Note_on_c, 4, 78, 110
9, 74376, Note_on_c, 4, 78, 0
9, 74376, Note_on_c, 4, 72, 0
9, 74400, Note_on_c, 4, 72, 110
9, 74400, Note_on_c, 4, 78, 110
9, 74496, Note_on_c, 4, 78, 0
9, 74496, Note_on_c, 4, 72, 0
9, 74520, Note_on_c, 4, 72, 110
9, 74520, Note_on_c, 4, 78, 110
9, 74616, Note_on_c, 4, 78, 0
9, 74616, Note_on_c, 4, 72, 0
9, 74640, Note_on_c, 4, 72, 110
9, 74640, Note_on_c, 4, 78, 110
9, 74736, Note_on_c, 4, 78, 0
9, 74736, Note_on_c, 4, 72, 0
9, 74760, Note_on_c, 4, 72, 110
9, 74760, Note_on_c, 4, 78, 110
9, 74856, Note_on_c, 4, 78, 0
9, 74856, Note_on_c, 4, 72, 0
9, 74880, Note_on_c, 4, 70, 110
9, 74880, Note_on_c, 4, 79, 110
9, 75264, Note_on_c, 4, 79, 0
9, 75264, Note_on_c, 4, 70, 0
9, 75360, Note_on_c, 4, 79, 110
9, 75648, Note_on_c, 4, 79, 0
9, 75720, Note_on_c, 4, 75, 110
9, 75816, Note_on_c, 4, 75, 0
9, 75840, Note_on_c, 4, 74, 110
9, 76128, Note_on_c, 4, 74, 0
9, 76200, Note_on_c, 4, 77, 110
9, 76296, Note_on_c, 4, 77, 0
9, 76320, Note_on_c, 4, 75, 110
9, 76608, Note_on_c, 4, 75, 0
9, 76680, Note_on_c, 4, 72, 110
9, 76776, Note_on_c, 4, 72, 0
9, 76800, Note_on_c, 4, 74, 80
9, 76920, Note_on_c, 4, 74, 0
9, 76920, Note_on_c, 4, 65, 80
9, 77040, Note_on_c, 4, 65, 0
9, 77040, Note_on_c, 4, 62, 80
9, 77160, Note_on_c, 4, 62, 0
9, 77160, Note_on_c, 4, 65, 80
9, 77280, Note_on_c, 4, 65, 0
9, 77280, Note_on_c, 4, 62, 80
9, 77400, Note_on_c, 4, 62, 0
9, 77400, Note_on_c, 4, 65, 80
9, 77520, Note_on_c, 4, 65, 0
9, 77520, Note_on_c, 4, 62, 80
9, 77640, Note_on_c, 4, 62, 0
9, 77640, Note_on_c, 4, 65, 80
9, 77760, Note_on_c, 4, 65, 0
9, 77760, Note_on_c, 4, 60, 80
9, 77880, Note_on_c, 4, 60, 0
9, 77880, Note_on_c, 4, 63, 80
9, 78000, Note_on_c, 4, 63, 0
9, 78000, Note_on_c, 4, 60, 80
9, 78120, Note_on_c, 4, 60, 0
9, 78120, Note_on_c, 4, 63, 80
9, 78240, Note_on_c, 4, 63, 0
9, 78240, Note_on_c, 4, 60, 80
9, 78360, Note_on_c, 4, 60, 0
9, 78360, Note_on_c, 4, 65, 80
9, 78480, Note_on_c, 4, 65, 0
9, 78480, Note_on_c, 4, 57, 80
9, 78600, Note_on_c, 4, 57, 0
9, 78600, Note_on_c, 4, 65, 80
9, 78720, Note_on_c, 4, 65, 0
9, 78720, Note_on_c, 4, 58, 80
9, 78840, Note_on_c, 4, 58, 0
9, 78840, Note_on_c, 4, 65, 80
9, 78960, Note_on_c, 4, 65, 0
9, 78960, Note_on_c, 4, 58, 80
9, 79080, Note_on_c, 4, 58, 0
9, 79080, Note_on_c, 4, 65, 80
9, 79200, Note_on_c, 4, 65, 0
9, 79200, Note_on_c, 4, 58, 80
9, 79320, Note_on_c, 4, 58, 0
9, 79320, Note_on_c, 4, 65, 80
9, 79440, Note_on_c, 4, 65, 0
9, 79440, Note_on_c, 4, 62, 80
9, 79560, Note_on_c, 4, 62, 0
9, 79560, Note_on_c, 4, 65, 80
9, 79680, Note_on_c, 4, 65, 0
9, 79680, Note_on_c, 4, 60, 80
9, 79800, Note_on_c, 4, 60, 0
9, 79800, Note_on_c, 4, 63, 80
9, 79920, Note_on_c, 4, 63, 0
9, 79920, Note_on_c, 4, 60, 80
9, 80040, Note_on_c, 4, 60, 0
9, 80040, Note_on_c, 4, 63, 80
9, 80160, Note_on_c, 4, 63, 0
9, 80160, Note_on_c, 4, 60, 80
9, 80280, Note_on_c, 4, 60, 0
9, 80280, Note_on_c, 4, 65, 80
9, 80400, Note_on_c, 4, 65, 0
9, 80400, Note_on_c, 4, 57, 80
9, 80520, Note_on_c, 4, 57, 0
9, 80520, Note_on_c, 4, 65, 80
9, 80640, Note_on_c, 4, 65, 0
9, 80640, Note_on_c, 4, 58, 80
9, 80760, Note_on_c, 4, 58, 0
9, 80760, Note_on_c, 4, 65, 80
9, 80880, Note_on_c, 4, 65, 0
9, 80880, Note_on_c, 4, 58, 80
9, 81000, Note_on_c, 4, 58, 0
9, 81000, Note_on_c, 4, 65, 80
9, 81120, Note_on_c, 4, 65, 0
9, 81120, Note_on_c, 4, 58, 80
9, 81240, Note_on_c, 4, 58, 0
9, 81240, Note_on_c, 4, 65, 80
9, 81360, Note_on_c, 4, 65, 0
9, 81360, Note_on_c, 4, 70, 80
9, 81480, Note_on_c, 4, 70, 0
9, 81480, Note_on_c, 4, 65, 80
9, 81600, Note_on_c, 4, 65, 0
9, 81600, Note_on_c, 4, 78, 110
9, 81600, Note_on_c, 4, 72, 110
9, 81696, Note_on_c, 4, 72, 0
9, 81696, Note_on_c, 4, 78, 0
9, 81720, Note_on_c, 4, 78, 110
9, 81720, Note_on_c, 4, 72, 110
9, 81816, Note_on_c, 4, 72, 0
9, 81816, Note_on_c, 4, 78, 0
9, 81840, Note_on_c, 4, 78, 110
9, 81840, Note_on_c, 4, 72, 110
9, 81936, Note_on_c, 4, 72, 0
9, 81936, Note_on_c, 4, 78, 0
9, 81960, Note_on_c, 4, 78, 110
9, 81960, Note_on_c, 4, 72, 110
9, 82056, Note_on_c, 4, 72, 0
9, 82056, Note_on_c, 4, 78, 0
9, 82080, Note_on_c, 4, 78, 110
9, 82080, Note_on_c, 4, 72, 110
9, 82176, Note_on_c, 4, 72, 0
9, 82176, Note_on_c, 4, 78, 0
9, 82200, Note_on_c, 4, 78, 110
9, 82200, Note_on_c, 4, 72, 110
9, 82296, Note_on_c, 4, 72, 0
9, 82296, Note_on_c, 4, 78, 0
9, 82320, Note_on_c, 4, 78, 110
9, 82320, Note_on_c, 4, 72, 110
9, 82416, Note_on_c, 4, 72, 0
9, 82416, Note_on_c, 4, 78, 0
9, 82440, Note_on_c, 4, 78, 110
9, 82440, Note_on_c, 4, 72, 110
9, 82536, Note_on_c, 4, 72, 0
9, 82536, Note_on_c, 4, 78, 0
9, 82560, Note_on_c, 4, 79, 110
9, 82560, Note_on_c, 4, 70, 110
9, 82944, Note_on_c, 4, 70, 0
9, 82944, Note_on_c, 4, 79, 0
9, 83040, Note_on_c, 4, 79, 110
9, 83328, Note_on_c, 4, 79, 0
9, 83400, Note_on_c, 4, 75, 110
9, 83496, Note_on_c, 4, 75, 0
9, 83520, Note_on_c, 4, 74, 110
9, 83808, Note_on_c, 4, 74, 0
9, 83880, Note_on_c, 4, 77, 110
9, 83976, Note_on_c, 4, 77, 0
9, 84000, Note_on_c, 4, 75, 110
9, 84288, Note_on_c, 4, 75, 0
9, 84360, Note_on_c, 4, 72, 110
9, 84456, Note_on_c, 4, 72, 0
9, 84480, Note_on_c, 4, 74, 110
9, 84624, Note_on_c, 4, 74, 0
9, 84720, Note_on_c, 4, 86, 110
9, 84792, Note_on_c, 4, 86, 0
9, 84840, Note_on_c, 4, 84, 110
9, 84912, Note_on_c, 4, 84, 0
9, 84960, Note_on_c, 4, 82, 110
9, 85032, Note_on_c, 4, 82, 0
9, 85080, Note_on_c, 4, 81, 110
9, 85152, Note_on_c, 4, 81, 0
9, 85200, Note_on_c, 4, 79, 110
9, 85272, Note_on_c, 4, 79, 0
9, 85320, Note_on_c, 4, 77, 110
9, 85392, Note_on_c, 4, 77, 0
9, 85440, Note_on_c, 4, 75, 110
9, 85512, Note_on_c, 4, 75, 0
9, 85560, Note_on_c, 4, 74, 110
9, 85632, Note_on_c, 4, 74, 0
9, 85680, Note_on_c, 4, 72, 110
9, 85752, Note_on_c, 4, 72, 0
9, 85800, Note_on_c, 4, 70, 110
9, 85872, Note_on_c, 4, 70, 0
9, 85920, Note_on_c, 4, 69, 110
9, 85992, Note_on_c, 4, 69, 0
9, 86040, Note_on_c, 4, 67, 110
9, 86112, Note_on_c, 4, 67, 0
9, 86160, Note_on_c, 4, 65, 110
9, 86232, Note_on_c, 4, 65, 0
9, 86280, Note_on_c, 4, 63, 110
9, 86352, Note_on_c, 4, 63, 0
9, 86400, Note_on_c, 4, 62, 110
9, 86544, Note_on_c, 4, 62, 0
9, 86640, Note_on_c, 4, 70, 110
9, 86784, Note_on_c, 4, 70, 0
9, 86880, Note_on_c, 4, 70, 110
9, 87024, Note_on_c, 4, 70, 0
9, 87120, Note_on_c, 4, 60, 110
9, 87120, Note_on_c, 4, 63, 110
9, 87264, Note_on_c, 4, 63, 0
9, 87264, Note_on_c, 4, 60, 0
9, 87360, Note_on_c, 4, 58, 110
9, 87360, Note_on_c, 4, 62, 110
9, 87504, Note_on_c, 4, 62, 0
9, 87504, Note_on_c, 4, 58, 0
9, 87600, Note_on_c, 4, 74, 110
9, 87672, Note_on_c, 4, 74, 0
9, 87720, Note_on_c, 4, 72, 110
9, 87792, Note_on_c, 4, 72, 0
9, 87840, Note_on_c, 4, 70, 110
9, 87912, Note_on_c, 4, 70, 0
9, 87960, Note_on_c, 4, 69, 110
9, 88032, Note_on_c, 4, 69, 0
9, 88080, Note_on_c, 4, 67, 110
9, 88152, Note_on_c, 4, 67, 0
9, 88200, Note_on_c, 4, 65, 110
9, 88272, Note_on_c, 4, 65, 0
9, 88320, Note_on_c, 4, 63, 110
9, 88392, Note_on_c, 4, 63, 0
9, 88440, Note_on_c, 4, 62, 110
9, 88512, Note_on_c, 4, 62, 0
9, 88560, Note_on_c, 4, 60, 110
9, 88632, Note_on_c, 4, 60, 0
9, 88680, Note_on_c, 4, 58, 110
9, 88752, Note_on_c, 4, 58, 0
9, 88800, Note_on_c, 4, 57, 110
9, 88872, Note_on_c, 4, 57, 0
9, 88920, Note_on_c, 4, 60, 110
9, 88992, Note_on_c, 4, 60, 0
9, 89040, Note_on_c, 4, 65, 110
9, 89112, Note_on_c, 4, 65, 0
9, 89160, Note_on_c, 4, 63, 110
9, 89232, Note_on_c, 4, 63, 0
9, 89280, Note_on_c, 4, 62, 110
9, 89424, Note_on_c, 4, 62, 0
9, 89520, Note_on_c, 4, 70, 110
9, 89664, Note_on_c, 4, 70, 0
9, 89760, Note_on_c, 4, 70, 110
9, 89904, Note_on_c, 4, 70, 0
9, 90000, Note_on_c, 4, 75, 110
9, 90144, Note_on_c, 4, 75, 0
9, 90240, Note_on_c, 4, 74, 110
9, 90384, Note_on_c, 4, 74, 0
9, 90480, Note_on_c, 4, 75, 110
9, 90624, Note_on_c, 4, 75, 0
9, 90720, Note_on_c, 4, 74, 110
9, 90864, Note_on_c, 4, 74, 0
9, 90960, Note_on_c, 4, 60, 110
9, 90960, Note_on_c, 4, 63, 110
9, 91104, Note_on_c, 4, 63, 0
9, 91104, Note_on_c, 4, 60, 0
9, 91200, Note_on_c, 4, 58, 110
9, 91200, Note_on_c, 4, 62, 110
9, 91392, Note_on_c, 4, 62, 0
9, 91392, Note_on_c, 4, 58, 0
9, 91440, Note_on_c, 4, 65, 110
9, 91440, Note_on_c, 4, 74, 110
9, 91512, Note_on_c, 4, 74, 0
9, 91512, Note_on_c, 4, 65, 0
9, 91560, Note_on_c, 4, 65, 110
9, 91560, Note_on_c, 4, 74, 110
9, 91632, Note_on_c, 4, 74, 0
9, 91632, Note_on_c, 4, 65, 0
9, 91680, Note_on_c, 4, 65, 110
9, 91680, Note_on_c, 4, 75, 110
9, 91872, Note_on_c, 4, 75, 0
9, 91872, Note_on_c, 4, 65, 0
9, 91920, Note_on_c, 4, 65, 110
9, 91920, Note_on_c, 4, 75, 110
9, 91992, Note_on_c, 4, 75, 0
9, 91992, Note_on_c, 4, 65, 0
9, 92040, Note_on_c, 4, 65, 110
9, 92040, Note_on_c, 4, 75, 110
9, 92112, Note_on_c, 4, 75, 0
9, 92112, Note_on_c, 4, 65, 0
9, 92160, Note_on_c, 4, 65, 110
9, 92160, Note_on_c, 4, 74, 110
9, 92352, Note_on_c, 4, 74, 0
9, 92352, Note_on_c, 4, 65, 0
9, 92400, Note_on_c, 4, 74, 110
9, 92400, Note_on_c, 4, 65, 110
9, 92472, Note_on_c, 4, 65, 0
9, 92472, Note_on_c, 4, 74, 0
9, 92520, Note_on_c, 4, 74, 110
9, 92520, Note_on_c, 4, 65, 110
9, 92592, Note_on_c, 4, 65, 0
9, 92592, Note_on_c, 4, 74, 0
9, 92640, Note_on_c, 4, 75, 110
9, 92640, Note_on_c, 4, 65, 110
9, 92832, Note_on_c, 4, 65, 0
9, 92832, Note_on_c, 4, 75, 0
9, 92880, Note_on_c, 4, 65, 110
9, 92880, Note_on_c, 4, 75, 110
9, 92952, Note_on_c, 4, 75, 0
9, 92952, Note_on_c, 4, 65, 0
9, 93000, Note_on_c, 4, 65, 110
9, 93000, Note_on_c, 4, 75, 110
9, 93072, Note_on_c, 4, 75, 0
9, 93072, Note_on_c, 4, 65, 0
9, 93120, Note_on_c, 4, 74, 110
9, 93120, Note_on_c, 4, 65, 110
9, 93312, Note_on_c, 4, 65, 0
9, 93312, Note_on_c, 4, 74, 0
9, 93360, Note_on_c, 4, 65, 110
9, 93360, Note_on_c, 4, 74, 110
9, 93432, Note_on_c, 4, 74, 0
9, 93432, Note_on_c, 4, 65, 0
9, 93480, Note_on_c, 4, 65, 110
9, 93480, Note_on_c, 4, 74, 110
9, 93552, Note_on_c, 4, 74, 0
9, 93552, Note_on_c, 4, 65, 0
9, 93600, Note_on_c, 4, 65, 110
9, 93600, Note_on_c, 4, 75, 110
9, 93792, Note_on_c, 4, 75, 0
9, 93792, Note_on_c, 4, 65, 0
9, 93840, Note_on_c, 4, 75, 110
9, 93840, Note_on_c, 4, 65, 110
9, 93912, Note_on_c, 4, 65, 0
9, 93912, Note_on_c, 4, 75, 0
9, 93960, Note_on_c, 4, 75, 110
9, 93960, Note_on_c, 4, 65, 110
9, 94032, Note_on_c, 4, 65, 0
9, 94032, Note_on_c, 4, 75, 0
9, 94080, Note_on_c, 4, 65, 110
9, 94080, Note_on_c, 4, 74, 110
9, 94272, Note_on_c, 4, 74, 0
9, 94272, Note_on_c, 4, 65, 0
9, 94320, Note_on_c, 4, 65, 110
9, 94320, Note_on_c, 4, 75, 110
9, 94512, Note_on_c, 4, 75, 0
9, 94512, Note_on_c, 4, 65, 0
9, 94560, Note_on_c, 4, 65, 110
9, 94560, Note_on_c, 4, 74, 110
9, 94752, Note_on_c, 4, 74, 0
9, 94752, Note_on_c, 4, 65, 0
9, 94800, Note_on_c, 4, 65, 110
9, 94800, Note_on_c, 4, 75, 110
9, 94992, Note_on_c, 4, 75, 0
9, 94992, Note_on_c, 4, 65, 0
9, 95040, Note_on_c, 4, 65, 110
9, 95040, Note_on_c, 4, 74, 110
9, 95400, Note_on_c, 4, 74, 0
9, 95400, Note_on_c, 4, 65, 0
9, 96000, Note_on_c, 4, 62, 110
9, 96000, Note_on_c, 4, 72, 110
9, 96000, Note_on_c, 4, 78, 110
9, 96360, Note_on_c, 4, 78, 0
9, 96360, Note_on_c, 4, 72, 0
9, 96360, Note_on_c, 4, 62, 0
9, 97680, Note_on_c, 4, 63, 80
9, 97800, Note_on_c, 4, 63, 0
9, 97800, Note_on_c, 4, 62, 80
9, 97920, Note_on_c, 4, 62, 0
9, 97920, Note_on_c, 4, 62, 80
9, 98112, Note_on_c, 4, 62, 0
9, 98160, Note_on_c, 4, 63, 80
9, 98280, Note_on_c, 4, 63, 0
9, 98280, Note_on_c, 4, 62, 80
9, 98400, Note_on_c, 4, 62, 0
9, 98400, Note_on_c, 4, 62, 80
9, 98592, Note_on_c, 4, 62, 0
9, 98640, Note_on_c, 4, 63, 80
9, 98760, Note_on_c, 4, 63, 0
9, 98760, Note_on_c, 4, 62, 80
9, 98880, Note_on_c, 4, 62, 0
9, 98880, Note_on_c, 4, 62, 80
9, 99120, Note_on_c, 4, 62, 0
9, 99120, Note_on_c, 4, 70, 80
9, 99312, Note_on_c, 4, 70, 0
9, 99600, Note_on_c, 4, 70, 80
9, 99720, Note_on_c, 4, 70, 0
9, 99720, Note_on_c, 4, 69, 80
9, 99840, Note_on_c, 4, 69, 0
9, 99840, Note_on_c, 4, 67, 80
9, 100032, Note_on_c, 4, 67, 0
9, 100080, Note_on_c, 4, 67, 80
9, 100200, Note_on_c, 4, 67, 0
9, 100200, Note_on_c, 4, 65, 80
9, 100320, Note_on_c, 4, 65, 0
9, 100320, Note_on_c, 4, 63, 80
9, 100512, Note_on_c, 4, 63, 0
9, 100560, Note_on_c, 4, 63, 80
9, 100680, Note_on_c, 4, 63, 0
9, 100680, Note_on_c, 4, 62, 80
9, 100800, Note_on_c, 4, 62, 0
9, 100800, Note_on_c, 4, 60, 80
9, 100992, Note_on_c, 4, 60, 0
9, 101040, Note_on_c, 4, 60, 80
9, 101232, Note_on_c, 4, 60, 0
9, 101520, Note_on_c, 4, 62, 80
9, 101640, Note_on_c, 4, 62, 0
9, 101640, Note_on_c, 4, 60, 80
9, 101760, Note_on_c, 4, 60, 0
9, 101760, Note_on_c, 4, 60, 80
9, 101952, Note_on_c, 4, 60, 0
9, 102000, Note_on_c, 4, 62, 80
9, 102120, Note_on_c, 4, 62, 0
9, 102120, Note_on_c, 4, 60, 80
9, 102240, Note_on_c, 4, 60, 0
9, 102240, Note_on_c, 4, 60, 80
9, 102432, Note_on_c, 4, 60, 0
9, 102480, Note_on_c, 4, 62, 80
9, 102600, Note_on_c, 4, 62, 0
9, 102600, Note_on_c, 4, 60, 80
9, 102720, Note_on_c, 4, 60, 0
9, 102720, Note_on_c, 4, 60, 80
9, 102960, Note_on_c, 4, 60, 0
9, 102960, Note_on_c, 4, 69, 80
9, 103152, Note_on_c, 4, 69, 0
9, 103440, Note_on_c, 4, 69, 80
9, 103560, Note_on_c, 4, 69, 0
9, 103560, Note_on_c, 4, 67, 80
9, 103680, Note_on_c, 4, 67, 0
9, 103680, Note_on_c, 4, 66, 80
9, 103872, Note_on_c, 4, 66, 0
9, 103920, Note_on_c, 4, 66, 80
9, 104040, Note_on_c, 4, 66, 0
9, 104040, Note_on_c, 4, 63, 80
9, 104160, Note_on_c, 4, 63, 0
9, 104160, Note_on_c, 4, 62, 80
9, 104352, Note_on_c, 4, 62, 0
9, 104400, Note_on_c, 4, 62, 80
9, 104520, Note_on_c, 4, 62, 0
9, 104520, Note_on_c, 4, 60, 80
9, 104640, Note_on_c, 4, 60, 0
9, 104640, Note_on_c, 4, 58, 80
9, 104832, Note_on_c, 4, 58, 0
9, 104880, Note_on_c, 4, 58, 80
9, 105072, Note_on_c, 4, 58, 0
9, 105360, Note_on_c, 4, 70, 80
9, 105480, Note_on_c, 4, 70, 0
9, 105480, Note_on_c, 4, 69, 80
9, 105600, Note_on_c, 4, 69, 0
9, 105600, Note_on_c, 4, 69, 80
9, 105840, Note_on_c, 4, 69, 0
9, 105840, Note_on_c, 4, 72, 80
9, 106080, Note_on_c, 4, 72, 0
9, 106080, Note_on_c, 4, 66, 80
9, 106320, Note_on_c, 4, 66, 0
9, 106320, Note_on_c, 4, 69, 80
9, 106560, Note_on_c, 4, 69, 0
9, 106560, Note_on_c, 4, 67, 80
9, 106800, Note_on_c, 4, 67, 0
9, 106800, Note_on_c, 4, 62, 80
9, 106992, Note_on_c, 4, 62, 0
9, 107280, Note_on_c, 4, 70, 80
9, 107400, Note_on_c, 4, 70, 0
9, 107400, Note_on_c, 4, 69, 80
9, 107520, Note_on_c, 4, 69, 0
9, 107520, Note_on_c, 4, 69, 80
9, 107760, Note_on_c, 4, 69, 0
9, 107760, Note_on_c, 4, 72, 80
9, 108000, Note_on_c, 4, 72, 0
9, 108000, Note_on_c, 4, 66, 80
9, 108240, Note_on_c, 4, 66, 0
9, 108240, Note_on_c, 4, 69, 80
9, 108480, Note_on_c, 4, 69, 0
9, 108480, Note_on_c, 4, 67, 80
9, 108720, Note_on_c, 4, 67, 0
9, 108720, Note_on_c, 4, 70, 80
9, 108960, Note_on_c, 4, 70, 0
9, 108960, Note_on_c, 4, 69, 80
9, 109080, Note_on_c, 4, 69, 0
9, 109080, Note_on_c, 4, 67, 80
9, 109200, Note_on_c, 4, 67, 0
9, 109200, Note_on_c, 4, 65, 80
9, 109320, Note_on_c, 4, 65, 0
9, 109320, Note_on_c, 4, 63, 80
9, 109440, Note_on_c, 4, 63, 0
9, 109440, Note_on_c, 4, 62, 80
9, 110400, Note_on_c, 4, 62, 0
9, 110400, Note_on_c, 4, 61, 80
9, 111360, Note_on_c, 4, 61, 0
9, 111360, Note_on_c, 4, 62, 80
9, 111744, Note_on_c, 4, 62, 0
9, 112080, Note_on_c, 4, 62, 110
9, 112176, Note_on_c, 4, 62, 0
9, 112200, Note_on_c, 4, 62, 110
9, 112296, Note_on_c, 4, 62, 0
9, 112320, Note_on_c, 4, 62, 110
9, 112704, Note_on_c, 4, 62, 0
9, 113040, Note_on_c, 4, 62, 110
9, 113136, Note_on_c, 4, 62, 0
9, 113160, Note_on_c, 4, 62, 110
9, 113256, Note_on_c, 4, 62, 0
9, 113280, Note_on_c, 4, 62, 110
9, 113664, Note_on_c, 4, 62, 0
9, 114000, Note_on_c, 4, 62, 110
9, 114096, Note_on_c, 4, 62, 0
9, 114120, Note_on_c, 4, 62, 110
9, 114216, Note_on_c, 4, 62, 0
9, 114240, Note_on_c, 4, 62, 110
9, 114432, Note_on_c, 4, 62, 0
9, 114480, Note_on_c, 4, 62, 105
9, 114576, Note_on_c, 4, 62, 0
9, 114600, Note_on_c, 4, 62, 102
9, 114696, Note_on_c, 4, 62, 0
9, 114720, Note_on_c, 4, 62, 100
9, 114912, Note_on_c, 4, 62, 0
9, 114960, Note_on_c, 4, 62, 95
9, 115056, Note_on_c, 4, 62, 0
9, 115080, Note_on_c, 4, 62, 92
9, 115176, Note_on_c, 4, 62, 0
9, 115200, Note_on_c, 4, 62, 80
9, 115584, Note_on_c, 4, 62, 0
9, 115920, Note_on_c, 4, 63, 80
9, 116040, Note_on_c, 4, 63, 0
9, 116040, Note_on_c, 4, 62, 80
9, 116160, Note_on_c, 4, 62, 0
9, 116160, Note_on_c, 4, 62, 80
9, 116352, Note_on_c, 4, 62, 0
9, 116400, Note_on_c, 4, 63, 80
9, 116520, Note_on_c, 4, 63, 0
9, 116520, Note_on_c, 4, 62, 80
9, 116640, Note_on_c, 4, 62, 0
9, 116640, Note_on_c, 4, 62, 80
9, 116832, Note_on_c, 4, 62, 0
9, 116880, Note_on_c, 4, 63, 80
9, 117000, Note_on_c, 4, 63, 0
9, 117000, Note_on_c, 4, 62, 80
9, 117120, Note_on_c, 4, 62, 0
9, 117120, Note_on_c, 4, 62, 80
9, 117360, Note_on_c, 4, 62, 0
9, 117360, Note_on_c, 4, 70, 80
9, 117552, Note_on_c, 4, 70, 0
9, 117840, Note_on_c, 4, 70, 80
9, 117960, Note_on_c, 4, 70, 0
9, 117960, Note_on_c, 4, 69, 80
9, 118080, Note_on_c, 4, 69, 0
9, 118080, Note_on_c, 4, 67, 80
9, 118272, Note_on_c, 4, 67, 0
9, 118320, Note_on_c, 4, 67, 80
9, 118440, Note_on_c, 4, 67, 0
9, 118440, Note_on_c, 4, 65, 80
9, 118560, Note_on_c, 4, 65, 0
9, 118560, Note_on_c, 4, 63, 80
9, 118752, Note_on_c, 4, 63, 0
9, 118800, Note_on_c, 4, 63, 80
9, 118920, Note_on_c, 4, 63, 0
9, 118920, Note_on_c, 4, 62, 80
9, 119040, Note_on_c, 4, 62, 0
9, 119040, Note_on_c, 4, 60, 80
9, 119232, Note_on_c, 4, 60, 0
9, 119280, Note_on_c, 4, 60, 80
9, 119472, Note_on_c, 4, 60, 0
9, 119760, Note_on_c, 4, 65, 80
9, 119880, Note_on_c, 4, 65, 0
9, 119880, Note_on_c, 4, 63, 80
9, 120000, Note_on_c, 4, 63, 0
9, 120000, Note_on_c, 4, 63, 80
9, 120192, Note_on_c, 4, 63, 0
9, 120240, Note_on_c, 4, 65, 80
9, 120360, Note_on_c, 4, 65, 0
9, 120360, Note_on_c, 4, 63, 80
9, 120480, Note_on_c, 4, 63, 0
9, 120480, Note_on_c, 4, 63, 80
9, 120672, Note_on_c, 4, 63, 0
9, 120720, Note_on_c, 4, 65, 80
9, 120840, Note_on_c, 4, 65, 0
9, 120840, Note_on_c, 4, 63, 80
9, 120960, Note_on_c, 4, 63, 0
9, 120960, Note_on_c, 4, 63, 80
9, 121200, Note_on_c, 4, 63, 0
9, 121200, Note_on_c, 4, 72, 80
9, 121392, Note_on_c, 4, 72, 0
9, 121680, Note_on_c, 4, 72, 80
9, 121800, Note_on_c, 4, 72, 0
9, 121800, Note_on_c, 4, 70, 80
9, 121920, Note_on_c, 4, 70, 0
9, 121920, Note_on_c, 4, 69, 80
9, 122112, Note_on_c, 4, 69, 0
9, 122160, Note_on_c, 4, 69, 80
9, 122280, Note_on_c, 4, 69, 0
9, 122280, Note_on_c, 4, 67, 80
9, 122400, Note_on_c, 4, 67, 0
9, 122400, Note_on_c, 4, 65, 80
9, 122592, Note_on_c, 4, 65, 0
9, 122640, Note_on_c, 4, 65, 80
9, 122760, Note_on_c, 4, 65, 0
9, 122760, Note_on_c, 4, 63, 80
9, 122880, Note_on_c, 4, 63, 0
9, 122880, Note_on_c, 4, 70, 110
9, 122880, Note_on_c, 4, 62, 110
9, 123840, Note_on_c, 4, 62, 0
9, 123840, Note_on_c, 4, 70, 0
9, 123840, Note_on_c, 4, 69, 110
9, 123840, Note_on_c, 4, 77, 110
9, 124680, Note_on_c, 4, 77, 0
9, 124680, Note_on_c, 4, 69, 0
9, 124680, Note_on_c, 4, 77, 110
9, 124776, Note_on_c, 4, 77, 0
9, 124800, Note_on_c, 4, 75, 110
9, 124944, Note_on_c, 4, 75, 0
9, 125040, Note_on_c, 4, 79, 110
9, 125184, Note_on_c, 4, 79, 0
9, 125280, Note_on_c, 4, 82, 110
9, 125424, Note_on_c, 4, 82, 0
9, 125760, Note_on_c, 4, 74, 110
9, 125904, Note_on_c, 4, 74, 0
9, 126000, Note_on_c, 4, 77, 110
9, 126144, Note_on_c, 4, 77, 0
9, 126240, Note_on_c, 4, 82, 110
9, 126384, Note_on_c, 4, 82, 0
9, 126600, Note_on_c, 4, 74, 110
9, 126696, Note_on_c, 4, 74, 0
9, 126720, Note_on_c, 4, 72, 110
9, 126864, Note_on_c, 4, 72, 0
9, 126960, Note_on_c, 4, 75, 110
9, 127104, Note_on_c, 4, 75, 0
9, 127200, Note_on_c, 4, 79, 110
9, 127344, Note_on_c, 4, 79, 0
9, 127440, Note_on_c, 4, 72, 110
9, 127584, Note_on_c, 4, 72, 0
9, 127680, Note_on_c, 4, 70, 110
9, 127824, Note_on_c, 4, 70, 0
9, 127920, Note_on_c, 4, 74, 110
9, 128064, Note_on_c, 4, 74, 0
9, 128160, Note_on_c, 4, 77, 110
9, 128304, Note_on_c, 4, 77, 0
9, 128520, Note_on_c, 4, 65, 110
9, 128592, Note_on_c, 4, 65, 0
9, 128640, Note_on_c, 4, 64, 110
9, 128700, Note_on_c, 4, 64, 0
9, 128760, Note_on_c, 4, 65, 110
9, 128820, Note_on_c, 4, 65, 0
9, 128880, Note_on_c, 4, 67, 110
9, 128940, Note_on_c, 4, 67, 0
9, 129000, Note_on_c, 4, 69, 110
9, 129060, Note_on_c, 4, 69, 0
9, 129120, Note_on_c, 4, 70, 110
9, 129180, Note_on_c, 4, 70, 0
9, 129240, Note_on_c, 4, 72, 110
9, 129300, Note_on_c, 4, 72, 0
9, 129360, Note_on_c, 4, 73, 110
9, 129420, Note_on_c, 4, 73, 0
9, 129480, Note_on_c, 4, 65, 110
9, 129540, Note_on_c, 4, 65, 0
9, 129600, Note_on_c, 4, 64, 110
9, 129660, Note_on_c, 4, 64, 0
9, 129720, Note_on_c, 4, 65, 110
9, 129780, Note_on_c, 4, 65, 0
9, 129840, Note_on_c, 4, 67, 110
9, 129900, Note_on_c, 4, 67, 0
9, 129960, Note_on_c, 4, 69, 110
9, 130020, Note_on_c, 4, 69, 0
9, 130080, Note_on_c, 4, 70, 110
9, 130140, Note_on_c, 4, 70, 0
9, 130200, Note_on_c, 4, 72, 110
9, 130260, Note_on_c, 4, 72, 0
9, 130320, Note_on_c, 4, 73, 110
9, 130380, Note_on_c, 4, 73, 0
9, 130440, Note_on_c, 4, 65, 110
9, 130500, Note_on_c, 4, 65, 0
9, 130560, Note_on_c, 4, 64, 110
9, 130620, Note_on_c, 4, 64, 0
9, 130680, Note_on_c, 4, 65, 110
9, 130740, Note_on_c, 4, 65, 0
9, 130800, Note_on_c, 4, 67, 110
9, 130860, Note_on_c, 4, 67, 0
9, 130920, Note_on_c, 4, 69, 110
9, 130980, Note_on_c, 4, 69, 0
9, 131040, Note_on_c, 4, 70, 110
9, 131100, Note_on_c, 4, 70, 0
9, 131160, Note_on_c, 4, 72, 110
9, 131220, Note_on_c, 4, 72, 0
9, 131280, Note_on_c, 4, 73, 110
9, 131340, Note_on_c, 4, 73, 0
9, 131400, Note_on_c, 4, 65, 110
9, 131460, Note_on_c, 4, 65, 0
9, 131520, Note_on_c, 4, 64, 110
9, 131580, Note_on_c, 4, 64, 0
9, 131640, Note_on_c, 4, 65, 110
9, 131700, Note_on_c, 4, 65, 0
9, 131760, Note_on_c, 4, 67, 110
9, 131820, Note_on_c, 4, 67, 0
9, 131880, Note_on_c, 4, 69, 110
9, 131940, Note_on_c, 4, 69, 0
9, 132000, Note_on_c, 4, 70, 110
9, 132060, Note_on_c, 4, 70, 0
9, 132120, Note_on_c, 4, 72, 110
9, 132180, Note_on_c, 4, 72, 0
9, 132240, Note_on_c, 4, 73, 110
9, 132300, Note_on_c, 4, 73, 0
9, 132360, Note_on_c, 4, 64, 110
9, 132420, Note_on_c, 4, 64, 0
9, 132480, Note_on_c, 4, 65, 110
9, 132540, Note_on_c, 4, 65, 0
9, 132600, Note_on_c, 4, 77, 110
9, 132660, Note_on_c, 4, 77, 0
9, 132720, Note_on_c, 4, 77, 110
9, 132780, Note_on_c, 4, 77, 0
9, 132840, Note_on_c, 4, 77, 110
9, 132900, Note_on_c, 4, 77, 0
9, 132960, Note_on_c, 4, 75, 110
9, 133020, Note_on_c, 4, 75, 0
9, 133080, Note_on_c, 4, 75, 110
9, 133140, Note_on_c, 4, 75, 0
9, 133200, Note_on_c, 4, 75, 110
9, 133260, Note_on_c, 4, 75, 0
9, 133320, Note_on_c, 4, 75, 110
9, 133380, Note_on_c, 4, 75, 0
9, 133440, Note_on_c, 4, 73, 110
9, 133500, Note_on_c, 4, 73, 0
9, 133560, Note_on_c, 4, 73, 110
9, 133620, Note_on_c, 4, 73, 0
9, 133680, Note_on_c, 4, 73, 110
9, 133740, Note_on_c, 4, 73, 0
9, 133800, Note_on_c, 4, 73, 110
9, 133860, Note_on_c, 4, 73, 0
9, 133920, Note_on_c, 4, 73, 110
9, 133980, Note_on_c, 4, 73, 0
9, 134040, Note_on_c, 4, 73, 110
9, 134100, Note_on_c, 4, 73, 0
9, 134160, Note_on_c, 4, 73, 110
9, 134220, Note_on_c, 4, 73, 0
9, 134280, Note_on_c, 4, 73, 110
9, 134340, Note_on_c, 4, 73, 0
9, 134400, Note_on_c, 4, 72, 110
9, 134460, Note_on_c, 4, 72, 0
9, 134520, Note_on_c, 4, 72, 110
9, 134580, Note_on_c, 4, 72, 0
9, 134640, Note_on_c, 4, 72, 110
9, 134700, Note_on_c, 4, 72, 0
9, 134760, Note_on_c, 4, 72, 110
9, 134820, Note_on_c, 4, 72, 0
9, 134880, Note_on_c, 4, 75, 110
9, 134940, Note_on_c, 4, 75, 0
9, 135000, Note_on_c, 4, 75, 110
9, 135060, Note_on_c, 4, 75, 0
9, 135120, Note_on_c, 4, 75, 110
9, 135180, Note_on_c, 4, 75, 0
9, 135240, Note_on_c, 4, 75, 110
9, 135300, Note_on_c, 4, 75, 0
9, 135360, Note_on_c, 4, 73, 110
9, 135420, Note_on_c, 4, 73, 0
9, 135480, Note_on_c, 4, 73, 110
9, 135540, Note_on_c, 4, 73, 0
9, 135600, Note_on_c, 4, 73, 110
9, 135660, Note_on_c, 4, 73, 0
9, 135720, Note_on_c, 4, 73, 110
9, 135780, Note_on_c, 4, 73, 0
9, 135840, Note_on_c, 4, 70, 110
9, 135900, Note_on_c, 4, 70, 0
9, 135960, Note_on_c, 4, 70, 110
9, 136020, Note_on_c, 4, 70, 0
9, 136080, Note_on_c, 4, 70, 110
9, 136140, Note_on_c, 4, 70, 0
9, 136200, Note_on_c, 4, 70, 110
9, 136260, Note_on_c, 4, 70, 0
9, 136320, Note_on_c, 4, 69, 110
9, 136560, Note_on_c, 4, 69, 0
9, 136800, Note_on_c, 4, 57, 77
9, 136800, Note_on_c, 4, 65, 77
9, 137040, Note_on_c, 4, 65, 0
9, 137040, Note_on_c, 4, 57, 0
9, 138240, Note_on_c, 4, 65, 80
9, 138960, Note_on_c, 4, 65, 0
9, 138960, Note_on_c, 4, 64, 80
9, 139200, Note_on_c, 4, 64, 0
9, 139200, Note_on_c, 4, 63, 80
9, 139560, Note_on_c, 4, 63, 0
9, 140400, Note_on_c, 4, 58, 80
9, 140544, Note_on_c, 4, 58, 0
9, 140640, Note_on_c, 4, 58, 80
9, 140880, Note_on_c, 4, 58, 0
9, 140880, Note_on_c, 4, 58, 80
9, 141120, Note_on_c, 4, 58, 0
9, 141120, Note_on_c, 4, 58, 80
9, 141480, Note_on_c, 4, 58, 0
9, 141480, Note_on_c, 4, 60, 80
9, 141600, Note_on_c, 4, 60, 0
9, 141600, Note_on_c, 4, 57, 80
9, 141888, Note_on_c, 4, 57, 0
9, 142080, Note_on_c, 4, 67, 80
9, 142800, Note_on_c, 4, 67, 0
9, 142800, Note_on_c, 4, 66, 80
9, 143040, Note_on_c, 4, 66, 0
9, 143040, Note_on_c, 4, 65, 80
9, 143280, Note_on_c, 4, 65, 0
9, 143280, Note_on_c, 4, 64, 80
9, 143520, Note_on_c, 4, 64, 0
9, 143520, Note_on_c, 4, 63, 80
9, 143760, Note_on_c, 4, 63, 0
9, 143760, Note_on_c, 4, 62, 80
9, 144000, Note_on_c, 4, 62, 0
9, 144000, Note_on_c, 4, 60, 80
9, 144240, Note_on_c, 4, 60, 0
9, 144240, Note_on_c, 4, 63, 80
9, 144720, Note_on_c, 4, 63, 0
9, 144720, Note_on_c, 4, 57, 80
9, 144960, Note_on_c, 4, 57, 0
9, 144960, Note_on_c, 4, 58, 80
9, 145320, Note_on_c, 4, 58, 0
9, 146880, Note_on_c, 4, 63, 80
9, 147600, Note_on_c, 4, 63, 0
9, 147600, Note_on_c, 4, 65, 80
9, 147660, Note_on_c, 4, 65, 0
9, 147660, Note_on_c, 4, 63, 80
9, 147720, Note_on_c, 4, 63, 0
9, 147720, Note_on_c, 4, 62, 80
9, 147780, Note_on_c, 4, 62, 0
9, 147780, Note_on_c, 4, 60, 80
9, 147840, Note_on_c, 4, 60, 0
9, 147840, Note_on_c, 4, 58, 64
9, 148128, Note_on_c, 4, 58, 0
9, 149760, Note_on_c, 4, 60, 80
9, 150720, Note_on_c, 4, 60, 0
9, 150720, Note_on_c, 4, 59, 80
9, 150960, Note_on_c, 4, 59, 0
9, 150960, Note_on_c, 4, 58, 80
9, 151200, Note_on_c, 4, 58, 0
9, 151200, Note_on_c, 4, 57, 80
9, 151440, Note_on_c, 4, 57, 0
9, 151440, Note_on_c, 4, 56, 80
9, 151680, Note_on_c, 4, 56, 0
9, 151680, Note_on_c, 4, 58, 64
9, 151800, Note_on_c, 4, 58, 0
9, 151800, Note_on_c, 4, 55, 64
9, 151920, Note_on_c, 4, 55, 0
9, 151920, Note_on_c, 4, 58, 64
9, 152040, Note_on_c, 4, 58, 0
9, 152040, Note_on_c, 4, 55, 64
9, 152160, Note_on_c, 4, 55, 0
9, 152160, Note_on_c, 4, 58, 64
9, 152280, Note_on_c, 4, 58, 0
9, 152280, Note_on_c, 4, 55, 64
9, 152400, Note_on_c, 4, 55, 0
9, 152400, Note_on_c, 4, 56, 64
9, 152520, Note_on_c, 4, 56, 0
9, 152520, Note_on_c, 4, 60, 64
9, 152640, Note_on_c, 4, 60, 0
9, 152640, Note_on_c, 4, 58, 64
9, 152760, Note_on_c, 4, 58, 0
9, 152760, Note_on_c, 4, 55, 64
9, 152880, Note_on_c, 4, 55, 0
9, 152880, Note_on_c, 4, 58, 64
9, 153000, Note_on_c, 4, 58, 0
9, 153000, Note_on_c, 4, 55, 64
9, 153120, Note_on_c, 4, 55, 0
9, 153120, Note_on_c, 4, 58, 64
9, 153240, Note_on_c, 4, 58, 0
9, 153240, Note_on_c, 4, 55, 64
9, 153360, Note_on_c, 4, 55, 0
9, 153360, Note_on_c, 4, 56, 64
9, 153480, Note_on_c, 4, 56, 0
9, 153480, Note_on_c, 4, 60, 64
9, 153600, Note_on_c, 4, 60, 0
9, 153600, Note_on_c, 4, 58, 64
9, 153720, Note_on_c, 4, 58, 0
9, 153720, Note_on_c, 4, 55, 64
9, 153840, Note_on_c, 4, 55, 0
9, 153840, Note_on_c, 4, 58, 64
9, 153960, Note_on_c, 4, 58, 0
9, 153960, Note_on_c, 4, 55, 64
9, 154080, Note_on_c, 4, 55, 0
9, 154080, Note_on_c, 4, 58, 64
9, 154200, Note_on_c, 4, 58, 0
9, 154200, Note_on_c, 4, 55, 64
9, 154320, Note_on_c, 4, 55, 0
9, 154320, Note_on_c, 4, 56, 64
9, 154440, Note_on_c, 4, 56, 0
9, 154440, Note_on_c, 4, 60, 64
9, 154560, Note_on_c, 4, 60, 0
9, 154560, Note_on_c, 4, 58, 64
9, 154680, Note_on_c, 4, 58, 0
9, 154680, Note_on_c, 4, 55, 64
9, 154800, Note_on_c, 4, 55, 0
9, 154800, Note_on_c, 4, 58, 64
9, 154920, Note_on_c, 4, 58, 0
9, 154920, Note_on_c, 4, 55, 64
9, 155040, Note_on_c, 4, 55, 0
9, 155040, Note_on_c, 4, 58, 64
9, 155160, Note_on_c, 4, 58, 0
9, 155160, Note_on_c, 4, 55, 64
9, 155280, Note_on_c, 4, 55, 0
9, 155280, Note_on_c, 4, 56, 64
9, 155400, Note_on_c, 4, 56, 0
9, 155400, Note_on_c, 4, 60, 64
9, 155520, Note_on_c, 4, 60, 0
9, 155520, Note_on_c, 4, 58, 75
9, 155616, Note_on_c, 4, 58, 0
9, 155640, Note_on_c, 4, 70, 78
9, 155736, Note_on_c, 4, 70, 0
9, 155760, Note_on_c, 4, 70, 81
9, 155856, Note_on_c, 4, 70, 0
9, 155880, Note_on_c, 4, 70, 84
9, 155976, Note_on_c, 4, 70, 0
9, 156000, Note_on_c, 4, 70, 88
9, 156096, Note_on_c, 4, 70, 0
9, 156120, Note_on_c, 4, 70, 91
9, 156216, Note_on_c, 4, 70, 0
9, 156240, Note_on_c, 4, 70, 94
9, 156336, Note_on_c, 4, 70, 0
9, 156360, Note_on_c, 4, 70, 97
9, 156456, Note_on_c, 4, 70, 0
9, 156480, Note_on_c, 4, 70, 100
9, 156576, Note_on_c, 4, 70, 0
9, 156600, Note_on_c, 4, 82, 101
9, 156696, Note_on_c, 4, 82, 0
9, 156720, Note_on_c, 4, 82, 103
9, 156816, Note_on_c, 4, 82, 0
9, 156840, Note_on_c, 4, 82, 104
9, 156936, Note_on_c, 4, 82, 0
9, 156960, Note_on_c, 4, 82, 105
9, 157056, Note_on_c, 4, 82, 0
9, 157080, Note_on_c, 4, 82, 106
9, 157176, Note_on_c, 4, 82, 0
9, 157200, Note_on_c, 4, 82, 108
9, 157296, Note_on_c, 4, 82, 0
9, 157320, Note_on_c, 4, 82, 109
9, 157416, Note_on_c, 4, 82, 0
9, 157440, Note_on_c, 4, 82, 110
9, 157680, Note_on_c, 4, 82, 0
9, 157680, Note_on_c, 4, 74, 110
9, 157680, Note_on_c, 4, 77, 110
9, 158160, Note_on_c, 4, 77, 0
9, 158160, Note_on_c, 4, 74, 0
9, 158160, Note_on_c, 4, 77, 110
9, 158160, Note_on_c, 4, 74, 110
9, 158400, Note_on_c, 4, 74, 0
9, 158400, Note_on_c, 4, 77, 0
9, 158400, Note_on_c, 4, 77, 110
9, 158400, Note_on_c, 4, 75, 110
9, 158640, Note_on_c, 4, 75, 0
9, 158640, Note_on_c, 4, 77, 0
9, 158640, Note_on_c, 4, 75, 110
9, 158640, Note_on_c, 4, 77, 110
9, 159120, Note_on_c, 4, 77, 0
9, 159120, Note_on_c, 4, 75, 0
9, 159120, Note_on_c, 4, 77, 110
9, 159120, Note_on_c, 4, 75, 110
9, 159360, Note_on_c, 4, 75, 0
9, 159360, Note_on_c, 4, 77, 0
9, 159360, Note_on_c, 4, 77, 110
9, 159360, Note_on_c, 4, 74, 110
9, 159504, Note_on_c, 4, 74, 0
9, 159504, Note_on_c, 4, 77, 0
9, 159600, Note_on_c, 4, 62, 110
9, 159672, Note_on_c, 4, 62, 0
9, 159720, Note_on_c, 4, 62, 110
9, 159792, Note_on_c, 4, 62, 0
9, 159840, Note_on_c, 4, 62, 110
9, 159912, Note_on_c, 4, 62, 0
9, 159960, Note_on_c, 4, 62, 110
9, 160032, Note_on_c, 4, 62, 0
9, 160080, Note_on_c, 4, 63, 110
9, 160152, Note_on_c, 4, 63, 0
9, 160200, Note_on_c, 4, 63, 110
9, 160272, Note_on_c, 4, 63, 0
9, 160320, Note_on_c, 4, 64, 110
9, 160392, Note_on_c, 4, 64, 0
9, 160440, Note_on_c, 4, 64, 110
9, 160512, Note_on_c, 4, 64, 0
9, 160560, Note_on_c, 4, 65, 110
9, 160632, Note_on_c, 4, 65, 0
9, 160680, Note_on_c, 4, 65, 110
9, 160752, Note_on_c, 4, 65, 0
9, 160800, Note_on_c, 4, 66, 110
9, 160872, Note_on_c, 4, 66, 0
9, 160920, Note_on_c, 4, 66, 110
9, 160992, Note_on_c, 4, 66, 0
9, 161040, Note_on_c, 4, 67, 110
9, 161112, Note_on_c, 4, 67, 0
9, 161160, Note_on_c, 4, 67, 110
9, 161232, Note_on_c, 4, 67, 0
9, 161280, Note_on_c, 4, 68, 110
9, 161472, Note_on_c, 4, 68, 0
9, 161700, Note_on_c, 4, 68, 127
9, 161748, Note_on_c, 4, 68, 0
9, 161760, Note_on_c, 4, 67, 110
9, 161952, Note_on_c, 4, 67, 0
9, 162180, Note_on_c, 4, 67, 127
9, 162228, Note_on_c, 4, 67, 0
9, 162240, Note_on_c, 4, 75, 110
9, 162432, Note_on_c, 4, 75, 0
9, 162660, Note_on_c, 4, 75, 127
9, 162708, Note_on_c, 4, 75, 0
9, 162720, Note_on_c, 4, 74, 110
9, 162912, Note_on_c, 4, 74, 0
9, 163140, Note_on_c, 4, 74, 127
9, 163188, Note_on_c, 4, 74, 0
9, 163200, Note_on_c, 4, 79, 110
9, 163776, Note_on_c, 4, 79, 0
9, 163800, Note_on_c, 4, 77, 90
9, 163890, Note_on_c, 4, 77, 0
9, 163920, Note_on_c, 4, 75, 90
9, 164010, Note_on_c, 4, 75, 0
9, 164040, Note_on_c, 4, 74, 90
9, 164130, Note_on_c, 4, 74, 0
9, 164160, Note_on_c, 4, 72, 90
9, 164250, Note_on_c, 4, 72, 0
9, 164280, Note_on_c, 4, 70, 90
9, 164370, Note_on_c, 4, 70, 0
9, 164400, Note_on_c, 4, 69, 90
9, 164490, Note_on_c, 4, 69, 0
9, 164520, Note_on_c, 4, 67, 90
9, 164610, Note_on_c, 4, 67, 0
9, 164640, Note_on_c, 4, 65, 90
9, 164730, Note_on_c, 4, 65, 0
9, 164760, Note_on_c, 4, 63, 90
9, 164850, Note_on_c, 4, 63, 0
9, 164880, Note_on_c, 4, 62, 90
9, 164970, Note_on_c, 4, 62, 0
9, 165000, Note_on_c, 4, 60, 90
9, 165090, Note_on_c, 4, 60, 0
9, 165120, Note_on_c, 4, 62, 80
9, 165240, Note_on_c, 4, 62, 0
9, 165240, Note_on_c, 4, 65, 80
9, 165360, Note_on_c, 4, 65, 0
9, 165360, Note_on_c, 4, 62, 80
9, 165480, Note_on_c, 4, 62, 0
9, 165480, Note_on_c, 4, 65, 80
9, 165600, Note_on_c, 4, 65, 0
9, 165600, Note_on_c, 4, 62, 80
9, 165720, Note_on_c, 4, 62, 0
9, 165720, Note_on_c, 4, 65, 80
9, 165840, Note_on_c, 4, 65, 0
9, 165840, Note_on_c, 4, 62, 80
9, 165960, Note_on_c, 4, 62, 0
9, 165960, Note_on_c, 4, 65, 80
9, 166080, Note_on_c, 4, 65, 0
9, 166080, Note_on_c, 4, 63, 80
9, 166200, Note_on_c, 4, 63, 0
9, 166200, Note_on_c, 4, 65, 80
9, 166320, Note_on_c, 4, 65, 0
9, 166320, Note_on_c, 4, 63, 80
9, 166440, Note_on_c, 4, 63, 0
9, 166440, Note_on_c, 4, 65, 80
9, 166560, Note_on_c, 4, 65, 0
9, 166560, Note_on_c, 4, 60, 80
9, 166680, Note_on_c, 4, 60, 0
9, 166680, Note_on_c, 4, 65, 80
9, 166800, Note_on_c, 4, 65, 0
9, 166800, Note_on_c, 4, 60, 80
9, 166920, Note_on_c, 4, 60, 0
9, 166920, Note_on_c, 4, 65, 80
9, 167040, Note_on_c, 4, 65, 0
9, 167040, Note_on_c, 4, 58, 80
9, 167160, Note_on_c, 4, 58, 0
9, 167160, Note_on_c, 4, 65, 80
9, 167280, Note_on_c, 4, 65, 0
9, 167280, Note_on_c, 4, 58, 80
9, 167400, Note_on_c, 4, 58, 0
9, 167400, Note_on_c, 4, 65, 80
9, 167520, Note_on_c, 4, 65, 0
9, 167520, Note_on_c, 4, 58, 80
9, 167640, Note_on_c, 4, 58, 0
9, 167640, Note_on_c, 4, 65, 80
9, 167760, Note_on_c, 4, 65, 0
9, 167760, Note_on_c, 4, 62, 80
9, 167880, Note_on_c, 4, 62, 0
9, 167880, Note_on_c, 4, 65, 80
9, 168000, Note_on_c, 4, 65, 0
9, 168000, Note_on_c, 4, 63, 80
9, 168120, Note_on_c, 4, 63, 0
9, 168120, Note_on_c, 4, 65, 80
9, 168240, Note_on_c, 4, 65, 0
9, 168240, Note_on_c, 4, 63, 80
9, 168360, Note_on_c, 4, 63, 0
9, 168360, Note_on_c, 4, 65, 80
9, 168480, Note_on_c, 4, 65, 0
9, 168480, Note_on_c, 4, 60, 80
9, 168600, Note_on_c, 4, 60, 0
9, 168600, Note_on_c, 4, 65, 80
9, 168720, Note_on_c, 4, 65, 0
9, 168720, Note_on_c, 4, 60, 80
9, 168840, Note_on_c, 4, 60, 0
9, 168840, Note_on_c, 4, 65, 80
9, 168960, Note_on_c, 4, 65, 0
9, 168960, Note_on_c, 4, 58, 80
9, 169080, Note_on_c, 4, 58, 0
9, 169080, Note_on_c, 4, 65, 80
9, 169200, Note_on_c, 4, 65, 0
9, 169200, Note_on_c, 4, 58, 80
9, 169320, Note_on_c, 4, 58, 0
9, 169320, Note_on_c, 4, 65, 80
9, 169440, Note_on_c, 4, 65, 0
9, 169440, Note_on_c, 4, 58, 80
9, 169560, Note_on_c, 4, 58, 0
9, 169560, Note_on_c, 4, 65, 80
9, 169680, Note_on_c, 4, 65, 0
9, 169680, Note_on_c, 4, 70, 80
9, 169800, Note_on_c, 4, 70, 0
9, 169800, Note_on_c, 4, 65, 80
9, 169920, Note_on_c, 4, 65, 0
9, 169920, Note_on_c, 4, 78, 110
9, 169920, Note_on_c, 4, 72, 110
9, 170016, Note_on_c, 4, 72, 0
9, 170016, Note_on_c, 4, 78, 0
9, 170040, Note_on_c, 4, 78, 110
9, 170040, Note_on_c, 4, 72, 110
9, 170136, Note_on_c, 4, 72, 0
9, 170136, Note_on_c, 4, 78, 0
9, 170160, Note_on_c, 4, 78, 110
9, 170160, Note_on_c, 4, 72, 110
9, 170256, Note_on_c, 4, 72, 0
9, 170256, Note_on_c, 4, 78, 0
9, 170280, Note_on_c, 4, 78, 110
9, 170280, Note_on_c, 4, 72, 110
9, 170376, Note_on_c, 4, 72, 0
9, 170376, Note_on_c, 4, 78, 0
9, 170400, Note_on_c, 4, 78, 110
9, 170400, Note_on_c, 4, 72, 110
9, 170496, Note_on_c, 4, 72, 0
9, 170496, Note_on_c, 4, 78, 0
9, 170520, Note_on_c, 4, 78, 110
9, 170520, Note_on_c, 4, 72, 110
9, 170616, Note_on_c, 4, 72, 0
9, 170616, Note_on_c, 4, 78, 0
9, 170640, Note_on_c, 4, 78, 110
9, 170640, Note_on_c, 4, 72, 110
9, 170736, Note_on_c, 4, 72, 0
9, 170736, Note_on_c, 4, 78, 0
9, 170760, Note_on_c, 4, 78, 110
9, 170760, Note_on_c, 4, 72, 110
9, 170856, Note_on_c, 4, 72, 0
9, 170856, Note_on_c, 4, 78, 0
9, 170880, Note_on_c, 4, 79, 110
9, 170880, Note_on_c, 4, 70, 110
9, 171264, Note_on_c, 4, 70, 0
9, 171264, Note_on_c, 4, 79, 0
9, 171360, Note_on_c, 4, 79, 110
9, 171648, Note_on_c, 4, 79, 0
9, 171720, Note_on_c, 4, 75, 110
9, 171816, Note_on_c, 4, 75, 0
9, 171840, Note_on_c, 4, 74, 110
9, 172128, Note_on_c, 4, 74, 0
9, 172200, Note_on_c, 4, 77, 110
9, 172296, Note_on_c, 4, 77, 0
9, 172320, Note_on_c, 4, 75, 110
9, 172608, Note_on_c, 4, 75, 0
9, 172680, Note_on_c, 4, 72, 110
9, 172776, Note_on_c, 4, 72, 0
9, 172800, Note_on_c, 4, 74, 80
9, 172920, Note_on_c, 4, 74, 0
9, 172920, Note_on_c, 4, 65, 80
9, 173040, Note_on_c, 4, 65, 0
9, 173040, Note_on_c, 4, 62, 80
9, 173160, Note_on_c, 4, 62, 0
9, 173160, Note_on_c, 4, 65, 80
9, 173280, Note_on_c, 4, 65, 0
9, 173280, Note_on_c, 4, 62, 80
9, 173400, Note_on_c, 4, 62, 0
9, 173400, Note_on_c, 4, 65, 80
9, 173520, Note_on_c, 4, 65, 0
9, 173520, Note_on_c, 4, 62, 80
9, 173640, Note_on_c, 4, 62, 0
9, 173640, Note_on_c, 4, 65, 80
9, 173760, Note_on_c, 4, 65, 0
9, 173760, Note_on_c, 4, 60, 80
9, 173880, Note_on_c, 4, 60, 0
9, 173880, Note_on_c, 4, 63, 80
9, 174000, Note_on_c, 4, 63, 0
9, 174000, Note_on_c, 4, 60, 80
9, 174120, Note_on_c, 4, 60, 0
9, 174120, Note_on_c, 4, 63, 80
9, 174240, Note_on_c, 4, 63, 0
9, 174240, Note_on_c, 4, 60, 80
9, 174360, Note_on_c, 4, 60, 0
9, 174360, Note_on_c, 4, 65, 80
9, 174480, Note_on_c, 4, 65, 0
9, 174480, Note_on_c, 4, 57, 80
9, 174600, Note_on_c, 4, 57, 0
9, 174600, Note_on_c, 4, 65, 80
9, 174720, Note_on_c, 4, 65, 0
9, 174720, Note_on_c, 4, 58, 80
9, 174840, Note_on_c, 4, 58, 0
9, 174840, Note_on_c, 4, 65, 80
9, 174960, Note_on_c, 4, 65, 0
9, 174960, Note_on_c, 4, 58, 80
9, 175080, Note_on_c, 4, 58, 0
9, 175080, Note_on_c, 4, 65, 80
9, 175200, Note_on_c, 4, 65, 0
9, 175200, Note_on_c, 4, 58, 80
9, 175320, Note_on_c, 4, 58, 0
9, 175320, Note_on_c, 4, 65, 80
9, 175440, Note_on_c, 4, 65, 0
9, 175440, Note_on_c, 4, 62, 80
9, 175560, Note_on_c, 4, 62, 0
9, 175560, Note_on_c, 4, 65, 80
9, 175680, Note_on_c, 4, 65, 0
9, 175680, Note_on_c, 4, 60, 80
9, 175800, Note_on_c, 4, 60, 0
9, 175800, Note_on_c, 4, 63, 80
9, 175920, Note_on_c, 4, 63, 0
9, 175920, Note_on_c, 4, 60, 80
9, 176040, Note_on_c, 4, 60, 0
9, 176040, Note_on_c, 4, 63, 80
9, 176160, Note_on_c, 4, 63, 0
9, 176160, Note_on_c, 4, 60, 80
9, 176280, Note_on_c, 4, 60, 0
9, 176280, Note_on_c, 4, 65, 80
9, 176400, Note_on_c, 4, 65, 0
9, 176400, Note_on_c, 4, 57, 80
9, 176520, Note_on_c, 4, 57, 0
9, 176520, Note_on_c, 4, 65, 80
9, 176640, Note_on_c, 4, 65, 0
9, 176640, Note_on_c, 4, 58, 80
9, 176760, Note_on_c, 4, 58, 0
9, 176760, Note_on_c, 4, 65, 80
9, 176880, Note_on_c, 4, 65, 0
9, 176880, Note_on_c, 4, 58, 80
9, 177000, Note_on_c, 4, 58, 0
9, 177000, Note_on_c, 4, 65, 80
9, 177120, Note_on_c, 4, 65, 0
9, 177120, Note_on_c, 4, 58, 80
9, 177240, Note_on_c, 4, 58, 0
9, 177240, Note_on_c, 4, 65, 80
9, 177360, Note_on_c, 4, 65, 0
9, 177360, Note_on_c, 4, 70, 80
9, 177480, Note_on_c, 4, 70, 0
9, 177480, Note_on_c, 4, 65, 80
9, 177600, Note_on_c, 4, 65, 0
9, 177600, Note_on_c, 4, 72, 110
9, 177600, Note_on_c, 4, 78, 110
9, 177696, Note_on_c, 4, 78, 0
9, 177696, Note_on_c, 4, 72, 0
9, 177720, Note_on_c, 4, 72, 110
9, 177720, Note_on_c, 4, 78, 110
9, 177816, Note_on_c, 4, 78, 0
9, 177816, Note_on_c, 4, 72, 0
9, 177840, Note_on_c, 4, 72, 110
9, 177840, Note_on_c, 4, 78, 110
9, 177936, Note_on_c, 4, 78, 0
9, 177936, Note_on_c, 4, 72, 0
9, 177960, Note_on_c, 4, 72, 110
9, 177960, Note_on_c, 4, 78, 110
9, 178056, Note_on_c, 4, 78, 0
9, 178056, Note_on_c, 4, 72, 0
9, 178080, Note_on_c, 4, 72, 110
9, 178080, Note_on_c, 4, 78, 110
9, 178176, Note_on_c, 4, 78, 0
9, 178176, Note_on_c, 4, 72, 0
9, 178200, Note_on_c, 4, 72, 110
9, 178200, Note_on_c, 4, 78, 110
9, 178296, Note_on_c, 4, 78, 0
9, 178296, Note_on_c, 4, 72, 0
9, 178320, Note_on_c, 4, 72, 110
9, 178320, Note_on_c, 4, 78, 110
9, 178416, Note_on_c, 4, 78, 0
9, 178416, Note_on_c, 4, 72, 0
9, 178440, Note_on_c, 4, 72, 110
9, 178440, Note_on_c, 4, 78, 110
9, 178536, Note_on_c, 4, 78, 0
9, 178536, Note_on_c, 4, 72, 0
9, 178560, Note_on_c, 4, 70, 110
9, 178560, Note_on_c, 4, 79, 110
9, 178944, Note_on_c, 4, 79, 0
9, 178944, Note_on_c, 4, 70, 0
9, 179040, Note_on_c, 4, 79, 110
9, 179328, Note_on_c, 4, 79, 0
9, 179400, Note_on_c, 4, 75, 110
9, 179496, Note_on_c, 4, 75, 0
9, 179520, Note_on_c, 4, 74, 110
9, 179808, Note_on_c, 4, 74, 0
9, 179880, Note_on_c, 4, 77, 110
9, 179976, Note_on_c, 4, 77, 0
9, 180000, Note_on_c, 4, 75, 110
9, 180288, Note_on_c, 4, 75, 0
9, 180360, Note_on_c, 4, 72, 110
9, 180456, Note_on_c, 4, 72, 0
9, 180480, Note_on_c, 4, 74, 110
9, 180624, Note_on_c, 4, 74, 0
9, 180720, Note_on_c, 4, 86, 110
9, 180792, Note_on_c, 4, 86, 0
9, 180840, Note_on_c, 4, 84, 110
9, 180912, Note_on_c, 4, 84, 0
9, 180960, Note_on_c, 4, 82, 110
9, 181032, Note_on_c, 4, 82, 0
9, 181080, Note_on_c, 4, 81, 110
9, 181152, Note_on_c, 4, 81, 0
9, 181200, Note_on_c, 4, 79, 110
9, 181272, Note_on_c, 4, 79, 0
9, 181320, Note_on_c, 4, 77, 110
9, 181392, Note_on_c, 4, 77, 0
9, 181440, Note_on_c, 4, 75, 110
9, 181512, Note_on_c, 4, 75, 0
9, 181560, Note_on_c, 4, 74, 110
9, 181632, Note_on_c, 4, 74, 0
9, 181680, Note_on_c, 4, 72, 110
9, 181752, Note_on_c, 4, 72, 0
9, 181800, Note_on_c, 4, 70, 110
9, 181872, Note_on_c, 4, 70, 0
9, 181920, Note_on_c, 4, 69, 110
9, 181992, Note_on_c, 4, 69, 0
9, 182040, Note_on_c, 4, 67, 110
9, 182112, Note_on_c, 4, 67, 0
9, 182160, Note_on_c, 4, 65, 110
9, 182232, Note_on_c, 4, 65, 0
9, 182280, Note_on_c, 4, 63, 110
9, 182352, Note_on_c, 4, 63, 0
9, 182400, Note_on_c, 4, 62, 110
9, 182544, Note_on_c, 4, 62, 0
9, 182640, Note_on_c, 4, 70, 110
9, 182784, Note_on_c, 4, 70, 0
9, 182880, Note_on_c, 4, 70, 110
9, 183024, Note_on_c, 4, 70, 0
9, 183120, Note_on_c, 4, 63, 110
9, 183120, Note_on_c, 4, 60, 110
9, 183264, Note_on_c, 4, 60, 0
9, 183264, Note_on_c, 4, 63, 0
9, 183360, Note_on_c, 4, 62, 110
9, 183360, Note_on_c, 4, 58, 110
9, 183504, Note_on_c, 4, 58, 0
9, 183504, Note_on_c, 4, 62, 0
9, 183600, Note_on_c, 4, 74, 110
9, 183672, Note_on_c, 4, 74, 0
9, 183720, Note_on_c, 4, 72, 110
9, 183792, Note_on_c, 4, 72, 0
9, 183840, Note_on_c, 4, 70, 110
9, 183912, Note_on_c, 4, 70, 0
9, 183960, Note_on_c, 4, 69, 110
9, 184032, Note_on_c, 4, 69, 0
9, 184080, Note_on_c, 4, 67, 110
9, 184152, Note_on_c, 4, 67, 0
9, 184200, Note_on_c, 4, 65, 110
9, 184272, Note_on_c, 4, 65, 0
9, 184320, Note_on_c, 4, 63, 110
9, 184392, Note_on_c, 4, 63, 0
9, 184440, Note_on_c, 4, 62, 110
9, 184512, Note_on_c, 4, 62, 0
9, 184560, Note_on_c, 4, 60, 110
9, 184632, Note_on_c, 4, 60, 0
9, 184680, Note_on_c, 4, 58, 110
9, 184752, Note_on_c, 4, 58, 0
9, 184800, Note_on_c, 4, 57, 110
9, 184872, Note_on_c, 4, 57, 0
9, 184920, Note_on_c, 4, 60, 110
9, 184992, Note_on_c, 4, 60, 0
9, 185040, Note_on_c, 4, 65, 110
9, 185112, Note_on_c, 4, 65, 0
9, 185160, Note_on_c, 4, 63, 110
9, 185232, Note_on_c, 4, 63, 0
9, 185280, Note_on_c, 4, 62, 110
9, 185424, Note_on_c, 4, 62, 0
9, 185520, Note_on_c, 4, 70, 110
9, 185664, Note_on_c, 4, 70, 0
9, 185760, Note_on_c, 4, 70, 110
9, 185904, Note_on_c, 4, 70, 0
9, 186000, Note_on_c, 4, 75, 110
9, 186144, Note_on_c, 4, 75, 0
9, 186240, Note_on_c, 4, 74, 110
9, 186384, Note_on_c, 4, 74, 0
9, 186480, Note_on_c, 4, 75, 110
9, 186624, Note_on_c, 4, 75, 0
9, 186720, Note_on_c, 4, 74, 110
9, 186864, Note_on_c, 4, 74, 0
9, 186960, Note_on_c, 4, 63, 110
9, 186960, Note_on_c, 4, 60, 110
9, 187104, Note_on_c, 4, 60, 0
9, 187104, Note_on_c, 4, 63, 0
9, 187200, Note_on_c, 4, 62, 110
9, 187200, Note_on_c, 4, 58, 110
9, 187392, Note_on_c, 4, 58, 0
9, 187392, Note_on_c, 4, 62, 0
9, 187440, Note_on_c, 4, 74, 110
9, 187440, Note_on_c, 4, 65, 110
9, 187512, Note_on_c, 4, 65, 0
9, 187512, Note_on_c, 4, 74, 0
9, 187560, Note_on_c, 4, 74, 110
9, 187560, Note_on_c, 4, 65, 110
9, 187632, Note_on_c, 4, 65, 0
9, 187632, Note_on_c, 4, 74, 0
9, 187680, Note_on_c, 4, 75, 110
9, 187680, Note_on_c, 4, 65, 110
9, 187872, Note_on_c, 4, 65, 0
9, 187872, Note_on_c, 4, 75, 0
9, 187920, Note_on_c, 4, 75, 110
9, 187920, Note_on_c, 4, 65, 110
9, 187992, Note_on_c, 4, 65, 0
9, 187992, Note_on_c, 4, 75, 0
9, 188040, Note_on_c, 4, 75, 110
9, 188040, Note_on_c, 4, 65, 110
9, 188112, Note_on_c, 4, 65, 0
9, 188112, Note_on_c, 4, 75, 0
9, 188160, Note_on_c, 4, 74, 110
9, 188160, Note_on_c, 4, 65, 110
9, 188352, Note_on_c, 4, 65, 0
9, 188352, Note_on_c, 4, 74, 0
9, 188400, Note_on_c, 4, 65, 110
9, 188400, Note_on_c, 4, 74, 110
9, 188472, Note_on_c, 4, 74, 0
9, 188472, Note_on_c, 4, 65, 0
9, 188520, Note_on_c, 4, 65, 110
9, 188520, Note_on_c, 4, 74, 110
9, 188592, Note_on_c, 4, 74, 0
9, 188592, Note_on_c, 4, 65, 0
9, 188640, Note_on_c, 4, 65, 110
9, 188640, Note_on_c, 4, 75, 110
9, 188832, Note_on_c, 4, 75, 0
9, 188832, Note_on_c, 4, 65, 0
9, 188880, Note_on_c, 4, 75, 110
9, 188880, Note_on_c, 4, 65, 110
9, 188952, Note_on_c, 4, 65, 0
9, 188952, Note_on_c, 4, 75, 0
9, 189000, Note_on_c, 4, 75, 110
9, 189000, Note_on_c, 4, 65, 110
9, 189072, Note_on_c, 4, 65, 0
9, 189072, Note_on_c, 4, 75, 0
9, 189120, Note_on_c, 4, 65, 110
9, 189120, Note_on_c, 4, 74, 110
9, 189312, Note_on_c, 4, 74, 0
9, 189312, Note_on_c, 4, 65, 0
9, 189360, Note_on_c, 4, 74, 110
9, 189360, Note_on_c, 4, 65, 110
9, 189432, Note_on_c, 4, 65, 0
9, 189432, Note_on_c, 4, 74, 0
9, 189480, Note_on_c, 4, 74, 110
9, 189480, Note_on_c, 4, 65, 110
9, 189552, Note_on_c, 4, 65, 0
9, 189552, Note_on_c, 4, 74, 0
9, 189600, Note_on_c, 4, 75, 110
9, 189600, Note_on_c, 4, 65, 110
9, 189792, Note_on_c, 4, 65, 0
9, 189792, Note_on_c, 4, 75, 0
9, 189840, Note_on_c, 4, 65, 110
9, 189840, Note_on_c, 4, 75, 110
9, 189912, Note_on_c, 4, 75, 0
9, 189912, Note_on_c, 4, 65, 0
9, 189960, Note_on_c, 4, 65, 110
9, 189960, Note_on_c, 4, 75, 110
9, 190032, Note_on_c, 4, 75, 0
9, 190032, Note_on_c, 4, 65, 0
9, 190080, Note_on_c, 4, 74, 110
9, 190080, Note_on_c, 4, 65, 110
9, 190272, Note_on_c, 4, 65, 0
9, 190272, Note_on_c, 4, 74, 0
9, 190320, Note_on_c, 4, 75, 110
9, 190320, Note_on_c, 4, 65, 110
9, 190512, Note_on_c, 4, 65, 0
9, 190512, Note_on_c, 4, 75, 0
9, 190560, Note_on_c, 4, 74, 110
9, 190560, Note_on_c, 4, 65, 110
9, 190752, Note_on_c, 4, 65, 0
9, 190752, Note_on_c, 4, 74, 0
9, 190800, Note_on_c, 4, 75, 110
9, 190800, Note_on_c, 4, 65, 110
9, 190992, Note_on_c, 4, 65, 0
9, 190992, Note_on_c, 4, 75, 0
9, 191040, Note_on_c, 4, 74, 110
9, 191040, Note_on_c, 4, 65, 110
9, 191400, Note_on_c, 4, 65, 0
9, 191400, Note_on_c, 4, 74, 0
9, 192000, Note_on_c, 4, 78, 110
9, 192000, Note_on_c, 4, 72, 110
9, 192000, Note_on_c, 4, 62, 110
9, 192360, Note_on_c, 4, 62, 0
9, 192360, Note_on_c, 4, 72, 0
9, 192360, Note_on_c, 4, 78, 0
9, 192960, Note_on_c, 4, 62, 110
9, 192960, Note_on_c, 4, 70, 110
9, 192960, Note_on_c, 4, 79, 110
9, 193248, Note_on_c, 4, 79, 0
9, 193248, Note_on_c, 4, 70, 0
9, 193248, Note_on_c, 4, 62, 0
9, 193440, Note_on_c, 4, 80, 110
9, 193440, Note_on_c, 4, 71, 110
9, 193440, Note_on_c, 4, 62, 110
9, 193728, Note_on_c, 4, 62, 0
9, 193728, Note_on_c, 4, 71, 0
9, 193728, Note_on_c, 4, 80, 0
9, 195600, Note_on_c, 4, 62, 80
9, 195720, Note_on_c, 4, 62, 0
9, 195720, Note_on_c, 4, 61, 80
9, 195840, Note_on_c, 4, 61, 0
9, 195840, Note_on_c, 4, 61, 80
9, 196032, Note_on_c, 4, 61, 0
9, 196080, Note_on_c, 4, 62, 80
9, 196200, Note_on_c, 4, 62, 0
9, 196200, Note_on_c, 4, 61, 80
9, 196320, Note_on_c, 4, 61, 0
9, 196320, Note_on_c, 4, 61, 80
9, 196512, Note_on_c, 4, 61, 0
9, 196560, Note_on_c, 4, 62, 80
9, 196680, Note_on_c, 4, 62, 0
9, 196680, Note_on_c, 4, 61, 80
9, 196800, Note_on_c, 4, 61, 0
9, 196800, Note_on_c, 4, 61, 80
9, 197040, Note_on_c, 4, 61, 0
9, 197040, Note_on_c, 4, 69, 80
9, 197232, Note_on_c, 4, 69, 0
9, 197520, Note_on_c, 4, 69, 80
9, 197640, Note_on_c, 4, 69, 0
9, 197640, Note_on_c, 4, 68, 80
9, 197760, Note_on_c, 4, 68, 0
9, 197760, Note_on_c, 4, 66, 80
9, 197952, Note_on_c, 4, 66, 0
9, 198000, Note_on_c, 4, 66, 80
9, 198120, Note_on_c, 4, 66, 0
9, 198120, Note_on_c, 4, 64, 80
9, 198240, Note_on_c, 4, 64, 0
9, 198240, Note_on_c, 4, 62, 80
9, 198432, Note_on_c, 4, 62, 0
9, 198480, Note_on_c, 4, 62, 80
9, 198600, Note_on_c, 4, 62, 0
9, 198600, Note_on_c, 4, 61, 80
9, 198720, Note_on_c, 4, 61, 0
9, 198720, Note_on_c, 4, 60, 80
9, 198912, Note_on_c, 4, 60, 0
9, 198960, Note_on_c, 4, 60, 80
9, 199152, Note_on_c, 4, 60, 0
9, 199440, Note_on_c, 4, 61, 80
9, 199560, Note_on_c, 4, 61, 0
9, 199560, Note_on_c, 4, 59, 80
9, 199680, Note_on_c, 4, 59, 0
9, 199680, Note_on_c, 4, 59, 80
9, 199872, Note_on_c, 4, 59, 0
9, 199920, Note_on_c, 4, 61, 80
9, 200040, Note_on_c, 4, 61, 0
9, 200040, Note_on_c, 4, 59, 80
9, 200160, Note_on_c, 4, 59, 0
9, 200160, Note_on_c, 4, 59, 80
9, 200352, Note_on_c, 4, 59, 0
9, 200400, Note_on_c, 4, 61, 80
9, 200520, Note_on_c, 4, 61, 0
9, 200520, Note_on_c, 4, 59, 80
9, 200640, Note_on_c, 4, 59, 0
9, 200640, Note_on_c, 4, 59, 80
9, 200880, Note_on_c, 4, 59, 0
9, 200880, Note_on_c, 4, 68, 80
9, 201072, Note_on_c, 4, 68, 0
9, 201360, Note_on_c, 4, 68, 80
9, 201480, Note_on_c, 4, 68, 0
9, 201480, Note_on_c, 4, 66, 80
9, 201600, Note_on_c, 4, 66, 0
9, 201600, Note_on_c, 4, 65, 80
9, 201792, Note_on_c, 4, 65, 0
9, 201840, Note_on_c, 4, 65, 80
9, 201960, Note_on_c, 4, 65, 0
9, 201960, Note_on_c, 4, 62, 80
9, 202080, Note_on_c, 4, 62, 0
9, 202080, Note_on_c, 4, 61, 80
9, 202272, Note_on_c, 4, 61, 0
9, 202320, Note_on_c, 4, 61, 80
9, 202440, Note_on_c, 4, 61, 0
9, 202440, Note_on_c, 4, 59, 80
9, 202560, Note_on_c, 4, 59, 0
9, 202560, Note_on_c, 4, 58, 80
9, 202752, Note_on_c, 4, 58, 0
9, 202800, Note_on_c, 4, 58, 80
9, 202992, Note_on_c, 4, 58, 0
9, 203280, Note_on_c, 4, 59, 80
9, 203400, Note_on_c, 4, 59, 0
9, 203400, Note_on_c, 4, 57, 80
9, 203520, Note_on_c, 4, 57, 0
9, 203520, Note_on_c, 4, 57, 80
9, 203712, Note_on_c, 4, 57, 0
9, 203760, Note_on_c, 4, 59, 80
9, 203880, Note_on_c, 4, 59, 0
9, 203880, Note_on_c, 4, 57, 80
9, 204000, Note_on_c, 4, 57, 0
9, 204000, Note_on_c, 4, 57, 80
9, 204192, Note_on_c, 4, 57, 0
9, 204240, Note_on_c, 4, 59, 80
9, 204360, Note_on_c, 4, 59, 0
9, 204360, Note_on_c, 4, 57, 80
9, 204480, Note_on_c, 4, 57, 0
9, 204480, Note_on_c, 4, 57, 80
9, 204720, Note_on_c, 4, 57, 0
9, 204720, Note_on_c, 4, 66, 80
9, 204912, Note_on_c, 4, 66, 0
9, 205200, Note_on_c, 4, 66, 80
9, 205320, Note_on_c, 4, 66, 0
9, 205320, Note_on_c, 4, 64, 80
9, 205440, Note_on_c, 4, 64, 0
9, 205440, Note_on_c, 4, 63, 80
9, 205632, Note_on_c, 4, 63, 0
9, 205680, Note_on_c, 4, 63, 80
9, 205800, Note_on_c, 4, 63, 0
9, 205800, Note_on_c, 4, 60, 80
9, 205920, Note_on_c, 4, 60, 0
9, 205920, Note_on_c, 4, 59, 80
9, 206112, Note_on_c, 4, 59, 0
9, 206160, Note_on_c, 4, 78, 110
9, 206244, Note_on_c, 4, 78, 0
9, 206280, Note_on_c, 4, 69, 110
9, 206364, Note_on_c, 4, 69, 0
9, 206400, Note_on_c, 4, 67, 110
9, 206484, Note_on_c, 4, 67, 0
9, 206520, Note_on_c, 4, 71, 110
9, 206604, Note_on_c, 4, 71, 0
9, 206640, Note_on_c, 4, 76, 110
9, 206724, Note_on_c, 4, 76, 0
9, 206760, Note_on_c, 4, 67, 110
9, 206844, Note_on_c, 4, 67, 0
9, 206880, Note_on_c, 4, 66, 110
9, 206964, Note_on_c, 4, 66, 0
9, 207000, Note_on_c, 4, 69, 110
9, 207084, Note_on_c, 4, 69, 0
9, 207120, Note_on_c, 4, 75, 110
9, 207204, Note_on_c, 4, 75, 0
9, 207240, Note_on_c, 4, 66, 110
9, 207324, Note_on_c, 4, 66, 0
9, 207360, Note_on_c, 4, 67, 110
9, 207444, Note_on_c, 4, 67, 0
9, 207480, Note_on_c, 4, 71, 110
9, 207564, Note_on_c, 4, 71, 0
9, 207600, Note_on_c, 4, 73, 110
9, 207684, Note_on_c, 4, 73, 0
9, 207720, Note_on_c, 4, 75, 110
9, 207804, Note_on_c, 4, 75, 0
9, 207840, Note_on_c, 4, 76, 110
9, 207924, Note_on_c, 4, 76, 0
9, 207960, Note_on_c, 4, 71, 110
9, 208044, Note_on_c, 4, 71, 0
9, 208080, Note_on_c, 4, 76, 110
9, 208164, Note_on_c, 4, 76, 0
9, 208200, Note_on_c, 4, 78, 110
9, 208284, Note_on_c, 4, 78, 0
9, 208320, Note_on_c, 4, 79, 110
9, 208404, Note_on_c, 4, 79, 0
9, 208440, Note_on_c, 4, 76, 110
9, 208524, Note_on_c, 4, 76, 0
9, 208560, Note_on_c, 4, 78, 110
9, 208644, Note_on_c, 4, 78, 0
9, 208680, Note_on_c, 4, 80, 110
9, 208764, Note_on_c, 4, 80, 0
9, 208800, Note_on_c, 4, 81, 110
9, 208884, Note_on_c, 4, 81, 0
9, 208920, Note_on_c, 4, 76, 110
9, 209004, Note_on_c, 4, 76, 0
9, 209040, Note_on_c, 4, 81, 110
9, 209124, Note_on_c, 4, 81, 0
9, 209160, Note_on_c, 4, 83, 110
9, 209244, Note_on_c, 4, 83, 0
9, 209280, Note_on_c, 4, 84, 110
9, 209472, Note_on_c, 4, 84, 0
9, 209520, Note_on_c, 4, 69, 110
9, 209712, Note_on_c, 4, 69, 0
9, 210000, Note_on_c, 4, 70, 110
9, 210120, Note_on_c, 4, 70, 0
9, 210120, Note_on_c, 4, 69, 110
9, 210240, Note_on_c, 4, 69, 0
9, 210240, Note_on_c, 4, 69, 110
9, 210480, Note_on_c, 4, 69, 0
9, 210480, Note_on_c, 4, 70, 110
9, 210600, Note_on_c, 4, 70, 0
9, 210600, Note_on_c, 4, 69, 110
9, 210720, Note_on_c, 4, 69, 0
9, 210720, Note_on_c, 4, 69, 110
9, 210960, Note_on_c, 4, 69, 0
9, 210960, Note_on_c, 4, 70, 110
9, 211080, Note_on_c, 4, 70, 0
9, 211080, Note_on_c, 4, 69, 110
9, 211200, Note_on_c, 4, 69, 0
9, 211200, Note_on_c, 4, 69, 110
9, 211440, Note_on_c, 4, 69, 0
9, 211440, Note_on_c, 4, 77, 110
9, 211680, Note_on_c, 4, 77, 0
9, 211920, Note_on_c, 4, 77, 110
9, 212040, Note_on_c, 4, 77, 0
9, 212040, Note_on_c, 4, 76, 110
9, 212160, Note_on_c, 4, 76, 0
9, 212160, Note_on_c, 4, 74, 110
9, 212400, Note_on_c, 4, 74, 0
9, 212400, Note_on_c, 4, 74, 110
9, 212520, Note_on_c, 4, 74, 0
9, 212520, Note_on_c, 4, 72, 110
9, 212640, Note_on_c, 4, 72, 0
9, 212640, Note_on_c, 4, 70, 110
9, 212880, Note_on_c, 4, 70, 0
9, 212880, Note_on_c, 4, 70, 110
9, 213000, Note_on_c, 4, 70, 0
9, 213000, Note_on_c, 4, 69, 110
9, 213120, Note_on_c, 4, 69, 0
9, 213120, Note_on_c, 4, 67, 110
9, 213288, Note_on_c, 4, 67, 0
9, 213360, Note_on_c, 4, 70, 110
9, 213444, Note_on_c, 4, 70, 0
9, 213480, Note_on_c, 4, 72, 110
9, 213564, Note_on_c, 4, 72, 0
9, 213600, Note_on_c, 4, 74, 110
9, 213684, Note_on_c, 4, 74, 0
9, 213720, Note_on_c, 4, 71, 110
9, 213804, Note_on_c, 4, 71, 0
9, 213840, Note_on_c, 4, 74, 110
9, 213924, Note_on_c, 4, 74, 0
9, 213960, Note_on_c, 4, 65, 110
9, 214044, Note_on_c, 4, 65, 0
9, 214080, Note_on_c, 4, 64, 110
9, 214164, Note_on_c, 4, 64, 0
9, 214200, Note_on_c, 4, 67, 110
9, 214284, Note_on_c, 4, 67, 0
9, 214320, Note_on_c, 4, 72, 110
9, 214404, Note_on_c, 4, 72, 0
9, 214440, Note_on_c, 4, 64, 110
9, 214524, Note_on_c, 4, 64, 0
9, 214560, Note_on_c, 4, 62, 110
9, 214644, Note_on_c, 4, 62, 0
9, 214680, Note_on_c, 4, 65, 110
9, 214764, Note_on_c, 4, 65, 0
9, 214800, Note_on_c, 4, 71, 110
9, 214884, Note_on_c, 4, 71, 0
9, 214920, Note_on_c, 4, 62, 110
9, 215004, Note_on_c, 4, 62, 0
9, 215040, Note_on_c, 4, 64, 110
9, 215124, Note_on_c, 4, 64, 0
9, 215160, Note_on_c, 4, 67, 110
9, 215244, Note_on_c, 4, 67, 0
9, 215280, Note_on_c, 4, 69, 110
9, 215364, Note_on_c, 4, 69, 0
9, 215400, Note_on_c, 4, 71, 110
9, 215484, Note_on_c, 4, 71, 0
9, 215520, Note_on_c, 4, 72, 110
9, 215604, Note_on_c, 4, 72, 0
9, 215640, Note_on_c, 4, 67, 110
9, 215724, Note_on_c, 4, 67, 0
9, 215760, Note_on_c, 4, 72, 110
9, 215844, Note_on_c, 4, 72, 0
9, 215880, Note_on_c, 4, 74, 110
9, 215964, Note_on_c, 4, 74, 0
9, 216000, Note_on_c, 4, 76, 110
9, 216084, Note_on_c, 4, 76, 0
9, 216120, Note_on_c, 4, 72, 110
9, 216204, Note_on_c, 4, 72, 0
9, 216240, Note_on_c, 4, 74, 110
9, 216324, Note_on_c, 4, 74, 0
9, 216360, Note_on_c, 4, 76, 110
9, 216444, Note_on_c, 4, 76, 0
9, 216480, Note_on_c, 4, 77, 110
9, 216564, Note_on_c, 4, 77, 0
9, 216600, Note_on_c, 4, 72, 110
9, 216684, Note_on_c, 4, 72, 0
9, 216720, Note_on_c, 4, 77, 110
9, 216804, Note_on_c, 4, 77, 0
9, 216840, Note_on_c, 4, 79, 110
9, 216924, Note_on_c, 4, 79, 0
9, 216960, Note_on_c, 4, 81, 110
9, 217152, Note_on_c, 4, 81, 0
9, 217200, Note_on_c, 4, 65, 110
9, 217392, Note_on_c, 4, 65, 0
9, 217680, Note_on_c, 4, 67, 110
9, 217800, Note_on_c, 4, 67, 0
9, 217800, Note_on_c, 4, 65, 110
9, 217920, Note_on_c, 4, 65, 0
9, 217920, Note_on_c, 4, 65, 110
9, 218160, Note_on_c, 4, 65, 0
9, 218160, Note_on_c, 4, 67, 110
9, 218280, Note_on_c, 4, 67, 0
9, 218280, Note_on_c, 4, 65, 110
9, 218400, Note_on_c, 4, 65, 0
9, 218400, Note_on_c, 4, 65, 110
9, 218640, Note_on_c, 4, 65, 0
9, 218640, Note_on_c, 4, 67, 110
9, 218760, Note_on_c, 4, 67, 0
9, 218760, Note_on_c, 4, 65, 110
9, 218880, Note_on_c, 4, 65, 0
9, 218880, Note_on_c, 4, 65, 110
9, 219120, Note_on_c, 4, 65, 0
9, 219120, Note_on_c, 4, 74, 110
9, 219360, Note_on_c, 4, 74, 0
9, 219600, Note_on_c, 4, 74, 110
9, 219720, Note_on_c, 4, 74, 0
9, 219720, Note_on_c, 4, 72, 110
9, 219840, Note_on_c, 4, 72, 0
9, 219840, Note_on_c, 4, 70, 110
9, 220080, Note_on_c, 4, 70, 0
9, 220080, Note_on_c, 4, 70, 110
9, 220200, Note_on_c, 4, 70, 0
9, 220200, Note_on_c, 4, 69, 110
9, 220320, Note_on_c, 4, 69, 0
9, 220320, Note_on_c, 4, 67, 110
9, 220560, Note_on_c, 4, 67, 0
9, 220560, Note_on_c, 4, 67, 110
9, 220680, Note_on_c, 4, 67, 0
9, 220680, Note_on_c, 4, 65, 110
9, 220800, Note_on_c, 4, 65, 0
9, 220800, Note_on_c, 4, 63, 110
9, 221040, Note_on_c, 4, 63, 0
9, 221040, Note_on_c, 4, 72, 110
9, 221280, Note_on_c, 4, 72, 0
9, 221520, Note_on_c, 4, 72, 110
9, 221640, Note_on_c, 4, 72, 0
9, 221640, Note_on_c, 4, 70, 110
9, 221760, Note_on_c, 4, 70, 0
9, 221760, Note_on_c, 4, 69, 110
9, 222000, Note_on_c, 4, 69, 0
9, 222000, Note_on_c, 4, 69, 110
9, 222120, Note_on_c, 4, 69, 0
9, 222120, Note_on_c, 4, 67, 110
9, 222240, Note_on_c, 4, 67, 0
9, 222240, Note_on_c, 4, 66, 110
9, 222480, Note_on_c, 4, 66, 0
9, 222480, Note_on_c, 4, 66, 110
9, 222600, Note_on_c, 4, 66, 0
9, 222600, Note_on_c, 4, 64, 110
9, 222720, Note_on_c, 4, 64, 0
9, 222720, Note_on_c, 4, 62, 110
9, 222960, Note_on_c, 4, 62, 0
9, 222960, Note_on_c, 4, 70, 110
9, 223200, Note_on_c, 4, 70, 0
9, 223440, Note_on_c, 4, 70, 110
9, 223560, Note_on_c, 4, 70, 0
9, 223560, Note_on_c, 4, 69, 110
9, 223680, Note_on_c, 4, 69, 0
9, 223680, Note_on_c, 4, 67, 110
9, 223872, Note_on_c, 4, 67, 0
9, 223920, Note_on_c, 4, 67, 110
9, 224016, Note_on_c, 4, 67, 0
9, 224040, Note_on_c, 4, 65, 110
9, 224136, Note_on_c, 4, 65, 0
9, 224160, Note_on_c, 4, 64, 110
9, 224352, Note_on_c, 4, 64, 0
9, 224400, Note_on_c, 4, 64, 110
9, 224496, Note_on_c, 4, 64, 0
9, 224520, Note_on_c, 4, 62, 110
9, 224616, Note_on_c, 4, 62, 0
9, 224640, Note_on_c, 4, 61, 110
9, 224640, Note_on_c, 4, 64, 110
9, 224724, Note_on_c, 4, 64, 0
9, 224724, Note_on_c, 4, 61, 0
9, 224760, Note_on_c, 4, 61, 110
9, 224760, Note_on_c, 4, 64, 110
9, 224844, Note_on_c, 4, 64, 0
9, 224844, Note_on_c, 4, 61, 0
9, 224880, Note_on_c, 4, 61, 110
9, 224880, Note_on_c, 4, 64, 110
9, 224964, Note_on_c, 4, 64, 0
9, 224964, Note_on_c, 4, 61, 0
9, 225000, Note_on_c, 4, 61, 110
9, 225000, Note_on_c, 4, 64, 110
9, 225084, Note_on_c, 4, 64, 0
9, 225084, Note_on_c, 4, 61, 0
9, 225120, Note_on_c, 4, 62, 110
9, 225120, Note_on_c, 4, 65, 110
9, 225204, Note_on_c, 4, 65, 0
9, 225204, Note_on_c, 4, 62, 0
9, 225240, Note_on_c, 4, 62, 110
9, 225240, Note_on_c, 4, 65, 110
9, 225324, Note_on_c, 4, 65, 0
9, 225324, Note_on_c, 4, 62, 0
9, 225360, Note_on_c, 4, 62, 110
9, 225360, Note_on_c, 4, 65, 110
9, 225444, Note_on_c, 4, 65, 0
9, 225444, Note_on_c, 4, 62, 0
9, 225480, Note_on_c, 4, 62, 110
9, 225480, Note_on_c, 4, 65, 110
9, 225564, Note_on_c, 4, 65, 0
9, 225564, Note_on_c, 4, 62, 0
9, 225600, Note_on_c, 4, 64, 110
9, 225600, Note_on_c, 4, 61, 110
9, 225684, Note_on_c, 4, 61, 0
9, 225684, Note_on_c, 4, 64, 0
9, 225720, Note_on_c, 4, 64, 110
9, 225720, Note_on_c, 4, 61, 110
9, 225804, Note_on_c, 4, 61, 0
9, 225804, Note_on_c, 4, 64, 0
9, 225840, Note_on_c, 4, 64, 110
9, 225840, Note_on_c, 4, 61, 110
9, 225924, Note_on_c, 4, 61, 0
9, 225924, Note_on_c, 4, 64, 0
9, 225960, Note_on_c, 4, 64, 110
9, 225960, Note_on_c, 4, 61, 110
9, 226044, Note_on_c, 4, 61, 0
9, 226044, Note_on_c, 4, 64, 0
9, 226080, Note_on_c, 4, 65, 110
9, 226080, Note_on_c, 4, 62, 110
9, 226164, Note_on_c, 4, 62, 0
9, 226164, Note_on_c, 4, 65, 0
9, 226200, Note_on_c, 4, 65, 110
9, 226200, Note_on_c, 4, 62, 110
9, 226284, Note_on_c, 4, 62, 0
9, 226284, Note_on_c, 4, 65, 0
9, 226320, Note_on_c, 4, 65, 110
9, 226320, Note_on_c, 4, 62, 110
9, 226404, Note_on_c, 4, 62, 0
9, 226404, Note_on_c, 4, 65, 0
9, 226440, Note_on_c, 4, 65, 110
9, 226440, Note_on_c, 4, 62, 110
9, 226524, Note_on_c, 4, 62, 0
9, 226524, Note_on_c, 4, 65, 0
9, 226560, Note_on_c, 4, 64, 110
9, 226560, Note_on_c, 4, 61, 110
9, 226644, Note_on_c, 4, 61, 0
9, 226644, Note_on_c, 4, 64, 0
9, 226680, Note_on_c, 4, 64, 110
9, 226680, Note_on_c, 4, 61, 110
9, 226764, Note_on_c, 4, 61, 0
9, 226764, Note_on_c, 4, 64, 0
9, 226800, Note_on_c, 4, 64, 110
9, 226800, Note_on_c, 4, 61, 110
9, 226884, Note_on_c, 4, 61, 0
9, 226884, Note_on_c, 4, 64, 0
9, 226920, Note_on_c, 4, 64, 110
9, 226920, Note_on_c, 4, 61, 110
9, 227004, Note_on_c, 4, 61, 0
9, 227004, Note_on_c, 4, 64, 0
9, 227040, Note_on_c, 4, 65, 110
9, 227040, Note_on_c, 4, 62, 110
9, 227124, Note_on_c, 4, 62, 0
9, 227124, Note_on_c, 4, 65, 0
9, 227160, Note_on_c, 4, 65, 110
9, 227160, Note_on_c, 4, 62, 110
9, 227244, Note_on_c, 4, 62, 0
9, 227244, Note_on_c, 4, 65, 0
9, 227280, Note_on_c, 4, 65, 110
9, 227280, Note_on_c, 4, 62, 110
9, 227364, Note_on_c, 4, 62, 0
9, 227364, Note_on_c, 4, 65, 0
9, 227400, Note_on_c, 4, 65, 110
9, 227400, Note_on_c, 4, 62, 110
9, 227484, Note_on_c, 4, 62, 0
9, 227484, Note_on_c, 4, 65, 0
9, 227520, Note_on_c, 4, 64, 110
9, 227520, Note_on_c, 4, 61, 110
9, 227604, Note_on_c, 4, 61, 0
9, 227604, Note_on_c, 4, 64, 0
9, 227640, Note_on_c, 4, 64, 110
9, 227640, Note_on_c, 4, 61, 110
9, 227724, Note_on_c, 4, 61, 0
9, 227724, Note_on_c, 4, 64, 0
9, 227760, Note_on_c, 4, 64, 110
9, 227760, Note_on_c, 4, 61, 110
9, 227844, Note_on_c, 4, 61, 0
9, 227844, Note_on_c, 4, 64, 0
9, 227880, Note_on_c, 4, 64, 110
9, 227880, Note_on_c, 4, 61, 110
9, 227964, Note_on_c, 4, 61, 0
9, 227964, Note_on_c, 4, 64, 0
9, 228000, Note_on_c, 4, 65, 110
9, 228000, Note_on_c, 4, 62, 110
9, 228084, Note_on_c, 4, 62, 0
9, 228084, Note_on_c, 4, 65, 0
9, 228120, Note_on_c, 4, 65, 110
9, 228120, Note_on_c, 4, 62, 110
9, 228204, Note_on_c, 4, 62, 0
9, 228204, Note_on_c, 4, 65, 0
9, 228240, Note_on_c, 4, 65, 110
9, 228240, Note_on_c, 4, 62, 110
9, 228324, Note_on_c, 4, 62, 0
9, 228324, Note_on_c, 4, 65, 0
9, 228360, Note_on_c, 4, 65, 110
9, 228360, Note_on_c, 4, 62, 110
9, 228444, Note_on_c, 4, 62, 0
9, 228444, Note_on_c, 4, 65, 0
9, 228480, Note_on_c, 4, 61, 110
9, 228480, Note_on_c, 4, 64, 110
9, 228960, Note_on_c, 4, 64, 0
9, 228960, Note_on_c, 4, 61, 0
9, 236880, Note_on_c, 4, 75, 80
9, 237312, Note_on_c, 4, 75, 0
9, 237360, Note_on_c, 4, 75, 80
9, 237840, Note_on_c, 4, 75, 0
9, 237840, Note_on_c, 4, 75, 80
9, 238272, Note_on_c, 4, 75, 0
9, 238800, Note_on_c, 4, 72, 80
9, 239232, Note_on_c, 4, 72, 0
9, 239280, Note_on_c, 4, 72, 80
9, 239760, Note_on_c, 4, 72, 0
9, 239760, Note_on_c, 4, 72, 80
9, 240192, Note_on_c, 4, 72, 0
9, 240720, Note_on_c, 4, 69, 80
9, 241152, Note_on_c, 4, 69, 0
9, 241200, Note_on_c, 4, 69, 80
9, 241680, Note_on_c, 4, 69, 0
9, 241680, Note_on_c, 4, 69, 80
9, 242112, Note_on_c, 4, 69, 0
9, 242640, Note_on_c, 4, 79, 110
9, 242760, Note_on_c, 4, 79, 0
9, 242760, Note_on_c, 4, 78, 110
9, 242856, Note_on_c, 4, 78, 0
9, 242880, Note_on_c, 4, 78, 110
9, 243120, Note_on_c, 4, 78, 0
9, 243600, Note_on_c, 4, 78, 110
9, 243720, Note_on_c, 4, 78, 0
9, 243720, Note_on_c, 4, 79, 110
9, 243816, Note_on_c, 4, 79, 0
9, 243840, Note_on_c, 4, 79, 110
9, 244080, Note_on_c, 4, 79, 0
9, 244560, Note_on_c, 4, 79, 110
9, 244680, Note_on_c, 4, 79, 0
9, 244680, Note_on_c, 4, 81, 110
9, 244776, Note_on_c, 4, 81, 0
9, 244800, Note_on_c, 4, 82, 110
9, 245040, Note_on_c, 4, 82, 0
9, 245520, Note_on_c, 4, 82, 110
9, 245640, Note_on_c, 4, 82, 0
9, 245640, Note_on_c, 4, 81, 110
9, 245736, Note_on_c, 4, 81, 0
9, 245760, Note_on_c, 4, 81, 110
9, 246000, Note_on_c, 4, 81, 0
9, 246480, Note_on_c, 4, 77, 110
9, 246600, Note_on_c, 4, 77, 0
9, 246600, Note_on_c, 4, 78, 110
9, 246696, Note_on_c, 4, 78, 0
9, 246720, Note_on_c, 4, 78, 110
9, 246960, Note_on_c, 4, 78, 0
9, 247440, Note_on_c, 4, 78, 110
9, 247560, Note_on_c, 4, 78, 0
9, 247560, Note_on_c, 4, 79, 110
9, 247656, Note_on_c, 4, 79, 0
9, 247680, Note_on_c, 4, 79, 110
9, 247920, Note_on_c, 4, 79, 0
9, 248400, Note_on_c, 4, 74, 110
9, 248520, Note_on_c, 4, 74, 0
9, 248520, Note_on_c, 4, 75, 110
9, 248616, Note_on_c, 4, 75, 0
9, 248640, Note_on_c, 4, 75, 110
9, 248808, Note_on_c, 4, 75, 0
9, 248880, Note_on_c, 4, 72, 105
9, 249000, Note_on_c, 4, 72, 0
9, 249000, Note_on_c, 4, 70, 102
9, 249096, Note_on_c, 4, 70, 0
9, 249120, Note_on_c, 4, 70, 100
9, 249288, Note_on_c, 4, 70, 0
9, 249360, Note_on_c, 4, 67, 95
9, 249480, Note_on_c, 4, 67, 0
9, 249480, Note_on_c, 4, 66, 92
9, 249576, Note_on_c, 4, 66, 0
9, 249600, Note_on_c, 4, 66, 90
9, 249960, Note_on_c, 4, 66, 0
9, 254160, Note_on_c, 4, 63, 80
9, 254280, Note_on_c, 4, 63, 0
9, 254280, Note_on_c, 4, 62, 80
9, 254400, Note_on_c, 4, 62, 0
9, 254400, Note_on_c, 4, 62, 80
9, 254592, Note_on_c, 4, 62, 0
9, 254640, Note_on_c, 4, 63, 80
9, 254760, Note_on_c, 4, 63, 0
9, 254760, Note_on_c, 4, 62, 80
9, 254880, Note_on_c, 4, 62, 0
9, 254880, Note_on_c, 4, 62, 80
9, 255072, Note_on_c, 4, 62, 0
9, 255120, Note_on_c, 4, 63, 80
9, 255240, Note_on_c, 4, 63, 0
9, 255240, Note_on_c, 4, 62, 80
9, 255360, Note_on_c, 4, 62, 0
9, 255360, Note_on_c, 4, 62, 80
9, 255600, Note_on_c, 4, 62, 0
9, 255600, Note_on_c, 4, 70, 80
9, 255792, Note_on_c, 4, 70, 0
9, 256080, Note_on_c, 4, 70, 80
9, 256200, Note_on_c, 4, 70, 0
9, 256200, Note_on_c, 4, 69, 80
9, 256320, Note_on_c, 4, 69, 0
9, 256320, Note_on_c, 4, 67, 80
9, 256512, Note_on_c, 4, 67, 0
9, 256560, Note_on_c, 4, 67, 80
9, 256680, Note_on_c, 4, 67, 0
9, 256680, Note_on_c, 4, 65, 80
9, 256800, Note_on_c, 4, 65, 0
9, 256800, Note_on_c, 4, 63, 80
9, 256992, Note_on_c, 4, 63, 0
9, 257040, Note_on_c, 4, 63, 80
9, 257160, Note_on_c, 4, 63, 0
9, 257160, Note_on_c, 4, 62, 80
9, 257280, Note_on_c, 4, 62, 0
9, 257280, Note_on_c, 4, 60, 80
9, 257472, Note_on_c, 4, 60, 0
9, 257520, Note_on_c, 4, 60, 80
9, 257712, Note_on_c, 4, 60, 0
9, 258000, Note_on_c, 4, 62, 80
9, 258120, Note_on_c, 4, 62, 0
9, 258120, Note_on_c, 4, 60, 80
9, 258240, Note_on_c, 4, 60, 0
9, 258240, Note_on_c, 4, 60, 80
9, 258432, Note_on_c, 4, 60, 0
9, 258480, Note_on_c, 4, 62, 80
9, 258600, Note_on_c, 4, 62, 0
9, 258600, Note_on_c, 4, 60, 80
9, 258720, Note_on_c, 4, 60, 0
9, 258720, Note_on_c, 4, 60, 80
9, 258912, Note_on_c, 4, 60, 0
9, 258960, Note_on_c, 4, 62, 80
9, 259080, Note_on_c, 4, 62, 0
9, 259080, Note_on_c, 4, 60, 80
9, 259200, Note_on_c, 4, 60, 0
9, 259200, Note_on_c, 4, 60, 80
9, 259440, Note_on_c, 4, 60, 0
9, 259440, Note_on_c, 4, 69, 80
9, 259632, Note_on_c, 4, 69, 0
9, 259920, Note_on_c, 4, 69, 80
9, 260040, Note_on_c, 4, 69, 0
9, 260040, Note_on_c, 4, 67, 80
9, 260160, Note_on_c, 4, 67, 0
9, 260160, Note_on_c, 4, 66, 80
9, 260352, Note_on_c, 4, 66, 0
9, 260400, Note_on_c, 4, 66, 80
9, 260520, Note_on_c, 4, 66, 0
9, 260520, Note_on_c, 4, 63, 80
9, 260640, Note_on_c, 4, 63, 0
9, 260640, Note_on_c, 4, 62, 80
9, 260832, Note_on_c, 4, 62, 0
9, 260880, Note_on_c, 4, 62, 80
9, 261000, Note_on_c, 4, 62, 0
9, 261000, Note_on_c, 4, 60, 80
9, 261120, Note_on_c, 4, 60, 0
9, 261120, Note_on_c, 4, 58, 80
9, 261312, Note_on_c, 4, 58, 0
9, 261360, Note_on_c, 4, 58, 80
9, 261552, Note_on_c, 4, 58, 0
9, 261840, Note_on_c, 4, 70, 80
9, 261960, Note_on_c, 4, 70, 0
9, 261960, Note_on_c, 4, 69, 80
9, 262080, Note_on_c, 4, 69, 0
9, 262080, Note_on_c, 4, 69, 80
9, 262320, Note_on_c, 4, 69, 0
9, 262320, Note_on_c, 4, 72, 80
9, 262560, Note_on_c, 4, 72, 0
9, 262560, Note_on_c, 4, 66, 80
9, 262800, Note_on_c, 4, 66, 0
9, 262800, Note_on_c, 4, 69, 80
9, 263040, Note_on_c, 4, 69, 0
9, 263040, Note_on_c, 4, 67, 80
9, 263280, Note_on_c, 4, 67, 0
9, 263280, Note_on_c, 4, 62, 80
9, 263472, Note_on_c, 4, 62, 0
9, 263760, Note_on_c, 4, 70, 80
9, 263880, Note_on_c, 4, 70, 0
9, 263880, Note_on_c, 4, 69, 80
9, 264000, Note_on_c, 4, 69, 0
9, 264000, Note_on_c, 4, 69, 80
9, 264240, Note_on_c, 4, 69, 0
9, 264240, Note_on_c, 4, 72, 80
9, 264480, Note_on_c, 4, 72, 0
9, 264480, Note_on_c, 4, 66, 80
9, 264720, Note_on_c, 4, 66, 0
9, 264720, Note_on_c, 4, 69, 80
9, 264960, Note_on_c, 4, 69, 0
9, 264960, Note_on_c, 4, 67, 80
9, 265200, Note_on_c, 4, 67, 0
9, 265200, Note_on_c, 4, 70, 80
9, 265440, Note_on_c, 4, 70, 0
9, 265440, Note_on_c, 4, 69, 80
9, 265560, Note_on_c, 4, 69, 0
9, 265560, Note_on_c, 4, 67, 80
9, 265680, Note_on_c, 4, 67, 0
9, 265680, Note_on_c, 4, 65, 80
9, 265800, Note_on_c, 4, 65, 0
9, 265800, Note_on_c, 4, 63, 80
9, 265920, Note_on_c, 4, 63, 0
9, 265920, Note_on_c, 4, 62, 80
9, 266880, Note_on_c, 4, 62, 0
9, 266880, Note_on_c, 4, 61, 80
9, 267840, Note_on_c, 4, 61, 0
9, 267840, Note_on_c, 4, 62, 80
9, 268224, Note_on_c, 4, 62, 0
9, 268560, Note_on_c, 4, 62, 110
9, 268656, Note_on_c, 4, 62, 0
9, 268680, Note_on_c, 4, 62, 110
9, 268776, Note_on_c, 4, 62, 0
9, 268800, Note_on_c, 4, 62, 110
9, 269184, Note_on_c, 4, 62, 0
9, 269520, Note_on_c, 4, 62, 110
9, 269616, Note_on_c, 4, 62, 0
9, 269640, Note_on_c, 4, 62, 110
9, 269736, Note_on_c, 4, 62, 0
9, 269760, Note_on_c, 4, 62, 110
9, 270144, Note_on_c, 4, 62, 0
9, 270480, Note_on_c, 4, 62, 110
9, 270576, Note_on_c, 4, 62, 0
9, 270600, Note_on_c, 4, 62, 110
9, 270696, Note_on_c, 4, 62, 0
9, 270720, Note_on_c, 4, 62, 110
9, 270912, Note_on_c, 4, 62, 0
9, 270960, Note_on_c, 4, 62, 105
9, 271056, Note_on_c, 4, 62, 0
9, 271080, Note_on_c, 4, 62, 102
9, 271176, Note_on_c, 4, 62, 0
9, 271200, Note_on_c, 4, 62, 100
9, 271392, Note_on_c, 4, 62, 0
9, 271440, Note_on_c, 4, 62, 95
9, 271536, Note_on_c, 4, 62, 0
9, 271560, Note_on_c, 4, 62, 92
9, 271656, Note_on_c, 4, 62, 0
9, 271680, Note_on_c, 4, 62, 80
9, 272064, Note_on_c, 4, 62, 0
9, 272400, Note_on_c, 4, 63, 80
9, 272520, Note_on_c, 4, 63, 0
9, 272520, Note_on_c, 4, 62, 80
9, 272640, Note_on_c, 4, 62, 0
9, 272640, Note_on_c, 4, 62, 80
9, 272832, Note_on_c, 4, 62, 0
9, 272880, Note_on_c, 4, 63, 80
9, 273000, Note_on_c, 4, 63, 0
9, 273000, Note_on_c, 4, 62, 80
9, 273120, Note_on_c, 4, 62, 0
9, 273120, Note_on_c, 4, 62, 80
9, 273312, Note_on_c, 4, 62, 0
9, 273360, Note_on_c, 4, 63, 80
9, 273480, Note_on_c, 4, 63, 0
9, 273480, Note_on_c, 4, 62, 80
9, 273600, Note_on_c, 4, 62, 0
9, 273600, Note_on_c, 4, 62, 80
9, 273840, Note_on_c, 4, 62, 0
9, 273840, Note_on_c, 4, 70, 80
9, 274032, Note_on_c, 4, 70, 0
9, 274320, Note_on_c, 4, 70, 80
9, 274440, Note_on_c, 4, 70, 0
9, 274440, Note_on_c, 4, 68, 80
9, 274560, Note_on_c, 4, 68, 0
9, 274560, Note_on_c, 4, 67, 80
9, 274752, Note_on_c, 4, 67, 0
9, 274800, Note_on_c, 4, 67, 80
9, 274920, Note_on_c, 4, 67, 0
9, 274920, Note_on_c, 4, 65, 80
9, 275040, Note_on_c, 4, 65, 0
9, 275040, Note_on_c, 4, 63, 80
9, 275232, Note_on_c, 4, 63, 0
9, 275280, Note_on_c, 4, 65, 80
9, 275400, Note_on_c, 4, 65, 0
9, 275400, Note_on_c, 4, 63, 80
9, 275520, Note_on_c, 4, 63, 0
9, 275520, Note_on_c, 4, 62, 80
9, 275712, Note_on_c, 4, 62, 0
9, 275760, Note_on_c, 4, 62, 80
9, 275952, Note_on_c, 4, 62, 0
9, 276240, Note_on_c, 4, 70, 80
9, 276360, Note_on_c, 4, 70, 0
9, 276360, Note_on_c, 4, 68, 80
9, 276480, Note_on_c, 4, 68, 0
9, 276480, Note_on_c, 4, 68, 80
9, 276672, Note_on_c, 4, 68, 0
9, 276720, Note_on_c, 4, 70, 80
9, 276840, Note_on_c, 4, 70, 0
9, 276840, Note_on_c, 4, 68, 80
9, 276960, Note_on_c, 4, 68, 0
9, 276960, Note_on_c, 4, 68, 80
9, 277152, Note_on_c, 4, 68, 0
9, 277200, Note_on_c, 4, 70, 80
9, 277320, Note_on_c, 4, 70, 0
9, 277320, Note_on_c, 4, 68, 80
9, 277440, Note_on_c, 4, 68, 0
9, 277440, Note_on_c, 4, 68, 80
9, 277680, Note_on_c, 4, 68, 0
9, 277680, Note_on_c, 4, 58, 80
9, 277872, Note_on_c, 4, 58, 0
9, 278160, Note_on_c, 4, 65, 80
9, 278280, Note_on_c, 4, 65, 0
9, 278280, Note_on_c, 4, 63, 80
9, 278400, Note_on_c, 4, 63, 0
9, 278400, Note_on_c, 4, 62, 80
9, 278592, Note_on_c, 4, 62, 0
9, 278640, Note_on_c, 4, 62, 80
9, 278760, Note_on_c, 4, 62, 0
9, 278760, Note_on_c, 4, 60, 80
9, 278880, Note_on_c, 4, 60, 0
9, 278880, Note_on_c, 4, 58, 80
9, 279072, Note_on_c, 4, 58, 0
9, 279120, Note_on_c, 4, 58, 80
9, 279240, Note_on_c, 4, 58, 0
9, 279240, Note_on_c, 4, 56, 80
9, 279360, Note_on_c, 4, 56, 0
9, 279360, Note_on_c, 4, 55, 110
9, 279360, Note_on_c, 4, 63, 110
9, 280176, Note_on_c, 4, 63, 0
9, 280176, Note_on_c, 4, 55, 0
9, 280320, Note_on_c, 4, 62, 110
9, 280320, Note_on_c, 4, 70, 110
9, 281160, Note_on_c, 4, 70, 0
9, 281160, Note_on_c, 4, 62, 0
9, 281160, Note_on_c, 4, 70, 110
9, 281256, Note_on_c, 4, 70, 0
9, 281280, Note_on_c, 4, 68, 110
9, 281424, Note_on_c, 4, 68, 0
9, 281520, Note_on_c, 4, 72, 110
9, 281664, Note_on_c, 4, 72, 0
9, 281760, Note_on_c, 4, 75, 110
9, 281904, Note_on_c, 4, 75, 0
9, 282240, Note_on_c, 4, 67, 110
9, 282384, Note_on_c, 4, 67, 0
9, 282480, Note_on_c, 4, 70, 110
9, 282624, Note_on_c, 4, 70, 0
9, 282720, Note_on_c, 4, 75, 110
9, 282864, Note_on_c, 4, 75, 0
9, 283080, Note_on_c, 4, 67, 110
9, 283152, Note_on_c, 4, 67, 0
9, 283200, Note_on_c, 4, 65, 110
9, 283344, Note_on_c, 4, 65, 0
9, 283440, Note_on_c, 4, 68, 110
9, 283584, Note_on_c, 4, 68, 0
9, 283680, Note_on_c, 4, 72, 110
9, 283824, Note_on_c, 4, 72, 0
9, 283920, Note_on_c, 4, 65, 110
9, 284064, Note_on_c, 4, 65, 0
9, 284160, Note_on_c, 4, 64, 110
9, 284304, Note_on_c, 4, 64, 0
9, 284400, Note_on_c, 4, 67, 110
9, 284544, Note_on_c, 4, 67, 0
9, 284640, Note_on_c, 4, 70, 110
9, 284784, Note_on_c, 4, 70, 0
9, 284880, Note_on_c, 4, 61, 110
9, 285024, Note_on_c, 4, 61, 0
9, 285120, Note_on_c, 4, 60, 110
9, 285264, Note_on_c, 4, 60, 0
9, 285360, Note_on_c, 4, 64, 110
9, 285504, Note_on_c, 4, 64, 0
9, 285600, Note_on_c, 4, 67, 110
9, 285744, Note_on_c, 4, 67, 0
9, 285840, Note_on_c, 4, 70, 110
9, 285984, Note_on_c, 4, 70, 0
9, 286080, Note_on_c, 4, 68, 100
9, 286164, Note_on_c, 4, 68, 0
9, 286200, Note_on_c, 4, 65, 100
9, 286284, Note_on_c, 4, 65, 0
9, 286320, Note_on_c, 4, 72, 100
9, 286404, Note_on_c, 4, 72, 0
9, 286440, Note_on_c, 4, 68, 100
9, 286524, Note_on_c, 4, 68, 0
9, 286560, Note_on_c, 4, 77, 100
9, 286644, Note_on_c, 4, 77, 0
9, 286680, Note_on_c, 4, 72, 100
9, 286764, Note_on_c, 4, 72, 0
9, 286800, Note_on_c, 4, 80, 100
9, 286884, Note_on_c, 4, 80, 0
9, 286920, Note_on_c, 4, 77, 100
9, 287004, Note_on_c, 4, 77, 0
9, 287040, Note_on_c, 4, 76, 100
9, 287124, Note_on_c, 4, 76, 0
9, 287160, Note_on_c, 4, 79, 100
9, 287244, Note_on_c, 4, 79, 0
9, 287280, Note_on_c, 4, 84, 100
9, 287364, Note_on_c, 4, 84, 0
9, 287400, Note_on_c, 4, 82, 100
9, 287484, Note_on_c, 4, 82, 0
9, 287520, Note_on_c, 4, 80, 100
9, 287604, Note_on_c, 4, 80, 0
9, 287640, Note_on_c, 4, 79, 100
9, 287724, Note_on_c, 4, 79, 0
9, 287760, Note_on_c, 4, 77, 100
9, 287844, Note_on_c, 4, 77, 0
9, 287880, Note_on_c, 4, 75, 100
9, 287964, Note_on_c, 4, 75, 0
9, 288000, Note_on_c, 4, 73, 100
9, 288084, Note_on_c, 4, 73, 0
9, 288120, Note_on_c, 4, 77, 100
9, 288204, Note_on_c, 4, 77, 0
9, 288240, Note_on_c, 4, 82, 100
9, 288324, Note_on_c, 4, 82, 0
9, 288360, Note_on_c, 4, 80, 100
9, 288444, Note_on_c, 4, 80, 0
9, 288480, Note_on_c, 4, 79, 100
9, 288564, Note_on_c, 4, 79, 0
9, 288600, Note_on_c, 4, 77, 100
9, 288684, Note_on_c, 4, 77, 0
9, 288720, Note_on_c, 4, 75, 100
9, 288804, Note_on_c, 4, 75, 0
9, 288840, Note_on_c, 4, 73, 100
9, 288924, Note_on_c, 4, 73, 0
9, 288960, Note_on_c, 4, 72, 100
9, 289056, Note_on_c, 4, 72, 0
9, 289080, Note_on_c, 4, 75, 100
9, 289176, Note_on_c, 4, 75, 0
9, 289200, Note_on_c, 4, 80, 100
9, 289296, Note_on_c, 4, 80, 0
9, 289320, Note_on_c, 4, 79, 100
9, 289416, Note_on_c, 4, 79, 0
9, 289440, Note_on_c, 4, 77, 100
9, 289536, Note_on_c, 4, 77, 0
9, 289560, Note_on_c, 4, 75, 100
9, 289656, Note_on_c, 4, 75, 0
9, 289680, Note_on_c, 4, 74, 100
9, 289776, Note_on_c, 4, 74, 0
9, 289800, Note_on_c, 4, 72, 100
9, 289896, Note_on_c, 4, 72, 0
9, 289920, Note_on_c, 4, 70, 100
9, 290016, Note_on_c, 4, 70, 0
9, 290040, Note_on_c, 4, 73, 103
9, 290136, Note_on_c, 4, 73, 0
9, 290160, Note_on_c, 4, 79, 107
9, 290256, Note_on_c, 4, 79, 0
9, 290280, Note_on_c, 4, 77, 110
9, 290376, Note_on_c, 4, 77, 0
9, 290400, Note_on_c, 4, 76, 114
9, 290496, Note_on_c, 4, 76, 0
9, 290520, Note_on_c, 4, 73, 117
9, 290616, Note_on_c, 4, 73, 0
9, 290640, Note_on_c, 4, 72, 120
9, 290736, Note_on_c, 4, 72, 0
9, 290760, Note_on_c, 4, 70, 124
9, 290856, Note_on_c, 4, 70, 0
9, 290880, Note_on_c, 4, 68, 127
9, 290976, Note_on_c, 4, 68, 0
9, 291000, Note_on_c, 4, 65, 127
9, 291096, Note_on_c, 4, 65, 0
9, 291120, Note_on_c, 4, 72, 127
9, 291216, Note_on_c, 4, 72, 0
9, 291240, Note_on_c, 4, 70, 127
9, 291336, Note_on_c, 4, 70, 0
9, 291360, Note_on_c, 4, 68, 127
9, 291456, Note_on_c, 4, 68, 0
9, 291480, Note_on_c, 4, 67, 127
9, 291576, Note_on_c, 4, 67, 0
9, 291600, Note_on_c, 4, 65, 127
9, 291696, Note_on_c, 4, 65, 0
9, 291720, Note_on_c, 4, 63, 127
9, 291816, Note_on_c, 4, 63, 0
9, 291840, Note_on_c, 4, 62, 127
9, 291936, Note_on_c, 4, 62, 0
9, 291960, Note_on_c, 4, 70, 127
9, 292056, Note_on_c, 4, 70, 0
9, 292080, Note_on_c, 4, 77, 127
9, 292176, Note_on_c, 4, 77, 0
9, 292200, Note_on_c, 4, 75, 127
9, 292296, Note_on_c, 4, 75, 0
9, 292320, Note_on_c, 4, 74, 127
9, 292416, Note_on_c, 4, 74, 0
9, 292440, Note_on_c, 4, 72, 127
9, 292536, Note_on_c, 4, 72, 0
9, 292560, Note_on_c, 4, 70, 127
9, 292656, Note_on_c, 4, 70, 0
9, 292680, Note_on_c, 4, 68, 127
9, 292776, Note_on_c, 4, 68, 0
9, 292800, Note_on_c, 4, 67, 127
9, 292884, Note_on_c, 4, 67, 0
9, 292920, Note_on_c, 4, 63, 127
9, 293004, Note_on_c, 4, 63, 0
9, 293040, Note_on_c, 4, 70, 127
9, 293124, Note_on_c, 4, 70, 0
9, 293160, Note_on_c, 4, 68, 127
9, 293244, Note_on_c, 4, 68, 0
9, 293280, Note_on_c, 4, 67, 127
9, 293364, Note_on_c, 4, 67, 0
9, 293400, Note_on_c, 4, 65, 127
9, 293484, Note_on_c, 4, 65, 0
9, 293520, Note_on_c, 4, 63, 127
9, 293604, Note_on_c, 4, 63, 0
9, 293640, Note_on_c, 4, 62, 127
9, 293724, Note_on_c, 4, 62, 0
9, 293760, Note_on_c, 4, 60, 127
9, 293844, Note_on_c, 4, 60, 0
9, 293880, Note_on_c, 4, 68, 127
9, 293964, Note_on_c, 4, 68, 0
9, 294000, Note_on_c, 4, 75, 127
9, 294084, Note_on_c, 4, 75, 0
9, 294120, Note_on_c, 4, 74, 127
9, 294204, Note_on_c, 4, 74, 0
9, 294240, Note_on_c, 4, 72, 127
9, 294324, Note_on_c, 4, 72, 0
9, 294360, Note_on_c, 4, 70, 127
9, 294444, Note_on_c, 4, 70, 0
9, 294480, Note_on_c, 4, 68, 127
9, 294564, Note_on_c, 4, 68, 0
9, 294600, Note_on_c, 4, 67, 127
9, 294684, Note_on_c, 4, 67, 0
9, 294720, Note_on_c, 4, 65, 127
9, 294804, Note_on_c, 4, 65, 0
9, 294840, Note_on_c, 4, 69, 127
9, 294924, Note_on_c, 4, 69, 0
9, 294960, Note_on_c, 4, 74, 127
9, 295044, Note_on_c, 4, 74, 0
9, 295080, Note_on_c, 4, 75, 127
9, 295164, Note_on_c, 4, 75, 0
9, 295200, Note_on_c, 4, 77, 127
9, 295284, Note_on_c, 4, 77, 0
9, 295320, Note_on_c, 4, 75, 127
9, 295404, Note_on_c, 4, 75, 0
9, 295440, Note_on_c, 4, 74, 127
9, 295524, Note_on_c, 4, 74, 0
9, 295560, Note_on_c, 4, 72, 127
9, 295644, Note_on_c, 4, 72, 0
9, 295680, Note_on_c, 4, 71, 127
9, 295764, Note_on_c, 4, 71, 0
9, 295800, Note_on_c, 4, 67, 127
9, 295884, Note_on_c, 4, 67, 0
9, 295920, Note_on_c, 4, 74, 127
9, 296004, Note_on_c, 4, 74, 0
9, 296040, Note_on_c, 4, 72, 127
9, 296124, Note_on_c, 4, 72, 0
9, 296160, Note_on_c, 4, 71, 127
9, 296244, Note_on_c, 4, 71, 0
9, 296280, Note_on_c, 4, 68, 127
9, 296364, Note_on_c, 4, 68, 0
9, 296400, Note_on_c, 4, 67, 127
9, 296484, Note_on_c, 4, 67, 0
9, 296520, Note_on_c, 4, 65, 127
9, 296604, Note_on_c, 4, 65, 0
9, 296640, Note_on_c, 4, 63, 127
9, 296724, Note_on_c, 4, 63, 0
9, 296760, Note_on_c, 4, 60, 127
9, 296844, Note_on_c, 4, 60, 0
9, 296880, Note_on_c, 4, 67, 127
9, 296964, Note_on_c, 4, 67, 0
9, 297000, Note_on_c, 4, 63, 127
9, 297084, Note_on_c, 4, 63, 0
9, 297120, Note_on_c, 4, 72, 127
9, 297204, Note_on_c, 4, 72, 0
9, 297240, Note_on_c, 4, 70, 127
9, 297324, Note_on_c, 4, 70, 0
9, 297360, Note_on_c, 4, 69, 127
9, 297444, Note_on_c, 4, 69, 0
9, 297480, Note_on_c, 4, 67, 127
9, 297564, Note_on_c, 4, 67, 0
9, 297600, Note_on_c, 4, 66, 127
9, 297684, Note_on_c, 4, 66, 0
9, 297720, Note_on_c, 4, 67, 127
9, 297804, Note_on_c, 4, 67, 0
9, 297840, Note_on_c, 4, 69, 127
9, 297924, Note_on_c, 4, 69, 0
9, 297960, Note_on_c, 4, 67, 127
9, 298044, Note_on_c, 4, 67, 0
9, 298080, Note_on_c, 4, 66, 127
9, 298164, Note_on_c, 4, 66, 0
9, 298200, Note_on_c, 4, 63, 127
9, 298284, Note_on_c, 4, 63, 0
9, 298320, Note_on_c, 4, 62, 127
9, 298404, Note_on_c, 4, 62, 0
9, 298440, Note_on_c, 4, 60, 127
9, 298524, Note_on_c, 4, 60, 0
9, 298560, Note_on_c, 4, 58, 127
9, 298560, Note_on_c, 4, 67, 127
9, 299376, Note_on_c, 4, 67, 0
9, 299376, Note_on_c, 4, 58, 0
9, 299520, Note_on_c, 4, 62, 127
9, 299520, Note_on_c, 4, 74, 127
9, 300360, Note_on_c, 4, 74, 0
9, 300360, Note_on_c, 4, 62, 0
9, 300360, Note_on_c, 4, 74, 127
9, 300462, Note_on_c, 4, 74, 0
9, 300480, Note_on_c, 4, 72, 127
9, 300624, Note_on_c, 4, 72, 0
9, 300720, Note_on_c, 4, 75, 127
9, 300864, Note_on_c, 4, 75, 0
9, 300960, Note_on_c, 4, 79, 127
9, 301104, Note_on_c, 4, 79, 0
9, 301440, Note_on_c, 4, 70, 127
9, 301584, Note_on_c, 4, 70, 0
9, 301680, Note_on_c, 4, 74, 127
9, 301824, Note_on_c, 4, 74, 0
9, 301920, Note_on_c, 4, 79, 127
9, 302064, Note_on_c, 4, 79, 0
9, 302280, Note_on_c, 4, 70, 127
9, 302376, Note_on_c, 4, 70, 0
9, 302400, Note_on_c, 4, 69, 127
9, 302544, Note_on_c, 4, 69, 0
9, 302640, Note_on_c, 4, 72, 127
9, 302784, Note_on_c, 4, 72, 0
9, 302880, Note_on_c, 4, 75, 127
9, 303024, Note_on_c, 4, 75, 0
9, 303240, Note_on_c, 4, 66, 127
9, 303336, Note_on_c, 4, 66, 0
9, 303360, Note_on_c, 4, 67, 127
9, 303504, Note_on_c, 4, 67, 0
9, 303600, Note_on_c, 4, 70, 127
9, 303744, Note_on_c, 4, 70, 0
9, 303840, Note_on_c, 4, 74, 127
9, 303984, Note_on_c, 4, 74, 0
9, 304200, Note_on_c, 4, 62, 127
9, 304296, Note_on_c, 4, 62, 0
9, 304320, Note_on_c, 4, 61, 127
9, 304404, Note_on_c, 4, 61, 0
9, 304440, Note_on_c, 4, 62, 127
9, 304524, Note_on_c, 4, 62, 0
9, 304560, Note_on_c, 4, 64, 127
9, 304644, Note_on_c, 4, 64, 0
9, 304680, Note_on_c, 4, 65, 127
9, 304764, Note_on_c, 4, 65, 0
9, 304800, Note_on_c, 4, 67, 127
9, 304884, Note_on_c, 4, 67, 0
9, 304920, Note_on_c, 4, 69, 127
9, 305004, Note_on_c, 4, 69, 0
9, 305040, Note_on_c, 4, 70, 127
9, 305124, Note_on_c, 4, 70, 0
9, 305160, Note_on_c, 4, 62, 127
9, 305244, Note_on_c, 4, 62, 0
9, 305280, Note_on_c, 4, 61, 127
9, 305364, Note_on_c, 4, 61, 0
9, 305400, Note_on_c, 4, 62, 127
9, 305484, Note_on_c, 4, 62, 0
9, 305520, Note_on_c, 4, 64, 127
9, 305604, Note_on_c, 4, 64, 0
9, 305640, Note_on_c, 4, 65, 127
9, 305724, Note_on_c, 4, 65, 0
9, 305760, Note_on_c, 4, 67, 127
9, 305844, Note_on_c, 4, 67, 0
9, 305880, Note_on_c, 4, 69, 127
9, 305964, Note_on_c, 4, 69, 0
9, 306000, Note_on_c, 4, 70, 127
9, 306084, Note_on_c, 4, 70, 0
9, 306120, Note_on_c, 4, 62, 127
9, 306204, Note_on_c, 4, 62, 0
9, 306240, Note_on_c, 4, 61, 127
9, 306324, Note_on_c, 4, 61, 0
9, 306360, Note_on_c, 4, 62, 127
9, 306444, Note_on_c, 4, 62, 0
9, 306480, Note_on_c, 4, 64, 127
9, 306564, Note_on_c, 4, 64, 0
9, 306600, Note_on_c, 4, 65, 127
9, 306684, Note_on_c, 4, 65, 0
9, 306720, Note_on_c, 4, 67, 127
9, 306804, Note_on_c, 4, 67, 0
9, 306840, Note_on_c, 4, 69, 127
9, 306924, Note_on_c, 4, 69, 0
9, 306960, Note_on_c, 4, 70, 127
9, 307044, Note_on_c, 4, 70, 0
9, 307080, Note_on_c, 4, 62, 127
9, 307164, Note_on_c, 4, 62, 0
9, 307200, Note_on_c, 4, 61, 127
9, 307284, Note_on_c, 4, 61, 0
9, 307320, Note_on_c, 4, 62, 127
9, 307404, Note_on_c, 4, 62, 0
9, 307440, Note_on_c, 4, 64, 127
9, 307524, Note_on_c, 4, 64, 0
9, 307560, Note_on_c, 4, 65, 127
9, 307644, Note_on_c, 4, 65, 0
9, 307680, Note_on_c, 4, 67, 127
9, 307764, Note_on_c, 4, 67, 0
9, 307800, Note_on_c, 4, 69, 127
9, 307884, Note_on_c, 4, 69, 0
9, 307920, Note_on_c, 4, 70, 127
9, 308004, Note_on_c, 4, 70, 0
9, 308040, Note_on_c, 4, 57, 127
9, 308124, Note_on_c, 4, 57, 0
9, 308160, Note_on_c, 4, 62, 127
9, 308244, Note_on_c, 4, 62, 0
9, 308280, Note_on_c, 4, 69, 127
9, 308364, Note_on_c, 4, 69, 0
9, 308400, Note_on_c, 4, 69, 127
9, 308484, Note_on_c, 4, 69, 0
9, 308520, Note_on_c, 4, 69, 127
9, 308604, Note_on_c, 4, 69, 0
9, 308640, Note_on_c, 4, 72, 127
9, 308724, Note_on_c, 4, 72, 0
9, 308760, Note_on_c, 4, 72, 127
9, 308844, Note_on_c, 4, 72, 0
9, 308880, Note_on_c, 4, 72, 127
9, 308964, Note_on_c, 4, 72, 0
9, 309000, Note_on_c, 4, 72, 127
9, 309084, Note_on_c, 4, 72, 0
9, 309120, Note_on_c, 4, 70, 127
9, 309204, Note_on_c, 4, 70, 0
9, 309240, Note_on_c, 4, 70, 127
9, 309324, Note_on_c, 4, 70, 0
9, 309360, Note_on_c, 4, 70, 127
9, 309444, Note_on_c, 4, 70, 0
9, 309480, Note_on_c, 4, 70, 127
9, 309564, Note_on_c, 4, 70, 0
9, 309600, Note_on_c, 4, 70, 127
9, 309684, Note_on_c, 4, 70, 0
9, 309720, Note_on_c, 4, 70, 127
9, 309804, Note_on_c, 4, 70, 0
9, 309840, Note_on_c, 4, 70, 127
9, 309924, Note_on_c, 4, 70, 0
9, 309960, Note_on_c, 4, 70, 127
9, 310044, Note_on_c, 4, 70, 0
9, 310080, Note_on_c, 4, 69, 127
9, 310164, Note_on_c, 4, 69, 0
9, 310200, Note_on_c, 4, 69, 127
9, 310284, Note_on_c, 4, 69, 0
9, 310320, Note_on_c, 4, 69, 127
9, 310404, Note_on_c, 4, 69, 0
9, 310440, Note_on_c, 4, 69, 127
9, 310524, Note_on_c, 4, 69, 0
9, 310560, Note_on_c, 4, 72, 127
9, 310644, Note_on_c, 4, 72, 0
9, 310680, Note_on_c, 4, 72, 127
9, 310764, Note_on_c, 4, 72, 0
9, 310800, Note_on_c, 4, 72, 127
9, 310884, Note_on_c, 4, 72, 0
9, 310920, Note_on_c, 4, 72, 127
9, 311004, Note_on_c, 4, 72, 0
9, 311040, Note_on_c, 4, 70, 127
9, 311124, Note_on_c, 4, 70, 0
9, 311160, Note_on_c, 4, 70, 127
9, 311244, Note_on_c, 4, 70, 0
9, 311280, Note_on_c, 4, 70, 127
9, 311364, Note_on_c, 4, 70, 0
9, 311400, Note_on_c, 4, 70, 127
9, 311484, Note_on_c, 4, 70, 0
9, 311520, Note_on_c, 4, 67, 127
9, 311604, Note_on_c, 4, 67, 0
9, 311640, Note_on_c, 4, 67, 127
9, 311724, Note_on_c, 4, 67, 0
9, 311760, Note_on_c, 4, 67, 127
9, 311844, Note_on_c, 4, 67, 0
9, 311880, Note_on_c, 4, 67, 127
9, 311964, Note_on_c, 4, 67, 0
9, 312000, Note_on_c, 4, 66, 127
9, 312360, Note_on_c, 4, 66, 0
9, 312480, Note_on_c, 4, 78, 80
9, 312480, Note_on_c, 4, 69, 80
9, 312480, Note_on_c, 4, 62, 80
9, 312840, Note_on_c, 4, 62, 0
9, 312840, Note_on_c, 4, 69, 0
9, 312840, Note_on_c, 4, 78, 0
9, 313920, Note_on_c, 4, 62, 80
9, 314640, Note_on_c, 4, 62, 0
9, 314640, Note_on_c, 4, 61, 80
9, 314880, Note_on_c, 4, 61, 0
9, 314880, Note_on_c, 4, 60, 80
9, 315240, Note_on_c, 4, 60, 0
9, 316080, Note_on_c, 4, 62, 80
9, 316320, Note_on_c, 4, 62, 0
9, 316320, Note_on_c, 4, 67, 80
9, 316560, Note_on_c, 4, 67, 0
9, 316560, Note_on_c, 4, 67, 80
9, 316752, Note_on_c, 4, 67, 0
9, 316800, Note_on_c, 4, 67, 80
9, 317160, Note_on_c, 4, 67, 0
9, 317160, Note_on_c, 4, 69, 80
9, 317280, Note_on_c, 4, 69, 0
9, 317280, Note_on_c, 4, 66, 80
9, 317472, Note_on_c, 4, 66, 0
9, 317760, Note_on_c, 4, 66, 80
9, 318480, Note_on_c, 4, 66, 0
9, 318480, Note_on_c, 4, 67, 80
9, 318960, Note_on_c, 4, 67, 0
9, 318960, Note_on_c, 4, 66, 80
9, 319200, Note_on_c, 4, 66, 0
9, 319200, Note_on_c, 4, 67, 80
9, 319680, Note_on_c, 4, 67, 0
9, 319680, Note_on_c, 4, 63, 80
9, 320040, Note_on_c, 4, 63, 0
9, 320160, Note_on_c, 4, 60, 80
9, 320520, Note_on_c, 4, 60, 0
9, 320640, Note_on_c, 4, 58, 80
9, 321000, Note_on_c, 4, 58, 0
9, 322560, Note_on_c, 4, 60, 80
9, 323280, Note_on_c, 4, 60, 0
9, 323280, Note_on_c, 4, 62, 80
9, 323340, Note_on_c, 4, 62, 0
9, 323340, Note_on_c, 4, 60, 80
9, 323400, Note_on_c, 4, 60, 0
9, 323400, Note_on_c, 4, 58, 80
9, 323460, Note_on_c, 4, 58, 0
9, 323460, Note_on_c, 4, 57, 80
9, 323520, Note_on_c, 4, 57, 0
9, 323520, Note_on_c, 4, 55, 80
9, 323880, Note_on_c, 4, 55, 0
9, 325440, Note_on_c, 4, 66, 80
9, 326160, Note_on_c, 4, 66, 0
9, 326160, Note_on_c, 4, 67, 80
9, 326640, Note_on_c, 4, 67, 0
9, 326640, Note_on_c, 4, 66, 80
9, 326880, Note_on_c, 4, 66, 0
9, 326880, Note_on_c, 4, 67, 80
9, 327360, Note_on_c, 4, 67, 0
9, 327360, Note_on_c, 4, 65, 56
9, 327480, Note_on_c, 4, 65, 0
9, 327480, Note_on_c, 4, 62, 56
9, 327600, Note_on_c, 4, 62, 0
9, 327600, Note_on_c, 4, 65, 56
9, 327720, Note_on_c, 4, 65, 0
9, 327720, Note_on_c, 4, 62, 56
9, 327840, Note_on_c, 4, 62, 0
9, 327840, Note_on_c, 4, 65, 56
9, 327960, Note_on_c, 4, 65, 0
9, 327960, Note_on_c, 4, 62, 56
9, 328080, Note_on_c, 4, 62, 0
9, 328080, Note_on_c, 4, 63, 56
9, 328200, Note_on_c, 4, 63, 0
9, 328200, Note_on_c, 4, 67, 56
9, 328320, Note_on_c, 4, 67, 0
9, 328320, Note_on_c, 4, 65, 56
9, 328440, Note_on_c, 4, 65, 0
9, 328440, Note_on_c, 4, 62, 56
9, 328560, Note_on_c, 4, 62, 0
9, 328560, Note_on_c, 4, 65, 56
9, 328680, Note_on_c, 4, 65, 0
9, 328680, Note_on_c, 4, 62, 56
9, 328800, Note_on_c, 4, 62, 0
9, 328800, Note_on_c, 4, 65, 56
9, 328920, Note_on_c, 4, 65, 0
9, 328920, Note_on_c, 4, 62, 56
9, 329040, Note_on_c, 4, 62, 0
9, 329040, Note_on_c, 4, 63, 56
9, 329160, Note_on_c, 4, 63, 0
9, 329160, Note_on_c, 4, 67, 56
9, 329280, Note_on_c, 4, 67, 0
9, 329280, Note_on_c, 4, 65, 56
9, 329400, Note_on_c, 4, 65, 0
9, 329400, Note_on_c, 4, 62, 56
9, 329520, Note_on_c, 4, 62, 0
9, 329520, Note_on_c, 4, 65, 56
9, 329640, Note_on_c, 4, 65, 0
9, 329640, Note_on_c, 4, 62, 56
9, 329760, Note_on_c, 4, 62, 0
9, 329760, Note_on_c, 4, 65, 56
9, 329880, Note_on_c, 4, 65, 0
9, 329880, Note_on_c, 4, 62, 56
9, 330000, Note_on_c, 4, 62, 0
9, 330000, Note_on_c, 4, 63, 56
9, 330120, Note_on_c, 4, 63, 0
9, 330120, Note_on_c, 4, 67, 56
9, 330240, Note_on_c, 4, 67, 0
9, 330240, Note_on_c, 4, 65, 56
9, 330360, Note_on_c, 4, 65, 0
9, 330360, Note_on_c, 4, 62, 56
9, 330480, Note_on_c, 4, 62, 0
9, 330480, Note_on_c, 4, 65, 56
9, 330600, Note_on_c, 4, 65, 0
9, 330600, Note_on_c, 4, 62, 56
9, 330720, Note_on_c, 4, 62, 0
9, 330720, Note_on_c, 4, 65, 56
9, 330840, Note_on_c, 4, 65, 0
9, 330840, Note_on_c, 4, 62, 56
9, 330960, Note_on_c, 4, 62, 0
9, 330960, Note_on_c, 4, 63, 56
9, 331080, Note_on_c, 4, 63, 0
9, 331080, Note_on_c, 4, 67, 56
9, 331200, Note_on_c, 4, 67, 0
9, 331200, Note_on_c, 4, 65, 85
9, 331284, Note_on_c, 4, 65, 0
9, 331320, Note_on_c, 4, 77, 86
9, 331404, Note_on_c, 4, 77, 0
9, 331440, Note_on_c, 4, 77, 86
9, 331524, Note_on_c, 4, 77, 0
9, 331560, Note_on_c, 4, 77, 87
9, 331644, Note_on_c, 4, 77, 0
9, 331680, Note_on_c, 4, 77, 88
9, 331764, Note_on_c, 4, 77, 0
9, 331800, Note_on_c, 4, 77, 88
9, 331884, Note_on_c, 4, 77, 0
9, 331920, Note_on_c, 4, 77, 89
9, 332004, Note_on_c, 4, 77, 0
9, 332040, Note_on_c, 4, 77, 89
9, 332124, Note_on_c, 4, 77, 0
9, 332160, Note_on_c, 4, 77, 90
9, 332244, Note_on_c, 4, 77, 0
9, 332280, Note_on_c, 4, 77, 93
9, 332364, Note_on_c, 4, 77, 0
9, 332400, Note_on_c, 4, 77, 95
9, 332484, Note_on_c, 4, 77, 0
9, 332520, Note_on_c, 4, 77, 98
9, 332604, Note_on_c, 4, 77, 0
9, 332640, Note_on_c, 4, 77, 100
9, 332724, Note_on_c, 4, 77, 0
9, 332760, Note_on_c, 4, 77, 103
9, 332844, Note_on_c, 4, 77, 0
9, 332880, Note_on_c, 4, 77, 105
9, 332964, Note_on_c, 4, 77, 0
9, 333000, Note_on_c, 4, 77, 108
9, 333084, Note_on_c, 4, 77, 0
9, 333120, Note_on_c, 4, 78, 110
9, 333216, Note_on_c, 4, 78, 0
9, 333240, Note_on_c, 4, 78, 110
9, 333336, Note_on_c, 4, 78, 0
9, 333360, Note_on_c, 4, 78, 110
9, 333456, Note_on_c, 4, 78, 0
9, 333480, Note_on_c, 4, 78, 110
9, 333576, Note_on_c, 4, 78, 0
9, 333600, Note_on_c, 4, 66, 110
9, 333696, Note_on_c, 4, 66, 0
9, 333720, Note_on_c, 4, 66, 110
9, 333816, Note_on_c, 4, 66, 0
9, 333840, Note_on_c, 4, 66, 110
9, 333936, Note_on_c, 4, 66, 0
9, 333960, Note_on_c, 4, 66, 110
9, 334056, Note_on_c, 4, 66, 0
9, 334080, Note_on_c, 4, 65, 110
9, 334164, Note_on_c, 4, 65, 0
9, 334200, Note_on_c, 4, 65, 110
9, 334284, Note_on_c, 4, 65, 0
9, 334320, Note_on_c, 4, 65, 110
9, 334404, Note_on_c, 4, 65, 0
9, 334440, Note_on_c, 4, 65, 110
9, 334524, Note_on_c, 4, 65, 0
9, 334560, Note_on_c, 4, 77, 110
9, 334644, Note_on_c, 4, 77, 0
9, 334680, Note_on_c, 4, 77, 110
9, 334764, Note_on_c, 4, 77, 0
9, 334800, Note_on_c, 4, 77, 110
9, 334884, Note_on_c, 4, 77, 0
9, 334920, Note_on_c, 4, 77, 110
9, 335004, Note_on_c, 4, 77, 0
9, 335040, Note_on_c, 4, 80, 110
9, 335124, Note_on_c, 4, 80, 0
9, 335160, Note_on_c, 4, 80, 110
9, 335244, Note_on_c, 4, 80, 0
9, 335280, Note_on_c, 4, 80, 110
9, 335364, Note_on_c, 4, 80, 0
9, 335400, Note_on_c, 4, 80, 110
9, 335484, Note_on_c, 4, 80, 0
9, 335520, Note_on_c, 4, 68, 110
9, 335604, Note_on_c, 4, 68, 0
9, 335640, Note_on_c, 4, 68, 110
9, 335724, Note_on_c, 4, 68, 0
9, 335760, Note_on_c, 4, 68, 110
9, 335844, Note_on_c, 4, 68, 0
9, 335880, Note_on_c, 4, 68, 110
9, 335964, Note_on_c, 4, 68, 0
9, 336000, Note_on_c, 4, 67, 110
9, 336084, Note_on_c, 4, 67, 0
9, 336120, Note_on_c, 4, 67, 110
9, 336204, Note_on_c, 4, 67, 0
9, 336240, Note_on_c, 4, 67, 110
9, 336324, Note_on_c, 4, 67, 0
9, 336360, Note_on_c, 4, 67, 110
9, 336444, Note_on_c, 4, 67, 0
9, 336480, Note_on_c, 4, 79, 110
9, 336564, Note_on_c, 4, 79, 0
9, 336600, Note_on_c, 4, 79, 110
9, 336684, Note_on_c, 4, 79, 0
9, 336720, Note_on_c, 4, 79, 110
9, 336804, Note_on_c, 4, 79, 0
9, 336840, Note_on_c, 4, 79, 110
9, 336924, Note_on_c, 4, 79, 0
9, 336960, Note_on_c, 4, 82, 110
9, 337044, Note_on_c, 4, 82, 0
9, 337080, Note_on_c, 4, 82, 110
9, 337164, Note_on_c, 4, 82, 0
9, 337200, Note_on_c, 4, 82, 110
9, 337284, Note_on_c, 4, 82, 0
9, 337320, Note_on_c, 4, 82, 110
9, 337404, Note_on_c, 4, 82, 0
9, 337440, Note_on_c, 4, 70, 110
9, 337524, Note_on_c, 4, 70, 0
9, 337560, Note_on_c, 4, 70, 110
9, 337644, Note_on_c, 4, 70, 0
9, 337680, Note_on_c, 4, 70, 110
9, 337764, Note_on_c, 4, 70, 0
9, 337800, Note_on_c, 4, 70, 110
9, 337884, Note_on_c, 4, 70, 0
9, 337920, Note_on_c, 4, 62, 80
9, 337920, Note_on_c, 4, 70, 80
9, 338112, Note_on_c, 4, 70, 0
9, 338112, Note_on_c, 4, 62, 0
9, 338160, Note_on_c, 4, 62, 80
9, 338160, Note_on_c, 4, 70, 80
9, 338640, Note_on_c, 4, 70, 0
9, 338640, Note_on_c, 4, 62, 0
9, 338640, Note_on_c, 4, 62, 80
9, 338640, Note_on_c, 4, 70, 80
9, 338832, Note_on_c, 4, 70, 0
9, 338832, Note_on_c, 4, 62, 0
9, 338880, Note_on_c, 4, 62, 80
9, 338880, Note_on_c, 4, 72, 80
9, 339072, Note_on_c, 4, 72, 0
9, 339072, Note_on_c, 4, 62, 0
9, 339120, Note_on_c, 4, 62, 80
9, 339120, Note_on_c, 4, 72, 80
9, 339600, Note_on_c, 4, 72, 0
9, 339600, Note_on_c, 4, 62, 0
9, 339600, Note_on_c, 4, 62, 80
9, 339600, Note_on_c, 4, 72, 80
9, 339792, Note_on_c, 4, 72, 0
9, 339792, Note_on_c, 4, 62, 0
9, 339840, Note_on_c, 4, 62, 110
9, 339840, Note_on_c, 4, 70, 110
9, 340008, Note_on_c, 4, 70, 0
9, 340008, Note_on_c, 4, 62, 0
9, 340080, Note_on_c, 4, 58, 110
9, 340164, Note_on_c, 4, 58, 0
9, 340200, Note_on_c, 4, 58, 110
9, 340284, Note_on_c, 4, 58, 0
9, 340320, Note_on_c, 4, 58, 110
9, 340404, Note_on_c, 4, 58, 0
9, 340440, Note_on_c, 4, 58, 110
9, 340524, Note_on_c, 4, 58, 0
9, 340560, Note_on_c, 4, 60, 110
9, 340644, Note_on_c, 4, 60, 0
9, 340680, Note_on_c, 4, 60, 110
9, 340764, Note_on_c, 4, 60, 0
9, 340800, Note_on_c, 4, 61, 110
9, 340884, Note_on_c, 4, 61, 0
9, 340920, Note_on_c, 4, 61, 110
9, 341004, Note_on_c, 4, 61, 0
9, 341040, Note_on_c, 4, 62, 110
9, 341124, Note_on_c, 4, 62, 0
9, 341160, Note_on_c, 4, 62, 110
9, 341244, Note_on_c, 4, 62, 0
9, 341280, Note_on_c, 4, 63, 110
9, 341364, Note_on_c, 4, 63, 0
9, 341400, Note_on_c, 4, 63, 110
9, 341484, Note_on_c, 4, 63, 0
9, 341520, Note_on_c, 4, 64, 110
9, 341604, Note_on_c, 4, 64, 0
9, 341640, Note_on_c, 4, 64, 110
9, 341724, Note_on_c, 4, 64, 0
9, 341760, Note_on_c, 4, 65, 110
9, 342000, Note_on_c, 4, 65, 0
9, 342180, Note_on_c, 4, 65, 127
9, 342228, Note_on_c, 4, 65, 0
9, 342240, Note_on_c, 4, 63, 110
9, 342480, Note_on_c, 4, 63, 0
9, 342660, Note_on_c, 4, 63, 127
9, 342708, Note_on_c, 4, 63, 0
9, 342720, Note_on_c, 4, 72, 110
9, 342960, Note_on_c, 4, 72, 0
9, 343140, Note_on_c, 4, 72, 127
9, 343188, Note_on_c, 4, 72, 0
9, 343200, Note_on_c, 4, 70, 110
9, 343440, Note_on_c, 4, 70, 0
9, 343620, Note_on_c, 4, 70, 127
9, 343668, Note_on_c, 4, 70, 0
9, 343680, Note_on_c, 4, 75, 110
9, 344256, Note_on_c, 4, 75, 0
9, 344280, Note_on_c, 4, 74, 80
9, 344364, Note_on_c, 4, 74, 0
9, 344400, Note_on_c, 4, 72, 80
9, 344484, Note_on_c, 4, 72, 0
9, 344520, Note_on_c, 4, 70, 80
9, 344604, Note_on_c, 4, 70, 0
9, 344640, Note_on_c, 4, 69, 80
9, 344724, Note_on_c, 4, 69, 0
9, 344760, Note_on_c, 4, 67, 80
9, 344844, Note_on_c, 4, 67, 0
9, 344880, Note_on_c, 4, 66, 80
9, 344964, Note_on_c, 4, 66, 0
9, 345000, Note_on_c, 4, 63, 80
9, 345084, Note_on_c, 4, 63, 0
9, 345120, Note_on_c, 4, 62, 80
9, 345204, Note_on_c, 4, 62, 0
9, 345240, Note_on_c, 4, 60, 80
9, 345324, Note_on_c, 4, 60, 0
9, 345360, Note_on_c, 4, 58, 80
9, 345444, Note_on_c, 4, 58, 0
9, 345480, Note_on_c, 4, 57, 80
9, 345564, Note_on_c, 4, 57, 0
9, 345600, Note_on_c, 4, 58, 80
9, 345720, Note_on_c, 4, 58, 0
9, 345720, Note_on_c, 4, 62, 80
9, 345840, Note_on_c, 4, 62, 0
9, 345840, Note_on_c, 4, 58, 80
9, 345960, Note_on_c, 4, 58, 0
9, 345960, Note_on_c, 4, 62, 80
9, 346080, Note_on_c, 4, 62, 0
9, 346080, Note_on_c, 4, 58, 80
9, 346200, Note_on_c, 4, 58, 0
9, 346200, Note_on_c, 4, 62, 80
9, 346320, Note_on_c, 4, 62, 0
9, 346320, Note_on_c, 4, 58, 80
9, 346440, Note_on_c, 4, 58, 0
9, 346440, Note_on_c, 4, 62, 80
9, 346560, Note_on_c, 4, 62, 0
9, 346560, Note_on_c, 4, 60, 80
9, 346680, Note_on_c, 4, 60, 0
9, 346680, Note_on_c, 4, 62, 80
9, 346800, Note_on_c, 4, 62, 0
9, 346800, Note_on_c, 4, 60, 80
9, 346920, Note_on_c, 4, 60, 0
9, 346920, Note_on_c, 4, 62, 80
9, 347040, Note_on_c, 4, 62, 0
9, 347040, Note_on_c, 4, 57, 80
9, 347160, Note_on_c, 4, 57, 0
9, 347160, Note_on_c, 4, 62, 80
9, 347280, Note_on_c, 4, 62, 0
9, 347280, Note_on_c, 4, 57, 80
9, 347400, Note_on_c, 4, 57, 0
9, 347400, Note_on_c, 4, 62, 80
9, 347520, Note_on_c, 4, 62, 0
9, 347520, Note_on_c, 4, 55, 80
9, 347640, Note_on_c, 4, 55, 0
9, 347640, Note_on_c, 4, 62, 80
9, 347760, Note_on_c, 4, 62, 0
9, 347760, Note_on_c, 4, 55, 80
9, 347880, Note_on_c, 4, 55, 0
9, 347880, Note_on_c, 4, 62, 80
9, 348000, Note_on_c, 4, 62, 0
9, 348000, Note_on_c, 4, 55, 80
9, 348120, Note_on_c, 4, 55, 0
9, 348120, Note_on_c, 4, 62, 80
9, 348240, Note_on_c, 4, 62, 0
9, 348240, Note_on_c, 4, 58, 80
9, 348360, Note_on_c, 4, 58, 0
9, 348360, Note_on_c, 4, 62, 80
9, 348480, Note_on_c, 4, 62, 0
9, 348480, Note_on_c, 4, 60, 80
9, 348600, Note_on_c, 4, 60, 0
9, 348600, Note_on_c, 4, 62, 80
9, 348720, Note_on_c, 4, 62, 0
9, 348720, Note_on_c, 4, 60, 80
9, 348840, Note_on_c, 4, 60, 0
9, 348840, Note_on_c, 4, 62, 80
9, 348960, Note_on_c, 4, 62, 0
9, 348960, Note_on_c, 4, 57, 80
9, 349080, Note_on_c, 4, 57, 0
9, 349080, Note_on_c, 4, 62, 80
9, 349200, Note_on_c, 4, 62, 0
9, 349200, Note_on_c, 4, 57, 80
9, 349320, Note_on_c, 4, 57, 0
9, 349320, Note_on_c, 4, 62, 80
9, 349440, Note_on_c, 4, 62, 0
9, 349440, Note_on_c, 4, 55, 80
9, 349560, Note_on_c, 4, 55, 0
9, 349560, Note_on_c, 4, 62, 80
9, 349680, Note_on_c, 4, 62, 0
9, 349680, Note_on_c, 4, 55, 80
9, 349800, Note_on_c, 4, 55, 0
9, 349800, Note_on_c, 4, 62, 80
9, 349920, Note_on_c, 4, 62, 0
9, 349920, Note_on_c, 4, 55, 80
9, 350040, Note_on_c, 4, 55, 0
9, 350040, Note_on_c, 4, 62, 80
9, 350160, Note_on_c, 4, 62, 0
9, 350160, Note_on_c, 4, 67, 80
9, 350280, Note_on_c, 4, 67, 0
9, 350280, Note_on_c, 4, 62, 80
9, 350400, Note_on_c, 4, 62, 0
9, 350400, Note_on_c, 4, 65, 110
9, 350400, Note_on_c, 4, 71, 110
9, 350484, Note_on_c, 4, 71, 0
9, 350484, Note_on_c, 4, 65, 0
9, 350520, Note_on_c, 4, 65, 110
9, 350520, Note_on_c, 4, 71, 110
9, 350604, Note_on_c, 4, 71, 0
9, 350604, Note_on_c, 4, 65, 0
9, 350640, Note_on_c, 4, 65, 110
9, 350640, Note_on_c, 4, 71, 110
9, 350724, Note_on_c, 4, 71, 0
9, 350724, Note_on_c, 4, 65, 0
9, 350760, Note_on_c, 4, 65, 110
9, 350760, Note_on_c, 4, 71, 110
9, 350844, Note_on_c, 4, 71, 0
9, 350844, Note_on_c, 4, 65, 0
9, 350880, Note_on_c, 4, 65, 110
9, 350880, Note_on_c, 4, 71, 110
9, 350964, Note_on_c, 4, 71, 0
9, 350964, Note_on_c, 4, 65, 0
9, 351000, Note_on_c, 4, 65, 110
9, 351000, Note_on_c, 4, 71, 110
9, 351084, Note_on_c, 4, 71, 0
9, 351084, Note_on_c, 4, 65, 0
9, 351120, Note_on_c, 4, 65, 110
9, 351120, Note_on_c, 4, 71, 110
9, 351204, Note_on_c, 4, 71, 0
9, 351204, Note_on_c, 4, 65, 0
9, 351240, Note_on_c, 4, 65, 110
9, 351240, Note_on_c, 4, 71, 110
9, 351324, Note_on_c, 4, 71, 0
9, 351324, Note_on_c, 4, 65, 0
9, 351360, Note_on_c, 4, 63, 110
9, 351360, Note_on_c, 4, 72, 110
9, 351744, Note_on_c, 4, 72, 0
9, 351744, Note_on_c, 4, 63, 0
9, 351840, Note_on_c, 4, 79, 110
9, 352128, Note_on_c, 4, 79, 0
9, 352200, Note_on_c, 4, 75, 110
9, 352296, Note_on_c, 4, 75, 0
9, 352320, Note_on_c, 4, 74, 110
9, 352608, Note_on_c, 4, 74, 0
9, 352680, Note_on_c, 4, 70, 110
9, 352776, Note_on_c, 4, 70, 0
9, 352800, Note_on_c, 4, 69, 110
9, 353088, Note_on_c, 4, 69, 0
9, 353160, Note_on_c, 4, 72, 110
9, 353256, Note_on_c, 4, 72, 0
9, 353280, Note_on_c, 4, 70, 110
9, 353400, Note_on_c, 4, 70, 0
9, 353400, Note_on_c, 4, 62, 80
9, 353520, Note_on_c, 4, 62, 0
9, 353520, Note_on_c, 4, 58, 80
9, 353640, Note_on_c, 4, 58, 0
9, 353640, Note_on_c, 4, 62, 80
9, 353760, Note_on_c, 4, 62, 0
9, 353760, Note_on_c, 4, 58, 80
9, 353880, Note_on_c, 4, 58, 0
9, 353880, Note_on_c, 4, 62, 80
9, 354000, Note_on_c, 4, 62, 0
9, 354000, Note_on_c, 4, 58, 80
9, 354120, Note_on_c, 4, 58, 0
9, 354120, Note_on_c, 4, 62, 80
9, 354240, Note_on_c, 4, 62, 0
9, 354240, Note_on_c, 4, 57, 80
9, 354360, Note_on_c, 4, 57, 0
9, 354360, Note_on_c, 4, 60, 80
9, 354480, Note_on_c, 4, 60, 0
9, 354480, Note_on_c, 4, 57, 80
9, 354600, Note_on_c, 4, 57, 0
9, 354600, Note_on_c, 4, 60, 80
9, 354720, Note_on_c, 4, 60, 0
9, 354720, Note_on_c, 4, 57, 80
9, 354840, Note_on_c, 4, 57, 0
9, 354840, Note_on_c, 4, 62, 80
9, 354960, Note_on_c, 4, 62, 0
9, 354960, Note_on_c, 4, 66, 80
9, 355080, Note_on_c, 4, 66, 0
9, 355080, Note_on_c, 4, 62, 80
9, 355200, Note_on_c, 4, 62, 0
9, 355200, Note_on_c, 4, 67, 80
9, 355320, Note_on_c, 4, 67, 0
9, 355320, Note_on_c, 4, 62, 80
9, 355440, Note_on_c, 4, 62, 0
9, 355440, Note_on_c, 4, 55, 80
9, 355560, Note_on_c, 4, 55, 0
9, 355560, Note_on_c, 4, 62, 80
9, 355680, Note_on_c, 4, 62, 0
9, 355680, Note_on_c, 4, 55, 80
9, 355800, Note_on_c, 4, 55, 0
9, 355800, Note_on_c, 4, 62, 80
9, 355920, Note_on_c, 4, 62, 0
9, 355920, Note_on_c, 4, 58, 80
9, 356040, Note_on_c, 4, 58, 0
9, 356040, Note_on_c, 4, 62, 80
9, 356160, Note_on_c, 4, 62, 0
9, 356160, Note_on_c, 4, 57, 80
9, 356280, Note_on_c, 4, 57, 0
9, 356280, Note_on_c, 4, 60, 80
9, 356400, Note_on_c, 4, 60, 0
9, 356400, Note_on_c, 4, 57, 80
9, 356520, Note_on_c, 4, 57, 0
9, 356520, Note_on_c, 4, 60, 80
9, 356640, Note_on_c, 4, 60, 0
9, 356640, Note_on_c, 4, 57, 80
9, 356760, Note_on_c, 4, 57, 0
9, 356760, Note_on_c, 4, 62, 80
9, 356880, Note_on_c, 4, 62, 0
9, 356880, Note_on_c, 4, 66, 80
9, 357000, Note_on_c, 4, 66, 0
9, 357000, Note_on_c, 4, 62, 80
9, 357120, Note_on_c, 4, 62, 0
9, 357120, Note_on_c, 4, 67, 80
9, 357240, Note_on_c, 4, 67, 0
9, 357240, Note_on_c, 4, 62, 80
9, 357360, Note_on_c, 4, 62, 0
9, 357360, Note_on_c, 4, 55, 80
9, 357480, Note_on_c, 4, 55, 0
9, 357480, Note_on_c, 4, 62, 80
9, 357600, Note_on_c, 4, 62, 0
9, 357600, Note_on_c, 4, 55, 80
9, 357720, Note_on_c, 4, 55, 0
9, 357720, Note_on_c, 4, 62, 80
9, 357840, Note_on_c, 4, 62, 0
9, 357840, Note_on_c, 4, 67, 80
9, 357960, Note_on_c, 4, 67, 0
9, 357960, Note_on_c, 4, 62, 80
9, 358080, Note_on_c, 4, 62, 0
9, 358080, Note_on_c, 4, 71, 110
9, 358080, Note_on_c, 4, 65, 110
9, 358164, Note_on_c, 4, 65, 0
9, 358164, Note_on_c, 4, 71, 0
9, 358200, Note_on_c, 4, 71, 110
9, 358200, Note_on_c, 4, 65, 110
9, 358284, Note_on_c, 4, 65, 0
9, 358284, Note_on_c, 4, 71, 0
9, 358320, Note_on_c, 4, 71, 110
9, 358320, Note_on_c, 4, 65, 110
9, 358404, Note_on_c, 4, 65, 0
9, 358404, Note_on_c, 4, 71, 0
9, 358440, Note_on_c, 4, 71, 110
9, 358440, Note_on_c, 4, 65, 110
9, 358524, Note_on_c, 4, 65, 0
9, 358524, Note_on_c, 4, 71, 0
9, 358560, Note_on_c, 4, 71, 110
9, 358560, Note_on_c, 4, 65, 110
9, 358644, Note_on_c, 4, 65, 0
9, 358644, Note_on_c, 4, 71, 0
9, 358680, Note_on_c, 4, 71, 110
9, 358680, Note_on_c, 4, 65, 110
9, 358764, Note_on_c, 4, 65, 0
9, 358764, Note_on_c, 4, 71, 0
9, 358800, Note_on_c, 4, 71, 110
9, 358800, Note_on_c, 4, 65, 110
9, 358884, Note_on_c, 4, 65, 0
9, 358884, Note_on_c, 4, 71, 0
9, 358920, Note_on_c, 4, 71, 110
9, 358920, Note_on_c, 4, 65, 110
9, 359004, Note_on_c, 4, 65, 0
9, 359004, Note_on_c, 4, 71, 0
9, 359040, Note_on_c, 4, 72, 110
9, 359040, Note_on_c, 4, 63, 110
9, 359424, Note_on_c, 4, 63, 0
9, 359424, Note_on_c, 4, 72, 0
9, 359520, Note_on_c, 4, 79, 110
9, 359808, Note_on_c, 4, 79, 0
9, 359880, Note_on_c, 4, 75, 110
9, 359976, Note_on_c, 4, 75, 0
9, 360000, Note_on_c, 4, 74, 110
9, 360288, Note_on_c, 4, 74, 0
9, 360360, Note_on_c, 4, 70, 110
9, 360456, Note_on_c, 4, 70, 0
9, 360480, Note_on_c, 4, 66, 110
9, 360768, Note_on_c, 4, 66, 0
9, 360840, Note_on_c, 4, 69, 110
9, 360936, Note_on_c, 4, 69, 0
9, 360960, Note_on_c, 4, 67, 110
9, 361044, Note_on_c, 4, 67, 0
9, 361080, Note_on_c, 4, 70, 110
9, 361164, Note_on_c, 4, 70, 0
9, 361200, Note_on_c, 4, 82, 110
9, 361284, Note_on_c, 4, 82, 0
9, 361320, Note_on_c, 4, 81, 110
9, 361404, Note_on_c, 4, 81, 0
9, 361440, Note_on_c, 4, 79, 110
9, 361524, Note_on_c, 4, 79, 0
9, 361560, Note_on_c, 4, 77, 110
9, 361644, Note_on_c, 4, 77, 0
9, 361680, Note_on_c, 4, 75, 110
9, 361764, Note_on_c, 4, 75, 0
9, 361800, Note_on_c, 4, 74, 110
9, 361884, Note_on_c, 4, 74, 0
9, 361920, Note_on_c, 4, 72, 110
9, 362004, Note_on_c, 4, 72, 0
9, 362040, Note_on_c, 4, 70, 110
9, 362124, Note_on_c, 4, 70, 0
9, 362160, Note_on_c, 4, 69, 110
9, 362244, Note_on_c, 4, 69, 0
9, 362280, Note_on_c, 4, 67, 110
9, 362364, Note_on_c, 4, 67, 0
9, 362400, Note_on_c, 4, 66, 110
9, 362484, Note_on_c, 4, 66, 0
9, 362520, Note_on_c, 4, 63, 110
9, 362604, Note_on_c, 4, 63, 0
9, 362640, Note_on_c, 4, 62, 110
9, 362724, Note_on_c, 4, 62, 0
9, 362760, Note_on_c, 4, 60, 110
9, 362844, Note_on_c, 4, 60, 0
9, 362880, Note_on_c, 4, 58, 110
9, 363024, Note_on_c, 4, 58, 0
9, 363120, Note_on_c, 4, 67, 110
9, 363264, Note_on_c, 4, 67, 0
9, 363360, Note_on_c, 4, 67, 110
9, 363504, Note_on_c, 4, 67, 0
9, 363600, Note_on_c, 4, 60, 110
9, 363744, Note_on_c, 4, 60, 0
9, 363840, Note_on_c, 4, 58, 110
9, 363924, Note_on_c, 4, 58, 0
9, 363960, Note_on_c, 4, 62, 110
9, 364044, Note_on_c, 4, 62, 0
9, 364080, Note_on_c, 4, 70, 110
9, 364164, Note_on_c, 4, 70, 0
9, 364200, Note_on_c, 4, 69, 110
9, 364284, Note_on_c, 4, 69, 0
9, 364320, Note_on_c, 4, 67, 110
9, 364404, Note_on_c, 4, 67, 0
9, 364440, Note_on_c, 4, 65, 110
9, 364524, Note_on_c, 4, 65, 0
9, 364560, Note_on_c, 4, 63, 110
9, 364644, Note_on_c, 4, 63, 0
9, 364680, Note_on_c, 4, 62, 110
9, 364764, Note_on_c, 4, 62, 0
9, 364800, Note_on_c, 4, 61, 110
9, 364884, Note_on_c, 4, 61, 0
9, 364920, Note_on_c, 4, 64, 110
9, 365004, Note_on_c, 4, 64, 0
9, 365040, Note_on_c, 4, 69, 110
9, 365124, Note_on_c, 4, 69, 0
9, 365160, Note_on_c, 4, 67, 110
9, 365244, Note_on_c, 4, 67, 0
9, 365280, Note_on_c, 4, 66, 110
9, 365364, Note_on_c, 4, 66, 0
9, 365400, Note_on_c, 4, 63, 110
9, 365484, Note_on_c, 4, 63, 0
9, 365520, Note_on_c, 4, 62, 110
9, 365604, Note_on_c, 4, 62, 0
9, 365640, Note_on_c, 4, 60, 110
9, 365724, Note_on_c, 4, 60, 0
9, 365760, Note_on_c, 4, 58, 110
9, 366000, Note_on_c, 4, 58, 0
9, 366180, Note_on_c, 4, 67, 127
9, 366228, Note_on_c, 4, 67, 0
9, 366240, Note_on_c, 4, 67, 110
9, 366480, Note_on_c, 4, 67, 0
9, 366660, Note_on_c, 4, 68, 127
9, 366708, Note_on_c, 4, 68, 0
9, 366720, Note_on_c, 4, 68, 110
9, 366960, Note_on_c, 4, 68, 0
9, 367140, Note_on_c, 4, 69, 127
9, 367188, Note_on_c, 4, 69, 0
9, 367200, Note_on_c, 4, 69, 110
9, 367440, Note_on_c, 4, 69, 0
9, 367620, Note_on_c, 4, 70, 127
9, 367668, Note_on_c, 4, 70, 0
9, 367680, Note_on_c, 4, 70, 110
9, 367920, Note_on_c, 4, 70, 0
9, 368100, Note_on_c, 4, 71, 127
9, 368148, Note_on_c, 4, 71, 0
9, 368160, Note_on_c, 4, 71, 110
9, 368400, Note_on_c, 4, 71, 0
9, 368580, Note_on_c, 4, 72, 127
9, 368628, Note_on_c, 4, 72, 0
9, 368640, Note_on_c, 4, 72, 110
9, 368880, Note_on_c, 4, 72, 0
9, 369060, Note_on_c, 4, 73, 127
9, 369108, Note_on_c, 4, 73, 0
9, 369120, Note_on_c, 4, 73, 110
9, 369360, Note_on_c, 4, 73, 0
9, 370320, Note_on_c, 4, 75, 80
9, 370440, Note_on_c, 4, 75, 0
9, 370440, Note_on_c, 4, 74, 80
9, 370560, Note_on_c, 4, 74, 0
9, 370560, Note_on_c, 4, 74, 80
9, 370752, Note_on_c, 4, 74, 0
9, 370800, Note_on_c, 4, 75, 80
9, 370920, Note_on_c, 4, 75, 0
9, 370920, Note_on_c, 4, 74, 80
9, 371040, Note_on_c, 4, 74, 0
9, 371040, Note_on_c, 4, 74, 80
9, 371232, Note_on_c, 4, 74, 0
9, 371280, Note_on_c, 4, 75, 80
9, 371400, Note_on_c, 4, 75, 0
9, 371400, Note_on_c, 4, 74, 80
9, 371520, Note_on_c, 4, 74, 0
9, 371520, Note_on_c, 4, 74, 80
9, 371760, Note_on_c, 4, 74, 0
9, 371760, Note_on_c, 4, 79, 80
9, 372240, Note_on_c, 4, 79, 0
9, 372240, Note_on_c, 4, 77, 80
9, 372720, Note_on_c, 4, 77, 0
9, 372720, Note_on_c, 4, 75, 80
9, 373200, Note_on_c, 4, 75, 0
9, 373200, Note_on_c, 4, 74, 80
9, 373440, Note_on_c, 4, 74, 0
9, 373440, Note_on_c, 4, 72, 80
9, 377280, Note_on_c, 4, 72, 0
9, 377280, Note_on_c, 4, 62, 110
9, 377280, Note_on_c, 4, 70, 110
9, 377472, Note_on_c, 4, 70, 0
9, 377472, Note_on_c, 4, 62, 0
9, 377520, Note_on_c, 4, 62, 110
9, 377520, Note_on_c, 4, 70, 110
9, 377616, Note_on_c, 4, 70, 0
9, 377616, Note_on_c, 4, 62, 0
9, 377640, Note_on_c, 4, 62, 110
9, 377640, Note_on_c, 4, 70, 110
9, 377736, Note_on_c, 4, 70, 0
9, 377736, Note_on_c, 4, 62, 0
9, 377760, Note_on_c, 4, 62, 110
9, 377760, Note_on_c, 4, 72, 110
9, 377952, Note_on_c, 4, 72, 0
9, 377952, Note_on_c, 4, 62, 0
9, 378000, Note_on_c, 4, 72, 110
9, 378000, Note_on_c, 4, 62, 110
9, 378096, Note_on_c, 4, 62, 0
9, 378096, Note_on_c, 4, 72, 0
9, 378120, Note_on_c, 4, 62, 110
9, 378120, Note_on_c, 4, 72, 110
9, 378216, Note_on_c, 4, 72, 0
9, 378216, Note_on_c, 4, 62, 0
9, 378240, Note_on_c, 4, 70, 110
9, 378240, Note_on_c, 4, 62, 110
9, 378432, Note_on_c, 4, 62, 0
9, 378432, Note_on_c, 4, 70, 0
9, 378480, Note_on_c, 4, 70, 110
9, 378480, Note_on_c, 4, 62, 110
9, 378576, Note_on_c, 4, 62, 0
9, 378576, Note_on_c, 4, 70, 0
9, 378600, Note_on_c, 4, 62, 110
9, 378600, Note_on_c, 4, 70, 110
9, 378696, Note_on_c, 4, 70, 0
9, 378696, Note_on_c, 4, 62, 0
9, 378720, Note_on_c, 4, 72, 110
9, 378720, Note_on_c, 4, 62, 110
9, 378912, Note_on_c, 4, 62, 0
9, 378912, Note_on_c, 4, 72, 0
9, 378960, Note_on_c, 4, 72, 110
9, 378960, Note_on_c, 4, 62, 110
9, 379056, Note_on_c, 4, 62, 0
9, 379056, Note_on_c, 4, 72, 0
9, 379080, Note_on_c, 4, 72, 110
9, 379080, Note_on_c, 4, 62, 110
9, 379176, Note_on_c, 4, 62, 0
9, 379176, Note_on_c, 4, 72, 0
9, 379200, Note_on_c, 4, 70, 110
9, 379200, Note_on_c, 4, 62, 110
9, 379392, Note_on_c, 4, 62, 0
9, 379392, Note_on_c, 4, 70, 0
9, 379440, Note_on_c, 4, 70, 110
9, 379440, Note_on_c, 4, 62, 110
9, 379536, Note_on_c, 4, 62, 0
9, 379536, Note_on_c, 4, 70, 0
9, 379560, Note_on_c, 4, 62, 110
9, 379560, Note_on_c, 4, 70, 110
9, 379656, Note_on_c, 4, 70, 0
9, 379656, Note_on_c, 4, 62, 0
9, 379680, Note_on_c, 4, 72, 110
9, 379680, Note_on_c, 4, 62, 110
9, 379872, Note_on_c, 4, 62, 0
9, 379872, Note_on_c, 4, 72, 0
9, 379920, Note_on_c, 4, 72, 110
9, 379920, Note_on_c, 4, 62, 110
9, 380016, Note_on_c, 4, 62, 0
9, 380016, Note_on_c, 4, 72, 0
9, 380040, Note_on_c, 4, 72, 110
9, 380040, Note_on_c, 4, 62, 110
9, 380136, Note_on_c, 4, 62, 0
9, 380136, Note_on_c, 4, 72, 0
9, 380160, Note_on_c, 4, 62, 110
9, 380160, Note_on_c, 4, 70, 110
9, 380352, Note_on_c, 4, 70, 0
9, 380352, Note_on_c, 4, 62, 0
9, 380400, Note_on_c, 4, 62, 110
9, 380400, Note_on_c, 4, 72, 110
9, 380592, Note_on_c, 4, 72, 0
9, 380592, Note_on_c, 4, 62, 0
9, 380640, Note_on_c, 4, 62, 110
9, 380640, Note_on_c, 4, 70, 110
9, 380832, Note_on_c, 4, 70, 0
9, 380832, Note_on_c, 4, 62, 0
9, 380880, Note_on_c, 4, 62, 110
9, 380880, Note_on_c, 4, 72, 110
9, 381072, Note_on_c, 4, 72, 0
9, 381072, Note_on_c, 4, 62, 0
9, 381120, Note_on_c, 4, 62, 110
9, 381120, Note_on_c, 4, 70, 110
9, 381480, Note_on_c, 4, 70, 0
9, 381480, Note_on_c, 4, 62, 0
9, 382080, Note_on_c, 4, 62, 110
9, 382080, Note_on_c, 4, 70, 110
9, 382080, Note_on_c, 4, 79, 110
9, 382320, Note_on_c, 4, 79, 0
9, 382320, Note_on_c, 4, 70, 0
9, 382320, Note_on_c, 4, 62, 0
9, 382560, Note_on_c, 4, 82, 110
9, 382560, Note_on_c, 4, 74, 110
9, 382560, Note_on_c, 4, 67, 110
9, 382800, Note_on_c, 4, 67, 0
9, 382800, Note_on_c, 4, 74, 0
9, 382800, Note_on_c, 4, 82, 0
9, 383040, Note_on_c, 4, 55, 110
9, 383760, Note_on_c, 4, 55, 0
9, 383760, End_track
10, 0, Start_track
10, 0, MIDI_port, 0
10, 0, Title_t, "Viola."
10, 0, Program_c, 5, 48
10, 140, Control_c, 5, 10, 45
10, 320, Control_c, 5, 91, 127
10, 960, Note_on_c, 5, 55, 80
10, 960, Note_on_c, 5, 58, 80
10, 1020, Note_on_c, 5, 58, 0
10, 1020, Note_on_c, 5, 55, 0
10, 1080, Note_on_c, 5, 55, 80
10, 1080, Note_on_c, 5, 58, 80
10, 1140, Note_on_c, 5, 58, 0
10, 1140, Note_on_c, 5, 55, 0
10, 1200, Note_on_c, 5, 58, 80
10, 1200, Note_on_c, 5, 67, 80
10, 1260, Note_on_c, 5, 67, 0
10, 1260, Note_on_c, 5, 58, 0
10, 1320, Note_on_c, 5, 58, 80
10, 1320, Note_on_c, 5, 67, 80
10, 1380, Note_on_c, 5, 67, 0
10, 1380, Note_on_c, 5, 58, 0
10, 1440, Note_on_c, 5, 55, 80
10, 1440, Note_on_c, 5, 58, 80
10, 1500, Note_on_c, 5, 58, 0
10, 1500, Note_on_c, 5, 55, 0
10, 1560, Note_on_c, 5, 55, 80
10, 1560, Note_on_c, 5, 58, 80
10, 1620, Note_on_c, 5, 58, 0
10, 1620, Note_on_c, 5, 55, 0
10, 1680, Note_on_c, 5, 58, 80
10, 1680, Note_on_c, 5, 67, 80
10, 1740, Note_on_c, 5, 67, 0
10, 1740, Note_on_c, 5, 58, 0
10, 1800, Note_on_c, 5, 58, 80
10, 1800, Note_on_c, 5, 67, 80
10, 1860, Note_on_c, 5, 67, 0
10, 1860, Note_on_c, 5, 58, 0
10, 1920, Note_on_c, 5, 58, 80
10, 1920, Note_on_c, 5, 55, 80
10, 1980, Note_on_c, 5, 55, 0
10, 1980, Note_on_c, 5, 58, 0
10, 2040, Note_on_c, 5, 58, 80
10, 2040, Note_on_c, 5, 55, 80
10, 2100, Note_on_c, 5, 55, 0
10, 2100, Note_on_c, 5, 58, 0
10, 2160, Note_on_c, 5, 67, 80
10, 2160, Note_on_c, 5, 58, 80
10, 2220, Note_on_c, 5, 58, 0
10, 2220, Note_on_c, 5, 67, 0
10, 2280, Note_on_c, 5, 67, 80
10, 2280, Note_on_c, 5, 58, 80
10, 2340, Note_on_c, 5, 58, 0
10, 2340, Note_on_c, 5, 67, 0
10, 2400, Note_on_c, 5, 58, 80
10, 2400, Note_on_c, 5, 55, 80
10, 2460, Note_on_c, 5, 55, 0
10, 2460, Note_on_c, 5, 58, 0
10, 2520, Note_on_c, 5, 58, 80
10, 2520, Note_on_c, 5, 55, 80
10, 2580, Note_on_c, 5, 55, 0
10, 2580, Note_on_c, 5, 58, 0
10, 2640, Note_on_c, 5, 67, 80
10, 2640, Note_on_c, 5, 58, 80
10, 2700, Note_on_c, 5, 58, 0
10, 2700, Note_on_c, 5, 67, 0
10, 2760, Note_on_c, 5, 67, 80
10, 2760, Note_on_c, 5, 58, 80
10, 2820, Note_on_c, 5, 58, 0
10, 2820, Note_on_c, 5, 67, 0
10, 2880, Note_on_c, 5, 58, 80
10, 2880, Note_on_c, 5, 55, 80
10, 2940, Note_on_c, 5, 55, 0
10, 2940, Note_on_c, 5, 58, 0
10, 3000, Note_on_c, 5, 58, 80
10, 3000, Note_on_c, 5, 55, 80
10, 3060, Note_on_c, 5, 55, 0
10, 3060, Note_on_c, 5, 58, 0
10, 3120, Note_on_c, 5, 67, 80
10, 3120, Note_on_c, 5, 62, 80
10, 3180, Note_on_c, 5, 62, 0
10, 3180, Note_on_c, 5, 67, 0
10, 3240, Note_on_c, 5, 67, 80
10, 3240, Note_on_c, 5, 62, 80
10, 3300, Note_on_c, 5, 62, 0
10, 3300, Note_on_c, 5, 67, 0
10, 3360, Note_on_c, 5, 58, 80
10, 3360, Note_on_c, 5, 55, 80
10, 3420, Note_on_c, 5, 55, 0
10, 3420, Note_on_c, 5, 58, 0
10, 3480, Note_on_c, 5, 58, 80
10, 3480, Note_on_c, 5, 55, 80
10, 3540, Note_on_c, 5, 55, 0
10, 3540, Note_on_c, 5, 58, 0
10, 3600, Note_on_c, 5, 67, 80
10, 3600, Note_on_c, 5, 62, 80
10, 3660, Note_on_c, 5, 62, 0
10, 3660, Note_on_c, 5, 67, 0
10, 3720, Note_on_c, 5, 67, 80
10, 3720, Note_on_c, 5, 62, 80
10, 3780, Note_on_c, 5, 62, 0
10, 3780, Note_on_c, 5, 67, 0
10, 3840, Note_on_c, 5, 58, 80
10, 3840, Note_on_c, 5, 55, 80
10, 3900, Note_on_c, 5, 55, 0
10, 3900, Note_on_c, 5, 58, 0
10, 3960, Note_on_c, 5, 58, 80
10, 3960, Note_on_c, 5, 55, 80
10, 4020, Note_on_c, 5, 55, 0
10, 4020, Note_on_c, 5, 58, 0
10, 4080, Note_on_c, 5, 62, 80
10, 4080, Note_on_c, 5, 58, 80
10, 4140, Note_on_c, 5, 58, 0
10, 4140, Note_on_c, 5, 62, 0
10, 4200, Note_on_c, 5, 62, 80
10, 4200, Note_on_c, 5, 58, 80
10, 4260, Note_on_c, 5, 58, 0
10, 4260, Note_on_c, 5, 62, 0
10, 4320, Note_on_c, 5, 58, 80
10, 4320, Note_on_c, 5, 55, 80
10, 4380, Note_on_c, 5, 55, 0
10, 4380, Note_on_c, 5, 58, 0
10, 4440, Note_on_c, 5, 58, 80
10, 4440, Note_on_c, 5, 55, 80
10, 4500, Note_on_c, 5, 55, 0
10, 4500, Note_on_c, 5, 58, 0
10, 4560, Note_on_c, 5, 67, 80
10, 4560, Note_on_c, 5, 58, 80
10, 4620, Note_on_c, 5, 58, 0
10, 4620, Note_on_c, 5, 67, 0
10, 4680, Note_on_c, 5, 67, 80
10, 4680, Note_on_c, 5, 58, 80
10, 4740, Note_on_c, 5, 58, 0
10, 4740, Note_on_c, 5, 67, 0
10, 4800, Note_on_c, 5, 57, 80
10, 4800, Note_on_c, 5, 63, 80
10, 4860, Note_on_c, 5, 63, 0
10, 4860, Note_on_c, 5, 57, 0
10, 4920, Note_on_c, 5, 57, 80
10, 4920, Note_on_c, 5, 63, 80
10, 4980, Note_on_c, 5, 63, 0
10, 4980, Note_on_c, 5, 57, 0
10, 5040, Note_on_c, 5, 63, 80
10, 5040, Note_on_c, 5, 69, 80
10, 5100, Note_on_c, 5, 69, 0
10, 5100, Note_on_c, 5, 63, 0
10, 5160, Note_on_c, 5, 63, 80
10, 5160, Note_on_c, 5, 69, 80
10, 5220, Note_on_c, 5, 69, 0
10, 5220, Note_on_c, 5, 63, 0
10, 5280, Note_on_c, 5, 57, 80
10, 5280, Note_on_c, 5, 63, 80
10, 5340, Note_on_c, 5, 63, 0
10, 5340, Note_on_c, 5, 57, 0
10, 5400, Note_on_c, 5, 57, 80
10, 5400, Note_on_c, 5, 63, 80
10, 5460, Note_on_c, 5, 63, 0
10, 5460, Note_on_c, 5, 57, 0
10, 5520, Note_on_c, 5, 63, 80
10, 5520, Note_on_c, 5, 69, 80
10, 5580, Note_on_c, 5, 69, 0
10, 5580, Note_on_c, 5, 63, 0
10, 5640, Note_on_c, 5, 63, 80
10, 5640, Note_on_c, 5, 69, 80
10, 5700, Note_on_c, 5, 69, 0
10, 5700, Note_on_c, 5, 63, 0
10, 5760, Note_on_c, 5, 63, 80
10, 5760, Note_on_c, 5, 57, 80
10, 5820, Note_on_c, 5, 57, 0
10, 5820, Note_on_c, 5, 63, 0
10, 5880, Note_on_c, 5, 63, 80
10, 5880, Note_on_c, 5, 57, 80
10, 5940, Note_on_c, 5, 57, 0
10, 5940, Note_on_c, 5, 63, 0
10, 6000, Note_on_c, 5, 69, 80
10, 6000, Note_on_c, 5, 63, 80
10, 6060, Note_on_c, 5, 63, 0
10, 6060, Note_on_c, 5, 69, 0
10, 6120, Note_on_c, 5, 69, 80
10, 6120, Note_on_c, 5, 63, 80
10, 6180, Note_on_c, 5, 63, 0
10, 6180, Note_on_c, 5, 69, 0
10, 6240, Note_on_c, 5, 63, 80
10, 6240, Note_on_c, 5, 57, 80
10, 6300, Note_on_c, 5, 57, 0
10, 6300, Note_on_c, 5, 63, 0
10, 6360, Note_on_c, 5, 63, 80
10, 6360, Note_on_c, 5, 57, 80
10, 6420, Note_on_c, 5, 57, 0
10, 6420, Note_on_c, 5, 63, 0
10, 6480, Note_on_c, 5, 69, 80
10, 6480, Note_on_c, 5, 63, 80
10, 6540, Note_on_c, 5, 63, 0
10, 6540, Note_on_c, 5, 69, 0
10, 6600, Note_on_c, 5, 69, 80
10, 6600, Note_on_c, 5, 63, 80
10, 6660, Note_on_c, 5, 63, 0
10, 6660, Note_on_c, 5, 69, 0
10, 6720, Note_on_c, 5, 62, 80
10, 6720, Note_on_c, 5, 57, 80
10, 6780, Note_on_c, 5, 57, 0
10, 6780, Note_on_c, 5, 62, 0
10, 6840, Note_on_c, 5, 62, 80
10, 6840, Note_on_c, 5, 57, 80
10, 6900, Note_on_c, 5, 57, 0
10, 6900, Note_on_c, 5, 62, 0
10, 6960, Note_on_c, 5, 72, 80
10, 6960, Note_on_c, 5, 62, 80
10, 7020, Note_on_c, 5, 62, 0
10, 7020, Note_on_c, 5, 72, 0
10, 7080, Note_on_c, 5, 72, 80
10, 7080, Note_on_c, 5, 62, 80
10, 7140, Note_on_c, 5, 62, 0
10, 7140, Note_on_c, 5, 72, 0
10, 7200, Note_on_c, 5, 62, 80
10, 7200, Note_on_c, 5, 57, 80
10, 7260, Note_on_c, 5, 57, 0
10, 7260, Note_on_c, 5, 62, 0
10, 7320, Note_on_c, 5, 62, 80
10, 7320, Note_on_c, 5, 57, 80
10, 7380, Note_on_c, 5, 57, 0
10, 7380, Note_on_c, 5, 62, 0
10, 7440, Note_on_c, 5, 72, 80
10, 7440, Note_on_c, 5, 62, 80
10, 7500, Note_on_c, 5, 62, 0
10, 7500, Note_on_c, 5, 72, 0
10, 7560, Note_on_c, 5, 72, 80
10, 7560, Note_on_c, 5, 62, 80
10, 7620, Note_on_c, 5, 62, 0
10, 7620, Note_on_c, 5, 72, 0
10, 7680, Note_on_c, 5, 60, 80
10, 7680, Note_on_c, 5, 57, 80
10, 7740, Note_on_c, 5, 57, 0
10, 7740, Note_on_c, 5, 60, 0
10, 7800, Note_on_c, 5, 60, 80
10, 7800, Note_on_c, 5, 57, 80
10, 7860, Note_on_c, 5, 57, 0
10, 7860, Note_on_c, 5, 60, 0
10, 7920, Note_on_c, 5, 69, 80
10, 7920, Note_on_c, 5, 60, 80
10, 7980, Note_on_c, 5, 60, 0
10, 7980, Note_on_c, 5, 69, 0
10, 8040, Note_on_c, 5, 69, 80
10, 8040, Note_on_c, 5, 60, 80
10, 8100, Note_on_c, 5, 60, 0
10, 8100, Note_on_c, 5, 69, 0
10, 8160, Note_on_c, 5, 66, 80
10, 8160, Note_on_c, 5, 57, 80
10, 8220, Note_on_c, 5, 57, 0
10, 8220, Note_on_c, 5, 66, 0
10, 8280, Note_on_c, 5, 66, 80
10, 8280, Note_on_c, 5, 57, 80
10, 8340, Note_on_c, 5, 57, 0
10, 8340, Note_on_c, 5, 66, 0
10, 8400, Note_on_c, 5, 69, 80
10, 8400, Note_on_c, 5, 66, 80
10, 8460, Note_on_c, 5, 66, 0
10, 8460, Note_on_c, 5, 69, 0
10, 8520, Note_on_c, 5, 69, 80
10, 8520, Note_on_c, 5, 66, 80
10, 8580, Note_on_c, 5, 66, 0
10, 8580, Note_on_c, 5, 69, 0
10, 8640, Note_on_c, 5, 62, 80
10, 8640, Note_on_c, 5, 55, 80
10, 8700, Note_on_c, 5, 55, 0
10, 8700, Note_on_c, 5, 62, 0
10, 8760, Note_on_c, 5, 62, 80
10, 8760, Note_on_c, 5, 55, 80
10, 8820, Note_on_c, 5, 55, 0
10, 8820, Note_on_c, 5, 62, 0
10, 8880, Note_on_c, 5, 67, 80
10, 8880, Note_on_c, 5, 62, 80
10, 8940, Note_on_c, 5, 62, 0
10, 8940, Note_on_c, 5, 67, 0
10, 9000, Note_on_c, 5, 67, 80
10, 9000, Note_on_c, 5, 62, 80
10, 9060, Note_on_c, 5, 62, 0
10, 9060, Note_on_c, 5, 67, 0
10, 9120, Note_on_c, 5, 62, 80
10, 9120, Note_on_c, 5, 55, 80
10, 9180, Note_on_c, 5, 55, 0
10, 9180, Note_on_c, 5, 62, 0
10, 9240, Note_on_c, 5, 62, 80
10, 9240, Note_on_c, 5, 55, 80
10, 9300, Note_on_c, 5, 55, 0
10, 9300, Note_on_c, 5, 62, 0
10, 9360, Note_on_c, 5, 67, 80
10, 9360, Note_on_c, 5, 62, 80
10, 9420, Note_on_c, 5, 62, 0
10, 9420, Note_on_c, 5, 67, 0
10, 9480, Note_on_c, 5, 67, 80
10, 9480, Note_on_c, 5, 62, 80
10, 9540, Note_on_c, 5, 62, 0
10, 9540, Note_on_c, 5, 67, 0
10, 9600, Note_on_c, 5, 57, 80
10, 9600, Note_on_c, 5, 63, 80
10, 9660, Note_on_c, 5, 63, 0
10, 9660, Note_on_c, 5, 57, 0
10, 9720, Note_on_c, 5, 57, 80
10, 9720, Note_on_c, 5, 63, 80
10, 9780, Note_on_c, 5, 63, 0
10, 9780, Note_on_c, 5, 57, 0
10, 9840, Note_on_c, 5, 63, 80
10, 9840, Note_on_c, 5, 66, 80
10, 9900, Note_on_c, 5, 66, 0
10, 9900, Note_on_c, 5, 63, 0
10, 9960, Note_on_c, 5, 63, 80
10, 9960, Note_on_c, 5, 66, 80
10, 10020, Note_on_c, 5, 66, 0
10, 10020, Note_on_c, 5, 63, 0
10, 10080, Note_on_c, 5, 57, 80
10, 10080, Note_on_c, 5, 63, 80
10, 10140, Note_on_c, 5, 63, 0
10, 10140, Note_on_c, 5, 57, 0
10, 10200, Note_on_c, 5, 57, 80
10, 10200, Note_on_c, 5, 63, 80
10, 10260, Note_on_c, 5, 63, 0
10, 10260, Note_on_c, 5, 57, 0
10, 10320, Note_on_c, 5, 63, 80
10, 10320, Note_on_c, 5, 66, 80
10, 10380, Note_on_c, 5, 66, 0
10, 10380, Note_on_c, 5, 63, 0
10, 10440, Note_on_c, 5, 63, 80
10, 10440, Note_on_c, 5, 66, 80
10, 10500, Note_on_c, 5, 66, 0
10, 10500, Note_on_c, 5, 63, 0
10, 10560, Note_on_c, 5, 55, 80
10, 10560, Note_on_c, 5, 62, 80
10, 10620, Note_on_c, 5, 62, 0
10, 10620, Note_on_c, 5, 55, 0
10, 10680, Note_on_c, 5, 55, 80
10, 10680, Note_on_c, 5, 62, 80
10, 10740, Note_on_c, 5, 62, 0
10, 10740, Note_on_c, 5, 55, 0
10, 10800, Note_on_c, 5, 62, 80
10, 10800, Note_on_c, 5, 67, 80
10, 10860, Note_on_c, 5, 67, 0
10, 10860, Note_on_c, 5, 62, 0
10, 10920, Note_on_c, 5, 62, 80
10, 10920, Note_on_c, 5, 67, 80
10, 10980, Note_on_c, 5, 67, 0
10, 10980, Note_on_c, 5, 62, 0
10, 11040, Note_on_c, 5, 55, 80
10, 11040, Note_on_c, 5, 62, 80
10, 11100, Note_on_c, 5, 62, 0
10, 11100, Note_on_c, 5, 55, 0
10, 11160, Note_on_c, 5, 55, 80
10, 11160, Note_on_c, 5, 62, 80
10, 11220, Note_on_c, 5, 62, 0
10, 11220, Note_on_c, 5, 55, 0
10, 11280, Note_on_c, 5, 62, 80
10, 11280, Note_on_c, 5, 67, 80
10, 11340, Note_on_c, 5, 67, 0
10, 11340, Note_on_c, 5, 62, 0
10, 11400, Note_on_c, 5, 62, 80
10, 11400, Note_on_c, 5, 67, 80
10, 11460, Note_on_c, 5, 67, 0
10, 11460, Note_on_c, 5, 62, 0
10, 11520, Note_on_c, 5, 63, 80
10, 11520, Note_on_c, 5, 57, 80
10, 11580, Note_on_c, 5, 57, 0
10, 11580, Note_on_c, 5, 63, 0
10, 11640, Note_on_c, 5, 63, 80
10, 11640, Note_on_c, 5, 57, 80
10, 11700, Note_on_c, 5, 57, 0
10, 11700, Note_on_c, 5, 63, 0
10, 11760, Note_on_c, 5, 66, 80
10, 11760, Note_on_c, 5, 63, 80
10, 11820, Note_on_c, 5, 63, 0
10, 11820, Note_on_c, 5, 66, 0
10, 11880, Note_on_c, 5, 66, 80
10, 11880, Note_on_c, 5, 63, 80
10, 11940, Note_on_c, 5, 63, 0
10, 11940, Note_on_c, 5, 66, 0
10, 12000, Note_on_c, 5, 63, 80
10, 12000, Note_on_c, 5, 57, 80
10, 12060, Note_on_c, 5, 57, 0
10, 12060, Note_on_c, 5, 63, 0
10, 12120, Note_on_c, 5, 63, 80
10, 12120, Note_on_c, 5, 57, 80
10, 12180, Note_on_c, 5, 57, 0
10, 12180, Note_on_c, 5, 63, 0
10, 12240, Note_on_c, 5, 66, 80
10, 12240, Note_on_c, 5, 63, 80
10, 12300, Note_on_c, 5, 63, 0
10, 12300, Note_on_c, 5, 66, 0
10, 12360, Note_on_c, 5, 66, 80
10, 12360, Note_on_c, 5, 63, 80
10, 12420, Note_on_c, 5, 63, 0
10, 12420, Note_on_c, 5, 66, 0
10, 12480, Note_on_c, 5, 55, 80
10, 12480, Note_on_c, 5, 62, 80
10, 13440, Note_on_c, 5, 62, 0
10, 13440, Note_on_c, 5, 55, 0
10, 13440, Note_on_c, 5, 58, 80
10, 14160, Note_on_c, 5, 58, 0
10, 14160, Note_on_c, 5, 57, 80
10, 14400, Note_on_c, 5, 57, 0
10, 14400, Note_on_c, 5, 55, 80
10, 14880, Note_on_c, 5, 55, 0
10, 14880, Note_on_c, 5, 54, 80
10, 15120, Note_on_c, 5, 54, 0
10, 15120, Note_on_c, 5, 55, 80
10, 15360, Note_on_c, 5, 55, 0
10, 15360, Note_on_c, 5, 57, 80
10, 15744, Note_on_c, 5, 57, 0
10, 16080, Note_on_c, 5, 62, 110
10, 16176, Note_on_c, 5, 62, 0
10, 16200, Note_on_c, 5, 62, 110
10, 16296, Note_on_c, 5, 62, 0
10, 16320, Note_on_c, 5, 62, 110
10, 16704, Note_on_c, 5, 62, 0
10, 17040, Note_on_c, 5, 62, 110
10, 17136, Note_on_c, 5, 62, 0
10, 17160, Note_on_c, 5, 62, 110
10, 17256, Note_on_c, 5, 62, 0
10, 17280, Note_on_c, 5, 62, 110
10, 17664, Note_on_c, 5, 62, 0
10, 18000, Note_on_c, 5, 62, 110
10, 18096, Note_on_c, 5, 62, 0
10, 18120, Note_on_c, 5, 62, 110
10, 18216, Note_on_c, 5, 62, 0
10, 18240, Note_on_c, 5, 62, 110
10, 18432, Note_on_c, 5, 62, 0
10, 18480, Note_on_c, 5, 62, 105
10, 18576, Note_on_c, 5, 62, 0
10, 18600, Note_on_c, 5, 62, 102
10, 18696, Note_on_c, 5, 62, 0
10, 18720, Note_on_c, 5, 62, 100
10, 18912, Note_on_c, 5, 62, 0
10, 18960, Note_on_c, 5, 62, 95
10, 19056, Note_on_c, 5, 62, 0
10, 19080, Note_on_c, 5, 62, 92
10, 19176, Note_on_c, 5, 62, 0
10, 19200, Note_on_c, 5, 62, 80
10, 19584, Note_on_c, 5, 62, 0
10, 21120, Note_on_c, 5, 55, 80
10, 21120, Note_on_c, 5, 58, 80
10, 21180, Note_on_c, 5, 58, 0
10, 21180, Note_on_c, 5, 55, 0
10, 21240, Note_on_c, 5, 55, 80
10, 21240, Note_on_c, 5, 58, 80
10, 21300, Note_on_c, 5, 58, 0
10, 21300, Note_on_c, 5, 55, 0
10, 21360, Note_on_c, 5, 62, 80
10, 21360, Note_on_c, 5, 67, 80
10, 21420, Note_on_c, 5, 67, 0
10, 21420, Note_on_c, 5, 62, 0
10, 21480, Note_on_c, 5, 62, 80
10, 21480, Note_on_c, 5, 67, 80
10, 21540, Note_on_c, 5, 67, 0
10, 21540, Note_on_c, 5, 62, 0
10, 21600, Note_on_c, 5, 55, 80
10, 21600, Note_on_c, 5, 58, 80
10, 21660, Note_on_c, 5, 58, 0
10, 21660, Note_on_c, 5, 55, 0
10, 21720, Note_on_c, 5, 55, 80
10, 21720, Note_on_c, 5, 58, 80
10, 21780, Note_on_c, 5, 58, 0
10, 21780, Note_on_c, 5, 55, 0
10, 21840, Note_on_c, 5, 62, 80
10, 21840, Note_on_c, 5, 67, 80
10, 21900, Note_on_c, 5, 67, 0
10, 21900, Note_on_c, 5, 62, 0
10, 21960, Note_on_c, 5, 62, 80
10, 21960, Note_on_c, 5, 67, 80
10, 22020, Note_on_c, 5, 67, 0
10, 22020, Note_on_c, 5, 62, 0
10, 22080, Note_on_c, 5, 55, 80
10, 22080, Note_on_c, 5, 58, 80
10, 22140, Note_on_c, 5, 58, 0
10, 22140, Note_on_c, 5, 55, 0
10, 22200, Note_on_c, 5, 55, 80
10, 22200, Note_on_c, 5, 58, 80
10, 22260, Note_on_c, 5, 58, 0
10, 22260, Note_on_c, 5, 55, 0
10, 22320, Note_on_c, 5, 62, 80
10, 22320, Note_on_c, 5, 58, 80
10, 22380, Note_on_c, 5, 58, 0
10, 22380, Note_on_c, 5, 62, 0
10, 22440, Note_on_c, 5, 62, 80
10, 22440, Note_on_c, 5, 58, 80
10, 22500, Note_on_c, 5, 58, 0
10, 22500, Note_on_c, 5, 62, 0
10, 22560, Note_on_c, 5, 55, 80
10, 22560, Note_on_c, 5, 58, 80
10, 22620, Note_on_c, 5, 58, 0
10, 22620, Note_on_c, 5, 55, 0
10, 22680, Note_on_c, 5, 55, 80
10, 22680, Note_on_c, 5, 58, 80
10, 22740, Note_on_c, 5, 58, 0
10, 22740, Note_on_c, 5, 55, 0
10, 22800, Note_on_c, 5, 67, 80
10, 22800, Note_on_c, 5, 58, 80
10, 22860, Note_on_c, 5, 58, 0
10, 22860, Note_on_c, 5, 67, 0
10, 22920, Note_on_c, 5, 67, 80
10, 22920, Note_on_c, 5, 58, 80
10, 22980, Note_on_c, 5, 58, 0
10, 22980, Note_on_c, 5, 67, 0
10, 23040, Note_on_c, 5, 58, 80
10, 23040, Note_on_c, 5, 55, 80
10, 23100, Note_on_c, 5, 55, 0
10, 23100, Note_on_c, 5, 58, 0
10, 23160, Note_on_c, 5, 58, 80
10, 23160, Note_on_c, 5, 55, 80
10, 23220, Note_on_c, 5, 55, 0
10, 23220, Note_on_c, 5, 58, 0
10, 23280, Note_on_c, 5, 67, 80
10, 23280, Note_on_c, 5, 58, 80
10, 23340, Note_on_c, 5, 58, 0
10, 23340, Note_on_c, 5, 67, 0
10, 23400, Note_on_c, 5, 67, 80
10, 23400, Note_on_c, 5, 58, 80
10, 23460, Note_on_c, 5, 58, 0
10, 23460, Note_on_c, 5, 67, 0
10, 23520, Note_on_c, 5, 58, 80
10, 23520, Note_on_c, 5, 55, 80
10, 23580, Note_on_c, 5, 55, 0
10, 23580, Note_on_c, 5, 58, 0
10, 23640, Note_on_c, 5, 58, 80
10, 23640, Note_on_c, 5, 55, 80
10, 23700, Note_on_c, 5, 55, 0
10, 23700, Note_on_c, 5, 58, 0
10, 23760, Note_on_c, 5, 67, 80
10, 23760, Note_on_c, 5, 58, 80
10, 23820, Note_on_c, 5, 58, 0
10, 23820, Note_on_c, 5, 67, 0
10, 23880, Note_on_c, 5, 67, 80
10, 23880, Note_on_c, 5, 58, 80
10, 23940, Note_on_c, 5, 58, 0
10, 23940, Note_on_c, 5, 67, 0
10, 24000, Note_on_c, 5, 55, 80
10, 24000, Note_on_c, 5, 58, 80
10, 24060, Note_on_c, 5, 58, 0
10, 24060, Note_on_c, 5, 55, 0
10, 24120, Note_on_c, 5, 55, 80
10, 24120, Note_on_c, 5, 58, 80
10, 24180, Note_on_c, 5, 58, 0
10, 24180, Note_on_c, 5, 55, 0
10, 24240, Note_on_c, 5, 58, 80
10, 24240, Note_on_c, 5, 67, 80
10, 24300, Note_on_c, 5, 67, 0
10, 24300, Note_on_c, 5, 58, 0
10, 24360, Note_on_c, 5, 58, 80
10, 24360, Note_on_c, 5, 67, 80
10, 24420, Note_on_c, 5, 67, 0
10, 24420, Note_on_c, 5, 58, 0
10, 24480, Note_on_c, 5, 55, 80
10, 24480, Note_on_c, 5, 58, 80
10, 24540, Note_on_c, 5, 58, 0
10, 24540, Note_on_c, 5, 55, 0
10, 24600, Note_on_c, 5, 55, 80
10, 24600, Note_on_c, 5, 58, 80
10, 24660, Note_on_c, 5, 58, 0
10, 24660, Note_on_c, 5, 55, 0
10, 24720, Note_on_c, 5, 58, 80
10, 24720, Note_on_c, 5, 67, 80
10, 24780, Note_on_c, 5, 67, 0
10, 24780, Note_on_c, 5, 58, 0
10, 24840, Note_on_c, 5, 58, 80
10, 24840, Note_on_c, 5, 67, 80
10, 24900, Note_on_c, 5, 67, 0
10, 24900, Note_on_c, 5, 58, 0
10, 24960, Note_on_c, 5, 57, 80
10, 24960, Note_on_c, 5, 60, 80
10, 25020, Note_on_c, 5, 60, 0
10, 25020, Note_on_c, 5, 57, 0
10, 25080, Note_on_c, 5, 57, 80
10, 25080, Note_on_c, 5, 60, 80
10, 25140, Note_on_c, 5, 60, 0
10, 25140, Note_on_c, 5, 57, 0
10, 25200, Note_on_c, 5, 63, 80
10, 25200, Note_on_c, 5, 69, 80
10, 25260, Note_on_c, 5, 69, 0
10, 25260, Note_on_c, 5, 63, 0
10, 25320, Note_on_c, 5, 63, 80
10, 25320, Note_on_c, 5, 69, 80
10, 25380, Note_on_c, 5, 69, 0
10, 25380, Note_on_c, 5, 63, 0
10, 25440, Note_on_c, 5, 57, 80
10, 25440, Note_on_c, 5, 60, 80
10, 25500, Note_on_c, 5, 60, 0
10, 25500, Note_on_c, 5, 57, 0
10, 25560, Note_on_c, 5, 57, 80
10, 25560, Note_on_c, 5, 60, 80
10, 25620, Note_on_c, 5, 60, 0
10, 25620, Note_on_c, 5, 57, 0
10, 25680, Note_on_c, 5, 63, 80
10, 25680, Note_on_c, 5, 69, 80
10, 25740, Note_on_c, 5, 69, 0
10, 25740, Note_on_c, 5, 63, 0
10, 25800, Note_on_c, 5, 63, 80
10, 25800, Note_on_c, 5, 69, 80
10, 25860, Note_on_c, 5, 69, 0
10, 25860, Note_on_c, 5, 63, 0
10, 25920, Note_on_c, 5, 63, 80
10, 25920, Note_on_c, 5, 60, 80
10, 25980, Note_on_c, 5, 60, 0
10, 25980, Note_on_c, 5, 63, 0
10, 26040, Note_on_c, 5, 63, 80
10, 26040, Note_on_c, 5, 60, 80
10, 26100, Note_on_c, 5, 60, 0
10, 26100, Note_on_c, 5, 63, 0
10, 26160, Note_on_c, 5, 72, 80
10, 26160, Note_on_c, 5, 63, 80
10, 26220, Note_on_c, 5, 63, 0
10, 26220, Note_on_c, 5, 72, 0
10, 26280, Note_on_c, 5, 72, 80
10, 26280, Note_on_c, 5, 63, 80
10, 26340, Note_on_c, 5, 63, 0
10, 26340, Note_on_c, 5, 72, 0
10, 26400, Note_on_c, 5, 60, 80
10, 26400, Note_on_c, 5, 57, 80
10, 26460, Note_on_c, 5, 57, 0
10, 26460, Note_on_c, 5, 60, 0
10, 26520, Note_on_c, 5, 60, 80
10, 26520, Note_on_c, 5, 57, 80
10, 26580, Note_on_c, 5, 57, 0
10, 26580, Note_on_c, 5, 60, 0
10, 26640, Note_on_c, 5, 69, 80
10, 26640, Note_on_c, 5, 63, 80
10, 26700, Note_on_c, 5, 63, 0
10, 26700, Note_on_c, 5, 69, 0
10, 26760, Note_on_c, 5, 69, 80
10, 26760, Note_on_c, 5, 63, 80
10, 26820, Note_on_c, 5, 63, 0
10, 26820, Note_on_c, 5, 69, 0
10, 26880, Note_on_c, 5, 62, 110
10, 26880, Note_on_c, 5, 70, 110
10, 26940, Note_on_c, 5, 70, 0
10, 26940, Note_on_c, 5, 62, 0
10, 27000, Note_on_c, 5, 70, 110
10, 27060, Note_on_c, 5, 70, 0
10, 27120, Note_on_c, 5, 74, 110
10, 27180, Note_on_c, 5, 74, 0
10, 27240, Note_on_c, 5, 70, 110
10, 27300, Note_on_c, 5, 70, 0
10, 27360, Note_on_c, 5, 74, 110
10, 27420, Note_on_c, 5, 74, 0
10, 27480, Note_on_c, 5, 70, 110
10, 27540, Note_on_c, 5, 70, 0
10, 27600, Note_on_c, 5, 74, 110
10, 27660, Note_on_c, 5, 74, 0
10, 27720, Note_on_c, 5, 70, 110
10, 27780, Note_on_c, 5, 70, 0
10, 27840, Note_on_c, 5, 72, 110
10, 27900, Note_on_c, 5, 72, 0
10, 27960, Note_on_c, 5, 69, 110
10, 28020, Note_on_c, 5, 69, 0
10, 28080, Note_on_c, 5, 72, 110
10, 28140, Note_on_c, 5, 72, 0
10, 28200, Note_on_c, 5, 69, 110
10, 28260, Note_on_c, 5, 69, 0
10, 28320, Note_on_c, 5, 72, 110
10, 28380, Note_on_c, 5, 72, 0
10, 28440, Note_on_c, 5, 69, 110
10, 28500, Note_on_c, 5, 69, 0
10, 28560, Note_on_c, 5, 72, 110
10, 28620, Note_on_c, 5, 72, 0
10, 28680, Note_on_c, 5, 69, 110
10, 28740, Note_on_c, 5, 69, 0
10, 28800, Note_on_c, 5, 70, 110
10, 28860, Note_on_c, 5, 70, 0
10, 28920, Note_on_c, 5, 67, 110
10, 28980, Note_on_c, 5, 67, 0
10, 29040, Note_on_c, 5, 70, 110
10, 29100, Note_on_c, 5, 70, 0
10, 29160, Note_on_c, 5, 67, 110
10, 29220, Note_on_c, 5, 67, 0
10, 29280, Note_on_c, 5, 70, 110
10, 29340, Note_on_c, 5, 70, 0
10, 29400, Note_on_c, 5, 67, 110
10, 29460, Note_on_c, 5, 67, 0
10, 29520, Note_on_c, 5, 70, 110
10, 29580, Note_on_c, 5, 70, 0
10, 29640, Note_on_c, 5, 67, 110
10, 29700, Note_on_c, 5, 67, 0
10, 29760, Note_on_c, 5, 70, 110
10, 29820, Note_on_c, 5, 70, 0
10, 29880, Note_on_c, 5, 65, 110
10, 29940, Note_on_c, 5, 65, 0
10, 30000, Note_on_c, 5, 70, 110
10, 30060, Note_on_c, 5, 70, 0
10, 30120, Note_on_c, 5, 65, 110
10, 30180, Note_on_c, 5, 65, 0
10, 30240, Note_on_c, 5, 70, 110
10, 30300, Note_on_c, 5, 70, 0
10, 30360, Note_on_c, 5, 65, 110
10, 30420, Note_on_c, 5, 65, 0
10, 30480, Note_on_c, 5, 70, 110
10, 30540, Note_on_c, 5, 70, 0
10, 30600, Note_on_c, 5, 65, 110
10, 30660, Note_on_c, 5, 65, 0
10, 30720, Note_on_c, 5, 67, 110
10, 30780, Note_on_c, 5, 67, 0
10, 30840, Note_on_c, 5, 63, 110
10, 30900, Note_on_c, 5, 63, 0
10, 30960, Note_on_c, 5, 67, 110
10, 31020, Note_on_c, 5, 67, 0
10, 31080, Note_on_c, 5, 63, 110
10, 31140, Note_on_c, 5, 63, 0
10, 31200, Note_on_c, 5, 67, 110
10, 31260, Note_on_c, 5, 67, 0
10, 31320, Note_on_c, 5, 63, 110
10, 31380, Note_on_c, 5, 63, 0
10, 31440, Note_on_c, 5, 67, 110
10, 31500, Note_on_c, 5, 67, 0
10, 31560, Note_on_c, 5, 63, 110
10, 31620, Note_on_c, 5, 63, 0
10, 31680, Note_on_c, 5, 65, 110
10, 31740, Note_on_c, 5, 65, 0
10, 31800, Note_on_c, 5, 62, 110
10, 31860, Note_on_c, 5, 62, 0
10, 31920, Note_on_c, 5, 65, 110
10, 31980, Note_on_c, 5, 65, 0
10, 32040, Note_on_c, 5, 62, 110
10, 32100, Note_on_c, 5, 62, 0
10, 32160, Note_on_c, 5, 65, 110
10, 32220, Note_on_c, 5, 65, 0
10, 32280, Note_on_c, 5, 62, 110
10, 32340, Note_on_c, 5, 62, 0
10, 32400, Note_on_c, 5, 65, 110
10, 32460, Note_on_c, 5, 65, 0
10, 32520, Note_on_c, 5, 62, 110
10, 32580, Note_on_c, 5, 62, 0
10, 32640, Note_on_c, 5, 60, 110
10, 33600, Note_on_c, 5, 60, 0
10, 33600, Note_on_c, 5, 60, 110
10, 33984, Note_on_c, 5, 60, 0
10, 34080, Note_on_c, 5, 61, 110
10, 34464, Note_on_c, 5, 61, 0
10, 34560, Note_on_c, 5, 60, 110
10, 34944, Note_on_c, 5, 60, 0
10, 35040, Note_on_c, 5, 61, 110
10, 35424, Note_on_c, 5, 61, 0
10, 35520, Note_on_c, 5, 60, 110
10, 35904, Note_on_c, 5, 60, 0
10, 36360, Note_on_c, 5, 60, 110
10, 36420, Note_on_c, 5, 60, 0
10, 36480, Note_on_c, 5, 65, 110
10, 36540, Note_on_c, 5, 65, 0
10, 36600, Note_on_c, 5, 65, 110
10, 36660, Note_on_c, 5, 65, 0
10, 36720, Note_on_c, 5, 65, 110
10, 36780, Note_on_c, 5, 65, 0
10, 36840, Note_on_c, 5, 65, 110
10, 36900, Note_on_c, 5, 65, 0
10, 36960, Note_on_c, 5, 69, 110
10, 37020, Note_on_c, 5, 69, 0
10, 37080, Note_on_c, 5, 69, 110
10, 37140, Note_on_c, 5, 69, 0
10, 37200, Note_on_c, 5, 72, 110
10, 37260, Note_on_c, 5, 72, 0
10, 37320, Note_on_c, 5, 72, 110
10, 37380, Note_on_c, 5, 72, 0
10, 37440, Note_on_c, 5, 70, 110
10, 37500, Note_on_c, 5, 70, 0
10, 37560, Note_on_c, 5, 70, 110
10, 37620, Note_on_c, 5, 70, 0
10, 37680, Note_on_c, 5, 70, 110
10, 37740, Note_on_c, 5, 70, 0
10, 37800, Note_on_c, 5, 70, 110
10, 37860, Note_on_c, 5, 70, 0
10, 37920, Note_on_c, 5, 70, 110
10, 37980, Note_on_c, 5, 70, 0
10, 38040, Note_on_c, 5, 70, 110
10, 38100, Note_on_c, 5, 70, 0
10, 38160, Note_on_c, 5, 70, 110
10, 38220, Note_on_c, 5, 70, 0
10, 38280, Note_on_c, 5, 70, 110
10, 38340, Note_on_c, 5, 70, 0
10, 38400, Note_on_c, 5, 69, 110
10, 38460, Note_on_c, 5, 69, 0
10, 38520, Note_on_c, 5, 69, 110
10, 38580, Note_on_c, 5, 69, 0
10, 38640, Note_on_c, 5, 69, 110
10, 38700, Note_on_c, 5, 69, 0
10, 38760, Note_on_c, 5, 69, 110
10, 38820, Note_on_c, 5, 69, 0
10, 38880, Note_on_c, 5, 69, 110
10, 38940, Note_on_c, 5, 69, 0
10, 39000, Note_on_c, 5, 72, 110
10, 39060, Note_on_c, 5, 72, 0
10, 39120, Note_on_c, 5, 69, 110
10, 39180, Note_on_c, 5, 69, 0
10, 39240, Note_on_c, 5, 72, 110
10, 39300, Note_on_c, 5, 72, 0
10, 39360, Note_on_c, 5, 70, 110
10, 39420, Note_on_c, 5, 70, 0
10, 39480, Note_on_c, 5, 70, 110
10, 39540, Note_on_c, 5, 70, 0
10, 39600, Note_on_c, 5, 70, 110
10, 39660, Note_on_c, 5, 70, 0
10, 39720, Note_on_c, 5, 70, 110
10, 39780, Note_on_c, 5, 70, 0
10, 39840, Note_on_c, 5, 67, 110
10, 39900, Note_on_c, 5, 67, 0
10, 39960, Note_on_c, 5, 64, 110
10, 40020, Note_on_c, 5, 64, 0
10, 40080, Note_on_c, 5, 67, 110
10, 40140, Note_on_c, 5, 67, 0
10, 40200, Note_on_c, 5, 64, 110
10, 40260, Note_on_c, 5, 64, 0
10, 40320, Note_on_c, 5, 65, 110
10, 40560, Note_on_c, 5, 65, 0
10, 40800, Note_on_c, 5, 53, 77
10, 41040, Note_on_c, 5, 53, 0
10, 42240, Note_on_c, 5, 62, 80
10, 42960, Note_on_c, 5, 62, 0
10, 42960, Note_on_c, 5, 60, 80
10, 43200, Note_on_c, 5, 60, 0
10, 43200, Note_on_c, 5, 57, 80
10, 43560, Note_on_c, 5, 57, 0
10, 44400, Note_on_c, 5, 62, 80
10, 44544, Note_on_c, 5, 62, 0
10, 44640, Note_on_c, 5, 62, 80
10, 44880, Note_on_c, 5, 62, 0
10, 44880, Note_on_c, 5, 67, 80
10, 45120, Note_on_c, 5, 67, 0
10, 45120, Note_on_c, 5, 65, 80
10, 45504, Note_on_c, 5, 65, 0
10, 46080, Note_on_c, 5, 55, 80
10, 46800, Note_on_c, 5, 55, 0
10, 46800, Note_on_c, 5, 57, 80
10, 47040, Note_on_c, 5, 57, 0
10, 47040, Note_on_c, 5, 59, 80
10, 47280, Note_on_c, 5, 59, 0
10, 47280, Note_on_c, 5, 60, 80
10, 47520, Note_on_c, 5, 60, 0
10, 47520, Note_on_c, 5, 57, 80
10, 47760, Note_on_c, 5, 57, 0
10, 47760, Note_on_c, 5, 58, 80
10, 48000, Note_on_c, 5, 58, 0
10, 48000, Note_on_c, 5, 55, 80
10, 48240, Note_on_c, 5, 55, 0
10, 48480, Note_on_c, 5, 48, 80
10, 48720, Note_on_c, 5, 48, 0
10, 48960, Note_on_c, 5, 50, 80
10, 49320, Note_on_c, 5, 50, 0
10, 53760, Note_on_c, 5, 55, 80
10, 54480, Note_on_c, 5, 55, 0
10, 54480, Note_on_c, 5, 57, 80
10, 54720, Note_on_c, 5, 57, 0
10, 54720, Note_on_c, 5, 55, 80
10, 55200, Note_on_c, 5, 55, 0
10, 55200, Note_on_c, 5, 53, 80
10, 55680, Note_on_c, 5, 53, 0
10, 55680, Note_on_c, 5, 58, 64
10, 55800, Note_on_c, 5, 58, 0
10, 55800, Note_on_c, 5, 55, 64
10, 55920, Note_on_c, 5, 55, 0
10, 55920, Note_on_c, 5, 58, 64
10, 56040, Note_on_c, 5, 58, 0
10, 56040, Note_on_c, 5, 55, 64
10, 56160, Note_on_c, 5, 55, 0
10, 56160, Note_on_c, 5, 58, 64
10, 56280, Note_on_c, 5, 58, 0
10, 56280, Note_on_c, 5, 55, 64
10, 56400, Note_on_c, 5, 55, 0
10, 56400, Note_on_c, 5, 56, 64
10, 56520, Note_on_c, 5, 56, 0
10, 56520, Note_on_c, 5, 60, 64
10, 56640, Note_on_c, 5, 60, 0
10, 56640, Note_on_c, 5, 58, 64
10, 56760, Note_on_c, 5, 58, 0
10, 56760, Note_on_c, 5, 55, 64
10, 56880, Note_on_c, 5, 55, 0
10, 56880, Note_on_c, 5, 58, 64
10, 57000, Note_on_c, 5, 58, 0
10, 57000, Note_on_c, 5, 55, 64
10, 57120, Note_on_c, 5, 55, 0
10, 57120, Note_on_c, 5, 58, 64
10, 57240, Note_on_c, 5, 58, 0
10, 57240, Note_on_c, 5, 55, 64
10, 57360, Note_on_c, 5, 55, 0
10, 57360, Note_on_c, 5, 56, 64
10, 57480, Note_on_c, 5, 56, 0
10, 57480, Note_on_c, 5, 60, 64
10, 57600, Note_on_c, 5, 60, 0
10, 57600, Note_on_c, 5, 58, 64
10, 57720, Note_on_c, 5, 58, 0
10, 57720, Note_on_c, 5, 55, 64
10, 57840, Note_on_c, 5, 55, 0
10, 57840, Note_on_c, 5, 58, 64
10, 57960, Note_on_c, 5, 58, 0
10, 57960, Note_on_c, 5, 55, 64
10, 58080, Note_on_c, 5, 55, 0
10, 58080, Note_on_c, 5, 58, 64
10, 58200, Note_on_c, 5, 58, 0
10, 58200, Note_on_c, 5, 55, 64
10, 58320, Note_on_c, 5, 55, 0
10, 58320, Note_on_c, 5, 56, 64
10, 58440, Note_on_c, 5, 56, 0
10, 58440, Note_on_c, 5, 60, 64
10, 58560, Note_on_c, 5, 60, 0
10, 58560, Note_on_c, 5, 58, 64
10, 58680, Note_on_c, 5, 58, 0
10, 58680, Note_on_c, 5, 55, 64
10, 58800, Note_on_c, 5, 55, 0
10, 58800, Note_on_c, 5, 58, 64
10, 58920, Note_on_c, 5, 58, 0
10, 58920, Note_on_c, 5, 55, 64
10, 59040, Note_on_c, 5, 55, 0
10, 59040, Note_on_c, 5, 58, 64
10, 59160, Note_on_c, 5, 58, 0
10, 59160, Note_on_c, 5, 55, 64
10, 59280, Note_on_c, 5, 55, 0
10, 59280, Note_on_c, 5, 56, 64
10, 59400, Note_on_c, 5, 56, 0
10, 59400, Note_on_c, 5, 60, 64
10, 59520, Note_on_c, 5, 60, 0
10, 59520, Note_on_c, 5, 55, 75
10, 59616, Note_on_c, 5, 55, 0
10, 59640, Note_on_c, 5, 55, 78
10, 59736, Note_on_c, 5, 55, 0
10, 59760, Note_on_c, 5, 55, 81
10, 59856, Note_on_c, 5, 55, 0
10, 59880, Note_on_c, 5, 55, 84
10, 59976, Note_on_c, 5, 55, 0
10, 60000, Note_on_c, 5, 55, 88
10, 60096, Note_on_c, 5, 55, 0
10, 60120, Note_on_c, 5, 55, 91
10, 60216, Note_on_c, 5, 55, 0
10, 60240, Note_on_c, 5, 55, 94
10, 60336, Note_on_c, 5, 55, 0
10, 60360, Note_on_c, 5, 55, 97
10, 60456, Note_on_c, 5, 55, 0
10, 60480, Note_on_c, 5, 55, 100
10, 60576, Note_on_c, 5, 55, 0
10, 60600, Note_on_c, 5, 67, 101
10, 60696, Note_on_c, 5, 67, 0
10, 60720, Note_on_c, 5, 67, 103
10, 60816, Note_on_c, 5, 67, 0
10, 60840, Note_on_c, 5, 67, 104
10, 60936, Note_on_c, 5, 67, 0
10, 60960, Note_on_c, 5, 67, 105
10, 61056, Note_on_c, 5, 67, 0
10, 61080, Note_on_c, 5, 67, 106
10, 61176, Note_on_c, 5, 67, 0
10, 61200, Note_on_c, 5, 67, 108
10, 61296, Note_on_c, 5, 67, 0
10, 61320, Note_on_c, 5, 67, 109
10, 61416, Note_on_c, 5, 67, 0
10, 61440, Note_on_c, 5, 65, 110
10, 61536, Note_on_c, 5, 65, 0
10, 61560, Note_on_c, 5, 65, 110
10, 61656, Note_on_c, 5, 65, 0
10, 61680, Note_on_c, 5, 65, 110
10, 61776, Note_on_c, 5, 65, 0
10, 61800, Note_on_c, 5, 65, 110
10, 61896, Note_on_c, 5, 65, 0
10, 61920, Note_on_c, 5, 65, 110
10, 62016, Note_on_c, 5, 65, 0
10, 62040, Note_on_c, 5, 65, 110
10, 62136, Note_on_c, 5, 65, 0
10, 62160, Note_on_c, 5, 65, 110
10, 62256, Note_on_c, 5, 65, 0
10, 62280, Note_on_c, 5, 65, 110
10, 62376, Note_on_c, 5, 65, 0
10, 62400, Note_on_c, 5, 53, 110
10, 62496, Note_on_c, 5, 53, 0
10, 62520, Note_on_c, 5, 53, 110
10, 62616, Note_on_c, 5, 53, 0
10, 62640, Note_on_c, 5, 53, 110
10, 62736, Note_on_c, 5, 53, 0
10, 62760, Note_on_c, 5, 53, 110
10, 62856, Note_on_c, 5, 53, 0
10, 62880, Note_on_c, 5, 53, 110
10, 62976, Note_on_c, 5, 53, 0
10, 63000, Note_on_c, 5, 53, 110
10, 63096, Note_on_c, 5, 53, 0
10, 63120, Note_on_c, 5, 53, 110
10, 63216, Note_on_c, 5, 53, 0
10, 63240, Note_on_c, 5, 53, 110
10, 63336, Note_on_c, 5, 53, 0
10, 63360, Note_on_c, 5, 58, 110
10, 63552, Note_on_c, 5, 58, 0
10, 63600, Note_on_c, 5, 50, 110
10, 64080, Note_on_c, 5, 50, 0
10, 64080, Note_on_c, 5, 51, 110
10, 64224, Note_on_c, 5, 51, 0
10, 64320, Note_on_c, 5, 52, 110
10, 64464, Note_on_c, 5, 52, 0
10, 64560, Note_on_c, 5, 53, 110
10, 64704, Note_on_c, 5, 53, 0
10, 64800, Note_on_c, 5, 54, 110
10, 64944, Note_on_c, 5, 54, 0
10, 65040, Note_on_c, 5, 55, 110
10, 65184, Note_on_c, 5, 55, 0
10, 65280, Note_on_c, 5, 56, 110
10, 65472, Note_on_c, 5, 56, 0
10, 65700, Note_on_c, 5, 56, 127
10, 65748, Note_on_c, 5, 56, 0
10, 65760, Note_on_c, 5, 55, 110
10, 65952, Note_on_c, 5, 55, 0
10, 66180, Note_on_c, 5, 55, 127
10, 66228, Note_on_c, 5, 55, 0
10, 66240, Note_on_c, 5, 63, 110
10, 66432, Note_on_c, 5, 63, 0
10, 66660, Note_on_c, 5, 63, 127
10, 66708, Note_on_c, 5, 63, 0
10, 66720, Note_on_c, 5, 62, 110
10, 66912, Note_on_c, 5, 62, 0
10, 67140, Note_on_c, 5, 62, 127
10, 67188, Note_on_c, 5, 62, 0
10, 67200, Note_on_c, 5, 51, 110
10, 67392, Note_on_c, 5, 51, 0
10, 68160, Note_on_c, 5, 53, 80
10, 68352, Note_on_c, 5, 53, 0
10, 70560, Note_on_c, 5, 51, 56
10, 71520, Note_on_c, 5, 51, 0
10, 71520, Note_on_c, 5, 50, 56
10, 71760, Note_on_c, 5, 50, 0
10, 72480, Note_on_c, 5, 51, 56
10, 73440, Note_on_c, 5, 51, 0
10, 73440, Note_on_c, 5, 50, 56
10, 73680, Note_on_c, 5, 50, 0
10, 73920, Note_on_c, 5, 62, 110
10, 74010, Note_on_c, 5, 62, 0
10, 74040, Note_on_c, 5, 62, 110
10, 74130, Note_on_c, 5, 62, 0
10, 74160, Note_on_c, 5, 62, 110
10, 74250, Note_on_c, 5, 62, 0
10, 74280, Note_on_c, 5, 62, 110
10, 74370, Note_on_c, 5, 62, 0
10, 74400, Note_on_c, 5, 62, 110
10, 74490, Note_on_c, 5, 62, 0
10, 74520, Note_on_c, 5, 62, 110
10, 74610, Note_on_c, 5, 62, 0
10, 74640, Note_on_c, 5, 62, 110
10, 74730, Note_on_c, 5, 62, 0
10, 74760, Note_on_c, 5, 62, 110
10, 74850, Note_on_c, 5, 62, 0
10, 74880, Note_on_c, 5, 67, 110
10, 74970, Note_on_c, 5, 67, 0
10, 75000, Note_on_c, 5, 67, 110
10, 75090, Note_on_c, 5, 67, 0
10, 75120, Note_on_c, 5, 67, 110
10, 75210, Note_on_c, 5, 67, 0
10, 75240, Note_on_c, 5, 67, 110
10, 75330, Note_on_c, 5, 67, 0
10, 75360, Note_on_c, 5, 63, 110
10, 75450, Note_on_c, 5, 63, 0
10, 75480, Note_on_c, 5, 63, 110
10, 75570, Note_on_c, 5, 63, 0
10, 75600, Note_on_c, 5, 63, 110
10, 75690, Note_on_c, 5, 63, 0
10, 75720, Note_on_c, 5, 63, 110
10, 75810, Note_on_c, 5, 63, 0
10, 75840, Note_on_c, 5, 65, 110
10, 75930, Note_on_c, 5, 65, 0
10, 75960, Note_on_c, 5, 65, 110
10, 76050, Note_on_c, 5, 65, 0
10, 76080, Note_on_c, 5, 65, 110
10, 76170, Note_on_c, 5, 65, 0
10, 76200, Note_on_c, 5, 65, 110
10, 76290, Note_on_c, 5, 65, 0
10, 76320, Note_on_c, 5, 53, 110
10, 76410, Note_on_c, 5, 53, 0
10, 76440, Note_on_c, 5, 53, 110
10, 76530, Note_on_c, 5, 53, 0
10, 76560, Note_on_c, 5, 53, 110
10, 76650, Note_on_c, 5, 53, 0
10, 76680, Note_on_c, 5, 53, 110
10, 76770, Note_on_c, 5, 53, 0
10, 76800, Note_on_c, 5, 58, 110
10, 76980, Note_on_c, 5, 58, 0
10, 77280, Note_on_c, 5, 70, 56
10, 78240, Note_on_c, 5, 70, 0
10, 78240, Note_on_c, 5, 69, 56
10, 78480, Note_on_c, 5, 69, 0
10, 79200, Note_on_c, 5, 58, 56
10, 80160, Note_on_c, 5, 58, 0
10, 80160, Note_on_c, 5, 57, 56
10, 80400, Note_on_c, 5, 57, 0
10, 81600, Note_on_c, 5, 62, 110
10, 81690, Note_on_c, 5, 62, 0
10, 81720, Note_on_c, 5, 62, 110
10, 81810, Note_on_c, 5, 62, 0
10, 81840, Note_on_c, 5, 62, 110
10, 81930, Note_on_c, 5, 62, 0
10, 81960, Note_on_c, 5, 62, 110
10, 82050, Note_on_c, 5, 62, 0
10, 82080, Note_on_c, 5, 62, 110
10, 82170, Note_on_c, 5, 62, 0
10, 82200, Note_on_c, 5, 62, 110
10, 82290, Note_on_c, 5, 62, 0
10, 82320, Note_on_c, 5, 62, 110
10, 82410, Note_on_c, 5, 62, 0
10, 82440, Note_on_c, 5, 62, 110
10, 82530, Note_on_c, 5, 62, 0
10, 82560, Note_on_c, 5, 67, 110
10, 82650, Note_on_c, 5, 67, 0
10, 82680, Note_on_c, 5, 67, 110
10, 82770, Note_on_c, 5, 67, 0
10, 82800, Note_on_c, 5, 67, 110
10, 82890, Note_on_c, 5, 67, 0
10, 82920, Note_on_c, 5, 67, 110
10, 83010, Note_on_c, 5, 67, 0
10, 83040, Note_on_c, 5, 63, 110
10, 83130, Note_on_c, 5, 63, 0
10, 83160, Note_on_c, 5, 63, 110
10, 83250, Note_on_c, 5, 63, 0
10, 83280, Note_on_c, 5, 63, 110
10, 83370, Note_on_c, 5, 63, 0
10, 83400, Note_on_c, 5, 63, 110
10, 83490, Note_on_c, 5, 63, 0
10, 83520, Note_on_c, 5, 65, 110
10, 83610, Note_on_c, 5, 65, 0
10, 83640, Note_on_c, 5, 65, 110
10, 83730, Note_on_c, 5, 65, 0
10, 83760, Note_on_c, 5, 65, 110
10, 83850, Note_on_c, 5, 65, 0
10, 83880, Note_on_c, 5, 65, 110
10, 83970, Note_on_c, 5, 65, 0
10, 84000, Note_on_c, 5, 53, 110
10, 84090, Note_on_c, 5, 53, 0
10, 84120, Note_on_c, 5, 53, 110
10, 84210, Note_on_c, 5, 53, 0
10, 84240, Note_on_c, 5, 53, 110
10, 84330, Note_on_c, 5, 53, 0
10, 84360, Note_on_c, 5, 53, 110
10, 84450, Note_on_c, 5, 53, 0
10, 84480, Note_on_c, 5, 58, 110
10, 84864, Note_on_c, 5, 58, 0
10, 85320, Note_on_c, 5, 77, 110
10, 85416, Note_on_c, 5, 77, 0
10, 85440, Note_on_c, 5, 75, 110
10, 85512, Note_on_c, 5, 75, 0
10, 85560, Note_on_c, 5, 74, 110
10, 85632, Note_on_c, 5, 74, 0
10, 85680, Note_on_c, 5, 72, 110
10, 85752, Note_on_c, 5, 72, 0
10, 85800, Note_on_c, 5, 70, 110
10, 85872, Note_on_c, 5, 70, 0
10, 85920, Note_on_c, 5, 69, 110
10, 85992, Note_on_c, 5, 69, 0
10, 86040, Note_on_c, 5, 67, 110
10, 86112, Note_on_c, 5, 67, 0
10, 86160, Note_on_c, 5, 65, 110
10, 86232, Note_on_c, 5, 65, 0
10, 86280, Note_on_c, 5, 63, 110
10, 86352, Note_on_c, 5, 63, 0
10, 86400, Note_on_c, 5, 62, 110
10, 86544, Note_on_c, 5, 62, 0
10, 86640, Note_on_c, 5, 62, 110
10, 86784, Note_on_c, 5, 62, 0
10, 86880, Note_on_c, 5, 63, 110
10, 87024, Note_on_c, 5, 63, 0
10, 87120, Note_on_c, 5, 65, 110
10, 87264, Note_on_c, 5, 65, 0
10, 87360, Note_on_c, 5, 70, 110
10, 87432, Note_on_c, 5, 70, 0
10, 87480, Note_on_c, 5, 65, 110
10, 87552, Note_on_c, 5, 65, 0
10, 87600, Note_on_c, 5, 74, 110
10, 87672, Note_on_c, 5, 74, 0
10, 87720, Note_on_c, 5, 72, 110
10, 87792, Note_on_c, 5, 72, 0
10, 87840, Note_on_c, 5, 70, 110
10, 87912, Note_on_c, 5, 70, 0
10, 87960, Note_on_c, 5, 69, 110
10, 88032, Note_on_c, 5, 69, 0
10, 88080, Note_on_c, 5, 67, 110
10, 88152, Note_on_c, 5, 67, 0
10, 88200, Note_on_c, 5, 65, 110
10, 88272, Note_on_c, 5, 65, 0
10, 88320, Note_on_c, 5, 63, 110
10, 88392, Note_on_c, 5, 63, 0
10, 88440, Note_on_c, 5, 62, 110
10, 88512, Note_on_c, 5, 62, 0
10, 88560, Note_on_c, 5, 60, 110
10, 88632, Note_on_c, 5, 60, 0
10, 88680, Note_on_c, 5, 58, 110
10, 88752, Note_on_c, 5, 58, 0
10, 88800, Note_on_c, 5, 57, 110
10, 88872, Note_on_c, 5, 57, 0
10, 88920, Note_on_c, 5, 60, 110
10, 88992, Note_on_c, 5, 60, 0
10, 89040, Note_on_c, 5, 65, 110
10, 89112, Note_on_c, 5, 65, 0
10, 89160, Note_on_c, 5, 63, 110
10, 89232, Note_on_c, 5, 63, 0
10, 89280, Note_on_c, 5, 62, 110
10, 89424, Note_on_c, 5, 62, 0
10, 89520, Note_on_c, 5, 62, 110
10, 89664, Note_on_c, 5, 62, 0
10, 89760, Note_on_c, 5, 63, 110
10, 89904, Note_on_c, 5, 63, 0
10, 90000, Note_on_c, 5, 65, 110
10, 90144, Note_on_c, 5, 65, 0
10, 90240, Note_on_c, 5, 67, 110
10, 90384, Note_on_c, 5, 67, 0
10, 90480, Note_on_c, 5, 63, 110
10, 90624, Note_on_c, 5, 63, 0
10, 90720, Note_on_c, 5, 65, 110
10, 90864, Note_on_c, 5, 65, 0
10, 90960, Note_on_c, 5, 53, 110
10, 91104, Note_on_c, 5, 53, 0
10, 91200, Note_on_c, 5, 58, 110
10, 91392, Note_on_c, 5, 58, 0
10, 91680, Note_on_c, 5, 65, 110
10, 91872, Note_on_c, 5, 65, 0
10, 92160, Note_on_c, 5, 70, 110
10, 92352, Note_on_c, 5, 70, 0
10, 92640, Note_on_c, 5, 65, 110
10, 92832, Note_on_c, 5, 65, 0
10, 93120, Note_on_c, 5, 70, 110
10, 93312, Note_on_c, 5, 70, 0
10, 93600, Note_on_c, 5, 65, 110
10, 93792, Note_on_c, 5, 65, 0
10, 94080, Note_on_c, 5, 70, 110
10, 94272, Note_on_c, 5, 70, 0
10, 94320, Note_on_c, 5, 65, 110
10, 94512, Note_on_c, 5, 65, 0
10, 94560, Note_on_c, 5, 70, 110
10, 94752, Note_on_c, 5, 70, 0
10, 94800, Note_on_c, 5, 65, 110
10, 94992, Note_on_c, 5, 65, 0
10, 95040, Note_on_c, 5, 70, 110
10, 95400, Note_on_c, 5, 70, 0
10, 96000, Note_on_c, 5, 69, 110
10, 96360, Note_on_c, 5, 69, 0
10, 96960, Note_on_c, 5, 58, 80
10, 96960, Note_on_c, 5, 55, 80
10, 97020, Note_on_c, 5, 55, 0
10, 97020, Note_on_c, 5, 58, 0
10, 97080, Note_on_c, 5, 58, 80
10, 97080, Note_on_c, 5, 55, 80
10, 97140, Note_on_c, 5, 55, 0
10, 97140, Note_on_c, 5, 58, 0
10, 97200, Note_on_c, 5, 67, 80
10, 97200, Note_on_c, 5, 58, 80
10, 97260, Note_on_c, 5, 58, 0
10, 97260, Note_on_c, 5, 67, 0
10, 97320, Note_on_c, 5, 67, 80
10, 97320, Note_on_c, 5, 58, 80
10, 97380, Note_on_c, 5, 58, 0
10, 97380, Note_on_c, 5, 67, 0
10, 97440, Note_on_c, 5, 58, 80
10, 97440, Note_on_c, 5, 55, 80
10, 97500, Note_on_c, 5, 55, 0
10, 97500, Note_on_c, 5, 58, 0
10, 97560, Note_on_c, 5, 58, 80
10, 97560, Note_on_c, 5, 55, 80
10, 97620, Note_on_c, 5, 55, 0
10, 97620, Note_on_c, 5, 58, 0
10, 97680, Note_on_c, 5, 67, 80
10, 97680, Note_on_c, 5, 58, 80
10, 97740, Note_on_c, 5, 58, 0
10, 97740, Note_on_c, 5, 67, 0
10, 97800, Note_on_c, 5, 67, 80
10, 97800, Note_on_c, 5, 58, 80
10, 97860, Note_on_c, 5, 58, 0
10, 97860, Note_on_c, 5, 67, 0
10, 97920, Note_on_c, 5, 55, 80
10, 97920, Note_on_c, 5, 58, 80
10, 97980, Note_on_c, 5, 58, 0
10, 97980, Note_on_c, 5, 55, 0
10, 98040, Note_on_c, 5, 55, 80
10, 98040, Note_on_c, 5, 58, 80
10, 98100, Note_on_c, 5, 58, 0
10, 98100, Note_on_c, 5, 55, 0
10, 98160, Note_on_c, 5, 58, 80
10, 98160, Note_on_c, 5, 67, 80
10, 98220, Note_on_c, 5, 67, 0
10, 98220, Note_on_c, 5, 58, 0
10, 98280, Note_on_c, 5, 58, 80
10, 98280, Note_on_c, 5, 67, 80
10, 98340, Note_on_c, 5, 67, 0
10, 98340, Note_on_c, 5, 58, 0
10, 98400, Note_on_c, 5, 55, 80
10, 98400, Note_on_c, 5, 58, 80
10, 98460, Note_on_c, 5, 58, 0
10, 98460, Note_on_c, 5, 55, 0
10, 98520, Note_on_c, 5, 55, 80
10, 98520, Note_on_c, 5, 58, 80
10, 98580, Note_on_c, 5, 58, 0
10, 98580, Note_on_c, 5, 55, 0
10, 98640, Note_on_c, 5, 58, 80
10, 98640, Note_on_c, 5, 67, 80
10, 98700, Note_on_c, 5, 67, 0
10, 98700, Note_on_c, 5, 58, 0
10, 98760, Note_on_c, 5, 58, 80
10, 98760, Note_on_c, 5, 67, 80
10, 98820, Note_on_c, 5, 67, 0
10, 98820, Note_on_c, 5, 58, 0
10, 98880, Note_on_c, 5, 55, 80
10, 98880, Note_on_c, 5, 58, 80
10, 98940, Note_on_c, 5, 58, 0
10, 98940, Note_on_c, 5, 55, 0
10, 99000, Note_on_c, 5, 55, 80
10, 99000, Note_on_c, 5, 58, 80
10, 99060, Note_on_c, 5, 58, 0
10, 99060, Note_on_c, 5, 55, 0
10, 99120, Note_on_c, 5, 62, 80
10, 99120, Note_on_c, 5, 67, 80
10, 99180, Note_on_c, 5, 67, 0
10, 99180, Note_on_c, 5, 62, 0
10, 99240, Note_on_c, 5, 62, 80
10, 99240, Note_on_c, 5, 67, 80
10, 99300, Note_on_c, 5, 67, 0
10, 99300, Note_on_c, 5, 62, 0
10, 99360, Note_on_c, 5, 55, 80
10, 99360, Note_on_c, 5, 58, 80
10, 99420, Note_on_c, 5, 58, 0
10, 99420, Note_on_c, 5, 55, 0
10, 99480, Note_on_c, 5, 55, 80
10, 99480, Note_on_c, 5, 58, 80
10, 99540, Note_on_c, 5, 58, 0
10, 99540, Note_on_c, 5, 55, 0
10, 99600, Note_on_c, 5, 62, 80
10, 99600, Note_on_c, 5, 67, 80
10, 99660, Note_on_c, 5, 67, 0
10, 99660, Note_on_c, 5, 62, 0
10, 99720, Note_on_c, 5, 62, 80
10, 99720, Note_on_c, 5, 67, 80
10, 99780, Note_on_c, 5, 67, 0
10, 99780, Note_on_c, 5, 62, 0
10, 99840, Note_on_c, 5, 55, 80
10, 99840, Note_on_c, 5, 58, 80
10, 99900, Note_on_c, 5, 58, 0
10, 99900, Note_on_c, 5, 55, 0
10, 99960, Note_on_c, 5, 55, 80
10, 99960, Note_on_c, 5, 58, 80
10, 100020, Note_on_c, 5, 58, 0
10, 100020, Note_on_c, 5, 55, 0
10, 100080, Note_on_c, 5, 58, 80
10, 100080, Note_on_c, 5, 62, 80
10, 100140, Note_on_c, 5, 62, 0
10, 100140, Note_on_c, 5, 58, 0
10, 100200, Note_on_c, 5, 58, 80
10, 100200, Note_on_c, 5, 62, 80
10, 100260, Note_on_c, 5, 62, 0
10, 100260, Note_on_c, 5, 58, 0
10, 100320, Note_on_c, 5, 55, 80
10, 100320, Note_on_c, 5, 58, 80
10, 100380, Note_on_c, 5, 58, 0
10, 100380, Note_on_c, 5, 55, 0
10, 100440, Note_on_c, 5, 55, 80
10, 100440, Note_on_c, 5, 58, 80
10, 100500, Note_on_c, 5, 58, 0
10, 100500, Note_on_c, 5, 55, 0
10, 100560, Note_on_c, 5, 58, 80
10, 100560, Note_on_c, 5, 67, 80
10, 100620, Note_on_c, 5, 67, 0
10, 100620, Note_on_c, 5, 58, 0
10, 100680, Note_on_c, 5, 58, 80
10, 100680, Note_on_c, 5, 67, 80
10, 100740, Note_on_c, 5, 67, 0
10, 100740, Note_on_c, 5, 58, 0
10, 100800, Note_on_c, 5, 63, 80
10, 100800, Note_on_c, 5, 57, 80
10, 100860, Note_on_c, 5, 57, 0
10, 100860, Note_on_c, 5, 63, 0
10, 100920, Note_on_c, 5, 63, 80
10, 100920, Note_on_c, 5, 57, 80
10, 100980, Note_on_c, 5, 57, 0
10, 100980, Note_on_c, 5, 63, 0
10, 101040, Note_on_c, 5, 69, 80
10, 101040, Note_on_c, 5, 63, 80
10, 101100, Note_on_c, 5, 63, 0
10, 101100, Note_on_c, 5, 69, 0
10, 101160, Note_on_c, 5, 69, 80
10, 101160, Note_on_c, 5, 63, 80
10, 101220, Note_on_c, 5, 63, 0
10, 101220, Note_on_c, 5, 69, 0
10, 101280, Note_on_c, 5, 63, 80
10, 101280, Note_on_c, 5, 57, 80
10, 101340, Note_on_c, 5, 57, 0
10, 101340, Note_on_c, 5, 63, 0
10, 101400, Note_on_c, 5, 63, 80
10, 101400, Note_on_c, 5, 57, 80
10, 101460, Note_on_c, 5, 57, 0
10, 101460, Note_on_c, 5, 63, 0
10, 101520, Note_on_c, 5, 69, 80
10, 101520, Note_on_c, 5, 63, 80
10, 101580, Note_on_c, 5, 63, 0
10, 101580, Note_on_c, 5, 69, 0
10, 101640, Note_on_c, 5, 69, 80
10, 101640, Note_on_c, 5, 63, 80
10, 101700, Note_on_c, 5, 63, 0
10, 101700, Note_on_c, 5, 69, 0
10, 101760, Note_on_c, 5, 57, 80
10, 101760, Note_on_c, 5, 63, 80
10, 101820, Note_on_c, 5, 63, 0
10, 101820, Note_on_c, 5, 57, 0
10, 101880, Note_on_c, 5, 57, 80
10, 101880, Note_on_c, 5, 63, 80
10, 101940, Note_on_c, 5, 63, 0
10, 101940, Note_on_c, 5, 57, 0
10, 102000, Note_on_c, 5, 63, 80
10, 102000, Note_on_c, 5, 69, 80
10, 102060, Note_on_c, 5, 69, 0
10, 102060, Note_on_c, 5, 63, 0
10, 102120, Note_on_c, 5, 63, 80
10, 102120, Note_on_c, 5, 69, 80
10, 102180, Note_on_c, 5, 69, 0
10, 102180, Note_on_c, 5, 63, 0
10, 102240, Note_on_c, 5, 57, 80
10, 102240, Note_on_c, 5, 63, 80
10, 102300, Note_on_c, 5, 63, 0
10, 102300, Note_on_c, 5, 57, 0
10, 102360, Note_on_c, 5, 57, 80
10, 102360, Note_on_c, 5, 63, 80
10, 102420, Note_on_c, 5, 63, 0
10, 102420, Note_on_c, 5, 57, 0
10, 102480, Note_on_c, 5, 63, 80
10, 102480, Note_on_c, 5, 69, 80
10, 102540, Note_on_c, 5, 69, 0
10, 102540, Note_on_c, 5, 63, 0
10, 102600, Note_on_c, 5, 63, 80
10, 102600, Note_on_c, 5, 69, 80
10, 102660, Note_on_c, 5, 69, 0
10, 102660, Note_on_c, 5, 63, 0
10, 102720, Note_on_c, 5, 57, 80
10, 102720, Note_on_c, 5, 62, 80
10, 102780, Note_on_c, 5, 62, 0
10, 102780, Note_on_c, 5, 57, 0
10, 102840, Note_on_c, 5, 57, 80
10, 102840, Note_on_c, 5, 62, 80
10, 102900, Note_on_c, 5, 62, 0
10, 102900, Note_on_c, 5, 57, 0
10, 102960, Note_on_c, 5, 62, 80
10, 102960, Note_on_c, 5, 72, 80
10, 103020, Note_on_c, 5, 72, 0
10, 103020, Note_on_c, 5, 62, 0
10, 103080, Note_on_c, 5, 62, 80
10, 103080, Note_on_c, 5, 72, 80
10, 103140, Note_on_c, 5, 72, 0
10, 103140, Note_on_c, 5, 62, 0
10, 103200, Note_on_c, 5, 57, 80
10, 103200, Note_on_c, 5, 62, 80
10, 103260, Note_on_c, 5, 62, 0
10, 103260, Note_on_c, 5, 57, 0
10, 103320, Note_on_c, 5, 57, 80
10, 103320, Note_on_c, 5, 62, 80
10, 103380, Note_on_c, 5, 62, 0
10, 103380, Note_on_c, 5, 57, 0
10, 103440, Note_on_c, 5, 62, 80
10, 103440, Note_on_c, 5, 72, 80
10, 103500, Note_on_c, 5, 72, 0
10, 103500, Note_on_c, 5, 62, 0
10, 103560, Note_on_c, 5, 62, 80
10, 103560, Note_on_c, 5, 72, 80
10, 103620, Note_on_c, 5, 72, 0
10, 103620, Note_on_c, 5, 62, 0
10, 103680, Note_on_c, 5, 57, 80
10, 103680, Note_on_c, 5, 60, 80
10, 103740, Note_on_c, 5, 60, 0
10, 103740, Note_on_c, 5, 57, 0
10, 103800, Note_on_c, 5, 57, 80
10, 103800, Note_on_c, 5, 60, 80
10, 103860, Note_on_c, 5, 60, 0
10, 103860, Note_on_c, 5, 57, 0
10, 103920, Note_on_c, 5, 60, 80
10, 103920, Note_on_c, 5, 69, 80
10, 103980, Note_on_c, 5, 69, 0
10, 103980, Note_on_c, 5, 60, 0
10, 104040, Note_on_c, 5, 60, 80
10, 104040, Note_on_c, 5, 69, 80
10, 104100, Note_on_c, 5, 69, 0
10, 104100, Note_on_c, 5, 60, 0
10, 104160, Note_on_c, 5, 57, 80
10, 104160, Note_on_c, 5, 66, 80
10, 104220, Note_on_c, 5, 66, 0
10, 104220, Note_on_c, 5, 57, 0
10, 104280, Note_on_c, 5, 57, 80
10, 104280, Note_on_c, 5, 66, 80
10, 104340, Note_on_c, 5, 66, 0
10, 104340, Note_on_c, 5, 57, 0
10, 104400, Note_on_c, 5, 66, 80
10, 104400, Note_on_c, 5, 69, 80
10, 104460, Note_on_c, 5, 69, 0
10, 104460, Note_on_c, 5, 66, 0
10, 104520, Note_on_c, 5, 66, 80
10, 104520, Note_on_c, 5, 69, 80
10, 104580, Note_on_c, 5, 69, 0
10, 104580, Note_on_c, 5, 66, 0
10, 104640, Note_on_c, 5, 55, 80
10, 104640, Note_on_c, 5, 62, 80
10, 104700, Note_on_c, 5, 62, 0
10, 104700, Note_on_c, 5, 55, 0
10, 104760, Note_on_c, 5, 55, 80
10, 104760, Note_on_c, 5, 62, 80
10, 104820, Note_on_c, 5, 62, 0
10, 104820, Note_on_c, 5, 55, 0
10, 104880, Note_on_c, 5, 62, 80
10, 104880, Note_on_c, 5, 67, 80
10, 104940, Note_on_c, 5, 67, 0
10, 104940, Note_on_c, 5, 62, 0
10, 105000, Note_on_c, 5, 62, 80
10, 105000, Note_on_c, 5, 67, 80
10, 105060, Note_on_c, 5, 67, 0
10, 105060, Note_on_c, 5, 62, 0
10, 105120, Note_on_c, 5, 55, 80
10, 105120, Note_on_c, 5, 62, 80
10, 105180, Note_on_c, 5, 62, 0
10, 105180, Note_on_c, 5, 55, 0
10, 105240, Note_on_c, 5, 55, 80
10, 105240, Note_on_c, 5, 62, 80
10, 105300, Note_on_c, 5, 62, 0
10, 105300, Note_on_c, 5, 55, 0
10, 105360, Note_on_c, 5, 62, 80
10, 105360, Note_on_c, 5, 67, 80
10, 105420, Note_on_c, 5, 67, 0
10, 105420, Note_on_c, 5, 62, 0
10, 105480, Note_on_c, 5, 62, 80
10, 105480, Note_on_c, 5, 67, 80
10, 105540, Note_on_c, 5, 67, 0
10, 105540, Note_on_c, 5, 62, 0
10, 105600, Note_on_c, 5, 63, 80
10, 105600, Note_on_c, 5, 57, 80
10, 105660, Note_on_c, 5, 57, 0
10, 105660, Note_on_c, 5, 63, 0
10, 105720, Note_on_c, 5, 63, 80
10, 105720, Note_on_c, 5, 57, 80
10, 105780, Note_on_c, 5, 57, 0
10, 105780, Note_on_c, 5, 63, 0
10, 105840, Note_on_c, 5, 66, 80
10, 105840, Note_on_c, 5, 63, 80
10, 105900, Note_on_c, 5, 63, 0
10, 105900, Note_on_c, 5, 66, 0
10, 105960, Note_on_c, 5, 66, 80
10, 105960, Note_on_c, 5, 63, 80
10, 106020, Note_on_c, 5, 63, 0
10, 106020, Note_on_c, 5, 66, 0
10, 106080, Note_on_c, 5, 63, 80
10, 106080, Note_on_c, 5, 57, 80
10, 106140, Note_on_c, 5, 57, 0
10, 106140, Note_on_c, 5, 63, 0
10, 106200, Note_on_c, 5, 63, 80
10, 106200, Note_on_c, 5, 57, 80
10, 106260, Note_on_c, 5, 57, 0
10, 106260, Note_on_c, 5, 63, 0
10, 106320, Note_on_c, 5, 66, 80
10, 106320, Note_on_c, 5, 63, 80
10, 106380, Note_on_c, 5, 63, 0
10, 106380, Note_on_c, 5, 66, 0
10, 106440, Note_on_c, 5, 66, 80
10, 106440, Note_on_c, 5, 63, 80
10, 106500, Note_on_c, 5, 63, 0
10, 106500, Note_on_c, 5, 66, 0
10, 106560, Note_on_c, 5, 62, 80
10, 106560, Note_on_c, 5, 55, 80
10, 106620, Note_on_c, 5, 55, 0
10, 106620, Note_on_c, 5, 62, 0
10, 106680, Note_on_c, 5, 62, 80
10, 106680, Note_on_c, 5, 55, 80
10, 106740, Note_on_c, 5, 55, 0
10, 106740, Note_on_c, 5, 62, 0
10, 106800, Note_on_c, 5, 67, 80
10, 106800, Note_on_c, 5, 62, 80
10, 106860, Note_on_c, 5, 62, 0
10, 106860, Note_on_c, 5, 67, 0
10, 106920, Note_on_c, 5, 67, 80
10, 106920, Note_on_c, 5, 62, 80
10, 106980, Note_on_c, 5, 62, 0
10, 106980, Note_on_c, 5, 67, 0
10, 107040, Note_on_c, 5, 62, 80
10, 107040, Note_on_c, 5, 55, 80
10, 107100, Note_on_c, 5, 55, 0
10, 107100, Note_on_c, 5, 62, 0
10, 107160, Note_on_c, 5, 62, 80
10, 107160, Note_on_c, 5, 55, 80
10, 107220, Note_on_c, 5, 55, 0
10, 107220, Note_on_c, 5, 62, 0
10, 107280, Note_on_c, 5, 67, 80
10, 107280, Note_on_c, 5, 62, 80
10, 107340, Note_on_c, 5, 62, 0
10, 107340, Note_on_c, 5, 67, 0
10, 107400, Note_on_c, 5, 67, 80
10, 107400, Note_on_c, 5, 62, 80
10, 107460, Note_on_c, 5, 62, 0
10, 107460, Note_on_c, 5, 67, 0
10, 107520, Note_on_c, 5, 57, 80
10, 107520, Note_on_c, 5, 63, 80
10, 107580, Note_on_c, 5, 63, 0
10, 107580, Note_on_c, 5, 57, 0
10, 107640, Note_on_c, 5, 57, 80
10, 107640, Note_on_c, 5, 63, 80
10, 107700, Note_on_c, 5, 63, 0
10, 107700, Note_on_c, 5, 57, 0
10, 107760, Note_on_c, 5, 63, 80
10, 107760, Note_on_c, 5, 66, 80
10, 107820, Note_on_c, 5, 66, 0
10, 107820, Note_on_c, 5, 63, 0
10, 107880, Note_on_c, 5, 63, 80
10, 107880, Note_on_c, 5, 66, 80
10, 107940, Note_on_c, 5, 66, 0
10, 107940, Note_on_c, 5, 63, 0
10, 108000, Note_on_c, 5, 57, 80
10, 108000, Note_on_c, 5, 63, 80
10, 108060, Note_on_c, 5, 63, 0
10, 108060, Note_on_c, 5, 57, 0
10, 108120, Note_on_c, 5, 57, 80
10, 108120, Note_on_c, 5, 63, 80
10, 108180, Note_on_c, 5, 63, 0
10, 108180, Note_on_c, 5, 57, 0
10, 108240, Note_on_c, 5, 63, 80
10, 108240, Note_on_c, 5, 66, 80
10, 108300, Note_on_c, 5, 66, 0
10, 108300, Note_on_c, 5, 63, 0
10, 108360, Note_on_c, 5, 63, 80
10, 108360, Note_on_c, 5, 66, 80
10, 108420, Note_on_c, 5, 66, 0
10, 108420, Note_on_c, 5, 63, 0
10, 108480, Note_on_c, 5, 62, 80
10, 108480, Note_on_c, 5, 55, 80
10, 109440, Note_on_c, 5, 55, 0
10, 109440, Note_on_c, 5, 62, 0
10, 109440, Note_on_c, 5, 58, 80
10, 110160, Note_on_c, 5, 58, 0
10, 110160, Note_on_c, 5, 57, 80
10, 110400, Note_on_c, 5, 57, 0
10, 110400, Note_on_c, 5, 55, 80
10, 110880, Note_on_c, 5, 55, 0
10, 110880, Note_on_c, 5, 54, 80
10, 111120, Note_on_c, 5, 54, 0
10, 111120, Note_on_c, 5, 55, 80
10, 111360, Note_on_c, 5, 55, 0
10, 111360, Note_on_c, 5, 57, 80
10, 111744, Note_on_c, 5, 57, 0
10, 112080, Note_on_c, 5, 62, 110
10, 112176, Note_on_c, 5, 62, 0
10, 112200, Note_on_c, 5, 62, 110
10, 112296, Note_on_c, 5, 62, 0
10, 112320, Note_on_c, 5, 62, 110
10, 112704, Note_on_c, 5, 62, 0
10, 113040, Note_on_c, 5, 62, 110
10, 113136, Note_on_c, 5, 62, 0
10, 113160, Note_on_c, 5, 62, 110
10, 113256, Note_on_c, 5, 62, 0
10, 113280, Note_on_c, 5, 62, 110
10, 113664, Note_on_c, 5, 62, 0
10, 114000, Note_on_c, 5, 62, 110
10, 114096, Note_on_c, 5, 62, 0
10, 114120, Note_on_c, 5, 62, 110
10, 114216, Note_on_c, 5, 62, 0
10, 114240, Note_on_c, 5, 62, 110
10, 114432, Note_on_c, 5, 62, 0
10, 114480, Note_on_c, 5, 62, 105
10, 114576, Note_on_c, 5, 62, 0
10, 114600, Note_on_c, 5, 62, 102
10, 114696, Note_on_c, 5, 62, 0
10, 114720, Note_on_c, 5, 62, 100
10, 114912, Note_on_c, 5, 62, 0
10, 114960, Note_on_c, 5, 62, 95
10, 115056, Note_on_c, 5, 62, 0
10, 115080, Note_on_c, 5, 62, 92
10, 115176, Note_on_c, 5, 62, 0
10, 115200, Note_on_c, 5, 62, 80
10, 115584, Note_on_c, 5, 62, 0
10, 117120, Note_on_c, 5, 58, 80
10, 117120, Note_on_c, 5, 55, 80
10, 117180, Note_on_c, 5, 55, 0
10, 117180, Note_on_c, 5, 58, 0
10, 117240, Note_on_c, 5, 58, 80
10, 117240, Note_on_c, 5, 55, 80
10, 117300, Note_on_c, 5, 55, 0
10, 117300, Note_on_c, 5, 58, 0
10, 117360, Note_on_c, 5, 67, 80
10, 117360, Note_on_c, 5, 62, 80
10, 117420, Note_on_c, 5, 62, 0
10, 117420, Note_on_c, 5, 67, 0
10, 117480, Note_on_c, 5, 67, 80
10, 117480, Note_on_c, 5, 62, 80
10, 117540, Note_on_c, 5, 62, 0
10, 117540, Note_on_c, 5, 67, 0
10, 117600, Note_on_c, 5, 58, 80
10, 117600, Note_on_c, 5, 55, 80
10, 117660, Note_on_c, 5, 55, 0
10, 117660, Note_on_c, 5, 58, 0
10, 117720, Note_on_c, 5, 58, 80
10, 117720, Note_on_c, 5, 55, 80
10, 117780, Note_on_c, 5, 55, 0
10, 117780, Note_on_c, 5, 58, 0
10, 117840, Note_on_c, 5, 67, 80
10, 117840, Note_on_c, 5, 62, 80
10, 117900, Note_on_c, 5, 62, 0
10, 117900, Note_on_c, 5, 67, 0
10, 117960, Note_on_c, 5, 67, 80
10, 117960, Note_on_c, 5, 62, 80
10, 118020, Note_on_c, 5, 62, 0
10, 118020, Note_on_c, 5, 67, 0
10, 118080, Note_on_c, 5, 58, 80
10, 118080, Note_on_c, 5, 55, 80
10, 118140, Note_on_c, 5, 55, 0
10, 118140, Note_on_c, 5, 58, 0
10, 118200, Note_on_c, 5, 58, 80
10, 118200, Note_on_c, 5, 55, 80
10, 118260, Note_on_c, 5, 55, 0
10, 118260, Note_on_c, 5, 58, 0
10, 118320, Note_on_c, 5, 58, 80
10, 118320, Note_on_c, 5, 62, 80
10, 118380, Note_on_c, 5, 62, 0
10, 118380, Note_on_c, 5, 58, 0
10, 118440, Note_on_c, 5, 58, 80
10, 118440, Note_on_c, 5, 62, 80
10, 118500, Note_on_c, 5, 62, 0
10, 118500, Note_on_c, 5, 58, 0
10, 118560, Note_on_c, 5, 58, 80
10, 118560, Note_on_c, 5, 55, 80
10, 118620, Note_on_c, 5, 55, 0
10, 118620, Note_on_c, 5, 58, 0
10, 118680, Note_on_c, 5, 58, 80
10, 118680, Note_on_c, 5, 55, 80
10, 118740, Note_on_c, 5, 55, 0
10, 118740, Note_on_c, 5, 58, 0
10, 118800, Note_on_c, 5, 58, 80
10, 118800, Note_on_c, 5, 67, 80
10, 118860, Note_on_c, 5, 67, 0
10, 118860, Note_on_c, 5, 58, 0
10, 118920, Note_on_c, 5, 58, 80
10, 118920, Note_on_c, 5, 67, 80
10, 118980, Note_on_c, 5, 67, 0
10, 118980, Note_on_c, 5, 58, 0
10, 119040, Note_on_c, 5, 55, 80
10, 119040, Note_on_c, 5, 58, 80
10, 119100, Note_on_c, 5, 58, 0
10, 119100, Note_on_c, 5, 55, 0
10, 119160, Note_on_c, 5, 55, 80
10, 119160, Note_on_c, 5, 58, 80
10, 119220, Note_on_c, 5, 58, 0
10, 119220, Note_on_c, 5, 55, 0
10, 119280, Note_on_c, 5, 58, 80
10, 119280, Note_on_c, 5, 67, 80
10, 119340, Note_on_c, 5, 67, 0
10, 119340, Note_on_c, 5, 58, 0
10, 119400, Note_on_c, 5, 58, 80
10, 119400, Note_on_c, 5, 67, 80
10, 119460, Note_on_c, 5, 67, 0
10, 119460, Note_on_c, 5, 58, 0
10, 119520, Note_on_c, 5, 55, 80
10, 119520, Note_on_c, 5, 58, 80
10, 119580, Note_on_c, 5, 58, 0
10, 119580, Note_on_c, 5, 55, 0
10, 119640, Note_on_c, 5, 55, 80
10, 119640, Note_on_c, 5, 58, 80
10, 119700, Note_on_c, 5, 58, 0
10, 119700, Note_on_c, 5, 55, 0
10, 119760, Note_on_c, 5, 58, 80
10, 119760, Note_on_c, 5, 67, 80
10, 119820, Note_on_c, 5, 67, 0
10, 119820, Note_on_c, 5, 58, 0
10, 119880, Note_on_c, 5, 58, 80
10, 119880, Note_on_c, 5, 67, 80
10, 119940, Note_on_c, 5, 67, 0
10, 119940, Note_on_c, 5, 58, 0
10, 120000, Note_on_c, 5, 58, 80
10, 120000, Note_on_c, 5, 55, 80
10, 120060, Note_on_c, 5, 55, 0
10, 120060, Note_on_c, 5, 58, 0
10, 120120, Note_on_c, 5, 58, 80
10, 120120, Note_on_c, 5, 55, 80
10, 120180, Note_on_c, 5, 55, 0
10, 120180, Note_on_c, 5, 58, 0
10, 120240, Note_on_c, 5, 67, 80
10, 120240, Note_on_c, 5, 58, 80
10, 120300, Note_on_c, 5, 58, 0
10, 120300, Note_on_c, 5, 67, 0
10, 120360, Note_on_c, 5, 67, 80
10, 120360, Note_on_c, 5, 58, 80
10, 120420, Note_on_c, 5, 58, 0
10, 120420, Note_on_c, 5, 67, 0
10, 120480, Note_on_c, 5, 58, 80
10, 120480, Note_on_c, 5, 55, 80
10, 120540, Note_on_c, 5, 55, 0
10, 120540, Note_on_c, 5, 58, 0
10, 120600, Note_on_c, 5, 58, 80
10, 120600, Note_on_c, 5, 55, 80
10, 120660, Note_on_c, 5, 55, 0
10, 120660, Note_on_c, 5, 58, 0
10, 120720, Note_on_c, 5, 67, 80
10, 120720, Note_on_c, 5, 58, 80
10, 120780, Note_on_c, 5, 58, 0
10, 120780, Note_on_c, 5, 67, 0
10, 120840, Note_on_c, 5, 67, 80
10, 120840, Note_on_c, 5, 58, 80
10, 120900, Note_on_c, 5, 58, 0
10, 120900, Note_on_c, 5, 67, 0
10, 120960, Note_on_c, 5, 60, 80
10, 120960, Note_on_c, 5, 57, 80
10, 121020, Note_on_c, 5, 57, 0
10, 121020, Note_on_c, 5, 60, 0
10, 121080, Note_on_c, 5, 60, 80
10, 121080, Note_on_c, 5, 57, 80
10, 121140, Note_on_c, 5, 57, 0
10, 121140, Note_on_c, 5, 60, 0
10, 121200, Note_on_c, 5, 69, 80
10, 121200, Note_on_c, 5, 63, 80
10, 121260, Note_on_c, 5, 63, 0
10, 121260, Note_on_c, 5, 69, 0
10, 121320, Note_on_c, 5, 69, 80
10, 121320, Note_on_c, 5, 63, 80
10, 121380, Note_on_c, 5, 63, 0
10, 121380, Note_on_c, 5, 69, 0
10, 121440, Note_on_c, 5, 60, 80
10, 121440, Note_on_c, 5, 57, 80
10, 121500, Note_on_c, 5, 57, 0
10, 121500, Note_on_c, 5, 60, 0
10, 121560, Note_on_c, 5, 60, 80
10, 121560, Note_on_c, 5, 57, 80
10, 121620, Note_on_c, 5, 57, 0
10, 121620, Note_on_c, 5, 60, 0
10, 121680, Note_on_c, 5, 69, 80
10, 121680, Note_on_c, 5, 63, 80
10, 121740, Note_on_c, 5, 63, 0
10, 121740, Note_on_c, 5, 69, 0
10, 121800, Note_on_c, 5, 69, 80
10, 121800, Note_on_c, 5, 63, 80
10, 121860, Note_on_c, 5, 63, 0
10, 121860, Note_on_c, 5, 69, 0
10, 121920, Note_on_c, 5, 60, 80
10, 121920, Note_on_c, 5, 63, 80
10, 121980, Note_on_c, 5, 63, 0
10, 121980, Note_on_c, 5, 60, 0
10, 122040, Note_on_c, 5, 60, 80
10, 122040, Note_on_c, 5, 63, 80
10, 122100, Note_on_c, 5, 63, 0
10, 122100, Note_on_c, 5, 60, 0
10, 122160, Note_on_c, 5, 63, 80
10, 122160, Note_on_c, 5, 72, 80
10, 122220, Note_on_c, 5, 72, 0
10, 122220, Note_on_c, 5, 63, 0
10, 122280, Note_on_c, 5, 63, 80
10, 122280, Note_on_c, 5, 72, 80
10, 122340, Note_on_c, 5, 72, 0
10, 122340, Note_on_c, 5, 63, 0
10, 122400, Note_on_c, 5, 57, 80
10, 122400, Note_on_c, 5, 60, 80
10, 122460, Note_on_c, 5, 60, 0
10, 122460, Note_on_c, 5, 57, 0
10, 122520, Note_on_c, 5, 57, 80
10, 122520, Note_on_c, 5, 60, 80
10, 122580, Note_on_c, 5, 60, 0
10, 122580, Note_on_c, 5, 57, 0
10, 122640, Note_on_c, 5, 63, 80
10, 122640, Note_on_c, 5, 69, 80
10, 122700, Note_on_c, 5, 69, 0
10, 122700, Note_on_c, 5, 63, 0
10, 122760, Note_on_c, 5, 63, 80
10, 122760, Note_on_c, 5, 69, 80
10, 122820, Note_on_c, 5, 69, 0
10, 122820, Note_on_c, 5, 63, 0
10, 122880, Note_on_c, 5, 70, 110
10, 122880, Note_on_c, 5, 62, 110
10, 122940, Note_on_c, 5, 62, 0
10, 122940, Note_on_c, 5, 70, 0
10, 123000, Note_on_c, 5, 70, 110
10, 123060, Note_on_c, 5, 70, 0
10, 123120, Note_on_c, 5, 74, 110
10, 123180, Note_on_c, 5, 74, 0
10, 123240, Note_on_c, 5, 70, 110
10, 123300, Note_on_c, 5, 70, 0
10, 123360, Note_on_c, 5, 74, 110
10, 123420, Note_on_c, 5, 74, 0
10, 123480, Note_on_c, 5, 70, 110
10, 123540, Note_on_c, 5, 70, 0
10, 123600, Note_on_c, 5, 74, 110
10, 123660, Note_on_c, 5, 74, 0
10, 123720, Note_on_c, 5, 70, 110
10, 123780, Note_on_c, 5, 70, 0
10, 123840, Note_on_c, 5, 72, 110
10, 123900, Note_on_c, 5, 72, 0
10, 123960, Note_on_c, 5, 69, 110
10, 124020, Note_on_c, 5, 69, 0
10, 124080, Note_on_c, 5, 72, 110
10, 124140, Note_on_c, 5, 72, 0
10, 124200, Note_on_c, 5, 69, 110
10, 124260, Note_on_c, 5, 69, 0
10, 124320, Note_on_c, 5, 72, 110
10, 124380, Note_on_c, 5, 72, 0
10, 124440, Note_on_c, 5, 69, 110
10, 124500, Note_on_c, 5, 69, 0
10, 124560, Note_on_c, 5, 72, 110
10, 124620, Note_on_c, 5, 72, 0
10, 124680, Note_on_c, 5, 69, 110
10, 124740, Note_on_c, 5, 69, 0
10, 124800, Note_on_c, 5, 70, 110
10, 124860, Note_on_c, 5, 70, 0
10, 124920, Note_on_c, 5, 67, 110
10, 124980, Note_on_c, 5, 67, 0
10, 125040, Note_on_c, 5, 70, 110
10, 125100, Note_on_c, 5, 70, 0
10, 125160, Note_on_c, 5, 67, 110
10, 125220, Note_on_c, 5, 67, 0
10, 125280, Note_on_c, 5, 70, 110
10, 125340, Note_on_c, 5, 70, 0
10, 125400, Note_on_c, 5, 67, 110
10, 125460, Note_on_c, 5, 67, 0
10, 125520, Note_on_c, 5, 70, 110
10, 125580, Note_on_c, 5, 70, 0
10, 125640, Note_on_c, 5, 67, 110
10, 125700, Note_on_c, 5, 67, 0
10, 125760, Note_on_c, 5, 70, 110
10, 125820, Note_on_c, 5, 70, 0
10, 125880, Note_on_c, 5, 65, 110
10, 125940, Note_on_c, 5, 65, 0
10, 126000, Note_on_c, 5, 70, 110
10, 126060, Note_on_c, 5, 70, 0
10, 126120, Note_on_c, 5, 65, 110
10, 126180, Note_on_c, 5, 65, 0
10, 126240, Note_on_c, 5, 70, 110
10, 126300, Note_on_c, 5, 70, 0
10, 126360, Note_on_c, 5, 65, 110
10, 126420, Note_on_c, 5, 65, 0
10, 126480, Note_on_c, 5, 70, 110
10, 126540, Note_on_c, 5, 70, 0
10, 126600, Note_on_c, 5, 65, 110
10, 126660, Note_on_c, 5, 65, 0
10, 126720, Note_on_c, 5, 67, 110
10, 126780, Note_on_c, 5, 67, 0
10, 126840, Note_on_c, 5, 63, 110
10, 126900, Note_on_c, 5, 63, 0
10, 126960, Note_on_c, 5, 67, 110
10, 127020, Note_on_c, 5, 67, 0
10, 127080, Note_on_c, 5, 63, 110
10, 127140, Note_on_c, 5, 63, 0
10, 127200, Note_on_c, 5, 67, 110
10, 127260, Note_on_c, 5, 67, 0
10, 127320, Note_on_c, 5, 63, 110
10, 127380, Note_on_c, 5, 63, 0
10, 127440, Note_on_c, 5, 67, 110
10, 127500, Note_on_c, 5, 67, 0
10, 127560, Note_on_c, 5, 63, 110
10, 127620, Note_on_c, 5, 63, 0
10, 127680, Note_on_c, 5, 65, 110
10, 127740, Note_on_c, 5, 65, 0
10, 127800, Note_on_c, 5, 62, 110
10, 127860, Note_on_c, 5, 62, 0
10, 127920, Note_on_c, 5, 65, 110
10, 127980, Note_on_c, 5, 65, 0
10, 128040, Note_on_c, 5, 62, 110
10, 128100, Note_on_c, 5, 62, 0
10, 128160, Note_on_c, 5, 65, 110
10, 128220, Note_on_c, 5, 65, 0
10, 128280, Note_on_c, 5, 62, 110
10, 128340, Note_on_c, 5, 62, 0
10, 128400, Note_on_c, 5, 65, 110
10, 128460, Note_on_c, 5, 65, 0
10, 128520, Note_on_c, 5, 62, 110
10, 128580, Note_on_c, 5, 62, 0
10, 128640, Note_on_c, 5, 60, 110
10, 129600, Note_on_c, 5, 60, 0
10, 129600, Note_on_c, 5, 60, 110
10, 129984, Note_on_c, 5, 60, 0
10, 130080, Note_on_c, 5, 61, 110
10, 130464, Note_on_c, 5, 61, 0
10, 130560, Note_on_c, 5, 60, 110
10, 130944, Note_on_c, 5, 60, 0
10, 131040, Note_on_c, 5, 61, 110
10, 131424, Note_on_c, 5, 61, 0
10, 131520, Note_on_c, 5, 60, 110
10, 131904, Note_on_c, 5, 60, 0
10, 132360, Note_on_c, 5, 60, 110
10, 132420, Note_on_c, 5, 60, 0
10, 132480, Note_on_c, 5, 65, 110
10, 132540, Note_on_c, 5, 65, 0
10, 132600, Note_on_c, 5, 65, 110
10, 132660, Note_on_c, 5, 65, 0
10, 132720, Note_on_c, 5, 65, 110
10, 132780, Note_on_c, 5, 65, 0
10, 132840, Note_on_c, 5, 65, 110
10, 132900, Note_on_c, 5, 65, 0
10, 132960, Note_on_c, 5, 69, 110
10, 133020, Note_on_c, 5, 69, 0
10, 133080, Note_on_c, 5, 69, 110
10, 133140, Note_on_c, 5, 69, 0
10, 133200, Note_on_c, 5, 72, 110
10, 133260, Note_on_c, 5, 72, 0
10, 133320, Note_on_c, 5, 72, 110
10, 133380, Note_on_c, 5, 72, 0
10, 133440, Note_on_c, 5, 70, 110
10, 133500, Note_on_c, 5, 70, 0
10, 133560, Note_on_c, 5, 70, 110
10, 133620, Note_on_c, 5, 70, 0
10, 133680, Note_on_c, 5, 70, 110
10, 133740, Note_on_c, 5, 70, 0
10, 133800, Note_on_c, 5, 70, 110
10, 133860, Note_on_c, 5, 70, 0
10, 133920, Note_on_c, 5, 70, 110
10, 133980, Note_on_c, 5, 70, 0
10, 134040, Note_on_c, 5, 70, 110
10, 134100, Note_on_c, 5, 70, 0
10, 134160, Note_on_c, 5, 70, 110
10, 134220, Note_on_c, 5, 70, 0
10, 134280, Note_on_c, 5, 70, 110
10, 134340, Note_on_c, 5, 70, 0
10, 134400, Note_on_c, 5, 69, 110
10, 134460, Note_on_c, 5, 69, 0
10, 134520, Note_on_c, 5, 69, 110
10, 134580, Note_on_c, 5, 69, 0
10, 134640, Note_on_c, 5, 69, 110
10, 134700, Note_on_c, 5, 69, 0
10, 134760, Note_on_c, 5, 69, 110
10, 134820, Note_on_c, 5, 69, 0
10, 134880, Note_on_c, 5, 69, 110
10, 134940, Note_on_c, 5, 69, 0
10, 135000, Note_on_c, 5, 72, 110
10, 135060, Note_on_c, 5, 72, 0
10, 135120, Note_on_c, 5, 69, 110
10, 135180, Note_on_c, 5, 69, 0
10, 135240, Note_on_c, 5, 72, 110
10, 135300, Note_on_c, 5, 72, 0
10, 135360, Note_on_c, 5, 70, 110
10, 135420, Note_on_c, 5, 70, 0
10, 135480, Note_on_c, 5, 70, 110
10, 135540, Note_on_c, 5, 70, 0
10, 135600, Note_on_c, 5, 70, 110
10, 135660, Note_on_c, 5, 70, 0
10, 135720, Note_on_c, 5, 70, 110
10, 135780, Note_on_c, 5, 70, 0
10, 135840, Note_on_c, 5, 67, 110
10, 135900, Note_on_c, 5, 67, 0
10, 135960, Note_on_c, 5, 64, 110
10, 136020, Note_on_c, 5, 64, 0
10, 136080, Note_on_c, 5, 67, 110
10, 136140, Note_on_c, 5, 67, 0
10, 136200, Note_on_c, 5, 64, 110
10, 136260, Note_on_c, 5, 64, 0
10, 136320, Note_on_c, 5, 65, 110
10, 136560, Note_on_c, 5, 65, 0
10, 136800, Note_on_c, 5, 53, 77
10, 137040, Note_on_c, 5, 53, 0
10, 138240, Note_on_c, 5, 62, 80
10, 138960, Note_on_c, 5, 62, 0
10, 138960, Note_on_c, 5, 60, 80
10, 139200, Note_on_c, 5, 60, 0
10, 139200, Note_on_c, 5, 57, 80
10, 139560, Note_on_c, 5, 57, 0
10, 140400, Note_on_c, 5, 62, 80
10, 140544, Note_on_c, 5, 62, 0
10, 140640, Note_on_c, 5, 62, 80
10, 140880, Note_on_c, 5, 62, 0
10, 140880, Note_on_c, 5, 67, 80
10, 141120, Note_on_c, 5, 67, 0
10, 141120, Note_on_c, 5, 65, 80
10, 141504, Note_on_c, 5, 65, 0
10, 142080, Note_on_c, 5, 55, 80
10, 142800, Note_on_c, 5, 55, 0
10, 142800, Note_on_c, 5, 57, 80
10, 143040, Note_on_c, 5, 57, 0
10, 143040, Note_on_c, 5, 59, 80
10, 143280, Note_on_c, 5, 59, 0
10, 143280, Note_on_c, 5, 60, 80
10, 143520, Note_on_c, 5, 60, 0
10, 143520, Note_on_c, 5, 57, 80
10, 143760, Note_on_c, 5, 57, 0
10, 143760, Note_on_c, 5, 58, 80
10, 144000, Note_on_c, 5, 58, 0
10, 144000, Note_on_c, 5, 55, 80
10, 144240, Note_on_c, 5, 55, 0
10, 144480, Note_on_c, 5, 48, 80
10, 144720, Note_on_c, 5, 48, 0
10, 144960, Note_on_c, 5, 50, 80
10, 145320, Note_on_c, 5, 50, 0
10, 149760, Note_on_c, 5, 55, 80
10, 150480, Note_on_c, 5, 55, 0
10, 150480, Note_on_c, 5, 57, 80
10, 150720, Note_on_c, 5, 57, 0
10, 150720, Note_on_c, 5, 55, 80
10, 151200, Note_on_c, 5, 55, 0
10, 151200, Note_on_c, 5, 53, 80
10, 151680, Note_on_c, 5, 53, 0
10, 151680, Note_on_c, 5, 58, 64
10, 151800, Note_on_c, 5, 58, 0
10, 151800, Note_on_c, 5, 55, 64
10, 151920, Note_on_c, 5, 55, 0
10, 151920, Note_on_c, 5, 58, 64
10, 152040, Note_on_c, 5, 58, 0
10, 152040, Note_on_c, 5, 55, 64
10, 152160, Note_on_c, 5, 55, 0
10, 152160, Note_on_c, 5, 58, 64
10, 152280, Note_on_c, 5, 58, 0
10, 152280, Note_on_c, 5, 55, 64
10, 152400, Note_on_c, 5, 55, 0
10, 152400, Note_on_c, 5, 56, 64
10, 152520, Note_on_c, 5, 56, 0
10, 152520, Note_on_c, 5, 60, 64
10, 152640, Note_on_c, 5, 60, 0
10, 152640, Note_on_c, 5, 58, 64
10, 152760, Note_on_c, 5, 58, 0
10, 152760, Note_on_c, 5, 55, 64
10, 152880, Note_on_c, 5, 55, 0
10, 152880, Note_on_c, 5, 58, 64
10, 153000, Note_on_c, 5, 58, 0
10, 153000, Note_on_c, 5, 55, 64
10, 153120, Note_on_c, 5, 55, 0
10, 153120, Note_on_c, 5, 58, 64
10, 153240, Note_on_c, 5, 58, 0
10, 153240, Note_on_c, 5, 55, 64
10, 153360, Note_on_c, 5, 55, 0
10, 153360, Note_on_c, 5, 56, 64
10, 153480, Note_on_c, 5, 56, 0
10, 153480, Note_on_c, 5, 60, 64
10, 153600, Note_on_c, 5, 60, 0
10, 153600, Note_on_c, 5, 58, 64
10, 153720, Note_on_c, 5, 58, 0
10, 153720, Note_on_c, 5, 55, 64
10, 153840, Note_on_c, 5, 55, 0
10, 153840, Note_on_c, 5, 58, 64
10, 153960, Note_on_c, 5, 58, 0
10, 153960, Note_on_c, 5, 55, 64
10, 154080, Note_on_c, 5, 55, 0
10, 154080, Note_on_c, 5, 58, 64
10, 154200, Note_on_c, 5, 58, 0
10, 154200, Note_on_c, 5, 55, 64
10, 154320, Note_on_c, 5, 55, 0
10, 154320, Note_on_c, 5, 56, 64
10, 154440, Note_on_c, 5, 56, 0
10, 154440, Note_on_c, 5, 60, 64
10, 154560, Note_on_c, 5, 60, 0
10, 154560, Note_on_c, 5, 58, 64
10, 154680, Note_on_c, 5, 58, 0
10, 154680, Note_on_c, 5, 55, 64
10, 154800, Note_on_c, 5, 55, 0
10, 154800, Note_on_c, 5, 58, 64
10, 154920, Note_on_c, 5, 58, 0
10, 154920, Note_on_c, 5, 55, 64
10, 155040, Note_on_c, 5, 55, 0
10, 155040, Note_on_c, 5, 58, 64
10, 155160, Note_on_c, 5, 58, 0
10, 155160, Note_on_c, 5, 55, 64
10, 155280, Note_on_c, 5, 55, 0
10, 155280, Note_on_c, 5, 56, 64
10, 155400, Note_on_c, 5, 56, 0
10, 155400, Note_on_c, 5, 60, 64
10, 155520, Note_on_c, 5, 60, 0
10, 155520, Note_on_c, 5, 55, 75
10, 155616, Note_on_c, 5, 55, 0
10, 155640, Note_on_c, 5, 55, 78
10, 155736, Note_on_c, 5, 55, 0
10, 155760, Note_on_c, 5, 55, 81
10, 155856, Note_on_c, 5, 55, 0
10, 155880, Note_on_c, 5, 55, 84
10, 155976, Note_on_c, 5, 55, 0
10, 156000, Note_on_c, 5, 55, 88
10, 156096, Note_on_c, 5, 55, 0
10, 156120, Note_on_c, 5, 55, 91
10, 156216, Note_on_c, 5, 55, 0
10, 156240, Note_on_c, 5, 55, 94
10, 156336, Note_on_c, 5, 55, 0
10, 156360, Note_on_c, 5, 55, 97
10, 156456, Note_on_c, 5, 55, 0
10, 156480, Note_on_c, 5, 55, 100
10, 156576, Note_on_c, 5, 55, 0
10, 156600, Note_on_c, 5, 67, 101
10, 156696, Note_on_c, 5, 67, 0
10, 156720, Note_on_c, 5, 67, 103
10, 156816, Note_on_c, 5, 67, 0
10, 156840, Note_on_c, 5, 67, 104
10, 156936, Note_on_c, 5, 67, 0
10, 156960, Note_on_c, 5, 67, 105
10, 157056, Note_on_c, 5, 67, 0
10, 157080, Note_on_c, 5, 67, 106
10, 157176, Note_on_c, 5, 67, 0
10, 157200, Note_on_c, 5, 67, 108
10, 157296, Note_on_c, 5, 67, 0
10, 157320, Note_on_c, 5, 67, 109
10, 157416, Note_on_c, 5, 67, 0
10, 157440, Note_on_c, 5, 65, 110
10, 157536, Note_on_c, 5, 65, 0
10, 157560, Note_on_c, 5, 65, 110
10, 157656, Note_on_c, 5, 65, 0
10, 157680, Note_on_c, 5, 65, 110
10, 157776, Note_on_c, 5, 65, 0
10, 157800, Note_on_c, 5, 65, 110
10, 157896, Note_on_c, 5, 65, 0
10, 157920, Note_on_c, 5, 65, 110
10, 158016, Note_on_c, 5, 65, 0
10, 158040, Note_on_c, 5, 65, 110
10, 158136, Note_on_c, 5, 65, 0
10, 158160, Note_on_c, 5, 65, 110
10, 158256, Note_on_c, 5, 65, 0
10, 158280, Note_on_c, 5, 65, 110
10, 158376, Note_on_c, 5, 65, 0
10, 158400, Note_on_c, 5, 53, 110
10, 158496, Note_on_c, 5, 53, 0
10, 158520, Note_on_c, 5, 53, 110
10, 158616, Note_on_c, 5, 53, 0
10, 158640, Note_on_c, 5, 53, 110
10, 158736, Note_on_c, 5, 53, 0
10, 158760, Note_on_c, 5, 53, 110
10, 158856, Note_on_c, 5, 53, 0
10, 158880, Note_on_c, 5, 53, 110
10, 158976, Note_on_c, 5, 53, 0
10, 159000, Note_on_c, 5, 53, 110
10, 159096, Note_on_c, 5, 53, 0
10, 159120, Note_on_c, 5, 53, 110
10, 159216, Note_on_c, 5, 53, 0
10, 159240, Note_on_c, 5, 53, 110
10, 159336, Note_on_c, 5, 53, 0
10, 159360, Note_on_c, 5, 58, 110
10, 159552, Note_on_c, 5, 58, 0
10, 159600, Note_on_c, 5, 50, 110
10, 160080, Note_on_c, 5, 50, 0
10, 160080, Note_on_c, 5, 51, 110
10, 160224, Note_on_c, 5, 51, 0
10, 160320, Note_on_c, 5, 52, 110
10, 160464, Note_on_c, 5, 52, 0
10, 160560, Note_on_c, 5, 53, 110
10, 160704, Note_on_c, 5, 53, 0
10, 160800, Note_on_c, 5, 54, 110
10, 160944, Note_on_c, 5, 54, 0
10, 161040, Note_on_c, 5, 55, 110
10, 161184, Note_on_c, 5, 55, 0
10, 161280, Note_on_c, 5, 56, 110
10, 161472, Note_on_c, 5, 56, 0
10, 161700, Note_on_c, 5, 56, 127
10, 161748, Note_on_c, 5, 56, 0
10, 161760, Note_on_c, 5, 55, 110
10, 161952, Note_on_c, 5, 55, 0
10, 162180, Note_on_c, 5, 55, 127
10, 162228, Note_on_c, 5, 55, 0
10, 162240, Note_on_c, 5, 63, 110
10, 162432, Note_on_c, 5, 63, 0
10, 162660, Note_on_c, 5, 63, 127
10, 162708, Note_on_c, 5, 63, 0
10, 162720, Note_on_c, 5, 62, 110
10, 162912, Note_on_c, 5, 62, 0
10, 163140, Note_on_c, 5, 62, 127
10, 163188, Note_on_c, 5, 62, 0
10, 163200, Note_on_c, 5, 51, 110
10, 163392, Note_on_c, 5, 51, 0
10, 164160, Note_on_c, 5, 53, 80
10, 164352, Note_on_c, 5, 53, 0
10, 166560, Note_on_c, 5, 51, 56
10, 167520, Note_on_c, 5, 51, 0
10, 167520, Note_on_c, 5, 50, 56
10, 167760, Note_on_c, 5, 50, 0
10, 168480, Note_on_c, 5, 51, 56
10, 169440, Note_on_c, 5, 51, 0
10, 169440, Note_on_c, 5, 50, 56
10, 169680, Note_on_c, 5, 50, 0
10, 169920, Note_on_c, 5, 62, 110
10, 170010, Note_on_c, 5, 62, 0
10, 170040, Note_on_c, 5, 62, 110
10, 170130, Note_on_c, 5, 62, 0
10, 170160, Note_on_c, 5, 62, 110
10, 170250, Note_on_c, 5, 62, 0
10, 170280, Note_on_c, 5, 62, 110
10, 170370, Note_on_c, 5, 62, 0
10, 170400, Note_on_c, 5, 62, 110
10, 170490, Note_on_c, 5, 62, 0
10, 170520, Note_on_c, 5, 62, 110
10, 170610, Note_on_c, 5, 62, 0
10, 170640, Note_on_c, 5, 62, 110
10, 170730, Note_on_c, 5, 62, 0
10, 170760, Note_on_c, 5, 62, 110
10, 170850, Note_on_c, 5, 62, 0
10, 170880, Note_on_c, 5, 67, 110
10, 170970, Note_on_c, 5, 67, 0
10, 171000, Note_on_c, 5, 67, 110
10, 171090, Note_on_c, 5, 67, 0
10, 171120, Note_on_c, 5, 67, 110
10, 171210, Note_on_c, 5, 67, 0
10, 171240, Note_on_c, 5, 67, 110
10, 171330, Note_on_c, 5, 67, 0
10, 171360, Note_on_c, 5, 63, 110
10, 171450, Note_on_c, 5, 63, 0
10, 171480, Note_on_c, 5, 63, 110
10, 171570, Note_on_c, 5, 63, 0
10, 171600, Note_on_c, 5, 63, 110
10, 171690, Note_on_c, 5, 63, 0
10, 171720, Note_on_c, 5, 63, 110
10, 171810, Note_on_c, 5, 63, 0
10, 171840, Note_on_c, 5, 65, 110
10, 171930, Note_on_c, 5, 65, 0
10, 171960, Note_on_c, 5, 65, 110
10, 172050, Note_on_c, 5, 65, 0
10, 172080, Note_on_c, 5, 65, 110
10, 172170, Note_on_c, 5, 65, 0
10, 172200, Note_on_c, 5, 65, 110
10, 172290, Note_on_c, 5, 65, 0
10, 172320, Note_on_c, 5, 53, 110
10, 172410, Note_on_c, 5, 53, 0
10, 172440, Note_on_c, 5, 53, 110
10, 172530, Note_on_c, 5, 53, 0
10, 172560, Note_on_c, 5, 53, 110
10, 172650, Note_on_c, 5, 53, 0
10, 172680, Note_on_c, 5, 53, 110
10, 172770, Note_on_c, 5, 53, 0
10, 172800, Note_on_c, 5, 58, 110
10, 172980, Note_on_c, 5, 58, 0
10, 173280, Note_on_c, 5, 70, 56
10, 174240, Note_on_c, 5, 70, 0
10, 174240, Note_on_c, 5, 69, 56
10, 174480, Note_on_c, 5, 69, 0
10, 175200, Note_on_c, 5, 58, 56
10, 176160, Note_on_c, 5, 58, 0
10, 176160, Note_on_c, 5, 57, 56
10, 176400, Note_on_c, 5, 57, 0
10, 177600, Note_on_c, 5, 62, 110
10, 177690, Note_on_c, 5, 62, 0
10, 177720, Note_on_c, 5, 62, 110
10, 177810, Note_on_c, 5, 62, 0
10, 177840, Note_on_c, 5, 62, 110
10, 177930, Note_on_c, 5, 62, 0
10, 177960, Note_on_c, 5, 62, 110
10, 178050, Note_on_c, 5, 62, 0
10, 178080, Note_on_c, 5, 62, 110
10, 178170, Note_on_c, 5, 62, 0
10, 178200, Note_on_c, 5, 62, 110
10, 178290, Note_on_c, 5, 62, 0
10, 178320, Note_on_c, 5, 62, 110
10, 178410, Note_on_c, 5, 62, 0
10, 178440, Note_on_c, 5, 62, 110
10, 178530, Note_on_c, 5, 62, 0
10, 178560, Note_on_c, 5, 67, 110
10, 178650, Note_on_c, 5, 67, 0
10, 178680, Note_on_c, 5, 67, 110
10, 178770, Note_on_c, 5, 67, 0
10, 178800, Note_on_c, 5, 67, 110
10, 178890, Note_on_c, 5, 67, 0
10, 178920, Note_on_c, 5, 67, 110
10, 179010, Note_on_c, 5, 67, 0
10, 179040, Note_on_c, 5, 63, 110
10, 179130, Note_on_c, 5, 63, 0
10, 179160, Note_on_c, 5, 63, 110
10, 179250, Note_on_c, 5, 63, 0
10, 179280, Note_on_c, 5, 63, 110
10, 179370, Note_on_c, 5, 63, 0
10, 179400, Note_on_c, 5, 63, 110
10, 179490, Note_on_c, 5, 63, 0
10, 179520, Note_on_c, 5, 65, 110
10, 179610, Note_on_c, 5, 65, 0
10, 179640, Note_on_c, 5, 65, 110
10, 179730, Note_on_c, 5, 65, 0
10, 179760, Note_on_c, 5, 65, 110
10, 179850, Note_on_c, 5, 65, 0
10, 179880, Note_on_c, 5, 65, 110
10, 179970, Note_on_c, 5, 65, 0
10, 180000, Note_on_c, 5, 53, 110
10, 180090, Note_on_c, 5, 53, 0
10, 180120, Note_on_c, 5, 53, 110
10, 180210, Note_on_c, 5, 53, 0
10, 180240, Note_on_c, 5, 53, 110
10, 180330, Note_on_c, 5, 53, 0
10, 180360, Note_on_c, 5, 53, 110
10, 180450, Note_on_c, 5, 53, 0
10, 180480, Note_on_c, 5, 58, 110
10, 180864, Note_on_c, 5, 58, 0
10, 181320, Note_on_c, 5, 77, 110
10, 181416, Note_on_c, 5, 77, 0
10, 181440, Note_on_c, 5, 75, 110
10, 181512, Note_on_c, 5, 75, 0
10, 181560, Note_on_c, 5, 74, 110
10, 181632, Note_on_c, 5, 74, 0
10, 181680, Note_on_c, 5, 72, 110
10, 181752, Note_on_c, 5, 72, 0
10, 181800, Note_on_c, 5, 70, 110
10, 181872, Note_on_c, 5, 70, 0
10, 181920, Note_on_c, 5, 69, 110
10, 181992, Note_on_c, 5, 69, 0
10, 182040, Note_on_c, 5, 67, 110
10, 182112, Note_on_c, 5, 67, 0
10, 182160, Note_on_c, 5, 65, 110
10, 182232, Note_on_c, 5, 65, 0
10, 182280, Note_on_c, 5, 63, 110
10, 182352, Note_on_c, 5, 63, 0
10, 182400, Note_on_c, 5, 62, 110
10, 182544, Note_on_c, 5, 62, 0
10, 182640, Note_on_c, 5, 62, 110
10, 182784, Note_on_c, 5, 62, 0
10, 182880, Note_on_c, 5, 63, 110
10, 183024, Note_on_c, 5, 63, 0
10, 183120, Note_on_c, 5, 65, 110
10, 183264, Note_on_c, 5, 65, 0
10, 183360, Note_on_c, 5, 70, 110
10, 183432, Note_on_c, 5, 70, 0
10, 183480, Note_on_c, 5, 65, 110
10, 183552, Note_on_c, 5, 65, 0
10, 183600, Note_on_c, 5, 74, 110
10, 183672, Note_on_c, 5, 74, 0
10, 183720, Note_on_c, 5, 72, 110
10, 183792, Note_on_c, 5, 72, 0
10, 183840, Note_on_c, 5, 70, 110
10, 183912, Note_on_c, 5, 70, 0
10, 183960, Note_on_c, 5, 69, 110
10, 184032, Note_on_c, 5, 69, 0
10, 184080, Note_on_c, 5, 67, 110
10, 184152, Note_on_c, 5, 67, 0
10, 184200, Note_on_c, 5, 65, 110
10, 184272, Note_on_c, 5, 65, 0
10, 184320, Note_on_c, 5, 63, 110
10, 184392, Note_on_c, 5, 63, 0
10, 184440, Note_on_c, 5, 62, 110
10, 184512, Note_on_c, 5, 62, 0
10, 184560, Note_on_c, 5, 60, 110
10, 184632, Note_on_c, 5, 60, 0
10, 184680, Note_on_c, 5, 58, 110
10, 184752, Note_on_c, 5, 58, 0
10, 184800, Note_on_c, 5, 57, 110
10, 184872, Note_on_c, 5, 57, 0
10, 184920, Note_on_c, 5, 60, 110
10, 184992, Note_on_c, 5, 60, 0
10, 185040, Note_on_c, 5, 65, 110
10, 185112, Note_on_c, 5, 65, 0
10, 185160, Note_on_c, 5, 63, 110
10, 185232, Note_on_c, 5, 63, 0
10, 185280, Note_on_c, 5, 62, 110
10, 185424, Note_on_c, 5, 62, 0
10, 185520, Note_on_c, 5, 62, 110
10, 185664, Note_on_c, 5, 62, 0
10, 185760, Note_on_c, 5, 63, 110
10, 185904, Note_on_c, 5, 63, 0
10, 186000, Note_on_c, 5, 65, 110
10, 186144, Note_on_c, 5, 65, 0
10, 186240, Note_on_c, 5, 67, 110
10, 186384, Note_on_c, 5, 67, 0
10, 186480, Note_on_c, 5, 63, 110
10, 186624, Note_on_c, 5, 63, 0
10, 186720, Note_on_c, 5, 65, 110
10, 186864, Note_on_c, 5, 65, 0
10, 186960, Note_on_c, 5, 53, 110
10, 187104, Note_on_c, 5, 53, 0
10, 187200, Note_on_c, 5, 58, 110
10, 187392, Note_on_c, 5, 58, 0
10, 187680, Note_on_c, 5, 65, 110
10, 187872, Note_on_c, 5, 65, 0
10, 188160, Note_on_c, 5, 70, 110
10, 188352, Note_on_c, 5, 70, 0
10, 188640, Note_on_c, 5, 65, 110
10, 188832, Note_on_c, 5, 65, 0
10, 189120, Note_on_c, 5, 70, 110
10, 189312, Note_on_c, 5, 70, 0
10, 189600, Note_on_c, 5, 65, 110
10, 189792, Note_on_c, 5, 65, 0
10, 190080, Note_on_c, 5, 70, 110
10, 190272, Note_on_c, 5, 70, 0
10, 190320, Note_on_c, 5, 65, 110
10, 190512, Note_on_c, 5, 65, 0
10, 190560, Note_on_c, 5, 70, 110
10, 190752, Note_on_c, 5, 70, 0
10, 190800, Note_on_c, 5, 65, 110
10, 190992, Note_on_c, 5, 65, 0
10, 191040, Note_on_c, 5, 70, 110
10, 191400, Note_on_c, 5, 70, 0
10, 192000, Note_on_c, 5, 69, 110
10, 192360, Note_on_c, 5, 69, 0
10, 192960, Note_on_c, 5, 67, 110
10, 193248, Note_on_c, 5, 67, 0
10, 193440, Note_on_c, 5, 65, 110
10, 193728, Note_on_c, 5, 65, 0
10, 196800, Note_on_c, 5, 54, 80
10, 196800, Note_on_c, 5, 57, 80
10, 196860, Note_on_c, 5, 57, 0
10, 196860, Note_on_c, 5, 54, 0
10, 196920, Note_on_c, 5, 54, 80
10, 196920, Note_on_c, 5, 57, 80
10, 196980, Note_on_c, 5, 57, 0
10, 196980, Note_on_c, 5, 54, 0
10, 197040, Note_on_c, 5, 66, 80
10, 197040, Note_on_c, 5, 61, 80
10, 197100, Note_on_c, 5, 61, 0
10, 197100, Note_on_c, 5, 66, 0
10, 197160, Note_on_c, 5, 61, 80
10, 197160, Note_on_c, 5, 66, 80
10, 197220, Note_on_c, 5, 66, 0
10, 197220, Note_on_c, 5, 61, 0
10, 197280, Note_on_c, 5, 54, 80
10, 197280, Note_on_c, 5, 57, 80
10, 197340, Note_on_c, 5, 57, 0
10, 197340, Note_on_c, 5, 54, 0
10, 197400, Note_on_c, 5, 54, 80
10, 197400, Note_on_c, 5, 57, 80
10, 197460, Note_on_c, 5, 57, 0
10, 197460, Note_on_c, 5, 54, 0
10, 197520, Note_on_c, 5, 61, 80
10, 197520, Note_on_c, 5, 66, 80
10, 197580, Note_on_c, 5, 66, 0
10, 197580, Note_on_c, 5, 61, 0
10, 197640, Note_on_c, 5, 61, 80
10, 197640, Note_on_c, 5, 66, 80
10, 197700, Note_on_c, 5, 66, 0
10, 197700, Note_on_c, 5, 61, 0
10, 197760, Note_on_c, 5, 57, 80
10, 197760, Note_on_c, 5, 54, 80
10, 197820, Note_on_c, 5, 54, 0
10, 197820, Note_on_c, 5, 57, 0
10, 197880, Note_on_c, 5, 57, 80
10, 197880, Note_on_c, 5, 54, 80
10, 197940, Note_on_c, 5, 54, 0
10, 197940, Note_on_c, 5, 57, 0
10, 198000, Note_on_c, 5, 57, 80
10, 198000, Note_on_c, 5, 61, 80
10, 198060, Note_on_c, 5, 61, 0
10, 198060, Note_on_c, 5, 57, 0
10, 198120, Note_on_c, 5, 57, 80
10, 198120, Note_on_c, 5, 61, 80
10, 198180, Note_on_c, 5, 61, 0
10, 198180, Note_on_c, 5, 57, 0
10, 198240, Note_on_c, 5, 57, 80
10, 198240, Note_on_c, 5, 54, 80
10, 198300, Note_on_c, 5, 54, 0
10, 198300, Note_on_c, 5, 57, 0
10, 198360, Note_on_c, 5, 57, 80
10, 198360, Note_on_c, 5, 54, 80
10, 198420, Note_on_c, 5, 54, 0
10, 198420, Note_on_c, 5, 57, 0
10, 198480, Note_on_c, 5, 66, 80
10, 198480, Note_on_c, 5, 61, 80
10, 198540, Note_on_c, 5, 61, 0
10, 198540, Note_on_c, 5, 66, 0
10, 198600, Note_on_c, 5, 66, 80
10, 198600, Note_on_c, 5, 61, 80
10, 198660, Note_on_c, 5, 61, 0
10, 198660, Note_on_c, 5, 66, 0
10, 198720, Note_on_c, 5, 63, 80
10, 198720, Note_on_c, 5, 56, 80
10, 198780, Note_on_c, 5, 56, 0
10, 198780, Note_on_c, 5, 63, 0
10, 198840, Note_on_c, 5, 63, 80
10, 198840, Note_on_c, 5, 56, 80
10, 198900, Note_on_c, 5, 56, 0
10, 198900, Note_on_c, 5, 63, 0
10, 198960, Note_on_c, 5, 63, 80
10, 198960, Note_on_c, 5, 68, 80
10, 199020, Note_on_c, 5, 68, 0
10, 199020, Note_on_c, 5, 63, 0
10, 199080, Note_on_c, 5, 63, 80
10, 199080, Note_on_c, 5, 68, 80
10, 199140, Note_on_c, 5, 68, 0
10, 199140, Note_on_c, 5, 63, 0
10, 199200, Note_on_c, 5, 56, 80
10, 199200, Note_on_c, 5, 63, 80
10, 199260, Note_on_c, 5, 63, 0
10, 199260, Note_on_c, 5, 56, 0
10, 199320, Note_on_c, 5, 56, 80
10, 199320, Note_on_c, 5, 63, 80
10, 199380, Note_on_c, 5, 63, 0
10, 199380, Note_on_c, 5, 56, 0
10, 199440, Note_on_c, 5, 63, 80
10, 199440, Note_on_c, 5, 68, 80
10, 199500, Note_on_c, 5, 68, 0
10, 199500, Note_on_c, 5, 63, 0
10, 199560, Note_on_c, 5, 63, 80
10, 199560, Note_on_c, 5, 68, 80
10, 199620, Note_on_c, 5, 68, 0
10, 199620, Note_on_c, 5, 63, 0
10, 199680, Note_on_c, 5, 56, 80
10, 199680, Note_on_c, 5, 62, 80
10, 199740, Note_on_c, 5, 62, 0
10, 199740, Note_on_c, 5, 56, 0
10, 199800, Note_on_c, 5, 56, 80
10, 199800, Note_on_c, 5, 62, 80
10, 199860, Note_on_c, 5, 62, 0
10, 199860, Note_on_c, 5, 56, 0
10, 199920, Note_on_c, 5, 68, 80
10, 199920, Note_on_c, 5, 62, 80
10, 199980, Note_on_c, 5, 62, 0
10, 199980, Note_on_c, 5, 68, 0
10, 200040, Note_on_c, 5, 68, 80
10, 200040, Note_on_c, 5, 62, 80
10, 200100, Note_on_c, 5, 62, 0
10, 200100, Note_on_c, 5, 68, 0
10, 200160, Note_on_c, 5, 62, 80
10, 200160, Note_on_c, 5, 56, 80
10, 200220, Note_on_c, 5, 56, 0
10, 200220, Note_on_c, 5, 62, 0
10, 200280, Note_on_c, 5, 62, 80
10, 200280, Note_on_c, 5, 56, 80
10, 200340, Note_on_c, 5, 56, 0
10, 200340, Note_on_c, 5, 62, 0
10, 200400, Note_on_c, 5, 68, 80
10, 200400, Note_on_c, 5, 62, 80
10, 200460, Note_on_c, 5, 62, 0
10, 200460, Note_on_c, 5, 68, 0
10, 200520, Note_on_c, 5, 68, 80
10, 200520, Note_on_c, 5, 62, 80
10, 200580, Note_on_c, 5, 62, 0
10, 200580, Note_on_c, 5, 68, 0
10, 200640, Note_on_c, 5, 61, 80
10, 200640, Note_on_c, 5, 56, 80
10, 200700, Note_on_c, 5, 56, 0
10, 200700, Note_on_c, 5, 61, 0
10, 200760, Note_on_c, 5, 56, 80
10, 200760, Note_on_c, 5, 61, 80
10, 200820, Note_on_c, 5, 61, 0
10, 200820, Note_on_c, 5, 56, 0
10, 200880, Note_on_c, 5, 71, 80
10, 200880, Note_on_c, 5, 61, 80
10, 200940, Note_on_c, 5, 61, 0
10, 200940, Note_on_c, 5, 71, 0
10, 201000, Note_on_c, 5, 71, 80
10, 201000, Note_on_c, 5, 61, 80
10, 201060, Note_on_c, 5, 61, 0
10, 201060, Note_on_c, 5, 71, 0
10, 201120, Note_on_c, 5, 61, 80
10, 201120, Note_on_c, 5, 56, 80
10, 201180, Note_on_c, 5, 56, 0
10, 201180, Note_on_c, 5, 61, 0
10, 201240, Note_on_c, 5, 61, 80
10, 201240, Note_on_c, 5, 56, 80
10, 201300, Note_on_c, 5, 56, 0
10, 201300, Note_on_c, 5, 61, 0
10, 201360, Note_on_c, 5, 71, 80
10, 201360, Note_on_c, 5, 61, 80
10, 201420, Note_on_c, 5, 61, 0
10, 201420, Note_on_c, 5, 71, 0
10, 201480, Note_on_c, 5, 71, 80
10, 201480, Note_on_c, 5, 61, 80
10, 201540, Note_on_c, 5, 61, 0
10, 201540, Note_on_c, 5, 71, 0
10, 201600, Note_on_c, 5, 61, 80
10, 201600, Note_on_c, 5, 56, 80
10, 201660, Note_on_c, 5, 56, 0
10, 201660, Note_on_c, 5, 61, 0
10, 201720, Note_on_c, 5, 61, 80
10, 201720, Note_on_c, 5, 56, 80
10, 201780, Note_on_c, 5, 56, 0
10, 201780, Note_on_c, 5, 61, 0
10, 201840, Note_on_c, 5, 61, 80
10, 201840, Note_on_c, 5, 68, 80
10, 201900, Note_on_c, 5, 68, 0
10, 201900, Note_on_c, 5, 61, 0
10, 201960, Note_on_c, 5, 61, 80
10, 201960, Note_on_c, 5, 68, 80
10, 202020, Note_on_c, 5, 68, 0
10, 202020, Note_on_c, 5, 61, 0
10, 202080, Note_on_c, 5, 56, 80
10, 202080, Note_on_c, 5, 61, 80
10, 202140, Note_on_c, 5, 61, 0
10, 202140, Note_on_c, 5, 56, 0
10, 202200, Note_on_c, 5, 56, 80
10, 202200, Note_on_c, 5, 61, 80
10, 202260, Note_on_c, 5, 61, 0
10, 202260, Note_on_c, 5, 56, 0
10, 202320, Note_on_c, 5, 61, 80
10, 202320, Note_on_c, 5, 68, 80
10, 202380, Note_on_c, 5, 68, 0
10, 202380, Note_on_c, 5, 61, 0
10, 202440, Note_on_c, 5, 61, 80
10, 202440, Note_on_c, 5, 68, 80
10, 202500, Note_on_c, 5, 68, 0
10, 202500, Note_on_c, 5, 61, 0
10, 202560, Note_on_c, 5, 55, 80
10, 202560, Note_on_c, 5, 61, 80
10, 202620, Note_on_c, 5, 61, 0
10, 202620, Note_on_c, 5, 55, 0
10, 202680, Note_on_c, 5, 55, 80
10, 202680, Note_on_c, 5, 61, 80
10, 202740, Note_on_c, 5, 61, 0
10, 202740, Note_on_c, 5, 55, 0
10, 202800, Note_on_c, 5, 67, 80
10, 202800, Note_on_c, 5, 61, 80
10, 202860, Note_on_c, 5, 61, 0
10, 202860, Note_on_c, 5, 67, 0
10, 202920, Note_on_c, 5, 67, 80
10, 202920, Note_on_c, 5, 61, 80
10, 202980, Note_on_c, 5, 61, 0
10, 202980, Note_on_c, 5, 67, 0
10, 203040, Note_on_c, 5, 61, 80
10, 203040, Note_on_c, 5, 55, 80
10, 203100, Note_on_c, 5, 55, 0
10, 203100, Note_on_c, 5, 61, 0
10, 203160, Note_on_c, 5, 61, 80
10, 203160, Note_on_c, 5, 55, 80
10, 203220, Note_on_c, 5, 55, 0
10, 203220, Note_on_c, 5, 61, 0
10, 203280, Note_on_c, 5, 67, 80
10, 203280, Note_on_c, 5, 61, 80
10, 203340, Note_on_c, 5, 61, 0
10, 203340, Note_on_c, 5, 67, 0
10, 203400, Note_on_c, 5, 67, 80
10, 203400, Note_on_c, 5, 61, 80
10, 203460, Note_on_c, 5, 61, 0
10, 203460, Note_on_c, 5, 67, 0
10, 203520, Note_on_c, 5, 60, 80
10, 203520, Note_on_c, 5, 54, 80
10, 203580, Note_on_c, 5, 54, 0
10, 203580, Note_on_c, 5, 60, 0
10, 203640, Note_on_c, 5, 60, 80
10, 203640, Note_on_c, 5, 54, 80
10, 203700, Note_on_c, 5, 54, 0
10, 203700, Note_on_c, 5, 60, 0
10, 203760, Note_on_c, 5, 60, 80
10, 203760, Note_on_c, 5, 66, 80
10, 203820, Note_on_c, 5, 66, 0
10, 203820, Note_on_c, 5, 60, 0
10, 203880, Note_on_c, 5, 60, 80
10, 203880, Note_on_c, 5, 66, 80
10, 203940, Note_on_c, 5, 66, 0
10, 203940, Note_on_c, 5, 60, 0
10, 204000, Note_on_c, 5, 54, 80
10, 204000, Note_on_c, 5, 60, 80
10, 204060, Note_on_c, 5, 60, 0
10, 204060, Note_on_c, 5, 54, 0
10, 204120, Note_on_c, 5, 54, 80
10, 204120, Note_on_c, 5, 60, 80
10, 204180, Note_on_c, 5, 60, 0
10, 204180, Note_on_c, 5, 54, 0
10, 204240, Note_on_c, 5, 60, 80
10, 204240, Note_on_c, 5, 66, 80
10, 204300, Note_on_c, 5, 66, 0
10, 204300, Note_on_c, 5, 60, 0
10, 204360, Note_on_c, 5, 60, 80
10, 204360, Note_on_c, 5, 66, 80
10, 204420, Note_on_c, 5, 66, 0
10, 204420, Note_on_c, 5, 60, 0
10, 204480, Note_on_c, 5, 54, 80
10, 204480, Note_on_c, 5, 59, 80
10, 204540, Note_on_c, 5, 59, 0
10, 204540, Note_on_c, 5, 54, 0
10, 204600, Note_on_c, 5, 54, 80
10, 204600, Note_on_c, 5, 59, 80
10, 204660, Note_on_c, 5, 59, 0
10, 204660, Note_on_c, 5, 54, 0
10, 204720, Note_on_c, 5, 69, 80
10, 204720, Note_on_c, 5, 59, 80
10, 204780, Note_on_c, 5, 59, 0
10, 204780, Note_on_c, 5, 69, 0
10, 204840, Note_on_c, 5, 69, 80
10, 204840, Note_on_c, 5, 59, 80
10, 204900, Note_on_c, 5, 59, 0
10, 204900, Note_on_c, 5, 69, 0
10, 204960, Note_on_c, 5, 59, 80
10, 204960, Note_on_c, 5, 54, 80
10, 205020, Note_on_c, 5, 54, 0
10, 205020, Note_on_c, 5, 59, 0
10, 205080, Note_on_c, 5, 59, 80
10, 205080, Note_on_c, 5, 54, 80
10, 205140, Note_on_c, 5, 54, 0
10, 205140, Note_on_c, 5, 59, 0
10, 205200, Note_on_c, 5, 69, 80
10, 205200, Note_on_c, 5, 59, 80
10, 205260, Note_on_c, 5, 59, 0
10, 205260, Note_on_c, 5, 69, 0
10, 205320, Note_on_c, 5, 69, 80
10, 205320, Note_on_c, 5, 59, 80
10, 205380, Note_on_c, 5, 59, 0
10, 205380, Note_on_c, 5, 69, 0
10, 205440, Note_on_c, 5, 57, 80
10, 205440, Note_on_c, 5, 54, 80
10, 205500, Note_on_c, 5, 54, 0
10, 205500, Note_on_c, 5, 57, 0
10, 205560, Note_on_c, 5, 57, 80
10, 205560, Note_on_c, 5, 54, 80
10, 205620, Note_on_c, 5, 54, 0
10, 205620, Note_on_c, 5, 57, 0
10, 205680, Note_on_c, 5, 57, 80
10, 205680, Note_on_c, 5, 66, 80
10, 205740, Note_on_c, 5, 66, 0
10, 205740, Note_on_c, 5, 57, 0
10, 205800, Note_on_c, 5, 57, 80
10, 205800, Note_on_c, 5, 66, 80
10, 205860, Note_on_c, 5, 66, 0
10, 205860, Note_on_c, 5, 57, 0
10, 205920, Note_on_c, 5, 54, 80
10, 205920, Note_on_c, 5, 63, 80
10, 206112, Note_on_c, 5, 63, 0
10, 206112, Note_on_c, 5, 54, 0
10, 206160, Note_on_c, 5, 60, 110
10, 206280, Note_on_c, 5, 60, 0
10, 206280, Note_on_c, 5, 59, 110
10, 206400, Note_on_c, 5, 59, 0
10, 206400, Note_on_c, 5, 59, 110
10, 206640, Note_on_c, 5, 59, 0
10, 206640, Note_on_c, 5, 60, 110
10, 206760, Note_on_c, 5, 60, 0
10, 206760, Note_on_c, 5, 59, 110
10, 206880, Note_on_c, 5, 59, 0
10, 206880, Note_on_c, 5, 59, 110
10, 207120, Note_on_c, 5, 59, 0
10, 207120, Note_on_c, 5, 60, 110
10, 207240, Note_on_c, 5, 60, 0
10, 207240, Note_on_c, 5, 59, 110
10, 207360, Note_on_c, 5, 59, 0
10, 207360, Note_on_c, 5, 59, 110
10, 207600, Note_on_c, 5, 59, 0
10, 207600, Note_on_c, 5, 67, 110
10, 207840, Note_on_c, 5, 67, 0
10, 208080, Note_on_c, 5, 67, 110
10, 208200, Note_on_c, 5, 67, 0
10, 208200, Note_on_c, 5, 66, 110
10, 208320, Note_on_c, 5, 66, 0
10, 208320, Note_on_c, 5, 64, 110
10, 208560, Note_on_c, 5, 64, 0
10, 208560, Note_on_c, 5, 64, 110
10, 208680, Note_on_c, 5, 64, 0
10, 208680, Note_on_c, 5, 62, 110
10, 208800, Note_on_c, 5, 62, 0
10, 208800, Note_on_c, 5, 60, 110
10, 209040, Note_on_c, 5, 60, 0
10, 209040, Note_on_c, 5, 60, 110
10, 209160, Note_on_c, 5, 60, 0
10, 209160, Note_on_c, 5, 59, 110
10, 209280, Note_on_c, 5, 59, 0
10, 209280, Note_on_c, 5, 57, 110
10, 209364, Note_on_c, 5, 57, 0
10, 209400, Note_on_c, 5, 59, 110
10, 209484, Note_on_c, 5, 59, 0
10, 209520, Note_on_c, 5, 60, 110
10, 209604, Note_on_c, 5, 60, 0
10, 209640, Note_on_c, 5, 59, 110
10, 209724, Note_on_c, 5, 59, 0
10, 209760, Note_on_c, 5, 57, 110
10, 209844, Note_on_c, 5, 57, 0
10, 209880, Note_on_c, 5, 58, 110
10, 209964, Note_on_c, 5, 58, 0
10, 210000, Note_on_c, 5, 55, 110
10, 210084, Note_on_c, 5, 55, 0
10, 210120, Note_on_c, 5, 57, 110
10, 210204, Note_on_c, 5, 57, 0
10, 210240, Note_on_c, 5, 53, 110
10, 210324, Note_on_c, 5, 53, 0
10, 210360, Note_on_c, 5, 57, 110
10, 210444, Note_on_c, 5, 57, 0
10, 210480, Note_on_c, 5, 62, 110
10, 210564, Note_on_c, 5, 62, 0
10, 210600, Note_on_c, 5, 53, 110
10, 210684, Note_on_c, 5, 53, 0
10, 210720, Note_on_c, 5, 52, 110
10, 210804, Note_on_c, 5, 52, 0
10, 210840, Note_on_c, 5, 55, 110
10, 210924, Note_on_c, 5, 55, 0
10, 210960, Note_on_c, 5, 61, 110
10, 211044, Note_on_c, 5, 61, 0
10, 211080, Note_on_c, 5, 52, 110
10, 211164, Note_on_c, 5, 52, 0
10, 211200, Note_on_c, 5, 50, 110
10, 211284, Note_on_c, 5, 50, 0
10, 211320, Note_on_c, 5, 57, 110
10, 211404, Note_on_c, 5, 57, 0
10, 211440, Note_on_c, 5, 59, 110
10, 211524, Note_on_c, 5, 59, 0
10, 211560, Note_on_c, 5, 61, 110
10, 211644, Note_on_c, 5, 61, 0
10, 211680, Note_on_c, 5, 62, 110
10, 211764, Note_on_c, 5, 62, 0
10, 211800, Note_on_c, 5, 57, 110
10, 211884, Note_on_c, 5, 57, 0
10, 211920, Note_on_c, 5, 62, 110
10, 212004, Note_on_c, 5, 62, 0
10, 212040, Note_on_c, 5, 64, 110
10, 212124, Note_on_c, 5, 64, 0
10, 212160, Note_on_c, 5, 65, 110
10, 212244, Note_on_c, 5, 65, 0
10, 212280, Note_on_c, 5, 62, 110
10, 212364, Note_on_c, 5, 62, 0
10, 212400, Note_on_c, 5, 64, 110
10, 212484, Note_on_c, 5, 64, 0
10, 212520, Note_on_c, 5, 65, 110
10, 212604, Note_on_c, 5, 65, 0
10, 212640, Note_on_c, 5, 67, 110
10, 212724, Note_on_c, 5, 67, 0
10, 212760, Note_on_c, 5, 62, 110
10, 212844, Note_on_c, 5, 62, 0
10, 212880, Note_on_c, 5, 67, 110
10, 212964, Note_on_c, 5, 67, 0
10, 213000, Note_on_c, 5, 69, 110
10, 213084, Note_on_c, 5, 69, 0
10, 213120, Note_on_c, 5, 70, 110
10, 213360, Note_on_c, 5, 70, 0
10, 213360, Note_on_c, 5, 55, 110
10, 213600, Note_on_c, 5, 55, 0
10, 213840, Note_on_c, 5, 57, 110
10, 213960, Note_on_c, 5, 57, 0
10, 213960, Note_on_c, 5, 55, 110
10, 214080, Note_on_c, 5, 55, 0
10, 214080, Note_on_c, 5, 55, 110
10, 214320, Note_on_c, 5, 55, 0
10, 214320, Note_on_c, 5, 57, 110
10, 214440, Note_on_c, 5, 57, 0
10, 214440, Note_on_c, 5, 55, 110
10, 214560, Note_on_c, 5, 55, 0
10, 214560, Note_on_c, 5, 55, 110
10, 214800, Note_on_c, 5, 55, 0
10, 214800, Note_on_c, 5, 57, 110
10, 214920, Note_on_c, 5, 57, 0
10, 214920, Note_on_c, 5, 55, 110
10, 215040, Note_on_c, 5, 55, 0
10, 215040, Note_on_c, 5, 55, 110
10, 215280, Note_on_c, 5, 55, 0
10, 215280, Note_on_c, 5, 64, 110
10, 215520, Note_on_c, 5, 64, 0
10, 215760, Note_on_c, 5, 64, 110
10, 215880, Note_on_c, 5, 64, 0
10, 215880, Note_on_c, 5, 62, 110
10, 216000, Note_on_c, 5, 62, 0
10, 216000, Note_on_c, 5, 60, 110
10, 216240, Note_on_c, 5, 60, 0
10, 216240, Note_on_c, 5, 60, 110
10, 216360, Note_on_c, 5, 60, 0
10, 216360, Note_on_c, 5, 58, 110
10, 216480, Note_on_c, 5, 58, 0
10, 216480, Note_on_c, 5, 57, 110
10, 216720, Note_on_c, 5, 57, 0
10, 216720, Note_on_c, 5, 57, 110
10, 216840, Note_on_c, 5, 57, 0
10, 216840, Note_on_c, 5, 55, 110
10, 216960, Note_on_c, 5, 55, 0
10, 216960, Note_on_c, 5, 53, 110
10, 217044, Note_on_c, 5, 53, 0
10, 217080, Note_on_c, 5, 55, 110
10, 217164, Note_on_c, 5, 55, 0
10, 217200, Note_on_c, 5, 57, 110
10, 217284, Note_on_c, 5, 57, 0
10, 217320, Note_on_c, 5, 55, 110
10, 217404, Note_on_c, 5, 55, 0
10, 217440, Note_on_c, 5, 53, 110
10, 217524, Note_on_c, 5, 53, 0
10, 217560, Note_on_c, 5, 55, 110
10, 217644, Note_on_c, 5, 55, 0
10, 217680, Note_on_c, 5, 51, 110
10, 217764, Note_on_c, 5, 51, 0
10, 217800, Note_on_c, 5, 53, 110
10, 217884, Note_on_c, 5, 53, 0
10, 217920, Note_on_c, 5, 50, 110
10, 218004, Note_on_c, 5, 50, 0
10, 218040, Note_on_c, 5, 53, 110
10, 218124, Note_on_c, 5, 53, 0
10, 218160, Note_on_c, 5, 58, 110
10, 218244, Note_on_c, 5, 58, 0
10, 218280, Note_on_c, 5, 50, 110
10, 218364, Note_on_c, 5, 50, 0
10, 218400, Note_on_c, 5, 48, 110
10, 218484, Note_on_c, 5, 48, 0
10, 218520, Note_on_c, 5, 51, 110
10, 218604, Note_on_c, 5, 51, 0
10, 218640, Note_on_c, 5, 57, 110
10, 218724, Note_on_c, 5, 57, 0
10, 218760, Note_on_c, 5, 60, 110
10, 218844, Note_on_c, 5, 60, 0
10, 218880, Note_on_c, 5, 58, 110
10, 218964, Note_on_c, 5, 58, 0
10, 219000, Note_on_c, 5, 53, 110
10, 219084, Note_on_c, 5, 53, 0
10, 219120, Note_on_c, 5, 55, 110
10, 219204, Note_on_c, 5, 55, 0
10, 219240, Note_on_c, 5, 57, 110
10, 219324, Note_on_c, 5, 57, 0
10, 219360, Note_on_c, 5, 58, 110
10, 219444, Note_on_c, 5, 58, 0
10, 219480, Note_on_c, 5, 57, 110
10, 219564, Note_on_c, 5, 57, 0
10, 219600, Note_on_c, 5, 58, 110
10, 219684, Note_on_c, 5, 58, 0
10, 219720, Note_on_c, 5, 60, 110
10, 219804, Note_on_c, 5, 60, 0
10, 219840, Note_on_c, 5, 62, 110
10, 219924, Note_on_c, 5, 62, 0
10, 219960, Note_on_c, 5, 58, 110
10, 220044, Note_on_c, 5, 58, 0
10, 220080, Note_on_c, 5, 60, 110
10, 220164, Note_on_c, 5, 60, 0
10, 220200, Note_on_c, 5, 62, 110
10, 220284, Note_on_c, 5, 62, 0
10, 220320, Note_on_c, 5, 63, 110
10, 220404, Note_on_c, 5, 63, 0
10, 220440, Note_on_c, 5, 62, 110
10, 220524, Note_on_c, 5, 62, 0
10, 220560, Note_on_c, 5, 63, 110
10, 220644, Note_on_c, 5, 63, 0
10, 220680, Note_on_c, 5, 65, 110
10, 220764, Note_on_c, 5, 65, 0
10, 220800, Note_on_c, 5, 67, 110
10, 220884, Note_on_c, 5, 67, 0
10, 220920, Note_on_c, 5, 51, 110
10, 221004, Note_on_c, 5, 51, 0
10, 221040, Note_on_c, 5, 53, 110
10, 221124, Note_on_c, 5, 53, 0
10, 221160, Note_on_c, 5, 55, 110
10, 221244, Note_on_c, 5, 55, 0
10, 221280, Note_on_c, 5, 57, 110
10, 221364, Note_on_c, 5, 57, 0
10, 221400, Note_on_c, 5, 55, 110
10, 221484, Note_on_c, 5, 55, 0
10, 221520, Note_on_c, 5, 57, 110
10, 221604, Note_on_c, 5, 57, 0
10, 221640, Note_on_c, 5, 58, 110
10, 221724, Note_on_c, 5, 58, 0
10, 221760, Note_on_c, 5, 60, 110
10, 221844, Note_on_c, 5, 60, 0
10, 221880, Note_on_c, 5, 57, 110
10, 221964, Note_on_c, 5, 57, 0
10, 222000, Note_on_c, 5, 58, 110
10, 222084, Note_on_c, 5, 58, 0
10, 222120, Note_on_c, 5, 60, 110
10, 222204, Note_on_c, 5, 60, 0
10, 222240, Note_on_c, 5, 62, 110
10, 222324, Note_on_c, 5, 62, 0
10, 222360, Note_on_c, 5, 61, 110
10, 222444, Note_on_c, 5, 61, 0
10, 222480, Note_on_c, 5, 62, 110
10, 222564, Note_on_c, 5, 62, 0
10, 222600, Note_on_c, 5, 64, 110
10, 222684, Note_on_c, 5, 64, 0
10, 222720, Note_on_c, 5, 66, 110
10, 222804, Note_on_c, 5, 66, 0
10, 222840, Note_on_c, 5, 62, 110
10, 222924, Note_on_c, 5, 62, 0
10, 222960, Note_on_c, 5, 64, 110
10, 223044, Note_on_c, 5, 64, 0
10, 223080, Note_on_c, 5, 66, 110
10, 223164, Note_on_c, 5, 66, 0
10, 223200, Note_on_c, 5, 67, 110
10, 223284, Note_on_c, 5, 67, 0
10, 223320, Note_on_c, 5, 63, 110
10, 223404, Note_on_c, 5, 63, 0
10, 223440, Note_on_c, 5, 62, 110
10, 223524, Note_on_c, 5, 62, 0
10, 223560, Note_on_c, 5, 60, 110
10, 223644, Note_on_c, 5, 60, 0
10, 223680, Note_on_c, 5, 58, 110
10, 223764, Note_on_c, 5, 58, 0
10, 223800, Note_on_c, 5, 60, 110
10, 223884, Note_on_c, 5, 60, 0
10, 223920, Note_on_c, 5, 58, 110
10, 224004, Note_on_c, 5, 58, 0
10, 224040, Note_on_c, 5, 57, 110
10, 224124, Note_on_c, 5, 57, 0
10, 224160, Note_on_c, 5, 55, 110
10, 224244, Note_on_c, 5, 55, 0
10, 224280, Note_on_c, 5, 53, 110
10, 224364, Note_on_c, 5, 53, 0
10, 224400, Note_on_c, 5, 55, 110
10, 224484, Note_on_c, 5, 55, 0
10, 224520, Note_on_c, 5, 56, 110
10, 224604, Note_on_c, 5, 56, 0
10, 224640, Note_on_c, 5, 57, 110
10, 224724, Note_on_c, 5, 57, 0
10, 224760, Note_on_c, 5, 57, 110
10, 224844, Note_on_c, 5, 57, 0
10, 224880, Note_on_c, 5, 57, 110
10, 224964, Note_on_c, 5, 57, 0
10, 225000, Note_on_c, 5, 57, 110
10, 225084, Note_on_c, 5, 57, 0
10, 225120, Note_on_c, 5, 57, 110
10, 225204, Note_on_c, 5, 57, 0
10, 225240, Note_on_c, 5, 57, 110
10, 225324, Note_on_c, 5, 57, 0
10, 225360, Note_on_c, 5, 57, 110
10, 225444, Note_on_c, 5, 57, 0
10, 225480, Note_on_c, 5, 57, 110
10, 225564, Note_on_c, 5, 57, 0
10, 225600, Note_on_c, 5, 57, 110
10, 225684, Note_on_c, 5, 57, 0
10, 225720, Note_on_c, 5, 57, 110
10, 225804, Note_on_c, 5, 57, 0
10, 225840, Note_on_c, 5, 57, 110
10, 225924, Note_on_c, 5, 57, 0
10, 225960, Note_on_c, 5, 57, 110
10, 226044, Note_on_c, 5, 57, 0
10, 226080, Note_on_c, 5, 57, 110
10, 226164, Note_on_c, 5, 57, 0
10, 226200, Note_on_c, 5, 57, 110
10, 226284, Note_on_c, 5, 57, 0
10, 226320, Note_on_c, 5, 57, 110
10, 226404, Note_on_c, 5, 57, 0
10, 226440, Note_on_c, 5, 57, 110
10, 226524, Note_on_c, 5, 57, 0
10, 226560, Note_on_c, 5, 57, 110
10, 226644, Note_on_c, 5, 57, 0
10, 226680, Note_on_c, 5, 57, 110
10, 226764, Note_on_c, 5, 57, 0
10, 226800, Note_on_c, 5, 57, 110
10, 226884, Note_on_c, 5, 57, 0
10, 226920, Note_on_c, 5, 57, 110
10, 227004, Note_on_c, 5, 57, 0
10, 227040, Note_on_c, 5, 57, 110
10, 227124, Note_on_c, 5, 57, 0
10, 227160, Note_on_c, 5, 57, 110
10, 227244, Note_on_c, 5, 57, 0
10, 227280, Note_on_c, 5, 57, 110
10, 227364, Note_on_c, 5, 57, 0
10, 227400, Note_on_c, 5, 57, 110
10, 227484, Note_on_c, 5, 57, 0
10, 227520, Note_on_c, 5, 57, 110
10, 227604, Note_on_c, 5, 57, 0
10, 227640, Note_on_c, 5, 57, 110
10, 227724, Note_on_c, 5, 57, 0
10, 227760, Note_on_c, 5, 57, 110
10, 227844, Note_on_c, 5, 57, 0
10, 227880, Note_on_c, 5, 57, 110
10, 227964, Note_on_c, 5, 57, 0
10, 228000, Note_on_c, 5, 57, 110
10, 228084, Note_on_c, 5, 57, 0
10, 228120, Note_on_c, 5, 57, 110
10, 228204, Note_on_c, 5, 57, 0
10, 228240, Note_on_c, 5, 57, 110
10, 228324, Note_on_c, 5, 57, 0
10, 228360, Note_on_c, 5, 57, 110
10, 228444, Note_on_c, 5, 57, 0
10, 228480, Note_on_c, 5, 57, 110
10, 228960, Note_on_c, 5, 57, 0
10, 236880, Note_on_c, 5, 72, 80
10, 237312, Note_on_c, 5, 72, 0
10, 237360, Note_on_c, 5, 72, 80
10, 237840, Note_on_c, 5, 72, 0
10, 237840, Note_on_c, 5, 72, 80
10, 238272, Note_on_c, 5, 72, 0
10, 238800, Note_on_c, 5, 69, 80
10, 239232, Note_on_c, 5, 69, 0
10, 239280, Note_on_c, 5, 69, 80
10, 239760, Note_on_c, 5, 69, 0
10, 239760, Note_on_c, 5, 69, 80
10, 240192, Note_on_c, 5, 69, 0
10, 240720, Note_on_c, 5, 60, 80
10, 241152, Note_on_c, 5, 60, 0
10, 241200, Note_on_c, 5, 60, 80
10, 241680, Note_on_c, 5, 60, 0
10, 241680, Note_on_c, 5, 60, 80
10, 242112, Note_on_c, 5, 60, 0
10, 242640, Note_on_c, 5, 70, 110
10, 242760, Note_on_c, 5, 70, 0
10, 242760, Note_on_c, 5, 69, 110
10, 242856, Note_on_c, 5, 69, 0
10, 242880, Note_on_c, 5, 69, 110
10, 243120, Note_on_c, 5, 69, 0
10, 243600, Note_on_c, 5, 69, 110
10, 243720, Note_on_c, 5, 69, 0
10, 243720, Note_on_c, 5, 70, 110
10, 243816, Note_on_c, 5, 70, 0
10, 243840, Note_on_c, 5, 70, 110
10, 244080, Note_on_c, 5, 70, 0
10, 244560, Note_on_c, 5, 70, 110
10, 244680, Note_on_c, 5, 70, 0
10, 244680, Note_on_c, 5, 69, 110
10, 244776, Note_on_c, 5, 69, 0
10, 244800, Note_on_c, 5, 67, 110
10, 245040, Note_on_c, 5, 67, 0
10, 245520, Note_on_c, 5, 67, 110
10, 245640, Note_on_c, 5, 67, 0
10, 245640, Note_on_c, 5, 66, 110
10, 245736, Note_on_c, 5, 66, 0
10, 245760, Note_on_c, 5, 66, 110
10, 246000, Note_on_c, 5, 66, 0
10, 246480, Note_on_c, 5, 68, 110
10, 246600, Note_on_c, 5, 68, 0
10, 246600, Note_on_c, 5, 69, 110
10, 246696, Note_on_c, 5, 69, 0
10, 246720, Note_on_c, 5, 69, 110
10, 246960, Note_on_c, 5, 69, 0
10, 247440, Note_on_c, 5, 72, 110
10, 247560, Note_on_c, 5, 72, 0
10, 247560, Note_on_c, 5, 70, 110
10, 247656, Note_on_c, 5, 70, 0
10, 247680, Note_on_c, 5, 70, 110
10, 247872, Note_on_c, 5, 70, 0
10, 248400, Note_on_c, 5, 71, 110
10, 248520, Note_on_c, 5, 71, 0
10, 248520, Note_on_c, 5, 72, 110
10, 248616, Note_on_c, 5, 72, 0
10, 248640, Note_on_c, 5, 72, 110
10, 248808, Note_on_c, 5, 72, 0
10, 248880, Note_on_c, 5, 69, 105
10, 249000, Note_on_c, 5, 69, 0
10, 249000, Note_on_c, 5, 67, 102
10, 249096, Note_on_c, 5, 67, 0
10, 249120, Note_on_c, 5, 67, 100
10, 249288, Note_on_c, 5, 67, 0
10, 249360, Note_on_c, 5, 67, 95
10, 249480, Note_on_c, 5, 67, 0
10, 249480, Note_on_c, 5, 69, 92
10, 249576, Note_on_c, 5, 69, 0
10, 249600, Note_on_c, 5, 69, 90
10, 249960, Note_on_c, 5, 69, 0
10, 255360, Note_on_c, 5, 55, 80
10, 255360, Note_on_c, 5, 58, 80
10, 255420, Note_on_c, 5, 58, 0
10, 255420, Note_on_c, 5, 55, 0
10, 255480, Note_on_c, 5, 55, 80
10, 255480, Note_on_c, 5, 58, 80
10, 255540, Note_on_c, 5, 58, 0
10, 255540, Note_on_c, 5, 55, 0
10, 255600, Note_on_c, 5, 62, 80
10, 255600, Note_on_c, 5, 67, 80
10, 255660, Note_on_c, 5, 67, 0
10, 255660, Note_on_c, 5, 62, 0
10, 255720, Note_on_c, 5, 62, 80
10, 255720, Note_on_c, 5, 67, 80
10, 255780, Note_on_c, 5, 67, 0
10, 255780, Note_on_c, 5, 62, 0
10, 255840, Note_on_c, 5, 55, 80
10, 255840, Note_on_c, 5, 58, 80
10, 255900, Note_on_c, 5, 58, 0
10, 255900, Note_on_c, 5, 55, 0
10, 255960, Note_on_c, 5, 55, 80
10, 255960, Note_on_c, 5, 58, 80
10, 256020, Note_on_c, 5, 58, 0
10, 256020, Note_on_c, 5, 55, 0
10, 256080, Note_on_c, 5, 62, 80
10, 256080, Note_on_c, 5, 67, 80
10, 256140, Note_on_c, 5, 67, 0
10, 256140, Note_on_c, 5, 62, 0
10, 256200, Note_on_c, 5, 62, 80
10, 256200, Note_on_c, 5, 67, 80
10, 256260, Note_on_c, 5, 67, 0
10, 256260, Note_on_c, 5, 62, 0
10, 256320, Note_on_c, 5, 55, 80
10, 256320, Note_on_c, 5, 58, 80
10, 256380, Note_on_c, 5, 58, 0
10, 256380, Note_on_c, 5, 55, 0
10, 256440, Note_on_c, 5, 55, 80
10, 256440, Note_on_c, 5, 58, 80
10, 256500, Note_on_c, 5, 58, 0
10, 256500, Note_on_c, 5, 55, 0
10, 256560, Note_on_c, 5, 58, 80
10, 256560, Note_on_c, 5, 62, 80
10, 256620, Note_on_c, 5, 62, 0
10, 256620, Note_on_c, 5, 58, 0
10, 256680, Note_on_c, 5, 58, 80
10, 256680, Note_on_c, 5, 62, 80
10, 256740, Note_on_c, 5, 62, 0
10, 256740, Note_on_c, 5, 58, 0
10, 256800, Note_on_c, 5, 55, 80
10, 256800, Note_on_c, 5, 58, 80
10, 256860, Note_on_c, 5, 58, 0
10, 256860, Note_on_c, 5, 55, 0
10, 256920, Note_on_c, 5, 55, 80
10, 256920, Note_on_c, 5, 58, 80
10, 256980, Note_on_c, 5, 58, 0
10, 256980, Note_on_c, 5, 55, 0
10, 257040, Note_on_c, 5, 58, 80
10, 257040, Note_on_c, 5, 67, 80
10, 257100, Note_on_c, 5, 67, 0
10, 257100, Note_on_c, 5, 58, 0
10, 257160, Note_on_c, 5, 58, 80
10, 257160, Note_on_c, 5, 67, 80
10, 257220, Note_on_c, 5, 67, 0
10, 257220, Note_on_c, 5, 58, 0
10, 257280, Note_on_c, 5, 63, 80
10, 257280, Note_on_c, 5, 57, 80
10, 257340, Note_on_c, 5, 57, 0
10, 257340, Note_on_c, 5, 63, 0
10, 257400, Note_on_c, 5, 63, 80
10, 257400, Note_on_c, 5, 57, 80
10, 257460, Note_on_c, 5, 57, 0
10, 257460, Note_on_c, 5, 63, 0
10, 257520, Note_on_c, 5, 69, 80
10, 257520, Note_on_c, 5, 63, 80
10, 257580, Note_on_c, 5, 63, 0
10, 257580, Note_on_c, 5, 69, 0
10, 257640, Note_on_c, 5, 69, 80
10, 257640, Note_on_c, 5, 63, 80
10, 257700, Note_on_c, 5, 63, 0
10, 257700, Note_on_c, 5, 69, 0
10, 257760, Note_on_c, 5, 63, 80
10, 257760, Note_on_c, 5, 57, 80
10, 257820, Note_on_c, 5, 57, 0
10, 257820, Note_on_c, 5, 63, 0
10, 257880, Note_on_c, 5, 63, 80
10, 257880, Note_on_c, 5, 57, 80
10, 257940, Note_on_c, 5, 57, 0
10, 257940, Note_on_c, 5, 63, 0
10, 258000, Note_on_c, 5, 69, 80
10, 258000, Note_on_c, 5, 63, 80
10, 258060, Note_on_c, 5, 63, 0
10, 258060, Note_on_c, 5, 69, 0
10, 258120, Note_on_c, 5, 69, 80
10, 258120, Note_on_c, 5, 63, 80
10, 258180, Note_on_c, 5, 63, 0
10, 258180, Note_on_c, 5, 69, 0
10, 258240, Note_on_c, 5, 57, 80
10, 258240, Note_on_c, 5, 63, 80
10, 258300, Note_on_c, 5, 63, 0
10, 258300, Note_on_c, 5, 57, 0
10, 258360, Note_on_c, 5, 57, 80
10, 258360, Note_on_c, 5, 63, 80
10, 258420, Note_on_c, 5, 63, 0
10, 258420, Note_on_c, 5, 57, 0
10, 258480, Note_on_c, 5, 63, 80
10, 258480, Note_on_c, 5, 69, 80
10, 258540, Note_on_c, 5, 69, 0
10, 258540, Note_on_c, 5, 63, 0
10, 258600, Note_on_c, 5, 63, 80
10, 258600, Note_on_c, 5, 69, 80
10, 258660, Note_on_c, 5, 69, 0
10, 258660, Note_on_c, 5, 63, 0
10, 258720, Note_on_c, 5, 57, 80
10, 258720, Note_on_c, 5, 63, 80
10, 258780, Note_on_c, 5, 63, 0
10, 258780, Note_on_c, 5, 57, 0
10, 258840, Note_on_c, 5, 57, 80
10, 258840, Note_on_c, 5, 63, 80
10, 258900, Note_on_c, 5, 63, 0
10, 258900, Note_on_c, 5, 57, 0
10, 258960, Note_on_c, 5, 63, 80
10, 258960, Note_on_c, 5, 69, 80
10, 259020, Note_on_c, 5, 69, 0
10, 259020, Note_on_c, 5, 63, 0
10, 259080, Note_on_c, 5, 63, 80
10, 259080, Note_on_c, 5, 69, 80
10, 259140, Note_on_c, 5, 69, 0
10, 259140, Note_on_c, 5, 63, 0
10, 259200, Note_on_c, 5, 57, 80
10, 259200, Note_on_c, 5, 62, 80
10, 259260, Note_on_c, 5, 62, 0
10, 259260, Note_on_c, 5, 57, 0
10, 259320, Note_on_c, 5, 57, 80
10, 259320, Note_on_c, 5, 62, 80
10, 259380, Note_on_c, 5, 62, 0
10, 259380, Note_on_c, 5, 57, 0
10, 259440, Note_on_c, 5, 62, 80
10, 259440, Note_on_c, 5, 72, 80
10, 259500, Note_on_c, 5, 72, 0
10, 259500, Note_on_c, 5, 62, 0
10, 259560, Note_on_c, 5, 62, 80
10, 259560, Note_on_c, 5, 72, 80
10, 259620, Note_on_c, 5, 72, 0
10, 259620, Note_on_c, 5, 62, 0
10, 259680, Note_on_c, 5, 57, 80
10, 259680, Note_on_c, 5, 62, 80
10, 259740, Note_on_c, 5, 62, 0
10, 259740, Note_on_c, 5, 57, 0
10, 259800, Note_on_c, 5, 57, 80
10, 259800, Note_on_c, 5, 62, 80
10, 259860, Note_on_c, 5, 62, 0
10, 259860, Note_on_c, 5, 57, 0
10, 259920, Note_on_c, 5, 62, 80
10, 259920, Note_on_c, 5, 72, 80
10, 259980, Note_on_c, 5, 72, 0
10, 259980, Note_on_c, 5, 62, 0
10, 260040, Note_on_c, 5, 62, 80
10, 260040, Note_on_c, 5, 72, 80
10, 260100, Note_on_c, 5, 72, 0
10, 260100, Note_on_c, 5, 62, 0
10, 260160, Note_on_c, 5, 57, 80
10, 260160, Note_on_c, 5, 60, 80
10, 260220, Note_on_c, 5, 60, 0
10, 260220, Note_on_c, 5, 57, 0
10, 260280, Note_on_c, 5, 57, 80
10, 260280, Note_on_c, 5, 60, 80
10, 260340, Note_on_c, 5, 60, 0
10, 260340, Note_on_c, 5, 57, 0
10, 260400, Note_on_c, 5, 60, 80
10, 260400, Note_on_c, 5, 69, 80
10, 260460, Note_on_c, 5, 69, 0
10, 260460, Note_on_c, 5, 60, 0
10, 260520, Note_on_c, 5, 60, 80
10, 260520, Note_on_c, 5, 69, 80
10, 260580, Note_on_c, 5, 69, 0
10, 260580, Note_on_c, 5, 60, 0
10, 260640, Note_on_c, 5, 57, 80
10, 260640, Note_on_c, 5, 66, 80
10, 260700, Note_on_c, 5, 66, 0
10, 260700, Note_on_c, 5, 57, 0
10, 260760, Note_on_c, 5, 57, 80
10, 260760, Note_on_c, 5, 66, 80
10, 260820, Note_on_c, 5, 66, 0
10, 260820, Note_on_c, 5, 57, 0
10, 260880, Note_on_c, 5, 66, 80
10, 260880, Note_on_c, 5, 69, 80
10, 260940, Note_on_c, 5, 69, 0
10, 260940, Note_on_c, 5, 66, 0
10, 261000, Note_on_c, 5, 66, 80
10, 261000, Note_on_c, 5, 69, 80
10, 261060, Note_on_c, 5, 69, 0
10, 261060, Note_on_c, 5, 66, 0
10, 261120, Note_on_c, 5, 55, 80
10, 261120, Note_on_c, 5, 62, 80
10, 261180, Note_on_c, 5, 62, 0
10, 261180, Note_on_c, 5, 55, 0
10, 261240, Note_on_c, 5, 55, 80
10, 261240, Note_on_c, 5, 62, 80
10, 261300, Note_on_c, 5, 62, 0
10, 261300, Note_on_c, 5, 55, 0
10, 261360, Note_on_c, 5, 62, 80
10, 261360, Note_on_c, 5, 67, 80
10, 261420, Note_on_c, 5, 67, 0
10, 261420, Note_on_c, 5, 62, 0
10, 261480, Note_on_c, 5, 62, 80
10, 261480, Note_on_c, 5, 67, 80
10, 261540, Note_on_c, 5, 67, 0
10, 261540, Note_on_c, 5, 62, 0
10, 261600, Note_on_c, 5, 55, 80
10, 261600, Note_on_c, 5, 62, 80
10, 261660, Note_on_c, 5, 62, 0
10, 261660, Note_on_c, 5, 55, 0
10, 261720, Note_on_c, 5, 55, 80
10, 261720, Note_on_c, 5, 62, 80
10, 261780, Note_on_c, 5, 62, 0
10, 261780, Note_on_c, 5, 55, 0
10, 261840, Note_on_c, 5, 62, 80
10, 261840, Note_on_c, 5, 67, 80
10, 261900, Note_on_c, 5, 67, 0
10, 261900, Note_on_c, 5, 62, 0
10, 261960, Note_on_c, 5, 62, 80
10, 261960, Note_on_c, 5, 67, 80
10, 262020, Note_on_c, 5, 67, 0
10, 262020, Note_on_c, 5, 62, 0
10, 262080, Note_on_c, 5, 63, 80
10, 262080, Note_on_c, 5, 57, 80
10, 262140, Note_on_c, 5, 57, 0
10, 262140, Note_on_c, 5, 63, 0
10, 262200, Note_on_c, 5, 63, 80
10, 262200, Note_on_c, 5, 57, 80
10, 262260, Note_on_c, 5, 57, 0
10, 262260, Note_on_c, 5, 63, 0
10, 262320, Note_on_c, 5, 66, 80
10, 262320, Note_on_c, 5, 63, 80
10, 262380, Note_on_c, 5, 63, 0
10, 262380, Note_on_c, 5, 66, 0
10, 262440, Note_on_c, 5, 66, 80
10, 262440, Note_on_c, 5, 63, 80
10, 262500, Note_on_c, 5, 63, 0
10, 262500, Note_on_c, 5, 66, 0
10, 262560, Note_on_c, 5, 63, 80
10, 262560, Note_on_c, 5, 57, 80
10, 262620, Note_on_c, 5, 57, 0
10, 262620, Note_on_c, 5, 63, 0
10, 262680, Note_on_c, 5, 63, 80
10, 262680, Note_on_c, 5, 57, 80
10, 262740, Note_on_c, 5, 57, 0
10, 262740, Note_on_c, 5, 63, 0
10, 262800, Note_on_c, 5, 66, 80
10, 262800, Note_on_c, 5, 63, 80
10, 262860, Note_on_c, 5, 63, 0
10, 262860, Note_on_c, 5, 66, 0
10, 262920, Note_on_c, 5, 66, 80
10, 262920, Note_on_c, 5, 63, 80
10, 262980, Note_on_c, 5, 63, 0
10, 262980, Note_on_c, 5, 66, 0
10, 263040, Note_on_c, 5, 62, 80
10, 263040, Note_on_c, 5, 55, 80
10, 263100, Note_on_c, 5, 55, 0
10, 263100, Note_on_c, 5, 62, 0
10, 263160, Note_on_c, 5, 62, 80
10, 263160, Note_on_c, 5, 55, 80
10, 263220, Note_on_c, 5, 55, 0
10, 263220, Note_on_c, 5, 62, 0
10, 263280, Note_on_c, 5, 67, 80
10, 263280, Note_on_c, 5, 62, 80
10, 263340, Note_on_c, 5, 62, 0
10, 263340, Note_on_c, 5, 67, 0
10, 263400, Note_on_c, 5, 67, 80
10, 263400, Note_on_c, 5, 62, 80
10, 263460, Note_on_c, 5, 62, 0
10, 263460, Note_on_c, 5, 67, 0
10, 263520, Note_on_c, 5, 62, 80
10, 263520, Note_on_c, 5, 55, 80
10, 263580, Note_on_c, 5, 55, 0
10, 263580, Note_on_c, 5, 62, 0
10, 263640, Note_on_c, 5, 62, 80
10, 263640, Note_on_c, 5, 55, 80
10, 263700, Note_on_c, 5, 55, 0
10, 263700, Note_on_c, 5, 62, 0
10, 263760, Note_on_c, 5, 67, 80
10, 263760, Note_on_c, 5, 62, 80
10, 263820, Note_on_c, 5, 62, 0
10, 263820, Note_on_c, 5, 67, 0
10, 263880, Note_on_c, 5, 67, 80
10, 263880, Note_on_c, 5, 62, 80
10, 263940, Note_on_c, 5, 62, 0
10, 263940, Note_on_c, 5, 67, 0
10, 264000, Note_on_c, 5, 57, 80
10, 264000, Note_on_c, 5, 63, 80
10, 264060, Note_on_c, 5, 63, 0
10, 264060, Note_on_c, 5, 57, 0
10, 264120, Note_on_c, 5, 57, 80
10, 264120, Note_on_c, 5, 63, 80
10, 264180, Note_on_c, 5, 63, 0
10, 264180, Note_on_c, 5, 57, 0
10, 264240, Note_on_c, 5, 63, 80
10, 264240, Note_on_c, 5, 66, 80
10, 264300, Note_on_c, 5, 66, 0
10, 264300, Note_on_c, 5, 63, 0
10, 264360, Note_on_c, 5, 63, 80
10, 264360, Note_on_c, 5, 66, 80
10, 264420, Note_on_c, 5, 66, 0
10, 264420, Note_on_c, 5, 63, 0
10, 264480, Note_on_c, 5, 57, 80
10, 264480, Note_on_c, 5, 63, 80
10, 264540, Note_on_c, 5, 63, 0
10, 264540, Note_on_c, 5, 57, 0
10, 264600, Note_on_c, 5, 57, 80
10, 264600, Note_on_c, 5, 63, 80
10, 264660, Note_on_c, 5, 63, 0
10, 264660, Note_on_c, 5, 57, 0
10, 264720, Note_on_c, 5, 63, 80
10, 264720, Note_on_c, 5, 66, 80
10, 264780, Note_on_c, 5, 66, 0
10, 264780, Note_on_c, 5, 63, 0
10, 264840, Note_on_c, 5, 63, 80
10, 264840, Note_on_c, 5, 66, 80
10, 264900, Note_on_c, 5, 66, 0
10, 264900, Note_on_c, 5, 63, 0
10, 264960, Note_on_c, 5, 62, 80
10, 264960, Note_on_c, 5, 55, 80
10, 265920, Note_on_c, 5, 55, 0
10, 265920, Note_on_c, 5, 62, 0
10, 265920, Note_on_c, 5, 58, 80
10, 266640, Note_on_c, 5, 58, 0
10, 266640, Note_on_c, 5, 57, 80
10, 266880, Note_on_c, 5, 57, 0
10, 266880, Note_on_c, 5, 55, 80
10, 267360, Note_on_c, 5, 55, 0
10, 267360, Note_on_c, 5, 54, 80
10, 267600, Note_on_c, 5, 54, 0
10, 267600, Note_on_c, 5, 55, 80
10, 267840, Note_on_c, 5, 55, 0
10, 267840, Note_on_c, 5, 57, 80
10, 268224, Note_on_c, 5, 57, 0
10, 268560, Note_on_c, 5, 62, 110
10, 268656, Note_on_c, 5, 62, 0
10, 268680, Note_on_c, 5, 62, 110
10, 268776, Note_on_c, 5, 62, 0
10, 268800, Note_on_c, 5, 62, 110
10, 269184, Note_on_c, 5, 62, 0
10, 269520, Note_on_c, 5, 62, 110
10, 269616, Note_on_c, 5, 62, 0
10, 269640, Note_on_c, 5, 62, 110
10, 269736, Note_on_c, 5, 62, 0
10, 269760, Note_on_c, 5, 62, 110
10, 270144, Note_on_c, 5, 62, 0
10, 270480, Note_on_c, 5, 62, 110
10, 270576, Note_on_c, 5, 62, 0
10, 270600, Note_on_c, 5, 62, 110
10, 270696, Note_on_c, 5, 62, 0
10, 270720, Note_on_c, 5, 62, 110
10, 270912, Note_on_c, 5, 62, 0
10, 270960, Note_on_c, 5, 62, 105
10, 271056, Note_on_c, 5, 62, 0
10, 271080, Note_on_c, 5, 62, 102
10, 271176, Note_on_c, 5, 62, 0
10, 271200, Note_on_c, 5, 62, 100
10, 271392, Note_on_c, 5, 62, 0
10, 271440, Note_on_c, 5, 62, 95
10, 271536, Note_on_c, 5, 62, 0
10, 271560, Note_on_c, 5, 62, 92
10, 271656, Note_on_c, 5, 62, 0
10, 271680, Note_on_c, 5, 62, 80
10, 272064, Note_on_c, 5, 62, 0
10, 273600, Note_on_c, 5, 55, 80
10, 273600, Note_on_c, 5, 58, 80
10, 273660, Note_on_c, 5, 58, 0
10, 273660, Note_on_c, 5, 55, 0
10, 273720, Note_on_c, 5, 55, 80
10, 273720, Note_on_c, 5, 58, 80
10, 273780, Note_on_c, 5, 58, 0
10, 273780, Note_on_c, 5, 55, 0
10, 273840, Note_on_c, 5, 62, 80
10, 273840, Note_on_c, 5, 67, 80
10, 273900, Note_on_c, 5, 67, 0
10, 273900, Note_on_c, 5, 62, 0
10, 273960, Note_on_c, 5, 62, 80
10, 273960, Note_on_c, 5, 67, 80
10, 274020, Note_on_c, 5, 67, 0
10, 274020, Note_on_c, 5, 62, 0
10, 274080, Note_on_c, 5, 55, 80
10, 274080, Note_on_c, 5, 58, 80
10, 274140, Note_on_c, 5, 58, 0
10, 274140, Note_on_c, 5, 55, 0
10, 274200, Note_on_c, 5, 55, 80
10, 274200, Note_on_c, 5, 58, 80
10, 274260, Note_on_c, 5, 58, 0
10, 274260, Note_on_c, 5, 55, 0
10, 274320, Note_on_c, 5, 62, 80
10, 274320, Note_on_c, 5, 67, 80
10, 274380, Note_on_c, 5, 67, 0
10, 274380, Note_on_c, 5, 62, 0
10, 274440, Note_on_c, 5, 62, 80
10, 274440, Note_on_c, 5, 67, 80
10, 274500, Note_on_c, 5, 67, 0
10, 274500, Note_on_c, 5, 62, 0
10, 274560, Note_on_c, 5, 63, 80
10, 274560, Note_on_c, 5, 58, 80
10, 274620, Note_on_c, 5, 58, 0
10, 274620, Note_on_c, 5, 63, 0
10, 274680, Note_on_c, 5, 63, 80
10, 274680, Note_on_c, 5, 58, 80
10, 274740, Note_on_c, 5, 58, 0
10, 274740, Note_on_c, 5, 63, 0
10, 274800, Note_on_c, 5, 67, 80
10, 274800, Note_on_c, 5, 63, 80
10, 274860, Note_on_c, 5, 63, 0
10, 274860, Note_on_c, 5, 67, 0
10, 274920, Note_on_c, 5, 67, 80
10, 274920, Note_on_c, 5, 63, 80
10, 274980, Note_on_c, 5, 63, 0
10, 274980, Note_on_c, 5, 67, 0
10, 275040, Note_on_c, 5, 63, 80
10, 275040, Note_on_c, 5, 58, 80
10, 275100, Note_on_c, 5, 58, 0
10, 275100, Note_on_c, 5, 63, 0
10, 275160, Note_on_c, 5, 63, 80
10, 275160, Note_on_c, 5, 58, 80
10, 275220, Note_on_c, 5, 58, 0
10, 275220, Note_on_c, 5, 63, 0
10, 275280, Note_on_c, 5, 70, 80
10, 275280, Note_on_c, 5, 67, 80
10, 275340, Note_on_c, 5, 67, 0
10, 275340, Note_on_c, 5, 70, 0
10, 275400, Note_on_c, 5, 70, 80
10, 275400, Note_on_c, 5, 67, 80
10, 275460, Note_on_c, 5, 67, 0
10, 275460, Note_on_c, 5, 70, 0
10, 275520, Note_on_c, 5, 58, 80
10, 275520, Note_on_c, 5, 56, 80
10, 275580, Note_on_c, 5, 56, 0
10, 275580, Note_on_c, 5, 58, 0
10, 275640, Note_on_c, 5, 58, 80
10, 275640, Note_on_c, 5, 56, 80
10, 275700, Note_on_c, 5, 56, 0
10, 275700, Note_on_c, 5, 58, 0
10, 275760, Note_on_c, 5, 58, 80
10, 275760, Note_on_c, 5, 68, 80
10, 275820, Note_on_c, 5, 68, 0
10, 275820, Note_on_c, 5, 58, 0
10, 275880, Note_on_c, 5, 58, 80
10, 275880, Note_on_c, 5, 68, 80
10, 275940, Note_on_c, 5, 68, 0
10, 275940, Note_on_c, 5, 58, 0
10, 276000, Note_on_c, 5, 58, 80
10, 276000, Note_on_c, 5, 56, 80
10, 276060, Note_on_c, 5, 56, 0
10, 276060, Note_on_c, 5, 58, 0
10, 276120, Note_on_c, 5, 58, 80
10, 276120, Note_on_c, 5, 56, 80
10, 276180, Note_on_c, 5, 56, 0
10, 276180, Note_on_c, 5, 58, 0
10, 276240, Note_on_c, 5, 62, 80
10, 276240, Note_on_c, 5, 58, 80
10, 276300, Note_on_c, 5, 58, 0
10, 276300, Note_on_c, 5, 62, 0
10, 276360, Note_on_c, 5, 62, 80
10, 276360, Note_on_c, 5, 58, 80
10, 276420, Note_on_c, 5, 58, 0
10, 276420, Note_on_c, 5, 62, 0
10, 276480, Note_on_c, 5, 59, 80
10, 276480, Note_on_c, 5, 53, 80
10, 276540, Note_on_c, 5, 53, 0
10, 276540, Note_on_c, 5, 59, 0
10, 276600, Note_on_c, 5, 59, 80
10, 276600, Note_on_c, 5, 53, 80
10, 276660, Note_on_c, 5, 53, 0
10, 276660, Note_on_c, 5, 59, 0
10, 276720, Note_on_c, 5, 59, 80
10, 276720, Note_on_c, 5, 65, 80
10, 276780, Note_on_c, 5, 65, 0
10, 276780, Note_on_c, 5, 59, 0
10, 276840, Note_on_c, 5, 59, 80
10, 276840, Note_on_c, 5, 65, 80
10, 276900, Note_on_c, 5, 65, 0
10, 276900, Note_on_c, 5, 59, 0
10, 276960, Note_on_c, 5, 53, 80
10, 276960, Note_on_c, 5, 59, 80
10, 277020, Note_on_c, 5, 59, 0
10, 277020, Note_on_c, 5, 53, 0
10, 277080, Note_on_c, 5, 53, 80
10, 277080, Note_on_c, 5, 59, 80
10, 277140, Note_on_c, 5, 59, 0
10, 277140, Note_on_c, 5, 53, 0
10, 277200, Note_on_c, 5, 59, 80
10, 277200, Note_on_c, 5, 65, 80
10, 277260, Note_on_c, 5, 65, 0
10, 277260, Note_on_c, 5, 59, 0
10, 277320, Note_on_c, 5, 59, 80
10, 277320, Note_on_c, 5, 65, 80
10, 277380, Note_on_c, 5, 65, 0
10, 277380, Note_on_c, 5, 59, 0
10, 277440, Note_on_c, 5, 53, 80
10, 277440, Note_on_c, 5, 58, 80
10, 277500, Note_on_c, 5, 58, 0
10, 277500, Note_on_c, 5, 53, 0
10, 277560, Note_on_c, 5, 53, 80
10, 277560, Note_on_c, 5, 58, 80
10, 277620, Note_on_c, 5, 58, 0
10, 277620, Note_on_c, 5, 53, 0
10, 277680, Note_on_c, 5, 65, 80
10, 277680, Note_on_c, 5, 68, 80
10, 277740, Note_on_c, 5, 68, 0
10, 277740, Note_on_c, 5, 65, 0
10, 277800, Note_on_c, 5, 65, 80
10, 277800, Note_on_c, 5, 68, 80
10, 277860, Note_on_c, 5, 68, 0
10, 277860, Note_on_c, 5, 65, 0
10, 277920, Note_on_c, 5, 58, 80
10, 277920, Note_on_c, 5, 53, 80
10, 277980, Note_on_c, 5, 53, 0
10, 277980, Note_on_c, 5, 58, 0
10, 278040, Note_on_c, 5, 58, 80
10, 278040, Note_on_c, 5, 53, 80
10, 278100, Note_on_c, 5, 53, 0
10, 278100, Note_on_c, 5, 58, 0
10, 278160, Note_on_c, 5, 68, 80
10, 278160, Note_on_c, 5, 58, 80
10, 278220, Note_on_c, 5, 58, 0
10, 278220, Note_on_c, 5, 68, 0
10, 278280, Note_on_c, 5, 68, 80
10, 278280, Note_on_c, 5, 58, 80
10, 278340, Note_on_c, 5, 58, 0
10, 278340, Note_on_c, 5, 68, 0
10, 278400, Note_on_c, 5, 53, 80
10, 278400, Note_on_c, 5, 56, 80
10, 278460, Note_on_c, 5, 56, 0
10, 278460, Note_on_c, 5, 53, 0
10, 278520, Note_on_c, 5, 53, 80
10, 278520, Note_on_c, 5, 56, 80
10, 278580, Note_on_c, 5, 56, 0
10, 278580, Note_on_c, 5, 53, 0
10, 278640, Note_on_c, 5, 65, 80
10, 278640, Note_on_c, 5, 56, 80
10, 278700, Note_on_c, 5, 56, 0
10, 278700, Note_on_c, 5, 65, 0
10, 278760, Note_on_c, 5, 65, 80
10, 278760, Note_on_c, 5, 56, 80
10, 278820, Note_on_c, 5, 56, 0
10, 278820, Note_on_c, 5, 65, 0
10, 278880, Note_on_c, 5, 62, 80
10, 278880, Note_on_c, 5, 53, 80
10, 278940, Note_on_c, 5, 53, 0
10, 278940, Note_on_c, 5, 62, 0
10, 279000, Note_on_c, 5, 62, 80
10, 279000, Note_on_c, 5, 53, 80
10, 279060, Note_on_c, 5, 53, 0
10, 279060, Note_on_c, 5, 62, 0
10, 279120, Note_on_c, 5, 65, 80
10, 279120, Note_on_c, 5, 62, 80
10, 279180, Note_on_c, 5, 62, 0
10, 279180, Note_on_c, 5, 65, 0
10, 279240, Note_on_c, 5, 65, 80
10, 279240, Note_on_c, 5, 62, 80
10, 279300, Note_on_c, 5, 62, 0
10, 279300, Note_on_c, 5, 65, 0
10, 279360, Note_on_c, 5, 63, 110
10, 279528, Note_on_c, 5, 63, 0
10, 279600, Note_on_c, 5, 58, 110
10, 279684, Note_on_c, 5, 58, 0
10, 279720, Note_on_c, 5, 63, 110
10, 279804, Note_on_c, 5, 63, 0
10, 279840, Note_on_c, 5, 67, 110
10, 279924, Note_on_c, 5, 67, 0
10, 279960, Note_on_c, 5, 65, 110
10, 280044, Note_on_c, 5, 65, 0
10, 280080, Note_on_c, 5, 67, 110
10, 280164, Note_on_c, 5, 67, 0
10, 280200, Note_on_c, 5, 63, 110
10, 280284, Note_on_c, 5, 63, 0
10, 280320, Note_on_c, 5, 62, 110
10, 280404, Note_on_c, 5, 62, 0
10, 280440, Note_on_c, 5, 63, 110
10, 280524, Note_on_c, 5, 63, 0
10, 280560, Note_on_c, 5, 65, 110
10, 280644, Note_on_c, 5, 65, 0
10, 280680, Note_on_c, 5, 63, 110
10, 280764, Note_on_c, 5, 63, 0
10, 280800, Note_on_c, 5, 62, 110
10, 280884, Note_on_c, 5, 62, 0
10, 280920, Note_on_c, 5, 60, 110
10, 281004, Note_on_c, 5, 60, 0
10, 281040, Note_on_c, 5, 62, 110
10, 281124, Note_on_c, 5, 62, 0
10, 281160, Note_on_c, 5, 58, 110
10, 281244, Note_on_c, 5, 58, 0
10, 281280, Note_on_c, 5, 63, 110
10, 281364, Note_on_c, 5, 63, 0
10, 281400, Note_on_c, 5, 60, 110
10, 281484, Note_on_c, 5, 60, 0
10, 281520, Note_on_c, 5, 63, 110
10, 281604, Note_on_c, 5, 63, 0
10, 281640, Note_on_c, 5, 60, 110
10, 281724, Note_on_c, 5, 60, 0
10, 281760, Note_on_c, 5, 63, 110
10, 281844, Note_on_c, 5, 63, 0
10, 281880, Note_on_c, 5, 60, 110
10, 281964, Note_on_c, 5, 60, 0
10, 282000, Note_on_c, 5, 63, 110
10, 282084, Note_on_c, 5, 63, 0
10, 282120, Note_on_c, 5, 60, 110
10, 282204, Note_on_c, 5, 60, 0
10, 282240, Note_on_c, 5, 63, 110
10, 282324, Note_on_c, 5, 63, 0
10, 282360, Note_on_c, 5, 58, 110
10, 282444, Note_on_c, 5, 58, 0
10, 282480, Note_on_c, 5, 63, 110
10, 282564, Note_on_c, 5, 63, 0
10, 282600, Note_on_c, 5, 58, 110
10, 282684, Note_on_c, 5, 58, 0
10, 282720, Note_on_c, 5, 63, 110
10, 282804, Note_on_c, 5, 63, 0
10, 282840, Note_on_c, 5, 58, 110
10, 282924, Note_on_c, 5, 58, 0
10, 282960, Note_on_c, 5, 63, 110
10, 283044, Note_on_c, 5, 63, 0
10, 283080, Note_on_c, 5, 58, 110
10, 283164, Note_on_c, 5, 58, 0
10, 283200, Note_on_c, 5, 60, 110
10, 283284, Note_on_c, 5, 60, 0
10, 283320, Note_on_c, 5, 68, 110
10, 283404, Note_on_c, 5, 68, 0
10, 283440, Note_on_c, 5, 72, 110
10, 283524, Note_on_c, 5, 72, 0
10, 283560, Note_on_c, 5, 68, 110
10, 283644, Note_on_c, 5, 68, 0
10, 283680, Note_on_c, 5, 72, 110
10, 283764, Note_on_c, 5, 72, 0
10, 283800, Note_on_c, 5, 68, 110
10, 283884, Note_on_c, 5, 68, 0
10, 283920, Note_on_c, 5, 72, 110
10, 284004, Note_on_c, 5, 72, 0
10, 284040, Note_on_c, 5, 68, 110
10, 284124, Note_on_c, 5, 68, 0
10, 284160, Note_on_c, 5, 70, 110
10, 284244, Note_on_c, 5, 70, 0
10, 284280, Note_on_c, 5, 67, 110
10, 284364, Note_on_c, 5, 67, 0
10, 284400, Note_on_c, 5, 70, 110
10, 284484, Note_on_c, 5, 70, 0
10, 284520, Note_on_c, 5, 67, 110
10, 284604, Note_on_c, 5, 67, 0
10, 284640, Note_on_c, 5, 68, 110
10, 284724, Note_on_c, 5, 68, 0
10, 284760, Note_on_c, 5, 65, 110
10, 284844, Note_on_c, 5, 65, 0
10, 284880, Note_on_c, 5, 68, 110
10, 284964, Note_on_c, 5, 68, 0
10, 285000, Note_on_c, 5, 65, 110
10, 285084, Note_on_c, 5, 65, 0
10, 285120, Note_on_c, 5, 67, 110
10, 285204, Note_on_c, 5, 67, 0
10, 285240, Note_on_c, 5, 64, 110
10, 285324, Note_on_c, 5, 64, 0
10, 285360, Note_on_c, 5, 67, 110
10, 285444, Note_on_c, 5, 67, 0
10, 285480, Note_on_c, 5, 64, 110
10, 285564, Note_on_c, 5, 64, 0
10, 285600, Note_on_c, 5, 64, 110
10, 285684, Note_on_c, 5, 64, 0
10, 285720, Note_on_c, 5, 60, 110
10, 285804, Note_on_c, 5, 60, 0
10, 285840, Note_on_c, 5, 64, 110
10, 285924, Note_on_c, 5, 64, 0
10, 285960, Note_on_c, 5, 60, 110
10, 286044, Note_on_c, 5, 60, 0
10, 286080, Note_on_c, 5, 65, 110
10, 286896, Note_on_c, 5, 65, 0
10, 287040, Note_on_c, 5, 72, 110
10, 287880, Note_on_c, 5, 72, 0
10, 287880, Note_on_c, 5, 60, 110
10, 287982, Note_on_c, 5, 60, 0
10, 288000, Note_on_c, 5, 58, 110
10, 288144, Note_on_c, 5, 58, 0
10, 288240, Note_on_c, 5, 61, 110
10, 288384, Note_on_c, 5, 61, 0
10, 288480, Note_on_c, 5, 67, 110
10, 288624, Note_on_c, 5, 67, 0
10, 288960, Note_on_c, 5, 56, 110
10, 289104, Note_on_c, 5, 56, 0
10, 289200, Note_on_c, 5, 60, 110
10, 289344, Note_on_c, 5, 60, 0
10, 289440, Note_on_c, 5, 65, 110
10, 289584, Note_on_c, 5, 65, 0
10, 289800, Note_on_c, 5, 56, 110
10, 289872, Note_on_c, 5, 56, 0
10, 289920, Note_on_c, 5, 55, 110
10, 290064, Note_on_c, 5, 55, 0
10, 290160, Note_on_c, 5, 58, 114
10, 290304, Note_on_c, 5, 58, 0
10, 290400, Note_on_c, 5, 64, 119
10, 290544, Note_on_c, 5, 64, 0
10, 290760, Note_on_c, 5, 55, 125
10, 290832, Note_on_c, 5, 55, 0
10, 290880, Note_on_c, 5, 53, 127
10, 291024, Note_on_c, 5, 53, 0
10, 291120, Note_on_c, 5, 56, 127
10, 291264, Note_on_c, 5, 56, 0
10, 291360, Note_on_c, 5, 60, 127
10, 291504, Note_on_c, 5, 60, 0
10, 291720, Note_on_c, 5, 53, 127
10, 291792, Note_on_c, 5, 53, 0
10, 291840, Note_on_c, 5, 58, 127
10, 291984, Note_on_c, 5, 58, 0
10, 292080, Note_on_c, 5, 62, 127
10, 292224, Note_on_c, 5, 62, 0
10, 292320, Note_on_c, 5, 65, 127
10, 292464, Note_on_c, 5, 65, 0
10, 292680, Note_on_c, 5, 58, 127
10, 292752, Note_on_c, 5, 58, 0
10, 292800, Note_on_c, 5, 63, 127
10, 292944, Note_on_c, 5, 63, 0
10, 293040, Note_on_c, 5, 67, 127
10, 293184, Note_on_c, 5, 67, 0
10, 293280, Note_on_c, 5, 70, 127
10, 293424, Note_on_c, 5, 70, 0
10, 293640, Note_on_c, 5, 51, 127
10, 293736, Note_on_c, 5, 51, 0
10, 293760, Note_on_c, 5, 56, 127
10, 293904, Note_on_c, 5, 56, 0
10, 294000, Note_on_c, 5, 60, 127
10, 294144, Note_on_c, 5, 60, 0
10, 294240, Note_on_c, 5, 63, 127
10, 294384, Note_on_c, 5, 63, 0
10, 294600, Note_on_c, 5, 56, 127
10, 294696, Note_on_c, 5, 56, 0
10, 294720, Note_on_c, 5, 62, 127
10, 294864, Note_on_c, 5, 62, 0
10, 294960, Note_on_c, 5, 65, 127
10, 295104, Note_on_c, 5, 65, 0
10, 295200, Note_on_c, 5, 69, 127
10, 295344, Note_on_c, 5, 69, 0
10, 295560, Note_on_c, 5, 62, 127
10, 295656, Note_on_c, 5, 62, 0
10, 295680, Note_on_c, 5, 67, 127
10, 295824, Note_on_c, 5, 67, 0
10, 295920, Note_on_c, 5, 71, 127
10, 296064, Note_on_c, 5, 71, 0
10, 296160, Note_on_c, 5, 74, 127
10, 296304, Note_on_c, 5, 74, 0
10, 296520, Note_on_c, 5, 55, 127
10, 296616, Note_on_c, 5, 55, 0
10, 296640, Note_on_c, 5, 60, 127
10, 296784, Note_on_c, 5, 60, 0
10, 296880, Note_on_c, 5, 63, 127
10, 297024, Note_on_c, 5, 63, 0
10, 297120, Note_on_c, 5, 69, 127
10, 297264, Note_on_c, 5, 69, 0
10, 297480, Note_on_c, 5, 60, 127
10, 297576, Note_on_c, 5, 60, 0
10, 297600, Note_on_c, 5, 62, 127
10, 297744, Note_on_c, 5, 62, 0
10, 297840, Note_on_c, 5, 66, 127
10, 297984, Note_on_c, 5, 66, 0
10, 298080, Note_on_c, 5, 69, 127
10, 298224, Note_on_c, 5, 69, 0
10, 298560, Note_on_c, 5, 70, 127
10, 298644, Note_on_c, 5, 70, 0
10, 298680, Note_on_c, 5, 67, 127
10, 298764, Note_on_c, 5, 67, 0
10, 298800, Note_on_c, 5, 70, 127
10, 298884, Note_on_c, 5, 70, 0
10, 298920, Note_on_c, 5, 67, 127
10, 299004, Note_on_c, 5, 67, 0
10, 299040, Note_on_c, 5, 70, 127
10, 299124, Note_on_c, 5, 70, 0
10, 299160, Note_on_c, 5, 67, 127
10, 299244, Note_on_c, 5, 67, 0
10, 299280, Note_on_c, 5, 70, 127
10, 299364, Note_on_c, 5, 70, 0
10, 299400, Note_on_c, 5, 67, 127
10, 299484, Note_on_c, 5, 67, 0
10, 299520, Note_on_c, 5, 69, 127
10, 299604, Note_on_c, 5, 69, 0
10, 299640, Note_on_c, 5, 65, 127
10, 299724, Note_on_c, 5, 65, 0
10, 299760, Note_on_c, 5, 69, 127
10, 299844, Note_on_c, 5, 69, 0
10, 299880, Note_on_c, 5, 65, 127
10, 299964, Note_on_c, 5, 65, 0
10, 300000, Note_on_c, 5, 69, 127
10, 300084, Note_on_c, 5, 69, 0
10, 300120, Note_on_c, 5, 65, 127
10, 300204, Note_on_c, 5, 65, 0
10, 300240, Note_on_c, 5, 69, 127
10, 300324, Note_on_c, 5, 69, 0
10, 300360, Note_on_c, 5, 65, 127
10, 300444, Note_on_c, 5, 65, 0
10, 300480, Note_on_c, 5, 67, 127
10, 300564, Note_on_c, 5, 67, 0
10, 300600, Note_on_c, 5, 63, 127
10, 300684, Note_on_c, 5, 63, 0
10, 300720, Note_on_c, 5, 67, 127
10, 300804, Note_on_c, 5, 67, 0
10, 300840, Note_on_c, 5, 63, 127
10, 300924, Note_on_c, 5, 63, 0
10, 300960, Note_on_c, 5, 67, 127
10, 301044, Note_on_c, 5, 67, 0
10, 301080, Note_on_c, 5, 63, 127
10, 301164, Note_on_c, 5, 63, 0
10, 301200, Note_on_c, 5, 67, 127
10, 301284, Note_on_c, 5, 67, 0
10, 301320, Note_on_c, 5, 63, 127
10, 301404, Note_on_c, 5, 63, 0
10, 301440, Note_on_c, 5, 67, 127
10, 301524, Note_on_c, 5, 67, 0
10, 301560, Note_on_c, 5, 62, 127
10, 301644, Note_on_c, 5, 62, 0
10, 301680, Note_on_c, 5, 67, 127
10, 301764, Note_on_c, 5, 67, 0
10, 301800, Note_on_c, 5, 62, 127
10, 301884, Note_on_c, 5, 62, 0
10, 301920, Note_on_c, 5, 67, 127
10, 302004, Note_on_c, 5, 67, 0
10, 302040, Note_on_c, 5, 62, 127
10, 302124, Note_on_c, 5, 62, 0
10, 302160, Note_on_c, 5, 67, 127
10, 302244, Note_on_c, 5, 67, 0
10, 302280, Note_on_c, 5, 62, 127
10, 302364, Note_on_c, 5, 62, 0
10, 302400, Note_on_c, 5, 63, 127
10, 302484, Note_on_c, 5, 63, 0
10, 302520, Note_on_c, 5, 60, 127
10, 302604, Note_on_c, 5, 60, 0
10, 302640, Note_on_c, 5, 63, 127
10, 302724, Note_on_c, 5, 63, 0
10, 302760, Note_on_c, 5, 60, 127
10, 302844, Note_on_c, 5, 60, 0
10, 302880, Note_on_c, 5, 63, 127
10, 302964, Note_on_c, 5, 63, 0
10, 303000, Note_on_c, 5, 60, 127
10, 303084, Note_on_c, 5, 60, 0
10, 303120, Note_on_c, 5, 63, 127
10, 303204, Note_on_c, 5, 63, 0
10, 303240, Note_on_c, 5, 60, 127
10, 303324, Note_on_c, 5, 60, 0
10, 303360, Note_on_c, 5, 62, 127
10, 303444, Note_on_c, 5, 62, 0
10, 303480, Note_on_c, 5, 58, 127
10, 303564, Note_on_c, 5, 58, 0
10, 303600, Note_on_c, 5, 62, 127
10, 303684, Note_on_c, 5, 62, 0
10, 303720, Note_on_c, 5, 58, 127
10, 303804, Note_on_c, 5, 58, 0
10, 303840, Note_on_c, 5, 62, 127
10, 303924, Note_on_c, 5, 62, 0
10, 303960, Note_on_c, 5, 58, 127
10, 304044, Note_on_c, 5, 58, 0
10, 304080, Note_on_c, 5, 62, 127
10, 304164, Note_on_c, 5, 62, 0
10, 304200, Note_on_c, 5, 58, 127
10, 304284, Note_on_c, 5, 58, 0
10, 304320, Note_on_c, 5, 57, 127
10, 305088, Note_on_c, 5, 57, 0
10, 305280, Note_on_c, 5, 57, 127
10, 305664, Note_on_c, 5, 57, 0
10, 305760, Note_on_c, 5, 58, 127
10, 306144, Note_on_c, 5, 58, 0
10, 306240, Note_on_c, 5, 57, 127
10, 306624, Note_on_c, 5, 57, 0
10, 306720, Note_on_c, 5, 58, 127
10, 307104, Note_on_c, 5, 58, 0
10, 307200, Note_on_c, 5, 57, 127
10, 307584, Note_on_c, 5, 57, 0
10, 308040, Note_on_c, 5, 57, 127
10, 308136, Note_on_c, 5, 57, 0
10, 308160, Note_on_c, 5, 62, 127
10, 308244, Note_on_c, 5, 62, 0
10, 308280, Note_on_c, 5, 66, 127
10, 308364, Note_on_c, 5, 66, 0
10, 308400, Note_on_c, 5, 66, 127
10, 308484, Note_on_c, 5, 66, 0
10, 308520, Note_on_c, 5, 66, 127
10, 308604, Note_on_c, 5, 66, 0
10, 308640, Note_on_c, 5, 66, 127
10, 308724, Note_on_c, 5, 66, 0
10, 308760, Note_on_c, 5, 66, 127
10, 308844, Note_on_c, 5, 66, 0
10, 308880, Note_on_c, 5, 69, 127
10, 308964, Note_on_c, 5, 69, 0
10, 309000, Note_on_c, 5, 69, 127
10, 309084, Note_on_c, 5, 69, 0
10, 309120, Note_on_c, 5, 67, 127
10, 309204, Note_on_c, 5, 67, 0
10, 309240, Note_on_c, 5, 67, 127
10, 309324, Note_on_c, 5, 67, 0
10, 309360, Note_on_c, 5, 67, 127
10, 309444, Note_on_c, 5, 67, 0
10, 309480, Note_on_c, 5, 67, 127
10, 309564, Note_on_c, 5, 67, 0
10, 309600, Note_on_c, 5, 67, 127
10, 309684, Note_on_c, 5, 67, 0
10, 309720, Note_on_c, 5, 67, 127
10, 309804, Note_on_c, 5, 67, 0
10, 309840, Note_on_c, 5, 67, 127
10, 309924, Note_on_c, 5, 67, 0
10, 309960, Note_on_c, 5, 67, 127
10, 310044, Note_on_c, 5, 67, 0
10, 310080, Note_on_c, 5, 66, 127
10, 310164, Note_on_c, 5, 66, 0
10, 310200, Note_on_c, 5, 66, 127
10, 310284, Note_on_c, 5, 66, 0
10, 310320, Note_on_c, 5, 66, 127
10, 310404, Note_on_c, 5, 66, 0
10, 310440, Note_on_c, 5, 66, 127
10, 310524, Note_on_c, 5, 66, 0
10, 310560, Note_on_c, 5, 66, 127
10, 310644, Note_on_c, 5, 66, 0
10, 310680, Note_on_c, 5, 69, 127
10, 310764, Note_on_c, 5, 69, 0
10, 310800, Note_on_c, 5, 66, 127
10, 310884, Note_on_c, 5, 66, 0
10, 310920, Note_on_c, 5, 69, 127
10, 311004, Note_on_c, 5, 69, 0
10, 311040, Note_on_c, 5, 67, 127
10, 311124, Note_on_c, 5, 67, 0
10, 311160, Note_on_c, 5, 67, 127
10, 311244, Note_on_c, 5, 67, 0
10, 311280, Note_on_c, 5, 67, 127
10, 311364, Note_on_c, 5, 67, 0
10, 311400, Note_on_c, 5, 67, 127
10, 311484, Note_on_c, 5, 67, 0
10, 311520, Note_on_c, 5, 64, 127
10, 311604, Note_on_c, 5, 64, 0
10, 311640, Note_on_c, 5, 61, 127
10, 311724, Note_on_c, 5, 61, 0
10, 311760, Note_on_c, 5, 64, 127
10, 311844, Note_on_c, 5, 64, 0
10, 311880, Note_on_c, 5, 61, 127
10, 311964, Note_on_c, 5, 61, 0
10, 312000, Note_on_c, 5, 62, 127
10, 312360, Note_on_c, 5, 62, 0
10, 312480, Note_on_c, 5, 50, 80
10, 312840, Note_on_c, 5, 50, 0
10, 313920, Note_on_c, 5, 58, 80
10, 314640, Note_on_c, 5, 58, 0
10, 314640, Note_on_c, 5, 57, 80
10, 314880, Note_on_c, 5, 57, 0
10, 314880, Note_on_c, 5, 54, 80
10, 315240, Note_on_c, 5, 54, 0
10, 316080, Note_on_c, 5, 59, 80
10, 316320, Note_on_c, 5, 59, 0
10, 316320, Note_on_c, 5, 60, 80
10, 316560, Note_on_c, 5, 60, 0
10, 316560, Note_on_c, 5, 61, 80
10, 316800, Note_on_c, 5, 61, 0
10, 316800, Note_on_c, 5, 62, 80
10, 317280, Note_on_c, 5, 62, 0
10, 317760, Note_on_c, 5, 57, 80
10, 318480, Note_on_c, 5, 57, 0
10, 318480, Note_on_c, 5, 58, 80
10, 318720, Note_on_c, 5, 58, 0
10, 318720, Note_on_c, 5, 64, 80
10, 318960, Note_on_c, 5, 64, 0
10, 318960, Note_on_c, 5, 62, 80
10, 319440, Note_on_c, 5, 62, 0
10, 319440, Note_on_c, 5, 55, 80
10, 319680, Note_on_c, 5, 55, 0
10, 319680, Note_on_c, 5, 60, 80
10, 320040, Note_on_c, 5, 60, 0
10, 320160, Note_on_c, 5, 57, 80
10, 320520, Note_on_c, 5, 57, 0
10, 320640, Note_on_c, 5, 55, 80
10, 321000, Note_on_c, 5, 55, 0
10, 325440, Note_on_c, 5, 57, 80
10, 326160, Note_on_c, 5, 57, 0
10, 326160, Note_on_c, 5, 58, 80
10, 326400, Note_on_c, 5, 58, 0
10, 326400, Note_on_c, 5, 64, 80
10, 326640, Note_on_c, 5, 64, 0
10, 326640, Note_on_c, 5, 62, 80
10, 327120, Note_on_c, 5, 62, 0
10, 327120, Note_on_c, 5, 55, 80
10, 327360, Note_on_c, 5, 55, 0
10, 327360, Note_on_c, 5, 53, 56
10, 327480, Note_on_c, 5, 53, 0
10, 327480, Note_on_c, 5, 50, 56
10, 327600, Note_on_c, 5, 50, 0
10, 327600, Note_on_c, 5, 53, 56
10, 327720, Note_on_c, 5, 53, 0
10, 327720, Note_on_c, 5, 50, 56
10, 327840, Note_on_c, 5, 50, 0
10, 327840, Note_on_c, 5, 53, 56
10, 327960, Note_on_c, 5, 53, 0
10, 327960, Note_on_c, 5, 50, 56
10, 328080, Note_on_c, 5, 50, 0
10, 328080, Note_on_c, 5, 51, 56
10, 328200, Note_on_c, 5, 51, 0
10, 328200, Note_on_c, 5, 55, 56
10, 328320, Note_on_c, 5, 55, 0
10, 328320, Note_on_c, 5, 53, 56
10, 328440, Note_on_c, 5, 53, 0
10, 328440, Note_on_c, 5, 50, 56
10, 328560, Note_on_c, 5, 50, 0
10, 328560, Note_on_c, 5, 53, 56
10, 328680, Note_on_c, 5, 53, 0
10, 328680, Note_on_c, 5, 50, 56
10, 328800, Note_on_c, 5, 50, 0
10, 328800, Note_on_c, 5, 53, 56
10, 328920, Note_on_c, 5, 53, 0
10, 328920, Note_on_c, 5, 50, 56
10, 329040, Note_on_c, 5, 50, 0
10, 329040, Note_on_c, 5, 51, 56
10, 329160, Note_on_c, 5, 51, 0
10, 329160, Note_on_c, 5, 55, 56
10, 329280, Note_on_c, 5, 55, 0
10, 329280, Note_on_c, 5, 53, 56
10, 329400, Note_on_c, 5, 53, 0
10, 329400, Note_on_c, 5, 50, 56
10, 329520, Note_on_c, 5, 50, 0
10, 329520, Note_on_c, 5, 53, 56
10, 329640, Note_on_c, 5, 53, 0
10, 329640, Note_on_c, 5, 50, 56
10, 329760, Note_on_c, 5, 50, 0
10, 329760, Note_on_c, 5, 53, 56
10, 329880, Note_on_c, 5, 53, 0
10, 329880, Note_on_c, 5, 50, 56
10, 330000, Note_on_c, 5, 50, 0
10, 330000, Note_on_c, 5, 51, 56
10, 330120, Note_on_c, 5, 51, 0
10, 330120, Note_on_c, 5, 55, 56
10, 330240, Note_on_c, 5, 55, 0
10, 330240, Note_on_c, 5, 53, 56
10, 330360, Note_on_c, 5, 53, 0
10, 330360, Note_on_c, 5, 50, 56
10, 330480, Note_on_c, 5, 50, 0
10, 330480, Note_on_c, 5, 53, 56
10, 330600, Note_on_c, 5, 53, 0
10, 330600, Note_on_c, 5, 50, 56
10, 330720, Note_on_c, 5, 50, 0
10, 330720, Note_on_c, 5, 53, 56
10, 330840, Note_on_c, 5, 53, 0
10, 330840, Note_on_c, 5, 50, 56
10, 330960, Note_on_c, 5, 50, 0
10, 330960, Note_on_c, 5, 51, 56
10, 331080, Note_on_c, 5, 51, 0
10, 331080, Note_on_c, 5, 55, 56
10, 331200, Note_on_c, 5, 55, 0
10, 331200, Note_on_c, 5, 50, 85
10, 331284, Note_on_c, 5, 50, 0
10, 331320, Note_on_c, 5, 50, 86
10, 331404, Note_on_c, 5, 50, 0
10, 331440, Note_on_c, 5, 50, 86
10, 331524, Note_on_c, 5, 50, 0
10, 331560, Note_on_c, 5, 50, 87
10, 331644, Note_on_c, 5, 50, 0
10, 331680, Note_on_c, 5, 50, 88
10, 331764, Note_on_c, 5, 50, 0
10, 331800, Note_on_c, 5, 50, 88
10, 331884, Note_on_c, 5, 50, 0
10, 331920, Note_on_c, 5, 50, 89
10, 332004, Note_on_c, 5, 50, 0
10, 332040, Note_on_c, 5, 50, 89
10, 332124, Note_on_c, 5, 50, 0
10, 332160, Note_on_c, 5, 50, 90
10, 332244, Note_on_c, 5, 50, 0
10, 332280, Note_on_c, 5, 62, 93
10, 332364, Note_on_c, 5, 62, 0
10, 332400, Note_on_c, 5, 62, 95
10, 332484, Note_on_c, 5, 62, 0
10, 332520, Note_on_c, 5, 62, 98
10, 332604, Note_on_c, 5, 62, 0
10, 332640, Note_on_c, 5, 62, 100
10, 332724, Note_on_c, 5, 62, 0
10, 332760, Note_on_c, 5, 62, 103
10, 332844, Note_on_c, 5, 62, 0
10, 332880, Note_on_c, 5, 62, 105
10, 332964, Note_on_c, 5, 62, 0
10, 333000, Note_on_c, 5, 62, 108
10, 333084, Note_on_c, 5, 62, 0
10, 333120, Note_on_c, 5, 63, 110
10, 333216, Note_on_c, 5, 63, 0
10, 333240, Note_on_c, 5, 63, 110
10, 333336, Note_on_c, 5, 63, 0
10, 333360, Note_on_c, 5, 63, 110
10, 333456, Note_on_c, 5, 63, 0
10, 333480, Note_on_c, 5, 63, 110
10, 333576, Note_on_c, 5, 63, 0
10, 333600, Note_on_c, 5, 51, 110
10, 333696, Note_on_c, 5, 51, 0
10, 333720, Note_on_c, 5, 51, 110
10, 333816, Note_on_c, 5, 51, 0
10, 333840, Note_on_c, 5, 51, 110
10, 333936, Note_on_c, 5, 51, 0
10, 333960, Note_on_c, 5, 51, 110
10, 334056, Note_on_c, 5, 51, 0
10, 334080, Note_on_c, 5, 49, 110
10, 334164, Note_on_c, 5, 49, 0
10, 334200, Note_on_c, 5, 49, 110
10, 334284, Note_on_c, 5, 49, 0
10, 334320, Note_on_c, 5, 49, 110
10, 334404, Note_on_c, 5, 49, 0
10, 334440, Note_on_c, 5, 49, 110
10, 334524, Note_on_c, 5, 49, 0
10, 334560, Note_on_c, 5, 61, 110
10, 334644, Note_on_c, 5, 61, 0
10, 334680, Note_on_c, 5, 61, 110
10, 334764, Note_on_c, 5, 61, 0
10, 334800, Note_on_c, 5, 61, 110
10, 334884, Note_on_c, 5, 61, 0
10, 334920, Note_on_c, 5, 61, 110
10, 335004, Note_on_c, 5, 61, 0
10, 335040, Note_on_c, 5, 65, 110
10, 335124, Note_on_c, 5, 65, 0
10, 335160, Note_on_c, 5, 65, 110
10, 335244, Note_on_c, 5, 65, 0
10, 335280, Note_on_c, 5, 65, 110
10, 335364, Note_on_c, 5, 65, 0
10, 335400, Note_on_c, 5, 65, 110
10, 335484, Note_on_c, 5, 65, 0
10, 335520, Note_on_c, 5, 53, 110
10, 335604, Note_on_c, 5, 53, 0
10, 335640, Note_on_c, 5, 53, 110
10, 335724, Note_on_c, 5, 53, 0
10, 335760, Note_on_c, 5, 53, 110
10, 335844, Note_on_c, 5, 53, 0
10, 335880, Note_on_c, 5, 53, 110
10, 335964, Note_on_c, 5, 53, 0
10, 336000, Note_on_c, 5, 51, 110
10, 336084, Note_on_c, 5, 51, 0
10, 336120, Note_on_c, 5, 51, 110
10, 336204, Note_on_c, 5, 51, 0
10, 336240, Note_on_c, 5, 51, 110
10, 336324, Note_on_c, 5, 51, 0
10, 336360, Note_on_c, 5, 51, 110
10, 336444, Note_on_c, 5, 51, 0
10, 336480, Note_on_c, 5, 63, 110
10, 336564, Note_on_c, 5, 63, 0
10, 336600, Note_on_c, 5, 63, 110
10, 336684, Note_on_c, 5, 63, 0
10, 336720, Note_on_c, 5, 63, 110
10, 336804, Note_on_c, 5, 63, 0
10, 336840, Note_on_c, 5, 63, 110
10, 336924, Note_on_c, 5, 63, 0
10, 336960, Note_on_c, 5, 67, 110
10, 337044, Note_on_c, 5, 67, 0
10, 337080, Note_on_c, 5, 67, 110
10, 337164, Note_on_c, 5, 67, 0
10, 337200, Note_on_c, 5, 67, 110
10, 337284, Note_on_c, 5, 67, 0
10, 337320, Note_on_c, 5, 67, 110
10, 337404, Note_on_c, 5, 67, 0
10, 337440, Note_on_c, 5, 55, 110
10, 337524, Note_on_c, 5, 55, 0
10, 337560, Note_on_c, 5, 55, 110
10, 337644, Note_on_c, 5, 55, 0
10, 337680, Note_on_c, 5, 55, 110
10, 337764, Note_on_c, 5, 55, 0
10, 337800, Note_on_c, 5, 55, 110
10, 337884, Note_on_c, 5, 55, 0
10, 337920, Note_on_c, 5, 62, 110
10, 338016, Note_on_c, 5, 62, 0
10, 338040, Note_on_c, 5, 62, 110
10, 338136, Note_on_c, 5, 62, 0
10, 338160, Note_on_c, 5, 62, 110
10, 338256, Note_on_c, 5, 62, 0
10, 338280, Note_on_c, 5, 62, 110
10, 338376, Note_on_c, 5, 62, 0
10, 338400, Note_on_c, 5, 62, 110
10, 338496, Note_on_c, 5, 62, 0
10, 338520, Note_on_c, 5, 62, 110
10, 338616, Note_on_c, 5, 62, 0
10, 338640, Note_on_c, 5, 62, 110
10, 338736, Note_on_c, 5, 62, 0
10, 338760, Note_on_c, 5, 62, 110
10, 338856, Note_on_c, 5, 62, 0
10, 338880, Note_on_c, 5, 50, 110
10, 338976, Note_on_c, 5, 50, 0
10, 339000, Note_on_c, 5, 50, 110
10, 339096, Note_on_c, 5, 50, 0
10, 339120, Note_on_c, 5, 50, 110
10, 339216, Note_on_c, 5, 50, 0
10, 339240, Note_on_c, 5, 50, 110
10, 339336, Note_on_c, 5, 50, 0
10, 339360, Note_on_c, 5, 50, 110
10, 339456, Note_on_c, 5, 50, 0
10, 339480, Note_on_c, 5, 50, 110
10, 339576, Note_on_c, 5, 50, 0
10, 339600, Note_on_c, 5, 50, 110
10, 339696, Note_on_c, 5, 50, 0
10, 339720, Note_on_c, 5, 50, 110
10, 339816, Note_on_c, 5, 50, 0
10, 339840, Note_on_c, 5, 55, 110
10, 339984, Note_on_c, 5, 55, 0
10, 340080, Note_on_c, 5, 58, 110
10, 340560, Note_on_c, 5, 58, 0
10, 340560, Note_on_c, 5, 60, 110
10, 340704, Note_on_c, 5, 60, 0
10, 340800, Note_on_c, 5, 61, 110
10, 340944, Note_on_c, 5, 61, 0
10, 341040, Note_on_c, 5, 62, 110
10, 341184, Note_on_c, 5, 62, 0
10, 341280, Note_on_c, 5, 63, 110
10, 341424, Note_on_c, 5, 63, 0
10, 341520, Note_on_c, 5, 64, 110
10, 341664, Note_on_c, 5, 64, 0
10, 341760, Note_on_c, 5, 65, 110
10, 342000, Note_on_c, 5, 65, 0
10, 342180, Note_on_c, 5, 65, 127
10, 342228, Note_on_c, 5, 65, 0
10, 342240, Note_on_c, 5, 63, 110
10, 342480, Note_on_c, 5, 63, 0
10, 342660, Note_on_c, 5, 63, 127
10, 342708, Note_on_c, 5, 63, 0
10, 342720, Note_on_c, 5, 72, 110
10, 342960, Note_on_c, 5, 72, 0
10, 343140, Note_on_c, 5, 72, 127
10, 343188, Note_on_c, 5, 72, 0
10, 343200, Note_on_c, 5, 70, 110
10, 343440, Note_on_c, 5, 70, 0
10, 343620, Note_on_c, 5, 70, 127
10, 343668, Note_on_c, 5, 70, 0
10, 343680, Note_on_c, 5, 60, 110
10, 344040, Note_on_c, 5, 60, 0
10, 344640, Note_on_c, 5, 50, 80
10, 345000, Note_on_c, 5, 50, 0
10, 347040, Note_on_c, 5, 60, 80
10, 348000, Note_on_c, 5, 60, 0
10, 348000, Note_on_c, 5, 58, 80
10, 348240, Note_on_c, 5, 58, 0
10, 348960, Note_on_c, 5, 60, 80
10, 349920, Note_on_c, 5, 60, 0
10, 349920, Note_on_c, 5, 58, 80
10, 350160, Note_on_c, 5, 58, 0
10, 350400, Note_on_c, 5, 55, 110
10, 350484, Note_on_c, 5, 55, 0
10, 350520, Note_on_c, 5, 55, 110
10, 350604, Note_on_c, 5, 55, 0
10, 350640, Note_on_c, 5, 55, 110
10, 350724, Note_on_c, 5, 55, 0
10, 350760, Note_on_c, 5, 55, 110
10, 350844, Note_on_c, 5, 55, 0
10, 350880, Note_on_c, 5, 55, 110
10, 350964, Note_on_c, 5, 55, 0
10, 351000, Note_on_c, 5, 55, 110
10, 351084, Note_on_c, 5, 55, 0
10, 351120, Note_on_c, 5, 55, 110
10, 351204, Note_on_c, 5, 55, 0
10, 351240, Note_on_c, 5, 55, 110
10, 351324, Note_on_c, 5, 55, 0
10, 351360, Note_on_c, 5, 60, 110
10, 351444, Note_on_c, 5, 60, 0
10, 351480, Note_on_c, 5, 60, 110
10, 351564, Note_on_c, 5, 60, 0
10, 351600, Note_on_c, 5, 60, 110
10, 351684, Note_on_c, 5, 60, 0
10, 351720, Note_on_c, 5, 60, 110
10, 351804, Note_on_c, 5, 60, 0
10, 351840, Note_on_c, 5, 60, 110
10, 351924, Note_on_c, 5, 60, 0
10, 351960, Note_on_c, 5, 60, 110
10, 352044, Note_on_c, 5, 60, 0
10, 352080, Note_on_c, 5, 60, 110
10, 352164, Note_on_c, 5, 60, 0
10, 352200, Note_on_c, 5, 60, 110
10, 352284, Note_on_c, 5, 60, 0
10, 352320, Note_on_c, 5, 62, 110
10, 352404, Note_on_c, 5, 62, 0
10, 352440, Note_on_c, 5, 62, 110
10, 352524, Note_on_c, 5, 62, 0
10, 352560, Note_on_c, 5, 62, 110
10, 352644, Note_on_c, 5, 62, 0
10, 352680, Note_on_c, 5, 62, 110
10, 352764, Note_on_c, 5, 62, 0
10, 352800, Note_on_c, 5, 50, 110
10, 352884, Note_on_c, 5, 50, 0
10, 352920, Note_on_c, 5, 50, 110
10, 353004, Note_on_c, 5, 50, 0
10, 353040, Note_on_c, 5, 50, 110
10, 353124, Note_on_c, 5, 50, 0
10, 353160, Note_on_c, 5, 50, 110
10, 353244, Note_on_c, 5, 50, 0
10, 353280, Note_on_c, 5, 55, 110
10, 353520, Note_on_c, 5, 55, 0
10, 353760, Note_on_c, 5, 67, 80
10, 354720, Note_on_c, 5, 67, 0
10, 354720, Note_on_c, 5, 66, 80
10, 354960, Note_on_c, 5, 66, 0
10, 355680, Note_on_c, 5, 55, 80
10, 356640, Note_on_c, 5, 55, 0
10, 356640, Note_on_c, 5, 54, 80
10, 356880, Note_on_c, 5, 54, 0
10, 358080, Note_on_c, 5, 55, 110
10, 358164, Note_on_c, 5, 55, 0
10, 358200, Note_on_c, 5, 55, 110
10, 358284, Note_on_c, 5, 55, 0
10, 358320, Note_on_c, 5, 55, 110
10, 358404, Note_on_c, 5, 55, 0
10, 358440, Note_on_c, 5, 55, 110
10, 358524, Note_on_c, 5, 55, 0
10, 358560, Note_on_c, 5, 55, 110
10, 358644, Note_on_c, 5, 55, 0
10, 358680, Note_on_c, 5, 55, 110
10, 358764, Note_on_c, 5, 55, 0
10, 358800, Note_on_c, 5, 55, 110
10, 358884, Note_on_c, 5, 55, 0
10, 358920, Note_on_c, 5, 55, 110
10, 359004, Note_on_c, 5, 55, 0
10, 359040, Note_on_c, 5, 60, 110
10, 359124, Note_on_c, 5, 60, 0
10, 359160, Note_on_c, 5, 60, 110
10, 359244, Note_on_c, 5, 60, 0
10, 359280, Note_on_c, 5, 60, 110
10, 359364, Note_on_c, 5, 60, 0
10, 359400, Note_on_c, 5, 60, 110
10, 359484, Note_on_c, 5, 60, 0
10, 359520, Note_on_c, 5, 60, 110
10, 359604, Note_on_c, 5, 60, 0
10, 359640, Note_on_c, 5, 60, 110
10, 359724, Note_on_c, 5, 60, 0
10, 359760, Note_on_c, 5, 60, 110
10, 359844, Note_on_c, 5, 60, 0
10, 359880, Note_on_c, 5, 60, 110
10, 359964, Note_on_c, 5, 60, 0
10, 360000, Note_on_c, 5, 62, 110
10, 360084, Note_on_c, 5, 62, 0
10, 360120, Note_on_c, 5, 62, 110
10, 360204, Note_on_c, 5, 62, 0
10, 360240, Note_on_c, 5, 62, 110
10, 360324, Note_on_c, 5, 62, 0
10, 360360, Note_on_c, 5, 62, 110
10, 360444, Note_on_c, 5, 62, 0
10, 360480, Note_on_c, 5, 50, 110
10, 360564, Note_on_c, 5, 50, 0
10, 360600, Note_on_c, 5, 50, 110
10, 360684, Note_on_c, 5, 50, 0
10, 360720, Note_on_c, 5, 50, 110
10, 360804, Note_on_c, 5, 50, 0
10, 360840, Note_on_c, 5, 50, 110
10, 360924, Note_on_c, 5, 50, 0
10, 360960, Note_on_c, 5, 55, 110
10, 361344, Note_on_c, 5, 55, 0
10, 361800, Note_on_c, 5, 74, 110
10, 361896, Note_on_c, 5, 74, 0
10, 361920, Note_on_c, 5, 72, 110
10, 362004, Note_on_c, 5, 72, 0
10, 362040, Note_on_c, 5, 70, 110
10, 362124, Note_on_c, 5, 70, 0
10, 362160, Note_on_c, 5, 69, 110
10, 362244, Note_on_c, 5, 69, 0
10, 362280, Note_on_c, 5, 67, 110
10, 362364, Note_on_c, 5, 67, 0
10, 362400, Note_on_c, 5, 66, 110
10, 362484, Note_on_c, 5, 66, 0
10, 362520, Note_on_c, 5, 63, 110
10, 362604, Note_on_c, 5, 63, 0
10, 362640, Note_on_c, 5, 62, 110
10, 362724, Note_on_c, 5, 62, 0
10, 362760, Note_on_c, 5, 60, 110
10, 362844, Note_on_c, 5, 60, 0
10, 362880, Note_on_c, 5, 58, 110
10, 363024, Note_on_c, 5, 58, 0
10, 363120, Note_on_c, 5, 58, 110
10, 363264, Note_on_c, 5, 58, 0
10, 363360, Note_on_c, 5, 60, 110
10, 363504, Note_on_c, 5, 60, 0
10, 363600, Note_on_c, 5, 62, 110
10, 363744, Note_on_c, 5, 62, 0
10, 363840, Note_on_c, 5, 67, 110
10, 363924, Note_on_c, 5, 67, 0
10, 363960, Note_on_c, 5, 62, 110
10, 364044, Note_on_c, 5, 62, 0
10, 364080, Note_on_c, 5, 70, 110
10, 364164, Note_on_c, 5, 70, 0
10, 364200, Note_on_c, 5, 69, 110
10, 364284, Note_on_c, 5, 69, 0
10, 364320, Note_on_c, 5, 67, 110
10, 364404, Note_on_c, 5, 67, 0
10, 364440, Note_on_c, 5, 65, 110
10, 364524, Note_on_c, 5, 65, 0
10, 364560, Note_on_c, 5, 63, 110
10, 364644, Note_on_c, 5, 63, 0
10, 364680, Note_on_c, 5, 62, 110
10, 364764, Note_on_c, 5, 62, 0
10, 364800, Note_on_c, 5, 61, 110
10, 364884, Note_on_c, 5, 61, 0
10, 364920, Note_on_c, 5, 64, 110
10, 365004, Note_on_c, 5, 64, 0
10, 365040, Note_on_c, 5, 69, 110
10, 365124, Note_on_c, 5, 69, 0
10, 365160, Note_on_c, 5, 67, 110
10, 365244, Note_on_c, 5, 67, 0
10, 365280, Note_on_c, 5, 66, 110
10, 365364, Note_on_c, 5, 66, 0
10, 365400, Note_on_c, 5, 63, 110
10, 365484, Note_on_c, 5, 63, 0
10, 365520, Note_on_c, 5, 62, 110
10, 365604, Note_on_c, 5, 62, 0
10, 365640, Note_on_c, 5, 60, 110
10, 365724, Note_on_c, 5, 60, 0
10, 365760, Note_on_c, 5, 58, 110
10, 365952, Note_on_c, 5, 58, 0
10, 366000, Note_on_c, 5, 55, 110
10, 366000, Note_on_c, 5, 67, 110
10, 366384, Note_on_c, 5, 67, 0
10, 366384, Note_on_c, 5, 55, 0
10, 366480, Note_on_c, 5, 55, 110
10, 366480, Note_on_c, 5, 67, 110
10, 366912, Note_on_c, 5, 67, 0
10, 366912, Note_on_c, 5, 55, 0
10, 366960, Note_on_c, 5, 55, 110
10, 366960, Note_on_c, 5, 67, 110
10, 367344, Note_on_c, 5, 67, 0
10, 367344, Note_on_c, 5, 55, 0
10, 367440, Note_on_c, 5, 55, 110
10, 367440, Note_on_c, 5, 67, 110
10, 367872, Note_on_c, 5, 67, 0
10, 367872, Note_on_c, 5, 55, 0
10, 367920, Note_on_c, 5, 55, 110
10, 367920, Note_on_c, 5, 67, 110
10, 368304, Note_on_c, 5, 67, 0
10, 368304, Note_on_c, 5, 55, 0
10, 368400, Note_on_c, 5, 55, 110
10, 368400, Note_on_c, 5, 67, 110
10, 368832, Note_on_c, 5, 67, 0
10, 368832, Note_on_c, 5, 55, 0
10, 368880, Note_on_c, 5, 55, 110
10, 368880, Note_on_c, 5, 67, 110
10, 369264, Note_on_c, 5, 67, 0
10, 369264, Note_on_c, 5, 55, 0
10, 374160, Note_on_c, 5, 65, 80
10, 374280, Note_on_c, 5, 65, 0
10, 374280, Note_on_c, 5, 63, 80
10, 374400, Note_on_c, 5, 63, 0
10, 374400, Note_on_c, 5, 63, 80
10, 374592, Note_on_c, 5, 63, 0
10, 374640, Note_on_c, 5, 65, 80
10, 374760, Note_on_c, 5, 65, 0
10, 374760, Note_on_c, 5, 63, 80
10, 374880, Note_on_c, 5, 63, 0
10, 374880, Note_on_c, 5, 63, 80
10, 375072, Note_on_c, 5, 63, 0
10, 375120, Note_on_c, 5, 65, 80
10, 375240, Note_on_c, 5, 65, 0
10, 375240, Note_on_c, 5, 63, 80
10, 375360, Note_on_c, 5, 63, 0
10, 375360, Note_on_c, 5, 62, 80
10, 375600, Note_on_c, 5, 62, 0
10, 375600, Note_on_c, 5, 74, 80
10, 376080, Note_on_c, 5, 74, 0
10, 376080, Note_on_c, 5, 72, 80
10, 376560, Note_on_c, 5, 72, 0
10, 376560, Note_on_c, 5, 70, 80
10, 377040, Note_on_c, 5, 70, 0
10, 377040, Note_on_c, 5, 69, 80
10, 377280, Note_on_c, 5, 69, 0
10, 377280, Note_on_c, 5, 67, 110
10, 377520, Note_on_c, 5, 67, 0
10, 377760, Note_on_c, 5, 62, 110
10, 378000, Note_on_c, 5, 62, 0
10, 378240, Note_on_c, 5, 67, 110
10, 378480, Note_on_c, 5, 67, 0
10, 378720, Note_on_c, 5, 62, 110
10, 378960, Note_on_c, 5, 62, 0
10, 379200, Note_on_c, 5, 67, 110
10, 379440, Note_on_c, 5, 67, 0
10, 379680, Note_on_c, 5, 62, 110
10, 379920, Note_on_c, 5, 62, 0
10, 380160, Note_on_c, 5, 67, 110
10, 380352, Note_on_c, 5, 67, 0
10, 380400, Note_on_c, 5, 62, 110
10, 380592, Note_on_c, 5, 62, 0
10, 380640, Note_on_c, 5, 67, 110
10, 380832, Note_on_c, 5, 67, 0
10, 380880, Note_on_c, 5, 62, 110
10, 381072, Note_on_c, 5, 62, 0
10, 381120, Note_on_c, 5, 67, 110
10, 381480, Note_on_c, 5, 67, 0
10, 382080, Note_on_c, 5, 55, 110
10, 382320, Note_on_c, 5, 55, 0
10, 382560, Note_on_c, 5, 67, 110
10, 382800, Note_on_c, 5, 67, 0
10, 383040, Note_on_c, 5, 55, 110
10, 383760, Note_on_c, 5, 55, 0
10, 383760, End_track
11, 0, Start_track
11, 0, MIDI_port, 0
11, 0, Title_t, "Violoncello."
11, 0, Program_c, 6, 48
11, 114, Control_c, 6, 10, 87
11, 496, Control_c, 6, 91, 127
11, 960, Note_on_c, 6, 43, 80
11, 1200, Note_on_c, 6, 43, 0
11, 1920, Note_on_c, 6, 55, 80
11, 2160, Note_on_c, 6, 55, 0
11, 2880, Note_on_c, 6, 43, 80
11, 3120, Note_on_c, 6, 43, 0
11, 3840, Note_on_c, 6, 55, 80
11, 4080, Note_on_c, 6, 55, 0
11, 4800, Note_on_c, 6, 43, 80
11, 5040, Note_on_c, 6, 43, 0
11, 5760, Note_on_c, 6, 55, 80
11, 6000, Note_on_c, 6, 55, 0
11, 6720, Note_on_c, 6, 42, 80
11, 6960, Note_on_c, 6, 42, 0
11, 7680, Note_on_c, 6, 50, 80
11, 7920, Note_on_c, 6, 50, 0
11, 8640, Note_on_c, 6, 43, 80
11, 8880, Note_on_c, 6, 43, 0
11, 9600, Note_on_c, 6, 48, 80
11, 10560, Note_on_c, 6, 48, 0
11, 10560, Note_on_c, 6, 46, 80
11, 11520, Note_on_c, 6, 46, 0
11, 11520, Note_on_c, 6, 48, 80
11, 12480, Note_on_c, 6, 48, 0
11, 12480, Note_on_c, 6, 46, 80
11, 13440, Note_on_c, 6, 46, 0
11, 13440, Note_on_c, 6, 52, 80
11, 14400, Note_on_c, 6, 52, 0
11, 14400, Note_on_c, 6, 51, 80
11, 15360, Note_on_c, 6, 51, 0
11, 15360, Note_on_c, 6, 50, 80
11, 15744, Note_on_c, 6, 50, 0
11, 16080, Note_on_c, 6, 50, 110
11, 16176, Note_on_c, 6, 50, 0
11, 16200, Note_on_c, 6, 50, 110
11, 16296, Note_on_c, 6, 50, 0
11, 16320, Note_on_c, 6, 50, 110
11, 16704, Note_on_c, 6, 50, 0
11, 17040, Note_on_c, 6, 50, 110
11, 17136, Note_on_c, 6, 50, 0
11, 17160, Note_on_c, 6, 50, 110
11, 17256, Note_on_c, 6, 50, 0
11, 17280, Note_on_c, 6, 50, 110
11, 17664, Note_on_c, 6, 50, 0
11, 18000, Note_on_c, 6, 50, 110
11, 18096, Note_on_c, 6, 50, 0
11, 18120, Note_on_c, 6, 50, 110
11, 18216, Note_on_c, 6, 50, 0
11, 18240, Note_on_c, 6, 50, 110
11, 18432, Note_on_c, 6, 50, 0
11, 18480, Note_on_c, 6, 50, 105
11, 18576, Note_on_c, 6, 50, 0
11, 18600, Note_on_c, 6, 50, 102
11, 18696, Note_on_c, 6, 50, 0
11, 18720, Note_on_c, 6, 50, 100
11, 18912, Note_on_c, 6, 50, 0
11, 18960, Note_on_c, 6, 50, 95
11, 19056, Note_on_c, 6, 50, 0
11, 19080, Note_on_c, 6, 50, 92
11, 19176, Note_on_c, 6, 50, 0
11, 19200, Note_on_c, 6, 50, 80
11, 19584, Note_on_c, 6, 50, 0
11, 21120, Note_on_c, 6, 43, 80
11, 21360, Note_on_c, 6, 43, 0
11, 22080, Note_on_c, 6, 55, 80
11, 22320, Note_on_c, 6, 55, 0
11, 23040, Note_on_c, 6, 39, 80
11, 23280, Note_on_c, 6, 39, 0
11, 24000, Note_on_c, 6, 48, 80
11, 24240, Note_on_c, 6, 48, 0
11, 24960, Note_on_c, 6, 41, 80
11, 25200, Note_on_c, 6, 41, 0
11, 25920, Note_on_c, 6, 53, 80
11, 26160, Note_on_c, 6, 53, 0
11, 26880, Note_on_c, 6, 58, 110
11, 26940, Note_on_c, 6, 58, 0
11, 27000, Note_on_c, 6, 62, 110
11, 27060, Note_on_c, 6, 62, 0
11, 27120, Note_on_c, 6, 58, 110
11, 27180, Note_on_c, 6, 58, 0
11, 27240, Note_on_c, 6, 62, 110
11, 27300, Note_on_c, 6, 62, 0
11, 27360, Note_on_c, 6, 58, 110
11, 27420, Note_on_c, 6, 58, 0
11, 27480, Note_on_c, 6, 62, 110
11, 27540, Note_on_c, 6, 62, 0
11, 27600, Note_on_c, 6, 58, 110
11, 27660, Note_on_c, 6, 58, 0
11, 27720, Note_on_c, 6, 62, 110
11, 27780, Note_on_c, 6, 62, 0
11, 27840, Note_on_c, 6, 57, 110
11, 27900, Note_on_c, 6, 57, 0
11, 27960, Note_on_c, 6, 60, 110
11, 28020, Note_on_c, 6, 60, 0
11, 28080, Note_on_c, 6, 57, 110
11, 28140, Note_on_c, 6, 57, 0
11, 28200, Note_on_c, 6, 60, 110
11, 28260, Note_on_c, 6, 60, 0
11, 28320, Note_on_c, 6, 57, 110
11, 28380, Note_on_c, 6, 57, 0
11, 28440, Note_on_c, 6, 60, 110
11, 28500, Note_on_c, 6, 60, 0
11, 28560, Note_on_c, 6, 57, 110
11, 28620, Note_on_c, 6, 57, 0
11, 28680, Note_on_c, 6, 60, 110
11, 28740, Note_on_c, 6, 60, 0
11, 28800, Note_on_c, 6, 55, 110
11, 28860, Note_on_c, 6, 55, 0
11, 28920, Note_on_c, 6, 58, 110
11, 28980, Note_on_c, 6, 58, 0
11, 29040, Note_on_c, 6, 55, 110
11, 29100, Note_on_c, 6, 55, 0
11, 29160, Note_on_c, 6, 58, 110
11, 29220, Note_on_c, 6, 58, 0
11, 29280, Note_on_c, 6, 55, 110
11, 29340, Note_on_c, 6, 55, 0
11, 29400, Note_on_c, 6, 58, 110
11, 29460, Note_on_c, 6, 58, 0
11, 29520, Note_on_c, 6, 55, 110
11, 29580, Note_on_c, 6, 55, 0
11, 29640, Note_on_c, 6, 58, 110
11, 29700, Note_on_c, 6, 58, 0
11, 29760, Note_on_c, 6, 53, 110
11, 29820, Note_on_c, 6, 53, 0
11, 29880, Note_on_c, 6, 58, 110
11, 29940, Note_on_c, 6, 58, 0
11, 30000, Note_on_c, 6, 53, 110
11, 30060, Note_on_c, 6, 53, 0
11, 30120, Note_on_c, 6, 58, 110
11, 30180, Note_on_c, 6, 58, 0
11, 30240, Note_on_c, 6, 53, 110
11, 30300, Note_on_c, 6, 53, 0
11, 30360, Note_on_c, 6, 58, 110
11, 30420, Note_on_c, 6, 58, 0
11, 30480, Note_on_c, 6, 53, 110
11, 30540, Note_on_c, 6, 53, 0
11, 30600, Note_on_c, 6, 58, 110
11, 30660, Note_on_c, 6, 58, 0
11, 30720, Note_on_c, 6, 51, 110
11, 30780, Note_on_c, 6, 51, 0
11, 30840, Note_on_c, 6, 55, 110
11, 30900, Note_on_c, 6, 55, 0
11, 30960, Note_on_c, 6, 51, 110
11, 31020, Note_on_c, 6, 51, 0
11, 31080, Note_on_c, 6, 55, 110
11, 31140, Note_on_c, 6, 55, 0
11, 31200, Note_on_c, 6, 51, 110
11, 31260, Note_on_c, 6, 51, 0
11, 31320, Note_on_c, 6, 55, 110
11, 31380, Note_on_c, 6, 55, 0
11, 31440, Note_on_c, 6, 51, 110
11, 31500, Note_on_c, 6, 51, 0
11, 31560, Note_on_c, 6, 55, 110
11, 31620, Note_on_c, 6, 55, 0
11, 31680, Note_on_c, 6, 50, 110
11, 31740, Note_on_c, 6, 50, 0
11, 31800, Note_on_c, 6, 53, 110
11, 31860, Note_on_c, 6, 53, 0
11, 31920, Note_on_c, 6, 50, 110
11, 31980, Note_on_c, 6, 50, 0
11, 32040, Note_on_c, 6, 53, 110
11, 32100, Note_on_c, 6, 53, 0
11, 32160, Note_on_c, 6, 50, 110
11, 32220, Note_on_c, 6, 50, 0
11, 32280, Note_on_c, 6, 53, 110
11, 32340, Note_on_c, 6, 53, 0
11, 32400, Note_on_c, 6, 50, 110
11, 32460, Note_on_c, 6, 50, 0
11, 32520, Note_on_c, 6, 53, 110
11, 32580, Note_on_c, 6, 53, 0
11, 32640, Note_on_c, 6, 48, 77
11, 33600, Note_on_c, 6, 48, 0
11, 33600, Note_on_c, 6, 48, 77
11, 33984, Note_on_c, 6, 48, 0
11, 34080, Note_on_c, 6, 49, 77
11, 34464, Note_on_c, 6, 49, 0
11, 34560, Note_on_c, 6, 48, 77
11, 34944, Note_on_c, 6, 48, 0
11, 35040, Note_on_c, 6, 49, 77
11, 35424, Note_on_c, 6, 49, 0
11, 35520, Note_on_c, 6, 48, 110
11, 35904, Note_on_c, 6, 48, 0
11, 36360, Note_on_c, 6, 48, 110
11, 36456, Note_on_c, 6, 48, 0
11, 36480, Note_on_c, 6, 53, 110
11, 36540, Note_on_c, 6, 53, 0
11, 36600, Note_on_c, 6, 53, 110
11, 36660, Note_on_c, 6, 53, 0
11, 36720, Note_on_c, 6, 53, 110
11, 36780, Note_on_c, 6, 53, 0
11, 36840, Note_on_c, 6, 53, 110
11, 36900, Note_on_c, 6, 53, 0
11, 36960, Note_on_c, 6, 53, 110
11, 37020, Note_on_c, 6, 53, 0
11, 37080, Note_on_c, 6, 53, 110
11, 37140, Note_on_c, 6, 53, 0
11, 37200, Note_on_c, 6, 53, 110
11, 37260, Note_on_c, 6, 53, 0
11, 37320, Note_on_c, 6, 53, 110
11, 37380, Note_on_c, 6, 53, 0
11, 37440, Note_on_c, 6, 53, 110
11, 37500, Note_on_c, 6, 53, 0
11, 37560, Note_on_c, 6, 53, 110
11, 37620, Note_on_c, 6, 53, 0
11, 37680, Note_on_c, 6, 53, 110
11, 37740, Note_on_c, 6, 53, 0
11, 37800, Note_on_c, 6, 53, 110
11, 37860, Note_on_c, 6, 53, 0
11, 37920, Note_on_c, 6, 53, 110
11, 37980, Note_on_c, 6, 53, 0
11, 38040, Note_on_c, 6, 53, 110
11, 38100, Note_on_c, 6, 53, 0
11, 38160, Note_on_c, 6, 53, 110
11, 38220, Note_on_c, 6, 53, 0
11, 38280, Note_on_c, 6, 53, 110
11, 38340, Note_on_c, 6, 53, 0
11, 38400, Note_on_c, 6, 53, 110
11, 38460, Note_on_c, 6, 53, 0
11, 38520, Note_on_c, 6, 53, 110
11, 38580, Note_on_c, 6, 53, 0
11, 38640, Note_on_c, 6, 53, 110
11, 38700, Note_on_c, 6, 53, 0
11, 38760, Note_on_c, 6, 53, 110
11, 38820, Note_on_c, 6, 53, 0
11, 38880, Note_on_c, 6, 53, 110
11, 38940, Note_on_c, 6, 53, 0
11, 39000, Note_on_c, 6, 53, 110
11, 39060, Note_on_c, 6, 53, 0
11, 39120, Note_on_c, 6, 53, 110
11, 39180, Note_on_c, 6, 53, 0
11, 39240, Note_on_c, 6, 53, 110
11, 39300, Note_on_c, 6, 53, 0
11, 39360, Note_on_c, 6, 53, 110
11, 39420, Note_on_c, 6, 53, 0
11, 39480, Note_on_c, 6, 53, 110
11, 39540, Note_on_c, 6, 53, 0
11, 39600, Note_on_c, 6, 53, 110
11, 39660, Note_on_c, 6, 53, 0
11, 39720, Note_on_c, 6, 53, 110
11, 39780, Note_on_c, 6, 53, 0
11, 39840, Note_on_c, 6, 53, 110
11, 39900, Note_on_c, 6, 53, 0
11, 39960, Note_on_c, 6, 53, 110
11, 40020, Note_on_c, 6, 53, 0
11, 40080, Note_on_c, 6, 53, 110
11, 40140, Note_on_c, 6, 53, 0
11, 40200, Note_on_c, 6, 53, 110
11, 40260, Note_on_c, 6, 53, 0
11, 40320, Note_on_c, 6, 53, 110
11, 40560, Note_on_c, 6, 53, 0
11, 40800, Note_on_c, 6, 41, 77
11, 41040, Note_on_c, 6, 41, 0
11, 42240, Note_on_c, 6, 62, 80
11, 42960, Note_on_c, 6, 62, 0
11, 42960, Note_on_c, 6, 60, 80
11, 43200, Note_on_c, 6, 60, 0
11, 43200, Note_on_c, 6, 53, 80
11, 43560, Note_on_c, 6, 53, 0
11, 44400, Note_on_c, 6, 55, 80
11, 44544, Note_on_c, 6, 55, 0
11, 44640, Note_on_c, 6, 55, 80
11, 44880, Note_on_c, 6, 55, 0
11, 44880, Note_on_c, 6, 52, 80
11, 45120, Note_on_c, 6, 52, 0
11, 45120, Note_on_c, 6, 53, 80
11, 45504, Note_on_c, 6, 53, 0
11, 46080, Note_on_c, 6, 51, 80
11, 46800, Note_on_c, 6, 51, 0
11, 46800, Note_on_c, 6, 50, 80
11, 47040, Note_on_c, 6, 50, 0
11, 47040, Note_on_c, 6, 55, 80
11, 47280, Note_on_c, 6, 55, 0
11, 47280, Note_on_c, 6, 48, 80
11, 47520, Note_on_c, 6, 48, 0
11, 47520, Note_on_c, 6, 53, 80
11, 47760, Note_on_c, 6, 53, 0
11, 47760, Note_on_c, 6, 46, 80
11, 48000, Note_on_c, 6, 46, 0
11, 48000, Note_on_c, 6, 51, 80
11, 48240, Note_on_c, 6, 51, 0
11, 48480, Note_on_c, 6, 53, 80
11, 48720, Note_on_c, 6, 53, 0
11, 48960, Note_on_c, 6, 46, 80
11, 49320, Note_on_c, 6, 46, 0
11, 53760, Note_on_c, 6, 63, 80
11, 54480, Note_on_c, 6, 63, 0
11, 54480, Note_on_c, 6, 62, 80
11, 54720, Note_on_c, 6, 62, 0
11, 54720, Note_on_c, 6, 55, 80
11, 54960, Note_on_c, 6, 55, 0
11, 54960, Note_on_c, 6, 60, 80
11, 55200, Note_on_c, 6, 60, 0
11, 55200, Note_on_c, 6, 53, 80
11, 55440, Note_on_c, 6, 53, 0
11, 55440, Note_on_c, 6, 58, 80
11, 55680, Note_on_c, 6, 58, 0
11, 55680, Note_on_c, 6, 51, 80
11, 56640, Note_on_c, 6, 51, 0
11, 56640, Note_on_c, 6, 51, 80
11, 57600, Note_on_c, 6, 51, 0
11, 57600, Note_on_c, 6, 51, 80
11, 58560, Note_on_c, 6, 51, 0
11, 58560, Note_on_c, 6, 51, 80
11, 59520, Note_on_c, 6, 51, 0
11, 59520, Note_on_c, 6, 51, 75
11, 59616, Note_on_c, 6, 51, 0
11, 59640, Note_on_c, 6, 51, 78
11, 59736, Note_on_c, 6, 51, 0
11, 59760, Note_on_c, 6, 51, 81
11, 59856, Note_on_c, 6, 51, 0
11, 59880, Note_on_c, 6, 51, 84
11, 59976, Note_on_c, 6, 51, 0
11, 60000, Note_on_c, 6, 51, 88
11, 60096, Note_on_c, 6, 51, 0
11, 60120, Note_on_c, 6, 51, 91
11, 60216, Note_on_c, 6, 51, 0
11, 60240, Note_on_c, 6, 51, 94
11, 60336, Note_on_c, 6, 51, 0
11, 60360, Note_on_c, 6, 51, 97
11, 60456, Note_on_c, 6, 51, 0
11, 60480, Note_on_c, 6, 52, 100
11, 60576, Note_on_c, 6, 52, 0
11, 60600, Note_on_c, 6, 52, 101
11, 60696, Note_on_c, 6, 52, 0
11, 60720, Note_on_c, 6, 52, 103
11, 60816, Note_on_c, 6, 52, 0
11, 60840, Note_on_c, 6, 52, 104
11, 60936, Note_on_c, 6, 52, 0
11, 60960, Note_on_c, 6, 52, 105
11, 61056, Note_on_c, 6, 52, 0
11, 61080, Note_on_c, 6, 52, 106
11, 61176, Note_on_c, 6, 52, 0
11, 61200, Note_on_c, 6, 52, 108
11, 61296, Note_on_c, 6, 52, 0
11, 61320, Note_on_c, 6, 52, 109
11, 61416, Note_on_c, 6, 52, 0
11, 61440, Note_on_c, 6, 53, 110
11, 61536, Note_on_c, 6, 53, 0
11, 61560, Note_on_c, 6, 53, 110
11, 61656, Note_on_c, 6, 53, 0
11, 61680, Note_on_c, 6, 53, 110
11, 61776, Note_on_c, 6, 53, 0
11, 61800, Note_on_c, 6, 53, 110
11, 61896, Note_on_c, 6, 53, 0
11, 61920, Note_on_c, 6, 53, 110
11, 62016, Note_on_c, 6, 53, 0
11, 62040, Note_on_c, 6, 53, 110
11, 62136, Note_on_c, 6, 53, 0
11, 62160, Note_on_c, 6, 53, 110
11, 62256, Note_on_c, 6, 53, 0
11, 62280, Note_on_c, 6, 53, 110
11, 62376, Note_on_c, 6, 53, 0
11, 62400, Note_on_c, 6, 41, 110
11, 62496, Note_on_c, 6, 41, 0
11, 62520, Note_on_c, 6, 41, 110
11, 62616, Note_on_c, 6, 41, 0
11, 62640, Note_on_c, 6, 41, 110
11, 62736, Note_on_c, 6, 41, 0
11, 62760, Note_on_c, 6, 41, 110
11, 62856, Note_on_c, 6, 41, 0
11, 62880, Note_on_c, 6, 41, 110
11, 62976, Note_on_c, 6, 41, 0
11, 63000, Note_on_c, 6, 41, 110
11, 63096, Note_on_c, 6, 41, 0
11, 63120, Note_on_c, 6, 41, 110
11, 63216, Note_on_c, 6, 41, 0
11, 63240, Note_on_c, 6, 41, 110
11, 63336, Note_on_c, 6, 41, 0
11, 63360, Note_on_c, 6, 46, 110
11, 63552, Note_on_c, 6, 46, 0
11, 63600, Note_on_c, 6, 50, 110
11, 64080, Note_on_c, 6, 50, 0
11, 64080, Note_on_c, 6, 51, 110
11, 64224, Note_on_c, 6, 51, 0
11, 64320, Note_on_c, 6, 52, 110
11, 64464, Note_on_c, 6, 52, 0
11, 64560, Note_on_c, 6, 53, 110
11, 64704, Note_on_c, 6, 53, 0
11, 64800, Note_on_c, 6, 54, 110
11, 64944, Note_on_c, 6, 54, 0
11, 65040, Note_on_c, 6, 55, 110
11, 65184, Note_on_c, 6, 55, 0
11, 65280, Note_on_c, 6, 56, 110
11, 65472, Note_on_c, 6, 56, 0
11, 65700, Note_on_c, 6, 56, 127
11, 65748, Note_on_c, 6, 56, 0
11, 65760, Note_on_c, 6, 55, 110
11, 65952, Note_on_c, 6, 55, 0
11, 66180, Note_on_c, 6, 55, 127
11, 66228, Note_on_c, 6, 55, 0
11, 66240, Note_on_c, 6, 63, 110
11, 66432, Note_on_c, 6, 63, 0
11, 66660, Note_on_c, 6, 63, 127
11, 66708, Note_on_c, 6, 63, 0
11, 66720, Note_on_c, 6, 62, 110
11, 66912, Note_on_c, 6, 62, 0
11, 67140, Note_on_c, 6, 62, 127
11, 67188, Note_on_c, 6, 62, 0
11, 67200, Note_on_c, 6, 51, 110
11, 67392, Note_on_c, 6, 51, 0
11, 68160, Note_on_c, 6, 53, 80
11, 68352, Note_on_c, 6, 53, 0
11, 70560, Note_on_c, 6, 51, 56
11, 71520, Note_on_c, 6, 51, 0
11, 71520, Note_on_c, 6, 50, 56
11, 71760, Note_on_c, 6, 50, 0
11, 72480, Note_on_c, 6, 51, 56
11, 73440, Note_on_c, 6, 51, 0
11, 73440, Note_on_c, 6, 50, 56
11, 73680, Note_on_c, 6, 50, 0
11, 73920, Note_on_c, 6, 50, 110
11, 74010, Note_on_c, 6, 50, 0
11, 74040, Note_on_c, 6, 50, 110
11, 74130, Note_on_c, 6, 50, 0
11, 74160, Note_on_c, 6, 50, 110
11, 74250, Note_on_c, 6, 50, 0
11, 74280, Note_on_c, 6, 50, 110
11, 74370, Note_on_c, 6, 50, 0
11, 74400, Note_on_c, 6, 50, 110
11, 74490, Note_on_c, 6, 50, 0
11, 74520, Note_on_c, 6, 50, 110
11, 74610, Note_on_c, 6, 50, 0
11, 74640, Note_on_c, 6, 50, 110
11, 74730, Note_on_c, 6, 50, 0
11, 74760, Note_on_c, 6, 50, 110
11, 74850, Note_on_c, 6, 50, 0
11, 74880, Note_on_c, 6, 55, 110
11, 74970, Note_on_c, 6, 55, 0
11, 75000, Note_on_c, 6, 55, 110
11, 75090, Note_on_c, 6, 55, 0
11, 75120, Note_on_c, 6, 55, 110
11, 75210, Note_on_c, 6, 55, 0
11, 75240, Note_on_c, 6, 55, 110
11, 75330, Note_on_c, 6, 55, 0
11, 75360, Note_on_c, 6, 51, 110
11, 75450, Note_on_c, 6, 51, 0
11, 75480, Note_on_c, 6, 51, 110
11, 75570, Note_on_c, 6, 51, 0
11, 75600, Note_on_c, 6, 51, 110
11, 75690, Note_on_c, 6, 51, 0
11, 75720, Note_on_c, 6, 51, 110
11, 75810, Note_on_c, 6, 51, 0
11, 75840, Note_on_c, 6, 53, 110
11, 75930, Note_on_c, 6, 53, 0
11, 75960, Note_on_c, 6, 53, 110
11, 76050, Note_on_c, 6, 53, 0
11, 76080, Note_on_c, 6, 53, 110
11, 76170, Note_on_c, 6, 53, 0
11, 76200, Note_on_c, 6, 53, 110
11, 76290, Note_on_c, 6, 53, 0
11, 76320, Note_on_c, 6, 41, 110
11, 76410, Note_on_c, 6, 41, 0
11, 76440, Note_on_c, 6, 41, 110
11, 76530, Note_on_c, 6, 41, 0
11, 76560, Note_on_c, 6, 41, 110
11, 76650, Note_on_c, 6, 41, 0
11, 76680, Note_on_c, 6, 41, 110
11, 76770, Note_on_c, 6, 41, 0
11, 76800, Note_on_c, 6, 46, 110
11, 76980, Note_on_c, 6, 46, 0
11, 77280, Note_on_c, 6, 58, 56
11, 78240, Note_on_c, 6, 58, 0
11, 78240, Note_on_c, 6, 57, 56
11, 78480, Note_on_c, 6, 57, 0
11, 79200, Note_on_c, 6, 46, 56
11, 80160, Note_on_c, 6, 46, 0
11, 80160, Note_on_c, 6, 45, 56
11, 80400, Note_on_c, 6, 45, 0
11, 81600, Note_on_c, 6, 50, 110
11, 81690, Note_on_c, 6, 50, 0
11, 81720, Note_on_c, 6, 50, 110
11, 81810, Note_on_c, 6, 50, 0
11, 81840, Note_on_c, 6, 50, 110
11, 81930, Note_on_c, 6, 50, 0
11, 81960, Note_on_c, 6, 50, 110
11, 82050, Note_on_c, 6, 50, 0
11, 82080, Note_on_c, 6, 50, 110
11, 82170, Note_on_c, 6, 50, 0
11, 82200, Note_on_c, 6, 50, 110
11, 82290, Note_on_c, 6, 50, 0
11, 82320, Note_on_c, 6, 50, 110
11, 82410, Note_on_c, 6, 50, 0
11, 82440, Note_on_c, 6, 50, 110
11, 82530, Note_on_c, 6, 50, 0
11, 82560, Note_on_c, 6, 55, 110
11, 82650, Note_on_c, 6, 55, 0
11, 82680, Note_on_c, 6, 55, 110
11, 82770, Note_on_c, 6, 55, 0
11, 82800, Note_on_c, 6, 55, 110
11, 82890, Note_on_c, 6, 55, 0
11, 82920, Note_on_c, 6, 55, 110
11, 83010, Note_on_c, 6, 55, 0
11, 83040, Note_on_c, 6, 51, 110
11, 83130, Note_on_c, 6, 51, 0
11, 83160, Note_on_c, 6, 51, 110
11, 83250, Note_on_c, 6, 51, 0
11, 83280, Note_on_c, 6, 51, 110
11, 83370, Note_on_c, 6, 51, 0
11, 83400, Note_on_c, 6, 51, 110
11, 83490, Note_on_c, 6, 51, 0
11, 83520, Note_on_c, 6, 53, 110
11, 83610, Note_on_c, 6, 53, 0
11, 83640, Note_on_c, 6, 53, 110
11, 83730, Note_on_c, 6, 53, 0
11, 83760, Note_on_c, 6, 53, 110
11, 83850, Note_on_c, 6, 53, 0
11, 83880, Note_on_c, 6, 53, 110
11, 83970, Note_on_c, 6, 53, 0
11, 84000, Note_on_c, 6, 41, 110
11, 84090, Note_on_c, 6, 41, 0
11, 84120, Note_on_c, 6, 41, 110
11, 84210, Note_on_c, 6, 41, 0
11, 84240, Note_on_c, 6, 41, 110
11, 84330, Note_on_c, 6, 41, 0
11, 84360, Note_on_c, 6, 41, 110
11, 84450, Note_on_c, 6, 41, 0
11, 84480, Note_on_c, 6, 46, 110
11, 84864, Note_on_c, 6, 46, 0
11, 85320, Note_on_c, 6, 65, 110
11, 85392, Note_on_c, 6, 65, 0
11, 85440, Note_on_c, 6, 63, 110
11, 85512, Note_on_c, 6, 63, 0
11, 85560, Note_on_c, 6, 62, 110
11, 85632, Note_on_c, 6, 62, 0
11, 85680, Note_on_c, 6, 60, 110
11, 85752, Note_on_c, 6, 60, 0
11, 85800, Note_on_c, 6, 58, 110
11, 85872, Note_on_c, 6, 58, 0
11, 85920, Note_on_c, 6, 57, 110
11, 85992, Note_on_c, 6, 57, 0
11, 86040, Note_on_c, 6, 55, 110
11, 86112, Note_on_c, 6, 55, 0
11, 86160, Note_on_c, 6, 53, 110
11, 86232, Note_on_c, 6, 53, 0
11, 86280, Note_on_c, 6, 51, 110
11, 86352, Note_on_c, 6, 51, 0
11, 86400, Note_on_c, 6, 50, 110
11, 86544, Note_on_c, 6, 50, 0
11, 86640, Note_on_c, 6, 50, 110
11, 86784, Note_on_c, 6, 50, 0
11, 86880, Note_on_c, 6, 51, 110
11, 87024, Note_on_c, 6, 51, 0
11, 87120, Note_on_c, 6, 53, 110
11, 87264, Note_on_c, 6, 53, 0
11, 87360, Note_on_c, 6, 58, 110
11, 87432, Note_on_c, 6, 58, 0
11, 87480, Note_on_c, 6, 53, 110
11, 87552, Note_on_c, 6, 53, 0
11, 87600, Note_on_c, 6, 62, 110
11, 87672, Note_on_c, 6, 62, 0
11, 87720, Note_on_c, 6, 60, 110
11, 87792, Note_on_c, 6, 60, 0
11, 87840, Note_on_c, 6, 58, 110
11, 87912, Note_on_c, 6, 58, 0
11, 87960, Note_on_c, 6, 57, 110
11, 88032, Note_on_c, 6, 57, 0
11, 88080, Note_on_c, 6, 55, 110
11, 88152, Note_on_c, 6, 55, 0
11, 88200, Note_on_c, 6, 53, 110
11, 88272, Note_on_c, 6, 53, 0
11, 88320, Note_on_c, 6, 51, 110
11, 88392, Note_on_c, 6, 51, 0
11, 88440, Note_on_c, 6, 50, 110
11, 88512, Note_on_c, 6, 50, 0
11, 88560, Note_on_c, 6, 48, 110
11, 88632, Note_on_c, 6, 48, 0
11, 88680, Note_on_c, 6, 46, 110
11, 88752, Note_on_c, 6, 46, 0
11, 88800, Note_on_c, 6, 45, 110
11, 88872, Note_on_c, 6, 45, 0
11, 88920, Note_on_c, 6, 48, 110
11, 88992, Note_on_c, 6, 48, 0
11, 89040, Note_on_c, 6, 53, 110
11, 89112, Note_on_c, 6, 53, 0
11, 89160, Note_on_c, 6, 51, 110
11, 89232, Note_on_c, 6, 51, 0
11, 89280, Note_on_c, 6, 50, 110
11, 89424, Note_on_c, 6, 50, 0
11, 89520, Note_on_c, 6, 50, 110
11, 89664, Note_on_c, 6, 50, 0
11, 89760, Note_on_c, 6, 51, 110
11, 89904, Note_on_c, 6, 51, 0
11, 90000, Note_on_c, 6, 53, 110
11, 90144, Note_on_c, 6, 53, 0
11, 90240, Note_on_c, 6, 55, 110
11, 90384, Note_on_c, 6, 55, 0
11, 90480, Note_on_c, 6, 51, 110
11, 90624, Note_on_c, 6, 51, 0
11, 90720, Note_on_c, 6, 53, 110
11, 90864, Note_on_c, 6, 53, 0
11, 90960, Note_on_c, 6, 41, 110
11, 91104, Note_on_c, 6, 41, 0
11, 91200, Note_on_c, 6, 46, 110
11, 91392, Note_on_c, 6, 46, 0
11, 91680, Note_on_c, 6, 53, 110
11, 91872, Note_on_c, 6, 53, 0
11, 92160, Note_on_c, 6, 58, 110
11, 92352, Note_on_c, 6, 58, 0
11, 92640, Note_on_c, 6, 53, 110
11, 92832, Note_on_c, 6, 53, 0
11, 93120, Note_on_c, 6, 58, 110
11, 93312, Note_on_c, 6, 58, 0
11, 93600, Note_on_c, 6, 53, 110
11, 93792, Note_on_c, 6, 53, 0
11, 94080, Note_on_c, 6, 58, 110
11, 94272, Note_on_c, 6, 58, 0
11, 94320, Note_on_c, 6, 53, 110
11, 94512, Note_on_c, 6, 53, 0
11, 94560, Note_on_c, 6, 58, 110
11, 94752, Note_on_c, 6, 58, 0
11, 94800, Note_on_c, 6, 53, 110
11, 94992, Note_on_c, 6, 53, 0
11, 95040, Note_on_c, 6, 58, 110
11, 95400, Note_on_c, 6, 58, 0
11, 96000, Note_on_c, 6, 57, 110
11, 96360, Note_on_c, 6, 57, 0
11, 96960, Note_on_c, 6, 43, 80
11, 97200, Note_on_c, 6, 43, 0
11, 97920, Note_on_c, 6, 55, 80
11, 98160, Note_on_c, 6, 55, 0
11, 98880, Note_on_c, 6, 43, 80
11, 99120, Note_on_c, 6, 43, 0
11, 99840, Note_on_c, 6, 55, 80
11, 100080, Note_on_c, 6, 55, 0
11, 100800, Note_on_c, 6, 43, 80
11, 101040, Note_on_c, 6, 43, 0
11, 101760, Note_on_c, 6, 55, 80
11, 102000, Note_on_c, 6, 55, 0
11, 102720, Note_on_c, 6, 42, 80
11, 102960, Note_on_c, 6, 42, 0
11, 103680, Note_on_c, 6, 50, 80
11, 103920, Note_on_c, 6, 50, 0
11, 104640, Note_on_c, 6, 43, 80
11, 104880, Note_on_c, 6, 43, 0
11, 105600, Note_on_c, 6, 48, 80
11, 106560, Note_on_c, 6, 48, 0
11, 106560, Note_on_c, 6, 46, 80
11, 107520, Note_on_c, 6, 46, 0
11, 107520, Note_on_c, 6, 48, 80
11, 108480, Note_on_c, 6, 48, 0
11, 108480, Note_on_c, 6, 46, 80
11, 109440, Note_on_c, 6, 46, 0
11, 109440, Note_on_c, 6, 52, 80
11, 110400, Note_on_c, 6, 52, 0
11, 110400, Note_on_c, 6, 51, 80
11, 111360, Note_on_c, 6, 51, 0
11, 111360, Note_on_c, 6, 50, 80
11, 111744, Note_on_c, 6, 50, 0
11, 112080, Note_on_c, 6, 50, 110
11, 112176, Note_on_c, 6, 50, 0
11, 112200, Note_on_c, 6, 50, 110
11, 112296, Note_on_c, 6, 50, 0
11, 112320, Note_on_c, 6, 50, 110
11, 112704, Note_on_c, 6, 50, 0
11, 113040, Note_on_c, 6, 50, 110
11, 113136, Note_on_c, 6, 50, 0
11, 113160, Note_on_c, 6, 50, 110
11, 113256, Note_on_c, 6, 50, 0
11, 113280, Note_on_c, 6, 50, 110
11, 113664, Note_on_c, 6, 50, 0
11, 114000, Note_on_c, 6, 50, 110
11, 114096, Note_on_c, 6, 50, 0
11, 114120, Note_on_c, 6, 50, 110
11, 114216, Note_on_c, 6, 50, 0
11, 114240, Note_on_c, 6, 50, 110
11, 114432, Note_on_c, 6, 50, 0
11, 114480, Note_on_c, 6, 50, 105
11, 114576, Note_on_c, 6, 50, 0
11, 114600, Note_on_c, 6, 50, 102
11, 114696, Note_on_c, 6, 50, 0
11, 114720, Note_on_c, 6, 50, 100
11, 114912, Note_on_c, 6, 50, 0
11, 114960, Note_on_c, 6, 50, 95
11, 115056, Note_on_c, 6, 50, 0
11, 115080, Note_on_c, 6, 50, 92
11, 115176, Note_on_c, 6, 50, 0
11, 115200, Note_on_c, 6, 50, 80
11, 115584, Note_on_c, 6, 50, 0
11, 117120, Note_on_c, 6, 43, 80
11, 117360, Note_on_c, 6, 43, 0
11, 118080, Note_on_c, 6, 55, 80
11, 118320, Note_on_c, 6, 55, 0
11, 119040, Note_on_c, 6, 39, 80
11, 119280, Note_on_c, 6, 39, 0
11, 120000, Note_on_c, 6, 48, 80
11, 120240, Note_on_c, 6, 48, 0
11, 120960, Note_on_c, 6, 41, 80
11, 121200, Note_on_c, 6, 41, 0
11, 121920, Note_on_c, 6, 53, 80
11, 122160, Note_on_c, 6, 53, 0
11, 122880, Note_on_c, 6, 58, 110
11, 122940, Note_on_c, 6, 58, 0
11, 123000, Note_on_c, 6, 62, 110
11, 123060, Note_on_c, 6, 62, 0
11, 123120, Note_on_c, 6, 58, 110
11, 123180, Note_on_c, 6, 58, 0
11, 123240, Note_on_c, 6, 62, 110
11, 123300, Note_on_c, 6, 62, 0
11, 123360, Note_on_c, 6, 58, 110
11, 123420, Note_on_c, 6, 58, 0
11, 123480, Note_on_c, 6, 62, 110
11, 123540, Note_on_c, 6, 62, 0
11, 123600, Note_on_c, 6, 58, 110
11, 123660, Note_on_c, 6, 58, 0
11, 123720, Note_on_c, 6, 62, 110
11, 123780, Note_on_c, 6, 62, 0
11, 123840, Note_on_c, 6, 57, 110
11, 123900, Note_on_c, 6, 57, 0
11, 123960, Note_on_c, 6, 60, 110
11, 124020, Note_on_c, 6, 60, 0
11, 124080, Note_on_c, 6, 57, 110
11, 124140, Note_on_c, 6, 57, 0
11, 124200, Note_on_c, 6, 60, 110
11, 124260, Note_on_c, 6, 60, 0
11, 124320, Note_on_c, 6, 57, 110
11, 124380, Note_on_c, 6, 57, 0
11, 124440, Note_on_c, 6, 60, 110
11, 124500, Note_on_c, 6, 60, 0
11, 124560, Note_on_c, 6, 57, 110
11, 124620, Note_on_c, 6, 57, 0
11, 124680, Note_on_c, 6, 60, 110
11, 124740, Note_on_c, 6, 60, 0
11, 124800, Note_on_c, 6, 55, 110
11, 124860, Note_on_c, 6, 55, 0
11, 124920, Note_on_c, 6, 58, 110
11, 124980, Note_on_c, 6, 58, 0
11, 125040, Note_on_c, 6, 55, 110
11, 125100, Note_on_c, 6, 55, 0
11, 125160, Note_on_c, 6, 58, 110
11, 125220, Note_on_c, 6, 58, 0
11, 125280, Note_on_c, 6, 55, 110
11, 125340, Note_on_c, 6, 55, 0
11, 125400, Note_on_c, 6, 58, 110
11, 125460, Note_on_c, 6, 58, 0
11, 125520, Note_on_c, 6, 55, 110
11, 125580, Note_on_c, 6, 55, 0
11, 125640, Note_on_c, 6, 58, 110
11, 125700, Note_on_c, 6, 58, 0
11, 125760, Note_on_c, 6, 53, 110
11, 125820, Note_on_c, 6, 53, 0
11, 125880, Note_on_c, 6, 58, 110
11, 125940, Note_on_c, 6, 58, 0
11, 126000, Note_on_c, 6, 53, 110
11, 126060, Note_on_c, 6, 53, 0
11, 126120, Note_on_c, 6, 58, 110
11, 126180, Note_on_c, 6, 58, 0
11, 126240, Note_on_c, 6, 53, 110
11, 126300, Note_on_c, 6, 53, 0
11, 126360, Note_on_c, 6, 58, 110
11, 126420, Note_on_c, 6, 58, 0
11, 126480, Note_on_c, 6, 53, 110
11, 126540, Note_on_c, 6, 53, 0
11, 126600, Note_on_c, 6, 58, 110
11, 126660, Note_on_c, 6, 58, 0
11, 126720, Note_on_c, 6, 51, 110
11, 126780, Note_on_c, 6, 51, 0
11, 126840, Note_on_c, 6, 55, 110
11, 126900, Note_on_c, 6, 55, 0
11, 126960, Note_on_c, 6, 51, 110
11, 127020, Note_on_c, 6, 51, 0
11, 127080, Note_on_c, 6, 55, 110
11, 127140, Note_on_c, 6, 55, 0
11, 127200, Note_on_c, 6, 51, 110
11, 127260, Note_on_c, 6, 51, 0
11, 127320, Note_on_c, 6, 55, 110
11, 127380, Note_on_c, 6, 55, 0
11, 127440, Note_on_c, 6, 51, 110
11, 127500, Note_on_c, 6, 51, 0
11, 127560, Note_on_c, 6, 55, 110
11, 127620, Note_on_c, 6, 55, 0
11, 127680, Note_on_c, 6, 50, 110
11, 127740, Note_on_c, 6, 50, 0
11, 127800, Note_on_c, 6, 53, 110
11, 127860, Note_on_c, 6, 53, 0
11, 127920, Note_on_c, 6, 50, 110
11, 127980, Note_on_c, 6, 50, 0
11, 128040, Note_on_c, 6, 53, 110
11, 128100, Note_on_c, 6, 53, 0
11, 128160, Note_on_c, 6, 50, 110
11, 128220, Note_on_c, 6, 50, 0
11, 128280, Note_on_c, 6, 53, 110
11, 128340, Note_on_c, 6, 53, 0
11, 128400, Note_on_c, 6, 50, 110
11, 128460, Note_on_c, 6, 50, 0
11, 128520, Note_on_c, 6, 53, 110
11, 128580, Note_on_c, 6, 53, 0
11, 128640, Note_on_c, 6, 48, 77
11, 129600, Note_on_c, 6, 48, 0
11, 129600, Note_on_c, 6, 48, 77
11, 129984, Note_on_c, 6, 48, 0
11, 130080, Note_on_c, 6, 49, 77
11, 130464, Note_on_c, 6, 49, 0
11, 130560, Note_on_c, 6, 48, 77
11, 130944, Note_on_c, 6, 48, 0
11, 131040, Note_on_c, 6, 49, 77
11, 131424, Note_on_c, 6, 49, 0
11, 131520, Note_on_c, 6, 48, 110
11, 131904, Note_on_c, 6, 48, 0
11, 132360, Note_on_c, 6, 48, 110
11, 132456, Note_on_c, 6, 48, 0
11, 132480, Note_on_c, 6, 53, 110
11, 132540, Note_on_c, 6, 53, 0
11, 132600, Note_on_c, 6, 53, 110
11, 132660, Note_on_c, 6, 53, 0
11, 132720, Note_on_c, 6, 53, 110
11, 132780, Note_on_c, 6, 53, 0
11, 132840, Note_on_c, 6, 53, 110
11, 132900, Note_on_c, 6, 53, 0
11, 132960, Note_on_c, 6, 53, 110
11, 133020, Note_on_c, 6, 53, 0
11, 133080, Note_on_c, 6, 53, 110
11, 133140, Note_on_c, 6, 53, 0
11, 133200, Note_on_c, 6, 53, 110
11, 133260, Note_on_c, 6, 53, 0
11, 133320, Note_on_c, 6, 53, 110
11, 133380, Note_on_c, 6, 53, 0
11, 133440, Note_on_c, 6, 53, 110
11, 133500, Note_on_c, 6, 53, 0
11, 133560, Note_on_c, 6, 53, 110
11, 133620, Note_on_c, 6, 53, 0
11, 133680, Note_on_c, 6, 53, 110
11, 133740, Note_on_c, 6, 53, 0
11, 133800, Note_on_c, 6, 53, 110
11, 133860, Note_on_c, 6, 53, 0
11, 133920, Note_on_c, 6, 53, 110
11, 133980, Note_on_c, 6, 53, 0
11, 134040, Note_on_c, 6, 53, 110
11, 134100, Note_on_c, 6, 53, 0
11, 134160, Note_on_c, 6, 53, 110
11, 134220, Note_on_c, 6, 53, 0
11, 134280, Note_on_c, 6, 53, 110
11, 134340, Note_on_c, 6, 53, 0
11, 134400, Note_on_c, 6, 53, 110
11, 134460, Note_on_c, 6, 53, 0
11, 134520, Note_on_c, 6, 53, 110
11, 134580, Note_on_c, 6, 53, 0
11, 134640, Note_on_c, 6, 53, 110
11, 134700, Note_on_c, 6, 53, 0
11, 134760, Note_on_c, 6, 53, 110
11, 134820, Note_on_c, 6, 53, 0
11, 134880, Note_on_c, 6, 53, 110
11, 134940, Note_on_c, 6, 53, 0
11, 135000, Note_on_c, 6, 53, 110
11, 135060, Note_on_c, 6, 53, 0
11, 135120, Note_on_c, 6, 53, 110
11, 135180, Note_on_c, 6, 53, 0
11, 135240, Note_on_c, 6, 53, 110
11, 135300, Note_on_c, 6, 53, 0
11, 135360, Note_on_c, 6, 53, 110
11, 135420, Note_on_c, 6, 53, 0
11, 135480, Note_on_c, 6, 53, 110
11, 135540, Note_on_c, 6, 53, 0
11, 135600, Note_on_c, 6, 53, 110
11, 135660, Note_on_c, 6, 53, 0
11, 135720, Note_on_c, 6, 53, 110
11, 135780, Note_on_c, 6, 53, 0
11, 135840, Note_on_c, 6, 53, 110
11, 135900, Note_on_c, 6, 53, 0
11, 135960, Note_on_c, 6, 53, 110
11, 136020, Note_on_c, 6, 53, 0
11, 136080, Note_on_c, 6, 53, 110
11, 136140, Note_on_c, 6, 53, 0
11, 136200, Note_on_c, 6, 53, 110
11, 136260, Note_on_c, 6, 53, 0
11, 136320, Note_on_c, 6, 53, 110
11, 136560, Note_on_c, 6, 53, 0
11, 136800, Note_on_c, 6, 41, 77
11, 137040, Note_on_c, 6, 41, 0
11, 138240, Note_on_c, 6, 62, 80
11, 138960, Note_on_c, 6, 62, 0
11, 138960, Note_on_c, 6, 60, 80
11, 139200, Note_on_c, 6, 60, 0
11, 139200, Note_on_c, 6, 53, 80
11, 139560, Note_on_c, 6, 53, 0
11, 140400, Note_on_c, 6, 55, 80
11, 140544, Note_on_c, 6, 55, 0
11, 140640, Note_on_c, 6, 55, 80
11, 140880, Note_on_c, 6, 55, 0
11, 140880, Note_on_c, 6, 52, 80
11, 141120, Note_on_c, 6, 52, 0
11, 141120, Note_on_c, 6, 53, 80
11, 141504, Note_on_c, 6, 53, 0
11, 142080, Note_on_c, 6, 51, 80
11, 142800, Note_on_c, 6, 51, 0
11, 142800, Note_on_c, 6, 50, 80
11, 143040, Note_on_c, 6, 50, 0
11, 143040, Note_on_c, 6, 55, 80
11, 143280, Note_on_c, 6, 55, 0
11, 143280, Note_on_c, 6, 48, 80
11, 143520, Note_on_c, 6, 48, 0
11, 143520, Note_on_c, 6, 53, 80
11, 143760, Note_on_c, 6, 53, 0
11, 143760, Note_on_c, 6, 46, 80
11, 144000, Note_on_c, 6, 46, 0
11, 144000, Note_on_c, 6, 51, 80
11, 144240, Note_on_c, 6, 51, 0
11, 144480, Note_on_c, 6, 53, 80
11, 144720, Note_on_c, 6, 53, 0
11, 144960, Note_on_c, 6, 46, 80
11, 145320, Note_on_c, 6, 46, 0
11, 149760, Note_on_c, 6, 63, 80
11, 150480, Note_on_c, 6, 63, 0
11, 150480, Note_on_c, 6, 62, 80
11, 150720, Note_on_c, 6, 62, 0
11, 150720, Note_on_c, 6, 55, 80
11, 150960, Note_on_c, 6, 55, 0
11, 150960, Note_on_c, 6, 60, 80
11, 151200, Note_on_c, 6, 60, 0
11, 151200, Note_on_c, 6, 53, 80
11, 151440, Note_on_c, 6, 53, 0
11, 151440, Note_on_c, 6, 58, 80
11, 151680, Note_on_c, 6, 58, 0
11, 151680, Note_on_c, 6, 51, 80
11, 152640, Note_on_c, 6, 51, 0
11, 152640, Note_on_c, 6, 51, 80
11, 153600, Note_on_c, 6, 51, 0
11, 153600, Note_on_c, 6, 51, 80
11, 154560, Note_on_c, 6, 51, 0
11, 154560, Note_on_c, 6, 51, 80
11, 155520, Note_on_c, 6, 51, 0
11, 155520, Note_on_c, 6, 51, 75
11, 155616, Note_on_c, 6, 51, 0
11, 155640, Note_on_c, 6, 51, 78
11, 155736, Note_on_c, 6, 51, 0
11, 155760, Note_on_c, 6, 51, 81
11, 155856, Note_on_c, 6, 51, 0
11, 155880, Note_on_c, 6, 51, 84
11, 155976, Note_on_c, 6, 51, 0
11, 156000, Note_on_c, 6, 51, 88
11, 156096, Note_on_c, 6, 51, 0
11, 156120, Note_on_c, 6, 51, 91
11, 156216, Note_on_c, 6, 51, 0
11, 156240, Note_on_c, 6, 51, 94
11, 156336, Note_on_c, 6, 51, 0
11, 156360, Note_on_c, 6, 51, 97
11, 156456, Note_on_c, 6, 51, 0
11, 156480, Note_on_c, 6, 52, 100
11, 156576, Note_on_c, 6, 52, 0
11, 156600, Note_on_c, 6, 52, 101
11, 156696, Note_on_c, 6, 52, 0
11, 156720, Note_on_c, 6, 52, 103
11, 156816, Note_on_c, 6, 52, 0
11, 156840, Note_on_c, 6, 52, 104
11, 156936, Note_on_c, 6, 52, 0
11, 156960, Note_on_c, 6, 52, 105
11, 157056, Note_on_c, 6, 52, 0
11, 157080, Note_on_c, 6, 52, 106
11, 157176, Note_on_c, 6, 52, 0
11, 157200, Note_on_c, 6, 52, 108
11, 157296, Note_on_c, 6, 52, 0
11, 157320, Note_on_c, 6, 52, 109
11, 157416, Note_on_c, 6, 52, 0
11, 157440, Note_on_c, 6, 53, 110
11, 157536, Note_on_c, 6, 53, 0
11, 157560, Note_on_c, 6, 53, 110
11, 157656, Note_on_c, 6, 53, 0
11, 157680, Note_on_c, 6, 53, 110
11, 157776, Note_on_c, 6, 53, 0
11, 157800, Note_on_c, 6, 53, 110
11, 157896, Note_on_c, 6, 53, 0
11, 157920, Note_on_c, 6, 53, 110
11, 158016, Note_on_c, 6, 53, 0
11, 158040, Note_on_c, 6, 53, 110
11, 158136, Note_on_c, 6, 53, 0
11, 158160, Note_on_c, 6, 53, 110
11, 158256, Note_on_c, 6, 53, 0
11, 158280, Note_on_c, 6, 53, 110
11, 158376, Note_on_c, 6, 53, 0
11, 158400, Note_on_c, 6, 41, 110
11, 158496, Note_on_c, 6, 41, 0
11, 158520, Note_on_c, 6, 41, 110
11, 158616, Note_on_c, 6, 41, 0
11, 158640, Note_on_c, 6, 41, 110
11, 158736, Note_on_c, 6, 41, 0
11, 158760, Note_on_c, 6, 41, 110
11, 158856, Note_on_c, 6, 41, 0
11, 158880, Note_on_c, 6, 41, 110
11, 158976, Note_on_c, 6, 41, 0
11, 159000, Note_on_c, 6, 41, 110
11, 159096, Note_on_c, 6, 41, 0
11, 159120, Note_on_c, 6, 41, 110
11, 159216, Note_on_c, 6, 41, 0
11, 159240, Note_on_c, 6, 41, 110
11, 159336, Note_on_c, 6, 41, 0
11, 159360, Note_on_c, 6, 46, 110
11, 159552, Note_on_c, 6, 46, 0
11, 159600, Note_on_c, 6, 50, 110
11, 160080, Note_on_c, 6, 50, 0
11, 160080, Note_on_c, 6, 51, 110
11, 160224, Note_on_c, 6, 51, 0
11, 160320, Note_on_c, 6, 52, 110
11, 160464, Note_on_c, 6, 52, 0
11, 160560, Note_on_c, 6, 53, 110
11, 160704, Note_on_c, 6, 53, 0
11, 160800, Note_on_c, 6, 54, 110
11, 160944, Note_on_c, 6, 54, 0
11, 161040, Note_on_c, 6, 55, 110
11, 161184, Note_on_c, 6, 55, 0
11, 161280, Note_on_c, 6, 56, 110
11, 161472, Note_on_c, 6, 56, 0
11, 161700, Note_on_c, 6, 56, 127
11, 161748, Note_on_c, 6, 56, 0
11, 161760, Note_on_c, 6, 55, 110
11, 161952, Note_on_c, 6, 55, 0
11, 162180, Note_on_c, 6, 55, 127
11, 162228, Note_on_c, 6, 55, 0
11, 162240, Note_on_c, 6, 63, 110
11, 162432, Note_on_c, 6, 63, 0
11, 162660, Note_on_c, 6, 63, 127
11, 162708, Note_on_c, 6, 63, 0
11, 162720, Note_on_c, 6, 62, 110
11, 162912, Note_on_c, 6, 62, 0
11, 163140, Note_on_c, 6, 62, 127
11, 163188, Note_on_c, 6, 62, 0
11, 163200, Note_on_c, 6, 51, 110
11, 163392, Note_on_c, 6, 51, 0
11, 164160, Note_on_c, 6, 53, 80
11, 164352, Note_on_c, 6, 53, 0
11, 166560, Note_on_c, 6, 51, 56
11, 167520, Note_on_c, 6, 51, 0
11, 167520, Note_on_c, 6, 50, 56
11, 167760, Note_on_c, 6, 50, 0
11, 168480, Note_on_c, 6, 51, 56
11, 169440, Note_on_c, 6, 51, 0
11, 169440, Note_on_c, 6, 50, 56
11, 169680, Note_on_c, 6, 50, 0
11, 169920, Note_on_c, 6, 50, 110
11, 170010, Note_on_c, 6, 50, 0
11, 170040, Note_on_c, 6, 50, 110
11, 170130, Note_on_c, 6, 50, 0
11, 170160, Note_on_c, 6, 50, 110
11, 170250, Note_on_c, 6, 50, 0
11, 170280, Note_on_c, 6, 50, 110
11, 170370, Note_on_c, 6, 50, 0
11, 170400, Note_on_c, 6, 50, 110
11, 170490, Note_on_c, 6, 50, 0
11, 170520, Note_on_c, 6, 50, 110
11, 170610, Note_on_c, 6, 50, 0
11, 170640, Note_on_c, 6, 50, 110
11, 170730, Note_on_c, 6, 50, 0
11, 170760, Note_on_c, 6, 50, 110
11, 170850, Note_on_c, 6, 50, 0
11, 170880, Note_on_c, 6, 55, 110
11, 170970, Note_on_c, 6, 55, 0
11, 171000, Note_on_c, 6, 55, 110
11, 171090, Note_on_c, 6, 55, 0
11, 171120, Note_on_c, 6, 55, 110
11, 171210, Note_on_c, 6, 55, 0
11, 171240, Note_on_c, 6, 55, 110
11, 171330, Note_on_c, 6, 55, 0
11, 171360, Note_on_c, 6, 51, 110
11, 171450, Note_on_c, 6, 51, 0
11, 171480, Note_on_c, 6, 51, 110
11, 171570, Note_on_c, 6, 51, 0
11, 171600, Note_on_c, 6, 51, 110
11, 171690, Note_on_c, 6, 51, 0
11, 171720, Note_on_c, 6, 51, 110
11, 171810, Note_on_c, 6, 51, 0
11, 171840, Note_on_c, 6, 53, 110
11, 171930, Note_on_c, 6, 53, 0
11, 171960, Note_on_c, 6, 53, 110
11, 172050, Note_on_c, 6, 53, 0
11, 172080, Note_on_c, 6, 53, 110
11, 172170, Note_on_c, 6, 53, 0
11, 172200, Note_on_c, 6, 53, 110
11, 172290, Note_on_c, 6, 53, 0
11, 172320, Note_on_c, 6, 41, 110
11, 172410, Note_on_c, 6, 41, 0
11, 172440, Note_on_c, 6, 41, 110
11, 172530, Note_on_c, 6, 41, 0
11, 172560, Note_on_c, 6, 41, 110
11, 172650, Note_on_c, 6, 41, 0
11, 172680, Note_on_c, 6, 41, 110
11, 172770, Note_on_c, 6, 41, 0
11, 172800, Note_on_c, 6, 46, 110
11, 172980, Note_on_c, 6, 46, 0
11, 173280, Note_on_c, 6, 58, 56
11, 174240, Note_on_c, 6, 58, 0
11, 174240, Note_on_c, 6, 57, 56
11, 174480, Note_on_c, 6, 57, 0
11, 175200, Note_on_c, 6, 46, 56
11, 176160, Note_on_c, 6, 46, 0
11, 176160, Note_on_c, 6, 45, 56
11, 176400, Note_on_c, 6, 45, 0
11, 177600, Note_on_c, 6, 50, 110
11, 177690, Note_on_c, 6, 50, 0
11, 177720, Note_on_c, 6, 50, 110
11, 177810, Note_on_c, 6, 50, 0
11, 177840, Note_on_c, 6, 50, 110
11, 177930, Note_on_c, 6, 50, 0
11, 177960, Note_on_c, 6, 50, 110
11, 178050, Note_on_c, 6, 50, 0
11, 178080, Note_on_c, 6, 50, 110
11, 178170, Note_on_c, 6, 50, 0
11, 178200, Note_on_c, 6, 50, 110
11, 178290, Note_on_c, 6, 50, 0
11, 178320, Note_on_c, 6, 50, 110
11, 178410, Note_on_c, 6, 50, 0
11, 178440, Note_on_c, 6, 50, 110
11, 178530, Note_on_c, 6, 50, 0
11, 178560, Note_on_c, 6, 55, 110
11, 178650, Note_on_c, 6, 55, 0
11, 178680, Note_on_c, 6, 55, 110
11, 178770, Note_on_c, 6, 55, 0
11, 178800, Note_on_c, 6, 55, 110
11, 178890, Note_on_c, 6, 55, 0
11, 178920, Note_on_c, 6, 55, 110
11, 179010, Note_on_c, 6, 55, 0
11, 179040, Note_on_c, 6, 51, 110
11, 179130, Note_on_c, 6, 51, 0
11, 179160, Note_on_c, 6, 51, 110
11, 179250, Note_on_c, 6, 51, 0
11, 179280, Note_on_c, 6, 51, 110
11, 179370, Note_on_c, 6, 51, 0
11, 179400, Note_on_c, 6, 51, 110
11, 179490, Note_on_c, 6, 51, 0
11, 179520, Note_on_c, 6, 53, 110
11, 179610, Note_on_c, 6, 53, 0
11, 179640, Note_on_c, 6, 53, 110
11, 179730, Note_on_c, 6, 53, 0
11, 179760, Note_on_c, 6, 53, 110
11, 179850, Note_on_c, 6, 53, 0
11, 179880, Note_on_c, 6, 53, 110
11, 179970, Note_on_c, 6, 53, 0
11, 180000, Note_on_c, 6, 41, 110
11, 180090, Note_on_c, 6, 41, 0
11, 180120, Note_on_c, 6, 41, 110
11, 180210, Note_on_c, 6, 41, 0
11, 180240, Note_on_c, 6, 41, 110
11, 180330, Note_on_c, 6, 41, 0
11, 180360, Note_on_c, 6, 41, 110
11, 180450, Note_on_c, 6, 41, 0
11, 180480, Note_on_c, 6, 46, 110
11, 180864, Note_on_c, 6, 46, 0
11, 181320, Note_on_c, 6, 65, 110
11, 181392, Note_on_c, 6, 65, 0
11, 181440, Note_on_c, 6, 63, 110
11, 181512, Note_on_c, 6, 63, 0
11, 181560, Note_on_c, 6, 62, 110
11, 181632, Note_on_c, 6, 62, 0
11, 181680, Note_on_c, 6, 60, 110
11, 181752, Note_on_c, 6, 60, 0
11, 181800, Note_on_c, 6, 58, 110
11, 181872, Note_on_c, 6, 58, 0
11, 181920, Note_on_c, 6, 57, 110
11, 181992, Note_on_c, 6, 57, 0
11, 182040, Note_on_c, 6, 55, 110
11, 182112, Note_on_c, 6, 55, 0
11, 182160, Note_on_c, 6, 53, 110
11, 182232, Note_on_c, 6, 53, 0
11, 182280, Note_on_c, 6, 51, 110
11, 182352, Note_on_c, 6, 51, 0
11, 182400, Note_on_c, 6, 50, 110
11, 182544, Note_on_c, 6, 50, 0
11, 182640, Note_on_c, 6, 50, 110
11, 182784, Note_on_c, 6, 50, 0
11, 182880, Note_on_c, 6, 51, 110
11, 183024, Note_on_c, 6, 51, 0
11, 183120, Note_on_c, 6, 53, 110
11, 183264, Note_on_c, 6, 53, 0
11, 183360, Note_on_c, 6, 58, 110
11, 183432, Note_on_c, 6, 58, 0
11, 183480, Note_on_c, 6, 53, 110
11, 183552, Note_on_c, 6, 53, 0
11, 183600, Note_on_c, 6, 62, 110
11, 183672, Note_on_c, 6, 62, 0
11, 183720, Note_on_c, 6, 60, 110
11, 183792, Note_on_c, 6, 60, 0
11, 183840, Note_on_c, 6, 58, 110
11, 183912, Note_on_c, 6, 58, 0
11, 183960, Note_on_c, 6, 57, 110
11, 184032, Note_on_c, 6, 57, 0
11, 184080, Note_on_c, 6, 55, 110
11, 184152, Note_on_c, 6, 55, 0
11, 184200, Note_on_c, 6, 53, 110
11, 184272, Note_on_c, 6, 53, 0
11, 184320, Note_on_c, 6, 51, 110
11, 184392, Note_on_c, 6, 51, 0
11, 184440, Note_on_c, 6, 50, 110
11, 184512, Note_on_c, 6, 50, 0
11, 184560, Note_on_c, 6, 48, 110
11, 184632, Note_on_c, 6, 48, 0
11, 184680, Note_on_c, 6, 46, 110
11, 184752, Note_on_c, 6, 46, 0
11, 184800, Note_on_c, 6, 45, 110
11, 184872, Note_on_c, 6, 45, 0
11, 184920, Note_on_c, 6, 48, 110
11, 184992, Note_on_c, 6, 48, 0
11, 185040, Note_on_c, 6, 53, 110
11, 185112, Note_on_c, 6, 53, 0
11, 185160, Note_on_c, 6, 51, 110
11, 185232, Note_on_c, 6, 51, 0
11, 185280, Note_on_c, 6, 50, 110
11, 185424, Note_on_c, 6, 50, 0
11, 185520, Note_on_c, 6, 50, 110
11, 185664, Note_on_c, 6, 50, 0
11, 185760, Note_on_c, 6, 51, 110
11, 185904, Note_on_c, 6, 51, 0
11, 186000, Note_on_c, 6, 53, 110
11, 186144, Note_on_c, 6, 53, 0
11, 186240, Note_on_c, 6, 55, 110
11, 186384, Note_on_c, 6, 55, 0
11, 186480, Note_on_c, 6, 51, 110
11, 186624, Note_on_c, 6, 51, 0
11, 186720, Note_on_c, 6, 53, 110
11, 186864, Note_on_c, 6, 53, 0
11, 186960, Note_on_c, 6, 41, 110
11, 187104, Note_on_c, 6, 41, 0
11, 187200, Note_on_c, 6, 46, 110
11, 187392, Note_on_c, 6, 46, 0
11, 187680, Note_on_c, 6, 53, 110
11, 187872, Note_on_c, 6, 53, 0
11, 188160, Note_on_c, 6, 58, 110
11, 188352, Note_on_c, 6, 58, 0
11, 188640, Note_on_c, 6, 53, 110
11, 188832, Note_on_c, 6, 53, 0
11, 189120, Note_on_c, 6, 58, 110
11, 189312, Note_on_c, 6, 58, 0
11, 189600, Note_on_c, 6, 53, 110
11, 189792, Note_on_c, 6, 53, 0
11, 190080, Note_on_c, 6, 58, 110
11, 190272, Note_on_c, 6, 58, 0
11, 190320, Note_on_c, 6, 53, 110
11, 190512, Note_on_c, 6, 53, 0
11, 190560, Note_on_c, 6, 58, 110
11, 190752, Note_on_c, 6, 58, 0
11, 190800, Note_on_c, 6, 53, 110
11, 190992, Note_on_c, 6, 53, 0
11, 191040, Note_on_c, 6, 58, 110
11, 191400, Note_on_c, 6, 58, 0
11, 192000, Note_on_c, 6, 57, 110
11, 192360, Note_on_c, 6, 57, 0
11, 192960, Note_on_c, 6, 55, 110
11, 193248, Note_on_c, 6, 55, 0
11, 193440, Note_on_c, 6, 53, 110
11, 193728, Note_on_c, 6, 53, 0
11, 196800, Note_on_c, 6, 42, 80
11, 197160, Note_on_c, 6, 42, 0
11, 197760, Note_on_c, 6, 54, 80
11, 198120, Note_on_c, 6, 54, 0
11, 198720, Note_on_c, 6, 42, 80
11, 199080, Note_on_c, 6, 42, 0
11, 199680, Note_on_c, 6, 54, 80
11, 200040, Note_on_c, 6, 54, 0
11, 200640, Note_on_c, 6, 41, 80
11, 201000, Note_on_c, 6, 41, 0
11, 201600, Note_on_c, 6, 53, 80
11, 201960, Note_on_c, 6, 53, 0
11, 202560, Note_on_c, 6, 40, 80
11, 202920, Note_on_c, 6, 40, 0
11, 203520, Note_on_c, 6, 52, 80
11, 203880, Note_on_c, 6, 52, 0
11, 204480, Note_on_c, 6, 39, 80
11, 204840, Note_on_c, 6, 39, 0
11, 205440, Note_on_c, 6, 47, 80
11, 205680, Note_on_c, 6, 47, 0
11, 206160, Note_on_c, 6, 60, 110
11, 206280, Note_on_c, 6, 60, 0
11, 206280, Note_on_c, 6, 59, 110
11, 206400, Note_on_c, 6, 59, 0
11, 206400, Note_on_c, 6, 59, 110
11, 206640, Note_on_c, 6, 59, 0
11, 206640, Note_on_c, 6, 60, 110
11, 206760, Note_on_c, 6, 60, 0
11, 206760, Note_on_c, 6, 59, 110
11, 206880, Note_on_c, 6, 59, 0
11, 206880, Note_on_c, 6, 59, 110
11, 207120, Note_on_c, 6, 59, 0
11, 207120, Note_on_c, 6, 60, 110
11, 207240, Note_on_c, 6, 60, 0
11, 207240, Note_on_c, 6, 59, 110
11, 207360, Note_on_c, 6, 59, 0
11, 207360, Note_on_c, 6, 59, 110
11, 207600, Note_on_c, 6, 59, 0
11, 207600, Note_on_c, 6, 67, 110
11, 207840, Note_on_c, 6, 67, 0
11, 208080, Note_on_c, 6, 67, 110
11, 208200, Note_on_c, 6, 67, 0
11, 208200, Note_on_c, 6, 66, 110
11, 208320, Note_on_c, 6, 66, 0
11, 208320, Note_on_c, 6, 64, 110
11, 208560, Note_on_c, 6, 64, 0
11, 208560, Note_on_c, 6, 64, 110
11, 208680, Note_on_c, 6, 64, 0
11, 208680, Note_on_c, 6, 62, 110
11, 208800, Note_on_c, 6, 62, 0
11, 208800, Note_on_c, 6, 60, 110
11, 209040, Note_on_c, 6, 60, 0
11, 209040, Note_on_c, 6, 60, 110
11, 209160, Note_on_c, 6, 60, 0
11, 209160, Note_on_c, 6, 59, 110
11, 209280, Note_on_c, 6, 59, 0
11, 209280, Note_on_c, 6, 57, 110
11, 209364, Note_on_c, 6, 57, 0
11, 209400, Note_on_c, 6, 59, 110
11, 209484, Note_on_c, 6, 59, 0
11, 209520, Note_on_c, 6, 60, 110
11, 209604, Note_on_c, 6, 60, 0
11, 209640, Note_on_c, 6, 59, 110
11, 209724, Note_on_c, 6, 59, 0
11, 209760, Note_on_c, 6, 57, 110
11, 209844, Note_on_c, 6, 57, 0
11, 209880, Note_on_c, 6, 58, 110
11, 209964, Note_on_c, 6, 58, 0
11, 210000, Note_on_c, 6, 55, 110
11, 210084, Note_on_c, 6, 55, 0
11, 210120, Note_on_c, 6, 57, 110
11, 210204, Note_on_c, 6, 57, 0
11, 210240, Note_on_c, 6, 53, 110
11, 210324, Note_on_c, 6, 53, 0
11, 210360, Note_on_c, 6, 57, 110
11, 210444, Note_on_c, 6, 57, 0
11, 210480, Note_on_c, 6, 62, 110
11, 210564, Note_on_c, 6, 62, 0
11, 210600, Note_on_c, 6, 53, 110
11, 210684, Note_on_c, 6, 53, 0
11, 210720, Note_on_c, 6, 52, 110
11, 210804, Note_on_c, 6, 52, 0
11, 210840, Note_on_c, 6, 55, 110
11, 210924, Note_on_c, 6, 55, 0
11, 210960, Note_on_c, 6, 61, 110
11, 211044, Note_on_c, 6, 61, 0
11, 211080, Note_on_c, 6, 52, 110
11, 211164, Note_on_c, 6, 52, 0
11, 211200, Note_on_c, 6, 50, 110
11, 211284, Note_on_c, 6, 50, 0
11, 211320, Note_on_c, 6, 45, 110
11, 211404, Note_on_c, 6, 45, 0
11, 211440, Note_on_c, 6, 47, 110
11, 211524, Note_on_c, 6, 47, 0
11, 211560, Note_on_c, 6, 49, 110
11, 211644, Note_on_c, 6, 49, 0
11, 211680, Note_on_c, 6, 50, 110
11, 211764, Note_on_c, 6, 50, 0
11, 211800, Note_on_c, 6, 45, 110
11, 211884, Note_on_c, 6, 45, 0
11, 211920, Note_on_c, 6, 50, 110
11, 212004, Note_on_c, 6, 50, 0
11, 212040, Note_on_c, 6, 52, 110
11, 212124, Note_on_c, 6, 52, 0
11, 212160, Note_on_c, 6, 53, 110
11, 212244, Note_on_c, 6, 53, 0
11, 212280, Note_on_c, 6, 50, 110
11, 212364, Note_on_c, 6, 50, 0
11, 212400, Note_on_c, 6, 52, 110
11, 212484, Note_on_c, 6, 52, 0
11, 212520, Note_on_c, 6, 53, 110
11, 212604, Note_on_c, 6, 53, 0
11, 212640, Note_on_c, 6, 55, 110
11, 212724, Note_on_c, 6, 55, 0
11, 212760, Note_on_c, 6, 50, 110
11, 212844, Note_on_c, 6, 50, 0
11, 212880, Note_on_c, 6, 55, 110
11, 212964, Note_on_c, 6, 55, 0
11, 213000, Note_on_c, 6, 57, 110
11, 213084, Note_on_c, 6, 57, 0
11, 213120, Note_on_c, 6, 58, 110
11, 213360, Note_on_c, 6, 58, 0
11, 213360, Note_on_c, 6, 43, 110
11, 213600, Note_on_c, 6, 43, 0
11, 213840, Note_on_c, 6, 57, 110
11, 213960, Note_on_c, 6, 57, 0
11, 213960, Note_on_c, 6, 55, 110
11, 214080, Note_on_c, 6, 55, 0
11, 214080, Note_on_c, 6, 55, 110
11, 214320, Note_on_c, 6, 55, 0
11, 214320, Note_on_c, 6, 57, 110
11, 214440, Note_on_c, 6, 57, 0
11, 214440, Note_on_c, 6, 55, 110
11, 214560, Note_on_c, 6, 55, 0
11, 214560, Note_on_c, 6, 55, 110
11, 214800, Note_on_c, 6, 55, 0
11, 214800, Note_on_c, 6, 57, 110
11, 214920, Note_on_c, 6, 57, 0
11, 214920, Note_on_c, 6, 55, 110
11, 215040, Note_on_c, 6, 55, 0
11, 215040, Note_on_c, 6, 55, 110
11, 215280, Note_on_c, 6, 55, 0
11, 215280, Note_on_c, 6, 64, 110
11, 215520, Note_on_c, 6, 64, 0
11, 215760, Note_on_c, 6, 64, 110
11, 215880, Note_on_c, 6, 64, 0
11, 215880, Note_on_c, 6, 62, 110
11, 216000, Note_on_c, 6, 62, 0
11, 216000, Note_on_c, 6, 60, 110
11, 216240, Note_on_c, 6, 60, 0
11, 216240, Note_on_c, 6, 60, 110
11, 216360, Note_on_c, 6, 60, 0
11, 216360, Note_on_c, 6, 58, 110
11, 216480, Note_on_c, 6, 58, 0
11, 216480, Note_on_c, 6, 57, 110
11, 216720, Note_on_c, 6, 57, 0
11, 216720, Note_on_c, 6, 57, 110
11, 216840, Note_on_c, 6, 57, 0
11, 216840, Note_on_c, 6, 55, 110
11, 216960, Note_on_c, 6, 55, 0
11, 216960, Note_on_c, 6, 53, 110
11, 217044, Note_on_c, 6, 53, 0
11, 217080, Note_on_c, 6, 55, 110
11, 217164, Note_on_c, 6, 55, 0
11, 217200, Note_on_c, 6, 57, 110
11, 217284, Note_on_c, 6, 57, 0
11, 217320, Note_on_c, 6, 55, 110
11, 217404, Note_on_c, 6, 55, 0
11, 217440, Note_on_c, 6, 53, 110
11, 217524, Note_on_c, 6, 53, 0
11, 217560, Note_on_c, 6, 55, 110
11, 217644, Note_on_c, 6, 55, 0
11, 217680, Note_on_c, 6, 51, 110
11, 217764, Note_on_c, 6, 51, 0
11, 217800, Note_on_c, 6, 53, 110
11, 217884, Note_on_c, 6, 53, 0
11, 217920, Note_on_c, 6, 50, 110
11, 218004, Note_on_c, 6, 50, 0
11, 218040, Note_on_c, 6, 53, 110
11, 218124, Note_on_c, 6, 53, 0
11, 218160, Note_on_c, 6, 58, 110
11, 218244, Note_on_c, 6, 58, 0
11, 218280, Note_on_c, 6, 50, 110
11, 218364, Note_on_c, 6, 50, 0
11, 218400, Note_on_c, 6, 48, 110
11, 218484, Note_on_c, 6, 48, 0
11, 218520, Note_on_c, 6, 51, 110
11, 218604, Note_on_c, 6, 51, 0
11, 218640, Note_on_c, 6, 57, 110
11, 218724, Note_on_c, 6, 57, 0
11, 218760, Note_on_c, 6, 48, 110
11, 218844, Note_on_c, 6, 48, 0
11, 218880, Note_on_c, 6, 46, 110
11, 218964, Note_on_c, 6, 46, 0
11, 219000, Note_on_c, 6, 41, 110
11, 219084, Note_on_c, 6, 41, 0
11, 219120, Note_on_c, 6, 43, 110
11, 219204, Note_on_c, 6, 43, 0
11, 219240, Note_on_c, 6, 45, 110
11, 219324, Note_on_c, 6, 45, 0
11, 219360, Note_on_c, 6, 46, 110
11, 219444, Note_on_c, 6, 46, 0
11, 219480, Note_on_c, 6, 45, 110
11, 219564, Note_on_c, 6, 45, 0
11, 219600, Note_on_c, 6, 46, 110
11, 219684, Note_on_c, 6, 46, 0
11, 219720, Note_on_c, 6, 48, 110
11, 219804, Note_on_c, 6, 48, 0
11, 219840, Note_on_c, 6, 50, 110
11, 219924, Note_on_c, 6, 50, 0
11, 219960, Note_on_c, 6, 46, 110
11, 220044, Note_on_c, 6, 46, 0
11, 220080, Note_on_c, 6, 48, 110
11, 220164, Note_on_c, 6, 48, 0
11, 220200, Note_on_c, 6, 50, 110
11, 220284, Note_on_c, 6, 50, 0
11, 220320, Note_on_c, 6, 51, 110
11, 220404, Note_on_c, 6, 51, 0
11, 220440, Note_on_c, 6, 50, 110
11, 220524, Note_on_c, 6, 50, 0
11, 220560, Note_on_c, 6, 51, 110
11, 220644, Note_on_c, 6, 51, 0
11, 220680, Note_on_c, 6, 53, 110
11, 220764, Note_on_c, 6, 53, 0
11, 220800, Note_on_c, 6, 55, 110
11, 220884, Note_on_c, 6, 55, 0
11, 220920, Note_on_c, 6, 51, 110
11, 221004, Note_on_c, 6, 51, 0
11, 221040, Note_on_c, 6, 53, 110
11, 221124, Note_on_c, 6, 53, 0
11, 221160, Note_on_c, 6, 55, 110
11, 221244, Note_on_c, 6, 55, 0
11, 221280, Note_on_c, 6, 57, 110
11, 221364, Note_on_c, 6, 57, 0
11, 221400, Note_on_c, 6, 55, 110
11, 221484, Note_on_c, 6, 55, 0
11, 221520, Note_on_c, 6, 57, 110
11, 221604, Note_on_c, 6, 57, 0
11, 221640, Note_on_c, 6, 58, 110
11, 221724, Note_on_c, 6, 58, 0
11, 221760, Note_on_c, 6, 60, 110
11, 221844, Note_on_c, 6, 60, 0
11, 221880, Note_on_c, 6, 57, 110
11, 221964, Note_on_c, 6, 57, 0
11, 222000, Note_on_c, 6, 58, 110
11, 222084, Note_on_c, 6, 58, 0
11, 222120, Note_on_c, 6, 60, 110
11, 222204, Note_on_c, 6, 60, 0
11, 222240, Note_on_c, 6, 62, 110
11, 222324, Note_on_c, 6, 62, 0
11, 222360, Note_on_c, 6, 61, 110
11, 222444, Note_on_c, 6, 61, 0
11, 222480, Note_on_c, 6, 62, 110
11, 222564, Note_on_c, 6, 62, 0
11, 222600, Note_on_c, 6, 64, 110
11, 222684, Note_on_c, 6, 64, 0
11, 222720, Note_on_c, 6, 66, 110
11, 222804, Note_on_c, 6, 66, 0
11, 222840, Note_on_c, 6, 62, 110
11, 222924, Note_on_c, 6, 62, 0
11, 222960, Note_on_c, 6, 64, 110
11, 223044, Note_on_c, 6, 64, 0
11, 223080, Note_on_c, 6, 66, 110
11, 223164, Note_on_c, 6, 66, 0
11, 223200, Note_on_c, 6, 67, 110
11, 223284, Note_on_c, 6, 67, 0
11, 223320, Note_on_c, 6, 63, 110
11, 223404, Note_on_c, 6, 63, 0
11, 223440, Note_on_c, 6, 62, 110
11, 223524, Note_on_c, 6, 62, 0
11, 223560, Note_on_c, 6, 60, 110
11, 223644, Note_on_c, 6, 60, 0
11, 223680, Note_on_c, 6, 58, 110
11, 223764, Note_on_c, 6, 58, 0
11, 223800, Note_on_c, 6, 60, 110
11, 223884, Note_on_c, 6, 60, 0
11, 223920, Note_on_c, 6, 58, 110
11, 224004, Note_on_c, 6, 58, 0
11, 224040, Note_on_c, 6, 57, 110
11, 224124, Note_on_c, 6, 57, 0
11, 224160, Note_on_c, 6, 55, 110
11, 224244, Note_on_c, 6, 55, 0
11, 224280, Note_on_c, 6, 53, 110
11, 224364, Note_on_c, 6, 53, 0
11, 224400, Note_on_c, 6, 55, 110
11, 224484, Note_on_c, 6, 55, 0
11, 224520, Note_on_c, 6, 56, 110
11, 224604, Note_on_c, 6, 56, 0
11, 224640, Note_on_c, 6, 57, 110
11, 224724, Note_on_c, 6, 57, 0
11, 224760, Note_on_c, 6, 57, 110
11, 224844, Note_on_c, 6, 57, 0
11, 224880, Note_on_c, 6, 57, 110
11, 224964, Note_on_c, 6, 57, 0
11, 225000, Note_on_c, 6, 57, 110
11, 225084, Note_on_c, 6, 57, 0
11, 225120, Note_on_c, 6, 57, 110
11, 225204, Note_on_c, 6, 57, 0
11, 225240, Note_on_c, 6, 57, 110
11, 225324, Note_on_c, 6, 57, 0
11, 225360, Note_on_c, 6, 57, 110
11, 225444, Note_on_c, 6, 57, 0
11, 225480, Note_on_c, 6, 57, 110
11, 225564, Note_on_c, 6, 57, 0
11, 225600, Note_on_c, 6, 57, 110
11, 225684, Note_on_c, 6, 57, 0
11, 225720, Note_on_c, 6, 57, 110
11, 225804, Note_on_c, 6, 57, 0
11, 225840, Note_on_c, 6, 57, 110
11, 225924, Note_on_c, 6, 57, 0
11, 225960, Note_on_c, 6, 57, 110
11, 226044, Note_on_c, 6, 57, 0
11, 226080, Note_on_c, 6, 57, 110
11, 226164, Note_on_c, 6, 57, 0
11, 226200, Note_on_c, 6, 57, 110
11, 226284, Note_on_c, 6, 57, 0
11, 226320, Note_on_c, 6, 57, 110
11, 226404, Note_on_c, 6, 57, 0
11, 226440, Note_on_c, 6, 57, 110
11, 226524, Note_on_c, 6, 57, 0
11, 226560, Note_on_c, 6, 57, 110
11, 226644, Note_on_c, 6, 57, 0
11, 226680, Note_on_c, 6, 57, 110
11, 226764, Note_on_c, 6, 57, 0
11, 226800, Note_on_c, 6, 57, 110
11, 226884, Note_on_c, 6, 57, 0
11, 226920, Note_on_c, 6, 57, 110
11, 227004, Note_on_c, 6, 57, 0
11, 227040, Note_on_c, 6, 57, 110
11, 227124, Note_on_c, 6, 57, 0
11, 227160, Note_on_c, 6, 57, 110
11, 227244, Note_on_c, 6, 57, 0
11, 227280, Note_on_c, 6, 57, 110
11, 227364, Note_on_c, 6, 57, 0
11, 227400, Note_on_c, 6, 57, 110
11, 227484, Note_on_c, 6, 57, 0
11, 227520, Note_on_c, 6, 57, 110
11, 227604, Note_on_c, 6, 57, 0
11, 227640, Note_on_c, 6, 57, 110
11, 227724, Note_on_c, 6, 57, 0
11, 227760, Note_on_c, 6, 57, 110
11, 227844, Note_on_c, 6, 57, 0
11, 227880, Note_on_c, 6, 57, 110
11, 227964, Note_on_c, 6, 57, 0
11, 228000, Note_on_c, 6, 57, 110
11, 228084, Note_on_c, 6, 57, 0
11, 228120, Note_on_c, 6, 57, 110
11, 228204, Note_on_c, 6, 57, 0
11, 228240, Note_on_c, 6, 57, 110
11, 228324, Note_on_c, 6, 57, 0
11, 228360, Note_on_c, 6, 57, 110
11, 228444, Note_on_c, 6, 57, 0
11, 228480, Note_on_c, 6, 57, 110
11, 228960, Note_on_c, 6, 57, 0
11, 236880, Note_on_c, 6, 67, 80
11, 237000, Note_on_c, 6, 67, 0
11, 237000, Note_on_c, 6, 66, 80
11, 237120, Note_on_c, 6, 66, 0
11, 237120, Note_on_c, 6, 66, 80
11, 237312, Note_on_c, 6, 66, 0
11, 237360, Note_on_c, 6, 67, 80
11, 237480, Note_on_c, 6, 67, 0
11, 237480, Note_on_c, 6, 66, 80
11, 237600, Note_on_c, 6, 66, 0
11, 237600, Note_on_c, 6, 66, 80
11, 237792, Note_on_c, 6, 66, 0
11, 237840, Note_on_c, 6, 67, 80
11, 237960, Note_on_c, 6, 67, 0
11, 237960, Note_on_c, 6, 66, 80
11, 238080, Note_on_c, 6, 66, 0
11, 238080, Note_on_c, 6, 66, 80
11, 238272, Note_on_c, 6, 66, 0
11, 238800, Note_on_c, 6, 63, 80
11, 238920, Note_on_c, 6, 63, 0
11, 238920, Note_on_c, 6, 62, 80
11, 239040, Note_on_c, 6, 62, 0
11, 239040, Note_on_c, 6, 62, 80
11, 239232, Note_on_c, 6, 62, 0
11, 239280, Note_on_c, 6, 63, 80
11, 239400, Note_on_c, 6, 63, 0
11, 239400, Note_on_c, 6, 62, 80
11, 239520, Note_on_c, 6, 62, 0
11, 239520, Note_on_c, 6, 62, 80
11, 239712, Note_on_c, 6, 62, 0
11, 239760, Note_on_c, 6, 63, 80
11, 239880, Note_on_c, 6, 63, 0
11, 239880, Note_on_c, 6, 62, 80
11, 240000, Note_on_c, 6, 62, 0
11, 240000, Note_on_c, 6, 62, 80
11, 240192, Note_on_c, 6, 62, 0
11, 240720, Note_on_c, 6, 55, 80
11, 240840, Note_on_c, 6, 55, 0
11, 240840, Note_on_c, 6, 54, 80
11, 240960, Note_on_c, 6, 54, 0
11, 240960, Note_on_c, 6, 54, 80
11, 241152, Note_on_c, 6, 54, 0
11, 241200, Note_on_c, 6, 55, 80
11, 241320, Note_on_c, 6, 55, 0
11, 241320, Note_on_c, 6, 54, 80
11, 241440, Note_on_c, 6, 54, 0
11, 241440, Note_on_c, 6, 54, 80
11, 241632, Note_on_c, 6, 54, 0
11, 241680, Note_on_c, 6, 55, 80
11, 241800, Note_on_c, 6, 55, 0
11, 241800, Note_on_c, 6, 54, 80
11, 241920, Note_on_c, 6, 54, 0
11, 241920, Note_on_c, 6, 54, 80
11, 242112, Note_on_c, 6, 54, 0
11, 243120, Note_on_c, 6, 63, 110
11, 243240, Note_on_c, 6, 63, 0
11, 243240, Note_on_c, 6, 62, 110
11, 243336, Note_on_c, 6, 62, 0
11, 243360, Note_on_c, 6, 62, 110
11, 243600, Note_on_c, 6, 62, 0
11, 244080, Note_on_c, 6, 63, 110
11, 244200, Note_on_c, 6, 63, 0
11, 244200, Note_on_c, 6, 62, 110
11, 244296, Note_on_c, 6, 62, 0
11, 244320, Note_on_c, 6, 62, 110
11, 244560, Note_on_c, 6, 62, 0
11, 245040, Note_on_c, 6, 63, 110
11, 245160, Note_on_c, 6, 63, 0
11, 245160, Note_on_c, 6, 62, 110
11, 245256, Note_on_c, 6, 62, 0
11, 245280, Note_on_c, 6, 62, 110
11, 245520, Note_on_c, 6, 62, 0
11, 246000, Note_on_c, 6, 63, 110
11, 246120, Note_on_c, 6, 63, 0
11, 246120, Note_on_c, 6, 62, 110
11, 246216, Note_on_c, 6, 62, 0
11, 246240, Note_on_c, 6, 62, 110
11, 246480, Note_on_c, 6, 62, 0
11, 246960, Note_on_c, 6, 63, 110
11, 247080, Note_on_c, 6, 63, 0
11, 247080, Note_on_c, 6, 62, 110
11, 247176, Note_on_c, 6, 62, 0
11, 247200, Note_on_c, 6, 62, 110
11, 247440, Note_on_c, 6, 62, 0
11, 247920, Note_on_c, 6, 63, 110
11, 248040, Note_on_c, 6, 63, 0
11, 248040, Note_on_c, 6, 62, 110
11, 248136, Note_on_c, 6, 62, 0
11, 248160, Note_on_c, 6, 62, 110
11, 248400, Note_on_c, 6, 62, 0
11, 248880, Note_on_c, 6, 63, 105
11, 249000, Note_on_c, 6, 63, 0
11, 249000, Note_on_c, 6, 62, 102
11, 249096, Note_on_c, 6, 62, 0
11, 249120, Note_on_c, 6, 62, 100
11, 249360, Note_on_c, 6, 62, 0
11, 249360, Note_on_c, 6, 63, 95
11, 249480, Note_on_c, 6, 63, 0
11, 249480, Note_on_c, 6, 62, 92
11, 249576, Note_on_c, 6, 62, 0
11, 249600, Note_on_c, 6, 62, 90
11, 249960, Note_on_c, 6, 62, 0
11, 255360, Note_on_c, 6, 43, 80
11, 255600, Note_on_c, 6, 43, 0
11, 256320, Note_on_c, 6, 55, 80
11, 256560, Note_on_c, 6, 55, 0
11, 257280, Note_on_c, 6, 43, 80
11, 257520, Note_on_c, 6, 43, 0
11, 258240, Note_on_c, 6, 55, 80
11, 258480, Note_on_c, 6, 55, 0
11, 259200, Note_on_c, 6, 42, 80
11, 259440, Note_on_c, 6, 42, 0
11, 260160, Note_on_c, 6, 50, 80
11, 260400, Note_on_c, 6, 50, 0
11, 261120, Note_on_c, 6, 43, 80
11, 261360, Note_on_c, 6, 43, 0
11, 262080, Note_on_c, 6, 48, 80
11, 263040, Note_on_c, 6, 48, 0
11, 263040, Note_on_c, 6, 46, 80
11, 264000, Note_on_c, 6, 46, 0
11, 264000, Note_on_c, 6, 48, 80
11, 264960, Note_on_c, 6, 48, 0
11, 264960, Note_on_c, 6, 46, 80
11, 265920, Note_on_c, 6, 46, 0
11, 265920, Note_on_c, 6, 52, 80
11, 266880, Note_on_c, 6, 52, 0
11, 266880, Note_on_c, 6, 51, 80
11, 267840, Note_on_c, 6, 51, 0
11, 267840, Note_on_c, 6, 50, 80
11, 268224, Note_on_c, 6, 50, 0
11, 268560, Note_on_c, 6, 50, 110
11, 268656, Note_on_c, 6, 50, 0
11, 268680, Note_on_c, 6, 50, 110
11, 268776, Note_on_c, 6, 50, 0
11, 268800, Note_on_c, 6, 50, 110
11, 269184, Note_on_c, 6, 50, 0
11, 269520, Note_on_c, 6, 50, 110
11, 269616, Note_on_c, 6, 50, 0
11, 269640, Note_on_c, 6, 50, 110
11, 269736, Note_on_c, 6, 50, 0
11, 269760, Note_on_c, 6, 50, 110
11, 270144, Note_on_c, 6, 50, 0
11, 270480, Note_on_c, 6, 50, 110
11, 270576, Note_on_c, 6, 50, 0
11, 270600, Note_on_c, 6, 50, 110
11, 270696, Note_on_c, 6, 50, 0
11, 270720, Note_on_c, 6, 50, 110
11, 270912, Note_on_c, 6, 50, 0
11, 270960, Note_on_c, 6, 50, 105
11, 271056, Note_on_c, 6, 50, 0
11, 271080, Note_on_c, 6, 50, 102
11, 271176, Note_on_c, 6, 50, 0
11, 271200, Note_on_c, 6, 50, 100
11, 271392, Note_on_c, 6, 50, 0
11, 271440, Note_on_c, 6, 50, 95
11, 271536, Note_on_c, 6, 50, 0
11, 271560, Note_on_c, 6, 50, 92
11, 271656, Note_on_c, 6, 50, 0
11, 271680, Note_on_c, 6, 50, 80
11, 272064, Note_on_c, 6, 50, 0
11, 273600, Note_on_c, 6, 43, 80
11, 273960, Note_on_c, 6, 43, 0
11, 274560, Note_on_c, 6, 55, 80
11, 274920, Note_on_c, 6, 55, 0
11, 275520, Note_on_c, 6, 53, 80
11, 275880, Note_on_c, 6, 53, 0
11, 276480, Note_on_c, 6, 51, 80
11, 276840, Note_on_c, 6, 51, 0
11, 277440, Note_on_c, 6, 50, 80
11, 277800, Note_on_c, 6, 50, 0
11, 278400, Note_on_c, 6, 46, 80
11, 278760, Note_on_c, 6, 46, 0
11, 279360, Note_on_c, 6, 51, 110
11, 279444, Note_on_c, 6, 51, 0
11, 279480, Note_on_c, 6, 55, 110
11, 279564, Note_on_c, 6, 55, 0
11, 279600, Note_on_c, 6, 58, 110
11, 279684, Note_on_c, 6, 58, 0
11, 279720, Note_on_c, 6, 63, 110
11, 279804, Note_on_c, 6, 63, 0
11, 279840, Note_on_c, 6, 67, 110
11, 279924, Note_on_c, 6, 67, 0
11, 279960, Note_on_c, 6, 65, 110
11, 280044, Note_on_c, 6, 65, 0
11, 280080, Note_on_c, 6, 67, 110
11, 280164, Note_on_c, 6, 67, 0
11, 280200, Note_on_c, 6, 63, 110
11, 280284, Note_on_c, 6, 63, 0
11, 280320, Note_on_c, 6, 62, 110
11, 280404, Note_on_c, 6, 62, 0
11, 280440, Note_on_c, 6, 63, 110
11, 280524, Note_on_c, 6, 63, 0
11, 280560, Note_on_c, 6, 65, 110
11, 280644, Note_on_c, 6, 65, 0
11, 280680, Note_on_c, 6, 63, 110
11, 280764, Note_on_c, 6, 63, 0
11, 280800, Note_on_c, 6, 62, 110
11, 280884, Note_on_c, 6, 62, 0
11, 280920, Note_on_c, 6, 60, 110
11, 281004, Note_on_c, 6, 60, 0
11, 281040, Note_on_c, 6, 62, 110
11, 281124, Note_on_c, 6, 62, 0
11, 281160, Note_on_c, 6, 58, 110
11, 281244, Note_on_c, 6, 58, 0
11, 281280, Note_on_c, 6, 60, 110
11, 281364, Note_on_c, 6, 60, 0
11, 281400, Note_on_c, 6, 63, 110
11, 281484, Note_on_c, 6, 63, 0
11, 281520, Note_on_c, 6, 60, 110
11, 281604, Note_on_c, 6, 60, 0
11, 281640, Note_on_c, 6, 63, 110
11, 281724, Note_on_c, 6, 63, 0
11, 281760, Note_on_c, 6, 60, 110
11, 281844, Note_on_c, 6, 60, 0
11, 281880, Note_on_c, 6, 63, 110
11, 281964, Note_on_c, 6, 63, 0
11, 282000, Note_on_c, 6, 60, 110
11, 282084, Note_on_c, 6, 60, 0
11, 282120, Note_on_c, 6, 63, 110
11, 282204, Note_on_c, 6, 63, 0
11, 282240, Note_on_c, 6, 58, 110
11, 282324, Note_on_c, 6, 58, 0
11, 282360, Note_on_c, 6, 63, 110
11, 282444, Note_on_c, 6, 63, 0
11, 282480, Note_on_c, 6, 58, 110
11, 282564, Note_on_c, 6, 58, 0
11, 282600, Note_on_c, 6, 63, 110
11, 282684, Note_on_c, 6, 63, 0
11, 282720, Note_on_c, 6, 58, 110
11, 282804, Note_on_c, 6, 58, 0
11, 282840, Note_on_c, 6, 63, 110
11, 282924, Note_on_c, 6, 63, 0
11, 282960, Note_on_c, 6, 58, 110
11, 283044, Note_on_c, 6, 58, 0
11, 283080, Note_on_c, 6, 63, 110
11, 283164, Note_on_c, 6, 63, 0
11, 283200, Note_on_c, 6, 56, 110
11, 283284, Note_on_c, 6, 56, 0
11, 283320, Note_on_c, 6, 60, 110
11, 283404, Note_on_c, 6, 60, 0
11, 283440, Note_on_c, 6, 56, 110
11, 283524, Note_on_c, 6, 56, 0
11, 283560, Note_on_c, 6, 60, 110
11, 283644, Note_on_c, 6, 60, 0
11, 283680, Note_on_c, 6, 56, 110
11, 283764, Note_on_c, 6, 56, 0
11, 283800, Note_on_c, 6, 60, 110
11, 283884, Note_on_c, 6, 60, 0
11, 283920, Note_on_c, 6, 56, 110
11, 284004, Note_on_c, 6, 56, 0
11, 284040, Note_on_c, 6, 60, 110
11, 284124, Note_on_c, 6, 60, 0
11, 284160, Note_on_c, 6, 55, 110
11, 284244, Note_on_c, 6, 55, 0
11, 284280, Note_on_c, 6, 58, 110
11, 284364, Note_on_c, 6, 58, 0
11, 284400, Note_on_c, 6, 55, 110
11, 284484, Note_on_c, 6, 55, 0
11, 284520, Note_on_c, 6, 58, 110
11, 284604, Note_on_c, 6, 58, 0
11, 284640, Note_on_c, 6, 53, 110
11, 284724, Note_on_c, 6, 53, 0
11, 284760, Note_on_c, 6, 56, 110
11, 284844, Note_on_c, 6, 56, 0
11, 284880, Note_on_c, 6, 53, 110
11, 284964, Note_on_c, 6, 53, 0
11, 285000, Note_on_c, 6, 56, 110
11, 285084, Note_on_c, 6, 56, 0
11, 285120, Note_on_c, 6, 52, 110
11, 285204, Note_on_c, 6, 52, 0
11, 285240, Note_on_c, 6, 55, 110
11, 285324, Note_on_c, 6, 55, 0
11, 285360, Note_on_c, 6, 52, 110
11, 285444, Note_on_c, 6, 52, 0
11, 285480, Note_on_c, 6, 55, 110
11, 285564, Note_on_c, 6, 55, 0
11, 285600, Note_on_c, 6, 48, 110
11, 285684, Note_on_c, 6, 48, 0
11, 285720, Note_on_c, 6, 52, 110
11, 285804, Note_on_c, 6, 52, 0
11, 285840, Note_on_c, 6, 48, 110
11, 285924, Note_on_c, 6, 48, 0
11, 285960, Note_on_c, 6, 52, 110
11, 286044, Note_on_c, 6, 52, 0
11, 286080, Note_on_c, 6, 53, 110
11, 286896, Note_on_c, 6, 53, 0
11, 287040, Note_on_c, 6, 60, 110
11, 287880, Note_on_c, 6, 60, 0
11, 287880, Note_on_c, 6, 60, 110
11, 287982, Note_on_c, 6, 60, 0
11, 288000, Note_on_c, 6, 58, 110
11, 288144, Note_on_c, 6, 58, 0
11, 288240, Note_on_c, 6, 61, 110
11, 288384, Note_on_c, 6, 61, 0
11, 288480, Note_on_c, 6, 67, 110
11, 288624, Note_on_c, 6, 67, 0
11, 288960, Note_on_c, 6, 56, 110
11, 289104, Note_on_c, 6, 56, 0
11, 289200, Note_on_c, 6, 60, 110
11, 289344, Note_on_c, 6, 60, 0
11, 289440, Note_on_c, 6, 65, 110
11, 289584, Note_on_c, 6, 65, 0
11, 289800, Note_on_c, 6, 56, 110
11, 289872, Note_on_c, 6, 56, 0
11, 289920, Note_on_c, 6, 55, 110
11, 290064, Note_on_c, 6, 55, 0
11, 290160, Note_on_c, 6, 58, 114
11, 290304, Note_on_c, 6, 58, 0
11, 290400, Note_on_c, 6, 64, 119
11, 290544, Note_on_c, 6, 64, 0
11, 290760, Note_on_c, 6, 55, 125
11, 290832, Note_on_c, 6, 55, 0
11, 290880, Note_on_c, 6, 53, 127
11, 291024, Note_on_c, 6, 53, 0
11, 291120, Note_on_c, 6, 56, 127
11, 291264, Note_on_c, 6, 56, 0
11, 291360, Note_on_c, 6, 60, 127
11, 291504, Note_on_c, 6, 60, 0
11, 291720, Note_on_c, 6, 41, 127
11, 291792, Note_on_c, 6, 41, 0
11, 291840, Note_on_c, 6, 46, 127
11, 291984, Note_on_c, 6, 46, 0
11, 292080, Note_on_c, 6, 50, 127
11, 292224, Note_on_c, 6, 50, 0
11, 292320, Note_on_c, 6, 53, 127
11, 292464, Note_on_c, 6, 53, 0
11, 292680, Note_on_c, 6, 46, 127
11, 292752, Note_on_c, 6, 46, 0
11, 292800, Note_on_c, 6, 51, 127
11, 292944, Note_on_c, 6, 51, 0
11, 293040, Note_on_c, 6, 55, 127
11, 293184, Note_on_c, 6, 55, 0
11, 293280, Note_on_c, 6, 58, 127
11, 293424, Note_on_c, 6, 58, 0
11, 293640, Note_on_c, 6, 39, 127
11, 293736, Note_on_c, 6, 39, 0
11, 293760, Note_on_c, 6, 44, 127
11, 293904, Note_on_c, 6, 44, 0
11, 294000, Note_on_c, 6, 48, 127
11, 294144, Note_on_c, 6, 48, 0
11, 294240, Note_on_c, 6, 51, 127
11, 294384, Note_on_c, 6, 51, 0
11, 294600, Note_on_c, 6, 44, 127
11, 294696, Note_on_c, 6, 44, 0
11, 294720, Note_on_c, 6, 50, 127
11, 294864, Note_on_c, 6, 50, 0
11, 294960, Note_on_c, 6, 53, 127
11, 295104, Note_on_c, 6, 53, 0
11, 295200, Note_on_c, 6, 57, 127
11, 295344, Note_on_c, 6, 57, 0
11, 295560, Note_on_c, 6, 50, 127
11, 295656, Note_on_c, 6, 50, 0
11, 295680, Note_on_c, 6, 55, 127
11, 295824, Note_on_c, 6, 55, 0
11, 295920, Note_on_c, 6, 59, 127
11, 296064, Note_on_c, 6, 59, 0
11, 296160, Note_on_c, 6, 62, 127
11, 296304, Note_on_c, 6, 62, 0
11, 296520, Note_on_c, 6, 43, 127
11, 296616, Note_on_c, 6, 43, 0
11, 296640, Note_on_c, 6, 48, 127
11, 296784, Note_on_c, 6, 48, 0
11, 296880, Note_on_c, 6, 51, 127
11, 297024, Note_on_c, 6, 51, 0
11, 297120, Note_on_c, 6, 57, 127
11, 297264, Note_on_c, 6, 57, 0
11, 297480, Note_on_c, 6, 48, 127
11, 297576, Note_on_c, 6, 48, 0
11, 297600, Note_on_c, 6, 50, 127
11, 297744, Note_on_c, 6, 50, 0
11, 297840, Note_on_c, 6, 54, 127
11, 297984, Note_on_c, 6, 54, 0
11, 298080, Note_on_c, 6, 57, 127
11, 298224, Note_on_c, 6, 57, 0
11, 298560, Note_on_c, 6, 55, 127
11, 298644, Note_on_c, 6, 55, 0
11, 298680, Note_on_c, 6, 58, 127
11, 298764, Note_on_c, 6, 58, 0
11, 298800, Note_on_c, 6, 55, 127
11, 298884, Note_on_c, 6, 55, 0
11, 298920, Note_on_c, 6, 58, 127
11, 299004, Note_on_c, 6, 58, 0
11, 299040, Note_on_c, 6, 55, 127
11, 299124, Note_on_c, 6, 55, 0
11, 299160, Note_on_c, 6, 58, 127
11, 299244, Note_on_c, 6, 58, 0
11, 299280, Note_on_c, 6, 55, 127
11, 299364, Note_on_c, 6, 55, 0
11, 299400, Note_on_c, 6, 58, 127
11, 299484, Note_on_c, 6, 58, 0
11, 299520, Note_on_c, 6, 53, 127
11, 299604, Note_on_c, 6, 53, 0
11, 299640, Note_on_c, 6, 57, 127
11, 299724, Note_on_c, 6, 57, 0
11, 299760, Note_on_c, 6, 53, 127
11, 299844, Note_on_c, 6, 53, 0
11, 299880, Note_on_c, 6, 57, 127
11, 299964, Note_on_c, 6, 57, 0
11, 300000, Note_on_c, 6, 53, 127
11, 300084, Note_on_c, 6, 53, 0
11, 300120, Note_on_c, 6, 57, 127
11, 300204, Note_on_c, 6, 57, 0
11, 300240, Note_on_c, 6, 53, 127
11, 300324, Note_on_c, 6, 53, 0
11, 300360, Note_on_c, 6, 57, 127
11, 300444, Note_on_c, 6, 57, 0
11, 300480, Note_on_c, 6, 51, 127
11, 300564, Note_on_c, 6, 51, 0
11, 300600, Note_on_c, 6, 55, 127
11, 300684, Note_on_c, 6, 55, 0
11, 300720, Note_on_c, 6, 51, 127
11, 300804, Note_on_c, 6, 51, 0
11, 300840, Note_on_c, 6, 55, 127
11, 300924, Note_on_c, 6, 55, 0
11, 300960, Note_on_c, 6, 51, 127
11, 301044, Note_on_c, 6, 51, 0
11, 301080, Note_on_c, 6, 55, 127
11, 301164, Note_on_c, 6, 55, 0
11, 301200, Note_on_c, 6, 51, 127
11, 301284, Note_on_c, 6, 51, 0
11, 301320, Note_on_c, 6, 55, 127
11, 301404, Note_on_c, 6, 55, 0
11, 301440, Note_on_c, 6, 50, 127
11, 301524, Note_on_c, 6, 50, 0
11, 301560, Note_on_c, 6, 55, 127
11, 301644, Note_on_c, 6, 55, 0
11, 301680, Note_on_c, 6, 50, 127
11, 301764, Note_on_c, 6, 50, 0
11, 301800, Note_on_c, 6, 55, 127
11, 301884, Note_on_c, 6, 55, 0
11, 301920, Note_on_c, 6, 50, 127
11, 302004, Note_on_c, 6, 50, 0
11, 302040, Note_on_c, 6, 55, 127
11, 302124, Note_on_c, 6, 55, 0
11, 302160, Note_on_c, 6, 50, 127
11, 302244, Note_on_c, 6, 50, 0
11, 302280, Note_on_c, 6, 55, 127
11, 302364, Note_on_c, 6, 55, 0
11, 302400, Note_on_c, 6, 48, 127
11, 302484, Note_on_c, 6, 48, 0
11, 302520, Note_on_c, 6, 51, 127
11, 302604, Note_on_c, 6, 51, 0
11, 302640, Note_on_c, 6, 48, 127
11, 302724, Note_on_c, 6, 48, 0
11, 302760, Note_on_c, 6, 51, 127
11, 302844, Note_on_c, 6, 51, 0
11, 302880, Note_on_c, 6, 48, 127
11, 302964, Note_on_c, 6, 48, 0
11, 303000, Note_on_c, 6, 51, 127
11, 303084, Note_on_c, 6, 51, 0
11, 303120, Note_on_c, 6, 48, 127
11, 303204, Note_on_c, 6, 48, 0
11, 303240, Note_on_c, 6, 51, 127
11, 303324, Note_on_c, 6, 51, 0
11, 303360, Note_on_c, 6, 46, 127
11, 303444, Note_on_c, 6, 46, 0
11, 303480, Note_on_c, 6, 50, 127
11, 303564, Note_on_c, 6, 50, 0
11, 303600, Note_on_c, 6, 46, 127
11, 303684, Note_on_c, 6, 46, 0
11, 303720, Note_on_c, 6, 50, 127
11, 303804, Note_on_c, 6, 50, 0
11, 303840, Note_on_c, 6, 46, 127
11, 303924, Note_on_c, 6, 46, 0
11, 303960, Note_on_c, 6, 50, 127
11, 304044, Note_on_c, 6, 50, 0
11, 304080, Note_on_c, 6, 46, 127
11, 304164, Note_on_c, 6, 46, 0
11, 304200, Note_on_c, 6, 50, 127
11, 304284, Note_on_c, 6, 50, 0
11, 304320, Note_on_c, 6, 45, 127
11, 305088, Note_on_c, 6, 45, 0
11, 305280, Note_on_c, 6, 45, 127
11, 305664, Note_on_c, 6, 45, 0
11, 305760, Note_on_c, 6, 46, 127
11, 306144, Note_on_c, 6, 46, 0
11, 306240, Note_on_c, 6, 45, 127
11, 306624, Note_on_c, 6, 45, 0
11, 306720, Note_on_c, 6, 46, 127
11, 307104, Note_on_c, 6, 46, 0
11, 307200, Note_on_c, 6, 45, 127
11, 307584, Note_on_c, 6, 45, 0
11, 308040, Note_on_c, 6, 45, 127
11, 308136, Note_on_c, 6, 45, 0
11, 308160, Note_on_c, 6, 50, 127
11, 308244, Note_on_c, 6, 50, 0
11, 308280, Note_on_c, 6, 62, 127
11, 308364, Note_on_c, 6, 62, 0
11, 308400, Note_on_c, 6, 62, 127
11, 308484, Note_on_c, 6, 62, 0
11, 308520, Note_on_c, 6, 62, 127
11, 308604, Note_on_c, 6, 62, 0
11, 308640, Note_on_c, 6, 62, 127
11, 308724, Note_on_c, 6, 62, 0
11, 308760, Note_on_c, 6, 62, 127
11, 308844, Note_on_c, 6, 62, 0
11, 308880, Note_on_c, 6, 62, 127
11, 308964, Note_on_c, 6, 62, 0
11, 309000, Note_on_c, 6, 62, 127
11, 309084, Note_on_c, 6, 62, 0
11, 309120, Note_on_c, 6, 62, 127
11, 309204, Note_on_c, 6, 62, 0
11, 309240, Note_on_c, 6, 62, 127
11, 309324, Note_on_c, 6, 62, 0
11, 309360, Note_on_c, 6, 62, 127
11, 309444, Note_on_c, 6, 62, 0
11, 309480, Note_on_c, 6, 62, 127
11, 309564, Note_on_c, 6, 62, 0
11, 309600, Note_on_c, 6, 62, 127
11, 309684, Note_on_c, 6, 62, 0
11, 309720, Note_on_c, 6, 62, 127
11, 309804, Note_on_c, 6, 62, 0
11, 309840, Note_on_c, 6, 62, 127
11, 309924, Note_on_c, 6, 62, 0
11, 309960, Note_on_c, 6, 62, 127
11, 310044, Note_on_c, 6, 62, 0
11, 310080, Note_on_c, 6, 62, 127
11, 310164, Note_on_c, 6, 62, 0
11, 310200, Note_on_c, 6, 62, 127
11, 310284, Note_on_c, 6, 62, 0
11, 310320, Note_on_c, 6, 62, 127
11, 310404, Note_on_c, 6, 62, 0
11, 310440, Note_on_c, 6, 62, 127
11, 310524, Note_on_c, 6, 62, 0
11, 310560, Note_on_c, 6, 62, 127
11, 310644, Note_on_c, 6, 62, 0
11, 310680, Note_on_c, 6, 62, 127
11, 310764, Note_on_c, 6, 62, 0
11, 310800, Note_on_c, 6, 62, 127
11, 310884, Note_on_c, 6, 62, 0
11, 310920, Note_on_c, 6, 62, 127
11, 311004, Note_on_c, 6, 62, 0
11, 311040, Note_on_c, 6, 62, 127
11, 311124, Note_on_c, 6, 62, 0
11, 311160, Note_on_c, 6, 62, 127
11, 311244, Note_on_c, 6, 62, 0
11, 311280, Note_on_c, 6, 62, 127
11, 311364, Note_on_c, 6, 62, 0
11, 311400, Note_on_c, 6, 62, 127
11, 311484, Note_on_c, 6, 62, 0
11, 311520, Note_on_c, 6, 62, 127
11, 311604, Note_on_c, 6, 62, 0
11, 311640, Note_on_c, 6, 62, 127
11, 311724, Note_on_c, 6, 62, 0
11, 311760, Note_on_c, 6, 62, 127
11, 311844, Note_on_c, 6, 62, 0
11, 311880, Note_on_c, 6, 62, 127
11, 311964, Note_on_c, 6, 62, 0
11, 312000, Note_on_c, 6, 62, 127
11, 312360, Note_on_c, 6, 62, 0
11, 312480, Note_on_c, 6, 50, 80
11, 312840, Note_on_c, 6, 50, 0
11, 313920, Note_on_c, 6, 58, 80
11, 314640, Note_on_c, 6, 58, 0
11, 314640, Note_on_c, 6, 57, 80
11, 314880, Note_on_c, 6, 57, 0
11, 314880, Note_on_c, 6, 50, 80
11, 315240, Note_on_c, 6, 50, 0
11, 316080, Note_on_c, 6, 53, 80
11, 316320, Note_on_c, 6, 53, 0
11, 316320, Note_on_c, 6, 52, 80
11, 316560, Note_on_c, 6, 52, 0
11, 316560, Note_on_c, 6, 51, 80
11, 316800, Note_on_c, 6, 51, 0
11, 316800, Note_on_c, 6, 50, 80
11, 317280, Note_on_c, 6, 50, 0
11, 317760, Note_on_c, 6, 48, 80
11, 318480, Note_on_c, 6, 48, 0
11, 318480, Note_on_c, 6, 46, 80
11, 318720, Note_on_c, 6, 46, 0
11, 318720, Note_on_c, 6, 45, 80
11, 318960, Note_on_c, 6, 45, 0
11, 318960, Note_on_c, 6, 50, 80
11, 319200, Note_on_c, 6, 50, 0
11, 319200, Note_on_c, 6, 43, 80
11, 319440, Note_on_c, 6, 43, 0
11, 319440, Note_on_c, 6, 51, 80
11, 319680, Note_on_c, 6, 51, 0
11, 319680, Note_on_c, 6, 48, 80
11, 320040, Note_on_c, 6, 48, 0
11, 320160, Note_on_c, 6, 50, 80
11, 320520, Note_on_c, 6, 50, 0
11, 320640, Note_on_c, 6, 43, 80
11, 321000, Note_on_c, 6, 43, 0
11, 325440, Note_on_c, 6, 60, 80
11, 326160, Note_on_c, 6, 60, 0
11, 326160, Note_on_c, 6, 58, 80
11, 326400, Note_on_c, 6, 58, 0
11, 326400, Note_on_c, 6, 57, 80
11, 326640, Note_on_c, 6, 57, 0
11, 326640, Note_on_c, 6, 50, 80
11, 326880, Note_on_c, 6, 50, 0
11, 326880, Note_on_c, 6, 55, 80
11, 327120, Note_on_c, 6, 55, 0
11, 327120, Note_on_c, 6, 51, 80
11, 327360, Note_on_c, 6, 51, 0
11, 327360, Note_on_c, 6, 46, 80
11, 328320, Note_on_c, 6, 46, 0
11, 328320, Note_on_c, 6, 46, 80
11, 329280, Note_on_c, 6, 46, 0
11, 329280, Note_on_c, 6, 46, 80
11, 330240, Note_on_c, 6, 46, 0
11, 330240, Note_on_c, 6, 46, 80
11, 331200, Note_on_c, 6, 46, 0
11, 331200, Note_on_c, 6, 46, 85
11, 331284, Note_on_c, 6, 46, 0
11, 331320, Note_on_c, 6, 58, 86
11, 331404, Note_on_c, 6, 58, 0
11, 331440, Note_on_c, 6, 58, 86
11, 331524, Note_on_c, 6, 58, 0
11, 331560, Note_on_c, 6, 58, 87
11, 331644, Note_on_c, 6, 58, 0
11, 331680, Note_on_c, 6, 58, 88
11, 331764, Note_on_c, 6, 58, 0
11, 331800, Note_on_c, 6, 58, 88
11, 331884, Note_on_c, 6, 58, 0
11, 331920, Note_on_c, 6, 58, 89
11, 332004, Note_on_c, 6, 58, 0
11, 332040, Note_on_c, 6, 58, 89
11, 332124, Note_on_c, 6, 58, 0
11, 332160, Note_on_c, 6, 59, 90
11, 332244, Note_on_c, 6, 59, 0
11, 332280, Note_on_c, 6, 59, 93
11, 332364, Note_on_c, 6, 59, 0
11, 332400, Note_on_c, 6, 59, 95
11, 332484, Note_on_c, 6, 59, 0
11, 332520, Note_on_c, 6, 59, 98
11, 332604, Note_on_c, 6, 59, 0
11, 332640, Note_on_c, 6, 59, 100
11, 332724, Note_on_c, 6, 59, 0
11, 332760, Note_on_c, 6, 59, 103
11, 332844, Note_on_c, 6, 59, 0
11, 332880, Note_on_c, 6, 59, 105
11, 332964, Note_on_c, 6, 59, 0
11, 333000, Note_on_c, 6, 59, 108
11, 333084, Note_on_c, 6, 59, 0
11, 333120, Note_on_c, 6, 60, 110
11, 333216, Note_on_c, 6, 60, 0
11, 333240, Note_on_c, 6, 60, 110
11, 333336, Note_on_c, 6, 60, 0
11, 333360, Note_on_c, 6, 60, 110
11, 333456, Note_on_c, 6, 60, 0
11, 333480, Note_on_c, 6, 60, 110
11, 333576, Note_on_c, 6, 60, 0
11, 333600, Note_on_c, 6, 60, 110
11, 333696, Note_on_c, 6, 60, 0
11, 333720, Note_on_c, 6, 60, 110
11, 333816, Note_on_c, 6, 60, 0
11, 333840, Note_on_c, 6, 60, 110
11, 333936, Note_on_c, 6, 60, 0
11, 333960, Note_on_c, 6, 60, 110
11, 334056, Note_on_c, 6, 60, 0
11, 334080, Note_on_c, 6, 61, 110
11, 334164, Note_on_c, 6, 61, 0
11, 334200, Note_on_c, 6, 61, 110
11, 334284, Note_on_c, 6, 61, 0
11, 334320, Note_on_c, 6, 61, 110
11, 334404, Note_on_c, 6, 61, 0
11, 334440, Note_on_c, 6, 61, 110
11, 334524, Note_on_c, 6, 61, 0
11, 334560, Note_on_c, 6, 61, 110
11, 334644, Note_on_c, 6, 61, 0
11, 334680, Note_on_c, 6, 61, 110
11, 334764, Note_on_c, 6, 61, 0
11, 334800, Note_on_c, 6, 61, 110
11, 334884, Note_on_c, 6, 61, 0
11, 334920, Note_on_c, 6, 61, 110
11, 335004, Note_on_c, 6, 61, 0
11, 335040, Note_on_c, 6, 62, 110
11, 335124, Note_on_c, 6, 62, 0
11, 335160, Note_on_c, 6, 62, 110
11, 335244, Note_on_c, 6, 62, 0
11, 335280, Note_on_c, 6, 62, 110
11, 335364, Note_on_c, 6, 62, 0
11, 335400, Note_on_c, 6, 62, 110
11, 335484, Note_on_c, 6, 62, 0
11, 335520, Note_on_c, 6, 62, 110
11, 335604, Note_on_c, 6, 62, 0
11, 335640, Note_on_c, 6, 62, 110
11, 335724, Note_on_c, 6, 62, 0
11, 335760, Note_on_c, 6, 62, 110
11, 335844, Note_on_c, 6, 62, 0
11, 335880, Note_on_c, 6, 62, 110
11, 335964, Note_on_c, 6, 62, 0
11, 336000, Note_on_c, 6, 63, 110
11, 336084, Note_on_c, 6, 63, 0
11, 336120, Note_on_c, 6, 63, 110
11, 336204, Note_on_c, 6, 63, 0
11, 336240, Note_on_c, 6, 63, 110
11, 336324, Note_on_c, 6, 63, 0
11, 336360, Note_on_c, 6, 63, 110
11, 336444, Note_on_c, 6, 63, 0
11, 336480, Note_on_c, 6, 63, 110
11, 336564, Note_on_c, 6, 63, 0
11, 336600, Note_on_c, 6, 63, 110
11, 336684, Note_on_c, 6, 63, 0
11, 336720, Note_on_c, 6, 63, 110
11, 336804, Note_on_c, 6, 63, 0
11, 336840, Note_on_c, 6, 63, 110
11, 336924, Note_on_c, 6, 63, 0
11, 336960, Note_on_c, 6, 64, 110
11, 337044, Note_on_c, 6, 64, 0
11, 337080, Note_on_c, 6, 64, 110
11, 337164, Note_on_c, 6, 64, 0
11, 337200, Note_on_c, 6, 64, 110
11, 337284, Note_on_c, 6, 64, 0
11, 337320, Note_on_c, 6, 64, 110
11, 337404, Note_on_c, 6, 64, 0
11, 337440, Note_on_c, 6, 64, 110
11, 337524, Note_on_c, 6, 64, 0
11, 337560, Note_on_c, 6, 64, 110
11, 337644, Note_on_c, 6, 64, 0
11, 337680, Note_on_c, 6, 64, 110
11, 337764, Note_on_c, 6, 64, 0
11, 337800, Note_on_c, 6, 64, 110
11, 337884, Note_on_c, 6, 64, 0
11, 337920, Note_on_c, 6, 62, 110
11, 338016, Note_on_c, 6, 62, 0
11, 338040, Note_on_c, 6, 62, 110
11, 338136, Note_on_c, 6, 62, 0
11, 338160, Note_on_c, 6, 62, 110
11, 338256, Note_on_c, 6, 62, 0
11, 338280, Note_on_c, 6, 62, 110
11, 338376, Note_on_c, 6, 62, 0
11, 338400, Note_on_c, 6, 62, 110
11, 338496, Note_on_c, 6, 62, 0
11, 338520, Note_on_c, 6, 62, 110
11, 338616, Note_on_c, 6, 62, 0
11, 338640, Note_on_c, 6, 62, 110
11, 338736, Note_on_c, 6, 62, 0
11, 338760, Note_on_c, 6, 62, 110
11, 338856, Note_on_c, 6, 62, 0
11, 338880, Note_on_c, 6, 50, 110
11, 338976, Note_on_c, 6, 50, 0
11, 339000, Note_on_c, 6, 50, 110
11, 339096, Note_on_c, 6, 50, 0
11, 339120, Note_on_c, 6, 50, 110
11, 339216, Note_on_c, 6, 50, 0
11, 339240, Note_on_c, 6, 50, 110
11, 339336, Note_on_c, 6, 50, 0
11, 339360, Note_on_c, 6, 50, 110
11, 339456, Note_on_c, 6, 50, 0
11, 339480, Note_on_c, 6, 50, 110
11, 339576, Note_on_c, 6, 50, 0
11, 339600, Note_on_c, 6, 50, 110
11, 339696, Note_on_c, 6, 50, 0
11, 339720, Note_on_c, 6, 50, 110
11, 339816, Note_on_c, 6, 50, 0
11, 339840, Note_on_c, 6, 55, 110
11, 339984, Note_on_c, 6, 55, 0
11, 340080, Note_on_c, 6, 46, 110
11, 340560, Note_on_c, 6, 46, 0
11, 340560, Note_on_c, 6, 48, 110
11, 340704, Note_on_c, 6, 48, 0
11, 340800, Note_on_c, 6, 49, 110
11, 340944, Note_on_c, 6, 49, 0
11, 341040, Note_on_c, 6, 50, 110
11, 341184, Note_on_c, 6, 50, 0
11, 341280, Note_on_c, 6, 51, 110
11, 341424, Note_on_c, 6, 51, 0
11, 341520, Note_on_c, 6, 52, 110
11, 341664, Note_on_c, 6, 52, 0
11, 341760, Note_on_c, 6, 53, 110
11, 342000, Note_on_c, 6, 53, 0
11, 342180, Note_on_c, 6, 53, 127
11, 342228, Note_on_c, 6, 53, 0
11, 342240, Note_on_c, 6, 51, 110
11, 342480, Note_on_c, 6, 51, 0
11, 342660, Note_on_c, 6, 51, 127
11, 342708, Note_on_c, 6, 51, 0
11, 342720, Note_on_c, 6, 60, 110
11, 342960, Note_on_c, 6, 60, 0
11, 343140, Note_on_c, 6, 60, 127
11, 343188, Note_on_c, 6, 60, 0
11, 343200, Note_on_c, 6, 58, 110
11, 343440, Note_on_c, 6, 58, 0
11, 343620, Note_on_c, 6, 58, 127
11, 343668, Note_on_c, 6, 58, 0
11, 343680, Note_on_c, 6, 48, 110
11, 344040, Note_on_c, 6, 48, 0
11, 344640, Note_on_c, 6, 50, 80
11, 345000, Note_on_c, 6, 50, 0
11, 347040, Note_on_c, 6, 60, 80
11, 348000, Note_on_c, 6, 60, 0
11, 348000, Note_on_c, 6, 58, 80
11, 348240, Note_on_c, 6, 58, 0
11, 348960, Note_on_c, 6, 48, 56
11, 349920, Note_on_c, 6, 48, 0
11, 349920, Note_on_c, 6, 46, 56
11, 350160, Note_on_c, 6, 46, 0
11, 350400, Note_on_c, 6, 55, 110
11, 350484, Note_on_c, 6, 55, 0
11, 350520, Note_on_c, 6, 55, 110
11, 350604, Note_on_c, 6, 55, 0
11, 350640, Note_on_c, 6, 55, 110
11, 350724, Note_on_c, 6, 55, 0
11, 350760, Note_on_c, 6, 55, 110
11, 350844, Note_on_c, 6, 55, 0
11, 350880, Note_on_c, 6, 55, 110
11, 350964, Note_on_c, 6, 55, 0
11, 351000, Note_on_c, 6, 55, 110
11, 351084, Note_on_c, 6, 55, 0
11, 351120, Note_on_c, 6, 55, 110
11, 351204, Note_on_c, 6, 55, 0
11, 351240, Note_on_c, 6, 55, 110
11, 351324, Note_on_c, 6, 55, 0
11, 351360, Note_on_c, 6, 60, 110
11, 351444, Note_on_c, 6, 60, 0
11, 351480, Note_on_c, 6, 60, 110
11, 351564, Note_on_c, 6, 60, 0
11, 351600, Note_on_c, 6, 60, 110
11, 351684, Note_on_c, 6, 60, 0
11, 351720, Note_on_c, 6, 60, 110
11, 351804, Note_on_c, 6, 60, 0
11, 351840, Note_on_c, 6, 60, 110
11, 351924, Note_on_c, 6, 60, 0
11, 351960, Note_on_c, 6, 60, 110
11, 352044, Note_on_c, 6, 60, 0
11, 352080, Note_on_c, 6, 60, 110
11, 352164, Note_on_c, 6, 60, 0
11, 352200, Note_on_c, 6, 60, 110
11, 352284, Note_on_c, 6, 60, 0
11, 352320, Note_on_c, 6, 62, 110
11, 352404, Note_on_c, 6, 62, 0
11, 352440, Note_on_c, 6, 62, 110
11, 352524, Note_on_c, 6, 62, 0
11, 352560, Note_on_c, 6, 62, 110
11, 352644, Note_on_c, 6, 62, 0
11, 352680, Note_on_c, 6, 62, 110
11, 352764, Note_on_c, 6, 62, 0
11, 352800, Note_on_c, 6, 50, 110
11, 352884, Note_on_c, 6, 50, 0
11, 352920, Note_on_c, 6, 50, 110
11, 353004, Note_on_c, 6, 50, 0
11, 353040, Note_on_c, 6, 50, 110
11, 353124, Note_on_c, 6, 50, 0
11, 353160, Note_on_c, 6, 50, 110
11, 353244, Note_on_c, 6, 50, 0
11, 353280, Note_on_c, 6, 55, 110
11, 353520, Note_on_c, 6, 55, 0
11, 353760, Note_on_c, 6, 55, 80
11, 354720, Note_on_c, 6, 55, 0
11, 354720, Note_on_c, 6, 54, 80
11, 354960, Note_on_c, 6, 54, 0
11, 355680, Note_on_c, 6, 43, 80
11, 356640, Note_on_c, 6, 43, 0
11, 356640, Note_on_c, 6, 42, 80
11, 356880, Note_on_c, 6, 42, 0
11, 358080, Note_on_c, 6, 55, 110
11, 358164, Note_on_c, 6, 55, 0
11, 358200, Note_on_c, 6, 55, 110
11, 358284, Note_on_c, 6, 55, 0
11, 358320, Note_on_c, 6, 55, 110
11, 358404, Note_on_c, 6, 55, 0
11, 358440, Note_on_c, 6, 55, 110
11, 358524, Note_on_c, 6, 55, 0
11, 358560, Note_on_c, 6, 55, 110
11, 358644, Note_on_c, 6, 55, 0
11, 358680, Note_on_c, 6, 55, 110
11, 358764, Note_on_c, 6, 55, 0
11, 358800, Note_on_c, 6, 55, 110
11, 358884, Note_on_c, 6, 55, 0
11, 358920, Note_on_c, 6, 55, 110
11, 359004, Note_on_c, 6, 55, 0
11, 359040, Note_on_c, 6, 60, 110
11, 359124, Note_on_c, 6, 60, 0
11, 359160, Note_on_c, 6, 60, 110
11, 359244, Note_on_c, 6, 60, 0
11, 359280, Note_on_c, 6, 60, 110
11, 359364, Note_on_c, 6, 60, 0
11, 359400, Note_on_c, 6, 60, 110
11, 359484, Note_on_c, 6, 60, 0
11, 359520, Note_on_c, 6, 60, 110
11, 359604, Note_on_c, 6, 60, 0
11, 359640, Note_on_c, 6, 60, 110
11, 359724, Note_on_c, 6, 60, 0
11, 359760, Note_on_c, 6, 60, 110
11, 359844, Note_on_c, 6, 60, 0
11, 359880, Note_on_c, 6, 60, 110
11, 359964, Note_on_c, 6, 60, 0
11, 360000, Note_on_c, 6, 62, 110
11, 360084, Note_on_c, 6, 62, 0
11, 360120, Note_on_c, 6, 62, 110
11, 360204, Note_on_c, 6, 62, 0
11, 360240, Note_on_c, 6, 62, 110
11, 360324, Note_on_c, 6, 62, 0
11, 360360, Note_on_c, 6, 62, 110
11, 360444, Note_on_c, 6, 62, 0
11, 360480, Note_on_c, 6, 50, 110
11, 360564, Note_on_c, 6, 50, 0
11, 360600, Note_on_c, 6, 50, 110
11, 360684, Note_on_c, 6, 50, 0
11, 360720, Note_on_c, 6, 50, 110
11, 360804, Note_on_c, 6, 50, 0
11, 360840, Note_on_c, 6, 50, 110
11, 360924, Note_on_c, 6, 50, 0
11, 360960, Note_on_c, 6, 55, 110
11, 361344, Note_on_c, 6, 55, 0
11, 361800, Note_on_c, 6, 62, 110
11, 361896, Note_on_c, 6, 62, 0
11, 361920, Note_on_c, 6, 60, 110
11, 362004, Note_on_c, 6, 60, 0
11, 362040, Note_on_c, 6, 58, 110
11, 362124, Note_on_c, 6, 58, 0
11, 362160, Note_on_c, 6, 57, 110
11, 362244, Note_on_c, 6, 57, 0
11, 362280, Note_on_c, 6, 55, 110
11, 362364, Note_on_c, 6, 55, 0
11, 362400, Note_on_c, 6, 54, 110
11, 362484, Note_on_c, 6, 54, 0
11, 362520, Note_on_c, 6, 51, 110
11, 362604, Note_on_c, 6, 51, 0
11, 362640, Note_on_c, 6, 50, 110
11, 362724, Note_on_c, 6, 50, 0
11, 362760, Note_on_c, 6, 48, 110
11, 362844, Note_on_c, 6, 48, 0
11, 362880, Note_on_c, 6, 46, 110
11, 363024, Note_on_c, 6, 46, 0
11, 363120, Note_on_c, 6, 46, 110
11, 363264, Note_on_c, 6, 46, 0
11, 363360, Note_on_c, 6, 48, 110
11, 363504, Note_on_c, 6, 48, 0
11, 363600, Note_on_c, 6, 50, 110
11, 363744, Note_on_c, 6, 50, 0
11, 363840, Note_on_c, 6, 55, 110
11, 363924, Note_on_c, 6, 55, 0
11, 363960, Note_on_c, 6, 50, 110
11, 364044, Note_on_c, 6, 50, 0
11, 364080, Note_on_c, 6, 58, 110
11, 364164, Note_on_c, 6, 58, 0
11, 364200, Note_on_c, 6, 57, 110
11, 364284, Note_on_c, 6, 57, 0
11, 364320, Note_on_c, 6, 55, 110
11, 364404, Note_on_c, 6, 55, 0
11, 364440, Note_on_c, 6, 53, 110
11, 364524, Note_on_c, 6, 53, 0
11, 364560, Note_on_c, 6, 51, 110
11, 364644, Note_on_c, 6, 51, 0
11, 364680, Note_on_c, 6, 50, 110
11, 364764, Note_on_c, 6, 50, 0
11, 364800, Note_on_c, 6, 49, 110
11, 364884, Note_on_c, 6, 49, 0
11, 364920, Note_on_c, 6, 52, 110
11, 365004, Note_on_c, 6, 52, 0
11, 365040, Note_on_c, 6, 57, 110
11, 365124, Note_on_c, 6, 57, 0
11, 365160, Note_on_c, 6, 55, 110
11, 365244, Note_on_c, 6, 55, 0
11, 365280, Note_on_c, 6, 54, 110
11, 365364, Note_on_c, 6, 54, 0
11, 365400, Note_on_c, 6, 51, 110
11, 365484, Note_on_c, 6, 51, 0
11, 365520, Note_on_c, 6, 50, 110
11, 365604, Note_on_c, 6, 50, 0
11, 365640, Note_on_c, 6, 48, 110
11, 365724, Note_on_c, 6, 48, 0
11, 365760, Note_on_c, 6, 46, 110
11, 366000, Note_on_c, 6, 46, 0
11, 366180, Note_on_c, 6, 47, 127
11, 366228, Note_on_c, 6, 47, 0
11, 366240, Note_on_c, 6, 47, 110
11, 366480, Note_on_c, 6, 47, 0
11, 366660, Note_on_c, 6, 48, 127
11, 366708, Note_on_c, 6, 48, 0
11, 366720, Note_on_c, 6, 48, 110
11, 366960, Note_on_c, 6, 48, 0
11, 367140, Note_on_c, 6, 49, 127
11, 367188, Note_on_c, 6, 49, 0
11, 367200, Note_on_c, 6, 49, 110
11, 367440, Note_on_c, 6, 49, 0
11, 367620, Note_on_c, 6, 50, 127
11, 367668, Note_on_c, 6, 50, 0
11, 367680, Note_on_c, 6, 50, 110
11, 367920, Note_on_c, 6, 50, 0
11, 368100, Note_on_c, 6, 53, 127
11, 368148, Note_on_c, 6, 53, 0
11, 368160, Note_on_c, 6, 53, 110
11, 368400, Note_on_c, 6, 53, 0
11, 368580, Note_on_c, 6, 52, 127
11, 368628, Note_on_c, 6, 52, 0
11, 368640, Note_on_c, 6, 52, 110
11, 368880, Note_on_c, 6, 52, 0
11, 369060, Note_on_c, 6, 51, 127
11, 369108, Note_on_c, 6, 51, 0
11, 369120, Note_on_c, 6, 51, 110
11, 369360, Note_on_c, 6, 51, 0
11, 371520, Note_on_c, 6, 43, 64
11, 372000, Note_on_c, 6, 43, 0
11, 372000, Note_on_c, 6, 47, 64
11, 372480, Note_on_c, 6, 47, 0
11, 372480, Note_on_c, 6, 50, 64
11, 372960, Note_on_c, 6, 50, 0
11, 372960, Note_on_c, 6, 47, 64
11, 373440, Note_on_c, 6, 47, 0
11, 373440, Note_on_c, 6, 43, 64
11, 373920, Note_on_c, 6, 43, 0
11, 373920, Note_on_c, 6, 48, 64
11, 374400, Note_on_c, 6, 48, 0
11, 374400, Note_on_c, 6, 51, 45
11, 374880, Note_on_c, 6, 51, 0
11, 374880, Note_on_c, 6, 48, 45
11, 375360, Note_on_c, 6, 48, 0
11, 375360, Note_on_c, 6, 43, 45
11, 375840, Note_on_c, 6, 43, 0
11, 375840, Note_on_c, 6, 48, 45
11, 376320, Note_on_c, 6, 48, 0
11, 376320, Note_on_c, 6, 54, 45
11, 376800, Note_on_c, 6, 54, 0
11, 376800, Note_on_c, 6, 48, 45
11, 377280, Note_on_c, 6, 48, 0
11, 377280, Note_on_c, 6, 43, 110
11, 377520, Note_on_c, 6, 43, 0
11, 377760, Note_on_c, 6, 50, 110
11, 378000, Note_on_c, 6, 50, 0
11, 378240, Note_on_c, 6, 55, 110
11, 378480, Note_on_c, 6, 55, 0
11, 378720, Note_on_c, 6, 50, 110
11, 378960, Note_on_c, 6, 50, 0
11, 379200, Note_on_c, 6, 55, 110
11, 379440, Note_on_c, 6, 55, 0
11, 379680, Note_on_c, 6, 50, 110
11, 379920, Note_on_c, 6, 50, 0
11, 380160, Note_on_c, 6, 55, 110
11, 380352, Note_on_c, 6, 55, 0
11, 380400, Note_on_c, 6, 50, 110
11, 380592, Note_on_c, 6, 50, 0
11, 380640, Note_on_c, 6, 55, 110
11, 380832, Note_on_c, 6, 55, 0
11, 380880, Note_on_c, 6, 50, 110
11, 381072, Note_on_c, 6, 50, 0
11, 381120, Note_on_c, 6, 55, 110
11, 381480, Note_on_c, 6, 55, 0
11, 382080, Note_on_c, 6, 43, 110
11, 382320, Note_on_c, 6, 43, 0
11, 382560, Note_on_c, 6, 55, 110
11, 382800, Note_on_c, 6, 55, 0
11, 383040, Note_on_c, 6, 43, 110
11, 383760, Note_on_c, 6, 43, 0
11, 383760, End_track
12, 0, Start_track
12, 0, MIDI_port, 0
12, 0, Title_t, "Basso."
12, 0, Program_c, 7, 48
12, 116, Control_c, 7, 10, 34
12, 934, Control_c, 7, 91, 127
12, 960, Note_on_c, 7, 31, 56
12, 1200, Note_on_c, 7, 31, 0
12, 1920, Note_on_c, 7, 43, 56
12, 2160, Note_on_c, 7, 43, 0
12, 2880, Note_on_c, 7, 31, 56
12, 3120, Note_on_c, 7, 31, 0
12, 3840, Note_on_c, 7, 43, 56
12, 4080, Note_on_c, 7, 43, 0
12, 4800, Note_on_c, 7, 31, 39
12, 5040, Note_on_c, 7, 31, 0
12, 5760, Note_on_c, 7, 43, 56
12, 6000, Note_on_c, 7, 43, 0
12, 6720, Note_on_c, 7, 30, 56
12, 6960, Note_on_c, 7, 30, 0
12, 7680, Note_on_c, 7, 38, 56
12, 7920, Note_on_c, 7, 38, 0
12, 8640, Note_on_c, 7, 31, 56
12, 8880, Note_on_c, 7, 31, 0
12, 9600, Note_on_c, 7, 36, 56
12, 10560, Note_on_c, 7, 36, 0
12, 10560, Note_on_c, 7, 34, 56
12, 11520, Note_on_c, 7, 34, 0
12, 11520, Note_on_c, 7, 36, 56
12, 12480, Note_on_c, 7, 36, 0
12, 12480, Note_on_c, 7, 34, 56
12, 13440, Note_on_c, 7, 34, 0
12, 13440, Note_on_c, 7, 40, 56
12, 14400, Note_on_c, 7, 40, 0
12, 14400, Note_on_c, 7, 39, 56
12, 15360, Note_on_c, 7, 39, 0
12, 15360, Note_on_c, 7, 38, 56
12, 15744, Note_on_c, 7, 38, 0
12, 16080, Note_on_c, 7, 38, 77
12, 16176, Note_on_c, 7, 38, 0
12, 16200, Note_on_c, 7, 38, 77
12, 16296, Note_on_c, 7, 38, 0
12, 16320, Note_on_c, 7, 38, 77
12, 16704, Note_on_c, 7, 38, 0
12, 17040, Note_on_c, 7, 38, 77
12, 17136, Note_on_c, 7, 38, 0
12, 17160, Note_on_c, 7, 38, 77
12, 17256, Note_on_c, 7, 38, 0
12, 17280, Note_on_c, 7, 38, 77
12, 17664, Note_on_c, 7, 38, 0
12, 18000, Note_on_c, 7, 38, 77
12, 18096, Note_on_c, 7, 38, 0
12, 18120, Note_on_c, 7, 38, 77
12, 18216, Note_on_c, 7, 38, 0
12, 18240, Note_on_c, 7, 38, 77
12, 18432, Note_on_c, 7, 38, 0
12, 18480, Note_on_c, 7, 38, 74
12, 18576, Note_on_c, 7, 38, 0
12, 18600, Note_on_c, 7, 38, 71
12, 18696, Note_on_c, 7, 38, 0
12, 18720, Note_on_c, 7, 38, 70
12, 18912, Note_on_c, 7, 38, 0
12, 18960, Note_on_c, 7, 38, 67
12, 19056, Note_on_c, 7, 38, 0
12, 19080, Note_on_c, 7, 38, 64
12, 19176, Note_on_c, 7, 38, 0
12, 19200, Note_on_c, 7, 38, 80
12, 19584, Note_on_c, 7, 38, 0
12, 21120, Note_on_c, 7, 31, 56
12, 21360, Note_on_c, 7, 31, 0
12, 22080, Note_on_c, 7, 43, 56
12, 22320, Note_on_c, 7, 43, 0
12, 23040, Note_on_c, 7, 27, 56
12, 23280, Note_on_c, 7, 27, 0
12, 24000, Note_on_c, 7, 36, 56
12, 24240, Note_on_c, 7, 36, 0
12, 24960, Note_on_c, 7, 29, 56
12, 25200, Note_on_c, 7, 29, 0
12, 25920, Note_on_c, 7, 41, 56
12, 26160, Note_on_c, 7, 41, 0
12, 26880, Note_on_c, 7, 46, 77
12, 26940, Note_on_c, 7, 46, 0
12, 27000, Note_on_c, 7, 50, 77
12, 27060, Note_on_c, 7, 50, 0
12, 27120, Note_on_c, 7, 46, 77
12, 27180, Note_on_c, 7, 46, 0
12, 27240, Note_on_c, 7, 50, 77
12, 27300, Note_on_c, 7, 50, 0
12, 27360, Note_on_c, 7, 46, 77
12, 27420, Note_on_c, 7, 46, 0
12, 27480, Note_on_c, 7, 50, 77
12, 27540, Note_on_c, 7, 50, 0
12, 27600, Note_on_c, 7, 46, 77
12, 27660, Note_on_c, 7, 46, 0
12, 27720, Note_on_c, 7, 50, 77
12, 27780, Note_on_c, 7, 50, 0
12, 27840, Note_on_c, 7, 45, 77
12, 27900, Note_on_c, 7, 45, 0
12, 27960, Note_on_c, 7, 48, 77
12, 28020, Note_on_c, 7, 48, 0
12, 28080, Note_on_c, 7, 45, 77
12, 28140, Note_on_c, 7, 45, 0
12, 28200, Note_on_c, 7, 48, 77
12, 28260, Note_on_c, 7, 48, 0
12, 28320, Note_on_c, 7, 45, 77
12, 28380, Note_on_c, 7, 45, 0
12, 28440, Note_on_c, 7, 48, 77
12, 28500, Note_on_c, 7, 48, 0
12, 28560, Note_on_c, 7, 45, 77
12, 28620, Note_on_c, 7, 45, 0
12, 28680, Note_on_c, 7, 48, 77
12, 28740, Note_on_c, 7, 48, 0
12, 28800, Note_on_c, 7, 43, 77
12, 28860, Note_on_c, 7, 43, 0
12, 28920, Note_on_c, 7, 46, 77
12, 28980, Note_on_c, 7, 46, 0
12, 29040, Note_on_c, 7, 43, 77
12, 29100, Note_on_c, 7, 43, 0
12, 29160, Note_on_c, 7, 46, 77
12, 29220, Note_on_c, 7, 46, 0
12, 29280, Note_on_c, 7, 43, 77
12, 29340, Note_on_c, 7, 43, 0
12, 29400, Note_on_c, 7, 46, 77
12, 29460, Note_on_c, 7, 46, 0
12, 29520, Note_on_c, 7, 43, 77
12, 29580, Note_on_c, 7, 43, 0
12, 29640, Note_on_c, 7, 46, 77
12, 29700, Note_on_c, 7, 46, 0
12, 29760, Note_on_c, 7, 41, 77
12, 29820, Note_on_c, 7, 41, 0
12, 29880, Note_on_c, 7, 46, 77
12, 29940, Note_on_c, 7, 46, 0
12, 30000, Note_on_c, 7, 41, 77
12, 30060, Note_on_c, 7, 41, 0
12, 30120, Note_on_c, 7, 46, 77
12, 30180, Note_on_c, 7, 46, 0
12, 30240, Note_on_c, 7, 41, 77
12, 30300, Note_on_c, 7, 41, 0
12, 30360, Note_on_c, 7, 46, 77
12, 30420, Note_on_c, 7, 46, 0
12, 30480, Note_on_c, 7, 41, 77
12, 30540, Note_on_c, 7, 41, 0
12, 30600, Note_on_c, 7, 46, 77
12, 30660, Note_on_c, 7, 46, 0
12, 30720, Note_on_c, 7, 39, 77
12, 30780, Note_on_c, 7, 39, 0
12, 30840, Note_on_c, 7, 43, 77
12, 30900, Note_on_c, 7, 43, 0
12, 30960, Note_on_c, 7, 39, 77
12, 31020, Note_on_c, 7, 39, 0
12, 31080, Note_on_c, 7, 43, 77
12, 31140, Note_on_c, 7, 43, 0
12, 31200, Note_on_c, 7, 39, 77
12, 31260, Note_on_c, 7, 39, 0
12, 31320, Note_on_c, 7, 43, 77
12, 31380, Note_on_c, 7, 43, 0
12, 31440, Note_on_c, 7, 39, 77
12, 31500, Note_on_c, 7, 39, 0
12, 31560, Note_on_c, 7, 43, 77
12, 31620, Note_on_c, 7, 43, 0
12, 31680, Note_on_c, 7, 38, 77
12, 31740, Note_on_c, 7, 38, 0
12, 31800, Note_on_c, 7, 41, 77
12, 31860, Note_on_c, 7, 41, 0
12, 31920, Note_on_c, 7, 38, 77
12, 31980, Note_on_c, 7, 38, 0
12, 32040, Note_on_c, 7, 41, 77
12, 32100, Note_on_c, 7, 41, 0
12, 32160, Note_on_c, 7, 38, 77
12, 32220, Note_on_c, 7, 38, 0
12, 32280, Note_on_c, 7, 41, 77
12, 32340, Note_on_c, 7, 41, 0
12, 32400, Note_on_c, 7, 38, 77
12, 32460, Note_on_c, 7, 38, 0
12, 32520, Note_on_c, 7, 41, 77
12, 32580, Note_on_c, 7, 41, 0
12, 32640, Note_on_c, 7, 36, 77
12, 33600, Note_on_c, 7, 36, 0
12, 33600, Note_on_c, 7, 36, 77
12, 33984, Note_on_c, 7, 36, 0
12, 34080, Note_on_c, 7, 37, 54
12, 34464, Note_on_c, 7, 37, 0
12, 34560, Note_on_c, 7, 36, 77
12, 34944, Note_on_c, 7, 36, 0
12, 35040, Note_on_c, 7, 37, 77
12, 35424, Note_on_c, 7, 37, 0
12, 35520, Note_on_c, 7, 36, 77
12, 35904, Note_on_c, 7, 36, 0
12, 36360, Note_on_c, 7, 36, 77
12, 36456, Note_on_c, 7, 36, 0
12, 36480, Note_on_c, 7, 41, 77
12, 36540, Note_on_c, 7, 41, 0
12, 36600, Note_on_c, 7, 41, 77
12, 36660, Note_on_c, 7, 41, 0
12, 36720, Note_on_c, 7, 41, 77
12, 36780, Note_on_c, 7, 41, 0
12, 36840, Note_on_c, 7, 41, 77
12, 36900, Note_on_c, 7, 41, 0
12, 36960, Note_on_c, 7, 41, 77
12, 37020, Note_on_c, 7, 41, 0
12, 37080, Note_on_c, 7, 41, 77
12, 37140, Note_on_c, 7, 41, 0
12, 37200, Note_on_c, 7, 41, 77
12, 37260, Note_on_c, 7, 41, 0
12, 37320, Note_on_c, 7, 41, 77
12, 37380, Note_on_c, 7, 41, 0
12, 37440, Note_on_c, 7, 41, 77
12, 37500, Note_on_c, 7, 41, 0
12, 37560, Note_on_c, 7, 41, 77
12, 37620, Note_on_c, 7, 41, 0
12, 37680, Note_on_c, 7, 41, 77
12, 37740, Note_on_c, 7, 41, 0
12, 37800, Note_on_c, 7, 41, 77
12, 37860, Note_on_c, 7, 41, 0
12, 37920, Note_on_c, 7, 41, 77
12, 37980, Note_on_c, 7, 41, 0
12, 38040, Note_on_c, 7, 41, 77
12, 38100, Note_on_c, 7, 41, 0
12, 38160, Note_on_c, 7, 41, 77
12, 38220, Note_on_c, 7, 41, 0
12, 38280, Note_on_c, 7, 41, 77
12, 38340, Note_on_c, 7, 41, 0
12, 38400, Note_on_c, 7, 41, 77
12, 38460, Note_on_c, 7, 41, 0
12, 38520, Note_on_c, 7, 41, 77
12, 38580, Note_on_c, 7, 41, 0
12, 38640, Note_on_c, 7, 41, 77
12, 38700, Note_on_c, 7, 41, 0
12, 38760, Note_on_c, 7, 41, 77
12, 38820, Note_on_c, 7, 41, 0
12, 38880, Note_on_c, 7, 41, 77
12, 38940, Note_on_c, 7, 41, 0
12, 39000, Note_on_c, 7, 41, 77
12, 39060, Note_on_c, 7, 41, 0
12, 39120, Note_on_c, 7, 41, 77
12, 39180, Note_on_c, 7, 41, 0
12, 39240, Note_on_c, 7, 41, 77
12, 39300, Note_on_c, 7, 41, 0
12, 39360, Note_on_c, 7, 41, 77
12, 39420, Note_on_c, 7, 41, 0
12, 39480, Note_on_c, 7, 41, 77
12, 39540, Note_on_c, 7, 41, 0
12, 39600, Note_on_c, 7, 41, 77
12, 39660, Note_on_c, 7, 41, 0
12, 39720, Note_on_c, 7, 41, 77
12, 39780, Note_on_c, 7, 41, 0
12, 39840, Note_on_c, 7, 41, 77
12, 39900, Note_on_c, 7, 41, 0
12, 39960, Note_on_c, 7, 41, 77
12, 40020, Note_on_c, 7, 41, 0
12, 40080, Note_on_c, 7, 41, 77
12, 40140, Note_on_c, 7, 41, 0
12, 40200, Note_on_c, 7, 41, 77
12, 40260, Note_on_c, 7, 41, 0
12, 40320, Note_on_c, 7, 41, 77
12, 40560, Note_on_c, 7, 41, 0
12, 40800, Note_on_c, 7, 29, 54
12, 41040, Note_on_c, 7, 29, 0
12, 42240, Note_on_c, 7, 50, 56
12, 42960, Note_on_c, 7, 50, 0
12, 42960, Note_on_c, 7, 48, 56
12, 43200, Note_on_c, 7, 48, 0
12, 43200, Note_on_c, 7, 41, 56
12, 43560, Note_on_c, 7, 41, 0
12, 44400, Note_on_c, 7, 43, 56
12, 44544, Note_on_c, 7, 43, 0
12, 44640, Note_on_c, 7, 43, 56
12, 44880, Note_on_c, 7, 43, 0
12, 44880, Note_on_c, 7, 40, 56
12, 45120, Note_on_c, 7, 40, 0
12, 45120, Note_on_c, 7, 41, 56
12, 45504, Note_on_c, 7, 41, 0
12, 46080, Note_on_c, 7, 39, 56
12, 46800, Note_on_c, 7, 39, 0
12, 46800, Note_on_c, 7, 38, 56
12, 47040, Note_on_c, 7, 38, 0
12, 47040, Note_on_c, 7, 43, 56
12, 47280, Note_on_c, 7, 43, 0
12, 47280, Note_on_c, 7, 36, 56
12, 47520, Note_on_c, 7, 36, 0
12, 47520, Note_on_c, 7, 41, 56
12, 47760, Note_on_c, 7, 41, 0
12, 47760, Note_on_c, 7, 34, 56
12, 48000, Note_on_c, 7, 34, 0
12, 48000, Note_on_c, 7, 39, 56
12, 48240, Note_on_c, 7, 39, 0
12, 48480, Note_on_c, 7, 41, 56
12, 48720, Note_on_c, 7, 41, 0
12, 48960, Note_on_c, 7, 34, 56
12, 49320, Note_on_c, 7, 34, 0
12, 53760, Note_on_c, 7, 51, 56
12, 54480, Note_on_c, 7, 51, 0
12, 54480, Note_on_c, 7, 50, 56
12, 54720, Note_on_c, 7, 50, 0
12, 54720, Note_on_c, 7, 43, 56
12, 54960, Note_on_c, 7, 43, 0
12, 54960, Note_on_c, 7, 48, 56
12, 55200, Note_on_c, 7, 48, 0
12, 55200, Note_on_c, 7, 41, 56
12, 55440, Note_on_c, 7, 41, 0
12, 55440, Note_on_c, 7, 46, 56
12, 55680, Note_on_c, 7, 46, 0
12, 55680, Note_on_c, 7, 39, 56
12, 56640, Note_on_c, 7, 39, 0
12, 56640, Note_on_c, 7, 39, 56
12, 57600, Note_on_c, 7, 39, 0
12, 57600, Note_on_c, 7, 39, 56
12, 58560, Note_on_c, 7, 39, 0
12, 58560, Note_on_c, 7, 39, 56
12, 59520, Note_on_c, 7, 39, 0
12, 59520, Note_on_c, 7, 39, 53
12, 59616, Note_on_c, 7, 39, 0
12, 59640, Note_on_c, 7, 39, 55
12, 59736, Note_on_c, 7, 39, 0
12, 59760, Note_on_c, 7, 39, 57
12, 59856, Note_on_c, 7, 39, 0
12, 59880, Note_on_c, 7, 39, 59
12, 59976, Note_on_c, 7, 39, 0
12, 60000, Note_on_c, 7, 39, 62
12, 60096, Note_on_c, 7, 39, 0
12, 60120, Note_on_c, 7, 39, 64
12, 60216, Note_on_c, 7, 39, 0
12, 60240, Note_on_c, 7, 39, 66
12, 60336, Note_on_c, 7, 39, 0
12, 60360, Note_on_c, 7, 39, 68
12, 60456, Note_on_c, 7, 39, 0
12, 60480, Note_on_c, 7, 40, 70
12, 60576, Note_on_c, 7, 40, 0
12, 60600, Note_on_c, 7, 40, 71
12, 60696, Note_on_c, 7, 40, 0
12, 60720, Note_on_c, 7, 40, 72
12, 60816, Note_on_c, 7, 40, 0
12, 60840, Note_on_c, 7, 40, 73
12, 60936, Note_on_c, 7, 40, 0
12, 60960, Note_on_c, 7, 40, 74
12, 61056, Note_on_c, 7, 40, 0
12, 61080, Note_on_c, 7, 40, 74
12, 61176, Note_on_c, 7, 40, 0
12, 61200, Note_on_c, 7, 40, 76
12, 61296, Note_on_c, 7, 40, 0
12, 61320, Note_on_c, 7, 40, 76
12, 61416, Note_on_c, 7, 40, 0
12, 61440, Note_on_c, 7, 41, 77
12, 61536, Note_on_c, 7, 41, 0
12, 61560, Note_on_c, 7, 41, 77
12, 61656, Note_on_c, 7, 41, 0
12, 61680, Note_on_c, 7, 41, 77
12, 61776, Note_on_c, 7, 41, 0
12, 61800, Note_on_c, 7, 41, 77
12, 61896, Note_on_c, 7, 41, 0
12, 61920, Note_on_c, 7, 41, 77
12, 62016, Note_on_c, 7, 41, 0
12, 62040, Note_on_c, 7, 41, 77
12, 62136, Note_on_c, 7, 41, 0
12, 62160, Note_on_c, 7, 41, 77
12, 62256, Note_on_c, 7, 41, 0
12, 62280, Note_on_c, 7, 41, 77
12, 62376, Note_on_c, 7, 41, 0
12, 62400, Note_on_c, 7, 29, 77
12, 62496, Note_on_c, 7, 29, 0
12, 62520, Note_on_c, 7, 29, 77
12, 62616, Note_on_c, 7, 29, 0
12, 62640, Note_on_c, 7, 29, 77
12, 62736, Note_on_c, 7, 29, 0
12, 62760, Note_on_c, 7, 29, 77
12, 62856, Note_on_c, 7, 29, 0
12, 62880, Note_on_c, 7, 29, 77
12, 62976, Note_on_c, 7, 29, 0
12, 63000, Note_on_c, 7, 29, 77
12, 63096, Note_on_c, 7, 29, 0
12, 63120, Note_on_c, 7, 29, 77
12, 63216, Note_on_c, 7, 29, 0
12, 63240, Note_on_c, 7, 29, 77
12, 63336, Note_on_c, 7, 29, 0
12, 63360, Note_on_c, 7, 34, 77
12, 63552, Note_on_c, 7, 34, 0
12, 63600, Note_on_c, 7, 38, 77
12, 64080, Note_on_c, 7, 38, 0
12, 64080, Note_on_c, 7, 39, 77
12, 64224, Note_on_c, 7, 39, 0
12, 64320, Note_on_c, 7, 40, 77
12, 64464, Note_on_c, 7, 40, 0
12, 64560, Note_on_c, 7, 41, 77
12, 64704, Note_on_c, 7, 41, 0
12, 64800, Note_on_c, 7, 42, 77
12, 64944, Note_on_c, 7, 42, 0
12, 65040, Note_on_c, 7, 43, 77
12, 65184, Note_on_c, 7, 43, 0
12, 65280, Note_on_c, 7, 44, 110
12, 65472, Note_on_c, 7, 44, 0
12, 65700, Note_on_c, 7, 44, 127
12, 65748, Note_on_c, 7, 44, 0
12, 65760, Note_on_c, 7, 43, 110
12, 65952, Note_on_c, 7, 43, 0
12, 66180, Note_on_c, 7, 43, 127
12, 66228, Note_on_c, 7, 43, 0
12, 66240, Note_on_c, 7, 51, 77
12, 66432, Note_on_c, 7, 51, 0
12, 66660, Note_on_c, 7, 51, 89
12, 66708, Note_on_c, 7, 51, 0
12, 66720, Note_on_c, 7, 50, 77
12, 66912, Note_on_c, 7, 50, 0
12, 67140, Note_on_c, 7, 50, 89
12, 67188, Note_on_c, 7, 50, 0
12, 67200, Note_on_c, 7, 39, 77
12, 67392, Note_on_c, 7, 39, 0
12, 68160, Note_on_c, 7, 41, 56
12, 68352, Note_on_c, 7, 41, 0
12, 70560, Note_on_c, 7, 39, 39
12, 71520, Note_on_c, 7, 39, 0
12, 71520, Note_on_c, 7, 38, 39
12, 71760, Note_on_c, 7, 38, 0
12, 72480, Note_on_c, 7, 39, 39
12, 73440, Note_on_c, 7, 39, 0
12, 73440, Note_on_c, 7, 38, 39
12, 73680, Note_on_c, 7, 38, 0
12, 73920, Note_on_c, 7, 38, 77
12, 74010, Note_on_c, 7, 38, 0
12, 74040, Note_on_c, 7, 38, 77
12, 74130, Note_on_c, 7, 38, 0
12, 74160, Note_on_c, 7, 38, 77
12, 74250, Note_on_c, 7, 38, 0
12, 74280, Note_on_c, 7, 38, 77
12, 74370, Note_on_c, 7, 38, 0
12, 74400, Note_on_c, 7, 38, 77
12, 74490, Note_on_c, 7, 38, 0
12, 74520, Note_on_c, 7, 38, 77
12, 74610, Note_on_c, 7, 38, 0
12, 74640, Note_on_c, 7, 38, 77
12, 74730, Note_on_c, 7, 38, 0
12, 74760, Note_on_c, 7, 38, 77
12, 74850, Note_on_c, 7, 38, 0
12, 74880, Note_on_c, 7, 43, 77
12, 74970, Note_on_c, 7, 43, 0
12, 75000, Note_on_c, 7, 43, 77
12, 75090, Note_on_c, 7, 43, 0
12, 75120, Note_on_c, 7, 43, 77
12, 75210, Note_on_c, 7, 43, 0
12, 75240, Note_on_c, 7, 43, 77
12, 75330, Note_on_c, 7, 43, 0
12, 75360, Note_on_c, 7, 39, 77
12, 75450, Note_on_c, 7, 39, 0
12, 75480, Note_on_c, 7, 39, 77
12, 75570, Note_on_c, 7, 39, 0
12, 75600, Note_on_c, 7, 39, 77
12, 75690, Note_on_c, 7, 39, 0
12, 75720, Note_on_c, 7, 39, 77
12, 75810, Note_on_c, 7, 39, 0
12, 75840, Note_on_c, 7, 41, 77
12, 75930, Note_on_c, 7, 41, 0
12, 75960, Note_on_c, 7, 41, 77
12, 76050, Note_on_c, 7, 41, 0
12, 76080, Note_on_c, 7, 41, 77
12, 76170, Note_on_c, 7, 41, 0
12, 76200, Note_on_c, 7, 41, 77
12, 76290, Note_on_c, 7, 41, 0
12, 76320, Note_on_c, 7, 29, 77
12, 76410, Note_on_c, 7, 29, 0
12, 76440, Note_on_c, 7, 29, 77
12, 76530, Note_on_c, 7, 29, 0
12, 76560, Note_on_c, 7, 29, 77
12, 76650, Note_on_c, 7, 29, 0
12, 76680, Note_on_c, 7, 29, 77
12, 76770, Note_on_c, 7, 29, 0
12, 76800, Note_on_c, 7, 34, 77
12, 76980, Note_on_c, 7, 34, 0
12, 77280, Note_on_c, 7, 46, 39
12, 78240, Note_on_c, 7, 46, 0
12, 78240, Note_on_c, 7, 45, 39
12, 78480, Note_on_c, 7, 45, 0
12, 79200, Note_on_c, 7, 34, 39
12, 80160, Note_on_c, 7, 34, 0
12, 80160, Note_on_c, 7, 33, 39
12, 80400, Note_on_c, 7, 33, 0
12, 81600, Note_on_c, 7, 38, 77
12, 81690, Note_on_c, 7, 38, 0
12, 81720, Note_on_c, 7, 38, 77
12, 81810, Note_on_c, 7, 38, 0
12, 81840, Note_on_c, 7, 38, 77
12, 81930, Note_on_c, 7, 38, 0
12, 81960, Note_on_c, 7, 38, 77
12, 82050, Note_on_c, 7, 38, 0
12, 82080, Note_on_c, 7, 38, 77
12, 82170, Note_on_c, 7, 38, 0
12, 82200, Note_on_c, 7, 38, 77
12, 82290, Note_on_c, 7, 38, 0
12, 82320, Note_on_c, 7, 38, 77
12, 82410, Note_on_c, 7, 38, 0
12, 82440, Note_on_c, 7, 38, 77
12, 82530, Note_on_c, 7, 38, 0
12, 82560, Note_on_c, 7, 43, 77
12, 82650, Note_on_c, 7, 43, 0
12, 82680, Note_on_c, 7, 43, 77
12, 82770, Note_on_c, 7, 43, 0
12, 82800, Note_on_c, 7, 43, 77
12, 82890, Note_on_c, 7, 43, 0
12, 82920, Note_on_c, 7, 43, 77
12, 83010, Note_on_c, 7, 43, 0
12, 83040, Note_on_c, 7, 39, 77
12, 83130, Note_on_c, 7, 39, 0
12, 83160, Note_on_c, 7, 39, 77
12, 83250, Note_on_c, 7, 39, 0
12, 83280, Note_on_c, 7, 39, 77
12, 83370, Note_on_c, 7, 39, 0
12, 83400, Note_on_c, 7, 39, 77
12, 83490, Note_on_c, 7, 39, 0
12, 83520, Note_on_c, 7, 41, 77
12, 83610, Note_on_c, 7, 41, 0
12, 83640, Note_on_c, 7, 41, 77
12, 83730, Note_on_c, 7, 41, 0
12, 83760, Note_on_c, 7, 41, 77
12, 83850, Note_on_c, 7, 41, 0
12, 83880, Note_on_c, 7, 41, 77
12, 83970, Note_on_c, 7, 41, 0
12, 84000, Note_on_c, 7, 29, 77
12, 84090, Note_on_c, 7, 29, 0
12, 84120, Note_on_c, 7, 29, 77
12, 84210, Note_on_c, 7, 29, 0
12, 84240, Note_on_c, 7, 29, 77
12, 84330, Note_on_c, 7, 29, 0
12, 84360, Note_on_c, 7, 29, 77
12, 84450, Note_on_c, 7, 29, 0
12, 84480, Note_on_c, 7, 34, 77
12, 84864, Note_on_c, 7, 34, 0
12, 85320, Note_on_c, 7, 53, 77
12, 85392, Note_on_c, 7, 53, 0
12, 85440, Note_on_c, 7, 51, 77
12, 85512, Note_on_c, 7, 51, 0
12, 85560, Note_on_c, 7, 50, 77
12, 85632, Note_on_c, 7, 50, 0
12, 85680, Note_on_c, 7, 48, 77
12, 85752, Note_on_c, 7, 48, 0
12, 85800, Note_on_c, 7, 46, 77
12, 85872, Note_on_c, 7, 46, 0
12, 85920, Note_on_c, 7, 45, 77
12, 85992, Note_on_c, 7, 45, 0
12, 86040, Note_on_c, 7, 43, 77
12, 86112, Note_on_c, 7, 43, 0
12, 86160, Note_on_c, 7, 41, 77
12, 86232, Note_on_c, 7, 41, 0
12, 86280, Note_on_c, 7, 39, 77
12, 86352, Note_on_c, 7, 39, 0
12, 86400, Note_on_c, 7, 38, 77
12, 86544, Note_on_c, 7, 38, 0
12, 86640, Note_on_c, 7, 38, 77
12, 86784, Note_on_c, 7, 38, 0
12, 86880, Note_on_c, 7, 39, 77
12, 87024, Note_on_c, 7, 39, 0
12, 87120, Note_on_c, 7, 41, 77
12, 87264, Note_on_c, 7, 41, 0
12, 87360, Note_on_c, 7, 46, 77
12, 87432, Note_on_c, 7, 46, 0
12, 87480, Note_on_c, 7, 41, 77
12, 87552, Note_on_c, 7, 41, 0
12, 87600, Note_on_c, 7, 50, 77
12, 87672, Note_on_c, 7, 50, 0
12, 87720, Note_on_c, 7, 48, 77
12, 87792, Note_on_c, 7, 48, 0
12, 87840, Note_on_c, 7, 46, 77
12, 87912, Note_on_c, 7, 46, 0
12, 87960, Note_on_c, 7, 45, 77
12, 88032, Note_on_c, 7, 45, 0
12, 88080, Note_on_c, 7, 43, 77
12, 88152, Note_on_c, 7, 43, 0
12, 88200, Note_on_c, 7, 41, 77
12, 88272, Note_on_c, 7, 41, 0
12, 88320, Note_on_c, 7, 39, 77
12, 88392, Note_on_c, 7, 39, 0
12, 88440, Note_on_c, 7, 38, 77
12, 88512, Note_on_c, 7, 38, 0
12, 88560, Note_on_c, 7, 36, 77
12, 88632, Note_on_c, 7, 36, 0
12, 88680, Note_on_c, 7, 34, 77
12, 88752, Note_on_c, 7, 34, 0
12, 88800, Note_on_c, 7, 33, 77
12, 88872, Note_on_c, 7, 33, 0
12, 88920, Note_on_c, 7, 36, 77
12, 88992, Note_on_c, 7, 36, 0
12, 89040, Note_on_c, 7, 41, 77
12, 89112, Note_on_c, 7, 41, 0
12, 89160, Note_on_c, 7, 39, 77
12, 89232, Note_on_c, 7, 39, 0
12, 89280, Note_on_c, 7, 38, 77
12, 89424, Note_on_c, 7, 38, 0
12, 89520, Note_on_c, 7, 38, 77
12, 89664, Note_on_c, 7, 38, 0
12, 89760, Note_on_c, 7, 39, 77
12, 89904, Note_on_c, 7, 39, 0
12, 90000, Note_on_c, 7, 41, 77
12, 90144, Note_on_c, 7, 41, 0
12, 90240, Note_on_c, 7, 43, 77
12, 90384, Note_on_c, 7, 43, 0
12, 90480, Note_on_c, 7, 39, 77
12, 90624, Note_on_c, 7, 39, 0
12, 90720, Note_on_c, 7, 41, 77
12, 90864, Note_on_c, 7, 41, 0
12, 90960, Note_on_c, 7, 29, 77
12, 91104, Note_on_c, 7, 29, 0
12, 91200, Note_on_c, 7, 34, 77
12, 91392, Note_on_c, 7, 34, 0
12, 91680, Note_on_c, 7, 41, 77
12, 91872, Note_on_c, 7, 41, 0
12, 92160, Note_on_c, 7, 46, 77
12, 92352, Note_on_c, 7, 46, 0
12, 92640, Note_on_c, 7, 41, 77
12, 92832, Note_on_c, 7, 41, 0
12, 93120, Note_on_c, 7, 46, 110
12, 93312, Note_on_c, 7, 46, 0
12, 93600, Note_on_c, 7, 41, 110
12, 93792, Note_on_c, 7, 41, 0
12, 94080, Note_on_c, 7, 46, 77
12, 94272, Note_on_c, 7, 46, 0
12, 94320, Note_on_c, 7, 41, 77
12, 94512, Note_on_c, 7, 41, 0
12, 94560, Note_on_c, 7, 46, 77
12, 94752, Note_on_c, 7, 46, 0
12, 94800, Note_on_c, 7, 41, 77
12, 94992, Note_on_c, 7, 41, 0
12, 95040, Note_on_c, 7, 46, 77
12, 95400, Note_on_c, 7, 46, 0
12, 96000, Note_on_c, 7, 45, 77
12, 96360, Note_on_c, 7, 45, 0
12, 96960, Note_on_c, 7, 31, 56
12, 97200, Note_on_c, 7, 31, 0
12, 97920, Note_on_c, 7, 43, 56
12, 98160, Note_on_c, 7, 43, 0
12, 98880, Note_on_c, 7, 31, 56
12, 99120, Note_on_c, 7, 31, 0
12, 99840, Note_on_c, 7, 43, 56
12, 100080, Note_on_c, 7, 43, 0
12, 100800, Note_on_c, 7, 31, 39
12, 101040, Note_on_c, 7, 31, 0
12, 101760, Note_on_c, 7, 43, 56
12, 102000, Note_on_c, 7, 43, 0
12, 102720, Note_on_c, 7, 30, 56
12, 102960, Note_on_c, 7, 30, 0
12, 103680, Note_on_c, 7, 38, 56
12, 103920, Note_on_c, 7, 38, 0
12, 104640, Note_on_c, 7, 31, 56
12, 104880, Note_on_c, 7, 31, 0
12, 105600, Note_on_c, 7, 36, 56
12, 106560, Note_on_c, 7, 36, 0
12, 106560, Note_on_c, 7, 34, 56
12, 107520, Note_on_c, 7, 34, 0
12, 107520, Note_on_c, 7, 36, 56
12, 108480, Note_on_c, 7, 36, 0
12, 108480, Note_on_c, 7, 34, 56
12, 109440, Note_on_c, 7, 34, 0
12, 109440, Note_on_c, 7, 40, 56
12, 110400, Note_on_c, 7, 40, 0
12, 110400, Note_on_c, 7, 39, 56
12, 111360, Note_on_c, 7, 39, 0
12, 111360, Note_on_c, 7, 38, 56
12, 111744, Note_on_c, 7, 38, 0
12, 112080, Note_on_c, 7, 38, 77
12, 112176, Note_on_c, 7, 38, 0
12, 112200, Note_on_c, 7, 38, 77
12, 112296, Note_on_c, 7, 38, 0
12, 112320, Note_on_c, 7, 38, 77
12, 112704, Note_on_c, 7, 38, 0
12, 113040, Note_on_c, 7, 38, 77
12, 113136, Note_on_c, 7, 38, 0
12, 113160, Note_on_c, 7, 38, 77
12, 113256, Note_on_c, 7, 38, 0
12, 113280, Note_on_c, 7, 38, 77
12, 113664, Note_on_c, 7, 38, 0
12, 114000, Note_on_c, 7, 38, 77
12, 114096, Note_on_c, 7, 38, 0
12, 114120, Note_on_c, 7, 38, 77
12, 114216, Note_on_c, 7, 38, 0
12, 114240, Note_on_c, 7, 38, 77
12, 114432, Note_on_c, 7, 38, 0
12, 114480, Note_on_c, 7, 38, 74
12, 114576, Note_on_c, 7, 38, 0
12, 114600, Note_on_c, 7, 38, 71
12, 114696, Note_on_c, 7, 38, 0
12, 114720, Note_on_c, 7, 38, 70
12, 114912, Note_on_c, 7, 38, 0
12, 114960, Note_on_c, 7, 38, 67
12, 115056, Note_on_c, 7, 38, 0
12, 115080, Note_on_c, 7, 38, 64
12, 115176, Note_on_c, 7, 38, 0
12, 115200, Note_on_c, 7, 38, 80
12, 115584, Note_on_c, 7, 38, 0
12, 117120, Note_on_c, 7, 31, 56
12, 117360, Note_on_c, 7, 31, 0
12, 118080, Note_on_c, 7, 43, 56
12, 118320, Note_on_c, 7, 43, 0
12, 119040, Note_on_c, 7, 27, 56
12, 119280, Note_on_c, 7, 27, 0
12, 120000, Note_on_c, 7, 36, 56
12, 120240, Note_on_c, 7, 36, 0
12, 120960, Note_on_c, 7, 29, 56
12, 121200, Note_on_c, 7, 29, 0
12, 121920, Note_on_c, 7, 41, 56
12, 122160, Note_on_c, 7, 41, 0
12, 122880, Note_on_c, 7, 46, 77
12, 122940, Note_on_c, 7, 46, 0
12, 123000, Note_on_c, 7, 50, 77
12, 123060, Note_on_c, 7, 50, 0
12, 123120, Note_on_c, 7, 46, 77
12, 123180, Note_on_c, 7, 46, 0
12, 123240, Note_on_c, 7, 50, 77
12, 123300, Note_on_c, 7, 50, 0
12, 123360, Note_on_c, 7, 46, 77
12, 123420, Note_on_c, 7, 46, 0
12, 123480, Note_on_c, 7, 50, 77
12, 123540, Note_on_c, 7, 50, 0
12, 123600, Note_on_c, 7, 46, 77
12, 123660, Note_on_c, 7, 46, 0
12, 123720, Note_on_c, 7, 50, 77
12, 123780, Note_on_c, 7, 50, 0
12, 123840, Note_on_c, 7, 45, 77
12, 123900, Note_on_c, 7, 45, 0
12, 123960, Note_on_c, 7, 48, 77
12, 124020, Note_on_c, 7, 48, 0
12, 124080, Note_on_c, 7, 45, 77
12, 124140, Note_on_c, 7, 45, 0
12, 124200, Note_on_c, 7, 48, 77
12, 124260, Note_on_c, 7, 48, 0
12, 124320, Note_on_c, 7, 45, 77
12, 124380, Note_on_c, 7, 45, 0
12, 124440, Note_on_c, 7, 48, 77
12, 124500, Note_on_c, 7, 48, 0
12, 124560, Note_on_c, 7, 45, 77
12, 124620, Note_on_c, 7, 45, 0
12, 124680, Note_on_c, 7, 48, 77
12, 124740, Note_on_c, 7, 48, 0
12, 124800, Note_on_c, 7, 43, 77
12, 124860, Note_on_c, 7, 43, 0
12, 124920, Note_on_c, 7, 46, 77
12, 124980, Note_on_c, 7, 46, 0
12, 125040, Note_on_c, 7, 43, 77
12, 125100, Note_on_c, 7, 43, 0
12, 125160, Note_on_c, 7, 46, 77
12, 125220, Note_on_c, 7, 46, 0
12, 125280, Note_on_c, 7, 43, 77
12, 125340, Note_on_c, 7, 43, 0
12, 125400, Note_on_c, 7, 46, 77
12, 125460, Note_on_c, 7, 46, 0
12, 125520, Note_on_c, 7, 43, 77
12, 125580, Note_on_c, 7, 43, 0
12, 125640, Note_on_c, 7, 46, 77
12, 125700, Note_on_c, 7, 46, 0
12, 125760, Note_on_c, 7, 41, 77
12, 125820, Note_on_c, 7, 41, 0
12, 125880, Note_on_c, 7, 46, 77
12, 125940, Note_on_c, 7, 46, 0
12, 126000, Note_on_c, 7, 41, 77
12, 126060, Note_on_c, 7, 41, 0
12, 126120, Note_on_c, 7, 46, 77
12, 126180, Note_on_c, 7, 46, 0
12, 126240, Note_on_c, 7, 41, 77
12, 126300, Note_on_c, 7, 41, 0
12, 126360, Note_on_c, 7, 46, 77
12, 126420, Note_on_c, 7, 46, 0
12, 126480, Note_on_c, 7, 41, 77
12, 126540, Note_on_c, 7, 41, 0
12, 126600, Note_on_c, 7, 46, 77
12, 126660, Note_on_c, 7, 46, 0
12, 126720, Note_on_c, 7, 39, 77
12, 126780, Note_on_c, 7, 39, 0
12, 126840, Note_on_c, 7, 43, 77
12, 126900, Note_on_c, 7, 43, 0
12, 126960, Note_on_c, 7, 39, 77
12, 127020, Note_on_c, 7, 39, 0
12, 127080, Note_on_c, 7, 43, 77
12, 127140, Note_on_c, 7, 43, 0
12, 127200, Note_on_c, 7, 39, 77
12, 127260, Note_on_c, 7, 39, 0
12, 127320, Note_on_c, 7, 43, 77
12, 127380, Note_on_c, 7, 43, 0
12, 127440, Note_on_c, 7, 39, 77
12, 127500, Note_on_c, 7, 39, 0
12, 127560, Note_on_c, 7, 43, 77
12, 127620, Note_on_c, 7, 43, 0
12, 127680, Note_on_c, 7, 38, 77
12, 127740, Note_on_c, 7, 38, 0
12, 127800, Note_on_c, 7, 41, 77
12, 127860, Note_on_c, 7, 41, 0
12, 127920, Note_on_c, 7, 38, 77
12, 127980, Note_on_c, 7, 38, 0
12, 128040, Note_on_c, 7, 41, 77
12, 128100, Note_on_c, 7, 41, 0
12, 128160, Note_on_c, 7, 38, 77
12, 128220, Note_on_c, 7, 38, 0
12, 128280, Note_on_c, 7, 41, 77
12, 128340, Note_on_c, 7, 41, 0
12, 128400, Note_on_c, 7, 38, 77
12, 128460, Note_on_c, 7, 38, 0
12, 128520, Note_on_c, 7, 41, 77
12, 128580, Note_on_c, 7, 41, 0
12, 128640, Note_on_c, 7, 36, 77
12, 129600, Note_on_c, 7, 36, 0
12, 129600, Note_on_c, 7, 36, 77
12, 129984, Note_on_c, 7, 36, 0
12, 130080, Note_on_c, 7, 37, 54
12, 130464, Note_on_c, 7, 37, 0
12, 130560, Note_on_c, 7, 36, 77
12, 130944, Note_on_c, 7, 36, 0
12, 131040, Note_on_c, 7, 37, 77
12, 131424, Note_on_c, 7, 37, 0
12, 131520, Note_on_c, 7, 36, 77
12, 131904, Note_on_c, 7, 36, 0
12, 132360, Note_on_c, 7, 36, 77
12, 132456, Note_on_c, 7, 36, 0
12, 132480, Note_on_c, 7, 41, 77
12, 132540, Note_on_c, 7, 41, 0
12, 132600, Note_on_c, 7, 41, 77
12, 132660, Note_on_c, 7, 41, 0
12, 132720, Note_on_c, 7, 41, 77
12, 132780, Note_on_c, 7, 41, 0
12, 132840, Note_on_c, 7, 41, 77
12, 132900, Note_on_c, 7, 41, 0
12, 132960, Note_on_c, 7, 41, 77
12, 133020, Note_on_c, 7, 41, 0
12, 133080, Note_on_c, 7, 41, 77
12, 133140, Note_on_c, 7, 41, 0
12, 133200, Note_on_c, 7, 41, 77
12, 133260, Note_on_c, 7, 41, 0
12, 133320, Note_on_c, 7, 41, 77
12, 133380, Note_on_c, 7, 41, 0
12, 133440, Note_on_c, 7, 41, 77
12, 133500, Note_on_c, 7, 41, 0
12, 133560, Note_on_c, 7, 41, 77
12, 133620, Note_on_c, 7, 41, 0
12, 133680, Note_on_c, 7, 41, 77
12, 133740, Note_on_c, 7, 41, 0
12, 133800, Note_on_c, 7, 41, 77
12, 133860, Note_on_c, 7, 41, 0
12, 133920, Note_on_c, 7, 41, 77
12, 133980, Note_on_c, 7, 41, 0
12, 134040, Note_on_c, 7, 41, 77
12, 134100, Note_on_c, 7, 41, 0
12, 134160, Note_on_c, 7, 41, 77
12, 134220, Note_on_c, 7, 41, 0
12, 134280, Note_on_c, 7, 41, 77
12, 134340, Note_on_c, 7, 41, 0
12, 134400, Note_on_c, 7, 41, 77
12, 134460, Note_on_c, 7, 41, 0
12, 134520, Note_on_c, 7, 41, 77
12, 134580, Note_on_c, 7, 41, 0
12, 134640, Note_on_c, 7, 41, 77
12, 134700, Note_on_c, 7, 41, 0
12, 134760, Note_on_c, 7, 41, 77
12, 134820, Note_on_c, 7, 41, 0
12, 134880, Note_on_c, 7, 41, 77
12, 134940, Note_on_c, 7, 41, 0
12, 135000, Note_on_c, 7, 41, 77
12, 135060, Note_on_c, 7, 41, 0
12, 135120, Note_on_c, 7, 41, 77
12, 135180, Note_on_c, 7, 41, 0
12, 135240, Note_on_c, 7, 41, 77
12, 135300, Note_on_c, 7, 41, 0
12, 135360, Note_on_c, 7, 41, 77
12, 135420, Note_on_c, 7, 41, 0
12, 135480, Note_on_c, 7, 41, 77
12, 135540, Note_on_c, 7, 41, 0
12, 135600, Note_on_c, 7, 41, 77
12, 135660, Note_on_c, 7, 41, 0
12, 135720, Note_on_c, 7, 41, 77
12, 135780, Note_on_c, 7, 41, 0
12, 135840, Note_on_c, 7, 41, 77
12, 135900, Note_on_c, 7, 41, 0
12, 135960, Note_on_c, 7, 41, 77
12, 136020, Note_on_c, 7, 41, 0
12, 136080, Note_on_c, 7, 41, 77
12, 136140, Note_on_c, 7, 41, 0
12, 136200, Note_on_c, 7, 41, 77
12, 136260, Note_on_c, 7, 41, 0
12, 136320, Note_on_c, 7, 41, 77
12, 136560, Note_on_c, 7, 41, 0
12, 136800, Note_on_c, 7, 29, 54
12, 137040, Note_on_c, 7, 29, 0
12, 138240, Note_on_c, 7, 50, 56
12, 138960, Note_on_c, 7, 50, 0
12, 138960, Note_on_c, 7, 48, 56
12, 139200, Note_on_c, 7, 48, 0
12, 139200, Note_on_c, 7, 41, 56
12, 139560, Note_on_c, 7, 41, 0
12, 140400, Note_on_c, 7, 43, 56
12, 140544, Note_on_c, 7, 43, 0
12, 140640, Note_on_c, 7, 43, 56
12, 140880, Note_on_c, 7, 43, 0
12, 140880, Note_on_c, 7, 40, 56
12, 141120, Note_on_c, 7, 40, 0
12, 141120, Note_on_c, 7, 41, 56
12, 141504, Note_on_c, 7, 41, 0
12, 142080, Note_on_c, 7, 39, 56
12, 142800, Note_on_c, 7, 39, 0
12, 142800, Note_on_c, 7, 38, 56
12, 143040, Note_on_c, 7, 38, 0
12, 143040, Note_on_c, 7, 43, 56
12, 143280, Note_on_c, 7, 43, 0
12, 143280, Note_on_c, 7, 36, 56
12, 143520, Note_on_c, 7, 36, 0
12, 143520, Note_on_c, 7, 41, 56
12, 143760, Note_on_c, 7, 41, 0
12, 143760, Note_on_c, 7, 34, 56
12, 144000, Note_on_c, 7, 34, 0
12, 144000, Note_on_c, 7, 39, 56
12, 144240, Note_on_c, 7, 39, 0
12, 144480, Note_on_c, 7, 41, 56
12, 144720, Note_on_c, 7, 41, 0
12, 144960, Note_on_c, 7, 34, 56
12, 145320, Note_on_c, 7, 34, 0
12, 149760, Note_on_c, 7, 51, 56
12, 150480, Note_on_c, 7, 51, 0
12, 150480, Note_on_c, 7, 50, 56
12, 150720, Note_on_c, 7, 50, 0
12, 150720, Note_on_c, 7, 43, 56
12, 150960, Note_on_c, 7, 43, 0
12, 150960, Note_on_c, 7, 48, 56
12, 151200, Note_on_c, 7, 48, 0
12, 151200, Note_on_c, 7, 41, 56
12, 151440, Note_on_c, 7, 41, 0
12, 151440, Note_on_c, 7, 46, 56
12, 151680, Note_on_c, 7, 46, 0
12, 151680, Note_on_c, 7, 39, 56
12, 152640, Note_on_c, 7, 39, 0
12, 152640, Note_on_c, 7, 39, 56
12, 153600, Note_on_c, 7, 39, 0
12, 153600, Note_on_c, 7, 39, 56
12, 154560, Note_on_c, 7, 39, 0
12, 154560, Note_on_c, 7, 39, 56
12, 155520, Note_on_c, 7, 39, 0
12, 155520, Note_on_c, 7, 39, 53
12, 155616, Note_on_c, 7, 39, 0
12, 155640, Note_on_c, 7, 39, 55
12, 155736, Note_on_c, 7, 39, 0
12, 155760, Note_on_c, 7, 39, 57
12, 155856, Note_on_c, 7, 39, 0
12, 155880, Note_on_c, 7, 39, 59
12, 155976, Note_on_c, 7, 39, 0
12, 156000, Note_on_c, 7, 39, 62
12, 156096, Note_on_c, 7, 39, 0
12, 156120, Note_on_c, 7, 39, 64
12, 156216, Note_on_c, 7, 39, 0
12, 156240, Note_on_c, 7, 39, 66
12, 156336, Note_on_c, 7, 39, 0
12, 156360, Note_on_c, 7, 39, 68
12, 156456, Note_on_c, 7, 39, 0
12, 156480, Note_on_c, 7, 40, 70
12, 156576, Note_on_c, 7, 40, 0
12, 156600, Note_on_c, 7, 40, 71
12, 156696, Note_on_c, 7, 40, 0
12, 156720, Note_on_c, 7, 40, 72
12, 156816, Note_on_c, 7, 40, 0
12, 156840, Note_on_c, 7, 40, 73
12, 156936, Note_on_c, 7, 40, 0
12, 156960, Note_on_c, 7, 40, 74
12, 157056, Note_on_c, 7, 40, 0
12, 157080, Note_on_c, 7, 40, 74
12, 157176, Note_on_c, 7, 40, 0
12, 157200, Note_on_c, 7, 40, 76
12, 157296, Note_on_c, 7, 40, 0
12, 157320, Note_on_c, 7, 40, 76
12, 157416, Note_on_c, 7, 40, 0
12, 157440, Note_on_c, 7, 41, 77
12, 157536, Note_on_c, 7, 41, 0
12, 157560, Note_on_c, 7, 41, 77
12, 157656, Note_on_c, 7, 41, 0
12, 157680, Note_on_c, 7, 41, 77
12, 157776, Note_on_c, 7, 41, 0
12, 157800, Note_on_c, 7, 41, 77
12, 157896, Note_on_c, 7, 41, 0
12, 157920, Note_on_c, 7, 41, 77
12, 158016, Note_on_c, 7, 41, 0
12, 158040, Note_on_c, 7, 41, 77
12, 158136, Note_on_c, 7, 41, 0
12, 158160, Note_on_c, 7, 41, 77
12, 158256, Note_on_c, 7, 41, 0
12, 158280, Note_on_c, 7, 41, 77
12, 158376, Note_on_c, 7, 41, 0
12, 158400, Note_on_c, 7, 29, 77
12, 158496, Note_on_c, 7, 29, 0
12, 158520, Note_on_c, 7, 29, 77
12, 158616, Note_on_c, 7, 29, 0
12, 158640, Note_on_c, 7, 29, 77
12, 158736, Note_on_c, 7, 29, 0
12, 158760, Note_on_c, 7, 29, 77
12, 158856, Note_on_c, 7, 29, 0
12, 158880, Note_on_c, 7, 29, 77
12, 158976, Note_on_c, 7, 29, 0
12, 159000, Note_on_c, 7, 29, 77
12, 159096, Note_on_c, 7, 29, 0
12, 159120, Note_on_c, 7, 29, 77
12, 159216, Note_on_c, 7, 29, 0
12, 159240, Note_on_c, 7, 29, 77
12, 159336, Note_on_c, 7, 29, 0
12, 159360, Note_on_c, 7, 34, 77
12, 159552, Note_on_c, 7, 34, 0
12, 159600, Note_on_c, 7, 38, 77
12, 160080, Note_on_c, 7, 38, 0
12, 160080, Note_on_c, 7, 39, 77
12, 160224, Note_on_c, 7, 39, 0
12, 160320, Note_on_c, 7, 40, 77
12, 160464, Note_on_c, 7, 40, 0
12, 160560, Note_on_c, 7, 41, 77
12, 160704, Note_on_c, 7, 41, 0
12, 160800, Note_on_c, 7, 42, 77
12, 160944, Note_on_c, 7, 42, 0
12, 161040, Note_on_c, 7, 43, 77
12, 161184, Note_on_c, 7, 43, 0
12, 161280, Note_on_c, 7, 44, 110
12, 161472, Note_on_c, 7, 44, 0
12, 161700, Note_on_c, 7, 44, 127
12, 161748, Note_on_c, 7, 44, 0
12, 161760, Note_on_c, 7, 43, 110
12, 161952, Note_on_c, 7, 43, 0
12, 162180, Note_on_c, 7, 43, 127
12, 162228, Note_on_c, 7, 43, 0
12, 162240, Note_on_c, 7, 51, 77
12, 162432, Note_on_c, 7, 51, 0
12, 162660, Note_on_c, 7, 51, 89
12, 162708, Note_on_c, 7, 51, 0
12, 162720, Note_on_c, 7, 50, 77
12, 162912, Note_on_c, 7, 50, 0
12, 163140, Note_on_c, 7, 50, 89
12, 163188, Note_on_c, 7, 50, 0
12, 163200, Note_on_c, 7, 39, 77
12, 163392, Note_on_c, 7, 39, 0
12, 164160, Note_on_c, 7, 41, 56
12, 164352, Note_on_c, 7, 41, 0
12, 166560, Note_on_c, 7, 39, 39
12, 167520, Note_on_c, 7, 39, 0
12, 167520, Note_on_c, 7, 38, 39
12, 167760, Note_on_c, 7, 38, 0
12, 168480, Note_on_c, 7, 39, 39
12, 169440, Note_on_c, 7, 39, 0
12, 169440, Note_on_c, 7, 38, 39
12, 169680, Note_on_c, 7, 38, 0
12, 169920, Note_on_c, 7, 38, 77
12, 170010, Note_on_c, 7, 38, 0
12, 170040, Note_on_c, 7, 38, 77
12, 170130, Note_on_c, 7, 38, 0
12, 170160, Note_on_c, 7, 38, 77
12, 170250, Note_on_c, 7, 38, 0
12, 170280, Note_on_c, 7, 38, 77
12, 170370, Note_on_c, 7, 38, 0
12, 170400, Note_on_c, 7, 38, 77
12, 170490, Note_on_c, 7, 38, 0
12, 170520, Note_on_c, 7, 38, 77
12, 170610, Note_on_c, 7, 38, 0
12, 170640, Note_on_c, 7, 38, 77
12, 170730, Note_on_c, 7, 38, 0
12, 170760, Note_on_c, 7, 38, 77
12, 170850, Note_on_c, 7, 38, 0
12, 170880, Note_on_c, 7, 43, 77
12, 170970, Note_on_c, 7, 43, 0
12, 171000, Note_on_c, 7, 43, 77
12, 171090, Note_on_c, 7, 43, 0
12, 171120, Note_on_c, 7, 43, 77
12, 171210, Note_on_c, 7, 43, 0
12, 171240, Note_on_c, 7, 43, 77
12, 171330, Note_on_c, 7, 43, 0
12, 171360, Note_on_c, 7, 39, 77
12, 171450, Note_on_c, 7, 39, 0
12, 171480, Note_on_c, 7, 39, 77
12, 171570, Note_on_c, 7, 39, 0
12, 171600, Note_on_c, 7, 39, 77
12, 171690, Note_on_c, 7, 39, 0
12, 171720, Note_on_c, 7, 39, 77
12, 171810, Note_on_c, 7, 39, 0
12, 171840, Note_on_c, 7, 41, 77
12, 171930, Note_on_c, 7, 41, 0
12, 171960, Note_on_c, 7, 41, 77
12, 172050, Note_on_c, 7, 41, 0
12, 172080, Note_on_c, 7, 41, 77
12, 172170, Note_on_c, 7, 41, 0
12, 172200, Note_on_c, 7, 41, 77
12, 172290, Note_on_c, 7, 41, 0
12, 172320, Note_on_c, 7, 29, 77
12, 172410, Note_on_c, 7, 29, 0
12, 172440, Note_on_c, 7, 29, 77
12, 172530, Note_on_c, 7, 29, 0
12, 172560, Note_on_c, 7, 29, 77
12, 172650, Note_on_c, 7, 29, 0
12, 172680, Note_on_c, 7, 29, 77
12, 172770, Note_on_c, 7, 29, 0
12, 172800, Note_on_c, 7, 34, 77
12, 172980, Note_on_c, 7, 34, 0
12, 173280, Note_on_c, 7, 46, 39
12, 174240, Note_on_c, 7, 46, 0
12, 174240, Note_on_c, 7, 45, 39
12, 174480, Note_on_c, 7, 45, 0
12, 175200, Note_on_c, 7, 34, 39
12, 176160, Note_on_c, 7, 34, 0
12, 176160, Note_on_c, 7, 33, 39
12, 176400, Note_on_c, 7, 33, 0
12, 177600, Note_on_c, 7, 38, 77
12, 177690, Note_on_c, 7, 38, 0
12, 177720, Note_on_c, 7, 38, 77
12, 177810, Note_on_c, 7, 38, 0
12, 177840, Note_on_c, 7, 38, 77
12, 177930, Note_on_c, 7, 38, 0
12, 177960, Note_on_c, 7, 38, 77
12, 178050, Note_on_c, 7, 38, 0
12, 178080, Note_on_c, 7, 38, 77
12, 178170, Note_on_c, 7, 38, 0
12, 178200, Note_on_c, 7, 38, 77
12, 178290, Note_on_c, 7, 38, 0
12, 178320, Note_on_c, 7, 38, 77
12, 178410, Note_on_c, 7, 38, 0
12, 178440, Note_on_c, 7, 38, 77
12, 178530, Note_on_c, 7, 38, 0
12, 178560, Note_on_c, 7, 43, 77
12, 178650, Note_on_c, 7, 43, 0
12, 178680, Note_on_c, 7, 43, 77
12, 178770, Note_on_c, 7, 43, 0
12, 178800, Note_on_c, 7, 43, 77
12, 178890, Note_on_c, 7, 43, 0
12, 178920, Note_on_c, 7, 43, 77
12, 179010, Note_on_c, 7, 43, 0
12, 179040, Note_on_c, 7, 39, 77
12, 179130, Note_on_c, 7, 39, 0
12, 179160, Note_on_c, 7, 39, 77
12, 179250, Note_on_c, 7, 39, 0
12, 179280, Note_on_c, 7, 39, 77
12, 179370, Note_on_c, 7, 39, 0
12, 179400, Note_on_c, 7, 39, 77
12, 179490, Note_on_c, 7, 39, 0
12, 179520, Note_on_c, 7, 41, 77
12, 179610, Note_on_c, 7, 41, 0
12, 179640, Note_on_c, 7, 41, 77
12, 179730, Note_on_c, 7, 41, 0
12, 179760, Note_on_c, 7, 41, 77
12, 179850, Note_on_c, 7, 41, 0
12, 179880, Note_on_c, 7, 41, 77
12, 179970, Note_on_c, 7, 41, 0
12, 180000, Note_on_c, 7, 29, 77
12, 180090, Note_on_c, 7, 29, 0
12, 180120, Note_on_c, 7, 29, 77
12, 180210, Note_on_c, 7, 29, 0
12, 180240, Note_on_c, 7, 29, 77
12, 180330, Note_on_c, 7, 29, 0
12, 180360, Note_on_c, 7, 29, 77
12, 180450, Note_on_c, 7, 29, 0
12, 180480, Note_on_c, 7, 34, 77
12, 180864, Note_on_c, 7, 34, 0
12, 181320, Note_on_c, 7, 53, 77
12, 181392, Note_on_c, 7, 53, 0
12, 181440, Note_on_c, 7, 51, 77
12, 181512, Note_on_c, 7, 51, 0
12, 181560, Note_on_c, 7, 50, 77
12, 181632, Note_on_c, 7, 50, 0
12, 181680, Note_on_c, 7, 48, 77
12, 181752, Note_on_c, 7, 48, 0
12, 181800, Note_on_c, 7, 46, 77
12, 181872, Note_on_c, 7, 46, 0
12, 181920, Note_on_c, 7, 45, 77
12, 181992, Note_on_c, 7, 45, 0
12, 182040, Note_on_c, 7, 43, 77
12, 182112, Note_on_c, 7, 43, 0
12, 182160, Note_on_c, 7, 41, 77
12, 182232, Note_on_c, 7, 41, 0
12, 182280, Note_on_c, 7, 39, 77
12, 182352, Note_on_c, 7, 39, 0
12, 182400, Note_on_c, 7, 38, 77
12, 182544, Note_on_c, 7, 38, 0
12, 182640, Note_on_c, 7, 38, 77
12, 182784, Note_on_c, 7, 38, 0
12, 182880, Note_on_c, 7, 39, 77
12, 183024, Note_on_c, 7, 39, 0
12, 183120, Note_on_c, 7, 41, 77
12, 183264, Note_on_c, 7, 41, 0
12, 183360, Note_on_c, 7, 46, 77
12, 183432, Note_on_c, 7, 46, 0
12, 183480, Note_on_c, 7, 41, 77
12, 183552, Note_on_c, 7, 41, 0
12, 183600, Note_on_c, 7, 50, 77
12, 183672, Note_on_c, 7, 50, 0
12, 183720, Note_on_c, 7, 48, 77
12, 183792, Note_on_c, 7, 48, 0
12, 183840, Note_on_c, 7, 46, 77
12, 183912, Note_on_c, 7, 46, 0
12, 183960, Note_on_c, 7, 45, 77
12, 184032, Note_on_c, 7, 45, 0
12, 184080, Note_on_c, 7, 43, 77
12, 184152, Note_on_c, 7, 43, 0
12, 184200, Note_on_c, 7, 41, 77
12, 184272, Note_on_c, 7, 41, 0
12, 184320, Note_on_c, 7, 39, 77
12, 184392, Note_on_c, 7, 39, 0
12, 184440, Note_on_c, 7, 38, 77
12, 184512, Note_on_c, 7, 38, 0
12, 184560, Note_on_c, 7, 36, 77
12, 184632, Note_on_c, 7, 36, 0
12, 184680, Note_on_c, 7, 34, 77
12, 184752, Note_on_c, 7, 34, 0
12, 184800, Note_on_c, 7, 33, 77
12, 184872, Note_on_c, 7, 33, 0
12, 184920, Note_on_c, 7, 36, 77
12, 184992, Note_on_c, 7, 36, 0
12, 185040, Note_on_c, 7, 41, 77
12, 185112, Note_on_c, 7, 41, 0
12, 185160, Note_on_c, 7, 39, 77
12, 185232, Note_on_c, 7, 39, 0
12, 185280, Note_on_c, 7, 38, 77
12, 185424, Note_on_c, 7, 38, 0
12, 185520, Note_on_c, 7, 38, 77
12, 185664, Note_on_c, 7, 38, 0
12, 185760, Note_on_c, 7, 39, 77
12, 185904, Note_on_c, 7, 39, 0
12, 186000, Note_on_c, 7, 41, 77
12, 186144, Note_on_c, 7, 41, 0
12, 186240, Note_on_c, 7, 43, 77
12, 186384, Note_on_c, 7, 43, 0
12, 186480, Note_on_c, 7, 39, 77
12, 186624, Note_on_c, 7, 39, 0
12, 186720, Note_on_c, 7, 41, 77
12, 186864, Note_on_c, 7, 41, 0
12, 186960, Note_on_c, 7, 29, 77
12, 187104, Note_on_c, 7, 29, 0
12, 187200, Note_on_c, 7, 34, 77
12, 187392, Note_on_c, 7, 34, 0
12, 187680, Note_on_c, 7, 41, 77
12, 187872, Note_on_c, 7, 41, 0
12, 188160, Note_on_c, 7, 46, 77
12, 188352, Note_on_c, 7, 46, 0
12, 188640, Note_on_c, 7, 41, 77
12, 188832, Note_on_c, 7, 41, 0
12, 189120, Note_on_c, 7, 46, 110
12, 189312, Note_on_c, 7, 46, 0
12, 189600, Note_on_c, 7, 41, 110
12, 189792, Note_on_c, 7, 41, 0
12, 190080, Note_on_c, 7, 46, 77
12, 190272, Note_on_c, 7, 46, 0
12, 190320, Note_on_c, 7, 41, 77
12, 190512, Note_on_c, 7, 41, 0
12, 190560, Note_on_c, 7, 46, 77
12, 190752, Note_on_c, 7, 46, 0
12, 190800, Note_on_c, 7, 41, 77
12, 190992, Note_on_c, 7, 41, 0
12, 191040, Note_on_c, 7, 46, 77
12, 191400, Note_on_c, 7, 46, 0
12, 192000, Note_on_c, 7, 45, 77
12, 192360, Note_on_c, 7, 45, 0
12, 192960, Note_on_c, 7, 43, 77
12, 193248, Note_on_c, 7, 43, 0
12, 193440, Note_on_c, 7, 41, 77
12, 193728, Note_on_c, 7, 41, 0
12, 206160, Note_on_c, 7, 48, 77
12, 206280, Note_on_c, 7, 48, 0
12, 206280, Note_on_c, 7, 47, 77
12, 206400, Note_on_c, 7, 47, 0
12, 206400, Note_on_c, 7, 47, 77
12, 206640, Note_on_c, 7, 47, 0
12, 206640, Note_on_c, 7, 48, 77
12, 206760, Note_on_c, 7, 48, 0
12, 206760, Note_on_c, 7, 47, 77
12, 206880, Note_on_c, 7, 47, 0
12, 206880, Note_on_c, 7, 47, 77
12, 207120, Note_on_c, 7, 47, 0
12, 207120, Note_on_c, 7, 48, 77
12, 207240, Note_on_c, 7, 48, 0
12, 207240, Note_on_c, 7, 47, 77
12, 207360, Note_on_c, 7, 47, 0
12, 207360, Note_on_c, 7, 47, 77
12, 207600, Note_on_c, 7, 47, 0
12, 207600, Note_on_c, 7, 55, 77
12, 207840, Note_on_c, 7, 55, 0
12, 208080, Note_on_c, 7, 55, 77
12, 208200, Note_on_c, 7, 55, 0
12, 208200, Note_on_c, 7, 54, 77
12, 208320, Note_on_c, 7, 54, 0
12, 208320, Note_on_c, 7, 52, 77
12, 208560, Note_on_c, 7, 52, 0
12, 208560, Note_on_c, 7, 52, 77
12, 208680, Note_on_c, 7, 52, 0
12, 208680, Note_on_c, 7, 50, 77
12, 208800, Note_on_c, 7, 50, 0
12, 208800, Note_on_c, 7, 48, 77
12, 209040, Note_on_c, 7, 48, 0
12, 209040, Note_on_c, 7, 48, 77
12, 209160, Note_on_c, 7, 48, 0
12, 209160, Note_on_c, 7, 47, 77
12, 209280, Note_on_c, 7, 47, 0
12, 209280, Note_on_c, 7, 45, 77
12, 209364, Note_on_c, 7, 45, 0
12, 209400, Note_on_c, 7, 47, 77
12, 209484, Note_on_c, 7, 47, 0
12, 209520, Note_on_c, 7, 48, 77
12, 209604, Note_on_c, 7, 48, 0
12, 209640, Note_on_c, 7, 47, 77
12, 209724, Note_on_c, 7, 47, 0
12, 209760, Note_on_c, 7, 45, 77
12, 209844, Note_on_c, 7, 45, 0
12, 209880, Note_on_c, 7, 46, 77
12, 209964, Note_on_c, 7, 46, 0
12, 210000, Note_on_c, 7, 43, 77
12, 210084, Note_on_c, 7, 43, 0
12, 210120, Note_on_c, 7, 45, 77
12, 210204, Note_on_c, 7, 45, 0
12, 210240, Note_on_c, 7, 41, 77
12, 210324, Note_on_c, 7, 41, 0
12, 210360, Note_on_c, 7, 45, 77
12, 210444, Note_on_c, 7, 45, 0
12, 210480, Note_on_c, 7, 50, 77
12, 210564, Note_on_c, 7, 50, 0
12, 210600, Note_on_c, 7, 41, 77
12, 210684, Note_on_c, 7, 41, 0
12, 210720, Note_on_c, 7, 40, 77
12, 210804, Note_on_c, 7, 40, 0
12, 210840, Note_on_c, 7, 43, 77
12, 210924, Note_on_c, 7, 43, 0
12, 210960, Note_on_c, 7, 49, 77
12, 211044, Note_on_c, 7, 49, 0
12, 211080, Note_on_c, 7, 40, 77
12, 211164, Note_on_c, 7, 40, 0
12, 211200, Note_on_c, 7, 38, 77
12, 211284, Note_on_c, 7, 38, 0
12, 211320, Note_on_c, 7, 33, 77
12, 211404, Note_on_c, 7, 33, 0
12, 211440, Note_on_c, 7, 35, 77
12, 211524, Note_on_c, 7, 35, 0
12, 211560, Note_on_c, 7, 37, 77
12, 211644, Note_on_c, 7, 37, 0
12, 211680, Note_on_c, 7, 38, 77
12, 211764, Note_on_c, 7, 38, 0
12, 211800, Note_on_c, 7, 33, 77
12, 211884, Note_on_c, 7, 33, 0
12, 211920, Note_on_c, 7, 38, 77
12, 212004, Note_on_c, 7, 38, 0
12, 212040, Note_on_c, 7, 40, 77
12, 212124, Note_on_c, 7, 40, 0
12, 212160, Note_on_c, 7, 41, 77
12, 212244, Note_on_c, 7, 41, 0
12, 212280, Note_on_c, 7, 38, 77
12, 212364, Note_on_c, 7, 38, 0
12, 212400, Note_on_c, 7, 40, 77
12, 212484, Note_on_c, 7, 40, 0
12, 212520, Note_on_c, 7, 41, 77
12, 212604, Note_on_c, 7, 41, 0
12, 212640, Note_on_c, 7, 43, 77
12, 212724, Note_on_c, 7, 43, 0
12, 212760, Note_on_c, 7, 38, 77
12, 212844, Note_on_c, 7, 38, 0
12, 212880, Note_on_c, 7, 43, 77
12, 212964, Note_on_c, 7, 43, 0
12, 213000, Note_on_c, 7, 45, 77
12, 213084, Note_on_c, 7, 45, 0
12, 213120, Note_on_c, 7, 46, 77
12, 213360, Note_on_c, 7, 46, 0
12, 213360, Note_on_c, 7, 31, 77
12, 213600, Note_on_c, 7, 31, 0
12, 213840, Note_on_c, 7, 45, 77
12, 213960, Note_on_c, 7, 45, 0
12, 213960, Note_on_c, 7, 43, 77
12, 214080, Note_on_c, 7, 43, 0
12, 214080, Note_on_c, 7, 43, 77
12, 214320, Note_on_c, 7, 43, 0
12, 214320, Note_on_c, 7, 45, 77
12, 214440, Note_on_c, 7, 45, 0
12, 214440, Note_on_c, 7, 43, 77
12, 214560, Note_on_c, 7, 43, 0
12, 214560, Note_on_c, 7, 43, 77
12, 214800, Note_on_c, 7, 43, 0
12, 214800, Note_on_c, 7, 45, 77
12, 214920, Note_on_c, 7, 45, 0
12, 214920, Note_on_c, 7, 43, 77
12, 215040, Note_on_c, 7, 43, 0
12, 215040, Note_on_c, 7, 43, 77
12, 215280, Note_on_c, 7, 43, 0
12, 215280, Note_on_c, 7, 52, 77
12, 215520, Note_on_c, 7, 52, 0
12, 215760, Note_on_c, 7, 52, 77
12, 215880, Note_on_c, 7, 52, 0
12, 215880, Note_on_c, 7, 50, 77
12, 216000, Note_on_c, 7, 50, 0
12, 216000, Note_on_c, 7, 48, 77
12, 216240, Note_on_c, 7, 48, 0
12, 216240, Note_on_c, 7, 48, 77
12, 216360, Note_on_c, 7, 48, 0
12, 216360, Note_on_c, 7, 46, 77
12, 216480, Note_on_c, 7, 46, 0
12, 216480, Note_on_c, 7, 45, 77
12, 216720, Note_on_c, 7, 45, 0
12, 216720, Note_on_c, 7, 45, 77
12, 216840, Note_on_c, 7, 45, 0
12, 216840, Note_on_c, 7, 43, 77
12, 216960, Note_on_c, 7, 43, 0
12, 216960, Note_on_c, 7, 41, 77
12, 217044, Note_on_c, 7, 41, 0
12, 217080, Note_on_c, 7, 43, 77
12, 217164, Note_on_c, 7, 43, 0
12, 217200, Note_on_c, 7, 45, 77
12, 217284, Note_on_c, 7, 45, 0
12, 217320, Note_on_c, 7, 43, 77
12, 217404, Note_on_c, 7, 43, 0
12, 217440, Note_on_c, 7, 41, 77
12, 217524, Note_on_c, 7, 41, 0
12, 217560, Note_on_c, 7, 43, 77
12, 217644, Note_on_c, 7, 43, 0
12, 217680, Note_on_c, 7, 39, 77
12, 217764, Note_on_c, 7, 39, 0
12, 217800, Note_on_c, 7, 41, 77
12, 217884, Note_on_c, 7, 41, 0
12, 217920, Note_on_c, 7, 38, 77
12, 218004, Note_on_c, 7, 38, 0
12, 218040, Note_on_c, 7, 41, 77
12, 218124, Note_on_c, 7, 41, 0
12, 218160, Note_on_c, 7, 46, 77
12, 218244, Note_on_c, 7, 46, 0
12, 218280, Note_on_c, 7, 38, 77
12, 218364, Note_on_c, 7, 38, 0
12, 218400, Note_on_c, 7, 36, 77
12, 218484, Note_on_c, 7, 36, 0
12, 218520, Note_on_c, 7, 39, 77
12, 218604, Note_on_c, 7, 39, 0
12, 218640, Note_on_c, 7, 45, 77
12, 218724, Note_on_c, 7, 45, 0
12, 218760, Note_on_c, 7, 36, 77
12, 218844, Note_on_c, 7, 36, 0
12, 218880, Note_on_c, 7, 34, 77
12, 218964, Note_on_c, 7, 34, 0
12, 219000, Note_on_c, 7, 29, 77
12, 219084, Note_on_c, 7, 29, 0
12, 219120, Note_on_c, 7, 31, 77
12, 219204, Note_on_c, 7, 31, 0
12, 219240, Note_on_c, 7, 33, 77
12, 219324, Note_on_c, 7, 33, 0
12, 219360, Note_on_c, 7, 34, 77
12, 219444, Note_on_c, 7, 34, 0
12, 219480, Note_on_c, 7, 33, 77
12, 219564, Note_on_c, 7, 33, 0
12, 219600, Note_on_c, 7, 34, 77
12, 219684, Note_on_c, 7, 34, 0
12, 219720, Note_on_c, 7, 36, 77
12, 219804, Note_on_c, 7, 36, 0
12, 219840, Note_on_c, 7, 38, 77
12, 219924, Note_on_c, 7, 38, 0
12, 219960, Note_on_c, 7, 34, 77
12, 220044, Note_on_c, 7, 34, 0
12, 220080, Note_on_c, 7, 36, 77
12, 220164, Note_on_c, 7, 36, 0
12, 220200, Note_on_c, 7, 38, 77
12, 220284, Note_on_c, 7, 38, 0
12, 220320, Note_on_c, 7, 39, 77
12, 220404, Note_on_c, 7, 39, 0
12, 220440, Note_on_c, 7, 38, 77
12, 220524, Note_on_c, 7, 38, 0
12, 220560, Note_on_c, 7, 39, 77
12, 220644, Note_on_c, 7, 39, 0
12, 220680, Note_on_c, 7, 41, 77
12, 220764, Note_on_c, 7, 41, 0
12, 220800, Note_on_c, 7, 43, 77
12, 220884, Note_on_c, 7, 43, 0
12, 220920, Note_on_c, 7, 39, 77
12, 221004, Note_on_c, 7, 39, 0
12, 221040, Note_on_c, 7, 41, 77
12, 221124, Note_on_c, 7, 41, 0
12, 221160, Note_on_c, 7, 43, 77
12, 221244, Note_on_c, 7, 43, 0
12, 221280, Note_on_c, 7, 45, 77
12, 221364, Note_on_c, 7, 45, 0
12, 221400, Note_on_c, 7, 43, 77
12, 221484, Note_on_c, 7, 43, 0
12, 221520, Note_on_c, 7, 45, 77
12, 221604, Note_on_c, 7, 45, 0
12, 221640, Note_on_c, 7, 46, 77
12, 221724, Note_on_c, 7, 46, 0
12, 221760, Note_on_c, 7, 48, 77
12, 221844, Note_on_c, 7, 48, 0
12, 221880, Note_on_c, 7, 45, 77
12, 221964, Note_on_c, 7, 45, 0
12, 222000, Note_on_c, 7, 46, 77
12, 222084, Note_on_c, 7, 46, 0
12, 222120, Note_on_c, 7, 48, 77
12, 222204, Note_on_c, 7, 48, 0
12, 222240, Note_on_c, 7, 50, 77
12, 222324, Note_on_c, 7, 50, 0
12, 222360, Note_on_c, 7, 49, 77
12, 222444, Note_on_c, 7, 49, 0
12, 222480, Note_on_c, 7, 50, 77
12, 222564, Note_on_c, 7, 50, 0
12, 222600, Note_on_c, 7, 52, 77
12, 222684, Note_on_c, 7, 52, 0
12, 222720, Note_on_c, 7, 54, 77
12, 222804, Note_on_c, 7, 54, 0
12, 222840, Note_on_c, 7, 50, 77
12, 222924, Note_on_c, 7, 50, 0
12, 222960, Note_on_c, 7, 52, 77
12, 223044, Note_on_c, 7, 52, 0
12, 223080, Note_on_c, 7, 54, 77
12, 223164, Note_on_c, 7, 54, 0
12, 223200, Note_on_c, 7, 55, 77
12, 223284, Note_on_c, 7, 55, 0
12, 223320, Note_on_c, 7, 51, 77
12, 223404, Note_on_c, 7, 51, 0
12, 223440, Note_on_c, 7, 50, 77
12, 223524, Note_on_c, 7, 50, 0
12, 223560, Note_on_c, 7, 48, 77
12, 223644, Note_on_c, 7, 48, 0
12, 223680, Note_on_c, 7, 46, 77
12, 223764, Note_on_c, 7, 46, 0
12, 223800, Note_on_c, 7, 48, 77
12, 223884, Note_on_c, 7, 48, 0
12, 223920, Note_on_c, 7, 46, 77
12, 224004, Note_on_c, 7, 46, 0
12, 224040, Note_on_c, 7, 45, 77
12, 224124, Note_on_c, 7, 45, 0
12, 224160, Note_on_c, 7, 43, 77
12, 224244, Note_on_c, 7, 43, 0
12, 224280, Note_on_c, 7, 41, 77
12, 224364, Note_on_c, 7, 41, 0
12, 224400, Note_on_c, 7, 43, 77
12, 224484, Note_on_c, 7, 43, 0
12, 224520, Note_on_c, 7, 44, 77
12, 224604, Note_on_c, 7, 44, 0
12, 224640, Note_on_c, 7, 45, 77
12, 224724, Note_on_c, 7, 45, 0
12, 224760, Note_on_c, 7, 45, 77
12, 224844, Note_on_c, 7, 45, 0
12, 224880, Note_on_c, 7, 45, 77
12, 224964, Note_on_c, 7, 45, 0
12, 225000, Note_on_c, 7, 45, 77
12, 225084, Note_on_c, 7, 45, 0
12, 225120, Note_on_c, 7, 45, 77
12, 225204, Note_on_c, 7, 45, 0
12, 225240, Note_on_c, 7, 45, 77
12, 225324, Note_on_c, 7, 45, 0
12, 225360, Note_on_c, 7, 45, 77
12, 225444, Note_on_c, 7, 45, 0
12, 225480, Note_on_c, 7, 45, 77
12, 225564, Note_on_c, 7, 45, 0
12, 225600, Note_on_c, 7, 45, 77
12, 225684, Note_on_c, 7, 45, 0
12, 225720, Note_on_c, 7, 45, 77
12, 225804, Note_on_c, 7, 45, 0
12, 225840, Note_on_c, 7, 45, 77
12, 225924, Note_on_c, 7, 45, 0
12, 225960, Note_on_c, 7, 45, 77
12, 226044, Note_on_c, 7, 45, 0
12, 226080, Note_on_c, 7, 45, 77
12, 226164, Note_on_c, 7, 45, 0
12, 226200, Note_on_c, 7, 45, 77
12, 226284, Note_on_c, 7, 45, 0
12, 226320, Note_on_c, 7, 45, 77
12, 226404, Note_on_c, 7, 45, 0
12, 226440, Note_on_c, 7, 45, 77
12, 226524, Note_on_c, 7, 45, 0
12, 226560, Note_on_c, 7, 45, 77
12, 226644, Note_on_c, 7, 45, 0
12, 226680, Note_on_c, 7, 45, 77
12, 226764, Note_on_c, 7, 45, 0
12, 226800, Note_on_c, 7, 45, 77
12, 226884, Note_on_c, 7, 45, 0
12, 226920, Note_on_c, 7, 45, 77
12, 227004, Note_on_c, 7, 45, 0
12, 227040, Note_on_c, 7, 45, 77
12, 227124, Note_on_c, 7, 45, 0
12, 227160, Note_on_c, 7, 45, 77
12, 227244, Note_on_c, 7, 45, 0
12, 227280, Note_on_c, 7, 45, 77
12, 227364, Note_on_c, 7, 45, 0
12, 227400, Note_on_c, 7, 45, 77
12, 227484, Note_on_c, 7, 45, 0
12, 227520, Note_on_c, 7, 45, 77
12, 227604, Note_on_c, 7, 45, 0
12, 227640, Note_on_c, 7, 45, 77
12, 227724, Note_on_c, 7, 45, 0
12, 227760, Note_on_c, 7, 45, 77
12, 227844, Note_on_c, 7, 45, 0
12, 227880, Note_on_c, 7, 45, 77
12, 227964, Note_on_c, 7, 45, 0
12, 228000, Note_on_c, 7, 45, 77
12, 228084, Note_on_c, 7, 45, 0
12, 228120, Note_on_c, 7, 45, 77
12, 228204, Note_on_c, 7, 45, 0
12, 228240, Note_on_c, 7, 45, 77
12, 228324, Note_on_c, 7, 45, 0
12, 228360, Note_on_c, 7, 45, 77
12, 228444, Note_on_c, 7, 45, 0
12, 228480, Note_on_c, 7, 45, 77
12, 228960, Note_on_c, 7, 45, 0
12, 243120, Note_on_c, 7, 51, 110
12, 243240, Note_on_c, 7, 51, 0
12, 243240, Note_on_c, 7, 50, 110
12, 243336, Note_on_c, 7, 50, 0
12, 243360, Note_on_c, 7, 50, 110
12, 243600, Note_on_c, 7, 50, 0
12, 244080, Note_on_c, 7, 51, 110
12, 244200, Note_on_c, 7, 51, 0
12, 244200, Note_on_c, 7, 50, 110
12, 244296, Note_on_c, 7, 50, 0
12, 244320, Note_on_c, 7, 50, 110
12, 244560, Note_on_c, 7, 50, 0
12, 245040, Note_on_c, 7, 51, 110
12, 245160, Note_on_c, 7, 51, 0
12, 245160, Note_on_c, 7, 50, 110
12, 245256, Note_on_c, 7, 50, 0
12, 245280, Note_on_c, 7, 50, 110
12, 245520, Note_on_c, 7, 50, 0
12, 246000, Note_on_c, 7, 51, 110
12, 246120, Note_on_c, 7, 51, 0
12, 246120, Note_on_c, 7, 50, 110
12, 246216, Note_on_c, 7, 50, 0
12, 246240, Note_on_c, 7, 50, 110
12, 246480, Note_on_c, 7, 50, 0
12, 246960, Note_on_c, 7, 51, 110
12, 247080, Note_on_c, 7, 51, 0
12, 247080, Note_on_c, 7, 50, 110
12, 247176, Note_on_c, 7, 50, 0
12, 247200, Note_on_c, 7, 50, 110
12, 247440, Note_on_c, 7, 50, 0
12, 247920, Note_on_c, 7, 51, 77
12, 248040, Note_on_c, 7, 51, 0
12, 248040, Note_on_c, 7, 50, 77
12, 248136, Note_on_c, 7, 50, 0
12, 248160, Note_on_c, 7, 50, 77
12, 248400, Note_on_c, 7, 50, 0
12, 248880, Note_on_c, 7, 51, 74
12, 249000, Note_on_c, 7, 51, 0
12, 249000, Note_on_c, 7, 50, 71
12, 249096, Note_on_c, 7, 50, 0
12, 249120, Note_on_c, 7, 50, 70
12, 249360, Note_on_c, 7, 50, 0
12, 249360, Note_on_c, 7, 51, 67
12, 249480, Note_on_c, 7, 51, 0
12, 249480, Note_on_c, 7, 50, 64
12, 249576, Note_on_c, 7, 50, 0
12, 249600, Note_on_c, 7, 50, 63
12, 249960, Note_on_c, 7, 50, 0
12, 255360, Note_on_c, 7, 31, 56
12, 255600, Note_on_c, 7, 31, 0
12, 256320, Note_on_c, 7, 43, 56
12, 256560, Note_on_c, 7, 43, 0
12, 257280, Note_on_c, 7, 31, 39
12, 257520, Note_on_c, 7, 31, 0
12, 258240, Note_on_c, 7, 43, 56
12, 258480, Note_on_c, 7, 43, 0
12, 259200, Note_on_c, 7, 30, 56
12, 259440, Note_on_c, 7, 30, 0
12, 260160, Note_on_c, 7, 38, 56
12, 260400, Note_on_c, 7, 38, 0
12, 261120, Note_on_c, 7, 31, 56
12, 261360, Note_on_c, 7, 31, 0
12, 262080, Note_on_c, 7, 36, 56
12, 263040, Note_on_c, 7, 36, 0
12, 263040, Note_on_c, 7, 34, 56
12, 264000, Note_on_c, 7, 34, 0
12, 264000, Note_on_c, 7, 36, 56
12, 264960, Note_on_c, 7, 36, 0
12, 264960, Note_on_c, 7, 34, 56
12, 265920, Note_on_c, 7, 34, 0
12, 265920, Note_on_c, 7, 40, 56
12, 266880, Note_on_c, 7, 40, 0
12, 266880, Note_on_c, 7, 39, 56
12, 267840, Note_on_c, 7, 39, 0
12, 267840, Note_on_c, 7, 38, 56
12, 268224, Note_on_c, 7, 38, 0
12, 268560, Note_on_c, 7, 38, 77
12, 268656, Note_on_c, 7, 38, 0
12, 268680, Note_on_c, 7, 38, 77
12, 268776, Note_on_c, 7, 38, 0
12, 268800, Note_on_c, 7, 38, 77
12, 269184, Note_on_c, 7, 38, 0
12, 269520, Note_on_c, 7, 38, 77
12, 269616, Note_on_c, 7, 38, 0
12, 269640, Note_on_c, 7, 38, 77
12, 269736, Note_on_c, 7, 38, 0
12, 269760, Note_on_c, 7, 38, 77
12, 270144, Note_on_c, 7, 38, 0
12, 270480, Note_on_c, 7, 38, 77
12, 270576, Note_on_c, 7, 38, 0
12, 270600, Note_on_c, 7, 38, 77
12, 270696, Note_on_c, 7, 38, 0
12, 270720, Note_on_c, 7, 38, 77
12, 270912, Note_on_c, 7, 38, 0
12, 270960, Note_on_c, 7, 38, 74
12, 271056, Note_on_c, 7, 38, 0
12, 271080, Note_on_c, 7, 38, 71
12, 271176, Note_on_c, 7, 38, 0
12, 271200, Note_on_c, 7, 38, 70
12, 271392, Note_on_c, 7, 38, 0
12, 271440, Note_on_c, 7, 38, 67
12, 271536, Note_on_c, 7, 38, 0
12, 271560, Note_on_c, 7, 38, 64
12, 271656, Note_on_c, 7, 38, 0
12, 271680, Note_on_c, 7, 38, 80
12, 272064, Note_on_c, 7, 38, 0
12, 273600, Note_on_c, 7, 31, 56
12, 273960, Note_on_c, 7, 31, 0
12, 274560, Note_on_c, 7, 43, 56
12, 274920, Note_on_c, 7, 43, 0
12, 275520, Note_on_c, 7, 41, 56
12, 275880, Note_on_c, 7, 41, 0
12, 276480, Note_on_c, 7, 39, 56
12, 276840, Note_on_c, 7, 39, 0
12, 277440, Note_on_c, 7, 38, 56
12, 277800, Note_on_c, 7, 38, 0
12, 278400, Note_on_c, 7, 34, 56
12, 278760, Note_on_c, 7, 34, 0
12, 279360, Note_on_c, 7, 39, 77
12, 279444, Note_on_c, 7, 39, 0
12, 279480, Note_on_c, 7, 43, 77
12, 279564, Note_on_c, 7, 43, 0
12, 279600, Note_on_c, 7, 46, 77
12, 279684, Note_on_c, 7, 46, 0
12, 279720, Note_on_c, 7, 51, 77
12, 279804, Note_on_c, 7, 51, 0
12, 279840, Note_on_c, 7, 55, 77
12, 279924, Note_on_c, 7, 55, 0
12, 279960, Note_on_c, 7, 53, 77
12, 280044, Note_on_c, 7, 53, 0
12, 280080, Note_on_c, 7, 55, 77
12, 280164, Note_on_c, 7, 55, 0
12, 280200, Note_on_c, 7, 51, 77
12, 280284, Note_on_c, 7, 51, 0
12, 280320, Note_on_c, 7, 50, 77
12, 280404, Note_on_c, 7, 50, 0
12, 280440, Note_on_c, 7, 51, 77
12, 280524, Note_on_c, 7, 51, 0
12, 280560, Note_on_c, 7, 53, 77
12, 280644, Note_on_c, 7, 53, 0
12, 280680, Note_on_c, 7, 51, 77
12, 280764, Note_on_c, 7, 51, 0
12, 280800, Note_on_c, 7, 50, 77
12, 280884, Note_on_c, 7, 50, 0
12, 280920, Note_on_c, 7, 48, 77
12, 281004, Note_on_c, 7, 48, 0
12, 281040, Note_on_c, 7, 50, 77
12, 281124, Note_on_c, 7, 50, 0
12, 281160, Note_on_c, 7, 46, 77
12, 281244, Note_on_c, 7, 46, 0
12, 281280, Note_on_c, 7, 48, 77
12, 281364, Note_on_c, 7, 48, 0
12, 281400, Note_on_c, 7, 51, 77
12, 281484, Note_on_c, 7, 51, 0
12, 281520, Note_on_c, 7, 48, 77
12, 281604, Note_on_c, 7, 48, 0
12, 281640, Note_on_c, 7, 51, 77
12, 281724, Note_on_c, 7, 51, 0
12, 281760, Note_on_c, 7, 48, 77
12, 281844, Note_on_c, 7, 48, 0
12, 281880, Note_on_c, 7, 51, 77
12, 281964, Note_on_c, 7, 51, 0
12, 282000, Note_on_c, 7, 48, 77
12, 282084, Note_on_c, 7, 48, 0
12, 282120, Note_on_c, 7, 51, 77
12, 282204, Note_on_c, 7, 51, 0
12, 282240, Note_on_c, 7, 46, 77
12, 282324, Note_on_c, 7, 46, 0
12, 282360, Note_on_c, 7, 51, 77
12, 282444, Note_on_c, 7, 51, 0
12, 282480, Note_on_c, 7, 46, 77
12, 282564, Note_on_c, 7, 46, 0
12, 282600, Note_on_c, 7, 51, 77
12, 282684, Note_on_c, 7, 51, 0
12, 282720, Note_on_c, 7, 46, 77
12, 282804, Note_on_c, 7, 46, 0
12, 282840, Note_on_c, 7, 51, 77
12, 282924, Note_on_c, 7, 51, 0
12, 282960, Note_on_c, 7, 46, 77
12, 283044, Note_on_c, 7, 46, 0
12, 283080, Note_on_c, 7, 51, 77
12, 283164, Note_on_c, 7, 51, 0
12, 283200, Note_on_c, 7, 44, 77
12, 283284, Note_on_c, 7, 44, 0
12, 283320, Note_on_c, 7, 48, 77
12, 283404, Note_on_c, 7, 48, 0
12, 283440, Note_on_c, 7, 44, 77
12, 283524, Note_on_c, 7, 44, 0
12, 283560, Note_on_c, 7, 48, 77
12, 283644, Note_on_c, 7, 48, 0
12, 283680, Note_on_c, 7, 44, 77
12, 283764, Note_on_c, 7, 44, 0
12, 283800, Note_on_c, 7, 48, 77
12, 283884, Note_on_c, 7, 48, 0
12, 283920, Note_on_c, 7, 44, 77
12, 284004, Note_on_c, 7, 44, 0
12, 284040, Note_on_c, 7, 48, 77
12, 284124, Note_on_c, 7, 48, 0
12, 284160, Note_on_c, 7, 43, 77
12, 284244, Note_on_c, 7, 43, 0
12, 284280, Note_on_c, 7, 46, 77
12, 284364, Note_on_c, 7, 46, 0
12, 284400, Note_on_c, 7, 43, 77
12, 284484, Note_on_c, 7, 43, 0
12, 284520, Note_on_c, 7, 46, 77
12, 284604, Note_on_c, 7, 46, 0
12, 284640, Note_on_c, 7, 41, 77
12, 284724, Note_on_c, 7, 41, 0
12, 284760, Note_on_c, 7, 44, 77
12, 284844, Note_on_c, 7, 44, 0
12, 284880, Note_on_c, 7, 41, 77
12, 284964, Note_on_c, 7, 41, 0
12, 285000, Note_on_c, 7, 44, 77
12, 285084, Note_on_c, 7, 44, 0
12, 285120, Note_on_c, 7, 40, 77
12, 285204, Note_on_c, 7, 40, 0
12, 285240, Note_on_c, 7, 43, 77
12, 285324, Note_on_c, 7, 43, 0
12, 285360, Note_on_c, 7, 40, 77
12, 285444, Note_on_c, 7, 40, 0
12, 285480, Note_on_c, 7, 43, 77
12, 285564, Note_on_c, 7, 43, 0
12, 285600, Note_on_c, 7, 36, 77
12, 285684, Note_on_c, 7, 36, 0
12, 285720, Note_on_c, 7, 40, 77
12, 285804, Note_on_c, 7, 40, 0
12, 285840, Note_on_c, 7, 36, 77
12, 285924, Note_on_c, 7, 36, 0
12, 285960, Note_on_c, 7, 40, 77
12, 286044, Note_on_c, 7, 40, 0
12, 286080, Note_on_c, 7, 41, 77
12, 286896, Note_on_c, 7, 41, 0
12, 287040, Note_on_c, 7, 48, 77
12, 287880, Note_on_c, 7, 48, 0
12, 287880, Note_on_c, 7, 48, 77
12, 287982, Note_on_c, 7, 48, 0
12, 288000, Note_on_c, 7, 46, 77
12, 288144, Note_on_c, 7, 46, 0
12, 288240, Note_on_c, 7, 49, 77
12, 288384, Note_on_c, 7, 49, 0
12, 288480, Note_on_c, 7, 55, 77
12, 288624, Note_on_c, 7, 55, 0
12, 288960, Note_on_c, 7, 44, 77
12, 289104, Note_on_c, 7, 44, 0
12, 289200, Note_on_c, 7, 48, 77
12, 289344, Note_on_c, 7, 48, 0
12, 289440, Note_on_c, 7, 53, 77
12, 289584, Note_on_c, 7, 53, 0
12, 289800, Note_on_c, 7, 44, 77
12, 289872, Note_on_c, 7, 44, 0
12, 289920, Note_on_c, 7, 43, 77
12, 290064, Note_on_c, 7, 43, 0
12, 290160, Note_on_c, 7, 46, 80
12, 290304, Note_on_c, 7, 46, 0
12, 290400, Note_on_c, 7, 52, 83
12, 290544, Note_on_c, 7, 52, 0
12, 290760, Note_on_c, 7, 43, 88
12, 290832, Note_on_c, 7, 43, 0
12, 290880, Note_on_c, 7, 41, 89
12, 291024, Note_on_c, 7, 41, 0
12, 291120, Note_on_c, 7, 44, 89
12, 291264, Note_on_c, 7, 44, 0
12, 291360, Note_on_c, 7, 48, 89
12, 291504, Note_on_c, 7, 48, 0
12, 291720, Note_on_c, 7, 29, 89
12, 291792, Note_on_c, 7, 29, 0
12, 291840, Note_on_c, 7, 34, 89
12, 291984, Note_on_c, 7, 34, 0
12, 292080, Note_on_c, 7, 38, 89
12, 292224, Note_on_c, 7, 38, 0
12, 292320, Note_on_c, 7, 41, 89
12, 292464, Note_on_c, 7, 41, 0
12, 292680, Note_on_c, 7, 34, 89
12, 292752, Note_on_c, 7, 34, 0
12, 292800, Note_on_c, 7, 39, 89
12, 292944, Note_on_c, 7, 39, 0
12, 293040, Note_on_c, 7, 43, 89
12, 293184, Note_on_c, 7, 43, 0
12, 293280, Note_on_c, 7, 46, 89
12, 293424, Note_on_c, 7, 46, 0
12, 293640, Note_on_c, 7, 27, 89
12, 293736, Note_on_c, 7, 27, 0
12, 293760, Note_on_c, 7, 32, 89
12, 293904, Note_on_c, 7, 32, 0
12, 294000, Note_on_c, 7, 36, 89
12, 294144, Note_on_c, 7, 36, 0
12, 294240, Note_on_c, 7, 39, 89
12, 294384, Note_on_c, 7, 39, 0
12, 294600, Note_on_c, 7, 32, 89
12, 294696, Note_on_c, 7, 32, 0
12, 294720, Note_on_c, 7, 38, 89
12, 294864, Note_on_c, 7, 38, 0
12, 294960, Note_on_c, 7, 41, 89
12, 295104, Note_on_c, 7, 41, 0
12, 295200, Note_on_c, 7, 45, 89
12, 295344, Note_on_c, 7, 45, 0
12, 295560, Note_on_c, 7, 38, 89
12, 295656, Note_on_c, 7, 38, 0
12, 295680, Note_on_c, 7, 43, 89
12, 295824, Note_on_c, 7, 43, 0
12, 295920, Note_on_c, 7, 47, 89
12, 296064, Note_on_c, 7, 47, 0
12, 296160, Note_on_c, 7, 50, 89
12, 296304, Note_on_c, 7, 50, 0
12, 296520, Note_on_c, 7, 31, 89
12, 296616, Note_on_c, 7, 31, 0
12, 296640, Note_on_c, 7, 36, 89
12, 296784, Note_on_c, 7, 36, 0
12, 296880, Note_on_c, 7, 39, 89
12, 297024, Note_on_c, 7, 39, 0
12, 297120, Note_on_c, 7, 45, 89
12, 297264, Note_on_c, 7, 45, 0
12, 297480, Note_on_c, 7, 36, 89
12, 297576, Note_on_c, 7, 36, 0
12, 297600, Note_on_c, 7, 38, 89
12, 297744, Note_on_c, 7, 38, 0
12, 297840, Note_on_c, 7, 42, 89
12, 297984, Note_on_c, 7, 42, 0
12, 298080, Note_on_c, 7, 45, 89
12, 298224, Note_on_c, 7, 45, 0
12, 298560, Note_on_c, 7, 43, 89
12, 298644, Note_on_c, 7, 43, 0
12, 298680, Note_on_c, 7, 46, 89
12, 298764, Note_on_c, 7, 46, 0
12, 298800, Note_on_c, 7, 43, 89
12, 298884, Note_on_c, 7, 43, 0
12, 298920, Note_on_c, 7, 46, 89
12, 299004, Note_on_c, 7, 46, 0
12, 299040, Note_on_c, 7, 43, 89
12, 299124, Note_on_c, 7, 43, 0
12, 299160, Note_on_c, 7, 46, 89
12, 299244, Note_on_c, 7, 46, 0
12, 299280, Note_on_c, 7, 43, 89
12, 299364, Note_on_c, 7, 43, 0
12, 299400, Note_on_c, 7, 46, 89
12, 299484, Note_on_c, 7, 46, 0
12, 299520, Note_on_c, 7, 41, 89
12, 299604, Note_on_c, 7, 41, 0
12, 299640, Note_on_c, 7, 45, 89
12, 299724, Note_on_c, 7, 45, 0
12, 299760, Note_on_c, 7, 41, 89
12, 299844, Note_on_c, 7, 41, 0
12, 299880, Note_on_c, 7, 45, 89
12, 299964, Note_on_c, 7, 45, 0
12, 300000, Note_on_c, 7, 41, 89
12, 300084, Note_on_c, 7, 41, 0
12, 300120, Note_on_c, 7, 45, 89
12, 300204, Note_on_c, 7, 45, 0
12, 300240, Note_on_c, 7, 41, 89
12, 300324, Note_on_c, 7, 41, 0
12, 300360, Note_on_c, 7, 45, 89
12, 300444, Note_on_c, 7, 45, 0
12, 300480, Note_on_c, 7, 39, 89
12, 300564, Note_on_c, 7, 39, 0
12, 300600, Note_on_c, 7, 43, 89
12, 300684, Note_on_c, 7, 43, 0
12, 300720, Note_on_c, 7, 39, 89
12, 300804, Note_on_c, 7, 39, 0
12, 300840, Note_on_c, 7, 43, 89
12, 300924, Note_on_c, 7, 43, 0
12, 300960, Note_on_c, 7, 39, 89
12, 301044, Note_on_c, 7, 39, 0
12, 301080, Note_on_c, 7, 43, 89
12, 301164, Note_on_c, 7, 43, 0
12, 301200, Note_on_c, 7, 39, 89
12, 301284, Note_on_c, 7, 39, 0
12, 301320, Note_on_c, 7, 43, 89
12, 301404, Note_on_c, 7, 43, 0
12, 301440, Note_on_c, 7, 38, 89
12, 301524, Note_on_c, 7, 38, 0
12, 301560, Note_on_c, 7, 43, 89
12, 301644, Note_on_c, 7, 43, 0
12, 301680, Note_on_c, 7, 38, 89
12, 301764, Note_on_c, 7, 38, 0
12, 301800, Note_on_c, 7, 43, 89
12, 301884, Note_on_c, 7, 43, 0
12, 301920, Note_on_c, 7, 38, 89
12, 302004, Note_on_c, 7, 38, 0
12, 302040, Note_on_c, 7, 43, 89
12, 302124, Note_on_c, 7, 43, 0
12, 302160, Note_on_c, 7, 38, 89
12, 302244, Note_on_c, 7, 38, 0
12, 302280, Note_on_c, 7, 43, 89
12, 302364, Note_on_c, 7, 43, 0
12, 302400, Note_on_c, 7, 36, 89
12, 302484, Note_on_c, 7, 36, 0
12, 302520, Note_on_c, 7, 39, 89
12, 302604, Note_on_c, 7, 39, 0
12, 302640, Note_on_c, 7, 36, 89
12, 302724, Note_on_c, 7, 36, 0
12, 302760, Note_on_c, 7, 39, 89
12, 302844, Note_on_c, 7, 39, 0
12, 302880, Note_on_c, 7, 36, 89
12, 302964, Note_on_c, 7, 36, 0
12, 303000, Note_on_c, 7, 39, 89
12, 303084, Note_on_c, 7, 39, 0
12, 303120, Note_on_c, 7, 36, 89
12, 303204, Note_on_c, 7, 36, 0
12, 303240, Note_on_c, 7, 39, 89
12, 303324, Note_on_c, 7, 39, 0
12, 303360, Note_on_c, 7, 34, 89
12, 303444, Note_on_c, 7, 34, 0
12, 303480, Note_on_c, 7, 38, 89
12, 303564, Note_on_c, 7, 38, 0
12, 303600, Note_on_c, 7, 34, 89
12, 303684, Note_on_c, 7, 34, 0
12, 303720, Note_on_c, 7, 38, 89
12, 303804, Note_on_c, 7, 38, 0
12, 303840, Note_on_c, 7, 34, 89
12, 303924, Note_on_c, 7, 34, 0
12, 303960, Note_on_c, 7, 38, 89
12, 304044, Note_on_c, 7, 38, 0
12, 304080, Note_on_c, 7, 34, 89
12, 304164, Note_on_c, 7, 34, 0
12, 304200, Note_on_c, 7, 38, 89
12, 304284, Note_on_c, 7, 38, 0
12, 304320, Note_on_c, 7, 33, 89
12, 305088, Note_on_c, 7, 33, 0
12, 305280, Note_on_c, 7, 33, 89
12, 305664, Note_on_c, 7, 33, 0
12, 305760, Note_on_c, 7, 34, 89
12, 306144, Note_on_c, 7, 34, 0
12, 306240, Note_on_c, 7, 33, 89
12, 306624, Note_on_c, 7, 33, 0
12, 306720, Note_on_c, 7, 34, 89
12, 307104, Note_on_c, 7, 34, 0
12, 307200, Note_on_c, 7, 33, 89
12, 307584, Note_on_c, 7, 33, 0
12, 308040, Note_on_c, 7, 33, 89
12, 308136, Note_on_c, 7, 33, 0
12, 308160, Note_on_c, 7, 38, 89
12, 308244, Note_on_c, 7, 38, 0
12, 308280, Note_on_c, 7, 50, 89
12, 308364, Note_on_c, 7, 50, 0
12, 308400, Note_on_c, 7, 50, 89
12, 308484, Note_on_c, 7, 50, 0
12, 308520, Note_on_c, 7, 50, 89
12, 308604, Note_on_c, 7, 50, 0
12, 308640, Note_on_c, 7, 50, 89
12, 308724, Note_on_c, 7, 50, 0
12, 308760, Note_on_c, 7, 50, 89
12, 308844, Note_on_c, 7, 50, 0
12, 308880, Note_on_c, 7, 50, 89
12, 308964, Note_on_c, 7, 50, 0
12, 309000, Note_on_c, 7, 50, 89
12, 309084, Note_on_c, 7, 50, 0
12, 309120, Note_on_c, 7, 50, 89
12, 309204, Note_on_c, 7, 50, 0
12, 309240, Note_on_c, 7, 50, 89
12, 309324, Note_on_c, 7, 50, 0
12, 309360, Note_on_c, 7, 50, 89
12, 309444, Note_on_c, 7, 50, 0
12, 309480, Note_on_c, 7, 50, 89
12, 309564, Note_on_c, 7, 50, 0
12, 309600, Note_on_c, 7, 50, 89
12, 309684, Note_on_c, 7, 50, 0
12, 309720, Note_on_c, 7, 50, 89
12, 309804, Note_on_c, 7, 50, 0
12, 309840, Note_on_c, 7, 50, 89
12, 309924, Note_on_c, 7, 50, 0
12, 309960, Note_on_c, 7, 50, 89
12, 310044, Note_on_c, 7, 50, 0
12, 310080, Note_on_c, 7, 50, 89
12, 310164, Note_on_c, 7, 50, 0
12, 310200, Note_on_c, 7, 50, 89
12, 310284, Note_on_c, 7, 50, 0
12, 310320, Note_on_c, 7, 50, 89
12, 310404, Note_on_c, 7, 50, 0
12, 310440, Note_on_c, 7, 50, 89
12, 310524, Note_on_c, 7, 50, 0
12, 310560, Note_on_c, 7, 50, 89
12, 310644, Note_on_c, 7, 50, 0
12, 310680, Note_on_c, 7, 50, 89
12, 310764, Note_on_c, 7, 50, 0
12, 310800, Note_on_c, 7, 50, 89
12, 310884, Note_on_c, 7, 50, 0
12, 310920, Note_on_c, 7, 50, 89
12, 311004, Note_on_c, 7, 50, 0
12, 311040, Note_on_c, 7, 50, 89
12, 311124, Note_on_c, 7, 50, 0
12, 311160, Note_on_c, 7, 50, 89
12, 311244, Note_on_c, 7, 50, 0
12, 311280, Note_on_c, 7, 50, 89
12, 311364, Note_on_c, 7, 50, 0
12, 311400, Note_on_c, 7, 50, 89
12, 311484, Note_on_c, 7, 50, 0
12, 311520, Note_on_c, 7, 50, 89
12, 311604, Note_on_c, 7, 50, 0
12, 311640, Note_on_c, 7, 50, 89
12, 311724, Note_on_c, 7, 50, 0
12, 311760, Note_on_c, 7, 50, 89
12, 311844, Note_on_c, 7, 50, 0
12, 311880, Note_on_c, 7, 50, 89
12, 311964, Note_on_c, 7, 50, 0
12, 312000, Note_on_c, 7, 50, 89
12, 312360, Note_on_c, 7, 50, 0
12, 312480, Note_on_c, 7, 38, 56
12, 312840, Note_on_c, 7, 38, 0
12, 313920, Note_on_c, 7, 46, 56
12, 314640, Note_on_c, 7, 46, 0
12, 314640, Note_on_c, 7, 45, 56
12, 314880, Note_on_c, 7, 45, 0
12, 314880, Note_on_c, 7, 38, 56
12, 315240, Note_on_c, 7, 38, 0
12, 316080, Note_on_c, 7, 41, 56
12, 316320, Note_on_c, 7, 41, 0
12, 316320, Note_on_c, 7, 40, 56
12, 316560, Note_on_c, 7, 40, 0
12, 316560, Note_on_c, 7, 39, 56
12, 316800, Note_on_c, 7, 39, 0
12, 316800, Note_on_c, 7, 38, 56
12, 317280, Note_on_c, 7, 38, 0
12, 317760, Note_on_c, 7, 36, 39
12, 318480, Note_on_c, 7, 36, 0
12, 318480, Note_on_c, 7, 34, 56
12, 318720, Note_on_c, 7, 34, 0
12, 318720, Note_on_c, 7, 33, 56
12, 318960, Note_on_c, 7, 33, 0
12, 318960, Note_on_c, 7, 38, 56
12, 319200, Note_on_c, 7, 38, 0
12, 319200, Note_on_c, 7, 31, 56
12, 319440, Note_on_c, 7, 31, 0
12, 319440, Note_on_c, 7, 39, 56
12, 319680, Note_on_c, 7, 39, 0
12, 319680, Note_on_c, 7, 36, 56
12, 320040, Note_on_c, 7, 36, 0
12, 320160, Note_on_c, 7, 38, 56
12, 320520, Note_on_c, 7, 38, 0
12, 320640, Note_on_c, 7, 31, 56
12, 321000, Note_on_c, 7, 31, 0
12, 325440, Note_on_c, 7, 48, 56
12, 326160, Note_on_c, 7, 48, 0
12, 326160, Note_on_c, 7, 46, 56
12, 326400, Note_on_c, 7, 46, 0
12, 326400, Note_on_c, 7, 45, 56
12, 326640, Note_on_c, 7, 45, 0
12, 326640, Note_on_c, 7, 38, 56
12, 326880, Note_on_c, 7, 38, 0
12, 326880, Note_on_c, 7, 43, 56
12, 327120, Note_on_c, 7, 43, 0
12, 327120, Note_on_c, 7, 39, 56
12, 327360, Note_on_c, 7, 39, 0
12, 327360, Note_on_c, 7, 34, 56
12, 328320, Note_on_c, 7, 34, 0
12, 328320, Note_on_c, 7, 34, 56
12, 329280, Note_on_c, 7, 34, 0
12, 329280, Note_on_c, 7, 34, 56
12, 330240, Note_on_c, 7, 34, 0
12, 330240, Note_on_c, 7, 34, 56
12, 331200, Note_on_c, 7, 34, 0
12, 331200, Note_on_c, 7, 34, 60
12, 331284, Note_on_c, 7, 34, 0
12, 331320, Note_on_c, 7, 46, 60
12, 331404, Note_on_c, 7, 46, 0
12, 331440, Note_on_c, 7, 46, 60
12, 331524, Note_on_c, 7, 46, 0
12, 331560, Note_on_c, 7, 46, 61
12, 331644, Note_on_c, 7, 46, 0
12, 331680, Note_on_c, 7, 46, 62
12, 331764, Note_on_c, 7, 46, 0
12, 331800, Note_on_c, 7, 46, 62
12, 331884, Note_on_c, 7, 46, 0
12, 331920, Note_on_c, 7, 46, 62
12, 332004, Note_on_c, 7, 46, 0
12, 332040, Note_on_c, 7, 46, 62
12, 332124, Note_on_c, 7, 46, 0
12, 332160, Note_on_c, 7, 47, 63
12, 332244, Note_on_c, 7, 47, 0
12, 332280, Note_on_c, 7, 47, 65
12, 332364, Note_on_c, 7, 47, 0
12, 332400, Note_on_c, 7, 47, 67
12, 332484, Note_on_c, 7, 47, 0
12, 332520, Note_on_c, 7, 47, 69
12, 332604, Note_on_c, 7, 47, 0
12, 332640, Note_on_c, 7, 47, 70
12, 332724, Note_on_c, 7, 47, 0
12, 332760, Note_on_c, 7, 47, 72
12, 332844, Note_on_c, 7, 47, 0
12, 332880, Note_on_c, 7, 47, 74
12, 332964, Note_on_c, 7, 47, 0
12, 333000, Note_on_c, 7, 47, 76
12, 333084, Note_on_c, 7, 47, 0
12, 333120, Note_on_c, 7, 48, 77
12, 333216, Note_on_c, 7, 48, 0
12, 333240, Note_on_c, 7, 48, 77
12, 333336, Note_on_c, 7, 48, 0
12, 333360, Note_on_c, 7, 48, 77
12, 333456, Note_on_c, 7, 48, 0
12, 333480, Note_on_c, 7, 48, 77
12, 333576, Note_on_c, 7, 48, 0
12, 333600, Note_on_c, 7, 48, 77
12, 333696, Note_on_c, 7, 48, 0
12, 333720, Note_on_c, 7, 48, 77
12, 333816, Note_on_c, 7, 48, 0
12, 333840, Note_on_c, 7, 48, 77
12, 333936, Note_on_c, 7, 48, 0
12, 333960, Note_on_c, 7, 48, 77
12, 334056, Note_on_c, 7, 48, 0
12, 334080, Note_on_c, 7, 49, 77
12, 334164, Note_on_c, 7, 49, 0
12, 334200, Note_on_c, 7, 49, 77
12, 334284, Note_on_c, 7, 49, 0
12, 334320, Note_on_c, 7, 49, 77
12, 334404, Note_on_c, 7, 49, 0
12, 334440, Note_on_c, 7, 49, 77
12, 334524, Note_on_c, 7, 49, 0
12, 334560, Note_on_c, 7, 49, 77
12, 334644, Note_on_c, 7, 49, 0
12, 334680, Note_on_c, 7, 49, 77
12, 334764, Note_on_c, 7, 49, 0
12, 334800, Note_on_c, 7, 49, 77
12, 334884, Note_on_c, 7, 49, 0
12, 334920, Note_on_c, 7, 49, 77
12, 335004, Note_on_c, 7, 49, 0
12, 335040, Note_on_c, 7, 50, 77
12, 335124, Note_on_c, 7, 50, 0
12, 335160, Note_on_c, 7, 50, 77
12, 335244, Note_on_c, 7, 50, 0
12, 335280, Note_on_c, 7, 50, 77
12, 335364, Note_on_c, 7, 50, 0
12, 335400, Note_on_c, 7, 50, 77
12, 335484, Note_on_c, 7, 50, 0
12, 335520, Note_on_c, 7, 50, 77
12, 335604, Note_on_c, 7, 50, 0
12, 335640, Note_on_c, 7, 50, 77
12, 335724, Note_on_c, 7, 50, 0
12, 335760, Note_on_c, 7, 50, 77
12, 335844, Note_on_c, 7, 50, 0
12, 335880, Note_on_c, 7, 50, 77
12, 335964, Note_on_c, 7, 50, 0
12, 336000, Note_on_c, 7, 51, 77
12, 336084, Note_on_c, 7, 51, 0
12, 336120, Note_on_c, 7, 51, 77
12, 336204, Note_on_c, 7, 51, 0
12, 336240, Note_on_c, 7, 51, 77
12, 336324, Note_on_c, 7, 51, 0
12, 336360, Note_on_c, 7, 51, 77
12, 336444, Note_on_c, 7, 51, 0
12, 336480, Note_on_c, 7, 51, 77
12, 336564, Note_on_c, 7, 51, 0
12, 336600, Note_on_c, 7, 51, 77
12, 336684, Note_on_c, 7, 51, 0
12, 336720, Note_on_c, 7, 51, 77
12, 336804, Note_on_c, 7, 51, 0
12, 336840, Note_on_c, 7, 51, 77
12, 336924, Note_on_c, 7, 51, 0
12, 336960, Note_on_c, 7, 52, 77
12, 337044, Note_on_c, 7, 52, 0
12, 337080, Note_on_c, 7, 52, 77
12, 337164, Note_on_c, 7, 52, 0
12, 337200, Note_on_c, 7, 52, 77
12, 337284, Note_on_c, 7, 52, 0
12, 337320, Note_on_c, 7, 52, 77
12, 337404, Note_on_c, 7, 52, 0
12, 337440, Note_on_c, 7, 52, 77
12, 337524, Note_on_c, 7, 52, 0
12, 337560, Note_on_c, 7, 52, 77
12, 337644, Note_on_c, 7, 52, 0
12, 337680, Note_on_c, 7, 52, 77
12, 337764, Note_on_c, 7, 52, 0
12, 337800, Note_on_c, 7, 52, 77
12, 337884, Note_on_c, 7, 52, 0
12, 337920, Note_on_c, 7, 50, 77
12, 338016, Note_on_c, 7, 50, 0
12, 338040, Note_on_c, 7, 50, 77
12, 338136, Note_on_c, 7, 50, 0
12, 338160, Note_on_c, 7, 50, 77
12, 338256, Note_on_c, 7, 50, 0
12, 338280, Note_on_c, 7, 50, 77
12, 338376, Note_on_c, 7, 50, 0
12, 338400, Note_on_c, 7, 50, 77
12, 338496, Note_on_c, 7, 50, 0
12, 338520, Note_on_c, 7, 50, 77
12, 338616, Note_on_c, 7, 50, 0
12, 338640, Note_on_c, 7, 50, 77
12, 338736, Note_on_c, 7, 50, 0
12, 338760, Note_on_c, 7, 50, 77
12, 338856, Note_on_c, 7, 50, 0
12, 338880, Note_on_c, 7, 38, 77
12, 338976, Note_on_c, 7, 38, 0
12, 339000, Note_on_c, 7, 38, 77
12, 339096, Note_on_c, 7, 38, 0
12, 339120, Note_on_c, 7, 38, 77
12, 339216, Note_on_c, 7, 38, 0
12, 339240, Note_on_c, 7, 38, 77
12, 339336, Note_on_c, 7, 38, 0
12, 339360, Note_on_c, 7, 38, 77
12, 339456, Note_on_c, 7, 38, 0
12, 339480, Note_on_c, 7, 38, 77
12, 339576, Note_on_c, 7, 38, 0
12, 339600, Note_on_c, 7, 38, 77
12, 339696, Note_on_c, 7, 38, 0
12, 339720, Note_on_c, 7, 38, 77
12, 339816, Note_on_c, 7, 38, 0
12, 339840, Note_on_c, 7, 43, 77
12, 339984, Note_on_c, 7, 43, 0
12, 340080, Note_on_c, 7, 34, 77
12, 340560, Note_on_c, 7, 34, 0
12, 340560, Note_on_c, 7, 36, 77
12, 340704, Note_on_c, 7, 36, 0
12, 340800, Note_on_c, 7, 37, 77
12, 340944, Note_on_c, 7, 37, 0
12, 341040, Note_on_c, 7, 38, 77
12, 341184, Note_on_c, 7, 38, 0
12, 341280, Note_on_c, 7, 39, 77
12, 341424, Note_on_c, 7, 39, 0
12, 341520, Note_on_c, 7, 40, 77
12, 341664, Note_on_c, 7, 40, 0
12, 341760, Note_on_c, 7, 41, 77
12, 342000, Note_on_c, 7, 41, 0
12, 342180, Note_on_c, 7, 41, 89
12, 342228, Note_on_c, 7, 41, 0
12, 342240, Note_on_c, 7, 39, 77
12, 342480, Note_on_c, 7, 39, 0
12, 342660, Note_on_c, 7, 39, 89
12, 342708, Note_on_c, 7, 39, 0
12, 342720, Note_on_c, 7, 48, 77
12, 342960, Note_on_c, 7, 48, 0
12, 343140, Note_on_c, 7, 48, 89
12, 343188, Note_on_c, 7, 48, 0
12, 343200, Note_on_c, 7, 46, 77
12, 343440, Note_on_c, 7, 46, 0
12, 343620, Note_on_c, 7, 46, 89
12, 343668, Note_on_c, 7, 46, 0
12, 343680, Note_on_c, 7, 36, 77
12, 344040, Note_on_c, 7, 36, 0
12, 344640, Note_on_c, 7, 38, 56
12, 345000, Note_on_c, 7, 38, 0
12, 347040, Note_on_c, 7, 48, 56
12, 348000, Note_on_c, 7, 48, 0
12, 348000, Note_on_c, 7, 46, 56
12, 348240, Note_on_c, 7, 46, 0
12, 348960, Note_on_c, 7, 36, 39
12, 349920, Note_on_c, 7, 36, 0
12, 349920, Note_on_c, 7, 34, 39
12, 350160, Note_on_c, 7, 34, 0
12, 350400, Note_on_c, 7, 43, 77
12, 350484, Note_on_c, 7, 43, 0
12, 350520, Note_on_c, 7, 43, 77
12, 350604, Note_on_c, 7, 43, 0
12, 350640, Note_on_c, 7, 43, 77
12, 350724, Note_on_c, 7, 43, 0
12, 350760, Note_on_c, 7, 43, 77
12, 350844, Note_on_c, 7, 43, 0
12, 350880, Note_on_c, 7, 43, 77
12, 350964, Note_on_c, 7, 43, 0
12, 351000, Note_on_c, 7, 43, 77
12, 351084, Note_on_c, 7, 43, 0
12, 351120, Note_on_c, 7, 43, 77
12, 351204, Note_on_c, 7, 43, 0
12, 351240, Note_on_c, 7, 43, 77
12, 351324, Note_on_c, 7, 43, 0
12, 351360, Note_on_c, 7, 48, 77
12, 351444, Note_on_c, 7, 48, 0
12, 351480, Note_on_c, 7, 48, 77
12, 351564, Note_on_c, 7, 48, 0
12, 351600, Note_on_c, 7, 48, 77
12, 351684, Note_on_c, 7, 48, 0
12, 351720, Note_on_c, 7, 48, 77
12, 351804, Note_on_c, 7, 48, 0
12, 351840, Note_on_c, 7, 48, 77
12, 351924, Note_on_c, 7, 48, 0
12, 351960, Note_on_c, 7, 48, 77
12, 352044, Note_on_c, 7, 48, 0
12, 352080, Note_on_c, 7, 48, 77
12, 352164, Note_on_c, 7, 48, 0
12, 352200, Note_on_c, 7, 48, 77
12, 352284, Note_on_c, 7, 48, 0
12, 352320, Note_on_c, 7, 50, 77
12, 352404, Note_on_c, 7, 50, 0
12, 352440, Note_on_c, 7, 50, 77
12, 352524, Note_on_c, 7, 50, 0
12, 352560, Note_on_c, 7, 50, 77
12, 352644, Note_on_c, 7, 50, 0
12, 352680, Note_on_c, 7, 50, 77
12, 352764, Note_on_c, 7, 50, 0
12, 352800, Note_on_c, 7, 38, 77
12, 352884, Note_on_c, 7, 38, 0
12, 352920, Note_on_c, 7, 38, 77
12, 353004, Note_on_c, 7, 38, 0
12, 353040, Note_on_c, 7, 38, 77
12, 353124, Note_on_c, 7, 38, 0
12, 353160, Note_on_c, 7, 38, 77
12, 353244, Note_on_c, 7, 38, 0
12, 353280, Note_on_c, 7, 43, 77
12, 353520, Note_on_c, 7, 43, 0
12, 353760, Note_on_c, 7, 43, 39
12, 354720, Note_on_c, 7, 43, 0
12, 354720, Note_on_c, 7, 42, 39
12, 354960, Note_on_c, 7, 42, 0
12, 355680, Note_on_c, 7, 31, 39
12, 356640, Note_on_c, 7, 31, 0
12, 356640, Note_on_c, 7, 30, 39
12, 356880, Note_on_c, 7, 30, 0
12, 358080, Note_on_c, 7, 43, 77
12, 358164, Note_on_c, 7, 43, 0
12, 358200, Note_on_c, 7, 43, 77
12, 358284, Note_on_c, 7, 43, 0
12, 358320, Note_on_c, 7, 43, 77
12, 358404, Note_on_c, 7, 43, 0
12, 358440, Note_on_c, 7, 43, 77
12, 358524, Note_on_c, 7, 43, 0
12, 358560, Note_on_c, 7, 43, 77
12, 358644, Note_on_c, 7, 43, 0
12, 358680, Note_on_c, 7, 43, 77
12, 358764, Note_on_c, 7, 43, 0
12, 358800, Note_on_c, 7, 43, 77
12, 358884, Note_on_c, 7, 43, 0
12, 358920, Note_on_c, 7, 43, 77
12, 359004, Note_on_c, 7, 43, 0
12, 359040, Note_on_c, 7, 48, 77
12, 359124, Note_on_c, 7, 48, 0
12, 359160, Note_on_c, 7, 48, 77
12, 359244, Note_on_c, 7, 48, 0
12, 359280, Note_on_c, 7, 48, 77
12, 359364, Note_on_c, 7, 48, 0
12, 359400, Note_on_c, 7, 48, 77
12, 359484, Note_on_c, 7, 48, 0
12, 359520, Note_on_c, 7, 48, 77
12, 359604, Note_on_c, 7, 48, 0
12, 359640, Note_on_c, 7, 48, 77
12, 359724, Note_on_c, 7, 48, 0
12, 359760, Note_on_c, 7, 48, 77
12, 359844, Note_on_c, 7, 48, 0
12, 359880, Note_on_c, 7, 48, 77
12, 359964, Note_on_c, 7, 48, 0
12, 360000, Note_on_c, 7, 50, 77
12, 360084, Note_on_c, 7, 50, 0
12, 360120, Note_on_c, 7, 50, 77
12, 360204, Note_on_c, 7, 50, 0
12, 360240, Note_on_c, 7, 50, 77
12, 360324, Note_on_c, 7, 50, 0
12, 360360, Note_on_c, 7, 50, 77
12, 360444, Note_on_c, 7, 50, 0
12, 360480, Note_on_c, 7, 38, 77
12, 360564, Note_on_c, 7, 38, 0
12, 360600, Note_on_c, 7, 38, 77
12, 360684, Note_on_c, 7, 38, 0
12, 360720, Note_on_c, 7, 38, 77
12, 360804, Note_on_c, 7, 38, 0
12, 360840, Note_on_c, 7, 38, 77
12, 360924, Note_on_c, 7, 38, 0
12, 360960, Note_on_c, 7, 43, 77
12, 361344, Note_on_c, 7, 43, 0
12, 361800, Note_on_c, 7, 50, 77
12, 361896, Note_on_c, 7, 50, 0
12, 361920, Note_on_c, 7, 48, 77
12, 362004, Note_on_c, 7, 48, 0
12, 362040, Note_on_c, 7, 46, 77
12, 362124, Note_on_c, 7, 46, 0
12, 362160, Note_on_c, 7, 45, 77
12, 362244, Note_on_c, 7, 45, 0
12, 362280, Note_on_c, 7, 43, 77
12, 362364, Note_on_c, 7, 43, 0
12, 362400, Note_on_c, 7, 42, 77
12, 362484, Note_on_c, 7, 42, 0
12, 362520, Note_on_c, 7, 39, 77
12, 362604, Note_on_c, 7, 39, 0
12, 362640, Note_on_c, 7, 38, 77
12, 362724, Note_on_c, 7, 38, 0
12, 362760, Note_on_c, 7, 36, 77
12, 362844, Note_on_c, 7, 36, 0
12, 362880, Note_on_c, 7, 34, 77
12, 363024, Note_on_c, 7, 34, 0
12, 363120, Note_on_c, 7, 34, 77
12, 363264, Note_on_c, 7, 34, 0
12, 363360, Note_on_c, 7, 36, 77
12, 363504, Note_on_c, 7, 36, 0
12, 363600, Note_on_c, 7, 38, 77
12, 363744, Note_on_c, 7, 38, 0
12, 363840, Note_on_c, 7, 43, 77
12, 363924, Note_on_c, 7, 43, 0
12, 363960, Note_on_c, 7, 38, 77
12, 364044, Note_on_c, 7, 38, 0
12, 364080, Note_on_c, 7, 46, 77
12, 364164, Note_on_c, 7, 46, 0
12, 364200, Note_on_c, 7, 45, 77
12, 364284, Note_on_c, 7, 45, 0
12, 364320, Note_on_c, 7, 43, 77
12, 364404, Note_on_c, 7, 43, 0
12, 364440, Note_on_c, 7, 41, 77
12, 364524, Note_on_c, 7, 41, 0
12, 364560, Note_on_c, 7, 39, 77
12, 364644, Note_on_c, 7, 39, 0
12, 364680, Note_on_c, 7, 38, 77
12, 364764, Note_on_c, 7, 38, 0
12, 364800, Note_on_c, 7, 37, 77
12, 364884, Note_on_c, 7, 37, 0
12, 364920, Note_on_c, 7, 40, 77
12, 365004, Note_on_c, 7, 40, 0
12, 365040, Note_on_c, 7, 45, 77
12, 365124, Note_on_c, 7, 45, 0
12, 365160, Note_on_c, 7, 43, 77
12, 365244, Note_on_c, 7, 43, 0
12, 365280, Note_on_c, 7, 42, 77
12, 365364, Note_on_c, 7, 42, 0
12, 365400, Note_on_c, 7, 39, 77
12, 365484, Note_on_c, 7, 39, 0
12, 365520, Note_on_c, 7, 38, 77
12, 365604, Note_on_c, 7, 38, 0
12, 365640, Note_on_c, 7, 36, 77
12, 365724, Note_on_c, 7, 36, 0
12, 365760, Note_on_c, 7, 34, 77
12, 366000, Note_on_c, 7, 34, 0
12, 366180, Note_on_c, 7, 35, 89
12, 366228, Note_on_c, 7, 35, 0
12, 366240, Note_on_c, 7, 35, 77
12, 366480, Note_on_c, 7, 35, 0
12, 366660, Note_on_c, 7, 36, 89
12, 366708, Note_on_c, 7, 36, 0
12, 366720, Note_on_c, 7, 36, 77
12, 366960, Note_on_c, 7, 36, 0
12, 367140, Note_on_c, 7, 37, 89
12, 367188, Note_on_c, 7, 37, 0
12, 367200, Note_on_c, 7, 37, 77
12, 367440, Note_on_c, 7, 37, 0
12, 367620, Note_on_c, 7, 38, 89
12, 367668, Note_on_c, 7, 38, 0
12, 367680, Note_on_c, 7, 38, 77
12, 367920, Note_on_c, 7, 38, 0
12, 368100, Note_on_c, 7, 41, 89
12, 368148, Note_on_c, 7, 41, 0
12, 368160, Note_on_c, 7, 41, 77
12, 368400, Note_on_c, 7, 41, 0
12, 368580, Note_on_c, 7, 40, 89
12, 368628, Note_on_c, 7, 40, 0
12, 368640, Note_on_c, 7, 40, 77
12, 368880, Note_on_c, 7, 40, 0
12, 369060, Note_on_c, 7, 39, 89
12, 369108, Note_on_c, 7, 39, 0
12, 369120, Note_on_c, 7, 39, 77
12, 369360, Note_on_c, 7, 39, 0
12, 371520, Note_on_c, 7, 31, 45
12, 372000, Note_on_c, 7, 31, 0
12, 372000, Note_on_c, 7, 35, 45
12, 372480, Note_on_c, 7, 35, 0
12, 372480, Note_on_c, 7, 38, 45
12, 372960, Note_on_c, 7, 38, 0
12, 372960, Note_on_c, 7, 35, 45
12, 373440, Note_on_c, 7, 35, 0
12, 373440, Note_on_c, 7, 31, 45
12, 373920, Note_on_c, 7, 31, 0
12, 373920, Note_on_c, 7, 36, 45
12, 374400, Note_on_c, 7, 36, 0
12, 374400, Note_on_c, 7, 39, 45
12, 374880, Note_on_c, 7, 39, 0
12, 374880, Note_on_c, 7, 36, 45
12, 375360, Note_on_c, 7, 36, 0
12, 375360, Note_on_c, 7, 31, 45
12, 375840, Note_on_c, 7, 31, 0
12, 375840, Note_on_c, 7, 36, 45
12, 376320, Note_on_c, 7, 36, 0
12, 376320, Note_on_c, 7, 42, 45
12, 376800, Note_on_c, 7, 42, 0
12, 376800, Note_on_c, 7, 36, 45
12, 377280, Note_on_c, 7, 36, 0
12, 377280, Note_on_c, 7, 31, 77
12, 377520, Note_on_c, 7, 31, 0
12, 377760, Note_on_c, 7, 38, 77
12, 378000, Note_on_c, 7, 38, 0
12, 378240, Note_on_c, 7, 43, 77
12, 378480, Note_on_c, 7, 43, 0
12, 378720, Note_on_c, 7, 38, 77
12, 378960, Note_on_c, 7, 38, 0
12, 379200, Note_on_c, 7, 43, 77
12, 379440, Note_on_c, 7, 43, 0
12, 379680, Note_on_c, 7, 38, 77
12, 379920, Note_on_c, 7, 38, 0
12, 380160, Note_on_c, 7, 43, 77
12, 380352, Note_on_c, 7, 43, 0
12, 380400, Note_on_c, 7, 38, 77
12, 380592, Note_on_c, 7, 38, 0
12, 380640, Note_on_c, 7, 43, 77
12, 380832, Note_on_c, 7, 43, 0
12, 380880, Note_on_c, 7, 38, 77
12, 381072, Note_on_c, 7, 38, 0
12, 381120, Note_on_c, 7, 43, 77
12, 381480, Note_on_c, 7, 43, 0
12, 382080, Note_on_c, 7, 31, 77
12, 382320, Note_on_c, 7, 31, 0
12, 382560, Note_on_c, 7, 43, 77
12, 382800, Note_on_c, 7, 43, 0
12, 383040, Note_on_c, 7, 31, 77
12, 383760, Note_on_c, 7, 31, 0
12, 383760, End_track
13, 0, Start_track
13, 0, MIDI_port, 0
13, 0, Title_t, "Sequenced by Jason M. Stone"
13, 0, End_track
14, 0, Start_track
14, 0, MIDI_port, 0
14, 0, Title_t, " 1995 by Jason M. Stone"
14, 0, End_track
15, 0, Start_track
15, 0, MIDI_port, 0
15, 0, Title_t, "The score used for this sequence courtesy of Edwin F. Kalmus"
15, 0, End_track
0, 0, End_of_file
