0, 0, Header, 1, 17, 480
1, 0, Start_track
1, 0, Title_t, "untitled"
1, 0, Text_t, "Canon a 2 Super Thema Regium\012"
1, 0, Text_t, "Voce 1  \012"
1, 0, Text_t, "Voce 2  \012"
1, 0, SMPTE_offset, 32, 0, 3, 15, 0
1, 0, Time_signature, 4, 2, 24, 8
1, 0, Key_signature, -3, "major"
1, 0, Tempo, 363636
1, 67200, Tempo, 363636
1, 67216, Tempo, 364742
1, 67232, Tempo, 365854
1, 67248, Tempo, 366972
1, 67268, Tempo, 368098
1, 67280, Tempo, 369231
1, 67296, Tempo, 370370
1, 67312, Tempo, 371517
1, 67328, Tempo, 372671
1, 67348, Tempo, 373832
1, 67360, Tempo, 375000
1, 67376, Tempo, 376176
1, 67392, Tempo, 377358
1, 67408, Tempo, 378549
1, 67428, Tempo, 379747
1, 67440, Tempo, 380952
1, 67456, Tempo, 382166
1, 67472, Tempo, 383387
1, 67488, Tempo, 384615
1, 67508, Tempo, 385852
1, 67520, Tempo, 387097
1, 67536, Tempo, 388350
1, 67552, Tempo, 389610
1, 67568, Tempo, 390879
1, 67588, Tempo, 392157
1, 67600, Tempo, 393443
1, 67616, Tempo, 394737
1, 67632, Tempo, 396040
1, 67648, Tempo, 397351
1, 67668, Tempo, 398671
1, 67680, Tempo, 400000
1, 67696, Tempo, 401338
1, 67712, Tempo, 402685
1, 67728, Tempo, 404040
1, 67748, Tempo, 405405
1, 67760, Tempo, 406780
1, 67776, Tempo, 408163
1, 67792, Tempo, 409556
1, 67808, Tempo, 410959
1, 67828, Tempo, 412371
1, 67840, Tempo, 413793
1, 67856, Tempo, 415225
1, 67872, Tempo, 416667
1, 67888, Tempo, 418118
1, 67908, Tempo, 419580
1, 67920, Tempo, 421053
1, 67936, Tempo, 422535
1, 67952, Tempo, 424028
1, 67968, Tempo, 425532
1, 67988, Tempo, 427046
1, 68000, Tempo, 428571
1, 68016, Tempo, 430108
1, 68032, Tempo, 431655
1, 68048, Tempo, 433213
1, 68068, Tempo, 434783
1, 68080, Tempo, 436364
1, 68096, Tempo, 437956
1, 68112, Tempo, 439560
1, 68128, Tempo, 441176
1, 68148, Tempo, 442804
1, 68160, Tempo, 444444
1, 68176, Tempo, 446097
1, 68192, Tempo, 447761
1, 68208, Tempo, 449438
1, 68228, Tempo, 451128
1, 68240, Tempo, 452830
1, 68256, Tempo, 454545
1, 68272, Tempo, 456274
1, 68288, Tempo, 458015
1, 68308, Tempo, 459770
1, 68320, Tempo, 461538
1, 68336, Tempo, 463320
1, 68352, Tempo, 465116
1, 68368, Tempo, 466926
1, 68388, Tempo, 468750
1, 68400, Tempo, 470588
1, 68416, Tempo, 472441
1, 68432, Tempo, 474308
1, 68448, Tempo, 476190
1, 68468, Tempo, 478088
1, 68480, Tempo, 480000
1, 68496, Tempo, 481928
1, 68512, Tempo, 483871
1, 68528, Tempo, 485830
1, 68548, Tempo, 487805
1, 68560, Tempo, 489796
1, 68576, Tempo, 491803
1, 68592, Tempo, 493827
1, 68608, Tempo, 495868
1, 68628, Tempo, 497925
1, 68640, Tempo, 2033898
1, 68640, End_track
2, 0, Start_track
2, 0, MIDI_port, 0
2, 0, Title_t, "Harpsichord"
2, 0, Program_c, 0, 6
2, 0, Control_c, 0, 7, 100
2, 0, Control_c, 0, 10, 96
2, 0, Note_on_c, 0, 60, 100
2, 960, Note_on_c, 0, 60, 0
2, 960, Note_on_c, 0, 63, 100
2, 1920, Note_on_c, 0, 63, 0
2, 1920, Note_on_c, 0, 67, 100
2, 2880, Note_on_c, 0, 67, 0
2, 2880, Note_on_c, 0, 68, 100
2, 3840, Note_on_c, 0, 68, 0
2, 3840, Note_on_c, 0, 59, 100
2, 4800, Note_on_c, 0, 59, 0
2, 5280, Note_on_c, 0, 67, 100
2, 6240, Note_on_c, 0, 67, 0
2, 6240, Note_on_c, 0, 66, 100
2, 7200, Note_on_c, 0, 66, 0
2, 7200, Note_on_c, 0, 65, 100
2, 8160, Note_on_c, 0, 65, 0
2, 8160, Note_on_c, 0, 64, 100
2, 9120, Note_on_c, 0, 64, 0
2, 9120, Note_on_c, 0, 63, 100
2, 10080, Note_on_c, 0, 63, 0
2, 10080, Note_on_c, 0, 62, 100
2, 10560, Note_on_c, 0, 62, 0
2, 10560, Note_on_c, 0, 61, 100
2, 11040, Note_on_c, 0, 61, 0
2, 11040, Note_on_c, 0, 60, 100
2, 11520, Note_on_c, 0, 60, 0
2, 11520, Note_on_c, 0, 59, 100
2, 12000, Note_on_c, 0, 59, 0
2, 12000, Note_on_c, 0, 55, 100
2, 12480, Note_on_c, 0, 55, 0
2, 12480, Note_on_c, 0, 60, 100
2, 12960, Note_on_c, 0, 60, 0
2, 12960, Note_on_c, 0, 65, 100
2, 13440, Note_on_c, 0, 65, 0
2, 13440, Note_on_c, 0, 63, 100
2, 14400, Note_on_c, 0, 63, 0
2, 14400, Note_on_c, 0, 62, 100
2, 15360, Note_on_c, 0, 62, 0
2, 15360, Note_on_c, 0, 60, 100
2, 16320, Note_on_c, 0, 60, 0
2, 16320, Note_on_c, 0, 63, 100
2, 17280, Note_on_c, 0, 63, 0
2, 17280, Note_on_c, 0, 67, 100
2, 17520, Note_on_c, 0, 67, 0
2, 17520, Note_on_c, 0, 65, 100
2, 17760, Note_on_c, 0, 65, 0
2, 17760, Note_on_c, 0, 67, 100
2, 18000, Note_on_c, 0, 67, 0
2, 18000, Note_on_c, 0, 72, 100
2, 18240, Note_on_c, 0, 72, 0
2, 18240, Note_on_c, 0, 67, 100
2, 18480, Note_on_c, 0, 67, 0
2, 18480, Note_on_c, 0, 63, 100
2, 18720, Note_on_c, 0, 63, 0
2, 18720, Note_on_c, 0, 62, 100
2, 18960, Note_on_c, 0, 62, 0
2, 18960, Note_on_c, 0, 63, 100
2, 19200, Note_on_c, 0, 63, 0
2, 19200, Note_on_c, 0, 65, 100
2, 19440, Note_on_c, 0, 65, 0
2, 19440, Note_on_c, 0, 67, 100
2, 19680, Note_on_c, 0, 67, 0
2, 19680, Note_on_c, 0, 69, 100
2, 19920, Note_on_c, 0, 69, 0
2, 19920, Note_on_c, 0, 71, 100
2, 20160, Note_on_c, 0, 71, 0
2, 20160, Note_on_c, 0, 72, 100
2, 20400, Note_on_c, 0, 72, 0
2, 20400, Note_on_c, 0, 63, 100
2, 20640, Note_on_c, 0, 63, 0
2, 20640, Note_on_c, 0, 65, 100
2, 20880, Note_on_c, 0, 65, 0
2, 20880, Note_on_c, 0, 67, 100
2, 21120, Note_on_c, 0, 67, 0
2, 21120, Note_on_c, 0, 68, 100
2, 21360, Note_on_c, 0, 68, 0
2, 21360, Note_on_c, 0, 62, 100
2, 21600, Note_on_c, 0, 62, 0
2, 21600, Note_on_c, 0, 63, 100
2, 21840, Note_on_c, 0, 63, 0
2, 21840, Note_on_c, 0, 65, 100
2, 22080, Note_on_c, 0, 65, 0
2, 22080, Note_on_c, 0, 67, 100
2, 22320, Note_on_c, 0, 67, 0
2, 22320, Note_on_c, 0, 65, 100
2, 22560, Note_on_c, 0, 65, 0
2, 22560, Note_on_c, 0, 63, 100
2, 22800, Note_on_c, 0, 63, 0
2, 22800, Note_on_c, 0, 62, 100
2, 23040, Note_on_c, 0, 62, 0
2, 23040, Note_on_c, 0, 63, 100
2, 23280, Note_on_c, 0, 63, 0
2, 23280, Note_on_c, 0, 65, 100
2, 23520, Note_on_c, 0, 65, 0
2, 23520, Note_on_c, 0, 67, 100
2, 23760, Note_on_c, 0, 67, 0
2, 23760, Note_on_c, 0, 68, 100
2, 24000, Note_on_c, 0, 68, 0
2, 24000, Note_on_c, 0, 70, 100
2, 24240, Note_on_c, 0, 70, 0
2, 24240, Note_on_c, 0, 68, 100
2, 24480, Note_on_c, 0, 68, 0
2, 24480, Note_on_c, 0, 67, 100
2, 24720, Note_on_c, 0, 67, 0
2, 24720, Note_on_c, 0, 65, 100
2, 24960, Note_on_c, 0, 65, 0
2, 24960, Note_on_c, 0, 67, 100
2, 25200, Note_on_c, 0, 67, 0
2, 25200, Note_on_c, 0, 68, 100
2, 25440, Note_on_c, 0, 68, 0
2, 25440, Note_on_c, 0, 70, 100
2, 25680, Note_on_c, 0, 70, 0
2, 25680, Note_on_c, 0, 72, 100
2, 25920, Note_on_c, 0, 72, 0
2, 25920, Note_on_c, 0, 73, 100
2, 26160, Note_on_c, 0, 73, 0
2, 26160, Note_on_c, 0, 70, 100
2, 26400, Note_on_c, 0, 70, 0
2, 26400, Note_on_c, 0, 68, 100
2, 26640, Note_on_c, 0, 68, 0
2, 26640, Note_on_c, 0, 67, 100
2, 26880, Note_on_c, 0, 67, 0
2, 26880, Note_on_c, 0, 69, 100
2, 27120, Note_on_c, 0, 69, 0
2, 27120, Note_on_c, 0, 71, 100
2, 27360, Note_on_c, 0, 71, 0
2, 27360, Note_on_c, 0, 72, 100
2, 27600, Note_on_c, 0, 72, 0
2, 27600, Note_on_c, 0, 74, 100
2, 27840, Note_on_c, 0, 74, 0
2, 27840, Note_on_c, 0, 75, 100
2, 28080, Note_on_c, 0, 75, 0
2, 28080, Note_on_c, 0, 72, 100
2, 28320, Note_on_c, 0, 72, 0
2, 28320, Note_on_c, 0, 71, 100
2, 28560, Note_on_c, 0, 71, 0
2, 28560, Note_on_c, 0, 69, 100
2, 28800, Note_on_c, 0, 69, 0
2, 28800, Note_on_c, 0, 71, 100
2, 29040, Note_on_c, 0, 71, 0
2, 29040, Note_on_c, 0, 72, 100
2, 29280, Note_on_c, 0, 72, 0
2, 29280, Note_on_c, 0, 74, 100
2, 29520, Note_on_c, 0, 74, 0
2, 29520, Note_on_c, 0, 75, 100
2, 29760, Note_on_c, 0, 75, 0
2, 29760, Note_on_c, 0, 77, 100
2, 30000, Note_on_c, 0, 77, 0
2, 30000, Note_on_c, 0, 74, 100
2, 30240, Note_on_c, 0, 74, 0
2, 30240, Note_on_c, 0, 67, 100
2, 30480, Note_on_c, 0, 67, 0
2, 30480, Note_on_c, 0, 74, 100
2, 30720, Note_on_c, 0, 74, 0
2, 30720, Note_on_c, 0, 72, 100
2, 30960, Note_on_c, 0, 72, 0
2, 30960, Note_on_c, 0, 74, 100
2, 31200, Note_on_c, 0, 74, 0
2, 31200, Note_on_c, 0, 75, 100
2, 31440, Note_on_c, 0, 75, 0
2, 31440, Note_on_c, 0, 77, 100
2, 31680, Note_on_c, 0, 77, 0
2, 31680, Note_on_c, 0, 75, 100
2, 31920, Note_on_c, 0, 75, 0
2, 31920, Note_on_c, 0, 74, 100
2, 32160, Note_on_c, 0, 74, 0
2, 32160, Note_on_c, 0, 72, 100
2, 32400, Note_on_c, 0, 72, 0
2, 32400, Note_on_c, 0, 71, 100
2, 32640, Note_on_c, 0, 71, 0
2, 32640, Note_on_c, 0, 72, 100
2, 33120, Note_on_c, 0, 72, 0
2, 33120, Note_on_c, 0, 67, 100
2, 33600, Note_on_c, 0, 67, 0
2, 33600, Note_on_c, 0, 63, 100
2, 34080, Note_on_c, 0, 63, 0
2, 34080, Note_on_c, 0, 60, 100
2, 34560, Note_on_c, 0, 60, 0
2, 34560, Note_on_c, 0, 60, 100
2, 35520, Note_on_c, 0, 60, 0
2, 35520, Note_on_c, 0, 63, 100
2, 36480, Note_on_c, 0, 63, 0
2, 36480, Note_on_c, 0, 67, 100
2, 37440, Note_on_c, 0, 67, 0
2, 37440, Note_on_c, 0, 68, 100
2, 38400, Note_on_c, 0, 68, 0
2, 38400, Note_on_c, 0, 59, 100
2, 39360, Note_on_c, 0, 59, 0
2, 39840, Note_on_c, 0, 67, 100
2, 40800, Note_on_c, 0, 67, 0
2, 40800, Note_on_c, 0, 66, 100
2, 41760, Note_on_c, 0, 66, 0
2, 41760, Note_on_c, 0, 65, 100
2, 42720, Note_on_c, 0, 65, 0
2, 42720, Note_on_c, 0, 64, 100
2, 43680, Note_on_c, 0, 64, 0
2, 43680, Note_on_c, 0, 63, 100
2, 44640, Note_on_c, 0, 63, 0
2, 44640, Note_on_c, 0, 62, 100
2, 45120, Note_on_c, 0, 62, 0
2, 45120, Note_on_c, 0, 61, 100
2, 45600, Note_on_c, 0, 61, 0
2, 45600, Note_on_c, 0, 60, 100
2, 46080, Note_on_c, 0, 60, 0
2, 46080, Note_on_c, 0, 59, 100
2, 46560, Note_on_c, 0, 59, 0
2, 46560, Note_on_c, 0, 55, 100
2, 47040, Note_on_c, 0, 55, 0
2, 47040, Note_on_c, 0, 60, 100
2, 47520, Note_on_c, 0, 60, 0
2, 47520, Note_on_c, 0, 65, 100
2, 48000, Note_on_c, 0, 65, 0
2, 48000, Note_on_c, 0, 63, 100
2, 48960, Note_on_c, 0, 63, 0
2, 48960, Note_on_c, 0, 62, 100
2, 49920, Note_on_c, 0, 62, 0
2, 49920, Note_on_c, 0, 60, 100
2, 50880, Note_on_c, 0, 60, 0
2, 50880, Note_on_c, 0, 63, 100
2, 51840, Note_on_c, 0, 63, 0
2, 51840, Note_on_c, 0, 67, 100
2, 52080, Note_on_c, 0, 67, 0
2, 52080, Note_on_c, 0, 65, 100
2, 52320, Note_on_c, 0, 65, 0
2, 52320, Note_on_c, 0, 67, 100
2, 52560, Note_on_c, 0, 67, 0
2, 52560, Note_on_c, 0, 72, 100
2, 52800, Note_on_c, 0, 72, 0
2, 52800, Note_on_c, 0, 67, 100
2, 53040, Note_on_c, 0, 67, 0
2, 53040, Note_on_c, 0, 63, 100
2, 53280, Note_on_c, 0, 63, 0
2, 53280, Note_on_c, 0, 62, 100
2, 53520, Note_on_c, 0, 62, 0
2, 53520, Note_on_c, 0, 63, 100
2, 53760, Note_on_c, 0, 63, 0
2, 53760, Note_on_c, 0, 65, 100
2, 54000, Note_on_c, 0, 65, 0
2, 54000, Note_on_c, 0, 67, 100
2, 54240, Note_on_c, 0, 67, 0
2, 54240, Note_on_c, 0, 69, 100
2, 54480, Note_on_c, 0, 69, 0
2, 54480, Note_on_c, 0, 71, 100
2, 54720, Note_on_c, 0, 71, 0
2, 54720, Note_on_c, 0, 72, 100
2, 54960, Note_on_c, 0, 72, 0
2, 54960, Note_on_c, 0, 63, 100
2, 55200, Note_on_c, 0, 63, 0
2, 55200, Note_on_c, 0, 65, 100
2, 55440, Note_on_c, 0, 65, 0
2, 55440, Note_on_c, 0, 67, 100
2, 55680, Note_on_c, 0, 67, 0
2, 55680, Note_on_c, 0, 68, 100
2, 55920, Note_on_c, 0, 68, 0
2, 55920, Note_on_c, 0, 62, 100
2, 56160, Note_on_c, 0, 62, 0
2, 56160, Note_on_c, 0, 63, 100
2, 56400, Note_on_c, 0, 63, 0
2, 56400, Note_on_c, 0, 65, 100
2, 56640, Note_on_c, 0, 65, 0
2, 56640, Note_on_c, 0, 67, 100
2, 56880, Note_on_c, 0, 67, 0
2, 56880, Note_on_c, 0, 65, 100
2, 57120, Note_on_c, 0, 65, 0
2, 57120, Note_on_c, 0, 63, 100
2, 57360, Note_on_c, 0, 63, 0
2, 57360, Note_on_c, 0, 62, 100
2, 57600, Note_on_c, 0, 62, 0
2, 57600, Note_on_c, 0, 63, 100
2, 57840, Note_on_c, 0, 63, 0
2, 57840, Note_on_c, 0, 65, 100
2, 58080, Note_on_c, 0, 65, 0
2, 58080, Note_on_c, 0, 67, 100
2, 58320, Note_on_c, 0, 67, 0
2, 58320, Note_on_c, 0, 68, 100
2, 58560, Note_on_c, 0, 68, 0
2, 58560, Note_on_c, 0, 70, 100
2, 58800, Note_on_c, 0, 70, 0
2, 58800, Note_on_c, 0, 68, 100
2, 59040, Note_on_c, 0, 68, 0
2, 59040, Note_on_c, 0, 67, 100
2, 59280, Note_on_c, 0, 67, 0
2, 59280, Note_on_c, 0, 65, 100
2, 59520, Note_on_c, 0, 65, 0
2, 59520, Note_on_c, 0, 67, 100
2, 59760, Note_on_c, 0, 67, 0
2, 59760, Note_on_c, 0, 68, 100
2, 60000, Note_on_c, 0, 68, 0
2, 60000, Note_on_c, 0, 70, 100
2, 60240, Note_on_c, 0, 70, 0
2, 60240, Note_on_c, 0, 72, 100
2, 60480, Note_on_c, 0, 72, 0
2, 60480, Note_on_c, 0, 73, 100
2, 60720, Note_on_c, 0, 73, 0
2, 60720, Note_on_c, 0, 70, 100
2, 60960, Note_on_c, 0, 70, 0
2, 60960, Note_on_c, 0, 68, 100
2, 61200, Note_on_c, 0, 68, 0
2, 61200, Note_on_c, 0, 67, 100
2, 61440, Note_on_c, 0, 67, 0
2, 61440, Note_on_c, 0, 69, 100
2, 61680, Note_on_c, 0, 69, 0
2, 61680, Note_on_c, 0, 71, 100
2, 61920, Note_on_c, 0, 71, 0
2, 61920, Note_on_c, 0, 72, 100
2, 62160, Note_on_c, 0, 72, 0
2, 62160, Note_on_c, 0, 74, 100
2, 62400, Note_on_c, 0, 74, 0
2, 62400, Note_on_c, 0, 75, 100
2, 62640, Note_on_c, 0, 75, 0
2, 62640, Note_on_c, 0, 72, 100
2, 62880, Note_on_c, 0, 72, 0
2, 62880, Note_on_c, 0, 71, 100
2, 63120, Note_on_c, 0, 71, 0
2, 63120, Note_on_c, 0, 69, 100
2, 63360, Note_on_c, 0, 69, 0
2, 63360, Note_on_c, 0, 71, 100
2, 63600, Note_on_c, 0, 71, 0
2, 63600, Note_on_c, 0, 72, 100
2, 63840, Note_on_c, 0, 72, 0
2, 63840, Note_on_c, 0, 74, 100
2, 64080, Note_on_c, 0, 74, 0
2, 64080, Note_on_c, 0, 75, 100
2, 64320, Note_on_c, 0, 75, 0
2, 64320, Note_on_c, 0, 77, 100
2, 64560, Note_on_c, 0, 77, 0
2, 64560, Note_on_c, 0, 74, 100
2, 64800, Note_on_c, 0, 74, 0
2, 64800, Note_on_c, 0, 67, 100
2, 65040, Note_on_c, 0, 67, 0
2, 65040, Note_on_c, 0, 74, 100
2, 65280, Note_on_c, 0, 74, 0
2, 65280, Note_on_c, 0, 72, 100
2, 65520, Note_on_c, 0, 72, 0
2, 65520, Note_on_c, 0, 74, 100
2, 65760, Note_on_c, 0, 74, 0
2, 65760, Note_on_c, 0, 75, 100
2, 66000, Note_on_c, 0, 75, 0
2, 66000, Note_on_c, 0, 77, 100
2, 66240, Note_on_c, 0, 77, 0
2, 66240, Note_on_c, 0, 75, 100
2, 66480, Note_on_c, 0, 75, 0
2, 66480, Note_on_c, 0, 74, 100
2, 66720, Note_on_c, 0, 74, 0
2, 66720, Note_on_c, 0, 72, 100
2, 66960, Note_on_c, 0, 72, 0
2, 66960, Note_on_c, 0, 71, 100
2, 67200, Note_on_c, 0, 71, 0
2, 67200, Note_on_c, 0, 72, 100
2, 67680, Note_on_c, 0, 72, 0
2, 67680, Note_on_c, 0, 67, 100
2, 68160, Note_on_c, 0, 67, 0
2, 68160, Note_on_c, 0, 63, 100
2, 68640, Note_on_c, 0, 63, 0
2, 68640, Note_on_c, 0, 60, 100
2, 69120, Note_on_c, 0, 60, 0
2, 69120, End_track
3, 0, Start_track
3, 0, MIDI_port, 0
3, 0, Title_t, "--------------------------------------"
3, 0, Program_c, 1, 6
3, 0, Control_c, 1, 7, 100
3, 0, Control_c, 1, 10, 32
3, 1, Note_on_c, 1, 60, 100
3, 481, Note_on_c, 1, 60, 0
3, 481, Note_on_c, 1, 63, 100
3, 961, Note_on_c, 1, 63, 0
3, 961, Note_on_c, 1, 67, 100
3, 1441, Note_on_c, 1, 67, 0
3, 1441, Note_on_c, 1, 72, 100
3, 1921, Note_on_c, 1, 72, 0
3, 1921, Note_on_c, 1, 71, 100
3, 2161, Note_on_c, 1, 71, 0
3, 2161, Note_on_c, 1, 72, 100
3, 2401, Note_on_c, 1, 72, 0
3, 2401, Note_on_c, 1, 74, 100
3, 2641, Note_on_c, 1, 74, 0
3, 2641, Note_on_c, 1, 75, 100
3, 2881, Note_on_c, 1, 75, 0
3, 2881, Note_on_c, 1, 77, 100
3, 3121, Note_on_c, 1, 77, 0
3, 3121, Note_on_c, 1, 75, 100
3, 3361, Note_on_c, 1, 75, 0
3, 3361, Note_on_c, 1, 74, 100
3, 3601, Note_on_c, 1, 74, 0
3, 3601, Note_on_c, 1, 72, 100
3, 3841, Note_on_c, 1, 72, 0
3, 3841, Note_on_c, 1, 74, 100
3, 4081, Note_on_c, 1, 74, 0
3, 4081, Note_on_c, 1, 67, 100
3, 4321, Note_on_c, 1, 67, 0
3, 4321, Note_on_c, 1, 74, 100
3, 4561, Note_on_c, 1, 74, 0
3, 4561, Note_on_c, 1, 77, 100
3, 4801, Note_on_c, 1, 77, 0
3, 4801, Note_on_c, 1, 75, 100
3, 5041, Note_on_c, 1, 75, 0
3, 5041, Note_on_c, 1, 74, 100
3, 5281, Note_on_c, 1, 74, 0
3, 5281, Note_on_c, 1, 72, 100
3, 5521, Note_on_c, 1, 72, 0
3, 5521, Note_on_c, 1, 71, 100
3, 5761, Note_on_c, 1, 71, 0
3, 5761, Note_on_c, 1, 69, 100
3, 6001, Note_on_c, 1, 69, 0
3, 6001, Note_on_c, 1, 71, 100
3, 6241, Note_on_c, 1, 71, 0
3, 6241, Note_on_c, 1, 72, 100
3, 6481, Note_on_c, 1, 72, 0
3, 6481, Note_on_c, 1, 75, 100
3, 6721, Note_on_c, 1, 75, 0
3, 6721, Note_on_c, 1, 74, 100
3, 6961, Note_on_c, 1, 74, 0
3, 6961, Note_on_c, 1, 72, 100
3, 7201, Note_on_c, 1, 72, 0
3, 7201, Note_on_c, 1, 71, 100
3, 7441, Note_on_c, 1, 71, 0
3, 7441, Note_on_c, 1, 69, 100
3, 7681, Note_on_c, 1, 69, 0
3, 7681, Note_on_c, 1, 67, 100
3, 7921, Note_on_c, 1, 67, 0
3, 7921, Note_on_c, 1, 68, 100
3, 8161, Note_on_c, 1, 68, 0
3, 8161, Note_on_c, 1, 70, 100
3, 8401, Note_on_c, 1, 70, 0
3, 8401, Note_on_c, 1, 73, 100
3, 8641, Note_on_c, 1, 73, 0
3, 8641, Note_on_c, 1, 72, 100
3, 8881, Note_on_c, 1, 72, 0
3, 8881, Note_on_c, 1, 70, 100
3, 9121, Note_on_c, 1, 70, 0
3, 9121, Note_on_c, 1, 68, 100
3, 9361, Note_on_c, 1, 68, 0
3, 9361, Note_on_c, 1, 67, 100
3, 9601, Note_on_c, 1, 67, 0
3, 9601, Note_on_c, 1, 65, 100
3, 9841, Note_on_c, 1, 65, 0
3, 9841, Note_on_c, 1, 67, 100
3, 10081, Note_on_c, 1, 67, 0
3, 10081, Note_on_c, 1, 68, 100
3, 10321, Note_on_c, 1, 68, 0
3, 10321, Note_on_c, 1, 70, 100
3, 10561, Note_on_c, 1, 70, 0
3, 10561, Note_on_c, 1, 68, 100
3, 10801, Note_on_c, 1, 68, 0
3, 10801, Note_on_c, 1, 67, 100
3, 11041, Note_on_c, 1, 67, 0
3, 11041, Note_on_c, 1, 65, 100
3, 11281, Note_on_c, 1, 65, 0
3, 11281, Note_on_c, 1, 63, 100
3, 11521, Note_on_c, 1, 63, 0
3, 11521, Note_on_c, 1, 62, 100
3, 11761, Note_on_c, 1, 62, 0
3, 11761, Note_on_c, 1, 63, 100
3, 12001, Note_on_c, 1, 63, 0
3, 12001, Note_on_c, 1, 65, 100
3, 12241, Note_on_c, 1, 65, 0
3, 12241, Note_on_c, 1, 67, 100
3, 12481, Note_on_c, 1, 67, 0
3, 12481, Note_on_c, 1, 65, 100
3, 12721, Note_on_c, 1, 65, 0
3, 12721, Note_on_c, 1, 63, 100
3, 12961, Note_on_c, 1, 63, 0
3, 12961, Note_on_c, 1, 62, 100
3, 13201, Note_on_c, 1, 62, 0
3, 13201, Note_on_c, 1, 68, 100
3, 13441, Note_on_c, 1, 68, 0
3, 13441, Note_on_c, 1, 67, 100
3, 13681, Note_on_c, 1, 67, 0
3, 13681, Note_on_c, 1, 65, 100
3, 13921, Note_on_c, 1, 65, 0
3, 13921, Note_on_c, 1, 63, 100
3, 14161, Note_on_c, 1, 63, 0
3, 14161, Note_on_c, 1, 72, 100
3, 14401, Note_on_c, 1, 72, 0
3, 14401, Note_on_c, 1, 71, 100
3, 14641, Note_on_c, 1, 71, 0
3, 14641, Note_on_c, 1, 69, 100
3, 14881, Note_on_c, 1, 69, 0
3, 14881, Note_on_c, 1, 67, 100
3, 15121, Note_on_c, 1, 67, 0
3, 15121, Note_on_c, 1, 65, 100
3, 15361, Note_on_c, 1, 65, 0
3, 15361, Note_on_c, 1, 63, 100
3, 15601, Note_on_c, 1, 63, 0
3, 15601, Note_on_c, 1, 62, 100
3, 15841, Note_on_c, 1, 62, 0
3, 15841, Note_on_c, 1, 63, 100
3, 16081, Note_on_c, 1, 63, 0
3, 16081, Note_on_c, 1, 67, 100
3, 16321, Note_on_c, 1, 67, 0
3, 16321, Note_on_c, 1, 72, 100
3, 16561, Note_on_c, 1, 72, 0
3, 16561, Note_on_c, 1, 67, 100
3, 16801, Note_on_c, 1, 67, 0
3, 16801, Note_on_c, 1, 65, 100
3, 17041, Note_on_c, 1, 65, 0
3, 17041, Note_on_c, 1, 67, 100
3, 17281, Note_on_c, 1, 67, 0
3, 17281, Note_on_c, 1, 63, 100
3, 18241, Note_on_c, 1, 63, 0
3, 18241, Note_on_c, 1, 60, 100
3, 19201, Note_on_c, 1, 60, 0
3, 19201, Note_on_c, 1, 62, 100
3, 20161, Note_on_c, 1, 62, 0
3, 20161, Note_on_c, 1, 63, 100
3, 21121, Note_on_c, 1, 63, 0
3, 21121, Note_on_c, 1, 65, 100
3, 21601, Note_on_c, 1, 65, 0
3, 21601, Note_on_c, 1, 60, 100
3, 22081, Note_on_c, 1, 60, 0
3, 22081, Note_on_c, 1, 55, 100
3, 22561, Note_on_c, 1, 55, 0
3, 22561, Note_on_c, 1, 59, 100
3, 23041, Note_on_c, 1, 59, 0
3, 23041, Note_on_c, 1, 60, 100
3, 23521, Note_on_c, 1, 60, 0
3, 23521, Note_on_c, 1, 61, 100
3, 24001, Note_on_c, 1, 61, 0
3, 24001, Note_on_c, 1, 62, 100
3, 24481, Note_on_c, 1, 62, 0
3, 24481, Note_on_c, 1, 63, 100
3, 25441, Note_on_c, 1, 63, 0
3, 25441, Note_on_c, 1, 64, 100
3, 26401, Note_on_c, 1, 64, 0
3, 26401, Note_on_c, 1, 65, 100
3, 27361, Note_on_c, 1, 65, 0
3, 27361, Note_on_c, 1, 66, 100
3, 28321, Note_on_c, 1, 66, 0
3, 28321, Note_on_c, 1, 67, 100
3, 29281, Note_on_c, 1, 67, 0
3, 29761, Note_on_c, 1, 59, 100
3, 30721, Note_on_c, 1, 59, 0
3, 30721, Note_on_c, 1, 68, 100
3, 31681, Note_on_c, 1, 68, 0
3, 31681, Note_on_c, 1, 67, 100
3, 32641, Note_on_c, 1, 67, 0
3, 32641, Note_on_c, 1, 63, 100
3, 33601, Note_on_c, 1, 63, 0
3, 33601, Note_on_c, 1, 60, 100
3, 34561, Note_on_c, 1, 60, 0
3, 34561, Note_on_c, 1, 60, 100
3, 35041, Note_on_c, 1, 60, 0
3, 35041, Note_on_c, 1, 63, 100
3, 35521, Note_on_c, 1, 63, 0
3, 35521, Note_on_c, 1, 67, 100
3, 36001, Note_on_c, 1, 67, 0
3, 36001, Note_on_c, 1, 72, 100
3, 36481, Note_on_c, 1, 72, 0
3, 36481, Note_on_c, 1, 71, 100
3, 36721, Note_on_c, 1, 71, 0
3, 36721, Note_on_c, 1, 72, 100
3, 36961, Note_on_c, 1, 72, 0
3, 36961, Note_on_c, 1, 74, 100
3, 37201, Note_on_c, 1, 74, 0
3, 37201, Note_on_c, 1, 75, 100
3, 37441, Note_on_c, 1, 75, 0
3, 37441, Note_on_c, 1, 77, 100
3, 37681, Note_on_c, 1, 77, 0
3, 37681, Note_on_c, 1, 75, 100
3, 37921, Note_on_c, 1, 75, 0
3, 37921, Note_on_c, 1, 74, 100
3, 38161, Note_on_c, 1, 74, 0
3, 38161, Note_on_c, 1, 72, 100
3, 38401, Note_on_c, 1, 72, 0
3, 38401, Note_on_c, 1, 74, 100
3, 38641, Note_on_c, 1, 74, 0
3, 38641, Note_on_c, 1, 67, 100
3, 38881, Note_on_c, 1, 67, 0
3, 38881, Note_on_c, 1, 74, 100
3, 39121, Note_on_c, 1, 74, 0
3, 39121, Note_on_c, 1, 77, 100
3, 39361, Note_on_c, 1, 77, 0
3, 39361, Note_on_c, 1, 75, 100
3, 39601, Note_on_c, 1, 75, 0
3, 39601, Note_on_c, 1, 74, 100
3, 39841, Note_on_c, 1, 74, 0
3, 39841, Note_on_c, 1, 72, 100
3, 40081, Note_on_c, 1, 72, 0
3, 40081, Note_on_c, 1, 71, 100
3, 40321, Note_on_c, 1, 71, 0
3, 40321, Note_on_c, 1, 69, 100
3, 40561, Note_on_c, 1, 69, 0
3, 40561, Note_on_c, 1, 71, 100
3, 40801, Note_on_c, 1, 71, 0
3, 40801, Note_on_c, 1, 72, 100
3, 41041, Note_on_c, 1, 72, 0
3, 41041, Note_on_c, 1, 75, 100
3, 41281, Note_on_c, 1, 75, 0
3, 41281, Note_on_c, 1, 74, 100
3, 41521, Note_on_c, 1, 74, 0
3, 41521, Note_on_c, 1, 72, 100
3, 41761, Note_on_c, 1, 72, 0
3, 41761, Note_on_c, 1, 71, 100
3, 42001, Note_on_c, 1, 71, 0
3, 42001, Note_on_c, 1, 69, 100
3, 42241, Note_on_c, 1, 69, 0
3, 42241, Note_on_c, 1, 67, 100
3, 42481, Note_on_c, 1, 67, 0
3, 42481, Note_on_c, 1, 68, 100
3, 42721, Note_on_c, 1, 68, 0
3, 42721, Note_on_c, 1, 70, 100
3, 42961, Note_on_c, 1, 70, 0
3, 42961, Note_on_c, 1, 73, 100
3, 43201, Note_on_c, 1, 73, 0
3, 43201, Note_on_c, 1, 72, 100
3, 43441, Note_on_c, 1, 72, 0
3, 43441, Note_on_c, 1, 70, 100
3, 43681, Note_on_c, 1, 70, 0
3, 43681, Note_on_c, 1, 68, 100
3, 43921, Note_on_c, 1, 68, 0
3, 43921, Note_on_c, 1, 67, 100
3, 44161, Note_on_c, 1, 67, 0
3, 44161, Note_on_c, 1, 65, 100
3, 44401, Note_on_c, 1, 65, 0
3, 44401, Note_on_c, 1, 67, 100
3, 44641, Note_on_c, 1, 67, 0
3, 44641, Note_on_c, 1, 68, 100
3, 44881, Note_on_c, 1, 68, 0
3, 44881, Note_on_c, 1, 70, 100
3, 45121, Note_on_c, 1, 70, 0
3, 45121, Note_on_c, 1, 68, 100
3, 45361, Note_on_c, 1, 68, 0
3, 45361, Note_on_c, 1, 67, 100
3, 45601, Note_on_c, 1, 67, 0
3, 45601, Note_on_c, 1, 65, 100
3, 45841, Note_on_c, 1, 65, 0
3, 45841, Note_on_c, 1, 63, 100
3, 46081, Note_on_c, 1, 63, 0
3, 46081, Note_on_c, 1, 62, 100
3, 46321, Note_on_c, 1, 62, 0
3, 46321, Note_on_c, 1, 63, 100
3, 46561, Note_on_c, 1, 63, 0
3, 46561, Note_on_c, 1, 65, 100
3, 46801, Note_on_c, 1, 65, 0
3, 46801, Note_on_c, 1, 67, 100
3, 47041, Note_on_c, 1, 67, 0
3, 47041, Note_on_c, 1, 65, 100
3, 47281, Note_on_c, 1, 65, 0
3, 47281, Note_on_c, 1, 63, 100
3, 47521, Note_on_c, 1, 63, 0
3, 47521, Note_on_c, 1, 62, 100
3, 47761, Note_on_c, 1, 62, 0
3, 47761, Note_on_c, 1, 68, 100
3, 48001, Note_on_c, 1, 68, 0
3, 48001, Note_on_c, 1, 67, 100
3, 48241, Note_on_c, 1, 67, 0
3, 48241, Note_on_c, 1, 65, 100
3, 48481, Note_on_c, 1, 65, 0
3, 48481, Note_on_c, 1, 63, 100
3, 48721, Note_on_c, 1, 63, 0
3, 48721, Note_on_c, 1, 72, 100
3, 48961, Note_on_c, 1, 72, 0
3, 48961, Note_on_c, 1, 71, 100
3, 49201, Note_on_c, 1, 71, 0
3, 49201, Note_on_c, 1, 69, 100
3, 49441, Note_on_c, 1, 69, 0
3, 49441, Note_on_c, 1, 67, 100
3, 49681, Note_on_c, 1, 67, 0
3, 49681, Note_on_c, 1, 65, 100
3, 49921, Note_on_c, 1, 65, 0
3, 49921, Note_on_c, 1, 63, 100
3, 50161, Note_on_c, 1, 63, 0
3, 50161, Note_on_c, 1, 62, 100
3, 50401, Note_on_c, 1, 62, 0
3, 50401, Note_on_c, 1, 63, 100
3, 50641, Note_on_c, 1, 63, 0
3, 50641, Note_on_c, 1, 67, 100
3, 50881, Note_on_c, 1, 67, 0
3, 50881, Note_on_c, 1, 72, 100
3, 51121, Note_on_c, 1, 72, 0
3, 51121, Note_on_c, 1, 67, 100
3, 51361, Note_on_c, 1, 67, 0
3, 51361, Note_on_c, 1, 65, 100
3, 51601, Note_on_c, 1, 65, 0
3, 51601, Note_on_c, 1, 67, 100
3, 51841, Note_on_c, 1, 67, 0
3, 51841, Note_on_c, 1, 63, 100
3, 52801, Note_on_c, 1, 63, 0
3, 52801, Note_on_c, 1, 60, 100
3, 53761, Note_on_c, 1, 60, 0
3, 53761, Note_on_c, 1, 62, 100
3, 54721, Note_on_c, 1, 62, 0
3, 54721, Note_on_c, 1, 63, 100
3, 55681, Note_on_c, 1, 63, 0
3, 55681, Note_on_c, 1, 65, 100
3, 56161, Note_on_c, 1, 65, 0
3, 56161, Note_on_c, 1, 60, 100
3, 56641, Note_on_c, 1, 60, 0
3, 56641, Note_on_c, 1, 55, 100
3, 57121, Note_on_c, 1, 55, 0
3, 57121, Note_on_c, 1, 59, 100
3, 57601, Note_on_c, 1, 59, 0
3, 57601, Note_on_c, 1, 60, 100
3, 58081, Note_on_c, 1, 60, 0
3, 58081, Note_on_c, 1, 61, 100
3, 58561, Note_on_c, 1, 61, 0
3, 58561, Note_on_c, 1, 62, 100
3, 59041, Note_on_c, 1, 62, 0
3, 59041, Note_on_c, 1, 63, 100
3, 60001, Note_on_c, 1, 63, 0
3, 60001, Note_on_c, 1, 64, 100
3, 60961, Note_on_c, 1, 64, 0
3, 60961, Note_on_c, 1, 65, 100
3, 61921, Note_on_c, 1, 65, 0
3, 61921, Note_on_c, 1, 66, 100
3, 62881, Note_on_c, 1, 66, 0
3, 62881, Note_on_c, 1, 67, 100
3, 63841, Note_on_c, 1, 67, 0
3, 64321, Note_on_c, 1, 59, 100
3, 65281, Note_on_c, 1, 59, 0
3, 65281, Note_on_c, 1, 68, 100
3, 66241, Note_on_c, 1, 68, 0
3, 66241, Note_on_c, 1, 67, 100
3, 67201, Note_on_c, 1, 67, 0
3, 67201, Note_on_c, 1, 63, 100
3, 68161, Note_on_c, 1, 63, 0
3, 68161, Note_on_c, 1, 60, 100
3, 69121, Note_on_c, 1, 60, 0
3, 69121, End_track
4, 0, Start_track
4, 0, MIDI_port, 0
4, 0, Title_t, "Johann Sebastian Bach  (1685-1750)"
4, 0, End_track
5, 0, Start_track
5, 0, MIDI_port, 0
5, 0, Title_t, "A Musical Offering - BWV 1079"
5, 0, End_track
6, 0, Start_track
6, 0, MIDI_port, 0
6, 0, Title_t, "--------------------------------------"
6, 0, End_track
7, 0, Start_track
7, 0, MIDI_port, 0
7, 0, Title_t, "Canon a 2, for instruments à cordes"
7, 0, End_track
8, 0, Start_track
8, 0, MIDI_port, 0
8, 0, Title_t, "--------------------------------------"
8, 0, End_track
9, 0, Start_track
9, 0, MIDI_port, 0
9, 0, Title_t, "Original sequence by an unknown author"
9, 0, End_track
10, 0, Start_track
10, 0, MIDI_port, 0
10, 0, Title_t, "Modified with Cakewalk Pro Audio by"
10, 0, End_track
11, 0, Start_track
11, 0, MIDI_port, 0
11, 0, Title_t, "David J. Grossman - dave@unpronounceable.com"
11, 0, End_track
12, 0, Start_track
12, 0, MIDI_port, 0
12, 0, Title_t, "This and other Bach MIDI files can be found at:"
12, 0, End_track
13, 0, Start_track
13, 0, MIDI_port, 0
13, 0, Title_t, "Dave's J.S. Bach Page"
13, 0, End_track
14, 0, Start_track
14, 0, MIDI_port, 0
14, 0, Title_t, "http://www.unpronounceable.com/bach"
14, 0, End_track
15, 0, Start_track
15, 0, MIDI_port, 0
15, 0, Title_t, "--------------------------------------"
15, 0, End_track
16, 0, Start_track
16, 0, MIDI_port, 0
16, 0, Title_t, "Original Filename: 1079-03.mid"
16, 0, End_track
17, 0, Start_track
17, 0, MIDI_port, 0
17, 0, Title_t, "Last Modified: February 28, 1998"
17, 0, End_track
0, 0, End_of_file
