0, 0, Header, 1, 17, 480
1, 0, Start_track
1, 0, Title_t, "untitled"
1, 0, SMPTE_offset, 96, 0, 3, 0, 0
1, 0, Time_signature, 9, 4, 6, 8
1, 0, Key_signature, -1, "major"
1, 0, Tempo, 600000
1, 4320, Marker_t, ":"
1, 27000, Marker_t, "?"
1, 39240, Marker_t, "?ornament"
1, 69120, Marker_t, "?appogiatura"
1, 72360, Marker_t, "??"
1, 86400, Marker_t, ":"
1, 168480, Marker_t, ":"
1, 192240, Tempo, 1200000
1, 192240, End_track
2, 0, Start_track
2, 0, MIDI_port, 0
2, 0, Program_c, 0, 56
2, 0, Control_c, 0, 7, 100
2, 0, Control_c, 0, 10, 96
2, 0, Note_on_c, 0, 69, 100
2, 360, Note_on_c, 0, 69, 0
2, 360, Note_on_c, 0, 62, 100
2, 480, Note_on_c, 0, 62, 0
2, 480, Note_on_c, 0, 61, 100
2, 600, Note_on_c, 0, 61, 0
2, 600, Note_on_c, 0, 62, 100
2, 720, Note_on_c, 0, 62, 0
2, 720, Note_on_c, 0, 64, 100
2, 840, Note_on_c, 0, 64, 0
2, 840, Note_on_c, 0, 62, 100
2, 960, Note_on_c, 0, 62, 0
2, 960, Note_on_c, 0, 64, 100
2, 1080, Note_on_c, 0, 64, 0
2, 1080, Note_on_c, 0, 65, 100
2, 1200, Note_on_c, 0, 65, 0
2, 1200, Note_on_c, 0, 64, 100
2, 1320, Note_on_c, 0, 64, 0
2, 1320, Note_on_c, 0, 65, 100
2, 1440, Note_on_c, 0, 65, 0
2, 1440, Note_on_c, 0, 67, 100
2, 1560, Note_on_c, 0, 67, 0
2, 1560, Note_on_c, 0, 65, 100
2, 1680, Note_on_c, 0, 65, 0
2, 1680, Note_on_c, 0, 67, 100
2, 1800, Note_on_c, 0, 67, 0
2, 1800, Note_on_c, 0, 69, 100
2, 1920, Note_on_c, 0, 69, 0
2, 1920, Note_on_c, 0, 67, 100
2, 2040, Note_on_c, 0, 67, 0
2, 2040, Note_on_c, 0, 69, 100
2, 2160, Note_on_c, 0, 69, 0
2, 2160, Note_on_c, 0, 70, 100
2, 2280, Note_on_c, 0, 70, 0
2, 2520, Note_on_c, 0, 69, 100
2, 2640, Note_on_c, 0, 69, 0
2, 2880, Note_on_c, 0, 67, 100
2, 3000, Note_on_c, 0, 67, 0
2, 3240, Note_on_c, 0, 67, 100
2, 3360, Note_on_c, 0, 67, 0
2, 3360, Note_on_c, 0, 65, 100
2, 3840, Note_on_c, 0, 65, 0
2, 3840, Note_on_c, 0, 64, 100
2, 3960, Note_on_c, 0, 64, 0
2, 3960, Note_on_c, 0, 65, 100
2, 4200, Note_on_c, 0, 65, 0
2, 4200, Note_on_c, 0, 67, 100
2, 4320, Note_on_c, 0, 67, 0
2, 4320, Note_on_c, 0, 69, 100
2, 4560, Note_on_c, 0, 69, 0
2, 4560, Note_on_c, 0, 79, 100
2, 4680, Note_on_c, 0, 79, 0
2, 4680, Note_on_c, 0, 77, 100
2, 4920, Note_on_c, 0, 77, 0
2, 4920, Note_on_c, 0, 69, 100
2, 5040, Note_on_c, 0, 69, 0
2, 5040, Note_on_c, 0, 67, 100
2, 5280, Note_on_c, 0, 67, 0
2, 5280, Note_on_c, 0, 76, 100
2, 5400, Note_on_c, 0, 76, 0
2, 5400, Note_on_c, 0, 74, 100
2, 5640, Note_on_c, 0, 74, 0
2, 5640, Note_on_c, 0, 65, 100
2, 5760, Note_on_c, 0, 65, 0
2, 5760, Note_on_c, 0, 64, 100
2, 6000, Note_on_c, 0, 64, 0
2, 6000, Note_on_c, 0, 74, 100
2, 6120, Note_on_c, 0, 74, 0
2, 6120, Note_on_c, 0, 73, 100
2, 6360, Note_on_c, 0, 73, 0
2, 6360, Note_on_c, 0, 64, 100
2, 6480, Note_on_c, 0, 64, 0
2, 6480, Note_on_c, 0, 64, 100
2, 6600, Note_on_c, 0, 64, 0
2, 6600, Note_on_c, 0, 62, 100
2, 6720, Note_on_c, 0, 62, 0
2, 6720, Note_on_c, 0, 61, 100
2, 6840, Note_on_c, 0, 61, 0
2, 6840, Note_on_c, 0, 62, 100
2, 6960, Note_on_c, 0, 62, 0
2, 6960, Note_on_c, 0, 64, 100
2, 7080, Note_on_c, 0, 64, 0
2, 7080, Note_on_c, 0, 65, 100
2, 7200, Note_on_c, 0, 65, 0
2, 7200, Note_on_c, 0, 67, 100
2, 7320, Note_on_c, 0, 67, 0
2, 7320, Note_on_c, 0, 69, 100
2, 7440, Note_on_c, 0, 69, 0
2, 7440, Note_on_c, 0, 70, 100
2, 7560, Note_on_c, 0, 70, 0
2, 7560, Note_on_c, 0, 70, 100
2, 7680, Note_on_c, 0, 70, 0
2, 7680, Note_on_c, 0, 69, 100
2, 7800, Note_on_c, 0, 69, 0
2, 7800, Note_on_c, 0, 67, 100
2, 7920, Note_on_c, 0, 67, 0
2, 7920, Note_on_c, 0, 69, 100
2, 8040, Note_on_c, 0, 69, 0
2, 8040, Note_on_c, 0, 71, 100
2, 8160, Note_on_c, 0, 71, 0
2, 8160, Note_on_c, 0, 73, 100
2, 8280, Note_on_c, 0, 73, 0
2, 8280, Note_on_c, 0, 74, 100
2, 8400, Note_on_c, 0, 74, 0
2, 8400, Note_on_c, 0, 76, 100
2, 8520, Note_on_c, 0, 76, 0
2, 8520, Note_on_c, 0, 77, 100
2, 8640, Note_on_c, 0, 77, 0
2, 8640, Note_on_c, 0, 77, 100
2, 8760, Note_on_c, 0, 77, 0
2, 8760, Note_on_c, 0, 74, 100
2, 8880, Note_on_c, 0, 74, 0
2, 8880, Note_on_c, 0, 76, 100
2, 9000, Note_on_c, 0, 76, 0
2, 9000, Note_on_c, 0, 76, 100
2, 9120, Note_on_c, 0, 76, 0
2, 9120, Note_on_c, 0, 73, 100
2, 9240, Note_on_c, 0, 73, 0
2, 9240, Note_on_c, 0, 74, 100
2, 9360, Note_on_c, 0, 74, 0
2, 9360, Note_on_c, 0, 74, 100
2, 9480, Note_on_c, 0, 74, 0
2, 9480, Note_on_c, 0, 71, 100
2, 9600, Note_on_c, 0, 71, 0
2, 9600, Note_on_c, 0, 72, 100
2, 9720, Note_on_c, 0, 72, 0
2, 9720, Note_on_c, 0, 72, 100
2, 9840, Note_on_c, 0, 72, 0
2, 9840, Note_on_c, 0, 69, 100
2, 9960, Note_on_c, 0, 69, 0
2, 9960, Note_on_c, 0, 70, 100
2, 10080, Note_on_c, 0, 70, 0
2, 10080, Note_on_c, 0, 70, 100
2, 10200, Note_on_c, 0, 70, 0
2, 10200, Note_on_c, 0, 67, 100
2, 10320, Note_on_c, 0, 67, 0
2, 10320, Note_on_c, 0, 69, 100
2, 10440, Note_on_c, 0, 69, 0
2, 10440, Note_on_c, 0, 69, 100
2, 10560, Note_on_c, 0, 69, 0
2, 10560, Note_on_c, 0, 65, 100
2, 10680, Note_on_c, 0, 65, 0
2, 10680, Note_on_c, 0, 67, 100
2, 10800, Note_on_c, 0, 67, 0
2, 10800, Note_on_c, 0, 67, 100
2, 10920, Note_on_c, 0, 67, 0
2, 10920, Note_on_c, 0, 65, 100
2, 11280, Note_on_c, 0, 65, 0
2, 11280, Note_on_c, 0, 67, 100
2, 11400, Note_on_c, 0, 67, 0
2, 11400, Note_on_c, 0, 69, 100
2, 11520, Note_on_c, 0, 69, 0
2, 11520, Note_on_c, 0, 70, 100
2, 11640, Note_on_c, 0, 70, 0
2, 11640, Note_on_c, 0, 69, 100
2, 11760, Note_on_c, 0, 69, 0
2, 11760, Note_on_c, 0, 67, 100
2, 11880, Note_on_c, 0, 67, 0
2, 11880, Note_on_c, 0, 74, 100
2, 12000, Note_on_c, 0, 74, 0
2, 12000, Note_on_c, 0, 73, 100
2, 12360, Note_on_c, 0, 73, 0
2, 12360, Note_on_c, 0, 74, 100
2, 12480, Note_on_c, 0, 74, 0
2, 12480, Note_on_c, 0, 76, 100
2, 12600, Note_on_c, 0, 76, 0
2, 12600, Note_on_c, 0, 77, 100
2, 12720, Note_on_c, 0, 77, 0
2, 12720, Note_on_c, 0, 76, 100
2, 12840, Note_on_c, 0, 76, 0
2, 12840, Note_on_c, 0, 74, 100
2, 12960, Note_on_c, 0, 74, 0
2, 12960, Note_on_c, 0, 81, 100
2, 13020, Note_on_c, 0, 81, 0
2, 13020, Note_on_c, 0, 80, 100
2, 13080, Note_on_c, 0, 80, 0
2, 13080, Note_on_c, 0, 78, 100
2, 13140, Note_on_c, 0, 78, 0
2, 13140, Note_on_c, 0, 80, 100
2, 13200, Note_on_c, 0, 80, 0
2, 13200, Note_on_c, 0, 81, 100
2, 13260, Note_on_c, 0, 81, 0
2, 13260, Note_on_c, 0, 80, 100
2, 13320, Note_on_c, 0, 80, 0
2, 13320, Note_on_c, 0, 81, 100
2, 13380, Note_on_c, 0, 81, 0
2, 13380, Note_on_c, 0, 80, 100
2, 13440, Note_on_c, 0, 80, 0
2, 13440, Note_on_c, 0, 81, 100
2, 13500, Note_on_c, 0, 81, 0
2, 13500, Note_on_c, 0, 80, 100
2, 13560, Note_on_c, 0, 80, 0
2, 13560, Note_on_c, 0, 81, 100
2, 13620, Note_on_c, 0, 81, 0
2, 13620, Note_on_c, 0, 80, 100
2, 13680, Note_on_c, 0, 80, 0
2, 13680, Note_on_c, 0, 81, 100
2, 13740, Note_on_c, 0, 81, 0
2, 13740, Note_on_c, 0, 80, 100
2, 13800, Note_on_c, 0, 80, 0
2, 13800, Note_on_c, 0, 81, 100
2, 13860, Note_on_c, 0, 81, 0
2, 13860, Note_on_c, 0, 80, 100
2, 13920, Note_on_c, 0, 80, 0
2, 13920, Note_on_c, 0, 81, 100
2, 13980, Note_on_c, 0, 81, 0
2, 13980, Note_on_c, 0, 80, 100
2, 14040, Note_on_c, 0, 80, 0
2, 14040, Note_on_c, 0, 81, 100
2, 14280, Note_on_c, 0, 81, 0
2, 14640, Note_on_c, 0, 73, 100
2, 14760, Note_on_c, 0, 73, 0
2, 14760, Note_on_c, 0, 74, 100
2, 15000, Note_on_c, 0, 74, 0
2, 15000, Note_on_c, 0, 76, 100
2, 15120, Note_on_c, 0, 76, 0
2, 15120, Note_on_c, 0, 69, 100
2, 15240, Note_on_c, 0, 69, 0
2, 15240, Note_on_c, 0, 71, 100
2, 15360, Note_on_c, 0, 71, 0
2, 15360, Note_on_c, 0, 73, 100
2, 15480, Note_on_c, 0, 73, 0
2, 15480, Note_on_c, 0, 74, 100
2, 15600, Note_on_c, 0, 74, 0
2, 15600, Note_on_c, 0, 76, 100
2, 15720, Note_on_c, 0, 76, 0
2, 15720, Note_on_c, 0, 77, 100
2, 15840, Note_on_c, 0, 77, 0
2, 15840, Note_on_c, 0, 67, 100
2, 16320, Note_on_c, 0, 67, 0
2, 16320, Note_on_c, 0, 79, 100
2, 16440, Note_on_c, 0, 79, 0
2, 16440, Note_on_c, 0, 77, 100
2, 16560, Note_on_c, 0, 77, 0
2, 16560, Note_on_c, 0, 76, 100
2, 16680, Note_on_c, 0, 76, 0
2, 16680, Note_on_c, 0, 74, 100
2, 16800, Note_on_c, 0, 74, 0
2, 16800, Note_on_c, 0, 73, 100
2, 16920, Note_on_c, 0, 73, 0
2, 16920, Note_on_c, 0, 74, 100
2, 17400, Note_on_c, 0, 74, 0
2, 17400, Note_on_c, 0, 71, 100
2, 17520, Note_on_c, 0, 71, 0
2, 17520, Note_on_c, 0, 73, 100
2, 17640, Note_on_c, 0, 73, 0
2, 17640, Note_on_c, 0, 74, 100
2, 17760, Note_on_c, 0, 74, 0
2, 17760, Note_on_c, 0, 76, 100
2, 17880, Note_on_c, 0, 76, 0
2, 17880, Note_on_c, 0, 77, 100
2, 18000, Note_on_c, 0, 77, 0
2, 18000, Note_on_c, 0, 76, 100
2, 18120, Note_on_c, 0, 76, 0
2, 18120, Note_on_c, 0, 77, 100
2, 18240, Note_on_c, 0, 77, 0
2, 18240, Note_on_c, 0, 74, 100
2, 18360, Note_on_c, 0, 74, 0
2, 18360, Note_on_c, 0, 73, 100
2, 18480, Note_on_c, 0, 73, 0
2, 18480, Note_on_c, 0, 74, 100
2, 18600, Note_on_c, 0, 74, 0
2, 18600, Note_on_c, 0, 76, 100
2, 18720, Note_on_c, 0, 76, 0
2, 18720, Note_on_c, 0, 69, 100
2, 19200, Note_on_c, 0, 69, 0
2, 19200, Note_on_c, 0, 70, 100
2, 19320, Note_on_c, 0, 70, 0
2, 19320, Note_on_c, 0, 67, 100
2, 19440, Note_on_c, 0, 67, 0
2, 19440, Note_on_c, 0, 65, 100
2, 19560, Note_on_c, 0, 65, 0
2, 19560, Note_on_c, 0, 67, 100
2, 19680, Note_on_c, 0, 67, 0
2, 19680, Note_on_c, 0, 64, 100
2, 19800, Note_on_c, 0, 64, 0
2, 19800, Note_on_c, 0, 65, 100
2, 19920, Note_on_c, 0, 65, 0
2, 19920, Note_on_c, 0, 69, 100
2, 20040, Note_on_c, 0, 69, 0
2, 20040, Note_on_c, 0, 74, 100
2, 20160, Note_on_c, 0, 74, 0
2, 20160, Note_on_c, 0, 72, 100
2, 20280, Note_on_c, 0, 72, 0
2, 20280, Note_on_c, 0, 70, 100
2, 20400, Note_on_c, 0, 70, 0
2, 20400, Note_on_c, 0, 69, 100
2, 20520, Note_on_c, 0, 69, 0
2, 20520, Note_on_c, 0, 70, 100
2, 20640, Note_on_c, 0, 70, 0
2, 20640, Note_on_c, 0, 74, 100
2, 20760, Note_on_c, 0, 74, 0
2, 20760, Note_on_c, 0, 79, 100
2, 20880, Note_on_c, 0, 79, 0
2, 20880, Note_on_c, 0, 73, 100
2, 21000, Note_on_c, 0, 73, 0
2, 21000, Note_on_c, 0, 76, 100
2, 21120, Note_on_c, 0, 76, 0
2, 21120, Note_on_c, 0, 69, 100
2, 21240, Note_on_c, 0, 69, 0
2, 21240, Note_on_c, 0, 70, 100
2, 21360, Note_on_c, 0, 70, 0
2, 21360, Note_on_c, 0, 69, 100
2, 21480, Note_on_c, 0, 69, 0
2, 21480, Note_on_c, 0, 67, 100
2, 21600, Note_on_c, 0, 67, 0
2, 21600, Note_on_c, 0, 65, 100
2, 21720, Note_on_c, 0, 65, 0
2, 21720, Note_on_c, 0, 67, 100
2, 21840, Note_on_c, 0, 67, 0
2, 21840, Note_on_c, 0, 64, 100
2, 21960, Note_on_c, 0, 64, 0
2, 21960, Note_on_c, 0, 65, 100
2, 22200, Note_on_c, 0, 65, 0
2, 22200, Note_on_c, 0, 74, 100
2, 22320, Note_on_c, 0, 74, 0
2, 22320, Note_on_c, 0, 67, 100
2, 22560, Note_on_c, 0, 67, 0
2, 22560, Note_on_c, 0, 65, 100
2, 22680, Note_on_c, 0, 65, 0
2, 22680, Note_on_c, 0, 64, 100
2, 22800, Note_on_c, 0, 64, 0
2, 22800, Note_on_c, 0, 69, 100
2, 22920, Note_on_c, 0, 69, 0
2, 22920, Note_on_c, 0, 67, 100
2, 23040, Note_on_c, 0, 67, 0
2, 23040, Note_on_c, 0, 65, 100
2, 23160, Note_on_c, 0, 65, 0
2, 23160, Note_on_c, 0, 64, 100
2, 23280, Note_on_c, 0, 64, 0
2, 23280, Note_on_c, 0, 62, 100
2, 23400, Note_on_c, 0, 62, 0
2, 23400, Note_on_c, 0, 62, 100
2, 23460, Note_on_c, 0, 62, 0
2, 23460, Note_on_c, 0, 61, 100
2, 23520, Note_on_c, 0, 61, 0
2, 23520, Note_on_c, 0, 62, 100
2, 23580, Note_on_c, 0, 62, 0
2, 23580, Note_on_c, 0, 61, 100
2, 23640, Note_on_c, 0, 61, 0
2, 23640, Note_on_c, 0, 62, 100
2, 23700, Note_on_c, 0, 62, 0
2, 23700, Note_on_c, 0, 61, 100
2, 23760, Note_on_c, 0, 61, 0
2, 23760, Note_on_c, 0, 62, 100
2, 24000, Note_on_c, 0, 62, 0
2, 25920, Note_on_c, 0, 74, 100
2, 26280, Note_on_c, 0, 74, 0
2, 26280, Note_on_c, 0, 69, 100
2, 26400, Note_on_c, 0, 69, 0
2, 26400, Note_on_c, 0, 68, 100
2, 26520, Note_on_c, 0, 68, 0
2, 26520, Note_on_c, 0, 69, 100
2, 26640, Note_on_c, 0, 69, 0
2, 26640, Note_on_c, 0, 71, 100
2, 26760, Note_on_c, 0, 71, 0
2, 26760, Note_on_c, 0, 69, 100
2, 26880, Note_on_c, 0, 69, 0
2, 26880, Note_on_c, 0, 71, 100
2, 27000, Note_on_c, 0, 71, 0
2, 27000, Note_on_c, 0, 72, 100
2, 27120, Note_on_c, 0, 72, 0
2, 27120, Note_on_c, 0, 71, 100
2, 27240, Note_on_c, 0, 71, 0
2, 27240, Note_on_c, 0, 73, 100
2, 27360, Note_on_c, 0, 73, 0
2, 27360, Note_on_c, 0, 74, 100
2, 27480, Note_on_c, 0, 74, 0
2, 27480, Note_on_c, 0, 73, 100
2, 27600, Note_on_c, 0, 73, 0
2, 27600, Note_on_c, 0, 74, 100
2, 27720, Note_on_c, 0, 74, 0
2, 27720, Note_on_c, 0, 76, 100
2, 27840, Note_on_c, 0, 76, 0
2, 27840, Note_on_c, 0, 74, 100
2, 27960, Note_on_c, 0, 74, 0
2, 27960, Note_on_c, 0, 76, 100
2, 28080, Note_on_c, 0, 76, 0
2, 28080, Note_on_c, 0, 77, 100
2, 28200, Note_on_c, 0, 77, 0
2, 28440, Note_on_c, 0, 76, 100
2, 28560, Note_on_c, 0, 76, 0
2, 28800, Note_on_c, 0, 74, 100
2, 28920, Note_on_c, 0, 74, 0
2, 29160, Note_on_c, 0, 74, 100
2, 29280, Note_on_c, 0, 74, 0
2, 29280, Note_on_c, 0, 73, 100
2, 29760, Note_on_c, 0, 73, 0
2, 29760, Note_on_c, 0, 69, 100
2, 29880, Note_on_c, 0, 69, 0
2, 29880, Note_on_c, 0, 71, 100
2, 30120, Note_on_c, 0, 71, 0
2, 30120, Note_on_c, 0, 73, 100
2, 30240, Note_on_c, 0, 73, 0
2, 30240, Note_on_c, 0, 74, 100
2, 30360, Note_on_c, 0, 74, 0
2, 30360, Note_on_c, 0, 72, 100
2, 30480, Note_on_c, 0, 72, 0
2, 30480, Note_on_c, 0, 71, 100
2, 30600, Note_on_c, 0, 71, 0
2, 30600, Note_on_c, 0, 72, 100
2, 30840, Note_on_c, 0, 72, 0
2, 30840, Note_on_c, 0, 81, 100
2, 30960, Note_on_c, 0, 81, 0
2, 30960, Note_on_c, 0, 80, 100
2, 31200, Note_on_c, 0, 80, 0
2, 31200, Note_on_c, 0, 74, 100
2, 31320, Note_on_c, 0, 74, 0
2, 31320, Note_on_c, 0, 76, 100
2, 31560, Note_on_c, 0, 76, 0
2, 31560, Note_on_c, 0, 79, 100
2, 31680, Note_on_c, 0, 79, 0
2, 31680, Note_on_c, 0, 77, 100
2, 31800, Note_on_c, 0, 77, 0
2, 31800, Note_on_c, 0, 76, 100
2, 31920, Note_on_c, 0, 76, 0
2, 31920, Note_on_c, 0, 74, 100
2, 32040, Note_on_c, 0, 74, 0
2, 32040, Note_on_c, 0, 73, 100
2, 32280, Note_on_c, 0, 73, 0
2, 32280, Note_on_c, 0, 82, 100
2, 32400, Note_on_c, 0, 82, 0
2, 32400, Note_on_c, 0, 81, 100
2, 32520, Note_on_c, 0, 81, 0
2, 32520, Note_on_c, 0, 77, 100
2, 32640, Note_on_c, 0, 77, 0
2, 32640, Note_on_c, 0, 74, 100
2, 32760, Note_on_c, 0, 74, 0
2, 32760, Note_on_c, 0, 74, 100
2, 32880, Note_on_c, 0, 74, 0
2, 32880, Note_on_c, 0, 79, 100
2, 33000, Note_on_c, 0, 79, 0
2, 33000, Note_on_c, 0, 72, 100
2, 33120, Note_on_c, 0, 72, 0
2, 33120, Note_on_c, 0, 72, 100
2, 33240, Note_on_c, 0, 72, 0
2, 33240, Note_on_c, 0, 77, 100
2, 33360, Note_on_c, 0, 77, 0
2, 33360, Note_on_c, 0, 70, 100
2, 33480, Note_on_c, 0, 70, 0
2, 33480, Note_on_c, 0, 70, 100
2, 33600, Note_on_c, 0, 70, 0
2, 33600, Note_on_c, 0, 69, 100
2, 33720, Note_on_c, 0, 69, 0
2, 33720, Note_on_c, 0, 67, 100
2, 33840, Note_on_c, 0, 67, 0
2, 33840, Note_on_c, 0, 69, 100
2, 33960, Note_on_c, 0, 69, 0
2, 33960, Note_on_c, 0, 73, 100
2, 34080, Note_on_c, 0, 73, 0
2, 34080, Note_on_c, 0, 76, 100
2, 34200, Note_on_c, 0, 76, 0
2, 34200, Note_on_c, 0, 79, 100
2, 34320, Note_on_c, 0, 79, 0
2, 34320, Note_on_c, 0, 77, 100
2, 34440, Note_on_c, 0, 77, 0
2, 34440, Note_on_c, 0, 76, 100
2, 34560, Note_on_c, 0, 76, 0
2, 34560, Note_on_c, 0, 77, 100
2, 34680, Note_on_c, 0, 77, 0
2, 34680, Note_on_c, 0, 76, 100
2, 34800, Note_on_c, 0, 76, 0
2, 34800, Note_on_c, 0, 74, 100
2, 34920, Note_on_c, 0, 74, 0
2, 34920, Note_on_c, 0, 76, 100
2, 35040, Note_on_c, 0, 76, 0
2, 35040, Note_on_c, 0, 74, 100
2, 35160, Note_on_c, 0, 74, 0
2, 35160, Note_on_c, 0, 72, 100
2, 35280, Note_on_c, 0, 72, 0
2, 35280, Note_on_c, 0, 74, 100
2, 35400, Note_on_c, 0, 74, 0
2, 35400, Note_on_c, 0, 72, 100
2, 35520, Note_on_c, 0, 72, 0
2, 35520, Note_on_c, 0, 71, 100
2, 35640, Note_on_c, 0, 71, 0
2, 35640, Note_on_c, 0, 72, 100
2, 35760, Note_on_c, 0, 72, 0
2, 35760, Note_on_c, 0, 74, 100
2, 35880, Note_on_c, 0, 74, 0
2, 35880, Note_on_c, 0, 76, 100
2, 36000, Note_on_c, 0, 76, 0
2, 36000, Note_on_c, 0, 74, 100
2, 36120, Note_on_c, 0, 74, 0
2, 36120, Note_on_c, 0, 76, 100
2, 36240, Note_on_c, 0, 76, 0
2, 36240, Note_on_c, 0, 77, 100
2, 36360, Note_on_c, 0, 77, 0
2, 36360, Note_on_c, 0, 76, 100
2, 36480, Note_on_c, 0, 76, 0
2, 36480, Note_on_c, 0, 77, 100
2, 36600, Note_on_c, 0, 77, 0
2, 36600, Note_on_c, 0, 79, 100
2, 36720, Note_on_c, 0, 79, 0
2, 36720, Note_on_c, 0, 77, 100
2, 36840, Note_on_c, 0, 77, 0
2, 36840, Note_on_c, 0, 74, 100
2, 36960, Note_on_c, 0, 74, 0
2, 36960, Note_on_c, 0, 81, 100
2, 37080, Note_on_c, 0, 81, 0
2, 37080, Note_on_c, 0, 70, 100
2, 37200, Note_on_c, 0, 70, 0
2, 37200, Note_on_c, 0, 76, 100
2, 37320, Note_on_c, 0, 76, 0
2, 37320, Note_on_c, 0, 79, 100
2, 37440, Note_on_c, 0, 79, 0
2, 37440, Note_on_c, 0, 69, 100
2, 37560, Note_on_c, 0, 69, 0
2, 37560, Note_on_c, 0, 74, 100
2, 37680, Note_on_c, 0, 74, 0
2, 37680, Note_on_c, 0, 77, 100
2, 37800, Note_on_c, 0, 77, 0
2, 37800, Note_on_c, 0, 67, 100
2, 37920, Note_on_c, 0, 67, 0
2, 37920, Note_on_c, 0, 73, 100
2, 38040, Note_on_c, 0, 73, 0
2, 38040, Note_on_c, 0, 76, 100
2, 38160, Note_on_c, 0, 76, 0
2, 38160, Note_on_c, 0, 65, 100
2, 38280, Note_on_c, 0, 65, 0
2, 38280, Note_on_c, 0, 69, 100
2, 38400, Note_on_c, 0, 69, 0
2, 38400, Note_on_c, 0, 67, 100
2, 38520, Note_on_c, 0, 67, 0
2, 38520, Note_on_c, 0, 70, 100
2, 38640, Note_on_c, 0, 70, 0
2, 38640, Note_on_c, 0, 69, 100
2, 38760, Note_on_c, 0, 69, 0
2, 38760, Note_on_c, 0, 73, 100
2, 38880, Note_on_c, 0, 73, 0
2, 38880, Note_on_c, 0, 74, 100
2, 39000, Note_on_c, 0, 74, 0
2, 39000, Note_on_c, 0, 76, 100
2, 39120, Note_on_c, 0, 76, 0
2, 39120, Note_on_c, 0, 77, 100
2, 39240, Note_on_c, 0, 77, 0
2, 39240, Note_on_c, 0, 69, 100
2, 39300, Note_on_c, 0, 69, 0
2, 39300, Note_on_c, 0, 68, 100
2, 39360, Note_on_c, 0, 68, 0
2, 39360, Note_on_c, 0, 65, 100
2, 39420, Note_on_c, 0, 65, 0
2, 39420, Note_on_c, 0, 68, 100
2, 39480, Note_on_c, 0, 68, 0
2, 39480, Note_on_c, 0, 69, 100
2, 39540, Note_on_c, 0, 69, 0
2, 39540, Note_on_c, 0, 68, 100
2, 39600, Note_on_c, 0, 68, 0
2, 39600, Note_on_c, 0, 69, 100
2, 39660, Note_on_c, 0, 69, 0
2, 39660, Note_on_c, 0, 68, 100
2, 39720, Note_on_c, 0, 68, 0
2, 39720, Note_on_c, 0, 69, 100
2, 39780, Note_on_c, 0, 69, 0
2, 39780, Note_on_c, 0, 68, 100
2, 39840, Note_on_c, 0, 68, 0
2, 39840, Note_on_c, 0, 65, 100
2, 39900, Note_on_c, 0, 65, 0
2, 39900, Note_on_c, 0, 68, 100
2, 39960, Note_on_c, 0, 68, 0
2, 39960, Note_on_c, 0, 69, 100
2, 40200, Note_on_c, 0, 69, 0
2, 40560, Note_on_c, 0, 71, 100
2, 40680, Note_on_c, 0, 71, 0
2, 40680, Note_on_c, 0, 72, 100
2, 40920, Note_on_c, 0, 72, 0
2, 40920, Note_on_c, 0, 69, 100
2, 41040, Note_on_c, 0, 69, 0
2, 41040, Note_on_c, 0, 74, 100
2, 41280, Note_on_c, 0, 74, 0
2, 41280, Note_on_c, 0, 77, 100
2, 41400, Note_on_c, 0, 77, 0
2, 41400, Note_on_c, 0, 77, 100
2, 41520, Note_on_c, 0, 77, 0
2, 41520, Note_on_c, 0, 76, 100
2, 41640, Note_on_c, 0, 76, 0
2, 41640, Note_on_c, 0, 74, 100
2, 41760, Note_on_c, 0, 74, 0
2, 41760, Note_on_c, 0, 72, 100
2, 41880, Note_on_c, 0, 72, 0
2, 41880, Note_on_c, 0, 74, 100
2, 42000, Note_on_c, 0, 74, 0
2, 42000, Note_on_c, 0, 71, 100
2, 42120, Note_on_c, 0, 71, 0
2, 42120, Note_on_c, 0, 76, 100
2, 42480, Note_on_c, 0, 76, 0
2, 42480, Note_on_c, 0, 69, 100
2, 42840, Note_on_c, 0, 69, 0
2, 43200, Note_on_c, 0, 69, 100
2, 43560, Note_on_c, 0, 69, 0
2, 43560, Note_on_c, 0, 76, 100
2, 43680, Note_on_c, 0, 76, 0
2, 43680, Note_on_c, 0, 77, 100
2, 43800, Note_on_c, 0, 77, 0
2, 43800, Note_on_c, 0, 76, 100
2, 43920, Note_on_c, 0, 76, 0
2, 43920, Note_on_c, 0, 74, 100
2, 44040, Note_on_c, 0, 74, 0
2, 44040, Note_on_c, 0, 76, 100
2, 44160, Note_on_c, 0, 76, 0
2, 44160, Note_on_c, 0, 74, 100
2, 44280, Note_on_c, 0, 74, 0
2, 44280, Note_on_c, 0, 72, 100
2, 44400, Note_on_c, 0, 72, 0
2, 44400, Note_on_c, 0, 74, 100
2, 44520, Note_on_c, 0, 74, 0
2, 44520, Note_on_c, 0, 72, 100
2, 44640, Note_on_c, 0, 72, 0
2, 44640, Note_on_c, 0, 71, 100
2, 44760, Note_on_c, 0, 71, 0
2, 44760, Note_on_c, 0, 72, 100
2, 44880, Note_on_c, 0, 72, 0
2, 44880, Note_on_c, 0, 71, 100
2, 45000, Note_on_c, 0, 71, 0
2, 45000, Note_on_c, 0, 69, 100
2, 45120, Note_on_c, 0, 69, 0
2, 45120, Note_on_c, 0, 71, 100
2, 45240, Note_on_c, 0, 71, 0
2, 45240, Note_on_c, 0, 69, 100
2, 45360, Note_on_c, 0, 69, 0
2, 45360, Note_on_c, 0, 68, 100
2, 45480, Note_on_c, 0, 68, 0
2, 45720, Note_on_c, 0, 69, 100
2, 45840, Note_on_c, 0, 69, 0
2, 46080, Note_on_c, 0, 71, 100
2, 46200, Note_on_c, 0, 71, 0
2, 46440, Note_on_c, 0, 71, 100
2, 46560, Note_on_c, 0, 71, 0
2, 46560, Note_on_c, 0, 72, 100
2, 47040, Note_on_c, 0, 72, 0
2, 47040, Note_on_c, 0, 74, 100
2, 47160, Note_on_c, 0, 74, 0
2, 47160, Note_on_c, 0, 72, 100
2, 47400, Note_on_c, 0, 72, 0
2, 47400, Note_on_c, 0, 71, 100
2, 47520, Note_on_c, 0, 71, 0
2, 47520, Note_on_c, 0, 69, 100
2, 47640, Note_on_c, 0, 69, 0
2, 47640, Note_on_c, 0, 64, 100
2, 47760, Note_on_c, 0, 64, 0
2, 47760, Note_on_c, 0, 69, 100
2, 47880, Note_on_c, 0, 69, 0
2, 47880, Note_on_c, 0, 72, 100
2, 48000, Note_on_c, 0, 72, 0
2, 48000, Note_on_c, 0, 69, 100
2, 48120, Note_on_c, 0, 69, 0
2, 48120, Note_on_c, 0, 72, 100
2, 48240, Note_on_c, 0, 72, 0
2, 48240, Note_on_c, 0, 76, 100
2, 48480, Note_on_c, 0, 76, 0
2, 48480, Note_on_c, 0, 68, 100
2, 48600, Note_on_c, 0, 68, 0
2, 48600, Note_on_c, 0, 69, 100
2, 48840, Note_on_c, 0, 69, 0
2, 48840, Note_on_c, 0, 77, 100
2, 48960, Note_on_c, 0, 77, 0
2, 48960, Note_on_c, 0, 67, 100
2, 49200, Note_on_c, 0, 67, 0
2, 49200, Note_on_c, 0, 76, 100
2, 49320, Note_on_c, 0, 76, 0
2, 49320, Note_on_c, 0, 65, 100
2, 49560, Note_on_c, 0, 65, 0
2, 49560, Note_on_c, 0, 74, 100
2, 49680, Note_on_c, 0, 74, 0
2, 49680, Note_on_c, 0, 64, 100
2, 49800, Note_on_c, 0, 64, 0
2, 49800, Note_on_c, 0, 71, 100
2, 49920, Note_on_c, 0, 71, 0
2, 49920, Note_on_c, 0, 74, 100
2, 50040, Note_on_c, 0, 74, 0
2, 50040, Note_on_c, 0, 72, 100
2, 50160, Note_on_c, 0, 72, 0
2, 50160, Note_on_c, 0, 71, 100
2, 50280, Note_on_c, 0, 71, 0
2, 50280, Note_on_c, 0, 69, 100
2, 50400, Note_on_c, 0, 69, 0
2, 50400, Note_on_c, 0, 68, 100
2, 50520, Note_on_c, 0, 68, 0
2, 50520, Note_on_c, 0, 74, 100
2, 50640, Note_on_c, 0, 74, 0
2, 50640, Note_on_c, 0, 77, 100
2, 50760, Note_on_c, 0, 77, 0
2, 50760, Note_on_c, 0, 76, 100
2, 50880, Note_on_c, 0, 76, 0
2, 50880, Note_on_c, 0, 74, 100
2, 51000, Note_on_c, 0, 74, 0
2, 51000, Note_on_c, 0, 72, 100
2, 51120, Note_on_c, 0, 72, 0
2, 51120, Note_on_c, 0, 71, 100
2, 51240, Note_on_c, 0, 71, 0
2, 51240, Note_on_c, 0, 69, 100
2, 51360, Note_on_c, 0, 69, 0
2, 51360, Note_on_c, 0, 68, 100
2, 51480, Note_on_c, 0, 68, 0
2, 51480, Note_on_c, 0, 69, 100
2, 51600, Note_on_c, 0, 69, 0
2, 51600, Note_on_c, 0, 64, 100
2, 51720, Note_on_c, 0, 64, 0
2, 51720, Note_on_c, 0, 71, 100
2, 51840, Note_on_c, 0, 71, 0
2, 51840, Note_on_c, 0, 72, 100
2, 51960, Note_on_c, 0, 72, 0
2, 51960, Note_on_c, 0, 71, 100
2, 52080, Note_on_c, 0, 71, 0
2, 52080, Note_on_c, 0, 69, 100
2, 52200, Note_on_c, 0, 69, 0
2, 52200, Note_on_c, 0, 76, 100
2, 52680, Note_on_c, 0, 76, 0
2, 52680, Note_on_c, 0, 71, 100
2, 52800, Note_on_c, 0, 71, 0
2, 52800, Note_on_c, 0, 74, 100
2, 52920, Note_on_c, 0, 74, 0
2, 52920, Note_on_c, 0, 74, 100
2, 53040, Note_on_c, 0, 74, 0
2, 53040, Note_on_c, 0, 72, 100
2, 53160, Note_on_c, 0, 72, 0
2, 53160, Note_on_c, 0, 81, 100
2, 53250, Note_on_c, 0, 81, 0
2, 53280, Note_on_c, 0, 72, 100
2, 53400, Note_on_c, 0, 72, 0
2, 53400, Note_on_c, 0, 71, 100
2, 53520, Note_on_c, 0, 71, 0
2, 53520, Note_on_c, 0, 79, 100
2, 53610, Note_on_c, 0, 79, 0
2, 53640, Note_on_c, 0, 71, 100
2, 53760, Note_on_c, 0, 71, 0
2, 53760, Note_on_c, 0, 69, 100
2, 53880, Note_on_c, 0, 69, 0
2, 53880, Note_on_c, 0, 77, 100
2, 53970, Note_on_c, 0, 77, 0
2, 54000, Note_on_c, 0, 69, 100
2, 54120, Note_on_c, 0, 69, 0
2, 54120, Note_on_c, 0, 68, 100
2, 54240, Note_on_c, 0, 68, 0
2, 54240, Note_on_c, 0, 71, 100
2, 54330, Note_on_c, 0, 71, 0
2, 54360, Note_on_c, 0, 64, 100
2, 54600, Note_on_c, 0, 64, 0
2, 55440, Note_on_c, 0, 74, 100
2, 55920, Note_on_c, 0, 74, 0
2, 55920, Note_on_c, 0, 72, 100
2, 56040, Note_on_c, 0, 72, 0
2, 56040, Note_on_c, 0, 74, 100
2, 56160, Note_on_c, 0, 74, 0
2, 56160, Note_on_c, 0, 76, 100
2, 56280, Note_on_c, 0, 76, 0
2, 56280, Note_on_c, 0, 74, 100
2, 56400, Note_on_c, 0, 74, 0
2, 56400, Note_on_c, 0, 72, 100
2, 56520, Note_on_c, 0, 72, 0
2, 56520, Note_on_c, 0, 71, 100
2, 56640, Note_on_c, 0, 71, 0
2, 56640, Note_on_c, 0, 72, 100
2, 56760, Note_on_c, 0, 72, 0
2, 56760, Note_on_c, 0, 74, 100
2, 56880, Note_on_c, 0, 74, 0
2, 56880, Note_on_c, 0, 76, 100
2, 57000, Note_on_c, 0, 76, 0
2, 57000, Note_on_c, 0, 78, 100
2, 57120, Note_on_c, 0, 78, 0
2, 57120, Note_on_c, 0, 80, 100
2, 57240, Note_on_c, 0, 80, 0
2, 57240, Note_on_c, 0, 81, 100
2, 57360, Note_on_c, 0, 81, 0
2, 57360, Note_on_c, 0, 76, 100
2, 57480, Note_on_c, 0, 76, 0
2, 57480, Note_on_c, 0, 72, 100
2, 57600, Note_on_c, 0, 72, 0
2, 57600, Note_on_c, 0, 74, 100
2, 57720, Note_on_c, 0, 74, 0
2, 57720, Note_on_c, 0, 79, 100
2, 57840, Note_on_c, 0, 79, 0
2, 57840, Note_on_c, 0, 71, 100
2, 57960, Note_on_c, 0, 71, 0
2, 57960, Note_on_c, 0, 72, 100
2, 58080, Note_on_c, 0, 72, 0
2, 58080, Note_on_c, 0, 77, 100
2, 58200, Note_on_c, 0, 77, 0
2, 58200, Note_on_c, 0, 69, 100
2, 58320, Note_on_c, 0, 69, 0
2, 58320, Note_on_c, 0, 71, 100
2, 58440, Note_on_c, 0, 71, 0
2, 58440, Note_on_c, 0, 76, 100
2, 58560, Note_on_c, 0, 76, 0
2, 58560, Note_on_c, 0, 74, 100
2, 58680, Note_on_c, 0, 74, 0
2, 58680, Note_on_c, 0, 72, 100
2, 58800, Note_on_c, 0, 72, 0
2, 58800, Note_on_c, 0, 71, 100
2, 58920, Note_on_c, 0, 71, 0
2, 58920, Note_on_c, 0, 69, 100
2, 59040, Note_on_c, 0, 69, 0
2, 59040, Note_on_c, 0, 71, 100
2, 59160, Note_on_c, 0, 71, 0
2, 59160, Note_on_c, 0, 69, 100
2, 59280, Note_on_c, 0, 69, 0
2, 59280, Note_on_c, 0, 68, 100
2, 59400, Note_on_c, 0, 68, 0
2, 59400, Note_on_c, 0, 69, 100
2, 59520, Note_on_c, 0, 69, 0
2, 59520, Note_on_c, 0, 68, 100
2, 59640, Note_on_c, 0, 68, 0
2, 59640, Note_on_c, 0, 66, 100
2, 59760, Note_on_c, 0, 66, 0
2, 59760, Note_on_c, 0, 68, 100
2, 59880, Note_on_c, 0, 68, 0
2, 59880, Note_on_c, 0, 64, 100
2, 60000, Note_on_c, 0, 64, 0
2, 60000, Note_on_c, 0, 68, 100
2, 60120, Note_on_c, 0, 68, 0
2, 60120, Note_on_c, 0, 71, 100
2, 60240, Note_on_c, 0, 71, 0
2, 60240, Note_on_c, 0, 76, 100
2, 60360, Note_on_c, 0, 76, 0
2, 60360, Note_on_c, 0, 74, 100
2, 60480, Note_on_c, 0, 74, 0
2, 60480, Note_on_c, 0, 72, 100
2, 60600, Note_on_c, 0, 72, 0
2, 60600, Note_on_c, 0, 71, 100
2, 60720, Note_on_c, 0, 71, 0
2, 60720, Note_on_c, 0, 69, 100
2, 60840, Note_on_c, 0, 69, 0
2, 60840, Note_on_c, 0, 74, 100
2, 61320, Note_on_c, 0, 74, 0
2, 61320, Note_on_c, 0, 72, 100
2, 61440, Note_on_c, 0, 72, 0
2, 61440, Note_on_c, 0, 71, 100
2, 61560, Note_on_c, 0, 71, 0
2, 61560, Note_on_c, 0, 72, 100
2, 61680, Note_on_c, 0, 72, 0
2, 61920, Note_on_c, 0, 77, 100
2, 62040, Note_on_c, 0, 77, 0
2, 62280, Note_on_c, 0, 76, 100
2, 62400, Note_on_c, 0, 76, 0
2, 62640, Note_on_c, 0, 74, 100
2, 62880, Note_on_c, 0, 74, 0
2, 62880, Note_on_c, 0, 68, 100
2, 63000, Note_on_c, 0, 68, 0
2, 63000, Note_on_c, 0, 69, 100
2, 63240, Note_on_c, 0, 69, 0
2, 63240, Note_on_c, 0, 72, 100
2, 63360, Note_on_c, 0, 72, 0
2, 63360, Note_on_c, 0, 68, 100
2, 63420, Note_on_c, 0, 68, 0
2, 63420, Note_on_c, 0, 65, 100
2, 63480, Note_on_c, 0, 65, 0
2, 63480, Note_on_c, 0, 68, 100
2, 63540, Note_on_c, 0, 68, 0
2, 63540, Note_on_c, 0, 65, 100
2, 63600, Note_on_c, 0, 65, 0
2, 63600, Note_on_c, 0, 64, 100
2, 63660, Note_on_c, 0, 64, 0
2, 63660, Note_on_c, 0, 65, 100
2, 63720, Note_on_c, 0, 65, 0
2, 63720, Note_on_c, 0, 64, 100
2, 63960, Note_on_c, 0, 64, 0
2, 64920, Note_on_c, 0, 62, 100
2, 65040, Note_on_c, 0, 62, 0
2, 65040, Note_on_c, 0, 64, 100
2, 65160, Note_on_c, 0, 64, 0
2, 65160, Note_on_c, 0, 65, 100
2, 65280, Note_on_c, 0, 65, 0
2, 65280, Note_on_c, 0, 67, 100
2, 65400, Note_on_c, 0, 67, 0
2, 65400, Note_on_c, 0, 65, 100
2, 65520, Note_on_c, 0, 65, 0
2, 65520, Note_on_c, 0, 64, 100
2, 66000, Note_on_c, 0, 64, 0
2, 66000, Note_on_c, 0, 65, 100
2, 66120, Note_on_c, 0, 65, 0
2, 66120, Note_on_c, 0, 67, 100
2, 66240, Note_on_c, 0, 67, 0
2, 66240, Note_on_c, 0, 69, 100
2, 66360, Note_on_c, 0, 69, 0
2, 66360, Note_on_c, 0, 70, 100
2, 66480, Note_on_c, 0, 70, 0
2, 66480, Note_on_c, 0, 69, 100
2, 66600, Note_on_c, 0, 69, 0
2, 66600, Note_on_c, 0, 67, 100
2, 66720, Note_on_c, 0, 67, 0
2, 66720, Note_on_c, 0, 69, 100
2, 66840, Note_on_c, 0, 69, 0
2, 66840, Note_on_c, 0, 67, 100
2, 66960, Note_on_c, 0, 67, 0
2, 66960, Note_on_c, 0, 65, 100
2, 67080, Note_on_c, 0, 65, 0
2, 67080, Note_on_c, 0, 67, 100
2, 67200, Note_on_c, 0, 67, 0
2, 67200, Note_on_c, 0, 65, 100
2, 67320, Note_on_c, 0, 65, 0
2, 67320, Note_on_c, 0, 64, 100
2, 67440, Note_on_c, 0, 64, 0
2, 67440, Note_on_c, 0, 65, 100
2, 67560, Note_on_c, 0, 65, 0
2, 67560, Note_on_c, 0, 64, 100
2, 67680, Note_on_c, 0, 64, 0
2, 67680, Note_on_c, 0, 62, 100
2, 67800, Note_on_c, 0, 62, 0
2, 67800, Note_on_c, 0, 64, 100
2, 67920, Note_on_c, 0, 64, 0
2, 67920, Note_on_c, 0, 62, 100
2, 68040, Note_on_c, 0, 62, 0
2, 68040, Note_on_c, 0, 61, 100
2, 68160, Note_on_c, 0, 61, 0
2, 68400, Note_on_c, 0, 62, 100
2, 68520, Note_on_c, 0, 62, 0
2, 68760, Note_on_c, 0, 64, 100
2, 68880, Note_on_c, 0, 64, 0
2, 69120, Note_on_c, 0, 65, 100
2, 69720, Note_on_c, 0, 65, 0
2, 69720, Note_on_c, 0, 69, 100
2, 69840, Note_on_c, 0, 69, 0
2, 69840, Note_on_c, 0, 69, 100
2, 69900, Note_on_c, 0, 69, 0
2, 69900, Note_on_c, 0, 67, 100
2, 69960, Note_on_c, 0, 67, 0
2, 69960, Note_on_c, 0, 69, 100
2, 70020, Note_on_c, 0, 69, 0
2, 70020, Note_on_c, 0, 67, 100
2, 70080, Note_on_c, 0, 67, 0
2, 70080, Note_on_c, 0, 65, 100
2, 70200, Note_on_c, 0, 65, 0
2, 70200, Note_on_c, 0, 67, 100
2, 70320, Note_on_c, 0, 67, 0
2, 70320, Note_on_c, 0, 65, 100
2, 70440, Note_on_c, 0, 65, 0
2, 70440, Note_on_c, 0, 64, 100
2, 70560, Note_on_c, 0, 64, 0
2, 70560, Note_on_c, 0, 74, 100
2, 70620, Note_on_c, 0, 74, 0
2, 70620, Note_on_c, 0, 73, 100
2, 70680, Note_on_c, 0, 73, 0
2, 70680, Note_on_c, 0, 70, 100
2, 70740, Note_on_c, 0, 70, 0
2, 70740, Note_on_c, 0, 73, 100
2, 70800, Note_on_c, 0, 73, 0
2, 70800, Note_on_c, 0, 74, 100
2, 70860, Note_on_c, 0, 74, 0
2, 70860, Note_on_c, 0, 73, 100
2, 70920, Note_on_c, 0, 73, 0
2, 70920, Note_on_c, 0, 74, 100
2, 70980, Note_on_c, 0, 74, 0
2, 70980, Note_on_c, 0, 73, 100
2, 71040, Note_on_c, 0, 73, 0
2, 71040, Note_on_c, 0, 74, 100
2, 71100, Note_on_c, 0, 74, 0
2, 71100, Note_on_c, 0, 73, 100
2, 71160, Note_on_c, 0, 73, 0
2, 71160, Note_on_c, 0, 70, 100
2, 71220, Note_on_c, 0, 70, 0
2, 71220, Note_on_c, 0, 73, 100
2, 71280, Note_on_c, 0, 73, 0
2, 71280, Note_on_c, 0, 74, 100
2, 71400, Note_on_c, 0, 74, 0
2, 71400, Note_on_c, 0, 70, 100
2, 71520, Note_on_c, 0, 70, 0
2, 71520, Note_on_c, 0, 79, 100
2, 71640, Note_on_c, 0, 79, 0
2, 71640, Note_on_c, 0, 72, 100
2, 71760, Note_on_c, 0, 72, 0
2, 71760, Note_on_c, 0, 69, 100
2, 71880, Note_on_c, 0, 69, 0
2, 71880, Note_on_c, 0, 77, 100
2, 72000, Note_on_c, 0, 77, 0
2, 72000, Note_on_c, 0, 70, 100
2, 72120, Note_on_c, 0, 70, 0
2, 72120, Note_on_c, 0, 67, 100
2, 72240, Note_on_c, 0, 67, 0
2, 72240, Note_on_c, 0, 76, 100
2, 72360, Note_on_c, 0, 76, 0
2, 72360, Note_on_c, 0, 69, 100
2, 72480, Note_on_c, 0, 69, 0
2, 72480, Note_on_c, 0, 67, 100
2, 72600, Note_on_c, 0, 67, 0
2, 72600, Note_on_c, 0, 76, 100
2, 72720, Note_on_c, 0, 76, 0
2, 72720, Note_on_c, 0, 69, 100
2, 72840, Note_on_c, 0, 69, 0
2, 72840, Note_on_c, 0, 65, 100
2, 72960, Note_on_c, 0, 65, 0
2, 72960, Note_on_c, 0, 74, 100
2, 73080, Note_on_c, 0, 74, 0
2, 73080, Note_on_c, 0, 67, 100
2, 73200, Note_on_c, 0, 67, 0
2, 73200, Note_on_c, 0, 64, 100
2, 73320, Note_on_c, 0, 64, 0
2, 73320, Note_on_c, 0, 73, 100
2, 73440, Note_on_c, 0, 73, 0
2, 73440, Note_on_c, 0, 74, 100
2, 73560, Note_on_c, 0, 74, 0
2, 73560, Note_on_c, 0, 69, 100
2, 73680, Note_on_c, 0, 69, 0
2, 73680, Note_on_c, 0, 65, 100
2, 73800, Note_on_c, 0, 65, 0
2, 73800, Note_on_c, 0, 62, 100
2, 73920, Note_on_c, 0, 62, 0
2, 73920, Note_on_c, 0, 64, 100
2, 74040, Note_on_c, 0, 64, 0
2, 74040, Note_on_c, 0, 65, 100
2, 74160, Note_on_c, 0, 65, 0
2, 74160, Note_on_c, 0, 64, 100
2, 74280, Note_on_c, 0, 64, 0
2, 74280, Note_on_c, 0, 65, 100
2, 74400, Note_on_c, 0, 65, 0
2, 74400, Note_on_c, 0, 62, 100
2, 74520, Note_on_c, 0, 62, 0
2, 74520, Note_on_c, 0, 64, 100
2, 75000, Note_on_c, 0, 64, 0
2, 75000, Note_on_c, 0, 65, 100
2, 75120, Note_on_c, 0, 65, 0
2, 75120, Note_on_c, 0, 67, 100
2, 75240, Note_on_c, 0, 67, 0
2, 75240, Note_on_c, 0, 65, 100
2, 75360, Note_on_c, 0, 65, 0
2, 75360, Note_on_c, 0, 67, 100
2, 75480, Note_on_c, 0, 67, 0
2, 75480, Note_on_c, 0, 64, 100
2, 75600, Note_on_c, 0, 64, 0
2, 75600, Note_on_c, 0, 65, 100
2, 75720, Note_on_c, 0, 65, 0
2, 75960, Note_on_c, 0, 64, 100
2, 76080, Note_on_c, 0, 64, 0
2, 76320, Note_on_c, 0, 62, 100
2, 76440, Note_on_c, 0, 62, 0
2, 76680, Note_on_c, 0, 61, 100
2, 76800, Note_on_c, 0, 61, 0
2, 77040, Note_on_c, 0, 62, 100
2, 77160, Note_on_c, 0, 62, 0
2, 77400, Note_on_c, 0, 64, 100
2, 77520, Note_on_c, 0, 64, 0
2, 77760, Note_on_c, 0, 65, 100
2, 77880, Note_on_c, 0, 65, 0
2, 77880, Note_on_c, 0, 64, 100
2, 78000, Note_on_c, 0, 64, 0
2, 78000, Note_on_c, 0, 62, 100
2, 78120, Note_on_c, 0, 62, 0
2, 78120, Note_on_c, 0, 70, 100
2, 78240, Note_on_c, 0, 70, 0
2, 78240, Note_on_c, 0, 69, 100
2, 78360, Note_on_c, 0, 69, 0
2, 78360, Note_on_c, 0, 67, 100
2, 78480, Note_on_c, 0, 67, 0
2, 78480, Note_on_c, 0, 73, 100
2, 78720, Note_on_c, 0, 73, 0
2, 78960, Note_on_c, 0, 67, 100
2, 79080, Note_on_c, 0, 67, 0
2, 79080, Note_on_c, 0, 62, 100
2, 79200, Note_on_c, 0, 62, 0
2, 79200, Note_on_c, 0, 61, 100
2, 79320, Note_on_c, 0, 61, 0
2, 79320, Note_on_c, 0, 62, 100
2, 79440, Note_on_c, 0, 62, 0
2, 79440, Note_on_c, 0, 64, 100
2, 79560, Note_on_c, 0, 64, 0
2, 79560, Note_on_c, 0, 57, 100
2, 79680, Note_on_c, 0, 57, 0
2, 79680, Note_on_c, 0, 59, 100
2, 79800, Note_on_c, 0, 59, 0
2, 79800, Note_on_c, 0, 61, 100
2, 79920, Note_on_c, 0, 61, 0
2, 79920, Note_on_c, 0, 62, 100
2, 80040, Note_on_c, 0, 62, 0
2, 80040, Note_on_c, 0, 55, 100
2, 80160, Note_on_c, 0, 55, 0
2, 80160, Note_on_c, 0, 58, 100
2, 80280, Note_on_c, 0, 58, 0
2, 80280, Note_on_c, 0, 60, 100
2, 80400, Note_on_c, 0, 60, 0
2, 80400, Note_on_c, 0, 53, 100
2, 80520, Note_on_c, 0, 53, 0
2, 80520, Note_on_c, 0, 57, 100
2, 80640, Note_on_c, 0, 57, 0
2, 80640, Note_on_c, 0, 58, 100
2, 80760, Note_on_c, 0, 58, 0
2, 80760, Note_on_c, 0, 52, 100
2, 80880, Note_on_c, 0, 52, 0
2, 80880, Note_on_c, 0, 55, 100
2, 81000, Note_on_c, 0, 55, 0
2, 81000, Note_on_c, 0, 57, 100
2, 81120, Note_on_c, 0, 57, 0
2, 81120, Note_on_c, 0, 69, 100
2, 81240, Note_on_c, 0, 69, 0
2, 81240, Note_on_c, 0, 67, 100
2, 81360, Note_on_c, 0, 67, 0
2, 81360, Note_on_c, 0, 65, 100
2, 81480, Note_on_c, 0, 65, 0
2, 81480, Note_on_c, 0, 74, 100
2, 81600, Note_on_c, 0, 74, 0
2, 81600, Note_on_c, 0, 72, 100
2, 81720, Note_on_c, 0, 72, 0
2, 81720, Note_on_c, 0, 70, 100
2, 81840, Note_on_c, 0, 70, 0
2, 81840, Note_on_c, 0, 69, 100
2, 81960, Note_on_c, 0, 69, 0
2, 81960, Note_on_c, 0, 70, 100
2, 82080, Note_on_c, 0, 70, 0
2, 82080, Note_on_c, 0, 69, 100
2, 82440, Note_on_c, 0, 69, 0
2, 82440, Note_on_c, 0, 62, 100
2, 82560, Note_on_c, 0, 62, 0
2, 82560, Note_on_c, 0, 61, 100
2, 82680, Note_on_c, 0, 61, 0
2, 82680, Note_on_c, 0, 62, 100
2, 82800, Note_on_c, 0, 62, 0
2, 82800, Note_on_c, 0, 64, 100
2, 82920, Note_on_c, 0, 64, 0
2, 82920, Note_on_c, 0, 62, 100
2, 83040, Note_on_c, 0, 62, 0
2, 83040, Note_on_c, 0, 64, 100
2, 83160, Note_on_c, 0, 64, 0
2, 83160, Note_on_c, 0, 65, 100
2, 83280, Note_on_c, 0, 65, 0
2, 83280, Note_on_c, 0, 64, 100
2, 83400, Note_on_c, 0, 64, 0
2, 83400, Note_on_c, 0, 65, 100
2, 83520, Note_on_c, 0, 65, 0
2, 83520, Note_on_c, 0, 67, 100
2, 83640, Note_on_c, 0, 67, 0
2, 83640, Note_on_c, 0, 65, 100
2, 83760, Note_on_c, 0, 65, 0
2, 83760, Note_on_c, 0, 67, 100
2, 83880, Note_on_c, 0, 67, 0
2, 83880, Note_on_c, 0, 69, 100
2, 84000, Note_on_c, 0, 69, 0
2, 84000, Note_on_c, 0, 67, 100
2, 84120, Note_on_c, 0, 67, 0
2, 84120, Note_on_c, 0, 69, 100
2, 84240, Note_on_c, 0, 69, 0
2, 84240, Note_on_c, 0, 70, 100
2, 84360, Note_on_c, 0, 70, 0
2, 84600, Note_on_c, 0, 69, 100
2, 84720, Note_on_c, 0, 69, 0
2, 84960, Note_on_c, 0, 67, 100
2, 85080, Note_on_c, 0, 67, 0
2, 85320, Note_on_c, 0, 67, 100
2, 85440, Note_on_c, 0, 67, 0
2, 85440, Note_on_c, 0, 65, 100
2, 85920, Note_on_c, 0, 65, 0
2, 85920, Note_on_c, 0, 64, 100
2, 86040, Note_on_c, 0, 64, 0
2, 86040, Note_on_c, 0, 65, 100
2, 86280, Note_on_c, 0, 65, 0
2, 86280, Note_on_c, 0, 67, 100
2, 86400, Note_on_c, 0, 67, 0
2, 86400, Note_on_c, 0, 69, 100
2, 86640, Note_on_c, 0, 69, 0
2, 86640, Note_on_c, 0, 79, 100
2, 86760, Note_on_c, 0, 79, 0
2, 86760, Note_on_c, 0, 77, 100
2, 87000, Note_on_c, 0, 77, 0
2, 87000, Note_on_c, 0, 69, 100
2, 87120, Note_on_c, 0, 69, 0
2, 87120, Note_on_c, 0, 67, 100
2, 87360, Note_on_c, 0, 67, 0
2, 87360, Note_on_c, 0, 76, 100
2, 87480, Note_on_c, 0, 76, 0
2, 87480, Note_on_c, 0, 74, 100
2, 87720, Note_on_c, 0, 74, 0
2, 87720, Note_on_c, 0, 65, 100
2, 87840, Note_on_c, 0, 65, 0
2, 87840, Note_on_c, 0, 64, 100
2, 88080, Note_on_c, 0, 64, 0
2, 88080, Note_on_c, 0, 74, 100
2, 88200, Note_on_c, 0, 74, 0
2, 88200, Note_on_c, 0, 73, 100
2, 88440, Note_on_c, 0, 73, 0
2, 88440, Note_on_c, 0, 64, 100
2, 88560, Note_on_c, 0, 64, 0
2, 88560, Note_on_c, 0, 64, 100
2, 88680, Note_on_c, 0, 64, 0
2, 88680, Note_on_c, 0, 62, 100
2, 88800, Note_on_c, 0, 62, 0
2, 88800, Note_on_c, 0, 61, 100
2, 88920, Note_on_c, 0, 61, 0
2, 88920, Note_on_c, 0, 62, 100
2, 89040, Note_on_c, 0, 62, 0
2, 89040, Note_on_c, 0, 64, 100
2, 89160, Note_on_c, 0, 64, 0
2, 89160, Note_on_c, 0, 65, 100
2, 89280, Note_on_c, 0, 65, 0
2, 89280, Note_on_c, 0, 67, 100
2, 89400, Note_on_c, 0, 67, 0
2, 89400, Note_on_c, 0, 69, 100
2, 89520, Note_on_c, 0, 69, 0
2, 89520, Note_on_c, 0, 70, 100
2, 89640, Note_on_c, 0, 70, 0
2, 89640, Note_on_c, 0, 70, 100
2, 89760, Note_on_c, 0, 70, 0
2, 89760, Note_on_c, 0, 69, 100
2, 89880, Note_on_c, 0, 69, 0
2, 89880, Note_on_c, 0, 67, 100
2, 90000, Note_on_c, 0, 67, 0
2, 90000, Note_on_c, 0, 69, 100
2, 90120, Note_on_c, 0, 69, 0
2, 90120, Note_on_c, 0, 71, 100
2, 90240, Note_on_c, 0, 71, 0
2, 90240, Note_on_c, 0, 73, 100
2, 90360, Note_on_c, 0, 73, 0
2, 90360, Note_on_c, 0, 74, 100
2, 90480, Note_on_c, 0, 74, 0
2, 90480, Note_on_c, 0, 76, 100
2, 90600, Note_on_c, 0, 76, 0
2, 90600, Note_on_c, 0, 77, 100
2, 90720, Note_on_c, 0, 77, 0
2, 90720, Note_on_c, 0, 77, 100
2, 90840, Note_on_c, 0, 77, 0
2, 90840, Note_on_c, 0, 74, 100
2, 90960, Note_on_c, 0, 74, 0
2, 90960, Note_on_c, 0, 76, 100
2, 91080, Note_on_c, 0, 76, 0
2, 91080, Note_on_c, 0, 76, 100
2, 91200, Note_on_c, 0, 76, 0
2, 91200, Note_on_c, 0, 73, 100
2, 91320, Note_on_c, 0, 73, 0
2, 91320, Note_on_c, 0, 74, 100
2, 91440, Note_on_c, 0, 74, 0
2, 91440, Note_on_c, 0, 74, 100
2, 91560, Note_on_c, 0, 74, 0
2, 91560, Note_on_c, 0, 71, 100
2, 91680, Note_on_c, 0, 71, 0
2, 91680, Note_on_c, 0, 72, 100
2, 91800, Note_on_c, 0, 72, 0
2, 91800, Note_on_c, 0, 72, 100
2, 91920, Note_on_c, 0, 72, 0
2, 91920, Note_on_c, 0, 69, 100
2, 92040, Note_on_c, 0, 69, 0
2, 92040, Note_on_c, 0, 70, 100
2, 92160, Note_on_c, 0, 70, 0
2, 92160, Note_on_c, 0, 70, 100
2, 92280, Note_on_c, 0, 70, 0
2, 92280, Note_on_c, 0, 67, 100
2, 92400, Note_on_c, 0, 67, 0
2, 92400, Note_on_c, 0, 69, 100
2, 92520, Note_on_c, 0, 69, 0
2, 92520, Note_on_c, 0, 69, 100
2, 92640, Note_on_c, 0, 69, 0
2, 92640, Note_on_c, 0, 65, 100
2, 92760, Note_on_c, 0, 65, 0
2, 92760, Note_on_c, 0, 67, 100
2, 92880, Note_on_c, 0, 67, 0
2, 92880, Note_on_c, 0, 67, 100
2, 93000, Note_on_c, 0, 67, 0
2, 93000, Note_on_c, 0, 65, 100
2, 93360, Note_on_c, 0, 65, 0
2, 93360, Note_on_c, 0, 67, 100
2, 93480, Note_on_c, 0, 67, 0
2, 93480, Note_on_c, 0, 69, 100
2, 93600, Note_on_c, 0, 69, 0
2, 93600, Note_on_c, 0, 70, 100
2, 93720, Note_on_c, 0, 70, 0
2, 93720, Note_on_c, 0, 69, 100
2, 93840, Note_on_c, 0, 69, 0
2, 93840, Note_on_c, 0, 67, 100
2, 93960, Note_on_c, 0, 67, 0
2, 93960, Note_on_c, 0, 74, 100
2, 94080, Note_on_c, 0, 74, 0
2, 94080, Note_on_c, 0, 73, 100
2, 94440, Note_on_c, 0, 73, 0
2, 94440, Note_on_c, 0, 74, 100
2, 94560, Note_on_c, 0, 74, 0
2, 94560, Note_on_c, 0, 76, 100
2, 94680, Note_on_c, 0, 76, 0
2, 94680, Note_on_c, 0, 77, 100
2, 94800, Note_on_c, 0, 77, 0
2, 94800, Note_on_c, 0, 76, 100
2, 94920, Note_on_c, 0, 76, 0
2, 94920, Note_on_c, 0, 74, 100
2, 95040, Note_on_c, 0, 74, 0
2, 95040, Note_on_c, 0, 81, 100
2, 95100, Note_on_c, 0, 81, 0
2, 95100, Note_on_c, 0, 80, 100
2, 95160, Note_on_c, 0, 80, 0
2, 95160, Note_on_c, 0, 78, 100
2, 95220, Note_on_c, 0, 78, 0
2, 95220, Note_on_c, 0, 80, 100
2, 95280, Note_on_c, 0, 80, 0
2, 95280, Note_on_c, 0, 81, 100
2, 95340, Note_on_c, 0, 81, 0
2, 95340, Note_on_c, 0, 80, 100
2, 95400, Note_on_c, 0, 80, 0
2, 95400, Note_on_c, 0, 81, 100
2, 95460, Note_on_c, 0, 81, 0
2, 95460, Note_on_c, 0, 80, 100
2, 95520, Note_on_c, 0, 80, 0
2, 95520, Note_on_c, 0, 81, 100
2, 95580, Note_on_c, 0, 81, 0
2, 95580, Note_on_c, 0, 80, 100
2, 95640, Note_on_c, 0, 80, 0
2, 95640, Note_on_c, 0, 81, 100
2, 95700, Note_on_c, 0, 81, 0
2, 95700, Note_on_c, 0, 80, 100
2, 95760, Note_on_c, 0, 80, 0
2, 95760, Note_on_c, 0, 81, 100
2, 95820, Note_on_c, 0, 81, 0
2, 95820, Note_on_c, 0, 80, 100
2, 95880, Note_on_c, 0, 80, 0
2, 95880, Note_on_c, 0, 81, 100
2, 95940, Note_on_c, 0, 81, 0
2, 95940, Note_on_c, 0, 80, 100
2, 96000, Note_on_c, 0, 80, 0
2, 96000, Note_on_c, 0, 81, 100
2, 96060, Note_on_c, 0, 81, 0
2, 96060, Note_on_c, 0, 80, 100
2, 96120, Note_on_c, 0, 80, 0
2, 96120, Note_on_c, 0, 81, 100
2, 96360, Note_on_c, 0, 81, 0
2, 96720, Note_on_c, 0, 73, 100
2, 96840, Note_on_c, 0, 73, 0
2, 96840, Note_on_c, 0, 74, 100
2, 97080, Note_on_c, 0, 74, 0
2, 97080, Note_on_c, 0, 76, 100
2, 97200, Note_on_c, 0, 76, 0
2, 97200, Note_on_c, 0, 69, 100
2, 97320, Note_on_c, 0, 69, 0
2, 97320, Note_on_c, 0, 71, 100
2, 97440, Note_on_c, 0, 71, 0
2, 97440, Note_on_c, 0, 73, 100
2, 97560, Note_on_c, 0, 73, 0
2, 97560, Note_on_c, 0, 74, 100
2, 97680, Note_on_c, 0, 74, 0
2, 97680, Note_on_c, 0, 76, 100
2, 97800, Note_on_c, 0, 76, 0
2, 97800, Note_on_c, 0, 77, 100
2, 97920, Note_on_c, 0, 77, 0
2, 97920, Note_on_c, 0, 67, 100
2, 98400, Note_on_c, 0, 67, 0
2, 98400, Note_on_c, 0, 79, 100
2, 98520, Note_on_c, 0, 79, 0
2, 98520, Note_on_c, 0, 77, 100
2, 98640, Note_on_c, 0, 77, 0
2, 98640, Note_on_c, 0, 76, 100
2, 98760, Note_on_c, 0, 76, 0
2, 98760, Note_on_c, 0, 74, 100
2, 98880, Note_on_c, 0, 74, 0
2, 98880, Note_on_c, 0, 73, 100
2, 99000, Note_on_c, 0, 73, 0
2, 99000, Note_on_c, 0, 74, 100
2, 99480, Note_on_c, 0, 74, 0
2, 99480, Note_on_c, 0, 71, 100
2, 99600, Note_on_c, 0, 71, 0
2, 99600, Note_on_c, 0, 73, 100
2, 99720, Note_on_c, 0, 73, 0
2, 99720, Note_on_c, 0, 74, 100
2, 99840, Note_on_c, 0, 74, 0
2, 99840, Note_on_c, 0, 76, 100
2, 99960, Note_on_c, 0, 76, 0
2, 99960, Note_on_c, 0, 77, 100
2, 100080, Note_on_c, 0, 77, 0
2, 100080, Note_on_c, 0, 76, 100
2, 100200, Note_on_c, 0, 76, 0
2, 100200, Note_on_c, 0, 77, 100
2, 100320, Note_on_c, 0, 77, 0
2, 100320, Note_on_c, 0, 74, 100
2, 100440, Note_on_c, 0, 74, 0
2, 100440, Note_on_c, 0, 73, 100
2, 100560, Note_on_c, 0, 73, 0
2, 100560, Note_on_c, 0, 74, 100
2, 100680, Note_on_c, 0, 74, 0
2, 100680, Note_on_c, 0, 76, 100
2, 100800, Note_on_c, 0, 76, 0
2, 100800, Note_on_c, 0, 69, 100
2, 101280, Note_on_c, 0, 69, 0
2, 101280, Note_on_c, 0, 70, 100
2, 101400, Note_on_c, 0, 70, 0
2, 101400, Note_on_c, 0, 67, 100
2, 101520, Note_on_c, 0, 67, 0
2, 101520, Note_on_c, 0, 65, 100
2, 101640, Note_on_c, 0, 65, 0
2, 101640, Note_on_c, 0, 67, 100
2, 101760, Note_on_c, 0, 67, 0
2, 101760, Note_on_c, 0, 64, 100
2, 101880, Note_on_c, 0, 64, 0
2, 101880, Note_on_c, 0, 65, 100
2, 102000, Note_on_c, 0, 65, 0
2, 102000, Note_on_c, 0, 69, 100
2, 102120, Note_on_c, 0, 69, 0
2, 102120, Note_on_c, 0, 74, 100
2, 102240, Note_on_c, 0, 74, 0
2, 102240, Note_on_c, 0, 72, 100
2, 102360, Note_on_c, 0, 72, 0
2, 102360, Note_on_c, 0, 70, 100
2, 102480, Note_on_c, 0, 70, 0
2, 102480, Note_on_c, 0, 69, 100
2, 102600, Note_on_c, 0, 69, 0
2, 102600, Note_on_c, 0, 70, 100
2, 102720, Note_on_c, 0, 70, 0
2, 102720, Note_on_c, 0, 74, 100
2, 102840, Note_on_c, 0, 74, 0
2, 102840, Note_on_c, 0, 79, 100
2, 102960, Note_on_c, 0, 79, 0
2, 102960, Note_on_c, 0, 73, 100
2, 103080, Note_on_c, 0, 73, 0
2, 103080, Note_on_c, 0, 76, 100
2, 103200, Note_on_c, 0, 76, 0
2, 103200, Note_on_c, 0, 69, 100
2, 103320, Note_on_c, 0, 69, 0
2, 103320, Note_on_c, 0, 70, 100
2, 103440, Note_on_c, 0, 70, 0
2, 103440, Note_on_c, 0, 69, 100
2, 103560, Note_on_c, 0, 69, 0
2, 103560, Note_on_c, 0, 67, 100
2, 103680, Note_on_c, 0, 67, 0
2, 103680, Note_on_c, 0, 65, 100
2, 103800, Note_on_c, 0, 65, 0
2, 103800, Note_on_c, 0, 67, 100
2, 103920, Note_on_c, 0, 67, 0
2, 103920, Note_on_c, 0, 64, 100
2, 104040, Note_on_c, 0, 64, 0
2, 104040, Note_on_c, 0, 65, 100
2, 104280, Note_on_c, 0, 65, 0
2, 104280, Note_on_c, 0, 74, 100
2, 104400, Note_on_c, 0, 74, 0
2, 104400, Note_on_c, 0, 67, 100
2, 104640, Note_on_c, 0, 67, 0
2, 104640, Note_on_c, 0, 65, 100
2, 104760, Note_on_c, 0, 65, 0
2, 104760, Note_on_c, 0, 64, 100
2, 104880, Note_on_c, 0, 64, 0
2, 104880, Note_on_c, 0, 69, 100
2, 105000, Note_on_c, 0, 69, 0
2, 105000, Note_on_c, 0, 67, 100
2, 105120, Note_on_c, 0, 67, 0
2, 105120, Note_on_c, 0, 65, 100
2, 105240, Note_on_c, 0, 65, 0
2, 105240, Note_on_c, 0, 64, 100
2, 105360, Note_on_c, 0, 64, 0
2, 105360, Note_on_c, 0, 62, 100
2, 105480, Note_on_c, 0, 62, 0
2, 105480, Note_on_c, 0, 62, 100
2, 105540, Note_on_c, 0, 62, 0
2, 105540, Note_on_c, 0, 61, 100
2, 105600, Note_on_c, 0, 61, 0
2, 105600, Note_on_c, 0, 62, 100
2, 105660, Note_on_c, 0, 62, 0
2, 105660, Note_on_c, 0, 61, 100
2, 105720, Note_on_c, 0, 61, 0
2, 105720, Note_on_c, 0, 62, 100
2, 105780, Note_on_c, 0, 62, 0
2, 105780, Note_on_c, 0, 61, 100
2, 105840, Note_on_c, 0, 61, 0
2, 105840, Note_on_c, 0, 62, 100
2, 106080, Note_on_c, 0, 62, 0
2, 108000, Note_on_c, 0, 74, 100
2, 108360, Note_on_c, 0, 74, 0
2, 108360, Note_on_c, 0, 69, 100
2, 108480, Note_on_c, 0, 69, 0
2, 108480, Note_on_c, 0, 68, 100
2, 108600, Note_on_c, 0, 68, 0
2, 108600, Note_on_c, 0, 69, 100
2, 108720, Note_on_c, 0, 69, 0
2, 108720, Note_on_c, 0, 71, 100
2, 108840, Note_on_c, 0, 71, 0
2, 108840, Note_on_c, 0, 69, 100
2, 108960, Note_on_c, 0, 69, 0
2, 108960, Note_on_c, 0, 71, 100
2, 109080, Note_on_c, 0, 71, 0
2, 109080, Note_on_c, 0, 72, 100
2, 109200, Note_on_c, 0, 72, 0
2, 109200, Note_on_c, 0, 71, 100
2, 109320, Note_on_c, 0, 71, 0
2, 109320, Note_on_c, 0, 73, 100
2, 109440, Note_on_c, 0, 73, 0
2, 109440, Note_on_c, 0, 74, 100
2, 109560, Note_on_c, 0, 74, 0
2, 109560, Note_on_c, 0, 73, 100
2, 109680, Note_on_c, 0, 73, 0
2, 109680, Note_on_c, 0, 74, 100
2, 109800, Note_on_c, 0, 74, 0
2, 109800, Note_on_c, 0, 76, 100
2, 109920, Note_on_c, 0, 76, 0
2, 109920, Note_on_c, 0, 74, 100
2, 110040, Note_on_c, 0, 74, 0
2, 110040, Note_on_c, 0, 76, 100
2, 110160, Note_on_c, 0, 76, 0
2, 110160, Note_on_c, 0, 77, 100
2, 110280, Note_on_c, 0, 77, 0
2, 110520, Note_on_c, 0, 76, 100
2, 110640, Note_on_c, 0, 76, 0
2, 110880, Note_on_c, 0, 74, 100
2, 111000, Note_on_c, 0, 74, 0
2, 111240, Note_on_c, 0, 74, 100
2, 111360, Note_on_c, 0, 74, 0
2, 111360, Note_on_c, 0, 73, 100
2, 111840, Note_on_c, 0, 73, 0
2, 111840, Note_on_c, 0, 69, 100
2, 111960, Note_on_c, 0, 69, 0
2, 111960, Note_on_c, 0, 71, 100
2, 112200, Note_on_c, 0, 71, 0
2, 112200, Note_on_c, 0, 73, 100
2, 112320, Note_on_c, 0, 73, 0
2, 112320, Note_on_c, 0, 74, 100
2, 112440, Note_on_c, 0, 74, 0
2, 112440, Note_on_c, 0, 72, 100
2, 112560, Note_on_c, 0, 72, 0
2, 112560, Note_on_c, 0, 71, 100
2, 112680, Note_on_c, 0, 71, 0
2, 112680, Note_on_c, 0, 72, 100
2, 112920, Note_on_c, 0, 72, 0
2, 112920, Note_on_c, 0, 81, 100
2, 113040, Note_on_c, 0, 81, 0
2, 113040, Note_on_c, 0, 80, 100
2, 113280, Note_on_c, 0, 80, 0
2, 113280, Note_on_c, 0, 74, 100
2, 113400, Note_on_c, 0, 74, 0
2, 113400, Note_on_c, 0, 76, 100
2, 113640, Note_on_c, 0, 76, 0
2, 113640, Note_on_c, 0, 79, 100
2, 113760, Note_on_c, 0, 79, 0
2, 113760, Note_on_c, 0, 77, 100
2, 113880, Note_on_c, 0, 77, 0
2, 113880, Note_on_c, 0, 76, 100
2, 114000, Note_on_c, 0, 76, 0
2, 114000, Note_on_c, 0, 74, 100
2, 114120, Note_on_c, 0, 74, 0
2, 114120, Note_on_c, 0, 73, 100
2, 114360, Note_on_c, 0, 73, 0
2, 114360, Note_on_c, 0, 82, 100
2, 114480, Note_on_c, 0, 82, 0
2, 114480, Note_on_c, 0, 81, 100
2, 114600, Note_on_c, 0, 81, 0
2, 114600, Note_on_c, 0, 77, 100
2, 114720, Note_on_c, 0, 77, 0
2, 114720, Note_on_c, 0, 74, 100
2, 114840, Note_on_c, 0, 74, 0
2, 114840, Note_on_c, 0, 74, 100
2, 114960, Note_on_c, 0, 74, 0
2, 114960, Note_on_c, 0, 79, 100
2, 115080, Note_on_c, 0, 79, 0
2, 115080, Note_on_c, 0, 72, 100
2, 115200, Note_on_c, 0, 72, 0
2, 115200, Note_on_c, 0, 72, 100
2, 115320, Note_on_c, 0, 72, 0
2, 115320, Note_on_c, 0, 77, 100
2, 115440, Note_on_c, 0, 77, 0
2, 115440, Note_on_c, 0, 70, 100
2, 115560, Note_on_c, 0, 70, 0
2, 115560, Note_on_c, 0, 70, 100
2, 115680, Note_on_c, 0, 70, 0
2, 115680, Note_on_c, 0, 69, 100
2, 115800, Note_on_c, 0, 69, 0
2, 115800, Note_on_c, 0, 67, 100
2, 115920, Note_on_c, 0, 67, 0
2, 115920, Note_on_c, 0, 69, 100
2, 116040, Note_on_c, 0, 69, 0
2, 116040, Note_on_c, 0, 73, 100
2, 116160, Note_on_c, 0, 73, 0
2, 116160, Note_on_c, 0, 76, 100
2, 116280, Note_on_c, 0, 76, 0
2, 116280, Note_on_c, 0, 79, 100
2, 116400, Note_on_c, 0, 79, 0
2, 116400, Note_on_c, 0, 77, 100
2, 116520, Note_on_c, 0, 77, 0
2, 116520, Note_on_c, 0, 76, 100
2, 116640, Note_on_c, 0, 76, 0
2, 116640, Note_on_c, 0, 77, 100
2, 116760, Note_on_c, 0, 77, 0
2, 116760, Note_on_c, 0, 76, 100
2, 116880, Note_on_c, 0, 76, 0
2, 116880, Note_on_c, 0, 74, 100
2, 117000, Note_on_c, 0, 74, 0
2, 117000, Note_on_c, 0, 76, 100
2, 117120, Note_on_c, 0, 76, 0
2, 117120, Note_on_c, 0, 74, 100
2, 117240, Note_on_c, 0, 74, 0
2, 117240, Note_on_c, 0, 72, 100
2, 117360, Note_on_c, 0, 72, 0
2, 117360, Note_on_c, 0, 74, 100
2, 117480, Note_on_c, 0, 74, 0
2, 117480, Note_on_c, 0, 72, 100
2, 117600, Note_on_c, 0, 72, 0
2, 117600, Note_on_c, 0, 71, 100
2, 117720, Note_on_c, 0, 71, 0
2, 117720, Note_on_c, 0, 72, 100
2, 117840, Note_on_c, 0, 72, 0
2, 117840, Note_on_c, 0, 74, 100
2, 117960, Note_on_c, 0, 74, 0
2, 117960, Note_on_c, 0, 76, 100
2, 118080, Note_on_c, 0, 76, 0
2, 118080, Note_on_c, 0, 74, 100
2, 118200, Note_on_c, 0, 74, 0
2, 118200, Note_on_c, 0, 76, 100
2, 118320, Note_on_c, 0, 76, 0
2, 118320, Note_on_c, 0, 77, 100
2, 118440, Note_on_c, 0, 77, 0
2, 118440, Note_on_c, 0, 76, 100
2, 118560, Note_on_c, 0, 76, 0
2, 118560, Note_on_c, 0, 77, 100
2, 118680, Note_on_c, 0, 77, 0
2, 118680, Note_on_c, 0, 79, 100
2, 118800, Note_on_c, 0, 79, 0
2, 118800, Note_on_c, 0, 77, 100
2, 118920, Note_on_c, 0, 77, 0
2, 118920, Note_on_c, 0, 74, 100
2, 119040, Note_on_c, 0, 74, 0
2, 119040, Note_on_c, 0, 81, 100
2, 119160, Note_on_c, 0, 81, 0
2, 119160, Note_on_c, 0, 70, 100
2, 119280, Note_on_c, 0, 70, 0
2, 119280, Note_on_c, 0, 76, 100
2, 119400, Note_on_c, 0, 76, 0
2, 119400, Note_on_c, 0, 79, 100
2, 119520, Note_on_c, 0, 79, 0
2, 119520, Note_on_c, 0, 69, 100
2, 119640, Note_on_c, 0, 69, 0
2, 119640, Note_on_c, 0, 74, 100
2, 119760, Note_on_c, 0, 74, 0
2, 119760, Note_on_c, 0, 77, 100
2, 119880, Note_on_c, 0, 77, 0
2, 119880, Note_on_c, 0, 67, 100
2, 120000, Note_on_c, 0, 67, 0
2, 120000, Note_on_c, 0, 73, 100
2, 120120, Note_on_c, 0, 73, 0
2, 120120, Note_on_c, 0, 76, 100
2, 120240, Note_on_c, 0, 76, 0
2, 120240, Note_on_c, 0, 65, 100
2, 120360, Note_on_c, 0, 65, 0
2, 120360, Note_on_c, 0, 69, 100
2, 120480, Note_on_c, 0, 69, 0
2, 120480, Note_on_c, 0, 67, 100
2, 120600, Note_on_c, 0, 67, 0
2, 120600, Note_on_c, 0, 70, 100
2, 120720, Note_on_c, 0, 70, 0
2, 120720, Note_on_c, 0, 69, 100
2, 120840, Note_on_c, 0, 69, 0
2, 120840, Note_on_c, 0, 73, 100
2, 120960, Note_on_c, 0, 73, 0
2, 120960, Note_on_c, 0, 74, 100
2, 121080, Note_on_c, 0, 74, 0
2, 121080, Note_on_c, 0, 76, 100
2, 121200, Note_on_c, 0, 76, 0
2, 121200, Note_on_c, 0, 77, 100
2, 121320, Note_on_c, 0, 77, 0
2, 121320, Note_on_c, 0, 69, 100
2, 121380, Note_on_c, 0, 69, 0
2, 121380, Note_on_c, 0, 68, 100
2, 121440, Note_on_c, 0, 68, 0
2, 121440, Note_on_c, 0, 65, 100
2, 121500, Note_on_c, 0, 65, 0
2, 121500, Note_on_c, 0, 68, 100
2, 121560, Note_on_c, 0, 68, 0
2, 121560, Note_on_c, 0, 69, 100
2, 121620, Note_on_c, 0, 69, 0
2, 121620, Note_on_c, 0, 68, 100
2, 121680, Note_on_c, 0, 68, 0
2, 121680, Note_on_c, 0, 69, 100
2, 121740, Note_on_c, 0, 69, 0
2, 121740, Note_on_c, 0, 68, 100
2, 121800, Note_on_c, 0, 68, 0
2, 121800, Note_on_c, 0, 69, 100
2, 121860, Note_on_c, 0, 69, 0
2, 121860, Note_on_c, 0, 68, 100
2, 121920, Note_on_c, 0, 68, 0
2, 121920, Note_on_c, 0, 65, 100
2, 121980, Note_on_c, 0, 65, 0
2, 121980, Note_on_c, 0, 68, 100
2, 122040, Note_on_c, 0, 68, 0
2, 122040, Note_on_c, 0, 69, 100
2, 122280, Note_on_c, 0, 69, 0
2, 122640, Note_on_c, 0, 71, 100
2, 122760, Note_on_c, 0, 71, 0
2, 122760, Note_on_c, 0, 72, 100
2, 123000, Note_on_c, 0, 72, 0
2, 123000, Note_on_c, 0, 69, 100
2, 123120, Note_on_c, 0, 69, 0
2, 123120, Note_on_c, 0, 74, 100
2, 123360, Note_on_c, 0, 74, 0
2, 123360, Note_on_c, 0, 77, 100
2, 123480, Note_on_c, 0, 77, 0
2, 123480, Note_on_c, 0, 77, 100
2, 123600, Note_on_c, 0, 77, 0
2, 123600, Note_on_c, 0, 76, 100
2, 123720, Note_on_c, 0, 76, 0
2, 123720, Note_on_c, 0, 74, 100
2, 123840, Note_on_c, 0, 74, 0
2, 123840, Note_on_c, 0, 72, 100
2, 123960, Note_on_c, 0, 72, 0
2, 123960, Note_on_c, 0, 74, 100
2, 124080, Note_on_c, 0, 74, 0
2, 124080, Note_on_c, 0, 71, 100
2, 124200, Note_on_c, 0, 71, 0
2, 124200, Note_on_c, 0, 76, 100
2, 124560, Note_on_c, 0, 76, 0
2, 124560, Note_on_c, 0, 69, 100
2, 124920, Note_on_c, 0, 69, 0
2, 125280, Note_on_c, 0, 69, 100
2, 125640, Note_on_c, 0, 69, 0
2, 125640, Note_on_c, 0, 76, 100
2, 125760, Note_on_c, 0, 76, 0
2, 125760, Note_on_c, 0, 77, 100
2, 125880, Note_on_c, 0, 77, 0
2, 125880, Note_on_c, 0, 76, 100
2, 126000, Note_on_c, 0, 76, 0
2, 126000, Note_on_c, 0, 74, 100
2, 126120, Note_on_c, 0, 74, 0
2, 126120, Note_on_c, 0, 76, 100
2, 126240, Note_on_c, 0, 76, 0
2, 126240, Note_on_c, 0, 74, 100
2, 126360, Note_on_c, 0, 74, 0
2, 126360, Note_on_c, 0, 72, 100
2, 126480, Note_on_c, 0, 72, 0
2, 126480, Note_on_c, 0, 74, 100
2, 126600, Note_on_c, 0, 74, 0
2, 126600, Note_on_c, 0, 72, 100
2, 126720, Note_on_c, 0, 72, 0
2, 126720, Note_on_c, 0, 71, 100
2, 126840, Note_on_c, 0, 71, 0
2, 126840, Note_on_c, 0, 72, 100
2, 126960, Note_on_c, 0, 72, 0
2, 126960, Note_on_c, 0, 71, 100
2, 127080, Note_on_c, 0, 71, 0
2, 127080, Note_on_c, 0, 69, 100
2, 127200, Note_on_c, 0, 69, 0
2, 127200, Note_on_c, 0, 71, 100
2, 127320, Note_on_c, 0, 71, 0
2, 127320, Note_on_c, 0, 69, 100
2, 127440, Note_on_c, 0, 69, 0
2, 127440, Note_on_c, 0, 68, 100
2, 127560, Note_on_c, 0, 68, 0
2, 127800, Note_on_c, 0, 69, 100
2, 127920, Note_on_c, 0, 69, 0
2, 128160, Note_on_c, 0, 71, 100
2, 128280, Note_on_c, 0, 71, 0
2, 128520, Note_on_c, 0, 71, 100
2, 128640, Note_on_c, 0, 71, 0
2, 128640, Note_on_c, 0, 72, 100
2, 129120, Note_on_c, 0, 72, 0
2, 129120, Note_on_c, 0, 74, 100
2, 129240, Note_on_c, 0, 74, 0
2, 129240, Note_on_c, 0, 72, 100
2, 129480, Note_on_c, 0, 72, 0
2, 129480, Note_on_c, 0, 71, 100
2, 129600, Note_on_c, 0, 71, 0
2, 129600, Note_on_c, 0, 69, 100
2, 129720, Note_on_c, 0, 69, 0
2, 129720, Note_on_c, 0, 64, 100
2, 129840, Note_on_c, 0, 64, 0
2, 129840, Note_on_c, 0, 69, 100
2, 129960, Note_on_c, 0, 69, 0
2, 129960, Note_on_c, 0, 72, 100
2, 130080, Note_on_c, 0, 72, 0
2, 130080, Note_on_c, 0, 69, 100
2, 130200, Note_on_c, 0, 69, 0
2, 130200, Note_on_c, 0, 72, 100
2, 130320, Note_on_c, 0, 72, 0
2, 130320, Note_on_c, 0, 76, 100
2, 130560, Note_on_c, 0, 76, 0
2, 130560, Note_on_c, 0, 68, 100
2, 130680, Note_on_c, 0, 68, 0
2, 130680, Note_on_c, 0, 69, 100
2, 130920, Note_on_c, 0, 69, 0
2, 130920, Note_on_c, 0, 77, 100
2, 131040, Note_on_c, 0, 77, 0
2, 131040, Note_on_c, 0, 67, 100
2, 131280, Note_on_c, 0, 67, 0
2, 131280, Note_on_c, 0, 76, 100
2, 131400, Note_on_c, 0, 76, 0
2, 131400, Note_on_c, 0, 65, 100
2, 131640, Note_on_c, 0, 65, 0
2, 131640, Note_on_c, 0, 74, 100
2, 131760, Note_on_c, 0, 74, 0
2, 131760, Note_on_c, 0, 64, 100
2, 131880, Note_on_c, 0, 64, 0
2, 131880, Note_on_c, 0, 71, 100
2, 132000, Note_on_c, 0, 71, 0
2, 132000, Note_on_c, 0, 74, 100
2, 132120, Note_on_c, 0, 74, 0
2, 132120, Note_on_c, 0, 72, 100
2, 132240, Note_on_c, 0, 72, 0
2, 132240, Note_on_c, 0, 71, 100
2, 132360, Note_on_c, 0, 71, 0
2, 132360, Note_on_c, 0, 69, 100
2, 132480, Note_on_c, 0, 69, 0
2, 132480, Note_on_c, 0, 68, 100
2, 132600, Note_on_c, 0, 68, 0
2, 132600, Note_on_c, 0, 74, 100
2, 132720, Note_on_c, 0, 74, 0
2, 132720, Note_on_c, 0, 77, 100
2, 132840, Note_on_c, 0, 77, 0
2, 132840, Note_on_c, 0, 76, 100
2, 132960, Note_on_c, 0, 76, 0
2, 132960, Note_on_c, 0, 74, 100
2, 133080, Note_on_c, 0, 74, 0
2, 133080, Note_on_c, 0, 72, 100
2, 133200, Note_on_c, 0, 72, 0
2, 133200, Note_on_c, 0, 71, 100
2, 133320, Note_on_c, 0, 71, 0
2, 133320, Note_on_c, 0, 69, 100
2, 133440, Note_on_c, 0, 69, 0
2, 133440, Note_on_c, 0, 68, 100
2, 133560, Note_on_c, 0, 68, 0
2, 133560, Note_on_c, 0, 69, 100
2, 133680, Note_on_c, 0, 69, 0
2, 133680, Note_on_c, 0, 64, 100
2, 133800, Note_on_c, 0, 64, 0
2, 133800, Note_on_c, 0, 71, 100
2, 133920, Note_on_c, 0, 71, 0
2, 133920, Note_on_c, 0, 72, 100
2, 134040, Note_on_c, 0, 72, 0
2, 134040, Note_on_c, 0, 71, 100
2, 134160, Note_on_c, 0, 71, 0
2, 134160, Note_on_c, 0, 69, 100
2, 134280, Note_on_c, 0, 69, 0
2, 134280, Note_on_c, 0, 76, 100
2, 134760, Note_on_c, 0, 76, 0
2, 134760, Note_on_c, 0, 71, 100
2, 134880, Note_on_c, 0, 71, 0
2, 134880, Note_on_c, 0, 74, 100
2, 135000, Note_on_c, 0, 74, 0
2, 135000, Note_on_c, 0, 74, 100
2, 135120, Note_on_c, 0, 74, 0
2, 135120, Note_on_c, 0, 72, 100
2, 135240, Note_on_c, 0, 72, 0
2, 135240, Note_on_c, 0, 81, 100
2, 135330, Note_on_c, 0, 81, 0
2, 135360, Note_on_c, 0, 72, 100
2, 135480, Note_on_c, 0, 72, 0
2, 135480, Note_on_c, 0, 71, 100
2, 135600, Note_on_c, 0, 71, 0
2, 135600, Note_on_c, 0, 79, 100
2, 135690, Note_on_c, 0, 79, 0
2, 135720, Note_on_c, 0, 71, 100
2, 135840, Note_on_c, 0, 71, 0
2, 135840, Note_on_c, 0, 69, 100
2, 135960, Note_on_c, 0, 69, 0
2, 135960, Note_on_c, 0, 77, 100
2, 136050, Note_on_c, 0, 77, 0
2, 136080, Note_on_c, 0, 69, 100
2, 136200, Note_on_c, 0, 69, 0
2, 136200, Note_on_c, 0, 68, 100
2, 136320, Note_on_c, 0, 68, 0
2, 136320, Note_on_c, 0, 71, 100
2, 136410, Note_on_c, 0, 71, 0
2, 136440, Note_on_c, 0, 64, 100
2, 136680, Note_on_c, 0, 64, 0
2, 137520, Note_on_c, 0, 74, 100
2, 138000, Note_on_c, 0, 74, 0
2, 138000, Note_on_c, 0, 72, 100
2, 138120, Note_on_c, 0, 72, 0
2, 138120, Note_on_c, 0, 74, 100
2, 138240, Note_on_c, 0, 74, 0
2, 138240, Note_on_c, 0, 76, 100
2, 138360, Note_on_c, 0, 76, 0
2, 138360, Note_on_c, 0, 74, 100
2, 138480, Note_on_c, 0, 74, 0
2, 138480, Note_on_c, 0, 72, 100
2, 138600, Note_on_c, 0, 72, 0
2, 138600, Note_on_c, 0, 71, 100
2, 138720, Note_on_c, 0, 71, 0
2, 138720, Note_on_c, 0, 72, 100
2, 138840, Note_on_c, 0, 72, 0
2, 138840, Note_on_c, 0, 74, 100
2, 138960, Note_on_c, 0, 74, 0
2, 138960, Note_on_c, 0, 76, 100
2, 139080, Note_on_c, 0, 76, 0
2, 139080, Note_on_c, 0, 78, 100
2, 139200, Note_on_c, 0, 78, 0
2, 139200, Note_on_c, 0, 80, 100
2, 139320, Note_on_c, 0, 80, 0
2, 139320, Note_on_c, 0, 81, 100
2, 139440, Note_on_c, 0, 81, 0
2, 139440, Note_on_c, 0, 76, 100
2, 139560, Note_on_c, 0, 76, 0
2, 139560, Note_on_c, 0, 72, 100
2, 139680, Note_on_c, 0, 72, 0
2, 139680, Note_on_c, 0, 74, 100
2, 139800, Note_on_c, 0, 74, 0
2, 139800, Note_on_c, 0, 79, 100
2, 139920, Note_on_c, 0, 79, 0
2, 139920, Note_on_c, 0, 71, 100
2, 140040, Note_on_c, 0, 71, 0
2, 140040, Note_on_c, 0, 72, 100
2, 140160, Note_on_c, 0, 72, 0
2, 140160, Note_on_c, 0, 77, 100
2, 140280, Note_on_c, 0, 77, 0
2, 140280, Note_on_c, 0, 69, 100
2, 140400, Note_on_c, 0, 69, 0
2, 140400, Note_on_c, 0, 71, 100
2, 140520, Note_on_c, 0, 71, 0
2, 140520, Note_on_c, 0, 76, 100
2, 140640, Note_on_c, 0, 76, 0
2, 140640, Note_on_c, 0, 74, 100
2, 140760, Note_on_c, 0, 74, 0
2, 140760, Note_on_c, 0, 72, 100
2, 140880, Note_on_c, 0, 72, 0
2, 140880, Note_on_c, 0, 71, 100
2, 141000, Note_on_c, 0, 71, 0
2, 141000, Note_on_c, 0, 69, 100
2, 141120, Note_on_c, 0, 69, 0
2, 141120, Note_on_c, 0, 71, 100
2, 141240, Note_on_c, 0, 71, 0
2, 141240, Note_on_c, 0, 69, 100
2, 141360, Note_on_c, 0, 69, 0
2, 141360, Note_on_c, 0, 68, 100
2, 141480, Note_on_c, 0, 68, 0
2, 141480, Note_on_c, 0, 69, 100
2, 141600, Note_on_c, 0, 69, 0
2, 141600, Note_on_c, 0, 68, 100
2, 141720, Note_on_c, 0, 68, 0
2, 141720, Note_on_c, 0, 66, 100
2, 141840, Note_on_c, 0, 66, 0
2, 141840, Note_on_c, 0, 68, 100
2, 141960, Note_on_c, 0, 68, 0
2, 141960, Note_on_c, 0, 64, 100
2, 142080, Note_on_c, 0, 64, 0
2, 142080, Note_on_c, 0, 68, 100
2, 142200, Note_on_c, 0, 68, 0
2, 142200, Note_on_c, 0, 71, 100
2, 142320, Note_on_c, 0, 71, 0
2, 142320, Note_on_c, 0, 76, 100
2, 142440, Note_on_c, 0, 76, 0
2, 142440, Note_on_c, 0, 74, 100
2, 142560, Note_on_c, 0, 74, 0
2, 142560, Note_on_c, 0, 72, 100
2, 142680, Note_on_c, 0, 72, 0
2, 142680, Note_on_c, 0, 71, 100
2, 142800, Note_on_c, 0, 71, 0
2, 142800, Note_on_c, 0, 69, 100
2, 142920, Note_on_c, 0, 69, 0
2, 142920, Note_on_c, 0, 74, 100
2, 143400, Note_on_c, 0, 74, 0
2, 143400, Note_on_c, 0, 72, 100
2, 143520, Note_on_c, 0, 72, 0
2, 143520, Note_on_c, 0, 71, 100
2, 143640, Note_on_c, 0, 71, 0
2, 143640, Note_on_c, 0, 72, 100
2, 143760, Note_on_c, 0, 72, 0
2, 144000, Note_on_c, 0, 77, 100
2, 144120, Note_on_c, 0, 77, 0
2, 144360, Note_on_c, 0, 76, 100
2, 144480, Note_on_c, 0, 76, 0
2, 144720, Note_on_c, 0, 74, 100
2, 144960, Note_on_c, 0, 74, 0
2, 144960, Note_on_c, 0, 68, 100
2, 145080, Note_on_c, 0, 68, 0
2, 145080, Note_on_c, 0, 69, 100
2, 145320, Note_on_c, 0, 69, 0
2, 145320, Note_on_c, 0, 72, 100
2, 145440, Note_on_c, 0, 72, 0
2, 145440, Note_on_c, 0, 68, 100
2, 145500, Note_on_c, 0, 68, 0
2, 145500, Note_on_c, 0, 65, 100
2, 145560, Note_on_c, 0, 65, 0
2, 145560, Note_on_c, 0, 68, 100
2, 145620, Note_on_c, 0, 68, 0
2, 145620, Note_on_c, 0, 65, 100
2, 145680, Note_on_c, 0, 65, 0
2, 145680, Note_on_c, 0, 64, 100
2, 145740, Note_on_c, 0, 64, 0
2, 145740, Note_on_c, 0, 65, 100
2, 145800, Note_on_c, 0, 65, 0
2, 145800, Note_on_c, 0, 64, 100
2, 146040, Note_on_c, 0, 64, 0
2, 147000, Note_on_c, 0, 62, 100
2, 147120, Note_on_c, 0, 62, 0
2, 147120, Note_on_c, 0, 64, 100
2, 147240, Note_on_c, 0, 64, 0
2, 147240, Note_on_c, 0, 65, 100
2, 147360, Note_on_c, 0, 65, 0
2, 147360, Note_on_c, 0, 67, 100
2, 147480, Note_on_c, 0, 67, 0
2, 147480, Note_on_c, 0, 65, 100
2, 147600, Note_on_c, 0, 65, 0
2, 147600, Note_on_c, 0, 64, 100
2, 148080, Note_on_c, 0, 64, 0
2, 148080, Note_on_c, 0, 65, 100
2, 148200, Note_on_c, 0, 65, 0
2, 148200, Note_on_c, 0, 67, 100
2, 148320, Note_on_c, 0, 67, 0
2, 148320, Note_on_c, 0, 69, 100
2, 148440, Note_on_c, 0, 69, 0
2, 148440, Note_on_c, 0, 70, 100
2, 148560, Note_on_c, 0, 70, 0
2, 148560, Note_on_c, 0, 69, 100
2, 148680, Note_on_c, 0, 69, 0
2, 148680, Note_on_c, 0, 67, 100
2, 148800, Note_on_c, 0, 67, 0
2, 148800, Note_on_c, 0, 69, 100
2, 148920, Note_on_c, 0, 69, 0
2, 148920, Note_on_c, 0, 67, 100
2, 149040, Note_on_c, 0, 67, 0
2, 149040, Note_on_c, 0, 65, 100
2, 149160, Note_on_c, 0, 65, 0
2, 149160, Note_on_c, 0, 67, 100
2, 149280, Note_on_c, 0, 67, 0
2, 149280, Note_on_c, 0, 65, 100
2, 149400, Note_on_c, 0, 65, 0
2, 149400, Note_on_c, 0, 64, 100
2, 149520, Note_on_c, 0, 64, 0
2, 149520, Note_on_c, 0, 65, 100
2, 149640, Note_on_c, 0, 65, 0
2, 149640, Note_on_c, 0, 64, 100
2, 149760, Note_on_c, 0, 64, 0
2, 149760, Note_on_c, 0, 62, 100
2, 149880, Note_on_c, 0, 62, 0
2, 149880, Note_on_c, 0, 64, 100
2, 150000, Note_on_c, 0, 64, 0
2, 150000, Note_on_c, 0, 62, 100
2, 150120, Note_on_c, 0, 62, 0
2, 150120, Note_on_c, 0, 61, 100
2, 150240, Note_on_c, 0, 61, 0
2, 150480, Note_on_c, 0, 62, 100
2, 150600, Note_on_c, 0, 62, 0
2, 150840, Note_on_c, 0, 64, 100
2, 150960, Note_on_c, 0, 64, 0
2, 151200, Note_on_c, 0, 65, 100
2, 151800, Note_on_c, 0, 65, 0
2, 151800, Note_on_c, 0, 69, 100
2, 151920, Note_on_c, 0, 69, 0
2, 151920, Note_on_c, 0, 69, 100
2, 151980, Note_on_c, 0, 69, 0
2, 151980, Note_on_c, 0, 67, 100
2, 152040, Note_on_c, 0, 67, 0
2, 152040, Note_on_c, 0, 69, 100
2, 152100, Note_on_c, 0, 69, 0
2, 152100, Note_on_c, 0, 67, 100
2, 152160, Note_on_c, 0, 67, 0
2, 152160, Note_on_c, 0, 65, 100
2, 152280, Note_on_c, 0, 65, 0
2, 152280, Note_on_c, 0, 67, 100
2, 152400, Note_on_c, 0, 67, 0
2, 152400, Note_on_c, 0, 65, 100
2, 152520, Note_on_c, 0, 65, 0
2, 152520, Note_on_c, 0, 64, 100
2, 152640, Note_on_c, 0, 64, 0
2, 152640, Note_on_c, 0, 74, 100
2, 152700, Note_on_c, 0, 74, 0
2, 152700, Note_on_c, 0, 73, 100
2, 152760, Note_on_c, 0, 73, 0
2, 152760, Note_on_c, 0, 70, 100
2, 152820, Note_on_c, 0, 70, 0
2, 152820, Note_on_c, 0, 73, 100
2, 152880, Note_on_c, 0, 73, 0
2, 152880, Note_on_c, 0, 74, 100
2, 152940, Note_on_c, 0, 74, 0
2, 152940, Note_on_c, 0, 73, 100
2, 153000, Note_on_c, 0, 73, 0
2, 153000, Note_on_c, 0, 74, 100
2, 153060, Note_on_c, 0, 74, 0
2, 153060, Note_on_c, 0, 73, 100
2, 153120, Note_on_c, 0, 73, 0
2, 153120, Note_on_c, 0, 74, 100
2, 153180, Note_on_c, 0, 74, 0
2, 153180, Note_on_c, 0, 73, 100
2, 153240, Note_on_c, 0, 73, 0
2, 153240, Note_on_c, 0, 70, 100
2, 153300, Note_on_c, 0, 70, 0
2, 153300, Note_on_c, 0, 73, 100
2, 153360, Note_on_c, 0, 73, 0
2, 153360, Note_on_c, 0, 74, 100
2, 153480, Note_on_c, 0, 74, 0
2, 153480, Note_on_c, 0, 70, 100
2, 153600, Note_on_c, 0, 70, 0
2, 153600, Note_on_c, 0, 79, 100
2, 153720, Note_on_c, 0, 79, 0
2, 153720, Note_on_c, 0, 72, 100
2, 153840, Note_on_c, 0, 72, 0
2, 153840, Note_on_c, 0, 69, 100
2, 153960, Note_on_c, 0, 69, 0
2, 153960, Note_on_c, 0, 77, 100
2, 154080, Note_on_c, 0, 77, 0
2, 154080, Note_on_c, 0, 70, 100
2, 154200, Note_on_c, 0, 70, 0
2, 154200, Note_on_c, 0, 67, 100
2, 154320, Note_on_c, 0, 67, 0
2, 154320, Note_on_c, 0, 76, 100
2, 154440, Note_on_c, 0, 76, 0
2, 154440, Note_on_c, 0, 69, 100
2, 154560, Note_on_c, 0, 69, 0
2, 154560, Note_on_c, 0, 67, 100
2, 154680, Note_on_c, 0, 67, 0
2, 154680, Note_on_c, 0, 76, 100
2, 154800, Note_on_c, 0, 76, 0
2, 154800, Note_on_c, 0, 69, 100
2, 154920, Note_on_c, 0, 69, 0
2, 154920, Note_on_c, 0, 65, 100
2, 155040, Note_on_c, 0, 65, 0
2, 155040, Note_on_c, 0, 74, 100
2, 155160, Note_on_c, 0, 74, 0
2, 155160, Note_on_c, 0, 67, 100
2, 155280, Note_on_c, 0, 67, 0
2, 155280, Note_on_c, 0, 64, 100
2, 155400, Note_on_c, 0, 64, 0
2, 155400, Note_on_c, 0, 73, 100
2, 155520, Note_on_c, 0, 73, 0
2, 155520, Note_on_c, 0, 74, 100
2, 155640, Note_on_c, 0, 74, 0
2, 155640, Note_on_c, 0, 69, 100
2, 155760, Note_on_c, 0, 69, 0
2, 155760, Note_on_c, 0, 65, 100
2, 155880, Note_on_c, 0, 65, 0
2, 155880, Note_on_c, 0, 62, 100
2, 156000, Note_on_c, 0, 62, 0
2, 156000, Note_on_c, 0, 64, 100
2, 156120, Note_on_c, 0, 64, 0
2, 156120, Note_on_c, 0, 65, 100
2, 156240, Note_on_c, 0, 65, 0
2, 156240, Note_on_c, 0, 64, 100
2, 156360, Note_on_c, 0, 64, 0
2, 156360, Note_on_c, 0, 65, 100
2, 156480, Note_on_c, 0, 65, 0
2, 156480, Note_on_c, 0, 62, 100
2, 156600, Note_on_c, 0, 62, 0
2, 156600, Note_on_c, 0, 64, 100
2, 157080, Note_on_c, 0, 64, 0
2, 157080, Note_on_c, 0, 65, 100
2, 157200, Note_on_c, 0, 65, 0
2, 157200, Note_on_c, 0, 67, 100
2, 157320, Note_on_c, 0, 67, 0
2, 157320, Note_on_c, 0, 65, 100
2, 157440, Note_on_c, 0, 65, 0
2, 157440, Note_on_c, 0, 67, 100
2, 157560, Note_on_c, 0, 67, 0
2, 157560, Note_on_c, 0, 64, 100
2, 157680, Note_on_c, 0, 64, 0
2, 157680, Note_on_c, 0, 65, 100
2, 157800, Note_on_c, 0, 65, 0
2, 158040, Note_on_c, 0, 64, 100
2, 158160, Note_on_c, 0, 64, 0
2, 158400, Note_on_c, 0, 62, 100
2, 158520, Note_on_c, 0, 62, 0
2, 158760, Note_on_c, 0, 61, 100
2, 158880, Note_on_c, 0, 61, 0
2, 159120, Note_on_c, 0, 62, 100
2, 159240, Note_on_c, 0, 62, 0
2, 159480, Note_on_c, 0, 64, 100
2, 159600, Note_on_c, 0, 64, 0
2, 159840, Note_on_c, 0, 65, 100
2, 159960, Note_on_c, 0, 65, 0
2, 159960, Note_on_c, 0, 64, 100
2, 160080, Note_on_c, 0, 64, 0
2, 160080, Note_on_c, 0, 62, 100
2, 160200, Note_on_c, 0, 62, 0
2, 160200, Note_on_c, 0, 70, 100
2, 160320, Note_on_c, 0, 70, 0
2, 160320, Note_on_c, 0, 69, 100
2, 160440, Note_on_c, 0, 69, 0
2, 160440, Note_on_c, 0, 67, 100
2, 160560, Note_on_c, 0, 67, 0
2, 160560, Note_on_c, 0, 73, 100
2, 160800, Note_on_c, 0, 73, 0
2, 161040, Note_on_c, 0, 67, 100
2, 161160, Note_on_c, 0, 67, 0
2, 161160, Note_on_c, 0, 62, 100
2, 161280, Note_on_c, 0, 62, 0
2, 161280, Note_on_c, 0, 61, 100
2, 161400, Note_on_c, 0, 61, 0
2, 161400, Note_on_c, 0, 62, 100
2, 161520, Note_on_c, 0, 62, 0
2, 161520, Note_on_c, 0, 64, 100
2, 161640, Note_on_c, 0, 64, 0
2, 161640, Note_on_c, 0, 57, 100
2, 161760, Note_on_c, 0, 57, 0
2, 161760, Note_on_c, 0, 59, 100
2, 161880, Note_on_c, 0, 59, 0
2, 161880, Note_on_c, 0, 61, 100
2, 162000, Note_on_c, 0, 61, 0
2, 162000, Note_on_c, 0, 62, 100
2, 162120, Note_on_c, 0, 62, 0
2, 162120, Note_on_c, 0, 55, 100
2, 162240, Note_on_c, 0, 55, 0
2, 162240, Note_on_c, 0, 58, 100
2, 162360, Note_on_c, 0, 58, 0
2, 162360, Note_on_c, 0, 60, 100
2, 162480, Note_on_c, 0, 60, 0
2, 162480, Note_on_c, 0, 53, 100
2, 162600, Note_on_c, 0, 53, 0
2, 162600, Note_on_c, 0, 57, 100
2, 162720, Note_on_c, 0, 57, 0
2, 162720, Note_on_c, 0, 58, 100
2, 162840, Note_on_c, 0, 58, 0
2, 162840, Note_on_c, 0, 52, 100
2, 162960, Note_on_c, 0, 52, 0
2, 162960, Note_on_c, 0, 55, 100
2, 163080, Note_on_c, 0, 55, 0
2, 163080, Note_on_c, 0, 57, 100
2, 163200, Note_on_c, 0, 57, 0
2, 163200, Note_on_c, 0, 69, 100
2, 163320, Note_on_c, 0, 69, 0
2, 163320, Note_on_c, 0, 67, 100
2, 163440, Note_on_c, 0, 67, 0
2, 163440, Note_on_c, 0, 65, 100
2, 163560, Note_on_c, 0, 65, 0
2, 163560, Note_on_c, 0, 74, 100
2, 163680, Note_on_c, 0, 74, 0
2, 163680, Note_on_c, 0, 72, 100
2, 163800, Note_on_c, 0, 72, 0
2, 163800, Note_on_c, 0, 70, 100
2, 163920, Note_on_c, 0, 70, 0
2, 163920, Note_on_c, 0, 69, 100
2, 164040, Note_on_c, 0, 69, 0
2, 164040, Note_on_c, 0, 70, 100
2, 164160, Note_on_c, 0, 70, 0
2, 164160, Note_on_c, 0, 69, 100
2, 164520, Note_on_c, 0, 69, 0
2, 164520, Note_on_c, 0, 62, 100
2, 164640, Note_on_c, 0, 62, 0
2, 164640, Note_on_c, 0, 61, 100
2, 164760, Note_on_c, 0, 61, 0
2, 164760, Note_on_c, 0, 62, 100
2, 164880, Note_on_c, 0, 62, 0
2, 164880, Note_on_c, 0, 64, 100
2, 165000, Note_on_c, 0, 64, 0
2, 165000, Note_on_c, 0, 62, 100
2, 165120, Note_on_c, 0, 62, 0
2, 165120, Note_on_c, 0, 64, 100
2, 165240, Note_on_c, 0, 64, 0
2, 165240, Note_on_c, 0, 65, 100
2, 165360, Note_on_c, 0, 65, 0
2, 165360, Note_on_c, 0, 64, 100
2, 165480, Note_on_c, 0, 64, 0
2, 165480, Note_on_c, 0, 65, 100
2, 165600, Note_on_c, 0, 65, 0
2, 165600, Note_on_c, 0, 67, 100
2, 165720, Note_on_c, 0, 67, 0
2, 165720, Note_on_c, 0, 65, 100
2, 165840, Note_on_c, 0, 65, 0
2, 165840, Note_on_c, 0, 67, 100
2, 165960, Note_on_c, 0, 67, 0
2, 165960, Note_on_c, 0, 69, 100
2, 166080, Note_on_c, 0, 69, 0
2, 166080, Note_on_c, 0, 67, 100
2, 166200, Note_on_c, 0, 67, 0
2, 166200, Note_on_c, 0, 69, 100
2, 166320, Note_on_c, 0, 69, 0
2, 166320, Note_on_c, 0, 70, 100
2, 166440, Note_on_c, 0, 70, 0
2, 166680, Note_on_c, 0, 69, 100
2, 166800, Note_on_c, 0, 69, 0
2, 167040, Note_on_c, 0, 67, 100
2, 167160, Note_on_c, 0, 67, 0
2, 167400, Note_on_c, 0, 67, 100
2, 167520, Note_on_c, 0, 67, 0
2, 167520, Note_on_c, 0, 65, 100
2, 168000, Note_on_c, 0, 65, 0
2, 168000, Note_on_c, 0, 64, 100
2, 168120, Note_on_c, 0, 64, 0
2, 168120, Note_on_c, 0, 65, 100
2, 168360, Note_on_c, 0, 65, 0
2, 168360, Note_on_c, 0, 67, 100
2, 168480, Note_on_c, 0, 67, 0
2, 168480, Note_on_c, 0, 69, 100
2, 168720, Note_on_c, 0, 69, 0
2, 168720, Note_on_c, 0, 79, 100
2, 168840, Note_on_c, 0, 79, 0
2, 168840, Note_on_c, 0, 77, 100
2, 169080, Note_on_c, 0, 77, 0
2, 169080, Note_on_c, 0, 69, 100
2, 169200, Note_on_c, 0, 69, 0
2, 169200, Note_on_c, 0, 67, 100
2, 169440, Note_on_c, 0, 67, 0
2, 169440, Note_on_c, 0, 76, 100
2, 169560, Note_on_c, 0, 76, 0
2, 169560, Note_on_c, 0, 74, 100
2, 169800, Note_on_c, 0, 74, 0
2, 169800, Note_on_c, 0, 65, 100
2, 169920, Note_on_c, 0, 65, 0
2, 169920, Note_on_c, 0, 64, 100
2, 170160, Note_on_c, 0, 64, 0
2, 170160, Note_on_c, 0, 74, 100
2, 170280, Note_on_c, 0, 74, 0
2, 170280, Note_on_c, 0, 73, 100
2, 170520, Note_on_c, 0, 73, 0
2, 170520, Note_on_c, 0, 64, 100
2, 170640, Note_on_c, 0, 64, 0
2, 170640, Note_on_c, 0, 64, 100
2, 170760, Note_on_c, 0, 64, 0
2, 170760, Note_on_c, 0, 62, 100
2, 170880, Note_on_c, 0, 62, 0
2, 170880, Note_on_c, 0, 61, 100
2, 171000, Note_on_c, 0, 61, 0
2, 171000, Note_on_c, 0, 62, 100
2, 171120, Note_on_c, 0, 62, 0
2, 171120, Note_on_c, 0, 64, 100
2, 171240, Note_on_c, 0, 64, 0
2, 171240, Note_on_c, 0, 65, 100
2, 171360, Note_on_c, 0, 65, 0
2, 171360, Note_on_c, 0, 67, 100
2, 171480, Note_on_c, 0, 67, 0
2, 171480, Note_on_c, 0, 69, 100
2, 171600, Note_on_c, 0, 69, 0
2, 171600, Note_on_c, 0, 70, 100
2, 171720, Note_on_c, 0, 70, 0
2, 171720, Note_on_c, 0, 70, 100
2, 171840, Note_on_c, 0, 70, 0
2, 171840, Note_on_c, 0, 69, 100
2, 171960, Note_on_c, 0, 69, 0
2, 171960, Note_on_c, 0, 67, 100
2, 172080, Note_on_c, 0, 67, 0
2, 172080, Note_on_c, 0, 69, 100
2, 172200, Note_on_c, 0, 69, 0
2, 172200, Note_on_c, 0, 71, 100
2, 172320, Note_on_c, 0, 71, 0
2, 172320, Note_on_c, 0, 73, 100
2, 172440, Note_on_c, 0, 73, 0
2, 172440, Note_on_c, 0, 74, 100
2, 172560, Note_on_c, 0, 74, 0
2, 172560, Note_on_c, 0, 76, 100
2, 172680, Note_on_c, 0, 76, 0
2, 172680, Note_on_c, 0, 77, 100
2, 172800, Note_on_c, 0, 77, 0
2, 172800, Note_on_c, 0, 77, 100
2, 172920, Note_on_c, 0, 77, 0
2, 172920, Note_on_c, 0, 74, 100
2, 173040, Note_on_c, 0, 74, 0
2, 173040, Note_on_c, 0, 76, 100
2, 173160, Note_on_c, 0, 76, 0
2, 173160, Note_on_c, 0, 76, 100
2, 173280, Note_on_c, 0, 76, 0
2, 173280, Note_on_c, 0, 73, 100
2, 173400, Note_on_c, 0, 73, 0
2, 173400, Note_on_c, 0, 74, 100
2, 173520, Note_on_c, 0, 74, 0
2, 173520, Note_on_c, 0, 74, 100
2, 173640, Note_on_c, 0, 74, 0
2, 173640, Note_on_c, 0, 71, 100
2, 173760, Note_on_c, 0, 71, 0
2, 173760, Note_on_c, 0, 72, 100
2, 173880, Note_on_c, 0, 72, 0
2, 173880, Note_on_c, 0, 72, 100
2, 174000, Note_on_c, 0, 72, 0
2, 174000, Note_on_c, 0, 69, 100
2, 174120, Note_on_c, 0, 69, 0
2, 174120, Note_on_c, 0, 70, 100
2, 174240, Note_on_c, 0, 70, 0
2, 174240, Note_on_c, 0, 70, 100
2, 174360, Note_on_c, 0, 70, 0
2, 174360, Note_on_c, 0, 67, 100
2, 174480, Note_on_c, 0, 67, 0
2, 174480, Note_on_c, 0, 69, 100
2, 174600, Note_on_c, 0, 69, 0
2, 174600, Note_on_c, 0, 69, 100
2, 174720, Note_on_c, 0, 69, 0
2, 174720, Note_on_c, 0, 65, 100
2, 174840, Note_on_c, 0, 65, 0
2, 174840, Note_on_c, 0, 67, 100
2, 174960, Note_on_c, 0, 67, 0
2, 174960, Note_on_c, 0, 67, 100
2, 175080, Note_on_c, 0, 67, 0
2, 175080, Note_on_c, 0, 65, 100
2, 175440, Note_on_c, 0, 65, 0
2, 175440, Note_on_c, 0, 67, 100
2, 175560, Note_on_c, 0, 67, 0
2, 175560, Note_on_c, 0, 69, 100
2, 175680, Note_on_c, 0, 69, 0
2, 175680, Note_on_c, 0, 70, 100
2, 175800, Note_on_c, 0, 70, 0
2, 175800, Note_on_c, 0, 69, 100
2, 175920, Note_on_c, 0, 69, 0
2, 175920, Note_on_c, 0, 67, 100
2, 176040, Note_on_c, 0, 67, 0
2, 176040, Note_on_c, 0, 74, 100
2, 176160, Note_on_c, 0, 74, 0
2, 176160, Note_on_c, 0, 73, 100
2, 176520, Note_on_c, 0, 73, 0
2, 176520, Note_on_c, 0, 74, 100
2, 176640, Note_on_c, 0, 74, 0
2, 176640, Note_on_c, 0, 76, 100
2, 176760, Note_on_c, 0, 76, 0
2, 176760, Note_on_c, 0, 77, 100
2, 176880, Note_on_c, 0, 77, 0
2, 176880, Note_on_c, 0, 76, 100
2, 177000, Note_on_c, 0, 76, 0
2, 177000, Note_on_c, 0, 74, 100
2, 177120, Note_on_c, 0, 74, 0
2, 177120, Note_on_c, 0, 81, 100
2, 177180, Note_on_c, 0, 81, 0
2, 177180, Note_on_c, 0, 80, 100
2, 177240, Note_on_c, 0, 80, 0
2, 177240, Note_on_c, 0, 78, 100
2, 177300, Note_on_c, 0, 78, 0
2, 177300, Note_on_c, 0, 80, 100
2, 177360, Note_on_c, 0, 80, 0
2, 177360, Note_on_c, 0, 81, 100
2, 177420, Note_on_c, 0, 81, 0
2, 177420, Note_on_c, 0, 80, 100
2, 177480, Note_on_c, 0, 80, 0
2, 177480, Note_on_c, 0, 81, 100
2, 177540, Note_on_c, 0, 81, 0
2, 177540, Note_on_c, 0, 80, 100
2, 177600, Note_on_c, 0, 80, 0
2, 177600, Note_on_c, 0, 81, 100
2, 177660, Note_on_c, 0, 81, 0
2, 177660, Note_on_c, 0, 80, 100
2, 177720, Note_on_c, 0, 80, 0
2, 177720, Note_on_c, 0, 81, 100
2, 177780, Note_on_c, 0, 81, 0
2, 177780, Note_on_c, 0, 80, 100
2, 177840, Note_on_c, 0, 80, 0
2, 177840, Note_on_c, 0, 81, 100
2, 177900, Note_on_c, 0, 81, 0
2, 177900, Note_on_c, 0, 80, 100
2, 177960, Note_on_c, 0, 80, 0
2, 177960, Note_on_c, 0, 81, 100
2, 178020, Note_on_c, 0, 81, 0
2, 178020, Note_on_c, 0, 80, 100
2, 178080, Note_on_c, 0, 80, 0
2, 178080, Note_on_c, 0, 81, 100
2, 178140, Note_on_c, 0, 81, 0
2, 178140, Note_on_c, 0, 80, 100
2, 178200, Note_on_c, 0, 80, 0
2, 178200, Note_on_c, 0, 81, 100
2, 178440, Note_on_c, 0, 81, 0
2, 178800, Note_on_c, 0, 73, 100
2, 178920, Note_on_c, 0, 73, 0
2, 178920, Note_on_c, 0, 74, 100
2, 179160, Note_on_c, 0, 74, 0
2, 179160, Note_on_c, 0, 76, 100
2, 179280, Note_on_c, 0, 76, 0
2, 179280, Note_on_c, 0, 69, 100
2, 179400, Note_on_c, 0, 69, 0
2, 179400, Note_on_c, 0, 71, 100
2, 179520, Note_on_c, 0, 71, 0
2, 179520, Note_on_c, 0, 73, 100
2, 179640, Note_on_c, 0, 73, 0
2, 179640, Note_on_c, 0, 74, 100
2, 179760, Note_on_c, 0, 74, 0
2, 179760, Note_on_c, 0, 76, 100
2, 179880, Note_on_c, 0, 76, 0
2, 179880, Note_on_c, 0, 77, 100
2, 180000, Note_on_c, 0, 77, 0
2, 180000, Note_on_c, 0, 67, 100
2, 180480, Note_on_c, 0, 67, 0
2, 180480, Note_on_c, 0, 79, 100
2, 180600, Note_on_c, 0, 79, 0
2, 180600, Note_on_c, 0, 77, 100
2, 180720, Note_on_c, 0, 77, 0
2, 180720, Note_on_c, 0, 76, 100
2, 180840, Note_on_c, 0, 76, 0
2, 180840, Note_on_c, 0, 74, 100
2, 180960, Note_on_c, 0, 74, 0
2, 180960, Note_on_c, 0, 73, 100
2, 181080, Note_on_c, 0, 73, 0
2, 181080, Note_on_c, 0, 74, 100
2, 181560, Note_on_c, 0, 74, 0
2, 181560, Note_on_c, 0, 71, 100
2, 181680, Note_on_c, 0, 71, 0
2, 181680, Note_on_c, 0, 73, 100
2, 181800, Note_on_c, 0, 73, 0
2, 181800, Note_on_c, 0, 74, 100
2, 181920, Note_on_c, 0, 74, 0
2, 181920, Note_on_c, 0, 76, 100
2, 182040, Note_on_c, 0, 76, 0
2, 182040, Note_on_c, 0, 77, 100
2, 182160, Note_on_c, 0, 77, 0
2, 182160, Note_on_c, 0, 76, 100
2, 182280, Note_on_c, 0, 76, 0
2, 182280, Note_on_c, 0, 77, 100
2, 182400, Note_on_c, 0, 77, 0
2, 182400, Note_on_c, 0, 74, 100
2, 182520, Note_on_c, 0, 74, 0
2, 182520, Note_on_c, 0, 73, 100
2, 182640, Note_on_c, 0, 73, 0
2, 182640, Note_on_c, 0, 74, 100
2, 182760, Note_on_c, 0, 74, 0
2, 182760, Note_on_c, 0, 76, 100
2, 182880, Note_on_c, 0, 76, 0
2, 182880, Note_on_c, 0, 69, 100
2, 183360, Note_on_c, 0, 69, 0
2, 183360, Note_on_c, 0, 70, 100
2, 183480, Note_on_c, 0, 70, 0
2, 183480, Note_on_c, 0, 67, 100
2, 183600, Note_on_c, 0, 67, 0
2, 183600, Note_on_c, 0, 65, 100
2, 183720, Note_on_c, 0, 65, 0
2, 183720, Note_on_c, 0, 67, 100
2, 183840, Note_on_c, 0, 67, 0
2, 183840, Note_on_c, 0, 64, 100
2, 183960, Note_on_c, 0, 64, 0
2, 183960, Note_on_c, 0, 65, 100
2, 184080, Note_on_c, 0, 65, 0
2, 184080, Note_on_c, 0, 69, 100
2, 184200, Note_on_c, 0, 69, 0
2, 184200, Note_on_c, 0, 74, 100
2, 184320, Note_on_c, 0, 74, 0
2, 184320, Note_on_c, 0, 72, 100
2, 184440, Note_on_c, 0, 72, 0
2, 184440, Note_on_c, 0, 70, 100
2, 184560, Note_on_c, 0, 70, 0
2, 184560, Note_on_c, 0, 69, 100
2, 184680, Note_on_c, 0, 69, 0
2, 184680, Note_on_c, 0, 70, 100
2, 184800, Note_on_c, 0, 70, 0
2, 184800, Note_on_c, 0, 74, 100
2, 184920, Note_on_c, 0, 74, 0
2, 184920, Note_on_c, 0, 79, 100
2, 185040, Note_on_c, 0, 79, 0
2, 185040, Note_on_c, 0, 73, 100
2, 185160, Note_on_c, 0, 73, 0
2, 185160, Note_on_c, 0, 76, 100
2, 185280, Note_on_c, 0, 76, 0
2, 185280, Note_on_c, 0, 69, 100
2, 185400, Note_on_c, 0, 69, 0
2, 185400, Note_on_c, 0, 70, 100
2, 185520, Note_on_c, 0, 70, 0
2, 185520, Note_on_c, 0, 69, 100
2, 185640, Note_on_c, 0, 69, 0
2, 185640, Note_on_c, 0, 67, 100
2, 185760, Note_on_c, 0, 67, 0
2, 185760, Note_on_c, 0, 65, 100
2, 185880, Note_on_c, 0, 65, 0
2, 185880, Note_on_c, 0, 67, 100
2, 186000, Note_on_c, 0, 67, 0
2, 186000, Note_on_c, 0, 64, 100
2, 186120, Note_on_c, 0, 64, 0
2, 186120, Note_on_c, 0, 65, 100
2, 186360, Note_on_c, 0, 65, 0
2, 186360, Note_on_c, 0, 74, 100
2, 186480, Note_on_c, 0, 74, 0
2, 186480, Note_on_c, 0, 67, 100
2, 186720, Note_on_c, 0, 67, 0
2, 186720, Note_on_c, 0, 65, 100
2, 186840, Note_on_c, 0, 65, 0
2, 186840, Note_on_c, 0, 64, 100
2, 186960, Note_on_c, 0, 64, 0
2, 186960, Note_on_c, 0, 69, 100
2, 187080, Note_on_c, 0, 69, 0
2, 187080, Note_on_c, 0, 67, 100
2, 187200, Note_on_c, 0, 67, 0
2, 187200, Note_on_c, 0, 65, 100
2, 187320, Note_on_c, 0, 65, 0
2, 187320, Note_on_c, 0, 64, 100
2, 187440, Note_on_c, 0, 64, 0
2, 187440, Note_on_c, 0, 62, 100
2, 187560, Note_on_c, 0, 62, 0
2, 187560, Note_on_c, 0, 62, 100
2, 187620, Note_on_c, 0, 62, 0
2, 187620, Note_on_c, 0, 61, 100
2, 187680, Note_on_c, 0, 61, 0
2, 187680, Note_on_c, 0, 62, 100
2, 187740, Note_on_c, 0, 62, 0
2, 187740, Note_on_c, 0, 61, 100
2, 187800, Note_on_c, 0, 61, 0
2, 187800, Note_on_c, 0, 62, 100
2, 187860, Note_on_c, 0, 62, 0
2, 187860, Note_on_c, 0, 61, 100
2, 187920, Note_on_c, 0, 61, 0
2, 187920, Note_on_c, 0, 62, 100
2, 188160, Note_on_c, 0, 62, 0
2, 188520, Note_on_c, 0, 70, 100
2, 188640, Note_on_c, 0, 70, 0
2, 188640, Note_on_c, 0, 69, 100
2, 188880, Note_on_c, 0, 69, 0
2, 188880, Note_on_c, 0, 77, 100
2, 189000, Note_on_c, 0, 77, 0
2, 189000, Note_on_c, 0, 67, 100
2, 189120, Note_on_c, 0, 67, 0
2, 189120, Note_on_c, 0, 69, 100
2, 189240, Note_on_c, 0, 69, 0
2, 189240, Note_on_c, 0, 70, 100
2, 189360, Note_on_c, 0, 70, 0
2, 189360, Note_on_c, 0, 69, 100
2, 189480, Note_on_c, 0, 69, 0
2, 189480, Note_on_c, 0, 73, 100
2, 189600, Note_on_c, 0, 73, 0
2, 189600, Note_on_c, 0, 76, 100
2, 189720, Note_on_c, 0, 76, 0
2, 189720, Note_on_c, 0, 79, 100
2, 189840, Note_on_c, 0, 79, 0
2, 189840, Note_on_c, 0, 77, 100
2, 189960, Note_on_c, 0, 77, 0
2, 189960, Note_on_c, 0, 76, 100
2, 190080, Note_on_c, 0, 76, 0
2, 190080, Note_on_c, 0, 81, 100
2, 190320, Note_on_c, 0, 81, 0
2, 190320, Note_on_c, 0, 73, 100
2, 190440, Note_on_c, 0, 73, 0
2, 190440, Note_on_c, 0, 74, 100
2, 190560, Note_on_c, 0, 74, 0
2, 190560, Note_on_c, 0, 76, 100
2, 190680, Note_on_c, 0, 76, 0
2, 190680, Note_on_c, 0, 77, 100
2, 190800, Note_on_c, 0, 77, 0
2, 190800, Note_on_c, 0, 70, 100
2, 190920, Note_on_c, 0, 70, 0
2, 190920, Note_on_c, 0, 75, 100
2, 191040, Note_on_c, 0, 75, 0
2, 191040, Note_on_c, 0, 74, 100
2, 191160, Note_on_c, 0, 74, 0
2, 191160, Note_on_c, 0, 73, 100
2, 191280, Note_on_c, 0, 73, 0
2, 191280, Note_on_c, 0, 74, 100
2, 191400, Note_on_c, 0, 74, 0
2, 191400, Note_on_c, 0, 76, 100
2, 191520, Note_on_c, 0, 76, 0
2, 191520, Note_on_c, 0, 69, 100
2, 191760, Note_on_c, 0, 69, 0
2, 191880, Note_on_c, 0, 45, 100
2, 192120, Note_on_c, 0, 45, 0
2, 192240, Note_on_c, 0, 38, 100
2, 192960, Note_on_c, 0, 38, 0
2, 192960, End_track
3, 0, Start_track
3, 0, MIDI_port, 0
3, 0, Title_t, "--------------------------------------"
3, 0, Program_c, 1, 56
3, 0, Control_c, 1, 7, 100
3, 0, Control_c, 1, 10, 32
3, 4320, Note_on_c, 1, 57, 100
3, 4680, Note_on_c, 1, 57, 0
3, 4680, Note_on_c, 1, 50, 100
3, 4800, Note_on_c, 1, 50, 0
3, 4800, Note_on_c, 1, 49, 100
3, 4920, Note_on_c, 1, 49, 0
3, 4920, Note_on_c, 1, 50, 100
3, 5040, Note_on_c, 1, 50, 0
3, 5040, Note_on_c, 1, 52, 100
3, 5160, Note_on_c, 1, 52, 0
3, 5160, Note_on_c, 1, 50, 100
3, 5280, Note_on_c, 1, 50, 0
3, 5280, Note_on_c, 1, 52, 100
3, 5400, Note_on_c, 1, 52, 0
3, 5400, Note_on_c, 1, 53, 100
3, 5520, Note_on_c, 1, 53, 0
3, 5520, Note_on_c, 1, 52, 100
3, 5640, Note_on_c, 1, 52, 0
3, 5640, Note_on_c, 1, 53, 100
3, 5760, Note_on_c, 1, 53, 0
3, 5760, Note_on_c, 1, 55, 100
3, 5880, Note_on_c, 1, 55, 0
3, 5880, Note_on_c, 1, 53, 100
3, 6000, Note_on_c, 1, 53, 0
3, 6000, Note_on_c, 1, 55, 100
3, 6120, Note_on_c, 1, 55, 0
3, 6120, Note_on_c, 1, 57, 100
3, 6240, Note_on_c, 1, 57, 0
3, 6240, Note_on_c, 1, 55, 100
3, 6360, Note_on_c, 1, 55, 0
3, 6360, Note_on_c, 1, 57, 100
3, 6480, Note_on_c, 1, 57, 0
3, 6480, Note_on_c, 1, 58, 100
3, 6600, Note_on_c, 1, 58, 0
3, 6840, Note_on_c, 1, 57, 100
3, 6960, Note_on_c, 1, 57, 0
3, 7200, Note_on_c, 1, 55, 100
3, 7320, Note_on_c, 1, 55, 0
3, 7560, Note_on_c, 1, 55, 100
3, 7680, Note_on_c, 1, 55, 0
3, 7680, Note_on_c, 1, 53, 100
3, 8160, Note_on_c, 1, 53, 0
3, 8160, Note_on_c, 1, 52, 100
3, 8280, Note_on_c, 1, 52, 0
3, 8280, Note_on_c, 1, 53, 100
3, 8520, Note_on_c, 1, 53, 0
3, 8520, Note_on_c, 1, 55, 100
3, 8640, Note_on_c, 1, 55, 0
3, 8640, Note_on_c, 1, 57, 100
3, 8880, Note_on_c, 1, 57, 0
3, 8880, Note_on_c, 1, 67, 100
3, 9000, Note_on_c, 1, 67, 0
3, 9000, Note_on_c, 1, 65, 100
3, 9240, Note_on_c, 1, 65, 0
3, 9240, Note_on_c, 1, 57, 100
3, 9360, Note_on_c, 1, 57, 0
3, 9360, Note_on_c, 1, 55, 100
3, 9600, Note_on_c, 1, 55, 0
3, 9600, Note_on_c, 1, 64, 100
3, 9720, Note_on_c, 1, 64, 0
3, 9720, Note_on_c, 1, 62, 100
3, 9960, Note_on_c, 1, 62, 0
3, 9960, Note_on_c, 1, 53, 100
3, 10080, Note_on_c, 1, 53, 0
3, 10080, Note_on_c, 1, 52, 100
3, 10320, Note_on_c, 1, 52, 0
3, 10320, Note_on_c, 1, 62, 100
3, 10440, Note_on_c, 1, 62, 0
3, 10440, Note_on_c, 1, 61, 100
3, 10680, Note_on_c, 1, 61, 0
3, 10680, Note_on_c, 1, 52, 100
3, 10800, Note_on_c, 1, 52, 0
3, 10800, Note_on_c, 1, 52, 100
3, 10920, Note_on_c, 1, 52, 0
3, 10920, Note_on_c, 1, 50, 100
3, 11040, Note_on_c, 1, 50, 0
3, 11040, Note_on_c, 1, 49, 100
3, 11160, Note_on_c, 1, 49, 0
3, 11160, Note_on_c, 1, 50, 100
3, 11280, Note_on_c, 1, 50, 0
3, 11280, Note_on_c, 1, 52, 100
3, 11400, Note_on_c, 1, 52, 0
3, 11400, Note_on_c, 1, 53, 100
3, 11520, Note_on_c, 1, 53, 0
3, 11520, Note_on_c, 1, 55, 100
3, 11640, Note_on_c, 1, 55, 0
3, 11640, Note_on_c, 1, 57, 100
3, 11760, Note_on_c, 1, 57, 0
3, 11760, Note_on_c, 1, 58, 100
3, 11880, Note_on_c, 1, 58, 0
3, 11880, Note_on_c, 1, 58, 100
3, 12000, Note_on_c, 1, 58, 0
3, 12000, Note_on_c, 1, 57, 100
3, 12120, Note_on_c, 1, 57, 0
3, 12120, Note_on_c, 1, 55, 100
3, 12240, Note_on_c, 1, 55, 0
3, 12240, Note_on_c, 1, 57, 100
3, 12360, Note_on_c, 1, 57, 0
3, 12360, Note_on_c, 1, 59, 100
3, 12480, Note_on_c, 1, 59, 0
3, 12480, Note_on_c, 1, 61, 100
3, 12600, Note_on_c, 1, 61, 0
3, 12600, Note_on_c, 1, 62, 100
3, 12720, Note_on_c, 1, 62, 0
3, 12720, Note_on_c, 1, 64, 100
3, 12840, Note_on_c, 1, 64, 0
3, 12840, Note_on_c, 1, 65, 100
3, 12960, Note_on_c, 1, 65, 0
3, 12960, Note_on_c, 1, 65, 100
3, 13080, Note_on_c, 1, 65, 0
3, 13080, Note_on_c, 1, 62, 100
3, 13200, Note_on_c, 1, 62, 0
3, 13200, Note_on_c, 1, 64, 100
3, 13320, Note_on_c, 1, 64, 0
3, 13320, Note_on_c, 1, 64, 100
3, 13440, Note_on_c, 1, 64, 0
3, 13440, Note_on_c, 1, 61, 100
3, 13560, Note_on_c, 1, 61, 0
3, 13560, Note_on_c, 1, 62, 100
3, 13680, Note_on_c, 1, 62, 0
3, 13680, Note_on_c, 1, 62, 100
3, 13800, Note_on_c, 1, 62, 0
3, 13800, Note_on_c, 1, 59, 100
3, 13920, Note_on_c, 1, 59, 0
3, 13920, Note_on_c, 1, 60, 100
3, 14040, Note_on_c, 1, 60, 0
3, 14040, Note_on_c, 1, 60, 100
3, 14160, Note_on_c, 1, 60, 0
3, 14160, Note_on_c, 1, 57, 100
3, 14280, Note_on_c, 1, 57, 0
3, 14280, Note_on_c, 1, 58, 100
3, 14400, Note_on_c, 1, 58, 0
3, 14400, Note_on_c, 1, 58, 100
3, 14520, Note_on_c, 1, 58, 0
3, 14520, Note_on_c, 1, 55, 100
3, 14640, Note_on_c, 1, 55, 0
3, 14640, Note_on_c, 1, 57, 100
3, 14760, Note_on_c, 1, 57, 0
3, 14760, Note_on_c, 1, 57, 100
3, 14880, Note_on_c, 1, 57, 0
3, 14880, Note_on_c, 1, 53, 100
3, 15000, Note_on_c, 1, 53, 0
3, 15000, Note_on_c, 1, 55, 100
3, 15120, Note_on_c, 1, 55, 0
3, 15120, Note_on_c, 1, 55, 100
3, 15240, Note_on_c, 1, 55, 0
3, 15240, Note_on_c, 1, 53, 100
3, 15600, Note_on_c, 1, 53, 0
3, 15600, Note_on_c, 1, 55, 100
3, 15720, Note_on_c, 1, 55, 0
3, 15720, Note_on_c, 1, 57, 100
3, 15840, Note_on_c, 1, 57, 0
3, 15840, Note_on_c, 1, 58, 100
3, 15960, Note_on_c, 1, 58, 0
3, 15960, Note_on_c, 1, 57, 100
3, 16080, Note_on_c, 1, 57, 0
3, 16080, Note_on_c, 1, 55, 100
3, 16200, Note_on_c, 1, 55, 0
3, 16200, Note_on_c, 1, 62, 100
3, 16320, Note_on_c, 1, 62, 0
3, 16320, Note_on_c, 1, 61, 100
3, 16680, Note_on_c, 1, 61, 0
3, 16680, Note_on_c, 1, 62, 100
3, 16800, Note_on_c, 1, 62, 0
3, 16800, Note_on_c, 1, 64, 100
3, 16920, Note_on_c, 1, 64, 0
3, 16920, Note_on_c, 1, 65, 100
3, 17040, Note_on_c, 1, 65, 0
3, 17040, Note_on_c, 1, 64, 100
3, 17160, Note_on_c, 1, 64, 0
3, 17160, Note_on_c, 1, 62, 100
3, 17280, Note_on_c, 1, 62, 0
3, 17280, Note_on_c, 1, 69, 100
3, 17340, Note_on_c, 1, 69, 0
3, 17340, Note_on_c, 1, 68, 100
3, 17400, Note_on_c, 1, 68, 0
3, 17400, Note_on_c, 1, 66, 100
3, 17460, Note_on_c, 1, 66, 0
3, 17460, Note_on_c, 1, 68, 100
3, 17520, Note_on_c, 1, 68, 0
3, 17520, Note_on_c, 1, 69, 100
3, 17580, Note_on_c, 1, 69, 0
3, 17580, Note_on_c, 1, 68, 100
3, 17640, Note_on_c, 1, 68, 0
3, 17640, Note_on_c, 1, 69, 100
3, 17700, Note_on_c, 1, 69, 0
3, 17700, Note_on_c, 1, 68, 100
3, 17760, Note_on_c, 1, 68, 0
3, 17760, Note_on_c, 1, 69, 100
3, 17820, Note_on_c, 1, 69, 0
3, 17820, Note_on_c, 1, 68, 100
3, 17880, Note_on_c, 1, 68, 0
3, 17880, Note_on_c, 1, 69, 100
3, 17940, Note_on_c, 1, 69, 0
3, 17940, Note_on_c, 1, 68, 100
3, 18000, Note_on_c, 1, 68, 0
3, 18000, Note_on_c, 1, 69, 100
3, 18060, Note_on_c, 1, 69, 0
3, 18060, Note_on_c, 1, 68, 100
3, 18120, Note_on_c, 1, 68, 0
3, 18120, Note_on_c, 1, 69, 100
3, 18180, Note_on_c, 1, 69, 0
3, 18180, Note_on_c, 1, 68, 100
3, 18240, Note_on_c, 1, 68, 0
3, 18240, Note_on_c, 1, 69, 100
3, 18300, Note_on_c, 1, 69, 0
3, 18300, Note_on_c, 1, 68, 100
3, 18360, Note_on_c, 1, 68, 0
3, 18360, Note_on_c, 1, 69, 100
3, 18600, Note_on_c, 1, 69, 0
3, 18960, Note_on_c, 1, 61, 100
3, 19080, Note_on_c, 1, 61, 0
3, 19080, Note_on_c, 1, 62, 100
3, 19320, Note_on_c, 1, 62, 0
3, 19320, Note_on_c, 1, 64, 100
3, 19440, Note_on_c, 1, 64, 0
3, 19440, Note_on_c, 1, 57, 100
3, 19560, Note_on_c, 1, 57, 0
3, 19560, Note_on_c, 1, 59, 100
3, 19680, Note_on_c, 1, 59, 0
3, 19680, Note_on_c, 1, 61, 100
3, 19800, Note_on_c, 1, 61, 0
3, 19800, Note_on_c, 1, 62, 100
3, 19920, Note_on_c, 1, 62, 0
3, 19920, Note_on_c, 1, 64, 100
3, 20040, Note_on_c, 1, 64, 0
3, 20040, Note_on_c, 1, 65, 100
3, 20160, Note_on_c, 1, 65, 0
3, 20160, Note_on_c, 1, 55, 100
3, 20640, Note_on_c, 1, 55, 0
3, 20640, Note_on_c, 1, 67, 100
3, 20760, Note_on_c, 1, 67, 0
3, 20760, Note_on_c, 1, 65, 100
3, 20880, Note_on_c, 1, 65, 0
3, 20880, Note_on_c, 1, 64, 100
3, 21000, Note_on_c, 1, 64, 0
3, 21000, Note_on_c, 1, 62, 100
3, 21120, Note_on_c, 1, 62, 0
3, 21120, Note_on_c, 1, 61, 100
3, 21240, Note_on_c, 1, 61, 0
3, 21240, Note_on_c, 1, 62, 100
3, 21720, Note_on_c, 1, 62, 0
3, 21720, Note_on_c, 1, 59, 100
3, 21840, Note_on_c, 1, 59, 0
3, 21840, Note_on_c, 1, 61, 100
3, 21960, Note_on_c, 1, 61, 0
3, 21960, Note_on_c, 1, 62, 100
3, 22080, Note_on_c, 1, 62, 0
3, 22080, Note_on_c, 1, 64, 100
3, 22200, Note_on_c, 1, 64, 0
3, 22200, Note_on_c, 1, 65, 100
3, 22320, Note_on_c, 1, 65, 0
3, 22320, Note_on_c, 1, 64, 100
3, 22440, Note_on_c, 1, 64, 0
3, 22440, Note_on_c, 1, 65, 100
3, 22560, Note_on_c, 1, 65, 0
3, 22560, Note_on_c, 1, 62, 100
3, 22680, Note_on_c, 1, 62, 0
3, 22680, Note_on_c, 1, 61, 100
3, 22800, Note_on_c, 1, 61, 0
3, 22800, Note_on_c, 1, 62, 100
3, 22920, Note_on_c, 1, 62, 0
3, 22920, Note_on_c, 1, 64, 100
3, 23040, Note_on_c, 1, 64, 0
3, 23040, Note_on_c, 1, 57, 100
3, 23520, Note_on_c, 1, 57, 0
3, 23520, Note_on_c, 1, 58, 100
3, 23640, Note_on_c, 1, 58, 0
3, 23640, Note_on_c, 1, 55, 100
3, 23760, Note_on_c, 1, 55, 0
3, 23760, Note_on_c, 1, 53, 100
3, 23880, Note_on_c, 1, 53, 0
3, 23880, Note_on_c, 1, 55, 100
3, 24000, Note_on_c, 1, 55, 0
3, 24000, Note_on_c, 1, 52, 100
3, 24120, Note_on_c, 1, 52, 0
3, 24120, Note_on_c, 1, 53, 100
3, 24240, Note_on_c, 1, 53, 0
3, 24240, Note_on_c, 1, 57, 100
3, 24360, Note_on_c, 1, 57, 0
3, 24360, Note_on_c, 1, 62, 100
3, 24480, Note_on_c, 1, 62, 0
3, 24480, Note_on_c, 1, 60, 100
3, 24600, Note_on_c, 1, 60, 0
3, 24600, Note_on_c, 1, 58, 100
3, 24720, Note_on_c, 1, 58, 0
3, 24720, Note_on_c, 1, 57, 100
3, 24840, Note_on_c, 1, 57, 0
3, 24840, Note_on_c, 1, 58, 100
3, 24960, Note_on_c, 1, 58, 0
3, 24960, Note_on_c, 1, 62, 100
3, 25080, Note_on_c, 1, 62, 0
3, 25080, Note_on_c, 1, 67, 100
3, 25200, Note_on_c, 1, 67, 0
3, 25200, Note_on_c, 1, 61, 100
3, 25320, Note_on_c, 1, 61, 0
3, 25320, Note_on_c, 1, 64, 100
3, 25440, Note_on_c, 1, 64, 0
3, 25440, Note_on_c, 1, 57, 100
3, 25560, Note_on_c, 1, 57, 0
3, 25560, Note_on_c, 1, 58, 100
3, 25680, Note_on_c, 1, 58, 0
3, 25680, Note_on_c, 1, 57, 100
3, 25800, Note_on_c, 1, 57, 0
3, 25800, Note_on_c, 1, 55, 100
3, 25920, Note_on_c, 1, 55, 0
3, 25920, Note_on_c, 1, 53, 100
3, 26040, Note_on_c, 1, 53, 0
3, 26040, Note_on_c, 1, 55, 100
3, 26160, Note_on_c, 1, 55, 0
3, 26160, Note_on_c, 1, 52, 100
3, 26280, Note_on_c, 1, 52, 0
3, 26280, Note_on_c, 1, 53, 100
3, 26520, Note_on_c, 1, 53, 0
3, 26520, Note_on_c, 1, 62, 100
3, 26640, Note_on_c, 1, 62, 0
3, 26640, Note_on_c, 1, 55, 100
3, 26880, Note_on_c, 1, 55, 0
3, 26880, Note_on_c, 1, 53, 100
3, 27000, Note_on_c, 1, 53, 0
3, 27000, Note_on_c, 1, 52, 100
3, 27120, Note_on_c, 1, 52, 0
3, 27120, Note_on_c, 1, 57, 100
3, 27240, Note_on_c, 1, 57, 0
3, 27240, Note_on_c, 1, 55, 100
3, 27360, Note_on_c, 1, 55, 0
3, 27360, Note_on_c, 1, 53, 100
3, 27480, Note_on_c, 1, 53, 0
3, 27480, Note_on_c, 1, 52, 100
3, 27600, Note_on_c, 1, 52, 0
3, 27600, Note_on_c, 1, 50, 100
3, 27720, Note_on_c, 1, 50, 0
3, 27720, Note_on_c, 1, 50, 100
3, 27780, Note_on_c, 1, 50, 0
3, 27780, Note_on_c, 1, 49, 100
3, 27840, Note_on_c, 1, 49, 0
3, 27840, Note_on_c, 1, 50, 100
3, 27900, Note_on_c, 1, 50, 0
3, 27900, Note_on_c, 1, 49, 100
3, 27960, Note_on_c, 1, 49, 0
3, 27960, Note_on_c, 1, 50, 100
3, 28020, Note_on_c, 1, 50, 0
3, 28020, Note_on_c, 1, 49, 100
3, 28080, Note_on_c, 1, 49, 0
3, 28080, Note_on_c, 1, 50, 100
3, 28320, Note_on_c, 1, 50, 0
3, 30240, Note_on_c, 1, 62, 100
3, 30600, Note_on_c, 1, 62, 0
3, 30600, Note_on_c, 1, 57, 100
3, 30720, Note_on_c, 1, 57, 0
3, 30720, Note_on_c, 1, 56, 100
3, 30840, Note_on_c, 1, 56, 0
3, 30840, Note_on_c, 1, 57, 100
3, 30960, Note_on_c, 1, 57, 0
3, 30960, Note_on_c, 1, 59, 100
3, 31080, Note_on_c, 1, 59, 0
3, 31080, Note_on_c, 1, 57, 100
3, 31200, Note_on_c, 1, 57, 0
3, 31200, Note_on_c, 1, 59, 100
3, 31320, Note_on_c, 1, 59, 0
3, 31320, Note_on_c, 1, 60, 100
3, 31440, Note_on_c, 1, 60, 0
3, 31440, Note_on_c, 1, 59, 100
3, 31560, Note_on_c, 1, 59, 0
3, 31560, Note_on_c, 1, 61, 100
3, 31680, Note_on_c, 1, 61, 0
3, 31680, Note_on_c, 1, 62, 100
3, 31800, Note_on_c, 1, 62, 0
3, 31800, Note_on_c, 1, 61, 100
3, 31920, Note_on_c, 1, 61, 0
3, 31920, Note_on_c, 1, 62, 100
3, 32040, Note_on_c, 1, 62, 0
3, 32040, Note_on_c, 1, 64, 100
3, 32160, Note_on_c, 1, 64, 0
3, 32160, Note_on_c, 1, 62, 100
3, 32280, Note_on_c, 1, 62, 0
3, 32280, Note_on_c, 1, 64, 100
3, 32400, Note_on_c, 1, 64, 0
3, 32400, Note_on_c, 1, 65, 100
3, 32520, Note_on_c, 1, 65, 0
3, 32760, Note_on_c, 1, 64, 100
3, 32880, Note_on_c, 1, 64, 0
3, 33120, Note_on_c, 1, 62, 100
3, 33240, Note_on_c, 1, 62, 0
3, 33480, Note_on_c, 1, 62, 100
3, 33600, Note_on_c, 1, 62, 0
3, 33600, Note_on_c, 1, 61, 100
3, 34080, Note_on_c, 1, 61, 0
3, 34080, Note_on_c, 1, 57, 100
3, 34200, Note_on_c, 1, 57, 0
3, 34200, Note_on_c, 1, 59, 100
3, 34440, Note_on_c, 1, 59, 0
3, 34440, Note_on_c, 1, 61, 100
3, 34560, Note_on_c, 1, 61, 0
3, 34560, Note_on_c, 1, 62, 100
3, 34680, Note_on_c, 1, 62, 0
3, 34680, Note_on_c, 1, 60, 100
3, 34800, Note_on_c, 1, 60, 0
3, 34800, Note_on_c, 1, 59, 100
3, 34920, Note_on_c, 1, 59, 0
3, 34920, Note_on_c, 1, 60, 100
3, 35160, Note_on_c, 1, 60, 0
3, 35160, Note_on_c, 1, 69, 100
3, 35280, Note_on_c, 1, 69, 0
3, 35280, Note_on_c, 1, 68, 100
3, 35520, Note_on_c, 1, 68, 0
3, 35520, Note_on_c, 1, 62, 100
3, 35640, Note_on_c, 1, 62, 0
3, 35640, Note_on_c, 1, 64, 100
3, 35880, Note_on_c, 1, 64, 0
3, 35880, Note_on_c, 1, 67, 100
3, 36000, Note_on_c, 1, 67, 0
3, 36000, Note_on_c, 1, 65, 100
3, 36120, Note_on_c, 1, 65, 0
3, 36120, Note_on_c, 1, 64, 100
3, 36240, Note_on_c, 1, 64, 0
3, 36240, Note_on_c, 1, 62, 100
3, 36360, Note_on_c, 1, 62, 0
3, 36360, Note_on_c, 1, 61, 100
3, 36600, Note_on_c, 1, 61, 0
3, 36600, Note_on_c, 1, 70, 100
3, 36720, Note_on_c, 1, 70, 0
3, 36720, Note_on_c, 1, 69, 100
3, 36840, Note_on_c, 1, 69, 0
3, 36840, Note_on_c, 1, 65, 100
3, 36960, Note_on_c, 1, 65, 0
3, 36960, Note_on_c, 1, 62, 100
3, 37080, Note_on_c, 1, 62, 0
3, 37080, Note_on_c, 1, 62, 100
3, 37200, Note_on_c, 1, 62, 0
3, 37200, Note_on_c, 1, 67, 100
3, 37320, Note_on_c, 1, 67, 0
3, 37320, Note_on_c, 1, 60, 100
3, 37440, Note_on_c, 1, 60, 0
3, 37440, Note_on_c, 1, 60, 100
3, 37560, Note_on_c, 1, 60, 0
3, 37560, Note_on_c, 1, 65, 100
3, 37680, Note_on_c, 1, 65, 0
3, 37680, Note_on_c, 1, 58, 100
3, 37800, Note_on_c, 1, 58, 0
3, 37800, Note_on_c, 1, 58, 100
3, 37920, Note_on_c, 1, 58, 0
3, 37920, Note_on_c, 1, 57, 100
3, 38040, Note_on_c, 1, 57, 0
3, 38040, Note_on_c, 1, 55, 100
3, 38160, Note_on_c, 1, 55, 0
3, 38160, Note_on_c, 1, 57, 100
3, 38280, Note_on_c, 1, 57, 0
3, 38280, Note_on_c, 1, 61, 100
3, 38400, Note_on_c, 1, 61, 0
3, 38400, Note_on_c, 1, 64, 100
3, 38520, Note_on_c, 1, 64, 0
3, 38520, Note_on_c, 1, 67, 100
3, 38640, Note_on_c, 1, 67, 0
3, 38640, Note_on_c, 1, 65, 100
3, 38760, Note_on_c, 1, 65, 0
3, 38760, Note_on_c, 1, 64, 100
3, 38880, Note_on_c, 1, 64, 0
3, 38880, Note_on_c, 1, 65, 100
3, 39000, Note_on_c, 1, 65, 0
3, 39000, Note_on_c, 1, 64, 100
3, 39120, Note_on_c, 1, 64, 0
3, 39120, Note_on_c, 1, 62, 100
3, 39240, Note_on_c, 1, 62, 0
3, 39240, Note_on_c, 1, 64, 100
3, 39360, Note_on_c, 1, 64, 0
3, 39360, Note_on_c, 1, 62, 100
3, 39480, Note_on_c, 1, 62, 0
3, 39480, Note_on_c, 1, 60, 100
3, 39600, Note_on_c, 1, 60, 0
3, 39600, Note_on_c, 1, 62, 100
3, 39720, Note_on_c, 1, 62, 0
3, 39720, Note_on_c, 1, 60, 100
3, 39840, Note_on_c, 1, 60, 0
3, 39840, Note_on_c, 1, 59, 100
3, 39960, Note_on_c, 1, 59, 0
3, 39960, Note_on_c, 1, 60, 100
3, 40080, Note_on_c, 1, 60, 0
3, 40080, Note_on_c, 1, 62, 100
3, 40200, Note_on_c, 1, 62, 0
3, 40200, Note_on_c, 1, 64, 100
3, 40320, Note_on_c, 1, 64, 0
3, 40320, Note_on_c, 1, 62, 100
3, 40440, Note_on_c, 1, 62, 0
3, 40440, Note_on_c, 1, 64, 100
3, 40560, Note_on_c, 1, 64, 0
3, 40560, Note_on_c, 1, 65, 100
3, 40680, Note_on_c, 1, 65, 0
3, 40680, Note_on_c, 1, 64, 100
3, 40800, Note_on_c, 1, 64, 0
3, 40800, Note_on_c, 1, 65, 100
3, 40920, Note_on_c, 1, 65, 0
3, 40920, Note_on_c, 1, 67, 100
3, 41040, Note_on_c, 1, 67, 0
3, 41040, Note_on_c, 1, 65, 100
3, 41160, Note_on_c, 1, 65, 0
3, 41160, Note_on_c, 1, 62, 100
3, 41280, Note_on_c, 1, 62, 0
3, 41280, Note_on_c, 1, 69, 100
3, 41400, Note_on_c, 1, 69, 0
3, 41400, Note_on_c, 1, 58, 100
3, 41520, Note_on_c, 1, 58, 0
3, 41520, Note_on_c, 1, 64, 100
3, 41640, Note_on_c, 1, 64, 0
3, 41640, Note_on_c, 1, 67, 100
3, 41760, Note_on_c, 1, 67, 0
3, 41760, Note_on_c, 1, 57, 100
3, 41880, Note_on_c, 1, 57, 0
3, 41880, Note_on_c, 1, 62, 100
3, 42000, Note_on_c, 1, 62, 0
3, 42000, Note_on_c, 1, 65, 100
3, 42120, Note_on_c, 1, 65, 0
3, 42120, Note_on_c, 1, 55, 100
3, 42240, Note_on_c, 1, 55, 0
3, 42240, Note_on_c, 1, 61, 100
3, 42360, Note_on_c, 1, 61, 0
3, 42360, Note_on_c, 1, 64, 100
3, 42480, Note_on_c, 1, 64, 0
3, 42480, Note_on_c, 1, 53, 100
3, 42600, Note_on_c, 1, 53, 0
3, 42600, Note_on_c, 1, 57, 100
3, 42720, Note_on_c, 1, 57, 0
3, 42720, Note_on_c, 1, 55, 100
3, 42840, Note_on_c, 1, 55, 0
3, 42840, Note_on_c, 1, 58, 100
3, 42960, Note_on_c, 1, 58, 0
3, 42960, Note_on_c, 1, 57, 100
3, 43080, Note_on_c, 1, 57, 0
3, 43080, Note_on_c, 1, 61, 100
3, 43200, Note_on_c, 1, 61, 0
3, 43200, Note_on_c, 1, 62, 100
3, 43320, Note_on_c, 1, 62, 0
3, 43320, Note_on_c, 1, 64, 100
3, 43440, Note_on_c, 1, 64, 0
3, 43440, Note_on_c, 1, 65, 100
3, 43560, Note_on_c, 1, 65, 0
3, 43560, Note_on_c, 1, 57, 100
3, 43620, Note_on_c, 1, 57, 0
3, 43620, Note_on_c, 1, 56, 100
3, 43680, Note_on_c, 1, 56, 0
3, 43680, Note_on_c, 1, 53, 100
3, 43740, Note_on_c, 1, 53, 0
3, 43740, Note_on_c, 1, 56, 100
3, 43800, Note_on_c, 1, 56, 0
3, 43800, Note_on_c, 1, 57, 100
3, 43860, Note_on_c, 1, 57, 0
3, 43860, Note_on_c, 1, 56, 100
3, 43920, Note_on_c, 1, 56, 0
3, 43920, Note_on_c, 1, 57, 100
3, 43980, Note_on_c, 1, 57, 0
3, 43980, Note_on_c, 1, 56, 100
3, 44040, Note_on_c, 1, 56, 0
3, 44040, Note_on_c, 1, 57, 100
3, 44100, Note_on_c, 1, 57, 0
3, 44100, Note_on_c, 1, 56, 100
3, 44160, Note_on_c, 1, 56, 0
3, 44160, Note_on_c, 1, 53, 100
3, 44220, Note_on_c, 1, 53, 0
3, 44220, Note_on_c, 1, 56, 100
3, 44280, Note_on_c, 1, 56, 0
3, 44280, Note_on_c, 1, 57, 100
3, 44520, Note_on_c, 1, 57, 0
3, 44880, Note_on_c, 1, 59, 100
3, 45000, Note_on_c, 1, 59, 0
3, 45000, Note_on_c, 1, 60, 100
3, 45240, Note_on_c, 1, 60, 0
3, 45240, Note_on_c, 1, 57, 100
3, 45360, Note_on_c, 1, 57, 0
3, 45360, Note_on_c, 1, 62, 100
3, 45600, Note_on_c, 1, 62, 0
3, 45600, Note_on_c, 1, 65, 100
3, 45720, Note_on_c, 1, 65, 0
3, 45720, Note_on_c, 1, 65, 100
3, 45840, Note_on_c, 1, 65, 0
3, 45840, Note_on_c, 1, 64, 100
3, 45960, Note_on_c, 1, 64, 0
3, 45960, Note_on_c, 1, 62, 100
3, 46080, Note_on_c, 1, 62, 0
3, 46080, Note_on_c, 1, 60, 100
3, 46200, Note_on_c, 1, 60, 0
3, 46200, Note_on_c, 1, 62, 100
3, 46320, Note_on_c, 1, 62, 0
3, 46320, Note_on_c, 1, 59, 100
3, 46440, Note_on_c, 1, 59, 0
3, 46440, Note_on_c, 1, 64, 100
3, 46800, Note_on_c, 1, 64, 0
3, 46800, Note_on_c, 1, 57, 100
3, 47160, Note_on_c, 1, 57, 0
3, 47520, Note_on_c, 1, 57, 100
3, 47880, Note_on_c, 1, 57, 0
3, 47880, Note_on_c, 1, 64, 100
3, 48000, Note_on_c, 1, 64, 0
3, 48000, Note_on_c, 1, 65, 100
3, 48120, Note_on_c, 1, 65, 0
3, 48120, Note_on_c, 1, 64, 100
3, 48240, Note_on_c, 1, 64, 0
3, 48240, Note_on_c, 1, 62, 100
3, 48360, Note_on_c, 1, 62, 0
3, 48360, Note_on_c, 1, 64, 100
3, 48480, Note_on_c, 1, 64, 0
3, 48480, Note_on_c, 1, 62, 100
3, 48600, Note_on_c, 1, 62, 0
3, 48600, Note_on_c, 1, 60, 100
3, 48720, Note_on_c, 1, 60, 0
3, 48720, Note_on_c, 1, 62, 100
3, 48840, Note_on_c, 1, 62, 0
3, 48840, Note_on_c, 1, 60, 100
3, 48960, Note_on_c, 1, 60, 0
3, 48960, Note_on_c, 1, 59, 100
3, 49080, Note_on_c, 1, 59, 0
3, 49080, Note_on_c, 1, 60, 100
3, 49200, Note_on_c, 1, 60, 0
3, 49200, Note_on_c, 1, 59, 100
3, 49320, Note_on_c, 1, 59, 0
3, 49320, Note_on_c, 1, 57, 100
3, 49440, Note_on_c, 1, 57, 0
3, 49440, Note_on_c, 1, 59, 100
3, 49560, Note_on_c, 1, 59, 0
3, 49560, Note_on_c, 1, 57, 100
3, 49680, Note_on_c, 1, 57, 0
3, 49680, Note_on_c, 1, 56, 100
3, 49800, Note_on_c, 1, 56, 0
3, 50040, Note_on_c, 1, 57, 100
3, 50160, Note_on_c, 1, 57, 0
3, 50400, Note_on_c, 1, 59, 100
3, 50520, Note_on_c, 1, 59, 0
3, 50760, Note_on_c, 1, 59, 100
3, 50880, Note_on_c, 1, 59, 0
3, 50880, Note_on_c, 1, 60, 100
3, 51360, Note_on_c, 1, 60, 0
3, 51360, Note_on_c, 1, 62, 100
3, 51480, Note_on_c, 1, 62, 0
3, 51480, Note_on_c, 1, 60, 100
3, 51720, Note_on_c, 1, 60, 0
3, 51720, Note_on_c, 1, 59, 100
3, 51840, Note_on_c, 1, 59, 0
3, 51840, Note_on_c, 1, 57, 100
3, 51960, Note_on_c, 1, 57, 0
3, 51960, Note_on_c, 1, 52, 100
3, 52080, Note_on_c, 1, 52, 0
3, 52080, Note_on_c, 1, 57, 100
3, 52200, Note_on_c, 1, 57, 0
3, 52200, Note_on_c, 1, 60, 100
3, 52320, Note_on_c, 1, 60, 0
3, 52320, Note_on_c, 1, 57, 100
3, 52440, Note_on_c, 1, 57, 0
3, 52440, Note_on_c, 1, 60, 100
3, 52560, Note_on_c, 1, 60, 0
3, 52560, Note_on_c, 1, 64, 100
3, 52800, Note_on_c, 1, 64, 0
3, 52800, Note_on_c, 1, 56, 100
3, 52920, Note_on_c, 1, 56, 0
3, 52920, Note_on_c, 1, 57, 100
3, 53160, Note_on_c, 1, 57, 0
3, 53160, Note_on_c, 1, 65, 100
3, 53280, Note_on_c, 1, 65, 0
3, 53280, Note_on_c, 1, 55, 100
3, 53520, Note_on_c, 1, 55, 0
3, 53520, Note_on_c, 1, 64, 100
3, 53640, Note_on_c, 1, 64, 0
3, 53640, Note_on_c, 1, 53, 100
3, 53880, Note_on_c, 1, 53, 0
3, 53880, Note_on_c, 1, 62, 100
3, 54000, Note_on_c, 1, 62, 0
3, 54000, Note_on_c, 1, 52, 100
3, 54120, Note_on_c, 1, 52, 0
3, 54120, Note_on_c, 1, 59, 100
3, 54240, Note_on_c, 1, 59, 0
3, 54240, Note_on_c, 1, 62, 100
3, 54360, Note_on_c, 1, 62, 0
3, 54360, Note_on_c, 1, 60, 100
3, 54480, Note_on_c, 1, 60, 0
3, 54480, Note_on_c, 1, 59, 100
3, 54600, Note_on_c, 1, 59, 0
3, 54600, Note_on_c, 1, 57, 100
3, 54720, Note_on_c, 1, 57, 0
3, 54720, Note_on_c, 1, 56, 100
3, 54840, Note_on_c, 1, 56, 0
3, 54840, Note_on_c, 1, 62, 100
3, 54960, Note_on_c, 1, 62, 0
3, 54960, Note_on_c, 1, 65, 100
3, 55080, Note_on_c, 1, 65, 0
3, 55080, Note_on_c, 1, 64, 100
3, 55200, Note_on_c, 1, 64, 0
3, 55200, Note_on_c, 1, 62, 100
3, 55320, Note_on_c, 1, 62, 0
3, 55320, Note_on_c, 1, 60, 100
3, 55440, Note_on_c, 1, 60, 0
3, 55440, Note_on_c, 1, 59, 100
3, 55560, Note_on_c, 1, 59, 0
3, 55560, Note_on_c, 1, 57, 100
3, 55680, Note_on_c, 1, 57, 0
3, 55680, Note_on_c, 1, 56, 100
3, 55800, Note_on_c, 1, 56, 0
3, 55800, Note_on_c, 1, 57, 100
3, 55920, Note_on_c, 1, 57, 0
3, 55920, Note_on_c, 1, 52, 100
3, 56040, Note_on_c, 1, 52, 0
3, 56040, Note_on_c, 1, 59, 100
3, 56160, Note_on_c, 1, 59, 0
3, 56160, Note_on_c, 1, 60, 100
3, 56280, Note_on_c, 1, 60, 0
3, 56280, Note_on_c, 1, 59, 100
3, 56400, Note_on_c, 1, 59, 0
3, 56400, Note_on_c, 1, 57, 100
3, 56520, Note_on_c, 1, 57, 0
3, 56520, Note_on_c, 1, 64, 100
3, 57000, Note_on_c, 1, 64, 0
3, 57000, Note_on_c, 1, 59, 100
3, 57120, Note_on_c, 1, 59, 0
3, 57120, Note_on_c, 1, 62, 100
3, 57240, Note_on_c, 1, 62, 0
3, 57240, Note_on_c, 1, 62, 100
3, 57360, Note_on_c, 1, 62, 0
3, 57360, Note_on_c, 1, 60, 100
3, 57480, Note_on_c, 1, 60, 0
3, 57480, Note_on_c, 1, 69, 100
3, 57570, Note_on_c, 1, 69, 0
3, 57600, Note_on_c, 1, 60, 100
3, 57720, Note_on_c, 1, 60, 0
3, 57720, Note_on_c, 1, 59, 100
3, 57840, Note_on_c, 1, 59, 0
3, 57840, Note_on_c, 1, 67, 100
3, 57930, Note_on_c, 1, 67, 0
3, 57960, Note_on_c, 1, 59, 100
3, 58080, Note_on_c, 1, 59, 0
3, 58080, Note_on_c, 1, 57, 100
3, 58200, Note_on_c, 1, 57, 0
3, 58200, Note_on_c, 1, 65, 100
3, 58290, Note_on_c, 1, 65, 0
3, 58320, Note_on_c, 1, 57, 100
3, 58440, Note_on_c, 1, 57, 0
3, 58440, Note_on_c, 1, 56, 100
3, 58560, Note_on_c, 1, 56, 0
3, 58560, Note_on_c, 1, 59, 100
3, 58650, Note_on_c, 1, 59, 0
3, 58680, Note_on_c, 1, 52, 100
3, 58920, Note_on_c, 1, 52, 0
3, 59760, Note_on_c, 1, 62, 100
3, 60240, Note_on_c, 1, 62, 0
3, 60240, Note_on_c, 1, 60, 100
3, 60360, Note_on_c, 1, 60, 0
3, 60360, Note_on_c, 1, 62, 100
3, 60480, Note_on_c, 1, 62, 0
3, 60480, Note_on_c, 1, 64, 100
3, 60600, Note_on_c, 1, 64, 0
3, 60600, Note_on_c, 1, 62, 100
3, 60720, Note_on_c, 1, 62, 0
3, 60720, Note_on_c, 1, 60, 100
3, 60840, Note_on_c, 1, 60, 0
3, 60840, Note_on_c, 1, 59, 100
3, 60960, Note_on_c, 1, 59, 0
3, 60960, Note_on_c, 1, 60, 100
3, 61080, Note_on_c, 1, 60, 0
3, 61080, Note_on_c, 1, 62, 100
3, 61200, Note_on_c, 1, 62, 0
3, 61200, Note_on_c, 1, 64, 100
3, 61320, Note_on_c, 1, 64, 0
3, 61320, Note_on_c, 1, 66, 100
3, 61440, Note_on_c, 1, 66, 0
3, 61440, Note_on_c, 1, 68, 100
3, 61560, Note_on_c, 1, 68, 0
3, 61560, Note_on_c, 1, 69, 100
3, 61680, Note_on_c, 1, 69, 0
3, 61680, Note_on_c, 1, 64, 100
3, 61800, Note_on_c, 1, 64, 0
3, 61800, Note_on_c, 1, 60, 100
3, 61920, Note_on_c, 1, 60, 0
3, 61920, Note_on_c, 1, 62, 100
3, 62040, Note_on_c, 1, 62, 0
3, 62040, Note_on_c, 1, 67, 100
3, 62160, Note_on_c, 1, 67, 0
3, 62160, Note_on_c, 1, 59, 100
3, 62280, Note_on_c, 1, 59, 0
3, 62280, Note_on_c, 1, 60, 100
3, 62400, Note_on_c, 1, 60, 0
3, 62400, Note_on_c, 1, 65, 100
3, 62520, Note_on_c, 1, 65, 0
3, 62520, Note_on_c, 1, 57, 100
3, 62640, Note_on_c, 1, 57, 0
3, 62640, Note_on_c, 1, 59, 100
3, 62760, Note_on_c, 1, 59, 0
3, 62760, Note_on_c, 1, 64, 100
3, 62880, Note_on_c, 1, 64, 0
3, 62880, Note_on_c, 1, 62, 100
3, 63000, Note_on_c, 1, 62, 0
3, 63000, Note_on_c, 1, 60, 100
3, 63120, Note_on_c, 1, 60, 0
3, 63120, Note_on_c, 1, 59, 100
3, 63240, Note_on_c, 1, 59, 0
3, 63240, Note_on_c, 1, 57, 100
3, 63360, Note_on_c, 1, 57, 0
3, 63360, Note_on_c, 1, 59, 100
3, 63480, Note_on_c, 1, 59, 0
3, 63480, Note_on_c, 1, 57, 100
3, 63600, Note_on_c, 1, 57, 0
3, 63600, Note_on_c, 1, 56, 100
3, 63720, Note_on_c, 1, 56, 0
3, 63720, Note_on_c, 1, 57, 100
3, 63840, Note_on_c, 1, 57, 0
3, 63840, Note_on_c, 1, 56, 100
3, 63960, Note_on_c, 1, 56, 0
3, 63960, Note_on_c, 1, 54, 100
3, 64080, Note_on_c, 1, 54, 0
3, 64080, Note_on_c, 1, 56, 100
3, 64200, Note_on_c, 1, 56, 0
3, 64200, Note_on_c, 1, 52, 100
3, 64320, Note_on_c, 1, 52, 0
3, 64320, Note_on_c, 1, 56, 100
3, 64440, Note_on_c, 1, 56, 0
3, 64440, Note_on_c, 1, 59, 100
3, 64560, Note_on_c, 1, 59, 0
3, 64560, Note_on_c, 1, 64, 100
3, 64680, Note_on_c, 1, 64, 0
3, 64680, Note_on_c, 1, 62, 100
3, 64800, Note_on_c, 1, 62, 0
3, 64800, Note_on_c, 1, 60, 100
3, 64920, Note_on_c, 1, 60, 0
3, 64920, Note_on_c, 1, 59, 100
3, 65040, Note_on_c, 1, 59, 0
3, 65040, Note_on_c, 1, 57, 100
3, 65160, Note_on_c, 1, 57, 0
3, 65160, Note_on_c, 1, 62, 100
3, 65640, Note_on_c, 1, 62, 0
3, 65640, Note_on_c, 1, 60, 100
3, 65760, Note_on_c, 1, 60, 0
3, 65760, Note_on_c, 1, 59, 100
3, 65880, Note_on_c, 1, 59, 0
3, 65880, Note_on_c, 1, 60, 100
3, 66000, Note_on_c, 1, 60, 0
3, 66240, Note_on_c, 1, 65, 100
3, 66360, Note_on_c, 1, 65, 0
3, 66600, Note_on_c, 1, 64, 100
3, 66720, Note_on_c, 1, 64, 0
3, 66960, Note_on_c, 1, 62, 100
3, 67200, Note_on_c, 1, 62, 0
3, 67200, Note_on_c, 1, 56, 100
3, 67320, Note_on_c, 1, 56, 0
3, 67320, Note_on_c, 1, 57, 100
3, 67560, Note_on_c, 1, 57, 0
3, 67560, Note_on_c, 1, 60, 100
3, 67680, Note_on_c, 1, 60, 0
3, 67680, Note_on_c, 1, 56, 100
3, 67740, Note_on_c, 1, 56, 0
3, 67740, Note_on_c, 1, 53, 100
3, 67800, Note_on_c, 1, 53, 0
3, 67800, Note_on_c, 1, 56, 100
3, 67860, Note_on_c, 1, 56, 0
3, 67860, Note_on_c, 1, 53, 100
3, 67920, Note_on_c, 1, 53, 0
3, 67920, Note_on_c, 1, 52, 100
3, 67980, Note_on_c, 1, 52, 0
3, 67980, Note_on_c, 1, 53, 100
3, 68040, Note_on_c, 1, 53, 0
3, 68040, Note_on_c, 1, 52, 100
3, 68280, Note_on_c, 1, 52, 0
3, 69240, Note_on_c, 1, 50, 100
3, 69360, Note_on_c, 1, 50, 0
3, 69360, Note_on_c, 1, 52, 100
3, 69480, Note_on_c, 1, 52, 0
3, 69480, Note_on_c, 1, 53, 100
3, 69600, Note_on_c, 1, 53, 0
3, 69600, Note_on_c, 1, 55, 100
3, 69720, Note_on_c, 1, 55, 0
3, 69720, Note_on_c, 1, 53, 100
3, 69840, Note_on_c, 1, 53, 0
3, 69840, Note_on_c, 1, 52, 100
3, 70320, Note_on_c, 1, 52, 0
3, 70320, Note_on_c, 1, 53, 100
3, 70440, Note_on_c, 1, 53, 0
3, 70440, Note_on_c, 1, 55, 100
3, 70560, Note_on_c, 1, 55, 0
3, 70560, Note_on_c, 1, 57, 100
3, 70680, Note_on_c, 1, 57, 0
3, 70680, Note_on_c, 1, 58, 100
3, 70800, Note_on_c, 1, 58, 0
3, 70800, Note_on_c, 1, 57, 100
3, 70920, Note_on_c, 1, 57, 0
3, 70920, Note_on_c, 1, 55, 100
3, 71040, Note_on_c, 1, 55, 0
3, 71040, Note_on_c, 1, 57, 100
3, 71160, Note_on_c, 1, 57, 0
3, 71160, Note_on_c, 1, 55, 100
3, 71280, Note_on_c, 1, 55, 0
3, 71280, Note_on_c, 1, 53, 100
3, 71400, Note_on_c, 1, 53, 0
3, 71400, Note_on_c, 1, 55, 100
3, 71520, Note_on_c, 1, 55, 0
3, 71520, Note_on_c, 1, 53, 100
3, 71640, Note_on_c, 1, 53, 0
3, 71640, Note_on_c, 1, 52, 100
3, 71760, Note_on_c, 1, 52, 0
3, 71760, Note_on_c, 1, 53, 100
3, 71880, Note_on_c, 1, 53, 0
3, 71880, Note_on_c, 1, 52, 100
3, 72000, Note_on_c, 1, 52, 0
3, 72000, Note_on_c, 1, 50, 100
3, 72120, Note_on_c, 1, 50, 0
3, 72120, Note_on_c, 1, 52, 100
3, 72240, Note_on_c, 1, 52, 0
3, 72240, Note_on_c, 1, 50, 100
3, 72360, Note_on_c, 1, 50, 0
3, 72360, Note_on_c, 1, 49, 100
3, 72480, Note_on_c, 1, 49, 0
3, 72720, Note_on_c, 1, 50, 100
3, 72840, Note_on_c, 1, 50, 0
3, 73080, Note_on_c, 1, 52, 100
3, 73200, Note_on_c, 1, 52, 0
3, 73440, Note_on_c, 1, 53, 100
3, 74040, Note_on_c, 1, 53, 0
3, 74040, Note_on_c, 1, 57, 100
3, 74160, Note_on_c, 1, 57, 0
3, 74160, Note_on_c, 1, 57, 100
3, 74220, Note_on_c, 1, 57, 0
3, 74220, Note_on_c, 1, 55, 100
3, 74280, Note_on_c, 1, 55, 0
3, 74280, Note_on_c, 1, 57, 100
3, 74340, Note_on_c, 1, 57, 0
3, 74340, Note_on_c, 1, 55, 100
3, 74400, Note_on_c, 1, 55, 0
3, 74400, Note_on_c, 1, 53, 100
3, 74520, Note_on_c, 1, 53, 0
3, 74520, Note_on_c, 1, 55, 100
3, 74640, Note_on_c, 1, 55, 0
3, 74640, Note_on_c, 1, 53, 100
3, 74760, Note_on_c, 1, 53, 0
3, 74760, Note_on_c, 1, 52, 100
3, 74880, Note_on_c, 1, 52, 0
3, 74880, Note_on_c, 1, 62, 100
3, 74940, Note_on_c, 1, 62, 0
3, 74940, Note_on_c, 1, 61, 100
3, 75000, Note_on_c, 1, 61, 0
3, 75000, Note_on_c, 1, 58, 100
3, 75060, Note_on_c, 1, 58, 0
3, 75060, Note_on_c, 1, 61, 100
3, 75120, Note_on_c, 1, 61, 0
3, 75120, Note_on_c, 1, 62, 100
3, 75180, Note_on_c, 1, 62, 0
3, 75180, Note_on_c, 1, 61, 100
3, 75240, Note_on_c, 1, 61, 0
3, 75240, Note_on_c, 1, 62, 100
3, 75300, Note_on_c, 1, 62, 0
3, 75300, Note_on_c, 1, 61, 100
3, 75360, Note_on_c, 1, 61, 0
3, 75360, Note_on_c, 1, 62, 100
3, 75420, Note_on_c, 1, 62, 0
3, 75420, Note_on_c, 1, 61, 100
3, 75480, Note_on_c, 1, 61, 0
3, 75480, Note_on_c, 1, 58, 100
3, 75540, Note_on_c, 1, 58, 0
3, 75540, Note_on_c, 1, 61, 100
3, 75600, Note_on_c, 1, 61, 0
3, 75600, Note_on_c, 1, 62, 100
3, 75720, Note_on_c, 1, 62, 0
3, 75720, Note_on_c, 1, 58, 100
3, 75840, Note_on_c, 1, 58, 0
3, 75840, Note_on_c, 1, 67, 100
3, 75960, Note_on_c, 1, 67, 0
3, 75960, Note_on_c, 1, 60, 100
3, 76080, Note_on_c, 1, 60, 0
3, 76080, Note_on_c, 1, 57, 100
3, 76200, Note_on_c, 1, 57, 0
3, 76200, Note_on_c, 1, 65, 100
3, 76320, Note_on_c, 1, 65, 0
3, 76320, Note_on_c, 1, 58, 100
3, 76440, Note_on_c, 1, 58, 0
3, 76440, Note_on_c, 1, 55, 100
3, 76560, Note_on_c, 1, 55, 0
3, 76560, Note_on_c, 1, 64, 100
3, 76680, Note_on_c, 1, 64, 0
3, 76680, Note_on_c, 1, 57, 100
3, 76800, Note_on_c, 1, 57, 0
3, 76800, Note_on_c, 1, 55, 100
3, 76920, Note_on_c, 1, 55, 0
3, 76920, Note_on_c, 1, 64, 100
3, 77040, Note_on_c, 1, 64, 0
3, 77040, Note_on_c, 1, 57, 100
3, 77160, Note_on_c, 1, 57, 0
3, 77160, Note_on_c, 1, 53, 100
3, 77280, Note_on_c, 1, 53, 0
3, 77280, Note_on_c, 1, 62, 100
3, 77400, Note_on_c, 1, 62, 0
3, 77400, Note_on_c, 1, 55, 100
3, 77520, Note_on_c, 1, 55, 0
3, 77520, Note_on_c, 1, 52, 100
3, 77640, Note_on_c, 1, 52, 0
3, 77640, Note_on_c, 1, 61, 100
3, 77760, Note_on_c, 1, 61, 0
3, 77760, Note_on_c, 1, 62, 100
3, 77880, Note_on_c, 1, 62, 0
3, 77880, Note_on_c, 1, 57, 100
3, 78000, Note_on_c, 1, 57, 0
3, 78000, Note_on_c, 1, 53, 100
3, 78120, Note_on_c, 1, 53, 0
3, 78120, Note_on_c, 1, 50, 100
3, 78240, Note_on_c, 1, 50, 0
3, 78240, Note_on_c, 1, 52, 100
3, 78360, Note_on_c, 1, 52, 0
3, 78360, Note_on_c, 1, 53, 100
3, 78480, Note_on_c, 1, 53, 0
3, 78480, Note_on_c, 1, 52, 100
3, 78600, Note_on_c, 1, 52, 0
3, 78600, Note_on_c, 1, 53, 100
3, 78720, Note_on_c, 1, 53, 0
3, 78720, Note_on_c, 1, 50, 100
3, 78840, Note_on_c, 1, 50, 0
3, 78840, Note_on_c, 1, 52, 100
3, 79320, Note_on_c, 1, 52, 0
3, 79320, Note_on_c, 1, 53, 100
3, 79440, Note_on_c, 1, 53, 0
3, 79440, Note_on_c, 1, 55, 100
3, 79560, Note_on_c, 1, 55, 0
3, 79560, Note_on_c, 1, 53, 100
3, 79680, Note_on_c, 1, 53, 0
3, 79680, Note_on_c, 1, 55, 100
3, 79800, Note_on_c, 1, 55, 0
3, 79800, Note_on_c, 1, 52, 100
3, 79920, Note_on_c, 1, 52, 0
3, 79920, Note_on_c, 1, 53, 100
3, 80040, Note_on_c, 1, 53, 0
3, 80280, Note_on_c, 1, 52, 100
3, 80400, Note_on_c, 1, 52, 0
3, 80640, Note_on_c, 1, 50, 100
3, 80760, Note_on_c, 1, 50, 0
3, 81000, Note_on_c, 1, 49, 100
3, 81120, Note_on_c, 1, 49, 0
3, 81360, Note_on_c, 1, 50, 100
3, 81480, Note_on_c, 1, 50, 0
3, 81720, Note_on_c, 1, 52, 100
3, 81840, Note_on_c, 1, 52, 0
3, 82080, Note_on_c, 1, 53, 100
3, 82200, Note_on_c, 1, 53, 0
3, 82200, Note_on_c, 1, 52, 100
3, 82320, Note_on_c, 1, 52, 0
3, 82320, Note_on_c, 1, 50, 100
3, 82440, Note_on_c, 1, 50, 0
3, 82440, Note_on_c, 1, 58, 100
3, 82560, Note_on_c, 1, 58, 0
3, 82560, Note_on_c, 1, 57, 100
3, 82680, Note_on_c, 1, 57, 0
3, 82680, Note_on_c, 1, 55, 100
3, 82800, Note_on_c, 1, 55, 0
3, 82800, Note_on_c, 1, 61, 100
3, 83040, Note_on_c, 1, 61, 0
3, 83280, Note_on_c, 1, 55, 100
3, 83400, Note_on_c, 1, 55, 0
3, 83400, Note_on_c, 1, 50, 100
3, 83520, Note_on_c, 1, 50, 0
3, 83520, Note_on_c, 1, 49, 100
3, 83640, Note_on_c, 1, 49, 0
3, 83640, Note_on_c, 1, 50, 100
3, 83760, Note_on_c, 1, 50, 0
3, 83760, Note_on_c, 1, 52, 100
3, 83880, Note_on_c, 1, 52, 0
3, 83880, Note_on_c, 1, 45, 100
3, 84000, Note_on_c, 1, 45, 0
3, 84000, Note_on_c, 1, 47, 100
3, 84120, Note_on_c, 1, 47, 0
3, 84120, Note_on_c, 1, 49, 100
3, 84240, Note_on_c, 1, 49, 0
3, 84240, Note_on_c, 1, 50, 100
3, 84360, Note_on_c, 1, 50, 0
3, 84360, Note_on_c, 1, 43, 100
3, 84480, Note_on_c, 1, 43, 0
3, 84480, Note_on_c, 1, 46, 100
3, 84600, Note_on_c, 1, 46, 0
3, 84600, Note_on_c, 1, 48, 100
3, 84720, Note_on_c, 1, 48, 0
3, 84720, Note_on_c, 1, 41, 100
3, 84840, Note_on_c, 1, 41, 0
3, 84840, Note_on_c, 1, 45, 100
3, 84960, Note_on_c, 1, 45, 0
3, 84960, Note_on_c, 1, 46, 100
3, 85080, Note_on_c, 1, 46, 0
3, 85080, Note_on_c, 1, 40, 100
3, 85200, Note_on_c, 1, 40, 0
3, 85200, Note_on_c, 1, 43, 100
3, 85320, Note_on_c, 1, 43, 0
3, 85320, Note_on_c, 1, 45, 100
3, 85440, Note_on_c, 1, 45, 0
3, 85440, Note_on_c, 1, 57, 100
3, 85560, Note_on_c, 1, 57, 0
3, 85560, Note_on_c, 1, 55, 100
3, 85680, Note_on_c, 1, 55, 0
3, 85680, Note_on_c, 1, 53, 100
3, 85800, Note_on_c, 1, 53, 0
3, 85800, Note_on_c, 1, 62, 100
3, 85920, Note_on_c, 1, 62, 0
3, 85920, Note_on_c, 1, 60, 100
3, 86040, Note_on_c, 1, 60, 0
3, 86040, Note_on_c, 1, 58, 100
3, 86160, Note_on_c, 1, 58, 0
3, 86160, Note_on_c, 1, 57, 100
3, 86280, Note_on_c, 1, 57, 0
3, 86280, Note_on_c, 1, 58, 100
3, 86400, Note_on_c, 1, 58, 0
3, 86400, Note_on_c, 1, 57, 100
3, 86760, Note_on_c, 1, 57, 0
3, 86760, Note_on_c, 1, 50, 100
3, 86880, Note_on_c, 1, 50, 0
3, 86880, Note_on_c, 1, 49, 100
3, 87000, Note_on_c, 1, 49, 0
3, 87000, Note_on_c, 1, 50, 100
3, 87120, Note_on_c, 1, 50, 0
3, 87120, Note_on_c, 1, 52, 100
3, 87240, Note_on_c, 1, 52, 0
3, 87240, Note_on_c, 1, 50, 100
3, 87360, Note_on_c, 1, 50, 0
3, 87360, Note_on_c, 1, 52, 100
3, 87480, Note_on_c, 1, 52, 0
3, 87480, Note_on_c, 1, 53, 100
3, 87600, Note_on_c, 1, 53, 0
3, 87600, Note_on_c, 1, 52, 100
3, 87720, Note_on_c, 1, 52, 0
3, 87720, Note_on_c, 1, 53, 100
3, 87840, Note_on_c, 1, 53, 0
3, 87840, Note_on_c, 1, 55, 100
3, 87960, Note_on_c, 1, 55, 0
3, 87960, Note_on_c, 1, 53, 100
3, 88080, Note_on_c, 1, 53, 0
3, 88080, Note_on_c, 1, 55, 100
3, 88200, Note_on_c, 1, 55, 0
3, 88200, Note_on_c, 1, 57, 100
3, 88320, Note_on_c, 1, 57, 0
3, 88320, Note_on_c, 1, 55, 100
3, 88440, Note_on_c, 1, 55, 0
3, 88440, Note_on_c, 1, 57, 100
3, 88560, Note_on_c, 1, 57, 0
3, 88560, Note_on_c, 1, 58, 100
3, 88680, Note_on_c, 1, 58, 0
3, 88920, Note_on_c, 1, 57, 100
3, 89040, Note_on_c, 1, 57, 0
3, 89280, Note_on_c, 1, 55, 100
3, 89400, Note_on_c, 1, 55, 0
3, 89640, Note_on_c, 1, 55, 100
3, 89760, Note_on_c, 1, 55, 0
3, 89760, Note_on_c, 1, 53, 100
3, 90240, Note_on_c, 1, 53, 0
3, 90240, Note_on_c, 1, 52, 100
3, 90360, Note_on_c, 1, 52, 0
3, 90360, Note_on_c, 1, 53, 100
3, 90600, Note_on_c, 1, 53, 0
3, 90600, Note_on_c, 1, 55, 100
3, 90720, Note_on_c, 1, 55, 0
3, 90720, Note_on_c, 1, 57, 100
3, 90960, Note_on_c, 1, 57, 0
3, 90960, Note_on_c, 1, 67, 100
3, 91080, Note_on_c, 1, 67, 0
3, 91080, Note_on_c, 1, 65, 100
3, 91320, Note_on_c, 1, 65, 0
3, 91320, Note_on_c, 1, 57, 100
3, 91440, Note_on_c, 1, 57, 0
3, 91440, Note_on_c, 1, 55, 100
3, 91680, Note_on_c, 1, 55, 0
3, 91680, Note_on_c, 1, 64, 100
3, 91800, Note_on_c, 1, 64, 0
3, 91800, Note_on_c, 1, 62, 100
3, 92040, Note_on_c, 1, 62, 0
3, 92040, Note_on_c, 1, 53, 100
3, 92160, Note_on_c, 1, 53, 0
3, 92160, Note_on_c, 1, 52, 100
3, 92400, Note_on_c, 1, 52, 0
3, 92400, Note_on_c, 1, 62, 100
3, 92520, Note_on_c, 1, 62, 0
3, 92520, Note_on_c, 1, 61, 100
3, 92760, Note_on_c, 1, 61, 0
3, 92760, Note_on_c, 1, 52, 100
3, 92880, Note_on_c, 1, 52, 0
3, 92880, Note_on_c, 1, 52, 100
3, 93000, Note_on_c, 1, 52, 0
3, 93000, Note_on_c, 1, 50, 100
3, 93120, Note_on_c, 1, 50, 0
3, 93120, Note_on_c, 1, 49, 100
3, 93240, Note_on_c, 1, 49, 0
3, 93240, Note_on_c, 1, 50, 100
3, 93360, Note_on_c, 1, 50, 0
3, 93360, Note_on_c, 1, 52, 100
3, 93480, Note_on_c, 1, 52, 0
3, 93480, Note_on_c, 1, 53, 100
3, 93600, Note_on_c, 1, 53, 0
3, 93600, Note_on_c, 1, 55, 100
3, 93720, Note_on_c, 1, 55, 0
3, 93720, Note_on_c, 1, 57, 100
3, 93840, Note_on_c, 1, 57, 0
3, 93840, Note_on_c, 1, 58, 100
3, 93960, Note_on_c, 1, 58, 0
3, 93960, Note_on_c, 1, 58, 100
3, 94080, Note_on_c, 1, 58, 0
3, 94080, Note_on_c, 1, 57, 100
3, 94200, Note_on_c, 1, 57, 0
3, 94200, Note_on_c, 1, 55, 100
3, 94320, Note_on_c, 1, 55, 0
3, 94320, Note_on_c, 1, 57, 100
3, 94440, Note_on_c, 1, 57, 0
3, 94440, Note_on_c, 1, 59, 100
3, 94560, Note_on_c, 1, 59, 0
3, 94560, Note_on_c, 1, 61, 100
3, 94680, Note_on_c, 1, 61, 0
3, 94680, Note_on_c, 1, 62, 100
3, 94800, Note_on_c, 1, 62, 0
3, 94800, Note_on_c, 1, 64, 100
3, 94920, Note_on_c, 1, 64, 0
3, 94920, Note_on_c, 1, 65, 100
3, 95040, Note_on_c, 1, 65, 0
3, 95040, Note_on_c, 1, 65, 100
3, 95160, Note_on_c, 1, 65, 0
3, 95160, Note_on_c, 1, 62, 100
3, 95280, Note_on_c, 1, 62, 0
3, 95280, Note_on_c, 1, 64, 100
3, 95400, Note_on_c, 1, 64, 0
3, 95400, Note_on_c, 1, 64, 100
3, 95520, Note_on_c, 1, 64, 0
3, 95520, Note_on_c, 1, 61, 100
3, 95640, Note_on_c, 1, 61, 0
3, 95640, Note_on_c, 1, 62, 100
3, 95760, Note_on_c, 1, 62, 0
3, 95760, Note_on_c, 1, 62, 100
3, 95880, Note_on_c, 1, 62, 0
3, 95880, Note_on_c, 1, 59, 100
3, 96000, Note_on_c, 1, 59, 0
3, 96000, Note_on_c, 1, 60, 100
3, 96120, Note_on_c, 1, 60, 0
3, 96120, Note_on_c, 1, 60, 100
3, 96240, Note_on_c, 1, 60, 0
3, 96240, Note_on_c, 1, 57, 100
3, 96360, Note_on_c, 1, 57, 0
3, 96360, Note_on_c, 1, 58, 100
3, 96480, Note_on_c, 1, 58, 0
3, 96480, Note_on_c, 1, 58, 100
3, 96600, Note_on_c, 1, 58, 0
3, 96600, Note_on_c, 1, 55, 100
3, 96720, Note_on_c, 1, 55, 0
3, 96720, Note_on_c, 1, 57, 100
3, 96840, Note_on_c, 1, 57, 0
3, 96840, Note_on_c, 1, 57, 100
3, 96960, Note_on_c, 1, 57, 0
3, 96960, Note_on_c, 1, 53, 100
3, 97080, Note_on_c, 1, 53, 0
3, 97080, Note_on_c, 1, 55, 100
3, 97200, Note_on_c, 1, 55, 0
3, 97200, Note_on_c, 1, 55, 100
3, 97320, Note_on_c, 1, 55, 0
3, 97320, Note_on_c, 1, 53, 100
3, 97680, Note_on_c, 1, 53, 0
3, 97680, Note_on_c, 1, 55, 100
3, 97800, Note_on_c, 1, 55, 0
3, 97800, Note_on_c, 1, 57, 100
3, 97920, Note_on_c, 1, 57, 0
3, 97920, Note_on_c, 1, 58, 100
3, 98040, Note_on_c, 1, 58, 0
3, 98040, Note_on_c, 1, 57, 100
3, 98160, Note_on_c, 1, 57, 0
3, 98160, Note_on_c, 1, 55, 100
3, 98280, Note_on_c, 1, 55, 0
3, 98280, Note_on_c, 1, 62, 100
3, 98400, Note_on_c, 1, 62, 0
3, 98400, Note_on_c, 1, 61, 100
3, 98760, Note_on_c, 1, 61, 0
3, 98760, Note_on_c, 1, 62, 100
3, 98880, Note_on_c, 1, 62, 0
3, 98880, Note_on_c, 1, 64, 100
3, 99000, Note_on_c, 1, 64, 0
3, 99000, Note_on_c, 1, 65, 100
3, 99120, Note_on_c, 1, 65, 0
3, 99120, Note_on_c, 1, 64, 100
3, 99240, Note_on_c, 1, 64, 0
3, 99240, Note_on_c, 1, 62, 100
3, 99360, Note_on_c, 1, 62, 0
3, 99360, Note_on_c, 1, 69, 100
3, 99420, Note_on_c, 1, 69, 0
3, 99420, Note_on_c, 1, 68, 100
3, 99480, Note_on_c, 1, 68, 0
3, 99480, Note_on_c, 1, 66, 100
3, 99540, Note_on_c, 1, 66, 0
3, 99540, Note_on_c, 1, 68, 100
3, 99600, Note_on_c, 1, 68, 0
3, 99600, Note_on_c, 1, 69, 100
3, 99660, Note_on_c, 1, 69, 0
3, 99660, Note_on_c, 1, 68, 100
3, 99720, Note_on_c, 1, 68, 0
3, 99720, Note_on_c, 1, 69, 100
3, 99780, Note_on_c, 1, 69, 0
3, 99780, Note_on_c, 1, 68, 100
3, 99840, Note_on_c, 1, 68, 0
3, 99840, Note_on_c, 1, 69, 100
3, 99900, Note_on_c, 1, 69, 0
3, 99900, Note_on_c, 1, 68, 100
3, 99960, Note_on_c, 1, 68, 0
3, 99960, Note_on_c, 1, 69, 100
3, 100020, Note_on_c, 1, 69, 0
3, 100020, Note_on_c, 1, 68, 100
3, 100080, Note_on_c, 1, 68, 0
3, 100080, Note_on_c, 1, 69, 100
3, 100140, Note_on_c, 1, 69, 0
3, 100140, Note_on_c, 1, 68, 100
3, 100200, Note_on_c, 1, 68, 0
3, 100200, Note_on_c, 1, 69, 100
3, 100260, Note_on_c, 1, 69, 0
3, 100260, Note_on_c, 1, 68, 100
3, 100320, Note_on_c, 1, 68, 0
3, 100320, Note_on_c, 1, 69, 100
3, 100380, Note_on_c, 1, 69, 0
3, 100380, Note_on_c, 1, 68, 100
3, 100440, Note_on_c, 1, 68, 0
3, 100440, Note_on_c, 1, 69, 100
3, 100680, Note_on_c, 1, 69, 0
3, 101040, Note_on_c, 1, 61, 100
3, 101160, Note_on_c, 1, 61, 0
3, 101160, Note_on_c, 1, 62, 100
3, 101400, Note_on_c, 1, 62, 0
3, 101400, Note_on_c, 1, 64, 100
3, 101520, Note_on_c, 1, 64, 0
3, 101520, Note_on_c, 1, 57, 100
3, 101640, Note_on_c, 1, 57, 0
3, 101640, Note_on_c, 1, 59, 100
3, 101760, Note_on_c, 1, 59, 0
3, 101760, Note_on_c, 1, 61, 100
3, 101880, Note_on_c, 1, 61, 0
3, 101880, Note_on_c, 1, 62, 100
3, 102000, Note_on_c, 1, 62, 0
3, 102000, Note_on_c, 1, 64, 100
3, 102120, Note_on_c, 1, 64, 0
3, 102120, Note_on_c, 1, 65, 100
3, 102240, Note_on_c, 1, 65, 0
3, 102240, Note_on_c, 1, 55, 100
3, 102720, Note_on_c, 1, 55, 0
3, 102720, Note_on_c, 1, 67, 100
3, 102840, Note_on_c, 1, 67, 0
3, 102840, Note_on_c, 1, 65, 100
3, 102960, Note_on_c, 1, 65, 0
3, 102960, Note_on_c, 1, 64, 100
3, 103080, Note_on_c, 1, 64, 0
3, 103080, Note_on_c, 1, 62, 100
3, 103200, Note_on_c, 1, 62, 0
3, 103200, Note_on_c, 1, 61, 100
3, 103320, Note_on_c, 1, 61, 0
3, 103320, Note_on_c, 1, 62, 100
3, 103800, Note_on_c, 1, 62, 0
3, 103800, Note_on_c, 1, 59, 100
3, 103920, Note_on_c, 1, 59, 0
3, 103920, Note_on_c, 1, 61, 100
3, 104040, Note_on_c, 1, 61, 0
3, 104040, Note_on_c, 1, 62, 100
3, 104160, Note_on_c, 1, 62, 0
3, 104160, Note_on_c, 1, 64, 100
3, 104280, Note_on_c, 1, 64, 0
3, 104280, Note_on_c, 1, 65, 100
3, 104400, Note_on_c, 1, 65, 0
3, 104400, Note_on_c, 1, 64, 100
3, 104520, Note_on_c, 1, 64, 0
3, 104520, Note_on_c, 1, 65, 100
3, 104640, Note_on_c, 1, 65, 0
3, 104640, Note_on_c, 1, 62, 100
3, 104760, Note_on_c, 1, 62, 0
3, 104760, Note_on_c, 1, 61, 100
3, 104880, Note_on_c, 1, 61, 0
3, 104880, Note_on_c, 1, 62, 100
3, 105000, Note_on_c, 1, 62, 0
3, 105000, Note_on_c, 1, 64, 100
3, 105120, Note_on_c, 1, 64, 0
3, 105120, Note_on_c, 1, 57, 100
3, 105600, Note_on_c, 1, 57, 0
3, 105600, Note_on_c, 1, 58, 100
3, 105720, Note_on_c, 1, 58, 0
3, 105720, Note_on_c, 1, 55, 100
3, 105840, Note_on_c, 1, 55, 0
3, 105840, Note_on_c, 1, 53, 100
3, 105960, Note_on_c, 1, 53, 0
3, 105960, Note_on_c, 1, 55, 100
3, 106080, Note_on_c, 1, 55, 0
3, 106080, Note_on_c, 1, 52, 100
3, 106200, Note_on_c, 1, 52, 0
3, 106200, Note_on_c, 1, 53, 100
3, 106320, Note_on_c, 1, 53, 0
3, 106320, Note_on_c, 1, 57, 100
3, 106440, Note_on_c, 1, 57, 0
3, 106440, Note_on_c, 1, 62, 100
3, 106560, Note_on_c, 1, 62, 0
3, 106560, Note_on_c, 1, 60, 100
3, 106680, Note_on_c, 1, 60, 0
3, 106680, Note_on_c, 1, 58, 100
3, 106800, Note_on_c, 1, 58, 0
3, 106800, Note_on_c, 1, 57, 100
3, 106920, Note_on_c, 1, 57, 0
3, 106920, Note_on_c, 1, 58, 100
3, 107040, Note_on_c, 1, 58, 0
3, 107040, Note_on_c, 1, 62, 100
3, 107160, Note_on_c, 1, 62, 0
3, 107160, Note_on_c, 1, 67, 100
3, 107280, Note_on_c, 1, 67, 0
3, 107280, Note_on_c, 1, 61, 100
3, 107400, Note_on_c, 1, 61, 0
3, 107400, Note_on_c, 1, 64, 100
3, 107520, Note_on_c, 1, 64, 0
3, 107520, Note_on_c, 1, 57, 100
3, 107640, Note_on_c, 1, 57, 0
3, 107640, Note_on_c, 1, 58, 100
3, 107760, Note_on_c, 1, 58, 0
3, 107760, Note_on_c, 1, 57, 100
3, 107880, Note_on_c, 1, 57, 0
3, 107880, Note_on_c, 1, 55, 100
3, 108000, Note_on_c, 1, 55, 0
3, 108000, Note_on_c, 1, 53, 100
3, 108120, Note_on_c, 1, 53, 0
3, 108120, Note_on_c, 1, 55, 100
3, 108240, Note_on_c, 1, 55, 0
3, 108240, Note_on_c, 1, 52, 100
3, 108360, Note_on_c, 1, 52, 0
3, 108360, Note_on_c, 1, 53, 100
3, 108600, Note_on_c, 1, 53, 0
3, 108600, Note_on_c, 1, 62, 100
3, 108720, Note_on_c, 1, 62, 0
3, 108720, Note_on_c, 1, 55, 100
3, 108960, Note_on_c, 1, 55, 0
3, 108960, Note_on_c, 1, 53, 100
3, 109080, Note_on_c, 1, 53, 0
3, 109080, Note_on_c, 1, 52, 100
3, 109200, Note_on_c, 1, 52, 0
3, 109200, Note_on_c, 1, 57, 100
3, 109320, Note_on_c, 1, 57, 0
3, 109320, Note_on_c, 1, 55, 100
3, 109440, Note_on_c, 1, 55, 0
3, 109440, Note_on_c, 1, 53, 100
3, 109560, Note_on_c, 1, 53, 0
3, 109560, Note_on_c, 1, 52, 100
3, 109680, Note_on_c, 1, 52, 0
3, 109680, Note_on_c, 1, 50, 100
3, 109800, Note_on_c, 1, 50, 0
3, 109800, Note_on_c, 1, 50, 100
3, 109860, Note_on_c, 1, 50, 0
3, 109860, Note_on_c, 1, 49, 100
3, 109920, Note_on_c, 1, 49, 0
3, 109920, Note_on_c, 1, 50, 100
3, 109980, Note_on_c, 1, 50, 0
3, 109980, Note_on_c, 1, 49, 100
3, 110040, Note_on_c, 1, 49, 0
3, 110040, Note_on_c, 1, 50, 100
3, 110100, Note_on_c, 1, 50, 0
3, 110100, Note_on_c, 1, 49, 100
3, 110160, Note_on_c, 1, 49, 0
3, 110160, Note_on_c, 1, 50, 100
3, 110400, Note_on_c, 1, 50, 0
3, 112320, Note_on_c, 1, 62, 100
3, 112680, Note_on_c, 1, 62, 0
3, 112680, Note_on_c, 1, 57, 100
3, 112800, Note_on_c, 1, 57, 0
3, 112800, Note_on_c, 1, 56, 100
3, 112920, Note_on_c, 1, 56, 0
3, 112920, Note_on_c, 1, 57, 100
3, 113040, Note_on_c, 1, 57, 0
3, 113040, Note_on_c, 1, 59, 100
3, 113160, Note_on_c, 1, 59, 0
3, 113160, Note_on_c, 1, 57, 100
3, 113280, Note_on_c, 1, 57, 0
3, 113280, Note_on_c, 1, 59, 100
3, 113400, Note_on_c, 1, 59, 0
3, 113400, Note_on_c, 1, 60, 100
3, 113520, Note_on_c, 1, 60, 0
3, 113520, Note_on_c, 1, 59, 100
3, 113640, Note_on_c, 1, 59, 0
3, 113640, Note_on_c, 1, 61, 100
3, 113760, Note_on_c, 1, 61, 0
3, 113760, Note_on_c, 1, 62, 100
3, 113880, Note_on_c, 1, 62, 0
3, 113880, Note_on_c, 1, 61, 100
3, 114000, Note_on_c, 1, 61, 0
3, 114000, Note_on_c, 1, 62, 100
3, 114120, Note_on_c, 1, 62, 0
3, 114120, Note_on_c, 1, 64, 100
3, 114240, Note_on_c, 1, 64, 0
3, 114240, Note_on_c, 1, 62, 100
3, 114360, Note_on_c, 1, 62, 0
3, 114360, Note_on_c, 1, 64, 100
3, 114480, Note_on_c, 1, 64, 0
3, 114480, Note_on_c, 1, 65, 100
3, 114600, Note_on_c, 1, 65, 0
3, 114840, Note_on_c, 1, 64, 100
3, 114960, Note_on_c, 1, 64, 0
3, 115200, Note_on_c, 1, 62, 100
3, 115320, Note_on_c, 1, 62, 0
3, 115560, Note_on_c, 1, 62, 100
3, 115680, Note_on_c, 1, 62, 0
3, 115680, Note_on_c, 1, 61, 100
3, 116160, Note_on_c, 1, 61, 0
3, 116160, Note_on_c, 1, 57, 100
3, 116280, Note_on_c, 1, 57, 0
3, 116280, Note_on_c, 1, 59, 100
3, 116520, Note_on_c, 1, 59, 0
3, 116520, Note_on_c, 1, 61, 100
3, 116640, Note_on_c, 1, 61, 0
3, 116640, Note_on_c, 1, 62, 100
3, 116760, Note_on_c, 1, 62, 0
3, 116760, Note_on_c, 1, 60, 100
3, 116880, Note_on_c, 1, 60, 0
3, 116880, Note_on_c, 1, 59, 100
3, 117000, Note_on_c, 1, 59, 0
3, 117000, Note_on_c, 1, 60, 100
3, 117240, Note_on_c, 1, 60, 0
3, 117240, Note_on_c, 1, 69, 100
3, 117360, Note_on_c, 1, 69, 0
3, 117360, Note_on_c, 1, 68, 100
3, 117600, Note_on_c, 1, 68, 0
3, 117600, Note_on_c, 1, 62, 100
3, 117720, Note_on_c, 1, 62, 0
3, 117720, Note_on_c, 1, 64, 100
3, 117960, Note_on_c, 1, 64, 0
3, 117960, Note_on_c, 1, 67, 100
3, 118080, Note_on_c, 1, 67, 0
3, 118080, Note_on_c, 1, 65, 100
3, 118200, Note_on_c, 1, 65, 0
3, 118200, Note_on_c, 1, 64, 100
3, 118320, Note_on_c, 1, 64, 0
3, 118320, Note_on_c, 1, 62, 100
3, 118440, Note_on_c, 1, 62, 0
3, 118440, Note_on_c, 1, 61, 100
3, 118680, Note_on_c, 1, 61, 0
3, 118680, Note_on_c, 1, 70, 100
3, 118800, Note_on_c, 1, 70, 0
3, 118800, Note_on_c, 1, 69, 100
3, 118920, Note_on_c, 1, 69, 0
3, 118920, Note_on_c, 1, 65, 100
3, 119040, Note_on_c, 1, 65, 0
3, 119040, Note_on_c, 1, 62, 100
3, 119160, Note_on_c, 1, 62, 0
3, 119160, Note_on_c, 1, 62, 100
3, 119280, Note_on_c, 1, 62, 0
3, 119280, Note_on_c, 1, 67, 100
3, 119400, Note_on_c, 1, 67, 0
3, 119400, Note_on_c, 1, 60, 100
3, 119520, Note_on_c, 1, 60, 0
3, 119520, Note_on_c, 1, 60, 100
3, 119640, Note_on_c, 1, 60, 0
3, 119640, Note_on_c, 1, 65, 100
3, 119760, Note_on_c, 1, 65, 0
3, 119760, Note_on_c, 1, 58, 100
3, 119880, Note_on_c, 1, 58, 0
3, 119880, Note_on_c, 1, 58, 100
3, 120000, Note_on_c, 1, 58, 0
3, 120000, Note_on_c, 1, 57, 100
3, 120120, Note_on_c, 1, 57, 0
3, 120120, Note_on_c, 1, 55, 100
3, 120240, Note_on_c, 1, 55, 0
3, 120240, Note_on_c, 1, 57, 100
3, 120360, Note_on_c, 1, 57, 0
3, 120360, Note_on_c, 1, 61, 100
3, 120480, Note_on_c, 1, 61, 0
3, 120480, Note_on_c, 1, 64, 100
3, 120600, Note_on_c, 1, 64, 0
3, 120600, Note_on_c, 1, 67, 100
3, 120720, Note_on_c, 1, 67, 0
3, 120720, Note_on_c, 1, 65, 100
3, 120840, Note_on_c, 1, 65, 0
3, 120840, Note_on_c, 1, 64, 100
3, 120960, Note_on_c, 1, 64, 0
3, 120960, Note_on_c, 1, 65, 100
3, 121080, Note_on_c, 1, 65, 0
3, 121080, Note_on_c, 1, 64, 100
3, 121200, Note_on_c, 1, 64, 0
3, 121200, Note_on_c, 1, 62, 100
3, 121320, Note_on_c, 1, 62, 0
3, 121320, Note_on_c, 1, 64, 100
3, 121440, Note_on_c, 1, 64, 0
3, 121440, Note_on_c, 1, 62, 100
3, 121560, Note_on_c, 1, 62, 0
3, 121560, Note_on_c, 1, 60, 100
3, 121680, Note_on_c, 1, 60, 0
3, 121680, Note_on_c, 1, 62, 100
3, 121800, Note_on_c, 1, 62, 0
3, 121800, Note_on_c, 1, 60, 100
3, 121920, Note_on_c, 1, 60, 0
3, 121920, Note_on_c, 1, 59, 100
3, 122040, Note_on_c, 1, 59, 0
3, 122040, Note_on_c, 1, 60, 100
3, 122160, Note_on_c, 1, 60, 0
3, 122160, Note_on_c, 1, 62, 100
3, 122280, Note_on_c, 1, 62, 0
3, 122280, Note_on_c, 1, 64, 100
3, 122400, Note_on_c, 1, 64, 0
3, 122400, Note_on_c, 1, 62, 100
3, 122520, Note_on_c, 1, 62, 0
3, 122520, Note_on_c, 1, 64, 100
3, 122640, Note_on_c, 1, 64, 0
3, 122640, Note_on_c, 1, 65, 100
3, 122760, Note_on_c, 1, 65, 0
3, 122760, Note_on_c, 1, 64, 100
3, 122880, Note_on_c, 1, 64, 0
3, 122880, Note_on_c, 1, 65, 100
3, 123000, Note_on_c, 1, 65, 0
3, 123000, Note_on_c, 1, 67, 100
3, 123120, Note_on_c, 1, 67, 0
3, 123120, Note_on_c, 1, 65, 100
3, 123240, Note_on_c, 1, 65, 0
3, 123240, Note_on_c, 1, 62, 100
3, 123360, Note_on_c, 1, 62, 0
3, 123360, Note_on_c, 1, 69, 100
3, 123480, Note_on_c, 1, 69, 0
3, 123480, Note_on_c, 1, 58, 100
3, 123600, Note_on_c, 1, 58, 0
3, 123600, Note_on_c, 1, 64, 100
3, 123720, Note_on_c, 1, 64, 0
3, 123720, Note_on_c, 1, 67, 100
3, 123840, Note_on_c, 1, 67, 0
3, 123840, Note_on_c, 1, 57, 100
3, 123960, Note_on_c, 1, 57, 0
3, 123960, Note_on_c, 1, 62, 100
3, 124080, Note_on_c, 1, 62, 0
3, 124080, Note_on_c, 1, 65, 100
3, 124200, Note_on_c, 1, 65, 0
3, 124200, Note_on_c, 1, 55, 100
3, 124320, Note_on_c, 1, 55, 0
3, 124320, Note_on_c, 1, 61, 100
3, 124440, Note_on_c, 1, 61, 0
3, 124440, Note_on_c, 1, 64, 100
3, 124560, Note_on_c, 1, 64, 0
3, 124560, Note_on_c, 1, 53, 100
3, 124680, Note_on_c, 1, 53, 0
3, 124680, Note_on_c, 1, 57, 100
3, 124800, Note_on_c, 1, 57, 0
3, 124800, Note_on_c, 1, 55, 100
3, 124920, Note_on_c, 1, 55, 0
3, 124920, Note_on_c, 1, 58, 100
3, 125040, Note_on_c, 1, 58, 0
3, 125040, Note_on_c, 1, 57, 100
3, 125160, Note_on_c, 1, 57, 0
3, 125160, Note_on_c, 1, 61, 100
3, 125280, Note_on_c, 1, 61, 0
3, 125280, Note_on_c, 1, 62, 100
3, 125400, Note_on_c, 1, 62, 0
3, 125400, Note_on_c, 1, 64, 100
3, 125520, Note_on_c, 1, 64, 0
3, 125520, Note_on_c, 1, 65, 100
3, 125640, Note_on_c, 1, 65, 0
3, 125640, Note_on_c, 1, 57, 100
3, 125700, Note_on_c, 1, 57, 0
3, 125700, Note_on_c, 1, 56, 100
3, 125760, Note_on_c, 1, 56, 0
3, 125760, Note_on_c, 1, 53, 100
3, 125820, Note_on_c, 1, 53, 0
3, 125820, Note_on_c, 1, 56, 100
3, 125880, Note_on_c, 1, 56, 0
3, 125880, Note_on_c, 1, 57, 100
3, 125940, Note_on_c, 1, 57, 0
3, 125940, Note_on_c, 1, 56, 100
3, 126000, Note_on_c, 1, 56, 0
3, 126000, Note_on_c, 1, 57, 100
3, 126060, Note_on_c, 1, 57, 0
3, 126060, Note_on_c, 1, 56, 100
3, 126120, Note_on_c, 1, 56, 0
3, 126120, Note_on_c, 1, 57, 100
3, 126180, Note_on_c, 1, 57, 0
3, 126180, Note_on_c, 1, 56, 100
3, 126240, Note_on_c, 1, 56, 0
3, 126240, Note_on_c, 1, 53, 100
3, 126300, Note_on_c, 1, 53, 0
3, 126300, Note_on_c, 1, 56, 100
3, 126360, Note_on_c, 1, 56, 0
3, 126360, Note_on_c, 1, 57, 100
3, 126600, Note_on_c, 1, 57, 0
3, 126960, Note_on_c, 1, 59, 100
3, 127080, Note_on_c, 1, 59, 0
3, 127080, Note_on_c, 1, 60, 100
3, 127320, Note_on_c, 1, 60, 0
3, 127320, Note_on_c, 1, 57, 100
3, 127440, Note_on_c, 1, 57, 0
3, 127440, Note_on_c, 1, 62, 100
3, 127680, Note_on_c, 1, 62, 0
3, 127680, Note_on_c, 1, 65, 100
3, 127800, Note_on_c, 1, 65, 0
3, 127800, Note_on_c, 1, 65, 100
3, 127920, Note_on_c, 1, 65, 0
3, 127920, Note_on_c, 1, 64, 100
3, 128040, Note_on_c, 1, 64, 0
3, 128040, Note_on_c, 1, 62, 100
3, 128160, Note_on_c, 1, 62, 0
3, 128160, Note_on_c, 1, 60, 100
3, 128280, Note_on_c, 1, 60, 0
3, 128280, Note_on_c, 1, 62, 100
3, 128400, Note_on_c, 1, 62, 0
3, 128400, Note_on_c, 1, 59, 100
3, 128520, Note_on_c, 1, 59, 0
3, 128520, Note_on_c, 1, 64, 100
3, 128880, Note_on_c, 1, 64, 0
3, 128880, Note_on_c, 1, 57, 100
3, 129240, Note_on_c, 1, 57, 0
3, 129600, Note_on_c, 1, 57, 100
3, 129960, Note_on_c, 1, 57, 0
3, 129960, Note_on_c, 1, 64, 100
3, 130080, Note_on_c, 1, 64, 0
3, 130080, Note_on_c, 1, 65, 100
3, 130200, Note_on_c, 1, 65, 0
3, 130200, Note_on_c, 1, 64, 100
3, 130320, Note_on_c, 1, 64, 0
3, 130320, Note_on_c, 1, 62, 100
3, 130440, Note_on_c, 1, 62, 0
3, 130440, Note_on_c, 1, 64, 100
3, 130560, Note_on_c, 1, 64, 0
3, 130560, Note_on_c, 1, 62, 100
3, 130680, Note_on_c, 1, 62, 0
3, 130680, Note_on_c, 1, 60, 100
3, 130800, Note_on_c, 1, 60, 0
3, 130800, Note_on_c, 1, 62, 100
3, 130920, Note_on_c, 1, 62, 0
3, 130920, Note_on_c, 1, 60, 100
3, 131040, Note_on_c, 1, 60, 0
3, 131040, Note_on_c, 1, 59, 100
3, 131160, Note_on_c, 1, 59, 0
3, 131160, Note_on_c, 1, 60, 100
3, 131280, Note_on_c, 1, 60, 0
3, 131280, Note_on_c, 1, 59, 100
3, 131400, Note_on_c, 1, 59, 0
3, 131400, Note_on_c, 1, 57, 100
3, 131520, Note_on_c, 1, 57, 0
3, 131520, Note_on_c, 1, 59, 100
3, 131640, Note_on_c, 1, 59, 0
3, 131640, Note_on_c, 1, 57, 100
3, 131760, Note_on_c, 1, 57, 0
3, 131760, Note_on_c, 1, 56, 100
3, 131880, Note_on_c, 1, 56, 0
3, 132120, Note_on_c, 1, 57, 100
3, 132240, Note_on_c, 1, 57, 0
3, 132480, Note_on_c, 1, 59, 100
3, 132600, Note_on_c, 1, 59, 0
3, 132840, Note_on_c, 1, 59, 100
3, 132960, Note_on_c, 1, 59, 0
3, 132960, Note_on_c, 1, 60, 100
3, 133440, Note_on_c, 1, 60, 0
3, 133440, Note_on_c, 1, 62, 100
3, 133560, Note_on_c, 1, 62, 0
3, 133560, Note_on_c, 1, 60, 100
3, 133800, Note_on_c, 1, 60, 0
3, 133800, Note_on_c, 1, 59, 100
3, 133920, Note_on_c, 1, 59, 0
3, 133920, Note_on_c, 1, 57, 100
3, 134040, Note_on_c, 1, 57, 0
3, 134040, Note_on_c, 1, 52, 100
3, 134160, Note_on_c, 1, 52, 0
3, 134160, Note_on_c, 1, 57, 100
3, 134280, Note_on_c, 1, 57, 0
3, 134280, Note_on_c, 1, 60, 100
3, 134400, Note_on_c, 1, 60, 0
3, 134400, Note_on_c, 1, 57, 100
3, 134520, Note_on_c, 1, 57, 0
3, 134520, Note_on_c, 1, 60, 100
3, 134640, Note_on_c, 1, 60, 0
3, 134640, Note_on_c, 1, 64, 100
3, 134880, Note_on_c, 1, 64, 0
3, 134880, Note_on_c, 1, 56, 100
3, 135000, Note_on_c, 1, 56, 0
3, 135000, Note_on_c, 1, 57, 100
3, 135240, Note_on_c, 1, 57, 0
3, 135240, Note_on_c, 1, 65, 100
3, 135360, Note_on_c, 1, 65, 0
3, 135360, Note_on_c, 1, 55, 100
3, 135600, Note_on_c, 1, 55, 0
3, 135600, Note_on_c, 1, 64, 100
3, 135720, Note_on_c, 1, 64, 0
3, 135720, Note_on_c, 1, 53, 100
3, 135960, Note_on_c, 1, 53, 0
3, 135960, Note_on_c, 1, 62, 100
3, 136080, Note_on_c, 1, 62, 0
3, 136080, Note_on_c, 1, 52, 100
3, 136200, Note_on_c, 1, 52, 0
3, 136200, Note_on_c, 1, 59, 100
3, 136320, Note_on_c, 1, 59, 0
3, 136320, Note_on_c, 1, 62, 100
3, 136440, Note_on_c, 1, 62, 0
3, 136440, Note_on_c, 1, 60, 100
3, 136560, Note_on_c, 1, 60, 0
3, 136560, Note_on_c, 1, 59, 100
3, 136680, Note_on_c, 1, 59, 0
3, 136680, Note_on_c, 1, 57, 100
3, 136800, Note_on_c, 1, 57, 0
3, 136800, Note_on_c, 1, 56, 100
3, 136920, Note_on_c, 1, 56, 0
3, 136920, Note_on_c, 1, 62, 100
3, 137040, Note_on_c, 1, 62, 0
3, 137040, Note_on_c, 1, 65, 100
3, 137160, Note_on_c, 1, 65, 0
3, 137160, Note_on_c, 1, 64, 100
3, 137280, Note_on_c, 1, 64, 0
3, 137280, Note_on_c, 1, 62, 100
3, 137400, Note_on_c, 1, 62, 0
3, 137400, Note_on_c, 1, 60, 100
3, 137520, Note_on_c, 1, 60, 0
3, 137520, Note_on_c, 1, 59, 100
3, 137640, Note_on_c, 1, 59, 0
3, 137640, Note_on_c, 1, 57, 100
3, 137760, Note_on_c, 1, 57, 0
3, 137760, Note_on_c, 1, 56, 100
3, 137880, Note_on_c, 1, 56, 0
3, 137880, Note_on_c, 1, 57, 100
3, 138000, Note_on_c, 1, 57, 0
3, 138000, Note_on_c, 1, 52, 100
3, 138120, Note_on_c, 1, 52, 0
3, 138120, Note_on_c, 1, 59, 100
3, 138240, Note_on_c, 1, 59, 0
3, 138240, Note_on_c, 1, 60, 100
3, 138360, Note_on_c, 1, 60, 0
3, 138360, Note_on_c, 1, 59, 100
3, 138480, Note_on_c, 1, 59, 0
3, 138480, Note_on_c, 1, 57, 100
3, 138600, Note_on_c, 1, 57, 0
3, 138600, Note_on_c, 1, 64, 100
3, 139080, Note_on_c, 1, 64, 0
3, 139080, Note_on_c, 1, 59, 100
3, 139200, Note_on_c, 1, 59, 0
3, 139200, Note_on_c, 1, 62, 100
3, 139320, Note_on_c, 1, 62, 0
3, 139320, Note_on_c, 1, 62, 100
3, 139440, Note_on_c, 1, 62, 0
3, 139440, Note_on_c, 1, 60, 100
3, 139560, Note_on_c, 1, 60, 0
3, 139560, Note_on_c, 1, 69, 100
3, 139650, Note_on_c, 1, 69, 0
3, 139680, Note_on_c, 1, 60, 100
3, 139800, Note_on_c, 1, 60, 0
3, 139800, Note_on_c, 1, 59, 100
3, 139920, Note_on_c, 1, 59, 0
3, 139920, Note_on_c, 1, 67, 100
3, 140010, Note_on_c, 1, 67, 0
3, 140040, Note_on_c, 1, 59, 100
3, 140160, Note_on_c, 1, 59, 0
3, 140160, Note_on_c, 1, 57, 100
3, 140280, Note_on_c, 1, 57, 0
3, 140280, Note_on_c, 1, 65, 100
3, 140370, Note_on_c, 1, 65, 0
3, 140400, Note_on_c, 1, 57, 100
3, 140520, Note_on_c, 1, 57, 0
3, 140520, Note_on_c, 1, 56, 100
3, 140640, Note_on_c, 1, 56, 0
3, 140640, Note_on_c, 1, 59, 100
3, 140730, Note_on_c, 1, 59, 0
3, 140760, Note_on_c, 1, 52, 100
3, 141000, Note_on_c, 1, 52, 0
3, 141840, Note_on_c, 1, 62, 100
3, 142320, Note_on_c, 1, 62, 0
3, 142320, Note_on_c, 1, 60, 100
3, 142440, Note_on_c, 1, 60, 0
3, 142440, Note_on_c, 1, 62, 100
3, 142560, Note_on_c, 1, 62, 0
3, 142560, Note_on_c, 1, 64, 100
3, 142680, Note_on_c, 1, 64, 0
3, 142680, Note_on_c, 1, 62, 100
3, 142800, Note_on_c, 1, 62, 0
3, 142800, Note_on_c, 1, 60, 100
3, 142920, Note_on_c, 1, 60, 0
3, 142920, Note_on_c, 1, 59, 100
3, 143040, Note_on_c, 1, 59, 0
3, 143040, Note_on_c, 1, 60, 100
3, 143160, Note_on_c, 1, 60, 0
3, 143160, Note_on_c, 1, 62, 100
3, 143280, Note_on_c, 1, 62, 0
3, 143280, Note_on_c, 1, 64, 100
3, 143400, Note_on_c, 1, 64, 0
3, 143400, Note_on_c, 1, 66, 100
3, 143520, Note_on_c, 1, 66, 0
3, 143520, Note_on_c, 1, 68, 100
3, 143640, Note_on_c, 1, 68, 0
3, 143640, Note_on_c, 1, 69, 100
3, 143760, Note_on_c, 1, 69, 0
3, 143760, Note_on_c, 1, 64, 100
3, 143880, Note_on_c, 1, 64, 0
3, 143880, Note_on_c, 1, 60, 100
3, 144000, Note_on_c, 1, 60, 0
3, 144000, Note_on_c, 1, 62, 100
3, 144120, Note_on_c, 1, 62, 0
3, 144120, Note_on_c, 1, 67, 100
3, 144240, Note_on_c, 1, 67, 0
3, 144240, Note_on_c, 1, 59, 100
3, 144360, Note_on_c, 1, 59, 0
3, 144360, Note_on_c, 1, 60, 100
3, 144480, Note_on_c, 1, 60, 0
3, 144480, Note_on_c, 1, 65, 100
3, 144600, Note_on_c, 1, 65, 0
3, 144600, Note_on_c, 1, 57, 100
3, 144720, Note_on_c, 1, 57, 0
3, 144720, Note_on_c, 1, 59, 100
3, 144840, Note_on_c, 1, 59, 0
3, 144840, Note_on_c, 1, 64, 100
3, 144960, Note_on_c, 1, 64, 0
3, 144960, Note_on_c, 1, 62, 100
3, 145080, Note_on_c, 1, 62, 0
3, 145080, Note_on_c, 1, 60, 100
3, 145200, Note_on_c, 1, 60, 0
3, 145200, Note_on_c, 1, 59, 100
3, 145320, Note_on_c, 1, 59, 0
3, 145320, Note_on_c, 1, 57, 100
3, 145440, Note_on_c, 1, 57, 0
3, 145440, Note_on_c, 1, 59, 100
3, 145560, Note_on_c, 1, 59, 0
3, 145560, Note_on_c, 1, 57, 100
3, 145680, Note_on_c, 1, 57, 0
3, 145680, Note_on_c, 1, 56, 100
3, 145800, Note_on_c, 1, 56, 0
3, 145800, Note_on_c, 1, 57, 100
3, 145920, Note_on_c, 1, 57, 0
3, 145920, Note_on_c, 1, 56, 100
3, 146040, Note_on_c, 1, 56, 0
3, 146040, Note_on_c, 1, 54, 100
3, 146160, Note_on_c, 1, 54, 0
3, 146160, Note_on_c, 1, 56, 100
3, 146280, Note_on_c, 1, 56, 0
3, 146280, Note_on_c, 1, 52, 100
3, 146400, Note_on_c, 1, 52, 0
3, 146400, Note_on_c, 1, 56, 100
3, 146520, Note_on_c, 1, 56, 0
3, 146520, Note_on_c, 1, 59, 100
3, 146640, Note_on_c, 1, 59, 0
3, 146640, Note_on_c, 1, 64, 100
3, 146760, Note_on_c, 1, 64, 0
3, 146760, Note_on_c, 1, 62, 100
3, 146880, Note_on_c, 1, 62, 0
3, 146880, Note_on_c, 1, 60, 100
3, 147000, Note_on_c, 1, 60, 0
3, 147000, Note_on_c, 1, 59, 100
3, 147120, Note_on_c, 1, 59, 0
3, 147120, Note_on_c, 1, 57, 100
3, 147240, Note_on_c, 1, 57, 0
3, 147240, Note_on_c, 1, 62, 100
3, 147720, Note_on_c, 1, 62, 0
3, 147720, Note_on_c, 1, 60, 100
3, 147840, Note_on_c, 1, 60, 0
3, 147840, Note_on_c, 1, 59, 100
3, 147960, Note_on_c, 1, 59, 0
3, 147960, Note_on_c, 1, 60, 100
3, 148080, Note_on_c, 1, 60, 0
3, 148320, Note_on_c, 1, 65, 100
3, 148440, Note_on_c, 1, 65, 0
3, 148680, Note_on_c, 1, 64, 100
3, 148800, Note_on_c, 1, 64, 0
3, 149040, Note_on_c, 1, 62, 100
3, 149280, Note_on_c, 1, 62, 0
3, 149280, Note_on_c, 1, 56, 100
3, 149400, Note_on_c, 1, 56, 0
3, 149400, Note_on_c, 1, 57, 100
3, 149640, Note_on_c, 1, 57, 0
3, 149640, Note_on_c, 1, 60, 100
3, 149760, Note_on_c, 1, 60, 0
3, 149760, Note_on_c, 1, 56, 100
3, 149820, Note_on_c, 1, 56, 0
3, 149820, Note_on_c, 1, 53, 100
3, 149880, Note_on_c, 1, 53, 0
3, 149880, Note_on_c, 1, 56, 100
3, 149940, Note_on_c, 1, 56, 0
3, 149940, Note_on_c, 1, 53, 100
3, 150000, Note_on_c, 1, 53, 0
3, 150000, Note_on_c, 1, 52, 100
3, 150060, Note_on_c, 1, 52, 0
3, 150060, Note_on_c, 1, 53, 100
3, 150120, Note_on_c, 1, 53, 0
3, 150120, Note_on_c, 1, 52, 100
3, 150360, Note_on_c, 1, 52, 0
3, 151320, Note_on_c, 1, 50, 100
3, 151440, Note_on_c, 1, 50, 0
3, 151440, Note_on_c, 1, 52, 100
3, 151560, Note_on_c, 1, 52, 0
3, 151560, Note_on_c, 1, 53, 100
3, 151680, Note_on_c, 1, 53, 0
3, 151680, Note_on_c, 1, 55, 100
3, 151800, Note_on_c, 1, 55, 0
3, 151800, Note_on_c, 1, 53, 100
3, 151920, Note_on_c, 1, 53, 0
3, 151920, Note_on_c, 1, 52, 100
3, 152400, Note_on_c, 1, 52, 0
3, 152400, Note_on_c, 1, 53, 100
3, 152520, Note_on_c, 1, 53, 0
3, 152520, Note_on_c, 1, 55, 100
3, 152640, Note_on_c, 1, 55, 0
3, 152640, Note_on_c, 1, 57, 100
3, 152760, Note_on_c, 1, 57, 0
3, 152760, Note_on_c, 1, 58, 100
3, 152880, Note_on_c, 1, 58, 0
3, 152880, Note_on_c, 1, 57, 100
3, 153000, Note_on_c, 1, 57, 0
3, 153000, Note_on_c, 1, 55, 100
3, 153120, Note_on_c, 1, 55, 0
3, 153120, Note_on_c, 1, 57, 100
3, 153240, Note_on_c, 1, 57, 0
3, 153240, Note_on_c, 1, 55, 100
3, 153360, Note_on_c, 1, 55, 0
3, 153360, Note_on_c, 1, 53, 100
3, 153480, Note_on_c, 1, 53, 0
3, 153480, Note_on_c, 1, 55, 100
3, 153600, Note_on_c, 1, 55, 0
3, 153600, Note_on_c, 1, 53, 100
3, 153720, Note_on_c, 1, 53, 0
3, 153720, Note_on_c, 1, 52, 100
3, 153840, Note_on_c, 1, 52, 0
3, 153840, Note_on_c, 1, 53, 100
3, 153960, Note_on_c, 1, 53, 0
3, 153960, Note_on_c, 1, 52, 100
3, 154080, Note_on_c, 1, 52, 0
3, 154080, Note_on_c, 1, 50, 100
3, 154200, Note_on_c, 1, 50, 0
3, 154200, Note_on_c, 1, 52, 100
3, 154320, Note_on_c, 1, 52, 0
3, 154320, Note_on_c, 1, 50, 100
3, 154440, Note_on_c, 1, 50, 0
3, 154440, Note_on_c, 1, 49, 100
3, 154560, Note_on_c, 1, 49, 0
3, 154800, Note_on_c, 1, 50, 100
3, 154920, Note_on_c, 1, 50, 0
3, 155160, Note_on_c, 1, 52, 100
3, 155280, Note_on_c, 1, 52, 0
3, 155520, Note_on_c, 1, 53, 100
3, 156120, Note_on_c, 1, 53, 0
3, 156120, Note_on_c, 1, 57, 100
3, 156240, Note_on_c, 1, 57, 0
3, 156240, Note_on_c, 1, 57, 100
3, 156300, Note_on_c, 1, 57, 0
3, 156300, Note_on_c, 1, 55, 100
3, 156360, Note_on_c, 1, 55, 0
3, 156360, Note_on_c, 1, 57, 100
3, 156420, Note_on_c, 1, 57, 0
3, 156420, Note_on_c, 1, 55, 100
3, 156480, Note_on_c, 1, 55, 0
3, 156480, Note_on_c, 1, 53, 100
3, 156600, Note_on_c, 1, 53, 0
3, 156600, Note_on_c, 1, 55, 100
3, 156720, Note_on_c, 1, 55, 0
3, 156720, Note_on_c, 1, 53, 100
3, 156840, Note_on_c, 1, 53, 0
3, 156840, Note_on_c, 1, 52, 100
3, 156960, Note_on_c, 1, 52, 0
3, 156960, Note_on_c, 1, 62, 100
3, 157020, Note_on_c, 1, 62, 0
3, 157020, Note_on_c, 1, 61, 100
3, 157080, Note_on_c, 1, 61, 0
3, 157080, Note_on_c, 1, 58, 100
3, 157140, Note_on_c, 1, 58, 0
3, 157140, Note_on_c, 1, 61, 100
3, 157200, Note_on_c, 1, 61, 0
3, 157200, Note_on_c, 1, 62, 100
3, 157260, Note_on_c, 1, 62, 0
3, 157260, Note_on_c, 1, 61, 100
3, 157320, Note_on_c, 1, 61, 0
3, 157320, Note_on_c, 1, 62, 100
3, 157380, Note_on_c, 1, 62, 0
3, 157380, Note_on_c, 1, 61, 100
3, 157440, Note_on_c, 1, 61, 0
3, 157440, Note_on_c, 1, 62, 100
3, 157500, Note_on_c, 1, 62, 0
3, 157500, Note_on_c, 1, 61, 100
3, 157560, Note_on_c, 1, 61, 0
3, 157560, Note_on_c, 1, 58, 100
3, 157620, Note_on_c, 1, 58, 0
3, 157620, Note_on_c, 1, 61, 100
3, 157680, Note_on_c, 1, 61, 0
3, 157680, Note_on_c, 1, 62, 100
3, 157800, Note_on_c, 1, 62, 0
3, 157800, Note_on_c, 1, 58, 100
3, 157920, Note_on_c, 1, 58, 0
3, 157920, Note_on_c, 1, 67, 100
3, 158040, Note_on_c, 1, 67, 0
3, 158040, Note_on_c, 1, 60, 100
3, 158160, Note_on_c, 1, 60, 0
3, 158160, Note_on_c, 1, 57, 100
3, 158280, Note_on_c, 1, 57, 0
3, 158280, Note_on_c, 1, 65, 100
3, 158400, Note_on_c, 1, 65, 0
3, 158400, Note_on_c, 1, 58, 100
3, 158520, Note_on_c, 1, 58, 0
3, 158520, Note_on_c, 1, 55, 100
3, 158640, Note_on_c, 1, 55, 0
3, 158640, Note_on_c, 1, 64, 100
3, 158760, Note_on_c, 1, 64, 0
3, 158760, Note_on_c, 1, 57, 100
3, 158880, Note_on_c, 1, 57, 0
3, 158880, Note_on_c, 1, 55, 100
3, 159000, Note_on_c, 1, 55, 0
3, 159000, Note_on_c, 1, 64, 100
3, 159120, Note_on_c, 1, 64, 0
3, 159120, Note_on_c, 1, 57, 100
3, 159240, Note_on_c, 1, 57, 0
3, 159240, Note_on_c, 1, 53, 100
3, 159360, Note_on_c, 1, 53, 0
3, 159360, Note_on_c, 1, 62, 100
3, 159480, Note_on_c, 1, 62, 0
3, 159480, Note_on_c, 1, 55, 100
3, 159600, Note_on_c, 1, 55, 0
3, 159600, Note_on_c, 1, 52, 100
3, 159720, Note_on_c, 1, 52, 0
3, 159720, Note_on_c, 1, 61, 100
3, 159840, Note_on_c, 1, 61, 0
3, 159840, Note_on_c, 1, 62, 100
3, 159960, Note_on_c, 1, 62, 0
3, 159960, Note_on_c, 1, 57, 100
3, 160080, Note_on_c, 1, 57, 0
3, 160080, Note_on_c, 1, 53, 100
3, 160200, Note_on_c, 1, 53, 0
3, 160200, Note_on_c, 1, 50, 100
3, 160320, Note_on_c, 1, 50, 0
3, 160320, Note_on_c, 1, 52, 100
3, 160440, Note_on_c, 1, 52, 0
3, 160440, Note_on_c, 1, 53, 100
3, 160560, Note_on_c, 1, 53, 0
3, 160560, Note_on_c, 1, 52, 100
3, 160680, Note_on_c, 1, 52, 0
3, 160680, Note_on_c, 1, 53, 100
3, 160800, Note_on_c, 1, 53, 0
3, 160800, Note_on_c, 1, 50, 100
3, 160920, Note_on_c, 1, 50, 0
3, 160920, Note_on_c, 1, 52, 100
3, 161400, Note_on_c, 1, 52, 0
3, 161400, Note_on_c, 1, 53, 100
3, 161520, Note_on_c, 1, 53, 0
3, 161520, Note_on_c, 1, 55, 100
3, 161640, Note_on_c, 1, 55, 0
3, 161640, Note_on_c, 1, 53, 100
3, 161760, Note_on_c, 1, 53, 0
3, 161760, Note_on_c, 1, 55, 100
3, 161880, Note_on_c, 1, 55, 0
3, 161880, Note_on_c, 1, 52, 100
3, 162000, Note_on_c, 1, 52, 0
3, 162000, Note_on_c, 1, 53, 100
3, 162120, Note_on_c, 1, 53, 0
3, 162360, Note_on_c, 1, 52, 100
3, 162480, Note_on_c, 1, 52, 0
3, 162720, Note_on_c, 1, 50, 100
3, 162840, Note_on_c, 1, 50, 0
3, 163080, Note_on_c, 1, 49, 100
3, 163200, Note_on_c, 1, 49, 0
3, 163440, Note_on_c, 1, 50, 100
3, 163560, Note_on_c, 1, 50, 0
3, 163800, Note_on_c, 1, 52, 100
3, 163920, Note_on_c, 1, 52, 0
3, 164160, Note_on_c, 1, 53, 100
3, 164280, Note_on_c, 1, 53, 0
3, 164280, Note_on_c, 1, 52, 100
3, 164400, Note_on_c, 1, 52, 0
3, 164400, Note_on_c, 1, 50, 100
3, 164520, Note_on_c, 1, 50, 0
3, 164520, Note_on_c, 1, 58, 100
3, 164640, Note_on_c, 1, 58, 0
3, 164640, Note_on_c, 1, 57, 100
3, 164760, Note_on_c, 1, 57, 0
3, 164760, Note_on_c, 1, 55, 100
3, 164880, Note_on_c, 1, 55, 0
3, 164880, Note_on_c, 1, 61, 100
3, 165120, Note_on_c, 1, 61, 0
3, 165360, Note_on_c, 1, 55, 100
3, 165480, Note_on_c, 1, 55, 0
3, 165480, Note_on_c, 1, 50, 100
3, 165600, Note_on_c, 1, 50, 0
3, 165600, Note_on_c, 1, 49, 100
3, 165720, Note_on_c, 1, 49, 0
3, 165720, Note_on_c, 1, 50, 100
3, 165840, Note_on_c, 1, 50, 0
3, 165840, Note_on_c, 1, 52, 100
3, 165960, Note_on_c, 1, 52, 0
3, 165960, Note_on_c, 1, 45, 100
3, 166080, Note_on_c, 1, 45, 0
3, 166080, Note_on_c, 1, 47, 100
3, 166200, Note_on_c, 1, 47, 0
3, 166200, Note_on_c, 1, 49, 100
3, 166320, Note_on_c, 1, 49, 0
3, 166320, Note_on_c, 1, 50, 100
3, 166440, Note_on_c, 1, 50, 0
3, 166440, Note_on_c, 1, 43, 100
3, 166560, Note_on_c, 1, 43, 0
3, 166560, Note_on_c, 1, 46, 100
3, 166680, Note_on_c, 1, 46, 0
3, 166680, Note_on_c, 1, 48, 100
3, 166800, Note_on_c, 1, 48, 0
3, 166800, Note_on_c, 1, 41, 100
3, 166920, Note_on_c, 1, 41, 0
3, 166920, Note_on_c, 1, 45, 100
3, 167040, Note_on_c, 1, 45, 0
3, 167040, Note_on_c, 1, 46, 100
3, 167160, Note_on_c, 1, 46, 0
3, 167160, Note_on_c, 1, 40, 100
3, 167280, Note_on_c, 1, 40, 0
3, 167280, Note_on_c, 1, 43, 100
3, 167400, Note_on_c, 1, 43, 0
3, 167400, Note_on_c, 1, 45, 100
3, 167520, Note_on_c, 1, 45, 0
3, 167520, Note_on_c, 1, 57, 100
3, 167640, Note_on_c, 1, 57, 0
3, 167640, Note_on_c, 1, 55, 100
3, 167760, Note_on_c, 1, 55, 0
3, 167760, Note_on_c, 1, 53, 100
3, 167880, Note_on_c, 1, 53, 0
3, 167880, Note_on_c, 1, 62, 100
3, 168000, Note_on_c, 1, 62, 0
3, 168000, Note_on_c, 1, 60, 100
3, 168120, Note_on_c, 1, 60, 0
3, 168120, Note_on_c, 1, 58, 100
3, 168240, Note_on_c, 1, 58, 0
3, 168240, Note_on_c, 1, 57, 100
3, 168360, Note_on_c, 1, 57, 0
3, 168360, Note_on_c, 1, 58, 100
3, 168480, Note_on_c, 1, 58, 0
3, 168480, Note_on_c, 1, 57, 100
3, 168840, Note_on_c, 1, 57, 0
3, 168840, Note_on_c, 1, 50, 100
3, 168960, Note_on_c, 1, 50, 0
3, 168960, Note_on_c, 1, 49, 100
3, 169080, Note_on_c, 1, 49, 0
3, 169080, Note_on_c, 1, 50, 100
3, 169200, Note_on_c, 1, 50, 0
3, 169200, Note_on_c, 1, 52, 100
3, 169320, Note_on_c, 1, 52, 0
3, 169320, Note_on_c, 1, 50, 100
3, 169440, Note_on_c, 1, 50, 0
3, 169440, Note_on_c, 1, 52, 100
3, 169560, Note_on_c, 1, 52, 0
3, 169560, Note_on_c, 1, 53, 100
3, 169680, Note_on_c, 1, 53, 0
3, 169680, Note_on_c, 1, 52, 100
3, 169800, Note_on_c, 1, 52, 0
3, 169800, Note_on_c, 1, 53, 100
3, 169920, Note_on_c, 1, 53, 0
3, 169920, Note_on_c, 1, 55, 100
3, 170040, Note_on_c, 1, 55, 0
3, 170040, Note_on_c, 1, 53, 100
3, 170160, Note_on_c, 1, 53, 0
3, 170160, Note_on_c, 1, 55, 100
3, 170280, Note_on_c, 1, 55, 0
3, 170280, Note_on_c, 1, 57, 100
3, 170400, Note_on_c, 1, 57, 0
3, 170400, Note_on_c, 1, 55, 100
3, 170520, Note_on_c, 1, 55, 0
3, 170520, Note_on_c, 1, 57, 100
3, 170640, Note_on_c, 1, 57, 0
3, 170640, Note_on_c, 1, 58, 100
3, 170760, Note_on_c, 1, 58, 0
3, 171000, Note_on_c, 1, 57, 100
3, 171120, Note_on_c, 1, 57, 0
3, 171360, Note_on_c, 1, 55, 100
3, 171480, Note_on_c, 1, 55, 0
3, 171720, Note_on_c, 1, 55, 100
3, 171840, Note_on_c, 1, 55, 0
3, 171840, Note_on_c, 1, 53, 100
3, 172320, Note_on_c, 1, 53, 0
3, 172320, Note_on_c, 1, 52, 100
3, 172440, Note_on_c, 1, 52, 0
3, 172440, Note_on_c, 1, 53, 100
3, 172680, Note_on_c, 1, 53, 0
3, 172680, Note_on_c, 1, 55, 100
3, 172800, Note_on_c, 1, 55, 0
3, 172800, Note_on_c, 1, 57, 100
3, 173040, Note_on_c, 1, 57, 0
3, 173040, Note_on_c, 1, 67, 100
3, 173160, Note_on_c, 1, 67, 0
3, 173160, Note_on_c, 1, 65, 100
3, 173400, Note_on_c, 1, 65, 0
3, 173400, Note_on_c, 1, 57, 100
3, 173520, Note_on_c, 1, 57, 0
3, 173520, Note_on_c, 1, 55, 100
3, 173760, Note_on_c, 1, 55, 0
3, 173760, Note_on_c, 1, 64, 100
3, 173880, Note_on_c, 1, 64, 0
3, 173880, Note_on_c, 1, 62, 100
3, 174120, Note_on_c, 1, 62, 0
3, 174120, Note_on_c, 1, 53, 100
3, 174240, Note_on_c, 1, 53, 0
3, 174240, Note_on_c, 1, 52, 100
3, 174480, Note_on_c, 1, 52, 0
3, 174480, Note_on_c, 1, 62, 100
3, 174600, Note_on_c, 1, 62, 0
3, 174600, Note_on_c, 1, 61, 100
3, 174840, Note_on_c, 1, 61, 0
3, 174840, Note_on_c, 1, 52, 100
3, 174960, Note_on_c, 1, 52, 0
3, 174960, Note_on_c, 1, 52, 100
3, 175080, Note_on_c, 1, 52, 0
3, 175080, Note_on_c, 1, 50, 100
3, 175200, Note_on_c, 1, 50, 0
3, 175200, Note_on_c, 1, 49, 100
3, 175320, Note_on_c, 1, 49, 0
3, 175320, Note_on_c, 1, 50, 100
3, 175440, Note_on_c, 1, 50, 0
3, 175440, Note_on_c, 1, 52, 100
3, 175560, Note_on_c, 1, 52, 0
3, 175560, Note_on_c, 1, 53, 100
3, 175680, Note_on_c, 1, 53, 0
3, 175680, Note_on_c, 1, 55, 100
3, 175800, Note_on_c, 1, 55, 0
3, 175800, Note_on_c, 1, 57, 100
3, 175920, Note_on_c, 1, 57, 0
3, 175920, Note_on_c, 1, 58, 100
3, 176040, Note_on_c, 1, 58, 0
3, 176040, Note_on_c, 1, 58, 100
3, 176160, Note_on_c, 1, 58, 0
3, 176160, Note_on_c, 1, 57, 100
3, 176280, Note_on_c, 1, 57, 0
3, 176280, Note_on_c, 1, 55, 100
3, 176400, Note_on_c, 1, 55, 0
3, 176400, Note_on_c, 1, 57, 100
3, 176520, Note_on_c, 1, 57, 0
3, 176520, Note_on_c, 1, 59, 100
3, 176640, Note_on_c, 1, 59, 0
3, 176640, Note_on_c, 1, 61, 100
3, 176760, Note_on_c, 1, 61, 0
3, 176760, Note_on_c, 1, 62, 100
3, 176880, Note_on_c, 1, 62, 0
3, 176880, Note_on_c, 1, 64, 100
3, 177000, Note_on_c, 1, 64, 0
3, 177000, Note_on_c, 1, 65, 100
3, 177120, Note_on_c, 1, 65, 0
3, 177120, Note_on_c, 1, 65, 100
3, 177240, Note_on_c, 1, 65, 0
3, 177240, Note_on_c, 1, 62, 100
3, 177360, Note_on_c, 1, 62, 0
3, 177360, Note_on_c, 1, 64, 100
3, 177480, Note_on_c, 1, 64, 0
3, 177480, Note_on_c, 1, 64, 100
3, 177600, Note_on_c, 1, 64, 0
3, 177600, Note_on_c, 1, 61, 100
3, 177720, Note_on_c, 1, 61, 0
3, 177720, Note_on_c, 1, 62, 100
3, 177840, Note_on_c, 1, 62, 0
3, 177840, Note_on_c, 1, 62, 100
3, 177960, Note_on_c, 1, 62, 0
3, 177960, Note_on_c, 1, 59, 100
3, 178080, Note_on_c, 1, 59, 0
3, 178080, Note_on_c, 1, 60, 100
3, 178200, Note_on_c, 1, 60, 0
3, 178200, Note_on_c, 1, 60, 100
3, 178320, Note_on_c, 1, 60, 0
3, 178320, Note_on_c, 1, 57, 100
3, 178440, Note_on_c, 1, 57, 0
3, 178440, Note_on_c, 1, 58, 100
3, 178560, Note_on_c, 1, 58, 0
3, 178560, Note_on_c, 1, 58, 100
3, 178680, Note_on_c, 1, 58, 0
3, 178680, Note_on_c, 1, 55, 100
3, 178800, Note_on_c, 1, 55, 0
3, 178800, Note_on_c, 1, 57, 100
3, 178920, Note_on_c, 1, 57, 0
3, 178920, Note_on_c, 1, 57, 100
3, 179040, Note_on_c, 1, 57, 0
3, 179040, Note_on_c, 1, 53, 100
3, 179160, Note_on_c, 1, 53, 0
3, 179160, Note_on_c, 1, 55, 100
3, 179280, Note_on_c, 1, 55, 0
3, 179280, Note_on_c, 1, 55, 100
3, 179400, Note_on_c, 1, 55, 0
3, 179400, Note_on_c, 1, 53, 100
3, 179760, Note_on_c, 1, 53, 0
3, 179760, Note_on_c, 1, 55, 100
3, 179880, Note_on_c, 1, 55, 0
3, 179880, Note_on_c, 1, 57, 100
3, 180000, Note_on_c, 1, 57, 0
3, 180000, Note_on_c, 1, 58, 100
3, 180120, Note_on_c, 1, 58, 0
3, 180120, Note_on_c, 1, 57, 100
3, 180240, Note_on_c, 1, 57, 0
3, 180240, Note_on_c, 1, 55, 100
3, 180360, Note_on_c, 1, 55, 0
3, 180360, Note_on_c, 1, 62, 100
3, 180480, Note_on_c, 1, 62, 0
3, 180480, Note_on_c, 1, 61, 100
3, 180840, Note_on_c, 1, 61, 0
3, 180840, Note_on_c, 1, 62, 100
3, 180960, Note_on_c, 1, 62, 0
3, 180960, Note_on_c, 1, 64, 100
3, 181080, Note_on_c, 1, 64, 0
3, 181080, Note_on_c, 1, 65, 100
3, 181200, Note_on_c, 1, 65, 0
3, 181200, Note_on_c, 1, 64, 100
3, 181320, Note_on_c, 1, 64, 0
3, 181320, Note_on_c, 1, 62, 100
3, 181440, Note_on_c, 1, 62, 0
3, 181440, Note_on_c, 1, 69, 100
3, 181500, Note_on_c, 1, 69, 0
3, 181500, Note_on_c, 1, 68, 100
3, 181560, Note_on_c, 1, 68, 0
3, 181560, Note_on_c, 1, 66, 100
3, 181620, Note_on_c, 1, 66, 0
3, 181620, Note_on_c, 1, 68, 100
3, 181680, Note_on_c, 1, 68, 0
3, 181680, Note_on_c, 1, 69, 100
3, 181740, Note_on_c, 1, 69, 0
3, 181740, Note_on_c, 1, 68, 100
3, 181800, Note_on_c, 1, 68, 0
3, 181800, Note_on_c, 1, 69, 100
3, 181860, Note_on_c, 1, 69, 0
3, 181860, Note_on_c, 1, 68, 100
3, 181920, Note_on_c, 1, 68, 0
3, 181920, Note_on_c, 1, 69, 100
3, 181980, Note_on_c, 1, 69, 0
3, 181980, Note_on_c, 1, 68, 100
3, 182040, Note_on_c, 1, 68, 0
3, 182040, Note_on_c, 1, 69, 100
3, 182100, Note_on_c, 1, 69, 0
3, 182100, Note_on_c, 1, 68, 100
3, 182160, Note_on_c, 1, 68, 0
3, 182160, Note_on_c, 1, 69, 100
3, 182220, Note_on_c, 1, 69, 0
3, 182220, Note_on_c, 1, 68, 100
3, 182280, Note_on_c, 1, 68, 0
3, 182280, Note_on_c, 1, 69, 100
3, 182340, Note_on_c, 1, 69, 0
3, 182340, Note_on_c, 1, 68, 100
3, 182400, Note_on_c, 1, 68, 0
3, 182400, Note_on_c, 1, 69, 100
3, 182460, Note_on_c, 1, 69, 0
3, 182460, Note_on_c, 1, 68, 100
3, 182520, Note_on_c, 1, 68, 0
3, 182520, Note_on_c, 1, 69, 100
3, 182760, Note_on_c, 1, 69, 0
3, 183120, Note_on_c, 1, 61, 100
3, 183240, Note_on_c, 1, 61, 0
3, 183240, Note_on_c, 1, 62, 100
3, 183480, Note_on_c, 1, 62, 0
3, 183480, Note_on_c, 1, 64, 100
3, 183600, Note_on_c, 1, 64, 0
3, 183600, Note_on_c, 1, 57, 100
3, 183720, Note_on_c, 1, 57, 0
3, 183720, Note_on_c, 1, 59, 100
3, 183840, Note_on_c, 1, 59, 0
3, 183840, Note_on_c, 1, 61, 100
3, 183960, Note_on_c, 1, 61, 0
3, 183960, Note_on_c, 1, 62, 100
3, 184080, Note_on_c, 1, 62, 0
3, 184080, Note_on_c, 1, 64, 100
3, 184200, Note_on_c, 1, 64, 0
3, 184200, Note_on_c, 1, 65, 100
3, 184320, Note_on_c, 1, 65, 0
3, 184320, Note_on_c, 1, 55, 100
3, 184800, Note_on_c, 1, 55, 0
3, 184800, Note_on_c, 1, 67, 100
3, 184920, Note_on_c, 1, 67, 0
3, 184920, Note_on_c, 1, 65, 100
3, 185040, Note_on_c, 1, 65, 0
3, 185040, Note_on_c, 1, 64, 100
3, 185160, Note_on_c, 1, 64, 0
3, 185160, Note_on_c, 1, 62, 100
3, 185280, Note_on_c, 1, 62, 0
3, 185280, Note_on_c, 1, 61, 100
3, 185400, Note_on_c, 1, 61, 0
3, 185400, Note_on_c, 1, 62, 100
3, 185880, Note_on_c, 1, 62, 0
3, 185880, Note_on_c, 1, 59, 100
3, 186000, Note_on_c, 1, 59, 0
3, 186000, Note_on_c, 1, 61, 100
3, 186120, Note_on_c, 1, 61, 0
3, 186120, Note_on_c, 1, 62, 100
3, 186240, Note_on_c, 1, 62, 0
3, 186240, Note_on_c, 1, 64, 100
3, 186360, Note_on_c, 1, 64, 0
3, 186360, Note_on_c, 1, 65, 100
3, 186480, Note_on_c, 1, 65, 0
3, 186480, Note_on_c, 1, 64, 100
3, 186600, Note_on_c, 1, 64, 0
3, 186600, Note_on_c, 1, 65, 100
3, 186720, Note_on_c, 1, 65, 0
3, 186720, Note_on_c, 1, 62, 100
3, 186840, Note_on_c, 1, 62, 0
3, 186840, Note_on_c, 1, 61, 100
3, 186960, Note_on_c, 1, 61, 0
3, 186960, Note_on_c, 1, 62, 100
3, 187080, Note_on_c, 1, 62, 0
3, 187080, Note_on_c, 1, 64, 100
3, 187200, Note_on_c, 1, 64, 0
3, 187200, Note_on_c, 1, 57, 100
3, 187680, Note_on_c, 1, 57, 0
3, 187680, Note_on_c, 1, 58, 100
3, 187800, Note_on_c, 1, 58, 0
3, 187800, Note_on_c, 1, 55, 100
3, 187920, Note_on_c, 1, 55, 0
3, 187920, Note_on_c, 1, 53, 100
3, 188040, Note_on_c, 1, 53, 0
3, 188040, Note_on_c, 1, 55, 100
3, 188160, Note_on_c, 1, 55, 0
3, 188160, Note_on_c, 1, 52, 100
3, 188280, Note_on_c, 1, 52, 0
3, 188280, Note_on_c, 1, 53, 100
3, 188400, Note_on_c, 1, 53, 0
3, 188400, Note_on_c, 1, 57, 100
3, 188520, Note_on_c, 1, 57, 0
3, 188520, Note_on_c, 1, 62, 100
3, 188640, Note_on_c, 1, 62, 0
3, 188640, Note_on_c, 1, 60, 100
3, 188760, Note_on_c, 1, 60, 0
3, 188760, Note_on_c, 1, 58, 100
3, 188880, Note_on_c, 1, 58, 0
3, 188880, Note_on_c, 1, 57, 100
3, 189000, Note_on_c, 1, 57, 0
3, 189000, Note_on_c, 1, 58, 100
3, 189120, Note_on_c, 1, 58, 0
3, 189120, Note_on_c, 1, 62, 100
3, 189240, Note_on_c, 1, 62, 0
3, 189240, Note_on_c, 1, 67, 100
3, 189360, Note_on_c, 1, 67, 0
3, 189360, Note_on_c, 1, 61, 100
3, 189480, Note_on_c, 1, 61, 0
3, 189480, Note_on_c, 1, 64, 100
3, 189600, Note_on_c, 1, 64, 0
3, 189600, Note_on_c, 1, 57, 100
3, 189720, Note_on_c, 1, 57, 0
3, 189720, Note_on_c, 1, 58, 100
3, 189840, Note_on_c, 1, 58, 0
3, 189840, Note_on_c, 1, 57, 100
3, 189960, Note_on_c, 1, 57, 0
3, 189960, Note_on_c, 1, 55, 100
3, 190080, Note_on_c, 1, 55, 0
3, 190080, Note_on_c, 1, 53, 100
3, 190200, Note_on_c, 1, 53, 0
3, 190200, Note_on_c, 1, 55, 100
3, 190320, Note_on_c, 1, 55, 0
3, 190320, Note_on_c, 1, 52, 100
3, 190440, Note_on_c, 1, 52, 0
3, 190440, Note_on_c, 1, 53, 100
3, 190680, Note_on_c, 1, 53, 0
3, 190680, Note_on_c, 1, 62, 100
3, 190800, Note_on_c, 1, 62, 0
3, 190800, Note_on_c, 1, 55, 100
3, 191040, Note_on_c, 1, 55, 0
3, 191040, Note_on_c, 1, 53, 100
3, 191160, Note_on_c, 1, 53, 0
3, 191160, Note_on_c, 1, 52, 100
3, 191280, Note_on_c, 1, 52, 0
3, 191280, Note_on_c, 1, 57, 100
3, 191400, Note_on_c, 1, 57, 0
3, 191400, Note_on_c, 1, 55, 100
3, 191520, Note_on_c, 1, 55, 0
3, 191520, Note_on_c, 1, 53, 100
3, 191640, Note_on_c, 1, 53, 0
3, 191640, Note_on_c, 1, 52, 100
3, 191760, Note_on_c, 1, 52, 0
3, 191760, Note_on_c, 1, 50, 100
3, 191880, Note_on_c, 1, 50, 0
3, 191880, Note_on_c, 1, 50, 100
3, 191940, Note_on_c, 1, 50, 0
3, 191940, Note_on_c, 1, 49, 100
3, 192000, Note_on_c, 1, 49, 0
3, 192000, Note_on_c, 1, 50, 100
3, 192060, Note_on_c, 1, 50, 0
3, 192060, Note_on_c, 1, 49, 100
3, 192120, Note_on_c, 1, 49, 0
3, 192120, Note_on_c, 1, 50, 100
3, 192180, Note_on_c, 1, 50, 0
3, 192180, Note_on_c, 1, 49, 100
3, 192240, Note_on_c, 1, 49, 0
3, 192240, Note_on_c, 1, 50, 100
3, 192960, Note_on_c, 1, 50, 0
3, 192960, End_track
4, 0, Start_track
4, 0, MIDI_port, 0
4, 0, Title_t, "Johann Sebastian Bach  (1685-1750)"
4, 0, End_track
5, 0, Start_track
5, 0, MIDI_port, 0
5, 0, Title_t, "The Art of Fugue - BWV 1080"
5, 0, End_track
6, 0, Start_track
6, 0, MIDI_port, 0
6, 0, Title_t, "--------------------------------------"
6, 0, End_track
7, 0, Start_track
7, 0, MIDI_port, 0
7, 0, Title_t, "Contrapunctus XII - Canon alla Ottava"
7, 0, End_track
8, 0, Start_track
8, 0, MIDI_port, 0
8, 0, Title_t, "--------------------------------------"
8, 0, End_track
9, 0, Start_track
9, 0, MIDI_port, 0
9, 0, Title_t, "Original sequence by an unknown author"
9, 0, End_track
10, 0, Start_track
10, 0, MIDI_port, 0
10, 0, Title_t, "Modified with Cakewalk Pro Audio by"
10, 0, End_track
11, 0, Start_track
11, 0, MIDI_port, 0
11, 0, Title_t, "David J. Grossman - dave@unpronounceable.com"
11, 0, End_track
12, 0, Start_track
12, 0, MIDI_port, 0
12, 0, Title_t, "This and other Bach MIDI files can be found at:"
12, 0, End_track
13, 0, Start_track
13, 0, MIDI_port, 0
13, 0, Title_t, "Dave's J.S. Bach Page"
13, 0, End_track
14, 0, Start_track
14, 0, MIDI_port, 0
14, 0, Title_t, "http://www.unpronounceable.com/bach"
14, 0, End_track
15, 0, Start_track
15, 0, MIDI_port, 0
15, 0, Title_t, "--------------------------------------"
15, 0, End_track
16, 0, Start_track
16, 0, MIDI_port, 0
16, 0, Title_t, "Original Filename: 1080-c12.mid"
16, 0, End_track
17, 0, Start_track
17, 0, MIDI_port, 0
17, 0, Title_t, "Last Modified: February 28, 1998"
17, 0, End_track
0, 0, End_of_file
