0, 0, Header, 1, 17, 480
1, 0, Start_track
1, 0, Title_t, "untitled"
1, 0, SMPTE_offset, 96, 0, 3, 0, 0
1, 0, Time_signature, 4, 2, 24, 8
1, 0, Key_signature, -1, "major"
1, 0, Tempo, 600000
1, 157440, Tempo, 600000
1, 157480, Tempo, 603015
1, 157508, Tempo, 606061
1, 157540, Tempo, 609137
1, 157568, Tempo, 612245
1, 157600, Tempo, 615385
1, 157640, Tempo, 618557
1, 157668, Tempo, 621762
1, 157700, Tempo, 625000
1, 157728, Tempo, 628272
1, 157760, Tempo, 631579
1, 157800, Tempo, 634921
1, 157828, Tempo, 638298
1, 157860, Tempo, 641711
1, 157888, Tempo, 645161
1, 157920, Tempo, 648649
1, 157960, Tempo, 652174
1, 157988, Tempo, 655738
1, 158020, Tempo, 659341
1, 158048, Tempo, 662983
1, 158080, Tempo, 666667
1, 158120, Tempo, 670391
1, 158148, Tempo, 674157
1, 158180, Tempo, 677966
1, 158208, Tempo, 681818
1, 158240, Tempo, 685714
1, 158280, Tempo, 689655
1, 158308, Tempo, 693642
1, 158340, Tempo, 697674
1, 158368, Tempo, 701754
1, 158400, Tempo, 705882
1, 158440, Tempo, 710059
1, 158468, Tempo, 714286
1, 158500, Tempo, 718563
1, 158528, Tempo, 722892
1, 158560, Tempo, 727273
1, 158600, Tempo, 731707
1, 158628, Tempo, 736196
1, 158660, Tempo, 740741
1, 158688, Tempo, 745342
1, 158720, Tempo, 750000
1, 158760, Tempo, 754717
1, 158788, Tempo, 759494
1, 158820, Tempo, 764331
1, 158848, Tempo, 769231
1, 158880, Tempo, 774194
1, 158920, Tempo, 779221
1, 158948, Tempo, 784314
1, 158980, Tempo, 789474
1, 159008, Tempo, 794702
1, 159040, Tempo, 800000
1, 159080, Tempo, 805369
1, 159108, Tempo, 810811
1, 159140, Tempo, 816327
1, 159168, Tempo, 821918
1, 159200, Tempo, 827586
1, 159240, Tempo, 833333
1, 159268, Tempo, 839161
1, 159300, Tempo, 845070
1, 159328, Tempo, 851064
1, 159360, Tempo, 857143
1, 159380, Tempo, 863309
1, 159400, Tempo, 869565
1, 159408, Tempo, 875912
1, 159428, Tempo, 882353
1, 159440, Tempo, 888889
1, 159460, Tempo, 895522
1, 159480, Tempo, 902256
1, 159488, Tempo, 909091
1, 159508, Tempo, 916031
1, 159520, Tempo, 923077
1, 159540, Tempo, 930233
1, 159560, Tempo, 937500
1, 159568, Tempo, 944882
1, 159588, Tempo, 952381
1, 159600, Tempo, 960000
1, 159620, Tempo, 967742
1, 159640, Tempo, 975610
1, 159648, Tempo, 983607
1, 159668, Tempo, 991736
1, 159680, Tempo, 1000000
1, 159700, Tempo, 1008403
1, 159720, Tempo, 1016949
1, 159728, Tempo, 1025641
1, 159748, Tempo, 1034483
1, 159760, Tempo, 1043478
1, 159780, Tempo, 1052632
1, 159800, Tempo, 1061947
1, 159808, Tempo, 1071429
1, 159828, Tempo, 1081081
1, 159840, Tempo, 1090909
1, 159860, Tempo, 1100917
1, 159880, Tempo, 1111111
1, 159888, Tempo, 1121495
1, 159908, Tempo, 1132075
1, 159920, Tempo, 1142857
1, 159940, Tempo, 1153846
1, 159960, Tempo, 1165049
1, 159968, Tempo, 1176471
1, 159988, Tempo, 1188119
1, 160000, Tempo, 1200000
1, 160020, Tempo, 1212121
1, 160040, Tempo, 1224490
1, 160048, Tempo, 1237113
1, 160068, Tempo, 1250000
1, 160080, Tempo, 1263158
1, 160100, Tempo, 1276596
1, 160120, Tempo, 1290323
1, 160128, Tempo, 1304348
1, 160148, Tempo, 1318681
1, 160160, Tempo, 1333333
1, 160180, Tempo, 1348315
1, 160200, Tempo, 1363636
1, 160208, Tempo, 1379310
1, 160228, Tempo, 1395349
1, 160240, Tempo, 1411765
1, 160260, Tempo, 1428571
1, 160280, Tempo, 1445783
1, 160288, Tempo, 1463415
1, 160308, Tempo, 1481481
1, 160320, Tempo, 1500000
1, 160320, End_track
2, 0, Start_track
2, 0, MIDI_port, 0
2, 0, Title_t, "String Quartet"
2, 0, Program_c, 0, 40
2, 0, Control_c, 0, 7, 100
2, 0, Control_c, 0, 10, 94
2, 23040, Note_on_c, 0, 69, 100
2, 24000, Note_on_c, 0, 69, 0
2, 24000, Note_on_c, 0, 74, 100
2, 24960, Note_on_c, 0, 74, 0
2, 24960, Note_on_c, 0, 72, 100
2, 25920, Note_on_c, 0, 72, 0
2, 25920, Note_on_c, 0, 69, 100
2, 26880, Note_on_c, 0, 69, 0
2, 26880, Note_on_c, 0, 68, 100
2, 27840, Note_on_c, 0, 68, 0
2, 27840, Note_on_c, 0, 69, 100
2, 28320, Note_on_c, 0, 69, 0
2, 28320, Note_on_c, 0, 71, 100
2, 28800, Note_on_c, 0, 71, 0
2, 28800, Note_on_c, 0, 72, 100
2, 30080, Note_on_c, 0, 72, 0
2, 30080, Note_on_c, 0, 74, 100
2, 30240, Note_on_c, 0, 74, 0
2, 30240, Note_on_c, 0, 72, 100
2, 30560, Note_on_c, 0, 72, 0
2, 30560, Note_on_c, 0, 71, 100
2, 30720, Note_on_c, 0, 71, 0
2, 30720, Note_on_c, 0, 69, 100
2, 34560, Note_on_c, 0, 69, 0
2, 34560, Note_on_c, 0, 62, 100
2, 38720, Note_on_c, 0, 62, 0
2, 38720, Note_on_c, 0, 61, 100
2, 38880, Note_on_c, 0, 61, 0
2, 38880, Note_on_c, 0, 62, 100
2, 39200, Note_on_c, 0, 62, 0
2, 39200, Note_on_c, 0, 65, 100
2, 39360, Note_on_c, 0, 65, 0
2, 39360, Note_on_c, 0, 64, 100
2, 39680, Note_on_c, 0, 64, 0
2, 39680, Note_on_c, 0, 62, 100
2, 39840, Note_on_c, 0, 62, 0
2, 39840, Note_on_c, 0, 68, 100
2, 40160, Note_on_c, 0, 68, 0
2, 40160, Note_on_c, 0, 69, 100
2, 40320, Note_on_c, 0, 69, 0
2, 40320, Note_on_c, 0, 71, 100
2, 40640, Note_on_c, 0, 71, 0
2, 40640, Note_on_c, 0, 72, 100
2, 40800, Note_on_c, 0, 72, 0
2, 40800, Note_on_c, 0, 74, 100
2, 41120, Note_on_c, 0, 74, 0
2, 41120, Note_on_c, 0, 65, 100
2, 41600, Note_on_c, 0, 65, 0
2, 41600, Note_on_c, 0, 64, 100
2, 41680, Note_on_c, 0, 64, 0
2, 41680, Note_on_c, 0, 62, 100
2, 41760, Note_on_c, 0, 62, 0
2, 41760, Note_on_c, 0, 61, 100
2, 42080, Note_on_c, 0, 61, 0
2, 42080, Note_on_c, 0, 62, 100
2, 42240, Note_on_c, 0, 62, 0
2, 42240, Note_on_c, 0, 61, 100
2, 42720, Note_on_c, 0, 61, 0
2, 48000, Note_on_c, 0, 69, 100
2, 48960, Note_on_c, 0, 69, 0
2, 48960, Note_on_c, 0, 74, 100
2, 49920, Note_on_c, 0, 74, 0
2, 49920, Note_on_c, 0, 72, 100
2, 50880, Note_on_c, 0, 72, 0
2, 50880, Note_on_c, 0, 69, 100
2, 51840, Note_on_c, 0, 69, 0
2, 51840, Note_on_c, 0, 68, 100
2, 52800, Note_on_c, 0, 68, 0
2, 52800, Note_on_c, 0, 69, 100
2, 53280, Note_on_c, 0, 69, 0
2, 53280, Note_on_c, 0, 71, 100
2, 53760, Note_on_c, 0, 71, 0
2, 53760, Note_on_c, 0, 72, 100
2, 55040, Note_on_c, 0, 72, 0
2, 55040, Note_on_c, 0, 74, 100
2, 55200, Note_on_c, 0, 74, 0
2, 55200, Note_on_c, 0, 72, 100
2, 55520, Note_on_c, 0, 72, 0
2, 55520, Note_on_c, 0, 71, 100
2, 55680, Note_on_c, 0, 71, 0
2, 55680, Note_on_c, 0, 72, 100
2, 56160, Note_on_c, 0, 72, 0
2, 56160, Note_on_c, 0, 81, 100
2, 56960, Note_on_c, 0, 81, 0
2, 56960, Note_on_c, 0, 79, 100
2, 57120, Note_on_c, 0, 79, 0
2, 57120, Note_on_c, 0, 77, 100
2, 57440, Note_on_c, 0, 77, 0
2, 57440, Note_on_c, 0, 76, 100
2, 57920, Note_on_c, 0, 76, 0
2, 57920, Note_on_c, 0, 77, 100
2, 58080, Note_on_c, 0, 77, 0
2, 58080, Note_on_c, 0, 76, 100
2, 58400, Note_on_c, 0, 76, 0
2, 58400, Note_on_c, 0, 74, 100
2, 58880, Note_on_c, 0, 74, 0
2, 58880, Note_on_c, 0, 76, 100
2, 59040, Note_on_c, 0, 76, 0
2, 59040, Note_on_c, 0, 74, 100
2, 59360, Note_on_c, 0, 74, 0
2, 59360, Note_on_c, 0, 73, 100
2, 59520, Note_on_c, 0, 73, 0
2, 59520, Note_on_c, 0, 74, 100
2, 60480, Note_on_c, 0, 74, 0
2, 63680, Note_on_c, 0, 81, 100
2, 63840, Note_on_c, 0, 81, 0
2, 63840, Note_on_c, 0, 80, 100
2, 64160, Note_on_c, 0, 80, 0
2, 64160, Note_on_c, 0, 81, 100
2, 64320, Note_on_c, 0, 81, 0
2, 64320, Note_on_c, 0, 74, 100
2, 64800, Note_on_c, 0, 74, 0
2, 64800, Note_on_c, 0, 79, 100
2, 65280, Note_on_c, 0, 79, 0
2, 65280, Note_on_c, 0, 79, 100
2, 65600, Note_on_c, 0, 79, 0
2, 65600, Note_on_c, 0, 77, 100
2, 65760, Note_on_c, 0, 77, 0
2, 65760, Note_on_c, 0, 76, 100
2, 66080, Note_on_c, 0, 76, 0
2, 66080, Note_on_c, 0, 74, 100
2, 66240, Note_on_c, 0, 74, 0
2, 66240, Note_on_c, 0, 76, 100
2, 66720, Note_on_c, 0, 76, 0
2, 66720, Note_on_c, 0, 81, 100
2, 67200, Note_on_c, 0, 81, 0
2, 67200, Note_on_c, 0, 74, 100
2, 67680, Note_on_c, 0, 74, 0
2, 67680, Note_on_c, 0, 76, 100
2, 68160, Note_on_c, 0, 76, 0
2, 68160, Note_on_c, 0, 64, 100
2, 68640, Note_on_c, 0, 64, 0
2, 68640, Note_on_c, 0, 65, 100
2, 69120, Note_on_c, 0, 65, 0
2, 69120, Note_on_c, 0, 64, 100
2, 69600, Note_on_c, 0, 64, 0
2, 69600, Note_on_c, 0, 76, 100
2, 70400, Note_on_c, 0, 76, 0
2, 70400, Note_on_c, 0, 74, 100
2, 70560, Note_on_c, 0, 74, 0
2, 70560, Note_on_c, 0, 72, 100
2, 70880, Note_on_c, 0, 72, 0
2, 70880, Note_on_c, 0, 71, 100
2, 71040, Note_on_c, 0, 71, 0
2, 71040, Note_on_c, 0, 72, 100
2, 71360, Note_on_c, 0, 72, 0
2, 71360, Note_on_c, 0, 74, 100
2, 71520, Note_on_c, 0, 74, 0
2, 71520, Note_on_c, 0, 76, 100
2, 72320, Note_on_c, 0, 76, 0
2, 72320, Note_on_c, 0, 77, 100
2, 72480, Note_on_c, 0, 77, 0
2, 72480, Note_on_c, 0, 76, 100
2, 72800, Note_on_c, 0, 76, 0
2, 72800, Note_on_c, 0, 74, 100
2, 72960, Note_on_c, 0, 74, 0
2, 72960, Note_on_c, 0, 81, 100
2, 73440, Note_on_c, 0, 81, 0
2, 77120, Note_on_c, 0, 76, 100
2, 77280, Note_on_c, 0, 76, 0
2, 77280, Note_on_c, 0, 75, 100
2, 77600, Note_on_c, 0, 75, 0
2, 77600, Note_on_c, 0, 76, 100
2, 77760, Note_on_c, 0, 76, 0
2, 77760, Note_on_c, 0, 69, 100
2, 78240, Note_on_c, 0, 69, 0
2, 78240, Note_on_c, 0, 74, 100
2, 79040, Note_on_c, 0, 74, 0
2, 79040, Note_on_c, 0, 72, 100
2, 79200, Note_on_c, 0, 72, 0
2, 79200, Note_on_c, 0, 70, 100
2, 79520, Note_on_c, 0, 70, 0
2, 79520, Note_on_c, 0, 69, 100
2, 79680, Note_on_c, 0, 69, 0
2, 79680, Note_on_c, 0, 70, 100
2, 80960, Note_on_c, 0, 70, 0
2, 80960, Note_on_c, 0, 69, 100
2, 81120, Note_on_c, 0, 69, 0
2, 81120, Note_on_c, 0, 67, 100
2, 81440, Note_on_c, 0, 67, 0
2, 81440, Note_on_c, 0, 65, 100
2, 81600, Note_on_c, 0, 65, 0
2, 81600, Note_on_c, 0, 67, 100
2, 82880, Note_on_c, 0, 67, 0
2, 82880, Note_on_c, 0, 65, 100
2, 83040, Note_on_c, 0, 65, 0
2, 83040, Note_on_c, 0, 67, 100
2, 83360, Note_on_c, 0, 67, 0
2, 83360, Note_on_c, 0, 69, 100
2, 83520, Note_on_c, 0, 69, 0
2, 83520, Note_on_c, 0, 70, 100
2, 83840, Note_on_c, 0, 70, 0
2, 83840, Note_on_c, 0, 72, 100
2, 84000, Note_on_c, 0, 72, 0
2, 84000, Note_on_c, 0, 74, 100
2, 84320, Note_on_c, 0, 74, 0
2, 84320, Note_on_c, 0, 76, 100
2, 84480, Note_on_c, 0, 76, 0
2, 84480, Note_on_c, 0, 77, 100
2, 85440, Note_on_c, 0, 77, 0
2, 85440, Note_on_c, 0, 84, 100
2, 86400, Note_on_c, 0, 84, 0
2, 86400, Note_on_c, 0, 81, 100
2, 87360, Note_on_c, 0, 81, 0
2, 87360, Note_on_c, 0, 77, 100
2, 88320, Note_on_c, 0, 77, 0
2, 88320, Note_on_c, 0, 76, 100
2, 89280, Note_on_c, 0, 76, 0
2, 89280, Note_on_c, 0, 77, 100
2, 89760, Note_on_c, 0, 77, 0
2, 89760, Note_on_c, 0, 79, 100
2, 90240, Note_on_c, 0, 79, 0
2, 90240, Note_on_c, 0, 81, 100
2, 91520, Note_on_c, 0, 81, 0
2, 91520, Note_on_c, 0, 82, 100
2, 91680, Note_on_c, 0, 82, 0
2, 91680, Note_on_c, 0, 81, 100
2, 92000, Note_on_c, 0, 81, 0
2, 92000, Note_on_c, 0, 79, 100
2, 92160, Note_on_c, 0, 79, 0
2, 92160, Note_on_c, 0, 78, 100
2, 93120, Note_on_c, 0, 78, 0
2, 93120, Note_on_c, 0, 79, 100
2, 93600, Note_on_c, 0, 79, 0
2, 93600, Note_on_c, 0, 81, 100
2, 94400, Note_on_c, 0, 81, 0
2, 94400, Note_on_c, 0, 74, 100
2, 94560, Note_on_c, 0, 74, 0
2, 94560, Note_on_c, 0, 79, 100
2, 94880, Note_on_c, 0, 79, 0
2, 94880, Note_on_c, 0, 77, 100
2, 95040, Note_on_c, 0, 77, 0
2, 95040, Note_on_c, 0, 75, 100
2, 95360, Note_on_c, 0, 75, 0
2, 95360, Note_on_c, 0, 74, 100
2, 95520, Note_on_c, 0, 74, 0
2, 95520, Note_on_c, 0, 72, 100
2, 95840, Note_on_c, 0, 72, 0
2, 95840, Note_on_c, 0, 70, 100
2, 96000, Note_on_c, 0, 70, 0
2, 96000, Note_on_c, 0, 69, 100
2, 96960, Note_on_c, 0, 69, 0
2, 104000, Note_on_c, 0, 79, 100
2, 104160, Note_on_c, 0, 79, 0
2, 104160, Note_on_c, 0, 77, 100
2, 104480, Note_on_c, 0, 77, 0
2, 104480, Note_on_c, 0, 75, 100
2, 104640, Note_on_c, 0, 75, 0
2, 104640, Note_on_c, 0, 74, 100
2, 104960, Note_on_c, 0, 74, 0
2, 104960, Note_on_c, 0, 72, 100
2, 105120, Note_on_c, 0, 72, 0
2, 105120, Note_on_c, 0, 70, 100
2, 105440, Note_on_c, 0, 70, 0
2, 105440, Note_on_c, 0, 69, 100
2, 105600, Note_on_c, 0, 69, 0
2, 105600, Note_on_c, 0, 70, 100
2, 106560, Note_on_c, 0, 70, 0
2, 106560, Note_on_c, 0, 75, 100
2, 107840, Note_on_c, 0, 75, 0
2, 107840, Note_on_c, 0, 74, 100
2, 108000, Note_on_c, 0, 74, 0
2, 108000, Note_on_c, 0, 73, 100
2, 108320, Note_on_c, 0, 73, 0
2, 108320, Note_on_c, 0, 74, 100
2, 108480, Note_on_c, 0, 74, 0
2, 108480, Note_on_c, 0, 67, 100
2, 108960, Note_on_c, 0, 67, 0
2, 108960, Note_on_c, 0, 72, 100
2, 109920, Note_on_c, 0, 72, 0
2, 109920, Note_on_c, 0, 70, 100
2, 110400, Note_on_c, 0, 70, 0
2, 110400, Note_on_c, 0, 69, 100
2, 111680, Note_on_c, 0, 69, 0
2, 111680, Note_on_c, 0, 77, 100
2, 111840, Note_on_c, 0, 77, 0
2, 111840, Note_on_c, 0, 79, 100
2, 112160, Note_on_c, 0, 79, 0
2, 112160, Note_on_c, 0, 77, 100
2, 112320, Note_on_c, 0, 77, 0
2, 112320, Note_on_c, 0, 76, 100
2, 112640, Note_on_c, 0, 76, 0
2, 112640, Note_on_c, 0, 74, 100
2, 112800, Note_on_c, 0, 74, 0
2, 112800, Note_on_c, 0, 73, 100
2, 113120, Note_on_c, 0, 73, 0
2, 113120, Note_on_c, 0, 74, 100
2, 113280, Note_on_c, 0, 74, 0
2, 113280, Note_on_c, 0, 73, 100
2, 113600, Note_on_c, 0, 73, 0
2, 113600, Note_on_c, 0, 81, 100
2, 113760, Note_on_c, 0, 81, 0
2, 113760, Note_on_c, 0, 82, 100
2, 114080, Note_on_c, 0, 82, 0
2, 114080, Note_on_c, 0, 81, 100
2, 114240, Note_on_c, 0, 81, 0
2, 114240, Note_on_c, 0, 79, 100
2, 114560, Note_on_c, 0, 79, 0
2, 114560, Note_on_c, 0, 77, 100
2, 114720, Note_on_c, 0, 77, 0
2, 114720, Note_on_c, 0, 76, 100
2, 115040, Note_on_c, 0, 76, 0
2, 115040, Note_on_c, 0, 77, 100
2, 115200, Note_on_c, 0, 77, 0
2, 115200, Note_on_c, 0, 79, 100
2, 115520, Note_on_c, 0, 79, 0
2, 115520, Note_on_c, 0, 77, 100
2, 115680, Note_on_c, 0, 77, 0
2, 115680, Note_on_c, 0, 76, 100
2, 116000, Note_on_c, 0, 76, 0
2, 116000, Note_on_c, 0, 74, 100
2, 116480, Note_on_c, 0, 74, 0
2, 116480, Note_on_c, 0, 76, 100
2, 116640, Note_on_c, 0, 76, 0
2, 116640, Note_on_c, 0, 74, 100
2, 116960, Note_on_c, 0, 74, 0
2, 116960, Note_on_c, 0, 73, 100
2, 117120, Note_on_c, 0, 73, 0
2, 117120, Note_on_c, 0, 74, 100
2, 117600, Note_on_c, 0, 74, 0
2, 118560, Note_on_c, 0, 70, 100
2, 119360, Note_on_c, 0, 70, 0
2, 119360, Note_on_c, 0, 70, 100
2, 119520, Note_on_c, 0, 70, 0
2, 119520, Note_on_c, 0, 69, 100
2, 119840, Note_on_c, 0, 69, 0
2, 119840, Note_on_c, 0, 67, 100
2, 120000, Note_on_c, 0, 67, 0
2, 120000, Note_on_c, 0, 65, 100
2, 120320, Note_on_c, 0, 65, 0
2, 120320, Note_on_c, 0, 64, 100
2, 120480, Note_on_c, 0, 64, 0
2, 120480, Note_on_c, 0, 62, 100
2, 120800, Note_on_c, 0, 62, 0
2, 120800, Note_on_c, 0, 61, 100
2, 120960, Note_on_c, 0, 61, 0
2, 120960, Note_on_c, 0, 62, 100
2, 121280, Note_on_c, 0, 62, 0
2, 121280, Note_on_c, 0, 74, 100
2, 121440, Note_on_c, 0, 74, 0
2, 121440, Note_on_c, 0, 76, 100
2, 121760, Note_on_c, 0, 76, 0
2, 121760, Note_on_c, 0, 77, 100
2, 121920, Note_on_c, 0, 77, 0
2, 121920, Note_on_c, 0, 79, 100
2, 123360, Note_on_c, 0, 79, 0
2, 123360, Note_on_c, 0, 77, 100
2, 123680, Note_on_c, 0, 77, 0
2, 123680, Note_on_c, 0, 76, 100
2, 123840, Note_on_c, 0, 76, 0
2, 123840, Note_on_c, 0, 77, 100
2, 124320, Note_on_c, 0, 77, 0
2, 124320, Note_on_c, 0, 81, 100
2, 124800, Note_on_c, 0, 81, 0
2, 124800, Note_on_c, 0, 74, 100
2, 125760, Note_on_c, 0, 74, 0
2, 125760, Note_on_c, 0, 76, 100
2, 126240, Note_on_c, 0, 76, 0
2, 126240, Note_on_c, 0, 78, 100
2, 126720, Note_on_c, 0, 78, 0
2, 126720, Note_on_c, 0, 79, 100
2, 128160, Note_on_c, 0, 79, 0
2, 128160, Note_on_c, 0, 74, 100
2, 128960, Note_on_c, 0, 74, 0
2, 128960, Note_on_c, 0, 76, 100
2, 129120, Note_on_c, 0, 76, 0
2, 129120, Note_on_c, 0, 74, 100
2, 129440, Note_on_c, 0, 74, 0
2, 129440, Note_on_c, 0, 72, 100
2, 129920, Note_on_c, 0, 72, 0
2, 129920, Note_on_c, 0, 74, 100
2, 130080, Note_on_c, 0, 74, 0
2, 130080, Note_on_c, 0, 72, 100
2, 130400, Note_on_c, 0, 72, 0
2, 130400, Note_on_c, 0, 70, 100
2, 130880, Note_on_c, 0, 70, 0
2, 130880, Note_on_c, 0, 70, 100
2, 131040, Note_on_c, 0, 70, 0
2, 131040, Note_on_c, 0, 69, 100
2, 131360, Note_on_c, 0, 69, 0
2, 131360, Note_on_c, 0, 67, 100
2, 131520, Note_on_c, 0, 67, 0
2, 131520, Note_on_c, 0, 65, 100
2, 131840, Note_on_c, 0, 65, 0
2, 131840, Note_on_c, 0, 72, 100
2, 132000, Note_on_c, 0, 72, 0
2, 132000, Note_on_c, 0, 70, 100
2, 132320, Note_on_c, 0, 70, 0
2, 132320, Note_on_c, 0, 69, 100
2, 132480, Note_on_c, 0, 69, 0
2, 132480, Note_on_c, 0, 68, 100
2, 133280, Note_on_c, 0, 68, 0
2, 133280, Note_on_c, 0, 68, 100
2, 133440, Note_on_c, 0, 68, 0
2, 133440, Note_on_c, 0, 69, 100
2, 134240, Note_on_c, 0, 69, 0
2, 134240, Note_on_c, 0, 69, 100
2, 134400, Note_on_c, 0, 69, 0
2, 134400, Note_on_c, 0, 74, 100
2, 134720, Note_on_c, 0, 74, 0
2, 134720, Note_on_c, 0, 76, 100
2, 134880, Note_on_c, 0, 76, 0
2, 134880, Note_on_c, 0, 77, 100
2, 135360, Note_on_c, 0, 77, 0
2, 135360, Note_on_c, 0, 76, 100
2, 136640, Note_on_c, 0, 76, 0
2, 136640, Note_on_c, 0, 81, 100
2, 136800, Note_on_c, 0, 81, 0
2, 136800, Note_on_c, 0, 80, 100
2, 137120, Note_on_c, 0, 80, 0
2, 137120, Note_on_c, 0, 81, 100
2, 137280, Note_on_c, 0, 81, 0
2, 137280, Note_on_c, 0, 76, 100
2, 137600, Note_on_c, 0, 76, 0
2, 137600, Note_on_c, 0, 78, 100
2, 137760, Note_on_c, 0, 78, 0
2, 137760, Note_on_c, 0, 79, 100
2, 138720, Note_on_c, 0, 79, 0
2, 138720, Note_on_c, 0, 77, 100
2, 139680, Note_on_c, 0, 77, 0
2, 139680, Note_on_c, 0, 76, 100
2, 140000, Note_on_c, 0, 76, 0
2, 140000, Note_on_c, 0, 74, 100
2, 140160, Note_on_c, 0, 74, 0
2, 140160, Note_on_c, 0, 73, 100
2, 140640, Note_on_c, 0, 73, 0
2, 140640, Note_on_c, 0, 76, 100
2, 141120, Note_on_c, 0, 76, 0
2, 141120, Note_on_c, 0, 69, 100
2, 142560, Note_on_c, 0, 69, 0
2, 142560, Note_on_c, 0, 62, 100
2, 143520, Note_on_c, 0, 62, 0
2, 143520, Note_on_c, 0, 67, 100
2, 144320, Note_on_c, 0, 67, 0
2, 144320, Note_on_c, 0, 70, 100
2, 144480, Note_on_c, 0, 70, 0
2, 144480, Note_on_c, 0, 69, 100
2, 144800, Note_on_c, 0, 69, 0
2, 144800, Note_on_c, 0, 67, 100
2, 145280, Note_on_c, 0, 67, 0
2, 145280, Note_on_c, 0, 69, 100
2, 145440, Note_on_c, 0, 69, 0
2, 145440, Note_on_c, 0, 67, 100
2, 145760, Note_on_c, 0, 67, 0
2, 145760, Note_on_c, 0, 65, 100
2, 146240, Note_on_c, 0, 65, 0
2, 146240, Note_on_c, 0, 67, 100
2, 146400, Note_on_c, 0, 67, 0
2, 146400, Note_on_c, 0, 65, 100
2, 146720, Note_on_c, 0, 65, 0
2, 146720, Note_on_c, 0, 64, 100
2, 147200, Note_on_c, 0, 64, 0
2, 147200, Note_on_c, 0, 65, 100
2, 147360, Note_on_c, 0, 65, 0
2, 147360, Note_on_c, 0, 64, 100
2, 147680, Note_on_c, 0, 64, 0
2, 147680, Note_on_c, 0, 62, 100
2, 148160, Note_on_c, 0, 62, 0
2, 148160, Note_on_c, 0, 59, 100
2, 148320, Note_on_c, 0, 59, 0
2, 148320, Note_on_c, 0, 61, 100
2, 148640, Note_on_c, 0, 61, 0
2, 148640, Note_on_c, 0, 64, 100
2, 148800, Note_on_c, 0, 64, 0
2, 148800, Note_on_c, 0, 57, 100
2, 149120, Note_on_c, 0, 57, 0
2, 149120, Note_on_c, 0, 67, 100
2, 149280, Note_on_c, 0, 67, 0
2, 149280, Note_on_c, 0, 65, 100
2, 149600, Note_on_c, 0, 65, 0
2, 149600, Note_on_c, 0, 64, 100
2, 149760, Note_on_c, 0, 64, 0
2, 149760, Note_on_c, 0, 62, 100
2, 150720, Note_on_c, 0, 62, 0
2, 150720, Note_on_c, 0, 69, 100
2, 151680, Note_on_c, 0, 69, 0
2, 151680, Note_on_c, 0, 65, 100
2, 152640, Note_on_c, 0, 65, 0
2, 152640, Note_on_c, 0, 62, 100
2, 153600, Note_on_c, 0, 62, 0
2, 153600, Note_on_c, 0, 61, 100
2, 154560, Note_on_c, 0, 61, 0
2, 154560, Note_on_c, 0, 62, 100
2, 155040, Note_on_c, 0, 62, 0
2, 155040, Note_on_c, 0, 64, 100
2, 155520, Note_on_c, 0, 64, 0
2, 155520, Note_on_c, 0, 65, 100
2, 156800, Note_on_c, 0, 65, 0
2, 156800, Note_on_c, 0, 67, 100
2, 156960, Note_on_c, 0, 67, 0
2, 156960, Note_on_c, 0, 65, 100
2, 157280, Note_on_c, 0, 65, 0
2, 157280, Note_on_c, 0, 64, 100
2, 157440, Note_on_c, 0, 64, 0
2, 157440, Note_on_c, 0, 62, 100
2, 161280, Note_on_c, 0, 62, 0
2, 161280, End_track
3, 0, Start_track
3, 0, MIDI_port, 0
3, 0, Title_t, "--------------------------------------"
3, 0, Program_c, 1, 40
3, 0, Control_c, 1, 7, 100
3, 0, Control_c, 1, 10, 74
3, 15360, Note_on_c, 1, 62, 100
3, 16320, Note_on_c, 1, 62, 0
3, 16320, Note_on_c, 1, 69, 100
3, 17280, Note_on_c, 1, 69, 0
3, 17280, Note_on_c, 1, 65, 100
3, 18240, Note_on_c, 1, 65, 0
3, 18240, Note_on_c, 1, 62, 100
3, 19200, Note_on_c, 1, 62, 0
3, 19200, Note_on_c, 1, 61, 100
3, 20160, Note_on_c, 1, 61, 0
3, 20160, Note_on_c, 1, 62, 100
3, 20640, Note_on_c, 1, 62, 0
3, 20640, Note_on_c, 1, 64, 100
3, 21120, Note_on_c, 1, 64, 0
3, 21120, Note_on_c, 1, 65, 100
3, 22400, Note_on_c, 1, 65, 0
3, 22400, Note_on_c, 1, 67, 100
3, 22560, Note_on_c, 1, 67, 0
3, 22560, Note_on_c, 1, 65, 100
3, 22880, Note_on_c, 1, 65, 0
3, 22880, Note_on_c, 1, 64, 100
3, 23040, Note_on_c, 1, 64, 0
3, 23040, Note_on_c, 1, 62, 100
3, 23360, Note_on_c, 1, 62, 0
3, 23360, Note_on_c, 1, 64, 100
3, 23520, Note_on_c, 1, 64, 0
3, 23520, Note_on_c, 1, 65, 100
3, 23840, Note_on_c, 1, 65, 0
3, 23840, Note_on_c, 1, 67, 100
3, 24000, Note_on_c, 1, 67, 0
3, 24000, Note_on_c, 1, 69, 100
3, 25280, Note_on_c, 1, 69, 0
3, 25280, Note_on_c, 1, 67, 100
3, 25440, Note_on_c, 1, 67, 0
3, 25440, Note_on_c, 1, 65, 100
3, 25760, Note_on_c, 1, 65, 0
3, 25760, Note_on_c, 1, 64, 100
3, 26240, Note_on_c, 1, 64, 0
3, 26240, Note_on_c, 1, 65, 100
3, 26400, Note_on_c, 1, 65, 0
3, 26400, Note_on_c, 1, 64, 100
3, 26720, Note_on_c, 1, 64, 0
3, 26720, Note_on_c, 1, 62, 100
3, 27200, Note_on_c, 1, 62, 0
3, 27200, Note_on_c, 1, 62, 100
3, 27360, Note_on_c, 1, 62, 0
3, 27360, Note_on_c, 1, 64, 100
3, 27680, Note_on_c, 1, 64, 0
3, 27680, Note_on_c, 1, 65, 100
3, 27840, Note_on_c, 1, 65, 0
3, 27840, Note_on_c, 1, 64, 100
3, 28320, Note_on_c, 1, 64, 0
3, 28320, Note_on_c, 1, 62, 100
3, 28800, Note_on_c, 1, 62, 0
3, 28800, Note_on_c, 1, 60, 100
3, 29280, Note_on_c, 1, 60, 0
3, 29280, Note_on_c, 1, 64, 100
3, 29760, Note_on_c, 1, 64, 0
3, 29760, Note_on_c, 1, 65, 100
3, 30240, Note_on_c, 1, 65, 0
3, 30240, Note_on_c, 1, 64, 100
3, 31040, Note_on_c, 1, 64, 0
3, 31040, Note_on_c, 1, 61, 100
3, 31200, Note_on_c, 1, 61, 0
3, 31200, Note_on_c, 1, 62, 100
3, 31520, Note_on_c, 1, 62, 0
3, 31520, Note_on_c, 1, 64, 100
3, 31680, Note_on_c, 1, 64, 0
3, 31680, Note_on_c, 1, 65, 100
3, 32160, Note_on_c, 1, 65, 0
3, 32160, Note_on_c, 1, 64, 100
3, 32960, Note_on_c, 1, 64, 0
3, 32960, Note_on_c, 1, 64, 100
3, 33120, Note_on_c, 1, 64, 0
3, 33120, Note_on_c, 1, 62, 100
3, 33440, Note_on_c, 1, 62, 0
3, 33440, Note_on_c, 1, 61, 100
3, 33600, Note_on_c, 1, 61, 0
3, 33600, Note_on_c, 1, 62, 100
3, 34080, Note_on_c, 1, 62, 0
3, 34080, Note_on_c, 1, 60, 100
3, 35040, Note_on_c, 1, 60, 0
3, 35040, Note_on_c, 1, 58, 100
3, 35360, Note_on_c, 1, 58, 0
3, 35360, Note_on_c, 1, 57, 100
3, 35520, Note_on_c, 1, 57, 0
3, 35520, Note_on_c, 1, 58, 100
3, 36000, Note_on_c, 1, 58, 0
3, 36000, Note_on_c, 1, 57, 100
3, 36800, Note_on_c, 1, 57, 0
3, 36800, Note_on_c, 1, 54, 100
3, 36960, Note_on_c, 1, 54, 0
3, 36960, Note_on_c, 1, 55, 100
3, 37280, Note_on_c, 1, 55, 0
3, 37280, Note_on_c, 1, 57, 100
3, 37440, Note_on_c, 1, 57, 0
3, 37440, Note_on_c, 1, 58, 100
3, 37920, Note_on_c, 1, 58, 0
3, 37920, Note_on_c, 1, 57, 100
3, 38400, Note_on_c, 1, 57, 0
3, 38400, Note_on_c, 1, 56, 100
3, 38880, Note_on_c, 1, 56, 0
3, 41280, Note_on_c, 1, 59, 100
3, 42240, Note_on_c, 1, 59, 0
3, 42240, Note_on_c, 1, 57, 100
3, 42560, Note_on_c, 1, 57, 0
3, 42560, Note_on_c, 1, 64, 100
3, 42720, Note_on_c, 1, 64, 0
3, 42720, Note_on_c, 1, 65, 100
3, 43040, Note_on_c, 1, 65, 0
3, 43040, Note_on_c, 1, 67, 100
3, 43200, Note_on_c, 1, 67, 0
3, 43200, Note_on_c, 1, 69, 100
3, 44160, Note_on_c, 1, 69, 0
3, 44160, Note_on_c, 1, 65, 100
3, 45120, Note_on_c, 1, 65, 0
3, 45120, Note_on_c, 1, 62, 100
3, 46080, Note_on_c, 1, 62, 0
3, 46080, Note_on_c, 1, 61, 100
3, 47040, Note_on_c, 1, 61, 0
3, 47040, Note_on_c, 1, 62, 100
3, 47520, Note_on_c, 1, 62, 0
3, 47520, Note_on_c, 1, 64, 100
3, 48000, Note_on_c, 1, 64, 0
3, 48000, Note_on_c, 1, 65, 100
3, 49280, Note_on_c, 1, 65, 0
3, 49280, Note_on_c, 1, 69, 100
3, 49440, Note_on_c, 1, 69, 0
3, 49440, Note_on_c, 1, 68, 100
3, 49760, Note_on_c, 1, 68, 0
3, 49760, Note_on_c, 1, 66, 100
3, 49920, Note_on_c, 1, 66, 0
3, 49920, Note_on_c, 1, 64, 100
3, 51200, Note_on_c, 1, 64, 0
3, 51200, Note_on_c, 1, 57, 100
3, 51360, Note_on_c, 1, 57, 0
3, 51360, Note_on_c, 1, 62, 100
3, 51680, Note_on_c, 1, 62, 0
3, 51680, Note_on_c, 1, 60, 100
3, 51840, Note_on_c, 1, 60, 0
3, 51840, Note_on_c, 1, 59, 100
3, 52800, Note_on_c, 1, 59, 0
3, 53120, Note_on_c, 1, 64, 100
3, 53280, Note_on_c, 1, 64, 0
3, 53280, Note_on_c, 1, 66, 100
3, 53600, Note_on_c, 1, 66, 0
3, 53600, Note_on_c, 1, 68, 100
3, 53760, Note_on_c, 1, 68, 0
3, 53760, Note_on_c, 1, 69, 100
3, 55200, Note_on_c, 1, 69, 0
3, 55200, Note_on_c, 1, 68, 100
3, 55680, Note_on_c, 1, 68, 0
3, 55680, Note_on_c, 1, 69, 100
3, 56000, Note_on_c, 1, 69, 0
3, 56000, Note_on_c, 1, 67, 100
3, 56160, Note_on_c, 1, 67, 0
3, 56160, Note_on_c, 1, 65, 100
3, 56480, Note_on_c, 1, 65, 0
3, 56480, Note_on_c, 1, 64, 100
3, 56640, Note_on_c, 1, 64, 0
3, 56640, Note_on_c, 1, 62, 100
3, 57120, Note_on_c, 1, 62, 0
3, 57120, Note_on_c, 1, 67, 100
3, 57600, Note_on_c, 1, 67, 0
3, 57600, Note_on_c, 1, 65, 100
3, 58560, Note_on_c, 1, 65, 0
3, 58560, Note_on_c, 1, 64, 100
3, 59520, Note_on_c, 1, 64, 0
3, 59520, Note_on_c, 1, 62, 100
3, 60480, Note_on_c, 1, 62, 0
3, 61760, Note_on_c, 1, 70, 100
3, 61920, Note_on_c, 1, 70, 0
3, 61920, Note_on_c, 1, 69, 100
3, 62240, Note_on_c, 1, 69, 0
3, 62240, Note_on_c, 1, 67, 100
3, 62400, Note_on_c, 1, 67, 0
3, 62400, Note_on_c, 1, 65, 100
3, 62720, Note_on_c, 1, 65, 0
3, 62720, Note_on_c, 1, 64, 100
3, 62880, Note_on_c, 1, 64, 0
3, 62880, Note_on_c, 1, 62, 100
3, 63200, Note_on_c, 1, 62, 0
3, 63200, Note_on_c, 1, 61, 100
3, 63360, Note_on_c, 1, 61, 0
3, 63360, Note_on_c, 1, 62, 100
3, 63840, Note_on_c, 1, 62, 0
3, 63840, Note_on_c, 1, 74, 100
3, 64320, Note_on_c, 1, 74, 0
3, 64320, Note_on_c, 1, 71, 100
3, 64800, Note_on_c, 1, 71, 0
3, 64800, Note_on_c, 1, 73, 100
3, 65280, Note_on_c, 1, 73, 0
3, 65280, Note_on_c, 1, 74, 100
3, 65760, Note_on_c, 1, 74, 0
3, 66720, Note_on_c, 1, 72, 100
3, 67520, Note_on_c, 1, 72, 0
3, 67520, Note_on_c, 1, 70, 100
3, 67680, Note_on_c, 1, 70, 0
3, 67680, Note_on_c, 1, 69, 100
3, 68000, Note_on_c, 1, 69, 0
3, 68000, Note_on_c, 1, 67, 100
3, 68160, Note_on_c, 1, 67, 0
3, 68160, Note_on_c, 1, 69, 100
3, 69120, Note_on_c, 1, 69, 0
3, 69120, Note_on_c, 1, 68, 100
3, 69600, Note_on_c, 1, 68, 0
3, 69600, Note_on_c, 1, 72, 100
3, 70080, Note_on_c, 1, 72, 0
3, 70080, Note_on_c, 1, 66, 100
3, 70560, Note_on_c, 1, 66, 0
3, 70560, Note_on_c, 1, 68, 100
3, 71040, Note_on_c, 1, 68, 0
3, 71040, Note_on_c, 1, 69, 100
3, 71360, Note_on_c, 1, 69, 0
3, 71360, Note_on_c, 1, 70, 100
3, 71520, Note_on_c, 1, 70, 0
3, 71520, Note_on_c, 1, 69, 100
3, 71840, Note_on_c, 1, 69, 0
3, 71840, Note_on_c, 1, 67, 100
3, 72000, Note_on_c, 1, 67, 0
3, 72000, Note_on_c, 1, 65, 100
3, 72320, Note_on_c, 1, 65, 0
3, 72320, Note_on_c, 1, 69, 100
3, 72480, Note_on_c, 1, 69, 0
3, 72480, Note_on_c, 1, 67, 100
3, 72800, Note_on_c, 1, 67, 0
3, 72800, Note_on_c, 1, 65, 100
3, 73280, Note_on_c, 1, 65, 0
3, 73280, Note_on_c, 1, 64, 100
3, 73440, Note_on_c, 1, 64, 0
3, 73440, Note_on_c, 1, 66, 100
3, 73760, Note_on_c, 1, 66, 0
3, 73760, Note_on_c, 1, 68, 100
3, 73920, Note_on_c, 1, 68, 0
3, 73920, Note_on_c, 1, 69, 100
3, 74240, Note_on_c, 1, 69, 0
3, 74240, Note_on_c, 1, 71, 100
3, 74400, Note_on_c, 1, 71, 0
3, 74400, Note_on_c, 1, 72, 100
3, 74720, Note_on_c, 1, 72, 0
3, 74720, Note_on_c, 1, 69, 100
3, 74880, Note_on_c, 1, 69, 0
3, 74880, Note_on_c, 1, 71, 100
3, 76160, Note_on_c, 1, 71, 0
3, 76160, Note_on_c, 1, 69, 100
3, 76320, Note_on_c, 1, 69, 0
3, 76320, Note_on_c, 1, 68, 100
3, 76640, Note_on_c, 1, 68, 0
3, 76640, Note_on_c, 1, 69, 100
3, 76800, Note_on_c, 1, 69, 0
3, 76800, Note_on_c, 1, 63, 100
3, 77120, Note_on_c, 1, 63, 0
3, 77120, Note_on_c, 1, 57, 100
3, 77280, Note_on_c, 1, 57, 0
3, 77280, Note_on_c, 1, 69, 100
3, 78240, Note_on_c, 1, 69, 0
3, 78240, Note_on_c, 1, 64, 100
3, 79200, Note_on_c, 1, 64, 0
3, 79200, Note_on_c, 1, 65, 100
3, 79680, Note_on_c, 1, 65, 0
3, 79680, Note_on_c, 1, 62, 100
3, 80160, Note_on_c, 1, 62, 0
3, 80160, Note_on_c, 1, 67, 100
3, 80640, Note_on_c, 1, 67, 0
3, 80640, Note_on_c, 1, 60, 100
3, 80960, Note_on_c, 1, 60, 0
3, 80960, Note_on_c, 1, 65, 100
3, 81120, Note_on_c, 1, 65, 0
3, 81120, Note_on_c, 1, 64, 100
3, 81440, Note_on_c, 1, 64, 0
3, 81440, Note_on_c, 1, 62, 100
3, 81920, Note_on_c, 1, 62, 0
3, 81920, Note_on_c, 1, 64, 100
3, 82080, Note_on_c, 1, 64, 0
3, 82080, Note_on_c, 1, 62, 100
3, 82400, Note_on_c, 1, 62, 0
3, 82400, Note_on_c, 1, 61, 100
3, 82560, Note_on_c, 1, 61, 0
3, 82560, Note_on_c, 1, 62, 100
3, 84000, Note_on_c, 1, 62, 0
3, 84000, Note_on_c, 1, 67, 100
3, 84480, Note_on_c, 1, 67, 0
3, 84480, Note_on_c, 1, 60, 100
3, 85760, Note_on_c, 1, 60, 0
3, 85760, Note_on_c, 1, 58, 100
3, 85920, Note_on_c, 1, 58, 0
3, 85920, Note_on_c, 1, 57, 100
3, 86240, Note_on_c, 1, 57, 0
3, 86240, Note_on_c, 1, 55, 100
3, 86400, Note_on_c, 1, 55, 0
3, 86400, Note_on_c, 1, 53, 100
3, 86720, Note_on_c, 1, 53, 0
3, 86720, Note_on_c, 1, 65, 100
3, 86880, Note_on_c, 1, 65, 0
3, 86880, Note_on_c, 1, 67, 100
3, 87200, Note_on_c, 1, 67, 0
3, 87200, Note_on_c, 1, 69, 100
3, 87360, Note_on_c, 1, 69, 0
3, 87360, Note_on_c, 1, 70, 100
3, 87680, Note_on_c, 1, 70, 0
3, 87680, Note_on_c, 1, 72, 100
3, 87840, Note_on_c, 1, 72, 0
3, 87840, Note_on_c, 1, 74, 100
3, 88160, Note_on_c, 1, 74, 0
3, 88160, Note_on_c, 1, 70, 100
3, 88320, Note_on_c, 1, 70, 0
3, 88320, Note_on_c, 1, 72, 100
3, 88800, Note_on_c, 1, 72, 0
3, 88800, Note_on_c, 1, 67, 100
3, 89280, Note_on_c, 1, 67, 0
3, 89280, Note_on_c, 1, 72, 100
3, 91200, Note_on_c, 1, 72, 0
3, 91200, Note_on_c, 1, 74, 100
3, 91680, Note_on_c, 1, 74, 0
3, 91680, Note_on_c, 1, 72, 100
3, 92000, Note_on_c, 1, 72, 0
3, 92000, Note_on_c, 1, 70, 100
3, 92160, Note_on_c, 1, 70, 0
3, 92160, Note_on_c, 1, 69, 100
3, 93120, Note_on_c, 1, 69, 0
3, 93120, Note_on_c, 1, 74, 100
3, 94080, Note_on_c, 1, 74, 0
3, 94080, Note_on_c, 1, 70, 100
3, 95040, Note_on_c, 1, 70, 0
3, 95040, Note_on_c, 1, 67, 100
3, 96000, Note_on_c, 1, 67, 0
3, 96000, Note_on_c, 1, 66, 100
3, 96960, Note_on_c, 1, 66, 0
3, 96960, Note_on_c, 1, 67, 100
3, 97440, Note_on_c, 1, 67, 0
3, 97440, Note_on_c, 1, 69, 100
3, 97920, Note_on_c, 1, 69, 0
3, 97920, Note_on_c, 1, 70, 100
3, 99200, Note_on_c, 1, 70, 0
3, 99200, Note_on_c, 1, 72, 100
3, 99360, Note_on_c, 1, 72, 0
3, 99360, Note_on_c, 1, 70, 100
3, 99680, Note_on_c, 1, 70, 0
3, 99680, Note_on_c, 1, 69, 100
3, 99840, Note_on_c, 1, 69, 0
3, 99840, Note_on_c, 1, 67, 100
3, 100320, Note_on_c, 1, 67, 0
3, 100320, Note_on_c, 1, 70, 100
3, 100800, Note_on_c, 1, 70, 0
3, 100800, Note_on_c, 1, 69, 100
3, 101280, Note_on_c, 1, 69, 0
3, 101280, Note_on_c, 1, 72, 100
3, 102080, Note_on_c, 1, 72, 0
3, 102080, Note_on_c, 1, 65, 100
3, 102240, Note_on_c, 1, 65, 0
3, 102240, Note_on_c, 1, 67, 100
3, 102560, Note_on_c, 1, 67, 0
3, 102560, Note_on_c, 1, 69, 100
3, 102720, Note_on_c, 1, 69, 0
3, 102720, Note_on_c, 1, 70, 100
3, 103040, Note_on_c, 1, 70, 0
3, 103040, Note_on_c, 1, 72, 100
3, 103200, Note_on_c, 1, 72, 0
3, 103200, Note_on_c, 1, 74, 100
3, 103520, Note_on_c, 1, 74, 0
3, 103520, Note_on_c, 1, 70, 100
3, 103680, Note_on_c, 1, 70, 0
3, 103680, Note_on_c, 1, 72, 100
3, 104640, Note_on_c, 1, 72, 0
3, 104640, Note_on_c, 1, 65, 100
3, 105920, Note_on_c, 1, 65, 0
3, 105920, Note_on_c, 1, 68, 100
3, 106080, Note_on_c, 1, 68, 0
3, 106080, Note_on_c, 1, 67, 100
3, 106400, Note_on_c, 1, 67, 0
3, 106400, Note_on_c, 1, 65, 100
3, 106560, Note_on_c, 1, 65, 0
3, 106560, Note_on_c, 1, 67, 100
3, 107040, Note_on_c, 1, 67, 0
3, 107040, Note_on_c, 1, 69, 100
3, 107520, Note_on_c, 1, 69, 0
3, 107520, Note_on_c, 1, 70, 100
3, 108480, Note_on_c, 1, 70, 0
3, 109760, Note_on_c, 1, 67, 100
3, 109920, Note_on_c, 1, 67, 0
3, 109920, Note_on_c, 1, 66, 100
3, 110240, Note_on_c, 1, 66, 0
3, 110240, Note_on_c, 1, 67, 100
3, 110400, Note_on_c, 1, 67, 0
3, 110400, Note_on_c, 1, 64, 100
3, 110880, Note_on_c, 1, 64, 0
3, 110880, Note_on_c, 1, 65, 100
3, 111680, Note_on_c, 1, 65, 0
3, 111680, Note_on_c, 1, 62, 100
3, 111840, Note_on_c, 1, 62, 0
3, 111840, Note_on_c, 1, 61, 100
3, 112160, Note_on_c, 1, 61, 0
3, 112160, Note_on_c, 1, 62, 100
3, 112320, Note_on_c, 1, 62, 0
3, 112320, Note_on_c, 1, 67, 100
3, 113760, Note_on_c, 1, 67, 0
3, 113760, Note_on_c, 1, 65, 100
3, 114240, Note_on_c, 1, 65, 0
3, 114240, Note_on_c, 1, 64, 100
3, 114720, Note_on_c, 1, 64, 0
3, 114720, Note_on_c, 1, 69, 100
3, 115680, Note_on_c, 1, 69, 0
3, 117440, Note_on_c, 1, 70, 100
3, 117600, Note_on_c, 1, 70, 0
3, 117600, Note_on_c, 1, 69, 100
3, 117920, Note_on_c, 1, 69, 0
3, 117920, Note_on_c, 1, 67, 100
3, 118400, Note_on_c, 1, 67, 0
3, 118400, Note_on_c, 1, 69, 100
3, 118560, Note_on_c, 1, 69, 0
3, 118560, Note_on_c, 1, 67, 100
3, 118880, Note_on_c, 1, 67, 0
3, 118880, Note_on_c, 1, 65, 100
3, 119040, Note_on_c, 1, 65, 0
3, 119040, Note_on_c, 1, 64, 100
3, 119520, Note_on_c, 1, 64, 0
3, 119520, Note_on_c, 1, 57, 100
3, 120000, Note_on_c, 1, 57, 0
3, 120000, Note_on_c, 1, 58, 100
3, 120960, Note_on_c, 1, 58, 0
3, 120960, Note_on_c, 1, 57, 100
3, 121440, Note_on_c, 1, 57, 0
3, 121440, Note_on_c, 1, 69, 100
3, 121920, Note_on_c, 1, 69, 0
3, 121920, Note_on_c, 1, 71, 100
3, 122400, Note_on_c, 1, 71, 0
3, 122400, Note_on_c, 1, 73, 100
3, 122880, Note_on_c, 1, 73, 0
3, 122880, Note_on_c, 1, 74, 100
3, 123360, Note_on_c, 1, 74, 0
3, 125120, Note_on_c, 1, 67, 100
3, 125280, Note_on_c, 1, 67, 0
3, 125280, Note_on_c, 1, 69, 100
3, 125600, Note_on_c, 1, 69, 0
3, 125600, Note_on_c, 1, 70, 100
3, 125760, Note_on_c, 1, 70, 0
3, 125760, Note_on_c, 1, 72, 100
3, 127200, Note_on_c, 1, 72, 0
3, 127200, Note_on_c, 1, 70, 100
3, 127520, Note_on_c, 1, 70, 0
3, 127520, Note_on_c, 1, 69, 100
3, 127680, Note_on_c, 1, 69, 0
3, 127680, Note_on_c, 1, 70, 100
3, 128160, Note_on_c, 1, 70, 0
3, 128160, Note_on_c, 1, 69, 100
3, 128640, Note_on_c, 1, 69, 0
3, 128640, Note_on_c, 1, 67, 100
3, 129600, Note_on_c, 1, 67, 0
3, 129600, Note_on_c, 1, 65, 100
3, 130560, Note_on_c, 1, 65, 0
3, 130560, Note_on_c, 1, 64, 100
3, 131520, Note_on_c, 1, 64, 0
3, 131520, Note_on_c, 1, 62, 100
3, 132000, Note_on_c, 1, 62, 0
3, 132000, Note_on_c, 1, 65, 100
3, 132800, Note_on_c, 1, 65, 0
3, 132800, Note_on_c, 1, 65, 100
3, 132960, Note_on_c, 1, 65, 0
3, 132960, Note_on_c, 1, 64, 100
3, 133760, Note_on_c, 1, 64, 0
3, 133760, Note_on_c, 1, 64, 100
3, 133920, Note_on_c, 1, 64, 0
3, 133920, Note_on_c, 1, 62, 100
3, 134400, Note_on_c, 1, 62, 0
3, 135200, Note_on_c, 1, 74, 100
3, 135360, Note_on_c, 1, 74, 0
3, 135360, Note_on_c, 1, 72, 100
3, 135680, Note_on_c, 1, 72, 0
3, 135680, Note_on_c, 1, 71, 100
3, 135840, Note_on_c, 1, 71, 0
3, 135840, Note_on_c, 1, 69, 100
3, 136160, Note_on_c, 1, 69, 0
3, 136160, Note_on_c, 1, 68, 100
3, 136320, Note_on_c, 1, 68, 0
3, 136320, Note_on_c, 1, 69, 100
3, 137280, Note_on_c, 1, 69, 0
3, 137760, Note_on_c, 1, 76, 100
3, 138560, Note_on_c, 1, 76, 0
3, 138560, Note_on_c, 1, 69, 100
3, 138720, Note_on_c, 1, 69, 0
3, 138720, Note_on_c, 1, 74, 100
3, 139040, Note_on_c, 1, 74, 0
3, 139040, Note_on_c, 1, 72, 100
3, 139200, Note_on_c, 1, 72, 0
3, 139200, Note_on_c, 1, 70, 100
3, 139520, Note_on_c, 1, 70, 0
3, 139520, Note_on_c, 1, 69, 100
3, 139680, Note_on_c, 1, 69, 0
3, 139680, Note_on_c, 1, 67, 100
3, 140000, Note_on_c, 1, 67, 0
3, 140000, Note_on_c, 1, 65, 100
3, 140160, Note_on_c, 1, 65, 0
3, 140160, Note_on_c, 1, 64, 100
3, 141440, Note_on_c, 1, 64, 0
3, 141440, Note_on_c, 1, 67, 100
3, 141600, Note_on_c, 1, 67, 0
3, 141600, Note_on_c, 1, 65, 100
3, 141920, Note_on_c, 1, 65, 0
3, 141920, Note_on_c, 1, 64, 100
3, 142080, Note_on_c, 1, 64, 0
3, 142080, Note_on_c, 1, 62, 100
3, 142400, Note_on_c, 1, 62, 0
3, 142400, Note_on_c, 1, 60, 100
3, 142560, Note_on_c, 1, 60, 0
3, 142560, Note_on_c, 1, 58, 100
3, 142880, Note_on_c, 1, 58, 0
3, 142880, Note_on_c, 1, 57, 100
3, 143040, Note_on_c, 1, 57, 0
3, 143040, Note_on_c, 1, 58, 100
3, 144000, Note_on_c, 1, 58, 0
3, 144000, Note_on_c, 1, 57, 100
3, 145440, Note_on_c, 1, 57, 0
3, 145440, Note_on_c, 1, 59, 100
3, 145920, Note_on_c, 1, 59, 0
3, 145920, Note_on_c, 1, 61, 100
3, 146880, Note_on_c, 1, 61, 0
3, 146880, Note_on_c, 1, 56, 100
3, 147840, Note_on_c, 1, 56, 0
3, 147840, Note_on_c, 1, 57, 100
3, 148800, Note_on_c, 1, 57, 0
3, 149280, Note_on_c, 1, 61, 100
3, 149760, Note_on_c, 1, 61, 0
3, 149760, Note_on_c, 1, 62, 100
3, 150080, Note_on_c, 1, 62, 0
3, 150080, Note_on_c, 1, 65, 100
3, 150240, Note_on_c, 1, 65, 0
3, 150240, Note_on_c, 1, 64, 100
3, 150560, Note_on_c, 1, 64, 0
3, 150560, Note_on_c, 1, 62, 100
3, 150720, Note_on_c, 1, 62, 0
3, 150720, Note_on_c, 1, 61, 100
3, 151040, Note_on_c, 1, 61, 0
3, 151040, Note_on_c, 1, 57, 100
3, 151200, Note_on_c, 1, 57, 0
3, 151200, Note_on_c, 1, 59, 100
3, 151520, Note_on_c, 1, 59, 0
3, 151520, Note_on_c, 1, 61, 100
3, 151680, Note_on_c, 1, 61, 0
3, 151680, Note_on_c, 1, 62, 100
3, 152160, Note_on_c, 1, 62, 0
3, 152160, Note_on_c, 1, 60, 100
3, 153120, Note_on_c, 1, 60, 0
3, 153120, Note_on_c, 1, 58, 100
3, 153920, Note_on_c, 1, 58, 0
3, 153920, Note_on_c, 1, 58, 100
3, 154080, Note_on_c, 1, 58, 0
3, 154080, Note_on_c, 1, 57, 100
3, 154400, Note_on_c, 1, 57, 0
3, 154400, Note_on_c, 1, 55, 100
3, 154560, Note_on_c, 1, 55, 0
3, 154560, Note_on_c, 1, 53, 100
3, 155040, Note_on_c, 1, 53, 0
3, 155040, Note_on_c, 1, 58, 100
3, 155520, Note_on_c, 1, 58, 0
3, 155520, Note_on_c, 1, 57, 100
3, 156480, Note_on_c, 1, 57, 0
3, 156480, Note_on_c, 1, 58, 100
3, 156960, Note_on_c, 1, 58, 0
3, 156960, Note_on_c, 1, 57, 100
3, 157760, Note_on_c, 1, 57, 0
3, 157760, Note_on_c, 1, 54, 100
3, 157920, Note_on_c, 1, 54, 0
3, 157920, Note_on_c, 1, 55, 100
3, 158240, Note_on_c, 1, 55, 0
3, 158240, Note_on_c, 1, 57, 100
3, 158400, Note_on_c, 1, 57, 0
3, 158400, Note_on_c, 1, 58, 100
3, 159680, Note_on_c, 1, 58, 0
3, 159680, Note_on_c, 1, 57, 100
3, 159840, Note_on_c, 1, 57, 0
3, 159840, Note_on_c, 1, 58, 100
3, 160160, Note_on_c, 1, 58, 0
3, 160160, Note_on_c, 1, 55, 100
3, 160320, Note_on_c, 1, 55, 0
3, 160320, Note_on_c, 1, 57, 100
3, 161280, Note_on_c, 1, 57, 0
3, 161280, End_track
4, 0, Start_track
4, 0, MIDI_port, 0
4, 0, Title_t, "Johann Sebastian Bach  (1685-1750)"
4, 0, Program_c, 2, 41
4, 0, Control_c, 2, 7, 100
4, 0, Control_c, 2, 10, 54
4, 7680, Note_on_c, 2, 57, 100
4, 8640, Note_on_c, 2, 57, 0
4, 8640, Note_on_c, 2, 62, 100
4, 9600, Note_on_c, 2, 62, 0
4, 9600, Note_on_c, 2, 60, 100
4, 10560, Note_on_c, 2, 60, 0
4, 10560, Note_on_c, 2, 57, 100
4, 11520, Note_on_c, 2, 57, 0
4, 11520, Note_on_c, 2, 56, 100
4, 12480, Note_on_c, 2, 56, 0
4, 12480, Note_on_c, 2, 57, 100
4, 12960, Note_on_c, 2, 57, 0
4, 12960, Note_on_c, 2, 59, 100
4, 13440, Note_on_c, 2, 59, 0
4, 13440, Note_on_c, 2, 60, 100
4, 14720, Note_on_c, 2, 60, 0
4, 14720, Note_on_c, 2, 62, 100
4, 14880, Note_on_c, 2, 62, 0
4, 14880, Note_on_c, 2, 60, 100
4, 15200, Note_on_c, 2, 60, 0
4, 15200, Note_on_c, 2, 58, 100
4, 15360, Note_on_c, 2, 58, 0
4, 15360, Note_on_c, 2, 57, 100
4, 16640, Note_on_c, 2, 57, 0
4, 16640, Note_on_c, 2, 67, 100
4, 16800, Note_on_c, 2, 67, 0
4, 16800, Note_on_c, 2, 65, 100
4, 17120, Note_on_c, 2, 65, 0
4, 17120, Note_on_c, 2, 64, 100
4, 17280, Note_on_c, 2, 64, 0
4, 17280, Note_on_c, 2, 62, 100
4, 17600, Note_on_c, 2, 62, 0
4, 17600, Note_on_c, 2, 60, 100
4, 17760, Note_on_c, 2, 60, 0
4, 17760, Note_on_c, 2, 58, 100
4, 18080, Note_on_c, 2, 58, 0
4, 18080, Note_on_c, 2, 57, 100
4, 18240, Note_on_c, 2, 57, 0
4, 18240, Note_on_c, 2, 58, 100
4, 18560, Note_on_c, 2, 58, 0
4, 18560, Note_on_c, 2, 57, 100
4, 18720, Note_on_c, 2, 57, 0
4, 18720, Note_on_c, 2, 55, 100
4, 19040, Note_on_c, 2, 55, 0
4, 19040, Note_on_c, 2, 53, 100
4, 19200, Note_on_c, 2, 53, 0
4, 19200, Note_on_c, 2, 52, 100
4, 20160, Note_on_c, 2, 52, 0
4, 20480, Note_on_c, 2, 57, 100
4, 20640, Note_on_c, 2, 57, 0
4, 20640, Note_on_c, 2, 59, 100
4, 20960, Note_on_c, 2, 59, 0
4, 20960, Note_on_c, 2, 61, 100
4, 21120, Note_on_c, 2, 61, 0
4, 21120, Note_on_c, 2, 62, 100
4, 22560, Note_on_c, 2, 62, 0
4, 22560, Note_on_c, 2, 61, 100
4, 23040, Note_on_c, 2, 61, 0
4, 23040, Note_on_c, 2, 62, 100
4, 23840, Note_on_c, 2, 62, 0
4, 23840, Note_on_c, 2, 64, 100
4, 24000, Note_on_c, 2, 64, 0
4, 24000, Note_on_c, 2, 65, 100
4, 24960, Note_on_c, 2, 65, 0
4, 24960, Note_on_c, 2, 64, 100
4, 25440, Note_on_c, 2, 64, 0
4, 25440, Note_on_c, 2, 60, 100
4, 26400, Note_on_c, 2, 60, 0
4, 26400, Note_on_c, 2, 57, 100
4, 26880, Note_on_c, 2, 57, 0
4, 26880, Note_on_c, 2, 59, 100
4, 27840, Note_on_c, 2, 59, 0
4, 28160, Note_on_c, 2, 52, 100
4, 28320, Note_on_c, 2, 52, 0
4, 28320, Note_on_c, 2, 54, 100
4, 28640, Note_on_c, 2, 54, 0
4, 28640, Note_on_c, 2, 56, 100
4, 28800, Note_on_c, 2, 56, 0
4, 28800, Note_on_c, 2, 57, 100
4, 30240, Note_on_c, 2, 57, 0
4, 30240, Note_on_c, 2, 56, 100
4, 30720, Note_on_c, 2, 56, 0
4, 30720, Note_on_c, 2, 57, 100
4, 31200, Note_on_c, 2, 57, 0
4, 31200, Note_on_c, 2, 59, 100
4, 31520, Note_on_c, 2, 59, 0
4, 31520, Note_on_c, 2, 61, 100
4, 31680, Note_on_c, 2, 61, 0
4, 31680, Note_on_c, 2, 62, 100
4, 32160, Note_on_c, 2, 62, 0
4, 32160, Note_on_c, 2, 55, 100
4, 32960, Note_on_c, 2, 55, 0
4, 32960, Note_on_c, 2, 55, 100
4, 33120, Note_on_c, 2, 55, 0
4, 33120, Note_on_c, 2, 53, 100
4, 33440, Note_on_c, 2, 53, 0
4, 33440, Note_on_c, 2, 52, 100
4, 33600, Note_on_c, 2, 52, 0
4, 33600, Note_on_c, 2, 53, 100
4, 34080, Note_on_c, 2, 53, 0
4, 34080, Note_on_c, 2, 54, 100
4, 34880, Note_on_c, 2, 54, 0
4, 34880, Note_on_c, 2, 50, 100
4, 35040, Note_on_c, 2, 50, 0
4, 35040, Note_on_c, 2, 52, 100
4, 35360, Note_on_c, 2, 52, 0
4, 35360, Note_on_c, 2, 54, 100
4, 35520, Note_on_c, 2, 54, 0
4, 35520, Note_on_c, 2, 55, 100
4, 36000, Note_on_c, 2, 55, 0
4, 36000, Note_on_c, 2, 48, 100
4, 36800, Note_on_c, 2, 48, 0
4, 36800, Note_on_c, 2, 45, 100
4, 36960, Note_on_c, 2, 45, 0
4, 36960, Note_on_c, 2, 46, 100
4, 37280, Note_on_c, 2, 46, 0
4, 37280, Note_on_c, 2, 48, 100
4, 37440, Note_on_c, 2, 48, 0
4, 37440, Note_on_c, 2, 50, 100
4, 37760, Note_on_c, 2, 50, 0
4, 37760, Note_on_c, 2, 49, 100
4, 37920, Note_on_c, 2, 49, 0
4, 37920, Note_on_c, 2, 50, 100
4, 38400, Note_on_c, 2, 50, 0
4, 38400, Note_on_c, 2, 52, 100
4, 38880, Note_on_c, 2, 52, 0
4, 41280, Note_on_c, 2, 56, 100
4, 42240, Note_on_c, 2, 56, 0
4, 42240, Note_on_c, 2, 52, 100
4, 42720, Note_on_c, 2, 52, 0
4, 43520, Note_on_c, 2, 57, 100
4, 43680, Note_on_c, 2, 57, 0
4, 43680, Note_on_c, 2, 59, 100
4, 44000, Note_on_c, 2, 59, 0
4, 44000, Note_on_c, 2, 61, 100
4, 44160, Note_on_c, 2, 61, 0
4, 44160, Note_on_c, 2, 62, 100
4, 44640, Note_on_c, 2, 62, 0
4, 44640, Note_on_c, 2, 60, 100
4, 45600, Note_on_c, 2, 60, 0
4, 45600, Note_on_c, 2, 58, 100
4, 46400, Note_on_c, 2, 58, 0
4, 46400, Note_on_c, 2, 55, 100
4, 46560, Note_on_c, 2, 55, 0
4, 46560, Note_on_c, 2, 53, 100
4, 46880, Note_on_c, 2, 53, 0
4, 46880, Note_on_c, 2, 52, 100
4, 47040, Note_on_c, 2, 52, 0
4, 47040, Note_on_c, 2, 57, 100
4, 48320, Note_on_c, 2, 57, 0
4, 48320, Note_on_c, 2, 62, 100
4, 48480, Note_on_c, 2, 62, 0
4, 48480, Note_on_c, 2, 61, 100
4, 48800, Note_on_c, 2, 61, 0
4, 48800, Note_on_c, 2, 62, 100
4, 48960, Note_on_c, 2, 62, 0
4, 48960, Note_on_c, 2, 56, 100
4, 49440, Note_on_c, 2, 56, 0
4, 49440, Note_on_c, 2, 59, 100
4, 50240, Note_on_c, 2, 59, 0
4, 50240, Note_on_c, 2, 52, 100
4, 50400, Note_on_c, 2, 52, 0
4, 50400, Note_on_c, 2, 57, 100
4, 50720, Note_on_c, 2, 57, 0
4, 50720, Note_on_c, 2, 55, 100
4, 50880, Note_on_c, 2, 55, 0
4, 50880, Note_on_c, 2, 53, 100
4, 52320, Note_on_c, 2, 53, 0
4, 52320, Note_on_c, 2, 52, 100
4, 52800, Note_on_c, 2, 52, 0
4, 54080, Note_on_c, 2, 67, 100
4, 54240, Note_on_c, 2, 67, 0
4, 54240, Note_on_c, 2, 65, 100
4, 54560, Note_on_c, 2, 65, 0
4, 54560, Note_on_c, 2, 64, 100
4, 54720, Note_on_c, 2, 64, 0
4, 54720, Note_on_c, 2, 63, 100
4, 55200, Note_on_c, 2, 63, 0
4, 55200, Note_on_c, 2, 64, 100
4, 55680, Note_on_c, 2, 64, 0
4, 55680, Note_on_c, 2, 57, 100
4, 56640, Note_on_c, 2, 57, 0
4, 56640, Note_on_c, 2, 59, 100
4, 57120, Note_on_c, 2, 59, 0
4, 57120, Note_on_c, 2, 61, 100
4, 57600, Note_on_c, 2, 61, 0
4, 57600, Note_on_c, 2, 62, 100
4, 58560, Note_on_c, 2, 62, 0
4, 59840, Note_on_c, 2, 57, 100
4, 60000, Note_on_c, 2, 57, 0
4, 60000, Note_on_c, 2, 59, 100
4, 60320, Note_on_c, 2, 59, 0
4, 60320, Note_on_c, 2, 61, 100
4, 60480, Note_on_c, 2, 61, 0
4, 60480, Note_on_c, 2, 62, 100
4, 60800, Note_on_c, 2, 62, 0
4, 60800, Note_on_c, 2, 64, 100
4, 60960, Note_on_c, 2, 64, 0
4, 60960, Note_on_c, 2, 65, 100
4, 61280, Note_on_c, 2, 65, 0
4, 61280, Note_on_c, 2, 62, 100
4, 61440, Note_on_c, 2, 62, 0
4, 61440, Note_on_c, 2, 64, 100
4, 61920, Note_on_c, 2, 64, 0
4, 61920, Note_on_c, 2, 52, 100
4, 62400, Note_on_c, 2, 52, 0
4, 62400, Note_on_c, 2, 53, 100
4, 62880, Note_on_c, 2, 53, 0
4, 62880, Note_on_c, 2, 55, 100
4, 63360, Note_on_c, 2, 55, 0
4, 63360, Note_on_c, 2, 57, 100
4, 63840, Note_on_c, 2, 57, 0
4, 65760, Note_on_c, 2, 62, 100
4, 66560, Note_on_c, 2, 62, 0
4, 66560, Note_on_c, 2, 60, 100
4, 66720, Note_on_c, 2, 60, 0
4, 66720, Note_on_c, 2, 58, 100
4, 67040, Note_on_c, 2, 58, 0
4, 67040, Note_on_c, 2, 57, 100
4, 67200, Note_on_c, 2, 57, 0
4, 67200, Note_on_c, 2, 58, 100
4, 67680, Note_on_c, 2, 58, 0
4, 67680, Note_on_c, 2, 59, 100
4, 68160, Note_on_c, 2, 59, 0
4, 68160, Note_on_c, 2, 61, 100
4, 68640, Note_on_c, 2, 61, 0
4, 68640, Note_on_c, 2, 62, 100
4, 69440, Note_on_c, 2, 62, 0
4, 69440, Note_on_c, 2, 60, 100
4, 69600, Note_on_c, 2, 60, 0
4, 69600, Note_on_c, 2, 59, 100
4, 69920, Note_on_c, 2, 59, 0
4, 69920, Note_on_c, 2, 57, 100
4, 70080, Note_on_c, 2, 57, 0
4, 70080, Note_on_c, 2, 59, 100
4, 70560, Note_on_c, 2, 59, 0
4, 70560, Note_on_c, 2, 64, 100
4, 71040, Note_on_c, 2, 64, 0
4, 71040, Note_on_c, 2, 57, 100
4, 72000, Note_on_c, 2, 57, 0
4, 72000, Note_on_c, 2, 62, 100
4, 72960, Note_on_c, 2, 62, 0
4, 72960, Note_on_c, 2, 60, 100
4, 73920, Note_on_c, 2, 60, 0
4, 73920, Note_on_c, 2, 57, 100
4, 74880, Note_on_c, 2, 57, 0
4, 74880, Note_on_c, 2, 56, 100
4, 75840, Note_on_c, 2, 56, 0
4, 75840, Note_on_c, 2, 57, 100
4, 76320, Note_on_c, 2, 57, 0
4, 76320, Note_on_c, 2, 59, 100
4, 76800, Note_on_c, 2, 59, 0
4, 76800, Note_on_c, 2, 60, 100
4, 78080, Note_on_c, 2, 60, 0
4, 78080, Note_on_c, 2, 62, 100
4, 78240, Note_on_c, 2, 62, 0
4, 78240, Note_on_c, 2, 60, 100
4, 78560, Note_on_c, 2, 60, 0
4, 78560, Note_on_c, 2, 59, 100
4, 78720, Note_on_c, 2, 59, 0
4, 78720, Note_on_c, 2, 57, 100
4, 80000, Note_on_c, 2, 57, 0
4, 80000, Note_on_c, 2, 55, 100
4, 80160, Note_on_c, 2, 55, 0
4, 80160, Note_on_c, 2, 53, 100
4, 80480, Note_on_c, 2, 53, 0
4, 80480, Note_on_c, 2, 52, 100
4, 80640, Note_on_c, 2, 52, 0
4, 80640, Note_on_c, 2, 53, 100
4, 81120, Note_on_c, 2, 53, 0
4, 81120, Note_on_c, 2, 58, 100
4, 81600, Note_on_c, 2, 58, 0
4, 81600, Note_on_c, 2, 52, 100
4, 82080, Note_on_c, 2, 52, 0
4, 82080, Note_on_c, 2, 57, 100
4, 82560, Note_on_c, 2, 57, 0
4, 82560, Note_on_c, 2, 50, 100
4, 83040, Note_on_c, 2, 50, 0
4, 83040, Note_on_c, 2, 52, 100
4, 83360, Note_on_c, 2, 52, 0
4, 83360, Note_on_c, 2, 53, 100
4, 83520, Note_on_c, 2, 53, 0
4, 83520, Note_on_c, 2, 55, 100
4, 83840, Note_on_c, 2, 55, 0
4, 83840, Note_on_c, 2, 57, 100
4, 84000, Note_on_c, 2, 57, 0
4, 84000, Note_on_c, 2, 58, 100
4, 84800, Note_on_c, 2, 58, 0
4, 84800, Note_on_c, 2, 57, 100
4, 84960, Note_on_c, 2, 57, 0
4, 84960, Note_on_c, 2, 55, 100
4, 85280, Note_on_c, 2, 55, 0
4, 85280, Note_on_c, 2, 53, 100
4, 85440, Note_on_c, 2, 53, 0
4, 85440, Note_on_c, 2, 52, 100
4, 86400, Note_on_c, 2, 52, 0
4, 86400, Note_on_c, 2, 53, 100
4, 86880, Note_on_c, 2, 53, 0
4, 87840, Note_on_c, 2, 58, 100
4, 88640, Note_on_c, 2, 58, 0
4, 88640, Note_on_c, 2, 62, 100
4, 88800, Note_on_c, 2, 62, 0
4, 88800, Note_on_c, 2, 60, 100
4, 89120, Note_on_c, 2, 60, 0
4, 89120, Note_on_c, 2, 58, 100
4, 89280, Note_on_c, 2, 58, 0
4, 89280, Note_on_c, 2, 57, 100
4, 89600, Note_on_c, 2, 57, 0
4, 89600, Note_on_c, 2, 55, 100
4, 89760, Note_on_c, 2, 55, 0
4, 89760, Note_on_c, 2, 53, 100
4, 90080, Note_on_c, 2, 53, 0
4, 90080, Note_on_c, 2, 52, 100
4, 90240, Note_on_c, 2, 52, 0
4, 90240, Note_on_c, 2, 53, 100
4, 90560, Note_on_c, 2, 53, 0
4, 90560, Note_on_c, 2, 65, 100
4, 90720, Note_on_c, 2, 65, 0
4, 90720, Note_on_c, 2, 64, 100
4, 91040, Note_on_c, 2, 64, 0
4, 91040, Note_on_c, 2, 65, 100
4, 91200, Note_on_c, 2, 65, 0
4, 91200, Note_on_c, 2, 58, 100
4, 91680, Note_on_c, 2, 58, 0
4, 91680, Note_on_c, 2, 63, 100
4, 92480, Note_on_c, 2, 63, 0
4, 92480, Note_on_c, 2, 63, 100
4, 92640, Note_on_c, 2, 63, 0
4, 92640, Note_on_c, 2, 62, 100
4, 92960, Note_on_c, 2, 62, 0
4, 92960, Note_on_c, 2, 60, 100
4, 93120, Note_on_c, 2, 60, 0
4, 93120, Note_on_c, 2, 58, 100
4, 93440, Note_on_c, 2, 58, 0
4, 93440, Note_on_c, 2, 57, 100
4, 93600, Note_on_c, 2, 57, 0
4, 93600, Note_on_c, 2, 55, 100
4, 93920, Note_on_c, 2, 55, 0
4, 93920, Note_on_c, 2, 54, 100
4, 94080, Note_on_c, 2, 54, 0
4, 94080, Note_on_c, 2, 55, 100
4, 94400, Note_on_c, 2, 55, 0
4, 94400, Note_on_c, 2, 57, 100
4, 94560, Note_on_c, 2, 57, 0
4, 94560, Note_on_c, 2, 58, 100
4, 95520, Note_on_c, 2, 58, 0
4, 95520, Note_on_c, 2, 57, 100
4, 95840, Note_on_c, 2, 57, 0
4, 95840, Note_on_c, 2, 58, 100
4, 96000, Note_on_c, 2, 58, 0
4, 96000, Note_on_c, 2, 60, 100
4, 96480, Note_on_c, 2, 60, 0
4, 96480, Note_on_c, 2, 63, 100
4, 96960, Note_on_c, 2, 63, 0
4, 96960, Note_on_c, 2, 62, 100
4, 98400, Note_on_c, 2, 62, 0
4, 98400, Note_on_c, 2, 62, 100
4, 98880, Note_on_c, 2, 62, 0
4, 98880, Note_on_c, 2, 64, 100
4, 99360, Note_on_c, 2, 64, 0
4, 99360, Note_on_c, 2, 65, 100
4, 100160, Note_on_c, 2, 65, 0
4, 100160, Note_on_c, 2, 65, 100
4, 100320, Note_on_c, 2, 65, 0
4, 100320, Note_on_c, 2, 63, 100
4, 100640, Note_on_c, 2, 63, 0
4, 100640, Note_on_c, 2, 62, 100
4, 100800, Note_on_c, 2, 62, 0
4, 100800, Note_on_c, 2, 60, 100
4, 101120, Note_on_c, 2, 60, 0
4, 101120, Note_on_c, 2, 58, 100
4, 101280, Note_on_c, 2, 58, 0
4, 101280, Note_on_c, 2, 57, 100
4, 101600, Note_on_c, 2, 57, 0
4, 101600, Note_on_c, 2, 55, 100
4, 101760, Note_on_c, 2, 55, 0
4, 101760, Note_on_c, 2, 53, 100
4, 102240, Note_on_c, 2, 53, 0
4, 104160, Note_on_c, 2, 48, 100
4, 104640, Note_on_c, 2, 48, 0
4, 104640, Note_on_c, 2, 50, 100
4, 105120, Note_on_c, 2, 50, 0
4, 105120, Note_on_c, 2, 51, 100
4, 105600, Note_on_c, 2, 51, 0
4, 105600, Note_on_c, 2, 53, 100
4, 106080, Note_on_c, 2, 53, 0
4, 106080, Note_on_c, 2, 58, 100
4, 107040, Note_on_c, 2, 58, 0
4, 107040, Note_on_c, 2, 63, 100
4, 107520, Note_on_c, 2, 63, 0
4, 107520, Note_on_c, 2, 65, 100
4, 108480, Note_on_c, 2, 65, 0
4, 108800, Note_on_c, 2, 60, 100
4, 108960, Note_on_c, 2, 60, 0
4, 108960, Note_on_c, 2, 58, 100
4, 109280, Note_on_c, 2, 58, 0
4, 109280, Note_on_c, 2, 57, 100
4, 109440, Note_on_c, 2, 57, 0
4, 109440, Note_on_c, 2, 55, 100
4, 109920, Note_on_c, 2, 55, 0
4, 109920, Note_on_c, 2, 63, 100
4, 110400, Note_on_c, 2, 63, 0
4, 110400, Note_on_c, 2, 61, 100
4, 110880, Note_on_c, 2, 61, 0
4, 110880, Note_on_c, 2, 62, 100
4, 111680, Note_on_c, 2, 62, 0
4, 113760, Note_on_c, 2, 62, 100
4, 114720, Note_on_c, 2, 62, 0
4, 114720, Note_on_c, 2, 61, 100
4, 115200, Note_on_c, 2, 61, 0
4, 115200, Note_on_c, 2, 62, 100
4, 116160, Note_on_c, 2, 62, 0
4, 116160, Note_on_c, 2, 64, 100
4, 117120, Note_on_c, 2, 64, 0
4, 117120, Note_on_c, 2, 57, 100
4, 117600, Note_on_c, 2, 57, 0
4, 117600, Note_on_c, 2, 59, 100
4, 117920, Note_on_c, 2, 59, 0
4, 117920, Note_on_c, 2, 61, 100
4, 118080, Note_on_c, 2, 61, 0
4, 118080, Note_on_c, 2, 62, 100
4, 118560, Note_on_c, 2, 62, 0
4, 119520, Note_on_c, 2, 52, 100
4, 120000, Note_on_c, 2, 52, 0
4, 120000, Note_on_c, 2, 53, 100
4, 120480, Note_on_c, 2, 53, 0
4, 120480, Note_on_c, 2, 55, 100
4, 120960, Note_on_c, 2, 55, 0
4, 120960, Note_on_c, 2, 57, 100
4, 121920, Note_on_c, 2, 57, 0
4, 123200, Note_on_c, 2, 57, 100
4, 123360, Note_on_c, 2, 57, 0
4, 123360, Note_on_c, 2, 59, 100
4, 123680, Note_on_c, 2, 59, 0
4, 123680, Note_on_c, 2, 61, 100
4, 123840, Note_on_c, 2, 61, 0
4, 123840, Note_on_c, 2, 62, 100
4, 124320, Note_on_c, 2, 62, 0
4, 124320, Note_on_c, 2, 54, 100
4, 124800, Note_on_c, 2, 54, 0
4, 124800, Note_on_c, 2, 55, 100
4, 125280, Note_on_c, 2, 55, 0
4, 131040, Note_on_c, 2, 57, 100
4, 132000, Note_on_c, 2, 57, 0
4, 132000, Note_on_c, 2, 62, 100
4, 132960, Note_on_c, 2, 62, 0
4, 132960, Note_on_c, 2, 60, 100
4, 133920, Note_on_c, 2, 60, 0
4, 133920, Note_on_c, 2, 57, 100
4, 134880, Note_on_c, 2, 57, 0
4, 134880, Note_on_c, 2, 56, 100
4, 135360, Note_on_c, 2, 56, 0
4, 135360, Note_on_c, 2, 57, 100
4, 135840, Note_on_c, 2, 57, 0
4, 135840, Note_on_c, 2, 59, 100
4, 136320, Note_on_c, 2, 59, 0
4, 136320, Note_on_c, 2, 60, 100
4, 137600, Note_on_c, 2, 60, 0
4, 137600, Note_on_c, 2, 62, 100
4, 137760, Note_on_c, 2, 62, 0
4, 137760, Note_on_c, 2, 61, 100
4, 138080, Note_on_c, 2, 61, 0
4, 138080, Note_on_c, 2, 59, 100
4, 138240, Note_on_c, 2, 59, 0
4, 138240, Note_on_c, 2, 57, 100
4, 139200, Note_on_c, 2, 57, 0
4, 139200, Note_on_c, 2, 58, 100
4, 140480, Note_on_c, 2, 58, 0
4, 140480, Note_on_c, 2, 58, 100
4, 140640, Note_on_c, 2, 58, 0
4, 140640, Note_on_c, 2, 57, 100
4, 140960, Note_on_c, 2, 57, 0
4, 140960, Note_on_c, 2, 55, 100
4, 141120, Note_on_c, 2, 55, 0
4, 141120, Note_on_c, 2, 53, 100
4, 141440, Note_on_c, 2, 53, 0
4, 141440, Note_on_c, 2, 52, 100
4, 141600, Note_on_c, 2, 52, 0
4, 141600, Note_on_c, 2, 50, 100
4, 141920, Note_on_c, 2, 50, 0
4, 141920, Note_on_c, 2, 49, 100
4, 142080, Note_on_c, 2, 49, 0
4, 142080, Note_on_c, 2, 50, 100
4, 142560, Note_on_c, 2, 50, 0
4, 142560, Note_on_c, 2, 52, 100
4, 142880, Note_on_c, 2, 52, 0
4, 142880, Note_on_c, 2, 54, 100
4, 143040, Note_on_c, 2, 54, 0
4, 143040, Note_on_c, 2, 55, 100
4, 143360, Note_on_c, 2, 55, 0
4, 143360, Note_on_c, 2, 53, 100
4, 143520, Note_on_c, 2, 53, 0
4, 143520, Note_on_c, 2, 52, 100
4, 143840, Note_on_c, 2, 52, 0
4, 143840, Note_on_c, 2, 50, 100
4, 144000, Note_on_c, 2, 50, 0
4, 144000, Note_on_c, 2, 49, 100
4, 144960, Note_on_c, 2, 49, 0
4, 144960, Note_on_c, 2, 50, 100
4, 145920, Note_on_c, 2, 50, 0
4, 145920, Note_on_c, 2, 52, 100
4, 146880, Note_on_c, 2, 52, 0
4, 146880, Note_on_c, 2, 53, 100
4, 147840, Note_on_c, 2, 53, 0
4, 147840, Note_on_c, 2, 52, 100
4, 148800, Note_on_c, 2, 52, 0
4, 149280, Note_on_c, 2, 57, 100
4, 149760, Note_on_c, 2, 57, 0
4, 149760, Note_on_c, 2, 57, 100
4, 150720, Note_on_c, 2, 57, 0
4, 152000, Note_on_c, 2, 50, 100
4, 152160, Note_on_c, 2, 50, 0
4, 152160, Note_on_c, 2, 52, 100
4, 152480, Note_on_c, 2, 52, 0
4, 152480, Note_on_c, 2, 53, 100
4, 152640, Note_on_c, 2, 53, 0
4, 152640, Note_on_c, 2, 55, 100
4, 152960, Note_on_c, 2, 55, 0
4, 152960, Note_on_c, 2, 57, 100
4, 153120, Note_on_c, 2, 57, 0
4, 153120, Note_on_c, 2, 55, 100
4, 153440, Note_on_c, 2, 55, 0
4, 153440, Note_on_c, 2, 53, 100
4, 153600, Note_on_c, 2, 53, 0
4, 153600, Note_on_c, 2, 52, 100
4, 153920, Note_on_c, 2, 52, 0
4, 153920, Note_on_c, 2, 55, 100
4, 154080, Note_on_c, 2, 55, 0
4, 154080, Note_on_c, 2, 53, 100
4, 154400, Note_on_c, 2, 53, 0
4, 154400, Note_on_c, 2, 52, 100
4, 154560, Note_on_c, 2, 52, 0
4, 154560, Note_on_c, 2, 50, 100
4, 155520, Note_on_c, 2, 50, 0
4, 155520, Note_on_c, 2, 49, 100
4, 156000, Note_on_c, 2, 49, 0
4, 156000, Note_on_c, 2, 50, 100
4, 156960, Note_on_c, 2, 50, 0
4, 156960, Note_on_c, 2, 49, 100
4, 157440, Note_on_c, 2, 49, 0
4, 157440, Note_on_c, 2, 50, 100
4, 157920, Note_on_c, 2, 50, 0
4, 157920, Note_on_c, 2, 52, 100
4, 158240, Note_on_c, 2, 52, 0
4, 158240, Note_on_c, 2, 54, 100
4, 158400, Note_on_c, 2, 54, 0
4, 158400, Note_on_c, 2, 55, 100
4, 159680, Note_on_c, 2, 55, 0
4, 159680, Note_on_c, 2, 54, 100
4, 159840, Note_on_c, 2, 54, 0
4, 159840, Note_on_c, 2, 55, 100
4, 160160, Note_on_c, 2, 55, 0
4, 160160, Note_on_c, 2, 52, 100
4, 160320, Note_on_c, 2, 52, 0
4, 160320, Note_on_c, 2, 54, 100
4, 161280, Note_on_c, 2, 54, 0
4, 161280, End_track
5, 0, Start_track
5, 0, MIDI_port, 0
5, 0, Title_t, "The Art of Fugue - BWV 1080"
5, 0, Program_c, 3, 42
5, 0, Control_c, 3, 7, 100
5, 0, Control_c, 3, 10, 34
5, 0, Note_on_c, 3, 50, 100
5, 960, Note_on_c, 3, 50, 0
5, 960, Note_on_c, 3, 57, 100
5, 1920, Note_on_c, 3, 57, 0
5, 1920, Note_on_c, 3, 53, 100
5, 2880, Note_on_c, 3, 53, 0
5, 2880, Note_on_c, 3, 50, 100
5, 3840, Note_on_c, 3, 50, 0
5, 3840, Note_on_c, 3, 49, 100
5, 4800, Note_on_c, 3, 49, 0
5, 4800, Note_on_c, 3, 50, 100
5, 5280, Note_on_c, 3, 50, 0
5, 5280, Note_on_c, 3, 52, 100
5, 5760, Note_on_c, 3, 52, 0
5, 5760, Note_on_c, 3, 53, 100
5, 7040, Note_on_c, 3, 53, 0
5, 7040, Note_on_c, 3, 55, 100
5, 7200, Note_on_c, 3, 55, 0
5, 7200, Note_on_c, 3, 53, 100
5, 7520, Note_on_c, 3, 53, 0
5, 7520, Note_on_c, 3, 52, 100
5, 7680, Note_on_c, 3, 52, 0
5, 7680, Note_on_c, 3, 50, 100
5, 8000, Note_on_c, 3, 50, 0
5, 8000, Note_on_c, 3, 52, 100
5, 8160, Note_on_c, 3, 52, 0
5, 8160, Note_on_c, 3, 50, 100
5, 8480, Note_on_c, 3, 50, 0
5, 8480, Note_on_c, 3, 48, 100
5, 8960, Note_on_c, 3, 48, 0
5, 8960, Note_on_c, 3, 50, 100
5, 9120, Note_on_c, 3, 50, 0
5, 9120, Note_on_c, 3, 48, 100
5, 9440, Note_on_c, 3, 48, 0
5, 9440, Note_on_c, 3, 47, 100
5, 9920, Note_on_c, 3, 47, 0
5, 9920, Note_on_c, 3, 45, 100
5, 10080, Note_on_c, 3, 45, 0
5, 10080, Note_on_c, 3, 47, 100
5, 10400, Note_on_c, 3, 47, 0
5, 10400, Note_on_c, 3, 48, 100
5, 10560, Note_on_c, 3, 48, 0
5, 10560, Note_on_c, 3, 50, 100
5, 10880, Note_on_c, 3, 50, 0
5, 10880, Note_on_c, 3, 52, 100
5, 11040, Note_on_c, 3, 52, 0
5, 11040, Note_on_c, 3, 53, 100
5, 11360, Note_on_c, 3, 53, 0
5, 11360, Note_on_c, 3, 50, 100
5, 11520, Note_on_c, 3, 50, 0
5, 11520, Note_on_c, 3, 52, 100
5, 11840, Note_on_c, 3, 52, 0
5, 11840, Note_on_c, 3, 53, 100
5, 12000, Note_on_c, 3, 53, 0
5, 12000, Note_on_c, 3, 52, 100
5, 12320, Note_on_c, 3, 52, 0
5, 12320, Note_on_c, 3, 50, 100
5, 12480, Note_on_c, 3, 50, 0
5, 12480, Note_on_c, 3, 48, 100
5, 12800, Note_on_c, 3, 48, 0
5, 12800, Note_on_c, 3, 47, 100
5, 12960, Note_on_c, 3, 47, 0
5, 12960, Note_on_c, 3, 45, 100
5, 13280, Note_on_c, 3, 45, 0
5, 13280, Note_on_c, 3, 44, 100
5, 13440, Note_on_c, 3, 44, 0
5, 13440, Note_on_c, 3, 45, 100
5, 13760, Note_on_c, 3, 45, 0
5, 13760, Note_on_c, 3, 57, 100
5, 13920, Note_on_c, 3, 57, 0
5, 13920, Note_on_c, 3, 56, 100
5, 14240, Note_on_c, 3, 56, 0
5, 14240, Note_on_c, 3, 57, 100
5, 14400, Note_on_c, 3, 57, 0
5, 14400, Note_on_c, 3, 50, 100
5, 14880, Note_on_c, 3, 50, 0
5, 14880, Note_on_c, 3, 55, 100
5, 15680, Note_on_c, 3, 55, 0
5, 15680, Note_on_c, 3, 53, 100
5, 15840, Note_on_c, 3, 53, 0
5, 15840, Note_on_c, 3, 52, 100
5, 16160, Note_on_c, 3, 52, 0
5, 16160, Note_on_c, 3, 50, 100
5, 16320, Note_on_c, 3, 50, 0
5, 16320, Note_on_c, 3, 49, 100
5, 17280, Note_on_c, 3, 49, 0
5, 17280, Note_on_c, 3, 50, 100
5, 17760, Note_on_c, 3, 50, 0
5, 17760, Note_on_c, 3, 38, 100
5, 18240, Note_on_c, 3, 38, 0
5, 18240, Note_on_c, 3, 43, 100
5, 18560, Note_on_c, 3, 43, 0
5, 18560, Note_on_c, 3, 45, 100
5, 18720, Note_on_c, 3, 45, 0
5, 18720, Note_on_c, 3, 46, 100
5, 19520, Note_on_c, 3, 46, 0
5, 19520, Note_on_c, 3, 46, 100
5, 19680, Note_on_c, 3, 46, 0
5, 19680, Note_on_c, 3, 45, 100
5, 20000, Note_on_c, 3, 45, 0
5, 20000, Note_on_c, 3, 43, 100
5, 20160, Note_on_c, 3, 43, 0
5, 20160, Note_on_c, 3, 41, 100
5, 20640, Note_on_c, 3, 41, 0
5, 20640, Note_on_c, 3, 40, 100
5, 21120, Note_on_c, 3, 40, 0
5, 21120, Note_on_c, 3, 38, 100
5, 21440, Note_on_c, 3, 38, 0
5, 21440, Note_on_c, 3, 50, 100
5, 21600, Note_on_c, 3, 50, 0
5, 21600, Note_on_c, 3, 52, 100
5, 21920, Note_on_c, 3, 52, 0
5, 21920, Note_on_c, 3, 53, 100
5, 22080, Note_on_c, 3, 53, 0
5, 22080, Note_on_c, 3, 55, 100
5, 22400, Note_on_c, 3, 55, 0
5, 22400, Note_on_c, 3, 58, 100
5, 22560, Note_on_c, 3, 58, 0
5, 22560, Note_on_c, 3, 57, 100
5, 22880, Note_on_c, 3, 57, 0
5, 22880, Note_on_c, 3, 55, 100
5, 23040, Note_on_c, 3, 55, 0
5, 23040, Note_on_c, 3, 53, 100
5, 23360, Note_on_c, 3, 53, 0
5, 23360, Note_on_c, 3, 55, 100
5, 23520, Note_on_c, 3, 55, 0
5, 23520, Note_on_c, 3, 53, 100
5, 23840, Note_on_c, 3, 53, 0
5, 23840, Note_on_c, 3, 52, 100
5, 24000, Note_on_c, 3, 52, 0
5, 24000, Note_on_c, 3, 50, 100
5, 24320, Note_on_c, 3, 50, 0
5, 24320, Note_on_c, 3, 52, 100
5, 24480, Note_on_c, 3, 52, 0
5, 24480, Note_on_c, 3, 53, 100
5, 24800, Note_on_c, 3, 53, 0
5, 24800, Note_on_c, 3, 55, 100
5, 24960, Note_on_c, 3, 55, 0
5, 24960, Note_on_c, 3, 57, 100
5, 25920, Note_on_c, 3, 57, 0
5, 25920, Note_on_c, 3, 53, 100
5, 27200, Note_on_c, 3, 53, 0
5, 27200, Note_on_c, 3, 53, 100
5, 27360, Note_on_c, 3, 53, 0
5, 27360, Note_on_c, 3, 52, 100
5, 27680, Note_on_c, 3, 52, 0
5, 27680, Note_on_c, 3, 50, 100
5, 27840, Note_on_c, 3, 50, 0
5, 27840, Note_on_c, 3, 48, 100
5, 28320, Note_on_c, 3, 48, 0
5, 28320, Note_on_c, 3, 47, 100
5, 28800, Note_on_c, 3, 47, 0
5, 29120, Note_on_c, 3, 45, 100
5, 29280, Note_on_c, 3, 45, 0
5, 29280, Note_on_c, 3, 47, 100
5, 29600, Note_on_c, 3, 47, 0
5, 29600, Note_on_c, 3, 48, 100
5, 29760, Note_on_c, 3, 48, 0
5, 29760, Note_on_c, 3, 50, 100
5, 30240, Note_on_c, 3, 50, 0
5, 30240, Note_on_c, 3, 52, 100
5, 30720, Note_on_c, 3, 52, 0
5, 30720, Note_on_c, 3, 53, 100
5, 32000, Note_on_c, 3, 53, 0
5, 32000, Note_on_c, 3, 52, 100
5, 32160, Note_on_c, 3, 52, 0
5, 32160, Note_on_c, 3, 50, 100
5, 32480, Note_on_c, 3, 50, 0
5, 32480, Note_on_c, 3, 49, 100
5, 32640, Note_on_c, 3, 49, 0
5, 32640, Note_on_c, 3, 50, 100
5, 33600, Note_on_c, 3, 50, 0
5, 33600, Note_on_c, 3, 50, 100
5, 33920, Note_on_c, 3, 50, 0
5, 33920, Note_on_c, 3, 48, 100
5, 34080, Note_on_c, 3, 48, 0
5, 34080, Note_on_c, 3, 46, 100
5, 34400, Note_on_c, 3, 46, 0
5, 34400, Note_on_c, 3, 45, 100
5, 34560, Note_on_c, 3, 45, 0
5, 34560, Note_on_c, 3, 46, 100
5, 35840, Note_on_c, 3, 46, 0
5, 35840, Note_on_c, 3, 45, 100
5, 36000, Note_on_c, 3, 45, 0
5, 36000, Note_on_c, 3, 43, 100
5, 36320, Note_on_c, 3, 43, 0
5, 36320, Note_on_c, 3, 42, 100
5, 36480, Note_on_c, 3, 42, 0
5, 36480, Note_on_c, 3, 43, 100
5, 38240, Note_on_c, 3, 43, 0
5, 38240, Note_on_c, 3, 41, 100
5, 38400, Note_on_c, 3, 41, 0
5, 38400, Note_on_c, 3, 40, 100
5, 41280, Note_on_c, 3, 40, 0
5, 41280, Note_on_c, 3, 52, 100
5, 42240, Note_on_c, 3, 52, 0
5, 42240, Note_on_c, 3, 45, 100
5, 42720, Note_on_c, 3, 45, 0
5, 44480, Note_on_c, 3, 50, 100
5, 44640, Note_on_c, 3, 50, 0
5, 44640, Note_on_c, 3, 52, 100
5, 44960, Note_on_c, 3, 52, 0
5, 44960, Note_on_c, 3, 53, 100
5, 45120, Note_on_c, 3, 53, 0
5, 45120, Note_on_c, 3, 55, 100
5, 45440, Note_on_c, 3, 55, 0
5, 45440, Note_on_c, 3, 57, 100
5, 45600, Note_on_c, 3, 57, 0
5, 45600, Note_on_c, 3, 55, 100
5, 45920, Note_on_c, 3, 55, 0
5, 45920, Note_on_c, 3, 53, 100
5, 46080, Note_on_c, 3, 53, 0
5, 46080, Note_on_c, 3, 52, 100
5, 46400, Note_on_c, 3, 52, 0
5, 46400, Note_on_c, 3, 58, 100
5, 46560, Note_on_c, 3, 58, 0
5, 46560, Note_on_c, 3, 57, 100
5, 46880, Note_on_c, 3, 57, 0
5, 46880, Note_on_c, 3, 55, 100
5, 47040, Note_on_c, 3, 55, 0
5, 47040, Note_on_c, 3, 53, 100
5, 47360, Note_on_c, 3, 53, 0
5, 47360, Note_on_c, 3, 52, 100
5, 47520, Note_on_c, 3, 52, 0
5, 47520, Note_on_c, 3, 50, 100
5, 47840, Note_on_c, 3, 50, 0
5, 47840, Note_on_c, 3, 49, 100
5, 48000, Note_on_c, 3, 49, 0
5, 48000, Note_on_c, 3, 50, 100
5, 48480, Note_on_c, 3, 50, 0
5, 48480, Note_on_c, 3, 53, 100
5, 48960, Note_on_c, 3, 53, 0
5, 48960, Note_on_c, 3, 47, 100
5, 49440, Note_on_c, 3, 47, 0
5, 49440, Note_on_c, 3, 52, 100
5, 49920, Note_on_c, 3, 52, 0
5, 49920, Note_on_c, 3, 45, 100
5, 50880, Note_on_c, 3, 45, 0
5, 50880, Note_on_c, 3, 50, 100
5, 52160, Note_on_c, 3, 50, 0
5, 52160, Note_on_c, 3, 47, 100
5, 52320, Note_on_c, 3, 47, 0
5, 52320, Note_on_c, 3, 52, 100
5, 52640, Note_on_c, 3, 52, 0
5, 52640, Note_on_c, 3, 50, 100
5, 52800, Note_on_c, 3, 50, 0
5, 52800, Note_on_c, 3, 48, 100
5, 53280, Note_on_c, 3, 48, 0
5, 53280, Note_on_c, 3, 47, 100
5, 53760, Note_on_c, 3, 47, 0
5, 53760, Note_on_c, 3, 45, 100
5, 54240, Note_on_c, 3, 45, 0
5, 57600, Note_on_c, 3, 50, 100
5, 58560, Note_on_c, 3, 50, 0
5, 58560, Note_on_c, 3, 57, 100
5, 59520, Note_on_c, 3, 57, 0
5, 59520, Note_on_c, 3, 53, 100
5, 60480, Note_on_c, 3, 53, 0
5, 60480, Note_on_c, 3, 50, 100
5, 61440, Note_on_c, 3, 50, 0
5, 61440, Note_on_c, 3, 49, 100
5, 62400, Note_on_c, 3, 49, 0
5, 62400, Note_on_c, 3, 50, 100
5, 62880, Note_on_c, 3, 50, 0
5, 62880, Note_on_c, 3, 52, 100
5, 63360, Note_on_c, 3, 52, 0
5, 63360, Note_on_c, 3, 53, 100
5, 64640, Note_on_c, 3, 53, 0
5, 64640, Note_on_c, 3, 55, 100
5, 64800, Note_on_c, 3, 55, 0
5, 64800, Note_on_c, 3, 53, 100
5, 65120, Note_on_c, 3, 53, 0
5, 65120, Note_on_c, 3, 52, 100
5, 65280, Note_on_c, 3, 52, 0
5, 65280, Note_on_c, 3, 50, 100
5, 65760, Note_on_c, 3, 50, 0
5, 67680, Note_on_c, 3, 55, 100
5, 68480, Note_on_c, 3, 55, 0
5, 68480, Note_on_c, 3, 53, 100
5, 68640, Note_on_c, 3, 53, 0
5, 68640, Note_on_c, 3, 52, 100
5, 68960, Note_on_c, 3, 52, 0
5, 68960, Note_on_c, 3, 50, 100
5, 69120, Note_on_c, 3, 50, 0
5, 69120, Note_on_c, 3, 52, 100
5, 70080, Note_on_c, 3, 52, 0
5, 75200, Note_on_c, 3, 53, 100
5, 75360, Note_on_c, 3, 53, 0
5, 75360, Note_on_c, 3, 52, 100
5, 75680, Note_on_c, 3, 52, 0
5, 75680, Note_on_c, 3, 50, 100
5, 75840, Note_on_c, 3, 50, 0
5, 75840, Note_on_c, 3, 48, 100
5, 76320, Note_on_c, 3, 48, 0
5, 76320, Note_on_c, 3, 53, 100
5, 77280, Note_on_c, 3, 53, 0
5, 77280, Note_on_c, 3, 54, 100
5, 78240, Note_on_c, 3, 54, 0
5, 78240, Note_on_c, 3, 56, 100
5, 78720, Note_on_c, 3, 56, 0
5, 78720, Note_on_c, 3, 57, 100
5, 79680, Note_on_c, 3, 57, 0
5, 96320, Note_on_c, 3, 51, 100
5, 96480, Note_on_c, 3, 51, 0
5, 96480, Note_on_c, 3, 50, 100
5, 96800, Note_on_c, 3, 50, 0
5, 96800, Note_on_c, 3, 48, 100
5, 96960, Note_on_c, 3, 48, 0
5, 96960, Note_on_c, 3, 46, 100
5, 97280, Note_on_c, 3, 46, 0
5, 97280, Note_on_c, 3, 45, 100
5, 97440, Note_on_c, 3, 45, 0
5, 97440, Note_on_c, 3, 43, 100
5, 97760, Note_on_c, 3, 43, 0
5, 97760, Note_on_c, 3, 42, 100
5, 97920, Note_on_c, 3, 42, 0
5, 97920, Note_on_c, 3, 43, 100
5, 98240, Note_on_c, 3, 43, 0
5, 98240, Note_on_c, 3, 55, 100
5, 98400, Note_on_c, 3, 55, 0
5, 98400, Note_on_c, 3, 54, 100
5, 98720, Note_on_c, 3, 54, 0
5, 98720, Note_on_c, 3, 55, 100
5, 98880, Note_on_c, 3, 55, 0
5, 98880, Note_on_c, 3, 48, 100
5, 100800, Note_on_c, 3, 48, 0
5, 100800, Note_on_c, 3, 53, 100
5, 101760, Note_on_c, 3, 53, 0
5, 101760, Note_on_c, 3, 50, 100
5, 102720, Note_on_c, 3, 50, 0
5, 102720, Note_on_c, 3, 46, 100
5, 103680, Note_on_c, 3, 46, 0
5, 103680, Note_on_c, 3, 45, 100
5, 104640, Note_on_c, 3, 45, 0
5, 104640, Note_on_c, 3, 46, 100
5, 105120, Note_on_c, 3, 46, 0
5, 105120, Note_on_c, 3, 48, 100
5, 105600, Note_on_c, 3, 48, 0
5, 105600, Note_on_c, 3, 50, 100
5, 106880, Note_on_c, 3, 50, 0
5, 106880, Note_on_c, 3, 51, 100
5, 107040, Note_on_c, 3, 51, 0
5, 107040, Note_on_c, 3, 50, 100
5, 107360, Note_on_c, 3, 50, 0
5, 107360, Note_on_c, 3, 48, 100
5, 107520, Note_on_c, 3, 48, 0
5, 107520, Note_on_c, 3, 46, 100
5, 107840, Note_on_c, 3, 46, 0
5, 107840, Note_on_c, 3, 58, 100
5, 108000, Note_on_c, 3, 58, 0
5, 108000, Note_on_c, 3, 57, 100
5, 108320, Note_on_c, 3, 57, 0
5, 108320, Note_on_c, 3, 58, 100
5, 108480, Note_on_c, 3, 58, 0
5, 108480, Note_on_c, 3, 52, 100
5, 108960, Note_on_c, 3, 52, 0
5, 108960, Note_on_c, 3, 54, 100
5, 109440, Note_on_c, 3, 54, 0
5, 109440, Note_on_c, 3, 55, 100
5, 110720, Note_on_c, 3, 55, 0
5, 110720, Note_on_c, 3, 53, 100
5, 110880, Note_on_c, 3, 53, 0
5, 110880, Note_on_c, 3, 52, 100
5, 111200, Note_on_c, 3, 52, 0
5, 111200, Note_on_c, 3, 50, 100
5, 111360, Note_on_c, 3, 50, 0
5, 111360, Note_on_c, 3, 58, 100
5, 113280, Note_on_c, 3, 58, 0
5, 113280, Note_on_c, 3, 57, 100
5, 113760, Note_on_c, 3, 57, 0
5, 115200, Note_on_c, 3, 50, 100
5, 116160, Note_on_c, 3, 50, 0
5, 116160, Note_on_c, 3, 57, 100
5, 117120, Note_on_c, 3, 57, 0
5, 117120, Note_on_c, 3, 53, 100
5, 118080, Note_on_c, 3, 53, 0
5, 118080, Note_on_c, 3, 50, 100
5, 119040, Note_on_c, 3, 50, 0
5, 119040, Note_on_c, 3, 49, 100
5, 120000, Note_on_c, 3, 49, 0
5, 120000, Note_on_c, 3, 50, 100
5, 120480, Note_on_c, 3, 50, 0
5, 120480, Note_on_c, 3, 52, 100
5, 120960, Note_on_c, 3, 52, 0
5, 120960, Note_on_c, 3, 53, 100
5, 122240, Note_on_c, 3, 53, 0
5, 122240, Note_on_c, 3, 55, 100
5, 122400, Note_on_c, 3, 55, 0
5, 122400, Note_on_c, 3, 53, 100
5, 122720, Note_on_c, 3, 53, 0
5, 122720, Note_on_c, 3, 52, 100
5, 122880, Note_on_c, 3, 52, 0
5, 122880, Note_on_c, 3, 50, 100
5, 124160, Note_on_c, 3, 50, 0
5, 124160, Note_on_c, 3, 51, 100
5, 124320, Note_on_c, 3, 51, 0
5, 124320, Note_on_c, 3, 50, 100
5, 124640, Note_on_c, 3, 50, 0
5, 124640, Note_on_c, 3, 48, 100
5, 124800, Note_on_c, 3, 48, 0
5, 124800, Note_on_c, 3, 46, 100
5, 126080, Note_on_c, 3, 46, 0
5, 126080, Note_on_c, 3, 48, 100
5, 126240, Note_on_c, 3, 48, 0
5, 126240, Note_on_c, 3, 46, 100
5, 126560, Note_on_c, 3, 46, 0
5, 126560, Note_on_c, 3, 45, 100
5, 126720, Note_on_c, 3, 45, 0
5, 126720, Note_on_c, 3, 43, 100
5, 127040, Note_on_c, 3, 43, 0
5, 127040, Note_on_c, 3, 50, 100
5, 127200, Note_on_c, 3, 50, 0
5, 127200, Note_on_c, 3, 52, 100
5, 127520, Note_on_c, 3, 52, 0
5, 127520, Note_on_c, 3, 54, 100
5, 127680, Note_on_c, 3, 54, 0
5, 127680, Note_on_c, 3, 55, 100
5, 128000, Note_on_c, 3, 55, 0
5, 128000, Note_on_c, 3, 57, 100
5, 128160, Note_on_c, 3, 57, 0
5, 128160, Note_on_c, 3, 55, 100
5, 128480, Note_on_c, 3, 55, 0
5, 128480, Note_on_c, 3, 53, 100
5, 128640, Note_on_c, 3, 53, 0
5, 128640, Note_on_c, 3, 52, 100
5, 129120, Note_on_c, 3, 52, 0
5, 129120, Note_on_c, 3, 57, 100
5, 129600, Note_on_c, 3, 57, 0
5, 129600, Note_on_c, 3, 50, 100
5, 130080, Note_on_c, 3, 50, 0
5, 130080, Note_on_c, 3, 55, 100
5, 130560, Note_on_c, 3, 55, 0
5, 130560, Note_on_c, 3, 49, 100
5, 131520, Note_on_c, 3, 49, 0
5, 131520, Note_on_c, 3, 50, 100
5, 132480, Note_on_c, 3, 50, 0
5, 132480, Note_on_c, 3, 52, 100
5, 133440, Note_on_c, 3, 52, 0
5, 133440, Note_on_c, 3, 53, 100
5, 134400, Note_on_c, 3, 53, 0
5, 134400, Note_on_c, 3, 47, 100
5, 135360, Note_on_c, 3, 47, 0
5, 135360, Note_on_c, 3, 48, 100
5, 136800, Note_on_c, 3, 48, 0
5, 136800, Note_on_c, 3, 50, 100
5, 137280, Note_on_c, 3, 50, 0
5, 137280, Note_on_c, 3, 52, 100
5, 138240, Note_on_c, 3, 52, 0
5, 138240, Note_on_c, 3, 53, 100
5, 138720, Note_on_c, 3, 53, 0
5, 138720, Note_on_c, 3, 50, 100
5, 139200, Note_on_c, 3, 50, 0
5, 139200, Note_on_c, 3, 55, 100
5, 140640, Note_on_c, 3, 55, 0
5, 140640, Note_on_c, 3, 49, 100
5, 141120, Note_on_c, 3, 49, 0
5, 141120, Note_on_c, 3, 50, 100
5, 141600, Note_on_c, 3, 50, 0
5, 141600, Note_on_c, 3, 45, 100
5, 142080, Note_on_c, 3, 45, 0
5, 142080, Note_on_c, 3, 46, 100
5, 143520, Note_on_c, 3, 46, 0
5, 143520, Note_on_c, 3, 43, 100
5, 144000, Note_on_c, 3, 43, 0
5, 144000, Note_on_c, 3, 45, 100
5, 149120, Note_on_c, 3, 45, 0
5, 149120, Note_on_c, 3, 46, 100
5, 149280, Note_on_c, 3, 46, 0
5, 149280, Note_on_c, 3, 45, 100
5, 149600, Note_on_c, 3, 45, 0
5, 149600, Note_on_c, 3, 43, 100
5, 150080, Note_on_c, 3, 43, 0
5, 150080, Note_on_c, 3, 45, 100
5, 150240, Note_on_c, 3, 45, 0
5, 150240, Note_on_c, 3, 43, 100
5, 150560, Note_on_c, 3, 43, 0
5, 150560, Note_on_c, 3, 41, 100
5, 151040, Note_on_c, 3, 41, 0
5, 151040, Note_on_c, 3, 43, 100
5, 151200, Note_on_c, 3, 43, 0
5, 151200, Note_on_c, 3, 41, 100
5, 151520, Note_on_c, 3, 41, 0
5, 151520, Note_on_c, 3, 40, 100
5, 151680, Note_on_c, 3, 40, 0
5, 151680, Note_on_c, 3, 38, 100
5, 152160, Note_on_c, 3, 38, 0
5, 152960, Note_on_c, 3, 40, 100
5, 153120, Note_on_c, 3, 40, 0
5, 153120, Note_on_c, 3, 41, 100
5, 153440, Note_on_c, 3, 41, 0
5, 153440, Note_on_c, 3, 43, 100
5, 153600, Note_on_c, 3, 43, 0
5, 153600, Note_on_c, 3, 45, 100
5, 154560, Note_on_c, 3, 45, 0
5, 154880, Note_on_c, 3, 46, 100
5, 155040, Note_on_c, 3, 46, 0
5, 155040, Note_on_c, 3, 45, 100
5, 155360, Note_on_c, 3, 45, 0
5, 155360, Note_on_c, 3, 43, 100
5, 155520, Note_on_c, 3, 43, 0
5, 155520, Note_on_c, 3, 45, 100
5, 155840, Note_on_c, 3, 45, 0
5, 155840, Note_on_c, 3, 41, 100
5, 156000, Note_on_c, 3, 41, 0
5, 156000, Note_on_c, 3, 40, 100
5, 156320, Note_on_c, 3, 40, 0
5, 156320, Note_on_c, 3, 38, 100
5, 156480, Note_on_c, 3, 38, 0
5, 156480, Note_on_c, 3, 43, 100
5, 156960, Note_on_c, 3, 43, 0
5, 156960, Note_on_c, 3, 45, 100
5, 157440, Note_on_c, 3, 45, 0
5, 157440, Note_on_c, 3, 46, 100
5, 157760, Note_on_c, 3, 46, 0
5, 157760, Note_on_c, 3, 48, 100
5, 157920, Note_on_c, 3, 48, 0
5, 157920, Note_on_c, 3, 46, 100
5, 158240, Note_on_c, 3, 46, 0
5, 158240, Note_on_c, 3, 45, 100
5, 158400, Note_on_c, 3, 45, 0
5, 158400, Note_on_c, 3, 43, 100
5, 158720, Note_on_c, 3, 43, 0
5, 158720, Note_on_c, 3, 45, 100
5, 158880, Note_on_c, 3, 45, 0
5, 158880, Note_on_c, 3, 46, 100
5, 159200, Note_on_c, 3, 46, 0
5, 159200, Note_on_c, 3, 43, 100
5, 159360, Note_on_c, 3, 43, 0
5, 159360, Note_on_c, 3, 50, 100
5, 160320, Note_on_c, 3, 50, 0
5, 160320, Note_on_c, 3, 38, 100
5, 161280, Note_on_c, 3, 38, 0
5, 161280, End_track
6, 0, Start_track
6, 0, MIDI_port, 0
6, 0, Title_t, "--------------------------------------"
6, 0, End_track
7, 0, Start_track
7, 0, MIDI_port, 0
7, 0, Title_t, "Contrapunctus II"
7, 0, End_track
8, 0, Start_track
8, 0, MIDI_port, 0
8, 0, Title_t, "--------------------------------------"
8, 0, End_track
9, 0, Start_track
9, 0, MIDI_port, 0
9, 0, Title_t, "Original sequence by an unknown author"
9, 0, End_track
10, 0, Start_track
10, 0, MIDI_port, 0
10, 0, Title_t, "Modified with Cakewalk Pro Audio by"
10, 0, End_track
11, 0, Start_track
11, 0, MIDI_port, 0
11, 0, Title_t, "David J. Grossman - dave@unpronounceable.com"
11, 0, End_track
12, 0, Start_track
12, 0, MIDI_port, 0
12, 0, Title_t, "This and other Bach MIDI files can be found at:"
12, 0, End_track
13, 0, Start_track
13, 0, MIDI_port, 0
13, 0, Title_t, "Dave's J.S. Bach Page"
13, 0, End_track
14, 0, Start_track
14, 0, MIDI_port, 0
14, 0, Title_t, "http://www.unpronounceable.com/bach"
14, 0, End_track
15, 0, Start_track
15, 0, MIDI_port, 0
15, 0, Title_t, "--------------------------------------"
15, 0, End_track
16, 0, Start_track
16, 0, MIDI_port, 0
16, 0, Title_t, "Original Filename: 1080-c02b.mid"
16, 0, End_track
17, 0, Start_track
17, 0, MIDI_port, 0
17, 0, Title_t, "Last Modified: March 29, 1997"
17, 0, End_track
0, 0, End_of_file
