0, 0, Header, 1, 17, 480
1, 0, Start_track
1, 0, Title_t, "untitled"
1, 0, SMPTE_offset, 96, 0, 3, 0, 0
1, 0, Time_signature, 3, 2, 24, 8
1, 0, Key_signature, 1, "major"
1, 0, Tempo, 600000
1, 0, Marker_t, "A"
1, 23040, Marker_t, "A'"
1, 46080, Marker_t, "B"
1, 69120, Marker_t, "B'"
1, 69120, End_track
2, 0, Start_track
2, 0, MIDI_port, 0
2, 0, Title_t, "Solo Harpsichord with 2 Manuals"
2, 0, Program_c, 0, 6
2, 0, Control_c, 0, 7, 100
2, 0, Control_c, 0, 10, 79
2, 11640, Note_on_c, 0, 83, 100
2, 11760, Note_on_c, 0, 83, 0
2, 11760, Note_on_c, 0, 83, 100
2, 11880, Note_on_c, 0, 83, 0
2, 13080, Note_on_c, 0, 81, 100
2, 13200, Note_on_c, 0, 81, 0
2, 13200, Note_on_c, 0, 81, 100
2, 13320, Note_on_c, 0, 81, 0
2, 14520, Note_on_c, 0, 79, 100
2, 14640, Note_on_c, 0, 79, 0
2, 14640, Note_on_c, 0, 79, 100
2, 14760, Note_on_c, 0, 79, 0
2, 15960, Note_on_c, 0, 79, 100
2, 16080, Note_on_c, 0, 79, 0
2, 16080, Note_on_c, 0, 79, 100
2, 16200, Note_on_c, 0, 79, 0
2, 34680, Note_on_c, 0, 83, 100
2, 34800, Note_on_c, 0, 83, 0
2, 34800, Note_on_c, 0, 83, 100
2, 34920, Note_on_c, 0, 83, 0
2, 36120, Note_on_c, 0, 81, 100
2, 36240, Note_on_c, 0, 81, 0
2, 36240, Note_on_c, 0, 81, 100
2, 36360, Note_on_c, 0, 81, 0
2, 37560, Note_on_c, 0, 79, 100
2, 37680, Note_on_c, 0, 79, 0
2, 37680, Note_on_c, 0, 79, 100
2, 37800, Note_on_c, 0, 79, 0
2, 39000, Note_on_c, 0, 79, 100
2, 39120, Note_on_c, 0, 79, 0
2, 39120, Note_on_c, 0, 79, 100
2, 39240, Note_on_c, 0, 79, 0
2, 57720, Note_on_c, 0, 64, 100
2, 57840, Note_on_c, 0, 64, 0
2, 57840, Note_on_c, 0, 65, 100
2, 57960, Note_on_c, 0, 65, 0
2, 57960, Note_on_c, 0, 67, 100
2, 58080, Note_on_c, 0, 67, 0
2, 58080, Note_on_c, 0, 69, 100
2, 58200, Note_on_c, 0, 69, 0
2, 58200, Note_on_c, 0, 71, 100
2, 58320, Note_on_c, 0, 71, 0
2, 58320, Note_on_c, 0, 72, 100
2, 58440, Note_on_c, 0, 72, 0
2, 58440, Note_on_c, 0, 74, 100
2, 58560, Note_on_c, 0, 74, 0
2, 58560, Note_on_c, 0, 76, 100
2, 58800, Note_on_c, 0, 76, 0
2, 59160, Note_on_c, 0, 74, 100
2, 59280, Note_on_c, 0, 74, 0
2, 59280, Note_on_c, 0, 72, 100
2, 59400, Note_on_c, 0, 72, 0
2, 59400, Note_on_c, 0, 71, 100
2, 59520, Note_on_c, 0, 71, 0
2, 59520, Note_on_c, 0, 69, 100
2, 59640, Note_on_c, 0, 69, 0
2, 59640, Note_on_c, 0, 67, 100
2, 59760, Note_on_c, 0, 67, 0
2, 59760, Note_on_c, 0, 66, 100
2, 59880, Note_on_c, 0, 66, 0
2, 59880, Note_on_c, 0, 64, 100
2, 60000, Note_on_c, 0, 64, 0
2, 60000, Note_on_c, 0, 62, 100
2, 60240, Note_on_c, 0, 62, 0
2, 60600, Note_on_c, 0, 62, 100
2, 60720, Note_on_c, 0, 62, 0
2, 60840, Note_on_c, 0, 59, 100
2, 60960, Note_on_c, 0, 59, 0
2, 61080, Note_on_c, 0, 62, 100
2, 61200, Note_on_c, 0, 62, 0
2, 61320, Note_on_c, 0, 59, 100
2, 61440, Note_on_c, 0, 59, 0
2, 61560, Note_on_c, 0, 59, 100
2, 61680, Note_on_c, 0, 59, 0
2, 61800, Note_on_c, 0, 55, 100
2, 61920, Note_on_c, 0, 55, 0
2, 62040, Note_on_c, 0, 55, 100
2, 62160, Note_on_c, 0, 55, 0
2, 62280, Note_on_c, 0, 52, 100
2, 62400, Note_on_c, 0, 52, 0
2, 62520, Note_on_c, 0, 55, 100
2, 62640, Note_on_c, 0, 55, 0
2, 62760, Note_on_c, 0, 52, 100
2, 62880, Note_on_c, 0, 52, 0
2, 63000, Note_on_c, 0, 52, 100
2, 63120, Note_on_c, 0, 52, 0
2, 63240, Note_on_c, 0, 48, 100
2, 63360, Note_on_c, 0, 48, 0
2, 63480, Note_on_c, 0, 48, 100
2, 63600, Note_on_c, 0, 48, 0
2, 63720, Note_on_c, 0, 45, 100
2, 63840, Note_on_c, 0, 45, 0
2, 63960, Note_on_c, 0, 48, 100
2, 64080, Note_on_c, 0, 48, 0
2, 64200, Note_on_c, 0, 52, 100
2, 64320, Note_on_c, 0, 52, 0
2, 64440, Note_on_c, 0, 55, 100
2, 64560, Note_on_c, 0, 55, 0
2, 64680, Note_on_c, 0, 59, 100
2, 64800, Note_on_c, 0, 59, 0
2, 64920, Note_on_c, 0, 62, 100
2, 65040, Note_on_c, 0, 62, 0
2, 65160, Note_on_c, 0, 59, 100
2, 65280, Note_on_c, 0, 59, 0
2, 65400, Note_on_c, 0, 62, 100
2, 65520, Note_on_c, 0, 62, 0
2, 65640, Note_on_c, 0, 66, 100
2, 65760, Note_on_c, 0, 66, 0
2, 65880, Note_on_c, 0, 69, 100
2, 66000, Note_on_c, 0, 69, 0
2, 66120, Note_on_c, 0, 72, 100
2, 66240, Note_on_c, 0, 72, 0
2, 66360, Note_on_c, 0, 73, 100
2, 66480, Note_on_c, 0, 73, 0
2, 66480, Note_on_c, 0, 74, 100
2, 66600, Note_on_c, 0, 74, 0
2, 66600, Note_on_c, 0, 76, 100
2, 66720, Note_on_c, 0, 76, 0
2, 66720, Note_on_c, 0, 78, 100
2, 66840, Note_on_c, 0, 78, 0
2, 66840, Note_on_c, 0, 79, 100
2, 66960, Note_on_c, 0, 79, 0
2, 66960, Note_on_c, 0, 81, 100
2, 67080, Note_on_c, 0, 81, 0
2, 67080, Note_on_c, 0, 83, 100
2, 67200, Note_on_c, 0, 83, 0
2, 67200, Note_on_c, 0, 84, 100
2, 67440, Note_on_c, 0, 84, 0
2, 67800, Note_on_c, 0, 83, 100
2, 67920, Note_on_c, 0, 83, 0
2, 67920, Note_on_c, 0, 81, 100
2, 68040, Note_on_c, 0, 81, 0
2, 68040, Note_on_c, 0, 79, 100
2, 68160, Note_on_c, 0, 79, 0
2, 68160, Note_on_c, 0, 78, 100
2, 68280, Note_on_c, 0, 78, 0
2, 68280, Note_on_c, 0, 76, 100
2, 68400, Note_on_c, 0, 76, 0
2, 68400, Note_on_c, 0, 74, 100
2, 68520, Note_on_c, 0, 74, 0
2, 68520, Note_on_c, 0, 72, 100
2, 68640, Note_on_c, 0, 72, 0
2, 68640, Note_on_c, 0, 71, 100
2, 68880, Note_on_c, 0, 71, 0
2, 80760, Note_on_c, 0, 64, 100
2, 80880, Note_on_c, 0, 64, 0
2, 80880, Note_on_c, 0, 65, 100
2, 81000, Note_on_c, 0, 65, 0
2, 81000, Note_on_c, 0, 67, 100
2, 81120, Note_on_c, 0, 67, 0
2, 81120, Note_on_c, 0, 69, 100
2, 81240, Note_on_c, 0, 69, 0
2, 81240, Note_on_c, 0, 71, 100
2, 81360, Note_on_c, 0, 71, 0
2, 81360, Note_on_c, 0, 72, 100
2, 81480, Note_on_c, 0, 72, 0
2, 81480, Note_on_c, 0, 74, 100
2, 81600, Note_on_c, 0, 74, 0
2, 81600, Note_on_c, 0, 76, 100
2, 81840, Note_on_c, 0, 76, 0
2, 82200, Note_on_c, 0, 74, 100
2, 82320, Note_on_c, 0, 74, 0
2, 82320, Note_on_c, 0, 72, 100
2, 82440, Note_on_c, 0, 72, 0
2, 82440, Note_on_c, 0, 71, 100
2, 82560, Note_on_c, 0, 71, 0
2, 82560, Note_on_c, 0, 69, 100
2, 82680, Note_on_c, 0, 69, 0
2, 82680, Note_on_c, 0, 67, 100
2, 82800, Note_on_c, 0, 67, 0
2, 82800, Note_on_c, 0, 66, 100
2, 82920, Note_on_c, 0, 66, 0
2, 82920, Note_on_c, 0, 64, 100
2, 83040, Note_on_c, 0, 64, 0
2, 83040, Note_on_c, 0, 62, 100
2, 83280, Note_on_c, 0, 62, 0
2, 83640, Note_on_c, 0, 62, 100
2, 83760, Note_on_c, 0, 62, 0
2, 83880, Note_on_c, 0, 59, 100
2, 84000, Note_on_c, 0, 59, 0
2, 84120, Note_on_c, 0, 62, 100
2, 84240, Note_on_c, 0, 62, 0
2, 84360, Note_on_c, 0, 59, 100
2, 84480, Note_on_c, 0, 59, 0
2, 84600, Note_on_c, 0, 59, 100
2, 84720, Note_on_c, 0, 59, 0
2, 84840, Note_on_c, 0, 55, 100
2, 84960, Note_on_c, 0, 55, 0
2, 85080, Note_on_c, 0, 55, 100
2, 85200, Note_on_c, 0, 55, 0
2, 85320, Note_on_c, 0, 52, 100
2, 85440, Note_on_c, 0, 52, 0
2, 85560, Note_on_c, 0, 55, 100
2, 85680, Note_on_c, 0, 55, 0
2, 85800, Note_on_c, 0, 52, 100
2, 85920, Note_on_c, 0, 52, 0
2, 86040, Note_on_c, 0, 52, 100
2, 86160, Note_on_c, 0, 52, 0
2, 86280, Note_on_c, 0, 48, 100
2, 86400, Note_on_c, 0, 48, 0
2, 86520, Note_on_c, 0, 48, 100
2, 86640, Note_on_c, 0, 48, 0
2, 86760, Note_on_c, 0, 45, 100
2, 86880, Note_on_c, 0, 45, 0
2, 87000, Note_on_c, 0, 48, 100
2, 87120, Note_on_c, 0, 48, 0
2, 87240, Note_on_c, 0, 52, 100
2, 87360, Note_on_c, 0, 52, 0
2, 87480, Note_on_c, 0, 55, 100
2, 87600, Note_on_c, 0, 55, 0
2, 87720, Note_on_c, 0, 59, 100
2, 87840, Note_on_c, 0, 59, 0
2, 87960, Note_on_c, 0, 62, 100
2, 88080, Note_on_c, 0, 62, 0
2, 88200, Note_on_c, 0, 59, 100
2, 88320, Note_on_c, 0, 59, 0
2, 88440, Note_on_c, 0, 62, 100
2, 88560, Note_on_c, 0, 62, 0
2, 88680, Note_on_c, 0, 66, 100
2, 88800, Note_on_c, 0, 66, 0
2, 88920, Note_on_c, 0, 69, 100
2, 89040, Note_on_c, 0, 69, 0
2, 89160, Note_on_c, 0, 72, 100
2, 89280, Note_on_c, 0, 72, 0
2, 89400, Note_on_c, 0, 73, 100
2, 89520, Note_on_c, 0, 73, 0
2, 89520, Note_on_c, 0, 74, 100
2, 89640, Note_on_c, 0, 74, 0
2, 89640, Note_on_c, 0, 76, 100
2, 89760, Note_on_c, 0, 76, 0
2, 89760, Note_on_c, 0, 78, 100
2, 89880, Note_on_c, 0, 78, 0
2, 89880, Note_on_c, 0, 79, 100
2, 90000, Note_on_c, 0, 79, 0
2, 90000, Note_on_c, 0, 81, 100
2, 90120, Note_on_c, 0, 81, 0
2, 90120, Note_on_c, 0, 83, 100
2, 90240, Note_on_c, 0, 83, 0
2, 90240, Note_on_c, 0, 84, 100
2, 90480, Note_on_c, 0, 84, 0
2, 90840, Note_on_c, 0, 83, 100
2, 90960, Note_on_c, 0, 83, 0
2, 90960, Note_on_c, 0, 81, 100
2, 91080, Note_on_c, 0, 81, 0
2, 91080, Note_on_c, 0, 79, 100
2, 91200, Note_on_c, 0, 79, 0
2, 91200, Note_on_c, 0, 78, 100
2, 91320, Note_on_c, 0, 78, 0
2, 91320, Note_on_c, 0, 76, 100
2, 91440, Note_on_c, 0, 76, 0
2, 91440, Note_on_c, 0, 74, 100
2, 91560, Note_on_c, 0, 74, 0
2, 91560, Note_on_c, 0, 72, 100
2, 91680, Note_on_c, 0, 72, 0
2, 91680, Note_on_c, 0, 71, 100
2, 91920, Note_on_c, 0, 71, 0
2, 91920, End_track
3, 0, Start_track
3, 0, MIDI_port, 0
3, 0, Title_t, "--------------------------------------"
3, 0, Program_c, 1, 6
3, 0, Control_c, 1, 7, 100
3, 0, Control_c, 1, 10, 69
3, 240, Note_on_c, 1, 67, 100
3, 480, Note_on_c, 1, 67, 0
3, 480, Note_on_c, 1, 83, 100
3, 600, Note_on_c, 1, 83, 0
3, 600, Note_on_c, 1, 81, 100
3, 720, Note_on_c, 1, 81, 0
3, 720, Note_on_c, 1, 79, 100
3, 840, Note_on_c, 1, 79, 0
3, 840, Note_on_c, 1, 78, 100
3, 960, Note_on_c, 1, 78, 0
3, 960, Note_on_c, 1, 76, 100
3, 1080, Note_on_c, 1, 76, 0
3, 1080, Note_on_c, 1, 74, 100
3, 1200, Note_on_c, 1, 74, 0
3, 1200, Note_on_c, 1, 73, 100
3, 1320, Note_on_c, 1, 73, 0
3, 1320, Note_on_c, 1, 71, 100
3, 1440, Note_on_c, 1, 71, 0
3, 1440, Note_on_c, 1, 69, 100
3, 1560, Note_on_c, 1, 69, 0
3, 1560, Note_on_c, 1, 67, 100
3, 1680, Note_on_c, 1, 67, 0
3, 1680, Note_on_c, 1, 66, 100
3, 1920, Note_on_c, 1, 66, 0
3, 1920, Note_on_c, 1, 81, 100
3, 2040, Note_on_c, 1, 81, 0
3, 2040, Note_on_c, 1, 79, 100
3, 2160, Note_on_c, 1, 79, 0
3, 2160, Note_on_c, 1, 78, 100
3, 2280, Note_on_c, 1, 78, 0
3, 2280, Note_on_c, 1, 76, 100
3, 2400, Note_on_c, 1, 76, 0
3, 2400, Note_on_c, 1, 74, 100
3, 2520, Note_on_c, 1, 74, 0
3, 2520, Note_on_c, 1, 73, 100
3, 2640, Note_on_c, 1, 73, 0
3, 2640, Note_on_c, 1, 71, 100
3, 2760, Note_on_c, 1, 71, 0
3, 2760, Note_on_c, 1, 69, 100
3, 2880, Note_on_c, 1, 69, 0
3, 2880, Note_on_c, 1, 67, 100
3, 3000, Note_on_c, 1, 67, 0
3, 3000, Note_on_c, 1, 66, 100
3, 3120, Note_on_c, 1, 66, 0
3, 3120, Note_on_c, 1, 64, 100
3, 3360, Note_on_c, 1, 64, 0
3, 3360, Note_on_c, 1, 79, 100
3, 3480, Note_on_c, 1, 79, 0
3, 3480, Note_on_c, 1, 78, 100
3, 3600, Note_on_c, 1, 78, 0
3, 3600, Note_on_c, 1, 76, 100
3, 3720, Note_on_c, 1, 76, 0
3, 3720, Note_on_c, 1, 74, 100
3, 3840, Note_on_c, 1, 74, 0
3, 3840, Note_on_c, 1, 73, 100
3, 3960, Note_on_c, 1, 73, 0
3, 3960, Note_on_c, 1, 71, 100
3, 4080, Note_on_c, 1, 71, 0
3, 4080, Note_on_c, 1, 69, 100
3, 4200, Note_on_c, 1, 69, 0
3, 4200, Note_on_c, 1, 67, 100
3, 4320, Note_on_c, 1, 67, 0
3, 4320, Note_on_c, 1, 66, 100
3, 4440, Note_on_c, 1, 66, 0
3, 4440, Note_on_c, 1, 64, 100
3, 4560, Note_on_c, 1, 64, 0
3, 4560, Note_on_c, 1, 62, 100
3, 4800, Note_on_c, 1, 62, 0
3, 5160, Note_on_c, 1, 64, 100
3, 5220, Note_on_c, 1, 64, 0
3, 5220, Note_on_c, 1, 66, 100
3, 5280, Note_on_c, 1, 66, 0
3, 5280, Note_on_c, 1, 67, 100
3, 5340, Note_on_c, 1, 67, 0
3, 5340, Note_on_c, 1, 69, 100
3, 5400, Note_on_c, 1, 69, 0
3, 5400, Note_on_c, 1, 71, 100
3, 5460, Note_on_c, 1, 71, 0
3, 5460, Note_on_c, 1, 73, 100
3, 5520, Note_on_c, 1, 73, 0
3, 5520, Note_on_c, 1, 74, 100
3, 6000, Note_on_c, 1, 74, 0
3, 6000, Note_on_c, 1, 59, 100
3, 6120, Note_on_c, 1, 59, 0
3, 6120, Note_on_c, 1, 60, 100
3, 6240, Note_on_c, 1, 60, 0
3, 6240, Note_on_c, 1, 62, 100
3, 6360, Note_on_c, 1, 62, 0
3, 6360, Note_on_c, 1, 64, 100
3, 6480, Note_on_c, 1, 64, 0
3, 6480, Note_on_c, 1, 66, 100
3, 6600, Note_on_c, 1, 66, 0
3, 6600, Note_on_c, 1, 67, 100
3, 6720, Note_on_c, 1, 67, 0
3, 6720, Note_on_c, 1, 69, 100
3, 6840, Note_on_c, 1, 69, 0
3, 6840, Note_on_c, 1, 71, 100
3, 6960, Note_on_c, 1, 71, 0
3, 6960, Note_on_c, 1, 72, 100
3, 7080, Note_on_c, 1, 72, 0
3, 7080, Note_on_c, 1, 74, 100
3, 7200, Note_on_c, 1, 74, 0
3, 7200, Note_on_c, 1, 76, 100
3, 7440, Note_on_c, 1, 76, 0
3, 7440, Note_on_c, 1, 60, 100
3, 7560, Note_on_c, 1, 60, 0
3, 7560, Note_on_c, 1, 62, 100
3, 7680, Note_on_c, 1, 62, 0
3, 7680, Note_on_c, 1, 64, 100
3, 7800, Note_on_c, 1, 64, 0
3, 7800, Note_on_c, 1, 66, 100
3, 7920, Note_on_c, 1, 66, 0
3, 7920, Note_on_c, 1, 67, 100
3, 8040, Note_on_c, 1, 67, 0
3, 8040, Note_on_c, 1, 69, 100
3, 8160, Note_on_c, 1, 69, 0
3, 8160, Note_on_c, 1, 71, 100
3, 8280, Note_on_c, 1, 71, 0
3, 8280, Note_on_c, 1, 72, 100
3, 8400, Note_on_c, 1, 72, 0
3, 8400, Note_on_c, 1, 74, 100
3, 8520, Note_on_c, 1, 74, 0
3, 8520, Note_on_c, 1, 76, 100
3, 8640, Note_on_c, 1, 76, 0
3, 8640, Note_on_c, 1, 78, 100
3, 8880, Note_on_c, 1, 78, 0
3, 8880, Note_on_c, 1, 62, 100
3, 9000, Note_on_c, 1, 62, 0
3, 9000, Note_on_c, 1, 64, 100
3, 9120, Note_on_c, 1, 64, 0
3, 9120, Note_on_c, 1, 66, 100
3, 9240, Note_on_c, 1, 66, 0
3, 9240, Note_on_c, 1, 67, 100
3, 9360, Note_on_c, 1, 67, 0
3, 9360, Note_on_c, 1, 69, 100
3, 9480, Note_on_c, 1, 69, 0
3, 9480, Note_on_c, 1, 71, 100
3, 9600, Note_on_c, 1, 71, 0
3, 9600, Note_on_c, 1, 72, 100
3, 9720, Note_on_c, 1, 72, 0
3, 9720, Note_on_c, 1, 74, 100
3, 9840, Note_on_c, 1, 74, 0
3, 9840, Note_on_c, 1, 76, 100
3, 9960, Note_on_c, 1, 76, 0
3, 9960, Note_on_c, 1, 78, 100
3, 10080, Note_on_c, 1, 78, 0
3, 10080, Note_on_c, 1, 79, 100
3, 10320, Note_on_c, 1, 79, 0
3, 10680, Note_on_c, 1, 78, 100
3, 10740, Note_on_c, 1, 78, 0
3, 10740, Note_on_c, 1, 76, 100
3, 10800, Note_on_c, 1, 76, 0
3, 10800, Note_on_c, 1, 74, 100
3, 10860, Note_on_c, 1, 74, 0
3, 10860, Note_on_c, 1, 72, 100
3, 10920, Note_on_c, 1, 72, 0
3, 10920, Note_on_c, 1, 71, 100
3, 10980, Note_on_c, 1, 71, 0
3, 10980, Note_on_c, 1, 69, 100
3, 11040, Note_on_c, 1, 69, 0
3, 11040, Note_on_c, 1, 67, 100
3, 11160, Note_on_c, 1, 67, 0
3, 11640, Note_on_c, 1, 74, 100
3, 11760, Note_on_c, 1, 74, 0
3, 11760, Note_on_c, 1, 74, 100
3, 11880, Note_on_c, 1, 74, 0
3, 12060, Note_on_c, 1, 79, 100
3, 12120, Note_on_c, 1, 79, 0
3, 12120, Note_on_c, 1, 78, 100
3, 12180, Note_on_c, 1, 78, 0
3, 12180, Note_on_c, 1, 76, 100
3, 12240, Note_on_c, 1, 76, 0
3, 12240, Note_on_c, 1, 74, 100
3, 12360, Note_on_c, 1, 74, 0
3, 12540, Note_on_c, 1, 72, 100
3, 12600, Note_on_c, 1, 72, 0
3, 12600, Note_on_c, 1, 71, 100
3, 12660, Note_on_c, 1, 71, 0
3, 12660, Note_on_c, 1, 69, 100
3, 12720, Note_on_c, 1, 69, 0
3, 12720, Note_on_c, 1, 67, 100
3, 12840, Note_on_c, 1, 67, 0
3, 13080, Note_on_c, 1, 74, 100
3, 13200, Note_on_c, 1, 74, 0
3, 13200, Note_on_c, 1, 74, 100
3, 13320, Note_on_c, 1, 74, 0
3, 13500, Note_on_c, 1, 74, 100
3, 13560, Note_on_c, 1, 74, 0
3, 13560, Note_on_c, 1, 73, 100
3, 13620, Note_on_c, 1, 73, 0
3, 13620, Note_on_c, 1, 71, 100
3, 13680, Note_on_c, 1, 71, 0
3, 13680, Note_on_c, 1, 69, 100
3, 13800, Note_on_c, 1, 69, 0
3, 13980, Note_on_c, 1, 67, 100
3, 14040, Note_on_c, 1, 67, 0
3, 14040, Note_on_c, 1, 66, 100
3, 14100, Note_on_c, 1, 66, 0
3, 14100, Note_on_c, 1, 64, 100
3, 14160, Note_on_c, 1, 64, 0
3, 14160, Note_on_c, 1, 62, 100
3, 14280, Note_on_c, 1, 62, 0
3, 14520, Note_on_c, 1, 71, 100
3, 14640, Note_on_c, 1, 71, 0
3, 14640, Note_on_c, 1, 71, 100
3, 14760, Note_on_c, 1, 71, 0
3, 14940, Note_on_c, 1, 72, 100
3, 15000, Note_on_c, 1, 72, 0
3, 15000, Note_on_c, 1, 71, 100
3, 15060, Note_on_c, 1, 71, 0
3, 15060, Note_on_c, 1, 69, 100
3, 15120, Note_on_c, 1, 69, 0
3, 15120, Note_on_c, 1, 67, 100
3, 15240, Note_on_c, 1, 67, 0
3, 15420, Note_on_c, 1, 69, 100
3, 15480, Note_on_c, 1, 69, 0
3, 15480, Note_on_c, 1, 67, 100
3, 15540, Note_on_c, 1, 67, 0
3, 15540, Note_on_c, 1, 66, 100
3, 15600, Note_on_c, 1, 66, 0
3, 15600, Note_on_c, 1, 64, 100
3, 15720, Note_on_c, 1, 64, 0
3, 15960, Note_on_c, 1, 69, 100
3, 16080, Note_on_c, 1, 69, 0
3, 16080, Note_on_c, 1, 69, 100
3, 16200, Note_on_c, 1, 69, 0
3, 16380, Note_on_c, 1, 66, 100
3, 16440, Note_on_c, 1, 66, 0
3, 16440, Note_on_c, 1, 64, 100
3, 16500, Note_on_c, 1, 64, 0
3, 16500, Note_on_c, 1, 62, 100
3, 16560, Note_on_c, 1, 62, 0
3, 16560, Note_on_c, 1, 61, 100
3, 16680, Note_on_c, 1, 61, 0
3, 16860, Note_on_c, 1, 62, 100
3, 16920, Note_on_c, 1, 62, 0
3, 16920, Note_on_c, 1, 61, 100
3, 16980, Note_on_c, 1, 61, 0
3, 16980, Note_on_c, 1, 59, 100
3, 17040, Note_on_c, 1, 59, 0
3, 17040, Note_on_c, 1, 57, 100
3, 17160, Note_on_c, 1, 57, 0
3, 17400, Note_on_c, 1, 69, 100
3, 17520, Note_on_c, 1, 69, 0
3, 17520, Note_on_c, 1, 81, 100
3, 17640, Note_on_c, 1, 81, 0
3, 17640, Note_on_c, 1, 79, 100
3, 17760, Note_on_c, 1, 79, 0
3, 17760, Note_on_c, 1, 78, 100
3, 17880, Note_on_c, 1, 78, 0
3, 17880, Note_on_c, 1, 76, 100
3, 18000, Note_on_c, 1, 76, 0
3, 18000, Note_on_c, 1, 74, 100
3, 18120, Note_on_c, 1, 74, 0
3, 18120, Note_on_c, 1, 72, 100
3, 18240, Note_on_c, 1, 72, 0
3, 18240, Note_on_c, 1, 71, 100
3, 18360, Note_on_c, 1, 71, 0
3, 18360, Note_on_c, 1, 69, 100
3, 18480, Note_on_c, 1, 69, 0
3, 18480, Note_on_c, 1, 67, 100
3, 18600, Note_on_c, 1, 67, 0
3, 18600, Note_on_c, 1, 66, 100
3, 18720, Note_on_c, 1, 66, 0
3, 18720, Note_on_c, 1, 71, 100
3, 18840, Note_on_c, 1, 71, 0
3, 18840, Note_on_c, 1, 67, 100
3, 18960, Note_on_c, 1, 67, 0
3, 18960, Note_on_c, 1, 66, 100
3, 19080, Note_on_c, 1, 66, 0
3, 19080, Note_on_c, 1, 64, 100
3, 19200, Note_on_c, 1, 64, 0
3, 19200, Note_on_c, 1, 62, 100
3, 19320, Note_on_c, 1, 62, 0
3, 19320, Note_on_c, 1, 60, 100
3, 19440, Note_on_c, 1, 60, 0
3, 19440, Note_on_c, 1, 59, 100
3, 19560, Note_on_c, 1, 59, 0
3, 19560, Note_on_c, 1, 57, 100
3, 19680, Note_on_c, 1, 57, 0
3, 19680, Note_on_c, 1, 55, 100
3, 19800, Note_on_c, 1, 55, 0
3, 19800, Note_on_c, 1, 59, 100
3, 19920, Note_on_c, 1, 59, 0
3, 19920, Note_on_c, 1, 64, 100
3, 20040, Note_on_c, 1, 64, 0
3, 20040, Note_on_c, 1, 62, 100
3, 20160, Note_on_c, 1, 62, 0
3, 20160, Note_on_c, 1, 61, 100
3, 20280, Note_on_c, 1, 61, 0
3, 20280, Note_on_c, 1, 59, 100
3, 20400, Note_on_c, 1, 59, 0
3, 20400, Note_on_c, 1, 57, 100
3, 20520, Note_on_c, 1, 57, 0
3, 20520, Note_on_c, 1, 59, 100
3, 20640, Note_on_c, 1, 59, 0
3, 20640, Note_on_c, 1, 61, 100
3, 20760, Note_on_c, 1, 61, 0
3, 20760, Note_on_c, 1, 62, 100
3, 20880, Note_on_c, 1, 62, 0
3, 20880, Note_on_c, 1, 64, 100
3, 21000, Note_on_c, 1, 64, 0
3, 21000, Note_on_c, 1, 66, 100
3, 21120, Note_on_c, 1, 66, 0
3, 21120, Note_on_c, 1, 67, 100
3, 21240, Note_on_c, 1, 67, 0
3, 21240, Note_on_c, 1, 69, 100
3, 21360, Note_on_c, 1, 69, 0
3, 21360, Note_on_c, 1, 71, 100
3, 21480, Note_on_c, 1, 71, 0
3, 21480, Note_on_c, 1, 73, 100
3, 21600, Note_on_c, 1, 73, 0
3, 21600, Note_on_c, 1, 74, 100
3, 21720, Note_on_c, 1, 74, 0
3, 21720, Note_on_c, 1, 73, 100
3, 21780, Note_on_c, 1, 73, 0
3, 21780, Note_on_c, 1, 71, 100
3, 21840, Note_on_c, 1, 71, 0
3, 21840, Note_on_c, 1, 69, 100
3, 21900, Note_on_c, 1, 69, 0
3, 21900, Note_on_c, 1, 67, 100
3, 21960, Note_on_c, 1, 67, 0
3, 21960, Note_on_c, 1, 66, 100
3, 22020, Note_on_c, 1, 66, 0
3, 22020, Note_on_c, 1, 64, 100
3, 22080, Note_on_c, 1, 64, 0
3, 22080, Note_on_c, 1, 62, 100
3, 22320, Note_on_c, 1, 62, 0
3, 23280, Note_on_c, 1, 67, 100
3, 23520, Note_on_c, 1, 67, 0
3, 23520, Note_on_c, 1, 83, 100
3, 23640, Note_on_c, 1, 83, 0
3, 23640, Note_on_c, 1, 81, 100
3, 23760, Note_on_c, 1, 81, 0
3, 23760, Note_on_c, 1, 79, 100
3, 23880, Note_on_c, 1, 79, 0
3, 23880, Note_on_c, 1, 78, 100
3, 24000, Note_on_c, 1, 78, 0
3, 24000, Note_on_c, 1, 76, 100
3, 24120, Note_on_c, 1, 76, 0
3, 24120, Note_on_c, 1, 74, 100
3, 24240, Note_on_c, 1, 74, 0
3, 24240, Note_on_c, 1, 73, 100
3, 24360, Note_on_c, 1, 73, 0
3, 24360, Note_on_c, 1, 71, 100
3, 24480, Note_on_c, 1, 71, 0
3, 24480, Note_on_c, 1, 69, 100
3, 24600, Note_on_c, 1, 69, 0
3, 24600, Note_on_c, 1, 67, 100
3, 24720, Note_on_c, 1, 67, 0
3, 24720, Note_on_c, 1, 66, 100
3, 24960, Note_on_c, 1, 66, 0
3, 24960, Note_on_c, 1, 81, 100
3, 25080, Note_on_c, 1, 81, 0
3, 25080, Note_on_c, 1, 79, 100
3, 25200, Note_on_c, 1, 79, 0
3, 25200, Note_on_c, 1, 78, 100
3, 25320, Note_on_c, 1, 78, 0
3, 25320, Note_on_c, 1, 76, 100
3, 25440, Note_on_c, 1, 76, 0
3, 25440, Note_on_c, 1, 74, 100
3, 25560, Note_on_c, 1, 74, 0
3, 25560, Note_on_c, 1, 73, 100
3, 25680, Note_on_c, 1, 73, 0
3, 25680, Note_on_c, 1, 71, 100
3, 25800, Note_on_c, 1, 71, 0
3, 25800, Note_on_c, 1, 69, 100
3, 25920, Note_on_c, 1, 69, 0
3, 25920, Note_on_c, 1, 67, 100
3, 26040, Note_on_c, 1, 67, 0
3, 26040, Note_on_c, 1, 66, 100
3, 26160, Note_on_c, 1, 66, 0
3, 26160, Note_on_c, 1, 64, 100
3, 26400, Note_on_c, 1, 64, 0
3, 26400, Note_on_c, 1, 79, 100
3, 26520, Note_on_c, 1, 79, 0
3, 26520, Note_on_c, 1, 78, 100
3, 26640, Note_on_c, 1, 78, 0
3, 26640, Note_on_c, 1, 76, 100
3, 26760, Note_on_c, 1, 76, 0
3, 26760, Note_on_c, 1, 74, 100
3, 26880, Note_on_c, 1, 74, 0
3, 26880, Note_on_c, 1, 73, 100
3, 27000, Note_on_c, 1, 73, 0
3, 27000, Note_on_c, 1, 71, 100
3, 27120, Note_on_c, 1, 71, 0
3, 27120, Note_on_c, 1, 69, 100
3, 27240, Note_on_c, 1, 69, 0
3, 27240, Note_on_c, 1, 67, 100
3, 27360, Note_on_c, 1, 67, 0
3, 27360, Note_on_c, 1, 66, 100
3, 27480, Note_on_c, 1, 66, 0
3, 27480, Note_on_c, 1, 64, 100
3, 27600, Note_on_c, 1, 64, 0
3, 27600, Note_on_c, 1, 62, 100
3, 27840, Note_on_c, 1, 62, 0
3, 28200, Note_on_c, 1, 64, 100
3, 28260, Note_on_c, 1, 64, 0
3, 28260, Note_on_c, 1, 66, 100
3, 28320, Note_on_c, 1, 66, 0
3, 28320, Note_on_c, 1, 67, 100
3, 28380, Note_on_c, 1, 67, 0
3, 28380, Note_on_c, 1, 69, 100
3, 28440, Note_on_c, 1, 69, 0
3, 28440, Note_on_c, 1, 71, 100
3, 28500, Note_on_c, 1, 71, 0
3, 28500, Note_on_c, 1, 73, 100
3, 28560, Note_on_c, 1, 73, 0
3, 28560, Note_on_c, 1, 74, 100
3, 29040, Note_on_c, 1, 74, 0
3, 29040, Note_on_c, 1, 59, 100
3, 29160, Note_on_c, 1, 59, 0
3, 29160, Note_on_c, 1, 60, 100
3, 29280, Note_on_c, 1, 60, 0
3, 29280, Note_on_c, 1, 62, 100
3, 29400, Note_on_c, 1, 62, 0
3, 29400, Note_on_c, 1, 64, 100
3, 29520, Note_on_c, 1, 64, 0
3, 29520, Note_on_c, 1, 66, 100
3, 29640, Note_on_c, 1, 66, 0
3, 29640, Note_on_c, 1, 67, 100
3, 29760, Note_on_c, 1, 67, 0
3, 29760, Note_on_c, 1, 69, 100
3, 29880, Note_on_c, 1, 69, 0
3, 29880, Note_on_c, 1, 71, 100
3, 30000, Note_on_c, 1, 71, 0
3, 30000, Note_on_c, 1, 72, 100
3, 30120, Note_on_c, 1, 72, 0
3, 30120, Note_on_c, 1, 74, 100
3, 30240, Note_on_c, 1, 74, 0
3, 30240, Note_on_c, 1, 76, 100
3, 30480, Note_on_c, 1, 76, 0
3, 30480, Note_on_c, 1, 60, 100
3, 30600, Note_on_c, 1, 60, 0
3, 30600, Note_on_c, 1, 62, 100
3, 30720, Note_on_c, 1, 62, 0
3, 30720, Note_on_c, 1, 64, 100
3, 30840, Note_on_c, 1, 64, 0
3, 30840, Note_on_c, 1, 66, 100
3, 30960, Note_on_c, 1, 66, 0
3, 30960, Note_on_c, 1, 67, 100
3, 31080, Note_on_c, 1, 67, 0
3, 31080, Note_on_c, 1, 69, 100
3, 31200, Note_on_c, 1, 69, 0
3, 31200, Note_on_c, 1, 71, 100
3, 31320, Note_on_c, 1, 71, 0
3, 31320, Note_on_c, 1, 72, 100
3, 31440, Note_on_c, 1, 72, 0
3, 31440, Note_on_c, 1, 74, 100
3, 31560, Note_on_c, 1, 74, 0
3, 31560, Note_on_c, 1, 76, 100
3, 31680, Note_on_c, 1, 76, 0
3, 31680, Note_on_c, 1, 78, 100
3, 31920, Note_on_c, 1, 78, 0
3, 31920, Note_on_c, 1, 62, 100
3, 32040, Note_on_c, 1, 62, 0
3, 32040, Note_on_c, 1, 64, 100
3, 32160, Note_on_c, 1, 64, 0
3, 32160, Note_on_c, 1, 66, 100
3, 32280, Note_on_c, 1, 66, 0
3, 32280, Note_on_c, 1, 67, 100
3, 32400, Note_on_c, 1, 67, 0
3, 32400, Note_on_c, 1, 69, 100
3, 32520, Note_on_c, 1, 69, 0
3, 32520, Note_on_c, 1, 71, 100
3, 32640, Note_on_c, 1, 71, 0
3, 32640, Note_on_c, 1, 72, 100
3, 32760, Note_on_c, 1, 72, 0
3, 32760, Note_on_c, 1, 74, 100
3, 32880, Note_on_c, 1, 74, 0
3, 32880, Note_on_c, 1, 76, 100
3, 33000, Note_on_c, 1, 76, 0
3, 33000, Note_on_c, 1, 78, 100
3, 33120, Note_on_c, 1, 78, 0
3, 33120, Note_on_c, 1, 79, 100
3, 33360, Note_on_c, 1, 79, 0
3, 33720, Note_on_c, 1, 78, 100
3, 33780, Note_on_c, 1, 78, 0
3, 33780, Note_on_c, 1, 76, 100
3, 33840, Note_on_c, 1, 76, 0
3, 33840, Note_on_c, 1, 74, 100
3, 33900, Note_on_c, 1, 74, 0
3, 33900, Note_on_c, 1, 72, 100
3, 33960, Note_on_c, 1, 72, 0
3, 33960, Note_on_c, 1, 71, 100
3, 34020, Note_on_c, 1, 71, 0
3, 34020, Note_on_c, 1, 69, 100
3, 34080, Note_on_c, 1, 69, 0
3, 34080, Note_on_c, 1, 67, 100
3, 34200, Note_on_c, 1, 67, 0
3, 34680, Note_on_c, 1, 74, 100
3, 34800, Note_on_c, 1, 74, 0
3, 34800, Note_on_c, 1, 74, 100
3, 34920, Note_on_c, 1, 74, 0
3, 35100, Note_on_c, 1, 79, 100
3, 35160, Note_on_c, 1, 79, 0
3, 35160, Note_on_c, 1, 78, 100
3, 35220, Note_on_c, 1, 78, 0
3, 35220, Note_on_c, 1, 76, 100
3, 35280, Note_on_c, 1, 76, 0
3, 35280, Note_on_c, 1, 74, 100
3, 35400, Note_on_c, 1, 74, 0
3, 35580, Note_on_c, 1, 72, 100
3, 35640, Note_on_c, 1, 72, 0
3, 35640, Note_on_c, 1, 71, 100
3, 35700, Note_on_c, 1, 71, 0
3, 35700, Note_on_c, 1, 69, 100
3, 35760, Note_on_c, 1, 69, 0
3, 35760, Note_on_c, 1, 67, 100
3, 35880, Note_on_c, 1, 67, 0
3, 36120, Note_on_c, 1, 74, 100
3, 36240, Note_on_c, 1, 74, 0
3, 36240, Note_on_c, 1, 74, 100
3, 36360, Note_on_c, 1, 74, 0
3, 36540, Note_on_c, 1, 74, 100
3, 36600, Note_on_c, 1, 74, 0
3, 36600, Note_on_c, 1, 73, 100
3, 36660, Note_on_c, 1, 73, 0
3, 36660, Note_on_c, 1, 71, 100
3, 36720, Note_on_c, 1, 71, 0
3, 36720, Note_on_c, 1, 69, 100
3, 36840, Note_on_c, 1, 69, 0
3, 37020, Note_on_c, 1, 67, 100
3, 37080, Note_on_c, 1, 67, 0
3, 37080, Note_on_c, 1, 66, 100
3, 37140, Note_on_c, 1, 66, 0
3, 37140, Note_on_c, 1, 64, 100
3, 37200, Note_on_c, 1, 64, 0
3, 37200, Note_on_c, 1, 62, 100
3, 37320, Note_on_c, 1, 62, 0
3, 37560, Note_on_c, 1, 71, 100
3, 37680, Note_on_c, 1, 71, 0
3, 37680, Note_on_c, 1, 71, 100
3, 37800, Note_on_c, 1, 71, 0
3, 37980, Note_on_c, 1, 72, 100
3, 38040, Note_on_c, 1, 72, 0
3, 38040, Note_on_c, 1, 71, 100
3, 38100, Note_on_c, 1, 71, 0
3, 38100, Note_on_c, 1, 69, 100
3, 38160, Note_on_c, 1, 69, 0
3, 38160, Note_on_c, 1, 67, 100
3, 38280, Note_on_c, 1, 67, 0
3, 38460, Note_on_c, 1, 69, 100
3, 38520, Note_on_c, 1, 69, 0
3, 38520, Note_on_c, 1, 67, 100
3, 38580, Note_on_c, 1, 67, 0
3, 38580, Note_on_c, 1, 66, 100
3, 38640, Note_on_c, 1, 66, 0
3, 38640, Note_on_c, 1, 64, 100
3, 38760, Note_on_c, 1, 64, 0
3, 39000, Note_on_c, 1, 69, 100
3, 39120, Note_on_c, 1, 69, 0
3, 39120, Note_on_c, 1, 69, 100
3, 39240, Note_on_c, 1, 69, 0
3, 39420, Note_on_c, 1, 66, 100
3, 39480, Note_on_c, 1, 66, 0
3, 39480, Note_on_c, 1, 64, 100
3, 39540, Note_on_c, 1, 64, 0
3, 39540, Note_on_c, 1, 62, 100
3, 39600, Note_on_c, 1, 62, 0
3, 39600, Note_on_c, 1, 61, 100
3, 39720, Note_on_c, 1, 61, 0
3, 39900, Note_on_c, 1, 62, 100
3, 39960, Note_on_c, 1, 62, 0
3, 39960, Note_on_c, 1, 61, 100
3, 40020, Note_on_c, 1, 61, 0
3, 40020, Note_on_c, 1, 59, 100
3, 40080, Note_on_c, 1, 59, 0
3, 40080, Note_on_c, 1, 57, 100
3, 40200, Note_on_c, 1, 57, 0
3, 40440, Note_on_c, 1, 69, 100
3, 40560, Note_on_c, 1, 69, 0
3, 40560, Note_on_c, 1, 81, 100
3, 40680, Note_on_c, 1, 81, 0
3, 40680, Note_on_c, 1, 79, 100
3, 40800, Note_on_c, 1, 79, 0
3, 40800, Note_on_c, 1, 78, 100
3, 40920, Note_on_c, 1, 78, 0
3, 40920, Note_on_c, 1, 76, 100
3, 41040, Note_on_c, 1, 76, 0
3, 41040, Note_on_c, 1, 74, 100
3, 41160, Note_on_c, 1, 74, 0
3, 41160, Note_on_c, 1, 72, 100
3, 41280, Note_on_c, 1, 72, 0
3, 41280, Note_on_c, 1, 71, 100
3, 41400, Note_on_c, 1, 71, 0
3, 41400, Note_on_c, 1, 69, 100
3, 41520, Note_on_c, 1, 69, 0
3, 41520, Note_on_c, 1, 67, 100
3, 41640, Note_on_c, 1, 67, 0
3, 41640, Note_on_c, 1, 66, 100
3, 41760, Note_on_c, 1, 66, 0
3, 41760, Note_on_c, 1, 71, 100
3, 41880, Note_on_c, 1, 71, 0
3, 41880, Note_on_c, 1, 67, 100
3, 42000, Note_on_c, 1, 67, 0
3, 42000, Note_on_c, 1, 66, 100
3, 42120, Note_on_c, 1, 66, 0
3, 42120, Note_on_c, 1, 64, 100
3, 42240, Note_on_c, 1, 64, 0
3, 42240, Note_on_c, 1, 62, 100
3, 42360, Note_on_c, 1, 62, 0
3, 42360, Note_on_c, 1, 60, 100
3, 42480, Note_on_c, 1, 60, 0
3, 42480, Note_on_c, 1, 59, 100
3, 42600, Note_on_c, 1, 59, 0
3, 42600, Note_on_c, 1, 57, 100
3, 42720, Note_on_c, 1, 57, 0
3, 42720, Note_on_c, 1, 55, 100
3, 42840, Note_on_c, 1, 55, 0
3, 42840, Note_on_c, 1, 59, 100
3, 42960, Note_on_c, 1, 59, 0
3, 42960, Note_on_c, 1, 64, 100
3, 43080, Note_on_c, 1, 64, 0
3, 43080, Note_on_c, 1, 62, 100
3, 43200, Note_on_c, 1, 62, 0
3, 43200, Note_on_c, 1, 61, 100
3, 43320, Note_on_c, 1, 61, 0
3, 43320, Note_on_c, 1, 59, 100
3, 43440, Note_on_c, 1, 59, 0
3, 43440, Note_on_c, 1, 57, 100
3, 43560, Note_on_c, 1, 57, 0
3, 43560, Note_on_c, 1, 59, 100
3, 43680, Note_on_c, 1, 59, 0
3, 43680, Note_on_c, 1, 61, 100
3, 43800, Note_on_c, 1, 61, 0
3, 43800, Note_on_c, 1, 62, 100
3, 43920, Note_on_c, 1, 62, 0
3, 43920, Note_on_c, 1, 64, 100
3, 44040, Note_on_c, 1, 64, 0
3, 44040, Note_on_c, 1, 66, 100
3, 44160, Note_on_c, 1, 66, 0
3, 44160, Note_on_c, 1, 67, 100
3, 44280, Note_on_c, 1, 67, 0
3, 44280, Note_on_c, 1, 69, 100
3, 44400, Note_on_c, 1, 69, 0
3, 44400, Note_on_c, 1, 71, 100
3, 44520, Note_on_c, 1, 71, 0
3, 44520, Note_on_c, 1, 73, 100
3, 44640, Note_on_c, 1, 73, 0
3, 44640, Note_on_c, 1, 74, 100
3, 44760, Note_on_c, 1, 74, 0
3, 44760, Note_on_c, 1, 73, 100
3, 44820, Note_on_c, 1, 73, 0
3, 44820, Note_on_c, 1, 71, 100
3, 44880, Note_on_c, 1, 71, 0
3, 44880, Note_on_c, 1, 69, 100
3, 44940, Note_on_c, 1, 69, 0
3, 44940, Note_on_c, 1, 67, 100
3, 45000, Note_on_c, 1, 67, 0
3, 45000, Note_on_c, 1, 66, 100
3, 45060, Note_on_c, 1, 66, 0
3, 45060, Note_on_c, 1, 64, 100
3, 45120, Note_on_c, 1, 64, 0
3, 45120, Note_on_c, 1, 62, 100
3, 45360, Note_on_c, 1, 62, 0
3, 46080, Note_on_c, 1, 81, 100
3, 46140, Note_on_c, 1, 81, 0
3, 46140, Note_on_c, 1, 79, 100
3, 46200, Note_on_c, 1, 79, 0
3, 46200, Note_on_c, 1, 81, 100
3, 46320, Note_on_c, 1, 81, 0
3, 46440, Note_on_c, 1, 79, 100
3, 46560, Note_on_c, 1, 79, 0
3, 46560, Note_on_c, 1, 79, 100
3, 46620, Note_on_c, 1, 79, 0
3, 46620, Note_on_c, 1, 78, 100
3, 46800, Note_on_c, 1, 78, 0
3, 46920, Note_on_c, 1, 76, 100
3, 47040, Note_on_c, 1, 76, 0
3, 47040, Note_on_c, 1, 76, 100
3, 47100, Note_on_c, 1, 76, 0
3, 47100, Note_on_c, 1, 74, 100
3, 47280, Note_on_c, 1, 74, 0
3, 47400, Note_on_c, 1, 72, 100
3, 47520, Note_on_c, 1, 72, 0
3, 47520, Note_on_c, 1, 72, 100
3, 47560, Note_on_c, 1, 72, 0
3, 47560, Note_on_c, 1, 71, 100
3, 47600, Note_on_c, 1, 71, 0
3, 47600, Note_on_c, 1, 72, 100
3, 47640, Note_on_c, 1, 72, 0
3, 47640, Note_on_c, 1, 71, 100
3, 47760, Note_on_c, 1, 71, 0
3, 47880, Note_on_c, 1, 69, 100
3, 48000, Note_on_c, 1, 69, 0
3, 48000, Note_on_c, 1, 69, 100
3, 48060, Note_on_c, 1, 69, 0
3, 48060, Note_on_c, 1, 67, 100
3, 48240, Note_on_c, 1, 67, 0
3, 48360, Note_on_c, 1, 66, 100
3, 48480, Note_on_c, 1, 66, 0
3, 48480, Note_on_c, 1, 66, 100
3, 48540, Note_on_c, 1, 66, 0
3, 48540, Note_on_c, 1, 64, 100
3, 48720, Note_on_c, 1, 64, 0
3, 48840, Note_on_c, 1, 62, 100
3, 48960, Note_on_c, 1, 62, 0
3, 48960, Note_on_c, 1, 62, 100
3, 49000, Note_on_c, 1, 62, 0
3, 49000, Note_on_c, 1, 60, 100
3, 49040, Note_on_c, 1, 60, 0
3, 49040, Note_on_c, 1, 62, 100
3, 49080, Note_on_c, 1, 62, 0
3, 49080, Note_on_c, 1, 60, 100
3, 49200, Note_on_c, 1, 60, 0
3, 49320, Note_on_c, 1, 59, 100
3, 49440, Note_on_c, 1, 59, 0
3, 49440, Note_on_c, 1, 59, 100
3, 49500, Note_on_c, 1, 59, 0
3, 49500, Note_on_c, 1, 57, 100
3, 49680, Note_on_c, 1, 57, 0
3, 49800, Note_on_c, 1, 55, 100
3, 49920, Note_on_c, 1, 55, 0
3, 49920, Note_on_c, 1, 55, 100
3, 49980, Note_on_c, 1, 55, 0
3, 49980, Note_on_c, 1, 54, 100
3, 50160, Note_on_c, 1, 54, 0
3, 50280, Note_on_c, 1, 52, 100
3, 50400, Note_on_c, 1, 52, 0
3, 50400, Note_on_c, 1, 52, 100
3, 50460, Note_on_c, 1, 52, 0
3, 50460, Note_on_c, 1, 51, 100
3, 50640, Note_on_c, 1, 51, 0
3, 50760, Note_on_c, 1, 54, 100
3, 50880, Note_on_c, 1, 54, 0
3, 50880, Note_on_c, 1, 57, 100
3, 51120, Note_on_c, 1, 57, 0
3, 51240, Note_on_c, 1, 60, 100
3, 51360, Note_on_c, 1, 60, 0
3, 51360, Note_on_c, 1, 60, 100
3, 51400, Note_on_c, 1, 60, 0
3, 51400, Note_on_c, 1, 59, 100
3, 51440, Note_on_c, 1, 59, 0
3, 51440, Note_on_c, 1, 60, 100
3, 51480, Note_on_c, 1, 60, 0
3, 51480, Note_on_c, 1, 59, 100
3, 51600, Note_on_c, 1, 59, 0
3, 51720, Note_on_c, 1, 57, 100
3, 51840, Note_on_c, 1, 57, 0
3, 51840, Note_on_c, 1, 55, 100
3, 52080, Note_on_c, 1, 55, 0
3, 52440, Note_on_c, 1, 75, 100
3, 52560, Note_on_c, 1, 75, 0
3, 52560, Note_on_c, 1, 76, 100
3, 52680, Note_on_c, 1, 76, 0
3, 52680, Note_on_c, 1, 78, 100
3, 52800, Note_on_c, 1, 78, 0
3, 52800, Note_on_c, 1, 79, 100
3, 52920, Note_on_c, 1, 79, 0
3, 52920, Note_on_c, 1, 80, 100
3, 53040, Note_on_c, 1, 80, 0
3, 53040, Note_on_c, 1, 81, 100
3, 53160, Note_on_c, 1, 81, 0
3, 53160, Note_on_c, 1, 83, 100
3, 53280, Note_on_c, 1, 83, 0
3, 53280, Note_on_c, 1, 84, 100
3, 53400, Note_on_c, 1, 84, 0
3, 53400, Note_on_c, 1, 81, 100
3, 53520, Note_on_c, 1, 81, 0
3, 53520, Note_on_c, 1, 79, 100
3, 53640, Note_on_c, 1, 79, 0
3, 53640, Note_on_c, 1, 77, 100
3, 53760, Note_on_c, 1, 77, 0
3, 53760, Note_on_c, 1, 76, 100
3, 53880, Note_on_c, 1, 76, 0
3, 53880, Note_on_c, 1, 74, 100
3, 54000, Note_on_c, 1, 74, 0
3, 54000, Note_on_c, 1, 72, 100
3, 54120, Note_on_c, 1, 72, 0
3, 54120, Note_on_c, 1, 71, 100
3, 54240, Note_on_c, 1, 71, 0
3, 54240, Note_on_c, 1, 69, 100
3, 54360, Note_on_c, 1, 69, 0
3, 54360, Note_on_c, 1, 67, 100
3, 54480, Note_on_c, 1, 67, 0
3, 54480, Note_on_c, 1, 66, 100
3, 54600, Note_on_c, 1, 66, 0
3, 54600, Note_on_c, 1, 64, 100
3, 54720, Note_on_c, 1, 64, 0
3, 54720, Note_on_c, 1, 63, 100
3, 54840, Note_on_c, 1, 63, 0
3, 54840, Note_on_c, 1, 72, 100
3, 54960, Note_on_c, 1, 72, 0
3, 54960, Note_on_c, 1, 71, 100
3, 55200, Note_on_c, 1, 71, 0
3, 55260, Note_on_c, 1, 71, 100
3, 55320, Note_on_c, 1, 71, 0
3, 55320, Note_on_c, 1, 73, 100
3, 55380, Note_on_c, 1, 73, 0
3, 55380, Note_on_c, 1, 75, 100
3, 55440, Note_on_c, 1, 75, 0
3, 55440, Note_on_c, 1, 76, 100
3, 55500, Note_on_c, 1, 76, 0
3, 55500, Note_on_c, 1, 78, 100
3, 55560, Note_on_c, 1, 78, 0
3, 55560, Note_on_c, 1, 79, 100
3, 55800, Note_on_c, 1, 79, 0
3, 55800, Note_on_c, 1, 78, 100
3, 55920, Note_on_c, 1, 78, 0
3, 55920, Note_on_c, 1, 78, 100
3, 55950, Note_on_c, 1, 78, 0
3, 55950, Note_on_c, 1, 76, 100
3, 55980, Note_on_c, 1, 76, 0
3, 55980, Note_on_c, 1, 78, 100
3, 56010, Note_on_c, 1, 78, 0
3, 56010, Note_on_c, 1, 76, 100
3, 56040, Note_on_c, 1, 76, 0
3, 56040, Note_on_c, 1, 75, 100
3, 56160, Note_on_c, 1, 75, 0
3, 56160, Note_on_c, 1, 76, 100
3, 56220, Note_on_c, 1, 76, 0
3, 56220, Note_on_c, 1, 72, 100
3, 56280, Note_on_c, 1, 72, 0
3, 56280, Note_on_c, 1, 71, 100
3, 56340, Note_on_c, 1, 71, 0
3, 56340, Note_on_c, 1, 69, 100
3, 56400, Note_on_c, 1, 69, 0
3, 56400, Note_on_c, 1, 71, 100
3, 56460, Note_on_c, 1, 71, 0
3, 56700, Note_on_c, 1, 66, 100
3, 56760, Note_on_c, 1, 66, 0
3, 56760, Note_on_c, 1, 64, 100
3, 56820, Note_on_c, 1, 64, 0
3, 56820, Note_on_c, 1, 63, 100
3, 56880, Note_on_c, 1, 63, 0
3, 56880, Note_on_c, 1, 64, 100
3, 56940, Note_on_c, 1, 64, 0
3, 57180, Note_on_c, 1, 57, 100
3, 57240, Note_on_c, 1, 57, 0
3, 57240, Note_on_c, 1, 55, 100
3, 57300, Note_on_c, 1, 55, 0
3, 57300, Note_on_c, 1, 54, 100
3, 57360, Note_on_c, 1, 54, 0
3, 57360, Note_on_c, 1, 55, 100
3, 57420, Note_on_c, 1, 55, 0
3, 57720, Note_on_c, 1, 60, 100
3, 57840, Note_on_c, 1, 60, 0
3, 57840, Note_on_c, 1, 62, 100
3, 57960, Note_on_c, 1, 62, 0
3, 57960, Note_on_c, 1, 64, 100
3, 58080, Note_on_c, 1, 64, 0
3, 58080, Note_on_c, 1, 65, 100
3, 58200, Note_on_c, 1, 65, 0
3, 58200, Note_on_c, 1, 67, 100
3, 58320, Note_on_c, 1, 67, 0
3, 58320, Note_on_c, 1, 69, 100
3, 58440, Note_on_c, 1, 69, 0
3, 58440, Note_on_c, 1, 71, 100
3, 58560, Note_on_c, 1, 71, 0
3, 58560, Note_on_c, 1, 72, 100
3, 58800, Note_on_c, 1, 72, 0
3, 59160, Note_on_c, 1, 71, 100
3, 59280, Note_on_c, 1, 71, 0
3, 59280, Note_on_c, 1, 69, 100
3, 59400, Note_on_c, 1, 69, 0
3, 59400, Note_on_c, 1, 67, 100
3, 59520, Note_on_c, 1, 67, 0
3, 59520, Note_on_c, 1, 66, 100
3, 59640, Note_on_c, 1, 66, 0
3, 59640, Note_on_c, 1, 64, 100
3, 59760, Note_on_c, 1, 64, 0
3, 59760, Note_on_c, 1, 62, 100
3, 59880, Note_on_c, 1, 62, 0
3, 59880, Note_on_c, 1, 60, 100
3, 60000, Note_on_c, 1, 60, 0
3, 60000, Note_on_c, 1, 59, 100
3, 60240, Note_on_c, 1, 59, 0
3, 60600, Note_on_c, 1, 59, 100
3, 60720, Note_on_c, 1, 59, 0
3, 60840, Note_on_c, 1, 56, 100
3, 60960, Note_on_c, 1, 56, 0
3, 61080, Note_on_c, 1, 59, 100
3, 61200, Note_on_c, 1, 59, 0
3, 61320, Note_on_c, 1, 55, 100
3, 61440, Note_on_c, 1, 55, 0
3, 61560, Note_on_c, 1, 55, 100
3, 61680, Note_on_c, 1, 55, 0
3, 61800, Note_on_c, 1, 52, 100
3, 61920, Note_on_c, 1, 52, 0
3, 62040, Note_on_c, 1, 52, 100
3, 62160, Note_on_c, 1, 52, 0
3, 62280, Note_on_c, 1, 49, 100
3, 62400, Note_on_c, 1, 49, 0
3, 62520, Note_on_c, 1, 52, 100
3, 62640, Note_on_c, 1, 52, 0
3, 62760, Note_on_c, 1, 48, 100
3, 62880, Note_on_c, 1, 48, 0
3, 63000, Note_on_c, 1, 48, 100
3, 63120, Note_on_c, 1, 48, 0
3, 63240, Note_on_c, 1, 45, 100
3, 63360, Note_on_c, 1, 45, 0
3, 63480, Note_on_c, 1, 45, 100
3, 63600, Note_on_c, 1, 45, 0
3, 63720, Note_on_c, 1, 42, 100
3, 63840, Note_on_c, 1, 42, 0
3, 63960, Note_on_c, 1, 45, 100
3, 64080, Note_on_c, 1, 45, 0
3, 64200, Note_on_c, 1, 48, 100
3, 64320, Note_on_c, 1, 48, 0
3, 64440, Note_on_c, 1, 52, 100
3, 64560, Note_on_c, 1, 52, 0
3, 64680, Note_on_c, 1, 55, 100
3, 64800, Note_on_c, 1, 55, 0
3, 64920, Note_on_c, 1, 53, 100
3, 65040, Note_on_c, 1, 53, 0
3, 65160, Note_on_c, 1, 50, 100
3, 65280, Note_on_c, 1, 50, 0
3, 65400, Note_on_c, 1, 53, 100
3, 65520, Note_on_c, 1, 53, 0
3, 65640, Note_on_c, 1, 57, 100
3, 65760, Note_on_c, 1, 57, 0
3, 65880, Note_on_c, 1, 60, 100
3, 66000, Note_on_c, 1, 60, 0
3, 66120, Note_on_c, 1, 64, 100
3, 66240, Note_on_c, 1, 64, 0
3, 66360, Note_on_c, 1, 69, 100
3, 66480, Note_on_c, 1, 69, 0
3, 66480, Note_on_c, 1, 71, 100
3, 66600, Note_on_c, 1, 71, 0
3, 66600, Note_on_c, 1, 73, 100
3, 66720, Note_on_c, 1, 73, 0
3, 66720, Note_on_c, 1, 74, 100
3, 66840, Note_on_c, 1, 74, 0
3, 66840, Note_on_c, 1, 76, 100
3, 66960, Note_on_c, 1, 76, 0
3, 66960, Note_on_c, 1, 78, 100
3, 67080, Note_on_c, 1, 78, 0
3, 67080, Note_on_c, 1, 79, 100
3, 67200, Note_on_c, 1, 79, 0
3, 67200, Note_on_c, 1, 81, 100
3, 67440, Note_on_c, 1, 81, 0
3, 67800, Note_on_c, 1, 74, 100
3, 67920, Note_on_c, 1, 74, 0
3, 67920, Note_on_c, 1, 72, 100
3, 68040, Note_on_c, 1, 72, 0
3, 68040, Note_on_c, 1, 71, 100
3, 68160, Note_on_c, 1, 71, 0
3, 68160, Note_on_c, 1, 69, 100
3, 68280, Note_on_c, 1, 69, 0
3, 68280, Note_on_c, 1, 67, 100
3, 68400, Note_on_c, 1, 67, 0
3, 68400, Note_on_c, 1, 66, 100
3, 68520, Note_on_c, 1, 66, 0
3, 68520, Note_on_c, 1, 64, 100
3, 68640, Note_on_c, 1, 64, 0
3, 68640, Note_on_c, 1, 62, 100
3, 68880, Note_on_c, 1, 62, 0
3, 69120, Note_on_c, 1, 81, 100
3, 69180, Note_on_c, 1, 81, 0
3, 69180, Note_on_c, 1, 79, 100
3, 69240, Note_on_c, 1, 79, 0
3, 69240, Note_on_c, 1, 81, 100
3, 69360, Note_on_c, 1, 81, 0
3, 69480, Note_on_c, 1, 79, 100
3, 69600, Note_on_c, 1, 79, 0
3, 69600, Note_on_c, 1, 79, 100
3, 69660, Note_on_c, 1, 79, 0
3, 69660, Note_on_c, 1, 78, 100
3, 69840, Note_on_c, 1, 78, 0
3, 69960, Note_on_c, 1, 76, 100
3, 70080, Note_on_c, 1, 76, 0
3, 70080, Note_on_c, 1, 76, 100
3, 70140, Note_on_c, 1, 76, 0
3, 70140, Note_on_c, 1, 74, 100
3, 70320, Note_on_c, 1, 74, 0
3, 70440, Note_on_c, 1, 72, 100
3, 70560, Note_on_c, 1, 72, 0
3, 70560, Note_on_c, 1, 72, 100
3, 70600, Note_on_c, 1, 72, 0
3, 70600, Note_on_c, 1, 71, 100
3, 70640, Note_on_c, 1, 71, 0
3, 70640, Note_on_c, 1, 72, 100
3, 70680, Note_on_c, 1, 72, 0
3, 70680, Note_on_c, 1, 71, 100
3, 70800, Note_on_c, 1, 71, 0
3, 70920, Note_on_c, 1, 69, 100
3, 71040, Note_on_c, 1, 69, 0
3, 71040, Note_on_c, 1, 69, 100
3, 71100, Note_on_c, 1, 69, 0
3, 71100, Note_on_c, 1, 67, 100
3, 71280, Note_on_c, 1, 67, 0
3, 71400, Note_on_c, 1, 66, 100
3, 71520, Note_on_c, 1, 66, 0
3, 71520, Note_on_c, 1, 66, 100
3, 71580, Note_on_c, 1, 66, 0
3, 71580, Note_on_c, 1, 64, 100
3, 71760, Note_on_c, 1, 64, 0
3, 71880, Note_on_c, 1, 62, 100
3, 72000, Note_on_c, 1, 62, 0
3, 72000, Note_on_c, 1, 62, 100
3, 72040, Note_on_c, 1, 62, 0
3, 72040, Note_on_c, 1, 60, 100
3, 72080, Note_on_c, 1, 60, 0
3, 72080, Note_on_c, 1, 62, 100
3, 72120, Note_on_c, 1, 62, 0
3, 72120, Note_on_c, 1, 60, 100
3, 72240, Note_on_c, 1, 60, 0
3, 72360, Note_on_c, 1, 59, 100
3, 72480, Note_on_c, 1, 59, 0
3, 72480, Note_on_c, 1, 59, 100
3, 72540, Note_on_c, 1, 59, 0
3, 72540, Note_on_c, 1, 57, 100
3, 72720, Note_on_c, 1, 57, 0
3, 72840, Note_on_c, 1, 55, 100
3, 72960, Note_on_c, 1, 55, 0
3, 72960, Note_on_c, 1, 55, 100
3, 73020, Note_on_c, 1, 55, 0
3, 73020, Note_on_c, 1, 54, 100
3, 73200, Note_on_c, 1, 54, 0
3, 73320, Note_on_c, 1, 52, 100
3, 73440, Note_on_c, 1, 52, 0
3, 73440, Note_on_c, 1, 52, 100
3, 73500, Note_on_c, 1, 52, 0
3, 73500, Note_on_c, 1, 51, 100
3, 73680, Note_on_c, 1, 51, 0
3, 73800, Note_on_c, 1, 54, 100
3, 73920, Note_on_c, 1, 54, 0
3, 73920, Note_on_c, 1, 57, 100
3, 74160, Note_on_c, 1, 57, 0
3, 74280, Note_on_c, 1, 60, 100
3, 74400, Note_on_c, 1, 60, 0
3, 74400, Note_on_c, 1, 60, 100
3, 74440, Note_on_c, 1, 60, 0
3, 74440, Note_on_c, 1, 59, 100
3, 74480, Note_on_c, 1, 59, 0
3, 74480, Note_on_c, 1, 60, 100
3, 74520, Note_on_c, 1, 60, 0
3, 74520, Note_on_c, 1, 59, 100
3, 74640, Note_on_c, 1, 59, 0
3, 74760, Note_on_c, 1, 57, 100
3, 74880, Note_on_c, 1, 57, 0
3, 74880, Note_on_c, 1, 55, 100
3, 75120, Note_on_c, 1, 55, 0
3, 75480, Note_on_c, 1, 75, 100
3, 75600, Note_on_c, 1, 75, 0
3, 75600, Note_on_c, 1, 76, 100
3, 75720, Note_on_c, 1, 76, 0
3, 75720, Note_on_c, 1, 78, 100
3, 75840, Note_on_c, 1, 78, 0
3, 75840, Note_on_c, 1, 79, 100
3, 75960, Note_on_c, 1, 79, 0
3, 75960, Note_on_c, 1, 80, 100
3, 76080, Note_on_c, 1, 80, 0
3, 76080, Note_on_c, 1, 81, 100
3, 76200, Note_on_c, 1, 81, 0
3, 76200, Note_on_c, 1, 83, 100
3, 76320, Note_on_c, 1, 83, 0
3, 76320, Note_on_c, 1, 84, 100
3, 76440, Note_on_c, 1, 84, 0
3, 76440, Note_on_c, 1, 81, 100
3, 76560, Note_on_c, 1, 81, 0
3, 76560, Note_on_c, 1, 79, 100
3, 76680, Note_on_c, 1, 79, 0
3, 76680, Note_on_c, 1, 77, 100
3, 76800, Note_on_c, 1, 77, 0
3, 76800, Note_on_c, 1, 76, 100
3, 76920, Note_on_c, 1, 76, 0
3, 76920, Note_on_c, 1, 74, 100
3, 77040, Note_on_c, 1, 74, 0
3, 77040, Note_on_c, 1, 72, 100
3, 77160, Note_on_c, 1, 72, 0
3, 77160, Note_on_c, 1, 71, 100
3, 77280, Note_on_c, 1, 71, 0
3, 77280, Note_on_c, 1, 69, 100
3, 77400, Note_on_c, 1, 69, 0
3, 77400, Note_on_c, 1, 67, 100
3, 77520, Note_on_c, 1, 67, 0
3, 77520, Note_on_c, 1, 66, 100
3, 77640, Note_on_c, 1, 66, 0
3, 77640, Note_on_c, 1, 64, 100
3, 77760, Note_on_c, 1, 64, 0
3, 77760, Note_on_c, 1, 63, 100
3, 77880, Note_on_c, 1, 63, 0
3, 77880, Note_on_c, 1, 72, 100
3, 78000, Note_on_c, 1, 72, 0
3, 78000, Note_on_c, 1, 71, 100
3, 78240, Note_on_c, 1, 71, 0
3, 78300, Note_on_c, 1, 71, 100
3, 78360, Note_on_c, 1, 71, 0
3, 78360, Note_on_c, 1, 73, 100
3, 78420, Note_on_c, 1, 73, 0
3, 78420, Note_on_c, 1, 75, 100
3, 78480, Note_on_c, 1, 75, 0
3, 78480, Note_on_c, 1, 76, 100
3, 78540, Note_on_c, 1, 76, 0
3, 78540, Note_on_c, 1, 78, 100
3, 78600, Note_on_c, 1, 78, 0
3, 78600, Note_on_c, 1, 79, 100
3, 78840, Note_on_c, 1, 79, 0
3, 78840, Note_on_c, 1, 78, 100
3, 78960, Note_on_c, 1, 78, 0
3, 78960, Note_on_c, 1, 78, 100
3, 78990, Note_on_c, 1, 78, 0
3, 78990, Note_on_c, 1, 76, 100
3, 79020, Note_on_c, 1, 76, 0
3, 79020, Note_on_c, 1, 78, 100
3, 79050, Note_on_c, 1, 78, 0
3, 79050, Note_on_c, 1, 76, 100
3, 79080, Note_on_c, 1, 76, 0
3, 79080, Note_on_c, 1, 75, 100
3, 79200, Note_on_c, 1, 75, 0
3, 79200, Note_on_c, 1, 76, 100
3, 79260, Note_on_c, 1, 76, 0
3, 79260, Note_on_c, 1, 72, 100
3, 79320, Note_on_c, 1, 72, 0
3, 79320, Note_on_c, 1, 71, 100
3, 79380, Note_on_c, 1, 71, 0
3, 79380, Note_on_c, 1, 69, 100
3, 79440, Note_on_c, 1, 69, 0
3, 79440, Note_on_c, 1, 71, 100
3, 79500, Note_on_c, 1, 71, 0
3, 79740, Note_on_c, 1, 66, 100
3, 79800, Note_on_c, 1, 66, 0
3, 79800, Note_on_c, 1, 64, 100
3, 79860, Note_on_c, 1, 64, 0
3, 79860, Note_on_c, 1, 63, 100
3, 79920, Note_on_c, 1, 63, 0
3, 79920, Note_on_c, 1, 64, 100
3, 79980, Note_on_c, 1, 64, 0
3, 80220, Note_on_c, 1, 57, 100
3, 80280, Note_on_c, 1, 57, 0
3, 80280, Note_on_c, 1, 55, 100
3, 80340, Note_on_c, 1, 55, 0
3, 80340, Note_on_c, 1, 54, 100
3, 80400, Note_on_c, 1, 54, 0
3, 80400, Note_on_c, 1, 55, 100
3, 80460, Note_on_c, 1, 55, 0
3, 80760, Note_on_c, 1, 60, 100
3, 80880, Note_on_c, 1, 60, 0
3, 80880, Note_on_c, 1, 62, 100
3, 81000, Note_on_c, 1, 62, 0
3, 81000, Note_on_c, 1, 64, 100
3, 81120, Note_on_c, 1, 64, 0
3, 81120, Note_on_c, 1, 65, 100
3, 81240, Note_on_c, 1, 65, 0
3, 81240, Note_on_c, 1, 67, 100
3, 81360, Note_on_c, 1, 67, 0
3, 81360, Note_on_c, 1, 69, 100
3, 81480, Note_on_c, 1, 69, 0
3, 81480, Note_on_c, 1, 71, 100
3, 81600, Note_on_c, 1, 71, 0
3, 81600, Note_on_c, 1, 72, 100
3, 81840, Note_on_c, 1, 72, 0
3, 82200, Note_on_c, 1, 71, 100
3, 82320, Note_on_c, 1, 71, 0
3, 82320, Note_on_c, 1, 69, 100
3, 82440, Note_on_c, 1, 69, 0
3, 82440, Note_on_c, 1, 67, 100
3, 82560, Note_on_c, 1, 67, 0
3, 82560, Note_on_c, 1, 66, 100
3, 82680, Note_on_c, 1, 66, 0
3, 82680, Note_on_c, 1, 64, 100
3, 82800, Note_on_c, 1, 64, 0
3, 82800, Note_on_c, 1, 62, 100
3, 82920, Note_on_c, 1, 62, 0
3, 82920, Note_on_c, 1, 60, 100
3, 83040, Note_on_c, 1, 60, 0
3, 83040, Note_on_c, 1, 59, 100
3, 83280, Note_on_c, 1, 59, 0
3, 83640, Note_on_c, 1, 59, 100
3, 83760, Note_on_c, 1, 59, 0
3, 83880, Note_on_c, 1, 56, 100
3, 84000, Note_on_c, 1, 56, 0
3, 84120, Note_on_c, 1, 59, 100
3, 84240, Note_on_c, 1, 59, 0
3, 84360, Note_on_c, 1, 55, 100
3, 84480, Note_on_c, 1, 55, 0
3, 84600, Note_on_c, 1, 55, 100
3, 84720, Note_on_c, 1, 55, 0
3, 84840, Note_on_c, 1, 52, 100
3, 84960, Note_on_c, 1, 52, 0
3, 85080, Note_on_c, 1, 52, 100
3, 85200, Note_on_c, 1, 52, 0
3, 85320, Note_on_c, 1, 49, 100
3, 85440, Note_on_c, 1, 49, 0
3, 85560, Note_on_c, 1, 52, 100
3, 85680, Note_on_c, 1, 52, 0
3, 85800, Note_on_c, 1, 48, 100
3, 85920, Note_on_c, 1, 48, 0
3, 86040, Note_on_c, 1, 48, 100
3, 86160, Note_on_c, 1, 48, 0
3, 86280, Note_on_c, 1, 45, 100
3, 86400, Note_on_c, 1, 45, 0
3, 86520, Note_on_c, 1, 45, 100
3, 86640, Note_on_c, 1, 45, 0
3, 86760, Note_on_c, 1, 42, 100
3, 86880, Note_on_c, 1, 42, 0
3, 87000, Note_on_c, 1, 45, 100
3, 87120, Note_on_c, 1, 45, 0
3, 87240, Note_on_c, 1, 48, 100
3, 87360, Note_on_c, 1, 48, 0
3, 87480, Note_on_c, 1, 52, 100
3, 87600, Note_on_c, 1, 52, 0
3, 87720, Note_on_c, 1, 55, 100
3, 87840, Note_on_c, 1, 55, 0
3, 87960, Note_on_c, 1, 53, 100
3, 88080, Note_on_c, 1, 53, 0
3, 88200, Note_on_c, 1, 50, 100
3, 88320, Note_on_c, 1, 50, 0
3, 88440, Note_on_c, 1, 53, 100
3, 88560, Note_on_c, 1, 53, 0
3, 88680, Note_on_c, 1, 57, 100
3, 88800, Note_on_c, 1, 57, 0
3, 88920, Note_on_c, 1, 60, 100
3, 89040, Note_on_c, 1, 60, 0
3, 89160, Note_on_c, 1, 64, 100
3, 89280, Note_on_c, 1, 64, 0
3, 89400, Note_on_c, 1, 69, 100
3, 89520, Note_on_c, 1, 69, 0
3, 89520, Note_on_c, 1, 71, 100
3, 89640, Note_on_c, 1, 71, 0
3, 89640, Note_on_c, 1, 73, 100
3, 89760, Note_on_c, 1, 73, 0
3, 89760, Note_on_c, 1, 74, 100
3, 89880, Note_on_c, 1, 74, 0
3, 89880, Note_on_c, 1, 76, 100
3, 90000, Note_on_c, 1, 76, 0
3, 90000, Note_on_c, 1, 78, 100
3, 90120, Note_on_c, 1, 78, 0
3, 90120, Note_on_c, 1, 79, 100
3, 90240, Note_on_c, 1, 79, 0
3, 90240, Note_on_c, 1, 81, 100
3, 90480, Note_on_c, 1, 81, 0
3, 90840, Note_on_c, 1, 74, 100
3, 90960, Note_on_c, 1, 74, 0
3, 90960, Note_on_c, 1, 72, 100
3, 91080, Note_on_c, 1, 72, 0
3, 91080, Note_on_c, 1, 71, 100
3, 91200, Note_on_c, 1, 71, 0
3, 91200, Note_on_c, 1, 69, 100
3, 91320, Note_on_c, 1, 69, 0
3, 91320, Note_on_c, 1, 67, 100
3, 91440, Note_on_c, 1, 67, 0
3, 91440, Note_on_c, 1, 66, 100
3, 91560, Note_on_c, 1, 66, 0
3, 91560, Note_on_c, 1, 64, 100
3, 91680, Note_on_c, 1, 64, 0
3, 91680, Note_on_c, 1, 62, 100
3, 91920, Note_on_c, 1, 62, 0
3, 91920, End_track
4, 0, Start_track
4, 0, MIDI_port, 0
4, 0, Title_t, "Johann Sebastian Bach  (1685-1750)"
4, 0, Program_c, 2, 6
4, 0, Control_c, 2, 7, 100
4, 0, Control_c, 2, 10, 59
4, 0, Note_on_c, 2, 67, 100
4, 240, Note_on_c, 2, 67, 0
4, 240, Note_on_c, 2, 83, 100
4, 360, Note_on_c, 2, 83, 0
4, 360, Note_on_c, 2, 81, 100
4, 480, Note_on_c, 2, 81, 0
4, 480, Note_on_c, 2, 79, 100
4, 600, Note_on_c, 2, 79, 0
4, 600, Note_on_c, 2, 78, 100
4, 720, Note_on_c, 2, 78, 0
4, 720, Note_on_c, 2, 76, 100
4, 840, Note_on_c, 2, 76, 0
4, 840, Note_on_c, 2, 74, 100
4, 960, Note_on_c, 2, 74, 0
4, 960, Note_on_c, 2, 73, 100
4, 1080, Note_on_c, 2, 73, 0
4, 1080, Note_on_c, 2, 71, 100
4, 1200, Note_on_c, 2, 71, 0
4, 1200, Note_on_c, 2, 69, 100
4, 1320, Note_on_c, 2, 69, 0
4, 1320, Note_on_c, 2, 67, 100
4, 1440, Note_on_c, 2, 67, 0
4, 1440, Note_on_c, 2, 66, 100
4, 1680, Note_on_c, 2, 66, 0
4, 1680, Note_on_c, 2, 81, 100
4, 1800, Note_on_c, 2, 81, 0
4, 1800, Note_on_c, 2, 79, 100
4, 1920, Note_on_c, 2, 79, 0
4, 1920, Note_on_c, 2, 78, 100
4, 2040, Note_on_c, 2, 78, 0
4, 2040, Note_on_c, 2, 76, 100
4, 2160, Note_on_c, 2, 76, 0
4, 2160, Note_on_c, 2, 74, 100
4, 2280, Note_on_c, 2, 74, 0
4, 2280, Note_on_c, 2, 73, 100
4, 2400, Note_on_c, 2, 73, 0
4, 2400, Note_on_c, 2, 71, 100
4, 2520, Note_on_c, 2, 71, 0
4, 2520, Note_on_c, 2, 69, 100
4, 2640, Note_on_c, 2, 69, 0
4, 2640, Note_on_c, 2, 67, 100
4, 2760, Note_on_c, 2, 67, 0
4, 2760, Note_on_c, 2, 66, 100
4, 2880, Note_on_c, 2, 66, 0
4, 2880, Note_on_c, 2, 64, 100
4, 3120, Note_on_c, 2, 64, 0
4, 3120, Note_on_c, 2, 79, 100
4, 3240, Note_on_c, 2, 79, 0
4, 3240, Note_on_c, 2, 78, 100
4, 3360, Note_on_c, 2, 78, 0
4, 3360, Note_on_c, 2, 76, 100
4, 3480, Note_on_c, 2, 76, 0
4, 3480, Note_on_c, 2, 74, 100
4, 3600, Note_on_c, 2, 74, 0
4, 3600, Note_on_c, 2, 73, 100
4, 3720, Note_on_c, 2, 73, 0
4, 3720, Note_on_c, 2, 71, 100
4, 3840, Note_on_c, 2, 71, 0
4, 3840, Note_on_c, 2, 69, 100
4, 3960, Note_on_c, 2, 69, 0
4, 3960, Note_on_c, 2, 67, 100
4, 4080, Note_on_c, 2, 67, 0
4, 4080, Note_on_c, 2, 66, 100
4, 4200, Note_on_c, 2, 66, 0
4, 4200, Note_on_c, 2, 64, 100
4, 4320, Note_on_c, 2, 64, 0
4, 4320, Note_on_c, 2, 62, 100
4, 4560, Note_on_c, 2, 62, 0
4, 4680, Note_on_c, 2, 60, 100
4, 4740, Note_on_c, 2, 60, 0
4, 4740, Note_on_c, 2, 59, 100
4, 4800, Note_on_c, 2, 59, 0
4, 4800, Note_on_c, 2, 57, 100
4, 4860, Note_on_c, 2, 57, 0
4, 4860, Note_on_c, 2, 55, 100
4, 4920, Note_on_c, 2, 55, 0
4, 4920, Note_on_c, 2, 54, 100
4, 4980, Note_on_c, 2, 54, 0
4, 4980, Note_on_c, 2, 52, 100
4, 5040, Note_on_c, 2, 52, 0
4, 5040, Note_on_c, 2, 50, 100
4, 5280, Note_on_c, 2, 50, 0
4, 5640, Note_on_c, 2, 48, 100
4, 5760, Note_on_c, 2, 48, 0
4, 5760, Note_on_c, 2, 47, 100
4, 6000, Note_on_c, 2, 47, 0
4, 6240, Note_on_c, 2, 59, 100
4, 6360, Note_on_c, 2, 59, 0
4, 6360, Note_on_c, 2, 60, 100
4, 6480, Note_on_c, 2, 60, 0
4, 6480, Note_on_c, 2, 62, 100
4, 6600, Note_on_c, 2, 62, 0
4, 6600, Note_on_c, 2, 64, 100
4, 6720, Note_on_c, 2, 64, 0
4, 6720, Note_on_c, 2, 66, 100
4, 6840, Note_on_c, 2, 66, 0
4, 6840, Note_on_c, 2, 67, 100
4, 6960, Note_on_c, 2, 67, 0
4, 6960, Note_on_c, 2, 69, 100
4, 7080, Note_on_c, 2, 69, 0
4, 7080, Note_on_c, 2, 71, 100
4, 7200, Note_on_c, 2, 71, 0
4, 7200, Note_on_c, 2, 72, 100
4, 7320, Note_on_c, 2, 72, 0
4, 7320, Note_on_c, 2, 74, 100
4, 7440, Note_on_c, 2, 74, 0
4, 7440, Note_on_c, 2, 76, 100
4, 7680, Note_on_c, 2, 76, 0
4, 7680, Note_on_c, 2, 60, 100
4, 7800, Note_on_c, 2, 60, 0
4, 7800, Note_on_c, 2, 62, 100
4, 7920, Note_on_c, 2, 62, 0
4, 7920, Note_on_c, 2, 64, 100
4, 8040, Note_on_c, 2, 64, 0
4, 8040, Note_on_c, 2, 66, 100
4, 8160, Note_on_c, 2, 66, 0
4, 8160, Note_on_c, 2, 67, 100
4, 8280, Note_on_c, 2, 67, 0
4, 8280, Note_on_c, 2, 69, 100
4, 8400, Note_on_c, 2, 69, 0
4, 8400, Note_on_c, 2, 71, 100
4, 8520, Note_on_c, 2, 71, 0
4, 8520, Note_on_c, 2, 72, 100
4, 8640, Note_on_c, 2, 72, 0
4, 8640, Note_on_c, 2, 74, 100
4, 8760, Note_on_c, 2, 74, 0
4, 8760, Note_on_c, 2, 76, 100
4, 8880, Note_on_c, 2, 76, 0
4, 8880, Note_on_c, 2, 78, 100
4, 9120, Note_on_c, 2, 78, 0
4, 9120, Note_on_c, 2, 62, 100
4, 9240, Note_on_c, 2, 62, 0
4, 9240, Note_on_c, 2, 64, 100
4, 9360, Note_on_c, 2, 64, 0
4, 9360, Note_on_c, 2, 66, 100
4, 9480, Note_on_c, 2, 66, 0
4, 9480, Note_on_c, 2, 67, 100
4, 9600, Note_on_c, 2, 67, 0
4, 9600, Note_on_c, 2, 69, 100
4, 9720, Note_on_c, 2, 69, 0
4, 9720, Note_on_c, 2, 71, 100
4, 9840, Note_on_c, 2, 71, 0
4, 9840, Note_on_c, 2, 72, 100
4, 9960, Note_on_c, 2, 72, 0
4, 9960, Note_on_c, 2, 69, 100
4, 10080, Note_on_c, 2, 69, 0
4, 10080, Note_on_c, 2, 71, 100
4, 10140, Note_on_c, 2, 71, 0
4, 10140, Note_on_c, 2, 67, 100
4, 10200, Note_on_c, 2, 67, 0
4, 10200, Note_on_c, 2, 69, 100
4, 10260, Note_on_c, 2, 69, 0
4, 10260, Note_on_c, 2, 71, 100
4, 10320, Note_on_c, 2, 71, 0
4, 10320, Note_on_c, 2, 72, 100
4, 10380, Note_on_c, 2, 72, 0
4, 10380, Note_on_c, 2, 74, 100
4, 10440, Note_on_c, 2, 74, 0
4, 10440, Note_on_c, 2, 76, 100
4, 10500, Note_on_c, 2, 76, 0
4, 10500, Note_on_c, 2, 78, 100
4, 10560, Note_on_c, 2, 78, 0
4, 10560, Note_on_c, 2, 79, 100
4, 10680, Note_on_c, 2, 79, 0
4, 11160, Note_on_c, 2, 66, 100
4, 11220, Note_on_c, 2, 66, 0
4, 11220, Note_on_c, 2, 64, 100
4, 11280, Note_on_c, 2, 64, 0
4, 11280, Note_on_c, 2, 62, 100
4, 11340, Note_on_c, 2, 62, 0
4, 11340, Note_on_c, 2, 60, 100
4, 11400, Note_on_c, 2, 60, 0
4, 11400, Note_on_c, 2, 59, 100
4, 11460, Note_on_c, 2, 59, 0
4, 11460, Note_on_c, 2, 57, 100
4, 11520, Note_on_c, 2, 57, 0
4, 11520, Note_on_c, 2, 55, 100
4, 11760, Note_on_c, 2, 55, 0
4, 11880, Note_on_c, 2, 57, 100
4, 12000, Note_on_c, 2, 57, 0
4, 12000, Note_on_c, 2, 59, 100
4, 12060, Note_on_c, 2, 59, 0
4, 12060, Note_on_c, 2, 57, 100
4, 12120, Note_on_c, 2, 57, 0
4, 12120, Note_on_c, 2, 59, 100
4, 12240, Note_on_c, 2, 59, 0
4, 12360, Note_on_c, 2, 60, 100
4, 12480, Note_on_c, 2, 60, 0
4, 12480, Note_on_c, 2, 62, 100
4, 12540, Note_on_c, 2, 62, 0
4, 12540, Note_on_c, 2, 60, 100
4, 12600, Note_on_c, 2, 60, 0
4, 12600, Note_on_c, 2, 62, 100
4, 12720, Note_on_c, 2, 62, 0
4, 12840, Note_on_c, 2, 64, 100
4, 12960, Note_on_c, 2, 64, 0
4, 12960, Note_on_c, 2, 66, 100
4, 13020, Note_on_c, 2, 66, 0
4, 13020, Note_on_c, 2, 64, 100
4, 13080, Note_on_c, 2, 64, 0
4, 13080, Note_on_c, 2, 66, 100
4, 13200, Note_on_c, 2, 66, 0
4, 13320, Note_on_c, 2, 67, 100
4, 13440, Note_on_c, 2, 67, 0
4, 13440, Note_on_c, 2, 69, 100
4, 13500, Note_on_c, 2, 69, 0
4, 13500, Note_on_c, 2, 67, 100
4, 13560, Note_on_c, 2, 67, 0
4, 13560, Note_on_c, 2, 69, 100
4, 13680, Note_on_c, 2, 69, 0
4, 13800, Note_on_c, 2, 71, 100
4, 13920, Note_on_c, 2, 71, 0
4, 13920, Note_on_c, 2, 73, 100
4, 13980, Note_on_c, 2, 73, 0
4, 13980, Note_on_c, 2, 71, 100
4, 14040, Note_on_c, 2, 71, 0
4, 14040, Note_on_c, 2, 73, 100
4, 14160, Note_on_c, 2, 73, 0
4, 14280, Note_on_c, 2, 74, 100
4, 14400, Note_on_c, 2, 74, 0
4, 14400, Note_on_c, 2, 76, 100
4, 14460, Note_on_c, 2, 76, 0
4, 14460, Note_on_c, 2, 74, 100
4, 14520, Note_on_c, 2, 74, 0
4, 14520, Note_on_c, 2, 76, 100
4, 14640, Note_on_c, 2, 76, 0
4, 14760, Note_on_c, 2, 78, 100
4, 14880, Note_on_c, 2, 78, 0
4, 14880, Note_on_c, 2, 79, 100
4, 14940, Note_on_c, 2, 79, 0
4, 14940, Note_on_c, 2, 78, 100
4, 15000, Note_on_c, 2, 78, 0
4, 15000, Note_on_c, 2, 79, 100
4, 15120, Note_on_c, 2, 79, 0
4, 15240, Note_on_c, 2, 81, 100
4, 15360, Note_on_c, 2, 81, 0
4, 15360, Note_on_c, 2, 83, 100
4, 15420, Note_on_c, 2, 83, 0
4, 15420, Note_on_c, 2, 81, 100
4, 15480, Note_on_c, 2, 81, 0
4, 15480, Note_on_c, 2, 83, 100
4, 15600, Note_on_c, 2, 83, 0
4, 15720, Note_on_c, 2, 74, 100
4, 15840, Note_on_c, 2, 74, 0
4, 15840, Note_on_c, 2, 73, 100
4, 16080, Note_on_c, 2, 73, 0
4, 16200, Note_on_c, 2, 76, 100
4, 16320, Note_on_c, 2, 76, 0
4, 16320, Note_on_c, 2, 67, 100
4, 16560, Note_on_c, 2, 67, 0
4, 16680, Note_on_c, 2, 71, 100
4, 16800, Note_on_c, 2, 71, 0
4, 16800, Note_on_c, 2, 71, 100
4, 16840, Note_on_c, 2, 71, 0
4, 16840, Note_on_c, 2, 69, 100
4, 16880, Note_on_c, 2, 69, 0
4, 16880, Note_on_c, 2, 71, 100
4, 16920, Note_on_c, 2, 71, 0
4, 16920, Note_on_c, 2, 69, 100
4, 17040, Note_on_c, 2, 69, 0
4, 17160, Note_on_c, 2, 67, 100
4, 17280, Note_on_c, 2, 67, 0
4, 17280, Note_on_c, 2, 67, 100
4, 17320, Note_on_c, 2, 67, 0
4, 17320, Note_on_c, 2, 66, 100
4, 17360, Note_on_c, 2, 66, 0
4, 17360, Note_on_c, 2, 67, 100
4, 17400, Note_on_c, 2, 67, 0
4, 17400, Note_on_c, 2, 66, 100
4, 17520, Note_on_c, 2, 66, 0
4, 17640, Note_on_c, 2, 57, 100
4, 17760, Note_on_c, 2, 57, 0
4, 17760, Note_on_c, 2, 69, 100
4, 17880, Note_on_c, 2, 69, 0
4, 17880, Note_on_c, 2, 67, 100
4, 18000, Note_on_c, 2, 67, 0
4, 18000, Note_on_c, 2, 66, 100
4, 18120, Note_on_c, 2, 66, 0
4, 18120, Note_on_c, 2, 64, 100
4, 18240, Note_on_c, 2, 64, 0
4, 18240, Note_on_c, 2, 62, 100
4, 18360, Note_on_c, 2, 62, 0
4, 18360, Note_on_c, 2, 60, 100
4, 18480, Note_on_c, 2, 60, 0
4, 18480, Note_on_c, 2, 59, 100
4, 18600, Note_on_c, 2, 59, 0
4, 18600, Note_on_c, 2, 57, 100
4, 18720, Note_on_c, 2, 57, 0
4, 18720, Note_on_c, 2, 55, 100
4, 18840, Note_on_c, 2, 55, 0
4, 18840, Note_on_c, 2, 59, 100
4, 18960, Note_on_c, 2, 59, 0
4, 18960, Note_on_c, 2, 62, 100
4, 19080, Note_on_c, 2, 62, 0
4, 19080, Note_on_c, 2, 60, 100
4, 19200, Note_on_c, 2, 60, 0
4, 19200, Note_on_c, 2, 59, 100
4, 19320, Note_on_c, 2, 59, 0
4, 19320, Note_on_c, 2, 57, 100
4, 19440, Note_on_c, 2, 57, 0
4, 19440, Note_on_c, 2, 55, 100
4, 19560, Note_on_c, 2, 55, 0
4, 19560, Note_on_c, 2, 54, 100
4, 19680, Note_on_c, 2, 54, 0
4, 19680, Note_on_c, 2, 52, 100
4, 19800, Note_on_c, 2, 52, 0
4, 19800, Note_on_c, 2, 50, 100
4, 19920, Note_on_c, 2, 50, 0
4, 19920, Note_on_c, 2, 49, 100
4, 20040, Note_on_c, 2, 49, 0
4, 20040, Note_on_c, 2, 47, 100
4, 20160, Note_on_c, 2, 47, 0
4, 20160, Note_on_c, 2, 45, 100
4, 20280, Note_on_c, 2, 45, 0
4, 20280, Note_on_c, 2, 52, 100
4, 20400, Note_on_c, 2, 52, 0
4, 20400, Note_on_c, 2, 55, 100
4, 20520, Note_on_c, 2, 55, 0
4, 20520, Note_on_c, 2, 54, 100
4, 20640, Note_on_c, 2, 54, 0
4, 20640, Note_on_c, 2, 52, 100
4, 20760, Note_on_c, 2, 52, 0
4, 20760, Note_on_c, 2, 50, 100
4, 20880, Note_on_c, 2, 50, 0
4, 20880, Note_on_c, 2, 49, 100
4, 21000, Note_on_c, 2, 49, 0
4, 21000, Note_on_c, 2, 47, 100
4, 21120, Note_on_c, 2, 47, 0
4, 21120, Note_on_c, 2, 45, 100
4, 21240, Note_on_c, 2, 45, 0
4, 21240, Note_on_c, 2, 43, 100
4, 21360, Note_on_c, 2, 43, 0
4, 21360, Note_on_c, 2, 42, 100
4, 21480, Note_on_c, 2, 42, 0
4, 21480, Note_on_c, 2, 40, 100
4, 21600, Note_on_c, 2, 40, 0
4, 21600, Note_on_c, 2, 38, 100
4, 22200, Note_on_c, 2, 38, 0
4, 22200, Note_on_c, 2, 40, 100
4, 22260, Note_on_c, 2, 40, 0
4, 22260, Note_on_c, 2, 42, 100
4, 22320, Note_on_c, 2, 42, 0
4, 22320, Note_on_c, 2, 43, 100
4, 22380, Note_on_c, 2, 43, 0
4, 22380, Note_on_c, 2, 45, 100
4, 22440, Note_on_c, 2, 45, 0
4, 22440, Note_on_c, 2, 47, 100
4, 22500, Note_on_c, 2, 47, 0
4, 22500, Note_on_c, 2, 49, 100
4, 22560, Note_on_c, 2, 49, 0
4, 22560, Note_on_c, 2, 50, 100
4, 22800, Note_on_c, 2, 50, 0
4, 23040, Note_on_c, 2, 67, 100
4, 23280, Note_on_c, 2, 67, 0
4, 23280, Note_on_c, 2, 83, 100
4, 23400, Note_on_c, 2, 83, 0
4, 23400, Note_on_c, 2, 81, 100
4, 23520, Note_on_c, 2, 81, 0
4, 23520, Note_on_c, 2, 79, 100
4, 23640, Note_on_c, 2, 79, 0
4, 23640, Note_on_c, 2, 78, 100
4, 23760, Note_on_c, 2, 78, 0
4, 23760, Note_on_c, 2, 76, 100
4, 23880, Note_on_c, 2, 76, 0
4, 23880, Note_on_c, 2, 74, 100
4, 24000, Note_on_c, 2, 74, 0
4, 24000, Note_on_c, 2, 73, 100
4, 24120, Note_on_c, 2, 73, 0
4, 24120, Note_on_c, 2, 71, 100
4, 24240, Note_on_c, 2, 71, 0
4, 24240, Note_on_c, 2, 69, 100
4, 24360, Note_on_c, 2, 69, 0
4, 24360, Note_on_c, 2, 67, 100
4, 24480, Note_on_c, 2, 67, 0
4, 24480, Note_on_c, 2, 66, 100
4, 24720, Note_on_c, 2, 66, 0
4, 24720, Note_on_c, 2, 81, 100
4, 24840, Note_on_c, 2, 81, 0
4, 24840, Note_on_c, 2, 79, 100
4, 24960, Note_on_c, 2, 79, 0
4, 24960, Note_on_c, 2, 78, 100
4, 25080, Note_on_c, 2, 78, 0
4, 25080, Note_on_c, 2, 76, 100
4, 25200, Note_on_c, 2, 76, 0
4, 25200, Note_on_c, 2, 74, 100
4, 25320, Note_on_c, 2, 74, 0
4, 25320, Note_on_c, 2, 73, 100
4, 25440, Note_on_c, 2, 73, 0
4, 25440, Note_on_c, 2, 71, 100
4, 25560, Note_on_c, 2, 71, 0
4, 25560, Note_on_c, 2, 69, 100
4, 25680, Note_on_c, 2, 69, 0
4, 25680, Note_on_c, 2, 67, 100
4, 25800, Note_on_c, 2, 67, 0
4, 25800, Note_on_c, 2, 66, 100
4, 25920, Note_on_c, 2, 66, 0
4, 25920, Note_on_c, 2, 64, 100
4, 26160, Note_on_c, 2, 64, 0
4, 26160, Note_on_c, 2, 79, 100
4, 26280, Note_on_c, 2, 79, 0
4, 26280, Note_on_c, 2, 78, 100
4, 26400, Note_on_c, 2, 78, 0
4, 26400, Note_on_c, 2, 76, 100
4, 26520, Note_on_c, 2, 76, 0
4, 26520, Note_on_c, 2, 74, 100
4, 26640, Note_on_c, 2, 74, 0
4, 26640, Note_on_c, 2, 73, 100
4, 26760, Note_on_c, 2, 73, 0
4, 26760, Note_on_c, 2, 71, 100
4, 26880, Note_on_c, 2, 71, 0
4, 26880, Note_on_c, 2, 69, 100
4, 27000, Note_on_c, 2, 69, 0
4, 27000, Note_on_c, 2, 67, 100
4, 27120, Note_on_c, 2, 67, 0
4, 27120, Note_on_c, 2, 66, 100
4, 27240, Note_on_c, 2, 66, 0
4, 27240, Note_on_c, 2, 64, 100
4, 27360, Note_on_c, 2, 64, 0
4, 27360, Note_on_c, 2, 62, 100
4, 27600, Note_on_c, 2, 62, 0
4, 27720, Note_on_c, 2, 60, 100
4, 27780, Note_on_c, 2, 60, 0
4, 27780, Note_on_c, 2, 59, 100
4, 27840, Note_on_c, 2, 59, 0
4, 27840, Note_on_c, 2, 57, 100
4, 27900, Note_on_c, 2, 57, 0
4, 27900, Note_on_c, 2, 55, 100
4, 27960, Note_on_c, 2, 55, 0
4, 27960, Note_on_c, 2, 54, 100
4, 28020, Note_on_c, 2, 54, 0
4, 28020, Note_on_c, 2, 52, 100
4, 28080, Note_on_c, 2, 52, 0
4, 28080, Note_on_c, 2, 50, 100
4, 28320, Note_on_c, 2, 50, 0
4, 28680, Note_on_c, 2, 48, 100
4, 28800, Note_on_c, 2, 48, 0
4, 28800, Note_on_c, 2, 47, 100
4, 29040, Note_on_c, 2, 47, 0
4, 29280, Note_on_c, 2, 59, 100
4, 29400, Note_on_c, 2, 59, 0
4, 29400, Note_on_c, 2, 60, 100
4, 29520, Note_on_c, 2, 60, 0
4, 29520, Note_on_c, 2, 62, 100
4, 29640, Note_on_c, 2, 62, 0
4, 29640, Note_on_c, 2, 64, 100
4, 29760, Note_on_c, 2, 64, 0
4, 29760, Note_on_c, 2, 66, 100
4, 29880, Note_on_c, 2, 66, 0
4, 29880, Note_on_c, 2, 67, 100
4, 30000, Note_on_c, 2, 67, 0
4, 30000, Note_on_c, 2, 69, 100
4, 30120, Note_on_c, 2, 69, 0
4, 30120, Note_on_c, 2, 71, 100
4, 30240, Note_on_c, 2, 71, 0
4, 30240, Note_on_c, 2, 72, 100
4, 30360, Note_on_c, 2, 72, 0
4, 30360, Note_on_c, 2, 74, 100
4, 30480, Note_on_c, 2, 74, 0
4, 30480, Note_on_c, 2, 76, 100
4, 30720, Note_on_c, 2, 76, 0
4, 30720, Note_on_c, 2, 60, 100
4, 30840, Note_on_c, 2, 60, 0
4, 30840, Note_on_c, 2, 62, 100
4, 30960, Note_on_c, 2, 62, 0
4, 30960, Note_on_c, 2, 64, 100
4, 31080, Note_on_c, 2, 64, 0
4, 31080, Note_on_c, 2, 66, 100
4, 31200, Note_on_c, 2, 66, 0
4, 31200, Note_on_c, 2, 67, 100
4, 31320, Note_on_c, 2, 67, 0
4, 31320, Note_on_c, 2, 69, 100
4, 31440, Note_on_c, 2, 69, 0
4, 31440, Note_on_c, 2, 71, 100
4, 31560, Note_on_c, 2, 71, 0
4, 31560, Note_on_c, 2, 72, 100
4, 31680, Note_on_c, 2, 72, 0
4, 31680, Note_on_c, 2, 74, 100
4, 31800, Note_on_c, 2, 74, 0
4, 31800, Note_on_c, 2, 76, 100
4, 31920, Note_on_c, 2, 76, 0
4, 31920, Note_on_c, 2, 78, 100
4, 32160, Note_on_c, 2, 78, 0
4, 32160, Note_on_c, 2, 62, 100
4, 32280, Note_on_c, 2, 62, 0
4, 32280, Note_on_c, 2, 64, 100
4, 32400, Note_on_c, 2, 64, 0
4, 32400, Note_on_c, 2, 66, 100
4, 32520, Note_on_c, 2, 66, 0
4, 32520, Note_on_c, 2, 67, 100
4, 32640, Note_on_c, 2, 67, 0
4, 32640, Note_on_c, 2, 69, 100
4, 32760, Note_on_c, 2, 69, 0
4, 32760, Note_on_c, 2, 71, 100
4, 32880, Note_on_c, 2, 71, 0
4, 32880, Note_on_c, 2, 72, 100
4, 33000, Note_on_c, 2, 72, 0
4, 33000, Note_on_c, 2, 69, 100
4, 33120, Note_on_c, 2, 69, 0
4, 33120, Note_on_c, 2, 71, 100
4, 33180, Note_on_c, 2, 71, 0
4, 33180, Note_on_c, 2, 67, 100
4, 33240, Note_on_c, 2, 67, 0
4, 33240, Note_on_c, 2, 69, 100
4, 33300, Note_on_c, 2, 69, 0
4, 33300, Note_on_c, 2, 71, 100
4, 33360, Note_on_c, 2, 71, 0
4, 33360, Note_on_c, 2, 72, 100
4, 33420, Note_on_c, 2, 72, 0
4, 33420, Note_on_c, 2, 74, 100
4, 33480, Note_on_c, 2, 74, 0
4, 33480, Note_on_c, 2, 76, 100
4, 33540, Note_on_c, 2, 76, 0
4, 33540, Note_on_c, 2, 78, 100
4, 33600, Note_on_c, 2, 78, 0
4, 33600, Note_on_c, 2, 79, 100
4, 33720, Note_on_c, 2, 79, 0
4, 34200, Note_on_c, 2, 66, 100
4, 34260, Note_on_c, 2, 66, 0
4, 34260, Note_on_c, 2, 64, 100
4, 34320, Note_on_c, 2, 64, 0
4, 34320, Note_on_c, 2, 62, 100
4, 34380, Note_on_c, 2, 62, 0
4, 34380, Note_on_c, 2, 60, 100
4, 34440, Note_on_c, 2, 60, 0
4, 34440, Note_on_c, 2, 59, 100
4, 34500, Note_on_c, 2, 59, 0
4, 34500, Note_on_c, 2, 57, 100
4, 34560, Note_on_c, 2, 57, 0
4, 34560, Note_on_c, 2, 55, 100
4, 34800, Note_on_c, 2, 55, 0
4, 34920, Note_on_c, 2, 57, 100
4, 35040, Note_on_c, 2, 57, 0
4, 35040, Note_on_c, 2, 59, 100
4, 35100, Note_on_c, 2, 59, 0
4, 35100, Note_on_c, 2, 57, 100
4, 35160, Note_on_c, 2, 57, 0
4, 35160, Note_on_c, 2, 59, 100
4, 35280, Note_on_c, 2, 59, 0
4, 35400, Note_on_c, 2, 60, 100
4, 35520, Note_on_c, 2, 60, 0
4, 35520, Note_on_c, 2, 62, 100
4, 35580, Note_on_c, 2, 62, 0
4, 35580, Note_on_c, 2, 60, 100
4, 35640, Note_on_c, 2, 60, 0
4, 35640, Note_on_c, 2, 62, 100
4, 35760, Note_on_c, 2, 62, 0
4, 35880, Note_on_c, 2, 64, 100
4, 36000, Note_on_c, 2, 64, 0
4, 36000, Note_on_c, 2, 66, 100
4, 36060, Note_on_c, 2, 66, 0
4, 36060, Note_on_c, 2, 64, 100
4, 36120, Note_on_c, 2, 64, 0
4, 36120, Note_on_c, 2, 66, 100
4, 36240, Note_on_c, 2, 66, 0
4, 36360, Note_on_c, 2, 67, 100
4, 36480, Note_on_c, 2, 67, 0
4, 36480, Note_on_c, 2, 69, 100
4, 36540, Note_on_c, 2, 69, 0
4, 36540, Note_on_c, 2, 67, 100
4, 36600, Note_on_c, 2, 67, 0
4, 36600, Note_on_c, 2, 69, 100
4, 36720, Note_on_c, 2, 69, 0
4, 36840, Note_on_c, 2, 71, 100
4, 36960, Note_on_c, 2, 71, 0
4, 36960, Note_on_c, 2, 73, 100
4, 37020, Note_on_c, 2, 73, 0
4, 37020, Note_on_c, 2, 71, 100
4, 37080, Note_on_c, 2, 71, 0
4, 37080, Note_on_c, 2, 73, 100
4, 37200, Note_on_c, 2, 73, 0
4, 37320, Note_on_c, 2, 74, 100
4, 37440, Note_on_c, 2, 74, 0
4, 37440, Note_on_c, 2, 76, 100
4, 37500, Note_on_c, 2, 76, 0
4, 37500, Note_on_c, 2, 74, 100
4, 37560, Note_on_c, 2, 74, 0
4, 37560, Note_on_c, 2, 76, 100
4, 37680, Note_on_c, 2, 76, 0
4, 37800, Note_on_c, 2, 78, 100
4, 37920, Note_on_c, 2, 78, 0
4, 37920, Note_on_c, 2, 79, 100
4, 37980, Note_on_c, 2, 79, 0
4, 37980, Note_on_c, 2, 78, 100
4, 38040, Note_on_c, 2, 78, 0
4, 38040, Note_on_c, 2, 79, 100
4, 38160, Note_on_c, 2, 79, 0
4, 38280, Note_on_c, 2, 81, 100
4, 38400, Note_on_c, 2, 81, 0
4, 38400, Note_on_c, 2, 83, 100
4, 38460, Note_on_c, 2, 83, 0
4, 38460, Note_on_c, 2, 81, 100
4, 38520, Note_on_c, 2, 81, 0
4, 38520, Note_on_c, 2, 83, 100
4, 38640, Note_on_c, 2, 83, 0
4, 38760, Note_on_c, 2, 74, 100
4, 38880, Note_on_c, 2, 74, 0
4, 38880, Note_on_c, 2, 73, 100
4, 39120, Note_on_c, 2, 73, 0
4, 39240, Note_on_c, 2, 76, 100
4, 39360, Note_on_c, 2, 76, 0
4, 39360, Note_on_c, 2, 67, 100
4, 39600, Note_on_c, 2, 67, 0
4, 39720, Note_on_c, 2, 71, 100
4, 39840, Note_on_c, 2, 71, 0
4, 39840, Note_on_c, 2, 71, 100
4, 39880, Note_on_c, 2, 71, 0
4, 39880, Note_on_c, 2, 69, 100
4, 39920, Note_on_c, 2, 69, 0
4, 39920, Note_on_c, 2, 71, 100
4, 39960, Note_on_c, 2, 71, 0
4, 39960, Note_on_c, 2, 69, 100
4, 40080, Note_on_c, 2, 69, 0
4, 40200, Note_on_c, 2, 67, 100
4, 40320, Note_on_c, 2, 67, 0
4, 40320, Note_on_c, 2, 67, 100
4, 40360, Note_on_c, 2, 67, 0
4, 40360, Note_on_c, 2, 66, 100
4, 40400, Note_on_c, 2, 66, 0
4, 40400, Note_on_c, 2, 67, 100
4, 40440, Note_on_c, 2, 67, 0
4, 40440, Note_on_c, 2, 66, 100
4, 40560, Note_on_c, 2, 66, 0
4, 40680, Note_on_c, 2, 57, 100
4, 40800, Note_on_c, 2, 57, 0
4, 40800, Note_on_c, 2, 69, 100
4, 40920, Note_on_c, 2, 69, 0
4, 40920, Note_on_c, 2, 67, 100
4, 41040, Note_on_c, 2, 67, 0
4, 41040, Note_on_c, 2, 66, 100
4, 41160, Note_on_c, 2, 66, 0
4, 41160, Note_on_c, 2, 64, 100
4, 41280, Note_on_c, 2, 64, 0
4, 41280, Note_on_c, 2, 62, 100
4, 41400, Note_on_c, 2, 62, 0
4, 41400, Note_on_c, 2, 60, 100
4, 41520, Note_on_c, 2, 60, 0
4, 41520, Note_on_c, 2, 59, 100
4, 41640, Note_on_c, 2, 59, 0
4, 41640, Note_on_c, 2, 57, 100
4, 41760, Note_on_c, 2, 57, 0
4, 41760, Note_on_c, 2, 55, 100
4, 41880, Note_on_c, 2, 55, 0
4, 41880, Note_on_c, 2, 59, 100
4, 42000, Note_on_c, 2, 59, 0
4, 42000, Note_on_c, 2, 62, 100
4, 42120, Note_on_c, 2, 62, 0
4, 42120, Note_on_c, 2, 60, 100
4, 42240, Note_on_c, 2, 60, 0
4, 42240, Note_on_c, 2, 59, 100
4, 42360, Note_on_c, 2, 59, 0
4, 42360, Note_on_c, 2, 57, 100
4, 42480, Note_on_c, 2, 57, 0
4, 42480, Note_on_c, 2, 55, 100
4, 42600, Note_on_c, 2, 55, 0
4, 42600, Note_on_c, 2, 54, 100
4, 42720, Note_on_c, 2, 54, 0
4, 42720, Note_on_c, 2, 52, 100
4, 42840, Note_on_c, 2, 52, 0
4, 42840, Note_on_c, 2, 50, 100
4, 42960, Note_on_c, 2, 50, 0
4, 42960, Note_on_c, 2, 49, 100
4, 43080, Note_on_c, 2, 49, 0
4, 43080, Note_on_c, 2, 47, 100
4, 43200, Note_on_c, 2, 47, 0
4, 43200, Note_on_c, 2, 45, 100
4, 43320, Note_on_c, 2, 45, 0
4, 43320, Note_on_c, 2, 52, 100
4, 43440, Note_on_c, 2, 52, 0
4, 43440, Note_on_c, 2, 55, 100
4, 43560, Note_on_c, 2, 55, 0
4, 43560, Note_on_c, 2, 54, 100
4, 43680, Note_on_c, 2, 54, 0
4, 43680, Note_on_c, 2, 52, 100
4, 43800, Note_on_c, 2, 52, 0
4, 43800, Note_on_c, 2, 50, 100
4, 43920, Note_on_c, 2, 50, 0
4, 43920, Note_on_c, 2, 49, 100
4, 44040, Note_on_c, 2, 49, 0
4, 44040, Note_on_c, 2, 47, 100
4, 44160, Note_on_c, 2, 47, 0
4, 44160, Note_on_c, 2, 45, 100
4, 44280, Note_on_c, 2, 45, 0
4, 44280, Note_on_c, 2, 43, 100
4, 44400, Note_on_c, 2, 43, 0
4, 44400, Note_on_c, 2, 42, 100
4, 44520, Note_on_c, 2, 42, 0
4, 44520, Note_on_c, 2, 40, 100
4, 44640, Note_on_c, 2, 40, 0
4, 44640, Note_on_c, 2, 38, 100
4, 45240, Note_on_c, 2, 38, 0
4, 45240, Note_on_c, 2, 40, 100
4, 45300, Note_on_c, 2, 40, 0
4, 45300, Note_on_c, 2, 42, 100
4, 45360, Note_on_c, 2, 42, 0
4, 45360, Note_on_c, 2, 43, 100
4, 45420, Note_on_c, 2, 43, 0
4, 45420, Note_on_c, 2, 45, 100
4, 45480, Note_on_c, 2, 45, 0
4, 45480, Note_on_c, 2, 47, 100
4, 45540, Note_on_c, 2, 47, 0
4, 45540, Note_on_c, 2, 49, 100
4, 45600, Note_on_c, 2, 49, 0
4, 45600, Note_on_c, 2, 50, 100
4, 45840, Note_on_c, 2, 50, 0
4, 46200, Note_on_c, 2, 50, 100
4, 46320, Note_on_c, 2, 50, 0
4, 46320, Note_on_c, 2, 50, 100
4, 46440, Note_on_c, 2, 50, 0
4, 46620, Note_on_c, 2, 52, 100
4, 46680, Note_on_c, 2, 52, 0
4, 46680, Note_on_c, 2, 54, 100
4, 46740, Note_on_c, 2, 54, 0
4, 46740, Note_on_c, 2, 55, 100
4, 46800, Note_on_c, 2, 55, 0
4, 46800, Note_on_c, 2, 57, 100
4, 46920, Note_on_c, 2, 57, 0
4, 47100, Note_on_c, 2, 57, 100
4, 47160, Note_on_c, 2, 57, 0
4, 47160, Note_on_c, 2, 59, 100
4, 47220, Note_on_c, 2, 59, 0
4, 47220, Note_on_c, 2, 60, 100
4, 47280, Note_on_c, 2, 60, 0
4, 47280, Note_on_c, 2, 62, 100
4, 47400, Note_on_c, 2, 62, 0
4, 47640, Note_on_c, 2, 55, 100
4, 47760, Note_on_c, 2, 55, 0
4, 47760, Note_on_c, 2, 55, 100
4, 47880, Note_on_c, 2, 55, 0
4, 48060, Note_on_c, 2, 62, 100
4, 48120, Note_on_c, 2, 62, 0
4, 48120, Note_on_c, 2, 64, 100
4, 48180, Note_on_c, 2, 64, 0
4, 48180, Note_on_c, 2, 66, 100
4, 48240, Note_on_c, 2, 66, 0
4, 48240, Note_on_c, 2, 67, 100
4, 48360, Note_on_c, 2, 67, 0
4, 48540, Note_on_c, 2, 66, 100
4, 48600, Note_on_c, 2, 66, 0
4, 48600, Note_on_c, 2, 67, 100
4, 48660, Note_on_c, 2, 67, 0
4, 48660, Note_on_c, 2, 69, 100
4, 48720, Note_on_c, 2, 69, 0
4, 48720, Note_on_c, 2, 71, 100
4, 48840, Note_on_c, 2, 71, 0
4, 49080, Note_on_c, 2, 69, 100
4, 49200, Note_on_c, 2, 69, 0
4, 49200, Note_on_c, 2, 69, 100
4, 49320, Note_on_c, 2, 69, 0
4, 49500, Note_on_c, 2, 71, 100
4, 49560, Note_on_c, 2, 71, 0
4, 49560, Note_on_c, 2, 72, 100
4, 49620, Note_on_c, 2, 72, 0
4, 49620, Note_on_c, 2, 74, 100
4, 49680, Note_on_c, 2, 74, 0
4, 49680, Note_on_c, 2, 76, 100
4, 49800, Note_on_c, 2, 76, 0
4, 49980, Note_on_c, 2, 76, 100
4, 50040, Note_on_c, 2, 76, 0
4, 50040, Note_on_c, 2, 78, 100
4, 50100, Note_on_c, 2, 78, 0
4, 50100, Note_on_c, 2, 79, 100
4, 50160, Note_on_c, 2, 79, 0
4, 50160, Note_on_c, 2, 81, 100
4, 50280, Note_on_c, 2, 81, 0
4, 50520, Note_on_c, 2, 84, 100
4, 50640, Note_on_c, 2, 84, 0
4, 50640, Note_on_c, 2, 84, 100
4, 50760, Note_on_c, 2, 84, 0
4, 50940, Note_on_c, 2, 83, 100
4, 51000, Note_on_c, 2, 83, 0
4, 51000, Note_on_c, 2, 81, 100
4, 51060, Note_on_c, 2, 81, 0
4, 51060, Note_on_c, 2, 79, 100
4, 51120, Note_on_c, 2, 79, 0
4, 51120, Note_on_c, 2, 78, 100
4, 51240, Note_on_c, 2, 78, 0
4, 51420, Note_on_c, 2, 79, 100
4, 51480, Note_on_c, 2, 79, 0
4, 51480, Note_on_c, 2, 78, 100
4, 51540, Note_on_c, 2, 78, 0
4, 51540, Note_on_c, 2, 76, 100
4, 51600, Note_on_c, 2, 76, 0
4, 51600, Note_on_c, 2, 75, 100
4, 51720, Note_on_c, 2, 75, 0
4, 51960, Note_on_c, 2, 76, 100
4, 52080, Note_on_c, 2, 76, 0
4, 52080, Note_on_c, 2, 74, 100
4, 52200, Note_on_c, 2, 74, 0
4, 52200, Note_on_c, 2, 72, 100
4, 52320, Note_on_c, 2, 72, 0
4, 52320, Note_on_c, 2, 71, 100
4, 52440, Note_on_c, 2, 71, 0
4, 52440, Note_on_c, 2, 69, 100
4, 52560, Note_on_c, 2, 69, 0
4, 52560, Note_on_c, 2, 67, 100
4, 52680, Note_on_c, 2, 67, 0
4, 52680, Note_on_c, 2, 66, 100
4, 52800, Note_on_c, 2, 66, 0
4, 52800, Note_on_c, 2, 64, 100
4, 52920, Note_on_c, 2, 64, 0
4, 52920, Note_on_c, 2, 62, 100
4, 53040, Note_on_c, 2, 62, 0
4, 53040, Note_on_c, 2, 60, 100
4, 53160, Note_on_c, 2, 60, 0
4, 53160, Note_on_c, 2, 59, 100
4, 53280, Note_on_c, 2, 59, 0
4, 53280, Note_on_c, 2, 57, 100
4, 53520, Note_on_c, 2, 57, 0
4, 53880, Note_on_c, 2, 56, 100
4, 54000, Note_on_c, 2, 56, 0
4, 54000, Note_on_c, 2, 57, 100
4, 54120, Note_on_c, 2, 57, 0
4, 54120, Note_on_c, 2, 59, 100
4, 54240, Note_on_c, 2, 59, 0
4, 54240, Note_on_c, 2, 60, 100
4, 54360, Note_on_c, 2, 60, 0
4, 54360, Note_on_c, 2, 61, 100
4, 54480, Note_on_c, 2, 61, 0
4, 54480, Note_on_c, 2, 62, 100
4, 54600, Note_on_c, 2, 62, 0
4, 54600, Note_on_c, 2, 64, 100
4, 54720, Note_on_c, 2, 64, 0
4, 54720, Note_on_c, 2, 66, 100
4, 54960, Note_on_c, 2, 66, 0
4, 55080, Note_on_c, 2, 57, 100
4, 55200, Note_on_c, 2, 57, 0
4, 55200, Note_on_c, 2, 55, 100
4, 55440, Note_on_c, 2, 55, 0
4, 55440, Note_on_c, 2, 60, 100
4, 55680, Note_on_c, 2, 60, 0
4, 55680, Note_on_c, 2, 57, 100
4, 55920, Note_on_c, 2, 57, 0
4, 55920, Note_on_c, 2, 59, 100
4, 56160, Note_on_c, 2, 59, 0
4, 56160, Note_on_c, 2, 52, 100
4, 56400, Note_on_c, 2, 52, 0
4, 56460, Note_on_c, 2, 69, 100
4, 56520, Note_on_c, 2, 69, 0
4, 56520, Note_on_c, 2, 67, 100
4, 56580, Note_on_c, 2, 67, 0
4, 56580, Note_on_c, 2, 66, 100
4, 56640, Note_on_c, 2, 66, 0
4, 56640, Note_on_c, 2, 67, 100
4, 56700, Note_on_c, 2, 67, 0
4, 56940, Note_on_c, 2, 60, 100
4, 57000, Note_on_c, 2, 60, 0
4, 57000, Note_on_c, 2, 59, 100
4, 57060, Note_on_c, 2, 59, 0
4, 57060, Note_on_c, 2, 57, 100
4, 57120, Note_on_c, 2, 57, 0
4, 57120, Note_on_c, 2, 59, 100
4, 57180, Note_on_c, 2, 59, 0
4, 57420, Note_on_c, 2, 53, 100
4, 57480, Note_on_c, 2, 53, 0
4, 57480, Note_on_c, 2, 52, 100
4, 57540, Note_on_c, 2, 52, 0
4, 57540, Note_on_c, 2, 50, 100
4, 57600, Note_on_c, 2, 50, 0
4, 57600, Note_on_c, 2, 48, 100
4, 57840, Note_on_c, 2, 48, 0
4, 58200, Note_on_c, 2, 62, 100
4, 58320, Note_on_c, 2, 62, 0
4, 58320, Note_on_c, 2, 60, 100
4, 58440, Note_on_c, 2, 60, 0
4, 58440, Note_on_c, 2, 59, 100
4, 58560, Note_on_c, 2, 59, 0
4, 58560, Note_on_c, 2, 57, 100
4, 58680, Note_on_c, 2, 57, 0
4, 58680, Note_on_c, 2, 55, 100
4, 58800, Note_on_c, 2, 55, 0
4, 58800, Note_on_c, 2, 54, 100
4, 58920, Note_on_c, 2, 54, 0
4, 58920, Note_on_c, 2, 52, 100
4, 59040, Note_on_c, 2, 52, 0
4, 59040, Note_on_c, 2, 50, 100
4, 59280, Note_on_c, 2, 50, 0
4, 59640, Note_on_c, 2, 48, 100
4, 59760, Note_on_c, 2, 48, 0
4, 59760, Note_on_c, 2, 50, 100
4, 59880, Note_on_c, 2, 50, 0
4, 59880, Note_on_c, 2, 52, 100
4, 60000, Note_on_c, 2, 52, 0
4, 60000, Note_on_c, 2, 54, 100
4, 60120, Note_on_c, 2, 54, 0
4, 60120, Note_on_c, 2, 55, 100
4, 60240, Note_on_c, 2, 55, 0
4, 60240, Note_on_c, 2, 57, 100
4, 60360, Note_on_c, 2, 57, 0
4, 60360, Note_on_c, 2, 59, 100
4, 60480, Note_on_c, 2, 59, 0
4, 60480, Note_on_c, 2, 60, 100
4, 60720, Note_on_c, 2, 60, 0
4, 60720, Note_on_c, 2, 60, 100
4, 60960, Note_on_c, 2, 60, 0
4, 60960, Note_on_c, 2, 60, 100
4, 61200, Note_on_c, 2, 60, 0
4, 61200, Note_on_c, 2, 60, 100
4, 61440, Note_on_c, 2, 60, 0
4, 61440, Note_on_c, 2, 57, 100
4, 61680, Note_on_c, 2, 57, 0
4, 61680, Note_on_c, 2, 57, 100
4, 61920, Note_on_c, 2, 57, 0
4, 61920, Note_on_c, 2, 54, 100
4, 62160, Note_on_c, 2, 54, 0
4, 62160, Note_on_c, 2, 54, 100
4, 62400, Note_on_c, 2, 54, 0
4, 62400, Note_on_c, 2, 54, 100
4, 62640, Note_on_c, 2, 54, 0
4, 62640, Note_on_c, 2, 54, 100
4, 62880, Note_on_c, 2, 54, 0
4, 62880, Note_on_c, 2, 50, 100
4, 63120, Note_on_c, 2, 50, 0
4, 63120, Note_on_c, 2, 50, 100
4, 63360, Note_on_c, 2, 50, 0
4, 63360, Note_on_c, 2, 47, 100
4, 63600, Note_on_c, 2, 47, 0
4, 63600, Note_on_c, 2, 47, 100
4, 63840, Note_on_c, 2, 47, 0
4, 63840, Note_on_c, 2, 47, 100
4, 64080, Note_on_c, 2, 47, 0
4, 64080, Note_on_c, 2, 50, 100
4, 64320, Note_on_c, 2, 50, 0
4, 64320, Note_on_c, 2, 53, 100
4, 64560, Note_on_c, 2, 53, 0
4, 64560, Note_on_c, 2, 57, 100
4, 64800, Note_on_c, 2, 57, 0
4, 64800, Note_on_c, 2, 60, 100
4, 65040, Note_on_c, 2, 60, 0
4, 65040, Note_on_c, 2, 60, 100
4, 65280, Note_on_c, 2, 60, 0
4, 65280, Note_on_c, 2, 60, 100
4, 65520, Note_on_c, 2, 60, 0
4, 65520, Note_on_c, 2, 64, 100
4, 65760, Note_on_c, 2, 64, 0
4, 65760, Note_on_c, 2, 67, 100
4, 66000, Note_on_c, 2, 67, 0
4, 66000, Note_on_c, 2, 71, 100
4, 66240, Note_on_c, 2, 71, 0
4, 66240, Note_on_c, 2, 74, 100
4, 66360, Note_on_c, 2, 74, 0
4, 66840, Note_on_c, 2, 64, 100
4, 66960, Note_on_c, 2, 64, 0
4, 66960, Note_on_c, 2, 62, 100
4, 67080, Note_on_c, 2, 62, 0
4, 67080, Note_on_c, 2, 60, 100
4, 67200, Note_on_c, 2, 60, 0
4, 67200, Note_on_c, 2, 59, 100
4, 67320, Note_on_c, 2, 59, 0
4, 67320, Note_on_c, 2, 57, 100
4, 67440, Note_on_c, 2, 57, 0
4, 67440, Note_on_c, 2, 55, 100
4, 67560, Note_on_c, 2, 55, 0
4, 67560, Note_on_c, 2, 54, 100
4, 67680, Note_on_c, 2, 54, 0
4, 67680, Note_on_c, 2, 55, 100
4, 67800, Note_on_c, 2, 55, 0
4, 67800, Note_on_c, 2, 47, 100
4, 67920, Note_on_c, 2, 47, 0
4, 67920, Note_on_c, 2, 48, 100
4, 68040, Note_on_c, 2, 48, 0
4, 68040, Note_on_c, 2, 50, 100
4, 68160, Note_on_c, 2, 50, 0
4, 68160, Note_on_c, 2, 52, 100
4, 68280, Note_on_c, 2, 52, 0
4, 68280, Note_on_c, 2, 54, 100
4, 68400, Note_on_c, 2, 54, 0
4, 68400, Note_on_c, 2, 55, 100
4, 68520, Note_on_c, 2, 55, 0
4, 68520, Note_on_c, 2, 57, 100
4, 68640, Note_on_c, 2, 57, 0
4, 68640, Note_on_c, 2, 59, 100
4, 68880, Note_on_c, 2, 59, 0
4, 69240, Note_on_c, 2, 50, 100
4, 69360, Note_on_c, 2, 50, 0
4, 69360, Note_on_c, 2, 50, 100
4, 69480, Note_on_c, 2, 50, 0
4, 69660, Note_on_c, 2, 52, 100
4, 69720, Note_on_c, 2, 52, 0
4, 69720, Note_on_c, 2, 54, 100
4, 69780, Note_on_c, 2, 54, 0
4, 69780, Note_on_c, 2, 55, 100
4, 69840, Note_on_c, 2, 55, 0
4, 69840, Note_on_c, 2, 57, 100
4, 69960, Note_on_c, 2, 57, 0
4, 70140, Note_on_c, 2, 57, 100
4, 70200, Note_on_c, 2, 57, 0
4, 70200, Note_on_c, 2, 59, 100
4, 70260, Note_on_c, 2, 59, 0
4, 70260, Note_on_c, 2, 60, 100
4, 70320, Note_on_c, 2, 60, 0
4, 70320, Note_on_c, 2, 62, 100
4, 70440, Note_on_c, 2, 62, 0
4, 70680, Note_on_c, 2, 55, 100
4, 70800, Note_on_c, 2, 55, 0
4, 70800, Note_on_c, 2, 55, 100
4, 70920, Note_on_c, 2, 55, 0
4, 71100, Note_on_c, 2, 62, 100
4, 71160, Note_on_c, 2, 62, 0
4, 71160, Note_on_c, 2, 64, 100
4, 71220, Note_on_c, 2, 64, 0
4, 71220, Note_on_c, 2, 66, 100
4, 71280, Note_on_c, 2, 66, 0
4, 71280, Note_on_c, 2, 67, 100
4, 71400, Note_on_c, 2, 67, 0
4, 71580, Note_on_c, 2, 66, 100
4, 71640, Note_on_c, 2, 66, 0
4, 71640, Note_on_c, 2, 67, 100
4, 71700, Note_on_c, 2, 67, 0
4, 71700, Note_on_c, 2, 69, 100
4, 71760, Note_on_c, 2, 69, 0
4, 71760, Note_on_c, 2, 71, 100
4, 71880, Note_on_c, 2, 71, 0
4, 72120, Note_on_c, 2, 69, 100
4, 72240, Note_on_c, 2, 69, 0
4, 72240, Note_on_c, 2, 69, 100
4, 72360, Note_on_c, 2, 69, 0
4, 72540, Note_on_c, 2, 71, 100
4, 72600, Note_on_c, 2, 71, 0
4, 72600, Note_on_c, 2, 72, 100
4, 72660, Note_on_c, 2, 72, 0
4, 72660, Note_on_c, 2, 74, 100
4, 72720, Note_on_c, 2, 74, 0
4, 72720, Note_on_c, 2, 76, 100
4, 72840, Note_on_c, 2, 76, 0
4, 73020, Note_on_c, 2, 76, 100
4, 73080, Note_on_c, 2, 76, 0
4, 73080, Note_on_c, 2, 78, 100
4, 73140, Note_on_c, 2, 78, 0
4, 73140, Note_on_c, 2, 79, 100
4, 73200, Note_on_c, 2, 79, 0
4, 73200, Note_on_c, 2, 81, 100
4, 73320, Note_on_c, 2, 81, 0
4, 73560, Note_on_c, 2, 84, 100
4, 73680, Note_on_c, 2, 84, 0
4, 73680, Note_on_c, 2, 84, 100
4, 73800, Note_on_c, 2, 84, 0
4, 73980, Note_on_c, 2, 83, 100
4, 74040, Note_on_c, 2, 83, 0
4, 74040, Note_on_c, 2, 81, 100
4, 74100, Note_on_c, 2, 81, 0
4, 74100, Note_on_c, 2, 79, 100
4, 74160, Note_on_c, 2, 79, 0
4, 74160, Note_on_c, 2, 78, 100
4, 74280, Note_on_c, 2, 78, 0
4, 74460, Note_on_c, 2, 79, 100
4, 74520, Note_on_c, 2, 79, 0
4, 74520, Note_on_c, 2, 78, 100
4, 74580, Note_on_c, 2, 78, 0
4, 74580, Note_on_c, 2, 76, 100
4, 74640, Note_on_c, 2, 76, 0
4, 74640, Note_on_c, 2, 75, 100
4, 74760, Note_on_c, 2, 75, 0
4, 75000, Note_on_c, 2, 76, 100
4, 75120, Note_on_c, 2, 76, 0
4, 75120, Note_on_c, 2, 74, 100
4, 75240, Note_on_c, 2, 74, 0
4, 75240, Note_on_c, 2, 72, 100
4, 75360, Note_on_c, 2, 72, 0
4, 75360, Note_on_c, 2, 71, 100
4, 75480, Note_on_c, 2, 71, 0
4, 75480, Note_on_c, 2, 69, 100
4, 75600, Note_on_c, 2, 69, 0
4, 75600, Note_on_c, 2, 67, 100
4, 75720, Note_on_c, 2, 67, 0
4, 75720, Note_on_c, 2, 66, 100
4, 75840, Note_on_c, 2, 66, 0
4, 75840, Note_on_c, 2, 64, 100
4, 75960, Note_on_c, 2, 64, 0
4, 75960, Note_on_c, 2, 62, 100
4, 76080, Note_on_c, 2, 62, 0
4, 76080, Note_on_c, 2, 60, 100
4, 76200, Note_on_c, 2, 60, 0
4, 76200, Note_on_c, 2, 59, 100
4, 76320, Note_on_c, 2, 59, 0
4, 76320, Note_on_c, 2, 57, 100
4, 76560, Note_on_c, 2, 57, 0
4, 76920, Note_on_c, 2, 56, 100
4, 77040, Note_on_c, 2, 56, 0
4, 77040, Note_on_c, 2, 57, 100
4, 77160, Note_on_c, 2, 57, 0
4, 77160, Note_on_c, 2, 59, 100
4, 77280, Note_on_c, 2, 59, 0
4, 77280, Note_on_c, 2, 60, 100
4, 77400, Note_on_c, 2, 60, 0
4, 77400, Note_on_c, 2, 61, 100
4, 77520, Note_on_c, 2, 61, 0
4, 77520, Note_on_c, 2, 62, 100
4, 77640, Note_on_c, 2, 62, 0
4, 77640, Note_on_c, 2, 64, 100
4, 77760, Note_on_c, 2, 64, 0
4, 77760, Note_on_c, 2, 66, 100
4, 78000, Note_on_c, 2, 66, 0
4, 78120, Note_on_c, 2, 57, 100
4, 78240, Note_on_c, 2, 57, 0
4, 78240, Note_on_c, 2, 55, 100
4, 78480, Note_on_c, 2, 55, 0
4, 78480, Note_on_c, 2, 60, 100
4, 78720, Note_on_c, 2, 60, 0
4, 78720, Note_on_c, 2, 57, 100
4, 78960, Note_on_c, 2, 57, 0
4, 78960, Note_on_c, 2, 59, 100
4, 79200, Note_on_c, 2, 59, 0
4, 79200, Note_on_c, 2, 52, 100
4, 79440, Note_on_c, 2, 52, 0
4, 79500, Note_on_c, 2, 69, 100
4, 79560, Note_on_c, 2, 69, 0
4, 79560, Note_on_c, 2, 67, 100
4, 79620, Note_on_c, 2, 67, 0
4, 79620, Note_on_c, 2, 66, 100
4, 79680, Note_on_c, 2, 66, 0
4, 79680, Note_on_c, 2, 67, 100
4, 79740, Note_on_c, 2, 67, 0
4, 79980, Note_on_c, 2, 60, 100
4, 80040, Note_on_c, 2, 60, 0
4, 80040, Note_on_c, 2, 59, 100
4, 80100, Note_on_c, 2, 59, 0
4, 80100, Note_on_c, 2, 57, 100
4, 80160, Note_on_c, 2, 57, 0
4, 80160, Note_on_c, 2, 59, 100
4, 80220, Note_on_c, 2, 59, 0
4, 80460, Note_on_c, 2, 53, 100
4, 80520, Note_on_c, 2, 53, 0
4, 80520, Note_on_c, 2, 52, 100
4, 80580, Note_on_c, 2, 52, 0
4, 80580, Note_on_c, 2, 50, 100
4, 80640, Note_on_c, 2, 50, 0
4, 80640, Note_on_c, 2, 48, 100
4, 80880, Note_on_c, 2, 48, 0
4, 81240, Note_on_c, 2, 62, 100
4, 81360, Note_on_c, 2, 62, 0
4, 81360, Note_on_c, 2, 60, 100
4, 81480, Note_on_c, 2, 60, 0
4, 81480, Note_on_c, 2, 59, 100
4, 81600, Note_on_c, 2, 59, 0
4, 81600, Note_on_c, 2, 57, 100
4, 81720, Note_on_c, 2, 57, 0
4, 81720, Note_on_c, 2, 55, 100
4, 81840, Note_on_c, 2, 55, 0
4, 81840, Note_on_c, 2, 54, 100
4, 81960, Note_on_c, 2, 54, 0
4, 81960, Note_on_c, 2, 52, 100
4, 82080, Note_on_c, 2, 52, 0
4, 82080, Note_on_c, 2, 50, 100
4, 82320, Note_on_c, 2, 50, 0
4, 82680, Note_on_c, 2, 48, 100
4, 82800, Note_on_c, 2, 48, 0
4, 82800, Note_on_c, 2, 50, 100
4, 82920, Note_on_c, 2, 50, 0
4, 82920, Note_on_c, 2, 52, 100
4, 83040, Note_on_c, 2, 52, 0
4, 83040, Note_on_c, 2, 54, 100
4, 83160, Note_on_c, 2, 54, 0
4, 83160, Note_on_c, 2, 55, 100
4, 83280, Note_on_c, 2, 55, 0
4, 83280, Note_on_c, 2, 57, 100
4, 83400, Note_on_c, 2, 57, 0
4, 83400, Note_on_c, 2, 59, 100
4, 83520, Note_on_c, 2, 59, 0
4, 83520, Note_on_c, 2, 60, 100
4, 83760, Note_on_c, 2, 60, 0
4, 83760, Note_on_c, 2, 60, 100
4, 84000, Note_on_c, 2, 60, 0
4, 84000, Note_on_c, 2, 60, 100
4, 84240, Note_on_c, 2, 60, 0
4, 84240, Note_on_c, 2, 60, 100
4, 84480, Note_on_c, 2, 60, 0
4, 84480, Note_on_c, 2, 57, 100
4, 84720, Note_on_c, 2, 57, 0
4, 84720, Note_on_c, 2, 57, 100
4, 84960, Note_on_c, 2, 57, 0
4, 84960, Note_on_c, 2, 54, 100
4, 85200, Note_on_c, 2, 54, 0
4, 85200, Note_on_c, 2, 54, 100
4, 85440, Note_on_c, 2, 54, 0
4, 85440, Note_on_c, 2, 54, 100
4, 85680, Note_on_c, 2, 54, 0
4, 85680, Note_on_c, 2, 54, 100
4, 85920, Note_on_c, 2, 54, 0
4, 85920, Note_on_c, 2, 50, 100
4, 86160, Note_on_c, 2, 50, 0
4, 86160, Note_on_c, 2, 50, 100
4, 86400, Note_on_c, 2, 50, 0
4, 86400, Note_on_c, 2, 47, 100
4, 86640, Note_on_c, 2, 47, 0
4, 86640, Note_on_c, 2, 47, 100
4, 86880, Note_on_c, 2, 47, 0
4, 86880, Note_on_c, 2, 47, 100
4, 87120, Note_on_c, 2, 47, 0
4, 87120, Note_on_c, 2, 50, 100
4, 87360, Note_on_c, 2, 50, 0
4, 87360, Note_on_c, 2, 53, 100
4, 87600, Note_on_c, 2, 53, 0
4, 87600, Note_on_c, 2, 57, 100
4, 87840, Note_on_c, 2, 57, 0
4, 87840, Note_on_c, 2, 60, 100
4, 88080, Note_on_c, 2, 60, 0
4, 88080, Note_on_c, 2, 60, 100
4, 88320, Note_on_c, 2, 60, 0
4, 88320, Note_on_c, 2, 60, 100
4, 88560, Note_on_c, 2, 60, 0
4, 88560, Note_on_c, 2, 64, 100
4, 88800, Note_on_c, 2, 64, 0
4, 88800, Note_on_c, 2, 67, 100
4, 89040, Note_on_c, 2, 67, 0
4, 89040, Note_on_c, 2, 71, 100
4, 89280, Note_on_c, 2, 71, 0
4, 89280, Note_on_c, 2, 74, 100
4, 89400, Note_on_c, 2, 74, 0
4, 89880, Note_on_c, 2, 64, 100
4, 90000, Note_on_c, 2, 64, 0
4, 90000, Note_on_c, 2, 62, 100
4, 90120, Note_on_c, 2, 62, 0
4, 90120, Note_on_c, 2, 60, 100
4, 90240, Note_on_c, 2, 60, 0
4, 90240, Note_on_c, 2, 59, 100
4, 90360, Note_on_c, 2, 59, 0
4, 90360, Note_on_c, 2, 57, 100
4, 90480, Note_on_c, 2, 57, 0
4, 90480, Note_on_c, 2, 55, 100
4, 90600, Note_on_c, 2, 55, 0
4, 90600, Note_on_c, 2, 54, 100
4, 90720, Note_on_c, 2, 54, 0
4, 90720, Note_on_c, 2, 55, 100
4, 90840, Note_on_c, 2, 55, 0
4, 90840, Note_on_c, 2, 47, 100
4, 90960, Note_on_c, 2, 47, 0
4, 90960, Note_on_c, 2, 48, 100
4, 91080, Note_on_c, 2, 48, 0
4, 91080, Note_on_c, 2, 50, 100
4, 91200, Note_on_c, 2, 50, 0
4, 91200, Note_on_c, 2, 52, 100
4, 91320, Note_on_c, 2, 52, 0
4, 91320, Note_on_c, 2, 54, 100
4, 91440, Note_on_c, 2, 54, 0
4, 91440, Note_on_c, 2, 55, 100
4, 91560, Note_on_c, 2, 55, 0
4, 91560, Note_on_c, 2, 57, 100
4, 91680, Note_on_c, 2, 57, 0
4, 91680, Note_on_c, 2, 59, 100
4, 91920, Note_on_c, 2, 59, 0
4, 91920, End_track
5, 0, Start_track
5, 0, MIDI_port, 0
5, 0, Title_t, "The Goldberg Variations - BWV 988"
5, 0, Program_c, 3, 6
5, 0, Control_c, 3, 7, 100
5, 0, Control_c, 3, 10, 49
5, 46200, Note_on_c, 3, 38, 100
5, 46320, Note_on_c, 3, 38, 0
5, 46320, Note_on_c, 3, 38, 100
5, 46440, Note_on_c, 3, 38, 0
5, 47640, Note_on_c, 3, 43, 100
5, 47760, Note_on_c, 3, 43, 0
5, 47760, Note_on_c, 3, 43, 100
5, 47880, Note_on_c, 3, 43, 0
5, 49080, Note_on_c, 3, 64, 100
5, 49200, Note_on_c, 3, 64, 0
5, 49200, Note_on_c, 3, 64, 100
5, 49320, Note_on_c, 3, 64, 0
5, 50520, Note_on_c, 3, 81, 100
5, 50640, Note_on_c, 3, 81, 0
5, 50640, Note_on_c, 3, 81, 100
5, 50760, Note_on_c, 3, 81, 0
5, 58200, Note_on_c, 3, 59, 100
5, 58320, Note_on_c, 3, 59, 0
5, 58320, Note_on_c, 3, 57, 100
5, 58440, Note_on_c, 3, 57, 0
5, 58440, Note_on_c, 3, 55, 100
5, 58560, Note_on_c, 3, 55, 0
5, 58560, Note_on_c, 3, 54, 100
5, 58680, Note_on_c, 3, 54, 0
5, 58680, Note_on_c, 3, 52, 100
5, 58800, Note_on_c, 3, 52, 0
5, 58800, Note_on_c, 3, 50, 100
5, 58920, Note_on_c, 3, 50, 0
5, 58920, Note_on_c, 3, 48, 100
5, 59040, Note_on_c, 3, 48, 0
5, 59040, Note_on_c, 3, 47, 100
5, 59280, Note_on_c, 3, 47, 0
5, 59640, Note_on_c, 3, 45, 100
5, 59760, Note_on_c, 3, 45, 0
5, 59760, Note_on_c, 3, 47, 100
5, 59880, Note_on_c, 3, 47, 0
5, 59880, Note_on_c, 3, 48, 100
5, 60000, Note_on_c, 3, 48, 0
5, 60000, Note_on_c, 3, 50, 100
5, 60120, Note_on_c, 3, 50, 0
5, 60120, Note_on_c, 3, 52, 100
5, 60240, Note_on_c, 3, 52, 0
5, 60240, Note_on_c, 3, 54, 100
5, 60360, Note_on_c, 3, 54, 0
5, 60360, Note_on_c, 3, 55, 100
5, 60480, Note_on_c, 3, 55, 0
5, 60480, Note_on_c, 3, 57, 100
5, 60720, Note_on_c, 3, 57, 0
5, 60720, Note_on_c, 3, 57, 100
5, 60960, Note_on_c, 3, 57, 0
5, 60960, Note_on_c, 3, 57, 100
5, 61200, Note_on_c, 3, 57, 0
5, 61200, Note_on_c, 3, 57, 100
5, 61440, Note_on_c, 3, 57, 0
5, 61440, Note_on_c, 3, 54, 100
5, 61680, Note_on_c, 3, 54, 0
5, 61680, Note_on_c, 3, 54, 100
5, 61920, Note_on_c, 3, 54, 0
5, 61920, Note_on_c, 3, 50, 100
5, 62160, Note_on_c, 3, 50, 0
5, 62160, Note_on_c, 3, 50, 100
5, 62400, Note_on_c, 3, 50, 0
5, 62400, Note_on_c, 3, 50, 100
5, 62640, Note_on_c, 3, 50, 0
5, 62640, Note_on_c, 3, 50, 100
5, 62880, Note_on_c, 3, 50, 0
5, 62880, Note_on_c, 3, 47, 100
5, 63120, Note_on_c, 3, 47, 0
5, 63120, Note_on_c, 3, 47, 100
5, 63360, Note_on_c, 3, 47, 0
5, 63360, Note_on_c, 3, 43, 100
5, 63600, Note_on_c, 3, 43, 0
5, 63600, Note_on_c, 3, 43, 100
5, 63840, Note_on_c, 3, 43, 0
5, 63840, Note_on_c, 3, 43, 100
5, 64080, Note_on_c, 3, 43, 0
5, 64080, Note_on_c, 3, 47, 100
5, 64320, Note_on_c, 3, 47, 0
5, 64320, Note_on_c, 3, 50, 100
5, 64560, Note_on_c, 3, 50, 0
5, 64560, Note_on_c, 3, 53, 100
5, 64800, Note_on_c, 3, 53, 0
5, 64800, Note_on_c, 3, 52, 100
5, 65040, Note_on_c, 3, 52, 0
5, 65040, Note_on_c, 3, 52, 100
5, 65280, Note_on_c, 3, 52, 0
5, 65280, Note_on_c, 3, 52, 100
5, 65520, Note_on_c, 3, 52, 0
5, 65520, Note_on_c, 3, 55, 100
5, 65760, Note_on_c, 3, 55, 0
5, 65760, Note_on_c, 3, 59, 100
5, 66000, Note_on_c, 3, 59, 0
5, 66000, Note_on_c, 3, 62, 100
5, 66240, Note_on_c, 3, 62, 0
5, 66240, Note_on_c, 3, 66, 100
5, 66360, Note_on_c, 3, 66, 0
5, 66840, Note_on_c, 3, 55, 100
5, 66960, Note_on_c, 3, 55, 0
5, 66960, Note_on_c, 3, 54, 100
5, 67080, Note_on_c, 3, 54, 0
5, 67080, Note_on_c, 3, 52, 100
5, 67200, Note_on_c, 3, 52, 0
5, 67200, Note_on_c, 3, 50, 100
5, 67320, Note_on_c, 3, 50, 0
5, 67320, Note_on_c, 3, 48, 100
5, 67440, Note_on_c, 3, 48, 0
5, 67440, Note_on_c, 3, 47, 100
5, 67560, Note_on_c, 3, 47, 0
5, 67560, Note_on_c, 3, 45, 100
5, 67680, Note_on_c, 3, 45, 0
5, 67680, Note_on_c, 3, 43, 100
5, 67920, Note_on_c, 3, 43, 0
5, 67920, Note_on_c, 3, 45, 100
5, 68040, Note_on_c, 3, 45, 0
5, 68040, Note_on_c, 3, 47, 100
5, 68160, Note_on_c, 3, 47, 0
5, 68160, Note_on_c, 3, 48, 100
5, 68280, Note_on_c, 3, 48, 0
5, 68280, Note_on_c, 3, 50, 100
5, 68400, Note_on_c, 3, 50, 0
5, 68400, Note_on_c, 3, 52, 100
5, 68520, Note_on_c, 3, 52, 0
5, 68520, Note_on_c, 3, 54, 100
5, 68640, Note_on_c, 3, 54, 0
5, 68640, Note_on_c, 3, 55, 100
5, 68880, Note_on_c, 3, 55, 0
5, 69240, Note_on_c, 3, 38, 100
5, 69360, Note_on_c, 3, 38, 0
5, 69360, Note_on_c, 3, 38, 100
5, 69480, Note_on_c, 3, 38, 0
5, 70680, Note_on_c, 3, 43, 100
5, 70800, Note_on_c, 3, 43, 0
5, 70800, Note_on_c, 3, 43, 100
5, 70920, Note_on_c, 3, 43, 0
5, 72120, Note_on_c, 3, 64, 100
5, 72240, Note_on_c, 3, 64, 0
5, 72240, Note_on_c, 3, 64, 100
5, 72360, Note_on_c, 3, 64, 0
5, 73560, Note_on_c, 3, 81, 100
5, 73680, Note_on_c, 3, 81, 0
5, 73680, Note_on_c, 3, 81, 100
5, 73800, Note_on_c, 3, 81, 0
5, 81240, Note_on_c, 3, 59, 100
5, 81360, Note_on_c, 3, 59, 0
5, 81360, Note_on_c, 3, 57, 100
5, 81480, Note_on_c, 3, 57, 0
5, 81480, Note_on_c, 3, 55, 100
5, 81600, Note_on_c, 3, 55, 0
5, 81600, Note_on_c, 3, 54, 100
5, 81720, Note_on_c, 3, 54, 0
5, 81720, Note_on_c, 3, 52, 100
5, 81840, Note_on_c, 3, 52, 0
5, 81840, Note_on_c, 3, 50, 100
5, 81960, Note_on_c, 3, 50, 0
5, 81960, Note_on_c, 3, 48, 100
5, 82080, Note_on_c, 3, 48, 0
5, 82080, Note_on_c, 3, 47, 100
5, 82320, Note_on_c, 3, 47, 0
5, 82680, Note_on_c, 3, 45, 100
5, 82800, Note_on_c, 3, 45, 0
5, 82800, Note_on_c, 3, 47, 100
5, 82920, Note_on_c, 3, 47, 0
5, 82920, Note_on_c, 3, 48, 100
5, 83040, Note_on_c, 3, 48, 0
5, 83040, Note_on_c, 3, 50, 100
5, 83160, Note_on_c, 3, 50, 0
5, 83160, Note_on_c, 3, 52, 100
5, 83280, Note_on_c, 3, 52, 0
5, 83280, Note_on_c, 3, 54, 100
5, 83400, Note_on_c, 3, 54, 0
5, 83400, Note_on_c, 3, 55, 100
5, 83520, Note_on_c, 3, 55, 0
5, 83520, Note_on_c, 3, 57, 100
5, 83760, Note_on_c, 3, 57, 0
5, 83760, Note_on_c, 3, 57, 100
5, 84000, Note_on_c, 3, 57, 0
5, 84000, Note_on_c, 3, 57, 100
5, 84240, Note_on_c, 3, 57, 0
5, 84240, Note_on_c, 3, 57, 100
5, 84480, Note_on_c, 3, 57, 0
5, 84480, Note_on_c, 3, 54, 100
5, 84720, Note_on_c, 3, 54, 0
5, 84720, Note_on_c, 3, 54, 100
5, 84960, Note_on_c, 3, 54, 0
5, 84960, Note_on_c, 3, 50, 100
5, 85200, Note_on_c, 3, 50, 0
5, 85200, Note_on_c, 3, 50, 100
5, 85440, Note_on_c, 3, 50, 0
5, 85440, Note_on_c, 3, 50, 100
5, 85680, Note_on_c, 3, 50, 0
5, 85680, Note_on_c, 3, 50, 100
5, 85920, Note_on_c, 3, 50, 0
5, 85920, Note_on_c, 3, 47, 100
5, 86160, Note_on_c, 3, 47, 0
5, 86160, Note_on_c, 3, 47, 100
5, 86400, Note_on_c, 3, 47, 0
5, 86400, Note_on_c, 3, 43, 100
5, 86640, Note_on_c, 3, 43, 0
5, 86640, Note_on_c, 3, 43, 100
5, 86880, Note_on_c, 3, 43, 0
5, 86880, Note_on_c, 3, 43, 100
5, 87120, Note_on_c, 3, 43, 0
5, 87120, Note_on_c, 3, 47, 100
5, 87360, Note_on_c, 3, 47, 0
5, 87360, Note_on_c, 3, 50, 100
5, 87600, Note_on_c, 3, 50, 0
5, 87600, Note_on_c, 3, 53, 100
5, 87840, Note_on_c, 3, 53, 0
5, 87840, Note_on_c, 3, 52, 100
5, 88080, Note_on_c, 3, 52, 0
5, 88080, Note_on_c, 3, 52, 100
5, 88320, Note_on_c, 3, 52, 0
5, 88320, Note_on_c, 3, 52, 100
5, 88560, Note_on_c, 3, 52, 0
5, 88560, Note_on_c, 3, 55, 100
5, 88800, Note_on_c, 3, 55, 0
5, 88800, Note_on_c, 3, 59, 100
5, 89040, Note_on_c, 3, 59, 0
5, 89040, Note_on_c, 3, 62, 100
5, 89280, Note_on_c, 3, 62, 0
5, 89280, Note_on_c, 3, 66, 100
5, 89400, Note_on_c, 3, 66, 0
5, 89880, Note_on_c, 3, 55, 100
5, 90000, Note_on_c, 3, 55, 0
5, 90000, Note_on_c, 3, 54, 100
5, 90120, Note_on_c, 3, 54, 0
5, 90120, Note_on_c, 3, 52, 100
5, 90240, Note_on_c, 3, 52, 0
5, 90240, Note_on_c, 3, 50, 100
5, 90360, Note_on_c, 3, 50, 0
5, 90360, Note_on_c, 3, 48, 100
5, 90480, Note_on_c, 3, 48, 0
5, 90480, Note_on_c, 3, 47, 100
5, 90600, Note_on_c, 3, 47, 0
5, 90600, Note_on_c, 3, 45, 100
5, 90720, Note_on_c, 3, 45, 0
5, 90720, Note_on_c, 3, 43, 100
5, 90960, Note_on_c, 3, 43, 0
5, 90960, Note_on_c, 3, 45, 100
5, 91080, Note_on_c, 3, 45, 0
5, 91080, Note_on_c, 3, 47, 100
5, 91200, Note_on_c, 3, 47, 0
5, 91200, Note_on_c, 3, 48, 100
5, 91320, Note_on_c, 3, 48, 0
5, 91320, Note_on_c, 3, 50, 100
5, 91440, Note_on_c, 3, 50, 0
5, 91440, Note_on_c, 3, 52, 100
5, 91560, Note_on_c, 3, 52, 0
5, 91560, Note_on_c, 3, 54, 100
5, 91680, Note_on_c, 3, 54, 0
5, 91680, Note_on_c, 3, 55, 100
5, 91920, Note_on_c, 3, 55, 0
5, 91920, End_track
6, 0, Start_track
6, 0, MIDI_port, 0
6, 0, Title_t, "Aria with 30 Variations for Harpsichord with 2 Manuals"
6, 0, End_track
7, 0, Start_track
7, 0, MIDI_port, 0
7, 0, Title_t, "--------------------------------------"
7, 0, End_track
8, 0, Start_track
8, 0, MIDI_port, 0
8, 0, Title_t, "Variatio 23 a 2 Clav."
8, 0, End_track
9, 0, Start_track
9, 0, MIDI_port, 0
9, 0, Title_t, "--------------------------------------"
9, 0, End_track
10, 0, Start_track
10, 0, MIDI_port, 0
10, 0, Title_t, "Sequenced with Cakewalk Pro Audio by"
10, 0, End_track
11, 0, Start_track
11, 0, MIDI_port, 0
11, 0, Title_t, "David J. Grossman - dave@unpronounceable.com"
11, 0, End_track
12, 0, Start_track
12, 0, MIDI_port, 0
12, 0, Title_t, "This and other Bach MIDI files can be found at:"
12, 0, End_track
13, 0, Start_track
13, 0, MIDI_port, 0
13, 0, Title_t, "Dave's J.S. Bach Page"
13, 0, End_track
14, 0, Start_track
14, 0, MIDI_port, 0
14, 0, Title_t, "http://www.unpronounceable.com/bach"
14, 0, End_track
15, 0, Start_track
15, 0, MIDI_port, 0
15, 0, Title_t, "--------------------------------------"
15, 0, End_track
16, 0, Start_track
16, 0, MIDI_port, 0
16, 0, Title_t, "Original Filename: 988-v23.mid"
16, 0, End_track
17, 0, Start_track
17, 0, MIDI_port, 0
17, 0, Title_t, "Last Modified: March 14, 1997"
17, 0, End_track
0, 0, End_of_file
