0, 0, Header, 1, 17, 480
1, 0, Start_track
1, 0, Title_t, "untitled"
1, 0, SMPTE_offset, 96, 0, 3, 0, 0
1, 0, Time_signature, 4, 2, 24, 8
1, 0, Key_signature, 1, "major"
1, 0, Tempo, 300000
1, 0, Marker_t, "A"
1, 30720, Marker_t, "A'"
1, 61440, Marker_t, "B"
1, 92160, Marker_t, "B'"
1, 92160, End_track
2, 0, Start_track
2, 0, MIDI_port, 0
2, 0, Title_t, "Solo Harpsichord with 2 Manuals"
2, 0, Program_c, 0, 6
2, 0, Control_c, 0, 7, 100
2, 0, Control_c, 0, 10, 74
2, 0, Note_on_c, 0, 71, 100
2, 1920, Note_on_c, 0, 71, 0
2, 1920, Note_on_c, 0, 69, 100
2, 3360, Note_on_c, 0, 69, 0
2, 3360, Note_on_c, 0, 71, 100
2, 3600, Note_on_c, 0, 71, 0
2, 3600, Note_on_c, 0, 69, 100
2, 3840, Note_on_c, 0, 69, 0
2, 3840, Note_on_c, 0, 67, 100
2, 5280, Note_on_c, 0, 67, 0
2, 5280, Note_on_c, 0, 66, 100
2, 5520, Note_on_c, 0, 66, 0
2, 5520, Note_on_c, 0, 64, 100
2, 5760, Note_on_c, 0, 64, 0
2, 5760, Note_on_c, 0, 66, 100
2, 6720, Note_on_c, 0, 66, 0
2, 7680, Note_on_c, 0, 67, 100
2, 9120, Note_on_c, 0, 67, 0
2, 9120, Note_on_c, 0, 66, 100
2, 9360, Note_on_c, 0, 66, 0
2, 9360, Note_on_c, 0, 67, 100
2, 9600, Note_on_c, 0, 67, 0
2, 9600, Note_on_c, 0, 69, 100
2, 11040, Note_on_c, 0, 69, 0
2, 11040, Note_on_c, 0, 72, 100
2, 11280, Note_on_c, 0, 72, 0
2, 11280, Note_on_c, 0, 71, 100
2, 11520, Note_on_c, 0, 71, 0
2, 11520, Note_on_c, 0, 72, 100
2, 12720, Note_on_c, 0, 72, 0
2, 12720, Note_on_c, 0, 71, 100
2, 12960, Note_on_c, 0, 71, 0
2, 12960, Note_on_c, 0, 72, 100
2, 13200, Note_on_c, 0, 72, 0
2, 13200, Note_on_c, 0, 69, 100
2, 13440, Note_on_c, 0, 69, 0
2, 13440, Note_on_c, 0, 71, 100
2, 14400, Note_on_c, 0, 71, 0
2, 15360, Note_on_c, 0, 67, 100
2, 17280, Note_on_c, 0, 67, 0
2, 17280, Note_on_c, 0, 66, 100
2, 18720, Note_on_c, 0, 66, 0
2, 18720, Note_on_c, 0, 67, 100
2, 18960, Note_on_c, 0, 67, 0
2, 18960, Note_on_c, 0, 69, 100
2, 19200, Note_on_c, 0, 69, 0
2, 19200, Note_on_c, 0, 71, 100
2, 20400, Note_on_c, 0, 71, 0
2, 20400, Note_on_c, 0, 69, 100
2, 20640, Note_on_c, 0, 69, 0
2, 20640, Note_on_c, 0, 71, 100
2, 20880, Note_on_c, 0, 71, 0
2, 20880, Note_on_c, 0, 67, 100
2, 21120, Note_on_c, 0, 67, 0
2, 21120, Note_on_c, 0, 69, 100
2, 22560, Note_on_c, 0, 69, 0
2, 22560, Note_on_c, 0, 69, 100
2, 23040, Note_on_c, 0, 69, 0
2, 23040, Note_on_c, 0, 67, 100
2, 24480, Note_on_c, 0, 67, 0
2, 24480, Note_on_c, 0, 67, 100
2, 24960, Note_on_c, 0, 67, 0
2, 24960, Note_on_c, 0, 66, 100
2, 26400, Note_on_c, 0, 66, 0
2, 26400, Note_on_c, 0, 71, 100
2, 26880, Note_on_c, 0, 71, 0
2, 26880, Note_on_c, 0, 64, 100
2, 27120, Note_on_c, 0, 64, 0
2, 27120, Note_on_c, 0, 66, 100
2, 27360, Note_on_c, 0, 66, 0
2, 27360, Note_on_c, 0, 67, 100
2, 28800, Note_on_c, 0, 67, 0
2, 28800, Note_on_c, 0, 66, 100
2, 30720, Note_on_c, 0, 66, 0
2, 30720, Note_on_c, 0, 71, 100
2, 32640, Note_on_c, 0, 71, 0
2, 32640, Note_on_c, 0, 69, 100
2, 34080, Note_on_c, 0, 69, 0
2, 34080, Note_on_c, 0, 71, 100
2, 34320, Note_on_c, 0, 71, 0
2, 34320, Note_on_c, 0, 69, 100
2, 34560, Note_on_c, 0, 69, 0
2, 34560, Note_on_c, 0, 67, 100
2, 36000, Note_on_c, 0, 67, 0
2, 36000, Note_on_c, 0, 66, 100
2, 36240, Note_on_c, 0, 66, 0
2, 36240, Note_on_c, 0, 64, 100
2, 36480, Note_on_c, 0, 64, 0
2, 36480, Note_on_c, 0, 66, 100
2, 37440, Note_on_c, 0, 66, 0
2, 38400, Note_on_c, 0, 67, 100
2, 39840, Note_on_c, 0, 67, 0
2, 39840, Note_on_c, 0, 66, 100
2, 40080, Note_on_c, 0, 66, 0
2, 40080, Note_on_c, 0, 67, 100
2, 40320, Note_on_c, 0, 67, 0
2, 40320, Note_on_c, 0, 69, 100
2, 41760, Note_on_c, 0, 69, 0
2, 41760, Note_on_c, 0, 72, 100
2, 42000, Note_on_c, 0, 72, 0
2, 42000, Note_on_c, 0, 71, 100
2, 42240, Note_on_c, 0, 71, 0
2, 42240, Note_on_c, 0, 72, 100
2, 43440, Note_on_c, 0, 72, 0
2, 43440, Note_on_c, 0, 71, 100
2, 43680, Note_on_c, 0, 71, 0
2, 43680, Note_on_c, 0, 72, 100
2, 43920, Note_on_c, 0, 72, 0
2, 43920, Note_on_c, 0, 69, 100
2, 44160, Note_on_c, 0, 69, 0
2, 44160, Note_on_c, 0, 71, 100
2, 45120, Note_on_c, 0, 71, 0
2, 46080, Note_on_c, 0, 67, 100
2, 48000, Note_on_c, 0, 67, 0
2, 48000, Note_on_c, 0, 66, 100
2, 49440, Note_on_c, 0, 66, 0
2, 49440, Note_on_c, 0, 67, 100
2, 49680, Note_on_c, 0, 67, 0
2, 49680, Note_on_c, 0, 69, 100
2, 49920, Note_on_c, 0, 69, 0
2, 49920, Note_on_c, 0, 71, 100
2, 51120, Note_on_c, 0, 71, 0
2, 51120, Note_on_c, 0, 69, 100
2, 51360, Note_on_c, 0, 69, 0
2, 51360, Note_on_c, 0, 71, 100
2, 51600, Note_on_c, 0, 71, 0
2, 51600, Note_on_c, 0, 67, 100
2, 51840, Note_on_c, 0, 67, 0
2, 51840, Note_on_c, 0, 69, 100
2, 53280, Note_on_c, 0, 69, 0
2, 53280, Note_on_c, 0, 69, 100
2, 53760, Note_on_c, 0, 69, 0
2, 53760, Note_on_c, 0, 67, 100
2, 55200, Note_on_c, 0, 67, 0
2, 55200, Note_on_c, 0, 67, 100
2, 55680, Note_on_c, 0, 67, 0
2, 55680, Note_on_c, 0, 66, 100
2, 57120, Note_on_c, 0, 66, 0
2, 57120, Note_on_c, 0, 71, 100
2, 57600, Note_on_c, 0, 71, 0
2, 57600, Note_on_c, 0, 64, 100
2, 57840, Note_on_c, 0, 64, 0
2, 57840, Note_on_c, 0, 66, 100
2, 58080, Note_on_c, 0, 66, 0
2, 58080, Note_on_c, 0, 67, 100
2, 59520, Note_on_c, 0, 67, 0
2, 59520, Note_on_c, 0, 66, 100
2, 61440, Note_on_c, 0, 66, 0
2, 61440, Note_on_c, 0, 72, 100
2, 63360, Note_on_c, 0, 72, 0
2, 63360, Note_on_c, 0, 71, 100
2, 64800, Note_on_c, 0, 71, 0
2, 64800, Note_on_c, 0, 72, 100
2, 65040, Note_on_c, 0, 72, 0
2, 65040, Note_on_c, 0, 74, 100
2, 65280, Note_on_c, 0, 74, 0
2, 65280, Note_on_c, 0, 76, 100
2, 66480, Note_on_c, 0, 76, 0
2, 66480, Note_on_c, 0, 75, 100
2, 66720, Note_on_c, 0, 75, 0
2, 66720, Note_on_c, 0, 76, 100
2, 67200, Note_on_c, 0, 76, 0
2, 67200, Note_on_c, 0, 75, 100
2, 68160, Note_on_c, 0, 75, 0
2, 69120, Note_on_c, 0, 67, 100
2, 71040, Note_on_c, 0, 67, 0
2, 71040, Note_on_c, 0, 66, 100
2, 71520, Note_on_c, 0, 66, 0
2, 71520, Note_on_c, 0, 67, 100
2, 72000, Note_on_c, 0, 67, 0
2, 72000, Note_on_c, 0, 69, 100
2, 73440, Note_on_c, 0, 69, 0
2, 73440, Note_on_c, 0, 67, 100
2, 73680, Note_on_c, 0, 67, 0
2, 73680, Note_on_c, 0, 69, 100
2, 73920, Note_on_c, 0, 69, 0
2, 73920, Note_on_c, 0, 71, 100
2, 75120, Note_on_c, 0, 71, 0
2, 75120, Note_on_c, 0, 69, 100
2, 75360, Note_on_c, 0, 69, 0
2, 75360, Note_on_c, 0, 67, 100
2, 75600, Note_on_c, 0, 67, 0
2, 75600, Note_on_c, 0, 66, 100
2, 75840, Note_on_c, 0, 66, 0
2, 75840, Note_on_c, 0, 64, 100
2, 76320, Note_on_c, 0, 64, 0
2, 76800, Note_on_c, 0, 72, 100
2, 78720, Note_on_c, 0, 72, 0
2, 78720, Note_on_c, 0, 71, 100
2, 80160, Note_on_c, 0, 71, 0
2, 80160, Note_on_c, 0, 72, 100
2, 80400, Note_on_c, 0, 72, 0
2, 80400, Note_on_c, 0, 74, 100
2, 80640, Note_on_c, 0, 74, 0
2, 80640, Note_on_c, 0, 76, 100
2, 81840, Note_on_c, 0, 76, 0
2, 81840, Note_on_c, 0, 74, 100
2, 82080, Note_on_c, 0, 74, 0
2, 82080, Note_on_c, 0, 76, 100
2, 82320, Note_on_c, 0, 76, 0
2, 82320, Note_on_c, 0, 72, 100
2, 82560, Note_on_c, 0, 72, 0
2, 82560, Note_on_c, 0, 74, 100
2, 84000, Note_on_c, 0, 74, 0
2, 84000, Note_on_c, 0, 74, 100
2, 84480, Note_on_c, 0, 74, 0
2, 84480, Note_on_c, 0, 72, 100
2, 85920, Note_on_c, 0, 72, 0
2, 85920, Note_on_c, 0, 72, 100
2, 86400, Note_on_c, 0, 72, 0
2, 86400, Note_on_c, 0, 71, 100
2, 87840, Note_on_c, 0, 71, 0
2, 87840, Note_on_c, 0, 76, 100
2, 88320, Note_on_c, 0, 76, 0
2, 88320, Note_on_c, 0, 69, 100
2, 88560, Note_on_c, 0, 69, 0
2, 88560, Note_on_c, 0, 71, 100
2, 88800, Note_on_c, 0, 71, 0
2, 88800, Note_on_c, 0, 72, 100
2, 90240, Note_on_c, 0, 72, 0
2, 90240, Note_on_c, 0, 71, 100
2, 92160, Note_on_c, 0, 71, 0
2, 92160, Note_on_c, 0, 72, 100
2, 94080, Note_on_c, 0, 72, 0
2, 94080, Note_on_c, 0, 71, 100
2, 95520, Note_on_c, 0, 71, 0
2, 95520, Note_on_c, 0, 72, 100
2, 95760, Note_on_c, 0, 72, 0
2, 95760, Note_on_c, 0, 74, 100
2, 96000, Note_on_c, 0, 74, 0
2, 96000, Note_on_c, 0, 76, 100
2, 97200, Note_on_c, 0, 76, 0
2, 97200, Note_on_c, 0, 75, 100
2, 97440, Note_on_c, 0, 75, 0
2, 97440, Note_on_c, 0, 76, 100
2, 97920, Note_on_c, 0, 76, 0
2, 97920, Note_on_c, 0, 75, 100
2, 98880, Note_on_c, 0, 75, 0
2, 99840, Note_on_c, 0, 67, 100
2, 101760, Note_on_c, 0, 67, 0
2, 101760, Note_on_c, 0, 66, 100
2, 102240, Note_on_c, 0, 66, 0
2, 102240, Note_on_c, 0, 67, 100
2, 102720, Note_on_c, 0, 67, 0
2, 102720, Note_on_c, 0, 69, 100
2, 104160, Note_on_c, 0, 69, 0
2, 104160, Note_on_c, 0, 67, 100
2, 104400, Note_on_c, 0, 67, 0
2, 104400, Note_on_c, 0, 69, 100
2, 104640, Note_on_c, 0, 69, 0
2, 104640, Note_on_c, 0, 71, 100
2, 105840, Note_on_c, 0, 71, 0
2, 105840, Note_on_c, 0, 69, 100
2, 106080, Note_on_c, 0, 69, 0
2, 106080, Note_on_c, 0, 67, 100
2, 106320, Note_on_c, 0, 67, 0
2, 106320, Note_on_c, 0, 66, 100
2, 106560, Note_on_c, 0, 66, 0
2, 106560, Note_on_c, 0, 64, 100
2, 107040, Note_on_c, 0, 64, 0
2, 107520, Note_on_c, 0, 72, 100
2, 109440, Note_on_c, 0, 72, 0
2, 109440, Note_on_c, 0, 71, 100
2, 110880, Note_on_c, 0, 71, 0
2, 110880, Note_on_c, 0, 72, 100
2, 111120, Note_on_c, 0, 72, 0
2, 111120, Note_on_c, 0, 74, 100
2, 111360, Note_on_c, 0, 74, 0
2, 111360, Note_on_c, 0, 76, 100
2, 112560, Note_on_c, 0, 76, 0
2, 112560, Note_on_c, 0, 74, 100
2, 112800, Note_on_c, 0, 74, 0
2, 112800, Note_on_c, 0, 76, 100
2, 113040, Note_on_c, 0, 76, 0
2, 113040, Note_on_c, 0, 72, 100
2, 113280, Note_on_c, 0, 72, 0
2, 113280, Note_on_c, 0, 74, 100
2, 114720, Note_on_c, 0, 74, 0
2, 114720, Note_on_c, 0, 74, 100
2, 115200, Note_on_c, 0, 74, 0
2, 115200, Note_on_c, 0, 72, 100
2, 116640, Note_on_c, 0, 72, 0
2, 116640, Note_on_c, 0, 72, 100
2, 117120, Note_on_c, 0, 72, 0
2, 117120, Note_on_c, 0, 71, 100
2, 118560, Note_on_c, 0, 71, 0
2, 118560, Note_on_c, 0, 76, 100
2, 119040, Note_on_c, 0, 76, 0
2, 119040, Note_on_c, 0, 69, 100
2, 119280, Note_on_c, 0, 69, 0
2, 119280, Note_on_c, 0, 71, 100
2, 119520, Note_on_c, 0, 71, 0
2, 119520, Note_on_c, 0, 72, 100
2, 120960, Note_on_c, 0, 72, 0
2, 120960, Note_on_c, 0, 71, 100
2, 122880, Note_on_c, 0, 71, 0
2, 122880, End_track
3, 0, Start_track
3, 0, MIDI_port, 0
3, 0, Title_t, "--------------------------------------"
3, 0, Program_c, 1, 6
3, 0, Control_c, 1, 7, 100
3, 0, Control_c, 1, 10, 64
3, 960, Note_on_c, 1, 79, 100
3, 2880, Note_on_c, 1, 79, 0
3, 2880, Note_on_c, 1, 78, 100
3, 4320, Note_on_c, 1, 78, 0
3, 4320, Note_on_c, 1, 79, 100
3, 4560, Note_on_c, 1, 79, 0
3, 4560, Note_on_c, 1, 78, 100
3, 4800, Note_on_c, 1, 78, 0
3, 4800, Note_on_c, 1, 76, 100
3, 6240, Note_on_c, 1, 76, 0
3, 6240, Note_on_c, 1, 74, 100
3, 6480, Note_on_c, 1, 74, 0
3, 6480, Note_on_c, 1, 73, 100
3, 6720, Note_on_c, 1, 73, 0
3, 6720, Note_on_c, 1, 74, 100
3, 7680, Note_on_c, 1, 74, 0
3, 8640, Note_on_c, 1, 76, 100
3, 10080, Note_on_c, 1, 76, 0
3, 10080, Note_on_c, 1, 74, 100
3, 10320, Note_on_c, 1, 74, 0
3, 10320, Note_on_c, 1, 76, 100
3, 10560, Note_on_c, 1, 76, 0
3, 10560, Note_on_c, 1, 78, 100
3, 12000, Note_on_c, 1, 78, 0
3, 12000, Note_on_c, 1, 81, 100
3, 12240, Note_on_c, 1, 81, 0
3, 12240, Note_on_c, 1, 79, 100
3, 12480, Note_on_c, 1, 79, 0
3, 12480, Note_on_c, 1, 81, 100
3, 13680, Note_on_c, 1, 81, 0
3, 13680, Note_on_c, 1, 79, 100
3, 13920, Note_on_c, 1, 79, 0
3, 13920, Note_on_c, 1, 81, 100
3, 14160, Note_on_c, 1, 81, 0
3, 14160, Note_on_c, 1, 78, 100
3, 14400, Note_on_c, 1, 78, 0
3, 14400, Note_on_c, 1, 79, 100
3, 15360, Note_on_c, 1, 79, 0
3, 16320, Note_on_c, 1, 76, 100
3, 18240, Note_on_c, 1, 76, 0
3, 18240, Note_on_c, 1, 74, 100
3, 19680, Note_on_c, 1, 74, 0
3, 19680, Note_on_c, 1, 76, 100
3, 19920, Note_on_c, 1, 76, 0
3, 19920, Note_on_c, 1, 78, 100
3, 20160, Note_on_c, 1, 78, 0
3, 20160, Note_on_c, 1, 79, 100
3, 21360, Note_on_c, 1, 79, 0
3, 21360, Note_on_c, 1, 78, 100
3, 21600, Note_on_c, 1, 78, 0
3, 21600, Note_on_c, 1, 79, 100
3, 21840, Note_on_c, 1, 79, 0
3, 21840, Note_on_c, 1, 76, 100
3, 22080, Note_on_c, 1, 76, 0
3, 22080, Note_on_c, 1, 78, 100
3, 23520, Note_on_c, 1, 78, 0
3, 23520, Note_on_c, 1, 78, 100
3, 24000, Note_on_c, 1, 78, 0
3, 24000, Note_on_c, 1, 76, 100
3, 25440, Note_on_c, 1, 76, 0
3, 25440, Note_on_c, 1, 76, 100
3, 25920, Note_on_c, 1, 76, 0
3, 25920, Note_on_c, 1, 74, 100
3, 27360, Note_on_c, 1, 74, 0
3, 27360, Note_on_c, 1, 79, 100
3, 27840, Note_on_c, 1, 79, 0
3, 27840, Note_on_c, 1, 73, 100
3, 28080, Note_on_c, 1, 73, 0
3, 28080, Note_on_c, 1, 74, 100
3, 28320, Note_on_c, 1, 74, 0
3, 28320, Note_on_c, 1, 76, 100
3, 29760, Note_on_c, 1, 76, 0
3, 29760, Note_on_c, 1, 74, 100
3, 30720, Note_on_c, 1, 74, 0
3, 31680, Note_on_c, 1, 79, 100
3, 33600, Note_on_c, 1, 79, 0
3, 33600, Note_on_c, 1, 78, 100
3, 35040, Note_on_c, 1, 78, 0
3, 35040, Note_on_c, 1, 79, 100
3, 35280, Note_on_c, 1, 79, 0
3, 35280, Note_on_c, 1, 78, 100
3, 35520, Note_on_c, 1, 78, 0
3, 35520, Note_on_c, 1, 76, 100
3, 36960, Note_on_c, 1, 76, 0
3, 36960, Note_on_c, 1, 74, 100
3, 37200, Note_on_c, 1, 74, 0
3, 37200, Note_on_c, 1, 73, 100
3, 37440, Note_on_c, 1, 73, 0
3, 37440, Note_on_c, 1, 74, 100
3, 38400, Note_on_c, 1, 74, 0
3, 39360, Note_on_c, 1, 76, 100
3, 40800, Note_on_c, 1, 76, 0
3, 40800, Note_on_c, 1, 74, 100
3, 41040, Note_on_c, 1, 74, 0
3, 41040, Note_on_c, 1, 76, 100
3, 41280, Note_on_c, 1, 76, 0
3, 41280, Note_on_c, 1, 78, 100
3, 42720, Note_on_c, 1, 78, 0
3, 42720, Note_on_c, 1, 81, 100
3, 42960, Note_on_c, 1, 81, 0
3, 42960, Note_on_c, 1, 79, 100
3, 43200, Note_on_c, 1, 79, 0
3, 43200, Note_on_c, 1, 81, 100
3, 44400, Note_on_c, 1, 81, 0
3, 44400, Note_on_c, 1, 79, 100
3, 44640, Note_on_c, 1, 79, 0
3, 44640, Note_on_c, 1, 81, 100
3, 44880, Note_on_c, 1, 81, 0
3, 44880, Note_on_c, 1, 78, 100
3, 45120, Note_on_c, 1, 78, 0
3, 45120, Note_on_c, 1, 79, 100
3, 46080, Note_on_c, 1, 79, 0
3, 47040, Note_on_c, 1, 76, 100
3, 48960, Note_on_c, 1, 76, 0
3, 48960, Note_on_c, 1, 74, 100
3, 50400, Note_on_c, 1, 74, 0
3, 50400, Note_on_c, 1, 76, 100
3, 50640, Note_on_c, 1, 76, 0
3, 50640, Note_on_c, 1, 78, 100
3, 50880, Note_on_c, 1, 78, 0
3, 50880, Note_on_c, 1, 79, 100
3, 52080, Note_on_c, 1, 79, 0
3, 52080, Note_on_c, 1, 78, 100
3, 52320, Note_on_c, 1, 78, 0
3, 52320, Note_on_c, 1, 79, 100
3, 52560, Note_on_c, 1, 79, 0
3, 52560, Note_on_c, 1, 76, 100
3, 52800, Note_on_c, 1, 76, 0
3, 52800, Note_on_c, 1, 78, 100
3, 54240, Note_on_c, 1, 78, 0
3, 54240, Note_on_c, 1, 78, 100
3, 54720, Note_on_c, 1, 78, 0
3, 54720, Note_on_c, 1, 76, 100
3, 56160, Note_on_c, 1, 76, 0
3, 56160, Note_on_c, 1, 76, 100
3, 56640, Note_on_c, 1, 76, 0
3, 56640, Note_on_c, 1, 74, 100
3, 58080, Note_on_c, 1, 74, 0
3, 58080, Note_on_c, 1, 79, 100
3, 58560, Note_on_c, 1, 79, 0
3, 58560, Note_on_c, 1, 73, 100
3, 58800, Note_on_c, 1, 73, 0
3, 58800, Note_on_c, 1, 74, 100
3, 59040, Note_on_c, 1, 74, 0
3, 59040, Note_on_c, 1, 76, 100
3, 60480, Note_on_c, 1, 76, 0
3, 60480, Note_on_c, 1, 74, 100
3, 61440, Note_on_c, 1, 74, 0
3, 62400, Note_on_c, 1, 81, 100
3, 64320, Note_on_c, 1, 81, 0
3, 64320, Note_on_c, 1, 79, 100
3, 65760, Note_on_c, 1, 79, 0
3, 65760, Note_on_c, 1, 81, 100
3, 66000, Note_on_c, 1, 81, 0
3, 66000, Note_on_c, 1, 83, 100
3, 66240, Note_on_c, 1, 83, 0
3, 66240, Note_on_c, 1, 84, 100
3, 67440, Note_on_c, 1, 84, 0
3, 67440, Note_on_c, 1, 83, 100
3, 67680, Note_on_c, 1, 83, 0
3, 67680, Note_on_c, 1, 84, 100
3, 68160, Note_on_c, 1, 84, 0
3, 68160, Note_on_c, 1, 83, 100
3, 69120, Note_on_c, 1, 83, 0
3, 70080, Note_on_c, 1, 76, 100
3, 72000, Note_on_c, 1, 76, 0
3, 72000, Note_on_c, 1, 75, 100
3, 72480, Note_on_c, 1, 75, 0
3, 72480, Note_on_c, 1, 76, 100
3, 72960, Note_on_c, 1, 76, 0
3, 72960, Note_on_c, 1, 78, 100
3, 74400, Note_on_c, 1, 78, 0
3, 74400, Note_on_c, 1, 76, 100
3, 74640, Note_on_c, 1, 76, 0
3, 74640, Note_on_c, 1, 78, 100
3, 74880, Note_on_c, 1, 78, 0
3, 74880, Note_on_c, 1, 79, 100
3, 76080, Note_on_c, 1, 79, 0
3, 76080, Note_on_c, 1, 78, 100
3, 76320, Note_on_c, 1, 78, 0
3, 76320, Note_on_c, 1, 76, 100
3, 76560, Note_on_c, 1, 76, 0
3, 76560, Note_on_c, 1, 74, 100
3, 76800, Note_on_c, 1, 74, 0
3, 76800, Note_on_c, 1, 72, 100
3, 77280, Note_on_c, 1, 72, 0
3, 77760, Note_on_c, 1, 81, 100
3, 79680, Note_on_c, 1, 81, 0
3, 79680, Note_on_c, 1, 79, 100
3, 81120, Note_on_c, 1, 79, 0
3, 81120, Note_on_c, 1, 81, 100
3, 81360, Note_on_c, 1, 81, 0
3, 81360, Note_on_c, 1, 83, 100
3, 81600, Note_on_c, 1, 83, 0
3, 81600, Note_on_c, 1, 84, 100
3, 82800, Note_on_c, 1, 84, 0
3, 82800, Note_on_c, 1, 83, 100
3, 83040, Note_on_c, 1, 83, 0
3, 83040, Note_on_c, 1, 84, 100
3, 83280, Note_on_c, 1, 84, 0
3, 83280, Note_on_c, 1, 81, 100
3, 83520, Note_on_c, 1, 81, 0
3, 83520, Note_on_c, 1, 83, 100
3, 84960, Note_on_c, 1, 83, 0
3, 84960, Note_on_c, 1, 83, 100
3, 85440, Note_on_c, 1, 83, 0
3, 85440, Note_on_c, 1, 81, 100
3, 86880, Note_on_c, 1, 81, 0
3, 86880, Note_on_c, 1, 81, 100
3, 87360, Note_on_c, 1, 81, 0
3, 87360, Note_on_c, 1, 79, 100
3, 88800, Note_on_c, 1, 79, 0
3, 88800, Note_on_c, 1, 84, 100
3, 89280, Note_on_c, 1, 84, 0
3, 89280, Note_on_c, 1, 78, 100
3, 89520, Note_on_c, 1, 78, 0
3, 89520, Note_on_c, 1, 79, 100
3, 89760, Note_on_c, 1, 79, 0
3, 89760, Note_on_c, 1, 81, 100
3, 91200, Note_on_c, 1, 81, 0
3, 91200, Note_on_c, 1, 79, 100
3, 92160, Note_on_c, 1, 79, 0
3, 93120, Note_on_c, 1, 81, 100
3, 95040, Note_on_c, 1, 81, 0
3, 95040, Note_on_c, 1, 79, 100
3, 96480, Note_on_c, 1, 79, 0
3, 96480, Note_on_c, 1, 81, 100
3, 96720, Note_on_c, 1, 81, 0
3, 96720, Note_on_c, 1, 83, 100
3, 96960, Note_on_c, 1, 83, 0
3, 96960, Note_on_c, 1, 84, 100
3, 98160, Note_on_c, 1, 84, 0
3, 98160, Note_on_c, 1, 83, 100
3, 98400, Note_on_c, 1, 83, 0
3, 98400, Note_on_c, 1, 84, 100
3, 98880, Note_on_c, 1, 84, 0
3, 98880, Note_on_c, 1, 83, 100
3, 99840, Note_on_c, 1, 83, 0
3, 100800, Note_on_c, 1, 76, 100
3, 102720, Note_on_c, 1, 76, 0
3, 102720, Note_on_c, 1, 75, 100
3, 103200, Note_on_c, 1, 75, 0
3, 103200, Note_on_c, 1, 76, 100
3, 103680, Note_on_c, 1, 76, 0
3, 103680, Note_on_c, 1, 78, 100
3, 105120, Note_on_c, 1, 78, 0
3, 105120, Note_on_c, 1, 76, 100
3, 105360, Note_on_c, 1, 76, 0
3, 105360, Note_on_c, 1, 78, 100
3, 105600, Note_on_c, 1, 78, 0
3, 105600, Note_on_c, 1, 79, 100
3, 106800, Note_on_c, 1, 79, 0
3, 106800, Note_on_c, 1, 78, 100
3, 107040, Note_on_c, 1, 78, 0
3, 107040, Note_on_c, 1, 76, 100
3, 107280, Note_on_c, 1, 76, 0
3, 107280, Note_on_c, 1, 74, 100
3, 107520, Note_on_c, 1, 74, 0
3, 107520, Note_on_c, 1, 72, 100
3, 108000, Note_on_c, 1, 72, 0
3, 108480, Note_on_c, 1, 81, 100
3, 110400, Note_on_c, 1, 81, 0
3, 110400, Note_on_c, 1, 79, 100
3, 111840, Note_on_c, 1, 79, 0
3, 111840, Note_on_c, 1, 81, 100
3, 112080, Note_on_c, 1, 81, 0
3, 112080, Note_on_c, 1, 83, 100
3, 112320, Note_on_c, 1, 83, 0
3, 112320, Note_on_c, 1, 84, 100
3, 113520, Note_on_c, 1, 84, 0
3, 113520, Note_on_c, 1, 83, 100
3, 113760, Note_on_c, 1, 83, 0
3, 113760, Note_on_c, 1, 84, 100
3, 114000, Note_on_c, 1, 84, 0
3, 114000, Note_on_c, 1, 81, 100
3, 114240, Note_on_c, 1, 81, 0
3, 114240, Note_on_c, 1, 83, 100
3, 115680, Note_on_c, 1, 83, 0
3, 115680, Note_on_c, 1, 83, 100
3, 116160, Note_on_c, 1, 83, 0
3, 116160, Note_on_c, 1, 81, 100
3, 117600, Note_on_c, 1, 81, 0
3, 117600, Note_on_c, 1, 81, 100
3, 118080, Note_on_c, 1, 81, 0
3, 118080, Note_on_c, 1, 79, 100
3, 119520, Note_on_c, 1, 79, 0
3, 119520, Note_on_c, 1, 84, 100
3, 120000, Note_on_c, 1, 84, 0
3, 120000, Note_on_c, 1, 78, 100
3, 120240, Note_on_c, 1, 78, 0
3, 120240, Note_on_c, 1, 79, 100
3, 120480, Note_on_c, 1, 79, 0
3, 120480, Note_on_c, 1, 81, 100
3, 121920, Note_on_c, 1, 81, 0
3, 121920, Note_on_c, 1, 79, 100
3, 122880, Note_on_c, 1, 79, 0
3, 122880, End_track
4, 0, Start_track
4, 0, MIDI_port, 0
4, 0, Title_t, "Johann Sebastian Bach  (1685-1750)"
4, 0, Program_c, 2, 6
4, 0, Control_c, 2, 7, 100
4, 0, Control_c, 2, 10, 54
4, 480, Note_on_c, 2, 55, 100
4, 720, Note_on_c, 2, 55, 0
4, 720, Note_on_c, 2, 57, 100
4, 960, Note_on_c, 2, 57, 0
4, 960, Note_on_c, 2, 59, 100
4, 1440, Note_on_c, 2, 59, 0
4, 1440, Note_on_c, 2, 60, 100
4, 1920, Note_on_c, 2, 60, 0
4, 1920, Note_on_c, 2, 62, 100
4, 2400, Note_on_c, 2, 62, 0
4, 2400, Note_on_c, 2, 50, 100
4, 2880, Note_on_c, 2, 50, 0
4, 2880, Note_on_c, 2, 62, 100
4, 3840, Note_on_c, 2, 62, 0
4, 4320, Note_on_c, 2, 64, 100
4, 4560, Note_on_c, 2, 64, 0
4, 4560, Note_on_c, 2, 62, 100
4, 4800, Note_on_c, 2, 62, 0
4, 4800, Note_on_c, 2, 61, 100
4, 5280, Note_on_c, 2, 61, 0
4, 5280, Note_on_c, 2, 57, 100
4, 5760, Note_on_c, 2, 57, 0
4, 5760, Note_on_c, 2, 62, 100
4, 6240, Note_on_c, 2, 62, 0
4, 6240, Note_on_c, 2, 50, 100
4, 6720, Note_on_c, 2, 50, 0
4, 6720, Note_on_c, 2, 62, 100
4, 7200, Note_on_c, 2, 62, 0
4, 7200, Note_on_c, 2, 60, 100
4, 7680, Note_on_c, 2, 60, 0
4, 7680, Note_on_c, 2, 60, 100
4, 7760, Note_on_c, 2, 60, 0
4, 7760, Note_on_c, 2, 59, 100
4, 7840, Note_on_c, 2, 59, 0
4, 7840, Note_on_c, 2, 60, 100
4, 7920, Note_on_c, 2, 60, 0
4, 7920, Note_on_c, 2, 59, 100
4, 8160, Note_on_c, 2, 59, 0
4, 8160, Note_on_c, 2, 57, 100
4, 8400, Note_on_c, 2, 57, 0
4, 8400, Note_on_c, 2, 59, 100
4, 8640, Note_on_c, 2, 59, 0
4, 8640, Note_on_c, 2, 60, 100
4, 9120, Note_on_c, 2, 60, 0
4, 9120, Note_on_c, 2, 48, 100
4, 9600, Note_on_c, 2, 48, 0
4, 9600, Note_on_c, 2, 60, 100
4, 10080, Note_on_c, 2, 60, 0
4, 10080, Note_on_c, 2, 59, 100
4, 10320, Note_on_c, 2, 59, 0
4, 10320, Note_on_c, 2, 60, 100
4, 10560, Note_on_c, 2, 60, 0
4, 10560, Note_on_c, 2, 62, 100
4, 11040, Note_on_c, 2, 62, 0
4, 11040, Note_on_c, 2, 57, 100
4, 11520, Note_on_c, 2, 57, 0
4, 11520, Note_on_c, 2, 50, 100
4, 12000, Note_on_c, 2, 50, 0
4, 12000, Note_on_c, 2, 54, 100
4, 12240, Note_on_c, 2, 54, 0
4, 12240, Note_on_c, 2, 52, 100
4, 12480, Note_on_c, 2, 52, 0
4, 12480, Note_on_c, 2, 54, 100
4, 12960, Note_on_c, 2, 54, 0
4, 12960, Note_on_c, 2, 50, 100
4, 13440, Note_on_c, 2, 50, 0
4, 13440, Note_on_c, 2, 55, 100
4, 13920, Note_on_c, 2, 55, 0
4, 13920, Note_on_c, 2, 50, 100
4, 14400, Note_on_c, 2, 50, 0
4, 14400, Note_on_c, 2, 43, 100
4, 14880, Note_on_c, 2, 43, 0
4, 14880, Note_on_c, 2, 55, 100
4, 15120, Note_on_c, 2, 55, 0
4, 15120, Note_on_c, 2, 57, 100
4, 15360, Note_on_c, 2, 57, 0
4, 15360, Note_on_c, 2, 59, 100
4, 15840, Note_on_c, 2, 59, 0
4, 15840, Note_on_c, 2, 57, 100
4, 16080, Note_on_c, 2, 57, 0
4, 16080, Note_on_c, 2, 59, 100
4, 16320, Note_on_c, 2, 59, 0
4, 16320, Note_on_c, 2, 61, 100
4, 16800, Note_on_c, 2, 61, 0
4, 16800, Note_on_c, 2, 59, 100
4, 17040, Note_on_c, 2, 59, 0
4, 17040, Note_on_c, 2, 61, 100
4, 17280, Note_on_c, 2, 61, 0
4, 17280, Note_on_c, 2, 62, 100
4, 17760, Note_on_c, 2, 62, 0
4, 17760, Note_on_c, 2, 61, 100
4, 18240, Note_on_c, 2, 61, 0
4, 18240, Note_on_c, 2, 59, 100
4, 18720, Note_on_c, 2, 59, 0
4, 18720, Note_on_c, 2, 57, 100
4, 19200, Note_on_c, 2, 57, 0
4, 19200, Note_on_c, 2, 55, 100
4, 19680, Note_on_c, 2, 55, 0
4, 19680, Note_on_c, 2, 54, 100
4, 20160, Note_on_c, 2, 54, 0
4, 20160, Note_on_c, 2, 52, 100
4, 20640, Note_on_c, 2, 52, 0
4, 20640, Note_on_c, 2, 50, 100
4, 21120, Note_on_c, 2, 50, 0
4, 21120, Note_on_c, 2, 49, 100
4, 21600, Note_on_c, 2, 49, 0
4, 21600, Note_on_c, 2, 47, 100
4, 21840, Note_on_c, 2, 47, 0
4, 21840, Note_on_c, 2, 49, 100
4, 22080, Note_on_c, 2, 49, 0
4, 22080, Note_on_c, 2, 50, 100
4, 22560, Note_on_c, 2, 50, 0
4, 22560, Note_on_c, 2, 49, 100
4, 22800, Note_on_c, 2, 49, 0
4, 22800, Note_on_c, 2, 50, 100
4, 23040, Note_on_c, 2, 50, 0
4, 23040, Note_on_c, 2, 47, 100
4, 23520, Note_on_c, 2, 47, 0
4, 23520, Note_on_c, 2, 45, 100
4, 23760, Note_on_c, 2, 45, 0
4, 23760, Note_on_c, 2, 47, 100
4, 24000, Note_on_c, 2, 47, 0
4, 24000, Note_on_c, 2, 49, 100
4, 24480, Note_on_c, 2, 49, 0
4, 24480, Note_on_c, 2, 47, 100
4, 24720, Note_on_c, 2, 47, 0
4, 24720, Note_on_c, 2, 49, 100
4, 24960, Note_on_c, 2, 49, 0
4, 24960, Note_on_c, 2, 46, 100
4, 25440, Note_on_c, 2, 46, 0
4, 25440, Note_on_c, 2, 44, 100
4, 25680, Note_on_c, 2, 44, 0
4, 25680, Note_on_c, 2, 46, 100
4, 25920, Note_on_c, 2, 46, 0
4, 25920, Note_on_c, 2, 47, 100
4, 26160, Note_on_c, 2, 47, 0
4, 26160, Note_on_c, 2, 45, 100
4, 26400, Note_on_c, 2, 45, 0
4, 26400, Note_on_c, 2, 43, 100
4, 26640, Note_on_c, 2, 43, 0
4, 26640, Note_on_c, 2, 42, 100
4, 26880, Note_on_c, 2, 42, 0
4, 26880, Note_on_c, 2, 43, 100
4, 27360, Note_on_c, 2, 43, 0
4, 27360, Note_on_c, 2, 40, 100
4, 27840, Note_on_c, 2, 40, 0
4, 27840, Note_on_c, 2, 45, 100
4, 28320, Note_on_c, 2, 45, 0
4, 28320, Note_on_c, 2, 33, 100
4, 28800, Note_on_c, 2, 33, 0
4, 28800, Note_on_c, 2, 38, 100
4, 29280, Note_on_c, 2, 38, 0
4, 29280, Note_on_c, 2, 45, 100
4, 29760, Note_on_c, 2, 45, 0
4, 29760, Note_on_c, 2, 50, 100
4, 30720, Note_on_c, 2, 50, 0
4, 31200, Note_on_c, 2, 55, 100
4, 31440, Note_on_c, 2, 55, 0
4, 31440, Note_on_c, 2, 57, 100
4, 31680, Note_on_c, 2, 57, 0
4, 31680, Note_on_c, 2, 59, 100
4, 32160, Note_on_c, 2, 59, 0
4, 32160, Note_on_c, 2, 60, 100
4, 32640, Note_on_c, 2, 60, 0
4, 32640, Note_on_c, 2, 62, 100
4, 33120, Note_on_c, 2, 62, 0
4, 33120, Note_on_c, 2, 50, 100
4, 33600, Note_on_c, 2, 50, 0
4, 33600, Note_on_c, 2, 62, 100
4, 34560, Note_on_c, 2, 62, 0
4, 35040, Note_on_c, 2, 64, 100
4, 35280, Note_on_c, 2, 64, 0
4, 35280, Note_on_c, 2, 62, 100
4, 35520, Note_on_c, 2, 62, 0
4, 35520, Note_on_c, 2, 61, 100
4, 36000, Note_on_c, 2, 61, 0
4, 36000, Note_on_c, 2, 57, 100
4, 36480, Note_on_c, 2, 57, 0
4, 36480, Note_on_c, 2, 62, 100
4, 36960, Note_on_c, 2, 62, 0
4, 36960, Note_on_c, 2, 50, 100
4, 37440, Note_on_c, 2, 50, 0
4, 37440, Note_on_c, 2, 62, 100
4, 37920, Note_on_c, 2, 62, 0
4, 37920, Note_on_c, 2, 60, 100
4, 38400, Note_on_c, 2, 60, 0
4, 38400, Note_on_c, 2, 60, 100
4, 38480, Note_on_c, 2, 60, 0
4, 38480, Note_on_c, 2, 59, 100
4, 38560, Note_on_c, 2, 59, 0
4, 38560, Note_on_c, 2, 60, 100
4, 38640, Note_on_c, 2, 60, 0
4, 38640, Note_on_c, 2, 59, 100
4, 38880, Note_on_c, 2, 59, 0
4, 38880, Note_on_c, 2, 57, 100
4, 39120, Note_on_c, 2, 57, 0
4, 39120, Note_on_c, 2, 59, 100
4, 39360, Note_on_c, 2, 59, 0
4, 39360, Note_on_c, 2, 60, 100
4, 39840, Note_on_c, 2, 60, 0
4, 39840, Note_on_c, 2, 48, 100
4, 40320, Note_on_c, 2, 48, 0
4, 40320, Note_on_c, 2, 60, 100
4, 40800, Note_on_c, 2, 60, 0
4, 40800, Note_on_c, 2, 59, 100
4, 41040, Note_on_c, 2, 59, 0
4, 41040, Note_on_c, 2, 60, 100
4, 41280, Note_on_c, 2, 60, 0
4, 41280, Note_on_c, 2, 62, 100
4, 41760, Note_on_c, 2, 62, 0
4, 41760, Note_on_c, 2, 57, 100
4, 42240, Note_on_c, 2, 57, 0
4, 42240, Note_on_c, 2, 50, 100
4, 42720, Note_on_c, 2, 50, 0
4, 42720, Note_on_c, 2, 54, 100
4, 42960, Note_on_c, 2, 54, 0
4, 42960, Note_on_c, 2, 52, 100
4, 43200, Note_on_c, 2, 52, 0
4, 43200, Note_on_c, 2, 54, 100
4, 43680, Note_on_c, 2, 54, 0
4, 43680, Note_on_c, 2, 50, 100
4, 44160, Note_on_c, 2, 50, 0
4, 44160, Note_on_c, 2, 55, 100
4, 44640, Note_on_c, 2, 55, 0
4, 44640, Note_on_c, 2, 50, 100
4, 45120, Note_on_c, 2, 50, 0
4, 45120, Note_on_c, 2, 43, 100
4, 45600, Note_on_c, 2, 43, 0
4, 45600, Note_on_c, 2, 55, 100
4, 45840, Note_on_c, 2, 55, 0
4, 45840, Note_on_c, 2, 57, 100
4, 46080, Note_on_c, 2, 57, 0
4, 46080, Note_on_c, 2, 59, 100
4, 46560, Note_on_c, 2, 59, 0
4, 46560, Note_on_c, 2, 57, 100
4, 46800, Note_on_c, 2, 57, 0
4, 46800, Note_on_c, 2, 59, 100
4, 47040, Note_on_c, 2, 59, 0
4, 47040, Note_on_c, 2, 61, 100
4, 47520, Note_on_c, 2, 61, 0
4, 47520, Note_on_c, 2, 59, 100
4, 47760, Note_on_c, 2, 59, 0
4, 47760, Note_on_c, 2, 61, 100
4, 48000, Note_on_c, 2, 61, 0
4, 48000, Note_on_c, 2, 62, 100
4, 48480, Note_on_c, 2, 62, 0
4, 48480, Note_on_c, 2, 61, 100
4, 48960, Note_on_c, 2, 61, 0
4, 48960, Note_on_c, 2, 59, 100
4, 49440, Note_on_c, 2, 59, 0
4, 49440, Note_on_c, 2, 57, 100
4, 49920, Note_on_c, 2, 57, 0
4, 49920, Note_on_c, 2, 55, 100
4, 50400, Note_on_c, 2, 55, 0
4, 50400, Note_on_c, 2, 54, 100
4, 50880, Note_on_c, 2, 54, 0
4, 50880, Note_on_c, 2, 52, 100
4, 51360, Note_on_c, 2, 52, 0
4, 51360, Note_on_c, 2, 50, 100
4, 51840, Note_on_c, 2, 50, 0
4, 51840, Note_on_c, 2, 49, 100
4, 52320, Note_on_c, 2, 49, 0
4, 52320, Note_on_c, 2, 47, 100
4, 52560, Note_on_c, 2, 47, 0
4, 52560, Note_on_c, 2, 49, 100
4, 52800, Note_on_c, 2, 49, 0
4, 52800, Note_on_c, 2, 50, 100
4, 53280, Note_on_c, 2, 50, 0
4, 53280, Note_on_c, 2, 49, 100
4, 53520, Note_on_c, 2, 49, 0
4, 53520, Note_on_c, 2, 50, 100
4, 53760, Note_on_c, 2, 50, 0
4, 53760, Note_on_c, 2, 47, 100
4, 54240, Note_on_c, 2, 47, 0
4, 54240, Note_on_c, 2, 45, 100
4, 54480, Note_on_c, 2, 45, 0
4, 54480, Note_on_c, 2, 47, 100
4, 54720, Note_on_c, 2, 47, 0
4, 54720, Note_on_c, 2, 49, 100
4, 55200, Note_on_c, 2, 49, 0
4, 55200, Note_on_c, 2, 47, 100
4, 55440, Note_on_c, 2, 47, 0
4, 55440, Note_on_c, 2, 49, 100
4, 55680, Note_on_c, 2, 49, 0
4, 55680, Note_on_c, 2, 46, 100
4, 56160, Note_on_c, 2, 46, 0
4, 56160, Note_on_c, 2, 44, 100
4, 56400, Note_on_c, 2, 44, 0
4, 56400, Note_on_c, 2, 46, 100
4, 56640, Note_on_c, 2, 46, 0
4, 56640, Note_on_c, 2, 47, 100
4, 56880, Note_on_c, 2, 47, 0
4, 56880, Note_on_c, 2, 45, 100
4, 57120, Note_on_c, 2, 45, 0
4, 57120, Note_on_c, 2, 43, 100
4, 57360, Note_on_c, 2, 43, 0
4, 57360, Note_on_c, 2, 42, 100
4, 57600, Note_on_c, 2, 42, 0
4, 57600, Note_on_c, 2, 43, 100
4, 58080, Note_on_c, 2, 43, 0
4, 58080, Note_on_c, 2, 40, 100
4, 58560, Note_on_c, 2, 40, 0
4, 58560, Note_on_c, 2, 45, 100
4, 59040, Note_on_c, 2, 45, 0
4, 59040, Note_on_c, 2, 33, 100
4, 59520, Note_on_c, 2, 33, 0
4, 59520, Note_on_c, 2, 38, 100
4, 60000, Note_on_c, 2, 38, 0
4, 60000, Note_on_c, 2, 45, 100
4, 60480, Note_on_c, 2, 45, 0
4, 60480, Note_on_c, 2, 50, 100
4, 61440, Note_on_c, 2, 50, 0
4, 61920, Note_on_c, 2, 50, 100
4, 62160, Note_on_c, 2, 50, 0
4, 62160, Note_on_c, 2, 52, 100
4, 62400, Note_on_c, 2, 52, 0
4, 62400, Note_on_c, 2, 54, 100
4, 62880, Note_on_c, 2, 54, 0
4, 62880, Note_on_c, 2, 50, 100
4, 63360, Note_on_c, 2, 50, 0
4, 63360, Note_on_c, 2, 55, 100
4, 63840, Note_on_c, 2, 55, 0
4, 63840, Note_on_c, 2, 43, 100
4, 64320, Note_on_c, 2, 43, 0
4, 64320, Note_on_c, 2, 55, 100
4, 64800, Note_on_c, 2, 55, 0
4, 64800, Note_on_c, 2, 57, 100
4, 65040, Note_on_c, 2, 57, 0
4, 65040, Note_on_c, 2, 59, 100
4, 65280, Note_on_c, 2, 59, 0
4, 65280, Note_on_c, 2, 60, 100
4, 65760, Note_on_c, 2, 60, 0
4, 65760, Note_on_c, 2, 59, 100
4, 66240, Note_on_c, 2, 59, 0
4, 66240, Note_on_c, 2, 57, 100
4, 66720, Note_on_c, 2, 57, 0
4, 66720, Note_on_c, 2, 55, 100
4, 66960, Note_on_c, 2, 55, 0
4, 66960, Note_on_c, 2, 57, 100
4, 67200, Note_on_c, 2, 57, 0
4, 67200, Note_on_c, 2, 59, 100
4, 67920, Note_on_c, 2, 59, 0
4, 67920, Note_on_c, 2, 57, 100
4, 68160, Note_on_c, 2, 57, 0
4, 68160, Note_on_c, 2, 55, 100
4, 68400, Note_on_c, 2, 55, 0
4, 68400, Note_on_c, 2, 54, 100
4, 68640, Note_on_c, 2, 54, 0
4, 68640, Note_on_c, 2, 52, 100
4, 68880, Note_on_c, 2, 52, 0
4, 68880, Note_on_c, 2, 51, 100
4, 69120, Note_on_c, 2, 51, 0
4, 69120, Note_on_c, 2, 52, 100
4, 69600, Note_on_c, 2, 52, 0
4, 69600, Note_on_c, 2, 64, 100
4, 69840, Note_on_c, 2, 64, 0
4, 69840, Note_on_c, 2, 62, 100
4, 70080, Note_on_c, 2, 62, 0
4, 70080, Note_on_c, 2, 60, 100
4, 70560, Note_on_c, 2, 60, 0
4, 70560, Note_on_c, 2, 59, 100
4, 71040, Note_on_c, 2, 59, 0
4, 71040, Note_on_c, 2, 57, 100
4, 71520, Note_on_c, 2, 57, 0
4, 71520, Note_on_c, 2, 59, 100
4, 71760, Note_on_c, 2, 59, 0
4, 71760, Note_on_c, 2, 60, 100
4, 72000, Note_on_c, 2, 60, 0
4, 72000, Note_on_c, 2, 54, 100
4, 72480, Note_on_c, 2, 54, 0
4, 72480, Note_on_c, 2, 55, 100
4, 72720, Note_on_c, 2, 55, 0
4, 72720, Note_on_c, 2, 57, 100
4, 72960, Note_on_c, 2, 57, 0
4, 72960, Note_on_c, 2, 51, 100
4, 73440, Note_on_c, 2, 51, 0
4, 73440, Note_on_c, 2, 52, 100
4, 73680, Note_on_c, 2, 52, 0
4, 73680, Note_on_c, 2, 54, 100
4, 73920, Note_on_c, 2, 54, 0
4, 73920, Note_on_c, 2, 47, 100
4, 74400, Note_on_c, 2, 47, 0
4, 74400, Note_on_c, 2, 49, 100
4, 74640, Note_on_c, 2, 49, 0
4, 74640, Note_on_c, 2, 51, 100
4, 74880, Note_on_c, 2, 51, 0
4, 74880, Note_on_c, 2, 52, 100
4, 75360, Note_on_c, 2, 52, 0
4, 75360, Note_on_c, 2, 64, 100
4, 75600, Note_on_c, 2, 64, 0
4, 75600, Note_on_c, 2, 63, 100
4, 75840, Note_on_c, 2, 63, 0
4, 75840, Note_on_c, 2, 64, 100
4, 76320, Note_on_c, 2, 64, 0
4, 76320, Note_on_c, 2, 66, 100
4, 76560, Note_on_c, 2, 66, 0
4, 76560, Note_on_c, 2, 67, 100
4, 76800, Note_on_c, 2, 67, 0
4, 76800, Note_on_c, 2, 69, 100
4, 77280, Note_on_c, 2, 69, 0
4, 77280, Note_on_c, 2, 67, 100
4, 77520, Note_on_c, 2, 67, 0
4, 77520, Note_on_c, 2, 69, 100
4, 77760, Note_on_c, 2, 69, 0
4, 77760, Note_on_c, 2, 66, 100
4, 78240, Note_on_c, 2, 66, 0
4, 78240, Note_on_c, 2, 64, 100
4, 78480, Note_on_c, 2, 64, 0
4, 78480, Note_on_c, 2, 66, 100
4, 78720, Note_on_c, 2, 66, 0
4, 78720, Note_on_c, 2, 67, 100
4, 79200, Note_on_c, 2, 67, 0
4, 79200, Note_on_c, 2, 66, 100
4, 79680, Note_on_c, 2, 66, 0
4, 79680, Note_on_c, 2, 64, 100
4, 80160, Note_on_c, 2, 64, 0
4, 80160, Note_on_c, 2, 62, 100
4, 80640, Note_on_c, 2, 62, 0
4, 80640, Note_on_c, 2, 60, 100
4, 81120, Note_on_c, 2, 60, 0
4, 81120, Note_on_c, 2, 59, 100
4, 81600, Note_on_c, 2, 59, 0
4, 81600, Note_on_c, 2, 57, 100
4, 82080, Note_on_c, 2, 57, 0
4, 82080, Note_on_c, 2, 55, 100
4, 82560, Note_on_c, 2, 55, 0
4, 82560, Note_on_c, 2, 54, 100
4, 83040, Note_on_c, 2, 54, 0
4, 83040, Note_on_c, 2, 52, 100
4, 83280, Note_on_c, 2, 52, 0
4, 83280, Note_on_c, 2, 54, 100
4, 83520, Note_on_c, 2, 54, 0
4, 83520, Note_on_c, 2, 55, 100
4, 84000, Note_on_c, 2, 55, 0
4, 84000, Note_on_c, 2, 54, 100
4, 84240, Note_on_c, 2, 54, 0
4, 84240, Note_on_c, 2, 55, 100
4, 84480, Note_on_c, 2, 55, 0
4, 84480, Note_on_c, 2, 52, 100
4, 84960, Note_on_c, 2, 52, 0
4, 84960, Note_on_c, 2, 50, 100
4, 85200, Note_on_c, 2, 50, 0
4, 85200, Note_on_c, 2, 52, 100
4, 85440, Note_on_c, 2, 52, 0
4, 85440, Note_on_c, 2, 54, 100
4, 85920, Note_on_c, 2, 54, 0
4, 85920, Note_on_c, 2, 52, 100
4, 86160, Note_on_c, 2, 52, 0
4, 86160, Note_on_c, 2, 54, 100
4, 86400, Note_on_c, 2, 54, 0
4, 86400, Note_on_c, 2, 51, 100
4, 86880, Note_on_c, 2, 51, 0
4, 86880, Note_on_c, 2, 49, 100
4, 87120, Note_on_c, 2, 49, 0
4, 87120, Note_on_c, 2, 51, 100
4, 87360, Note_on_c, 2, 51, 0
4, 87360, Note_on_c, 2, 52, 100
4, 87600, Note_on_c, 2, 52, 0
4, 87600, Note_on_c, 2, 50, 100
4, 87840, Note_on_c, 2, 50, 0
4, 87840, Note_on_c, 2, 48, 100
4, 88080, Note_on_c, 2, 48, 0
4, 88080, Note_on_c, 2, 47, 100
4, 88320, Note_on_c, 2, 47, 0
4, 88320, Note_on_c, 2, 48, 100
4, 88800, Note_on_c, 2, 48, 0
4, 88800, Note_on_c, 2, 45, 100
4, 89280, Note_on_c, 2, 45, 0
4, 89280, Note_on_c, 2, 50, 100
4, 89760, Note_on_c, 2, 50, 0
4, 89760, Note_on_c, 2, 38, 100
4, 90240, Note_on_c, 2, 38, 0
4, 90240, Note_on_c, 2, 43, 100
4, 90720, Note_on_c, 2, 43, 0
4, 90720, Note_on_c, 2, 50, 100
4, 91200, Note_on_c, 2, 50, 0
4, 91200, Note_on_c, 2, 55, 100
4, 92160, Note_on_c, 2, 55, 0
4, 92640, Note_on_c, 2, 50, 100
4, 92880, Note_on_c, 2, 50, 0
4, 92880, Note_on_c, 2, 52, 100
4, 93120, Note_on_c, 2, 52, 0
4, 93120, Note_on_c, 2, 54, 100
4, 93600, Note_on_c, 2, 54, 0
4, 93600, Note_on_c, 2, 50, 100
4, 94080, Note_on_c, 2, 50, 0
4, 94080, Note_on_c, 2, 55, 100
4, 94560, Note_on_c, 2, 55, 0
4, 94560, Note_on_c, 2, 43, 100
4, 95040, Note_on_c, 2, 43, 0
4, 95040, Note_on_c, 2, 55, 100
4, 95520, Note_on_c, 2, 55, 0
4, 95520, Note_on_c, 2, 57, 100
4, 95760, Note_on_c, 2, 57, 0
4, 95760, Note_on_c, 2, 59, 100
4, 96000, Note_on_c, 2, 59, 0
4, 96000, Note_on_c, 2, 60, 100
4, 96480, Note_on_c, 2, 60, 0
4, 96480, Note_on_c, 2, 59, 100
4, 96960, Note_on_c, 2, 59, 0
4, 96960, Note_on_c, 2, 57, 100
4, 97440, Note_on_c, 2, 57, 0
4, 97440, Note_on_c, 2, 55, 100
4, 97680, Note_on_c, 2, 55, 0
4, 97680, Note_on_c, 2, 57, 100
4, 97920, Note_on_c, 2, 57, 0
4, 97920, Note_on_c, 2, 59, 100
4, 98640, Note_on_c, 2, 59, 0
4, 98640, Note_on_c, 2, 57, 100
4, 98880, Note_on_c, 2, 57, 0
4, 98880, Note_on_c, 2, 55, 100
4, 99120, Note_on_c, 2, 55, 0
4, 99120, Note_on_c, 2, 54, 100
4, 99360, Note_on_c, 2, 54, 0
4, 99360, Note_on_c, 2, 52, 100
4, 99600, Note_on_c, 2, 52, 0
4, 99600, Note_on_c, 2, 51, 100
4, 99840, Note_on_c, 2, 51, 0
4, 99840, Note_on_c, 2, 52, 100
4, 100320, Note_on_c, 2, 52, 0
4, 100320, Note_on_c, 2, 64, 100
4, 100560, Note_on_c, 2, 64, 0
4, 100560, Note_on_c, 2, 62, 100
4, 100800, Note_on_c, 2, 62, 0
4, 100800, Note_on_c, 2, 60, 100
4, 101280, Note_on_c, 2, 60, 0
4, 101280, Note_on_c, 2, 59, 100
4, 101760, Note_on_c, 2, 59, 0
4, 101760, Note_on_c, 2, 57, 100
4, 102240, Note_on_c, 2, 57, 0
4, 102240, Note_on_c, 2, 59, 100
4, 102480, Note_on_c, 2, 59, 0
4, 102480, Note_on_c, 2, 60, 100
4, 102720, Note_on_c, 2, 60, 0
4, 102720, Note_on_c, 2, 54, 100
4, 103200, Note_on_c, 2, 54, 0
4, 103200, Note_on_c, 2, 55, 100
4, 103440, Note_on_c, 2, 55, 0
4, 103440, Note_on_c, 2, 57, 100
4, 103680, Note_on_c, 2, 57, 0
4, 103680, Note_on_c, 2, 51, 100
4, 104160, Note_on_c, 2, 51, 0
4, 104160, Note_on_c, 2, 52, 100
4, 104400, Note_on_c, 2, 52, 0
4, 104400, Note_on_c, 2, 54, 100
4, 104640, Note_on_c, 2, 54, 0
4, 104640, Note_on_c, 2, 47, 100
4, 105120, Note_on_c, 2, 47, 0
4, 105120, Note_on_c, 2, 49, 100
4, 105360, Note_on_c, 2, 49, 0
4, 105360, Note_on_c, 2, 51, 100
4, 105600, Note_on_c, 2, 51, 0
4, 105600, Note_on_c, 2, 52, 100
4, 106080, Note_on_c, 2, 52, 0
4, 106080, Note_on_c, 2, 64, 100
4, 106320, Note_on_c, 2, 64, 0
4, 106320, Note_on_c, 2, 63, 100
4, 106560, Note_on_c, 2, 63, 0
4, 106560, Note_on_c, 2, 64, 100
4, 107040, Note_on_c, 2, 64, 0
4, 107040, Note_on_c, 2, 66, 100
4, 107280, Note_on_c, 2, 66, 0
4, 107280, Note_on_c, 2, 67, 100
4, 107520, Note_on_c, 2, 67, 0
4, 107520, Note_on_c, 2, 69, 100
4, 108000, Note_on_c, 2, 69, 0
4, 108000, Note_on_c, 2, 67, 100
4, 108240, Note_on_c, 2, 67, 0
4, 108240, Note_on_c, 2, 69, 100
4, 108480, Note_on_c, 2, 69, 0
4, 108480, Note_on_c, 2, 66, 100
4, 108960, Note_on_c, 2, 66, 0
4, 108960, Note_on_c, 2, 64, 100
4, 109200, Note_on_c, 2, 64, 0
4, 109200, Note_on_c, 2, 66, 100
4, 109440, Note_on_c, 2, 66, 0
4, 109440, Note_on_c, 2, 67, 100
4, 109920, Note_on_c, 2, 67, 0
4, 109920, Note_on_c, 2, 66, 100
4, 110400, Note_on_c, 2, 66, 0
4, 110400, Note_on_c, 2, 64, 100
4, 110880, Note_on_c, 2, 64, 0
4, 110880, Note_on_c, 2, 62, 100
4, 111360, Note_on_c, 2, 62, 0
4, 111360, Note_on_c, 2, 60, 100
4, 111840, Note_on_c, 2, 60, 0
4, 111840, Note_on_c, 2, 59, 100
4, 112320, Note_on_c, 2, 59, 0
4, 112320, Note_on_c, 2, 57, 100
4, 112800, Note_on_c, 2, 57, 0
4, 112800, Note_on_c, 2, 55, 100
4, 113280, Note_on_c, 2, 55, 0
4, 113280, Note_on_c, 2, 54, 100
4, 113760, Note_on_c, 2, 54, 0
4, 113760, Note_on_c, 2, 52, 100
4, 114000, Note_on_c, 2, 52, 0
4, 114000, Note_on_c, 2, 54, 100
4, 114240, Note_on_c, 2, 54, 0
4, 114240, Note_on_c, 2, 55, 100
4, 114720, Note_on_c, 2, 55, 0
4, 114720, Note_on_c, 2, 54, 100
4, 114960, Note_on_c, 2, 54, 0
4, 114960, Note_on_c, 2, 55, 100
4, 115200, Note_on_c, 2, 55, 0
4, 115200, Note_on_c, 2, 52, 100
4, 115680, Note_on_c, 2, 52, 0
4, 115680, Note_on_c, 2, 50, 100
4, 115920, Note_on_c, 2, 50, 0
4, 115920, Note_on_c, 2, 52, 100
4, 116160, Note_on_c, 2, 52, 0
4, 116160, Note_on_c, 2, 54, 100
4, 116640, Note_on_c, 2, 54, 0
4, 116640, Note_on_c, 2, 52, 100
4, 116880, Note_on_c, 2, 52, 0
4, 116880, Note_on_c, 2, 54, 100
4, 117120, Note_on_c, 2, 54, 0
4, 117120, Note_on_c, 2, 51, 100
4, 117600, Note_on_c, 2, 51, 0
4, 117600, Note_on_c, 2, 49, 100
4, 117840, Note_on_c, 2, 49, 0
4, 117840, Note_on_c, 2, 51, 100
4, 118080, Note_on_c, 2, 51, 0
4, 118080, Note_on_c, 2, 52, 100
4, 118320, Note_on_c, 2, 52, 0
4, 118320, Note_on_c, 2, 50, 100
4, 118560, Note_on_c, 2, 50, 0
4, 118560, Note_on_c, 2, 48, 100
4, 118800, Note_on_c, 2, 48, 0
4, 118800, Note_on_c, 2, 47, 100
4, 119040, Note_on_c, 2, 47, 0
4, 119040, Note_on_c, 2, 48, 100
4, 119520, Note_on_c, 2, 48, 0
4, 119520, Note_on_c, 2, 45, 100
4, 120000, Note_on_c, 2, 45, 0
4, 120000, Note_on_c, 2, 50, 100
4, 120480, Note_on_c, 2, 50, 0
4, 120480, Note_on_c, 2, 38, 100
4, 120960, Note_on_c, 2, 38, 0
4, 120960, Note_on_c, 2, 43, 100
4, 121440, Note_on_c, 2, 43, 0
4, 121440, Note_on_c, 2, 50, 100
4, 121920, Note_on_c, 2, 50, 0
4, 121920, Note_on_c, 2, 55, 100
4, 122880, Note_on_c, 2, 55, 0
4, 122880, End_track
5, 0, Start_track
5, 0, MIDI_port, 0
5, 0, Title_t, "The Goldberg Variations - BWV 988"
5, 0, End_track
6, 0, Start_track
6, 0, MIDI_port, 0
6, 0, Title_t, "Aria with 30 Variations for Harpsichord with 2 Manuals"
6, 0, End_track
7, 0, Start_track
7, 0, MIDI_port, 0
7, 0, Title_t, "--------------------------------------"
7, 0, End_track
8, 0, Start_track
8, 0, MIDI_port, 0
8, 0, Title_t, "Variatio 18 a 1 Clav. Canone alla Sesta"
8, 0, End_track
9, 0, Start_track
9, 0, MIDI_port, 0
9, 0, Title_t, "--------------------------------------"
9, 0, End_track
10, 0, Start_track
10, 0, MIDI_port, 0
10, 0, Title_t, "Sequenced with Cakewalk Pro Audio by"
10, 0, End_track
11, 0, Start_track
11, 0, MIDI_port, 0
11, 0, Title_t, "David J. Grossman - dave@unpronounceable.com"
11, 0, End_track
12, 0, Start_track
12, 0, MIDI_port, 0
12, 0, Title_t, "This and other Bach MIDI files can be found at:"
12, 0, End_track
13, 0, Start_track
13, 0, MIDI_port, 0
13, 0, Title_t, "Dave's J.S. Bach Page"
13, 0, End_track
14, 0, Start_track
14, 0, MIDI_port, 0
14, 0, Title_t, "http://www.unpronounceable.com/bach"
14, 0, End_track
15, 0, Start_track
15, 0, MIDI_port, 0
15, 0, Title_t, "--------------------------------------"
15, 0, End_track
16, 0, Start_track
16, 0, MIDI_port, 0
16, 0, Title_t, "Original Filename: 988-v18.mid"
16, 0, End_track
17, 0, Start_track
17, 0, MIDI_port, 0
17, 0, Title_t, "Last Modified: March 14, 1997"
17, 0, End_track
0, 0, End_of_file
