0, 0, Header, 1, 17, 480
1, 0, Start_track
1, 0, Title_t, "untitled"
1, 0, SMPTE_offset, 96, 0, 3, 0, 0
1, 0, Time_signature, 3, 2, 24, 8
1, 0, Key_signature, 1, "major"
1, 0, Tempo, 600000
1, 0, Marker_t, "A"
1, 23040, Marker_t, "A'"
1, 46080, Marker_t, "B"
1, 69120, Marker_t, "B'"
1, 91680, Tempo, 1200000
1, 91680, End_track
2, 0, Start_track
2, 0, MIDI_port, 0
2, 0, Title_t, "Solo Harpsichord with 2 Manuals"
2, 0, Program_c, 0, 6
2, 0, Control_c, 0, 7, 100
2, 0, Control_c, 0, 10, 69
2, 360, Note_on_c, 0, 59, 100
2, 360, Note_on_c, 0, 62, 100
2, 360, Note_on_c, 0, 67, 100
2, 480, Note_on_c, 0, 67, 0
2, 480, Note_on_c, 0, 62, 0
2, 480, Note_on_c, 0, 59, 0
2, 600, Note_on_c, 0, 59, 100
2, 600, Note_on_c, 0, 62, 100
2, 600, Note_on_c, 0, 67, 100
2, 720, Note_on_c, 0, 67, 0
2, 720, Note_on_c, 0, 62, 0
2, 720, Note_on_c, 0, 59, 0
2, 840, Note_on_c, 0, 59, 100
2, 840, Note_on_c, 0, 62, 100
2, 840, Note_on_c, 0, 67, 100
2, 960, Note_on_c, 0, 67, 0
2, 960, Note_on_c, 0, 62, 0
2, 960, Note_on_c, 0, 59, 0
2, 1080, Note_on_c, 0, 59, 100
2, 1080, Note_on_c, 0, 62, 100
2, 1080, Note_on_c, 0, 67, 100
2, 1200, Note_on_c, 0, 67, 0
2, 1200, Note_on_c, 0, 62, 0
2, 1200, Note_on_c, 0, 59, 0
2, 1320, Note_on_c, 0, 59, 100
2, 1320, Note_on_c, 0, 62, 100
2, 1320, Note_on_c, 0, 67, 100
2, 1440, Note_on_c, 0, 67, 0
2, 1440, Note_on_c, 0, 62, 0
2, 1440, Note_on_c, 0, 59, 0
2, 1800, Note_on_c, 0, 66, 100
2, 1800, Note_on_c, 0, 69, 100
2, 1800, Note_on_c, 0, 74, 100
2, 1920, Note_on_c, 0, 74, 0
2, 1920, Note_on_c, 0, 69, 0
2, 1920, Note_on_c, 0, 66, 0
2, 2040, Note_on_c, 0, 66, 100
2, 2040, Note_on_c, 0, 69, 100
2, 2040, Note_on_c, 0, 74, 100
2, 2160, Note_on_c, 0, 74, 0
2, 2160, Note_on_c, 0, 69, 0
2, 2160, Note_on_c, 0, 66, 0
2, 2280, Note_on_c, 0, 66, 100
2, 2280, Note_on_c, 0, 69, 100
2, 2280, Note_on_c, 0, 74, 100
2, 2400, Note_on_c, 0, 74, 0
2, 2400, Note_on_c, 0, 69, 0
2, 2400, Note_on_c, 0, 66, 0
2, 2520, Note_on_c, 0, 66, 100
2, 2520, Note_on_c, 0, 69, 100
2, 2520, Note_on_c, 0, 74, 100
2, 2640, Note_on_c, 0, 74, 0
2, 2640, Note_on_c, 0, 69, 0
2, 2640, Note_on_c, 0, 66, 0
2, 2760, Note_on_c, 0, 66, 100
2, 2760, Note_on_c, 0, 69, 100
2, 2760, Note_on_c, 0, 74, 100
2, 2880, Note_on_c, 0, 74, 0
2, 2880, Note_on_c, 0, 69, 0
2, 2880, Note_on_c, 0, 66, 0
2, 3240, Note_on_c, 0, 71, 100
2, 3240, Note_on_c, 0, 79, 100
2, 3240, Note_on_c, 0, 76, 100
2, 3360, Note_on_c, 0, 76, 0
2, 3360, Note_on_c, 0, 79, 0
2, 3360, Note_on_c, 0, 71, 0
2, 3480, Note_on_c, 0, 76, 100
2, 3480, Note_on_c, 0, 71, 100
2, 3480, Note_on_c, 0, 79, 100
2, 3600, Note_on_c, 0, 79, 0
2, 3600, Note_on_c, 0, 71, 0
2, 3600, Note_on_c, 0, 76, 0
2, 3720, Note_on_c, 0, 76, 100
2, 3720, Note_on_c, 0, 71, 100
2, 3720, Note_on_c, 0, 79, 100
2, 3840, Note_on_c, 0, 79, 0
2, 3840, Note_on_c, 0, 71, 0
2, 3840, Note_on_c, 0, 76, 0
2, 3960, Note_on_c, 0, 76, 100
2, 3960, Note_on_c, 0, 71, 100
2, 3960, Note_on_c, 0, 79, 100
2, 4080, Note_on_c, 0, 79, 0
2, 4080, Note_on_c, 0, 71, 0
2, 4080, Note_on_c, 0, 76, 0
2, 4200, Note_on_c, 0, 76, 100
2, 4200, Note_on_c, 0, 79, 100
2, 4200, Note_on_c, 0, 73, 100
2, 4320, Note_on_c, 0, 73, 0
2, 4320, Note_on_c, 0, 79, 0
2, 4320, Note_on_c, 0, 76, 0
2, 4320, Note_on_c, 0, 74, 100
2, 4320, Note_on_c, 0, 69, 100
2, 4320, Note_on_c, 0, 78, 100
2, 4440, Note_on_c, 0, 78, 0
2, 4440, Note_on_c, 0, 69, 0
2, 4440, Note_on_c, 0, 74, 0
2, 4880, Note_on_c, 0, 84, 100
2, 4960, Note_on_c, 0, 84, 0
2, 4960, Note_on_c, 0, 83, 100
2, 5040, Note_on_c, 0, 83, 0
2, 5040, Note_on_c, 0, 72, 100
2, 5120, Note_on_c, 0, 72, 0
2, 5120, Note_on_c, 0, 83, 100
2, 5200, Note_on_c, 0, 83, 0
2, 5200, Note_on_c, 0, 81, 100
2, 5280, Note_on_c, 0, 81, 0
2, 5280, Note_on_c, 0, 71, 100
2, 5360, Note_on_c, 0, 71, 0
2, 5360, Note_on_c, 0, 81, 100
2, 5440, Note_on_c, 0, 81, 0
2, 5440, Note_on_c, 0, 79, 100
2, 5520, Note_on_c, 0, 79, 0
2, 5520, Note_on_c, 0, 69, 100
2, 5600, Note_on_c, 0, 69, 0
2, 5600, Note_on_c, 0, 79, 100
2, 5680, Note_on_c, 0, 79, 0
2, 5680, Note_on_c, 0, 78, 100
2, 5760, Note_on_c, 0, 78, 0
2, 5760, Note_on_c, 0, 74, 100
2, 5760, Note_on_c, 0, 79, 100
2, 5760, Note_on_c, 0, 71, 100
2, 6000, Note_on_c, 0, 71, 0
2, 6000, Note_on_c, 0, 79, 0
2, 6000, Note_on_c, 0, 74, 0
2, 6120, Note_on_c, 0, 79, 100
2, 6120, Note_on_c, 0, 71, 100
2, 6120, Note_on_c, 0, 74, 100
2, 6240, Note_on_c, 0, 74, 0
2, 6240, Note_on_c, 0, 71, 0
2, 6240, Note_on_c, 0, 79, 0
2, 6360, Note_on_c, 0, 74, 100
2, 6360, Note_on_c, 0, 71, 100
2, 6360, Note_on_c, 0, 79, 100
2, 6480, Note_on_c, 0, 79, 0
2, 6480, Note_on_c, 0, 71, 0
2, 6480, Note_on_c, 0, 74, 0
2, 6600, Note_on_c, 0, 71, 100
2, 6600, Note_on_c, 0, 79, 100
2, 6600, Note_on_c, 0, 74, 100
2, 6720, Note_on_c, 0, 74, 0
2, 6720, Note_on_c, 0, 79, 0
2, 6720, Note_on_c, 0, 71, 0
2, 6840, Note_on_c, 0, 74, 100
2, 6840, Note_on_c, 0, 71, 100
2, 6840, Note_on_c, 0, 79, 100
2, 6960, Note_on_c, 0, 79, 0
2, 6960, Note_on_c, 0, 71, 0
2, 6960, Note_on_c, 0, 74, 0
2, 7080, Note_on_c, 0, 71, 100
2, 7080, Note_on_c, 0, 74, 100
2, 7080, Note_on_c, 0, 77, 100
2, 7200, Note_on_c, 0, 77, 0
2, 7200, Note_on_c, 0, 74, 0
2, 7200, Note_on_c, 0, 71, 0
2, 7560, Note_on_c, 0, 67, 100
2, 7560, Note_on_c, 0, 72, 100
2, 7560, Note_on_c, 0, 76, 100
2, 7680, Note_on_c, 0, 76, 0
2, 7680, Note_on_c, 0, 72, 0
2, 7680, Note_on_c, 0, 67, 0
2, 7800, Note_on_c, 0, 67, 100
2, 7800, Note_on_c, 0, 72, 100
2, 7800, Note_on_c, 0, 76, 100
2, 7920, Note_on_c, 0, 76, 0
2, 7920, Note_on_c, 0, 72, 0
2, 7920, Note_on_c, 0, 67, 0
2, 8040, Note_on_c, 0, 72, 100
2, 8040, Note_on_c, 0, 67, 100
2, 8040, Note_on_c, 0, 76, 100
2, 8160, Note_on_c, 0, 76, 0
2, 8160, Note_on_c, 0, 67, 0
2, 8160, Note_on_c, 0, 72, 0
2, 8280, Note_on_c, 0, 72, 100
2, 8280, Note_on_c, 0, 67, 100
2, 8280, Note_on_c, 0, 76, 100
2, 8400, Note_on_c, 0, 76, 0
2, 8400, Note_on_c, 0, 67, 0
2, 8400, Note_on_c, 0, 72, 0
2, 8520, Note_on_c, 0, 67, 100
2, 8520, Note_on_c, 0, 72, 100
2, 8520, Note_on_c, 0, 76, 100
2, 8640, Note_on_c, 0, 76, 0
2, 8640, Note_on_c, 0, 72, 0
2, 8640, Note_on_c, 0, 67, 0
2, 9000, Note_on_c, 0, 74, 100
2, 9000, Note_on_c, 0, 69, 100
2, 9000, Note_on_c, 0, 66, 100
2, 9120, Note_on_c, 0, 66, 0
2, 9120, Note_on_c, 0, 69, 0
2, 9120, Note_on_c, 0, 74, 0
2, 9240, Note_on_c, 0, 74, 100
2, 9240, Note_on_c, 0, 66, 100
2, 9240, Note_on_c, 0, 69, 100
2, 9360, Note_on_c, 0, 69, 0
2, 9360, Note_on_c, 0, 66, 0
2, 9360, Note_on_c, 0, 74, 0
2, 9480, Note_on_c, 0, 69, 100
2, 9480, Note_on_c, 0, 74, 100
2, 9480, Note_on_c, 0, 66, 100
2, 9600, Note_on_c, 0, 66, 0
2, 9600, Note_on_c, 0, 74, 0
2, 9600, Note_on_c, 0, 69, 0
2, 9720, Note_on_c, 0, 66, 100
2, 9720, Note_on_c, 0, 74, 100
2, 9720, Note_on_c, 0, 69, 100
2, 9840, Note_on_c, 0, 69, 0
2, 9840, Note_on_c, 0, 74, 0
2, 9840, Note_on_c, 0, 66, 0
2, 9960, Note_on_c, 0, 66, 100
2, 9960, Note_on_c, 0, 69, 100
2, 9960, Note_on_c, 0, 72, 100
2, 10080, Note_on_c, 0, 72, 0
2, 10080, Note_on_c, 0, 69, 0
2, 10080, Note_on_c, 0, 66, 0
2, 10080, Note_on_c, 0, 71, 100
2, 10080, Note_on_c, 0, 67, 100
2, 10080, Note_on_c, 0, 62, 100
2, 10200, Note_on_c, 0, 62, 0
2, 10200, Note_on_c, 0, 67, 0
2, 10200, Note_on_c, 0, 71, 0
2, 10640, Note_on_c, 0, 69, 100
2, 10720, Note_on_c, 0, 69, 0
2, 10720, Note_on_c, 0, 71, 100
2, 10800, Note_on_c, 0, 71, 0
2, 10800, Note_on_c, 0, 72, 100
2, 10880, Note_on_c, 0, 72, 0
2, 10880, Note_on_c, 0, 71, 100
2, 10960, Note_on_c, 0, 71, 0
2, 10960, Note_on_c, 0, 69, 100
2, 11040, Note_on_c, 0, 69, 0
2, 11040, Note_on_c, 0, 71, 100
2, 11120, Note_on_c, 0, 71, 0
2, 11120, Note_on_c, 0, 69, 100
2, 11200, Note_on_c, 0, 69, 0
2, 11200, Note_on_c, 0, 67, 100
2, 11280, Note_on_c, 0, 67, 0
2, 11280, Note_on_c, 0, 76, 100
2, 11360, Note_on_c, 0, 76, 0
2, 11360, Note_on_c, 0, 74, 100
2, 11440, Note_on_c, 0, 74, 0
2, 11440, Note_on_c, 0, 72, 100
2, 11520, Note_on_c, 0, 72, 0
2, 11520, Note_on_c, 0, 74, 100
2, 11600, Note_on_c, 0, 74, 0
2, 11680, Note_on_c, 0, 67, 100
2, 11760, Note_on_c, 0, 67, 0
2, 11760, Note_on_c, 0, 66, 100
2, 11840, Note_on_c, 0, 66, 0
2, 11840, Note_on_c, 0, 60, 100
2, 11920, Note_on_c, 0, 60, 0
2, 12160, Note_on_c, 0, 67, 100
2, 12240, Note_on_c, 0, 67, 0
2, 12240, Note_on_c, 0, 69, 100
2, 12320, Note_on_c, 0, 69, 0
2, 12320, Note_on_c, 0, 66, 100
2, 12400, Note_on_c, 0, 66, 0
2, 12640, Note_on_c, 0, 71, 100
2, 12720, Note_on_c, 0, 71, 0
2, 12720, Note_on_c, 0, 73, 100
2, 12800, Note_on_c, 0, 73, 0
2, 12800, Note_on_c, 0, 69, 100
2, 12880, Note_on_c, 0, 69, 0
2, 13120, Note_on_c, 0, 74, 100
2, 13200, Note_on_c, 0, 74, 0
2, 13200, Note_on_c, 0, 73, 100
2, 13280, Note_on_c, 0, 73, 0
2, 13280, Note_on_c, 0, 67, 100
2, 13360, Note_on_c, 0, 67, 0
2, 13600, Note_on_c, 0, 74, 100
2, 13680, Note_on_c, 0, 74, 0
2, 13680, Note_on_c, 0, 76, 100
2, 13760, Note_on_c, 0, 76, 0
2, 13760, Note_on_c, 0, 73, 100
2, 13840, Note_on_c, 0, 73, 0
2, 14080, Note_on_c, 0, 78, 100
2, 14160, Note_on_c, 0, 78, 0
2, 14160, Note_on_c, 0, 74, 100
2, 14240, Note_on_c, 0, 74, 0
2, 14240, Note_on_c, 0, 71, 100
2, 14320, Note_on_c, 0, 71, 0
2, 14560, Note_on_c, 0, 72, 100
2, 14640, Note_on_c, 0, 72, 0
2, 14640, Note_on_c, 0, 71, 100
2, 14720, Note_on_c, 0, 71, 0
2, 14720, Note_on_c, 0, 67, 100
2, 14800, Note_on_c, 0, 67, 0
2, 15040, Note_on_c, 0, 69, 100
2, 15120, Note_on_c, 0, 69, 0
2, 15120, Note_on_c, 0, 67, 100
2, 15200, Note_on_c, 0, 67, 0
2, 15200, Note_on_c, 0, 64, 100
2, 15280, Note_on_c, 0, 64, 0
2, 15520, Note_on_c, 0, 66, 100
2, 15600, Note_on_c, 0, 66, 0
2, 15600, Note_on_c, 0, 64, 100
2, 15680, Note_on_c, 0, 64, 0
2, 15680, Note_on_c, 0, 61, 100
2, 15760, Note_on_c, 0, 61, 0
2, 16000, Note_on_c, 0, 66, 100
2, 16080, Note_on_c, 0, 66, 0
2, 16080, Note_on_c, 0, 64, 100
2, 16160, Note_on_c, 0, 64, 0
2, 16160, Note_on_c, 0, 61, 100
2, 16240, Note_on_c, 0, 61, 0
2, 16480, Note_on_c, 0, 62, 100
2, 16560, Note_on_c, 0, 62, 0
2, 16560, Note_on_c, 0, 61, 100
2, 16640, Note_on_c, 0, 61, 0
2, 16640, Note_on_c, 0, 57, 100
2, 16720, Note_on_c, 0, 57, 0
2, 16960, Note_on_c, 0, 59, 100
2, 17040, Note_on_c, 0, 59, 0
2, 17040, Note_on_c, 0, 57, 100
2, 17120, Note_on_c, 0, 57, 0
2, 17120, Note_on_c, 0, 54, 100
2, 17200, Note_on_c, 0, 54, 0
2, 17440, Note_on_c, 0, 59, 100
2, 17520, Note_on_c, 0, 59, 0
2, 17520, Note_on_c, 0, 57, 100
2, 17600, Note_on_c, 0, 57, 0
2, 17600, Note_on_c, 0, 54, 100
2, 17680, Note_on_c, 0, 54, 0
2, 17920, Note_on_c, 0, 55, 100
2, 18000, Note_on_c, 0, 55, 0
2, 18000, Note_on_c, 0, 54, 100
2, 18080, Note_on_c, 0, 54, 0
2, 18080, Note_on_c, 0, 50, 100
2, 18160, Note_on_c, 0, 50, 0
2, 18400, Note_on_c, 0, 52, 100
2, 18480, Note_on_c, 0, 52, 0
2, 18480, Note_on_c, 0, 50, 100
2, 18560, Note_on_c, 0, 50, 0
2, 18560, Note_on_c, 0, 47, 100
2, 18640, Note_on_c, 0, 47, 0
2, 18880, Note_on_c, 0, 52, 100
2, 18960, Note_on_c, 0, 52, 0
2, 18960, Note_on_c, 0, 50, 100
2, 19040, Note_on_c, 0, 50, 0
2, 19040, Note_on_c, 0, 47, 100
2, 19120, Note_on_c, 0, 47, 0
2, 19360, Note_on_c, 0, 48, 100
2, 19440, Note_on_c, 0, 48, 0
2, 19440, Note_on_c, 0, 47, 100
2, 19520, Note_on_c, 0, 47, 0
2, 19520, Note_on_c, 0, 43, 100
2, 19600, Note_on_c, 0, 43, 0
2, 19840, Note_on_c, 0, 45, 100
2, 19920, Note_on_c, 0, 45, 0
2, 19920, Note_on_c, 0, 43, 100
2, 20000, Note_on_c, 0, 43, 0
2, 20000, Note_on_c, 0, 40, 100
2, 20080, Note_on_c, 0, 40, 0
2, 20240, Note_on_c, 0, 55, 100
2, 20320, Note_on_c, 0, 55, 0
2, 20320, Note_on_c, 0, 57, 100
2, 20400, Note_on_c, 0, 57, 0
2, 20400, Note_on_c, 0, 64, 100
2, 20480, Note_on_c, 0, 64, 0
2, 20480, Note_on_c, 0, 57, 100
2, 20560, Note_on_c, 0, 57, 0
2, 20560, Note_on_c, 0, 55, 100
2, 20640, Note_on_c, 0, 55, 0
2, 20720, Note_on_c, 0, 54, 100
2, 20800, Note_on_c, 0, 54, 0
2, 20800, Note_on_c, 0, 57, 100
2, 20880, Note_on_c, 0, 57, 0
2, 20880, Note_on_c, 0, 62, 100
2, 20960, Note_on_c, 0, 62, 0
2, 20960, Note_on_c, 0, 57, 100
2, 21040, Note_on_c, 0, 57, 0
2, 21040, Note_on_c, 0, 54, 100
2, 21120, Note_on_c, 0, 54, 0
2, 21200, Note_on_c, 0, 52, 100
2, 21280, Note_on_c, 0, 52, 0
2, 21280, Note_on_c, 0, 55, 100
2, 21360, Note_on_c, 0, 55, 0
2, 21360, Note_on_c, 0, 61, 100
2, 21440, Note_on_c, 0, 61, 0
2, 21440, Note_on_c, 0, 55, 100
2, 21520, Note_on_c, 0, 55, 0
2, 21520, Note_on_c, 0, 52, 100
2, 21600, Note_on_c, 0, 52, 0
2, 21960, Note_on_c, 0, 57, 100
2, 21960, Note_on_c, 0, 62, 100
2, 21960, Note_on_c, 0, 54, 100
2, 22080, Note_on_c, 0, 54, 0
2, 22080, Note_on_c, 0, 62, 0
2, 22080, Note_on_c, 0, 57, 0
2, 22200, Note_on_c, 0, 57, 100
2, 22200, Note_on_c, 0, 62, 100
2, 22200, Note_on_c, 0, 54, 100
2, 22320, Note_on_c, 0, 54, 0
2, 22320, Note_on_c, 0, 62, 0
2, 22320, Note_on_c, 0, 57, 0
2, 22440, Note_on_c, 0, 57, 100
2, 22440, Note_on_c, 0, 62, 100
2, 22440, Note_on_c, 0, 54, 100
2, 22560, Note_on_c, 0, 54, 0
2, 22560, Note_on_c, 0, 62, 0
2, 22560, Note_on_c, 0, 57, 0
2, 23400, Note_on_c, 0, 59, 100
2, 23400, Note_on_c, 0, 62, 100
2, 23400, Note_on_c, 0, 67, 100
2, 23520, Note_on_c, 0, 67, 0
2, 23520, Note_on_c, 0, 62, 0
2, 23520, Note_on_c, 0, 59, 0
2, 23640, Note_on_c, 0, 59, 100
2, 23640, Note_on_c, 0, 62, 100
2, 23640, Note_on_c, 0, 67, 100
2, 23760, Note_on_c, 0, 67, 0
2, 23760, Note_on_c, 0, 62, 0
2, 23760, Note_on_c, 0, 59, 0
2, 23880, Note_on_c, 0, 59, 100
2, 23880, Note_on_c, 0, 62, 100
2, 23880, Note_on_c, 0, 67, 100
2, 24000, Note_on_c, 0, 67, 0
2, 24000, Note_on_c, 0, 62, 0
2, 24000, Note_on_c, 0, 59, 0
2, 24120, Note_on_c, 0, 59, 100
2, 24120, Note_on_c, 0, 62, 100
2, 24120, Note_on_c, 0, 67, 100
2, 24240, Note_on_c, 0, 67, 0
2, 24240, Note_on_c, 0, 62, 0
2, 24240, Note_on_c, 0, 59, 0
2, 24360, Note_on_c, 0, 59, 100
2, 24360, Note_on_c, 0, 62, 100
2, 24360, Note_on_c, 0, 67, 100
2, 24480, Note_on_c, 0, 67, 0
2, 24480, Note_on_c, 0, 62, 0
2, 24480, Note_on_c, 0, 59, 0
2, 24840, Note_on_c, 0, 66, 100
2, 24840, Note_on_c, 0, 69, 100
2, 24840, Note_on_c, 0, 74, 100
2, 24960, Note_on_c, 0, 74, 0
2, 24960, Note_on_c, 0, 69, 0
2, 24960, Note_on_c, 0, 66, 0
2, 25080, Note_on_c, 0, 66, 100
2, 25080, Note_on_c, 0, 69, 100
2, 25080, Note_on_c, 0, 74, 100
2, 25200, Note_on_c, 0, 74, 0
2, 25200, Note_on_c, 0, 69, 0
2, 25200, Note_on_c, 0, 66, 0
2, 25320, Note_on_c, 0, 66, 100
2, 25320, Note_on_c, 0, 69, 100
2, 25320, Note_on_c, 0, 74, 100
2, 25440, Note_on_c, 0, 74, 0
2, 25440, Note_on_c, 0, 69, 0
2, 25440, Note_on_c, 0, 66, 0
2, 25560, Note_on_c, 0, 66, 100
2, 25560, Note_on_c, 0, 69, 100
2, 25560, Note_on_c, 0, 74, 100
2, 25680, Note_on_c, 0, 74, 0
2, 25680, Note_on_c, 0, 69, 0
2, 25680, Note_on_c, 0, 66, 0
2, 25800, Note_on_c, 0, 66, 100
2, 25800, Note_on_c, 0, 69, 100
2, 25800, Note_on_c, 0, 74, 100
2, 25920, Note_on_c, 0, 74, 0
2, 25920, Note_on_c, 0, 69, 0
2, 25920, Note_on_c, 0, 66, 0
2, 26280, Note_on_c, 0, 71, 100
2, 26280, Note_on_c, 0, 79, 100
2, 26280, Note_on_c, 0, 76, 100
2, 26400, Note_on_c, 0, 76, 0
2, 26400, Note_on_c, 0, 79, 0
2, 26400, Note_on_c, 0, 71, 0
2, 26520, Note_on_c, 0, 76, 100
2, 26520, Note_on_c, 0, 71, 100
2, 26520, Note_on_c, 0, 79, 100
2, 26640, Note_on_c, 0, 79, 0
2, 26640, Note_on_c, 0, 71, 0
2, 26640, Note_on_c, 0, 76, 0
2, 26760, Note_on_c, 0, 76, 100
2, 26760, Note_on_c, 0, 71, 100
2, 26760, Note_on_c, 0, 79, 100
2, 26880, Note_on_c, 0, 79, 0
2, 26880, Note_on_c, 0, 71, 0
2, 26880, Note_on_c, 0, 76, 0
2, 27000, Note_on_c, 0, 76, 100
2, 27000, Note_on_c, 0, 71, 100
2, 27000, Note_on_c, 0, 79, 100
2, 27120, Note_on_c, 0, 79, 0
2, 27120, Note_on_c, 0, 71, 0
2, 27120, Note_on_c, 0, 76, 0
2, 27240, Note_on_c, 0, 76, 100
2, 27240, Note_on_c, 0, 79, 100
2, 27240, Note_on_c, 0, 73, 100
2, 27360, Note_on_c, 0, 73, 0
2, 27360, Note_on_c, 0, 79, 0
2, 27360, Note_on_c, 0, 76, 0
2, 27360, Note_on_c, 0, 74, 100
2, 27360, Note_on_c, 0, 69, 100
2, 27360, Note_on_c, 0, 78, 100
2, 27480, Note_on_c, 0, 78, 0
2, 27480, Note_on_c, 0, 69, 0
2, 27480, Note_on_c, 0, 74, 0
2, 27920, Note_on_c, 0, 84, 100
2, 28000, Note_on_c, 0, 84, 0
2, 28000, Note_on_c, 0, 83, 100
2, 28080, Note_on_c, 0, 83, 0
2, 28080, Note_on_c, 0, 72, 100
2, 28160, Note_on_c, 0, 72, 0
2, 28160, Note_on_c, 0, 83, 100
2, 28240, Note_on_c, 0, 83, 0
2, 28240, Note_on_c, 0, 81, 100
2, 28320, Note_on_c, 0, 81, 0
2, 28320, Note_on_c, 0, 71, 100
2, 28400, Note_on_c, 0, 71, 0
2, 28400, Note_on_c, 0, 81, 100
2, 28480, Note_on_c, 0, 81, 0
2, 28480, Note_on_c, 0, 79, 100
2, 28560, Note_on_c, 0, 79, 0
2, 28560, Note_on_c, 0, 69, 100
2, 28640, Note_on_c, 0, 69, 0
2, 28640, Note_on_c, 0, 79, 100
2, 28720, Note_on_c, 0, 79, 0
2, 28720, Note_on_c, 0, 78, 100
2, 28800, Note_on_c, 0, 78, 0
2, 28800, Note_on_c, 0, 74, 100
2, 28800, Note_on_c, 0, 79, 100
2, 28800, Note_on_c, 0, 71, 100
2, 29040, Note_on_c, 0, 71, 0
2, 29040, Note_on_c, 0, 79, 0
2, 29040, Note_on_c, 0, 74, 0
2, 29160, Note_on_c, 0, 79, 100
2, 29160, Note_on_c, 0, 71, 100
2, 29160, Note_on_c, 0, 74, 100
2, 29280, Note_on_c, 0, 74, 0
2, 29280, Note_on_c, 0, 71, 0
2, 29280, Note_on_c, 0, 79, 0
2, 29400, Note_on_c, 0, 74, 100
2, 29400, Note_on_c, 0, 71, 100
2, 29400, Note_on_c, 0, 79, 100
2, 29520, Note_on_c, 0, 79, 0
2, 29520, Note_on_c, 0, 71, 0
2, 29520, Note_on_c, 0, 74, 0
2, 29640, Note_on_c, 0, 71, 100
2, 29640, Note_on_c, 0, 79, 100
2, 29640, Note_on_c, 0, 74, 100
2, 29760, Note_on_c, 0, 74, 0
2, 29760, Note_on_c, 0, 79, 0
2, 29760, Note_on_c, 0, 71, 0
2, 29880, Note_on_c, 0, 74, 100
2, 29880, Note_on_c, 0, 71, 100
2, 29880, Note_on_c, 0, 79, 100
2, 30000, Note_on_c, 0, 79, 0
2, 30000, Note_on_c, 0, 71, 0
2, 30000, Note_on_c, 0, 74, 0
2, 30120, Note_on_c, 0, 71, 100
2, 30120, Note_on_c, 0, 74, 100
2, 30120, Note_on_c, 0, 77, 100
2, 30240, Note_on_c, 0, 77, 0
2, 30240, Note_on_c, 0, 74, 0
2, 30240, Note_on_c, 0, 71, 0
2, 30600, Note_on_c, 0, 67, 100
2, 30600, Note_on_c, 0, 72, 100
2, 30600, Note_on_c, 0, 76, 100
2, 30720, Note_on_c, 0, 76, 0
2, 30720, Note_on_c, 0, 72, 0
2, 30720, Note_on_c, 0, 67, 0
2, 30840, Note_on_c, 0, 67, 100
2, 30840, Note_on_c, 0, 72, 100
2, 30840, Note_on_c, 0, 76, 100
2, 30960, Note_on_c, 0, 76, 0
2, 30960, Note_on_c, 0, 72, 0
2, 30960, Note_on_c, 0, 67, 0
2, 31080, Note_on_c, 0, 72, 100
2, 31080, Note_on_c, 0, 67, 100
2, 31080, Note_on_c, 0, 76, 100
2, 31200, Note_on_c, 0, 76, 0
2, 31200, Note_on_c, 0, 67, 0
2, 31200, Note_on_c, 0, 72, 0
2, 31320, Note_on_c, 0, 72, 100
2, 31320, Note_on_c, 0, 67, 100
2, 31320, Note_on_c, 0, 76, 100
2, 31440, Note_on_c, 0, 76, 0
2, 31440, Note_on_c, 0, 67, 0
2, 31440, Note_on_c, 0, 72, 0
2, 31560, Note_on_c, 0, 67, 100
2, 31560, Note_on_c, 0, 72, 100
2, 31560, Note_on_c, 0, 76, 100
2, 31680, Note_on_c, 0, 76, 0
2, 31680, Note_on_c, 0, 72, 0
2, 31680, Note_on_c, 0, 67, 0
2, 32040, Note_on_c, 0, 74, 100
2, 32040, Note_on_c, 0, 69, 100
2, 32040, Note_on_c, 0, 66, 100
2, 32160, Note_on_c, 0, 66, 0
2, 32160, Note_on_c, 0, 69, 0
2, 32160, Note_on_c, 0, 74, 0
2, 32280, Note_on_c, 0, 74, 100
2, 32280, Note_on_c, 0, 66, 100
2, 32280, Note_on_c, 0, 69, 100
2, 32400, Note_on_c, 0, 69, 0
2, 32400, Note_on_c, 0, 66, 0
2, 32400, Note_on_c, 0, 74, 0
2, 32520, Note_on_c, 0, 69, 100
2, 32520, Note_on_c, 0, 74, 100
2, 32520, Note_on_c, 0, 66, 100
2, 32640, Note_on_c, 0, 66, 0
2, 32640, Note_on_c, 0, 74, 0
2, 32640, Note_on_c, 0, 69, 0
2, 32760, Note_on_c, 0, 66, 100
2, 32760, Note_on_c, 0, 74, 100
2, 32760, Note_on_c, 0, 69, 100
2, 32880, Note_on_c, 0, 69, 0
2, 32880, Note_on_c, 0, 74, 0
2, 32880, Note_on_c, 0, 66, 0
2, 33000, Note_on_c, 0, 66, 100
2, 33000, Note_on_c, 0, 69, 100
2, 33000, Note_on_c, 0, 72, 100
2, 33120, Note_on_c, 0, 72, 0
2, 33120, Note_on_c, 0, 69, 0
2, 33120, Note_on_c, 0, 66, 0
2, 33120, Note_on_c, 0, 71, 100
2, 33120, Note_on_c, 0, 67, 100
2, 33120, Note_on_c, 0, 62, 100
2, 33240, Note_on_c, 0, 62, 0
2, 33240, Note_on_c, 0, 67, 0
2, 33240, Note_on_c, 0, 71, 0
2, 33680, Note_on_c, 0, 69, 100
2, 33760, Note_on_c, 0, 69, 0
2, 33760, Note_on_c, 0, 71, 100
2, 33840, Note_on_c, 0, 71, 0
2, 33840, Note_on_c, 0, 72, 100
2, 33920, Note_on_c, 0, 72, 0
2, 33920, Note_on_c, 0, 71, 100
2, 34000, Note_on_c, 0, 71, 0
2, 34000, Note_on_c, 0, 69, 100
2, 34080, Note_on_c, 0, 69, 0
2, 34080, Note_on_c, 0, 71, 100
2, 34160, Note_on_c, 0, 71, 0
2, 34160, Note_on_c, 0, 69, 100
2, 34240, Note_on_c, 0, 69, 0
2, 34240, Note_on_c, 0, 67, 100
2, 34320, Note_on_c, 0, 67, 0
2, 34320, Note_on_c, 0, 76, 100
2, 34400, Note_on_c, 0, 76, 0
2, 34400, Note_on_c, 0, 74, 100
2, 34480, Note_on_c, 0, 74, 0
2, 34480, Note_on_c, 0, 72, 100
2, 34560, Note_on_c, 0, 72, 0
2, 34560, Note_on_c, 0, 74, 100
2, 34640, Note_on_c, 0, 74, 0
2, 34720, Note_on_c, 0, 67, 100
2, 34800, Note_on_c, 0, 67, 0
2, 34800, Note_on_c, 0, 66, 100
2, 34880, Note_on_c, 0, 66, 0
2, 34880, Note_on_c, 0, 60, 100
2, 34960, Note_on_c, 0, 60, 0
2, 35200, Note_on_c, 0, 67, 100
2, 35280, Note_on_c, 0, 67, 0
2, 35280, Note_on_c, 0, 69, 100
2, 35360, Note_on_c, 0, 69, 0
2, 35360, Note_on_c, 0, 66, 100
2, 35440, Note_on_c, 0, 66, 0
2, 35680, Note_on_c, 0, 71, 100
2, 35760, Note_on_c, 0, 71, 0
2, 35760, Note_on_c, 0, 73, 100
2, 35840, Note_on_c, 0, 73, 0
2, 35840, Note_on_c, 0, 69, 100
2, 35920, Note_on_c, 0, 69, 0
2, 36160, Note_on_c, 0, 74, 100
2, 36240, Note_on_c, 0, 74, 0
2, 36240, Note_on_c, 0, 73, 100
2, 36320, Note_on_c, 0, 73, 0
2, 36320, Note_on_c, 0, 67, 100
2, 36400, Note_on_c, 0, 67, 0
2, 36640, Note_on_c, 0, 74, 100
2, 36720, Note_on_c, 0, 74, 0
2, 36720, Note_on_c, 0, 76, 100
2, 36800, Note_on_c, 0, 76, 0
2, 36800, Note_on_c, 0, 73, 100
2, 36880, Note_on_c, 0, 73, 0
2, 37120, Note_on_c, 0, 78, 100
2, 37200, Note_on_c, 0, 78, 0
2, 37200, Note_on_c, 0, 74, 100
2, 37280, Note_on_c, 0, 74, 0
2, 37280, Note_on_c, 0, 71, 100
2, 37360, Note_on_c, 0, 71, 0
2, 37600, Note_on_c, 0, 72, 100
2, 37680, Note_on_c, 0, 72, 0
2, 37680, Note_on_c, 0, 71, 100
2, 37760, Note_on_c, 0, 71, 0
2, 37760, Note_on_c, 0, 67, 100
2, 37840, Note_on_c, 0, 67, 0
2, 38080, Note_on_c, 0, 69, 100
2, 38160, Note_on_c, 0, 69, 0
2, 38160, Note_on_c, 0, 67, 100
2, 38240, Note_on_c, 0, 67, 0
2, 38240, Note_on_c, 0, 64, 100
2, 38320, Note_on_c, 0, 64, 0
2, 38560, Note_on_c, 0, 66, 100
2, 38640, Note_on_c, 0, 66, 0
2, 38640, Note_on_c, 0, 64, 100
2, 38720, Note_on_c, 0, 64, 0
2, 38720, Note_on_c, 0, 61, 100
2, 38800, Note_on_c, 0, 61, 0
2, 39040, Note_on_c, 0, 66, 100
2, 39120, Note_on_c, 0, 66, 0
2, 39120, Note_on_c, 0, 64, 100
2, 39200, Note_on_c, 0, 64, 0
2, 39200, Note_on_c, 0, 61, 100
2, 39280, Note_on_c, 0, 61, 0
2, 39520, Note_on_c, 0, 62, 100
2, 39600, Note_on_c, 0, 62, 0
2, 39600, Note_on_c, 0, 61, 100
2, 39680, Note_on_c, 0, 61, 0
2, 39680, Note_on_c, 0, 57, 100
2, 39760, Note_on_c, 0, 57, 0
2, 40000, Note_on_c, 0, 59, 100
2, 40080, Note_on_c, 0, 59, 0
2, 40080, Note_on_c, 0, 57, 100
2, 40160, Note_on_c, 0, 57, 0
2, 40160, Note_on_c, 0, 54, 100
2, 40240, Note_on_c, 0, 54, 0
2, 40480, Note_on_c, 0, 59, 100
2, 40560, Note_on_c, 0, 59, 0
2, 40560, Note_on_c, 0, 57, 100
2, 40640, Note_on_c, 0, 57, 0
2, 40640, Note_on_c, 0, 54, 100
2, 40720, Note_on_c, 0, 54, 0
2, 40960, Note_on_c, 0, 55, 100
2, 41040, Note_on_c, 0, 55, 0
2, 41040, Note_on_c, 0, 54, 100
2, 41120, Note_on_c, 0, 54, 0
2, 41120, Note_on_c, 0, 50, 100
2, 41200, Note_on_c, 0, 50, 0
2, 41440, Note_on_c, 0, 52, 100
2, 41520, Note_on_c, 0, 52, 0
2, 41520, Note_on_c, 0, 50, 100
2, 41600, Note_on_c, 0, 50, 0
2, 41600, Note_on_c, 0, 47, 100
2, 41680, Note_on_c, 0, 47, 0
2, 41920, Note_on_c, 0, 52, 100
2, 42000, Note_on_c, 0, 52, 0
2, 42000, Note_on_c, 0, 50, 100
2, 42080, Note_on_c, 0, 50, 0
2, 42080, Note_on_c, 0, 47, 100
2, 42160, Note_on_c, 0, 47, 0
2, 42400, Note_on_c, 0, 48, 100
2, 42480, Note_on_c, 0, 48, 0
2, 42480, Note_on_c, 0, 47, 100
2, 42560, Note_on_c, 0, 47, 0
2, 42560, Note_on_c, 0, 43, 100
2, 42640, Note_on_c, 0, 43, 0
2, 42880, Note_on_c, 0, 45, 100
2, 42960, Note_on_c, 0, 45, 0
2, 42960, Note_on_c, 0, 43, 100
2, 43040, Note_on_c, 0, 43, 0
2, 43040, Note_on_c, 0, 40, 100
2, 43120, Note_on_c, 0, 40, 0
2, 43280, Note_on_c, 0, 55, 100
2, 43360, Note_on_c, 0, 55, 0
2, 43360, Note_on_c, 0, 57, 100
2, 43440, Note_on_c, 0, 57, 0
2, 43440, Note_on_c, 0, 64, 100
2, 43520, Note_on_c, 0, 64, 0
2, 43520, Note_on_c, 0, 57, 100
2, 43600, Note_on_c, 0, 57, 0
2, 43600, Note_on_c, 0, 55, 100
2, 43680, Note_on_c, 0, 55, 0
2, 43760, Note_on_c, 0, 54, 100
2, 43840, Note_on_c, 0, 54, 0
2, 43840, Note_on_c, 0, 57, 100
2, 43920, Note_on_c, 0, 57, 0
2, 43920, Note_on_c, 0, 62, 100
2, 44000, Note_on_c, 0, 62, 0
2, 44000, Note_on_c, 0, 57, 100
2, 44080, Note_on_c, 0, 57, 0
2, 44080, Note_on_c, 0, 54, 100
2, 44160, Note_on_c, 0, 54, 0
2, 44240, Note_on_c, 0, 52, 100
2, 44320, Note_on_c, 0, 52, 0
2, 44320, Note_on_c, 0, 55, 100
2, 44400, Note_on_c, 0, 55, 0
2, 44400, Note_on_c, 0, 61, 100
2, 44480, Note_on_c, 0, 61, 0
2, 44480, Note_on_c, 0, 55, 100
2, 44560, Note_on_c, 0, 55, 0
2, 44560, Note_on_c, 0, 52, 100
2, 44640, Note_on_c, 0, 52, 0
2, 45000, Note_on_c, 0, 57, 100
2, 45000, Note_on_c, 0, 62, 100
2, 45000, Note_on_c, 0, 54, 100
2, 45120, Note_on_c, 0, 54, 0
2, 45120, Note_on_c, 0, 62, 0
2, 45120, Note_on_c, 0, 57, 0
2, 45240, Note_on_c, 0, 57, 100
2, 45240, Note_on_c, 0, 62, 100
2, 45240, Note_on_c, 0, 54, 100
2, 45360, Note_on_c, 0, 54, 0
2, 45360, Note_on_c, 0, 62, 0
2, 45360, Note_on_c, 0, 57, 0
2, 45480, Note_on_c, 0, 57, 100
2, 45480, Note_on_c, 0, 62, 100
2, 45480, Note_on_c, 0, 54, 100
2, 45600, Note_on_c, 0, 54, 0
2, 45600, Note_on_c, 0, 62, 0
2, 45600, Note_on_c, 0, 57, 0
2, 46240, Note_on_c, 0, 83, 100
2, 46320, Note_on_c, 0, 83, 0
2, 46320, Note_on_c, 0, 81, 100
2, 46400, Note_on_c, 0, 81, 0
2, 46400, Note_on_c, 0, 78, 100
2, 46480, Note_on_c, 0, 78, 0
2, 46720, Note_on_c, 0, 79, 100
2, 46800, Note_on_c, 0, 79, 0
2, 46800, Note_on_c, 0, 78, 100
2, 46880, Note_on_c, 0, 78, 0
2, 46880, Note_on_c, 0, 74, 100
2, 46960, Note_on_c, 0, 74, 0
2, 47200, Note_on_c, 0, 76, 100
2, 47280, Note_on_c, 0, 76, 0
2, 47280, Note_on_c, 0, 74, 100
2, 47360, Note_on_c, 0, 74, 0
2, 47360, Note_on_c, 0, 71, 100
2, 47440, Note_on_c, 0, 71, 0
2, 47680, Note_on_c, 0, 76, 100
2, 47760, Note_on_c, 0, 76, 0
2, 47760, Note_on_c, 0, 74, 100
2, 47840, Note_on_c, 0, 74, 0
2, 47840, Note_on_c, 0, 71, 100
2, 47920, Note_on_c, 0, 71, 0
2, 48160, Note_on_c, 0, 72, 100
2, 48240, Note_on_c, 0, 72, 0
2, 48240, Note_on_c, 0, 71, 100
2, 48320, Note_on_c, 0, 71, 0
2, 48320, Note_on_c, 0, 67, 100
2, 48400, Note_on_c, 0, 67, 0
2, 48640, Note_on_c, 0, 69, 100
2, 48720, Note_on_c, 0, 69, 0
2, 48720, Note_on_c, 0, 67, 100
2, 48800, Note_on_c, 0, 67, 0
2, 48800, Note_on_c, 0, 64, 100
2, 48880, Note_on_c, 0, 64, 0
2, 49120, Note_on_c, 0, 65, 100
2, 49200, Note_on_c, 0, 65, 0
2, 49200, Note_on_c, 0, 64, 100
2, 49280, Note_on_c, 0, 64, 0
2, 49280, Note_on_c, 0, 60, 100
2, 49360, Note_on_c, 0, 60, 0
2, 49600, Note_on_c, 0, 62, 100
2, 49680, Note_on_c, 0, 62, 0
2, 49680, Note_on_c, 0, 60, 100
2, 49760, Note_on_c, 0, 60, 0
2, 49760, Note_on_c, 0, 57, 100
2, 49840, Note_on_c, 0, 57, 0
2, 50080, Note_on_c, 0, 59, 100
2, 50160, Note_on_c, 0, 59, 0
2, 50160, Note_on_c, 0, 57, 100
2, 50240, Note_on_c, 0, 57, 0
2, 50240, Note_on_c, 0, 54, 100
2, 50320, Note_on_c, 0, 54, 0
2, 50560, Note_on_c, 0, 55, 100
2, 50640, Note_on_c, 0, 55, 0
2, 50640, Note_on_c, 0, 54, 100
2, 50720, Note_on_c, 0, 54, 0
2, 50720, Note_on_c, 0, 51, 100
2, 50800, Note_on_c, 0, 51, 0
2, 51040, Note_on_c, 0, 52, 100
2, 51120, Note_on_c, 0, 52, 0
2, 51120, Note_on_c, 0, 51, 100
2, 51200, Note_on_c, 0, 51, 0
2, 51200, Note_on_c, 0, 47, 100
2, 51280, Note_on_c, 0, 47, 0
2, 51520, Note_on_c, 0, 48, 100
2, 51600, Note_on_c, 0, 48, 0
2, 51600, Note_on_c, 0, 47, 100
2, 51680, Note_on_c, 0, 47, 0
2, 51680, Note_on_c, 0, 43, 100
2, 51760, Note_on_c, 0, 43, 0
2, 52200, Note_on_c, 0, 67, 100
2, 52200, Note_on_c, 0, 71, 100
2, 52200, Note_on_c, 0, 76, 100
2, 52320, Note_on_c, 0, 76, 0
2, 52320, Note_on_c, 0, 71, 0
2, 52320, Note_on_c, 0, 67, 0
2, 52440, Note_on_c, 0, 67, 100
2, 52440, Note_on_c, 0, 71, 100
2, 52440, Note_on_c, 0, 76, 100
2, 52560, Note_on_c, 0, 76, 0
2, 52560, Note_on_c, 0, 71, 0
2, 52560, Note_on_c, 0, 67, 0
2, 52680, Note_on_c, 0, 67, 100
2, 52680, Note_on_c, 0, 71, 100
2, 52680, Note_on_c, 0, 76, 100
2, 52800, Note_on_c, 0, 76, 0
2, 52800, Note_on_c, 0, 71, 0
2, 52800, Note_on_c, 0, 67, 0
2, 52920, Note_on_c, 0, 67, 100
2, 52920, Note_on_c, 0, 71, 100
2, 52920, Note_on_c, 0, 76, 100
2, 53040, Note_on_c, 0, 76, 0
2, 53040, Note_on_c, 0, 71, 0
2, 53040, Note_on_c, 0, 67, 0
2, 53160, Note_on_c, 0, 67, 100
2, 53160, Note_on_c, 0, 71, 100
2, 53160, Note_on_c, 0, 76, 100
2, 53280, Note_on_c, 0, 76, 0
2, 53280, Note_on_c, 0, 71, 0
2, 53280, Note_on_c, 0, 67, 0
2, 53640, Note_on_c, 0, 67, 100
2, 53640, Note_on_c, 0, 71, 100
2, 53640, Note_on_c, 0, 76, 100
2, 53760, Note_on_c, 0, 76, 0
2, 53760, Note_on_c, 0, 71, 0
2, 53760, Note_on_c, 0, 67, 0
2, 53880, Note_on_c, 0, 67, 100
2, 53880, Note_on_c, 0, 71, 100
2, 53880, Note_on_c, 0, 76, 100
2, 54000, Note_on_c, 0, 76, 0
2, 54000, Note_on_c, 0, 71, 0
2, 54000, Note_on_c, 0, 67, 0
2, 54120, Note_on_c, 0, 67, 100
2, 54120, Note_on_c, 0, 71, 100
2, 54120, Note_on_c, 0, 76, 100
2, 54240, Note_on_c, 0, 76, 0
2, 54240, Note_on_c, 0, 71, 0
2, 54240, Note_on_c, 0, 67, 0
2, 54360, Note_on_c, 0, 67, 100
2, 54360, Note_on_c, 0, 71, 100
2, 54360, Note_on_c, 0, 76, 100
2, 54480, Note_on_c, 0, 76, 0
2, 54480, Note_on_c, 0, 71, 0
2, 54480, Note_on_c, 0, 67, 0
2, 54600, Note_on_c, 0, 67, 100
2, 54600, Note_on_c, 0, 71, 100
2, 54600, Note_on_c, 0, 76, 100
2, 54720, Note_on_c, 0, 76, 0
2, 54720, Note_on_c, 0, 71, 0
2, 54720, Note_on_c, 0, 67, 0
2, 54800, Note_on_c, 0, 78, 100
2, 54880, Note_on_c, 0, 78, 0
2, 54880, Note_on_c, 0, 79, 100
2, 54960, Note_on_c, 0, 79, 0
2, 54960, Note_on_c, 0, 81, 100
2, 55040, Note_on_c, 0, 81, 0
2, 55040, Note_on_c, 0, 83, 100
2, 55120, Note_on_c, 0, 83, 0
2, 55120, Note_on_c, 0, 84, 100
2, 55280, Note_on_c, 0, 84, 0
2, 55280, Note_on_c, 0, 83, 100
2, 55360, Note_on_c, 0, 83, 0
2, 55360, Note_on_c, 0, 81, 100
2, 55440, Note_on_c, 0, 81, 0
2, 55440, Note_on_c, 0, 79, 100
2, 55520, Note_on_c, 0, 79, 0
2, 55520, Note_on_c, 0, 78, 100
2, 55600, Note_on_c, 0, 78, 0
2, 55600, Note_on_c, 0, 76, 100
2, 55680, Note_on_c, 0, 76, 0
2, 55680, Note_on_c, 0, 75, 100
2, 55760, Note_on_c, 0, 75, 0
2, 55760, Note_on_c, 0, 72, 100
2, 55840, Note_on_c, 0, 72, 0
2, 55840, Note_on_c, 0, 71, 100
2, 55920, Note_on_c, 0, 71, 0
2, 55920, Note_on_c, 0, 69, 100
2, 56000, Note_on_c, 0, 69, 0
2, 56000, Note_on_c, 0, 67, 100
2, 56080, Note_on_c, 0, 67, 0
2, 56080, Note_on_c, 0, 66, 100
2, 56160, Note_on_c, 0, 66, 0
2, 56160, Note_on_c, 0, 64, 100
2, 56280, Note_on_c, 0, 64, 0
2, 56280, Note_on_c, 0, 67, 100
2, 56280, Note_on_c, 0, 71, 100
2, 56280, Note_on_c, 0, 76, 100
2, 56400, Note_on_c, 0, 76, 0
2, 56400, Note_on_c, 0, 71, 0
2, 56400, Note_on_c, 0, 67, 0
2, 56520, Note_on_c, 0, 67, 100
2, 56520, Note_on_c, 0, 71, 100
2, 56520, Note_on_c, 0, 76, 100
2, 56640, Note_on_c, 0, 76, 0
2, 56640, Note_on_c, 0, 71, 0
2, 56640, Note_on_c, 0, 67, 0
2, 56760, Note_on_c, 0, 64, 100
2, 56760, Note_on_c, 0, 67, 100
2, 56760, Note_on_c, 0, 72, 100
2, 56880, Note_on_c, 0, 72, 0
2, 56880, Note_on_c, 0, 67, 0
2, 56880, Note_on_c, 0, 64, 0
2, 57000, Note_on_c, 0, 64, 100
2, 57000, Note_on_c, 0, 67, 100
2, 57000, Note_on_c, 0, 72, 100
2, 57120, Note_on_c, 0, 72, 0
2, 57120, Note_on_c, 0, 67, 0
2, 57120, Note_on_c, 0, 64, 0
2, 57240, Note_on_c, 0, 59, 100
2, 57240, Note_on_c, 0, 67, 100
2, 57240, Note_on_c, 0, 64, 100
2, 57360, Note_on_c, 0, 64, 0
2, 57360, Note_on_c, 0, 67, 0
2, 57360, Note_on_c, 0, 59, 0
2, 57480, Note_on_c, 0, 59, 100
2, 57480, Note_on_c, 0, 67, 100
2, 57480, Note_on_c, 0, 64, 100
2, 57600, Note_on_c, 0, 64, 0
2, 57600, Note_on_c, 0, 67, 0
2, 57600, Note_on_c, 0, 59, 0
2, 57680, Note_on_c, 0, 52, 100
2, 57760, Note_on_c, 0, 52, 0
2, 57760, Note_on_c, 0, 53, 100
2, 57840, Note_on_c, 0, 53, 0
2, 57840, Note_on_c, 0, 54, 100
2, 57920, Note_on_c, 0, 54, 0
2, 57920, Note_on_c, 0, 55, 100
2, 58000, Note_on_c, 0, 55, 0
2, 58000, Note_on_c, 0, 56, 100
2, 58080, Note_on_c, 0, 56, 0
2, 58160, Note_on_c, 0, 59, 100
2, 58240, Note_on_c, 0, 59, 0
2, 58240, Note_on_c, 0, 60, 100
2, 58320, Note_on_c, 0, 60, 0
2, 58320, Note_on_c, 0, 62, 100
2, 58400, Note_on_c, 0, 62, 0
2, 58400, Note_on_c, 0, 60, 100
2, 58480, Note_on_c, 0, 60, 0
2, 58480, Note_on_c, 0, 59, 100
2, 58560, Note_on_c, 0, 59, 0
2, 58560, Note_on_c, 0, 60, 100
2, 58640, Note_on_c, 0, 60, 0
2, 58640, Note_on_c, 0, 62, 100
2, 58720, Note_on_c, 0, 62, 0
2, 58720, Note_on_c, 0, 64, 100
2, 58800, Note_on_c, 0, 64, 0
2, 58800, Note_on_c, 0, 66, 100
2, 58880, Note_on_c, 0, 66, 0
2, 58880, Note_on_c, 0, 67, 100
2, 58960, Note_on_c, 0, 67, 0
2, 58960, Note_on_c, 0, 69, 100
2, 59040, Note_on_c, 0, 69, 0
2, 59120, Note_on_c, 0, 50, 100
2, 59200, Note_on_c, 0, 50, 0
2, 59200, Note_on_c, 0, 51, 100
2, 59280, Note_on_c, 0, 51, 0
2, 59280, Note_on_c, 0, 52, 100
2, 59360, Note_on_c, 0, 52, 0
2, 59360, Note_on_c, 0, 53, 100
2, 59440, Note_on_c, 0, 53, 0
2, 59440, Note_on_c, 0, 54, 100
2, 59520, Note_on_c, 0, 54, 0
2, 59600, Note_on_c, 0, 57, 100
2, 59680, Note_on_c, 0, 57, 0
2, 59680, Note_on_c, 0, 59, 100
2, 59760, Note_on_c, 0, 59, 0
2, 59760, Note_on_c, 0, 60, 100
2, 59840, Note_on_c, 0, 60, 0
2, 59840, Note_on_c, 0, 59, 100
2, 59920, Note_on_c, 0, 59, 0
2, 59920, Note_on_c, 0, 57, 100
2, 60000, Note_on_c, 0, 57, 0
2, 60000, Note_on_c, 0, 59, 100
2, 60080, Note_on_c, 0, 59, 0
2, 60080, Note_on_c, 0, 60, 100
2, 60160, Note_on_c, 0, 60, 0
2, 60160, Note_on_c, 0, 62, 100
2, 60240, Note_on_c, 0, 62, 0
2, 60240, Note_on_c, 0, 64, 100
2, 60320, Note_on_c, 0, 64, 0
2, 60320, Note_on_c, 0, 66, 100
2, 60400, Note_on_c, 0, 66, 0
2, 60400, Note_on_c, 0, 67, 100
2, 60480, Note_on_c, 0, 67, 0
2, 60480, Note_on_c, 0, 60, 100
2, 60560, Note_on_c, 0, 60, 0
2, 60640, Note_on_c, 0, 65, 100
2, 60720, Note_on_c, 0, 65, 0
2, 60720, Note_on_c, 0, 64, 100
2, 60800, Note_on_c, 0, 64, 0
2, 60800, Note_on_c, 0, 60, 100
2, 60880, Note_on_c, 0, 60, 0
2, 61120, Note_on_c, 0, 62, 100
2, 61200, Note_on_c, 0, 62, 0
2, 61200, Note_on_c, 0, 60, 100
2, 61280, Note_on_c, 0, 60, 0
2, 61280, Note_on_c, 0, 57, 100
2, 61360, Note_on_c, 0, 57, 0
2, 61600, Note_on_c, 0, 59, 100
2, 61680, Note_on_c, 0, 59, 0
2, 61680, Note_on_c, 0, 57, 100
2, 61760, Note_on_c, 0, 57, 0
2, 61760, Note_on_c, 0, 54, 100
2, 61840, Note_on_c, 0, 54, 0
2, 62080, Note_on_c, 0, 71, 100
2, 62160, Note_on_c, 0, 71, 0
2, 62160, Note_on_c, 0, 69, 100
2, 62240, Note_on_c, 0, 69, 0
2, 62240, Note_on_c, 0, 66, 100
2, 62320, Note_on_c, 0, 66, 0
2, 62560, Note_on_c, 0, 67, 100
2, 62640, Note_on_c, 0, 67, 0
2, 62640, Note_on_c, 0, 66, 100
2, 62720, Note_on_c, 0, 66, 0
2, 62720, Note_on_c, 0, 62, 100
2, 62800, Note_on_c, 0, 62, 0
2, 63040, Note_on_c, 0, 64, 100
2, 63120, Note_on_c, 0, 64, 0
2, 63120, Note_on_c, 0, 62, 100
2, 63200, Note_on_c, 0, 62, 0
2, 63200, Note_on_c, 0, 59, 100
2, 63280, Note_on_c, 0, 59, 0
2, 63520, Note_on_c, 0, 76, 100
2, 63600, Note_on_c, 0, 76, 0
2, 63600, Note_on_c, 0, 74, 100
2, 63680, Note_on_c, 0, 74, 0
2, 63680, Note_on_c, 0, 71, 100
2, 63760, Note_on_c, 0, 71, 0
2, 64000, Note_on_c, 0, 72, 100
2, 64080, Note_on_c, 0, 72, 0
2, 64080, Note_on_c, 0, 71, 100
2, 64160, Note_on_c, 0, 71, 0
2, 64160, Note_on_c, 0, 67, 100
2, 64240, Note_on_c, 0, 67, 0
2, 64480, Note_on_c, 0, 69, 100
2, 64560, Note_on_c, 0, 69, 0
2, 64560, Note_on_c, 0, 67, 100
2, 64640, Note_on_c, 0, 67, 0
2, 64640, Note_on_c, 0, 64, 100
2, 64720, Note_on_c, 0, 64, 0
2, 64960, Note_on_c, 0, 81, 100
2, 65040, Note_on_c, 0, 81, 0
2, 65040, Note_on_c, 0, 79, 100
2, 65120, Note_on_c, 0, 79, 0
2, 65120, Note_on_c, 0, 76, 100
2, 65200, Note_on_c, 0, 76, 0
2, 65440, Note_on_c, 0, 77, 100
2, 65520, Note_on_c, 0, 77, 0
2, 65520, Note_on_c, 0, 76, 100
2, 65600, Note_on_c, 0, 76, 0
2, 65600, Note_on_c, 0, 72, 100
2, 65680, Note_on_c, 0, 72, 0
2, 65920, Note_on_c, 0, 74, 100
2, 66000, Note_on_c, 0, 74, 0
2, 66000, Note_on_c, 0, 72, 100
2, 66080, Note_on_c, 0, 72, 0
2, 66080, Note_on_c, 0, 69, 100
2, 66160, Note_on_c, 0, 69, 0
2, 66320, Note_on_c, 0, 69, 100
2, 66400, Note_on_c, 0, 69, 0
2, 66400, Note_on_c, 0, 71, 100
2, 66480, Note_on_c, 0, 71, 0
2, 66480, Note_on_c, 0, 72, 100
2, 66560, Note_on_c, 0, 72, 0
2, 66560, Note_on_c, 0, 74, 100
2, 66640, Note_on_c, 0, 74, 0
2, 66640, Note_on_c, 0, 76, 100
2, 66800, Note_on_c, 0, 76, 0
2, 66800, Note_on_c, 0, 74, 100
2, 66880, Note_on_c, 0, 74, 0
2, 66880, Note_on_c, 0, 72, 100
2, 66960, Note_on_c, 0, 72, 0
2, 66960, Note_on_c, 0, 71, 100
2, 67040, Note_on_c, 0, 71, 0
2, 67040, Note_on_c, 0, 69, 100
2, 67120, Note_on_c, 0, 69, 0
2, 67120, Note_on_c, 0, 67, 100
2, 67280, Note_on_c, 0, 67, 0
2, 67280, Note_on_c, 0, 66, 100
2, 67360, Note_on_c, 0, 66, 0
2, 67360, Note_on_c, 0, 67, 100
2, 67440, Note_on_c, 0, 67, 0
2, 67440, Note_on_c, 0, 69, 100
2, 67520, Note_on_c, 0, 69, 0
2, 67520, Note_on_c, 0, 71, 100
2, 67600, Note_on_c, 0, 71, 0
2, 67600, Note_on_c, 0, 72, 100
2, 67680, Note_on_c, 0, 72, 0
2, 67680, Note_on_c, 0, 72, 100
2, 67740, Note_on_c, 0, 72, 0
2, 67740, Note_on_c, 0, 71, 100
2, 67920, Note_on_c, 0, 71, 0
2, 68040, Note_on_c, 0, 74, 100
2, 68040, Note_on_c, 0, 79, 100
2, 68040, Note_on_c, 0, 71, 100
2, 68160, Note_on_c, 0, 71, 0
2, 68160, Note_on_c, 0, 79, 0
2, 68160, Note_on_c, 0, 74, 0
2, 68280, Note_on_c, 0, 74, 100
2, 68280, Note_on_c, 0, 79, 100
2, 68280, Note_on_c, 0, 71, 100
2, 68400, Note_on_c, 0, 71, 0
2, 68400, Note_on_c, 0, 79, 0
2, 68400, Note_on_c, 0, 74, 0
2, 68520, Note_on_c, 0, 74, 100
2, 68520, Note_on_c, 0, 79, 100
2, 68520, Note_on_c, 0, 71, 100
2, 68640, Note_on_c, 0, 71, 0
2, 68640, Note_on_c, 0, 79, 0
2, 68640, Note_on_c, 0, 74, 0
2, 69280, Note_on_c, 0, 83, 100
2, 69360, Note_on_c, 0, 83, 0
2, 69360, Note_on_c, 0, 81, 100
2, 69440, Note_on_c, 0, 81, 0
2, 69440, Note_on_c, 0, 78, 100
2, 69520, Note_on_c, 0, 78, 0
2, 69760, Note_on_c, 0, 79, 100
2, 69840, Note_on_c, 0, 79, 0
2, 69840, Note_on_c, 0, 78, 100
2, 69920, Note_on_c, 0, 78, 0
2, 69920, Note_on_c, 0, 74, 100
2, 70000, Note_on_c, 0, 74, 0
2, 70240, Note_on_c, 0, 76, 100
2, 70320, Note_on_c, 0, 76, 0
2, 70320, Note_on_c, 0, 74, 100
2, 70400, Note_on_c, 0, 74, 0
2, 70400, Note_on_c, 0, 71, 100
2, 70480, Note_on_c, 0, 71, 0
2, 70720, Note_on_c, 0, 76, 100
2, 70800, Note_on_c, 0, 76, 0
2, 70800, Note_on_c, 0, 74, 100
2, 70880, Note_on_c, 0, 74, 0
2, 70880, Note_on_c, 0, 71, 100
2, 70960, Note_on_c, 0, 71, 0
2, 71200, Note_on_c, 0, 72, 100
2, 71280, Note_on_c, 0, 72, 0
2, 71280, Note_on_c, 0, 71, 100
2, 71360, Note_on_c, 0, 71, 0
2, 71360, Note_on_c, 0, 67, 100
2, 71440, Note_on_c, 0, 67, 0
2, 71680, Note_on_c, 0, 69, 100
2, 71760, Note_on_c, 0, 69, 0
2, 71760, Note_on_c, 0, 67, 100
2, 71840, Note_on_c, 0, 67, 0
2, 71840, Note_on_c, 0, 64, 100
2, 71920, Note_on_c, 0, 64, 0
2, 72160, Note_on_c, 0, 65, 100
2, 72240, Note_on_c, 0, 65, 0
2, 72240, Note_on_c, 0, 64, 100
2, 72320, Note_on_c, 0, 64, 0
2, 72320, Note_on_c, 0, 60, 100
2, 72400, Note_on_c, 0, 60, 0
2, 72640, Note_on_c, 0, 62, 100
2, 72720, Note_on_c, 0, 62, 0
2, 72720, Note_on_c, 0, 60, 100
2, 72800, Note_on_c, 0, 60, 0
2, 72800, Note_on_c, 0, 57, 100
2, 72880, Note_on_c, 0, 57, 0
2, 73120, Note_on_c, 0, 59, 100
2, 73200, Note_on_c, 0, 59, 0
2, 73200, Note_on_c, 0, 57, 100
2, 73280, Note_on_c, 0, 57, 0
2, 73280, Note_on_c, 0, 54, 100
2, 73360, Note_on_c, 0, 54, 0
2, 73600, Note_on_c, 0, 55, 100
2, 73680, Note_on_c, 0, 55, 0
2, 73680, Note_on_c, 0, 54, 100
2, 73760, Note_on_c, 0, 54, 0
2, 73760, Note_on_c, 0, 51, 100
2, 73840, Note_on_c, 0, 51, 0
2, 74080, Note_on_c, 0, 52, 100
2, 74160, Note_on_c, 0, 52, 0
2, 74160, Note_on_c, 0, 51, 100
2, 74240, Note_on_c, 0, 51, 0
2, 74240, Note_on_c, 0, 47, 100
2, 74320, Note_on_c, 0, 47, 0
2, 74560, Note_on_c, 0, 48, 100
2, 74640, Note_on_c, 0, 48, 0
2, 74640, Note_on_c, 0, 47, 100
2, 74720, Note_on_c, 0, 47, 0
2, 74720, Note_on_c, 0, 43, 100
2, 74800, Note_on_c, 0, 43, 0
2, 75240, Note_on_c, 0, 67, 100
2, 75240, Note_on_c, 0, 71, 100
2, 75240, Note_on_c, 0, 76, 100
2, 75360, Note_on_c, 0, 76, 0
2, 75360, Note_on_c, 0, 71, 0
2, 75360, Note_on_c, 0, 67, 0
2, 75480, Note_on_c, 0, 67, 100
2, 75480, Note_on_c, 0, 71, 100
2, 75480, Note_on_c, 0, 76, 100
2, 75600, Note_on_c, 0, 76, 0
2, 75600, Note_on_c, 0, 71, 0
2, 75600, Note_on_c, 0, 67, 0
2, 75720, Note_on_c, 0, 67, 100
2, 75720, Note_on_c, 0, 71, 100
2, 75720, Note_on_c, 0, 76, 100
2, 75840, Note_on_c, 0, 76, 0
2, 75840, Note_on_c, 0, 71, 0
2, 75840, Note_on_c, 0, 67, 0
2, 75960, Note_on_c, 0, 67, 100
2, 75960, Note_on_c, 0, 71, 100
2, 75960, Note_on_c, 0, 76, 100
2, 76080, Note_on_c, 0, 76, 0
2, 76080, Note_on_c, 0, 71, 0
2, 76080, Note_on_c, 0, 67, 0
2, 76200, Note_on_c, 0, 67, 100
2, 76200, Note_on_c, 0, 71, 100
2, 76200, Note_on_c, 0, 76, 100
2, 76320, Note_on_c, 0, 76, 0
2, 76320, Note_on_c, 0, 71, 0
2, 76320, Note_on_c, 0, 67, 0
2, 76680, Note_on_c, 0, 67, 100
2, 76680, Note_on_c, 0, 71, 100
2, 76680, Note_on_c, 0, 76, 100
2, 76800, Note_on_c, 0, 76, 0
2, 76800, Note_on_c, 0, 71, 0
2, 76800, Note_on_c, 0, 67, 0
2, 76920, Note_on_c, 0, 67, 100
2, 76920, Note_on_c, 0, 71, 100
2, 76920, Note_on_c, 0, 76, 100
2, 77040, Note_on_c, 0, 76, 0
2, 77040, Note_on_c, 0, 71, 0
2, 77040, Note_on_c, 0, 67, 0
2, 77160, Note_on_c, 0, 67, 100
2, 77160, Note_on_c, 0, 71, 100
2, 77160, Note_on_c, 0, 76, 100
2, 77280, Note_on_c, 0, 76, 0
2, 77280, Note_on_c, 0, 71, 0
2, 77280, Note_on_c, 0, 67, 0
2, 77400, Note_on_c, 0, 67, 100
2, 77400, Note_on_c, 0, 71, 100
2, 77400, Note_on_c, 0, 76, 100
2, 77520, Note_on_c, 0, 76, 0
2, 77520, Note_on_c, 0, 71, 0
2, 77520, Note_on_c, 0, 67, 0
2, 77640, Note_on_c, 0, 67, 100
2, 77640, Note_on_c, 0, 71, 100
2, 77640, Note_on_c, 0, 76, 100
2, 77760, Note_on_c, 0, 76, 0
2, 77760, Note_on_c, 0, 71, 0
2, 77760, Note_on_c, 0, 67, 0
2, 77840, Note_on_c, 0, 78, 100
2, 77920, Note_on_c, 0, 78, 0
2, 77920, Note_on_c, 0, 79, 100
2, 78000, Note_on_c, 0, 79, 0
2, 78000, Note_on_c, 0, 81, 100
2, 78080, Note_on_c, 0, 81, 0
2, 78080, Note_on_c, 0, 83, 100
2, 78160, Note_on_c, 0, 83, 0
2, 78160, Note_on_c, 0, 84, 100
2, 78320, Note_on_c, 0, 84, 0
2, 78320, Note_on_c, 0, 83, 100
2, 78400, Note_on_c, 0, 83, 0
2, 78400, Note_on_c, 0, 81, 100
2, 78480, Note_on_c, 0, 81, 0
2, 78480, Note_on_c, 0, 79, 100
2, 78560, Note_on_c, 0, 79, 0
2, 78560, Note_on_c, 0, 78, 100
2, 78640, Note_on_c, 0, 78, 0
2, 78640, Note_on_c, 0, 76, 100
2, 78720, Note_on_c, 0, 76, 0
2, 78720, Note_on_c, 0, 75, 100
2, 78800, Note_on_c, 0, 75, 0
2, 78800, Note_on_c, 0, 72, 100
2, 78880, Note_on_c, 0, 72, 0
2, 78880, Note_on_c, 0, 71, 100
2, 78960, Note_on_c, 0, 71, 0
2, 78960, Note_on_c, 0, 69, 100
2, 79040, Note_on_c, 0, 69, 0
2, 79040, Note_on_c, 0, 67, 100
2, 79120, Note_on_c, 0, 67, 0
2, 79120, Note_on_c, 0, 66, 100
2, 79200, Note_on_c, 0, 66, 0
2, 79200, Note_on_c, 0, 64, 100
2, 79320, Note_on_c, 0, 64, 0
2, 79320, Note_on_c, 0, 67, 100
2, 79320, Note_on_c, 0, 71, 100
2, 79320, Note_on_c, 0, 76, 100
2, 79440, Note_on_c, 0, 76, 0
2, 79440, Note_on_c, 0, 71, 0
2, 79440, Note_on_c, 0, 67, 0
2, 79560, Note_on_c, 0, 67, 100
2, 79560, Note_on_c, 0, 71, 100
2, 79560, Note_on_c, 0, 76, 100
2, 79680, Note_on_c, 0, 76, 0
2, 79680, Note_on_c, 0, 71, 0
2, 79680, Note_on_c, 0, 67, 0
2, 79800, Note_on_c, 0, 64, 100
2, 79800, Note_on_c, 0, 67, 100
2, 79800, Note_on_c, 0, 72, 100
2, 79920, Note_on_c, 0, 72, 0
2, 79920, Note_on_c, 0, 67, 0
2, 79920, Note_on_c, 0, 64, 0
2, 80040, Note_on_c, 0, 64, 100
2, 80040, Note_on_c, 0, 67, 100
2, 80040, Note_on_c, 0, 72, 100
2, 80160, Note_on_c, 0, 72, 0
2, 80160, Note_on_c, 0, 67, 0
2, 80160, Note_on_c, 0, 64, 0
2, 80280, Note_on_c, 0, 59, 100
2, 80280, Note_on_c, 0, 67, 100
2, 80280, Note_on_c, 0, 64, 100
2, 80400, Note_on_c, 0, 64, 0
2, 80400, Note_on_c, 0, 67, 0
2, 80400, Note_on_c, 0, 59, 0
2, 80520, Note_on_c, 0, 59, 100
2, 80520, Note_on_c, 0, 67, 100
2, 80520, Note_on_c, 0, 64, 100
2, 80640, Note_on_c, 0, 64, 0
2, 80640, Note_on_c, 0, 67, 0
2, 80640, Note_on_c, 0, 59, 0
2, 80720, Note_on_c, 0, 52, 100
2, 80800, Note_on_c, 0, 52, 0
2, 80800, Note_on_c, 0, 53, 100
2, 80880, Note_on_c, 0, 53, 0
2, 80880, Note_on_c, 0, 54, 100
2, 80960, Note_on_c, 0, 54, 0
2, 80960, Note_on_c, 0, 55, 100
2, 81040, Note_on_c, 0, 55, 0
2, 81040, Note_on_c, 0, 56, 100
2, 81120, Note_on_c, 0, 56, 0
2, 81200, Note_on_c, 0, 59, 100
2, 81280, Note_on_c, 0, 59, 0
2, 81280, Note_on_c, 0, 60, 100
2, 81360, Note_on_c, 0, 60, 0
2, 81360, Note_on_c, 0, 62, 100
2, 81440, Note_on_c, 0, 62, 0
2, 81440, Note_on_c, 0, 60, 100
2, 81520, Note_on_c, 0, 60, 0
2, 81520, Note_on_c, 0, 59, 100
2, 81600, Note_on_c, 0, 59, 0
2, 81600, Note_on_c, 0, 60, 100
2, 81680, Note_on_c, 0, 60, 0
2, 81680, Note_on_c, 0, 62, 100
2, 81760, Note_on_c, 0, 62, 0
2, 81760, Note_on_c, 0, 64, 100
2, 81840, Note_on_c, 0, 64, 0
2, 81840, Note_on_c, 0, 66, 100
2, 81920, Note_on_c, 0, 66, 0
2, 81920, Note_on_c, 0, 67, 100
2, 82000, Note_on_c, 0, 67, 0
2, 82000, Note_on_c, 0, 69, 100
2, 82080, Note_on_c, 0, 69, 0
2, 82160, Note_on_c, 0, 50, 100
2, 82240, Note_on_c, 0, 50, 0
2, 82240, Note_on_c, 0, 51, 100
2, 82320, Note_on_c, 0, 51, 0
2, 82320, Note_on_c, 0, 52, 100
2, 82400, Note_on_c, 0, 52, 0
2, 82400, Note_on_c, 0, 53, 100
2, 82480, Note_on_c, 0, 53, 0
2, 82480, Note_on_c, 0, 54, 100
2, 82560, Note_on_c, 0, 54, 0
2, 82640, Note_on_c, 0, 57, 100
2, 82720, Note_on_c, 0, 57, 0
2, 82720, Note_on_c, 0, 59, 100
2, 82800, Note_on_c, 0, 59, 0
2, 82800, Note_on_c, 0, 60, 100
2, 82880, Note_on_c, 0, 60, 0
2, 82880, Note_on_c, 0, 59, 100
2, 82960, Note_on_c, 0, 59, 0
2, 82960, Note_on_c, 0, 57, 100
2, 83040, Note_on_c, 0, 57, 0
2, 83040, Note_on_c, 0, 59, 100
2, 83120, Note_on_c, 0, 59, 0
2, 83120, Note_on_c, 0, 60, 100
2, 83200, Note_on_c, 0, 60, 0
2, 83200, Note_on_c, 0, 62, 100
2, 83280, Note_on_c, 0, 62, 0
2, 83280, Note_on_c, 0, 64, 100
2, 83360, Note_on_c, 0, 64, 0
2, 83360, Note_on_c, 0, 66, 100
2, 83440, Note_on_c, 0, 66, 0
2, 83440, Note_on_c, 0, 67, 100
2, 83520, Note_on_c, 0, 67, 0
2, 83520, Note_on_c, 0, 60, 100
2, 83600, Note_on_c, 0, 60, 0
2, 83680, Note_on_c, 0, 65, 100
2, 83760, Note_on_c, 0, 65, 0
2, 83760, Note_on_c, 0, 64, 100
2, 83840, Note_on_c, 0, 64, 0
2, 83840, Note_on_c, 0, 60, 100
2, 83920, Note_on_c, 0, 60, 0
2, 84160, Note_on_c, 0, 62, 100
2, 84240, Note_on_c, 0, 62, 0
2, 84240, Note_on_c, 0, 60, 100
2, 84320, Note_on_c, 0, 60, 0
2, 84320, Note_on_c, 0, 57, 100
2, 84400, Note_on_c, 0, 57, 0
2, 84640, Note_on_c, 0, 59, 100
2, 84720, Note_on_c, 0, 59, 0
2, 84720, Note_on_c, 0, 57, 100
2, 84800, Note_on_c, 0, 57, 0
2, 84800, Note_on_c, 0, 54, 100
2, 84880, Note_on_c, 0, 54, 0
2, 85120, Note_on_c, 0, 71, 100
2, 85200, Note_on_c, 0, 71, 0
2, 85200, Note_on_c, 0, 69, 100
2, 85280, Note_on_c, 0, 69, 0
2, 85280, Note_on_c, 0, 66, 100
2, 85360, Note_on_c, 0, 66, 0
2, 85600, Note_on_c, 0, 67, 100
2, 85680, Note_on_c, 0, 67, 0
2, 85680, Note_on_c, 0, 66, 100
2, 85760, Note_on_c, 0, 66, 0
2, 85760, Note_on_c, 0, 62, 100
2, 85840, Note_on_c, 0, 62, 0
2, 86080, Note_on_c, 0, 64, 100
2, 86160, Note_on_c, 0, 64, 0
2, 86160, Note_on_c, 0, 62, 100
2, 86240, Note_on_c, 0, 62, 0
2, 86240, Note_on_c, 0, 59, 100
2, 86320, Note_on_c, 0, 59, 0
2, 86560, Note_on_c, 0, 76, 100
2, 86640, Note_on_c, 0, 76, 0
2, 86640, Note_on_c, 0, 74, 100
2, 86720, Note_on_c, 0, 74, 0
2, 86720, Note_on_c, 0, 71, 100
2, 86800, Note_on_c, 0, 71, 0
2, 87040, Note_on_c, 0, 72, 100
2, 87120, Note_on_c, 0, 72, 0
2, 87120, Note_on_c, 0, 71, 100
2, 87200, Note_on_c, 0, 71, 0
2, 87200, Note_on_c, 0, 67, 100
2, 87280, Note_on_c, 0, 67, 0
2, 87520, Note_on_c, 0, 69, 100
2, 87600, Note_on_c, 0, 69, 0
2, 87600, Note_on_c, 0, 67, 100
2, 87680, Note_on_c, 0, 67, 0
2, 87680, Note_on_c, 0, 64, 100
2, 87760, Note_on_c, 0, 64, 0
2, 88000, Note_on_c, 0, 81, 100
2, 88080, Note_on_c, 0, 81, 0
2, 88080, Note_on_c, 0, 79, 100
2, 88160, Note_on_c, 0, 79, 0
2, 88160, Note_on_c, 0, 76, 100
2, 88240, Note_on_c, 0, 76, 0
2, 88480, Note_on_c, 0, 77, 100
2, 88560, Note_on_c, 0, 77, 0
2, 88560, Note_on_c, 0, 76, 100
2, 88640, Note_on_c, 0, 76, 0
2, 88640, Note_on_c, 0, 72, 100
2, 88720, Note_on_c, 0, 72, 0
2, 88960, Note_on_c, 0, 74, 100
2, 89040, Note_on_c, 0, 74, 0
2, 89040, Note_on_c, 0, 72, 100
2, 89120, Note_on_c, 0, 72, 0
2, 89120, Note_on_c, 0, 69, 100
2, 89200, Note_on_c, 0, 69, 0
2, 89360, Note_on_c, 0, 69, 100
2, 89440, Note_on_c, 0, 69, 0
2, 89440, Note_on_c, 0, 71, 100
2, 89520, Note_on_c, 0, 71, 0
2, 89520, Note_on_c, 0, 72, 100
2, 89600, Note_on_c, 0, 72, 0
2, 89600, Note_on_c, 0, 74, 100
2, 89680, Note_on_c, 0, 74, 0
2, 89680, Note_on_c, 0, 76, 100
2, 89840, Note_on_c, 0, 76, 0
2, 89840, Note_on_c, 0, 74, 100
2, 89920, Note_on_c, 0, 74, 0
2, 89920, Note_on_c, 0, 72, 100
2, 90000, Note_on_c, 0, 72, 0
2, 90000, Note_on_c, 0, 71, 100
2, 90080, Note_on_c, 0, 71, 0
2, 90080, Note_on_c, 0, 69, 100
2, 90160, Note_on_c, 0, 69, 0
2, 90160, Note_on_c, 0, 67, 100
2, 90320, Note_on_c, 0, 67, 0
2, 90320, Note_on_c, 0, 66, 100
2, 90400, Note_on_c, 0, 66, 0
2, 90400, Note_on_c, 0, 67, 100
2, 90480, Note_on_c, 0, 67, 0
2, 90480, Note_on_c, 0, 69, 100
2, 90560, Note_on_c, 0, 69, 0
2, 90560, Note_on_c, 0, 71, 100
2, 90640, Note_on_c, 0, 71, 0
2, 90640, Note_on_c, 0, 72, 100
2, 90720, Note_on_c, 0, 72, 0
2, 90720, Note_on_c, 0, 72, 100
2, 90780, Note_on_c, 0, 72, 0
2, 90780, Note_on_c, 0, 71, 100
2, 90960, Note_on_c, 0, 71, 0
2, 91080, Note_on_c, 0, 74, 100
2, 91080, Note_on_c, 0, 79, 100
2, 91080, Note_on_c, 0, 71, 100
2, 91200, Note_on_c, 0, 71, 0
2, 91200, Note_on_c, 0, 79, 0
2, 91200, Note_on_c, 0, 74, 0
2, 91320, Note_on_c, 0, 74, 100
2, 91320, Note_on_c, 0, 79, 100
2, 91320, Note_on_c, 0, 71, 100
2, 91440, Note_on_c, 0, 71, 0
2, 91440, Note_on_c, 0, 79, 0
2, 91440, Note_on_c, 0, 74, 0
2, 91560, Note_on_c, 0, 74, 100
2, 91560, Note_on_c, 0, 79, 100
2, 91560, Note_on_c, 0, 71, 100
2, 91680, Note_on_c, 0, 71, 0
2, 91680, Note_on_c, 0, 79, 0
2, 91680, Note_on_c, 0, 74, 0
2, 91680, End_track
3, 0, Start_track
3, 0, MIDI_port, 0
3, 0, Title_t, "--------------------------------------"
3, 0, Program_c, 1, 6
3, 0, Control_c, 1, 7, 100
3, 0, Control_c, 1, 10, 59
3, 0, Note_on_c, 1, 55, 100
3, 240, Note_on_c, 1, 55, 0
3, 240, Note_on_c, 1, 43, 100
3, 480, Note_on_c, 1, 43, 0
3, 480, Note_on_c, 1, 57, 100
3, 480, Note_on_c, 1, 60, 100
3, 480, Note_on_c, 1, 66, 100
3, 600, Note_on_c, 1, 66, 0
3, 600, Note_on_c, 1, 60, 0
3, 600, Note_on_c, 1, 57, 0
3, 720, Note_on_c, 1, 57, 100
3, 720, Note_on_c, 1, 60, 100
3, 720, Note_on_c, 1, 66, 100
3, 840, Note_on_c, 1, 66, 0
3, 840, Note_on_c, 1, 60, 0
3, 840, Note_on_c, 1, 57, 0
3, 960, Note_on_c, 1, 57, 100
3, 960, Note_on_c, 1, 60, 100
3, 960, Note_on_c, 1, 66, 100
3, 1080, Note_on_c, 1, 66, 0
3, 1080, Note_on_c, 1, 60, 0
3, 1080, Note_on_c, 1, 57, 0
3, 1200, Note_on_c, 1, 57, 100
3, 1200, Note_on_c, 1, 60, 100
3, 1200, Note_on_c, 1, 66, 100
3, 1320, Note_on_c, 1, 66, 0
3, 1320, Note_on_c, 1, 60, 0
3, 1320, Note_on_c, 1, 57, 0
3, 1440, Note_on_c, 1, 54, 100
3, 1680, Note_on_c, 1, 54, 0
3, 1680, Note_on_c, 1, 42, 100
3, 1920, Note_on_c, 1, 42, 0
3, 1920, Note_on_c, 1, 64, 100
3, 1920, Note_on_c, 1, 67, 100
3, 1920, Note_on_c, 1, 73, 100
3, 2040, Note_on_c, 1, 73, 0
3, 2040, Note_on_c, 1, 67, 0
3, 2040, Note_on_c, 1, 64, 0
3, 2160, Note_on_c, 1, 64, 100
3, 2160, Note_on_c, 1, 67, 100
3, 2160, Note_on_c, 1, 73, 100
3, 2280, Note_on_c, 1, 73, 0
3, 2280, Note_on_c, 1, 67, 0
3, 2280, Note_on_c, 1, 64, 0
3, 2400, Note_on_c, 1, 64, 100
3, 2400, Note_on_c, 1, 67, 100
3, 2400, Note_on_c, 1, 73, 100
3, 2520, Note_on_c, 1, 73, 0
3, 2520, Note_on_c, 1, 67, 0
3, 2520, Note_on_c, 1, 64, 0
3, 2640, Note_on_c, 1, 64, 100
3, 2640, Note_on_c, 1, 67, 100
3, 2640, Note_on_c, 1, 73, 100
3, 2760, Note_on_c, 1, 73, 0
3, 2760, Note_on_c, 1, 67, 0
3, 2760, Note_on_c, 1, 64, 0
3, 2880, Note_on_c, 1, 52, 100
3, 3120, Note_on_c, 1, 52, 0
3, 3120, Note_on_c, 1, 40, 100
3, 3360, Note_on_c, 1, 40, 0
3, 3360, Note_on_c, 1, 69, 100
3, 3360, Note_on_c, 1, 78, 100
3, 3360, Note_on_c, 1, 74, 100
3, 3480, Note_on_c, 1, 74, 0
3, 3480, Note_on_c, 1, 78, 0
3, 3480, Note_on_c, 1, 69, 0
3, 3600, Note_on_c, 1, 67, 100
3, 3600, Note_on_c, 1, 76, 100
3, 3600, Note_on_c, 1, 73, 100
3, 3720, Note_on_c, 1, 73, 0
3, 3720, Note_on_c, 1, 76, 0
3, 3720, Note_on_c, 1, 67, 0
3, 3840, Note_on_c, 1, 74, 100
3, 3840, Note_on_c, 1, 69, 100
3, 3840, Note_on_c, 1, 78, 100
3, 3960, Note_on_c, 1, 78, 0
3, 3960, Note_on_c, 1, 69, 0
3, 3960, Note_on_c, 1, 74, 0
3, 4080, Note_on_c, 1, 73, 100
3, 4080, Note_on_c, 1, 67, 100
3, 4080, Note_on_c, 1, 76, 100
3, 4200, Note_on_c, 1, 76, 0
3, 4200, Note_on_c, 1, 67, 0
3, 4200, Note_on_c, 1, 73, 0
3, 4440, Note_on_c, 1, 62, 100
3, 4560, Note_on_c, 1, 62, 0
3, 4560, Note_on_c, 1, 57, 100
3, 4680, Note_on_c, 1, 57, 0
3, 4680, Note_on_c, 1, 54, 100
3, 4800, Note_on_c, 1, 54, 0
3, 4800, Note_on_c, 1, 50, 100
3, 4960, Note_on_c, 1, 50, 0
3, 4960, Note_on_c, 1, 62, 100
3, 5040, Note_on_c, 1, 62, 0
3, 5040, Note_on_c, 1, 52, 100
3, 5200, Note_on_c, 1, 52, 0
3, 5200, Note_on_c, 1, 60, 100
3, 5280, Note_on_c, 1, 60, 0
3, 5280, Note_on_c, 1, 50, 100
3, 5440, Note_on_c, 1, 50, 0
3, 5440, Note_on_c, 1, 59, 100
3, 5520, Note_on_c, 1, 59, 0
3, 5520, Note_on_c, 1, 48, 100
3, 5680, Note_on_c, 1, 48, 0
3, 5680, Note_on_c, 1, 57, 100
3, 5760, Note_on_c, 1, 57, 0
3, 5760, Note_on_c, 1, 47, 100
3, 6000, Note_on_c, 1, 47, 0
3, 6000, Note_on_c, 1, 59, 100
3, 6240, Note_on_c, 1, 59, 0
3, 6240, Note_on_c, 1, 78, 100
3, 6240, Note_on_c, 1, 72, 100
3, 6240, Note_on_c, 1, 69, 100
3, 6360, Note_on_c, 1, 69, 0
3, 6360, Note_on_c, 1, 72, 0
3, 6360, Note_on_c, 1, 78, 0
3, 6480, Note_on_c, 1, 72, 100
3, 6480, Note_on_c, 1, 69, 100
3, 6480, Note_on_c, 1, 78, 100
3, 6600, Note_on_c, 1, 78, 0
3, 6600, Note_on_c, 1, 69, 0
3, 6600, Note_on_c, 1, 72, 0
3, 6720, Note_on_c, 1, 78, 100
3, 6720, Note_on_c, 1, 69, 100
3, 6720, Note_on_c, 1, 72, 100
3, 6840, Note_on_c, 1, 72, 0
3, 6840, Note_on_c, 1, 69, 0
3, 6840, Note_on_c, 1, 78, 0
3, 6960, Note_on_c, 1, 74, 100
3, 6960, Note_on_c, 1, 67, 100
3, 6960, Note_on_c, 1, 71, 100
3, 7080, Note_on_c, 1, 71, 0
3, 7080, Note_on_c, 1, 67, 0
3, 7080, Note_on_c, 1, 74, 0
3, 7200, Note_on_c, 1, 48, 100
3, 7440, Note_on_c, 1, 48, 0
3, 7440, Note_on_c, 1, 60, 100
3, 7680, Note_on_c, 1, 60, 0
3, 7680, Note_on_c, 1, 71, 100
3, 7680, Note_on_c, 1, 65, 100
3, 7680, Note_on_c, 1, 74, 100
3, 7800, Note_on_c, 1, 74, 0
3, 7800, Note_on_c, 1, 65, 0
3, 7800, Note_on_c, 1, 71, 0
3, 7920, Note_on_c, 1, 74, 100
3, 7920, Note_on_c, 1, 71, 100
3, 7920, Note_on_c, 1, 65, 100
3, 8040, Note_on_c, 1, 65, 0
3, 8040, Note_on_c, 1, 71, 0
3, 8040, Note_on_c, 1, 74, 0
3, 8160, Note_on_c, 1, 65, 100
3, 8160, Note_on_c, 1, 74, 100
3, 8160, Note_on_c, 1, 71, 100
3, 8280, Note_on_c, 1, 71, 0
3, 8280, Note_on_c, 1, 74, 0
3, 8280, Note_on_c, 1, 65, 0
3, 8400, Note_on_c, 1, 69, 100
3, 8400, Note_on_c, 1, 72, 100
3, 8400, Note_on_c, 1, 64, 100
3, 8520, Note_on_c, 1, 64, 0
3, 8520, Note_on_c, 1, 72, 0
3, 8520, Note_on_c, 1, 69, 0
3, 8640, Note_on_c, 1, 50, 100
3, 8880, Note_on_c, 1, 50, 0
3, 8880, Note_on_c, 1, 62, 100
3, 9120, Note_on_c, 1, 62, 0
3, 9120, Note_on_c, 1, 73, 100
3, 9120, Note_on_c, 1, 67, 100
3, 9120, Note_on_c, 1, 64, 100
3, 9240, Note_on_c, 1, 64, 0
3, 9240, Note_on_c, 1, 67, 0
3, 9240, Note_on_c, 1, 73, 0
3, 9360, Note_on_c, 1, 64, 100
3, 9360, Note_on_c, 1, 67, 100
3, 9360, Note_on_c, 1, 73, 100
3, 9480, Note_on_c, 1, 73, 0
3, 9480, Note_on_c, 1, 67, 0
3, 9480, Note_on_c, 1, 64, 0
3, 9600, Note_on_c, 1, 73, 100
3, 9600, Note_on_c, 1, 67, 100
3, 9600, Note_on_c, 1, 64, 100
3, 9720, Note_on_c, 1, 64, 0
3, 9720, Note_on_c, 1, 67, 0
3, 9720, Note_on_c, 1, 73, 0
3, 9840, Note_on_c, 1, 62, 100
3, 9840, Note_on_c, 1, 66, 100
3, 9840, Note_on_c, 1, 69, 100
3, 9960, Note_on_c, 1, 69, 0
3, 9960, Note_on_c, 1, 66, 0
3, 9960, Note_on_c, 1, 62, 0
3, 10200, Note_on_c, 1, 55, 100
3, 10320, Note_on_c, 1, 55, 0
3, 10320, Note_on_c, 1, 50, 100
3, 10440, Note_on_c, 1, 50, 0
3, 10440, Note_on_c, 1, 47, 100
3, 10560, Note_on_c, 1, 47, 0
3, 10560, Note_on_c, 1, 43, 100
3, 10720, Note_on_c, 1, 43, 0
3, 10720, Note_on_c, 1, 55, 100
3, 10800, Note_on_c, 1, 55, 0
3, 10800, Note_on_c, 1, 54, 100
3, 10960, Note_on_c, 1, 54, 0
3, 10960, Note_on_c, 1, 62, 100
3, 11040, Note_on_c, 1, 62, 0
3, 11040, Note_on_c, 1, 55, 100
3, 11200, Note_on_c, 1, 55, 0
3, 11200, Note_on_c, 1, 64, 100
3, 11280, Note_on_c, 1, 64, 0
3, 11280, Note_on_c, 1, 57, 100
3, 11440, Note_on_c, 1, 57, 0
3, 11440, Note_on_c, 1, 66, 100
3, 11520, Note_on_c, 1, 66, 0
3, 11520, Note_on_c, 1, 59, 100
3, 11600, Note_on_c, 1, 59, 0
3, 11600, Note_on_c, 1, 62, 100
3, 11680, Note_on_c, 1, 62, 0
3, 11920, Note_on_c, 1, 57, 100
3, 12000, Note_on_c, 1, 57, 0
3, 12000, Note_on_c, 1, 59, 100
3, 12080, Note_on_c, 1, 59, 0
3, 12080, Note_on_c, 1, 62, 100
3, 12160, Note_on_c, 1, 62, 0
3, 12400, Note_on_c, 1, 60, 100
3, 12480, Note_on_c, 1, 60, 0
3, 12480, Note_on_c, 1, 62, 100
3, 12560, Note_on_c, 1, 62, 0
3, 12560, Note_on_c, 1, 67, 100
3, 12640, Note_on_c, 1, 67, 0
3, 12880, Note_on_c, 1, 64, 100
3, 12960, Note_on_c, 1, 64, 0
3, 12960, Note_on_c, 1, 66, 100
3, 13040, Note_on_c, 1, 66, 0
3, 13040, Note_on_c, 1, 69, 100
3, 13120, Note_on_c, 1, 69, 0
3, 13360, Note_on_c, 1, 64, 100
3, 13440, Note_on_c, 1, 64, 0
3, 13440, Note_on_c, 1, 66, 100
3, 13520, Note_on_c, 1, 66, 0
3, 13520, Note_on_c, 1, 69, 100
3, 13600, Note_on_c, 1, 69, 0
3, 13840, Note_on_c, 1, 67, 100
3, 13920, Note_on_c, 1, 67, 0
3, 13920, Note_on_c, 1, 69, 100
3, 14000, Note_on_c, 1, 69, 0
3, 14000, Note_on_c, 1, 74, 100
3, 14080, Note_on_c, 1, 74, 0
3, 14320, Note_on_c, 1, 69, 100
3, 14400, Note_on_c, 1, 69, 0
3, 14400, Note_on_c, 1, 67, 100
3, 14480, Note_on_c, 1, 67, 0
3, 14480, Note_on_c, 1, 71, 100
3, 14560, Note_on_c, 1, 71, 0
3, 14800, Note_on_c, 1, 66, 100
3, 14880, Note_on_c, 1, 66, 0
3, 14880, Note_on_c, 1, 64, 100
3, 14960, Note_on_c, 1, 64, 0
3, 14960, Note_on_c, 1, 67, 100
3, 15040, Note_on_c, 1, 67, 0
3, 15280, Note_on_c, 1, 62, 100
3, 15360, Note_on_c, 1, 62, 0
3, 15360, Note_on_c, 1, 61, 100
3, 15440, Note_on_c, 1, 61, 0
3, 15440, Note_on_c, 1, 64, 100
3, 15520, Note_on_c, 1, 64, 0
3, 15760, Note_on_c, 1, 59, 100
3, 15840, Note_on_c, 1, 59, 0
3, 15840, Note_on_c, 1, 57, 100
3, 15920, Note_on_c, 1, 57, 0
3, 15920, Note_on_c, 1, 61, 100
3, 16000, Note_on_c, 1, 61, 0
3, 16240, Note_on_c, 1, 59, 100
3, 16320, Note_on_c, 1, 59, 0
3, 16320, Note_on_c, 1, 57, 100
3, 16400, Note_on_c, 1, 57, 0
3, 16400, Note_on_c, 1, 61, 100
3, 16480, Note_on_c, 1, 61, 0
3, 16720, Note_on_c, 1, 55, 100
3, 16800, Note_on_c, 1, 55, 0
3, 16800, Note_on_c, 1, 54, 100
3, 16880, Note_on_c, 1, 54, 0
3, 16880, Note_on_c, 1, 57, 100
3, 16960, Note_on_c, 1, 57, 0
3, 17200, Note_on_c, 1, 52, 100
3, 17280, Note_on_c, 1, 52, 0
3, 17280, Note_on_c, 1, 50, 100
3, 17360, Note_on_c, 1, 50, 0
3, 17360, Note_on_c, 1, 54, 100
3, 17440, Note_on_c, 1, 54, 0
3, 17680, Note_on_c, 1, 52, 100
3, 17760, Note_on_c, 1, 52, 0
3, 17760, Note_on_c, 1, 50, 100
3, 17840, Note_on_c, 1, 50, 0
3, 17840, Note_on_c, 1, 54, 100
3, 17920, Note_on_c, 1, 54, 0
3, 18160, Note_on_c, 1, 48, 100
3, 18240, Note_on_c, 1, 48, 0
3, 18240, Note_on_c, 1, 47, 100
3, 18320, Note_on_c, 1, 47, 0
3, 18320, Note_on_c, 1, 50, 100
3, 18400, Note_on_c, 1, 50, 0
3, 18640, Note_on_c, 1, 45, 100
3, 18720, Note_on_c, 1, 45, 0
3, 18720, Note_on_c, 1, 43, 100
3, 18800, Note_on_c, 1, 43, 0
3, 18800, Note_on_c, 1, 47, 100
3, 18880, Note_on_c, 1, 47, 0
3, 19120, Note_on_c, 1, 45, 100
3, 19200, Note_on_c, 1, 45, 0
3, 19200, Note_on_c, 1, 43, 100
3, 19280, Note_on_c, 1, 43, 0
3, 19280, Note_on_c, 1, 47, 100
3, 19360, Note_on_c, 1, 47, 0
3, 19600, Note_on_c, 1, 42, 100
3, 19680, Note_on_c, 1, 42, 0
3, 19680, Note_on_c, 1, 40, 100
3, 19760, Note_on_c, 1, 40, 0
3, 19760, Note_on_c, 1, 43, 100
3, 19840, Note_on_c, 1, 43, 0
3, 20080, Note_on_c, 1, 38, 100
3, 20160, Note_on_c, 1, 38, 0
3, 20160, Note_on_c, 1, 37, 100
3, 20400, Note_on_c, 1, 37, 0
3, 20400, Note_on_c, 1, 49, 100
3, 20640, Note_on_c, 1, 49, 0
3, 20640, Note_on_c, 1, 50, 100
3, 20880, Note_on_c, 1, 50, 0
3, 20880, Note_on_c, 1, 42, 100
3, 21120, Note_on_c, 1, 42, 0
3, 21120, Note_on_c, 1, 43, 100
3, 21360, Note_on_c, 1, 43, 0
3, 21360, Note_on_c, 1, 45, 100
3, 21600, Note_on_c, 1, 45, 0
3, 21600, Note_on_c, 1, 38, 100
3, 21840, Note_on_c, 1, 38, 0
3, 21840, Note_on_c, 1, 50, 100
3, 22080, Note_on_c, 1, 50, 0
3, 22080, Note_on_c, 1, 52, 100
3, 22080, Note_on_c, 1, 55, 100
3, 22080, Note_on_c, 1, 61, 100
3, 22200, Note_on_c, 1, 61, 0
3, 22200, Note_on_c, 1, 55, 0
3, 22200, Note_on_c, 1, 52, 0
3, 22320, Note_on_c, 1, 52, 100
3, 22320, Note_on_c, 1, 55, 100
3, 22320, Note_on_c, 1, 61, 100
3, 22440, Note_on_c, 1, 61, 0
3, 22440, Note_on_c, 1, 55, 0
3, 22440, Note_on_c, 1, 52, 0
3, 22560, Note_on_c, 1, 38, 100
3, 23040, Note_on_c, 1, 38, 0
3, 23040, Note_on_c, 1, 55, 100
3, 23280, Note_on_c, 1, 55, 0
3, 23280, Note_on_c, 1, 43, 100
3, 23520, Note_on_c, 1, 43, 0
3, 23520, Note_on_c, 1, 57, 100
3, 23520, Note_on_c, 1, 60, 100
3, 23520, Note_on_c, 1, 66, 100
3, 23640, Note_on_c, 1, 66, 0
3, 23640, Note_on_c, 1, 60, 0
3, 23640, Note_on_c, 1, 57, 0
3, 23760, Note_on_c, 1, 57, 100
3, 23760, Note_on_c, 1, 60, 100
3, 23760, Note_on_c, 1, 66, 100
3, 23880, Note_on_c, 1, 66, 0
3, 23880, Note_on_c, 1, 60, 0
3, 23880, Note_on_c, 1, 57, 0
3, 24000, Note_on_c, 1, 57, 100
3, 24000, Note_on_c, 1, 60, 100
3, 24000, Note_on_c, 1, 66, 100
3, 24120, Note_on_c, 1, 66, 0
3, 24120, Note_on_c, 1, 60, 0
3, 24120, Note_on_c, 1, 57, 0
3, 24240, Note_on_c, 1, 57, 100
3, 24240, Note_on_c, 1, 60, 100
3, 24240, Note_on_c, 1, 66, 100
3, 24360, Note_on_c, 1, 66, 0
3, 24360, Note_on_c, 1, 60, 0
3, 24360, Note_on_c, 1, 57, 0
3, 24480, Note_on_c, 1, 54, 100
3, 24720, Note_on_c, 1, 54, 0
3, 24720, Note_on_c, 1, 42, 100
3, 24960, Note_on_c, 1, 42, 0
3, 24960, Note_on_c, 1, 64, 100
3, 24960, Note_on_c, 1, 67, 100
3, 24960, Note_on_c, 1, 73, 100
3, 25080, Note_on_c, 1, 73, 0
3, 25080, Note_on_c, 1, 67, 0
3, 25080, Note_on_c, 1, 64, 0
3, 25200, Note_on_c, 1, 64, 100
3, 25200, Note_on_c, 1, 67, 100
3, 25200, Note_on_c, 1, 73, 100
3, 25320, Note_on_c, 1, 73, 0
3, 25320, Note_on_c, 1, 67, 0
3, 25320, Note_on_c, 1, 64, 0
3, 25440, Note_on_c, 1, 64, 100
3, 25440, Note_on_c, 1, 67, 100
3, 25440, Note_on_c, 1, 73, 100
3, 25560, Note_on_c, 1, 73, 0
3, 25560, Note_on_c, 1, 67, 0
3, 25560, Note_on_c, 1, 64, 0
3, 25680, Note_on_c, 1, 64, 100
3, 25680, Note_on_c, 1, 67, 100
3, 25680, Note_on_c, 1, 73, 100
3, 25800, Note_on_c, 1, 73, 0
3, 25800, Note_on_c, 1, 67, 0
3, 25800, Note_on_c, 1, 64, 0
3, 25920, Note_on_c, 1, 52, 100
3, 26160, Note_on_c, 1, 52, 0
3, 26160, Note_on_c, 1, 40, 100
3, 26400, Note_on_c, 1, 40, 0
3, 26400, Note_on_c, 1, 69, 100
3, 26400, Note_on_c, 1, 78, 100
3, 26400, Note_on_c, 1, 74, 100
3, 26520, Note_on_c, 1, 74, 0
3, 26520, Note_on_c, 1, 78, 0
3, 26520, Note_on_c, 1, 69, 0
3, 26640, Note_on_c, 1, 67, 100
3, 26640, Note_on_c, 1, 76, 100
3, 26640, Note_on_c, 1, 73, 100
3, 26760, Note_on_c, 1, 73, 0
3, 26760, Note_on_c, 1, 76, 0
3, 26760, Note_on_c, 1, 67, 0
3, 26880, Note_on_c, 1, 74, 100
3, 26880, Note_on_c, 1, 69, 100
3, 26880, Note_on_c, 1, 78, 100
3, 27000, Note_on_c, 1, 78, 0
3, 27000, Note_on_c, 1, 69, 0
3, 27000, Note_on_c, 1, 74, 0
3, 27120, Note_on_c, 1, 73, 100
3, 27120, Note_on_c, 1, 67, 100
3, 27120, Note_on_c, 1, 76, 100
3, 27240, Note_on_c, 1, 76, 0
3, 27240, Note_on_c, 1, 67, 0
3, 27240, Note_on_c, 1, 73, 0
3, 27480, Note_on_c, 1, 62, 100
3, 27600, Note_on_c, 1, 62, 0
3, 27600, Note_on_c, 1, 57, 100
3, 27720, Note_on_c, 1, 57, 0
3, 27720, Note_on_c, 1, 54, 100
3, 27840, Note_on_c, 1, 54, 0
3, 27840, Note_on_c, 1, 50, 100
3, 28000, Note_on_c, 1, 50, 0
3, 28000, Note_on_c, 1, 62, 100
3, 28080, Note_on_c, 1, 62, 0
3, 28080, Note_on_c, 1, 52, 100
3, 28240, Note_on_c, 1, 52, 0
3, 28240, Note_on_c, 1, 60, 100
3, 28320, Note_on_c, 1, 60, 0
3, 28320, Note_on_c, 1, 50, 100
3, 28480, Note_on_c, 1, 50, 0
3, 28480, Note_on_c, 1, 59, 100
3, 28560, Note_on_c, 1, 59, 0
3, 28560, Note_on_c, 1, 48, 100
3, 28720, Note_on_c, 1, 48, 0
3, 28720, Note_on_c, 1, 57, 100
3, 28800, Note_on_c, 1, 57, 0
3, 28800, Note_on_c, 1, 47, 100
3, 29040, Note_on_c, 1, 47, 0
3, 29040, Note_on_c, 1, 59, 100
3, 29280, Note_on_c, 1, 59, 0
3, 29280, Note_on_c, 1, 78, 100
3, 29280, Note_on_c, 1, 72, 100
3, 29280, Note_on_c, 1, 69, 100
3, 29400, Note_on_c, 1, 69, 0
3, 29400, Note_on_c, 1, 72, 0
3, 29400, Note_on_c, 1, 78, 0
3, 29520, Note_on_c, 1, 72, 100
3, 29520, Note_on_c, 1, 69, 100
3, 29520, Note_on_c, 1, 78, 100
3, 29640, Note_on_c, 1, 78, 0
3, 29640, Note_on_c, 1, 69, 0
3, 29640, Note_on_c, 1, 72, 0
3, 29760, Note_on_c, 1, 78, 100
3, 29760, Note_on_c, 1, 69, 100
3, 29760, Note_on_c, 1, 72, 100
3, 29880, Note_on_c, 1, 72, 0
3, 29880, Note_on_c, 1, 69, 0
3, 29880, Note_on_c, 1, 78, 0
3, 30000, Note_on_c, 1, 74, 100
3, 30000, Note_on_c, 1, 67, 100
3, 30000, Note_on_c, 1, 71, 100
3, 30120, Note_on_c, 1, 71, 0
3, 30120, Note_on_c, 1, 67, 0
3, 30120, Note_on_c, 1, 74, 0
3, 30240, Note_on_c, 1, 48, 100
3, 30480, Note_on_c, 1, 48, 0
3, 30480, Note_on_c, 1, 60, 100
3, 30720, Note_on_c, 1, 60, 0
3, 30720, Note_on_c, 1, 71, 100
3, 30720, Note_on_c, 1, 65, 100
3, 30720, Note_on_c, 1, 74, 100
3, 30840, Note_on_c, 1, 74, 0
3, 30840, Note_on_c, 1, 65, 0
3, 30840, Note_on_c, 1, 71, 0
3, 30960, Note_on_c, 1, 74, 100
3, 30960, Note_on_c, 1, 71, 100
3, 30960, Note_on_c, 1, 65, 100
3, 31080, Note_on_c, 1, 65, 0
3, 31080, Note_on_c, 1, 71, 0
3, 31080, Note_on_c, 1, 74, 0
3, 31200, Note_on_c, 1, 65, 100
3, 31200, Note_on_c, 1, 74, 100
3, 31200, Note_on_c, 1, 71, 100
3, 31320, Note_on_c, 1, 71, 0
3, 31320, Note_on_c, 1, 74, 0
3, 31320, Note_on_c, 1, 65, 0
3, 31440, Note_on_c, 1, 69, 100
3, 31440, Note_on_c, 1, 72, 100
3, 31440, Note_on_c, 1, 64, 100
3, 31560, Note_on_c, 1, 64, 0
3, 31560, Note_on_c, 1, 72, 0
3, 31560, Note_on_c, 1, 69, 0
3, 31680, Note_on_c, 1, 50, 100
3, 31920, Note_on_c, 1, 50, 0
3, 31920, Note_on_c, 1, 62, 100
3, 32160, Note_on_c, 1, 62, 0
3, 32160, Note_on_c, 1, 73, 100
3, 32160, Note_on_c, 1, 67, 100
3, 32160, Note_on_c, 1, 64, 100
3, 32280, Note_on_c, 1, 64, 0
3, 32280, Note_on_c, 1, 67, 0
3, 32280, Note_on_c, 1, 73, 0
3, 32400, Note_on_c, 1, 64, 100
3, 32400, Note_on_c, 1, 67, 100
3, 32400, Note_on_c, 1, 73, 100
3, 32520, Note_on_c, 1, 73, 0
3, 32520, Note_on_c, 1, 67, 0
3, 32520, Note_on_c, 1, 64, 0
3, 32640, Note_on_c, 1, 73, 100
3, 32640, Note_on_c, 1, 67, 100
3, 32640, Note_on_c, 1, 64, 100
3, 32760, Note_on_c, 1, 64, 0
3, 32760, Note_on_c, 1, 67, 0
3, 32760, Note_on_c, 1, 73, 0
3, 32880, Note_on_c, 1, 62, 100
3, 32880, Note_on_c, 1, 66, 100
3, 32880, Note_on_c, 1, 69, 100
3, 33000, Note_on_c, 1, 69, 0
3, 33000, Note_on_c, 1, 66, 0
3, 33000, Note_on_c, 1, 62, 0
3, 33240, Note_on_c, 1, 55, 100
3, 33360, Note_on_c, 1, 55, 0
3, 33360, Note_on_c, 1, 50, 100
3, 33480, Note_on_c, 1, 50, 0
3, 33480, Note_on_c, 1, 47, 100
3, 33600, Note_on_c, 1, 47, 0
3, 33600, Note_on_c, 1, 43, 100
3, 33760, Note_on_c, 1, 43, 0
3, 33760, Note_on_c, 1, 55, 100
3, 33840, Note_on_c, 1, 55, 0
3, 33840, Note_on_c, 1, 54, 100
3, 34000, Note_on_c, 1, 54, 0
3, 34000, Note_on_c, 1, 62, 100
3, 34080, Note_on_c, 1, 62, 0
3, 34080, Note_on_c, 1, 55, 100
3, 34240, Note_on_c, 1, 55, 0
3, 34240, Note_on_c, 1, 64, 100
3, 34320, Note_on_c, 1, 64, 0
3, 34320, Note_on_c, 1, 57, 100
3, 34480, Note_on_c, 1, 57, 0
3, 34480, Note_on_c, 1, 66, 100
3, 34560, Note_on_c, 1, 66, 0
3, 34560, Note_on_c, 1, 59, 100
3, 34640, Note_on_c, 1, 59, 0
3, 34640, Note_on_c, 1, 62, 100
3, 34720, Note_on_c, 1, 62, 0
3, 34960, Note_on_c, 1, 57, 100
3, 35040, Note_on_c, 1, 57, 0
3, 35040, Note_on_c, 1, 59, 100
3, 35120, Note_on_c, 1, 59, 0
3, 35120, Note_on_c, 1, 62, 100
3, 35200, Note_on_c, 1, 62, 0
3, 35440, Note_on_c, 1, 60, 100
3, 35520, Note_on_c, 1, 60, 0
3, 35520, Note_on_c, 1, 62, 100
3, 35600, Note_on_c, 1, 62, 0
3, 35600, Note_on_c, 1, 67, 100
3, 35680, Note_on_c, 1, 67, 0
3, 35920, Note_on_c, 1, 64, 100
3, 36000, Note_on_c, 1, 64, 0
3, 36000, Note_on_c, 1, 66, 100
3, 36080, Note_on_c, 1, 66, 0
3, 36080, Note_on_c, 1, 69, 100
3, 36160, Note_on_c, 1, 69, 0
3, 36400, Note_on_c, 1, 64, 100
3, 36480, Note_on_c, 1, 64, 0
3, 36480, Note_on_c, 1, 66, 100
3, 36560, Note_on_c, 1, 66, 0
3, 36560, Note_on_c, 1, 69, 100
3, 36640, Note_on_c, 1, 69, 0
3, 36880, Note_on_c, 1, 67, 100
3, 36960, Note_on_c, 1, 67, 0
3, 36960, Note_on_c, 1, 69, 100
3, 37040, Note_on_c, 1, 69, 0
3, 37040, Note_on_c, 1, 74, 100
3, 37120, Note_on_c, 1, 74, 0
3, 37360, Note_on_c, 1, 69, 100
3, 37440, Note_on_c, 1, 69, 0
3, 37440, Note_on_c, 1, 67, 100
3, 37520, Note_on_c, 1, 67, 0
3, 37520, Note_on_c, 1, 71, 100
3, 37600, Note_on_c, 1, 71, 0
3, 37840, Note_on_c, 1, 66, 100
3, 37920, Note_on_c, 1, 66, 0
3, 37920, Note_on_c, 1, 64, 100
3, 38000, Note_on_c, 1, 64, 0
3, 38000, Note_on_c, 1, 67, 100
3, 38080, Note_on_c, 1, 67, 0
3, 38320, Note_on_c, 1, 62, 100
3, 38400, Note_on_c, 1, 62, 0
3, 38400, Note_on_c, 1, 61, 100
3, 38480, Note_on_c, 1, 61, 0
3, 38480, Note_on_c, 1, 64, 100
3, 38560, Note_on_c, 1, 64, 0
3, 38800, Note_on_c, 1, 59, 100
3, 38880, Note_on_c, 1, 59, 0
3, 38880, Note_on_c, 1, 57, 100
3, 38960, Note_on_c, 1, 57, 0
3, 38960, Note_on_c, 1, 61, 100
3, 39040, Note_on_c, 1, 61, 0
3, 39280, Note_on_c, 1, 59, 100
3, 39360, Note_on_c, 1, 59, 0
3, 39360, Note_on_c, 1, 57, 100
3, 39440, Note_on_c, 1, 57, 0
3, 39440, Note_on_c, 1, 61, 100
3, 39520, Note_on_c, 1, 61, 0
3, 39760, Note_on_c, 1, 55, 100
3, 39840, Note_on_c, 1, 55, 0
3, 39840, Note_on_c, 1, 54, 100
3, 39920, Note_on_c, 1, 54, 0
3, 39920, Note_on_c, 1, 57, 100
3, 40000, Note_on_c, 1, 57, 0
3, 40240, Note_on_c, 1, 52, 100
3, 40320, Note_on_c, 1, 52, 0
3, 40320, Note_on_c, 1, 50, 100
3, 40400, Note_on_c, 1, 50, 0
3, 40400, Note_on_c, 1, 54, 100
3, 40480, Note_on_c, 1, 54, 0
3, 40720, Note_on_c, 1, 52, 100
3, 40800, Note_on_c, 1, 52, 0
3, 40800, Note_on_c, 1, 50, 100
3, 40880, Note_on_c, 1, 50, 0
3, 40880, Note_on_c, 1, 54, 100
3, 40960, Note_on_c, 1, 54, 0
3, 41200, Note_on_c, 1, 48, 100
3, 41280, Note_on_c, 1, 48, 0
3, 41280, Note_on_c, 1, 47, 100
3, 41360, Note_on_c, 1, 47, 0
3, 41360, Note_on_c, 1, 50, 100
3, 41440, Note_on_c, 1, 50, 0
3, 41680, Note_on_c, 1, 45, 100
3, 41760, Note_on_c, 1, 45, 0
3, 41760, Note_on_c, 1, 43, 100
3, 41840, Note_on_c, 1, 43, 0
3, 41840, Note_on_c, 1, 47, 100
3, 41920, Note_on_c, 1, 47, 0
3, 42160, Note_on_c, 1, 45, 100
3, 42240, Note_on_c, 1, 45, 0
3, 42240, Note_on_c, 1, 43, 100
3, 42320, Note_on_c, 1, 43, 0
3, 42320, Note_on_c, 1, 47, 100
3, 42400, Note_on_c, 1, 47, 0
3, 42640, Note_on_c, 1, 42, 100
3, 42720, Note_on_c, 1, 42, 0
3, 42720, Note_on_c, 1, 40, 100
3, 42800, Note_on_c, 1, 40, 0
3, 42800, Note_on_c, 1, 43, 100
3, 42880, Note_on_c, 1, 43, 0
3, 43120, Note_on_c, 1, 38, 100
3, 43200, Note_on_c, 1, 38, 0
3, 43200, Note_on_c, 1, 37, 100
3, 43440, Note_on_c, 1, 37, 0
3, 43440, Note_on_c, 1, 49, 100
3, 43680, Note_on_c, 1, 49, 0
3, 43680, Note_on_c, 1, 50, 100
3, 43920, Note_on_c, 1, 50, 0
3, 43920, Note_on_c, 1, 42, 100
3, 44160, Note_on_c, 1, 42, 0
3, 44160, Note_on_c, 1, 43, 100
3, 44400, Note_on_c, 1, 43, 0
3, 44400, Note_on_c, 1, 45, 100
3, 44640, Note_on_c, 1, 45, 0
3, 44640, Note_on_c, 1, 38, 100
3, 44880, Note_on_c, 1, 38, 0
3, 44880, Note_on_c, 1, 50, 100
3, 45120, Note_on_c, 1, 50, 0
3, 45120, Note_on_c, 1, 52, 100
3, 45120, Note_on_c, 1, 55, 100
3, 45120, Note_on_c, 1, 61, 100
3, 45240, Note_on_c, 1, 61, 0
3, 45240, Note_on_c, 1, 55, 0
3, 45240, Note_on_c, 1, 52, 0
3, 45360, Note_on_c, 1, 52, 100
3, 45360, Note_on_c, 1, 55, 100
3, 45360, Note_on_c, 1, 61, 100
3, 45480, Note_on_c, 1, 61, 0
3, 45480, Note_on_c, 1, 55, 0
3, 45480, Note_on_c, 1, 52, 0
3, 45600, Note_on_c, 1, 38, 100
3, 46080, Note_on_c, 1, 38, 0
3, 46080, Note_on_c, 1, 74, 100
3, 46160, Note_on_c, 1, 74, 0
3, 46160, Note_on_c, 1, 78, 100
3, 46240, Note_on_c, 1, 78, 0
3, 46480, Note_on_c, 1, 76, 100
3, 46560, Note_on_c, 1, 76, 0
3, 46560, Note_on_c, 1, 74, 100
3, 46640, Note_on_c, 1, 74, 0
3, 46640, Note_on_c, 1, 78, 100
3, 46720, Note_on_c, 1, 78, 0
3, 46960, Note_on_c, 1, 72, 100
3, 47040, Note_on_c, 1, 72, 0
3, 47040, Note_on_c, 1, 71, 100
3, 47120, Note_on_c, 1, 71, 0
3, 47120, Note_on_c, 1, 74, 100
3, 47200, Note_on_c, 1, 74, 0
3, 47440, Note_on_c, 1, 69, 100
3, 47520, Note_on_c, 1, 69, 0
3, 47520, Note_on_c, 1, 67, 100
3, 47600, Note_on_c, 1, 67, 0
3, 47600, Note_on_c, 1, 71, 100
3, 47680, Note_on_c, 1, 71, 0
3, 47920, Note_on_c, 1, 69, 100
3, 48000, Note_on_c, 1, 69, 0
3, 48000, Note_on_c, 1, 67, 100
3, 48080, Note_on_c, 1, 67, 0
3, 48080, Note_on_c, 1, 71, 100
3, 48160, Note_on_c, 1, 71, 0
3, 48400, Note_on_c, 1, 66, 100
3, 48480, Note_on_c, 1, 66, 0
3, 48480, Note_on_c, 1, 64, 100
3, 48560, Note_on_c, 1, 64, 0
3, 48560, Note_on_c, 1, 67, 100
3, 48640, Note_on_c, 1, 67, 0
3, 48880, Note_on_c, 1, 62, 100
3, 48960, Note_on_c, 1, 62, 0
3, 48960, Note_on_c, 1, 60, 100
3, 49040, Note_on_c, 1, 60, 0
3, 49040, Note_on_c, 1, 64, 100
3, 49120, Note_on_c, 1, 64, 0
3, 49360, Note_on_c, 1, 59, 100
3, 49440, Note_on_c, 1, 59, 0
3, 49440, Note_on_c, 1, 57, 100
3, 49520, Note_on_c, 1, 57, 0
3, 49520, Note_on_c, 1, 60, 100
3, 49600, Note_on_c, 1, 60, 0
3, 49840, Note_on_c, 1, 55, 100
3, 49920, Note_on_c, 1, 55, 0
3, 49920, Note_on_c, 1, 54, 100
3, 50000, Note_on_c, 1, 54, 0
3, 50000, Note_on_c, 1, 57, 100
3, 50080, Note_on_c, 1, 57, 0
3, 50320, Note_on_c, 1, 52, 100
3, 50400, Note_on_c, 1, 52, 0
3, 50400, Note_on_c, 1, 51, 100
3, 50480, Note_on_c, 1, 51, 0
3, 50480, Note_on_c, 1, 54, 100
3, 50560, Note_on_c, 1, 54, 0
3, 50800, Note_on_c, 1, 49, 100
3, 50880, Note_on_c, 1, 49, 0
3, 50880, Note_on_c, 1, 47, 100
3, 50960, Note_on_c, 1, 47, 0
3, 50960, Note_on_c, 1, 51, 100
3, 51040, Note_on_c, 1, 51, 0
3, 51280, Note_on_c, 1, 45, 100
3, 51360, Note_on_c, 1, 45, 0
3, 51360, Note_on_c, 1, 43, 100
3, 51440, Note_on_c, 1, 43, 0
3, 51440, Note_on_c, 1, 47, 100
3, 51520, Note_on_c, 1, 47, 0
3, 51760, Note_on_c, 1, 42, 100
3, 51840, Note_on_c, 1, 42, 0
3, 51840, Note_on_c, 1, 40, 100
3, 52080, Note_on_c, 1, 40, 0
3, 52080, Note_on_c, 1, 52, 100
3, 52320, Note_on_c, 1, 52, 0
3, 52320, Note_on_c, 1, 66, 100
3, 52320, Note_on_c, 1, 69, 100
3, 52320, Note_on_c, 1, 75, 100
3, 52440, Note_on_c, 1, 75, 0
3, 52440, Note_on_c, 1, 69, 0
3, 52440, Note_on_c, 1, 66, 0
3, 52560, Note_on_c, 1, 75, 100
3, 52560, Note_on_c, 1, 69, 100
3, 52560, Note_on_c, 1, 66, 100
3, 52680, Note_on_c, 1, 66, 0
3, 52680, Note_on_c, 1, 69, 0
3, 52680, Note_on_c, 1, 75, 0
3, 52800, Note_on_c, 1, 67, 100
3, 52800, Note_on_c, 1, 55, 100
3, 52920, Note_on_c, 1, 55, 0
3, 52920, Note_on_c, 1, 67, 0
3, 53040, Note_on_c, 1, 75, 100
3, 53040, Note_on_c, 1, 69, 100
3, 53040, Note_on_c, 1, 66, 100
3, 53160, Note_on_c, 1, 66, 0
3, 53160, Note_on_c, 1, 69, 0
3, 53160, Note_on_c, 1, 75, 0
3, 53280, Note_on_c, 1, 48, 100
3, 53520, Note_on_c, 1, 48, 0
3, 53520, Note_on_c, 1, 60, 100
3, 53760, Note_on_c, 1, 60, 0
3, 53760, Note_on_c, 1, 66, 100
3, 53760, Note_on_c, 1, 69, 100
3, 53760, Note_on_c, 1, 75, 100
3, 53880, Note_on_c, 1, 75, 0
3, 53880, Note_on_c, 1, 69, 0
3, 53880, Note_on_c, 1, 66, 0
3, 54000, Note_on_c, 1, 75, 100
3, 54000, Note_on_c, 1, 69, 100
3, 54000, Note_on_c, 1, 66, 100
3, 54120, Note_on_c, 1, 66, 0
3, 54120, Note_on_c, 1, 69, 0
3, 54120, Note_on_c, 1, 75, 0
3, 54240, Note_on_c, 1, 59, 100
3, 54240, Note_on_c, 1, 71, 100
3, 54360, Note_on_c, 1, 71, 0
3, 54360, Note_on_c, 1, 59, 0
3, 54480, Note_on_c, 1, 75, 100
3, 54480, Note_on_c, 1, 69, 100
3, 54480, Note_on_c, 1, 66, 100
3, 54600, Note_on_c, 1, 66, 0
3, 54600, Note_on_c, 1, 69, 0
3, 54600, Note_on_c, 1, 75, 0
3, 54720, Note_on_c, 1, 57, 100
3, 54960, Note_on_c, 1, 57, 0
3, 54960, Note_on_c, 1, 51, 100
3, 55200, Note_on_c, 1, 51, 0
3, 55200, Note_on_c, 1, 52, 100
3, 55440, Note_on_c, 1, 52, 0
3, 55440, Note_on_c, 1, 57, 100
3, 55680, Note_on_c, 1, 57, 0
3, 55680, Note_on_c, 1, 59, 100
3, 55920, Note_on_c, 1, 59, 0
3, 55920, Note_on_c, 1, 47, 100
3, 56160, Note_on_c, 1, 47, 0
3, 56160, Note_on_c, 1, 52, 100
3, 56400, Note_on_c, 1, 52, 0
3, 56400, Note_on_c, 1, 66, 100
3, 56400, Note_on_c, 1, 69, 100
3, 56400, Note_on_c, 1, 75, 100
3, 56520, Note_on_c, 1, 75, 0
3, 56520, Note_on_c, 1, 69, 0
3, 56520, Note_on_c, 1, 66, 0
3, 56640, Note_on_c, 1, 63, 100
3, 56640, Note_on_c, 1, 66, 100
3, 56640, Note_on_c, 1, 71, 100
3, 56760, Note_on_c, 1, 71, 0
3, 56760, Note_on_c, 1, 66, 0
3, 56760, Note_on_c, 1, 63, 0
3, 56880, Note_on_c, 1, 71, 100
3, 56880, Note_on_c, 1, 66, 100
3, 56880, Note_on_c, 1, 63, 100
3, 57000, Note_on_c, 1, 63, 0
3, 57000, Note_on_c, 1, 66, 0
3, 57000, Note_on_c, 1, 71, 0
3, 57120, Note_on_c, 1, 66, 100
3, 57120, Note_on_c, 1, 63, 100
3, 57120, Note_on_c, 1, 57, 100
3, 57240, Note_on_c, 1, 57, 0
3, 57240, Note_on_c, 1, 63, 0
3, 57240, Note_on_c, 1, 66, 0
3, 57360, Note_on_c, 1, 63, 100
3, 57360, Note_on_c, 1, 66, 100
3, 57360, Note_on_c, 1, 57, 100
3, 57480, Note_on_c, 1, 57, 0
3, 57480, Note_on_c, 1, 66, 0
3, 57480, Note_on_c, 1, 63, 0
3, 57600, Note_on_c, 1, 48, 100
3, 57840, Note_on_c, 1, 48, 0
3, 57840, Note_on_c, 1, 59, 100
3, 58080, Note_on_c, 1, 59, 0
3, 58080, Note_on_c, 1, 57, 100
3, 58320, Note_on_c, 1, 57, 0
3, 58320, Note_on_c, 1, 56, 100
3, 58560, Note_on_c, 1, 56, 0
3, 58560, Note_on_c, 1, 57, 100
3, 58800, Note_on_c, 1, 57, 0
3, 58800, Note_on_c, 1, 48, 100
3, 59040, Note_on_c, 1, 48, 0
3, 59040, Note_on_c, 1, 47, 100
3, 59280, Note_on_c, 1, 47, 0
3, 59280, Note_on_c, 1, 57, 100
3, 59520, Note_on_c, 1, 57, 0
3, 59520, Note_on_c, 1, 55, 100
3, 59760, Note_on_c, 1, 55, 0
3, 59760, Note_on_c, 1, 54, 100
3, 60000, Note_on_c, 1, 54, 0
3, 60000, Note_on_c, 1, 55, 100
3, 60240, Note_on_c, 1, 55, 0
3, 60240, Note_on_c, 1, 47, 100
3, 60480, Note_on_c, 1, 47, 0
3, 60480, Note_on_c, 1, 45, 100
3, 60560, Note_on_c, 1, 45, 0
3, 60560, Note_on_c, 1, 57, 100
3, 60640, Note_on_c, 1, 57, 0
3, 60880, Note_on_c, 1, 59, 100
3, 60960, Note_on_c, 1, 59, 0
3, 60960, Note_on_c, 1, 57, 100
3, 61040, Note_on_c, 1, 57, 0
3, 61040, Note_on_c, 1, 60, 100
3, 61120, Note_on_c, 1, 60, 0
3, 61360, Note_on_c, 1, 55, 100
3, 61440, Note_on_c, 1, 55, 0
3, 61440, Note_on_c, 1, 54, 100
3, 61520, Note_on_c, 1, 54, 0
3, 61520, Note_on_c, 1, 57, 100
3, 61600, Note_on_c, 1, 57, 0
3, 61840, Note_on_c, 1, 52, 100
3, 61920, Note_on_c, 1, 52, 0
3, 61920, Note_on_c, 1, 50, 100
3, 62000, Note_on_c, 1, 50, 0
3, 62000, Note_on_c, 1, 62, 100
3, 62080, Note_on_c, 1, 62, 0
3, 62320, Note_on_c, 1, 64, 100
3, 62400, Note_on_c, 1, 64, 0
3, 62400, Note_on_c, 1, 62, 100
3, 62480, Note_on_c, 1, 62, 0
3, 62480, Note_on_c, 1, 66, 100
3, 62560, Note_on_c, 1, 66, 0
3, 62800, Note_on_c, 1, 60, 100
3, 62880, Note_on_c, 1, 60, 0
3, 62880, Note_on_c, 1, 59, 100
3, 62960, Note_on_c, 1, 59, 0
3, 62960, Note_on_c, 1, 62, 100
3, 63040, Note_on_c, 1, 62, 0
3, 63280, Note_on_c, 1, 57, 100
3, 63360, Note_on_c, 1, 57, 0
3, 63360, Note_on_c, 1, 55, 100
3, 63440, Note_on_c, 1, 55, 0
3, 63440, Note_on_c, 1, 67, 100
3, 63520, Note_on_c, 1, 67, 0
3, 63760, Note_on_c, 1, 69, 100
3, 63840, Note_on_c, 1, 69, 0
3, 63840, Note_on_c, 1, 67, 100
3, 63920, Note_on_c, 1, 67, 0
3, 63920, Note_on_c, 1, 71, 100
3, 64000, Note_on_c, 1, 71, 0
3, 64240, Note_on_c, 1, 65, 100
3, 64320, Note_on_c, 1, 65, 0
3, 64320, Note_on_c, 1, 64, 100
3, 64400, Note_on_c, 1, 64, 0
3, 64400, Note_on_c, 1, 67, 100
3, 64480, Note_on_c, 1, 67, 0
3, 64720, Note_on_c, 1, 62, 100
3, 64800, Note_on_c, 1, 62, 0
3, 64800, Note_on_c, 1, 60, 100
3, 64880, Note_on_c, 1, 60, 0
3, 64880, Note_on_c, 1, 72, 100
3, 64960, Note_on_c, 1, 72, 0
3, 65200, Note_on_c, 1, 74, 100
3, 65280, Note_on_c, 1, 74, 0
3, 65280, Note_on_c, 1, 72, 100
3, 65360, Note_on_c, 1, 72, 0
3, 65360, Note_on_c, 1, 76, 100
3, 65440, Note_on_c, 1, 76, 0
3, 65680, Note_on_c, 1, 71, 100
3, 65760, Note_on_c, 1, 71, 0
3, 65760, Note_on_c, 1, 69, 100
3, 65840, Note_on_c, 1, 69, 0
3, 65840, Note_on_c, 1, 72, 100
3, 65920, Note_on_c, 1, 72, 0
3, 66160, Note_on_c, 1, 67, 100
3, 66240, Note_on_c, 1, 67, 0
3, 66240, Note_on_c, 1, 66, 100
3, 66480, Note_on_c, 1, 66, 0
3, 66480, Note_on_c, 1, 57, 100
3, 66720, Note_on_c, 1, 57, 0
3, 66720, Note_on_c, 1, 59, 100
3, 66960, Note_on_c, 1, 59, 0
3, 66960, Note_on_c, 1, 60, 100
3, 67200, Note_on_c, 1, 60, 0
3, 67200, Note_on_c, 1, 62, 100
3, 67440, Note_on_c, 1, 62, 0
3, 67440, Note_on_c, 1, 50, 100
3, 67680, Note_on_c, 1, 50, 0
3, 67680, Note_on_c, 1, 55, 100
3, 67920, Note_on_c, 1, 55, 0
3, 67920, Note_on_c, 1, 43, 100
3, 68160, Note_on_c, 1, 43, 0
3, 68160, Note_on_c, 1, 78, 100
3, 68160, Note_on_c, 1, 69, 100
3, 68160, Note_on_c, 1, 72, 100
3, 68280, Note_on_c, 1, 72, 0
3, 68280, Note_on_c, 1, 69, 0
3, 68280, Note_on_c, 1, 78, 0
3, 68400, Note_on_c, 1, 72, 100
3, 68400, Note_on_c, 1, 78, 100
3, 68400, Note_on_c, 1, 69, 100
3, 68520, Note_on_c, 1, 69, 0
3, 68520, Note_on_c, 1, 78, 0
3, 68520, Note_on_c, 1, 72, 0
3, 68640, Note_on_c, 1, 55, 100
3, 69120, Note_on_c, 1, 55, 0
3, 69120, Note_on_c, 1, 74, 100
3, 69200, Note_on_c, 1, 74, 0
3, 69200, Note_on_c, 1, 78, 100
3, 69280, Note_on_c, 1, 78, 0
3, 69520, Note_on_c, 1, 76, 100
3, 69600, Note_on_c, 1, 76, 0
3, 69600, Note_on_c, 1, 74, 100
3, 69680, Note_on_c, 1, 74, 0
3, 69680, Note_on_c, 1, 78, 100
3, 69760, Note_on_c, 1, 78, 0
3, 70000, Note_on_c, 1, 72, 100
3, 70080, Note_on_c, 1, 72, 0
3, 70080, Note_on_c, 1, 71, 100
3, 70160, Note_on_c, 1, 71, 0
3, 70160, Note_on_c, 1, 74, 100
3, 70240, Note_on_c, 1, 74, 0
3, 70480, Note_on_c, 1, 69, 100
3, 70560, Note_on_c, 1, 69, 0
3, 70560, Note_on_c, 1, 67, 100
3, 70640, Note_on_c, 1, 67, 0
3, 70640, Note_on_c, 1, 71, 100
3, 70720, Note_on_c, 1, 71, 0
3, 70960, Note_on_c, 1, 69, 100
3, 71040, Note_on_c, 1, 69, 0
3, 71040, Note_on_c, 1, 67, 100
3, 71120, Note_on_c, 1, 67, 0
3, 71120, Note_on_c, 1, 71, 100
3, 71200, Note_on_c, 1, 71, 0
3, 71440, Note_on_c, 1, 66, 100
3, 71520, Note_on_c, 1, 66, 0
3, 71520, Note_on_c, 1, 64, 100
3, 71600, Note_on_c, 1, 64, 0
3, 71600, Note_on_c, 1, 67, 100
3, 71680, Note_on_c, 1, 67, 0
3, 71920, Note_on_c, 1, 62, 100
3, 72000, Note_on_c, 1, 62, 0
3, 72000, Note_on_c, 1, 60, 100
3, 72080, Note_on_c, 1, 60, 0
3, 72080, Note_on_c, 1, 64, 100
3, 72160, Note_on_c, 1, 64, 0
3, 72400, Note_on_c, 1, 59, 100
3, 72480, Note_on_c, 1, 59, 0
3, 72480, Note_on_c, 1, 57, 100
3, 72560, Note_on_c, 1, 57, 0
3, 72560, Note_on_c, 1, 60, 100
3, 72640, Note_on_c, 1, 60, 0
3, 72880, Note_on_c, 1, 55, 100
3, 72960, Note_on_c, 1, 55, 0
3, 72960, Note_on_c, 1, 54, 100
3, 73040, Note_on_c, 1, 54, 0
3, 73040, Note_on_c, 1, 57, 100
3, 73120, Note_on_c, 1, 57, 0
3, 73360, Note_on_c, 1, 52, 100
3, 73440, Note_on_c, 1, 52, 0
3, 73440, Note_on_c, 1, 51, 100
3, 73520, Note_on_c, 1, 51, 0
3, 73520, Note_on_c, 1, 54, 100
3, 73600, Note_on_c, 1, 54, 0
3, 73840, Note_on_c, 1, 49, 100
3, 73920, Note_on_c, 1, 49, 0
3, 73920, Note_on_c, 1, 47, 100
3, 74000, Note_on_c, 1, 47, 0
3, 74000, Note_on_c, 1, 51, 100
3, 74080, Note_on_c, 1, 51, 0
3, 74320, Note_on_c, 1, 45, 100
3, 74400, Note_on_c, 1, 45, 0
3, 74400, Note_on_c, 1, 43, 100
3, 74480, Note_on_c, 1, 43, 0
3, 74480, Note_on_c, 1, 47, 100
3, 74560, Note_on_c, 1, 47, 0
3, 74800, Note_on_c, 1, 42, 100
3, 74880, Note_on_c, 1, 42, 0
3, 74880, Note_on_c, 1, 40, 100
3, 75120, Note_on_c, 1, 40, 0
3, 75120, Note_on_c, 1, 52, 100
3, 75360, Note_on_c, 1, 52, 0
3, 75360, Note_on_c, 1, 66, 100
3, 75360, Note_on_c, 1, 69, 100
3, 75360, Note_on_c, 1, 75, 100
3, 75480, Note_on_c, 1, 75, 0
3, 75480, Note_on_c, 1, 69, 0
3, 75480, Note_on_c, 1, 66, 0
3, 75600, Note_on_c, 1, 75, 100
3, 75600, Note_on_c, 1, 69, 100
3, 75600, Note_on_c, 1, 66, 100
3, 75720, Note_on_c, 1, 66, 0
3, 75720, Note_on_c, 1, 69, 0
3, 75720, Note_on_c, 1, 75, 0
3, 75840, Note_on_c, 1, 67, 100
3, 75840, Note_on_c, 1, 55, 100
3, 75960, Note_on_c, 1, 55, 0
3, 75960, Note_on_c, 1, 67, 0
3, 76080, Note_on_c, 1, 75, 100
3, 76080, Note_on_c, 1, 69, 100
3, 76080, Note_on_c, 1, 66, 100
3, 76200, Note_on_c, 1, 66, 0
3, 76200, Note_on_c, 1, 69, 0
3, 76200, Note_on_c, 1, 75, 0
3, 76320, Note_on_c, 1, 48, 100
3, 76560, Note_on_c, 1, 48, 0
3, 76560, Note_on_c, 1, 60, 100
3, 76800, Note_on_c, 1, 60, 0
3, 76800, Note_on_c, 1, 66, 100
3, 76800, Note_on_c, 1, 69, 100
3, 76800, Note_on_c, 1, 75, 100
3, 76920, Note_on_c, 1, 75, 0
3, 76920, Note_on_c, 1, 69, 0
3, 76920, Note_on_c, 1, 66, 0
3, 77040, Note_on_c, 1, 75, 100
3, 77040, Note_on_c, 1, 69, 100
3, 77040, Note_on_c, 1, 66, 100
3, 77160, Note_on_c, 1, 66, 0
3, 77160, Note_on_c, 1, 69, 0
3, 77160, Note_on_c, 1, 75, 0
3, 77280, Note_on_c, 1, 59, 100
3, 77280, Note_on_c, 1, 71, 100
3, 77400, Note_on_c, 1, 71, 0
3, 77400, Note_on_c, 1, 59, 0
3, 77520, Note_on_c, 1, 75, 100
3, 77520, Note_on_c, 1, 69, 100
3, 77520, Note_on_c, 1, 66, 100
3, 77640, Note_on_c, 1, 66, 0
3, 77640, Note_on_c, 1, 69, 0
3, 77640, Note_on_c, 1, 75, 0
3, 77760, Note_on_c, 1, 57, 100
3, 78000, Note_on_c, 1, 57, 0
3, 78000, Note_on_c, 1, 51, 100
3, 78240, Note_on_c, 1, 51, 0
3, 78240, Note_on_c, 1, 52, 100
3, 78480, Note_on_c, 1, 52, 0
3, 78480, Note_on_c, 1, 57, 100
3, 78720, Note_on_c, 1, 57, 0
3, 78720, Note_on_c, 1, 59, 100
3, 78960, Note_on_c, 1, 59, 0
3, 78960, Note_on_c, 1, 47, 100
3, 79200, Note_on_c, 1, 47, 0
3, 79200, Note_on_c, 1, 52, 100
3, 79440, Note_on_c, 1, 52, 0
3, 79440, Note_on_c, 1, 66, 100
3, 79440, Note_on_c, 1, 69, 100
3, 79440, Note_on_c, 1, 75, 100
3, 79560, Note_on_c, 1, 75, 0
3, 79560, Note_on_c, 1, 69, 0
3, 79560, Note_on_c, 1, 66, 0
3, 79680, Note_on_c, 1, 63, 100
3, 79680, Note_on_c, 1, 66, 100
3, 79680, Note_on_c, 1, 71, 100
3, 79800, Note_on_c, 1, 71, 0
3, 79800, Note_on_c, 1, 66, 0
3, 79800, Note_on_c, 1, 63, 0
3, 79920, Note_on_c, 1, 71, 100
3, 79920, Note_on_c, 1, 66, 100
3, 79920, Note_on_c, 1, 63, 100
3, 80040, Note_on_c, 1, 63, 0
3, 80040, Note_on_c, 1, 66, 0
3, 80040, Note_on_c, 1, 71, 0
3, 80160, Note_on_c, 1, 66, 100
3, 80160, Note_on_c, 1, 63, 100
3, 80160, Note_on_c, 1, 57, 100
3, 80280, Note_on_c, 1, 57, 0
3, 80280, Note_on_c, 1, 63, 0
3, 80280, Note_on_c, 1, 66, 0
3, 80400, Note_on_c, 1, 63, 100
3, 80400, Note_on_c, 1, 66, 100
3, 80400, Note_on_c, 1, 57, 100
3, 80520, Note_on_c, 1, 57, 0
3, 80520, Note_on_c, 1, 66, 0
3, 80520, Note_on_c, 1, 63, 0
3, 80640, Note_on_c, 1, 48, 100
3, 80880, Note_on_c, 1, 48, 0
3, 80880, Note_on_c, 1, 59, 100
3, 81120, Note_on_c, 1, 59, 0
3, 81120, Note_on_c, 1, 57, 100
3, 81360, Note_on_c, 1, 57, 0
3, 81360, Note_on_c, 1, 56, 100
3, 81600, Note_on_c, 1, 56, 0
3, 81600, Note_on_c, 1, 57, 100
3, 81840, Note_on_c, 1, 57, 0
3, 81840, Note_on_c, 1, 48, 100
3, 82080, Note_on_c, 1, 48, 0
3, 82080, Note_on_c, 1, 47, 100
3, 82320, Note_on_c, 1, 47, 0
3, 82320, Note_on_c, 1, 57, 100
3, 82560, Note_on_c, 1, 57, 0
3, 82560, Note_on_c, 1, 55, 100
3, 82800, Note_on_c, 1, 55, 0
3, 82800, Note_on_c, 1, 54, 100
3, 83040, Note_on_c, 1, 54, 0
3, 83040, Note_on_c, 1, 55, 100
3, 83280, Note_on_c, 1, 55, 0
3, 83280, Note_on_c, 1, 47, 100
3, 83520, Note_on_c, 1, 47, 0
3, 83520, Note_on_c, 1, 45, 100
3, 83600, Note_on_c, 1, 45, 0
3, 83600, Note_on_c, 1, 57, 100
3, 83680, Note_on_c, 1, 57, 0
3, 83920, Note_on_c, 1, 59, 100
3, 84000, Note_on_c, 1, 59, 0
3, 84000, Note_on_c, 1, 57, 100
3, 84080, Note_on_c, 1, 57, 0
3, 84080, Note_on_c, 1, 60, 100
3, 84160, Note_on_c, 1, 60, 0
3, 84400, Note_on_c, 1, 55, 100
3, 84480, Note_on_c, 1, 55, 0
3, 84480, Note_on_c, 1, 54, 100
3, 84560, Note_on_c, 1, 54, 0
3, 84560, Note_on_c, 1, 57, 100
3, 84640, Note_on_c, 1, 57, 0
3, 84880, Note_on_c, 1, 52, 100
3, 84960, Note_on_c, 1, 52, 0
3, 84960, Note_on_c, 1, 50, 100
3, 85040, Note_on_c, 1, 50, 0
3, 85040, Note_on_c, 1, 62, 100
3, 85120, Note_on_c, 1, 62, 0
3, 85360, Note_on_c, 1, 64, 100
3, 85440, Note_on_c, 1, 64, 0
3, 85440, Note_on_c, 1, 62, 100
3, 85520, Note_on_c, 1, 62, 0
3, 85520, Note_on_c, 1, 66, 100
3, 85600, Note_on_c, 1, 66, 0
3, 85840, Note_on_c, 1, 60, 100
3, 85920, Note_on_c, 1, 60, 0
3, 85920, Note_on_c, 1, 59, 100
3, 86000, Note_on_c, 1, 59, 0
3, 86000, Note_on_c, 1, 62, 100
3, 86080, Note_on_c, 1, 62, 0
3, 86320, Note_on_c, 1, 57, 100
3, 86400, Note_on_c, 1, 57, 0
3, 86400, Note_on_c, 1, 55, 100
3, 86480, Note_on_c, 1, 55, 0
3, 86480, Note_on_c, 1, 67, 100
3, 86560, Note_on_c, 1, 67, 0
3, 86800, Note_on_c, 1, 69, 100
3, 86880, Note_on_c, 1, 69, 0
3, 86880, Note_on_c, 1, 67, 100
3, 86960, Note_on_c, 1, 67, 0
3, 86960, Note_on_c, 1, 71, 100
3, 87040, Note_on_c, 1, 71, 0
3, 87280, Note_on_c, 1, 65, 100
3, 87360, Note_on_c, 1, 65, 0
3, 87360, Note_on_c, 1, 64, 100
3, 87440, Note_on_c, 1, 64, 0
3, 87440, Note_on_c, 1, 67, 100
3, 87520, Note_on_c, 1, 67, 0
3, 87760, Note_on_c, 1, 62, 100
3, 87840, Note_on_c, 1, 62, 0
3, 87840, Note_on_c, 1, 60, 100
3, 87920, Note_on_c, 1, 60, 0
3, 87920, Note_on_c, 1, 72, 100
3, 88000, Note_on_c, 1, 72, 0
3, 88240, Note_on_c, 1, 74, 100
3, 88320, Note_on_c, 1, 74, 0
3, 88320, Note_on_c, 1, 72, 100
3, 88400, Note_on_c, 1, 72, 0
3, 88400, Note_on_c, 1, 76, 100
3, 88480, Note_on_c, 1, 76, 0
3, 88720, Note_on_c, 1, 71, 100
3, 88800, Note_on_c, 1, 71, 0
3, 88800, Note_on_c, 1, 69, 100
3, 88880, Note_on_c, 1, 69, 0
3, 88880, Note_on_c, 1, 72, 100
3, 88960, Note_on_c, 1, 72, 0
3, 89200, Note_on_c, 1, 67, 100
3, 89280, Note_on_c, 1, 67, 0
3, 89280, Note_on_c, 1, 66, 100
3, 89520, Note_on_c, 1, 66, 0
3, 89520, Note_on_c, 1, 57, 100
3, 89760, Note_on_c, 1, 57, 0
3, 89760, Note_on_c, 1, 59, 100
3, 90000, Note_on_c, 1, 59, 0
3, 90000, Note_on_c, 1, 60, 100
3, 90240, Note_on_c, 1, 60, 0
3, 90240, Note_on_c, 1, 62, 100
3, 90480, Note_on_c, 1, 62, 0
3, 90480, Note_on_c, 1, 50, 100
3, 90720, Note_on_c, 1, 50, 0
3, 90720, Note_on_c, 1, 55, 100
3, 90960, Note_on_c, 1, 55, 0
3, 90960, Note_on_c, 1, 43, 100
3, 91200, Note_on_c, 1, 43, 0
3, 91200, Note_on_c, 1, 78, 100
3, 91200, Note_on_c, 1, 69, 100
3, 91200, Note_on_c, 1, 72, 100
3, 91320, Note_on_c, 1, 72, 0
3, 91320, Note_on_c, 1, 69, 0
3, 91320, Note_on_c, 1, 78, 0
3, 91440, Note_on_c, 1, 72, 100
3, 91440, Note_on_c, 1, 78, 100
3, 91440, Note_on_c, 1, 69, 100
3, 91560, Note_on_c, 1, 69, 0
3, 91560, Note_on_c, 1, 78, 0
3, 91560, Note_on_c, 1, 72, 0
3, 91680, Note_on_c, 1, 55, 100
3, 92160, Note_on_c, 1, 55, 0
3, 92160, End_track
4, 0, Start_track
4, 0, MIDI_port, 0
4, 0, Title_t, "Johann Sebastian Bach  (1685-1750)"
4, 0, End_track
5, 0, Start_track
5, 0, MIDI_port, 0
5, 0, Title_t, "The Goldberg Variations - BWV 988"
5, 0, End_track
6, 0, Start_track
6, 0, MIDI_port, 0
6, 0, Title_t, "Aria with 30 Variations for Harpsichord with 2 Manuals"
6, 0, End_track
7, 0, Start_track
7, 0, MIDI_port, 0
7, 0, Title_t, "--------------------------------------"
7, 0, End_track
8, 0, Start_track
8, 0, MIDI_port, 0
8, 0, Title_t, "Variatio 29 a 1 ovvero 2 Clav."
8, 0, End_track
9, 0, Start_track
9, 0, MIDI_port, 0
9, 0, Title_t, "--------------------------------------"
9, 0, End_track
10, 0, Start_track
10, 0, MIDI_port, 0
10, 0, Title_t, "Sequenced with Cakewalk Pro Audio by"
10, 0, End_track
11, 0, Start_track
11, 0, MIDI_port, 0
11, 0, Title_t, "David J. Grossman - dave@unpronounceable.com"
11, 0, End_track
12, 0, Start_track
12, 0, MIDI_port, 0
12, 0, Title_t, "This and other Bach MIDI files can be found at:"
12, 0, End_track
13, 0, Start_track
13, 0, MIDI_port, 0
13, 0, Title_t, "Dave's J.S. Bach Page"
13, 0, End_track
14, 0, Start_track
14, 0, MIDI_port, 0
14, 0, Title_t, "http://www.unpronounceable.com/bach"
14, 0, End_track
15, 0, Start_track
15, 0, MIDI_port, 0
15, 0, Title_t, "--------------------------------------"
15, 0, End_track
16, 0, Start_track
16, 0, MIDI_port, 0
16, 0, Title_t, "Original Filename: 988-v29.mid"
16, 0, End_track
17, 0, Start_track
17, 0, MIDI_port, 0
17, 0, Title_t, "Last Modified: March 14, 1997"
17, 0, End_track
0, 0, End_of_file
