0, 0, Header, 1, 17, 480
1, 0, Start_track
1, 0, Title_t, "untitled"
1, 0, SMPTE_offset, 96, 0, 3, 0, 0
1, 0, Time_signature, 4, 2, 24, 8
1, 0, Key_signature, 1, "major"
1, 0, Tempo, 300000
1, 0, Marker_t, "A"
1, 30720, Marker_t, "A'"
1, 61440, Marker_t, "B"
1, 92160, Marker_t, "B'"
1, 92160, End_track
2, 0, Start_track
2, 0, MIDI_port, 0
2, 0, Title_t, "Solo Harpsichord with 2 Manuals"
2, 0, Program_c, 0, 6
2, 0, Control_c, 0, 7, 100
2, 0, Control_c, 0, 10, 79
2, 8640, Note_on_c, 0, 74, 100
2, 10080, Note_on_c, 0, 74, 0
2, 10080, Note_on_c, 0, 72, 100
2, 10320, Note_on_c, 0, 72, 0
2, 10320, Note_on_c, 0, 71, 100
2, 10560, Note_on_c, 0, 71, 0
2, 10560, Note_on_c, 0, 72, 100
2, 11040, Note_on_c, 0, 72, 0
2, 11040, Note_on_c, 0, 76, 100
2, 11520, Note_on_c, 0, 76, 0
2, 11520, Note_on_c, 0, 69, 100
2, 12000, Note_on_c, 0, 69, 0
2, 12000, Note_on_c, 0, 74, 100
2, 12960, Note_on_c, 0, 74, 0
2, 12960, Note_on_c, 0, 72, 100
2, 13920, Note_on_c, 0, 72, 0
2, 13920, Note_on_c, 0, 71, 100
2, 14160, Note_on_c, 0, 71, 0
2, 14160, Note_on_c, 0, 69, 100
2, 14400, Note_on_c, 0, 69, 0
2, 14400, Note_on_c, 0, 71, 100
2, 15840, Note_on_c, 0, 71, 0
2, 15840, Note_on_c, 0, 71, 100
2, 16080, Note_on_c, 0, 71, 0
2, 16080, Note_on_c, 0, 69, 100
2, 16320, Note_on_c, 0, 69, 0
2, 16320, Note_on_c, 0, 71, 100
2, 16800, Note_on_c, 0, 71, 0
2, 16800, Note_on_c, 0, 76, 100
2, 17280, Note_on_c, 0, 76, 0
2, 17280, Note_on_c, 0, 73, 100
2, 17760, Note_on_c, 0, 73, 0
2, 17760, Note_on_c, 0, 81, 100
2, 18720, Note_on_c, 0, 81, 0
2, 18720, Note_on_c, 0, 79, 100
2, 18960, Note_on_c, 0, 79, 0
2, 18960, Note_on_c, 0, 78, 100
2, 19200, Note_on_c, 0, 78, 0
2, 19200, Note_on_c, 0, 81, 100
2, 19360, Note_on_c, 0, 81, 0
2, 19360, Note_on_c, 0, 79, 100
2, 19520, Note_on_c, 0, 79, 0
2, 19520, Note_on_c, 0, 81, 100
2, 19680, Note_on_c, 0, 81, 0
2, 19680, Note_on_c, 0, 79, 100
2, 19840, Note_on_c, 0, 79, 0
2, 19840, Note_on_c, 0, 81, 100
2, 20000, Note_on_c, 0, 81, 0
2, 20000, Note_on_c, 0, 79, 100
2, 20160, Note_on_c, 0, 79, 0
2, 20160, Note_on_c, 0, 81, 100
2, 20320, Note_on_c, 0, 81, 0
2, 20320, Note_on_c, 0, 79, 100
2, 20480, Note_on_c, 0, 79, 0
2, 20480, Note_on_c, 0, 81, 100
2, 20640, Note_on_c, 0, 81, 0
2, 20640, Note_on_c, 0, 79, 100
2, 20800, Note_on_c, 0, 79, 0
2, 20800, Note_on_c, 0, 81, 100
2, 20960, Note_on_c, 0, 81, 0
2, 20960, Note_on_c, 0, 79, 100
2, 21120, Note_on_c, 0, 79, 0
2, 21120, Note_on_c, 0, 81, 100
2, 21280, Note_on_c, 0, 81, 0
2, 21280, Note_on_c, 0, 79, 100
2, 21440, Note_on_c, 0, 79, 0
2, 21440, Note_on_c, 0, 81, 100
2, 21600, Note_on_c, 0, 81, 0
2, 21600, Note_on_c, 0, 79, 100
2, 21760, Note_on_c, 0, 79, 0
2, 21760, Note_on_c, 0, 81, 100
2, 21920, Note_on_c, 0, 81, 0
2, 21920, Note_on_c, 0, 79, 100
2, 22080, Note_on_c, 0, 79, 0
2, 22080, Note_on_c, 0, 81, 100
2, 22200, Note_on_c, 0, 81, 0
2, 22200, Note_on_c, 0, 79, 100
2, 22320, Note_on_c, 0, 79, 0
2, 22320, Note_on_c, 0, 81, 100
2, 22440, Note_on_c, 0, 81, 0
2, 22440, Note_on_c, 0, 79, 100
2, 22560, Note_on_c, 0, 79, 0
2, 22560, Note_on_c, 0, 81, 100
2, 22680, Note_on_c, 0, 81, 0
2, 22680, Note_on_c, 0, 79, 100
2, 22800, Note_on_c, 0, 79, 0
2, 22800, Note_on_c, 0, 81, 100
2, 22920, Note_on_c, 0, 81, 0
2, 22920, Note_on_c, 0, 79, 100
2, 23040, Note_on_c, 0, 79, 0
2, 23040, Note_on_c, 0, 81, 100
2, 23160, Note_on_c, 0, 81, 0
2, 23160, Note_on_c, 0, 79, 100
2, 23280, Note_on_c, 0, 79, 0
2, 23280, Note_on_c, 0, 81, 100
2, 23400, Note_on_c, 0, 81, 0
2, 23400, Note_on_c, 0, 79, 100
2, 23520, Note_on_c, 0, 79, 0
2, 23520, Note_on_c, 0, 78, 100
2, 23760, Note_on_c, 0, 78, 0
2, 23760, Note_on_c, 0, 76, 100
2, 24000, Note_on_c, 0, 76, 0
2, 24000, Note_on_c, 0, 78, 100
2, 24480, Note_on_c, 0, 78, 0
2, 24480, Note_on_c, 0, 81, 100
2, 24960, Note_on_c, 0, 81, 0
2, 24960, Note_on_c, 0, 74, 100
2, 25920, Note_on_c, 0, 74, 0
2, 25920, Note_on_c, 0, 79, 100
2, 27360, Note_on_c, 0, 79, 0
2, 27360, Note_on_c, 0, 78, 100
2, 27840, Note_on_c, 0, 78, 0
2, 27840, Note_on_c, 0, 76, 100
2, 28800, Note_on_c, 0, 76, 0
2, 28800, Note_on_c, 0, 74, 100
2, 30720, Note_on_c, 0, 74, 0
2, 39360, Note_on_c, 0, 74, 100
2, 40800, Note_on_c, 0, 74, 0
2, 40800, Note_on_c, 0, 72, 100
2, 41040, Note_on_c, 0, 72, 0
2, 41040, Note_on_c, 0, 71, 100
2, 41280, Note_on_c, 0, 71, 0
2, 41280, Note_on_c, 0, 72, 100
2, 41760, Note_on_c, 0, 72, 0
2, 41760, Note_on_c, 0, 76, 100
2, 42240, Note_on_c, 0, 76, 0
2, 42240, Note_on_c, 0, 69, 100
2, 42720, Note_on_c, 0, 69, 0
2, 42720, Note_on_c, 0, 74, 100
2, 43680, Note_on_c, 0, 74, 0
2, 43680, Note_on_c, 0, 72, 100
2, 44640, Note_on_c, 0, 72, 0
2, 44640, Note_on_c, 0, 71, 100
2, 44880, Note_on_c, 0, 71, 0
2, 44880, Note_on_c, 0, 69, 100
2, 45120, Note_on_c, 0, 69, 0
2, 45120, Note_on_c, 0, 71, 100
2, 46560, Note_on_c, 0, 71, 0
2, 46560, Note_on_c, 0, 71, 100
2, 46800, Note_on_c, 0, 71, 0
2, 46800, Note_on_c, 0, 69, 100
2, 47040, Note_on_c, 0, 69, 0
2, 47040, Note_on_c, 0, 71, 100
2, 47520, Note_on_c, 0, 71, 0
2, 47520, Note_on_c, 0, 76, 100
2, 48000, Note_on_c, 0, 76, 0
2, 48000, Note_on_c, 0, 73, 100
2, 48480, Note_on_c, 0, 73, 0
2, 48480, Note_on_c, 0, 81, 100
2, 49440, Note_on_c, 0, 81, 0
2, 49440, Note_on_c, 0, 79, 100
2, 49680, Note_on_c, 0, 79, 0
2, 49680, Note_on_c, 0, 78, 100
2, 49920, Note_on_c, 0, 78, 0
2, 49920, Note_on_c, 0, 81, 100
2, 50080, Note_on_c, 0, 81, 0
2, 50080, Note_on_c, 0, 79, 100
2, 50240, Note_on_c, 0, 79, 0
2, 50240, Note_on_c, 0, 81, 100
2, 50400, Note_on_c, 0, 81, 0
2, 50400, Note_on_c, 0, 79, 100
2, 50560, Note_on_c, 0, 79, 0
2, 50560, Note_on_c, 0, 81, 100
2, 50720, Note_on_c, 0, 81, 0
2, 50720, Note_on_c, 0, 79, 100
2, 50880, Note_on_c, 0, 79, 0
2, 50880, Note_on_c, 0, 81, 100
2, 51040, Note_on_c, 0, 81, 0
2, 51040, Note_on_c, 0, 79, 100
2, 51200, Note_on_c, 0, 79, 0
2, 51200, Note_on_c, 0, 81, 100
2, 51360, Note_on_c, 0, 81, 0
2, 51360, Note_on_c, 0, 79, 100
2, 51520, Note_on_c, 0, 79, 0
2, 51520, Note_on_c, 0, 81, 100
2, 51680, Note_on_c, 0, 81, 0
2, 51680, Note_on_c, 0, 79, 100
2, 51840, Note_on_c, 0, 79, 0
2, 51840, Note_on_c, 0, 81, 100
2, 52000, Note_on_c, 0, 81, 0
2, 52000, Note_on_c, 0, 79, 100
2, 52160, Note_on_c, 0, 79, 0
2, 52160, Note_on_c, 0, 81, 100
2, 52320, Note_on_c, 0, 81, 0
2, 52320, Note_on_c, 0, 79, 100
2, 52480, Note_on_c, 0, 79, 0
2, 52480, Note_on_c, 0, 81, 100
2, 52640, Note_on_c, 0, 81, 0
2, 52640, Note_on_c, 0, 79, 100
2, 52800, Note_on_c, 0, 79, 0
2, 52800, Note_on_c, 0, 81, 100
2, 52920, Note_on_c, 0, 81, 0
2, 52920, Note_on_c, 0, 79, 100
2, 53040, Note_on_c, 0, 79, 0
2, 53040, Note_on_c, 0, 81, 100
2, 53160, Note_on_c, 0, 81, 0
2, 53160, Note_on_c, 0, 79, 100
2, 53280, Note_on_c, 0, 79, 0
2, 53280, Note_on_c, 0, 81, 100
2, 53400, Note_on_c, 0, 81, 0
2, 53400, Note_on_c, 0, 79, 100
2, 53520, Note_on_c, 0, 79, 0
2, 53520, Note_on_c, 0, 81, 100
2, 53640, Note_on_c, 0, 81, 0
2, 53640, Note_on_c, 0, 79, 100
2, 53760, Note_on_c, 0, 79, 0
2, 53760, Note_on_c, 0, 81, 100
2, 53880, Note_on_c, 0, 81, 0
2, 53880, Note_on_c, 0, 79, 100
2, 54000, Note_on_c, 0, 79, 0
2, 54000, Note_on_c, 0, 81, 100
2, 54120, Note_on_c, 0, 81, 0
2, 54120, Note_on_c, 0, 79, 100
2, 54240, Note_on_c, 0, 79, 0
2, 54240, Note_on_c, 0, 78, 100
2, 54480, Note_on_c, 0, 78, 0
2, 54480, Note_on_c, 0, 76, 100
2, 54720, Note_on_c, 0, 76, 0
2, 54720, Note_on_c, 0, 78, 100
2, 55200, Note_on_c, 0, 78, 0
2, 55200, Note_on_c, 0, 81, 100
2, 55680, Note_on_c, 0, 81, 0
2, 55680, Note_on_c, 0, 74, 100
2, 56640, Note_on_c, 0, 74, 0
2, 56640, Note_on_c, 0, 79, 100
2, 58080, Note_on_c, 0, 79, 0
2, 58080, Note_on_c, 0, 78, 100
2, 58560, Note_on_c, 0, 78, 0
2, 58560, Note_on_c, 0, 76, 100
2, 59520, Note_on_c, 0, 76, 0
2, 59520, Note_on_c, 0, 74, 100
2, 61440, Note_on_c, 0, 74, 0
2, 62400, Note_on_c, 0, 81, 100
2, 63840, Note_on_c, 0, 81, 0
2, 63840, Note_on_c, 0, 79, 100
2, 64080, Note_on_c, 0, 79, 0
2, 64080, Note_on_c, 0, 78, 100
2, 64320, Note_on_c, 0, 78, 0
2, 64320, Note_on_c, 0, 79, 100
2, 64800, Note_on_c, 0, 79, 0
2, 64800, Note_on_c, 0, 83, 100
2, 65280, Note_on_c, 0, 83, 0
2, 65280, Note_on_c, 0, 76, 100
2, 67680, Note_on_c, 0, 76, 0
2, 67680, Note_on_c, 0, 75, 100
2, 67920, Note_on_c, 0, 75, 0
2, 67920, Note_on_c, 0, 73, 100
2, 68160, Note_on_c, 0, 73, 0
2, 68160, Note_on_c, 0, 75, 100
2, 68640, Note_on_c, 0, 75, 0
2, 68640, Note_on_c, 0, 78, 100
2, 69120, Note_on_c, 0, 78, 0
2, 69120, Note_on_c, 0, 83, 100
2, 69600, Note_on_c, 0, 83, 0
2, 69600, Note_on_c, 0, 71, 100
2, 70080, Note_on_c, 0, 71, 0
2, 70080, Note_on_c, 0, 83, 100
2, 71520, Note_on_c, 0, 83, 0
2, 71520, Note_on_c, 0, 81, 100
2, 71760, Note_on_c, 0, 81, 0
2, 71760, Note_on_c, 0, 79, 100
2, 72000, Note_on_c, 0, 79, 0
2, 72000, Note_on_c, 0, 81, 100
2, 72480, Note_on_c, 0, 81, 0
2, 72480, Note_on_c, 0, 84, 100
2, 72960, Note_on_c, 0, 84, 0
2, 72960, Note_on_c, 0, 78, 100
2, 73440, Note_on_c, 0, 78, 0
2, 73440, Note_on_c, 0, 79, 100
2, 73920, Note_on_c, 0, 79, 0
2, 73920, Note_on_c, 0, 81, 100
2, 75360, Note_on_c, 0, 81, 0
2, 75360, Note_on_c, 0, 79, 100
2, 75600, Note_on_c, 0, 79, 0
2, 75600, Note_on_c, 0, 78, 100
2, 75840, Note_on_c, 0, 78, 0
2, 75840, Note_on_c, 0, 79, 100
2, 76320, Note_on_c, 0, 79, 0
2, 76320, Note_on_c, 0, 83, 100
2, 76800, Note_on_c, 0, 83, 0
2, 76800, Note_on_c, 0, 76, 100
2, 78720, Note_on_c, 0, 76, 0
2, 78720, Note_on_c, 0, 74, 100
2, 80640, Note_on_c, 0, 74, 0
2, 80640, Note_on_c, 0, 72, 100
2, 82560, Note_on_c, 0, 72, 0
2, 83520, Note_on_c, 0, 74, 100
2, 84960, Note_on_c, 0, 74, 0
2, 84960, Note_on_c, 0, 72, 100
2, 85200, Note_on_c, 0, 72, 0
2, 85200, Note_on_c, 0, 71, 100
2, 85440, Note_on_c, 0, 71, 0
2, 85440, Note_on_c, 0, 72, 100
2, 85920, Note_on_c, 0, 72, 0
2, 85920, Note_on_c, 0, 76, 100
2, 86400, Note_on_c, 0, 76, 0
2, 86400, Note_on_c, 0, 69, 100
2, 87600, Note_on_c, 0, 69, 0
2, 87600, Note_on_c, 0, 76, 100
2, 87840, Note_on_c, 0, 76, 0
2, 87840, Note_on_c, 0, 74, 100
2, 88080, Note_on_c, 0, 74, 0
2, 88080, Note_on_c, 0, 76, 100
2, 88320, Note_on_c, 0, 76, 0
2, 88320, Note_on_c, 0, 69, 100
2, 88800, Note_on_c, 0, 69, 0
2, 88800, Note_on_c, 0, 74, 100
2, 89760, Note_on_c, 0, 74, 0
2, 89760, Note_on_c, 0, 72, 100
2, 90720, Note_on_c, 0, 72, 0
2, 90720, Note_on_c, 0, 71, 100
2, 90960, Note_on_c, 0, 71, 0
2, 90960, Note_on_c, 0, 69, 100
2, 91200, Note_on_c, 0, 69, 0
2, 91200, Note_on_c, 0, 71, 100
2, 92160, Note_on_c, 0, 71, 0
2, 93120, Note_on_c, 0, 81, 100
2, 94560, Note_on_c, 0, 81, 0
2, 94560, Note_on_c, 0, 79, 100
2, 94800, Note_on_c, 0, 79, 0
2, 94800, Note_on_c, 0, 78, 100
2, 95040, Note_on_c, 0, 78, 0
2, 95040, Note_on_c, 0, 79, 100
2, 95520, Note_on_c, 0, 79, 0
2, 95520, Note_on_c, 0, 83, 100
2, 96000, Note_on_c, 0, 83, 0
2, 96000, Note_on_c, 0, 76, 100
2, 98400, Note_on_c, 0, 76, 0
2, 98400, Note_on_c, 0, 75, 100
2, 98640, Note_on_c, 0, 75, 0
2, 98640, Note_on_c, 0, 73, 100
2, 98880, Note_on_c, 0, 73, 0
2, 98880, Note_on_c, 0, 75, 100
2, 99360, Note_on_c, 0, 75, 0
2, 99360, Note_on_c, 0, 78, 100
2, 99840, Note_on_c, 0, 78, 0
2, 99840, Note_on_c, 0, 83, 100
2, 100320, Note_on_c, 0, 83, 0
2, 100320, Note_on_c, 0, 71, 100
2, 100800, Note_on_c, 0, 71, 0
2, 100800, Note_on_c, 0, 83, 100
2, 102240, Note_on_c, 0, 83, 0
2, 102240, Note_on_c, 0, 81, 100
2, 102480, Note_on_c, 0, 81, 0
2, 102480, Note_on_c, 0, 79, 100
2, 102720, Note_on_c, 0, 79, 0
2, 102720, Note_on_c, 0, 81, 100
2, 103200, Note_on_c, 0, 81, 0
2, 103200, Note_on_c, 0, 84, 100
2, 103680, Note_on_c, 0, 84, 0
2, 103680, Note_on_c, 0, 78, 100
2, 104160, Note_on_c, 0, 78, 0
2, 104160, Note_on_c, 0, 79, 100
2, 104640, Note_on_c, 0, 79, 0
2, 104640, Note_on_c, 0, 81, 100
2, 106080, Note_on_c, 0, 81, 0
2, 106080, Note_on_c, 0, 79, 100
2, 106320, Note_on_c, 0, 79, 0
2, 106320, Note_on_c, 0, 78, 100
2, 106560, Note_on_c, 0, 78, 0
2, 106560, Note_on_c, 0, 79, 100
2, 107040, Note_on_c, 0, 79, 0
2, 107040, Note_on_c, 0, 83, 100
2, 107520, Note_on_c, 0, 83, 0
2, 107520, Note_on_c, 0, 76, 100
2, 109440, Note_on_c, 0, 76, 0
2, 109440, Note_on_c, 0, 74, 100
2, 111360, Note_on_c, 0, 74, 0
2, 111360, Note_on_c, 0, 72, 100
2, 113280, Note_on_c, 0, 72, 0
2, 114240, Note_on_c, 0, 74, 100
2, 115680, Note_on_c, 0, 74, 0
2, 115680, Note_on_c, 0, 72, 100
2, 115920, Note_on_c, 0, 72, 0
2, 115920, Note_on_c, 0, 71, 100
2, 116160, Note_on_c, 0, 71, 0
2, 116160, Note_on_c, 0, 72, 100
2, 116640, Note_on_c, 0, 72, 0
2, 116640, Note_on_c, 0, 76, 100
2, 117120, Note_on_c, 0, 76, 0
2, 117120, Note_on_c, 0, 69, 100
2, 118320, Note_on_c, 0, 69, 0
2, 118320, Note_on_c, 0, 76, 100
2, 118560, Note_on_c, 0, 76, 0
2, 118560, Note_on_c, 0, 74, 100
2, 118800, Note_on_c, 0, 74, 0
2, 118800, Note_on_c, 0, 76, 100
2, 119040, Note_on_c, 0, 76, 0
2, 119040, Note_on_c, 0, 69, 100
2, 119520, Note_on_c, 0, 69, 0
2, 119520, Note_on_c, 0, 74, 100
2, 120480, Note_on_c, 0, 74, 0
2, 120480, Note_on_c, 0, 72, 100
2, 121440, Note_on_c, 0, 72, 0
2, 121440, Note_on_c, 0, 71, 100
2, 121680, Note_on_c, 0, 71, 0
2, 121680, Note_on_c, 0, 69, 100
2, 121920, Note_on_c, 0, 69, 0
2, 121920, Note_on_c, 0, 71, 100
2, 122880, Note_on_c, 0, 71, 0
2, 122880, End_track
3, 0, Start_track
3, 0, MIDI_port, 0
3, 0, Title_t, "--------------------------------------"
3, 0, Program_c, 1, 6
3, 0, Control_c, 1, 7, 100
3, 0, Control_c, 1, 10, 69
3, 4800, Note_on_c, 1, 67, 100
3, 6240, Note_on_c, 1, 67, 0
3, 6240, Note_on_c, 1, 66, 100
3, 6480, Note_on_c, 1, 66, 0
3, 6480, Note_on_c, 1, 64, 100
3, 6720, Note_on_c, 1, 64, 0
3, 6720, Note_on_c, 1, 66, 100
3, 7200, Note_on_c, 1, 66, 0
3, 7200, Note_on_c, 1, 69, 100
3, 7680, Note_on_c, 1, 69, 0
3, 7680, Note_on_c, 1, 62, 100
3, 9120, Note_on_c, 1, 62, 0
3, 9120, Note_on_c, 1, 65, 100
3, 9600, Note_on_c, 1, 65, 0
3, 9600, Note_on_c, 1, 64, 100
3, 11040, Note_on_c, 1, 64, 0
3, 11040, Note_on_c, 1, 67, 100
3, 12000, Note_on_c, 1, 67, 0
3, 12000, Note_on_c, 1, 66, 100
3, 12240, Note_on_c, 1, 66, 0
3, 12240, Note_on_c, 1, 64, 100
3, 12480, Note_on_c, 1, 64, 0
3, 12480, Note_on_c, 1, 66, 100
3, 12960, Note_on_c, 1, 66, 0
3, 12960, Note_on_c, 1, 69, 100
3, 13920, Note_on_c, 1, 69, 0
3, 13920, Note_on_c, 1, 67, 100
3, 14160, Note_on_c, 1, 67, 0
3, 14160, Note_on_c, 1, 66, 100
3, 14400, Note_on_c, 1, 66, 0
3, 14400, Note_on_c, 1, 67, 100
3, 14880, Note_on_c, 1, 67, 0
3, 14880, Note_on_c, 1, 71, 100
3, 15360, Note_on_c, 1, 71, 0
3, 15360, Note_on_c, 1, 64, 100
3, 16320, Note_on_c, 1, 64, 0
3, 16320, Note_on_c, 1, 71, 100
3, 17280, Note_on_c, 1, 71, 0
3, 17280, Note_on_c, 1, 69, 100
3, 18240, Note_on_c, 1, 69, 0
3, 18240, Note_on_c, 1, 74, 100
3, 19200, Note_on_c, 1, 74, 0
3, 19200, Note_on_c, 1, 78, 100
3, 19360, Note_on_c, 1, 78, 0
3, 19360, Note_on_c, 1, 76, 100
3, 19520, Note_on_c, 1, 76, 0
3, 19520, Note_on_c, 1, 78, 100
3, 19680, Note_on_c, 1, 78, 0
3, 19680, Note_on_c, 1, 76, 100
3, 19840, Note_on_c, 1, 76, 0
3, 19840, Note_on_c, 1, 78, 100
3, 20000, Note_on_c, 1, 78, 0
3, 20000, Note_on_c, 1, 76, 100
3, 20160, Note_on_c, 1, 76, 0
3, 20160, Note_on_c, 1, 78, 100
3, 20320, Note_on_c, 1, 78, 0
3, 20320, Note_on_c, 1, 76, 100
3, 20480, Note_on_c, 1, 76, 0
3, 20480, Note_on_c, 1, 78, 100
3, 20640, Note_on_c, 1, 78, 0
3, 20640, Note_on_c, 1, 76, 100
3, 20800, Note_on_c, 1, 76, 0
3, 20800, Note_on_c, 1, 78, 100
3, 20960, Note_on_c, 1, 78, 0
3, 20960, Note_on_c, 1, 76, 100
3, 21120, Note_on_c, 1, 76, 0
3, 21120, Note_on_c, 1, 78, 100
3, 21280, Note_on_c, 1, 78, 0
3, 21280, Note_on_c, 1, 76, 100
3, 21440, Note_on_c, 1, 76, 0
3, 21440, Note_on_c, 1, 78, 100
3, 21600, Note_on_c, 1, 78, 0
3, 21600, Note_on_c, 1, 76, 100
3, 21760, Note_on_c, 1, 76, 0
3, 21760, Note_on_c, 1, 78, 100
3, 21920, Note_on_c, 1, 78, 0
3, 21920, Note_on_c, 1, 76, 100
3, 22080, Note_on_c, 1, 76, 0
3, 22080, Note_on_c, 1, 78, 100
3, 22200, Note_on_c, 1, 78, 0
3, 22200, Note_on_c, 1, 76, 100
3, 22320, Note_on_c, 1, 76, 0
3, 22320, Note_on_c, 1, 78, 100
3, 22440, Note_on_c, 1, 78, 0
3, 22440, Note_on_c, 1, 76, 100
3, 22560, Note_on_c, 1, 76, 0
3, 22560, Note_on_c, 1, 78, 100
3, 22680, Note_on_c, 1, 78, 0
3, 22680, Note_on_c, 1, 76, 100
3, 22800, Note_on_c, 1, 76, 0
3, 22800, Note_on_c, 1, 78, 100
3, 22920, Note_on_c, 1, 78, 0
3, 22920, Note_on_c, 1, 76, 100
3, 23040, Note_on_c, 1, 76, 0
3, 23040, Note_on_c, 1, 78, 100
3, 23160, Note_on_c, 1, 78, 0
3, 23160, Note_on_c, 1, 76, 100
3, 23280, Note_on_c, 1, 76, 0
3, 23280, Note_on_c, 1, 78, 100
3, 23400, Note_on_c, 1, 78, 0
3, 23400, Note_on_c, 1, 76, 100
3, 23520, Note_on_c, 1, 76, 0
3, 23520, Note_on_c, 1, 74, 100
3, 23760, Note_on_c, 1, 74, 0
3, 23760, Note_on_c, 1, 73, 100
3, 24000, Note_on_c, 1, 73, 0
3, 24000, Note_on_c, 1, 74, 100
3, 24480, Note_on_c, 1, 74, 0
3, 24480, Note_on_c, 1, 78, 100
3, 24960, Note_on_c, 1, 78, 0
3, 24960, Note_on_c, 1, 71, 100
3, 26400, Note_on_c, 1, 71, 0
3, 26400, Note_on_c, 1, 76, 100
3, 26640, Note_on_c, 1, 76, 0
3, 26640, Note_on_c, 1, 74, 100
3, 26880, Note_on_c, 1, 74, 0
3, 26880, Note_on_c, 1, 76, 100
3, 27360, Note_on_c, 1, 76, 0
3, 27360, Note_on_c, 1, 74, 100
3, 28320, Note_on_c, 1, 74, 0
3, 28320, Note_on_c, 1, 73, 100
3, 28800, Note_on_c, 1, 73, 0
3, 28800, Note_on_c, 1, 74, 100
3, 29280, Note_on_c, 1, 74, 0
3, 29280, Note_on_c, 1, 69, 100
3, 29520, Note_on_c, 1, 69, 0
3, 29520, Note_on_c, 1, 67, 100
3, 29760, Note_on_c, 1, 67, 0
3, 29760, Note_on_c, 1, 69, 100
3, 30720, Note_on_c, 1, 69, 0
3, 35520, Note_on_c, 1, 67, 100
3, 36960, Note_on_c, 1, 67, 0
3, 36960, Note_on_c, 1, 66, 100
3, 37200, Note_on_c, 1, 66, 0
3, 37200, Note_on_c, 1, 64, 100
3, 37440, Note_on_c, 1, 64, 0
3, 37440, Note_on_c, 1, 66, 100
3, 37920, Note_on_c, 1, 66, 0
3, 37920, Note_on_c, 1, 69, 100
3, 38400, Note_on_c, 1, 69, 0
3, 38400, Note_on_c, 1, 62, 100
3, 39840, Note_on_c, 1, 62, 0
3, 39840, Note_on_c, 1, 65, 100
3, 40320, Note_on_c, 1, 65, 0
3, 40320, Note_on_c, 1, 64, 100
3, 41760, Note_on_c, 1, 64, 0
3, 41760, Note_on_c, 1, 67, 100
3, 42720, Note_on_c, 1, 67, 0
3, 42720, Note_on_c, 1, 66, 100
3, 42960, Note_on_c, 1, 66, 0
3, 42960, Note_on_c, 1, 64, 100
3, 43200, Note_on_c, 1, 64, 0
3, 43200, Note_on_c, 1, 66, 100
3, 43680, Note_on_c, 1, 66, 0
3, 43680, Note_on_c, 1, 69, 100
3, 44640, Note_on_c, 1, 69, 0
3, 44640, Note_on_c, 1, 67, 100
3, 44880, Note_on_c, 1, 67, 0
3, 44880, Note_on_c, 1, 66, 100
3, 45120, Note_on_c, 1, 66, 0
3, 45120, Note_on_c, 1, 67, 100
3, 45600, Note_on_c, 1, 67, 0
3, 45600, Note_on_c, 1, 71, 100
3, 46080, Note_on_c, 1, 71, 0
3, 46080, Note_on_c, 1, 64, 100
3, 47040, Note_on_c, 1, 64, 0
3, 47040, Note_on_c, 1, 71, 100
3, 48000, Note_on_c, 1, 71, 0
3, 48000, Note_on_c, 1, 69, 100
3, 48960, Note_on_c, 1, 69, 0
3, 48960, Note_on_c, 1, 74, 100
3, 49920, Note_on_c, 1, 74, 0
3, 49920, Note_on_c, 1, 78, 100
3, 50080, Note_on_c, 1, 78, 0
3, 50080, Note_on_c, 1, 76, 100
3, 50240, Note_on_c, 1, 76, 0
3, 50240, Note_on_c, 1, 78, 100
3, 50400, Note_on_c, 1, 78, 0
3, 50400, Note_on_c, 1, 76, 100
3, 50560, Note_on_c, 1, 76, 0
3, 50560, Note_on_c, 1, 78, 100
3, 50720, Note_on_c, 1, 78, 0
3, 50720, Note_on_c, 1, 76, 100
3, 50880, Note_on_c, 1, 76, 0
3, 50880, Note_on_c, 1, 78, 100
3, 51040, Note_on_c, 1, 78, 0
3, 51040, Note_on_c, 1, 76, 100
3, 51200, Note_on_c, 1, 76, 0
3, 51200, Note_on_c, 1, 78, 100
3, 51360, Note_on_c, 1, 78, 0
3, 51360, Note_on_c, 1, 76, 100
3, 51520, Note_on_c, 1, 76, 0
3, 51520, Note_on_c, 1, 78, 100
3, 51680, Note_on_c, 1, 78, 0
3, 51680, Note_on_c, 1, 76, 100
3, 51840, Note_on_c, 1, 76, 0
3, 51840, Note_on_c, 1, 78, 100
3, 52000, Note_on_c, 1, 78, 0
3, 52000, Note_on_c, 1, 76, 100
3, 52160, Note_on_c, 1, 76, 0
3, 52160, Note_on_c, 1, 78, 100
3, 52320, Note_on_c, 1, 78, 0
3, 52320, Note_on_c, 1, 76, 100
3, 52480, Note_on_c, 1, 76, 0
3, 52480, Note_on_c, 1, 78, 100
3, 52640, Note_on_c, 1, 78, 0
3, 52640, Note_on_c, 1, 76, 100
3, 52800, Note_on_c, 1, 76, 0
3, 52800, Note_on_c, 1, 78, 100
3, 52920, Note_on_c, 1, 78, 0
3, 52920, Note_on_c, 1, 76, 100
3, 53040, Note_on_c, 1, 76, 0
3, 53040, Note_on_c, 1, 78, 100
3, 53160, Note_on_c, 1, 78, 0
3, 53160, Note_on_c, 1, 76, 100
3, 53280, Note_on_c, 1, 76, 0
3, 53280, Note_on_c, 1, 78, 100
3, 53400, Note_on_c, 1, 78, 0
3, 53400, Note_on_c, 1, 76, 100
3, 53520, Note_on_c, 1, 76, 0
3, 53520, Note_on_c, 1, 78, 100
3, 53640, Note_on_c, 1, 78, 0
3, 53640, Note_on_c, 1, 76, 100
3, 53760, Note_on_c, 1, 76, 0
3, 53760, Note_on_c, 1, 78, 100
3, 53880, Note_on_c, 1, 78, 0
3, 53880, Note_on_c, 1, 76, 100
3, 54000, Note_on_c, 1, 76, 0
3, 54000, Note_on_c, 1, 78, 100
3, 54120, Note_on_c, 1, 78, 0
3, 54120, Note_on_c, 1, 76, 100
3, 54240, Note_on_c, 1, 76, 0
3, 54240, Note_on_c, 1, 74, 100
3, 54480, Note_on_c, 1, 74, 0
3, 54480, Note_on_c, 1, 73, 100
3, 54720, Note_on_c, 1, 73, 0
3, 54720, Note_on_c, 1, 74, 100
3, 55200, Note_on_c, 1, 74, 0
3, 55200, Note_on_c, 1, 78, 100
3, 55680, Note_on_c, 1, 78, 0
3, 55680, Note_on_c, 1, 71, 100
3, 57120, Note_on_c, 1, 71, 0
3, 57120, Note_on_c, 1, 76, 100
3, 57360, Note_on_c, 1, 76, 0
3, 57360, Note_on_c, 1, 74, 100
3, 57600, Note_on_c, 1, 74, 0
3, 57600, Note_on_c, 1, 76, 100
3, 58080, Note_on_c, 1, 76, 0
3, 58080, Note_on_c, 1, 74, 100
3, 59040, Note_on_c, 1, 74, 0
3, 59040, Note_on_c, 1, 73, 100
3, 59520, Note_on_c, 1, 73, 0
3, 59520, Note_on_c, 1, 74, 100
3, 60000, Note_on_c, 1, 74, 0
3, 60000, Note_on_c, 1, 69, 100
3, 60240, Note_on_c, 1, 69, 0
3, 60240, Note_on_c, 1, 67, 100
3, 60480, Note_on_c, 1, 67, 0
3, 60480, Note_on_c, 1, 69, 100
3, 61440, Note_on_c, 1, 69, 0
3, 64320, Note_on_c, 1, 71, 100
3, 65760, Note_on_c, 1, 71, 0
3, 65760, Note_on_c, 1, 69, 100
3, 66000, Note_on_c, 1, 69, 0
3, 66000, Note_on_c, 1, 67, 100
3, 66240, Note_on_c, 1, 67, 0
3, 66240, Note_on_c, 1, 69, 100
3, 66720, Note_on_c, 1, 69, 0
3, 66720, Note_on_c, 1, 72, 100
3, 67200, Note_on_c, 1, 72, 0
3, 67200, Note_on_c, 1, 66, 100
3, 68160, Note_on_c, 1, 66, 0
3, 68160, Note_on_c, 1, 71, 100
3, 69120, Note_on_c, 1, 71, 0
3, 70080, Note_on_c, 1, 79, 100
3, 71520, Note_on_c, 1, 79, 0
3, 71520, Note_on_c, 1, 78, 100
3, 71760, Note_on_c, 1, 78, 0
3, 71760, Note_on_c, 1, 76, 100
3, 72000, Note_on_c, 1, 76, 0
3, 72000, Note_on_c, 1, 78, 100
3, 72480, Note_on_c, 1, 78, 0
3, 72480, Note_on_c, 1, 81, 100
3, 72960, Note_on_c, 1, 81, 0
3, 72960, Note_on_c, 1, 75, 100
3, 73440, Note_on_c, 1, 75, 0
3, 73440, Note_on_c, 1, 76, 100
3, 74400, Note_on_c, 1, 76, 0
3, 74400, Note_on_c, 1, 75, 100
3, 74880, Note_on_c, 1, 75, 0
3, 74880, Note_on_c, 1, 76, 100
3, 75840, Note_on_c, 1, 76, 0
3, 75840, Note_on_c, 1, 71, 100
3, 77280, Note_on_c, 1, 71, 0
3, 77280, Note_on_c, 1, 69, 100
3, 77520, Note_on_c, 1, 69, 0
3, 77520, Note_on_c, 1, 67, 100
3, 77760, Note_on_c, 1, 67, 0
3, 77760, Note_on_c, 1, 69, 100
3, 78240, Note_on_c, 1, 69, 0
3, 78240, Note_on_c, 1, 72, 100
3, 78720, Note_on_c, 1, 72, 0
3, 78720, Note_on_c, 1, 66, 100
3, 79200, Note_on_c, 1, 66, 0
3, 79200, Note_on_c, 1, 62, 100
3, 79680, Note_on_c, 1, 62, 0
3, 79680, Note_on_c, 1, 67, 100
3, 81120, Note_on_c, 1, 67, 0
3, 81120, Note_on_c, 1, 66, 100
3, 81360, Note_on_c, 1, 66, 0
3, 81360, Note_on_c, 1, 64, 100
3, 81600, Note_on_c, 1, 64, 0
3, 81600, Note_on_c, 1, 66, 100
3, 82080, Note_on_c, 1, 66, 0
3, 82080, Note_on_c, 1, 69, 100
3, 82560, Note_on_c, 1, 69, 0
3, 82560, Note_on_c, 1, 62, 100
3, 83520, Note_on_c, 1, 62, 0
3, 85440, Note_on_c, 1, 67, 100
3, 86880, Note_on_c, 1, 67, 0
3, 86880, Note_on_c, 1, 67, 100
3, 87120, Note_on_c, 1, 67, 0
3, 87120, Note_on_c, 1, 66, 100
3, 87360, Note_on_c, 1, 66, 0
3, 87360, Note_on_c, 1, 67, 100
3, 88800, Note_on_c, 1, 67, 0
3, 88800, Note_on_c, 1, 66, 100
3, 89040, Note_on_c, 1, 66, 0
3, 89040, Note_on_c, 1, 64, 100
3, 89280, Note_on_c, 1, 64, 0
3, 89280, Note_on_c, 1, 66, 100
3, 89760, Note_on_c, 1, 66, 0
3, 89760, Note_on_c, 1, 69, 100
3, 90720, Note_on_c, 1, 69, 0
3, 90720, Note_on_c, 1, 67, 100
3, 90960, Note_on_c, 1, 67, 0
3, 90960, Note_on_c, 1, 66, 100
3, 91200, Note_on_c, 1, 66, 0
3, 91200, Note_on_c, 1, 67, 100
3, 92160, Note_on_c, 1, 67, 0
3, 95040, Note_on_c, 1, 71, 100
3, 96480, Note_on_c, 1, 71, 0
3, 96480, Note_on_c, 1, 69, 100
3, 96720, Note_on_c, 1, 69, 0
3, 96720, Note_on_c, 1, 67, 100
3, 96960, Note_on_c, 1, 67, 0
3, 96960, Note_on_c, 1, 69, 100
3, 97440, Note_on_c, 1, 69, 0
3, 97440, Note_on_c, 1, 72, 100
3, 97920, Note_on_c, 1, 72, 0
3, 97920, Note_on_c, 1, 66, 100
3, 98880, Note_on_c, 1, 66, 0
3, 98880, Note_on_c, 1, 71, 100
3, 99840, Note_on_c, 1, 71, 0
3, 100800, Note_on_c, 1, 79, 100
3, 102240, Note_on_c, 1, 79, 0
3, 102240, Note_on_c, 1, 78, 100
3, 102480, Note_on_c, 1, 78, 0
3, 102480, Note_on_c, 1, 76, 100
3, 102720, Note_on_c, 1, 76, 0
3, 102720, Note_on_c, 1, 78, 100
3, 103200, Note_on_c, 1, 78, 0
3, 103200, Note_on_c, 1, 81, 100
3, 103680, Note_on_c, 1, 81, 0
3, 103680, Note_on_c, 1, 75, 100
3, 104160, Note_on_c, 1, 75, 0
3, 104160, Note_on_c, 1, 76, 100
3, 105120, Note_on_c, 1, 76, 0
3, 105120, Note_on_c, 1, 75, 100
3, 105600, Note_on_c, 1, 75, 0
3, 105600, Note_on_c, 1, 76, 100
3, 106560, Note_on_c, 1, 76, 0
3, 106560, Note_on_c, 1, 71, 100
3, 108000, Note_on_c, 1, 71, 0
3, 108000, Note_on_c, 1, 69, 100
3, 108240, Note_on_c, 1, 69, 0
3, 108240, Note_on_c, 1, 67, 100
3, 108480, Note_on_c, 1, 67, 0
3, 108480, Note_on_c, 1, 69, 100
3, 108960, Note_on_c, 1, 69, 0
3, 108960, Note_on_c, 1, 72, 100
3, 109440, Note_on_c, 1, 72, 0
3, 109440, Note_on_c, 1, 66, 100
3, 109920, Note_on_c, 1, 66, 0
3, 109920, Note_on_c, 1, 62, 100
3, 110400, Note_on_c, 1, 62, 0
3, 110400, Note_on_c, 1, 67, 100
3, 111840, Note_on_c, 1, 67, 0
3, 111840, Note_on_c, 1, 66, 100
3, 112080, Note_on_c, 1, 66, 0
3, 112080, Note_on_c, 1, 64, 100
3, 112320, Note_on_c, 1, 64, 0
3, 112320, Note_on_c, 1, 66, 100
3, 112800, Note_on_c, 1, 66, 0
3, 112800, Note_on_c, 1, 69, 100
3, 113280, Note_on_c, 1, 69, 0
3, 113280, Note_on_c, 1, 62, 100
3, 114240, Note_on_c, 1, 62, 0
3, 116160, Note_on_c, 1, 67, 100
3, 117600, Note_on_c, 1, 67, 0
3, 117600, Note_on_c, 1, 67, 100
3, 117840, Note_on_c, 1, 67, 0
3, 117840, Note_on_c, 1, 66, 100
3, 118080, Note_on_c, 1, 66, 0
3, 118080, Note_on_c, 1, 67, 100
3, 119520, Note_on_c, 1, 67, 0
3, 119520, Note_on_c, 1, 66, 100
3, 119760, Note_on_c, 1, 66, 0
3, 119760, Note_on_c, 1, 64, 100
3, 120000, Note_on_c, 1, 64, 0
3, 120000, Note_on_c, 1, 66, 100
3, 120480, Note_on_c, 1, 66, 0
3, 120480, Note_on_c, 1, 69, 100
3, 121440, Note_on_c, 1, 69, 0
3, 121440, Note_on_c, 1, 67, 100
3, 121680, Note_on_c, 1, 67, 0
3, 121680, Note_on_c, 1, 66, 100
3, 121920, Note_on_c, 1, 66, 0
3, 121920, Note_on_c, 1, 67, 100
3, 122880, Note_on_c, 1, 67, 0
3, 122880, End_track
4, 0, Start_track
4, 0, MIDI_port, 0
4, 0, Title_t, "Johann Sebastian Bach  (1685-1750)"
4, 0, Program_c, 2, 6
4, 0, Control_c, 2, 7, 100
4, 0, Control_c, 2, 10, 59
4, 960, Note_on_c, 2, 64, 100
4, 2400, Note_on_c, 2, 64, 0
4, 2400, Note_on_c, 2, 62, 100
4, 2640, Note_on_c, 2, 62, 0
4, 2640, Note_on_c, 2, 61, 100
4, 2880, Note_on_c, 2, 61, 0
4, 2880, Note_on_c, 2, 62, 100
4, 4320, Note_on_c, 2, 62, 0
4, 4320, Note_on_c, 2, 61, 100
4, 4560, Note_on_c, 2, 61, 0
4, 4560, Note_on_c, 2, 59, 100
4, 4800, Note_on_c, 2, 59, 0
4, 4800, Note_on_c, 2, 61, 100
4, 5280, Note_on_c, 2, 61, 0
4, 5280, Note_on_c, 2, 64, 100
4, 5760, Note_on_c, 2, 64, 0
4, 5760, Note_on_c, 2, 57, 100
4, 8160, Note_on_c, 2, 57, 0
4, 8160, Note_on_c, 2, 55, 100
4, 8400, Note_on_c, 2, 55, 0
4, 8400, Note_on_c, 2, 54, 100
4, 8640, Note_on_c, 2, 54, 0
4, 8640, Note_on_c, 2, 55, 100
4, 10080, Note_on_c, 2, 55, 0
4, 10080, Note_on_c, 2, 52, 100
4, 10560, Note_on_c, 2, 52, 0
4, 10560, Note_on_c, 2, 57, 100
4, 12000, Note_on_c, 2, 57, 0
4, 12000, Note_on_c, 2, 57, 100
4, 12240, Note_on_c, 2, 57, 0
4, 12240, Note_on_c, 2, 55, 100
4, 12480, Note_on_c, 2, 55, 0
4, 12480, Note_on_c, 2, 57, 100
4, 12960, Note_on_c, 2, 57, 0
4, 12960, Note_on_c, 2, 54, 100
4, 13440, Note_on_c, 2, 54, 0
4, 13440, Note_on_c, 2, 62, 100
4, 14400, Note_on_c, 2, 62, 0
4, 16320, Note_on_c, 2, 64, 100
4, 17760, Note_on_c, 2, 64, 0
4, 17760, Note_on_c, 2, 62, 100
4, 18000, Note_on_c, 2, 62, 0
4, 18000, Note_on_c, 2, 61, 100
4, 18240, Note_on_c, 2, 61, 0
4, 18240, Note_on_c, 2, 62, 100
4, 19680, Note_on_c, 2, 62, 0
4, 19680, Note_on_c, 2, 61, 100
4, 19920, Note_on_c, 2, 61, 0
4, 19920, Note_on_c, 2, 59, 100
4, 20160, Note_on_c, 2, 59, 0
4, 20160, Note_on_c, 2, 61, 100
4, 20640, Note_on_c, 2, 61, 0
4, 20640, Note_on_c, 2, 64, 100
4, 21120, Note_on_c, 2, 64, 0
4, 21120, Note_on_c, 2, 57, 100
4, 23040, Note_on_c, 2, 57, 0
4, 24000, Note_on_c, 2, 57, 100
4, 25440, Note_on_c, 2, 57, 0
4, 25440, Note_on_c, 2, 55, 100
4, 25680, Note_on_c, 2, 55, 0
4, 25680, Note_on_c, 2, 54, 100
4, 25920, Note_on_c, 2, 54, 0
4, 25920, Note_on_c, 2, 55, 100
4, 26400, Note_on_c, 2, 55, 0
4, 26400, Note_on_c, 2, 59, 100
4, 26880, Note_on_c, 2, 59, 0
4, 26880, Note_on_c, 2, 49, 100
4, 27360, Note_on_c, 2, 49, 0
4, 27360, Note_on_c, 2, 50, 100
4, 27840, Note_on_c, 2, 50, 0
4, 27840, Note_on_c, 2, 52, 100
4, 28080, Note_on_c, 2, 52, 0
4, 28080, Note_on_c, 2, 54, 100
4, 28320, Note_on_c, 2, 54, 0
4, 28320, Note_on_c, 2, 55, 100
4, 29280, Note_on_c, 2, 55, 0
4, 29280, Note_on_c, 2, 54, 100
4, 29520, Note_on_c, 2, 54, 0
4, 29520, Note_on_c, 2, 52, 100
4, 29760, Note_on_c, 2, 52, 0
4, 29760, Note_on_c, 2, 54, 100
4, 30720, Note_on_c, 2, 54, 0
4, 31680, Note_on_c, 2, 64, 100
4, 33120, Note_on_c, 2, 64, 0
4, 33120, Note_on_c, 2, 62, 100
4, 33360, Note_on_c, 2, 62, 0
4, 33360, Note_on_c, 2, 61, 100
4, 33600, Note_on_c, 2, 61, 0
4, 33600, Note_on_c, 2, 62, 100
4, 35040, Note_on_c, 2, 62, 0
4, 35040, Note_on_c, 2, 61, 100
4, 35280, Note_on_c, 2, 61, 0
4, 35280, Note_on_c, 2, 59, 100
4, 35520, Note_on_c, 2, 59, 0
4, 35520, Note_on_c, 2, 61, 100
4, 36000, Note_on_c, 2, 61, 0
4, 36000, Note_on_c, 2, 64, 100
4, 36480, Note_on_c, 2, 64, 0
4, 36480, Note_on_c, 2, 57, 100
4, 38880, Note_on_c, 2, 57, 0
4, 38880, Note_on_c, 2, 55, 100
4, 39120, Note_on_c, 2, 55, 0
4, 39120, Note_on_c, 2, 54, 100
4, 39360, Note_on_c, 2, 54, 0
4, 39360, Note_on_c, 2, 55, 100
4, 40800, Note_on_c, 2, 55, 0
4, 40800, Note_on_c, 2, 52, 100
4, 41280, Note_on_c, 2, 52, 0
4, 41280, Note_on_c, 2, 57, 100
4, 42720, Note_on_c, 2, 57, 0
4, 42720, Note_on_c, 2, 57, 100
4, 42960, Note_on_c, 2, 57, 0
4, 42960, Note_on_c, 2, 55, 100
4, 43200, Note_on_c, 2, 55, 0
4, 43200, Note_on_c, 2, 57, 100
4, 43680, Note_on_c, 2, 57, 0
4, 43680, Note_on_c, 2, 54, 100
4, 44160, Note_on_c, 2, 54, 0
4, 44160, Note_on_c, 2, 62, 100
4, 45120, Note_on_c, 2, 62, 0
4, 47040, Note_on_c, 2, 64, 100
4, 48480, Note_on_c, 2, 64, 0
4, 48480, Note_on_c, 2, 62, 100
4, 48720, Note_on_c, 2, 62, 0
4, 48720, Note_on_c, 2, 61, 100
4, 48960, Note_on_c, 2, 61, 0
4, 48960, Note_on_c, 2, 62, 100
4, 50400, Note_on_c, 2, 62, 0
4, 50400, Note_on_c, 2, 61, 100
4, 50640, Note_on_c, 2, 61, 0
4, 50640, Note_on_c, 2, 59, 100
4, 50880, Note_on_c, 2, 59, 0
4, 50880, Note_on_c, 2, 61, 100
4, 51360, Note_on_c, 2, 61, 0
4, 51360, Note_on_c, 2, 64, 100
4, 51840, Note_on_c, 2, 64, 0
4, 51840, Note_on_c, 2, 57, 100
4, 53760, Note_on_c, 2, 57, 0
4, 54720, Note_on_c, 2, 57, 100
4, 56160, Note_on_c, 2, 57, 0
4, 56160, Note_on_c, 2, 55, 100
4, 56400, Note_on_c, 2, 55, 0
4, 56400, Note_on_c, 2, 54, 100
4, 56640, Note_on_c, 2, 54, 0
4, 56640, Note_on_c, 2, 55, 100
4, 57120, Note_on_c, 2, 55, 0
4, 57120, Note_on_c, 2, 59, 100
4, 57600, Note_on_c, 2, 59, 0
4, 57600, Note_on_c, 2, 49, 100
4, 58080, Note_on_c, 2, 49, 0
4, 58080, Note_on_c, 2, 50, 100
4, 58560, Note_on_c, 2, 50, 0
4, 58560, Note_on_c, 2, 52, 100
4, 58800, Note_on_c, 2, 52, 0
4, 58800, Note_on_c, 2, 54, 100
4, 59040, Note_on_c, 2, 54, 0
4, 59040, Note_on_c, 2, 55, 100
4, 60000, Note_on_c, 2, 55, 0
4, 60000, Note_on_c, 2, 54, 100
4, 60240, Note_on_c, 2, 54, 0
4, 60240, Note_on_c, 2, 52, 100
4, 60480, Note_on_c, 2, 52, 0
4, 60480, Note_on_c, 2, 54, 100
4, 61440, Note_on_c, 2, 54, 0
4, 68160, Note_on_c, 2, 66, 100
4, 69600, Note_on_c, 2, 66, 0
4, 69600, Note_on_c, 2, 64, 100
4, 69840, Note_on_c, 2, 64, 0
4, 69840, Note_on_c, 2, 63, 100
4, 70080, Note_on_c, 2, 63, 0
4, 70080, Note_on_c, 2, 64, 100
4, 70560, Note_on_c, 2, 64, 0
4, 70560, Note_on_c, 2, 67, 100
4, 71040, Note_on_c, 2, 67, 0
4, 71040, Note_on_c, 2, 60, 100
4, 71520, Note_on_c, 2, 60, 0
4, 71520, Note_on_c, 2, 64, 100
4, 72000, Note_on_c, 2, 64, 0
4, 72000, Note_on_c, 2, 69, 100
4, 73440, Note_on_c, 2, 69, 0
4, 73440, Note_on_c, 2, 67, 100
4, 73920, Note_on_c, 2, 67, 0
4, 73920, Note_on_c, 2, 66, 100
4, 74880, Note_on_c, 2, 66, 0
4, 74880, Note_on_c, 2, 64, 100
4, 75840, Note_on_c, 2, 64, 0
4, 81600, Note_on_c, 2, 60, 100
4, 83040, Note_on_c, 2, 60, 0
4, 83040, Note_on_c, 2, 59, 100
4, 83280, Note_on_c, 2, 59, 0
4, 83280, Note_on_c, 2, 57, 100
4, 83520, Note_on_c, 2, 57, 0
4, 83520, Note_on_c, 2, 59, 100
4, 84000, Note_on_c, 2, 59, 0
4, 84000, Note_on_c, 2, 62, 100
4, 84480, Note_on_c, 2, 62, 0
4, 84480, Note_on_c, 2, 55, 100
4, 85920, Note_on_c, 2, 55, 0
4, 85920, Note_on_c, 2, 59, 100
4, 86400, Note_on_c, 2, 59, 0
4, 86400, Note_on_c, 2, 52, 100
4, 87360, Note_on_c, 2, 52, 0
4, 87360, Note_on_c, 2, 57, 100
4, 88800, Note_on_c, 2, 57, 0
4, 88800, Note_on_c, 2, 57, 100
4, 89040, Note_on_c, 2, 57, 0
4, 89040, Note_on_c, 2, 55, 100
4, 89280, Note_on_c, 2, 55, 0
4, 89280, Note_on_c, 2, 57, 100
4, 89760, Note_on_c, 2, 57, 0
4, 89760, Note_on_c, 2, 54, 100
4, 90240, Note_on_c, 2, 54, 0
4, 90240, Note_on_c, 2, 62, 100
4, 92160, Note_on_c, 2, 62, 0
4, 98880, Note_on_c, 2, 66, 100
4, 100320, Note_on_c, 2, 66, 0
4, 100320, Note_on_c, 2, 64, 100
4, 100560, Note_on_c, 2, 64, 0
4, 100560, Note_on_c, 2, 63, 100
4, 100800, Note_on_c, 2, 63, 0
4, 100800, Note_on_c, 2, 64, 100
4, 101280, Note_on_c, 2, 64, 0
4, 101280, Note_on_c, 2, 67, 100
4, 101760, Note_on_c, 2, 67, 0
4, 101760, Note_on_c, 2, 60, 100
4, 102240, Note_on_c, 2, 60, 0
4, 102240, Note_on_c, 2, 64, 100
4, 102720, Note_on_c, 2, 64, 0
4, 102720, Note_on_c, 2, 69, 100
4, 104160, Note_on_c, 2, 69, 0
4, 104160, Note_on_c, 2, 67, 100
4, 104640, Note_on_c, 2, 67, 0
4, 104640, Note_on_c, 2, 66, 100
4, 105600, Note_on_c, 2, 66, 0
4, 105600, Note_on_c, 2, 64, 100
4, 106560, Note_on_c, 2, 64, 0
4, 112320, Note_on_c, 2, 60, 100
4, 113760, Note_on_c, 2, 60, 0
4, 113760, Note_on_c, 2, 59, 100
4, 114000, Note_on_c, 2, 59, 0
4, 114000, Note_on_c, 2, 57, 100
4, 114240, Note_on_c, 2, 57, 0
4, 114240, Note_on_c, 2, 59, 100
4, 114720, Note_on_c, 2, 59, 0
4, 114720, Note_on_c, 2, 62, 100
4, 115200, Note_on_c, 2, 62, 0
4, 115200, Note_on_c, 2, 55, 100
4, 116640, Note_on_c, 2, 55, 0
4, 116640, Note_on_c, 2, 59, 100
4, 117120, Note_on_c, 2, 59, 0
4, 117120, Note_on_c, 2, 52, 100
4, 118080, Note_on_c, 2, 52, 0
4, 118080, Note_on_c, 2, 57, 100
4, 119520, Note_on_c, 2, 57, 0
4, 119520, Note_on_c, 2, 57, 100
4, 119760, Note_on_c, 2, 57, 0
4, 119760, Note_on_c, 2, 55, 100
4, 120000, Note_on_c, 2, 55, 0
4, 120000, Note_on_c, 2, 57, 100
4, 120480, Note_on_c, 2, 57, 0
4, 120480, Note_on_c, 2, 54, 100
4, 120960, Note_on_c, 2, 54, 0
4, 120960, Note_on_c, 2, 62, 100
4, 122880, Note_on_c, 2, 62, 0
4, 122880, End_track
5, 0, Start_track
5, 0, MIDI_port, 0
5, 0, Title_t, "The Goldberg Variations - BWV 988"
5, 0, Program_c, 3, 6
5, 0, Control_c, 3, 7, 100
5, 0, Control_c, 3, 10, 49
5, 0, Note_on_c, 3, 55, 100
5, 1920, Note_on_c, 3, 55, 0
5, 1920, Note_on_c, 3, 54, 100
5, 3840, Note_on_c, 3, 54, 0
5, 3840, Note_on_c, 3, 52, 100
5, 5760, Note_on_c, 3, 52, 0
5, 5760, Note_on_c, 3, 50, 100
5, 7200, Note_on_c, 3, 50, 0
5, 7200, Note_on_c, 3, 48, 100
5, 7680, Note_on_c, 3, 48, 0
5, 7680, Note_on_c, 3, 47, 100
5, 9600, Note_on_c, 3, 47, 0
5, 9600, Note_on_c, 3, 48, 100
5, 11520, Note_on_c, 3, 48, 0
5, 11520, Note_on_c, 3, 50, 100
5, 13440, Note_on_c, 3, 50, 0
5, 13440, Note_on_c, 3, 43, 100
5, 15840, Note_on_c, 3, 43, 0
5, 15840, Note_on_c, 3, 55, 100
5, 16080, Note_on_c, 3, 55, 0
5, 16080, Note_on_c, 3, 54, 100
5, 16320, Note_on_c, 3, 54, 0
5, 16320, Note_on_c, 3, 55, 100
5, 17760, Note_on_c, 3, 55, 0
5, 17760, Note_on_c, 3, 54, 100
5, 18000, Note_on_c, 3, 54, 0
5, 18000, Note_on_c, 3, 52, 100
5, 18240, Note_on_c, 3, 52, 0
5, 18240, Note_on_c, 3, 54, 100
5, 18720, Note_on_c, 3, 54, 0
5, 18720, Note_on_c, 3, 59, 100
5, 19200, Note_on_c, 3, 59, 0
5, 19200, Note_on_c, 3, 52, 100
5, 20640, Note_on_c, 3, 52, 0
5, 20640, Note_on_c, 3, 50, 100
5, 21600, Note_on_c, 3, 50, 0
5, 21600, Note_on_c, 3, 49, 100
5, 21840, Note_on_c, 3, 49, 0
5, 21840, Note_on_c, 3, 47, 100
5, 22080, Note_on_c, 3, 47, 0
5, 22080, Note_on_c, 3, 49, 100
5, 22560, Note_on_c, 3, 49, 0
5, 22560, Note_on_c, 3, 52, 100
5, 23040, Note_on_c, 3, 52, 0
5, 23040, Note_on_c, 3, 42, 100
5, 24000, Note_on_c, 3, 42, 0
5, 24000, Note_on_c, 3, 54, 100
5, 24960, Note_on_c, 3, 54, 0
5, 24960, Note_on_c, 3, 43, 100
5, 25920, Note_on_c, 3, 43, 0
5, 25920, Note_on_c, 3, 52, 100
5, 26880, Note_on_c, 3, 52, 0
5, 26880, Note_on_c, 3, 45, 100
5, 28800, Note_on_c, 3, 45, 0
5, 28800, Note_on_c, 3, 50, 100
5, 30720, Note_on_c, 3, 50, 0
5, 30720, Note_on_c, 3, 55, 100
5, 32640, Note_on_c, 3, 55, 0
5, 32640, Note_on_c, 3, 54, 100
5, 34560, Note_on_c, 3, 54, 0
5, 34560, Note_on_c, 3, 52, 100
5, 36480, Note_on_c, 3, 52, 0
5, 36480, Note_on_c, 3, 50, 100
5, 37920, Note_on_c, 3, 50, 0
5, 37920, Note_on_c, 3, 48, 100
5, 38400, Note_on_c, 3, 48, 0
5, 38400, Note_on_c, 3, 47, 100
5, 40320, Note_on_c, 3, 47, 0
5, 40320, Note_on_c, 3, 48, 100
5, 42240, Note_on_c, 3, 48, 0
5, 42240, Note_on_c, 3, 50, 100
5, 44160, Note_on_c, 3, 50, 0
5, 44160, Note_on_c, 3, 43, 100
5, 46560, Note_on_c, 3, 43, 0
5, 46560, Note_on_c, 3, 55, 100
5, 46800, Note_on_c, 3, 55, 0
5, 46800, Note_on_c, 3, 54, 100
5, 47040, Note_on_c, 3, 54, 0
5, 47040, Note_on_c, 3, 55, 100
5, 48480, Note_on_c, 3, 55, 0
5, 48480, Note_on_c, 3, 54, 100
5, 48720, Note_on_c, 3, 54, 0
5, 48720, Note_on_c, 3, 52, 100
5, 48960, Note_on_c, 3, 52, 0
5, 48960, Note_on_c, 3, 54, 100
5, 49440, Note_on_c, 3, 54, 0
5, 49440, Note_on_c, 3, 59, 100
5, 49920, Note_on_c, 3, 59, 0
5, 49920, Note_on_c, 3, 52, 100
5, 51360, Note_on_c, 3, 52, 0
5, 51360, Note_on_c, 3, 50, 100
5, 52320, Note_on_c, 3, 50, 0
5, 52320, Note_on_c, 3, 49, 100
5, 52560, Note_on_c, 3, 49, 0
5, 52560, Note_on_c, 3, 47, 100
5, 52800, Note_on_c, 3, 47, 0
5, 52800, Note_on_c, 3, 49, 100
5, 53280, Note_on_c, 3, 49, 0
5, 53280, Note_on_c, 3, 52, 100
5, 53760, Note_on_c, 3, 52, 0
5, 53760, Note_on_c, 3, 42, 100
5, 54720, Note_on_c, 3, 42, 0
5, 54720, Note_on_c, 3, 54, 100
5, 55680, Note_on_c, 3, 54, 0
5, 55680, Note_on_c, 3, 43, 100
5, 56640, Note_on_c, 3, 43, 0
5, 56640, Note_on_c, 3, 52, 100
5, 57600, Note_on_c, 3, 52, 0
5, 57600, Note_on_c, 3, 45, 100
5, 59520, Note_on_c, 3, 45, 0
5, 59520, Note_on_c, 3, 50, 100
5, 61440, Note_on_c, 3, 50, 0
5, 61440, Note_on_c, 3, 62, 100
5, 62880, Note_on_c, 3, 62, 0
5, 62880, Note_on_c, 3, 60, 100
5, 63360, Note_on_c, 3, 60, 0
5, 63360, Note_on_c, 3, 59, 100
5, 63840, Note_on_c, 3, 59, 0
5, 63840, Note_on_c, 3, 62, 100
5, 64320, Note_on_c, 3, 62, 0
5, 64320, Note_on_c, 3, 67, 100
5, 64800, Note_on_c, 3, 67, 0
5, 64800, Note_on_c, 3, 55, 100
5, 65280, Note_on_c, 3, 55, 0
5, 65280, Note_on_c, 3, 60, 100
5, 65760, Note_on_c, 3, 60, 0
5, 65760, Note_on_c, 3, 64, 100
5, 66240, Note_on_c, 3, 64, 0
5, 66240, Note_on_c, 3, 60, 100
5, 66720, Note_on_c, 3, 60, 0
5, 66720, Note_on_c, 3, 57, 100
5, 67200, Note_on_c, 3, 57, 0
5, 67200, Note_on_c, 3, 59, 100
5, 67680, Note_on_c, 3, 59, 0
5, 67680, Note_on_c, 3, 47, 100
5, 68160, Note_on_c, 3, 47, 0
5, 68160, Note_on_c, 3, 59, 100
5, 68640, Note_on_c, 3, 59, 0
5, 68640, Note_on_c, 3, 57, 100
5, 69120, Note_on_c, 3, 57, 0
5, 69120, Note_on_c, 3, 55, 100
5, 71040, Note_on_c, 3, 55, 0
5, 71040, Note_on_c, 3, 57, 100
5, 72960, Note_on_c, 3, 57, 0
5, 72960, Note_on_c, 3, 59, 100
5, 74880, Note_on_c, 3, 59, 0
5, 74880, Note_on_c, 3, 52, 100
5, 76320, Note_on_c, 3, 52, 0
5, 76320, Note_on_c, 3, 50, 100
5, 76800, Note_on_c, 3, 50, 0
5, 76800, Note_on_c, 3, 48, 100
5, 77760, Note_on_c, 3, 48, 0
5, 77760, Note_on_c, 3, 60, 100
5, 79200, Note_on_c, 3, 60, 0
5, 79200, Note_on_c, 3, 59, 100
5, 79440, Note_on_c, 3, 59, 0
5, 79440, Note_on_c, 3, 57, 100
5, 79680, Note_on_c, 3, 57, 0
5, 79680, Note_on_c, 3, 59, 100
5, 80160, Note_on_c, 3, 59, 0
5, 80160, Note_on_c, 3, 64, 100
5, 80640, Note_on_c, 3, 64, 0
5, 80640, Note_on_c, 3, 57, 100
5, 82080, Note_on_c, 3, 57, 0
5, 82080, Note_on_c, 3, 55, 100
5, 82560, Note_on_c, 3, 55, 0
5, 82560, Note_on_c, 3, 54, 100
5, 83520, Note_on_c, 3, 54, 0
5, 83520, Note_on_c, 3, 55, 100
5, 84480, Note_on_c, 3, 55, 0
5, 84480, Note_on_c, 3, 52, 100
5, 85920, Note_on_c, 3, 52, 0
5, 85920, Note_on_c, 3, 50, 100
5, 86400, Note_on_c, 3, 50, 0
5, 86400, Note_on_c, 3, 48, 100
5, 87360, Note_on_c, 3, 48, 0
5, 87360, Note_on_c, 3, 49, 100
5, 88320, Note_on_c, 3, 49, 0
5, 88320, Note_on_c, 3, 50, 100
5, 90240, Note_on_c, 3, 50, 0
5, 90240, Note_on_c, 3, 43, 100
5, 92160, Note_on_c, 3, 43, 0
5, 92160, Note_on_c, 3, 62, 100
5, 93600, Note_on_c, 3, 62, 0
5, 93600, Note_on_c, 3, 60, 100
5, 94080, Note_on_c, 3, 60, 0
5, 94080, Note_on_c, 3, 59, 100
5, 94560, Note_on_c, 3, 59, 0
5, 94560, Note_on_c, 3, 62, 100
5, 95040, Note_on_c, 3, 62, 0
5, 95040, Note_on_c, 3, 67, 100
5, 95520, Note_on_c, 3, 67, 0
5, 95520, Note_on_c, 3, 55, 100
5, 96000, Note_on_c, 3, 55, 0
5, 96000, Note_on_c, 3, 60, 100
5, 96480, Note_on_c, 3, 60, 0
5, 96480, Note_on_c, 3, 64, 100
5, 96960, Note_on_c, 3, 64, 0
5, 96960, Note_on_c, 3, 60, 100
5, 97440, Note_on_c, 3, 60, 0
5, 97440, Note_on_c, 3, 57, 100
5, 97920, Note_on_c, 3, 57, 0
5, 97920, Note_on_c, 3, 59, 100
5, 98400, Note_on_c, 3, 59, 0
5, 98400, Note_on_c, 3, 47, 100
5, 98880, Note_on_c, 3, 47, 0
5, 98880, Note_on_c, 3, 59, 100
5, 99360, Note_on_c, 3, 59, 0
5, 99360, Note_on_c, 3, 57, 100
5, 99840, Note_on_c, 3, 57, 0
5, 99840, Note_on_c, 3, 55, 100
5, 101760, Note_on_c, 3, 55, 0
5, 101760, Note_on_c, 3, 57, 100
5, 103680, Note_on_c, 3, 57, 0
5, 103680, Note_on_c, 3, 59, 100
5, 105600, Note_on_c, 3, 59, 0
5, 105600, Note_on_c, 3, 52, 100
5, 107040, Note_on_c, 3, 52, 0
5, 107040, Note_on_c, 3, 50, 100
5, 107520, Note_on_c, 3, 50, 0
5, 107520, Note_on_c, 3, 48, 100
5, 108480, Note_on_c, 3, 48, 0
5, 108480, Note_on_c, 3, 60, 100
5, 109920, Note_on_c, 3, 60, 0
5, 109920, Note_on_c, 3, 59, 100
5, 110160, Note_on_c, 3, 59, 0
5, 110160, Note_on_c, 3, 57, 100
5, 110400, Note_on_c, 3, 57, 0
5, 110400, Note_on_c, 3, 59, 100
5, 110880, Note_on_c, 3, 59, 0
5, 110880, Note_on_c, 3, 64, 100
5, 111360, Note_on_c, 3, 64, 0
5, 111360, Note_on_c, 3, 57, 100
5, 112800, Note_on_c, 3, 57, 0
5, 112800, Note_on_c, 3, 55, 100
5, 113280, Note_on_c, 3, 55, 0
5, 113280, Note_on_c, 3, 54, 100
5, 114240, Note_on_c, 3, 54, 0
5, 114240, Note_on_c, 3, 55, 100
5, 115200, Note_on_c, 3, 55, 0
5, 115200, Note_on_c, 3, 52, 100
5, 116640, Note_on_c, 3, 52, 0
5, 116640, Note_on_c, 3, 50, 100
5, 117120, Note_on_c, 3, 50, 0
5, 117120, Note_on_c, 3, 48, 100
5, 118080, Note_on_c, 3, 48, 0
5, 118080, Note_on_c, 3, 49, 100
5, 119040, Note_on_c, 3, 49, 0
5, 119040, Note_on_c, 3, 50, 100
5, 120960, Note_on_c, 3, 50, 0
5, 120960, Note_on_c, 3, 43, 100
5, 122880, Note_on_c, 3, 43, 0
5, 122880, End_track
6, 0, Start_track
6, 0, MIDI_port, 0
6, 0, Title_t, "Aria with 30 Variations for Harpsichord with 2 Manuals"
6, 0, End_track
7, 0, Start_track
7, 0, MIDI_port, 0
7, 0, Title_t, "--------------------------------------"
7, 0, End_track
8, 0, Start_track
8, 0, MIDI_port, 0
8, 0, Title_t, "Variatio 22 a 1 Clav. Alla breve"
8, 0, End_track
9, 0, Start_track
9, 0, MIDI_port, 0
9, 0, Title_t, "--------------------------------------"
9, 0, End_track
10, 0, Start_track
10, 0, MIDI_port, 0
10, 0, Title_t, "Sequenced with Cakewalk Pro Audio by"
10, 0, End_track
11, 0, Start_track
11, 0, MIDI_port, 0
11, 0, Title_t, "David J. Grossman - dave@unpronounceable.com"
11, 0, End_track
12, 0, Start_track
12, 0, MIDI_port, 0
12, 0, Title_t, "This and other Bach MIDI files can be found at:"
12, 0, End_track
13, 0, Start_track
13, 0, MIDI_port, 0
13, 0, Title_t, "Dave's J.S. Bach Page"
13, 0, End_track
14, 0, Start_track
14, 0, MIDI_port, 0
14, 0, Title_t, "http://www.unpronounceable.com/bach"
14, 0, End_track
15, 0, Start_track
15, 0, MIDI_port, 0
15, 0, Title_t, "--------------------------------------"
15, 0, End_track
16, 0, Start_track
16, 0, MIDI_port, 0
16, 0, Title_t, "Original Filename: 988-v22.mid"
16, 0, End_track
17, 0, Start_track
17, 0, MIDI_port, 0
17, 0, Title_t, "Last Modified: March 14, 1997"
17, 0, End_track
0, 0, End_of_file
