0, 0, Header, 1, 17, 480
1, 0, Start_track
1, 0, Title_t, "untitled"
1, 0, SMPTE_offset, 96, 0, 3, 0, 0
1, 0, Time_signature, 4, 2, 24, 8
1, 0, Key_signature, 1, "major"
1, 0, Tempo, 300000
1, 0, Marker_t, "A"
1, 30720, Marker_t, "A'"
1, 61440, Marker_t, "B"
1, 92160, Marker_t, "B'"
1, 92160, End_track
2, 0, Start_track
2, 0, MIDI_port, 0
2, 0, Title_t, "Solo Harpsichord with 2 Manuals"
2, 0, Program_c, 0, 6
2, 0, Control_c, 0, 7, 100
2, 0, Control_c, 0, 10, 79
2, 23040, Note_on_c, 0, 69, 100
2, 24000, Note_on_c, 0, 69, 0
2, 24000, Note_on_c, 0, 71, 100
2, 24120, Note_on_c, 0, 71, 0
2, 24120, Note_on_c, 0, 69, 100
2, 24240, Note_on_c, 0, 69, 0
2, 24240, Note_on_c, 0, 71, 100
2, 24360, Note_on_c, 0, 71, 0
2, 24360, Note_on_c, 0, 69, 100
2, 24480, Note_on_c, 0, 69, 0
2, 24480, Note_on_c, 0, 71, 100
2, 24600, Note_on_c, 0, 71, 0
2, 24600, Note_on_c, 0, 69, 100
2, 24720, Note_on_c, 0, 69, 0
2, 24720, Note_on_c, 0, 67, 100
2, 24840, Note_on_c, 0, 67, 0
2, 24840, Note_on_c, 0, 69, 100
2, 24960, Note_on_c, 0, 69, 0
2, 24960, Note_on_c, 0, 71, 100
2, 25440, Note_on_c, 0, 71, 0
2, 25440, Note_on_c, 0, 67, 100
2, 25920, Note_on_c, 0, 67, 0
2, 25920, Note_on_c, 0, 64, 100
2, 26400, Note_on_c, 0, 64, 0
2, 26400, Note_on_c, 0, 67, 100
2, 26880, Note_on_c, 0, 67, 0
2, 26880, Note_on_c, 0, 64, 100
2, 27360, Note_on_c, 0, 64, 0
2, 27360, Note_on_c, 0, 69, 100
2, 27840, Note_on_c, 0, 69, 0
2, 27840, Note_on_c, 0, 57, 100
2, 28320, Note_on_c, 0, 57, 0
2, 28320, Note_on_c, 0, 67, 100
2, 28800, Note_on_c, 0, 67, 0
2, 28800, Note_on_c, 0, 67, 100
2, 28880, Note_on_c, 0, 67, 0
2, 28880, Note_on_c, 0, 66, 100
2, 28960, Note_on_c, 0, 66, 0
2, 28960, Note_on_c, 0, 67, 100
2, 29040, Note_on_c, 0, 67, 0
2, 29040, Note_on_c, 0, 66, 100
2, 29280, Note_on_c, 0, 66, 0
2, 29280, Note_on_c, 0, 64, 100
2, 29520, Note_on_c, 0, 64, 0
2, 29520, Note_on_c, 0, 66, 100
2, 29760, Note_on_c, 0, 66, 0
2, 29760, Note_on_c, 0, 62, 100
2, 30720, Note_on_c, 0, 62, 0
2, 53760, Note_on_c, 0, 69, 100
2, 54720, Note_on_c, 0, 69, 0
2, 54720, Note_on_c, 0, 71, 100
2, 54840, Note_on_c, 0, 71, 0
2, 54840, Note_on_c, 0, 69, 100
2, 54960, Note_on_c, 0, 69, 0
2, 54960, Note_on_c, 0, 71, 100
2, 55080, Note_on_c, 0, 71, 0
2, 55080, Note_on_c, 0, 69, 100
2, 55200, Note_on_c, 0, 69, 0
2, 55200, Note_on_c, 0, 71, 100
2, 55320, Note_on_c, 0, 71, 0
2, 55320, Note_on_c, 0, 69, 100
2, 55440, Note_on_c, 0, 69, 0
2, 55440, Note_on_c, 0, 67, 100
2, 55560, Note_on_c, 0, 67, 0
2, 55560, Note_on_c, 0, 69, 100
2, 55680, Note_on_c, 0, 69, 0
2, 55680, Note_on_c, 0, 71, 100
2, 56160, Note_on_c, 0, 71, 0
2, 56160, Note_on_c, 0, 67, 100
2, 56640, Note_on_c, 0, 67, 0
2, 56640, Note_on_c, 0, 64, 100
2, 57120, Note_on_c, 0, 64, 0
2, 57120, Note_on_c, 0, 67, 100
2, 57600, Note_on_c, 0, 67, 0
2, 57600, Note_on_c, 0, 64, 100
2, 58080, Note_on_c, 0, 64, 0
2, 58080, Note_on_c, 0, 69, 100
2, 58560, Note_on_c, 0, 69, 0
2, 58560, Note_on_c, 0, 57, 100
2, 59040, Note_on_c, 0, 57, 0
2, 59040, Note_on_c, 0, 67, 100
2, 59520, Note_on_c, 0, 67, 0
2, 59520, Note_on_c, 0, 67, 100
2, 59600, Note_on_c, 0, 67, 0
2, 59600, Note_on_c, 0, 66, 100
2, 59680, Note_on_c, 0, 66, 0
2, 59680, Note_on_c, 0, 67, 100
2, 59760, Note_on_c, 0, 67, 0
2, 59760, Note_on_c, 0, 66, 100
2, 60000, Note_on_c, 0, 66, 0
2, 60000, Note_on_c, 0, 64, 100
2, 60240, Note_on_c, 0, 64, 0
2, 60240, Note_on_c, 0, 66, 100
2, 60480, Note_on_c, 0, 66, 0
2, 60480, Note_on_c, 0, 62, 100
2, 61440, Note_on_c, 0, 62, 0
2, 61440, Note_on_c, 0, 78, 100
2, 61560, Note_on_c, 0, 78, 0
2, 61560, Note_on_c, 0, 76, 100
2, 61680, Note_on_c, 0, 76, 0
2, 61680, Note_on_c, 0, 78, 100
2, 62400, Note_on_c, 0, 78, 0
2, 62400, Note_on_c, 0, 79, 100
2, 62520, Note_on_c, 0, 79, 0
2, 62520, Note_on_c, 0, 78, 100
2, 62640, Note_on_c, 0, 78, 0
2, 62640, Note_on_c, 0, 79, 100
2, 62760, Note_on_c, 0, 79, 0
2, 62760, Note_on_c, 0, 78, 100
2, 62880, Note_on_c, 0, 78, 0
2, 62880, Note_on_c, 0, 79, 100
2, 63000, Note_on_c, 0, 79, 0
2, 63000, Note_on_c, 0, 78, 100
2, 63120, Note_on_c, 0, 78, 0
2, 63120, Note_on_c, 0, 76, 100
2, 63240, Note_on_c, 0, 76, 0
2, 63240, Note_on_c, 0, 78, 100
2, 63360, Note_on_c, 0, 78, 0
2, 63360, Note_on_c, 0, 79, 100
2, 63840, Note_on_c, 0, 79, 0
2, 63840, Note_on_c, 0, 74, 100
2, 64320, Note_on_c, 0, 74, 0
2, 64320, Note_on_c, 0, 71, 100
2, 64800, Note_on_c, 0, 71, 0
2, 64800, Note_on_c, 0, 74, 100
2, 65280, Note_on_c, 0, 74, 0
2, 65280, Note_on_c, 0, 72, 100
2, 65760, Note_on_c, 0, 72, 0
2, 65760, Note_on_c, 0, 77, 100
2, 66240, Note_on_c, 0, 77, 0
2, 66240, Note_on_c, 0, 65, 100
2, 66720, Note_on_c, 0, 65, 0
2, 66720, Note_on_c, 0, 76, 100
2, 67200, Note_on_c, 0, 76, 0
2, 67200, Note_on_c, 0, 76, 100
2, 67280, Note_on_c, 0, 76, 0
2, 67280, Note_on_c, 0, 75, 100
2, 67360, Note_on_c, 0, 75, 0
2, 67360, Note_on_c, 0, 76, 100
2, 67440, Note_on_c, 0, 76, 0
2, 67440, Note_on_c, 0, 75, 100
2, 67680, Note_on_c, 0, 75, 0
2, 67680, Note_on_c, 0, 73, 100
2, 67920, Note_on_c, 0, 73, 0
2, 67920, Note_on_c, 0, 75, 100
2, 68160, Note_on_c, 0, 75, 0
2, 68160, Note_on_c, 0, 71, 100
2, 68400, Note_on_c, 0, 71, 0
2, 68400, Note_on_c, 0, 73, 100
2, 68640, Note_on_c, 0, 73, 0
2, 68640, Note_on_c, 0, 75, 100
2, 68880, Note_on_c, 0, 75, 0
2, 68880, Note_on_c, 0, 71, 100
2, 69120, Note_on_c, 0, 71, 0
2, 69120, Note_on_c, 0, 76, 100
2, 69600, Note_on_c, 0, 76, 0
2, 69600, Note_on_c, 0, 64, 100
2, 70080, Note_on_c, 0, 64, 0
2, 70080, Note_on_c, 0, 76, 100
2, 71520, Note_on_c, 0, 76, 0
2, 71520, Note_on_c, 0, 64, 100
2, 72000, Note_on_c, 0, 64, 0
2, 72000, Note_on_c, 0, 76, 100
2, 73920, Note_on_c, 0, 76, 0
2, 73920, Note_on_c, 0, 75, 100
2, 74880, Note_on_c, 0, 75, 0
2, 74880, Note_on_c, 0, 76, 100
2, 76080, Note_on_c, 0, 76, 0
2, 76080, Note_on_c, 0, 74, 100
2, 76320, Note_on_c, 0, 74, 0
2, 76320, Note_on_c, 0, 73, 100
2, 76560, Note_on_c, 0, 73, 0
2, 76560, Note_on_c, 0, 71, 100
2, 76800, Note_on_c, 0, 71, 0
2, 76800, Note_on_c, 0, 69, 100
2, 77280, Note_on_c, 0, 69, 0
2, 77280, Note_on_c, 0, 79, 100
2, 78240, Note_on_c, 0, 79, 0
2, 78240, Note_on_c, 0, 77, 100
2, 78480, Note_on_c, 0, 77, 0
2, 78480, Note_on_c, 0, 76, 100
2, 78720, Note_on_c, 0, 76, 0
2, 78720, Note_on_c, 0, 77, 100
2, 80160, Note_on_c, 0, 77, 0
2, 80160, Note_on_c, 0, 76, 100
2, 80400, Note_on_c, 0, 76, 0
2, 80400, Note_on_c, 0, 74, 100
2, 80640, Note_on_c, 0, 74, 0
2, 80640, Note_on_c, 0, 76, 100
2, 82080, Note_on_c, 0, 76, 0
2, 82080, Note_on_c, 0, 78, 100
2, 82320, Note_on_c, 0, 78, 0
2, 82320, Note_on_c, 0, 79, 100
2, 82560, Note_on_c, 0, 79, 0
2, 82560, Note_on_c, 0, 81, 100
2, 82800, Note_on_c, 0, 81, 0
2, 82800, Note_on_c, 0, 83, 100
2, 83040, Note_on_c, 0, 83, 0
2, 83040, Note_on_c, 0, 79, 100
2, 83280, Note_on_c, 0, 79, 0
2, 83280, Note_on_c, 0, 81, 100
2, 83520, Note_on_c, 0, 81, 0
2, 83520, Note_on_c, 0, 78, 100
2, 84000, Note_on_c, 0, 78, 0
2, 84000, Note_on_c, 0, 81, 100
2, 84960, Note_on_c, 0, 81, 0
2, 84960, Note_on_c, 0, 79, 100
2, 85200, Note_on_c, 0, 79, 0
2, 85200, Note_on_c, 0, 78, 100
2, 85440, Note_on_c, 0, 78, 0
2, 85440, Note_on_c, 0, 79, 100
2, 85920, Note_on_c, 0, 79, 0
2, 85920, Note_on_c, 0, 71, 100
2, 86880, Note_on_c, 0, 71, 0
2, 86880, Note_on_c, 0, 69, 100
2, 87120, Note_on_c, 0, 69, 0
2, 87120, Note_on_c, 0, 71, 100
2, 87360, Note_on_c, 0, 71, 0
2, 87360, Note_on_c, 0, 72, 100
2, 88800, Note_on_c, 0, 72, 0
2, 88800, Note_on_c, 0, 71, 100
2, 89280, Note_on_c, 0, 71, 0
2, 89280, Note_on_c, 0, 69, 100
2, 90240, Note_on_c, 0, 69, 0
2, 90240, Note_on_c, 0, 67, 100
2, 92160, Note_on_c, 0, 67, 0
2, 92160, Note_on_c, 0, 78, 100
2, 92280, Note_on_c, 0, 78, 0
2, 92280, Note_on_c, 0, 76, 100
2, 92400, Note_on_c, 0, 76, 0
2, 92400, Note_on_c, 0, 78, 100
2, 93120, Note_on_c, 0, 78, 0
2, 93120, Note_on_c, 0, 79, 100
2, 93240, Note_on_c, 0, 79, 0
2, 93240, Note_on_c, 0, 78, 100
2, 93360, Note_on_c, 0, 78, 0
2, 93360, Note_on_c, 0, 79, 100
2, 93480, Note_on_c, 0, 79, 0
2, 93480, Note_on_c, 0, 78, 100
2, 93600, Note_on_c, 0, 78, 0
2, 93600, Note_on_c, 0, 79, 100
2, 93720, Note_on_c, 0, 79, 0
2, 93720, Note_on_c, 0, 78, 100
2, 93840, Note_on_c, 0, 78, 0
2, 93840, Note_on_c, 0, 76, 100
2, 93960, Note_on_c, 0, 76, 0
2, 93960, Note_on_c, 0, 78, 100
2, 94080, Note_on_c, 0, 78, 0
2, 94080, Note_on_c, 0, 79, 100
2, 94560, Note_on_c, 0, 79, 0
2, 94560, Note_on_c, 0, 74, 100
2, 95040, Note_on_c, 0, 74, 0
2, 95040, Note_on_c, 0, 71, 100
2, 95520, Note_on_c, 0, 71, 0
2, 95520, Note_on_c, 0, 74, 100
2, 96000, Note_on_c, 0, 74, 0
2, 96000, Note_on_c, 0, 72, 100
2, 96480, Note_on_c, 0, 72, 0
2, 96480, Note_on_c, 0, 77, 100
2, 96960, Note_on_c, 0, 77, 0
2, 96960, Note_on_c, 0, 65, 100
2, 97440, Note_on_c, 0, 65, 0
2, 97440, Note_on_c, 0, 76, 100
2, 97920, Note_on_c, 0, 76, 0
2, 97920, Note_on_c, 0, 76, 100
2, 98000, Note_on_c, 0, 76, 0
2, 98000, Note_on_c, 0, 75, 100
2, 98080, Note_on_c, 0, 75, 0
2, 98080, Note_on_c, 0, 76, 100
2, 98160, Note_on_c, 0, 76, 0
2, 98160, Note_on_c, 0, 75, 100
2, 98400, Note_on_c, 0, 75, 0
2, 98400, Note_on_c, 0, 73, 100
2, 98640, Note_on_c, 0, 73, 0
2, 98640, Note_on_c, 0, 75, 100
2, 98880, Note_on_c, 0, 75, 0
2, 98880, Note_on_c, 0, 71, 100
2, 99120, Note_on_c, 0, 71, 0
2, 99120, Note_on_c, 0, 73, 100
2, 99360, Note_on_c, 0, 73, 0
2, 99360, Note_on_c, 0, 75, 100
2, 99600, Note_on_c, 0, 75, 0
2, 99600, Note_on_c, 0, 71, 100
2, 99840, Note_on_c, 0, 71, 0
2, 99840, Note_on_c, 0, 76, 100
2, 100320, Note_on_c, 0, 76, 0
2, 100320, Note_on_c, 0, 64, 100
2, 100800, Note_on_c, 0, 64, 0
2, 100800, Note_on_c, 0, 76, 100
2, 102240, Note_on_c, 0, 76, 0
2, 102240, Note_on_c, 0, 64, 100
2, 102720, Note_on_c, 0, 64, 0
2, 102720, Note_on_c, 0, 76, 100
2, 104640, Note_on_c, 0, 76, 0
2, 104640, Note_on_c, 0, 75, 100
2, 105600, Note_on_c, 0, 75, 0
2, 105600, Note_on_c, 0, 76, 100
2, 106800, Note_on_c, 0, 76, 0
2, 106800, Note_on_c, 0, 74, 100
2, 107040, Note_on_c, 0, 74, 0
2, 107040, Note_on_c, 0, 73, 100
2, 107280, Note_on_c, 0, 73, 0
2, 107280, Note_on_c, 0, 71, 100
2, 107520, Note_on_c, 0, 71, 0
2, 107520, Note_on_c, 0, 69, 100
2, 108000, Note_on_c, 0, 69, 0
2, 108000, Note_on_c, 0, 79, 100
2, 108960, Note_on_c, 0, 79, 0
2, 108960, Note_on_c, 0, 77, 100
2, 109200, Note_on_c, 0, 77, 0
2, 109200, Note_on_c, 0, 76, 100
2, 109440, Note_on_c, 0, 76, 0
2, 109440, Note_on_c, 0, 77, 100
2, 110880, Note_on_c, 0, 77, 0
2, 110880, Note_on_c, 0, 76, 100
2, 111120, Note_on_c, 0, 76, 0
2, 111120, Note_on_c, 0, 74, 100
2, 111360, Note_on_c, 0, 74, 0
2, 111360, Note_on_c, 0, 76, 100
2, 112800, Note_on_c, 0, 76, 0
2, 112800, Note_on_c, 0, 78, 100
2, 113040, Note_on_c, 0, 78, 0
2, 113040, Note_on_c, 0, 79, 100
2, 113280, Note_on_c, 0, 79, 0
2, 113280, Note_on_c, 0, 81, 100
2, 113520, Note_on_c, 0, 81, 0
2, 113520, Note_on_c, 0, 83, 100
2, 113760, Note_on_c, 0, 83, 0
2, 113760, Note_on_c, 0, 79, 100
2, 114000, Note_on_c, 0, 79, 0
2, 114000, Note_on_c, 0, 81, 100
2, 114240, Note_on_c, 0, 81, 0
2, 114240, Note_on_c, 0, 78, 100
2, 114720, Note_on_c, 0, 78, 0
2, 114720, Note_on_c, 0, 81, 100
2, 115680, Note_on_c, 0, 81, 0
2, 115680, Note_on_c, 0, 79, 100
2, 115920, Note_on_c, 0, 79, 0
2, 115920, Note_on_c, 0, 78, 100
2, 116160, Note_on_c, 0, 78, 0
2, 116160, Note_on_c, 0, 79, 100
2, 116640, Note_on_c, 0, 79, 0
2, 116640, Note_on_c, 0, 71, 100
2, 117600, Note_on_c, 0, 71, 0
2, 117600, Note_on_c, 0, 69, 100
2, 117840, Note_on_c, 0, 69, 0
2, 117840, Note_on_c, 0, 71, 100
2, 118080, Note_on_c, 0, 71, 0
2, 118080, Note_on_c, 0, 72, 100
2, 119520, Note_on_c, 0, 72, 0
2, 119520, Note_on_c, 0, 71, 100
2, 120000, Note_on_c, 0, 71, 0
2, 120000, Note_on_c, 0, 69, 100
2, 120960, Note_on_c, 0, 69, 0
2, 120960, Note_on_c, 0, 67, 100
2, 122880, Note_on_c, 0, 67, 0
2, 122880, End_track
3, 0, Start_track
3, 0, MIDI_port, 0
3, 0, Title_t, "--------------------------------------"
3, 0, Program_c, 1, 6
3, 0, Control_c, 1, 7, 100
3, 0, Control_c, 1, 10, 69
3, 15360, Note_on_c, 1, 79, 100
3, 15480, Note_on_c, 1, 79, 0
3, 15480, Note_on_c, 1, 78, 100
3, 15600, Note_on_c, 1, 78, 0
3, 15600, Note_on_c, 1, 79, 100
3, 16320, Note_on_c, 1, 79, 0
3, 16320, Note_on_c, 1, 81, 100
3, 16440, Note_on_c, 1, 81, 0
3, 16440, Note_on_c, 1, 79, 100
3, 16560, Note_on_c, 1, 79, 0
3, 16560, Note_on_c, 1, 81, 100
3, 16680, Note_on_c, 1, 81, 0
3, 16680, Note_on_c, 1, 79, 100
3, 16800, Note_on_c, 1, 79, 0
3, 16800, Note_on_c, 1, 81, 100
3, 16920, Note_on_c, 1, 81, 0
3, 16920, Note_on_c, 1, 79, 100
3, 17040, Note_on_c, 1, 79, 0
3, 17040, Note_on_c, 1, 78, 100
3, 17160, Note_on_c, 1, 78, 0
3, 17160, Note_on_c, 1, 79, 100
3, 17280, Note_on_c, 1, 79, 0
3, 17280, Note_on_c, 1, 81, 100
3, 17760, Note_on_c, 1, 81, 0
3, 17760, Note_on_c, 1, 78, 100
3, 18240, Note_on_c, 1, 78, 0
3, 18240, Note_on_c, 1, 74, 100
3, 18720, Note_on_c, 1, 74, 0
3, 18720, Note_on_c, 1, 78, 100
3, 19200, Note_on_c, 1, 78, 0
3, 19200, Note_on_c, 1, 71, 100
3, 19680, Note_on_c, 1, 71, 0
3, 19680, Note_on_c, 1, 76, 100
3, 20160, Note_on_c, 1, 76, 0
3, 20160, Note_on_c, 1, 64, 100
3, 20640, Note_on_c, 1, 64, 0
3, 20640, Note_on_c, 1, 74, 100
3, 21120, Note_on_c, 1, 74, 0
3, 21120, Note_on_c, 1, 74, 100
3, 21200, Note_on_c, 1, 74, 0
3, 21200, Note_on_c, 1, 73, 100
3, 21280, Note_on_c, 1, 73, 0
3, 21280, Note_on_c, 1, 74, 100
3, 21360, Note_on_c, 1, 74, 0
3, 21360, Note_on_c, 1, 73, 100
3, 21600, Note_on_c, 1, 73, 0
3, 21600, Note_on_c, 1, 71, 100
3, 21840, Note_on_c, 1, 71, 0
3, 21840, Note_on_c, 1, 73, 100
3, 22080, Note_on_c, 1, 73, 0
3, 22080, Note_on_c, 1, 69, 100
3, 22320, Note_on_c, 1, 69, 0
3, 22320, Note_on_c, 1, 71, 100
3, 22560, Note_on_c, 1, 71, 0
3, 22560, Note_on_c, 1, 73, 100
3, 22800, Note_on_c, 1, 73, 0
3, 22800, Note_on_c, 1, 69, 100
3, 23040, Note_on_c, 1, 69, 0
3, 23040, Note_on_c, 1, 74, 100
3, 23520, Note_on_c, 1, 74, 0
3, 24000, Note_on_c, 1, 74, 100
3, 25440, Note_on_c, 1, 74, 0
3, 25920, Note_on_c, 1, 74, 100
3, 27840, Note_on_c, 1, 74, 0
3, 27840, Note_on_c, 1, 73, 100
3, 28800, Note_on_c, 1, 73, 0
3, 28800, Note_on_c, 1, 74, 100
3, 30720, Note_on_c, 1, 74, 0
3, 46080, Note_on_c, 1, 79, 100
3, 46200, Note_on_c, 1, 79, 0
3, 46200, Note_on_c, 1, 78, 100
3, 46320, Note_on_c, 1, 78, 0
3, 46320, Note_on_c, 1, 79, 100
3, 47040, Note_on_c, 1, 79, 0
3, 47040, Note_on_c, 1, 81, 100
3, 47160, Note_on_c, 1, 81, 0
3, 47160, Note_on_c, 1, 79, 100
3, 47280, Note_on_c, 1, 79, 0
3, 47280, Note_on_c, 1, 81, 100
3, 47400, Note_on_c, 1, 81, 0
3, 47400, Note_on_c, 1, 79, 100
3, 47520, Note_on_c, 1, 79, 0
3, 47520, Note_on_c, 1, 81, 100
3, 47640, Note_on_c, 1, 81, 0
3, 47640, Note_on_c, 1, 79, 100
3, 47760, Note_on_c, 1, 79, 0
3, 47760, Note_on_c, 1, 78, 100
3, 47880, Note_on_c, 1, 78, 0
3, 47880, Note_on_c, 1, 79, 100
3, 48000, Note_on_c, 1, 79, 0
3, 48000, Note_on_c, 1, 81, 100
3, 48480, Note_on_c, 1, 81, 0
3, 48480, Note_on_c, 1, 78, 100
3, 48960, Note_on_c, 1, 78, 0
3, 48960, Note_on_c, 1, 74, 100
3, 49440, Note_on_c, 1, 74, 0
3, 49440, Note_on_c, 1, 78, 100
3, 49920, Note_on_c, 1, 78, 0
3, 49920, Note_on_c, 1, 71, 100
3, 50400, Note_on_c, 1, 71, 0
3, 50400, Note_on_c, 1, 76, 100
3, 50880, Note_on_c, 1, 76, 0
3, 50880, Note_on_c, 1, 64, 100
3, 51360, Note_on_c, 1, 64, 0
3, 51360, Note_on_c, 1, 74, 100
3, 51840, Note_on_c, 1, 74, 0
3, 51840, Note_on_c, 1, 74, 100
3, 51920, Note_on_c, 1, 74, 0
3, 51920, Note_on_c, 1, 73, 100
3, 52000, Note_on_c, 1, 73, 0
3, 52000, Note_on_c, 1, 74, 100
3, 52080, Note_on_c, 1, 74, 0
3, 52080, Note_on_c, 1, 73, 100
3, 52320, Note_on_c, 1, 73, 0
3, 52320, Note_on_c, 1, 71, 100
3, 52560, Note_on_c, 1, 71, 0
3, 52560, Note_on_c, 1, 73, 100
3, 52800, Note_on_c, 1, 73, 0
3, 52800, Note_on_c, 1, 69, 100
3, 53040, Note_on_c, 1, 69, 0
3, 53040, Note_on_c, 1, 71, 100
3, 53280, Note_on_c, 1, 71, 0
3, 53280, Note_on_c, 1, 73, 100
3, 53520, Note_on_c, 1, 73, 0
3, 53520, Note_on_c, 1, 69, 100
3, 53760, Note_on_c, 1, 69, 0
3, 53760, Note_on_c, 1, 74, 100
3, 54240, Note_on_c, 1, 74, 0
3, 54720, Note_on_c, 1, 74, 100
3, 56160, Note_on_c, 1, 74, 0
3, 56640, Note_on_c, 1, 74, 100
3, 58560, Note_on_c, 1, 74, 0
3, 58560, Note_on_c, 1, 73, 100
3, 59520, Note_on_c, 1, 73, 0
3, 59520, Note_on_c, 1, 74, 100
3, 61440, Note_on_c, 1, 74, 0
3, 69120, Note_on_c, 1, 71, 100
3, 70080, Note_on_c, 1, 71, 0
3, 70080, Note_on_c, 1, 72, 100
3, 70200, Note_on_c, 1, 72, 0
3, 70200, Note_on_c, 1, 71, 100
3, 70320, Note_on_c, 1, 71, 0
3, 70320, Note_on_c, 1, 72, 100
3, 70440, Note_on_c, 1, 72, 0
3, 70440, Note_on_c, 1, 71, 100
3, 70560, Note_on_c, 1, 71, 0
3, 70560, Note_on_c, 1, 72, 100
3, 70680, Note_on_c, 1, 72, 0
3, 70680, Note_on_c, 1, 71, 100
3, 70800, Note_on_c, 1, 71, 0
3, 70800, Note_on_c, 1, 69, 100
3, 70920, Note_on_c, 1, 69, 0
3, 70920, Note_on_c, 1, 71, 100
3, 71040, Note_on_c, 1, 71, 0
3, 71040, Note_on_c, 1, 72, 100
3, 71520, Note_on_c, 1, 72, 0
3, 71520, Note_on_c, 1, 69, 100
3, 72000, Note_on_c, 1, 69, 0
3, 72000, Note_on_c, 1, 66, 100
3, 72480, Note_on_c, 1, 66, 0
3, 72480, Note_on_c, 1, 69, 100
3, 72960, Note_on_c, 1, 69, 0
3, 72960, Note_on_c, 1, 66, 100
3, 73440, Note_on_c, 1, 66, 0
3, 73440, Note_on_c, 1, 71, 100
3, 73920, Note_on_c, 1, 71, 0
3, 73920, Note_on_c, 1, 59, 100
3, 74400, Note_on_c, 1, 59, 0
3, 74400, Note_on_c, 1, 69, 100
3, 74880, Note_on_c, 1, 69, 0
3, 74880, Note_on_c, 1, 69, 100
3, 74960, Note_on_c, 1, 69, 0
3, 74960, Note_on_c, 1, 67, 100
3, 75040, Note_on_c, 1, 67, 0
3, 75040, Note_on_c, 1, 69, 100
3, 75120, Note_on_c, 1, 69, 0
3, 75120, Note_on_c, 1, 67, 100
3, 75360, Note_on_c, 1, 67, 0
3, 75360, Note_on_c, 1, 66, 100
3, 75600, Note_on_c, 1, 66, 0
3, 75600, Note_on_c, 1, 67, 100
3, 75840, Note_on_c, 1, 67, 0
3, 75840, Note_on_c, 1, 64, 100
3, 77280, Note_on_c, 1, 64, 0
3, 77760, Note_on_c, 1, 69, 100
3, 79200, Note_on_c, 1, 69, 0
3, 79200, Note_on_c, 1, 74, 100
3, 79680, Note_on_c, 1, 74, 0
3, 79680, Note_on_c, 1, 71, 100
3, 80160, Note_on_c, 1, 71, 0
3, 80160, Note_on_c, 1, 67, 100
3, 81120, Note_on_c, 1, 67, 0
3, 81120, Note_on_c, 1, 72, 100
3, 81360, Note_on_c, 1, 72, 0
3, 81360, Note_on_c, 1, 71, 100
3, 81600, Note_on_c, 1, 71, 0
3, 81600, Note_on_c, 1, 72, 100
3, 84000, Note_on_c, 1, 72, 0
3, 84000, Note_on_c, 1, 72, 100
3, 84480, Note_on_c, 1, 72, 0
3, 84480, Note_on_c, 1, 71, 100
3, 85440, Note_on_c, 1, 71, 0
3, 85920, Note_on_c, 1, 67, 100
3, 86400, Note_on_c, 1, 67, 0
3, 86400, Note_on_c, 1, 64, 100
3, 87840, Note_on_c, 1, 64, 0
3, 87840, Note_on_c, 1, 69, 100
3, 88080, Note_on_c, 1, 69, 0
3, 88080, Note_on_c, 1, 67, 100
3, 88320, Note_on_c, 1, 67, 0
3, 88320, Note_on_c, 1, 66, 100
3, 88800, Note_on_c, 1, 66, 0
3, 88800, Note_on_c, 1, 67, 100
3, 89760, Note_on_c, 1, 67, 0
3, 89760, Note_on_c, 1, 66, 100
3, 90240, Note_on_c, 1, 66, 0
3, 90240, Note_on_c, 1, 67, 100
3, 90480, Note_on_c, 1, 67, 0
3, 90480, Note_on_c, 1, 62, 100
3, 90720, Note_on_c, 1, 62, 0
3, 90720, Note_on_c, 1, 60, 100
3, 90960, Note_on_c, 1, 60, 0
3, 90960, Note_on_c, 1, 62, 100
3, 91200, Note_on_c, 1, 62, 0
3, 91200, Note_on_c, 1, 59, 100
3, 92160, Note_on_c, 1, 59, 0
3, 99840, Note_on_c, 1, 71, 100
3, 100800, Note_on_c, 1, 71, 0
3, 100800, Note_on_c, 1, 72, 100
3, 100920, Note_on_c, 1, 72, 0
3, 100920, Note_on_c, 1, 71, 100
3, 101040, Note_on_c, 1, 71, 0
3, 101040, Note_on_c, 1, 72, 100
3, 101160, Note_on_c, 1, 72, 0
3, 101160, Note_on_c, 1, 71, 100
3, 101280, Note_on_c, 1, 71, 0
3, 101280, Note_on_c, 1, 72, 100
3, 101400, Note_on_c, 1, 72, 0
3, 101400, Note_on_c, 1, 71, 100
3, 101520, Note_on_c, 1, 71, 0
3, 101520, Note_on_c, 1, 69, 100
3, 101640, Note_on_c, 1, 69, 0
3, 101640, Note_on_c, 1, 71, 100
3, 101760, Note_on_c, 1, 71, 0
3, 101760, Note_on_c, 1, 72, 100
3, 102240, Note_on_c, 1, 72, 0
3, 102240, Note_on_c, 1, 69, 100
3, 102720, Note_on_c, 1, 69, 0
3, 102720, Note_on_c, 1, 66, 100
3, 103200, Note_on_c, 1, 66, 0
3, 103200, Note_on_c, 1, 69, 100
3, 103680, Note_on_c, 1, 69, 0
3, 103680, Note_on_c, 1, 66, 100
3, 104160, Note_on_c, 1, 66, 0
3, 104160, Note_on_c, 1, 71, 100
3, 104640, Note_on_c, 1, 71, 0
3, 104640, Note_on_c, 1, 59, 100
3, 105120, Note_on_c, 1, 59, 0
3, 105120, Note_on_c, 1, 69, 100
3, 105600, Note_on_c, 1, 69, 0
3, 105600, Note_on_c, 1, 69, 100
3, 105680, Note_on_c, 1, 69, 0
3, 105680, Note_on_c, 1, 67, 100
3, 105760, Note_on_c, 1, 67, 0
3, 105760, Note_on_c, 1, 69, 100
3, 105840, Note_on_c, 1, 69, 0
3, 105840, Note_on_c, 1, 67, 100
3, 106080, Note_on_c, 1, 67, 0
3, 106080, Note_on_c, 1, 66, 100
3, 106320, Note_on_c, 1, 66, 0
3, 106320, Note_on_c, 1, 67, 100
3, 106560, Note_on_c, 1, 67, 0
3, 106560, Note_on_c, 1, 64, 100
3, 108000, Note_on_c, 1, 64, 0
3, 108480, Note_on_c, 1, 69, 100
3, 109920, Note_on_c, 1, 69, 0
3, 109920, Note_on_c, 1, 74, 100
3, 110400, Note_on_c, 1, 74, 0
3, 110400, Note_on_c, 1, 71, 100
3, 110880, Note_on_c, 1, 71, 0
3, 110880, Note_on_c, 1, 67, 100
3, 111840, Note_on_c, 1, 67, 0
3, 111840, Note_on_c, 1, 72, 100
3, 112080, Note_on_c, 1, 72, 0
3, 112080, Note_on_c, 1, 71, 100
3, 112320, Note_on_c, 1, 71, 0
3, 112320, Note_on_c, 1, 72, 100
3, 114720, Note_on_c, 1, 72, 0
3, 114720, Note_on_c, 1, 72, 100
3, 115200, Note_on_c, 1, 72, 0
3, 115200, Note_on_c, 1, 71, 100
3, 116160, Note_on_c, 1, 71, 0
3, 116640, Note_on_c, 1, 67, 100
3, 117120, Note_on_c, 1, 67, 0
3, 117120, Note_on_c, 1, 64, 100
3, 118560, Note_on_c, 1, 64, 0
3, 118560, Note_on_c, 1, 69, 100
3, 118800, Note_on_c, 1, 69, 0
3, 118800, Note_on_c, 1, 67, 100
3, 119040, Note_on_c, 1, 67, 0
3, 119040, Note_on_c, 1, 66, 100
3, 119520, Note_on_c, 1, 66, 0
3, 119520, Note_on_c, 1, 67, 100
3, 120480, Note_on_c, 1, 67, 0
3, 120480, Note_on_c, 1, 66, 100
3, 120960, Note_on_c, 1, 66, 0
3, 120960, Note_on_c, 1, 67, 100
3, 121200, Note_on_c, 1, 67, 0
3, 121200, Note_on_c, 1, 62, 100
3, 121440, Note_on_c, 1, 62, 0
3, 121440, Note_on_c, 1, 60, 100
3, 121680, Note_on_c, 1, 60, 0
3, 121680, Note_on_c, 1, 62, 100
3, 121920, Note_on_c, 1, 62, 0
3, 121920, Note_on_c, 1, 59, 100
3, 122880, Note_on_c, 1, 59, 0
3, 122880, End_track
4, 0, Start_track
4, 0, MIDI_port, 0
4, 0, Title_t, "Johann Sebastian Bach  (1685-1750)"
4, 0, Program_c, 2, 6
4, 0, Control_c, 2, 7, 100
4, 0, Control_c, 2, 10, 59
4, 7680, Note_on_c, 2, 62, 100
4, 7800, Note_on_c, 2, 62, 0
4, 7800, Note_on_c, 2, 60, 100
4, 7920, Note_on_c, 2, 60, 0
4, 7920, Note_on_c, 2, 62, 100
4, 8640, Note_on_c, 2, 62, 0
4, 8640, Note_on_c, 2, 64, 100
4, 8760, Note_on_c, 2, 64, 0
4, 8760, Note_on_c, 2, 62, 100
4, 8880, Note_on_c, 2, 62, 0
4, 8880, Note_on_c, 2, 64, 100
4, 9000, Note_on_c, 2, 64, 0
4, 9000, Note_on_c, 2, 62, 100
4, 9120, Note_on_c, 2, 62, 0
4, 9120, Note_on_c, 2, 64, 100
4, 9240, Note_on_c, 2, 64, 0
4, 9240, Note_on_c, 2, 62, 100
4, 9360, Note_on_c, 2, 62, 0
4, 9360, Note_on_c, 2, 60, 100
4, 9480, Note_on_c, 2, 60, 0
4, 9480, Note_on_c, 2, 62, 100
4, 9600, Note_on_c, 2, 62, 0
4, 9600, Note_on_c, 2, 64, 100
4, 10080, Note_on_c, 2, 64, 0
4, 10080, Note_on_c, 2, 60, 100
4, 10560, Note_on_c, 2, 60, 0
4, 10560, Note_on_c, 2, 57, 100
4, 11040, Note_on_c, 2, 57, 0
4, 11040, Note_on_c, 2, 60, 100
4, 11520, Note_on_c, 2, 60, 0
4, 11520, Note_on_c, 2, 57, 100
4, 12000, Note_on_c, 2, 57, 0
4, 12000, Note_on_c, 2, 62, 100
4, 12480, Note_on_c, 2, 62, 0
4, 12480, Note_on_c, 2, 50, 100
4, 12960, Note_on_c, 2, 50, 0
4, 12960, Note_on_c, 2, 60, 100
4, 13440, Note_on_c, 2, 60, 0
4, 13440, Note_on_c, 2, 60, 100
4, 13520, Note_on_c, 2, 60, 0
4, 13520, Note_on_c, 2, 59, 100
4, 13600, Note_on_c, 2, 59, 0
4, 13600, Note_on_c, 2, 60, 100
4, 13680, Note_on_c, 2, 60, 0
4, 13680, Note_on_c, 2, 59, 100
4, 13920, Note_on_c, 2, 59, 0
4, 13920, Note_on_c, 2, 57, 100
4, 14160, Note_on_c, 2, 57, 0
4, 14160, Note_on_c, 2, 59, 100
4, 14400, Note_on_c, 2, 59, 0
4, 14400, Note_on_c, 2, 55, 100
4, 14640, Note_on_c, 2, 55, 0
4, 14640, Note_on_c, 2, 59, 100
4, 14880, Note_on_c, 2, 59, 0
4, 14880, Note_on_c, 2, 57, 100
4, 15120, Note_on_c, 2, 57, 0
4, 15120, Note_on_c, 2, 60, 100
4, 15360, Note_on_c, 2, 60, 0
4, 15360, Note_on_c, 2, 59, 100
4, 15600, Note_on_c, 2, 59, 0
4, 15600, Note_on_c, 2, 57, 100
4, 15840, Note_on_c, 2, 57, 0
4, 15840, Note_on_c, 2, 59, 100
4, 16320, Note_on_c, 2, 59, 0
4, 16320, Note_on_c, 2, 64, 100
4, 17760, Note_on_c, 2, 64, 0
4, 17760, Note_on_c, 2, 57, 100
4, 18240, Note_on_c, 2, 57, 0
4, 18240, Note_on_c, 2, 62, 100
4, 19680, Note_on_c, 2, 62, 0
4, 19680, Note_on_c, 2, 59, 100
4, 20160, Note_on_c, 2, 59, 0
4, 20160, Note_on_c, 2, 64, 100
4, 21600, Note_on_c, 2, 64, 0
4, 21600, Note_on_c, 2, 62, 100
4, 22080, Note_on_c, 2, 62, 0
4, 22080, Note_on_c, 2, 61, 100
4, 22560, Note_on_c, 2, 61, 0
4, 22560, Note_on_c, 2, 64, 100
4, 23040, Note_on_c, 2, 64, 0
4, 23040, Note_on_c, 2, 57, 100
4, 23280, Note_on_c, 2, 57, 0
4, 23280, Note_on_c, 2, 59, 100
4, 23520, Note_on_c, 2, 59, 0
4, 23520, Note_on_c, 2, 57, 100
4, 23760, Note_on_c, 2, 57, 0
4, 23760, Note_on_c, 2, 55, 100
4, 24000, Note_on_c, 2, 55, 0
4, 24000, Note_on_c, 2, 54, 100
4, 24960, Note_on_c, 2, 54, 0
4, 24960, Note_on_c, 2, 55, 100
4, 25920, Note_on_c, 2, 55, 0
4, 27360, Note_on_c, 2, 52, 100
4, 27840, Note_on_c, 2, 52, 0
4, 27840, Note_on_c, 2, 57, 100
4, 29040, Note_on_c, 2, 57, 0
4, 29040, Note_on_c, 2, 57, 100
4, 29280, Note_on_c, 2, 57, 0
4, 29280, Note_on_c, 2, 55, 100
4, 29520, Note_on_c, 2, 55, 0
4, 29520, Note_on_c, 2, 57, 100
4, 29760, Note_on_c, 2, 57, 0
4, 29760, Note_on_c, 2, 54, 100
4, 30720, Note_on_c, 2, 54, 0
4, 38400, Note_on_c, 2, 62, 100
4, 38520, Note_on_c, 2, 62, 0
4, 38520, Note_on_c, 2, 60, 100
4, 38640, Note_on_c, 2, 60, 0
4, 38640, Note_on_c, 2, 62, 100
4, 39360, Note_on_c, 2, 62, 0
4, 39360, Note_on_c, 2, 64, 100
4, 39480, Note_on_c, 2, 64, 0
4, 39480, Note_on_c, 2, 62, 100
4, 39600, Note_on_c, 2, 62, 0
4, 39600, Note_on_c, 2, 64, 100
4, 39720, Note_on_c, 2, 64, 0
4, 39720, Note_on_c, 2, 62, 100
4, 39840, Note_on_c, 2, 62, 0
4, 39840, Note_on_c, 2, 64, 100
4, 39960, Note_on_c, 2, 64, 0
4, 39960, Note_on_c, 2, 62, 100
4, 40080, Note_on_c, 2, 62, 0
4, 40080, Note_on_c, 2, 60, 100
4, 40200, Note_on_c, 2, 60, 0
4, 40200, Note_on_c, 2, 62, 100
4, 40320, Note_on_c, 2, 62, 0
4, 40320, Note_on_c, 2, 64, 100
4, 40800, Note_on_c, 2, 64, 0
4, 40800, Note_on_c, 2, 60, 100
4, 41280, Note_on_c, 2, 60, 0
4, 41280, Note_on_c, 2, 57, 100
4, 41760, Note_on_c, 2, 57, 0
4, 41760, Note_on_c, 2, 60, 100
4, 42240, Note_on_c, 2, 60, 0
4, 42240, Note_on_c, 2, 57, 100
4, 42720, Note_on_c, 2, 57, 0
4, 42720, Note_on_c, 2, 62, 100
4, 43200, Note_on_c, 2, 62, 0
4, 43200, Note_on_c, 2, 50, 100
4, 43680, Note_on_c, 2, 50, 0
4, 43680, Note_on_c, 2, 60, 100
4, 44160, Note_on_c, 2, 60, 0
4, 44160, Note_on_c, 2, 60, 100
4, 44240, Note_on_c, 2, 60, 0
4, 44240, Note_on_c, 2, 59, 100
4, 44320, Note_on_c, 2, 59, 0
4, 44320, Note_on_c, 2, 60, 100
4, 44400, Note_on_c, 2, 60, 0
4, 44400, Note_on_c, 2, 59, 100
4, 44640, Note_on_c, 2, 59, 0
4, 44640, Note_on_c, 2, 57, 100
4, 44880, Note_on_c, 2, 57, 0
4, 44880, Note_on_c, 2, 59, 100
4, 45120, Note_on_c, 2, 59, 0
4, 45120, Note_on_c, 2, 55, 100
4, 45360, Note_on_c, 2, 55, 0
4, 45360, Note_on_c, 2, 59, 100
4, 45600, Note_on_c, 2, 59, 0
4, 45600, Note_on_c, 2, 57, 100
4, 45840, Note_on_c, 2, 57, 0
4, 45840, Note_on_c, 2, 60, 100
4, 46080, Note_on_c, 2, 60, 0
4, 46080, Note_on_c, 2, 59, 100
4, 46320, Note_on_c, 2, 59, 0
4, 46320, Note_on_c, 2, 57, 100
4, 46560, Note_on_c, 2, 57, 0
4, 46560, Note_on_c, 2, 59, 100
4, 47040, Note_on_c, 2, 59, 0
4, 47040, Note_on_c, 2, 64, 100
4, 48480, Note_on_c, 2, 64, 0
4, 48480, Note_on_c, 2, 57, 100
4, 48960, Note_on_c, 2, 57, 0
4, 48960, Note_on_c, 2, 62, 100
4, 50400, Note_on_c, 2, 62, 0
4, 50400, Note_on_c, 2, 59, 100
4, 50880, Note_on_c, 2, 59, 0
4, 50880, Note_on_c, 2, 64, 100
4, 52320, Note_on_c, 2, 64, 0
4, 52320, Note_on_c, 2, 62, 100
4, 52800, Note_on_c, 2, 62, 0
4, 52800, Note_on_c, 2, 61, 100
4, 53280, Note_on_c, 2, 61, 0
4, 53280, Note_on_c, 2, 64, 100
4, 53760, Note_on_c, 2, 64, 0
4, 53760, Note_on_c, 2, 57, 100
4, 54000, Note_on_c, 2, 57, 0
4, 54000, Note_on_c, 2, 59, 100
4, 54240, Note_on_c, 2, 59, 0
4, 54240, Note_on_c, 2, 57, 100
4, 54480, Note_on_c, 2, 57, 0
4, 54480, Note_on_c, 2, 55, 100
4, 54720, Note_on_c, 2, 55, 0
4, 54720, Note_on_c, 2, 54, 100
4, 55680, Note_on_c, 2, 54, 0
4, 55680, Note_on_c, 2, 55, 100
4, 56640, Note_on_c, 2, 55, 0
4, 58080, Note_on_c, 2, 52, 100
4, 58560, Note_on_c, 2, 52, 0
4, 58560, Note_on_c, 2, 57, 100
4, 59760, Note_on_c, 2, 57, 0
4, 59760, Note_on_c, 2, 57, 100
4, 60000, Note_on_c, 2, 57, 0
4, 60000, Note_on_c, 2, 55, 100
4, 60240, Note_on_c, 2, 55, 0
4, 60240, Note_on_c, 2, 57, 100
4, 60480, Note_on_c, 2, 57, 0
4, 60480, Note_on_c, 2, 54, 100
4, 61440, Note_on_c, 2, 54, 0
4, 84480, Note_on_c, 2, 62, 100
4, 85440, Note_on_c, 2, 62, 0
4, 85440, Note_on_c, 2, 64, 100
4, 85560, Note_on_c, 2, 64, 0
4, 85560, Note_on_c, 2, 62, 100
4, 85680, Note_on_c, 2, 62, 0
4, 85680, Note_on_c, 2, 64, 100
4, 85800, Note_on_c, 2, 64, 0
4, 85800, Note_on_c, 2, 62, 100
4, 85920, Note_on_c, 2, 62, 0
4, 85920, Note_on_c, 2, 64, 100
4, 86040, Note_on_c, 2, 64, 0
4, 86040, Note_on_c, 2, 62, 100
4, 86160, Note_on_c, 2, 62, 0
4, 86160, Note_on_c, 2, 60, 100
4, 86280, Note_on_c, 2, 60, 0
4, 86280, Note_on_c, 2, 62, 100
4, 86400, Note_on_c, 2, 62, 0
4, 86400, Note_on_c, 2, 64, 100
4, 86880, Note_on_c, 2, 64, 0
4, 86880, Note_on_c, 2, 60, 100
4, 87360, Note_on_c, 2, 60, 0
4, 87360, Note_on_c, 2, 57, 100
4, 87840, Note_on_c, 2, 57, 0
4, 87840, Note_on_c, 2, 60, 100
4, 88320, Note_on_c, 2, 60, 0
4, 88320, Note_on_c, 2, 57, 100
4, 88800, Note_on_c, 2, 57, 0
4, 88800, Note_on_c, 2, 62, 100
4, 89280, Note_on_c, 2, 62, 0
4, 89280, Note_on_c, 2, 50, 100
4, 89760, Note_on_c, 2, 50, 0
4, 89760, Note_on_c, 2, 60, 100
4, 90240, Note_on_c, 2, 60, 0
4, 90240, Note_on_c, 2, 60, 100
4, 90320, Note_on_c, 2, 60, 0
4, 90320, Note_on_c, 2, 59, 100
4, 90400, Note_on_c, 2, 59, 0
4, 90400, Note_on_c, 2, 60, 100
4, 90480, Note_on_c, 2, 60, 0
4, 90480, Note_on_c, 2, 59, 100
4, 90720, Note_on_c, 2, 59, 0
4, 90720, Note_on_c, 2, 57, 100
4, 90960, Note_on_c, 2, 57, 0
4, 90960, Note_on_c, 2, 59, 100
4, 91200, Note_on_c, 2, 59, 0
4, 91200, Note_on_c, 2, 55, 100
4, 92160, Note_on_c, 2, 55, 0
4, 115200, Note_on_c, 2, 62, 100
4, 116160, Note_on_c, 2, 62, 0
4, 116160, Note_on_c, 2, 64, 100
4, 116280, Note_on_c, 2, 64, 0
4, 116280, Note_on_c, 2, 62, 100
4, 116400, Note_on_c, 2, 62, 0
4, 116400, Note_on_c, 2, 64, 100
4, 116520, Note_on_c, 2, 64, 0
4, 116520, Note_on_c, 2, 62, 100
4, 116640, Note_on_c, 2, 62, 0
4, 116640, Note_on_c, 2, 64, 100
4, 116760, Note_on_c, 2, 64, 0
4, 116760, Note_on_c, 2, 62, 100
4, 116880, Note_on_c, 2, 62, 0
4, 116880, Note_on_c, 2, 60, 100
4, 117000, Note_on_c, 2, 60, 0
4, 117000, Note_on_c, 2, 62, 100
4, 117120, Note_on_c, 2, 62, 0
4, 117120, Note_on_c, 2, 64, 100
4, 117600, Note_on_c, 2, 64, 0
4, 117600, Note_on_c, 2, 60, 100
4, 118080, Note_on_c, 2, 60, 0
4, 118080, Note_on_c, 2, 57, 100
4, 118560, Note_on_c, 2, 57, 0
4, 118560, Note_on_c, 2, 60, 100
4, 119040, Note_on_c, 2, 60, 0
4, 119040, Note_on_c, 2, 57, 100
4, 119520, Note_on_c, 2, 57, 0
4, 119520, Note_on_c, 2, 62, 100
4, 120000, Note_on_c, 2, 62, 0
4, 120000, Note_on_c, 2, 50, 100
4, 120480, Note_on_c, 2, 50, 0
4, 120480, Note_on_c, 2, 60, 100
4, 120960, Note_on_c, 2, 60, 0
4, 120960, Note_on_c, 2, 60, 100
4, 121040, Note_on_c, 2, 60, 0
4, 121040, Note_on_c, 2, 59, 100
4, 121120, Note_on_c, 2, 59, 0
4, 121120, Note_on_c, 2, 60, 100
4, 121200, Note_on_c, 2, 60, 0
4, 121200, Note_on_c, 2, 59, 100
4, 121440, Note_on_c, 2, 59, 0
4, 121440, Note_on_c, 2, 57, 100
4, 121680, Note_on_c, 2, 57, 0
4, 121680, Note_on_c, 2, 59, 100
4, 121920, Note_on_c, 2, 59, 0
4, 121920, Note_on_c, 2, 55, 100
4, 122880, Note_on_c, 2, 55, 0
4, 122880, End_track
5, 0, Start_track
5, 0, MIDI_port, 0
5, 0, Title_t, "The Goldberg Variations - BWV 988"
5, 0, Program_c, 3, 6
5, 0, Control_c, 3, 7, 100
5, 0, Control_c, 3, 10, 49
5, 0, Note_on_c, 3, 55, 100
5, 120, Note_on_c, 3, 55, 0
5, 120, Note_on_c, 3, 54, 100
5, 240, Note_on_c, 3, 54, 0
5, 240, Note_on_c, 3, 55, 100
5, 960, Note_on_c, 3, 55, 0
5, 960, Note_on_c, 3, 57, 100
5, 1080, Note_on_c, 3, 57, 0
5, 1080, Note_on_c, 3, 55, 100
5, 1200, Note_on_c, 3, 55, 0
5, 1200, Note_on_c, 3, 57, 100
5, 1320, Note_on_c, 3, 57, 0
5, 1320, Note_on_c, 3, 55, 100
5, 1440, Note_on_c, 3, 55, 0
5, 1440, Note_on_c, 3, 57, 100
5, 1560, Note_on_c, 3, 57, 0
5, 1560, Note_on_c, 3, 55, 100
5, 1680, Note_on_c, 3, 55, 0
5, 1680, Note_on_c, 3, 54, 100
5, 1800, Note_on_c, 3, 54, 0
5, 1800, Note_on_c, 3, 55, 100
5, 1920, Note_on_c, 3, 55, 0
5, 1920, Note_on_c, 3, 57, 100
5, 2400, Note_on_c, 3, 57, 0
5, 2400, Note_on_c, 3, 54, 100
5, 2880, Note_on_c, 3, 54, 0
5, 2880, Note_on_c, 3, 50, 100
5, 3360, Note_on_c, 3, 50, 0
5, 3360, Note_on_c, 3, 54, 100
5, 3840, Note_on_c, 3, 54, 0
5, 3840, Note_on_c, 3, 52, 100
5, 4320, Note_on_c, 3, 52, 0
5, 4320, Note_on_c, 3, 57, 100
5, 4800, Note_on_c, 3, 57, 0
5, 4800, Note_on_c, 3, 45, 100
5, 5280, Note_on_c, 3, 45, 0
5, 5280, Note_on_c, 3, 55, 100
5, 5760, Note_on_c, 3, 55, 0
5, 5760, Note_on_c, 3, 55, 100
5, 5840, Note_on_c, 3, 55, 0
5, 5840, Note_on_c, 3, 54, 100
5, 5920, Note_on_c, 3, 54, 0
5, 5920, Note_on_c, 3, 55, 100
5, 6000, Note_on_c, 3, 55, 0
5, 6000, Note_on_c, 3, 54, 100
5, 6240, Note_on_c, 3, 54, 0
5, 6240, Note_on_c, 3, 52, 100
5, 6480, Note_on_c, 3, 52, 0
5, 6480, Note_on_c, 3, 54, 100
5, 6720, Note_on_c, 3, 54, 0
5, 6720, Note_on_c, 3, 50, 100
5, 6960, Note_on_c, 3, 50, 0
5, 6960, Note_on_c, 3, 52, 100
5, 7200, Note_on_c, 3, 52, 0
5, 7200, Note_on_c, 3, 48, 100
5, 7440, Note_on_c, 3, 48, 0
5, 7440, Note_on_c, 3, 50, 100
5, 7680, Note_on_c, 3, 50, 0
5, 7680, Note_on_c, 3, 47, 100
5, 7920, Note_on_c, 3, 47, 0
5, 7920, Note_on_c, 3, 50, 100
5, 8160, Note_on_c, 3, 50, 0
5, 8160, Note_on_c, 3, 52, 100
5, 8400, Note_on_c, 3, 52, 0
5, 8400, Note_on_c, 3, 54, 100
5, 8640, Note_on_c, 3, 54, 0
5, 8640, Note_on_c, 3, 55, 100
5, 9120, Note_on_c, 3, 55, 0
5, 9120, Note_on_c, 3, 47, 100
5, 9600, Note_on_c, 3, 47, 0
5, 9600, Note_on_c, 3, 48, 100
5, 10560, Note_on_c, 3, 48, 0
5, 11040, Note_on_c, 3, 45, 100
5, 11520, Note_on_c, 3, 45, 0
5, 11520, Note_on_c, 3, 42, 100
5, 12480, Note_on_c, 3, 42, 0
5, 12960, Note_on_c, 3, 38, 100
5, 13440, Note_on_c, 3, 38, 0
5, 13440, Note_on_c, 3, 43, 100
5, 13920, Note_on_c, 3, 43, 0
5, 13920, Note_on_c, 3, 50, 100
5, 14400, Note_on_c, 3, 50, 0
5, 14400, Note_on_c, 3, 47, 100
5, 14880, Note_on_c, 3, 47, 0
5, 14880, Note_on_c, 3, 50, 100
5, 15360, Note_on_c, 3, 50, 0
5, 15360, Note_on_c, 3, 55, 100
5, 16320, Note_on_c, 3, 55, 0
5, 16800, Note_on_c, 3, 52, 100
5, 17280, Note_on_c, 3, 52, 0
5, 17280, Note_on_c, 3, 54, 100
5, 18240, Note_on_c, 3, 54, 0
5, 18720, Note_on_c, 3, 50, 100
5, 19200, Note_on_c, 3, 50, 0
5, 19200, Note_on_c, 3, 55, 100
5, 20160, Note_on_c, 3, 55, 0
5, 20640, Note_on_c, 3, 52, 100
5, 21120, Note_on_c, 3, 52, 0
5, 21120, Note_on_c, 3, 57, 100
5, 22080, Note_on_c, 3, 57, 0
5, 22560, Note_on_c, 3, 55, 100
5, 23040, Note_on_c, 3, 55, 0
5, 23040, Note_on_c, 3, 54, 100
5, 24000, Note_on_c, 3, 54, 0
5, 24480, Note_on_c, 3, 50, 100
5, 24960, Note_on_c, 3, 50, 0
5, 24960, Note_on_c, 3, 43, 100
5, 25440, Note_on_c, 3, 43, 0
5, 25440, Note_on_c, 3, 47, 100
5, 25920, Note_on_c, 3, 47, 0
5, 25920, Note_on_c, 3, 43, 100
5, 26400, Note_on_c, 3, 43, 0
5, 26400, Note_on_c, 3, 40, 100
5, 26880, Note_on_c, 3, 40, 0
5, 26880, Note_on_c, 3, 45, 100
5, 27840, Note_on_c, 3, 45, 0
5, 28320, Note_on_c, 3, 45, 100
5, 28800, Note_on_c, 3, 45, 0
5, 28800, Note_on_c, 3, 50, 100
5, 30720, Note_on_c, 3, 50, 0
5, 30720, Note_on_c, 3, 55, 100
5, 30840, Note_on_c, 3, 55, 0
5, 30840, Note_on_c, 3, 54, 100
5, 30960, Note_on_c, 3, 54, 0
5, 30960, Note_on_c, 3, 55, 100
5, 31680, Note_on_c, 3, 55, 0
5, 31680, Note_on_c, 3, 57, 100
5, 31800, Note_on_c, 3, 57, 0
5, 31800, Note_on_c, 3, 55, 100
5, 31920, Note_on_c, 3, 55, 0
5, 31920, Note_on_c, 3, 57, 100
5, 32040, Note_on_c, 3, 57, 0
5, 32040, Note_on_c, 3, 55, 100
5, 32160, Note_on_c, 3, 55, 0
5, 32160, Note_on_c, 3, 57, 100
5, 32280, Note_on_c, 3, 57, 0
5, 32280, Note_on_c, 3, 55, 100
5, 32400, Note_on_c, 3, 55, 0
5, 32400, Note_on_c, 3, 54, 100
5, 32520, Note_on_c, 3, 54, 0
5, 32520, Note_on_c, 3, 55, 100
5, 32640, Note_on_c, 3, 55, 0
5, 32640, Note_on_c, 3, 57, 100
5, 33120, Note_on_c, 3, 57, 0
5, 33120, Note_on_c, 3, 54, 100
5, 33600, Note_on_c, 3, 54, 0
5, 33600, Note_on_c, 3, 50, 100
5, 34080, Note_on_c, 3, 50, 0
5, 34080, Note_on_c, 3, 54, 100
5, 34560, Note_on_c, 3, 54, 0
5, 34560, Note_on_c, 3, 52, 100
5, 35040, Note_on_c, 3, 52, 0
5, 35040, Note_on_c, 3, 57, 100
5, 35520, Note_on_c, 3, 57, 0
5, 35520, Note_on_c, 3, 45, 100
5, 36000, Note_on_c, 3, 45, 0
5, 36000, Note_on_c, 3, 55, 100
5, 36480, Note_on_c, 3, 55, 0
5, 36480, Note_on_c, 3, 55, 100
5, 36560, Note_on_c, 3, 55, 0
5, 36560, Note_on_c, 3, 54, 100
5, 36640, Note_on_c, 3, 54, 0
5, 36640, Note_on_c, 3, 55, 100
5, 36720, Note_on_c, 3, 55, 0
5, 36720, Note_on_c, 3, 54, 100
5, 36960, Note_on_c, 3, 54, 0
5, 36960, Note_on_c, 3, 52, 100
5, 37200, Note_on_c, 3, 52, 0
5, 37200, Note_on_c, 3, 54, 100
5, 37440, Note_on_c, 3, 54, 0
5, 37440, Note_on_c, 3, 50, 100
5, 37680, Note_on_c, 3, 50, 0
5, 37680, Note_on_c, 3, 52, 100
5, 37920, Note_on_c, 3, 52, 0
5, 37920, Note_on_c, 3, 48, 100
5, 38160, Note_on_c, 3, 48, 0
5, 38160, Note_on_c, 3, 50, 100
5, 38400, Note_on_c, 3, 50, 0
5, 38400, Note_on_c, 3, 47, 100
5, 38640, Note_on_c, 3, 47, 0
5, 38640, Note_on_c, 3, 50, 100
5, 38880, Note_on_c, 3, 50, 0
5, 38880, Note_on_c, 3, 52, 100
5, 39120, Note_on_c, 3, 52, 0
5, 39120, Note_on_c, 3, 54, 100
5, 39360, Note_on_c, 3, 54, 0
5, 39360, Note_on_c, 3, 55, 100
5, 39840, Note_on_c, 3, 55, 0
5, 39840, Note_on_c, 3, 47, 100
5, 40320, Note_on_c, 3, 47, 0
5, 40320, Note_on_c, 3, 48, 100
5, 41280, Note_on_c, 3, 48, 0
5, 41760, Note_on_c, 3, 45, 100
5, 42240, Note_on_c, 3, 45, 0
5, 42240, Note_on_c, 3, 42, 100
5, 43200, Note_on_c, 3, 42, 0
5, 43680, Note_on_c, 3, 38, 100
5, 44160, Note_on_c, 3, 38, 0
5, 44160, Note_on_c, 3, 43, 100
5, 44640, Note_on_c, 3, 43, 0
5, 44640, Note_on_c, 3, 50, 100
5, 45120, Note_on_c, 3, 50, 0
5, 45120, Note_on_c, 3, 47, 100
5, 45600, Note_on_c, 3, 47, 0
5, 45600, Note_on_c, 3, 50, 100
5, 46080, Note_on_c, 3, 50, 0
5, 46080, Note_on_c, 3, 55, 100
5, 47040, Note_on_c, 3, 55, 0
5, 47520, Note_on_c, 3, 52, 100
5, 48000, Note_on_c, 3, 52, 0
5, 48000, Note_on_c, 3, 54, 100
5, 48960, Note_on_c, 3, 54, 0
5, 49440, Note_on_c, 3, 50, 100
5, 49920, Note_on_c, 3, 50, 0
5, 49920, Note_on_c, 3, 55, 100
5, 50880, Note_on_c, 3, 55, 0
5, 51360, Note_on_c, 3, 52, 100
5, 51840, Note_on_c, 3, 52, 0
5, 51840, Note_on_c, 3, 57, 100
5, 52800, Note_on_c, 3, 57, 0
5, 53280, Note_on_c, 3, 55, 100
5, 53760, Note_on_c, 3, 55, 0
5, 53760, Note_on_c, 3, 54, 100
5, 54720, Note_on_c, 3, 54, 0
5, 55200, Note_on_c, 3, 50, 100
5, 55680, Note_on_c, 3, 50, 0
5, 55680, Note_on_c, 3, 43, 100
5, 56160, Note_on_c, 3, 43, 0
5, 56160, Note_on_c, 3, 47, 100
5, 56640, Note_on_c, 3, 47, 0
5, 56640, Note_on_c, 3, 43, 100
5, 57120, Note_on_c, 3, 43, 0
5, 57120, Note_on_c, 3, 40, 100
5, 57600, Note_on_c, 3, 40, 0
5, 57600, Note_on_c, 3, 45, 100
5, 58560, Note_on_c, 3, 45, 0
5, 59040, Note_on_c, 3, 45, 100
5, 59520, Note_on_c, 3, 45, 0
5, 59520, Note_on_c, 3, 50, 100
5, 61440, Note_on_c, 3, 50, 0
5, 61440, Note_on_c, 3, 50, 100
5, 61680, Note_on_c, 3, 50, 0
5, 61680, Note_on_c, 3, 52, 100
5, 61920, Note_on_c, 3, 52, 0
5, 61920, Note_on_c, 3, 54, 100
5, 62160, Note_on_c, 3, 54, 0
5, 62160, Note_on_c, 3, 55, 100
5, 62400, Note_on_c, 3, 55, 0
5, 62400, Note_on_c, 3, 57, 100
5, 62880, Note_on_c, 3, 57, 0
5, 62880, Note_on_c, 3, 48, 100
5, 63360, Note_on_c, 3, 48, 0
5, 63360, Note_on_c, 3, 47, 100
5, 63600, Note_on_c, 3, 47, 0
5, 63600, Note_on_c, 3, 50, 100
5, 63840, Note_on_c, 3, 50, 0
5, 63840, Note_on_c, 3, 52, 100
5, 64080, Note_on_c, 3, 52, 0
5, 64080, Note_on_c, 3, 54, 100
5, 64320, Note_on_c, 3, 54, 0
5, 64320, Note_on_c, 3, 55, 100
5, 64560, Note_on_c, 3, 55, 0
5, 64560, Note_on_c, 3, 57, 100
5, 64800, Note_on_c, 3, 57, 0
5, 64800, Note_on_c, 3, 59, 100
5, 65760, Note_on_c, 3, 59, 0
5, 65760, Note_on_c, 3, 57, 100
5, 66000, Note_on_c, 3, 57, 0
5, 66000, Note_on_c, 3, 56, 100
5, 66240, Note_on_c, 3, 56, 0
5, 66240, Note_on_c, 3, 57, 100
5, 67680, Note_on_c, 3, 57, 0
5, 67680, Note_on_c, 3, 54, 100
5, 68160, Note_on_c, 3, 54, 0
5, 68160, Note_on_c, 3, 59, 100
5, 68640, Note_on_c, 3, 59, 0
5, 68640, Note_on_c, 3, 57, 100
5, 69120, Note_on_c, 3, 57, 0
5, 69120, Note_on_c, 3, 55, 100
5, 69360, Note_on_c, 3, 55, 0
5, 69360, Note_on_c, 3, 57, 100
5, 69600, Note_on_c, 3, 57, 0
5, 69600, Note_on_c, 3, 59, 100
5, 69840, Note_on_c, 3, 59, 0
5, 69840, Note_on_c, 3, 57, 100
5, 70080, Note_on_c, 3, 57, 0
5, 70080, Note_on_c, 3, 55, 100
5, 70320, Note_on_c, 3, 55, 0
5, 70320, Note_on_c, 3, 54, 100
5, 70560, Note_on_c, 3, 54, 0
5, 70560, Note_on_c, 3, 55, 100
5, 70800, Note_on_c, 3, 55, 0
5, 70800, Note_on_c, 3, 52, 100
5, 71040, Note_on_c, 3, 52, 0
5, 71040, Note_on_c, 3, 57, 100
5, 71280, Note_on_c, 3, 57, 0
5, 71280, Note_on_c, 3, 59, 100
5, 71520, Note_on_c, 3, 59, 0
5, 71520, Note_on_c, 3, 60, 100
5, 71760, Note_on_c, 3, 60, 0
5, 71760, Note_on_c, 3, 59, 100
5, 72000, Note_on_c, 3, 59, 0
5, 72000, Note_on_c, 3, 57, 100
5, 72240, Note_on_c, 3, 57, 0
5, 72240, Note_on_c, 3, 55, 100
5, 72480, Note_on_c, 3, 55, 0
5, 72480, Note_on_c, 3, 57, 100
5, 72720, Note_on_c, 3, 57, 0
5, 72720, Note_on_c, 3, 54, 100
5, 72960, Note_on_c, 3, 54, 0
5, 72960, Note_on_c, 3, 59, 100
5, 73200, Note_on_c, 3, 59, 0
5, 73200, Note_on_c, 3, 57, 100
5, 73440, Note_on_c, 3, 57, 0
5, 73440, Note_on_c, 3, 55, 100
5, 73680, Note_on_c, 3, 55, 0
5, 73680, Note_on_c, 3, 57, 100
5, 73920, Note_on_c, 3, 57, 0
5, 73920, Note_on_c, 3, 59, 100
5, 74160, Note_on_c, 3, 59, 0
5, 74160, Note_on_c, 3, 57, 100
5, 74400, Note_on_c, 3, 57, 0
5, 74400, Note_on_c, 3, 59, 100
5, 74640, Note_on_c, 3, 59, 0
5, 74640, Note_on_c, 3, 47, 100
5, 74880, Note_on_c, 3, 47, 0
5, 74880, Note_on_c, 3, 52, 100
5, 75120, Note_on_c, 3, 52, 0
5, 75120, Note_on_c, 3, 47, 100
5, 75360, Note_on_c, 3, 47, 0
5, 75360, Note_on_c, 3, 45, 100
5, 75600, Note_on_c, 3, 45, 0
5, 75600, Note_on_c, 3, 47, 100
5, 75840, Note_on_c, 3, 47, 0
5, 75840, Note_on_c, 3, 43, 100
5, 76080, Note_on_c, 3, 43, 0
5, 76080, Note_on_c, 3, 42, 100
5, 76320, Note_on_c, 3, 42, 0
5, 76320, Note_on_c, 3, 43, 100
5, 76560, Note_on_c, 3, 43, 0
5, 76560, Note_on_c, 3, 40, 100
5, 76800, Note_on_c, 3, 40, 0
5, 76800, Note_on_c, 3, 49, 100
5, 77760, Note_on_c, 3, 49, 0
5, 77760, Note_on_c, 3, 50, 100
5, 77880, Note_on_c, 3, 50, 0
5, 77880, Note_on_c, 3, 49, 100
5, 78000, Note_on_c, 3, 49, 0
5, 78000, Note_on_c, 3, 50, 100
5, 78120, Note_on_c, 3, 50, 0
5, 78120, Note_on_c, 3, 49, 100
5, 78240, Note_on_c, 3, 49, 0
5, 78240, Note_on_c, 3, 50, 100
5, 78360, Note_on_c, 3, 50, 0
5, 78360, Note_on_c, 3, 49, 100
5, 78480, Note_on_c, 3, 49, 0
5, 78480, Note_on_c, 3, 47, 100
5, 78600, Note_on_c, 3, 47, 0
5, 78600, Note_on_c, 3, 49, 100
5, 78720, Note_on_c, 3, 49, 0
5, 78720, Note_on_c, 3, 50, 100
5, 79200, Note_on_c, 3, 50, 0
5, 79200, Note_on_c, 3, 47, 100
5, 79680, Note_on_c, 3, 47, 0
5, 79680, Note_on_c, 3, 43, 100
5, 80160, Note_on_c, 3, 43, 0
5, 80160, Note_on_c, 3, 47, 100
5, 80640, Note_on_c, 3, 47, 0
5, 80640, Note_on_c, 3, 48, 100
5, 81120, Note_on_c, 3, 48, 0
5, 81120, Note_on_c, 3, 52, 100
5, 81600, Note_on_c, 3, 52, 0
5, 81600, Note_on_c, 3, 45, 100
5, 82080, Note_on_c, 3, 45, 0
5, 82080, Note_on_c, 3, 55, 100
5, 82560, Note_on_c, 3, 55, 0
5, 82560, Note_on_c, 3, 55, 100
5, 82640, Note_on_c, 3, 55, 0
5, 82640, Note_on_c, 3, 54, 100
5, 82720, Note_on_c, 3, 54, 0
5, 82720, Note_on_c, 3, 55, 100
5, 82800, Note_on_c, 3, 55, 0
5, 82800, Note_on_c, 3, 54, 100
5, 83040, Note_on_c, 3, 54, 0
5, 83040, Note_on_c, 3, 52, 100
5, 83280, Note_on_c, 3, 52, 0
5, 83280, Note_on_c, 3, 54, 100
5, 83520, Note_on_c, 3, 54, 0
5, 83520, Note_on_c, 3, 50, 100
5, 83760, Note_on_c, 3, 50, 0
5, 83760, Note_on_c, 3, 52, 100
5, 84000, Note_on_c, 3, 52, 0
5, 84000, Note_on_c, 3, 54, 100
5, 84240, Note_on_c, 3, 54, 0
5, 84240, Note_on_c, 3, 50, 100
5, 84480, Note_on_c, 3, 50, 0
5, 84480, Note_on_c, 3, 55, 100
5, 84960, Note_on_c, 3, 55, 0
5, 84960, Note_on_c, 3, 57, 100
5, 85440, Note_on_c, 3, 57, 0
5, 85440, Note_on_c, 3, 59, 100
5, 85920, Note_on_c, 3, 59, 0
5, 85920, Note_on_c, 3, 55, 100
5, 86400, Note_on_c, 3, 55, 0
5, 86400, Note_on_c, 3, 48, 100
5, 87360, Note_on_c, 3, 48, 0
5, 87840, Note_on_c, 3, 57, 100
5, 88320, Note_on_c, 3, 57, 0
5, 88320, Note_on_c, 3, 50, 100
5, 89280, Note_on_c, 3, 50, 0
5, 89760, Note_on_c, 3, 50, 100
5, 90240, Note_on_c, 3, 50, 0
5, 90240, Note_on_c, 3, 55, 100
5, 91200, Note_on_c, 3, 55, 0
5, 91200, Note_on_c, 3, 43, 100
5, 92160, Note_on_c, 3, 43, 0
5, 92160, Note_on_c, 3, 50, 100
5, 92400, Note_on_c, 3, 50, 0
5, 92400, Note_on_c, 3, 52, 100
5, 92640, Note_on_c, 3, 52, 0
5, 92640, Note_on_c, 3, 54, 100
5, 92880, Note_on_c, 3, 54, 0
5, 92880, Note_on_c, 3, 55, 100
5, 93120, Note_on_c, 3, 55, 0
5, 93120, Note_on_c, 3, 57, 100
5, 93600, Note_on_c, 3, 57, 0
5, 93600, Note_on_c, 3, 48, 100
5, 94080, Note_on_c, 3, 48, 0
5, 94080, Note_on_c, 3, 47, 100
5, 94320, Note_on_c, 3, 47, 0
5, 94320, Note_on_c, 3, 50, 100
5, 94560, Note_on_c, 3, 50, 0
5, 94560, Note_on_c, 3, 52, 100
5, 94800, Note_on_c, 3, 52, 0
5, 94800, Note_on_c, 3, 54, 100
5, 95040, Note_on_c, 3, 54, 0
5, 95040, Note_on_c, 3, 55, 100
5, 95280, Note_on_c, 3, 55, 0
5, 95280, Note_on_c, 3, 57, 100
5, 95520, Note_on_c, 3, 57, 0
5, 95520, Note_on_c, 3, 59, 100
5, 96480, Note_on_c, 3, 59, 0
5, 96480, Note_on_c, 3, 57, 100
5, 96720, Note_on_c, 3, 57, 0
5, 96720, Note_on_c, 3, 56, 100
5, 96960, Note_on_c, 3, 56, 0
5, 96960, Note_on_c, 3, 57, 100
5, 98400, Note_on_c, 3, 57, 0
5, 98400, Note_on_c, 3, 54, 100
5, 98880, Note_on_c, 3, 54, 0
5, 98880, Note_on_c, 3, 59, 100
5, 99360, Note_on_c, 3, 59, 0
5, 99360, Note_on_c, 3, 57, 100
5, 99840, Note_on_c, 3, 57, 0
5, 99840, Note_on_c, 3, 55, 100
5, 100080, Note_on_c, 3, 55, 0
5, 100080, Note_on_c, 3, 57, 100
5, 100320, Note_on_c, 3, 57, 0
5, 100320, Note_on_c, 3, 59, 100
5, 100560, Note_on_c, 3, 59, 0
5, 100560, Note_on_c, 3, 57, 100
5, 100800, Note_on_c, 3, 57, 0
5, 100800, Note_on_c, 3, 55, 100
5, 101040, Note_on_c, 3, 55, 0
5, 101040, Note_on_c, 3, 54, 100
5, 101280, Note_on_c, 3, 54, 0
5, 101280, Note_on_c, 3, 55, 100
5, 101520, Note_on_c, 3, 55, 0
5, 101520, Note_on_c, 3, 52, 100
5, 101760, Note_on_c, 3, 52, 0
5, 101760, Note_on_c, 3, 57, 100
5, 102000, Note_on_c, 3, 57, 0
5, 102000, Note_on_c, 3, 59, 100
5, 102240, Note_on_c, 3, 59, 0
5, 102240, Note_on_c, 3, 60, 100
5, 102480, Note_on_c, 3, 60, 0
5, 102480, Note_on_c, 3, 59, 100
5, 102720, Note_on_c, 3, 59, 0
5, 102720, Note_on_c, 3, 57, 100
5, 102960, Note_on_c, 3, 57, 0
5, 102960, Note_on_c, 3, 55, 100
5, 103200, Note_on_c, 3, 55, 0
5, 103200, Note_on_c, 3, 57, 100
5, 103440, Note_on_c, 3, 57, 0
5, 103440, Note_on_c, 3, 54, 100
5, 103680, Note_on_c, 3, 54, 0
5, 103680, Note_on_c, 3, 59, 100
5, 103920, Note_on_c, 3, 59, 0
5, 103920, Note_on_c, 3, 57, 100
5, 104160, Note_on_c, 3, 57, 0
5, 104160, Note_on_c, 3, 55, 100
5, 104400, Note_on_c, 3, 55, 0
5, 104400, Note_on_c, 3, 57, 100
5, 104640, Note_on_c, 3, 57, 0
5, 104640, Note_on_c, 3, 59, 100
5, 104880, Note_on_c, 3, 59, 0
5, 104880, Note_on_c, 3, 57, 100
5, 105120, Note_on_c, 3, 57, 0
5, 105120, Note_on_c, 3, 59, 100
5, 105360, Note_on_c, 3, 59, 0
5, 105360, Note_on_c, 3, 47, 100
5, 105600, Note_on_c, 3, 47, 0
5, 105600, Note_on_c, 3, 52, 100
5, 105840, Note_on_c, 3, 52, 0
5, 105840, Note_on_c, 3, 47, 100
5, 106080, Note_on_c, 3, 47, 0
5, 106080, Note_on_c, 3, 45, 100
5, 106320, Note_on_c, 3, 45, 0
5, 106320, Note_on_c, 3, 47, 100
5, 106560, Note_on_c, 3, 47, 0
5, 106560, Note_on_c, 3, 43, 100
5, 106800, Note_on_c, 3, 43, 0
5, 106800, Note_on_c, 3, 42, 100
5, 107040, Note_on_c, 3, 42, 0
5, 107040, Note_on_c, 3, 43, 100
5, 107280, Note_on_c, 3, 43, 0
5, 107280, Note_on_c, 3, 40, 100
5, 107520, Note_on_c, 3, 40, 0
5, 107520, Note_on_c, 3, 49, 100
5, 108480, Note_on_c, 3, 49, 0
5, 108480, Note_on_c, 3, 50, 100
5, 108600, Note_on_c, 3, 50, 0
5, 108600, Note_on_c, 3, 49, 100
5, 108720, Note_on_c, 3, 49, 0
5, 108720, Note_on_c, 3, 50, 100
5, 108840, Note_on_c, 3, 50, 0
5, 108840, Note_on_c, 3, 49, 100
5, 108960, Note_on_c, 3, 49, 0
5, 108960, Note_on_c, 3, 50, 100
5, 109080, Note_on_c, 3, 50, 0
5, 109080, Note_on_c, 3, 49, 100
5, 109200, Note_on_c, 3, 49, 0
5, 109200, Note_on_c, 3, 47, 100
5, 109320, Note_on_c, 3, 47, 0
5, 109320, Note_on_c, 3, 49, 100
5, 109440, Note_on_c, 3, 49, 0
5, 109440, Note_on_c, 3, 50, 100
5, 109920, Note_on_c, 3, 50, 0
5, 109920, Note_on_c, 3, 47, 100
5, 110400, Note_on_c, 3, 47, 0
5, 110400, Note_on_c, 3, 43, 100
5, 110880, Note_on_c, 3, 43, 0
5, 110880, Note_on_c, 3, 47, 100
5, 111360, Note_on_c, 3, 47, 0
5, 111360, Note_on_c, 3, 48, 100
5, 111840, Note_on_c, 3, 48, 0
5, 111840, Note_on_c, 3, 52, 100
5, 112320, Note_on_c, 3, 52, 0
5, 112320, Note_on_c, 3, 45, 100
5, 112800, Note_on_c, 3, 45, 0
5, 112800, Note_on_c, 3, 55, 100
5, 113280, Note_on_c, 3, 55, 0
5, 113280, Note_on_c, 3, 55, 100
5, 113360, Note_on_c, 3, 55, 0
5, 113360, Note_on_c, 3, 54, 100
5, 113440, Note_on_c, 3, 54, 0
5, 113440, Note_on_c, 3, 55, 100
5, 113520, Note_on_c, 3, 55, 0
5, 113520, Note_on_c, 3, 54, 100
5, 113760, Note_on_c, 3, 54, 0
5, 113760, Note_on_c, 3, 52, 100
5, 114000, Note_on_c, 3, 52, 0
5, 114000, Note_on_c, 3, 54, 100
5, 114240, Note_on_c, 3, 54, 0
5, 114240, Note_on_c, 3, 50, 100
5, 114480, Note_on_c, 3, 50, 0
5, 114480, Note_on_c, 3, 52, 100
5, 114720, Note_on_c, 3, 52, 0
5, 114720, Note_on_c, 3, 54, 100
5, 114960, Note_on_c, 3, 54, 0
5, 114960, Note_on_c, 3, 50, 100
5, 115200, Note_on_c, 3, 50, 0
5, 115200, Note_on_c, 3, 55, 100
5, 115680, Note_on_c, 3, 55, 0
5, 115680, Note_on_c, 3, 57, 100
5, 116160, Note_on_c, 3, 57, 0
5, 116160, Note_on_c, 3, 59, 100
5, 116640, Note_on_c, 3, 59, 0
5, 116640, Note_on_c, 3, 55, 100
5, 117120, Note_on_c, 3, 55, 0
5, 117120, Note_on_c, 3, 48, 100
5, 118080, Note_on_c, 3, 48, 0
5, 118560, Note_on_c, 3, 57, 100
5, 119040, Note_on_c, 3, 57, 0
5, 119040, Note_on_c, 3, 50, 100
5, 120000, Note_on_c, 3, 50, 0
5, 120480, Note_on_c, 3, 50, 100
5, 120960, Note_on_c, 3, 50, 0
5, 120960, Note_on_c, 3, 55, 100
5, 121920, Note_on_c, 3, 55, 0
5, 121920, Note_on_c, 3, 43, 100
5, 122880, Note_on_c, 3, 43, 0
5, 122880, End_track
6, 0, Start_track
6, 0, MIDI_port, 0
6, 0, Title_t, "Aria with 30 Variations for Harpsichord with 2 Manuals"
6, 0, End_track
7, 0, Start_track
7, 0, MIDI_port, 0
7, 0, Title_t, "--------------------------------------"
7, 0, End_track
8, 0, Start_track
8, 0, MIDI_port, 0
8, 0, Title_t, "Variatio 10 a 1 Clav. Fughetta"
8, 0, End_track
9, 0, Start_track
9, 0, MIDI_port, 0
9, 0, Title_t, "--------------------------------------"
9, 0, End_track
10, 0, Start_track
10, 0, MIDI_port, 0
10, 0, Title_t, "Sequenced with Cakewalk Pro Audio by"
10, 0, End_track
11, 0, Start_track
11, 0, MIDI_port, 0
11, 0, Title_t, "David J. Grossman - dave@unpronounceable.com"
11, 0, End_track
12, 0, Start_track
12, 0, MIDI_port, 0
12, 0, Title_t, "This and other Bach MIDI files can be found at:"
12, 0, End_track
13, 0, Start_track
13, 0, MIDI_port, 0
13, 0, Title_t, "Dave's J.S. Bach Page"
13, 0, End_track
14, 0, Start_track
14, 0, MIDI_port, 0
14, 0, Title_t, "http://www.unpronounceable.com/bach"
14, 0, End_track
15, 0, Start_track
15, 0, MIDI_port, 0
15, 0, Title_t, "--------------------------------------"
15, 0, End_track
16, 0, Start_track
16, 0, MIDI_port, 0
16, 0, Title_t, "Original Filename: 988-v10.mid"
16, 0, End_track
17, 0, Start_track
17, 0, MIDI_port, 0
17, 0, Title_t, "Last Modified: March 14, 1997"
17, 0, End_track
0, 0, End_of_file
