0, 0, Header, 1, 17, 480
1, 0, Start_track
1, 0, Title_t, "untitled"
1, 0, SMPTE_offset, 96, 0, 3, 0, 0
1, 0, Time_signature, 3, 3, 12, 8
1, 0, Key_signature, 1, "major"
1, 0, Tempo, 899955
1, 0, Marker_t, "A"
1, 11520, Marker_t, "A'"
1, 23040, Marker_t, "B"
1, 34560, Marker_t, "B'"
1, 34560, End_track
2, 0, Start_track
2, 0, MIDI_port, 0
2, 0, Title_t, "Solo Harpsichord with 2 Manuals"
2, 0, Program_c, 0, 6
2, 0, Control_c, 0, 7, 100
2, 0, Control_c, 0, 10, 74
2, 0, Note_on_c, 0, 74, 100
2, 240, Note_on_c, 0, 74, 0
2, 240, Note_on_c, 0, 74, 100
2, 960, Note_on_c, 0, 74, 0
2, 960, Note_on_c, 0, 74, 100
2, 1680, Note_on_c, 0, 74, 0
2, 1680, Note_on_c, 0, 74, 100
2, 1920, Note_on_c, 0, 74, 0
2, 1920, Note_on_c, 0, 73, 100
2, 2160, Note_on_c, 0, 73, 0
2, 2160, Note_on_c, 0, 74, 100
2, 2640, Note_on_c, 0, 74, 0
2, 2880, Note_on_c, 0, 79, 100
2, 3000, Note_on_c, 0, 79, 0
2, 3000, Note_on_c, 0, 78, 100
2, 3120, Note_on_c, 0, 78, 0
2, 3120, Note_on_c, 0, 79, 100
2, 3240, Note_on_c, 0, 79, 0
2, 3240, Note_on_c, 0, 74, 100
2, 3360, Note_on_c, 0, 74, 0
2, 3360, Note_on_c, 0, 71, 100
2, 3480, Note_on_c, 0, 71, 0
2, 3480, Note_on_c, 0, 74, 100
2, 3600, Note_on_c, 0, 74, 0
2, 3600, Note_on_c, 0, 76, 100
2, 3720, Note_on_c, 0, 76, 0
2, 3720, Note_on_c, 0, 74, 100
2, 3840, Note_on_c, 0, 74, 0
2, 3840, Note_on_c, 0, 76, 100
2, 3960, Note_on_c, 0, 76, 0
2, 3960, Note_on_c, 0, 72, 100
2, 4080, Note_on_c, 0, 72, 0
2, 4080, Note_on_c, 0, 69, 100
2, 4200, Note_on_c, 0, 69, 0
2, 4200, Note_on_c, 0, 72, 100
2, 4320, Note_on_c, 0, 72, 0
2, 4320, Note_on_c, 0, 74, 100
2, 4440, Note_on_c, 0, 74, 0
2, 4440, Note_on_c, 0, 72, 100
2, 4560, Note_on_c, 0, 72, 0
2, 4560, Note_on_c, 0, 74, 100
2, 4680, Note_on_c, 0, 74, 0
2, 4680, Note_on_c, 0, 76, 100
2, 4800, Note_on_c, 0, 76, 0
2, 4800, Note_on_c, 0, 74, 100
2, 4920, Note_on_c, 0, 74, 0
2, 4920, Note_on_c, 0, 72, 100
2, 5040, Note_on_c, 0, 72, 0
2, 5040, Note_on_c, 0, 71, 100
2, 5160, Note_on_c, 0, 71, 0
2, 5160, Note_on_c, 0, 69, 100
2, 5280, Note_on_c, 0, 69, 0
2, 5280, Note_on_c, 0, 71, 100
2, 5400, Note_on_c, 0, 71, 0
2, 5400, Note_on_c, 0, 72, 100
2, 5520, Note_on_c, 0, 72, 0
2, 5520, Note_on_c, 0, 71, 100
2, 5640, Note_on_c, 0, 71, 0
2, 5640, Note_on_c, 0, 69, 100
2, 5760, Note_on_c, 0, 69, 0
2, 5760, Note_on_c, 0, 67, 100
2, 6000, Note_on_c, 0, 67, 0
2, 6000, Note_on_c, 0, 79, 100
2, 6720, Note_on_c, 0, 79, 0
2, 6720, Note_on_c, 0, 78, 100
2, 7440, Note_on_c, 0, 78, 0
2, 7440, Note_on_c, 0, 76, 100
2, 7680, Note_on_c, 0, 76, 0
2, 7680, Note_on_c, 0, 74, 100
2, 7920, Note_on_c, 0, 74, 0
2, 7920, Note_on_c, 0, 73, 100
2, 8040, Note_on_c, 0, 73, 0
2, 8040, Note_on_c, 0, 74, 100
2, 8160, Note_on_c, 0, 74, 0
2, 8160, Note_on_c, 0, 76, 100
2, 8880, Note_on_c, 0, 76, 0
2, 8880, Note_on_c, 0, 74, 100
2, 9120, Note_on_c, 0, 74, 0
2, 9120, Note_on_c, 0, 72, 100
2, 9600, Note_on_c, 0, 72, 0
2, 9600, Note_on_c, 0, 71, 100
2, 9840, Note_on_c, 0, 71, 0
2, 9840, Note_on_c, 0, 79, 100
2, 10200, Note_on_c, 0, 79, 0
2, 10200, Note_on_c, 0, 76, 100
2, 10320, Note_on_c, 0, 76, 0
2, 10320, Note_on_c, 0, 78, 100
2, 10440, Note_on_c, 0, 78, 0
2, 10440, Note_on_c, 0, 74, 100
2, 10560, Note_on_c, 0, 74, 0
2, 10560, Note_on_c, 0, 76, 100
2, 10680, Note_on_c, 0, 76, 0
2, 10680, Note_on_c, 0, 73, 100
2, 10800, Note_on_c, 0, 73, 0
2, 10800, Note_on_c, 0, 74, 100
2, 11520, Note_on_c, 0, 74, 0
2, 11520, Note_on_c, 0, 74, 100
2, 11760, Note_on_c, 0, 74, 0
2, 11760, Note_on_c, 0, 74, 100
2, 12480, Note_on_c, 0, 74, 0
2, 12480, Note_on_c, 0, 74, 100
2, 13200, Note_on_c, 0, 74, 0
2, 13200, Note_on_c, 0, 74, 100
2, 13440, Note_on_c, 0, 74, 0
2, 13440, Note_on_c, 0, 73, 100
2, 13680, Note_on_c, 0, 73, 0
2, 13680, Note_on_c, 0, 74, 100
2, 14160, Note_on_c, 0, 74, 0
2, 14400, Note_on_c, 0, 79, 100
2, 14520, Note_on_c, 0, 79, 0
2, 14520, Note_on_c, 0, 78, 100
2, 14640, Note_on_c, 0, 78, 0
2, 14640, Note_on_c, 0, 79, 100
2, 14760, Note_on_c, 0, 79, 0
2, 14760, Note_on_c, 0, 74, 100
2, 14880, Note_on_c, 0, 74, 0
2, 14880, Note_on_c, 0, 71, 100
2, 15000, Note_on_c, 0, 71, 0
2, 15000, Note_on_c, 0, 74, 100
2, 15120, Note_on_c, 0, 74, 0
2, 15120, Note_on_c, 0, 76, 100
2, 15240, Note_on_c, 0, 76, 0
2, 15240, Note_on_c, 0, 74, 100
2, 15360, Note_on_c, 0, 74, 0
2, 15360, Note_on_c, 0, 76, 100
2, 15480, Note_on_c, 0, 76, 0
2, 15480, Note_on_c, 0, 72, 100
2, 15600, Note_on_c, 0, 72, 0
2, 15600, Note_on_c, 0, 69, 100
2, 15720, Note_on_c, 0, 69, 0
2, 15720, Note_on_c, 0, 72, 100
2, 15840, Note_on_c, 0, 72, 0
2, 15840, Note_on_c, 0, 74, 100
2, 15960, Note_on_c, 0, 74, 0
2, 15960, Note_on_c, 0, 72, 100
2, 16080, Note_on_c, 0, 72, 0
2, 16080, Note_on_c, 0, 74, 100
2, 16200, Note_on_c, 0, 74, 0
2, 16200, Note_on_c, 0, 76, 100
2, 16320, Note_on_c, 0, 76, 0
2, 16320, Note_on_c, 0, 74, 100
2, 16440, Note_on_c, 0, 74, 0
2, 16440, Note_on_c, 0, 72, 100
2, 16560, Note_on_c, 0, 72, 0
2, 16560, Note_on_c, 0, 71, 100
2, 16680, Note_on_c, 0, 71, 0
2, 16680, Note_on_c, 0, 69, 100
2, 16800, Note_on_c, 0, 69, 0
2, 16800, Note_on_c, 0, 71, 100
2, 16920, Note_on_c, 0, 71, 0
2, 16920, Note_on_c, 0, 72, 100
2, 17040, Note_on_c, 0, 72, 0
2, 17040, Note_on_c, 0, 71, 100
2, 17160, Note_on_c, 0, 71, 0
2, 17160, Note_on_c, 0, 69, 100
2, 17280, Note_on_c, 0, 69, 0
2, 17280, Note_on_c, 0, 67, 100
2, 17520, Note_on_c, 0, 67, 0
2, 17520, Note_on_c, 0, 79, 100
2, 18240, Note_on_c, 0, 79, 0
2, 18240, Note_on_c, 0, 78, 100
2, 18960, Note_on_c, 0, 78, 0
2, 18960, Note_on_c, 0, 76, 100
2, 19200, Note_on_c, 0, 76, 0
2, 19200, Note_on_c, 0, 74, 100
2, 19440, Note_on_c, 0, 74, 0
2, 19440, Note_on_c, 0, 73, 100
2, 19560, Note_on_c, 0, 73, 0
2, 19560, Note_on_c, 0, 74, 100
2, 19680, Note_on_c, 0, 74, 0
2, 19680, Note_on_c, 0, 76, 100
2, 20400, Note_on_c, 0, 76, 0
2, 20400, Note_on_c, 0, 74, 100
2, 20640, Note_on_c, 0, 74, 0
2, 20640, Note_on_c, 0, 72, 100
2, 21120, Note_on_c, 0, 72, 0
2, 21120, Note_on_c, 0, 71, 100
2, 21360, Note_on_c, 0, 71, 0
2, 21360, Note_on_c, 0, 79, 100
2, 21720, Note_on_c, 0, 79, 0
2, 21720, Note_on_c, 0, 76, 100
2, 21840, Note_on_c, 0, 76, 0
2, 21840, Note_on_c, 0, 78, 100
2, 21960, Note_on_c, 0, 78, 0
2, 21960, Note_on_c, 0, 74, 100
2, 22080, Note_on_c, 0, 74, 0
2, 22080, Note_on_c, 0, 76, 100
2, 22200, Note_on_c, 0, 76, 0
2, 22200, Note_on_c, 0, 73, 100
2, 22320, Note_on_c, 0, 73, 0
2, 22320, Note_on_c, 0, 74, 100
2, 23040, Note_on_c, 0, 74, 0
2, 23040, Note_on_c, 0, 78, 100
2, 23160, Note_on_c, 0, 78, 0
2, 23160, Note_on_c, 0, 76, 100
2, 23280, Note_on_c, 0, 76, 0
2, 23280, Note_on_c, 0, 78, 100
2, 23400, Note_on_c, 0, 78, 0
2, 23400, Note_on_c, 0, 74, 100
2, 23520, Note_on_c, 0, 74, 0
2, 23520, Note_on_c, 0, 69, 100
2, 23640, Note_on_c, 0, 69, 0
2, 23640, Note_on_c, 0, 74, 100
2, 23760, Note_on_c, 0, 74, 0
2, 23760, Note_on_c, 0, 79, 100
2, 23880, Note_on_c, 0, 79, 0
2, 23880, Note_on_c, 0, 78, 100
2, 24000, Note_on_c, 0, 78, 0
2, 24000, Note_on_c, 0, 79, 100
2, 24120, Note_on_c, 0, 79, 0
2, 24120, Note_on_c, 0, 74, 100
2, 24240, Note_on_c, 0, 74, 0
2, 24240, Note_on_c, 0, 71, 100
2, 24360, Note_on_c, 0, 71, 0
2, 24360, Note_on_c, 0, 74, 100
2, 24480, Note_on_c, 0, 74, 0
2, 24480, Note_on_c, 0, 76, 100
2, 24600, Note_on_c, 0, 76, 0
2, 24600, Note_on_c, 0, 75, 100
2, 24720, Note_on_c, 0, 75, 0
2, 24720, Note_on_c, 0, 76, 100
2, 24840, Note_on_c, 0, 76, 0
2, 24840, Note_on_c, 0, 79, 100
2, 24960, Note_on_c, 0, 79, 0
2, 24960, Note_on_c, 0, 78, 100
2, 25080, Note_on_c, 0, 78, 0
2, 25080, Note_on_c, 0, 76, 100
2, 25200, Note_on_c, 0, 76, 0
2, 25200, Note_on_c, 0, 75, 100
2, 25320, Note_on_c, 0, 75, 0
2, 25320, Note_on_c, 0, 76, 100
2, 25440, Note_on_c, 0, 76, 0
2, 25440, Note_on_c, 0, 78, 100
2, 25560, Note_on_c, 0, 78, 0
2, 25560, Note_on_c, 0, 75, 100
2, 25680, Note_on_c, 0, 75, 0
2, 25680, Note_on_c, 0, 71, 100
2, 25800, Note_on_c, 0, 71, 0
2, 25800, Note_on_c, 0, 75, 100
2, 25920, Note_on_c, 0, 75, 0
2, 25920, Note_on_c, 0, 76, 100
2, 26160, Note_on_c, 0, 76, 0
2, 26160, Note_on_c, 0, 76, 100
2, 26880, Note_on_c, 0, 76, 0
2, 26880, Note_on_c, 0, 76, 100
2, 27600, Note_on_c, 0, 76, 0
2, 27600, Note_on_c, 0, 76, 100
2, 27840, Note_on_c, 0, 76, 0
2, 27840, Note_on_c, 0, 75, 100
2, 28080, Note_on_c, 0, 75, 0
2, 28080, Note_on_c, 0, 76, 100
2, 28560, Note_on_c, 0, 76, 0
2, 29040, Note_on_c, 0, 76, 100
2, 29160, Note_on_c, 0, 76, 0
2, 29160, Note_on_c, 0, 72, 100
2, 29280, Note_on_c, 0, 72, 0
2, 29280, Note_on_c, 0, 69, 100
2, 29400, Note_on_c, 0, 69, 0
2, 29400, Note_on_c, 0, 72, 100
2, 29520, Note_on_c, 0, 72, 0
2, 29520, Note_on_c, 0, 74, 100
2, 30480, Note_on_c, 0, 74, 0
2, 30480, Note_on_c, 0, 72, 100
2, 30600, Note_on_c, 0, 72, 0
2, 30600, Note_on_c, 0, 71, 100
2, 30720, Note_on_c, 0, 71, 0
2, 30720, Note_on_c, 0, 72, 100
2, 31200, Note_on_c, 0, 72, 0
2, 31200, Note_on_c, 0, 74, 100
2, 31320, Note_on_c, 0, 74, 0
2, 31320, Note_on_c, 0, 72, 100
2, 31440, Note_on_c, 0, 72, 0
2, 31440, Note_on_c, 0, 71, 100
2, 31560, Note_on_c, 0, 71, 0
2, 31560, Note_on_c, 0, 69, 100
2, 31680, Note_on_c, 0, 69, 0
2, 31680, Note_on_c, 0, 74, 100
2, 31800, Note_on_c, 0, 74, 0
2, 31800, Note_on_c, 0, 72, 100
2, 31920, Note_on_c, 0, 72, 0
2, 31920, Note_on_c, 0, 74, 100
2, 32040, Note_on_c, 0, 74, 0
2, 32040, Note_on_c, 0, 71, 100
2, 32160, Note_on_c, 0, 71, 0
2, 32160, Note_on_c, 0, 67, 100
2, 32280, Note_on_c, 0, 67, 0
2, 32280, Note_on_c, 0, 71, 100
2, 32400, Note_on_c, 0, 71, 0
2, 32400, Note_on_c, 0, 76, 100
2, 32520, Note_on_c, 0, 76, 0
2, 32520, Note_on_c, 0, 74, 100
2, 32640, Note_on_c, 0, 74, 0
2, 32640, Note_on_c, 0, 76, 100
2, 32760, Note_on_c, 0, 76, 0
2, 32760, Note_on_c, 0, 72, 100
2, 32880, Note_on_c, 0, 72, 0
2, 32880, Note_on_c, 0, 69, 100
2, 33000, Note_on_c, 0, 69, 0
2, 33000, Note_on_c, 0, 72, 100
2, 33120, Note_on_c, 0, 72, 0
2, 33120, Note_on_c, 0, 78, 100
2, 33240, Note_on_c, 0, 78, 0
2, 33240, Note_on_c, 0, 76, 100
2, 33360, Note_on_c, 0, 76, 0
2, 33360, Note_on_c, 0, 78, 100
2, 33480, Note_on_c, 0, 78, 0
2, 33480, Note_on_c, 0, 81, 100
2, 33600, Note_on_c, 0, 81, 0
2, 33600, Note_on_c, 0, 74, 100
2, 33720, Note_on_c, 0, 74, 0
2, 33720, Note_on_c, 0, 78, 100
2, 33840, Note_on_c, 0, 78, 0
2, 33840, Note_on_c, 0, 79, 100
2, 33960, Note_on_c, 0, 79, 0
2, 33960, Note_on_c, 0, 78, 100
2, 34080, Note_on_c, 0, 78, 0
2, 34080, Note_on_c, 0, 79, 100
2, 34200, Note_on_c, 0, 79, 0
2, 34200, Note_on_c, 0, 74, 100
2, 34320, Note_on_c, 0, 74, 0
2, 34320, Note_on_c, 0, 71, 100
2, 34440, Note_on_c, 0, 71, 0
2, 34440, Note_on_c, 0, 67, 100
2, 34560, Note_on_c, 0, 67, 0
2, 34560, Note_on_c, 0, 78, 100
2, 34680, Note_on_c, 0, 78, 0
2, 34680, Note_on_c, 0, 76, 100
2, 34800, Note_on_c, 0, 76, 0
2, 34800, Note_on_c, 0, 78, 100
2, 34920, Note_on_c, 0, 78, 0
2, 34920, Note_on_c, 0, 74, 100
2, 35040, Note_on_c, 0, 74, 0
2, 35040, Note_on_c, 0, 69, 100
2, 35160, Note_on_c, 0, 69, 0
2, 35160, Note_on_c, 0, 74, 100
2, 35280, Note_on_c, 0, 74, 0
2, 35280, Note_on_c, 0, 79, 100
2, 35400, Note_on_c, 0, 79, 0
2, 35400, Note_on_c, 0, 78, 100
2, 35520, Note_on_c, 0, 78, 0
2, 35520, Note_on_c, 0, 79, 100
2, 35640, Note_on_c, 0, 79, 0
2, 35640, Note_on_c, 0, 74, 100
2, 35760, Note_on_c, 0, 74, 0
2, 35760, Note_on_c, 0, 71, 100
2, 35880, Note_on_c, 0, 71, 0
2, 35880, Note_on_c, 0, 74, 100
2, 36000, Note_on_c, 0, 74, 0
2, 36000, Note_on_c, 0, 76, 100
2, 36120, Note_on_c, 0, 76, 0
2, 36120, Note_on_c, 0, 75, 100
2, 36240, Note_on_c, 0, 75, 0
2, 36240, Note_on_c, 0, 76, 100
2, 36360, Note_on_c, 0, 76, 0
2, 36360, Note_on_c, 0, 79, 100
2, 36480, Note_on_c, 0, 79, 0
2, 36480, Note_on_c, 0, 78, 100
2, 36600, Note_on_c, 0, 78, 0
2, 36600, Note_on_c, 0, 76, 100
2, 36720, Note_on_c, 0, 76, 0
2, 36720, Note_on_c, 0, 75, 100
2, 36840, Note_on_c, 0, 75, 0
2, 36840, Note_on_c, 0, 76, 100
2, 36960, Note_on_c, 0, 76, 0
2, 36960, Note_on_c, 0, 78, 100
2, 37080, Note_on_c, 0, 78, 0
2, 37080, Note_on_c, 0, 75, 100
2, 37200, Note_on_c, 0, 75, 0
2, 37200, Note_on_c, 0, 71, 100
2, 37320, Note_on_c, 0, 71, 0
2, 37320, Note_on_c, 0, 75, 100
2, 37440, Note_on_c, 0, 75, 0
2, 37440, Note_on_c, 0, 76, 100
2, 37680, Note_on_c, 0, 76, 0
2, 37680, Note_on_c, 0, 76, 100
2, 38400, Note_on_c, 0, 76, 0
2, 38400, Note_on_c, 0, 76, 100
2, 39120, Note_on_c, 0, 76, 0
2, 39120, Note_on_c, 0, 76, 100
2, 39360, Note_on_c, 0, 76, 0
2, 39360, Note_on_c, 0, 75, 100
2, 39600, Note_on_c, 0, 75, 0
2, 39600, Note_on_c, 0, 76, 100
2, 40080, Note_on_c, 0, 76, 0
2, 40560, Note_on_c, 0, 76, 100
2, 40680, Note_on_c, 0, 76, 0
2, 40680, Note_on_c, 0, 72, 100
2, 40800, Note_on_c, 0, 72, 0
2, 40800, Note_on_c, 0, 69, 100
2, 40920, Note_on_c, 0, 69, 0
2, 40920, Note_on_c, 0, 72, 100
2, 41040, Note_on_c, 0, 72, 0
2, 41040, Note_on_c, 0, 74, 100
2, 42000, Note_on_c, 0, 74, 0
2, 42000, Note_on_c, 0, 72, 100
2, 42120, Note_on_c, 0, 72, 0
2, 42120, Note_on_c, 0, 71, 100
2, 42240, Note_on_c, 0, 71, 0
2, 42240, Note_on_c, 0, 72, 100
2, 42720, Note_on_c, 0, 72, 0
2, 42720, Note_on_c, 0, 74, 100
2, 42840, Note_on_c, 0, 74, 0
2, 42840, Note_on_c, 0, 72, 100
2, 42960, Note_on_c, 0, 72, 0
2, 42960, Note_on_c, 0, 71, 100
2, 43080, Note_on_c, 0, 71, 0
2, 43080, Note_on_c, 0, 69, 100
2, 43200, Note_on_c, 0, 69, 0
2, 43200, Note_on_c, 0, 74, 100
2, 43320, Note_on_c, 0, 74, 0
2, 43320, Note_on_c, 0, 72, 100
2, 43440, Note_on_c, 0, 72, 0
2, 43440, Note_on_c, 0, 74, 100
2, 43560, Note_on_c, 0, 74, 0
2, 43560, Note_on_c, 0, 71, 100
2, 43680, Note_on_c, 0, 71, 0
2, 43680, Note_on_c, 0, 67, 100
2, 43800, Note_on_c, 0, 67, 0
2, 43800, Note_on_c, 0, 71, 100
2, 43920, Note_on_c, 0, 71, 0
2, 43920, Note_on_c, 0, 76, 100
2, 44040, Note_on_c, 0, 76, 0
2, 44040, Note_on_c, 0, 74, 100
2, 44160, Note_on_c, 0, 74, 0
2, 44160, Note_on_c, 0, 76, 100
2, 44280, Note_on_c, 0, 76, 0
2, 44280, Note_on_c, 0, 72, 100
2, 44400, Note_on_c, 0, 72, 0
2, 44400, Note_on_c, 0, 69, 100
2, 44520, Note_on_c, 0, 69, 0
2, 44520, Note_on_c, 0, 72, 100
2, 44640, Note_on_c, 0, 72, 0
2, 44640, Note_on_c, 0, 78, 100
2, 44760, Note_on_c, 0, 78, 0
2, 44760, Note_on_c, 0, 76, 100
2, 44880, Note_on_c, 0, 76, 0
2, 44880, Note_on_c, 0, 78, 100
2, 45000, Note_on_c, 0, 78, 0
2, 45000, Note_on_c, 0, 81, 100
2, 45120, Note_on_c, 0, 81, 0
2, 45120, Note_on_c, 0, 74, 100
2, 45240, Note_on_c, 0, 74, 0
2, 45240, Note_on_c, 0, 78, 100
2, 45360, Note_on_c, 0, 78, 0
2, 45360, Note_on_c, 0, 79, 100
2, 45480, Note_on_c, 0, 79, 0
2, 45480, Note_on_c, 0, 78, 100
2, 45600, Note_on_c, 0, 78, 0
2, 45600, Note_on_c, 0, 79, 100
2, 45720, Note_on_c, 0, 79, 0
2, 45720, Note_on_c, 0, 74, 100
2, 45840, Note_on_c, 0, 74, 0
2, 45840, Note_on_c, 0, 71, 100
2, 45960, Note_on_c, 0, 71, 0
2, 45960, Note_on_c, 0, 67, 100
2, 46080, Note_on_c, 0, 67, 0
2, 46080, End_track
3, 0, Start_track
3, 0, MIDI_port, 0
3, 0, Title_t, "--------------------------------------"
3, 0, Program_c, 1, 6
3, 0, Control_c, 1, 7, 100
3, 0, Control_c, 1, 10, 64
3, 0, Note_on_c, 1, 71, 100
3, 120, Note_on_c, 1, 71, 0
3, 120, Note_on_c, 1, 69, 100
3, 240, Note_on_c, 1, 69, 0
3, 240, Note_on_c, 1, 71, 100
3, 360, Note_on_c, 1, 71, 0
3, 360, Note_on_c, 1, 67, 100
3, 480, Note_on_c, 1, 67, 0
3, 480, Note_on_c, 1, 62, 100
3, 600, Note_on_c, 1, 62, 0
3, 600, Note_on_c, 1, 67, 100
3, 720, Note_on_c, 1, 67, 0
3, 720, Note_on_c, 1, 69, 100
3, 840, Note_on_c, 1, 69, 0
3, 840, Note_on_c, 1, 67, 100
3, 960, Note_on_c, 1, 67, 0
3, 960, Note_on_c, 1, 69, 100
3, 1080, Note_on_c, 1, 69, 0
3, 1080, Note_on_c, 1, 66, 100
3, 1200, Note_on_c, 1, 66, 0
3, 1200, Note_on_c, 1, 62, 100
3, 1320, Note_on_c, 1, 62, 0
3, 1320, Note_on_c, 1, 66, 100
3, 1440, Note_on_c, 1, 66, 0
3, 1440, Note_on_c, 1, 67, 100
3, 1560, Note_on_c, 1, 67, 0
3, 1560, Note_on_c, 1, 66, 100
3, 1680, Note_on_c, 1, 66, 0
3, 1680, Note_on_c, 1, 67, 100
3, 1800, Note_on_c, 1, 67, 0
3, 1800, Note_on_c, 1, 71, 100
3, 1920, Note_on_c, 1, 71, 0
3, 1920, Note_on_c, 1, 69, 100
3, 2040, Note_on_c, 1, 69, 0
3, 2040, Note_on_c, 1, 67, 100
3, 2160, Note_on_c, 1, 67, 0
3, 2160, Note_on_c, 1, 66, 100
3, 2280, Note_on_c, 1, 66, 0
3, 2280, Note_on_c, 1, 64, 100
3, 2400, Note_on_c, 1, 64, 0
3, 2400, Note_on_c, 1, 66, 100
3, 2520, Note_on_c, 1, 66, 0
3, 2520, Note_on_c, 1, 67, 100
3, 2640, Note_on_c, 1, 67, 0
3, 2640, Note_on_c, 1, 69, 100
3, 2760, Note_on_c, 1, 69, 0
3, 2760, Note_on_c, 1, 66, 100
3, 2880, Note_on_c, 1, 66, 0
3, 2880, Note_on_c, 1, 67, 100
3, 3120, Note_on_c, 1, 67, 0
3, 3120, Note_on_c, 1, 67, 100
3, 3840, Note_on_c, 1, 67, 0
3, 3840, Note_on_c, 1, 67, 100
3, 4560, Note_on_c, 1, 67, 0
3, 4560, Note_on_c, 1, 67, 100
3, 4800, Note_on_c, 1, 67, 0
3, 4800, Note_on_c, 1, 66, 100
3, 5040, Note_on_c, 1, 66, 0
3, 5040, Note_on_c, 1, 67, 100
3, 5520, Note_on_c, 1, 67, 0
3, 6240, Note_on_c, 1, 74, 100
3, 6480, Note_on_c, 1, 74, 0
3, 6480, Note_on_c, 1, 73, 100
3, 6960, Note_on_c, 1, 73, 0
3, 6960, Note_on_c, 1, 72, 100
3, 7200, Note_on_c, 1, 72, 0
3, 7200, Note_on_c, 1, 71, 100
3, 7440, Note_on_c, 1, 71, 0
3, 7440, Note_on_c, 1, 64, 100
3, 7680, Note_on_c, 1, 64, 0
3, 7680, Note_on_c, 1, 68, 100
3, 7920, Note_on_c, 1, 68, 0
3, 7920, Note_on_c, 1, 69, 100
3, 8400, Note_on_c, 1, 69, 0
3, 8400, Note_on_c, 1, 67, 100
3, 8640, Note_on_c, 1, 67, 0
3, 8640, Note_on_c, 1, 66, 100
3, 9120, Note_on_c, 1, 66, 0
3, 9120, Note_on_c, 1, 69, 100
3, 9360, Note_on_c, 1, 69, 0
3, 9360, Note_on_c, 1, 62, 100
3, 9600, Note_on_c, 1, 62, 0
3, 9600, Note_on_c, 1, 67, 100
3, 9840, Note_on_c, 1, 67, 0
3, 9840, Note_on_c, 1, 71, 100
3, 10080, Note_on_c, 1, 71, 0
3, 10080, Note_on_c, 1, 73, 100
3, 10320, Note_on_c, 1, 73, 0
3, 10320, Note_on_c, 1, 69, 100
3, 10560, Note_on_c, 1, 69, 0
3, 10560, Note_on_c, 1, 67, 100
3, 11040, Note_on_c, 1, 67, 0
3, 11040, Note_on_c, 1, 66, 100
3, 11520, Note_on_c, 1, 66, 0
3, 11520, Note_on_c, 1, 71, 100
3, 11640, Note_on_c, 1, 71, 0
3, 11640, Note_on_c, 1, 69, 100
3, 11760, Note_on_c, 1, 69, 0
3, 11760, Note_on_c, 1, 71, 100
3, 11880, Note_on_c, 1, 71, 0
3, 11880, Note_on_c, 1, 67, 100
3, 12000, Note_on_c, 1, 67, 0
3, 12000, Note_on_c, 1, 62, 100
3, 12120, Note_on_c, 1, 62, 0
3, 12120, Note_on_c, 1, 67, 100
3, 12240, Note_on_c, 1, 67, 0
3, 12240, Note_on_c, 1, 69, 100
3, 12360, Note_on_c, 1, 69, 0
3, 12360, Note_on_c, 1, 67, 100
3, 12480, Note_on_c, 1, 67, 0
3, 12480, Note_on_c, 1, 69, 100
3, 12600, Note_on_c, 1, 69, 0
3, 12600, Note_on_c, 1, 66, 100
3, 12720, Note_on_c, 1, 66, 0
3, 12720, Note_on_c, 1, 62, 100
3, 12840, Note_on_c, 1, 62, 0
3, 12840, Note_on_c, 1, 66, 100
3, 12960, Note_on_c, 1, 66, 0
3, 12960, Note_on_c, 1, 67, 100
3, 13080, Note_on_c, 1, 67, 0
3, 13080, Note_on_c, 1, 66, 100
3, 13200, Note_on_c, 1, 66, 0
3, 13200, Note_on_c, 1, 67, 100
3, 13320, Note_on_c, 1, 67, 0
3, 13320, Note_on_c, 1, 71, 100
3, 13440, Note_on_c, 1, 71, 0
3, 13440, Note_on_c, 1, 69, 100
3, 13560, Note_on_c, 1, 69, 0
3, 13560, Note_on_c, 1, 67, 100
3, 13680, Note_on_c, 1, 67, 0
3, 13680, Note_on_c, 1, 66, 100
3, 13800, Note_on_c, 1, 66, 0
3, 13800, Note_on_c, 1, 64, 100
3, 13920, Note_on_c, 1, 64, 0
3, 13920, Note_on_c, 1, 66, 100
3, 14040, Note_on_c, 1, 66, 0
3, 14040, Note_on_c, 1, 67, 100
3, 14160, Note_on_c, 1, 67, 0
3, 14160, Note_on_c, 1, 69, 100
3, 14280, Note_on_c, 1, 69, 0
3, 14280, Note_on_c, 1, 66, 100
3, 14400, Note_on_c, 1, 66, 0
3, 14400, Note_on_c, 1, 67, 100
3, 14640, Note_on_c, 1, 67, 0
3, 14640, Note_on_c, 1, 67, 100
3, 15360, Note_on_c, 1, 67, 0
3, 15360, Note_on_c, 1, 67, 100
3, 16080, Note_on_c, 1, 67, 0
3, 16080, Note_on_c, 1, 67, 100
3, 16320, Note_on_c, 1, 67, 0
3, 16320, Note_on_c, 1, 66, 100
3, 16560, Note_on_c, 1, 66, 0
3, 16560, Note_on_c, 1, 67, 100
3, 17040, Note_on_c, 1, 67, 0
3, 17760, Note_on_c, 1, 74, 100
3, 18000, Note_on_c, 1, 74, 0
3, 18000, Note_on_c, 1, 73, 100
3, 18480, Note_on_c, 1, 73, 0
3, 18480, Note_on_c, 1, 72, 100
3, 18720, Note_on_c, 1, 72, 0
3, 18720, Note_on_c, 1, 71, 100
3, 18960, Note_on_c, 1, 71, 0
3, 18960, Note_on_c, 1, 64, 100
3, 19200, Note_on_c, 1, 64, 0
3, 19200, Note_on_c, 1, 68, 100
3, 19440, Note_on_c, 1, 68, 0
3, 19440, Note_on_c, 1, 69, 100
3, 19920, Note_on_c, 1, 69, 0
3, 19920, Note_on_c, 1, 67, 100
3, 20160, Note_on_c, 1, 67, 0
3, 20160, Note_on_c, 1, 66, 100
3, 20640, Note_on_c, 1, 66, 0
3, 20640, Note_on_c, 1, 69, 100
3, 20880, Note_on_c, 1, 69, 0
3, 20880, Note_on_c, 1, 62, 100
3, 21120, Note_on_c, 1, 62, 0
3, 21120, Note_on_c, 1, 67, 100
3, 21360, Note_on_c, 1, 67, 0
3, 21360, Note_on_c, 1, 71, 100
3, 21600, Note_on_c, 1, 71, 0
3, 21600, Note_on_c, 1, 73, 100
3, 21840, Note_on_c, 1, 73, 0
3, 21840, Note_on_c, 1, 69, 100
3, 22080, Note_on_c, 1, 69, 0
3, 22080, Note_on_c, 1, 67, 100
3, 22560, Note_on_c, 1, 67, 0
3, 22560, Note_on_c, 1, 66, 100
3, 23040, Note_on_c, 1, 66, 0
3, 23040, Note_on_c, 1, 62, 100
3, 23280, Note_on_c, 1, 62, 0
3, 23280, Note_on_c, 1, 62, 100
3, 24000, Note_on_c, 1, 62, 0
3, 24000, Note_on_c, 1, 59, 100
3, 24240, Note_on_c, 1, 59, 0
3, 24240, Note_on_c, 1, 67, 100
3, 24720, Note_on_c, 1, 67, 0
3, 24720, Note_on_c, 1, 67, 100
3, 24960, Note_on_c, 1, 67, 0
3, 24960, Note_on_c, 1, 72, 100
3, 25200, Note_on_c, 1, 72, 0
3, 25200, Note_on_c, 1, 66, 100
3, 25440, Note_on_c, 1, 66, 0
3, 25920, Note_on_c, 1, 71, 100
3, 26040, Note_on_c, 1, 71, 0
3, 26040, Note_on_c, 1, 69, 100
3, 26160, Note_on_c, 1, 69, 0
3, 26160, Note_on_c, 1, 71, 100
3, 26280, Note_on_c, 1, 71, 0
3, 26280, Note_on_c, 1, 67, 100
3, 26400, Note_on_c, 1, 67, 0
3, 26400, Note_on_c, 1, 64, 100
3, 26520, Note_on_c, 1, 64, 0
3, 26520, Note_on_c, 1, 67, 100
3, 26640, Note_on_c, 1, 67, 0
3, 26640, Note_on_c, 1, 72, 100
3, 26760, Note_on_c, 1, 72, 0
3, 26760, Note_on_c, 1, 71, 100
3, 26880, Note_on_c, 1, 71, 0
3, 26880, Note_on_c, 1, 72, 100
3, 27000, Note_on_c, 1, 72, 0
3, 27000, Note_on_c, 1, 69, 100
3, 27120, Note_on_c, 1, 69, 0
3, 27120, Note_on_c, 1, 66, 100
3, 27240, Note_on_c, 1, 66, 0
3, 27240, Note_on_c, 1, 69, 100
3, 27360, Note_on_c, 1, 69, 0
3, 27360, Note_on_c, 1, 71, 100
3, 27480, Note_on_c, 1, 71, 0
3, 27480, Note_on_c, 1, 69, 100
3, 27600, Note_on_c, 1, 69, 0
3, 27600, Note_on_c, 1, 71, 100
3, 27720, Note_on_c, 1, 71, 0
3, 27720, Note_on_c, 1, 72, 100
3, 27840, Note_on_c, 1, 72, 0
3, 27840, Note_on_c, 1, 71, 100
3, 27960, Note_on_c, 1, 71, 0
3, 27960, Note_on_c, 1, 69, 100
3, 28080, Note_on_c, 1, 69, 0
3, 28080, Note_on_c, 1, 67, 100
3, 28200, Note_on_c, 1, 67, 0
3, 28200, Note_on_c, 1, 66, 100
3, 28320, Note_on_c, 1, 66, 0
3, 28320, Note_on_c, 1, 67, 100
3, 28440, Note_on_c, 1, 67, 0
3, 28440, Note_on_c, 1, 69, 100
3, 28560, Note_on_c, 1, 69, 0
3, 28560, Note_on_c, 1, 71, 100
3, 28680, Note_on_c, 1, 71, 0
3, 28680, Note_on_c, 1, 67, 100
3, 28800, Note_on_c, 1, 67, 0
3, 28800, Note_on_c, 1, 64, 100
3, 29280, Note_on_c, 1, 64, 0
3, 29760, Note_on_c, 1, 62, 100
3, 29880, Note_on_c, 1, 62, 0
3, 29880, Note_on_c, 1, 67, 100
3, 30000, Note_on_c, 1, 67, 0
3, 30000, Note_on_c, 1, 71, 100
3, 30120, Note_on_c, 1, 71, 0
3, 30120, Note_on_c, 1, 67, 100
3, 30240, Note_on_c, 1, 67, 0
3, 30240, Note_on_c, 1, 64, 100
3, 30960, Note_on_c, 1, 64, 0
3, 30960, Note_on_c, 1, 62, 100
3, 31200, Note_on_c, 1, 62, 0
3, 31680, Note_on_c, 1, 55, 100
3, 31920, Note_on_c, 1, 55, 0
3, 31920, Note_on_c, 1, 55, 100
3, 32640, Note_on_c, 1, 55, 0
3, 32640, Note_on_c, 1, 48, 100
3, 32880, Note_on_c, 1, 48, 0
3, 32880, Note_on_c, 1, 60, 100
3, 33360, Note_on_c, 1, 60, 0
3, 33360, Note_on_c, 1, 57, 100
3, 33600, Note_on_c, 1, 57, 0
3, 33600, Note_on_c, 1, 60, 100
3, 34080, Note_on_c, 1, 60, 0
3, 34080, Note_on_c, 1, 59, 100
3, 34560, Note_on_c, 1, 59, 0
3, 34560, Note_on_c, 1, 62, 100
3, 34800, Note_on_c, 1, 62, 0
3, 34800, Note_on_c, 1, 62, 100
3, 35520, Note_on_c, 1, 62, 0
3, 35520, Note_on_c, 1, 59, 100
3, 35760, Note_on_c, 1, 59, 0
3, 35760, Note_on_c, 1, 67, 100
3, 36240, Note_on_c, 1, 67, 0
3, 36240, Note_on_c, 1, 67, 100
3, 36480, Note_on_c, 1, 67, 0
3, 36480, Note_on_c, 1, 72, 100
3, 36720, Note_on_c, 1, 72, 0
3, 36720, Note_on_c, 1, 66, 100
3, 36960, Note_on_c, 1, 66, 0
3, 37440, Note_on_c, 1, 71, 100
3, 37560, Note_on_c, 1, 71, 0
3, 37560, Note_on_c, 1, 69, 100
3, 37680, Note_on_c, 1, 69, 0
3, 37680, Note_on_c, 1, 71, 100
3, 37800, Note_on_c, 1, 71, 0
3, 37800, Note_on_c, 1, 67, 100
3, 37920, Note_on_c, 1, 67, 0
3, 37920, Note_on_c, 1, 64, 100
3, 38040, Note_on_c, 1, 64, 0
3, 38040, Note_on_c, 1, 67, 100
3, 38160, Note_on_c, 1, 67, 0
3, 38160, Note_on_c, 1, 72, 100
3, 38280, Note_on_c, 1, 72, 0
3, 38280, Note_on_c, 1, 71, 100
3, 38400, Note_on_c, 1, 71, 0
3, 38400, Note_on_c, 1, 72, 100
3, 38520, Note_on_c, 1, 72, 0
3, 38520, Note_on_c, 1, 69, 100
3, 38640, Note_on_c, 1, 69, 0
3, 38640, Note_on_c, 1, 66, 100
3, 38760, Note_on_c, 1, 66, 0
3, 38760, Note_on_c, 1, 69, 100
3, 38880, Note_on_c, 1, 69, 0
3, 38880, Note_on_c, 1, 71, 100
3, 39000, Note_on_c, 1, 71, 0
3, 39000, Note_on_c, 1, 69, 100
3, 39120, Note_on_c, 1, 69, 0
3, 39120, Note_on_c, 1, 71, 100
3, 39240, Note_on_c, 1, 71, 0
3, 39240, Note_on_c, 1, 72, 100
3, 39360, Note_on_c, 1, 72, 0
3, 39360, Note_on_c, 1, 71, 100
3, 39480, Note_on_c, 1, 71, 0
3, 39480, Note_on_c, 1, 69, 100
3, 39600, Note_on_c, 1, 69, 0
3, 39600, Note_on_c, 1, 67, 100
3, 39720, Note_on_c, 1, 67, 0
3, 39720, Note_on_c, 1, 66, 100
3, 39840, Note_on_c, 1, 66, 0
3, 39840, Note_on_c, 1, 67, 100
3, 39960, Note_on_c, 1, 67, 0
3, 39960, Note_on_c, 1, 69, 100
3, 40080, Note_on_c, 1, 69, 0
3, 40080, Note_on_c, 1, 71, 100
3, 40200, Note_on_c, 1, 71, 0
3, 40200, Note_on_c, 1, 67, 100
3, 40320, Note_on_c, 1, 67, 0
3, 40320, Note_on_c, 1, 64, 100
3, 40800, Note_on_c, 1, 64, 0
3, 41280, Note_on_c, 1, 62, 100
3, 41400, Note_on_c, 1, 62, 0
3, 41400, Note_on_c, 1, 67, 100
3, 41520, Note_on_c, 1, 67, 0
3, 41520, Note_on_c, 1, 71, 100
3, 41640, Note_on_c, 1, 71, 0
3, 41640, Note_on_c, 1, 67, 100
3, 41760, Note_on_c, 1, 67, 0
3, 41760, Note_on_c, 1, 64, 100
3, 42480, Note_on_c, 1, 64, 0
3, 42480, Note_on_c, 1, 62, 100
3, 42720, Note_on_c, 1, 62, 0
3, 43200, Note_on_c, 1, 55, 100
3, 43440, Note_on_c, 1, 55, 0
3, 43440, Note_on_c, 1, 55, 100
3, 44160, Note_on_c, 1, 55, 0
3, 44160, Note_on_c, 1, 48, 100
3, 44400, Note_on_c, 1, 48, 0
3, 44400, Note_on_c, 1, 60, 100
3, 44880, Note_on_c, 1, 60, 0
3, 44880, Note_on_c, 1, 57, 100
3, 45120, Note_on_c, 1, 57, 0
3, 45120, Note_on_c, 1, 60, 100
3, 45600, Note_on_c, 1, 60, 0
3, 45600, Note_on_c, 1, 59, 100
3, 46080, Note_on_c, 1, 59, 0
3, 46080, End_track
4, 0, Start_track
4, 0, MIDI_port, 0
4, 0, Title_t, "Johann Sebastian Bach  (1685-1750)"
4, 0, Program_c, 2, 6
4, 0, Control_c, 2, 7, 100
4, 0, Control_c, 2, 10, 54
4, 0, Note_on_c, 2, 55, 100
4, 240, Note_on_c, 2, 55, 0
4, 240, Note_on_c, 2, 43, 100
4, 480, Note_on_c, 2, 43, 0
4, 480, Note_on_c, 2, 55, 100
4, 720, Note_on_c, 2, 55, 0
4, 720, Note_on_c, 2, 54, 100
4, 960, Note_on_c, 2, 54, 0
4, 960, Note_on_c, 2, 42, 100
4, 1200, Note_on_c, 2, 42, 0
4, 1200, Note_on_c, 2, 54, 100
4, 1440, Note_on_c, 2, 54, 0
4, 1440, Note_on_c, 2, 52, 100
4, 1680, Note_on_c, 2, 52, 0
4, 1680, Note_on_c, 2, 40, 100
4, 1920, Note_on_c, 2, 40, 0
4, 1920, Note_on_c, 2, 52, 100
4, 2160, Note_on_c, 2, 52, 0
4, 2160, Note_on_c, 2, 50, 100
4, 2400, Note_on_c, 2, 50, 0
4, 2400, Note_on_c, 2, 38, 100
4, 2640, Note_on_c, 2, 38, 0
4, 2640, Note_on_c, 2, 48, 100
4, 2880, Note_on_c, 2, 48, 0
4, 2880, Note_on_c, 2, 47, 100
4, 3120, Note_on_c, 2, 47, 0
4, 3120, Note_on_c, 2, 59, 100
4, 3360, Note_on_c, 2, 59, 0
4, 3360, Note_on_c, 2, 55, 100
4, 3600, Note_on_c, 2, 55, 0
4, 3600, Note_on_c, 2, 60, 100
4, 3840, Note_on_c, 2, 60, 0
4, 3840, Note_on_c, 2, 48, 100
4, 4080, Note_on_c, 2, 48, 0
4, 4080, Note_on_c, 2, 60, 100
4, 4320, Note_on_c, 2, 60, 0
4, 4320, Note_on_c, 2, 59, 100
4, 4440, Note_on_c, 2, 59, 0
4, 4440, Note_on_c, 2, 57, 100
4, 4560, Note_on_c, 2, 57, 0
4, 4560, Note_on_c, 2, 55, 100
4, 4680, Note_on_c, 2, 55, 0
4, 4680, Note_on_c, 2, 57, 100
4, 4800, Note_on_c, 2, 57, 0
4, 4800, Note_on_c, 2, 59, 100
4, 5040, Note_on_c, 2, 59, 0
4, 5040, Note_on_c, 2, 55, 100
4, 5280, Note_on_c, 2, 55, 0
4, 5280, Note_on_c, 2, 43, 100
4, 5400, Note_on_c, 2, 43, 0
4, 5400, Note_on_c, 2, 50, 100
4, 5520, Note_on_c, 2, 50, 0
4, 5520, Note_on_c, 2, 55, 100
4, 5640, Note_on_c, 2, 55, 0
4, 5640, Note_on_c, 2, 57, 100
4, 5760, Note_on_c, 2, 57, 0
4, 5760, Note_on_c, 2, 59, 100
4, 5880, Note_on_c, 2, 59, 0
4, 5880, Note_on_c, 2, 57, 100
4, 6000, Note_on_c, 2, 57, 0
4, 6000, Note_on_c, 2, 59, 100
4, 6120, Note_on_c, 2, 59, 0
4, 6120, Note_on_c, 2, 55, 100
4, 6240, Note_on_c, 2, 55, 0
4, 6240, Note_on_c, 2, 52, 100
4, 6360, Note_on_c, 2, 52, 0
4, 6360, Note_on_c, 2, 55, 100
4, 6480, Note_on_c, 2, 55, 0
4, 6480, Note_on_c, 2, 57, 100
4, 6600, Note_on_c, 2, 57, 0
4, 6600, Note_on_c, 2, 55, 100
4, 6720, Note_on_c, 2, 55, 0
4, 6720, Note_on_c, 2, 57, 100
4, 6840, Note_on_c, 2, 57, 0
4, 6840, Note_on_c, 2, 54, 100
4, 6960, Note_on_c, 2, 54, 0
4, 6960, Note_on_c, 2, 50, 100
4, 7080, Note_on_c, 2, 50, 0
4, 7080, Note_on_c, 2, 54, 100
4, 7200, Note_on_c, 2, 54, 0
4, 7200, Note_on_c, 2, 55, 100
4, 7320, Note_on_c, 2, 55, 0
4, 7320, Note_on_c, 2, 54, 100
4, 7440, Note_on_c, 2, 54, 0
4, 7440, Note_on_c, 2, 55, 100
4, 7560, Note_on_c, 2, 55, 0
4, 7560, Note_on_c, 2, 52, 100
4, 7680, Note_on_c, 2, 52, 0
4, 7680, Note_on_c, 2, 47, 100
4, 7800, Note_on_c, 2, 47, 0
4, 7800, Note_on_c, 2, 52, 100
4, 7920, Note_on_c, 2, 52, 0
4, 7920, Note_on_c, 2, 55, 100
4, 8040, Note_on_c, 2, 55, 0
4, 8040, Note_on_c, 2, 54, 100
4, 8160, Note_on_c, 2, 54, 0
4, 8160, Note_on_c, 2, 55, 100
4, 8280, Note_on_c, 2, 55, 0
4, 8280, Note_on_c, 2, 52, 100
4, 8400, Note_on_c, 2, 52, 0
4, 8400, Note_on_c, 2, 49, 100
4, 8520, Note_on_c, 2, 49, 0
4, 8520, Note_on_c, 2, 52, 100
4, 8640, Note_on_c, 2, 52, 0
4, 8640, Note_on_c, 2, 57, 100
4, 8760, Note_on_c, 2, 57, 0
4, 8760, Note_on_c, 2, 55, 100
4, 8880, Note_on_c, 2, 55, 0
4, 8880, Note_on_c, 2, 57, 100
4, 9000, Note_on_c, 2, 57, 0
4, 9000, Note_on_c, 2, 54, 100
4, 9120, Note_on_c, 2, 54, 0
4, 9120, Note_on_c, 2, 50, 100
4, 9240, Note_on_c, 2, 50, 0
4, 9240, Note_on_c, 2, 54, 100
4, 9360, Note_on_c, 2, 54, 0
4, 9360, Note_on_c, 2, 59, 100
4, 9480, Note_on_c, 2, 59, 0
4, 9480, Note_on_c, 2, 57, 100
4, 9600, Note_on_c, 2, 57, 0
4, 9600, Note_on_c, 2, 59, 100
4, 9720, Note_on_c, 2, 59, 0
4, 9720, Note_on_c, 2, 55, 100
4, 9840, Note_on_c, 2, 55, 0
4, 9840, Note_on_c, 2, 52, 100
4, 9960, Note_on_c, 2, 52, 0
4, 9960, Note_on_c, 2, 55, 100
4, 10080, Note_on_c, 2, 55, 0
4, 10080, Note_on_c, 2, 57, 100
4, 10320, Note_on_c, 2, 57, 0
4, 10320, Note_on_c, 2, 45, 100
4, 10560, Note_on_c, 2, 45, 0
4, 10560, Note_on_c, 2, 57, 100
4, 10800, Note_on_c, 2, 57, 0
4, 10800, Note_on_c, 2, 62, 100
4, 10920, Note_on_c, 2, 62, 0
4, 10920, Note_on_c, 2, 61, 100
4, 11040, Note_on_c, 2, 61, 0
4, 11040, Note_on_c, 2, 62, 100
4, 11160, Note_on_c, 2, 62, 0
4, 11160, Note_on_c, 2, 57, 100
4, 11280, Note_on_c, 2, 57, 0
4, 11280, Note_on_c, 2, 54, 100
4, 11400, Note_on_c, 2, 54, 0
4, 11400, Note_on_c, 2, 50, 100
4, 11520, Note_on_c, 2, 50, 0
4, 11520, Note_on_c, 2, 55, 100
4, 11760, Note_on_c, 2, 55, 0
4, 11760, Note_on_c, 2, 43, 100
4, 12000, Note_on_c, 2, 43, 0
4, 12000, Note_on_c, 2, 55, 100
4, 12240, Note_on_c, 2, 55, 0
4, 12240, Note_on_c, 2, 54, 100
4, 12480, Note_on_c, 2, 54, 0
4, 12480, Note_on_c, 2, 42, 100
4, 12720, Note_on_c, 2, 42, 0
4, 12720, Note_on_c, 2, 54, 100
4, 12960, Note_on_c, 2, 54, 0
4, 12960, Note_on_c, 2, 52, 100
4, 13200, Note_on_c, 2, 52, 0
4, 13200, Note_on_c, 2, 40, 100
4, 13440, Note_on_c, 2, 40, 0
4, 13440, Note_on_c, 2, 52, 100
4, 13680, Note_on_c, 2, 52, 0
4, 13680, Note_on_c, 2, 50, 100
4, 13920, Note_on_c, 2, 50, 0
4, 13920, Note_on_c, 2, 38, 100
4, 14160, Note_on_c, 2, 38, 0
4, 14160, Note_on_c, 2, 48, 100
4, 14400, Note_on_c, 2, 48, 0
4, 14400, Note_on_c, 2, 47, 100
4, 14640, Note_on_c, 2, 47, 0
4, 14640, Note_on_c, 2, 59, 100
4, 14880, Note_on_c, 2, 59, 0
4, 14880, Note_on_c, 2, 55, 100
4, 15120, Note_on_c, 2, 55, 0
4, 15120, Note_on_c, 2, 60, 100
4, 15360, Note_on_c, 2, 60, 0
4, 15360, Note_on_c, 2, 48, 100
4, 15600, Note_on_c, 2, 48, 0
4, 15600, Note_on_c, 2, 60, 100
4, 15840, Note_on_c, 2, 60, 0
4, 15840, Note_on_c, 2, 59, 100
4, 15960, Note_on_c, 2, 59, 0
4, 15960, Note_on_c, 2, 57, 100
4, 16080, Note_on_c, 2, 57, 0
4, 16080, Note_on_c, 2, 55, 100
4, 16200, Note_on_c, 2, 55, 0
4, 16200, Note_on_c, 2, 57, 100
4, 16320, Note_on_c, 2, 57, 0
4, 16320, Note_on_c, 2, 59, 100
4, 16560, Note_on_c, 2, 59, 0
4, 16560, Note_on_c, 2, 55, 100
4, 16800, Note_on_c, 2, 55, 0
4, 16800, Note_on_c, 2, 43, 100
4, 16920, Note_on_c, 2, 43, 0
4, 16920, Note_on_c, 2, 50, 100
4, 17040, Note_on_c, 2, 50, 0
4, 17040, Note_on_c, 2, 55, 100
4, 17160, Note_on_c, 2, 55, 0
4, 17160, Note_on_c, 2, 57, 100
4, 17280, Note_on_c, 2, 57, 0
4, 17280, Note_on_c, 2, 59, 100
4, 17400, Note_on_c, 2, 59, 0
4, 17400, Note_on_c, 2, 57, 100
4, 17520, Note_on_c, 2, 57, 0
4, 17520, Note_on_c, 2, 59, 100
4, 17640, Note_on_c, 2, 59, 0
4, 17640, Note_on_c, 2, 55, 100
4, 17760, Note_on_c, 2, 55, 0
4, 17760, Note_on_c, 2, 52, 100
4, 17880, Note_on_c, 2, 52, 0
4, 17880, Note_on_c, 2, 55, 100
4, 18000, Note_on_c, 2, 55, 0
4, 18000, Note_on_c, 2, 57, 100
4, 18120, Note_on_c, 2, 57, 0
4, 18120, Note_on_c, 2, 55, 100
4, 18240, Note_on_c, 2, 55, 0
4, 18240, Note_on_c, 2, 57, 100
4, 18360, Note_on_c, 2, 57, 0
4, 18360, Note_on_c, 2, 54, 100
4, 18480, Note_on_c, 2, 54, 0
4, 18480, Note_on_c, 2, 50, 100
4, 18600, Note_on_c, 2, 50, 0
4, 18600, Note_on_c, 2, 54, 100
4, 18720, Note_on_c, 2, 54, 0
4, 18720, Note_on_c, 2, 55, 100
4, 18840, Note_on_c, 2, 55, 0
4, 18840, Note_on_c, 2, 54, 100
4, 18960, Note_on_c, 2, 54, 0
4, 18960, Note_on_c, 2, 55, 100
4, 19080, Note_on_c, 2, 55, 0
4, 19080, Note_on_c, 2, 52, 100
4, 19200, Note_on_c, 2, 52, 0
4, 19200, Note_on_c, 2, 47, 100
4, 19320, Note_on_c, 2, 47, 0
4, 19320, Note_on_c, 2, 52, 100
4, 19440, Note_on_c, 2, 52, 0
4, 19440, Note_on_c, 2, 55, 100
4, 19560, Note_on_c, 2, 55, 0
4, 19560, Note_on_c, 2, 54, 100
4, 19680, Note_on_c, 2, 54, 0
4, 19680, Note_on_c, 2, 55, 100
4, 19800, Note_on_c, 2, 55, 0
4, 19800, Note_on_c, 2, 52, 100
4, 19920, Note_on_c, 2, 52, 0
4, 19920, Note_on_c, 2, 49, 100
4, 20040, Note_on_c, 2, 49, 0
4, 20040, Note_on_c, 2, 52, 100
4, 20160, Note_on_c, 2, 52, 0
4, 20160, Note_on_c, 2, 57, 100
4, 20280, Note_on_c, 2, 57, 0
4, 20280, Note_on_c, 2, 55, 100
4, 20400, Note_on_c, 2, 55, 0
4, 20400, Note_on_c, 2, 57, 100
4, 20520, Note_on_c, 2, 57, 0
4, 20520, Note_on_c, 2, 54, 100
4, 20640, Note_on_c, 2, 54, 0
4, 20640, Note_on_c, 2, 50, 100
4, 20760, Note_on_c, 2, 50, 0
4, 20760, Note_on_c, 2, 54, 100
4, 20880, Note_on_c, 2, 54, 0
4, 20880, Note_on_c, 2, 59, 100
4, 21000, Note_on_c, 2, 59, 0
4, 21000, Note_on_c, 2, 57, 100
4, 21120, Note_on_c, 2, 57, 0
4, 21120, Note_on_c, 2, 59, 100
4, 21240, Note_on_c, 2, 59, 0
4, 21240, Note_on_c, 2, 55, 100
4, 21360, Note_on_c, 2, 55, 0
4, 21360, Note_on_c, 2, 52, 100
4, 21480, Note_on_c, 2, 52, 0
4, 21480, Note_on_c, 2, 55, 100
4, 21600, Note_on_c, 2, 55, 0
4, 21600, Note_on_c, 2, 57, 100
4, 21840, Note_on_c, 2, 57, 0
4, 21840, Note_on_c, 2, 45, 100
4, 22080, Note_on_c, 2, 45, 0
4, 22080, Note_on_c, 2, 57, 100
4, 22320, Note_on_c, 2, 57, 0
4, 22320, Note_on_c, 2, 62, 100
4, 22440, Note_on_c, 2, 62, 0
4, 22440, Note_on_c, 2, 61, 100
4, 22560, Note_on_c, 2, 61, 0
4, 22560, Note_on_c, 2, 62, 100
4, 22680, Note_on_c, 2, 62, 0
4, 22680, Note_on_c, 2, 57, 100
4, 22800, Note_on_c, 2, 57, 0
4, 22800, Note_on_c, 2, 54, 100
4, 22920, Note_on_c, 2, 54, 0
4, 22920, Note_on_c, 2, 50, 100
4, 23040, Note_on_c, 2, 50, 0
4, 23040, Note_on_c, 2, 62, 100
4, 23280, Note_on_c, 2, 62, 0
4, 23280, Note_on_c, 2, 50, 100
4, 23520, Note_on_c, 2, 50, 0
4, 23520, Note_on_c, 2, 60, 100
4, 23760, Note_on_c, 2, 60, 0
4, 23760, Note_on_c, 2, 59, 100
4, 24000, Note_on_c, 2, 59, 0
4, 24000, Note_on_c, 2, 55, 100
4, 24240, Note_on_c, 2, 55, 0
4, 24240, Note_on_c, 2, 59, 100
4, 24480, Note_on_c, 2, 59, 0
4, 24480, Note_on_c, 2, 60, 100
4, 24720, Note_on_c, 2, 60, 0
4, 24720, Note_on_c, 2, 59, 100
4, 24960, Note_on_c, 2, 59, 0
4, 24960, Note_on_c, 2, 57, 100
4, 25200, Note_on_c, 2, 57, 0
4, 25200, Note_on_c, 2, 59, 100
4, 25440, Note_on_c, 2, 59, 0
4, 25440, Note_on_c, 2, 57, 100
4, 25560, Note_on_c, 2, 57, 0
4, 25560, Note_on_c, 2, 55, 100
4, 25680, Note_on_c, 2, 55, 0
4, 25680, Note_on_c, 2, 57, 100
4, 25800, Note_on_c, 2, 57, 0
4, 25800, Note_on_c, 2, 54, 100
4, 25920, Note_on_c, 2, 54, 0
4, 25920, Note_on_c, 2, 55, 100
4, 26160, Note_on_c, 2, 55, 0
4, 26160, Note_on_c, 2, 52, 100
4, 26400, Note_on_c, 2, 52, 0
4, 26400, Note_on_c, 2, 55, 100
4, 26640, Note_on_c, 2, 55, 0
4, 26640, Note_on_c, 2, 57, 100
4, 26880, Note_on_c, 2, 57, 0
4, 26880, Note_on_c, 2, 45, 100
4, 27120, Note_on_c, 2, 45, 0
4, 27120, Note_on_c, 2, 57, 100
4, 27360, Note_on_c, 2, 57, 0
4, 27360, Note_on_c, 2, 55, 100
4, 27480, Note_on_c, 2, 55, 0
4, 27480, Note_on_c, 2, 54, 100
4, 27600, Note_on_c, 2, 54, 0
4, 27600, Note_on_c, 2, 55, 100
4, 27720, Note_on_c, 2, 55, 0
4, 27720, Note_on_c, 2, 57, 100
4, 27840, Note_on_c, 2, 57, 0
4, 27840, Note_on_c, 2, 59, 100
4, 28080, Note_on_c, 2, 59, 0
4, 28080, Note_on_c, 2, 52, 100
4, 28320, Note_on_c, 2, 52, 0
4, 28320, Note_on_c, 2, 64, 100
4, 28560, Note_on_c, 2, 64, 0
4, 28560, Note_on_c, 2, 62, 100
4, 28800, Note_on_c, 2, 62, 0
4, 28800, Note_on_c, 2, 60, 100
4, 28920, Note_on_c, 2, 60, 0
4, 28920, Note_on_c, 2, 59, 100
4, 29040, Note_on_c, 2, 59, 0
4, 29040, Note_on_c, 2, 60, 100
4, 29160, Note_on_c, 2, 60, 0
4, 29160, Note_on_c, 2, 57, 100
4, 29280, Note_on_c, 2, 57, 0
4, 29280, Note_on_c, 2, 54, 100
4, 29400, Note_on_c, 2, 54, 0
4, 29400, Note_on_c, 2, 57, 100
4, 29520, Note_on_c, 2, 57, 0
4, 29520, Note_on_c, 2, 59, 100
4, 29640, Note_on_c, 2, 59, 0
4, 29640, Note_on_c, 2, 57, 100
4, 29760, Note_on_c, 2, 57, 0
4, 29760, Note_on_c, 2, 59, 100
4, 29880, Note_on_c, 2, 59, 0
4, 29880, Note_on_c, 2, 55, 100
4, 30000, Note_on_c, 2, 55, 0
4, 30000, Note_on_c, 2, 52, 100
4, 30120, Note_on_c, 2, 52, 0
4, 30120, Note_on_c, 2, 55, 100
4, 30240, Note_on_c, 2, 55, 0
4, 30240, Note_on_c, 2, 57, 100
4, 30360, Note_on_c, 2, 57, 0
4, 30360, Note_on_c, 2, 55, 100
4, 30480, Note_on_c, 2, 55, 0
4, 30480, Note_on_c, 2, 57, 100
4, 30600, Note_on_c, 2, 57, 0
4, 30600, Note_on_c, 2, 60, 100
4, 30720, Note_on_c, 2, 60, 0
4, 30720, Note_on_c, 2, 52, 100
4, 30840, Note_on_c, 2, 52, 0
4, 30840, Note_on_c, 2, 55, 100
4, 30960, Note_on_c, 2, 55, 0
4, 30960, Note_on_c, 2, 54, 100
4, 31080, Note_on_c, 2, 54, 0
4, 31080, Note_on_c, 2, 52, 100
4, 31200, Note_on_c, 2, 52, 0
4, 31200, Note_on_c, 2, 54, 100
4, 31320, Note_on_c, 2, 54, 0
4, 31320, Note_on_c, 2, 57, 100
4, 31440, Note_on_c, 2, 57, 0
4, 31440, Note_on_c, 2, 50, 100
4, 31560, Note_on_c, 2, 50, 0
4, 31560, Note_on_c, 2, 54, 100
4, 31680, Note_on_c, 2, 54, 0
4, 31680, Note_on_c, 2, 47, 100
4, 31920, Note_on_c, 2, 47, 0
4, 31920, Note_on_c, 2, 43, 100
4, 32160, Note_on_c, 2, 43, 0
4, 32160, Note_on_c, 2, 47, 100
4, 32400, Note_on_c, 2, 47, 0
4, 32400, Note_on_c, 2, 48, 100
4, 32640, Note_on_c, 2, 48, 0
4, 32640, Note_on_c, 2, 45, 100
4, 32880, Note_on_c, 2, 45, 0
4, 32880, Note_on_c, 2, 48, 100
4, 33120, Note_on_c, 2, 48, 0
4, 33120, Note_on_c, 2, 50, 100
4, 33360, Note_on_c, 2, 50, 0
4, 33360, Note_on_c, 2, 48, 100
4, 33600, Note_on_c, 2, 48, 0
4, 33600, Note_on_c, 2, 50, 100
4, 33840, Note_on_c, 2, 50, 0
4, 33840, Note_on_c, 2, 55, 100
4, 34560, Note_on_c, 2, 55, 0
4, 34560, Note_on_c, 2, 62, 100
4, 34800, Note_on_c, 2, 62, 0
4, 34800, Note_on_c, 2, 50, 100
4, 35040, Note_on_c, 2, 50, 0
4, 35040, Note_on_c, 2, 60, 100
4, 35280, Note_on_c, 2, 60, 0
4, 35280, Note_on_c, 2, 59, 100
4, 35520, Note_on_c, 2, 59, 0
4, 35520, Note_on_c, 2, 55, 100
4, 35760, Note_on_c, 2, 55, 0
4, 35760, Note_on_c, 2, 59, 100
4, 36000, Note_on_c, 2, 59, 0
4, 36000, Note_on_c, 2, 60, 100
4, 36240, Note_on_c, 2, 60, 0
4, 36240, Note_on_c, 2, 59, 100
4, 36480, Note_on_c, 2, 59, 0
4, 36480, Note_on_c, 2, 57, 100
4, 36720, Note_on_c, 2, 57, 0
4, 36720, Note_on_c, 2, 59, 100
4, 36960, Note_on_c, 2, 59, 0
4, 36960, Note_on_c, 2, 57, 100
4, 37080, Note_on_c, 2, 57, 0
4, 37080, Note_on_c, 2, 55, 100
4, 37200, Note_on_c, 2, 55, 0
4, 37200, Note_on_c, 2, 57, 100
4, 37320, Note_on_c, 2, 57, 0
4, 37320, Note_on_c, 2, 54, 100
4, 37440, Note_on_c, 2, 54, 0
4, 37440, Note_on_c, 2, 55, 100
4, 37680, Note_on_c, 2, 55, 0
4, 37680, Note_on_c, 2, 52, 100
4, 37920, Note_on_c, 2, 52, 0
4, 37920, Note_on_c, 2, 55, 100
4, 38160, Note_on_c, 2, 55, 0
4, 38160, Note_on_c, 2, 57, 100
4, 38400, Note_on_c, 2, 57, 0
4, 38400, Note_on_c, 2, 45, 100
4, 38640, Note_on_c, 2, 45, 0
4, 38640, Note_on_c, 2, 57, 100
4, 38880, Note_on_c, 2, 57, 0
4, 38880, Note_on_c, 2, 55, 100
4, 39000, Note_on_c, 2, 55, 0
4, 39000, Note_on_c, 2, 54, 100
4, 39120, Note_on_c, 2, 54, 0
4, 39120, Note_on_c, 2, 55, 100
4, 39240, Note_on_c, 2, 55, 0
4, 39240, Note_on_c, 2, 57, 100
4, 39360, Note_on_c, 2, 57, 0
4, 39360, Note_on_c, 2, 59, 100
4, 39600, Note_on_c, 2, 59, 0
4, 39600, Note_on_c, 2, 52, 100
4, 39840, Note_on_c, 2, 52, 0
4, 39840, Note_on_c, 2, 64, 100
4, 40080, Note_on_c, 2, 64, 0
4, 40080, Note_on_c, 2, 62, 100
4, 40320, Note_on_c, 2, 62, 0
4, 40320, Note_on_c, 2, 60, 100
4, 40440, Note_on_c, 2, 60, 0
4, 40440, Note_on_c, 2, 59, 100
4, 40560, Note_on_c, 2, 59, 0
4, 40560, Note_on_c, 2, 60, 100
4, 40680, Note_on_c, 2, 60, 0
4, 40680, Note_on_c, 2, 57, 100
4, 40800, Note_on_c, 2, 57, 0
4, 40800, Note_on_c, 2, 54, 100
4, 40920, Note_on_c, 2, 54, 0
4, 40920, Note_on_c, 2, 57, 100
4, 41040, Note_on_c, 2, 57, 0
4, 41040, Note_on_c, 2, 59, 100
4, 41160, Note_on_c, 2, 59, 0
4, 41160, Note_on_c, 2, 57, 100
4, 41280, Note_on_c, 2, 57, 0
4, 41280, Note_on_c, 2, 59, 100
4, 41400, Note_on_c, 2, 59, 0
4, 41400, Note_on_c, 2, 55, 100
4, 41520, Note_on_c, 2, 55, 0
4, 41520, Note_on_c, 2, 52, 100
4, 41640, Note_on_c, 2, 52, 0
4, 41640, Note_on_c, 2, 55, 100
4, 41760, Note_on_c, 2, 55, 0
4, 41760, Note_on_c, 2, 57, 100
4, 41880, Note_on_c, 2, 57, 0
4, 41880, Note_on_c, 2, 55, 100
4, 42000, Note_on_c, 2, 55, 0
4, 42000, Note_on_c, 2, 57, 100
4, 42120, Note_on_c, 2, 57, 0
4, 42120, Note_on_c, 2, 60, 100
4, 42240, Note_on_c, 2, 60, 0
4, 42240, Note_on_c, 2, 52, 100
4, 42360, Note_on_c, 2, 52, 0
4, 42360, Note_on_c, 2, 55, 100
4, 42480, Note_on_c, 2, 55, 0
4, 42480, Note_on_c, 2, 54, 100
4, 42600, Note_on_c, 2, 54, 0
4, 42600, Note_on_c, 2, 52, 100
4, 42720, Note_on_c, 2, 52, 0
4, 42720, Note_on_c, 2, 54, 100
4, 42840, Note_on_c, 2, 54, 0
4, 42840, Note_on_c, 2, 57, 100
4, 42960, Note_on_c, 2, 57, 0
4, 42960, Note_on_c, 2, 50, 100
4, 43080, Note_on_c, 2, 50, 0
4, 43080, Note_on_c, 2, 54, 100
4, 43200, Note_on_c, 2, 54, 0
4, 43200, Note_on_c, 2, 47, 100
4, 43440, Note_on_c, 2, 47, 0
4, 43440, Note_on_c, 2, 43, 100
4, 43680, Note_on_c, 2, 43, 0
4, 43680, Note_on_c, 2, 47, 100
4, 43920, Note_on_c, 2, 47, 0
4, 43920, Note_on_c, 2, 48, 100
4, 44160, Note_on_c, 2, 48, 0
4, 44160, Note_on_c, 2, 45, 100
4, 44400, Note_on_c, 2, 45, 0
4, 44400, Note_on_c, 2, 48, 100
4, 44640, Note_on_c, 2, 48, 0
4, 44640, Note_on_c, 2, 50, 100
4, 44880, Note_on_c, 2, 50, 0
4, 44880, Note_on_c, 2, 48, 100
4, 45120, Note_on_c, 2, 48, 0
4, 45120, Note_on_c, 2, 50, 100
4, 45360, Note_on_c, 2, 50, 0
4, 45360, Note_on_c, 2, 55, 100
4, 46080, Note_on_c, 2, 55, 0
4, 46080, End_track
5, 0, Start_track
5, 0, MIDI_port, 0
5, 0, Title_t, "The Goldberg Variations - BWV 988"
5, 0, End_track
6, 0, Start_track
6, 0, MIDI_port, 0
6, 0, Title_t, "Aria with 30 Variations for Harpsichord with 2 Manuals"
6, 0, End_track
7, 0, Start_track
7, 0, MIDI_port, 0
7, 0, Title_t, "--------------------------------------"
7, 0, End_track
8, 0, Start_track
8, 0, MIDI_port, 0
8, 0, Title_t, "Variatio 19 a 1 Clav."
8, 0, End_track
9, 0, Start_track
9, 0, MIDI_port, 0
9, 0, Title_t, "--------------------------------------"
9, 0, End_track
10, 0, Start_track
10, 0, MIDI_port, 0
10, 0, Title_t, "Sequenced with Cakewalk Pro Audio by"
10, 0, End_track
11, 0, Start_track
11, 0, MIDI_port, 0
11, 0, Title_t, "David J. Grossman - dave@unpronounceable.com"
11, 0, End_track
12, 0, Start_track
12, 0, MIDI_port, 0
12, 0, Title_t, "This and other Bach MIDI files can be found at:"
12, 0, End_track
13, 0, Start_track
13, 0, MIDI_port, 0
13, 0, Title_t, "Dave's J.S. Bach Page"
13, 0, End_track
14, 0, Start_track
14, 0, MIDI_port, 0
14, 0, Title_t, "http://www.unpronounceable.com/bach"
14, 0, End_track
15, 0, Start_track
15, 0, MIDI_port, 0
15, 0, Title_t, "--------------------------------------"
15, 0, End_track
16, 0, Start_track
16, 0, MIDI_port, 0
16, 0, Title_t, "Original Filename: 988-v19.mid"
16, 0, End_track
17, 0, Start_track
17, 0, MIDI_port, 0
17, 0, Title_t, "Last Modified: March 14, 1997"
17, 0, End_track
0, 0, End_of_file
