0, 0, Header, 1, 17, 480
1, 0, Start_track
1, 0, Title_t, "untitled"
1, 0, SMPTE_offset, 96, 0, 3, 0, 0
1, 0, Time_signature, 2, 2, 24, 8
1, 0, Key_signature, -2, "major"
1, 0, Tempo, 2400000
1, 0, Marker_t, "A"
1, 15360, Marker_t, "A'"
1, 31680, Marker_t, "B"
1, 46080, Marker_t, "B'"
1, 46080, End_track
2, 0, Start_track
2, 0, MIDI_port, 0
2, 0, Title_t, "Solo Harpsichord with 2 Manuals"
2, 0, Program_c, 0, 6
2, 0, Control_c, 0, 7, 100
2, 0, Control_c, 0, 10, 74
2, 120, Note_on_c, 0, 67, 100
2, 240, Note_on_c, 0, 67, 0
2, 240, Note_on_c, 0, 67, 100
2, 360, Note_on_c, 0, 67, 0
2, 360, Note_on_c, 0, 65, 100
2, 480, Note_on_c, 0, 65, 0
2, 480, Note_on_c, 0, 65, 100
2, 600, Note_on_c, 0, 65, 0
2, 600, Note_on_c, 0, 63, 100
2, 720, Note_on_c, 0, 63, 0
2, 720, Note_on_c, 0, 63, 100
2, 840, Note_on_c, 0, 63, 0
2, 840, Note_on_c, 0, 62, 100
2, 960, Note_on_c, 0, 62, 0
2, 960, Note_on_c, 0, 62, 100
2, 1560, Note_on_c, 0, 62, 0
2, 1560, Note_on_c, 0, 60, 100
2, 1680, Note_on_c, 0, 60, 0
2, 1680, Note_on_c, 0, 58, 100
2, 1800, Note_on_c, 0, 58, 0
2, 1800, Note_on_c, 0, 57, 100
2, 1920, Note_on_c, 0, 57, 0
2, 1920, Note_on_c, 0, 55, 100
2, 2040, Note_on_c, 0, 55, 0
2, 2040, Note_on_c, 0, 61, 100
2, 2160, Note_on_c, 0, 61, 0
2, 2160, Note_on_c, 0, 61, 100
2, 2220, Note_on_c, 0, 61, 0
2, 2220, Note_on_c, 0, 62, 100
2, 2280, Note_on_c, 0, 62, 0
2, 2280, Note_on_c, 0, 61, 100
2, 2400, Note_on_c, 0, 61, 0
2, 2400, Note_on_c, 0, 67, 100
2, 3120, Note_on_c, 0, 67, 0
2, 3120, Note_on_c, 0, 66, 100
2, 3240, Note_on_c, 0, 66, 0
2, 3240, Note_on_c, 0, 64, 100
2, 3360, Note_on_c, 0, 64, 0
2, 3360, Note_on_c, 0, 66, 100
2, 3480, Note_on_c, 0, 66, 0
2, 3480, Note_on_c, 0, 67, 100
2, 3600, Note_on_c, 0, 67, 0
2, 3600, Note_on_c, 0, 67, 100
2, 3720, Note_on_c, 0, 67, 0
2, 3720, Note_on_c, 0, 69, 100
2, 3840, Note_on_c, 0, 69, 0
2, 3840, Note_on_c, 0, 70, 100
2, 4080, Note_on_c, 0, 70, 0
2, 4560, Note_on_c, 0, 69, 100
2, 4800, Note_on_c, 0, 69, 0
2, 4800, Note_on_c, 0, 62, 100
2, 4860, Note_on_c, 0, 62, 0
2, 4860, Note_on_c, 0, 60, 100
2, 4920, Note_on_c, 0, 60, 0
2, 4920, Note_on_c, 0, 63, 100
2, 5040, Note_on_c, 0, 63, 0
2, 5040, Note_on_c, 0, 62, 100
2, 5160, Note_on_c, 0, 62, 0
2, 5160, Note_on_c, 0, 60, 100
2, 5280, Note_on_c, 0, 60, 0
2, 5280, Note_on_c, 0, 58, 100
2, 5400, Note_on_c, 0, 58, 0
2, 5400, Note_on_c, 0, 57, 100
2, 5520, Note_on_c, 0, 57, 0
2, 5520, Note_on_c, 0, 55, 100
2, 5640, Note_on_c, 0, 55, 0
2, 5640, Note_on_c, 0, 57, 100
2, 5760, Note_on_c, 0, 57, 0
2, 5760, Note_on_c, 0, 58, 100
2, 5880, Note_on_c, 0, 58, 0
2, 5880, Note_on_c, 0, 62, 100
2, 6000, Note_on_c, 0, 62, 0
2, 6000, Note_on_c, 0, 67, 100
2, 6480, Note_on_c, 0, 67, 0
2, 6480, Note_on_c, 0, 66, 100
2, 6720, Note_on_c, 0, 66, 0
2, 6720, Note_on_c, 0, 67, 100
2, 6960, Note_on_c, 0, 67, 0
2, 7320, Note_on_c, 0, 66, 100
2, 7440, Note_on_c, 0, 66, 0
2, 7440, Note_on_c, 0, 67, 100
2, 7560, Note_on_c, 0, 67, 0
2, 7560, Note_on_c, 0, 69, 100
2, 7680, Note_on_c, 0, 69, 0
2, 7680, Note_on_c, 0, 70, 100
2, 7800, Note_on_c, 0, 70, 0
2, 7800, Note_on_c, 0, 69, 100
2, 7920, Note_on_c, 0, 69, 0
2, 7920, Note_on_c, 0, 69, 100
2, 8040, Note_on_c, 0, 69, 0
2, 8040, Note_on_c, 0, 67, 100
2, 8160, Note_on_c, 0, 67, 0
2, 8160, Note_on_c, 0, 67, 100
2, 8280, Note_on_c, 0, 67, 0
2, 8280, Note_on_c, 0, 66, 100
2, 8400, Note_on_c, 0, 66, 0
2, 8400, Note_on_c, 0, 66, 100
2, 8520, Note_on_c, 0, 66, 0
2, 8520, Note_on_c, 0, 67, 100
2, 8640, Note_on_c, 0, 67, 0
2, 8640, Note_on_c, 0, 67, 100
2, 8880, Note_on_c, 0, 67, 0
2, 9360, Note_on_c, 0, 60, 100
2, 9600, Note_on_c, 0, 60, 0
2, 9600, Note_on_c, 0, 58, 100
2, 9840, Note_on_c, 0, 58, 0
2, 9840, Note_on_c, 0, 67, 100
2, 9960, Note_on_c, 0, 67, 0
2, 9960, Note_on_c, 0, 65, 100
2, 10200, Note_on_c, 0, 65, 0
2, 10200, Note_on_c, 0, 64, 100
2, 10440, Note_on_c, 0, 64, 0
2, 10440, Note_on_c, 0, 62, 100
2, 10560, Note_on_c, 0, 62, 0
2, 10560, Note_on_c, 0, 61, 100
2, 10800, Note_on_c, 0, 61, 0
2, 10800, Note_on_c, 0, 70, 100
2, 11040, Note_on_c, 0, 70, 0
2, 11040, Note_on_c, 0, 69, 100
2, 11280, Note_on_c, 0, 69, 0
2, 11280, Note_on_c, 0, 61, 100
2, 11520, Note_on_c, 0, 61, 0
2, 11760, Note_on_c, 0, 62, 100
2, 11820, Note_on_c, 0, 62, 0
2, 11820, Note_on_c, 0, 61, 100
2, 11880, Note_on_c, 0, 61, 0
2, 11880, Note_on_c, 0, 62, 100
2, 12120, Note_on_c, 0, 62, 0
2, 12120, Note_on_c, 0, 62, 100
2, 12360, Note_on_c, 0, 62, 0
2, 12360, Note_on_c, 0, 62, 100
2, 12600, Note_on_c, 0, 62, 0
2, 12600, Note_on_c, 0, 64, 100
2, 12660, Note_on_c, 0, 64, 0
2, 12660, Note_on_c, 0, 62, 100
2, 12720, Note_on_c, 0, 62, 0
2, 12720, Note_on_c, 0, 61, 100
2, 12840, Note_on_c, 0, 61, 0
2, 12840, Note_on_c, 0, 59, 100
2, 12960, Note_on_c, 0, 59, 0
2, 12960, Note_on_c, 0, 61, 100
2, 13080, Note_on_c, 0, 61, 0
2, 13080, Note_on_c, 0, 64, 100
2, 13200, Note_on_c, 0, 64, 0
2, 13200, Note_on_c, 0, 69, 100
2, 13440, Note_on_c, 0, 69, 0
2, 13680, Note_on_c, 0, 62, 100
2, 14040, Note_on_c, 0, 62, 0
2, 14040, Note_on_c, 0, 64, 100
2, 14100, Note_on_c, 0, 64, 0
2, 14100, Note_on_c, 0, 65, 100
2, 14160, Note_on_c, 0, 65, 0
2, 14160, Note_on_c, 0, 64, 100
2, 14220, Note_on_c, 0, 64, 0
2, 14220, Note_on_c, 0, 62, 100
2, 14280, Note_on_c, 0, 62, 0
2, 14280, Note_on_c, 0, 64, 100
2, 14400, Note_on_c, 0, 64, 0
2, 14400, Note_on_c, 0, 62, 100
2, 14880, Note_on_c, 0, 62, 0
2, 15480, Note_on_c, 0, 67, 100
2, 15600, Note_on_c, 0, 67, 0
2, 15600, Note_on_c, 0, 67, 100
2, 15720, Note_on_c, 0, 67, 0
2, 15720, Note_on_c, 0, 65, 100
2, 15840, Note_on_c, 0, 65, 0
2, 15840, Note_on_c, 0, 65, 100
2, 15960, Note_on_c, 0, 65, 0
2, 15960, Note_on_c, 0, 63, 100
2, 16080, Note_on_c, 0, 63, 0
2, 16080, Note_on_c, 0, 63, 100
2, 16200, Note_on_c, 0, 63, 0
2, 16200, Note_on_c, 0, 62, 100
2, 16320, Note_on_c, 0, 62, 0
2, 16320, Note_on_c, 0, 62, 100
2, 16920, Note_on_c, 0, 62, 0
2, 16920, Note_on_c, 0, 60, 100
2, 17040, Note_on_c, 0, 60, 0
2, 17040, Note_on_c, 0, 58, 100
2, 17160, Note_on_c, 0, 58, 0
2, 17160, Note_on_c, 0, 57, 100
2, 17280, Note_on_c, 0, 57, 0
2, 17280, Note_on_c, 0, 55, 100
2, 17400, Note_on_c, 0, 55, 0
2, 17400, Note_on_c, 0, 61, 100
2, 17520, Note_on_c, 0, 61, 0
2, 17520, Note_on_c, 0, 61, 100
2, 17580, Note_on_c, 0, 61, 0
2, 17580, Note_on_c, 0, 62, 100
2, 17640, Note_on_c, 0, 62, 0
2, 17640, Note_on_c, 0, 61, 100
2, 17760, Note_on_c, 0, 61, 0
2, 17760, Note_on_c, 0, 67, 100
2, 18480, Note_on_c, 0, 67, 0
2, 18480, Note_on_c, 0, 66, 100
2, 18600, Note_on_c, 0, 66, 0
2, 18600, Note_on_c, 0, 64, 100
2, 18720, Note_on_c, 0, 64, 0
2, 18720, Note_on_c, 0, 66, 100
2, 18840, Note_on_c, 0, 66, 0
2, 18840, Note_on_c, 0, 67, 100
2, 18960, Note_on_c, 0, 67, 0
2, 18960, Note_on_c, 0, 67, 100
2, 19080, Note_on_c, 0, 67, 0
2, 19080, Note_on_c, 0, 69, 100
2, 19200, Note_on_c, 0, 69, 0
2, 19200, Note_on_c, 0, 70, 100
2, 19440, Note_on_c, 0, 70, 0
2, 19920, Note_on_c, 0, 69, 100
2, 20160, Note_on_c, 0, 69, 0
2, 20160, Note_on_c, 0, 62, 100
2, 20220, Note_on_c, 0, 62, 0
2, 20220, Note_on_c, 0, 60, 100
2, 20280, Note_on_c, 0, 60, 0
2, 20280, Note_on_c, 0, 63, 100
2, 20400, Note_on_c, 0, 63, 0
2, 20400, Note_on_c, 0, 62, 100
2, 20520, Note_on_c, 0, 62, 0
2, 20520, Note_on_c, 0, 60, 100
2, 20640, Note_on_c, 0, 60, 0
2, 20640, Note_on_c, 0, 58, 100
2, 20760, Note_on_c, 0, 58, 0
2, 20760, Note_on_c, 0, 57, 100
2, 20880, Note_on_c, 0, 57, 0
2, 20880, Note_on_c, 0, 55, 100
2, 21000, Note_on_c, 0, 55, 0
2, 21000, Note_on_c, 0, 57, 100
2, 21120, Note_on_c, 0, 57, 0
2, 21120, Note_on_c, 0, 58, 100
2, 21240, Note_on_c, 0, 58, 0
2, 21240, Note_on_c, 0, 62, 100
2, 21360, Note_on_c, 0, 62, 0
2, 21360, Note_on_c, 0, 67, 100
2, 21840, Note_on_c, 0, 67, 0
2, 21840, Note_on_c, 0, 66, 100
2, 22080, Note_on_c, 0, 66, 0
2, 22080, Note_on_c, 0, 67, 100
2, 22320, Note_on_c, 0, 67, 0
2, 22680, Note_on_c, 0, 66, 100
2, 22800, Note_on_c, 0, 66, 0
2, 22800, Note_on_c, 0, 67, 100
2, 22920, Note_on_c, 0, 67, 0
2, 22920, Note_on_c, 0, 69, 100
2, 23040, Note_on_c, 0, 69, 0
2, 23040, Note_on_c, 0, 70, 100
2, 23160, Note_on_c, 0, 70, 0
2, 23160, Note_on_c, 0, 69, 100
2, 23280, Note_on_c, 0, 69, 0
2, 23280, Note_on_c, 0, 69, 100
2, 23400, Note_on_c, 0, 69, 0
2, 23400, Note_on_c, 0, 67, 100
2, 23520, Note_on_c, 0, 67, 0
2, 23520, Note_on_c, 0, 67, 100
2, 23640, Note_on_c, 0, 67, 0
2, 23640, Note_on_c, 0, 66, 100
2, 23760, Note_on_c, 0, 66, 0
2, 23760, Note_on_c, 0, 66, 100
2, 23880, Note_on_c, 0, 66, 0
2, 23880, Note_on_c, 0, 67, 100
2, 24000, Note_on_c, 0, 67, 0
2, 24000, Note_on_c, 0, 67, 100
2, 24240, Note_on_c, 0, 67, 0
2, 24720, Note_on_c, 0, 60, 100
2, 24960, Note_on_c, 0, 60, 0
2, 24960, Note_on_c, 0, 58, 100
2, 25200, Note_on_c, 0, 58, 0
2, 25200, Note_on_c, 0, 67, 100
2, 25320, Note_on_c, 0, 67, 0
2, 25320, Note_on_c, 0, 65, 100
2, 25560, Note_on_c, 0, 65, 0
2, 25560, Note_on_c, 0, 64, 100
2, 25800, Note_on_c, 0, 64, 0
2, 25800, Note_on_c, 0, 62, 100
2, 25920, Note_on_c, 0, 62, 0
2, 25920, Note_on_c, 0, 61, 100
2, 26160, Note_on_c, 0, 61, 0
2, 26160, Note_on_c, 0, 70, 100
2, 26400, Note_on_c, 0, 70, 0
2, 26400, Note_on_c, 0, 69, 100
2, 26640, Note_on_c, 0, 69, 0
2, 26640, Note_on_c, 0, 61, 100
2, 26880, Note_on_c, 0, 61, 0
2, 27120, Note_on_c, 0, 62, 100
2, 27180, Note_on_c, 0, 62, 0
2, 27180, Note_on_c, 0, 61, 100
2, 27240, Note_on_c, 0, 61, 0
2, 27240, Note_on_c, 0, 62, 100
2, 27480, Note_on_c, 0, 62, 0
2, 27480, Note_on_c, 0, 62, 100
2, 27720, Note_on_c, 0, 62, 0
2, 27720, Note_on_c, 0, 62, 100
2, 27960, Note_on_c, 0, 62, 0
2, 27960, Note_on_c, 0, 64, 100
2, 28020, Note_on_c, 0, 64, 0
2, 28020, Note_on_c, 0, 62, 100
2, 28080, Note_on_c, 0, 62, 0
2, 28080, Note_on_c, 0, 61, 100
2, 28200, Note_on_c, 0, 61, 0
2, 28200, Note_on_c, 0, 59, 100
2, 28320, Note_on_c, 0, 59, 0
2, 28320, Note_on_c, 0, 61, 100
2, 28440, Note_on_c, 0, 61, 0
2, 28440, Note_on_c, 0, 64, 100
2, 28560, Note_on_c, 0, 64, 0
2, 28560, Note_on_c, 0, 69, 100
2, 28800, Note_on_c, 0, 69, 0
2, 29040, Note_on_c, 0, 62, 100
2, 29400, Note_on_c, 0, 62, 0
2, 29400, Note_on_c, 0, 64, 100
2, 29460, Note_on_c, 0, 64, 0
2, 29460, Note_on_c, 0, 65, 100
2, 29520, Note_on_c, 0, 65, 0
2, 29520, Note_on_c, 0, 64, 100
2, 29580, Note_on_c, 0, 64, 0
2, 29580, Note_on_c, 0, 62, 100
2, 29640, Note_on_c, 0, 62, 0
2, 29640, Note_on_c, 0, 64, 100
2, 29760, Note_on_c, 0, 64, 0
2, 29760, Note_on_c, 0, 62, 100
2, 30240, Note_on_c, 0, 62, 0
2, 30960, Note_on_c, 0, 66, 100
2, 31200, Note_on_c, 0, 66, 0
2, 31200, Note_on_c, 0, 67, 100
2, 31440, Note_on_c, 0, 67, 0
2, 31440, Note_on_c, 0, 69, 100
2, 31680, Note_on_c, 0, 69, 0
2, 31680, Note_on_c, 0, 62, 100
2, 31800, Note_on_c, 0, 62, 0
2, 31800, Note_on_c, 0, 74, 100
2, 32040, Note_on_c, 0, 74, 0
2, 32040, Note_on_c, 0, 72, 100
2, 32280, Note_on_c, 0, 72, 0
2, 32280, Note_on_c, 0, 70, 100
2, 32520, Note_on_c, 0, 70, 0
2, 32520, Note_on_c, 0, 69, 100
2, 32640, Note_on_c, 0, 69, 0
2, 32640, Note_on_c, 0, 70, 100
2, 32880, Note_on_c, 0, 70, 0
2, 32880, Note_on_c, 0, 63, 100
2, 33120, Note_on_c, 0, 63, 0
2, 33120, Note_on_c, 0, 62, 100
2, 33360, Note_on_c, 0, 62, 0
2, 33360, Note_on_c, 0, 67, 100
2, 33600, Note_on_c, 0, 67, 0
2, 33600, Note_on_c, 0, 65, 100
2, 33720, Note_on_c, 0, 65, 0
2, 33720, Note_on_c, 0, 67, 100
2, 33840, Note_on_c, 0, 67, 0
2, 33840, Note_on_c, 0, 68, 100
2, 34080, Note_on_c, 0, 68, 0
2, 34200, Note_on_c, 0, 70, 100
2, 34440, Note_on_c, 0, 70, 0
2, 34440, Note_on_c, 0, 68, 100
2, 34560, Note_on_c, 0, 68, 0
2, 34560, Note_on_c, 0, 67, 100
2, 34680, Note_on_c, 0, 67, 0
2, 34680, Note_on_c, 0, 70, 100
2, 34800, Note_on_c, 0, 70, 0
2, 34800, Note_on_c, 0, 75, 100
2, 34920, Note_on_c, 0, 75, 0
2, 34920, Note_on_c, 0, 79, 100
2, 35040, Note_on_c, 0, 79, 0
2, 35040, Note_on_c, 0, 77, 100
2, 35160, Note_on_c, 0, 77, 0
2, 35160, Note_on_c, 0, 75, 100
2, 35280, Note_on_c, 0, 75, 0
2, 35280, Note_on_c, 0, 74, 100
2, 35400, Note_on_c, 0, 74, 0
2, 35400, Note_on_c, 0, 72, 100
2, 35520, Note_on_c, 0, 72, 0
2, 35520, Note_on_c, 0, 70, 100
2, 36600, Note_on_c, 0, 70, 0
2, 36600, Note_on_c, 0, 68, 100
2, 36660, Note_on_c, 0, 68, 0
2, 36660, Note_on_c, 0, 67, 100
2, 36720, Note_on_c, 0, 67, 0
2, 36720, Note_on_c, 0, 65, 100
2, 36780, Note_on_c, 0, 65, 0
2, 36780, Note_on_c, 0, 67, 100
2, 36840, Note_on_c, 0, 67, 0
2, 36840, Note_on_c, 0, 68, 100
2, 36960, Note_on_c, 0, 68, 0
2, 36960, Note_on_c, 0, 67, 100
2, 37080, Note_on_c, 0, 67, 0
2, 37080, Note_on_c, 0, 65, 100
2, 37140, Note_on_c, 0, 65, 0
2, 37140, Note_on_c, 0, 63, 100
2, 37200, Note_on_c, 0, 63, 0
2, 37200, Note_on_c, 0, 65, 100
2, 37260, Note_on_c, 0, 65, 0
2, 37260, Note_on_c, 0, 63, 100
2, 37320, Note_on_c, 0, 63, 0
2, 37320, Note_on_c, 0, 62, 100
2, 37440, Note_on_c, 0, 62, 0
2, 37440, Note_on_c, 0, 63, 100
2, 37680, Note_on_c, 0, 63, 0
2, 38520, Note_on_c, 0, 68, 100
2, 38640, Note_on_c, 0, 68, 0
2, 38640, Note_on_c, 0, 68, 100
2, 38760, Note_on_c, 0, 68, 0
2, 38760, Note_on_c, 0, 67, 100
2, 38880, Note_on_c, 0, 67, 0
2, 38880, Note_on_c, 0, 66, 100
2, 39000, Note_on_c, 0, 66, 0
2, 39000, Note_on_c, 0, 65, 100
2, 39120, Note_on_c, 0, 65, 0
2, 39120, Note_on_c, 0, 74, 100
2, 39240, Note_on_c, 0, 74, 0
2, 39240, Note_on_c, 0, 65, 100
2, 39360, Note_on_c, 0, 65, 0
2, 39360, Note_on_c, 0, 63, 100
2, 39960, Note_on_c, 0, 63, 0
2, 39960, Note_on_c, 0, 62, 100
2, 40080, Note_on_c, 0, 62, 0
2, 40080, Note_on_c, 0, 60, 100
2, 40200, Note_on_c, 0, 60, 0
2, 40200, Note_on_c, 0, 58, 100
2, 40320, Note_on_c, 0, 58, 0
2, 40320, Note_on_c, 0, 57, 100
2, 40440, Note_on_c, 0, 57, 0
2, 40440, Note_on_c, 0, 58, 100
2, 40560, Note_on_c, 0, 58, 0
2, 40560, Note_on_c, 0, 60, 100
2, 40680, Note_on_c, 0, 60, 0
2, 40680, Note_on_c, 0, 62, 100
2, 40800, Note_on_c, 0, 62, 0
2, 40800, Note_on_c, 0, 63, 100
2, 40920, Note_on_c, 0, 63, 0
2, 40920, Note_on_c, 0, 62, 100
2, 41040, Note_on_c, 0, 62, 0
2, 41040, Note_on_c, 0, 63, 100
2, 41400, Note_on_c, 0, 63, 0
2, 41400, Note_on_c, 0, 60, 100
2, 41520, Note_on_c, 0, 60, 0
2, 41520, Note_on_c, 0, 62, 100
2, 41760, Note_on_c, 0, 62, 0
2, 42000, Note_on_c, 0, 69, 100
2, 42240, Note_on_c, 0, 69, 0
2, 42240, Note_on_c, 0, 74, 100
2, 42600, Note_on_c, 0, 74, 0
2, 42600, Note_on_c, 0, 72, 100
2, 42720, Note_on_c, 0, 72, 0
2, 42720, Note_on_c, 0, 70, 100
2, 42840, Note_on_c, 0, 70, 0
2, 42840, Note_on_c, 0, 69, 100
2, 42960, Note_on_c, 0, 69, 0
2, 42960, Note_on_c, 0, 67, 100
2, 43080, Note_on_c, 0, 67, 0
2, 43080, Note_on_c, 0, 65, 100
2, 43200, Note_on_c, 0, 65, 0
2, 43200, Note_on_c, 0, 63, 100
2, 43320, Note_on_c, 0, 63, 0
2, 43320, Note_on_c, 0, 62, 100
2, 43440, Note_on_c, 0, 62, 0
2, 43440, Note_on_c, 0, 60, 100
2, 43560, Note_on_c, 0, 60, 0
2, 43560, Note_on_c, 0, 63, 100
2, 43680, Note_on_c, 0, 63, 0
2, 43680, Note_on_c, 0, 62, 100
2, 43800, Note_on_c, 0, 62, 0
2, 43800, Note_on_c, 0, 64, 100
2, 43920, Note_on_c, 0, 64, 0
2, 43920, Note_on_c, 0, 66, 100
2, 43980, Note_on_c, 0, 66, 0
2, 43980, Note_on_c, 0, 67, 100
2, 44040, Note_on_c, 0, 67, 0
2, 44040, Note_on_c, 0, 57, 100
2, 44280, Note_on_c, 0, 57, 0
2, 44280, Note_on_c, 0, 63, 100
2, 44400, Note_on_c, 0, 63, 0
2, 44400, Note_on_c, 0, 62, 100
2, 44520, Note_on_c, 0, 62, 0
2, 44520, Note_on_c, 0, 60, 100
2, 44640, Note_on_c, 0, 60, 0
2, 44640, Note_on_c, 0, 58, 100
2, 44760, Note_on_c, 0, 58, 0
2, 44760, Note_on_c, 0, 57, 100
2, 44880, Note_on_c, 0, 57, 0
2, 44880, Note_on_c, 0, 55, 100
2, 45000, Note_on_c, 0, 55, 0
2, 45000, Note_on_c, 0, 54, 100
2, 45120, Note_on_c, 0, 54, 0
2, 45120, Note_on_c, 0, 55, 100
2, 45600, Note_on_c, 0, 55, 0
2, 46320, Note_on_c, 0, 66, 100
2, 46560, Note_on_c, 0, 66, 0
2, 46560, Note_on_c, 0, 67, 100
2, 46800, Note_on_c, 0, 67, 0
2, 46800, Note_on_c, 0, 69, 100
2, 47040, Note_on_c, 0, 69, 0
2, 47040, Note_on_c, 0, 62, 100
2, 47160, Note_on_c, 0, 62, 0
2, 47160, Note_on_c, 0, 74, 100
2, 47400, Note_on_c, 0, 74, 0
2, 47400, Note_on_c, 0, 72, 100
2, 47640, Note_on_c, 0, 72, 0
2, 47640, Note_on_c, 0, 70, 100
2, 47880, Note_on_c, 0, 70, 0
2, 47880, Note_on_c, 0, 69, 100
2, 48000, Note_on_c, 0, 69, 0
2, 48000, Note_on_c, 0, 70, 100
2, 48240, Note_on_c, 0, 70, 0
2, 48240, Note_on_c, 0, 63, 100
2, 48480, Note_on_c, 0, 63, 0
2, 48480, Note_on_c, 0, 62, 100
2, 48720, Note_on_c, 0, 62, 0
2, 48720, Note_on_c, 0, 67, 100
2, 48960, Note_on_c, 0, 67, 0
2, 48960, Note_on_c, 0, 65, 100
2, 49080, Note_on_c, 0, 65, 0
2, 49080, Note_on_c, 0, 67, 100
2, 49200, Note_on_c, 0, 67, 0
2, 49200, Note_on_c, 0, 68, 100
2, 49440, Note_on_c, 0, 68, 0
2, 49560, Note_on_c, 0, 70, 100
2, 49800, Note_on_c, 0, 70, 0
2, 49800, Note_on_c, 0, 68, 100
2, 49920, Note_on_c, 0, 68, 0
2, 49920, Note_on_c, 0, 67, 100
2, 50040, Note_on_c, 0, 67, 0
2, 50040, Note_on_c, 0, 70, 100
2, 50160, Note_on_c, 0, 70, 0
2, 50160, Note_on_c, 0, 75, 100
2, 50280, Note_on_c, 0, 75, 0
2, 50280, Note_on_c, 0, 79, 100
2, 50400, Note_on_c, 0, 79, 0
2, 50400, Note_on_c, 0, 77, 100
2, 50520, Note_on_c, 0, 77, 0
2, 50520, Note_on_c, 0, 75, 100
2, 50640, Note_on_c, 0, 75, 0
2, 50640, Note_on_c, 0, 74, 100
2, 50760, Note_on_c, 0, 74, 0
2, 50760, Note_on_c, 0, 72, 100
2, 50880, Note_on_c, 0, 72, 0
2, 50880, Note_on_c, 0, 70, 100
2, 51960, Note_on_c, 0, 70, 0
2, 51960, Note_on_c, 0, 68, 100
2, 52020, Note_on_c, 0, 68, 0
2, 52020, Note_on_c, 0, 67, 100
2, 52080, Note_on_c, 0, 67, 0
2, 52080, Note_on_c, 0, 65, 100
2, 52140, Note_on_c, 0, 65, 0
2, 52140, Note_on_c, 0, 67, 100
2, 52200, Note_on_c, 0, 67, 0
2, 52200, Note_on_c, 0, 68, 100
2, 52320, Note_on_c, 0, 68, 0
2, 52320, Note_on_c, 0, 67, 100
2, 52440, Note_on_c, 0, 67, 0
2, 52440, Note_on_c, 0, 65, 100
2, 52500, Note_on_c, 0, 65, 0
2, 52500, Note_on_c, 0, 63, 100
2, 52560, Note_on_c, 0, 63, 0
2, 52560, Note_on_c, 0, 65, 100
2, 52620, Note_on_c, 0, 65, 0
2, 52620, Note_on_c, 0, 63, 100
2, 52680, Note_on_c, 0, 63, 0
2, 52680, Note_on_c, 0, 62, 100
2, 52800, Note_on_c, 0, 62, 0
2, 52800, Note_on_c, 0, 63, 100
2, 53040, Note_on_c, 0, 63, 0
2, 53880, Note_on_c, 0, 68, 100
2, 54000, Note_on_c, 0, 68, 0
2, 54000, Note_on_c, 0, 68, 100
2, 54120, Note_on_c, 0, 68, 0
2, 54120, Note_on_c, 0, 67, 100
2, 54240, Note_on_c, 0, 67, 0
2, 54240, Note_on_c, 0, 66, 100
2, 54360, Note_on_c, 0, 66, 0
2, 54360, Note_on_c, 0, 65, 100
2, 54480, Note_on_c, 0, 65, 0
2, 54480, Note_on_c, 0, 74, 100
2, 54600, Note_on_c, 0, 74, 0
2, 54600, Note_on_c, 0, 65, 100
2, 54720, Note_on_c, 0, 65, 0
2, 54720, Note_on_c, 0, 63, 100
2, 55320, Note_on_c, 0, 63, 0
2, 55320, Note_on_c, 0, 62, 100
2, 55440, Note_on_c, 0, 62, 0
2, 55440, Note_on_c, 0, 60, 100
2, 55560, Note_on_c, 0, 60, 0
2, 55560, Note_on_c, 0, 58, 100
2, 55680, Note_on_c, 0, 58, 0
2, 55680, Note_on_c, 0, 57, 100
2, 55800, Note_on_c, 0, 57, 0
2, 55800, Note_on_c, 0, 58, 100
2, 55920, Note_on_c, 0, 58, 0
2, 55920, Note_on_c, 0, 60, 100
2, 56040, Note_on_c, 0, 60, 0
2, 56040, Note_on_c, 0, 62, 100
2, 56160, Note_on_c, 0, 62, 0
2, 56160, Note_on_c, 0, 63, 100
2, 56280, Note_on_c, 0, 63, 0
2, 56280, Note_on_c, 0, 62, 100
2, 56400, Note_on_c, 0, 62, 0
2, 56400, Note_on_c, 0, 63, 100
2, 56760, Note_on_c, 0, 63, 0
2, 56760, Note_on_c, 0, 60, 100
2, 56880, Note_on_c, 0, 60, 0
2, 56880, Note_on_c, 0, 62, 100
2, 57120, Note_on_c, 0, 62, 0
2, 57360, Note_on_c, 0, 69, 100
2, 57600, Note_on_c, 0, 69, 0
2, 57600, Note_on_c, 0, 74, 100
2, 57960, Note_on_c, 0, 74, 0
2, 57960, Note_on_c, 0, 72, 100
2, 58080, Note_on_c, 0, 72, 0
2, 58080, Note_on_c, 0, 70, 100
2, 58200, Note_on_c, 0, 70, 0
2, 58200, Note_on_c, 0, 69, 100
2, 58320, Note_on_c, 0, 69, 0
2, 58320, Note_on_c, 0, 67, 100
2, 58440, Note_on_c, 0, 67, 0
2, 58440, Note_on_c, 0, 65, 100
2, 58560, Note_on_c, 0, 65, 0
2, 58560, Note_on_c, 0, 63, 100
2, 58680, Note_on_c, 0, 63, 0
2, 58680, Note_on_c, 0, 62, 100
2, 58800, Note_on_c, 0, 62, 0
2, 58800, Note_on_c, 0, 60, 100
2, 58920, Note_on_c, 0, 60, 0
2, 58920, Note_on_c, 0, 63, 100
2, 59040, Note_on_c, 0, 63, 0
2, 59040, Note_on_c, 0, 62, 100
2, 59160, Note_on_c, 0, 62, 0
2, 59160, Note_on_c, 0, 64, 100
2, 59280, Note_on_c, 0, 64, 0
2, 59280, Note_on_c, 0, 66, 100
2, 59340, Note_on_c, 0, 66, 0
2, 59340, Note_on_c, 0, 67, 100
2, 59400, Note_on_c, 0, 67, 0
2, 59400, Note_on_c, 0, 57, 100
2, 59640, Note_on_c, 0, 57, 0
2, 59640, Note_on_c, 0, 63, 100
2, 59760, Note_on_c, 0, 63, 0
2, 59760, Note_on_c, 0, 62, 100
2, 59880, Note_on_c, 0, 62, 0
2, 59880, Note_on_c, 0, 60, 100
2, 60000, Note_on_c, 0, 60, 0
2, 60000, Note_on_c, 0, 58, 100
2, 60120, Note_on_c, 0, 58, 0
2, 60120, Note_on_c, 0, 57, 100
2, 60240, Note_on_c, 0, 57, 0
2, 60240, Note_on_c, 0, 55, 100
2, 60360, Note_on_c, 0, 55, 0
2, 60360, Note_on_c, 0, 54, 100
2, 60480, Note_on_c, 0, 54, 0
2, 60480, Note_on_c, 0, 55, 100
2, 60960, Note_on_c, 0, 55, 0
2, 60960, End_track
3, 0, Start_track
3, 0, MIDI_port, 0
3, 0, Title_t, "--------------------------------------"
3, 0, Program_c, 1, 6
3, 0, Control_c, 1, 7, 100
3, 0, Control_c, 1, 10, 64
3, 1080, Note_on_c, 1, 74, 100
3, 1200, Note_on_c, 1, 74, 0
3, 1200, Note_on_c, 1, 74, 100
3, 1320, Note_on_c, 1, 74, 0
3, 1320, Note_on_c, 1, 76, 100
3, 1440, Note_on_c, 1, 76, 0
3, 1440, Note_on_c, 1, 76, 100
3, 1560, Note_on_c, 1, 76, 0
3, 1560, Note_on_c, 1, 78, 100
3, 1680, Note_on_c, 1, 78, 0
3, 1680, Note_on_c, 1, 78, 100
3, 1800, Note_on_c, 1, 78, 0
3, 1800, Note_on_c, 1, 79, 100
3, 1920, Note_on_c, 1, 79, 0
3, 1920, Note_on_c, 1, 79, 100
3, 2520, Note_on_c, 1, 79, 0
3, 2520, Note_on_c, 1, 81, 100
3, 2640, Note_on_c, 1, 81, 0
3, 2640, Note_on_c, 1, 82, 100
3, 2760, Note_on_c, 1, 82, 0
3, 2760, Note_on_c, 1, 84, 100
3, 2880, Note_on_c, 1, 84, 0
3, 2880, Note_on_c, 1, 86, 100
3, 3000, Note_on_c, 1, 86, 0
3, 3000, Note_on_c, 1, 81, 100
3, 3120, Note_on_c, 1, 81, 0
3, 3120, Note_on_c, 1, 81, 100
3, 3180, Note_on_c, 1, 81, 0
3, 3180, Note_on_c, 1, 80, 100
3, 3240, Note_on_c, 1, 80, 0
3, 3240, Note_on_c, 1, 81, 100
3, 3360, Note_on_c, 1, 81, 0
3, 3360, Note_on_c, 1, 74, 100
3, 4080, Note_on_c, 1, 74, 0
3, 4080, Note_on_c, 1, 75, 100
3, 4200, Note_on_c, 1, 75, 0
3, 4200, Note_on_c, 1, 77, 100
3, 4320, Note_on_c, 1, 77, 0
3, 4320, Note_on_c, 1, 75, 100
3, 4440, Note_on_c, 1, 75, 0
3, 4440, Note_on_c, 1, 74, 100
3, 4560, Note_on_c, 1, 74, 0
3, 4560, Note_on_c, 1, 74, 100
3, 4680, Note_on_c, 1, 74, 0
3, 4680, Note_on_c, 1, 72, 100
3, 4800, Note_on_c, 1, 72, 0
3, 4800, Note_on_c, 1, 70, 100
3, 5040, Note_on_c, 1, 70, 0
3, 5520, Note_on_c, 1, 72, 100
3, 5760, Note_on_c, 1, 72, 0
3, 5760, Note_on_c, 1, 79, 100
3, 5820, Note_on_c, 1, 79, 0
3, 5820, Note_on_c, 1, 81, 100
3, 5880, Note_on_c, 1, 81, 0
3, 5880, Note_on_c, 1, 78, 100
3, 6000, Note_on_c, 1, 78, 0
3, 6000, Note_on_c, 1, 79, 100
3, 6120, Note_on_c, 1, 79, 0
3, 6120, Note_on_c, 1, 81, 100
3, 6240, Note_on_c, 1, 81, 0
3, 6240, Note_on_c, 1, 82, 100
3, 6360, Note_on_c, 1, 82, 0
3, 6360, Note_on_c, 1, 84, 100
3, 6480, Note_on_c, 1, 84, 0
3, 6480, Note_on_c, 1, 86, 100
3, 6600, Note_on_c, 1, 86, 0
3, 6600, Note_on_c, 1, 84, 100
3, 6720, Note_on_c, 1, 84, 0
3, 6720, Note_on_c, 1, 82, 100
3, 6840, Note_on_c, 1, 82, 0
3, 6840, Note_on_c, 1, 79, 100
3, 6960, Note_on_c, 1, 79, 0
3, 6960, Note_on_c, 1, 74, 100
3, 7440, Note_on_c, 1, 74, 0
3, 7440, Note_on_c, 1, 75, 100
3, 7680, Note_on_c, 1, 75, 0
3, 7680, Note_on_c, 1, 74, 100
3, 7920, Note_on_c, 1, 74, 0
3, 8280, Note_on_c, 1, 75, 100
3, 8400, Note_on_c, 1, 75, 0
3, 8400, Note_on_c, 1, 74, 100
3, 8520, Note_on_c, 1, 74, 0
3, 8520, Note_on_c, 1, 72, 100
3, 8640, Note_on_c, 1, 72, 0
3, 8640, Note_on_c, 1, 70, 100
3, 8760, Note_on_c, 1, 70, 0
3, 8760, Note_on_c, 1, 72, 100
3, 8880, Note_on_c, 1, 72, 0
3, 8880, Note_on_c, 1, 72, 100
3, 9000, Note_on_c, 1, 72, 0
3, 9000, Note_on_c, 1, 74, 100
3, 9120, Note_on_c, 1, 74, 0
3, 9120, Note_on_c, 1, 74, 100
3, 9240, Note_on_c, 1, 74, 0
3, 9240, Note_on_c, 1, 75, 100
3, 9360, Note_on_c, 1, 75, 0
3, 9360, Note_on_c, 1, 75, 100
3, 9480, Note_on_c, 1, 75, 0
3, 9480, Note_on_c, 1, 74, 100
3, 9600, Note_on_c, 1, 74, 0
3, 9600, Note_on_c, 1, 74, 100
3, 9840, Note_on_c, 1, 74, 0
3, 10320, Note_on_c, 1, 81, 100
3, 10560, Note_on_c, 1, 81, 0
3, 10560, Note_on_c, 1, 82, 100
3, 10800, Note_on_c, 1, 82, 0
3, 10800, Note_on_c, 1, 74, 100
3, 10920, Note_on_c, 1, 74, 0
3, 10920, Note_on_c, 1, 76, 100
3, 11160, Note_on_c, 1, 76, 0
3, 11160, Note_on_c, 1, 77, 100
3, 11400, Note_on_c, 1, 77, 0
3, 11400, Note_on_c, 1, 79, 100
3, 11520, Note_on_c, 1, 79, 0
3, 11520, Note_on_c, 1, 81, 100
3, 11760, Note_on_c, 1, 81, 0
3, 11760, Note_on_c, 1, 70, 100
3, 12000, Note_on_c, 1, 70, 0
3, 12000, Note_on_c, 1, 72, 100
3, 12240, Note_on_c, 1, 72, 0
3, 12240, Note_on_c, 1, 81, 100
3, 12480, Note_on_c, 1, 81, 0
3, 12720, Note_on_c, 1, 79, 100
3, 12780, Note_on_c, 1, 79, 0
3, 12780, Note_on_c, 1, 81, 100
3, 12840, Note_on_c, 1, 81, 0
3, 12840, Note_on_c, 1, 79, 100
3, 13080, Note_on_c, 1, 79, 0
3, 13080, Note_on_c, 1, 79, 100
3, 13320, Note_on_c, 1, 79, 0
3, 13320, Note_on_c, 1, 79, 100
3, 13560, Note_on_c, 1, 79, 0
3, 13560, Note_on_c, 1, 77, 100
3, 13620, Note_on_c, 1, 77, 0
3, 13620, Note_on_c, 1, 79, 100
3, 13680, Note_on_c, 1, 79, 0
3, 13680, Note_on_c, 1, 81, 100
3, 13800, Note_on_c, 1, 81, 0
3, 13800, Note_on_c, 1, 82, 100
3, 13920, Note_on_c, 1, 82, 0
3, 13920, Note_on_c, 1, 81, 100
3, 14040, Note_on_c, 1, 81, 0
3, 14040, Note_on_c, 1, 77, 100
3, 14160, Note_on_c, 1, 77, 0
3, 14160, Note_on_c, 1, 73, 100
3, 14400, Note_on_c, 1, 73, 0
3, 14640, Note_on_c, 1, 79, 100
3, 15000, Note_on_c, 1, 79, 0
3, 15000, Note_on_c, 1, 78, 100
3, 15060, Note_on_c, 1, 78, 0
3, 15060, Note_on_c, 1, 76, 100
3, 15120, Note_on_c, 1, 76, 0
3, 15120, Note_on_c, 1, 78, 100
3, 15360, Note_on_c, 1, 78, 0
3, 16440, Note_on_c, 1, 74, 100
3, 16560, Note_on_c, 1, 74, 0
3, 16560, Note_on_c, 1, 74, 100
3, 16680, Note_on_c, 1, 74, 0
3, 16680, Note_on_c, 1, 76, 100
3, 16800, Note_on_c, 1, 76, 0
3, 16800, Note_on_c, 1, 76, 100
3, 16920, Note_on_c, 1, 76, 0
3, 16920, Note_on_c, 1, 78, 100
3, 17040, Note_on_c, 1, 78, 0
3, 17040, Note_on_c, 1, 78, 100
3, 17160, Note_on_c, 1, 78, 0
3, 17160, Note_on_c, 1, 79, 100
3, 17280, Note_on_c, 1, 79, 0
3, 17280, Note_on_c, 1, 79, 100
3, 17880, Note_on_c, 1, 79, 0
3, 17880, Note_on_c, 1, 81, 100
3, 18000, Note_on_c, 1, 81, 0
3, 18000, Note_on_c, 1, 82, 100
3, 18120, Note_on_c, 1, 82, 0
3, 18120, Note_on_c, 1, 84, 100
3, 18240, Note_on_c, 1, 84, 0
3, 18240, Note_on_c, 1, 86, 100
3, 18360, Note_on_c, 1, 86, 0
3, 18360, Note_on_c, 1, 81, 100
3, 18480, Note_on_c, 1, 81, 0
3, 18480, Note_on_c, 1, 81, 100
3, 18540, Note_on_c, 1, 81, 0
3, 18540, Note_on_c, 1, 80, 100
3, 18600, Note_on_c, 1, 80, 0
3, 18600, Note_on_c, 1, 81, 100
3, 18720, Note_on_c, 1, 81, 0
3, 18720, Note_on_c, 1, 74, 100
3, 19440, Note_on_c, 1, 74, 0
3, 19440, Note_on_c, 1, 75, 100
3, 19560, Note_on_c, 1, 75, 0
3, 19560, Note_on_c, 1, 77, 100
3, 19680, Note_on_c, 1, 77, 0
3, 19680, Note_on_c, 1, 75, 100
3, 19800, Note_on_c, 1, 75, 0
3, 19800, Note_on_c, 1, 74, 100
3, 19920, Note_on_c, 1, 74, 0
3, 19920, Note_on_c, 1, 74, 100
3, 20040, Note_on_c, 1, 74, 0
3, 20040, Note_on_c, 1, 72, 100
3, 20160, Note_on_c, 1, 72, 0
3, 20160, Note_on_c, 1, 70, 100
3, 20400, Note_on_c, 1, 70, 0
3, 20880, Note_on_c, 1, 72, 100
3, 21120, Note_on_c, 1, 72, 0
3, 21120, Note_on_c, 1, 79, 100
3, 21180, Note_on_c, 1, 79, 0
3, 21180, Note_on_c, 1, 81, 100
3, 21240, Note_on_c, 1, 81, 0
3, 21240, Note_on_c, 1, 78, 100
3, 21360, Note_on_c, 1, 78, 0
3, 21360, Note_on_c, 1, 79, 100
3, 21480, Note_on_c, 1, 79, 0
3, 21480, Note_on_c, 1, 81, 100
3, 21600, Note_on_c, 1, 81, 0
3, 21600, Note_on_c, 1, 82, 100
3, 21720, Note_on_c, 1, 82, 0
3, 21720, Note_on_c, 1, 84, 100
3, 21840, Note_on_c, 1, 84, 0
3, 21840, Note_on_c, 1, 86, 100
3, 21960, Note_on_c, 1, 86, 0
3, 21960, Note_on_c, 1, 84, 100
3, 22080, Note_on_c, 1, 84, 0
3, 22080, Note_on_c, 1, 82, 100
3, 22200, Note_on_c, 1, 82, 0
3, 22200, Note_on_c, 1, 79, 100
3, 22320, Note_on_c, 1, 79, 0
3, 22320, Note_on_c, 1, 74, 100
3, 22800, Note_on_c, 1, 74, 0
3, 22800, Note_on_c, 1, 75, 100
3, 23040, Note_on_c, 1, 75, 0
3, 23040, Note_on_c, 1, 74, 100
3, 23280, Note_on_c, 1, 74, 0
3, 23640, Note_on_c, 1, 75, 100
3, 23760, Note_on_c, 1, 75, 0
3, 23760, Note_on_c, 1, 74, 100
3, 23880, Note_on_c, 1, 74, 0
3, 23880, Note_on_c, 1, 72, 100
3, 24000, Note_on_c, 1, 72, 0
3, 24000, Note_on_c, 1, 70, 100
3, 24120, Note_on_c, 1, 70, 0
3, 24120, Note_on_c, 1, 72, 100
3, 24240, Note_on_c, 1, 72, 0
3, 24240, Note_on_c, 1, 72, 100
3, 24360, Note_on_c, 1, 72, 0
3, 24360, Note_on_c, 1, 74, 100
3, 24480, Note_on_c, 1, 74, 0
3, 24480, Note_on_c, 1, 74, 100
3, 24600, Note_on_c, 1, 74, 0
3, 24600, Note_on_c, 1, 75, 100
3, 24720, Note_on_c, 1, 75, 0
3, 24720, Note_on_c, 1, 75, 100
3, 24840, Note_on_c, 1, 75, 0
3, 24840, Note_on_c, 1, 74, 100
3, 24960, Note_on_c, 1, 74, 0
3, 24960, Note_on_c, 1, 74, 100
3, 25200, Note_on_c, 1, 74, 0
3, 25680, Note_on_c, 1, 81, 100
3, 25920, Note_on_c, 1, 81, 0
3, 25920, Note_on_c, 1, 82, 100
3, 26160, Note_on_c, 1, 82, 0
3, 26160, Note_on_c, 1, 74, 100
3, 26280, Note_on_c, 1, 74, 0
3, 26280, Note_on_c, 1, 76, 100
3, 26520, Note_on_c, 1, 76, 0
3, 26520, Note_on_c, 1, 77, 100
3, 26760, Note_on_c, 1, 77, 0
3, 26760, Note_on_c, 1, 79, 100
3, 26880, Note_on_c, 1, 79, 0
3, 26880, Note_on_c, 1, 81, 100
3, 27120, Note_on_c, 1, 81, 0
3, 27120, Note_on_c, 1, 70, 100
3, 27360, Note_on_c, 1, 70, 0
3, 27360, Note_on_c, 1, 72, 100
3, 27600, Note_on_c, 1, 72, 0
3, 27600, Note_on_c, 1, 81, 100
3, 27840, Note_on_c, 1, 81, 0
3, 28080, Note_on_c, 1, 79, 100
3, 28140, Note_on_c, 1, 79, 0
3, 28140, Note_on_c, 1, 81, 100
3, 28200, Note_on_c, 1, 81, 0
3, 28200, Note_on_c, 1, 79, 100
3, 28440, Note_on_c, 1, 79, 0
3, 28440, Note_on_c, 1, 79, 100
3, 28680, Note_on_c, 1, 79, 0
3, 28680, Note_on_c, 1, 79, 100
3, 28920, Note_on_c, 1, 79, 0
3, 28920, Note_on_c, 1, 77, 100
3, 28980, Note_on_c, 1, 77, 0
3, 28980, Note_on_c, 1, 79, 100
3, 29040, Note_on_c, 1, 79, 0
3, 29040, Note_on_c, 1, 81, 100
3, 29160, Note_on_c, 1, 81, 0
3, 29160, Note_on_c, 1, 82, 100
3, 29280, Note_on_c, 1, 82, 0
3, 29280, Note_on_c, 1, 81, 100
3, 29400, Note_on_c, 1, 81, 0
3, 29400, Note_on_c, 1, 77, 100
3, 29520, Note_on_c, 1, 77, 0
3, 29520, Note_on_c, 1, 73, 100
3, 29760, Note_on_c, 1, 73, 0
3, 30000, Note_on_c, 1, 79, 100
3, 30360, Note_on_c, 1, 79, 0
3, 30360, Note_on_c, 1, 78, 100
3, 30420, Note_on_c, 1, 78, 0
3, 30420, Note_on_c, 1, 76, 100
3, 30480, Note_on_c, 1, 76, 0
3, 30480, Note_on_c, 1, 78, 100
3, 30720, Note_on_c, 1, 78, 0
3, 31920, Note_on_c, 1, 75, 100
3, 32160, Note_on_c, 1, 75, 0
3, 32160, Note_on_c, 1, 74, 100
3, 32400, Note_on_c, 1, 74, 0
3, 32400, Note_on_c, 1, 72, 100
3, 32640, Note_on_c, 1, 72, 0
3, 32640, Note_on_c, 1, 79, 100
3, 32760, Note_on_c, 1, 79, 0
3, 32760, Note_on_c, 1, 67, 100
3, 33000, Note_on_c, 1, 67, 0
3, 33000, Note_on_c, 1, 68, 100
3, 33240, Note_on_c, 1, 68, 0
3, 33240, Note_on_c, 1, 70, 100
3, 33480, Note_on_c, 1, 70, 0
3, 33480, Note_on_c, 1, 72, 100
3, 33600, Note_on_c, 1, 72, 0
3, 33600, Note_on_c, 1, 70, 100
3, 33840, Note_on_c, 1, 70, 0
3, 33840, Note_on_c, 1, 77, 100
3, 34080, Note_on_c, 1, 77, 0
3, 34080, Note_on_c, 1, 79, 100
3, 34320, Note_on_c, 1, 79, 0
3, 34320, Note_on_c, 1, 74, 100
3, 34560, Note_on_c, 1, 74, 0
3, 34560, Note_on_c, 1, 75, 100
3, 34680, Note_on_c, 1, 75, 0
3, 34680, Note_on_c, 1, 74, 100
3, 34800, Note_on_c, 1, 74, 0
3, 34800, Note_on_c, 1, 72, 100
3, 35040, Note_on_c, 1, 72, 0
3, 35160, Note_on_c, 1, 70, 100
3, 35400, Note_on_c, 1, 70, 0
3, 35400, Note_on_c, 1, 72, 100
3, 35520, Note_on_c, 1, 72, 0
3, 35520, Note_on_c, 1, 74, 100
3, 35640, Note_on_c, 1, 74, 0
3, 35640, Note_on_c, 1, 70, 100
3, 35760, Note_on_c, 1, 70, 0
3, 35760, Note_on_c, 1, 65, 100
3, 35880, Note_on_c, 1, 65, 0
3, 35880, Note_on_c, 1, 62, 100
3, 36000, Note_on_c, 1, 62, 0
3, 36000, Note_on_c, 1, 63, 100
3, 36120, Note_on_c, 1, 63, 0
3, 36120, Note_on_c, 1, 65, 100
3, 36240, Note_on_c, 1, 65, 0
3, 36240, Note_on_c, 1, 67, 100
3, 36360, Note_on_c, 1, 67, 0
3, 36360, Note_on_c, 1, 68, 100
3, 36480, Note_on_c, 1, 68, 0
3, 36480, Note_on_c, 1, 70, 100
3, 37560, Note_on_c, 1, 70, 0
3, 37560, Note_on_c, 1, 72, 100
3, 37620, Note_on_c, 1, 72, 0
3, 37620, Note_on_c, 1, 74, 100
3, 37680, Note_on_c, 1, 74, 0
3, 37680, Note_on_c, 1, 75, 100
3, 37740, Note_on_c, 1, 75, 0
3, 37740, Note_on_c, 1, 74, 100
3, 37800, Note_on_c, 1, 74, 0
3, 37800, Note_on_c, 1, 72, 100
3, 37920, Note_on_c, 1, 72, 0
3, 37920, Note_on_c, 1, 74, 100
3, 38040, Note_on_c, 1, 74, 0
3, 38040, Note_on_c, 1, 75, 100
3, 38100, Note_on_c, 1, 75, 0
3, 38100, Note_on_c, 1, 77, 100
3, 38160, Note_on_c, 1, 77, 0
3, 38160, Note_on_c, 1, 75, 100
3, 38220, Note_on_c, 1, 75, 0
3, 38220, Note_on_c, 1, 77, 100
3, 38280, Note_on_c, 1, 77, 0
3, 38280, Note_on_c, 1, 79, 100
3, 38400, Note_on_c, 1, 79, 0
3, 38400, Note_on_c, 1, 77, 100
3, 38640, Note_on_c, 1, 77, 0
3, 39480, Note_on_c, 1, 72, 100
3, 39600, Note_on_c, 1, 72, 0
3, 39600, Note_on_c, 1, 72, 100
3, 39720, Note_on_c, 1, 72, 0
3, 39720, Note_on_c, 1, 74, 100
3, 39840, Note_on_c, 1, 74, 0
3, 39840, Note_on_c, 1, 75, 100
3, 39960, Note_on_c, 1, 75, 0
3, 39960, Note_on_c, 1, 76, 100
3, 40080, Note_on_c, 1, 76, 0
3, 40080, Note_on_c, 1, 67, 100
3, 40200, Note_on_c, 1, 67, 0
3, 40200, Note_on_c, 1, 76, 100
3, 40320, Note_on_c, 1, 76, 0
3, 40320, Note_on_c, 1, 78, 100
3, 40920, Note_on_c, 1, 78, 0
3, 40920, Note_on_c, 1, 79, 100
3, 41040, Note_on_c, 1, 79, 0
3, 41040, Note_on_c, 1, 81, 100
3, 41160, Note_on_c, 1, 81, 0
3, 41160, Note_on_c, 1, 82, 100
3, 41280, Note_on_c, 1, 82, 0
3, 41280, Note_on_c, 1, 84, 100
3, 41400, Note_on_c, 1, 84, 0
3, 41400, Note_on_c, 1, 82, 100
3, 41520, Note_on_c, 1, 82, 0
3, 41520, Note_on_c, 1, 81, 100
3, 41640, Note_on_c, 1, 81, 0
3, 41640, Note_on_c, 1, 79, 100
3, 41760, Note_on_c, 1, 79, 0
3, 41760, Note_on_c, 1, 78, 100
3, 41880, Note_on_c, 1, 78, 0
3, 41880, Note_on_c, 1, 79, 100
3, 42000, Note_on_c, 1, 79, 0
3, 42000, Note_on_c, 1, 78, 100
3, 42360, Note_on_c, 1, 78, 0
3, 42360, Note_on_c, 1, 81, 100
3, 42480, Note_on_c, 1, 81, 0
3, 42480, Note_on_c, 1, 79, 100
3, 42720, Note_on_c, 1, 79, 0
3, 42960, Note_on_c, 1, 72, 100
3, 43200, Note_on_c, 1, 72, 0
3, 43200, Note_on_c, 1, 67, 100
3, 43560, Note_on_c, 1, 67, 0
3, 43560, Note_on_c, 1, 69, 100
3, 43680, Note_on_c, 1, 69, 0
3, 43680, Note_on_c, 1, 70, 100
3, 43800, Note_on_c, 1, 70, 0
3, 43800, Note_on_c, 1, 72, 100
3, 43920, Note_on_c, 1, 72, 0
3, 43920, Note_on_c, 1, 74, 100
3, 44040, Note_on_c, 1, 74, 0
3, 44040, Note_on_c, 1, 76, 100
3, 44160, Note_on_c, 1, 76, 0
3, 44160, Note_on_c, 1, 78, 100
3, 44280, Note_on_c, 1, 78, 0
3, 44280, Note_on_c, 1, 79, 100
3, 44400, Note_on_c, 1, 79, 0
3, 44400, Note_on_c, 1, 81, 100
3, 44520, Note_on_c, 1, 81, 0
3, 44520, Note_on_c, 1, 78, 100
3, 44640, Note_on_c, 1, 78, 0
3, 44640, Note_on_c, 1, 79, 100
3, 44760, Note_on_c, 1, 79, 0
3, 44760, Note_on_c, 1, 78, 100
3, 44880, Note_on_c, 1, 78, 0
3, 44880, Note_on_c, 1, 76, 100
3, 44940, Note_on_c, 1, 76, 0
3, 44940, Note_on_c, 1, 74, 100
3, 45000, Note_on_c, 1, 74, 0
3, 45000, Note_on_c, 1, 84, 100
3, 45240, Note_on_c, 1, 84, 0
3, 45240, Note_on_c, 1, 78, 100
3, 45360, Note_on_c, 1, 78, 0
3, 45360, Note_on_c, 1, 79, 100
3, 45480, Note_on_c, 1, 79, 0
3, 45480, Note_on_c, 1, 81, 100
3, 45600, Note_on_c, 1, 81, 0
3, 45600, Note_on_c, 1, 82, 100
3, 45720, Note_on_c, 1, 82, 0
3, 45720, Note_on_c, 1, 84, 100
3, 45840, Note_on_c, 1, 84, 0
3, 45840, Note_on_c, 1, 86, 100
3, 46080, Note_on_c, 1, 86, 0
3, 47280, Note_on_c, 1, 75, 100
3, 47520, Note_on_c, 1, 75, 0
3, 47520, Note_on_c, 1, 74, 100
3, 47760, Note_on_c, 1, 74, 0
3, 47760, Note_on_c, 1, 72, 100
3, 48000, Note_on_c, 1, 72, 0
3, 48000, Note_on_c, 1, 79, 100
3, 48120, Note_on_c, 1, 79, 0
3, 48120, Note_on_c, 1, 67, 100
3, 48360, Note_on_c, 1, 67, 0
3, 48360, Note_on_c, 1, 68, 100
3, 48600, Note_on_c, 1, 68, 0
3, 48600, Note_on_c, 1, 70, 100
3, 48840, Note_on_c, 1, 70, 0
3, 48840, Note_on_c, 1, 72, 100
3, 48960, Note_on_c, 1, 72, 0
3, 48960, Note_on_c, 1, 70, 100
3, 49200, Note_on_c, 1, 70, 0
3, 49200, Note_on_c, 1, 77, 100
3, 49440, Note_on_c, 1, 77, 0
3, 49440, Note_on_c, 1, 79, 100
3, 49680, Note_on_c, 1, 79, 0
3, 49680, Note_on_c, 1, 74, 100
3, 49920, Note_on_c, 1, 74, 0
3, 49920, Note_on_c, 1, 75, 100
3, 50040, Note_on_c, 1, 75, 0
3, 50040, Note_on_c, 1, 74, 100
3, 50160, Note_on_c, 1, 74, 0
3, 50160, Note_on_c, 1, 72, 100
3, 50400, Note_on_c, 1, 72, 0
3, 50520, Note_on_c, 1, 70, 100
3, 50760, Note_on_c, 1, 70, 0
3, 50760, Note_on_c, 1, 72, 100
3, 50880, Note_on_c, 1, 72, 0
3, 50880, Note_on_c, 1, 74, 100
3, 51000, Note_on_c, 1, 74, 0
3, 51000, Note_on_c, 1, 70, 100
3, 51120, Note_on_c, 1, 70, 0
3, 51120, Note_on_c, 1, 65, 100
3, 51240, Note_on_c, 1, 65, 0
3, 51240, Note_on_c, 1, 62, 100
3, 51360, Note_on_c, 1, 62, 0
3, 51360, Note_on_c, 1, 63, 100
3, 51480, Note_on_c, 1, 63, 0
3, 51480, Note_on_c, 1, 65, 100
3, 51600, Note_on_c, 1, 65, 0
3, 51600, Note_on_c, 1, 67, 100
3, 51720, Note_on_c, 1, 67, 0
3, 51720, Note_on_c, 1, 68, 100
3, 51840, Note_on_c, 1, 68, 0
3, 51840, Note_on_c, 1, 70, 100
3, 52920, Note_on_c, 1, 70, 0
3, 52920, Note_on_c, 1, 72, 100
3, 52980, Note_on_c, 1, 72, 0
3, 52980, Note_on_c, 1, 74, 100
3, 53040, Note_on_c, 1, 74, 0
3, 53040, Note_on_c, 1, 75, 100
3, 53100, Note_on_c, 1, 75, 0
3, 53100, Note_on_c, 1, 74, 100
3, 53160, Note_on_c, 1, 74, 0
3, 53160, Note_on_c, 1, 72, 100
3, 53280, Note_on_c, 1, 72, 0
3, 53280, Note_on_c, 1, 74, 100
3, 53400, Note_on_c, 1, 74, 0
3, 53400, Note_on_c, 1, 75, 100
3, 53460, Note_on_c, 1, 75, 0
3, 53460, Note_on_c, 1, 77, 100
3, 53520, Note_on_c, 1, 77, 0
3, 53520, Note_on_c, 1, 75, 100
3, 53580, Note_on_c, 1, 75, 0
3, 53580, Note_on_c, 1, 77, 100
3, 53640, Note_on_c, 1, 77, 0
3, 53640, Note_on_c, 1, 79, 100
3, 53760, Note_on_c, 1, 79, 0
3, 53760, Note_on_c, 1, 77, 100
3, 54000, Note_on_c, 1, 77, 0
3, 54840, Note_on_c, 1, 72, 100
3, 54960, Note_on_c, 1, 72, 0
3, 54960, Note_on_c, 1, 72, 100
3, 55080, Note_on_c, 1, 72, 0
3, 55080, Note_on_c, 1, 74, 100
3, 55200, Note_on_c, 1, 74, 0
3, 55200, Note_on_c, 1, 75, 100
3, 55320, Note_on_c, 1, 75, 0
3, 55320, Note_on_c, 1, 76, 100
3, 55440, Note_on_c, 1, 76, 0
3, 55440, Note_on_c, 1, 67, 100
3, 55560, Note_on_c, 1, 67, 0
3, 55560, Note_on_c, 1, 76, 100
3, 55680, Note_on_c, 1, 76, 0
3, 55680, Note_on_c, 1, 78, 100
3, 56280, Note_on_c, 1, 78, 0
3, 56280, Note_on_c, 1, 79, 100
3, 56400, Note_on_c, 1, 79, 0
3, 56400, Note_on_c, 1, 81, 100
3, 56520, Note_on_c, 1, 81, 0
3, 56520, Note_on_c, 1, 82, 100
3, 56640, Note_on_c, 1, 82, 0
3, 56640, Note_on_c, 1, 84, 100
3, 56760, Note_on_c, 1, 84, 0
3, 56760, Note_on_c, 1, 82, 100
3, 56880, Note_on_c, 1, 82, 0
3, 56880, Note_on_c, 1, 81, 100
3, 57000, Note_on_c, 1, 81, 0
3, 57000, Note_on_c, 1, 79, 100
3, 57120, Note_on_c, 1, 79, 0
3, 57120, Note_on_c, 1, 78, 100
3, 57240, Note_on_c, 1, 78, 0
3, 57240, Note_on_c, 1, 79, 100
3, 57360, Note_on_c, 1, 79, 0
3, 57360, Note_on_c, 1, 78, 100
3, 57720, Note_on_c, 1, 78, 0
3, 57720, Note_on_c, 1, 81, 100
3, 57840, Note_on_c, 1, 81, 0
3, 57840, Note_on_c, 1, 79, 100
3, 58080, Note_on_c, 1, 79, 0
3, 58320, Note_on_c, 1, 72, 100
3, 58560, Note_on_c, 1, 72, 0
3, 58560, Note_on_c, 1, 67, 100
3, 58920, Note_on_c, 1, 67, 0
3, 58920, Note_on_c, 1, 69, 100
3, 59040, Note_on_c, 1, 69, 0
3, 59040, Note_on_c, 1, 70, 100
3, 59160, Note_on_c, 1, 70, 0
3, 59160, Note_on_c, 1, 72, 100
3, 59280, Note_on_c, 1, 72, 0
3, 59280, Note_on_c, 1, 74, 100
3, 59400, Note_on_c, 1, 74, 0
3, 59400, Note_on_c, 1, 76, 100
3, 59520, Note_on_c, 1, 76, 0
3, 59520, Note_on_c, 1, 78, 100
3, 59640, Note_on_c, 1, 78, 0
3, 59640, Note_on_c, 1, 79, 100
3, 59760, Note_on_c, 1, 79, 0
3, 59760, Note_on_c, 1, 81, 100
3, 59880, Note_on_c, 1, 81, 0
3, 59880, Note_on_c, 1, 78, 100
3, 60000, Note_on_c, 1, 78, 0
3, 60000, Note_on_c, 1, 79, 100
3, 60120, Note_on_c, 1, 79, 0
3, 60120, Note_on_c, 1, 78, 100
3, 60240, Note_on_c, 1, 78, 0
3, 60240, Note_on_c, 1, 76, 100
3, 60300, Note_on_c, 1, 76, 0
3, 60300, Note_on_c, 1, 74, 100
3, 60360, Note_on_c, 1, 74, 0
3, 60360, Note_on_c, 1, 84, 100
3, 60600, Note_on_c, 1, 84, 0
3, 60600, Note_on_c, 1, 78, 100
3, 60720, Note_on_c, 1, 78, 0
3, 60720, Note_on_c, 1, 79, 100
3, 60840, Note_on_c, 1, 79, 0
3, 60840, Note_on_c, 1, 81, 100
3, 60960, Note_on_c, 1, 81, 0
3, 60960, Note_on_c, 1, 82, 100
3, 61080, Note_on_c, 1, 82, 0
3, 61080, Note_on_c, 1, 84, 100
3, 61200, Note_on_c, 1, 84, 0
3, 61200, Note_on_c, 1, 86, 100
3, 61440, Note_on_c, 1, 86, 0
3, 61440, End_track
4, 0, Start_track
4, 0, MIDI_port, 0
4, 0, Title_t, "Johann Sebastian Bach  (1685-1750)"
4, 0, Program_c, 2, 6
4, 0, Control_c, 2, 7, 100
4, 0, Control_c, 2, 10, 54
4, 0, Note_on_c, 2, 55, 100
4, 240, Note_on_c, 2, 55, 0
4, 240, Note_on_c, 2, 43, 100
4, 480, Note_on_c, 2, 43, 0
4, 720, Note_on_c, 2, 55, 100
4, 1080, Note_on_c, 2, 55, 0
4, 1080, Note_on_c, 2, 54, 100
4, 1140, Note_on_c, 2, 54, 0
4, 1140, Note_on_c, 2, 52, 100
4, 1200, Note_on_c, 2, 52, 0
4, 1200, Note_on_c, 2, 54, 100
4, 1440, Note_on_c, 2, 54, 0
4, 1680, Note_on_c, 2, 50, 100
4, 1920, Note_on_c, 2, 50, 0
4, 1920, Note_on_c, 2, 51, 100
4, 2160, Note_on_c, 2, 51, 0
4, 2160, Note_on_c, 2, 52, 100
4, 2400, Note_on_c, 2, 52, 0
4, 2640, Note_on_c, 2, 63, 100
4, 2880, Note_on_c, 2, 63, 0
4, 2880, Note_on_c, 2, 62, 100
4, 3000, Note_on_c, 2, 62, 0
4, 3000, Note_on_c, 2, 61, 100
4, 3120, Note_on_c, 2, 61, 0
4, 3120, Note_on_c, 2, 62, 100
4, 3360, Note_on_c, 2, 62, 0
4, 3480, Note_on_c, 2, 60, 100
4, 3600, Note_on_c, 2, 60, 0
4, 3600, Note_on_c, 2, 58, 100
4, 3720, Note_on_c, 2, 58, 0
4, 3720, Note_on_c, 2, 57, 100
4, 3840, Note_on_c, 2, 57, 0
4, 3840, Note_on_c, 2, 55, 100
4, 3900, Note_on_c, 2, 55, 0
4, 3900, Note_on_c, 2, 54, 100
4, 3960, Note_on_c, 2, 54, 0
4, 3960, Note_on_c, 2, 55, 100
4, 4080, Note_on_c, 2, 55, 0
4, 4080, Note_on_c, 2, 48, 100
4, 4200, Note_on_c, 2, 48, 0
4, 4200, Note_on_c, 2, 55, 100
4, 4320, Note_on_c, 2, 55, 0
4, 4320, Note_on_c, 2, 60, 100
4, 4440, Note_on_c, 2, 60, 0
4, 4440, Note_on_c, 2, 54, 100
4, 4560, Note_on_c, 2, 54, 0
4, 4560, Note_on_c, 2, 54, 100
4, 4680, Note_on_c, 2, 54, 0
4, 4680, Note_on_c, 2, 55, 100
4, 4800, Note_on_c, 2, 55, 0
4, 4800, Note_on_c, 2, 55, 100
4, 4920, Note_on_c, 2, 55, 0
4, 4920, Note_on_c, 2, 54, 100
4, 5040, Note_on_c, 2, 54, 0
4, 5040, Note_on_c, 2, 55, 100
4, 5160, Note_on_c, 2, 55, 0
4, 5160, Note_on_c, 2, 57, 100
4, 5280, Note_on_c, 2, 57, 0
4, 5280, Note_on_c, 2, 50, 100
4, 5520, Note_on_c, 2, 50, 0
4, 5520, Note_on_c, 2, 51, 100
4, 5760, Note_on_c, 2, 51, 0
4, 5760, Note_on_c, 2, 46, 100
4, 6000, Note_on_c, 2, 46, 0
4, 6000, Note_on_c, 2, 58, 100
4, 6120, Note_on_c, 2, 58, 0
4, 6120, Note_on_c, 2, 60, 100
4, 6240, Note_on_c, 2, 60, 0
4, 6240, Note_on_c, 2, 62, 100
4, 6480, Note_on_c, 2, 62, 0
4, 6480, Note_on_c, 2, 62, 100
4, 6720, Note_on_c, 2, 62, 0
4, 6720, Note_on_c, 2, 55, 100
4, 6960, Note_on_c, 2, 55, 0
4, 6960, Note_on_c, 2, 46, 100
4, 7020, Note_on_c, 2, 46, 0
4, 7020, Note_on_c, 2, 48, 100
4, 7080, Note_on_c, 2, 48, 0
4, 7080, Note_on_c, 2, 50, 100
4, 7140, Note_on_c, 2, 50, 0
4, 7140, Note_on_c, 2, 46, 100
4, 7200, Note_on_c, 2, 46, 0
4, 7200, Note_on_c, 2, 43, 100
4, 7440, Note_on_c, 2, 43, 0
4, 7800, Note_on_c, 2, 54, 100
4, 7920, Note_on_c, 2, 54, 0
4, 7920, Note_on_c, 2, 55, 100
4, 8040, Note_on_c, 2, 55, 0
4, 8040, Note_on_c, 2, 57, 100
4, 8160, Note_on_c, 2, 57, 0
4, 8160, Note_on_c, 2, 58, 100
4, 8400, Note_on_c, 2, 58, 0
4, 8400, Note_on_c, 2, 57, 100
4, 8640, Note_on_c, 2, 57, 0
4, 8640, Note_on_c, 2, 55, 100
4, 8760, Note_on_c, 2, 55, 0
4, 8760, Note_on_c, 2, 54, 100
4, 9000, Note_on_c, 2, 54, 0
4, 9000, Note_on_c, 2, 52, 100
4, 9120, Note_on_c, 2, 52, 0
4, 9120, Note_on_c, 2, 54, 100
4, 9180, Note_on_c, 2, 54, 0
4, 9180, Note_on_c, 2, 57, 100
4, 9240, Note_on_c, 2, 57, 0
4, 9240, Note_on_c, 2, 55, 100
4, 9480, Note_on_c, 2, 55, 0
4, 9480, Note_on_c, 2, 54, 100
4, 9600, Note_on_c, 2, 54, 0
4, 9600, Note_on_c, 2, 55, 100
4, 9720, Note_on_c, 2, 55, 0
4, 9720, Note_on_c, 2, 57, 100
4, 9840, Note_on_c, 2, 57, 0
4, 9840, Note_on_c, 2, 58, 100
4, 9960, Note_on_c, 2, 58, 0
4, 9960, Note_on_c, 2, 57, 100
4, 10080, Note_on_c, 2, 57, 0
4, 10080, Note_on_c, 2, 55, 100
4, 10140, Note_on_c, 2, 55, 0
4, 10140, Note_on_c, 2, 57, 100
4, 10200, Note_on_c, 2, 57, 0
4, 10200, Note_on_c, 2, 55, 100
4, 10320, Note_on_c, 2, 55, 0
4, 10320, Note_on_c, 2, 53, 100
4, 10380, Note_on_c, 2, 53, 0
4, 10380, Note_on_c, 2, 55, 100
4, 10440, Note_on_c, 2, 55, 0
4, 10440, Note_on_c, 2, 53, 100
4, 10560, Note_on_c, 2, 53, 0
4, 10560, Note_on_c, 2, 52, 100
4, 10680, Note_on_c, 2, 52, 0
4, 10680, Note_on_c, 2, 53, 100
4, 10800, Note_on_c, 2, 53, 0
4, 10800, Note_on_c, 2, 55, 100
4, 10920, Note_on_c, 2, 55, 0
4, 10920, Note_on_c, 2, 52, 100
4, 11040, Note_on_c, 2, 52, 0
4, 11040, Note_on_c, 2, 49, 100
4, 11160, Note_on_c, 2, 49, 0
4, 11160, Note_on_c, 2, 50, 100
4, 11280, Note_on_c, 2, 50, 0
4, 11280, Note_on_c, 2, 52, 100
4, 11400, Note_on_c, 2, 52, 0
4, 11400, Note_on_c, 2, 49, 100
4, 11520, Note_on_c, 2, 49, 0
4, 11520, Note_on_c, 2, 53, 100
4, 11580, Note_on_c, 2, 53, 0
4, 11580, Note_on_c, 2, 52, 100
4, 11640, Note_on_c, 2, 52, 0
4, 11640, Note_on_c, 2, 50, 100
4, 11760, Note_on_c, 2, 50, 0
4, 11760, Note_on_c, 2, 55, 100
4, 12240, Note_on_c, 2, 55, 0
4, 12240, Note_on_c, 2, 54, 100
4, 12480, Note_on_c, 2, 54, 0
4, 12480, Note_on_c, 2, 58, 100
4, 12720, Note_on_c, 2, 58, 0
4, 12720, Note_on_c, 2, 52, 100
4, 12960, Note_on_c, 2, 52, 0
4, 12960, Note_on_c, 2, 57, 100
4, 13200, Note_on_c, 2, 57, 0
4, 13200, Note_on_c, 2, 49, 100
4, 13440, Note_on_c, 2, 49, 0
4, 13440, Note_on_c, 2, 50, 100
4, 13680, Note_on_c, 2, 50, 0
4, 13680, Note_on_c, 2, 53, 100
4, 13800, Note_on_c, 2, 53, 0
4, 13800, Note_on_c, 2, 52, 100
4, 13920, Note_on_c, 2, 52, 0
4, 13920, Note_on_c, 2, 53, 100
4, 14160, Note_on_c, 2, 53, 0
4, 14160, Note_on_c, 2, 57, 100
4, 14400, Note_on_c, 2, 57, 0
4, 14400, Note_on_c, 2, 62, 100
4, 14520, Note_on_c, 2, 62, 0
4, 14520, Note_on_c, 2, 60, 100
4, 14580, Note_on_c, 2, 60, 0
4, 14580, Note_on_c, 2, 58, 100
4, 14640, Note_on_c, 2, 58, 0
4, 14640, Note_on_c, 2, 57, 100
4, 14700, Note_on_c, 2, 57, 0
4, 14700, Note_on_c, 2, 55, 100
4, 14760, Note_on_c, 2, 55, 0
4, 14760, Note_on_c, 2, 57, 100
4, 14880, Note_on_c, 2, 57, 0
4, 14880, Note_on_c, 2, 50, 100
4, 15360, Note_on_c, 2, 50, 0
4, 15360, Note_on_c, 2, 55, 100
4, 15600, Note_on_c, 2, 55, 0
4, 15600, Note_on_c, 2, 43, 100
4, 15840, Note_on_c, 2, 43, 0
4, 16080, Note_on_c, 2, 55, 100
4, 16440, Note_on_c, 2, 55, 0
4, 16440, Note_on_c, 2, 54, 100
4, 16500, Note_on_c, 2, 54, 0
4, 16500, Note_on_c, 2, 52, 100
4, 16560, Note_on_c, 2, 52, 0
4, 16560, Note_on_c, 2, 54, 100
4, 16800, Note_on_c, 2, 54, 0
4, 17040, Note_on_c, 2, 50, 100
4, 17280, Note_on_c, 2, 50, 0
4, 17280, Note_on_c, 2, 51, 100
4, 17520, Note_on_c, 2, 51, 0
4, 17520, Note_on_c, 2, 52, 100
4, 17760, Note_on_c, 2, 52, 0
4, 18000, Note_on_c, 2, 63, 100
4, 18240, Note_on_c, 2, 63, 0
4, 18240, Note_on_c, 2, 62, 100
4, 18360, Note_on_c, 2, 62, 0
4, 18360, Note_on_c, 2, 61, 100
4, 18480, Note_on_c, 2, 61, 0
4, 18480, Note_on_c, 2, 62, 100
4, 18720, Note_on_c, 2, 62, 0
4, 18840, Note_on_c, 2, 60, 100
4, 18960, Note_on_c, 2, 60, 0
4, 18960, Note_on_c, 2, 58, 100
4, 19080, Note_on_c, 2, 58, 0
4, 19080, Note_on_c, 2, 57, 100
4, 19200, Note_on_c, 2, 57, 0
4, 19200, Note_on_c, 2, 55, 100
4, 19260, Note_on_c, 2, 55, 0
4, 19260, Note_on_c, 2, 54, 100
4, 19320, Note_on_c, 2, 54, 0
4, 19320, Note_on_c, 2, 55, 100
4, 19440, Note_on_c, 2, 55, 0
4, 19440, Note_on_c, 2, 48, 100
4, 19560, Note_on_c, 2, 48, 0
4, 19560, Note_on_c, 2, 55, 100
4, 19680, Note_on_c, 2, 55, 0
4, 19680, Note_on_c, 2, 60, 100
4, 19800, Note_on_c, 2, 60, 0
4, 19800, Note_on_c, 2, 54, 100
4, 19920, Note_on_c, 2, 54, 0
4, 19920, Note_on_c, 2, 54, 100
4, 20040, Note_on_c, 2, 54, 0
4, 20040, Note_on_c, 2, 55, 100
4, 20160, Note_on_c, 2, 55, 0
4, 20160, Note_on_c, 2, 55, 100
4, 20280, Note_on_c, 2, 55, 0
4, 20280, Note_on_c, 2, 54, 100
4, 20400, Note_on_c, 2, 54, 0
4, 20400, Note_on_c, 2, 55, 100
4, 20520, Note_on_c, 2, 55, 0
4, 20520, Note_on_c, 2, 57, 100
4, 20640, Note_on_c, 2, 57, 0
4, 20640, Note_on_c, 2, 50, 100
4, 20880, Note_on_c, 2, 50, 0
4, 20880, Note_on_c, 2, 51, 100
4, 21120, Note_on_c, 2, 51, 0
4, 21120, Note_on_c, 2, 46, 100
4, 21360, Note_on_c, 2, 46, 0
4, 21360, Note_on_c, 2, 58, 100
4, 21480, Note_on_c, 2, 58, 0
4, 21480, Note_on_c, 2, 60, 100
4, 21600, Note_on_c, 2, 60, 0
4, 21600, Note_on_c, 2, 62, 100
4, 21840, Note_on_c, 2, 62, 0
4, 21840, Note_on_c, 2, 62, 100
4, 22080, Note_on_c, 2, 62, 0
4, 22080, Note_on_c, 2, 55, 100
4, 22320, Note_on_c, 2, 55, 0
4, 22320, Note_on_c, 2, 46, 100
4, 22380, Note_on_c, 2, 46, 0
4, 22380, Note_on_c, 2, 48, 100
4, 22440, Note_on_c, 2, 48, 0
4, 22440, Note_on_c, 2, 50, 100
4, 22500, Note_on_c, 2, 50, 0
4, 22500, Note_on_c, 2, 46, 100
4, 22560, Note_on_c, 2, 46, 0
4, 22560, Note_on_c, 2, 43, 100
4, 22800, Note_on_c, 2, 43, 0
4, 23160, Note_on_c, 2, 54, 100
4, 23280, Note_on_c, 2, 54, 0
4, 23280, Note_on_c, 2, 55, 100
4, 23400, Note_on_c, 2, 55, 0
4, 23400, Note_on_c, 2, 57, 100
4, 23520, Note_on_c, 2, 57, 0
4, 23520, Note_on_c, 2, 58, 100
4, 23760, Note_on_c, 2, 58, 0
4, 23760, Note_on_c, 2, 57, 100
4, 24000, Note_on_c, 2, 57, 0
4, 24000, Note_on_c, 2, 55, 100
4, 24120, Note_on_c, 2, 55, 0
4, 24120, Note_on_c, 2, 54, 100
4, 24360, Note_on_c, 2, 54, 0
4, 24360, Note_on_c, 2, 52, 100
4, 24480, Note_on_c, 2, 52, 0
4, 24480, Note_on_c, 2, 54, 100
4, 24540, Note_on_c, 2, 54, 0
4, 24540, Note_on_c, 2, 57, 100
4, 24600, Note_on_c, 2, 57, 0
4, 24600, Note_on_c, 2, 55, 100
4, 24840, Note_on_c, 2, 55, 0
4, 24840, Note_on_c, 2, 54, 100
4, 24960, Note_on_c, 2, 54, 0
4, 24960, Note_on_c, 2, 55, 100
4, 25080, Note_on_c, 2, 55, 0
4, 25080, Note_on_c, 2, 57, 100
4, 25200, Note_on_c, 2, 57, 0
4, 25200, Note_on_c, 2, 58, 100
4, 25320, Note_on_c, 2, 58, 0
4, 25320, Note_on_c, 2, 57, 100
4, 25440, Note_on_c, 2, 57, 0
4, 25440, Note_on_c, 2, 55, 100
4, 25500, Note_on_c, 2, 55, 0
4, 25500, Note_on_c, 2, 57, 100
4, 25560, Note_on_c, 2, 57, 0
4, 25560, Note_on_c, 2, 55, 100
4, 25680, Note_on_c, 2, 55, 0
4, 25680, Note_on_c, 2, 53, 100
4, 25740, Note_on_c, 2, 53, 0
4, 25740, Note_on_c, 2, 55, 100
4, 25800, Note_on_c, 2, 55, 0
4, 25800, Note_on_c, 2, 53, 100
4, 25920, Note_on_c, 2, 53, 0
4, 25920, Note_on_c, 2, 52, 100
4, 26040, Note_on_c, 2, 52, 0
4, 26040, Note_on_c, 2, 53, 100
4, 26160, Note_on_c, 2, 53, 0
4, 26160, Note_on_c, 2, 55, 100
4, 26280, Note_on_c, 2, 55, 0
4, 26280, Note_on_c, 2, 52, 100
4, 26400, Note_on_c, 2, 52, 0
4, 26400, Note_on_c, 2, 49, 100
4, 26520, Note_on_c, 2, 49, 0
4, 26520, Note_on_c, 2, 50, 100
4, 26640, Note_on_c, 2, 50, 0
4, 26640, Note_on_c, 2, 52, 100
4, 26760, Note_on_c, 2, 52, 0
4, 26760, Note_on_c, 2, 49, 100
4, 26880, Note_on_c, 2, 49, 0
4, 26880, Note_on_c, 2, 53, 100
4, 26940, Note_on_c, 2, 53, 0
4, 26940, Note_on_c, 2, 52, 100
4, 27000, Note_on_c, 2, 52, 0
4, 27000, Note_on_c, 2, 50, 100
4, 27120, Note_on_c, 2, 50, 0
4, 27120, Note_on_c, 2, 55, 100
4, 27600, Note_on_c, 2, 55, 0
4, 27600, Note_on_c, 2, 54, 100
4, 27840, Note_on_c, 2, 54, 0
4, 27840, Note_on_c, 2, 58, 100
4, 28080, Note_on_c, 2, 58, 0
4, 28080, Note_on_c, 2, 52, 100
4, 28320, Note_on_c, 2, 52, 0
4, 28320, Note_on_c, 2, 57, 100
4, 28560, Note_on_c, 2, 57, 0
4, 28560, Note_on_c, 2, 49, 100
4, 28800, Note_on_c, 2, 49, 0
4, 28800, Note_on_c, 2, 50, 100
4, 29040, Note_on_c, 2, 50, 0
4, 29040, Note_on_c, 2, 53, 100
4, 29160, Note_on_c, 2, 53, 0
4, 29160, Note_on_c, 2, 52, 100
4, 29280, Note_on_c, 2, 52, 0
4, 29280, Note_on_c, 2, 53, 100
4, 29520, Note_on_c, 2, 53, 0
4, 29520, Note_on_c, 2, 57, 100
4, 29760, Note_on_c, 2, 57, 0
4, 29760, Note_on_c, 2, 62, 100
4, 29880, Note_on_c, 2, 62, 0
4, 29880, Note_on_c, 2, 60, 100
4, 29940, Note_on_c, 2, 60, 0
4, 29940, Note_on_c, 2, 58, 100
4, 30000, Note_on_c, 2, 58, 0
4, 30000, Note_on_c, 2, 57, 100
4, 30060, Note_on_c, 2, 57, 0
4, 30060, Note_on_c, 2, 55, 100
4, 30120, Note_on_c, 2, 55, 0
4, 30120, Note_on_c, 2, 57, 100
4, 30240, Note_on_c, 2, 57, 0
4, 30240, Note_on_c, 2, 50, 100
4, 30720, Note_on_c, 2, 50, 0
4, 30720, Note_on_c, 2, 50, 100
4, 30840, Note_on_c, 2, 50, 0
4, 30840, Note_on_c, 2, 63, 100
4, 30960, Note_on_c, 2, 63, 0
4, 30960, Note_on_c, 2, 63, 100
4, 31080, Note_on_c, 2, 63, 0
4, 31080, Note_on_c, 2, 62, 100
4, 31200, Note_on_c, 2, 62, 0
4, 31200, Note_on_c, 2, 62, 100
4, 31320, Note_on_c, 2, 62, 0
4, 31320, Note_on_c, 2, 60, 100
4, 31440, Note_on_c, 2, 60, 0
4, 31440, Note_on_c, 2, 60, 100
4, 31560, Note_on_c, 2, 60, 0
4, 31560, Note_on_c, 2, 58, 100
4, 31680, Note_on_c, 2, 58, 0
4, 31680, Note_on_c, 2, 58, 100
4, 31800, Note_on_c, 2, 58, 0
4, 31800, Note_on_c, 2, 54, 100
4, 31920, Note_on_c, 2, 54, 0
4, 31920, Note_on_c, 2, 54, 100
4, 32040, Note_on_c, 2, 54, 0
4, 32040, Note_on_c, 2, 55, 100
4, 32160, Note_on_c, 2, 55, 0
4, 32160, Note_on_c, 2, 55, 100
4, 32280, Note_on_c, 2, 55, 0
4, 32280, Note_on_c, 2, 50, 100
4, 32400, Note_on_c, 2, 50, 0
4, 32400, Note_on_c, 2, 50, 100
4, 32760, Note_on_c, 2, 50, 0
4, 32760, Note_on_c, 2, 48, 100
4, 32820, Note_on_c, 2, 48, 0
4, 32820, Note_on_c, 2, 46, 100
4, 32880, Note_on_c, 2, 46, 0
4, 32880, Note_on_c, 2, 48, 100
4, 33000, Note_on_c, 2, 48, 0
4, 33000, Note_on_c, 2, 41, 100
4, 33120, Note_on_c, 2, 41, 0
4, 33120, Note_on_c, 2, 53, 100
4, 33240, Note_on_c, 2, 53, 0
4, 33240, Note_on_c, 2, 46, 100
4, 33360, Note_on_c, 2, 46, 0
4, 33360, Note_on_c, 2, 51, 100
4, 33720, Note_on_c, 2, 51, 0
4, 33720, Note_on_c, 2, 50, 100
4, 33780, Note_on_c, 2, 50, 0
4, 33780, Note_on_c, 2, 48, 100
4, 33840, Note_on_c, 2, 48, 0
4, 33840, Note_on_c, 2, 50, 100
4, 33900, Note_on_c, 2, 50, 0
4, 33900, Note_on_c, 2, 48, 100
4, 33960, Note_on_c, 2, 48, 0
4, 33960, Note_on_c, 2, 46, 100
4, 34080, Note_on_c, 2, 46, 0
4, 34080, Note_on_c, 2, 51, 100
4, 34200, Note_on_c, 2, 51, 0
4, 34200, Note_on_c, 2, 43, 100
4, 34320, Note_on_c, 2, 43, 0
4, 34320, Note_on_c, 2, 44, 100
4, 34440, Note_on_c, 2, 44, 0
4, 34440, Note_on_c, 2, 46, 100
4, 34560, Note_on_c, 2, 46, 0
4, 34560, Note_on_c, 2, 36, 100
4, 34680, Note_on_c, 2, 36, 0
4, 34680, Note_on_c, 2, 43, 100
4, 34800, Note_on_c, 2, 43, 0
4, 34800, Note_on_c, 2, 48, 100
4, 34920, Note_on_c, 2, 48, 0
4, 34920, Note_on_c, 2, 46, 100
4, 35040, Note_on_c, 2, 46, 0
4, 35040, Note_on_c, 2, 44, 100
4, 35160, Note_on_c, 2, 44, 0
4, 35160, Note_on_c, 2, 43, 100
4, 35280, Note_on_c, 2, 43, 0
4, 35280, Note_on_c, 2, 44, 100
4, 35640, Note_on_c, 2, 44, 0
4, 35640, Note_on_c, 2, 56, 100
4, 35760, Note_on_c, 2, 56, 0
4, 35760, Note_on_c, 2, 58, 100
4, 35880, Note_on_c, 2, 58, 0
4, 35880, Note_on_c, 2, 56, 100
4, 36000, Note_on_c, 2, 56, 0
4, 36000, Note_on_c, 2, 55, 100
4, 36120, Note_on_c, 2, 55, 0
4, 36120, Note_on_c, 2, 53, 100
4, 36240, Note_on_c, 2, 53, 0
4, 36240, Note_on_c, 2, 51, 100
4, 36360, Note_on_c, 2, 51, 0
4, 36360, Note_on_c, 2, 53, 100
4, 36480, Note_on_c, 2, 53, 0
4, 36480, Note_on_c, 2, 55, 100
4, 36600, Note_on_c, 2, 55, 0
4, 36600, Note_on_c, 2, 56, 100
4, 36720, Note_on_c, 2, 56, 0
4, 36720, Note_on_c, 2, 58, 100
4, 36960, Note_on_c, 2, 58, 0
4, 36960, Note_on_c, 2, 46, 100
4, 37320, Note_on_c, 2, 46, 0
4, 37320, Note_on_c, 2, 56, 100
4, 37440, Note_on_c, 2, 56, 0
4, 37440, Note_on_c, 2, 55, 100
4, 37560, Note_on_c, 2, 55, 0
4, 37560, Note_on_c, 2, 53, 100
4, 37680, Note_on_c, 2, 53, 0
4, 37680, Note_on_c, 2, 53, 100
4, 37800, Note_on_c, 2, 53, 0
4, 37800, Note_on_c, 2, 51, 100
4, 37920, Note_on_c, 2, 51, 0
4, 37920, Note_on_c, 2, 53, 100
4, 38040, Note_on_c, 2, 53, 0
4, 38040, Note_on_c, 2, 55, 100
4, 38160, Note_on_c, 2, 55, 0
4, 38160, Note_on_c, 2, 55, 100
4, 38280, Note_on_c, 2, 55, 0
4, 38280, Note_on_c, 2, 56, 100
4, 38400, Note_on_c, 2, 56, 0
4, 38400, Note_on_c, 2, 48, 100
4, 38640, Note_on_c, 2, 48, 0
4, 38640, Note_on_c, 2, 47, 100
4, 38880, Note_on_c, 2, 47, 0
4, 39000, Note_on_c, 2, 45, 100
4, 39120, Note_on_c, 2, 45, 0
4, 39120, Note_on_c, 2, 47, 100
4, 39240, Note_on_c, 2, 47, 0
4, 39240, Note_on_c, 2, 43, 100
4, 39360, Note_on_c, 2, 43, 0
4, 39360, Note_on_c, 2, 48, 100
4, 39600, Note_on_c, 2, 48, 0
4, 39600, Note_on_c, 2, 60, 100
4, 39840, Note_on_c, 2, 60, 0
4, 40080, Note_on_c, 2, 48, 100
4, 40440, Note_on_c, 2, 48, 0
4, 40440, Note_on_c, 2, 62, 100
4, 40560, Note_on_c, 2, 62, 0
4, 40560, Note_on_c, 2, 63, 100
4, 40680, Note_on_c, 2, 63, 0
4, 40680, Note_on_c, 2, 58, 100
4, 40800, Note_on_c, 2, 58, 0
4, 40800, Note_on_c, 2, 57, 100
4, 40920, Note_on_c, 2, 57, 0
4, 40920, Note_on_c, 2, 58, 100
4, 41040, Note_on_c, 2, 58, 0
4, 41040, Note_on_c, 2, 60, 100
4, 41160, Note_on_c, 2, 60, 0
4, 41160, Note_on_c, 2, 55, 100
4, 41280, Note_on_c, 2, 55, 0
4, 41280, Note_on_c, 2, 55, 100
4, 41520, Note_on_c, 2, 55, 0
4, 41520, Note_on_c, 2, 54, 100
4, 41640, Note_on_c, 2, 54, 0
4, 41640, Note_on_c, 2, 55, 100
4, 41760, Note_on_c, 2, 55, 0
4, 41760, Note_on_c, 2, 57, 100
4, 41880, Note_on_c, 2, 57, 0
4, 41880, Note_on_c, 2, 58, 100
4, 41940, Note_on_c, 2, 58, 0
4, 41940, Note_on_c, 2, 60, 100
4, 42000, Note_on_c, 2, 60, 0
4, 42000, Note_on_c, 2, 62, 100
4, 42060, Note_on_c, 2, 62, 0
4, 42060, Note_on_c, 2, 63, 100
4, 42120, Note_on_c, 2, 63, 0
4, 42120, Note_on_c, 2, 60, 100
4, 42240, Note_on_c, 2, 60, 0
4, 42240, Note_on_c, 2, 58, 100
4, 42300, Note_on_c, 2, 58, 0
4, 42300, Note_on_c, 2, 62, 100
4, 42360, Note_on_c, 2, 62, 0
4, 42360, Note_on_c, 2, 60, 100
4, 42480, Note_on_c, 2, 60, 0
4, 42480, Note_on_c, 2, 58, 100
4, 42540, Note_on_c, 2, 58, 0
4, 42540, Note_on_c, 2, 60, 100
4, 42600, Note_on_c, 2, 60, 0
4, 42600, Note_on_c, 2, 57, 100
4, 42720, Note_on_c, 2, 57, 0
4, 42720, Note_on_c, 2, 55, 100
4, 42780, Note_on_c, 2, 55, 0
4, 42780, Note_on_c, 2, 57, 100
4, 42840, Note_on_c, 2, 57, 0
4, 42840, Note_on_c, 2, 53, 100
4, 42960, Note_on_c, 2, 53, 0
4, 42960, Note_on_c, 2, 51, 100
4, 43020, Note_on_c, 2, 51, 0
4, 43020, Note_on_c, 2, 53, 100
4, 43080, Note_on_c, 2, 53, 0
4, 43080, Note_on_c, 2, 50, 100
4, 43200, Note_on_c, 2, 50, 0
4, 43200, Note_on_c, 2, 48, 100
4, 43320, Note_on_c, 2, 48, 0
4, 43320, Note_on_c, 2, 51, 100
4, 43380, Note_on_c, 2, 51, 0
4, 43380, Note_on_c, 2, 50, 100
4, 43440, Note_on_c, 2, 50, 0
4, 43440, Note_on_c, 2, 51, 100
4, 43560, Note_on_c, 2, 51, 0
4, 43560, Note_on_c, 2, 42, 100
4, 43680, Note_on_c, 2, 42, 0
4, 43680, Note_on_c, 2, 43, 100
4, 43920, Note_on_c, 2, 43, 0
4, 44040, Note_on_c, 2, 48, 100
4, 44160, Note_on_c, 2, 48, 0
4, 44160, Note_on_c, 2, 50, 100
4, 44400, Note_on_c, 2, 50, 0
4, 44520, Note_on_c, 2, 51, 100
4, 44640, Note_on_c, 2, 51, 0
4, 44640, Note_on_c, 2, 48, 100
4, 44880, Note_on_c, 2, 48, 0
4, 44880, Note_on_c, 2, 50, 100
4, 45120, Note_on_c, 2, 50, 0
4, 45120, Note_on_c, 2, 55, 100
4, 45240, Note_on_c, 2, 55, 0
4, 45240, Note_on_c, 2, 50, 100
4, 45300, Note_on_c, 2, 50, 0
4, 45300, Note_on_c, 2, 48, 100
4, 45360, Note_on_c, 2, 48, 0
4, 45360, Note_on_c, 2, 46, 100
4, 45420, Note_on_c, 2, 46, 0
4, 45420, Note_on_c, 2, 48, 100
4, 45480, Note_on_c, 2, 48, 0
4, 45480, Note_on_c, 2, 45, 100
4, 45600, Note_on_c, 2, 45, 0
4, 45600, Note_on_c, 2, 43, 100
4, 46080, Note_on_c, 2, 43, 0
4, 46080, Note_on_c, 2, 50, 100
4, 46200, Note_on_c, 2, 50, 0
4, 46200, Note_on_c, 2, 63, 100
4, 46320, Note_on_c, 2, 63, 0
4, 46320, Note_on_c, 2, 63, 100
4, 46440, Note_on_c, 2, 63, 0
4, 46440, Note_on_c, 2, 62, 100
4, 46560, Note_on_c, 2, 62, 0
4, 46560, Note_on_c, 2, 62, 100
4, 46680, Note_on_c, 2, 62, 0
4, 46680, Note_on_c, 2, 60, 100
4, 46800, Note_on_c, 2, 60, 0
4, 46800, Note_on_c, 2, 60, 100
4, 46920, Note_on_c, 2, 60, 0
4, 46920, Note_on_c, 2, 58, 100
4, 47040, Note_on_c, 2, 58, 0
4, 47040, Note_on_c, 2, 58, 100
4, 47160, Note_on_c, 2, 58, 0
4, 47160, Note_on_c, 2, 54, 100
4, 47280, Note_on_c, 2, 54, 0
4, 47280, Note_on_c, 2, 54, 100
4, 47400, Note_on_c, 2, 54, 0
4, 47400, Note_on_c, 2, 55, 100
4, 47520, Note_on_c, 2, 55, 0
4, 47520, Note_on_c, 2, 55, 100
4, 47640, Note_on_c, 2, 55, 0
4, 47640, Note_on_c, 2, 50, 100
4, 47760, Note_on_c, 2, 50, 0
4, 47760, Note_on_c, 2, 50, 100
4, 48120, Note_on_c, 2, 50, 0
4, 48120, Note_on_c, 2, 48, 100
4, 48180, Note_on_c, 2, 48, 0
4, 48180, Note_on_c, 2, 46, 100
4, 48240, Note_on_c, 2, 46, 0
4, 48240, Note_on_c, 2, 48, 100
4, 48360, Note_on_c, 2, 48, 0
4, 48360, Note_on_c, 2, 41, 100
4, 48480, Note_on_c, 2, 41, 0
4, 48480, Note_on_c, 2, 53, 100
4, 48600, Note_on_c, 2, 53, 0
4, 48600, Note_on_c, 2, 46, 100
4, 48720, Note_on_c, 2, 46, 0
4, 48720, Note_on_c, 2, 51, 100
4, 49080, Note_on_c, 2, 51, 0
4, 49080, Note_on_c, 2, 50, 100
4, 49140, Note_on_c, 2, 50, 0
4, 49140, Note_on_c, 2, 48, 100
4, 49200, Note_on_c, 2, 48, 0
4, 49200, Note_on_c, 2, 50, 100
4, 49260, Note_on_c, 2, 50, 0
4, 49260, Note_on_c, 2, 48, 100
4, 49320, Note_on_c, 2, 48, 0
4, 49320, Note_on_c, 2, 46, 100
4, 49440, Note_on_c, 2, 46, 0
4, 49440, Note_on_c, 2, 51, 100
4, 49560, Note_on_c, 2, 51, 0
4, 49560, Note_on_c, 2, 43, 100
4, 49680, Note_on_c, 2, 43, 0
4, 49680, Note_on_c, 2, 44, 100
4, 49800, Note_on_c, 2, 44, 0
4, 49800, Note_on_c, 2, 46, 100
4, 49920, Note_on_c, 2, 46, 0
4, 49920, Note_on_c, 2, 36, 100
4, 50040, Note_on_c, 2, 36, 0
4, 50040, Note_on_c, 2, 43, 100
4, 50160, Note_on_c, 2, 43, 0
4, 50160, Note_on_c, 2, 48, 100
4, 50280, Note_on_c, 2, 48, 0
4, 50280, Note_on_c, 2, 46, 100
4, 50400, Note_on_c, 2, 46, 0
4, 50400, Note_on_c, 2, 44, 100
4, 50520, Note_on_c, 2, 44, 0
4, 50520, Note_on_c, 2, 43, 100
4, 50640, Note_on_c, 2, 43, 0
4, 50640, Note_on_c, 2, 44, 100
4, 51000, Note_on_c, 2, 44, 0
4, 51000, Note_on_c, 2, 56, 100
4, 51120, Note_on_c, 2, 56, 0
4, 51120, Note_on_c, 2, 58, 100
4, 51240, Note_on_c, 2, 58, 0
4, 51240, Note_on_c, 2, 56, 100
4, 51360, Note_on_c, 2, 56, 0
4, 51360, Note_on_c, 2, 55, 100
4, 51480, Note_on_c, 2, 55, 0
4, 51480, Note_on_c, 2, 53, 100
4, 51600, Note_on_c, 2, 53, 0
4, 51600, Note_on_c, 2, 51, 100
4, 51720, Note_on_c, 2, 51, 0
4, 51720, Note_on_c, 2, 53, 100
4, 51840, Note_on_c, 2, 53, 0
4, 51840, Note_on_c, 2, 55, 100
4, 51960, Note_on_c, 2, 55, 0
4, 51960, Note_on_c, 2, 56, 100
4, 52080, Note_on_c, 2, 56, 0
4, 52080, Note_on_c, 2, 58, 100
4, 52320, Note_on_c, 2, 58, 0
4, 52320, Note_on_c, 2, 46, 100
4, 52680, Note_on_c, 2, 46, 0
4, 52680, Note_on_c, 2, 56, 100
4, 52800, Note_on_c, 2, 56, 0
4, 52800, Note_on_c, 2, 55, 100
4, 52920, Note_on_c, 2, 55, 0
4, 52920, Note_on_c, 2, 53, 100
4, 53040, Note_on_c, 2, 53, 0
4, 53040, Note_on_c, 2, 53, 100
4, 53160, Note_on_c, 2, 53, 0
4, 53160, Note_on_c, 2, 51, 100
4, 53280, Note_on_c, 2, 51, 0
4, 53280, Note_on_c, 2, 53, 100
4, 53400, Note_on_c, 2, 53, 0
4, 53400, Note_on_c, 2, 55, 100
4, 53520, Note_on_c, 2, 55, 0
4, 53520, Note_on_c, 2, 55, 100
4, 53640, Note_on_c, 2, 55, 0
4, 53640, Note_on_c, 2, 56, 100
4, 53760, Note_on_c, 2, 56, 0
4, 53760, Note_on_c, 2, 48, 100
4, 54000, Note_on_c, 2, 48, 0
4, 54000, Note_on_c, 2, 47, 100
4, 54240, Note_on_c, 2, 47, 0
4, 54360, Note_on_c, 2, 45, 100
4, 54480, Note_on_c, 2, 45, 0
4, 54480, Note_on_c, 2, 47, 100
4, 54600, Note_on_c, 2, 47, 0
4, 54600, Note_on_c, 2, 43, 100
4, 54720, Note_on_c, 2, 43, 0
4, 54720, Note_on_c, 2, 48, 100
4, 54960, Note_on_c, 2, 48, 0
4, 54960, Note_on_c, 2, 60, 100
4, 55200, Note_on_c, 2, 60, 0
4, 55440, Note_on_c, 2, 48, 100
4, 55800, Note_on_c, 2, 48, 0
4, 55800, Note_on_c, 2, 62, 100
4, 55920, Note_on_c, 2, 62, 0
4, 55920, Note_on_c, 2, 63, 100
4, 56040, Note_on_c, 2, 63, 0
4, 56040, Note_on_c, 2, 58, 100
4, 56160, Note_on_c, 2, 58, 0
4, 56160, Note_on_c, 2, 57, 100
4, 56280, Note_on_c, 2, 57, 0
4, 56280, Note_on_c, 2, 58, 100
4, 56400, Note_on_c, 2, 58, 0
4, 56400, Note_on_c, 2, 60, 100
4, 56520, Note_on_c, 2, 60, 0
4, 56520, Note_on_c, 2, 55, 100
4, 56640, Note_on_c, 2, 55, 0
4, 56640, Note_on_c, 2, 55, 100
4, 56880, Note_on_c, 2, 55, 0
4, 56880, Note_on_c, 2, 54, 100
4, 57000, Note_on_c, 2, 54, 0
4, 57000, Note_on_c, 2, 55, 100
4, 57120, Note_on_c, 2, 55, 0
4, 57120, Note_on_c, 2, 57, 100
4, 57240, Note_on_c, 2, 57, 0
4, 57240, Note_on_c, 2, 58, 100
4, 57300, Note_on_c, 2, 58, 0
4, 57300, Note_on_c, 2, 60, 100
4, 57360, Note_on_c, 2, 60, 0
4, 57360, Note_on_c, 2, 62, 100
4, 57420, Note_on_c, 2, 62, 0
4, 57420, Note_on_c, 2, 63, 100
4, 57480, Note_on_c, 2, 63, 0
4, 57480, Note_on_c, 2, 60, 100
4, 57600, Note_on_c, 2, 60, 0
4, 57600, Note_on_c, 2, 58, 100
4, 57660, Note_on_c, 2, 58, 0
4, 57660, Note_on_c, 2, 62, 100
4, 57720, Note_on_c, 2, 62, 0
4, 57720, Note_on_c, 2, 60, 100
4, 57840, Note_on_c, 2, 60, 0
4, 57840, Note_on_c, 2, 58, 100
4, 57900, Note_on_c, 2, 58, 0
4, 57900, Note_on_c, 2, 60, 100
4, 57960, Note_on_c, 2, 60, 0
4, 57960, Note_on_c, 2, 57, 100
4, 58080, Note_on_c, 2, 57, 0
4, 58080, Note_on_c, 2, 55, 100
4, 58140, Note_on_c, 2, 55, 0
4, 58140, Note_on_c, 2, 57, 100
4, 58200, Note_on_c, 2, 57, 0
4, 58200, Note_on_c, 2, 53, 100
4, 58320, Note_on_c, 2, 53, 0
4, 58320, Note_on_c, 2, 51, 100
4, 58380, Note_on_c, 2, 51, 0
4, 58380, Note_on_c, 2, 53, 100
4, 58440, Note_on_c, 2, 53, 0
4, 58440, Note_on_c, 2, 50, 100
4, 58560, Note_on_c, 2, 50, 0
4, 58560, Note_on_c, 2, 48, 100
4, 58680, Note_on_c, 2, 48, 0
4, 58680, Note_on_c, 2, 51, 100
4, 58740, Note_on_c, 2, 51, 0
4, 58740, Note_on_c, 2, 50, 100
4, 58800, Note_on_c, 2, 50, 0
4, 58800, Note_on_c, 2, 51, 100
4, 58920, Note_on_c, 2, 51, 0
4, 58920, Note_on_c, 2, 42, 100
4, 59040, Note_on_c, 2, 42, 0
4, 59040, Note_on_c, 2, 43, 100
4, 59280, Note_on_c, 2, 43, 0
4, 59400, Note_on_c, 2, 48, 100
4, 59520, Note_on_c, 2, 48, 0
4, 59520, Note_on_c, 2, 50, 100
4, 59760, Note_on_c, 2, 50, 0
4, 59880, Note_on_c, 2, 51, 100
4, 60000, Note_on_c, 2, 51, 0
4, 60000, Note_on_c, 2, 48, 100
4, 60240, Note_on_c, 2, 48, 0
4, 60240, Note_on_c, 2, 50, 100
4, 60480, Note_on_c, 2, 50, 0
4, 60480, Note_on_c, 2, 55, 100
4, 60600, Note_on_c, 2, 55, 0
4, 60600, Note_on_c, 2, 50, 100
4, 60660, Note_on_c, 2, 50, 0
4, 60660, Note_on_c, 2, 48, 100
4, 60720, Note_on_c, 2, 48, 0
4, 60720, Note_on_c, 2, 46, 100
4, 60780, Note_on_c, 2, 46, 0
4, 60780, Note_on_c, 2, 48, 100
4, 60840, Note_on_c, 2, 48, 0
4, 60840, Note_on_c, 2, 45, 100
4, 60960, Note_on_c, 2, 45, 0
4, 60960, Note_on_c, 2, 43, 100
4, 61440, Note_on_c, 2, 43, 0
4, 61440, End_track
5, 0, Start_track
5, 0, MIDI_port, 0
5, 0, Title_t, "The Goldberg Variations - BWV 988"
5, 0, End_track
6, 0, Start_track
6, 0, MIDI_port, 0
6, 0, Title_t, "Aria with 30 Variations for Harpsichord with 2 Manuals"
6, 0, End_track
7, 0, Start_track
7, 0, MIDI_port, 0
7, 0, Title_t, "--------------------------------------"
7, 0, End_track
8, 0, Start_track
8, 0, MIDI_port, 0
8, 0, Title_t, "Variatio 15 a 1 Clav. Canone alla Quinta - Andante"
8, 0, End_track
9, 0, Start_track
9, 0, MIDI_port, 0
9, 0, Title_t, "--------------------------------------"
9, 0, End_track
10, 0, Start_track
10, 0, MIDI_port, 0
10, 0, Title_t, "Sequenced with Cakewalk Pro Audio by"
10, 0, End_track
11, 0, Start_track
11, 0, MIDI_port, 0
11, 0, Title_t, "David J. Grossman - dave@unpronounceable.com"
11, 0, End_track
12, 0, Start_track
12, 0, MIDI_port, 0
12, 0, Title_t, "This and other Bach MIDI files can be found at:"
12, 0, End_track
13, 0, Start_track
13, 0, MIDI_port, 0
13, 0, Title_t, "Dave's J.S. Bach Page"
13, 0, End_track
14, 0, Start_track
14, 0, MIDI_port, 0
14, 0, Title_t, "http://www.unpronounceable.com/bach"
14, 0, End_track
15, 0, Start_track
15, 0, MIDI_port, 0
15, 0, Title_t, "--------------------------------------"
15, 0, End_track
16, 0, Start_track
16, 0, MIDI_port, 0
16, 0, Title_t, "Original Filename: 988-v15.mid"
16, 0, End_track
17, 0, Start_track
17, 0, MIDI_port, 0
17, 0, Title_t, "Last Modified: March 14, 1997"
17, 0, End_track
0, 0, End_of_file
