0, 0, Header, 1, 17, 480
1, 0, Start_track
1, 0, Title_t, "untitled"
1, 0, SMPTE_offset, 96, 0, 3, 0, 0
1, 0, Time_signature, 4, 2, 24, 8
1, 0, Key_signature, 1, "major"
1, 0, Tempo, 1200000
1, 0, Marker_t, "A"
1, 20, Tempo, 1188119
1, 40, Tempo, 1176471
1, 60, Tempo, 1165049
1, 80, Tempo, 1153846
1, 96, Tempo, 1142857
1, 120, Tempo, 1132075
1, 136, Tempo, 1121495
1, 152, Tempo, 1111111
1, 176, Tempo, 1100917
1, 192, Tempo, 1090909
1, 208, Tempo, 1081081
1, 232, Tempo, 1071429
1, 248, Tempo, 1061947
1, 272, Tempo, 1052632
1, 288, Tempo, 1043478
1, 308, Tempo, 1034483
1, 328, Tempo, 1025641
1, 348, Tempo, 1016949
1, 364, Tempo, 1008403
1, 388, Tempo, 1000000
1, 404, Tempo, 991736
1, 420, Tempo, 983607
1, 444, Tempo, 975610
1, 460, Tempo, 967742
1, 480, Tempo, 960000
1, 500, Tempo, 952381
1, 520, Tempo, 944882
1, 540, Tempo, 937500
1, 560, Tempo, 930233
1, 576, Tempo, 923077
1, 600, Tempo, 916031
1, 616, Tempo, 909091
1, 632, Tempo, 902256
1, 656, Tempo, 895522
1, 672, Tempo, 888889
1, 688, Tempo, 882353
1, 712, Tempo, 875912
1, 728, Tempo, 869565
1, 752, Tempo, 863309
1, 768, Tempo, 857143
1, 788, Tempo, 851064
1, 808, Tempo, 845070
1, 828, Tempo, 839161
1, 844, Tempo, 833333
1, 868, Tempo, 827586
1, 884, Tempo, 821918
1, 900, Tempo, 816327
1, 924, Tempo, 810811
1, 940, Tempo, 805369
1, 960, Tempo, 800000
1, 28800, Marker_t, "1."
1, 30720, Marker_t, "A'"
1, 30722, Tempo, 1200000
1, 30726, Tempo, 1197605
1, 30730, Tempo, 1195219
1, 30734, Tempo, 1192843
1, 30738, Tempo, 1190476
1, 30742, Tempo, 1188119
1, 30746, Tempo, 1185771
1, 30750, Tempo, 1183432
1, 30754, Tempo, 1181102
1, 30758, Tempo, 1178782
1, 30762, Tempo, 1176471
1, 30766, Tempo, 1174168
1, 30770, Tempo, 1171875
1, 30774, Tempo, 1169591
1, 30778, Tempo, 1167315
1, 30782, Tempo, 1165049
1, 30786, Tempo, 1162791
1, 30790, Tempo, 1160542
1, 30794, Tempo, 1158301
1, 30798, Tempo, 1156069
1, 30802, Tempo, 1153846
1, 30806, Tempo, 1151631
1, 30810, Tempo, 1149425
1, 30814, Tempo, 1147228
1, 30818, Tempo, 1142857
1, 30822, Tempo, 1140684
1, 30826, Tempo, 1138520
1, 30830, Tempo, 1136364
1, 30834, Tempo, 1134216
1, 30838, Tempo, 1132075
1, 30842, Tempo, 1129944
1, 30846, Tempo, 1127820
1, 30850, Tempo, 1125704
1, 30854, Tempo, 1123596
1, 30858, Tempo, 1121495
1, 30862, Tempo, 1119403
1, 30866, Tempo, 1117318
1, 30870, Tempo, 1115242
1, 30874, Tempo, 1113173
1, 30878, Tempo, 1111111
1, 30882, Tempo, 1109057
1, 30886, Tempo, 1107011
1, 30890, Tempo, 1104972
1, 30894, Tempo, 1102941
1, 30898, Tempo, 1100917
1, 30902, Tempo, 1098901
1, 30906, Tempo, 1096892
1, 30910, Tempo, 1094891
1, 30914, Tempo, 1090909
1, 30918, Tempo, 1088929
1, 30922, Tempo, 1086957
1, 30926, Tempo, 1084991
1, 30930, Tempo, 1083032
1, 30934, Tempo, 1081081
1, 30938, Tempo, 1079137
1, 30942, Tempo, 1077199
1, 30946, Tempo, 1075269
1, 30950, Tempo, 1073345
1, 30954, Tempo, 1071429
1, 30958, Tempo, 1069519
1, 30962, Tempo, 1067616
1, 30966, Tempo, 1065719
1, 30970, Tempo, 1063830
1, 30974, Tempo, 1061947
1, 30978, Tempo, 1060071
1, 30982, Tempo, 1058201
1, 30986, Tempo, 1056338
1, 30990, Tempo, 1054482
1, 30994, Tempo, 1052632
1, 30998, Tempo, 1050788
1, 31002, Tempo, 1048951
1, 31006, Tempo, 1047120
1, 31010, Tempo, 1043478
1, 31014, Tempo, 1041667
1, 31018, Tempo, 1039861
1, 31022, Tempo, 1038062
1, 31026, Tempo, 1036269
1, 31030, Tempo, 1034483
1, 31034, Tempo, 1032702
1, 31038, Tempo, 1030928
1, 31042, Tempo, 1029160
1, 31046, Tempo, 1027397
1, 31050, Tempo, 1025641
1, 31054, Tempo, 1023891
1, 31058, Tempo, 1022147
1, 31062, Tempo, 1020408
1, 31066, Tempo, 1018676
1, 31070, Tempo, 1016949
1, 31074, Tempo, 1015228
1, 31078, Tempo, 1013514
1, 31082, Tempo, 1011804
1, 31086, Tempo, 1010101
1, 31090, Tempo, 1008403
1, 31094, Tempo, 1006711
1, 31098, Tempo, 1005025
1, 31102, Tempo, 1003344
1, 31106, Tempo, 1000000
1, 31110, Tempo, 998336
1, 31114, Tempo, 996678
1, 31118, Tempo, 995025
1, 31122, Tempo, 993377
1, 31126, Tempo, 991736
1, 31130, Tempo, 990099
1, 31134, Tempo, 988468
1, 31138, Tempo, 986842
1, 31142, Tempo, 985222
1, 31146, Tempo, 983607
1, 31150, Tempo, 981997
1, 31154, Tempo, 980392
1, 31158, Tempo, 978793
1, 31162, Tempo, 977199
1, 31166, Tempo, 975610
1, 31170, Tempo, 974026
1, 31174, Tempo, 972447
1, 31178, Tempo, 970874
1, 31182, Tempo, 969305
1, 31186, Tempo, 967742
1, 31190, Tempo, 966184
1, 31194, Tempo, 964630
1, 31198, Tempo, 963082
1, 31202, Tempo, 960000
1, 31206, Tempo, 958466
1, 31210, Tempo, 956938
1, 31214, Tempo, 955414
1, 31218, Tempo, 953895
1, 31222, Tempo, 952381
1, 31226, Tempo, 950872
1, 31230, Tempo, 949367
1, 31234, Tempo, 947867
1, 31238, Tempo, 946372
1, 31242, Tempo, 944882
1, 31246, Tempo, 943396
1, 31250, Tempo, 941915
1, 31254, Tempo, 940439
1, 31258, Tempo, 938967
1, 31262, Tempo, 937500
1, 31266, Tempo, 936037
1, 31270, Tempo, 934579
1, 31274, Tempo, 933126
1, 31278, Tempo, 931677
1, 31282, Tempo, 930233
1, 31286, Tempo, 928793
1, 31290, Tempo, 927357
1, 31294, Tempo, 925926
1, 31298, Tempo, 923077
1, 31302, Tempo, 921659
1, 31306, Tempo, 920245
1, 31310, Tempo, 918836
1, 31314, Tempo, 917431
1, 31318, Tempo, 916031
1, 31322, Tempo, 914634
1, 31326, Tempo, 913242
1, 31330, Tempo, 911854
1, 31334, Tempo, 910470
1, 31338, Tempo, 909091
1, 31342, Tempo, 907716
1, 31346, Tempo, 906344
1, 31350, Tempo, 904977
1, 31354, Tempo, 903614
1, 31358, Tempo, 902256
1, 31362, Tempo, 900901
1, 31366, Tempo, 899550
1, 31370, Tempo, 898204
1, 31374, Tempo, 896861
1, 31378, Tempo, 895522
1, 31382, Tempo, 894188
1, 31386, Tempo, 892857
1, 31390, Tempo, 891530
1, 31394, Tempo, 888889
1, 31398, Tempo, 887574
1, 31402, Tempo, 886263
1, 31406, Tempo, 884956
1, 31410, Tempo, 883652
1, 31414, Tempo, 882353
1, 31418, Tempo, 881057
1, 31422, Tempo, 879765
1, 31426, Tempo, 878477
1, 31430, Tempo, 877193
1, 31434, Tempo, 875912
1, 31438, Tempo, 874636
1, 31442, Tempo, 873362
1, 31446, Tempo, 872093
1, 31450, Tempo, 870827
1, 31454, Tempo, 869565
1, 31458, Tempo, 868307
1, 31462, Tempo, 867052
1, 31466, Tempo, 865801
1, 31470, Tempo, 864553
1, 31474, Tempo, 863309
1, 31478, Tempo, 862069
1, 31482, Tempo, 860832
1, 31486, Tempo, 859599
1, 31490, Tempo, 857143
1, 31494, Tempo, 855920
1, 31498, Tempo, 854701
1, 31502, Tempo, 853485
1, 31506, Tempo, 852273
1, 31510, Tempo, 851064
1, 31514, Tempo, 849858
1, 31518, Tempo, 848656
1, 31522, Tempo, 847458
1, 31526, Tempo, 846262
1, 31530, Tempo, 845070
1, 31534, Tempo, 843882
1, 31538, Tempo, 842697
1, 31542, Tempo, 841515
1, 31546, Tempo, 840336
1, 31550, Tempo, 839161
1, 31554, Tempo, 837989
1, 31558, Tempo, 836820
1, 31562, Tempo, 835655
1, 31566, Tempo, 834492
1, 31570, Tempo, 833333
1, 31574, Tempo, 832178
1, 31578, Tempo, 831025
1, 31582, Tempo, 829876
1, 31586, Tempo, 827586
1, 31590, Tempo, 826446
1, 31594, Tempo, 825309
1, 31598, Tempo, 824176
1, 31602, Tempo, 823045
1, 31606, Tempo, 821918
1, 31610, Tempo, 820793
1, 31614, Tempo, 819672
1, 31618, Tempo, 818554
1, 31622, Tempo, 817439
1, 31626, Tempo, 816327
1, 31630, Tempo, 815217
1, 31634, Tempo, 814111
1, 31638, Tempo, 813008
1, 31642, Tempo, 811908
1, 31646, Tempo, 810811
1, 31650, Tempo, 809717
1, 31654, Tempo, 808625
1, 31658, Tempo, 807537
1, 31662, Tempo, 806452
1, 31666, Tempo, 805369
1, 31670, Tempo, 804290
1, 31674, Tempo, 803213
1, 31678, Tempo, 802139
1, 31682, Tempo, 800000
1, 59520, Time_signature, 3, 3, 12, 8
1, 59520, Tempo, 600000
1, 59520, Marker_t, "2."
1, 60240, Marker_t, "B"
1, 81840, Marker_t, "1."
1, 83280, Marker_t, "B'"
1, 104880, Time_signature, 4, 2, 24, 8
1, 104880, Marker_t, "2."
1, 104880, End_track
2, 0, Start_track
2, 0, MIDI_port, 0
2, 0, Title_t, "Solo Harpsichord with 2 Manuals"
2, 0, Program_c, 0, 6
2, 0, Control_c, 0, 7, 100
2, 0, Control_c, 0, 10, 79
2, 540, Note_on_c, 0, 67, 100
2, 600, Note_on_c, 0, 67, 0
2, 600, Note_on_c, 0, 69, 100
2, 660, Note_on_c, 0, 69, 0
2, 660, Note_on_c, 0, 71, 100
2, 720, Note_on_c, 0, 71, 0
2, 720, Note_on_c, 0, 72, 100
2, 780, Note_on_c, 0, 72, 0
2, 780, Note_on_c, 0, 74, 100
2, 840, Note_on_c, 0, 74, 0
2, 840, Note_on_c, 0, 76, 100
2, 900, Note_on_c, 0, 76, 0
2, 900, Note_on_c, 0, 78, 100
2, 960, Note_on_c, 0, 78, 0
2, 960, Note_on_c, 0, 79, 100
2, 1320, Note_on_c, 0, 79, 0
2, 1320, Note_on_c, 0, 74, 100
2, 1440, Note_on_c, 0, 74, 0
2, 1440, Note_on_c, 0, 71, 100
2, 1800, Note_on_c, 0, 71, 0
2, 1800, Note_on_c, 0, 67, 100
2, 1920, Note_on_c, 0, 67, 0
2, 1920, Note_on_c, 0, 74, 100
2, 1980, Note_on_c, 0, 74, 0
2, 1980, Note_on_c, 0, 72, 100
2, 2040, Note_on_c, 0, 72, 0
2, 2040, Note_on_c, 0, 74, 100
2, 2640, Note_on_c, 0, 74, 0
2, 2640, Note_on_c, 0, 76, 100
2, 2880, Note_on_c, 0, 76, 0
2, 2880, Note_on_c, 0, 74, 100
2, 3000, Note_on_c, 0, 74, 0
2, 3000, Note_on_c, 0, 72, 100
2, 3060, Note_on_c, 0, 72, 0
2, 3060, Note_on_c, 0, 71, 100
2, 3120, Note_on_c, 0, 71, 0
2, 3120, Note_on_c, 0, 72, 100
2, 3180, Note_on_c, 0, 72, 0
2, 3180, Note_on_c, 0, 74, 100
2, 3220, Note_on_c, 0, 74, 0
2, 3220, Note_on_c, 0, 72, 100
2, 3260, Note_on_c, 0, 72, 0
2, 3260, Note_on_c, 0, 74, 100
2, 3300, Note_on_c, 0, 74, 0
2, 3300, Note_on_c, 0, 72, 100
2, 3340, Note_on_c, 0, 72, 0
2, 3340, Note_on_c, 0, 74, 100
2, 3380, Note_on_c, 0, 74, 0
2, 3380, Note_on_c, 0, 72, 100
2, 3420, Note_on_c, 0, 72, 0
2, 3420, Note_on_c, 0, 74, 100
2, 3460, Note_on_c, 0, 74, 0
2, 3460, Note_on_c, 0, 72, 100
2, 3500, Note_on_c, 0, 72, 0
2, 3500, Note_on_c, 0, 74, 100
2, 3540, Note_on_c, 0, 74, 0
2, 3540, Note_on_c, 0, 72, 100
2, 3580, Note_on_c, 0, 72, 0
2, 3580, Note_on_c, 0, 74, 100
2, 3620, Note_on_c, 0, 74, 0
2, 3620, Note_on_c, 0, 72, 100
2, 3650, Note_on_c, 0, 72, 0
2, 3660, Note_on_c, 0, 71, 100
2, 3720, Note_on_c, 0, 71, 0
2, 3720, Note_on_c, 0, 72, 100
2, 3780, Note_on_c, 0, 72, 0
2, 3780, Note_on_c, 0, 74, 100
2, 3840, Note_on_c, 0, 74, 0
2, 3840, Note_on_c, 0, 67, 100
2, 4200, Note_on_c, 0, 67, 0
2, 4200, Note_on_c, 0, 79, 100
2, 4260, Note_on_c, 0, 79, 0
2, 4260, Note_on_c, 0, 78, 100
2, 4320, Note_on_c, 0, 78, 0
2, 4320, Note_on_c, 0, 79, 100
2, 4680, Note_on_c, 0, 79, 0
2, 4680, Note_on_c, 0, 76, 100
2, 4800, Note_on_c, 0, 76, 0
2, 4800, Note_on_c, 0, 74, 100
2, 4920, Note_on_c, 0, 74, 0
2, 4920, Note_on_c, 0, 73, 100
2, 5160, Note_on_c, 0, 73, 0
2, 5160, Note_on_c, 0, 83, 100
2, 5280, Note_on_c, 0, 83, 0
2, 5280, Note_on_c, 0, 81, 100
2, 5640, Note_on_c, 0, 81, 0
2, 5640, Note_on_c, 0, 79, 100
2, 5760, Note_on_c, 0, 79, 0
2, 5760, Note_on_c, 0, 79, 100
2, 5820, Note_on_c, 0, 79, 0
2, 5820, Note_on_c, 0, 78, 100
2, 5880, Note_on_c, 0, 78, 0
2, 5880, Note_on_c, 0, 76, 100
2, 5940, Note_on_c, 0, 76, 0
2, 5940, Note_on_c, 0, 78, 100
2, 6000, Note_on_c, 0, 78, 0
2, 6000, Note_on_c, 0, 79, 100
2, 6040, Note_on_c, 0, 79, 0
2, 6040, Note_on_c, 0, 78, 100
2, 6080, Note_on_c, 0, 78, 0
2, 6080, Note_on_c, 0, 79, 100
2, 6120, Note_on_c, 0, 79, 0
2, 6120, Note_on_c, 0, 78, 100
2, 6160, Note_on_c, 0, 78, 0
2, 6160, Note_on_c, 0, 79, 100
2, 6200, Note_on_c, 0, 79, 0
2, 6200, Note_on_c, 0, 78, 100
2, 6480, Note_on_c, 0, 78, 0
2, 6480, Note_on_c, 0, 79, 100
2, 6720, Note_on_c, 0, 79, 0
2, 6720, Note_on_c, 0, 79, 100
2, 6840, Note_on_c, 0, 79, 0
2, 6840, Note_on_c, 0, 81, 100
2, 7980, Note_on_c, 0, 81, 0
2, 7980, Note_on_c, 0, 81, 100
2, 8040, Note_on_c, 0, 81, 0
2, 8040, Note_on_c, 0, 79, 100
2, 8100, Note_on_c, 0, 79, 0
2, 8100, Note_on_c, 0, 78, 100
2, 8160, Note_on_c, 0, 78, 0
2, 8160, Note_on_c, 0, 79, 100
2, 8520, Note_on_c, 0, 79, 0
2, 8520, Note_on_c, 0, 74, 100
2, 9600, Note_on_c, 0, 74, 0
2, 9600, Note_on_c, 0, 72, 100
2, 9840, Note_on_c, 0, 72, 0
2, 11040, Note_on_c, 0, 79, 100
2, 11100, Note_on_c, 0, 79, 0
2, 11100, Note_on_c, 0, 78, 100
2, 11160, Note_on_c, 0, 78, 0
2, 11160, Note_on_c, 0, 79, 100
2, 11400, Note_on_c, 0, 79, 0
2, 11400, Note_on_c, 0, 79, 100
2, 11520, Note_on_c, 0, 79, 0
2, 11520, Note_on_c, 0, 79, 100
2, 12060, Note_on_c, 0, 79, 0
2, 12060, Note_on_c, 0, 83, 100
2, 12120, Note_on_c, 0, 83, 0
2, 12120, Note_on_c, 0, 81, 100
2, 12180, Note_on_c, 0, 81, 0
2, 12180, Note_on_c, 0, 79, 100
2, 12240, Note_on_c, 0, 79, 0
2, 12240, Note_on_c, 0, 78, 100
2, 12300, Note_on_c, 0, 78, 0
2, 12300, Note_on_c, 0, 76, 100
2, 12360, Note_on_c, 0, 76, 0
2, 12360, Note_on_c, 0, 74, 100
2, 12420, Note_on_c, 0, 74, 0
2, 12420, Note_on_c, 0, 72, 100
2, 12480, Note_on_c, 0, 72, 0
2, 12480, Note_on_c, 0, 81, 100
2, 12840, Note_on_c, 0, 81, 0
2, 12840, Note_on_c, 0, 72, 100
2, 12960, Note_on_c, 0, 72, 0
2, 12960, Note_on_c, 0, 81, 100
2, 13320, Note_on_c, 0, 81, 0
2, 13320, Note_on_c, 0, 72, 100
2, 13440, Note_on_c, 0, 72, 0
2, 13440, Note_on_c, 0, 72, 100
2, 13500, Note_on_c, 0, 72, 0
2, 13500, Note_on_c, 0, 71, 100
2, 13560, Note_on_c, 0, 71, 0
2, 13560, Note_on_c, 0, 69, 100
2, 13620, Note_on_c, 0, 69, 0
2, 13620, Note_on_c, 0, 71, 100
2, 13680, Note_on_c, 0, 71, 0
2, 13680, Note_on_c, 0, 72, 100
2, 13720, Note_on_c, 0, 72, 0
2, 13720, Note_on_c, 0, 71, 100
2, 13760, Note_on_c, 0, 71, 0
2, 13760, Note_on_c, 0, 72, 100
2, 13800, Note_on_c, 0, 72, 0
2, 13800, Note_on_c, 0, 71, 100
2, 13840, Note_on_c, 0, 71, 0
2, 13840, Note_on_c, 0, 72, 100
2, 13880, Note_on_c, 0, 72, 0
2, 13880, Note_on_c, 0, 71, 100
2, 14220, Note_on_c, 0, 71, 0
2, 14220, Note_on_c, 0, 69, 100
2, 14280, Note_on_c, 0, 69, 0
2, 14280, Note_on_c, 0, 67, 100
2, 14340, Note_on_c, 0, 67, 0
2, 14340, Note_on_c, 0, 66, 100
2, 14400, Note_on_c, 0, 66, 0
2, 14400, Note_on_c, 0, 67, 100
2, 14520, Note_on_c, 0, 67, 0
2, 14520, Note_on_c, 0, 74, 100
2, 14640, Note_on_c, 0, 74, 0
2, 14640, Note_on_c, 0, 76, 100
2, 14760, Note_on_c, 0, 76, 0
2, 14760, Note_on_c, 0, 78, 100
2, 14880, Note_on_c, 0, 78, 0
2, 14880, Note_on_c, 0, 79, 100
2, 15000, Note_on_c, 0, 79, 0
2, 15000, Note_on_c, 0, 78, 100
2, 15120, Note_on_c, 0, 78, 0
2, 15120, Note_on_c, 0, 79, 100
2, 15240, Note_on_c, 0, 79, 0
2, 15240, Note_on_c, 0, 81, 100
2, 15360, Note_on_c, 0, 81, 0
2, 15360, Note_on_c, 0, 83, 100
2, 15660, Note_on_c, 0, 83, 0
2, 15660, Note_on_c, 0, 81, 100
2, 15720, Note_on_c, 0, 81, 0
2, 15720, Note_on_c, 0, 79, 100
2, 15780, Note_on_c, 0, 79, 0
2, 15780, Note_on_c, 0, 78, 100
2, 15840, Note_on_c, 0, 78, 0
2, 15840, Note_on_c, 0, 79, 100
2, 16140, Note_on_c, 0, 79, 0
2, 16140, Note_on_c, 0, 78, 100
2, 16200, Note_on_c, 0, 78, 0
2, 16200, Note_on_c, 0, 76, 100
2, 16260, Note_on_c, 0, 76, 0
2, 16260, Note_on_c, 0, 75, 100
2, 16320, Note_on_c, 0, 75, 0
2, 16320, Note_on_c, 0, 76, 100
2, 16680, Note_on_c, 0, 76, 0
2, 16680, Note_on_c, 0, 71, 100
2, 16800, Note_on_c, 0, 71, 0
2, 16800, Note_on_c, 0, 73, 100
2, 16840, Note_on_c, 0, 73, 0
2, 16840, Note_on_c, 0, 71, 100
2, 16880, Note_on_c, 0, 71, 0
2, 16880, Note_on_c, 0, 73, 100
2, 17160, Note_on_c, 0, 73, 0
2, 17160, Note_on_c, 0, 74, 100
2, 17280, Note_on_c, 0, 74, 0
2, 17280, Note_on_c, 0, 74, 100
2, 17400, Note_on_c, 0, 74, 0
2, 17400, Note_on_c, 0, 73, 100
2, 17580, Note_on_c, 0, 73, 0
2, 17580, Note_on_c, 0, 76, 100
2, 17640, Note_on_c, 0, 76, 0
2, 17640, Note_on_c, 0, 78, 100
2, 17700, Note_on_c, 0, 78, 0
2, 17700, Note_on_c, 0, 79, 100
2, 17760, Note_on_c, 0, 79, 0
2, 17760, Note_on_c, 0, 81, 100
2, 18120, Note_on_c, 0, 81, 0
2, 18120, Note_on_c, 0, 81, 100
2, 18240, Note_on_c, 0, 81, 0
2, 18240, Note_on_c, 0, 81, 100
2, 19020, Note_on_c, 0, 81, 0
2, 19020, Note_on_c, 0, 81, 100
2, 19080, Note_on_c, 0, 81, 0
2, 19080, Note_on_c, 0, 79, 100
2, 19140, Note_on_c, 0, 79, 0
2, 19140, Note_on_c, 0, 78, 100
2, 19200, Note_on_c, 0, 78, 0
2, 19200, Note_on_c, 0, 79, 100
2, 19500, Note_on_c, 0, 79, 0
2, 19500, Note_on_c, 0, 78, 100
2, 19560, Note_on_c, 0, 78, 0
2, 19560, Note_on_c, 0, 76, 100
2, 19620, Note_on_c, 0, 76, 0
2, 19620, Note_on_c, 0, 75, 100
2, 19680, Note_on_c, 0, 75, 0
2, 19680, Note_on_c, 0, 76, 100
2, 20040, Note_on_c, 0, 76, 0
2, 20040, Note_on_c, 0, 83, 100
2, 20160, Note_on_c, 0, 83, 0
2, 20160, Note_on_c, 0, 76, 100
2, 20220, Note_on_c, 0, 76, 0
2, 20220, Note_on_c, 0, 74, 100
2, 20280, Note_on_c, 0, 74, 0
2, 20280, Note_on_c, 0, 72, 100
2, 20340, Note_on_c, 0, 72, 0
2, 20340, Note_on_c, 0, 74, 100
2, 20400, Note_on_c, 0, 74, 0
2, 20400, Note_on_c, 0, 76, 100
2, 20440, Note_on_c, 0, 76, 0
2, 20440, Note_on_c, 0, 74, 100
2, 20480, Note_on_c, 0, 74, 0
2, 20480, Note_on_c, 0, 76, 100
2, 20520, Note_on_c, 0, 76, 0
2, 20520, Note_on_c, 0, 74, 100
2, 20560, Note_on_c, 0, 74, 0
2, 20560, Note_on_c, 0, 76, 100
2, 20600, Note_on_c, 0, 76, 0
2, 20600, Note_on_c, 0, 74, 100
2, 20640, Note_on_c, 0, 74, 0
2, 20640, Note_on_c, 0, 76, 100
2, 20680, Note_on_c, 0, 76, 0
2, 20680, Note_on_c, 0, 74, 100
2, 20880, Note_on_c, 0, 74, 0
2, 20880, Note_on_c, 0, 73, 100
2, 21000, Note_on_c, 0, 73, 0
2, 21000, Note_on_c, 0, 71, 100
2, 21120, Note_on_c, 0, 71, 0
2, 21120, Note_on_c, 0, 73, 100
2, 21420, Note_on_c, 0, 73, 0
2, 21420, Note_on_c, 0, 74, 100
2, 21480, Note_on_c, 0, 74, 0
2, 21480, Note_on_c, 0, 73, 100
2, 21540, Note_on_c, 0, 73, 0
2, 21540, Note_on_c, 0, 74, 100
2, 21600, Note_on_c, 0, 74, 0
2, 21600, Note_on_c, 0, 76, 100
2, 21640, Note_on_c, 0, 76, 0
2, 21640, Note_on_c, 0, 74, 100
2, 21680, Note_on_c, 0, 74, 0
2, 21680, Note_on_c, 0, 76, 100
2, 21720, Note_on_c, 0, 76, 0
2, 21720, Note_on_c, 0, 74, 100
2, 21760, Note_on_c, 0, 74, 0
2, 21760, Note_on_c, 0, 76, 100
2, 21800, Note_on_c, 0, 76, 0
2, 21800, Note_on_c, 0, 74, 100
2, 21840, Note_on_c, 0, 74, 0
2, 21840, Note_on_c, 0, 76, 100
2, 21900, Note_on_c, 0, 76, 0
2, 21900, Note_on_c, 0, 74, 100
2, 21960, Note_on_c, 0, 74, 0
2, 21960, Note_on_c, 0, 73, 100
2, 22020, Note_on_c, 0, 73, 0
2, 22020, Note_on_c, 0, 74, 100
2, 22080, Note_on_c, 0, 74, 0
2, 22080, Note_on_c, 0, 76, 100
2, 22620, Note_on_c, 0, 76, 0
2, 22620, Note_on_c, 0, 74, 100
2, 22680, Note_on_c, 0, 74, 0
2, 22680, Note_on_c, 0, 73, 100
2, 22740, Note_on_c, 0, 73, 0
2, 22740, Note_on_c, 0, 71, 100
2, 22800, Note_on_c, 0, 71, 0
2, 22800, Note_on_c, 0, 69, 100
2, 22860, Note_on_c, 0, 69, 0
2, 22860, Note_on_c, 0, 67, 100
2, 22920, Note_on_c, 0, 67, 0
2, 22920, Note_on_c, 0, 66, 100
2, 22980, Note_on_c, 0, 66, 0
2, 22980, Note_on_c, 0, 64, 100
2, 23040, Note_on_c, 0, 64, 0
2, 23040, Note_on_c, 0, 62, 100
2, 23400, Note_on_c, 0, 62, 0
2, 23400, Note_on_c, 0, 66, 100
2, 23520, Note_on_c, 0, 66, 0
2, 23520, Note_on_c, 0, 69, 100
2, 23580, Note_on_c, 0, 69, 0
2, 23580, Note_on_c, 0, 67, 100
2, 23640, Note_on_c, 0, 67, 0
2, 23640, Note_on_c, 0, 69, 100
2, 23880, Note_on_c, 0, 69, 0
2, 23880, Note_on_c, 0, 71, 100
2, 24000, Note_on_c, 0, 71, 0
2, 24000, Note_on_c, 0, 72, 100
2, 24780, Note_on_c, 0, 72, 0
2, 24780, Note_on_c, 0, 72, 100
2, 24840, Note_on_c, 0, 72, 0
2, 24840, Note_on_c, 0, 71, 100
2, 24900, Note_on_c, 0, 71, 0
2, 24900, Note_on_c, 0, 69, 100
2, 24960, Note_on_c, 0, 69, 0
2, 24960, Note_on_c, 0, 71, 100
2, 25260, Note_on_c, 0, 71, 0
2, 25260, Note_on_c, 0, 73, 100
2, 25320, Note_on_c, 0, 73, 0
2, 25320, Note_on_c, 0, 74, 100
2, 25380, Note_on_c, 0, 74, 0
2, 25380, Note_on_c, 0, 76, 100
2, 25440, Note_on_c, 0, 76, 0
2, 25440, Note_on_c, 0, 76, 100
2, 25500, Note_on_c, 0, 76, 0
2, 25500, Note_on_c, 0, 74, 100
2, 25560, Note_on_c, 0, 74, 0
2, 25560, Note_on_c, 0, 76, 100
2, 25620, Note_on_c, 0, 76, 0
2, 25620, Note_on_c, 0, 74, 100
2, 25740, Note_on_c, 0, 74, 0
2, 25740, Note_on_c, 0, 73, 100
2, 25800, Note_on_c, 0, 73, 0
2, 25800, Note_on_c, 0, 74, 100
2, 25860, Note_on_c, 0, 74, 0
2, 25860, Note_on_c, 0, 76, 100
2, 25920, Note_on_c, 0, 76, 0
2, 25920, Note_on_c, 0, 69, 100
2, 26220, Note_on_c, 0, 69, 0
2, 26220, Note_on_c, 0, 76, 100
2, 26280, Note_on_c, 0, 76, 0
2, 26280, Note_on_c, 0, 78, 100
2, 26340, Note_on_c, 0, 78, 0
2, 26340, Note_on_c, 0, 79, 100
2, 26400, Note_on_c, 0, 79, 0
2, 26400, Note_on_c, 0, 81, 100
2, 26760, Note_on_c, 0, 81, 0
2, 26760, Note_on_c, 0, 73, 100
2, 26880, Note_on_c, 0, 73, 0
2, 26880, Note_on_c, 0, 74, 100
2, 27360, Note_on_c, 0, 74, 0
2, 27360, Note_on_c, 0, 76, 100
2, 27420, Note_on_c, 0, 76, 0
2, 27420, Note_on_c, 0, 74, 100
2, 27480, Note_on_c, 0, 74, 0
2, 27480, Note_on_c, 0, 73, 100
2, 27540, Note_on_c, 0, 73, 0
2, 27540, Note_on_c, 0, 74, 100
2, 27600, Note_on_c, 0, 74, 0
2, 27600, Note_on_c, 0, 76, 100
2, 27840, Note_on_c, 0, 76, 0
2, 27840, Note_on_c, 0, 78, 100
2, 27900, Note_on_c, 0, 78, 0
2, 27900, Note_on_c, 0, 76, 100
2, 27960, Note_on_c, 0, 76, 0
2, 27960, Note_on_c, 0, 74, 100
2, 28020, Note_on_c, 0, 74, 0
2, 28020, Note_on_c, 0, 76, 100
2, 28080, Note_on_c, 0, 76, 0
2, 28080, Note_on_c, 0, 78, 100
2, 28120, Note_on_c, 0, 78, 0
2, 28120, Note_on_c, 0, 76, 100
2, 28160, Note_on_c, 0, 76, 0
2, 28160, Note_on_c, 0, 78, 100
2, 28200, Note_on_c, 0, 78, 0
2, 28200, Note_on_c, 0, 76, 100
2, 28240, Note_on_c, 0, 76, 0
2, 28240, Note_on_c, 0, 78, 100
2, 28280, Note_on_c, 0, 78, 0
2, 28280, Note_on_c, 0, 76, 100
2, 28560, Note_on_c, 0, 76, 0
2, 28560, Note_on_c, 0, 74, 100
2, 28800, Note_on_c, 0, 74, 0
2, 28800, Note_on_c, 0, 74, 100
2, 30720, Note_on_c, 0, 74, 0
2, 31260, Note_on_c, 0, 67, 100
2, 31320, Note_on_c, 0, 67, 0
2, 31320, Note_on_c, 0, 69, 100
2, 31380, Note_on_c, 0, 69, 0
2, 31380, Note_on_c, 0, 71, 100
2, 31440, Note_on_c, 0, 71, 0
2, 31440, Note_on_c, 0, 72, 100
2, 31500, Note_on_c, 0, 72, 0
2, 31500, Note_on_c, 0, 74, 100
2, 31560, Note_on_c, 0, 74, 0
2, 31560, Note_on_c, 0, 76, 100
2, 31620, Note_on_c, 0, 76, 0
2, 31620, Note_on_c, 0, 78, 100
2, 31680, Note_on_c, 0, 78, 0
2, 31680, Note_on_c, 0, 79, 100
2, 32040, Note_on_c, 0, 79, 0
2, 32040, Note_on_c, 0, 74, 100
2, 32160, Note_on_c, 0, 74, 0
2, 32160, Note_on_c, 0, 71, 100
2, 32520, Note_on_c, 0, 71, 0
2, 32520, Note_on_c, 0, 67, 100
2, 32640, Note_on_c, 0, 67, 0
2, 32640, Note_on_c, 0, 74, 100
2, 32700, Note_on_c, 0, 74, 0
2, 32700, Note_on_c, 0, 72, 100
2, 32760, Note_on_c, 0, 72, 0
2, 32760, Note_on_c, 0, 74, 100
2, 33360, Note_on_c, 0, 74, 0
2, 33360, Note_on_c, 0, 76, 100
2, 33600, Note_on_c, 0, 76, 0
2, 33600, Note_on_c, 0, 74, 100
2, 33720, Note_on_c, 0, 74, 0
2, 33720, Note_on_c, 0, 72, 100
2, 33780, Note_on_c, 0, 72, 0
2, 33780, Note_on_c, 0, 71, 100
2, 33840, Note_on_c, 0, 71, 0
2, 33840, Note_on_c, 0, 72, 100
2, 33900, Note_on_c, 0, 72, 0
2, 33900, Note_on_c, 0, 74, 100
2, 33940, Note_on_c, 0, 74, 0
2, 33940, Note_on_c, 0, 72, 100
2, 33980, Note_on_c, 0, 72, 0
2, 33980, Note_on_c, 0, 74, 100
2, 34020, Note_on_c, 0, 74, 0
2, 34020, Note_on_c, 0, 72, 100
2, 34060, Note_on_c, 0, 72, 0
2, 34060, Note_on_c, 0, 74, 100
2, 34100, Note_on_c, 0, 74, 0
2, 34100, Note_on_c, 0, 72, 100
2, 34140, Note_on_c, 0, 72, 0
2, 34140, Note_on_c, 0, 74, 100
2, 34180, Note_on_c, 0, 74, 0
2, 34180, Note_on_c, 0, 72, 100
2, 34220, Note_on_c, 0, 72, 0
2, 34220, Note_on_c, 0, 74, 100
2, 34260, Note_on_c, 0, 74, 0
2, 34260, Note_on_c, 0, 72, 100
2, 34300, Note_on_c, 0, 72, 0
2, 34300, Note_on_c, 0, 74, 100
2, 34340, Note_on_c, 0, 74, 0
2, 34340, Note_on_c, 0, 72, 100
2, 34370, Note_on_c, 0, 72, 0
2, 34380, Note_on_c, 0, 71, 100
2, 34440, Note_on_c, 0, 71, 0
2, 34440, Note_on_c, 0, 72, 100
2, 34500, Note_on_c, 0, 72, 0
2, 34500, Note_on_c, 0, 74, 100
2, 34560, Note_on_c, 0, 74, 0
2, 34560, Note_on_c, 0, 67, 100
2, 34920, Note_on_c, 0, 67, 0
2, 34920, Note_on_c, 0, 79, 100
2, 34980, Note_on_c, 0, 79, 0
2, 34980, Note_on_c, 0, 78, 100
2, 35040, Note_on_c, 0, 78, 0
2, 35040, Note_on_c, 0, 79, 100
2, 35400, Note_on_c, 0, 79, 0
2, 35400, Note_on_c, 0, 76, 100
2, 35520, Note_on_c, 0, 76, 0
2, 35520, Note_on_c, 0, 74, 100
2, 35640, Note_on_c, 0, 74, 0
2, 35640, Note_on_c, 0, 73, 100
2, 35880, Note_on_c, 0, 73, 0
2, 35880, Note_on_c, 0, 83, 100
2, 36000, Note_on_c, 0, 83, 0
2, 36000, Note_on_c, 0, 81, 100
2, 36360, Note_on_c, 0, 81, 0
2, 36360, Note_on_c, 0, 79, 100
2, 36480, Note_on_c, 0, 79, 0
2, 36480, Note_on_c, 0, 79, 100
2, 36540, Note_on_c, 0, 79, 0
2, 36540, Note_on_c, 0, 78, 100
2, 36600, Note_on_c, 0, 78, 0
2, 36600, Note_on_c, 0, 76, 100
2, 36660, Note_on_c, 0, 76, 0
2, 36660, Note_on_c, 0, 78, 100
2, 36720, Note_on_c, 0, 78, 0
2, 36720, Note_on_c, 0, 79, 100
2, 36760, Note_on_c, 0, 79, 0
2, 36760, Note_on_c, 0, 78, 100
2, 36800, Note_on_c, 0, 78, 0
2, 36800, Note_on_c, 0, 79, 100
2, 36840, Note_on_c, 0, 79, 0
2, 36840, Note_on_c, 0, 78, 100
2, 36880, Note_on_c, 0, 78, 0
2, 36880, Note_on_c, 0, 79, 100
2, 36920, Note_on_c, 0, 79, 0
2, 36920, Note_on_c, 0, 78, 100
2, 37200, Note_on_c, 0, 78, 0
2, 37200, Note_on_c, 0, 79, 100
2, 37440, Note_on_c, 0, 79, 0
2, 37440, Note_on_c, 0, 79, 100
2, 37560, Note_on_c, 0, 79, 0
2, 37560, Note_on_c, 0, 81, 100
2, 38700, Note_on_c, 0, 81, 0
2, 38700, Note_on_c, 0, 81, 100
2, 38760, Note_on_c, 0, 81, 0
2, 38760, Note_on_c, 0, 79, 100
2, 38820, Note_on_c, 0, 79, 0
2, 38820, Note_on_c, 0, 78, 100
2, 38880, Note_on_c, 0, 78, 0
2, 38880, Note_on_c, 0, 79, 100
2, 39240, Note_on_c, 0, 79, 0
2, 39240, Note_on_c, 0, 74, 100
2, 40320, Note_on_c, 0, 74, 0
2, 40320, Note_on_c, 0, 72, 100
2, 40560, Note_on_c, 0, 72, 0
2, 41760, Note_on_c, 0, 79, 100
2, 41820, Note_on_c, 0, 79, 0
2, 41820, Note_on_c, 0, 78, 100
2, 41880, Note_on_c, 0, 78, 0
2, 41880, Note_on_c, 0, 79, 100
2, 42120, Note_on_c, 0, 79, 0
2, 42120, Note_on_c, 0, 79, 100
2, 42240, Note_on_c, 0, 79, 0
2, 42240, Note_on_c, 0, 79, 100
2, 42780, Note_on_c, 0, 79, 0
2, 42780, Note_on_c, 0, 83, 100
2, 42840, Note_on_c, 0, 83, 0
2, 42840, Note_on_c, 0, 81, 100
2, 42900, Note_on_c, 0, 81, 0
2, 42900, Note_on_c, 0, 79, 100
2, 42960, Note_on_c, 0, 79, 0
2, 42960, Note_on_c, 0, 78, 100
2, 43020, Note_on_c, 0, 78, 0
2, 43020, Note_on_c, 0, 76, 100
2, 43080, Note_on_c, 0, 76, 0
2, 43080, Note_on_c, 0, 74, 100
2, 43140, Note_on_c, 0, 74, 0
2, 43140, Note_on_c, 0, 72, 100
2, 43200, Note_on_c, 0, 72, 0
2, 43200, Note_on_c, 0, 81, 100
2, 43560, Note_on_c, 0, 81, 0
2, 43560, Note_on_c, 0, 72, 100
2, 43680, Note_on_c, 0, 72, 0
2, 43680, Note_on_c, 0, 81, 100
2, 44040, Note_on_c, 0, 81, 0
2, 44040, Note_on_c, 0, 72, 100
2, 44160, Note_on_c, 0, 72, 0
2, 44160, Note_on_c, 0, 72, 100
2, 44220, Note_on_c, 0, 72, 0
2, 44220, Note_on_c, 0, 71, 100
2, 44280, Note_on_c, 0, 71, 0
2, 44280, Note_on_c, 0, 69, 100
2, 44340, Note_on_c, 0, 69, 0
2, 44340, Note_on_c, 0, 71, 100
2, 44400, Note_on_c, 0, 71, 0
2, 44400, Note_on_c, 0, 72, 100
2, 44440, Note_on_c, 0, 72, 0
2, 44440, Note_on_c, 0, 71, 100
2, 44480, Note_on_c, 0, 71, 0
2, 44480, Note_on_c, 0, 72, 100
2, 44520, Note_on_c, 0, 72, 0
2, 44520, Note_on_c, 0, 71, 100
2, 44560, Note_on_c, 0, 71, 0
2, 44560, Note_on_c, 0, 72, 100
2, 44600, Note_on_c, 0, 72, 0
2, 44600, Note_on_c, 0, 71, 100
2, 44940, Note_on_c, 0, 71, 0
2, 44940, Note_on_c, 0, 69, 100
2, 45000, Note_on_c, 0, 69, 0
2, 45000, Note_on_c, 0, 67, 100
2, 45060, Note_on_c, 0, 67, 0
2, 45060, Note_on_c, 0, 66, 100
2, 45120, Note_on_c, 0, 66, 0
2, 45120, Note_on_c, 0, 67, 100
2, 45240, Note_on_c, 0, 67, 0
2, 45240, Note_on_c, 0, 74, 100
2, 45360, Note_on_c, 0, 74, 0
2, 45360, Note_on_c, 0, 76, 100
2, 45480, Note_on_c, 0, 76, 0
2, 45480, Note_on_c, 0, 78, 100
2, 45600, Note_on_c, 0, 78, 0
2, 45600, Note_on_c, 0, 79, 100
2, 45720, Note_on_c, 0, 79, 0
2, 45720, Note_on_c, 0, 78, 100
2, 45840, Note_on_c, 0, 78, 0
2, 45840, Note_on_c, 0, 79, 100
2, 45960, Note_on_c, 0, 79, 0
2, 45960, Note_on_c, 0, 81, 100
2, 46080, Note_on_c, 0, 81, 0
2, 46080, Note_on_c, 0, 83, 100
2, 46380, Note_on_c, 0, 83, 0
2, 46380, Note_on_c, 0, 81, 100
2, 46440, Note_on_c, 0, 81, 0
2, 46440, Note_on_c, 0, 79, 100
2, 46500, Note_on_c, 0, 79, 0
2, 46500, Note_on_c, 0, 78, 100
2, 46560, Note_on_c, 0, 78, 0
2, 46560, Note_on_c, 0, 79, 100
2, 46860, Note_on_c, 0, 79, 0
2, 46860, Note_on_c, 0, 78, 100
2, 46920, Note_on_c, 0, 78, 0
2, 46920, Note_on_c, 0, 76, 100
2, 46980, Note_on_c, 0, 76, 0
2, 46980, Note_on_c, 0, 75, 100
2, 47040, Note_on_c, 0, 75, 0
2, 47040, Note_on_c, 0, 76, 100
2, 47400, Note_on_c, 0, 76, 0
2, 47400, Note_on_c, 0, 71, 100
2, 47520, Note_on_c, 0, 71, 0
2, 47520, Note_on_c, 0, 73, 100
2, 47560, Note_on_c, 0, 73, 0
2, 47560, Note_on_c, 0, 71, 100
2, 47600, Note_on_c, 0, 71, 0
2, 47600, Note_on_c, 0, 73, 100
2, 47880, Note_on_c, 0, 73, 0
2, 47880, Note_on_c, 0, 74, 100
2, 48000, Note_on_c, 0, 74, 0
2, 48000, Note_on_c, 0, 74, 100
2, 48120, Note_on_c, 0, 74, 0
2, 48120, Note_on_c, 0, 73, 100
2, 48300, Note_on_c, 0, 73, 0
2, 48300, Note_on_c, 0, 76, 100
2, 48360, Note_on_c, 0, 76, 0
2, 48360, Note_on_c, 0, 78, 100
2, 48420, Note_on_c, 0, 78, 0
2, 48420, Note_on_c, 0, 79, 100
2, 48480, Note_on_c, 0, 79, 0
2, 48480, Note_on_c, 0, 81, 100
2, 48840, Note_on_c, 0, 81, 0
2, 48840, Note_on_c, 0, 81, 100
2, 48960, Note_on_c, 0, 81, 0
2, 48960, Note_on_c, 0, 81, 100
2, 49740, Note_on_c, 0, 81, 0
2, 49740, Note_on_c, 0, 81, 100
2, 49800, Note_on_c, 0, 81, 0
2, 49800, Note_on_c, 0, 79, 100
2, 49860, Note_on_c, 0, 79, 0
2, 49860, Note_on_c, 0, 78, 100
2, 49920, Note_on_c, 0, 78, 0
2, 49920, Note_on_c, 0, 79, 100
2, 50220, Note_on_c, 0, 79, 0
2, 50220, Note_on_c, 0, 78, 100
2, 50280, Note_on_c, 0, 78, 0
2, 50280, Note_on_c, 0, 76, 100
2, 50340, Note_on_c, 0, 76, 0
2, 50340, Note_on_c, 0, 75, 100
2, 50400, Note_on_c, 0, 75, 0
2, 50400, Note_on_c, 0, 76, 100
2, 50760, Note_on_c, 0, 76, 0
2, 50760, Note_on_c, 0, 83, 100
2, 50880, Note_on_c, 0, 83, 0
2, 50880, Note_on_c, 0, 76, 100
2, 50940, Note_on_c, 0, 76, 0
2, 50940, Note_on_c, 0, 74, 100
2, 51000, Note_on_c, 0, 74, 0
2, 51000, Note_on_c, 0, 72, 100
2, 51060, Note_on_c, 0, 72, 0
2, 51060, Note_on_c, 0, 74, 100
2, 51120, Note_on_c, 0, 74, 0
2, 51120, Note_on_c, 0, 76, 100
2, 51160, Note_on_c, 0, 76, 0
2, 51160, Note_on_c, 0, 74, 100
2, 51200, Note_on_c, 0, 74, 0
2, 51200, Note_on_c, 0, 76, 100
2, 51240, Note_on_c, 0, 76, 0
2, 51240, Note_on_c, 0, 74, 100
2, 51280, Note_on_c, 0, 74, 0
2, 51280, Note_on_c, 0, 76, 100
2, 51320, Note_on_c, 0, 76, 0
2, 51320, Note_on_c, 0, 74, 100
2, 51360, Note_on_c, 0, 74, 0
2, 51360, Note_on_c, 0, 76, 100
2, 51400, Note_on_c, 0, 76, 0
2, 51400, Note_on_c, 0, 74, 100
2, 51600, Note_on_c, 0, 74, 0
2, 51600, Note_on_c, 0, 73, 100
2, 51720, Note_on_c, 0, 73, 0
2, 51720, Note_on_c, 0, 71, 100
2, 51840, Note_on_c, 0, 71, 0
2, 51840, Note_on_c, 0, 73, 100
2, 52140, Note_on_c, 0, 73, 0
2, 52140, Note_on_c, 0, 74, 100
2, 52200, Note_on_c, 0, 74, 0
2, 52200, Note_on_c, 0, 73, 100
2, 52260, Note_on_c, 0, 73, 0
2, 52260, Note_on_c, 0, 74, 100
2, 52320, Note_on_c, 0, 74, 0
2, 52320, Note_on_c, 0, 76, 100
2, 52360, Note_on_c, 0, 76, 0
2, 52360, Note_on_c, 0, 74, 100
2, 52400, Note_on_c, 0, 74, 0
2, 52400, Note_on_c, 0, 76, 100
2, 52440, Note_on_c, 0, 76, 0
2, 52440, Note_on_c, 0, 74, 100
2, 52480, Note_on_c, 0, 74, 0
2, 52480, Note_on_c, 0, 76, 100
2, 52520, Note_on_c, 0, 76, 0
2, 52520, Note_on_c, 0, 74, 100
2, 52560, Note_on_c, 0, 74, 0
2, 52560, Note_on_c, 0, 76, 100
2, 52620, Note_on_c, 0, 76, 0
2, 52620, Note_on_c, 0, 74, 100
2, 52680, Note_on_c, 0, 74, 0
2, 52680, Note_on_c, 0, 73, 100
2, 52740, Note_on_c, 0, 73, 0
2, 52740, Note_on_c, 0, 74, 100
2, 52800, Note_on_c, 0, 74, 0
2, 52800, Note_on_c, 0, 76, 100
2, 53340, Note_on_c, 0, 76, 0
2, 53340, Note_on_c, 0, 74, 100
2, 53400, Note_on_c, 0, 74, 0
2, 53400, Note_on_c, 0, 73, 100
2, 53460, Note_on_c, 0, 73, 0
2, 53460, Note_on_c, 0, 71, 100
2, 53520, Note_on_c, 0, 71, 0
2, 53520, Note_on_c, 0, 69, 100
2, 53580, Note_on_c, 0, 69, 0
2, 53580, Note_on_c, 0, 67, 100
2, 53640, Note_on_c, 0, 67, 0
2, 53640, Note_on_c, 0, 66, 100
2, 53700, Note_on_c, 0, 66, 0
2, 53700, Note_on_c, 0, 64, 100
2, 53760, Note_on_c, 0, 64, 0
2, 53760, Note_on_c, 0, 62, 100
2, 54120, Note_on_c, 0, 62, 0
2, 54120, Note_on_c, 0, 66, 100
2, 54240, Note_on_c, 0, 66, 0
2, 54240, Note_on_c, 0, 69, 100
2, 54300, Note_on_c, 0, 69, 0
2, 54300, Note_on_c, 0, 67, 100
2, 54360, Note_on_c, 0, 67, 0
2, 54360, Note_on_c, 0, 69, 100
2, 54600, Note_on_c, 0, 69, 0
2, 54600, Note_on_c, 0, 71, 100
2, 54720, Note_on_c, 0, 71, 0
2, 54720, Note_on_c, 0, 72, 100
2, 55500, Note_on_c, 0, 72, 0
2, 55500, Note_on_c, 0, 72, 100
2, 55560, Note_on_c, 0, 72, 0
2, 55560, Note_on_c, 0, 71, 100
2, 55620, Note_on_c, 0, 71, 0
2, 55620, Note_on_c, 0, 69, 100
2, 55680, Note_on_c, 0, 69, 0
2, 55680, Note_on_c, 0, 71, 100
2, 55980, Note_on_c, 0, 71, 0
2, 55980, Note_on_c, 0, 73, 100
2, 56040, Note_on_c, 0, 73, 0
2, 56040, Note_on_c, 0, 74, 100
2, 56100, Note_on_c, 0, 74, 0
2, 56100, Note_on_c, 0, 76, 100
2, 56160, Note_on_c, 0, 76, 0
2, 56160, Note_on_c, 0, 76, 100
2, 56220, Note_on_c, 0, 76, 0
2, 56220, Note_on_c, 0, 74, 100
2, 56280, Note_on_c, 0, 74, 0
2, 56280, Note_on_c, 0, 76, 100
2, 56340, Note_on_c, 0, 76, 0
2, 56340, Note_on_c, 0, 74, 100
2, 56460, Note_on_c, 0, 74, 0
2, 56460, Note_on_c, 0, 73, 100
2, 56520, Note_on_c, 0, 73, 0
2, 56520, Note_on_c, 0, 74, 100
2, 56580, Note_on_c, 0, 74, 0
2, 56580, Note_on_c, 0, 76, 100
2, 56640, Note_on_c, 0, 76, 0
2, 56640, Note_on_c, 0, 69, 100
2, 56940, Note_on_c, 0, 69, 0
2, 56940, Note_on_c, 0, 76, 100
2, 57000, Note_on_c, 0, 76, 0
2, 57000, Note_on_c, 0, 78, 100
2, 57060, Note_on_c, 0, 78, 0
2, 57060, Note_on_c, 0, 79, 100
2, 57120, Note_on_c, 0, 79, 0
2, 57120, Note_on_c, 0, 81, 100
2, 57480, Note_on_c, 0, 81, 0
2, 57480, Note_on_c, 0, 73, 100
2, 57600, Note_on_c, 0, 73, 0
2, 57600, Note_on_c, 0, 74, 100
2, 58080, Note_on_c, 0, 74, 0
2, 58080, Note_on_c, 0, 76, 100
2, 58140, Note_on_c, 0, 76, 0
2, 58140, Note_on_c, 0, 74, 100
2, 58200, Note_on_c, 0, 74, 0
2, 58200, Note_on_c, 0, 73, 100
2, 58260, Note_on_c, 0, 73, 0
2, 58260, Note_on_c, 0, 74, 100
2, 58320, Note_on_c, 0, 74, 0
2, 58320, Note_on_c, 0, 76, 100
2, 58560, Note_on_c, 0, 76, 0
2, 58560, Note_on_c, 0, 78, 100
2, 58620, Note_on_c, 0, 78, 0
2, 58620, Note_on_c, 0, 76, 100
2, 58680, Note_on_c, 0, 76, 0
2, 58680, Note_on_c, 0, 74, 100
2, 58740, Note_on_c, 0, 74, 0
2, 58740, Note_on_c, 0, 76, 100
2, 58800, Note_on_c, 0, 76, 0
2, 58800, Note_on_c, 0, 78, 100
2, 58840, Note_on_c, 0, 78, 0
2, 58840, Note_on_c, 0, 76, 100
2, 58880, Note_on_c, 0, 76, 0
2, 58880, Note_on_c, 0, 78, 100
2, 58920, Note_on_c, 0, 78, 0
2, 58920, Note_on_c, 0, 76, 100
2, 58960, Note_on_c, 0, 76, 0
2, 58960, Note_on_c, 0, 78, 100
2, 59000, Note_on_c, 0, 78, 0
2, 59000, Note_on_c, 0, 76, 100
2, 59280, Note_on_c, 0, 76, 0
2, 59280, Note_on_c, 0, 74, 100
2, 59520, Note_on_c, 0, 74, 0
2, 59520, Note_on_c, 0, 74, 100
2, 59760, Note_on_c, 0, 74, 0
2, 59760, Note_on_c, 0, 81, 100
2, 59880, Note_on_c, 0, 81, 0
2, 59880, Note_on_c, 0, 79, 100
2, 60000, Note_on_c, 0, 79, 0
2, 60000, Note_on_c, 0, 78, 100
2, 60120, Note_on_c, 0, 78, 0
2, 60120, Note_on_c, 0, 76, 100
2, 60240, Note_on_c, 0, 76, 0
2, 60240, Note_on_c, 0, 78, 100
2, 60480, Note_on_c, 0, 78, 0
2, 60480, Note_on_c, 0, 81, 100
2, 60540, Note_on_c, 0, 81, 0
2, 60540, Note_on_c, 0, 79, 100
2, 60600, Note_on_c, 0, 79, 0
2, 60600, Note_on_c, 0, 78, 100
2, 60660, Note_on_c, 0, 78, 0
2, 60660, Note_on_c, 0, 79, 100
2, 60720, Note_on_c, 0, 79, 0
2, 60720, Note_on_c, 0, 81, 100
2, 60960, Note_on_c, 0, 81, 0
2, 60960, Note_on_c, 0, 74, 100
2, 61080, Note_on_c, 0, 74, 0
2, 61080, Note_on_c, 0, 78, 100
2, 61200, Note_on_c, 0, 78, 0
2, 61200, Note_on_c, 0, 76, 100
2, 61320, Note_on_c, 0, 76, 0
2, 61320, Note_on_c, 0, 79, 100
2, 61440, Note_on_c, 0, 79, 0
2, 61440, Note_on_c, 0, 78, 100
2, 61560, Note_on_c, 0, 78, 0
2, 61560, Note_on_c, 0, 81, 100
2, 61680, Note_on_c, 0, 81, 0
2, 61680, Note_on_c, 0, 79, 100
2, 61920, Note_on_c, 0, 79, 0
2, 61920, Note_on_c, 0, 78, 100
2, 62160, Note_on_c, 0, 78, 0
2, 62160, Note_on_c, 0, 79, 100
2, 62400, Note_on_c, 0, 79, 0
2, 62400, Note_on_c, 0, 76, 100
2, 62640, Note_on_c, 0, 76, 0
2, 62640, Note_on_c, 0, 75, 100
2, 62880, Note_on_c, 0, 75, 0
2, 62880, Note_on_c, 0, 76, 100
2, 63120, Note_on_c, 0, 76, 0
2, 63120, Note_on_c, 0, 81, 100
2, 64080, Note_on_c, 0, 81, 0
2, 64080, Note_on_c, 0, 79, 100
2, 64200, Note_on_c, 0, 79, 0
2, 64200, Note_on_c, 0, 76, 100
2, 64320, Note_on_c, 0, 76, 0
2, 64320, Note_on_c, 0, 78, 100
2, 64440, Note_on_c, 0, 78, 0
2, 64440, Note_on_c, 0, 75, 100
2, 64560, Note_on_c, 0, 75, 0
2, 64560, Note_on_c, 0, 83, 100
2, 65400, Note_on_c, 0, 83, 0
2, 65400, Note_on_c, 0, 84, 100
2, 65520, Note_on_c, 0, 84, 0
2, 65520, Note_on_c, 0, 83, 100
2, 65640, Note_on_c, 0, 83, 0
2, 65640, Note_on_c, 0, 81, 100
2, 65760, Note_on_c, 0, 81, 0
2, 65760, Note_on_c, 0, 79, 100
2, 65880, Note_on_c, 0, 79, 0
2, 65880, Note_on_c, 0, 78, 100
2, 66000, Note_on_c, 0, 78, 0
2, 66000, Note_on_c, 0, 79, 100
2, 66120, Note_on_c, 0, 79, 0
2, 66120, Note_on_c, 0, 76, 100
2, 66240, Note_on_c, 0, 76, 0
2, 66240, Note_on_c, 0, 81, 100
2, 66360, Note_on_c, 0, 81, 0
2, 66360, Note_on_c, 0, 76, 100
2, 66480, Note_on_c, 0, 76, 0
2, 66480, Note_on_c, 0, 83, 100
2, 66600, Note_on_c, 0, 83, 0
2, 66600, Note_on_c, 0, 76, 100
2, 66720, Note_on_c, 0, 76, 0
2, 66720, Note_on_c, 0, 84, 100
2, 66840, Note_on_c, 0, 84, 0
2, 66840, Note_on_c, 0, 83, 100
2, 66960, Note_on_c, 0, 83, 0
2, 66960, Note_on_c, 0, 81, 100
2, 67080, Note_on_c, 0, 81, 0
2, 67080, Note_on_c, 0, 79, 100
2, 67200, Note_on_c, 0, 79, 0
2, 67200, Note_on_c, 0, 78, 100
2, 67320, Note_on_c, 0, 78, 0
2, 67320, Note_on_c, 0, 76, 100
2, 67440, Note_on_c, 0, 76, 0
2, 67440, Note_on_c, 0, 74, 100
2, 67560, Note_on_c, 0, 74, 0
2, 67560, Note_on_c, 0, 78, 100
2, 67680, Note_on_c, 0, 78, 0
2, 67680, Note_on_c, 0, 76, 100
2, 67800, Note_on_c, 0, 76, 0
2, 67800, Note_on_c, 0, 79, 100
2, 67920, Note_on_c, 0, 79, 0
2, 67920, Note_on_c, 0, 78, 100
2, 68040, Note_on_c, 0, 78, 0
2, 68040, Note_on_c, 0, 81, 100
2, 68160, Note_on_c, 0, 81, 0
2, 68160, Note_on_c, 0, 79, 100
2, 68280, Note_on_c, 0, 79, 0
2, 68280, Note_on_c, 0, 81, 100
2, 68400, Note_on_c, 0, 81, 0
2, 68400, Note_on_c, 0, 83, 100
2, 68460, Note_on_c, 0, 83, 0
2, 68460, Note_on_c, 0, 81, 100
2, 68520, Note_on_c, 0, 81, 0
2, 68520, Note_on_c, 0, 83, 100
2, 68580, Note_on_c, 0, 83, 0
2, 68580, Note_on_c, 0, 81, 100
2, 68640, Note_on_c, 0, 81, 0
2, 68640, Note_on_c, 0, 83, 100
2, 68700, Note_on_c, 0, 83, 0
2, 68700, Note_on_c, 0, 81, 100
2, 68760, Note_on_c, 0, 81, 0
2, 68760, Note_on_c, 0, 79, 100
2, 68820, Note_on_c, 0, 79, 0
2, 68820, Note_on_c, 0, 81, 100
2, 68880, Note_on_c, 0, 81, 0
2, 68880, Note_on_c, 0, 83, 100
2, 69360, Note_on_c, 0, 83, 0
2, 69360, Note_on_c, 0, 79, 100
2, 69600, Note_on_c, 0, 79, 0
2, 69600, Note_on_c, 0, 76, 100
2, 69840, Note_on_c, 0, 76, 0
2, 69840, Note_on_c, 0, 78, 100
2, 70080, Note_on_c, 0, 78, 0
2, 70080, Note_on_c, 0, 75, 100
2, 70320, Note_on_c, 0, 75, 0
2, 70320, Note_on_c, 0, 76, 100
2, 70800, Note_on_c, 0, 76, 0
2, 71280, Note_on_c, 0, 76, 100
2, 71400, Note_on_c, 0, 76, 0
2, 71400, Note_on_c, 0, 74, 100
2, 71520, Note_on_c, 0, 74, 0
2, 71520, Note_on_c, 0, 72, 100
2, 71640, Note_on_c, 0, 72, 0
2, 71640, Note_on_c, 0, 71, 100
2, 71760, Note_on_c, 0, 71, 0
2, 71760, Note_on_c, 0, 72, 100
2, 72000, Note_on_c, 0, 72, 0
2, 72000, Note_on_c, 0, 74, 100
2, 72240, Note_on_c, 0, 74, 0
2, 72240, Note_on_c, 0, 76, 100
2, 72480, Note_on_c, 0, 76, 0
2, 72480, Note_on_c, 0, 69, 100
2, 72600, Note_on_c, 0, 69, 0
2, 72600, Note_on_c, 0, 72, 100
2, 72720, Note_on_c, 0, 72, 0
2, 72720, Note_on_c, 0, 71, 100
2, 72840, Note_on_c, 0, 71, 0
2, 72840, Note_on_c, 0, 74, 100
2, 72960, Note_on_c, 0, 74, 0
2, 72960, Note_on_c, 0, 73, 100
2, 73080, Note_on_c, 0, 73, 0
2, 73080, Note_on_c, 0, 76, 100
2, 73200, Note_on_c, 0, 76, 0
2, 73200, Note_on_c, 0, 74, 100
2, 73260, Note_on_c, 0, 74, 0
2, 73260, Note_on_c, 0, 76, 100
2, 73320, Note_on_c, 0, 76, 0
2, 73320, Note_on_c, 0, 78, 100
2, 73440, Note_on_c, 0, 78, 0
2, 73440, Note_on_c, 0, 79, 100
2, 73500, Note_on_c, 0, 79, 0
2, 73500, Note_on_c, 0, 78, 100
2, 73560, Note_on_c, 0, 78, 0
2, 73560, Note_on_c, 0, 76, 100
2, 73620, Note_on_c, 0, 76, 0
2, 73620, Note_on_c, 0, 78, 100
2, 73680, Note_on_c, 0, 78, 0
2, 73680, Note_on_c, 0, 79, 100
2, 73710, Note_on_c, 0, 79, 0
2, 73710, Note_on_c, 0, 78, 100
2, 73740, Note_on_c, 0, 78, 0
2, 73740, Note_on_c, 0, 79, 100
2, 73770, Note_on_c, 0, 79, 0
2, 73770, Note_on_c, 0, 78, 100
2, 73800, Note_on_c, 0, 78, 0
2, 73800, Note_on_c, 0, 76, 100
2, 73860, Note_on_c, 0, 76, 0
2, 73860, Note_on_c, 0, 78, 100
2, 73920, Note_on_c, 0, 78, 0
2, 73920, Note_on_c, 0, 79, 100
2, 74160, Note_on_c, 0, 79, 0
2, 74160, Note_on_c, 0, 78, 100
2, 74280, Note_on_c, 0, 78, 0
2, 74280, Note_on_c, 0, 76, 100
2, 74400, Note_on_c, 0, 76, 0
2, 74400, Note_on_c, 0, 74, 100
2, 74520, Note_on_c, 0, 74, 0
2, 74520, Note_on_c, 0, 72, 100
2, 74640, Note_on_c, 0, 72, 0
2, 74640, Note_on_c, 0, 71, 100
2, 74760, Note_on_c, 0, 71, 0
2, 74760, Note_on_c, 0, 74, 100
2, 74880, Note_on_c, 0, 74, 0
2, 74880, Note_on_c, 0, 72, 100
2, 75000, Note_on_c, 0, 72, 0
2, 75000, Note_on_c, 0, 76, 100
2, 75120, Note_on_c, 0, 76, 0
2, 75120, Note_on_c, 0, 74, 100
2, 75240, Note_on_c, 0, 74, 0
2, 75240, Note_on_c, 0, 77, 100
2, 75360, Note_on_c, 0, 77, 0
2, 75360, Note_on_c, 0, 76, 100
2, 76200, Note_on_c, 0, 76, 0
2, 76200, Note_on_c, 0, 74, 100
2, 76320, Note_on_c, 0, 74, 0
2, 76320, Note_on_c, 0, 72, 100
2, 76440, Note_on_c, 0, 72, 0
2, 76440, Note_on_c, 0, 71, 100
2, 76560, Note_on_c, 0, 71, 0
2, 76560, Note_on_c, 0, 72, 100
2, 76680, Note_on_c, 0, 72, 0
2, 76680, Note_on_c, 0, 78, 100
2, 76800, Note_on_c, 0, 78, 0
2, 76800, Note_on_c, 0, 81, 100
2, 76920, Note_on_c, 0, 81, 0
2, 76920, Note_on_c, 0, 74, 100
2, 77040, Note_on_c, 0, 74, 0
2, 77040, Note_on_c, 0, 72, 100
2, 77160, Note_on_c, 0, 72, 0
2, 77160, Note_on_c, 0, 71, 100
2, 77280, Note_on_c, 0, 71, 0
2, 77280, Note_on_c, 0, 72, 100
2, 77400, Note_on_c, 0, 72, 0
2, 77400, Note_on_c, 0, 69, 100
2, 77520, Note_on_c, 0, 69, 0
2, 77520, Note_on_c, 0, 71, 100
2, 77640, Note_on_c, 0, 71, 0
2, 77640, Note_on_c, 0, 76, 100
2, 77760, Note_on_c, 0, 76, 0
2, 77760, Note_on_c, 0, 74, 100
2, 77880, Note_on_c, 0, 74, 0
2, 77880, Note_on_c, 0, 72, 100
2, 78000, Note_on_c, 0, 72, 0
2, 78000, Note_on_c, 0, 74, 100
2, 78120, Note_on_c, 0, 74, 0
2, 78120, Note_on_c, 0, 80, 100
2, 78240, Note_on_c, 0, 80, 0
2, 78240, Note_on_c, 0, 83, 100
2, 78360, Note_on_c, 0, 83, 0
2, 78360, Note_on_c, 0, 76, 100
2, 78480, Note_on_c, 0, 76, 0
2, 78480, Note_on_c, 0, 74, 100
2, 78600, Note_on_c, 0, 74, 0
2, 78600, Note_on_c, 0, 72, 100
2, 78720, Note_on_c, 0, 72, 0
2, 78720, Note_on_c, 0, 74, 100
2, 78840, Note_on_c, 0, 74, 0
2, 78840, Note_on_c, 0, 71, 100
2, 78960, Note_on_c, 0, 71, 0
2, 78960, Note_on_c, 0, 72, 100
2, 79800, Note_on_c, 0, 72, 0
2, 79800, Note_on_c, 0, 71, 100
2, 79920, Note_on_c, 0, 71, 0
2, 79920, Note_on_c, 0, 69, 100
2, 80040, Note_on_c, 0, 69, 0
2, 80040, Note_on_c, 0, 71, 100
2, 80160, Note_on_c, 0, 71, 0
2, 80160, Note_on_c, 0, 72, 100
2, 80280, Note_on_c, 0, 72, 0
2, 80280, Note_on_c, 0, 69, 100
2, 80400, Note_on_c, 0, 69, 0
2, 80400, Note_on_c, 0, 74, 100
2, 80880, Note_on_c, 0, 74, 0
2, 80880, Note_on_c, 0, 71, 100
2, 81120, Note_on_c, 0, 71, 0
2, 81120, Note_on_c, 0, 67, 100
2, 81360, Note_on_c, 0, 67, 0
2, 81360, Note_on_c, 0, 69, 100
2, 81600, Note_on_c, 0, 69, 0
2, 81600, Note_on_c, 0, 66, 100
2, 81840, Note_on_c, 0, 66, 0
2, 81840, Note_on_c, 0, 67, 100
2, 82320, Note_on_c, 0, 67, 0
2, 82800, Note_on_c, 0, 81, 100
2, 82920, Note_on_c, 0, 81, 0
2, 82920, Note_on_c, 0, 79, 100
2, 83040, Note_on_c, 0, 79, 0
2, 83040, Note_on_c, 0, 78, 100
2, 83160, Note_on_c, 0, 78, 0
2, 83160, Note_on_c, 0, 76, 100
2, 83280, Note_on_c, 0, 76, 0
2, 83280, Note_on_c, 0, 78, 100
2, 83520, Note_on_c, 0, 78, 0
2, 83520, Note_on_c, 0, 81, 100
2, 83580, Note_on_c, 0, 81, 0
2, 83580, Note_on_c, 0, 79, 100
2, 83640, Note_on_c, 0, 79, 0
2, 83640, Note_on_c, 0, 78, 100
2, 83700, Note_on_c, 0, 78, 0
2, 83700, Note_on_c, 0, 79, 100
2, 83760, Note_on_c, 0, 79, 0
2, 83760, Note_on_c, 0, 81, 100
2, 84000, Note_on_c, 0, 81, 0
2, 84000, Note_on_c, 0, 74, 100
2, 84120, Note_on_c, 0, 74, 0
2, 84120, Note_on_c, 0, 78, 100
2, 84240, Note_on_c, 0, 78, 0
2, 84240, Note_on_c, 0, 76, 100
2, 84360, Note_on_c, 0, 76, 0
2, 84360, Note_on_c, 0, 79, 100
2, 84480, Note_on_c, 0, 79, 0
2, 84480, Note_on_c, 0, 78, 100
2, 84600, Note_on_c, 0, 78, 0
2, 84600, Note_on_c, 0, 81, 100
2, 84720, Note_on_c, 0, 81, 0
2, 84720, Note_on_c, 0, 79, 100
2, 84960, Note_on_c, 0, 79, 0
2, 84960, Note_on_c, 0, 78, 100
2, 85200, Note_on_c, 0, 78, 0
2, 85200, Note_on_c, 0, 79, 100
2, 85440, Note_on_c, 0, 79, 0
2, 85440, Note_on_c, 0, 76, 100
2, 85680, Note_on_c, 0, 76, 0
2, 85680, Note_on_c, 0, 75, 100
2, 85920, Note_on_c, 0, 75, 0
2, 85920, Note_on_c, 0, 76, 100
2, 86160, Note_on_c, 0, 76, 0
2, 86160, Note_on_c, 0, 81, 100
2, 87120, Note_on_c, 0, 81, 0
2, 87120, Note_on_c, 0, 79, 100
2, 87240, Note_on_c, 0, 79, 0
2, 87240, Note_on_c, 0, 76, 100
2, 87360, Note_on_c, 0, 76, 0
2, 87360, Note_on_c, 0, 78, 100
2, 87480, Note_on_c, 0, 78, 0
2, 87480, Note_on_c, 0, 75, 100
2, 87600, Note_on_c, 0, 75, 0
2, 87600, Note_on_c, 0, 83, 100
2, 88440, Note_on_c, 0, 83, 0
2, 88440, Note_on_c, 0, 84, 100
2, 88560, Note_on_c, 0, 84, 0
2, 88560, Note_on_c, 0, 83, 100
2, 88680, Note_on_c, 0, 83, 0
2, 88680, Note_on_c, 0, 81, 100
2, 88800, Note_on_c, 0, 81, 0
2, 88800, Note_on_c, 0, 79, 100
2, 88920, Note_on_c, 0, 79, 0
2, 88920, Note_on_c, 0, 78, 100
2, 89040, Note_on_c, 0, 78, 0
2, 89040, Note_on_c, 0, 79, 100
2, 89160, Note_on_c, 0, 79, 0
2, 89160, Note_on_c, 0, 76, 100
2, 89280, Note_on_c, 0, 76, 0
2, 89280, Note_on_c, 0, 81, 100
2, 89400, Note_on_c, 0, 81, 0
2, 89400, Note_on_c, 0, 76, 100
2, 89520, Note_on_c, 0, 76, 0
2, 89520, Note_on_c, 0, 83, 100
2, 89640, Note_on_c, 0, 83, 0
2, 89640, Note_on_c, 0, 76, 100
2, 89760, Note_on_c, 0, 76, 0
2, 89760, Note_on_c, 0, 84, 100
2, 89880, Note_on_c, 0, 84, 0
2, 89880, Note_on_c, 0, 83, 100
2, 90000, Note_on_c, 0, 83, 0
2, 90000, Note_on_c, 0, 81, 100
2, 90120, Note_on_c, 0, 81, 0
2, 90120, Note_on_c, 0, 79, 100
2, 90240, Note_on_c, 0, 79, 0
2, 90240, Note_on_c, 0, 78, 100
2, 90360, Note_on_c, 0, 78, 0
2, 90360, Note_on_c, 0, 76, 100
2, 90480, Note_on_c, 0, 76, 0
2, 90480, Note_on_c, 0, 74, 100
2, 90600, Note_on_c, 0, 74, 0
2, 90600, Note_on_c, 0, 78, 100
2, 90720, Note_on_c, 0, 78, 0
2, 90720, Note_on_c, 0, 76, 100
2, 90840, Note_on_c, 0, 76, 0
2, 90840, Note_on_c, 0, 79, 100
2, 90960, Note_on_c, 0, 79, 0
2, 90960, Note_on_c, 0, 78, 100
2, 91080, Note_on_c, 0, 78, 0
2, 91080, Note_on_c, 0, 81, 100
2, 91200, Note_on_c, 0, 81, 0
2, 91200, Note_on_c, 0, 79, 100
2, 91320, Note_on_c, 0, 79, 0
2, 91320, Note_on_c, 0, 81, 100
2, 91440, Note_on_c, 0, 81, 0
2, 91440, Note_on_c, 0, 83, 100
2, 91500, Note_on_c, 0, 83, 0
2, 91500, Note_on_c, 0, 81, 100
2, 91560, Note_on_c, 0, 81, 0
2, 91560, Note_on_c, 0, 83, 100
2, 91620, Note_on_c, 0, 83, 0
2, 91620, Note_on_c, 0, 81, 100
2, 91680, Note_on_c, 0, 81, 0
2, 91680, Note_on_c, 0, 83, 100
2, 91740, Note_on_c, 0, 83, 0
2, 91740, Note_on_c, 0, 81, 100
2, 91800, Note_on_c, 0, 81, 0
2, 91800, Note_on_c, 0, 79, 100
2, 91860, Note_on_c, 0, 79, 0
2, 91860, Note_on_c, 0, 81, 100
2, 91920, Note_on_c, 0, 81, 0
2, 91920, Note_on_c, 0, 83, 100
2, 92400, Note_on_c, 0, 83, 0
2, 92400, Note_on_c, 0, 79, 100
2, 92640, Note_on_c, 0, 79, 0
2, 92640, Note_on_c, 0, 76, 100
2, 92880, Note_on_c, 0, 76, 0
2, 92880, Note_on_c, 0, 78, 100
2, 93120, Note_on_c, 0, 78, 0
2, 93120, Note_on_c, 0, 75, 100
2, 93360, Note_on_c, 0, 75, 0
2, 93360, Note_on_c, 0, 76, 100
2, 93840, Note_on_c, 0, 76, 0
2, 94320, Note_on_c, 0, 76, 100
2, 94440, Note_on_c, 0, 76, 0
2, 94440, Note_on_c, 0, 74, 100
2, 94560, Note_on_c, 0, 74, 0
2, 94560, Note_on_c, 0, 72, 100
2, 94680, Note_on_c, 0, 72, 0
2, 94680, Note_on_c, 0, 71, 100
2, 94800, Note_on_c, 0, 71, 0
2, 94800, Note_on_c, 0, 72, 100
2, 95040, Note_on_c, 0, 72, 0
2, 95040, Note_on_c, 0, 74, 100
2, 95280, Note_on_c, 0, 74, 0
2, 95280, Note_on_c, 0, 76, 100
2, 95520, Note_on_c, 0, 76, 0
2, 95520, Note_on_c, 0, 69, 100
2, 95640, Note_on_c, 0, 69, 0
2, 95640, Note_on_c, 0, 72, 100
2, 95760, Note_on_c, 0, 72, 0
2, 95760, Note_on_c, 0, 71, 100
2, 95880, Note_on_c, 0, 71, 0
2, 95880, Note_on_c, 0, 74, 100
2, 96000, Note_on_c, 0, 74, 0
2, 96000, Note_on_c, 0, 73, 100
2, 96120, Note_on_c, 0, 73, 0
2, 96120, Note_on_c, 0, 76, 100
2, 96240, Note_on_c, 0, 76, 0
2, 96240, Note_on_c, 0, 74, 100
2, 96300, Note_on_c, 0, 74, 0
2, 96300, Note_on_c, 0, 76, 100
2, 96360, Note_on_c, 0, 76, 0
2, 96360, Note_on_c, 0, 78, 100
2, 96480, Note_on_c, 0, 78, 0
2, 96480, Note_on_c, 0, 79, 100
2, 96540, Note_on_c, 0, 79, 0
2, 96540, Note_on_c, 0, 78, 100
2, 96600, Note_on_c, 0, 78, 0
2, 96600, Note_on_c, 0, 76, 100
2, 96660, Note_on_c, 0, 76, 0
2, 96660, Note_on_c, 0, 78, 100
2, 96720, Note_on_c, 0, 78, 0
2, 96720, Note_on_c, 0, 79, 100
2, 96750, Note_on_c, 0, 79, 0
2, 96750, Note_on_c, 0, 78, 100
2, 96780, Note_on_c, 0, 78, 0
2, 96780, Note_on_c, 0, 79, 100
2, 96810, Note_on_c, 0, 79, 0
2, 96810, Note_on_c, 0, 78, 100
2, 96840, Note_on_c, 0, 78, 0
2, 96840, Note_on_c, 0, 76, 100
2, 96900, Note_on_c, 0, 76, 0
2, 96900, Note_on_c, 0, 78, 100
2, 96960, Note_on_c, 0, 78, 0
2, 96960, Note_on_c, 0, 79, 100
2, 97200, Note_on_c, 0, 79, 0
2, 97200, Note_on_c, 0, 78, 100
2, 97320, Note_on_c, 0, 78, 0
2, 97320, Note_on_c, 0, 76, 100
2, 97440, Note_on_c, 0, 76, 0
2, 97440, Note_on_c, 0, 74, 100
2, 97560, Note_on_c, 0, 74, 0
2, 97560, Note_on_c, 0, 72, 100
2, 97680, Note_on_c, 0, 72, 0
2, 97680, Note_on_c, 0, 71, 100
2, 97800, Note_on_c, 0, 71, 0
2, 97800, Note_on_c, 0, 74, 100
2, 97920, Note_on_c, 0, 74, 0
2, 97920, Note_on_c, 0, 72, 100
2, 98040, Note_on_c, 0, 72, 0
2, 98040, Note_on_c, 0, 76, 100
2, 98160, Note_on_c, 0, 76, 0
2, 98160, Note_on_c, 0, 74, 100
2, 98280, Note_on_c, 0, 74, 0
2, 98280, Note_on_c, 0, 77, 100
2, 98400, Note_on_c, 0, 77, 0
2, 98400, Note_on_c, 0, 76, 100
2, 99240, Note_on_c, 0, 76, 0
2, 99240, Note_on_c, 0, 74, 100
2, 99360, Note_on_c, 0, 74, 0
2, 99360, Note_on_c, 0, 72, 100
2, 99480, Note_on_c, 0, 72, 0
2, 99480, Note_on_c, 0, 71, 100
2, 99600, Note_on_c, 0, 71, 0
2, 99600, Note_on_c, 0, 72, 100
2, 99720, Note_on_c, 0, 72, 0
2, 99720, Note_on_c, 0, 78, 100
2, 99840, Note_on_c, 0, 78, 0
2, 99840, Note_on_c, 0, 81, 100
2, 99960, Note_on_c, 0, 81, 0
2, 99960, Note_on_c, 0, 74, 100
2, 100080, Note_on_c, 0, 74, 0
2, 100080, Note_on_c, 0, 72, 100
2, 100200, Note_on_c, 0, 72, 0
2, 100200, Note_on_c, 0, 71, 100
2, 100320, Note_on_c, 0, 71, 0
2, 100320, Note_on_c, 0, 72, 100
2, 100440, Note_on_c, 0, 72, 0
2, 100440, Note_on_c, 0, 69, 100
2, 100560, Note_on_c, 0, 69, 0
2, 100560, Note_on_c, 0, 71, 100
2, 100680, Note_on_c, 0, 71, 0
2, 100680, Note_on_c, 0, 76, 100
2, 100800, Note_on_c, 0, 76, 0
2, 100800, Note_on_c, 0, 74, 100
2, 100920, Note_on_c, 0, 74, 0
2, 100920, Note_on_c, 0, 72, 100
2, 101040, Note_on_c, 0, 72, 0
2, 101040, Note_on_c, 0, 74, 100
2, 101160, Note_on_c, 0, 74, 0
2, 101160, Note_on_c, 0, 80, 100
2, 101280, Note_on_c, 0, 80, 0
2, 101280, Note_on_c, 0, 83, 100
2, 101400, Note_on_c, 0, 83, 0
2, 101400, Note_on_c, 0, 76, 100
2, 101520, Note_on_c, 0, 76, 0
2, 101520, Note_on_c, 0, 74, 100
2, 101640, Note_on_c, 0, 74, 0
2, 101640, Note_on_c, 0, 72, 100
2, 101760, Note_on_c, 0, 72, 0
2, 101760, Note_on_c, 0, 74, 100
2, 101880, Note_on_c, 0, 74, 0
2, 101880, Note_on_c, 0, 71, 100
2, 102000, Note_on_c, 0, 71, 0
2, 102000, Note_on_c, 0, 72, 100
2, 102840, Note_on_c, 0, 72, 0
2, 102840, Note_on_c, 0, 71, 100
2, 102960, Note_on_c, 0, 71, 0
2, 102960, Note_on_c, 0, 69, 100
2, 103080, Note_on_c, 0, 69, 0
2, 103080, Note_on_c, 0, 71, 100
2, 103200, Note_on_c, 0, 71, 0
2, 103200, Note_on_c, 0, 72, 100
2, 103320, Note_on_c, 0, 72, 0
2, 103320, Note_on_c, 0, 69, 100
2, 103440, Note_on_c, 0, 69, 0
2, 103440, Note_on_c, 0, 74, 100
2, 103920, Note_on_c, 0, 74, 0
2, 103920, Note_on_c, 0, 71, 100
2, 104160, Note_on_c, 0, 71, 0
2, 104160, Note_on_c, 0, 67, 100
2, 104400, Note_on_c, 0, 67, 0
2, 104400, Note_on_c, 0, 69, 100
2, 104640, Note_on_c, 0, 69, 0
2, 104640, Note_on_c, 0, 66, 100
2, 104880, Note_on_c, 0, 66, 0
2, 104880, Note_on_c, 0, 67, 100
2, 106800, Note_on_c, 0, 67, 0
2, 106800, End_track
3, 0, Start_track
3, 0, MIDI_port, 0
3, 0, Title_t, "--------------------------------------"
3, 0, Program_c, 1, 6
3, 0, Control_c, 1, 7, 100
3, 0, Control_c, 1, 10, 69
3, 5760, Note_on_c, 1, 74, 100
3, 6240, Note_on_c, 1, 74, 0
3, 8640, Note_on_c, 1, 76, 100
3, 8760, Note_on_c, 1, 76, 0
3, 8760, Note_on_c, 1, 77, 100
3, 8820, Note_on_c, 1, 77, 0
3, 8820, Note_on_c, 1, 76, 100
3, 8880, Note_on_c, 1, 76, 0
3, 8880, Note_on_c, 1, 77, 100
3, 9360, Note_on_c, 1, 77, 0
3, 9360, Note_on_c, 1, 79, 100
3, 9600, Note_on_c, 1, 79, 0
3, 9600, Note_on_c, 1, 77, 100
3, 9720, Note_on_c, 1, 77, 0
3, 9720, Note_on_c, 1, 76, 100
3, 9900, Note_on_c, 1, 76, 0
3, 9900, Note_on_c, 1, 74, 100
3, 9960, Note_on_c, 1, 74, 0
3, 9960, Note_on_c, 1, 72, 100
3, 10020, Note_on_c, 1, 72, 0
3, 10020, Note_on_c, 1, 71, 100
3, 10080, Note_on_c, 1, 71, 0
3, 10080, Note_on_c, 1, 72, 100
3, 10380, Note_on_c, 1, 72, 0
3, 10380, Note_on_c, 1, 71, 100
3, 10440, Note_on_c, 1, 71, 0
3, 10440, Note_on_c, 1, 69, 100
3, 10500, Note_on_c, 1, 69, 0
3, 10500, Note_on_c, 1, 67, 100
3, 10560, Note_on_c, 1, 67, 0
3, 10560, Note_on_c, 1, 69, 100
3, 10920, Note_on_c, 1, 69, 0
3, 10920, Note_on_c, 1, 69, 100
3, 11040, Note_on_c, 1, 69, 0
3, 11505, Note_on_c, 1, 74, 100
3, 12000, Note_on_c, 1, 74, 0
3, 17160, Note_on_c, 1, 71, 100
3, 17280, Note_on_c, 1, 71, 0
3, 17280, Note_on_c, 1, 69, 100
3, 17760, Note_on_c, 1, 69, 0
3, 18120, Note_on_c, 1, 81, 100
3, 18240, Note_on_c, 1, 81, 0
3, 18240, Note_on_c, 1, 75, 100
3, 18600, Note_on_c, 1, 75, 0
3, 18600, Note_on_c, 1, 78, 100
3, 18720, Note_on_c, 1, 78, 0
3, 18720, Note_on_c, 1, 71, 100
3, 19680, Note_on_c, 1, 71, 0
3, 20160, Note_on_c, 1, 71, 100
3, 21120, Note_on_c, 1, 71, 0
3, 21120, Note_on_c, 1, 69, 100
3, 21600, Note_on_c, 1, 69, 0
3, 21600, Note_on_c, 1, 71, 100
3, 22080, Note_on_c, 1, 71, 0
3, 22080, Note_on_c, 1, 73, 100
3, 22560, Note_on_c, 1, 73, 0
3, 24000, Note_on_c, 1, 69, 100
3, 24480, Note_on_c, 1, 69, 0
3, 27840, Note_on_c, 1, 73, 100
3, 28800, Note_on_c, 1, 73, 0
3, 28800, Note_on_c, 1, 66, 100
3, 30720, Note_on_c, 1, 66, 0
3, 36480, Note_on_c, 1, 74, 100
3, 36960, Note_on_c, 1, 74, 0
3, 39360, Note_on_c, 1, 76, 100
3, 39480, Note_on_c, 1, 76, 0
3, 39480, Note_on_c, 1, 77, 100
3, 39540, Note_on_c, 1, 77, 0
3, 39540, Note_on_c, 1, 76, 100
3, 39600, Note_on_c, 1, 76, 0
3, 39600, Note_on_c, 1, 77, 100
3, 40080, Note_on_c, 1, 77, 0
3, 40080, Note_on_c, 1, 79, 100
3, 40320, Note_on_c, 1, 79, 0
3, 40320, Note_on_c, 1, 77, 100
3, 40440, Note_on_c, 1, 77, 0
3, 40440, Note_on_c, 1, 76, 100
3, 40620, Note_on_c, 1, 76, 0
3, 40620, Note_on_c, 1, 74, 100
3, 40680, Note_on_c, 1, 74, 0
3, 40680, Note_on_c, 1, 72, 100
3, 40740, Note_on_c, 1, 72, 0
3, 40740, Note_on_c, 1, 71, 100
3, 40800, Note_on_c, 1, 71, 0
3, 40800, Note_on_c, 1, 72, 100
3, 41100, Note_on_c, 1, 72, 0
3, 41100, Note_on_c, 1, 71, 100
3, 41160, Note_on_c, 1, 71, 0
3, 41160, Note_on_c, 1, 69, 100
3, 41220, Note_on_c, 1, 69, 0
3, 41220, Note_on_c, 1, 67, 100
3, 41280, Note_on_c, 1, 67, 0
3, 41280, Note_on_c, 1, 69, 100
3, 41640, Note_on_c, 1, 69, 0
3, 41640, Note_on_c, 1, 69, 100
3, 41760, Note_on_c, 1, 69, 0
3, 42225, Note_on_c, 1, 74, 100
3, 42720, Note_on_c, 1, 74, 0
3, 47880, Note_on_c, 1, 71, 100
3, 48000, Note_on_c, 1, 71, 0
3, 48000, Note_on_c, 1, 69, 100
3, 48480, Note_on_c, 1, 69, 0
3, 48840, Note_on_c, 1, 81, 100
3, 48960, Note_on_c, 1, 81, 0
3, 48960, Note_on_c, 1, 75, 100
3, 49320, Note_on_c, 1, 75, 0
3, 49320, Note_on_c, 1, 78, 100
3, 49440, Note_on_c, 1, 78, 0
3, 49440, Note_on_c, 1, 71, 100
3, 50400, Note_on_c, 1, 71, 0
3, 50880, Note_on_c, 1, 71, 100
3, 51840, Note_on_c, 1, 71, 0
3, 51840, Note_on_c, 1, 69, 100
3, 52320, Note_on_c, 1, 69, 0
3, 52320, Note_on_c, 1, 71, 100
3, 52800, Note_on_c, 1, 71, 0
3, 52800, Note_on_c, 1, 73, 100
3, 53280, Note_on_c, 1, 73, 0
3, 54720, Note_on_c, 1, 69, 100
3, 55200, Note_on_c, 1, 69, 0
3, 58560, Note_on_c, 1, 73, 100
3, 59520, Note_on_c, 1, 73, 0
3, 60480, Note_on_c, 1, 74, 100
3, 60600, Note_on_c, 1, 74, 0
3, 60600, Note_on_c, 1, 72, 100
3, 60720, Note_on_c, 1, 72, 0
3, 60720, Note_on_c, 1, 71, 100
3, 60840, Note_on_c, 1, 71, 0
3, 60840, Note_on_c, 1, 69, 100
3, 60960, Note_on_c, 1, 69, 0
3, 60960, Note_on_c, 1, 71, 100
3, 61200, Note_on_c, 1, 71, 0
3, 61200, Note_on_c, 1, 72, 100
3, 61440, Note_on_c, 1, 72, 0
3, 61440, Note_on_c, 1, 74, 100
3, 61680, Note_on_c, 1, 74, 0
3, 61680, Note_on_c, 1, 67, 100
3, 61800, Note_on_c, 1, 67, 0
3, 61800, Note_on_c, 1, 71, 100
3, 61920, Note_on_c, 1, 71, 0
3, 61920, Note_on_c, 1, 69, 100
3, 62040, Note_on_c, 1, 69, 0
3, 62040, Note_on_c, 1, 72, 100
3, 62160, Note_on_c, 1, 72, 0
3, 62160, Note_on_c, 1, 71, 100
3, 62280, Note_on_c, 1, 71, 0
3, 62280, Note_on_c, 1, 74, 100
3, 62400, Note_on_c, 1, 74, 0
3, 62400, Note_on_c, 1, 72, 100
3, 63240, Note_on_c, 1, 72, 0
3, 63240, Note_on_c, 1, 79, 100
3, 63360, Note_on_c, 1, 79, 0
3, 63360, Note_on_c, 1, 78, 100
3, 63480, Note_on_c, 1, 78, 0
3, 63480, Note_on_c, 1, 76, 100
3, 63600, Note_on_c, 1, 76, 0
3, 63600, Note_on_c, 1, 75, 100
3, 63720, Note_on_c, 1, 75, 0
3, 63720, Note_on_c, 1, 76, 100
3, 63840, Note_on_c, 1, 76, 0
3, 63840, Note_on_c, 1, 71, 100
3, 64680, Note_on_c, 1, 71, 0
3, 64680, Note_on_c, 1, 73, 100
3, 64800, Note_on_c, 1, 73, 0
3, 64800, Note_on_c, 1, 75, 100
3, 64920, Note_on_c, 1, 75, 0
3, 64920, Note_on_c, 1, 76, 100
3, 65040, Note_on_c, 1, 76, 0
3, 65040, Note_on_c, 1, 78, 100
3, 65160, Note_on_c, 1, 78, 0
3, 65160, Note_on_c, 1, 75, 100
3, 65280, Note_on_c, 1, 75, 0
3, 65280, Note_on_c, 1, 76, 100
3, 65520, Note_on_c, 1, 76, 0
3, 67440, Note_on_c, 1, 69, 100
3, 67680, Note_on_c, 1, 69, 0
3, 67680, Note_on_c, 1, 71, 100
3, 67920, Note_on_c, 1, 71, 0
3, 67920, Note_on_c, 1, 72, 100
3, 68160, Note_on_c, 1, 72, 0
3, 68160, Note_on_c, 1, 74, 100
3, 68400, Note_on_c, 1, 74, 0
3, 68400, Note_on_c, 1, 76, 100
3, 68640, Note_on_c, 1, 76, 0
3, 68640, Note_on_c, 1, 78, 100
3, 68880, Note_on_c, 1, 78, 0
3, 68880, Note_on_c, 1, 79, 100
3, 69360, Note_on_c, 1, 79, 0
3, 69360, Note_on_c, 1, 74, 100
3, 69600, Note_on_c, 1, 74, 0
3, 69600, Note_on_c, 1, 67, 100
3, 69840, Note_on_c, 1, 67, 0
3, 69840, Note_on_c, 1, 69, 100
3, 70080, Note_on_c, 1, 69, 0
3, 70080, Note_on_c, 1, 66, 100
3, 70320, Note_on_c, 1, 66, 0
3, 70320, Note_on_c, 1, 67, 100
3, 70560, Note_on_c, 1, 67, 0
3, 70560, Note_on_c, 1, 69, 100
3, 70620, Note_on_c, 1, 69, 0
3, 70620, Note_on_c, 1, 68, 100
3, 70680, Note_on_c, 1, 68, 0
3, 70680, Note_on_c, 1, 69, 100
3, 70740, Note_on_c, 1, 69, 0
3, 70740, Note_on_c, 1, 68, 100
3, 70800, Note_on_c, 1, 68, 0
3, 70800, Note_on_c, 1, 69, 100
3, 70860, Note_on_c, 1, 69, 0
3, 70860, Note_on_c, 1, 68, 100
3, 70920, Note_on_c, 1, 68, 0
3, 70920, Note_on_c, 1, 66, 100
3, 70980, Note_on_c, 1, 66, 0
3, 70980, Note_on_c, 1, 68, 100
3, 71040, Note_on_c, 1, 68, 0
3, 71040, Note_on_c, 1, 69, 100
3, 71520, Note_on_c, 1, 69, 0
3, 71520, Note_on_c, 1, 68, 100
3, 71760, Note_on_c, 1, 68, 0
3, 71760, Note_on_c, 1, 69, 100
3, 72000, Note_on_c, 1, 69, 0
3, 72000, Note_on_c, 1, 67, 100
3, 72480, Note_on_c, 1, 67, 0
3, 72480, Note_on_c, 1, 66, 100
3, 72720, Note_on_c, 1, 66, 0
3, 72720, Note_on_c, 1, 67, 100
3, 72960, Note_on_c, 1, 67, 0
3, 72960, Note_on_c, 1, 64, 100
3, 73200, Note_on_c, 1, 64, 0
3, 73200, Note_on_c, 1, 66, 100
3, 73320, Note_on_c, 1, 66, 0
3, 75600, Note_on_c, 1, 66, 100
3, 75840, Note_on_c, 1, 66, 0
3, 75840, Note_on_c, 1, 69, 100
3, 75900, Note_on_c, 1, 69, 0
3, 75900, Note_on_c, 1, 67, 100
3, 75960, Note_on_c, 1, 67, 0
3, 75960, Note_on_c, 1, 66, 100
3, 76020, Note_on_c, 1, 66, 0
3, 76020, Note_on_c, 1, 67, 100
3, 76080, Note_on_c, 1, 67, 0
3, 76080, Note_on_c, 1, 69, 100
3, 76320, Note_on_c, 1, 69, 0
3, 79080, Note_on_c, 1, 67, 100
3, 79200, Note_on_c, 1, 67, 0
3, 79200, Note_on_c, 1, 66, 100
3, 79320, Note_on_c, 1, 66, 0
3, 79320, Note_on_c, 1, 67, 100
3, 79440, Note_on_c, 1, 67, 0
3, 79440, Note_on_c, 1, 69, 100
3, 79560, Note_on_c, 1, 69, 0
3, 79560, Note_on_c, 1, 66, 100
3, 79680, Note_on_c, 1, 66, 0
3, 79680, Note_on_c, 1, 62, 100
3, 80520, Note_on_c, 1, 62, 0
3, 80520, Note_on_c, 1, 66, 100
3, 80640, Note_on_c, 1, 66, 0
3, 80640, Note_on_c, 1, 64, 100
3, 80760, Note_on_c, 1, 64, 0
3, 80760, Note_on_c, 1, 67, 100
3, 80880, Note_on_c, 1, 67, 0
3, 80880, Note_on_c, 1, 66, 100
3, 81120, Note_on_c, 1, 66, 0
3, 81120, Note_on_c, 1, 59, 100
3, 81360, Note_on_c, 1, 59, 0
3, 81360, Note_on_c, 1, 60, 100
3, 81600, Note_on_c, 1, 60, 0
3, 81600, Note_on_c, 1, 57, 100
3, 81840, Note_on_c, 1, 57, 0
3, 81840, Note_on_c, 1, 59, 100
3, 82320, Note_on_c, 1, 59, 0
3, 83520, Note_on_c, 1, 74, 100
3, 83640, Note_on_c, 1, 74, 0
3, 83640, Note_on_c, 1, 72, 100
3, 83760, Note_on_c, 1, 72, 0
3, 83760, Note_on_c, 1, 71, 100
3, 83880, Note_on_c, 1, 71, 0
3, 83880, Note_on_c, 1, 69, 100
3, 84000, Note_on_c, 1, 69, 0
3, 84000, Note_on_c, 1, 71, 100
3, 84240, Note_on_c, 1, 71, 0
3, 84240, Note_on_c, 1, 72, 100
3, 84480, Note_on_c, 1, 72, 0
3, 84480, Note_on_c, 1, 74, 100
3, 84720, Note_on_c, 1, 74, 0
3, 84720, Note_on_c, 1, 67, 100
3, 84840, Note_on_c, 1, 67, 0
3, 84840, Note_on_c, 1, 71, 100
3, 84960, Note_on_c, 1, 71, 0
3, 84960, Note_on_c, 1, 69, 100
3, 85080, Note_on_c, 1, 69, 0
3, 85080, Note_on_c, 1, 72, 100
3, 85200, Note_on_c, 1, 72, 0
3, 85200, Note_on_c, 1, 71, 100
3, 85320, Note_on_c, 1, 71, 0
3, 85320, Note_on_c, 1, 74, 100
3, 85440, Note_on_c, 1, 74, 0
3, 85440, Note_on_c, 1, 72, 100
3, 86280, Note_on_c, 1, 72, 0
3, 86280, Note_on_c, 1, 79, 100
3, 86400, Note_on_c, 1, 79, 0
3, 86400, Note_on_c, 1, 78, 100
3, 86520, Note_on_c, 1, 78, 0
3, 86520, Note_on_c, 1, 76, 100
3, 86640, Note_on_c, 1, 76, 0
3, 86640, Note_on_c, 1, 75, 100
3, 86760, Note_on_c, 1, 75, 0
3, 86760, Note_on_c, 1, 76, 100
3, 86880, Note_on_c, 1, 76, 0
3, 86880, Note_on_c, 1, 71, 100
3, 87720, Note_on_c, 1, 71, 0
3, 87720, Note_on_c, 1, 73, 100
3, 87840, Note_on_c, 1, 73, 0
3, 87840, Note_on_c, 1, 75, 100
3, 87960, Note_on_c, 1, 75, 0
3, 87960, Note_on_c, 1, 76, 100
3, 88080, Note_on_c, 1, 76, 0
3, 88080, Note_on_c, 1, 78, 100
3, 88200, Note_on_c, 1, 78, 0
3, 88200, Note_on_c, 1, 75, 100
3, 88320, Note_on_c, 1, 75, 0
3, 88320, Note_on_c, 1, 76, 100
3, 88560, Note_on_c, 1, 76, 0
3, 90480, Note_on_c, 1, 69, 100
3, 90720, Note_on_c, 1, 69, 0
3, 90720, Note_on_c, 1, 71, 100
3, 90960, Note_on_c, 1, 71, 0
3, 90960, Note_on_c, 1, 72, 100
3, 91200, Note_on_c, 1, 72, 0
3, 91200, Note_on_c, 1, 74, 100
3, 91440, Note_on_c, 1, 74, 0
3, 91440, Note_on_c, 1, 76, 100
3, 91680, Note_on_c, 1, 76, 0
3, 91680, Note_on_c, 1, 78, 100
3, 91920, Note_on_c, 1, 78, 0
3, 91920, Note_on_c, 1, 79, 100
3, 92400, Note_on_c, 1, 79, 0
3, 92400, Note_on_c, 1, 74, 100
3, 92640, Note_on_c, 1, 74, 0
3, 92640, Note_on_c, 1, 67, 100
3, 92880, Note_on_c, 1, 67, 0
3, 92880, Note_on_c, 1, 69, 100
3, 93120, Note_on_c, 1, 69, 0
3, 93120, Note_on_c, 1, 66, 100
3, 93360, Note_on_c, 1, 66, 0
3, 93360, Note_on_c, 1, 67, 100
3, 93600, Note_on_c, 1, 67, 0
3, 93600, Note_on_c, 1, 69, 100
3, 93660, Note_on_c, 1, 69, 0
3, 93660, Note_on_c, 1, 68, 100
3, 93720, Note_on_c, 1, 68, 0
3, 93720, Note_on_c, 1, 69, 100
3, 93780, Note_on_c, 1, 69, 0
3, 93780, Note_on_c, 1, 68, 100
3, 93840, Note_on_c, 1, 68, 0
3, 93840, Note_on_c, 1, 69, 100
3, 93900, Note_on_c, 1, 69, 0
3, 93900, Note_on_c, 1, 68, 100
3, 93960, Note_on_c, 1, 68, 0
3, 93960, Note_on_c, 1, 66, 100
3, 94020, Note_on_c, 1, 66, 0
3, 94020, Note_on_c, 1, 68, 100
3, 94080, Note_on_c, 1, 68, 0
3, 94080, Note_on_c, 1, 69, 100
3, 94560, Note_on_c, 1, 69, 0
3, 94560, Note_on_c, 1, 68, 100
3, 94800, Note_on_c, 1, 68, 0
3, 94800, Note_on_c, 1, 69, 100
3, 95040, Note_on_c, 1, 69, 0
3, 95040, Note_on_c, 1, 67, 100
3, 95520, Note_on_c, 1, 67, 0
3, 95520, Note_on_c, 1, 66, 100
3, 95760, Note_on_c, 1, 66, 0
3, 95760, Note_on_c, 1, 67, 100
3, 96000, Note_on_c, 1, 67, 0
3, 96000, Note_on_c, 1, 64, 100
3, 96240, Note_on_c, 1, 64, 0
3, 96240, Note_on_c, 1, 66, 100
3, 96360, Note_on_c, 1, 66, 0
3, 98640, Note_on_c, 1, 66, 100
3, 98880, Note_on_c, 1, 66, 0
3, 98880, Note_on_c, 1, 69, 100
3, 98940, Note_on_c, 1, 69, 0
3, 98940, Note_on_c, 1, 67, 100
3, 99000, Note_on_c, 1, 67, 0
3, 99000, Note_on_c, 1, 66, 100
3, 99060, Note_on_c, 1, 66, 0
3, 99060, Note_on_c, 1, 67, 100
3, 99120, Note_on_c, 1, 67, 0
3, 99120, Note_on_c, 1, 69, 100
3, 99360, Note_on_c, 1, 69, 0
3, 102120, Note_on_c, 1, 67, 100
3, 102240, Note_on_c, 1, 67, 0
3, 102240, Note_on_c, 1, 66, 100
3, 102360, Note_on_c, 1, 66, 0
3, 102360, Note_on_c, 1, 67, 100
3, 102480, Note_on_c, 1, 67, 0
3, 102480, Note_on_c, 1, 69, 100
3, 102600, Note_on_c, 1, 69, 0
3, 102600, Note_on_c, 1, 66, 100
3, 102720, Note_on_c, 1, 66, 0
3, 102720, Note_on_c, 1, 62, 100
3, 103560, Note_on_c, 1, 62, 0
3, 103560, Note_on_c, 1, 66, 100
3, 103680, Note_on_c, 1, 66, 0
3, 103680, Note_on_c, 1, 64, 100
3, 103800, Note_on_c, 1, 64, 0
3, 103800, Note_on_c, 1, 67, 100
3, 103920, Note_on_c, 1, 67, 0
3, 103920, Note_on_c, 1, 66, 100
3, 104160, Note_on_c, 1, 66, 0
3, 104160, Note_on_c, 1, 59, 100
3, 104400, Note_on_c, 1, 59, 0
3, 104400, Note_on_c, 1, 60, 100
3, 104640, Note_on_c, 1, 60, 0
3, 104640, Note_on_c, 1, 57, 100
3, 104880, Note_on_c, 1, 57, 0
3, 104880, Note_on_c, 1, 62, 100
3, 106800, Note_on_c, 1, 62, 0
3, 106800, End_track
4, 0, Start_track
4, 0, MIDI_port, 0
4, 0, Title_t, "Johann Sebastian Bach  (1685-1750)"
4, 0, Program_c, 2, 6
4, 0, Control_c, 2, 7, 100
4, 0, Control_c, 2, 10, 59
4, 0, Note_on_c, 2, 55, 100
4, 480, Note_on_c, 2, 55, 0
4, 1800, Note_on_c, 2, 59, 100
4, 1920, Note_on_c, 2, 59, 0
4, 1920, Note_on_c, 2, 57, 100
4, 2400, Note_on_c, 2, 57, 0
4, 11490, Note_on_c, 2, 71, 100
4, 12000, Note_on_c, 2, 71, 0
4, 24000, Note_on_c, 2, 66, 100
4, 24480, Note_on_c, 2, 66, 0
4, 25800, Note_on_c, 2, 59, 100
4, 25920, Note_on_c, 2, 59, 0
4, 25920, Note_on_c, 2, 61, 100
4, 26400, Note_on_c, 2, 61, 0
4, 28800, Note_on_c, 2, 69, 100
4, 30720, Note_on_c, 2, 69, 0
4, 30720, Note_on_c, 2, 55, 100
4, 31200, Note_on_c, 2, 55, 0
4, 32520, Note_on_c, 2, 59, 100
4, 32640, Note_on_c, 2, 59, 0
4, 32640, Note_on_c, 2, 57, 100
4, 33120, Note_on_c, 2, 57, 0
4, 42210, Note_on_c, 2, 71, 100
4, 42720, Note_on_c, 2, 71, 0
4, 54720, Note_on_c, 2, 66, 100
4, 55200, Note_on_c, 2, 66, 0
4, 56520, Note_on_c, 2, 59, 100
4, 56640, Note_on_c, 2, 59, 0
4, 56640, Note_on_c, 2, 61, 100
4, 57120, Note_on_c, 2, 61, 0
4, 62640, Note_on_c, 2, 69, 100
4, 62760, Note_on_c, 2, 69, 0
4, 62760, Note_on_c, 2, 67, 100
4, 62880, Note_on_c, 2, 67, 0
4, 62880, Note_on_c, 2, 66, 100
4, 63000, Note_on_c, 2, 66, 0
4, 63000, Note_on_c, 2, 64, 100
4, 63120, Note_on_c, 2, 64, 0
4, 63120, Note_on_c, 2, 66, 100
4, 63360, Note_on_c, 2, 66, 0
4, 63360, Note_on_c, 2, 67, 100
4, 63600, Note_on_c, 2, 67, 0
4, 63600, Note_on_c, 2, 69, 100
4, 63840, Note_on_c, 2, 69, 0
4, 63840, Note_on_c, 2, 63, 100
4, 63960, Note_on_c, 2, 63, 0
4, 63960, Note_on_c, 2, 66, 100
4, 64080, Note_on_c, 2, 66, 0
4, 64080, Note_on_c, 2, 64, 100
4, 64200, Note_on_c, 2, 64, 0
4, 64200, Note_on_c, 2, 67, 100
4, 64320, Note_on_c, 2, 67, 0
4, 64320, Note_on_c, 2, 66, 100
4, 64440, Note_on_c, 2, 66, 0
4, 64440, Note_on_c, 2, 69, 100
4, 64560, Note_on_c, 2, 69, 0
4, 64560, Note_on_c, 2, 67, 100
4, 64800, Note_on_c, 2, 67, 0
4, 64800, Note_on_c, 2, 66, 100
4, 65040, Note_on_c, 2, 66, 0
4, 65520, Note_on_c, 2, 64, 100
4, 65760, Note_on_c, 2, 64, 0
4, 65760, Note_on_c, 2, 63, 100
4, 66000, Note_on_c, 2, 63, 0
4, 66000, Note_on_c, 2, 64, 100
4, 67200, Note_on_c, 2, 64, 0
4, 70560, Note_on_c, 2, 64, 100
4, 70680, Note_on_c, 2, 64, 0
4, 70680, Note_on_c, 2, 62, 100
4, 70800, Note_on_c, 2, 62, 0
4, 70800, Note_on_c, 2, 60, 100
4, 70920, Note_on_c, 2, 60, 0
4, 70920, Note_on_c, 2, 59, 100
4, 71040, Note_on_c, 2, 59, 0
4, 71040, Note_on_c, 2, 60, 100
4, 71280, Note_on_c, 2, 60, 0
4, 71280, Note_on_c, 2, 62, 100
4, 71520, Note_on_c, 2, 62, 0
4, 71520, Note_on_c, 2, 64, 100
4, 71760, Note_on_c, 2, 64, 0
4, 71760, Note_on_c, 2, 57, 100
4, 71880, Note_on_c, 2, 57, 0
4, 71880, Note_on_c, 2, 60, 100
4, 72000, Note_on_c, 2, 60, 0
4, 72000, Note_on_c, 2, 59, 100
4, 72120, Note_on_c, 2, 59, 0
4, 72120, Note_on_c, 2, 62, 100
4, 72240, Note_on_c, 2, 62, 0
4, 72240, Note_on_c, 2, 61, 100
4, 72360, Note_on_c, 2, 61, 0
4, 72360, Note_on_c, 2, 64, 100
4, 72480, Note_on_c, 2, 64, 0
4, 72480, Note_on_c, 2, 62, 100
4, 73440, Note_on_c, 2, 62, 0
4, 74160, Note_on_c, 2, 55, 100
4, 74400, Note_on_c, 2, 55, 0
4, 74400, Note_on_c, 2, 54, 100
4, 74640, Note_on_c, 2, 54, 0
4, 74640, Note_on_c, 2, 55, 100
4, 75600, Note_on_c, 2, 55, 0
4, 85680, Note_on_c, 2, 69, 100
4, 85800, Note_on_c, 2, 69, 0
4, 85800, Note_on_c, 2, 67, 100
4, 85920, Note_on_c, 2, 67, 0
4, 85920, Note_on_c, 2, 66, 100
4, 86040, Note_on_c, 2, 66, 0
4, 86040, Note_on_c, 2, 64, 100
4, 86160, Note_on_c, 2, 64, 0
4, 86160, Note_on_c, 2, 66, 100
4, 86400, Note_on_c, 2, 66, 0
4, 86400, Note_on_c, 2, 67, 100
4, 86640, Note_on_c, 2, 67, 0
4, 86640, Note_on_c, 2, 69, 100
4, 86880, Note_on_c, 2, 69, 0
4, 86880, Note_on_c, 2, 63, 100
4, 87000, Note_on_c, 2, 63, 0
4, 87000, Note_on_c, 2, 66, 100
4, 87120, Note_on_c, 2, 66, 0
4, 87120, Note_on_c, 2, 64, 100
4, 87240, Note_on_c, 2, 64, 0
4, 87240, Note_on_c, 2, 67, 100
4, 87360, Note_on_c, 2, 67, 0
4, 87360, Note_on_c, 2, 66, 100
4, 87480, Note_on_c, 2, 66, 0
4, 87480, Note_on_c, 2, 69, 100
4, 87600, Note_on_c, 2, 69, 0
4, 87600, Note_on_c, 2, 67, 100
4, 87840, Note_on_c, 2, 67, 0
4, 87840, Note_on_c, 2, 66, 100
4, 88080, Note_on_c, 2, 66, 0
4, 88560, Note_on_c, 2, 64, 100
4, 88800, Note_on_c, 2, 64, 0
4, 88800, Note_on_c, 2, 63, 100
4, 89040, Note_on_c, 2, 63, 0
4, 89040, Note_on_c, 2, 64, 100
4, 90240, Note_on_c, 2, 64, 0
4, 93600, Note_on_c, 2, 64, 100
4, 93720, Note_on_c, 2, 64, 0
4, 93720, Note_on_c, 2, 62, 100
4, 93840, Note_on_c, 2, 62, 0
4, 93840, Note_on_c, 2, 60, 100
4, 93960, Note_on_c, 2, 60, 0
4, 93960, Note_on_c, 2, 59, 100
4, 94080, Note_on_c, 2, 59, 0
4, 94080, Note_on_c, 2, 60, 100
4, 94320, Note_on_c, 2, 60, 0
4, 94320, Note_on_c, 2, 62, 100
4, 94560, Note_on_c, 2, 62, 0
4, 94560, Note_on_c, 2, 64, 100
4, 94800, Note_on_c, 2, 64, 0
4, 94800, Note_on_c, 2, 57, 100
4, 94920, Note_on_c, 2, 57, 0
4, 94920, Note_on_c, 2, 60, 100
4, 95040, Note_on_c, 2, 60, 0
4, 95040, Note_on_c, 2, 59, 100
4, 95160, Note_on_c, 2, 59, 0
4, 95160, Note_on_c, 2, 62, 100
4, 95280, Note_on_c, 2, 62, 0
4, 95280, Note_on_c, 2, 61, 100
4, 95400, Note_on_c, 2, 61, 0
4, 95400, Note_on_c, 2, 64, 100
4, 95520, Note_on_c, 2, 64, 0
4, 95520, Note_on_c, 2, 62, 100
4, 96480, Note_on_c, 2, 62, 0
4, 97200, Note_on_c, 2, 55, 100
4, 97440, Note_on_c, 2, 55, 0
4, 97440, Note_on_c, 2, 54, 100
4, 97680, Note_on_c, 2, 54, 0
4, 97680, Note_on_c, 2, 55, 100
4, 98640, Note_on_c, 2, 55, 0
4, 104880, Note_on_c, 2, 59, 100
4, 106800, Note_on_c, 2, 59, 0
4, 106800, End_track
5, 0, Start_track
5, 0, MIDI_port, 0
5, 0, Title_t, "The Goldberg Variations - BWV 988"
5, 0, Program_c, 3, 6
5, 0, Control_c, 3, 7, 100
5, 0, Control_c, 3, 10, 49
5, 0, Note_on_c, 3, 47, 100
5, 0, Note_on_c, 3, 50, 100
5, 0, Note_on_c, 3, 43, 100
5, 480, Note_on_c, 3, 43, 0
5, 480, Note_on_c, 3, 50, 0
5, 480, Note_on_c, 3, 47, 0
5, 1800, Note_on_c, 3, 55, 100
5, 1920, Note_on_c, 3, 55, 0
5, 1920, Note_on_c, 3, 54, 100
5, 2460, Note_on_c, 3, 54, 0
5, 2460, Note_on_c, 3, 50, 100
5, 2520, Note_on_c, 3, 50, 0
5, 2520, Note_on_c, 3, 52, 100
5, 2580, Note_on_c, 3, 52, 0
5, 2580, Note_on_c, 3, 54, 100
5, 2640, Note_on_c, 3, 54, 0
5, 2640, Note_on_c, 3, 55, 100
5, 2700, Note_on_c, 3, 55, 0
5, 2700, Note_on_c, 3, 57, 100
5, 2760, Note_on_c, 3, 57, 0
5, 2760, Note_on_c, 3, 59, 100
5, 2820, Note_on_c, 3, 59, 0
5, 2820, Note_on_c, 3, 60, 100
5, 2880, Note_on_c, 3, 60, 0
5, 2880, Note_on_c, 3, 62, 100
5, 3240, Note_on_c, 3, 62, 0
5, 3240, Note_on_c, 3, 57, 100
5, 3360, Note_on_c, 3, 57, 0
5, 3360, Note_on_c, 3, 54, 100
5, 3720, Note_on_c, 3, 54, 0
5, 3720, Note_on_c, 3, 50, 100
5, 3840, Note_on_c, 3, 50, 0
5, 3840, Note_on_c, 3, 52, 100
5, 4560, Note_on_c, 3, 52, 0
5, 4560, Note_on_c, 3, 55, 100
5, 4800, Note_on_c, 3, 55, 0
5, 4800, Note_on_c, 3, 54, 100
5, 4860, Note_on_c, 3, 54, 0
5, 4860, Note_on_c, 3, 52, 100
5, 4920, Note_on_c, 3, 52, 0
5, 4920, Note_on_c, 3, 50, 100
5, 4980, Note_on_c, 3, 50, 0
5, 4980, Note_on_c, 3, 52, 100
5, 5040, Note_on_c, 3, 52, 0
5, 5040, Note_on_c, 3, 54, 100
5, 5080, Note_on_c, 3, 54, 0
5, 5080, Note_on_c, 3, 52, 100
5, 5120, Note_on_c, 3, 52, 0
5, 5120, Note_on_c, 3, 54, 100
5, 5160, Note_on_c, 3, 54, 0
5, 5160, Note_on_c, 3, 52, 100
5, 5200, Note_on_c, 3, 52, 0
5, 5200, Note_on_c, 3, 54, 100
5, 5240, Note_on_c, 3, 54, 0
5, 5240, Note_on_c, 3, 52, 100
5, 5280, Note_on_c, 3, 52, 0
5, 5280, Note_on_c, 3, 54, 100
5, 5320, Note_on_c, 3, 54, 0
5, 5320, Note_on_c, 3, 52, 100
5, 5360, Note_on_c, 3, 52, 0
5, 5360, Note_on_c, 3, 54, 100
5, 5400, Note_on_c, 3, 54, 0
5, 5400, Note_on_c, 3, 52, 100
5, 5440, Note_on_c, 3, 52, 0
5, 5440, Note_on_c, 3, 54, 100
5, 5480, Note_on_c, 3, 54, 0
5, 5480, Note_on_c, 3, 52, 100
5, 5580, Note_on_c, 3, 52, 0
5, 5580, Note_on_c, 3, 50, 100
5, 5640, Note_on_c, 3, 50, 0
5, 5640, Note_on_c, 3, 52, 100
5, 5700, Note_on_c, 3, 52, 0
5, 5700, Note_on_c, 3, 54, 100
5, 5760, Note_on_c, 3, 54, 0
5, 5760, Note_on_c, 3, 50, 100
5, 6120, Note_on_c, 3, 50, 0
5, 6120, Note_on_c, 3, 60, 100
5, 6180, Note_on_c, 3, 60, 0
5, 6180, Note_on_c, 3, 59, 100
5, 6240, Note_on_c, 3, 59, 0
5, 6240, Note_on_c, 3, 60, 100
5, 6600, Note_on_c, 3, 60, 0
5, 6600, Note_on_c, 3, 57, 100
5, 6720, Note_on_c, 3, 57, 0
5, 6720, Note_on_c, 3, 54, 100
5, 7080, Note_on_c, 3, 54, 0
5, 7080, Note_on_c, 3, 64, 100
5, 7200, Note_on_c, 3, 64, 0
5, 7200, Note_on_c, 3, 62, 100
5, 7560, Note_on_c, 3, 62, 0
5, 7560, Note_on_c, 3, 60, 100
5, 7680, Note_on_c, 3, 60, 0
5, 7680, Note_on_c, 3, 60, 100
5, 7740, Note_on_c, 3, 60, 0
5, 7740, Note_on_c, 3, 59, 100
5, 7800, Note_on_c, 3, 59, 0
5, 7800, Note_on_c, 3, 57, 100
5, 7860, Note_on_c, 3, 57, 0
5, 7860, Note_on_c, 3, 59, 100
5, 7920, Note_on_c, 3, 59, 0
5, 7920, Note_on_c, 3, 60, 100
5, 7960, Note_on_c, 3, 60, 0
5, 7960, Note_on_c, 3, 59, 100
5, 8000, Note_on_c, 3, 59, 0
5, 8000, Note_on_c, 3, 60, 100
5, 8040, Note_on_c, 3, 60, 0
5, 8040, Note_on_c, 3, 59, 100
5, 8080, Note_on_c, 3, 59, 0
5, 8080, Note_on_c, 3, 60, 100
5, 8120, Note_on_c, 3, 60, 0
5, 8120, Note_on_c, 3, 59, 100
5, 8400, Note_on_c, 3, 59, 0
5, 8400, Note_on_c, 3, 59, 100
5, 8640, Note_on_c, 3, 59, 0
5, 8640, Note_on_c, 3, 59, 100
5, 8940, Note_on_c, 3, 59, 0
5, 8940, Note_on_c, 3, 60, 100
5, 9000, Note_on_c, 3, 60, 0
5, 9000, Note_on_c, 3, 59, 100
5, 9060, Note_on_c, 3, 59, 0
5, 9060, Note_on_c, 3, 57, 100
5, 9120, Note_on_c, 3, 57, 0
5, 9120, Note_on_c, 3, 59, 100
5, 9480, Note_on_c, 3, 59, 0
5, 9480, Note_on_c, 3, 55, 100
5, 9600, Note_on_c, 3, 55, 0
5, 9600, Note_on_c, 3, 60, 100
5, 9660, Note_on_c, 3, 60, 0
5, 9660, Note_on_c, 3, 59, 100
5, 9720, Note_on_c, 3, 59, 0
5, 9720, Note_on_c, 3, 60, 100
5, 10380, Note_on_c, 3, 60, 0
5, 10380, Note_on_c, 3, 62, 100
5, 10440, Note_on_c, 3, 62, 0
5, 10440, Note_on_c, 3, 60, 100
5, 10500, Note_on_c, 3, 60, 0
5, 10500, Note_on_c, 3, 59, 100
5, 10560, Note_on_c, 3, 59, 0
5, 10560, Note_on_c, 3, 60, 100
5, 10860, Note_on_c, 3, 60, 0
5, 10860, Note_on_c, 3, 59, 100
5, 10920, Note_on_c, 3, 59, 0
5, 10920, Note_on_c, 3, 57, 100
5, 10980, Note_on_c, 3, 57, 0
5, 10980, Note_on_c, 3, 55, 100
5, 11040, Note_on_c, 3, 55, 0
5, 11040, Note_on_c, 3, 57, 100
5, 11340, Note_on_c, 3, 57, 0
5, 11340, Note_on_c, 3, 55, 100
5, 11400, Note_on_c, 3, 55, 0
5, 11400, Note_on_c, 3, 54, 100
5, 11460, Note_on_c, 3, 54, 0
5, 11460, Note_on_c, 3, 52, 100
5, 11520, Note_on_c, 3, 52, 0
5, 11520, Note_on_c, 3, 50, 100
5, 12600, Note_on_c, 3, 50, 0
5, 12600, Note_on_c, 3, 48, 100
5, 12660, Note_on_c, 3, 48, 0
5, 12660, Note_on_c, 3, 47, 100
5, 12720, Note_on_c, 3, 47, 0
5, 12720, Note_on_c, 3, 45, 100
5, 12780, Note_on_c, 3, 45, 0
5, 12780, Note_on_c, 3, 43, 100
5, 12840, Note_on_c, 3, 43, 0
5, 12840, Note_on_c, 3, 42, 100
5, 12900, Note_on_c, 3, 42, 0
5, 12900, Note_on_c, 3, 40, 100
5, 12960, Note_on_c, 3, 40, 0
5, 12960, Note_on_c, 3, 38, 100
5, 13080, Note_on_c, 3, 38, 0
5, 13080, Note_on_c, 3, 42, 100
5, 13200, Note_on_c, 3, 42, 0
5, 13200, Note_on_c, 3, 45, 100
5, 13320, Note_on_c, 3, 45, 0
5, 13320, Note_on_c, 3, 50, 100
5, 13440, Note_on_c, 3, 50, 0
5, 13440, Note_on_c, 3, 43, 100
5, 13560, Note_on_c, 3, 43, 0
5, 13560, Note_on_c, 3, 50, 100
5, 13680, Note_on_c, 3, 50, 0
5, 13680, Note_on_c, 3, 52, 100
5, 13800, Note_on_c, 3, 52, 0
5, 13800, Note_on_c, 3, 54, 100
5, 13920, Note_on_c, 3, 54, 0
5, 13920, Note_on_c, 3, 55, 100
5, 14040, Note_on_c, 3, 55, 0
5, 14040, Note_on_c, 3, 54, 100
5, 14160, Note_on_c, 3, 54, 0
5, 14160, Note_on_c, 3, 55, 100
5, 14280, Note_on_c, 3, 55, 0
5, 14280, Note_on_c, 3, 57, 100
5, 14400, Note_on_c, 3, 57, 0
5, 14400, Note_on_c, 3, 60, 100
5, 14460, Note_on_c, 3, 60, 0
5, 14460, Note_on_c, 3, 59, 100
5, 14520, Note_on_c, 3, 59, 0
5, 14520, Note_on_c, 3, 60, 100
5, 14580, Note_on_c, 3, 60, 0
5, 14580, Note_on_c, 3, 59, 100
5, 14640, Note_on_c, 3, 59, 0
5, 14640, Note_on_c, 3, 60, 100
5, 14680, Note_on_c, 3, 60, 0
5, 14680, Note_on_c, 3, 59, 100
5, 14720, Note_on_c, 3, 59, 0
5, 14720, Note_on_c, 3, 60, 100
5, 14760, Note_on_c, 3, 60, 0
5, 14760, Note_on_c, 3, 59, 100
5, 14800, Note_on_c, 3, 59, 0
5, 14800, Note_on_c, 3, 60, 100
5, 14840, Note_on_c, 3, 60, 0
5, 14840, Note_on_c, 3, 59, 100
5, 15180, Note_on_c, 3, 59, 0
5, 15180, Note_on_c, 3, 57, 100
5, 15240, Note_on_c, 3, 57, 0
5, 15240, Note_on_c, 3, 55, 100
5, 15300, Note_on_c, 3, 55, 0
5, 15300, Note_on_c, 3, 54, 100
5, 15360, Note_on_c, 3, 54, 0
5, 15360, Note_on_c, 3, 55, 100
5, 15480, Note_on_c, 3, 55, 0
5, 15480, Note_on_c, 3, 59, 100
5, 15600, Note_on_c, 3, 59, 0
5, 15600, Note_on_c, 3, 61, 100
5, 15720, Note_on_c, 3, 61, 0
5, 15720, Note_on_c, 3, 63, 100
5, 15840, Note_on_c, 3, 63, 0
5, 15840, Note_on_c, 3, 64, 100
5, 15960, Note_on_c, 3, 64, 0
5, 15960, Note_on_c, 3, 63, 100
5, 16080, Note_on_c, 3, 63, 0
5, 16080, Note_on_c, 3, 64, 100
5, 16200, Note_on_c, 3, 64, 0
5, 16200, Note_on_c, 3, 66, 100
5, 16320, Note_on_c, 3, 66, 0
5, 16320, Note_on_c, 3, 67, 100
5, 16680, Note_on_c, 3, 67, 0
5, 16680, Note_on_c, 3, 55, 100
5, 16800, Note_on_c, 3, 55, 0
5, 16800, Note_on_c, 3, 67, 100
5, 17160, Note_on_c, 3, 67, 0
5, 17160, Note_on_c, 3, 67, 100
5, 17280, Note_on_c, 3, 67, 0
5, 17280, Note_on_c, 3, 67, 100
5, 18060, Note_on_c, 3, 67, 0
5, 18060, Note_on_c, 3, 67, 100
5, 18120, Note_on_c, 3, 67, 0
5, 18120, Note_on_c, 3, 66, 100
5, 18180, Note_on_c, 3, 66, 0
5, 18180, Note_on_c, 3, 64, 100
5, 18240, Note_on_c, 3, 64, 0
5, 18240, Note_on_c, 3, 66, 100
5, 18540, Note_on_c, 3, 66, 0
5, 18540, Note_on_c, 3, 59, 100
5, 18600, Note_on_c, 3, 59, 0
5, 18600, Note_on_c, 3, 61, 100
5, 18660, Note_on_c, 3, 61, 0
5, 18660, Note_on_c, 3, 63, 100
5, 18720, Note_on_c, 3, 63, 0
5, 18720, Note_on_c, 3, 64, 100
5, 19080, Note_on_c, 3, 64, 0
5, 19080, Note_on_c, 3, 64, 100
5, 19200, Note_on_c, 3, 64, 0
5, 19200, Note_on_c, 3, 64, 100
5, 19980, Note_on_c, 3, 64, 0
5, 19980, Note_on_c, 3, 60, 100
5, 20040, Note_on_c, 3, 60, 0
5, 20040, Note_on_c, 3, 59, 100
5, 20100, Note_on_c, 3, 59, 0
5, 20100, Note_on_c, 3, 57, 100
5, 20160, Note_on_c, 3, 57, 0
5, 20160, Note_on_c, 3, 56, 100
5, 20520, Note_on_c, 3, 56, 0
5, 20520, Note_on_c, 3, 59, 100
5, 20640, Note_on_c, 3, 59, 0
5, 20640, Note_on_c, 3, 52, 100
5, 21000, Note_on_c, 3, 52, 0
5, 21000, Note_on_c, 3, 56, 100
5, 21120, Note_on_c, 3, 56, 0
5, 21120, Note_on_c, 3, 57, 100
5, 21720, Note_on_c, 3, 57, 0
5, 21720, Note_on_c, 3, 45, 100
5, 21780, Note_on_c, 3, 45, 0
5, 21780, Note_on_c, 3, 47, 100
5, 21840, Note_on_c, 3, 47, 0
5, 21840, Note_on_c, 3, 49, 100
5, 21900, Note_on_c, 3, 49, 0
5, 21900, Note_on_c, 3, 50, 100
5, 21960, Note_on_c, 3, 50, 0
5, 21960, Note_on_c, 3, 52, 100
5, 22020, Note_on_c, 3, 52, 0
5, 22020, Note_on_c, 3, 54, 100
5, 22080, Note_on_c, 3, 54, 0
5, 22080, Note_on_c, 3, 55, 100
5, 22440, Note_on_c, 3, 55, 0
5, 22440, Note_on_c, 3, 52, 100
5, 22560, Note_on_c, 3, 52, 0
5, 22560, Note_on_c, 3, 49, 100
5, 22920, Note_on_c, 3, 49, 0
5, 22920, Note_on_c, 3, 45, 100
5, 23040, Note_on_c, 3, 45, 0
5, 23040, Note_on_c, 3, 54, 100
5, 23820, Note_on_c, 3, 54, 0
5, 23820, Note_on_c, 3, 55, 100
5, 23880, Note_on_c, 3, 55, 0
5, 23880, Note_on_c, 3, 54, 100
5, 23940, Note_on_c, 3, 54, 0
5, 23940, Note_on_c, 3, 52, 100
5, 24000, Note_on_c, 3, 52, 0
5, 24000, Note_on_c, 3, 50, 100
5, 24300, Note_on_c, 3, 50, 0
5, 24300, Note_on_c, 3, 48, 100
5, 24360, Note_on_c, 3, 48, 0
5, 24360, Note_on_c, 3, 47, 100
5, 24420, Note_on_c, 3, 47, 0
5, 24420, Note_on_c, 3, 45, 100
5, 24480, Note_on_c, 3, 45, 0
5, 24480, Note_on_c, 3, 43, 100
5, 24780, Note_on_c, 3, 43, 0
5, 24780, Note_on_c, 3, 50, 100
5, 24840, Note_on_c, 3, 50, 0
5, 24840, Note_on_c, 3, 52, 100
5, 24900, Note_on_c, 3, 52, 0
5, 24900, Note_on_c, 3, 54, 100
5, 24960, Note_on_c, 3, 54, 0
5, 24960, Note_on_c, 3, 55, 100
5, 25020, Note_on_c, 3, 55, 0
5, 25020, Note_on_c, 3, 54, 100
5, 25080, Note_on_c, 3, 54, 0
5, 25080, Note_on_c, 3, 55, 100
5, 25320, Note_on_c, 3, 55, 0
5, 25320, Note_on_c, 3, 43, 100
5, 25440, Note_on_c, 3, 43, 0
5, 25440, Note_on_c, 3, 55, 100
5, 25800, Note_on_c, 3, 55, 0
5, 25800, Note_on_c, 3, 55, 100
5, 25920, Note_on_c, 3, 55, 0
5, 25920, Note_on_c, 3, 55, 100
5, 26700, Note_on_c, 3, 55, 0
5, 26700, Note_on_c, 3, 55, 100
5, 26760, Note_on_c, 3, 55, 0
5, 26760, Note_on_c, 3, 54, 100
5, 26820, Note_on_c, 3, 54, 0
5, 26820, Note_on_c, 3, 52, 100
5, 26880, Note_on_c, 3, 52, 0
5, 26880, Note_on_c, 3, 54, 100
5, 27060, Note_on_c, 3, 54, 0
5, 27060, Note_on_c, 3, 50, 100
5, 27120, Note_on_c, 3, 50, 0
5, 27120, Note_on_c, 3, 52, 100
5, 27180, Note_on_c, 3, 52, 0
5, 27180, Note_on_c, 3, 54, 100
5, 27240, Note_on_c, 3, 54, 0
5, 27240, Note_on_c, 3, 55, 100
5, 27300, Note_on_c, 3, 55, 0
5, 27300, Note_on_c, 3, 57, 100
5, 27360, Note_on_c, 3, 57, 0
5, 27360, Note_on_c, 3, 59, 100
5, 27720, Note_on_c, 3, 59, 0
5, 27720, Note_on_c, 3, 55, 100
5, 27840, Note_on_c, 3, 55, 0
5, 27840, Note_on_c, 3, 57, 100
5, 28320, Note_on_c, 3, 57, 0
5, 28320, Note_on_c, 3, 45, 100
5, 28800, Note_on_c, 3, 45, 0
5, 28800, Note_on_c, 3, 38, 100
5, 29400, Note_on_c, 3, 38, 0
5, 29400, Note_on_c, 3, 50, 100
5, 29460, Note_on_c, 3, 50, 0
5, 29460, Note_on_c, 3, 52, 100
5, 29520, Note_on_c, 3, 52, 0
5, 29520, Note_on_c, 3, 54, 100
5, 29580, Note_on_c, 3, 54, 0
5, 29580, Note_on_c, 3, 55, 100
5, 29640, Note_on_c, 3, 55, 0
5, 29640, Note_on_c, 3, 57, 100
5, 29700, Note_on_c, 3, 57, 0
5, 29700, Note_on_c, 3, 59, 100
5, 29760, Note_on_c, 3, 59, 0
5, 29760, Note_on_c, 3, 60, 100
5, 30120, Note_on_c, 3, 60, 0
5, 30120, Note_on_c, 3, 57, 100
5, 30240, Note_on_c, 3, 57, 0
5, 30240, Note_on_c, 3, 54, 100
5, 30600, Note_on_c, 3, 54, 0
5, 30600, Note_on_c, 3, 50, 100
5, 30720, Note_on_c, 3, 50, 0
5, 30720, Note_on_c, 3, 47, 100
5, 30720, Note_on_c, 3, 50, 100
5, 30720, Note_on_c, 3, 43, 100
5, 31200, Note_on_c, 3, 43, 0
5, 31200, Note_on_c, 3, 50, 0
5, 31200, Note_on_c, 3, 47, 0
5, 32520, Note_on_c, 3, 55, 100
5, 32640, Note_on_c, 3, 55, 0
5, 32640, Note_on_c, 3, 54, 100
5, 33180, Note_on_c, 3, 54, 0
5, 33180, Note_on_c, 3, 50, 100
5, 33240, Note_on_c, 3, 50, 0
5, 33240, Note_on_c, 3, 52, 100
5, 33300, Note_on_c, 3, 52, 0
5, 33300, Note_on_c, 3, 54, 100
5, 33360, Note_on_c, 3, 54, 0
5, 33360, Note_on_c, 3, 55, 100
5, 33420, Note_on_c, 3, 55, 0
5, 33420, Note_on_c, 3, 57, 100
5, 33480, Note_on_c, 3, 57, 0
5, 33480, Note_on_c, 3, 59, 100
5, 33540, Note_on_c, 3, 59, 0
5, 33540, Note_on_c, 3, 60, 100
5, 33600, Note_on_c, 3, 60, 0
5, 33600, Note_on_c, 3, 62, 100
5, 33960, Note_on_c, 3, 62, 0
5, 33960, Note_on_c, 3, 57, 100
5, 34080, Note_on_c, 3, 57, 0
5, 34080, Note_on_c, 3, 54, 100
5, 34440, Note_on_c, 3, 54, 0
5, 34440, Note_on_c, 3, 50, 100
5, 34560, Note_on_c, 3, 50, 0
5, 34560, Note_on_c, 3, 52, 100
5, 35280, Note_on_c, 3, 52, 0
5, 35280, Note_on_c, 3, 55, 100
5, 35520, Note_on_c, 3, 55, 0
5, 35520, Note_on_c, 3, 54, 100
5, 35580, Note_on_c, 3, 54, 0
5, 35580, Note_on_c, 3, 52, 100
5, 35640, Note_on_c, 3, 52, 0
5, 35640, Note_on_c, 3, 50, 100
5, 35700, Note_on_c, 3, 50, 0
5, 35700, Note_on_c, 3, 52, 100
5, 35760, Note_on_c, 3, 52, 0
5, 35760, Note_on_c, 3, 54, 100
5, 35800, Note_on_c, 3, 54, 0
5, 35800, Note_on_c, 3, 52, 100
5, 35840, Note_on_c, 3, 52, 0
5, 35840, Note_on_c, 3, 54, 100
5, 35880, Note_on_c, 3, 54, 0
5, 35880, Note_on_c, 3, 52, 100
5, 35920, Note_on_c, 3, 52, 0
5, 35920, Note_on_c, 3, 54, 100
5, 35960, Note_on_c, 3, 54, 0
5, 35960, Note_on_c, 3, 52, 100
5, 36000, Note_on_c, 3, 52, 0
5, 36000, Note_on_c, 3, 54, 100
5, 36040, Note_on_c, 3, 54, 0
5, 36040, Note_on_c, 3, 52, 100
5, 36080, Note_on_c, 3, 52, 0
5, 36080, Note_on_c, 3, 54, 100
5, 36120, Note_on_c, 3, 54, 0
5, 36120, Note_on_c, 3, 52, 100
5, 36160, Note_on_c, 3, 52, 0
5, 36160, Note_on_c, 3, 54, 100
5, 36200, Note_on_c, 3, 54, 0
5, 36200, Note_on_c, 3, 52, 100
5, 36300, Note_on_c, 3, 52, 0
5, 36300, Note_on_c, 3, 50, 100
5, 36360, Note_on_c, 3, 50, 0
5, 36360, Note_on_c, 3, 52, 100
5, 36420, Note_on_c, 3, 52, 0
5, 36420, Note_on_c, 3, 54, 100
5, 36480, Note_on_c, 3, 54, 0
5, 36480, Note_on_c, 3, 50, 100
5, 36840, Note_on_c, 3, 50, 0
5, 36840, Note_on_c, 3, 60, 100
5, 36900, Note_on_c, 3, 60, 0
5, 36900, Note_on_c, 3, 59, 100
5, 36960, Note_on_c, 3, 59, 0
5, 36960, Note_on_c, 3, 60, 100
5, 37320, Note_on_c, 3, 60, 0
5, 37320, Note_on_c, 3, 57, 100
5, 37440, Note_on_c, 3, 57, 0
5, 37440, Note_on_c, 3, 54, 100
5, 37800, Note_on_c, 3, 54, 0
5, 37800, Note_on_c, 3, 64, 100
5, 37920, Note_on_c, 3, 64, 0
5, 37920, Note_on_c, 3, 62, 100
5, 38280, Note_on_c, 3, 62, 0
5, 38280, Note_on_c, 3, 60, 100
5, 38400, Note_on_c, 3, 60, 0
5, 38400, Note_on_c, 3, 60, 100
5, 38460, Note_on_c, 3, 60, 0
5, 38460, Note_on_c, 3, 59, 100
5, 38520, Note_on_c, 3, 59, 0
5, 38520, Note_on_c, 3, 57, 100
5, 38580, Note_on_c, 3, 57, 0
5, 38580, Note_on_c, 3, 59, 100
5, 38640, Note_on_c, 3, 59, 0
5, 38640, Note_on_c, 3, 60, 100
5, 38680, Note_on_c, 3, 60, 0
5, 38680, Note_on_c, 3, 59, 100
5, 38720, Note_on_c, 3, 59, 0
5, 38720, Note_on_c, 3, 60, 100
5, 38760, Note_on_c, 3, 60, 0
5, 38760, Note_on_c, 3, 59, 100
5, 38800, Note_on_c, 3, 59, 0
5, 38800, Note_on_c, 3, 60, 100
5, 38840, Note_on_c, 3, 60, 0
5, 38840, Note_on_c, 3, 59, 100
5, 39120, Note_on_c, 3, 59, 0
5, 39120, Note_on_c, 3, 59, 100
5, 39360, Note_on_c, 3, 59, 0
5, 39360, Note_on_c, 3, 59, 100
5, 39660, Note_on_c, 3, 59, 0
5, 39660, Note_on_c, 3, 60, 100
5, 39720, Note_on_c, 3, 60, 0
5, 39720, Note_on_c, 3, 59, 100
5, 39780, Note_on_c, 3, 59, 0
5, 39780, Note_on_c, 3, 57, 100
5, 39840, Note_on_c, 3, 57, 0
5, 39840, Note_on_c, 3, 59, 100
5, 40200, Note_on_c, 3, 59, 0
5, 40200, Note_on_c, 3, 55, 100
5, 40320, Note_on_c, 3, 55, 0
5, 40320, Note_on_c, 3, 60, 100
5, 40380, Note_on_c, 3, 60, 0
5, 40380, Note_on_c, 3, 59, 100
5, 40440, Note_on_c, 3, 59, 0
5, 40440, Note_on_c, 3, 60, 100
5, 41100, Note_on_c, 3, 60, 0
5, 41100, Note_on_c, 3, 62, 100
5, 41160, Note_on_c, 3, 62, 0
5, 41160, Note_on_c, 3, 60, 100
5, 41220, Note_on_c, 3, 60, 0
5, 41220, Note_on_c, 3, 59, 100
5, 41280, Note_on_c, 3, 59, 0
5, 41280, Note_on_c, 3, 60, 100
5, 41580, Note_on_c, 3, 60, 0
5, 41580, Note_on_c, 3, 59, 100
5, 41640, Note_on_c, 3, 59, 0
5, 41640, Note_on_c, 3, 57, 100
5, 41700, Note_on_c, 3, 57, 0
5, 41700, Note_on_c, 3, 55, 100
5, 41760, Note_on_c, 3, 55, 0
5, 41760, Note_on_c, 3, 57, 100
5, 42060, Note_on_c, 3, 57, 0
5, 42060, Note_on_c, 3, 55, 100
5, 42120, Note_on_c, 3, 55, 0
5, 42120, Note_on_c, 3, 54, 100
5, 42180, Note_on_c, 3, 54, 0
5, 42180, Note_on_c, 3, 52, 100
5, 42240, Note_on_c, 3, 52, 0
5, 42240, Note_on_c, 3, 50, 100
5, 43320, Note_on_c, 3, 50, 0
5, 43320, Note_on_c, 3, 48, 100
5, 43380, Note_on_c, 3, 48, 0
5, 43380, Note_on_c, 3, 47, 100
5, 43440, Note_on_c, 3, 47, 0
5, 43440, Note_on_c, 3, 45, 100
5, 43500, Note_on_c, 3, 45, 0
5, 43500, Note_on_c, 3, 43, 100
5, 43560, Note_on_c, 3, 43, 0
5, 43560, Note_on_c, 3, 42, 100
5, 43620, Note_on_c, 3, 42, 0
5, 43620, Note_on_c, 3, 40, 100
5, 43680, Note_on_c, 3, 40, 0
5, 43680, Note_on_c, 3, 38, 100
5, 43800, Note_on_c, 3, 38, 0
5, 43800, Note_on_c, 3, 42, 100
5, 43920, Note_on_c, 3, 42, 0
5, 43920, Note_on_c, 3, 45, 100
5, 44040, Note_on_c, 3, 45, 0
5, 44040, Note_on_c, 3, 50, 100
5, 44160, Note_on_c, 3, 50, 0
5, 44160, Note_on_c, 3, 43, 100
5, 44280, Note_on_c, 3, 43, 0
5, 44280, Note_on_c, 3, 50, 100
5, 44400, Note_on_c, 3, 50, 0
5, 44400, Note_on_c, 3, 52, 100
5, 44520, Note_on_c, 3, 52, 0
5, 44520, Note_on_c, 3, 54, 100
5, 44640, Note_on_c, 3, 54, 0
5, 44640, Note_on_c, 3, 55, 100
5, 44760, Note_on_c, 3, 55, 0
5, 44760, Note_on_c, 3, 54, 100
5, 44880, Note_on_c, 3, 54, 0
5, 44880, Note_on_c, 3, 55, 100
5, 45000, Note_on_c, 3, 55, 0
5, 45000, Note_on_c, 3, 57, 100
5, 45120, Note_on_c, 3, 57, 0
5, 45120, Note_on_c, 3, 60, 100
5, 45180, Note_on_c, 3, 60, 0
5, 45180, Note_on_c, 3, 59, 100
5, 45240, Note_on_c, 3, 59, 0
5, 45240, Note_on_c, 3, 60, 100
5, 45300, Note_on_c, 3, 60, 0
5, 45300, Note_on_c, 3, 59, 100
5, 45360, Note_on_c, 3, 59, 0
5, 45360, Note_on_c, 3, 60, 100
5, 45400, Note_on_c, 3, 60, 0
5, 45400, Note_on_c, 3, 59, 100
5, 45440, Note_on_c, 3, 59, 0
5, 45440, Note_on_c, 3, 60, 100
5, 45480, Note_on_c, 3, 60, 0
5, 45480, Note_on_c, 3, 59, 100
5, 45520, Note_on_c, 3, 59, 0
5, 45520, Note_on_c, 3, 60, 100
5, 45560, Note_on_c, 3, 60, 0
5, 45560, Note_on_c, 3, 59, 100
5, 45900, Note_on_c, 3, 59, 0
5, 45900, Note_on_c, 3, 57, 100
5, 45960, Note_on_c, 3, 57, 0
5, 45960, Note_on_c, 3, 55, 100
5, 46020, Note_on_c, 3, 55, 0
5, 46020, Note_on_c, 3, 54, 100
5, 46080, Note_on_c, 3, 54, 0
5, 46080, Note_on_c, 3, 55, 100
5, 46200, Note_on_c, 3, 55, 0
5, 46200, Note_on_c, 3, 59, 100
5, 46320, Note_on_c, 3, 59, 0
5, 46320, Note_on_c, 3, 61, 100
5, 46440, Note_on_c, 3, 61, 0
5, 46440, Note_on_c, 3, 63, 100
5, 46560, Note_on_c, 3, 63, 0
5, 46560, Note_on_c, 3, 64, 100
5, 46680, Note_on_c, 3, 64, 0
5, 46680, Note_on_c, 3, 63, 100
5, 46800, Note_on_c, 3, 63, 0
5, 46800, Note_on_c, 3, 64, 100
5, 46920, Note_on_c, 3, 64, 0
5, 46920, Note_on_c, 3, 66, 100
5, 47040, Note_on_c, 3, 66, 0
5, 47040, Note_on_c, 3, 67, 100
5, 47400, Note_on_c, 3, 67, 0
5, 47400, Note_on_c, 3, 55, 100
5, 47520, Note_on_c, 3, 55, 0
5, 47520, Note_on_c, 3, 67, 100
5, 47880, Note_on_c, 3, 67, 0
5, 47880, Note_on_c, 3, 67, 100
5, 48000, Note_on_c, 3, 67, 0
5, 48000, Note_on_c, 3, 67, 100
5, 48780, Note_on_c, 3, 67, 0
5, 48780, Note_on_c, 3, 67, 100
5, 48840, Note_on_c, 3, 67, 0
5, 48840, Note_on_c, 3, 66, 100
5, 48900, Note_on_c, 3, 66, 0
5, 48900, Note_on_c, 3, 64, 100
5, 48960, Note_on_c, 3, 64, 0
5, 48960, Note_on_c, 3, 66, 100
5, 49260, Note_on_c, 3, 66, 0
5, 49260, Note_on_c, 3, 59, 100
5, 49320, Note_on_c, 3, 59, 0
5, 49320, Note_on_c, 3, 61, 100
5, 49380, Note_on_c, 3, 61, 0
5, 49380, Note_on_c, 3, 63, 100
5, 49440, Note_on_c, 3, 63, 0
5, 49440, Note_on_c, 3, 64, 100
5, 49800, Note_on_c, 3, 64, 0
5, 49800, Note_on_c, 3, 64, 100
5, 49920, Note_on_c, 3, 64, 0
5, 49920, Note_on_c, 3, 64, 100
5, 50700, Note_on_c, 3, 64, 0
5, 50700, Note_on_c, 3, 60, 100
5, 50760, Note_on_c, 3, 60, 0
5, 50760, Note_on_c, 3, 59, 100
5, 50820, Note_on_c, 3, 59, 0
5, 50820, Note_on_c, 3, 57, 100
5, 50880, Note_on_c, 3, 57, 0
5, 50880, Note_on_c, 3, 56, 100
5, 51240, Note_on_c, 3, 56, 0
5, 51240, Note_on_c, 3, 59, 100
5, 51360, Note_on_c, 3, 59, 0
5, 51360, Note_on_c, 3, 52, 100
5, 51720, Note_on_c, 3, 52, 0
5, 51720, Note_on_c, 3, 56, 100
5, 51840, Note_on_c, 3, 56, 0
5, 51840, Note_on_c, 3, 57, 100
5, 52440, Note_on_c, 3, 57, 0
5, 52440, Note_on_c, 3, 45, 100
5, 52500, Note_on_c, 3, 45, 0
5, 52500, Note_on_c, 3, 47, 100
5, 52560, Note_on_c, 3, 47, 0
5, 52560, Note_on_c, 3, 49, 100
5, 52620, Note_on_c, 3, 49, 0
5, 52620, Note_on_c, 3, 50, 100
5, 52680, Note_on_c, 3, 50, 0
5, 52680, Note_on_c, 3, 52, 100
5, 52740, Note_on_c, 3, 52, 0
5, 52740, Note_on_c, 3, 54, 100
5, 52800, Note_on_c, 3, 54, 0
5, 52800, Note_on_c, 3, 55, 100
5, 53160, Note_on_c, 3, 55, 0
5, 53160, Note_on_c, 3, 52, 100
5, 53280, Note_on_c, 3, 52, 0
5, 53280, Note_on_c, 3, 49, 100
5, 53640, Note_on_c, 3, 49, 0
5, 53640, Note_on_c, 3, 45, 100
5, 53760, Note_on_c, 3, 45, 0
5, 53760, Note_on_c, 3, 54, 100
5, 54540, Note_on_c, 3, 54, 0
5, 54540, Note_on_c, 3, 55, 100
5, 54600, Note_on_c, 3, 55, 0
5, 54600, Note_on_c, 3, 54, 100
5, 54660, Note_on_c, 3, 54, 0
5, 54660, Note_on_c, 3, 52, 100
5, 54720, Note_on_c, 3, 52, 0
5, 54720, Note_on_c, 3, 50, 100
5, 55020, Note_on_c, 3, 50, 0
5, 55020, Note_on_c, 3, 48, 100
5, 55080, Note_on_c, 3, 48, 0
5, 55080, Note_on_c, 3, 47, 100
5, 55140, Note_on_c, 3, 47, 0
5, 55140, Note_on_c, 3, 45, 100
5, 55200, Note_on_c, 3, 45, 0
5, 55200, Note_on_c, 3, 43, 100
5, 55500, Note_on_c, 3, 43, 0
5, 55500, Note_on_c, 3, 50, 100
5, 55560, Note_on_c, 3, 50, 0
5, 55560, Note_on_c, 3, 52, 100
5, 55620, Note_on_c, 3, 52, 0
5, 55620, Note_on_c, 3, 54, 100
5, 55680, Note_on_c, 3, 54, 0
5, 55680, Note_on_c, 3, 55, 100
5, 55740, Note_on_c, 3, 55, 0
5, 55740, Note_on_c, 3, 54, 100
5, 55800, Note_on_c, 3, 54, 0
5, 55800, Note_on_c, 3, 55, 100
5, 56040, Note_on_c, 3, 55, 0
5, 56040, Note_on_c, 3, 43, 100
5, 56160, Note_on_c, 3, 43, 0
5, 56160, Note_on_c, 3, 55, 100
5, 56520, Note_on_c, 3, 55, 0
5, 56520, Note_on_c, 3, 55, 100
5, 56640, Note_on_c, 3, 55, 0
5, 56640, Note_on_c, 3, 55, 100
5, 57420, Note_on_c, 3, 55, 0
5, 57420, Note_on_c, 3, 55, 100
5, 57480, Note_on_c, 3, 55, 0
5, 57480, Note_on_c, 3, 54, 100
5, 57540, Note_on_c, 3, 54, 0
5, 57540, Note_on_c, 3, 52, 100
5, 57600, Note_on_c, 3, 52, 0
5, 57600, Note_on_c, 3, 54, 100
5, 57780, Note_on_c, 3, 54, 0
5, 57780, Note_on_c, 3, 50, 100
5, 57840, Note_on_c, 3, 50, 0
5, 57840, Note_on_c, 3, 52, 100
5, 57900, Note_on_c, 3, 52, 0
5, 57900, Note_on_c, 3, 54, 100
5, 57960, Note_on_c, 3, 54, 0
5, 57960, Note_on_c, 3, 55, 100
5, 58020, Note_on_c, 3, 55, 0
5, 58020, Note_on_c, 3, 57, 100
5, 58080, Note_on_c, 3, 57, 0
5, 58080, Note_on_c, 3, 59, 100
5, 58440, Note_on_c, 3, 59, 0
5, 58440, Note_on_c, 3, 55, 100
5, 58560, Note_on_c, 3, 55, 0
5, 58560, Note_on_c, 3, 57, 100
5, 59040, Note_on_c, 3, 57, 0
5, 59040, Note_on_c, 3, 45, 100
5, 59520, Note_on_c, 3, 45, 0
5, 59520, Note_on_c, 3, 38, 100
5, 60000, Note_on_c, 3, 38, 0
5, 64800, Note_on_c, 3, 59, 100
5, 64920, Note_on_c, 3, 59, 0
5, 64920, Note_on_c, 3, 57, 100
5, 65040, Note_on_c, 3, 57, 0
5, 65040, Note_on_c, 3, 55, 100
5, 65160, Note_on_c, 3, 55, 0
5, 65160, Note_on_c, 3, 54, 100
5, 65280, Note_on_c, 3, 54, 0
5, 65280, Note_on_c, 3, 55, 100
5, 65520, Note_on_c, 3, 55, 0
5, 65520, Note_on_c, 3, 57, 100
5, 65760, Note_on_c, 3, 57, 0
5, 65760, Note_on_c, 3, 59, 100
5, 66000, Note_on_c, 3, 59, 0
5, 66000, Note_on_c, 3, 52, 100
5, 66120, Note_on_c, 3, 52, 0
5, 66120, Note_on_c, 3, 55, 100
5, 66240, Note_on_c, 3, 55, 0
5, 66240, Note_on_c, 3, 54, 100
5, 66360, Note_on_c, 3, 54, 0
5, 66360, Note_on_c, 3, 57, 100
5, 66480, Note_on_c, 3, 57, 0
5, 66480, Note_on_c, 3, 55, 100
5, 66600, Note_on_c, 3, 55, 0
5, 66600, Note_on_c, 3, 59, 100
5, 66720, Note_on_c, 3, 59, 0
5, 66720, Note_on_c, 3, 57, 100
5, 66960, Note_on_c, 3, 57, 0
5, 66960, Note_on_c, 3, 59, 100
5, 67200, Note_on_c, 3, 59, 0
5, 67200, Note_on_c, 3, 60, 100
5, 67440, Note_on_c, 3, 60, 0
5, 67440, Note_on_c, 3, 54, 100
5, 67560, Note_on_c, 3, 54, 0
5, 67560, Note_on_c, 3, 57, 100
5, 67680, Note_on_c, 3, 57, 0
5, 67680, Note_on_c, 3, 55, 100
5, 67800, Note_on_c, 3, 55, 0
5, 67800, Note_on_c, 3, 59, 100
5, 67920, Note_on_c, 3, 59, 0
5, 67920, Note_on_c, 3, 57, 100
5, 68040, Note_on_c, 3, 57, 0
5, 68040, Note_on_c, 3, 60, 100
5, 68160, Note_on_c, 3, 60, 0
5, 68160, Note_on_c, 3, 59, 100
5, 68400, Note_on_c, 3, 59, 0
5, 68400, Note_on_c, 3, 60, 100
5, 68640, Note_on_c, 3, 60, 0
5, 68640, Note_on_c, 3, 62, 100
5, 68880, Note_on_c, 3, 62, 0
5, 68880, Note_on_c, 3, 55, 100
5, 69000, Note_on_c, 3, 55, 0
5, 69000, Note_on_c, 3, 59, 100
5, 69120, Note_on_c, 3, 59, 0
5, 69120, Note_on_c, 3, 57, 100
5, 69240, Note_on_c, 3, 57, 0
5, 69240, Note_on_c, 3, 60, 100
5, 69360, Note_on_c, 3, 60, 0
5, 69360, Note_on_c, 3, 59, 100
5, 69480, Note_on_c, 3, 59, 0
5, 69480, Note_on_c, 3, 62, 100
5, 69600, Note_on_c, 3, 62, 0
5, 69600, Note_on_c, 3, 60, 100
5, 69840, Note_on_c, 3, 60, 0
5, 69840, Note_on_c, 3, 57, 100
5, 70080, Note_on_c, 3, 57, 0
5, 70080, Note_on_c, 3, 59, 100
5, 70320, Note_on_c, 3, 59, 0
5, 70320, Note_on_c, 3, 52, 100
5, 70560, Note_on_c, 3, 52, 0
5, 73440, Note_on_c, 3, 50, 100
5, 73560, Note_on_c, 3, 50, 0
5, 73560, Note_on_c, 3, 48, 100
5, 73680, Note_on_c, 3, 48, 0
5, 73680, Note_on_c, 3, 47, 100
5, 73800, Note_on_c, 3, 47, 0
5, 73800, Note_on_c, 3, 45, 100
5, 73920, Note_on_c, 3, 45, 0
5, 73920, Note_on_c, 3, 47, 100
5, 74160, Note_on_c, 3, 47, 0
5, 74160, Note_on_c, 3, 48, 100
5, 74400, Note_on_c, 3, 48, 0
5, 74400, Note_on_c, 3, 50, 100
5, 74640, Note_on_c, 3, 50, 0
5, 74640, Note_on_c, 3, 43, 100
5, 74760, Note_on_c, 3, 43, 0
5, 74760, Note_on_c, 3, 47, 100
5, 74880, Note_on_c, 3, 47, 0
5, 74880, Note_on_c, 3, 45, 100
5, 75000, Note_on_c, 3, 45, 0
5, 75000, Note_on_c, 3, 48, 100
5, 75120, Note_on_c, 3, 48, 0
5, 75120, Note_on_c, 3, 47, 100
5, 75240, Note_on_c, 3, 47, 0
5, 75240, Note_on_c, 3, 50, 100
5, 75360, Note_on_c, 3, 50, 0
5, 75360, Note_on_c, 3, 48, 100
5, 75480, Note_on_c, 3, 48, 0
5, 75480, Note_on_c, 3, 47, 100
5, 75600, Note_on_c, 3, 47, 0
5, 75600, Note_on_c, 3, 45, 100
5, 75720, Note_on_c, 3, 45, 0
5, 75720, Note_on_c, 3, 43, 100
5, 75840, Note_on_c, 3, 43, 0
5, 75840, Note_on_c, 3, 42, 100
5, 75960, Note_on_c, 3, 42, 0
5, 75960, Note_on_c, 3, 40, 100
5, 76080, Note_on_c, 3, 40, 0
5, 76080, Note_on_c, 3, 42, 100
5, 76320, Note_on_c, 3, 42, 0
5, 76320, Note_on_c, 3, 45, 100
5, 76380, Note_on_c, 3, 45, 0
5, 76380, Note_on_c, 3, 43, 100
5, 76440, Note_on_c, 3, 43, 0
5, 76440, Note_on_c, 3, 42, 100
5, 76500, Note_on_c, 3, 42, 0
5, 76500, Note_on_c, 3, 43, 100
5, 76560, Note_on_c, 3, 43, 0
5, 76560, Note_on_c, 3, 45, 100
5, 76800, Note_on_c, 3, 45, 0
5, 76800, Note_on_c, 3, 38, 100
5, 76920, Note_on_c, 3, 38, 0
5, 76920, Note_on_c, 3, 42, 100
5, 77040, Note_on_c, 3, 42, 0
5, 77040, Note_on_c, 3, 40, 100
5, 77160, Note_on_c, 3, 40, 0
5, 77160, Note_on_c, 3, 43, 100
5, 77280, Note_on_c, 3, 43, 0
5, 77280, Note_on_c, 3, 42, 100
5, 77400, Note_on_c, 3, 42, 0
5, 77400, Note_on_c, 3, 45, 100
5, 77520, Note_on_c, 3, 45, 0
5, 77520, Note_on_c, 3, 43, 100
5, 77760, Note_on_c, 3, 43, 0
5, 77760, Note_on_c, 3, 47, 100
5, 77820, Note_on_c, 3, 47, 0
5, 77820, Note_on_c, 3, 45, 100
5, 77880, Note_on_c, 3, 45, 0
5, 77880, Note_on_c, 3, 43, 100
5, 77940, Note_on_c, 3, 43, 0
5, 77940, Note_on_c, 3, 45, 100
5, 78000, Note_on_c, 3, 45, 0
5, 78000, Note_on_c, 3, 47, 100
5, 78240, Note_on_c, 3, 47, 0
5, 78240, Note_on_c, 3, 40, 100
5, 78360, Note_on_c, 3, 40, 0
5, 78360, Note_on_c, 3, 44, 100
5, 78480, Note_on_c, 3, 44, 0
5, 78480, Note_on_c, 3, 42, 100
5, 78600, Note_on_c, 3, 42, 0
5, 78600, Note_on_c, 3, 45, 100
5, 78720, Note_on_c, 3, 45, 0
5, 78720, Note_on_c, 3, 44, 100
5, 78840, Note_on_c, 3, 44, 0
5, 78840, Note_on_c, 3, 47, 100
5, 78960, Note_on_c, 3, 47, 0
5, 78960, Note_on_c, 3, 45, 100
5, 79080, Note_on_c, 3, 45, 0
5, 79080, Note_on_c, 3, 52, 100
5, 79200, Note_on_c, 3, 52, 0
5, 79200, Note_on_c, 3, 57, 100
5, 79320, Note_on_c, 3, 57, 0
5, 79320, Note_on_c, 3, 55, 100
5, 79440, Note_on_c, 3, 55, 0
5, 79440, Note_on_c, 3, 54, 100
5, 79560, Note_on_c, 3, 54, 0
5, 79560, Note_on_c, 3, 52, 100
5, 79680, Note_on_c, 3, 52, 0
5, 79680, Note_on_c, 3, 54, 100
5, 79800, Note_on_c, 3, 54, 0
5, 79800, Note_on_c, 3, 55, 100
5, 79920, Note_on_c, 3, 55, 0
5, 79920, Note_on_c, 3, 54, 100
5, 80040, Note_on_c, 3, 54, 0
5, 80040, Note_on_c, 3, 52, 100
5, 80160, Note_on_c, 3, 52, 0
5, 80160, Note_on_c, 3, 50, 100
5, 80280, Note_on_c, 3, 50, 0
5, 80280, Note_on_c, 3, 48, 100
5, 80400, Note_on_c, 3, 48, 0
5, 80400, Note_on_c, 3, 47, 100
5, 80520, Note_on_c, 3, 47, 0
5, 80520, Note_on_c, 3, 50, 100
5, 80640, Note_on_c, 3, 50, 0
5, 80640, Note_on_c, 3, 48, 100
5, 80760, Note_on_c, 3, 48, 0
5, 80760, Note_on_c, 3, 52, 100
5, 80880, Note_on_c, 3, 52, 0
5, 80880, Note_on_c, 3, 50, 100
5, 81000, Note_on_c, 3, 50, 0
5, 81000, Note_on_c, 3, 54, 100
5, 81120, Note_on_c, 3, 54, 0
5, 81120, Note_on_c, 3, 52, 100
5, 81360, Note_on_c, 3, 52, 0
5, 81360, Note_on_c, 3, 48, 100
5, 81600, Note_on_c, 3, 48, 0
5, 81600, Note_on_c, 3, 50, 100
5, 81840, Note_on_c, 3, 50, 0
5, 81840, Note_on_c, 3, 43, 100
5, 81960, Note_on_c, 3, 43, 0
5, 81960, Note_on_c, 3, 42, 100
5, 82080, Note_on_c, 3, 42, 0
5, 82080, Note_on_c, 3, 43, 100
5, 82200, Note_on_c, 3, 43, 0
5, 82200, Note_on_c, 3, 45, 100
5, 82320, Note_on_c, 3, 45, 0
5, 82320, Note_on_c, 3, 47, 100
5, 82440, Note_on_c, 3, 47, 0
5, 82440, Note_on_c, 3, 48, 100
5, 82560, Note_on_c, 3, 48, 0
5, 82560, Note_on_c, 3, 50, 100
5, 82800, Note_on_c, 3, 50, 0
5, 82800, Note_on_c, 3, 38, 100
5, 83040, Note_on_c, 3, 38, 0
5, 87840, Note_on_c, 3, 59, 100
5, 87960, Note_on_c, 3, 59, 0
5, 87960, Note_on_c, 3, 57, 100
5, 88080, Note_on_c, 3, 57, 0
5, 88080, Note_on_c, 3, 55, 100
5, 88200, Note_on_c, 3, 55, 0
5, 88200, Note_on_c, 3, 54, 100
5, 88320, Note_on_c, 3, 54, 0
5, 88320, Note_on_c, 3, 55, 100
5, 88560, Note_on_c, 3, 55, 0
5, 88560, Note_on_c, 3, 57, 100
5, 88800, Note_on_c, 3, 57, 0
5, 88800, Note_on_c, 3, 59, 100
5, 89040, Note_on_c, 3, 59, 0
5, 89040, Note_on_c, 3, 52, 100
5, 89160, Note_on_c, 3, 52, 0
5, 89160, Note_on_c, 3, 55, 100
5, 89280, Note_on_c, 3, 55, 0
5, 89280, Note_on_c, 3, 54, 100
5, 89400, Note_on_c, 3, 54, 0
5, 89400, Note_on_c, 3, 57, 100
5, 89520, Note_on_c, 3, 57, 0
5, 89520, Note_on_c, 3, 55, 100
5, 89640, Note_on_c, 3, 55, 0
5, 89640, Note_on_c, 3, 59, 100
5, 89760, Note_on_c, 3, 59, 0
5, 89760, Note_on_c, 3, 57, 100
5, 90000, Note_on_c, 3, 57, 0
5, 90000, Note_on_c, 3, 59, 100
5, 90240, Note_on_c, 3, 59, 0
5, 90240, Note_on_c, 3, 60, 100
5, 90480, Note_on_c, 3, 60, 0
5, 90480, Note_on_c, 3, 54, 100
5, 90600, Note_on_c, 3, 54, 0
5, 90600, Note_on_c, 3, 57, 100
5, 90720, Note_on_c, 3, 57, 0
5, 90720, Note_on_c, 3, 55, 100
5, 90840, Note_on_c, 3, 55, 0
5, 90840, Note_on_c, 3, 59, 100
5, 90960, Note_on_c, 3, 59, 0
5, 90960, Note_on_c, 3, 57, 100
5, 91080, Note_on_c, 3, 57, 0
5, 91080, Note_on_c, 3, 60, 100
5, 91200, Note_on_c, 3, 60, 0
5, 91200, Note_on_c, 3, 59, 100
5, 91440, Note_on_c, 3, 59, 0
5, 91440, Note_on_c, 3, 60, 100
5, 91680, Note_on_c, 3, 60, 0
5, 91680, Note_on_c, 3, 62, 100
5, 91920, Note_on_c, 3, 62, 0
5, 91920, Note_on_c, 3, 55, 100
5, 92040, Note_on_c, 3, 55, 0
5, 92040, Note_on_c, 3, 59, 100
5, 92160, Note_on_c, 3, 59, 0
5, 92160, Note_on_c, 3, 57, 100
5, 92280, Note_on_c, 3, 57, 0
5, 92280, Note_on_c, 3, 60, 100
5, 92400, Note_on_c, 3, 60, 0
5, 92400, Note_on_c, 3, 59, 100
5, 92520, Note_on_c, 3, 59, 0
5, 92520, Note_on_c, 3, 62, 100
5, 92640, Note_on_c, 3, 62, 0
5, 92640, Note_on_c, 3, 60, 100
5, 92880, Note_on_c, 3, 60, 0
5, 92880, Note_on_c, 3, 57, 100
5, 93120, Note_on_c, 3, 57, 0
5, 93120, Note_on_c, 3, 59, 100
5, 93360, Note_on_c, 3, 59, 0
5, 93360, Note_on_c, 3, 52, 100
5, 93600, Note_on_c, 3, 52, 0
5, 96480, Note_on_c, 3, 50, 100
5, 96600, Note_on_c, 3, 50, 0
5, 96600, Note_on_c, 3, 48, 100
5, 96720, Note_on_c, 3, 48, 0
5, 96720, Note_on_c, 3, 47, 100
5, 96840, Note_on_c, 3, 47, 0
5, 96840, Note_on_c, 3, 45, 100
5, 96960, Note_on_c, 3, 45, 0
5, 96960, Note_on_c, 3, 47, 100
5, 97200, Note_on_c, 3, 47, 0
5, 97200, Note_on_c, 3, 48, 100
5, 97440, Note_on_c, 3, 48, 0
5, 97440, Note_on_c, 3, 50, 100
5, 97680, Note_on_c, 3, 50, 0
5, 97680, Note_on_c, 3, 43, 100
5, 97800, Note_on_c, 3, 43, 0
5, 97800, Note_on_c, 3, 47, 100
5, 97920, Note_on_c, 3, 47, 0
5, 97920, Note_on_c, 3, 45, 100
5, 98040, Note_on_c, 3, 45, 0
5, 98040, Note_on_c, 3, 48, 100
5, 98160, Note_on_c, 3, 48, 0
5, 98160, Note_on_c, 3, 47, 100
5, 98280, Note_on_c, 3, 47, 0
5, 98280, Note_on_c, 3, 50, 100
5, 98400, Note_on_c, 3, 50, 0
5, 98400, Note_on_c, 3, 48, 100
5, 98520, Note_on_c, 3, 48, 0
5, 98520, Note_on_c, 3, 47, 100
5, 98640, Note_on_c, 3, 47, 0
5, 98640, Note_on_c, 3, 45, 100
5, 98760, Note_on_c, 3, 45, 0
5, 98760, Note_on_c, 3, 43, 100
5, 98880, Note_on_c, 3, 43, 0
5, 98880, Note_on_c, 3, 42, 100
5, 99000, Note_on_c, 3, 42, 0
5, 99000, Note_on_c, 3, 40, 100
5, 99120, Note_on_c, 3, 40, 0
5, 99120, Note_on_c, 3, 42, 100
5, 99360, Note_on_c, 3, 42, 0
5, 99360, Note_on_c, 3, 45, 100
5, 99420, Note_on_c, 3, 45, 0
5, 99420, Note_on_c, 3, 43, 100
5, 99480, Note_on_c, 3, 43, 0
5, 99480, Note_on_c, 3, 42, 100
5, 99540, Note_on_c, 3, 42, 0
5, 99540, Note_on_c, 3, 43, 100
5, 99600, Note_on_c, 3, 43, 0
5, 99600, Note_on_c, 3, 45, 100
5, 99840, Note_on_c, 3, 45, 0
5, 99840, Note_on_c, 3, 38, 100
5, 99960, Note_on_c, 3, 38, 0
5, 99960, Note_on_c, 3, 42, 100
5, 100080, Note_on_c, 3, 42, 0
5, 100080, Note_on_c, 3, 40, 100
5, 100200, Note_on_c, 3, 40, 0
5, 100200, Note_on_c, 3, 43, 100
5, 100320, Note_on_c, 3, 43, 0
5, 100320, Note_on_c, 3, 42, 100
5, 100440, Note_on_c, 3, 42, 0
5, 100440, Note_on_c, 3, 45, 100
5, 100560, Note_on_c, 3, 45, 0
5, 100560, Note_on_c, 3, 43, 100
5, 100800, Note_on_c, 3, 43, 0
5, 100800, Note_on_c, 3, 47, 100
5, 100860, Note_on_c, 3, 47, 0
5, 100860, Note_on_c, 3, 45, 100
5, 100920, Note_on_c, 3, 45, 0
5, 100920, Note_on_c, 3, 43, 100
5, 100980, Note_on_c, 3, 43, 0
5, 100980, Note_on_c, 3, 45, 100
5, 101040, Note_on_c, 3, 45, 0
5, 101040, Note_on_c, 3, 47, 100
5, 101280, Note_on_c, 3, 47, 0
5, 101280, Note_on_c, 3, 40, 100
5, 101400, Note_on_c, 3, 40, 0
5, 101400, Note_on_c, 3, 44, 100
5, 101520, Note_on_c, 3, 44, 0
5, 101520, Note_on_c, 3, 42, 100
5, 101640, Note_on_c, 3, 42, 0
5, 101640, Note_on_c, 3, 45, 100
5, 101760, Note_on_c, 3, 45, 0
5, 101760, Note_on_c, 3, 44, 100
5, 101880, Note_on_c, 3, 44, 0
5, 101880, Note_on_c, 3, 47, 100
5, 102000, Note_on_c, 3, 47, 0
5, 102000, Note_on_c, 3, 45, 100
5, 102120, Note_on_c, 3, 45, 0
5, 102120, Note_on_c, 3, 52, 100
5, 102240, Note_on_c, 3, 52, 0
5, 102240, Note_on_c, 3, 57, 100
5, 102360, Note_on_c, 3, 57, 0
5, 102360, Note_on_c, 3, 55, 100
5, 102480, Note_on_c, 3, 55, 0
5, 102480, Note_on_c, 3, 54, 100
5, 102600, Note_on_c, 3, 54, 0
5, 102600, Note_on_c, 3, 52, 100
5, 102720, Note_on_c, 3, 52, 0
5, 102720, Note_on_c, 3, 54, 100
5, 102840, Note_on_c, 3, 54, 0
5, 102840, Note_on_c, 3, 55, 100
5, 102960, Note_on_c, 3, 55, 0
5, 102960, Note_on_c, 3, 54, 100
5, 103080, Note_on_c, 3, 54, 0
5, 103080, Note_on_c, 3, 52, 100
5, 103200, Note_on_c, 3, 52, 0
5, 103200, Note_on_c, 3, 50, 100
5, 103320, Note_on_c, 3, 50, 0
5, 103320, Note_on_c, 3, 48, 100
5, 103440, Note_on_c, 3, 48, 0
5, 103440, Note_on_c, 3, 47, 100
5, 103560, Note_on_c, 3, 47, 0
5, 103560, Note_on_c, 3, 50, 100
5, 103680, Note_on_c, 3, 50, 0
5, 103680, Note_on_c, 3, 48, 100
5, 103800, Note_on_c, 3, 48, 0
5, 103800, Note_on_c, 3, 52, 100
5, 103920, Note_on_c, 3, 52, 0
5, 103920, Note_on_c, 3, 50, 100
5, 104040, Note_on_c, 3, 50, 0
5, 104040, Note_on_c, 3, 54, 100
5, 104160, Note_on_c, 3, 54, 0
5, 104160, Note_on_c, 3, 52, 100
5, 104400, Note_on_c, 3, 52, 0
5, 104400, Note_on_c, 3, 48, 100
5, 104640, Note_on_c, 3, 48, 0
5, 104640, Note_on_c, 3, 50, 100
5, 104880, Note_on_c, 3, 50, 0
5, 104880, Note_on_c, 3, 43, 100
5, 106800, Note_on_c, 3, 43, 0
5, 106800, End_track
6, 0, Start_track
6, 0, MIDI_port, 0
6, 0, Title_t, "Aria with 30 Variations for Harpsichord with 2 Manuals"
6, 0, End_track
7, 0, Start_track
7, 0, MIDI_port, 0
7, 0, Title_t, "--------------------------------------"
7, 0, End_track
8, 0, Start_track
8, 0, MIDI_port, 0
8, 0, Title_t, "Variatio 16 a 1 Clav. Ouverture"
8, 0, End_track
9, 0, Start_track
9, 0, MIDI_port, 0
9, 0, Title_t, "--------------------------------------"
9, 0, End_track
10, 0, Start_track
10, 0, MIDI_port, 0
10, 0, Title_t, "Sequenced with Cakewalk Pro Audio by"
10, 0, End_track
11, 0, Start_track
11, 0, MIDI_port, 0
11, 0, Title_t, "David J. Grossman - dave@unpronounceable.com"
11, 0, End_track
12, 0, Start_track
12, 0, MIDI_port, 0
12, 0, Title_t, "This and other Bach MIDI files can be found at:"
12, 0, End_track
13, 0, Start_track
13, 0, MIDI_port, 0
13, 0, Title_t, "Dave's J.S. Bach Page"
13, 0, End_track
14, 0, Start_track
14, 0, MIDI_port, 0
14, 0, Title_t, "http://www.unpronounceable.com/bach"
14, 0, End_track
15, 0, Start_track
15, 0, MIDI_port, 0
15, 0, Title_t, "--------------------------------------"
15, 0, End_track
16, 0, Start_track
16, 0, MIDI_port, 0
16, 0, Title_t, "Original Filename: 988-v16.mid"
16, 0, End_track
17, 0, Start_track
17, 0, MIDI_port, 0
17, 0, Title_t, "Last Modified: October 4, 1997"
17, 0, End_track
0, 0, End_of_file
