0, 0, Header, 1, 17, 480
1, 0, Start_track
1, 0, Title_t, "untitled"
1, 0, SMPTE_offset, 96, 0, 3, 0, 0
1, 0, Time_signature, 12, 3, 12, 8
1, 0, Key_signature, 1, "major"
1, 0, Tempo, 600000
1, 0, Marker_t, "A"
1, 23040, Marker_t, "A'"
1, 46080, Marker_t, "B"
1, 69120, Marker_t, "B'"
1, 91680, Tempo, 1250000
1, 91680, End_track
2, 0, Start_track
2, 0, MIDI_port, 0
2, 0, Title_t, "Solo Harpsichord with 2 Manuals"
2, 0, Program_c, 0, 6
2, 0, Control_c, 0, 7, 100
2, 0, Control_c, 0, 10, 74
2, 0, Note_on_c, 0, 71, 100
2, 840, Note_on_c, 0, 71, 0
2, 840, Note_on_c, 0, 72, 100
2, 960, Note_on_c, 0, 72, 0
2, 960, Note_on_c, 0, 74, 100
2, 1080, Note_on_c, 0, 74, 0
2, 1080, Note_on_c, 0, 72, 100
2, 1200, Note_on_c, 0, 72, 0
2, 1200, Note_on_c, 0, 74, 100
2, 1320, Note_on_c, 0, 74, 0
2, 1320, Note_on_c, 0, 76, 100
2, 1440, Note_on_c, 0, 76, 0
2, 1440, Note_on_c, 0, 69, 100
2, 2280, Note_on_c, 0, 69, 0
2, 2280, Note_on_c, 0, 71, 100
2, 2400, Note_on_c, 0, 71, 0
2, 2400, Note_on_c, 0, 72, 100
2, 2520, Note_on_c, 0, 72, 0
2, 2520, Note_on_c, 0, 71, 100
2, 2640, Note_on_c, 0, 71, 0
2, 2640, Note_on_c, 0, 72, 100
2, 2760, Note_on_c, 0, 72, 0
2, 2760, Note_on_c, 0, 74, 100
2, 2880, Note_on_c, 0, 74, 0
2, 2880, Note_on_c, 0, 67, 100
2, 3600, Note_on_c, 0, 67, 0
2, 3600, Note_on_c, 0, 79, 100
2, 4560, Note_on_c, 0, 79, 0
2, 4560, Note_on_c, 0, 81, 100
2, 4680, Note_on_c, 0, 81, 0
2, 4680, Note_on_c, 0, 79, 100
2, 4800, Note_on_c, 0, 79, 0
2, 4800, Note_on_c, 0, 78, 100
2, 4920, Note_on_c, 0, 78, 0
2, 4920, Note_on_c, 0, 79, 100
2, 5040, Note_on_c, 0, 79, 0
2, 5040, Note_on_c, 0, 81, 100
2, 5280, Note_on_c, 0, 81, 0
2, 6000, Note_on_c, 0, 74, 100
2, 6120, Note_on_c, 0, 74, 0
2, 6120, Note_on_c, 0, 72, 100
2, 6240, Note_on_c, 0, 72, 0
2, 6240, Note_on_c, 0, 71, 100
2, 6360, Note_on_c, 0, 71, 0
2, 6360, Note_on_c, 0, 69, 100
2, 6480, Note_on_c, 0, 69, 0
2, 6480, Note_on_c, 0, 71, 100
2, 6720, Note_on_c, 0, 71, 0
2, 6720, Note_on_c, 0, 72, 100
2, 6840, Note_on_c, 0, 72, 0
2, 6840, Note_on_c, 0, 71, 100
2, 6960, Note_on_c, 0, 71, 0
2, 6960, Note_on_c, 0, 69, 100
2, 7080, Note_on_c, 0, 69, 0
2, 7080, Note_on_c, 0, 71, 100
2, 7200, Note_on_c, 0, 71, 0
2, 7200, Note_on_c, 0, 67, 100
2, 7440, Note_on_c, 0, 67, 0
2, 7440, Note_on_c, 0, 76, 100
2, 7680, Note_on_c, 0, 76, 0
2, 7680, Note_on_c, 0, 74, 100
2, 7920, Note_on_c, 0, 74, 0
2, 7920, Note_on_c, 0, 72, 100
2, 8160, Note_on_c, 0, 72, 0
2, 8160, Note_on_c, 0, 78, 100
2, 8400, Note_on_c, 0, 78, 0
2, 8400, Note_on_c, 0, 81, 100
2, 8640, Note_on_c, 0, 81, 0
2, 8640, Note_on_c, 0, 71, 100
2, 9120, Note_on_c, 0, 71, 0
2, 9120, Note_on_c, 0, 79, 100
2, 9360, Note_on_c, 0, 79, 0
2, 9360, Note_on_c, 0, 79, 100
2, 9840, Note_on_c, 0, 79, 0
2, 9840, Note_on_c, 0, 78, 100
2, 10080, Note_on_c, 0, 78, 0
2, 10560, Note_on_c, 0, 83, 100
2, 10800, Note_on_c, 0, 83, 0
2, 10800, Note_on_c, 0, 81, 100
2, 11280, Note_on_c, 0, 81, 0
2, 11280, Note_on_c, 0, 74, 100
2, 11640, Note_on_c, 0, 74, 0
2, 11640, Note_on_c, 0, 76, 100
2, 11760, Note_on_c, 0, 76, 0
2, 11760, Note_on_c, 0, 74, 100
2, 11880, Note_on_c, 0, 74, 0
2, 11880, Note_on_c, 0, 72, 100
2, 12000, Note_on_c, 0, 72, 0
2, 12000, Note_on_c, 0, 71, 100
2, 12240, Note_on_c, 0, 71, 0
2, 12240, Note_on_c, 0, 76, 100
2, 12480, Note_on_c, 0, 76, 0
2, 12480, Note_on_c, 0, 71, 100
2, 12720, Note_on_c, 0, 71, 0
2, 12720, Note_on_c, 0, 74, 100
2, 12960, Note_on_c, 0, 74, 0
2, 12960, Note_on_c, 0, 73, 100
2, 13200, Note_on_c, 0, 73, 0
2, 13200, Note_on_c, 0, 74, 100
2, 13440, Note_on_c, 0, 74, 0
2, 13440, Note_on_c, 0, 76, 100
2, 13920, Note_on_c, 0, 76, 0
2, 13920, Note_on_c, 0, 73, 100
2, 14160, Note_on_c, 0, 73, 0
2, 14160, Note_on_c, 0, 69, 100
2, 14400, Note_on_c, 0, 69, 0
2, 14880, Note_on_c, 0, 74, 100
2, 15120, Note_on_c, 0, 74, 0
2, 15120, Note_on_c, 0, 67, 100
2, 16080, Note_on_c, 0, 67, 0
2, 16080, Note_on_c, 0, 66, 100
2, 16320, Note_on_c, 0, 66, 0
2, 16320, Note_on_c, 0, 67, 100
2, 16560, Note_on_c, 0, 67, 0
2, 16560, Note_on_c, 0, 64, 100
2, 16800, Note_on_c, 0, 64, 0
2, 16800, Note_on_c, 0, 69, 100
2, 16920, Note_on_c, 0, 69, 0
2, 16920, Note_on_c, 0, 67, 100
2, 17040, Note_on_c, 0, 67, 0
2, 17040, Note_on_c, 0, 66, 100
2, 17160, Note_on_c, 0, 66, 0
2, 17160, Note_on_c, 0, 64, 100
2, 17280, Note_on_c, 0, 64, 0
2, 17280, Note_on_c, 0, 62, 100
2, 17520, Note_on_c, 0, 62, 0
2, 17520, Note_on_c, 0, 64, 100
2, 17640, Note_on_c, 0, 64, 0
2, 17640, Note_on_c, 0, 66, 100
2, 17760, Note_on_c, 0, 66, 0
2, 17760, Note_on_c, 0, 67, 100
2, 17880, Note_on_c, 0, 67, 0
2, 17880, Note_on_c, 0, 69, 100
2, 18000, Note_on_c, 0, 69, 0
2, 18000, Note_on_c, 0, 71, 100
2, 18240, Note_on_c, 0, 71, 0
2, 18240, Note_on_c, 0, 74, 100
2, 18480, Note_on_c, 0, 74, 0
2, 18480, Note_on_c, 0, 73, 100
2, 18720, Note_on_c, 0, 73, 0
2, 18720, Note_on_c, 0, 74, 100
2, 19680, Note_on_c, 0, 74, 0
2, 19680, Note_on_c, 0, 73, 100
2, 19920, Note_on_c, 0, 73, 0
2, 20160, Note_on_c, 0, 74, 100
2, 21000, Note_on_c, 0, 74, 0
2, 21000, Note_on_c, 0, 69, 100
2, 21120, Note_on_c, 0, 69, 0
2, 21120, Note_on_c, 0, 67, 100
2, 21240, Note_on_c, 0, 67, 0
2, 21240, Note_on_c, 0, 66, 100
2, 21360, Note_on_c, 0, 66, 0
2, 21360, Note_on_c, 0, 67, 100
2, 21480, Note_on_c, 0, 67, 0
2, 21480, Note_on_c, 0, 64, 100
2, 21600, Note_on_c, 0, 64, 0
2, 21600, Note_on_c, 0, 66, 100
2, 23040, Note_on_c, 0, 66, 0
2, 23040, Note_on_c, 0, 71, 100
2, 23880, Note_on_c, 0, 71, 0
2, 23880, Note_on_c, 0, 72, 100
2, 24000, Note_on_c, 0, 72, 0
2, 24000, Note_on_c, 0, 74, 100
2, 24120, Note_on_c, 0, 74, 0
2, 24120, Note_on_c, 0, 72, 100
2, 24240, Note_on_c, 0, 72, 0
2, 24240, Note_on_c, 0, 74, 100
2, 24360, Note_on_c, 0, 74, 0
2, 24360, Note_on_c, 0, 76, 100
2, 24480, Note_on_c, 0, 76, 0
2, 24480, Note_on_c, 0, 69, 100
2, 25320, Note_on_c, 0, 69, 0
2, 25320, Note_on_c, 0, 71, 100
2, 25440, Note_on_c, 0, 71, 0
2, 25440, Note_on_c, 0, 72, 100
2, 25560, Note_on_c, 0, 72, 0
2, 25560, Note_on_c, 0, 71, 100
2, 25680, Note_on_c, 0, 71, 0
2, 25680, Note_on_c, 0, 72, 100
2, 25800, Note_on_c, 0, 72, 0
2, 25800, Note_on_c, 0, 74, 100
2, 25920, Note_on_c, 0, 74, 0
2, 25920, Note_on_c, 0, 67, 100
2, 26640, Note_on_c, 0, 67, 0
2, 26640, Note_on_c, 0, 79, 100
2, 27600, Note_on_c, 0, 79, 0
2, 27600, Note_on_c, 0, 81, 100
2, 27720, Note_on_c, 0, 81, 0
2, 27720, Note_on_c, 0, 79, 100
2, 27840, Note_on_c, 0, 79, 0
2, 27840, Note_on_c, 0, 78, 100
2, 27960, Note_on_c, 0, 78, 0
2, 27960, Note_on_c, 0, 79, 100
2, 28080, Note_on_c, 0, 79, 0
2, 28080, Note_on_c, 0, 81, 100
2, 28320, Note_on_c, 0, 81, 0
2, 29040, Note_on_c, 0, 74, 100
2, 29160, Note_on_c, 0, 74, 0
2, 29160, Note_on_c, 0, 72, 100
2, 29280, Note_on_c, 0, 72, 0
2, 29280, Note_on_c, 0, 71, 100
2, 29400, Note_on_c, 0, 71, 0
2, 29400, Note_on_c, 0, 69, 100
2, 29520, Note_on_c, 0, 69, 0
2, 29520, Note_on_c, 0, 71, 100
2, 29760, Note_on_c, 0, 71, 0
2, 29760, Note_on_c, 0, 72, 100
2, 29880, Note_on_c, 0, 72, 0
2, 29880, Note_on_c, 0, 71, 100
2, 30000, Note_on_c, 0, 71, 0
2, 30000, Note_on_c, 0, 69, 100
2, 30120, Note_on_c, 0, 69, 0
2, 30120, Note_on_c, 0, 71, 100
2, 30240, Note_on_c, 0, 71, 0
2, 30240, Note_on_c, 0, 67, 100
2, 30480, Note_on_c, 0, 67, 0
2, 30480, Note_on_c, 0, 76, 100
2, 30720, Note_on_c, 0, 76, 0
2, 30720, Note_on_c, 0, 74, 100
2, 30960, Note_on_c, 0, 74, 0
2, 30960, Note_on_c, 0, 72, 100
2, 31200, Note_on_c, 0, 72, 0
2, 31200, Note_on_c, 0, 78, 100
2, 31440, Note_on_c, 0, 78, 0
2, 31440, Note_on_c, 0, 81, 100
2, 31680, Note_on_c, 0, 81, 0
2, 31680, Note_on_c, 0, 71, 100
2, 32160, Note_on_c, 0, 71, 0
2, 32160, Note_on_c, 0, 79, 100
2, 32400, Note_on_c, 0, 79, 0
2, 32400, Note_on_c, 0, 79, 100
2, 32880, Note_on_c, 0, 79, 0
2, 32880, Note_on_c, 0, 78, 100
2, 33120, Note_on_c, 0, 78, 0
2, 33600, Note_on_c, 0, 83, 100
2, 33840, Note_on_c, 0, 83, 0
2, 33840, Note_on_c, 0, 81, 100
2, 34320, Note_on_c, 0, 81, 0
2, 34320, Note_on_c, 0, 74, 100
2, 34680, Note_on_c, 0, 74, 0
2, 34680, Note_on_c, 0, 76, 100
2, 34800, Note_on_c, 0, 76, 0
2, 34800, Note_on_c, 0, 74, 100
2, 34920, Note_on_c, 0, 74, 0
2, 34920, Note_on_c, 0, 72, 100
2, 35040, Note_on_c, 0, 72, 0
2, 35040, Note_on_c, 0, 71, 100
2, 35280, Note_on_c, 0, 71, 0
2, 35280, Note_on_c, 0, 76, 100
2, 35520, Note_on_c, 0, 76, 0
2, 35520, Note_on_c, 0, 71, 100
2, 35760, Note_on_c, 0, 71, 0
2, 35760, Note_on_c, 0, 74, 100
2, 36000, Note_on_c, 0, 74, 0
2, 36000, Note_on_c, 0, 73, 100
2, 36240, Note_on_c, 0, 73, 0
2, 36240, Note_on_c, 0, 74, 100
2, 36480, Note_on_c, 0, 74, 0
2, 36480, Note_on_c, 0, 76, 100
2, 36960, Note_on_c, 0, 76, 0
2, 36960, Note_on_c, 0, 73, 100
2, 37200, Note_on_c, 0, 73, 0
2, 37200, Note_on_c, 0, 69, 100
2, 37440, Note_on_c, 0, 69, 0
2, 37920, Note_on_c, 0, 74, 100
2, 38160, Note_on_c, 0, 74, 0
2, 38160, Note_on_c, 0, 67, 100
2, 39120, Note_on_c, 0, 67, 0
2, 39120, Note_on_c, 0, 66, 100
2, 39360, Note_on_c, 0, 66, 0
2, 39360, Note_on_c, 0, 67, 100
2, 39600, Note_on_c, 0, 67, 0
2, 39600, Note_on_c, 0, 64, 100
2, 39840, Note_on_c, 0, 64, 0
2, 39840, Note_on_c, 0, 69, 100
2, 39960, Note_on_c, 0, 69, 0
2, 39960, Note_on_c, 0, 67, 100
2, 40080, Note_on_c, 0, 67, 0
2, 40080, Note_on_c, 0, 66, 100
2, 40200, Note_on_c, 0, 66, 0
2, 40200, Note_on_c, 0, 64, 100
2, 40320, Note_on_c, 0, 64, 0
2, 40320, Note_on_c, 0, 62, 100
2, 40560, Note_on_c, 0, 62, 0
2, 40560, Note_on_c, 0, 64, 100
2, 40680, Note_on_c, 0, 64, 0
2, 40680, Note_on_c, 0, 66, 100
2, 40800, Note_on_c, 0, 66, 0
2, 40800, Note_on_c, 0, 67, 100
2, 40920, Note_on_c, 0, 67, 0
2, 40920, Note_on_c, 0, 69, 100
2, 41040, Note_on_c, 0, 69, 0
2, 41040, Note_on_c, 0, 71, 100
2, 41280, Note_on_c, 0, 71, 0
2, 41280, Note_on_c, 0, 74, 100
2, 41520, Note_on_c, 0, 74, 0
2, 41520, Note_on_c, 0, 73, 100
2, 41760, Note_on_c, 0, 73, 0
2, 41760, Note_on_c, 0, 74, 100
2, 42720, Note_on_c, 0, 74, 0
2, 42720, Note_on_c, 0, 73, 100
2, 42960, Note_on_c, 0, 73, 0
2, 43200, Note_on_c, 0, 74, 100
2, 44040, Note_on_c, 0, 74, 0
2, 44040, Note_on_c, 0, 69, 100
2, 44160, Note_on_c, 0, 69, 0
2, 44160, Note_on_c, 0, 67, 100
2, 44280, Note_on_c, 0, 67, 0
2, 44280, Note_on_c, 0, 66, 100
2, 44400, Note_on_c, 0, 66, 0
2, 44400, Note_on_c, 0, 67, 100
2, 44520, Note_on_c, 0, 67, 0
2, 44520, Note_on_c, 0, 64, 100
2, 44640, Note_on_c, 0, 64, 0
2, 44640, Note_on_c, 0, 66, 100
2, 46080, Note_on_c, 0, 66, 0
2, 46800, Note_on_c, 0, 81, 100
2, 47640, Note_on_c, 0, 81, 0
2, 47640, Note_on_c, 0, 83, 100
2, 47760, Note_on_c, 0, 83, 0
2, 47760, Note_on_c, 0, 84, 100
2, 47880, Note_on_c, 0, 84, 0
2, 47880, Note_on_c, 0, 81, 100
2, 48000, Note_on_c, 0, 81, 0
2, 48000, Note_on_c, 0, 83, 100
2, 48120, Note_on_c, 0, 83, 0
2, 48120, Note_on_c, 0, 84, 100
2, 48240, Note_on_c, 0, 84, 0
2, 48240, Note_on_c, 0, 83, 100
2, 48360, Note_on_c, 0, 83, 0
2, 48360, Note_on_c, 0, 81, 100
2, 48480, Note_on_c, 0, 81, 0
2, 48480, Note_on_c, 0, 79, 100
2, 48600, Note_on_c, 0, 79, 0
2, 48600, Note_on_c, 0, 78, 100
2, 48720, Note_on_c, 0, 78, 0
2, 48720, Note_on_c, 0, 76, 100
2, 48840, Note_on_c, 0, 76, 0
2, 48840, Note_on_c, 0, 75, 100
2, 48960, Note_on_c, 0, 75, 0
2, 48960, Note_on_c, 0, 76, 100
2, 49200, Note_on_c, 0, 76, 0
2, 49200, Note_on_c, 0, 78, 100
2, 49440, Note_on_c, 0, 78, 0
2, 49440, Note_on_c, 0, 79, 100
2, 49920, Note_on_c, 0, 79, 0
2, 49920, Note_on_c, 0, 78, 100
2, 50160, Note_on_c, 0, 78, 0
2, 50160, Note_on_c, 0, 76, 100
2, 50400, Note_on_c, 0, 76, 0
2, 50400, Note_on_c, 0, 75, 100
2, 51600, Note_on_c, 0, 75, 0
2, 52560, Note_on_c, 0, 69, 100
2, 53520, Note_on_c, 0, 69, 0
2, 53520, Note_on_c, 0, 71, 100
2, 53640, Note_on_c, 0, 71, 0
2, 53640, Note_on_c, 0, 69, 100
2, 53760, Note_on_c, 0, 69, 0
2, 53760, Note_on_c, 0, 67, 100
2, 53880, Note_on_c, 0, 67, 0
2, 53880, Note_on_c, 0, 66, 100
2, 54000, Note_on_c, 0, 66, 0
2, 54000, Note_on_c, 0, 67, 100
2, 54120, Note_on_c, 0, 67, 0
2, 54120, Note_on_c, 0, 69, 100
2, 54240, Note_on_c, 0, 69, 0
2, 54240, Note_on_c, 0, 71, 100
2, 54360, Note_on_c, 0, 71, 0
2, 54360, Note_on_c, 0, 67, 100
2, 54480, Note_on_c, 0, 67, 0
2, 54480, Note_on_c, 0, 69, 100
2, 54600, Note_on_c, 0, 69, 0
2, 54600, Note_on_c, 0, 71, 100
2, 54720, Note_on_c, 0, 71, 0
2, 54720, Note_on_c, 0, 64, 100
2, 54960, Note_on_c, 0, 64, 0
2, 54960, Note_on_c, 0, 66, 100
2, 55080, Note_on_c, 0, 66, 0
2, 55080, Note_on_c, 0, 67, 100
2, 55200, Note_on_c, 0, 67, 0
2, 55200, Note_on_c, 0, 69, 100
2, 55320, Note_on_c, 0, 69, 0
2, 55320, Note_on_c, 0, 71, 100
2, 55440, Note_on_c, 0, 71, 0
2, 55440, Note_on_c, 0, 72, 100
2, 55680, Note_on_c, 0, 72, 0
2, 55680, Note_on_c, 0, 64, 100
2, 55920, Note_on_c, 0, 64, 0
2, 55920, Note_on_c, 0, 63, 100
2, 56160, Note_on_c, 0, 63, 0
2, 56160, Note_on_c, 0, 64, 100
2, 56880, Note_on_c, 0, 64, 0
2, 57600, Note_on_c, 0, 76, 100
2, 58440, Note_on_c, 0, 76, 0
2, 58440, Note_on_c, 0, 78, 100
2, 58560, Note_on_c, 0, 78, 0
2, 58560, Note_on_c, 0, 79, 100
2, 58680, Note_on_c, 0, 79, 0
2, 58680, Note_on_c, 0, 76, 100
2, 58800, Note_on_c, 0, 76, 0
2, 58800, Note_on_c, 0, 78, 100
2, 58920, Note_on_c, 0, 78, 0
2, 58920, Note_on_c, 0, 79, 100
2, 59040, Note_on_c, 0, 79, 0
2, 59040, Note_on_c, 0, 72, 100
2, 59160, Note_on_c, 0, 72, 0
2, 59160, Note_on_c, 0, 74, 100
2, 59280, Note_on_c, 0, 74, 0
2, 59280, Note_on_c, 0, 76, 100
2, 59400, Note_on_c, 0, 76, 0
2, 59400, Note_on_c, 0, 72, 100
2, 59520, Note_on_c, 0, 72, 0
2, 59520, Note_on_c, 0, 74, 100
2, 59640, Note_on_c, 0, 74, 0
2, 59640, Note_on_c, 0, 76, 100
2, 59760, Note_on_c, 0, 76, 0
2, 59760, Note_on_c, 0, 69, 100
2, 59880, Note_on_c, 0, 69, 0
2, 59880, Note_on_c, 0, 71, 100
2, 60000, Note_on_c, 0, 71, 0
2, 60000, Note_on_c, 0, 72, 100
2, 60120, Note_on_c, 0, 72, 0
2, 60120, Note_on_c, 0, 69, 100
2, 60240, Note_on_c, 0, 69, 0
2, 60240, Note_on_c, 0, 71, 100
2, 60360, Note_on_c, 0, 71, 0
2, 60360, Note_on_c, 0, 72, 100
2, 60480, Note_on_c, 0, 72, 0
2, 60480, Note_on_c, 0, 71, 100
2, 60600, Note_on_c, 0, 71, 0
2, 60600, Note_on_c, 0, 72, 100
2, 60720, Note_on_c, 0, 72, 0
2, 60720, Note_on_c, 0, 74, 100
2, 60840, Note_on_c, 0, 74, 0
2, 60840, Note_on_c, 0, 71, 100
2, 60960, Note_on_c, 0, 71, 0
2, 60960, Note_on_c, 0, 72, 100
2, 61080, Note_on_c, 0, 72, 0
2, 61080, Note_on_c, 0, 74, 100
2, 61200, Note_on_c, 0, 74, 0
2, 61200, Note_on_c, 0, 67, 100
2, 62160, Note_on_c, 0, 67, 0
2, 62160, Note_on_c, 0, 79, 100
2, 62880, Note_on_c, 0, 79, 0
2, 62880, Note_on_c, 0, 78, 100
2, 63120, Note_on_c, 0, 78, 0
2, 63120, Note_on_c, 0, 81, 100
2, 63600, Note_on_c, 0, 81, 0
2, 63600, Note_on_c, 0, 79, 100
2, 63840, Note_on_c, 0, 79, 0
2, 63840, Note_on_c, 0, 77, 100
2, 64080, Note_on_c, 0, 77, 0
2, 64080, Note_on_c, 0, 76, 100
2, 64200, Note_on_c, 0, 76, 0
2, 64200, Note_on_c, 0, 74, 100
2, 64320, Note_on_c, 0, 74, 0
2, 64320, Note_on_c, 0, 72, 100
2, 64440, Note_on_c, 0, 72, 0
2, 64440, Note_on_c, 0, 76, 100
2, 64560, Note_on_c, 0, 76, 0
2, 64560, Note_on_c, 0, 74, 100
2, 64680, Note_on_c, 0, 74, 0
2, 64680, Note_on_c, 0, 72, 100
2, 64800, Note_on_c, 0, 72, 0
2, 64800, Note_on_c, 0, 71, 100
2, 65280, Note_on_c, 0, 71, 0
2, 65280, Note_on_c, 0, 83, 100
2, 65520, Note_on_c, 0, 83, 0
2, 65520, Note_on_c, 0, 81, 100
2, 66000, Note_on_c, 0, 81, 0
2, 66000, Note_on_c, 0, 84, 100
2, 66240, Note_on_c, 0, 84, 0
2, 66240, Note_on_c, 0, 83, 100
2, 66720, Note_on_c, 0, 83, 0
2, 66720, Note_on_c, 0, 86, 100
2, 66960, Note_on_c, 0, 86, 0
2, 66960, Note_on_c, 0, 79, 100
2, 67200, Note_on_c, 0, 79, 0
2, 67200, Note_on_c, 0, 81, 100
2, 67440, Note_on_c, 0, 81, 0
2, 67440, Note_on_c, 0, 78, 100
2, 67680, Note_on_c, 0, 78, 0
2, 67680, Note_on_c, 0, 79, 100
2, 69120, Note_on_c, 0, 79, 0
2, 69840, Note_on_c, 0, 81, 100
2, 70680, Note_on_c, 0, 81, 0
2, 70680, Note_on_c, 0, 83, 100
2, 70800, Note_on_c, 0, 83, 0
2, 70800, Note_on_c, 0, 84, 100
2, 70920, Note_on_c, 0, 84, 0
2, 70920, Note_on_c, 0, 81, 100
2, 71040, Note_on_c, 0, 81, 0
2, 71040, Note_on_c, 0, 83, 100
2, 71160, Note_on_c, 0, 83, 0
2, 71160, Note_on_c, 0, 84, 100
2, 71280, Note_on_c, 0, 84, 0
2, 71280, Note_on_c, 0, 83, 100
2, 71400, Note_on_c, 0, 83, 0
2, 71400, Note_on_c, 0, 81, 100
2, 71520, Note_on_c, 0, 81, 0
2, 71520, Note_on_c, 0, 79, 100
2, 71640, Note_on_c, 0, 79, 0
2, 71640, Note_on_c, 0, 78, 100
2, 71760, Note_on_c, 0, 78, 0
2, 71760, Note_on_c, 0, 76, 100
2, 71880, Note_on_c, 0, 76, 0
2, 71880, Note_on_c, 0, 75, 100
2, 72000, Note_on_c, 0, 75, 0
2, 72000, Note_on_c, 0, 76, 100
2, 72240, Note_on_c, 0, 76, 0
2, 72240, Note_on_c, 0, 78, 100
2, 72480, Note_on_c, 0, 78, 0
2, 72480, Note_on_c, 0, 79, 100
2, 72960, Note_on_c, 0, 79, 0
2, 72960, Note_on_c, 0, 78, 100
2, 73200, Note_on_c, 0, 78, 0
2, 73200, Note_on_c, 0, 76, 100
2, 73440, Note_on_c, 0, 76, 0
2, 73440, Note_on_c, 0, 75, 100
2, 74640, Note_on_c, 0, 75, 0
2, 75600, Note_on_c, 0, 69, 100
2, 76560, Note_on_c, 0, 69, 0
2, 76560, Note_on_c, 0, 71, 100
2, 76680, Note_on_c, 0, 71, 0
2, 76680, Note_on_c, 0, 69, 100
2, 76800, Note_on_c, 0, 69, 0
2, 76800, Note_on_c, 0, 67, 100
2, 76920, Note_on_c, 0, 67, 0
2, 76920, Note_on_c, 0, 66, 100
2, 77040, Note_on_c, 0, 66, 0
2, 77040, Note_on_c, 0, 67, 100
2, 77160, Note_on_c, 0, 67, 0
2, 77160, Note_on_c, 0, 69, 100
2, 77280, Note_on_c, 0, 69, 0
2, 77280, Note_on_c, 0, 71, 100
2, 77400, Note_on_c, 0, 71, 0
2, 77400, Note_on_c, 0, 67, 100
2, 77520, Note_on_c, 0, 67, 0
2, 77520, Note_on_c, 0, 69, 100
2, 77640, Note_on_c, 0, 69, 0
2, 77640, Note_on_c, 0, 71, 100
2, 77760, Note_on_c, 0, 71, 0
2, 77760, Note_on_c, 0, 64, 100
2, 78000, Note_on_c, 0, 64, 0
2, 78000, Note_on_c, 0, 66, 100
2, 78120, Note_on_c, 0, 66, 0
2, 78120, Note_on_c, 0, 67, 100
2, 78240, Note_on_c, 0, 67, 0
2, 78240, Note_on_c, 0, 69, 100
2, 78360, Note_on_c, 0, 69, 0
2, 78360, Note_on_c, 0, 71, 100
2, 78480, Note_on_c, 0, 71, 0
2, 78480, Note_on_c, 0, 72, 100
2, 78720, Note_on_c, 0, 72, 0
2, 78720, Note_on_c, 0, 64, 100
2, 78960, Note_on_c, 0, 64, 0
2, 78960, Note_on_c, 0, 63, 100
2, 79200, Note_on_c, 0, 63, 0
2, 79200, Note_on_c, 0, 64, 100
2, 79920, Note_on_c, 0, 64, 0
2, 80640, Note_on_c, 0, 76, 100
2, 81480, Note_on_c, 0, 76, 0
2, 81480, Note_on_c, 0, 78, 100
2, 81600, Note_on_c, 0, 78, 0
2, 81600, Note_on_c, 0, 79, 100
2, 81720, Note_on_c, 0, 79, 0
2, 81720, Note_on_c, 0, 76, 100
2, 81840, Note_on_c, 0, 76, 0
2, 81840, Note_on_c, 0, 78, 100
2, 81960, Note_on_c, 0, 78, 0
2, 81960, Note_on_c, 0, 79, 100
2, 82080, Note_on_c, 0, 79, 0
2, 82080, Note_on_c, 0, 72, 100
2, 82200, Note_on_c, 0, 72, 0
2, 82200, Note_on_c, 0, 74, 100
2, 82320, Note_on_c, 0, 74, 0
2, 82320, Note_on_c, 0, 76, 100
2, 82440, Note_on_c, 0, 76, 0
2, 82440, Note_on_c, 0, 72, 100
2, 82560, Note_on_c, 0, 72, 0
2, 82560, Note_on_c, 0, 74, 100
2, 82680, Note_on_c, 0, 74, 0
2, 82680, Note_on_c, 0, 76, 100
2, 82800, Note_on_c, 0, 76, 0
2, 82800, Note_on_c, 0, 69, 100
2, 82920, Note_on_c, 0, 69, 0
2, 82920, Note_on_c, 0, 71, 100
2, 83040, Note_on_c, 0, 71, 0
2, 83040, Note_on_c, 0, 72, 100
2, 83160, Note_on_c, 0, 72, 0
2, 83160, Note_on_c, 0, 69, 100
2, 83280, Note_on_c, 0, 69, 0
2, 83280, Note_on_c, 0, 71, 100
2, 83400, Note_on_c, 0, 71, 0
2, 83400, Note_on_c, 0, 72, 100
2, 83520, Note_on_c, 0, 72, 0
2, 83520, Note_on_c, 0, 71, 100
2, 83640, Note_on_c, 0, 71, 0
2, 83640, Note_on_c, 0, 72, 100
2, 83760, Note_on_c, 0, 72, 0
2, 83760, Note_on_c, 0, 74, 100
2, 83880, Note_on_c, 0, 74, 0
2, 83880, Note_on_c, 0, 71, 100
2, 84000, Note_on_c, 0, 71, 0
2, 84000, Note_on_c, 0, 72, 100
2, 84120, Note_on_c, 0, 72, 0
2, 84120, Note_on_c, 0, 74, 100
2, 84240, Note_on_c, 0, 74, 0
2, 84240, Note_on_c, 0, 67, 100
2, 85200, Note_on_c, 0, 67, 0
2, 85200, Note_on_c, 0, 79, 100
2, 85920, Note_on_c, 0, 79, 0
2, 85920, Note_on_c, 0, 78, 100
2, 86160, Note_on_c, 0, 78, 0
2, 86160, Note_on_c, 0, 81, 100
2, 86640, Note_on_c, 0, 81, 0
2, 86640, Note_on_c, 0, 79, 100
2, 86880, Note_on_c, 0, 79, 0
2, 86880, Note_on_c, 0, 77, 100
2, 87120, Note_on_c, 0, 77, 0
2, 87120, Note_on_c, 0, 76, 100
2, 87240, Note_on_c, 0, 76, 0
2, 87240, Note_on_c, 0, 74, 100
2, 87360, Note_on_c, 0, 74, 0
2, 87360, Note_on_c, 0, 72, 100
2, 87480, Note_on_c, 0, 72, 0
2, 87480, Note_on_c, 0, 76, 100
2, 87600, Note_on_c, 0, 76, 0
2, 87600, Note_on_c, 0, 74, 100
2, 87720, Note_on_c, 0, 74, 0
2, 87720, Note_on_c, 0, 72, 100
2, 87840, Note_on_c, 0, 72, 0
2, 87840, Note_on_c, 0, 71, 100
2, 88320, Note_on_c, 0, 71, 0
2, 88320, Note_on_c, 0, 83, 100
2, 88560, Note_on_c, 0, 83, 0
2, 88560, Note_on_c, 0, 81, 100
2, 89040, Note_on_c, 0, 81, 0
2, 89040, Note_on_c, 0, 84, 100
2, 89280, Note_on_c, 0, 84, 0
2, 89280, Note_on_c, 0, 83, 100
2, 89760, Note_on_c, 0, 83, 0
2, 89760, Note_on_c, 0, 86, 100
2, 90000, Note_on_c, 0, 86, 0
2, 90000, Note_on_c, 0, 79, 100
2, 90240, Note_on_c, 0, 79, 0
2, 90240, Note_on_c, 0, 81, 100
2, 90480, Note_on_c, 0, 81, 0
2, 90480, Note_on_c, 0, 78, 100
2, 90720, Note_on_c, 0, 78, 0
2, 90720, Note_on_c, 0, 79, 100
2, 92160, Note_on_c, 0, 79, 0
2, 92160, End_track
3, 0, Start_track
3, 0, MIDI_port, 0
3, 0, Title_t, "--------------------------------------"
3, 0, Program_c, 1, 6
3, 0, Control_c, 1, 7, 100
3, 0, Control_c, 1, 10, 64
3, 2880, Note_on_c, 1, 71, 100
3, 3720, Note_on_c, 1, 71, 0
3, 3720, Note_on_c, 1, 72, 100
3, 3840, Note_on_c, 1, 72, 0
3, 3840, Note_on_c, 1, 74, 100
3, 3960, Note_on_c, 1, 74, 0
3, 3960, Note_on_c, 1, 72, 100
3, 4080, Note_on_c, 1, 72, 0
3, 4080, Note_on_c, 1, 74, 100
3, 4200, Note_on_c, 1, 74, 0
3, 4200, Note_on_c, 1, 76, 100
3, 4320, Note_on_c, 1, 76, 0
3, 4320, Note_on_c, 1, 69, 100
3, 5160, Note_on_c, 1, 69, 0
3, 5160, Note_on_c, 1, 71, 100
3, 5280, Note_on_c, 1, 71, 0
3, 5280, Note_on_c, 1, 72, 100
3, 5400, Note_on_c, 1, 72, 0
3, 5400, Note_on_c, 1, 71, 100
3, 5520, Note_on_c, 1, 71, 0
3, 5520, Note_on_c, 1, 72, 100
3, 5640, Note_on_c, 1, 72, 0
3, 5640, Note_on_c, 1, 74, 100
3, 5760, Note_on_c, 1, 74, 0
3, 5760, Note_on_c, 1, 67, 100
3, 6480, Note_on_c, 1, 67, 0
3, 6480, Note_on_c, 1, 79, 100
3, 7440, Note_on_c, 1, 79, 0
3, 7440, Note_on_c, 1, 81, 100
3, 7560, Note_on_c, 1, 81, 0
3, 7560, Note_on_c, 1, 79, 100
3, 7680, Note_on_c, 1, 79, 0
3, 7680, Note_on_c, 1, 78, 100
3, 7800, Note_on_c, 1, 78, 0
3, 7800, Note_on_c, 1, 79, 100
3, 7920, Note_on_c, 1, 79, 0
3, 7920, Note_on_c, 1, 81, 100
3, 8160, Note_on_c, 1, 81, 0
3, 8880, Note_on_c, 1, 74, 100
3, 9000, Note_on_c, 1, 74, 0
3, 9000, Note_on_c, 1, 72, 100
3, 9120, Note_on_c, 1, 72, 0
3, 9120, Note_on_c, 1, 71, 100
3, 9240, Note_on_c, 1, 71, 0
3, 9240, Note_on_c, 1, 69, 100
3, 9360, Note_on_c, 1, 69, 0
3, 9360, Note_on_c, 1, 71, 100
3, 9600, Note_on_c, 1, 71, 0
3, 9600, Note_on_c, 1, 72, 100
3, 9720, Note_on_c, 1, 72, 0
3, 9720, Note_on_c, 1, 71, 100
3, 9840, Note_on_c, 1, 71, 0
3, 9840, Note_on_c, 1, 69, 100
3, 9960, Note_on_c, 1, 69, 0
3, 9960, Note_on_c, 1, 71, 100
3, 10080, Note_on_c, 1, 71, 0
3, 10080, Note_on_c, 1, 67, 100
3, 10320, Note_on_c, 1, 67, 0
3, 10320, Note_on_c, 1, 76, 100
3, 10560, Note_on_c, 1, 76, 0
3, 10560, Note_on_c, 1, 74, 100
3, 10800, Note_on_c, 1, 74, 0
3, 10800, Note_on_c, 1, 72, 100
3, 11040, Note_on_c, 1, 72, 0
3, 11040, Note_on_c, 1, 78, 100
3, 11280, Note_on_c, 1, 78, 0
3, 11280, Note_on_c, 1, 81, 100
3, 11520, Note_on_c, 1, 81, 0
3, 11520, Note_on_c, 1, 71, 100
3, 12000, Note_on_c, 1, 71, 0
3, 12000, Note_on_c, 1, 79, 100
3, 12240, Note_on_c, 1, 79, 0
3, 12240, Note_on_c, 1, 79, 100
3, 12720, Note_on_c, 1, 79, 0
3, 12720, Note_on_c, 1, 78, 100
3, 12960, Note_on_c, 1, 78, 0
3, 13440, Note_on_c, 1, 83, 100
3, 13680, Note_on_c, 1, 83, 0
3, 13680, Note_on_c, 1, 81, 100
3, 13920, Note_on_c, 1, 81, 0
3, 14160, Note_on_c, 1, 74, 100
3, 14520, Note_on_c, 1, 74, 0
3, 14520, Note_on_c, 1, 76, 100
3, 14640, Note_on_c, 1, 76, 0
3, 14640, Note_on_c, 1, 74, 100
3, 14760, Note_on_c, 1, 74, 0
3, 14760, Note_on_c, 1, 72, 100
3, 14880, Note_on_c, 1, 72, 0
3, 14880, Note_on_c, 1, 71, 100
3, 15120, Note_on_c, 1, 71, 0
3, 15120, Note_on_c, 1, 76, 100
3, 15360, Note_on_c, 1, 76, 0
3, 15360, Note_on_c, 1, 71, 100
3, 15600, Note_on_c, 1, 71, 0
3, 15600, Note_on_c, 1, 74, 100
3, 15840, Note_on_c, 1, 74, 0
3, 15840, Note_on_c, 1, 73, 100
3, 16080, Note_on_c, 1, 73, 0
3, 16080, Note_on_c, 1, 74, 100
3, 16320, Note_on_c, 1, 74, 0
3, 16320, Note_on_c, 1, 76, 100
3, 16800, Note_on_c, 1, 76, 0
3, 16800, Note_on_c, 1, 73, 100
3, 17040, Note_on_c, 1, 73, 0
3, 17040, Note_on_c, 1, 69, 100
3, 17280, Note_on_c, 1, 69, 0
3, 17760, Note_on_c, 1, 74, 100
3, 18000, Note_on_c, 1, 74, 0
3, 18000, Note_on_c, 1, 67, 100
3, 18960, Note_on_c, 1, 67, 0
3, 18960, Note_on_c, 1, 66, 100
3, 19200, Note_on_c, 1, 66, 0
3, 19200, Note_on_c, 1, 67, 100
3, 19440, Note_on_c, 1, 67, 0
3, 19440, Note_on_c, 1, 64, 100
3, 19680, Note_on_c, 1, 64, 0
3, 19680, Note_on_c, 1, 69, 100
3, 19800, Note_on_c, 1, 69, 0
3, 19800, Note_on_c, 1, 67, 100
3, 19920, Note_on_c, 1, 67, 0
3, 19920, Note_on_c, 1, 66, 100
3, 20040, Note_on_c, 1, 66, 0
3, 20040, Note_on_c, 1, 64, 100
3, 20160, Note_on_c, 1, 64, 0
3, 20160, Note_on_c, 1, 62, 100
3, 20400, Note_on_c, 1, 62, 0
3, 20400, Note_on_c, 1, 64, 100
3, 20520, Note_on_c, 1, 64, 0
3, 20520, Note_on_c, 1, 66, 100
3, 20640, Note_on_c, 1, 66, 0
3, 20640, Note_on_c, 1, 67, 100
3, 20760, Note_on_c, 1, 67, 0
3, 20760, Note_on_c, 1, 69, 100
3, 20880, Note_on_c, 1, 69, 0
3, 20880, Note_on_c, 1, 71, 100
3, 21120, Note_on_c, 1, 71, 0
3, 21120, Note_on_c, 1, 74, 100
3, 21360, Note_on_c, 1, 74, 0
3, 21360, Note_on_c, 1, 73, 100
3, 21600, Note_on_c, 1, 73, 0
3, 21600, Note_on_c, 1, 74, 100
3, 23040, Note_on_c, 1, 74, 0
3, 25920, Note_on_c, 1, 71, 100
3, 26760, Note_on_c, 1, 71, 0
3, 26760, Note_on_c, 1, 72, 100
3, 26880, Note_on_c, 1, 72, 0
3, 26880, Note_on_c, 1, 74, 100
3, 27000, Note_on_c, 1, 74, 0
3, 27000, Note_on_c, 1, 72, 100
3, 27120, Note_on_c, 1, 72, 0
3, 27120, Note_on_c, 1, 74, 100
3, 27240, Note_on_c, 1, 74, 0
3, 27240, Note_on_c, 1, 76, 100
3, 27360, Note_on_c, 1, 76, 0
3, 27360, Note_on_c, 1, 69, 100
3, 28200, Note_on_c, 1, 69, 0
3, 28200, Note_on_c, 1, 71, 100
3, 28320, Note_on_c, 1, 71, 0
3, 28320, Note_on_c, 1, 72, 100
3, 28440, Note_on_c, 1, 72, 0
3, 28440, Note_on_c, 1, 71, 100
3, 28560, Note_on_c, 1, 71, 0
3, 28560, Note_on_c, 1, 72, 100
3, 28680, Note_on_c, 1, 72, 0
3, 28680, Note_on_c, 1, 74, 100
3, 28800, Note_on_c, 1, 74, 0
3, 28800, Note_on_c, 1, 67, 100
3, 29520, Note_on_c, 1, 67, 0
3, 29520, Note_on_c, 1, 79, 100
3, 30480, Note_on_c, 1, 79, 0
3, 30480, Note_on_c, 1, 81, 100
3, 30600, Note_on_c, 1, 81, 0
3, 30600, Note_on_c, 1, 79, 100
3, 30720, Note_on_c, 1, 79, 0
3, 30720, Note_on_c, 1, 78, 100
3, 30840, Note_on_c, 1, 78, 0
3, 30840, Note_on_c, 1, 79, 100
3, 30960, Note_on_c, 1, 79, 0
3, 30960, Note_on_c, 1, 81, 100
3, 31200, Note_on_c, 1, 81, 0
3, 31920, Note_on_c, 1, 74, 100
3, 32040, Note_on_c, 1, 74, 0
3, 32040, Note_on_c, 1, 72, 100
3, 32160, Note_on_c, 1, 72, 0
3, 32160, Note_on_c, 1, 71, 100
3, 32280, Note_on_c, 1, 71, 0
3, 32280, Note_on_c, 1, 69, 100
3, 32400, Note_on_c, 1, 69, 0
3, 32400, Note_on_c, 1, 71, 100
3, 32640, Note_on_c, 1, 71, 0
3, 32640, Note_on_c, 1, 72, 100
3, 32760, Note_on_c, 1, 72, 0
3, 32760, Note_on_c, 1, 71, 100
3, 32880, Note_on_c, 1, 71, 0
3, 32880, Note_on_c, 1, 69, 100
3, 33000, Note_on_c, 1, 69, 0
3, 33000, Note_on_c, 1, 71, 100
3, 33120, Note_on_c, 1, 71, 0
3, 33120, Note_on_c, 1, 67, 100
3, 33360, Note_on_c, 1, 67, 0
3, 33360, Note_on_c, 1, 76, 100
3, 33600, Note_on_c, 1, 76, 0
3, 33600, Note_on_c, 1, 74, 100
3, 33840, Note_on_c, 1, 74, 0
3, 33840, Note_on_c, 1, 72, 100
3, 34080, Note_on_c, 1, 72, 0
3, 34080, Note_on_c, 1, 78, 100
3, 34320, Note_on_c, 1, 78, 0
3, 34320, Note_on_c, 1, 81, 100
3, 34560, Note_on_c, 1, 81, 0
3, 34560, Note_on_c, 1, 71, 100
3, 35040, Note_on_c, 1, 71, 0
3, 35040, Note_on_c, 1, 79, 100
3, 35280, Note_on_c, 1, 79, 0
3, 35280, Note_on_c, 1, 79, 100
3, 35760, Note_on_c, 1, 79, 0
3, 35760, Note_on_c, 1, 78, 100
3, 36000, Note_on_c, 1, 78, 0
3, 36480, Note_on_c, 1, 83, 100
3, 36720, Note_on_c, 1, 83, 0
3, 36720, Note_on_c, 1, 81, 100
3, 36960, Note_on_c, 1, 81, 0
3, 37200, Note_on_c, 1, 74, 100
3, 37560, Note_on_c, 1, 74, 0
3, 37560, Note_on_c, 1, 76, 100
3, 37680, Note_on_c, 1, 76, 0
3, 37680, Note_on_c, 1, 74, 100
3, 37800, Note_on_c, 1, 74, 0
3, 37800, Note_on_c, 1, 72, 100
3, 37920, Note_on_c, 1, 72, 0
3, 37920, Note_on_c, 1, 71, 100
3, 38160, Note_on_c, 1, 71, 0
3, 38160, Note_on_c, 1, 76, 100
3, 38400, Note_on_c, 1, 76, 0
3, 38400, Note_on_c, 1, 71, 100
3, 38640, Note_on_c, 1, 71, 0
3, 38640, Note_on_c, 1, 74, 100
3, 38880, Note_on_c, 1, 74, 0
3, 38880, Note_on_c, 1, 73, 100
3, 39120, Note_on_c, 1, 73, 0
3, 39120, Note_on_c, 1, 74, 100
3, 39360, Note_on_c, 1, 74, 0
3, 39360, Note_on_c, 1, 76, 100
3, 39840, Note_on_c, 1, 76, 0
3, 39840, Note_on_c, 1, 73, 100
3, 40080, Note_on_c, 1, 73, 0
3, 40080, Note_on_c, 1, 69, 100
3, 40320, Note_on_c, 1, 69, 0
3, 40800, Note_on_c, 1, 74, 100
3, 41040, Note_on_c, 1, 74, 0
3, 41040, Note_on_c, 1, 67, 100
3, 42000, Note_on_c, 1, 67, 0
3, 42000, Note_on_c, 1, 66, 100
3, 42240, Note_on_c, 1, 66, 0
3, 42240, Note_on_c, 1, 67, 100
3, 42480, Note_on_c, 1, 67, 0
3, 42480, Note_on_c, 1, 64, 100
3, 42720, Note_on_c, 1, 64, 0
3, 42720, Note_on_c, 1, 69, 100
3, 42840, Note_on_c, 1, 69, 0
3, 42840, Note_on_c, 1, 67, 100
3, 42960, Note_on_c, 1, 67, 0
3, 42960, Note_on_c, 1, 66, 100
3, 43080, Note_on_c, 1, 66, 0
3, 43080, Note_on_c, 1, 64, 100
3, 43200, Note_on_c, 1, 64, 0
3, 43200, Note_on_c, 1, 62, 100
3, 43440, Note_on_c, 1, 62, 0
3, 43440, Note_on_c, 1, 64, 100
3, 43560, Note_on_c, 1, 64, 0
3, 43560, Note_on_c, 1, 66, 100
3, 43680, Note_on_c, 1, 66, 0
3, 43680, Note_on_c, 1, 67, 100
3, 43800, Note_on_c, 1, 67, 0
3, 43800, Note_on_c, 1, 69, 100
3, 43920, Note_on_c, 1, 69, 0
3, 43920, Note_on_c, 1, 71, 100
3, 44160, Note_on_c, 1, 71, 0
3, 44160, Note_on_c, 1, 74, 100
3, 44400, Note_on_c, 1, 74, 0
3, 44400, Note_on_c, 1, 73, 100
3, 44640, Note_on_c, 1, 73, 0
3, 44640, Note_on_c, 1, 74, 100
3, 46080, Note_on_c, 1, 74, 0
3, 49680, Note_on_c, 1, 81, 100
3, 50520, Note_on_c, 1, 81, 0
3, 50520, Note_on_c, 1, 83, 100
3, 50640, Note_on_c, 1, 83, 0
3, 50640, Note_on_c, 1, 84, 100
3, 50760, Note_on_c, 1, 84, 0
3, 50760, Note_on_c, 1, 81, 100
3, 50880, Note_on_c, 1, 81, 0
3, 50880, Note_on_c, 1, 83, 100
3, 51000, Note_on_c, 1, 83, 0
3, 51000, Note_on_c, 1, 84, 100
3, 51120, Note_on_c, 1, 84, 0
3, 51120, Note_on_c, 1, 83, 100
3, 51240, Note_on_c, 1, 83, 0
3, 51240, Note_on_c, 1, 81, 100
3, 51360, Note_on_c, 1, 81, 0
3, 51360, Note_on_c, 1, 79, 100
3, 51480, Note_on_c, 1, 79, 0
3, 51480, Note_on_c, 1, 78, 100
3, 51600, Note_on_c, 1, 78, 0
3, 51600, Note_on_c, 1, 76, 100
3, 51720, Note_on_c, 1, 76, 0
3, 51720, Note_on_c, 1, 75, 100
3, 51840, Note_on_c, 1, 75, 0
3, 51840, Note_on_c, 1, 76, 100
3, 52080, Note_on_c, 1, 76, 0
3, 52080, Note_on_c, 1, 78, 100
3, 52320, Note_on_c, 1, 78, 0
3, 52320, Note_on_c, 1, 79, 100
3, 52800, Note_on_c, 1, 79, 0
3, 52800, Note_on_c, 1, 78, 100
3, 53040, Note_on_c, 1, 78, 0
3, 53040, Note_on_c, 1, 76, 100
3, 53280, Note_on_c, 1, 76, 0
3, 53280, Note_on_c, 1, 75, 100
3, 54480, Note_on_c, 1, 75, 0
3, 55440, Note_on_c, 1, 69, 100
3, 56400, Note_on_c, 1, 69, 0
3, 56400, Note_on_c, 1, 71, 100
3, 56520, Note_on_c, 1, 71, 0
3, 56520, Note_on_c, 1, 69, 100
3, 56640, Note_on_c, 1, 69, 0
3, 56640, Note_on_c, 1, 67, 100
3, 56760, Note_on_c, 1, 67, 0
3, 56760, Note_on_c, 1, 66, 100
3, 56880, Note_on_c, 1, 66, 0
3, 56880, Note_on_c, 1, 67, 100
3, 57000, Note_on_c, 1, 67, 0
3, 57000, Note_on_c, 1, 69, 100
3, 57120, Note_on_c, 1, 69, 0
3, 57120, Note_on_c, 1, 71, 100
3, 57240, Note_on_c, 1, 71, 0
3, 57240, Note_on_c, 1, 67, 100
3, 57360, Note_on_c, 1, 67, 0
3, 57360, Note_on_c, 1, 69, 100
3, 57480, Note_on_c, 1, 69, 0
3, 57480, Note_on_c, 1, 71, 100
3, 57600, Note_on_c, 1, 71, 0
3, 57600, Note_on_c, 1, 64, 100
3, 57840, Note_on_c, 1, 64, 0
3, 57840, Note_on_c, 1, 66, 100
3, 57960, Note_on_c, 1, 66, 0
3, 57960, Note_on_c, 1, 67, 100
3, 58080, Note_on_c, 1, 67, 0
3, 58080, Note_on_c, 1, 69, 100
3, 58200, Note_on_c, 1, 69, 0
3, 58200, Note_on_c, 1, 71, 100
3, 58320, Note_on_c, 1, 71, 0
3, 58320, Note_on_c, 1, 72, 100
3, 58560, Note_on_c, 1, 72, 0
3, 58560, Note_on_c, 1, 64, 100
3, 58800, Note_on_c, 1, 64, 0
3, 58800, Note_on_c, 1, 63, 100
3, 59040, Note_on_c, 1, 63, 0
3, 59040, Note_on_c, 1, 64, 100
3, 59760, Note_on_c, 1, 64, 0
3, 60480, Note_on_c, 1, 76, 100
3, 61320, Note_on_c, 1, 76, 0
3, 61320, Note_on_c, 1, 78, 100
3, 61440, Note_on_c, 1, 78, 0
3, 61440, Note_on_c, 1, 79, 100
3, 61560, Note_on_c, 1, 79, 0
3, 61560, Note_on_c, 1, 76, 100
3, 61680, Note_on_c, 1, 76, 0
3, 61680, Note_on_c, 1, 78, 100
3, 61800, Note_on_c, 1, 78, 0
3, 61800, Note_on_c, 1, 79, 100
3, 61920, Note_on_c, 1, 79, 0
3, 61920, Note_on_c, 1, 72, 100
3, 62040, Note_on_c, 1, 72, 0
3, 62040, Note_on_c, 1, 74, 100
3, 62160, Note_on_c, 1, 74, 0
3, 62160, Note_on_c, 1, 76, 100
3, 62280, Note_on_c, 1, 76, 0
3, 62280, Note_on_c, 1, 72, 100
3, 62400, Note_on_c, 1, 72, 0
3, 62400, Note_on_c, 1, 74, 100
3, 62520, Note_on_c, 1, 74, 0
3, 62520, Note_on_c, 1, 76, 100
3, 62640, Note_on_c, 1, 76, 0
3, 62640, Note_on_c, 1, 69, 100
3, 62760, Note_on_c, 1, 69, 0
3, 62760, Note_on_c, 1, 71, 100
3, 62880, Note_on_c, 1, 71, 0
3, 62880, Note_on_c, 1, 72, 100
3, 63000, Note_on_c, 1, 72, 0
3, 63000, Note_on_c, 1, 69, 100
3, 63120, Note_on_c, 1, 69, 0
3, 63120, Note_on_c, 1, 71, 100
3, 63240, Note_on_c, 1, 71, 0
3, 63240, Note_on_c, 1, 72, 100
3, 63360, Note_on_c, 1, 72, 0
3, 63360, Note_on_c, 1, 71, 100
3, 63480, Note_on_c, 1, 71, 0
3, 63480, Note_on_c, 1, 72, 100
3, 63600, Note_on_c, 1, 72, 0
3, 63600, Note_on_c, 1, 74, 100
3, 63720, Note_on_c, 1, 74, 0
3, 63720, Note_on_c, 1, 71, 100
3, 63840, Note_on_c, 1, 71, 0
3, 63840, Note_on_c, 1, 72, 100
3, 63960, Note_on_c, 1, 72, 0
3, 63960, Note_on_c, 1, 74, 100
3, 64080, Note_on_c, 1, 74, 0
3, 64080, Note_on_c, 1, 67, 100
3, 65040, Note_on_c, 1, 67, 0
3, 65040, Note_on_c, 1, 79, 100
3, 65760, Note_on_c, 1, 79, 0
3, 65760, Note_on_c, 1, 78, 100
3, 66000, Note_on_c, 1, 78, 0
3, 66000, Note_on_c, 1, 81, 100
3, 66480, Note_on_c, 1, 81, 0
3, 66480, Note_on_c, 1, 79, 100
3, 66720, Note_on_c, 1, 79, 0
3, 66720, Note_on_c, 1, 77, 100
3, 66960, Note_on_c, 1, 77, 0
3, 66960, Note_on_c, 1, 76, 100
3, 67080, Note_on_c, 1, 76, 0
3, 67080, Note_on_c, 1, 74, 100
3, 67200, Note_on_c, 1, 74, 0
3, 67200, Note_on_c, 1, 72, 100
3, 67320, Note_on_c, 1, 72, 0
3, 67320, Note_on_c, 1, 76, 100
3, 67440, Note_on_c, 1, 76, 0
3, 67440, Note_on_c, 1, 74, 100
3, 67560, Note_on_c, 1, 74, 0
3, 67560, Note_on_c, 1, 72, 100
3, 67680, Note_on_c, 1, 72, 0
3, 67680, Note_on_c, 1, 71, 100
3, 69120, Note_on_c, 1, 71, 0
3, 72720, Note_on_c, 1, 81, 100
3, 73560, Note_on_c, 1, 81, 0
3, 73560, Note_on_c, 1, 83, 100
3, 73680, Note_on_c, 1, 83, 0
3, 73680, Note_on_c, 1, 84, 100
3, 73800, Note_on_c, 1, 84, 0
3, 73800, Note_on_c, 1, 81, 100
3, 73920, Note_on_c, 1, 81, 0
3, 73920, Note_on_c, 1, 83, 100
3, 74040, Note_on_c, 1, 83, 0
3, 74040, Note_on_c, 1, 84, 100
3, 74160, Note_on_c, 1, 84, 0
3, 74160, Note_on_c, 1, 83, 100
3, 74280, Note_on_c, 1, 83, 0
3, 74280, Note_on_c, 1, 81, 100
3, 74400, Note_on_c, 1, 81, 0
3, 74400, Note_on_c, 1, 79, 100
3, 74520, Note_on_c, 1, 79, 0
3, 74520, Note_on_c, 1, 78, 100
3, 74640, Note_on_c, 1, 78, 0
3, 74640, Note_on_c, 1, 76, 100
3, 74760, Note_on_c, 1, 76, 0
3, 74760, Note_on_c, 1, 75, 100
3, 74880, Note_on_c, 1, 75, 0
3, 74880, Note_on_c, 1, 76, 100
3, 75120, Note_on_c, 1, 76, 0
3, 75120, Note_on_c, 1, 78, 100
3, 75360, Note_on_c, 1, 78, 0
3, 75360, Note_on_c, 1, 79, 100
3, 75840, Note_on_c, 1, 79, 0
3, 75840, Note_on_c, 1, 78, 100
3, 76080, Note_on_c, 1, 78, 0
3, 76080, Note_on_c, 1, 76, 100
3, 76320, Note_on_c, 1, 76, 0
3, 76320, Note_on_c, 1, 75, 100
3, 77520, Note_on_c, 1, 75, 0
3, 78480, Note_on_c, 1, 69, 100
3, 79440, Note_on_c, 1, 69, 0
3, 79440, Note_on_c, 1, 71, 100
3, 79560, Note_on_c, 1, 71, 0
3, 79560, Note_on_c, 1, 69, 100
3, 79680, Note_on_c, 1, 69, 0
3, 79680, Note_on_c, 1, 67, 100
3, 79800, Note_on_c, 1, 67, 0
3, 79800, Note_on_c, 1, 66, 100
3, 79920, Note_on_c, 1, 66, 0
3, 79920, Note_on_c, 1, 67, 100
3, 80040, Note_on_c, 1, 67, 0
3, 80040, Note_on_c, 1, 69, 100
3, 80160, Note_on_c, 1, 69, 0
3, 80160, Note_on_c, 1, 71, 100
3, 80280, Note_on_c, 1, 71, 0
3, 80280, Note_on_c, 1, 67, 100
3, 80400, Note_on_c, 1, 67, 0
3, 80400, Note_on_c, 1, 69, 100
3, 80520, Note_on_c, 1, 69, 0
3, 80520, Note_on_c, 1, 71, 100
3, 80640, Note_on_c, 1, 71, 0
3, 80640, Note_on_c, 1, 64, 100
3, 80880, Note_on_c, 1, 64, 0
3, 80880, Note_on_c, 1, 66, 100
3, 81000, Note_on_c, 1, 66, 0
3, 81000, Note_on_c, 1, 67, 100
3, 81120, Note_on_c, 1, 67, 0
3, 81120, Note_on_c, 1, 69, 100
3, 81240, Note_on_c, 1, 69, 0
3, 81240, Note_on_c, 1, 71, 100
3, 81360, Note_on_c, 1, 71, 0
3, 81360, Note_on_c, 1, 72, 100
3, 81600, Note_on_c, 1, 72, 0
3, 81600, Note_on_c, 1, 64, 100
3, 81840, Note_on_c, 1, 64, 0
3, 81840, Note_on_c, 1, 63, 100
3, 82080, Note_on_c, 1, 63, 0
3, 82080, Note_on_c, 1, 64, 100
3, 82800, Note_on_c, 1, 64, 0
3, 83520, Note_on_c, 1, 76, 100
3, 84360, Note_on_c, 1, 76, 0
3, 84360, Note_on_c, 1, 78, 100
3, 84480, Note_on_c, 1, 78, 0
3, 84480, Note_on_c, 1, 79, 100
3, 84600, Note_on_c, 1, 79, 0
3, 84600, Note_on_c, 1, 76, 100
3, 84720, Note_on_c, 1, 76, 0
3, 84720, Note_on_c, 1, 78, 100
3, 84840, Note_on_c, 1, 78, 0
3, 84840, Note_on_c, 1, 79, 100
3, 84960, Note_on_c, 1, 79, 0
3, 84960, Note_on_c, 1, 72, 100
3, 85080, Note_on_c, 1, 72, 0
3, 85080, Note_on_c, 1, 74, 100
3, 85200, Note_on_c, 1, 74, 0
3, 85200, Note_on_c, 1, 76, 100
3, 85320, Note_on_c, 1, 76, 0
3, 85320, Note_on_c, 1, 72, 100
3, 85440, Note_on_c, 1, 72, 0
3, 85440, Note_on_c, 1, 74, 100
3, 85560, Note_on_c, 1, 74, 0
3, 85560, Note_on_c, 1, 76, 100
3, 85680, Note_on_c, 1, 76, 0
3, 85680, Note_on_c, 1, 69, 100
3, 85800, Note_on_c, 1, 69, 0
3, 85800, Note_on_c, 1, 71, 100
3, 85920, Note_on_c, 1, 71, 0
3, 85920, Note_on_c, 1, 72, 100
3, 86040, Note_on_c, 1, 72, 0
3, 86040, Note_on_c, 1, 69, 100
3, 86160, Note_on_c, 1, 69, 0
3, 86160, Note_on_c, 1, 71, 100
3, 86280, Note_on_c, 1, 71, 0
3, 86280, Note_on_c, 1, 72, 100
3, 86400, Note_on_c, 1, 72, 0
3, 86400, Note_on_c, 1, 71, 100
3, 86520, Note_on_c, 1, 71, 0
3, 86520, Note_on_c, 1, 72, 100
3, 86640, Note_on_c, 1, 72, 0
3, 86640, Note_on_c, 1, 74, 100
3, 86760, Note_on_c, 1, 74, 0
3, 86760, Note_on_c, 1, 71, 100
3, 86880, Note_on_c, 1, 71, 0
3, 86880, Note_on_c, 1, 72, 100
3, 87000, Note_on_c, 1, 72, 0
3, 87000, Note_on_c, 1, 74, 100
3, 87120, Note_on_c, 1, 74, 0
3, 87120, Note_on_c, 1, 67, 100
3, 88080, Note_on_c, 1, 67, 0
3, 88080, Note_on_c, 1, 79, 100
3, 88800, Note_on_c, 1, 79, 0
3, 88800, Note_on_c, 1, 78, 100
3, 89040, Note_on_c, 1, 78, 0
3, 89040, Note_on_c, 1, 81, 100
3, 89520, Note_on_c, 1, 81, 0
3, 89520, Note_on_c, 1, 79, 100
3, 89760, Note_on_c, 1, 79, 0
3, 89760, Note_on_c, 1, 77, 100
3, 90000, Note_on_c, 1, 77, 0
3, 90000, Note_on_c, 1, 76, 100
3, 90120, Note_on_c, 1, 76, 0
3, 90120, Note_on_c, 1, 74, 100
3, 90240, Note_on_c, 1, 74, 0
3, 90240, Note_on_c, 1, 72, 100
3, 90360, Note_on_c, 1, 72, 0
3, 90360, Note_on_c, 1, 76, 100
3, 90480, Note_on_c, 1, 76, 0
3, 90480, Note_on_c, 1, 74, 100
3, 90600, Note_on_c, 1, 74, 0
3, 90600, Note_on_c, 1, 72, 100
3, 90720, Note_on_c, 1, 72, 0
3, 90720, Note_on_c, 1, 71, 100
3, 92160, Note_on_c, 1, 71, 0
3, 92160, End_track
4, 0, Start_track
4, 0, MIDI_port, 0
4, 0, Title_t, "Johann Sebastian Bach  (1685-1750)"
4, 0, Program_c, 2, 6
4, 0, Control_c, 2, 7, 100
4, 0, Control_c, 2, 10, 54
4, 0, Note_on_c, 2, 43, 100
4, 240, Note_on_c, 2, 43, 0
4, 240, Note_on_c, 2, 47, 100
4, 480, Note_on_c, 2, 47, 0
4, 480, Note_on_c, 2, 50, 100
4, 720, Note_on_c, 2, 50, 0
4, 720, Note_on_c, 2, 55, 100
4, 960, Note_on_c, 2, 55, 0
4, 960, Note_on_c, 2, 59, 100
4, 1200, Note_on_c, 2, 59, 0
4, 1200, Note_on_c, 2, 52, 100
4, 1440, Note_on_c, 2, 52, 0
4, 1440, Note_on_c, 2, 42, 100
4, 1680, Note_on_c, 2, 42, 0
4, 1680, Note_on_c, 2, 45, 100
4, 1920, Note_on_c, 2, 45, 0
4, 1920, Note_on_c, 2, 50, 100
4, 2160, Note_on_c, 2, 50, 0
4, 2160, Note_on_c, 2, 54, 100
4, 2400, Note_on_c, 2, 54, 0
4, 2400, Note_on_c, 2, 57, 100
4, 2640, Note_on_c, 2, 57, 0
4, 2640, Note_on_c, 2, 50, 100
4, 2880, Note_on_c, 2, 50, 0
4, 2880, Note_on_c, 2, 40, 100
4, 3120, Note_on_c, 2, 40, 0
4, 3120, Note_on_c, 2, 43, 100
4, 3360, Note_on_c, 2, 43, 0
4, 3360, Note_on_c, 2, 47, 100
4, 3600, Note_on_c, 2, 47, 0
4, 3600, Note_on_c, 2, 52, 100
4, 3840, Note_on_c, 2, 52, 0
4, 3840, Note_on_c, 2, 47, 100
4, 4080, Note_on_c, 2, 47, 0
4, 4080, Note_on_c, 2, 49, 100
4, 4320, Note_on_c, 2, 49, 0
4, 4320, Note_on_c, 2, 38, 100
4, 4560, Note_on_c, 2, 38, 0
4, 4560, Note_on_c, 2, 42, 100
4, 4800, Note_on_c, 2, 42, 0
4, 4800, Note_on_c, 2, 45, 100
4, 5040, Note_on_c, 2, 45, 0
4, 5040, Note_on_c, 2, 50, 100
4, 5280, Note_on_c, 2, 50, 0
4, 5280, Note_on_c, 2, 54, 100
4, 5520, Note_on_c, 2, 54, 0
4, 5520, Note_on_c, 2, 45, 100
4, 5760, Note_on_c, 2, 45, 0
4, 5760, Note_on_c, 2, 47, 100
4, 5880, Note_on_c, 2, 47, 0
4, 5880, Note_on_c, 2, 45, 100
4, 6000, Note_on_c, 2, 45, 0
4, 6000, Note_on_c, 2, 47, 100
4, 6120, Note_on_c, 2, 47, 0
4, 6120, Note_on_c, 2, 48, 100
4, 6240, Note_on_c, 2, 48, 0
4, 6240, Note_on_c, 2, 50, 100
4, 6600, Note_on_c, 2, 50, 0
4, 6600, Note_on_c, 2, 43, 100
4, 6720, Note_on_c, 2, 43, 0
4, 6720, Note_on_c, 2, 45, 100
4, 6840, Note_on_c, 2, 45, 0
4, 6840, Note_on_c, 2, 47, 100
4, 6960, Note_on_c, 2, 47, 0
4, 6960, Note_on_c, 2, 48, 100
4, 7080, Note_on_c, 2, 48, 0
4, 7080, Note_on_c, 2, 50, 100
4, 7200, Note_on_c, 2, 50, 0
4, 7200, Note_on_c, 2, 52, 100
4, 7320, Note_on_c, 2, 52, 0
4, 7320, Note_on_c, 2, 50, 100
4, 7440, Note_on_c, 2, 50, 0
4, 7440, Note_on_c, 2, 48, 100
4, 7560, Note_on_c, 2, 48, 0
4, 7560, Note_on_c, 2, 47, 100
4, 7680, Note_on_c, 2, 47, 0
4, 7680, Note_on_c, 2, 48, 100
4, 7800, Note_on_c, 2, 48, 0
4, 7800, Note_on_c, 2, 52, 100
4, 7920, Note_on_c, 2, 52, 0
4, 7920, Note_on_c, 2, 42, 100
4, 8040, Note_on_c, 2, 42, 0
4, 8040, Note_on_c, 2, 45, 100
4, 8160, Note_on_c, 2, 45, 0
4, 8160, Note_on_c, 2, 43, 100
4, 8280, Note_on_c, 2, 43, 0
4, 8280, Note_on_c, 2, 42, 100
4, 8400, Note_on_c, 2, 42, 0
4, 8400, Note_on_c, 2, 40, 100
4, 8520, Note_on_c, 2, 40, 0
4, 8520, Note_on_c, 2, 38, 100
4, 8640, Note_on_c, 2, 38, 0
4, 8640, Note_on_c, 2, 43, 100
4, 8760, Note_on_c, 2, 43, 0
4, 8760, Note_on_c, 2, 42, 100
4, 8880, Note_on_c, 2, 42, 0
4, 8880, Note_on_c, 2, 43, 100
4, 9000, Note_on_c, 2, 43, 0
4, 9000, Note_on_c, 2, 45, 100
4, 9120, Note_on_c, 2, 45, 0
4, 9120, Note_on_c, 2, 47, 100
4, 9240, Note_on_c, 2, 47, 0
4, 9240, Note_on_c, 2, 48, 100
4, 9360, Note_on_c, 2, 48, 0
4, 9360, Note_on_c, 2, 50, 100
4, 9480, Note_on_c, 2, 50, 0
4, 9480, Note_on_c, 2, 52, 100
4, 9600, Note_on_c, 2, 52, 0
4, 9600, Note_on_c, 2, 45, 100
4, 9720, Note_on_c, 2, 45, 0
4, 9720, Note_on_c, 2, 47, 100
4, 9840, Note_on_c, 2, 47, 0
4, 9840, Note_on_c, 2, 48, 100
4, 9960, Note_on_c, 2, 48, 0
4, 9960, Note_on_c, 2, 45, 100
4, 10080, Note_on_c, 2, 45, 0
4, 10080, Note_on_c, 2, 47, 100
4, 10200, Note_on_c, 2, 47, 0
4, 10200, Note_on_c, 2, 45, 100
4, 10320, Note_on_c, 2, 45, 0
4, 10320, Note_on_c, 2, 43, 100
4, 10440, Note_on_c, 2, 43, 0
4, 10440, Note_on_c, 2, 42, 100
4, 10560, Note_on_c, 2, 42, 0
4, 10560, Note_on_c, 2, 43, 100
4, 10920, Note_on_c, 2, 43, 0
4, 10920, Note_on_c, 2, 42, 100
4, 11040, Note_on_c, 2, 42, 0
4, 11040, Note_on_c, 2, 40, 100
4, 11160, Note_on_c, 2, 40, 0
4, 11160, Note_on_c, 2, 38, 100
4, 11280, Note_on_c, 2, 38, 0
4, 11280, Note_on_c, 2, 40, 100
4, 11400, Note_on_c, 2, 40, 0
4, 11400, Note_on_c, 2, 42, 100
4, 11520, Note_on_c, 2, 42, 0
4, 11520, Note_on_c, 2, 43, 100
4, 11640, Note_on_c, 2, 43, 0
4, 11640, Note_on_c, 2, 42, 100
4, 11760, Note_on_c, 2, 42, 0
4, 11760, Note_on_c, 2, 43, 100
4, 11880, Note_on_c, 2, 43, 0
4, 11880, Note_on_c, 2, 45, 100
4, 12000, Note_on_c, 2, 45, 0
4, 12000, Note_on_c, 2, 43, 100
4, 12120, Note_on_c, 2, 43, 0
4, 12120, Note_on_c, 2, 42, 100
4, 12240, Note_on_c, 2, 42, 0
4, 12240, Note_on_c, 2, 40, 100
4, 12360, Note_on_c, 2, 40, 0
4, 12360, Note_on_c, 2, 42, 100
4, 12480, Note_on_c, 2, 42, 0
4, 12480, Note_on_c, 2, 43, 100
4, 12600, Note_on_c, 2, 43, 0
4, 12600, Note_on_c, 2, 40, 100
4, 12720, Note_on_c, 2, 40, 0
4, 12720, Note_on_c, 2, 42, 100
4, 12840, Note_on_c, 2, 42, 0
4, 12840, Note_on_c, 2, 43, 100
4, 12960, Note_on_c, 2, 43, 0
4, 12960, Note_on_c, 2, 45, 100
4, 13080, Note_on_c, 2, 45, 0
4, 13080, Note_on_c, 2, 43, 100
4, 13200, Note_on_c, 2, 43, 0
4, 13200, Note_on_c, 2, 45, 100
4, 13320, Note_on_c, 2, 45, 0
4, 13320, Note_on_c, 2, 47, 100
4, 13440, Note_on_c, 2, 47, 0
4, 13440, Note_on_c, 2, 45, 100
4, 13560, Note_on_c, 2, 45, 0
4, 13560, Note_on_c, 2, 43, 100
4, 13680, Note_on_c, 2, 43, 0
4, 13680, Note_on_c, 2, 42, 100
4, 13800, Note_on_c, 2, 42, 0
4, 13800, Note_on_c, 2, 54, 100
4, 13920, Note_on_c, 2, 54, 0
4, 13920, Note_on_c, 2, 55, 100
4, 14040, Note_on_c, 2, 55, 0
4, 14040, Note_on_c, 2, 54, 100
4, 14160, Note_on_c, 2, 54, 0
4, 14160, Note_on_c, 2, 52, 100
4, 14280, Note_on_c, 2, 52, 0
4, 14280, Note_on_c, 2, 54, 100
4, 14400, Note_on_c, 2, 54, 0
4, 14400, Note_on_c, 2, 47, 100
4, 14520, Note_on_c, 2, 47, 0
4, 14520, Note_on_c, 2, 45, 100
4, 14640, Note_on_c, 2, 45, 0
4, 14640, Note_on_c, 2, 47, 100
4, 14760, Note_on_c, 2, 47, 0
4, 14760, Note_on_c, 2, 48, 100
4, 14880, Note_on_c, 2, 48, 0
4, 14880, Note_on_c, 2, 50, 100
4, 15000, Note_on_c, 2, 50, 0
4, 15000, Note_on_c, 2, 47, 100
4, 15120, Note_on_c, 2, 47, 0
4, 15120, Note_on_c, 2, 49, 100
4, 15240, Note_on_c, 2, 49, 0
4, 15240, Note_on_c, 2, 50, 100
4, 15360, Note_on_c, 2, 50, 0
4, 15360, Note_on_c, 2, 52, 100
4, 15480, Note_on_c, 2, 52, 0
4, 15480, Note_on_c, 2, 50, 100
4, 15600, Note_on_c, 2, 50, 0
4, 15600, Note_on_c, 2, 49, 100
4, 15720, Note_on_c, 2, 49, 0
4, 15720, Note_on_c, 2, 47, 100
4, 15840, Note_on_c, 2, 47, 0
4, 15840, Note_on_c, 2, 45, 100
4, 15960, Note_on_c, 2, 45, 0
4, 15960, Note_on_c, 2, 52, 100
4, 16080, Note_on_c, 2, 52, 0
4, 16080, Note_on_c, 2, 50, 100
4, 16200, Note_on_c, 2, 50, 0
4, 16200, Note_on_c, 2, 49, 100
4, 16320, Note_on_c, 2, 49, 0
4, 16320, Note_on_c, 2, 50, 100
4, 16440, Note_on_c, 2, 50, 0
4, 16440, Note_on_c, 2, 47, 100
4, 16560, Note_on_c, 2, 47, 0
4, 16560, Note_on_c, 2, 49, 100
4, 16680, Note_on_c, 2, 49, 0
4, 16680, Note_on_c, 2, 45, 100
4, 16800, Note_on_c, 2, 45, 0
4, 16800, Note_on_c, 2, 47, 100
4, 16920, Note_on_c, 2, 47, 0
4, 16920, Note_on_c, 2, 49, 100
4, 17040, Note_on_c, 2, 49, 0
4, 17040, Note_on_c, 2, 50, 100
4, 17160, Note_on_c, 2, 50, 0
4, 17160, Note_on_c, 2, 52, 100
4, 17280, Note_on_c, 2, 52, 0
4, 17280, Note_on_c, 2, 54, 100
4, 17400, Note_on_c, 2, 54, 0
4, 17400, Note_on_c, 2, 47, 100
4, 17520, Note_on_c, 2, 47, 0
4, 17520, Note_on_c, 2, 49, 100
4, 17640, Note_on_c, 2, 49, 0
4, 17640, Note_on_c, 2, 50, 100
4, 17760, Note_on_c, 2, 50, 0
4, 17760, Note_on_c, 2, 52, 100
4, 17880, Note_on_c, 2, 52, 0
4, 17880, Note_on_c, 2, 54, 100
4, 18000, Note_on_c, 2, 54, 0
4, 18000, Note_on_c, 2, 55, 100
4, 18120, Note_on_c, 2, 55, 0
4, 18120, Note_on_c, 2, 54, 100
4, 18240, Note_on_c, 2, 54, 0
4, 18240, Note_on_c, 2, 52, 100
4, 18360, Note_on_c, 2, 52, 0
4, 18360, Note_on_c, 2, 50, 100
4, 18480, Note_on_c, 2, 50, 0
4, 18480, Note_on_c, 2, 52, 100
4, 18600, Note_on_c, 2, 52, 0
4, 18600, Note_on_c, 2, 46, 100
4, 18720, Note_on_c, 2, 46, 0
4, 18720, Note_on_c, 2, 47, 100
4, 18840, Note_on_c, 2, 47, 0
4, 18840, Note_on_c, 2, 49, 100
4, 18960, Note_on_c, 2, 49, 0
4, 18960, Note_on_c, 2, 50, 100
4, 19080, Note_on_c, 2, 50, 0
4, 19080, Note_on_c, 2, 49, 100
4, 19200, Note_on_c, 2, 49, 0
4, 19200, Note_on_c, 2, 47, 100
4, 19320, Note_on_c, 2, 47, 0
4, 19320, Note_on_c, 2, 45, 100
4, 19440, Note_on_c, 2, 45, 0
4, 19440, Note_on_c, 2, 43, 100
4, 19560, Note_on_c, 2, 43, 0
4, 19560, Note_on_c, 2, 42, 100
4, 19680, Note_on_c, 2, 42, 0
4, 19680, Note_on_c, 2, 43, 100
4, 19800, Note_on_c, 2, 43, 0
4, 19800, Note_on_c, 2, 47, 100
4, 19920, Note_on_c, 2, 47, 0
4, 19920, Note_on_c, 2, 45, 100
4, 20040, Note_on_c, 2, 45, 0
4, 20040, Note_on_c, 2, 43, 100
4, 20160, Note_on_c, 2, 43, 0
4, 20160, Note_on_c, 2, 42, 100
4, 20280, Note_on_c, 2, 42, 0
4, 20280, Note_on_c, 2, 45, 100
4, 20400, Note_on_c, 2, 45, 0
4, 20400, Note_on_c, 2, 43, 100
4, 20520, Note_on_c, 2, 43, 0
4, 20520, Note_on_c, 2, 42, 100
4, 20640, Note_on_c, 2, 42, 0
4, 20640, Note_on_c, 2, 40, 100
4, 20760, Note_on_c, 2, 40, 0
4, 20760, Note_on_c, 2, 38, 100
4, 20880, Note_on_c, 2, 38, 0
4, 20880, Note_on_c, 2, 43, 100
4, 21120, Note_on_c, 2, 43, 0
4, 21120, Note_on_c, 2, 40, 100
4, 21360, Note_on_c, 2, 40, 0
4, 21360, Note_on_c, 2, 45, 100
4, 21600, Note_on_c, 2, 45, 0
4, 21600, Note_on_c, 2, 38, 100
4, 21720, Note_on_c, 2, 38, 0
4, 21720, Note_on_c, 2, 42, 100
4, 21840, Note_on_c, 2, 42, 0
4, 21840, Note_on_c, 2, 45, 100
4, 21960, Note_on_c, 2, 45, 0
4, 21960, Note_on_c, 2, 50, 100
4, 22080, Note_on_c, 2, 50, 0
4, 22080, Note_on_c, 2, 45, 100
4, 22200, Note_on_c, 2, 45, 0
4, 22200, Note_on_c, 2, 42, 100
4, 22320, Note_on_c, 2, 42, 0
4, 22320, Note_on_c, 2, 38, 100
4, 23040, Note_on_c, 2, 38, 0
4, 23040, Note_on_c, 2, 43, 100
4, 23280, Note_on_c, 2, 43, 0
4, 23280, Note_on_c, 2, 47, 100
4, 23520, Note_on_c, 2, 47, 0
4, 23520, Note_on_c, 2, 50, 100
4, 23760, Note_on_c, 2, 50, 0
4, 23760, Note_on_c, 2, 55, 100
4, 24000, Note_on_c, 2, 55, 0
4, 24000, Note_on_c, 2, 59, 100
4, 24240, Note_on_c, 2, 59, 0
4, 24240, Note_on_c, 2, 52, 100
4, 24480, Note_on_c, 2, 52, 0
4, 24480, Note_on_c, 2, 42, 100
4, 24720, Note_on_c, 2, 42, 0
4, 24720, Note_on_c, 2, 45, 100
4, 24960, Note_on_c, 2, 45, 0
4, 24960, Note_on_c, 2, 50, 100
4, 25200, Note_on_c, 2, 50, 0
4, 25200, Note_on_c, 2, 54, 100
4, 25440, Note_on_c, 2, 54, 0
4, 25440, Note_on_c, 2, 57, 100
4, 25680, Note_on_c, 2, 57, 0
4, 25680, Note_on_c, 2, 50, 100
4, 25920, Note_on_c, 2, 50, 0
4, 25920, Note_on_c, 2, 40, 100
4, 26160, Note_on_c, 2, 40, 0
4, 26160, Note_on_c, 2, 43, 100
4, 26400, Note_on_c, 2, 43, 0
4, 26400, Note_on_c, 2, 47, 100
4, 26640, Note_on_c, 2, 47, 0
4, 26640, Note_on_c, 2, 52, 100
4, 26880, Note_on_c, 2, 52, 0
4, 26880, Note_on_c, 2, 47, 100
4, 27120, Note_on_c, 2, 47, 0
4, 27120, Note_on_c, 2, 49, 100
4, 27360, Note_on_c, 2, 49, 0
4, 27360, Note_on_c, 2, 38, 100
4, 27600, Note_on_c, 2, 38, 0
4, 27600, Note_on_c, 2, 42, 100
4, 27840, Note_on_c, 2, 42, 0
4, 27840, Note_on_c, 2, 45, 100
4, 28080, Note_on_c, 2, 45, 0
4, 28080, Note_on_c, 2, 50, 100
4, 28320, Note_on_c, 2, 50, 0
4, 28320, Note_on_c, 2, 54, 100
4, 28560, Note_on_c, 2, 54, 0
4, 28560, Note_on_c, 2, 45, 100
4, 28800, Note_on_c, 2, 45, 0
4, 28800, Note_on_c, 2, 47, 100
4, 28920, Note_on_c, 2, 47, 0
4, 28920, Note_on_c, 2, 45, 100
4, 29040, Note_on_c, 2, 45, 0
4, 29040, Note_on_c, 2, 47, 100
4, 29160, Note_on_c, 2, 47, 0
4, 29160, Note_on_c, 2, 48, 100
4, 29280, Note_on_c, 2, 48, 0
4, 29280, Note_on_c, 2, 50, 100
4, 29640, Note_on_c, 2, 50, 0
4, 29640, Note_on_c, 2, 43, 100
4, 29760, Note_on_c, 2, 43, 0
4, 29760, Note_on_c, 2, 45, 100
4, 29880, Note_on_c, 2, 45, 0
4, 29880, Note_on_c, 2, 47, 100
4, 30000, Note_on_c, 2, 47, 0
4, 30000, Note_on_c, 2, 48, 100
4, 30120, Note_on_c, 2, 48, 0
4, 30120, Note_on_c, 2, 50, 100
4, 30240, Note_on_c, 2, 50, 0
4, 30240, Note_on_c, 2, 52, 100
4, 30360, Note_on_c, 2, 52, 0
4, 30360, Note_on_c, 2, 50, 100
4, 30480, Note_on_c, 2, 50, 0
4, 30480, Note_on_c, 2, 48, 100
4, 30600, Note_on_c, 2, 48, 0
4, 30600, Note_on_c, 2, 47, 100
4, 30720, Note_on_c, 2, 47, 0
4, 30720, Note_on_c, 2, 48, 100
4, 30840, Note_on_c, 2, 48, 0
4, 30840, Note_on_c, 2, 52, 100
4, 30960, Note_on_c, 2, 52, 0
4, 30960, Note_on_c, 2, 42, 100
4, 31080, Note_on_c, 2, 42, 0
4, 31080, Note_on_c, 2, 45, 100
4, 31200, Note_on_c, 2, 45, 0
4, 31200, Note_on_c, 2, 43, 100
4, 31320, Note_on_c, 2, 43, 0
4, 31320, Note_on_c, 2, 42, 100
4, 31440, Note_on_c, 2, 42, 0
4, 31440, Note_on_c, 2, 40, 100
4, 31560, Note_on_c, 2, 40, 0
4, 31560, Note_on_c, 2, 38, 100
4, 31680, Note_on_c, 2, 38, 0
4, 31680, Note_on_c, 2, 43, 100
4, 31800, Note_on_c, 2, 43, 0
4, 31800, Note_on_c, 2, 42, 100
4, 31920, Note_on_c, 2, 42, 0
4, 31920, Note_on_c, 2, 43, 100
4, 32040, Note_on_c, 2, 43, 0
4, 32040, Note_on_c, 2, 45, 100
4, 32160, Note_on_c, 2, 45, 0
4, 32160, Note_on_c, 2, 47, 100
4, 32280, Note_on_c, 2, 47, 0
4, 32280, Note_on_c, 2, 48, 100
4, 32400, Note_on_c, 2, 48, 0
4, 32400, Note_on_c, 2, 50, 100
4, 32520, Note_on_c, 2, 50, 0
4, 32520, Note_on_c, 2, 52, 100
4, 32640, Note_on_c, 2, 52, 0
4, 32640, Note_on_c, 2, 45, 100
4, 32760, Note_on_c, 2, 45, 0
4, 32760, Note_on_c, 2, 47, 100
4, 32880, Note_on_c, 2, 47, 0
4, 32880, Note_on_c, 2, 48, 100
4, 33000, Note_on_c, 2, 48, 0
4, 33000, Note_on_c, 2, 45, 100
4, 33120, Note_on_c, 2, 45, 0
4, 33120, Note_on_c, 2, 47, 100
4, 33240, Note_on_c, 2, 47, 0
4, 33240, Note_on_c, 2, 45, 100
4, 33360, Note_on_c, 2, 45, 0
4, 33360, Note_on_c, 2, 43, 100
4, 33480, Note_on_c, 2, 43, 0
4, 33480, Note_on_c, 2, 42, 100
4, 33600, Note_on_c, 2, 42, 0
4, 33600, Note_on_c, 2, 43, 100
4, 33960, Note_on_c, 2, 43, 0
4, 33960, Note_on_c, 2, 42, 100
4, 34080, Note_on_c, 2, 42, 0
4, 34080, Note_on_c, 2, 40, 100
4, 34200, Note_on_c, 2, 40, 0
4, 34200, Note_on_c, 2, 38, 100
4, 34320, Note_on_c, 2, 38, 0
4, 34320, Note_on_c, 2, 40, 100
4, 34440, Note_on_c, 2, 40, 0
4, 34440, Note_on_c, 2, 42, 100
4, 34560, Note_on_c, 2, 42, 0
4, 34560, Note_on_c, 2, 43, 100
4, 34680, Note_on_c, 2, 43, 0
4, 34680, Note_on_c, 2, 42, 100
4, 34800, Note_on_c, 2, 42, 0
4, 34800, Note_on_c, 2, 43, 100
4, 34920, Note_on_c, 2, 43, 0
4, 34920, Note_on_c, 2, 45, 100
4, 35040, Note_on_c, 2, 45, 0
4, 35040, Note_on_c, 2, 43, 100
4, 35160, Note_on_c, 2, 43, 0
4, 35160, Note_on_c, 2, 42, 100
4, 35280, Note_on_c, 2, 42, 0
4, 35280, Note_on_c, 2, 40, 100
4, 35400, Note_on_c, 2, 40, 0
4, 35400, Note_on_c, 2, 42, 100
4, 35520, Note_on_c, 2, 42, 0
4, 35520, Note_on_c, 2, 43, 100
4, 35640, Note_on_c, 2, 43, 0
4, 35640, Note_on_c, 2, 40, 100
4, 35760, Note_on_c, 2, 40, 0
4, 35760, Note_on_c, 2, 42, 100
4, 35880, Note_on_c, 2, 42, 0
4, 35880, Note_on_c, 2, 43, 100
4, 36000, Note_on_c, 2, 43, 0
4, 36000, Note_on_c, 2, 45, 100
4, 36120, Note_on_c, 2, 45, 0
4, 36120, Note_on_c, 2, 43, 100
4, 36240, Note_on_c, 2, 43, 0
4, 36240, Note_on_c, 2, 45, 100
4, 36360, Note_on_c, 2, 45, 0
4, 36360, Note_on_c, 2, 47, 100
4, 36480, Note_on_c, 2, 47, 0
4, 36480, Note_on_c, 2, 45, 100
4, 36600, Note_on_c, 2, 45, 0
4, 36600, Note_on_c, 2, 43, 100
4, 36720, Note_on_c, 2, 43, 0
4, 36720, Note_on_c, 2, 42, 100
4, 36840, Note_on_c, 2, 42, 0
4, 36840, Note_on_c, 2, 54, 100
4, 36960, Note_on_c, 2, 54, 0
4, 36960, Note_on_c, 2, 55, 100
4, 37080, Note_on_c, 2, 55, 0
4, 37080, Note_on_c, 2, 54, 100
4, 37200, Note_on_c, 2, 54, 0
4, 37200, Note_on_c, 2, 52, 100
4, 37320, Note_on_c, 2, 52, 0
4, 37320, Note_on_c, 2, 54, 100
4, 37440, Note_on_c, 2, 54, 0
4, 37440, Note_on_c, 2, 47, 100
4, 37560, Note_on_c, 2, 47, 0
4, 37560, Note_on_c, 2, 45, 100
4, 37680, Note_on_c, 2, 45, 0
4, 37680, Note_on_c, 2, 47, 100
4, 37800, Note_on_c, 2, 47, 0
4, 37800, Note_on_c, 2, 48, 100
4, 37920, Note_on_c, 2, 48, 0
4, 37920, Note_on_c, 2, 50, 100
4, 38040, Note_on_c, 2, 50, 0
4, 38040, Note_on_c, 2, 47, 100
4, 38160, Note_on_c, 2, 47, 0
4, 38160, Note_on_c, 2, 49, 100
4, 38280, Note_on_c, 2, 49, 0
4, 38280, Note_on_c, 2, 50, 100
4, 38400, Note_on_c, 2, 50, 0
4, 38400, Note_on_c, 2, 52, 100
4, 38520, Note_on_c, 2, 52, 0
4, 38520, Note_on_c, 2, 50, 100
4, 38640, Note_on_c, 2, 50, 0
4, 38640, Note_on_c, 2, 49, 100
4, 38760, Note_on_c, 2, 49, 0
4, 38760, Note_on_c, 2, 47, 100
4, 38880, Note_on_c, 2, 47, 0
4, 38880, Note_on_c, 2, 45, 100
4, 39000, Note_on_c, 2, 45, 0
4, 39000, Note_on_c, 2, 52, 100
4, 39120, Note_on_c, 2, 52, 0
4, 39120, Note_on_c, 2, 50, 100
4, 39240, Note_on_c, 2, 50, 0
4, 39240, Note_on_c, 2, 49, 100
4, 39360, Note_on_c, 2, 49, 0
4, 39360, Note_on_c, 2, 50, 100
4, 39480, Note_on_c, 2, 50, 0
4, 39480, Note_on_c, 2, 47, 100
4, 39600, Note_on_c, 2, 47, 0
4, 39600, Note_on_c, 2, 49, 100
4, 39720, Note_on_c, 2, 49, 0
4, 39720, Note_on_c, 2, 45, 100
4, 39840, Note_on_c, 2, 45, 0
4, 39840, Note_on_c, 2, 47, 100
4, 39960, Note_on_c, 2, 47, 0
4, 39960, Note_on_c, 2, 49, 100
4, 40080, Note_on_c, 2, 49, 0
4, 40080, Note_on_c, 2, 50, 100
4, 40200, Note_on_c, 2, 50, 0
4, 40200, Note_on_c, 2, 52, 100
4, 40320, Note_on_c, 2, 52, 0
4, 40320, Note_on_c, 2, 54, 100
4, 40440, Note_on_c, 2, 54, 0
4, 40440, Note_on_c, 2, 47, 100
4, 40560, Note_on_c, 2, 47, 0
4, 40560, Note_on_c, 2, 49, 100
4, 40680, Note_on_c, 2, 49, 0
4, 40680, Note_on_c, 2, 50, 100
4, 40800, Note_on_c, 2, 50, 0
4, 40800, Note_on_c, 2, 52, 100
4, 40920, Note_on_c, 2, 52, 0
4, 40920, Note_on_c, 2, 54, 100
4, 41040, Note_on_c, 2, 54, 0
4, 41040, Note_on_c, 2, 55, 100
4, 41160, Note_on_c, 2, 55, 0
4, 41160, Note_on_c, 2, 54, 100
4, 41280, Note_on_c, 2, 54, 0
4, 41280, Note_on_c, 2, 52, 100
4, 41400, Note_on_c, 2, 52, 0
4, 41400, Note_on_c, 2, 50, 100
4, 41520, Note_on_c, 2, 50, 0
4, 41520, Note_on_c, 2, 52, 100
4, 41640, Note_on_c, 2, 52, 0
4, 41640, Note_on_c, 2, 46, 100
4, 41760, Note_on_c, 2, 46, 0
4, 41760, Note_on_c, 2, 47, 100
4, 41880, Note_on_c, 2, 47, 0
4, 41880, Note_on_c, 2, 49, 100
4, 42000, Note_on_c, 2, 49, 0
4, 42000, Note_on_c, 2, 50, 100
4, 42120, Note_on_c, 2, 50, 0
4, 42120, Note_on_c, 2, 49, 100
4, 42240, Note_on_c, 2, 49, 0
4, 42240, Note_on_c, 2, 47, 100
4, 42360, Note_on_c, 2, 47, 0
4, 42360, Note_on_c, 2, 45, 100
4, 42480, Note_on_c, 2, 45, 0
4, 42480, Note_on_c, 2, 43, 100
4, 42600, Note_on_c, 2, 43, 0
4, 42600, Note_on_c, 2, 42, 100
4, 42720, Note_on_c, 2, 42, 0
4, 42720, Note_on_c, 2, 43, 100
4, 42840, Note_on_c, 2, 43, 0
4, 42840, Note_on_c, 2, 47, 100
4, 42960, Note_on_c, 2, 47, 0
4, 42960, Note_on_c, 2, 45, 100
4, 43080, Note_on_c, 2, 45, 0
4, 43080, Note_on_c, 2, 43, 100
4, 43200, Note_on_c, 2, 43, 0
4, 43200, Note_on_c, 2, 42, 100
4, 43320, Note_on_c, 2, 42, 0
4, 43320, Note_on_c, 2, 45, 100
4, 43440, Note_on_c, 2, 45, 0
4, 43440, Note_on_c, 2, 43, 100
4, 43560, Note_on_c, 2, 43, 0
4, 43560, Note_on_c, 2, 42, 100
4, 43680, Note_on_c, 2, 42, 0
4, 43680, Note_on_c, 2, 40, 100
4, 43800, Note_on_c, 2, 40, 0
4, 43800, Note_on_c, 2, 38, 100
4, 43920, Note_on_c, 2, 38, 0
4, 43920, Note_on_c, 2, 43, 100
4, 44160, Note_on_c, 2, 43, 0
4, 44160, Note_on_c, 2, 40, 100
4, 44400, Note_on_c, 2, 40, 0
4, 44400, Note_on_c, 2, 45, 100
4, 44640, Note_on_c, 2, 45, 0
4, 44640, Note_on_c, 2, 38, 100
4, 44760, Note_on_c, 2, 38, 0
4, 44760, Note_on_c, 2, 42, 100
4, 44880, Note_on_c, 2, 42, 0
4, 44880, Note_on_c, 2, 45, 100
4, 45000, Note_on_c, 2, 45, 0
4, 45000, Note_on_c, 2, 50, 100
4, 45120, Note_on_c, 2, 50, 0
4, 45120, Note_on_c, 2, 45, 100
4, 45240, Note_on_c, 2, 45, 0
4, 45240, Note_on_c, 2, 42, 100
4, 45360, Note_on_c, 2, 42, 0
4, 45360, Note_on_c, 2, 38, 100
4, 46080, Note_on_c, 2, 38, 0
4, 46080, Note_on_c, 2, 50, 100
4, 46320, Note_on_c, 2, 50, 0
4, 46320, Note_on_c, 2, 54, 100
4, 46560, Note_on_c, 2, 54, 0
4, 46560, Note_on_c, 2, 57, 100
4, 46800, Note_on_c, 2, 57, 0
4, 46800, Note_on_c, 2, 62, 100
4, 47040, Note_on_c, 2, 62, 0
4, 47040, Note_on_c, 2, 60, 100
4, 47160, Note_on_c, 2, 60, 0
4, 47160, Note_on_c, 2, 59, 100
4, 47280, Note_on_c, 2, 59, 0
4, 47280, Note_on_c, 2, 57, 100
4, 47400, Note_on_c, 2, 57, 0
4, 47400, Note_on_c, 2, 55, 100
4, 47520, Note_on_c, 2, 55, 0
4, 47520, Note_on_c, 2, 54, 100
4, 47760, Note_on_c, 2, 54, 0
4, 47760, Note_on_c, 2, 57, 100
4, 48000, Note_on_c, 2, 57, 0
4, 48000, Note_on_c, 2, 50, 100
4, 48240, Note_on_c, 2, 50, 0
4, 48240, Note_on_c, 2, 55, 100
4, 48480, Note_on_c, 2, 55, 0
4, 48480, Note_on_c, 2, 57, 100
4, 48720, Note_on_c, 2, 57, 0
4, 48720, Note_on_c, 2, 59, 100
4, 48960, Note_on_c, 2, 59, 0
4, 48960, Note_on_c, 2, 60, 100
4, 49080, Note_on_c, 2, 60, 0
4, 49080, Note_on_c, 2, 62, 100
4, 49200, Note_on_c, 2, 62, 0
4, 49200, Note_on_c, 2, 60, 100
4, 49320, Note_on_c, 2, 60, 0
4, 49320, Note_on_c, 2, 59, 100
4, 49440, Note_on_c, 2, 59, 0
4, 49440, Note_on_c, 2, 57, 100
4, 49560, Note_on_c, 2, 57, 0
4, 49560, Note_on_c, 2, 55, 100
4, 49680, Note_on_c, 2, 55, 0
4, 49680, Note_on_c, 2, 54, 100
4, 49800, Note_on_c, 2, 54, 0
4, 49800, Note_on_c, 2, 52, 100
4, 49920, Note_on_c, 2, 52, 0
4, 49920, Note_on_c, 2, 54, 100
4, 50040, Note_on_c, 2, 54, 0
4, 50040, Note_on_c, 2, 55, 100
4, 50160, Note_on_c, 2, 55, 0
4, 50160, Note_on_c, 2, 57, 100
4, 50280, Note_on_c, 2, 57, 0
4, 50280, Note_on_c, 2, 54, 100
4, 50400, Note_on_c, 2, 54, 0
4, 50400, Note_on_c, 2, 59, 100
4, 50640, Note_on_c, 2, 59, 0
4, 50640, Note_on_c, 2, 54, 100
4, 50880, Note_on_c, 2, 54, 0
4, 50880, Note_on_c, 2, 55, 100
4, 51120, Note_on_c, 2, 55, 0
4, 51120, Note_on_c, 2, 57, 100
4, 51240, Note_on_c, 2, 57, 0
4, 51240, Note_on_c, 2, 60, 100
4, 51360, Note_on_c, 2, 60, 0
4, 51360, Note_on_c, 2, 59, 100
4, 51480, Note_on_c, 2, 59, 0
4, 51480, Note_on_c, 2, 57, 100
4, 51600, Note_on_c, 2, 57, 0
4, 51600, Note_on_c, 2, 55, 100
4, 51720, Note_on_c, 2, 55, 0
4, 51720, Note_on_c, 2, 54, 100
4, 51840, Note_on_c, 2, 54, 0
4, 51840, Note_on_c, 2, 55, 100
4, 51960, Note_on_c, 2, 55, 0
4, 51960, Note_on_c, 2, 57, 100
4, 52080, Note_on_c, 2, 57, 0
4, 52080, Note_on_c, 2, 55, 100
4, 52200, Note_on_c, 2, 55, 0
4, 52200, Note_on_c, 2, 54, 100
4, 52320, Note_on_c, 2, 54, 0
4, 52320, Note_on_c, 2, 52, 100
4, 52440, Note_on_c, 2, 52, 0
4, 52440, Note_on_c, 2, 50, 100
4, 52560, Note_on_c, 2, 50, 0
4, 52560, Note_on_c, 2, 48, 100
4, 52680, Note_on_c, 2, 48, 0
4, 52680, Note_on_c, 2, 47, 100
4, 52800, Note_on_c, 2, 47, 0
4, 52800, Note_on_c, 2, 45, 100
4, 52920, Note_on_c, 2, 45, 0
4, 52920, Note_on_c, 2, 47, 100
4, 53040, Note_on_c, 2, 47, 0
4, 53040, Note_on_c, 2, 48, 100
4, 53160, Note_on_c, 2, 48, 0
4, 53160, Note_on_c, 2, 45, 100
4, 53280, Note_on_c, 2, 45, 0
4, 53280, Note_on_c, 2, 47, 100
4, 53520, Note_on_c, 2, 47, 0
4, 53520, Note_on_c, 2, 54, 100
4, 53760, Note_on_c, 2, 54, 0
4, 53760, Note_on_c, 2, 59, 100
4, 54240, Note_on_c, 2, 59, 0
4, 54240, Note_on_c, 2, 55, 100
4, 54480, Note_on_c, 2, 55, 0
4, 54480, Note_on_c, 2, 52, 100
4, 54720, Note_on_c, 2, 52, 0
4, 54720, Note_on_c, 2, 60, 100
4, 54840, Note_on_c, 2, 60, 0
4, 54840, Note_on_c, 2, 62, 100
4, 54960, Note_on_c, 2, 62, 0
4, 54960, Note_on_c, 2, 60, 100
4, 55080, Note_on_c, 2, 60, 0
4, 55080, Note_on_c, 2, 59, 100
4, 55200, Note_on_c, 2, 59, 0
4, 55200, Note_on_c, 2, 57, 100
4, 55320, Note_on_c, 2, 57, 0
4, 55320, Note_on_c, 2, 55, 100
4, 55440, Note_on_c, 2, 55, 0
4, 55440, Note_on_c, 2, 54, 100
4, 55560, Note_on_c, 2, 54, 0
4, 55560, Note_on_c, 2, 52, 100
4, 55680, Note_on_c, 2, 52, 0
4, 55680, Note_on_c, 2, 54, 100
4, 55800, Note_on_c, 2, 54, 0
4, 55800, Note_on_c, 2, 59, 100
4, 55920, Note_on_c, 2, 59, 0
4, 55920, Note_on_c, 2, 57, 100
4, 56040, Note_on_c, 2, 57, 0
4, 56040, Note_on_c, 2, 59, 100
4, 56160, Note_on_c, 2, 59, 0
4, 56160, Note_on_c, 2, 52, 100
4, 56400, Note_on_c, 2, 52, 0
4, 56400, Note_on_c, 2, 55, 100
4, 56640, Note_on_c, 2, 55, 0
4, 56640, Note_on_c, 2, 59, 100
4, 56880, Note_on_c, 2, 59, 0
4, 56880, Note_on_c, 2, 64, 100
4, 57120, Note_on_c, 2, 64, 0
4, 57120, Note_on_c, 2, 52, 100
4, 57360, Note_on_c, 2, 52, 0
4, 57360, Note_on_c, 2, 50, 100
4, 57600, Note_on_c, 2, 50, 0
4, 57600, Note_on_c, 2, 48, 100
4, 57840, Note_on_c, 2, 48, 0
4, 57840, Note_on_c, 2, 60, 100
4, 58080, Note_on_c, 2, 60, 0
4, 58080, Note_on_c, 2, 59, 100
4, 58320, Note_on_c, 2, 59, 0
4, 58320, Note_on_c, 2, 57, 100
4, 59280, Note_on_c, 2, 57, 0
4, 59280, Note_on_c, 2, 60, 100
4, 59520, Note_on_c, 2, 60, 0
4, 59520, Note_on_c, 2, 57, 100
4, 59760, Note_on_c, 2, 57, 0
4, 59760, Note_on_c, 2, 54, 100
4, 60000, Note_on_c, 2, 54, 0
4, 60000, Note_on_c, 2, 50, 100
4, 60240, Note_on_c, 2, 50, 0
4, 60240, Note_on_c, 2, 62, 100
4, 60480, Note_on_c, 2, 62, 0
4, 60480, Note_on_c, 2, 55, 100
4, 60600, Note_on_c, 2, 55, 0
4, 60600, Note_on_c, 2, 57, 100
4, 60720, Note_on_c, 2, 57, 0
4, 60720, Note_on_c, 2, 55, 100
4, 60840, Note_on_c, 2, 55, 0
4, 60840, Note_on_c, 2, 53, 100
4, 60960, Note_on_c, 2, 53, 0
4, 60960, Note_on_c, 2, 52, 100
4, 61080, Note_on_c, 2, 52, 0
4, 61080, Note_on_c, 2, 50, 100
4, 61200, Note_on_c, 2, 50, 0
4, 61200, Note_on_c, 2, 48, 100
4, 61440, Note_on_c, 2, 48, 0
4, 61440, Note_on_c, 2, 52, 100
4, 61680, Note_on_c, 2, 52, 0
4, 61680, Note_on_c, 2, 48, 100
4, 61920, Note_on_c, 2, 48, 0
4, 61920, Note_on_c, 2, 45, 100
4, 62040, Note_on_c, 2, 45, 0
4, 62040, Note_on_c, 2, 47, 100
4, 62160, Note_on_c, 2, 47, 0
4, 62160, Note_on_c, 2, 48, 100
4, 62280, Note_on_c, 2, 48, 0
4, 62280, Note_on_c, 2, 45, 100
4, 62400, Note_on_c, 2, 45, 0
4, 62400, Note_on_c, 2, 47, 100
4, 62520, Note_on_c, 2, 47, 0
4, 62520, Note_on_c, 2, 48, 100
4, 62640, Note_on_c, 2, 48, 0
4, 62640, Note_on_c, 2, 50, 100
4, 62880, Note_on_c, 2, 50, 0
4, 62880, Note_on_c, 2, 38, 100
4, 63120, Note_on_c, 2, 38, 0
4, 63120, Note_on_c, 2, 54, 100
4, 63360, Note_on_c, 2, 54, 0
4, 63360, Note_on_c, 2, 55, 100
4, 63480, Note_on_c, 2, 55, 0
4, 63480, Note_on_c, 2, 57, 100
4, 63600, Note_on_c, 2, 57, 0
4, 63600, Note_on_c, 2, 59, 100
4, 63720, Note_on_c, 2, 59, 0
4, 63720, Note_on_c, 2, 55, 100
4, 63840, Note_on_c, 2, 55, 0
4, 63840, Note_on_c, 2, 57, 100
4, 63960, Note_on_c, 2, 57, 0
4, 63960, Note_on_c, 2, 59, 100
4, 64080, Note_on_c, 2, 59, 0
4, 64080, Note_on_c, 2, 60, 100
4, 64320, Note_on_c, 2, 60, 0
4, 64320, Note_on_c, 2, 64, 100
4, 64560, Note_on_c, 2, 64, 0
4, 64560, Note_on_c, 2, 57, 100
4, 64800, Note_on_c, 2, 57, 0
4, 64800, Note_on_c, 2, 62, 100
4, 64920, Note_on_c, 2, 62, 0
4, 64920, Note_on_c, 2, 60, 100
4, 65040, Note_on_c, 2, 60, 0
4, 65040, Note_on_c, 2, 59, 100
4, 65160, Note_on_c, 2, 59, 0
4, 65160, Note_on_c, 2, 62, 100
4, 65280, Note_on_c, 2, 62, 0
4, 65280, Note_on_c, 2, 60, 100
4, 65400, Note_on_c, 2, 60, 0
4, 65400, Note_on_c, 2, 59, 100
4, 65520, Note_on_c, 2, 59, 0
4, 65520, Note_on_c, 2, 60, 100
4, 65640, Note_on_c, 2, 60, 0
4, 65640, Note_on_c, 2, 59, 100
4, 65760, Note_on_c, 2, 59, 0
4, 65760, Note_on_c, 2, 57, 100
4, 65880, Note_on_c, 2, 57, 0
4, 65880, Note_on_c, 2, 55, 100
4, 66000, Note_on_c, 2, 55, 0
4, 66000, Note_on_c, 2, 54, 100
4, 66120, Note_on_c, 2, 54, 0
4, 66120, Note_on_c, 2, 57, 100
4, 66240, Note_on_c, 2, 57, 0
4, 66240, Note_on_c, 2, 55, 100
4, 66360, Note_on_c, 2, 55, 0
4, 66360, Note_on_c, 2, 54, 100
4, 66480, Note_on_c, 2, 54, 0
4, 66480, Note_on_c, 2, 52, 100
4, 66600, Note_on_c, 2, 52, 0
4, 66600, Note_on_c, 2, 50, 100
4, 66720, Note_on_c, 2, 50, 0
4, 66720, Note_on_c, 2, 48, 100
4, 66840, Note_on_c, 2, 48, 0
4, 66840, Note_on_c, 2, 47, 100
4, 66960, Note_on_c, 2, 47, 0
4, 66960, Note_on_c, 2, 48, 100
4, 67200, Note_on_c, 2, 48, 0
4, 67200, Note_on_c, 2, 45, 100
4, 67440, Note_on_c, 2, 45, 0
4, 67440, Note_on_c, 2, 50, 100
4, 67680, Note_on_c, 2, 50, 0
4, 67680, Note_on_c, 2, 43, 100
4, 67800, Note_on_c, 2, 43, 0
4, 67800, Note_on_c, 2, 47, 100
4, 67920, Note_on_c, 2, 47, 0
4, 67920, Note_on_c, 2, 50, 100
4, 68040, Note_on_c, 2, 50, 0
4, 68040, Note_on_c, 2, 55, 100
4, 68160, Note_on_c, 2, 55, 0
4, 68160, Note_on_c, 2, 50, 100
4, 68280, Note_on_c, 2, 50, 0
4, 68280, Note_on_c, 2, 47, 100
4, 68400, Note_on_c, 2, 47, 0
4, 68400, Note_on_c, 2, 43, 100
4, 69120, Note_on_c, 2, 43, 0
4, 69120, Note_on_c, 2, 50, 100
4, 69360, Note_on_c, 2, 50, 0
4, 69360, Note_on_c, 2, 54, 100
4, 69600, Note_on_c, 2, 54, 0
4, 69600, Note_on_c, 2, 57, 100
4, 69840, Note_on_c, 2, 57, 0
4, 69840, Note_on_c, 2, 62, 100
4, 70080, Note_on_c, 2, 62, 0
4, 70080, Note_on_c, 2, 60, 100
4, 70200, Note_on_c, 2, 60, 0
4, 70200, Note_on_c, 2, 59, 100
4, 70320, Note_on_c, 2, 59, 0
4, 70320, Note_on_c, 2, 57, 100
4, 70440, Note_on_c, 2, 57, 0
4, 70440, Note_on_c, 2, 55, 100
4, 70560, Note_on_c, 2, 55, 0
4, 70560, Note_on_c, 2, 54, 100
4, 70800, Note_on_c, 2, 54, 0
4, 70800, Note_on_c, 2, 57, 100
4, 71040, Note_on_c, 2, 57, 0
4, 71040, Note_on_c, 2, 50, 100
4, 71280, Note_on_c, 2, 50, 0
4, 71280, Note_on_c, 2, 55, 100
4, 71520, Note_on_c, 2, 55, 0
4, 71520, Note_on_c, 2, 57, 100
4, 71760, Note_on_c, 2, 57, 0
4, 71760, Note_on_c, 2, 59, 100
4, 72000, Note_on_c, 2, 59, 0
4, 72000, Note_on_c, 2, 60, 100
4, 72120, Note_on_c, 2, 60, 0
4, 72120, Note_on_c, 2, 62, 100
4, 72240, Note_on_c, 2, 62, 0
4, 72240, Note_on_c, 2, 60, 100
4, 72360, Note_on_c, 2, 60, 0
4, 72360, Note_on_c, 2, 59, 100
4, 72480, Note_on_c, 2, 59, 0
4, 72480, Note_on_c, 2, 57, 100
4, 72600, Note_on_c, 2, 57, 0
4, 72600, Note_on_c, 2, 55, 100
4, 72720, Note_on_c, 2, 55, 0
4, 72720, Note_on_c, 2, 54, 100
4, 72840, Note_on_c, 2, 54, 0
4, 72840, Note_on_c, 2, 52, 100
4, 72960, Note_on_c, 2, 52, 0
4, 72960, Note_on_c, 2, 54, 100
4, 73080, Note_on_c, 2, 54, 0
4, 73080, Note_on_c, 2, 55, 100
4, 73200, Note_on_c, 2, 55, 0
4, 73200, Note_on_c, 2, 57, 100
4, 73320, Note_on_c, 2, 57, 0
4, 73320, Note_on_c, 2, 54, 100
4, 73440, Note_on_c, 2, 54, 0
4, 73440, Note_on_c, 2, 59, 100
4, 73680, Note_on_c, 2, 59, 0
4, 73680, Note_on_c, 2, 54, 100
4, 73920, Note_on_c, 2, 54, 0
4, 73920, Note_on_c, 2, 55, 100
4, 74160, Note_on_c, 2, 55, 0
4, 74160, Note_on_c, 2, 57, 100
4, 74280, Note_on_c, 2, 57, 0
4, 74280, Note_on_c, 2, 60, 100
4, 74400, Note_on_c, 2, 60, 0
4, 74400, Note_on_c, 2, 59, 100
4, 74520, Note_on_c, 2, 59, 0
4, 74520, Note_on_c, 2, 57, 100
4, 74640, Note_on_c, 2, 57, 0
4, 74640, Note_on_c, 2, 55, 100
4, 74760, Note_on_c, 2, 55, 0
4, 74760, Note_on_c, 2, 54, 100
4, 74880, Note_on_c, 2, 54, 0
4, 74880, Note_on_c, 2, 55, 100
4, 75000, Note_on_c, 2, 55, 0
4, 75000, Note_on_c, 2, 57, 100
4, 75120, Note_on_c, 2, 57, 0
4, 75120, Note_on_c, 2, 55, 100
4, 75240, Note_on_c, 2, 55, 0
4, 75240, Note_on_c, 2, 54, 100
4, 75360, Note_on_c, 2, 54, 0
4, 75360, Note_on_c, 2, 52, 100
4, 75480, Note_on_c, 2, 52, 0
4, 75480, Note_on_c, 2, 50, 100
4, 75600, Note_on_c, 2, 50, 0
4, 75600, Note_on_c, 2, 48, 100
4, 75720, Note_on_c, 2, 48, 0
4, 75720, Note_on_c, 2, 47, 100
4, 75840, Note_on_c, 2, 47, 0
4, 75840, Note_on_c, 2, 45, 100
4, 75960, Note_on_c, 2, 45, 0
4, 75960, Note_on_c, 2, 47, 100
4, 76080, Note_on_c, 2, 47, 0
4, 76080, Note_on_c, 2, 48, 100
4, 76200, Note_on_c, 2, 48, 0
4, 76200, Note_on_c, 2, 45, 100
4, 76320, Note_on_c, 2, 45, 0
4, 76320, Note_on_c, 2, 47, 100
4, 76560, Note_on_c, 2, 47, 0
4, 76560, Note_on_c, 2, 54, 100
4, 76800, Note_on_c, 2, 54, 0
4, 76800, Note_on_c, 2, 59, 100
4, 77280, Note_on_c, 2, 59, 0
4, 77280, Note_on_c, 2, 55, 100
4, 77520, Note_on_c, 2, 55, 0
4, 77520, Note_on_c, 2, 52, 100
4, 77760, Note_on_c, 2, 52, 0
4, 77760, Note_on_c, 2, 60, 100
4, 77880, Note_on_c, 2, 60, 0
4, 77880, Note_on_c, 2, 62, 100
4, 78000, Note_on_c, 2, 62, 0
4, 78000, Note_on_c, 2, 60, 100
4, 78120, Note_on_c, 2, 60, 0
4, 78120, Note_on_c, 2, 59, 100
4, 78240, Note_on_c, 2, 59, 0
4, 78240, Note_on_c, 2, 57, 100
4, 78360, Note_on_c, 2, 57, 0
4, 78360, Note_on_c, 2, 55, 100
4, 78480, Note_on_c, 2, 55, 0
4, 78480, Note_on_c, 2, 54, 100
4, 78600, Note_on_c, 2, 54, 0
4, 78600, Note_on_c, 2, 52, 100
4, 78720, Note_on_c, 2, 52, 0
4, 78720, Note_on_c, 2, 54, 100
4, 78840, Note_on_c, 2, 54, 0
4, 78840, Note_on_c, 2, 59, 100
4, 78960, Note_on_c, 2, 59, 0
4, 78960, Note_on_c, 2, 57, 100
4, 79080, Note_on_c, 2, 57, 0
4, 79080, Note_on_c, 2, 59, 100
4, 79200, Note_on_c, 2, 59, 0
4, 79200, Note_on_c, 2, 52, 100
4, 79440, Note_on_c, 2, 52, 0
4, 79440, Note_on_c, 2, 55, 100
4, 79680, Note_on_c, 2, 55, 0
4, 79680, Note_on_c, 2, 59, 100
4, 79920, Note_on_c, 2, 59, 0
4, 79920, Note_on_c, 2, 64, 100
4, 80160, Note_on_c, 2, 64, 0
4, 80160, Note_on_c, 2, 52, 100
4, 80400, Note_on_c, 2, 52, 0
4, 80400, Note_on_c, 2, 50, 100
4, 80640, Note_on_c, 2, 50, 0
4, 80640, Note_on_c, 2, 48, 100
4, 80880, Note_on_c, 2, 48, 0
4, 80880, Note_on_c, 2, 60, 100
4, 81120, Note_on_c, 2, 60, 0
4, 81120, Note_on_c, 2, 59, 100
4, 81360, Note_on_c, 2, 59, 0
4, 81360, Note_on_c, 2, 57, 100
4, 82320, Note_on_c, 2, 57, 0
4, 82320, Note_on_c, 2, 60, 100
4, 82560, Note_on_c, 2, 60, 0
4, 82560, Note_on_c, 2, 57, 100
4, 82800, Note_on_c, 2, 57, 0
4, 82800, Note_on_c, 2, 54, 100
4, 83040, Note_on_c, 2, 54, 0
4, 83040, Note_on_c, 2, 50, 100
4, 83280, Note_on_c, 2, 50, 0
4, 83280, Note_on_c, 2, 62, 100
4, 83520, Note_on_c, 2, 62, 0
4, 83520, Note_on_c, 2, 55, 100
4, 83640, Note_on_c, 2, 55, 0
4, 83640, Note_on_c, 2, 57, 100
4, 83760, Note_on_c, 2, 57, 0
4, 83760, Note_on_c, 2, 55, 100
4, 83880, Note_on_c, 2, 55, 0
4, 83880, Note_on_c, 2, 53, 100
4, 84000, Note_on_c, 2, 53, 0
4, 84000, Note_on_c, 2, 52, 100
4, 84120, Note_on_c, 2, 52, 0
4, 84120, Note_on_c, 2, 50, 100
4, 84240, Note_on_c, 2, 50, 0
4, 84240, Note_on_c, 2, 48, 100
4, 84480, Note_on_c, 2, 48, 0
4, 84480, Note_on_c, 2, 52, 100
4, 84720, Note_on_c, 2, 52, 0
4, 84720, Note_on_c, 2, 48, 100
4, 84960, Note_on_c, 2, 48, 0
4, 84960, Note_on_c, 2, 45, 100
4, 85080, Note_on_c, 2, 45, 0
4, 85080, Note_on_c, 2, 47, 100
4, 85200, Note_on_c, 2, 47, 0
4, 85200, Note_on_c, 2, 48, 100
4, 85320, Note_on_c, 2, 48, 0
4, 85320, Note_on_c, 2, 45, 100
4, 85440, Note_on_c, 2, 45, 0
4, 85440, Note_on_c, 2, 47, 100
4, 85560, Note_on_c, 2, 47, 0
4, 85560, Note_on_c, 2, 48, 100
4, 85680, Note_on_c, 2, 48, 0
4, 85680, Note_on_c, 2, 50, 100
4, 85920, Note_on_c, 2, 50, 0
4, 85920, Note_on_c, 2, 38, 100
4, 86160, Note_on_c, 2, 38, 0
4, 86160, Note_on_c, 2, 54, 100
4, 86400, Note_on_c, 2, 54, 0
4, 86400, Note_on_c, 2, 55, 100
4, 86520, Note_on_c, 2, 55, 0
4, 86520, Note_on_c, 2, 57, 100
4, 86640, Note_on_c, 2, 57, 0
4, 86640, Note_on_c, 2, 59, 100
4, 86760, Note_on_c, 2, 59, 0
4, 86760, Note_on_c, 2, 55, 100
4, 86880, Note_on_c, 2, 55, 0
4, 86880, Note_on_c, 2, 57, 100
4, 87000, Note_on_c, 2, 57, 0
4, 87000, Note_on_c, 2, 59, 100
4, 87120, Note_on_c, 2, 59, 0
4, 87120, Note_on_c, 2, 60, 100
4, 87360, Note_on_c, 2, 60, 0
4, 87360, Note_on_c, 2, 64, 100
4, 87600, Note_on_c, 2, 64, 0
4, 87600, Note_on_c, 2, 57, 100
4, 87840, Note_on_c, 2, 57, 0
4, 87840, Note_on_c, 2, 62, 100
4, 87960, Note_on_c, 2, 62, 0
4, 87960, Note_on_c, 2, 60, 100
4, 88080, Note_on_c, 2, 60, 0
4, 88080, Note_on_c, 2, 59, 100
4, 88200, Note_on_c, 2, 59, 0
4, 88200, Note_on_c, 2, 62, 100
4, 88320, Note_on_c, 2, 62, 0
4, 88320, Note_on_c, 2, 60, 100
4, 88440, Note_on_c, 2, 60, 0
4, 88440, Note_on_c, 2, 59, 100
4, 88560, Note_on_c, 2, 59, 0
4, 88560, Note_on_c, 2, 60, 100
4, 88680, Note_on_c, 2, 60, 0
4, 88680, Note_on_c, 2, 59, 100
4, 88800, Note_on_c, 2, 59, 0
4, 88800, Note_on_c, 2, 57, 100
4, 88920, Note_on_c, 2, 57, 0
4, 88920, Note_on_c, 2, 55, 100
4, 89040, Note_on_c, 2, 55, 0
4, 89040, Note_on_c, 2, 54, 100
4, 89160, Note_on_c, 2, 54, 0
4, 89160, Note_on_c, 2, 57, 100
4, 89280, Note_on_c, 2, 57, 0
4, 89280, Note_on_c, 2, 55, 100
4, 89400, Note_on_c, 2, 55, 0
4, 89400, Note_on_c, 2, 54, 100
4, 89520, Note_on_c, 2, 54, 0
4, 89520, Note_on_c, 2, 52, 100
4, 89640, Note_on_c, 2, 52, 0
4, 89640, Note_on_c, 2, 50, 100
4, 89760, Note_on_c, 2, 50, 0
4, 89760, Note_on_c, 2, 48, 100
4, 89880, Note_on_c, 2, 48, 0
4, 89880, Note_on_c, 2, 47, 100
4, 90000, Note_on_c, 2, 47, 0
4, 90000, Note_on_c, 2, 48, 100
4, 90240, Note_on_c, 2, 48, 0
4, 90240, Note_on_c, 2, 45, 100
4, 90480, Note_on_c, 2, 45, 0
4, 90480, Note_on_c, 2, 50, 100
4, 90720, Note_on_c, 2, 50, 0
4, 90720, Note_on_c, 2, 43, 100
4, 90840, Note_on_c, 2, 43, 0
4, 90840, Note_on_c, 2, 47, 100
4, 90960, Note_on_c, 2, 47, 0
4, 90960, Note_on_c, 2, 50, 100
4, 91080, Note_on_c, 2, 50, 0
4, 91080, Note_on_c, 2, 55, 100
4, 91200, Note_on_c, 2, 55, 0
4, 91200, Note_on_c, 2, 50, 100
4, 91320, Note_on_c, 2, 50, 0
4, 91320, Note_on_c, 2, 47, 100
4, 91440, Note_on_c, 2, 47, 0
4, 91440, Note_on_c, 2, 43, 100
4, 92160, Note_on_c, 2, 43, 0
4, 92160, End_track
5, 0, Start_track
5, 0, MIDI_port, 0
5, 0, Title_t, "The Goldberg Variations - BWV 988"
5, 0, End_track
6, 0, Start_track
6, 0, MIDI_port, 0
6, 0, Title_t, "Aria with 30 Variations for Harpsichord with 2 Manuals"
6, 0, End_track
7, 0, Start_track
7, 0, MIDI_port, 0
7, 0, Title_t, "--------------------------------------"
7, 0, End_track
8, 0, Start_track
8, 0, MIDI_port, 0
8, 0, Title_t, "Variatio 3 a 1 Clav. Canone all'Unisono"
8, 0, End_track
9, 0, Start_track
9, 0, MIDI_port, 0
9, 0, Title_t, "--------------------------------------"
9, 0, End_track
10, 0, Start_track
10, 0, MIDI_port, 0
10, 0, Title_t, "Sequenced with Cakewalk Pro Audio by"
10, 0, End_track
11, 0, Start_track
11, 0, MIDI_port, 0
11, 0, Title_t, "David J. Grossman - dave@unpronounceable.com"
11, 0, End_track
12, 0, Start_track
12, 0, MIDI_port, 0
12, 0, Title_t, "This and other Bach MIDI files can be found at:"
12, 0, End_track
13, 0, Start_track
13, 0, MIDI_port, 0
13, 0, Title_t, "Dave's J.S. Bach Page"
13, 0, End_track
14, 0, Start_track
14, 0, MIDI_port, 0
14, 0, Title_t, "http://www.unpronounceable.com/bach"
14, 0, End_track
15, 0, Start_track
15, 0, MIDI_port, 0
15, 0, Title_t, "--------------------------------------"
15, 0, End_track
16, 0, Start_track
16, 0, MIDI_port, 0
16, 0, Title_t, "Original Filename: 988-v03.mid"
16, 0, End_track
17, 0, Start_track
17, 0, MIDI_port, 0
17, 0, Title_t, "Last Modified: March 24, 1997"
17, 0, End_track
0, 0, End_of_file
