0, 0, Header, 1, 17, 480
1, 0, Start_track
1, 0, Title_t, "untitled"
1, 0, SMPTE_offset, 96, 0, 3, 0, 0
1, 0, Time_signature, 9, 3, 12, 8
1, 0, Key_signature, 1, "major"
1, 0, Tempo, 600000
1, 0, Marker_t, "A"
1, 17280, Marker_t, "~"
1, 34560, Marker_t, "A'"
1, 69120, Marker_t, "B"
1, 84960, Marker_t, "~"
1, 103680, Marker_t, "B'"
1, 137520, Tempo, 1200000
1, 137520, End_track
2, 0, Start_track
2, 0, MIDI_port, 0
2, 0, Title_t, "Solo Harpsichord with 2 Manuals"
2, 0, Program_c, 0, 6
2, 0, Control_c, 0, 7, 100
2, 0, Control_c, 0, 10, 74
2, 0, Note_on_c, 0, 67, 100
2, 480, Note_on_c, 0, 67, 0
2, 480, Note_on_c, 0, 66, 100
2, 720, Note_on_c, 0, 66, 0
2, 720, Note_on_c, 0, 67, 100
2, 1200, Note_on_c, 0, 67, 0
2, 1200, Note_on_c, 0, 69, 100
2, 1440, Note_on_c, 0, 69, 0
2, 1440, Note_on_c, 0, 71, 100
2, 1680, Note_on_c, 0, 71, 0
2, 1680, Note_on_c, 0, 74, 100
2, 1920, Note_on_c, 0, 74, 0
2, 1920, Note_on_c, 0, 73, 100
2, 2160, Note_on_c, 0, 73, 0
2, 2160, Note_on_c, 0, 74, 100
2, 2640, Note_on_c, 0, 74, 0
2, 2640, Note_on_c, 0, 69, 100
2, 2880, Note_on_c, 0, 69, 0
2, 2880, Note_on_c, 0, 74, 100
2, 3360, Note_on_c, 0, 74, 0
2, 3360, Note_on_c, 0, 76, 100
2, 3600, Note_on_c, 0, 76, 0
2, 3600, Note_on_c, 0, 76, 100
2, 3630, Note_on_c, 0, 76, 0
2, 3630, Note_on_c, 0, 78, 100
2, 3720, Note_on_c, 0, 78, 0
2, 3720, Note_on_c, 0, 79, 100
2, 3840, Note_on_c, 0, 79, 0
2, 3840, Note_on_c, 0, 78, 100
2, 3960, Note_on_c, 0, 78, 0
2, 3960, Note_on_c, 0, 76, 100
2, 4080, Note_on_c, 0, 76, 0
2, 4080, Note_on_c, 0, 74, 100
2, 4320, Note_on_c, 0, 74, 0
2, 4320, Note_on_c, 0, 79, 100
2, 4560, Note_on_c, 0, 79, 0
2, 4560, Note_on_c, 0, 83, 100
2, 4800, Note_on_c, 0, 83, 0
2, 4800, Note_on_c, 0, 81, 100
2, 5040, Note_on_c, 0, 81, 0
2, 5040, Note_on_c, 0, 83, 100
2, 5280, Note_on_c, 0, 83, 0
2, 5280, Note_on_c, 0, 79, 100
2, 5520, Note_on_c, 0, 79, 0
2, 5520, Note_on_c, 0, 78, 100
2, 5760, Note_on_c, 0, 78, 0
2, 5760, Note_on_c, 0, 79, 100
2, 6720, Note_on_c, 0, 79, 0
2, 6720, Note_on_c, 0, 78, 100
2, 6960, Note_on_c, 0, 78, 0
2, 6960, Note_on_c, 0, 76, 100
2, 7200, Note_on_c, 0, 76, 0
2, 7200, Note_on_c, 0, 78, 100
2, 7440, Note_on_c, 0, 78, 0
2, 7440, Note_on_c, 0, 79, 100
2, 7680, Note_on_c, 0, 79, 0
2, 7680, Note_on_c, 0, 81, 100
2, 7920, Note_on_c, 0, 81, 0
2, 7920, Note_on_c, 0, 74, 100
2, 8880, Note_on_c, 0, 74, 0
2, 8880, Note_on_c, 0, 79, 100
2, 9120, Note_on_c, 0, 79, 0
2, 9120, Note_on_c, 0, 78, 100
2, 9360, Note_on_c, 0, 78, 0
2, 9360, Note_on_c, 0, 79, 100
2, 9600, Note_on_c, 0, 79, 0
2, 9600, Note_on_c, 0, 83, 100
2, 9840, Note_on_c, 0, 83, 0
2, 9840, Note_on_c, 0, 81, 100
2, 10080, Note_on_c, 0, 81, 0
2, 10080, Note_on_c, 0, 83, 100
2, 10320, Note_on_c, 0, 83, 0
2, 10320, Note_on_c, 0, 86, 100
2, 10440, Note_on_c, 0, 86, 0
2, 10440, Note_on_c, 0, 84, 100
2, 10560, Note_on_c, 0, 84, 0
2, 10560, Note_on_c, 0, 83, 100
2, 10680, Note_on_c, 0, 83, 0
2, 10680, Note_on_c, 0, 81, 100
2, 10800, Note_on_c, 0, 81, 0
2, 10800, Note_on_c, 0, 83, 100
2, 11040, Note_on_c, 0, 83, 0
2, 11040, Note_on_c, 0, 84, 100
2, 11160, Note_on_c, 0, 84, 0
2, 11160, Note_on_c, 0, 83, 100
2, 11280, Note_on_c, 0, 83, 0
2, 11280, Note_on_c, 0, 81, 100
2, 11400, Note_on_c, 0, 81, 0
2, 11400, Note_on_c, 0, 79, 100
2, 11520, Note_on_c, 0, 79, 0
2, 11520, Note_on_c, 0, 81, 100
2, 11760, Note_on_c, 0, 81, 0
2, 11760, Note_on_c, 0, 83, 100
2, 11880, Note_on_c, 0, 83, 0
2, 11880, Note_on_c, 0, 81, 100
2, 12000, Note_on_c, 0, 81, 0
2, 12000, Note_on_c, 0, 79, 100
2, 12120, Note_on_c, 0, 79, 0
2, 12120, Note_on_c, 0, 78, 100
2, 12240, Note_on_c, 0, 78, 0
2, 12240, Note_on_c, 0, 79, 100
2, 12480, Note_on_c, 0, 79, 0
2, 12480, Note_on_c, 0, 81, 100
2, 12600, Note_on_c, 0, 81, 0
2, 12600, Note_on_c, 0, 79, 100
2, 12720, Note_on_c, 0, 79, 0
2, 12720, Note_on_c, 0, 78, 100
2, 12840, Note_on_c, 0, 78, 0
2, 12840, Note_on_c, 0, 76, 100
2, 12960, Note_on_c, 0, 76, 0
2, 12960, Note_on_c, 0, 74, 100
2, 13200, Note_on_c, 0, 74, 0
2, 13680, Note_on_c, 0, 79, 100
2, 13920, Note_on_c, 0, 79, 0
2, 14400, Note_on_c, 0, 78, 100
2, 14640, Note_on_c, 0, 78, 0
2, 15120, Note_on_c, 0, 79, 100
2, 15360, Note_on_c, 0, 79, 0
2, 15840, Note_on_c, 0, 72, 100
2, 16080, Note_on_c, 0, 72, 0
2, 16560, Note_on_c, 0, 71, 100
2, 16800, Note_on_c, 0, 71, 0
2, 21840, Note_on_c, 0, 83, 100
2, 22080, Note_on_c, 0, 83, 0
2, 22080, Note_on_c, 0, 81, 100
2, 22320, Note_on_c, 0, 81, 0
2, 22320, Note_on_c, 0, 79, 100
2, 22560, Note_on_c, 0, 79, 0
2, 22560, Note_on_c, 0, 81, 100
2, 22800, Note_on_c, 0, 81, 0
2, 22800, Note_on_c, 0, 78, 100
2, 23040, Note_on_c, 0, 78, 0
2, 23040, Note_on_c, 0, 76, 100
2, 23160, Note_on_c, 0, 76, 0
2, 23160, Note_on_c, 0, 74, 100
2, 23280, Note_on_c, 0, 74, 0
2, 23280, Note_on_c, 0, 73, 100
2, 23520, Note_on_c, 0, 73, 0
2, 23520, Note_on_c, 0, 74, 100
2, 23760, Note_on_c, 0, 74, 0
2, 23760, Note_on_c, 0, 74, 100
2, 23880, Note_on_c, 0, 74, 0
2, 23880, Note_on_c, 0, 73, 100
2, 24720, Note_on_c, 0, 73, 0
2, 24720, Note_on_c, 0, 74, 100
2, 24960, Note_on_c, 0, 74, 0
2, 24960, Note_on_c, 0, 76, 100
2, 25200, Note_on_c, 0, 76, 0
2, 25200, Note_on_c, 0, 69, 100
2, 25440, Note_on_c, 0, 69, 0
2, 25440, Note_on_c, 0, 71, 100
2, 25680, Note_on_c, 0, 71, 0
2, 25680, Note_on_c, 0, 73, 100
2, 25920, Note_on_c, 0, 73, 0
2, 25920, Note_on_c, 0, 74, 100
2, 26400, Note_on_c, 0, 74, 0
2, 26400, Note_on_c, 0, 78, 100
2, 26640, Note_on_c, 0, 78, 0
2, 26640, Note_on_c, 0, 79, 100
2, 27120, Note_on_c, 0, 79, 0
2, 27120, Note_on_c, 0, 81, 100
2, 27360, Note_on_c, 0, 81, 0
2, 27360, Note_on_c, 0, 71, 100
2, 28320, Note_on_c, 0, 71, 0
2, 28320, Note_on_c, 0, 69, 100
2, 28560, Note_on_c, 0, 69, 0
2, 28560, Note_on_c, 0, 67, 100
2, 28800, Note_on_c, 0, 67, 0
2, 28800, Note_on_c, 0, 69, 100
2, 30480, Note_on_c, 0, 69, 0
2, 30480, Note_on_c, 0, 74, 100
2, 30720, Note_on_c, 0, 74, 0
2, 30720, Note_on_c, 0, 73, 100
2, 30960, Note_on_c, 0, 73, 0
2, 30960, Note_on_c, 0, 74, 100
2, 31080, Note_on_c, 0, 74, 0
2, 31080, Note_on_c, 0, 76, 100
2, 31200, Note_on_c, 0, 76, 0
2, 31200, Note_on_c, 0, 78, 100
2, 31440, Note_on_c, 0, 78, 0
2, 31440, Note_on_c, 0, 76, 100
2, 31680, Note_on_c, 0, 76, 0
2, 31680, Note_on_c, 0, 78, 100
2, 31920, Note_on_c, 0, 78, 0
2, 31920, Note_on_c, 0, 81, 100
2, 32040, Note_on_c, 0, 81, 0
2, 32040, Note_on_c, 0, 79, 100
2, 32160, Note_on_c, 0, 79, 0
2, 32160, Note_on_c, 0, 78, 100
2, 32280, Note_on_c, 0, 78, 0
2, 32280, Note_on_c, 0, 76, 100
2, 32400, Note_on_c, 0, 76, 0
2, 32400, Note_on_c, 0, 78, 100
2, 32640, Note_on_c, 0, 78, 0
2, 32640, Note_on_c, 0, 79, 100
2, 32760, Note_on_c, 0, 79, 0
2, 32760, Note_on_c, 0, 78, 100
2, 32880, Note_on_c, 0, 78, 0
2, 32880, Note_on_c, 0, 76, 100
2, 33000, Note_on_c, 0, 76, 0
2, 33000, Note_on_c, 0, 74, 100
2, 33120, Note_on_c, 0, 74, 0
2, 33120, Note_on_c, 0, 76, 100
2, 33360, Note_on_c, 0, 76, 0
2, 33360, Note_on_c, 0, 78, 100
2, 33480, Note_on_c, 0, 78, 0
2, 33480, Note_on_c, 0, 76, 100
2, 33600, Note_on_c, 0, 76, 0
2, 33600, Note_on_c, 0, 74, 100
2, 33720, Note_on_c, 0, 74, 0
2, 33720, Note_on_c, 0, 73, 100
2, 33840, Note_on_c, 0, 73, 0
2, 33840, Note_on_c, 0, 74, 100
2, 34560, Note_on_c, 0, 74, 0
2, 34560, Note_on_c, 0, 67, 100
2, 35040, Note_on_c, 0, 67, 0
2, 35040, Note_on_c, 0, 66, 100
2, 35280, Note_on_c, 0, 66, 0
2, 35280, Note_on_c, 0, 67, 100
2, 35760, Note_on_c, 0, 67, 0
2, 35760, Note_on_c, 0, 69, 100
2, 36000, Note_on_c, 0, 69, 0
2, 36000, Note_on_c, 0, 71, 100
2, 36240, Note_on_c, 0, 71, 0
2, 36240, Note_on_c, 0, 74, 100
2, 36480, Note_on_c, 0, 74, 0
2, 36480, Note_on_c, 0, 73, 100
2, 36720, Note_on_c, 0, 73, 0
2, 36720, Note_on_c, 0, 74, 100
2, 37200, Note_on_c, 0, 74, 0
2, 37200, Note_on_c, 0, 69, 100
2, 37440, Note_on_c, 0, 69, 0
2, 37440, Note_on_c, 0, 74, 100
2, 37920, Note_on_c, 0, 74, 0
2, 37920, Note_on_c, 0, 76, 100
2, 38160, Note_on_c, 0, 76, 0
2, 38160, Note_on_c, 0, 76, 100
2, 38190, Note_on_c, 0, 76, 0
2, 38190, Note_on_c, 0, 78, 100
2, 38280, Note_on_c, 0, 78, 0
2, 38280, Note_on_c, 0, 79, 100
2, 38400, Note_on_c, 0, 79, 0
2, 38400, Note_on_c, 0, 78, 100
2, 38520, Note_on_c, 0, 78, 0
2, 38520, Note_on_c, 0, 76, 100
2, 38640, Note_on_c, 0, 76, 0
2, 38640, Note_on_c, 0, 74, 100
2, 38880, Note_on_c, 0, 74, 0
2, 38880, Note_on_c, 0, 79, 100
2, 39120, Note_on_c, 0, 79, 0
2, 39120, Note_on_c, 0, 83, 100
2, 39360, Note_on_c, 0, 83, 0
2, 39360, Note_on_c, 0, 81, 100
2, 39600, Note_on_c, 0, 81, 0
2, 39600, Note_on_c, 0, 83, 100
2, 39840, Note_on_c, 0, 83, 0
2, 39840, Note_on_c, 0, 79, 100
2, 40080, Note_on_c, 0, 79, 0
2, 40080, Note_on_c, 0, 78, 100
2, 40320, Note_on_c, 0, 78, 0
2, 40320, Note_on_c, 0, 79, 100
2, 41280, Note_on_c, 0, 79, 0
2, 41280, Note_on_c, 0, 78, 100
2, 41520, Note_on_c, 0, 78, 0
2, 41520, Note_on_c, 0, 76, 100
2, 41760, Note_on_c, 0, 76, 0
2, 41760, Note_on_c, 0, 78, 100
2, 42000, Note_on_c, 0, 78, 0
2, 42000, Note_on_c, 0, 79, 100
2, 42240, Note_on_c, 0, 79, 0
2, 42240, Note_on_c, 0, 81, 100
2, 42480, Note_on_c, 0, 81, 0
2, 42480, Note_on_c, 0, 74, 100
2, 43440, Note_on_c, 0, 74, 0
2, 43440, Note_on_c, 0, 79, 100
2, 43680, Note_on_c, 0, 79, 0
2, 43680, Note_on_c, 0, 78, 100
2, 43920, Note_on_c, 0, 78, 0
2, 43920, Note_on_c, 0, 79, 100
2, 44160, Note_on_c, 0, 79, 0
2, 44160, Note_on_c, 0, 83, 100
2, 44400, Note_on_c, 0, 83, 0
2, 44400, Note_on_c, 0, 81, 100
2, 44640, Note_on_c, 0, 81, 0
2, 44640, Note_on_c, 0, 83, 100
2, 44880, Note_on_c, 0, 83, 0
2, 44880, Note_on_c, 0, 86, 100
2, 45000, Note_on_c, 0, 86, 0
2, 45000, Note_on_c, 0, 84, 100
2, 45120, Note_on_c, 0, 84, 0
2, 45120, Note_on_c, 0, 83, 100
2, 45240, Note_on_c, 0, 83, 0
2, 45240, Note_on_c, 0, 81, 100
2, 45360, Note_on_c, 0, 81, 0
2, 45360, Note_on_c, 0, 83, 100
2, 45600, Note_on_c, 0, 83, 0
2, 45600, Note_on_c, 0, 84, 100
2, 45720, Note_on_c, 0, 84, 0
2, 45720, Note_on_c, 0, 83, 100
2, 45840, Note_on_c, 0, 83, 0
2, 45840, Note_on_c, 0, 81, 100
2, 45960, Note_on_c, 0, 81, 0
2, 45960, Note_on_c, 0, 79, 100
2, 46080, Note_on_c, 0, 79, 0
2, 46080, Note_on_c, 0, 81, 100
2, 46320, Note_on_c, 0, 81, 0
2, 46320, Note_on_c, 0, 83, 100
2, 46440, Note_on_c, 0, 83, 0
2, 46440, Note_on_c, 0, 81, 100
2, 46560, Note_on_c, 0, 81, 0
2, 46560, Note_on_c, 0, 79, 100
2, 46680, Note_on_c, 0, 79, 0
2, 46680, Note_on_c, 0, 78, 100
2, 46800, Note_on_c, 0, 78, 0
2, 46800, Note_on_c, 0, 79, 100
2, 47040, Note_on_c, 0, 79, 0
2, 47040, Note_on_c, 0, 81, 100
2, 47160, Note_on_c, 0, 81, 0
2, 47160, Note_on_c, 0, 79, 100
2, 47280, Note_on_c, 0, 79, 0
2, 47280, Note_on_c, 0, 78, 100
2, 47400, Note_on_c, 0, 78, 0
2, 47400, Note_on_c, 0, 76, 100
2, 47520, Note_on_c, 0, 76, 0
2, 47520, Note_on_c, 0, 74, 100
2, 47760, Note_on_c, 0, 74, 0
2, 48240, Note_on_c, 0, 79, 100
2, 48480, Note_on_c, 0, 79, 0
2, 48960, Note_on_c, 0, 78, 100
2, 49200, Note_on_c, 0, 78, 0
2, 49680, Note_on_c, 0, 79, 100
2, 49920, Note_on_c, 0, 79, 0
2, 50400, Note_on_c, 0, 72, 100
2, 50640, Note_on_c, 0, 72, 0
2, 51120, Note_on_c, 0, 71, 100
2, 51360, Note_on_c, 0, 71, 0
2, 56400, Note_on_c, 0, 83, 100
2, 56640, Note_on_c, 0, 83, 0
2, 56640, Note_on_c, 0, 81, 100
2, 56880, Note_on_c, 0, 81, 0
2, 56880, Note_on_c, 0, 79, 100
2, 57120, Note_on_c, 0, 79, 0
2, 57120, Note_on_c, 0, 81, 100
2, 57360, Note_on_c, 0, 81, 0
2, 57360, Note_on_c, 0, 78, 100
2, 57600, Note_on_c, 0, 78, 0
2, 57600, Note_on_c, 0, 76, 100
2, 57720, Note_on_c, 0, 76, 0
2, 57720, Note_on_c, 0, 74, 100
2, 57840, Note_on_c, 0, 74, 0
2, 57840, Note_on_c, 0, 73, 100
2, 58080, Note_on_c, 0, 73, 0
2, 58080, Note_on_c, 0, 74, 100
2, 58320, Note_on_c, 0, 74, 0
2, 58320, Note_on_c, 0, 74, 100
2, 58440, Note_on_c, 0, 74, 0
2, 58440, Note_on_c, 0, 73, 100
2, 59280, Note_on_c, 0, 73, 0
2, 59280, Note_on_c, 0, 74, 100
2, 59520, Note_on_c, 0, 74, 0
2, 59520, Note_on_c, 0, 76, 100
2, 59760, Note_on_c, 0, 76, 0
2, 59760, Note_on_c, 0, 69, 100
2, 60000, Note_on_c, 0, 69, 0
2, 60000, Note_on_c, 0, 71, 100
2, 60240, Note_on_c, 0, 71, 0
2, 60240, Note_on_c, 0, 73, 100
2, 60480, Note_on_c, 0, 73, 0
2, 60480, Note_on_c, 0, 74, 100
2, 60960, Note_on_c, 0, 74, 0
2, 60960, Note_on_c, 0, 78, 100
2, 61200, Note_on_c, 0, 78, 0
2, 61200, Note_on_c, 0, 79, 100
2, 61680, Note_on_c, 0, 79, 0
2, 61680, Note_on_c, 0, 81, 100
2, 61920, Note_on_c, 0, 81, 0
2, 61920, Note_on_c, 0, 71, 100
2, 62880, Note_on_c, 0, 71, 0
2, 62880, Note_on_c, 0, 69, 100
2, 63120, Note_on_c, 0, 69, 0
2, 63120, Note_on_c, 0, 67, 100
2, 63360, Note_on_c, 0, 67, 0
2, 63360, Note_on_c, 0, 69, 100
2, 65040, Note_on_c, 0, 69, 0
2, 65040, Note_on_c, 0, 74, 100
2, 65280, Note_on_c, 0, 74, 0
2, 65280, Note_on_c, 0, 73, 100
2, 65520, Note_on_c, 0, 73, 0
2, 65520, Note_on_c, 0, 74, 100
2, 65640, Note_on_c, 0, 74, 0
2, 65640, Note_on_c, 0, 76, 100
2, 65760, Note_on_c, 0, 76, 0
2, 65760, Note_on_c, 0, 78, 100
2, 66000, Note_on_c, 0, 78, 0
2, 66000, Note_on_c, 0, 76, 100
2, 66240, Note_on_c, 0, 76, 0
2, 66240, Note_on_c, 0, 78, 100
2, 66480, Note_on_c, 0, 78, 0
2, 66480, Note_on_c, 0, 81, 100
2, 66600, Note_on_c, 0, 81, 0
2, 66600, Note_on_c, 0, 79, 100
2, 66720, Note_on_c, 0, 79, 0
2, 66720, Note_on_c, 0, 78, 100
2, 66840, Note_on_c, 0, 78, 0
2, 66840, Note_on_c, 0, 76, 100
2, 66960, Note_on_c, 0, 76, 0
2, 66960, Note_on_c, 0, 78, 100
2, 67200, Note_on_c, 0, 78, 0
2, 67200, Note_on_c, 0, 79, 100
2, 67320, Note_on_c, 0, 79, 0
2, 67320, Note_on_c, 0, 78, 100
2, 67440, Note_on_c, 0, 78, 0
2, 67440, Note_on_c, 0, 76, 100
2, 67560, Note_on_c, 0, 76, 0
2, 67560, Note_on_c, 0, 74, 100
2, 67680, Note_on_c, 0, 74, 0
2, 67680, Note_on_c, 0, 76, 100
2, 67920, Note_on_c, 0, 76, 0
2, 67920, Note_on_c, 0, 78, 100
2, 68040, Note_on_c, 0, 78, 0
2, 68040, Note_on_c, 0, 76, 100
2, 68160, Note_on_c, 0, 76, 0
2, 68160, Note_on_c, 0, 74, 100
2, 68280, Note_on_c, 0, 74, 0
2, 68280, Note_on_c, 0, 73, 100
2, 68400, Note_on_c, 0, 73, 0
2, 68400, Note_on_c, 0, 74, 100
2, 69120, Note_on_c, 0, 74, 0
2, 73440, Note_on_c, 0, 83, 100
2, 73560, Note_on_c, 0, 83, 0
2, 73560, Note_on_c, 0, 81, 100
2, 73680, Note_on_c, 0, 81, 0
2, 73680, Note_on_c, 0, 79, 100
2, 73800, Note_on_c, 0, 79, 0
2, 73800, Note_on_c, 0, 81, 100
2, 73920, Note_on_c, 0, 81, 0
2, 73920, Note_on_c, 0, 83, 100
2, 73980, Note_on_c, 0, 83, 0
2, 73980, Note_on_c, 0, 81, 100
2, 74040, Note_on_c, 0, 81, 0
2, 74040, Note_on_c, 0, 83, 100
2, 74100, Note_on_c, 0, 83, 0
2, 74100, Note_on_c, 0, 81, 100
2, 74160, Note_on_c, 0, 81, 0
2, 74160, Note_on_c, 0, 83, 100
2, 74220, Note_on_c, 0, 83, 0
2, 74220, Note_on_c, 0, 81, 100
2, 74280, Note_on_c, 0, 81, 0
2, 74280, Note_on_c, 0, 83, 100
2, 74340, Note_on_c, 0, 83, 0
2, 74340, Note_on_c, 0, 81, 100
2, 74400, Note_on_c, 0, 81, 0
2, 74400, Note_on_c, 0, 83, 100
2, 74460, Note_on_c, 0, 83, 0
2, 74460, Note_on_c, 0, 81, 100
2, 74520, Note_on_c, 0, 81, 0
2, 74520, Note_on_c, 0, 83, 100
2, 74580, Note_on_c, 0, 83, 0
2, 74580, Note_on_c, 0, 81, 100
2, 74640, Note_on_c, 0, 81, 0
2, 74640, Note_on_c, 0, 83, 100
2, 74700, Note_on_c, 0, 83, 0
2, 74700, Note_on_c, 0, 81, 100
2, 74760, Note_on_c, 0, 81, 0
2, 74760, Note_on_c, 0, 83, 100
2, 74820, Note_on_c, 0, 83, 0
2, 74820, Note_on_c, 0, 81, 100
2, 74880, Note_on_c, 0, 81, 0
2, 74880, Note_on_c, 0, 83, 100
2, 74940, Note_on_c, 0, 83, 0
2, 74940, Note_on_c, 0, 81, 100
2, 75000, Note_on_c, 0, 81, 0
2, 75000, Note_on_c, 0, 83, 100
2, 75060, Note_on_c, 0, 83, 0
2, 75060, Note_on_c, 0, 81, 100
2, 75120, Note_on_c, 0, 81, 0
2, 75120, Note_on_c, 0, 83, 100
2, 75180, Note_on_c, 0, 83, 0
2, 75180, Note_on_c, 0, 81, 100
2, 75240, Note_on_c, 0, 81, 0
2, 75240, Note_on_c, 0, 83, 100
2, 75300, Note_on_c, 0, 83, 0
2, 75300, Note_on_c, 0, 81, 100
2, 75360, Note_on_c, 0, 81, 0
2, 75360, Note_on_c, 0, 83, 100
2, 75420, Note_on_c, 0, 83, 0
2, 75420, Note_on_c, 0, 81, 100
2, 75480, Note_on_c, 0, 81, 0
2, 75480, Note_on_c, 0, 83, 100
2, 75540, Note_on_c, 0, 83, 0
2, 75540, Note_on_c, 0, 81, 100
2, 75600, Note_on_c, 0, 81, 0
2, 75600, Note_on_c, 0, 83, 100
2, 75720, Note_on_c, 0, 83, 0
2, 75720, Note_on_c, 0, 81, 100
2, 75840, Note_on_c, 0, 81, 0
2, 75840, Note_on_c, 0, 79, 100
2, 76080, Note_on_c, 0, 79, 0
2, 76080, Note_on_c, 0, 78, 100
2, 76320, Note_on_c, 0, 78, 0
2, 76320, Note_on_c, 0, 79, 100
2, 76560, Note_on_c, 0, 79, 0
2, 76560, Note_on_c, 0, 83, 100
2, 76800, Note_on_c, 0, 83, 0
2, 76800, Note_on_c, 0, 81, 100
2, 77040, Note_on_c, 0, 81, 0
2, 77040, Note_on_c, 0, 83, 100
2, 77520, Note_on_c, 0, 83, 0
2, 77520, Note_on_c, 0, 75, 100
2, 77760, Note_on_c, 0, 75, 0
2, 77760, Note_on_c, 0, 76, 100
2, 78000, Note_on_c, 0, 76, 0
2, 78000, Note_on_c, 0, 79, 100
2, 78120, Note_on_c, 0, 79, 0
2, 78120, Note_on_c, 0, 78, 100
2, 78240, Note_on_c, 0, 78, 0
2, 78240, Note_on_c, 0, 76, 100
2, 78360, Note_on_c, 0, 76, 0
2, 78360, Note_on_c, 0, 74, 100
2, 78480, Note_on_c, 0, 74, 0
2, 78480, Note_on_c, 0, 72, 100
2, 78720, Note_on_c, 0, 72, 0
2, 78720, Note_on_c, 0, 76, 100
2, 78840, Note_on_c, 0, 76, 0
2, 78840, Note_on_c, 0, 74, 100
2, 78960, Note_on_c, 0, 74, 0
2, 78960, Note_on_c, 0, 72, 100
2, 79080, Note_on_c, 0, 72, 0
2, 79080, Note_on_c, 0, 71, 100
2, 79200, Note_on_c, 0, 71, 0
2, 79200, Note_on_c, 0, 69, 100
2, 79440, Note_on_c, 0, 69, 0
2, 79440, Note_on_c, 0, 72, 100
2, 79560, Note_on_c, 0, 72, 0
2, 79560, Note_on_c, 0, 71, 100
2, 79680, Note_on_c, 0, 71, 0
2, 79680, Note_on_c, 0, 69, 100
2, 79800, Note_on_c, 0, 69, 0
2, 79800, Note_on_c, 0, 67, 100
2, 79920, Note_on_c, 0, 67, 0
2, 79920, Note_on_c, 0, 66, 100
2, 80400, Note_on_c, 0, 66, 0
2, 80400, Note_on_c, 0, 76, 100
2, 80640, Note_on_c, 0, 76, 0
2, 80640, Note_on_c, 0, 75, 100
2, 80880, Note_on_c, 0, 75, 0
2, 80880, Note_on_c, 0, 78, 100
2, 80940, Note_on_c, 0, 78, 0
2, 80940, Note_on_c, 0, 76, 100
2, 81000, Note_on_c, 0, 76, 0
2, 81000, Note_on_c, 0, 75, 100
2, 81060, Note_on_c, 0, 75, 0
2, 81060, Note_on_c, 0, 76, 100
2, 81120, Note_on_c, 0, 76, 0
2, 81120, Note_on_c, 0, 78, 100
2, 81360, Note_on_c, 0, 78, 0
2, 81360, Note_on_c, 0, 71, 100
2, 82320, Note_on_c, 0, 71, 0
2, 82320, Note_on_c, 0, 75, 100
2, 82560, Note_on_c, 0, 75, 0
2, 82560, Note_on_c, 0, 76, 100
2, 82920, Note_on_c, 0, 76, 0
2, 82920, Note_on_c, 0, 74, 100
2, 83040, Note_on_c, 0, 74, 0
2, 83040, Note_on_c, 0, 72, 100
2, 83160, Note_on_c, 0, 72, 0
2, 83160, Note_on_c, 0, 71, 100
2, 83280, Note_on_c, 0, 71, 0
2, 83280, Note_on_c, 0, 72, 100
2, 83640, Note_on_c, 0, 72, 0
2, 83640, Note_on_c, 0, 71, 100
2, 83760, Note_on_c, 0, 71, 0
2, 83760, Note_on_c, 0, 69, 100
2, 83880, Note_on_c, 0, 69, 0
2, 83880, Note_on_c, 0, 67, 100
2, 84000, Note_on_c, 0, 67, 0
2, 84000, Note_on_c, 0, 69, 100
2, 84480, Note_on_c, 0, 69, 0
2, 84480, Note_on_c, 0, 66, 100
2, 84720, Note_on_c, 0, 66, 0
2, 84720, Note_on_c, 0, 67, 100
2, 84960, Note_on_c, 0, 67, 0
2, 84960, Note_on_c, 0, 71, 100
2, 85020, Note_on_c, 0, 71, 0
2, 85020, Note_on_c, 0, 69, 100
2, 85080, Note_on_c, 0, 69, 0
2, 85080, Note_on_c, 0, 71, 100
2, 85920, Note_on_c, 0, 71, 0
2, 85920, Note_on_c, 0, 72, 100
2, 86160, Note_on_c, 0, 72, 0
2, 86160, Note_on_c, 0, 74, 100
2, 86400, Note_on_c, 0, 74, 0
2, 86400, Note_on_c, 0, 76, 100
2, 86640, Note_on_c, 0, 76, 0
2, 86640, Note_on_c, 0, 68, 100
2, 86880, Note_on_c, 0, 68, 0
2, 86880, Note_on_c, 0, 71, 100
2, 87120, Note_on_c, 0, 71, 0
2, 87120, Note_on_c, 0, 69, 100
2, 88080, Note_on_c, 0, 69, 0
2, 88080, Note_on_c, 0, 71, 100
2, 88320, Note_on_c, 0, 71, 0
2, 88320, Note_on_c, 0, 72, 100
2, 88560, Note_on_c, 0, 72, 0
2, 88560, Note_on_c, 0, 74, 100
2, 88800, Note_on_c, 0, 74, 0
2, 88800, Note_on_c, 0, 66, 100
2, 89040, Note_on_c, 0, 66, 0
2, 89040, Note_on_c, 0, 69, 100
2, 89280, Note_on_c, 0, 69, 0
2, 89280, Note_on_c, 0, 62, 100
2, 89760, Note_on_c, 0, 62, 0
2, 89760, Note_on_c, 0, 66, 100
2, 90000, Note_on_c, 0, 66, 0
2, 90000, Note_on_c, 0, 71, 100
2, 91200, Note_on_c, 0, 71, 0
2, 91200, Note_on_c, 0, 63, 100
2, 91440, Note_on_c, 0, 63, 0
2, 91440, Note_on_c, 0, 64, 100
2, 91680, Note_on_c, 0, 64, 0
2, 91680, Note_on_c, 0, 66, 100
2, 91920, Note_on_c, 0, 66, 0
2, 91920, Note_on_c, 0, 67, 100
2, 92160, Note_on_c, 0, 67, 0
2, 92160, Note_on_c, 0, 66, 100
2, 92400, Note_on_c, 0, 66, 0
2, 92400, Note_on_c, 0, 67, 100
2, 92640, Note_on_c, 0, 67, 0
2, 92640, Note_on_c, 0, 69, 100
2, 92880, Note_on_c, 0, 69, 0
2, 92880, Note_on_c, 0, 62, 100
2, 93600, Note_on_c, 0, 62, 0
2, 93600, Note_on_c, 0, 62, 100
2, 94320, Note_on_c, 0, 62, 0
2, 94320, Note_on_c, 0, 62, 100
2, 95280, Note_on_c, 0, 62, 0
2, 95280, Note_on_c, 0, 67, 100
2, 95520, Note_on_c, 0, 67, 0
2, 95520, Note_on_c, 0, 66, 100
2, 95760, Note_on_c, 0, 66, 0
2, 95760, Note_on_c, 0, 67, 100
2, 96000, Note_on_c, 0, 67, 0
2, 96000, Note_on_c, 0, 69, 100
2, 96240, Note_on_c, 0, 69, 0
2, 96240, Note_on_c, 0, 71, 100
2, 96480, Note_on_c, 0, 71, 0
2, 96480, Note_on_c, 0, 72, 100
2, 96720, Note_on_c, 0, 72, 0
2, 96720, Note_on_c, 0, 74, 100
2, 96840, Note_on_c, 0, 74, 0
2, 96840, Note_on_c, 0, 72, 100
2, 96960, Note_on_c, 0, 72, 0
2, 96960, Note_on_c, 0, 71, 100
2, 97080, Note_on_c, 0, 71, 0
2, 97080, Note_on_c, 0, 69, 100
2, 97200, Note_on_c, 0, 69, 0
2, 97200, Note_on_c, 0, 71, 100
2, 97440, Note_on_c, 0, 71, 0
2, 97440, Note_on_c, 0, 72, 100
2, 97560, Note_on_c, 0, 72, 0
2, 97560, Note_on_c, 0, 71, 100
2, 97680, Note_on_c, 0, 71, 0
2, 97680, Note_on_c, 0, 69, 100
2, 97800, Note_on_c, 0, 69, 0
2, 97800, Note_on_c, 0, 67, 100
2, 97920, Note_on_c, 0, 67, 0
2, 97920, Note_on_c, 0, 69, 100
2, 98160, Note_on_c, 0, 69, 0
2, 98160, Note_on_c, 0, 71, 100
2, 98280, Note_on_c, 0, 71, 0
2, 98280, Note_on_c, 0, 69, 100
2, 98400, Note_on_c, 0, 69, 0
2, 98400, Note_on_c, 0, 67, 100
2, 98520, Note_on_c, 0, 67, 0
2, 98520, Note_on_c, 0, 66, 100
2, 98640, Note_on_c, 0, 66, 0
2, 98640, Note_on_c, 0, 67, 100
2, 98880, Note_on_c, 0, 67, 0
2, 98880, Note_on_c, 0, 71, 100
2, 99000, Note_on_c, 0, 71, 0
2, 99000, Note_on_c, 0, 69, 100
2, 99120, Note_on_c, 0, 69, 0
2, 99120, Note_on_c, 0, 67, 100
2, 99240, Note_on_c, 0, 67, 0
2, 99240, Note_on_c, 0, 66, 100
2, 99360, Note_on_c, 0, 66, 0
2, 99360, Note_on_c, 0, 67, 100
2, 99600, Note_on_c, 0, 67, 0
2, 100080, Note_on_c, 0, 62, 100
2, 100320, Note_on_c, 0, 62, 0
2, 100800, Note_on_c, 0, 66, 100
2, 101040, Note_on_c, 0, 66, 0
2, 101520, Note_on_c, 0, 67, 100
2, 101760, Note_on_c, 0, 67, 0
2, 102240, Note_on_c, 0, 60, 100
2, 102480, Note_on_c, 0, 60, 0
2, 102960, Note_on_c, 0, 59, 100
2, 103680, Note_on_c, 0, 59, 0
2, 108000, Note_on_c, 0, 83, 100
2, 108120, Note_on_c, 0, 83, 0
2, 108120, Note_on_c, 0, 81, 100
2, 108240, Note_on_c, 0, 81, 0
2, 108240, Note_on_c, 0, 79, 100
2, 108360, Note_on_c, 0, 79, 0
2, 108360, Note_on_c, 0, 81, 100
2, 108480, Note_on_c, 0, 81, 0
2, 108480, Note_on_c, 0, 83, 100
2, 108540, Note_on_c, 0, 83, 0
2, 108540, Note_on_c, 0, 81, 100
2, 108600, Note_on_c, 0, 81, 0
2, 108600, Note_on_c, 0, 83, 100
2, 108660, Note_on_c, 0, 83, 0
2, 108660, Note_on_c, 0, 81, 100
2, 108720, Note_on_c, 0, 81, 0
2, 108720, Note_on_c, 0, 83, 100
2, 108780, Note_on_c, 0, 83, 0
2, 108780, Note_on_c, 0, 81, 100
2, 108840, Note_on_c, 0, 81, 0
2, 108840, Note_on_c, 0, 83, 100
2, 108900, Note_on_c, 0, 83, 0
2, 108900, Note_on_c, 0, 81, 100
2, 108960, Note_on_c, 0, 81, 0
2, 108960, Note_on_c, 0, 83, 100
2, 109020, Note_on_c, 0, 83, 0
2, 109020, Note_on_c, 0, 81, 100
2, 109080, Note_on_c, 0, 81, 0
2, 109080, Note_on_c, 0, 83, 100
2, 109140, Note_on_c, 0, 83, 0
2, 109140, Note_on_c, 0, 81, 100
2, 109200, Note_on_c, 0, 81, 0
2, 109200, Note_on_c, 0, 83, 100
2, 109260, Note_on_c, 0, 83, 0
2, 109260, Note_on_c, 0, 81, 100
2, 109320, Note_on_c, 0, 81, 0
2, 109320, Note_on_c, 0, 83, 100
2, 109380, Note_on_c, 0, 83, 0
2, 109380, Note_on_c, 0, 81, 100
2, 109440, Note_on_c, 0, 81, 0
2, 109440, Note_on_c, 0, 83, 100
2, 109500, Note_on_c, 0, 83, 0
2, 109500, Note_on_c, 0, 81, 100
2, 109560, Note_on_c, 0, 81, 0
2, 109560, Note_on_c, 0, 83, 100
2, 109620, Note_on_c, 0, 83, 0
2, 109620, Note_on_c, 0, 81, 100
2, 109680, Note_on_c, 0, 81, 0
2, 109680, Note_on_c, 0, 83, 100
2, 109740, Note_on_c, 0, 83, 0
2, 109740, Note_on_c, 0, 81, 100
2, 109800, Note_on_c, 0, 81, 0
2, 109800, Note_on_c, 0, 83, 100
2, 109860, Note_on_c, 0, 83, 0
2, 109860, Note_on_c, 0, 81, 100
2, 109920, Note_on_c, 0, 81, 0
2, 109920, Note_on_c, 0, 83, 100
2, 109980, Note_on_c, 0, 83, 0
2, 109980, Note_on_c, 0, 81, 100
2, 110040, Note_on_c, 0, 81, 0
2, 110040, Note_on_c, 0, 83, 100
2, 110100, Note_on_c, 0, 83, 0
2, 110100, Note_on_c, 0, 81, 100
2, 110160, Note_on_c, 0, 81, 0
2, 110160, Note_on_c, 0, 83, 100
2, 110280, Note_on_c, 0, 83, 0
2, 110280, Note_on_c, 0, 81, 100
2, 110400, Note_on_c, 0, 81, 0
2, 110400, Note_on_c, 0, 79, 100
2, 110640, Note_on_c, 0, 79, 0
2, 110640, Note_on_c, 0, 78, 100
2, 110880, Note_on_c, 0, 78, 0
2, 110880, Note_on_c, 0, 79, 100
2, 111120, Note_on_c, 0, 79, 0
2, 111120, Note_on_c, 0, 83, 100
2, 111360, Note_on_c, 0, 83, 0
2, 111360, Note_on_c, 0, 81, 100
2, 111600, Note_on_c, 0, 81, 0
2, 111600, Note_on_c, 0, 83, 100
2, 112080, Note_on_c, 0, 83, 0
2, 112080, Note_on_c, 0, 75, 100
2, 112320, Note_on_c, 0, 75, 0
2, 112320, Note_on_c, 0, 76, 100
2, 112560, Note_on_c, 0, 76, 0
2, 112560, Note_on_c, 0, 79, 100
2, 112680, Note_on_c, 0, 79, 0
2, 112680, Note_on_c, 0, 78, 100
2, 112800, Note_on_c, 0, 78, 0
2, 112800, Note_on_c, 0, 76, 100
2, 112920, Note_on_c, 0, 76, 0
2, 112920, Note_on_c, 0, 74, 100
2, 113040, Note_on_c, 0, 74, 0
2, 113040, Note_on_c, 0, 72, 100
2, 113280, Note_on_c, 0, 72, 0
2, 113280, Note_on_c, 0, 76, 100
2, 113400, Note_on_c, 0, 76, 0
2, 113400, Note_on_c, 0, 74, 100
2, 113520, Note_on_c, 0, 74, 0
2, 113520, Note_on_c, 0, 72, 100
2, 113640, Note_on_c, 0, 72, 0
2, 113640, Note_on_c, 0, 71, 100
2, 113760, Note_on_c, 0, 71, 0
2, 113760, Note_on_c, 0, 69, 100
2, 114000, Note_on_c, 0, 69, 0
2, 114000, Note_on_c, 0, 72, 100
2, 114120, Note_on_c, 0, 72, 0
2, 114120, Note_on_c, 0, 71, 100
2, 114240, Note_on_c, 0, 71, 0
2, 114240, Note_on_c, 0, 69, 100
2, 114360, Note_on_c, 0, 69, 0
2, 114360, Note_on_c, 0, 67, 100
2, 114480, Note_on_c, 0, 67, 0
2, 114480, Note_on_c, 0, 66, 100
2, 114960, Note_on_c, 0, 66, 0
2, 114960, Note_on_c, 0, 76, 100
2, 115200, Note_on_c, 0, 76, 0
2, 115200, Note_on_c, 0, 75, 100
2, 115440, Note_on_c, 0, 75, 0
2, 115440, Note_on_c, 0, 78, 100
2, 115500, Note_on_c, 0, 78, 0
2, 115500, Note_on_c, 0, 76, 100
2, 115560, Note_on_c, 0, 76, 0
2, 115560, Note_on_c, 0, 75, 100
2, 115620, Note_on_c, 0, 75, 0
2, 115620, Note_on_c, 0, 76, 100
2, 115680, Note_on_c, 0, 76, 0
2, 115680, Note_on_c, 0, 78, 100
2, 115920, Note_on_c, 0, 78, 0
2, 115920, Note_on_c, 0, 71, 100
2, 116880, Note_on_c, 0, 71, 0
2, 116880, Note_on_c, 0, 75, 100
2, 117120, Note_on_c, 0, 75, 0
2, 117120, Note_on_c, 0, 76, 100
2, 117480, Note_on_c, 0, 76, 0
2, 117480, Note_on_c, 0, 74, 100
2, 117600, Note_on_c, 0, 74, 0
2, 117600, Note_on_c, 0, 72, 100
2, 117720, Note_on_c, 0, 72, 0
2, 117720, Note_on_c, 0, 71, 100
2, 117840, Note_on_c, 0, 71, 0
2, 117840, Note_on_c, 0, 72, 100
2, 118200, Note_on_c, 0, 72, 0
2, 118200, Note_on_c, 0, 71, 100
2, 118320, Note_on_c, 0, 71, 0
2, 118320, Note_on_c, 0, 69, 100
2, 118440, Note_on_c, 0, 69, 0
2, 118440, Note_on_c, 0, 67, 100
2, 118560, Note_on_c, 0, 67, 0
2, 118560, Note_on_c, 0, 69, 100
2, 119040, Note_on_c, 0, 69, 0
2, 119040, Note_on_c, 0, 66, 100
2, 119280, Note_on_c, 0, 66, 0
2, 119280, Note_on_c, 0, 67, 100
2, 119520, Note_on_c, 0, 67, 0
2, 119520, Note_on_c, 0, 71, 100
2, 119580, Note_on_c, 0, 71, 0
2, 119580, Note_on_c, 0, 69, 100
2, 119640, Note_on_c, 0, 69, 0
2, 119640, Note_on_c, 0, 71, 100
2, 120480, Note_on_c, 0, 71, 0
2, 120480, Note_on_c, 0, 72, 100
2, 120720, Note_on_c, 0, 72, 0
2, 120720, Note_on_c, 0, 74, 100
2, 120960, Note_on_c, 0, 74, 0
2, 120960, Note_on_c, 0, 76, 100
2, 121200, Note_on_c, 0, 76, 0
2, 121200, Note_on_c, 0, 68, 100
2, 121440, Note_on_c, 0, 68, 0
2, 121440, Note_on_c, 0, 71, 100
2, 121680, Note_on_c, 0, 71, 0
2, 121680, Note_on_c, 0, 69, 100
2, 122640, Note_on_c, 0, 69, 0
2, 122640, Note_on_c, 0, 71, 100
2, 122880, Note_on_c, 0, 71, 0
2, 122880, Note_on_c, 0, 72, 100
2, 123120, Note_on_c, 0, 72, 0
2, 123120, Note_on_c, 0, 74, 100
2, 123360, Note_on_c, 0, 74, 0
2, 123360, Note_on_c, 0, 66, 100
2, 123600, Note_on_c, 0, 66, 0
2, 123600, Note_on_c, 0, 69, 100
2, 123840, Note_on_c, 0, 69, 0
2, 123840, Note_on_c, 0, 62, 100
2, 124320, Note_on_c, 0, 62, 0
2, 124320, Note_on_c, 0, 66, 100
2, 124560, Note_on_c, 0, 66, 0
2, 124560, Note_on_c, 0, 71, 100
2, 125760, Note_on_c, 0, 71, 0
2, 125760, Note_on_c, 0, 63, 100
2, 126000, Note_on_c, 0, 63, 0
2, 126000, Note_on_c, 0, 64, 100
2, 126240, Note_on_c, 0, 64, 0
2, 126240, Note_on_c, 0, 66, 100
2, 126480, Note_on_c, 0, 66, 0
2, 126480, Note_on_c, 0, 67, 100
2, 126720, Note_on_c, 0, 67, 0
2, 126720, Note_on_c, 0, 66, 100
2, 126960, Note_on_c, 0, 66, 0
2, 126960, Note_on_c, 0, 67, 100
2, 127200, Note_on_c, 0, 67, 0
2, 127200, Note_on_c, 0, 69, 100
2, 127440, Note_on_c, 0, 69, 0
2, 127440, Note_on_c, 0, 62, 100
2, 128160, Note_on_c, 0, 62, 0
2, 128160, Note_on_c, 0, 62, 100
2, 128880, Note_on_c, 0, 62, 0
2, 128880, Note_on_c, 0, 62, 100
2, 129840, Note_on_c, 0, 62, 0
2, 129840, Note_on_c, 0, 67, 100
2, 130080, Note_on_c, 0, 67, 0
2, 130080, Note_on_c, 0, 66, 100
2, 130320, Note_on_c, 0, 66, 0
2, 130320, Note_on_c, 0, 67, 100
2, 130560, Note_on_c, 0, 67, 0
2, 130560, Note_on_c, 0, 69, 100
2, 130800, Note_on_c, 0, 69, 0
2, 130800, Note_on_c, 0, 71, 100
2, 131040, Note_on_c, 0, 71, 0
2, 131040, Note_on_c, 0, 72, 100
2, 131280, Note_on_c, 0, 72, 0
2, 131280, Note_on_c, 0, 74, 100
2, 131400, Note_on_c, 0, 74, 0
2, 131400, Note_on_c, 0, 72, 100
2, 131520, Note_on_c, 0, 72, 0
2, 131520, Note_on_c, 0, 71, 100
2, 131640, Note_on_c, 0, 71, 0
2, 131640, Note_on_c, 0, 69, 100
2, 131760, Note_on_c, 0, 69, 0
2, 131760, Note_on_c, 0, 71, 100
2, 132000, Note_on_c, 0, 71, 0
2, 132000, Note_on_c, 0, 72, 100
2, 132120, Note_on_c, 0, 72, 0
2, 132120, Note_on_c, 0, 71, 100
2, 132240, Note_on_c, 0, 71, 0
2, 132240, Note_on_c, 0, 69, 100
2, 132360, Note_on_c, 0, 69, 0
2, 132360, Note_on_c, 0, 67, 100
2, 132480, Note_on_c, 0, 67, 0
2, 132480, Note_on_c, 0, 69, 100
2, 132720, Note_on_c, 0, 69, 0
2, 132720, Note_on_c, 0, 71, 100
2, 132840, Note_on_c, 0, 71, 0
2, 132840, Note_on_c, 0, 69, 100
2, 132960, Note_on_c, 0, 69, 0
2, 132960, Note_on_c, 0, 67, 100
2, 133080, Note_on_c, 0, 67, 0
2, 133080, Note_on_c, 0, 66, 100
2, 133200, Note_on_c, 0, 66, 0
2, 133200, Note_on_c, 0, 67, 100
2, 133440, Note_on_c, 0, 67, 0
2, 133440, Note_on_c, 0, 71, 100
2, 133560, Note_on_c, 0, 71, 0
2, 133560, Note_on_c, 0, 69, 100
2, 133680, Note_on_c, 0, 69, 0
2, 133680, Note_on_c, 0, 67, 100
2, 133800, Note_on_c, 0, 67, 0
2, 133800, Note_on_c, 0, 66, 100
2, 133920, Note_on_c, 0, 66, 0
2, 133920, Note_on_c, 0, 67, 100
2, 134160, Note_on_c, 0, 67, 0
2, 134640, Note_on_c, 0, 62, 100
2, 134880, Note_on_c, 0, 62, 0
2, 135360, Note_on_c, 0, 66, 100
2, 135600, Note_on_c, 0, 66, 0
2, 136080, Note_on_c, 0, 67, 100
2, 136320, Note_on_c, 0, 67, 0
2, 136800, Note_on_c, 0, 60, 100
2, 137040, Note_on_c, 0, 60, 0
2, 137520, Note_on_c, 0, 59, 100
2, 138240, Note_on_c, 0, 59, 0
2, 138240, End_track
3, 0, Start_track
3, 0, MIDI_port, 0
3, 0, Title_t, "--------------------------------------"
3, 0, Program_c, 1, 6
3, 0, Control_c, 1, 7, 100
3, 0, Control_c, 1, 10, 64
3, 4320, Note_on_c, 1, 55, 100
3, 4800, Note_on_c, 1, 55, 0
3, 4800, Note_on_c, 1, 54, 100
3, 5040, Note_on_c, 1, 54, 0
3, 5040, Note_on_c, 1, 55, 100
3, 5520, Note_on_c, 1, 55, 0
3, 5520, Note_on_c, 1, 57, 100
3, 5760, Note_on_c, 1, 57, 0
3, 5760, Note_on_c, 1, 59, 100
3, 6000, Note_on_c, 1, 59, 0
3, 6000, Note_on_c, 1, 62, 100
3, 6240, Note_on_c, 1, 62, 0
3, 6240, Note_on_c, 1, 61, 100
3, 6480, Note_on_c, 1, 61, 0
3, 6480, Note_on_c, 1, 62, 100
3, 6960, Note_on_c, 1, 62, 0
3, 6960, Note_on_c, 1, 57, 100
3, 7200, Note_on_c, 1, 57, 0
3, 7200, Note_on_c, 1, 62, 100
3, 7680, Note_on_c, 1, 62, 0
3, 7680, Note_on_c, 1, 64, 100
3, 7920, Note_on_c, 1, 64, 0
3, 7920, Note_on_c, 1, 64, 100
3, 7950, Note_on_c, 1, 64, 0
3, 7950, Note_on_c, 1, 66, 100
3, 8040, Note_on_c, 1, 66, 0
3, 8040, Note_on_c, 1, 67, 100
3, 8160, Note_on_c, 1, 67, 0
3, 8160, Note_on_c, 1, 66, 100
3, 8280, Note_on_c, 1, 66, 0
3, 8280, Note_on_c, 1, 64, 100
3, 8400, Note_on_c, 1, 64, 0
3, 8400, Note_on_c, 1, 62, 100
3, 8640, Note_on_c, 1, 62, 0
3, 8640, Note_on_c, 1, 67, 100
3, 8880, Note_on_c, 1, 67, 0
3, 8880, Note_on_c, 1, 71, 100
3, 9120, Note_on_c, 1, 71, 0
3, 9120, Note_on_c, 1, 69, 100
3, 9360, Note_on_c, 1, 69, 0
3, 9360, Note_on_c, 1, 71, 100
3, 9600, Note_on_c, 1, 71, 0
3, 9600, Note_on_c, 1, 67, 100
3, 9840, Note_on_c, 1, 67, 0
3, 9840, Note_on_c, 1, 66, 100
3, 10080, Note_on_c, 1, 66, 0
3, 10080, Note_on_c, 1, 67, 100
3, 11040, Note_on_c, 1, 67, 0
3, 11040, Note_on_c, 1, 66, 100
3, 11280, Note_on_c, 1, 66, 0
3, 11280, Note_on_c, 1, 64, 100
3, 11520, Note_on_c, 1, 64, 0
3, 11520, Note_on_c, 1, 66, 100
3, 11760, Note_on_c, 1, 66, 0
3, 11760, Note_on_c, 1, 67, 100
3, 12000, Note_on_c, 1, 67, 0
3, 12000, Note_on_c, 1, 69, 100
3, 12240, Note_on_c, 1, 69, 0
3, 12240, Note_on_c, 1, 62, 100
3, 13200, Note_on_c, 1, 62, 0
3, 13200, Note_on_c, 1, 67, 100
3, 13440, Note_on_c, 1, 67, 0
3, 13440, Note_on_c, 1, 66, 100
3, 13680, Note_on_c, 1, 66, 0
3, 13680, Note_on_c, 1, 67, 100
3, 13920, Note_on_c, 1, 67, 0
3, 13920, Note_on_c, 1, 71, 100
3, 14160, Note_on_c, 1, 71, 0
3, 14160, Note_on_c, 1, 69, 100
3, 14400, Note_on_c, 1, 69, 0
3, 14400, Note_on_c, 1, 71, 100
3, 14640, Note_on_c, 1, 71, 0
3, 14640, Note_on_c, 1, 74, 100
3, 14760, Note_on_c, 1, 74, 0
3, 14760, Note_on_c, 1, 72, 100
3, 14880, Note_on_c, 1, 72, 0
3, 14880, Note_on_c, 1, 71, 100
3, 15000, Note_on_c, 1, 71, 0
3, 15000, Note_on_c, 1, 69, 100
3, 15120, Note_on_c, 1, 69, 0
3, 15120, Note_on_c, 1, 71, 100
3, 15360, Note_on_c, 1, 71, 0
3, 15360, Note_on_c, 1, 72, 100
3, 15480, Note_on_c, 1, 72, 0
3, 15480, Note_on_c, 1, 71, 100
3, 15600, Note_on_c, 1, 71, 0
3, 15600, Note_on_c, 1, 69, 100
3, 15720, Note_on_c, 1, 69, 0
3, 15720, Note_on_c, 1, 67, 100
3, 15840, Note_on_c, 1, 67, 0
3, 15840, Note_on_c, 1, 69, 100
3, 16080, Note_on_c, 1, 69, 0
3, 16080, Note_on_c, 1, 71, 100
3, 16200, Note_on_c, 1, 71, 0
3, 16200, Note_on_c, 1, 69, 100
3, 16320, Note_on_c, 1, 69, 0
3, 16320, Note_on_c, 1, 67, 100
3, 16440, Note_on_c, 1, 67, 0
3, 16440, Note_on_c, 1, 66, 100
3, 16560, Note_on_c, 1, 66, 0
3, 16560, Note_on_c, 1, 67, 100
3, 16800, Note_on_c, 1, 67, 0
3, 16800, Note_on_c, 1, 69, 100
3, 16920, Note_on_c, 1, 69, 0
3, 16920, Note_on_c, 1, 67, 100
3, 17040, Note_on_c, 1, 67, 0
3, 17040, Note_on_c, 1, 66, 100
3, 17160, Note_on_c, 1, 66, 0
3, 17160, Note_on_c, 1, 64, 100
3, 17280, Note_on_c, 1, 64, 0
3, 17280, Note_on_c, 1, 62, 100
3, 17520, Note_on_c, 1, 62, 0
3, 17520, Note_on_c, 1, 71, 100
3, 17760, Note_on_c, 1, 71, 0
3, 17760, Note_on_c, 1, 69, 100
3, 18000, Note_on_c, 1, 69, 0
3, 18000, Note_on_c, 1, 67, 100
3, 18240, Note_on_c, 1, 67, 0
3, 18240, Note_on_c, 1, 69, 100
3, 18480, Note_on_c, 1, 69, 0
3, 18480, Note_on_c, 1, 66, 100
3, 18720, Note_on_c, 1, 66, 0
3, 18720, Note_on_c, 1, 64, 100
3, 18840, Note_on_c, 1, 64, 0
3, 18840, Note_on_c, 1, 62, 100
3, 18960, Note_on_c, 1, 62, 0
3, 18960, Note_on_c, 1, 61, 100
3, 19200, Note_on_c, 1, 61, 0
3, 19200, Note_on_c, 1, 62, 100
3, 19440, Note_on_c, 1, 62, 0
3, 19440, Note_on_c, 1, 62, 100
3, 19560, Note_on_c, 1, 62, 0
3, 19560, Note_on_c, 1, 61, 100
3, 20400, Note_on_c, 1, 61, 0
3, 20400, Note_on_c, 1, 62, 100
3, 20640, Note_on_c, 1, 62, 0
3, 20640, Note_on_c, 1, 64, 100
3, 20880, Note_on_c, 1, 64, 0
3, 20880, Note_on_c, 1, 57, 100
3, 21120, Note_on_c, 1, 57, 0
3, 21120, Note_on_c, 1, 59, 100
3, 21360, Note_on_c, 1, 59, 0
3, 21360, Note_on_c, 1, 61, 100
3, 21600, Note_on_c, 1, 61, 0
3, 21600, Note_on_c, 1, 62, 100
3, 22080, Note_on_c, 1, 62, 0
3, 22080, Note_on_c, 1, 66, 100
3, 22320, Note_on_c, 1, 66, 0
3, 22320, Note_on_c, 1, 67, 100
3, 22800, Note_on_c, 1, 67, 0
3, 22800, Note_on_c, 1, 69, 100
3, 23040, Note_on_c, 1, 69, 0
3, 23040, Note_on_c, 1, 59, 100
3, 24000, Note_on_c, 1, 59, 0
3, 24000, Note_on_c, 1, 57, 100
3, 24240, Note_on_c, 1, 57, 0
3, 24240, Note_on_c, 1, 56, 100
3, 24480, Note_on_c, 1, 56, 0
3, 24480, Note_on_c, 1, 57, 100
3, 26160, Note_on_c, 1, 57, 0
3, 26160, Note_on_c, 1, 62, 100
3, 26400, Note_on_c, 1, 62, 0
3, 26400, Note_on_c, 1, 61, 100
3, 26640, Note_on_c, 1, 61, 0
3, 26640, Note_on_c, 1, 62, 100
3, 26760, Note_on_c, 1, 62, 0
3, 26760, Note_on_c, 1, 64, 100
3, 26880, Note_on_c, 1, 64, 0
3, 26880, Note_on_c, 1, 66, 100
3, 27120, Note_on_c, 1, 66, 0
3, 27120, Note_on_c, 1, 64, 100
3, 27360, Note_on_c, 1, 64, 0
3, 27360, Note_on_c, 1, 66, 100
3, 27600, Note_on_c, 1, 66, 0
3, 27600, Note_on_c, 1, 69, 100
3, 27720, Note_on_c, 1, 69, 0
3, 27720, Note_on_c, 1, 67, 100
3, 27840, Note_on_c, 1, 67, 0
3, 27840, Note_on_c, 1, 66, 100
3, 27960, Note_on_c, 1, 66, 0
3, 27960, Note_on_c, 1, 64, 100
3, 28080, Note_on_c, 1, 64, 0
3, 28080, Note_on_c, 1, 66, 100
3, 28320, Note_on_c, 1, 66, 0
3, 28320, Note_on_c, 1, 67, 100
3, 28440, Note_on_c, 1, 67, 0
3, 28440, Note_on_c, 1, 66, 100
3, 28560, Note_on_c, 1, 66, 0
3, 28560, Note_on_c, 1, 64, 100
3, 28680, Note_on_c, 1, 64, 0
3, 28680, Note_on_c, 1, 62, 100
3, 28800, Note_on_c, 1, 62, 0
3, 28800, Note_on_c, 1, 64, 100
3, 29040, Note_on_c, 1, 64, 0
3, 29040, Note_on_c, 1, 66, 100
3, 29160, Note_on_c, 1, 66, 0
3, 29160, Note_on_c, 1, 64, 100
3, 29280, Note_on_c, 1, 64, 0
3, 29280, Note_on_c, 1, 62, 100
3, 29400, Note_on_c, 1, 62, 0
3, 29400, Note_on_c, 1, 61, 100
3, 29520, Note_on_c, 1, 61, 0
3, 29520, Note_on_c, 1, 62, 100
3, 29760, Note_on_c, 1, 62, 0
3, 29760, Note_on_c, 1, 64, 100
3, 29880, Note_on_c, 1, 64, 0
3, 29880, Note_on_c, 1, 62, 100
3, 30000, Note_on_c, 1, 62, 0
3, 30000, Note_on_c, 1, 61, 100
3, 30120, Note_on_c, 1, 61, 0
3, 30120, Note_on_c, 1, 59, 100
3, 30240, Note_on_c, 1, 59, 0
3, 30240, Note_on_c, 1, 57, 100
3, 30480, Note_on_c, 1, 57, 0
3, 30960, Note_on_c, 1, 62, 100
3, 31200, Note_on_c, 1, 62, 0
3, 31680, Note_on_c, 1, 61, 100
3, 31920, Note_on_c, 1, 61, 0
3, 32400, Note_on_c, 1, 62, 100
3, 32640, Note_on_c, 1, 62, 0
3, 33120, Note_on_c, 1, 67, 100
3, 33360, Note_on_c, 1, 67, 0
3, 33840, Note_on_c, 1, 66, 100
3, 34560, Note_on_c, 1, 66, 0
3, 38880, Note_on_c, 1, 55, 100
3, 39360, Note_on_c, 1, 55, 0
3, 39360, Note_on_c, 1, 54, 100
3, 39600, Note_on_c, 1, 54, 0
3, 39600, Note_on_c, 1, 55, 100
3, 40080, Note_on_c, 1, 55, 0
3, 40080, Note_on_c, 1, 57, 100
3, 40320, Note_on_c, 1, 57, 0
3, 40320, Note_on_c, 1, 59, 100
3, 40560, Note_on_c, 1, 59, 0
3, 40560, Note_on_c, 1, 62, 100
3, 40800, Note_on_c, 1, 62, 0
3, 40800, Note_on_c, 1, 61, 100
3, 41040, Note_on_c, 1, 61, 0
3, 41040, Note_on_c, 1, 62, 100
3, 41520, Note_on_c, 1, 62, 0
3, 41520, Note_on_c, 1, 57, 100
3, 41760, Note_on_c, 1, 57, 0
3, 41760, Note_on_c, 1, 62, 100
3, 42240, Note_on_c, 1, 62, 0
3, 42240, Note_on_c, 1, 64, 100
3, 42480, Note_on_c, 1, 64, 0
3, 42480, Note_on_c, 1, 64, 100
3, 42510, Note_on_c, 1, 64, 0
3, 42510, Note_on_c, 1, 66, 100
3, 42600, Note_on_c, 1, 66, 0
3, 42600, Note_on_c, 1, 67, 100
3, 42720, Note_on_c, 1, 67, 0
3, 42720, Note_on_c, 1, 66, 100
3, 42840, Note_on_c, 1, 66, 0
3, 42840, Note_on_c, 1, 64, 100
3, 42960, Note_on_c, 1, 64, 0
3, 42960, Note_on_c, 1, 62, 100
3, 43200, Note_on_c, 1, 62, 0
3, 43200, Note_on_c, 1, 67, 100
3, 43440, Note_on_c, 1, 67, 0
3, 43440, Note_on_c, 1, 71, 100
3, 43680, Note_on_c, 1, 71, 0
3, 43680, Note_on_c, 1, 69, 100
3, 43920, Note_on_c, 1, 69, 0
3, 43920, Note_on_c, 1, 71, 100
3, 44160, Note_on_c, 1, 71, 0
3, 44160, Note_on_c, 1, 67, 100
3, 44400, Note_on_c, 1, 67, 0
3, 44400, Note_on_c, 1, 66, 100
3, 44640, Note_on_c, 1, 66, 0
3, 44640, Note_on_c, 1, 67, 100
3, 45600, Note_on_c, 1, 67, 0
3, 45600, Note_on_c, 1, 66, 100
3, 45840, Note_on_c, 1, 66, 0
3, 45840, Note_on_c, 1, 64, 100
3, 46080, Note_on_c, 1, 64, 0
3, 46080, Note_on_c, 1, 66, 100
3, 46320, Note_on_c, 1, 66, 0
3, 46320, Note_on_c, 1, 67, 100
3, 46560, Note_on_c, 1, 67, 0
3, 46560, Note_on_c, 1, 69, 100
3, 46800, Note_on_c, 1, 69, 0
3, 46800, Note_on_c, 1, 62, 100
3, 47760, Note_on_c, 1, 62, 0
3, 47760, Note_on_c, 1, 67, 100
3, 48000, Note_on_c, 1, 67, 0
3, 48000, Note_on_c, 1, 66, 100
3, 48240, Note_on_c, 1, 66, 0
3, 48240, Note_on_c, 1, 67, 100
3, 48480, Note_on_c, 1, 67, 0
3, 48480, Note_on_c, 1, 71, 100
3, 48720, Note_on_c, 1, 71, 0
3, 48720, Note_on_c, 1, 69, 100
3, 48960, Note_on_c, 1, 69, 0
3, 48960, Note_on_c, 1, 71, 100
3, 49200, Note_on_c, 1, 71, 0
3, 49200, Note_on_c, 1, 74, 100
3, 49320, Note_on_c, 1, 74, 0
3, 49320, Note_on_c, 1, 72, 100
3, 49440, Note_on_c, 1, 72, 0
3, 49440, Note_on_c, 1, 71, 100
3, 49560, Note_on_c, 1, 71, 0
3, 49560, Note_on_c, 1, 69, 100
3, 49680, Note_on_c, 1, 69, 0
3, 49680, Note_on_c, 1, 71, 100
3, 49920, Note_on_c, 1, 71, 0
3, 49920, Note_on_c, 1, 72, 100
3, 50040, Note_on_c, 1, 72, 0
3, 50040, Note_on_c, 1, 71, 100
3, 50160, Note_on_c, 1, 71, 0
3, 50160, Note_on_c, 1, 69, 100
3, 50280, Note_on_c, 1, 69, 0
3, 50280, Note_on_c, 1, 67, 100
3, 50400, Note_on_c, 1, 67, 0
3, 50400, Note_on_c, 1, 69, 100
3, 50640, Note_on_c, 1, 69, 0
3, 50640, Note_on_c, 1, 71, 100
3, 50760, Note_on_c, 1, 71, 0
3, 50760, Note_on_c, 1, 69, 100
3, 50880, Note_on_c, 1, 69, 0
3, 50880, Note_on_c, 1, 67, 100
3, 51000, Note_on_c, 1, 67, 0
3, 51000, Note_on_c, 1, 66, 100
3, 51120, Note_on_c, 1, 66, 0
3, 51120, Note_on_c, 1, 67, 100
3, 51360, Note_on_c, 1, 67, 0
3, 51360, Note_on_c, 1, 69, 100
3, 51480, Note_on_c, 1, 69, 0
3, 51480, Note_on_c, 1, 67, 100
3, 51600, Note_on_c, 1, 67, 0
3, 51600, Note_on_c, 1, 66, 100
3, 51720, Note_on_c, 1, 66, 0
3, 51720, Note_on_c, 1, 64, 100
3, 51840, Note_on_c, 1, 64, 0
3, 51840, Note_on_c, 1, 62, 100
3, 52080, Note_on_c, 1, 62, 0
3, 52080, Note_on_c, 1, 71, 100
3, 52320, Note_on_c, 1, 71, 0
3, 52320, Note_on_c, 1, 69, 100
3, 52560, Note_on_c, 1, 69, 0
3, 52560, Note_on_c, 1, 67, 100
3, 52800, Note_on_c, 1, 67, 0
3, 52800, Note_on_c, 1, 69, 100
3, 53040, Note_on_c, 1, 69, 0
3, 53040, Note_on_c, 1, 66, 100
3, 53280, Note_on_c, 1, 66, 0
3, 53280, Note_on_c, 1, 64, 100
3, 53400, Note_on_c, 1, 64, 0
3, 53400, Note_on_c, 1, 62, 100
3, 53520, Note_on_c, 1, 62, 0
3, 53520, Note_on_c, 1, 61, 100
3, 53760, Note_on_c, 1, 61, 0
3, 53760, Note_on_c, 1, 62, 100
3, 54000, Note_on_c, 1, 62, 0
3, 54000, Note_on_c, 1, 62, 100
3, 54120, Note_on_c, 1, 62, 0
3, 54120, Note_on_c, 1, 61, 100
3, 54960, Note_on_c, 1, 61, 0
3, 54960, Note_on_c, 1, 62, 100
3, 55200, Note_on_c, 1, 62, 0
3, 55200, Note_on_c, 1, 64, 100
3, 55440, Note_on_c, 1, 64, 0
3, 55440, Note_on_c, 1, 57, 100
3, 55680, Note_on_c, 1, 57, 0
3, 55680, Note_on_c, 1, 59, 100
3, 55920, Note_on_c, 1, 59, 0
3, 55920, Note_on_c, 1, 61, 100
3, 56160, Note_on_c, 1, 61, 0
3, 56160, Note_on_c, 1, 62, 100
3, 56640, Note_on_c, 1, 62, 0
3, 56640, Note_on_c, 1, 66, 100
3, 56880, Note_on_c, 1, 66, 0
3, 56880, Note_on_c, 1, 67, 100
3, 57360, Note_on_c, 1, 67, 0
3, 57360, Note_on_c, 1, 69, 100
3, 57600, Note_on_c, 1, 69, 0
3, 57600, Note_on_c, 1, 59, 100
3, 58560, Note_on_c, 1, 59, 0
3, 58560, Note_on_c, 1, 57, 100
3, 58800, Note_on_c, 1, 57, 0
3, 58800, Note_on_c, 1, 56, 100
3, 59040, Note_on_c, 1, 56, 0
3, 59040, Note_on_c, 1, 57, 100
3, 60720, Note_on_c, 1, 57, 0
3, 60720, Note_on_c, 1, 62, 100
3, 60960, Note_on_c, 1, 62, 0
3, 60960, Note_on_c, 1, 61, 100
3, 61200, Note_on_c, 1, 61, 0
3, 61200, Note_on_c, 1, 62, 100
3, 61320, Note_on_c, 1, 62, 0
3, 61320, Note_on_c, 1, 64, 100
3, 61440, Note_on_c, 1, 64, 0
3, 61440, Note_on_c, 1, 66, 100
3, 61680, Note_on_c, 1, 66, 0
3, 61680, Note_on_c, 1, 64, 100
3, 61920, Note_on_c, 1, 64, 0
3, 61920, Note_on_c, 1, 66, 100
3, 62160, Note_on_c, 1, 66, 0
3, 62160, Note_on_c, 1, 69, 100
3, 62280, Note_on_c, 1, 69, 0
3, 62280, Note_on_c, 1, 67, 100
3, 62400, Note_on_c, 1, 67, 0
3, 62400, Note_on_c, 1, 66, 100
3, 62520, Note_on_c, 1, 66, 0
3, 62520, Note_on_c, 1, 64, 100
3, 62640, Note_on_c, 1, 64, 0
3, 62640, Note_on_c, 1, 66, 100
3, 62880, Note_on_c, 1, 66, 0
3, 62880, Note_on_c, 1, 67, 100
3, 63000, Note_on_c, 1, 67, 0
3, 63000, Note_on_c, 1, 66, 100
3, 63120, Note_on_c, 1, 66, 0
3, 63120, Note_on_c, 1, 64, 100
3, 63240, Note_on_c, 1, 64, 0
3, 63240, Note_on_c, 1, 62, 100
3, 63360, Note_on_c, 1, 62, 0
3, 63360, Note_on_c, 1, 64, 100
3, 63600, Note_on_c, 1, 64, 0
3, 63600, Note_on_c, 1, 66, 100
3, 63720, Note_on_c, 1, 66, 0
3, 63720, Note_on_c, 1, 64, 100
3, 63840, Note_on_c, 1, 64, 0
3, 63840, Note_on_c, 1, 62, 100
3, 63960, Note_on_c, 1, 62, 0
3, 63960, Note_on_c, 1, 61, 100
3, 64080, Note_on_c, 1, 61, 0
3, 64080, Note_on_c, 1, 62, 100
3, 64320, Note_on_c, 1, 62, 0
3, 64320, Note_on_c, 1, 64, 100
3, 64440, Note_on_c, 1, 64, 0
3, 64440, Note_on_c, 1, 62, 100
3, 64560, Note_on_c, 1, 62, 0
3, 64560, Note_on_c, 1, 61, 100
3, 64680, Note_on_c, 1, 61, 0
3, 64680, Note_on_c, 1, 59, 100
3, 64800, Note_on_c, 1, 59, 0
3, 64800, Note_on_c, 1, 57, 100
3, 65040, Note_on_c, 1, 57, 0
3, 65520, Note_on_c, 1, 62, 100
3, 65760, Note_on_c, 1, 62, 0
3, 66240, Note_on_c, 1, 61, 100
3, 66480, Note_on_c, 1, 61, 0
3, 66960, Note_on_c, 1, 62, 100
3, 67200, Note_on_c, 1, 62, 0
3, 67680, Note_on_c, 1, 67, 100
3, 67920, Note_on_c, 1, 67, 0
3, 68400, Note_on_c, 1, 66, 100
3, 69120, Note_on_c, 1, 66, 0
3, 69120, Note_on_c, 1, 71, 100
3, 69240, Note_on_c, 1, 71, 0
3, 69240, Note_on_c, 1, 69, 100
3, 69360, Note_on_c, 1, 69, 0
3, 69360, Note_on_c, 1, 67, 100
3, 69480, Note_on_c, 1, 67, 0
3, 69480, Note_on_c, 1, 69, 100
3, 69600, Note_on_c, 1, 69, 0
3, 69600, Note_on_c, 1, 71, 100
3, 69660, Note_on_c, 1, 71, 0
3, 69660, Note_on_c, 1, 69, 100
3, 69720, Note_on_c, 1, 69, 0
3, 69720, Note_on_c, 1, 71, 100
3, 69780, Note_on_c, 1, 71, 0
3, 69780, Note_on_c, 1, 69, 100
3, 69840, Note_on_c, 1, 69, 0
3, 69840, Note_on_c, 1, 71, 100
3, 69900, Note_on_c, 1, 71, 0
3, 69900, Note_on_c, 1, 69, 100
3, 69960, Note_on_c, 1, 69, 0
3, 69960, Note_on_c, 1, 71, 100
3, 70020, Note_on_c, 1, 71, 0
3, 70020, Note_on_c, 1, 69, 100
3, 70080, Note_on_c, 1, 69, 0
3, 70080, Note_on_c, 1, 71, 100
3, 70140, Note_on_c, 1, 71, 0
3, 70140, Note_on_c, 1, 69, 100
3, 70200, Note_on_c, 1, 69, 0
3, 70200, Note_on_c, 1, 71, 100
3, 70260, Note_on_c, 1, 71, 0
3, 70260, Note_on_c, 1, 69, 100
3, 70320, Note_on_c, 1, 69, 0
3, 70320, Note_on_c, 1, 71, 100
3, 70380, Note_on_c, 1, 71, 0
3, 70380, Note_on_c, 1, 69, 100
3, 70440, Note_on_c, 1, 69, 0
3, 70440, Note_on_c, 1, 71, 100
3, 70500, Note_on_c, 1, 71, 0
3, 70500, Note_on_c, 1, 69, 100
3, 70560, Note_on_c, 1, 69, 0
3, 70560, Note_on_c, 1, 71, 100
3, 70620, Note_on_c, 1, 71, 0
3, 70620, Note_on_c, 1, 69, 100
3, 70680, Note_on_c, 1, 69, 0
3, 70680, Note_on_c, 1, 71, 100
3, 70740, Note_on_c, 1, 71, 0
3, 70740, Note_on_c, 1, 69, 100
3, 70800, Note_on_c, 1, 69, 0
3, 70800, Note_on_c, 1, 71, 100
3, 70860, Note_on_c, 1, 71, 0
3, 70860, Note_on_c, 1, 69, 100
3, 70920, Note_on_c, 1, 69, 0
3, 70920, Note_on_c, 1, 71, 100
3, 70980, Note_on_c, 1, 71, 0
3, 70980, Note_on_c, 1, 69, 100
3, 71040, Note_on_c, 1, 69, 0
3, 71040, Note_on_c, 1, 71, 100
3, 71100, Note_on_c, 1, 71, 0
3, 71100, Note_on_c, 1, 69, 100
3, 71160, Note_on_c, 1, 69, 0
3, 71160, Note_on_c, 1, 71, 100
3, 71220, Note_on_c, 1, 71, 0
3, 71220, Note_on_c, 1, 69, 100
3, 71280, Note_on_c, 1, 69, 0
3, 71280, Note_on_c, 1, 71, 100
3, 71400, Note_on_c, 1, 71, 0
3, 71400, Note_on_c, 1, 69, 100
3, 71520, Note_on_c, 1, 69, 0
3, 71520, Note_on_c, 1, 67, 100
3, 71760, Note_on_c, 1, 67, 0
3, 71760, Note_on_c, 1, 66, 100
3, 72000, Note_on_c, 1, 66, 0
3, 72000, Note_on_c, 1, 67, 100
3, 72240, Note_on_c, 1, 67, 0
3, 72240, Note_on_c, 1, 71, 100
3, 72480, Note_on_c, 1, 71, 0
3, 72480, Note_on_c, 1, 69, 100
3, 72720, Note_on_c, 1, 69, 0
3, 72720, Note_on_c, 1, 71, 100
3, 73200, Note_on_c, 1, 71, 0
3, 73200, Note_on_c, 1, 63, 100
3, 73440, Note_on_c, 1, 63, 0
3, 73440, Note_on_c, 1, 64, 100
3, 73680, Note_on_c, 1, 64, 0
3, 73680, Note_on_c, 1, 67, 100
3, 73800, Note_on_c, 1, 67, 0
3, 73800, Note_on_c, 1, 66, 100
3, 73920, Note_on_c, 1, 66, 0
3, 73920, Note_on_c, 1, 64, 100
3, 74040, Note_on_c, 1, 64, 0
3, 74040, Note_on_c, 1, 62, 100
3, 74160, Note_on_c, 1, 62, 0
3, 74160, Note_on_c, 1, 60, 100
3, 74400, Note_on_c, 1, 60, 0
3, 74400, Note_on_c, 1, 64, 100
3, 74520, Note_on_c, 1, 64, 0
3, 74520, Note_on_c, 1, 62, 100
3, 74640, Note_on_c, 1, 62, 0
3, 74640, Note_on_c, 1, 60, 100
3, 74760, Note_on_c, 1, 60, 0
3, 74760, Note_on_c, 1, 59, 100
3, 74880, Note_on_c, 1, 59, 0
3, 74880, Note_on_c, 1, 57, 100
3, 75120, Note_on_c, 1, 57, 0
3, 75120, Note_on_c, 1, 60, 100
3, 75240, Note_on_c, 1, 60, 0
3, 75240, Note_on_c, 1, 59, 100
3, 75360, Note_on_c, 1, 59, 0
3, 75360, Note_on_c, 1, 57, 100
3, 75480, Note_on_c, 1, 57, 0
3, 75480, Note_on_c, 1, 55, 100
3, 75600, Note_on_c, 1, 55, 0
3, 75600, Note_on_c, 1, 54, 100
3, 76080, Note_on_c, 1, 54, 0
3, 76080, Note_on_c, 1, 64, 100
3, 76320, Note_on_c, 1, 64, 0
3, 76320, Note_on_c, 1, 63, 100
3, 76560, Note_on_c, 1, 63, 0
3, 76560, Note_on_c, 1, 66, 100
3, 76620, Note_on_c, 1, 66, 0
3, 76620, Note_on_c, 1, 64, 100
3, 76680, Note_on_c, 1, 64, 0
3, 76680, Note_on_c, 1, 63, 100
3, 76740, Note_on_c, 1, 63, 0
3, 76740, Note_on_c, 1, 64, 100
3, 76800, Note_on_c, 1, 64, 0
3, 76800, Note_on_c, 1, 66, 100
3, 77040, Note_on_c, 1, 66, 0
3, 77040, Note_on_c, 1, 59, 100
3, 78000, Note_on_c, 1, 59, 0
3, 78000, Note_on_c, 1, 63, 100
3, 78240, Note_on_c, 1, 63, 0
3, 78240, Note_on_c, 1, 64, 100
3, 78600, Note_on_c, 1, 64, 0
3, 78600, Note_on_c, 1, 62, 100
3, 78720, Note_on_c, 1, 62, 0
3, 78720, Note_on_c, 1, 60, 100
3, 78840, Note_on_c, 1, 60, 0
3, 78840, Note_on_c, 1, 59, 100
3, 78960, Note_on_c, 1, 59, 0
3, 78960, Note_on_c, 1, 60, 100
3, 79320, Note_on_c, 1, 60, 0
3, 79320, Note_on_c, 1, 59, 100
3, 79440, Note_on_c, 1, 59, 0
3, 79440, Note_on_c, 1, 57, 100
3, 79560, Note_on_c, 1, 57, 0
3, 79560, Note_on_c, 1, 55, 100
3, 79680, Note_on_c, 1, 55, 0
3, 79680, Note_on_c, 1, 57, 100
3, 80160, Note_on_c, 1, 57, 0
3, 80160, Note_on_c, 1, 54, 100
3, 80400, Note_on_c, 1, 54, 0
3, 80400, Note_on_c, 1, 55, 100
3, 80640, Note_on_c, 1, 55, 0
3, 89280, Note_on_c, 1, 59, 100
3, 90240, Note_on_c, 1, 59, 0
3, 90240, Note_on_c, 1, 60, 100
3, 90480, Note_on_c, 1, 60, 0
3, 90480, Note_on_c, 1, 62, 100
3, 90720, Note_on_c, 1, 62, 0
3, 90720, Note_on_c, 1, 64, 100
3, 90960, Note_on_c, 1, 64, 0
3, 90960, Note_on_c, 1, 56, 100
3, 91200, Note_on_c, 1, 56, 0
3, 91200, Note_on_c, 1, 59, 100
3, 91440, Note_on_c, 1, 59, 0
3, 91440, Note_on_c, 1, 57, 100
3, 92400, Note_on_c, 1, 57, 0
3, 92400, Note_on_c, 1, 59, 100
3, 92640, Note_on_c, 1, 59, 0
3, 92640, Note_on_c, 1, 60, 100
3, 92880, Note_on_c, 1, 60, 0
3, 92880, Note_on_c, 1, 62, 100
3, 93120, Note_on_c, 1, 62, 0
3, 93120, Note_on_c, 1, 54, 100
3, 93360, Note_on_c, 1, 54, 0
3, 93360, Note_on_c, 1, 57, 100
3, 93600, Note_on_c, 1, 57, 0
3, 93600, Note_on_c, 1, 50, 100
3, 94080, Note_on_c, 1, 50, 0
3, 94080, Note_on_c, 1, 54, 100
3, 94320, Note_on_c, 1, 54, 0
3, 94320, Note_on_c, 1, 59, 100
3, 95520, Note_on_c, 1, 59, 0
3, 95520, Note_on_c, 1, 51, 100
3, 95760, Note_on_c, 1, 51, 0
3, 95760, Note_on_c, 1, 52, 100
3, 96000, Note_on_c, 1, 52, 0
3, 96000, Note_on_c, 1, 54, 100
3, 96240, Note_on_c, 1, 54, 0
3, 96240, Note_on_c, 1, 55, 100
3, 96480, Note_on_c, 1, 55, 0
3, 96480, Note_on_c, 1, 54, 100
3, 96720, Note_on_c, 1, 54, 0
3, 96720, Note_on_c, 1, 55, 100
3, 96960, Note_on_c, 1, 55, 0
3, 96960, Note_on_c, 1, 57, 100
3, 97200, Note_on_c, 1, 57, 0
3, 97200, Note_on_c, 1, 50, 100
3, 97920, Note_on_c, 1, 50, 0
3, 97920, Note_on_c, 1, 50, 100
3, 98640, Note_on_c, 1, 50, 0
3, 98640, Note_on_c, 1, 50, 100
3, 99600, Note_on_c, 1, 50, 0
3, 99600, Note_on_c, 1, 55, 100
3, 99840, Note_on_c, 1, 55, 0
3, 99840, Note_on_c, 1, 54, 100
3, 100080, Note_on_c, 1, 54, 0
3, 100080, Note_on_c, 1, 55, 100
3, 100320, Note_on_c, 1, 55, 0
3, 100320, Note_on_c, 1, 57, 100
3, 100560, Note_on_c, 1, 57, 0
3, 100560, Note_on_c, 1, 59, 100
3, 100800, Note_on_c, 1, 59, 0
3, 100800, Note_on_c, 1, 60, 100
3, 101040, Note_on_c, 1, 60, 0
3, 101040, Note_on_c, 1, 62, 100
3, 101160, Note_on_c, 1, 62, 0
3, 101160, Note_on_c, 1, 60, 100
3, 101280, Note_on_c, 1, 60, 0
3, 101280, Note_on_c, 1, 59, 100
3, 101400, Note_on_c, 1, 59, 0
3, 101400, Note_on_c, 1, 57, 100
3, 101520, Note_on_c, 1, 57, 0
3, 101520, Note_on_c, 1, 59, 100
3, 101760, Note_on_c, 1, 59, 0
3, 101760, Note_on_c, 1, 60, 100
3, 101880, Note_on_c, 1, 60, 0
3, 101880, Note_on_c, 1, 59, 100
3, 102000, Note_on_c, 1, 59, 0
3, 102000, Note_on_c, 1, 57, 100
3, 102120, Note_on_c, 1, 57, 0
3, 102120, Note_on_c, 1, 55, 100
3, 102240, Note_on_c, 1, 55, 0
3, 102240, Note_on_c, 1, 57, 100
3, 102480, Note_on_c, 1, 57, 0
3, 102480, Note_on_c, 1, 59, 100
3, 102600, Note_on_c, 1, 59, 0
3, 102600, Note_on_c, 1, 57, 100
3, 102720, Note_on_c, 1, 57, 0
3, 102720, Note_on_c, 1, 55, 100
3, 102840, Note_on_c, 1, 55, 0
3, 102840, Note_on_c, 1, 54, 100
3, 102960, Note_on_c, 1, 54, 0
3, 102960, Note_on_c, 1, 55, 100
3, 103680, Note_on_c, 1, 55, 0
3, 103680, Note_on_c, 1, 71, 100
3, 103800, Note_on_c, 1, 71, 0
3, 103800, Note_on_c, 1, 69, 100
3, 103920, Note_on_c, 1, 69, 0
3, 103920, Note_on_c, 1, 67, 100
3, 104040, Note_on_c, 1, 67, 0
3, 104040, Note_on_c, 1, 69, 100
3, 104160, Note_on_c, 1, 69, 0
3, 104160, Note_on_c, 1, 71, 100
3, 104220, Note_on_c, 1, 71, 0
3, 104220, Note_on_c, 1, 69, 100
3, 104280, Note_on_c, 1, 69, 0
3, 104280, Note_on_c, 1, 71, 100
3, 104340, Note_on_c, 1, 71, 0
3, 104340, Note_on_c, 1, 69, 100
3, 104400, Note_on_c, 1, 69, 0
3, 104400, Note_on_c, 1, 71, 100
3, 104460, Note_on_c, 1, 71, 0
3, 104460, Note_on_c, 1, 69, 100
3, 104520, Note_on_c, 1, 69, 0
3, 104520, Note_on_c, 1, 71, 100
3, 104580, Note_on_c, 1, 71, 0
3, 104580, Note_on_c, 1, 69, 100
3, 104640, Note_on_c, 1, 69, 0
3, 104640, Note_on_c, 1, 71, 100
3, 104700, Note_on_c, 1, 71, 0
3, 104700, Note_on_c, 1, 69, 100
3, 104760, Note_on_c, 1, 69, 0
3, 104760, Note_on_c, 1, 71, 100
3, 104820, Note_on_c, 1, 71, 0
3, 104820, Note_on_c, 1, 69, 100
3, 104880, Note_on_c, 1, 69, 0
3, 104880, Note_on_c, 1, 71, 100
3, 104940, Note_on_c, 1, 71, 0
3, 104940, Note_on_c, 1, 69, 100
3, 105000, Note_on_c, 1, 69, 0
3, 105000, Note_on_c, 1, 71, 100
3, 105060, Note_on_c, 1, 71, 0
3, 105060, Note_on_c, 1, 69, 100
3, 105120, Note_on_c, 1, 69, 0
3, 105120, Note_on_c, 1, 71, 100
3, 105180, Note_on_c, 1, 71, 0
3, 105180, Note_on_c, 1, 69, 100
3, 105240, Note_on_c, 1, 69, 0
3, 105240, Note_on_c, 1, 71, 100
3, 105300, Note_on_c, 1, 71, 0
3, 105300, Note_on_c, 1, 69, 100
3, 105360, Note_on_c, 1, 69, 0
3, 105360, Note_on_c, 1, 71, 100
3, 105420, Note_on_c, 1, 71, 0
3, 105420, Note_on_c, 1, 69, 100
3, 105480, Note_on_c, 1, 69, 0
3, 105480, Note_on_c, 1, 71, 100
3, 105540, Note_on_c, 1, 71, 0
3, 105540, Note_on_c, 1, 69, 100
3, 105600, Note_on_c, 1, 69, 0
3, 105600, Note_on_c, 1, 71, 100
3, 105660, Note_on_c, 1, 71, 0
3, 105660, Note_on_c, 1, 69, 100
3, 105720, Note_on_c, 1, 69, 0
3, 105720, Note_on_c, 1, 71, 100
3, 105780, Note_on_c, 1, 71, 0
3, 105780, Note_on_c, 1, 69, 100
3, 105840, Note_on_c, 1, 69, 0
3, 105840, Note_on_c, 1, 71, 100
3, 105960, Note_on_c, 1, 71, 0
3, 105960, Note_on_c, 1, 69, 100
3, 106080, Note_on_c, 1, 69, 0
3, 106080, Note_on_c, 1, 67, 100
3, 106320, Note_on_c, 1, 67, 0
3, 106320, Note_on_c, 1, 66, 100
3, 106560, Note_on_c, 1, 66, 0
3, 106560, Note_on_c, 1, 67, 100
3, 106800, Note_on_c, 1, 67, 0
3, 106800, Note_on_c, 1, 71, 100
3, 107040, Note_on_c, 1, 71, 0
3, 107040, Note_on_c, 1, 69, 100
3, 107280, Note_on_c, 1, 69, 0
3, 107280, Note_on_c, 1, 71, 100
3, 107760, Note_on_c, 1, 71, 0
3, 107760, Note_on_c, 1, 63, 100
3, 108000, Note_on_c, 1, 63, 0
3, 108000, Note_on_c, 1, 64, 100
3, 108240, Note_on_c, 1, 64, 0
3, 108240, Note_on_c, 1, 67, 100
3, 108360, Note_on_c, 1, 67, 0
3, 108360, Note_on_c, 1, 66, 100
3, 108480, Note_on_c, 1, 66, 0
3, 108480, Note_on_c, 1, 64, 100
3, 108600, Note_on_c, 1, 64, 0
3, 108600, Note_on_c, 1, 62, 100
3, 108720, Note_on_c, 1, 62, 0
3, 108720, Note_on_c, 1, 60, 100
3, 108960, Note_on_c, 1, 60, 0
3, 108960, Note_on_c, 1, 64, 100
3, 109080, Note_on_c, 1, 64, 0
3, 109080, Note_on_c, 1, 62, 100
3, 109200, Note_on_c, 1, 62, 0
3, 109200, Note_on_c, 1, 60, 100
3, 109320, Note_on_c, 1, 60, 0
3, 109320, Note_on_c, 1, 59, 100
3, 109440, Note_on_c, 1, 59, 0
3, 109440, Note_on_c, 1, 57, 100
3, 109680, Note_on_c, 1, 57, 0
3, 109680, Note_on_c, 1, 60, 100
3, 109800, Note_on_c, 1, 60, 0
3, 109800, Note_on_c, 1, 59, 100
3, 109920, Note_on_c, 1, 59, 0
3, 109920, Note_on_c, 1, 57, 100
3, 110040, Note_on_c, 1, 57, 0
3, 110040, Note_on_c, 1, 55, 100
3, 110160, Note_on_c, 1, 55, 0
3, 110160, Note_on_c, 1, 54, 100
3, 110640, Note_on_c, 1, 54, 0
3, 110640, Note_on_c, 1, 64, 100
3, 110880, Note_on_c, 1, 64, 0
3, 110880, Note_on_c, 1, 63, 100
3, 111120, Note_on_c, 1, 63, 0
3, 111120, Note_on_c, 1, 66, 100
3, 111180, Note_on_c, 1, 66, 0
3, 111180, Note_on_c, 1, 64, 100
3, 111240, Note_on_c, 1, 64, 0
3, 111240, Note_on_c, 1, 63, 100
3, 111300, Note_on_c, 1, 63, 0
3, 111300, Note_on_c, 1, 64, 100
3, 111360, Note_on_c, 1, 64, 0
3, 111360, Note_on_c, 1, 66, 100
3, 111600, Note_on_c, 1, 66, 0
3, 111600, Note_on_c, 1, 59, 100
3, 112560, Note_on_c, 1, 59, 0
3, 112560, Note_on_c, 1, 63, 100
3, 112800, Note_on_c, 1, 63, 0
3, 112800, Note_on_c, 1, 64, 100
3, 113160, Note_on_c, 1, 64, 0
3, 113160, Note_on_c, 1, 62, 100
3, 113280, Note_on_c, 1, 62, 0
3, 113280, Note_on_c, 1, 60, 100
3, 113400, Note_on_c, 1, 60, 0
3, 113400, Note_on_c, 1, 59, 100
3, 113520, Note_on_c, 1, 59, 0
3, 113520, Note_on_c, 1, 60, 100
3, 113880, Note_on_c, 1, 60, 0
3, 113880, Note_on_c, 1, 59, 100
3, 114000, Note_on_c, 1, 59, 0
3, 114000, Note_on_c, 1, 57, 100
3, 114120, Note_on_c, 1, 57, 0
3, 114120, Note_on_c, 1, 55, 100
3, 114240, Note_on_c, 1, 55, 0
3, 114240, Note_on_c, 1, 57, 100
3, 114720, Note_on_c, 1, 57, 0
3, 114720, Note_on_c, 1, 54, 100
3, 114960, Note_on_c, 1, 54, 0
3, 114960, Note_on_c, 1, 55, 100
3, 115200, Note_on_c, 1, 55, 0
3, 123840, Note_on_c, 1, 59, 100
3, 124800, Note_on_c, 1, 59, 0
3, 124800, Note_on_c, 1, 60, 100
3, 125040, Note_on_c, 1, 60, 0
3, 125040, Note_on_c, 1, 62, 100
3, 125280, Note_on_c, 1, 62, 0
3, 125280, Note_on_c, 1, 64, 100
3, 125520, Note_on_c, 1, 64, 0
3, 125520, Note_on_c, 1, 56, 100
3, 125760, Note_on_c, 1, 56, 0
3, 125760, Note_on_c, 1, 59, 100
3, 126000, Note_on_c, 1, 59, 0
3, 126000, Note_on_c, 1, 57, 100
3, 126960, Note_on_c, 1, 57, 0
3, 126960, Note_on_c, 1, 59, 100
3, 127200, Note_on_c, 1, 59, 0
3, 127200, Note_on_c, 1, 60, 100
3, 127440, Note_on_c, 1, 60, 0
3, 127440, Note_on_c, 1, 62, 100
3, 127680, Note_on_c, 1, 62, 0
3, 127680, Note_on_c, 1, 54, 100
3, 127920, Note_on_c, 1, 54, 0
3, 127920, Note_on_c, 1, 57, 100
3, 128160, Note_on_c, 1, 57, 0
3, 128160, Note_on_c, 1, 50, 100
3, 128640, Note_on_c, 1, 50, 0
3, 128640, Note_on_c, 1, 54, 100
3, 128880, Note_on_c, 1, 54, 0
3, 128880, Note_on_c, 1, 59, 100
3, 130080, Note_on_c, 1, 59, 0
3, 130080, Note_on_c, 1, 51, 100
3, 130320, Note_on_c, 1, 51, 0
3, 130320, Note_on_c, 1, 52, 100
3, 130560, Note_on_c, 1, 52, 0
3, 130560, Note_on_c, 1, 54, 100
3, 130800, Note_on_c, 1, 54, 0
3, 130800, Note_on_c, 1, 55, 100
3, 131040, Note_on_c, 1, 55, 0
3, 131040, Note_on_c, 1, 54, 100
3, 131280, Note_on_c, 1, 54, 0
3, 131280, Note_on_c, 1, 55, 100
3, 131520, Note_on_c, 1, 55, 0
3, 131520, Note_on_c, 1, 57, 100
3, 131760, Note_on_c, 1, 57, 0
3, 131760, Note_on_c, 1, 50, 100
3, 132480, Note_on_c, 1, 50, 0
3, 132480, Note_on_c, 1, 50, 100
3, 133200, Note_on_c, 1, 50, 0
3, 133200, Note_on_c, 1, 50, 100
3, 134160, Note_on_c, 1, 50, 0
3, 134160, Note_on_c, 1, 55, 100
3, 134400, Note_on_c, 1, 55, 0
3, 134400, Note_on_c, 1, 54, 100
3, 134640, Note_on_c, 1, 54, 0
3, 134640, Note_on_c, 1, 55, 100
3, 134880, Note_on_c, 1, 55, 0
3, 134880, Note_on_c, 1, 57, 100
3, 135120, Note_on_c, 1, 57, 0
3, 135120, Note_on_c, 1, 59, 100
3, 135360, Note_on_c, 1, 59, 0
3, 135360, Note_on_c, 1, 60, 100
3, 135600, Note_on_c, 1, 60, 0
3, 135600, Note_on_c, 1, 62, 100
3, 135720, Note_on_c, 1, 62, 0
3, 135720, Note_on_c, 1, 60, 100
3, 135840, Note_on_c, 1, 60, 0
3, 135840, Note_on_c, 1, 59, 100
3, 135960, Note_on_c, 1, 59, 0
3, 135960, Note_on_c, 1, 57, 100
3, 136080, Note_on_c, 1, 57, 0
3, 136080, Note_on_c, 1, 59, 100
3, 136320, Note_on_c, 1, 59, 0
3, 136320, Note_on_c, 1, 60, 100
3, 136440, Note_on_c, 1, 60, 0
3, 136440, Note_on_c, 1, 59, 100
3, 136560, Note_on_c, 1, 59, 0
3, 136560, Note_on_c, 1, 57, 100
3, 136680, Note_on_c, 1, 57, 0
3, 136680, Note_on_c, 1, 55, 100
3, 136800, Note_on_c, 1, 55, 0
3, 136800, Note_on_c, 1, 57, 100
3, 137040, Note_on_c, 1, 57, 0
3, 137040, Note_on_c, 1, 59, 100
3, 137160, Note_on_c, 1, 59, 0
3, 137160, Note_on_c, 1, 57, 100
3, 137280, Note_on_c, 1, 57, 0
3, 137280, Note_on_c, 1, 55, 100
3, 137400, Note_on_c, 1, 55, 0
3, 137400, Note_on_c, 1, 54, 100
3, 137520, Note_on_c, 1, 54, 0
3, 137520, Note_on_c, 1, 55, 100
3, 138240, Note_on_c, 1, 55, 0
3, 138240, End_track
4, 0, Start_track
4, 0, MIDI_port, 0
4, 0, Title_t, "Johann Sebastian Bach  (1685-1750)"
4, 0, Program_c, 2, 6
4, 0, Control_c, 2, 7, 100
4, 0, Control_c, 2, 10, 54
4, 0, Note_on_c, 2, 55, 100
4, 720, Note_on_c, 2, 55, 0
4, 1200, Note_on_c, 2, 54, 100
4, 1440, Note_on_c, 2, 54, 0
4, 1440, Note_on_c, 2, 55, 100
4, 1920, Note_on_c, 2, 55, 0
4, 1920, Note_on_c, 2, 52, 100
4, 2160, Note_on_c, 2, 52, 0
4, 2160, Note_on_c, 2, 54, 100
4, 2880, Note_on_c, 2, 54, 0
4, 3360, Note_on_c, 2, 57, 100
4, 3600, Note_on_c, 2, 57, 0
4, 3600, Note_on_c, 2, 50, 100
4, 4080, Note_on_c, 2, 50, 0
4, 4080, Note_on_c, 2, 54, 100
4, 4320, Note_on_c, 2, 54, 0
4, 4320, Note_on_c, 2, 52, 100
4, 6240, Note_on_c, 2, 52, 0
4, 6240, Note_on_c, 2, 57, 100
4, 6480, Note_on_c, 2, 57, 0
4, 6480, Note_on_c, 2, 50, 100
4, 7200, Note_on_c, 2, 50, 0
4, 8400, Note_on_c, 2, 60, 100
4, 8640, Note_on_c, 2, 60, 0
4, 8640, Note_on_c, 2, 59, 100
4, 9360, Note_on_c, 2, 59, 0
4, 9840, Note_on_c, 2, 62, 100
4, 10080, Note_on_c, 2, 62, 0
4, 10080, Note_on_c, 2, 55, 100
4, 10560, Note_on_c, 2, 55, 0
4, 10560, Note_on_c, 2, 59, 100
4, 10800, Note_on_c, 2, 59, 0
4, 10800, Note_on_c, 2, 64, 100
4, 11520, Note_on_c, 2, 64, 0
4, 12000, Note_on_c, 2, 57, 100
4, 12240, Note_on_c, 2, 57, 0
4, 12240, Note_on_c, 2, 59, 100
4, 12480, Note_on_c, 2, 59, 0
4, 12480, Note_on_c, 2, 57, 100
4, 12720, Note_on_c, 2, 57, 0
4, 12720, Note_on_c, 2, 59, 100
4, 12960, Note_on_c, 2, 59, 0
4, 12960, Note_on_c, 2, 60, 100
4, 13200, Note_on_c, 2, 60, 0
4, 13200, Note_on_c, 2, 59, 100
4, 13440, Note_on_c, 2, 59, 0
4, 13440, Note_on_c, 2, 57, 100
4, 13680, Note_on_c, 2, 57, 0
4, 13680, Note_on_c, 2, 59, 100
4, 13920, Note_on_c, 2, 59, 0
4, 13920, Note_on_c, 2, 62, 100
4, 14160, Note_on_c, 2, 62, 0
4, 14160, Note_on_c, 2, 60, 100
4, 14400, Note_on_c, 2, 60, 0
4, 14400, Note_on_c, 2, 62, 100
4, 14880, Note_on_c, 2, 62, 0
4, 14880, Note_on_c, 2, 50, 100
4, 15120, Note_on_c, 2, 50, 0
4, 15120, Note_on_c, 2, 55, 100
4, 15600, Note_on_c, 2, 55, 0
4, 15600, Note_on_c, 2, 43, 100
4, 15840, Note_on_c, 2, 43, 0
4, 15840, Note_on_c, 2, 43, 100
4, 16320, Note_on_c, 2, 43, 0
4, 16320, Note_on_c, 2, 55, 100
4, 16560, Note_on_c, 2, 55, 0
4, 16560, Note_on_c, 2, 55, 100
4, 16800, Note_on_c, 2, 55, 0
4, 16800, Note_on_c, 2, 54, 100
4, 16920, Note_on_c, 2, 54, 0
4, 16920, Note_on_c, 2, 52, 100
4, 17040, Note_on_c, 2, 52, 0
4, 17040, Note_on_c, 2, 50, 100
4, 17160, Note_on_c, 2, 50, 0
4, 17160, Note_on_c, 2, 48, 100
4, 17280, Note_on_c, 2, 48, 0
4, 17280, Note_on_c, 2, 47, 100
4, 17520, Note_on_c, 2, 47, 0
4, 17520, Note_on_c, 2, 43, 100
4, 17760, Note_on_c, 2, 43, 0
4, 17760, Note_on_c, 2, 45, 100
4, 18000, Note_on_c, 2, 45, 0
4, 18000, Note_on_c, 2, 47, 100
4, 18240, Note_on_c, 2, 47, 0
4, 18240, Note_on_c, 2, 48, 100
4, 18480, Note_on_c, 2, 48, 0
4, 18480, Note_on_c, 2, 50, 100
4, 18720, Note_on_c, 2, 50, 0
4, 18720, Note_on_c, 2, 43, 100
4, 19200, Note_on_c, 2, 43, 0
4, 19200, Note_on_c, 2, 55, 100
4, 19680, Note_on_c, 2, 55, 0
4, 19680, Note_on_c, 2, 54, 100
4, 19920, Note_on_c, 2, 54, 0
4, 19920, Note_on_c, 2, 52, 100
4, 20160, Note_on_c, 2, 52, 0
4, 20160, Note_on_c, 2, 57, 100
4, 20640, Note_on_c, 2, 57, 0
4, 20640, Note_on_c, 2, 55, 100
4, 20880, Note_on_c, 2, 55, 0
4, 20880, Note_on_c, 2, 54, 100
4, 21120, Note_on_c, 2, 54, 0
4, 21120, Note_on_c, 2, 55, 100
4, 21360, Note_on_c, 2, 55, 0
4, 21360, Note_on_c, 2, 57, 100
4, 21600, Note_on_c, 2, 57, 0
4, 21600, Note_on_c, 2, 59, 100
4, 22800, Note_on_c, 2, 59, 0
4, 22800, Note_on_c, 2, 57, 100
4, 23040, Note_on_c, 2, 57, 0
4, 23040, Note_on_c, 2, 55, 100
4, 23520, Note_on_c, 2, 55, 0
4, 23520, Note_on_c, 2, 52, 100
4, 23760, Note_on_c, 2, 52, 0
4, 23760, Note_on_c, 2, 45, 100
4, 24240, Note_on_c, 2, 45, 0
4, 24960, Note_on_c, 2, 55, 100
4, 25200, Note_on_c, 2, 55, 0
4, 25200, Note_on_c, 2, 54, 100
4, 25680, Note_on_c, 2, 54, 0
4, 25680, Note_on_c, 2, 52, 100
4, 25920, Note_on_c, 2, 52, 0
4, 25920, Note_on_c, 2, 54, 100
4, 26400, Note_on_c, 2, 54, 0
4, 26400, Note_on_c, 2, 57, 100
4, 26640, Note_on_c, 2, 57, 0
4, 26640, Note_on_c, 2, 59, 100
4, 27120, Note_on_c, 2, 59, 0
4, 27120, Note_on_c, 2, 61, 100
4, 27360, Note_on_c, 2, 61, 0
4, 27360, Note_on_c, 2, 62, 100
4, 27840, Note_on_c, 2, 62, 0
4, 27840, Note_on_c, 2, 50, 100
4, 28080, Note_on_c, 2, 50, 0
4, 28080, Note_on_c, 2, 55, 100
4, 28560, Note_on_c, 2, 55, 0
4, 28560, Note_on_c, 2, 47, 100
4, 28800, Note_on_c, 2, 47, 0
4, 28800, Note_on_c, 2, 49, 100
4, 29040, Note_on_c, 2, 49, 0
4, 29040, Note_on_c, 2, 50, 100
4, 29280, Note_on_c, 2, 50, 0
4, 29280, Note_on_c, 2, 52, 100
4, 29520, Note_on_c, 2, 52, 0
4, 29520, Note_on_c, 2, 54, 100
4, 29760, Note_on_c, 2, 54, 0
4, 29760, Note_on_c, 2, 52, 100
4, 30000, Note_on_c, 2, 52, 0
4, 30000, Note_on_c, 2, 54, 100
4, 30240, Note_on_c, 2, 54, 0
4, 30240, Note_on_c, 2, 55, 100
4, 30480, Note_on_c, 2, 55, 0
4, 30480, Note_on_c, 2, 54, 100
4, 30720, Note_on_c, 2, 54, 0
4, 30720, Note_on_c, 2, 52, 100
4, 30960, Note_on_c, 2, 52, 0
4, 30960, Note_on_c, 2, 54, 100
4, 31200, Note_on_c, 2, 54, 0
4, 31200, Note_on_c, 2, 57, 100
4, 31440, Note_on_c, 2, 57, 0
4, 31440, Note_on_c, 2, 55, 100
4, 31680, Note_on_c, 2, 55, 0
4, 31680, Note_on_c, 2, 57, 100
4, 32160, Note_on_c, 2, 57, 0
4, 32160, Note_on_c, 2, 45, 100
4, 32400, Note_on_c, 2, 45, 0
4, 32400, Note_on_c, 2, 50, 100
4, 32880, Note_on_c, 2, 50, 0
4, 32880, Note_on_c, 2, 38, 100
4, 33120, Note_on_c, 2, 38, 0
4, 33120, Note_on_c, 2, 38, 100
4, 33600, Note_on_c, 2, 38, 0
4, 33600, Note_on_c, 2, 50, 100
4, 33840, Note_on_c, 2, 50, 0
4, 33840, Note_on_c, 2, 50, 100
4, 34560, Note_on_c, 2, 50, 0
4, 34560, Note_on_c, 2, 55, 100
4, 35280, Note_on_c, 2, 55, 0
4, 35760, Note_on_c, 2, 54, 100
4, 36000, Note_on_c, 2, 54, 0
4, 36000, Note_on_c, 2, 55, 100
4, 36480, Note_on_c, 2, 55, 0
4, 36480, Note_on_c, 2, 52, 100
4, 36720, Note_on_c, 2, 52, 0
4, 36720, Note_on_c, 2, 54, 100
4, 37440, Note_on_c, 2, 54, 0
4, 37920, Note_on_c, 2, 57, 100
4, 38160, Note_on_c, 2, 57, 0
4, 38160, Note_on_c, 2, 50, 100
4, 38640, Note_on_c, 2, 50, 0
4, 38640, Note_on_c, 2, 54, 100
4, 38880, Note_on_c, 2, 54, 0
4, 38880, Note_on_c, 2, 52, 100
4, 40800, Note_on_c, 2, 52, 0
4, 40800, Note_on_c, 2, 57, 100
4, 41040, Note_on_c, 2, 57, 0
4, 41040, Note_on_c, 2, 50, 100
4, 41760, Note_on_c, 2, 50, 0
4, 42960, Note_on_c, 2, 60, 100
4, 43200, Note_on_c, 2, 60, 0
4, 43200, Note_on_c, 2, 59, 100
4, 43920, Note_on_c, 2, 59, 0
4, 44400, Note_on_c, 2, 62, 100
4, 44640, Note_on_c, 2, 62, 0
4, 44640, Note_on_c, 2, 55, 100
4, 45120, Note_on_c, 2, 55, 0
4, 45120, Note_on_c, 2, 59, 100
4, 45360, Note_on_c, 2, 59, 0
4, 45360, Note_on_c, 2, 64, 100
4, 46080, Note_on_c, 2, 64, 0
4, 46560, Note_on_c, 2, 57, 100
4, 46800, Note_on_c, 2, 57, 0
4, 46800, Note_on_c, 2, 59, 100
4, 47040, Note_on_c, 2, 59, 0
4, 47040, Note_on_c, 2, 57, 100
4, 47280, Note_on_c, 2, 57, 0
4, 47280, Note_on_c, 2, 59, 100
4, 47520, Note_on_c, 2, 59, 0
4, 47520, Note_on_c, 2, 60, 100
4, 47760, Note_on_c, 2, 60, 0
4, 47760, Note_on_c, 2, 59, 100
4, 48000, Note_on_c, 2, 59, 0
4, 48000, Note_on_c, 2, 57, 100
4, 48240, Note_on_c, 2, 57, 0
4, 48240, Note_on_c, 2, 59, 100
4, 48480, Note_on_c, 2, 59, 0
4, 48480, Note_on_c, 2, 62, 100
4, 48720, Note_on_c, 2, 62, 0
4, 48720, Note_on_c, 2, 60, 100
4, 48960, Note_on_c, 2, 60, 0
4, 48960, Note_on_c, 2, 62, 100
4, 49440, Note_on_c, 2, 62, 0
4, 49440, Note_on_c, 2, 50, 100
4, 49680, Note_on_c, 2, 50, 0
4, 49680, Note_on_c, 2, 55, 100
4, 50160, Note_on_c, 2, 55, 0
4, 50160, Note_on_c, 2, 43, 100
4, 50400, Note_on_c, 2, 43, 0
4, 50400, Note_on_c, 2, 43, 100
4, 50880, Note_on_c, 2, 43, 0
4, 50880, Note_on_c, 2, 55, 100
4, 51120, Note_on_c, 2, 55, 0
4, 51120, Note_on_c, 2, 55, 100
4, 51360, Note_on_c, 2, 55, 0
4, 51360, Note_on_c, 2, 54, 100
4, 51480, Note_on_c, 2, 54, 0
4, 51480, Note_on_c, 2, 52, 100
4, 51600, Note_on_c, 2, 52, 0
4, 51600, Note_on_c, 2, 50, 100
4, 51720, Note_on_c, 2, 50, 0
4, 51720, Note_on_c, 2, 48, 100
4, 51840, Note_on_c, 2, 48, 0
4, 51840, Note_on_c, 2, 47, 100
4, 52080, Note_on_c, 2, 47, 0
4, 52080, Note_on_c, 2, 43, 100
4, 52320, Note_on_c, 2, 43, 0
4, 52320, Note_on_c, 2, 45, 100
4, 52560, Note_on_c, 2, 45, 0
4, 52560, Note_on_c, 2, 47, 100
4, 52800, Note_on_c, 2, 47, 0
4, 52800, Note_on_c, 2, 48, 100
4, 53040, Note_on_c, 2, 48, 0
4, 53040, Note_on_c, 2, 50, 100
4, 53280, Note_on_c, 2, 50, 0
4, 53280, Note_on_c, 2, 43, 100
4, 53760, Note_on_c, 2, 43, 0
4, 53760, Note_on_c, 2, 55, 100
4, 54240, Note_on_c, 2, 55, 0
4, 54240, Note_on_c, 2, 54, 100
4, 54480, Note_on_c, 2, 54, 0
4, 54480, Note_on_c, 2, 52, 100
4, 54720, Note_on_c, 2, 52, 0
4, 54720, Note_on_c, 2, 57, 100
4, 55200, Note_on_c, 2, 57, 0
4, 55200, Note_on_c, 2, 55, 100
4, 55440, Note_on_c, 2, 55, 0
4, 55440, Note_on_c, 2, 54, 100
4, 55680, Note_on_c, 2, 54, 0
4, 55680, Note_on_c, 2, 55, 100
4, 55920, Note_on_c, 2, 55, 0
4, 55920, Note_on_c, 2, 57, 100
4, 56160, Note_on_c, 2, 57, 0
4, 56160, Note_on_c, 2, 59, 100
4, 57360, Note_on_c, 2, 59, 0
4, 57360, Note_on_c, 2, 57, 100
4, 57600, Note_on_c, 2, 57, 0
4, 57600, Note_on_c, 2, 55, 100
4, 58080, Note_on_c, 2, 55, 0
4, 58080, Note_on_c, 2, 52, 100
4, 58320, Note_on_c, 2, 52, 0
4, 58320, Note_on_c, 2, 45, 100
4, 58800, Note_on_c, 2, 45, 0
4, 59520, Note_on_c, 2, 55, 100
4, 59760, Note_on_c, 2, 55, 0
4, 59760, Note_on_c, 2, 54, 100
4, 60240, Note_on_c, 2, 54, 0
4, 60240, Note_on_c, 2, 52, 100
4, 60480, Note_on_c, 2, 52, 0
4, 60480, Note_on_c, 2, 54, 100
4, 60960, Note_on_c, 2, 54, 0
4, 60960, Note_on_c, 2, 57, 100
4, 61200, Note_on_c, 2, 57, 0
4, 61200, Note_on_c, 2, 59, 100
4, 61680, Note_on_c, 2, 59, 0
4, 61680, Note_on_c, 2, 61, 100
4, 61920, Note_on_c, 2, 61, 0
4, 61920, Note_on_c, 2, 62, 100
4, 62400, Note_on_c, 2, 62, 0
4, 62400, Note_on_c, 2, 50, 100
4, 62640, Note_on_c, 2, 50, 0
4, 62640, Note_on_c, 2, 55, 100
4, 63120, Note_on_c, 2, 55, 0
4, 63120, Note_on_c, 2, 47, 100
4, 63360, Note_on_c, 2, 47, 0
4, 63360, Note_on_c, 2, 49, 100
4, 63600, Note_on_c, 2, 49, 0
4, 63600, Note_on_c, 2, 50, 100
4, 63840, Note_on_c, 2, 50, 0
4, 63840, Note_on_c, 2, 52, 100
4, 64080, Note_on_c, 2, 52, 0
4, 64080, Note_on_c, 2, 54, 100
4, 64320, Note_on_c, 2, 54, 0
4, 64320, Note_on_c, 2, 52, 100
4, 64560, Note_on_c, 2, 52, 0
4, 64560, Note_on_c, 2, 54, 100
4, 64800, Note_on_c, 2, 54, 0
4, 64800, Note_on_c, 2, 55, 100
4, 65040, Note_on_c, 2, 55, 0
4, 65040, Note_on_c, 2, 54, 100
4, 65280, Note_on_c, 2, 54, 0
4, 65280, Note_on_c, 2, 52, 100
4, 65520, Note_on_c, 2, 52, 0
4, 65520, Note_on_c, 2, 54, 100
4, 65760, Note_on_c, 2, 54, 0
4, 65760, Note_on_c, 2, 57, 100
4, 66000, Note_on_c, 2, 57, 0
4, 66000, Note_on_c, 2, 55, 100
4, 66240, Note_on_c, 2, 55, 0
4, 66240, Note_on_c, 2, 57, 100
4, 66720, Note_on_c, 2, 57, 0
4, 66720, Note_on_c, 2, 45, 100
4, 66960, Note_on_c, 2, 45, 0
4, 66960, Note_on_c, 2, 50, 100
4, 67440, Note_on_c, 2, 50, 0
4, 67440, Note_on_c, 2, 38, 100
4, 67680, Note_on_c, 2, 38, 0
4, 67680, Note_on_c, 2, 38, 100
4, 68160, Note_on_c, 2, 38, 0
4, 68160, Note_on_c, 2, 50, 100
4, 68400, Note_on_c, 2, 50, 0
4, 68400, Note_on_c, 2, 50, 100
4, 69120, Note_on_c, 2, 50, 0
4, 69120, Note_on_c, 2, 50, 100
4, 69360, Note_on_c, 2, 50, 0
4, 69360, Note_on_c, 2, 54, 100
4, 69600, Note_on_c, 2, 54, 0
4, 69600, Note_on_c, 2, 57, 100
4, 69840, Note_on_c, 2, 57, 0
4, 69840, Note_on_c, 2, 62, 100
4, 70080, Note_on_c, 2, 62, 0
4, 70080, Note_on_c, 2, 64, 100
4, 70200, Note_on_c, 2, 64, 0
4, 70200, Note_on_c, 2, 62, 100
4, 70320, Note_on_c, 2, 62, 0
4, 70320, Note_on_c, 2, 60, 100
4, 70440, Note_on_c, 2, 60, 0
4, 70440, Note_on_c, 2, 59, 100
4, 70560, Note_on_c, 2, 59, 0
4, 70560, Note_on_c, 2, 60, 100
4, 70800, Note_on_c, 2, 60, 0
4, 70800, Note_on_c, 2, 62, 100
4, 70920, Note_on_c, 2, 62, 0
4, 70920, Note_on_c, 2, 60, 100
4, 71040, Note_on_c, 2, 60, 0
4, 71040, Note_on_c, 2, 59, 100
4, 71160, Note_on_c, 2, 59, 0
4, 71160, Note_on_c, 2, 57, 100
4, 71280, Note_on_c, 2, 57, 0
4, 71280, Note_on_c, 2, 59, 100
4, 72240, Note_on_c, 2, 59, 0
4, 72240, Note_on_c, 2, 60, 100
4, 72480, Note_on_c, 2, 60, 0
4, 72480, Note_on_c, 2, 62, 100
4, 72720, Note_on_c, 2, 62, 0
4, 72720, Note_on_c, 2, 55, 100
4, 72960, Note_on_c, 2, 55, 0
4, 72960, Note_on_c, 2, 57, 100
4, 73200, Note_on_c, 2, 57, 0
4, 73200, Note_on_c, 2, 59, 100
4, 73440, Note_on_c, 2, 59, 0
4, 73440, Note_on_c, 2, 60, 100
4, 73680, Note_on_c, 2, 60, 0
4, 74160, Note_on_c, 2, 57, 100
4, 74400, Note_on_c, 2, 57, 0
4, 74880, Note_on_c, 2, 54, 100
4, 75120, Note_on_c, 2, 54, 0
4, 75600, Note_on_c, 2, 51, 100
4, 76080, Note_on_c, 2, 51, 0
4, 76080, Note_on_c, 2, 54, 100
4, 76320, Note_on_c, 2, 54, 0
4, 76320, Note_on_c, 2, 59, 100
4, 77280, Note_on_c, 2, 59, 0
4, 77280, Note_on_c, 2, 55, 100
4, 77520, Note_on_c, 2, 55, 0
4, 77520, Note_on_c, 2, 57, 100
4, 77760, Note_on_c, 2, 57, 0
4, 77760, Note_on_c, 2, 55, 100
4, 78000, Note_on_c, 2, 55, 0
4, 78480, Note_on_c, 2, 52, 100
4, 78720, Note_on_c, 2, 52, 0
4, 79200, Note_on_c, 2, 48, 100
4, 79440, Note_on_c, 2, 48, 0
4, 79920, Note_on_c, 2, 45, 100
4, 80400, Note_on_c, 2, 45, 0
4, 80400, Note_on_c, 2, 46, 100
4, 80640, Note_on_c, 2, 46, 0
4, 80640, Note_on_c, 2, 47, 100
4, 80880, Note_on_c, 2, 47, 0
4, 80880, Note_on_c, 2, 60, 100
4, 81000, Note_on_c, 2, 60, 0
4, 81000, Note_on_c, 2, 59, 100
4, 81120, Note_on_c, 2, 59, 0
4, 81120, Note_on_c, 2, 57, 100
4, 81240, Note_on_c, 2, 57, 0
4, 81240, Note_on_c, 2, 55, 100
4, 81360, Note_on_c, 2, 55, 0
4, 81360, Note_on_c, 2, 57, 100
4, 81600, Note_on_c, 2, 57, 0
4, 81600, Note_on_c, 2, 59, 100
4, 81720, Note_on_c, 2, 59, 0
4, 81720, Note_on_c, 2, 57, 100
4, 81840, Note_on_c, 2, 57, 0
4, 81840, Note_on_c, 2, 55, 100
4, 81960, Note_on_c, 2, 55, 0
4, 81960, Note_on_c, 2, 54, 100
4, 82080, Note_on_c, 2, 54, 0
4, 82080, Note_on_c, 2, 55, 100
4, 82320, Note_on_c, 2, 55, 0
4, 82320, Note_on_c, 2, 57, 100
4, 82440, Note_on_c, 2, 57, 0
4, 82440, Note_on_c, 2, 55, 100
4, 82560, Note_on_c, 2, 55, 0
4, 82560, Note_on_c, 2, 54, 100
4, 82680, Note_on_c, 2, 54, 0
4, 82680, Note_on_c, 2, 52, 100
4, 82800, Note_on_c, 2, 52, 0
4, 82800, Note_on_c, 2, 60, 100
4, 83040, Note_on_c, 2, 60, 0
4, 83040, Note_on_c, 2, 51, 100
4, 83280, Note_on_c, 2, 51, 0
4, 83280, Note_on_c, 2, 52, 100
4, 83520, Note_on_c, 2, 52, 0
4, 83520, Note_on_c, 2, 47, 100
4, 83760, Note_on_c, 2, 47, 0
4, 83760, Note_on_c, 2, 52, 100
4, 84000, Note_on_c, 2, 52, 0
4, 84000, Note_on_c, 2, 51, 100
4, 84240, Note_on_c, 2, 51, 0
4, 84240, Note_on_c, 2, 52, 100
4, 84300, Note_on_c, 2, 52, 0
4, 84300, Note_on_c, 2, 50, 100
4, 84360, Note_on_c, 2, 50, 0
4, 84360, Note_on_c, 2, 52, 100
4, 85200, Note_on_c, 2, 52, 0
4, 85200, Note_on_c, 2, 55, 100
4, 85440, Note_on_c, 2, 55, 0
4, 85440, Note_on_c, 2, 59, 100
4, 85680, Note_on_c, 2, 59, 0
4, 85680, Note_on_c, 2, 64, 100
4, 86160, Note_on_c, 2, 64, 0
4, 86160, Note_on_c, 2, 62, 100
4, 86400, Note_on_c, 2, 62, 0
4, 86400, Note_on_c, 2, 60, 100
4, 87360, Note_on_c, 2, 60, 0
4, 87360, Note_on_c, 2, 59, 100
4, 87600, Note_on_c, 2, 59, 0
4, 87600, Note_on_c, 2, 60, 100
4, 87840, Note_on_c, 2, 60, 0
4, 87840, Note_on_c, 2, 54, 100
4, 88080, Note_on_c, 2, 54, 0
4, 88080, Note_on_c, 2, 55, 100
4, 88320, Note_on_c, 2, 55, 0
4, 88320, Note_on_c, 2, 57, 100
4, 88560, Note_on_c, 2, 57, 0
4, 88560, Note_on_c, 2, 59, 100
4, 88800, Note_on_c, 2, 59, 0
4, 88800, Note_on_c, 2, 50, 100
4, 89040, Note_on_c, 2, 50, 0
4, 89040, Note_on_c, 2, 54, 100
4, 89280, Note_on_c, 2, 54, 0
4, 89280, Note_on_c, 2, 47, 100
4, 89520, Note_on_c, 2, 47, 0
4, 89520, Note_on_c, 2, 48, 100
4, 89760, Note_on_c, 2, 48, 0
4, 89760, Note_on_c, 2, 50, 100
4, 90000, Note_on_c, 2, 50, 0
4, 90000, Note_on_c, 2, 43, 100
4, 90240, Note_on_c, 2, 43, 0
4, 90240, Note_on_c, 2, 45, 100
4, 90480, Note_on_c, 2, 45, 0
4, 90480, Note_on_c, 2, 47, 100
4, 90720, Note_on_c, 2, 47, 0
4, 90720, Note_on_c, 2, 48, 100
4, 91440, Note_on_c, 2, 48, 0
4, 91440, Note_on_c, 2, 48, 100
4, 92160, Note_on_c, 2, 48, 0
4, 92160, Note_on_c, 2, 48, 100
4, 93120, Note_on_c, 2, 48, 0
4, 93120, Note_on_c, 2, 50, 100
4, 93240, Note_on_c, 2, 50, 0
4, 93240, Note_on_c, 2, 48, 100
4, 93360, Note_on_c, 2, 48, 0
4, 93360, Note_on_c, 2, 47, 100
4, 93480, Note_on_c, 2, 47, 0
4, 93480, Note_on_c, 2, 45, 100
4, 93600, Note_on_c, 2, 45, 0
4, 93600, Note_on_c, 2, 47, 100
4, 93840, Note_on_c, 2, 47, 0
4, 93840, Note_on_c, 2, 48, 100
4, 94080, Note_on_c, 2, 48, 0
4, 94080, Note_on_c, 2, 50, 100
4, 94320, Note_on_c, 2, 50, 0
4, 94320, Note_on_c, 2, 43, 100
4, 94560, Note_on_c, 2, 43, 0
4, 94560, Note_on_c, 2, 45, 100
4, 94800, Note_on_c, 2, 45, 0
4, 94800, Note_on_c, 2, 47, 100
4, 95040, Note_on_c, 2, 47, 0
4, 95040, Note_on_c, 2, 40, 100
4, 95280, Note_on_c, 2, 40, 0
4, 95760, Note_on_c, 2, 52, 100
4, 96000, Note_on_c, 2, 52, 0
4, 96480, Note_on_c, 2, 45, 100
4, 96720, Note_on_c, 2, 45, 0
4, 97200, Note_on_c, 2, 43, 100
4, 97440, Note_on_c, 2, 43, 0
4, 97440, Note_on_c, 2, 45, 100
4, 97680, Note_on_c, 2, 45, 0
4, 97680, Note_on_c, 2, 47, 100
4, 97920, Note_on_c, 2, 47, 0
4, 97920, Note_on_c, 2, 48, 100
4, 98160, Note_on_c, 2, 48, 0
4, 98160, Note_on_c, 2, 47, 100
4, 98400, Note_on_c, 2, 47, 0
4, 98400, Note_on_c, 2, 45, 100
4, 98640, Note_on_c, 2, 45, 0
4, 98640, Note_on_c, 2, 47, 100
4, 98880, Note_on_c, 2, 47, 0
4, 98880, Note_on_c, 2, 43, 100
4, 99120, Note_on_c, 2, 43, 0
4, 99120, Note_on_c, 2, 45, 100
4, 99360, Note_on_c, 2, 45, 0
4, 99360, Note_on_c, 2, 47, 100
4, 100320, Note_on_c, 2, 47, 0
4, 100320, Note_on_c, 2, 45, 100
4, 100560, Note_on_c, 2, 45, 0
4, 100560, Note_on_c, 2, 43, 100
4, 100800, Note_on_c, 2, 43, 0
4, 100800, Note_on_c, 2, 50, 100
4, 101280, Note_on_c, 2, 50, 0
4, 101280, Note_on_c, 2, 38, 100
4, 101520, Note_on_c, 2, 38, 0
4, 101520, Note_on_c, 2, 43, 100
4, 102000, Note_on_c, 2, 43, 0
4, 102000, Note_on_c, 2, 31, 100
4, 102240, Note_on_c, 2, 31, 0
4, 102240, Note_on_c, 2, 31, 100
4, 102720, Note_on_c, 2, 31, 0
4, 102720, Note_on_c, 2, 43, 100
4, 102960, Note_on_c, 2, 43, 0
4, 102960, Note_on_c, 2, 43, 100
4, 103680, Note_on_c, 2, 43, 0
4, 103680, Note_on_c, 2, 50, 100
4, 103920, Note_on_c, 2, 50, 0
4, 103920, Note_on_c, 2, 54, 100
4, 104160, Note_on_c, 2, 54, 0
4, 104160, Note_on_c, 2, 57, 100
4, 104400, Note_on_c, 2, 57, 0
4, 104400, Note_on_c, 2, 62, 100
4, 104640, Note_on_c, 2, 62, 0
4, 104640, Note_on_c, 2, 64, 100
4, 104760, Note_on_c, 2, 64, 0
4, 104760, Note_on_c, 2, 62, 100
4, 104880, Note_on_c, 2, 62, 0
4, 104880, Note_on_c, 2, 60, 100
4, 105000, Note_on_c, 2, 60, 0
4, 105000, Note_on_c, 2, 59, 100
4, 105120, Note_on_c, 2, 59, 0
4, 105120, Note_on_c, 2, 60, 100
4, 105360, Note_on_c, 2, 60, 0
4, 105360, Note_on_c, 2, 62, 100
4, 105480, Note_on_c, 2, 62, 0
4, 105480, Note_on_c, 2, 60, 100
4, 105600, Note_on_c, 2, 60, 0
4, 105600, Note_on_c, 2, 59, 100
4, 105720, Note_on_c, 2, 59, 0
4, 105720, Note_on_c, 2, 57, 100
4, 105840, Note_on_c, 2, 57, 0
4, 105840, Note_on_c, 2, 59, 100
4, 106800, Note_on_c, 2, 59, 0
4, 106800, Note_on_c, 2, 60, 100
4, 107040, Note_on_c, 2, 60, 0
4, 107040, Note_on_c, 2, 62, 100
4, 107280, Note_on_c, 2, 62, 0
4, 107280, Note_on_c, 2, 55, 100
4, 107520, Note_on_c, 2, 55, 0
4, 107520, Note_on_c, 2, 57, 100
4, 107760, Note_on_c, 2, 57, 0
4, 107760, Note_on_c, 2, 59, 100
4, 108000, Note_on_c, 2, 59, 0
4, 108000, Note_on_c, 2, 60, 100
4, 108240, Note_on_c, 2, 60, 0
4, 108720, Note_on_c, 2, 57, 100
4, 108960, Note_on_c, 2, 57, 0
4, 109440, Note_on_c, 2, 54, 100
4, 109680, Note_on_c, 2, 54, 0
4, 110160, Note_on_c, 2, 51, 100
4, 110640, Note_on_c, 2, 51, 0
4, 110640, Note_on_c, 2, 54, 100
4, 110880, Note_on_c, 2, 54, 0
4, 110880, Note_on_c, 2, 59, 100
4, 111840, Note_on_c, 2, 59, 0
4, 111840, Note_on_c, 2, 55, 100
4, 112080, Note_on_c, 2, 55, 0
4, 112080, Note_on_c, 2, 57, 100
4, 112320, Note_on_c, 2, 57, 0
4, 112320, Note_on_c, 2, 55, 100
4, 112560, Note_on_c, 2, 55, 0
4, 113040, Note_on_c, 2, 52, 100
4, 113280, Note_on_c, 2, 52, 0
4, 113760, Note_on_c, 2, 48, 100
4, 114000, Note_on_c, 2, 48, 0
4, 114480, Note_on_c, 2, 45, 100
4, 114960, Note_on_c, 2, 45, 0
4, 114960, Note_on_c, 2, 46, 100
4, 115200, Note_on_c, 2, 46, 0
4, 115200, Note_on_c, 2, 47, 100
4, 115440, Note_on_c, 2, 47, 0
4, 115440, Note_on_c, 2, 60, 100
4, 115560, Note_on_c, 2, 60, 0
4, 115560, Note_on_c, 2, 59, 100
4, 115680, Note_on_c, 2, 59, 0
4, 115680, Note_on_c, 2, 57, 100
4, 115800, Note_on_c, 2, 57, 0
4, 115800, Note_on_c, 2, 55, 100
4, 115920, Note_on_c, 2, 55, 0
4, 115920, Note_on_c, 2, 57, 100
4, 116160, Note_on_c, 2, 57, 0
4, 116160, Note_on_c, 2, 59, 100
4, 116280, Note_on_c, 2, 59, 0
4, 116280, Note_on_c, 2, 57, 100
4, 116400, Note_on_c, 2, 57, 0
4, 116400, Note_on_c, 2, 55, 100
4, 116520, Note_on_c, 2, 55, 0
4, 116520, Note_on_c, 2, 54, 100
4, 116640, Note_on_c, 2, 54, 0
4, 116640, Note_on_c, 2, 55, 100
4, 116880, Note_on_c, 2, 55, 0
4, 116880, Note_on_c, 2, 57, 100
4, 117000, Note_on_c, 2, 57, 0
4, 117000, Note_on_c, 2, 55, 100
4, 117120, Note_on_c, 2, 55, 0
4, 117120, Note_on_c, 2, 54, 100
4, 117240, Note_on_c, 2, 54, 0
4, 117240, Note_on_c, 2, 52, 100
4, 117360, Note_on_c, 2, 52, 0
4, 117360, Note_on_c, 2, 60, 100
4, 117600, Note_on_c, 2, 60, 0
4, 117600, Note_on_c, 2, 51, 100
4, 117840, Note_on_c, 2, 51, 0
4, 117840, Note_on_c, 2, 52, 100
4, 118080, Note_on_c, 2, 52, 0
4, 118080, Note_on_c, 2, 47, 100
4, 118320, Note_on_c, 2, 47, 0
4, 118320, Note_on_c, 2, 52, 100
4, 118560, Note_on_c, 2, 52, 0
4, 118560, Note_on_c, 2, 51, 100
4, 118800, Note_on_c, 2, 51, 0
4, 118800, Note_on_c, 2, 52, 100
4, 118860, Note_on_c, 2, 52, 0
4, 118860, Note_on_c, 2, 50, 100
4, 118920, Note_on_c, 2, 50, 0
4, 118920, Note_on_c, 2, 52, 100
4, 119760, Note_on_c, 2, 52, 0
4, 119760, Note_on_c, 2, 55, 100
4, 120000, Note_on_c, 2, 55, 0
4, 120000, Note_on_c, 2, 59, 100
4, 120240, Note_on_c, 2, 59, 0
4, 120240, Note_on_c, 2, 64, 100
4, 120720, Note_on_c, 2, 64, 0
4, 120720, Note_on_c, 2, 62, 100
4, 120960, Note_on_c, 2, 62, 0
4, 120960, Note_on_c, 2, 60, 100
4, 121920, Note_on_c, 2, 60, 0
4, 121920, Note_on_c, 2, 59, 100
4, 122160, Note_on_c, 2, 59, 0
4, 122160, Note_on_c, 2, 60, 100
4, 122400, Note_on_c, 2, 60, 0
4, 122400, Note_on_c, 2, 54, 100
4, 122640, Note_on_c, 2, 54, 0
4, 122640, Note_on_c, 2, 55, 100
4, 122880, Note_on_c, 2, 55, 0
4, 122880, Note_on_c, 2, 57, 100
4, 123120, Note_on_c, 2, 57, 0
4, 123120, Note_on_c, 2, 59, 100
4, 123360, Note_on_c, 2, 59, 0
4, 123360, Note_on_c, 2, 50, 100
4, 123600, Note_on_c, 2, 50, 0
4, 123600, Note_on_c, 2, 54, 100
4, 123840, Note_on_c, 2, 54, 0
4, 123840, Note_on_c, 2, 47, 100
4, 124080, Note_on_c, 2, 47, 0
4, 124080, Note_on_c, 2, 48, 100
4, 124320, Note_on_c, 2, 48, 0
4, 124320, Note_on_c, 2, 50, 100
4, 124560, Note_on_c, 2, 50, 0
4, 124560, Note_on_c, 2, 43, 100
4, 124800, Note_on_c, 2, 43, 0
4, 124800, Note_on_c, 2, 45, 100
4, 125040, Note_on_c, 2, 45, 0
4, 125040, Note_on_c, 2, 47, 100
4, 125280, Note_on_c, 2, 47, 0
4, 125280, Note_on_c, 2, 48, 100
4, 126000, Note_on_c, 2, 48, 0
4, 126000, Note_on_c, 2, 48, 100
4, 126720, Note_on_c, 2, 48, 0
4, 126720, Note_on_c, 2, 48, 100
4, 127680, Note_on_c, 2, 48, 0
4, 127680, Note_on_c, 2, 50, 100
4, 127800, Note_on_c, 2, 50, 0
4, 127800, Note_on_c, 2, 48, 100
4, 127920, Note_on_c, 2, 48, 0
4, 127920, Note_on_c, 2, 47, 100
4, 128040, Note_on_c, 2, 47, 0
4, 128040, Note_on_c, 2, 45, 100
4, 128160, Note_on_c, 2, 45, 0
4, 128160, Note_on_c, 2, 47, 100
4, 128400, Note_on_c, 2, 47, 0
4, 128400, Note_on_c, 2, 48, 100
4, 128640, Note_on_c, 2, 48, 0
4, 128640, Note_on_c, 2, 50, 100
4, 128880, Note_on_c, 2, 50, 0
4, 128880, Note_on_c, 2, 43, 100
4, 129120, Note_on_c, 2, 43, 0
4, 129120, Note_on_c, 2, 45, 100
4, 129360, Note_on_c, 2, 45, 0
4, 129360, Note_on_c, 2, 47, 100
4, 129600, Note_on_c, 2, 47, 0
4, 129600, Note_on_c, 2, 40, 100
4, 129840, Note_on_c, 2, 40, 0
4, 130320, Note_on_c, 2, 52, 100
4, 130560, Note_on_c, 2, 52, 0
4, 131040, Note_on_c, 2, 45, 100
4, 131280, Note_on_c, 2, 45, 0
4, 131760, Note_on_c, 2, 43, 100
4, 132000, Note_on_c, 2, 43, 0
4, 132000, Note_on_c, 2, 45, 100
4, 132240, Note_on_c, 2, 45, 0
4, 132240, Note_on_c, 2, 47, 100
4, 132480, Note_on_c, 2, 47, 0
4, 132480, Note_on_c, 2, 48, 100
4, 132720, Note_on_c, 2, 48, 0
4, 132720, Note_on_c, 2, 47, 100
4, 132960, Note_on_c, 2, 47, 0
4, 132960, Note_on_c, 2, 45, 100
4, 133200, Note_on_c, 2, 45, 0
4, 133200, Note_on_c, 2, 47, 100
4, 133440, Note_on_c, 2, 47, 0
4, 133440, Note_on_c, 2, 43, 100
4, 133680, Note_on_c, 2, 43, 0
4, 133680, Note_on_c, 2, 45, 100
4, 133920, Note_on_c, 2, 45, 0
4, 133920, Note_on_c, 2, 47, 100
4, 134880, Note_on_c, 2, 47, 0
4, 134880, Note_on_c, 2, 45, 100
4, 135120, Note_on_c, 2, 45, 0
4, 135120, Note_on_c, 2, 43, 100
4, 135360, Note_on_c, 2, 43, 0
4, 135360, Note_on_c, 2, 50, 100
4, 135840, Note_on_c, 2, 50, 0
4, 135840, Note_on_c, 2, 38, 100
4, 136080, Note_on_c, 2, 38, 0
4, 136080, Note_on_c, 2, 43, 100
4, 136560, Note_on_c, 2, 43, 0
4, 136560, Note_on_c, 2, 31, 100
4, 136800, Note_on_c, 2, 31, 0
4, 136800, Note_on_c, 2, 31, 100
4, 137280, Note_on_c, 2, 31, 0
4, 137280, Note_on_c, 2, 43, 100
4, 137520, Note_on_c, 2, 43, 0
4, 137520, Note_on_c, 2, 43, 100
4, 138240, Note_on_c, 2, 43, 0
4, 138240, End_track
5, 0, Start_track
5, 0, MIDI_port, 0
5, 0, Title_t, "The Goldberg Variations - BWV 988"
5, 0, End_track
6, 0, Start_track
6, 0, MIDI_port, 0
6, 0, Title_t, "Aria with 30 Variations for Harpsichord with 2 Manuals"
6, 0, End_track
7, 0, Start_track
7, 0, MIDI_port, 0
7, 0, Title_t, "--------------------------------------"
7, 0, End_track
8, 0, Start_track
8, 0, MIDI_port, 0
8, 0, Title_t, "Variatio 24 a 1 Clav. Canone all'Ottava"
8, 0, End_track
9, 0, Start_track
9, 0, MIDI_port, 0
9, 0, Title_t, "--------------------------------------"
9, 0, End_track
10, 0, Start_track
10, 0, MIDI_port, 0
10, 0, Title_t, "Sequenced with Cakewalk Pro Audio by"
10, 0, End_track
11, 0, Start_track
11, 0, MIDI_port, 0
11, 0, Title_t, "David J. Grossman - dave@unpronounceable.com"
11, 0, End_track
12, 0, Start_track
12, 0, MIDI_port, 0
12, 0, Title_t, "This and other Bach MIDI files can be found at:"
12, 0, End_track
13, 0, Start_track
13, 0, MIDI_port, 0
13, 0, Title_t, "Dave's J.S. Bach Page"
13, 0, End_track
14, 0, Start_track
14, 0, MIDI_port, 0
14, 0, Title_t, "http://www.unpronounceable.com/bach"
14, 0, End_track
15, 0, Start_track
15, 0, MIDI_port, 0
15, 0, Title_t, "--------------------------------------"
15, 0, End_track
16, 0, Start_track
16, 0, MIDI_port, 0
16, 0, Title_t, "Original Filename: 988-v24.mid"
16, 0, End_track
17, 0, Start_track
17, 0, MIDI_port, 0
17, 0, Title_t, "Last Modified: March 24, 1997"
17, 0, End_track
0, 0, End_of_file
