0, 0, Header, 1, 17, 480
1, 0, Start_track
1, 0, Title_t, "untitled"
1, 0, SMPTE_offset, 96, 0, 3, 0, 0
1, 0, Time_signature, 3, 2, 24, 8
1, 0, Key_signature, 1, "major"
1, 0, Tempo, 1200000
1, 0, Marker_t, "A"
1, 23040, Marker_t, "A'"
1, 46080, Marker_t, "B"
1, 69120, Marker_t, "B'"
1, 69120, End_track
2, 0, Start_track
2, 0, MIDI_port, 0
2, 0, Title_t, "Solo Harpsichord with 2 Manuals"
2, 0, Program_c, 0, 6
2, 0, Control_c, 0, 7, 100
2, 0, Control_c, 0, 10, 74
2, 0, Note_on_c, 0, 71, 100
2, 60, Note_on_c, 0, 71, 0
2, 60, Note_on_c, 0, 72, 100
2, 120, Note_on_c, 0, 72, 0
2, 120, Note_on_c, 0, 71, 100
2, 180, Note_on_c, 0, 71, 0
2, 180, Note_on_c, 0, 69, 100
2, 240, Note_on_c, 0, 69, 0
2, 240, Note_on_c, 0, 71, 100
2, 540, Note_on_c, 0, 71, 0
2, 540, Note_on_c, 0, 66, 100
2, 600, Note_on_c, 0, 66, 0
2, 600, Note_on_c, 0, 67, 100
2, 660, Note_on_c, 0, 67, 0
2, 660, Note_on_c, 0, 69, 100
2, 720, Note_on_c, 0, 69, 0
2, 720, Note_on_c, 0, 71, 100
2, 840, Note_on_c, 0, 71, 0
2, 840, Note_on_c, 0, 72, 100
2, 960, Note_on_c, 0, 72, 0
2, 960, Note_on_c, 0, 74, 100
2, 990, Note_on_c, 0, 74, 0
2, 990, Note_on_c, 0, 72, 100
2, 1080, Note_on_c, 0, 72, 0
2, 1080, Note_on_c, 0, 71, 100
2, 1200, Note_on_c, 0, 71, 0
2, 1200, Note_on_c, 0, 69, 100
2, 1320, Note_on_c, 0, 69, 0
2, 1320, Note_on_c, 0, 67, 100
2, 1440, Note_on_c, 0, 67, 0
2, 1440, Note_on_c, 0, 74, 100
2, 1500, Note_on_c, 0, 74, 0
2, 1500, Note_on_c, 0, 76, 100
2, 1560, Note_on_c, 0, 76, 0
2, 1560, Note_on_c, 0, 74, 100
2, 1620, Note_on_c, 0, 74, 0
2, 1620, Note_on_c, 0, 73, 100
2, 1680, Note_on_c, 0, 73, 0
2, 1680, Note_on_c, 0, 74, 100
2, 1980, Note_on_c, 0, 74, 0
2, 1980, Note_on_c, 0, 73, 100
2, 2040, Note_on_c, 0, 73, 0
2, 2040, Note_on_c, 0, 74, 100
2, 2100, Note_on_c, 0, 74, 0
2, 2100, Note_on_c, 0, 76, 100
2, 2160, Note_on_c, 0, 76, 0
2, 2160, Note_on_c, 0, 78, 100
2, 2280, Note_on_c, 0, 78, 0
2, 2280, Note_on_c, 0, 79, 100
2, 2400, Note_on_c, 0, 79, 0
2, 2400, Note_on_c, 0, 81, 100
2, 2430, Note_on_c, 0, 81, 0
2, 2430, Note_on_c, 0, 79, 100
2, 2520, Note_on_c, 0, 79, 0
2, 2520, Note_on_c, 0, 78, 100
2, 2640, Note_on_c, 0, 78, 0
2, 2640, Note_on_c, 0, 76, 100
2, 2760, Note_on_c, 0, 76, 0
2, 2760, Note_on_c, 0, 74, 100
2, 2880, Note_on_c, 0, 74, 0
2, 2880, Note_on_c, 0, 79, 100
2, 2940, Note_on_c, 0, 79, 0
2, 2940, Note_on_c, 0, 81, 100
2, 3000, Note_on_c, 0, 81, 0
2, 3000, Note_on_c, 0, 79, 100
2, 3060, Note_on_c, 0, 79, 0
2, 3060, Note_on_c, 0, 78, 100
2, 3120, Note_on_c, 0, 78, 0
2, 3120, Note_on_c, 0, 79, 100
2, 3420, Note_on_c, 0, 79, 0
2, 3420, Note_on_c, 0, 78, 100
2, 3480, Note_on_c, 0, 78, 0
2, 3480, Note_on_c, 0, 76, 100
2, 3540, Note_on_c, 0, 76, 0
2, 3540, Note_on_c, 0, 78, 100
2, 3600, Note_on_c, 0, 78, 0
2, 3600, Note_on_c, 0, 79, 100
2, 3720, Note_on_c, 0, 79, 0
2, 3720, Note_on_c, 0, 76, 100
2, 3840, Note_on_c, 0, 76, 0
2, 3840, Note_on_c, 0, 69, 100
2, 3960, Note_on_c, 0, 69, 0
2, 3960, Note_on_c, 0, 83, 100
2, 4080, Note_on_c, 0, 83, 0
2, 4080, Note_on_c, 0, 81, 100
2, 4200, Note_on_c, 0, 81, 0
2, 4200, Note_on_c, 0, 79, 100
2, 4320, Note_on_c, 0, 79, 0
2, 4320, Note_on_c, 0, 79, 100
2, 4335, Note_on_c, 0, 79, 0
2, 4335, Note_on_c, 0, 78, 100
2, 4380, Note_on_c, 0, 78, 0
2, 4380, Note_on_c, 0, 76, 100
2, 4440, Note_on_c, 0, 76, 0
2, 4440, Note_on_c, 0, 78, 100
2, 4500, Note_on_c, 0, 78, 0
2, 4500, Note_on_c, 0, 76, 100
2, 4560, Note_on_c, 0, 76, 0
2, 4560, Note_on_c, 0, 74, 100
2, 4860, Note_on_c, 0, 74, 0
2, 4860, Note_on_c, 0, 73, 100
2, 4920, Note_on_c, 0, 73, 0
2, 4920, Note_on_c, 0, 74, 100
2, 4980, Note_on_c, 0, 74, 0
2, 4980, Note_on_c, 0, 76, 100
2, 5040, Note_on_c, 0, 76, 0
2, 5040, Note_on_c, 0, 78, 100
2, 5160, Note_on_c, 0, 78, 0
2, 5160, Note_on_c, 0, 79, 100
2, 5280, Note_on_c, 0, 79, 0
2, 5280, Note_on_c, 0, 81, 100
2, 5400, Note_on_c, 0, 81, 0
2, 5400, Note_on_c, 0, 83, 100
2, 5460, Note_on_c, 0, 83, 0
2, 5460, Note_on_c, 0, 84, 100
2, 5520, Note_on_c, 0, 84, 0
2, 5520, Note_on_c, 0, 83, 100
2, 5640, Note_on_c, 0, 83, 0
2, 5640, Note_on_c, 0, 81, 100
2, 5760, Note_on_c, 0, 81, 0
2, 5760, Note_on_c, 0, 79, 100
2, 5820, Note_on_c, 0, 79, 0
2, 5820, Note_on_c, 0, 77, 100
2, 5880, Note_on_c, 0, 77, 0
2, 5880, Note_on_c, 0, 76, 100
2, 6000, Note_on_c, 0, 76, 0
2, 6000, Note_on_c, 0, 77, 100
2, 6030, Note_on_c, 0, 77, 0
2, 6030, Note_on_c, 0, 76, 100
2, 6060, Note_on_c, 0, 76, 0
2, 6060, Note_on_c, 0, 77, 100
2, 6300, Note_on_c, 0, 77, 0
2, 6300, Note_on_c, 0, 74, 100
2, 6360, Note_on_c, 0, 74, 0
2, 6360, Note_on_c, 0, 79, 100
2, 6420, Note_on_c, 0, 79, 0
2, 6420, Note_on_c, 0, 81, 100
2, 6480, Note_on_c, 0, 81, 0
2, 6480, Note_on_c, 0, 83, 100
2, 6540, Note_on_c, 0, 83, 0
2, 6540, Note_on_c, 0, 84, 100
2, 6600, Note_on_c, 0, 84, 0
2, 6600, Note_on_c, 0, 86, 100
2, 6720, Note_on_c, 0, 86, 0
2, 6720, Note_on_c, 0, 84, 100
2, 6840, Note_on_c, 0, 84, 0
2, 6840, Note_on_c, 0, 83, 100
2, 6960, Note_on_c, 0, 83, 0
2, 6960, Note_on_c, 0, 81, 100
2, 7080, Note_on_c, 0, 81, 0
2, 7080, Note_on_c, 0, 79, 100
2, 7200, Note_on_c, 0, 79, 0
2, 7200, Note_on_c, 0, 77, 100
2, 7260, Note_on_c, 0, 77, 0
2, 7260, Note_on_c, 0, 76, 100
2, 7320, Note_on_c, 0, 76, 0
2, 7320, Note_on_c, 0, 74, 100
2, 7440, Note_on_c, 0, 74, 0
2, 7440, Note_on_c, 0, 74, 100
2, 7500, Note_on_c, 0, 74, 0
2, 7500, Note_on_c, 0, 76, 100
2, 7740, Note_on_c, 0, 76, 0
2, 7740, Note_on_c, 0, 74, 100
2, 7800, Note_on_c, 0, 74, 0
2, 7800, Note_on_c, 0, 72, 100
2, 7860, Note_on_c, 0, 72, 0
2, 7860, Note_on_c, 0, 71, 100
2, 7920, Note_on_c, 0, 71, 0
2, 7920, Note_on_c, 0, 72, 100
2, 7980, Note_on_c, 0, 72, 0
2, 7980, Note_on_c, 0, 74, 100
2, 8040, Note_on_c, 0, 74, 0
2, 8040, Note_on_c, 0, 76, 100
2, 8160, Note_on_c, 0, 76, 0
2, 8160, Note_on_c, 0, 74, 100
2, 8280, Note_on_c, 0, 74, 0
2, 8280, Note_on_c, 0, 79, 100
2, 8400, Note_on_c, 0, 79, 0
2, 8400, Note_on_c, 0, 76, 100
2, 8520, Note_on_c, 0, 76, 0
2, 8520, Note_on_c, 0, 72, 100
2, 8640, Note_on_c, 0, 72, 0
2, 8640, Note_on_c, 0, 71, 100
2, 8700, Note_on_c, 0, 71, 0
2, 8700, Note_on_c, 0, 69, 100
2, 8760, Note_on_c, 0, 69, 0
2, 8760, Note_on_c, 0, 67, 100
2, 8880, Note_on_c, 0, 67, 0
2, 8880, Note_on_c, 0, 69, 100
2, 9180, Note_on_c, 0, 69, 0
2, 9180, Note_on_c, 0, 67, 100
2, 9240, Note_on_c, 0, 67, 0
2, 9240, Note_on_c, 0, 69, 100
2, 9300, Note_on_c, 0, 69, 0
2, 9300, Note_on_c, 0, 71, 100
2, 9360, Note_on_c, 0, 71, 0
2, 9360, Note_on_c, 0, 72, 100
2, 9420, Note_on_c, 0, 72, 0
2, 9420, Note_on_c, 0, 66, 100
2, 9480, Note_on_c, 0, 66, 0
2, 9480, Note_on_c, 0, 67, 100
2, 9540, Note_on_c, 0, 67, 0
2, 9540, Note_on_c, 0, 69, 100
2, 9600, Note_on_c, 0, 69, 0
2, 9600, Note_on_c, 0, 62, 100
2, 9660, Note_on_c, 0, 62, 0
2, 9660, Note_on_c, 0, 66, 100
2, 9720, Note_on_c, 0, 66, 0
2, 9720, Note_on_c, 0, 64, 100
2, 9780, Note_on_c, 0, 64, 0
2, 9780, Note_on_c, 0, 62, 100
2, 9840, Note_on_c, 0, 62, 0
2, 9840, Note_on_c, 0, 69, 100
2, 9900, Note_on_c, 0, 69, 0
2, 9900, Note_on_c, 0, 67, 100
2, 9960, Note_on_c, 0, 67, 0
2, 9960, Note_on_c, 0, 66, 100
2, 10020, Note_on_c, 0, 66, 0
2, 10020, Note_on_c, 0, 72, 100
2, 10080, Note_on_c, 0, 72, 0
2, 10080, Note_on_c, 0, 72, 100
2, 10140, Note_on_c, 0, 72, 0
2, 10140, Note_on_c, 0, 71, 100
2, 10200, Note_on_c, 0, 71, 0
2, 10200, Note_on_c, 0, 69, 100
2, 10320, Note_on_c, 0, 69, 0
2, 10320, Note_on_c, 0, 71, 100
2, 10620, Note_on_c, 0, 71, 0
2, 10620, Note_on_c, 0, 69, 100
2, 10680, Note_on_c, 0, 69, 0
2, 10680, Note_on_c, 0, 67, 100
2, 10740, Note_on_c, 0, 67, 0
2, 10740, Note_on_c, 0, 66, 100
2, 10800, Note_on_c, 0, 66, 0
2, 10800, Note_on_c, 0, 67, 100
2, 10860, Note_on_c, 0, 67, 0
2, 10860, Note_on_c, 0, 71, 100
2, 10920, Note_on_c, 0, 71, 0
2, 10920, Note_on_c, 0, 74, 100
2, 10980, Note_on_c, 0, 74, 0
2, 10980, Note_on_c, 0, 78, 100
2, 11040, Note_on_c, 0, 78, 0
2, 11040, Note_on_c, 0, 79, 100
2, 11100, Note_on_c, 0, 79, 0
2, 11100, Note_on_c, 0, 78, 100
2, 11160, Note_on_c, 0, 78, 0
2, 11160, Note_on_c, 0, 76, 100
2, 11220, Note_on_c, 0, 76, 0
2, 11220, Note_on_c, 0, 74, 100
2, 11280, Note_on_c, 0, 74, 0
2, 11280, Note_on_c, 0, 78, 100
2, 11340, Note_on_c, 0, 78, 0
2, 11340, Note_on_c, 0, 81, 100
2, 11400, Note_on_c, 0, 81, 0
2, 11400, Note_on_c, 0, 83, 100
2, 11460, Note_on_c, 0, 83, 0
2, 11460, Note_on_c, 0, 84, 100
2, 11520, Note_on_c, 0, 84, 0
2, 11520, Note_on_c, 0, 83, 100
2, 11580, Note_on_c, 0, 83, 0
2, 11580, Note_on_c, 0, 81, 100
2, 11640, Note_on_c, 0, 81, 0
2, 11640, Note_on_c, 0, 79, 100
2, 11820, Note_on_c, 0, 79, 0
2, 11820, Note_on_c, 0, 78, 100
2, 11880, Note_on_c, 0, 78, 0
2, 11880, Note_on_c, 0, 76, 100
2, 12060, Note_on_c, 0, 76, 0
2, 12060, Note_on_c, 0, 75, 100
2, 12120, Note_on_c, 0, 75, 0
2, 12120, Note_on_c, 0, 76, 100
2, 12300, Note_on_c, 0, 76, 0
2, 12300, Note_on_c, 0, 78, 100
2, 12360, Note_on_c, 0, 78, 0
2, 12360, Note_on_c, 0, 79, 100
2, 12540, Note_on_c, 0, 79, 0
2, 12540, Note_on_c, 0, 81, 100
2, 12600, Note_on_c, 0, 81, 0
2, 12600, Note_on_c, 0, 83, 100
2, 12780, Note_on_c, 0, 83, 0
2, 12780, Note_on_c, 0, 79, 100
2, 12840, Note_on_c, 0, 79, 0
2, 12840, Note_on_c, 0, 78, 100
2, 12900, Note_on_c, 0, 78, 0
2, 12900, Note_on_c, 0, 76, 100
2, 12960, Note_on_c, 0, 76, 0
2, 12960, Note_on_c, 0, 81, 100
2, 13020, Note_on_c, 0, 81, 0
2, 13020, Note_on_c, 0, 79, 100
2, 13080, Note_on_c, 0, 79, 0
2, 13080, Note_on_c, 0, 78, 100
2, 13260, Note_on_c, 0, 78, 0
2, 13260, Note_on_c, 0, 76, 100
2, 13320, Note_on_c, 0, 76, 0
2, 13320, Note_on_c, 0, 74, 100
2, 13500, Note_on_c, 0, 74, 0
2, 13500, Note_on_c, 0, 73, 100
2, 13560, Note_on_c, 0, 73, 0
2, 13560, Note_on_c, 0, 74, 100
2, 13740, Note_on_c, 0, 74, 0
2, 13740, Note_on_c, 0, 76, 100
2, 13800, Note_on_c, 0, 76, 0
2, 13800, Note_on_c, 0, 78, 100
2, 13980, Note_on_c, 0, 78, 0
2, 13980, Note_on_c, 0, 79, 100
2, 14040, Note_on_c, 0, 79, 0
2, 14040, Note_on_c, 0, 81, 100
2, 14220, Note_on_c, 0, 81, 0
2, 14220, Note_on_c, 0, 78, 100
2, 14280, Note_on_c, 0, 78, 0
2, 14280, Note_on_c, 0, 76, 100
2, 14340, Note_on_c, 0, 76, 0
2, 14340, Note_on_c, 0, 74, 100
2, 14400, Note_on_c, 0, 74, 0
2, 14400, Note_on_c, 0, 79, 100
2, 14460, Note_on_c, 0, 79, 0
2, 14460, Note_on_c, 0, 81, 100
2, 14520, Note_on_c, 0, 81, 0
2, 14520, Note_on_c, 0, 83, 100
2, 14580, Note_on_c, 0, 83, 0
2, 14580, Note_on_c, 0, 81, 100
2, 14640, Note_on_c, 0, 81, 0
2, 14640, Note_on_c, 0, 79, 100
2, 14760, Note_on_c, 0, 79, 0
2, 14760, Note_on_c, 0, 78, 100
2, 14880, Note_on_c, 0, 78, 0
2, 14880, Note_on_c, 0, 76, 100
2, 14940, Note_on_c, 0, 76, 0
2, 14940, Note_on_c, 0, 78, 100
2, 15000, Note_on_c, 0, 78, 0
2, 15000, Note_on_c, 0, 79, 100
2, 15060, Note_on_c, 0, 79, 0
2, 15060, Note_on_c, 0, 78, 100
2, 15120, Note_on_c, 0, 78, 0
2, 15120, Note_on_c, 0, 76, 100
2, 15240, Note_on_c, 0, 76, 0
2, 15240, Note_on_c, 0, 74, 100
2, 15360, Note_on_c, 0, 74, 0
2, 15360, Note_on_c, 0, 73, 100
2, 15420, Note_on_c, 0, 73, 0
2, 15420, Note_on_c, 0, 74, 100
2, 15480, Note_on_c, 0, 74, 0
2, 15480, Note_on_c, 0, 76, 100
2, 15540, Note_on_c, 0, 76, 0
2, 15540, Note_on_c, 0, 74, 100
2, 15600, Note_on_c, 0, 74, 0
2, 15600, Note_on_c, 0, 73, 100
2, 15720, Note_on_c, 0, 73, 0
2, 15720, Note_on_c, 0, 71, 100
2, 15840, Note_on_c, 0, 71, 0
2, 15840, Note_on_c, 0, 71, 100
2, 15880, Note_on_c, 0, 71, 0
2, 15880, Note_on_c, 0, 69, 100
2, 15920, Note_on_c, 0, 69, 0
2, 15920, Note_on_c, 0, 71, 100
2, 15960, Note_on_c, 0, 71, 0
2, 15960, Note_on_c, 0, 69, 100
2, 16000, Note_on_c, 0, 69, 0
2, 16000, Note_on_c, 0, 71, 100
2, 16040, Note_on_c, 0, 71, 0
2, 16040, Note_on_c, 0, 69, 100
2, 16080, Note_on_c, 0, 69, 0
2, 16080, Note_on_c, 0, 71, 100
2, 16120, Note_on_c, 0, 71, 0
2, 16120, Note_on_c, 0, 69, 100
2, 16160, Note_on_c, 0, 69, 0
2, 16160, Note_on_c, 0, 71, 100
2, 16200, Note_on_c, 0, 71, 0
2, 16200, Note_on_c, 0, 69, 100
2, 16240, Note_on_c, 0, 69, 0
2, 16240, Note_on_c, 0, 71, 100
2, 16280, Note_on_c, 0, 71, 0
2, 16280, Note_on_c, 0, 69, 100
2, 16320, Note_on_c, 0, 69, 0
2, 16320, Note_on_c, 0, 71, 100
2, 16360, Note_on_c, 0, 71, 0
2, 16360, Note_on_c, 0, 69, 100
2, 16400, Note_on_c, 0, 69, 0
2, 16400, Note_on_c, 0, 71, 100
2, 16440, Note_on_c, 0, 71, 0
2, 16440, Note_on_c, 0, 69, 100
2, 16620, Note_on_c, 0, 69, 0
2, 16620, Note_on_c, 0, 73, 100
2, 16680, Note_on_c, 0, 73, 0
2, 16680, Note_on_c, 0, 71, 100
2, 16740, Note_on_c, 0, 71, 0
2, 16740, Note_on_c, 0, 69, 100
2, 16800, Note_on_c, 0, 69, 0
2, 16800, Note_on_c, 0, 71, 100
2, 16860, Note_on_c, 0, 71, 0
2, 16860, Note_on_c, 0, 73, 100
2, 16920, Note_on_c, 0, 73, 0
2, 16920, Note_on_c, 0, 74, 100
2, 16980, Note_on_c, 0, 74, 0
2, 16980, Note_on_c, 0, 76, 100
2, 17040, Note_on_c, 0, 76, 0
2, 17040, Note_on_c, 0, 78, 100
2, 17160, Note_on_c, 0, 78, 0
2, 17160, Note_on_c, 0, 81, 100
2, 17190, Note_on_c, 0, 81, 0
2, 17190, Note_on_c, 0, 79, 100
2, 17220, Note_on_c, 0, 79, 0
2, 17220, Note_on_c, 0, 78, 100
2, 17250, Note_on_c, 0, 78, 0
2, 17250, Note_on_c, 0, 79, 100
2, 17280, Note_on_c, 0, 79, 0
2, 17280, Note_on_c, 0, 81, 100
2, 17340, Note_on_c, 0, 81, 0
2, 17340, Note_on_c, 0, 74, 100
2, 17400, Note_on_c, 0, 74, 0
2, 17400, Note_on_c, 0, 73, 100
2, 17460, Note_on_c, 0, 73, 0
2, 17460, Note_on_c, 0, 74, 100
2, 17520, Note_on_c, 0, 74, 0
2, 17520, Note_on_c, 0, 76, 100
2, 17580, Note_on_c, 0, 76, 0
2, 17580, Note_on_c, 0, 74, 100
2, 17640, Note_on_c, 0, 74, 0
2, 17640, Note_on_c, 0, 73, 100
2, 17700, Note_on_c, 0, 73, 0
2, 17700, Note_on_c, 0, 74, 100
2, 17760, Note_on_c, 0, 74, 0
2, 17760, Note_on_c, 0, 69, 100
2, 17820, Note_on_c, 0, 69, 0
2, 17820, Note_on_c, 0, 74, 100
2, 17880, Note_on_c, 0, 74, 0
2, 17880, Note_on_c, 0, 67, 100
2, 17940, Note_on_c, 0, 67, 0
2, 17940, Note_on_c, 0, 74, 100
2, 18000, Note_on_c, 0, 74, 0
2, 18000, Note_on_c, 0, 66, 100
2, 18060, Note_on_c, 0, 66, 0
2, 18060, Note_on_c, 0, 74, 100
2, 18120, Note_on_c, 0, 74, 0
2, 18120, Note_on_c, 0, 64, 100
2, 18180, Note_on_c, 0, 64, 0
2, 18180, Note_on_c, 0, 74, 100
2, 18240, Note_on_c, 0, 74, 0
2, 18240, Note_on_c, 0, 66, 100
2, 18300, Note_on_c, 0, 66, 0
2, 18300, Note_on_c, 0, 74, 100
2, 18360, Note_on_c, 0, 74, 0
2, 18360, Note_on_c, 0, 69, 100
2, 18420, Note_on_c, 0, 69, 0
2, 18420, Note_on_c, 0, 74, 100
2, 18480, Note_on_c, 0, 74, 0
2, 18480, Note_on_c, 0, 66, 100
2, 18540, Note_on_c, 0, 66, 0
2, 18540, Note_on_c, 0, 74, 100
2, 18600, Note_on_c, 0, 74, 0
2, 18600, Note_on_c, 0, 62, 100
2, 18660, Note_on_c, 0, 62, 0
2, 18660, Note_on_c, 0, 72, 100
2, 18720, Note_on_c, 0, 72, 0
2, 18720, Note_on_c, 0, 71, 100
2, 18780, Note_on_c, 0, 71, 0
2, 18780, Note_on_c, 0, 74, 100
2, 18840, Note_on_c, 0, 74, 0
2, 18840, Note_on_c, 0, 73, 100
2, 18900, Note_on_c, 0, 73, 0
2, 18900, Note_on_c, 0, 74, 100
2, 18960, Note_on_c, 0, 74, 0
2, 18960, Note_on_c, 0, 76, 100
2, 19020, Note_on_c, 0, 76, 0
2, 19020, Note_on_c, 0, 74, 100
2, 19080, Note_on_c, 0, 74, 0
2, 19080, Note_on_c, 0, 73, 100
2, 19140, Note_on_c, 0, 73, 0
2, 19140, Note_on_c, 0, 74, 100
2, 19200, Note_on_c, 0, 74, 0
2, 19200, Note_on_c, 0, 71, 100
2, 19260, Note_on_c, 0, 71, 0
2, 19260, Note_on_c, 0, 74, 100
2, 19320, Note_on_c, 0, 74, 0
2, 19320, Note_on_c, 0, 69, 100
2, 19380, Note_on_c, 0, 69, 0
2, 19380, Note_on_c, 0, 74, 100
2, 19440, Note_on_c, 0, 74, 0
2, 19440, Note_on_c, 0, 67, 100
2, 19500, Note_on_c, 0, 67, 0
2, 19500, Note_on_c, 0, 74, 100
2, 19560, Note_on_c, 0, 74, 0
2, 19560, Note_on_c, 0, 66, 100
2, 19620, Note_on_c, 0, 66, 0
2, 19620, Note_on_c, 0, 74, 100
2, 19680, Note_on_c, 0, 74, 0
2, 19680, Note_on_c, 0, 67, 100
2, 19740, Note_on_c, 0, 67, 0
2, 19740, Note_on_c, 0, 74, 100
2, 19800, Note_on_c, 0, 74, 0
2, 19800, Note_on_c, 0, 71, 100
2, 19860, Note_on_c, 0, 71, 0
2, 19860, Note_on_c, 0, 74, 100
2, 19920, Note_on_c, 0, 74, 0
2, 19920, Note_on_c, 0, 67, 100
2, 19980, Note_on_c, 0, 67, 0
2, 19980, Note_on_c, 0, 74, 100
2, 20040, Note_on_c, 0, 74, 0
2, 20040, Note_on_c, 0, 64, 100
2, 20100, Note_on_c, 0, 64, 0
2, 20100, Note_on_c, 0, 74, 100
2, 20160, Note_on_c, 0, 74, 0
2, 20160, Note_on_c, 0, 73, 100
2, 20220, Note_on_c, 0, 73, 0
2, 20220, Note_on_c, 0, 67, 100
2, 20280, Note_on_c, 0, 67, 0
2, 20280, Note_on_c, 0, 66, 100
2, 20340, Note_on_c, 0, 66, 0
2, 20340, Note_on_c, 0, 67, 100
2, 20400, Note_on_c, 0, 67, 0
2, 20400, Note_on_c, 0, 69, 100
2, 20460, Note_on_c, 0, 69, 0
2, 20460, Note_on_c, 0, 67, 100
2, 20520, Note_on_c, 0, 67, 0
2, 20520, Note_on_c, 0, 66, 100
2, 20580, Note_on_c, 0, 66, 0
2, 20580, Note_on_c, 0, 67, 100
2, 20640, Note_on_c, 0, 67, 0
2, 20640, Note_on_c, 0, 76, 100
2, 20700, Note_on_c, 0, 76, 0
2, 20700, Note_on_c, 0, 73, 100
2, 20760, Note_on_c, 0, 73, 0
2, 20760, Note_on_c, 0, 71, 100
2, 20820, Note_on_c, 0, 71, 0
2, 20820, Note_on_c, 0, 73, 100
2, 20880, Note_on_c, 0, 73, 0
2, 20880, Note_on_c, 0, 74, 100
2, 20940, Note_on_c, 0, 74, 0
2, 20940, Note_on_c, 0, 73, 100
2, 21000, Note_on_c, 0, 73, 0
2, 21000, Note_on_c, 0, 71, 100
2, 21060, Note_on_c, 0, 71, 0
2, 21060, Note_on_c, 0, 73, 100
2, 21120, Note_on_c, 0, 73, 0
2, 21120, Note_on_c, 0, 79, 100
2, 21180, Note_on_c, 0, 79, 0
2, 21180, Note_on_c, 0, 76, 100
2, 21240, Note_on_c, 0, 76, 0
2, 21240, Note_on_c, 0, 74, 100
2, 21300, Note_on_c, 0, 74, 0
2, 21300, Note_on_c, 0, 76, 100
2, 21360, Note_on_c, 0, 76, 0
2, 21360, Note_on_c, 0, 81, 100
2, 21420, Note_on_c, 0, 81, 0
2, 21420, Note_on_c, 0, 79, 100
2, 21480, Note_on_c, 0, 79, 0
2, 21480, Note_on_c, 0, 78, 100
2, 21540, Note_on_c, 0, 78, 0
2, 21540, Note_on_c, 0, 76, 100
2, 21600, Note_on_c, 0, 76, 0
2, 21600, Note_on_c, 0, 78, 100
2, 21720, Note_on_c, 0, 78, 0
2, 21720, Note_on_c, 0, 73, 100
2, 21840, Note_on_c, 0, 73, 0
2, 21840, Note_on_c, 0, 73, 100
2, 21960, Note_on_c, 0, 73, 0
2, 21960, Note_on_c, 0, 74, 100
2, 22080, Note_on_c, 0, 74, 0
2, 22080, Note_on_c, 0, 74, 100
2, 22200, Note_on_c, 0, 74, 0
2, 22200, Note_on_c, 0, 67, 100
2, 22320, Note_on_c, 0, 67, 0
2, 22320, Note_on_c, 0, 67, 100
2, 22440, Note_on_c, 0, 67, 0
2, 22440, Note_on_c, 0, 66, 100
2, 22560, Note_on_c, 0, 66, 0
2, 22560, Note_on_c, 0, 66, 100
2, 23040, Note_on_c, 0, 66, 0
2, 23040, Note_on_c, 0, 71, 100
2, 23100, Note_on_c, 0, 71, 0
2, 23100, Note_on_c, 0, 72, 100
2, 23160, Note_on_c, 0, 72, 0
2, 23160, Note_on_c, 0, 71, 100
2, 23220, Note_on_c, 0, 71, 0
2, 23220, Note_on_c, 0, 69, 100
2, 23280, Note_on_c, 0, 69, 0
2, 23280, Note_on_c, 0, 71, 100
2, 23580, Note_on_c, 0, 71, 0
2, 23580, Note_on_c, 0, 66, 100
2, 23640, Note_on_c, 0, 66, 0
2, 23640, Note_on_c, 0, 67, 100
2, 23700, Note_on_c, 0, 67, 0
2, 23700, Note_on_c, 0, 69, 100
2, 23760, Note_on_c, 0, 69, 0
2, 23760, Note_on_c, 0, 71, 100
2, 23880, Note_on_c, 0, 71, 0
2, 23880, Note_on_c, 0, 72, 100
2, 24000, Note_on_c, 0, 72, 0
2, 24000, Note_on_c, 0, 74, 100
2, 24030, Note_on_c, 0, 74, 0
2, 24030, Note_on_c, 0, 72, 100
2, 24120, Note_on_c, 0, 72, 0
2, 24120, Note_on_c, 0, 71, 100
2, 24240, Note_on_c, 0, 71, 0
2, 24240, Note_on_c, 0, 69, 100
2, 24360, Note_on_c, 0, 69, 0
2, 24360, Note_on_c, 0, 67, 100
2, 24480, Note_on_c, 0, 67, 0
2, 24480, Note_on_c, 0, 74, 100
2, 24540, Note_on_c, 0, 74, 0
2, 24540, Note_on_c, 0, 76, 100
2, 24600, Note_on_c, 0, 76, 0
2, 24600, Note_on_c, 0, 74, 100
2, 24660, Note_on_c, 0, 74, 0
2, 24660, Note_on_c, 0, 73, 100
2, 24720, Note_on_c, 0, 73, 0
2, 24720, Note_on_c, 0, 74, 100
2, 25020, Note_on_c, 0, 74, 0
2, 25020, Note_on_c, 0, 73, 100
2, 25080, Note_on_c, 0, 73, 0
2, 25080, Note_on_c, 0, 74, 100
2, 25140, Note_on_c, 0, 74, 0
2, 25140, Note_on_c, 0, 76, 100
2, 25200, Note_on_c, 0, 76, 0
2, 25200, Note_on_c, 0, 78, 100
2, 25320, Note_on_c, 0, 78, 0
2, 25320, Note_on_c, 0, 79, 100
2, 25440, Note_on_c, 0, 79, 0
2, 25440, Note_on_c, 0, 81, 100
2, 25470, Note_on_c, 0, 81, 0
2, 25470, Note_on_c, 0, 79, 100
2, 25560, Note_on_c, 0, 79, 0
2, 25560, Note_on_c, 0, 78, 100
2, 25680, Note_on_c, 0, 78, 0
2, 25680, Note_on_c, 0, 76, 100
2, 25800, Note_on_c, 0, 76, 0
2, 25800, Note_on_c, 0, 74, 100
2, 25920, Note_on_c, 0, 74, 0
2, 25920, Note_on_c, 0, 79, 100
2, 25980, Note_on_c, 0, 79, 0
2, 25980, Note_on_c, 0, 81, 100
2, 26040, Note_on_c, 0, 81, 0
2, 26040, Note_on_c, 0, 79, 100
2, 26100, Note_on_c, 0, 79, 0
2, 26100, Note_on_c, 0, 78, 100
2, 26160, Note_on_c, 0, 78, 0
2, 26160, Note_on_c, 0, 79, 100
2, 26460, Note_on_c, 0, 79, 0
2, 26460, Note_on_c, 0, 78, 100
2, 26520, Note_on_c, 0, 78, 0
2, 26520, Note_on_c, 0, 76, 100
2, 26580, Note_on_c, 0, 76, 0
2, 26580, Note_on_c, 0, 78, 100
2, 26640, Note_on_c, 0, 78, 0
2, 26640, Note_on_c, 0, 79, 100
2, 26760, Note_on_c, 0, 79, 0
2, 26760, Note_on_c, 0, 76, 100
2, 26880, Note_on_c, 0, 76, 0
2, 26880, Note_on_c, 0, 69, 100
2, 27000, Note_on_c, 0, 69, 0
2, 27000, Note_on_c, 0, 83, 100
2, 27120, Note_on_c, 0, 83, 0
2, 27120, Note_on_c, 0, 81, 100
2, 27240, Note_on_c, 0, 81, 0
2, 27240, Note_on_c, 0, 79, 100
2, 27360, Note_on_c, 0, 79, 0
2, 27360, Note_on_c, 0, 79, 100
2, 27375, Note_on_c, 0, 79, 0
2, 27375, Note_on_c, 0, 78, 100
2, 27420, Note_on_c, 0, 78, 0
2, 27420, Note_on_c, 0, 76, 100
2, 27480, Note_on_c, 0, 76, 0
2, 27480, Note_on_c, 0, 78, 100
2, 27540, Note_on_c, 0, 78, 0
2, 27540, Note_on_c, 0, 76, 100
2, 27600, Note_on_c, 0, 76, 0
2, 27600, Note_on_c, 0, 74, 100
2, 27900, Note_on_c, 0, 74, 0
2, 27900, Note_on_c, 0, 73, 100
2, 27960, Note_on_c, 0, 73, 0
2, 27960, Note_on_c, 0, 74, 100
2, 28020, Note_on_c, 0, 74, 0
2, 28020, Note_on_c, 0, 76, 100
2, 28080, Note_on_c, 0, 76, 0
2, 28080, Note_on_c, 0, 78, 100
2, 28200, Note_on_c, 0, 78, 0
2, 28200, Note_on_c, 0, 79, 100
2, 28320, Note_on_c, 0, 79, 0
2, 28320, Note_on_c, 0, 81, 100
2, 28440, Note_on_c, 0, 81, 0
2, 28440, Note_on_c, 0, 83, 100
2, 28500, Note_on_c, 0, 83, 0
2, 28500, Note_on_c, 0, 84, 100
2, 28560, Note_on_c, 0, 84, 0
2, 28560, Note_on_c, 0, 83, 100
2, 28680, Note_on_c, 0, 83, 0
2, 28680, Note_on_c, 0, 81, 100
2, 28800, Note_on_c, 0, 81, 0
2, 28800, Note_on_c, 0, 79, 100
2, 28860, Note_on_c, 0, 79, 0
2, 28860, Note_on_c, 0, 77, 100
2, 28920, Note_on_c, 0, 77, 0
2, 28920, Note_on_c, 0, 76, 100
2, 29040, Note_on_c, 0, 76, 0
2, 29040, Note_on_c, 0, 77, 100
2, 29070, Note_on_c, 0, 77, 0
2, 29070, Note_on_c, 0, 76, 100
2, 29100, Note_on_c, 0, 76, 0
2, 29100, Note_on_c, 0, 77, 100
2, 29340, Note_on_c, 0, 77, 0
2, 29340, Note_on_c, 0, 74, 100
2, 29400, Note_on_c, 0, 74, 0
2, 29400, Note_on_c, 0, 79, 100
2, 29460, Note_on_c, 0, 79, 0
2, 29460, Note_on_c, 0, 81, 100
2, 29520, Note_on_c, 0, 81, 0
2, 29520, Note_on_c, 0, 83, 100
2, 29580, Note_on_c, 0, 83, 0
2, 29580, Note_on_c, 0, 84, 100
2, 29640, Note_on_c, 0, 84, 0
2, 29640, Note_on_c, 0, 86, 100
2, 29760, Note_on_c, 0, 86, 0
2, 29760, Note_on_c, 0, 84, 100
2, 29880, Note_on_c, 0, 84, 0
2, 29880, Note_on_c, 0, 83, 100
2, 30000, Note_on_c, 0, 83, 0
2, 30000, Note_on_c, 0, 81, 100
2, 30120, Note_on_c, 0, 81, 0
2, 30120, Note_on_c, 0, 79, 100
2, 30240, Note_on_c, 0, 79, 0
2, 30240, Note_on_c, 0, 77, 100
2, 30300, Note_on_c, 0, 77, 0
2, 30300, Note_on_c, 0, 76, 100
2, 30360, Note_on_c, 0, 76, 0
2, 30360, Note_on_c, 0, 74, 100
2, 30480, Note_on_c, 0, 74, 0
2, 30480, Note_on_c, 0, 74, 100
2, 30540, Note_on_c, 0, 74, 0
2, 30540, Note_on_c, 0, 76, 100
2, 30780, Note_on_c, 0, 76, 0
2, 30780, Note_on_c, 0, 74, 100
2, 30840, Note_on_c, 0, 74, 0
2, 30840, Note_on_c, 0, 72, 100
2, 30900, Note_on_c, 0, 72, 0
2, 30900, Note_on_c, 0, 71, 100
2, 30960, Note_on_c, 0, 71, 0
2, 30960, Note_on_c, 0, 72, 100
2, 31020, Note_on_c, 0, 72, 0
2, 31020, Note_on_c, 0, 74, 100
2, 31080, Note_on_c, 0, 74, 0
2, 31080, Note_on_c, 0, 76, 100
2, 31200, Note_on_c, 0, 76, 0
2, 31200, Note_on_c, 0, 74, 100
2, 31320, Note_on_c, 0, 74, 0
2, 31320, Note_on_c, 0, 79, 100
2, 31440, Note_on_c, 0, 79, 0
2, 31440, Note_on_c, 0, 76, 100
2, 31560, Note_on_c, 0, 76, 0
2, 31560, Note_on_c, 0, 72, 100
2, 31680, Note_on_c, 0, 72, 0
2, 31680, Note_on_c, 0, 71, 100
2, 31740, Note_on_c, 0, 71, 0
2, 31740, Note_on_c, 0, 69, 100
2, 31800, Note_on_c, 0, 69, 0
2, 31800, Note_on_c, 0, 67, 100
2, 31920, Note_on_c, 0, 67, 0
2, 31920, Note_on_c, 0, 69, 100
2, 32220, Note_on_c, 0, 69, 0
2, 32220, Note_on_c, 0, 67, 100
2, 32280, Note_on_c, 0, 67, 0
2, 32280, Note_on_c, 0, 69, 100
2, 32340, Note_on_c, 0, 69, 0
2, 32340, Note_on_c, 0, 71, 100
2, 32400, Note_on_c, 0, 71, 0
2, 32400, Note_on_c, 0, 72, 100
2, 32460, Note_on_c, 0, 72, 0
2, 32460, Note_on_c, 0, 66, 100
2, 32520, Note_on_c, 0, 66, 0
2, 32520, Note_on_c, 0, 67, 100
2, 32580, Note_on_c, 0, 67, 0
2, 32580, Note_on_c, 0, 69, 100
2, 32640, Note_on_c, 0, 69, 0
2, 32640, Note_on_c, 0, 62, 100
2, 32700, Note_on_c, 0, 62, 0
2, 32700, Note_on_c, 0, 66, 100
2, 32760, Note_on_c, 0, 66, 0
2, 32760, Note_on_c, 0, 64, 100
2, 32820, Note_on_c, 0, 64, 0
2, 32820, Note_on_c, 0, 62, 100
2, 32880, Note_on_c, 0, 62, 0
2, 32880, Note_on_c, 0, 69, 100
2, 32940, Note_on_c, 0, 69, 0
2, 32940, Note_on_c, 0, 67, 100
2, 33000, Note_on_c, 0, 67, 0
2, 33000, Note_on_c, 0, 66, 100
2, 33060, Note_on_c, 0, 66, 0
2, 33060, Note_on_c, 0, 72, 100
2, 33120, Note_on_c, 0, 72, 0
2, 33120, Note_on_c, 0, 72, 100
2, 33180, Note_on_c, 0, 72, 0
2, 33180, Note_on_c, 0, 71, 100
2, 33240, Note_on_c, 0, 71, 0
2, 33240, Note_on_c, 0, 69, 100
2, 33360, Note_on_c, 0, 69, 0
2, 33360, Note_on_c, 0, 71, 100
2, 33660, Note_on_c, 0, 71, 0
2, 33660, Note_on_c, 0, 69, 100
2, 33720, Note_on_c, 0, 69, 0
2, 33720, Note_on_c, 0, 67, 100
2, 33780, Note_on_c, 0, 67, 0
2, 33780, Note_on_c, 0, 66, 100
2, 33840, Note_on_c, 0, 66, 0
2, 33840, Note_on_c, 0, 67, 100
2, 33900, Note_on_c, 0, 67, 0
2, 33900, Note_on_c, 0, 71, 100
2, 33960, Note_on_c, 0, 71, 0
2, 33960, Note_on_c, 0, 74, 100
2, 34020, Note_on_c, 0, 74, 0
2, 34020, Note_on_c, 0, 78, 100
2, 34080, Note_on_c, 0, 78, 0
2, 34080, Note_on_c, 0, 79, 100
2, 34140, Note_on_c, 0, 79, 0
2, 34140, Note_on_c, 0, 78, 100
2, 34200, Note_on_c, 0, 78, 0
2, 34200, Note_on_c, 0, 76, 100
2, 34260, Note_on_c, 0, 76, 0
2, 34260, Note_on_c, 0, 74, 100
2, 34320, Note_on_c, 0, 74, 0
2, 34320, Note_on_c, 0, 78, 100
2, 34380, Note_on_c, 0, 78, 0
2, 34380, Note_on_c, 0, 81, 100
2, 34440, Note_on_c, 0, 81, 0
2, 34440, Note_on_c, 0, 83, 100
2, 34500, Note_on_c, 0, 83, 0
2, 34500, Note_on_c, 0, 84, 100
2, 34560, Note_on_c, 0, 84, 0
2, 34560, Note_on_c, 0, 83, 100
2, 34620, Note_on_c, 0, 83, 0
2, 34620, Note_on_c, 0, 81, 100
2, 34680, Note_on_c, 0, 81, 0
2, 34680, Note_on_c, 0, 79, 100
2, 34860, Note_on_c, 0, 79, 0
2, 34860, Note_on_c, 0, 78, 100
2, 34920, Note_on_c, 0, 78, 0
2, 34920, Note_on_c, 0, 76, 100
2, 35100, Note_on_c, 0, 76, 0
2, 35100, Note_on_c, 0, 75, 100
2, 35160, Note_on_c, 0, 75, 0
2, 35160, Note_on_c, 0, 76, 100
2, 35340, Note_on_c, 0, 76, 0
2, 35340, Note_on_c, 0, 78, 100
2, 35400, Note_on_c, 0, 78, 0
2, 35400, Note_on_c, 0, 79, 100
2, 35580, Note_on_c, 0, 79, 0
2, 35580, Note_on_c, 0, 81, 100
2, 35640, Note_on_c, 0, 81, 0
2, 35640, Note_on_c, 0, 83, 100
2, 35820, Note_on_c, 0, 83, 0
2, 35820, Note_on_c, 0, 79, 100
2, 35880, Note_on_c, 0, 79, 0
2, 35880, Note_on_c, 0, 78, 100
2, 35940, Note_on_c, 0, 78, 0
2, 35940, Note_on_c, 0, 76, 100
2, 36000, Note_on_c, 0, 76, 0
2, 36000, Note_on_c, 0, 81, 100
2, 36060, Note_on_c, 0, 81, 0
2, 36060, Note_on_c, 0, 79, 100
2, 36120, Note_on_c, 0, 79, 0
2, 36120, Note_on_c, 0, 78, 100
2, 36300, Note_on_c, 0, 78, 0
2, 36300, Note_on_c, 0, 76, 100
2, 36360, Note_on_c, 0, 76, 0
2, 36360, Note_on_c, 0, 74, 100
2, 36540, Note_on_c, 0, 74, 0
2, 36540, Note_on_c, 0, 73, 100
2, 36600, Note_on_c, 0, 73, 0
2, 36600, Note_on_c, 0, 74, 100
2, 36780, Note_on_c, 0, 74, 0
2, 36780, Note_on_c, 0, 76, 100
2, 36840, Note_on_c, 0, 76, 0
2, 36840, Note_on_c, 0, 78, 100
2, 37020, Note_on_c, 0, 78, 0
2, 37020, Note_on_c, 0, 79, 100
2, 37080, Note_on_c, 0, 79, 0
2, 37080, Note_on_c, 0, 81, 100
2, 37260, Note_on_c, 0, 81, 0
2, 37260, Note_on_c, 0, 78, 100
2, 37320, Note_on_c, 0, 78, 0
2, 37320, Note_on_c, 0, 76, 100
2, 37380, Note_on_c, 0, 76, 0
2, 37380, Note_on_c, 0, 74, 100
2, 37440, Note_on_c, 0, 74, 0
2, 37440, Note_on_c, 0, 79, 100
2, 37500, Note_on_c, 0, 79, 0
2, 37500, Note_on_c, 0, 81, 100
2, 37560, Note_on_c, 0, 81, 0
2, 37560, Note_on_c, 0, 83, 100
2, 37620, Note_on_c, 0, 83, 0
2, 37620, Note_on_c, 0, 81, 100
2, 37680, Note_on_c, 0, 81, 0
2, 37680, Note_on_c, 0, 79, 100
2, 37800, Note_on_c, 0, 79, 0
2, 37800, Note_on_c, 0, 78, 100
2, 37920, Note_on_c, 0, 78, 0
2, 37920, Note_on_c, 0, 76, 100
2, 37980, Note_on_c, 0, 76, 0
2, 37980, Note_on_c, 0, 78, 100
2, 38040, Note_on_c, 0, 78, 0
2, 38040, Note_on_c, 0, 79, 100
2, 38100, Note_on_c, 0, 79, 0
2, 38100, Note_on_c, 0, 78, 100
2, 38160, Note_on_c, 0, 78, 0
2, 38160, Note_on_c, 0, 76, 100
2, 38280, Note_on_c, 0, 76, 0
2, 38280, Note_on_c, 0, 74, 100
2, 38400, Note_on_c, 0, 74, 0
2, 38400, Note_on_c, 0, 73, 100
2, 38460, Note_on_c, 0, 73, 0
2, 38460, Note_on_c, 0, 74, 100
2, 38520, Note_on_c, 0, 74, 0
2, 38520, Note_on_c, 0, 76, 100
2, 38580, Note_on_c, 0, 76, 0
2, 38580, Note_on_c, 0, 74, 100
2, 38640, Note_on_c, 0, 74, 0
2, 38640, Note_on_c, 0, 73, 100
2, 38760, Note_on_c, 0, 73, 0
2, 38760, Note_on_c, 0, 71, 100
2, 38880, Note_on_c, 0, 71, 0
2, 38880, Note_on_c, 0, 71, 100
2, 38920, Note_on_c, 0, 71, 0
2, 38920, Note_on_c, 0, 69, 100
2, 38960, Note_on_c, 0, 69, 0
2, 38960, Note_on_c, 0, 71, 100
2, 39000, Note_on_c, 0, 71, 0
2, 39000, Note_on_c, 0, 69, 100
2, 39040, Note_on_c, 0, 69, 0
2, 39040, Note_on_c, 0, 71, 100
2, 39080, Note_on_c, 0, 71, 0
2, 39080, Note_on_c, 0, 69, 100
2, 39120, Note_on_c, 0, 69, 0
2, 39120, Note_on_c, 0, 71, 100
2, 39160, Note_on_c, 0, 71, 0
2, 39160, Note_on_c, 0, 69, 100
2, 39200, Note_on_c, 0, 69, 0
2, 39200, Note_on_c, 0, 71, 100
2, 39240, Note_on_c, 0, 71, 0
2, 39240, Note_on_c, 0, 69, 100
2, 39280, Note_on_c, 0, 69, 0
2, 39280, Note_on_c, 0, 71, 100
2, 39320, Note_on_c, 0, 71, 0
2, 39320, Note_on_c, 0, 69, 100
2, 39360, Note_on_c, 0, 69, 0
2, 39360, Note_on_c, 0, 71, 100
2, 39400, Note_on_c, 0, 71, 0
2, 39400, Note_on_c, 0, 69, 100
2, 39440, Note_on_c, 0, 69, 0
2, 39440, Note_on_c, 0, 71, 100
2, 39480, Note_on_c, 0, 71, 0
2, 39480, Note_on_c, 0, 69, 100
2, 39660, Note_on_c, 0, 69, 0
2, 39660, Note_on_c, 0, 73, 100
2, 39720, Note_on_c, 0, 73, 0
2, 39720, Note_on_c, 0, 71, 100
2, 39780, Note_on_c, 0, 71, 0
2, 39780, Note_on_c, 0, 69, 100
2, 39840, Note_on_c, 0, 69, 0
2, 39840, Note_on_c, 0, 71, 100
2, 39900, Note_on_c, 0, 71, 0
2, 39900, Note_on_c, 0, 73, 100
2, 39960, Note_on_c, 0, 73, 0
2, 39960, Note_on_c, 0, 74, 100
2, 40020, Note_on_c, 0, 74, 0
2, 40020, Note_on_c, 0, 76, 100
2, 40080, Note_on_c, 0, 76, 0
2, 40080, Note_on_c, 0, 78, 100
2, 40200, Note_on_c, 0, 78, 0
2, 40200, Note_on_c, 0, 81, 100
2, 40230, Note_on_c, 0, 81, 0
2, 40230, Note_on_c, 0, 79, 100
2, 40260, Note_on_c, 0, 79, 0
2, 40260, Note_on_c, 0, 78, 100
2, 40290, Note_on_c, 0, 78, 0
2, 40290, Note_on_c, 0, 79, 100
2, 40320, Note_on_c, 0, 79, 0
2, 40320, Note_on_c, 0, 81, 100
2, 40380, Note_on_c, 0, 81, 0
2, 40380, Note_on_c, 0, 74, 100
2, 40440, Note_on_c, 0, 74, 0
2, 40440, Note_on_c, 0, 73, 100
2, 40500, Note_on_c, 0, 73, 0
2, 40500, Note_on_c, 0, 74, 100
2, 40560, Note_on_c, 0, 74, 0
2, 40560, Note_on_c, 0, 76, 100
2, 40620, Note_on_c, 0, 76, 0
2, 40620, Note_on_c, 0, 74, 100
2, 40680, Note_on_c, 0, 74, 0
2, 40680, Note_on_c, 0, 73, 100
2, 40740, Note_on_c, 0, 73, 0
2, 40740, Note_on_c, 0, 74, 100
2, 40800, Note_on_c, 0, 74, 0
2, 40800, Note_on_c, 0, 69, 100
2, 40860, Note_on_c, 0, 69, 0
2, 40860, Note_on_c, 0, 74, 100
2, 40920, Note_on_c, 0, 74, 0
2, 40920, Note_on_c, 0, 67, 100
2, 40980, Note_on_c, 0, 67, 0
2, 40980, Note_on_c, 0, 74, 100
2, 41040, Note_on_c, 0, 74, 0
2, 41040, Note_on_c, 0, 66, 100
2, 41100, Note_on_c, 0, 66, 0
2, 41100, Note_on_c, 0, 74, 100
2, 41160, Note_on_c, 0, 74, 0
2, 41160, Note_on_c, 0, 64, 100
2, 41220, Note_on_c, 0, 64, 0
2, 41220, Note_on_c, 0, 74, 100
2, 41280, Note_on_c, 0, 74, 0
2, 41280, Note_on_c, 0, 66, 100
2, 41340, Note_on_c, 0, 66, 0
2, 41340, Note_on_c, 0, 74, 100
2, 41400, Note_on_c, 0, 74, 0
2, 41400, Note_on_c, 0, 69, 100
2, 41460, Note_on_c, 0, 69, 0
2, 41460, Note_on_c, 0, 74, 100
2, 41520, Note_on_c, 0, 74, 0
2, 41520, Note_on_c, 0, 66, 100
2, 41580, Note_on_c, 0, 66, 0
2, 41580, Note_on_c, 0, 74, 100
2, 41640, Note_on_c, 0, 74, 0
2, 41640, Note_on_c, 0, 62, 100
2, 41700, Note_on_c, 0, 62, 0
2, 41700, Note_on_c, 0, 72, 100
2, 41760, Note_on_c, 0, 72, 0
2, 41760, Note_on_c, 0, 71, 100
2, 41820, Note_on_c, 0, 71, 0
2, 41820, Note_on_c, 0, 74, 100
2, 41880, Note_on_c, 0, 74, 0
2, 41880, Note_on_c, 0, 73, 100
2, 41940, Note_on_c, 0, 73, 0
2, 41940, Note_on_c, 0, 74, 100
2, 42000, Note_on_c, 0, 74, 0
2, 42000, Note_on_c, 0, 76, 100
2, 42060, Note_on_c, 0, 76, 0
2, 42060, Note_on_c, 0, 74, 100
2, 42120, Note_on_c, 0, 74, 0
2, 42120, Note_on_c, 0, 73, 100
2, 42180, Note_on_c, 0, 73, 0
2, 42180, Note_on_c, 0, 74, 100
2, 42240, Note_on_c, 0, 74, 0
2, 42240, Note_on_c, 0, 71, 100
2, 42300, Note_on_c, 0, 71, 0
2, 42300, Note_on_c, 0, 74, 100
2, 42360, Note_on_c, 0, 74, 0
2, 42360, Note_on_c, 0, 69, 100
2, 42420, Note_on_c, 0, 69, 0
2, 42420, Note_on_c, 0, 74, 100
2, 42480, Note_on_c, 0, 74, 0
2, 42480, Note_on_c, 0, 67, 100
2, 42540, Note_on_c, 0, 67, 0
2, 42540, Note_on_c, 0, 74, 100
2, 42600, Note_on_c, 0, 74, 0
2, 42600, Note_on_c, 0, 66, 100
2, 42660, Note_on_c, 0, 66, 0
2, 42660, Note_on_c, 0, 74, 100
2, 42720, Note_on_c, 0, 74, 0
2, 42720, Note_on_c, 0, 67, 100
2, 42780, Note_on_c, 0, 67, 0
2, 42780, Note_on_c, 0, 74, 100
2, 42840, Note_on_c, 0, 74, 0
2, 42840, Note_on_c, 0, 71, 100
2, 42900, Note_on_c, 0, 71, 0
2, 42900, Note_on_c, 0, 74, 100
2, 42960, Note_on_c, 0, 74, 0
2, 42960, Note_on_c, 0, 67, 100
2, 43020, Note_on_c, 0, 67, 0
2, 43020, Note_on_c, 0, 74, 100
2, 43080, Note_on_c, 0, 74, 0
2, 43080, Note_on_c, 0, 64, 100
2, 43140, Note_on_c, 0, 64, 0
2, 43140, Note_on_c, 0, 74, 100
2, 43200, Note_on_c, 0, 74, 0
2, 43200, Note_on_c, 0, 73, 100
2, 43260, Note_on_c, 0, 73, 0
2, 43260, Note_on_c, 0, 67, 100
2, 43320, Note_on_c, 0, 67, 0
2, 43320, Note_on_c, 0, 66, 100
2, 43380, Note_on_c, 0, 66, 0
2, 43380, Note_on_c, 0, 67, 100
2, 43440, Note_on_c, 0, 67, 0
2, 43440, Note_on_c, 0, 69, 100
2, 43500, Note_on_c, 0, 69, 0
2, 43500, Note_on_c, 0, 67, 100
2, 43560, Note_on_c, 0, 67, 0
2, 43560, Note_on_c, 0, 66, 100
2, 43620, Note_on_c, 0, 66, 0
2, 43620, Note_on_c, 0, 67, 100
2, 43680, Note_on_c, 0, 67, 0
2, 43680, Note_on_c, 0, 76, 100
2, 43740, Note_on_c, 0, 76, 0
2, 43740, Note_on_c, 0, 73, 100
2, 43800, Note_on_c, 0, 73, 0
2, 43800, Note_on_c, 0, 71, 100
2, 43860, Note_on_c, 0, 71, 0
2, 43860, Note_on_c, 0, 73, 100
2, 43920, Note_on_c, 0, 73, 0
2, 43920, Note_on_c, 0, 74, 100
2, 43980, Note_on_c, 0, 74, 0
2, 43980, Note_on_c, 0, 73, 100
2, 44040, Note_on_c, 0, 73, 0
2, 44040, Note_on_c, 0, 71, 100
2, 44100, Note_on_c, 0, 71, 0
2, 44100, Note_on_c, 0, 73, 100
2, 44160, Note_on_c, 0, 73, 0
2, 44160, Note_on_c, 0, 79, 100
2, 44220, Note_on_c, 0, 79, 0
2, 44220, Note_on_c, 0, 76, 100
2, 44280, Note_on_c, 0, 76, 0
2, 44280, Note_on_c, 0, 74, 100
2, 44340, Note_on_c, 0, 74, 0
2, 44340, Note_on_c, 0, 76, 100
2, 44400, Note_on_c, 0, 76, 0
2, 44400, Note_on_c, 0, 81, 100
2, 44460, Note_on_c, 0, 81, 0
2, 44460, Note_on_c, 0, 79, 100
2, 44520, Note_on_c, 0, 79, 0
2, 44520, Note_on_c, 0, 78, 100
2, 44580, Note_on_c, 0, 78, 0
2, 44580, Note_on_c, 0, 76, 100
2, 44640, Note_on_c, 0, 76, 0
2, 44640, Note_on_c, 0, 78, 100
2, 44760, Note_on_c, 0, 78, 0
2, 44760, Note_on_c, 0, 73, 100
2, 44880, Note_on_c, 0, 73, 0
2, 44880, Note_on_c, 0, 73, 100
2, 45000, Note_on_c, 0, 73, 0
2, 45000, Note_on_c, 0, 74, 100
2, 45120, Note_on_c, 0, 74, 0
2, 45120, Note_on_c, 0, 74, 100
2, 45240, Note_on_c, 0, 74, 0
2, 45240, Note_on_c, 0, 67, 100
2, 45360, Note_on_c, 0, 67, 0
2, 45360, Note_on_c, 0, 67, 100
2, 45480, Note_on_c, 0, 67, 0
2, 45480, Note_on_c, 0, 66, 100
2, 45600, Note_on_c, 0, 66, 0
2, 45600, Note_on_c, 0, 66, 100
2, 46080, Note_on_c, 0, 66, 0
2, 46080, Note_on_c, 0, 78, 100
2, 46140, Note_on_c, 0, 78, 0
2, 46140, Note_on_c, 0, 79, 100
2, 46200, Note_on_c, 0, 79, 0
2, 46200, Note_on_c, 0, 78, 100
2, 46260, Note_on_c, 0, 78, 0
2, 46260, Note_on_c, 0, 76, 100
2, 46320, Note_on_c, 0, 76, 0
2, 46320, Note_on_c, 0, 78, 100
2, 46620, Note_on_c, 0, 78, 0
2, 46620, Note_on_c, 0, 76, 100
2, 46680, Note_on_c, 0, 76, 0
2, 46680, Note_on_c, 0, 78, 100
2, 46740, Note_on_c, 0, 78, 0
2, 46740, Note_on_c, 0, 79, 100
2, 46800, Note_on_c, 0, 79, 0
2, 46800, Note_on_c, 0, 81, 100
2, 46920, Note_on_c, 0, 81, 0
2, 46920, Note_on_c, 0, 83, 100
2, 47040, Note_on_c, 0, 83, 0
2, 47040, Note_on_c, 0, 84, 100
2, 47070, Note_on_c, 0, 84, 0
2, 47070, Note_on_c, 0, 83, 100
2, 47160, Note_on_c, 0, 83, 0
2, 47160, Note_on_c, 0, 81, 100
2, 47280, Note_on_c, 0, 81, 0
2, 47280, Note_on_c, 0, 79, 100
2, 47400, Note_on_c, 0, 79, 0
2, 47400, Note_on_c, 0, 78, 100
2, 47520, Note_on_c, 0, 78, 0
2, 47520, Note_on_c, 0, 79, 100
2, 47580, Note_on_c, 0, 79, 0
2, 47580, Note_on_c, 0, 81, 100
2, 47640, Note_on_c, 0, 81, 0
2, 47640, Note_on_c, 0, 79, 100
2, 47700, Note_on_c, 0, 79, 0
2, 47700, Note_on_c, 0, 78, 100
2, 47760, Note_on_c, 0, 78, 0
2, 47760, Note_on_c, 0, 79, 100
2, 48060, Note_on_c, 0, 79, 0
2, 48060, Note_on_c, 0, 66, 100
2, 48120, Note_on_c, 0, 66, 0
2, 48120, Note_on_c, 0, 67, 100
2, 48180, Note_on_c, 0, 67, 0
2, 48180, Note_on_c, 0, 69, 100
2, 48240, Note_on_c, 0, 69, 0
2, 48240, Note_on_c, 0, 71, 100
2, 48360, Note_on_c, 0, 71, 0
2, 48360, Note_on_c, 0, 72, 100
2, 48480, Note_on_c, 0, 72, 0
2, 48480, Note_on_c, 0, 74, 100
2, 48510, Note_on_c, 0, 74, 0
2, 48510, Note_on_c, 0, 72, 100
2, 48600, Note_on_c, 0, 72, 0
2, 48600, Note_on_c, 0, 71, 100
2, 48720, Note_on_c, 0, 71, 0
2, 48720, Note_on_c, 0, 69, 100
2, 48840, Note_on_c, 0, 69, 0
2, 48840, Note_on_c, 0, 67, 100
2, 48960, Note_on_c, 0, 67, 0
2, 48960, Note_on_c, 0, 76, 100
2, 49020, Note_on_c, 0, 76, 0
2, 49020, Note_on_c, 0, 78, 100
2, 49080, Note_on_c, 0, 78, 0
2, 49080, Note_on_c, 0, 76, 100
2, 49140, Note_on_c, 0, 76, 0
2, 49140, Note_on_c, 0, 75, 100
2, 49200, Note_on_c, 0, 75, 0
2, 49200, Note_on_c, 0, 76, 100
2, 49560, Note_on_c, 0, 76, 0
2, 49560, Note_on_c, 0, 80, 100
2, 49680, Note_on_c, 0, 80, 0
2, 49680, Note_on_c, 0, 80, 100
2, 49800, Note_on_c, 0, 80, 0
2, 49800, Note_on_c, 0, 81, 100
2, 49920, Note_on_c, 0, 81, 0
2, 49920, Note_on_c, 0, 81, 100
2, 50040, Note_on_c, 0, 81, 0
2, 50040, Note_on_c, 0, 83, 100
2, 50160, Note_on_c, 0, 83, 0
2, 50160, Note_on_c, 0, 83, 100
2, 50280, Note_on_c, 0, 83, 0
2, 50280, Note_on_c, 0, 84, 100
2, 50400, Note_on_c, 0, 84, 0
2, 50400, Note_on_c, 0, 76, 100
2, 50460, Note_on_c, 0, 76, 0
2, 50460, Note_on_c, 0, 75, 100
2, 50520, Note_on_c, 0, 75, 0
2, 50520, Note_on_c, 0, 73, 100
2, 50640, Note_on_c, 0, 73, 0
2, 50640, Note_on_c, 0, 75, 100
2, 50670, Note_on_c, 0, 75, 0
2, 50670, Note_on_c, 0, 73, 100
2, 50700, Note_on_c, 0, 73, 0
2, 50700, Note_on_c, 0, 75, 100
2, 51180, Note_on_c, 0, 75, 0
2, 51180, Note_on_c, 0, 75, 100
2, 51240, Note_on_c, 0, 75, 0
2, 51240, Note_on_c, 0, 76, 100
2, 51300, Note_on_c, 0, 76, 0
2, 51300, Note_on_c, 0, 78, 100
2, 51360, Note_on_c, 0, 78, 0
2, 51360, Note_on_c, 0, 76, 100
2, 51420, Note_on_c, 0, 76, 0
2, 51420, Note_on_c, 0, 75, 100
2, 51480, Note_on_c, 0, 75, 0
2, 51480, Note_on_c, 0, 73, 100
2, 51540, Note_on_c, 0, 73, 0
2, 51540, Note_on_c, 0, 71, 100
2, 51600, Note_on_c, 0, 71, 0
2, 51600, Note_on_c, 0, 69, 100
2, 51660, Note_on_c, 0, 69, 0
2, 51660, Note_on_c, 0, 67, 100
2, 51720, Note_on_c, 0, 67, 0
2, 51720, Note_on_c, 0, 69, 100
2, 51780, Note_on_c, 0, 69, 0
2, 51780, Note_on_c, 0, 78, 100
2, 51840, Note_on_c, 0, 78, 0
2, 51840, Note_on_c, 0, 67, 100
2, 51900, Note_on_c, 0, 67, 0
2, 51900, Note_on_c, 0, 76, 100
2, 51960, Note_on_c, 0, 76, 0
2, 51960, Note_on_c, 0, 75, 100
2, 52020, Note_on_c, 0, 75, 0
2, 52020, Note_on_c, 0, 76, 100
2, 52080, Note_on_c, 0, 76, 0
2, 52080, Note_on_c, 0, 77, 100
2, 52140, Note_on_c, 0, 77, 0
2, 52140, Note_on_c, 0, 76, 100
2, 52200, Note_on_c, 0, 76, 0
2, 52200, Note_on_c, 0, 75, 100
2, 52260, Note_on_c, 0, 75, 0
2, 52260, Note_on_c, 0, 76, 100
2, 52320, Note_on_c, 0, 76, 0
2, 52320, Note_on_c, 0, 78, 100
2, 52380, Note_on_c, 0, 78, 0
2, 52380, Note_on_c, 0, 76, 100
2, 52440, Note_on_c, 0, 76, 0
2, 52440, Note_on_c, 0, 79, 100
2, 52500, Note_on_c, 0, 79, 0
2, 52500, Note_on_c, 0, 76, 100
2, 52560, Note_on_c, 0, 76, 0
2, 52560, Note_on_c, 0, 81, 100
2, 52620, Note_on_c, 0, 81, 0
2, 52620, Note_on_c, 0, 76, 100
2, 52680, Note_on_c, 0, 76, 0
2, 52680, Note_on_c, 0, 83, 100
2, 52740, Note_on_c, 0, 83, 0
2, 52740, Note_on_c, 0, 76, 100
2, 52800, Note_on_c, 0, 76, 0
2, 52800, Note_on_c, 0, 84, 100
2, 52860, Note_on_c, 0, 84, 0
2, 52860, Note_on_c, 0, 76, 100
2, 52920, Note_on_c, 0, 76, 0
2, 52920, Note_on_c, 0, 86, 100
2, 52980, Note_on_c, 0, 86, 0
2, 52980, Note_on_c, 0, 76, 100
2, 53040, Note_on_c, 0, 76, 0
2, 53040, Note_on_c, 0, 84, 100
2, 53100, Note_on_c, 0, 84, 0
2, 53100, Note_on_c, 0, 76, 100
2, 53160, Note_on_c, 0, 76, 0
2, 53160, Note_on_c, 0, 83, 100
2, 53220, Note_on_c, 0, 83, 0
2, 53220, Note_on_c, 0, 76, 100
2, 53280, Note_on_c, 0, 76, 0
2, 53280, Note_on_c, 0, 84, 100
2, 53340, Note_on_c, 0, 84, 0
2, 53340, Note_on_c, 0, 76, 100
2, 53400, Note_on_c, 0, 76, 0
2, 53400, Note_on_c, 0, 75, 100
2, 53460, Note_on_c, 0, 75, 0
2, 53460, Note_on_c, 0, 76, 100
2, 53520, Note_on_c, 0, 76, 0
2, 53520, Note_on_c, 0, 77, 100
2, 53580, Note_on_c, 0, 77, 0
2, 53580, Note_on_c, 0, 76, 100
2, 53640, Note_on_c, 0, 76, 0
2, 53640, Note_on_c, 0, 75, 100
2, 53700, Note_on_c, 0, 75, 0
2, 53700, Note_on_c, 0, 76, 100
2, 53760, Note_on_c, 0, 76, 0
2, 53760, Note_on_c, 0, 84, 100
2, 53820, Note_on_c, 0, 84, 0
2, 53820, Note_on_c, 0, 76, 100
2, 53880, Note_on_c, 0, 76, 0
2, 53880, Note_on_c, 0, 83, 100
2, 53940, Note_on_c, 0, 83, 0
2, 53940, Note_on_c, 0, 76, 100
2, 54000, Note_on_c, 0, 76, 0
2, 54000, Note_on_c, 0, 81, 100
2, 54060, Note_on_c, 0, 81, 0
2, 54060, Note_on_c, 0, 76, 100
2, 54120, Note_on_c, 0, 76, 0
2, 54120, Note_on_c, 0, 79, 100
2, 54180, Note_on_c, 0, 79, 0
2, 54180, Note_on_c, 0, 76, 100
2, 54240, Note_on_c, 0, 76, 0
2, 54240, Note_on_c, 0, 78, 100
2, 54300, Note_on_c, 0, 78, 0
2, 54300, Note_on_c, 0, 76, 100
2, 54360, Note_on_c, 0, 76, 0
2, 54360, Note_on_c, 0, 79, 100
2, 54420, Note_on_c, 0, 79, 0
2, 54420, Note_on_c, 0, 76, 100
2, 54480, Note_on_c, 0, 76, 0
2, 54480, Note_on_c, 0, 81, 100
2, 54540, Note_on_c, 0, 81, 0
2, 54540, Note_on_c, 0, 76, 100
2, 54600, Note_on_c, 0, 76, 0
2, 54600, Note_on_c, 0, 75, 100
2, 54660, Note_on_c, 0, 75, 0
2, 54660, Note_on_c, 0, 73, 100
2, 54720, Note_on_c, 0, 73, 0
2, 54720, Note_on_c, 0, 75, 100
2, 54780, Note_on_c, 0, 75, 0
2, 54780, Note_on_c, 0, 81, 100
2, 54840, Note_on_c, 0, 81, 0
2, 54840, Note_on_c, 0, 79, 100
2, 54900, Note_on_c, 0, 79, 0
2, 54900, Note_on_c, 0, 81, 100
2, 54960, Note_on_c, 0, 81, 0
2, 54960, Note_on_c, 0, 83, 100
2, 55020, Note_on_c, 0, 83, 0
2, 55020, Note_on_c, 0, 81, 100
2, 55080, Note_on_c, 0, 81, 0
2, 55080, Note_on_c, 0, 79, 100
2, 55140, Note_on_c, 0, 79, 0
2, 55140, Note_on_c, 0, 81, 100
2, 55200, Note_on_c, 0, 81, 0
2, 55200, Note_on_c, 0, 71, 100
2, 55260, Note_on_c, 0, 71, 0
2, 55260, Note_on_c, 0, 79, 100
2, 55320, Note_on_c, 0, 79, 0
2, 55320, Note_on_c, 0, 78, 100
2, 55380, Note_on_c, 0, 78, 0
2, 55380, Note_on_c, 0, 79, 100
2, 55440, Note_on_c, 0, 79, 0
2, 55440, Note_on_c, 0, 81, 100
2, 55500, Note_on_c, 0, 81, 0
2, 55500, Note_on_c, 0, 79, 100
2, 55560, Note_on_c, 0, 79, 0
2, 55560, Note_on_c, 0, 78, 100
2, 55620, Note_on_c, 0, 78, 0
2, 55620, Note_on_c, 0, 79, 100
2, 55680, Note_on_c, 0, 79, 0
2, 55680, Note_on_c, 0, 69, 100
2, 55740, Note_on_c, 0, 69, 0
2, 55740, Note_on_c, 0, 78, 100
2, 55800, Note_on_c, 0, 78, 0
2, 55800, Note_on_c, 0, 76, 100
2, 55860, Note_on_c, 0, 76, 0
2, 55860, Note_on_c, 0, 78, 100
2, 55920, Note_on_c, 0, 78, 0
2, 55920, Note_on_c, 0, 79, 100
2, 55980, Note_on_c, 0, 79, 0
2, 55980, Note_on_c, 0, 81, 100
2, 56040, Note_on_c, 0, 81, 0
2, 56040, Note_on_c, 0, 79, 100
2, 56100, Note_on_c, 0, 79, 0
2, 56100, Note_on_c, 0, 78, 100
2, 56160, Note_on_c, 0, 78, 0
2, 56160, Note_on_c, 0, 79, 100
2, 56280, Note_on_c, 0, 79, 0
2, 56280, Note_on_c, 0, 75, 100
2, 56400, Note_on_c, 0, 75, 0
2, 56400, Note_on_c, 0, 75, 100
2, 56520, Note_on_c, 0, 75, 0
2, 56520, Note_on_c, 0, 76, 100
2, 56640, Note_on_c, 0, 76, 0
2, 56640, Note_on_c, 0, 76, 100
2, 56760, Note_on_c, 0, 76, 0
2, 56760, Note_on_c, 0, 69, 100
2, 56880, Note_on_c, 0, 69, 0
2, 56880, Note_on_c, 0, 69, 100
2, 57000, Note_on_c, 0, 69, 0
2, 57000, Note_on_c, 0, 67, 100
2, 57120, Note_on_c, 0, 67, 0
2, 57120, Note_on_c, 0, 67, 100
2, 57180, Note_on_c, 0, 67, 0
2, 57180, Note_on_c, 0, 66, 100
2, 57240, Note_on_c, 0, 66, 0
2, 57240, Note_on_c, 0, 67, 100
2, 57420, Note_on_c, 0, 67, 0
2, 57420, Note_on_c, 0, 71, 100
2, 57480, Note_on_c, 0, 71, 0
2, 57480, Note_on_c, 0, 72, 100
2, 57540, Note_on_c, 0, 72, 0
2, 57540, Note_on_c, 0, 74, 100
2, 57600, Note_on_c, 0, 74, 0
2, 57600, Note_on_c, 0, 76, 100
2, 57660, Note_on_c, 0, 76, 0
2, 57660, Note_on_c, 0, 77, 100
2, 57720, Note_on_c, 0, 77, 0
2, 57720, Note_on_c, 0, 76, 100
2, 57780, Note_on_c, 0, 76, 0
2, 57780, Note_on_c, 0, 75, 100
2, 57840, Note_on_c, 0, 75, 0
2, 57840, Note_on_c, 0, 76, 100
2, 58200, Note_on_c, 0, 76, 0
2, 58200, Note_on_c, 0, 69, 100
2, 58320, Note_on_c, 0, 69, 0
2, 58320, Note_on_c, 0, 71, 100
2, 58350, Note_on_c, 0, 71, 0
2, 58350, Note_on_c, 0, 69, 100
2, 58440, Note_on_c, 0, 69, 0
2, 58440, Note_on_c, 0, 67, 100
2, 58560, Note_on_c, 0, 67, 0
2, 58560, Note_on_c, 0, 69, 100
2, 58590, Note_on_c, 0, 69, 0
2, 58590, Note_on_c, 0, 67, 100
2, 58680, Note_on_c, 0, 67, 0
2, 58680, Note_on_c, 0, 66, 100
2, 58800, Note_on_c, 0, 66, 0
2, 58800, Note_on_c, 0, 66, 100
2, 58920, Note_on_c, 0, 66, 0
2, 58920, Note_on_c, 0, 76, 100
2, 59040, Note_on_c, 0, 76, 0
2, 59040, Note_on_c, 0, 74, 100
2, 59100, Note_on_c, 0, 74, 0
2, 59100, Note_on_c, 0, 76, 100
2, 59160, Note_on_c, 0, 76, 0
2, 59160, Note_on_c, 0, 74, 100
2, 59220, Note_on_c, 0, 74, 0
2, 59220, Note_on_c, 0, 73, 100
2, 59280, Note_on_c, 0, 73, 0
2, 59280, Note_on_c, 0, 74, 100
2, 59640, Note_on_c, 0, 74, 0
2, 59640, Note_on_c, 0, 67, 100
2, 59760, Note_on_c, 0, 67, 0
2, 59760, Note_on_c, 0, 69, 100
2, 59790, Note_on_c, 0, 69, 0
2, 59790, Note_on_c, 0, 67, 100
2, 59880, Note_on_c, 0, 67, 0
2, 59880, Note_on_c, 0, 65, 100
2, 60000, Note_on_c, 0, 65, 0
2, 60000, Note_on_c, 0, 67, 100
2, 60030, Note_on_c, 0, 67, 0
2, 60030, Note_on_c, 0, 65, 100
2, 60120, Note_on_c, 0, 65, 0
2, 60120, Note_on_c, 0, 64, 100
2, 60240, Note_on_c, 0, 64, 0
2, 60240, Note_on_c, 0, 64, 100
2, 60360, Note_on_c, 0, 64, 0
2, 60360, Note_on_c, 0, 74, 100
2, 60480, Note_on_c, 0, 74, 0
2, 60480, Note_on_c, 0, 72, 100
2, 60540, Note_on_c, 0, 72, 0
2, 60540, Note_on_c, 0, 71, 100
2, 60600, Note_on_c, 0, 71, 0
2, 60600, Note_on_c, 0, 69, 100
2, 60780, Note_on_c, 0, 69, 0
2, 60780, Note_on_c, 0, 67, 100
2, 60840, Note_on_c, 0, 67, 0
2, 60840, Note_on_c, 0, 66, 100
2, 61020, Note_on_c, 0, 66, 0
2, 61020, Note_on_c, 0, 64, 100
2, 61080, Note_on_c, 0, 64, 0
2, 61080, Note_on_c, 0, 62, 100
2, 61260, Note_on_c, 0, 62, 0
2, 61260, Note_on_c, 0, 64, 100
2, 61320, Note_on_c, 0, 64, 0
2, 61320, Note_on_c, 0, 66, 100
2, 61500, Note_on_c, 0, 66, 0
2, 61500, Note_on_c, 0, 67, 100
2, 61560, Note_on_c, 0, 67, 0
2, 61560, Note_on_c, 0, 69, 100
2, 61740, Note_on_c, 0, 69, 0
2, 61740, Note_on_c, 0, 71, 100
2, 61800, Note_on_c, 0, 71, 0
2, 61800, Note_on_c, 0, 72, 100
2, 61980, Note_on_c, 0, 72, 0
2, 61980, Note_on_c, 0, 74, 100
2, 62040, Note_on_c, 0, 74, 0
2, 62040, Note_on_c, 0, 72, 100
2, 62100, Note_on_c, 0, 72, 0
2, 62100, Note_on_c, 0, 71, 100
2, 62160, Note_on_c, 0, 71, 0
2, 62160, Note_on_c, 0, 72, 100
2, 62220, Note_on_c, 0, 72, 0
2, 62220, Note_on_c, 0, 79, 100
2, 62280, Note_on_c, 0, 79, 0
2, 62280, Note_on_c, 0, 78, 100
2, 62340, Note_on_c, 0, 78, 0
2, 62340, Note_on_c, 0, 76, 100
2, 62400, Note_on_c, 0, 76, 0
2, 62400, Note_on_c, 0, 78, 100
2, 62460, Note_on_c, 0, 78, 0
2, 62460, Note_on_c, 0, 83, 100
2, 62520, Note_on_c, 0, 83, 0
2, 62520, Note_on_c, 0, 81, 100
2, 62580, Note_on_c, 0, 81, 0
2, 62580, Note_on_c, 0, 79, 100
2, 62640, Note_on_c, 0, 79, 0
2, 62640, Note_on_c, 0, 81, 100
2, 62700, Note_on_c, 0, 81, 0
2, 62700, Note_on_c, 0, 86, 100
2, 62760, Note_on_c, 0, 86, 0
2, 62760, Note_on_c, 0, 84, 100
2, 62820, Note_on_c, 0, 84, 0
2, 62820, Note_on_c, 0, 83, 100
2, 62880, Note_on_c, 0, 83, 0
2, 62880, Note_on_c, 0, 84, 100
2, 62940, Note_on_c, 0, 84, 0
2, 62940, Note_on_c, 0, 83, 100
2, 63000, Note_on_c, 0, 83, 0
2, 63000, Note_on_c, 0, 81, 100
2, 63060, Note_on_c, 0, 81, 0
2, 63060, Note_on_c, 0, 79, 100
2, 63120, Note_on_c, 0, 79, 0
2, 63120, Note_on_c, 0, 78, 100
2, 63180, Note_on_c, 0, 78, 0
2, 63180, Note_on_c, 0, 76, 100
2, 63240, Note_on_c, 0, 76, 0
2, 63240, Note_on_c, 0, 74, 100
2, 63300, Note_on_c, 0, 74, 0
2, 63300, Note_on_c, 0, 72, 100
2, 63360, Note_on_c, 0, 72, 0
2, 63360, Note_on_c, 0, 71, 100
2, 63420, Note_on_c, 0, 71, 0
2, 63420, Note_on_c, 0, 79, 100
2, 63480, Note_on_c, 0, 79, 0
2, 63480, Note_on_c, 0, 78, 100
2, 63540, Note_on_c, 0, 78, 0
2, 63540, Note_on_c, 0, 79, 100
2, 63600, Note_on_c, 0, 79, 0
2, 63600, Note_on_c, 0, 81, 100
2, 63660, Note_on_c, 0, 81, 0
2, 63660, Note_on_c, 0, 79, 100
2, 63720, Note_on_c, 0, 79, 0
2, 63720, Note_on_c, 0, 78, 100
2, 63780, Note_on_c, 0, 78, 0
2, 63780, Note_on_c, 0, 79, 100
2, 63840, Note_on_c, 0, 79, 0
2, 63840, Note_on_c, 0, 72, 100
2, 63900, Note_on_c, 0, 72, 0
2, 63900, Note_on_c, 0, 78, 100
2, 63960, Note_on_c, 0, 78, 0
2, 63960, Note_on_c, 0, 76, 100
2, 64020, Note_on_c, 0, 76, 0
2, 64020, Note_on_c, 0, 78, 100
2, 64080, Note_on_c, 0, 78, 0
2, 64080, Note_on_c, 0, 79, 100
2, 64140, Note_on_c, 0, 79, 0
2, 64140, Note_on_c, 0, 78, 100
2, 64200, Note_on_c, 0, 78, 0
2, 64200, Note_on_c, 0, 76, 100
2, 64260, Note_on_c, 0, 76, 0
2, 64260, Note_on_c, 0, 78, 100
2, 64320, Note_on_c, 0, 78, 0
2, 64320, Note_on_c, 0, 74, 100
2, 64380, Note_on_c, 0, 74, 0
2, 64380, Note_on_c, 0, 77, 100
2, 64440, Note_on_c, 0, 77, 0
2, 64440, Note_on_c, 0, 76, 100
2, 64500, Note_on_c, 0, 76, 0
2, 64500, Note_on_c, 0, 77, 100
2, 64560, Note_on_c, 0, 77, 0
2, 64560, Note_on_c, 0, 79, 100
2, 64620, Note_on_c, 0, 79, 0
2, 64620, Note_on_c, 0, 77, 100
2, 64680, Note_on_c, 0, 77, 0
2, 64680, Note_on_c, 0, 76, 100
2, 64740, Note_on_c, 0, 76, 0
2, 64740, Note_on_c, 0, 74, 100
2, 64800, Note_on_c, 0, 74, 0
2, 64800, Note_on_c, 0, 76, 100
2, 64860, Note_on_c, 0, 76, 0
2, 64860, Note_on_c, 0, 72, 100
2, 64920, Note_on_c, 0, 72, 0
2, 64920, Note_on_c, 0, 71, 100
2, 64980, Note_on_c, 0, 71, 0
2, 64980, Note_on_c, 0, 72, 100
2, 65040, Note_on_c, 0, 72, 0
2, 65040, Note_on_c, 0, 74, 100
2, 65100, Note_on_c, 0, 74, 0
2, 65100, Note_on_c, 0, 72, 100
2, 65160, Note_on_c, 0, 72, 0
2, 65160, Note_on_c, 0, 71, 100
2, 65220, Note_on_c, 0, 71, 0
2, 65220, Note_on_c, 0, 72, 100
2, 65280, Note_on_c, 0, 72, 0
2, 65280, Note_on_c, 0, 74, 100
2, 65340, Note_on_c, 0, 74, 0
2, 65340, Note_on_c, 0, 71, 100
2, 65400, Note_on_c, 0, 71, 0
2, 65400, Note_on_c, 0, 69, 100
2, 65460, Note_on_c, 0, 69, 0
2, 65460, Note_on_c, 0, 71, 100
2, 65520, Note_on_c, 0, 71, 0
2, 65520, Note_on_c, 0, 72, 100
2, 65580, Note_on_c, 0, 72, 0
2, 65580, Note_on_c, 0, 71, 100
2, 65640, Note_on_c, 0, 71, 0
2, 65640, Note_on_c, 0, 69, 100
2, 65700, Note_on_c, 0, 69, 0
2, 65700, Note_on_c, 0, 71, 100
2, 65760, Note_on_c, 0, 71, 0
2, 65760, Note_on_c, 0, 73, 100
2, 65820, Note_on_c, 0, 73, 0
2, 65820, Note_on_c, 0, 70, 100
2, 65880, Note_on_c, 0, 70, 0
2, 65880, Note_on_c, 0, 69, 100
2, 65940, Note_on_c, 0, 69, 0
2, 65940, Note_on_c, 0, 70, 100
2, 66000, Note_on_c, 0, 70, 0
2, 66000, Note_on_c, 0, 72, 100
2, 66060, Note_on_c, 0, 72, 0
2, 66060, Note_on_c, 0, 70, 100
2, 66120, Note_on_c, 0, 70, 0
2, 66120, Note_on_c, 0, 69, 100
2, 66180, Note_on_c, 0, 69, 0
2, 66180, Note_on_c, 0, 67, 100
2, 66240, Note_on_c, 0, 67, 0
2, 66240, Note_on_c, 0, 66, 100
2, 66300, Note_on_c, 0, 66, 0
2, 66300, Note_on_c, 0, 72, 100
2, 66360, Note_on_c, 0, 72, 0
2, 66360, Note_on_c, 0, 71, 100
2, 66420, Note_on_c, 0, 71, 0
2, 66420, Note_on_c, 0, 72, 100
2, 66480, Note_on_c, 0, 72, 0
2, 66480, Note_on_c, 0, 74, 100
2, 66540, Note_on_c, 0, 74, 0
2, 66540, Note_on_c, 0, 72, 100
2, 66600, Note_on_c, 0, 72, 0
2, 66600, Note_on_c, 0, 71, 100
2, 66660, Note_on_c, 0, 71, 0
2, 66660, Note_on_c, 0, 72, 100
2, 66720, Note_on_c, 0, 72, 0
2, 66720, Note_on_c, 0, 78, 100
2, 66780, Note_on_c, 0, 78, 0
2, 66780, Note_on_c, 0, 72, 100
2, 66840, Note_on_c, 0, 72, 0
2, 66840, Note_on_c, 0, 71, 100
2, 66900, Note_on_c, 0, 71, 0
2, 66900, Note_on_c, 0, 72, 100
2, 66960, Note_on_c, 0, 72, 0
2, 66960, Note_on_c, 0, 74, 100
2, 67020, Note_on_c, 0, 74, 0
2, 67020, Note_on_c, 0, 72, 100
2, 67080, Note_on_c, 0, 72, 0
2, 67080, Note_on_c, 0, 71, 100
2, 67140, Note_on_c, 0, 71, 0
2, 67140, Note_on_c, 0, 72, 100
2, 67200, Note_on_c, 0, 72, 0
2, 67200, Note_on_c, 0, 81, 100
2, 67260, Note_on_c, 0, 81, 0
2, 67260, Note_on_c, 0, 72, 100
2, 67320, Note_on_c, 0, 72, 0
2, 67320, Note_on_c, 0, 71, 100
2, 67380, Note_on_c, 0, 71, 0
2, 67380, Note_on_c, 0, 72, 100
2, 67440, Note_on_c, 0, 72, 0
2, 67440, Note_on_c, 0, 74, 100
2, 67500, Note_on_c, 0, 74, 0
2, 67500, Note_on_c, 0, 72, 100
2, 67560, Note_on_c, 0, 72, 0
2, 67560, Note_on_c, 0, 71, 100
2, 67620, Note_on_c, 0, 71, 0
2, 67620, Note_on_c, 0, 69, 100
2, 67680, Note_on_c, 0, 69, 0
2, 67680, Note_on_c, 0, 71, 100
2, 67800, Note_on_c, 0, 71, 0
2, 67800, Note_on_c, 0, 66, 100
2, 67920, Note_on_c, 0, 66, 0
2, 67920, Note_on_c, 0, 66, 100
2, 68040, Note_on_c, 0, 66, 0
2, 68040, Note_on_c, 0, 67, 100
2, 68160, Note_on_c, 0, 67, 0
2, 68160, Note_on_c, 0, 67, 100
2, 68280, Note_on_c, 0, 67, 0
2, 68280, Note_on_c, 0, 60, 100
2, 68400, Note_on_c, 0, 60, 0
2, 68400, Note_on_c, 0, 60, 100
2, 68520, Note_on_c, 0, 60, 0
2, 68520, Note_on_c, 0, 59, 100
2, 68640, Note_on_c, 0, 59, 0
2, 68640, Note_on_c, 0, 59, 100
2, 69120, Note_on_c, 0, 59, 0
2, 69120, Note_on_c, 0, 78, 100
2, 69180, Note_on_c, 0, 78, 0
2, 69180, Note_on_c, 0, 79, 100
2, 69240, Note_on_c, 0, 79, 0
2, 69240, Note_on_c, 0, 78, 100
2, 69300, Note_on_c, 0, 78, 0
2, 69300, Note_on_c, 0, 76, 100
2, 69360, Note_on_c, 0, 76, 0
2, 69360, Note_on_c, 0, 78, 100
2, 69660, Note_on_c, 0, 78, 0
2, 69660, Note_on_c, 0, 76, 100
2, 69720, Note_on_c, 0, 76, 0
2, 69720, Note_on_c, 0, 78, 100
2, 69780, Note_on_c, 0, 78, 0
2, 69780, Note_on_c, 0, 79, 100
2, 69840, Note_on_c, 0, 79, 0
2, 69840, Note_on_c, 0, 81, 100
2, 69960, Note_on_c, 0, 81, 0
2, 69960, Note_on_c, 0, 83, 100
2, 70080, Note_on_c, 0, 83, 0
2, 70080, Note_on_c, 0, 84, 100
2, 70110, Note_on_c, 0, 84, 0
2, 70110, Note_on_c, 0, 83, 100
2, 70200, Note_on_c, 0, 83, 0
2, 70200, Note_on_c, 0, 81, 100
2, 70320, Note_on_c, 0, 81, 0
2, 70320, Note_on_c, 0, 79, 100
2, 70440, Note_on_c, 0, 79, 0
2, 70440, Note_on_c, 0, 78, 100
2, 70560, Note_on_c, 0, 78, 0
2, 70560, Note_on_c, 0, 79, 100
2, 70620, Note_on_c, 0, 79, 0
2, 70620, Note_on_c, 0, 81, 100
2, 70680, Note_on_c, 0, 81, 0
2, 70680, Note_on_c, 0, 79, 100
2, 70740, Note_on_c, 0, 79, 0
2, 70740, Note_on_c, 0, 78, 100
2, 70800, Note_on_c, 0, 78, 0
2, 70800, Note_on_c, 0, 79, 100
2, 71100, Note_on_c, 0, 79, 0
2, 71100, Note_on_c, 0, 66, 100
2, 71160, Note_on_c, 0, 66, 0
2, 71160, Note_on_c, 0, 67, 100
2, 71220, Note_on_c, 0, 67, 0
2, 71220, Note_on_c, 0, 69, 100
2, 71280, Note_on_c, 0, 69, 0
2, 71280, Note_on_c, 0, 71, 100
2, 71400, Note_on_c, 0, 71, 0
2, 71400, Note_on_c, 0, 72, 100
2, 71520, Note_on_c, 0, 72, 0
2, 71520, Note_on_c, 0, 74, 100
2, 71550, Note_on_c, 0, 74, 0
2, 71550, Note_on_c, 0, 72, 100
2, 71640, Note_on_c, 0, 72, 0
2, 71640, Note_on_c, 0, 71, 100
2, 71760, Note_on_c, 0, 71, 0
2, 71760, Note_on_c, 0, 69, 100
2, 71880, Note_on_c, 0, 69, 0
2, 71880, Note_on_c, 0, 67, 100
2, 72000, Note_on_c, 0, 67, 0
2, 72000, Note_on_c, 0, 76, 100
2, 72060, Note_on_c, 0, 76, 0
2, 72060, Note_on_c, 0, 78, 100
2, 72120, Note_on_c, 0, 78, 0
2, 72120, Note_on_c, 0, 76, 100
2, 72180, Note_on_c, 0, 76, 0
2, 72180, Note_on_c, 0, 75, 100
2, 72240, Note_on_c, 0, 75, 0
2, 72240, Note_on_c, 0, 76, 100
2, 72600, Note_on_c, 0, 76, 0
2, 72600, Note_on_c, 0, 80, 100
2, 72720, Note_on_c, 0, 80, 0
2, 72720, Note_on_c, 0, 80, 100
2, 72840, Note_on_c, 0, 80, 0
2, 72840, Note_on_c, 0, 81, 100
2, 72960, Note_on_c, 0, 81, 0
2, 72960, Note_on_c, 0, 81, 100
2, 73080, Note_on_c, 0, 81, 0
2, 73080, Note_on_c, 0, 83, 100
2, 73200, Note_on_c, 0, 83, 0
2, 73200, Note_on_c, 0, 83, 100
2, 73320, Note_on_c, 0, 83, 0
2, 73320, Note_on_c, 0, 84, 100
2, 73440, Note_on_c, 0, 84, 0
2, 73440, Note_on_c, 0, 76, 100
2, 73500, Note_on_c, 0, 76, 0
2, 73500, Note_on_c, 0, 75, 100
2, 73560, Note_on_c, 0, 75, 0
2, 73560, Note_on_c, 0, 73, 100
2, 73680, Note_on_c, 0, 73, 0
2, 73680, Note_on_c, 0, 75, 100
2, 73710, Note_on_c, 0, 75, 0
2, 73710, Note_on_c, 0, 73, 100
2, 73740, Note_on_c, 0, 73, 0
2, 73740, Note_on_c, 0, 75, 100
2, 74220, Note_on_c, 0, 75, 0
2, 74220, Note_on_c, 0, 75, 100
2, 74280, Note_on_c, 0, 75, 0
2, 74280, Note_on_c, 0, 76, 100
2, 74340, Note_on_c, 0, 76, 0
2, 74340, Note_on_c, 0, 78, 100
2, 74400, Note_on_c, 0, 78, 0
2, 74400, Note_on_c, 0, 76, 100
2, 74460, Note_on_c, 0, 76, 0
2, 74460, Note_on_c, 0, 75, 100
2, 74520, Note_on_c, 0, 75, 0
2, 74520, Note_on_c, 0, 73, 100
2, 74580, Note_on_c, 0, 73, 0
2, 74580, Note_on_c, 0, 71, 100
2, 74640, Note_on_c, 0, 71, 0
2, 74640, Note_on_c, 0, 69, 100
2, 74700, Note_on_c, 0, 69, 0
2, 74700, Note_on_c, 0, 67, 100
2, 74760, Note_on_c, 0, 67, 0
2, 74760, Note_on_c, 0, 69, 100
2, 74820, Note_on_c, 0, 69, 0
2, 74820, Note_on_c, 0, 78, 100
2, 74880, Note_on_c, 0, 78, 0
2, 74880, Note_on_c, 0, 67, 100
2, 74940, Note_on_c, 0, 67, 0
2, 74940, Note_on_c, 0, 76, 100
2, 75000, Note_on_c, 0, 76, 0
2, 75000, Note_on_c, 0, 75, 100
2, 75060, Note_on_c, 0, 75, 0
2, 75060, Note_on_c, 0, 76, 100
2, 75120, Note_on_c, 0, 76, 0
2, 75120, Note_on_c, 0, 77, 100
2, 75180, Note_on_c, 0, 77, 0
2, 75180, Note_on_c, 0, 76, 100
2, 75240, Note_on_c, 0, 76, 0
2, 75240, Note_on_c, 0, 75, 100
2, 75300, Note_on_c, 0, 75, 0
2, 75300, Note_on_c, 0, 76, 100
2, 75360, Note_on_c, 0, 76, 0
2, 75360, Note_on_c, 0, 78, 100
2, 75420, Note_on_c, 0, 78, 0
2, 75420, Note_on_c, 0, 76, 100
2, 75480, Note_on_c, 0, 76, 0
2, 75480, Note_on_c, 0, 79, 100
2, 75540, Note_on_c, 0, 79, 0
2, 75540, Note_on_c, 0, 76, 100
2, 75600, Note_on_c, 0, 76, 0
2, 75600, Note_on_c, 0, 81, 100
2, 75660, Note_on_c, 0, 81, 0
2, 75660, Note_on_c, 0, 76, 100
2, 75720, Note_on_c, 0, 76, 0
2, 75720, Note_on_c, 0, 83, 100
2, 75780, Note_on_c, 0, 83, 0
2, 75780, Note_on_c, 0, 76, 100
2, 75840, Note_on_c, 0, 76, 0
2, 75840, Note_on_c, 0, 84, 100
2, 75900, Note_on_c, 0, 84, 0
2, 75900, Note_on_c, 0, 76, 100
2, 75960, Note_on_c, 0, 76, 0
2, 75960, Note_on_c, 0, 86, 100
2, 76020, Note_on_c, 0, 86, 0
2, 76020, Note_on_c, 0, 76, 100
2, 76080, Note_on_c, 0, 76, 0
2, 76080, Note_on_c, 0, 84, 100
2, 76140, Note_on_c, 0, 84, 0
2, 76140, Note_on_c, 0, 76, 100
2, 76200, Note_on_c, 0, 76, 0
2, 76200, Note_on_c, 0, 83, 100
2, 76260, Note_on_c, 0, 83, 0
2, 76260, Note_on_c, 0, 76, 100
2, 76320, Note_on_c, 0, 76, 0
2, 76320, Note_on_c, 0, 84, 100
2, 76380, Note_on_c, 0, 84, 0
2, 76380, Note_on_c, 0, 76, 100
2, 76440, Note_on_c, 0, 76, 0
2, 76440, Note_on_c, 0, 75, 100
2, 76500, Note_on_c, 0, 75, 0
2, 76500, Note_on_c, 0, 76, 100
2, 76560, Note_on_c, 0, 76, 0
2, 76560, Note_on_c, 0, 77, 100
2, 76620, Note_on_c, 0, 77, 0
2, 76620, Note_on_c, 0, 76, 100
2, 76680, Note_on_c, 0, 76, 0
2, 76680, Note_on_c, 0, 75, 100
2, 76740, Note_on_c, 0, 75, 0
2, 76740, Note_on_c, 0, 76, 100
2, 76800, Note_on_c, 0, 76, 0
2, 76800, Note_on_c, 0, 84, 100
2, 76860, Note_on_c, 0, 84, 0
2, 76860, Note_on_c, 0, 76, 100
2, 76920, Note_on_c, 0, 76, 0
2, 76920, Note_on_c, 0, 83, 100
2, 76980, Note_on_c, 0, 83, 0
2, 76980, Note_on_c, 0, 76, 100
2, 77040, Note_on_c, 0, 76, 0
2, 77040, Note_on_c, 0, 81, 100
2, 77100, Note_on_c, 0, 81, 0
2, 77100, Note_on_c, 0, 76, 100
2, 77160, Note_on_c, 0, 76, 0
2, 77160, Note_on_c, 0, 79, 100
2, 77220, Note_on_c, 0, 79, 0
2, 77220, Note_on_c, 0, 76, 100
2, 77280, Note_on_c, 0, 76, 0
2, 77280, Note_on_c, 0, 78, 100
2, 77340, Note_on_c, 0, 78, 0
2, 77340, Note_on_c, 0, 76, 100
2, 77400, Note_on_c, 0, 76, 0
2, 77400, Note_on_c, 0, 79, 100
2, 77460, Note_on_c, 0, 79, 0
2, 77460, Note_on_c, 0, 76, 100
2, 77520, Note_on_c, 0, 76, 0
2, 77520, Note_on_c, 0, 81, 100
2, 77580, Note_on_c, 0, 81, 0
2, 77580, Note_on_c, 0, 76, 100
2, 77640, Note_on_c, 0, 76, 0
2, 77640, Note_on_c, 0, 75, 100
2, 77700, Note_on_c, 0, 75, 0
2, 77700, Note_on_c, 0, 73, 100
2, 77760, Note_on_c, 0, 73, 0
2, 77760, Note_on_c, 0, 75, 100
2, 77820, Note_on_c, 0, 75, 0
2, 77820, Note_on_c, 0, 81, 100
2, 77880, Note_on_c, 0, 81, 0
2, 77880, Note_on_c, 0, 79, 100
2, 77940, Note_on_c, 0, 79, 0
2, 77940, Note_on_c, 0, 81, 100
2, 78000, Note_on_c, 0, 81, 0
2, 78000, Note_on_c, 0, 83, 100
2, 78060, Note_on_c, 0, 83, 0
2, 78060, Note_on_c, 0, 81, 100
2, 78120, Note_on_c, 0, 81, 0
2, 78120, Note_on_c, 0, 79, 100
2, 78180, Note_on_c, 0, 79, 0
2, 78180, Note_on_c, 0, 81, 100
2, 78240, Note_on_c, 0, 81, 0
2, 78240, Note_on_c, 0, 71, 100
2, 78300, Note_on_c, 0, 71, 0
2, 78300, Note_on_c, 0, 79, 100
2, 78360, Note_on_c, 0, 79, 0
2, 78360, Note_on_c, 0, 78, 100
2, 78420, Note_on_c, 0, 78, 0
2, 78420, Note_on_c, 0, 79, 100
2, 78480, Note_on_c, 0, 79, 0
2, 78480, Note_on_c, 0, 81, 100
2, 78540, Note_on_c, 0, 81, 0
2, 78540, Note_on_c, 0, 79, 100
2, 78600, Note_on_c, 0, 79, 0
2, 78600, Note_on_c, 0, 78, 100
2, 78660, Note_on_c, 0, 78, 0
2, 78660, Note_on_c, 0, 79, 100
2, 78720, Note_on_c, 0, 79, 0
2, 78720, Note_on_c, 0, 69, 100
2, 78780, Note_on_c, 0, 69, 0
2, 78780, Note_on_c, 0, 78, 100
2, 78840, Note_on_c, 0, 78, 0
2, 78840, Note_on_c, 0, 76, 100
2, 78900, Note_on_c, 0, 76, 0
2, 78900, Note_on_c, 0, 78, 100
2, 78960, Note_on_c, 0, 78, 0
2, 78960, Note_on_c, 0, 79, 100
2, 79020, Note_on_c, 0, 79, 0
2, 79020, Note_on_c, 0, 81, 100
2, 79080, Note_on_c, 0, 81, 0
2, 79080, Note_on_c, 0, 79, 100
2, 79140, Note_on_c, 0, 79, 0
2, 79140, Note_on_c, 0, 78, 100
2, 79200, Note_on_c, 0, 78, 0
2, 79200, Note_on_c, 0, 79, 100
2, 79320, Note_on_c, 0, 79, 0
2, 79320, Note_on_c, 0, 75, 100
2, 79440, Note_on_c, 0, 75, 0
2, 79440, Note_on_c, 0, 75, 100
2, 79560, Note_on_c, 0, 75, 0
2, 79560, Note_on_c, 0, 76, 100
2, 79680, Note_on_c, 0, 76, 0
2, 79680, Note_on_c, 0, 76, 100
2, 79800, Note_on_c, 0, 76, 0
2, 79800, Note_on_c, 0, 69, 100
2, 79920, Note_on_c, 0, 69, 0
2, 79920, Note_on_c, 0, 69, 100
2, 80040, Note_on_c, 0, 69, 0
2, 80040, Note_on_c, 0, 67, 100
2, 80160, Note_on_c, 0, 67, 0
2, 80160, Note_on_c, 0, 67, 100
2, 80220, Note_on_c, 0, 67, 0
2, 80220, Note_on_c, 0, 66, 100
2, 80280, Note_on_c, 0, 66, 0
2, 80280, Note_on_c, 0, 67, 100
2, 80460, Note_on_c, 0, 67, 0
2, 80460, Note_on_c, 0, 71, 100
2, 80520, Note_on_c, 0, 71, 0
2, 80520, Note_on_c, 0, 72, 100
2, 80580, Note_on_c, 0, 72, 0
2, 80580, Note_on_c, 0, 74, 100
2, 80640, Note_on_c, 0, 74, 0
2, 80640, Note_on_c, 0, 76, 100
2, 80700, Note_on_c, 0, 76, 0
2, 80700, Note_on_c, 0, 77, 100
2, 80760, Note_on_c, 0, 77, 0
2, 80760, Note_on_c, 0, 76, 100
2, 80820, Note_on_c, 0, 76, 0
2, 80820, Note_on_c, 0, 75, 100
2, 80880, Note_on_c, 0, 75, 0
2, 80880, Note_on_c, 0, 76, 100
2, 81240, Note_on_c, 0, 76, 0
2, 81240, Note_on_c, 0, 69, 100
2, 81360, Note_on_c, 0, 69, 0
2, 81360, Note_on_c, 0, 71, 100
2, 81390, Note_on_c, 0, 71, 0
2, 81390, Note_on_c, 0, 69, 100
2, 81480, Note_on_c, 0, 69, 0
2, 81480, Note_on_c, 0, 67, 100
2, 81600, Note_on_c, 0, 67, 0
2, 81600, Note_on_c, 0, 69, 100
2, 81630, Note_on_c, 0, 69, 0
2, 81630, Note_on_c, 0, 67, 100
2, 81720, Note_on_c, 0, 67, 0
2, 81720, Note_on_c, 0, 66, 100
2, 81840, Note_on_c, 0, 66, 0
2, 81840, Note_on_c, 0, 66, 100
2, 81960, Note_on_c, 0, 66, 0
2, 81960, Note_on_c, 0, 76, 100
2, 82080, Note_on_c, 0, 76, 0
2, 82080, Note_on_c, 0, 74, 100
2, 82140, Note_on_c, 0, 74, 0
2, 82140, Note_on_c, 0, 76, 100
2, 82200, Note_on_c, 0, 76, 0
2, 82200, Note_on_c, 0, 74, 100
2, 82260, Note_on_c, 0, 74, 0
2, 82260, Note_on_c, 0, 73, 100
2, 82320, Note_on_c, 0, 73, 0
2, 82320, Note_on_c, 0, 74, 100
2, 82680, Note_on_c, 0, 74, 0
2, 82680, Note_on_c, 0, 67, 100
2, 82800, Note_on_c, 0, 67, 0
2, 82800, Note_on_c, 0, 69, 100
2, 82830, Note_on_c, 0, 69, 0
2, 82830, Note_on_c, 0, 67, 100
2, 82920, Note_on_c, 0, 67, 0
2, 82920, Note_on_c, 0, 65, 100
2, 83040, Note_on_c, 0, 65, 0
2, 83040, Note_on_c, 0, 67, 100
2, 83070, Note_on_c, 0, 67, 0
2, 83070, Note_on_c, 0, 65, 100
2, 83160, Note_on_c, 0, 65, 0
2, 83160, Note_on_c, 0, 64, 100
2, 83280, Note_on_c, 0, 64, 0
2, 83280, Note_on_c, 0, 64, 100
2, 83400, Note_on_c, 0, 64, 0
2, 83400, Note_on_c, 0, 74, 100
2, 83520, Note_on_c, 0, 74, 0
2, 83520, Note_on_c, 0, 72, 100
2, 83580, Note_on_c, 0, 72, 0
2, 83580, Note_on_c, 0, 71, 100
2, 83640, Note_on_c, 0, 71, 0
2, 83640, Note_on_c, 0, 69, 100
2, 83820, Note_on_c, 0, 69, 0
2, 83820, Note_on_c, 0, 67, 100
2, 83880, Note_on_c, 0, 67, 0
2, 83880, Note_on_c, 0, 66, 100
2, 84060, Note_on_c, 0, 66, 0
2, 84060, Note_on_c, 0, 64, 100
2, 84120, Note_on_c, 0, 64, 0
2, 84120, Note_on_c, 0, 62, 100
2, 84300, Note_on_c, 0, 62, 0
2, 84300, Note_on_c, 0, 64, 100
2, 84360, Note_on_c, 0, 64, 0
2, 84360, Note_on_c, 0, 66, 100
2, 84540, Note_on_c, 0, 66, 0
2, 84540, Note_on_c, 0, 67, 100
2, 84600, Note_on_c, 0, 67, 0
2, 84600, Note_on_c, 0, 69, 100
2, 84780, Note_on_c, 0, 69, 0
2, 84780, Note_on_c, 0, 71, 100
2, 84840, Note_on_c, 0, 71, 0
2, 84840, Note_on_c, 0, 72, 100
2, 85020, Note_on_c, 0, 72, 0
2, 85020, Note_on_c, 0, 74, 100
2, 85080, Note_on_c, 0, 74, 0
2, 85080, Note_on_c, 0, 72, 100
2, 85140, Note_on_c, 0, 72, 0
2, 85140, Note_on_c, 0, 71, 100
2, 85200, Note_on_c, 0, 71, 0
2, 85200, Note_on_c, 0, 72, 100
2, 85260, Note_on_c, 0, 72, 0
2, 85260, Note_on_c, 0, 79, 100
2, 85320, Note_on_c, 0, 79, 0
2, 85320, Note_on_c, 0, 78, 100
2, 85380, Note_on_c, 0, 78, 0
2, 85380, Note_on_c, 0, 76, 100
2, 85440, Note_on_c, 0, 76, 0
2, 85440, Note_on_c, 0, 78, 100
2, 85500, Note_on_c, 0, 78, 0
2, 85500, Note_on_c, 0, 83, 100
2, 85560, Note_on_c, 0, 83, 0
2, 85560, Note_on_c, 0, 81, 100
2, 85620, Note_on_c, 0, 81, 0
2, 85620, Note_on_c, 0, 79, 100
2, 85680, Note_on_c, 0, 79, 0
2, 85680, Note_on_c, 0, 81, 100
2, 85740, Note_on_c, 0, 81, 0
2, 85740, Note_on_c, 0, 86, 100
2, 85800, Note_on_c, 0, 86, 0
2, 85800, Note_on_c, 0, 84, 100
2, 85860, Note_on_c, 0, 84, 0
2, 85860, Note_on_c, 0, 83, 100
2, 85920, Note_on_c, 0, 83, 0
2, 85920, Note_on_c, 0, 84, 100
2, 85980, Note_on_c, 0, 84, 0
2, 85980, Note_on_c, 0, 83, 100
2, 86040, Note_on_c, 0, 83, 0
2, 86040, Note_on_c, 0, 81, 100
2, 86100, Note_on_c, 0, 81, 0
2, 86100, Note_on_c, 0, 79, 100
2, 86160, Note_on_c, 0, 79, 0
2, 86160, Note_on_c, 0, 78, 100
2, 86220, Note_on_c, 0, 78, 0
2, 86220, Note_on_c, 0, 76, 100
2, 86280, Note_on_c, 0, 76, 0
2, 86280, Note_on_c, 0, 74, 100
2, 86340, Note_on_c, 0, 74, 0
2, 86340, Note_on_c, 0, 72, 100
2, 86400, Note_on_c, 0, 72, 0
2, 86400, Note_on_c, 0, 71, 100
2, 86460, Note_on_c, 0, 71, 0
2, 86460, Note_on_c, 0, 79, 100
2, 86520, Note_on_c, 0, 79, 0
2, 86520, Note_on_c, 0, 78, 100
2, 86580, Note_on_c, 0, 78, 0
2, 86580, Note_on_c, 0, 79, 100
2, 86640, Note_on_c, 0, 79, 0
2, 86640, Note_on_c, 0, 81, 100
2, 86700, Note_on_c, 0, 81, 0
2, 86700, Note_on_c, 0, 79, 100
2, 86760, Note_on_c, 0, 79, 0
2, 86760, Note_on_c, 0, 78, 100
2, 86820, Note_on_c, 0, 78, 0
2, 86820, Note_on_c, 0, 79, 100
2, 86880, Note_on_c, 0, 79, 0
2, 86880, Note_on_c, 0, 72, 100
2, 86940, Note_on_c, 0, 72, 0
2, 86940, Note_on_c, 0, 78, 100
2, 87000, Note_on_c, 0, 78, 0
2, 87000, Note_on_c, 0, 76, 100
2, 87060, Note_on_c, 0, 76, 0
2, 87060, Note_on_c, 0, 78, 100
2, 87120, Note_on_c, 0, 78, 0
2, 87120, Note_on_c, 0, 79, 100
2, 87180, Note_on_c, 0, 79, 0
2, 87180, Note_on_c, 0, 78, 100
2, 87240, Note_on_c, 0, 78, 0
2, 87240, Note_on_c, 0, 76, 100
2, 87300, Note_on_c, 0, 76, 0
2, 87300, Note_on_c, 0, 78, 100
2, 87360, Note_on_c, 0, 78, 0
2, 87360, Note_on_c, 0, 74, 100
2, 87420, Note_on_c, 0, 74, 0
2, 87420, Note_on_c, 0, 77, 100
2, 87480, Note_on_c, 0, 77, 0
2, 87480, Note_on_c, 0, 76, 100
2, 87540, Note_on_c, 0, 76, 0
2, 87540, Note_on_c, 0, 77, 100
2, 87600, Note_on_c, 0, 77, 0
2, 87600, Note_on_c, 0, 79, 100
2, 87660, Note_on_c, 0, 79, 0
2, 87660, Note_on_c, 0, 77, 100
2, 87720, Note_on_c, 0, 77, 0
2, 87720, Note_on_c, 0, 76, 100
2, 87780, Note_on_c, 0, 76, 0
2, 87780, Note_on_c, 0, 74, 100
2, 87840, Note_on_c, 0, 74, 0
2, 87840, Note_on_c, 0, 76, 100
2, 87900, Note_on_c, 0, 76, 0
2, 87900, Note_on_c, 0, 72, 100
2, 87960, Note_on_c, 0, 72, 0
2, 87960, Note_on_c, 0, 71, 100
2, 88020, Note_on_c, 0, 71, 0
2, 88020, Note_on_c, 0, 72, 100
2, 88080, Note_on_c, 0, 72, 0
2, 88080, Note_on_c, 0, 74, 100
2, 88140, Note_on_c, 0, 74, 0
2, 88140, Note_on_c, 0, 72, 100
2, 88200, Note_on_c, 0, 72, 0
2, 88200, Note_on_c, 0, 71, 100
2, 88260, Note_on_c, 0, 71, 0
2, 88260, Note_on_c, 0, 72, 100
2, 88320, Note_on_c, 0, 72, 0
2, 88320, Note_on_c, 0, 74, 100
2, 88380, Note_on_c, 0, 74, 0
2, 88380, Note_on_c, 0, 71, 100
2, 88440, Note_on_c, 0, 71, 0
2, 88440, Note_on_c, 0, 69, 100
2, 88500, Note_on_c, 0, 69, 0
2, 88500, Note_on_c, 0, 71, 100
2, 88560, Note_on_c, 0, 71, 0
2, 88560, Note_on_c, 0, 72, 100
2, 88620, Note_on_c, 0, 72, 0
2, 88620, Note_on_c, 0, 71, 100
2, 88680, Note_on_c, 0, 71, 0
2, 88680, Note_on_c, 0, 69, 100
2, 88740, Note_on_c, 0, 69, 0
2, 88740, Note_on_c, 0, 71, 100
2, 88800, Note_on_c, 0, 71, 0
2, 88800, Note_on_c, 0, 73, 100
2, 88860, Note_on_c, 0, 73, 0
2, 88860, Note_on_c, 0, 70, 100
2, 88920, Note_on_c, 0, 70, 0
2, 88920, Note_on_c, 0, 69, 100
2, 88980, Note_on_c, 0, 69, 0
2, 88980, Note_on_c, 0, 70, 100
2, 89040, Note_on_c, 0, 70, 0
2, 89040, Note_on_c, 0, 72, 100
2, 89100, Note_on_c, 0, 72, 0
2, 89100, Note_on_c, 0, 70, 100
2, 89160, Note_on_c, 0, 70, 0
2, 89160, Note_on_c, 0, 69, 100
2, 89220, Note_on_c, 0, 69, 0
2, 89220, Note_on_c, 0, 67, 100
2, 89280, Note_on_c, 0, 67, 0
2, 89280, Note_on_c, 0, 66, 100
2, 89340, Note_on_c, 0, 66, 0
2, 89340, Note_on_c, 0, 72, 100
2, 89400, Note_on_c, 0, 72, 0
2, 89400, Note_on_c, 0, 71, 100
2, 89460, Note_on_c, 0, 71, 0
2, 89460, Note_on_c, 0, 72, 100
2, 89520, Note_on_c, 0, 72, 0
2, 89520, Note_on_c, 0, 74, 100
2, 89580, Note_on_c, 0, 74, 0
2, 89580, Note_on_c, 0, 72, 100
2, 89640, Note_on_c, 0, 72, 0
2, 89640, Note_on_c, 0, 71, 100
2, 89700, Note_on_c, 0, 71, 0
2, 89700, Note_on_c, 0, 72, 100
2, 89760, Note_on_c, 0, 72, 0
2, 89760, Note_on_c, 0, 78, 100
2, 89820, Note_on_c, 0, 78, 0
2, 89820, Note_on_c, 0, 72, 100
2, 89880, Note_on_c, 0, 72, 0
2, 89880, Note_on_c, 0, 71, 100
2, 89940, Note_on_c, 0, 71, 0
2, 89940, Note_on_c, 0, 72, 100
2, 90000, Note_on_c, 0, 72, 0
2, 90000, Note_on_c, 0, 74, 100
2, 90060, Note_on_c, 0, 74, 0
2, 90060, Note_on_c, 0, 72, 100
2, 90120, Note_on_c, 0, 72, 0
2, 90120, Note_on_c, 0, 71, 100
2, 90180, Note_on_c, 0, 71, 0
2, 90180, Note_on_c, 0, 72, 100
2, 90240, Note_on_c, 0, 72, 0
2, 90240, Note_on_c, 0, 81, 100
2, 90300, Note_on_c, 0, 81, 0
2, 90300, Note_on_c, 0, 72, 100
2, 90360, Note_on_c, 0, 72, 0
2, 90360, Note_on_c, 0, 71, 100
2, 90420, Note_on_c, 0, 71, 0
2, 90420, Note_on_c, 0, 72, 100
2, 90480, Note_on_c, 0, 72, 0
2, 90480, Note_on_c, 0, 74, 100
2, 90540, Note_on_c, 0, 74, 0
2, 90540, Note_on_c, 0, 72, 100
2, 90600, Note_on_c, 0, 72, 0
2, 90600, Note_on_c, 0, 71, 100
2, 90660, Note_on_c, 0, 71, 0
2, 90660, Note_on_c, 0, 69, 100
2, 90720, Note_on_c, 0, 69, 0
2, 90720, Note_on_c, 0, 71, 100
2, 90840, Note_on_c, 0, 71, 0
2, 90840, Note_on_c, 0, 66, 100
2, 90960, Note_on_c, 0, 66, 0
2, 90960, Note_on_c, 0, 66, 100
2, 91080, Note_on_c, 0, 66, 0
2, 91080, Note_on_c, 0, 67, 100
2, 91200, Note_on_c, 0, 67, 0
2, 91200, Note_on_c, 0, 67, 100
2, 91320, Note_on_c, 0, 67, 0
2, 91320, Note_on_c, 0, 60, 100
2, 91440, Note_on_c, 0, 60, 0
2, 91440, Note_on_c, 0, 60, 100
2, 91560, Note_on_c, 0, 60, 0
2, 91560, Note_on_c, 0, 59, 100
2, 91680, Note_on_c, 0, 59, 0
2, 91680, Note_on_c, 0, 59, 100
2, 92160, Note_on_c, 0, 59, 0
2, 92160, End_track
3, 0, Start_track
3, 0, MIDI_port, 0
3, 0, Title_t, "--------------------------------------"
3, 0, Program_c, 1, 6
3, 0, Control_c, 1, 7, 100
3, 0, Control_c, 1, 10, 64
3, 360, Note_on_c, 1, 59, 100
3, 480, Note_on_c, 1, 59, 0
3, 480, Note_on_c, 1, 62, 100
3, 1800, Note_on_c, 1, 62, 0
3, 1800, Note_on_c, 1, 57, 100
3, 1920, Note_on_c, 1, 57, 0
3, 1920, Note_on_c, 1, 62, 100
3, 3240, Note_on_c, 1, 62, 0
3, 3240, Note_on_c, 1, 59, 100
3, 3360, Note_on_c, 1, 59, 0
3, 3360, Note_on_c, 1, 61, 100
3, 4320, Note_on_c, 1, 61, 0
3, 4680, Note_on_c, 1, 54, 100
3, 4800, Note_on_c, 1, 54, 0
3, 4800, Note_on_c, 1, 57, 100
3, 5760, Note_on_c, 1, 57, 0
3, 6120, Note_on_c, 1, 50, 100
3, 6240, Note_on_c, 1, 50, 0
3, 6240, Note_on_c, 1, 55, 100
3, 7560, Note_on_c, 1, 55, 0
3, 7560, Note_on_c, 1, 54, 100
3, 7680, Note_on_c, 1, 54, 0
3, 7680, Note_on_c, 1, 55, 100
3, 9000, Note_on_c, 1, 55, 0
3, 9000, Note_on_c, 1, 52, 100
3, 9120, Note_on_c, 1, 52, 0
3, 9120, Note_on_c, 1, 54, 100
3, 10080, Note_on_c, 1, 54, 0
3, 10440, Note_on_c, 1, 50, 100
3, 10560, Note_on_c, 1, 50, 0
3, 10560, Note_on_c, 1, 55, 100
3, 11040, Note_on_c, 1, 55, 0
3, 11760, Note_on_c, 1, 59, 100
3, 12000, Note_on_c, 1, 59, 0
3, 12000, Note_on_c, 1, 64, 100
3, 13200, Note_on_c, 1, 64, 0
3, 13200, Note_on_c, 1, 57, 100
3, 13440, Note_on_c, 1, 57, 0
3, 13440, Note_on_c, 1, 62, 100
3, 14640, Note_on_c, 1, 62, 0
3, 14640, Note_on_c, 1, 59, 100
3, 14880, Note_on_c, 1, 59, 0
3, 14880, Note_on_c, 1, 55, 100
3, 15960, Note_on_c, 1, 55, 0
3, 15960, Note_on_c, 1, 57, 100
3, 16080, Note_on_c, 1, 57, 0
3, 16080, Note_on_c, 1, 55, 100
3, 16200, Note_on_c, 1, 55, 0
3, 16200, Note_on_c, 1, 54, 100
3, 16320, Note_on_c, 1, 54, 0
3, 16320, Note_on_c, 1, 55, 100
3, 16560, Note_on_c, 1, 55, 0
3, 17520, Note_on_c, 1, 57, 100
3, 17760, Note_on_c, 1, 57, 0
3, 17760, Note_on_c, 1, 62, 100
3, 18480, Note_on_c, 1, 62, 0
3, 18480, Note_on_c, 1, 57, 100
3, 18720, Note_on_c, 1, 57, 0
3, 18720, Note_on_c, 1, 55, 100
3, 18960, Note_on_c, 1, 55, 0
3, 18960, Note_on_c, 1, 59, 100
3, 19200, Note_on_c, 1, 59, 0
3, 19200, Note_on_c, 1, 64, 100
3, 19920, Note_on_c, 1, 64, 0
3, 19920, Note_on_c, 1, 59, 100
3, 20160, Note_on_c, 1, 59, 0
3, 20160, Note_on_c, 1, 57, 100
3, 20400, Note_on_c, 1, 57, 0
3, 20400, Note_on_c, 1, 61, 100
3, 20640, Note_on_c, 1, 61, 0
3, 20640, Note_on_c, 1, 67, 100
3, 20880, Note_on_c, 1, 67, 0
3, 20880, Note_on_c, 1, 64, 100
3, 21120, Note_on_c, 1, 64, 0
3, 21120, Note_on_c, 1, 61, 100
3, 21600, Note_on_c, 1, 61, 0
3, 21600, Note_on_c, 1, 62, 100
3, 21840, Note_on_c, 1, 62, 0
3, 21840, Note_on_c, 1, 52, 100
3, 22080, Note_on_c, 1, 52, 0
3, 22080, Note_on_c, 1, 54, 100
3, 22320, Note_on_c, 1, 54, 0
3, 22320, Note_on_c, 1, 58, 100
3, 22560, Note_on_c, 1, 58, 0
3, 22560, Note_on_c, 1, 57, 100
3, 23040, Note_on_c, 1, 57, 0
3, 23400, Note_on_c, 1, 59, 100
3, 23520, Note_on_c, 1, 59, 0
3, 23520, Note_on_c, 1, 62, 100
3, 24840, Note_on_c, 1, 62, 0
3, 24840, Note_on_c, 1, 57, 100
3, 24960, Note_on_c, 1, 57, 0
3, 24960, Note_on_c, 1, 62, 100
3, 26280, Note_on_c, 1, 62, 0
3, 26280, Note_on_c, 1, 59, 100
3, 26400, Note_on_c, 1, 59, 0
3, 26400, Note_on_c, 1, 61, 100
3, 27360, Note_on_c, 1, 61, 0
3, 27720, Note_on_c, 1, 54, 100
3, 27840, Note_on_c, 1, 54, 0
3, 27840, Note_on_c, 1, 57, 100
3, 28800, Note_on_c, 1, 57, 0
3, 29160, Note_on_c, 1, 50, 100
3, 29280, Note_on_c, 1, 50, 0
3, 29280, Note_on_c, 1, 55, 100
3, 30600, Note_on_c, 1, 55, 0
3, 30600, Note_on_c, 1, 54, 100
3, 30720, Note_on_c, 1, 54, 0
3, 30720, Note_on_c, 1, 55, 100
3, 32040, Note_on_c, 1, 55, 0
3, 32040, Note_on_c, 1, 52, 100
3, 32160, Note_on_c, 1, 52, 0
3, 32160, Note_on_c, 1, 54, 100
3, 33120, Note_on_c, 1, 54, 0
3, 33480, Note_on_c, 1, 50, 100
3, 33600, Note_on_c, 1, 50, 0
3, 33600, Note_on_c, 1, 55, 100
3, 34080, Note_on_c, 1, 55, 0
3, 34800, Note_on_c, 1, 59, 100
3, 35040, Note_on_c, 1, 59, 0
3, 35040, Note_on_c, 1, 64, 100
3, 36240, Note_on_c, 1, 64, 0
3, 36240, Note_on_c, 1, 57, 100
3, 36480, Note_on_c, 1, 57, 0
3, 36480, Note_on_c, 1, 62, 100
3, 37680, Note_on_c, 1, 62, 0
3, 37680, Note_on_c, 1, 59, 100
3, 37920, Note_on_c, 1, 59, 0
3, 37920, Note_on_c, 1, 55, 100
3, 39000, Note_on_c, 1, 55, 0
3, 39000, Note_on_c, 1, 57, 100
3, 39120, Note_on_c, 1, 57, 0
3, 39120, Note_on_c, 1, 55, 100
3, 39240, Note_on_c, 1, 55, 0
3, 39240, Note_on_c, 1, 54, 100
3, 39360, Note_on_c, 1, 54, 0
3, 39360, Note_on_c, 1, 55, 100
3, 39600, Note_on_c, 1, 55, 0
3, 40560, Note_on_c, 1, 57, 100
3, 40800, Note_on_c, 1, 57, 0
3, 40800, Note_on_c, 1, 62, 100
3, 41520, Note_on_c, 1, 62, 0
3, 41520, Note_on_c, 1, 57, 100
3, 41760, Note_on_c, 1, 57, 0
3, 41760, Note_on_c, 1, 55, 100
3, 42000, Note_on_c, 1, 55, 0
3, 42000, Note_on_c, 1, 59, 100
3, 42240, Note_on_c, 1, 59, 0
3, 42240, Note_on_c, 1, 64, 100
3, 42960, Note_on_c, 1, 64, 0
3, 42960, Note_on_c, 1, 59, 100
3, 43200, Note_on_c, 1, 59, 0
3, 43200, Note_on_c, 1, 57, 100
3, 43440, Note_on_c, 1, 57, 0
3, 43440, Note_on_c, 1, 61, 100
3, 43680, Note_on_c, 1, 61, 0
3, 43680, Note_on_c, 1, 67, 100
3, 43920, Note_on_c, 1, 67, 0
3, 43920, Note_on_c, 1, 64, 100
3, 44160, Note_on_c, 1, 64, 0
3, 44160, Note_on_c, 1, 61, 100
3, 44640, Note_on_c, 1, 61, 0
3, 44640, Note_on_c, 1, 62, 100
3, 44880, Note_on_c, 1, 62, 0
3, 44880, Note_on_c, 1, 52, 100
3, 45120, Note_on_c, 1, 52, 0
3, 45120, Note_on_c, 1, 54, 100
3, 45360, Note_on_c, 1, 54, 0
3, 45360, Note_on_c, 1, 58, 100
3, 45600, Note_on_c, 1, 58, 0
3, 45600, Note_on_c, 1, 57, 100
3, 46080, Note_on_c, 1, 57, 0
3, 46440, Note_on_c, 1, 66, 100
3, 46560, Note_on_c, 1, 66, 0
3, 46560, Note_on_c, 1, 69, 100
3, 47520, Note_on_c, 1, 69, 0
3, 47880, Note_on_c, 1, 62, 100
3, 48000, Note_on_c, 1, 62, 0
3, 48000, Note_on_c, 1, 67, 100
3, 49320, Note_on_c, 1, 67, 0
3, 49320, Note_on_c, 1, 68, 100
3, 49440, Note_on_c, 1, 68, 0
3, 49440, Note_on_c, 1, 69, 100
3, 49680, Note_on_c, 1, 69, 0
3, 49680, Note_on_c, 1, 62, 100
3, 49920, Note_on_c, 1, 62, 0
3, 49920, Note_on_c, 1, 64, 100
3, 50160, Note_on_c, 1, 64, 0
3, 50160, Note_on_c, 1, 67, 100
3, 50640, Note_on_c, 1, 67, 0
3, 50640, Note_on_c, 1, 66, 100
3, 50760, Note_on_c, 1, 66, 0
3, 50760, Note_on_c, 1, 64, 100
3, 50880, Note_on_c, 1, 64, 0
3, 50880, Note_on_c, 1, 66, 100
3, 51120, Note_on_c, 1, 66, 0
3, 52080, Note_on_c, 1, 59, 100
3, 52560, Note_on_c, 1, 59, 0
3, 52560, Note_on_c, 1, 57, 100
3, 53040, Note_on_c, 1, 57, 0
3, 53040, Note_on_c, 1, 56, 100
3, 53280, Note_on_c, 1, 56, 0
3, 53520, Note_on_c, 1, 60, 100
3, 54000, Note_on_c, 1, 60, 0
3, 54000, Note_on_c, 1, 64, 100
3, 54240, Note_on_c, 1, 64, 0
3, 54240, Note_on_c, 1, 60, 100
3, 54480, Note_on_c, 1, 60, 0
3, 54480, Note_on_c, 1, 57, 100
3, 54720, Note_on_c, 1, 57, 0
3, 54960, Note_on_c, 1, 54, 100
3, 55200, Note_on_c, 1, 54, 0
3, 55200, Note_on_c, 1, 55, 100
3, 55440, Note_on_c, 1, 55, 0
3, 55440, Note_on_c, 1, 64, 100
3, 55920, Note_on_c, 1, 64, 0
3, 55920, Note_on_c, 1, 63, 100
3, 56160, Note_on_c, 1, 63, 0
3, 56160, Note_on_c, 1, 64, 100
3, 56400, Note_on_c, 1, 64, 0
3, 56400, Note_on_c, 1, 54, 100
3, 56640, Note_on_c, 1, 54, 0
3, 56640, Note_on_c, 1, 55, 100
3, 56880, Note_on_c, 1, 55, 0
3, 56880, Note_on_c, 1, 63, 100
3, 56880, Note_on_c, 1, 60, 100
3, 57120, Note_on_c, 1, 60, 0
3, 57120, Note_on_c, 1, 63, 0
3, 57120, Note_on_c, 1, 64, 100
3, 57120, Note_on_c, 1, 59, 100
3, 57360, Note_on_c, 1, 59, 0
3, 57360, Note_on_c, 1, 64, 0
3, 57960, Note_on_c, 1, 55, 100
3, 58080, Note_on_c, 1, 55, 0
3, 58080, Note_on_c, 1, 60, 100
3, 58200, Note_on_c, 1, 60, 0
3, 58200, Note_on_c, 1, 62, 100
3, 58320, Note_on_c, 1, 62, 0
3, 58320, Note_on_c, 1, 64, 100
3, 58560, Note_on_c, 1, 64, 0
3, 58560, Note_on_c, 1, 62, 100
3, 58800, Note_on_c, 1, 62, 0
3, 58800, Note_on_c, 1, 61, 100
3, 59040, Note_on_c, 1, 61, 0
3, 59040, Note_on_c, 1, 59, 100
3, 59400, Note_on_c, 1, 59, 0
3, 59400, Note_on_c, 1, 54, 100
3, 59520, Note_on_c, 1, 54, 0
3, 59520, Note_on_c, 1, 59, 100
3, 59640, Note_on_c, 1, 59, 0
3, 59640, Note_on_c, 1, 60, 100
3, 59760, Note_on_c, 1, 60, 0
3, 59760, Note_on_c, 1, 62, 100
3, 60000, Note_on_c, 1, 62, 0
3, 60000, Note_on_c, 1, 60, 100
3, 60240, Note_on_c, 1, 60, 0
3, 60240, Note_on_c, 1, 59, 100
3, 60480, Note_on_c, 1, 59, 0
3, 60480, Note_on_c, 1, 57, 100
3, 60720, Note_on_c, 1, 57, 0
3, 60720, Note_on_c, 1, 52, 100
3, 60960, Note_on_c, 1, 52, 0
3, 60960, Note_on_c, 1, 57, 100
3, 61200, Note_on_c, 1, 57, 0
3, 61200, Note_on_c, 1, 60, 100
3, 61440, Note_on_c, 1, 60, 0
3, 61440, Note_on_c, 1, 57, 100
3, 61680, Note_on_c, 1, 57, 0
3, 61680, Note_on_c, 1, 54, 100
3, 61920, Note_on_c, 1, 54, 0
3, 61920, Note_on_c, 1, 50, 100
3, 62400, Note_on_c, 1, 50, 0
3, 63600, Note_on_c, 1, 64, 100
3, 63840, Note_on_c, 1, 64, 0
3, 63840, Note_on_c, 1, 63, 100
3, 64080, Note_on_c, 1, 63, 0
3, 64080, Note_on_c, 1, 62, 100
3, 64320, Note_on_c, 1, 62, 0
3, 64320, Note_on_c, 1, 67, 100
3, 64560, Note_on_c, 1, 67, 0
3, 64560, Note_on_c, 1, 59, 100
3, 64800, Note_on_c, 1, 59, 0
3, 64800, Note_on_c, 1, 60, 100
3, 65040, Note_on_c, 1, 60, 0
3, 65040, Note_on_c, 1, 55, 100
3, 65280, Note_on_c, 1, 55, 0
3, 65280, Note_on_c, 1, 57, 100
3, 65520, Note_on_c, 1, 57, 0
3, 65520, Note_on_c, 1, 62, 100
3, 65760, Note_on_c, 1, 62, 0
3, 65760, Note_on_c, 1, 64, 100
3, 66000, Note_on_c, 1, 64, 0
3, 66000, Note_on_c, 1, 57, 100
3, 66480, Note_on_c, 1, 57, 0
3, 66480, Note_on_c, 1, 57, 100
3, 66600, Note_on_c, 1, 57, 0
3, 66600, Note_on_c, 1, 55, 100
3, 66720, Note_on_c, 1, 55, 0
3, 66720, Note_on_c, 1, 57, 100
3, 67200, Note_on_c, 1, 57, 0
3, 67200, Note_on_c, 1, 55, 100
3, 67440, Note_on_c, 1, 55, 0
3, 67440, Note_on_c, 1, 54, 100
3, 67680, Note_on_c, 1, 54, 0
3, 67680, Note_on_c, 1, 55, 100
3, 67920, Note_on_c, 1, 55, 0
3, 67920, Note_on_c, 1, 57, 100
3, 68160, Note_on_c, 1, 57, 0
3, 68160, Note_on_c, 1, 59, 100
3, 68400, Note_on_c, 1, 59, 0
3, 68400, Note_on_c, 1, 54, 100
3, 68640, Note_on_c, 1, 54, 0
3, 68640, Note_on_c, 1, 55, 100
3, 69120, Note_on_c, 1, 55, 0
3, 69480, Note_on_c, 1, 66, 100
3, 69600, Note_on_c, 1, 66, 0
3, 69600, Note_on_c, 1, 69, 100
3, 70560, Note_on_c, 1, 69, 0
3, 70920, Note_on_c, 1, 62, 100
3, 71040, Note_on_c, 1, 62, 0
3, 71040, Note_on_c, 1, 67, 100
3, 72360, Note_on_c, 1, 67, 0
3, 72360, Note_on_c, 1, 68, 100
3, 72480, Note_on_c, 1, 68, 0
3, 72480, Note_on_c, 1, 69, 100
3, 72720, Note_on_c, 1, 69, 0
3, 72720, Note_on_c, 1, 62, 100
3, 72960, Note_on_c, 1, 62, 0
3, 72960, Note_on_c, 1, 64, 100
3, 73200, Note_on_c, 1, 64, 0
3, 73200, Note_on_c, 1, 67, 100
3, 73680, Note_on_c, 1, 67, 0
3, 73680, Note_on_c, 1, 66, 100
3, 73800, Note_on_c, 1, 66, 0
3, 73800, Note_on_c, 1, 64, 100
3, 73920, Note_on_c, 1, 64, 0
3, 73920, Note_on_c, 1, 66, 100
3, 74160, Note_on_c, 1, 66, 0
3, 75120, Note_on_c, 1, 59, 100
3, 75600, Note_on_c, 1, 59, 0
3, 75600, Note_on_c, 1, 57, 100
3, 76080, Note_on_c, 1, 57, 0
3, 76080, Note_on_c, 1, 56, 100
3, 76320, Note_on_c, 1, 56, 0
3, 76560, Note_on_c, 1, 60, 100
3, 77040, Note_on_c, 1, 60, 0
3, 77040, Note_on_c, 1, 64, 100
3, 77280, Note_on_c, 1, 64, 0
3, 77280, Note_on_c, 1, 60, 100
3, 77520, Note_on_c, 1, 60, 0
3, 77520, Note_on_c, 1, 57, 100
3, 77760, Note_on_c, 1, 57, 0
3, 78000, Note_on_c, 1, 54, 100
3, 78240, Note_on_c, 1, 54, 0
3, 78240, Note_on_c, 1, 55, 100
3, 78480, Note_on_c, 1, 55, 0
3, 78480, Note_on_c, 1, 64, 100
3, 78960, Note_on_c, 1, 64, 0
3, 78960, Note_on_c, 1, 63, 100
3, 79200, Note_on_c, 1, 63, 0
3, 79200, Note_on_c, 1, 64, 100
3, 79440, Note_on_c, 1, 64, 0
3, 79440, Note_on_c, 1, 54, 100
3, 79680, Note_on_c, 1, 54, 0
3, 79680, Note_on_c, 1, 55, 100
3, 79920, Note_on_c, 1, 55, 0
3, 79920, Note_on_c, 1, 63, 100
3, 79920, Note_on_c, 1, 60, 100
3, 80160, Note_on_c, 1, 60, 0
3, 80160, Note_on_c, 1, 63, 0
3, 80160, Note_on_c, 1, 64, 100
3, 80160, Note_on_c, 1, 59, 100
3, 80400, Note_on_c, 1, 59, 0
3, 80400, Note_on_c, 1, 64, 0
3, 81000, Note_on_c, 1, 55, 100
3, 81120, Note_on_c, 1, 55, 0
3, 81120, Note_on_c, 1, 60, 100
3, 81240, Note_on_c, 1, 60, 0
3, 81240, Note_on_c, 1, 62, 100
3, 81360, Note_on_c, 1, 62, 0
3, 81360, Note_on_c, 1, 64, 100
3, 81600, Note_on_c, 1, 64, 0
3, 81600, Note_on_c, 1, 62, 100
3, 81840, Note_on_c, 1, 62, 0
3, 81840, Note_on_c, 1, 61, 100
3, 82080, Note_on_c, 1, 61, 0
3, 82080, Note_on_c, 1, 59, 100
3, 82440, Note_on_c, 1, 59, 0
3, 82440, Note_on_c, 1, 54, 100
3, 82560, Note_on_c, 1, 54, 0
3, 82560, Note_on_c, 1, 59, 100
3, 82680, Note_on_c, 1, 59, 0
3, 82680, Note_on_c, 1, 60, 100
3, 82800, Note_on_c, 1, 60, 0
3, 82800, Note_on_c, 1, 62, 100
3, 83040, Note_on_c, 1, 62, 0
3, 83040, Note_on_c, 1, 60, 100
3, 83280, Note_on_c, 1, 60, 0
3, 83280, Note_on_c, 1, 59, 100
3, 83520, Note_on_c, 1, 59, 0
3, 83520, Note_on_c, 1, 57, 100
3, 83760, Note_on_c, 1, 57, 0
3, 83760, Note_on_c, 1, 52, 100
3, 84000, Note_on_c, 1, 52, 0
3, 84000, Note_on_c, 1, 57, 100
3, 84240, Note_on_c, 1, 57, 0
3, 84240, Note_on_c, 1, 60, 100
3, 84480, Note_on_c, 1, 60, 0
3, 84480, Note_on_c, 1, 57, 100
3, 84720, Note_on_c, 1, 57, 0
3, 84720, Note_on_c, 1, 54, 100
3, 84960, Note_on_c, 1, 54, 0
3, 84960, Note_on_c, 1, 50, 100
3, 85440, Note_on_c, 1, 50, 0
3, 86640, Note_on_c, 1, 64, 100
3, 86880, Note_on_c, 1, 64, 0
3, 86880, Note_on_c, 1, 63, 100
3, 87120, Note_on_c, 1, 63, 0
3, 87120, Note_on_c, 1, 62, 100
3, 87360, Note_on_c, 1, 62, 0
3, 87360, Note_on_c, 1, 67, 100
3, 87600, Note_on_c, 1, 67, 0
3, 87600, Note_on_c, 1, 59, 100
3, 87840, Note_on_c, 1, 59, 0
3, 87840, Note_on_c, 1, 60, 100
3, 88080, Note_on_c, 1, 60, 0
3, 88080, Note_on_c, 1, 55, 100
3, 88320, Note_on_c, 1, 55, 0
3, 88320, Note_on_c, 1, 57, 100
3, 88560, Note_on_c, 1, 57, 0
3, 88560, Note_on_c, 1, 62, 100
3, 88800, Note_on_c, 1, 62, 0
3, 88800, Note_on_c, 1, 64, 100
3, 89040, Note_on_c, 1, 64, 0
3, 89040, Note_on_c, 1, 57, 100
3, 89520, Note_on_c, 1, 57, 0
3, 89520, Note_on_c, 1, 57, 100
3, 89640, Note_on_c, 1, 57, 0
3, 89640, Note_on_c, 1, 55, 100
3, 89760, Note_on_c, 1, 55, 0
3, 89760, Note_on_c, 1, 57, 100
3, 90240, Note_on_c, 1, 57, 0
3, 90240, Note_on_c, 1, 55, 100
3, 90480, Note_on_c, 1, 55, 0
3, 90480, Note_on_c, 1, 54, 100
3, 90720, Note_on_c, 1, 54, 0
3, 90720, Note_on_c, 1, 55, 100
3, 90960, Note_on_c, 1, 55, 0
3, 90960, Note_on_c, 1, 57, 100
3, 91200, Note_on_c, 1, 57, 0
3, 91200, Note_on_c, 1, 59, 100
3, 91440, Note_on_c, 1, 59, 0
3, 91440, Note_on_c, 1, 54, 100
3, 91680, Note_on_c, 1, 54, 0
3, 91680, Note_on_c, 1, 55, 100
3, 92160, Note_on_c, 1, 55, 0
3, 92160, End_track
4, 0, Start_track
4, 0, MIDI_port, 0
4, 0, Title_t, "Johann Sebastian Bach  (1685-1750)"
4, 0, Program_c, 2, 6
4, 0, Control_c, 2, 7, 100
4, 0, Control_c, 2, 10, 54
4, 0, Note_on_c, 2, 55, 100
4, 720, Note_on_c, 2, 55, 0
4, 720, Note_on_c, 2, 55, 100
4, 960, Note_on_c, 2, 55, 0
4, 960, Note_on_c, 2, 54, 100
4, 1200, Note_on_c, 2, 54, 0
4, 1200, Note_on_c, 2, 52, 100
4, 1440, Note_on_c, 2, 52, 0
4, 1440, Note_on_c, 2, 54, 100
4, 2160, Note_on_c, 2, 54, 0
4, 2160, Note_on_c, 2, 59, 100
4, 2400, Note_on_c, 2, 59, 0
4, 2400, Note_on_c, 2, 57, 100
4, 2640, Note_on_c, 2, 57, 0
4, 2640, Note_on_c, 2, 59, 100
4, 2880, Note_on_c, 2, 59, 0
4, 2880, Note_on_c, 2, 52, 100
4, 3600, Note_on_c, 2, 52, 0
4, 3600, Note_on_c, 2, 57, 100
4, 3840, Note_on_c, 2, 57, 0
4, 3840, Note_on_c, 2, 55, 100
4, 4080, Note_on_c, 2, 55, 0
4, 4080, Note_on_c, 2, 57, 100
4, 4320, Note_on_c, 2, 57, 0
4, 4320, Note_on_c, 2, 50, 100
4, 5040, Note_on_c, 2, 50, 0
4, 5040, Note_on_c, 2, 52, 100
4, 5280, Note_on_c, 2, 52, 0
4, 5280, Note_on_c, 2, 50, 100
4, 5520, Note_on_c, 2, 50, 0
4, 5520, Note_on_c, 2, 48, 100
4, 5760, Note_on_c, 2, 48, 0
4, 5760, Note_on_c, 2, 47, 100
4, 6480, Note_on_c, 2, 47, 0
4, 6480, Note_on_c, 2, 43, 100
4, 6720, Note_on_c, 2, 43, 0
4, 6720, Note_on_c, 2, 45, 100
4, 6960, Note_on_c, 2, 45, 0
4, 6960, Note_on_c, 2, 47, 100
4, 7200, Note_on_c, 2, 47, 0
4, 7200, Note_on_c, 2, 48, 100
4, 7920, Note_on_c, 2, 48, 0
4, 7920, Note_on_c, 2, 45, 100
4, 8160, Note_on_c, 2, 45, 0
4, 8160, Note_on_c, 2, 47, 100
4, 8400, Note_on_c, 2, 47, 0
4, 8400, Note_on_c, 2, 48, 100
4, 8640, Note_on_c, 2, 48, 0
4, 8640, Note_on_c, 2, 50, 100
4, 9360, Note_on_c, 2, 50, 0
4, 9360, Note_on_c, 2, 50, 100
4, 9600, Note_on_c, 2, 50, 0
4, 9600, Note_on_c, 2, 48, 100
4, 9840, Note_on_c, 2, 48, 0
4, 9840, Note_on_c, 2, 50, 100
4, 10080, Note_on_c, 2, 50, 0
4, 10080, Note_on_c, 2, 43, 100
4, 10800, Note_on_c, 2, 43, 0
4, 10800, Note_on_c, 2, 43, 100
4, 11040, Note_on_c, 2, 43, 0
4, 11040, Note_on_c, 2, 47, 100
4, 11280, Note_on_c, 2, 47, 0
4, 11280, Note_on_c, 2, 50, 100
4, 11520, Note_on_c, 2, 50, 0
4, 11520, Note_on_c, 2, 55, 100
4, 12240, Note_on_c, 2, 55, 0
4, 12240, Note_on_c, 2, 55, 100
4, 12480, Note_on_c, 2, 55, 0
4, 12480, Note_on_c, 2, 54, 100
4, 12720, Note_on_c, 2, 54, 0
4, 12720, Note_on_c, 2, 52, 100
4, 12960, Note_on_c, 2, 52, 0
4, 12960, Note_on_c, 2, 54, 100
4, 13680, Note_on_c, 2, 54, 0
4, 13680, Note_on_c, 2, 59, 100
4, 13920, Note_on_c, 2, 59, 0
4, 13920, Note_on_c, 2, 57, 100
4, 14160, Note_on_c, 2, 57, 0
4, 14160, Note_on_c, 2, 59, 100
4, 14400, Note_on_c, 2, 59, 0
4, 14400, Note_on_c, 2, 52, 100
4, 15120, Note_on_c, 2, 52, 0
4, 15120, Note_on_c, 2, 54, 100
4, 15360, Note_on_c, 2, 54, 0
4, 15360, Note_on_c, 2, 52, 100
4, 15600, Note_on_c, 2, 52, 0
4, 15600, Note_on_c, 2, 50, 100
4, 15840, Note_on_c, 2, 50, 0
4, 15840, Note_on_c, 2, 49, 100
4, 16560, Note_on_c, 2, 49, 0
4, 16560, Note_on_c, 2, 52, 100
4, 16800, Note_on_c, 2, 52, 0
4, 16800, Note_on_c, 2, 45, 100
4, 17040, Note_on_c, 2, 45, 0
4, 17040, Note_on_c, 2, 43, 100
4, 17280, Note_on_c, 2, 43, 0
4, 17280, Note_on_c, 2, 42, 100
4, 17520, Note_on_c, 2, 42, 0
4, 17520, Note_on_c, 2, 54, 100
4, 17700, Note_on_c, 2, 54, 0
4, 17700, Note_on_c, 2, 52, 100
4, 17760, Note_on_c, 2, 52, 0
4, 17760, Note_on_c, 2, 54, 100
4, 18000, Note_on_c, 2, 54, 0
4, 18000, Note_on_c, 2, 57, 100
4, 18240, Note_on_c, 2, 57, 0
4, 18240, Note_on_c, 2, 50, 100
4, 18480, Note_on_c, 2, 50, 0
4, 18480, Note_on_c, 2, 54, 100
4, 18720, Note_on_c, 2, 54, 0
4, 18720, Note_on_c, 2, 43, 100
4, 18960, Note_on_c, 2, 43, 0
4, 18960, Note_on_c, 2, 55, 100
4, 19140, Note_on_c, 2, 55, 0
4, 19140, Note_on_c, 2, 54, 100
4, 19200, Note_on_c, 2, 54, 0
4, 19200, Note_on_c, 2, 55, 100
4, 19440, Note_on_c, 2, 55, 0
4, 19440, Note_on_c, 2, 59, 100
4, 19680, Note_on_c, 2, 59, 0
4, 19680, Note_on_c, 2, 52, 100
4, 19920, Note_on_c, 2, 52, 0
4, 19920, Note_on_c, 2, 55, 100
4, 20160, Note_on_c, 2, 55, 0
4, 20160, Note_on_c, 2, 45, 100
4, 20400, Note_on_c, 2, 45, 0
4, 20400, Note_on_c, 2, 57, 100
4, 20580, Note_on_c, 2, 57, 0
4, 20580, Note_on_c, 2, 55, 100
4, 20640, Note_on_c, 2, 55, 0
4, 20640, Note_on_c, 2, 57, 100
4, 21360, Note_on_c, 2, 57, 0
4, 21360, Note_on_c, 2, 57, 100
4, 21600, Note_on_c, 2, 57, 0
4, 21600, Note_on_c, 2, 50, 100
4, 22320, Note_on_c, 2, 61, 100
4, 22560, Note_on_c, 2, 61, 0
4, 22560, Note_on_c, 2, 62, 100
4, 23040, Note_on_c, 2, 62, 0
4, 23040, Note_on_c, 2, 50, 0
4, 23040, Note_on_c, 2, 55, 100
4, 23760, Note_on_c, 2, 55, 0
4, 23760, Note_on_c, 2, 55, 100
4, 24000, Note_on_c, 2, 55, 0
4, 24000, Note_on_c, 2, 54, 100
4, 24240, Note_on_c, 2, 54, 0
4, 24240, Note_on_c, 2, 52, 100
4, 24480, Note_on_c, 2, 52, 0
4, 24480, Note_on_c, 2, 54, 100
4, 25200, Note_on_c, 2, 54, 0
4, 25200, Note_on_c, 2, 59, 100
4, 25440, Note_on_c, 2, 59, 0
4, 25440, Note_on_c, 2, 57, 100
4, 25680, Note_on_c, 2, 57, 0
4, 25680, Note_on_c, 2, 59, 100
4, 25920, Note_on_c, 2, 59, 0
4, 25920, Note_on_c, 2, 52, 100
4, 26640, Note_on_c, 2, 52, 0
4, 26640, Note_on_c, 2, 57, 100
4, 26880, Note_on_c, 2, 57, 0
4, 26880, Note_on_c, 2, 55, 100
4, 27120, Note_on_c, 2, 55, 0
4, 27120, Note_on_c, 2, 57, 100
4, 27360, Note_on_c, 2, 57, 0
4, 27360, Note_on_c, 2, 50, 100
4, 28080, Note_on_c, 2, 50, 0
4, 28080, Note_on_c, 2, 52, 100
4, 28320, Note_on_c, 2, 52, 0
4, 28320, Note_on_c, 2, 50, 100
4, 28560, Note_on_c, 2, 50, 0
4, 28560, Note_on_c, 2, 48, 100
4, 28800, Note_on_c, 2, 48, 0
4, 28800, Note_on_c, 2, 47, 100
4, 29520, Note_on_c, 2, 47, 0
4, 29520, Note_on_c, 2, 43, 100
4, 29760, Note_on_c, 2, 43, 0
4, 29760, Note_on_c, 2, 45, 100
4, 30000, Note_on_c, 2, 45, 0
4, 30000, Note_on_c, 2, 47, 100
4, 30240, Note_on_c, 2, 47, 0
4, 30240, Note_on_c, 2, 48, 100
4, 30960, Note_on_c, 2, 48, 0
4, 30960, Note_on_c, 2, 45, 100
4, 31200, Note_on_c, 2, 45, 0
4, 31200, Note_on_c, 2, 47, 100
4, 31440, Note_on_c, 2, 47, 0
4, 31440, Note_on_c, 2, 48, 100
4, 31680, Note_on_c, 2, 48, 0
4, 31680, Note_on_c, 2, 50, 100
4, 32400, Note_on_c, 2, 50, 0
4, 32400, Note_on_c, 2, 50, 100
4, 32640, Note_on_c, 2, 50, 0
4, 32640, Note_on_c, 2, 48, 100
4, 32880, Note_on_c, 2, 48, 0
4, 32880, Note_on_c, 2, 50, 100
4, 33120, Note_on_c, 2, 50, 0
4, 33120, Note_on_c, 2, 43, 100
4, 33840, Note_on_c, 2, 43, 0
4, 33840, Note_on_c, 2, 43, 100
4, 34080, Note_on_c, 2, 43, 0
4, 34080, Note_on_c, 2, 47, 100
4, 34320, Note_on_c, 2, 47, 0
4, 34320, Note_on_c, 2, 50, 100
4, 34560, Note_on_c, 2, 50, 0
4, 34560, Note_on_c, 2, 55, 100
4, 35280, Note_on_c, 2, 55, 0
4, 35280, Note_on_c, 2, 55, 100
4, 35520, Note_on_c, 2, 55, 0
4, 35520, Note_on_c, 2, 54, 100
4, 35760, Note_on_c, 2, 54, 0
4, 35760, Note_on_c, 2, 52, 100
4, 36000, Note_on_c, 2, 52, 0
4, 36000, Note_on_c, 2, 54, 100
4, 36720, Note_on_c, 2, 54, 0
4, 36720, Note_on_c, 2, 59, 100
4, 36960, Note_on_c, 2, 59, 0
4, 36960, Note_on_c, 2, 57, 100
4, 37200, Note_on_c, 2, 57, 0
4, 37200, Note_on_c, 2, 59, 100
4, 37440, Note_on_c, 2, 59, 0
4, 37440, Note_on_c, 2, 52, 100
4, 38160, Note_on_c, 2, 52, 0
4, 38160, Note_on_c, 2, 54, 100
4, 38400, Note_on_c, 2, 54, 0
4, 38400, Note_on_c, 2, 52, 100
4, 38640, Note_on_c, 2, 52, 0
4, 38640, Note_on_c, 2, 50, 100
4, 38880, Note_on_c, 2, 50, 0
4, 38880, Note_on_c, 2, 49, 100
4, 39600, Note_on_c, 2, 49, 0
4, 39600, Note_on_c, 2, 52, 100
4, 39840, Note_on_c, 2, 52, 0
4, 39840, Note_on_c, 2, 45, 100
4, 40080, Note_on_c, 2, 45, 0
4, 40080, Note_on_c, 2, 43, 100
4, 40320, Note_on_c, 2, 43, 0
4, 40320, Note_on_c, 2, 42, 100
4, 40560, Note_on_c, 2, 42, 0
4, 40560, Note_on_c, 2, 54, 100
4, 40740, Note_on_c, 2, 54, 0
4, 40740, Note_on_c, 2, 52, 100
4, 40800, Note_on_c, 2, 52, 0
4, 40800, Note_on_c, 2, 54, 100
4, 41040, Note_on_c, 2, 54, 0
4, 41040, Note_on_c, 2, 57, 100
4, 41280, Note_on_c, 2, 57, 0
4, 41280, Note_on_c, 2, 50, 100
4, 41520, Note_on_c, 2, 50, 0
4, 41520, Note_on_c, 2, 54, 100
4, 41760, Note_on_c, 2, 54, 0
4, 41760, Note_on_c, 2, 43, 100
4, 42000, Note_on_c, 2, 43, 0
4, 42000, Note_on_c, 2, 55, 100
4, 42180, Note_on_c, 2, 55, 0
4, 42180, Note_on_c, 2, 54, 100
4, 42240, Note_on_c, 2, 54, 0
4, 42240, Note_on_c, 2, 55, 100
4, 42480, Note_on_c, 2, 55, 0
4, 42480, Note_on_c, 2, 59, 100
4, 42720, Note_on_c, 2, 59, 0
4, 42720, Note_on_c, 2, 52, 100
4, 42960, Note_on_c, 2, 52, 0
4, 42960, Note_on_c, 2, 55, 100
4, 43200, Note_on_c, 2, 55, 0
4, 43200, Note_on_c, 2, 45, 100
4, 43440, Note_on_c, 2, 45, 0
4, 43440, Note_on_c, 2, 57, 100
4, 43620, Note_on_c, 2, 57, 0
4, 43620, Note_on_c, 2, 55, 100
4, 43680, Note_on_c, 2, 55, 0
4, 43680, Note_on_c, 2, 57, 100
4, 44400, Note_on_c, 2, 57, 0
4, 44400, Note_on_c, 2, 57, 100
4, 44640, Note_on_c, 2, 57, 0
4, 44640, Note_on_c, 2, 50, 100
4, 45360, Note_on_c, 2, 61, 100
4, 45600, Note_on_c, 2, 61, 0
4, 45600, Note_on_c, 2, 62, 100
4, 46080, Note_on_c, 2, 62, 0
4, 46080, Note_on_c, 2, 50, 0
4, 46080, Note_on_c, 2, 62, 100
4, 46800, Note_on_c, 2, 62, 0
4, 46800, Note_on_c, 2, 60, 100
4, 46920, Note_on_c, 2, 60, 0
4, 46920, Note_on_c, 2, 59, 100
4, 47040, Note_on_c, 2, 59, 0
4, 47040, Note_on_c, 2, 60, 100
4, 47280, Note_on_c, 2, 60, 0
4, 47280, Note_on_c, 2, 57, 100
4, 47520, Note_on_c, 2, 57, 0
4, 47520, Note_on_c, 2, 59, 100
4, 48240, Note_on_c, 2, 59, 0
4, 48240, Note_on_c, 2, 62, 100
4, 48480, Note_on_c, 2, 62, 0
4, 48480, Note_on_c, 2, 55, 100
4, 48720, Note_on_c, 2, 55, 0
4, 48720, Note_on_c, 2, 59, 100
4, 48960, Note_on_c, 2, 59, 0
4, 48960, Note_on_c, 2, 60, 100
4, 49680, Note_on_c, 2, 60, 0
4, 49680, Note_on_c, 2, 59, 100
4, 49920, Note_on_c, 2, 59, 0
4, 49920, Note_on_c, 2, 60, 100
4, 50160, Note_on_c, 2, 60, 0
4, 50160, Note_on_c, 2, 57, 100
4, 50400, Note_on_c, 2, 57, 0
4, 50400, Note_on_c, 2, 59, 100
4, 51120, Note_on_c, 2, 59, 0
4, 51120, Note_on_c, 2, 47, 100
4, 51360, Note_on_c, 2, 47, 0
4, 51360, Note_on_c, 2, 49, 100
4, 51600, Note_on_c, 2, 49, 0
4, 51600, Note_on_c, 2, 51, 100
4, 51840, Note_on_c, 2, 51, 0
4, 51840, Note_on_c, 2, 40, 100
4, 52080, Note_on_c, 2, 40, 0
4, 52080, Note_on_c, 2, 55, 100
4, 52200, Note_on_c, 2, 55, 0
4, 52200, Note_on_c, 2, 57, 100
4, 52320, Note_on_c, 2, 57, 0
4, 52320, Note_on_c, 2, 55, 100
4, 52560, Note_on_c, 2, 55, 0
4, 52560, Note_on_c, 2, 54, 100
4, 52800, Note_on_c, 2, 54, 0
4, 52800, Note_on_c, 2, 52, 100
4, 53280, Note_on_c, 2, 52, 0
4, 53280, Note_on_c, 2, 45, 100
4, 53520, Note_on_c, 2, 45, 0
4, 53520, Note_on_c, 2, 57, 100
4, 53640, Note_on_c, 2, 57, 0
4, 53640, Note_on_c, 2, 55, 100
4, 53760, Note_on_c, 2, 55, 0
4, 53760, Note_on_c, 2, 57, 100
4, 54000, Note_on_c, 2, 57, 0
4, 54000, Note_on_c, 2, 60, 100
4, 54240, Note_on_c, 2, 60, 0
4, 54240, Note_on_c, 2, 57, 100
4, 54480, Note_on_c, 2, 57, 0
4, 54480, Note_on_c, 2, 54, 100
4, 54720, Note_on_c, 2, 54, 0
4, 54720, Note_on_c, 2, 47, 100
4, 54960, Note_on_c, 2, 47, 0
4, 54960, Note_on_c, 2, 51, 100
4, 55200, Note_on_c, 2, 51, 0
4, 55200, Note_on_c, 2, 52, 100
4, 55440, Note_on_c, 2, 52, 0
4, 55440, Note_on_c, 2, 55, 100
4, 55680, Note_on_c, 2, 55, 0
4, 55680, Note_on_c, 2, 59, 100
4, 56160, Note_on_c, 2, 59, 0
4, 56160, Note_on_c, 2, 52, 100
4, 57360, Note_on_c, 2, 52, 0
4, 57360, Note_on_c, 2, 50, 100
4, 57600, Note_on_c, 2, 50, 0
4, 57600, Note_on_c, 2, 48, 100
4, 58080, Note_on_c, 2, 48, 0
4, 58320, Note_on_c, 2, 60, 100
4, 58560, Note_on_c, 2, 60, 0
4, 58560, Note_on_c, 2, 59, 100
4, 58800, Note_on_c, 2, 59, 0
4, 58800, Note_on_c, 2, 58, 100
4, 59040, Note_on_c, 2, 58, 0
4, 59040, Note_on_c, 2, 59, 100
4, 59280, Note_on_c, 2, 59, 0
4, 59280, Note_on_c, 2, 47, 100
4, 59520, Note_on_c, 2, 47, 0
4, 59760, Note_on_c, 2, 59, 100
4, 60000, Note_on_c, 2, 59, 0
4, 60000, Note_on_c, 2, 57, 100
4, 60240, Note_on_c, 2, 57, 0
4, 60240, Note_on_c, 2, 56, 100
4, 60480, Note_on_c, 2, 56, 0
4, 60480, Note_on_c, 2, 57, 100
4, 60720, Note_on_c, 2, 57, 0
4, 60720, Note_on_c, 2, 45, 100
4, 60960, Note_on_c, 2, 45, 0
4, 62160, Note_on_c, 2, 45, 100
4, 62400, Note_on_c, 2, 45, 0
4, 62400, Note_on_c, 2, 38, 100
4, 62640, Note_on_c, 2, 38, 0
4, 62640, Note_on_c, 2, 42, 100
4, 62880, Note_on_c, 2, 42, 0
4, 62880, Note_on_c, 2, 45, 100
4, 63120, Note_on_c, 2, 45, 0
4, 63120, Note_on_c, 2, 50, 100
4, 63360, Note_on_c, 2, 50, 0
4, 63360, Note_on_c, 2, 43, 100
4, 63600, Note_on_c, 2, 43, 0
4, 63600, Note_on_c, 2, 55, 100
4, 63840, Note_on_c, 2, 55, 0
4, 63840, Note_on_c, 2, 57, 100
4, 64080, Note_on_c, 2, 57, 0
4, 64080, Note_on_c, 2, 59, 100
4, 64320, Note_on_c, 2, 59, 0
4, 64560, Note_on_c, 2, 55, 100
4, 64800, Note_on_c, 2, 55, 0
4, 64800, Note_on_c, 2, 48, 100
4, 65040, Note_on_c, 2, 48, 0
4, 65040, Note_on_c, 2, 52, 100
4, 65280, Note_on_c, 2, 52, 0
4, 65280, Note_on_c, 2, 53, 100
4, 65520, Note_on_c, 2, 53, 0
4, 65520, Note_on_c, 2, 54, 100
4, 65760, Note_on_c, 2, 54, 0
4, 65760, Note_on_c, 2, 55, 100
4, 66000, Note_on_c, 2, 55, 0
4, 66000, Note_on_c, 2, 54, 100
4, 66120, Note_on_c, 2, 54, 0
4, 66120, Note_on_c, 2, 52, 100
4, 66240, Note_on_c, 2, 52, 0
4, 66240, Note_on_c, 2, 50, 100
4, 66960, Note_on_c, 2, 50, 0
4, 66960, Note_on_c, 2, 54, 100
4, 67200, Note_on_c, 2, 54, 0
4, 67200, Note_on_c, 2, 52, 100
4, 67440, Note_on_c, 2, 52, 0
4, 67440, Note_on_c, 2, 50, 100
4, 67680, Note_on_c, 2, 50, 0
4, 67680, Note_on_c, 2, 43, 100
4, 68160, Note_on_c, 2, 43, 0
4, 68400, Note_on_c, 2, 51, 100
4, 68640, Note_on_c, 2, 51, 0
4, 68640, Note_on_c, 2, 43, 100
4, 68640, Note_on_c, 2, 50, 100
4, 69120, Note_on_c, 2, 50, 0
4, 69120, Note_on_c, 2, 43, 0
4, 69120, Note_on_c, 2, 62, 100
4, 69840, Note_on_c, 2, 62, 0
4, 69840, Note_on_c, 2, 60, 100
4, 69960, Note_on_c, 2, 60, 0
4, 69960, Note_on_c, 2, 59, 100
4, 70080, Note_on_c, 2, 59, 0
4, 70080, Note_on_c, 2, 60, 100
4, 70320, Note_on_c, 2, 60, 0
4, 70320, Note_on_c, 2, 57, 100
4, 70560, Note_on_c, 2, 57, 0
4, 70560, Note_on_c, 2, 59, 100
4, 71280, Note_on_c, 2, 59, 0
4, 71280, Note_on_c, 2, 62, 100
4, 71520, Note_on_c, 2, 62, 0
4, 71520, Note_on_c, 2, 55, 100
4, 71760, Note_on_c, 2, 55, 0
4, 71760, Note_on_c, 2, 59, 100
4, 72000, Note_on_c, 2, 59, 0
4, 72000, Note_on_c, 2, 60, 100
4, 72720, Note_on_c, 2, 60, 0
4, 72720, Note_on_c, 2, 59, 100
4, 72960, Note_on_c, 2, 59, 0
4, 72960, Note_on_c, 2, 60, 100
4, 73200, Note_on_c, 2, 60, 0
4, 73200, Note_on_c, 2, 57, 100
4, 73440, Note_on_c, 2, 57, 0
4, 73440, Note_on_c, 2, 59, 100
4, 74160, Note_on_c, 2, 59, 0
4, 74160, Note_on_c, 2, 47, 100
4, 74400, Note_on_c, 2, 47, 0
4, 74400, Note_on_c, 2, 49, 100
4, 74640, Note_on_c, 2, 49, 0
4, 74640, Note_on_c, 2, 51, 100
4, 74880, Note_on_c, 2, 51, 0
4, 74880, Note_on_c, 2, 40, 100
4, 75120, Note_on_c, 2, 40, 0
4, 75120, Note_on_c, 2, 55, 100
4, 75240, Note_on_c, 2, 55, 0
4, 75240, Note_on_c, 2, 57, 100
4, 75360, Note_on_c, 2, 57, 0
4, 75360, Note_on_c, 2, 55, 100
4, 75600, Note_on_c, 2, 55, 0
4, 75600, Note_on_c, 2, 54, 100
4, 75840, Note_on_c, 2, 54, 0
4, 75840, Note_on_c, 2, 52, 100
4, 76320, Note_on_c, 2, 52, 0
4, 76320, Note_on_c, 2, 45, 100
4, 76560, Note_on_c, 2, 45, 0
4, 76560, Note_on_c, 2, 57, 100
4, 76680, Note_on_c, 2, 57, 0
4, 76680, Note_on_c, 2, 55, 100
4, 76800, Note_on_c, 2, 55, 0
4, 76800, Note_on_c, 2, 57, 100
4, 77040, Note_on_c, 2, 57, 0
4, 77040, Note_on_c, 2, 60, 100
4, 77280, Note_on_c, 2, 60, 0
4, 77280, Note_on_c, 2, 57, 100
4, 77520, Note_on_c, 2, 57, 0
4, 77520, Note_on_c, 2, 54, 100
4, 77760, Note_on_c, 2, 54, 0
4, 77760, Note_on_c, 2, 47, 100
4, 78000, Note_on_c, 2, 47, 0
4, 78000, Note_on_c, 2, 51, 100
4, 78240, Note_on_c, 2, 51, 0
4, 78240, Note_on_c, 2, 52, 100
4, 78480, Note_on_c, 2, 52, 0
4, 78480, Note_on_c, 2, 55, 100
4, 78720, Note_on_c, 2, 55, 0
4, 78720, Note_on_c, 2, 59, 100
4, 79200, Note_on_c, 2, 59, 0
4, 79200, Note_on_c, 2, 52, 100
4, 80400, Note_on_c, 2, 52, 0
4, 80400, Note_on_c, 2, 50, 100
4, 80640, Note_on_c, 2, 50, 0
4, 80640, Note_on_c, 2, 48, 100
4, 81120, Note_on_c, 2, 48, 0
4, 81360, Note_on_c, 2, 60, 100
4, 81600, Note_on_c, 2, 60, 0
4, 81600, Note_on_c, 2, 59, 100
4, 81840, Note_on_c, 2, 59, 0
4, 81840, Note_on_c, 2, 58, 100
4, 82080, Note_on_c, 2, 58, 0
4, 82080, Note_on_c, 2, 59, 100
4, 82320, Note_on_c, 2, 59, 0
4, 82320, Note_on_c, 2, 47, 100
4, 82560, Note_on_c, 2, 47, 0
4, 82800, Note_on_c, 2, 59, 100
4, 83040, Note_on_c, 2, 59, 0
4, 83040, Note_on_c, 2, 57, 100
4, 83280, Note_on_c, 2, 57, 0
4, 83280, Note_on_c, 2, 56, 100
4, 83520, Note_on_c, 2, 56, 0
4, 83520, Note_on_c, 2, 57, 100
4, 83760, Note_on_c, 2, 57, 0
4, 83760, Note_on_c, 2, 45, 100
4, 84000, Note_on_c, 2, 45, 0
4, 85200, Note_on_c, 2, 45, 100
4, 85440, Note_on_c, 2, 45, 0
4, 85440, Note_on_c, 2, 38, 100
4, 85680, Note_on_c, 2, 38, 0
4, 85680, Note_on_c, 2, 42, 100
4, 85920, Note_on_c, 2, 42, 0
4, 85920, Note_on_c, 2, 45, 100
4, 86160, Note_on_c, 2, 45, 0
4, 86160, Note_on_c, 2, 50, 100
4, 86400, Note_on_c, 2, 50, 0
4, 86400, Note_on_c, 2, 43, 100
4, 86640, Note_on_c, 2, 43, 0
4, 86640, Note_on_c, 2, 55, 100
4, 86880, Note_on_c, 2, 55, 0
4, 86880, Note_on_c, 2, 57, 100
4, 87120, Note_on_c, 2, 57, 0
4, 87120, Note_on_c, 2, 59, 100
4, 87360, Note_on_c, 2, 59, 0
4, 87600, Note_on_c, 2, 55, 100
4, 87840, Note_on_c, 2, 55, 0
4, 87840, Note_on_c, 2, 48, 100
4, 88080, Note_on_c, 2, 48, 0
4, 88080, Note_on_c, 2, 52, 100
4, 88320, Note_on_c, 2, 52, 0
4, 88320, Note_on_c, 2, 53, 100
4, 88560, Note_on_c, 2, 53, 0
4, 88560, Note_on_c, 2, 54, 100
4, 88800, Note_on_c, 2, 54, 0
4, 88800, Note_on_c, 2, 55, 100
4, 89040, Note_on_c, 2, 55, 0
4, 89040, Note_on_c, 2, 54, 100
4, 89160, Note_on_c, 2, 54, 0
4, 89160, Note_on_c, 2, 52, 100
4, 89280, Note_on_c, 2, 52, 0
4, 89280, Note_on_c, 2, 50, 100
4, 90000, Note_on_c, 2, 50, 0
4, 90000, Note_on_c, 2, 54, 100
4, 90240, Note_on_c, 2, 54, 0
4, 90240, Note_on_c, 2, 52, 100
4, 90480, Note_on_c, 2, 52, 0
4, 90480, Note_on_c, 2, 50, 100
4, 90720, Note_on_c, 2, 50, 0
4, 90720, Note_on_c, 2, 43, 100
4, 91200, Note_on_c, 2, 43, 0
4, 91440, Note_on_c, 2, 51, 100
4, 91680, Note_on_c, 2, 51, 0
4, 91680, Note_on_c, 2, 43, 100
4, 91680, Note_on_c, 2, 50, 100
4, 92160, Note_on_c, 2, 50, 0
4, 92160, Note_on_c, 2, 43, 0
4, 92160, End_track
5, 0, Start_track
5, 0, MIDI_port, 0
5, 0, Title_t, "The Goldberg Variations - BWV 988"
5, 0, End_track
6, 0, Start_track
6, 0, MIDI_port, 0
6, 0, Title_t, "Aria with 30 Variations for Harpsichord with 2 Manuals"
6, 0, End_track
7, 0, Start_track
7, 0, MIDI_port, 0
7, 0, Title_t, "--------------------------------------"
7, 0, End_track
8, 0, Start_track
8, 0, MIDI_port, 0
8, 0, Title_t, "Variatio 13 a 2 Clav."
8, 0, End_track
9, 0, Start_track
9, 0, MIDI_port, 0
9, 0, Title_t, "--------------------------------------"
9, 0, End_track
10, 0, Start_track
10, 0, MIDI_port, 0
10, 0, Title_t, "Sequenced with Cakewalk Pro Audio by"
10, 0, End_track
11, 0, Start_track
11, 0, MIDI_port, 0
11, 0, Title_t, "David J. Grossman - dave@unpronounceable.com"
11, 0, End_track
12, 0, Start_track
12, 0, MIDI_port, 0
12, 0, Title_t, "This and other Bach MIDI files can be found at:"
12, 0, End_track
13, 0, Start_track
13, 0, MIDI_port, 0
13, 0, Title_t, "Dave's J.S. Bach Page"
13, 0, End_track
14, 0, Start_track
14, 0, MIDI_port, 0
14, 0, Title_t, "http://www.unpronounceable.com/bach"
14, 0, End_track
15, 0, Start_track
15, 0, MIDI_port, 0
15, 0, Title_t, "--------------------------------------"
15, 0, End_track
16, 0, Start_track
16, 0, MIDI_port, 0
16, 0, Title_t, "Original Filename: 988-v13.mid"
16, 0, End_track
17, 0, Start_track
17, 0, MIDI_port, 0
17, 0, Title_t, "Last Modified: September 5, 1997"
17, 0, End_track
0, 0, End_of_file
