0, 0, Header, 1, 17, 480
1, 0, Start_track
1, 0, Title_t, "untitled"
1, 0, SMPTE_offset, 96, 0, 3, 0, 0
1, 0, Time_signature, 3, 2, 24, 8
1, 0, Key_signature, 1, "major"
1, 0, Tempo, 600000
1, 0, Marker_t, "A"
1, 23040, Marker_t, "A'"
1, 46080, Marker_t, "B"
1, 69120, Marker_t, "B'"
1, 137520, Tempo, 1200000
1, 137520, End_track
2, 0, Start_track
2, 0, MIDI_port, 0
2, 0, Title_t, "Solo Harpsichord with 2 Manuals"
2, 0, Program_c, 0, 6
2, 0, Control_c, 0, 7, 100
2, 0, Control_c, 0, 10, 74
2, 0, Note_on_c, 0, 55, 100
2, 80, Note_on_c, 0, 55, 0
2, 80, Note_on_c, 0, 57, 100
2, 160, Note_on_c, 0, 57, 0
2, 160, Note_on_c, 0, 55, 100
2, 240, Note_on_c, 0, 55, 0
2, 240, Note_on_c, 0, 50, 100
2, 320, Note_on_c, 0, 50, 0
2, 320, Note_on_c, 0, 52, 100
2, 400, Note_on_c, 0, 52, 0
2, 400, Note_on_c, 0, 54, 100
2, 480, Note_on_c, 0, 54, 0
2, 480, Note_on_c, 0, 55, 100
2, 560, Note_on_c, 0, 55, 0
2, 560, Note_on_c, 0, 54, 100
2, 640, Note_on_c, 0, 54, 0
2, 640, Note_on_c, 0, 55, 100
2, 720, Note_on_c, 0, 55, 0
2, 720, Note_on_c, 0, 57, 100
2, 800, Note_on_c, 0, 57, 0
2, 800, Note_on_c, 0, 55, 100
2, 880, Note_on_c, 0, 55, 0
2, 880, Note_on_c, 0, 57, 100
2, 960, Note_on_c, 0, 57, 0
2, 960, Note_on_c, 0, 59, 100
2, 1040, Note_on_c, 0, 59, 0
2, 1040, Note_on_c, 0, 57, 100
2, 1120, Note_on_c, 0, 57, 0
2, 1120, Note_on_c, 0, 59, 100
2, 1200, Note_on_c, 0, 59, 0
2, 1201, Note_on_c, 0, 60, 100
2, 1281, Note_on_c, 0, 60, 0
2, 1281, Note_on_c, 0, 59, 100
2, 1361, Note_on_c, 0, 59, 0
2, 1362, Note_on_c, 0, 61, 100
2, 1442, Note_on_c, 0, 61, 0
2, 1442, Note_on_c, 0, 62, 100
2, 1522, Note_on_c, 0, 62, 0
2, 1522, Note_on_c, 0, 64, 100
2, 1602, Note_on_c, 0, 64, 0
2, 1603, Note_on_c, 0, 62, 100
2, 1683, Note_on_c, 0, 62, 0
2, 1683, Note_on_c, 0, 57, 100
2, 1763, Note_on_c, 0, 57, 0
2, 1764, Note_on_c, 0, 59, 100
2, 1844, Note_on_c, 0, 59, 0
2, 1844, Note_on_c, 0, 61, 100
2, 1920, Note_on_c, 0, 62, 100
2, 1924, Note_on_c, 0, 61, 0
2, 2000, Note_on_c, 0, 62, 0
2, 2000, Note_on_c, 0, 61, 100
2, 2080, Note_on_c, 0, 61, 0
2, 2080, Note_on_c, 0, 62, 100
2, 2160, Note_on_c, 0, 62, 0
2, 2161, Note_on_c, 0, 64, 100
2, 2241, Note_on_c, 0, 64, 0
2, 2241, Note_on_c, 0, 62, 100
2, 2321, Note_on_c, 0, 62, 0
2, 2322, Note_on_c, 0, 64, 100
2, 2402, Note_on_c, 0, 64, 0
2, 2402, Note_on_c, 0, 66, 100
2, 2482, Note_on_c, 0, 66, 0
2, 2482, Note_on_c, 0, 64, 100
2, 2562, Note_on_c, 0, 64, 0
2, 2563, Note_on_c, 0, 66, 100
2, 2643, Note_on_c, 0, 66, 0
2, 2643, Note_on_c, 0, 67, 100
2, 2723, Note_on_c, 0, 67, 0
2, 2724, Note_on_c, 0, 64, 100
2, 2804, Note_on_c, 0, 64, 0
2, 2804, Note_on_c, 0, 66, 100
2, 2880, Note_on_c, 0, 67, 100
2, 2884, Note_on_c, 0, 66, 0
2, 2960, Note_on_c, 0, 67, 0
2, 2960, Note_on_c, 0, 69, 100
2, 3040, Note_on_c, 0, 69, 0
2, 3040, Note_on_c, 0, 67, 100
2, 3120, Note_on_c, 0, 67, 0
2, 3121, Note_on_c, 0, 59, 100
2, 3201, Note_on_c, 0, 59, 0
2, 3201, Note_on_c, 0, 64, 100
2, 3281, Note_on_c, 0, 64, 0
2, 3282, Note_on_c, 0, 66, 100
2, 3362, Note_on_c, 0, 66, 0
2, 3362, Note_on_c, 0, 67, 100
2, 3442, Note_on_c, 0, 67, 0
2, 3442, Note_on_c, 0, 66, 100
2, 3522, Note_on_c, 0, 66, 0
2, 3523, Note_on_c, 0, 67, 100
2, 3603, Note_on_c, 0, 67, 0
2, 3603, Note_on_c, 0, 69, 100
2, 3683, Note_on_c, 0, 69, 0
2, 3684, Note_on_c, 0, 67, 100
2, 3764, Note_on_c, 0, 67, 0
2, 3764, Note_on_c, 0, 69, 100
2, 3840, Note_on_c, 0, 71, 100
2, 3844, Note_on_c, 0, 69, 0
2, 3920, Note_on_c, 0, 71, 0
2, 3920, Note_on_c, 0, 69, 100
2, 4000, Note_on_c, 0, 69, 0
2, 4000, Note_on_c, 0, 71, 100
2, 4080, Note_on_c, 0, 71, 0
2, 4081, Note_on_c, 0, 73, 100
2, 4161, Note_on_c, 0, 73, 0
2, 4161, Note_on_c, 0, 71, 100
2, 4241, Note_on_c, 0, 71, 0
2, 4242, Note_on_c, 0, 73, 100
2, 4322, Note_on_c, 0, 73, 0
2, 4322, Note_on_c, 0, 74, 100
2, 4402, Note_on_c, 0, 74, 0
2, 4402, Note_on_c, 0, 76, 100
2, 4482, Note_on_c, 0, 76, 0
2, 4483, Note_on_c, 0, 74, 100
2, 4563, Note_on_c, 0, 74, 0
2, 4563, Note_on_c, 0, 69, 100
2, 4643, Note_on_c, 0, 69, 0
2, 4644, Note_on_c, 0, 71, 100
2, 4724, Note_on_c, 0, 71, 0
2, 4724, Note_on_c, 0, 73, 100
2, 4800, Note_on_c, 0, 74, 100
2, 4804, Note_on_c, 0, 73, 0
2, 4880, Note_on_c, 0, 74, 0
2, 4880, Note_on_c, 0, 73, 100
2, 4960, Note_on_c, 0, 73, 0
2, 4960, Note_on_c, 0, 74, 100
2, 5040, Note_on_c, 0, 74, 0
2, 5041, Note_on_c, 0, 76, 100
2, 5121, Note_on_c, 0, 76, 0
2, 5121, Note_on_c, 0, 74, 100
2, 5201, Note_on_c, 0, 74, 0
2, 5202, Note_on_c, 0, 76, 100
2, 5282, Note_on_c, 0, 76, 0
2, 5282, Note_on_c, 0, 78, 100
2, 5362, Note_on_c, 0, 78, 0
2, 5362, Note_on_c, 0, 76, 100
2, 5442, Note_on_c, 0, 76, 0
2, 5443, Note_on_c, 0, 78, 100
2, 5523, Note_on_c, 0, 78, 0
2, 5523, Note_on_c, 0, 79, 100
2, 5603, Note_on_c, 0, 79, 0
2, 5604, Note_on_c, 0, 76, 100
2, 5684, Note_on_c, 0, 76, 0
2, 5684, Note_on_c, 0, 78, 100
2, 5760, Note_on_c, 0, 79, 100
2, 5764, Note_on_c, 0, 78, 0
2, 5840, Note_on_c, 0, 79, 0
2, 5840, Note_on_c, 0, 78, 100
2, 5920, Note_on_c, 0, 78, 0
2, 5920, Note_on_c, 0, 79, 100
2, 6000, Note_on_c, 0, 79, 0
2, 6001, Note_on_c, 0, 74, 100
2, 6081, Note_on_c, 0, 74, 0
2, 6081, Note_on_c, 0, 72, 100
2, 6161, Note_on_c, 0, 72, 0
2, 6162, Note_on_c, 0, 74, 100
2, 6242, Note_on_c, 0, 74, 0
2, 6242, Note_on_c, 0, 71, 100
2, 6322, Note_on_c, 0, 71, 0
2, 6322, Note_on_c, 0, 67, 100
2, 6402, Note_on_c, 0, 67, 0
2, 6403, Note_on_c, 0, 66, 100
2, 6483, Note_on_c, 0, 66, 0
2, 6483, Note_on_c, 0, 67, 100
2, 6563, Note_on_c, 0, 67, 0
2, 6564, Note_on_c, 0, 71, 100
2, 6644, Note_on_c, 0, 71, 0
2, 6644, Note_on_c, 0, 74, 100
2, 6720, Note_on_c, 0, 77, 100
2, 6724, Note_on_c, 0, 74, 0
2, 6800, Note_on_c, 0, 77, 0
2, 6800, Note_on_c, 0, 76, 100
2, 6880, Note_on_c, 0, 76, 0
2, 6880, Note_on_c, 0, 77, 100
2, 6960, Note_on_c, 0, 77, 0
2, 6961, Note_on_c, 0, 74, 100
2, 7041, Note_on_c, 0, 74, 0
2, 7041, Note_on_c, 0, 71, 100
2, 7121, Note_on_c, 0, 71, 0
2, 7122, Note_on_c, 0, 74, 100
2, 7202, Note_on_c, 0, 74, 0
2, 7202, Note_on_c, 0, 76, 100
2, 7282, Note_on_c, 0, 76, 0
2, 7282, Note_on_c, 0, 74, 100
2, 7362, Note_on_c, 0, 74, 0
2, 7363, Note_on_c, 0, 76, 100
2, 7443, Note_on_c, 0, 76, 0
2, 7443, Note_on_c, 0, 72, 100
2, 7523, Note_on_c, 0, 72, 0
2, 7524, Note_on_c, 0, 71, 100
2, 7604, Note_on_c, 0, 71, 0
2, 7604, Note_on_c, 0, 72, 100
2, 7680, Note_on_c, 0, 67, 100
2, 7684, Note_on_c, 0, 72, 0
2, 7760, Note_on_c, 0, 67, 0
2, 7760, Note_on_c, 0, 64, 100
2, 7840, Note_on_c, 0, 64, 0
2, 7840, Note_on_c, 0, 62, 100
2, 7920, Note_on_c, 0, 62, 0
2, 7921, Note_on_c, 0, 64, 100
2, 8001, Note_on_c, 0, 64, 0
2, 8001, Note_on_c, 0, 67, 100
2, 8081, Note_on_c, 0, 67, 0
2, 8082, Note_on_c, 0, 72, 100
2, 8162, Note_on_c, 0, 72, 0
2, 8162, Note_on_c, 0, 76, 100
2, 8242, Note_on_c, 0, 76, 0
2, 8242, Note_on_c, 0, 74, 100
2, 8322, Note_on_c, 0, 74, 0
2, 8323, Note_on_c, 0, 76, 100
2, 8403, Note_on_c, 0, 76, 0
2, 8403, Note_on_c, 0, 72, 100
2, 8483, Note_on_c, 0, 72, 0
2, 8484, Note_on_c, 0, 69, 100
2, 8564, Note_on_c, 0, 69, 0
2, 8564, Note_on_c, 0, 72, 100
2, 8640, Note_on_c, 0, 74, 100
2, 8644, Note_on_c, 0, 72, 0
2, 8720, Note_on_c, 0, 74, 0
2, 8720, Note_on_c, 0, 72, 100
2, 8800, Note_on_c, 0, 72, 0
2, 8800, Note_on_c, 0, 74, 100
2, 8880, Note_on_c, 0, 74, 0
2, 8881, Note_on_c, 0, 69, 100
2, 8961, Note_on_c, 0, 69, 0
2, 8961, Note_on_c, 0, 67, 100
2, 9041, Note_on_c, 0, 67, 0
2, 9042, Note_on_c, 0, 69, 100
2, 9122, Note_on_c, 0, 69, 0
2, 9122, Note_on_c, 0, 66, 100
2, 9202, Note_on_c, 0, 66, 0
2, 9202, Note_on_c, 0, 62, 100
2, 9282, Note_on_c, 0, 62, 0
2, 9283, Note_on_c, 0, 61, 100
2, 9363, Note_on_c, 0, 61, 0
2, 9363, Note_on_c, 0, 62, 100
2, 9443, Note_on_c, 0, 62, 0
2, 9444, Note_on_c, 0, 66, 100
2, 9524, Note_on_c, 0, 66, 0
2, 9524, Note_on_c, 0, 69, 100
2, 9600, Note_on_c, 0, 72, 100
2, 9604, Note_on_c, 0, 69, 0
2, 9680, Note_on_c, 0, 72, 0
2, 9680, Note_on_c, 0, 71, 100
2, 9760, Note_on_c, 0, 71, 0
2, 9760, Note_on_c, 0, 72, 100
2, 9840, Note_on_c, 0, 72, 0
2, 9841, Note_on_c, 0, 69, 100
2, 9921, Note_on_c, 0, 69, 0
2, 9921, Note_on_c, 0, 66, 100
2, 10001, Note_on_c, 0, 66, 0
2, 10002, Note_on_c, 0, 69, 100
2, 10082, Note_on_c, 0, 69, 0
2, 10082, Note_on_c, 0, 71, 100
2, 10162, Note_on_c, 0, 71, 0
2, 10162, Note_on_c, 0, 69, 100
2, 10242, Note_on_c, 0, 69, 0
2, 10243, Note_on_c, 0, 71, 100
2, 10323, Note_on_c, 0, 71, 0
2, 10323, Note_on_c, 0, 67, 100
2, 10403, Note_on_c, 0, 67, 0
2, 10404, Note_on_c, 0, 66, 100
2, 10484, Note_on_c, 0, 66, 0
2, 10484, Note_on_c, 0, 67, 100
2, 10560, Note_on_c, 0, 62, 100
2, 10564, Note_on_c, 0, 67, 0
2, 10640, Note_on_c, 0, 62, 0
2, 10640, Note_on_c, 0, 59, 100
2, 10720, Note_on_c, 0, 59, 0
2, 10720, Note_on_c, 0, 57, 100
2, 10800, Note_on_c, 0, 57, 0
2, 10801, Note_on_c, 0, 59, 100
2, 10881, Note_on_c, 0, 59, 0
2, 10881, Note_on_c, 0, 62, 100
2, 10961, Note_on_c, 0, 62, 0
2, 10962, Note_on_c, 0, 67, 100
2, 11042, Note_on_c, 0, 67, 0
2, 11042, Note_on_c, 0, 71, 100
2, 11122, Note_on_c, 0, 71, 0
2, 11122, Note_on_c, 0, 67, 100
2, 11202, Note_on_c, 0, 67, 0
2, 11203, Note_on_c, 0, 66, 100
2, 11283, Note_on_c, 0, 66, 0
2, 11283, Note_on_c, 0, 67, 100
2, 11363, Note_on_c, 0, 67, 0
2, 11364, Note_on_c, 0, 71, 100
2, 11444, Note_on_c, 0, 71, 0
2, 11444, Note_on_c, 0, 74, 100
2, 11520, Note_on_c, 0, 79, 100
2, 11524, Note_on_c, 0, 74, 0
2, 11880, Note_on_c, 0, 79, 0
2, 11880, Note_on_c, 0, 78, 100
2, 11940, Note_on_c, 0, 78, 0
2, 11940, Note_on_c, 0, 76, 100
2, 12000, Note_on_c, 0, 76, 0
2, 12000, Note_on_c, 0, 74, 100
2, 12480, Note_on_c, 0, 74, 0
2, 12720, Note_on_c, 0, 83, 100
2, 12960, Note_on_c, 0, 83, 0
2, 12960, Note_on_c, 0, 81, 100
2, 13440, Note_on_c, 0, 81, 0
2, 13440, Note_on_c, 0, 81, 100
2, 13920, Note_on_c, 0, 81, 0
2, 14160, Note_on_c, 0, 81, 100
2, 14400, Note_on_c, 0, 81, 0
2, 14400, Note_on_c, 0, 81, 100
2, 14880, Note_on_c, 0, 81, 0
2, 14880, Note_on_c, 0, 79, 100
2, 15360, Note_on_c, 0, 79, 0
2, 15600, Note_on_c, 0, 79, 100
2, 15840, Note_on_c, 0, 79, 0
2, 15840, Note_on_c, 0, 79, 100
2, 16200, Note_on_c, 0, 79, 0
2, 16200, Note_on_c, 0, 76, 100
2, 16320, Note_on_c, 0, 76, 0
2, 16320, Note_on_c, 0, 64, 100
2, 16800, Note_on_c, 0, 64, 0
2, 17040, Note_on_c, 0, 79, 100
2, 17280, Note_on_c, 0, 79, 0
2, 17280, Note_on_c, 0, 79, 100
2, 17640, Note_on_c, 0, 79, 0
2, 17640, Note_on_c, 0, 76, 100
2, 17760, Note_on_c, 0, 76, 0
2, 17760, Note_on_c, 0, 76, 100
2, 17820, Note_on_c, 0, 76, 0
2, 17820, Note_on_c, 0, 78, 100
2, 18240, Note_on_c, 0, 78, 0
2, 18480, Note_on_c, 0, 81, 100
2, 18720, Note_on_c, 0, 81, 0
2, 18720, Note_on_c, 0, 83, 100
2, 19080, Note_on_c, 0, 83, 0
2, 19080, Note_on_c, 0, 78, 100
2, 19200, Note_on_c, 0, 78, 0
2, 19200, Note_on_c, 0, 78, 100
2, 19260, Note_on_c, 0, 78, 0
2, 19260, Note_on_c, 0, 79, 100
2, 19680, Note_on_c, 0, 79, 0
2, 19920, Note_on_c, 0, 79, 100
2, 20160, Note_on_c, 0, 79, 0
2, 20160, Note_on_c, 0, 79, 100
2, 20640, Note_on_c, 0, 79, 0
2, 20640, Note_on_c, 0, 73, 100
2, 21120, Note_on_c, 0, 73, 0
2, 21360, Note_on_c, 0, 69, 100
2, 21600, Note_on_c, 0, 69, 0
2, 21600, Note_on_c, 0, 69, 100
2, 21960, Note_on_c, 0, 69, 0
2, 21960, Note_on_c, 0, 64, 100
2, 22080, Note_on_c, 0, 64, 0
2, 22080, Note_on_c, 0, 64, 100
2, 22140, Note_on_c, 0, 64, 0
2, 22140, Note_on_c, 0, 66, 100
2, 22560, Note_on_c, 0, 66, 0
2, 23040, Note_on_c, 0, 55, 100
2, 23120, Note_on_c, 0, 55, 0
2, 23120, Note_on_c, 0, 57, 100
2, 23200, Note_on_c, 0, 57, 0
2, 23200, Note_on_c, 0, 55, 100
2, 23280, Note_on_c, 0, 55, 0
2, 23280, Note_on_c, 0, 50, 100
2, 23360, Note_on_c, 0, 50, 0
2, 23360, Note_on_c, 0, 52, 100
2, 23440, Note_on_c, 0, 52, 0
2, 23440, Note_on_c, 0, 54, 100
2, 23520, Note_on_c, 0, 54, 0
2, 23520, Note_on_c, 0, 55, 100
2, 23600, Note_on_c, 0, 55, 0
2, 23600, Note_on_c, 0, 54, 100
2, 23680, Note_on_c, 0, 54, 0
2, 23680, Note_on_c, 0, 55, 100
2, 23760, Note_on_c, 0, 55, 0
2, 23760, Note_on_c, 0, 57, 100
2, 23840, Note_on_c, 0, 57, 0
2, 23840, Note_on_c, 0, 55, 100
2, 23920, Note_on_c, 0, 55, 0
2, 23920, Note_on_c, 0, 57, 100
2, 24000, Note_on_c, 0, 57, 0
2, 24000, Note_on_c, 0, 59, 100
2, 24080, Note_on_c, 0, 59, 0
2, 24080, Note_on_c, 0, 57, 100
2, 24160, Note_on_c, 0, 57, 0
2, 24160, Note_on_c, 0, 59, 100
2, 24240, Note_on_c, 0, 59, 0
2, 24241, Note_on_c, 0, 60, 100
2, 24321, Note_on_c, 0, 60, 0
2, 24321, Note_on_c, 0, 59, 100
2, 24401, Note_on_c, 0, 59, 0
2, 24402, Note_on_c, 0, 61, 100
2, 24482, Note_on_c, 0, 61, 0
2, 24482, Note_on_c, 0, 62, 100
2, 24562, Note_on_c, 0, 62, 0
2, 24562, Note_on_c, 0, 64, 100
2, 24642, Note_on_c, 0, 64, 0
2, 24643, Note_on_c, 0, 62, 100
2, 24723, Note_on_c, 0, 62, 0
2, 24723, Note_on_c, 0, 57, 100
2, 24803, Note_on_c, 0, 57, 0
2, 24804, Note_on_c, 0, 59, 100
2, 24884, Note_on_c, 0, 59, 0
2, 24884, Note_on_c, 0, 61, 100
2, 24960, Note_on_c, 0, 62, 100
2, 24964, Note_on_c, 0, 61, 0
2, 25040, Note_on_c, 0, 62, 0
2, 25040, Note_on_c, 0, 61, 100
2, 25120, Note_on_c, 0, 61, 0
2, 25120, Note_on_c, 0, 62, 100
2, 25200, Note_on_c, 0, 62, 0
2, 25201, Note_on_c, 0, 64, 100
2, 25281, Note_on_c, 0, 64, 0
2, 25281, Note_on_c, 0, 62, 100
2, 25361, Note_on_c, 0, 62, 0
2, 25362, Note_on_c, 0, 64, 100
2, 25442, Note_on_c, 0, 64, 0
2, 25442, Note_on_c, 0, 66, 100
2, 25522, Note_on_c, 0, 66, 0
2, 25522, Note_on_c, 0, 64, 100
2, 25602, Note_on_c, 0, 64, 0
2, 25603, Note_on_c, 0, 66, 100
2, 25683, Note_on_c, 0, 66, 0
2, 25683, Note_on_c, 0, 67, 100
2, 25763, Note_on_c, 0, 67, 0
2, 25764, Note_on_c, 0, 64, 100
2, 25844, Note_on_c, 0, 64, 0
2, 25844, Note_on_c, 0, 66, 100
2, 25920, Note_on_c, 0, 67, 100
2, 25924, Note_on_c, 0, 66, 0
2, 26000, Note_on_c, 0, 67, 0
2, 26000, Note_on_c, 0, 69, 100
2, 26080, Note_on_c, 0, 69, 0
2, 26080, Note_on_c, 0, 67, 100
2, 26160, Note_on_c, 0, 67, 0
2, 26161, Note_on_c, 0, 59, 100
2, 26241, Note_on_c, 0, 59, 0
2, 26241, Note_on_c, 0, 64, 100
2, 26321, Note_on_c, 0, 64, 0
2, 26322, Note_on_c, 0, 66, 100
2, 26402, Note_on_c, 0, 66, 0
2, 26402, Note_on_c, 0, 67, 100
2, 26482, Note_on_c, 0, 67, 0
2, 26482, Note_on_c, 0, 66, 100
2, 26562, Note_on_c, 0, 66, 0
2, 26563, Note_on_c, 0, 67, 100
2, 26643, Note_on_c, 0, 67, 0
2, 26643, Note_on_c, 0, 69, 100
2, 26723, Note_on_c, 0, 69, 0
2, 26724, Note_on_c, 0, 67, 100
2, 26804, Note_on_c, 0, 67, 0
2, 26804, Note_on_c, 0, 69, 100
2, 26880, Note_on_c, 0, 71, 100
2, 26884, Note_on_c, 0, 69, 0
2, 26960, Note_on_c, 0, 71, 0
2, 26960, Note_on_c, 0, 69, 100
2, 27040, Note_on_c, 0, 69, 0
2, 27040, Note_on_c, 0, 71, 100
2, 27120, Note_on_c, 0, 71, 0
2, 27121, Note_on_c, 0, 73, 100
2, 27201, Note_on_c, 0, 73, 0
2, 27201, Note_on_c, 0, 71, 100
2, 27281, Note_on_c, 0, 71, 0
2, 27282, Note_on_c, 0, 73, 100
2, 27362, Note_on_c, 0, 73, 0
2, 27362, Note_on_c, 0, 74, 100
2, 27442, Note_on_c, 0, 74, 0
2, 27442, Note_on_c, 0, 76, 100
2, 27522, Note_on_c, 0, 76, 0
2, 27523, Note_on_c, 0, 74, 100
2, 27603, Note_on_c, 0, 74, 0
2, 27603, Note_on_c, 0, 69, 100
2, 27683, Note_on_c, 0, 69, 0
2, 27684, Note_on_c, 0, 71, 100
2, 27764, Note_on_c, 0, 71, 0
2, 27764, Note_on_c, 0, 73, 100
2, 27840, Note_on_c, 0, 74, 100
2, 27844, Note_on_c, 0, 73, 0
2, 27920, Note_on_c, 0, 74, 0
2, 27920, Note_on_c, 0, 73, 100
2, 28000, Note_on_c, 0, 73, 0
2, 28000, Note_on_c, 0, 74, 100
2, 28080, Note_on_c, 0, 74, 0
2, 28081, Note_on_c, 0, 76, 100
2, 28161, Note_on_c, 0, 76, 0
2, 28161, Note_on_c, 0, 74, 100
2, 28241, Note_on_c, 0, 74, 0
2, 28242, Note_on_c, 0, 76, 100
2, 28322, Note_on_c, 0, 76, 0
2, 28322, Note_on_c, 0, 78, 100
2, 28402, Note_on_c, 0, 78, 0
2, 28402, Note_on_c, 0, 76, 100
2, 28482, Note_on_c, 0, 76, 0
2, 28483, Note_on_c, 0, 78, 100
2, 28563, Note_on_c, 0, 78, 0
2, 28563, Note_on_c, 0, 79, 100
2, 28643, Note_on_c, 0, 79, 0
2, 28644, Note_on_c, 0, 76, 100
2, 28724, Note_on_c, 0, 76, 0
2, 28724, Note_on_c, 0, 78, 100
2, 28800, Note_on_c, 0, 79, 100
2, 28804, Note_on_c, 0, 78, 0
2, 28880, Note_on_c, 0, 79, 0
2, 28880, Note_on_c, 0, 78, 100
2, 28960, Note_on_c, 0, 78, 0
2, 28960, Note_on_c, 0, 79, 100
2, 29040, Note_on_c, 0, 79, 0
2, 29041, Note_on_c, 0, 74, 100
2, 29121, Note_on_c, 0, 74, 0
2, 29121, Note_on_c, 0, 72, 100
2, 29201, Note_on_c, 0, 72, 0
2, 29202, Note_on_c, 0, 74, 100
2, 29282, Note_on_c, 0, 74, 0
2, 29282, Note_on_c, 0, 71, 100
2, 29362, Note_on_c, 0, 71, 0
2, 29362, Note_on_c, 0, 67, 100
2, 29442, Note_on_c, 0, 67, 0
2, 29443, Note_on_c, 0, 66, 100
2, 29523, Note_on_c, 0, 66, 0
2, 29523, Note_on_c, 0, 67, 100
2, 29603, Note_on_c, 0, 67, 0
2, 29604, Note_on_c, 0, 71, 100
2, 29684, Note_on_c, 0, 71, 0
2, 29684, Note_on_c, 0, 74, 100
2, 29760, Note_on_c, 0, 77, 100
2, 29764, Note_on_c, 0, 74, 0
2, 29840, Note_on_c, 0, 77, 0
2, 29840, Note_on_c, 0, 76, 100
2, 29920, Note_on_c, 0, 76, 0
2, 29920, Note_on_c, 0, 77, 100
2, 30000, Note_on_c, 0, 77, 0
2, 30001, Note_on_c, 0, 74, 100
2, 30081, Note_on_c, 0, 74, 0
2, 30081, Note_on_c, 0, 71, 100
2, 30161, Note_on_c, 0, 71, 0
2, 30162, Note_on_c, 0, 74, 100
2, 30242, Note_on_c, 0, 74, 0
2, 30242, Note_on_c, 0, 76, 100
2, 30322, Note_on_c, 0, 76, 0
2, 30322, Note_on_c, 0, 74, 100
2, 30402, Note_on_c, 0, 74, 0
2, 30403, Note_on_c, 0, 76, 100
2, 30483, Note_on_c, 0, 76, 0
2, 30483, Note_on_c, 0, 72, 100
2, 30563, Note_on_c, 0, 72, 0
2, 30564, Note_on_c, 0, 71, 100
2, 30644, Note_on_c, 0, 71, 0
2, 30644, Note_on_c, 0, 72, 100
2, 30720, Note_on_c, 0, 67, 100
2, 30724, Note_on_c, 0, 72, 0
2, 30800, Note_on_c, 0, 67, 0
2, 30800, Note_on_c, 0, 64, 100
2, 30880, Note_on_c, 0, 64, 0
2, 30880, Note_on_c, 0, 62, 100
2, 30960, Note_on_c, 0, 62, 0
2, 30961, Note_on_c, 0, 64, 100
2, 31041, Note_on_c, 0, 64, 0
2, 31041, Note_on_c, 0, 67, 100
2, 31121, Note_on_c, 0, 67, 0
2, 31122, Note_on_c, 0, 72, 100
2, 31202, Note_on_c, 0, 72, 0
2, 31202, Note_on_c, 0, 76, 100
2, 31282, Note_on_c, 0, 76, 0
2, 31282, Note_on_c, 0, 74, 100
2, 31362, Note_on_c, 0, 74, 0
2, 31363, Note_on_c, 0, 76, 100
2, 31443, Note_on_c, 0, 76, 0
2, 31443, Note_on_c, 0, 72, 100
2, 31523, Note_on_c, 0, 72, 0
2, 31524, Note_on_c, 0, 69, 100
2, 31604, Note_on_c, 0, 69, 0
2, 31604, Note_on_c, 0, 72, 100
2, 31680, Note_on_c, 0, 74, 100
2, 31684, Note_on_c, 0, 72, 0
2, 31760, Note_on_c, 0, 74, 0
2, 31760, Note_on_c, 0, 72, 100
2, 31840, Note_on_c, 0, 72, 0
2, 31840, Note_on_c, 0, 74, 100
2, 31920, Note_on_c, 0, 74, 0
2, 31921, Note_on_c, 0, 69, 100
2, 32001, Note_on_c, 0, 69, 0
2, 32001, Note_on_c, 0, 67, 100
2, 32081, Note_on_c, 0, 67, 0
2, 32082, Note_on_c, 0, 69, 100
2, 32162, Note_on_c, 0, 69, 0
2, 32162, Note_on_c, 0, 66, 100
2, 32242, Note_on_c, 0, 66, 0
2, 32242, Note_on_c, 0, 62, 100
2, 32322, Note_on_c, 0, 62, 0
2, 32323, Note_on_c, 0, 61, 100
2, 32403, Note_on_c, 0, 61, 0
2, 32403, Note_on_c, 0, 62, 100
2, 32483, Note_on_c, 0, 62, 0
2, 32484, Note_on_c, 0, 66, 100
2, 32564, Note_on_c, 0, 66, 0
2, 32564, Note_on_c, 0, 69, 100
2, 32640, Note_on_c, 0, 72, 100
2, 32644, Note_on_c, 0, 69, 0
2, 32720, Note_on_c, 0, 72, 0
2, 32720, Note_on_c, 0, 71, 100
2, 32800, Note_on_c, 0, 71, 0
2, 32800, Note_on_c, 0, 72, 100
2, 32880, Note_on_c, 0, 72, 0
2, 32881, Note_on_c, 0, 69, 100
2, 32961, Note_on_c, 0, 69, 0
2, 32961, Note_on_c, 0, 66, 100
2, 33041, Note_on_c, 0, 66, 0
2, 33042, Note_on_c, 0, 69, 100
2, 33122, Note_on_c, 0, 69, 0
2, 33122, Note_on_c, 0, 71, 100
2, 33202, Note_on_c, 0, 71, 0
2, 33202, Note_on_c, 0, 69, 100
2, 33282, Note_on_c, 0, 69, 0
2, 33283, Note_on_c, 0, 71, 100
2, 33363, Note_on_c, 0, 71, 0
2, 33363, Note_on_c, 0, 67, 100
2, 33443, Note_on_c, 0, 67, 0
2, 33444, Note_on_c, 0, 66, 100
2, 33524, Note_on_c, 0, 66, 0
2, 33524, Note_on_c, 0, 67, 100
2, 33600, Note_on_c, 0, 62, 100
2, 33604, Note_on_c, 0, 67, 0
2, 33680, Note_on_c, 0, 62, 0
2, 33680, Note_on_c, 0, 59, 100
2, 33760, Note_on_c, 0, 59, 0
2, 33760, Note_on_c, 0, 57, 100
2, 33840, Note_on_c, 0, 57, 0
2, 33841, Note_on_c, 0, 59, 100
2, 33921, Note_on_c, 0, 59, 0
2, 33921, Note_on_c, 0, 62, 100
2, 34001, Note_on_c, 0, 62, 0
2, 34002, Note_on_c, 0, 67, 100
2, 34082, Note_on_c, 0, 67, 0
2, 34082, Note_on_c, 0, 71, 100
2, 34162, Note_on_c, 0, 71, 0
2, 34162, Note_on_c, 0, 67, 100
2, 34242, Note_on_c, 0, 67, 0
2, 34243, Note_on_c, 0, 66, 100
2, 34323, Note_on_c, 0, 66, 0
2, 34323, Note_on_c, 0, 67, 100
2, 34403, Note_on_c, 0, 67, 0
2, 34404, Note_on_c, 0, 71, 100
2, 34484, Note_on_c, 0, 71, 0
2, 34484, Note_on_c, 0, 74, 100
2, 34560, Note_on_c, 0, 79, 100
2, 34564, Note_on_c, 0, 74, 0
2, 34920, Note_on_c, 0, 79, 0
2, 34920, Note_on_c, 0, 78, 100
2, 34980, Note_on_c, 0, 78, 0
2, 34980, Note_on_c, 0, 76, 100
2, 35040, Note_on_c, 0, 76, 0
2, 35040, Note_on_c, 0, 74, 100
2, 35520, Note_on_c, 0, 74, 0
2, 35760, Note_on_c, 0, 83, 100
2, 36000, Note_on_c, 0, 83, 0
2, 36000, Note_on_c, 0, 81, 100
2, 36480, Note_on_c, 0, 81, 0
2, 36480, Note_on_c, 0, 81, 100
2, 36960, Note_on_c, 0, 81, 0
2, 37200, Note_on_c, 0, 81, 100
2, 37440, Note_on_c, 0, 81, 0
2, 37440, Note_on_c, 0, 81, 100
2, 37920, Note_on_c, 0, 81, 0
2, 37920, Note_on_c, 0, 79, 100
2, 38400, Note_on_c, 0, 79, 0
2, 38640, Note_on_c, 0, 79, 100
2, 38880, Note_on_c, 0, 79, 0
2, 38880, Note_on_c, 0, 79, 100
2, 39240, Note_on_c, 0, 79, 0
2, 39240, Note_on_c, 0, 76, 100
2, 39360, Note_on_c, 0, 76, 0
2, 39360, Note_on_c, 0, 64, 100
2, 39840, Note_on_c, 0, 64, 0
2, 40080, Note_on_c, 0, 79, 100
2, 40320, Note_on_c, 0, 79, 0
2, 40320, Note_on_c, 0, 79, 100
2, 40680, Note_on_c, 0, 79, 0
2, 40680, Note_on_c, 0, 76, 100
2, 40800, Note_on_c, 0, 76, 0
2, 40800, Note_on_c, 0, 76, 100
2, 40860, Note_on_c, 0, 76, 0
2, 40860, Note_on_c, 0, 78, 100
2, 41280, Note_on_c, 0, 78, 0
2, 41520, Note_on_c, 0, 81, 100
2, 41760, Note_on_c, 0, 81, 0
2, 41760, Note_on_c, 0, 83, 100
2, 42120, Note_on_c, 0, 83, 0
2, 42120, Note_on_c, 0, 78, 100
2, 42240, Note_on_c, 0, 78, 0
2, 42240, Note_on_c, 0, 78, 100
2, 42300, Note_on_c, 0, 78, 0
2, 42300, Note_on_c, 0, 79, 100
2, 42720, Note_on_c, 0, 79, 0
2, 42960, Note_on_c, 0, 79, 100
2, 43200, Note_on_c, 0, 79, 0
2, 43200, Note_on_c, 0, 79, 100
2, 43680, Note_on_c, 0, 79, 0
2, 43680, Note_on_c, 0, 73, 100
2, 44160, Note_on_c, 0, 73, 0
2, 44400, Note_on_c, 0, 69, 100
2, 44640, Note_on_c, 0, 69, 0
2, 44640, Note_on_c, 0, 69, 100
2, 45000, Note_on_c, 0, 69, 0
2, 45000, Note_on_c, 0, 64, 100
2, 45120, Note_on_c, 0, 64, 0
2, 45120, Note_on_c, 0, 64, 100
2, 45180, Note_on_c, 0, 64, 0
2, 45180, Note_on_c, 0, 66, 100
2, 45600, Note_on_c, 0, 66, 0
2, 46080, Note_on_c, 0, 81, 100
2, 46160, Note_on_c, 0, 81, 0
2, 46160, Note_on_c, 0, 79, 100
2, 46240, Note_on_c, 0, 79, 0
2, 46240, Note_on_c, 0, 81, 100
2, 46320, Note_on_c, 0, 81, 0
2, 46320, Note_on_c, 0, 86, 100
2, 46400, Note_on_c, 0, 86, 0
2, 46400, Note_on_c, 0, 84, 100
2, 46480, Note_on_c, 0, 84, 0
2, 46480, Note_on_c, 0, 83, 100
2, 46560, Note_on_c, 0, 83, 0
2, 46560, Note_on_c, 0, 81, 100
2, 46640, Note_on_c, 0, 81, 0
2, 46640, Note_on_c, 0, 83, 100
2, 46720, Note_on_c, 0, 83, 0
2, 46720, Note_on_c, 0, 81, 100
2, 46800, Note_on_c, 0, 81, 0
2, 46800, Note_on_c, 0, 79, 100
2, 46880, Note_on_c, 0, 79, 0
2, 46880, Note_on_c, 0, 81, 100
2, 46960, Note_on_c, 0, 81, 0
2, 46960, Note_on_c, 0, 79, 100
2, 47040, Note_on_c, 0, 79, 0
2, 47040, Note_on_c, 0, 78, 100
2, 47120, Note_on_c, 0, 78, 0
2, 47120, Note_on_c, 0, 79, 100
2, 47200, Note_on_c, 0, 79, 0
2, 47200, Note_on_c, 0, 78, 100
2, 47280, Note_on_c, 0, 78, 0
2, 47280, Note_on_c, 0, 76, 100
2, 47360, Note_on_c, 0, 76, 0
2, 47360, Note_on_c, 0, 78, 100
2, 47440, Note_on_c, 0, 78, 0
2, 47440, Note_on_c, 0, 76, 100
2, 47520, Note_on_c, 0, 76, 0
2, 47520, Note_on_c, 0, 74, 100
2, 47600, Note_on_c, 0, 74, 0
2, 47600, Note_on_c, 0, 72, 100
2, 47680, Note_on_c, 0, 72, 0
2, 47680, Note_on_c, 0, 74, 100
2, 47760, Note_on_c, 0, 74, 0
2, 47760, Note_on_c, 0, 79, 100
2, 47840, Note_on_c, 0, 79, 0
2, 47840, Note_on_c, 0, 78, 100
2, 47920, Note_on_c, 0, 78, 0
2, 47920, Note_on_c, 0, 76, 100
2, 48000, Note_on_c, 0, 76, 0
2, 48000, Note_on_c, 0, 74, 100
2, 48080, Note_on_c, 0, 74, 0
2, 48080, Note_on_c, 0, 76, 100
2, 48160, Note_on_c, 0, 76, 0
2, 48160, Note_on_c, 0, 74, 100
2, 48240, Note_on_c, 0, 74, 0
2, 48240, Note_on_c, 0, 72, 100
2, 48320, Note_on_c, 0, 72, 0
2, 48320, Note_on_c, 0, 74, 100
2, 48400, Note_on_c, 0, 74, 0
2, 48400, Note_on_c, 0, 72, 100
2, 48480, Note_on_c, 0, 72, 0
2, 48480, Note_on_c, 0, 71, 100
2, 48560, Note_on_c, 0, 71, 0
2, 48560, Note_on_c, 0, 72, 100
2, 48640, Note_on_c, 0, 72, 0
2, 48640, Note_on_c, 0, 71, 100
2, 48720, Note_on_c, 0, 71, 0
2, 48720, Note_on_c, 0, 69, 100
2, 48800, Note_on_c, 0, 69, 0
2, 48800, Note_on_c, 0, 71, 100
2, 48880, Note_on_c, 0, 71, 0
2, 48880, Note_on_c, 0, 69, 100
2, 48960, Note_on_c, 0, 69, 0
2, 48960, Note_on_c, 0, 67, 100
2, 49040, Note_on_c, 0, 67, 0
2, 49040, Note_on_c, 0, 66, 100
2, 49120, Note_on_c, 0, 66, 0
2, 49120, Note_on_c, 0, 67, 100
2, 49200, Note_on_c, 0, 67, 0
2, 49200, Note_on_c, 0, 71, 100
2, 49280, Note_on_c, 0, 71, 0
2, 49280, Note_on_c, 0, 69, 100
2, 49360, Note_on_c, 0, 69, 0
2, 49360, Note_on_c, 0, 67, 100
2, 49440, Note_on_c, 0, 67, 0
2, 49440, Note_on_c, 0, 66, 100
2, 49520, Note_on_c, 0, 66, 0
2, 49520, Note_on_c, 0, 67, 100
2, 49600, Note_on_c, 0, 67, 0
2, 49600, Note_on_c, 0, 66, 100
2, 49680, Note_on_c, 0, 66, 0
2, 49680, Note_on_c, 0, 64, 100
2, 49760, Note_on_c, 0, 64, 0
2, 49760, Note_on_c, 0, 66, 100
2, 49840, Note_on_c, 0, 66, 0
2, 49840, Note_on_c, 0, 64, 100
2, 49920, Note_on_c, 0, 64, 0
2, 49920, Note_on_c, 0, 63, 100
2, 50000, Note_on_c, 0, 63, 0
2, 50000, Note_on_c, 0, 64, 100
2, 50080, Note_on_c, 0, 64, 0
2, 50080, Note_on_c, 0, 63, 100
2, 50160, Note_on_c, 0, 63, 0
2, 50160, Note_on_c, 0, 61, 100
2, 50240, Note_on_c, 0, 61, 0
2, 50240, Note_on_c, 0, 63, 100
2, 50320, Note_on_c, 0, 63, 0
2, 50320, Note_on_c, 0, 61, 100
2, 50400, Note_on_c, 0, 61, 0
2, 50400, Note_on_c, 0, 59, 100
2, 50480, Note_on_c, 0, 59, 0
2, 50480, Note_on_c, 0, 58, 100
2, 50560, Note_on_c, 0, 58, 0
2, 50560, Note_on_c, 0, 59, 100
2, 50640, Note_on_c, 0, 59, 0
2, 50640, Note_on_c, 0, 64, 100
2, 50720, Note_on_c, 0, 64, 0
2, 50720, Note_on_c, 0, 63, 100
2, 50800, Note_on_c, 0, 63, 0
2, 50800, Note_on_c, 0, 61, 100
2, 50880, Note_on_c, 0, 61, 0
2, 50880, Note_on_c, 0, 59, 100
2, 50960, Note_on_c, 0, 59, 0
2, 50960, Note_on_c, 0, 60, 100
2, 51040, Note_on_c, 0, 60, 0
2, 51040, Note_on_c, 0, 59, 100
2, 51120, Note_on_c, 0, 59, 0
2, 51120, Note_on_c, 0, 57, 100
2, 51200, Note_on_c, 0, 57, 0
2, 51200, Note_on_c, 0, 59, 100
2, 51280, Note_on_c, 0, 59, 0
2, 51280, Note_on_c, 0, 57, 100
2, 51360, Note_on_c, 0, 57, 0
2, 51360, Note_on_c, 0, 55, 100
2, 51440, Note_on_c, 0, 55, 0
2, 51440, Note_on_c, 0, 57, 100
2, 51520, Note_on_c, 0, 57, 0
2, 51520, Note_on_c, 0, 55, 100
2, 51600, Note_on_c, 0, 55, 0
2, 51600, Note_on_c, 0, 54, 100
2, 51680, Note_on_c, 0, 54, 0
2, 51680, Note_on_c, 0, 55, 100
2, 51760, Note_on_c, 0, 55, 0
2, 51760, Note_on_c, 0, 54, 100
2, 51840, Note_on_c, 0, 54, 0
2, 51840, Note_on_c, 0, 52, 100
2, 51920, Note_on_c, 0, 52, 0
2, 51920, Note_on_c, 0, 51, 100
2, 52000, Note_on_c, 0, 51, 0
2, 52000, Note_on_c, 0, 52, 100
2, 52080, Note_on_c, 0, 52, 0
2, 52080, Note_on_c, 0, 59, 100
2, 52160, Note_on_c, 0, 59, 0
2, 52160, Note_on_c, 0, 57, 100
2, 52240, Note_on_c, 0, 57, 0
2, 52240, Note_on_c, 0, 59, 100
2, 52320, Note_on_c, 0, 59, 0
2, 52320, Note_on_c, 0, 55, 100
2, 52400, Note_on_c, 0, 55, 0
2, 52400, Note_on_c, 0, 54, 100
2, 52480, Note_on_c, 0, 54, 0
2, 52480, Note_on_c, 0, 55, 100
2, 52560, Note_on_c, 0, 55, 0
2, 52560, Note_on_c, 0, 59, 100
2, 52640, Note_on_c, 0, 59, 0
2, 52640, Note_on_c, 0, 64, 100
2, 52720, Note_on_c, 0, 64, 0
2, 52720, Note_on_c, 0, 66, 100
2, 52800, Note_on_c, 0, 66, 0
2, 52800, Note_on_c, 0, 67, 100
2, 52880, Note_on_c, 0, 67, 0
2, 52880, Note_on_c, 0, 66, 100
2, 52960, Note_on_c, 0, 66, 0
2, 52960, Note_on_c, 0, 67, 100
2, 53040, Note_on_c, 0, 67, 0
2, 53040, Note_on_c, 0, 64, 100
2, 53120, Note_on_c, 0, 64, 0
2, 53120, Note_on_c, 0, 63, 100
2, 53200, Note_on_c, 0, 63, 0
2, 53200, Note_on_c, 0, 64, 100
2, 53280, Note_on_c, 0, 64, 0
2, 53280, Note_on_c, 0, 60, 100
2, 53360, Note_on_c, 0, 60, 0
2, 53360, Note_on_c, 0, 59, 100
2, 53440, Note_on_c, 0, 59, 0
2, 53440, Note_on_c, 0, 60, 100
2, 53520, Note_on_c, 0, 60, 0
2, 53520, Note_on_c, 0, 64, 100
2, 53600, Note_on_c, 0, 64, 0
2, 53600, Note_on_c, 0, 62, 100
2, 53680, Note_on_c, 0, 62, 0
2, 53680, Note_on_c, 0, 64, 100
2, 53760, Note_on_c, 0, 64, 0
2, 53760, Note_on_c, 0, 57, 100
2, 53840, Note_on_c, 0, 57, 0
2, 53840, Note_on_c, 0, 56, 100
2, 53920, Note_on_c, 0, 56, 0
2, 53920, Note_on_c, 0, 57, 100
2, 54000, Note_on_c, 0, 57, 0
2, 54000, Note_on_c, 0, 60, 100
2, 54080, Note_on_c, 0, 60, 0
2, 54080, Note_on_c, 0, 65, 100
2, 54160, Note_on_c, 0, 65, 0
2, 54160, Note_on_c, 0, 69, 100
2, 54240, Note_on_c, 0, 69, 0
2, 54240, Note_on_c, 0, 72, 100
2, 54320, Note_on_c, 0, 72, 0
2, 54320, Note_on_c, 0, 71, 100
2, 54400, Note_on_c, 0, 71, 0
2, 54400, Note_on_c, 0, 72, 100
2, 54480, Note_on_c, 0, 72, 0
2, 54480, Note_on_c, 0, 69, 100
2, 54560, Note_on_c, 0, 69, 0
2, 54560, Note_on_c, 0, 66, 100
2, 54640, Note_on_c, 0, 66, 0
2, 54640, Note_on_c, 0, 69, 100
2, 54720, Note_on_c, 0, 69, 0
2, 54720, Note_on_c, 0, 63, 100
2, 54800, Note_on_c, 0, 63, 0
2, 54800, Note_on_c, 0, 61, 100
2, 54880, Note_on_c, 0, 61, 0
2, 54880, Note_on_c, 0, 63, 100
2, 54960, Note_on_c, 0, 63, 0
2, 54960, Note_on_c, 0, 66, 100
2, 55040, Note_on_c, 0, 66, 0
2, 55040, Note_on_c, 0, 64, 100
2, 55120, Note_on_c, 0, 64, 0
2, 55120, Note_on_c, 0, 66, 100
2, 55200, Note_on_c, 0, 66, 0
2, 55200, Note_on_c, 0, 59, 100
2, 55280, Note_on_c, 0, 59, 0
2, 55280, Note_on_c, 0, 58, 100
2, 55360, Note_on_c, 0, 58, 0
2, 55360, Note_on_c, 0, 59, 100
2, 55440, Note_on_c, 0, 59, 0
2, 55440, Note_on_c, 0, 63, 100
2, 55520, Note_on_c, 0, 63, 0
2, 55520, Note_on_c, 0, 66, 100
2, 55600, Note_on_c, 0, 66, 0
2, 55600, Note_on_c, 0, 67, 100
2, 55680, Note_on_c, 0, 67, 0
2, 55680, Note_on_c, 0, 69, 100
2, 55760, Note_on_c, 0, 69, 0
2, 55760, Note_on_c, 0, 67, 100
2, 55840, Note_on_c, 0, 67, 0
2, 55840, Note_on_c, 0, 69, 100
2, 55920, Note_on_c, 0, 69, 0
2, 55920, Note_on_c, 0, 66, 100
2, 56000, Note_on_c, 0, 66, 0
2, 56000, Note_on_c, 0, 63, 100
2, 56080, Note_on_c, 0, 63, 0
2, 56080, Note_on_c, 0, 66, 100
2, 56160, Note_on_c, 0, 66, 0
2, 56160, Note_on_c, 0, 67, 100
2, 56240, Note_on_c, 0, 67, 0
2, 56240, Note_on_c, 0, 66, 100
2, 56320, Note_on_c, 0, 66, 0
2, 56320, Note_on_c, 0, 67, 100
2, 56400, Note_on_c, 0, 67, 0
2, 56400, Note_on_c, 0, 71, 100
2, 56480, Note_on_c, 0, 71, 0
2, 56480, Note_on_c, 0, 69, 100
2, 56560, Note_on_c, 0, 69, 0
2, 56560, Note_on_c, 0, 71, 100
2, 56640, Note_on_c, 0, 71, 0
2, 56640, Note_on_c, 0, 64, 100
2, 56720, Note_on_c, 0, 64, 0
2, 56720, Note_on_c, 0, 63, 100
2, 56800, Note_on_c, 0, 63, 0
2, 56800, Note_on_c, 0, 64, 100
2, 56880, Note_on_c, 0, 64, 0
2, 56880, Note_on_c, 0, 67, 100
2, 56960, Note_on_c, 0, 67, 0
2, 56960, Note_on_c, 0, 71, 100
2, 57040, Note_on_c, 0, 71, 0
2, 57040, Note_on_c, 0, 75, 100
2, 57120, Note_on_c, 0, 75, 0
2, 57120, Note_on_c, 0, 76, 100
2, 57200, Note_on_c, 0, 76, 0
2, 57200, Note_on_c, 0, 72, 100
2, 57280, Note_on_c, 0, 72, 0
2, 57280, Note_on_c, 0, 71, 100
2, 57360, Note_on_c, 0, 71, 0
2, 57360, Note_on_c, 0, 69, 100
2, 57440, Note_on_c, 0, 69, 0
2, 57440, Note_on_c, 0, 67, 100
2, 57520, Note_on_c, 0, 67, 0
2, 57520, Note_on_c, 0, 66, 100
2, 57600, Note_on_c, 0, 66, 0
2, 57600, Note_on_c, 0, 64, 100
2, 57840, Note_on_c, 0, 64, 0
2, 58440, Note_on_c, 0, 79, 100
2, 58560, Note_on_c, 0, 79, 0
2, 58560, Note_on_c, 0, 79, 100
2, 58620, Note_on_c, 0, 79, 0
2, 58620, Note_on_c, 0, 78, 100
2, 58920, Note_on_c, 0, 78, 0
2, 58920, Note_on_c, 0, 76, 100
2, 59040, Note_on_c, 0, 76, 0
2, 59040, Note_on_c, 0, 76, 100
2, 59100, Note_on_c, 0, 76, 0
2, 59100, Note_on_c, 0, 74, 100
2, 59880, Note_on_c, 0, 74, 0
2, 59880, Note_on_c, 0, 77, 100
2, 60000, Note_on_c, 0, 77, 0
2, 60000, Note_on_c, 0, 77, 100
2, 60060, Note_on_c, 0, 77, 0
2, 60060, Note_on_c, 0, 76, 100
2, 60360, Note_on_c, 0, 76, 0
2, 60360, Note_on_c, 0, 74, 100
2, 60480, Note_on_c, 0, 74, 0
2, 60480, Note_on_c, 0, 74, 100
2, 60540, Note_on_c, 0, 74, 0
2, 60540, Note_on_c, 0, 72, 100
2, 61800, Note_on_c, 0, 72, 0
2, 61800, Note_on_c, 0, 72, 100
2, 61920, Note_on_c, 0, 72, 0
2, 61920, Note_on_c, 0, 72, 100
2, 62160, Note_on_c, 0, 72, 0
2, 62880, Note_on_c, 0, 66, 100
2, 63120, Note_on_c, 0, 66, 0
2, 63360, Note_on_c, 0, 67, 100
2, 63600, Note_on_c, 0, 67, 0
2, 64320, Note_on_c, 0, 71, 100
2, 64560, Note_on_c, 0, 71, 0
2, 64800, Note_on_c, 0, 72, 100
2, 65040, Note_on_c, 0, 72, 0
2, 69120, Note_on_c, 0, 81, 100
2, 69200, Note_on_c, 0, 81, 0
2, 69200, Note_on_c, 0, 79, 100
2, 69280, Note_on_c, 0, 79, 0
2, 69280, Note_on_c, 0, 81, 100
2, 69360, Note_on_c, 0, 81, 0
2, 69360, Note_on_c, 0, 86, 100
2, 69440, Note_on_c, 0, 86, 0
2, 69440, Note_on_c, 0, 84, 100
2, 69520, Note_on_c, 0, 84, 0
2, 69520, Note_on_c, 0, 83, 100
2, 69600, Note_on_c, 0, 83, 0
2, 69600, Note_on_c, 0, 81, 100
2, 69680, Note_on_c, 0, 81, 0
2, 69680, Note_on_c, 0, 83, 100
2, 69760, Note_on_c, 0, 83, 0
2, 69760, Note_on_c, 0, 81, 100
2, 69840, Note_on_c, 0, 81, 0
2, 69840, Note_on_c, 0, 79, 100
2, 69920, Note_on_c, 0, 79, 0
2, 69920, Note_on_c, 0, 81, 100
2, 70000, Note_on_c, 0, 81, 0
2, 70000, Note_on_c, 0, 79, 100
2, 70080, Note_on_c, 0, 79, 0
2, 70080, Note_on_c, 0, 78, 100
2, 70160, Note_on_c, 0, 78, 0
2, 70160, Note_on_c, 0, 79, 100
2, 70240, Note_on_c, 0, 79, 0
2, 70240, Note_on_c, 0, 78, 100
2, 70320, Note_on_c, 0, 78, 0
2, 70320, Note_on_c, 0, 76, 100
2, 70400, Note_on_c, 0, 76, 0
2, 70400, Note_on_c, 0, 78, 100
2, 70480, Note_on_c, 0, 78, 0
2, 70480, Note_on_c, 0, 76, 100
2, 70560, Note_on_c, 0, 76, 0
2, 70560, Note_on_c, 0, 74, 100
2, 70640, Note_on_c, 0, 74, 0
2, 70640, Note_on_c, 0, 72, 100
2, 70720, Note_on_c, 0, 72, 0
2, 70720, Note_on_c, 0, 74, 100
2, 70800, Note_on_c, 0, 74, 0
2, 70800, Note_on_c, 0, 79, 100
2, 70880, Note_on_c, 0, 79, 0
2, 70880, Note_on_c, 0, 78, 100
2, 70960, Note_on_c, 0, 78, 0
2, 70960, Note_on_c, 0, 76, 100
2, 71040, Note_on_c, 0, 76, 0
2, 71040, Note_on_c, 0, 74, 100
2, 71120, Note_on_c, 0, 74, 0
2, 71120, Note_on_c, 0, 76, 100
2, 71200, Note_on_c, 0, 76, 0
2, 71200, Note_on_c, 0, 74, 100
2, 71280, Note_on_c, 0, 74, 0
2, 71280, Note_on_c, 0, 72, 100
2, 71360, Note_on_c, 0, 72, 0
2, 71360, Note_on_c, 0, 74, 100
2, 71440, Note_on_c, 0, 74, 0
2, 71440, Note_on_c, 0, 72, 100
2, 71520, Note_on_c, 0, 72, 0
2, 71520, Note_on_c, 0, 71, 100
2, 71600, Note_on_c, 0, 71, 0
2, 71600, Note_on_c, 0, 72, 100
2, 71680, Note_on_c, 0, 72, 0
2, 71680, Note_on_c, 0, 71, 100
2, 71760, Note_on_c, 0, 71, 0
2, 71760, Note_on_c, 0, 69, 100
2, 71840, Note_on_c, 0, 69, 0
2, 71840, Note_on_c, 0, 71, 100
2, 71920, Note_on_c, 0, 71, 0
2, 71920, Note_on_c, 0, 69, 100
2, 72000, Note_on_c, 0, 69, 0
2, 72000, Note_on_c, 0, 67, 100
2, 72080, Note_on_c, 0, 67, 0
2, 72080, Note_on_c, 0, 66, 100
2, 72160, Note_on_c, 0, 66, 0
2, 72160, Note_on_c, 0, 67, 100
2, 72240, Note_on_c, 0, 67, 0
2, 72240, Note_on_c, 0, 71, 100
2, 72320, Note_on_c, 0, 71, 0
2, 72320, Note_on_c, 0, 69, 100
2, 72400, Note_on_c, 0, 69, 0
2, 72400, Note_on_c, 0, 67, 100
2, 72480, Note_on_c, 0, 67, 0
2, 72480, Note_on_c, 0, 66, 100
2, 72560, Note_on_c, 0, 66, 0
2, 72560, Note_on_c, 0, 67, 100
2, 72640, Note_on_c, 0, 67, 0
2, 72640, Note_on_c, 0, 66, 100
2, 72720, Note_on_c, 0, 66, 0
2, 72720, Note_on_c, 0, 64, 100
2, 72800, Note_on_c, 0, 64, 0
2, 72800, Note_on_c, 0, 66, 100
2, 72880, Note_on_c, 0, 66, 0
2, 72880, Note_on_c, 0, 64, 100
2, 72960, Note_on_c, 0, 64, 0
2, 72960, Note_on_c, 0, 63, 100
2, 73040, Note_on_c, 0, 63, 0
2, 73040, Note_on_c, 0, 64, 100
2, 73120, Note_on_c, 0, 64, 0
2, 73120, Note_on_c, 0, 63, 100
2, 73200, Note_on_c, 0, 63, 0
2, 73200, Note_on_c, 0, 61, 100
2, 73280, Note_on_c, 0, 61, 0
2, 73280, Note_on_c, 0, 63, 100
2, 73360, Note_on_c, 0, 63, 0
2, 73360, Note_on_c, 0, 61, 100
2, 73440, Note_on_c, 0, 61, 0
2, 73440, Note_on_c, 0, 59, 100
2, 73520, Note_on_c, 0, 59, 0
2, 73520, Note_on_c, 0, 58, 100
2, 73600, Note_on_c, 0, 58, 0
2, 73600, Note_on_c, 0, 59, 100
2, 73680, Note_on_c, 0, 59, 0
2, 73680, Note_on_c, 0, 64, 100
2, 73760, Note_on_c, 0, 64, 0
2, 73760, Note_on_c, 0, 63, 100
2, 73840, Note_on_c, 0, 63, 0
2, 73840, Note_on_c, 0, 61, 100
2, 73920, Note_on_c, 0, 61, 0
2, 73920, Note_on_c, 0, 59, 100
2, 74000, Note_on_c, 0, 59, 0
2, 74000, Note_on_c, 0, 60, 100
2, 74080, Note_on_c, 0, 60, 0
2, 74080, Note_on_c, 0, 59, 100
2, 74160, Note_on_c, 0, 59, 0
2, 74160, Note_on_c, 0, 57, 100
2, 74240, Note_on_c, 0, 57, 0
2, 74240, Note_on_c, 0, 59, 100
2, 74320, Note_on_c, 0, 59, 0
2, 74320, Note_on_c, 0, 57, 100
2, 74400, Note_on_c, 0, 57, 0
2, 74400, Note_on_c, 0, 55, 100
2, 74480, Note_on_c, 0, 55, 0
2, 74480, Note_on_c, 0, 57, 100
2, 74560, Note_on_c, 0, 57, 0
2, 74560, Note_on_c, 0, 55, 100
2, 74640, Note_on_c, 0, 55, 0
2, 74640, Note_on_c, 0, 54, 100
2, 74720, Note_on_c, 0, 54, 0
2, 74720, Note_on_c, 0, 55, 100
2, 74800, Note_on_c, 0, 55, 0
2, 74800, Note_on_c, 0, 54, 100
2, 74880, Note_on_c, 0, 54, 0
2, 74880, Note_on_c, 0, 52, 100
2, 74960, Note_on_c, 0, 52, 0
2, 74960, Note_on_c, 0, 51, 100
2, 75040, Note_on_c, 0, 51, 0
2, 75040, Note_on_c, 0, 52, 100
2, 75120, Note_on_c, 0, 52, 0
2, 75120, Note_on_c, 0, 59, 100
2, 75200, Note_on_c, 0, 59, 0
2, 75200, Note_on_c, 0, 57, 100
2, 75280, Note_on_c, 0, 57, 0
2, 75280, Note_on_c, 0, 59, 100
2, 75360, Note_on_c, 0, 59, 0
2, 75360, Note_on_c, 0, 55, 100
2, 75440, Note_on_c, 0, 55, 0
2, 75440, Note_on_c, 0, 54, 100
2, 75520, Note_on_c, 0, 54, 0
2, 75520, Note_on_c, 0, 55, 100
2, 75600, Note_on_c, 0, 55, 0
2, 75600, Note_on_c, 0, 59, 100
2, 75680, Note_on_c, 0, 59, 0
2, 75680, Note_on_c, 0, 64, 100
2, 75760, Note_on_c, 0, 64, 0
2, 75760, Note_on_c, 0, 66, 100
2, 75840, Note_on_c, 0, 66, 0
2, 75840, Note_on_c, 0, 67, 100
2, 75920, Note_on_c, 0, 67, 0
2, 75920, Note_on_c, 0, 66, 100
2, 76000, Note_on_c, 0, 66, 0
2, 76000, Note_on_c, 0, 67, 100
2, 76080, Note_on_c, 0, 67, 0
2, 76080, Note_on_c, 0, 64, 100
2, 76160, Note_on_c, 0, 64, 0
2, 76160, Note_on_c, 0, 63, 100
2, 76240, Note_on_c, 0, 63, 0
2, 76240, Note_on_c, 0, 64, 100
2, 76320, Note_on_c, 0, 64, 0
2, 76320, Note_on_c, 0, 60, 100
2, 76400, Note_on_c, 0, 60, 0
2, 76400, Note_on_c, 0, 59, 100
2, 76480, Note_on_c, 0, 59, 0
2, 76480, Note_on_c, 0, 60, 100
2, 76560, Note_on_c, 0, 60, 0
2, 76560, Note_on_c, 0, 64, 100
2, 76640, Note_on_c, 0, 64, 0
2, 76640, Note_on_c, 0, 62, 100
2, 76720, Note_on_c, 0, 62, 0
2, 76720, Note_on_c, 0, 64, 100
2, 76800, Note_on_c, 0, 64, 0
2, 76800, Note_on_c, 0, 57, 100
2, 76880, Note_on_c, 0, 57, 0
2, 76880, Note_on_c, 0, 56, 100
2, 76960, Note_on_c, 0, 56, 0
2, 76960, Note_on_c, 0, 57, 100
2, 77040, Note_on_c, 0, 57, 0
2, 77040, Note_on_c, 0, 60, 100
2, 77120, Note_on_c, 0, 60, 0
2, 77120, Note_on_c, 0, 65, 100
2, 77200, Note_on_c, 0, 65, 0
2, 77200, Note_on_c, 0, 69, 100
2, 77280, Note_on_c, 0, 69, 0
2, 77280, Note_on_c, 0, 72, 100
2, 77360, Note_on_c, 0, 72, 0
2, 77360, Note_on_c, 0, 71, 100
2, 77440, Note_on_c, 0, 71, 0
2, 77440, Note_on_c, 0, 72, 100
2, 77520, Note_on_c, 0, 72, 0
2, 77520, Note_on_c, 0, 69, 100
2, 77600, Note_on_c, 0, 69, 0
2, 77600, Note_on_c, 0, 66, 100
2, 77680, Note_on_c, 0, 66, 0
2, 77680, Note_on_c, 0, 69, 100
2, 77760, Note_on_c, 0, 69, 0
2, 77760, Note_on_c, 0, 63, 100
2, 77840, Note_on_c, 0, 63, 0
2, 77840, Note_on_c, 0, 61, 100
2, 77920, Note_on_c, 0, 61, 0
2, 77920, Note_on_c, 0, 63, 100
2, 78000, Note_on_c, 0, 63, 0
2, 78000, Note_on_c, 0, 66, 100
2, 78080, Note_on_c, 0, 66, 0
2, 78080, Note_on_c, 0, 64, 100
2, 78160, Note_on_c, 0, 64, 0
2, 78160, Note_on_c, 0, 66, 100
2, 78240, Note_on_c, 0, 66, 0
2, 78240, Note_on_c, 0, 59, 100
2, 78320, Note_on_c, 0, 59, 0
2, 78320, Note_on_c, 0, 58, 100
2, 78400, Note_on_c, 0, 58, 0
2, 78400, Note_on_c, 0, 59, 100
2, 78480, Note_on_c, 0, 59, 0
2, 78480, Note_on_c, 0, 63, 100
2, 78560, Note_on_c, 0, 63, 0
2, 78560, Note_on_c, 0, 66, 100
2, 78640, Note_on_c, 0, 66, 0
2, 78640, Note_on_c, 0, 67, 100
2, 78720, Note_on_c, 0, 67, 0
2, 78720, Note_on_c, 0, 69, 100
2, 78800, Note_on_c, 0, 69, 0
2, 78800, Note_on_c, 0, 67, 100
2, 78880, Note_on_c, 0, 67, 0
2, 78880, Note_on_c, 0, 69, 100
2, 78960, Note_on_c, 0, 69, 0
2, 78960, Note_on_c, 0, 66, 100
2, 79040, Note_on_c, 0, 66, 0
2, 79040, Note_on_c, 0, 63, 100
2, 79120, Note_on_c, 0, 63, 0
2, 79120, Note_on_c, 0, 66, 100
2, 79200, Note_on_c, 0, 66, 0
2, 79200, Note_on_c, 0, 67, 100
2, 79280, Note_on_c, 0, 67, 0
2, 79280, Note_on_c, 0, 66, 100
2, 79360, Note_on_c, 0, 66, 0
2, 79360, Note_on_c, 0, 67, 100
2, 79440, Note_on_c, 0, 67, 0
2, 79440, Note_on_c, 0, 71, 100
2, 79520, Note_on_c, 0, 71, 0
2, 79520, Note_on_c, 0, 69, 100
2, 79600, Note_on_c, 0, 69, 0
2, 79600, Note_on_c, 0, 71, 100
2, 79680, Note_on_c, 0, 71, 0
2, 79680, Note_on_c, 0, 64, 100
2, 79760, Note_on_c, 0, 64, 0
2, 79760, Note_on_c, 0, 63, 100
2, 79840, Note_on_c, 0, 63, 0
2, 79840, Note_on_c, 0, 64, 100
2, 79920, Note_on_c, 0, 64, 0
2, 79920, Note_on_c, 0, 67, 100
2, 80000, Note_on_c, 0, 67, 0
2, 80000, Note_on_c, 0, 71, 100
2, 80080, Note_on_c, 0, 71, 0
2, 80080, Note_on_c, 0, 75, 100
2, 80160, Note_on_c, 0, 75, 0
2, 80160, Note_on_c, 0, 76, 100
2, 80240, Note_on_c, 0, 76, 0
2, 80240, Note_on_c, 0, 72, 100
2, 80320, Note_on_c, 0, 72, 0
2, 80320, Note_on_c, 0, 71, 100
2, 80400, Note_on_c, 0, 71, 0
2, 80400, Note_on_c, 0, 69, 100
2, 80480, Note_on_c, 0, 69, 0
2, 80480, Note_on_c, 0, 67, 100
2, 80560, Note_on_c, 0, 67, 0
2, 80560, Note_on_c, 0, 66, 100
2, 80640, Note_on_c, 0, 66, 0
2, 80640, Note_on_c, 0, 64, 100
2, 80880, Note_on_c, 0, 64, 0
2, 81480, Note_on_c, 0, 79, 100
2, 81600, Note_on_c, 0, 79, 0
2, 81600, Note_on_c, 0, 79, 100
2, 81660, Note_on_c, 0, 79, 0
2, 81660, Note_on_c, 0, 78, 100
2, 81960, Note_on_c, 0, 78, 0
2, 81960, Note_on_c, 0, 76, 100
2, 82080, Note_on_c, 0, 76, 0
2, 82080, Note_on_c, 0, 76, 100
2, 82140, Note_on_c, 0, 76, 0
2, 82140, Note_on_c, 0, 74, 100
2, 82920, Note_on_c, 0, 74, 0
2, 82920, Note_on_c, 0, 77, 100
2, 83040, Note_on_c, 0, 77, 0
2, 83040, Note_on_c, 0, 77, 100
2, 83100, Note_on_c, 0, 77, 0
2, 83100, Note_on_c, 0, 76, 100
2, 83400, Note_on_c, 0, 76, 0
2, 83400, Note_on_c, 0, 74, 100
2, 83520, Note_on_c, 0, 74, 0
2, 83520, Note_on_c, 0, 74, 100
2, 83580, Note_on_c, 0, 74, 0
2, 83580, Note_on_c, 0, 72, 100
2, 84840, Note_on_c, 0, 72, 0
2, 84840, Note_on_c, 0, 72, 100
2, 84960, Note_on_c, 0, 72, 0
2, 84960, Note_on_c, 0, 72, 100
2, 85200, Note_on_c, 0, 72, 0
2, 85920, Note_on_c, 0, 66, 100
2, 86160, Note_on_c, 0, 66, 0
2, 86400, Note_on_c, 0, 67, 100
2, 86640, Note_on_c, 0, 67, 0
2, 87360, Note_on_c, 0, 71, 100
2, 87600, Note_on_c, 0, 71, 0
2, 87840, Note_on_c, 0, 72, 100
2, 88080, Note_on_c, 0, 72, 0
2, 88080, End_track
3, 0, Start_track
3, 0, MIDI_port, 0
3, 0, Title_t, "--------------------------------------"
3, 0, Program_c, 1, 6
3, 0, Control_c, 1, 7, 100
3, 0, Control_c, 1, 10, 64
3, 0, Note_on_c, 1, 71, 100
3, 480, Note_on_c, 1, 71, 0
3, 480, Note_on_c, 1, 71, 100
3, 960, Note_on_c, 1, 71, 0
3, 1200, Note_on_c, 1, 71, 100
3, 1440, Note_on_c, 1, 71, 0
3, 1440, Note_on_c, 1, 69, 100
3, 1920, Note_on_c, 1, 69, 0
3, 1920, Note_on_c, 1, 69, 100
3, 2400, Note_on_c, 1, 69, 0
3, 2640, Note_on_c, 1, 74, 100
3, 2880, Note_on_c, 1, 74, 0
3, 2880, Note_on_c, 1, 74, 100
3, 3360, Note_on_c, 1, 74, 0
3, 3360, Note_on_c, 1, 74, 100
3, 3400, Note_on_c, 1, 74, 0
3, 3400, Note_on_c, 1, 73, 100
3, 3440, Note_on_c, 1, 73, 0
3, 3440, Note_on_c, 1, 74, 100
3, 3480, Note_on_c, 1, 74, 0
3, 3480, Note_on_c, 1, 73, 100
3, 3840, Note_on_c, 1, 73, 0
3, 4080, Note_on_c, 1, 67, 100
3, 4320, Note_on_c, 1, 67, 0
3, 4320, Note_on_c, 1, 67, 100
3, 4680, Note_on_c, 1, 67, 0
3, 4680, Note_on_c, 1, 64, 100
3, 4800, Note_on_c, 1, 64, 0
3, 4800, Note_on_c, 1, 64, 100
3, 4860, Note_on_c, 1, 64, 0
3, 4860, Note_on_c, 1, 66, 100
3, 5280, Note_on_c, 1, 66, 0
3, 5520, Note_on_c, 1, 69, 100
3, 5760, Note_on_c, 1, 69, 0
3, 5760, Note_on_c, 1, 62, 100
3, 6120, Note_on_c, 1, 62, 0
3, 6120, Note_on_c, 1, 64, 100
3, 6240, Note_on_c, 1, 64, 0
3, 6240, Note_on_c, 1, 65, 100
3, 6720, Note_on_c, 1, 65, 0
3, 6960, Note_on_c, 1, 67, 100
3, 7200, Note_on_c, 1, 67, 0
3, 7200, Note_on_c, 1, 67, 100
3, 7560, Note_on_c, 1, 67, 0
3, 7560, Note_on_c, 1, 64, 100
3, 7680, Note_on_c, 1, 64, 0
3, 7680, Note_on_c, 1, 62, 100
3, 7740, Note_on_c, 1, 62, 0
3, 7740, Note_on_c, 1, 60, 100
3, 8160, Note_on_c, 1, 60, 0
3, 8400, Note_on_c, 1, 64, 100
3, 8640, Note_on_c, 1, 64, 0
3, 8640, Note_on_c, 1, 57, 100
3, 9000, Note_on_c, 1, 57, 0
3, 9000, Note_on_c, 1, 59, 100
3, 9120, Note_on_c, 1, 59, 0
3, 9120, Note_on_c, 1, 60, 100
3, 9600, Note_on_c, 1, 60, 0
3, 9840, Note_on_c, 1, 62, 100
3, 10080, Note_on_c, 1, 62, 0
3, 10080, Note_on_c, 1, 62, 100
3, 10440, Note_on_c, 1, 62, 0
3, 10440, Note_on_c, 1, 59, 100
3, 10560, Note_on_c, 1, 59, 0
3, 10560, Note_on_c, 1, 55, 100
3, 11040, Note_on_c, 1, 55, 0
3, 11520, Note_on_c, 1, 71, 100
3, 12000, Note_on_c, 1, 71, 0
3, 12000, Note_on_c, 1, 71, 100
3, 12480, Note_on_c, 1, 71, 0
3, 12720, Note_on_c, 1, 79, 100
3, 12960, Note_on_c, 1, 79, 0
3, 12960, Note_on_c, 1, 79, 100
3, 13320, Note_on_c, 1, 79, 0
3, 13320, Note_on_c, 1, 76, 100
3, 13440, Note_on_c, 1, 76, 0
3, 13440, Note_on_c, 1, 78, 100
3, 13500, Note_on_c, 1, 78, 0
3, 13500, Note_on_c, 1, 76, 100
3, 13560, Note_on_c, 1, 76, 0
3, 13560, Note_on_c, 1, 78, 100
3, 13920, Note_on_c, 1, 78, 0
3, 14160, Note_on_c, 1, 72, 100
3, 14400, Note_on_c, 1, 72, 0
3, 14400, Note_on_c, 1, 71, 100
3, 14760, Note_on_c, 1, 71, 0
3, 14760, Note_on_c, 1, 75, 100
3, 14880, Note_on_c, 1, 75, 0
3, 14880, Note_on_c, 1, 76, 100
3, 14940, Note_on_c, 1, 76, 0
3, 14940, Note_on_c, 1, 75, 100
3, 15000, Note_on_c, 1, 75, 0
3, 15000, Note_on_c, 1, 76, 100
3, 15360, Note_on_c, 1, 76, 0
3, 15600, Note_on_c, 1, 76, 100
3, 15840, Note_on_c, 1, 76, 0
3, 15840, Note_on_c, 1, 69, 100
3, 16200, Note_on_c, 1, 69, 0
3, 16200, Note_on_c, 1, 73, 100
3, 16320, Note_on_c, 1, 73, 0
3, 16320, Note_on_c, 1, 71, 100
3, 16380, Note_on_c, 1, 71, 0
3, 16380, Note_on_c, 1, 69, 100
3, 16800, Note_on_c, 1, 69, 0
3, 17040, Note_on_c, 1, 73, 100
3, 17280, Note_on_c, 1, 73, 0
3, 17280, Note_on_c, 1, 73, 100
3, 17760, Note_on_c, 1, 73, 0
3, 17760, Note_on_c, 1, 74, 100
3, 18240, Note_on_c, 1, 74, 0
3, 18480, Note_on_c, 1, 74, 100
3, 18720, Note_on_c, 1, 74, 0
3, 18720, Note_on_c, 1, 74, 100
3, 19200, Note_on_c, 1, 74, 0
3, 19200, Note_on_c, 1, 74, 100
3, 19680, Note_on_c, 1, 74, 0
3, 19920, Note_on_c, 1, 76, 100
3, 20160, Note_on_c, 1, 76, 0
3, 20160, Note_on_c, 1, 69, 100
3, 20520, Note_on_c, 1, 69, 0
3, 20520, Note_on_c, 1, 67, 100
3, 20580, Note_on_c, 1, 67, 0
3, 20580, Note_on_c, 1, 66, 100
3, 20640, Note_on_c, 1, 66, 0
3, 20640, Note_on_c, 1, 66, 100
3, 20700, Note_on_c, 1, 66, 0
3, 20700, Note_on_c, 1, 64, 100
3, 21120, Note_on_c, 1, 64, 0
3, 21360, Note_on_c, 1, 57, 100
3, 21600, Note_on_c, 1, 57, 0
3, 21600, Note_on_c, 1, 62, 100
3, 22080, Note_on_c, 1, 62, 0
3, 22080, Note_on_c, 1, 62, 100
3, 22560, Note_on_c, 1, 62, 0
3, 23040, Note_on_c, 1, 71, 100
3, 23520, Note_on_c, 1, 71, 0
3, 23520, Note_on_c, 1, 71, 100
3, 24000, Note_on_c, 1, 71, 0
3, 24240, Note_on_c, 1, 71, 100
3, 24480, Note_on_c, 1, 71, 0
3, 24480, Note_on_c, 1, 69, 100
3, 24960, Note_on_c, 1, 69, 0
3, 24960, Note_on_c, 1, 69, 100
3, 25440, Note_on_c, 1, 69, 0
3, 25680, Note_on_c, 1, 74, 100
3, 25920, Note_on_c, 1, 74, 0
3, 25920, Note_on_c, 1, 74, 100
3, 26400, Note_on_c, 1, 74, 0
3, 26400, Note_on_c, 1, 74, 100
3, 26440, Note_on_c, 1, 74, 0
3, 26440, Note_on_c, 1, 73, 100
3, 26480, Note_on_c, 1, 73, 0
3, 26480, Note_on_c, 1, 74, 100
3, 26520, Note_on_c, 1, 74, 0
3, 26520, Note_on_c, 1, 73, 100
3, 26880, Note_on_c, 1, 73, 0
3, 27120, Note_on_c, 1, 67, 100
3, 27360, Note_on_c, 1, 67, 0
3, 27360, Note_on_c, 1, 67, 100
3, 27720, Note_on_c, 1, 67, 0
3, 27720, Note_on_c, 1, 64, 100
3, 27840, Note_on_c, 1, 64, 0
3, 27840, Note_on_c, 1, 64, 100
3, 27900, Note_on_c, 1, 64, 0
3, 27900, Note_on_c, 1, 66, 100
3, 28320, Note_on_c, 1, 66, 0
3, 28560, Note_on_c, 1, 69, 100
3, 28800, Note_on_c, 1, 69, 0
3, 28800, Note_on_c, 1, 62, 100
3, 29160, Note_on_c, 1, 62, 0
3, 29160, Note_on_c, 1, 64, 100
3, 29280, Note_on_c, 1, 64, 0
3, 29280, Note_on_c, 1, 65, 100
3, 29760, Note_on_c, 1, 65, 0
3, 30000, Note_on_c, 1, 67, 100
3, 30240, Note_on_c, 1, 67, 0
3, 30240, Note_on_c, 1, 67, 100
3, 30600, Note_on_c, 1, 67, 0
3, 30600, Note_on_c, 1, 64, 100
3, 30720, Note_on_c, 1, 64, 0
3, 30720, Note_on_c, 1, 62, 100
3, 30780, Note_on_c, 1, 62, 0
3, 30780, Note_on_c, 1, 60, 100
3, 31200, Note_on_c, 1, 60, 0
3, 31440, Note_on_c, 1, 64, 100
3, 31680, Note_on_c, 1, 64, 0
3, 31680, Note_on_c, 1, 57, 100
3, 32040, Note_on_c, 1, 57, 0
3, 32040, Note_on_c, 1, 59, 100
3, 32160, Note_on_c, 1, 59, 0
3, 32160, Note_on_c, 1, 60, 100
3, 32640, Note_on_c, 1, 60, 0
3, 32880, Note_on_c, 1, 62, 100
3, 33120, Note_on_c, 1, 62, 0
3, 33120, Note_on_c, 1, 62, 100
3, 33480, Note_on_c, 1, 62, 0
3, 33480, Note_on_c, 1, 59, 100
3, 33600, Note_on_c, 1, 59, 0
3, 33600, Note_on_c, 1, 55, 100
3, 34080, Note_on_c, 1, 55, 0
3, 34560, Note_on_c, 1, 71, 100
3, 35040, Note_on_c, 1, 71, 0
3, 35040, Note_on_c, 1, 71, 100
3, 35520, Note_on_c, 1, 71, 0
3, 35760, Note_on_c, 1, 79, 100
3, 36000, Note_on_c, 1, 79, 0
3, 36000, Note_on_c, 1, 79, 100
3, 36360, Note_on_c, 1, 79, 0
3, 36360, Note_on_c, 1, 76, 100
3, 36480, Note_on_c, 1, 76, 0
3, 36480, Note_on_c, 1, 78, 100
3, 36540, Note_on_c, 1, 78, 0
3, 36540, Note_on_c, 1, 76, 100
3, 36600, Note_on_c, 1, 76, 0
3, 36600, Note_on_c, 1, 78, 100
3, 36960, Note_on_c, 1, 78, 0
3, 37200, Note_on_c, 1, 72, 100
3, 37440, Note_on_c, 1, 72, 0
3, 37440, Note_on_c, 1, 71, 100
3, 37800, Note_on_c, 1, 71, 0
3, 37800, Note_on_c, 1, 75, 100
3, 37920, Note_on_c, 1, 75, 0
3, 37920, Note_on_c, 1, 76, 100
3, 37980, Note_on_c, 1, 76, 0
3, 37980, Note_on_c, 1, 75, 100
3, 38040, Note_on_c, 1, 75, 0
3, 38040, Note_on_c, 1, 76, 100
3, 38400, Note_on_c, 1, 76, 0
3, 38640, Note_on_c, 1, 76, 100
3, 38880, Note_on_c, 1, 76, 0
3, 38880, Note_on_c, 1, 69, 100
3, 39240, Note_on_c, 1, 69, 0
3, 39240, Note_on_c, 1, 73, 100
3, 39360, Note_on_c, 1, 73, 0
3, 39360, Note_on_c, 1, 71, 100
3, 39420, Note_on_c, 1, 71, 0
3, 39420, Note_on_c, 1, 69, 100
3, 39840, Note_on_c, 1, 69, 0
3, 40080, Note_on_c, 1, 73, 100
3, 40320, Note_on_c, 1, 73, 0
3, 40320, Note_on_c, 1, 73, 100
3, 40800, Note_on_c, 1, 73, 0
3, 40800, Note_on_c, 1, 74, 100
3, 41280, Note_on_c, 1, 74, 0
3, 41520, Note_on_c, 1, 74, 100
3, 41760, Note_on_c, 1, 74, 0
3, 41760, Note_on_c, 1, 74, 100
3, 42240, Note_on_c, 1, 74, 0
3, 42240, Note_on_c, 1, 74, 100
3, 42720, Note_on_c, 1, 74, 0
3, 42960, Note_on_c, 1, 76, 100
3, 43200, Note_on_c, 1, 76, 0
3, 43200, Note_on_c, 1, 69, 100
3, 43560, Note_on_c, 1, 69, 0
3, 43560, Note_on_c, 1, 67, 100
3, 43620, Note_on_c, 1, 67, 0
3, 43620, Note_on_c, 1, 66, 100
3, 43680, Note_on_c, 1, 66, 0
3, 43680, Note_on_c, 1, 66, 100
3, 43740, Note_on_c, 1, 66, 0
3, 43740, Note_on_c, 1, 64, 100
3, 44160, Note_on_c, 1, 64, 0
3, 44400, Note_on_c, 1, 57, 100
3, 44640, Note_on_c, 1, 57, 0
3, 44640, Note_on_c, 1, 62, 100
3, 45120, Note_on_c, 1, 62, 0
3, 45120, Note_on_c, 1, 62, 100
3, 45600, Note_on_c, 1, 62, 0
3, 46080, Note_on_c, 1, 66, 100
3, 46440, Note_on_c, 1, 66, 0
3, 46440, Note_on_c, 1, 64, 100
3, 46560, Note_on_c, 1, 64, 0
3, 46560, Note_on_c, 1, 64, 100
3, 46620, Note_on_c, 1, 64, 0
3, 46620, Note_on_c, 1, 66, 100
3, 47040, Note_on_c, 1, 66, 0
3, 47280, Note_on_c, 1, 62, 100
3, 47520, Note_on_c, 1, 62, 0
3, 47520, Note_on_c, 1, 67, 100
3, 47880, Note_on_c, 1, 67, 0
3, 47880, Note_on_c, 1, 69, 100
3, 48000, Note_on_c, 1, 69, 0
3, 48000, Note_on_c, 1, 69, 100
3, 48060, Note_on_c, 1, 69, 0
3, 48060, Note_on_c, 1, 71, 100
3, 48480, Note_on_c, 1, 71, 0
3, 48720, Note_on_c, 1, 79, 100
3, 48960, Note_on_c, 1, 79, 0
3, 48960, Note_on_c, 1, 76, 100
3, 49320, Note_on_c, 1, 76, 0
3, 49320, Note_on_c, 1, 83, 100
3, 49440, Note_on_c, 1, 83, 0
3, 49440, Note_on_c, 1, 83, 100
3, 49500, Note_on_c, 1, 83, 0
3, 49500, Note_on_c, 1, 81, 100
3, 49920, Note_on_c, 1, 81, 0
3, 50160, Note_on_c, 1, 81, 100
3, 50400, Note_on_c, 1, 81, 0
3, 50400, Note_on_c, 1, 81, 100
3, 50760, Note_on_c, 1, 81, 0
3, 50760, Note_on_c, 1, 78, 100
3, 50880, Note_on_c, 1, 78, 0
3, 50880, Note_on_c, 1, 76, 100
3, 50940, Note_on_c, 1, 76, 0
3, 50940, Note_on_c, 1, 75, 100
3, 51360, Note_on_c, 1, 75, 0
3, 51600, Note_on_c, 1, 78, 100
3, 51840, Note_on_c, 1, 78, 0
3, 51840, Note_on_c, 1, 79, 100
3, 52200, Note_on_c, 1, 79, 0
3, 52200, Note_on_c, 1, 78, 100
3, 52320, Note_on_c, 1, 78, 0
3, 52320, Note_on_c, 1, 78, 100
3, 52380, Note_on_c, 1, 78, 0
3, 52380, Note_on_c, 1, 76, 100
3, 52800, Note_on_c, 1, 76, 0
3, 53040, Note_on_c, 1, 79, 100
3, 53280, Note_on_c, 1, 79, 0
3, 53280, Note_on_c, 1, 79, 100
3, 53760, Note_on_c, 1, 79, 0
3, 53760, Note_on_c, 1, 77, 100
3, 54240, Note_on_c, 1, 77, 0
3, 54480, Note_on_c, 1, 81, 100
3, 54720, Note_on_c, 1, 81, 0
3, 54720, Note_on_c, 1, 81, 100
3, 55080, Note_on_c, 1, 81, 0
3, 55080, Note_on_c, 1, 78, 100
3, 55200, Note_on_c, 1, 78, 0
3, 55200, Note_on_c, 1, 78, 100
3, 55260, Note_on_c, 1, 78, 0
3, 55260, Note_on_c, 1, 75, 100
3, 55680, Note_on_c, 1, 75, 0
3, 55920, Note_on_c, 1, 78, 100
3, 56160, Note_on_c, 1, 78, 0
3, 56160, Note_on_c, 1, 78, 100
3, 56520, Note_on_c, 1, 78, 0
3, 56520, Note_on_c, 1, 75, 100
3, 56640, Note_on_c, 1, 75, 0
3, 56640, Note_on_c, 1, 76, 100
3, 56700, Note_on_c, 1, 76, 0
3, 56700, Note_on_c, 1, 75, 100
3, 56760, Note_on_c, 1, 75, 0
3, 56760, Note_on_c, 1, 76, 100
3, 57120, Note_on_c, 1, 76, 0
3, 57960, Note_on_c, 1, 68, 100
3, 58080, Note_on_c, 1, 68, 0
3, 58080, Note_on_c, 1, 69, 100
3, 58440, Note_on_c, 1, 69, 0
3, 58440, Note_on_c, 1, 71, 100
3, 58560, Note_on_c, 1, 71, 0
3, 58560, Note_on_c, 1, 72, 100
3, 59400, Note_on_c, 1, 72, 0
3, 59400, Note_on_c, 1, 66, 100
3, 59520, Note_on_c, 1, 66, 0
3, 59520, Note_on_c, 1, 67, 100
3, 59880, Note_on_c, 1, 67, 0
3, 59880, Note_on_c, 1, 69, 100
3, 60000, Note_on_c, 1, 69, 0
3, 60000, Note_on_c, 1, 71, 100
3, 60840, Note_on_c, 1, 71, 0
3, 60840, Note_on_c, 1, 64, 100
3, 60960, Note_on_c, 1, 64, 0
3, 60960, Note_on_c, 1, 66, 100
3, 61320, Note_on_c, 1, 66, 0
3, 61320, Note_on_c, 1, 67, 100
3, 61440, Note_on_c, 1, 67, 0
3, 61440, Note_on_c, 1, 69, 100
3, 61800, Note_on_c, 1, 69, 0
3, 61800, Note_on_c, 1, 67, 100
3, 61920, Note_on_c, 1, 67, 0
3, 61920, Note_on_c, 1, 66, 100
3, 62000, Note_on_c, 1, 66, 0
3, 62000, Note_on_c, 1, 67, 100
3, 62080, Note_on_c, 1, 67, 0
3, 62080, Note_on_c, 1, 66, 100
3, 62160, Note_on_c, 1, 66, 0
3, 62160, Note_on_c, 1, 61, 100
3, 62240, Note_on_c, 1, 61, 0
3, 62240, Note_on_c, 1, 62, 100
3, 62320, Note_on_c, 1, 62, 0
3, 62320, Note_on_c, 1, 64, 100
3, 62400, Note_on_c, 1, 64, 0
3, 62400, Note_on_c, 1, 66, 100
3, 62480, Note_on_c, 1, 66, 0
3, 62480, Note_on_c, 1, 64, 100
3, 62560, Note_on_c, 1, 64, 0
3, 62560, Note_on_c, 1, 66, 100
3, 62640, Note_on_c, 1, 66, 0
3, 62640, Note_on_c, 1, 67, 100
3, 62720, Note_on_c, 1, 67, 0
3, 62720, Note_on_c, 1, 66, 100
3, 62800, Note_on_c, 1, 66, 0
3, 62800, Note_on_c, 1, 67, 100
3, 62880, Note_on_c, 1, 67, 0
3, 62880, Note_on_c, 1, 69, 100
3, 62960, Note_on_c, 1, 69, 0
3, 62960, Note_on_c, 1, 67, 100
3, 63040, Note_on_c, 1, 67, 0
3, 63040, Note_on_c, 1, 69, 100
3, 63120, Note_on_c, 1, 69, 0
3, 63120, Note_on_c, 1, 71, 100
3, 63200, Note_on_c, 1, 71, 0
3, 63200, Note_on_c, 1, 67, 100
3, 63280, Note_on_c, 1, 67, 0
3, 63280, Note_on_c, 1, 69, 100
3, 63360, Note_on_c, 1, 69, 0
3, 63360, Note_on_c, 1, 71, 100
3, 63440, Note_on_c, 1, 71, 0
3, 63440, Note_on_c, 1, 72, 100
3, 63520, Note_on_c, 1, 72, 0
3, 63520, Note_on_c, 1, 71, 100
3, 63600, Note_on_c, 1, 71, 0
3, 63600, Note_on_c, 1, 66, 100
3, 63680, Note_on_c, 1, 66, 0
3, 63680, Note_on_c, 1, 67, 100
3, 63760, Note_on_c, 1, 67, 0
3, 63760, Note_on_c, 1, 69, 100
3, 63840, Note_on_c, 1, 69, 0
3, 63840, Note_on_c, 1, 71, 100
3, 63920, Note_on_c, 1, 71, 0
3, 63920, Note_on_c, 1, 69, 100
3, 64000, Note_on_c, 1, 69, 0
3, 64000, Note_on_c, 1, 71, 100
3, 64080, Note_on_c, 1, 71, 0
3, 64080, Note_on_c, 1, 72, 100
3, 64160, Note_on_c, 1, 72, 0
3, 64160, Note_on_c, 1, 71, 100
3, 64240, Note_on_c, 1, 71, 0
3, 64240, Note_on_c, 1, 72, 100
3, 64320, Note_on_c, 1, 72, 0
3, 64320, Note_on_c, 1, 74, 100
3, 64400, Note_on_c, 1, 74, 0
3, 64400, Note_on_c, 1, 72, 100
3, 64480, Note_on_c, 1, 72, 0
3, 64480, Note_on_c, 1, 74, 100
3, 64560, Note_on_c, 1, 74, 0
3, 64560, Note_on_c, 1, 76, 100
3, 64640, Note_on_c, 1, 76, 0
3, 64640, Note_on_c, 1, 72, 100
3, 64720, Note_on_c, 1, 72, 0
3, 64720, Note_on_c, 1, 74, 100
3, 64800, Note_on_c, 1, 74, 0
3, 64800, Note_on_c, 1, 76, 100
3, 64880, Note_on_c, 1, 76, 0
3, 64880, Note_on_c, 1, 77, 100
3, 64960, Note_on_c, 1, 77, 0
3, 64960, Note_on_c, 1, 76, 100
3, 65040, Note_on_c, 1, 76, 0
3, 65040, Note_on_c, 1, 71, 100
3, 65120, Note_on_c, 1, 71, 0
3, 65120, Note_on_c, 1, 72, 100
3, 65200, Note_on_c, 1, 72, 0
3, 65200, Note_on_c, 1, 74, 100
3, 65280, Note_on_c, 1, 74, 0
3, 65280, Note_on_c, 1, 76, 100
3, 65360, Note_on_c, 1, 76, 0
3, 65360, Note_on_c, 1, 74, 100
3, 65440, Note_on_c, 1, 74, 0
3, 65440, Note_on_c, 1, 76, 100
3, 65520, Note_on_c, 1, 76, 0
3, 65520, Note_on_c, 1, 78, 100
3, 65600, Note_on_c, 1, 78, 0
3, 65600, Note_on_c, 1, 76, 100
3, 65680, Note_on_c, 1, 76, 0
3, 65680, Note_on_c, 1, 78, 100
3, 65760, Note_on_c, 1, 78, 0
3, 65760, Note_on_c, 1, 79, 100
3, 65840, Note_on_c, 1, 79, 0
3, 65840, Note_on_c, 1, 78, 100
3, 65920, Note_on_c, 1, 78, 0
3, 65920, Note_on_c, 1, 79, 100
3, 66000, Note_on_c, 1, 79, 0
3, 66000, Note_on_c, 1, 81, 100
3, 66080, Note_on_c, 1, 81, 0
3, 66080, Note_on_c, 1, 78, 100
3, 66160, Note_on_c, 1, 78, 0
3, 66160, Note_on_c, 1, 79, 100
3, 66240, Note_on_c, 1, 79, 0
3, 66240, Note_on_c, 1, 81, 100
3, 66320, Note_on_c, 1, 81, 0
3, 66320, Note_on_c, 1, 83, 100
3, 66400, Note_on_c, 1, 83, 0
3, 66400, Note_on_c, 1, 81, 100
3, 66480, Note_on_c, 1, 81, 0
3, 66480, Note_on_c, 1, 78, 100
3, 66560, Note_on_c, 1, 78, 0
3, 66560, Note_on_c, 1, 79, 100
3, 66640, Note_on_c, 1, 79, 0
3, 66640, Note_on_c, 1, 81, 100
3, 66720, Note_on_c, 1, 81, 0
3, 66720, Note_on_c, 1, 83, 100
3, 66800, Note_on_c, 1, 83, 0
3, 66800, Note_on_c, 1, 81, 100
3, 66880, Note_on_c, 1, 81, 0
3, 66880, Note_on_c, 1, 83, 100
3, 66960, Note_on_c, 1, 83, 0
3, 66960, Note_on_c, 1, 86, 100
3, 67040, Note_on_c, 1, 86, 0
3, 67040, Note_on_c, 1, 84, 100
3, 67120, Note_on_c, 1, 84, 0
3, 67120, Note_on_c, 1, 83, 100
3, 67200, Note_on_c, 1, 83, 0
3, 67200, Note_on_c, 1, 81, 100
3, 67280, Note_on_c, 1, 81, 0
3, 67280, Note_on_c, 1, 79, 100
3, 67360, Note_on_c, 1, 79, 0
3, 67360, Note_on_c, 1, 78, 100
3, 67440, Note_on_c, 1, 78, 0
3, 67440, Note_on_c, 1, 76, 100
3, 67520, Note_on_c, 1, 76, 0
3, 67520, Note_on_c, 1, 74, 100
3, 67600, Note_on_c, 1, 74, 0
3, 67600, Note_on_c, 1, 72, 100
3, 67680, Note_on_c, 1, 72, 0
3, 67680, Note_on_c, 1, 71, 100
3, 67760, Note_on_c, 1, 71, 0
3, 67760, Note_on_c, 1, 69, 100
3, 67840, Note_on_c, 1, 69, 0
3, 67840, Note_on_c, 1, 67, 100
3, 67920, Note_on_c, 1, 67, 0
3, 67920, Note_on_c, 1, 66, 100
3, 68000, Note_on_c, 1, 66, 0
3, 68000, Note_on_c, 1, 67, 100
3, 68080, Note_on_c, 1, 67, 0
3, 68080, Note_on_c, 1, 62, 100
3, 68160, Note_on_c, 1, 62, 0
3, 68160, Note_on_c, 1, 59, 100
3, 68400, Note_on_c, 1, 59, 0
3, 69120, Note_on_c, 1, 66, 100
3, 69480, Note_on_c, 1, 66, 0
3, 69480, Note_on_c, 1, 64, 100
3, 69600, Note_on_c, 1, 64, 0
3, 69600, Note_on_c, 1, 64, 100
3, 69660, Note_on_c, 1, 64, 0
3, 69660, Note_on_c, 1, 66, 100
3, 70080, Note_on_c, 1, 66, 0
3, 70320, Note_on_c, 1, 62, 100
3, 70560, Note_on_c, 1, 62, 0
3, 70560, Note_on_c, 1, 67, 100
3, 70920, Note_on_c, 1, 67, 0
3, 70920, Note_on_c, 1, 69, 100
3, 71040, Note_on_c, 1, 69, 0
3, 71040, Note_on_c, 1, 69, 100
3, 71100, Note_on_c, 1, 69, 0
3, 71100, Note_on_c, 1, 71, 100
3, 71520, Note_on_c, 1, 71, 0
3, 71760, Note_on_c, 1, 79, 100
3, 72000, Note_on_c, 1, 79, 0
3, 72000, Note_on_c, 1, 76, 100
3, 72360, Note_on_c, 1, 76, 0
3, 72360, Note_on_c, 1, 83, 100
3, 72480, Note_on_c, 1, 83, 0
3, 72480, Note_on_c, 1, 83, 100
3, 72540, Note_on_c, 1, 83, 0
3, 72540, Note_on_c, 1, 81, 100
3, 72960, Note_on_c, 1, 81, 0
3, 73200, Note_on_c, 1, 81, 100
3, 73440, Note_on_c, 1, 81, 0
3, 73440, Note_on_c, 1, 81, 100
3, 73800, Note_on_c, 1, 81, 0
3, 73800, Note_on_c, 1, 78, 100
3, 73920, Note_on_c, 1, 78, 0
3, 73920, Note_on_c, 1, 76, 100
3, 73980, Note_on_c, 1, 76, 0
3, 73980, Note_on_c, 1, 75, 100
3, 74400, Note_on_c, 1, 75, 0
3, 74640, Note_on_c, 1, 78, 100
3, 74880, Note_on_c, 1, 78, 0
3, 74880, Note_on_c, 1, 79, 100
3, 75240, Note_on_c, 1, 79, 0
3, 75240, Note_on_c, 1, 78, 100
3, 75360, Note_on_c, 1, 78, 0
3, 75360, Note_on_c, 1, 78, 100
3, 75420, Note_on_c, 1, 78, 0
3, 75420, Note_on_c, 1, 76, 100
3, 75840, Note_on_c, 1, 76, 0
3, 76080, Note_on_c, 1, 79, 100
3, 76320, Note_on_c, 1, 79, 0
3, 76320, Note_on_c, 1, 79, 100
3, 76800, Note_on_c, 1, 79, 0
3, 76800, Note_on_c, 1, 77, 100
3, 77280, Note_on_c, 1, 77, 0
3, 77520, Note_on_c, 1, 81, 100
3, 77760, Note_on_c, 1, 81, 0
3, 77760, Note_on_c, 1, 81, 100
3, 78120, Note_on_c, 1, 81, 0
3, 78120, Note_on_c, 1, 78, 100
3, 78240, Note_on_c, 1, 78, 0
3, 78240, Note_on_c, 1, 78, 100
3, 78300, Note_on_c, 1, 78, 0
3, 78300, Note_on_c, 1, 75, 100
3, 78720, Note_on_c, 1, 75, 0
3, 78960, Note_on_c, 1, 78, 100
3, 79200, Note_on_c, 1, 78, 0
3, 79200, Note_on_c, 1, 78, 100
3, 79560, Note_on_c, 1, 78, 0
3, 79560, Note_on_c, 1, 75, 100
3, 79680, Note_on_c, 1, 75, 0
3, 79680, Note_on_c, 1, 76, 100
3, 79740, Note_on_c, 1, 76, 0
3, 79740, Note_on_c, 1, 75, 100
3, 79800, Note_on_c, 1, 75, 0
3, 79800, Note_on_c, 1, 76, 100
3, 80160, Note_on_c, 1, 76, 0
3, 81000, Note_on_c, 1, 68, 100
3, 81120, Note_on_c, 1, 68, 0
3, 81120, Note_on_c, 1, 69, 100
3, 81480, Note_on_c, 1, 69, 0
3, 81480, Note_on_c, 1, 71, 100
3, 81600, Note_on_c, 1, 71, 0
3, 81600, Note_on_c, 1, 72, 100
3, 82440, Note_on_c, 1, 72, 0
3, 82440, Note_on_c, 1, 66, 100
3, 82560, Note_on_c, 1, 66, 0
3, 82560, Note_on_c, 1, 67, 100
3, 82920, Note_on_c, 1, 67, 0
3, 82920, Note_on_c, 1, 69, 100
3, 83040, Note_on_c, 1, 69, 0
3, 83040, Note_on_c, 1, 71, 100
3, 83880, Note_on_c, 1, 71, 0
3, 83880, Note_on_c, 1, 64, 100
3, 84000, Note_on_c, 1, 64, 0
3, 84000, Note_on_c, 1, 66, 100
3, 84360, Note_on_c, 1, 66, 0
3, 84360, Note_on_c, 1, 67, 100
3, 84480, Note_on_c, 1, 67, 0
3, 84480, Note_on_c, 1, 69, 100
3, 84840, Note_on_c, 1, 69, 0
3, 84840, Note_on_c, 1, 67, 100
3, 84960, Note_on_c, 1, 67, 0
3, 84960, Note_on_c, 1, 66, 100
3, 85040, Note_on_c, 1, 66, 0
3, 85040, Note_on_c, 1, 67, 100
3, 85120, Note_on_c, 1, 67, 0
3, 85120, Note_on_c, 1, 66, 100
3, 85200, Note_on_c, 1, 66, 0
3, 85200, Note_on_c, 1, 61, 100
3, 85280, Note_on_c, 1, 61, 0
3, 85280, Note_on_c, 1, 62, 100
3, 85360, Note_on_c, 1, 62, 0
3, 85360, Note_on_c, 1, 64, 100
3, 85440, Note_on_c, 1, 64, 0
3, 85440, Note_on_c, 1, 66, 100
3, 85520, Note_on_c, 1, 66, 0
3, 85520, Note_on_c, 1, 64, 100
3, 85600, Note_on_c, 1, 64, 0
3, 85600, Note_on_c, 1, 66, 100
3, 85680, Note_on_c, 1, 66, 0
3, 85680, Note_on_c, 1, 67, 100
3, 85760, Note_on_c, 1, 67, 0
3, 85760, Note_on_c, 1, 66, 100
3, 85840, Note_on_c, 1, 66, 0
3, 85840, Note_on_c, 1, 67, 100
3, 85920, Note_on_c, 1, 67, 0
3, 85920, Note_on_c, 1, 69, 100
3, 86000, Note_on_c, 1, 69, 0
3, 86000, Note_on_c, 1, 67, 100
3, 86080, Note_on_c, 1, 67, 0
3, 86080, Note_on_c, 1, 69, 100
3, 86160, Note_on_c, 1, 69, 0
3, 86160, Note_on_c, 1, 71, 100
3, 86240, Note_on_c, 1, 71, 0
3, 86240, Note_on_c, 1, 67, 100
3, 86320, Note_on_c, 1, 67, 0
3, 86320, Note_on_c, 1, 69, 100
3, 86400, Note_on_c, 1, 69, 0
3, 86400, Note_on_c, 1, 71, 100
3, 86480, Note_on_c, 1, 71, 0
3, 86480, Note_on_c, 1, 72, 100
3, 86560, Note_on_c, 1, 72, 0
3, 86560, Note_on_c, 1, 71, 100
3, 86640, Note_on_c, 1, 71, 0
3, 86640, Note_on_c, 1, 66, 100
3, 86720, Note_on_c, 1, 66, 0
3, 86720, Note_on_c, 1, 67, 100
3, 86800, Note_on_c, 1, 67, 0
3, 86800, Note_on_c, 1, 69, 100
3, 86880, Note_on_c, 1, 69, 0
3, 86880, Note_on_c, 1, 71, 100
3, 86960, Note_on_c, 1, 71, 0
3, 86960, Note_on_c, 1, 69, 100
3, 87040, Note_on_c, 1, 69, 0
3, 87040, Note_on_c, 1, 71, 100
3, 87120, Note_on_c, 1, 71, 0
3, 87120, Note_on_c, 1, 72, 100
3, 87200, Note_on_c, 1, 72, 0
3, 87200, Note_on_c, 1, 71, 100
3, 87280, Note_on_c, 1, 71, 0
3, 87280, Note_on_c, 1, 72, 100
3, 87360, Note_on_c, 1, 72, 0
3, 87360, Note_on_c, 1, 74, 100
3, 87440, Note_on_c, 1, 74, 0
3, 87440, Note_on_c, 1, 72, 100
3, 87520, Note_on_c, 1, 72, 0
3, 87520, Note_on_c, 1, 74, 100
3, 87600, Note_on_c, 1, 74, 0
3, 87600, Note_on_c, 1, 76, 100
3, 87680, Note_on_c, 1, 76, 0
3, 87680, Note_on_c, 1, 72, 100
3, 87760, Note_on_c, 1, 72, 0
3, 87760, Note_on_c, 1, 74, 100
3, 87840, Note_on_c, 1, 74, 0
3, 87840, Note_on_c, 1, 76, 100
3, 87920, Note_on_c, 1, 76, 0
3, 87920, Note_on_c, 1, 77, 100
3, 88000, Note_on_c, 1, 77, 0
3, 88000, Note_on_c, 1, 76, 100
3, 88080, Note_on_c, 1, 76, 0
3, 88080, Note_on_c, 1, 71, 100
3, 88160, Note_on_c, 1, 71, 0
3, 88160, Note_on_c, 1, 72, 100
3, 88240, Note_on_c, 1, 72, 0
3, 88240, Note_on_c, 1, 74, 100
3, 88320, Note_on_c, 1, 74, 0
3, 88320, Note_on_c, 1, 76, 100
3, 88400, Note_on_c, 1, 76, 0
3, 88400, Note_on_c, 1, 74, 100
3, 88480, Note_on_c, 1, 74, 0
3, 88480, Note_on_c, 1, 76, 100
3, 88560, Note_on_c, 1, 76, 0
3, 88560, Note_on_c, 1, 78, 100
3, 88640, Note_on_c, 1, 78, 0
3, 88640, Note_on_c, 1, 76, 100
3, 88720, Note_on_c, 1, 76, 0
3, 88720, Note_on_c, 1, 78, 100
3, 88800, Note_on_c, 1, 78, 0
3, 88800, Note_on_c, 1, 79, 100
3, 88880, Note_on_c, 1, 79, 0
3, 88880, Note_on_c, 1, 78, 100
3, 88960, Note_on_c, 1, 78, 0
3, 88960, Note_on_c, 1, 79, 100
3, 89040, Note_on_c, 1, 79, 0
3, 89040, Note_on_c, 1, 81, 100
3, 89120, Note_on_c, 1, 81, 0
3, 89120, Note_on_c, 1, 78, 100
3, 89200, Note_on_c, 1, 78, 0
3, 89200, Note_on_c, 1, 79, 100
3, 89280, Note_on_c, 1, 79, 0
3, 89280, Note_on_c, 1, 81, 100
3, 89360, Note_on_c, 1, 81, 0
3, 89360, Note_on_c, 1, 83, 100
3, 89440, Note_on_c, 1, 83, 0
3, 89440, Note_on_c, 1, 81, 100
3, 89520, Note_on_c, 1, 81, 0
3, 89520, Note_on_c, 1, 78, 100
3, 89600, Note_on_c, 1, 78, 0
3, 89600, Note_on_c, 1, 79, 100
3, 89680, Note_on_c, 1, 79, 0
3, 89680, Note_on_c, 1, 81, 100
3, 89760, Note_on_c, 1, 81, 0
3, 89760, Note_on_c, 1, 83, 100
3, 89840, Note_on_c, 1, 83, 0
3, 89840, Note_on_c, 1, 81, 100
3, 89920, Note_on_c, 1, 81, 0
3, 89920, Note_on_c, 1, 83, 100
3, 90000, Note_on_c, 1, 83, 0
3, 90000, Note_on_c, 1, 86, 100
3, 90080, Note_on_c, 1, 86, 0
3, 90080, Note_on_c, 1, 84, 100
3, 90160, Note_on_c, 1, 84, 0
3, 90160, Note_on_c, 1, 83, 100
3, 90240, Note_on_c, 1, 83, 0
3, 90240, Note_on_c, 1, 81, 100
3, 90320, Note_on_c, 1, 81, 0
3, 90320, Note_on_c, 1, 79, 100
3, 90400, Note_on_c, 1, 79, 0
3, 90400, Note_on_c, 1, 78, 100
3, 90480, Note_on_c, 1, 78, 0
3, 90480, Note_on_c, 1, 76, 100
3, 90560, Note_on_c, 1, 76, 0
3, 90560, Note_on_c, 1, 74, 100
3, 90640, Note_on_c, 1, 74, 0
3, 90640, Note_on_c, 1, 72, 100
3, 90720, Note_on_c, 1, 72, 0
3, 90720, Note_on_c, 1, 71, 100
3, 90800, Note_on_c, 1, 71, 0
3, 90800, Note_on_c, 1, 69, 100
3, 90880, Note_on_c, 1, 69, 0
3, 90880, Note_on_c, 1, 67, 100
3, 90960, Note_on_c, 1, 67, 0
3, 90960, Note_on_c, 1, 66, 100
3, 91040, Note_on_c, 1, 66, 0
3, 91040, Note_on_c, 1, 67, 100
3, 91120, Note_on_c, 1, 67, 0
3, 91120, Note_on_c, 1, 62, 100
3, 91200, Note_on_c, 1, 62, 0
3, 91200, Note_on_c, 1, 59, 100
3, 91440, Note_on_c, 1, 59, 0
3, 91440, End_track
4, 0, Start_track
4, 0, MIDI_port, 0
4, 0, Title_t, "Johann Sebastian Bach  (1685-1750)"
4, 0, Program_c, 2, 6
4, 0, Control_c, 2, 7, 100
4, 0, Control_c, 2, 10, 54
4, 0, Note_on_c, 2, 67, 100
4, 480, Note_on_c, 2, 67, 0
4, 480, Note_on_c, 2, 62, 100
4, 960, Note_on_c, 2, 62, 0
4, 1200, Note_on_c, 2, 67, 100
4, 1440, Note_on_c, 2, 67, 0
4, 1440, Note_on_c, 2, 67, 100
4, 1800, Note_on_c, 2, 67, 0
4, 1800, Note_on_c, 2, 64, 100
4, 1920, Note_on_c, 2, 64, 0
4, 1920, Note_on_c, 2, 64, 100
4, 1980, Note_on_c, 2, 64, 0
4, 1980, Note_on_c, 2, 66, 100
4, 2400, Note_on_c, 2, 66, 0
4, 2640, Note_on_c, 2, 69, 100
4, 2880, Note_on_c, 2, 69, 0
4, 2880, Note_on_c, 2, 71, 100
4, 3240, Note_on_c, 2, 71, 0
4, 3240, Note_on_c, 2, 67, 100
4, 3360, Note_on_c, 2, 67, 0
4, 3360, Note_on_c, 2, 64, 100
4, 3840, Note_on_c, 2, 64, 0
4, 4080, Note_on_c, 2, 57, 100
4, 4320, Note_on_c, 2, 57, 0
4, 4320, Note_on_c, 2, 62, 100
4, 4800, Note_on_c, 2, 62, 0
4, 4800, Note_on_c, 2, 62, 100
4, 5280, Note_on_c, 2, 62, 0
4, 5520, Note_on_c, 2, 60, 100
4, 5760, Note_on_c, 2, 60, 0
4, 5760, Note_on_c, 2, 59, 100
4, 6120, Note_on_c, 2, 59, 0
4, 6120, Note_on_c, 2, 60, 100
4, 6240, Note_on_c, 2, 60, 0
4, 6240, Note_on_c, 2, 62, 100
4, 6720, Note_on_c, 2, 62, 0
4, 6960, Note_on_c, 2, 55, 100
4, 7200, Note_on_c, 2, 55, 0
4, 7200, Note_on_c, 2, 60, 100
4, 7680, Note_on_c, 2, 60, 0
4, 7680, Note_on_c, 2, 52, 100
4, 8160, Note_on_c, 2, 52, 0
4, 8400, Note_on_c, 2, 55, 100
4, 8640, Note_on_c, 2, 55, 0
4, 8640, Note_on_c, 2, 54, 100
4, 9000, Note_on_c, 2, 54, 0
4, 9000, Note_on_c, 2, 55, 100
4, 9120, Note_on_c, 2, 55, 0
4, 9120, Note_on_c, 2, 57, 100
4, 9600, Note_on_c, 2, 57, 0
4, 9840, Note_on_c, 2, 50, 100
4, 10080, Note_on_c, 2, 50, 0
4, 10080, Note_on_c, 2, 55, 100
4, 10560, Note_on_c, 2, 55, 0
4, 10560, Note_on_c, 2, 43, 100
4, 11040, Note_on_c, 2, 43, 0
4, 11520, Note_on_c, 2, 43, 100
4, 11600, Note_on_c, 2, 43, 0
4, 11600, Note_on_c, 2, 45, 100
4, 11680, Note_on_c, 2, 45, 0
4, 11680, Note_on_c, 2, 43, 100
4, 11760, Note_on_c, 2, 43, 0
4, 11760, Note_on_c, 2, 38, 100
4, 11840, Note_on_c, 2, 38, 0
4, 11840, Note_on_c, 2, 40, 100
4, 11920, Note_on_c, 2, 40, 0
4, 11920, Note_on_c, 2, 42, 100
4, 12000, Note_on_c, 2, 42, 0
4, 12000, Note_on_c, 2, 43, 100
4, 12080, Note_on_c, 2, 43, 0
4, 12080, Note_on_c, 2, 42, 100
4, 12160, Note_on_c, 2, 42, 0
4, 12160, Note_on_c, 2, 43, 100
4, 12240, Note_on_c, 2, 43, 0
4, 12240, Note_on_c, 2, 45, 100
4, 12320, Note_on_c, 2, 45, 0
4, 12320, Note_on_c, 2, 43, 100
4, 12400, Note_on_c, 2, 43, 0
4, 12400, Note_on_c, 2, 45, 100
4, 12480, Note_on_c, 2, 45, 0
4, 12480, Note_on_c, 2, 47, 100
4, 12560, Note_on_c, 2, 47, 0
4, 12560, Note_on_c, 2, 45, 100
4, 12640, Note_on_c, 2, 45, 0
4, 12640, Note_on_c, 2, 47, 100
4, 12720, Note_on_c, 2, 47, 0
4, 12720, Note_on_c, 2, 48, 100
4, 12800, Note_on_c, 2, 48, 0
4, 12800, Note_on_c, 2, 47, 100
4, 12880, Note_on_c, 2, 47, 0
4, 12880, Note_on_c, 2, 49, 100
4, 12960, Note_on_c, 2, 49, 0
4, 12960, Note_on_c, 2, 50, 100
4, 13040, Note_on_c, 2, 50, 0
4, 13040, Note_on_c, 2, 52, 100
4, 13120, Note_on_c, 2, 52, 0
4, 13120, Note_on_c, 2, 50, 100
4, 13200, Note_on_c, 2, 50, 0
4, 13200, Note_on_c, 2, 45, 100
4, 13280, Note_on_c, 2, 45, 0
4, 13280, Note_on_c, 2, 47, 100
4, 13360, Note_on_c, 2, 47, 0
4, 13360, Note_on_c, 2, 49, 100
4, 13440, Note_on_c, 2, 49, 0
4, 13440, Note_on_c, 2, 50, 100
4, 13520, Note_on_c, 2, 50, 0
4, 13520, Note_on_c, 2, 49, 100
4, 13600, Note_on_c, 2, 49, 0
4, 13600, Note_on_c, 2, 50, 100
4, 13680, Note_on_c, 2, 50, 0
4, 13680, Note_on_c, 2, 52, 100
4, 13760, Note_on_c, 2, 52, 0
4, 13760, Note_on_c, 2, 50, 100
4, 13840, Note_on_c, 2, 50, 0
4, 13840, Note_on_c, 2, 52, 100
4, 13920, Note_on_c, 2, 52, 0
4, 13920, Note_on_c, 2, 54, 100
4, 14000, Note_on_c, 2, 54, 0
4, 14000, Note_on_c, 2, 52, 100
4, 14080, Note_on_c, 2, 52, 0
4, 14080, Note_on_c, 2, 54, 100
4, 14160, Note_on_c, 2, 54, 0
4, 14160, Note_on_c, 2, 55, 100
4, 14240, Note_on_c, 2, 55, 0
4, 14240, Note_on_c, 2, 52, 100
4, 14320, Note_on_c, 2, 52, 0
4, 14320, Note_on_c, 2, 54, 100
4, 14400, Note_on_c, 2, 54, 0
4, 14400, Note_on_c, 2, 55, 100
4, 14480, Note_on_c, 2, 55, 0
4, 14480, Note_on_c, 2, 57, 100
4, 14560, Note_on_c, 2, 57, 0
4, 14560, Note_on_c, 2, 55, 100
4, 14640, Note_on_c, 2, 55, 0
4, 14640, Note_on_c, 2, 47, 100
4, 14720, Note_on_c, 2, 47, 0
4, 14720, Note_on_c, 2, 52, 100
4, 14800, Note_on_c, 2, 52, 0
4, 14800, Note_on_c, 2, 54, 100
4, 14880, Note_on_c, 2, 54, 0
4, 14880, Note_on_c, 2, 55, 100
4, 14960, Note_on_c, 2, 55, 0
4, 14960, Note_on_c, 2, 54, 100
4, 15040, Note_on_c, 2, 54, 0
4, 15040, Note_on_c, 2, 55, 100
4, 15120, Note_on_c, 2, 55, 0
4, 15120, Note_on_c, 2, 57, 100
4, 15200, Note_on_c, 2, 57, 0
4, 15200, Note_on_c, 2, 55, 100
4, 15280, Note_on_c, 2, 55, 0
4, 15280, Note_on_c, 2, 57, 100
4, 15360, Note_on_c, 2, 57, 0
4, 15360, Note_on_c, 2, 59, 100
4, 15440, Note_on_c, 2, 59, 0
4, 15440, Note_on_c, 2, 57, 100
4, 15520, Note_on_c, 2, 57, 0
4, 15520, Note_on_c, 2, 59, 100
4, 15600, Note_on_c, 2, 59, 0
4, 15600, Note_on_c, 2, 61, 100
4, 15680, Note_on_c, 2, 61, 0
4, 15680, Note_on_c, 2, 57, 100
4, 15760, Note_on_c, 2, 57, 0
4, 15760, Note_on_c, 2, 59, 100
4, 15840, Note_on_c, 2, 59, 0
4, 15840, Note_on_c, 2, 61, 100
4, 15920, Note_on_c, 2, 61, 0
4, 15920, Note_on_c, 2, 62, 100
4, 16000, Note_on_c, 2, 62, 0
4, 16000, Note_on_c, 2, 61, 100
4, 16080, Note_on_c, 2, 61, 0
4, 16080, Note_on_c, 2, 52, 100
4, 16160, Note_on_c, 2, 52, 0
4, 16160, Note_on_c, 2, 57, 100
4, 16240, Note_on_c, 2, 57, 0
4, 16240, Note_on_c, 2, 59, 100
4, 16320, Note_on_c, 2, 59, 0
4, 16320, Note_on_c, 2, 61, 100
4, 16400, Note_on_c, 2, 61, 0
4, 16400, Note_on_c, 2, 59, 100
4, 16480, Note_on_c, 2, 59, 0
4, 16480, Note_on_c, 2, 61, 100
4, 16560, Note_on_c, 2, 61, 0
4, 16560, Note_on_c, 2, 62, 100
4, 16640, Note_on_c, 2, 62, 0
4, 16640, Note_on_c, 2, 61, 100
4, 16720, Note_on_c, 2, 61, 0
4, 16720, Note_on_c, 2, 62, 100
4, 16800, Note_on_c, 2, 62, 0
4, 16800, Note_on_c, 2, 64, 100
4, 16880, Note_on_c, 2, 64, 0
4, 16880, Note_on_c, 2, 62, 100
4, 16960, Note_on_c, 2, 62, 0
4, 16960, Note_on_c, 2, 64, 100
4, 17040, Note_on_c, 2, 64, 0
4, 17040, Note_on_c, 2, 66, 100
4, 17120, Note_on_c, 2, 66, 0
4, 17120, Note_on_c, 2, 62, 100
4, 17200, Note_on_c, 2, 62, 0
4, 17200, Note_on_c, 2, 64, 100
4, 17280, Note_on_c, 2, 64, 0
4, 17280, Note_on_c, 2, 66, 100
4, 17360, Note_on_c, 2, 66, 0
4, 17360, Note_on_c, 2, 64, 100
4, 17440, Note_on_c, 2, 64, 0
4, 17440, Note_on_c, 2, 66, 100
4, 17520, Note_on_c, 2, 66, 0
4, 17520, Note_on_c, 2, 69, 100
4, 17600, Note_on_c, 2, 69, 0
4, 17600, Note_on_c, 2, 67, 100
4, 17680, Note_on_c, 2, 67, 0
4, 17680, Note_on_c, 2, 69, 100
4, 17760, Note_on_c, 2, 69, 0
4, 17760, Note_on_c, 2, 62, 100
4, 17840, Note_on_c, 2, 62, 0
4, 17840, Note_on_c, 2, 61, 100
4, 17920, Note_on_c, 2, 61, 0
4, 17920, Note_on_c, 2, 62, 100
4, 18000, Note_on_c, 2, 62, 0
4, 18000, Note_on_c, 2, 66, 100
4, 18080, Note_on_c, 2, 66, 0
4, 18080, Note_on_c, 2, 69, 100
4, 18160, Note_on_c, 2, 69, 0
4, 18160, Note_on_c, 2, 71, 100
4, 18240, Note_on_c, 2, 71, 0
4, 18240, Note_on_c, 2, 72, 100
4, 18320, Note_on_c, 2, 72, 0
4, 18320, Note_on_c, 2, 71, 100
4, 18400, Note_on_c, 2, 71, 0
4, 18400, Note_on_c, 2, 72, 100
4, 18480, Note_on_c, 2, 72, 0
4, 18480, Note_on_c, 2, 69, 100
4, 18560, Note_on_c, 2, 69, 0
4, 18560, Note_on_c, 2, 66, 100
4, 18640, Note_on_c, 2, 66, 0
4, 18640, Note_on_c, 2, 69, 100
4, 18720, Note_on_c, 2, 69, 0
4, 18720, Note_on_c, 2, 67, 100
4, 18800, Note_on_c, 2, 67, 0
4, 18800, Note_on_c, 2, 66, 100
4, 18880, Note_on_c, 2, 66, 0
4, 18880, Note_on_c, 2, 67, 100
4, 18960, Note_on_c, 2, 67, 0
4, 18960, Note_on_c, 2, 71, 100
4, 19040, Note_on_c, 2, 71, 0
4, 19040, Note_on_c, 2, 69, 100
4, 19120, Note_on_c, 2, 69, 0
4, 19120, Note_on_c, 2, 71, 100
4, 19200, Note_on_c, 2, 71, 0
4, 19200, Note_on_c, 2, 64, 100
4, 19280, Note_on_c, 2, 64, 0
4, 19280, Note_on_c, 2, 63, 100
4, 19360, Note_on_c, 2, 63, 0
4, 19360, Note_on_c, 2, 64, 100
4, 19440, Note_on_c, 2, 64, 0
4, 19440, Note_on_c, 2, 67, 100
4, 19520, Note_on_c, 2, 67, 0
4, 19520, Note_on_c, 2, 71, 100
4, 19600, Note_on_c, 2, 71, 0
4, 19600, Note_on_c, 2, 73, 100
4, 19680, Note_on_c, 2, 73, 0
4, 19680, Note_on_c, 2, 74, 100
4, 19760, Note_on_c, 2, 74, 0
4, 19760, Note_on_c, 2, 73, 100
4, 19840, Note_on_c, 2, 73, 0
4, 19840, Note_on_c, 2, 74, 100
4, 19920, Note_on_c, 2, 74, 0
4, 19920, Note_on_c, 2, 71, 100
4, 20000, Note_on_c, 2, 71, 0
4, 20000, Note_on_c, 2, 67, 100
4, 20080, Note_on_c, 2, 67, 0
4, 20080, Note_on_c, 2, 71, 100
4, 20160, Note_on_c, 2, 71, 0
4, 20160, Note_on_c, 2, 73, 100
4, 20240, Note_on_c, 2, 73, 0
4, 20240, Note_on_c, 2, 71, 100
4, 20320, Note_on_c, 2, 71, 0
4, 20320, Note_on_c, 2, 73, 100
4, 20400, Note_on_c, 2, 73, 0
4, 20400, Note_on_c, 2, 76, 100
4, 20480, Note_on_c, 2, 76, 0
4, 20480, Note_on_c, 2, 74, 100
4, 20560, Note_on_c, 2, 74, 0
4, 20560, Note_on_c, 2, 76, 100
4, 20640, Note_on_c, 2, 76, 0
4, 20640, Note_on_c, 2, 69, 100
4, 20720, Note_on_c, 2, 69, 0
4, 20720, Note_on_c, 2, 68, 100
4, 20800, Note_on_c, 2, 68, 0
4, 20800, Note_on_c, 2, 69, 100
4, 20880, Note_on_c, 2, 69, 0
4, 20880, Note_on_c, 2, 73, 100
4, 20960, Note_on_c, 2, 73, 0
4, 20960, Note_on_c, 2, 76, 100
4, 21040, Note_on_c, 2, 76, 0
4, 21040, Note_on_c, 2, 78, 100
4, 21120, Note_on_c, 2, 78, 0
4, 21120, Note_on_c, 2, 79, 100
4, 21200, Note_on_c, 2, 79, 0
4, 21200, Note_on_c, 2, 78, 100
4, 21280, Note_on_c, 2, 78, 0
4, 21280, Note_on_c, 2, 79, 100
4, 21360, Note_on_c, 2, 79, 0
4, 21360, Note_on_c, 2, 76, 100
4, 21440, Note_on_c, 2, 76, 0
4, 21440, Note_on_c, 2, 73, 100
4, 21520, Note_on_c, 2, 73, 0
4, 21520, Note_on_c, 2, 76, 100
4, 21600, Note_on_c, 2, 76, 0
4, 21600, Note_on_c, 2, 78, 100
4, 21680, Note_on_c, 2, 78, 0
4, 21680, Note_on_c, 2, 76, 100
4, 21760, Note_on_c, 2, 76, 0
4, 21760, Note_on_c, 2, 78, 100
4, 21840, Note_on_c, 2, 78, 0
4, 21840, Note_on_c, 2, 81, 100
4, 21920, Note_on_c, 2, 81, 0
4, 21920, Note_on_c, 2, 79, 100
4, 22000, Note_on_c, 2, 79, 0
4, 22000, Note_on_c, 2, 81, 100
4, 22080, Note_on_c, 2, 81, 0
4, 22080, Note_on_c, 2, 74, 100
4, 22160, Note_on_c, 2, 74, 0
4, 22160, Note_on_c, 2, 73, 100
4, 22240, Note_on_c, 2, 73, 0
4, 22240, Note_on_c, 2, 74, 100
4, 22320, Note_on_c, 2, 74, 0
4, 22320, Note_on_c, 2, 78, 100
4, 22400, Note_on_c, 2, 78, 0
4, 22400, Note_on_c, 2, 81, 100
4, 22480, Note_on_c, 2, 81, 0
4, 22480, Note_on_c, 2, 85, 100
4, 22560, Note_on_c, 2, 85, 0
4, 22560, Note_on_c, 2, 86, 100
4, 22620, Note_on_c, 2, 86, 0
4, 22620, Note_on_c, 2, 85, 100
4, 22680, Note_on_c, 2, 85, 0
4, 22680, Note_on_c, 2, 86, 100
4, 23040, Note_on_c, 2, 86, 0
4, 23040, Note_on_c, 2, 67, 100
4, 23520, Note_on_c, 2, 67, 0
4, 23520, Note_on_c, 2, 62, 100
4, 24000, Note_on_c, 2, 62, 0
4, 24240, Note_on_c, 2, 67, 100
4, 24480, Note_on_c, 2, 67, 0
4, 24480, Note_on_c, 2, 67, 100
4, 24840, Note_on_c, 2, 67, 0
4, 24840, Note_on_c, 2, 64, 100
4, 24960, Note_on_c, 2, 64, 0
4, 24960, Note_on_c, 2, 64, 100
4, 25020, Note_on_c, 2, 64, 0
4, 25020, Note_on_c, 2, 66, 100
4, 25440, Note_on_c, 2, 66, 0
4, 25680, Note_on_c, 2, 69, 100
4, 25920, Note_on_c, 2, 69, 0
4, 25920, Note_on_c, 2, 71, 100
4, 26280, Note_on_c, 2, 71, 0
4, 26280, Note_on_c, 2, 67, 100
4, 26400, Note_on_c, 2, 67, 0
4, 26400, Note_on_c, 2, 64, 100
4, 26880, Note_on_c, 2, 64, 0
4, 27120, Note_on_c, 2, 57, 100
4, 27360, Note_on_c, 2, 57, 0
4, 27360, Note_on_c, 2, 62, 100
4, 27840, Note_on_c, 2, 62, 0
4, 27840, Note_on_c, 2, 62, 100
4, 28320, Note_on_c, 2, 62, 0
4, 28560, Note_on_c, 2, 60, 100
4, 28800, Note_on_c, 2, 60, 0
4, 28800, Note_on_c, 2, 59, 100
4, 29160, Note_on_c, 2, 59, 0
4, 29160, Note_on_c, 2, 60, 100
4, 29280, Note_on_c, 2, 60, 0
4, 29280, Note_on_c, 2, 62, 100
4, 29760, Note_on_c, 2, 62, 0
4, 30000, Note_on_c, 2, 55, 100
4, 30240, Note_on_c, 2, 55, 0
4, 30240, Note_on_c, 2, 60, 100
4, 30720, Note_on_c, 2, 60, 0
4, 30720, Note_on_c, 2, 52, 100
4, 31200, Note_on_c, 2, 52, 0
4, 31440, Note_on_c, 2, 55, 100
4, 31680, Note_on_c, 2, 55, 0
4, 31680, Note_on_c, 2, 54, 100
4, 32040, Note_on_c, 2, 54, 0
4, 32040, Note_on_c, 2, 55, 100
4, 32160, Note_on_c, 2, 55, 0
4, 32160, Note_on_c, 2, 57, 100
4, 32640, Note_on_c, 2, 57, 0
4, 32880, Note_on_c, 2, 50, 100
4, 33120, Note_on_c, 2, 50, 0
4, 33120, Note_on_c, 2, 55, 100
4, 33600, Note_on_c, 2, 55, 0
4, 33600, Note_on_c, 2, 43, 100
4, 34080, Note_on_c, 2, 43, 0
4, 34560, Note_on_c, 2, 43, 100
4, 34640, Note_on_c, 2, 43, 0
4, 34640, Note_on_c, 2, 45, 100
4, 34720, Note_on_c, 2, 45, 0
4, 34720, Note_on_c, 2, 43, 100
4, 34800, Note_on_c, 2, 43, 0
4, 34800, Note_on_c, 2, 38, 100
4, 34880, Note_on_c, 2, 38, 0
4, 34880, Note_on_c, 2, 40, 100
4, 34960, Note_on_c, 2, 40, 0
4, 34960, Note_on_c, 2, 42, 100
4, 35040, Note_on_c, 2, 42, 0
4, 35040, Note_on_c, 2, 43, 100
4, 35120, Note_on_c, 2, 43, 0
4, 35120, Note_on_c, 2, 42, 100
4, 35200, Note_on_c, 2, 42, 0
4, 35200, Note_on_c, 2, 43, 100
4, 35280, Note_on_c, 2, 43, 0
4, 35280, Note_on_c, 2, 45, 100
4, 35360, Note_on_c, 2, 45, 0
4, 35360, Note_on_c, 2, 43, 100
4, 35440, Note_on_c, 2, 43, 0
4, 35440, Note_on_c, 2, 45, 100
4, 35520, Note_on_c, 2, 45, 0
4, 35520, Note_on_c, 2, 47, 100
4, 35600, Note_on_c, 2, 47, 0
4, 35600, Note_on_c, 2, 45, 100
4, 35680, Note_on_c, 2, 45, 0
4, 35680, Note_on_c, 2, 47, 100
4, 35760, Note_on_c, 2, 47, 0
4, 35760, Note_on_c, 2, 48, 100
4, 35840, Note_on_c, 2, 48, 0
4, 35840, Note_on_c, 2, 47, 100
4, 35920, Note_on_c, 2, 47, 0
4, 35920, Note_on_c, 2, 49, 100
4, 36000, Note_on_c, 2, 49, 0
4, 36000, Note_on_c, 2, 50, 100
4, 36080, Note_on_c, 2, 50, 0
4, 36080, Note_on_c, 2, 52, 100
4, 36160, Note_on_c, 2, 52, 0
4, 36160, Note_on_c, 2, 50, 100
4, 36240, Note_on_c, 2, 50, 0
4, 36240, Note_on_c, 2, 45, 100
4, 36320, Note_on_c, 2, 45, 0
4, 36320, Note_on_c, 2, 47, 100
4, 36400, Note_on_c, 2, 47, 0
4, 36400, Note_on_c, 2, 49, 100
4, 36480, Note_on_c, 2, 49, 0
4, 36480, Note_on_c, 2, 50, 100
4, 36560, Note_on_c, 2, 50, 0
4, 36560, Note_on_c, 2, 49, 100
4, 36640, Note_on_c, 2, 49, 0
4, 36640, Note_on_c, 2, 50, 100
4, 36720, Note_on_c, 2, 50, 0
4, 36720, Note_on_c, 2, 52, 100
4, 36800, Note_on_c, 2, 52, 0
4, 36800, Note_on_c, 2, 50, 100
4, 36880, Note_on_c, 2, 50, 0
4, 36880, Note_on_c, 2, 52, 100
4, 36960, Note_on_c, 2, 52, 0
4, 36960, Note_on_c, 2, 54, 100
4, 37040, Note_on_c, 2, 54, 0
4, 37040, Note_on_c, 2, 52, 100
4, 37120, Note_on_c, 2, 52, 0
4, 37120, Note_on_c, 2, 54, 100
4, 37200, Note_on_c, 2, 54, 0
4, 37200, Note_on_c, 2, 55, 100
4, 37280, Note_on_c, 2, 55, 0
4, 37280, Note_on_c, 2, 52, 100
4, 37360, Note_on_c, 2, 52, 0
4, 37360, Note_on_c, 2, 54, 100
4, 37440, Note_on_c, 2, 54, 0
4, 37440, Note_on_c, 2, 55, 100
4, 37520, Note_on_c, 2, 55, 0
4, 37520, Note_on_c, 2, 57, 100
4, 37600, Note_on_c, 2, 57, 0
4, 37600, Note_on_c, 2, 55, 100
4, 37680, Note_on_c, 2, 55, 0
4, 37680, Note_on_c, 2, 47, 100
4, 37760, Note_on_c, 2, 47, 0
4, 37760, Note_on_c, 2, 52, 100
4, 37840, Note_on_c, 2, 52, 0
4, 37840, Note_on_c, 2, 54, 100
4, 37920, Note_on_c, 2, 54, 0
4, 37920, Note_on_c, 2, 55, 100
4, 38000, Note_on_c, 2, 55, 0
4, 38000, Note_on_c, 2, 54, 100
4, 38080, Note_on_c, 2, 54, 0
4, 38080, Note_on_c, 2, 55, 100
4, 38160, Note_on_c, 2, 55, 0
4, 38160, Note_on_c, 2, 57, 100
4, 38240, Note_on_c, 2, 57, 0
4, 38240, Note_on_c, 2, 55, 100
4, 38320, Note_on_c, 2, 55, 0
4, 38320, Note_on_c, 2, 57, 100
4, 38400, Note_on_c, 2, 57, 0
4, 38400, Note_on_c, 2, 59, 100
4, 38480, Note_on_c, 2, 59, 0
4, 38480, Note_on_c, 2, 57, 100
4, 38560, Note_on_c, 2, 57, 0
4, 38560, Note_on_c, 2, 59, 100
4, 38640, Note_on_c, 2, 59, 0
4, 38640, Note_on_c, 2, 61, 100
4, 38720, Note_on_c, 2, 61, 0
4, 38720, Note_on_c, 2, 57, 100
4, 38800, Note_on_c, 2, 57, 0
4, 38800, Note_on_c, 2, 59, 100
4, 38880, Note_on_c, 2, 59, 0
4, 38880, Note_on_c, 2, 61, 100
4, 38960, Note_on_c, 2, 61, 0
4, 38960, Note_on_c, 2, 62, 100
4, 39040, Note_on_c, 2, 62, 0
4, 39040, Note_on_c, 2, 61, 100
4, 39120, Note_on_c, 2, 61, 0
4, 39120, Note_on_c, 2, 52, 100
4, 39200, Note_on_c, 2, 52, 0
4, 39200, Note_on_c, 2, 57, 100
4, 39280, Note_on_c, 2, 57, 0
4, 39280, Note_on_c, 2, 59, 100
4, 39360, Note_on_c, 2, 59, 0
4, 39360, Note_on_c, 2, 61, 100
4, 39440, Note_on_c, 2, 61, 0
4, 39440, Note_on_c, 2, 59, 100
4, 39520, Note_on_c, 2, 59, 0
4, 39520, Note_on_c, 2, 61, 100
4, 39600, Note_on_c, 2, 61, 0
4, 39600, Note_on_c, 2, 62, 100
4, 39680, Note_on_c, 2, 62, 0
4, 39680, Note_on_c, 2, 61, 100
4, 39760, Note_on_c, 2, 61, 0
4, 39760, Note_on_c, 2, 62, 100
4, 39840, Note_on_c, 2, 62, 0
4, 39840, Note_on_c, 2, 64, 100
4, 39920, Note_on_c, 2, 64, 0
4, 39920, Note_on_c, 2, 62, 100
4, 40000, Note_on_c, 2, 62, 0
4, 40000, Note_on_c, 2, 64, 100
4, 40080, Note_on_c, 2, 64, 0
4, 40080, Note_on_c, 2, 66, 100
4, 40160, Note_on_c, 2, 66, 0
4, 40160, Note_on_c, 2, 62, 100
4, 40240, Note_on_c, 2, 62, 0
4, 40240, Note_on_c, 2, 64, 100
4, 40320, Note_on_c, 2, 64, 0
4, 40320, Note_on_c, 2, 66, 100
4, 40400, Note_on_c, 2, 66, 0
4, 40400, Note_on_c, 2, 64, 100
4, 40480, Note_on_c, 2, 64, 0
4, 40480, Note_on_c, 2, 66, 100
4, 40560, Note_on_c, 2, 66, 0
4, 40560, Note_on_c, 2, 69, 100
4, 40640, Note_on_c, 2, 69, 0
4, 40640, Note_on_c, 2, 67, 100
4, 40720, Note_on_c, 2, 67, 0
4, 40720, Note_on_c, 2, 69, 100
4, 40800, Note_on_c, 2, 69, 0
4, 40800, Note_on_c, 2, 62, 100
4, 40880, Note_on_c, 2, 62, 0
4, 40880, Note_on_c, 2, 61, 100
4, 40960, Note_on_c, 2, 61, 0
4, 40960, Note_on_c, 2, 62, 100
4, 41040, Note_on_c, 2, 62, 0
4, 41040, Note_on_c, 2, 66, 100
4, 41120, Note_on_c, 2, 66, 0
4, 41120, Note_on_c, 2, 69, 100
4, 41200, Note_on_c, 2, 69, 0
4, 41200, Note_on_c, 2, 71, 100
4, 41280, Note_on_c, 2, 71, 0
4, 41280, Note_on_c, 2, 72, 100
4, 41360, Note_on_c, 2, 72, 0
4, 41360, Note_on_c, 2, 71, 100
4, 41440, Note_on_c, 2, 71, 0
4, 41440, Note_on_c, 2, 72, 100
4, 41520, Note_on_c, 2, 72, 0
4, 41520, Note_on_c, 2, 69, 100
4, 41600, Note_on_c, 2, 69, 0
4, 41600, Note_on_c, 2, 66, 100
4, 41680, Note_on_c, 2, 66, 0
4, 41680, Note_on_c, 2, 69, 100
4, 41760, Note_on_c, 2, 69, 0
4, 41760, Note_on_c, 2, 67, 100
4, 41840, Note_on_c, 2, 67, 0
4, 41840, Note_on_c, 2, 66, 100
4, 41920, Note_on_c, 2, 66, 0
4, 41920, Note_on_c, 2, 67, 100
4, 42000, Note_on_c, 2, 67, 0
4, 42000, Note_on_c, 2, 71, 100
4, 42080, Note_on_c, 2, 71, 0
4, 42080, Note_on_c, 2, 69, 100
4, 42160, Note_on_c, 2, 69, 0
4, 42160, Note_on_c, 2, 71, 100
4, 42240, Note_on_c, 2, 71, 0
4, 42240, Note_on_c, 2, 64, 100
4, 42320, Note_on_c, 2, 64, 0
4, 42320, Note_on_c, 2, 63, 100
4, 42400, Note_on_c, 2, 63, 0
4, 42400, Note_on_c, 2, 64, 100
4, 42480, Note_on_c, 2, 64, 0
4, 42480, Note_on_c, 2, 67, 100
4, 42560, Note_on_c, 2, 67, 0
4, 42560, Note_on_c, 2, 71, 100
4, 42640, Note_on_c, 2, 71, 0
4, 42640, Note_on_c, 2, 73, 100
4, 42720, Note_on_c, 2, 73, 0
4, 42720, Note_on_c, 2, 74, 100
4, 42800, Note_on_c, 2, 74, 0
4, 42800, Note_on_c, 2, 73, 100
4, 42880, Note_on_c, 2, 73, 0
4, 42880, Note_on_c, 2, 74, 100
4, 42960, Note_on_c, 2, 74, 0
4, 42960, Note_on_c, 2, 71, 100
4, 43040, Note_on_c, 2, 71, 0
4, 43040, Note_on_c, 2, 67, 100
4, 43120, Note_on_c, 2, 67, 0
4, 43120, Note_on_c, 2, 71, 100
4, 43200, Note_on_c, 2, 71, 0
4, 43200, Note_on_c, 2, 73, 100
4, 43280, Note_on_c, 2, 73, 0
4, 43280, Note_on_c, 2, 71, 100
4, 43360, Note_on_c, 2, 71, 0
4, 43360, Note_on_c, 2, 73, 100
4, 43440, Note_on_c, 2, 73, 0
4, 43440, Note_on_c, 2, 76, 100
4, 43520, Note_on_c, 2, 76, 0
4, 43520, Note_on_c, 2, 74, 100
4, 43600, Note_on_c, 2, 74, 0
4, 43600, Note_on_c, 2, 76, 100
4, 43680, Note_on_c, 2, 76, 0
4, 43680, Note_on_c, 2, 69, 100
4, 43760, Note_on_c, 2, 69, 0
4, 43760, Note_on_c, 2, 68, 100
4, 43840, Note_on_c, 2, 68, 0
4, 43840, Note_on_c, 2, 69, 100
4, 43920, Note_on_c, 2, 69, 0
4, 43920, Note_on_c, 2, 73, 100
4, 44000, Note_on_c, 2, 73, 0
4, 44000, Note_on_c, 2, 76, 100
4, 44080, Note_on_c, 2, 76, 0
4, 44080, Note_on_c, 2, 78, 100
4, 44160, Note_on_c, 2, 78, 0
4, 44160, Note_on_c, 2, 79, 100
4, 44240, Note_on_c, 2, 79, 0
4, 44240, Note_on_c, 2, 78, 100
4, 44320, Note_on_c, 2, 78, 0
4, 44320, Note_on_c, 2, 79, 100
4, 44400, Note_on_c, 2, 79, 0
4, 44400, Note_on_c, 2, 76, 100
4, 44480, Note_on_c, 2, 76, 0
4, 44480, Note_on_c, 2, 73, 100
4, 44560, Note_on_c, 2, 73, 0
4, 44560, Note_on_c, 2, 76, 100
4, 44640, Note_on_c, 2, 76, 0
4, 44640, Note_on_c, 2, 78, 100
4, 44720, Note_on_c, 2, 78, 0
4, 44720, Note_on_c, 2, 76, 100
4, 44800, Note_on_c, 2, 76, 0
4, 44800, Note_on_c, 2, 78, 100
4, 44880, Note_on_c, 2, 78, 0
4, 44880, Note_on_c, 2, 81, 100
4, 44960, Note_on_c, 2, 81, 0
4, 44960, Note_on_c, 2, 79, 100
4, 45040, Note_on_c, 2, 79, 0
4, 45040, Note_on_c, 2, 81, 100
4, 45120, Note_on_c, 2, 81, 0
4, 45120, Note_on_c, 2, 74, 100
4, 45200, Note_on_c, 2, 74, 0
4, 45200, Note_on_c, 2, 73, 100
4, 45280, Note_on_c, 2, 73, 0
4, 45280, Note_on_c, 2, 74, 100
4, 45360, Note_on_c, 2, 74, 0
4, 45360, Note_on_c, 2, 78, 100
4, 45440, Note_on_c, 2, 78, 0
4, 45440, Note_on_c, 2, 81, 100
4, 45520, Note_on_c, 2, 81, 0
4, 45520, Note_on_c, 2, 85, 100
4, 45600, Note_on_c, 2, 85, 0
4, 45600, Note_on_c, 2, 86, 100
4, 45660, Note_on_c, 2, 86, 0
4, 45660, Note_on_c, 2, 85, 100
4, 45720, Note_on_c, 2, 85, 0
4, 45720, Note_on_c, 2, 86, 100
4, 46080, Note_on_c, 2, 86, 0
4, 46080, Note_on_c, 2, 62, 100
4, 46560, Note_on_c, 2, 62, 0
4, 46560, Note_on_c, 2, 60, 100
4, 47040, Note_on_c, 2, 60, 0
4, 47280, Note_on_c, 2, 60, 100
4, 47520, Note_on_c, 2, 60, 0
4, 47520, Note_on_c, 2, 59, 100
4, 47880, Note_on_c, 2, 59, 0
4, 47880, Note_on_c, 2, 62, 100
4, 48000, Note_on_c, 2, 62, 0
4, 48000, Note_on_c, 2, 67, 100
4, 48480, Note_on_c, 2, 67, 0
4, 48720, Note_on_c, 2, 74, 100
4, 48960, Note_on_c, 2, 74, 0
4, 48960, Note_on_c, 2, 73, 100
4, 49440, Note_on_c, 2, 73, 0
4, 49440, Note_on_c, 2, 75, 100
4, 49920, Note_on_c, 2, 75, 0
4, 50160, Note_on_c, 2, 76, 100
4, 50400, Note_on_c, 2, 76, 0
4, 50400, Note_on_c, 2, 75, 100
4, 50880, Note_on_c, 2, 75, 0
4, 50880, Note_on_c, 2, 66, 100
4, 51360, Note_on_c, 2, 66, 0
4, 51600, Note_on_c, 2, 75, 100
4, 51840, Note_on_c, 2, 75, 0
4, 51840, Note_on_c, 2, 76, 100
4, 52320, Note_on_c, 2, 76, 0
4, 52320, Note_on_c, 2, 71, 100
4, 52800, Note_on_c, 2, 71, 0
4, 53040, Note_on_c, 2, 71, 100
4, 53280, Note_on_c, 2, 71, 0
4, 53280, Note_on_c, 2, 69, 100
4, 53640, Note_on_c, 2, 69, 0
4, 53640, Note_on_c, 2, 71, 100
4, 53760, Note_on_c, 2, 71, 0
4, 53760, Note_on_c, 2, 71, 100
4, 53820, Note_on_c, 2, 71, 0
4, 53820, Note_on_c, 2, 72, 100
4, 54240, Note_on_c, 2, 72, 0
4, 54480, Note_on_c, 2, 72, 100
4, 54720, Note_on_c, 2, 72, 0
4, 54720, Note_on_c, 2, 71, 100
4, 55200, Note_on_c, 2, 71, 0
4, 55200, Note_on_c, 2, 69, 100
4, 55680, Note_on_c, 2, 69, 0
4, 55920, Note_on_c, 2, 69, 100
4, 56160, Note_on_c, 2, 69, 0
4, 56160, Note_on_c, 2, 69, 100
4, 56520, Note_on_c, 2, 69, 0
4, 56520, Note_on_c, 2, 66, 100
4, 56640, Note_on_c, 2, 66, 0
4, 56640, Note_on_c, 2, 67, 100
4, 56700, Note_on_c, 2, 67, 0
4, 56700, Note_on_c, 2, 66, 100
4, 56760, Note_on_c, 2, 66, 0
4, 56760, Note_on_c, 2, 67, 100
4, 57120, Note_on_c, 2, 67, 0
4, 57200, Note_on_c, 2, 52, 100
4, 57280, Note_on_c, 2, 52, 0
4, 57280, Note_on_c, 2, 54, 100
4, 57360, Note_on_c, 2, 54, 0
4, 57360, Note_on_c, 2, 55, 100
4, 57440, Note_on_c, 2, 55, 0
4, 57440, Note_on_c, 2, 57, 100
4, 57520, Note_on_c, 2, 57, 0
4, 57520, Note_on_c, 2, 59, 100
4, 57600, Note_on_c, 2, 59, 0
4, 57600, Note_on_c, 2, 60, 100
4, 57680, Note_on_c, 2, 60, 0
4, 57680, Note_on_c, 2, 59, 100
4, 57760, Note_on_c, 2, 59, 0
4, 57760, Note_on_c, 2, 60, 100
4, 57840, Note_on_c, 2, 60, 0
4, 57840, Note_on_c, 2, 65, 100
4, 57920, Note_on_c, 2, 65, 0
4, 57920, Note_on_c, 2, 64, 100
4, 58000, Note_on_c, 2, 64, 0
4, 58000, Note_on_c, 2, 62, 100
4, 58080, Note_on_c, 2, 62, 0
4, 58080, Note_on_c, 2, 60, 100
4, 58160, Note_on_c, 2, 60, 0
4, 58160, Note_on_c, 2, 62, 100
4, 58240, Note_on_c, 2, 62, 0
4, 58240, Note_on_c, 2, 60, 100
4, 58320, Note_on_c, 2, 60, 0
4, 58320, Note_on_c, 2, 59, 100
4, 58400, Note_on_c, 2, 59, 0
4, 58400, Note_on_c, 2, 60, 100
4, 58480, Note_on_c, 2, 60, 0
4, 58480, Note_on_c, 2, 59, 100
4, 58560, Note_on_c, 2, 59, 0
4, 58560, Note_on_c, 2, 57, 100
4, 58640, Note_on_c, 2, 57, 0
4, 58640, Note_on_c, 2, 59, 100
4, 58720, Note_on_c, 2, 59, 0
4, 58720, Note_on_c, 2, 57, 100
4, 58800, Note_on_c, 2, 57, 0
4, 58800, Note_on_c, 2, 55, 100
4, 58880, Note_on_c, 2, 55, 0
4, 58880, Note_on_c, 2, 57, 100
4, 58960, Note_on_c, 2, 57, 0
4, 58960, Note_on_c, 2, 54, 100
4, 59040, Note_on_c, 2, 54, 0
4, 59040, Note_on_c, 2, 59, 100
4, 59120, Note_on_c, 2, 59, 0
4, 59120, Note_on_c, 2, 57, 100
4, 59200, Note_on_c, 2, 57, 0
4, 59200, Note_on_c, 2, 59, 100
4, 59280, Note_on_c, 2, 59, 0
4, 59280, Note_on_c, 2, 64, 100
4, 59360, Note_on_c, 2, 64, 0
4, 59360, Note_on_c, 2, 62, 100
4, 59440, Note_on_c, 2, 62, 0
4, 59440, Note_on_c, 2, 60, 100
4, 59520, Note_on_c, 2, 60, 0
4, 59520, Note_on_c, 2, 59, 100
4, 59600, Note_on_c, 2, 59, 0
4, 59600, Note_on_c, 2, 60, 100
4, 59680, Note_on_c, 2, 60, 0
4, 59680, Note_on_c, 2, 59, 100
4, 59760, Note_on_c, 2, 59, 0
4, 59760, Note_on_c, 2, 57, 100
4, 59840, Note_on_c, 2, 57, 0
4, 59840, Note_on_c, 2, 59, 100
4, 59920, Note_on_c, 2, 59, 0
4, 59920, Note_on_c, 2, 57, 100
4, 60000, Note_on_c, 2, 57, 0
4, 60000, Note_on_c, 2, 55, 100
4, 60080, Note_on_c, 2, 55, 0
4, 60080, Note_on_c, 2, 57, 100
4, 60160, Note_on_c, 2, 57, 0
4, 60160, Note_on_c, 2, 55, 100
4, 60240, Note_on_c, 2, 55, 0
4, 60240, Note_on_c, 2, 54, 100
4, 60320, Note_on_c, 2, 54, 0
4, 60320, Note_on_c, 2, 55, 100
4, 60400, Note_on_c, 2, 55, 0
4, 60400, Note_on_c, 2, 52, 100
4, 60480, Note_on_c, 2, 52, 0
4, 60480, Note_on_c, 2, 57, 100
4, 60560, Note_on_c, 2, 57, 0
4, 60560, Note_on_c, 2, 55, 100
4, 60640, Note_on_c, 2, 55, 0
4, 60640, Note_on_c, 2, 57, 100
4, 60720, Note_on_c, 2, 57, 0
4, 60720, Note_on_c, 2, 62, 100
4, 60800, Note_on_c, 2, 62, 0
4, 60800, Note_on_c, 2, 60, 100
4, 60880, Note_on_c, 2, 60, 0
4, 60880, Note_on_c, 2, 59, 100
4, 60960, Note_on_c, 2, 59, 0
4, 60960, Note_on_c, 2, 57, 100
4, 61040, Note_on_c, 2, 57, 0
4, 61040, Note_on_c, 2, 59, 100
4, 61120, Note_on_c, 2, 59, 0
4, 61120, Note_on_c, 2, 57, 100
4, 61200, Note_on_c, 2, 57, 0
4, 61200, Note_on_c, 2, 55, 100
4, 61280, Note_on_c, 2, 55, 0
4, 61280, Note_on_c, 2, 57, 100
4, 61360, Note_on_c, 2, 57, 0
4, 61360, Note_on_c, 2, 55, 100
4, 61440, Note_on_c, 2, 55, 0
4, 61440, Note_on_c, 2, 54, 100
4, 61520, Note_on_c, 2, 54, 0
4, 61520, Note_on_c, 2, 55, 100
4, 61600, Note_on_c, 2, 55, 0
4, 61600, Note_on_c, 2, 54, 100
4, 61680, Note_on_c, 2, 54, 0
4, 61680, Note_on_c, 2, 52, 100
4, 61760, Note_on_c, 2, 52, 0
4, 61760, Note_on_c, 2, 54, 100
4, 61840, Note_on_c, 2, 54, 0
4, 61840, Note_on_c, 2, 52, 100
4, 61920, Note_on_c, 2, 52, 0
4, 61920, Note_on_c, 2, 50, 100
4, 62000, Note_on_c, 2, 50, 0
4, 62000, Note_on_c, 2, 49, 100
4, 62080, Note_on_c, 2, 49, 0
4, 62080, Note_on_c, 2, 50, 100
4, 62160, Note_on_c, 2, 50, 0
4, 62160, Note_on_c, 2, 55, 100
4, 62240, Note_on_c, 2, 55, 0
4, 62240, Note_on_c, 2, 54, 100
4, 62320, Note_on_c, 2, 54, 0
4, 62320, Note_on_c, 2, 52, 100
4, 62400, Note_on_c, 2, 52, 0
4, 62400, Note_on_c, 2, 50, 100
4, 62480, Note_on_c, 2, 50, 0
4, 62480, Note_on_c, 2, 52, 100
4, 62560, Note_on_c, 2, 52, 0
4, 62560, Note_on_c, 2, 50, 100
4, 62640, Note_on_c, 2, 50, 0
4, 62640, Note_on_c, 2, 48, 100
4, 62720, Note_on_c, 2, 48, 0
4, 62720, Note_on_c, 2, 50, 100
4, 62800, Note_on_c, 2, 50, 0
4, 62800, Note_on_c, 2, 48, 100
4, 62880, Note_on_c, 2, 48, 0
4, 62880, Note_on_c, 2, 47, 100
4, 62960, Note_on_c, 2, 47, 0
4, 62960, Note_on_c, 2, 48, 100
4, 63040, Note_on_c, 2, 48, 0
4, 63040, Note_on_c, 2, 47, 100
4, 63120, Note_on_c, 2, 47, 0
4, 63120, Note_on_c, 2, 45, 100
4, 63200, Note_on_c, 2, 45, 0
4, 63200, Note_on_c, 2, 47, 100
4, 63280, Note_on_c, 2, 47, 0
4, 63280, Note_on_c, 2, 45, 100
4, 63360, Note_on_c, 2, 45, 0
4, 63360, Note_on_c, 2, 43, 100
4, 63440, Note_on_c, 2, 43, 0
4, 63440, Note_on_c, 2, 42, 100
4, 63520, Note_on_c, 2, 42, 0
4, 63520, Note_on_c, 2, 43, 100
4, 63600, Note_on_c, 2, 43, 0
4, 63600, Note_on_c, 2, 48, 100
4, 63680, Note_on_c, 2, 48, 0
4, 63680, Note_on_c, 2, 47, 100
4, 63760, Note_on_c, 2, 47, 0
4, 63760, Note_on_c, 2, 45, 100
4, 63840, Note_on_c, 2, 45, 0
4, 63840, Note_on_c, 2, 43, 100
4, 63920, Note_on_c, 2, 43, 0
4, 63920, Note_on_c, 2, 45, 100
4, 64000, Note_on_c, 2, 45, 0
4, 64000, Note_on_c, 2, 43, 100
4, 64080, Note_on_c, 2, 43, 0
4, 64080, Note_on_c, 2, 41, 100
4, 64160, Note_on_c, 2, 41, 0
4, 64160, Note_on_c, 2, 43, 100
4, 64240, Note_on_c, 2, 43, 0
4, 64240, Note_on_c, 2, 41, 100
4, 64320, Note_on_c, 2, 41, 0
4, 64320, Note_on_c, 2, 40, 100
4, 64400, Note_on_c, 2, 40, 0
4, 64400, Note_on_c, 2, 41, 100
4, 64480, Note_on_c, 2, 41, 0
4, 64480, Note_on_c, 2, 40, 100
4, 64560, Note_on_c, 2, 40, 0
4, 64560, Note_on_c, 2, 38, 100
4, 64640, Note_on_c, 2, 38, 0
4, 64640, Note_on_c, 2, 40, 100
4, 64720, Note_on_c, 2, 40, 0
4, 64720, Note_on_c, 2, 38, 100
4, 64800, Note_on_c, 2, 38, 0
4, 64800, Note_on_c, 2, 36, 100
4, 65040, Note_on_c, 2, 36, 0
4, 65040, Note_on_c, 2, 43, 100
4, 65120, Note_on_c, 2, 43, 0
4, 65120, Note_on_c, 2, 45, 100
4, 65200, Note_on_c, 2, 45, 0
4, 65200, Note_on_c, 2, 47, 100
4, 65280, Note_on_c, 2, 47, 0
4, 65280, Note_on_c, 2, 48, 100
4, 65360, Note_on_c, 2, 48, 0
4, 65360, Note_on_c, 2, 47, 100
4, 65440, Note_on_c, 2, 47, 0
4, 65440, Note_on_c, 2, 48, 100
4, 65520, Note_on_c, 2, 48, 0
4, 65520, Note_on_c, 2, 50, 100
4, 65600, Note_on_c, 2, 50, 0
4, 65600, Note_on_c, 2, 48, 100
4, 65680, Note_on_c, 2, 48, 0
4, 65680, Note_on_c, 2, 50, 100
4, 65760, Note_on_c, 2, 50, 0
4, 65760, Note_on_c, 2, 52, 100
4, 65840, Note_on_c, 2, 52, 0
4, 65840, Note_on_c, 2, 50, 100
4, 65920, Note_on_c, 2, 50, 0
4, 65920, Note_on_c, 2, 48, 100
4, 66000, Note_on_c, 2, 48, 0
4, 66000, Note_on_c, 2, 47, 100
4, 66080, Note_on_c, 2, 47, 0
4, 66080, Note_on_c, 2, 45, 100
4, 66160, Note_on_c, 2, 45, 0
4, 66160, Note_on_c, 2, 43, 100
4, 66240, Note_on_c, 2, 43, 0
4, 66240, Note_on_c, 2, 42, 100
4, 66320, Note_on_c, 2, 42, 0
4, 66320, Note_on_c, 2, 40, 100
4, 66400, Note_on_c, 2, 40, 0
4, 66400, Note_on_c, 2, 42, 100
4, 66480, Note_on_c, 2, 42, 0
4, 66480, Note_on_c, 2, 38, 100
4, 66560, Note_on_c, 2, 38, 0
4, 66560, Note_on_c, 2, 40, 100
4, 66640, Note_on_c, 2, 40, 0
4, 66640, Note_on_c, 2, 42, 100
4, 66720, Note_on_c, 2, 42, 0
4, 66720, Note_on_c, 2, 43, 100
4, 66800, Note_on_c, 2, 43, 0
4, 66800, Note_on_c, 2, 42, 100
4, 66880, Note_on_c, 2, 42, 0
4, 66880, Note_on_c, 2, 43, 100
4, 66960, Note_on_c, 2, 43, 0
4, 66960, Note_on_c, 2, 45, 100
4, 67040, Note_on_c, 2, 45, 0
4, 67040, Note_on_c, 2, 47, 100
4, 67120, Note_on_c, 2, 47, 0
4, 67120, Note_on_c, 2, 48, 100
4, 67200, Note_on_c, 2, 48, 0
4, 67200, Note_on_c, 2, 50, 100
4, 67280, Note_on_c, 2, 50, 0
4, 67280, Note_on_c, 2, 49, 100
4, 67360, Note_on_c, 2, 49, 0
4, 67360, Note_on_c, 2, 50, 100
4, 67440, Note_on_c, 2, 50, 0
4, 67440, Note_on_c, 2, 52, 100
4, 67520, Note_on_c, 2, 52, 0
4, 67520, Note_on_c, 2, 54, 100
4, 67600, Note_on_c, 2, 54, 0
4, 67600, Note_on_c, 2, 50, 100
4, 67680, Note_on_c, 2, 50, 0
4, 67680, Note_on_c, 2, 55, 100
4, 67920, Note_on_c, 2, 55, 0
4, 68240, Note_on_c, 2, 57, 100
4, 68320, Note_on_c, 2, 57, 0
4, 68320, Note_on_c, 2, 55, 100
4, 68400, Note_on_c, 2, 55, 0
4, 68400, Note_on_c, 2, 54, 100
4, 68480, Note_on_c, 2, 54, 0
4, 68480, Note_on_c, 2, 55, 100
4, 68560, Note_on_c, 2, 55, 0
4, 68560, Note_on_c, 2, 50, 100
4, 68640, Note_on_c, 2, 50, 0
4, 68640, Note_on_c, 2, 43, 100
4, 69120, Note_on_c, 2, 43, 0
4, 69120, Note_on_c, 2, 62, 100
4, 69600, Note_on_c, 2, 62, 0
4, 69600, Note_on_c, 2, 60, 100
4, 70080, Note_on_c, 2, 60, 0
4, 70320, Note_on_c, 2, 60, 100
4, 70560, Note_on_c, 2, 60, 0
4, 70560, Note_on_c, 2, 59, 100
4, 70920, Note_on_c, 2, 59, 0
4, 70920, Note_on_c, 2, 62, 100
4, 71040, Note_on_c, 2, 62, 0
4, 71040, Note_on_c, 2, 67, 100
4, 71520, Note_on_c, 2, 67, 0
4, 71760, Note_on_c, 2, 74, 100
4, 72000, Note_on_c, 2, 74, 0
4, 72000, Note_on_c, 2, 73, 100
4, 72480, Note_on_c, 2, 73, 0
4, 72480, Note_on_c, 2, 75, 100
4, 72960, Note_on_c, 2, 75, 0
4, 73200, Note_on_c, 2, 76, 100
4, 73440, Note_on_c, 2, 76, 0
4, 73440, Note_on_c, 2, 75, 100
4, 73920, Note_on_c, 2, 75, 0
4, 73920, Note_on_c, 2, 66, 100
4, 74400, Note_on_c, 2, 66, 0
4, 74640, Note_on_c, 2, 75, 100
4, 74880, Note_on_c, 2, 75, 0
4, 74880, Note_on_c, 2, 76, 100
4, 75360, Note_on_c, 2, 76, 0
4, 75360, Note_on_c, 2, 71, 100
4, 75840, Note_on_c, 2, 71, 0
4, 76080, Note_on_c, 2, 71, 100
4, 76320, Note_on_c, 2, 71, 0
4, 76320, Note_on_c, 2, 69, 100
4, 76680, Note_on_c, 2, 69, 0
4, 76680, Note_on_c, 2, 71, 100
4, 76800, Note_on_c, 2, 71, 0
4, 76800, Note_on_c, 2, 71, 100
4, 76860, Note_on_c, 2, 71, 0
4, 76860, Note_on_c, 2, 72, 100
4, 77280, Note_on_c, 2, 72, 0
4, 77520, Note_on_c, 2, 72, 100
4, 77760, Note_on_c, 2, 72, 0
4, 77760, Note_on_c, 2, 71, 100
4, 78240, Note_on_c, 2, 71, 0
4, 78240, Note_on_c, 2, 69, 100
4, 78720, Note_on_c, 2, 69, 0
4, 78960, Note_on_c, 2, 69, 100
4, 79200, Note_on_c, 2, 69, 0
4, 79200, Note_on_c, 2, 69, 100
4, 79560, Note_on_c, 2, 69, 0
4, 79560, Note_on_c, 2, 66, 100
4, 79680, Note_on_c, 2, 66, 0
4, 79680, Note_on_c, 2, 67, 100
4, 79740, Note_on_c, 2, 67, 0
4, 79740, Note_on_c, 2, 66, 100
4, 79800, Note_on_c, 2, 66, 0
4, 79800, Note_on_c, 2, 67, 100
4, 80160, Note_on_c, 2, 67, 0
4, 80240, Note_on_c, 2, 52, 100
4, 80320, Note_on_c, 2, 52, 0
4, 80320, Note_on_c, 2, 54, 100
4, 80400, Note_on_c, 2, 54, 0
4, 80400, Note_on_c, 2, 55, 100
4, 80480, Note_on_c, 2, 55, 0
4, 80480, Note_on_c, 2, 57, 100
4, 80560, Note_on_c, 2, 57, 0
4, 80560, Note_on_c, 2, 59, 100
4, 80640, Note_on_c, 2, 59, 0
4, 80640, Note_on_c, 2, 60, 100
4, 80720, Note_on_c, 2, 60, 0
4, 80720, Note_on_c, 2, 59, 100
4, 80800, Note_on_c, 2, 59, 0
4, 80800, Note_on_c, 2, 60, 100
4, 80880, Note_on_c, 2, 60, 0
4, 80880, Note_on_c, 2, 65, 100
4, 80960, Note_on_c, 2, 65, 0
4, 80960, Note_on_c, 2, 64, 100
4, 81040, Note_on_c, 2, 64, 0
4, 81040, Note_on_c, 2, 62, 100
4, 81120, Note_on_c, 2, 62, 0
4, 81120, Note_on_c, 2, 60, 100
4, 81200, Note_on_c, 2, 60, 0
4, 81200, Note_on_c, 2, 62, 100
4, 81280, Note_on_c, 2, 62, 0
4, 81280, Note_on_c, 2, 60, 100
4, 81360, Note_on_c, 2, 60, 0
4, 81360, Note_on_c, 2, 59, 100
4, 81440, Note_on_c, 2, 59, 0
4, 81440, Note_on_c, 2, 60, 100
4, 81520, Note_on_c, 2, 60, 0
4, 81520, Note_on_c, 2, 59, 100
4, 81600, Note_on_c, 2, 59, 0
4, 81600, Note_on_c, 2, 57, 100
4, 81680, Note_on_c, 2, 57, 0
4, 81680, Note_on_c, 2, 59, 100
4, 81760, Note_on_c, 2, 59, 0
4, 81760, Note_on_c, 2, 57, 100
4, 81840, Note_on_c, 2, 57, 0
4, 81840, Note_on_c, 2, 55, 100
4, 81920, Note_on_c, 2, 55, 0
4, 81920, Note_on_c, 2, 57, 100
4, 82000, Note_on_c, 2, 57, 0
4, 82000, Note_on_c, 2, 54, 100
4, 82080, Note_on_c, 2, 54, 0
4, 82080, Note_on_c, 2, 59, 100
4, 82160, Note_on_c, 2, 59, 0
4, 82160, Note_on_c, 2, 57, 100
4, 82240, Note_on_c, 2, 57, 0
4, 82240, Note_on_c, 2, 59, 100
4, 82320, Note_on_c, 2, 59, 0
4, 82320, Note_on_c, 2, 64, 100
4, 82400, Note_on_c, 2, 64, 0
4, 82400, Note_on_c, 2, 62, 100
4, 82480, Note_on_c, 2, 62, 0
4, 82480, Note_on_c, 2, 60, 100
4, 82560, Note_on_c, 2, 60, 0
4, 82560, Note_on_c, 2, 59, 100
4, 82640, Note_on_c, 2, 59, 0
4, 82640, Note_on_c, 2, 60, 100
4, 82720, Note_on_c, 2, 60, 0
4, 82720, Note_on_c, 2, 59, 100
4, 82800, Note_on_c, 2, 59, 0
4, 82800, Note_on_c, 2, 57, 100
4, 82880, Note_on_c, 2, 57, 0
4, 82880, Note_on_c, 2, 59, 100
4, 82960, Note_on_c, 2, 59, 0
4, 82960, Note_on_c, 2, 57, 100
4, 83040, Note_on_c, 2, 57, 0
4, 83040, Note_on_c, 2, 55, 100
4, 83120, Note_on_c, 2, 55, 0
4, 83120, Note_on_c, 2, 57, 100
4, 83200, Note_on_c, 2, 57, 0
4, 83200, Note_on_c, 2, 55, 100
4, 83280, Note_on_c, 2, 55, 0
4, 83280, Note_on_c, 2, 54, 100
4, 83360, Note_on_c, 2, 54, 0
4, 83360, Note_on_c, 2, 55, 100
4, 83440, Note_on_c, 2, 55, 0
4, 83440, Note_on_c, 2, 52, 100
4, 83520, Note_on_c, 2, 52, 0
4, 83520, Note_on_c, 2, 57, 100
4, 83600, Note_on_c, 2, 57, 0
4, 83600, Note_on_c, 2, 55, 100
4, 83680, Note_on_c, 2, 55, 0
4, 83680, Note_on_c, 2, 57, 100
4, 83760, Note_on_c, 2, 57, 0
4, 83760, Note_on_c, 2, 62, 100
4, 83840, Note_on_c, 2, 62, 0
4, 83840, Note_on_c, 2, 60, 100
4, 83920, Note_on_c, 2, 60, 0
4, 83920, Note_on_c, 2, 59, 100
4, 84000, Note_on_c, 2, 59, 0
4, 84000, Note_on_c, 2, 57, 100
4, 84080, Note_on_c, 2, 57, 0
4, 84080, Note_on_c, 2, 59, 100
4, 84160, Note_on_c, 2, 59, 0
4, 84160, Note_on_c, 2, 57, 100
4, 84240, Note_on_c, 2, 57, 0
4, 84240, Note_on_c, 2, 55, 100
4, 84320, Note_on_c, 2, 55, 0
4, 84320, Note_on_c, 2, 57, 100
4, 84400, Note_on_c, 2, 57, 0
4, 84400, Note_on_c, 2, 55, 100
4, 84480, Note_on_c, 2, 55, 0
4, 84480, Note_on_c, 2, 54, 100
4, 84560, Note_on_c, 2, 54, 0
4, 84560, Note_on_c, 2, 55, 100
4, 84640, Note_on_c, 2, 55, 0
4, 84640, Note_on_c, 2, 54, 100
4, 84720, Note_on_c, 2, 54, 0
4, 84720, Note_on_c, 2, 52, 100
4, 84800, Note_on_c, 2, 52, 0
4, 84800, Note_on_c, 2, 54, 100
4, 84880, Note_on_c, 2, 54, 0
4, 84880, Note_on_c, 2, 52, 100
4, 84960, Note_on_c, 2, 52, 0
4, 84960, Note_on_c, 2, 50, 100
4, 85040, Note_on_c, 2, 50, 0
4, 85040, Note_on_c, 2, 49, 100
4, 85120, Note_on_c, 2, 49, 0
4, 85120, Note_on_c, 2, 50, 100
4, 85200, Note_on_c, 2, 50, 0
4, 85200, Note_on_c, 2, 55, 100
4, 85280, Note_on_c, 2, 55, 0
4, 85280, Note_on_c, 2, 54, 100
4, 85360, Note_on_c, 2, 54, 0
4, 85360, Note_on_c, 2, 52, 100
4, 85440, Note_on_c, 2, 52, 0
4, 85440, Note_on_c, 2, 50, 100
4, 85520, Note_on_c, 2, 50, 0
4, 85520, Note_on_c, 2, 52, 100
4, 85600, Note_on_c, 2, 52, 0
4, 85600, Note_on_c, 2, 50, 100
4, 85680, Note_on_c, 2, 50, 0
4, 85680, Note_on_c, 2, 48, 100
4, 85760, Note_on_c, 2, 48, 0
4, 85760, Note_on_c, 2, 50, 100
4, 85840, Note_on_c, 2, 50, 0
4, 85840, Note_on_c, 2, 48, 100
4, 85920, Note_on_c, 2, 48, 0
4, 85920, Note_on_c, 2, 47, 100
4, 86000, Note_on_c, 2, 47, 0
4, 86000, Note_on_c, 2, 48, 100
4, 86080, Note_on_c, 2, 48, 0
4, 86080, Note_on_c, 2, 47, 100
4, 86160, Note_on_c, 2, 47, 0
4, 86160, Note_on_c, 2, 45, 100
4, 86240, Note_on_c, 2, 45, 0
4, 86240, Note_on_c, 2, 47, 100
4, 86320, Note_on_c, 2, 47, 0
4, 86320, Note_on_c, 2, 45, 100
4, 86400, Note_on_c, 2, 45, 0
4, 86400, Note_on_c, 2, 43, 100
4, 86480, Note_on_c, 2, 43, 0
4, 86480, Note_on_c, 2, 42, 100
4, 86560, Note_on_c, 2, 42, 0
4, 86560, Note_on_c, 2, 43, 100
4, 86640, Note_on_c, 2, 43, 0
4, 86640, Note_on_c, 2, 48, 100
4, 86720, Note_on_c, 2, 48, 0
4, 86720, Note_on_c, 2, 47, 100
4, 86800, Note_on_c, 2, 47, 0
4, 86800, Note_on_c, 2, 45, 100
4, 86880, Note_on_c, 2, 45, 0
4, 86880, Note_on_c, 2, 43, 100
4, 86960, Note_on_c, 2, 43, 0
4, 86960, Note_on_c, 2, 45, 100
4, 87040, Note_on_c, 2, 45, 0
4, 87040, Note_on_c, 2, 43, 100
4, 87120, Note_on_c, 2, 43, 0
4, 87120, Note_on_c, 2, 41, 100
4, 87200, Note_on_c, 2, 41, 0
4, 87200, Note_on_c, 2, 43, 100
4, 87280, Note_on_c, 2, 43, 0
4, 87280, Note_on_c, 2, 41, 100
4, 87360, Note_on_c, 2, 41, 0
4, 87360, Note_on_c, 2, 40, 100
4, 87440, Note_on_c, 2, 40, 0
4, 87440, Note_on_c, 2, 41, 100
4, 87520, Note_on_c, 2, 41, 0
4, 87520, Note_on_c, 2, 40, 100
4, 87600, Note_on_c, 2, 40, 0
4, 87600, Note_on_c, 2, 38, 100
4, 87680, Note_on_c, 2, 38, 0
4, 87680, Note_on_c, 2, 40, 100
4, 87760, Note_on_c, 2, 40, 0
4, 87760, Note_on_c, 2, 38, 100
4, 87840, Note_on_c, 2, 38, 0
4, 87840, Note_on_c, 2, 36, 100
4, 88080, Note_on_c, 2, 36, 0
4, 88080, Note_on_c, 2, 43, 100
4, 88160, Note_on_c, 2, 43, 0
4, 88160, Note_on_c, 2, 45, 100
4, 88240, Note_on_c, 2, 45, 0
4, 88240, Note_on_c, 2, 47, 100
4, 88320, Note_on_c, 2, 47, 0
4, 88320, Note_on_c, 2, 48, 100
4, 88400, Note_on_c, 2, 48, 0
4, 88400, Note_on_c, 2, 47, 100
4, 88480, Note_on_c, 2, 47, 0
4, 88480, Note_on_c, 2, 48, 100
4, 88560, Note_on_c, 2, 48, 0
4, 88560, Note_on_c, 2, 50, 100
4, 88640, Note_on_c, 2, 50, 0
4, 88640, Note_on_c, 2, 48, 100
4, 88720, Note_on_c, 2, 48, 0
4, 88720, Note_on_c, 2, 50, 100
4, 88800, Note_on_c, 2, 50, 0
4, 88800, Note_on_c, 2, 52, 100
4, 88880, Note_on_c, 2, 52, 0
4, 88880, Note_on_c, 2, 50, 100
4, 88960, Note_on_c, 2, 50, 0
4, 88960, Note_on_c, 2, 48, 100
4, 89040, Note_on_c, 2, 48, 0
4, 89040, Note_on_c, 2, 47, 100
4, 89120, Note_on_c, 2, 47, 0
4, 89120, Note_on_c, 2, 45, 100
4, 89200, Note_on_c, 2, 45, 0
4, 89200, Note_on_c, 2, 43, 100
4, 89280, Note_on_c, 2, 43, 0
4, 89280, Note_on_c, 2, 42, 100
4, 89360, Note_on_c, 2, 42, 0
4, 89360, Note_on_c, 2, 40, 100
4, 89440, Note_on_c, 2, 40, 0
4, 89440, Note_on_c, 2, 42, 100
4, 89520, Note_on_c, 2, 42, 0
4, 89520, Note_on_c, 2, 38, 100
4, 89600, Note_on_c, 2, 38, 0
4, 89600, Note_on_c, 2, 40, 100
4, 89680, Note_on_c, 2, 40, 0
4, 89680, Note_on_c, 2, 42, 100
4, 89760, Note_on_c, 2, 42, 0
4, 89760, Note_on_c, 2, 43, 100
4, 89840, Note_on_c, 2, 43, 0
4, 89840, Note_on_c, 2, 42, 100
4, 89920, Note_on_c, 2, 42, 0
4, 89920, Note_on_c, 2, 43, 100
4, 90000, Note_on_c, 2, 43, 0
4, 90000, Note_on_c, 2, 45, 100
4, 90080, Note_on_c, 2, 45, 0
4, 90080, Note_on_c, 2, 47, 100
4, 90160, Note_on_c, 2, 47, 0
4, 90160, Note_on_c, 2, 48, 100
4, 90240, Note_on_c, 2, 48, 0
4, 90240, Note_on_c, 2, 50, 100
4, 90320, Note_on_c, 2, 50, 0
4, 90320, Note_on_c, 2, 49, 100
4, 90400, Note_on_c, 2, 49, 0
4, 90400, Note_on_c, 2, 50, 100
4, 90480, Note_on_c, 2, 50, 0
4, 90480, Note_on_c, 2, 52, 100
4, 90560, Note_on_c, 2, 52, 0
4, 90560, Note_on_c, 2, 54, 100
4, 90640, Note_on_c, 2, 54, 0
4, 90640, Note_on_c, 2, 50, 100
4, 90720, Note_on_c, 2, 50, 0
4, 90720, Note_on_c, 2, 55, 100
4, 90960, Note_on_c, 2, 55, 0
4, 91280, Note_on_c, 2, 57, 100
4, 91360, Note_on_c, 2, 57, 0
4, 91360, Note_on_c, 2, 55, 100
4, 91440, Note_on_c, 2, 55, 0
4, 91440, Note_on_c, 2, 54, 100
4, 91520, Note_on_c, 2, 54, 0
4, 91520, Note_on_c, 2, 55, 100
4, 91600, Note_on_c, 2, 55, 0
4, 91600, Note_on_c, 2, 50, 100
4, 91680, Note_on_c, 2, 50, 0
4, 91680, Note_on_c, 2, 43, 100
4, 92160, Note_on_c, 2, 43, 0
4, 92160, End_track
5, 0, Start_track
5, 0, MIDI_port, 0
5, 0, Title_t, "The Goldberg Variations - BWV 988"
5, 0, End_track
6, 0, Start_track
6, 0, MIDI_port, 0
6, 0, Title_t, "Aria with 30 Variations for Harpsichord with 2 Manuals"
6, 0, End_track
7, 0, Start_track
7, 0, MIDI_port, 0
7, 0, Title_t, "--------------------------------------"
7, 0, End_track
8, 0, Start_track
8, 0, MIDI_port, 0
8, 0, Title_t, "Variatio 26 a 2 Clav."
8, 0, End_track
9, 0, Start_track
9, 0, MIDI_port, 0
9, 0, Title_t, "--------------------------------------"
9, 0, End_track
10, 0, Start_track
10, 0, MIDI_port, 0
10, 0, Title_t, "Sequenced with Cakewalk Pro Audio by"
10, 0, End_track
11, 0, Start_track
11, 0, MIDI_port, 0
11, 0, Title_t, "David J. Grossman - dave@unpronounceable.com"
11, 0, End_track
12, 0, Start_track
12, 0, MIDI_port, 0
12, 0, Title_t, "This and other Bach MIDI files can be found at:"
12, 0, End_track
13, 0, Start_track
13, 0, MIDI_port, 0
13, 0, Title_t, "Dave's J.S. Bach Page"
13, 0, End_track
14, 0, Start_track
14, 0, MIDI_port, 0
14, 0, Title_t, "http://www.unpronounceable.com/bach"
14, 0, End_track
15, 0, Start_track
15, 0, MIDI_port, 0
15, 0, Title_t, "--------------------------------------"
15, 0, End_track
16, 0, Start_track
16, 0, MIDI_port, 0
16, 0, Title_t, "Original Filename: 988-v26.mid"
16, 0, End_track
17, 0, Start_track
17, 0, MIDI_port, 0
17, 0, Title_t, "Last Modified: March 14, 1997"
17, 0, End_track
0, 0, End_of_file
