0, 0, Header, 1, 2, 480
1, 0, Start_track
1, 0, Time_signature, 4, 2, 24, 8
1, 0, Tempo, 500000
1, 0, Title_t, "untitled"
1, 0, SMPTE_offset, 96, 0, 3, 0, 0
1, 0, End_track
2, 0, Start_track
2, 0, MIDI_port, 0
2, 0, Control_c, 0, 7, 100
2, 0, Control_c, 0, 10, 74
2, 120, Note_on_c, 0, 55, 100
2, 120, Note_on_c, 0, 79, 100
2, 540, Note_on_c, 0, 79, 0
2, 600, Note_on_c, 0, 59, 100
2, 600, Note_on_c, 0, 79, 100
2, 1080, Note_on_c, 0, 79, 0
2, 1080, Note_on_c, 0, 62, 100
2, 1080, Note_on_c, 0, 81, 100
2, 1140, Note_on_c, 0, 81, 0
2, 1140, Note_on_c, 0, 79, 100
2, 1200, Note_on_c, 0, 79, 0
2, 1200, Note_on_c, 0, 81, 100
2, 1440, Note_on_c, 0, 81, 0
2, 1440, Note_on_c, 0, 83, 100
2, 1560, Note_on_c, 0, 55, 0
2, 1560, Note_on_c, 0, 62, 0
2, 1560, Note_on_c, 0, 54, 100
2, 1560, Note_on_c, 0, 81, 100
2, 1620, Note_on_c, 0, 59, 0
2, 1680, Note_on_c, 0, 83, 0
2, 1800, Note_on_c, 0, 81, 0
2, 1800, Note_on_c, 0, 79, 100
2, 1920, Note_on_c, 0, 79, 0
2, 1920, Note_on_c, 0, 78, 100
2, 2040, Note_on_c, 0, 78, 0
2, 2040, Note_on_c, 0, 57, 100
2, 2040, Note_on_c, 0, 76, 100
2, 2280, Note_on_c, 0, 76, 0
2, 2280, Note_on_c, 0, 74, 100
2, 2520, Note_on_c, 0, 62, 100
2, 3000, Note_on_c, 0, 54, 0
2, 3000, Note_on_c, 0, 74, 0
2, 3000, Note_on_c, 0, 52, 100
2, 3000, Note_on_c, 0, 67, 100
2, 3060, Note_on_c, 0, 57, 0
2, 3060, Note_on_c, 0, 67, 0
2, 3060, Note_on_c, 0, 66, 100
2, 3120, Note_on_c, 0, 62, 0
2, 3120, Note_on_c, 0, 66, 0
2, 3120, Note_on_c, 0, 67, 100
2, 3480, Note_on_c, 0, 67, 0
2, 3480, Note_on_c, 0, 55, 100
2, 3480, Note_on_c, 0, 69, 100
2, 3540, Note_on_c, 0, 69, 0
2, 3540, Note_on_c, 0, 67, 100
2, 3600, Note_on_c, 0, 67, 0
2, 3600, Note_on_c, 0, 66, 100
2, 3660, Note_on_c, 0, 66, 0
2, 3660, Note_on_c, 0, 67, 100
2, 3720, Note_on_c, 0, 67, 0
2, 3720, Note_on_c, 0, 69, 100
2, 3780, Note_on_c, 0, 69, 0
2, 3780, Note_on_c, 0, 67, 100
2, 3840, Note_on_c, 0, 67, 0
2, 3840, Note_on_c, 0, 69, 100
2, 3900, Note_on_c, 0, 69, 0
2, 3900, Note_on_c, 0, 67, 100
2, 3960, Note_on_c, 0, 67, 0
2, 3960, Note_on_c, 0, 61, 100
2, 3960, Note_on_c, 0, 69, 100
2, 4020, Note_on_c, 0, 69, 0
2, 4080, Note_on_c, 0, 67, 100
2, 4140, Note_on_c, 0, 67, 0
2, 4140, Note_on_c, 0, 69, 100
2, 4200, Note_on_c, 0, 69, 0
2, 4200, Note_on_c, 0, 66, 100
2, 4200, Note_on_c, 0, 67, 100
2, 4260, Note_on_c, 0, 67, 0
2, 4320, Note_on_c, 0, 66, 0
2, 4320, Note_on_c, 0, 67, 100
2, 4440, Note_on_c, 0, 52, 0
2, 4440, Note_on_c, 0, 61, 0
2, 4440, Note_on_c, 0, 50, 100
2, 4440, Note_on_c, 0, 69, 100
2, 4500, Note_on_c, 0, 55, 0
2, 4500, Note_on_c, 0, 69, 0
2, 4560, Note_on_c, 0, 67, 0
2, 4560, Note_on_c, 0, 66, 100
2, 4680, Note_on_c, 0, 66, 0
2, 4680, Note_on_c, 0, 67, 100
2, 4740, Note_on_c, 0, 67, 0
2, 4740, Note_on_c, 0, 66, 100
2, 4800, Note_on_c, 0, 66, 0
2, 4800, Note_on_c, 0, 64, 100
2, 4860, Note_on_c, 0, 64, 0
2, 4920, Note_on_c, 0, 54, 100
2, 4920, Note_on_c, 0, 64, 100
2, 5160, Note_on_c, 0, 64, 0
2, 5160, Note_on_c, 0, 62, 100
2, 5400, Note_on_c, 0, 57, 100
2, 5640, Note_on_c, 0, 50, 0
2, 5640, Note_on_c, 0, 48, 100
2, 5880, Note_on_c, 0, 54, 0
2, 5880, Note_on_c, 0, 57, 0
2, 5880, Note_on_c, 0, 47, 100
2, 5880, Note_on_c, 0, 74, 100
2, 5940, Note_on_c, 0, 62, 0
2, 6000, Note_on_c, 0, 48, 0
2, 6300, Note_on_c, 0, 74, 0
2, 6360, Note_on_c, 0, 50, 100
2, 6360, Note_on_c, 0, 74, 100
2, 6840, Note_on_c, 0, 74, 0
2, 6840, Note_on_c, 0, 55, 100
2, 6840, Note_on_c, 0, 76, 100
2, 6900, Note_on_c, 0, 76, 0
2, 6900, Note_on_c, 0, 74, 100
2, 6960, Note_on_c, 0, 74, 0
2, 6960, Note_on_c, 0, 76, 100
2, 7200, Note_on_c, 0, 76, 0
2, 7200, Note_on_c, 0, 77, 100
2, 7320, Note_on_c, 0, 47, 0
2, 7320, Note_on_c, 0, 55, 0
2, 7320, Note_on_c, 0, 48, 100
2, 7320, Note_on_c, 0, 76, 100
2, 7380, Note_on_c, 0, 50, 0
2, 7440, Note_on_c, 0, 77, 0
2, 7560, Note_on_c, 0, 76, 0
2, 7560, Note_on_c, 0, 74, 100
2, 7680, Note_on_c, 0, 74, 0
2, 7680, Note_on_c, 0, 72, 100
2, 7800, Note_on_c, 0, 72, 0
2, 7800, Note_on_c, 0, 52, 100
2, 7800, Note_on_c, 0, 71, 100
2, 8040, Note_on_c, 0, 71, 0
2, 8040, Note_on_c, 0, 69, 100
2, 8280, Note_on_c, 0, 57, 100
2, 8520, Note_on_c, 0, 48, 0
2, 8520, Note_on_c, 0, 69, 0
2, 8520, Note_on_c, 0, 50, 100
2, 8520, Note_on_c, 0, 79, 100
2, 8580, Note_on_c, 0, 52, 0
2, 8580, Note_on_c, 0, 79, 0
2, 8580, Note_on_c, 0, 78, 100
2, 8640, Note_on_c, 0, 78, 0
2, 8640, Note_on_c, 0, 76, 100
2, 8700, Note_on_c, 0, 76, 0
2, 8700, Note_on_c, 0, 78, 100
2, 8760, Note_on_c, 0, 57, 0
2, 8760, Note_on_c, 0, 78, 0
2, 8760, Note_on_c, 0, 52, 100
2, 8760, Note_on_c, 0, 79, 100
2, 8820, Note_on_c, 0, 50, 0
2, 8820, Note_on_c, 0, 79, 0
2, 8820, Note_on_c, 0, 78, 100
2, 9000, Note_on_c, 0, 52, 0
2, 9000, Note_on_c, 0, 48, 100
2, 9000, Note_on_c, 0, 60, 100
2, 9000, Note_on_c, 0, 81, 100
2, 9060, Note_on_c, 0, 78, 0
2, 9060, Note_on_c, 0, 81, 0
2, 9060, Note_on_c, 0, 79, 100
2, 9240, Note_on_c, 0, 48, 0
2, 9240, Note_on_c, 0, 79, 0
2, 9240, Note_on_c, 0, 50, 100
2, 9240, Note_on_c, 0, 78, 100
2, 9300, Note_on_c, 0, 78, 0
2, 9300, Note_on_c, 0, 76, 100
2, 9480, Note_on_c, 0, 60, 0
2, 9480, Note_on_c, 0, 76, 0
2, 9480, Note_on_c, 0, 59, 100
2, 9480, Note_on_c, 0, 74, 100
2, 9540, Note_on_c, 0, 74, 0
2, 9540, Note_on_c, 0, 72, 100
2, 9600, Note_on_c, 0, 59, 0
2, 9600, Note_on_c, 0, 57, 100
2, 9660, Note_on_c, 0, 72, 0
2, 9720, Note_on_c, 0, 57, 0
2, 9720, Note_on_c, 0, 55, 100
2, 9720, Note_on_c, 0, 72, 100
2, 9840, Note_on_c, 0, 55, 0
2, 9840, Note_on_c, 0, 54, 100
2, 9840, Note_on_c, 0, 81, 100
2, 9900, Note_on_c, 0, 72, 0
2, 9960, Note_on_c, 0, 54, 0
2, 9960, Note_on_c, 0, 52, 100
2, 10080, Note_on_c, 0, 81, 0
2, 10080, Note_on_c, 0, 54, 100
2, 10080, Note_on_c, 0, 72, 100
2, 10140, Note_on_c, 0, 52, 0
2, 10200, Note_on_c, 0, 50, 0
2, 10200, Note_on_c, 0, 72, 0
2, 10200, Note_on_c, 0, 43, 100
2, 10200, Note_on_c, 0, 55, 100
2, 10200, Note_on_c, 0, 71, 100
2, 10260, Note_on_c, 0, 54, 0
2, 10260, Note_on_c, 0, 71, 0
2, 10260, Note_on_c, 0, 67, 100
2, 10440, Note_on_c, 0, 55, 0
2, 10440, Note_on_c, 0, 57, 100
2, 10560, Note_on_c, 0, 67, 0
2, 10560, Note_on_c, 0, 66, 100
2, 10620, Note_on_c, 0, 66, 0
2, 10680, Note_on_c, 0, 57, 0
2, 10680, Note_on_c, 0, 59, 100
2, 10680, Note_on_c, 0, 66, 100
2, 10920, Note_on_c, 0, 43, 0
2, 10920, Note_on_c, 0, 66, 0
2, 10920, Note_on_c, 0, 50, 100
2, 10920, Note_on_c, 0, 67, 100
2, 10980, Note_on_c, 0, 67, 0
2, 10980, Note_on_c, 0, 66, 100
2, 11040, Note_on_c, 0, 66, 0
2, 11040, Note_on_c, 0, 67, 100
2, 11160, Note_on_c, 0, 50, 0
2, 11220, Note_on_c, 0, 52, 100
2, 11520, Note_on_c, 0, 52, 0
2, 11520, Note_on_c, 0, 54, 100
2, 11640, Note_on_c, 0, 59, 0
2, 11640, Note_on_c, 0, 54, 0
2, 11640, Note_on_c, 0, 55, 100
2, 11640, Note_on_c, 0, 71, 100
2, 11700, Note_on_c, 0, 67, 0
2, 12060, Note_on_c, 0, 71, 0
2, 12120, Note_on_c, 0, 59, 100
2, 12120, Note_on_c, 0, 71, 100
2, 12600, Note_on_c, 0, 71, 0
2, 12600, Note_on_c, 0, 64, 100
2, 12600, Note_on_c, 0, 73, 100
2, 12660, Note_on_c, 0, 73, 0
2, 12660, Note_on_c, 0, 71, 100
2, 12720, Note_on_c, 0, 71, 0
2, 12720, Note_on_c, 0, 73, 100
2, 12960, Note_on_c, 0, 73, 0
2, 12960, Note_on_c, 0, 74, 100
2, 13020, Note_on_c, 0, 74, 0
2, 13080, Note_on_c, 0, 59, 0
2, 13080, Note_on_c, 0, 57, 100
2, 13080, Note_on_c, 0, 74, 100
2, 13140, Note_on_c, 0, 64, 0
2, 13200, Note_on_c, 0, 74, 0
2, 13200, Note_on_c, 0, 73, 100
2, 13320, Note_on_c, 0, 73, 0
2, 13320, Note_on_c, 0, 71, 100
2, 13440, Note_on_c, 0, 71, 0
2, 13440, Note_on_c, 0, 69, 100
2, 13500, Note_on_c, 0, 55, 0
2, 13560, Note_on_c, 0, 57, 0
2, 13560, Note_on_c, 0, 55, 100
2, 13560, Note_on_c, 0, 74, 100
2, 13620, Note_on_c, 0, 55, 0
2, 13680, Note_on_c, 0, 54, 100
2, 13800, Note_on_c, 0, 54, 0
2, 13800, Note_on_c, 0, 52, 100
2, 14040, Note_on_c, 0, 52, 0
2, 14040, Note_on_c, 0, 54, 100
2, 14280, Note_on_c, 0, 54, 0
2, 14280, Note_on_c, 0, 59, 100
2, 14460, Note_on_c, 0, 69, 0
2, 14460, Note_on_c, 0, 67, 100
2, 14460, Note_on_c, 0, 71, 100
2, 14520, Note_on_c, 0, 74, 0
2, 14520, Note_on_c, 0, 52, 100
2, 14520, Note_on_c, 0, 76, 100
2, 14520, Note_on_c, 0, 79, 100
2, 14580, Note_on_c, 0, 59, 0
2, 14760, Note_on_c, 0, 59, 100
2, 14940, Note_on_c, 0, 67, 0
2, 15000, Note_on_c, 0, 71, 0
2, 15000, Note_on_c, 0, 76, 0
2, 15000, Note_on_c, 0, 59, 0
2, 15000, Note_on_c, 0, 64, 100
2, 15000, Note_on_c, 0, 81, 100
2, 15060, Note_on_c, 0, 81, 0
2, 15120, Note_on_c, 0, 79, 0
2, 15120, Note_on_c, 0, 78, 100
2, 15180, Note_on_c, 0, 52, 0
2, 15180, Note_on_c, 0, 78, 0
2, 15180, Note_on_c, 0, 79, 100
2, 15240, Note_on_c, 0, 79, 0
2, 15240, Note_on_c, 0, 52, 100
2, 15240, Note_on_c, 0, 81, 100
2, 15300, Note_on_c, 0, 81, 0
2, 15300, Note_on_c, 0, 79, 100
2, 15360, Note_on_c, 0, 79, 0
2, 15360, Note_on_c, 0, 81, 100
2, 15420, Note_on_c, 0, 81, 0
2, 15420, Note_on_c, 0, 79, 100
2, 15480, Note_on_c, 0, 52, 0
2, 15480, Note_on_c, 0, 54, 100
2, 15480, Note_on_c, 0, 81, 100
2, 15540, Note_on_c, 0, 79, 0
2, 15540, Note_on_c, 0, 81, 0
2, 15600, Note_on_c, 0, 79, 100
2, 15660, Note_on_c, 0, 79, 0
2, 15660, Note_on_c, 0, 81, 100
2, 15720, Note_on_c, 0, 64, 0
2, 15720, Note_on_c, 0, 81, 0
2, 15720, Note_on_c, 0, 55, 100
2, 15720, Note_on_c, 0, 62, 100
2, 15720, Note_on_c, 0, 78, 100
2, 15780, Note_on_c, 0, 54, 0
2, 15840, Note_on_c, 0, 78, 0
2, 15840, Note_on_c, 0, 79, 100
2, 15900, Note_on_c, 0, 79, 0
2, 15960, Note_on_c, 0, 55, 0
2, 15960, Note_on_c, 0, 57, 100
2, 15960, Note_on_c, 0, 61, 100
2, 15960, Note_on_c, 0, 79, 100
2, 16020, Note_on_c, 0, 62, 0
2, 16200, Note_on_c, 0, 61, 0
2, 16200, Note_on_c, 0, 62, 100
2, 16200, Note_on_c, 0, 78, 100
2, 16260, Note_on_c, 0, 79, 0
2, 16320, Note_on_c, 0, 78, 0
2, 16320, Note_on_c, 0, 76, 100
2, 16440, Note_on_c, 0, 62, 0
2, 16440, Note_on_c, 0, 64, 100
2, 16440, Note_on_c, 0, 74, 100
2, 16500, Note_on_c, 0, 76, 0
2, 16500, Note_on_c, 0, 74, 0
2, 16500, Note_on_c, 0, 73, 100
2, 16560, Note_on_c, 0, 73, 0
2, 16560, Note_on_c, 0, 71, 100
2, 16620, Note_on_c, 0, 71, 0
2, 16620, Note_on_c, 0, 73, 100
2, 16680, Note_on_c, 0, 57, 0
2, 16680, Note_on_c, 0, 73, 0
2, 16680, Note_on_c, 0, 59, 100
2, 16680, Note_on_c, 0, 74, 100
2, 16740, Note_on_c, 0, 74, 0
2, 16740, Note_on_c, 0, 73, 100
2, 16800, Note_on_c, 0, 73, 0
2, 16800, Note_on_c, 0, 74, 100
2, 16860, Note_on_c, 0, 74, 0
2, 16920, Note_on_c, 0, 59, 0
2, 16920, Note_on_c, 0, 57, 100
2, 16920, Note_on_c, 0, 73, 100
2, 17160, Note_on_c, 0, 57, 0
2, 17160, Note_on_c, 0, 55, 100
2, 17160, Note_on_c, 0, 76, 100
2, 17220, Note_on_c, 0, 73, 0
2, 17400, Note_on_c, 0, 64, 0
2, 17400, Note_on_c, 0, 76, 0
2, 17400, Note_on_c, 0, 54, 100
2, 17400, Note_on_c, 0, 81, 100
2, 17460, Note_on_c, 0, 55, 0
2, 17520, Note_on_c, 0, 81, 0
2, 17520, Note_on_c, 0, 79, 100
2, 17640, Note_on_c, 0, 79, 0
2, 17640, Note_on_c, 0, 78, 100
2, 17760, Note_on_c, 0, 78, 0
2, 17760, Note_on_c, 0, 76, 100
2, 17880, Note_on_c, 0, 76, 0
2, 17880, Note_on_c, 0, 57, 100
2, 17880, Note_on_c, 0, 74, 100
2, 18120, Note_on_c, 0, 74, 0
2, 18120, Note_on_c, 0, 69, 100
2, 18360, Note_on_c, 0, 62, 100
2, 18660, Note_on_c, 0, 69, 0
2, 18660, Note_on_c, 0, 71, 100
2, 18720, Note_on_c, 0, 71, 0
2, 18720, Note_on_c, 0, 72, 100
2, 18840, Note_on_c, 0, 54, 0
2, 18840, Note_on_c, 0, 62, 0
2, 18840, Note_on_c, 0, 55, 100
2, 18840, Note_on_c, 0, 71, 100
2, 18900, Note_on_c, 0, 57, 0
2, 18960, Note_on_c, 0, 72, 0
2, 18960, Note_on_c, 0, 71, 0
2, 18960, Note_on_c, 0, 69, 100
2, 19080, Note_on_c, 0, 69, 0
2, 19080, Note_on_c, 0, 67, 100
2, 19200, Note_on_c, 0, 67, 0
2, 19200, Note_on_c, 0, 66, 100
2, 19320, Note_on_c, 0, 66, 0
2, 19320, Note_on_c, 0, 59, 100
2, 19320, Note_on_c, 0, 64, 100
2, 19560, Note_on_c, 0, 64, 0
2, 19560, Note_on_c, 0, 74, 100
2, 19680, Note_on_c, 0, 74, 0
2, 19680, Note_on_c, 0, 73, 100
2, 19800, Note_on_c, 0, 59, 0
2, 19800, Note_on_c, 0, 64, 100
2, 20100, Note_on_c, 0, 73, 0
2, 20100, Note_on_c, 0, 74, 100
2, 20160, Note_on_c, 0, 74, 0
2, 20160, Note_on_c, 0, 76, 100
2, 20280, Note_on_c, 0, 55, 0
2, 20280, Note_on_c, 0, 76, 0
2, 20280, Note_on_c, 0, 57, 100
2, 20280, Note_on_c, 0, 66, 100
2, 20280, Note_on_c, 0, 74, 100
2, 20340, Note_on_c, 0, 64, 0
2, 20400, Note_on_c, 0, 74, 0
2, 20400, Note_on_c, 0, 73, 100
2, 20520, Note_on_c, 0, 73, 0
2, 20520, Note_on_c, 0, 71, 100
2, 20640, Note_on_c, 0, 71, 0
2, 20640, Note_on_c, 0, 69, 100
2, 20760, Note_on_c, 0, 66, 0
2, 20760, Note_on_c, 0, 64, 100
2, 20760, Note_on_c, 0, 79, 100
2, 20820, Note_on_c, 0, 69, 0
2, 21000, Note_on_c, 0, 79, 0
2, 21000, Note_on_c, 0, 71, 100
2, 21120, Note_on_c, 0, 64, 0
2, 21120, Note_on_c, 0, 66, 100
2, 21240, Note_on_c, 0, 66, 0
2, 21240, Note_on_c, 0, 67, 100
2, 21480, Note_on_c, 0, 71, 0
2, 21480, Note_on_c, 0, 73, 100
2, 21660, Note_on_c, 0, 73, 0
2, 21720, Note_on_c, 0, 57, 0
2, 21720, Note_on_c, 0, 50, 100
2, 21720, Note_on_c, 0, 73, 100
2, 21840, Note_on_c, 0, 73, 0
2, 21840, Note_on_c, 0, 74, 100
2, 22020, Note_on_c, 0, 74, 0
2, 22020, Note_on_c, 0, 76, 100
2, 22080, Note_on_c, 0, 76, 0
2, 22080, Note_on_c, 0, 74, 100
2, 22140, Note_on_c, 0, 74, 0
2, 22200, Note_on_c, 0, 67, 0
2, 22200, Note_on_c, 0, 66, 100
2, 22200, Note_on_c, 0, 73, 100
2, 22440, Note_on_c, 0, 73, 0
2, 22440, Note_on_c, 0, 57, 100
2, 22440, Note_on_c, 0, 74, 100
2, 22680, Note_on_c, 0, 57, 0
2, 22680, Note_on_c, 0, 62, 100
2, 23160, Note_on_c, 0, 50, 0
2, 23160, Note_on_c, 0, 74, 0
2, 23160, Note_on_c, 0, 55, 100
2, 23160, Note_on_c, 0, 79, 100
2, 23220, Note_on_c, 0, 66, 0
2, 23280, Note_on_c, 0, 62, 0
2, 23580, Note_on_c, 0, 79, 0
2, 23640, Note_on_c, 0, 59, 100
2, 23640, Note_on_c, 0, 79, 100
2, 24120, Note_on_c, 0, 79, 0
2, 24120, Note_on_c, 0, 62, 100
2, 24120, Note_on_c, 0, 81, 100
2, 24180, Note_on_c, 0, 81, 0
2, 24180, Note_on_c, 0, 79, 100
2, 24240, Note_on_c, 0, 79, 0
2, 24240, Note_on_c, 0, 81, 100
2, 24480, Note_on_c, 0, 81, 0
2, 24480, Note_on_c, 0, 83, 100
2, 24600, Note_on_c, 0, 55, 0
2, 24600, Note_on_c, 0, 62, 0
2, 24600, Note_on_c, 0, 54, 100
2, 24600, Note_on_c, 0, 81, 100
2, 24660, Note_on_c, 0, 59, 0
2, 24720, Note_on_c, 0, 83, 0
2, 24840, Note_on_c, 0, 81, 0
2, 24840, Note_on_c, 0, 79, 100
2, 24960, Note_on_c, 0, 79, 0
2, 24960, Note_on_c, 0, 78, 100
2, 25080, Note_on_c, 0, 78, 0
2, 25080, Note_on_c, 0, 57, 100
2, 25080, Note_on_c, 0, 76, 100
2, 25320, Note_on_c, 0, 76, 0
2, 25320, Note_on_c, 0, 74, 100
2, 25560, Note_on_c, 0, 62, 100
2, 26040, Note_on_c, 0, 54, 0
2, 26040, Note_on_c, 0, 74, 0
2, 26040, Note_on_c, 0, 52, 100
2, 26040, Note_on_c, 0, 67, 100
2, 26100, Note_on_c, 0, 57, 0
2, 26100, Note_on_c, 0, 67, 0
2, 26100, Note_on_c, 0, 66, 100
2, 26160, Note_on_c, 0, 62, 0
2, 26160, Note_on_c, 0, 66, 0
2, 26160, Note_on_c, 0, 67, 100
2, 26520, Note_on_c, 0, 67, 0
2, 26520, Note_on_c, 0, 55, 100
2, 26520, Note_on_c, 0, 69, 100
2, 26580, Note_on_c, 0, 69, 0
2, 26580, Note_on_c, 0, 67, 100
2, 26640, Note_on_c, 0, 67, 0
2, 26640, Note_on_c, 0, 66, 100
2, 26700, Note_on_c, 0, 66, 0
2, 26700, Note_on_c, 0, 67, 100
2, 26760, Note_on_c, 0, 67, 0
2, 26760, Note_on_c, 0, 69, 100
2, 26820, Note_on_c, 0, 69, 0
2, 26820, Note_on_c, 0, 67, 100
2, 26880, Note_on_c, 0, 67, 0
2, 26880, Note_on_c, 0, 69, 100
2, 26940, Note_on_c, 0, 69, 0
2, 26940, Note_on_c, 0, 67, 100
2, 27000, Note_on_c, 0, 67, 0
2, 27000, Note_on_c, 0, 61, 100
2, 27000, Note_on_c, 0, 69, 100
2, 27060, Note_on_c, 0, 69, 0
2, 27120, Note_on_c, 0, 67, 100
2, 27180, Note_on_c, 0, 67, 0
2, 27180, Note_on_c, 0, 69, 100
2, 27240, Note_on_c, 0, 69, 0
2, 27240, Note_on_c, 0, 66, 100
2, 27240, Note_on_c, 0, 67, 100
2, 27300, Note_on_c, 0, 67, 0
2, 27360, Note_on_c, 0, 66, 0
2, 27360, Note_on_c, 0, 67, 100
2, 27480, Note_on_c, 0, 52, 0
2, 27480, Note_on_c, 0, 61, 0
2, 27480, Note_on_c, 0, 50, 100
2, 27480, Note_on_c, 0, 69, 100
2, 27540, Note_on_c, 0, 55, 0
2, 27540, Note_on_c, 0, 69, 0
2, 27600, Note_on_c, 0, 67, 0
2, 27600, Note_on_c, 0, 66, 100
2, 27720, Note_on_c, 0, 66, 0
2, 27720, Note_on_c, 0, 67, 100
2, 27780, Note_on_c, 0, 67, 0
2, 27780, Note_on_c, 0, 66, 100
2, 27840, Note_on_c, 0, 66, 0
2, 27840, Note_on_c, 0, 64, 100
2, 27900, Note_on_c, 0, 64, 0
2, 27960, Note_on_c, 0, 54, 100
2, 27960, Note_on_c, 0, 64, 100
2, 28200, Note_on_c, 0, 64, 0
2, 28200, Note_on_c, 0, 62, 100
2, 28440, Note_on_c, 0, 57, 100
2, 28680, Note_on_c, 0, 50, 0
2, 28680, Note_on_c, 0, 48, 100
2, 28920, Note_on_c, 0, 54, 0
2, 28920, Note_on_c, 0, 57, 0
2, 28920, Note_on_c, 0, 47, 100
2, 28920, Note_on_c, 0, 74, 100
2, 28980, Note_on_c, 0, 62, 0
2, 29040, Note_on_c, 0, 48, 0
2, 29340, Note_on_c, 0, 74, 0
2, 29400, Note_on_c, 0, 50, 100
2, 29400, Note_on_c, 0, 74, 100
2, 29880, Note_on_c, 0, 74, 0
2, 29880, Note_on_c, 0, 55, 100
2, 29880, Note_on_c, 0, 76, 100
2, 29940, Note_on_c, 0, 76, 0
2, 29940, Note_on_c, 0, 74, 100
2, 30000, Note_on_c, 0, 74, 0
2, 30000, Note_on_c, 0, 76, 100
2, 30240, Note_on_c, 0, 76, 0
2, 30240, Note_on_c, 0, 77, 100
2, 30360, Note_on_c, 0, 47, 0
2, 30360, Note_on_c, 0, 55, 0
2, 30360, Note_on_c, 0, 48, 100
2, 30360, Note_on_c, 0, 76, 100
2, 30420, Note_on_c, 0, 50, 0
2, 30480, Note_on_c, 0, 77, 0
2, 30600, Note_on_c, 0, 76, 0
2, 30600, Note_on_c, 0, 74, 100
2, 30720, Note_on_c, 0, 74, 0
2, 30720, Note_on_c, 0, 72, 100
2, 30840, Note_on_c, 0, 72, 0
2, 30840, Note_on_c, 0, 52, 100
2, 30840, Note_on_c, 0, 71, 100
2, 31080, Note_on_c, 0, 71, 0
2, 31080, Note_on_c, 0, 69, 100
2, 31320, Note_on_c, 0, 57, 100
2, 31560, Note_on_c, 0, 48, 0
2, 31560, Note_on_c, 0, 69, 0
2, 31560, Note_on_c, 0, 50, 100
2, 31560, Note_on_c, 0, 79, 100
2, 31620, Note_on_c, 0, 52, 0
2, 31620, Note_on_c, 0, 79, 0
2, 31620, Note_on_c, 0, 78, 100
2, 31680, Note_on_c, 0, 78, 0
2, 31680, Note_on_c, 0, 76, 100
2, 31740, Note_on_c, 0, 76, 0
2, 31740, Note_on_c, 0, 78, 100
2, 31800, Note_on_c, 0, 57, 0
2, 31800, Note_on_c, 0, 78, 0
2, 31800, Note_on_c, 0, 52, 100
2, 31800, Note_on_c, 0, 79, 100
2, 31860, Note_on_c, 0, 50, 0
2, 31860, Note_on_c, 0, 79, 0
2, 31860, Note_on_c, 0, 78, 100
2, 32040, Note_on_c, 0, 52, 0
2, 32040, Note_on_c, 0, 48, 100
2, 32040, Note_on_c, 0, 60, 100
2, 32040, Note_on_c, 0, 81, 100
2, 32100, Note_on_c, 0, 78, 0
2, 32100, Note_on_c, 0, 81, 0
2, 32100, Note_on_c, 0, 79, 100
2, 32280, Note_on_c, 0, 48, 0
2, 32280, Note_on_c, 0, 79, 0
2, 32280, Note_on_c, 0, 50, 100
2, 32280, Note_on_c, 0, 78, 100
2, 32340, Note_on_c, 0, 78, 0
2, 32340, Note_on_c, 0, 76, 100
2, 32520, Note_on_c, 0, 60, 0
2, 32520, Note_on_c, 0, 76, 0
2, 32520, Note_on_c, 0, 59, 100
2, 32520, Note_on_c, 0, 74, 100
2, 32580, Note_on_c, 0, 74, 0
2, 32580, Note_on_c, 0, 72, 100
2, 32640, Note_on_c, 0, 59, 0
2, 32640, Note_on_c, 0, 57, 100
2, 32700, Note_on_c, 0, 72, 0
2, 32760, Note_on_c, 0, 57, 0
2, 32760, Note_on_c, 0, 55, 100
2, 32760, Note_on_c, 0, 72, 100
2, 32880, Note_on_c, 0, 55, 0
2, 32880, Note_on_c, 0, 54, 100
2, 32880, Note_on_c, 0, 81, 100
2, 32940, Note_on_c, 0, 72, 0
2, 33000, Note_on_c, 0, 54, 0
2, 33000, Note_on_c, 0, 52, 100
2, 33120, Note_on_c, 0, 81, 0
2, 33120, Note_on_c, 0, 54, 100
2, 33120, Note_on_c, 0, 72, 100
2, 33180, Note_on_c, 0, 52, 0
2, 33240, Note_on_c, 0, 50, 0
2, 33240, Note_on_c, 0, 72, 0
2, 33240, Note_on_c, 0, 43, 100
2, 33240, Note_on_c, 0, 55, 100
2, 33240, Note_on_c, 0, 71, 100
2, 33300, Note_on_c, 0, 54, 0
2, 33300, Note_on_c, 0, 71, 0
2, 33300, Note_on_c, 0, 67, 100
2, 33480, Note_on_c, 0, 55, 0
2, 33480, Note_on_c, 0, 57, 100
2, 33600, Note_on_c, 0, 67, 0
2, 33600, Note_on_c, 0, 66, 100
2, 33660, Note_on_c, 0, 66, 0
2, 33720, Note_on_c, 0, 57, 0
2, 33720, Note_on_c, 0, 59, 100
2, 33720, Note_on_c, 0, 66, 100
2, 33960, Note_on_c, 0, 43, 0
2, 33960, Note_on_c, 0, 66, 0
2, 33960, Note_on_c, 0, 50, 100
2, 33960, Note_on_c, 0, 67, 100
2, 34020, Note_on_c, 0, 67, 0
2, 34020, Note_on_c, 0, 66, 100
2, 34080, Note_on_c, 0, 66, 0
2, 34080, Note_on_c, 0, 67, 100
2, 34200, Note_on_c, 0, 50, 0
2, 34260, Note_on_c, 0, 52, 100
2, 34560, Note_on_c, 0, 52, 0
2, 34560, Note_on_c, 0, 54, 100
2, 34680, Note_on_c, 0, 59, 0
2, 34680, Note_on_c, 0, 54, 0
2, 34680, Note_on_c, 0, 55, 100
2, 34680, Note_on_c, 0, 71, 100
2, 34740, Note_on_c, 0, 67, 0
2, 35100, Note_on_c, 0, 71, 0
2, 35160, Note_on_c, 0, 59, 100
2, 35160, Note_on_c, 0, 71, 100
2, 35640, Note_on_c, 0, 71, 0
2, 35640, Note_on_c, 0, 64, 100
2, 35640, Note_on_c, 0, 73, 100
2, 35700, Note_on_c, 0, 73, 0
2, 35700, Note_on_c, 0, 71, 100
2, 35760, Note_on_c, 0, 71, 0
2, 35760, Note_on_c, 0, 73, 100
2, 36000, Note_on_c, 0, 73, 0
2, 36000, Note_on_c, 0, 74, 100
2, 36060, Note_on_c, 0, 74, 0
2, 36120, Note_on_c, 0, 59, 0
2, 36120, Note_on_c, 0, 57, 100
2, 36120, Note_on_c, 0, 74, 100
2, 36180, Note_on_c, 0, 64, 0
2, 36240, Note_on_c, 0, 74, 0
2, 36240, Note_on_c, 0, 73, 100
2, 36360, Note_on_c, 0, 73, 0
2, 36360, Note_on_c, 0, 71, 100
2, 36480, Note_on_c, 0, 71, 0
2, 36480, Note_on_c, 0, 69, 100
2, 36540, Note_on_c, 0, 55, 0
2, 36600, Note_on_c, 0, 57, 0
2, 36600, Note_on_c, 0, 55, 100
2, 36600, Note_on_c, 0, 74, 100
2, 36660, Note_on_c, 0, 55, 0
2, 36720, Note_on_c, 0, 54, 100
2, 36840, Note_on_c, 0, 54, 0
2, 36840, Note_on_c, 0, 52, 100
2, 37080, Note_on_c, 0, 52, 0
2, 37080, Note_on_c, 0, 54, 100
2, 37320, Note_on_c, 0, 54, 0
2, 37320, Note_on_c, 0, 59, 100
2, 37500, Note_on_c, 0, 69, 0
2, 37500, Note_on_c, 0, 67, 100
2, 37500, Note_on_c, 0, 71, 100
2, 37560, Note_on_c, 0, 74, 0
2, 37560, Note_on_c, 0, 52, 100
2, 37560, Note_on_c, 0, 76, 100
2, 37560, Note_on_c, 0, 79, 100
2, 37620, Note_on_c, 0, 59, 0
2, 37800, Note_on_c, 0, 59, 100
2, 37980, Note_on_c, 0, 67, 0
2, 38040, Note_on_c, 0, 71, 0
2, 38040, Note_on_c, 0, 76, 0
2, 38040, Note_on_c, 0, 59, 0
2, 38040, Note_on_c, 0, 64, 100
2, 38040, Note_on_c, 0, 81, 100
2, 38100, Note_on_c, 0, 81, 0
2, 38160, Note_on_c, 0, 79, 0
2, 38160, Note_on_c, 0, 78, 100
2, 38220, Note_on_c, 0, 52, 0
2, 38220, Note_on_c, 0, 78, 0
2, 38220, Note_on_c, 0, 79, 100
2, 38280, Note_on_c, 0, 79, 0
2, 38280, Note_on_c, 0, 52, 100
2, 38280, Note_on_c, 0, 81, 100
2, 38340, Note_on_c, 0, 81, 0
2, 38340, Note_on_c, 0, 79, 100
2, 38400, Note_on_c, 0, 79, 0
2, 38400, Note_on_c, 0, 81, 100
2, 38460, Note_on_c, 0, 81, 0
2, 38460, Note_on_c, 0, 79, 100
2, 38520, Note_on_c, 0, 52, 0
2, 38520, Note_on_c, 0, 54, 100
2, 38520, Note_on_c, 0, 81, 100
2, 38580, Note_on_c, 0, 79, 0
2, 38580, Note_on_c, 0, 81, 0
2, 38640, Note_on_c, 0, 79, 100
2, 38700, Note_on_c, 0, 79, 0
2, 38700, Note_on_c, 0, 81, 100
2, 38760, Note_on_c, 0, 64, 0
2, 38760, Note_on_c, 0, 81, 0
2, 38760, Note_on_c, 0, 55, 100
2, 38760, Note_on_c, 0, 62, 100
2, 38760, Note_on_c, 0, 78, 100
2, 38820, Note_on_c, 0, 54, 0
2, 38880, Note_on_c, 0, 78, 0
2, 38880, Note_on_c, 0, 79, 100
2, 38940, Note_on_c, 0, 79, 0
2, 39000, Note_on_c, 0, 55, 0
2, 39000, Note_on_c, 0, 57, 100
2, 39000, Note_on_c, 0, 61, 100
2, 39000, Note_on_c, 0, 79, 100
2, 39060, Note_on_c, 0, 62, 0
2, 39240, Note_on_c, 0, 61, 0
2, 39240, Note_on_c, 0, 62, 100
2, 39240, Note_on_c, 0, 78, 100
2, 39300, Note_on_c, 0, 79, 0
2, 39360, Note_on_c, 0, 78, 0
2, 39360, Note_on_c, 0, 76, 100
2, 39480, Note_on_c, 0, 62, 0
2, 39480, Note_on_c, 0, 64, 100
2, 39480, Note_on_c, 0, 74, 100
2, 39540, Note_on_c, 0, 76, 0
2, 39540, Note_on_c, 0, 74, 0
2, 39540, Note_on_c, 0, 73, 100
2, 39600, Note_on_c, 0, 73, 0
2, 39600, Note_on_c, 0, 71, 100
2, 39660, Note_on_c, 0, 71, 0
2, 39660, Note_on_c, 0, 73, 100
2, 39720, Note_on_c, 0, 57, 0
2, 39720, Note_on_c, 0, 73, 0
2, 39720, Note_on_c, 0, 59, 100
2, 39720, Note_on_c, 0, 74, 100
2, 39780, Note_on_c, 0, 74, 0
2, 39780, Note_on_c, 0, 73, 100
2, 39840, Note_on_c, 0, 73, 0
2, 39840, Note_on_c, 0, 74, 100
2, 39900, Note_on_c, 0, 74, 0
2, 39960, Note_on_c, 0, 59, 0
2, 39960, Note_on_c, 0, 57, 100
2, 39960, Note_on_c, 0, 73, 100
2, 40200, Note_on_c, 0, 57, 0
2, 40200, Note_on_c, 0, 55, 100
2, 40200, Note_on_c, 0, 76, 100
2, 40260, Note_on_c, 0, 73, 0
2, 40440, Note_on_c, 0, 64, 0
2, 40440, Note_on_c, 0, 76, 0
2, 40440, Note_on_c, 0, 54, 100
2, 40440, Note_on_c, 0, 81, 100
2, 40500, Note_on_c, 0, 55, 0
2, 40560, Note_on_c, 0, 81, 0
2, 40560, Note_on_c, 0, 79, 100
2, 40680, Note_on_c, 0, 79, 0
2, 40680, Note_on_c, 0, 78, 100
2, 40800, Note_on_c, 0, 78, 0
2, 40800, Note_on_c, 0, 76, 100
2, 40920, Note_on_c, 0, 76, 0
2, 40920, Note_on_c, 0, 57, 100
2, 40920, Note_on_c, 0, 74, 100
2, 41160, Note_on_c, 0, 74, 0
2, 41160, Note_on_c, 0, 69, 100
2, 41400, Note_on_c, 0, 62, 100
2, 41700, Note_on_c, 0, 69, 0
2, 41700, Note_on_c, 0, 71, 100
2, 41760, Note_on_c, 0, 71, 0
2, 41760, Note_on_c, 0, 72, 100
2, 41880, Note_on_c, 0, 54, 0
2, 41880, Note_on_c, 0, 62, 0
2, 41880, Note_on_c, 0, 55, 100
2, 41880, Note_on_c, 0, 71, 100
2, 41940, Note_on_c, 0, 57, 0
2, 42000, Note_on_c, 0, 72, 0
2, 42000, Note_on_c, 0, 71, 0
2, 42000, Note_on_c, 0, 69, 100
2, 42120, Note_on_c, 0, 69, 0
2, 42120, Note_on_c, 0, 67, 100
2, 42240, Note_on_c, 0, 67, 0
2, 42240, Note_on_c, 0, 66, 100
2, 42360, Note_on_c, 0, 66, 0
2, 42360, Note_on_c, 0, 59, 100
2, 42360, Note_on_c, 0, 64, 100
2, 42600, Note_on_c, 0, 64, 0
2, 42600, Note_on_c, 0, 74, 100
2, 42720, Note_on_c, 0, 74, 0
2, 42720, Note_on_c, 0, 73, 100
2, 42840, Note_on_c, 0, 59, 0
2, 42840, Note_on_c, 0, 64, 100
2, 43140, Note_on_c, 0, 73, 0
2, 43140, Note_on_c, 0, 74, 100
2, 43200, Note_on_c, 0, 74, 0
2, 43200, Note_on_c, 0, 76, 100
2, 43320, Note_on_c, 0, 55, 0
2, 43320, Note_on_c, 0, 76, 0
2, 43320, Note_on_c, 0, 57, 100
2, 43320, Note_on_c, 0, 66, 100
2, 43320, Note_on_c, 0, 74, 100
2, 43380, Note_on_c, 0, 64, 0
2, 43440, Note_on_c, 0, 74, 0
2, 43440, Note_on_c, 0, 73, 100
2, 43560, Note_on_c, 0, 73, 0
2, 43560, Note_on_c, 0, 71, 100
2, 43680, Note_on_c, 0, 71, 0
2, 43680, Note_on_c, 0, 69, 100
2, 43800, Note_on_c, 0, 66, 0
2, 43800, Note_on_c, 0, 64, 100
2, 43800, Note_on_c, 0, 79, 100
2, 43860, Note_on_c, 0, 69, 0
2, 44040, Note_on_c, 0, 79, 0
2, 44040, Note_on_c, 0, 71, 100
2, 44160, Note_on_c, 0, 64, 0
2, 44160, Note_on_c, 0, 66, 100
2, 44280, Note_on_c, 0, 66, 0
2, 44280, Note_on_c, 0, 67, 100
2, 44520, Note_on_c, 0, 71, 0
2, 44520, Note_on_c, 0, 73, 100
2, 44700, Note_on_c, 0, 73, 0
2, 44760, Note_on_c, 0, 57, 0
2, 44760, Note_on_c, 0, 50, 100
2, 44760, Note_on_c, 0, 73, 100
2, 44880, Note_on_c, 0, 73, 0
2, 44880, Note_on_c, 0, 74, 100
2, 45060, Note_on_c, 0, 74, 0
2, 45060, Note_on_c, 0, 76, 100
2, 45120, Note_on_c, 0, 76, 0
2, 45120, Note_on_c, 0, 74, 100
2, 45180, Note_on_c, 0, 74, 0
2, 45240, Note_on_c, 0, 67, 0
2, 45240, Note_on_c, 0, 66, 100
2, 45240, Note_on_c, 0, 73, 100
2, 45480, Note_on_c, 0, 73, 0
2, 45480, Note_on_c, 0, 57, 100
2, 45480, Note_on_c, 0, 74, 100
2, 45720, Note_on_c, 0, 57, 0
2, 45720, Note_on_c, 0, 62, 100
2, 46140, Note_on_c, 0, 62, 0
2, 46200, Note_on_c, 0, 50, 0
2, 46200, Note_on_c, 0, 74, 0
2, 46200, Note_on_c, 0, 62, 100
2, 46200, Note_on_c, 0, 69, 100
2, 46260, Note_on_c, 0, 66, 0
2, 46260, Note_on_c, 0, 69, 0
2, 46260, Note_on_c, 0, 67, 100
2, 46320, Note_on_c, 0, 67, 0
2, 46320, Note_on_c, 0, 69, 100
2, 46440, Note_on_c, 0, 64, 100
2, 46680, Note_on_c, 0, 69, 0
2, 46680, Note_on_c, 0, 71, 100
2, 46740, Note_on_c, 0, 64, 0
2, 46740, Note_on_c, 0, 66, 100
2, 46740, Note_on_c, 0, 69, 100
2, 46800, Note_on_c, 0, 71, 0
2, 46800, Note_on_c, 0, 69, 0
2, 46800, Note_on_c, 0, 67, 100
2, 46860, Note_on_c, 0, 67, 0
2, 46860, Note_on_c, 0, 69, 100
2, 46920, Note_on_c, 0, 69, 0
2, 46920, Note_on_c, 0, 71, 100
2, 46980, Note_on_c, 0, 71, 0
2, 47040, Note_on_c, 0, 69, 100
2, 47100, Note_on_c, 0, 69, 0
2, 47160, Note_on_c, 0, 62, 0
2, 47160, Note_on_c, 0, 60, 100
2, 47160, Note_on_c, 0, 71, 100
2, 47220, Note_on_c, 0, 71, 0
2, 47280, Note_on_c, 0, 69, 100
2, 47340, Note_on_c, 0, 69, 0
2, 47340, Note_on_c, 0, 71, 100
2, 47400, Note_on_c, 0, 71, 0
2, 47400, Note_on_c, 0, 72, 100
2, 47460, Note_on_c, 0, 72, 0
2, 47460, Note_on_c, 0, 74, 100
2, 47520, Note_on_c, 0, 74, 0
2, 47520, Note_on_c, 0, 76, 100
2, 47580, Note_on_c, 0, 76, 0
2, 47640, Note_on_c, 0, 66, 0
2, 47640, Note_on_c, 0, 59, 100
2, 47640, Note_on_c, 0, 76, 100
2, 47700, Note_on_c, 0, 60, 0
2, 47760, Note_on_c, 0, 76, 0
2, 47760, Note_on_c, 0, 74, 100
2, 47880, Note_on_c, 0, 74, 0
2, 47880, Note_on_c, 0, 60, 100
2, 47880, Note_on_c, 0, 72, 100
2, 48000, Note_on_c, 0, 72, 0
2, 48000, Note_on_c, 0, 71, 100
2, 48120, Note_on_c, 0, 60, 0
2, 48120, Note_on_c, 0, 62, 100
2, 48120, Note_on_c, 0, 69, 100
2, 48180, Note_on_c, 0, 71, 0
2, 48360, Note_on_c, 0, 59, 0
2, 48360, Note_on_c, 0, 69, 0
2, 48360, Note_on_c, 0, 57, 100
2, 48360, Note_on_c, 0, 67, 100
2, 48600, Note_on_c, 0, 57, 0
2, 48600, Note_on_c, 0, 59, 100
2, 48840, Note_on_c, 0, 67, 0
2, 48840, Note_on_c, 0, 79, 100
2, 49080, Note_on_c, 0, 62, 0
2, 49080, Note_on_c, 0, 79, 0
2, 49080, Note_on_c, 0, 60, 100
2, 49080, Note_on_c, 0, 78, 100
2, 49140, Note_on_c, 0, 59, 0
2, 49200, Note_on_c, 0, 78, 0
2, 49200, Note_on_c, 0, 76, 100
2, 49320, Note_on_c, 0, 64, 100
2, 49440, Note_on_c, 0, 76, 0
2, 49440, Note_on_c, 0, 78, 100
2, 49500, Note_on_c, 0, 78, 0
2, 49560, Note_on_c, 0, 64, 0
2, 49560, Note_on_c, 0, 67, 100
2, 49560, Note_on_c, 0, 75, 100
2, 49800, Note_on_c, 0, 60, 0
2, 49800, Note_on_c, 0, 75, 0
2, 49800, Note_on_c, 0, 59, 100
2, 49860, Note_on_c, 0, 76, 100
2, 49980, Note_on_c, 0, 67, 0
2, 50040, Note_on_c, 0, 59, 0
2, 50040, Note_on_c, 0, 57, 100
2, 50040, Note_on_c, 0, 67, 100
2, 50100, Note_on_c, 0, 67, 0
2, 50160, Note_on_c, 0, 66, 100
2, 50280, Note_on_c, 0, 76, 0
2, 50280, Note_on_c, 0, 66, 0
2, 50280, Note_on_c, 0, 64, 100
2, 50280, Note_on_c, 0, 81, 100
2, 50340, Note_on_c, 0, 81, 0
2, 50340, Note_on_c, 0, 83, 100
2, 50400, Note_on_c, 0, 83, 0
2, 50400, Note_on_c, 0, 81, 100
2, 50460, Note_on_c, 0, 81, 0
2, 50460, Note_on_c, 0, 79, 100
2, 50520, Note_on_c, 0, 57, 0
2, 50520, Note_on_c, 0, 79, 0
2, 50520, Note_on_c, 0, 59, 100
2, 50520, Note_on_c, 0, 63, 100
2, 50520, Note_on_c, 0, 81, 100
2, 50580, Note_on_c, 0, 64, 0
2, 50760, Note_on_c, 0, 63, 0
2, 50760, Note_on_c, 0, 64, 100
2, 50880, Note_on_c, 0, 81, 0
2, 50880, Note_on_c, 0, 78, 100
2, 51000, Note_on_c, 0, 64, 0
2, 51000, Note_on_c, 0, 66, 100
2, 51000, Note_on_c, 0, 76, 100
2, 51060, Note_on_c, 0, 78, 0
2, 51240, Note_on_c, 0, 59, 0
2, 51240, Note_on_c, 0, 76, 0
2, 51240, Note_on_c, 0, 57, 100
2, 51240, Note_on_c, 0, 75, 100
2, 51480, Note_on_c, 0, 57, 0
2, 51480, Note_on_c, 0, 55, 100
2, 51720, Note_on_c, 0, 75, 0
2, 51720, Note_on_c, 0, 54, 100
2, 51720, Note_on_c, 0, 71, 100
2, 51780, Note_on_c, 0, 55, 0
2, 51960, Note_on_c, 0, 66, 0
2, 51960, Note_on_c, 0, 71, 0
2, 51960, Note_on_c, 0, 52, 100
2, 51960, Note_on_c, 0, 76, 100
2, 52020, Note_on_c, 0, 54, 0
2, 52020, Note_on_c, 0, 76, 0
2, 52020, Note_on_c, 0, 78, 100
2, 52080, Note_on_c, 0, 78, 0
2, 52080, Note_on_c, 0, 79, 100
2, 52200, Note_on_c, 0, 57, 100
2, 52320, Note_on_c, 0, 79, 0
2, 52320, Note_on_c, 0, 78, 100
2, 52380, Note_on_c, 0, 57, 0
2, 52440, Note_on_c, 0, 57, 100
2, 52500, Note_on_c, 0, 57, 0
2, 52560, Note_on_c, 0, 55, 100
2, 52680, Note_on_c, 0, 78, 0
2, 52680, Note_on_c, 0, 54, 100
2, 52680, Note_on_c, 0, 76, 100
2, 52740, Note_on_c, 0, 55, 0
2, 52920, Note_on_c, 0, 52, 0
2, 52920, Note_on_c, 0, 50, 100
2, 52920, Note_on_c, 0, 55, 100
2, 52980, Note_on_c, 0, 54, 0
2, 53040, Note_on_c, 0, 76, 0
2, 53040, Note_on_c, 0, 71, 100
2, 53160, Note_on_c, 0, 71, 0
2, 53160, Note_on_c, 0, 72, 100
2, 53220, Note_on_c, 0, 72, 0
2, 53220, Note_on_c, 0, 71, 100
2, 53280, Note_on_c, 0, 71, 0
2, 53280, Note_on_c, 0, 69, 100
2, 53340, Note_on_c, 0, 69, 0
2, 53340, Note_on_c, 0, 71, 100
2, 53400, Note_on_c, 0, 50, 0
2, 53400, Note_on_c, 0, 71, 0
2, 53400, Note_on_c, 0, 48, 100
2, 53400, Note_on_c, 0, 79, 100
2, 53460, Note_on_c, 0, 55, 0
2, 53460, Note_on_c, 0, 79, 0
2, 53460, Note_on_c, 0, 76, 100
2, 53640, Note_on_c, 0, 76, 0
2, 53640, Note_on_c, 0, 57, 100
2, 53640, Note_on_c, 0, 78, 100
2, 53700, Note_on_c, 0, 78, 0
2, 53700, Note_on_c, 0, 75, 100
2, 53820, Note_on_c, 0, 57, 0
2, 53880, Note_on_c, 0, 57, 100
2, 53940, Note_on_c, 0, 57, 0
2, 54000, Note_on_c, 0, 75, 0
2, 54000, Note_on_c, 0, 55, 100
2, 54000, Note_on_c, 0, 76, 100
2, 54120, Note_on_c, 0, 48, 0
2, 54120, Note_on_c, 0, 54, 100
2, 54180, Note_on_c, 0, 55, 0
2, 54360, Note_on_c, 0, 54, 0
2, 54360, Note_on_c, 0, 47, 100
2, 54360, Note_on_c, 0, 55, 100
2, 54480, Note_on_c, 0, 76, 0
2, 54480, Note_on_c, 0, 67, 100
2, 54600, Note_on_c, 0, 55, 0
2, 54600, Note_on_c, 0, 59, 100
2, 54600, Note_on_c, 0, 66, 100
2, 54660, Note_on_c, 0, 67, 0
2, 54720, Note_on_c, 0, 66, 0
2, 54720, Note_on_c, 0, 64, 100
2, 54840, Note_on_c, 0, 47, 0
2, 54840, Note_on_c, 0, 64, 0
2, 54840, Note_on_c, 0, 45, 100
2, 54840, Note_on_c, 0, 66, 100
2, 54900, Note_on_c, 0, 59, 0
2, 55080, Note_on_c, 0, 45, 0
2, 55080, Note_on_c, 0, 48, 100
2, 55200, Note_on_c, 0, 76, 100
2, 55260, Note_on_c, 0, 76, 0
2, 55320, Note_on_c, 0, 48, 0
2, 55320, Note_on_c, 0, 47, 100
2, 55320, Note_on_c, 0, 76, 100
2, 55440, Note_on_c, 0, 76, 0
2, 55440, Note_on_c, 0, 75, 100
2, 55560, Note_on_c, 0, 66, 0
2, 55560, Note_on_c, 0, 75, 0
2, 55560, Note_on_c, 0, 45, 100
2, 55560, Note_on_c, 0, 72, 100
2, 55560, Note_on_c, 0, 78, 100
2, 55620, Note_on_c, 0, 47, 0
2, 55620, Note_on_c, 0, 78, 0
2, 55620, Note_on_c, 0, 79, 100
2, 55680, Note_on_c, 0, 79, 0
2, 55680, Note_on_c, 0, 81, 100
2, 55800, Note_on_c, 0, 45, 0
2, 55800, Note_on_c, 0, 81, 0
2, 55800, Note_on_c, 0, 47, 100
2, 55800, Note_on_c, 0, 71, 100
2, 55800, Note_on_c, 0, 79, 100
2, 55860, Note_on_c, 0, 72, 0
2, 56040, Note_on_c, 0, 71, 0
2, 56040, Note_on_c, 0, 51, 100
2, 56040, Note_on_c, 0, 69, 100
2, 56040, Note_on_c, 0, 78, 100
2, 56100, Note_on_c, 0, 79, 0
2, 56220, Note_on_c, 0, 78, 0
2, 56280, Note_on_c, 0, 47, 0
2, 56280, Note_on_c, 0, 52, 100
2, 56280, Note_on_c, 0, 78, 100
2, 56340, Note_on_c, 0, 51, 0
2, 56400, Note_on_c, 0, 78, 0
2, 56400, Note_on_c, 0, 76, 100
2, 56520, Note_on_c, 0, 47, 100
2, 56640, Note_on_c, 0, 76, 0
2, 56640, Note_on_c, 0, 78, 100
2, 56700, Note_on_c, 0, 78, 0
2, 56760, Note_on_c, 0, 69, 0
2, 56760, Note_on_c, 0, 47, 0
2, 56760, Note_on_c, 0, 40, 100
2, 56760, Note_on_c, 0, 67, 100
2, 56760, Note_on_c, 0, 75, 100
2, 56820, Note_on_c, 0, 52, 0
2, 57000, Note_on_c, 0, 40, 0
2, 57000, Note_on_c, 0, 75, 0
2, 57000, Note_on_c, 0, 47, 100
2, 57000, Note_on_c, 0, 76, 100
2, 57240, Note_on_c, 0, 47, 0
2, 57240, Note_on_c, 0, 52, 100
2, 57480, Note_on_c, 0, 52, 0
2, 57480, Note_on_c, 0, 50, 100
2, 57660, Note_on_c, 0, 76, 0
2, 57720, Note_on_c, 0, 67, 0
2, 57720, Note_on_c, 0, 48, 100
2, 57720, Note_on_c, 0, 76, 100
2, 57780, Note_on_c, 0, 50, 0
2, 57960, Note_on_c, 0, 76, 0
2, 57960, Note_on_c, 0, 74, 100
2, 58080, Note_on_c, 0, 74, 0
2, 58080, Note_on_c, 0, 72, 100
2, 58200, Note_on_c, 0, 72, 0
2, 58200, Note_on_c, 0, 52, 100
2, 58200, Note_on_c, 0, 71, 100
2, 58440, Note_on_c, 0, 71, 0
2, 58440, Note_on_c, 0, 69, 100
2, 58680, Note_on_c, 0, 57, 100
2, 58920, Note_on_c, 0, 69, 0
2, 58920, Note_on_c, 0, 71, 100
2, 59040, Note_on_c, 0, 71, 0
2, 59040, Note_on_c, 0, 72, 100
2, 59160, Note_on_c, 0, 48, 0
2, 59160, Note_on_c, 0, 72, 0
2, 59160, Note_on_c, 0, 47, 100
2, 59160, Note_on_c, 0, 74, 100
2, 59220, Note_on_c, 0, 52, 0
2, 59220, Note_on_c, 0, 74, 0
2, 59220, Note_on_c, 0, 72, 100
2, 59280, Note_on_c, 0, 72, 0
2, 59280, Note_on_c, 0, 71, 100
2, 59400, Note_on_c, 0, 57, 0
2, 59400, Note_on_c, 0, 71, 0
2, 59400, Note_on_c, 0, 54, 100
2, 59400, Note_on_c, 0, 72, 100
2, 59460, Note_on_c, 0, 72, 0
2, 59460, Note_on_c, 0, 71, 100
2, 59520, Note_on_c, 0, 71, 0
2, 59520, Note_on_c, 0, 69, 100
2, 59580, Note_on_c, 0, 69, 0
2, 59640, Note_on_c, 0, 54, 0
2, 59640, Note_on_c, 0, 52, 100
2, 59640, Note_on_c, 0, 69, 100
2, 59760, Note_on_c, 0, 52, 0
2, 59760, Note_on_c, 0, 50, 100
2, 59880, Note_on_c, 0, 69, 0
2, 59880, Note_on_c, 0, 52, 100
2, 59880, Note_on_c, 0, 67, 100
2, 59940, Note_on_c, 0, 50, 0
2, 60000, Note_on_c, 0, 52, 0
2, 60000, Note_on_c, 0, 54, 100
2, 60120, Note_on_c, 0, 54, 0
2, 60120, Note_on_c, 0, 55, 100
2, 60240, Note_on_c, 0, 55, 0
2, 60240, Note_on_c, 0, 54, 100
2, 60360, Note_on_c, 0, 67, 0
2, 60360, Note_on_c, 0, 55, 100
2, 60360, Note_on_c, 0, 69, 100
2, 60420, Note_on_c, 0, 54, 0
2, 60480, Note_on_c, 0, 69, 0
2, 60480, Note_on_c, 0, 71, 100
2, 60600, Note_on_c, 0, 47, 0
2, 60600, Note_on_c, 0, 71, 0
2, 60600, Note_on_c, 0, 45, 100
2, 60600, Note_on_c, 0, 72, 100
2, 60720, Note_on_c, 0, 72, 0
2, 60720, Note_on_c, 0, 74, 100
2, 60840, Note_on_c, 0, 55, 0
2, 60840, Note_on_c, 0, 74, 0
2, 60840, Note_on_c, 0, 52, 100
2, 60840, Note_on_c, 0, 72, 100
2, 60960, Note_on_c, 0, 72, 0
2, 60960, Note_on_c, 0, 71, 100
2, 61080, Note_on_c, 0, 52, 0
2, 61080, Note_on_c, 0, 57, 100
2, 61080, Note_on_c, 0, 72, 100
2, 61140, Note_on_c, 0, 71, 0
2, 61200, Note_on_c, 0, 72, 0
2, 61200, Note_on_c, 0, 69, 100
2, 61320, Note_on_c, 0, 45, 0
2, 61320, Note_on_c, 0, 69, 0
2, 61320, Note_on_c, 0, 43, 100
2, 61320, Note_on_c, 0, 64, 100
2, 61380, Note_on_c, 0, 57, 0
2, 61440, Note_on_c, 0, 69, 100
2, 61560, Note_on_c, 0, 43, 0
2, 61560, Note_on_c, 0, 69, 0
2, 61560, Note_on_c, 0, 42, 100
2, 61560, Note_on_c, 0, 72, 100
2, 61680, Note_on_c, 0, 64, 0
2, 61680, Note_on_c, 0, 71, 100
2, 61800, Note_on_c, 0, 42, 0
2, 61800, Note_on_c, 0, 71, 0
2, 61800, Note_on_c, 0, 40, 100
2, 61800, Note_on_c, 0, 69, 100
2, 61920, Note_on_c, 0, 69, 0
2, 61920, Note_on_c, 0, 67, 100
2, 62040, Note_on_c, 0, 40, 0
2, 62040, Note_on_c, 0, 38, 100
2, 62040, Note_on_c, 0, 66, 100
2, 62100, Note_on_c, 0, 67, 0
2, 62160, Note_on_c, 0, 72, 0
2, 62160, Note_on_c, 0, 74, 100
2, 62280, Note_on_c, 0, 38, 0
2, 62280, Note_on_c, 0, 74, 0
2, 62280, Note_on_c, 0, 45, 100
2, 62280, Note_on_c, 0, 72, 100
2, 62400, Note_on_c, 0, 72, 0
2, 62400, Note_on_c, 0, 71, 100
2, 62520, Note_on_c, 0, 66, 0
2, 62520, Note_on_c, 0, 71, 0
2, 62520, Note_on_c, 0, 50, 100
2, 62520, Note_on_c, 0, 72, 100
2, 62580, Note_on_c, 0, 45, 0
2, 62640, Note_on_c, 0, 72, 0
2, 62640, Note_on_c, 0, 69, 100
2, 62760, Note_on_c, 0, 50, 0
2, 62760, Note_on_c, 0, 48, 100
2, 62760, Note_on_c, 0, 66, 100
2, 62820, Note_on_c, 0, 69, 0
2, 62880, Note_on_c, 0, 69, 100
2, 63000, Note_on_c, 0, 48, 0
2, 63000, Note_on_c, 0, 69, 0
2, 63000, Note_on_c, 0, 47, 100
2, 63000, Note_on_c, 0, 72, 100
2, 63120, Note_on_c, 0, 72, 0
2, 63120, Note_on_c, 0, 76, 100
2, 63240, Note_on_c, 0, 47, 0
2, 63240, Note_on_c, 0, 45, 100
2, 63240, Note_on_c, 0, 74, 100
2, 63300, Note_on_c, 0, 76, 0
2, 63360, Note_on_c, 0, 74, 0
2, 63360, Note_on_c, 0, 72, 100
2, 63480, Note_on_c, 0, 66, 0
2, 63480, Note_on_c, 0, 72, 0
2, 63480, Note_on_c, 0, 43, 100
2, 63480, Note_on_c, 0, 67, 100
2, 63480, Note_on_c, 0, 71, 100
2, 63540, Note_on_c, 0, 45, 0
2, 63600, Note_on_c, 0, 71, 0
2, 63600, Note_on_c, 0, 72, 100
2, 63720, Note_on_c, 0, 43, 0
2, 63720, Note_on_c, 0, 72, 0
2, 63720, Note_on_c, 0, 50, 100
2, 63720, Note_on_c, 0, 71, 100
2, 63780, Note_on_c, 0, 67, 0
2, 63840, Note_on_c, 0, 71, 0
2, 63840, Note_on_c, 0, 69, 100
2, 63960, Note_on_c, 0, 50, 0
2, 63960, Note_on_c, 0, 55, 100
2, 63960, Note_on_c, 0, 71, 100
2, 64020, Note_on_c, 0, 69, 0
2, 64080, Note_on_c, 0, 71, 0
2, 64080, Note_on_c, 0, 67, 100
2, 64200, Note_on_c, 0, 55, 0
2, 64200, Note_on_c, 0, 53, 100
2, 64200, Note_on_c, 0, 62, 100
2, 64260, Note_on_c, 0, 67, 0
2, 64320, Note_on_c, 0, 67, 100
2, 64440, Note_on_c, 0, 53, 0
2, 64440, Note_on_c, 0, 67, 0
2, 64440, Note_on_c, 0, 52, 100
2, 64440, Note_on_c, 0, 71, 100
2, 64560, Note_on_c, 0, 62, 0
2, 64560, Note_on_c, 0, 71, 0
2, 64560, Note_on_c, 0, 67, 100
2, 64680, Note_on_c, 0, 52, 0
2, 64680, Note_on_c, 0, 50, 100
2, 64680, Note_on_c, 0, 72, 100
2, 64800, Note_on_c, 0, 72, 0
2, 64800, Note_on_c, 0, 74, 100
2, 64920, Note_on_c, 0, 50, 0
2, 64920, Note_on_c, 0, 48, 100
2, 64920, Note_on_c, 0, 76, 100
2, 64980, Note_on_c, 0, 74, 0
2, 65040, Note_on_c, 0, 76, 0
2, 65040, Note_on_c, 0, 77, 100
2, 65160, Note_on_c, 0, 48, 0
2, 65160, Note_on_c, 0, 55, 100
2, 65160, Note_on_c, 0, 76, 100
2, 65220, Note_on_c, 0, 77, 0
2, 65280, Note_on_c, 0, 76, 0
2, 65280, Note_on_c, 0, 74, 100
2, 65400, Note_on_c, 0, 67, 0
2, 65400, Note_on_c, 0, 74, 0
2, 65400, Note_on_c, 0, 60, 100
2, 65400, Note_on_c, 0, 76, 100
2, 65460, Note_on_c, 0, 55, 0
2, 65520, Note_on_c, 0, 76, 0
2, 65520, Note_on_c, 0, 72, 100
2, 65640, Note_on_c, 0, 60, 0
2, 65640, Note_on_c, 0, 59, 100
2, 65640, Note_on_c, 0, 67, 100
2, 65700, Note_on_c, 0, 72, 0
2, 65760, Note_on_c, 0, 72, 100
2, 65880, Note_on_c, 0, 59, 0
2, 65880, Note_on_c, 0, 72, 0
2, 65880, Note_on_c, 0, 57, 100
2, 65880, Note_on_c, 0, 76, 100
2, 66000, Note_on_c, 0, 67, 0
2, 66000, Note_on_c, 0, 76, 0
2, 66000, Note_on_c, 0, 72, 100
2, 66120, Note_on_c, 0, 57, 0
2, 66120, Note_on_c, 0, 55, 100
2, 66120, Note_on_c, 0, 78, 100
2, 66240, Note_on_c, 0, 78, 0
2, 66240, Note_on_c, 0, 79, 100
2, 66360, Note_on_c, 0, 72, 0
2, 66360, Note_on_c, 0, 79, 0
2, 66360, Note_on_c, 0, 54, 100
2, 66360, Note_on_c, 0, 81, 100
2, 66420, Note_on_c, 0, 55, 0
2, 66480, Note_on_c, 0, 81, 0
2, 66480, Note_on_c, 0, 72, 100
2, 66600, Note_on_c, 0, 54, 0
2, 66600, Note_on_c, 0, 50, 100
2, 66600, Note_on_c, 0, 71, 100
2, 66660, Note_on_c, 0, 72, 0
2, 66720, Note_on_c, 0, 71, 0
2, 66720, Note_on_c, 0, 69, 100
2, 66840, Note_on_c, 0, 50, 0
2, 66840, Note_on_c, 0, 55, 100
2, 66840, Note_on_c, 0, 71, 100
2, 66900, Note_on_c, 0, 69, 0
2, 66960, Note_on_c, 0, 71, 0
2, 66960, Note_on_c, 0, 72, 100
2, 67080, Note_on_c, 0, 55, 0
2, 67080, Note_on_c, 0, 59, 100
2, 67080, Note_on_c, 0, 74, 100
2, 67140, Note_on_c, 0, 72, 0
2, 67200, Note_on_c, 0, 74, 0
2, 67200, Note_on_c, 0, 67, 100
2, 67320, Note_on_c, 0, 59, 0
2, 67320, Note_on_c, 0, 62, 100
2, 67320, Note_on_c, 0, 71, 100
2, 67380, Note_on_c, 0, 67, 0
2, 67440, Note_on_c, 0, 71, 0
2, 67440, Note_on_c, 0, 69, 100
2, 67560, Note_on_c, 0, 62, 0
2, 67560, Note_on_c, 0, 50, 100
2, 67560, Note_on_c, 0, 67, 100
2, 67620, Note_on_c, 0, 69, 0
2, 67680, Note_on_c, 0, 67, 0
2, 67680, Note_on_c, 0, 66, 100
2, 67800, Note_on_c, 0, 50, 0
2, 67800, Note_on_c, 0, 55, 100
2, 67800, Note_on_c, 0, 67, 100
2, 67860, Note_on_c, 0, 66, 0
2, 67920, Note_on_c, 0, 60, 100
2, 68040, Note_on_c, 0, 60, 0
2, 68040, Note_on_c, 0, 59, 100
2, 68160, Note_on_c, 0, 59, 0
2, 68160, Note_on_c, 0, 57, 100
2, 68280, Note_on_c, 0, 57, 0
2, 68280, Note_on_c, 0, 59, 100
2, 68400, Note_on_c, 0, 67, 0
2, 68400, Note_on_c, 0, 62, 100
2, 68520, Note_on_c, 0, 55, 0
2, 68520, Note_on_c, 0, 62, 0
2, 68520, Note_on_c, 0, 50, 100
2, 68520, Note_on_c, 0, 67, 100
2, 68640, Note_on_c, 0, 67, 0
2, 68640, Note_on_c, 0, 66, 100
2, 68700, Note_on_c, 0, 66, 0
2, 68760, Note_on_c, 0, 50, 0
2, 68760, Note_on_c, 0, 43, 100
2, 68760, Note_on_c, 0, 66, 100
2, 68880, Note_on_c, 0, 66, 0
2, 68880, Note_on_c, 0, 67, 100
2, 69240, Note_on_c, 0, 59, 0
2, 69240, Note_on_c, 0, 67, 0
2, 69240, Note_on_c, 0, 62, 100
2, 69240, Note_on_c, 0, 69, 100
2, 69300, Note_on_c, 0, 43, 0
2, 69300, Note_on_c, 0, 69, 0
2, 69300, Note_on_c, 0, 67, 100
2, 69360, Note_on_c, 0, 67, 0
2, 69360, Note_on_c, 0, 69, 100
2, 69480, Note_on_c, 0, 64, 100
2, 69720, Note_on_c, 0, 69, 0
2, 69720, Note_on_c, 0, 71, 100
2, 69780, Note_on_c, 0, 64, 0
2, 69780, Note_on_c, 0, 66, 100
2, 69780, Note_on_c, 0, 69, 100
2, 69840, Note_on_c, 0, 71, 0
2, 69840, Note_on_c, 0, 69, 0
2, 69840, Note_on_c, 0, 67, 100
2, 69900, Note_on_c, 0, 67, 0
2, 69900, Note_on_c, 0, 69, 100
2, 69960, Note_on_c, 0, 69, 0
2, 69960, Note_on_c, 0, 71, 100
2, 70020, Note_on_c, 0, 71, 0
2, 70080, Note_on_c, 0, 69, 100
2, 70140, Note_on_c, 0, 69, 0
2, 70200, Note_on_c, 0, 62, 0
2, 70200, Note_on_c, 0, 60, 100
2, 70200, Note_on_c, 0, 71, 100
2, 70260, Note_on_c, 0, 71, 0
2, 70320, Note_on_c, 0, 69, 100
2, 70380, Note_on_c, 0, 69, 0
2, 70380, Note_on_c, 0, 71, 100
2, 70440, Note_on_c, 0, 71, 0
2, 70440, Note_on_c, 0, 72, 100
2, 70500, Note_on_c, 0, 72, 0
2, 70500, Note_on_c, 0, 74, 100
2, 70560, Note_on_c, 0, 74, 0
2, 70560, Note_on_c, 0, 76, 100
2, 70620, Note_on_c, 0, 76, 0
2, 70680, Note_on_c, 0, 66, 0
2, 70680, Note_on_c, 0, 59, 100
2, 70680, Note_on_c, 0, 76, 100
2, 70740, Note_on_c, 0, 60, 0
2, 70800, Note_on_c, 0, 76, 0
2, 70800, Note_on_c, 0, 74, 100
2, 70920, Note_on_c, 0, 74, 0
2, 70920, Note_on_c, 0, 60, 100
2, 70920, Note_on_c, 0, 72, 100
2, 71040, Note_on_c, 0, 72, 0
2, 71040, Note_on_c, 0, 71, 100
2, 71160, Note_on_c, 0, 60, 0
2, 71160, Note_on_c, 0, 62, 100
2, 71160, Note_on_c, 0, 69, 100
2, 71220, Note_on_c, 0, 71, 0
2, 71400, Note_on_c, 0, 59, 0
2, 71400, Note_on_c, 0, 69, 0
2, 71400, Note_on_c, 0, 57, 100
2, 71400, Note_on_c, 0, 67, 100
2, 71640, Note_on_c, 0, 57, 0
2, 71640, Note_on_c, 0, 59, 100
2, 71880, Note_on_c, 0, 67, 0
2, 71880, Note_on_c, 0, 79, 100
2, 72120, Note_on_c, 0, 62, 0
2, 72120, Note_on_c, 0, 79, 0
2, 72120, Note_on_c, 0, 60, 100
2, 72120, Note_on_c, 0, 78, 100
2, 72180, Note_on_c, 0, 59, 0
2, 72240, Note_on_c, 0, 78, 0
2, 72240, Note_on_c, 0, 76, 100
2, 72360, Note_on_c, 0, 64, 100
2, 72480, Note_on_c, 0, 76, 0
2, 72480, Note_on_c, 0, 78, 100
2, 72540, Note_on_c, 0, 78, 0
2, 72600, Note_on_c, 0, 64, 0
2, 72600, Note_on_c, 0, 67, 100
2, 72600, Note_on_c, 0, 75, 100
2, 72840, Note_on_c, 0, 60, 0
2, 72840, Note_on_c, 0, 75, 0
2, 72840, Note_on_c, 0, 59, 100
2, 72900, Note_on_c, 0, 76, 100
2, 73020, Note_on_c, 0, 67, 0
2, 73080, Note_on_c, 0, 59, 0
2, 73080, Note_on_c, 0, 57, 100
2, 73080, Note_on_c, 0, 67, 100
2, 73140, Note_on_c, 0, 67, 0
2, 73200, Note_on_c, 0, 66, 100
2, 73320, Note_on_c, 0, 76, 0
2, 73320, Note_on_c, 0, 66, 0
2, 73320, Note_on_c, 0, 64, 100
2, 73320, Note_on_c, 0, 81, 100
2, 73380, Note_on_c, 0, 81, 0
2, 73380, Note_on_c, 0, 83, 100
2, 73440, Note_on_c, 0, 83, 0
2, 73440, Note_on_c, 0, 81, 100
2, 73500, Note_on_c, 0, 81, 0
2, 73500, Note_on_c, 0, 79, 100
2, 73560, Note_on_c, 0, 57, 0
2, 73560, Note_on_c, 0, 79, 0
2, 73560, Note_on_c, 0, 59, 100
2, 73560, Note_on_c, 0, 63, 100
2, 73560, Note_on_c, 0, 81, 100
2, 73620, Note_on_c, 0, 64, 0
2, 73800, Note_on_c, 0, 63, 0
2, 73800, Note_on_c, 0, 64, 100
2, 73920, Note_on_c, 0, 81, 0
2, 73920, Note_on_c, 0, 78, 100
2, 74040, Note_on_c, 0, 64, 0
2, 74040, Note_on_c, 0, 66, 100
2, 74040, Note_on_c, 0, 76, 100
2, 74100, Note_on_c, 0, 78, 0
2, 74280, Note_on_c, 0, 59, 0
2, 74280, Note_on_c, 0, 76, 0
2, 74280, Note_on_c, 0, 57, 100
2, 74280, Note_on_c, 0, 75, 100
2, 74520, Note_on_c, 0, 57, 0
2, 74520, Note_on_c, 0, 55, 100
2, 74760, Note_on_c, 0, 75, 0
2, 74760, Note_on_c, 0, 54, 100
2, 74760, Note_on_c, 0, 71, 100
2, 74820, Note_on_c, 0, 55, 0
2, 75000, Note_on_c, 0, 66, 0
2, 75000, Note_on_c, 0, 71, 0
2, 75000, Note_on_c, 0, 52, 100
2, 75000, Note_on_c, 0, 76, 100
2, 75060, Note_on_c, 0, 54, 0
2, 75060, Note_on_c, 0, 76, 0
2, 75060, Note_on_c, 0, 78, 100
2, 75120, Note_on_c, 0, 78, 0
2, 75120, Note_on_c, 0, 79, 100
2, 75240, Note_on_c, 0, 57, 100
2, 75360, Note_on_c, 0, 79, 0
2, 75360, Note_on_c, 0, 78, 100
2, 75420, Note_on_c, 0, 57, 0
2, 75480, Note_on_c, 0, 57, 100
2, 75540, Note_on_c, 0, 57, 0
2, 75600, Note_on_c, 0, 55, 100
2, 75720, Note_on_c, 0, 78, 0
2, 75720, Note_on_c, 0, 54, 100
2, 75720, Note_on_c, 0, 76, 100
2, 75780, Note_on_c, 0, 55, 0
2, 75960, Note_on_c, 0, 52, 0
2, 75960, Note_on_c, 0, 50, 100
2, 75960, Note_on_c, 0, 55, 100
2, 76020, Note_on_c, 0, 54, 0
2, 76080, Note_on_c, 0, 76, 0
2, 76080, Note_on_c, 0, 71, 100
2, 76200, Note_on_c, 0, 71, 0
2, 76200, Note_on_c, 0, 72, 100
2, 76260, Note_on_c, 0, 72, 0
2, 76260, Note_on_c, 0, 71, 100
2, 76320, Note_on_c, 0, 71, 0
2, 76320, Note_on_c, 0, 69, 100
2, 76380, Note_on_c, 0, 69, 0
2, 76380, Note_on_c, 0, 71, 100
2, 76440, Note_on_c, 0, 50, 0
2, 76440, Note_on_c, 0, 71, 0
2, 76440, Note_on_c, 0, 48, 100
2, 76440, Note_on_c, 0, 79, 100
2, 76500, Note_on_c, 0, 55, 0
2, 76500, Note_on_c, 0, 79, 0
2, 76500, Note_on_c, 0, 76, 100
2, 76680, Note_on_c, 0, 76, 0
2, 76680, Note_on_c, 0, 57, 100
2, 76680, Note_on_c, 0, 78, 100
2, 76740, Note_on_c, 0, 78, 0
2, 76740, Note_on_c, 0, 75, 100
2, 76860, Note_on_c, 0, 57, 0
2, 76920, Note_on_c, 0, 57, 100
2, 76980, Note_on_c, 0, 57, 0
2, 77040, Note_on_c, 0, 75, 0
2, 77040, Note_on_c, 0, 55, 100
2, 77040, Note_on_c, 0, 76, 100
2, 77160, Note_on_c, 0, 48, 0
2, 77160, Note_on_c, 0, 54, 100
2, 77220, Note_on_c, 0, 55, 0
2, 77400, Note_on_c, 0, 54, 0
2, 77400, Note_on_c, 0, 47, 100
2, 77400, Note_on_c, 0, 55, 100
2, 77520, Note_on_c, 0, 76, 0
2, 77520, Note_on_c, 0, 67, 100
2, 77640, Note_on_c, 0, 55, 0
2, 77640, Note_on_c, 0, 59, 100
2, 77640, Note_on_c, 0, 66, 100
2, 77700, Note_on_c, 0, 67, 0
2, 77760, Note_on_c, 0, 66, 0
2, 77760, Note_on_c, 0, 64, 100
2, 77880, Note_on_c, 0, 47, 0
2, 77880, Note_on_c, 0, 64, 0
2, 77880, Note_on_c, 0, 45, 100
2, 77880, Note_on_c, 0, 66, 100
2, 77940, Note_on_c, 0, 59, 0
2, 78120, Note_on_c, 0, 45, 0
2, 78120, Note_on_c, 0, 48, 100
2, 78240, Note_on_c, 0, 76, 100
2, 78300, Note_on_c, 0, 76, 0
2, 78360, Note_on_c, 0, 48, 0
2, 78360, Note_on_c, 0, 47, 100
2, 78360, Note_on_c, 0, 76, 100
2, 78480, Note_on_c, 0, 76, 0
2, 78480, Note_on_c, 0, 75, 100
2, 78600, Note_on_c, 0, 66, 0
2, 78600, Note_on_c, 0, 75, 0
2, 78600, Note_on_c, 0, 45, 100
2, 78600, Note_on_c, 0, 72, 100
2, 78600, Note_on_c, 0, 78, 100
2, 78660, Note_on_c, 0, 47, 0
2, 78660, Note_on_c, 0, 78, 0
2, 78660, Note_on_c, 0, 79, 100
2, 78720, Note_on_c, 0, 79, 0
2, 78720, Note_on_c, 0, 81, 100
2, 78840, Note_on_c, 0, 45, 0
2, 78840, Note_on_c, 0, 81, 0
2, 78840, Note_on_c, 0, 47, 100
2, 78840, Note_on_c, 0, 71, 100
2, 78840, Note_on_c, 0, 79, 100
2, 78900, Note_on_c, 0, 72, 0
2, 79080, Note_on_c, 0, 71, 0
2, 79080, Note_on_c, 0, 51, 100
2, 79080, Note_on_c, 0, 69, 100
2, 79080, Note_on_c, 0, 78, 100
2, 79140, Note_on_c, 0, 79, 0
2, 79260, Note_on_c, 0, 78, 0
2, 79320, Note_on_c, 0, 47, 0
2, 79320, Note_on_c, 0, 52, 100
2, 79320, Note_on_c, 0, 78, 100
2, 79380, Note_on_c, 0, 51, 0
2, 79440, Note_on_c, 0, 78, 0
2, 79440, Note_on_c, 0, 76, 100
2, 79560, Note_on_c, 0, 47, 100
2, 79680, Note_on_c, 0, 76, 0
2, 79680, Note_on_c, 0, 78, 100
2, 79740, Note_on_c, 0, 78, 0
2, 79800, Note_on_c, 0, 69, 0
2, 79800, Note_on_c, 0, 47, 0
2, 79800, Note_on_c, 0, 40, 100
2, 79800, Note_on_c, 0, 67, 100
2, 79800, Note_on_c, 0, 75, 100
2, 79860, Note_on_c, 0, 52, 0
2, 80040, Note_on_c, 0, 40, 0
2, 80040, Note_on_c, 0, 75, 0
2, 80040, Note_on_c, 0, 47, 100
2, 80040, Note_on_c, 0, 76, 100
2, 80280, Note_on_c, 0, 47, 0
2, 80280, Note_on_c, 0, 52, 100
2, 80520, Note_on_c, 0, 52, 0
2, 80520, Note_on_c, 0, 50, 100
2, 80700, Note_on_c, 0, 76, 0
2, 80760, Note_on_c, 0, 67, 0
2, 80760, Note_on_c, 0, 48, 100
2, 80760, Note_on_c, 0, 76, 100
2, 80820, Note_on_c, 0, 50, 0
2, 81000, Note_on_c, 0, 76, 0
2, 81000, Note_on_c, 0, 74, 100
2, 81120, Note_on_c, 0, 74, 0
2, 81120, Note_on_c, 0, 72, 100
2, 81240, Note_on_c, 0, 72, 0
2, 81240, Note_on_c, 0, 52, 100
2, 81240, Note_on_c, 0, 71, 100
2, 81480, Note_on_c, 0, 71, 0
2, 81480, Note_on_c, 0, 69, 100
2, 81720, Note_on_c, 0, 57, 100
2, 81960, Note_on_c, 0, 69, 0
2, 81960, Note_on_c, 0, 71, 100
2, 82080, Note_on_c, 0, 71, 0
2, 82080, Note_on_c, 0, 72, 100
2, 82200, Note_on_c, 0, 48, 0
2, 82200, Note_on_c, 0, 72, 0
2, 82200, Note_on_c, 0, 47, 100
2, 82200, Note_on_c, 0, 74, 100
2, 82260, Note_on_c, 0, 52, 0
2, 82260, Note_on_c, 0, 74, 0
2, 82260, Note_on_c, 0, 72, 100
2, 82320, Note_on_c, 0, 72, 0
2, 82320, Note_on_c, 0, 71, 100
2, 82440, Note_on_c, 0, 57, 0
2, 82440, Note_on_c, 0, 71, 0
2, 82440, Note_on_c, 0, 54, 100
2, 82440, Note_on_c, 0, 72, 100
2, 82500, Note_on_c, 0, 72, 0
2, 82500, Note_on_c, 0, 71, 100
2, 82560, Note_on_c, 0, 71, 0
2, 82560, Note_on_c, 0, 69, 100
2, 82620, Note_on_c, 0, 69, 0
2, 82680, Note_on_c, 0, 54, 0
2, 82680, Note_on_c, 0, 52, 100
2, 82680, Note_on_c, 0, 69, 100
2, 82800, Note_on_c, 0, 52, 0
2, 82800, Note_on_c, 0, 50, 100
2, 82920, Note_on_c, 0, 69, 0
2, 82920, Note_on_c, 0, 52, 100
2, 82920, Note_on_c, 0, 67, 100
2, 82980, Note_on_c, 0, 50, 0
2, 83040, Note_on_c, 0, 52, 0
2, 83040, Note_on_c, 0, 54, 100
2, 83160, Note_on_c, 0, 54, 0
2, 83160, Note_on_c, 0, 55, 100
2, 83280, Note_on_c, 0, 55, 0
2, 83280, Note_on_c, 0, 54, 100
2, 83400, Note_on_c, 0, 67, 0
2, 83400, Note_on_c, 0, 55, 100
2, 83400, Note_on_c, 0, 69, 100
2, 83460, Note_on_c, 0, 54, 0
2, 83520, Note_on_c, 0, 69, 0
2, 83520, Note_on_c, 0, 71, 100
2, 83640, Note_on_c, 0, 47, 0
2, 83640, Note_on_c, 0, 71, 0
2, 83640, Note_on_c, 0, 45, 100
2, 83640, Note_on_c, 0, 72, 100
2, 83760, Note_on_c, 0, 72, 0
2, 83760, Note_on_c, 0, 74, 100
2, 83880, Note_on_c, 0, 55, 0
2, 83880, Note_on_c, 0, 74, 0
2, 83880, Note_on_c, 0, 52, 100
2, 83880, Note_on_c, 0, 72, 100
2, 84000, Note_on_c, 0, 72, 0
2, 84000, Note_on_c, 0, 71, 100
2, 84120, Note_on_c, 0, 52, 0
2, 84120, Note_on_c, 0, 57, 100
2, 84120, Note_on_c, 0, 72, 100
2, 84180, Note_on_c, 0, 71, 0
2, 84240, Note_on_c, 0, 72, 0
2, 84240, Note_on_c, 0, 69, 100
2, 84360, Note_on_c, 0, 45, 0
2, 84360, Note_on_c, 0, 69, 0
2, 84360, Note_on_c, 0, 43, 100
2, 84360, Note_on_c, 0, 64, 100
2, 84420, Note_on_c, 0, 57, 0
2, 84480, Note_on_c, 0, 69, 100
2, 84600, Note_on_c, 0, 43, 0
2, 84600, Note_on_c, 0, 69, 0
2, 84600, Note_on_c, 0, 42, 100
2, 84600, Note_on_c, 0, 72, 100
2, 84720, Note_on_c, 0, 64, 0
2, 84720, Note_on_c, 0, 71, 100
2, 84840, Note_on_c, 0, 42, 0
2, 84840, Note_on_c, 0, 71, 0
2, 84840, Note_on_c, 0, 40, 100
2, 84840, Note_on_c, 0, 69, 100
2, 84960, Note_on_c, 0, 69, 0
2, 84960, Note_on_c, 0, 67, 100
2, 85080, Note_on_c, 0, 40, 0
2, 85080, Note_on_c, 0, 38, 100
2, 85080, Note_on_c, 0, 66, 100
2, 85140, Note_on_c, 0, 67, 0
2, 85200, Note_on_c, 0, 72, 0
2, 85200, Note_on_c, 0, 74, 100
2, 85320, Note_on_c, 0, 38, 0
2, 85320, Note_on_c, 0, 74, 0
2, 85320, Note_on_c, 0, 45, 100
2, 85320, Note_on_c, 0, 72, 100
2, 85440, Note_on_c, 0, 72, 0
2, 85440, Note_on_c, 0, 71, 100
2, 85560, Note_on_c, 0, 66, 0
2, 85560, Note_on_c, 0, 71, 0
2, 85560, Note_on_c, 0, 50, 100
2, 85560, Note_on_c, 0, 72, 100
2, 85620, Note_on_c, 0, 45, 0
2, 85680, Note_on_c, 0, 72, 0
2, 85680, Note_on_c, 0, 69, 100
2, 85800, Note_on_c, 0, 50, 0
2, 85800, Note_on_c, 0, 48, 100
2, 85800, Note_on_c, 0, 66, 100
2, 85860, Note_on_c, 0, 69, 0
2, 85920, Note_on_c, 0, 69, 100
2, 86040, Note_on_c, 0, 48, 0
2, 86040, Note_on_c, 0, 69, 0
2, 86040, Note_on_c, 0, 47, 100
2, 86040, Note_on_c, 0, 72, 100
2, 86160, Note_on_c, 0, 72, 0
2, 86160, Note_on_c, 0, 76, 100
2, 86280, Note_on_c, 0, 47, 0
2, 86280, Note_on_c, 0, 45, 100
2, 86280, Note_on_c, 0, 74, 100
2, 86340, Note_on_c, 0, 76, 0
2, 86400, Note_on_c, 0, 74, 0
2, 86400, Note_on_c, 0, 72, 100
2, 86520, Note_on_c, 0, 66, 0
2, 86520, Note_on_c, 0, 72, 0
2, 86520, Note_on_c, 0, 43, 100
2, 86520, Note_on_c, 0, 67, 100
2, 86520, Note_on_c, 0, 71, 100
2, 86580, Note_on_c, 0, 45, 0
2, 86640, Note_on_c, 0, 71, 0
2, 86640, Note_on_c, 0, 72, 100
2, 86760, Note_on_c, 0, 43, 0
2, 86760, Note_on_c, 0, 72, 0
2, 86760, Note_on_c, 0, 50, 100
2, 86760, Note_on_c, 0, 71, 100
2, 86820, Note_on_c, 0, 67, 0
2, 86880, Note_on_c, 0, 71, 0
2, 86880, Note_on_c, 0, 69, 100
2, 87000, Note_on_c, 0, 50, 0
2, 87000, Note_on_c, 0, 55, 100
2, 87000, Note_on_c, 0, 71, 100
2, 87060, Note_on_c, 0, 69, 0
2, 87120, Note_on_c, 0, 71, 0
2, 87120, Note_on_c, 0, 67, 100
2, 87240, Note_on_c, 0, 55, 0
2, 87240, Note_on_c, 0, 53, 100
2, 87240, Note_on_c, 0, 62, 100
2, 87300, Note_on_c, 0, 67, 0
2, 87360, Note_on_c, 0, 67, 100
2, 87480, Note_on_c, 0, 53, 0
2, 87480, Note_on_c, 0, 67, 0
2, 87480, Note_on_c, 0, 52, 100
2, 87480, Note_on_c, 0, 71, 100
2, 87600, Note_on_c, 0, 62, 0
2, 87600, Note_on_c, 0, 71, 0
2, 87600, Note_on_c, 0, 67, 100
2, 87720, Note_on_c, 0, 52, 0
2, 87720, Note_on_c, 0, 50, 100
2, 87720, Note_on_c, 0, 72, 100
2, 87840, Note_on_c, 0, 72, 0
2, 87840, Note_on_c, 0, 74, 100
2, 87960, Note_on_c, 0, 50, 0
2, 87960, Note_on_c, 0, 48, 100
2, 87960, Note_on_c, 0, 76, 100
2, 88020, Note_on_c, 0, 74, 0
2, 88080, Note_on_c, 0, 76, 0
2, 88080, Note_on_c, 0, 77, 100
2, 88200, Note_on_c, 0, 48, 0
2, 88200, Note_on_c, 0, 55, 100
2, 88200, Note_on_c, 0, 76, 100
2, 88260, Note_on_c, 0, 77, 0
2, 88320, Note_on_c, 0, 76, 0
2, 88320, Note_on_c, 0, 74, 100
2, 88440, Note_on_c, 0, 67, 0
2, 88440, Note_on_c, 0, 74, 0
2, 88440, Note_on_c, 0, 60, 100
2, 88440, Note_on_c, 0, 76, 100
2, 88500, Note_on_c, 0, 55, 0
2, 88560, Note_on_c, 0, 76, 0
2, 88560, Note_on_c, 0, 72, 100
2, 88680, Note_on_c, 0, 60, 0
2, 88680, Note_on_c, 0, 59, 100
2, 88680, Note_on_c, 0, 67, 100
2, 88740, Note_on_c, 0, 72, 0
2, 88800, Note_on_c, 0, 72, 100
2, 88920, Note_on_c, 0, 59, 0
2, 88920, Note_on_c, 0, 72, 0
2, 88920, Note_on_c, 0, 57, 100
2, 88920, Note_on_c, 0, 76, 100
2, 89040, Note_on_c, 0, 67, 0
2, 89040, Note_on_c, 0, 76, 0
2, 89040, Note_on_c, 0, 72, 100
2, 89160, Note_on_c, 0, 57, 0
2, 89160, Note_on_c, 0, 55, 100
2, 89160, Note_on_c, 0, 78, 100
2, 89280, Note_on_c, 0, 78, 0
2, 89280, Note_on_c, 0, 79, 100
2, 89400, Note_on_c, 0, 72, 0
2, 89400, Note_on_c, 0, 79, 0
2, 89400, Note_on_c, 0, 54, 100
2, 89400, Note_on_c, 0, 81, 100
2, 89460, Note_on_c, 0, 55, 0
2, 89520, Note_on_c, 0, 81, 0
2, 89520, Note_on_c, 0, 72, 100
2, 89640, Note_on_c, 0, 54, 0
2, 89640, Note_on_c, 0, 50, 100
2, 89640, Note_on_c, 0, 71, 100
2, 89700, Note_on_c, 0, 72, 0
2, 89760, Note_on_c, 0, 71, 0
2, 89760, Note_on_c, 0, 69, 100
2, 89880, Note_on_c, 0, 50, 0
2, 89880, Note_on_c, 0, 55, 100
2, 89880, Note_on_c, 0, 71, 100
2, 89940, Note_on_c, 0, 69, 0
2, 90000, Note_on_c, 0, 71, 0
2, 90000, Note_on_c, 0, 72, 100
2, 90120, Note_on_c, 0, 55, 0
2, 90120, Note_on_c, 0, 59, 100
2, 90120, Note_on_c, 0, 74, 100
2, 90180, Note_on_c, 0, 72, 0
2, 90240, Note_on_c, 0, 74, 0
2, 90240, Note_on_c, 0, 67, 100
2, 90360, Note_on_c, 0, 59, 0
2, 90360, Note_on_c, 0, 62, 100
2, 90360, Note_on_c, 0, 71, 100
2, 90420, Note_on_c, 0, 67, 0
2, 90480, Note_on_c, 0, 71, 0
2, 90480, Note_on_c, 0, 69, 100
2, 90600, Note_on_c, 0, 62, 0
2, 90600, Note_on_c, 0, 50, 100
2, 90600, Note_on_c, 0, 67, 100
2, 90660, Note_on_c, 0, 69, 0
2, 90720, Note_on_c, 0, 67, 0
2, 90720, Note_on_c, 0, 66, 100
2, 90840, Note_on_c, 0, 50, 0
2, 90840, Note_on_c, 0, 55, 100
2, 90840, Note_on_c, 0, 67, 100
2, 90900, Note_on_c, 0, 66, 0
2, 90960, Note_on_c, 0, 60, 100
2, 91080, Note_on_c, 0, 60, 0
2, 91080, Note_on_c, 0, 59, 100
2, 91200, Note_on_c, 0, 59, 0
2, 91200, Note_on_c, 0, 57, 100
2, 91320, Note_on_c, 0, 57, 0
2, 91320, Note_on_c, 0, 59, 100
2, 91440, Note_on_c, 0, 67, 0
2, 91440, Note_on_c, 0, 62, 100
2, 91560, Note_on_c, 0, 55, 0
2, 91560, Note_on_c, 0, 62, 0
2, 91560, Note_on_c, 0, 50, 100
2, 91560, Note_on_c, 0, 67, 100
2, 91680, Note_on_c, 0, 67, 0
2, 91680, Note_on_c, 0, 66, 100
2, 91740, Note_on_c, 0, 66, 0
2, 91800, Note_on_c, 0, 50, 0
2, 91800, Note_on_c, 0, 43, 100
2, 91800, Note_on_c, 0, 66, 100
2, 91920, Note_on_c, 0, 66, 0
2, 91920, Note_on_c, 0, 67, 100
2, 92280, End_track
0, 0, End_of_file
