0, 0, Header, 1, 17, 480
1, 0, Start_track
1, 0, Title_t, "untitled"
1, 0, SMPTE_offset, 96, 0, 3, 0, 0
1, 0, Time_signature, 3, 2, 24, 8
1, 0, Key_signature, 1, "major"
1, 0, Tempo, 600000
1, 0, Marker_t, "A"
1, 23040, Marker_t, "A'"
1, 46080, Marker_t, "B"
1, 69120, Marker_t, "B'"
1, 69120, End_track
2, 0, Start_track
2, 0, MIDI_port, 0
2, 0, Title_t, "Solo Harpsichord with 2 Manuals"
2, 0, Program_c, 0, 6
2, 0, Control_c, 0, 7, 100
2, 0, Control_c, 0, 10, 79
2, 0, Note_on_c, 0, 83, 100
2, 120, Note_on_c, 0, 83, 0
2, 480, Note_on_c, 0, 86, 100
2, 600, Note_on_c, 0, 86, 0
2, 960, Note_on_c, 0, 79, 100
2, 1080, Note_on_c, 0, 79, 0
2, 1440, Note_on_c, 0, 81, 100
2, 1560, Note_on_c, 0, 81, 0
2, 1920, Note_on_c, 0, 86, 100
2, 2040, Note_on_c, 0, 86, 0
2, 2400, Note_on_c, 0, 78, 100
2, 2520, Note_on_c, 0, 78, 0
2, 2880, Note_on_c, 0, 79, 100
2, 3000, Note_on_c, 0, 79, 0
2, 3360, Note_on_c, 0, 83, 100
2, 3480, Note_on_c, 0, 83, 0
2, 3840, Note_on_c, 0, 81, 100
2, 3960, Note_on_c, 0, 81, 0
2, 4320, Note_on_c, 0, 78, 100
2, 4440, Note_on_c, 0, 78, 0
2, 4800, Note_on_c, 0, 85, 100
2, 4920, Note_on_c, 0, 85, 0
2, 5280, Note_on_c, 0, 86, 100
2, 5400, Note_on_c, 0, 86, 0
2, 5760, Note_on_c, 0, 79, 100
2, 6000, Note_on_c, 0, 79, 0
2, 6000, Note_on_c, 0, 55, 100
2, 6240, Note_on_c, 0, 55, 0
2, 6240, Note_on_c, 0, 57, 100
2, 6480, Note_on_c, 0, 57, 0
2, 6480, Note_on_c, 0, 76, 100
2, 6720, Note_on_c, 0, 76, 0
2, 6720, Note_on_c, 0, 77, 100
2, 6960, Note_on_c, 0, 77, 0
2, 6960, Note_on_c, 0, 74, 100
2, 7200, Note_on_c, 0, 74, 0
2, 7200, Note_on_c, 0, 76, 100
2, 7440, Note_on_c, 0, 76, 0
2, 7440, Note_on_c, 0, 57, 100
2, 7680, Note_on_c, 0, 57, 0
2, 7680, Note_on_c, 0, 59, 100
2, 7920, Note_on_c, 0, 59, 0
2, 7920, Note_on_c, 0, 78, 100
2, 8160, Note_on_c, 0, 78, 0
2, 8160, Note_on_c, 0, 79, 100
2, 8400, Note_on_c, 0, 79, 0
2, 8400, Note_on_c, 0, 73, 100
2, 8640, Note_on_c, 0, 73, 0
2, 8640, Note_on_c, 0, 74, 100
2, 8880, Note_on_c, 0, 74, 0
2, 8880, Note_on_c, 0, 54, 100
2, 9120, Note_on_c, 0, 54, 0
2, 9120, Note_on_c, 0, 55, 100
2, 9360, Note_on_c, 0, 55, 0
2, 9360, Note_on_c, 0, 49, 100
2, 9600, Note_on_c, 0, 49, 0
2, 9600, Note_on_c, 0, 50, 100
2, 9840, Note_on_c, 0, 50, 0
2, 9840, Note_on_c, 0, 38, 100
2, 10080, Note_on_c, 0, 38, 0
2, 10080, Note_on_c, 0, 43, 100
2, 10320, Note_on_c, 0, 43, 0
2, 10320, Note_on_c, 0, 76, 100
2, 10560, Note_on_c, 0, 76, 0
2, 10560, Note_on_c, 0, 74, 100
2, 10800, Note_on_c, 0, 74, 0
2, 10800, Note_on_c, 0, 72, 100
2, 11040, Note_on_c, 0, 72, 0
2, 11040, Note_on_c, 0, 71, 100
2, 11280, Note_on_c, 0, 71, 0
2, 11280, Note_on_c, 0, 72, 100
2, 11520, Note_on_c, 0, 72, 0
2, 11520, Note_on_c, 0, 79, 100
2, 11640, Note_on_c, 0, 79, 0
2, 17280, Note_on_c, 0, 66, 100
2, 17400, Note_on_c, 0, 66, 0
2, 17760, Note_on_c, 0, 67, 100
2, 17880, Note_on_c, 0, 67, 0
2, 18240, Note_on_c, 0, 69, 100
2, 18360, Note_on_c, 0, 69, 0
2, 18720, Note_on_c, 0, 71, 100
2, 18840, Note_on_c, 0, 71, 0
2, 19200, Note_on_c, 0, 69, 100
2, 19320, Note_on_c, 0, 69, 0
2, 19680, Note_on_c, 0, 67, 100
2, 19800, Note_on_c, 0, 67, 0
2, 20160, Note_on_c, 0, 69, 100
2, 20280, Note_on_c, 0, 69, 0
2, 20640, Note_on_c, 0, 71, 100
2, 20760, Note_on_c, 0, 71, 0
2, 21120, Note_on_c, 0, 69, 100
2, 21240, Note_on_c, 0, 69, 0
2, 23040, Note_on_c, 0, 83, 100
2, 23160, Note_on_c, 0, 83, 0
2, 23520, Note_on_c, 0, 86, 100
2, 23640, Note_on_c, 0, 86, 0
2, 24000, Note_on_c, 0, 79, 100
2, 24120, Note_on_c, 0, 79, 0
2, 24480, Note_on_c, 0, 81, 100
2, 24600, Note_on_c, 0, 81, 0
2, 24960, Note_on_c, 0, 86, 100
2, 25080, Note_on_c, 0, 86, 0
2, 25440, Note_on_c, 0, 78, 100
2, 25560, Note_on_c, 0, 78, 0
2, 25920, Note_on_c, 0, 79, 100
2, 26040, Note_on_c, 0, 79, 0
2, 26400, Note_on_c, 0, 83, 100
2, 26520, Note_on_c, 0, 83, 0
2, 26880, Note_on_c, 0, 81, 100
2, 27000, Note_on_c, 0, 81, 0
2, 27360, Note_on_c, 0, 78, 100
2, 27480, Note_on_c, 0, 78, 0
2, 27840, Note_on_c, 0, 85, 100
2, 27960, Note_on_c, 0, 85, 0
2, 28320, Note_on_c, 0, 86, 100
2, 28440, Note_on_c, 0, 86, 0
2, 28800, Note_on_c, 0, 79, 100
2, 29040, Note_on_c, 0, 79, 0
2, 29040, Note_on_c, 0, 55, 100
2, 29280, Note_on_c, 0, 55, 0
2, 29280, Note_on_c, 0, 57, 100
2, 29520, Note_on_c, 0, 57, 0
2, 29520, Note_on_c, 0, 76, 100
2, 29760, Note_on_c, 0, 76, 0
2, 29760, Note_on_c, 0, 77, 100
2, 30000, Note_on_c, 0, 77, 0
2, 30000, Note_on_c, 0, 74, 100
2, 30240, Note_on_c, 0, 74, 0
2, 30240, Note_on_c, 0, 76, 100
2, 30480, Note_on_c, 0, 76, 0
2, 30480, Note_on_c, 0, 57, 100
2, 30720, Note_on_c, 0, 57, 0
2, 30720, Note_on_c, 0, 59, 100
2, 30960, Note_on_c, 0, 59, 0
2, 30960, Note_on_c, 0, 78, 100
2, 31200, Note_on_c, 0, 78, 0
2, 31200, Note_on_c, 0, 79, 100
2, 31440, Note_on_c, 0, 79, 0
2, 31440, Note_on_c, 0, 73, 100
2, 31680, Note_on_c, 0, 73, 0
2, 31680, Note_on_c, 0, 74, 100
2, 31920, Note_on_c, 0, 74, 0
2, 31920, Note_on_c, 0, 54, 100
2, 32160, Note_on_c, 0, 54, 0
2, 32160, Note_on_c, 0, 55, 100
2, 32400, Note_on_c, 0, 55, 0
2, 32400, Note_on_c, 0, 49, 100
2, 32640, Note_on_c, 0, 49, 0
2, 32640, Note_on_c, 0, 50, 100
2, 32880, Note_on_c, 0, 50, 0
2, 32880, Note_on_c, 0, 38, 100
2, 33120, Note_on_c, 0, 38, 0
2, 33120, Note_on_c, 0, 43, 100
2, 33360, Note_on_c, 0, 43, 0
2, 33360, Note_on_c, 0, 76, 100
2, 33600, Note_on_c, 0, 76, 0
2, 33600, Note_on_c, 0, 74, 100
2, 33840, Note_on_c, 0, 74, 0
2, 33840, Note_on_c, 0, 72, 100
2, 34080, Note_on_c, 0, 72, 0
2, 34080, Note_on_c, 0, 71, 100
2, 34320, Note_on_c, 0, 71, 0
2, 34320, Note_on_c, 0, 72, 100
2, 34560, Note_on_c, 0, 72, 0
2, 34560, Note_on_c, 0, 79, 100
2, 34680, Note_on_c, 0, 79, 0
2, 40320, Note_on_c, 0, 66, 100
2, 40440, Note_on_c, 0, 66, 0
2, 40800, Note_on_c, 0, 67, 100
2, 40920, Note_on_c, 0, 67, 0
2, 41280, Note_on_c, 0, 69, 100
2, 41400, Note_on_c, 0, 69, 0
2, 41760, Note_on_c, 0, 71, 100
2, 41880, Note_on_c, 0, 71, 0
2, 42240, Note_on_c, 0, 69, 100
2, 42360, Note_on_c, 0, 69, 0
2, 42720, Note_on_c, 0, 67, 100
2, 42840, Note_on_c, 0, 67, 0
2, 43200, Note_on_c, 0, 69, 100
2, 43320, Note_on_c, 0, 69, 0
2, 43680, Note_on_c, 0, 71, 100
2, 43800, Note_on_c, 0, 71, 0
2, 44160, Note_on_c, 0, 69, 100
2, 44280, Note_on_c, 0, 69, 0
2, 51900, Note_on_c, 0, 79, 100
2, 51960, Note_on_c, 0, 79, 0
2, 51960, Note_on_c, 0, 81, 100
2, 52020, Note_on_c, 0, 81, 0
2, 52020, Note_on_c, 0, 79, 100
2, 52080, Note_on_c, 0, 79, 0
2, 52080, Note_on_c, 0, 81, 100
2, 52140, Note_on_c, 0, 81, 0
2, 52140, Note_on_c, 0, 79, 100
2, 52200, Note_on_c, 0, 79, 0
2, 52200, Note_on_c, 0, 81, 100
2, 52260, Note_on_c, 0, 81, 0
2, 52260, Note_on_c, 0, 79, 100
2, 52320, Note_on_c, 0, 79, 0
2, 52380, Note_on_c, 0, 79, 100
2, 52440, Note_on_c, 0, 79, 0
2, 52440, Note_on_c, 0, 81, 100
2, 52500, Note_on_c, 0, 81, 0
2, 52500, Note_on_c, 0, 79, 100
2, 52560, Note_on_c, 0, 79, 0
2, 52560, Note_on_c, 0, 81, 100
2, 52620, Note_on_c, 0, 81, 0
2, 52620, Note_on_c, 0, 79, 100
2, 52680, Note_on_c, 0, 79, 0
2, 52680, Note_on_c, 0, 81, 100
2, 52740, Note_on_c, 0, 81, 0
2, 52740, Note_on_c, 0, 79, 100
2, 52800, Note_on_c, 0, 79, 0
2, 52860, Note_on_c, 0, 79, 100
2, 52920, Note_on_c, 0, 79, 0
2, 52920, Note_on_c, 0, 81, 100
2, 52980, Note_on_c, 0, 81, 0
2, 52980, Note_on_c, 0, 79, 100
2, 53040, Note_on_c, 0, 79, 0
2, 53040, Note_on_c, 0, 81, 100
2, 53100, Note_on_c, 0, 81, 0
2, 53100, Note_on_c, 0, 79, 100
2, 53160, Note_on_c, 0, 79, 0
2, 53160, Note_on_c, 0, 81, 100
2, 53220, Note_on_c, 0, 81, 0
2, 53220, Note_on_c, 0, 79, 100
2, 53280, Note_on_c, 0, 79, 0
2, 53340, Note_on_c, 0, 79, 100
2, 53400, Note_on_c, 0, 79, 0
2, 53400, Note_on_c, 0, 81, 100
2, 53460, Note_on_c, 0, 81, 0
2, 53460, Note_on_c, 0, 79, 100
2, 53520, Note_on_c, 0, 79, 0
2, 53520, Note_on_c, 0, 81, 100
2, 53580, Note_on_c, 0, 81, 0
2, 53580, Note_on_c, 0, 79, 100
2, 53640, Note_on_c, 0, 79, 0
2, 53640, Note_on_c, 0, 81, 100
2, 53700, Note_on_c, 0, 81, 0
2, 53700, Note_on_c, 0, 79, 100
2, 53760, Note_on_c, 0, 79, 0
2, 53820, Note_on_c, 0, 79, 100
2, 53880, Note_on_c, 0, 79, 0
2, 53880, Note_on_c, 0, 81, 100
2, 53940, Note_on_c, 0, 81, 0
2, 53940, Note_on_c, 0, 79, 100
2, 54000, Note_on_c, 0, 79, 0
2, 54000, Note_on_c, 0, 81, 100
2, 54060, Note_on_c, 0, 81, 0
2, 54060, Note_on_c, 0, 79, 100
2, 54120, Note_on_c, 0, 79, 0
2, 54120, Note_on_c, 0, 81, 100
2, 54180, Note_on_c, 0, 81, 0
2, 54180, Note_on_c, 0, 79, 100
2, 54240, Note_on_c, 0, 79, 0
2, 54300, Note_on_c, 0, 79, 100
2, 54360, Note_on_c, 0, 79, 0
2, 54360, Note_on_c, 0, 81, 100
2, 54420, Note_on_c, 0, 81, 0
2, 54420, Note_on_c, 0, 79, 100
2, 54480, Note_on_c, 0, 79, 0
2, 54480, Note_on_c, 0, 81, 100
2, 54540, Note_on_c, 0, 81, 0
2, 54540, Note_on_c, 0, 79, 100
2, 54600, Note_on_c, 0, 79, 0
2, 54600, Note_on_c, 0, 81, 100
2, 54660, Note_on_c, 0, 81, 0
2, 54660, Note_on_c, 0, 79, 100
2, 54720, Note_on_c, 0, 79, 0
2, 54780, Note_on_c, 0, 79, 100
2, 54840, Note_on_c, 0, 79, 0
2, 54840, Note_on_c, 0, 81, 100
2, 54900, Note_on_c, 0, 81, 0
2, 54900, Note_on_c, 0, 79, 100
2, 54960, Note_on_c, 0, 79, 0
2, 54960, Note_on_c, 0, 81, 100
2, 55020, Note_on_c, 0, 81, 0
2, 55020, Note_on_c, 0, 79, 100
2, 55080, Note_on_c, 0, 79, 0
2, 55080, Note_on_c, 0, 81, 100
2, 55140, Note_on_c, 0, 81, 0
2, 55140, Note_on_c, 0, 79, 100
2, 55200, Note_on_c, 0, 79, 0
2, 55260, Note_on_c, 0, 79, 100
2, 55320, Note_on_c, 0, 79, 0
2, 55320, Note_on_c, 0, 81, 100
2, 55380, Note_on_c, 0, 81, 0
2, 55380, Note_on_c, 0, 79, 100
2, 55440, Note_on_c, 0, 79, 0
2, 55440, Note_on_c, 0, 81, 100
2, 55500, Note_on_c, 0, 81, 0
2, 55500, Note_on_c, 0, 79, 100
2, 55560, Note_on_c, 0, 79, 0
2, 55560, Note_on_c, 0, 81, 100
2, 55620, Note_on_c, 0, 81, 0
2, 55620, Note_on_c, 0, 79, 100
2, 55680, Note_on_c, 0, 79, 0
2, 55740, Note_on_c, 0, 78, 100
2, 55800, Note_on_c, 0, 78, 0
2, 55800, Note_on_c, 0, 79, 100
2, 55860, Note_on_c, 0, 79, 0
2, 55860, Note_on_c, 0, 78, 100
2, 55920, Note_on_c, 0, 78, 0
2, 55920, Note_on_c, 0, 79, 100
2, 55980, Note_on_c, 0, 79, 0
2, 55980, Note_on_c, 0, 78, 100
2, 56040, Note_on_c, 0, 78, 0
2, 56040, Note_on_c, 0, 79, 100
2, 56100, Note_on_c, 0, 79, 0
2, 56100, Note_on_c, 0, 78, 100
2, 56160, Note_on_c, 0, 78, 0
2, 56160, Note_on_c, 0, 76, 100
2, 56280, Note_on_c, 0, 76, 0
2, 56280, Note_on_c, 0, 67, 100
2, 56400, Note_on_c, 0, 67, 0
2, 56400, Note_on_c, 0, 66, 100
2, 56520, Note_on_c, 0, 66, 0
2, 56520, Note_on_c, 0, 67, 100
2, 56640, Note_on_c, 0, 67, 0
2, 56640, Note_on_c, 0, 71, 100
2, 56760, Note_on_c, 0, 71, 0
2, 56760, Note_on_c, 0, 76, 100
2, 56880, Note_on_c, 0, 76, 0
2, 56880, Note_on_c, 0, 75, 100
2, 57000, Note_on_c, 0, 75, 0
2, 57000, Note_on_c, 0, 76, 100
2, 57120, Note_on_c, 0, 76, 0
2, 57120, Note_on_c, 0, 79, 100
2, 57180, Note_on_c, 0, 79, 0
2, 57180, Note_on_c, 0, 77, 100
2, 57240, Note_on_c, 0, 77, 0
2, 57240, Note_on_c, 0, 76, 100
2, 57360, Note_on_c, 0, 76, 0
2, 57360, Note_on_c, 0, 77, 100
2, 57420, Note_on_c, 0, 77, 0
2, 57420, Note_on_c, 0, 76, 100
2, 57480, Note_on_c, 0, 76, 0
2, 57480, Note_on_c, 0, 74, 100
2, 57600, Note_on_c, 0, 74, 0
2, 57600, Note_on_c, 0, 76, 100
2, 57840, Note_on_c, 0, 76, 0
2, 57840, Note_on_c, 0, 64, 100
2, 58080, Note_on_c, 0, 64, 0
2, 58080, Note_on_c, 0, 63, 100
2, 58320, Note_on_c, 0, 63, 0
2, 58320, Note_on_c, 0, 62, 100
2, 58560, Note_on_c, 0, 62, 0
2, 58560, Note_on_c, 0, 61, 100
2, 58800, Note_on_c, 0, 61, 0
2, 58800, Note_on_c, 0, 76, 100
2, 59040, Note_on_c, 0, 76, 0
2, 59040, Note_on_c, 0, 74, 100
2, 59280, Note_on_c, 0, 74, 0
2, 59280, Note_on_c, 0, 62, 100
2, 59520, Note_on_c, 0, 62, 0
2, 59520, Note_on_c, 0, 61, 100
2, 59760, Note_on_c, 0, 61, 0
2, 59760, Note_on_c, 0, 60, 100
2, 60000, Note_on_c, 0, 60, 0
2, 60000, Note_on_c, 0, 59, 100
2, 60240, Note_on_c, 0, 59, 0
2, 60240, Note_on_c, 0, 74, 100
2, 60480, Note_on_c, 0, 74, 0
2, 60540, Note_on_c, 0, 72, 100
2, 60600, Note_on_c, 0, 72, 0
2, 60600, Note_on_c, 0, 74, 100
2, 60660, Note_on_c, 0, 74, 0
2, 60660, Note_on_c, 0, 72, 100
2, 60720, Note_on_c, 0, 72, 0
2, 60720, Note_on_c, 0, 74, 100
2, 60780, Note_on_c, 0, 74, 0
2, 60780, Note_on_c, 0, 72, 100
2, 60840, Note_on_c, 0, 72, 0
2, 60840, Note_on_c, 0, 74, 100
2, 60900, Note_on_c, 0, 74, 0
2, 60900, Note_on_c, 0, 72, 100
2, 60960, Note_on_c, 0, 72, 0
2, 61020, Note_on_c, 0, 72, 100
2, 61080, Note_on_c, 0, 72, 0
2, 61080, Note_on_c, 0, 74, 100
2, 61140, Note_on_c, 0, 74, 0
2, 61140, Note_on_c, 0, 72, 100
2, 61200, Note_on_c, 0, 72, 0
2, 61200, Note_on_c, 0, 74, 100
2, 61260, Note_on_c, 0, 74, 0
2, 61260, Note_on_c, 0, 72, 100
2, 61320, Note_on_c, 0, 72, 0
2, 61320, Note_on_c, 0, 74, 100
2, 61380, Note_on_c, 0, 74, 0
2, 61380, Note_on_c, 0, 72, 100
2, 61440, Note_on_c, 0, 72, 0
2, 61500, Note_on_c, 0, 72, 100
2, 61560, Note_on_c, 0, 72, 0
2, 61560, Note_on_c, 0, 74, 100
2, 61620, Note_on_c, 0, 74, 0
2, 61620, Note_on_c, 0, 72, 100
2, 61680, Note_on_c, 0, 72, 0
2, 61680, Note_on_c, 0, 74, 100
2, 61740, Note_on_c, 0, 74, 0
2, 61740, Note_on_c, 0, 72, 100
2, 61800, Note_on_c, 0, 72, 0
2, 61800, Note_on_c, 0, 74, 100
2, 61860, Note_on_c, 0, 74, 0
2, 61860, Note_on_c, 0, 72, 100
2, 61920, Note_on_c, 0, 72, 0
2, 61980, Note_on_c, 0, 72, 100
2, 62040, Note_on_c, 0, 72, 0
2, 62040, Note_on_c, 0, 74, 100
2, 62100, Note_on_c, 0, 74, 0
2, 62100, Note_on_c, 0, 72, 100
2, 62160, Note_on_c, 0, 72, 0
2, 62160, Note_on_c, 0, 74, 100
2, 62220, Note_on_c, 0, 74, 0
2, 62220, Note_on_c, 0, 72, 100
2, 62280, Note_on_c, 0, 72, 0
2, 62280, Note_on_c, 0, 74, 100
2, 62340, Note_on_c, 0, 74, 0
2, 62340, Note_on_c, 0, 72, 100
2, 62400, Note_on_c, 0, 72, 0
2, 62460, Note_on_c, 0, 72, 100
2, 62520, Note_on_c, 0, 72, 0
2, 62520, Note_on_c, 0, 74, 100
2, 62580, Note_on_c, 0, 74, 0
2, 62580, Note_on_c, 0, 72, 100
2, 62640, Note_on_c, 0, 72, 0
2, 62640, Note_on_c, 0, 74, 100
2, 62700, Note_on_c, 0, 74, 0
2, 62700, Note_on_c, 0, 72, 100
2, 62760, Note_on_c, 0, 72, 0
2, 62760, Note_on_c, 0, 74, 100
2, 62820, Note_on_c, 0, 74, 0
2, 62820, Note_on_c, 0, 72, 100
2, 62880, Note_on_c, 0, 72, 0
2, 62940, Note_on_c, 0, 72, 100
2, 63000, Note_on_c, 0, 72, 0
2, 63000, Note_on_c, 0, 74, 100
2, 63060, Note_on_c, 0, 74, 0
2, 63060, Note_on_c, 0, 72, 100
2, 63120, Note_on_c, 0, 72, 0
2, 63120, Note_on_c, 0, 74, 100
2, 63180, Note_on_c, 0, 74, 0
2, 63180, Note_on_c, 0, 72, 100
2, 63240, Note_on_c, 0, 72, 0
2, 63240, Note_on_c, 0, 74, 100
2, 63300, Note_on_c, 0, 74, 0
2, 63300, Note_on_c, 0, 72, 100
2, 63360, Note_on_c, 0, 72, 0
2, 63360, Note_on_c, 0, 71, 100
2, 63480, Note_on_c, 0, 71, 0
2, 63840, Note_on_c, 0, 72, 100
2, 63960, Note_on_c, 0, 72, 0
2, 64320, Note_on_c, 0, 74, 100
2, 64440, Note_on_c, 0, 74, 0
2, 64800, Note_on_c, 0, 64, 100
2, 65040, Note_on_c, 0, 64, 0
2, 65040, Note_on_c, 0, 76, 100
2, 65280, Note_on_c, 0, 76, 0
2, 65280, Note_on_c, 0, 77, 100
2, 65520, Note_on_c, 0, 77, 0
2, 65520, Note_on_c, 0, 78, 100
2, 65760, Note_on_c, 0, 78, 0
2, 65760, Note_on_c, 0, 79, 100
2, 66000, Note_on_c, 0, 79, 0
2, 66000, Note_on_c, 0, 80, 100
2, 66240, Note_on_c, 0, 80, 0
2, 66240, Note_on_c, 0, 81, 100
2, 66360, Note_on_c, 0, 81, 0
2, 66360, Note_on_c, 0, 66, 100
2, 66480, Note_on_c, 0, 66, 0
2, 66480, Note_on_c, 0, 64, 100
2, 66600, Note_on_c, 0, 64, 0
2, 66600, Note_on_c, 0, 66, 100
2, 66720, Note_on_c, 0, 66, 0
2, 66720, Note_on_c, 0, 67, 100
2, 66840, Note_on_c, 0, 67, 0
2, 66840, Note_on_c, 0, 71, 100
2, 66960, Note_on_c, 0, 71, 0
2, 66960, Note_on_c, 0, 69, 100
2, 67080, Note_on_c, 0, 69, 0
2, 67080, Note_on_c, 0, 71, 100
2, 67200, Note_on_c, 0, 71, 0
2, 67200, Note_on_c, 0, 72, 100
2, 67320, Note_on_c, 0, 72, 0
2, 67320, Note_on_c, 0, 69, 100
2, 67440, Note_on_c, 0, 69, 0
2, 67440, Note_on_c, 0, 66, 100
2, 67560, Note_on_c, 0, 66, 0
2, 67560, Note_on_c, 0, 62, 100
2, 67680, Note_on_c, 0, 62, 0
2, 67680, Note_on_c, 0, 67, 100
2, 67800, Note_on_c, 0, 67, 0
2, 67800, Note_on_c, 0, 71, 100
2, 67920, Note_on_c, 0, 71, 0
2, 67920, Note_on_c, 0, 69, 100
2, 68040, Note_on_c, 0, 69, 0
2, 68040, Note_on_c, 0, 71, 100
2, 68160, Note_on_c, 0, 71, 0
2, 68160, Note_on_c, 0, 74, 100
2, 68280, Note_on_c, 0, 74, 0
2, 68280, Note_on_c, 0, 79, 100
2, 68400, Note_on_c, 0, 79, 0
2, 68400, Note_on_c, 0, 78, 100
2, 68520, Note_on_c, 0, 78, 0
2, 68520, Note_on_c, 0, 79, 100
2, 68640, Note_on_c, 0, 79, 0
2, 68640, Note_on_c, 0, 83, 100
2, 69120, Note_on_c, 0, 83, 0
2, 74940, Note_on_c, 0, 79, 100
2, 75000, Note_on_c, 0, 79, 0
2, 75000, Note_on_c, 0, 81, 100
2, 75060, Note_on_c, 0, 81, 0
2, 75060, Note_on_c, 0, 79, 100
2, 75120, Note_on_c, 0, 79, 0
2, 75120, Note_on_c, 0, 81, 100
2, 75180, Note_on_c, 0, 81, 0
2, 75180, Note_on_c, 0, 79, 100
2, 75240, Note_on_c, 0, 79, 0
2, 75240, Note_on_c, 0, 81, 100
2, 75300, Note_on_c, 0, 81, 0
2, 75300, Note_on_c, 0, 79, 100
2, 75360, Note_on_c, 0, 79, 0
2, 75420, Note_on_c, 0, 79, 100
2, 75480, Note_on_c, 0, 79, 0
2, 75480, Note_on_c, 0, 81, 100
2, 75540, Note_on_c, 0, 81, 0
2, 75540, Note_on_c, 0, 79, 100
2, 75600, Note_on_c, 0, 79, 0
2, 75600, Note_on_c, 0, 81, 100
2, 75660, Note_on_c, 0, 81, 0
2, 75660, Note_on_c, 0, 79, 100
2, 75720, Note_on_c, 0, 79, 0
2, 75720, Note_on_c, 0, 81, 100
2, 75780, Note_on_c, 0, 81, 0
2, 75780, Note_on_c, 0, 79, 100
2, 75840, Note_on_c, 0, 79, 0
2, 75900, Note_on_c, 0, 79, 100
2, 75960, Note_on_c, 0, 79, 0
2, 75960, Note_on_c, 0, 81, 100
2, 76020, Note_on_c, 0, 81, 0
2, 76020, Note_on_c, 0, 79, 100
2, 76080, Note_on_c, 0, 79, 0
2, 76080, Note_on_c, 0, 81, 100
2, 76140, Note_on_c, 0, 81, 0
2, 76140, Note_on_c, 0, 79, 100
2, 76200, Note_on_c, 0, 79, 0
2, 76200, Note_on_c, 0, 81, 100
2, 76260, Note_on_c, 0, 81, 0
2, 76260, Note_on_c, 0, 79, 100
2, 76320, Note_on_c, 0, 79, 0
2, 76380, Note_on_c, 0, 79, 100
2, 76440, Note_on_c, 0, 79, 0
2, 76440, Note_on_c, 0, 81, 100
2, 76500, Note_on_c, 0, 81, 0
2, 76500, Note_on_c, 0, 79, 100
2, 76560, Note_on_c, 0, 79, 0
2, 76560, Note_on_c, 0, 81, 100
2, 76620, Note_on_c, 0, 81, 0
2, 76620, Note_on_c, 0, 79, 100
2, 76680, Note_on_c, 0, 79, 0
2, 76680, Note_on_c, 0, 81, 100
2, 76740, Note_on_c, 0, 81, 0
2, 76740, Note_on_c, 0, 79, 100
2, 76800, Note_on_c, 0, 79, 0
2, 76860, Note_on_c, 0, 79, 100
2, 76920, Note_on_c, 0, 79, 0
2, 76920, Note_on_c, 0, 81, 100
2, 76980, Note_on_c, 0, 81, 0
2, 76980, Note_on_c, 0, 79, 100
2, 77040, Note_on_c, 0, 79, 0
2, 77040, Note_on_c, 0, 81, 100
2, 77100, Note_on_c, 0, 81, 0
2, 77100, Note_on_c, 0, 79, 100
2, 77160, Note_on_c, 0, 79, 0
2, 77160, Note_on_c, 0, 81, 100
2, 77220, Note_on_c, 0, 81, 0
2, 77220, Note_on_c, 0, 79, 100
2, 77280, Note_on_c, 0, 79, 0
2, 77340, Note_on_c, 0, 79, 100
2, 77400, Note_on_c, 0, 79, 0
2, 77400, Note_on_c, 0, 81, 100
2, 77460, Note_on_c, 0, 81, 0
2, 77460, Note_on_c, 0, 79, 100
2, 77520, Note_on_c, 0, 79, 0
2, 77520, Note_on_c, 0, 81, 100
2, 77580, Note_on_c, 0, 81, 0
2, 77580, Note_on_c, 0, 79, 100
2, 77640, Note_on_c, 0, 79, 0
2, 77640, Note_on_c, 0, 81, 100
2, 77700, Note_on_c, 0, 81, 0
2, 77700, Note_on_c, 0, 79, 100
2, 77760, Note_on_c, 0, 79, 0
2, 77820, Note_on_c, 0, 79, 100
2, 77880, Note_on_c, 0, 79, 0
2, 77880, Note_on_c, 0, 81, 100
2, 77940, Note_on_c, 0, 81, 0
2, 77940, Note_on_c, 0, 79, 100
2, 78000, Note_on_c, 0, 79, 0
2, 78000, Note_on_c, 0, 81, 100
2, 78060, Note_on_c, 0, 81, 0
2, 78060, Note_on_c, 0, 79, 100
2, 78120, Note_on_c, 0, 79, 0
2, 78120, Note_on_c, 0, 81, 100
2, 78180, Note_on_c, 0, 81, 0
2, 78180, Note_on_c, 0, 79, 100
2, 78240, Note_on_c, 0, 79, 0
2, 78300, Note_on_c, 0, 79, 100
2, 78360, Note_on_c, 0, 79, 0
2, 78360, Note_on_c, 0, 81, 100
2, 78420, Note_on_c, 0, 81, 0
2, 78420, Note_on_c, 0, 79, 100
2, 78480, Note_on_c, 0, 79, 0
2, 78480, Note_on_c, 0, 81, 100
2, 78540, Note_on_c, 0, 81, 0
2, 78540, Note_on_c, 0, 79, 100
2, 78600, Note_on_c, 0, 79, 0
2, 78600, Note_on_c, 0, 81, 100
2, 78660, Note_on_c, 0, 81, 0
2, 78660, Note_on_c, 0, 79, 100
2, 78720, Note_on_c, 0, 79, 0
2, 78780, Note_on_c, 0, 78, 100
2, 78840, Note_on_c, 0, 78, 0
2, 78840, Note_on_c, 0, 79, 100
2, 78900, Note_on_c, 0, 79, 0
2, 78900, Note_on_c, 0, 78, 100
2, 78960, Note_on_c, 0, 78, 0
2, 78960, Note_on_c, 0, 79, 100
2, 79020, Note_on_c, 0, 79, 0
2, 79020, Note_on_c, 0, 78, 100
2, 79080, Note_on_c, 0, 78, 0
2, 79080, Note_on_c, 0, 79, 100
2, 79140, Note_on_c, 0, 79, 0
2, 79140, Note_on_c, 0, 78, 100
2, 79200, Note_on_c, 0, 78, 0
2, 79200, Note_on_c, 0, 76, 100
2, 79320, Note_on_c, 0, 76, 0
2, 79320, Note_on_c, 0, 67, 100
2, 79440, Note_on_c, 0, 67, 0
2, 79440, Note_on_c, 0, 66, 100
2, 79560, Note_on_c, 0, 66, 0
2, 79560, Note_on_c, 0, 67, 100
2, 79680, Note_on_c, 0, 67, 0
2, 79680, Note_on_c, 0, 71, 100
2, 79800, Note_on_c, 0, 71, 0
2, 79800, Note_on_c, 0, 76, 100
2, 79920, Note_on_c, 0, 76, 0
2, 79920, Note_on_c, 0, 75, 100
2, 80040, Note_on_c, 0, 75, 0
2, 80040, Note_on_c, 0, 76, 100
2, 80160, Note_on_c, 0, 76, 0
2, 80160, Note_on_c, 0, 79, 100
2, 80220, Note_on_c, 0, 79, 0
2, 80220, Note_on_c, 0, 77, 100
2, 80280, Note_on_c, 0, 77, 0
2, 80280, Note_on_c, 0, 76, 100
2, 80400, Note_on_c, 0, 76, 0
2, 80400, Note_on_c, 0, 77, 100
2, 80460, Note_on_c, 0, 77, 0
2, 80460, Note_on_c, 0, 76, 100
2, 80520, Note_on_c, 0, 76, 0
2, 80520, Note_on_c, 0, 74, 100
2, 80640, Note_on_c, 0, 74, 0
2, 80640, Note_on_c, 0, 76, 100
2, 80880, Note_on_c, 0, 76, 0
2, 80880, Note_on_c, 0, 64, 100
2, 81120, Note_on_c, 0, 64, 0
2, 81120, Note_on_c, 0, 63, 100
2, 81360, Note_on_c, 0, 63, 0
2, 81360, Note_on_c, 0, 62, 100
2, 81600, Note_on_c, 0, 62, 0
2, 81600, Note_on_c, 0, 61, 100
2, 81840, Note_on_c, 0, 61, 0
2, 81840, Note_on_c, 0, 76, 100
2, 82080, Note_on_c, 0, 76, 0
2, 82080, Note_on_c, 0, 74, 100
2, 82320, Note_on_c, 0, 74, 0
2, 82320, Note_on_c, 0, 62, 100
2, 82560, Note_on_c, 0, 62, 0
2, 82560, Note_on_c, 0, 61, 100
2, 82800, Note_on_c, 0, 61, 0
2, 82800, Note_on_c, 0, 60, 100
2, 83040, Note_on_c, 0, 60, 0
2, 83040, Note_on_c, 0, 59, 100
2, 83280, Note_on_c, 0, 59, 0
2, 83280, Note_on_c, 0, 74, 100
2, 83520, Note_on_c, 0, 74, 0
2, 83580, Note_on_c, 0, 72, 100
2, 83640, Note_on_c, 0, 72, 0
2, 83640, Note_on_c, 0, 74, 100
2, 83700, Note_on_c, 0, 74, 0
2, 83700, Note_on_c, 0, 72, 100
2, 83760, Note_on_c, 0, 72, 0
2, 83760, Note_on_c, 0, 74, 100
2, 83820, Note_on_c, 0, 74, 0
2, 83820, Note_on_c, 0, 72, 100
2, 83880, Note_on_c, 0, 72, 0
2, 83880, Note_on_c, 0, 74, 100
2, 83940, Note_on_c, 0, 74, 0
2, 83940, Note_on_c, 0, 72, 100
2, 84000, Note_on_c, 0, 72, 0
2, 84060, Note_on_c, 0, 72, 100
2, 84120, Note_on_c, 0, 72, 0
2, 84120, Note_on_c, 0, 74, 100
2, 84180, Note_on_c, 0, 74, 0
2, 84180, Note_on_c, 0, 72, 100
2, 84240, Note_on_c, 0, 72, 0
2, 84240, Note_on_c, 0, 74, 100
2, 84300, Note_on_c, 0, 74, 0
2, 84300, Note_on_c, 0, 72, 100
2, 84360, Note_on_c, 0, 72, 0
2, 84360, Note_on_c, 0, 74, 100
2, 84420, Note_on_c, 0, 74, 0
2, 84420, Note_on_c, 0, 72, 100
2, 84480, Note_on_c, 0, 72, 0
2, 84540, Note_on_c, 0, 72, 100
2, 84600, Note_on_c, 0, 72, 0
2, 84600, Note_on_c, 0, 74, 100
2, 84660, Note_on_c, 0, 74, 0
2, 84660, Note_on_c, 0, 72, 100
2, 84720, Note_on_c, 0, 72, 0
2, 84720, Note_on_c, 0, 74, 100
2, 84780, Note_on_c, 0, 74, 0
2, 84780, Note_on_c, 0, 72, 100
2, 84840, Note_on_c, 0, 72, 0
2, 84840, Note_on_c, 0, 74, 100
2, 84900, Note_on_c, 0, 74, 0
2, 84900, Note_on_c, 0, 72, 100
2, 84960, Note_on_c, 0, 72, 0
2, 85020, Note_on_c, 0, 72, 100
2, 85080, Note_on_c, 0, 72, 0
2, 85080, Note_on_c, 0, 74, 100
2, 85140, Note_on_c, 0, 74, 0
2, 85140, Note_on_c, 0, 72, 100
2, 85200, Note_on_c, 0, 72, 0
2, 85200, Note_on_c, 0, 74, 100
2, 85260, Note_on_c, 0, 74, 0
2, 85260, Note_on_c, 0, 72, 100
2, 85320, Note_on_c, 0, 72, 0
2, 85320, Note_on_c, 0, 74, 100
2, 85380, Note_on_c, 0, 74, 0
2, 85380, Note_on_c, 0, 72, 100
2, 85440, Note_on_c, 0, 72, 0
2, 85500, Note_on_c, 0, 72, 100
2, 85560, Note_on_c, 0, 72, 0
2, 85560, Note_on_c, 0, 74, 100
2, 85620, Note_on_c, 0, 74, 0
2, 85620, Note_on_c, 0, 72, 100
2, 85680, Note_on_c, 0, 72, 0
2, 85680, Note_on_c, 0, 74, 100
2, 85740, Note_on_c, 0, 74, 0
2, 85740, Note_on_c, 0, 72, 100
2, 85800, Note_on_c, 0, 72, 0
2, 85800, Note_on_c, 0, 74, 100
2, 85860, Note_on_c, 0, 74, 0
2, 85860, Note_on_c, 0, 72, 100
2, 85920, Note_on_c, 0, 72, 0
2, 85980, Note_on_c, 0, 72, 100
2, 86040, Note_on_c, 0, 72, 0
2, 86040, Note_on_c, 0, 74, 100
2, 86100, Note_on_c, 0, 74, 0
2, 86100, Note_on_c, 0, 72, 100
2, 86160, Note_on_c, 0, 72, 0
2, 86160, Note_on_c, 0, 74, 100
2, 86220, Note_on_c, 0, 74, 0
2, 86220, Note_on_c, 0, 72, 100
2, 86280, Note_on_c, 0, 72, 0
2, 86280, Note_on_c, 0, 74, 100
2, 86340, Note_on_c, 0, 74, 0
2, 86340, Note_on_c, 0, 72, 100
2, 86400, Note_on_c, 0, 72, 0
2, 86400, Note_on_c, 0, 71, 100
2, 86520, Note_on_c, 0, 71, 0
2, 86880, Note_on_c, 0, 72, 100
2, 87000, Note_on_c, 0, 72, 0
2, 87360, Note_on_c, 0, 74, 100
2, 87480, Note_on_c, 0, 74, 0
2, 87840, Note_on_c, 0, 64, 100
2, 88080, Note_on_c, 0, 64, 0
2, 88080, Note_on_c, 0, 76, 100
2, 88320, Note_on_c, 0, 76, 0
2, 88320, Note_on_c, 0, 77, 100
2, 88560, Note_on_c, 0, 77, 0
2, 88560, Note_on_c, 0, 78, 100
2, 88800, Note_on_c, 0, 78, 0
2, 88800, Note_on_c, 0, 79, 100
2, 89040, Note_on_c, 0, 79, 0
2, 89040, Note_on_c, 0, 80, 100
2, 89280, Note_on_c, 0, 80, 0
2, 89280, Note_on_c, 0, 81, 100
2, 89400, Note_on_c, 0, 81, 0
2, 89400, Note_on_c, 0, 66, 100
2, 89520, Note_on_c, 0, 66, 0
2, 89520, Note_on_c, 0, 64, 100
2, 89640, Note_on_c, 0, 64, 0
2, 89640, Note_on_c, 0, 66, 100
2, 89760, Note_on_c, 0, 66, 0
2, 89760, Note_on_c, 0, 67, 100
2, 89880, Note_on_c, 0, 67, 0
2, 89880, Note_on_c, 0, 71, 100
2, 90000, Note_on_c, 0, 71, 0
2, 90000, Note_on_c, 0, 69, 100
2, 90120, Note_on_c, 0, 69, 0
2, 90120, Note_on_c, 0, 71, 100
2, 90240, Note_on_c, 0, 71, 0
2, 90240, Note_on_c, 0, 72, 100
2, 90360, Note_on_c, 0, 72, 0
2, 90360, Note_on_c, 0, 69, 100
2, 90480, Note_on_c, 0, 69, 0
2, 90480, Note_on_c, 0, 66, 100
2, 90600, Note_on_c, 0, 66, 0
2, 90600, Note_on_c, 0, 62, 100
2, 90720, Note_on_c, 0, 62, 0
2, 90720, Note_on_c, 0, 67, 100
2, 90840, Note_on_c, 0, 67, 0
2, 90840, Note_on_c, 0, 71, 100
2, 90960, Note_on_c, 0, 71, 0
2, 90960, Note_on_c, 0, 69, 100
2, 91080, Note_on_c, 0, 69, 0
2, 91080, Note_on_c, 0, 71, 100
2, 91200, Note_on_c, 0, 71, 0
2, 91200, Note_on_c, 0, 74, 100
2, 91320, Note_on_c, 0, 74, 0
2, 91320, Note_on_c, 0, 79, 100
2, 91440, Note_on_c, 0, 79, 0
2, 91440, Note_on_c, 0, 78, 100
2, 91560, Note_on_c, 0, 78, 0
2, 91560, Note_on_c, 0, 79, 100
2, 91680, Note_on_c, 0, 79, 0
2, 91680, Note_on_c, 0, 83, 100
2, 92160, Note_on_c, 0, 83, 0
2, 92160, End_track
3, 0, Start_track
3, 0, MIDI_port, 0
3, 0, Title_t, "--------------------------------------"
3, 0, Program_c, 1, 6
3, 0, Control_c, 1, 7, 100
3, 0, Control_c, 1, 10, 69
3, 60, Note_on_c, 1, 74, 100
3, 120, Note_on_c, 1, 74, 0
3, 120, Note_on_c, 1, 76, 100
3, 180, Note_on_c, 1, 76, 0
3, 180, Note_on_c, 1, 74, 100
3, 240, Note_on_c, 1, 74, 0
3, 240, Note_on_c, 1, 76, 100
3, 300, Note_on_c, 1, 76, 0
3, 300, Note_on_c, 1, 74, 100
3, 360, Note_on_c, 1, 74, 0
3, 360, Note_on_c, 1, 76, 100
3, 420, Note_on_c, 1, 76, 0
3, 420, Note_on_c, 1, 74, 100
3, 480, Note_on_c, 1, 74, 0
3, 540, Note_on_c, 1, 74, 100
3, 600, Note_on_c, 1, 74, 0
3, 600, Note_on_c, 1, 76, 100
3, 660, Note_on_c, 1, 76, 0
3, 660, Note_on_c, 1, 74, 100
3, 720, Note_on_c, 1, 74, 0
3, 720, Note_on_c, 1, 76, 100
3, 780, Note_on_c, 1, 76, 0
3, 780, Note_on_c, 1, 74, 100
3, 840, Note_on_c, 1, 74, 0
3, 840, Note_on_c, 1, 76, 100
3, 900, Note_on_c, 1, 76, 0
3, 900, Note_on_c, 1, 74, 100
3, 960, Note_on_c, 1, 74, 0
3, 1020, Note_on_c, 1, 74, 100
3, 1080, Note_on_c, 1, 74, 0
3, 1080, Note_on_c, 1, 76, 100
3, 1140, Note_on_c, 1, 76, 0
3, 1140, Note_on_c, 1, 74, 100
3, 1200, Note_on_c, 1, 74, 0
3, 1200, Note_on_c, 1, 76, 100
3, 1260, Note_on_c, 1, 76, 0
3, 1260, Note_on_c, 1, 74, 100
3, 1320, Note_on_c, 1, 74, 0
3, 1320, Note_on_c, 1, 76, 100
3, 1380, Note_on_c, 1, 76, 0
3, 1380, Note_on_c, 1, 74, 100
3, 1440, Note_on_c, 1, 74, 0
3, 1500, Note_on_c, 1, 74, 100
3, 1560, Note_on_c, 1, 74, 0
3, 1560, Note_on_c, 1, 76, 100
3, 1620, Note_on_c, 1, 76, 0
3, 1620, Note_on_c, 1, 74, 100
3, 1680, Note_on_c, 1, 74, 0
3, 1680, Note_on_c, 1, 76, 100
3, 1740, Note_on_c, 1, 76, 0
3, 1740, Note_on_c, 1, 74, 100
3, 1800, Note_on_c, 1, 74, 0
3, 1800, Note_on_c, 1, 76, 100
3, 1860, Note_on_c, 1, 76, 0
3, 1860, Note_on_c, 1, 74, 100
3, 1920, Note_on_c, 1, 74, 0
3, 1980, Note_on_c, 1, 74, 100
3, 2040, Note_on_c, 1, 74, 0
3, 2040, Note_on_c, 1, 76, 100
3, 2100, Note_on_c, 1, 76, 0
3, 2100, Note_on_c, 1, 74, 100
3, 2160, Note_on_c, 1, 74, 0
3, 2160, Note_on_c, 1, 76, 100
3, 2220, Note_on_c, 1, 76, 0
3, 2220, Note_on_c, 1, 74, 100
3, 2280, Note_on_c, 1, 74, 0
3, 2280, Note_on_c, 1, 76, 100
3, 2340, Note_on_c, 1, 76, 0
3, 2340, Note_on_c, 1, 74, 100
3, 2400, Note_on_c, 1, 74, 0
3, 2460, Note_on_c, 1, 74, 100
3, 2520, Note_on_c, 1, 74, 0
3, 2520, Note_on_c, 1, 76, 100
3, 2580, Note_on_c, 1, 76, 0
3, 2580, Note_on_c, 1, 74, 100
3, 2640, Note_on_c, 1, 74, 0
3, 2640, Note_on_c, 1, 76, 100
3, 2700, Note_on_c, 1, 76, 0
3, 2700, Note_on_c, 1, 74, 100
3, 2760, Note_on_c, 1, 74, 0
3, 2760, Note_on_c, 1, 76, 100
3, 2820, Note_on_c, 1, 76, 0
3, 2820, Note_on_c, 1, 74, 100
3, 2880, Note_on_c, 1, 74, 0
3, 2940, Note_on_c, 1, 74, 100
3, 3000, Note_on_c, 1, 74, 0
3, 3000, Note_on_c, 1, 76, 100
3, 3060, Note_on_c, 1, 76, 0
3, 3060, Note_on_c, 1, 74, 100
3, 3120, Note_on_c, 1, 74, 0
3, 3120, Note_on_c, 1, 76, 100
3, 3180, Note_on_c, 1, 76, 0
3, 3180, Note_on_c, 1, 74, 100
3, 3240, Note_on_c, 1, 74, 0
3, 3240, Note_on_c, 1, 76, 100
3, 3300, Note_on_c, 1, 76, 0
3, 3300, Note_on_c, 1, 74, 100
3, 3360, Note_on_c, 1, 74, 0
3, 3420, Note_on_c, 1, 74, 100
3, 3480, Note_on_c, 1, 74, 0
3, 3480, Note_on_c, 1, 76, 100
3, 3540, Note_on_c, 1, 76, 0
3, 3540, Note_on_c, 1, 74, 100
3, 3600, Note_on_c, 1, 74, 0
3, 3600, Note_on_c, 1, 76, 100
3, 3660, Note_on_c, 1, 76, 0
3, 3660, Note_on_c, 1, 74, 100
3, 3720, Note_on_c, 1, 74, 0
3, 3720, Note_on_c, 1, 76, 100
3, 3780, Note_on_c, 1, 76, 0
3, 3780, Note_on_c, 1, 74, 100
3, 3840, Note_on_c, 1, 74, 0
3, 3900, Note_on_c, 1, 73, 100
3, 3960, Note_on_c, 1, 73, 0
3, 3960, Note_on_c, 1, 74, 100
3, 4020, Note_on_c, 1, 74, 0
3, 4020, Note_on_c, 1, 73, 100
3, 4080, Note_on_c, 1, 73, 0
3, 4080, Note_on_c, 1, 74, 100
3, 4140, Note_on_c, 1, 74, 0
3, 4140, Note_on_c, 1, 73, 100
3, 4200, Note_on_c, 1, 73, 0
3, 4200, Note_on_c, 1, 74, 100
3, 4260, Note_on_c, 1, 74, 0
3, 4260, Note_on_c, 1, 73, 100
3, 4320, Note_on_c, 1, 73, 0
3, 4380, Note_on_c, 1, 74, 100
3, 4440, Note_on_c, 1, 74, 0
3, 4440, Note_on_c, 1, 76, 100
3, 4500, Note_on_c, 1, 76, 0
3, 4500, Note_on_c, 1, 74, 100
3, 4560, Note_on_c, 1, 74, 0
3, 4560, Note_on_c, 1, 76, 100
3, 4620, Note_on_c, 1, 76, 0
3, 4620, Note_on_c, 1, 74, 100
3, 4680, Note_on_c, 1, 74, 0
3, 4680, Note_on_c, 1, 76, 100
3, 4740, Note_on_c, 1, 76, 0
3, 4740, Note_on_c, 1, 74, 100
3, 4800, Note_on_c, 1, 74, 0
3, 4860, Note_on_c, 1, 74, 100
3, 4920, Note_on_c, 1, 74, 0
3, 4920, Note_on_c, 1, 76, 100
3, 4980, Note_on_c, 1, 76, 0
3, 4980, Note_on_c, 1, 74, 100
3, 5040, Note_on_c, 1, 74, 0
3, 5040, Note_on_c, 1, 76, 100
3, 5100, Note_on_c, 1, 76, 0
3, 5100, Note_on_c, 1, 74, 100
3, 5160, Note_on_c, 1, 74, 0
3, 5160, Note_on_c, 1, 76, 100
3, 5220, Note_on_c, 1, 76, 0
3, 5220, Note_on_c, 1, 74, 100
3, 5280, Note_on_c, 1, 74, 0
3, 5340, Note_on_c, 1, 74, 100
3, 5400, Note_on_c, 1, 74, 0
3, 5400, Note_on_c, 1, 76, 100
3, 5460, Note_on_c, 1, 76, 0
3, 5460, Note_on_c, 1, 74, 100
3, 5520, Note_on_c, 1, 74, 0
3, 5520, Note_on_c, 1, 76, 100
3, 5580, Note_on_c, 1, 76, 0
3, 5580, Note_on_c, 1, 74, 100
3, 5640, Note_on_c, 1, 74, 0
3, 5640, Note_on_c, 1, 76, 100
3, 5700, Note_on_c, 1, 76, 0
3, 5700, Note_on_c, 1, 74, 100
3, 5760, Note_on_c, 1, 74, 0
3, 6960, Note_on_c, 1, 71, 100
3, 7200, Note_on_c, 1, 71, 0
3, 7200, Note_on_c, 1, 72, 100
3, 7440, Note_on_c, 1, 72, 0
3, 8400, Note_on_c, 1, 81, 100
3, 8640, Note_on_c, 1, 81, 0
3, 8640, Note_on_c, 1, 83, 100
3, 8880, Note_on_c, 1, 83, 0
3, 8880, Note_on_c, 1, 57, 100
3, 9120, Note_on_c, 1, 57, 0
3, 9120, Note_on_c, 1, 59, 100
3, 9360, Note_on_c, 1, 59, 0
3, 9360, Note_on_c, 1, 52, 100
3, 9600, Note_on_c, 1, 52, 0
3, 9600, Note_on_c, 1, 54, 100
3, 9840, Note_on_c, 1, 54, 0
3, 10320, Note_on_c, 1, 84, 100
3, 10560, Note_on_c, 1, 84, 0
3, 10560, Note_on_c, 1, 83, 100
3, 10800, Note_on_c, 1, 83, 0
3, 10800, Note_on_c, 1, 81, 100
3, 11040, Note_on_c, 1, 81, 0
3, 11040, Note_on_c, 1, 79, 100
3, 11280, Note_on_c, 1, 79, 0
3, 11280, Note_on_c, 1, 69, 100
3, 11280, Note_on_c, 1, 78, 100
3, 11520, Note_on_c, 1, 78, 0
3, 11520, Note_on_c, 1, 69, 0
3, 11520, Note_on_c, 1, 71, 100
3, 11520, Note_on_c, 1, 83, 100
3, 11640, Note_on_c, 1, 83, 0
3, 11640, Note_on_c, 1, 71, 0
3, 11640, Note_on_c, 1, 79, 100
3, 11760, Note_on_c, 1, 79, 0
3, 11760, Note_on_c, 1, 78, 100
3, 11880, Note_on_c, 1, 78, 0
3, 11880, Note_on_c, 1, 79, 100
3, 12000, Note_on_c, 1, 79, 0
3, 12000, Note_on_c, 1, 76, 100
3, 12120, Note_on_c, 1, 76, 0
3, 12120, Note_on_c, 1, 71, 100
3, 12240, Note_on_c, 1, 71, 0
3, 12240, Note_on_c, 1, 69, 100
3, 12360, Note_on_c, 1, 69, 0
3, 12360, Note_on_c, 1, 71, 100
3, 12480, Note_on_c, 1, 71, 0
3, 12480, Note_on_c, 1, 67, 100
3, 12600, Note_on_c, 1, 67, 0
3, 12600, Note_on_c, 1, 71, 100
3, 12720, Note_on_c, 1, 71, 0
3, 12720, Note_on_c, 1, 76, 100
3, 12840, Note_on_c, 1, 76, 0
3, 12840, Note_on_c, 1, 79, 100
3, 12960, Note_on_c, 1, 79, 0
3, 12960, Note_on_c, 1, 81, 100
3, 13080, Note_on_c, 1, 81, 0
3, 13080, Note_on_c, 1, 78, 100
3, 13200, Note_on_c, 1, 78, 0
3, 13200, Note_on_c, 1, 76, 100
3, 13320, Note_on_c, 1, 76, 0
3, 13320, Note_on_c, 1, 78, 100
3, 13440, Note_on_c, 1, 78, 0
3, 13440, Note_on_c, 1, 74, 100
3, 13560, Note_on_c, 1, 74, 0
3, 13560, Note_on_c, 1, 69, 100
3, 13680, Note_on_c, 1, 69, 0
3, 13680, Note_on_c, 1, 67, 100
3, 13800, Note_on_c, 1, 67, 0
3, 13800, Note_on_c, 1, 69, 100
3, 13920, Note_on_c, 1, 69, 0
3, 13920, Note_on_c, 1, 66, 100
3, 14040, Note_on_c, 1, 66, 0
3, 14040, Note_on_c, 1, 69, 100
3, 14160, Note_on_c, 1, 69, 0
3, 14160, Note_on_c, 1, 74, 100
3, 14280, Note_on_c, 1, 74, 0
3, 14280, Note_on_c, 1, 78, 100
3, 14400, Note_on_c, 1, 78, 0
3, 14400, Note_on_c, 1, 79, 100
3, 14520, Note_on_c, 1, 79, 0
3, 14520, Note_on_c, 1, 76, 100
3, 14640, Note_on_c, 1, 76, 0
3, 14640, Note_on_c, 1, 75, 100
3, 14760, Note_on_c, 1, 75, 0
3, 14760, Note_on_c, 1, 76, 100
3, 14880, Note_on_c, 1, 76, 0
3, 14880, Note_on_c, 1, 71, 100
3, 15000, Note_on_c, 1, 71, 0
3, 15000, Note_on_c, 1, 67, 100
3, 15120, Note_on_c, 1, 67, 0
3, 15120, Note_on_c, 1, 66, 100
3, 15240, Note_on_c, 1, 66, 0
3, 15240, Note_on_c, 1, 67, 100
3, 15360, Note_on_c, 1, 67, 0
3, 15360, Note_on_c, 1, 64, 100
3, 15480, Note_on_c, 1, 64, 0
3, 15480, Note_on_c, 1, 67, 100
3, 15600, Note_on_c, 1, 67, 0
3, 15600, Note_on_c, 1, 71, 100
3, 15720, Note_on_c, 1, 71, 0
3, 15720, Note_on_c, 1, 74, 100
3, 15840, Note_on_c, 1, 74, 0
3, 15840, Note_on_c, 1, 73, 100
3, 15960, Note_on_c, 1, 73, 0
3, 15960, Note_on_c, 1, 67, 100
3, 16080, Note_on_c, 1, 67, 0
3, 16080, Note_on_c, 1, 66, 100
3, 16200, Note_on_c, 1, 66, 0
3, 16200, Note_on_c, 1, 67, 100
3, 16320, Note_on_c, 1, 67, 0
3, 16320, Note_on_c, 1, 64, 100
3, 16440, Note_on_c, 1, 64, 0
3, 16440, Note_on_c, 1, 61, 100
3, 16560, Note_on_c, 1, 61, 0
3, 16560, Note_on_c, 1, 59, 100
3, 16680, Note_on_c, 1, 59, 0
3, 16680, Note_on_c, 1, 61, 100
3, 16800, Note_on_c, 1, 61, 0
3, 16800, Note_on_c, 1, 57, 100
3, 16920, Note_on_c, 1, 57, 0
3, 16920, Note_on_c, 1, 61, 100
3, 17040, Note_on_c, 1, 61, 0
3, 17040, Note_on_c, 1, 64, 100
3, 17160, Note_on_c, 1, 64, 0
3, 17160, Note_on_c, 1, 67, 100
3, 17280, Note_on_c, 1, 67, 0
3, 17340, Note_on_c, 1, 62, 100
3, 17400, Note_on_c, 1, 62, 0
3, 17400, Note_on_c, 1, 64, 100
3, 17460, Note_on_c, 1, 64, 0
3, 17460, Note_on_c, 1, 62, 100
3, 17520, Note_on_c, 1, 62, 0
3, 17520, Note_on_c, 1, 64, 100
3, 17580, Note_on_c, 1, 64, 0
3, 17580, Note_on_c, 1, 62, 100
3, 17640, Note_on_c, 1, 62, 0
3, 17640, Note_on_c, 1, 64, 100
3, 17700, Note_on_c, 1, 64, 0
3, 17700, Note_on_c, 1, 62, 100
3, 17760, Note_on_c, 1, 62, 0
3, 17820, Note_on_c, 1, 62, 100
3, 17880, Note_on_c, 1, 62, 0
3, 17880, Note_on_c, 1, 64, 100
3, 17940, Note_on_c, 1, 64, 0
3, 17940, Note_on_c, 1, 62, 100
3, 18000, Note_on_c, 1, 62, 0
3, 18000, Note_on_c, 1, 64, 100
3, 18060, Note_on_c, 1, 64, 0
3, 18060, Note_on_c, 1, 62, 100
3, 18120, Note_on_c, 1, 62, 0
3, 18120, Note_on_c, 1, 64, 100
3, 18180, Note_on_c, 1, 64, 0
3, 18180, Note_on_c, 1, 62, 100
3, 18240, Note_on_c, 1, 62, 0
3, 18300, Note_on_c, 1, 62, 100
3, 18360, Note_on_c, 1, 62, 0
3, 18360, Note_on_c, 1, 64, 100
3, 18420, Note_on_c, 1, 64, 0
3, 18420, Note_on_c, 1, 62, 100
3, 18480, Note_on_c, 1, 62, 0
3, 18480, Note_on_c, 1, 64, 100
3, 18540, Note_on_c, 1, 64, 0
3, 18540, Note_on_c, 1, 62, 100
3, 18600, Note_on_c, 1, 62, 0
3, 18600, Note_on_c, 1, 64, 100
3, 18660, Note_on_c, 1, 64, 0
3, 18660, Note_on_c, 1, 62, 100
3, 18720, Note_on_c, 1, 62, 0
3, 18780, Note_on_c, 1, 62, 100
3, 18840, Note_on_c, 1, 62, 0
3, 18840, Note_on_c, 1, 64, 100
3, 18900, Note_on_c, 1, 64, 0
3, 18900, Note_on_c, 1, 62, 100
3, 18960, Note_on_c, 1, 62, 0
3, 18960, Note_on_c, 1, 64, 100
3, 19020, Note_on_c, 1, 64, 0
3, 19020, Note_on_c, 1, 62, 100
3, 19080, Note_on_c, 1, 62, 0
3, 19080, Note_on_c, 1, 64, 100
3, 19140, Note_on_c, 1, 64, 0
3, 19140, Note_on_c, 1, 62, 100
3, 19200, Note_on_c, 1, 62, 0
3, 19260, Note_on_c, 1, 62, 100
3, 19320, Note_on_c, 1, 62, 0
3, 19320, Note_on_c, 1, 64, 100
3, 19380, Note_on_c, 1, 64, 0
3, 19380, Note_on_c, 1, 62, 100
3, 19440, Note_on_c, 1, 62, 0
3, 19440, Note_on_c, 1, 64, 100
3, 19500, Note_on_c, 1, 64, 0
3, 19500, Note_on_c, 1, 62, 100
3, 19560, Note_on_c, 1, 62, 0
3, 19560, Note_on_c, 1, 64, 100
3, 19620, Note_on_c, 1, 64, 0
3, 19620, Note_on_c, 1, 62, 100
3, 19680, Note_on_c, 1, 62, 0
3, 19740, Note_on_c, 1, 62, 100
3, 19800, Note_on_c, 1, 62, 0
3, 19800, Note_on_c, 1, 64, 100
3, 19860, Note_on_c, 1, 64, 0
3, 19860, Note_on_c, 1, 62, 100
3, 19920, Note_on_c, 1, 62, 0
3, 19920, Note_on_c, 1, 64, 100
3, 19980, Note_on_c, 1, 64, 0
3, 19980, Note_on_c, 1, 62, 100
3, 20040, Note_on_c, 1, 62, 0
3, 20040, Note_on_c, 1, 64, 100
3, 20100, Note_on_c, 1, 64, 0
3, 20100, Note_on_c, 1, 62, 100
3, 20160, Note_on_c, 1, 62, 0
3, 20220, Note_on_c, 1, 62, 100
3, 20280, Note_on_c, 1, 62, 0
3, 20280, Note_on_c, 1, 64, 100
3, 20340, Note_on_c, 1, 64, 0
3, 20340, Note_on_c, 1, 62, 100
3, 20400, Note_on_c, 1, 62, 0
3, 20400, Note_on_c, 1, 64, 100
3, 20460, Note_on_c, 1, 64, 0
3, 20460, Note_on_c, 1, 62, 100
3, 20520, Note_on_c, 1, 62, 0
3, 20520, Note_on_c, 1, 64, 100
3, 20580, Note_on_c, 1, 64, 0
3, 20580, Note_on_c, 1, 62, 100
3, 20640, Note_on_c, 1, 62, 0
3, 20700, Note_on_c, 1, 62, 100
3, 20760, Note_on_c, 1, 62, 0
3, 20760, Note_on_c, 1, 64, 100
3, 20820, Note_on_c, 1, 64, 0
3, 20820, Note_on_c, 1, 62, 100
3, 20880, Note_on_c, 1, 62, 0
3, 20880, Note_on_c, 1, 64, 100
3, 20940, Note_on_c, 1, 64, 0
3, 20940, Note_on_c, 1, 62, 100
3, 21000, Note_on_c, 1, 62, 0
3, 21000, Note_on_c, 1, 64, 100
3, 21060, Note_on_c, 1, 64, 0
3, 21060, Note_on_c, 1, 62, 100
3, 21120, Note_on_c, 1, 62, 0
3, 21180, Note_on_c, 1, 61, 100
3, 21240, Note_on_c, 1, 61, 0
3, 21240, Note_on_c, 1, 62, 100
3, 21300, Note_on_c, 1, 62, 0
3, 21300, Note_on_c, 1, 61, 100
3, 21360, Note_on_c, 1, 61, 0
3, 21360, Note_on_c, 1, 62, 100
3, 21420, Note_on_c, 1, 62, 0
3, 21420, Note_on_c, 1, 61, 100
3, 21480, Note_on_c, 1, 61, 0
3, 21480, Note_on_c, 1, 62, 100
3, 21540, Note_on_c, 1, 62, 0
3, 21540, Note_on_c, 1, 61, 100
3, 21600, Note_on_c, 1, 61, 0
3, 21600, Note_on_c, 1, 66, 100
3, 21720, Note_on_c, 1, 66, 0
3, 21720, Note_on_c, 1, 62, 100
3, 21840, Note_on_c, 1, 62, 0
3, 21840, Note_on_c, 1, 61, 100
3, 21960, Note_on_c, 1, 61, 0
3, 21960, Note_on_c, 1, 62, 100
3, 22080, Note_on_c, 1, 62, 0
3, 22080, Note_on_c, 1, 57, 100
3, 22200, Note_on_c, 1, 57, 0
3, 22200, Note_on_c, 1, 54, 100
3, 22320, Note_on_c, 1, 54, 0
3, 22320, Note_on_c, 1, 52, 100
3, 22440, Note_on_c, 1, 52, 0
3, 22440, Note_on_c, 1, 54, 100
3, 22560, Note_on_c, 1, 54, 0
3, 22560, Note_on_c, 1, 50, 100
3, 23040, Note_on_c, 1, 50, 0
3, 23100, Note_on_c, 1, 74, 100
3, 23160, Note_on_c, 1, 74, 0
3, 23160, Note_on_c, 1, 76, 100
3, 23220, Note_on_c, 1, 76, 0
3, 23220, Note_on_c, 1, 74, 100
3, 23280, Note_on_c, 1, 74, 0
3, 23280, Note_on_c, 1, 76, 100
3, 23340, Note_on_c, 1, 76, 0
3, 23340, Note_on_c, 1, 74, 100
3, 23400, Note_on_c, 1, 74, 0
3, 23400, Note_on_c, 1, 76, 100
3, 23460, Note_on_c, 1, 76, 0
3, 23460, Note_on_c, 1, 74, 100
3, 23520, Note_on_c, 1, 74, 0
3, 23580, Note_on_c, 1, 74, 100
3, 23640, Note_on_c, 1, 74, 0
3, 23640, Note_on_c, 1, 76, 100
3, 23700, Note_on_c, 1, 76, 0
3, 23700, Note_on_c, 1, 74, 100
3, 23760, Note_on_c, 1, 74, 0
3, 23760, Note_on_c, 1, 76, 100
3, 23820, Note_on_c, 1, 76, 0
3, 23820, Note_on_c, 1, 74, 100
3, 23880, Note_on_c, 1, 74, 0
3, 23880, Note_on_c, 1, 76, 100
3, 23940, Note_on_c, 1, 76, 0
3, 23940, Note_on_c, 1, 74, 100
3, 24000, Note_on_c, 1, 74, 0
3, 24060, Note_on_c, 1, 74, 100
3, 24120, Note_on_c, 1, 74, 0
3, 24120, Note_on_c, 1, 76, 100
3, 24180, Note_on_c, 1, 76, 0
3, 24180, Note_on_c, 1, 74, 100
3, 24240, Note_on_c, 1, 74, 0
3, 24240, Note_on_c, 1, 76, 100
3, 24300, Note_on_c, 1, 76, 0
3, 24300, Note_on_c, 1, 74, 100
3, 24360, Note_on_c, 1, 74, 0
3, 24360, Note_on_c, 1, 76, 100
3, 24420, Note_on_c, 1, 76, 0
3, 24420, Note_on_c, 1, 74, 100
3, 24480, Note_on_c, 1, 74, 0
3, 24540, Note_on_c, 1, 74, 100
3, 24600, Note_on_c, 1, 74, 0
3, 24600, Note_on_c, 1, 76, 100
3, 24660, Note_on_c, 1, 76, 0
3, 24660, Note_on_c, 1, 74, 100
3, 24720, Note_on_c, 1, 74, 0
3, 24720, Note_on_c, 1, 76, 100
3, 24780, Note_on_c, 1, 76, 0
3, 24780, Note_on_c, 1, 74, 100
3, 24840, Note_on_c, 1, 74, 0
3, 24840, Note_on_c, 1, 76, 100
3, 24900, Note_on_c, 1, 76, 0
3, 24900, Note_on_c, 1, 74, 100
3, 24960, Note_on_c, 1, 74, 0
3, 25020, Note_on_c, 1, 74, 100
3, 25080, Note_on_c, 1, 74, 0
3, 25080, Note_on_c, 1, 76, 100
3, 25140, Note_on_c, 1, 76, 0
3, 25140, Note_on_c, 1, 74, 100
3, 25200, Note_on_c, 1, 74, 0
3, 25200, Note_on_c, 1, 76, 100
3, 25260, Note_on_c, 1, 76, 0
3, 25260, Note_on_c, 1, 74, 100
3, 25320, Note_on_c, 1, 74, 0
3, 25320, Note_on_c, 1, 76, 100
3, 25380, Note_on_c, 1, 76, 0
3, 25380, Note_on_c, 1, 74, 100
3, 25440, Note_on_c, 1, 74, 0
3, 25500, Note_on_c, 1, 74, 100
3, 25560, Note_on_c, 1, 74, 0
3, 25560, Note_on_c, 1, 76, 100
3, 25620, Note_on_c, 1, 76, 0
3, 25620, Note_on_c, 1, 74, 100
3, 25680, Note_on_c, 1, 74, 0
3, 25680, Note_on_c, 1, 76, 100
3, 25740, Note_on_c, 1, 76, 0
3, 25740, Note_on_c, 1, 74, 100
3, 25800, Note_on_c, 1, 74, 0
3, 25800, Note_on_c, 1, 76, 100
3, 25860, Note_on_c, 1, 76, 0
3, 25860, Note_on_c, 1, 74, 100
3, 25920, Note_on_c, 1, 74, 0
3, 25980, Note_on_c, 1, 74, 100
3, 26040, Note_on_c, 1, 74, 0
3, 26040, Note_on_c, 1, 76, 100
3, 26100, Note_on_c, 1, 76, 0
3, 26100, Note_on_c, 1, 74, 100
3, 26160, Note_on_c, 1, 74, 0
3, 26160, Note_on_c, 1, 76, 100
3, 26220, Note_on_c, 1, 76, 0
3, 26220, Note_on_c, 1, 74, 100
3, 26280, Note_on_c, 1, 74, 0
3, 26280, Note_on_c, 1, 76, 100
3, 26340, Note_on_c, 1, 76, 0
3, 26340, Note_on_c, 1, 74, 100
3, 26400, Note_on_c, 1, 74, 0
3, 26460, Note_on_c, 1, 74, 100
3, 26520, Note_on_c, 1, 74, 0
3, 26520, Note_on_c, 1, 76, 100
3, 26580, Note_on_c, 1, 76, 0
3, 26580, Note_on_c, 1, 74, 100
3, 26640, Note_on_c, 1, 74, 0
3, 26640, Note_on_c, 1, 76, 100
3, 26700, Note_on_c, 1, 76, 0
3, 26700, Note_on_c, 1, 74, 100
3, 26760, Note_on_c, 1, 74, 0
3, 26760, Note_on_c, 1, 76, 100
3, 26820, Note_on_c, 1, 76, 0
3, 26820, Note_on_c, 1, 74, 100
3, 26880, Note_on_c, 1, 74, 0
3, 26940, Note_on_c, 1, 73, 100
3, 27000, Note_on_c, 1, 73, 0
3, 27000, Note_on_c, 1, 74, 100
3, 27060, Note_on_c, 1, 74, 0
3, 27060, Note_on_c, 1, 73, 100
3, 27120, Note_on_c, 1, 73, 0
3, 27120, Note_on_c, 1, 74, 100
3, 27180, Note_on_c, 1, 74, 0
3, 27180, Note_on_c, 1, 73, 100
3, 27240, Note_on_c, 1, 73, 0
3, 27240, Note_on_c, 1, 74, 100
3, 27300, Note_on_c, 1, 74, 0
3, 27300, Note_on_c, 1, 73, 100
3, 27360, Note_on_c, 1, 73, 0
3, 27420, Note_on_c, 1, 74, 100
3, 27480, Note_on_c, 1, 74, 0
3, 27480, Note_on_c, 1, 76, 100
3, 27540, Note_on_c, 1, 76, 0
3, 27540, Note_on_c, 1, 74, 100
3, 27600, Note_on_c, 1, 74, 0
3, 27600, Note_on_c, 1, 76, 100
3, 27660, Note_on_c, 1, 76, 0
3, 27660, Note_on_c, 1, 74, 100
3, 27720, Note_on_c, 1, 74, 0
3, 27720, Note_on_c, 1, 76, 100
3, 27780, Note_on_c, 1, 76, 0
3, 27780, Note_on_c, 1, 74, 100
3, 27840, Note_on_c, 1, 74, 0
3, 27900, Note_on_c, 1, 74, 100
3, 27960, Note_on_c, 1, 74, 0
3, 27960, Note_on_c, 1, 76, 100
3, 28020, Note_on_c, 1, 76, 0
3, 28020, Note_on_c, 1, 74, 100
3, 28080, Note_on_c, 1, 74, 0
3, 28080, Note_on_c, 1, 76, 100
3, 28140, Note_on_c, 1, 76, 0
3, 28140, Note_on_c, 1, 74, 100
3, 28200, Note_on_c, 1, 74, 0
3, 28200, Note_on_c, 1, 76, 100
3, 28260, Note_on_c, 1, 76, 0
3, 28260, Note_on_c, 1, 74, 100
3, 28320, Note_on_c, 1, 74, 0
3, 28380, Note_on_c, 1, 74, 100
3, 28440, Note_on_c, 1, 74, 0
3, 28440, Note_on_c, 1, 76, 100
3, 28500, Note_on_c, 1, 76, 0
3, 28500, Note_on_c, 1, 74, 100
3, 28560, Note_on_c, 1, 74, 0
3, 28560, Note_on_c, 1, 76, 100
3, 28620, Note_on_c, 1, 76, 0
3, 28620, Note_on_c, 1, 74, 100
3, 28680, Note_on_c, 1, 74, 0
3, 28680, Note_on_c, 1, 76, 100
3, 28740, Note_on_c, 1, 76, 0
3, 28740, Note_on_c, 1, 74, 100
3, 28800, Note_on_c, 1, 74, 0
3, 30000, Note_on_c, 1, 71, 100
3, 30240, Note_on_c, 1, 71, 0
3, 30240, Note_on_c, 1, 72, 100
3, 30480, Note_on_c, 1, 72, 0
3, 31440, Note_on_c, 1, 81, 100
3, 31680, Note_on_c, 1, 81, 0
3, 31680, Note_on_c, 1, 83, 100
3, 31920, Note_on_c, 1, 83, 0
3, 31920, Note_on_c, 1, 57, 100
3, 32160, Note_on_c, 1, 57, 0
3, 32160, Note_on_c, 1, 59, 100
3, 32400, Note_on_c, 1, 59, 0
3, 32400, Note_on_c, 1, 52, 100
3, 32640, Note_on_c, 1, 52, 0
3, 32640, Note_on_c, 1, 54, 100
3, 32880, Note_on_c, 1, 54, 0
3, 33360, Note_on_c, 1, 84, 100
3, 33600, Note_on_c, 1, 84, 0
3, 33600, Note_on_c, 1, 83, 100
3, 33840, Note_on_c, 1, 83, 0
3, 33840, Note_on_c, 1, 81, 100
3, 34080, Note_on_c, 1, 81, 0
3, 34080, Note_on_c, 1, 79, 100
3, 34320, Note_on_c, 1, 79, 0
3, 34320, Note_on_c, 1, 69, 100
3, 34320, Note_on_c, 1, 78, 100
3, 34560, Note_on_c, 1, 78, 0
3, 34560, Note_on_c, 1, 69, 0
3, 34560, Note_on_c, 1, 71, 100
3, 34560, Note_on_c, 1, 83, 100
3, 34680, Note_on_c, 1, 83, 0
3, 34680, Note_on_c, 1, 71, 0
3, 34680, Note_on_c, 1, 79, 100
3, 34800, Note_on_c, 1, 79, 0
3, 34800, Note_on_c, 1, 78, 100
3, 34920, Note_on_c, 1, 78, 0
3, 34920, Note_on_c, 1, 79, 100
3, 35040, Note_on_c, 1, 79, 0
3, 35040, Note_on_c, 1, 76, 100
3, 35160, Note_on_c, 1, 76, 0
3, 35160, Note_on_c, 1, 71, 100
3, 35280, Note_on_c, 1, 71, 0
3, 35280, Note_on_c, 1, 69, 100
3, 35400, Note_on_c, 1, 69, 0
3, 35400, Note_on_c, 1, 71, 100
3, 35520, Note_on_c, 1, 71, 0
3, 35520, Note_on_c, 1, 67, 100
3, 35640, Note_on_c, 1, 67, 0
3, 35640, Note_on_c, 1, 71, 100
3, 35760, Note_on_c, 1, 71, 0
3, 35760, Note_on_c, 1, 76, 100
3, 35880, Note_on_c, 1, 76, 0
3, 35880, Note_on_c, 1, 79, 100
3, 36000, Note_on_c, 1, 79, 0
3, 36000, Note_on_c, 1, 81, 100
3, 36120, Note_on_c, 1, 81, 0
3, 36120, Note_on_c, 1, 78, 100
3, 36240, Note_on_c, 1, 78, 0
3, 36240, Note_on_c, 1, 76, 100
3, 36360, Note_on_c, 1, 76, 0
3, 36360, Note_on_c, 1, 78, 100
3, 36480, Note_on_c, 1, 78, 0
3, 36480, Note_on_c, 1, 74, 100
3, 36600, Note_on_c, 1, 74, 0
3, 36600, Note_on_c, 1, 69, 100
3, 36720, Note_on_c, 1, 69, 0
3, 36720, Note_on_c, 1, 67, 100
3, 36840, Note_on_c, 1, 67, 0
3, 36840, Note_on_c, 1, 69, 100
3, 36960, Note_on_c, 1, 69, 0
3, 36960, Note_on_c, 1, 66, 100
3, 37080, Note_on_c, 1, 66, 0
3, 37080, Note_on_c, 1, 69, 100
3, 37200, Note_on_c, 1, 69, 0
3, 37200, Note_on_c, 1, 74, 100
3, 37320, Note_on_c, 1, 74, 0
3, 37320, Note_on_c, 1, 78, 100
3, 37440, Note_on_c, 1, 78, 0
3, 37440, Note_on_c, 1, 79, 100
3, 37560, Note_on_c, 1, 79, 0
3, 37560, Note_on_c, 1, 76, 100
3, 37680, Note_on_c, 1, 76, 0
3, 37680, Note_on_c, 1, 75, 100
3, 37800, Note_on_c, 1, 75, 0
3, 37800, Note_on_c, 1, 76, 100
3, 37920, Note_on_c, 1, 76, 0
3, 37920, Note_on_c, 1, 71, 100
3, 38040, Note_on_c, 1, 71, 0
3, 38040, Note_on_c, 1, 67, 100
3, 38160, Note_on_c, 1, 67, 0
3, 38160, Note_on_c, 1, 66, 100
3, 38280, Note_on_c, 1, 66, 0
3, 38280, Note_on_c, 1, 67, 100
3, 38400, Note_on_c, 1, 67, 0
3, 38400, Note_on_c, 1, 64, 100
3, 38520, Note_on_c, 1, 64, 0
3, 38520, Note_on_c, 1, 67, 100
3, 38640, Note_on_c, 1, 67, 0
3, 38640, Note_on_c, 1, 71, 100
3, 38760, Note_on_c, 1, 71, 0
3, 38760, Note_on_c, 1, 74, 100
3, 38880, Note_on_c, 1, 74, 0
3, 38880, Note_on_c, 1, 73, 100
3, 39000, Note_on_c, 1, 73, 0
3, 39000, Note_on_c, 1, 67, 100
3, 39120, Note_on_c, 1, 67, 0
3, 39120, Note_on_c, 1, 66, 100
3, 39240, Note_on_c, 1, 66, 0
3, 39240, Note_on_c, 1, 67, 100
3, 39360, Note_on_c, 1, 67, 0
3, 39360, Note_on_c, 1, 64, 100
3, 39480, Note_on_c, 1, 64, 0
3, 39480, Note_on_c, 1, 61, 100
3, 39600, Note_on_c, 1, 61, 0
3, 39600, Note_on_c, 1, 59, 100
3, 39720, Note_on_c, 1, 59, 0
3, 39720, Note_on_c, 1, 61, 100
3, 39840, Note_on_c, 1, 61, 0
3, 39840, Note_on_c, 1, 57, 100
3, 39960, Note_on_c, 1, 57, 0
3, 39960, Note_on_c, 1, 61, 100
3, 40080, Note_on_c, 1, 61, 0
3, 40080, Note_on_c, 1, 64, 100
3, 40200, Note_on_c, 1, 64, 0
3, 40200, Note_on_c, 1, 67, 100
3, 40320, Note_on_c, 1, 67, 0
3, 40380, Note_on_c, 1, 62, 100
3, 40440, Note_on_c, 1, 62, 0
3, 40440, Note_on_c, 1, 64, 100
3, 40500, Note_on_c, 1, 64, 0
3, 40500, Note_on_c, 1, 62, 100
3, 40560, Note_on_c, 1, 62, 0
3, 40560, Note_on_c, 1, 64, 100
3, 40620, Note_on_c, 1, 64, 0
3, 40620, Note_on_c, 1, 62, 100
3, 40680, Note_on_c, 1, 62, 0
3, 40680, Note_on_c, 1, 64, 100
3, 40740, Note_on_c, 1, 64, 0
3, 40740, Note_on_c, 1, 62, 100
3, 40800, Note_on_c, 1, 62, 0
3, 40860, Note_on_c, 1, 62, 100
3, 40920, Note_on_c, 1, 62, 0
3, 40920, Note_on_c, 1, 64, 100
3, 40980, Note_on_c, 1, 64, 0
3, 40980, Note_on_c, 1, 62, 100
3, 41040, Note_on_c, 1, 62, 0
3, 41040, Note_on_c, 1, 64, 100
3, 41100, Note_on_c, 1, 64, 0
3, 41100, Note_on_c, 1, 62, 100
3, 41160, Note_on_c, 1, 62, 0
3, 41160, Note_on_c, 1, 64, 100
3, 41220, Note_on_c, 1, 64, 0
3, 41220, Note_on_c, 1, 62, 100
3, 41280, Note_on_c, 1, 62, 0
3, 41340, Note_on_c, 1, 62, 100
3, 41400, Note_on_c, 1, 62, 0
3, 41400, Note_on_c, 1, 64, 100
3, 41460, Note_on_c, 1, 64, 0
3, 41460, Note_on_c, 1, 62, 100
3, 41520, Note_on_c, 1, 62, 0
3, 41520, Note_on_c, 1, 64, 100
3, 41580, Note_on_c, 1, 64, 0
3, 41580, Note_on_c, 1, 62, 100
3, 41640, Note_on_c, 1, 62, 0
3, 41640, Note_on_c, 1, 64, 100
3, 41700, Note_on_c, 1, 64, 0
3, 41700, Note_on_c, 1, 62, 100
3, 41760, Note_on_c, 1, 62, 0
3, 41820, Note_on_c, 1, 62, 100
3, 41880, Note_on_c, 1, 62, 0
3, 41880, Note_on_c, 1, 64, 100
3, 41940, Note_on_c, 1, 64, 0
3, 41940, Note_on_c, 1, 62, 100
3, 42000, Note_on_c, 1, 62, 0
3, 42000, Note_on_c, 1, 64, 100
3, 42060, Note_on_c, 1, 64, 0
3, 42060, Note_on_c, 1, 62, 100
3, 42120, Note_on_c, 1, 62, 0
3, 42120, Note_on_c, 1, 64, 100
3, 42180, Note_on_c, 1, 64, 0
3, 42180, Note_on_c, 1, 62, 100
3, 42240, Note_on_c, 1, 62, 0
3, 42300, Note_on_c, 1, 62, 100
3, 42360, Note_on_c, 1, 62, 0
3, 42360, Note_on_c, 1, 64, 100
3, 42420, Note_on_c, 1, 64, 0
3, 42420, Note_on_c, 1, 62, 100
3, 42480, Note_on_c, 1, 62, 0
3, 42480, Note_on_c, 1, 64, 100
3, 42540, Note_on_c, 1, 64, 0
3, 42540, Note_on_c, 1, 62, 100
3, 42600, Note_on_c, 1, 62, 0
3, 42600, Note_on_c, 1, 64, 100
3, 42660, Note_on_c, 1, 64, 0
3, 42660, Note_on_c, 1, 62, 100
3, 42720, Note_on_c, 1, 62, 0
3, 42780, Note_on_c, 1, 62, 100
3, 42840, Note_on_c, 1, 62, 0
3, 42840, Note_on_c, 1, 64, 100
3, 42900, Note_on_c, 1, 64, 0
3, 42900, Note_on_c, 1, 62, 100
3, 42960, Note_on_c, 1, 62, 0
3, 42960, Note_on_c, 1, 64, 100
3, 43020, Note_on_c, 1, 64, 0
3, 43020, Note_on_c, 1, 62, 100
3, 43080, Note_on_c, 1, 62, 0
3, 43080, Note_on_c, 1, 64, 100
3, 43140, Note_on_c, 1, 64, 0
3, 43140, Note_on_c, 1, 62, 100
3, 43200, Note_on_c, 1, 62, 0
3, 43260, Note_on_c, 1, 62, 100
3, 43320, Note_on_c, 1, 62, 0
3, 43320, Note_on_c, 1, 64, 100
3, 43380, Note_on_c, 1, 64, 0
3, 43380, Note_on_c, 1, 62, 100
3, 43440, Note_on_c, 1, 62, 0
3, 43440, Note_on_c, 1, 64, 100
3, 43500, Note_on_c, 1, 64, 0
3, 43500, Note_on_c, 1, 62, 100
3, 43560, Note_on_c, 1, 62, 0
3, 43560, Note_on_c, 1, 64, 100
3, 43620, Note_on_c, 1, 64, 0
3, 43620, Note_on_c, 1, 62, 100
3, 43680, Note_on_c, 1, 62, 0
3, 43740, Note_on_c, 1, 62, 100
3, 43800, Note_on_c, 1, 62, 0
3, 43800, Note_on_c, 1, 64, 100
3, 43860, Note_on_c, 1, 64, 0
3, 43860, Note_on_c, 1, 62, 100
3, 43920, Note_on_c, 1, 62, 0
3, 43920, Note_on_c, 1, 64, 100
3, 43980, Note_on_c, 1, 64, 0
3, 43980, Note_on_c, 1, 62, 100
3, 44040, Note_on_c, 1, 62, 0
3, 44040, Note_on_c, 1, 64, 100
3, 44100, Note_on_c, 1, 64, 0
3, 44100, Note_on_c, 1, 62, 100
3, 44160, Note_on_c, 1, 62, 0
3, 44220, Note_on_c, 1, 61, 100
3, 44280, Note_on_c, 1, 61, 0
3, 44280, Note_on_c, 1, 62, 100
3, 44340, Note_on_c, 1, 62, 0
3, 44340, Note_on_c, 1, 61, 100
3, 44400, Note_on_c, 1, 61, 0
3, 44400, Note_on_c, 1, 62, 100
3, 44460, Note_on_c, 1, 62, 0
3, 44460, Note_on_c, 1, 61, 100
3, 44520, Note_on_c, 1, 61, 0
3, 44520, Note_on_c, 1, 62, 100
3, 44580, Note_on_c, 1, 62, 0
3, 44580, Note_on_c, 1, 61, 100
3, 44640, Note_on_c, 1, 61, 0
3, 44640, Note_on_c, 1, 66, 100
3, 44760, Note_on_c, 1, 66, 0
3, 44760, Note_on_c, 1, 62, 100
3, 44880, Note_on_c, 1, 62, 0
3, 44880, Note_on_c, 1, 61, 100
3, 45000, Note_on_c, 1, 61, 0
3, 45000, Note_on_c, 1, 62, 100
3, 45120, Note_on_c, 1, 62, 0
3, 45120, Note_on_c, 1, 57, 100
3, 45240, Note_on_c, 1, 57, 0
3, 45240, Note_on_c, 1, 54, 100
3, 45360, Note_on_c, 1, 54, 0
3, 45360, Note_on_c, 1, 52, 100
3, 45480, Note_on_c, 1, 52, 0
3, 45480, Note_on_c, 1, 54, 100
3, 45600, Note_on_c, 1, 54, 0
3, 45600, Note_on_c, 1, 50, 100
3, 46080, Note_on_c, 1, 50, 0
3, 46080, Note_on_c, 1, 66, 100
3, 46200, Note_on_c, 1, 66, 0
3, 46200, Note_on_c, 1, 69, 100
3, 46320, Note_on_c, 1, 69, 0
3, 46320, Note_on_c, 1, 67, 100
3, 46440, Note_on_c, 1, 67, 0
3, 46440, Note_on_c, 1, 69, 100
3, 46560, Note_on_c, 1, 69, 0
3, 46560, Note_on_c, 1, 74, 100
3, 46680, Note_on_c, 1, 74, 0
3, 46680, Note_on_c, 1, 78, 100
3, 46800, Note_on_c, 1, 78, 0
3, 46800, Note_on_c, 1, 76, 100
3, 46920, Note_on_c, 1, 76, 0
3, 46920, Note_on_c, 1, 78, 100
3, 47040, Note_on_c, 1, 78, 0
3, 47040, Note_on_c, 1, 81, 100
3, 47160, Note_on_c, 1, 81, 0
3, 47160, Note_on_c, 1, 78, 100
3, 47280, Note_on_c, 1, 78, 0
3, 47280, Note_on_c, 1, 72, 100
3, 47400, Note_on_c, 1, 72, 0
3, 47400, Note_on_c, 1, 69, 100
3, 47520, Note_on_c, 1, 69, 0
3, 47520, Note_on_c, 1, 71, 100
3, 47640, Note_on_c, 1, 71, 0
3, 47640, Note_on_c, 1, 74, 100
3, 47760, Note_on_c, 1, 74, 0
3, 47760, Note_on_c, 1, 72, 100
3, 47880, Note_on_c, 1, 72, 0
3, 47880, Note_on_c, 1, 74, 100
3, 48000, Note_on_c, 1, 74, 0
3, 48000, Note_on_c, 1, 79, 100
3, 48120, Note_on_c, 1, 79, 0
3, 48120, Note_on_c, 1, 83, 100
3, 48240, Note_on_c, 1, 83, 0
3, 48240, Note_on_c, 1, 81, 100
3, 48360, Note_on_c, 1, 81, 0
3, 48360, Note_on_c, 1, 83, 100
3, 48480, Note_on_c, 1, 83, 0
3, 48480, Note_on_c, 1, 86, 100
3, 48600, Note_on_c, 1, 86, 0
3, 48600, Note_on_c, 1, 83, 100
3, 48720, Note_on_c, 1, 83, 0
3, 48720, Note_on_c, 1, 77, 100
3, 48840, Note_on_c, 1, 77, 0
3, 48840, Note_on_c, 1, 74, 100
3, 48960, Note_on_c, 1, 74, 0
3, 48960, Note_on_c, 1, 76, 100
3, 49200, Note_on_c, 1, 76, 0
3, 49200, Note_on_c, 1, 71, 100
3, 49440, Note_on_c, 1, 71, 0
3, 49440, Note_on_c, 1, 72, 100
3, 49680, Note_on_c, 1, 72, 0
3, 49680, Note_on_c, 1, 63, 100
3, 49920, Note_on_c, 1, 63, 0
3, 49920, Note_on_c, 1, 64, 100
3, 50160, Note_on_c, 1, 64, 0
3, 50160, Note_on_c, 1, 55, 100
3, 50400, Note_on_c, 1, 55, 0
3, 50400, Note_on_c, 1, 54, 100
3, 50640, Note_on_c, 1, 54, 0
3, 50640, Note_on_c, 1, 76, 100
3, 50880, Note_on_c, 1, 76, 0
3, 50880, Note_on_c, 1, 75, 100
3, 51000, Note_on_c, 1, 75, 0
3, 51000, Note_on_c, 1, 78, 100
3, 51120, Note_on_c, 1, 78, 0
3, 51120, Note_on_c, 1, 76, 100
3, 51240, Note_on_c, 1, 76, 0
3, 51240, Note_on_c, 1, 78, 100
3, 51360, Note_on_c, 1, 78, 0
3, 51360, Note_on_c, 1, 81, 100
3, 51480, Note_on_c, 1, 81, 0
3, 51480, Note_on_c, 1, 78, 100
3, 51600, Note_on_c, 1, 78, 0
3, 51600, Note_on_c, 1, 75, 100
3, 51720, Note_on_c, 1, 75, 0
3, 51720, Note_on_c, 1, 78, 100
3, 51840, Note_on_c, 1, 78, 0
3, 51840, Note_on_c, 1, 71, 100
3, 51960, Note_on_c, 1, 71, 0
3, 52320, Note_on_c, 1, 73, 100
3, 52440, Note_on_c, 1, 73, 0
3, 52800, Note_on_c, 1, 75, 100
3, 52920, Note_on_c, 1, 75, 0
3, 53280, Note_on_c, 1, 76, 100
3, 53400, Note_on_c, 1, 76, 0
3, 53760, Note_on_c, 1, 75, 100
3, 53880, Note_on_c, 1, 75, 0
3, 54240, Note_on_c, 1, 76, 100
3, 54360, Note_on_c, 1, 76, 0
3, 54720, Note_on_c, 1, 73, 100
3, 54840, Note_on_c, 1, 73, 0
3, 55200, Note_on_c, 1, 71, 100
3, 55320, Note_on_c, 1, 71, 0
3, 55680, Note_on_c, 1, 69, 100
3, 55800, Note_on_c, 1, 69, 0
3, 57660, Note_on_c, 1, 67, 100
3, 57720, Note_on_c, 1, 67, 0
3, 57720, Note_on_c, 1, 69, 100
3, 57780, Note_on_c, 1, 69, 0
3, 57780, Note_on_c, 1, 67, 100
3, 57840, Note_on_c, 1, 67, 0
3, 57840, Note_on_c, 1, 69, 100
3, 57900, Note_on_c, 1, 69, 0
3, 57900, Note_on_c, 1, 67, 100
3, 57960, Note_on_c, 1, 67, 0
3, 57960, Note_on_c, 1, 69, 100
3, 58020, Note_on_c, 1, 69, 0
3, 58020, Note_on_c, 1, 67, 100
3, 58080, Note_on_c, 1, 67, 0
3, 58140, Note_on_c, 1, 67, 100
3, 58200, Note_on_c, 1, 67, 0
3, 58200, Note_on_c, 1, 69, 100
3, 58260, Note_on_c, 1, 69, 0
3, 58260, Note_on_c, 1, 67, 100
3, 58320, Note_on_c, 1, 67, 0
3, 58320, Note_on_c, 1, 69, 100
3, 58380, Note_on_c, 1, 69, 0
3, 58380, Note_on_c, 1, 67, 100
3, 58440, Note_on_c, 1, 67, 0
3, 58440, Note_on_c, 1, 69, 100
3, 58500, Note_on_c, 1, 69, 0
3, 58500, Note_on_c, 1, 67, 100
3, 58560, Note_on_c, 1, 67, 0
3, 58620, Note_on_c, 1, 67, 100
3, 58680, Note_on_c, 1, 67, 0
3, 58680, Note_on_c, 1, 69, 100
3, 58740, Note_on_c, 1, 69, 0
3, 58740, Note_on_c, 1, 67, 100
3, 58800, Note_on_c, 1, 67, 0
3, 58800, Note_on_c, 1, 69, 100
3, 58860, Note_on_c, 1, 69, 0
3, 58860, Note_on_c, 1, 67, 100
3, 58920, Note_on_c, 1, 67, 0
3, 58920, Note_on_c, 1, 69, 100
3, 58980, Note_on_c, 1, 69, 0
3, 58980, Note_on_c, 1, 67, 100
3, 59040, Note_on_c, 1, 67, 0
3, 59100, Note_on_c, 1, 67, 100
3, 59160, Note_on_c, 1, 67, 0
3, 59160, Note_on_c, 1, 69, 100
3, 59220, Note_on_c, 1, 69, 0
3, 59220, Note_on_c, 1, 67, 100
3, 59280, Note_on_c, 1, 67, 0
3, 59280, Note_on_c, 1, 69, 100
3, 59340, Note_on_c, 1, 69, 0
3, 59340, Note_on_c, 1, 67, 100
3, 59400, Note_on_c, 1, 67, 0
3, 59400, Note_on_c, 1, 69, 100
3, 59460, Note_on_c, 1, 69, 0
3, 59460, Note_on_c, 1, 67, 100
3, 59520, Note_on_c, 1, 67, 0
3, 59580, Note_on_c, 1, 67, 100
3, 59640, Note_on_c, 1, 67, 0
3, 59640, Note_on_c, 1, 69, 100
3, 59700, Note_on_c, 1, 69, 0
3, 59700, Note_on_c, 1, 67, 100
3, 59760, Note_on_c, 1, 67, 0
3, 59760, Note_on_c, 1, 69, 100
3, 59820, Note_on_c, 1, 69, 0
3, 59820, Note_on_c, 1, 67, 100
3, 59880, Note_on_c, 1, 67, 0
3, 59880, Note_on_c, 1, 69, 100
3, 59940, Note_on_c, 1, 69, 0
3, 59940, Note_on_c, 1, 67, 100
3, 60000, Note_on_c, 1, 67, 0
3, 60060, Note_on_c, 1, 67, 100
3, 60120, Note_on_c, 1, 67, 0
3, 60120, Note_on_c, 1, 69, 100
3, 60180, Note_on_c, 1, 69, 0
3, 60180, Note_on_c, 1, 67, 100
3, 60240, Note_on_c, 1, 67, 0
3, 60240, Note_on_c, 1, 69, 100
3, 60300, Note_on_c, 1, 69, 0
3, 60300, Note_on_c, 1, 67, 100
3, 60360, Note_on_c, 1, 67, 0
3, 60360, Note_on_c, 1, 69, 100
3, 60420, Note_on_c, 1, 69, 0
3, 60420, Note_on_c, 1, 67, 100
3, 60480, Note_on_c, 1, 67, 0
3, 60480, Note_on_c, 1, 64, 100
3, 60600, Note_on_c, 1, 64, 0
3, 60960, Note_on_c, 1, 62, 100
3, 61080, Note_on_c, 1, 62, 0
3, 61440, Note_on_c, 1, 64, 100
3, 61560, Note_on_c, 1, 64, 0
3, 61920, Note_on_c, 1, 66, 100
3, 62040, Note_on_c, 1, 66, 0
3, 62400, Note_on_c, 1, 64, 100
3, 62520, Note_on_c, 1, 64, 0
3, 62880, Note_on_c, 1, 66, 100
3, 63000, Note_on_c, 1, 66, 0
3, 63420, Note_on_c, 1, 67, 100
3, 63480, Note_on_c, 1, 67, 0
3, 63480, Note_on_c, 1, 69, 100
3, 63540, Note_on_c, 1, 69, 0
3, 63540, Note_on_c, 1, 67, 100
3, 63600, Note_on_c, 1, 67, 0
3, 63600, Note_on_c, 1, 69, 100
3, 63660, Note_on_c, 1, 69, 0
3, 63660, Note_on_c, 1, 67, 100
3, 63720, Note_on_c, 1, 67, 0
3, 63720, Note_on_c, 1, 69, 100
3, 63780, Note_on_c, 1, 69, 0
3, 63780, Note_on_c, 1, 67, 100
3, 63840, Note_on_c, 1, 67, 0
3, 63900, Note_on_c, 1, 66, 100
3, 63960, Note_on_c, 1, 66, 0
3, 63960, Note_on_c, 1, 67, 100
3, 64020, Note_on_c, 1, 67, 0
3, 64020, Note_on_c, 1, 66, 100
3, 64080, Note_on_c, 1, 66, 0
3, 64080, Note_on_c, 1, 67, 100
3, 64140, Note_on_c, 1, 67, 0
3, 64140, Note_on_c, 1, 66, 100
3, 64200, Note_on_c, 1, 66, 0
3, 64200, Note_on_c, 1, 67, 100
3, 64260, Note_on_c, 1, 67, 0
3, 64260, Note_on_c, 1, 66, 100
3, 64320, Note_on_c, 1, 66, 0
3, 64380, Note_on_c, 1, 65, 100
3, 64440, Note_on_c, 1, 65, 0
3, 64440, Note_on_c, 1, 67, 100
3, 64500, Note_on_c, 1, 67, 0
3, 64500, Note_on_c, 1, 65, 100
3, 64560, Note_on_c, 1, 65, 0
3, 64560, Note_on_c, 1, 67, 100
3, 64620, Note_on_c, 1, 67, 0
3, 64620, Note_on_c, 1, 65, 100
3, 64680, Note_on_c, 1, 65, 0
3, 64680, Note_on_c, 1, 67, 100
3, 64740, Note_on_c, 1, 67, 0
3, 64740, Note_on_c, 1, 65, 100
3, 64800, Note_on_c, 1, 65, 0
3, 64860, Note_on_c, 1, 60, 100
3, 64920, Note_on_c, 1, 60, 0
3, 64920, Note_on_c, 1, 62, 100
3, 64980, Note_on_c, 1, 62, 0
3, 64980, Note_on_c, 1, 60, 100
3, 65040, Note_on_c, 1, 60, 0
3, 65040, Note_on_c, 1, 62, 100
3, 65100, Note_on_c, 1, 62, 0
3, 65100, Note_on_c, 1, 60, 100
3, 65160, Note_on_c, 1, 60, 0
3, 65160, Note_on_c, 1, 62, 100
3, 65220, Note_on_c, 1, 62, 0
3, 65220, Note_on_c, 1, 60, 100
3, 65280, Note_on_c, 1, 60, 0
3, 65340, Note_on_c, 1, 59, 100
3, 65400, Note_on_c, 1, 59, 0
3, 65400, Note_on_c, 1, 60, 100
3, 65460, Note_on_c, 1, 60, 0
3, 65460, Note_on_c, 1, 59, 100
3, 65520, Note_on_c, 1, 59, 0
3, 65520, Note_on_c, 1, 60, 100
3, 65580, Note_on_c, 1, 60, 0
3, 65580, Note_on_c, 1, 59, 100
3, 65640, Note_on_c, 1, 59, 0
3, 65640, Note_on_c, 1, 60, 100
3, 65700, Note_on_c, 1, 60, 0
3, 65700, Note_on_c, 1, 59, 100
3, 65760, Note_on_c, 1, 59, 0
3, 65820, Note_on_c, 1, 58, 100
3, 65880, Note_on_c, 1, 58, 0
3, 65880, Note_on_c, 1, 60, 100
3, 65940, Note_on_c, 1, 60, 0
3, 65940, Note_on_c, 1, 58, 100
3, 66000, Note_on_c, 1, 58, 0
3, 66000, Note_on_c, 1, 60, 100
3, 66060, Note_on_c, 1, 60, 0
3, 66060, Note_on_c, 1, 58, 100
3, 66120, Note_on_c, 1, 58, 0
3, 66120, Note_on_c, 1, 60, 100
3, 66180, Note_on_c, 1, 60, 0
3, 66180, Note_on_c, 1, 58, 100
3, 66240, Note_on_c, 1, 58, 0
3, 69120, Note_on_c, 1, 66, 100
3, 69240, Note_on_c, 1, 66, 0
3, 69240, Note_on_c, 1, 69, 100
3, 69360, Note_on_c, 1, 69, 0
3, 69360, Note_on_c, 1, 67, 100
3, 69480, Note_on_c, 1, 67, 0
3, 69480, Note_on_c, 1, 69, 100
3, 69600, Note_on_c, 1, 69, 0
3, 69600, Note_on_c, 1, 74, 100
3, 69720, Note_on_c, 1, 74, 0
3, 69720, Note_on_c, 1, 78, 100
3, 69840, Note_on_c, 1, 78, 0
3, 69840, Note_on_c, 1, 76, 100
3, 69960, Note_on_c, 1, 76, 0
3, 69960, Note_on_c, 1, 78, 100
3, 70080, Note_on_c, 1, 78, 0
3, 70080, Note_on_c, 1, 81, 100
3, 70200, Note_on_c, 1, 81, 0
3, 70200, Note_on_c, 1, 78, 100
3, 70320, Note_on_c, 1, 78, 0
3, 70320, Note_on_c, 1, 72, 100
3, 70440, Note_on_c, 1, 72, 0
3, 70440, Note_on_c, 1, 69, 100
3, 70560, Note_on_c, 1, 69, 0
3, 70560, Note_on_c, 1, 71, 100
3, 70680, Note_on_c, 1, 71, 0
3, 70680, Note_on_c, 1, 74, 100
3, 70800, Note_on_c, 1, 74, 0
3, 70800, Note_on_c, 1, 72, 100
3, 70920, Note_on_c, 1, 72, 0
3, 70920, Note_on_c, 1, 74, 100
3, 71040, Note_on_c, 1, 74, 0
3, 71040, Note_on_c, 1, 79, 100
3, 71160, Note_on_c, 1, 79, 0
3, 71160, Note_on_c, 1, 83, 100
3, 71280, Note_on_c, 1, 83, 0
3, 71280, Note_on_c, 1, 81, 100
3, 71400, Note_on_c, 1, 81, 0
3, 71400, Note_on_c, 1, 83, 100
3, 71520, Note_on_c, 1, 83, 0
3, 71520, Note_on_c, 1, 86, 100
3, 71640, Note_on_c, 1, 86, 0
3, 71640, Note_on_c, 1, 83, 100
3, 71760, Note_on_c, 1, 83, 0
3, 71760, Note_on_c, 1, 77, 100
3, 71880, Note_on_c, 1, 77, 0
3, 71880, Note_on_c, 1, 74, 100
3, 72000, Note_on_c, 1, 74, 0
3, 72000, Note_on_c, 1, 76, 100
3, 72240, Note_on_c, 1, 76, 0
3, 72240, Note_on_c, 1, 71, 100
3, 72480, Note_on_c, 1, 71, 0
3, 72480, Note_on_c, 1, 72, 100
3, 72720, Note_on_c, 1, 72, 0
3, 72720, Note_on_c, 1, 63, 100
3, 72960, Note_on_c, 1, 63, 0
3, 72960, Note_on_c, 1, 64, 100
3, 73200, Note_on_c, 1, 64, 0
3, 73200, Note_on_c, 1, 55, 100
3, 73440, Note_on_c, 1, 55, 0
3, 73440, Note_on_c, 1, 54, 100
3, 73680, Note_on_c, 1, 54, 0
3, 73680, Note_on_c, 1, 76, 100
3, 73920, Note_on_c, 1, 76, 0
3, 73920, Note_on_c, 1, 75, 100
3, 74040, Note_on_c, 1, 75, 0
3, 74040, Note_on_c, 1, 78, 100
3, 74160, Note_on_c, 1, 78, 0
3, 74160, Note_on_c, 1, 76, 100
3, 74280, Note_on_c, 1, 76, 0
3, 74280, Note_on_c, 1, 78, 100
3, 74400, Note_on_c, 1, 78, 0
3, 74400, Note_on_c, 1, 81, 100
3, 74520, Note_on_c, 1, 81, 0
3, 74520, Note_on_c, 1, 78, 100
3, 74640, Note_on_c, 1, 78, 0
3, 74640, Note_on_c, 1, 75, 100
3, 74760, Note_on_c, 1, 75, 0
3, 74760, Note_on_c, 1, 78, 100
3, 74880, Note_on_c, 1, 78, 0
3, 74880, Note_on_c, 1, 71, 100
3, 75000, Note_on_c, 1, 71, 0
3, 75360, Note_on_c, 1, 73, 100
3, 75480, Note_on_c, 1, 73, 0
3, 75840, Note_on_c, 1, 75, 100
3, 75960, Note_on_c, 1, 75, 0
3, 76320, Note_on_c, 1, 76, 100
3, 76440, Note_on_c, 1, 76, 0
3, 76800, Note_on_c, 1, 75, 100
3, 76920, Note_on_c, 1, 75, 0
3, 77280, Note_on_c, 1, 76, 100
3, 77400, Note_on_c, 1, 76, 0
3, 77760, Note_on_c, 1, 73, 100
3, 77880, Note_on_c, 1, 73, 0
3, 78240, Note_on_c, 1, 71, 100
3, 78360, Note_on_c, 1, 71, 0
3, 78720, Note_on_c, 1, 69, 100
3, 78840, Note_on_c, 1, 69, 0
3, 80700, Note_on_c, 1, 67, 100
3, 80760, Note_on_c, 1, 67, 0
3, 80760, Note_on_c, 1, 69, 100
3, 80820, Note_on_c, 1, 69, 0
3, 80820, Note_on_c, 1, 67, 100
3, 80880, Note_on_c, 1, 67, 0
3, 80880, Note_on_c, 1, 69, 100
3, 80940, Note_on_c, 1, 69, 0
3, 80940, Note_on_c, 1, 67, 100
3, 81000, Note_on_c, 1, 67, 0
3, 81000, Note_on_c, 1, 69, 100
3, 81060, Note_on_c, 1, 69, 0
3, 81060, Note_on_c, 1, 67, 100
3, 81120, Note_on_c, 1, 67, 0
3, 81180, Note_on_c, 1, 67, 100
3, 81240, Note_on_c, 1, 67, 0
3, 81240, Note_on_c, 1, 69, 100
3, 81300, Note_on_c, 1, 69, 0
3, 81300, Note_on_c, 1, 67, 100
3, 81360, Note_on_c, 1, 67, 0
3, 81360, Note_on_c, 1, 69, 100
3, 81420, Note_on_c, 1, 69, 0
3, 81420, Note_on_c, 1, 67, 100
3, 81480, Note_on_c, 1, 67, 0
3, 81480, Note_on_c, 1, 69, 100
3, 81540, Note_on_c, 1, 69, 0
3, 81540, Note_on_c, 1, 67, 100
3, 81600, Note_on_c, 1, 67, 0
3, 81660, Note_on_c, 1, 67, 100
3, 81720, Note_on_c, 1, 67, 0
3, 81720, Note_on_c, 1, 69, 100
3, 81780, Note_on_c, 1, 69, 0
3, 81780, Note_on_c, 1, 67, 100
3, 81840, Note_on_c, 1, 67, 0
3, 81840, Note_on_c, 1, 69, 100
3, 81900, Note_on_c, 1, 69, 0
3, 81900, Note_on_c, 1, 67, 100
3, 81960, Note_on_c, 1, 67, 0
3, 81960, Note_on_c, 1, 69, 100
3, 82020, Note_on_c, 1, 69, 0
3, 82020, Note_on_c, 1, 67, 100
3, 82080, Note_on_c, 1, 67, 0
3, 82140, Note_on_c, 1, 67, 100
3, 82200, Note_on_c, 1, 67, 0
3, 82200, Note_on_c, 1, 69, 100
3, 82260, Note_on_c, 1, 69, 0
3, 82260, Note_on_c, 1, 67, 100
3, 82320, Note_on_c, 1, 67, 0
3, 82320, Note_on_c, 1, 69, 100
3, 82380, Note_on_c, 1, 69, 0
3, 82380, Note_on_c, 1, 67, 100
3, 82440, Note_on_c, 1, 67, 0
3, 82440, Note_on_c, 1, 69, 100
3, 82500, Note_on_c, 1, 69, 0
3, 82500, Note_on_c, 1, 67, 100
3, 82560, Note_on_c, 1, 67, 0
3, 82620, Note_on_c, 1, 67, 100
3, 82680, Note_on_c, 1, 67, 0
3, 82680, Note_on_c, 1, 69, 100
3, 82740, Note_on_c, 1, 69, 0
3, 82740, Note_on_c, 1, 67, 100
3, 82800, Note_on_c, 1, 67, 0
3, 82800, Note_on_c, 1, 69, 100
3, 82860, Note_on_c, 1, 69, 0
3, 82860, Note_on_c, 1, 67, 100
3, 82920, Note_on_c, 1, 67, 0
3, 82920, Note_on_c, 1, 69, 100
3, 82980, Note_on_c, 1, 69, 0
3, 82980, Note_on_c, 1, 67, 100
3, 83040, Note_on_c, 1, 67, 0
3, 83100, Note_on_c, 1, 67, 100
3, 83160, Note_on_c, 1, 67, 0
3, 83160, Note_on_c, 1, 69, 100
3, 83220, Note_on_c, 1, 69, 0
3, 83220, Note_on_c, 1, 67, 100
3, 83280, Note_on_c, 1, 67, 0
3, 83280, Note_on_c, 1, 69, 100
3, 83340, Note_on_c, 1, 69, 0
3, 83340, Note_on_c, 1, 67, 100
3, 83400, Note_on_c, 1, 67, 0
3, 83400, Note_on_c, 1, 69, 100
3, 83460, Note_on_c, 1, 69, 0
3, 83460, Note_on_c, 1, 67, 100
3, 83520, Note_on_c, 1, 67, 0
3, 83520, Note_on_c, 1, 64, 100
3, 83640, Note_on_c, 1, 64, 0
3, 84000, Note_on_c, 1, 62, 100
3, 84120, Note_on_c, 1, 62, 0
3, 84480, Note_on_c, 1, 64, 100
3, 84600, Note_on_c, 1, 64, 0
3, 84960, Note_on_c, 1, 66, 100
3, 85080, Note_on_c, 1, 66, 0
3, 85440, Note_on_c, 1, 64, 100
3, 85560, Note_on_c, 1, 64, 0
3, 85920, Note_on_c, 1, 66, 100
3, 86040, Note_on_c, 1, 66, 0
3, 86460, Note_on_c, 1, 67, 100
3, 86520, Note_on_c, 1, 67, 0
3, 86520, Note_on_c, 1, 69, 100
3, 86580, Note_on_c, 1, 69, 0
3, 86580, Note_on_c, 1, 67, 100
3, 86640, Note_on_c, 1, 67, 0
3, 86640, Note_on_c, 1, 69, 100
3, 86700, Note_on_c, 1, 69, 0
3, 86700, Note_on_c, 1, 67, 100
3, 86760, Note_on_c, 1, 67, 0
3, 86760, Note_on_c, 1, 69, 100
3, 86820, Note_on_c, 1, 69, 0
3, 86820, Note_on_c, 1, 67, 100
3, 86880, Note_on_c, 1, 67, 0
3, 86940, Note_on_c, 1, 66, 100
3, 87000, Note_on_c, 1, 66, 0
3, 87000, Note_on_c, 1, 67, 100
3, 87060, Note_on_c, 1, 67, 0
3, 87060, Note_on_c, 1, 66, 100
3, 87120, Note_on_c, 1, 66, 0
3, 87120, Note_on_c, 1, 67, 100
3, 87180, Note_on_c, 1, 67, 0
3, 87180, Note_on_c, 1, 66, 100
3, 87240, Note_on_c, 1, 66, 0
3, 87240, Note_on_c, 1, 67, 100
3, 87300, Note_on_c, 1, 67, 0
3, 87300, Note_on_c, 1, 66, 100
3, 87360, Note_on_c, 1, 66, 0
3, 87420, Note_on_c, 1, 65, 100
3, 87480, Note_on_c, 1, 65, 0
3, 87480, Note_on_c, 1, 67, 100
3, 87540, Note_on_c, 1, 67, 0
3, 87540, Note_on_c, 1, 65, 100
3, 87600, Note_on_c, 1, 65, 0
3, 87600, Note_on_c, 1, 67, 100
3, 87660, Note_on_c, 1, 67, 0
3, 87660, Note_on_c, 1, 65, 100
3, 87720, Note_on_c, 1, 65, 0
3, 87720, Note_on_c, 1, 67, 100
3, 87780, Note_on_c, 1, 67, 0
3, 87780, Note_on_c, 1, 65, 100
3, 87840, Note_on_c, 1, 65, 0
3, 87900, Note_on_c, 1, 60, 100
3, 87960, Note_on_c, 1, 60, 0
3, 87960, Note_on_c, 1, 62, 100
3, 88020, Note_on_c, 1, 62, 0
3, 88020, Note_on_c, 1, 60, 100
3, 88080, Note_on_c, 1, 60, 0
3, 88080, Note_on_c, 1, 62, 100
3, 88140, Note_on_c, 1, 62, 0
3, 88140, Note_on_c, 1, 60, 100
3, 88200, Note_on_c, 1, 60, 0
3, 88200, Note_on_c, 1, 62, 100
3, 88260, Note_on_c, 1, 62, 0
3, 88260, Note_on_c, 1, 60, 100
3, 88320, Note_on_c, 1, 60, 0
3, 88380, Note_on_c, 1, 59, 100
3, 88440, Note_on_c, 1, 59, 0
3, 88440, Note_on_c, 1, 60, 100
3, 88500, Note_on_c, 1, 60, 0
3, 88500, Note_on_c, 1, 59, 100
3, 88560, Note_on_c, 1, 59, 0
3, 88560, Note_on_c, 1, 60, 100
3, 88620, Note_on_c, 1, 60, 0
3, 88620, Note_on_c, 1, 59, 100
3, 88680, Note_on_c, 1, 59, 0
3, 88680, Note_on_c, 1, 60, 100
3, 88740, Note_on_c, 1, 60, 0
3, 88740, Note_on_c, 1, 59, 100
3, 88800, Note_on_c, 1, 59, 0
3, 88860, Note_on_c, 1, 58, 100
3, 88920, Note_on_c, 1, 58, 0
3, 88920, Note_on_c, 1, 60, 100
3, 88980, Note_on_c, 1, 60, 0
3, 88980, Note_on_c, 1, 58, 100
3, 89040, Note_on_c, 1, 58, 0
3, 89040, Note_on_c, 1, 60, 100
3, 89100, Note_on_c, 1, 60, 0
3, 89100, Note_on_c, 1, 58, 100
3, 89160, Note_on_c, 1, 58, 0
3, 89160, Note_on_c, 1, 60, 100
3, 89220, Note_on_c, 1, 60, 0
3, 89220, Note_on_c, 1, 58, 100
3, 89280, Note_on_c, 1, 58, 0
3, 89280, End_track
4, 0, Start_track
4, 0, MIDI_port, 0
4, 0, Title_t, "Johann Sebastian Bach  (1685-1750)"
4, 0, Program_c, 2, 6
4, 0, Control_c, 2, 7, 100
4, 0, Control_c, 2, 10, 59
4, 5820, Note_on_c, 2, 67, 100
4, 5880, Note_on_c, 2, 67, 0
4, 5880, Note_on_c, 2, 69, 100
4, 5940, Note_on_c, 2, 69, 0
4, 5940, Note_on_c, 2, 67, 100
4, 6000, Note_on_c, 2, 67, 0
4, 6000, Note_on_c, 2, 69, 100
4, 6060, Note_on_c, 2, 69, 0
4, 6060, Note_on_c, 2, 67, 100
4, 6120, Note_on_c, 2, 67, 0
4, 6120, Note_on_c, 2, 69, 100
4, 6180, Note_on_c, 2, 69, 0
4, 6180, Note_on_c, 2, 67, 100
4, 6240, Note_on_c, 2, 67, 0
4, 6300, Note_on_c, 2, 67, 100
4, 6360, Note_on_c, 2, 67, 0
4, 6360, Note_on_c, 2, 69, 100
4, 6420, Note_on_c, 2, 69, 0
4, 6420, Note_on_c, 2, 67, 100
4, 6480, Note_on_c, 2, 67, 0
4, 6480, Note_on_c, 2, 69, 100
4, 6540, Note_on_c, 2, 69, 0
4, 6540, Note_on_c, 2, 67, 100
4, 6600, Note_on_c, 2, 67, 0
4, 6600, Note_on_c, 2, 69, 100
4, 6660, Note_on_c, 2, 69, 0
4, 6660, Note_on_c, 2, 67, 100
4, 6720, Note_on_c, 2, 67, 0
4, 6780, Note_on_c, 2, 67, 100
4, 6840, Note_on_c, 2, 67, 0
4, 6840, Note_on_c, 2, 69, 100
4, 6900, Note_on_c, 2, 69, 0
4, 6900, Note_on_c, 2, 67, 100
4, 6960, Note_on_c, 2, 67, 0
4, 6960, Note_on_c, 2, 69, 100
4, 7020, Note_on_c, 2, 69, 0
4, 7020, Note_on_c, 2, 67, 100
4, 7080, Note_on_c, 2, 67, 0
4, 7080, Note_on_c, 2, 69, 100
4, 7140, Note_on_c, 2, 69, 0
4, 7140, Note_on_c, 2, 67, 100
4, 7200, Note_on_c, 2, 67, 0
4, 7260, Note_on_c, 2, 67, 100
4, 7320, Note_on_c, 2, 67, 0
4, 7320, Note_on_c, 2, 69, 100
4, 7380, Note_on_c, 2, 69, 0
4, 7380, Note_on_c, 2, 67, 100
4, 7440, Note_on_c, 2, 67, 0
4, 7440, Note_on_c, 2, 69, 100
4, 7500, Note_on_c, 2, 69, 0
4, 7500, Note_on_c, 2, 67, 100
4, 7560, Note_on_c, 2, 67, 0
4, 7560, Note_on_c, 2, 69, 100
4, 7620, Note_on_c, 2, 69, 0
4, 7620, Note_on_c, 2, 67, 100
4, 7680, Note_on_c, 2, 67, 0
4, 7740, Note_on_c, 2, 67, 100
4, 7800, Note_on_c, 2, 67, 0
4, 7800, Note_on_c, 2, 69, 100
4, 7860, Note_on_c, 2, 69, 0
4, 7860, Note_on_c, 2, 67, 100
4, 7920, Note_on_c, 2, 67, 0
4, 7920, Note_on_c, 2, 69, 100
4, 7980, Note_on_c, 2, 69, 0
4, 7980, Note_on_c, 2, 67, 100
4, 8040, Note_on_c, 2, 67, 0
4, 8040, Note_on_c, 2, 69, 100
4, 8100, Note_on_c, 2, 69, 0
4, 8100, Note_on_c, 2, 67, 100
4, 8160, Note_on_c, 2, 67, 0
4, 8220, Note_on_c, 2, 67, 100
4, 8280, Note_on_c, 2, 67, 0
4, 8280, Note_on_c, 2, 69, 100
4, 8340, Note_on_c, 2, 69, 0
4, 8340, Note_on_c, 2, 67, 100
4, 8400, Note_on_c, 2, 67, 0
4, 8400, Note_on_c, 2, 69, 100
4, 8460, Note_on_c, 2, 69, 0
4, 8460, Note_on_c, 2, 67, 100
4, 8520, Note_on_c, 2, 67, 0
4, 8520, Note_on_c, 2, 69, 100
4, 8580, Note_on_c, 2, 69, 0
4, 8580, Note_on_c, 2, 67, 100
4, 8640, Note_on_c, 2, 67, 0
4, 8700, Note_on_c, 2, 67, 100
4, 8760, Note_on_c, 2, 67, 0
4, 8760, Note_on_c, 2, 69, 100
4, 8820, Note_on_c, 2, 69, 0
4, 8820, Note_on_c, 2, 67, 100
4, 8880, Note_on_c, 2, 67, 0
4, 8880, Note_on_c, 2, 69, 100
4, 8940, Note_on_c, 2, 69, 0
4, 8940, Note_on_c, 2, 67, 100
4, 9000, Note_on_c, 2, 67, 0
4, 9000, Note_on_c, 2, 69, 100
4, 9060, Note_on_c, 2, 69, 0
4, 9060, Note_on_c, 2, 67, 100
4, 9120, Note_on_c, 2, 67, 0
4, 9180, Note_on_c, 2, 67, 100
4, 9240, Note_on_c, 2, 67, 0
4, 9240, Note_on_c, 2, 69, 100
4, 9300, Note_on_c, 2, 69, 0
4, 9300, Note_on_c, 2, 67, 100
4, 9360, Note_on_c, 2, 67, 0
4, 9360, Note_on_c, 2, 69, 100
4, 9420, Note_on_c, 2, 69, 0
4, 9420, Note_on_c, 2, 67, 100
4, 9480, Note_on_c, 2, 67, 0
4, 9480, Note_on_c, 2, 69, 100
4, 9540, Note_on_c, 2, 69, 0
4, 9540, Note_on_c, 2, 67, 100
4, 9600, Note_on_c, 2, 67, 0
4, 9660, Note_on_c, 2, 67, 100
4, 9720, Note_on_c, 2, 67, 0
4, 9720, Note_on_c, 2, 69, 100
4, 9780, Note_on_c, 2, 69, 0
4, 9780, Note_on_c, 2, 67, 100
4, 9840, Note_on_c, 2, 67, 0
4, 9840, Note_on_c, 2, 69, 100
4, 9900, Note_on_c, 2, 69, 0
4, 9900, Note_on_c, 2, 67, 100
4, 9960, Note_on_c, 2, 67, 0
4, 9960, Note_on_c, 2, 69, 100
4, 10020, Note_on_c, 2, 69, 0
4, 10020, Note_on_c, 2, 67, 100
4, 10080, Note_on_c, 2, 67, 0
4, 10140, Note_on_c, 2, 67, 100
4, 10200, Note_on_c, 2, 67, 0
4, 10200, Note_on_c, 2, 69, 100
4, 10260, Note_on_c, 2, 69, 0
4, 10260, Note_on_c, 2, 67, 100
4, 10320, Note_on_c, 2, 67, 0
4, 10320, Note_on_c, 2, 69, 100
4, 10380, Note_on_c, 2, 69, 0
4, 10380, Note_on_c, 2, 67, 100
4, 10440, Note_on_c, 2, 67, 0
4, 10440, Note_on_c, 2, 69, 100
4, 10500, Note_on_c, 2, 69, 0
4, 10500, Note_on_c, 2, 67, 100
4, 10560, Note_on_c, 2, 67, 0
4, 10620, Note_on_c, 2, 67, 100
4, 10680, Note_on_c, 2, 67, 0
4, 10680, Note_on_c, 2, 69, 100
4, 10740, Note_on_c, 2, 69, 0
4, 10740, Note_on_c, 2, 67, 100
4, 10800, Note_on_c, 2, 67, 0
4, 10800, Note_on_c, 2, 69, 100
4, 10860, Note_on_c, 2, 69, 0
4, 10860, Note_on_c, 2, 67, 100
4, 10920, Note_on_c, 2, 67, 0
4, 10920, Note_on_c, 2, 69, 100
4, 10980, Note_on_c, 2, 69, 0
4, 10980, Note_on_c, 2, 67, 100
4, 11040, Note_on_c, 2, 67, 0
4, 11100, Note_on_c, 2, 67, 100
4, 11160, Note_on_c, 2, 67, 0
4, 11160, Note_on_c, 2, 69, 100
4, 11220, Note_on_c, 2, 69, 0
4, 11220, Note_on_c, 2, 67, 100
4, 11280, Note_on_c, 2, 67, 0
4, 11280, Note_on_c, 2, 69, 100
4, 11340, Note_on_c, 2, 69, 0
4, 11340, Note_on_c, 2, 67, 100
4, 11400, Note_on_c, 2, 67, 0
4, 11400, Note_on_c, 2, 69, 100
4, 11460, Note_on_c, 2, 69, 0
4, 11460, Note_on_c, 2, 67, 100
4, 11520, Note_on_c, 2, 67, 0
4, 11520, Note_on_c, 2, 55, 100
4, 11640, Note_on_c, 2, 55, 0
4, 11640, Note_on_c, 2, 59, 100
4, 11760, Note_on_c, 2, 59, 0
4, 11760, Note_on_c, 2, 57, 100
4, 11880, Note_on_c, 2, 57, 0
4, 11880, Note_on_c, 2, 59, 100
4, 12000, Note_on_c, 2, 59, 0
4, 12000, Note_on_c, 2, 64, 100
4, 12120, Note_on_c, 2, 64, 0
4, 12120, Note_on_c, 2, 67, 100
4, 12240, Note_on_c, 2, 67, 0
4, 12240, Note_on_c, 2, 66, 100
4, 12360, Note_on_c, 2, 66, 0
4, 12360, Note_on_c, 2, 67, 100
4, 12480, Note_on_c, 2, 67, 0
4, 12480, Note_on_c, 2, 71, 100
4, 12600, Note_on_c, 2, 71, 0
4, 12600, Note_on_c, 2, 67, 100
4, 12720, Note_on_c, 2, 67, 0
4, 12720, Note_on_c, 2, 64, 100
4, 12840, Note_on_c, 2, 64, 0
4, 12840, Note_on_c, 2, 61, 100
4, 12960, Note_on_c, 2, 61, 0
4, 12960, Note_on_c, 2, 54, 100
4, 13080, Note_on_c, 2, 54, 0
4, 13080, Note_on_c, 2, 57, 100
4, 13200, Note_on_c, 2, 57, 0
4, 13200, Note_on_c, 2, 55, 100
4, 13320, Note_on_c, 2, 55, 0
4, 13320, Note_on_c, 2, 57, 100
4, 13440, Note_on_c, 2, 57, 0
4, 13440, Note_on_c, 2, 62, 100
4, 13560, Note_on_c, 2, 62, 0
4, 13560, Note_on_c, 2, 66, 100
4, 13680, Note_on_c, 2, 66, 0
4, 13680, Note_on_c, 2, 64, 100
4, 13800, Note_on_c, 2, 64, 0
4, 13800, Note_on_c, 2, 66, 100
4, 13920, Note_on_c, 2, 66, 0
4, 13920, Note_on_c, 2, 69, 100
4, 14040, Note_on_c, 2, 69, 0
4, 14040, Note_on_c, 2, 66, 100
4, 14160, Note_on_c, 2, 66, 0
4, 14160, Note_on_c, 2, 62, 100
4, 14280, Note_on_c, 2, 62, 0
4, 14280, Note_on_c, 2, 59, 100
4, 14400, Note_on_c, 2, 59, 0
4, 14400, Note_on_c, 2, 52, 100
4, 14520, Note_on_c, 2, 52, 0
4, 14520, Note_on_c, 2, 55, 100
4, 14640, Note_on_c, 2, 55, 0
4, 14640, Note_on_c, 2, 54, 100
4, 14760, Note_on_c, 2, 54, 0
4, 14760, Note_on_c, 2, 55, 100
4, 14880, Note_on_c, 2, 55, 0
4, 14880, Note_on_c, 2, 59, 100
4, 15000, Note_on_c, 2, 59, 0
4, 15000, Note_on_c, 2, 64, 100
4, 15120, Note_on_c, 2, 64, 0
4, 15120, Note_on_c, 2, 63, 100
4, 15240, Note_on_c, 2, 63, 0
4, 15240, Note_on_c, 2, 64, 100
4, 15360, Note_on_c, 2, 64, 0
4, 15360, Note_on_c, 2, 67, 100
4, 15480, Note_on_c, 2, 67, 0
4, 15480, Note_on_c, 2, 64, 100
4, 15600, Note_on_c, 2, 64, 0
4, 15600, Note_on_c, 2, 59, 100
4, 15720, Note_on_c, 2, 59, 0
4, 15720, Note_on_c, 2, 55, 100
4, 15840, Note_on_c, 2, 55, 0
4, 15840, Note_on_c, 2, 57, 100
4, 15960, Note_on_c, 2, 57, 0
4, 15960, Note_on_c, 2, 64, 100
4, 16080, Note_on_c, 2, 64, 0
4, 16080, Note_on_c, 2, 62, 100
4, 16200, Note_on_c, 2, 62, 0
4, 16200, Note_on_c, 2, 64, 100
4, 16320, Note_on_c, 2, 64, 0
4, 16320, Note_on_c, 2, 67, 100
4, 16440, Note_on_c, 2, 67, 0
4, 16440, Note_on_c, 2, 69, 100
4, 16560, Note_on_c, 2, 69, 0
4, 16560, Note_on_c, 2, 67, 100
4, 16680, Note_on_c, 2, 67, 0
4, 16680, Note_on_c, 2, 69, 100
4, 16800, Note_on_c, 2, 69, 0
4, 16800, Note_on_c, 2, 67, 100
4, 16920, Note_on_c, 2, 67, 0
4, 16920, Note_on_c, 2, 64, 100
4, 17040, Note_on_c, 2, 64, 0
4, 17040, Note_on_c, 2, 61, 100
4, 17160, Note_on_c, 2, 61, 0
4, 17160, Note_on_c, 2, 57, 100
4, 17280, Note_on_c, 2, 57, 0
4, 17340, Note_on_c, 2, 54, 100
4, 17400, Note_on_c, 2, 54, 0
4, 17400, Note_on_c, 2, 55, 100
4, 17460, Note_on_c, 2, 55, 0
4, 17460, Note_on_c, 2, 54, 100
4, 17520, Note_on_c, 2, 54, 0
4, 17520, Note_on_c, 2, 55, 100
4, 17580, Note_on_c, 2, 55, 0
4, 17580, Note_on_c, 2, 54, 100
4, 17640, Note_on_c, 2, 54, 0
4, 17640, Note_on_c, 2, 55, 100
4, 17700, Note_on_c, 2, 55, 0
4, 17700, Note_on_c, 2, 54, 100
4, 17760, Note_on_c, 2, 54, 0
4, 17820, Note_on_c, 2, 54, 100
4, 17880, Note_on_c, 2, 54, 0
4, 17880, Note_on_c, 2, 55, 100
4, 17940, Note_on_c, 2, 55, 0
4, 17940, Note_on_c, 2, 54, 100
4, 18000, Note_on_c, 2, 54, 0
4, 18000, Note_on_c, 2, 55, 100
4, 18060, Note_on_c, 2, 55, 0
4, 18060, Note_on_c, 2, 54, 100
4, 18120, Note_on_c, 2, 54, 0
4, 18120, Note_on_c, 2, 55, 100
4, 18180, Note_on_c, 2, 55, 0
4, 18180, Note_on_c, 2, 54, 100
4, 18240, Note_on_c, 2, 54, 0
4, 18300, Note_on_c, 2, 54, 100
4, 18360, Note_on_c, 2, 54, 0
4, 18360, Note_on_c, 2, 55, 100
4, 18420, Note_on_c, 2, 55, 0
4, 18420, Note_on_c, 2, 54, 100
4, 18480, Note_on_c, 2, 54, 0
4, 18480, Note_on_c, 2, 55, 100
4, 18540, Note_on_c, 2, 55, 0
4, 18540, Note_on_c, 2, 54, 100
4, 18600, Note_on_c, 2, 54, 0
4, 18600, Note_on_c, 2, 55, 100
4, 18660, Note_on_c, 2, 55, 0
4, 18660, Note_on_c, 2, 54, 100
4, 18720, Note_on_c, 2, 54, 0
4, 18780, Note_on_c, 2, 54, 100
4, 18840, Note_on_c, 2, 54, 0
4, 18840, Note_on_c, 2, 55, 100
4, 18900, Note_on_c, 2, 55, 0
4, 18900, Note_on_c, 2, 54, 100
4, 18960, Note_on_c, 2, 54, 0
4, 18960, Note_on_c, 2, 55, 100
4, 19020, Note_on_c, 2, 55, 0
4, 19020, Note_on_c, 2, 54, 100
4, 19080, Note_on_c, 2, 54, 0
4, 19080, Note_on_c, 2, 55, 100
4, 19140, Note_on_c, 2, 55, 0
4, 19140, Note_on_c, 2, 54, 100
4, 19200, Note_on_c, 2, 54, 0
4, 19260, Note_on_c, 2, 54, 100
4, 19320, Note_on_c, 2, 54, 0
4, 19320, Note_on_c, 2, 55, 100
4, 19380, Note_on_c, 2, 55, 0
4, 19380, Note_on_c, 2, 54, 100
4, 19440, Note_on_c, 2, 54, 0
4, 19440, Note_on_c, 2, 55, 100
4, 19500, Note_on_c, 2, 55, 0
4, 19500, Note_on_c, 2, 54, 100
4, 19560, Note_on_c, 2, 54, 0
4, 19560, Note_on_c, 2, 55, 100
4, 19620, Note_on_c, 2, 55, 0
4, 19620, Note_on_c, 2, 54, 100
4, 19680, Note_on_c, 2, 54, 0
4, 19740, Note_on_c, 2, 54, 100
4, 19800, Note_on_c, 2, 54, 0
4, 19800, Note_on_c, 2, 55, 100
4, 19860, Note_on_c, 2, 55, 0
4, 19860, Note_on_c, 2, 54, 100
4, 19920, Note_on_c, 2, 54, 0
4, 19920, Note_on_c, 2, 55, 100
4, 19980, Note_on_c, 2, 55, 0
4, 19980, Note_on_c, 2, 54, 100
4, 20040, Note_on_c, 2, 54, 0
4, 20040, Note_on_c, 2, 55, 100
4, 20100, Note_on_c, 2, 55, 0
4, 20100, Note_on_c, 2, 54, 100
4, 20160, Note_on_c, 2, 54, 0
4, 20220, Note_on_c, 2, 54, 100
4, 20280, Note_on_c, 2, 54, 0
4, 20280, Note_on_c, 2, 55, 100
4, 20340, Note_on_c, 2, 55, 0
4, 20340, Note_on_c, 2, 54, 100
4, 20400, Note_on_c, 2, 54, 0
4, 20400, Note_on_c, 2, 55, 100
4, 20460, Note_on_c, 2, 55, 0
4, 20460, Note_on_c, 2, 54, 100
4, 20520, Note_on_c, 2, 54, 0
4, 20520, Note_on_c, 2, 55, 100
4, 20580, Note_on_c, 2, 55, 0
4, 20580, Note_on_c, 2, 54, 100
4, 20640, Note_on_c, 2, 54, 0
4, 20700, Note_on_c, 2, 54, 100
4, 20760, Note_on_c, 2, 54, 0
4, 20760, Note_on_c, 2, 55, 100
4, 20820, Note_on_c, 2, 55, 0
4, 20820, Note_on_c, 2, 54, 100
4, 20880, Note_on_c, 2, 54, 0
4, 20880, Note_on_c, 2, 55, 100
4, 20940, Note_on_c, 2, 55, 0
4, 20940, Note_on_c, 2, 54, 100
4, 21000, Note_on_c, 2, 54, 0
4, 21000, Note_on_c, 2, 55, 100
4, 21060, Note_on_c, 2, 55, 0
4, 21060, Note_on_c, 2, 54, 100
4, 21120, Note_on_c, 2, 54, 0
4, 21180, Note_on_c, 2, 52, 100
4, 21240, Note_on_c, 2, 52, 0
4, 21240, Note_on_c, 2, 54, 100
4, 21300, Note_on_c, 2, 54, 0
4, 21300, Note_on_c, 2, 52, 100
4, 21360, Note_on_c, 2, 52, 0
4, 21360, Note_on_c, 2, 54, 100
4, 21420, Note_on_c, 2, 54, 0
4, 21420, Note_on_c, 2, 52, 100
4, 21480, Note_on_c, 2, 52, 0
4, 21480, Note_on_c, 2, 54, 100
4, 21540, Note_on_c, 2, 54, 0
4, 21540, Note_on_c, 2, 52, 100
4, 21600, Note_on_c, 2, 52, 0
4, 21600, Note_on_c, 2, 38, 100
4, 21720, Note_on_c, 2, 38, 0
4, 21720, Note_on_c, 2, 42, 100
4, 21840, Note_on_c, 2, 42, 0
4, 21840, Note_on_c, 2, 40, 100
4, 21960, Note_on_c, 2, 40, 0
4, 21960, Note_on_c, 2, 42, 100
4, 22080, Note_on_c, 2, 42, 0
4, 22080, Note_on_c, 2, 45, 100
4, 22200, Note_on_c, 2, 45, 0
4, 22200, Note_on_c, 2, 50, 100
4, 22320, Note_on_c, 2, 50, 0
4, 22320, Note_on_c, 2, 49, 100
4, 22440, Note_on_c, 2, 49, 0
4, 22440, Note_on_c, 2, 50, 100
4, 22560, Note_on_c, 2, 50, 0
4, 22560, Note_on_c, 2, 54, 100
4, 23040, Note_on_c, 2, 54, 0
4, 28860, Note_on_c, 2, 67, 100
4, 28920, Note_on_c, 2, 67, 0
4, 28920, Note_on_c, 2, 69, 100
4, 28980, Note_on_c, 2, 69, 0
4, 28980, Note_on_c, 2, 67, 100
4, 29040, Note_on_c, 2, 67, 0
4, 29040, Note_on_c, 2, 69, 100
4, 29100, Note_on_c, 2, 69, 0
4, 29100, Note_on_c, 2, 67, 100
4, 29160, Note_on_c, 2, 67, 0
4, 29160, Note_on_c, 2, 69, 100
4, 29220, Note_on_c, 2, 69, 0
4, 29220, Note_on_c, 2, 67, 100
4, 29280, Note_on_c, 2, 67, 0
4, 29340, Note_on_c, 2, 67, 100
4, 29400, Note_on_c, 2, 67, 0
4, 29400, Note_on_c, 2, 69, 100
4, 29460, Note_on_c, 2, 69, 0
4, 29460, Note_on_c, 2, 67, 100
4, 29520, Note_on_c, 2, 67, 0
4, 29520, Note_on_c, 2, 69, 100
4, 29580, Note_on_c, 2, 69, 0
4, 29580, Note_on_c, 2, 67, 100
4, 29640, Note_on_c, 2, 67, 0
4, 29640, Note_on_c, 2, 69, 100
4, 29700, Note_on_c, 2, 69, 0
4, 29700, Note_on_c, 2, 67, 100
4, 29760, Note_on_c, 2, 67, 0
4, 29820, Note_on_c, 2, 67, 100
4, 29880, Note_on_c, 2, 67, 0
4, 29880, Note_on_c, 2, 69, 100
4, 29940, Note_on_c, 2, 69, 0
4, 29940, Note_on_c, 2, 67, 100
4, 30000, Note_on_c, 2, 67, 0
4, 30000, Note_on_c, 2, 69, 100
4, 30060, Note_on_c, 2, 69, 0
4, 30060, Note_on_c, 2, 67, 100
4, 30120, Note_on_c, 2, 67, 0
4, 30120, Note_on_c, 2, 69, 100
4, 30180, Note_on_c, 2, 69, 0
4, 30180, Note_on_c, 2, 67, 100
4, 30240, Note_on_c, 2, 67, 0
4, 30300, Note_on_c, 2, 67, 100
4, 30360, Note_on_c, 2, 67, 0
4, 30360, Note_on_c, 2, 69, 100
4, 30420, Note_on_c, 2, 69, 0
4, 30420, Note_on_c, 2, 67, 100
4, 30480, Note_on_c, 2, 67, 0
4, 30480, Note_on_c, 2, 69, 100
4, 30540, Note_on_c, 2, 69, 0
4, 30540, Note_on_c, 2, 67, 100
4, 30600, Note_on_c, 2, 67, 0
4, 30600, Note_on_c, 2, 69, 100
4, 30660, Note_on_c, 2, 69, 0
4, 30660, Note_on_c, 2, 67, 100
4, 30720, Note_on_c, 2, 67, 0
4, 30780, Note_on_c, 2, 67, 100
4, 30840, Note_on_c, 2, 67, 0
4, 30840, Note_on_c, 2, 69, 100
4, 30900, Note_on_c, 2, 69, 0
4, 30900, Note_on_c, 2, 67, 100
4, 30960, Note_on_c, 2, 67, 0
4, 30960, Note_on_c, 2, 69, 100
4, 31020, Note_on_c, 2, 69, 0
4, 31020, Note_on_c, 2, 67, 100
4, 31080, Note_on_c, 2, 67, 0
4, 31080, Note_on_c, 2, 69, 100
4, 31140, Note_on_c, 2, 69, 0
4, 31140, Note_on_c, 2, 67, 100
4, 31200, Note_on_c, 2, 67, 0
4, 31260, Note_on_c, 2, 67, 100
4, 31320, Note_on_c, 2, 67, 0
4, 31320, Note_on_c, 2, 69, 100
4, 31380, Note_on_c, 2, 69, 0
4, 31380, Note_on_c, 2, 67, 100
4, 31440, Note_on_c, 2, 67, 0
4, 31440, Note_on_c, 2, 69, 100
4, 31500, Note_on_c, 2, 69, 0
4, 31500, Note_on_c, 2, 67, 100
4, 31560, Note_on_c, 2, 67, 0
4, 31560, Note_on_c, 2, 69, 100
4, 31620, Note_on_c, 2, 69, 0
4, 31620, Note_on_c, 2, 67, 100
4, 31680, Note_on_c, 2, 67, 0
4, 31740, Note_on_c, 2, 67, 100
4, 31800, Note_on_c, 2, 67, 0
4, 31800, Note_on_c, 2, 69, 100
4, 31860, Note_on_c, 2, 69, 0
4, 31860, Note_on_c, 2, 67, 100
4, 31920, Note_on_c, 2, 67, 0
4, 31920, Note_on_c, 2, 69, 100
4, 31980, Note_on_c, 2, 69, 0
4, 31980, Note_on_c, 2, 67, 100
4, 32040, Note_on_c, 2, 67, 0
4, 32040, Note_on_c, 2, 69, 100
4, 32100, Note_on_c, 2, 69, 0
4, 32100, Note_on_c, 2, 67, 100
4, 32160, Note_on_c, 2, 67, 0
4, 32220, Note_on_c, 2, 67, 100
4, 32280, Note_on_c, 2, 67, 0
4, 32280, Note_on_c, 2, 69, 100
4, 32340, Note_on_c, 2, 69, 0
4, 32340, Note_on_c, 2, 67, 100
4, 32400, Note_on_c, 2, 67, 0
4, 32400, Note_on_c, 2, 69, 100
4, 32460, Note_on_c, 2, 69, 0
4, 32460, Note_on_c, 2, 67, 100
4, 32520, Note_on_c, 2, 67, 0
4, 32520, Note_on_c, 2, 69, 100
4, 32580, Note_on_c, 2, 69, 0
4, 32580, Note_on_c, 2, 67, 100
4, 32640, Note_on_c, 2, 67, 0
4, 32700, Note_on_c, 2, 67, 100
4, 32760, Note_on_c, 2, 67, 0
4, 32760, Note_on_c, 2, 69, 100
4, 32820, Note_on_c, 2, 69, 0
4, 32820, Note_on_c, 2, 67, 100
4, 32880, Note_on_c, 2, 67, 0
4, 32880, Note_on_c, 2, 69, 100
4, 32940, Note_on_c, 2, 69, 0
4, 32940, Note_on_c, 2, 67, 100
4, 33000, Note_on_c, 2, 67, 0
4, 33000, Note_on_c, 2, 69, 100
4, 33060, Note_on_c, 2, 69, 0
4, 33060, Note_on_c, 2, 67, 100
4, 33120, Note_on_c, 2, 67, 0
4, 33180, Note_on_c, 2, 67, 100
4, 33240, Note_on_c, 2, 67, 0
4, 33240, Note_on_c, 2, 69, 100
4, 33300, Note_on_c, 2, 69, 0
4, 33300, Note_on_c, 2, 67, 100
4, 33360, Note_on_c, 2, 67, 0
4, 33360, Note_on_c, 2, 69, 100
4, 33420, Note_on_c, 2, 69, 0
4, 33420, Note_on_c, 2, 67, 100
4, 33480, Note_on_c, 2, 67, 0
4, 33480, Note_on_c, 2, 69, 100
4, 33540, Note_on_c, 2, 69, 0
4, 33540, Note_on_c, 2, 67, 100
4, 33600, Note_on_c, 2, 67, 0
4, 33660, Note_on_c, 2, 67, 100
4, 33720, Note_on_c, 2, 67, 0
4, 33720, Note_on_c, 2, 69, 100
4, 33780, Note_on_c, 2, 69, 0
4, 33780, Note_on_c, 2, 67, 100
4, 33840, Note_on_c, 2, 67, 0
4, 33840, Note_on_c, 2, 69, 100
4, 33900, Note_on_c, 2, 69, 0
4, 33900, Note_on_c, 2, 67, 100
4, 33960, Note_on_c, 2, 67, 0
4, 33960, Note_on_c, 2, 69, 100
4, 34020, Note_on_c, 2, 69, 0
4, 34020, Note_on_c, 2, 67, 100
4, 34080, Note_on_c, 2, 67, 0
4, 34140, Note_on_c, 2, 67, 100
4, 34200, Note_on_c, 2, 67, 0
4, 34200, Note_on_c, 2, 69, 100
4, 34260, Note_on_c, 2, 69, 0
4, 34260, Note_on_c, 2, 67, 100
4, 34320, Note_on_c, 2, 67, 0
4, 34320, Note_on_c, 2, 69, 100
4, 34380, Note_on_c, 2, 69, 0
4, 34380, Note_on_c, 2, 67, 100
4, 34440, Note_on_c, 2, 67, 0
4, 34440, Note_on_c, 2, 69, 100
4, 34500, Note_on_c, 2, 69, 0
4, 34500, Note_on_c, 2, 67, 100
4, 34560, Note_on_c, 2, 67, 0
4, 34560, Note_on_c, 2, 55, 100
4, 34680, Note_on_c, 2, 55, 0
4, 34680, Note_on_c, 2, 59, 100
4, 34800, Note_on_c, 2, 59, 0
4, 34800, Note_on_c, 2, 57, 100
4, 34920, Note_on_c, 2, 57, 0
4, 34920, Note_on_c, 2, 59, 100
4, 35040, Note_on_c, 2, 59, 0
4, 35040, Note_on_c, 2, 64, 100
4, 35160, Note_on_c, 2, 64, 0
4, 35160, Note_on_c, 2, 67, 100
4, 35280, Note_on_c, 2, 67, 0
4, 35280, Note_on_c, 2, 66, 100
4, 35400, Note_on_c, 2, 66, 0
4, 35400, Note_on_c, 2, 67, 100
4, 35520, Note_on_c, 2, 67, 0
4, 35520, Note_on_c, 2, 71, 100
4, 35640, Note_on_c, 2, 71, 0
4, 35640, Note_on_c, 2, 67, 100
4, 35760, Note_on_c, 2, 67, 0
4, 35760, Note_on_c, 2, 64, 100
4, 35880, Note_on_c, 2, 64, 0
4, 35880, Note_on_c, 2, 61, 100
4, 36000, Note_on_c, 2, 61, 0
4, 36000, Note_on_c, 2, 54, 100
4, 36120, Note_on_c, 2, 54, 0
4, 36120, Note_on_c, 2, 57, 100
4, 36240, Note_on_c, 2, 57, 0
4, 36240, Note_on_c, 2, 55, 100
4, 36360, Note_on_c, 2, 55, 0
4, 36360, Note_on_c, 2, 57, 100
4, 36480, Note_on_c, 2, 57, 0
4, 36480, Note_on_c, 2, 62, 100
4, 36600, Note_on_c, 2, 62, 0
4, 36600, Note_on_c, 2, 66, 100
4, 36720, Note_on_c, 2, 66, 0
4, 36720, Note_on_c, 2, 64, 100
4, 36840, Note_on_c, 2, 64, 0
4, 36840, Note_on_c, 2, 66, 100
4, 36960, Note_on_c, 2, 66, 0
4, 36960, Note_on_c, 2, 69, 100
4, 37080, Note_on_c, 2, 69, 0
4, 37080, Note_on_c, 2, 66, 100
4, 37200, Note_on_c, 2, 66, 0
4, 37200, Note_on_c, 2, 62, 100
4, 37320, Note_on_c, 2, 62, 0
4, 37320, Note_on_c, 2, 59, 100
4, 37440, Note_on_c, 2, 59, 0
4, 37440, Note_on_c, 2, 52, 100
4, 37560, Note_on_c, 2, 52, 0
4, 37560, Note_on_c, 2, 55, 100
4, 37680, Note_on_c, 2, 55, 0
4, 37680, Note_on_c, 2, 54, 100
4, 37800, Note_on_c, 2, 54, 0
4, 37800, Note_on_c, 2, 55, 100
4, 37920, Note_on_c, 2, 55, 0
4, 37920, Note_on_c, 2, 59, 100
4, 38040, Note_on_c, 2, 59, 0
4, 38040, Note_on_c, 2, 64, 100
4, 38160, Note_on_c, 2, 64, 0
4, 38160, Note_on_c, 2, 63, 100
4, 38280, Note_on_c, 2, 63, 0
4, 38280, Note_on_c, 2, 64, 100
4, 38400, Note_on_c, 2, 64, 0
4, 38400, Note_on_c, 2, 67, 100
4, 38520, Note_on_c, 2, 67, 0
4, 38520, Note_on_c, 2, 64, 100
4, 38640, Note_on_c, 2, 64, 0
4, 38640, Note_on_c, 2, 59, 100
4, 38760, Note_on_c, 2, 59, 0
4, 38760, Note_on_c, 2, 55, 100
4, 38880, Note_on_c, 2, 55, 0
4, 38880, Note_on_c, 2, 57, 100
4, 39000, Note_on_c, 2, 57, 0
4, 39000, Note_on_c, 2, 64, 100
4, 39120, Note_on_c, 2, 64, 0
4, 39120, Note_on_c, 2, 62, 100
4, 39240, Note_on_c, 2, 62, 0
4, 39240, Note_on_c, 2, 64, 100
4, 39360, Note_on_c, 2, 64, 0
4, 39360, Note_on_c, 2, 67, 100
4, 39480, Note_on_c, 2, 67, 0
4, 39480, Note_on_c, 2, 69, 100
4, 39600, Note_on_c, 2, 69, 0
4, 39600, Note_on_c, 2, 67, 100
4, 39720, Note_on_c, 2, 67, 0
4, 39720, Note_on_c, 2, 69, 100
4, 39840, Note_on_c, 2, 69, 0
4, 39840, Note_on_c, 2, 67, 100
4, 39960, Note_on_c, 2, 67, 0
4, 39960, Note_on_c, 2, 64, 100
4, 40080, Note_on_c, 2, 64, 0
4, 40080, Note_on_c, 2, 61, 100
4, 40200, Note_on_c, 2, 61, 0
4, 40200, Note_on_c, 2, 57, 100
4, 40320, Note_on_c, 2, 57, 0
4, 40380, Note_on_c, 2, 54, 100
4, 40440, Note_on_c, 2, 54, 0
4, 40440, Note_on_c, 2, 55, 100
4, 40500, Note_on_c, 2, 55, 0
4, 40500, Note_on_c, 2, 54, 100
4, 40560, Note_on_c, 2, 54, 0
4, 40560, Note_on_c, 2, 55, 100
4, 40620, Note_on_c, 2, 55, 0
4, 40620, Note_on_c, 2, 54, 100
4, 40680, Note_on_c, 2, 54, 0
4, 40680, Note_on_c, 2, 55, 100
4, 40740, Note_on_c, 2, 55, 0
4, 40740, Note_on_c, 2, 54, 100
4, 40800, Note_on_c, 2, 54, 0
4, 40860, Note_on_c, 2, 54, 100
4, 40920, Note_on_c, 2, 54, 0
4, 40920, Note_on_c, 2, 55, 100
4, 40980, Note_on_c, 2, 55, 0
4, 40980, Note_on_c, 2, 54, 100
4, 41040, Note_on_c, 2, 54, 0
4, 41040, Note_on_c, 2, 55, 100
4, 41100, Note_on_c, 2, 55, 0
4, 41100, Note_on_c, 2, 54, 100
4, 41160, Note_on_c, 2, 54, 0
4, 41160, Note_on_c, 2, 55, 100
4, 41220, Note_on_c, 2, 55, 0
4, 41220, Note_on_c, 2, 54, 100
4, 41280, Note_on_c, 2, 54, 0
4, 41340, Note_on_c, 2, 54, 100
4, 41400, Note_on_c, 2, 54, 0
4, 41400, Note_on_c, 2, 55, 100
4, 41460, Note_on_c, 2, 55, 0
4, 41460, Note_on_c, 2, 54, 100
4, 41520, Note_on_c, 2, 54, 0
4, 41520, Note_on_c, 2, 55, 100
4, 41580, Note_on_c, 2, 55, 0
4, 41580, Note_on_c, 2, 54, 100
4, 41640, Note_on_c, 2, 54, 0
4, 41640, Note_on_c, 2, 55, 100
4, 41700, Note_on_c, 2, 55, 0
4, 41700, Note_on_c, 2, 54, 100
4, 41760, Note_on_c, 2, 54, 0
4, 41820, Note_on_c, 2, 54, 100
4, 41880, Note_on_c, 2, 54, 0
4, 41880, Note_on_c, 2, 55, 100
4, 41940, Note_on_c, 2, 55, 0
4, 41940, Note_on_c, 2, 54, 100
4, 42000, Note_on_c, 2, 54, 0
4, 42000, Note_on_c, 2, 55, 100
4, 42060, Note_on_c, 2, 55, 0
4, 42060, Note_on_c, 2, 54, 100
4, 42120, Note_on_c, 2, 54, 0
4, 42120, Note_on_c, 2, 55, 100
4, 42180, Note_on_c, 2, 55, 0
4, 42180, Note_on_c, 2, 54, 100
4, 42240, Note_on_c, 2, 54, 0
4, 42300, Note_on_c, 2, 54, 100
4, 42360, Note_on_c, 2, 54, 0
4, 42360, Note_on_c, 2, 55, 100
4, 42420, Note_on_c, 2, 55, 0
4, 42420, Note_on_c, 2, 54, 100
4, 42480, Note_on_c, 2, 54, 0
4, 42480, Note_on_c, 2, 55, 100
4, 42540, Note_on_c, 2, 55, 0
4, 42540, Note_on_c, 2, 54, 100
4, 42600, Note_on_c, 2, 54, 0
4, 42600, Note_on_c, 2, 55, 100
4, 42660, Note_on_c, 2, 55, 0
4, 42660, Note_on_c, 2, 54, 100
4, 42720, Note_on_c, 2, 54, 0
4, 42780, Note_on_c, 2, 54, 100
4, 42840, Note_on_c, 2, 54, 0
4, 42840, Note_on_c, 2, 55, 100
4, 42900, Note_on_c, 2, 55, 0
4, 42900, Note_on_c, 2, 54, 100
4, 42960, Note_on_c, 2, 54, 0
4, 42960, Note_on_c, 2, 55, 100
4, 43020, Note_on_c, 2, 55, 0
4, 43020, Note_on_c, 2, 54, 100
4, 43080, Note_on_c, 2, 54, 0
4, 43080, Note_on_c, 2, 55, 100
4, 43140, Note_on_c, 2, 55, 0
4, 43140, Note_on_c, 2, 54, 100
4, 43200, Note_on_c, 2, 54, 0
4, 43260, Note_on_c, 2, 54, 100
4, 43320, Note_on_c, 2, 54, 0
4, 43320, Note_on_c, 2, 55, 100
4, 43380, Note_on_c, 2, 55, 0
4, 43380, Note_on_c, 2, 54, 100
4, 43440, Note_on_c, 2, 54, 0
4, 43440, Note_on_c, 2, 55, 100
4, 43500, Note_on_c, 2, 55, 0
4, 43500, Note_on_c, 2, 54, 100
4, 43560, Note_on_c, 2, 54, 0
4, 43560, Note_on_c, 2, 55, 100
4, 43620, Note_on_c, 2, 55, 0
4, 43620, Note_on_c, 2, 54, 100
4, 43680, Note_on_c, 2, 54, 0
4, 43740, Note_on_c, 2, 54, 100
4, 43800, Note_on_c, 2, 54, 0
4, 43800, Note_on_c, 2, 55, 100
4, 43860, Note_on_c, 2, 55, 0
4, 43860, Note_on_c, 2, 54, 100
4, 43920, Note_on_c, 2, 54, 0
4, 43920, Note_on_c, 2, 55, 100
4, 43980, Note_on_c, 2, 55, 0
4, 43980, Note_on_c, 2, 54, 100
4, 44040, Note_on_c, 2, 54, 0
4, 44040, Note_on_c, 2, 55, 100
4, 44100, Note_on_c, 2, 55, 0
4, 44100, Note_on_c, 2, 54, 100
4, 44160, Note_on_c, 2, 54, 0
4, 44220, Note_on_c, 2, 52, 100
4, 44280, Note_on_c, 2, 52, 0
4, 44280, Note_on_c, 2, 54, 100
4, 44340, Note_on_c, 2, 54, 0
4, 44340, Note_on_c, 2, 52, 100
4, 44400, Note_on_c, 2, 52, 0
4, 44400, Note_on_c, 2, 54, 100
4, 44460, Note_on_c, 2, 54, 0
4, 44460, Note_on_c, 2, 52, 100
4, 44520, Note_on_c, 2, 52, 0
4, 44520, Note_on_c, 2, 54, 100
4, 44580, Note_on_c, 2, 54, 0
4, 44580, Note_on_c, 2, 52, 100
4, 44640, Note_on_c, 2, 52, 0
4, 44640, Note_on_c, 2, 38, 100
4, 44760, Note_on_c, 2, 38, 0
4, 44760, Note_on_c, 2, 42, 100
4, 44880, Note_on_c, 2, 42, 0
4, 44880, Note_on_c, 2, 40, 100
4, 45000, Note_on_c, 2, 40, 0
4, 45000, Note_on_c, 2, 42, 100
4, 45120, Note_on_c, 2, 42, 0
4, 45120, Note_on_c, 2, 45, 100
4, 45240, Note_on_c, 2, 45, 0
4, 45240, Note_on_c, 2, 50, 100
4, 45360, Note_on_c, 2, 50, 0
4, 45360, Note_on_c, 2, 49, 100
4, 45480, Note_on_c, 2, 49, 0
4, 45480, Note_on_c, 2, 50, 100
4, 45600, Note_on_c, 2, 50, 0
4, 45600, Note_on_c, 2, 54, 100
4, 46080, Note_on_c, 2, 54, 0
4, 46080, Note_on_c, 2, 62, 100
4, 46320, Note_on_c, 2, 62, 0
4, 46320, Note_on_c, 2, 52, 100
4, 46560, Note_on_c, 2, 52, 0
4, 46560, Note_on_c, 2, 54, 100
4, 46800, Note_on_c, 2, 54, 0
4, 46800, Note_on_c, 2, 60, 100
4, 47040, Note_on_c, 2, 60, 0
4, 47040, Note_on_c, 2, 50, 100
4, 47280, Note_on_c, 2, 50, 0
4, 47280, Note_on_c, 2, 66, 100
4, 47520, Note_on_c, 2, 66, 0
4, 47520, Note_on_c, 2, 67, 100
4, 47760, Note_on_c, 2, 67, 0
4, 47760, Note_on_c, 2, 57, 100
4, 48000, Note_on_c, 2, 57, 0
4, 48000, Note_on_c, 2, 59, 100
4, 48240, Note_on_c, 2, 59, 0
4, 48240, Note_on_c, 2, 65, 100
4, 48480, Note_on_c, 2, 65, 0
4, 48480, Note_on_c, 2, 55, 100
4, 48720, Note_on_c, 2, 55, 0
4, 48720, Note_on_c, 2, 71, 100
4, 48960, Note_on_c, 2, 71, 0
4, 48960, Note_on_c, 2, 72, 100
4, 49080, Note_on_c, 2, 72, 0
4, 49080, Note_on_c, 2, 67, 100
4, 49200, Note_on_c, 2, 67, 0
4, 49200, Note_on_c, 2, 65, 100
4, 49320, Note_on_c, 2, 65, 0
4, 49320, Note_on_c, 2, 67, 100
4, 49440, Note_on_c, 2, 67, 0
4, 49440, Note_on_c, 2, 64, 100
4, 49560, Note_on_c, 2, 64, 0
4, 49560, Note_on_c, 2, 60, 100
4, 49680, Note_on_c, 2, 60, 0
4, 49680, Note_on_c, 2, 59, 100
4, 49800, Note_on_c, 2, 59, 0
4, 49800, Note_on_c, 2, 60, 100
4, 49920, Note_on_c, 2, 60, 0
4, 49920, Note_on_c, 2, 57, 100
4, 50040, Note_on_c, 2, 57, 0
4, 50040, Note_on_c, 2, 60, 100
4, 50160, Note_on_c, 2, 60, 0
4, 50160, Note_on_c, 2, 64, 100
4, 50280, Note_on_c, 2, 64, 0
4, 50280, Note_on_c, 2, 69, 100
4, 50400, Note_on_c, 2, 69, 0
4, 50400, Note_on_c, 2, 63, 100
4, 50520, Note_on_c, 2, 63, 0
4, 50520, Note_on_c, 2, 59, 100
4, 50640, Note_on_c, 2, 59, 0
4, 50640, Note_on_c, 2, 58, 100
4, 50760, Note_on_c, 2, 58, 0
4, 50760, Note_on_c, 2, 59, 100
4, 50880, Note_on_c, 2, 59, 0
4, 50880, Note_on_c, 2, 54, 100
4, 51000, Note_on_c, 2, 54, 0
4, 51000, Note_on_c, 2, 51, 100
4, 51120, Note_on_c, 2, 51, 0
4, 51120, Note_on_c, 2, 49, 100
4, 51240, Note_on_c, 2, 49, 0
4, 51240, Note_on_c, 2, 51, 100
4, 51360, Note_on_c, 2, 51, 0
4, 51360, Note_on_c, 2, 47, 100
4, 51480, Note_on_c, 2, 47, 0
4, 51480, Note_on_c, 2, 51, 100
4, 51600, Note_on_c, 2, 51, 0
4, 51600, Note_on_c, 2, 54, 100
4, 51720, Note_on_c, 2, 54, 0
4, 51720, Note_on_c, 2, 57, 100
4, 51840, Note_on_c, 2, 57, 0
4, 51900, Note_on_c, 2, 64, 100
4, 51960, Note_on_c, 2, 64, 0
4, 51960, Note_on_c, 2, 66, 100
4, 52020, Note_on_c, 2, 66, 0
4, 52020, Note_on_c, 2, 64, 100
4, 52080, Note_on_c, 2, 64, 0
4, 52080, Note_on_c, 2, 66, 100
4, 52140, Note_on_c, 2, 66, 0
4, 52140, Note_on_c, 2, 64, 100
4, 52200, Note_on_c, 2, 64, 0
4, 52200, Note_on_c, 2, 66, 100
4, 52260, Note_on_c, 2, 66, 0
4, 52260, Note_on_c, 2, 64, 100
4, 52320, Note_on_c, 2, 64, 0
4, 52380, Note_on_c, 2, 64, 100
4, 52440, Note_on_c, 2, 64, 0
4, 52440, Note_on_c, 2, 66, 100
4, 52500, Note_on_c, 2, 66, 0
4, 52500, Note_on_c, 2, 64, 100
4, 52560, Note_on_c, 2, 64, 0
4, 52560, Note_on_c, 2, 66, 100
4, 52620, Note_on_c, 2, 66, 0
4, 52620, Note_on_c, 2, 64, 100
4, 52680, Note_on_c, 2, 64, 0
4, 52680, Note_on_c, 2, 66, 100
4, 52740, Note_on_c, 2, 66, 0
4, 52740, Note_on_c, 2, 64, 100
4, 52800, Note_on_c, 2, 64, 0
4, 52860, Note_on_c, 2, 64, 100
4, 52920, Note_on_c, 2, 64, 0
4, 52920, Note_on_c, 2, 66, 100
4, 52980, Note_on_c, 2, 66, 0
4, 52980, Note_on_c, 2, 64, 100
4, 53040, Note_on_c, 2, 64, 0
4, 53040, Note_on_c, 2, 66, 100
4, 53100, Note_on_c, 2, 66, 0
4, 53100, Note_on_c, 2, 64, 100
4, 53160, Note_on_c, 2, 64, 0
4, 53160, Note_on_c, 2, 66, 100
4, 53220, Note_on_c, 2, 66, 0
4, 53220, Note_on_c, 2, 64, 100
4, 53280, Note_on_c, 2, 64, 0
4, 53340, Note_on_c, 2, 64, 100
4, 53400, Note_on_c, 2, 64, 0
4, 53400, Note_on_c, 2, 66, 100
4, 53460, Note_on_c, 2, 66, 0
4, 53460, Note_on_c, 2, 64, 100
4, 53520, Note_on_c, 2, 64, 0
4, 53520, Note_on_c, 2, 66, 100
4, 53580, Note_on_c, 2, 66, 0
4, 53580, Note_on_c, 2, 64, 100
4, 53640, Note_on_c, 2, 64, 0
4, 53640, Note_on_c, 2, 66, 100
4, 53700, Note_on_c, 2, 66, 0
4, 53700, Note_on_c, 2, 64, 100
4, 53760, Note_on_c, 2, 64, 0
4, 53820, Note_on_c, 2, 64, 100
4, 53880, Note_on_c, 2, 64, 0
4, 53880, Note_on_c, 2, 66, 100
4, 53940, Note_on_c, 2, 66, 0
4, 53940, Note_on_c, 2, 64, 100
4, 54000, Note_on_c, 2, 64, 0
4, 54000, Note_on_c, 2, 66, 100
4, 54060, Note_on_c, 2, 66, 0
4, 54060, Note_on_c, 2, 64, 100
4, 54120, Note_on_c, 2, 64, 0
4, 54120, Note_on_c, 2, 66, 100
4, 54180, Note_on_c, 2, 66, 0
4, 54180, Note_on_c, 2, 64, 100
4, 54240, Note_on_c, 2, 64, 0
4, 54300, Note_on_c, 2, 64, 100
4, 54360, Note_on_c, 2, 64, 0
4, 54360, Note_on_c, 2, 66, 100
4, 54420, Note_on_c, 2, 66, 0
4, 54420, Note_on_c, 2, 64, 100
4, 54480, Note_on_c, 2, 64, 0
4, 54480, Note_on_c, 2, 66, 100
4, 54540, Note_on_c, 2, 66, 0
4, 54540, Note_on_c, 2, 64, 100
4, 54600, Note_on_c, 2, 64, 0
4, 54600, Note_on_c, 2, 66, 100
4, 54660, Note_on_c, 2, 66, 0
4, 54660, Note_on_c, 2, 64, 100
4, 54720, Note_on_c, 2, 64, 0
4, 54780, Note_on_c, 2, 64, 100
4, 54840, Note_on_c, 2, 64, 0
4, 54840, Note_on_c, 2, 66, 100
4, 54900, Note_on_c, 2, 66, 0
4, 54900, Note_on_c, 2, 64, 100
4, 54960, Note_on_c, 2, 64, 0
4, 54960, Note_on_c, 2, 66, 100
4, 55020, Note_on_c, 2, 66, 0
4, 55020, Note_on_c, 2, 64, 100
4, 55080, Note_on_c, 2, 64, 0
4, 55080, Note_on_c, 2, 66, 100
4, 55140, Note_on_c, 2, 66, 0
4, 55140, Note_on_c, 2, 64, 100
4, 55200, Note_on_c, 2, 64, 0
4, 55260, Note_on_c, 2, 64, 100
4, 55320, Note_on_c, 2, 64, 0
4, 55320, Note_on_c, 2, 66, 100
4, 55380, Note_on_c, 2, 66, 0
4, 55380, Note_on_c, 2, 64, 100
4, 55440, Note_on_c, 2, 64, 0
4, 55440, Note_on_c, 2, 66, 100
4, 55500, Note_on_c, 2, 66, 0
4, 55500, Note_on_c, 2, 64, 100
4, 55560, Note_on_c, 2, 64, 0
4, 55560, Note_on_c, 2, 66, 100
4, 55620, Note_on_c, 2, 66, 0
4, 55620, Note_on_c, 2, 64, 100
4, 55680, Note_on_c, 2, 64, 0
4, 55740, Note_on_c, 2, 63, 100
4, 55800, Note_on_c, 2, 63, 0
4, 55800, Note_on_c, 2, 64, 100
4, 55860, Note_on_c, 2, 64, 0
4, 55860, Note_on_c, 2, 63, 100
4, 55920, Note_on_c, 2, 63, 0
4, 55920, Note_on_c, 2, 64, 100
4, 55980, Note_on_c, 2, 64, 0
4, 55980, Note_on_c, 2, 63, 100
4, 56040, Note_on_c, 2, 63, 0
4, 56040, Note_on_c, 2, 64, 100
4, 56100, Note_on_c, 2, 64, 0
4, 56100, Note_on_c, 2, 63, 100
4, 56160, Note_on_c, 2, 63, 0
4, 69120, Note_on_c, 2, 62, 100
4, 69360, Note_on_c, 2, 62, 0
4, 69360, Note_on_c, 2, 52, 100
4, 69600, Note_on_c, 2, 52, 0
4, 69600, Note_on_c, 2, 54, 100
4, 69840, Note_on_c, 2, 54, 0
4, 69840, Note_on_c, 2, 60, 100
4, 70080, Note_on_c, 2, 60, 0
4, 70080, Note_on_c, 2, 50, 100
4, 70320, Note_on_c, 2, 50, 0
4, 70320, Note_on_c, 2, 66, 100
4, 70560, Note_on_c, 2, 66, 0
4, 70560, Note_on_c, 2, 67, 100
4, 70800, Note_on_c, 2, 67, 0
4, 70800, Note_on_c, 2, 57, 100
4, 71040, Note_on_c, 2, 57, 0
4, 71040, Note_on_c, 2, 59, 100
4, 71280, Note_on_c, 2, 59, 0
4, 71280, Note_on_c, 2, 65, 100
4, 71520, Note_on_c, 2, 65, 0
4, 71520, Note_on_c, 2, 55, 100
4, 71760, Note_on_c, 2, 55, 0
4, 71760, Note_on_c, 2, 71, 100
4, 72000, Note_on_c, 2, 71, 0
4, 72000, Note_on_c, 2, 72, 100
4, 72120, Note_on_c, 2, 72, 0
4, 72120, Note_on_c, 2, 67, 100
4, 72240, Note_on_c, 2, 67, 0
4, 72240, Note_on_c, 2, 65, 100
4, 72360, Note_on_c, 2, 65, 0
4, 72360, Note_on_c, 2, 67, 100
4, 72480, Note_on_c, 2, 67, 0
4, 72480, Note_on_c, 2, 64, 100
4, 72600, Note_on_c, 2, 64, 0
4, 72600, Note_on_c, 2, 60, 100
4, 72720, Note_on_c, 2, 60, 0
4, 72720, Note_on_c, 2, 59, 100
4, 72840, Note_on_c, 2, 59, 0
4, 72840, Note_on_c, 2, 60, 100
4, 72960, Note_on_c, 2, 60, 0
4, 72960, Note_on_c, 2, 57, 100
4, 73080, Note_on_c, 2, 57, 0
4, 73080, Note_on_c, 2, 60, 100
4, 73200, Note_on_c, 2, 60, 0
4, 73200, Note_on_c, 2, 64, 100
4, 73320, Note_on_c, 2, 64, 0
4, 73320, Note_on_c, 2, 69, 100
4, 73440, Note_on_c, 2, 69, 0
4, 73440, Note_on_c, 2, 63, 100
4, 73560, Note_on_c, 2, 63, 0
4, 73560, Note_on_c, 2, 59, 100
4, 73680, Note_on_c, 2, 59, 0
4, 73680, Note_on_c, 2, 58, 100
4, 73800, Note_on_c, 2, 58, 0
4, 73800, Note_on_c, 2, 59, 100
4, 73920, Note_on_c, 2, 59, 0
4, 73920, Note_on_c, 2, 54, 100
4, 74040, Note_on_c, 2, 54, 0
4, 74040, Note_on_c, 2, 51, 100
4, 74160, Note_on_c, 2, 51, 0
4, 74160, Note_on_c, 2, 49, 100
4, 74280, Note_on_c, 2, 49, 0
4, 74280, Note_on_c, 2, 51, 100
4, 74400, Note_on_c, 2, 51, 0
4, 74400, Note_on_c, 2, 47, 100
4, 74520, Note_on_c, 2, 47, 0
4, 74520, Note_on_c, 2, 51, 100
4, 74640, Note_on_c, 2, 51, 0
4, 74640, Note_on_c, 2, 54, 100
4, 74760, Note_on_c, 2, 54, 0
4, 74760, Note_on_c, 2, 57, 100
4, 74880, Note_on_c, 2, 57, 0
4, 74940, Note_on_c, 2, 64, 100
4, 75000, Note_on_c, 2, 64, 0
4, 75000, Note_on_c, 2, 66, 100
4, 75060, Note_on_c, 2, 66, 0
4, 75060, Note_on_c, 2, 64, 100
4, 75120, Note_on_c, 2, 64, 0
4, 75120, Note_on_c, 2, 66, 100
4, 75180, Note_on_c, 2, 66, 0
4, 75180, Note_on_c, 2, 64, 100
4, 75240, Note_on_c, 2, 64, 0
4, 75240, Note_on_c, 2, 66, 100
4, 75300, Note_on_c, 2, 66, 0
4, 75300, Note_on_c, 2, 64, 100
4, 75360, Note_on_c, 2, 64, 0
4, 75420, Note_on_c, 2, 64, 100
4, 75480, Note_on_c, 2, 64, 0
4, 75480, Note_on_c, 2, 66, 100
4, 75540, Note_on_c, 2, 66, 0
4, 75540, Note_on_c, 2, 64, 100
4, 75600, Note_on_c, 2, 64, 0
4, 75600, Note_on_c, 2, 66, 100
4, 75660, Note_on_c, 2, 66, 0
4, 75660, Note_on_c, 2, 64, 100
4, 75720, Note_on_c, 2, 64, 0
4, 75720, Note_on_c, 2, 66, 100
4, 75780, Note_on_c, 2, 66, 0
4, 75780, Note_on_c, 2, 64, 100
4, 75840, Note_on_c, 2, 64, 0
4, 75900, Note_on_c, 2, 64, 100
4, 75960, Note_on_c, 2, 64, 0
4, 75960, Note_on_c, 2, 66, 100
4, 76020, Note_on_c, 2, 66, 0
4, 76020, Note_on_c, 2, 64, 100
4, 76080, Note_on_c, 2, 64, 0
4, 76080, Note_on_c, 2, 66, 100
4, 76140, Note_on_c, 2, 66, 0
4, 76140, Note_on_c, 2, 64, 100
4, 76200, Note_on_c, 2, 64, 0
4, 76200, Note_on_c, 2, 66, 100
4, 76260, Note_on_c, 2, 66, 0
4, 76260, Note_on_c, 2, 64, 100
4, 76320, Note_on_c, 2, 64, 0
4, 76380, Note_on_c, 2, 64, 100
4, 76440, Note_on_c, 2, 64, 0
4, 76440, Note_on_c, 2, 66, 100
4, 76500, Note_on_c, 2, 66, 0
4, 76500, Note_on_c, 2, 64, 100
4, 76560, Note_on_c, 2, 64, 0
4, 76560, Note_on_c, 2, 66, 100
4, 76620, Note_on_c, 2, 66, 0
4, 76620, Note_on_c, 2, 64, 100
4, 76680, Note_on_c, 2, 64, 0
4, 76680, Note_on_c, 2, 66, 100
4, 76740, Note_on_c, 2, 66, 0
4, 76740, Note_on_c, 2, 64, 100
4, 76800, Note_on_c, 2, 64, 0
4, 76860, Note_on_c, 2, 64, 100
4, 76920, Note_on_c, 2, 64, 0
4, 76920, Note_on_c, 2, 66, 100
4, 76980, Note_on_c, 2, 66, 0
4, 76980, Note_on_c, 2, 64, 100
4, 77040, Note_on_c, 2, 64, 0
4, 77040, Note_on_c, 2, 66, 100
4, 77100, Note_on_c, 2, 66, 0
4, 77100, Note_on_c, 2, 64, 100
4, 77160, Note_on_c, 2, 64, 0
4, 77160, Note_on_c, 2, 66, 100
4, 77220, Note_on_c, 2, 66, 0
4, 77220, Note_on_c, 2, 64, 100
4, 77280, Note_on_c, 2, 64, 0
4, 77340, Note_on_c, 2, 64, 100
4, 77400, Note_on_c, 2, 64, 0
4, 77400, Note_on_c, 2, 66, 100
4, 77460, Note_on_c, 2, 66, 0
4, 77460, Note_on_c, 2, 64, 100
4, 77520, Note_on_c, 2, 64, 0
4, 77520, Note_on_c, 2, 66, 100
4, 77580, Note_on_c, 2, 66, 0
4, 77580, Note_on_c, 2, 64, 100
4, 77640, Note_on_c, 2, 64, 0
4, 77640, Note_on_c, 2, 66, 100
4, 77700, Note_on_c, 2, 66, 0
4, 77700, Note_on_c, 2, 64, 100
4, 77760, Note_on_c, 2, 64, 0
4, 77820, Note_on_c, 2, 64, 100
4, 77880, Note_on_c, 2, 64, 0
4, 77880, Note_on_c, 2, 66, 100
4, 77940, Note_on_c, 2, 66, 0
4, 77940, Note_on_c, 2, 64, 100
4, 78000, Note_on_c, 2, 64, 0
4, 78000, Note_on_c, 2, 66, 100
4, 78060, Note_on_c, 2, 66, 0
4, 78060, Note_on_c, 2, 64, 100
4, 78120, Note_on_c, 2, 64, 0
4, 78120, Note_on_c, 2, 66, 100
4, 78180, Note_on_c, 2, 66, 0
4, 78180, Note_on_c, 2, 64, 100
4, 78240, Note_on_c, 2, 64, 0
4, 78300, Note_on_c, 2, 64, 100
4, 78360, Note_on_c, 2, 64, 0
4, 78360, Note_on_c, 2, 66, 100
4, 78420, Note_on_c, 2, 66, 0
4, 78420, Note_on_c, 2, 64, 100
4, 78480, Note_on_c, 2, 64, 0
4, 78480, Note_on_c, 2, 66, 100
4, 78540, Note_on_c, 2, 66, 0
4, 78540, Note_on_c, 2, 64, 100
4, 78600, Note_on_c, 2, 64, 0
4, 78600, Note_on_c, 2, 66, 100
4, 78660, Note_on_c, 2, 66, 0
4, 78660, Note_on_c, 2, 64, 100
4, 78720, Note_on_c, 2, 64, 0
4, 78780, Note_on_c, 2, 63, 100
4, 78840, Note_on_c, 2, 63, 0
4, 78840, Note_on_c, 2, 64, 100
4, 78900, Note_on_c, 2, 64, 0
4, 78900, Note_on_c, 2, 63, 100
4, 78960, Note_on_c, 2, 63, 0
4, 78960, Note_on_c, 2, 64, 100
4, 79020, Note_on_c, 2, 64, 0
4, 79020, Note_on_c, 2, 63, 100
4, 79080, Note_on_c, 2, 63, 0
4, 79080, Note_on_c, 2, 64, 100
4, 79140, Note_on_c, 2, 64, 0
4, 79140, Note_on_c, 2, 63, 100
4, 79200, Note_on_c, 2, 63, 0
4, 79200, End_track
5, 0, Start_track
5, 0, MIDI_port, 0
5, 0, Title_t, "The Goldberg Variations - BWV 988"
5, 0, Program_c, 3, 6
5, 0, Control_c, 3, 7, 100
5, 0, Control_c, 3, 10, 49
5, 0, Note_on_c, 3, 55, 100
5, 240, Note_on_c, 3, 55, 0
5, 240, Note_on_c, 3, 71, 100
5, 480, Note_on_c, 3, 71, 0
5, 480, Note_on_c, 3, 69, 100
5, 720, Note_on_c, 3, 69, 0
5, 720, Note_on_c, 3, 54, 100
5, 960, Note_on_c, 3, 54, 0
5, 960, Note_on_c, 3, 52, 100
5, 1200, Note_on_c, 3, 52, 0
5, 1200, Note_on_c, 3, 67, 100
5, 1440, Note_on_c, 3, 67, 0
5, 1440, Note_on_c, 3, 54, 100
5, 1680, Note_on_c, 3, 54, 0
5, 1680, Note_on_c, 3, 69, 100
5, 1920, Note_on_c, 3, 69, 0
5, 1920, Note_on_c, 3, 67, 100
5, 2160, Note_on_c, 3, 67, 0
5, 2160, Note_on_c, 3, 52, 100
5, 2400, Note_on_c, 3, 52, 0
5, 2400, Note_on_c, 3, 50, 100
5, 2640, Note_on_c, 3, 50, 0
5, 2640, Note_on_c, 3, 66, 100
5, 2880, Note_on_c, 3, 66, 0
5, 2880, Note_on_c, 3, 52, 100
5, 3120, Note_on_c, 3, 52, 0
5, 3120, Note_on_c, 3, 67, 100
5, 3360, Note_on_c, 3, 67, 0
5, 3360, Note_on_c, 3, 66, 100
5, 3600, Note_on_c, 3, 66, 0
5, 3600, Note_on_c, 3, 55, 100
5, 3840, Note_on_c, 3, 55, 0
5, 3840, Note_on_c, 3, 57, 100
5, 4080, Note_on_c, 3, 57, 0
5, 4080, Note_on_c, 3, 64, 100
5, 4320, Note_on_c, 3, 64, 0
5, 4320, Note_on_c, 3, 50, 100
5, 4560, Note_on_c, 3, 50, 0
5, 4560, Note_on_c, 3, 66, 100
5, 4800, Note_on_c, 3, 66, 0
5, 4800, Note_on_c, 3, 64, 100
5, 5040, Note_on_c, 3, 64, 0
5, 5040, Note_on_c, 3, 55, 100
5, 5280, Note_on_c, 3, 55, 0
5, 5280, Note_on_c, 3, 54, 100
5, 5520, Note_on_c, 3, 54, 0
5, 5520, Note_on_c, 3, 60, 100
5, 5760, Note_on_c, 3, 60, 0
5, 5760, Note_on_c, 3, 59, 100
5, 5880, Note_on_c, 3, 59, 0
5, 6240, Note_on_c, 3, 60, 100
5, 6360, Note_on_c, 3, 60, 0
5, 6720, Note_on_c, 3, 62, 100
5, 6840, Note_on_c, 3, 62, 0
5, 7200, Note_on_c, 3, 60, 100
5, 7320, Note_on_c, 3, 60, 0
5, 7680, Note_on_c, 3, 62, 100
5, 7800, Note_on_c, 3, 62, 0
5, 8160, Note_on_c, 3, 64, 100
5, 8280, Note_on_c, 3, 64, 0
5, 8640, Note_on_c, 3, 62, 100
5, 8760, Note_on_c, 3, 62, 0
5, 9120, Note_on_c, 3, 64, 100
5, 9240, Note_on_c, 3, 64, 0
5, 9600, Note_on_c, 3, 57, 100
5, 9720, Note_on_c, 3, 57, 0
5, 10080, Note_on_c, 3, 59, 100
5, 10200, Note_on_c, 3, 59, 0
5, 10560, Note_on_c, 3, 60, 100
5, 10680, Note_on_c, 3, 60, 0
5, 11040, Note_on_c, 3, 62, 100
5, 11160, Note_on_c, 3, 62, 0
5, 11520, Note_on_c, 3, 74, 100
5, 11640, Note_on_c, 3, 74, 0
5, 17280, Note_on_c, 3, 50, 100
5, 17400, Note_on_c, 3, 50, 0
5, 17760, Note_on_c, 3, 47, 100
5, 17880, Note_on_c, 3, 47, 0
5, 18240, Note_on_c, 3, 45, 100
5, 18360, Note_on_c, 3, 45, 0
5, 18720, Note_on_c, 3, 43, 100
5, 18840, Note_on_c, 3, 43, 0
5, 19200, Note_on_c, 3, 45, 100
5, 19320, Note_on_c, 3, 45, 0
5, 19680, Note_on_c, 3, 47, 100
5, 19800, Note_on_c, 3, 47, 0
5, 20160, Note_on_c, 3, 45, 100
5, 20280, Note_on_c, 3, 45, 0
5, 20640, Note_on_c, 3, 43, 100
5, 20760, Note_on_c, 3, 43, 0
5, 21120, Note_on_c, 3, 45, 100
5, 21240, Note_on_c, 3, 45, 0
5, 23040, Note_on_c, 3, 55, 100
5, 23280, Note_on_c, 3, 55, 0
5, 23280, Note_on_c, 3, 71, 100
5, 23520, Note_on_c, 3, 71, 0
5, 23520, Note_on_c, 3, 69, 100
5, 23760, Note_on_c, 3, 69, 0
5, 23760, Note_on_c, 3, 54, 100
5, 24000, Note_on_c, 3, 54, 0
5, 24000, Note_on_c, 3, 52, 100
5, 24240, Note_on_c, 3, 52, 0
5, 24240, Note_on_c, 3, 67, 100
5, 24480, Note_on_c, 3, 67, 0
5, 24480, Note_on_c, 3, 54, 100
5, 24720, Note_on_c, 3, 54, 0
5, 24720, Note_on_c, 3, 69, 100
5, 24960, Note_on_c, 3, 69, 0
5, 24960, Note_on_c, 3, 67, 100
5, 25200, Note_on_c, 3, 67, 0
5, 25200, Note_on_c, 3, 52, 100
5, 25440, Note_on_c, 3, 52, 0
5, 25440, Note_on_c, 3, 50, 100
5, 25680, Note_on_c, 3, 50, 0
5, 25680, Note_on_c, 3, 66, 100
5, 25920, Note_on_c, 3, 66, 0
5, 25920, Note_on_c, 3, 52, 100
5, 26160, Note_on_c, 3, 52, 0
5, 26160, Note_on_c, 3, 67, 100
5, 26400, Note_on_c, 3, 67, 0
5, 26400, Note_on_c, 3, 66, 100
5, 26640, Note_on_c, 3, 66, 0
5, 26640, Note_on_c, 3, 55, 100
5, 26880, Note_on_c, 3, 55, 0
5, 26880, Note_on_c, 3, 57, 100
5, 27120, Note_on_c, 3, 57, 0
5, 27120, Note_on_c, 3, 64, 100
5, 27360, Note_on_c, 3, 64, 0
5, 27360, Note_on_c, 3, 50, 100
5, 27600, Note_on_c, 3, 50, 0
5, 27600, Note_on_c, 3, 66, 100
5, 27840, Note_on_c, 3, 66, 0
5, 27840, Note_on_c, 3, 64, 100
5, 28080, Note_on_c, 3, 64, 0
5, 28080, Note_on_c, 3, 55, 100
5, 28320, Note_on_c, 3, 55, 0
5, 28320, Note_on_c, 3, 54, 100
5, 28560, Note_on_c, 3, 54, 0
5, 28560, Note_on_c, 3, 60, 100
5, 28800, Note_on_c, 3, 60, 0
5, 28800, Note_on_c, 3, 59, 100
5, 28920, Note_on_c, 3, 59, 0
5, 29280, Note_on_c, 3, 60, 100
5, 29400, Note_on_c, 3, 60, 0
5, 29760, Note_on_c, 3, 62, 100
5, 29880, Note_on_c, 3, 62, 0
5, 30240, Note_on_c, 3, 60, 100
5, 30360, Note_on_c, 3, 60, 0
5, 30720, Note_on_c, 3, 62, 100
5, 30840, Note_on_c, 3, 62, 0
5, 31200, Note_on_c, 3, 64, 100
5, 31320, Note_on_c, 3, 64, 0
5, 31680, Note_on_c, 3, 62, 100
5, 31800, Note_on_c, 3, 62, 0
5, 32160, Note_on_c, 3, 64, 100
5, 32280, Note_on_c, 3, 64, 0
5, 32640, Note_on_c, 3, 57, 100
5, 32760, Note_on_c, 3, 57, 0
5, 33120, Note_on_c, 3, 59, 100
5, 33240, Note_on_c, 3, 59, 0
5, 33600, Note_on_c, 3, 60, 100
5, 33720, Note_on_c, 3, 60, 0
5, 34080, Note_on_c, 3, 62, 100
5, 34200, Note_on_c, 3, 62, 0
5, 34560, Note_on_c, 3, 74, 100
5, 34680, Note_on_c, 3, 74, 0
5, 40320, Note_on_c, 3, 50, 100
5, 40440, Note_on_c, 3, 50, 0
5, 40800, Note_on_c, 3, 47, 100
5, 40920, Note_on_c, 3, 47, 0
5, 41280, Note_on_c, 3, 45, 100
5, 41400, Note_on_c, 3, 45, 0
5, 41760, Note_on_c, 3, 43, 100
5, 41880, Note_on_c, 3, 43, 0
5, 42240, Note_on_c, 3, 45, 100
5, 42360, Note_on_c, 3, 45, 0
5, 42720, Note_on_c, 3, 47, 100
5, 42840, Note_on_c, 3, 47, 0
5, 43200, Note_on_c, 3, 45, 100
5, 43320, Note_on_c, 3, 45, 0
5, 43680, Note_on_c, 3, 43, 100
5, 43800, Note_on_c, 3, 43, 0
5, 44160, Note_on_c, 3, 45, 100
5, 44280, Note_on_c, 3, 45, 0
5, 51840, Note_on_c, 3, 55, 100
5, 51960, Note_on_c, 3, 55, 0
5, 52320, Note_on_c, 3, 57, 100
5, 52440, Note_on_c, 3, 57, 0
5, 52800, Note_on_c, 3, 59, 100
5, 52920, Note_on_c, 3, 59, 0
5, 53280, Note_on_c, 3, 60, 100
5, 53400, Note_on_c, 3, 60, 0
5, 53760, Note_on_c, 3, 59, 100
5, 53880, Note_on_c, 3, 59, 0
5, 54240, Note_on_c, 3, 60, 100
5, 54360, Note_on_c, 3, 60, 0
5, 54720, Note_on_c, 3, 58, 100
5, 54840, Note_on_c, 3, 58, 0
5, 55200, Note_on_c, 3, 59, 100
5, 55320, Note_on_c, 3, 59, 0
5, 55680, Note_on_c, 3, 59, 100
5, 55800, Note_on_c, 3, 59, 0
5, 56160, Note_on_c, 3, 52, 100
5, 56280, Note_on_c, 3, 52, 0
5, 56280, Note_on_c, 3, 64, 100
5, 56400, Note_on_c, 3, 64, 0
5, 56400, Note_on_c, 3, 63, 100
5, 56520, Note_on_c, 3, 63, 0
5, 56520, Note_on_c, 3, 64, 100
5, 56640, Note_on_c, 3, 64, 0
5, 56640, Note_on_c, 3, 59, 100
5, 56760, Note_on_c, 3, 59, 0
5, 56760, Note_on_c, 3, 55, 100
5, 56880, Note_on_c, 3, 55, 0
5, 56880, Note_on_c, 3, 54, 100
5, 57000, Note_on_c, 3, 54, 0
5, 57000, Note_on_c, 3, 55, 100
5, 57120, Note_on_c, 3, 55, 0
5, 57120, Note_on_c, 3, 52, 100
5, 57240, Note_on_c, 3, 52, 0
5, 57240, Note_on_c, 3, 55, 100
5, 57360, Note_on_c, 3, 55, 0
5, 57360, Note_on_c, 3, 59, 100
5, 57480, Note_on_c, 3, 59, 0
5, 57480, Note_on_c, 3, 62, 100
5, 57600, Note_on_c, 3, 62, 0
5, 57600, Note_on_c, 3, 60, 100
5, 57720, Note_on_c, 3, 60, 0
5, 58080, Note_on_c, 3, 59, 100
5, 58200, Note_on_c, 3, 59, 0
5, 58560, Note_on_c, 3, 57, 100
5, 58680, Note_on_c, 3, 57, 0
5, 59040, Note_on_c, 3, 59, 100
5, 59160, Note_on_c, 3, 59, 0
5, 59520, Note_on_c, 3, 57, 100
5, 59640, Note_on_c, 3, 57, 0
5, 60000, Note_on_c, 3, 55, 100
5, 60120, Note_on_c, 3, 55, 0
5, 60480, Note_on_c, 3, 57, 100
5, 60720, Note_on_c, 3, 57, 0
5, 60720, Note_on_c, 3, 76, 100
5, 60960, Note_on_c, 3, 76, 0
5, 60960, Note_on_c, 3, 77, 100
5, 61200, Note_on_c, 3, 77, 0
5, 61200, Note_on_c, 3, 78, 100
5, 61440, Note_on_c, 3, 78, 0
5, 61440, Note_on_c, 3, 79, 100
5, 61680, Note_on_c, 3, 79, 0
5, 61680, Note_on_c, 3, 57, 100
5, 61920, Note_on_c, 3, 57, 0
5, 61920, Note_on_c, 3, 50, 100
5, 62160, Note_on_c, 3, 50, 0
5, 62160, Note_on_c, 3, 78, 100
5, 62400, Note_on_c, 3, 78, 0
5, 62400, Note_on_c, 3, 79, 100
5, 62640, Note_on_c, 3, 79, 0
5, 62640, Note_on_c, 3, 80, 100
5, 62880, Note_on_c, 3, 80, 0
5, 62880, Note_on_c, 3, 81, 100
5, 63120, Note_on_c, 3, 81, 0
5, 63120, Note_on_c, 3, 62, 100
5, 63360, Note_on_c, 3, 62, 0
5, 63360, Note_on_c, 3, 59, 100
5, 63600, Note_on_c, 3, 59, 0
5, 63600, Note_on_c, 3, 43, 100
5, 63840, Note_on_c, 3, 43, 0
5, 63840, Note_on_c, 3, 44, 100
5, 64080, Note_on_c, 3, 44, 0
5, 64080, Note_on_c, 3, 45, 100
5, 64320, Note_on_c, 3, 45, 0
5, 64320, Note_on_c, 3, 46, 100
5, 64560, Note_on_c, 3, 46, 0
5, 64560, Note_on_c, 3, 47, 100
5, 64800, Note_on_c, 3, 47, 0
5, 64800, Note_on_c, 3, 48, 100
5, 64920, Note_on_c, 3, 48, 0
5, 65280, Note_on_c, 3, 50, 100
5, 65400, Note_on_c, 3, 50, 0
5, 65760, Note_on_c, 3, 52, 100
5, 65880, Note_on_c, 3, 52, 0
5, 66240, Note_on_c, 3, 54, 100
5, 66360, Note_on_c, 3, 54, 0
5, 66360, Note_on_c, 3, 62, 100
5, 66480, Note_on_c, 3, 62, 0
5, 66480, Note_on_c, 3, 60, 100
5, 66600, Note_on_c, 3, 60, 0
5, 66600, Note_on_c, 3, 62, 100
5, 66720, Note_on_c, 3, 62, 0
5, 66720, Note_on_c, 3, 59, 100
5, 66840, Note_on_c, 3, 59, 0
5, 66840, Note_on_c, 3, 55, 100
5, 66960, Note_on_c, 3, 55, 0
5, 66960, Note_on_c, 3, 54, 100
5, 67080, Note_on_c, 3, 54, 0
5, 67080, Note_on_c, 3, 55, 100
5, 67200, Note_on_c, 3, 55, 0
5, 67200, Note_on_c, 3, 50, 100
5, 67320, Note_on_c, 3, 50, 0
5, 67320, Note_on_c, 3, 54, 100
5, 67440, Note_on_c, 3, 54, 0
5, 67440, Note_on_c, 3, 57, 100
5, 67560, Note_on_c, 3, 57, 0
5, 67560, Note_on_c, 3, 60, 100
5, 67680, Note_on_c, 3, 60, 0
5, 67680, Note_on_c, 3, 59, 100
5, 67800, Note_on_c, 3, 59, 0
5, 67800, Note_on_c, 3, 55, 100
5, 67920, Note_on_c, 3, 55, 0
5, 67920, Note_on_c, 3, 54, 100
5, 68040, Note_on_c, 3, 54, 0
5, 68040, Note_on_c, 3, 55, 100
5, 68160, Note_on_c, 3, 55, 0
5, 68160, Note_on_c, 3, 50, 100
5, 68280, Note_on_c, 3, 50, 0
5, 68280, Note_on_c, 3, 47, 100
5, 68400, Note_on_c, 3, 47, 0
5, 68400, Note_on_c, 3, 45, 100
5, 68520, Note_on_c, 3, 45, 0
5, 68520, Note_on_c, 3, 47, 100
5, 68640, Note_on_c, 3, 47, 0
5, 68640, Note_on_c, 3, 43, 100
5, 69120, Note_on_c, 3, 43, 0
5, 74880, Note_on_c, 3, 55, 100
5, 75000, Note_on_c, 3, 55, 0
5, 75360, Note_on_c, 3, 57, 100
5, 75480, Note_on_c, 3, 57, 0
5, 75840, Note_on_c, 3, 59, 100
5, 75960, Note_on_c, 3, 59, 0
5, 76320, Note_on_c, 3, 60, 100
5, 76440, Note_on_c, 3, 60, 0
5, 76800, Note_on_c, 3, 59, 100
5, 76920, Note_on_c, 3, 59, 0
5, 77280, Note_on_c, 3, 60, 100
5, 77400, Note_on_c, 3, 60, 0
5, 77760, Note_on_c, 3, 58, 100
5, 77880, Note_on_c, 3, 58, 0
5, 78240, Note_on_c, 3, 59, 100
5, 78360, Note_on_c, 3, 59, 0
5, 78720, Note_on_c, 3, 59, 100
5, 78840, Note_on_c, 3, 59, 0
5, 79200, Note_on_c, 3, 52, 100
5, 79320, Note_on_c, 3, 52, 0
5, 79320, Note_on_c, 3, 64, 100
5, 79440, Note_on_c, 3, 64, 0
5, 79440, Note_on_c, 3, 63, 100
5, 79560, Note_on_c, 3, 63, 0
5, 79560, Note_on_c, 3, 64, 100
5, 79680, Note_on_c, 3, 64, 0
5, 79680, Note_on_c, 3, 59, 100
5, 79800, Note_on_c, 3, 59, 0
5, 79800, Note_on_c, 3, 55, 100
5, 79920, Note_on_c, 3, 55, 0
5, 79920, Note_on_c, 3, 54, 100
5, 80040, Note_on_c, 3, 54, 0
5, 80040, Note_on_c, 3, 55, 100
5, 80160, Note_on_c, 3, 55, 0
5, 80160, Note_on_c, 3, 52, 100
5, 80280, Note_on_c, 3, 52, 0
5, 80280, Note_on_c, 3, 55, 100
5, 80400, Note_on_c, 3, 55, 0
5, 80400, Note_on_c, 3, 59, 100
5, 80520, Note_on_c, 3, 59, 0
5, 80520, Note_on_c, 3, 62, 100
5, 80640, Note_on_c, 3, 62, 0
5, 80640, Note_on_c, 3, 60, 100
5, 80760, Note_on_c, 3, 60, 0
5, 81120, Note_on_c, 3, 59, 100
5, 81240, Note_on_c, 3, 59, 0
5, 81600, Note_on_c, 3, 57, 100
5, 81720, Note_on_c, 3, 57, 0
5, 82080, Note_on_c, 3, 59, 100
5, 82200, Note_on_c, 3, 59, 0
5, 82560, Note_on_c, 3, 57, 100
5, 82680, Note_on_c, 3, 57, 0
5, 83040, Note_on_c, 3, 55, 100
5, 83160, Note_on_c, 3, 55, 0
5, 83520, Note_on_c, 3, 57, 100
5, 83760, Note_on_c, 3, 57, 0
5, 83760, Note_on_c, 3, 76, 100
5, 84000, Note_on_c, 3, 76, 0
5, 84000, Note_on_c, 3, 77, 100
5, 84240, Note_on_c, 3, 77, 0
5, 84240, Note_on_c, 3, 78, 100
5, 84480, Note_on_c, 3, 78, 0
5, 84480, Note_on_c, 3, 79, 100
5, 84720, Note_on_c, 3, 79, 0
5, 84720, Note_on_c, 3, 57, 100
5, 84960, Note_on_c, 3, 57, 0
5, 84960, Note_on_c, 3, 50, 100
5, 85200, Note_on_c, 3, 50, 0
5, 85200, Note_on_c, 3, 78, 100
5, 85440, Note_on_c, 3, 78, 0
5, 85440, Note_on_c, 3, 79, 100
5, 85680, Note_on_c, 3, 79, 0
5, 85680, Note_on_c, 3, 80, 100
5, 85920, Note_on_c, 3, 80, 0
5, 85920, Note_on_c, 3, 81, 100
5, 86160, Note_on_c, 3, 81, 0
5, 86160, Note_on_c, 3, 62, 100
5, 86400, Note_on_c, 3, 62, 0
5, 86400, Note_on_c, 3, 59, 100
5, 86640, Note_on_c, 3, 59, 0
5, 86640, Note_on_c, 3, 43, 100
5, 86880, Note_on_c, 3, 43, 0
5, 86880, Note_on_c, 3, 44, 100
5, 87120, Note_on_c, 3, 44, 0
5, 87120, Note_on_c, 3, 45, 100
5, 87360, Note_on_c, 3, 45, 0
5, 87360, Note_on_c, 3, 46, 100
5, 87600, Note_on_c, 3, 46, 0
5, 87600, Note_on_c, 3, 47, 100
5, 87840, Note_on_c, 3, 47, 0
5, 87840, Note_on_c, 3, 48, 100
5, 87960, Note_on_c, 3, 48, 0
5, 88320, Note_on_c, 3, 50, 100
5, 88440, Note_on_c, 3, 50, 0
5, 88800, Note_on_c, 3, 52, 100
5, 88920, Note_on_c, 3, 52, 0
5, 89280, Note_on_c, 3, 54, 100
5, 89400, Note_on_c, 3, 54, 0
5, 89400, Note_on_c, 3, 62, 100
5, 89520, Note_on_c, 3, 62, 0
5, 89520, Note_on_c, 3, 60, 100
5, 89640, Note_on_c, 3, 60, 0
5, 89640, Note_on_c, 3, 62, 100
5, 89760, Note_on_c, 3, 62, 0
5, 89760, Note_on_c, 3, 59, 100
5, 89880, Note_on_c, 3, 59, 0
5, 89880, Note_on_c, 3, 55, 100
5, 90000, Note_on_c, 3, 55, 0
5, 90000, Note_on_c, 3, 54, 100
5, 90120, Note_on_c, 3, 54, 0
5, 90120, Note_on_c, 3, 55, 100
5, 90240, Note_on_c, 3, 55, 0
5, 90240, Note_on_c, 3, 50, 100
5, 90360, Note_on_c, 3, 50, 0
5, 90360, Note_on_c, 3, 54, 100
5, 90480, Note_on_c, 3, 54, 0
5, 90480, Note_on_c, 3, 57, 100
5, 90600, Note_on_c, 3, 57, 0
5, 90600, Note_on_c, 3, 60, 100
5, 90720, Note_on_c, 3, 60, 0
5, 90720, Note_on_c, 3, 59, 100
5, 90840, Note_on_c, 3, 59, 0
5, 90840, Note_on_c, 3, 55, 100
5, 90960, Note_on_c, 3, 55, 0
5, 90960, Note_on_c, 3, 54, 100
5, 91080, Note_on_c, 3, 54, 0
5, 91080, Note_on_c, 3, 55, 100
5, 91200, Note_on_c, 3, 55, 0
5, 91200, Note_on_c, 3, 50, 100
5, 91320, Note_on_c, 3, 50, 0
5, 91320, Note_on_c, 3, 47, 100
5, 91440, Note_on_c, 3, 47, 0
5, 91440, Note_on_c, 3, 45, 100
5, 91560, Note_on_c, 3, 45, 0
5, 91560, Note_on_c, 3, 47, 100
5, 91680, Note_on_c, 3, 47, 0
5, 91680, Note_on_c, 3, 43, 100
5, 92160, Note_on_c, 3, 43, 0
5, 92160, End_track
6, 0, Start_track
6, 0, MIDI_port, 0
6, 0, Title_t, "Aria with 30 Variations for Harpsichord with 2 Manuals"
6, 0, End_track
7, 0, Start_track
7, 0, MIDI_port, 0
7, 0, Title_t, "--------------------------------------"
7, 0, End_track
8, 0, Start_track
8, 0, MIDI_port, 0
8, 0, Title_t, "Variatio 28 a 2 Clav."
8, 0, End_track
9, 0, Start_track
9, 0, MIDI_port, 0
9, 0, Title_t, "--------------------------------------"
9, 0, End_track
10, 0, Start_track
10, 0, MIDI_port, 0
10, 0, Title_t, "Sequenced with Cakewalk Pro Audio by"
10, 0, End_track
11, 0, Start_track
11, 0, MIDI_port, 0
11, 0, Title_t, "David J. Grossman - dave@unpronounceable.com"
11, 0, End_track
12, 0, Start_track
12, 0, MIDI_port, 0
12, 0, Title_t, "This and other Bach MIDI files can be found at:"
12, 0, End_track
13, 0, Start_track
13, 0, MIDI_port, 0
13, 0, Title_t, "Dave's J.S. Bach Page"
13, 0, End_track
14, 0, Start_track
14, 0, MIDI_port, 0
14, 0, Title_t, "http://www.unpronounceable.com/bach"
14, 0, End_track
15, 0, Start_track
15, 0, MIDI_port, 0
15, 0, Title_t, "--------------------------------------"
15, 0, End_track
16, 0, Start_track
16, 0, MIDI_port, 0
16, 0, Title_t, "Original Filename: 988-v28.mid"
16, 0, End_track
17, 0, Start_track
17, 0, MIDI_port, 0
17, 0, Title_t, "Last Modified: March 14, 1997"
17, 0, End_track
0, 0, End_of_file
