0, 0, Header, 1, 17, 480
1, 0, Start_track
1, 0, Title_t, "untitled"
1, 0, SMPTE_offset, 96, 0, 3, 0, 0
1, 0, Time_signature, 3, 2, 24, 8
1, 0, Key_signature, 1, "major"
1, 0, Tempo, 1200000
1, 0, Marker_t, "Aria"
1, 23040, Marker_t, "A'"
1, 46080, Marker_t, "B"
1, 69120, Marker_t, "B'"
1, 90720, Tempo, 1250000
1, 90764, Tempo, 1263158
1, 90804, Tempo, 1276596
1, 90848, Tempo, 1290323
1, 90888, Tempo, 1304348
1, 90936, Tempo, 1318681
1, 90976, Tempo, 1333333
1, 91020, Tempo, 1348315
1, 91060, Tempo, 1363636
1, 91108, Tempo, 1379310
1, 91148, Tempo, 1395349
1, 91192, Tempo, 1411765
1, 91232, Tempo, 1428571
1, 91280, Tempo, 1445783
1, 91320, Tempo, 1463415
1, 91364, Tempo, 1481481
1, 91404, Tempo, 1500000
1, 91448, Tempo, 1518987
1, 91488, Tempo, 1538462
1, 91536, Tempo, 1558442
1, 91576, Tempo, 1578947
1, 91620, Tempo, 1600000
1, 91660, Tempo, 1621622
1, 91680, Tempo, 3157895
1, 92160, Tempo, 625000
1, 92160, Marker_t, "V.1"
1, 92160, End_track
2, 0, Start_track
2, 0, MIDI_port, 0
2, 0, Title_t, "Solo Harpsichord with 2 Manuals"
2, 0, Program_c, 0, 6
2, 0, Control_c, 0, 7, 100
2, 0, Control_c, 0, 10, 79
2, 0, Note_on_c, 0, 79, 100
2, 480, Note_on_c, 0, 79, 0
2, 480, Note_on_c, 0, 79, 100
2, 960, Note_on_c, 0, 79, 0
2, 960, Note_on_c, 0, 81, 100
2, 1020, Note_on_c, 0, 81, 0
2, 1020, Note_on_c, 0, 79, 100
2, 1080, Note_on_c, 0, 79, 0
2, 1080, Note_on_c, 0, 81, 100
2, 1320, Note_on_c, 0, 81, 0
2, 1320, Note_on_c, 0, 83, 100
2, 1440, Note_on_c, 0, 83, 0
2, 1440, Note_on_c, 0, 81, 100
2, 1680, Note_on_c, 0, 81, 0
2, 1680, Note_on_c, 0, 79, 100
2, 1800, Note_on_c, 0, 79, 0
2, 1800, Note_on_c, 0, 78, 100
2, 1920, Note_on_c, 0, 78, 0
2, 1920, Note_on_c, 0, 76, 100
2, 2160, Note_on_c, 0, 76, 0
2, 2160, Note_on_c, 0, 74, 100
2, 2880, Note_on_c, 0, 74, 0
2, 2880, Note_on_c, 0, 67, 100
2, 2940, Note_on_c, 0, 67, 0
2, 2940, Note_on_c, 0, 66, 100
2, 3000, Note_on_c, 0, 66, 0
2, 3000, Note_on_c, 0, 67, 100
2, 3360, Note_on_c, 0, 67, 0
2, 3360, Note_on_c, 0, 69, 100
2, 3420, Note_on_c, 0, 69, 0
2, 3420, Note_on_c, 0, 67, 100
2, 3480, Note_on_c, 0, 67, 0
2, 3480, Note_on_c, 0, 66, 100
2, 3540, Note_on_c, 0, 66, 0
2, 3540, Note_on_c, 0, 67, 100
2, 3600, Note_on_c, 0, 67, 0
2, 3600, Note_on_c, 0, 69, 100
2, 3660, Note_on_c, 0, 69, 0
2, 3660, Note_on_c, 0, 67, 100
2, 3720, Note_on_c, 0, 67, 0
2, 3720, Note_on_c, 0, 69, 100
2, 3780, Note_on_c, 0, 69, 0
2, 3780, Note_on_c, 0, 67, 100
2, 3840, Note_on_c, 0, 67, 0
2, 3840, Note_on_c, 0, 69, 100
2, 3880, Note_on_c, 0, 69, 0
2, 3880, Note_on_c, 0, 67, 100
2, 3920, Note_on_c, 0, 67, 0
2, 3920, Note_on_c, 0, 69, 100
2, 3960, Note_on_c, 0, 69, 0
2, 3960, Note_on_c, 0, 67, 100
2, 4000, Note_on_c, 0, 67, 0
2, 4000, Note_on_c, 0, 69, 100
2, 4040, Note_on_c, 0, 69, 0
2, 4041, Note_on_c, 0, 67, 100
2, 4080, Note_on_c, 0, 66, 100
2, 4081, Note_on_c, 0, 67, 0
2, 4200, Note_on_c, 0, 66, 0
2, 4200, Note_on_c, 0, 67, 100
2, 4320, Note_on_c, 0, 67, 0
2, 4320, Note_on_c, 0, 69, 100
2, 4380, Note_on_c, 0, 69, 0
2, 4380, Note_on_c, 0, 67, 100
2, 4440, Note_on_c, 0, 67, 0
2, 4440, Note_on_c, 0, 66, 100
2, 4560, Note_on_c, 0, 66, 0
2, 4560, Note_on_c, 0, 67, 100
2, 4620, Note_on_c, 0, 67, 0
2, 4620, Note_on_c, 0, 66, 100
2, 4680, Note_on_c, 0, 66, 0
2, 4680, Note_on_c, 0, 64, 100
2, 4800, Note_on_c, 0, 64, 0
2, 4800, Note_on_c, 0, 64, 100
2, 5040, Note_on_c, 0, 64, 0
2, 5040, Note_on_c, 0, 62, 100
2, 5760, Note_on_c, 0, 62, 0
2, 5760, Note_on_c, 0, 74, 100
2, 6240, Note_on_c, 0, 74, 0
2, 6240, Note_on_c, 0, 74, 100
2, 6720, Note_on_c, 0, 74, 0
2, 6720, Note_on_c, 0, 76, 100
2, 6780, Note_on_c, 0, 76, 0
2, 6780, Note_on_c, 0, 74, 100
2, 6840, Note_on_c, 0, 74, 0
2, 6840, Note_on_c, 0, 76, 100
2, 7080, Note_on_c, 0, 76, 0
2, 7080, Note_on_c, 0, 77, 100
2, 7200, Note_on_c, 0, 77, 0
2, 7200, Note_on_c, 0, 76, 100
2, 7440, Note_on_c, 0, 76, 0
2, 7440, Note_on_c, 0, 74, 100
2, 7560, Note_on_c, 0, 74, 0
2, 7560, Note_on_c, 0, 72, 100
2, 7680, Note_on_c, 0, 72, 0
2, 7680, Note_on_c, 0, 71, 100
2, 7920, Note_on_c, 0, 71, 0
2, 7920, Note_on_c, 0, 69, 100
2, 8400, Note_on_c, 0, 69, 0
2, 8400, Note_on_c, 0, 79, 100
2, 8460, Note_on_c, 0, 79, 0
2, 8460, Note_on_c, 0, 78, 100
2, 8520, Note_on_c, 0, 78, 0
2, 8520, Note_on_c, 0, 76, 100
2, 8580, Note_on_c, 0, 76, 0
2, 8580, Note_on_c, 0, 78, 100
2, 8640, Note_on_c, 0, 78, 0
2, 8640, Note_on_c, 0, 79, 100
2, 8700, Note_on_c, 0, 79, 0
2, 8700, Note_on_c, 0, 78, 100
2, 8880, Note_on_c, 0, 78, 0
2, 8880, Note_on_c, 0, 81, 100
2, 8940, Note_on_c, 0, 81, 0
2, 8940, Note_on_c, 0, 79, 100
2, 9120, Note_on_c, 0, 79, 0
2, 9120, Note_on_c, 0, 78, 100
2, 9180, Note_on_c, 0, 78, 0
2, 9180, Note_on_c, 0, 76, 100
2, 9360, Note_on_c, 0, 76, 0
2, 9360, Note_on_c, 0, 74, 100
2, 9420, Note_on_c, 0, 74, 0
2, 9420, Note_on_c, 0, 72, 100
2, 9600, Note_on_c, 0, 72, 0
2, 9600, Note_on_c, 0, 72, 100
2, 9720, Note_on_c, 0, 72, 0
2, 9720, Note_on_c, 0, 81, 100
2, 9960, Note_on_c, 0, 81, 0
2, 9960, Note_on_c, 0, 72, 100
2, 10080, Note_on_c, 0, 72, 0
2, 10080, Note_on_c, 0, 71, 100
2, 10140, Note_on_c, 0, 71, 0
2, 10140, Note_on_c, 0, 67, 100
2, 10440, Note_on_c, 0, 67, 0
2, 10440, Note_on_c, 0, 66, 100
2, 10560, Note_on_c, 0, 66, 0
2, 10560, Note_on_c, 0, 66, 100
2, 10800, Note_on_c, 0, 66, 0
2, 10800, Note_on_c, 0, 67, 100
2, 10860, Note_on_c, 0, 67, 0
2, 10860, Note_on_c, 0, 66, 100
2, 10920, Note_on_c, 0, 66, 0
2, 10920, Note_on_c, 0, 67, 100
2, 11520, Note_on_c, 0, 67, 0
2, 11520, Note_on_c, 0, 71, 100
2, 12000, Note_on_c, 0, 71, 0
2, 12000, Note_on_c, 0, 71, 100
2, 12480, Note_on_c, 0, 71, 0
2, 12480, Note_on_c, 0, 73, 100
2, 12540, Note_on_c, 0, 73, 0
2, 12540, Note_on_c, 0, 71, 100
2, 12600, Note_on_c, 0, 71, 0
2, 12600, Note_on_c, 0, 73, 100
2, 12840, Note_on_c, 0, 73, 0
2, 12840, Note_on_c, 0, 74, 100
2, 12960, Note_on_c, 0, 74, 0
2, 12960, Note_on_c, 0, 74, 100
2, 13080, Note_on_c, 0, 74, 0
2, 13080, Note_on_c, 0, 73, 100
2, 13200, Note_on_c, 0, 73, 0
2, 13200, Note_on_c, 0, 71, 100
2, 13320, Note_on_c, 0, 71, 0
2, 13320, Note_on_c, 0, 69, 100
2, 14310, Note_on_c, 0, 69, 0
2, 14310, Note_on_c, 0, 67, 100
2, 14340, Note_on_c, 0, 71, 100
2, 14370, Note_on_c, 0, 76, 100
2, 14400, Note_on_c, 0, 79, 100
2, 14790, Note_on_c, 0, 67, 0
2, 14820, Note_on_c, 0, 71, 0
2, 14850, Note_on_c, 0, 76, 0
2, 14880, Note_on_c, 0, 79, 0
2, 14880, Note_on_c, 0, 81, 100
2, 14940, Note_on_c, 0, 81, 0
2, 14940, Note_on_c, 0, 79, 100
2, 15000, Note_on_c, 0, 79, 0
2, 15000, Note_on_c, 0, 78, 100
2, 15060, Note_on_c, 0, 78, 0
2, 15060, Note_on_c, 0, 79, 100
2, 15120, Note_on_c, 0, 79, 0
2, 15120, Note_on_c, 0, 81, 100
2, 15180, Note_on_c, 0, 81, 0
2, 15180, Note_on_c, 0, 79, 100
2, 15240, Note_on_c, 0, 79, 0
2, 15240, Note_on_c, 0, 81, 100
2, 15300, Note_on_c, 0, 81, 0
2, 15300, Note_on_c, 0, 79, 100
2, 15360, Note_on_c, 0, 79, 0
2, 15360, Note_on_c, 0, 81, 100
2, 15400, Note_on_c, 0, 81, 0
2, 15400, Note_on_c, 0, 79, 100
2, 15440, Note_on_c, 0, 79, 0
2, 15440, Note_on_c, 0, 81, 100
2, 15480, Note_on_c, 0, 81, 0
2, 15480, Note_on_c, 0, 79, 100
2, 15520, Note_on_c, 0, 79, 0
2, 15520, Note_on_c, 0, 81, 100
2, 15560, Note_on_c, 0, 81, 0
2, 15560, Note_on_c, 0, 79, 100
2, 15600, Note_on_c, 0, 79, 0
2, 15600, Note_on_c, 0, 78, 100
2, 15720, Note_on_c, 0, 78, 0
2, 15720, Note_on_c, 0, 79, 100
2, 15840, Note_on_c, 0, 79, 0
2, 15840, Note_on_c, 0, 79, 100
2, 16080, Note_on_c, 0, 79, 0
2, 16080, Note_on_c, 0, 78, 100
2, 16200, Note_on_c, 0, 78, 0
2, 16200, Note_on_c, 0, 76, 100
2, 16320, Note_on_c, 0, 76, 0
2, 16320, Note_on_c, 0, 74, 100
2, 16380, Note_on_c, 0, 74, 0
2, 16380, Note_on_c, 0, 73, 100
2, 16440, Note_on_c, 0, 73, 0
2, 16440, Note_on_c, 0, 71, 100
2, 16500, Note_on_c, 0, 71, 0
2, 16500, Note_on_c, 0, 73, 100
2, 16560, Note_on_c, 0, 73, 0
2, 16560, Note_on_c, 0, 74, 100
2, 16620, Note_on_c, 0, 74, 0
2, 16620, Note_on_c, 0, 73, 100
2, 16680, Note_on_c, 0, 73, 0
2, 16680, Note_on_c, 0, 74, 100
2, 16720, Note_on_c, 0, 74, 0
2, 16720, Note_on_c, 0, 73, 100
2, 16760, Note_on_c, 0, 73, 0
2, 16760, Note_on_c, 0, 74, 100
2, 16800, Note_on_c, 0, 74, 0
2, 16800, Note_on_c, 0, 73, 100
2, 17040, Note_on_c, 0, 73, 0
2, 17040, Note_on_c, 0, 76, 100
2, 17280, Note_on_c, 0, 76, 0
2, 17280, Note_on_c, 0, 81, 100
2, 17400, Note_on_c, 0, 81, 0
2, 17400, Note_on_c, 0, 79, 100
2, 17520, Note_on_c, 0, 79, 0
2, 17520, Note_on_c, 0, 78, 100
2, 17640, Note_on_c, 0, 78, 0
2, 17640, Note_on_c, 0, 76, 100
2, 17760, Note_on_c, 0, 76, 0
2, 17760, Note_on_c, 0, 74, 100
2, 18000, Note_on_c, 0, 74, 0
2, 18000, Note_on_c, 0, 69, 100
2, 18540, Note_on_c, 0, 69, 0
2, 18540, Note_on_c, 0, 71, 100
2, 18600, Note_on_c, 0, 71, 0
2, 18600, Note_on_c, 0, 72, 100
2, 18720, Note_on_c, 0, 72, 0
2, 18720, Note_on_c, 0, 71, 100
2, 18840, Note_on_c, 0, 71, 0
2, 18840, Note_on_c, 0, 69, 100
2, 18960, Note_on_c, 0, 69, 0
2, 18960, Note_on_c, 0, 67, 100
2, 19080, Note_on_c, 0, 67, 0
2, 19080, Note_on_c, 0, 66, 100
2, 19200, Note_on_c, 0, 66, 0
2, 19200, Note_on_c, 0, 64, 100
2, 19440, Note_on_c, 0, 64, 0
2, 19440, Note_on_c, 0, 74, 100
2, 19560, Note_on_c, 0, 74, 0
2, 19560, Note_on_c, 0, 73, 100
2, 19980, Note_on_c, 0, 73, 0
2, 19980, Note_on_c, 0, 74, 100
2, 20040, Note_on_c, 0, 74, 0
2, 20040, Note_on_c, 0, 76, 100
2, 20160, Note_on_c, 0, 76, 0
2, 20160, Note_on_c, 0, 74, 100
2, 20280, Note_on_c, 0, 74, 0
2, 20280, Note_on_c, 0, 73, 100
2, 20400, Note_on_c, 0, 73, 0
2, 20400, Note_on_c, 0, 71, 100
2, 20520, Note_on_c, 0, 71, 0
2, 20520, Note_on_c, 0, 69, 100
2, 20640, Note_on_c, 0, 69, 0
2, 20640, Note_on_c, 0, 79, 100
2, 20880, Note_on_c, 0, 79, 0
2, 20880, Note_on_c, 0, 71, 100
2, 21360, Note_on_c, 0, 71, 0
2, 21360, Note_on_c, 0, 73, 100
2, 21600, Note_on_c, 0, 73, 0
2, 21600, Note_on_c, 0, 73, 100
2, 21720, Note_on_c, 0, 73, 0
2, 21720, Note_on_c, 0, 74, 100
2, 21900, Note_on_c, 0, 74, 0
2, 21900, Note_on_c, 0, 76, 100
2, 21960, Note_on_c, 0, 76, 0
2, 21960, Note_on_c, 0, 74, 100
2, 22020, Note_on_c, 0, 74, 0
2, 22020, Note_on_c, 0, 73, 100
2, 22080, Note_on_c, 0, 73, 0
2, 22080, Note_on_c, 0, 73, 100
2, 22320, Note_on_c, 0, 73, 0
2, 22320, Note_on_c, 0, 74, 100
2, 23040, Note_on_c, 0, 74, 0
2, 23040, Note_on_c, 0, 79, 100
2, 23520, Note_on_c, 0, 79, 0
2, 23520, Note_on_c, 0, 79, 100
2, 24000, Note_on_c, 0, 79, 0
2, 24000, Note_on_c, 0, 81, 100
2, 24060, Note_on_c, 0, 81, 0
2, 24060, Note_on_c, 0, 79, 100
2, 24120, Note_on_c, 0, 79, 0
2, 24120, Note_on_c, 0, 81, 100
2, 24360, Note_on_c, 0, 81, 0
2, 24360, Note_on_c, 0, 83, 100
2, 24480, Note_on_c, 0, 83, 0
2, 24480, Note_on_c, 0, 81, 100
2, 24720, Note_on_c, 0, 81, 0
2, 24720, Note_on_c, 0, 79, 100
2, 24840, Note_on_c, 0, 79, 0
2, 24840, Note_on_c, 0, 78, 100
2, 24960, Note_on_c, 0, 78, 0
2, 24960, Note_on_c, 0, 76, 100
2, 25200, Note_on_c, 0, 76, 0
2, 25200, Note_on_c, 0, 74, 100
2, 25920, Note_on_c, 0, 74, 0
2, 25920, Note_on_c, 0, 67, 100
2, 25980, Note_on_c, 0, 67, 0
2, 25980, Note_on_c, 0, 66, 100
2, 26040, Note_on_c, 0, 66, 0
2, 26040, Note_on_c, 0, 67, 100
2, 26400, Note_on_c, 0, 67, 0
2, 26400, Note_on_c, 0, 69, 100
2, 26460, Note_on_c, 0, 69, 0
2, 26460, Note_on_c, 0, 67, 100
2, 26520, Note_on_c, 0, 67, 0
2, 26520, Note_on_c, 0, 66, 100
2, 26580, Note_on_c, 0, 66, 0
2, 26580, Note_on_c, 0, 67, 100
2, 26640, Note_on_c, 0, 67, 0
2, 26640, Note_on_c, 0, 69, 100
2, 26700, Note_on_c, 0, 69, 0
2, 26700, Note_on_c, 0, 67, 100
2, 26760, Note_on_c, 0, 67, 0
2, 26760, Note_on_c, 0, 69, 100
2, 26820, Note_on_c, 0, 69, 0
2, 26820, Note_on_c, 0, 67, 100
2, 26880, Note_on_c, 0, 67, 0
2, 26880, Note_on_c, 0, 69, 100
2, 26920, Note_on_c, 0, 69, 0
2, 26920, Note_on_c, 0, 67, 100
2, 26960, Note_on_c, 0, 67, 0
2, 26960, Note_on_c, 0, 69, 100
2, 27000, Note_on_c, 0, 69, 0
2, 27000, Note_on_c, 0, 67, 100
2, 27040, Note_on_c, 0, 67, 0
2, 27040, Note_on_c, 0, 69, 100
2, 27080, Note_on_c, 0, 69, 0
2, 27081, Note_on_c, 0, 67, 100
2, 27120, Note_on_c, 0, 66, 100
2, 27121, Note_on_c, 0, 67, 0
2, 27240, Note_on_c, 0, 66, 0
2, 27240, Note_on_c, 0, 67, 100
2, 27360, Note_on_c, 0, 67, 0
2, 27360, Note_on_c, 0, 69, 100
2, 27420, Note_on_c, 0, 69, 0
2, 27420, Note_on_c, 0, 67, 100
2, 27480, Note_on_c, 0, 67, 0
2, 27480, Note_on_c, 0, 66, 100
2, 27600, Note_on_c, 0, 66, 0
2, 27600, Note_on_c, 0, 67, 100
2, 27660, Note_on_c, 0, 67, 0
2, 27660, Note_on_c, 0, 66, 100
2, 27720, Note_on_c, 0, 66, 0
2, 27720, Note_on_c, 0, 64, 100
2, 27840, Note_on_c, 0, 64, 0
2, 27840, Note_on_c, 0, 64, 100
2, 28080, Note_on_c, 0, 64, 0
2, 28080, Note_on_c, 0, 62, 100
2, 28800, Note_on_c, 0, 62, 0
2, 28800, Note_on_c, 0, 74, 100
2, 29280, Note_on_c, 0, 74, 0
2, 29280, Note_on_c, 0, 74, 100
2, 29760, Note_on_c, 0, 74, 0
2, 29760, Note_on_c, 0, 76, 100
2, 29820, Note_on_c, 0, 76, 0
2, 29820, Note_on_c, 0, 74, 100
2, 29880, Note_on_c, 0, 74, 0
2, 29880, Note_on_c, 0, 76, 100
2, 30120, Note_on_c, 0, 76, 0
2, 30120, Note_on_c, 0, 77, 100
2, 30240, Note_on_c, 0, 77, 0
2, 30240, Note_on_c, 0, 76, 100
2, 30480, Note_on_c, 0, 76, 0
2, 30480, Note_on_c, 0, 74, 100
2, 30600, Note_on_c, 0, 74, 0
2, 30600, Note_on_c, 0, 72, 100
2, 30720, Note_on_c, 0, 72, 0
2, 30720, Note_on_c, 0, 71, 100
2, 30960, Note_on_c, 0, 71, 0
2, 30960, Note_on_c, 0, 69, 100
2, 31440, Note_on_c, 0, 69, 0
2, 31440, Note_on_c, 0, 79, 100
2, 31500, Note_on_c, 0, 79, 0
2, 31500, Note_on_c, 0, 78, 100
2, 31560, Note_on_c, 0, 78, 0
2, 31560, Note_on_c, 0, 76, 100
2, 31620, Note_on_c, 0, 76, 0
2, 31620, Note_on_c, 0, 78, 100
2, 31680, Note_on_c, 0, 78, 0
2, 31680, Note_on_c, 0, 79, 100
2, 31740, Note_on_c, 0, 79, 0
2, 31740, Note_on_c, 0, 78, 100
2, 31920, Note_on_c, 0, 78, 0
2, 31920, Note_on_c, 0, 81, 100
2, 31980, Note_on_c, 0, 81, 0
2, 31980, Note_on_c, 0, 79, 100
2, 32160, Note_on_c, 0, 79, 0
2, 32160, Note_on_c, 0, 78, 100
2, 32220, Note_on_c, 0, 78, 0
2, 32220, Note_on_c, 0, 76, 100
2, 32400, Note_on_c, 0, 76, 0
2, 32400, Note_on_c, 0, 74, 100
2, 32460, Note_on_c, 0, 74, 0
2, 32460, Note_on_c, 0, 72, 100
2, 32640, Note_on_c, 0, 72, 0
2, 32640, Note_on_c, 0, 72, 100
2, 32760, Note_on_c, 0, 72, 0
2, 32760, Note_on_c, 0, 81, 100
2, 33000, Note_on_c, 0, 81, 0
2, 33000, Note_on_c, 0, 72, 100
2, 33120, Note_on_c, 0, 72, 0
2, 33120, Note_on_c, 0, 71, 100
2, 33180, Note_on_c, 0, 71, 0
2, 33180, Note_on_c, 0, 67, 100
2, 33480, Note_on_c, 0, 67, 0
2, 33480, Note_on_c, 0, 66, 100
2, 33600, Note_on_c, 0, 66, 0
2, 33600, Note_on_c, 0, 66, 100
2, 33840, Note_on_c, 0, 66, 0
2, 33840, Note_on_c, 0, 67, 100
2, 33900, Note_on_c, 0, 67, 0
2, 33900, Note_on_c, 0, 66, 100
2, 33960, Note_on_c, 0, 66, 0
2, 33960, Note_on_c, 0, 67, 100
2, 34560, Note_on_c, 0, 67, 0
2, 34560, Note_on_c, 0, 71, 100
2, 35040, Note_on_c, 0, 71, 0
2, 35040, Note_on_c, 0, 71, 100
2, 35520, Note_on_c, 0, 71, 0
2, 35520, Note_on_c, 0, 73, 100
2, 35580, Note_on_c, 0, 73, 0
2, 35580, Note_on_c, 0, 71, 100
2, 35640, Note_on_c, 0, 71, 0
2, 35640, Note_on_c, 0, 73, 100
2, 35880, Note_on_c, 0, 73, 0
2, 35880, Note_on_c, 0, 74, 100
2, 36000, Note_on_c, 0, 74, 0
2, 36000, Note_on_c, 0, 74, 100
2, 36120, Note_on_c, 0, 74, 0
2, 36120, Note_on_c, 0, 73, 100
2, 36240, Note_on_c, 0, 73, 0
2, 36240, Note_on_c, 0, 71, 100
2, 36360, Note_on_c, 0, 71, 0
2, 36360, Note_on_c, 0, 69, 100
2, 37350, Note_on_c, 0, 69, 0
2, 37350, Note_on_c, 0, 67, 100
2, 37380, Note_on_c, 0, 71, 100
2, 37410, Note_on_c, 0, 76, 100
2, 37440, Note_on_c, 0, 79, 100
2, 37830, Note_on_c, 0, 67, 0
2, 37860, Note_on_c, 0, 71, 0
2, 37890, Note_on_c, 0, 76, 0
2, 37920, Note_on_c, 0, 79, 0
2, 37920, Note_on_c, 0, 81, 100
2, 37980, Note_on_c, 0, 81, 0
2, 37980, Note_on_c, 0, 79, 100
2, 38040, Note_on_c, 0, 79, 0
2, 38040, Note_on_c, 0, 78, 100
2, 38100, Note_on_c, 0, 78, 0
2, 38100, Note_on_c, 0, 79, 100
2, 38160, Note_on_c, 0, 79, 0
2, 38160, Note_on_c, 0, 81, 100
2, 38220, Note_on_c, 0, 81, 0
2, 38220, Note_on_c, 0, 79, 100
2, 38280, Note_on_c, 0, 79, 0
2, 38280, Note_on_c, 0, 81, 100
2, 38340, Note_on_c, 0, 81, 0
2, 38340, Note_on_c, 0, 79, 100
2, 38400, Note_on_c, 0, 79, 0
2, 38400, Note_on_c, 0, 81, 100
2, 38440, Note_on_c, 0, 81, 0
2, 38440, Note_on_c, 0, 79, 100
2, 38480, Note_on_c, 0, 79, 0
2, 38480, Note_on_c, 0, 81, 100
2, 38520, Note_on_c, 0, 81, 0
2, 38520, Note_on_c, 0, 79, 100
2, 38560, Note_on_c, 0, 79, 0
2, 38560, Note_on_c, 0, 81, 100
2, 38600, Note_on_c, 0, 81, 0
2, 38600, Note_on_c, 0, 79, 100
2, 38640, Note_on_c, 0, 79, 0
2, 38640, Note_on_c, 0, 78, 100
2, 38760, Note_on_c, 0, 78, 0
2, 38760, Note_on_c, 0, 79, 100
2, 38880, Note_on_c, 0, 79, 0
2, 38880, Note_on_c, 0, 79, 100
2, 39120, Note_on_c, 0, 79, 0
2, 39120, Note_on_c, 0, 78, 100
2, 39240, Note_on_c, 0, 78, 0
2, 39240, Note_on_c, 0, 76, 100
2, 39360, Note_on_c, 0, 76, 0
2, 39360, Note_on_c, 0, 74, 100
2, 39420, Note_on_c, 0, 74, 0
2, 39420, Note_on_c, 0, 73, 100
2, 39480, Note_on_c, 0, 73, 0
2, 39480, Note_on_c, 0, 71, 100
2, 39540, Note_on_c, 0, 71, 0
2, 39540, Note_on_c, 0, 73, 100
2, 39600, Note_on_c, 0, 73, 0
2, 39600, Note_on_c, 0, 74, 100
2, 39660, Note_on_c, 0, 74, 0
2, 39660, Note_on_c, 0, 73, 100
2, 39720, Note_on_c, 0, 73, 0
2, 39720, Note_on_c, 0, 74, 100
2, 39760, Note_on_c, 0, 74, 0
2, 39760, Note_on_c, 0, 73, 100
2, 39800, Note_on_c, 0, 73, 0
2, 39800, Note_on_c, 0, 74, 100
2, 39840, Note_on_c, 0, 74, 0
2, 39840, Note_on_c, 0, 73, 100
2, 40080, Note_on_c, 0, 73, 0
2, 40080, Note_on_c, 0, 76, 100
2, 40320, Note_on_c, 0, 76, 0
2, 40320, Note_on_c, 0, 81, 100
2, 40440, Note_on_c, 0, 81, 0
2, 40440, Note_on_c, 0, 79, 100
2, 40560, Note_on_c, 0, 79, 0
2, 40560, Note_on_c, 0, 78, 100
2, 40680, Note_on_c, 0, 78, 0
2, 40680, Note_on_c, 0, 76, 100
2, 40800, Note_on_c, 0, 76, 0
2, 40800, Note_on_c, 0, 74, 100
2, 41040, Note_on_c, 0, 74, 0
2, 41040, Note_on_c, 0, 69, 100
2, 41580, Note_on_c, 0, 69, 0
2, 41580, Note_on_c, 0, 71, 100
2, 41640, Note_on_c, 0, 71, 0
2, 41640, Note_on_c, 0, 72, 100
2, 41760, Note_on_c, 0, 72, 0
2, 41760, Note_on_c, 0, 71, 100
2, 41880, Note_on_c, 0, 71, 0
2, 41880, Note_on_c, 0, 69, 100
2, 42000, Note_on_c, 0, 69, 0
2, 42000, Note_on_c, 0, 67, 100
2, 42120, Note_on_c, 0, 67, 0
2, 42120, Note_on_c, 0, 66, 100
2, 42240, Note_on_c, 0, 66, 0
2, 42240, Note_on_c, 0, 64, 100
2, 42480, Note_on_c, 0, 64, 0
2, 42480, Note_on_c, 0, 74, 100
2, 42600, Note_on_c, 0, 74, 0
2, 42600, Note_on_c, 0, 73, 100
2, 43020, Note_on_c, 0, 73, 0
2, 43020, Note_on_c, 0, 74, 100
2, 43080, Note_on_c, 0, 74, 0
2, 43080, Note_on_c, 0, 76, 100
2, 43200, Note_on_c, 0, 76, 0
2, 43200, Note_on_c, 0, 74, 100
2, 43320, Note_on_c, 0, 74, 0
2, 43320, Note_on_c, 0, 73, 100
2, 43440, Note_on_c, 0, 73, 0
2, 43440, Note_on_c, 0, 71, 100
2, 43560, Note_on_c, 0, 71, 0
2, 43560, Note_on_c, 0, 69, 100
2, 43680, Note_on_c, 0, 69, 0
2, 43680, Note_on_c, 0, 79, 100
2, 43920, Note_on_c, 0, 79, 0
2, 43920, Note_on_c, 0, 71, 100
2, 44400, Note_on_c, 0, 71, 0
2, 44400, Note_on_c, 0, 73, 100
2, 44640, Note_on_c, 0, 73, 0
2, 44640, Note_on_c, 0, 73, 100
2, 44760, Note_on_c, 0, 73, 0
2, 44760, Note_on_c, 0, 74, 100
2, 44940, Note_on_c, 0, 74, 0
2, 44940, Note_on_c, 0, 76, 100
2, 45000, Note_on_c, 0, 76, 0
2, 45000, Note_on_c, 0, 74, 100
2, 45060, Note_on_c, 0, 74, 0
2, 45060, Note_on_c, 0, 73, 100
2, 45120, Note_on_c, 0, 73, 0
2, 45120, Note_on_c, 0, 73, 100
2, 45360, Note_on_c, 0, 73, 0
2, 45360, Note_on_c, 0, 74, 100
2, 46080, Note_on_c, 0, 74, 0
2, 46080, Note_on_c, 0, 69, 100
2, 46140, Note_on_c, 0, 69, 0
2, 46140, Note_on_c, 0, 67, 100
2, 46200, Note_on_c, 0, 67, 0
2, 46200, Note_on_c, 0, 69, 100
2, 46560, Note_on_c, 0, 69, 0
2, 46560, Note_on_c, 0, 71, 100
2, 46620, Note_on_c, 0, 71, 0
2, 46620, Note_on_c, 0, 69, 100
2, 46680, Note_on_c, 0, 69, 0
2, 46680, Note_on_c, 0, 67, 100
2, 46740, Note_on_c, 0, 67, 0
2, 46740, Note_on_c, 0, 69, 100
2, 46800, Note_on_c, 0, 69, 0
2, 46800, Note_on_c, 0, 71, 100
2, 46840, Note_on_c, 0, 71, 0
2, 46840, Note_on_c, 0, 69, 100
2, 46880, Note_on_c, 0, 69, 0
2, 46880, Note_on_c, 0, 71, 100
2, 46920, Note_on_c, 0, 71, 0
2, 46920, Note_on_c, 0, 69, 100
2, 46960, Note_on_c, 0, 69, 0
2, 46960, Note_on_c, 0, 71, 100
2, 47000, Note_on_c, 0, 71, 0
2, 47001, Note_on_c, 0, 69, 100
2, 47040, Note_on_c, 0, 71, 100
2, 47041, Note_on_c, 0, 69, 0
2, 47080, Note_on_c, 0, 71, 0
2, 47080, Note_on_c, 0, 69, 100
2, 47120, Note_on_c, 0, 69, 0
2, 47120, Note_on_c, 0, 71, 100
2, 47160, Note_on_c, 0, 71, 0
2, 47160, Note_on_c, 0, 69, 100
2, 47220, Note_on_c, 0, 69, 0
2, 47220, Note_on_c, 0, 71, 100
2, 47280, Note_on_c, 0, 71, 0
2, 47280, Note_on_c, 0, 72, 100
2, 47340, Note_on_c, 0, 72, 0
2, 47340, Note_on_c, 0, 74, 100
2, 47400, Note_on_c, 0, 74, 0
2, 47400, Note_on_c, 0, 76, 100
2, 47520, Note_on_c, 0, 76, 0
2, 47520, Note_on_c, 0, 76, 100
2, 47640, Note_on_c, 0, 76, 0
2, 47640, Note_on_c, 0, 74, 100
2, 47760, Note_on_c, 0, 74, 0
2, 47760, Note_on_c, 0, 72, 100
2, 47880, Note_on_c, 0, 72, 0
2, 47880, Note_on_c, 0, 71, 100
2, 48000, Note_on_c, 0, 71, 0
2, 48000, Note_on_c, 0, 69, 100
2, 48240, Note_on_c, 0, 69, 0
2, 48240, Note_on_c, 0, 67, 100
2, 48720, Note_on_c, 0, 67, 0
2, 48720, Note_on_c, 0, 79, 100
2, 48960, Note_on_c, 0, 79, 0
2, 48960, Note_on_c, 0, 78, 100
2, 49080, Note_on_c, 0, 78, 0
2, 49080, Note_on_c, 0, 76, 100
2, 49320, Note_on_c, 0, 76, 0
2, 49320, Note_on_c, 0, 78, 100
2, 49380, Note_on_c, 0, 78, 0
2, 49380, Note_on_c, 0, 75, 100
2, 49440, Note_on_c, 0, 75, 0
2, 49440, Note_on_c, 0, 75, 100
2, 49680, Note_on_c, 0, 75, 0
2, 49680, Note_on_c, 0, 76, 100
2, 49710, Note_on_c, 0, 76, 0
2, 49710, Note_on_c, 0, 75, 100
2, 49740, Note_on_c, 0, 75, 0
2, 49740, Note_on_c, 0, 76, 100
2, 50160, Note_on_c, 0, 76, 0
2, 50160, Note_on_c, 0, 81, 100
2, 50220, Note_on_c, 0, 81, 0
2, 50220, Note_on_c, 0, 83, 100
2, 50280, Note_on_c, 0, 83, 0
2, 50280, Note_on_c, 0, 81, 100
2, 50340, Note_on_c, 0, 81, 0
2, 50340, Note_on_c, 0, 79, 100
2, 50400, Note_on_c, 0, 79, 0
2, 50400, Note_on_c, 0, 81, 100
2, 50760, Note_on_c, 0, 81, 0
2, 50760, Note_on_c, 0, 78, 100
2, 50880, Note_on_c, 0, 78, 0
2, 50880, Note_on_c, 0, 76, 100
2, 51120, Note_on_c, 0, 76, 0
2, 51120, Note_on_c, 0, 75, 100
2, 51600, Note_on_c, 0, 75, 0
2, 51600, Note_on_c, 0, 71, 100
2, 51840, Note_on_c, 0, 71, 0
2, 51840, Note_on_c, 0, 76, 100
2, 51900, Note_on_c, 0, 76, 0
2, 51900, Note_on_c, 0, 78, 100
2, 51960, Note_on_c, 0, 78, 0
2, 51960, Note_on_c, 0, 79, 100
2, 52200, Note_on_c, 0, 79, 0
2, 52200, Note_on_c, 0, 78, 100
2, 52320, Note_on_c, 0, 78, 0
2, 52320, Note_on_c, 0, 78, 100
2, 52560, Note_on_c, 0, 78, 0
2, 52560, Note_on_c, 0, 76, 100
2, 52920, Note_on_c, 0, 76, 0
2, 52920, Note_on_c, 0, 71, 100
2, 53040, Note_on_c, 0, 71, 0
2, 53040, Note_on_c, 0, 72, 100
2, 53100, Note_on_c, 0, 72, 0
2, 53100, Note_on_c, 0, 71, 100
2, 53160, Note_on_c, 0, 71, 0
2, 53160, Note_on_c, 0, 69, 100
2, 53220, Note_on_c, 0, 69, 0
2, 53220, Note_on_c, 0, 71, 100
2, 53280, Note_on_c, 0, 71, 0
2, 53280, Note_on_c, 0, 79, 100
2, 53340, Note_on_c, 0, 79, 0
2, 53340, Note_on_c, 0, 76, 100
2, 53520, Note_on_c, 0, 76, 0
2, 53520, Note_on_c, 0, 78, 100
2, 53580, Note_on_c, 0, 78, 0
2, 53580, Note_on_c, 0, 75, 100
2, 53760, Note_on_c, 0, 75, 0
2, 53760, Note_on_c, 0, 75, 100
2, 53880, Note_on_c, 0, 75, 0
2, 53880, Note_on_c, 0, 76, 100
2, 54360, Note_on_c, 0, 76, 0
2, 54360, Note_on_c, 0, 67, 100
2, 54480, Note_on_c, 0, 67, 0
2, 54480, Note_on_c, 0, 66, 100
2, 54600, Note_on_c, 0, 66, 0
2, 54600, Note_on_c, 0, 64, 100
2, 54720, Note_on_c, 0, 64, 0
2, 54720, Note_on_c, 0, 66, 100
2, 55080, Note_on_c, 0, 66, 0
2, 55080, Note_on_c, 0, 76, 100
2, 55200, Note_on_c, 0, 76, 0
2, 55200, Note_on_c, 0, 76, 100
2, 55320, Note_on_c, 0, 76, 0
2, 55320, Note_on_c, 0, 75, 100
2, 55440, Note_on_c, 0, 75, 0
2, 55440, Note_on_c, 0, 78, 100
2, 55500, Note_on_c, 0, 78, 0
2, 55500, Note_on_c, 0, 79, 100
2, 55560, Note_on_c, 0, 79, 0
2, 55560, Note_on_c, 0, 81, 100
2, 55680, Note_on_c, 0, 81, 0
2, 55680, Note_on_c, 0, 79, 100
2, 55920, Note_on_c, 0, 79, 0
2, 55920, Note_on_c, 0, 78, 100
2, 56160, Note_on_c, 0, 78, 0
2, 56160, Note_on_c, 0, 78, 100
2, 56280, Note_on_c, 0, 78, 0
2, 56280, Note_on_c, 0, 76, 100
2, 56520, Note_on_c, 0, 76, 0
2, 56520, Note_on_c, 0, 78, 100
2, 56580, Note_on_c, 0, 78, 0
2, 56580, Note_on_c, 0, 75, 100
2, 56640, Note_on_c, 0, 75, 0
2, 56640, Note_on_c, 0, 75, 100
2, 56880, Note_on_c, 0, 75, 0
2, 56880, Note_on_c, 0, 76, 100
2, 57600, Note_on_c, 0, 76, 0
2, 57600, Note_on_c, 0, 76, 100
2, 57840, Note_on_c, 0, 76, 0
2, 57840, Note_on_c, 0, 74, 100
2, 57960, Note_on_c, 0, 74, 0
2, 57960, Note_on_c, 0, 72, 100
2, 58080, Note_on_c, 0, 72, 0
2, 58080, Note_on_c, 0, 71, 100
2, 58320, Note_on_c, 0, 71, 0
2, 58320, Note_on_c, 0, 69, 100
2, 58800, Note_on_c, 0, 69, 0
2, 58800, Note_on_c, 0, 71, 100
2, 58920, Note_on_c, 0, 71, 0
2, 58920, Note_on_c, 0, 72, 100
2, 59040, Note_on_c, 0, 72, 0
2, 59040, Note_on_c, 0, 74, 100
2, 59100, Note_on_c, 0, 74, 0
2, 59100, Note_on_c, 0, 72, 100
2, 59160, Note_on_c, 0, 72, 0
2, 59160, Note_on_c, 0, 71, 100
2, 59280, Note_on_c, 0, 71, 0
2, 59280, Note_on_c, 0, 72, 100
2, 59340, Note_on_c, 0, 72, 0
2, 59340, Note_on_c, 0, 71, 100
2, 59400, Note_on_c, 0, 71, 0
2, 59400, Note_on_c, 0, 69, 100
2, 59520, Note_on_c, 0, 69, 0
2, 59520, Note_on_c, 0, 69, 100
2, 59760, Note_on_c, 0, 69, 0
2, 59760, Note_on_c, 0, 67, 100
2, 60240, Note_on_c, 0, 67, 0
2, 60240, Note_on_c, 0, 69, 100
2, 60360, Note_on_c, 0, 69, 0
2, 60360, Note_on_c, 0, 71, 100
2, 60480, Note_on_c, 0, 71, 0
2, 60480, Note_on_c, 0, 72, 100
2, 60600, Note_on_c, 0, 72, 0
2, 60600, Note_on_c, 0, 74, 100
2, 60720, Note_on_c, 0, 74, 0
2, 60720, Note_on_c, 0, 72, 100
2, 60840, Note_on_c, 0, 72, 0
2, 60840, Note_on_c, 0, 71, 100
2, 60960, Note_on_c, 0, 71, 0
2, 60960, Note_on_c, 0, 72, 100
2, 61080, Note_on_c, 0, 72, 0
2, 61080, Note_on_c, 0, 69, 100
2, 61200, Note_on_c, 0, 69, 0
2, 61200, Note_on_c, 0, 64, 100
2, 61320, Note_on_c, 0, 64, 0
2, 61320, Note_on_c, 0, 69, 100
2, 61440, Note_on_c, 0, 69, 0
2, 61440, Note_on_c, 0, 72, 100
2, 62040, Note_on_c, 0, 72, 0
2, 62040, Note_on_c, 0, 74, 100
2, 62160, Note_on_c, 0, 74, 0
2, 62160, Note_on_c, 0, 72, 100
2, 62280, Note_on_c, 0, 72, 0
2, 62280, Note_on_c, 0, 71, 100
2, 62400, Note_on_c, 0, 71, 0
2, 62400, Note_on_c, 0, 72, 100
2, 62520, Note_on_c, 0, 72, 0
2, 62520, Note_on_c, 0, 69, 100
2, 62640, Note_on_c, 0, 69, 0
2, 62640, Note_on_c, 0, 66, 100
2, 62760, Note_on_c, 0, 66, 0
2, 62760, Note_on_c, 0, 69, 100
2, 62880, Note_on_c, 0, 69, 0
2, 62880, Note_on_c, 0, 72, 100
2, 63000, Note_on_c, 0, 72, 0
2, 63000, Note_on_c, 0, 76, 100
2, 63120, Note_on_c, 0, 76, 0
2, 63120, Note_on_c, 0, 74, 100
2, 63240, Note_on_c, 0, 74, 0
2, 63240, Note_on_c, 0, 72, 100
2, 63360, Note_on_c, 0, 72, 0
2, 63360, Note_on_c, 0, 71, 100
2, 63480, Note_on_c, 0, 71, 0
2, 63480, Note_on_c, 0, 72, 100
2, 63600, Note_on_c, 0, 72, 0
2, 63600, Note_on_c, 0, 71, 100
2, 63720, Note_on_c, 0, 71, 0
2, 63720, Note_on_c, 0, 69, 100
2, 63840, Note_on_c, 0, 69, 0
2, 63840, Note_on_c, 0, 71, 100
2, 63960, Note_on_c, 0, 71, 0
2, 63960, Note_on_c, 0, 67, 100
2, 64080, Note_on_c, 0, 67, 0
2, 64080, Note_on_c, 0, 62, 100
2, 64200, Note_on_c, 0, 62, 0
2, 64200, Note_on_c, 0, 67, 100
2, 64320, Note_on_c, 0, 67, 0
2, 64320, Note_on_c, 0, 71, 100
2, 64440, Note_on_c, 0, 71, 0
2, 64440, Note_on_c, 0, 67, 100
2, 64560, Note_on_c, 0, 67, 0
2, 64560, Note_on_c, 0, 72, 100
2, 64680, Note_on_c, 0, 72, 0
2, 64680, Note_on_c, 0, 74, 100
2, 64800, Note_on_c, 0, 74, 0
2, 64800, Note_on_c, 0, 76, 100
2, 64920, Note_on_c, 0, 76, 0
2, 64920, Note_on_c, 0, 77, 100
2, 65040, Note_on_c, 0, 77, 0
2, 65040, Note_on_c, 0, 76, 100
2, 65160, Note_on_c, 0, 76, 0
2, 65160, Note_on_c, 0, 74, 100
2, 65280, Note_on_c, 0, 74, 0
2, 65280, Note_on_c, 0, 76, 100
2, 65400, Note_on_c, 0, 76, 0
2, 65400, Note_on_c, 0, 72, 100
2, 65520, Note_on_c, 0, 72, 0
2, 65520, Note_on_c, 0, 67, 100
2, 65640, Note_on_c, 0, 67, 0
2, 65640, Note_on_c, 0, 72, 100
2, 65760, Note_on_c, 0, 72, 0
2, 65760, Note_on_c, 0, 76, 100
2, 65880, Note_on_c, 0, 76, 0
2, 65880, Note_on_c, 0, 72, 100
2, 66000, Note_on_c, 0, 72, 0
2, 66000, Note_on_c, 0, 78, 100
2, 66120, Note_on_c, 0, 78, 0
2, 66120, Note_on_c, 0, 79, 100
2, 66240, Note_on_c, 0, 79, 0
2, 66240, Note_on_c, 0, 81, 100
2, 66360, Note_on_c, 0, 81, 0
2, 66360, Note_on_c, 0, 72, 100
2, 66480, Note_on_c, 0, 72, 0
2, 66480, Note_on_c, 0, 71, 100
2, 66600, Note_on_c, 0, 71, 0
2, 66600, Note_on_c, 0, 69, 100
2, 66720, Note_on_c, 0, 69, 0
2, 66720, Note_on_c, 0, 71, 100
2, 66840, Note_on_c, 0, 71, 0
2, 66840, Note_on_c, 0, 72, 100
2, 66960, Note_on_c, 0, 72, 0
2, 66960, Note_on_c, 0, 74, 100
2, 67080, Note_on_c, 0, 74, 0
2, 67080, Note_on_c, 0, 67, 100
2, 67200, Note_on_c, 0, 67, 0
2, 67200, Note_on_c, 0, 71, 100
2, 67320, Note_on_c, 0, 71, 0
2, 67320, Note_on_c, 0, 69, 100
2, 67440, Note_on_c, 0, 69, 0
2, 67440, Note_on_c, 0, 67, 100
2, 67560, Note_on_c, 0, 67, 0
2, 67560, Note_on_c, 0, 66, 100
2, 67680, Note_on_c, 0, 66, 0
2, 67680, Note_on_c, 0, 67, 100
2, 68280, Note_on_c, 0, 67, 0
2, 68280, Note_on_c, 0, 62, 100
2, 68400, Note_on_c, 0, 62, 0
2, 68400, Note_on_c, 0, 67, 100
2, 68520, Note_on_c, 0, 67, 0
2, 68520, Note_on_c, 0, 66, 100
2, 68640, Note_on_c, 0, 66, 0
2, 68640, Note_on_c, 0, 66, 100
2, 68760, Note_on_c, 0, 66, 0
2, 68760, Note_on_c, 0, 67, 100
2, 69120, Note_on_c, 0, 67, 0
2, 69120, Note_on_c, 0, 69, 100
2, 69180, Note_on_c, 0, 69, 0
2, 69180, Note_on_c, 0, 67, 100
2, 69240, Note_on_c, 0, 67, 0
2, 69240, Note_on_c, 0, 69, 100
2, 69600, Note_on_c, 0, 69, 0
2, 69600, Note_on_c, 0, 71, 100
2, 69660, Note_on_c, 0, 71, 0
2, 69660, Note_on_c, 0, 69, 100
2, 69720, Note_on_c, 0, 69, 0
2, 69720, Note_on_c, 0, 67, 100
2, 69780, Note_on_c, 0, 67, 0
2, 69780, Note_on_c, 0, 69, 100
2, 69840, Note_on_c, 0, 69, 0
2, 69840, Note_on_c, 0, 71, 100
2, 69880, Note_on_c, 0, 71, 0
2, 69880, Note_on_c, 0, 69, 100
2, 69920, Note_on_c, 0, 69, 0
2, 69920, Note_on_c, 0, 71, 100
2, 69960, Note_on_c, 0, 71, 0
2, 69960, Note_on_c, 0, 69, 100
2, 70000, Note_on_c, 0, 69, 0
2, 70000, Note_on_c, 0, 71, 100
2, 70040, Note_on_c, 0, 71, 0
2, 70041, Note_on_c, 0, 69, 100
2, 70080, Note_on_c, 0, 71, 100
2, 70081, Note_on_c, 0, 69, 0
2, 70120, Note_on_c, 0, 71, 0
2, 70120, Note_on_c, 0, 69, 100
2, 70160, Note_on_c, 0, 69, 0
2, 70160, Note_on_c, 0, 71, 100
2, 70200, Note_on_c, 0, 71, 0
2, 70200, Note_on_c, 0, 69, 100
2, 70260, Note_on_c, 0, 69, 0
2, 70260, Note_on_c, 0, 71, 100
2, 70320, Note_on_c, 0, 71, 0
2, 70320, Note_on_c, 0, 72, 100
2, 70380, Note_on_c, 0, 72, 0
2, 70380, Note_on_c, 0, 74, 100
2, 70440, Note_on_c, 0, 74, 0
2, 70440, Note_on_c, 0, 76, 100
2, 70560, Note_on_c, 0, 76, 0
2, 70560, Note_on_c, 0, 76, 100
2, 70680, Note_on_c, 0, 76, 0
2, 70680, Note_on_c, 0, 74, 100
2, 70800, Note_on_c, 0, 74, 0
2, 70800, Note_on_c, 0, 72, 100
2, 70920, Note_on_c, 0, 72, 0
2, 70920, Note_on_c, 0, 71, 100
2, 71040, Note_on_c, 0, 71, 0
2, 71040, Note_on_c, 0, 69, 100
2, 71280, Note_on_c, 0, 69, 0
2, 71280, Note_on_c, 0, 67, 100
2, 71760, Note_on_c, 0, 67, 0
2, 71760, Note_on_c, 0, 79, 100
2, 72000, Note_on_c, 0, 79, 0
2, 72000, Note_on_c, 0, 78, 100
2, 72120, Note_on_c, 0, 78, 0
2, 72120, Note_on_c, 0, 76, 100
2, 72360, Note_on_c, 0, 76, 0
2, 72360, Note_on_c, 0, 78, 100
2, 72420, Note_on_c, 0, 78, 0
2, 72420, Note_on_c, 0, 75, 100
2, 72480, Note_on_c, 0, 75, 0
2, 72480, Note_on_c, 0, 75, 100
2, 72720, Note_on_c, 0, 75, 0
2, 72720, Note_on_c, 0, 76, 100
2, 72750, Note_on_c, 0, 76, 0
2, 72750, Note_on_c, 0, 75, 100
2, 72780, Note_on_c, 0, 75, 0
2, 72780, Note_on_c, 0, 76, 100
2, 73200, Note_on_c, 0, 76, 0
2, 73200, Note_on_c, 0, 81, 100
2, 73260, Note_on_c, 0, 81, 0
2, 73260, Note_on_c, 0, 83, 100
2, 73320, Note_on_c, 0, 83, 0
2, 73320, Note_on_c, 0, 81, 100
2, 73380, Note_on_c, 0, 81, 0
2, 73380, Note_on_c, 0, 79, 100
2, 73440, Note_on_c, 0, 79, 0
2, 73440, Note_on_c, 0, 81, 100
2, 73800, Note_on_c, 0, 81, 0
2, 73800, Note_on_c, 0, 78, 100
2, 73920, Note_on_c, 0, 78, 0
2, 73920, Note_on_c, 0, 76, 100
2, 74160, Note_on_c, 0, 76, 0
2, 74160, Note_on_c, 0, 75, 100
2, 74640, Note_on_c, 0, 75, 0
2, 74640, Note_on_c, 0, 71, 100
2, 74880, Note_on_c, 0, 71, 0
2, 74880, Note_on_c, 0, 76, 100
2, 74940, Note_on_c, 0, 76, 0
2, 74940, Note_on_c, 0, 78, 100
2, 75000, Note_on_c, 0, 78, 0
2, 75000, Note_on_c, 0, 79, 100
2, 75240, Note_on_c, 0, 79, 0
2, 75240, Note_on_c, 0, 78, 100
2, 75360, Note_on_c, 0, 78, 0
2, 75360, Note_on_c, 0, 78, 100
2, 75600, Note_on_c, 0, 78, 0
2, 75600, Note_on_c, 0, 76, 100
2, 75960, Note_on_c, 0, 76, 0
2, 75960, Note_on_c, 0, 71, 100
2, 76080, Note_on_c, 0, 71, 0
2, 76080, Note_on_c, 0, 72, 100
2, 76140, Note_on_c, 0, 72, 0
2, 76140, Note_on_c, 0, 71, 100
2, 76200, Note_on_c, 0, 71, 0
2, 76200, Note_on_c, 0, 69, 100
2, 76260, Note_on_c, 0, 69, 0
2, 76260, Note_on_c, 0, 71, 100
2, 76320, Note_on_c, 0, 71, 0
2, 76320, Note_on_c, 0, 79, 100
2, 76380, Note_on_c, 0, 79, 0
2, 76380, Note_on_c, 0, 76, 100
2, 76560, Note_on_c, 0, 76, 0
2, 76560, Note_on_c, 0, 78, 100
2, 76620, Note_on_c, 0, 78, 0
2, 76620, Note_on_c, 0, 75, 100
2, 76800, Note_on_c, 0, 75, 0
2, 76800, Note_on_c, 0, 75, 100
2, 76920, Note_on_c, 0, 75, 0
2, 76920, Note_on_c, 0, 76, 100
2, 77400, Note_on_c, 0, 76, 0
2, 77400, Note_on_c, 0, 67, 100
2, 77520, Note_on_c, 0, 67, 0
2, 77520, Note_on_c, 0, 66, 100
2, 77640, Note_on_c, 0, 66, 0
2, 77640, Note_on_c, 0, 64, 100
2, 77760, Note_on_c, 0, 64, 0
2, 77760, Note_on_c, 0, 66, 100
2, 78120, Note_on_c, 0, 66, 0
2, 78120, Note_on_c, 0, 76, 100
2, 78240, Note_on_c, 0, 76, 0
2, 78240, Note_on_c, 0, 76, 100
2, 78360, Note_on_c, 0, 76, 0
2, 78360, Note_on_c, 0, 75, 100
2, 78480, Note_on_c, 0, 75, 0
2, 78480, Note_on_c, 0, 78, 100
2, 78540, Note_on_c, 0, 78, 0
2, 78540, Note_on_c, 0, 79, 100
2, 78600, Note_on_c, 0, 79, 0
2, 78600, Note_on_c, 0, 81, 100
2, 78720, Note_on_c, 0, 81, 0
2, 78720, Note_on_c, 0, 79, 100
2, 78960, Note_on_c, 0, 79, 0
2, 78960, Note_on_c, 0, 78, 100
2, 79200, Note_on_c, 0, 78, 0
2, 79200, Note_on_c, 0, 78, 100
2, 79320, Note_on_c, 0, 78, 0
2, 79320, Note_on_c, 0, 76, 100
2, 79560, Note_on_c, 0, 76, 0
2, 79560, Note_on_c, 0, 78, 100
2, 79620, Note_on_c, 0, 78, 0
2, 79620, Note_on_c, 0, 75, 100
2, 79680, Note_on_c, 0, 75, 0
2, 79680, Note_on_c, 0, 75, 100
2, 79920, Note_on_c, 0, 75, 0
2, 79920, Note_on_c, 0, 76, 100
2, 80640, Note_on_c, 0, 76, 0
2, 80640, Note_on_c, 0, 76, 100
2, 80880, Note_on_c, 0, 76, 0
2, 80880, Note_on_c, 0, 74, 100
2, 81000, Note_on_c, 0, 74, 0
2, 81000, Note_on_c, 0, 72, 100
2, 81120, Note_on_c, 0, 72, 0
2, 81120, Note_on_c, 0, 71, 100
2, 81360, Note_on_c, 0, 71, 0
2, 81360, Note_on_c, 0, 69, 100
2, 81840, Note_on_c, 0, 69, 0
2, 81840, Note_on_c, 0, 71, 100
2, 81960, Note_on_c, 0, 71, 0
2, 81960, Note_on_c, 0, 72, 100
2, 82080, Note_on_c, 0, 72, 0
2, 82080, Note_on_c, 0, 74, 100
2, 82140, Note_on_c, 0, 74, 0
2, 82140, Note_on_c, 0, 72, 100
2, 82200, Note_on_c, 0, 72, 0
2, 82200, Note_on_c, 0, 71, 100
2, 82320, Note_on_c, 0, 71, 0
2, 82320, Note_on_c, 0, 72, 100
2, 82380, Note_on_c, 0, 72, 0
2, 82380, Note_on_c, 0, 71, 100
2, 82440, Note_on_c, 0, 71, 0
2, 82440, Note_on_c, 0, 69, 100
2, 82560, Note_on_c, 0, 69, 0
2, 82560, Note_on_c, 0, 69, 100
2, 82800, Note_on_c, 0, 69, 0
2, 82800, Note_on_c, 0, 67, 100
2, 83280, Note_on_c, 0, 67, 0
2, 83280, Note_on_c, 0, 69, 100
2, 83400, Note_on_c, 0, 69, 0
2, 83400, Note_on_c, 0, 71, 100
2, 83520, Note_on_c, 0, 71, 0
2, 83520, Note_on_c, 0, 72, 100
2, 83640, Note_on_c, 0, 72, 0
2, 83640, Note_on_c, 0, 74, 100
2, 83760, Note_on_c, 0, 74, 0
2, 83760, Note_on_c, 0, 72, 100
2, 83880, Note_on_c, 0, 72, 0
2, 83880, Note_on_c, 0, 71, 100
2, 84000, Note_on_c, 0, 71, 0
2, 84000, Note_on_c, 0, 72, 100
2, 84120, Note_on_c, 0, 72, 0
2, 84120, Note_on_c, 0, 69, 100
2, 84240, Note_on_c, 0, 69, 0
2, 84240, Note_on_c, 0, 64, 100
2, 84360, Note_on_c, 0, 64, 0
2, 84360, Note_on_c, 0, 69, 100
2, 84480, Note_on_c, 0, 69, 0
2, 84480, Note_on_c, 0, 72, 100
2, 85080, Note_on_c, 0, 72, 0
2, 85080, Note_on_c, 0, 74, 100
2, 85200, Note_on_c, 0, 74, 0
2, 85200, Note_on_c, 0, 72, 100
2, 85320, Note_on_c, 0, 72, 0
2, 85320, Note_on_c, 0, 71, 100
2, 85440, Note_on_c, 0, 71, 0
2, 85440, Note_on_c, 0, 72, 100
2, 85560, Note_on_c, 0, 72, 0
2, 85560, Note_on_c, 0, 69, 100
2, 85680, Note_on_c, 0, 69, 0
2, 85680, Note_on_c, 0, 66, 100
2, 85800, Note_on_c, 0, 66, 0
2, 85800, Note_on_c, 0, 69, 100
2, 85920, Note_on_c, 0, 69, 0
2, 85920, Note_on_c, 0, 72, 100
2, 86040, Note_on_c, 0, 72, 0
2, 86040, Note_on_c, 0, 76, 100
2, 86160, Note_on_c, 0, 76, 0
2, 86160, Note_on_c, 0, 74, 100
2, 86280, Note_on_c, 0, 74, 0
2, 86280, Note_on_c, 0, 72, 100
2, 86400, Note_on_c, 0, 72, 0
2, 86400, Note_on_c, 0, 71, 100
2, 86520, Note_on_c, 0, 71, 0
2, 86520, Note_on_c, 0, 72, 100
2, 86640, Note_on_c, 0, 72, 0
2, 86640, Note_on_c, 0, 71, 100
2, 86760, Note_on_c, 0, 71, 0
2, 86760, Note_on_c, 0, 69, 100
2, 86880, Note_on_c, 0, 69, 0
2, 86880, Note_on_c, 0, 71, 100
2, 87000, Note_on_c, 0, 71, 0
2, 87000, Note_on_c, 0, 67, 100
2, 87120, Note_on_c, 0, 67, 0
2, 87120, Note_on_c, 0, 62, 100
2, 87240, Note_on_c, 0, 62, 0
2, 87240, Note_on_c, 0, 67, 100
2, 87360, Note_on_c, 0, 67, 0
2, 87360, Note_on_c, 0, 71, 100
2, 87480, Note_on_c, 0, 71, 0
2, 87480, Note_on_c, 0, 67, 100
2, 87600, Note_on_c, 0, 67, 0
2, 87600, Note_on_c, 0, 72, 100
2, 87720, Note_on_c, 0, 72, 0
2, 87720, Note_on_c, 0, 74, 100
2, 87840, Note_on_c, 0, 74, 0
2, 87840, Note_on_c, 0, 76, 100
2, 87960, Note_on_c, 0, 76, 0
2, 87960, Note_on_c, 0, 77, 100
2, 88080, Note_on_c, 0, 77, 0
2, 88080, Note_on_c, 0, 76, 100
2, 88200, Note_on_c, 0, 76, 0
2, 88200, Note_on_c, 0, 74, 100
2, 88320, Note_on_c, 0, 74, 0
2, 88320, Note_on_c, 0, 76, 100
2, 88440, Note_on_c, 0, 76, 0
2, 88440, Note_on_c, 0, 72, 100
2, 88560, Note_on_c, 0, 72, 0
2, 88560, Note_on_c, 0, 67, 100
2, 88680, Note_on_c, 0, 67, 0
2, 88680, Note_on_c, 0, 72, 100
2, 88800, Note_on_c, 0, 72, 0
2, 88800, Note_on_c, 0, 76, 100
2, 88920, Note_on_c, 0, 76, 0
2, 88920, Note_on_c, 0, 72, 100
2, 89040, Note_on_c, 0, 72, 0
2, 89040, Note_on_c, 0, 78, 100
2, 89160, Note_on_c, 0, 78, 0
2, 89160, Note_on_c, 0, 79, 100
2, 89280, Note_on_c, 0, 79, 0
2, 89280, Note_on_c, 0, 81, 100
2, 89400, Note_on_c, 0, 81, 0
2, 89400, Note_on_c, 0, 72, 100
2, 89520, Note_on_c, 0, 72, 0
2, 89520, Note_on_c, 0, 71, 100
2, 89640, Note_on_c, 0, 71, 0
2, 89640, Note_on_c, 0, 69, 100
2, 89760, Note_on_c, 0, 69, 0
2, 89760, Note_on_c, 0, 71, 100
2, 89880, Note_on_c, 0, 71, 0
2, 89880, Note_on_c, 0, 72, 100
2, 90000, Note_on_c, 0, 72, 0
2, 90000, Note_on_c, 0, 74, 100
2, 90120, Note_on_c, 0, 74, 0
2, 90120, Note_on_c, 0, 67, 100
2, 90240, Note_on_c, 0, 67, 0
2, 90240, Note_on_c, 0, 71, 100
2, 90360, Note_on_c, 0, 71, 0
2, 90360, Note_on_c, 0, 69, 100
2, 90480, Note_on_c, 0, 69, 0
2, 90480, Note_on_c, 0, 67, 100
2, 90600, Note_on_c, 0, 67, 0
2, 90600, Note_on_c, 0, 66, 100
2, 90720, Note_on_c, 0, 66, 0
2, 90720, Note_on_c, 0, 67, 100
2, 91320, Note_on_c, 0, 67, 0
2, 91320, Note_on_c, 0, 62, 100
2, 91440, Note_on_c, 0, 62, 0
2, 91440, Note_on_c, 0, 67, 100
2, 91560, Note_on_c, 0, 67, 0
2, 91560, Note_on_c, 0, 66, 100
2, 91680, Note_on_c, 0, 66, 0
2, 91680, Note_on_c, 0, 66, 100
2, 91800, Note_on_c, 0, 66, 0
2, 91800, Note_on_c, 0, 67, 100
2, 92160, Note_on_c, 0, 67, 0
2, 92160, End_track
3, 0, Start_track
3, 0, MIDI_port, 0
3, 0, Title_t, "--------------------------------------"
3, 0, Program_c, 1, 6
3, 0, Control_c, 1, 7, 100
3, 0, Control_c, 1, 10, 69
3, 960, Note_on_c, 1, 62, 100
3, 1440, Note_on_c, 1, 62, 0
3, 2400, Note_on_c, 1, 62, 100
3, 2880, Note_on_c, 1, 62, 0
3, 3840, Note_on_c, 1, 61, 100
3, 4320, Note_on_c, 1, 61, 0
3, 5280, Note_on_c, 1, 57, 100
3, 5760, Note_on_c, 1, 57, 0
3, 6720, Note_on_c, 1, 55, 100
3, 7200, Note_on_c, 1, 55, 0
3, 8160, Note_on_c, 1, 57, 100
3, 8640, Note_on_c, 1, 57, 0
3, 8880, Note_on_c, 1, 60, 100
3, 9360, Note_on_c, 1, 60, 0
3, 9360, Note_on_c, 1, 59, 100
3, 9480, Note_on_c, 1, 59, 0
3, 9480, Note_on_c, 1, 57, 100
3, 9600, Note_on_c, 1, 57, 0
3, 9600, Note_on_c, 1, 55, 100
3, 9720, Note_on_c, 1, 55, 0
3, 9720, Note_on_c, 1, 54, 100
3, 9840, Note_on_c, 1, 54, 0
3, 9840, Note_on_c, 1, 52, 100
3, 9960, Note_on_c, 1, 52, 0
3, 9960, Note_on_c, 1, 54, 100
3, 10080, Note_on_c, 1, 54, 0
3, 10080, Note_on_c, 1, 55, 100
3, 10320, Note_on_c, 1, 55, 0
3, 10320, Note_on_c, 1, 57, 100
3, 10560, Note_on_c, 1, 57, 0
3, 10560, Note_on_c, 1, 59, 100
3, 11520, Note_on_c, 1, 59, 0
3, 12000, Note_on_c, 1, 59, 100
3, 12960, Note_on_c, 1, 59, 0
3, 12960, Note_on_c, 1, 57, 100
3, 13440, Note_on_c, 1, 57, 0
3, 14640, Note_on_c, 1, 59, 100
3, 14880, Note_on_c, 1, 59, 0
3, 17760, Note_on_c, 1, 57, 100
3, 18720, Note_on_c, 1, 57, 0
3, 19200, Note_on_c, 1, 59, 100
3, 19680, Note_on_c, 1, 59, 0
3, 22320, Note_on_c, 1, 57, 100
3, 22560, Note_on_c, 1, 57, 0
3, 22560, Note_on_c, 1, 62, 100
3, 23040, Note_on_c, 1, 62, 0
3, 24000, Note_on_c, 1, 62, 100
3, 24480, Note_on_c, 1, 62, 0
3, 25440, Note_on_c, 1, 62, 100
3, 25920, Note_on_c, 1, 62, 0
3, 26880, Note_on_c, 1, 61, 100
3, 27360, Note_on_c, 1, 61, 0
3, 28320, Note_on_c, 1, 57, 100
3, 28800, Note_on_c, 1, 57, 0
3, 29760, Note_on_c, 1, 55, 100
3, 30240, Note_on_c, 1, 55, 0
3, 31200, Note_on_c, 1, 57, 100
3, 31680, Note_on_c, 1, 57, 0
3, 31920, Note_on_c, 1, 60, 100
3, 32400, Note_on_c, 1, 60, 0
3, 32400, Note_on_c, 1, 59, 100
3, 32520, Note_on_c, 1, 59, 0
3, 32520, Note_on_c, 1, 57, 100
3, 32640, Note_on_c, 1, 57, 0
3, 32640, Note_on_c, 1, 55, 100
3, 32760, Note_on_c, 1, 55, 0
3, 32760, Note_on_c, 1, 54, 100
3, 32880, Note_on_c, 1, 54, 0
3, 32880, Note_on_c, 1, 52, 100
3, 33000, Note_on_c, 1, 52, 0
3, 33000, Note_on_c, 1, 54, 100
3, 33120, Note_on_c, 1, 54, 0
3, 33120, Note_on_c, 1, 55, 100
3, 33360, Note_on_c, 1, 55, 0
3, 33360, Note_on_c, 1, 57, 100
3, 33600, Note_on_c, 1, 57, 0
3, 33600, Note_on_c, 1, 59, 100
3, 34560, Note_on_c, 1, 59, 0
3, 35040, Note_on_c, 1, 59, 100
3, 36000, Note_on_c, 1, 59, 0
3, 36000, Note_on_c, 1, 57, 100
3, 36480, Note_on_c, 1, 57, 0
3, 37680, Note_on_c, 1, 59, 100
3, 37920, Note_on_c, 1, 59, 0
3, 40800, Note_on_c, 1, 57, 100
3, 41760, Note_on_c, 1, 57, 0
3, 42240, Note_on_c, 1, 59, 100
3, 42720, Note_on_c, 1, 59, 0
3, 45360, Note_on_c, 1, 57, 100
3, 45600, Note_on_c, 1, 57, 0
3, 45600, Note_on_c, 1, 62, 100
3, 46080, Note_on_c, 1, 62, 0
3, 46080, Note_on_c, 1, 62, 100
3, 47040, Note_on_c, 1, 62, 0
3, 47040, Note_on_c, 1, 60, 100
3, 47520, Note_on_c, 1, 60, 0
3, 47520, Note_on_c, 1, 59, 100
3, 48240, Note_on_c, 1, 59, 0
3, 48240, Note_on_c, 1, 57, 100
3, 48480, Note_on_c, 1, 57, 0
3, 48480, Note_on_c, 1, 59, 100
3, 48960, Note_on_c, 1, 59, 0
3, 48960, Note_on_c, 1, 60, 100
3, 49680, Note_on_c, 1, 60, 0
3, 49680, Note_on_c, 1, 59, 100
3, 49920, Note_on_c, 1, 59, 0
3, 49920, Note_on_c, 1, 57, 100
3, 50400, Note_on_c, 1, 57, 0
3, 50400, Note_on_c, 1, 59, 100
3, 51120, Note_on_c, 1, 59, 0
3, 51120, Note_on_c, 1, 57, 100
3, 51360, Note_on_c, 1, 57, 0
3, 51360, Note_on_c, 1, 55, 100
3, 51600, Note_on_c, 1, 55, 0
3, 51600, Note_on_c, 1, 54, 100
3, 51840, Note_on_c, 1, 54, 0
3, 51840, Note_on_c, 1, 52, 100
3, 52800, Note_on_c, 1, 52, 0
3, 52800, Note_on_c, 1, 50, 100
3, 53280, Note_on_c, 1, 50, 0
3, 53280, Note_on_c, 1, 48, 100
3, 54000, Note_on_c, 1, 48, 0
3, 54240, Note_on_c, 1, 47, 100
3, 54720, Note_on_c, 1, 47, 0
3, 54720, Note_on_c, 1, 45, 100
3, 54960, Note_on_c, 1, 45, 0
3, 54960, Note_on_c, 1, 48, 100
3, 55200, Note_on_c, 1, 48, 0
3, 55200, Note_on_c, 1, 47, 100
3, 55440, Note_on_c, 1, 47, 0
3, 55440, Note_on_c, 1, 45, 100
3, 55680, Note_on_c, 1, 45, 0
3, 55680, Note_on_c, 1, 47, 100
3, 56160, Note_on_c, 1, 47, 0
3, 56160, Note_on_c, 1, 52, 100
3, 56400, Note_on_c, 1, 52, 0
3, 56400, Note_on_c, 1, 47, 100
3, 56640, Note_on_c, 1, 47, 0
3, 56640, Note_on_c, 1, 40, 100
3, 56880, Note_on_c, 1, 40, 0
3, 56880, Note_on_c, 1, 47, 100
3, 57120, Note_on_c, 1, 47, 0
3, 57120, Note_on_c, 1, 52, 100
3, 57360, Note_on_c, 1, 52, 0
3, 57360, Note_on_c, 1, 50, 100
3, 57600, Note_on_c, 1, 50, 0
3, 57600, Note_on_c, 1, 48, 100
3, 59040, Note_on_c, 1, 48, 0
3, 59040, Note_on_c, 1, 47, 100
3, 60480, Note_on_c, 1, 47, 0
3, 60480, Note_on_c, 1, 45, 100
3, 61200, Note_on_c, 1, 45, 0
3, 61200, Note_on_c, 1, 43, 100
3, 61440, Note_on_c, 1, 43, 0
3, 61440, Note_on_c, 1, 42, 100
3, 61680, Note_on_c, 1, 42, 0
3, 61680, Note_on_c, 1, 40, 100
3, 61920, Note_on_c, 1, 40, 0
3, 61920, Note_on_c, 1, 38, 100
3, 62160, Note_on_c, 1, 38, 0
3, 62160, Note_on_c, 1, 45, 100
3, 62400, Note_on_c, 1, 45, 0
3, 62400, Note_on_c, 1, 50, 100
3, 62640, Note_on_c, 1, 50, 0
3, 62640, Note_on_c, 1, 48, 100
3, 62880, Note_on_c, 1, 48, 0
3, 62880, Note_on_c, 1, 47, 100
3, 63120, Note_on_c, 1, 47, 0
3, 63120, Note_on_c, 1, 45, 100
3, 63360, Note_on_c, 1, 45, 0
3, 63360, Note_on_c, 1, 43, 100
3, 63600, Note_on_c, 1, 43, 0
3, 63600, Note_on_c, 1, 50, 100
3, 63840, Note_on_c, 1, 50, 0
3, 63840, Note_on_c, 1, 55, 100
3, 64080, Note_on_c, 1, 55, 0
3, 64080, Note_on_c, 1, 53, 100
3, 64320, Note_on_c, 1, 53, 0
3, 64320, Note_on_c, 1, 52, 100
3, 64560, Note_on_c, 1, 52, 0
3, 64560, Note_on_c, 1, 50, 100
3, 64800, Note_on_c, 1, 50, 0
3, 64800, Note_on_c, 1, 48, 100
3, 65040, Note_on_c, 1, 48, 0
3, 65040, Note_on_c, 1, 55, 100
3, 65280, Note_on_c, 1, 55, 0
3, 65280, Note_on_c, 1, 60, 100
3, 65520, Note_on_c, 1, 60, 0
3, 65520, Note_on_c, 1, 59, 100
3, 65760, Note_on_c, 1, 59, 0
3, 65760, Note_on_c, 1, 57, 100
3, 66000, Note_on_c, 1, 57, 0
3, 66000, Note_on_c, 1, 55, 100
3, 66240, Note_on_c, 1, 55, 0
3, 66240, Note_on_c, 1, 54, 100
3, 66480, Note_on_c, 1, 54, 0
3, 66480, Note_on_c, 1, 50, 100
3, 66720, Note_on_c, 1, 50, 0
3, 66720, Note_on_c, 1, 55, 100
3, 66960, Note_on_c, 1, 55, 0
3, 66960, Note_on_c, 1, 59, 100
3, 67200, Note_on_c, 1, 59, 0
3, 67200, Note_on_c, 1, 62, 100
3, 67440, Note_on_c, 1, 62, 0
3, 67440, Note_on_c, 1, 50, 100
3, 67680, Note_on_c, 1, 50, 0
3, 67680, Note_on_c, 1, 55, 100
3, 68400, Note_on_c, 1, 55, 0
3, 68400, Note_on_c, 1, 50, 100
3, 68640, Note_on_c, 1, 50, 0
3, 68640, Note_on_c, 1, 43, 100
3, 69120, Note_on_c, 1, 43, 0
3, 69120, Note_on_c, 1, 62, 100
3, 70080, Note_on_c, 1, 62, 0
3, 70080, Note_on_c, 1, 60, 100
3, 70560, Note_on_c, 1, 60, 0
3, 70560, Note_on_c, 1, 59, 100
3, 71280, Note_on_c, 1, 59, 0
3, 71280, Note_on_c, 1, 57, 100
3, 71520, Note_on_c, 1, 57, 0
3, 71520, Note_on_c, 1, 59, 100
3, 72000, Note_on_c, 1, 59, 0
3, 72000, Note_on_c, 1, 60, 100
3, 72720, Note_on_c, 1, 60, 0
3, 72720, Note_on_c, 1, 59, 100
3, 72960, Note_on_c, 1, 59, 0
3, 72960, Note_on_c, 1, 57, 100
3, 73440, Note_on_c, 1, 57, 0
3, 73440, Note_on_c, 1, 59, 100
3, 74160, Note_on_c, 1, 59, 0
3, 74160, Note_on_c, 1, 57, 100
3, 74400, Note_on_c, 1, 57, 0
3, 74400, Note_on_c, 1, 55, 100
3, 74640, Note_on_c, 1, 55, 0
3, 74640, Note_on_c, 1, 54, 100
3, 74880, Note_on_c, 1, 54, 0
3, 74880, Note_on_c, 1, 52, 100
3, 75840, Note_on_c, 1, 52, 0
3, 75840, Note_on_c, 1, 50, 100
3, 76320, Note_on_c, 1, 50, 0
3, 76320, Note_on_c, 1, 48, 100
3, 77040, Note_on_c, 1, 48, 0
3, 77280, Note_on_c, 1, 47, 100
3, 77760, Note_on_c, 1, 47, 0
3, 77760, Note_on_c, 1, 45, 100
3, 78000, Note_on_c, 1, 45, 0
3, 78000, Note_on_c, 1, 48, 100
3, 78240, Note_on_c, 1, 48, 0
3, 78240, Note_on_c, 1, 47, 100
3, 78480, Note_on_c, 1, 47, 0
3, 78480, Note_on_c, 1, 45, 100
3, 78720, Note_on_c, 1, 45, 0
3, 78720, Note_on_c, 1, 47, 100
3, 79200, Note_on_c, 1, 47, 0
3, 79200, Note_on_c, 1, 52, 100
3, 79440, Note_on_c, 1, 52, 0
3, 79440, Note_on_c, 1, 47, 100
3, 79680, Note_on_c, 1, 47, 0
3, 79680, Note_on_c, 1, 40, 100
3, 79920, Note_on_c, 1, 40, 0
3, 79920, Note_on_c, 1, 47, 100
3, 80160, Note_on_c, 1, 47, 0
3, 80160, Note_on_c, 1, 52, 100
3, 80400, Note_on_c, 1, 52, 0
3, 80400, Note_on_c, 1, 50, 100
3, 80640, Note_on_c, 1, 50, 0
3, 80640, Note_on_c, 1, 48, 100
3, 82080, Note_on_c, 1, 48, 0
3, 82080, Note_on_c, 1, 47, 100
3, 83520, Note_on_c, 1, 47, 0
3, 83520, Note_on_c, 1, 45, 100
3, 84240, Note_on_c, 1, 45, 0
3, 84240, Note_on_c, 1, 43, 100
3, 84480, Note_on_c, 1, 43, 0
3, 84480, Note_on_c, 1, 42, 100
3, 84720, Note_on_c, 1, 42, 0
3, 84720, Note_on_c, 1, 40, 100
3, 84960, Note_on_c, 1, 40, 0
3, 84960, Note_on_c, 1, 38, 100
3, 85200, Note_on_c, 1, 38, 0
3, 85200, Note_on_c, 1, 45, 100
3, 85440, Note_on_c, 1, 45, 0
3, 85440, Note_on_c, 1, 50, 100
3, 85680, Note_on_c, 1, 50, 0
3, 85680, Note_on_c, 1, 48, 100
3, 85920, Note_on_c, 1, 48, 0
3, 85920, Note_on_c, 1, 47, 100
3, 86160, Note_on_c, 1, 47, 0
3, 86160, Note_on_c, 1, 45, 100
3, 86400, Note_on_c, 1, 45, 0
3, 86400, Note_on_c, 1, 43, 100
3, 86640, Note_on_c, 1, 43, 0
3, 86640, Note_on_c, 1, 50, 100
3, 86880, Note_on_c, 1, 50, 0
3, 86880, Note_on_c, 1, 55, 100
3, 87120, Note_on_c, 1, 55, 0
3, 87120, Note_on_c, 1, 53, 100
3, 87360, Note_on_c, 1, 53, 0
3, 87360, Note_on_c, 1, 52, 100
3, 87600, Note_on_c, 1, 52, 0
3, 87600, Note_on_c, 1, 50, 100
3, 87840, Note_on_c, 1, 50, 0
3, 87840, Note_on_c, 1, 48, 100
3, 88080, Note_on_c, 1, 48, 0
3, 88080, Note_on_c, 1, 55, 100
3, 88320, Note_on_c, 1, 55, 0
3, 88320, Note_on_c, 1, 60, 100
3, 88560, Note_on_c, 1, 60, 0
3, 88560, Note_on_c, 1, 59, 100
3, 88800, Note_on_c, 1, 59, 0
3, 88800, Note_on_c, 1, 57, 100
3, 89040, Note_on_c, 1, 57, 0
3, 89040, Note_on_c, 1, 55, 100
3, 89280, Note_on_c, 1, 55, 0
3, 89280, Note_on_c, 1, 54, 100
3, 89520, Note_on_c, 1, 54, 0
3, 89520, Note_on_c, 1, 50, 100
3, 89760, Note_on_c, 1, 50, 0
3, 89760, Note_on_c, 1, 55, 100
3, 90000, Note_on_c, 1, 55, 0
3, 90000, Note_on_c, 1, 59, 100
3, 90240, Note_on_c, 1, 59, 0
3, 90240, Note_on_c, 1, 62, 100
3, 90480, Note_on_c, 1, 62, 0
3, 90480, Note_on_c, 1, 50, 100
3, 90720, Note_on_c, 1, 50, 0
3, 90720, Note_on_c, 1, 55, 100
3, 91440, Note_on_c, 1, 55, 0
3, 91440, Note_on_c, 1, 50, 100
3, 91680, Note_on_c, 1, 50, 0
3, 91680, Note_on_c, 1, 43, 100
3, 92160, Note_on_c, 1, 43, 0
3, 92160, End_track
4, 0, Start_track
4, 0, MIDI_port, 0
4, 0, Title_t, "Johann Sebastian Bach  (1685-1750)"
4, 0, Program_c, 2, 6
4, 0, Control_c, 2, 7, 100
4, 0, Control_c, 2, 10, 59
4, 480, Note_on_c, 2, 59, 100
4, 1440, Note_on_c, 2, 59, 0
4, 1920, Note_on_c, 2, 57, 100
4, 2880, Note_on_c, 2, 57, 0
4, 3360, Note_on_c, 2, 55, 100
4, 4320, Note_on_c, 2, 55, 0
4, 4800, Note_on_c, 2, 54, 100
4, 5760, Note_on_c, 2, 54, 0
4, 6240, Note_on_c, 2, 50, 100
4, 7200, Note_on_c, 2, 50, 0
4, 7680, Note_on_c, 2, 52, 100
4, 8400, Note_on_c, 2, 52, 0
4, 12480, Note_on_c, 2, 64, 100
4, 12960, Note_on_c, 2, 64, 0
4, 13440, Note_on_c, 2, 74, 100
4, 14400, Note_on_c, 2, 74, 0
4, 14880, Note_on_c, 2, 64, 100
4, 15600, Note_on_c, 2, 64, 0
4, 15600, Note_on_c, 2, 62, 100
4, 15840, Note_on_c, 2, 62, 0
4, 15840, Note_on_c, 2, 61, 100
4, 16080, Note_on_c, 2, 61, 0
4, 16080, Note_on_c, 2, 62, 100
4, 16320, Note_on_c, 2, 62, 0
4, 16320, Note_on_c, 2, 64, 100
4, 17280, Note_on_c, 2, 64, 0
4, 18240, Note_on_c, 2, 62, 100
4, 18720, Note_on_c, 2, 62, 0
4, 19680, Note_on_c, 2, 64, 100
4, 20160, Note_on_c, 2, 64, 0
4, 20160, Note_on_c, 2, 66, 100
4, 20640, Note_on_c, 2, 66, 0
4, 20640, Note_on_c, 2, 64, 100
4, 21000, Note_on_c, 2, 64, 0
4, 21000, Note_on_c, 2, 66, 100
4, 21120, Note_on_c, 2, 66, 0
4, 21120, Note_on_c, 2, 67, 100
4, 22080, Note_on_c, 2, 67, 0
4, 22080, Note_on_c, 2, 66, 100
4, 23040, Note_on_c, 2, 66, 0
4, 23520, Note_on_c, 2, 59, 100
4, 24480, Note_on_c, 2, 59, 0
4, 24960, Note_on_c, 2, 57, 100
4, 25920, Note_on_c, 2, 57, 0
4, 26400, Note_on_c, 2, 55, 100
4, 27360, Note_on_c, 2, 55, 0
4, 27840, Note_on_c, 2, 54, 100
4, 28800, Note_on_c, 2, 54, 0
4, 29280, Note_on_c, 2, 50, 100
4, 30240, Note_on_c, 2, 50, 0
4, 30720, Note_on_c, 2, 52, 100
4, 31440, Note_on_c, 2, 52, 0
4, 35520, Note_on_c, 2, 64, 100
4, 36000, Note_on_c, 2, 64, 0
4, 36480, Note_on_c, 2, 74, 100
4, 37440, Note_on_c, 2, 74, 0
4, 37920, Note_on_c, 2, 64, 100
4, 38640, Note_on_c, 2, 64, 0
4, 38640, Note_on_c, 2, 62, 100
4, 38880, Note_on_c, 2, 62, 0
4, 38880, Note_on_c, 2, 61, 100
4, 39120, Note_on_c, 2, 61, 0
4, 39120, Note_on_c, 2, 62, 100
4, 39360, Note_on_c, 2, 62, 0
4, 39360, Note_on_c, 2, 64, 100
4, 40320, Note_on_c, 2, 64, 0
4, 41280, Note_on_c, 2, 62, 100
4, 41760, Note_on_c, 2, 62, 0
4, 42720, Note_on_c, 2, 64, 100
4, 43200, Note_on_c, 2, 64, 0
4, 43200, Note_on_c, 2, 66, 100
4, 43680, Note_on_c, 2, 66, 0
4, 43680, Note_on_c, 2, 64, 100
4, 44040, Note_on_c, 2, 64, 0
4, 44040, Note_on_c, 2, 66, 100
4, 44160, Note_on_c, 2, 66, 0
4, 44160, Note_on_c, 2, 67, 100
4, 45120, Note_on_c, 2, 67, 0
4, 45120, Note_on_c, 2, 66, 100
4, 46080, Note_on_c, 2, 66, 0
4, 46320, Note_on_c, 2, 64, 100
4, 46560, Note_on_c, 2, 64, 0
4, 46560, Note_on_c, 2, 66, 100
4, 46590, Note_on_c, 2, 66, 0
4, 46590, Note_on_c, 2, 64, 100
4, 46620, Note_on_c, 2, 64, 0
4, 46620, Note_on_c, 2, 66, 100
4, 47520, Note_on_c, 2, 66, 0
4, 47760, Note_on_c, 2, 60, 100
4, 48000, Note_on_c, 2, 60, 0
4, 48000, Note_on_c, 2, 62, 100
4, 48960, Note_on_c, 2, 62, 0
4, 49200, Note_on_c, 2, 64, 100
4, 49440, Note_on_c, 2, 64, 0
4, 49440, Note_on_c, 2, 67, 100
4, 49920, Note_on_c, 2, 67, 0
4, 49920, Note_on_c, 2, 67, 100
4, 49960, Note_on_c, 2, 67, 0
4, 49960, Note_on_c, 2, 66, 100
4, 50000, Note_on_c, 2, 66, 0
4, 50000, Note_on_c, 2, 67, 100
4, 50040, Note_on_c, 2, 67, 0
4, 50040, Note_on_c, 2, 66, 100
4, 50160, Note_on_c, 2, 66, 0
4, 50160, Note_on_c, 2, 64, 100
4, 50400, Note_on_c, 2, 64, 0
4, 50400, Note_on_c, 2, 63, 100
4, 50640, Note_on_c, 2, 63, 0
4, 50640, Note_on_c, 2, 64, 100
4, 50880, Note_on_c, 2, 64, 0
4, 50880, Note_on_c, 2, 66, 100
4, 51840, Note_on_c, 2, 66, 0
4, 52080, Note_on_c, 2, 57, 100
4, 52320, Note_on_c, 2, 57, 0
4, 52320, Note_on_c, 2, 57, 100
4, 52360, Note_on_c, 2, 57, 0
4, 52360, Note_on_c, 2, 55, 100
4, 52400, Note_on_c, 2, 55, 0
4, 52400, Note_on_c, 2, 57, 100
4, 52440, Note_on_c, 2, 57, 0
4, 52440, Note_on_c, 2, 55, 100
4, 52560, Note_on_c, 2, 55, 0
4, 52560, Note_on_c, 2, 54, 100
4, 52800, Note_on_c, 2, 54, 0
4, 52800, Note_on_c, 2, 55, 100
4, 53280, Note_on_c, 2, 55, 0
4, 53520, Note_on_c, 2, 57, 100
4, 53760, Note_on_c, 2, 57, 0
4, 53760, Note_on_c, 2, 57, 100
4, 53800, Note_on_c, 2, 57, 0
4, 53800, Note_on_c, 2, 55, 100
4, 53840, Note_on_c, 2, 55, 0
4, 53840, Note_on_c, 2, 57, 100
4, 53880, Note_on_c, 2, 57, 0
4, 53880, Note_on_c, 2, 55, 100
4, 54000, Note_on_c, 2, 55, 0
4, 54000, Note_on_c, 2, 54, 100
4, 54240, Note_on_c, 2, 54, 0
4, 54240, Note_on_c, 2, 55, 100
4, 54480, Note_on_c, 2, 55, 0
4, 54480, Note_on_c, 2, 59, 100
4, 54720, Note_on_c, 2, 59, 0
4, 55920, Note_on_c, 2, 51, 100
4, 56160, Note_on_c, 2, 51, 0
4, 56160, Note_on_c, 2, 52, 100
4, 56640, Note_on_c, 2, 52, 0
4, 58080, Note_on_c, 2, 52, 100
4, 59040, Note_on_c, 2, 52, 0
4, 69360, Note_on_c, 2, 64, 100
4, 69600, Note_on_c, 2, 64, 0
4, 69600, Note_on_c, 2, 66, 100
4, 69630, Note_on_c, 2, 66, 0
4, 69630, Note_on_c, 2, 64, 100
4, 69660, Note_on_c, 2, 64, 0
4, 69660, Note_on_c, 2, 66, 100
4, 70560, Note_on_c, 2, 66, 0
4, 70800, Note_on_c, 2, 60, 100
4, 71040, Note_on_c, 2, 60, 0
4, 71040, Note_on_c, 2, 62, 100
4, 72000, Note_on_c, 2, 62, 0
4, 72240, Note_on_c, 2, 64, 100
4, 72480, Note_on_c, 2, 64, 0
4, 72480, Note_on_c, 2, 67, 100
4, 72960, Note_on_c, 2, 67, 0
4, 72960, Note_on_c, 2, 67, 100
4, 73000, Note_on_c, 2, 67, 0
4, 73000, Note_on_c, 2, 66, 100
4, 73040, Note_on_c, 2, 66, 0
4, 73040, Note_on_c, 2, 67, 100
4, 73080, Note_on_c, 2, 67, 0
4, 73080, Note_on_c, 2, 66, 100
4, 73200, Note_on_c, 2, 66, 0
4, 73200, Note_on_c, 2, 64, 100
4, 73440, Note_on_c, 2, 64, 0
4, 73440, Note_on_c, 2, 63, 100
4, 73680, Note_on_c, 2, 63, 0
4, 73680, Note_on_c, 2, 64, 100
4, 73920, Note_on_c, 2, 64, 0
4, 73920, Note_on_c, 2, 66, 100
4, 74880, Note_on_c, 2, 66, 0
4, 75120, Note_on_c, 2, 57, 100
4, 75360, Note_on_c, 2, 57, 0
4, 75360, Note_on_c, 2, 57, 100
4, 75400, Note_on_c, 2, 57, 0
4, 75400, Note_on_c, 2, 55, 100
4, 75440, Note_on_c, 2, 55, 0
4, 75440, Note_on_c, 2, 57, 100
4, 75480, Note_on_c, 2, 57, 0
4, 75480, Note_on_c, 2, 55, 100
4, 75600, Note_on_c, 2, 55, 0
4, 75600, Note_on_c, 2, 54, 100
4, 75840, Note_on_c, 2, 54, 0
4, 75840, Note_on_c, 2, 55, 100
4, 76320, Note_on_c, 2, 55, 0
4, 76560, Note_on_c, 2, 57, 100
4, 76800, Note_on_c, 2, 57, 0
4, 76800, Note_on_c, 2, 57, 100
4, 76840, Note_on_c, 2, 57, 0
4, 76840, Note_on_c, 2, 55, 100
4, 76880, Note_on_c, 2, 55, 0
4, 76880, Note_on_c, 2, 57, 100
4, 76920, Note_on_c, 2, 57, 0
4, 76920, Note_on_c, 2, 55, 100
4, 77040, Note_on_c, 2, 55, 0
4, 77040, Note_on_c, 2, 54, 100
4, 77280, Note_on_c, 2, 54, 0
4, 77280, Note_on_c, 2, 55, 100
4, 77520, Note_on_c, 2, 55, 0
4, 77520, Note_on_c, 2, 59, 100
4, 77760, Note_on_c, 2, 59, 0
4, 78960, Note_on_c, 2, 51, 100
4, 79200, Note_on_c, 2, 51, 0
4, 79200, Note_on_c, 2, 52, 100
4, 79680, Note_on_c, 2, 52, 0
4, 81120, Note_on_c, 2, 52, 100
4, 82080, Note_on_c, 2, 52, 0
4, 82080, End_track
5, 0, Start_track
5, 0, MIDI_port, 0
5, 0, Title_t, "The Goldberg Variations - BWV 988"
5, 0, Program_c, 3, 6
5, 0, Control_c, 3, 7, 100
5, 0, Control_c, 3, 10, 49
5, 0, Note_on_c, 3, 55, 100
5, 1440, Note_on_c, 3, 55, 0
5, 1440, Note_on_c, 3, 54, 100
5, 2880, Note_on_c, 3, 54, 0
5, 2880, Note_on_c, 3, 52, 100
5, 4320, Note_on_c, 3, 52, 0
5, 4320, Note_on_c, 3, 50, 100
5, 5520, Note_on_c, 3, 50, 0
5, 5520, Note_on_c, 3, 48, 100
5, 5760, Note_on_c, 3, 48, 0
5, 5760, Note_on_c, 3, 47, 100
5, 7200, Note_on_c, 3, 47, 0
5, 7200, Note_on_c, 3, 48, 100
5, 8400, Note_on_c, 3, 48, 0
5, 8400, Note_on_c, 3, 50, 100
5, 8640, Note_on_c, 3, 50, 0
5, 8640, Note_on_c, 3, 52, 100
5, 8880, Note_on_c, 3, 52, 0
5, 8880, Note_on_c, 3, 48, 100
5, 9120, Note_on_c, 3, 48, 0
5, 9120, Note_on_c, 3, 50, 100
5, 10080, Note_on_c, 3, 50, 0
5, 10080, Note_on_c, 3, 43, 100
5, 10800, Note_on_c, 3, 43, 0
5, 10800, Note_on_c, 3, 50, 100
5, 11040, Note_on_c, 3, 50, 0
5, 11040, Note_on_c, 3, 52, 100
5, 11070, Note_on_c, 3, 52, 0
5, 11070, Note_on_c, 3, 50, 100
5, 11100, Note_on_c, 3, 50, 0
5, 11100, Note_on_c, 3, 52, 100
5, 11400, Note_on_c, 3, 52, 0
5, 11400, Note_on_c, 3, 54, 100
5, 11520, Note_on_c, 3, 54, 0
5, 11520, Note_on_c, 3, 55, 100
5, 13440, Note_on_c, 3, 55, 0
5, 13440, Note_on_c, 3, 55, 100
5, 13480, Note_on_c, 3, 55, 0
5, 13480, Note_on_c, 3, 54, 100
5, 13520, Note_on_c, 3, 54, 0
5, 13520, Note_on_c, 3, 55, 100
5, 13560, Note_on_c, 3, 55, 0
5, 13560, Note_on_c, 3, 54, 100
5, 13680, Note_on_c, 3, 54, 0
5, 13680, Note_on_c, 3, 52, 100
5, 13920, Note_on_c, 3, 52, 0
5, 13920, Note_on_c, 3, 54, 100
5, 14160, Note_on_c, 3, 54, 0
5, 14160, Note_on_c, 3, 59, 100
5, 14400, Note_on_c, 3, 59, 0
5, 14400, Note_on_c, 3, 52, 100
5, 15120, Note_on_c, 3, 52, 0
5, 15120, Note_on_c, 3, 52, 100
5, 15360, Note_on_c, 3, 52, 0
5, 15360, Note_on_c, 3, 54, 100
5, 15600, Note_on_c, 3, 54, 0
5, 15600, Note_on_c, 3, 55, 100
5, 15840, Note_on_c, 3, 55, 0
5, 15840, Note_on_c, 3, 57, 100
5, 16560, Note_on_c, 3, 57, 0
5, 16560, Note_on_c, 3, 59, 100
5, 16800, Note_on_c, 3, 59, 0
5, 16800, Note_on_c, 3, 57, 100
5, 17040, Note_on_c, 3, 57, 0
5, 17040, Note_on_c, 3, 55, 100
5, 17280, Note_on_c, 3, 55, 0
5, 17280, Note_on_c, 3, 54, 100
5, 18720, Note_on_c, 3, 54, 0
5, 18720, Note_on_c, 3, 55, 100
5, 20160, Note_on_c, 3, 55, 0
5, 20160, Note_on_c, 3, 57, 100
5, 21600, Note_on_c, 3, 57, 0
5, 21600, Note_on_c, 3, 50, 100
5, 23040, Note_on_c, 3, 50, 0
5, 23040, Note_on_c, 3, 55, 100
5, 24480, Note_on_c, 3, 55, 0
5, 24480, Note_on_c, 3, 54, 100
5, 25920, Note_on_c, 3, 54, 0
5, 25920, Note_on_c, 3, 52, 100
5, 27360, Note_on_c, 3, 52, 0
5, 27360, Note_on_c, 3, 50, 100
5, 28560, Note_on_c, 3, 50, 0
5, 28560, Note_on_c, 3, 48, 100
5, 28800, Note_on_c, 3, 48, 0
5, 28800, Note_on_c, 3, 47, 100
5, 30240, Note_on_c, 3, 47, 0
5, 30240, Note_on_c, 3, 48, 100
5, 31440, Note_on_c, 3, 48, 0
5, 31440, Note_on_c, 3, 50, 100
5, 31680, Note_on_c, 3, 50, 0
5, 31680, Note_on_c, 3, 52, 100
5, 31920, Note_on_c, 3, 52, 0
5, 31920, Note_on_c, 3, 48, 100
5, 32160, Note_on_c, 3, 48, 0
5, 32160, Note_on_c, 3, 50, 100
5, 33120, Note_on_c, 3, 50, 0
5, 33120, Note_on_c, 3, 43, 100
5, 33840, Note_on_c, 3, 43, 0
5, 33840, Note_on_c, 3, 50, 100
5, 34080, Note_on_c, 3, 50, 0
5, 34080, Note_on_c, 3, 52, 100
5, 34110, Note_on_c, 3, 52, 0
5, 34110, Note_on_c, 3, 50, 100
5, 34140, Note_on_c, 3, 50, 0
5, 34140, Note_on_c, 3, 52, 100
5, 34440, Note_on_c, 3, 52, 0
5, 34440, Note_on_c, 3, 54, 100
5, 34560, Note_on_c, 3, 54, 0
5, 34560, Note_on_c, 3, 55, 100
5, 36480, Note_on_c, 3, 55, 0
5, 36480, Note_on_c, 3, 55, 100
5, 36520, Note_on_c, 3, 55, 0
5, 36520, Note_on_c, 3, 54, 100
5, 36560, Note_on_c, 3, 54, 0
5, 36560, Note_on_c, 3, 55, 100
5, 36600, Note_on_c, 3, 55, 0
5, 36600, Note_on_c, 3, 54, 100
5, 36720, Note_on_c, 3, 54, 0
5, 36720, Note_on_c, 3, 52, 100
5, 36960, Note_on_c, 3, 52, 0
5, 36960, Note_on_c, 3, 54, 100
5, 37200, Note_on_c, 3, 54, 0
5, 37200, Note_on_c, 3, 59, 100
5, 37440, Note_on_c, 3, 59, 0
5, 37440, Note_on_c, 3, 52, 100
5, 38160, Note_on_c, 3, 52, 0
5, 38160, Note_on_c, 3, 52, 100
5, 38400, Note_on_c, 3, 52, 0
5, 38400, Note_on_c, 3, 54, 100
5, 38640, Note_on_c, 3, 54, 0
5, 38640, Note_on_c, 3, 55, 100
5, 38880, Note_on_c, 3, 55, 0
5, 38880, Note_on_c, 3, 57, 100
5, 39600, Note_on_c, 3, 57, 0
5, 39600, Note_on_c, 3, 59, 100
5, 39840, Note_on_c, 3, 59, 0
5, 39840, Note_on_c, 3, 57, 100
5, 40080, Note_on_c, 3, 57, 0
5, 40080, Note_on_c, 3, 55, 100
5, 40320, Note_on_c, 3, 55, 0
5, 40320, Note_on_c, 3, 54, 100
5, 41760, Note_on_c, 3, 54, 0
5, 41760, Note_on_c, 3, 55, 100
5, 43200, Note_on_c, 3, 55, 0
5, 43200, Note_on_c, 3, 57, 100
5, 44640, Note_on_c, 3, 57, 0
5, 44640, Note_on_c, 3, 50, 100
5, 46080, Note_on_c, 3, 50, 0
5, 54720, Note_on_c, 3, 66, 100
5, 55440, Note_on_c, 3, 66, 0
5, 55440, Note_on_c, 3, 72, 100
5, 55680, Note_on_c, 3, 72, 0
5, 55680, Note_on_c, 3, 71, 100
5, 55920, Note_on_c, 3, 71, 0
5, 55920, Note_on_c, 3, 69, 100
5, 56640, Note_on_c, 3, 69, 0
5, 56640, Note_on_c, 3, 67, 100
5, 57600, Note_on_c, 3, 67, 0
5, 58560, Note_on_c, 3, 57, 100
5, 59280, Note_on_c, 3, 57, 0
5, 59280, Note_on_c, 3, 54, 100
5, 59520, Note_on_c, 3, 54, 0
5, 59520, Note_on_c, 3, 52, 100
5, 59640, Note_on_c, 3, 52, 0
5, 59640, Note_on_c, 3, 50, 100
5, 59760, Note_on_c, 3, 50, 0
5, 59760, Note_on_c, 3, 52, 100
5, 59880, Note_on_c, 3, 52, 0
5, 59880, Note_on_c, 3, 54, 100
5, 60000, Note_on_c, 3, 54, 0
5, 60000, Note_on_c, 3, 55, 100
5, 60120, Note_on_c, 3, 55, 0
5, 60120, Note_on_c, 3, 54, 100
5, 60240, Note_on_c, 3, 54, 0
5, 60240, Note_on_c, 3, 55, 100
5, 60720, Note_on_c, 3, 55, 0
5, 60720, Note_on_c, 3, 52, 100
5, 60960, Note_on_c, 3, 52, 0
5, 60960, Note_on_c, 3, 57, 100
5, 61200, Note_on_c, 3, 57, 0
5, 61200, Note_on_c, 3, 64, 100
5, 61560, Note_on_c, 3, 64, 0
5, 61560, Note_on_c, 3, 71, 100
5, 61680, Note_on_c, 3, 71, 0
5, 61680, Note_on_c, 3, 69, 100
5, 61800, Note_on_c, 3, 69, 0
5, 61800, Note_on_c, 3, 67, 100
5, 61920, Note_on_c, 3, 67, 0
5, 61920, Note_on_c, 3, 66, 100
5, 62400, Note_on_c, 3, 66, 0
5, 62640, Note_on_c, 3, 66, 100
5, 63360, Note_on_c, 3, 66, 0
5, 63360, Note_on_c, 3, 67, 100
5, 63600, Note_on_c, 3, 67, 0
5, 64080, Note_on_c, 3, 62, 100
5, 64440, Note_on_c, 3, 62, 0
5, 64440, Note_on_c, 3, 67, 100
5, 65280, Note_on_c, 3, 67, 0
5, 65520, Note_on_c, 3, 67, 100
5, 65880, Note_on_c, 3, 67, 0
5, 65880, Note_on_c, 3, 72, 100
5, 66240, Note_on_c, 3, 72, 0
5, 67800, Note_on_c, 3, 60, 100
5, 67920, Note_on_c, 3, 60, 0
5, 67920, Note_on_c, 3, 59, 100
5, 68040, Note_on_c, 3, 59, 0
5, 68040, Note_on_c, 3, 57, 100
5, 68160, Note_on_c, 3, 57, 0
5, 68160, Note_on_c, 3, 59, 100
5, 69120, Note_on_c, 3, 59, 0
5, 77760, Note_on_c, 3, 66, 100
5, 78480, Note_on_c, 3, 66, 0
5, 78480, Note_on_c, 3, 72, 100
5, 78720, Note_on_c, 3, 72, 0
5, 78720, Note_on_c, 3, 71, 100
5, 78960, Note_on_c, 3, 71, 0
5, 78960, Note_on_c, 3, 69, 100
5, 79680, Note_on_c, 3, 69, 0
5, 79680, Note_on_c, 3, 67, 100
5, 80640, Note_on_c, 3, 67, 0
5, 81600, Note_on_c, 3, 57, 100
5, 82320, Note_on_c, 3, 57, 0
5, 82320, Note_on_c, 3, 54, 100
5, 82560, Note_on_c, 3, 54, 0
5, 82560, Note_on_c, 3, 52, 100
5, 82680, Note_on_c, 3, 52, 0
5, 82680, Note_on_c, 3, 50, 100
5, 82800, Note_on_c, 3, 50, 0
5, 82800, Note_on_c, 3, 52, 100
5, 82920, Note_on_c, 3, 52, 0
5, 82920, Note_on_c, 3, 54, 100
5, 83040, Note_on_c, 3, 54, 0
5, 83040, Note_on_c, 3, 55, 100
5, 83160, Note_on_c, 3, 55, 0
5, 83160, Note_on_c, 3, 54, 100
5, 83280, Note_on_c, 3, 54, 0
5, 83280, Note_on_c, 3, 55, 100
5, 83760, Note_on_c, 3, 55, 0
5, 83760, Note_on_c, 3, 52, 100
5, 84000, Note_on_c, 3, 52, 0
5, 84000, Note_on_c, 3, 57, 100
5, 84240, Note_on_c, 3, 57, 0
5, 84240, Note_on_c, 3, 64, 100
5, 84600, Note_on_c, 3, 64, 0
5, 84600, Note_on_c, 3, 71, 100
5, 84720, Note_on_c, 3, 71, 0
5, 84720, Note_on_c, 3, 69, 100
5, 84840, Note_on_c, 3, 69, 0
5, 84840, Note_on_c, 3, 67, 100
5, 84960, Note_on_c, 3, 67, 0
5, 84960, Note_on_c, 3, 66, 100
5, 85440, Note_on_c, 3, 66, 0
5, 85680, Note_on_c, 3, 66, 100
5, 86400, Note_on_c, 3, 66, 0
5, 86400, Note_on_c, 3, 67, 100
5, 86640, Note_on_c, 3, 67, 0
5, 87120, Note_on_c, 3, 62, 100
5, 87480, Note_on_c, 3, 62, 0
5, 87480, Note_on_c, 3, 67, 100
5, 88320, Note_on_c, 3, 67, 0
5, 88560, Note_on_c, 3, 67, 100
5, 88920, Note_on_c, 3, 67, 0
5, 88920, Note_on_c, 3, 72, 100
5, 89280, Note_on_c, 3, 72, 0
5, 90840, Note_on_c, 3, 60, 100
5, 90960, Note_on_c, 3, 60, 0
5, 90960, Note_on_c, 3, 59, 100
5, 91080, Note_on_c, 3, 59, 0
5, 91080, Note_on_c, 3, 57, 100
5, 91200, Note_on_c, 3, 57, 0
5, 91200, Note_on_c, 3, 59, 100
5, 92160, Note_on_c, 3, 59, 0
5, 92160, End_track
6, 0, Start_track
6, 0, MIDI_port, 0
6, 0, Title_t, "Aria with 30 Variations for Harpsichord with 2 Manuals"
6, 0, End_track
7, 0, Start_track
7, 0, MIDI_port, 0
7, 0, Title_t, "--------------------------------------"
7, 0, End_track
8, 0, Start_track
8, 0, MIDI_port, 0
8, 0, Title_t, "Aria"
8, 0, End_track
9, 0, Start_track
9, 0, MIDI_port, 0
9, 0, Title_t, "--------------------------------------"
9, 0, End_track
10, 0, Start_track
10, 0, MIDI_port, 0
10, 0, Title_t, "Sequenced with Cakewalk Pro Audio by"
10, 0, End_track
11, 0, Start_track
11, 0, MIDI_port, 0
11, 0, Title_t, "David J. Grossman - dave@unpronounceable.com"
11, 0, End_track
12, 0, Start_track
12, 0, MIDI_port, 0
12, 0, Title_t, "This and other Bach MIDI files can be found at:"
12, 0, End_track
13, 0, Start_track
13, 0, MIDI_port, 0
13, 0, Title_t, "Dave's J.S. Bach Page"
13, 0, End_track
14, 0, Start_track
14, 0, MIDI_port, 0
14, 0, Title_t, "http://www.unpronounceable.com/bach"
14, 0, End_track
15, 0, Start_track
15, 0, MIDI_port, 0
15, 0, Title_t, "--------------------------------------"
15, 0, End_track
16, 0, Start_track
16, 0, MIDI_port, 0
16, 0, Title_t, "Original Filename: 988-aria.mid"
16, 0, End_track
17, 0, Start_track
17, 0, MIDI_port, 0
17, 0, Title_t, "Last Modified: October 4, 1997"
17, 0, End_track
0, 0, End_of_file
