0, 0, Header, 1, 17, 480
1, 0, Start_track
1, 0, Title_t, "untitled"
1, 0, SMPTE_offset, 96, 0, 3, 0, 0
1, 0, Time_signature, 3, 2, 24, 8
1, 0, Key_signature, 1, "major"
1, 0, Tempo, 600000
1, 0, Marker_t, "A"
1, 23040, Marker_t, "A'"
1, 46080, Marker_t, "B"
1, 69120, Marker_t, "B'"
1, 69120, End_track
2, 0, Start_track
2, 0, MIDI_port, 0
2, 0, Title_t, "Solo Harpsichord with 2 Manuals"
2, 0, Program_c, 0, 6
2, 0, Control_c, 0, 7, 100
2, 0, Control_c, 0, 10, 69
2, 120, Note_on_c, 0, 71, 100
2, 240, Note_on_c, 0, 71, 0
2, 360, Note_on_c, 0, 67, 100
2, 480, Note_on_c, 0, 67, 0
2, 600, Note_on_c, 0, 62, 100
2, 720, Note_on_c, 0, 62, 0
2, 840, Note_on_c, 0, 59, 100
2, 960, Note_on_c, 0, 59, 0
2, 1080, Note_on_c, 0, 55, 100
2, 1200, Note_on_c, 0, 55, 0
2, 1200, Note_on_c, 0, 54, 100
2, 1320, Note_on_c, 0, 54, 0
2, 1320, Note_on_c, 0, 52, 100
2, 1440, Note_on_c, 0, 52, 0
2, 1440, Note_on_c, 0, 54, 100
2, 1680, Note_on_c, 0, 54, 0
2, 1680, Note_on_c, 0, 57, 100
2, 1920, Note_on_c, 0, 57, 0
2, 1920, Note_on_c, 0, 62, 100
2, 2160, Note_on_c, 0, 62, 0
2, 2160, Note_on_c, 0, 66, 100
2, 2400, Note_on_c, 0, 66, 0
2, 2400, Note_on_c, 0, 69, 100
2, 2640, Note_on_c, 0, 69, 0
2, 2640, Note_on_c, 0, 74, 100
2, 2880, Note_on_c, 0, 74, 0
2, 3000, Note_on_c, 0, 67, 100
2, 3120, Note_on_c, 0, 67, 0
2, 3240, Note_on_c, 0, 64, 100
2, 3360, Note_on_c, 0, 64, 0
2, 3480, Note_on_c, 0, 61, 100
2, 3600, Note_on_c, 0, 61, 0
2, 3720, Note_on_c, 0, 57, 100
2, 3840, Note_on_c, 0, 57, 0
2, 3960, Note_on_c, 0, 55, 100
2, 4080, Note_on_c, 0, 55, 0
2, 4080, Note_on_c, 0, 54, 100
2, 4200, Note_on_c, 0, 54, 0
2, 4200, Note_on_c, 0, 52, 100
2, 4320, Note_on_c, 0, 52, 0
2, 4320, Note_on_c, 0, 50, 100
2, 4560, Note_on_c, 0, 50, 0
2, 4560, Note_on_c, 0, 54, 100
2, 4800, Note_on_c, 0, 54, 0
2, 4800, Note_on_c, 0, 57, 100
2, 5040, Note_on_c, 0, 57, 0
2, 5040, Note_on_c, 0, 62, 100
2, 5280, Note_on_c, 0, 62, 0
2, 5280, Note_on_c, 0, 66, 100
2, 5520, Note_on_c, 0, 66, 0
2, 5520, Note_on_c, 0, 69, 100
2, 5760, Note_on_c, 0, 69, 0
2, 5880, Note_on_c, 0, 67, 100
2, 6000, Note_on_c, 0, 67, 0
2, 6120, Note_on_c, 0, 62, 100
2, 6240, Note_on_c, 0, 62, 0
2, 6360, Note_on_c, 0, 59, 100
2, 6480, Note_on_c, 0, 59, 0
2, 6600, Note_on_c, 0, 55, 100
2, 6720, Note_on_c, 0, 55, 0
2, 6840, Note_on_c, 0, 53, 100
2, 6960, Note_on_c, 0, 53, 0
2, 6960, Note_on_c, 0, 52, 100
2, 7080, Note_on_c, 0, 52, 0
2, 7080, Note_on_c, 0, 50, 100
2, 7200, Note_on_c, 0, 50, 0
2, 7200, Note_on_c, 0, 48, 100
2, 7440, Note_on_c, 0, 48, 0
2, 7440, Note_on_c, 0, 52, 100
2, 7680, Note_on_c, 0, 52, 0
2, 7680, Note_on_c, 0, 55, 100
2, 7920, Note_on_c, 0, 55, 0
2, 7920, Note_on_c, 0, 60, 100
2, 8160, Note_on_c, 0, 60, 0
2, 8160, Note_on_c, 0, 64, 100
2, 8400, Note_on_c, 0, 64, 0
2, 8400, Note_on_c, 0, 67, 100
2, 8640, Note_on_c, 0, 67, 0
2, 8760, Note_on_c, 0, 66, 100
2, 8880, Note_on_c, 0, 66, 0
2, 9000, Note_on_c, 0, 62, 100
2, 9120, Note_on_c, 0, 62, 0
2, 9240, Note_on_c, 0, 57, 100
2, 9360, Note_on_c, 0, 57, 0
2, 9480, Note_on_c, 0, 54, 100
2, 9600, Note_on_c, 0, 54, 0
2, 9720, Note_on_c, 0, 50, 100
2, 9840, Note_on_c, 0, 50, 0
2, 9840, Note_on_c, 0, 48, 100
2, 9960, Note_on_c, 0, 48, 0
2, 9960, Note_on_c, 0, 50, 100
2, 10080, Note_on_c, 0, 50, 0
2, 10080, Note_on_c, 0, 43, 100
2, 10320, Note_on_c, 0, 43, 0
2, 10320, Note_on_c, 0, 47, 100
2, 10560, Note_on_c, 0, 47, 0
2, 10560, Note_on_c, 0, 50, 100
2, 10800, Note_on_c, 0, 50, 0
2, 10800, Note_on_c, 0, 55, 100
2, 11040, Note_on_c, 0, 55, 0
2, 11040, Note_on_c, 0, 54, 100
2, 11280, Note_on_c, 0, 54, 0
2, 11280, Note_on_c, 0, 60, 100
2, 11520, Note_on_c, 0, 60, 0
2, 11520, Note_on_c, 0, 59, 100
2, 11600, Note_on_c, 0, 59, 0
2, 11600, Note_on_c, 0, 57, 100
2, 11680, Note_on_c, 0, 57, 0
2, 11680, Note_on_c, 0, 59, 100
2, 11760, Note_on_c, 0, 59, 0
2, 11760, Note_on_c, 0, 60, 100
2, 11840, Note_on_c, 0, 60, 0
2, 11840, Note_on_c, 0, 59, 100
2, 11920, Note_on_c, 0, 59, 0
2, 11920, Note_on_c, 0, 60, 100
2, 12000, Note_on_c, 0, 60, 0
2, 12000, Note_on_c, 0, 62, 100
2, 12080, Note_on_c, 0, 62, 0
2, 12080, Note_on_c, 0, 60, 100
2, 12160, Note_on_c, 0, 60, 0
2, 12160, Note_on_c, 0, 62, 100
2, 12240, Note_on_c, 0, 62, 0
2, 12240, Note_on_c, 0, 64, 100
2, 12320, Note_on_c, 0, 64, 0
2, 12320, Note_on_c, 0, 62, 100
2, 12400, Note_on_c, 0, 62, 0
2, 12400, Note_on_c, 0, 64, 100
2, 12480, Note_on_c, 0, 64, 0
2, 12480, Note_on_c, 0, 66, 100
2, 12560, Note_on_c, 0, 66, 0
2, 12560, Note_on_c, 0, 64, 100
2, 12640, Note_on_c, 0, 64, 0
2, 12640, Note_on_c, 0, 66, 100
2, 12720, Note_on_c, 0, 66, 0
2, 12720, Note_on_c, 0, 67, 100
2, 12800, Note_on_c, 0, 67, 0
2, 12800, Note_on_c, 0, 66, 100
2, 12880, Note_on_c, 0, 66, 0
2, 12880, Note_on_c, 0, 67, 100
2, 12960, Note_on_c, 0, 67, 0
2, 12960, Note_on_c, 0, 69, 100
2, 13040, Note_on_c, 0, 69, 0
2, 13040, Note_on_c, 0, 67, 100
2, 13120, Note_on_c, 0, 67, 0
2, 13120, Note_on_c, 0, 69, 100
2, 13200, Note_on_c, 0, 69, 0
2, 13200, Note_on_c, 0, 71, 100
2, 13280, Note_on_c, 0, 71, 0
2, 13280, Note_on_c, 0, 69, 100
2, 13360, Note_on_c, 0, 69, 0
2, 13360, Note_on_c, 0, 71, 100
2, 13440, Note_on_c, 0, 71, 0
2, 13440, Note_on_c, 0, 73, 100
2, 13520, Note_on_c, 0, 73, 0
2, 13520, Note_on_c, 0, 71, 100
2, 13600, Note_on_c, 0, 71, 0
2, 13600, Note_on_c, 0, 73, 100
2, 13680, Note_on_c, 0, 73, 0
2, 13680, Note_on_c, 0, 74, 100
2, 13760, Note_on_c, 0, 74, 0
2, 13760, Note_on_c, 0, 73, 100
2, 13840, Note_on_c, 0, 73, 0
2, 13840, Note_on_c, 0, 74, 100
2, 13920, Note_on_c, 0, 74, 0
2, 13920, Note_on_c, 0, 76, 100
2, 14000, Note_on_c, 0, 76, 0
2, 14000, Note_on_c, 0, 74, 100
2, 14080, Note_on_c, 0, 74, 0
2, 14080, Note_on_c, 0, 76, 100
2, 14160, Note_on_c, 0, 76, 0
2, 14160, Note_on_c, 0, 78, 100
2, 14240, Note_on_c, 0, 78, 0
2, 14240, Note_on_c, 0, 76, 100
2, 14320, Note_on_c, 0, 76, 0
2, 14320, Note_on_c, 0, 78, 100
2, 14400, Note_on_c, 0, 78, 0
2, 14400, Note_on_c, 0, 79, 100
2, 14640, Note_on_c, 0, 79, 0
2, 14880, Note_on_c, 0, 52, 100
2, 14920, Note_on_c, 0, 52, 0
2, 14920, Note_on_c, 0, 50, 100
2, 14960, Note_on_c, 0, 50, 0
2, 14960, Note_on_c, 0, 52, 100
2, 15360, Note_on_c, 0, 52, 0
2, 15600, Note_on_c, 0, 71, 100
2, 15840, Note_on_c, 0, 71, 0
2, 15840, Note_on_c, 0, 79, 100
2, 16080, Note_on_c, 0, 79, 0
2, 16320, Note_on_c, 0, 49, 100
2, 16360, Note_on_c, 0, 49, 0
2, 16360, Note_on_c, 0, 47, 100
2, 16400, Note_on_c, 0, 47, 0
2, 16400, Note_on_c, 0, 49, 100
2, 16800, Note_on_c, 0, 49, 0
2, 17040, Note_on_c, 0, 79, 100
2, 17280, Note_on_c, 0, 79, 0
2, 17280, Note_on_c, 0, 78, 100
2, 17360, Note_on_c, 0, 78, 0
2, 17360, Note_on_c, 0, 81, 100
2, 17440, Note_on_c, 0, 81, 0
2, 17440, Note_on_c, 0, 74, 100
2, 17520, Note_on_c, 0, 74, 0
2, 17520, Note_on_c, 0, 76, 100
2, 17600, Note_on_c, 0, 76, 0
2, 17600, Note_on_c, 0, 79, 100
2, 17680, Note_on_c, 0, 79, 0
2, 17680, Note_on_c, 0, 73, 100
2, 17760, Note_on_c, 0, 73, 0
2, 17760, Note_on_c, 0, 74, 100
2, 17840, Note_on_c, 0, 74, 0
2, 17840, Note_on_c, 0, 78, 100
2, 17920, Note_on_c, 0, 78, 0
2, 17920, Note_on_c, 0, 71, 100
2, 18000, Note_on_c, 0, 71, 0
2, 18000, Note_on_c, 0, 72, 100
2, 18080, Note_on_c, 0, 72, 0
2, 18080, Note_on_c, 0, 76, 100
2, 18160, Note_on_c, 0, 76, 0
2, 18160, Note_on_c, 0, 69, 100
2, 18240, Note_on_c, 0, 69, 0
2, 18240, Note_on_c, 0, 71, 100
2, 18320, Note_on_c, 0, 71, 0
2, 18320, Note_on_c, 0, 74, 100
2, 18400, Note_on_c, 0, 74, 0
2, 18400, Note_on_c, 0, 67, 100
2, 18480, Note_on_c, 0, 67, 0
2, 18480, Note_on_c, 0, 69, 100
2, 18560, Note_on_c, 0, 69, 0
2, 18560, Note_on_c, 0, 72, 100
2, 18640, Note_on_c, 0, 72, 0
2, 18640, Note_on_c, 0, 66, 100
2, 18720, Note_on_c, 0, 66, 0
2, 18720, Note_on_c, 0, 67, 100
2, 18960, Note_on_c, 0, 67, 0
2, 18960, Note_on_c, 0, 55, 100
2, 19200, Note_on_c, 0, 55, 0
2, 19200, Note_on_c, 0, 54, 100
2, 19440, Note_on_c, 0, 54, 0
2, 19440, Note_on_c, 0, 57, 100
2, 19680, Note_on_c, 0, 57, 0
2, 19680, Note_on_c, 0, 50, 100
2, 19920, Note_on_c, 0, 50, 0
2, 19920, Note_on_c, 0, 62, 100
2, 20160, Note_on_c, 0, 62, 0
2, 20160, Note_on_c, 0, 61, 100
2, 20240, Note_on_c, 0, 61, 0
2, 20240, Note_on_c, 0, 57, 100
2, 20320, Note_on_c, 0, 57, 0
2, 20320, Note_on_c, 0, 59, 100
2, 20400, Note_on_c, 0, 59, 0
2, 20400, Note_on_c, 0, 61, 100
2, 20480, Note_on_c, 0, 61, 0
2, 20480, Note_on_c, 0, 62, 100
2, 20560, Note_on_c, 0, 62, 0
2, 20560, Note_on_c, 0, 64, 100
2, 20640, Note_on_c, 0, 64, 0
2, 20640, Note_on_c, 0, 66, 100
2, 20960, Note_on_c, 0, 66, 0
2, 20960, Note_on_c, 0, 64, 100
2, 21040, Note_on_c, 0, 64, 0
2, 21040, Note_on_c, 0, 62, 100
2, 21120, Note_on_c, 0, 62, 0
2, 21120, Note_on_c, 0, 71, 100
2, 21360, Note_on_c, 0, 71, 0
2, 21360, Note_on_c, 0, 74, 100
2, 21420, Note_on_c, 0, 74, 0
2, 21420, Note_on_c, 0, 73, 100
2, 21480, Note_on_c, 0, 73, 0
2, 21480, Note_on_c, 0, 71, 100
2, 21540, Note_on_c, 0, 71, 0
2, 21540, Note_on_c, 0, 73, 100
2, 21600, Note_on_c, 0, 73, 0
2, 21600, Note_on_c, 0, 74, 100
2, 21680, Note_on_c, 0, 74, 0
2, 21680, Note_on_c, 0, 69, 100
2, 21760, Note_on_c, 0, 69, 0
2, 21760, Note_on_c, 0, 66, 100
2, 21840, Note_on_c, 0, 66, 0
2, 21840, Note_on_c, 0, 62, 100
2, 21920, Note_on_c, 0, 62, 0
2, 21920, Note_on_c, 0, 57, 100
2, 22000, Note_on_c, 0, 57, 0
2, 22000, Note_on_c, 0, 54, 100
2, 22080, Note_on_c, 0, 54, 0
2, 22080, Note_on_c, 0, 50, 100
2, 22320, Note_on_c, 0, 50, 0
2, 23160, Note_on_c, 0, 71, 100
2, 23280, Note_on_c, 0, 71, 0
2, 23400, Note_on_c, 0, 67, 100
2, 23520, Note_on_c, 0, 67, 0
2, 23640, Note_on_c, 0, 62, 100
2, 23760, Note_on_c, 0, 62, 0
2, 23880, Note_on_c, 0, 59, 100
2, 24000, Note_on_c, 0, 59, 0
2, 24120, Note_on_c, 0, 55, 100
2, 24240, Note_on_c, 0, 55, 0
2, 24240, Note_on_c, 0, 54, 100
2, 24360, Note_on_c, 0, 54, 0
2, 24360, Note_on_c, 0, 52, 100
2, 24480, Note_on_c, 0, 52, 0
2, 24480, Note_on_c, 0, 54, 100
2, 24720, Note_on_c, 0, 54, 0
2, 24720, Note_on_c, 0, 57, 100
2, 24960, Note_on_c, 0, 57, 0
2, 24960, Note_on_c, 0, 62, 100
2, 25200, Note_on_c, 0, 62, 0
2, 25200, Note_on_c, 0, 66, 100
2, 25440, Note_on_c, 0, 66, 0
2, 25440, Note_on_c, 0, 69, 100
2, 25680, Note_on_c, 0, 69, 0
2, 25680, Note_on_c, 0, 74, 100
2, 25920, Note_on_c, 0, 74, 0
2, 26040, Note_on_c, 0, 67, 100
2, 26160, Note_on_c, 0, 67, 0
2, 26280, Note_on_c, 0, 64, 100
2, 26400, Note_on_c, 0, 64, 0
2, 26520, Note_on_c, 0, 61, 100
2, 26640, Note_on_c, 0, 61, 0
2, 26760, Note_on_c, 0, 57, 100
2, 26880, Note_on_c, 0, 57, 0
2, 27000, Note_on_c, 0, 55, 100
2, 27120, Note_on_c, 0, 55, 0
2, 27120, Note_on_c, 0, 54, 100
2, 27240, Note_on_c, 0, 54, 0
2, 27240, Note_on_c, 0, 52, 100
2, 27360, Note_on_c, 0, 52, 0
2, 27360, Note_on_c, 0, 50, 100
2, 27600, Note_on_c, 0, 50, 0
2, 27600, Note_on_c, 0, 54, 100
2, 27840, Note_on_c, 0, 54, 0
2, 27840, Note_on_c, 0, 57, 100
2, 28080, Note_on_c, 0, 57, 0
2, 28080, Note_on_c, 0, 62, 100
2, 28320, Note_on_c, 0, 62, 0
2, 28320, Note_on_c, 0, 66, 100
2, 28560, Note_on_c, 0, 66, 0
2, 28560, Note_on_c, 0, 69, 100
2, 28800, Note_on_c, 0, 69, 0
2, 28920, Note_on_c, 0, 67, 100
2, 29040, Note_on_c, 0, 67, 0
2, 29160, Note_on_c, 0, 62, 100
2, 29280, Note_on_c, 0, 62, 0
2, 29400, Note_on_c, 0, 59, 100
2, 29520, Note_on_c, 0, 59, 0
2, 29640, Note_on_c, 0, 55, 100
2, 29760, Note_on_c, 0, 55, 0
2, 29880, Note_on_c, 0, 53, 100
2, 30000, Note_on_c, 0, 53, 0
2, 30000, Note_on_c, 0, 52, 100
2, 30120, Note_on_c, 0, 52, 0
2, 30120, Note_on_c, 0, 50, 100
2, 30240, Note_on_c, 0, 50, 0
2, 30240, Note_on_c, 0, 48, 100
2, 30480, Note_on_c, 0, 48, 0
2, 30480, Note_on_c, 0, 52, 100
2, 30720, Note_on_c, 0, 52, 0
2, 30720, Note_on_c, 0, 55, 100
2, 30960, Note_on_c, 0, 55, 0
2, 30960, Note_on_c, 0, 60, 100
2, 31200, Note_on_c, 0, 60, 0
2, 31200, Note_on_c, 0, 64, 100
2, 31440, Note_on_c, 0, 64, 0
2, 31440, Note_on_c, 0, 67, 100
2, 31680, Note_on_c, 0, 67, 0
2, 31800, Note_on_c, 0, 66, 100
2, 31920, Note_on_c, 0, 66, 0
2, 32040, Note_on_c, 0, 62, 100
2, 32160, Note_on_c, 0, 62, 0
2, 32280, Note_on_c, 0, 57, 100
2, 32400, Note_on_c, 0, 57, 0
2, 32520, Note_on_c, 0, 54, 100
2, 32640, Note_on_c, 0, 54, 0
2, 32760, Note_on_c, 0, 50, 100
2, 32880, Note_on_c, 0, 50, 0
2, 32880, Note_on_c, 0, 48, 100
2, 33000, Note_on_c, 0, 48, 0
2, 33000, Note_on_c, 0, 50, 100
2, 33120, Note_on_c, 0, 50, 0
2, 33120, Note_on_c, 0, 43, 100
2, 33360, Note_on_c, 0, 43, 0
2, 33360, Note_on_c, 0, 47, 100
2, 33600, Note_on_c, 0, 47, 0
2, 33600, Note_on_c, 0, 50, 100
2, 33840, Note_on_c, 0, 50, 0
2, 33840, Note_on_c, 0, 55, 100
2, 34080, Note_on_c, 0, 55, 0
2, 34080, Note_on_c, 0, 54, 100
2, 34320, Note_on_c, 0, 54, 0
2, 34320, Note_on_c, 0, 60, 100
2, 34560, Note_on_c, 0, 60, 0
2, 34560, Note_on_c, 0, 59, 100
2, 34640, Note_on_c, 0, 59, 0
2, 34640, Note_on_c, 0, 57, 100
2, 34720, Note_on_c, 0, 57, 0
2, 34720, Note_on_c, 0, 59, 100
2, 34800, Note_on_c, 0, 59, 0
2, 34800, Note_on_c, 0, 60, 100
2, 34880, Note_on_c, 0, 60, 0
2, 34880, Note_on_c, 0, 59, 100
2, 34960, Note_on_c, 0, 59, 0
2, 34960, Note_on_c, 0, 60, 100
2, 35040, Note_on_c, 0, 60, 0
2, 35040, Note_on_c, 0, 62, 100
2, 35120, Note_on_c, 0, 62, 0
2, 35120, Note_on_c, 0, 60, 100
2, 35200, Note_on_c, 0, 60, 0
2, 35200, Note_on_c, 0, 62, 100
2, 35280, Note_on_c, 0, 62, 0
2, 35280, Note_on_c, 0, 64, 100
2, 35360, Note_on_c, 0, 64, 0
2, 35360, Note_on_c, 0, 62, 100
2, 35440, Note_on_c, 0, 62, 0
2, 35440, Note_on_c, 0, 64, 100
2, 35520, Note_on_c, 0, 64, 0
2, 35520, Note_on_c, 0, 66, 100
2, 35600, Note_on_c, 0, 66, 0
2, 35600, Note_on_c, 0, 64, 100
2, 35680, Note_on_c, 0, 64, 0
2, 35680, Note_on_c, 0, 66, 100
2, 35760, Note_on_c, 0, 66, 0
2, 35760, Note_on_c, 0, 67, 100
2, 35840, Note_on_c, 0, 67, 0
2, 35840, Note_on_c, 0, 66, 100
2, 35920, Note_on_c, 0, 66, 0
2, 35920, Note_on_c, 0, 67, 100
2, 36000, Note_on_c, 0, 67, 0
2, 36000, Note_on_c, 0, 69, 100
2, 36080, Note_on_c, 0, 69, 0
2, 36080, Note_on_c, 0, 67, 100
2, 36160, Note_on_c, 0, 67, 0
2, 36160, Note_on_c, 0, 69, 100
2, 36240, Note_on_c, 0, 69, 0
2, 36240, Note_on_c, 0, 71, 100
2, 36320, Note_on_c, 0, 71, 0
2, 36320, Note_on_c, 0, 69, 100
2, 36400, Note_on_c, 0, 69, 0
2, 36400, Note_on_c, 0, 71, 100
2, 36480, Note_on_c, 0, 71, 0
2, 36480, Note_on_c, 0, 73, 100
2, 36560, Note_on_c, 0, 73, 0
2, 36560, Note_on_c, 0, 71, 100
2, 36640, Note_on_c, 0, 71, 0
2, 36640, Note_on_c, 0, 73, 100
2, 36720, Note_on_c, 0, 73, 0
2, 36720, Note_on_c, 0, 74, 100
2, 36800, Note_on_c, 0, 74, 0
2, 36800, Note_on_c, 0, 73, 100
2, 36880, Note_on_c, 0, 73, 0
2, 36880, Note_on_c, 0, 74, 100
2, 36960, Note_on_c, 0, 74, 0
2, 36960, Note_on_c, 0, 76, 100
2, 37040, Note_on_c, 0, 76, 0
2, 37040, Note_on_c, 0, 74, 100
2, 37120, Note_on_c, 0, 74, 0
2, 37120, Note_on_c, 0, 76, 100
2, 37200, Note_on_c, 0, 76, 0
2, 37200, Note_on_c, 0, 78, 100
2, 37280, Note_on_c, 0, 78, 0
2, 37280, Note_on_c, 0, 76, 100
2, 37360, Note_on_c, 0, 76, 0
2, 37360, Note_on_c, 0, 78, 100
2, 37440, Note_on_c, 0, 78, 0
2, 37440, Note_on_c, 0, 79, 100
2, 37680, Note_on_c, 0, 79, 0
2, 37920, Note_on_c, 0, 52, 100
2, 37960, Note_on_c, 0, 52, 0
2, 37960, Note_on_c, 0, 50, 100
2, 38000, Note_on_c, 0, 50, 0
2, 38000, Note_on_c, 0, 52, 100
2, 38400, Note_on_c, 0, 52, 0
2, 38640, Note_on_c, 0, 71, 100
2, 38880, Note_on_c, 0, 71, 0
2, 38880, Note_on_c, 0, 79, 100
2, 39120, Note_on_c, 0, 79, 0
2, 39360, Note_on_c, 0, 49, 100
2, 39400, Note_on_c, 0, 49, 0
2, 39400, Note_on_c, 0, 47, 100
2, 39440, Note_on_c, 0, 47, 0
2, 39440, Note_on_c, 0, 49, 100
2, 39840, Note_on_c, 0, 49, 0
2, 40080, Note_on_c, 0, 79, 100
2, 40320, Note_on_c, 0, 79, 0
2, 40320, Note_on_c, 0, 78, 100
2, 40400, Note_on_c, 0, 78, 0
2, 40400, Note_on_c, 0, 81, 100
2, 40480, Note_on_c, 0, 81, 0
2, 40480, Note_on_c, 0, 74, 100
2, 40560, Note_on_c, 0, 74, 0
2, 40560, Note_on_c, 0, 76, 100
2, 40640, Note_on_c, 0, 76, 0
2, 40640, Note_on_c, 0, 79, 100
2, 40720, Note_on_c, 0, 79, 0
2, 40720, Note_on_c, 0, 73, 100
2, 40800, Note_on_c, 0, 73, 0
2, 40800, Note_on_c, 0, 74, 100
2, 40880, Note_on_c, 0, 74, 0
2, 40880, Note_on_c, 0, 78, 100
2, 40960, Note_on_c, 0, 78, 0
2, 40960, Note_on_c, 0, 71, 100
2, 41040, Note_on_c, 0, 71, 0
2, 41040, Note_on_c, 0, 72, 100
2, 41120, Note_on_c, 0, 72, 0
2, 41120, Note_on_c, 0, 76, 100
2, 41200, Note_on_c, 0, 76, 0
2, 41200, Note_on_c, 0, 69, 100
2, 41280, Note_on_c, 0, 69, 0
2, 41280, Note_on_c, 0, 71, 100
2, 41360, Note_on_c, 0, 71, 0
2, 41360, Note_on_c, 0, 74, 100
2, 41440, Note_on_c, 0, 74, 0
2, 41440, Note_on_c, 0, 67, 100
2, 41520, Note_on_c, 0, 67, 0
2, 41520, Note_on_c, 0, 69, 100
2, 41600, Note_on_c, 0, 69, 0
2, 41600, Note_on_c, 0, 72, 100
2, 41680, Note_on_c, 0, 72, 0
2, 41680, Note_on_c, 0, 66, 100
2, 41760, Note_on_c, 0, 66, 0
2, 41760, Note_on_c, 0, 67, 100
2, 42000, Note_on_c, 0, 67, 0
2, 42000, Note_on_c, 0, 55, 100
2, 42240, Note_on_c, 0, 55, 0
2, 42240, Note_on_c, 0, 54, 100
2, 42480, Note_on_c, 0, 54, 0
2, 42480, Note_on_c, 0, 57, 100
2, 42720, Note_on_c, 0, 57, 0
2, 42720, Note_on_c, 0, 50, 100
2, 42960, Note_on_c, 0, 50, 0
2, 42960, Note_on_c, 0, 62, 100
2, 43200, Note_on_c, 0, 62, 0
2, 43200, Note_on_c, 0, 61, 100
2, 43280, Note_on_c, 0, 61, 0
2, 43280, Note_on_c, 0, 57, 100
2, 43360, Note_on_c, 0, 57, 0
2, 43360, Note_on_c, 0, 59, 100
2, 43440, Note_on_c, 0, 59, 0
2, 43440, Note_on_c, 0, 61, 100
2, 43520, Note_on_c, 0, 61, 0
2, 43520, Note_on_c, 0, 62, 100
2, 43600, Note_on_c, 0, 62, 0
2, 43600, Note_on_c, 0, 64, 100
2, 43680, Note_on_c, 0, 64, 0
2, 43680, Note_on_c, 0, 66, 100
2, 44000, Note_on_c, 0, 66, 0
2, 44000, Note_on_c, 0, 64, 100
2, 44080, Note_on_c, 0, 64, 0
2, 44080, Note_on_c, 0, 62, 100
2, 44160, Note_on_c, 0, 62, 0
2, 44160, Note_on_c, 0, 71, 100
2, 44400, Note_on_c, 0, 71, 0
2, 44400, Note_on_c, 0, 74, 100
2, 44460, Note_on_c, 0, 74, 0
2, 44460, Note_on_c, 0, 73, 100
2, 44520, Note_on_c, 0, 73, 0
2, 44520, Note_on_c, 0, 71, 100
2, 44580, Note_on_c, 0, 71, 0
2, 44580, Note_on_c, 0, 73, 100
2, 44640, Note_on_c, 0, 73, 0
2, 44640, Note_on_c, 0, 74, 100
2, 44720, Note_on_c, 0, 74, 0
2, 44720, Note_on_c, 0, 69, 100
2, 44800, Note_on_c, 0, 69, 0
2, 44800, Note_on_c, 0, 66, 100
2, 44880, Note_on_c, 0, 66, 0
2, 44880, Note_on_c, 0, 62, 100
2, 44960, Note_on_c, 0, 62, 0
2, 44960, Note_on_c, 0, 57, 100
2, 45040, Note_on_c, 0, 57, 0
2, 45040, Note_on_c, 0, 54, 100
2, 45120, Note_on_c, 0, 54, 0
2, 45120, Note_on_c, 0, 50, 100
2, 45360, Note_on_c, 0, 50, 0
2, 46200, Note_on_c, 0, 81, 100
2, 46320, Note_on_c, 0, 81, 0
2, 46440, Note_on_c, 0, 78, 100
2, 46560, Note_on_c, 0, 78, 0
2, 46680, Note_on_c, 0, 74, 100
2, 46800, Note_on_c, 0, 74, 0
2, 46920, Note_on_c, 0, 69, 100
2, 47040, Note_on_c, 0, 69, 0
2, 47160, Note_on_c, 0, 66, 100
2, 47280, Note_on_c, 0, 66, 0
2, 47400, Note_on_c, 0, 62, 100
2, 47520, Note_on_c, 0, 62, 0
2, 47640, Note_on_c, 0, 59, 100
2, 47760, Note_on_c, 0, 59, 0
2, 47880, Note_on_c, 0, 55, 100
2, 48000, Note_on_c, 0, 55, 0
2, 48120, Note_on_c, 0, 50, 100
2, 48240, Note_on_c, 0, 50, 0
2, 48360, Note_on_c, 0, 47, 100
2, 48480, Note_on_c, 0, 47, 0
2, 48600, Note_on_c, 0, 43, 100
2, 48720, Note_on_c, 0, 43, 0
2, 48720, Note_on_c, 0, 45, 100
2, 48840, Note_on_c, 0, 45, 0
2, 48840, Note_on_c, 0, 47, 100
2, 48960, Note_on_c, 0, 47, 0
2, 48960, Note_on_c, 0, 48, 100
2, 49200, Note_on_c, 0, 48, 0
2, 49200, Note_on_c, 0, 55, 100
2, 49440, Note_on_c, 0, 55, 0
2, 49440, Note_on_c, 0, 60, 100
2, 49680, Note_on_c, 0, 60, 0
2, 49680, Note_on_c, 0, 64, 100
2, 49920, Note_on_c, 0, 64, 0
2, 49920, Note_on_c, 0, 57, 100
2, 50160, Note_on_c, 0, 57, 0
2, 50160, Note_on_c, 0, 72, 100
2, 50480, Note_on_c, 0, 72, 0
2, 50480, Note_on_c, 0, 71, 100
2, 50560, Note_on_c, 0, 71, 0
2, 50560, Note_on_c, 0, 70, 100
2, 50640, Note_on_c, 0, 70, 0
2, 50640, Note_on_c, 0, 71, 100
2, 50720, Note_on_c, 0, 71, 0
2, 50720, Note_on_c, 0, 73, 100
2, 50800, Note_on_c, 0, 73, 0
2, 50800, Note_on_c, 0, 75, 100
2, 50880, Note_on_c, 0, 75, 0
2, 50880, Note_on_c, 0, 76, 100
2, 50960, Note_on_c, 0, 76, 0
2, 50960, Note_on_c, 0, 75, 100
2, 51040, Note_on_c, 0, 75, 0
2, 51040, Note_on_c, 0, 73, 100
2, 51120, Note_on_c, 0, 73, 0
2, 51120, Note_on_c, 0, 75, 100
2, 51200, Note_on_c, 0, 75, 0
2, 51200, Note_on_c, 0, 76, 100
2, 51280, Note_on_c, 0, 76, 0
2, 51280, Note_on_c, 0, 78, 100
2, 51360, Note_on_c, 0, 78, 0
2, 51360, Note_on_c, 0, 79, 100
2, 51440, Note_on_c, 0, 79, 0
2, 51440, Note_on_c, 0, 78, 100
2, 51520, Note_on_c, 0, 78, 0
2, 51520, Note_on_c, 0, 76, 100
2, 51600, Note_on_c, 0, 76, 0
2, 51600, Note_on_c, 0, 78, 100
2, 51680, Note_on_c, 0, 78, 0
2, 51680, Note_on_c, 0, 79, 100
2, 51760, Note_on_c, 0, 79, 0
2, 51760, Note_on_c, 0, 81, 100
2, 51840, Note_on_c, 0, 81, 0
2, 51840, Note_on_c, 0, 83, 100
2, 51920, Note_on_c, 0, 83, 0
2, 51920, Note_on_c, 0, 81, 100
2, 52000, Note_on_c, 0, 81, 0
2, 52000, Note_on_c, 0, 79, 100
2, 52080, Note_on_c, 0, 79, 0
2, 52080, Note_on_c, 0, 81, 100
2, 52160, Note_on_c, 0, 81, 0
2, 52160, Note_on_c, 0, 83, 100
2, 52240, Note_on_c, 0, 83, 0
2, 52240, Note_on_c, 0, 84, 100
2, 52320, Note_on_c, 0, 84, 0
2, 52320, Note_on_c, 0, 75, 100
2, 52560, Note_on_c, 0, 75, 0
2, 52560, Note_on_c, 0, 84, 100
2, 52800, Note_on_c, 0, 84, 0
2, 52800, Note_on_c, 0, 83, 100
2, 53040, Note_on_c, 0, 83, 0
2, 53040, Note_on_c, 0, 74, 100
2, 53360, Note_on_c, 0, 74, 0
2, 53360, Note_on_c, 0, 73, 100
2, 53440, Note_on_c, 0, 73, 0
2, 53440, Note_on_c, 0, 75, 100
2, 53520, Note_on_c, 0, 75, 0
2, 53520, Note_on_c, 0, 76, 100
2, 53600, Note_on_c, 0, 76, 0
2, 53600, Note_on_c, 0, 78, 100
2, 53680, Note_on_c, 0, 78, 0
2, 53680, Note_on_c, 0, 79, 100
2, 53760, Note_on_c, 0, 79, 0
2, 53760, Note_on_c, 0, 70, 100
2, 54000, Note_on_c, 0, 70, 0
2, 54000, Note_on_c, 0, 79, 100
2, 54240, Note_on_c, 0, 79, 0
2, 54240, Note_on_c, 0, 78, 100
2, 54480, Note_on_c, 0, 78, 0
2, 54480, Note_on_c, 0, 69, 100
2, 54720, Note_on_c, 0, 69, 0
2, 54720, Note_on_c, 0, 67, 100
2, 54960, Note_on_c, 0, 67, 0
2, 54960, Note_on_c, 0, 63, 100
2, 55200, Note_on_c, 0, 63, 0
2, 55200, Note_on_c, 0, 64, 100
2, 55440, Note_on_c, 0, 64, 0
2, 55440, Note_on_c, 0, 60, 100
2, 55680, Note_on_c, 0, 60, 0
2, 55680, Note_on_c, 0, 51, 100
2, 55920, Note_on_c, 0, 51, 0
2, 55920, Note_on_c, 0, 75, 100
2, 56160, Note_on_c, 0, 75, 0
2, 56160, Note_on_c, 0, 76, 100
2, 56400, Note_on_c, 0, 76, 0
2, 56400, Note_on_c, 0, 64, 100
2, 56640, Note_on_c, 0, 64, 0
2, 56720, Note_on_c, 0, 67, 100
2, 56800, Note_on_c, 0, 67, 0
2, 56800, Note_on_c, 0, 71, 100
2, 56880, Note_on_c, 0, 71, 0
2, 56880, Note_on_c, 0, 76, 100
2, 56960, Note_on_c, 0, 76, 0
2, 56960, Note_on_c, 0, 79, 100
2, 57040, Note_on_c, 0, 79, 0
2, 57040, Note_on_c, 0, 75, 100
2, 57120, Note_on_c, 0, 75, 0
2, 57120, Note_on_c, 0, 76, 100
2, 57200, Note_on_c, 0, 76, 0
2, 57200, Note_on_c, 0, 71, 100
2, 57280, Note_on_c, 0, 71, 0
2, 57280, Note_on_c, 0, 67, 100
2, 57360, Note_on_c, 0, 67, 0
2, 57440, Note_on_c, 0, 68, 100
2, 57520, Note_on_c, 0, 68, 0
2, 57540, Note_on_c, 0, 77, 100
2, 57600, Note_on_c, 0, 76, 100
2, 57620, Note_on_c, 0, 77, 0
2, 57680, Note_on_c, 0, 76, 0
2, 57680, Note_on_c, 0, 72, 100
2, 57760, Note_on_c, 0, 72, 0
2, 57760, Note_on_c, 0, 69, 100
2, 57840, Note_on_c, 0, 69, 0
2, 57920, Note_on_c, 0, 62, 100
2, 58000, Note_on_c, 0, 62, 0
2, 58000, Note_on_c, 0, 71, 100
2, 58080, Note_on_c, 0, 71, 0
2, 58160, Note_on_c, 0, 60, 100
2, 58240, Note_on_c, 0, 60, 0
2, 58240, Note_on_c, 0, 69, 100
2, 58320, Note_on_c, 0, 69, 0
2, 58400, Note_on_c, 0, 59, 100
2, 58480, Note_on_c, 0, 59, 0
2, 58480, Note_on_c, 0, 67, 100
2, 58560, Note_on_c, 0, 67, 0
2, 58640, Note_on_c, 0, 60, 100
2, 58720, Note_on_c, 0, 60, 0
2, 58720, Note_on_c, 0, 69, 100
2, 58800, Note_on_c, 0, 69, 0
2, 58880, Note_on_c, 0, 66, 100
2, 58960, Note_on_c, 0, 66, 0
2, 58960, Note_on_c, 0, 75, 100
2, 59040, Note_on_c, 0, 75, 0
2, 59040, Note_on_c, 0, 74, 100
2, 59120, Note_on_c, 0, 74, 0
2, 59120, Note_on_c, 0, 71, 100
2, 59200, Note_on_c, 0, 71, 0
2, 59200, Note_on_c, 0, 67, 100
2, 59280, Note_on_c, 0, 67, 0
2, 59360, Note_on_c, 0, 60, 100
2, 59440, Note_on_c, 0, 60, 0
2, 59440, Note_on_c, 0, 69, 100
2, 59520, Note_on_c, 0, 69, 0
2, 59600, Note_on_c, 0, 59, 100
2, 59680, Note_on_c, 0, 59, 0
2, 59680, Note_on_c, 0, 67, 100
2, 59760, Note_on_c, 0, 67, 0
2, 59840, Note_on_c, 0, 57, 100
2, 59920, Note_on_c, 0, 57, 0
2, 59920, Note_on_c, 0, 66, 100
2, 60000, Note_on_c, 0, 66, 0
2, 60080, Note_on_c, 0, 59, 100
2, 60160, Note_on_c, 0, 59, 0
2, 60160, Note_on_c, 0, 67, 100
2, 60240, Note_on_c, 0, 67, 0
2, 60320, Note_on_c, 0, 64, 100
2, 60400, Note_on_c, 0, 64, 0
2, 60400, Note_on_c, 0, 74, 100
2, 60480, Note_on_c, 0, 74, 0
2, 60480, Note_on_c, 0, 72, 100
2, 60560, Note_on_c, 0, 72, 0
2, 60560, Note_on_c, 0, 69, 100
2, 60640, Note_on_c, 0, 69, 0
2, 60640, Note_on_c, 0, 64, 100
2, 60720, Note_on_c, 0, 64, 0
2, 60720, Note_on_c, 0, 60, 100
2, 60840, Note_on_c, 0, 60, 0
2, 60960, Note_on_c, 0, 60, 100
2, 61080, Note_on_c, 0, 60, 0
2, 61200, Note_on_c, 0, 60, 100
2, 61320, Note_on_c, 0, 60, 0
2, 61440, Note_on_c, 0, 60, 100
2, 61560, Note_on_c, 0, 60, 0
2, 61680, Note_on_c, 0, 72, 100
2, 61920, Note_on_c, 0, 72, 0
2, 61920, Note_on_c, 0, 72, 100
2, 62000, Note_on_c, 0, 72, 0
2, 62000, Note_on_c, 0, 69, 100
2, 62080, Note_on_c, 0, 69, 0
2, 62080, Note_on_c, 0, 66, 100
2, 62160, Note_on_c, 0, 66, 0
2, 62160, Note_on_c, 0, 62, 100
2, 62280, Note_on_c, 0, 62, 0
2, 62400, Note_on_c, 0, 62, 100
2, 62520, Note_on_c, 0, 62, 0
2, 62640, Note_on_c, 0, 62, 100
2, 62760, Note_on_c, 0, 62, 0
2, 62880, Note_on_c, 0, 62, 100
2, 63000, Note_on_c, 0, 62, 0
2, 63120, Note_on_c, 0, 72, 100
2, 63360, Note_on_c, 0, 72, 0
2, 63360, Note_on_c, 0, 71, 100
2, 63440, Note_on_c, 0, 71, 0
2, 63440, Note_on_c, 0, 67, 100
2, 63520, Note_on_c, 0, 67, 0
2, 63520, Note_on_c, 0, 74, 100
2, 63600, Note_on_c, 0, 74, 0
2, 63600, Note_on_c, 0, 72, 100
2, 63680, Note_on_c, 0, 72, 0
2, 63680, Note_on_c, 0, 69, 100
2, 63760, Note_on_c, 0, 69, 0
2, 63760, Note_on_c, 0, 76, 100
2, 63840, Note_on_c, 0, 76, 0
2, 63840, Note_on_c, 0, 74, 100
2, 64080, Note_on_c, 0, 74, 0
2, 64080, Note_on_c, 0, 59, 100
2, 64320, Note_on_c, 0, 59, 0
2, 64320, Note_on_c, 0, 55, 100
2, 64560, Note_on_c, 0, 55, 0
2, 64560, Note_on_c, 0, 77, 100
2, 64800, Note_on_c, 0, 77, 0
2, 64800, Note_on_c, 0, 76, 100
2, 64880, Note_on_c, 0, 76, 0
2, 64880, Note_on_c, 0, 79, 100
2, 64960, Note_on_c, 0, 79, 0
2, 64960, Note_on_c, 0, 72, 100
2, 65040, Note_on_c, 0, 72, 0
2, 65040, Note_on_c, 0, 74, 100
2, 65120, Note_on_c, 0, 74, 0
2, 65120, Note_on_c, 0, 77, 100
2, 65200, Note_on_c, 0, 77, 0
2, 65200, Note_on_c, 0, 71, 100
2, 65280, Note_on_c, 0, 71, 0
2, 65280, Note_on_c, 0, 72, 100
2, 65360, Note_on_c, 0, 72, 0
2, 65360, Note_on_c, 0, 76, 100
2, 65440, Note_on_c, 0, 76, 0
2, 65440, Note_on_c, 0, 69, 100
2, 65520, Note_on_c, 0, 69, 0
2, 65520, Note_on_c, 0, 71, 100
2, 65600, Note_on_c, 0, 71, 0
2, 65600, Note_on_c, 0, 74, 100
2, 65680, Note_on_c, 0, 74, 0
2, 65680, Note_on_c, 0, 67, 100
2, 65760, Note_on_c, 0, 67, 0
2, 65760, Note_on_c, 0, 69, 100
2, 65840, Note_on_c, 0, 69, 0
2, 65840, Note_on_c, 0, 72, 100
2, 65920, Note_on_c, 0, 72, 0
2, 65920, Note_on_c, 0, 66, 100
2, 66000, Note_on_c, 0, 66, 0
2, 66000, Note_on_c, 0, 67, 100
2, 66080, Note_on_c, 0, 67, 0
2, 66080, Note_on_c, 0, 71, 100
2, 66160, Note_on_c, 0, 71, 0
2, 66160, Note_on_c, 0, 64, 100
2, 66240, Note_on_c, 0, 64, 0
2, 66240, Note_on_c, 0, 66, 100
2, 66320, Note_on_c, 0, 66, 0
2, 66320, Note_on_c, 0, 62, 100
2, 66400, Note_on_c, 0, 62, 0
2, 66400, Note_on_c, 0, 64, 100
2, 66480, Note_on_c, 0, 64, 0
2, 66480, Note_on_c, 0, 66, 100
2, 66560, Note_on_c, 0, 66, 0
2, 66560, Note_on_c, 0, 67, 100
2, 66640, Note_on_c, 0, 67, 0
2, 66640, Note_on_c, 0, 69, 100
2, 66720, Note_on_c, 0, 69, 0
2, 66720, Note_on_c, 0, 59, 100
2, 67040, Note_on_c, 0, 59, 0
2, 67040, Note_on_c, 0, 57, 100
2, 67120, Note_on_c, 0, 57, 0
2, 67120, Note_on_c, 0, 55, 100
2, 67200, Note_on_c, 0, 55, 0
2, 67200, Note_on_c, 0, 64, 100
2, 67440, Note_on_c, 0, 64, 0
2, 67440, Note_on_c, 0, 67, 100
2, 67500, Note_on_c, 0, 67, 0
2, 67500, Note_on_c, 0, 66, 100
2, 67560, Note_on_c, 0, 66, 0
2, 67560, Note_on_c, 0, 64, 100
2, 67620, Note_on_c, 0, 64, 0
2, 67620, Note_on_c, 0, 66, 100
2, 67680, Note_on_c, 0, 66, 0
2, 67680, Note_on_c, 0, 67, 100
2, 67760, Note_on_c, 0, 67, 0
2, 67760, Note_on_c, 0, 62, 100
2, 67840, Note_on_c, 0, 62, 0
2, 67840, Note_on_c, 0, 59, 100
2, 67920, Note_on_c, 0, 59, 0
2, 67920, Note_on_c, 0, 55, 100
2, 68000, Note_on_c, 0, 55, 0
2, 68000, Note_on_c, 0, 50, 100
2, 68080, Note_on_c, 0, 50, 0
2, 68080, Note_on_c, 0, 47, 100
2, 68160, Note_on_c, 0, 47, 0
2, 68160, Note_on_c, 0, 43, 100
2, 68400, Note_on_c, 0, 43, 0
2, 69240, Note_on_c, 0, 81, 100
2, 69360, Note_on_c, 0, 81, 0
2, 69480, Note_on_c, 0, 78, 100
2, 69600, Note_on_c, 0, 78, 0
2, 69720, Note_on_c, 0, 74, 100
2, 69840, Note_on_c, 0, 74, 0
2, 69960, Note_on_c, 0, 69, 100
2, 70080, Note_on_c, 0, 69, 0
2, 70200, Note_on_c, 0, 66, 100
2, 70320, Note_on_c, 0, 66, 0
2, 70440, Note_on_c, 0, 62, 100
2, 70560, Note_on_c, 0, 62, 0
2, 70680, Note_on_c, 0, 59, 100
2, 70800, Note_on_c, 0, 59, 0
2, 70920, Note_on_c, 0, 55, 100
2, 71040, Note_on_c, 0, 55, 0
2, 71160, Note_on_c, 0, 50, 100
2, 71280, Note_on_c, 0, 50, 0
2, 71400, Note_on_c, 0, 47, 100
2, 71520, Note_on_c, 0, 47, 0
2, 71640, Note_on_c, 0, 43, 100
2, 71760, Note_on_c, 0, 43, 0
2, 71760, Note_on_c, 0, 45, 100
2, 71880, Note_on_c, 0, 45, 0
2, 71880, Note_on_c, 0, 47, 100
2, 72000, Note_on_c, 0, 47, 0
2, 72000, Note_on_c, 0, 48, 100
2, 72240, Note_on_c, 0, 48, 0
2, 72240, Note_on_c, 0, 55, 100
2, 72480, Note_on_c, 0, 55, 0
2, 72480, Note_on_c, 0, 60, 100
2, 72720, Note_on_c, 0, 60, 0
2, 72720, Note_on_c, 0, 64, 100
2, 72960, Note_on_c, 0, 64, 0
2, 72960, Note_on_c, 0, 57, 100
2, 73200, Note_on_c, 0, 57, 0
2, 73200, Note_on_c, 0, 72, 100
2, 73520, Note_on_c, 0, 72, 0
2, 73520, Note_on_c, 0, 71, 100
2, 73600, Note_on_c, 0, 71, 0
2, 73600, Note_on_c, 0, 70, 100
2, 73680, Note_on_c, 0, 70, 0
2, 73680, Note_on_c, 0, 71, 100
2, 73760, Note_on_c, 0, 71, 0
2, 73760, Note_on_c, 0, 73, 100
2, 73840, Note_on_c, 0, 73, 0
2, 73840, Note_on_c, 0, 75, 100
2, 73920, Note_on_c, 0, 75, 0
2, 73920, Note_on_c, 0, 76, 100
2, 74000, Note_on_c, 0, 76, 0
2, 74000, Note_on_c, 0, 75, 100
2, 74080, Note_on_c, 0, 75, 0
2, 74080, Note_on_c, 0, 73, 100
2, 74160, Note_on_c, 0, 73, 0
2, 74160, Note_on_c, 0, 75, 100
2, 74240, Note_on_c, 0, 75, 0
2, 74240, Note_on_c, 0, 76, 100
2, 74320, Note_on_c, 0, 76, 0
2, 74320, Note_on_c, 0, 78, 100
2, 74400, Note_on_c, 0, 78, 0
2, 74400, Note_on_c, 0, 79, 100
2, 74480, Note_on_c, 0, 79, 0
2, 74480, Note_on_c, 0, 78, 100
2, 74560, Note_on_c, 0, 78, 0
2, 74560, Note_on_c, 0, 76, 100
2, 74640, Note_on_c, 0, 76, 0
2, 74640, Note_on_c, 0, 78, 100
2, 74720, Note_on_c, 0, 78, 0
2, 74720, Note_on_c, 0, 79, 100
2, 74800, Note_on_c, 0, 79, 0
2, 74800, Note_on_c, 0, 81, 100
2, 74880, Note_on_c, 0, 81, 0
2, 74880, Note_on_c, 0, 83, 100
2, 74960, Note_on_c, 0, 83, 0
2, 74960, Note_on_c, 0, 81, 100
2, 75040, Note_on_c, 0, 81, 0
2, 75040, Note_on_c, 0, 79, 100
2, 75120, Note_on_c, 0, 79, 0
2, 75120, Note_on_c, 0, 81, 100
2, 75200, Note_on_c, 0, 81, 0
2, 75200, Note_on_c, 0, 83, 100
2, 75280, Note_on_c, 0, 83, 0
2, 75280, Note_on_c, 0, 84, 100
2, 75360, Note_on_c, 0, 84, 0
2, 75360, Note_on_c, 0, 75, 100
2, 75600, Note_on_c, 0, 75, 0
2, 75600, Note_on_c, 0, 84, 100
2, 75840, Note_on_c, 0, 84, 0
2, 75840, Note_on_c, 0, 83, 100
2, 76080, Note_on_c, 0, 83, 0
2, 76080, Note_on_c, 0, 74, 100
2, 76400, Note_on_c, 0, 74, 0
2, 76400, Note_on_c, 0, 73, 100
2, 76480, Note_on_c, 0, 73, 0
2, 76480, Note_on_c, 0, 75, 100
2, 76560, Note_on_c, 0, 75, 0
2, 76560, Note_on_c, 0, 76, 100
2, 76640, Note_on_c, 0, 76, 0
2, 76640, Note_on_c, 0, 78, 100
2, 76720, Note_on_c, 0, 78, 0
2, 76720, Note_on_c, 0, 79, 100
2, 76800, Note_on_c, 0, 79, 0
2, 76800, Note_on_c, 0, 70, 100
2, 77040, Note_on_c, 0, 70, 0
2, 77040, Note_on_c, 0, 79, 100
2, 77280, Note_on_c, 0, 79, 0
2, 77280, Note_on_c, 0, 78, 100
2, 77520, Note_on_c, 0, 78, 0
2, 77520, Note_on_c, 0, 69, 100
2, 77760, Note_on_c, 0, 69, 0
2, 77760, Note_on_c, 0, 67, 100
2, 78000, Note_on_c, 0, 67, 0
2, 78000, Note_on_c, 0, 63, 100
2, 78240, Note_on_c, 0, 63, 0
2, 78240, Note_on_c, 0, 64, 100
2, 78480, Note_on_c, 0, 64, 0
2, 78480, Note_on_c, 0, 60, 100
2, 78720, Note_on_c, 0, 60, 0
2, 78720, Note_on_c, 0, 51, 100
2, 78960, Note_on_c, 0, 51, 0
2, 78960, Note_on_c, 0, 75, 100
2, 79200, Note_on_c, 0, 75, 0
2, 79200, Note_on_c, 0, 76, 100
2, 79440, Note_on_c, 0, 76, 0
2, 79440, Note_on_c, 0, 64, 100
2, 79680, Note_on_c, 0, 64, 0
2, 79760, Note_on_c, 0, 67, 100
2, 79840, Note_on_c, 0, 67, 0
2, 79840, Note_on_c, 0, 71, 100
2, 79920, Note_on_c, 0, 71, 0
2, 79920, Note_on_c, 0, 76, 100
2, 80000, Note_on_c, 0, 76, 0
2, 80000, Note_on_c, 0, 79, 100
2, 80080, Note_on_c, 0, 79, 0
2, 80080, Note_on_c, 0, 75, 100
2, 80160, Note_on_c, 0, 75, 0
2, 80160, Note_on_c, 0, 76, 100
2, 80240, Note_on_c, 0, 76, 0
2, 80240, Note_on_c, 0, 71, 100
2, 80320, Note_on_c, 0, 71, 0
2, 80320, Note_on_c, 0, 67, 100
2, 80400, Note_on_c, 0, 67, 0
2, 80480, Note_on_c, 0, 68, 100
2, 80560, Note_on_c, 0, 68, 0
2, 80580, Note_on_c, 0, 77, 100
2, 80640, Note_on_c, 0, 76, 100
2, 80660, Note_on_c, 0, 77, 0
2, 80720, Note_on_c, 0, 76, 0
2, 80720, Note_on_c, 0, 72, 100
2, 80800, Note_on_c, 0, 72, 0
2, 80800, Note_on_c, 0, 69, 100
2, 80880, Note_on_c, 0, 69, 0
2, 80960, Note_on_c, 0, 62, 100
2, 81040, Note_on_c, 0, 62, 0
2, 81040, Note_on_c, 0, 71, 100
2, 81120, Note_on_c, 0, 71, 0
2, 81200, Note_on_c, 0, 60, 100
2, 81280, Note_on_c, 0, 60, 0
2, 81280, Note_on_c, 0, 69, 100
2, 81360, Note_on_c, 0, 69, 0
2, 81440, Note_on_c, 0, 59, 100
2, 81520, Note_on_c, 0, 59, 0
2, 81520, Note_on_c, 0, 67, 100
2, 81600, Note_on_c, 0, 67, 0
2, 81680, Note_on_c, 0, 60, 100
2, 81760, Note_on_c, 0, 60, 0
2, 81760, Note_on_c, 0, 69, 100
2, 81840, Note_on_c, 0, 69, 0
2, 81920, Note_on_c, 0, 66, 100
2, 82000, Note_on_c, 0, 66, 0
2, 82000, Note_on_c, 0, 75, 100
2, 82080, Note_on_c, 0, 75, 0
2, 82080, Note_on_c, 0, 74, 100
2, 82160, Note_on_c, 0, 74, 0
2, 82160, Note_on_c, 0, 71, 100
2, 82240, Note_on_c, 0, 71, 0
2, 82240, Note_on_c, 0, 67, 100
2, 82320, Note_on_c, 0, 67, 0
2, 82400, Note_on_c, 0, 60, 100
2, 82480, Note_on_c, 0, 60, 0
2, 82480, Note_on_c, 0, 69, 100
2, 82560, Note_on_c, 0, 69, 0
2, 82640, Note_on_c, 0, 59, 100
2, 82720, Note_on_c, 0, 59, 0
2, 82720, Note_on_c, 0, 67, 100
2, 82800, Note_on_c, 0, 67, 0
2, 82880, Note_on_c, 0, 57, 100
2, 82960, Note_on_c, 0, 57, 0
2, 82960, Note_on_c, 0, 66, 100
2, 83040, Note_on_c, 0, 66, 0
2, 83120, Note_on_c, 0, 59, 100
2, 83200, Note_on_c, 0, 59, 0
2, 83200, Note_on_c, 0, 67, 100
2, 83280, Note_on_c, 0, 67, 0
2, 83360, Note_on_c, 0, 64, 100
2, 83440, Note_on_c, 0, 64, 0
2, 83440, Note_on_c, 0, 74, 100
2, 83520, Note_on_c, 0, 74, 0
2, 83520, Note_on_c, 0, 72, 100
2, 83600, Note_on_c, 0, 72, 0
2, 83600, Note_on_c, 0, 69, 100
2, 83680, Note_on_c, 0, 69, 0
2, 83680, Note_on_c, 0, 64, 100
2, 83760, Note_on_c, 0, 64, 0
2, 83760, Note_on_c, 0, 60, 100
2, 83880, Note_on_c, 0, 60, 0
2, 84000, Note_on_c, 0, 60, 100
2, 84120, Note_on_c, 0, 60, 0
2, 84240, Note_on_c, 0, 60, 100
2, 84360, Note_on_c, 0, 60, 0
2, 84480, Note_on_c, 0, 60, 100
2, 84600, Note_on_c, 0, 60, 0
2, 84720, Note_on_c, 0, 72, 100
2, 84960, Note_on_c, 0, 72, 0
2, 84960, Note_on_c, 0, 72, 100
2, 85040, Note_on_c, 0, 72, 0
2, 85040, Note_on_c, 0, 69, 100
2, 85120, Note_on_c, 0, 69, 0
2, 85120, Note_on_c, 0, 66, 100
2, 85200, Note_on_c, 0, 66, 0
2, 85200, Note_on_c, 0, 62, 100
2, 85320, Note_on_c, 0, 62, 0
2, 85440, Note_on_c, 0, 62, 100
2, 85560, Note_on_c, 0, 62, 0
2, 85680, Note_on_c, 0, 62, 100
2, 85800, Note_on_c, 0, 62, 0
2, 85920, Note_on_c, 0, 62, 100
2, 86040, Note_on_c, 0, 62, 0
2, 86160, Note_on_c, 0, 72, 100
2, 86400, Note_on_c, 0, 72, 0
2, 86400, Note_on_c, 0, 71, 100
2, 86480, Note_on_c, 0, 71, 0
2, 86480, Note_on_c, 0, 67, 100
2, 86560, Note_on_c, 0, 67, 0
2, 86560, Note_on_c, 0, 74, 100
2, 86640, Note_on_c, 0, 74, 0
2, 86640, Note_on_c, 0, 72, 100
2, 86720, Note_on_c, 0, 72, 0
2, 86720, Note_on_c, 0, 69, 100
2, 86800, Note_on_c, 0, 69, 0
2, 86800, Note_on_c, 0, 76, 100
2, 86880, Note_on_c, 0, 76, 0
2, 86880, Note_on_c, 0, 74, 100
2, 87120, Note_on_c, 0, 74, 0
2, 87120, Note_on_c, 0, 59, 100
2, 87360, Note_on_c, 0, 59, 0
2, 87360, Note_on_c, 0, 55, 100
2, 87600, Note_on_c, 0, 55, 0
2, 87600, Note_on_c, 0, 77, 100
2, 87840, Note_on_c, 0, 77, 0
2, 87840, Note_on_c, 0, 76, 100
2, 87920, Note_on_c, 0, 76, 0
2, 87920, Note_on_c, 0, 79, 100
2, 88000, Note_on_c, 0, 79, 0
2, 88000, Note_on_c, 0, 72, 100
2, 88080, Note_on_c, 0, 72, 0
2, 88080, Note_on_c, 0, 74, 100
2, 88160, Note_on_c, 0, 74, 0
2, 88160, Note_on_c, 0, 77, 100
2, 88240, Note_on_c, 0, 77, 0
2, 88240, Note_on_c, 0, 71, 100
2, 88320, Note_on_c, 0, 71, 0
2, 88320, Note_on_c, 0, 72, 100
2, 88400, Note_on_c, 0, 72, 0
2, 88400, Note_on_c, 0, 76, 100
2, 88480, Note_on_c, 0, 76, 0
2, 88480, Note_on_c, 0, 69, 100
2, 88560, Note_on_c, 0, 69, 0
2, 88560, Note_on_c, 0, 71, 100
2, 88640, Note_on_c, 0, 71, 0
2, 88640, Note_on_c, 0, 74, 100
2, 88720, Note_on_c, 0, 74, 0
2, 88720, Note_on_c, 0, 67, 100
2, 88800, Note_on_c, 0, 67, 0
2, 88800, Note_on_c, 0, 69, 100
2, 88880, Note_on_c, 0, 69, 0
2, 88880, Note_on_c, 0, 72, 100
2, 88960, Note_on_c, 0, 72, 0
2, 88960, Note_on_c, 0, 66, 100
2, 89040, Note_on_c, 0, 66, 0
2, 89040, Note_on_c, 0, 67, 100
2, 89120, Note_on_c, 0, 67, 0
2, 89120, Note_on_c, 0, 71, 100
2, 89200, Note_on_c, 0, 71, 0
2, 89200, Note_on_c, 0, 64, 100
2, 89280, Note_on_c, 0, 64, 0
2, 89280, Note_on_c, 0, 66, 100
2, 89360, Note_on_c, 0, 66, 0
2, 89360, Note_on_c, 0, 62, 100
2, 89440, Note_on_c, 0, 62, 0
2, 89440, Note_on_c, 0, 64, 100
2, 89520, Note_on_c, 0, 64, 0
2, 89520, Note_on_c, 0, 66, 100
2, 89600, Note_on_c, 0, 66, 0
2, 89600, Note_on_c, 0, 67, 100
2, 89680, Note_on_c, 0, 67, 0
2, 89680, Note_on_c, 0, 69, 100
2, 89760, Note_on_c, 0, 69, 0
2, 89760, Note_on_c, 0, 59, 100
2, 90080, Note_on_c, 0, 59, 0
2, 90080, Note_on_c, 0, 57, 100
2, 90160, Note_on_c, 0, 57, 0
2, 90160, Note_on_c, 0, 55, 100
2, 90240, Note_on_c, 0, 55, 0
2, 90240, Note_on_c, 0, 64, 100
2, 90480, Note_on_c, 0, 64, 0
2, 90480, Note_on_c, 0, 67, 100
2, 90540, Note_on_c, 0, 67, 0
2, 90540, Note_on_c, 0, 66, 100
2, 90600, Note_on_c, 0, 66, 0
2, 90600, Note_on_c, 0, 64, 100
2, 90660, Note_on_c, 0, 64, 0
2, 90660, Note_on_c, 0, 66, 100
2, 90720, Note_on_c, 0, 66, 0
2, 90720, Note_on_c, 0, 67, 100
2, 90800, Note_on_c, 0, 67, 0
2, 90800, Note_on_c, 0, 62, 100
2, 90880, Note_on_c, 0, 62, 0
2, 90880, Note_on_c, 0, 59, 100
2, 90960, Note_on_c, 0, 59, 0
2, 90960, Note_on_c, 0, 55, 100
2, 91040, Note_on_c, 0, 55, 0
2, 91040, Note_on_c, 0, 50, 100
2, 91120, Note_on_c, 0, 50, 0
2, 91120, Note_on_c, 0, 47, 100
2, 91200, Note_on_c, 0, 47, 0
2, 91200, Note_on_c, 0, 43, 100
2, 91440, Note_on_c, 0, 43, 0
2, 91440, End_track
3, 0, Start_track
3, 0, MIDI_port, 0
3, 0, Title_t, "--------------------------------------"
3, 0, Program_c, 1, 6
3, 0, Control_c, 1, 7, 100
3, 0, Control_c, 1, 10, 59
3, 0, Note_on_c, 1, 55, 100
3, 240, Note_on_c, 1, 55, 0
3, 240, Note_on_c, 1, 59, 100
3, 480, Note_on_c, 1, 59, 0
3, 480, Note_on_c, 1, 62, 100
3, 720, Note_on_c, 1, 62, 0
3, 720, Note_on_c, 1, 67, 100
3, 960, Note_on_c, 1, 67, 0
3, 960, Note_on_c, 1, 71, 100
3, 1200, Note_on_c, 1, 71, 0
3, 1200, Note_on_c, 1, 73, 100
3, 1440, Note_on_c, 1, 73, 0
3, 1560, Note_on_c, 1, 74, 100
3, 1680, Note_on_c, 1, 74, 0
3, 1800, Note_on_c, 1, 69, 100
3, 1920, Note_on_c, 1, 69, 0
3, 2040, Note_on_c, 1, 66, 100
3, 2160, Note_on_c, 1, 66, 0
3, 2280, Note_on_c, 1, 62, 100
3, 2400, Note_on_c, 1, 62, 0
3, 2520, Note_on_c, 1, 57, 100
3, 2640, Note_on_c, 1, 57, 0
3, 2640, Note_on_c, 1, 55, 100
3, 2760, Note_on_c, 1, 55, 0
3, 2760, Note_on_c, 1, 54, 100
3, 2880, Note_on_c, 1, 54, 0
3, 2880, Note_on_c, 1, 52, 100
3, 3120, Note_on_c, 1, 52, 0
3, 3120, Note_on_c, 1, 55, 100
3, 3360, Note_on_c, 1, 55, 0
3, 3360, Note_on_c, 1, 57, 100
3, 3600, Note_on_c, 1, 57, 0
3, 3600, Note_on_c, 1, 61, 100
3, 3840, Note_on_c, 1, 61, 0
3, 3840, Note_on_c, 1, 64, 100
3, 4080, Note_on_c, 1, 64, 0
3, 4080, Note_on_c, 1, 67, 100
3, 4320, Note_on_c, 1, 67, 0
3, 4440, Note_on_c, 1, 66, 100
3, 4560, Note_on_c, 1, 66, 0
3, 4680, Note_on_c, 1, 62, 100
3, 4800, Note_on_c, 1, 62, 0
3, 4920, Note_on_c, 1, 57, 100
3, 5040, Note_on_c, 1, 57, 0
3, 5160, Note_on_c, 1, 54, 100
3, 5280, Note_on_c, 1, 54, 0
3, 5400, Note_on_c, 1, 52, 100
3, 5520, Note_on_c, 1, 52, 0
3, 5520, Note_on_c, 1, 50, 100
3, 5640, Note_on_c, 1, 50, 0
3, 5640, Note_on_c, 1, 48, 100
3, 5760, Note_on_c, 1, 48, 0
3, 5760, Note_on_c, 1, 47, 100
3, 6000, Note_on_c, 1, 47, 0
3, 6000, Note_on_c, 1, 50, 100
3, 6240, Note_on_c, 1, 50, 0
3, 6240, Note_on_c, 1, 55, 100
3, 6480, Note_on_c, 1, 55, 0
3, 6480, Note_on_c, 1, 59, 100
3, 6720, Note_on_c, 1, 59, 0
3, 6720, Note_on_c, 1, 62, 100
3, 6960, Note_on_c, 1, 62, 0
3, 6960, Note_on_c, 1, 65, 100
3, 7200, Note_on_c, 1, 65, 0
3, 7320, Note_on_c, 1, 64, 100
3, 7440, Note_on_c, 1, 64, 0
3, 7560, Note_on_c, 1, 60, 100
3, 7680, Note_on_c, 1, 60, 0
3, 7800, Note_on_c, 1, 55, 100
3, 7920, Note_on_c, 1, 55, 0
3, 8040, Note_on_c, 1, 52, 100
3, 8160, Note_on_c, 1, 52, 0
3, 8280, Note_on_c, 1, 48, 100
3, 8400, Note_on_c, 1, 48, 0
3, 8400, Note_on_c, 1, 47, 100
3, 8520, Note_on_c, 1, 47, 0
3, 8520, Note_on_c, 1, 45, 100
3, 8640, Note_on_c, 1, 45, 0
3, 8640, Note_on_c, 1, 50, 100
3, 8880, Note_on_c, 1, 50, 0
3, 8880, Note_on_c, 1, 54, 100
3, 9120, Note_on_c, 1, 54, 0
3, 9120, Note_on_c, 1, 57, 100
3, 9360, Note_on_c, 1, 57, 0
3, 9360, Note_on_c, 1, 62, 100
3, 9600, Note_on_c, 1, 62, 0
3, 9600, Note_on_c, 1, 66, 100
3, 9840, Note_on_c, 1, 66, 0
3, 9840, Note_on_c, 1, 69, 100
3, 10080, Note_on_c, 1, 69, 0
3, 10200, Note_on_c, 1, 71, 100
3, 10320, Note_on_c, 1, 71, 0
3, 10440, Note_on_c, 1, 67, 100
3, 10560, Note_on_c, 1, 67, 0
3, 10680, Note_on_c, 1, 62, 100
3, 10800, Note_on_c, 1, 62, 0
3, 10920, Note_on_c, 1, 59, 100
3, 11040, Note_on_c, 1, 59, 0
3, 11160, Note_on_c, 1, 57, 100
3, 11280, Note_on_c, 1, 57, 0
3, 11280, Note_on_c, 1, 55, 100
3, 11400, Note_on_c, 1, 55, 0
3, 11400, Note_on_c, 1, 54, 100
3, 11520, Note_on_c, 1, 54, 0
3, 11520, Note_on_c, 1, 55, 100
3, 11760, Note_on_c, 1, 55, 0
3, 12000, Note_on_c, 1, 83, 100
3, 12040, Note_on_c, 1, 83, 0
3, 12040, Note_on_c, 1, 81, 100
3, 12080, Note_on_c, 1, 81, 0
3, 12080, Note_on_c, 1, 83, 100
3, 12480, Note_on_c, 1, 83, 0
3, 12720, Note_on_c, 1, 64, 100
3, 12960, Note_on_c, 1, 64, 0
3, 12960, Note_on_c, 1, 54, 100
3, 13200, Note_on_c, 1, 54, 0
3, 13440, Note_on_c, 1, 81, 100
3, 13480, Note_on_c, 1, 81, 0
3, 13480, Note_on_c, 1, 79, 100
3, 13520, Note_on_c, 1, 79, 0
3, 13520, Note_on_c, 1, 81, 100
3, 13920, Note_on_c, 1, 81, 0
3, 14160, Note_on_c, 1, 62, 100
3, 14400, Note_on_c, 1, 62, 0
3, 14400, Note_on_c, 1, 71, 100
3, 14480, Note_on_c, 1, 71, 0
3, 14480, Note_on_c, 1, 72, 100
3, 14560, Note_on_c, 1, 72, 0
3, 14560, Note_on_c, 1, 71, 100
3, 14640, Note_on_c, 1, 71, 0
3, 14640, Note_on_c, 1, 69, 100
3, 14720, Note_on_c, 1, 69, 0
3, 14720, Note_on_c, 1, 71, 100
3, 14800, Note_on_c, 1, 71, 0
3, 14800, Note_on_c, 1, 69, 100
3, 14880, Note_on_c, 1, 69, 0
3, 14880, Note_on_c, 1, 67, 100
3, 14960, Note_on_c, 1, 67, 0
3, 14960, Note_on_c, 1, 69, 100
3, 15040, Note_on_c, 1, 69, 0
3, 15040, Note_on_c, 1, 67, 100
3, 15120, Note_on_c, 1, 67, 0
3, 15120, Note_on_c, 1, 66, 100
3, 15200, Note_on_c, 1, 66, 0
3, 15200, Note_on_c, 1, 67, 100
3, 15280, Note_on_c, 1, 67, 0
3, 15280, Note_on_c, 1, 66, 100
3, 15360, Note_on_c, 1, 66, 0
3, 15360, Note_on_c, 1, 64, 100
3, 15440, Note_on_c, 1, 64, 0
3, 15440, Note_on_c, 1, 66, 100
3, 15520, Note_on_c, 1, 66, 0
3, 15520, Note_on_c, 1, 64, 100
3, 15600, Note_on_c, 1, 64, 0
3, 15600, Note_on_c, 1, 62, 100
3, 15680, Note_on_c, 1, 62, 0
3, 15680, Note_on_c, 1, 64, 100
3, 15760, Note_on_c, 1, 64, 0
3, 15760, Note_on_c, 1, 62, 100
3, 15840, Note_on_c, 1, 62, 0
3, 15840, Note_on_c, 1, 61, 100
3, 15920, Note_on_c, 1, 61, 0
3, 15920, Note_on_c, 1, 62, 100
3, 16000, Note_on_c, 1, 62, 0
3, 16000, Note_on_c, 1, 61, 100
3, 16080, Note_on_c, 1, 61, 0
3, 16080, Note_on_c, 1, 59, 100
3, 16160, Note_on_c, 1, 59, 0
3, 16160, Note_on_c, 1, 61, 100
3, 16240, Note_on_c, 1, 61, 0
3, 16240, Note_on_c, 1, 59, 100
3, 16320, Note_on_c, 1, 59, 0
3, 16320, Note_on_c, 1, 57, 100
3, 16400, Note_on_c, 1, 57, 0
3, 16400, Note_on_c, 1, 59, 100
3, 16480, Note_on_c, 1, 59, 0
3, 16480, Note_on_c, 1, 57, 100
3, 16560, Note_on_c, 1, 57, 0
3, 16560, Note_on_c, 1, 55, 100
3, 16640, Note_on_c, 1, 55, 0
3, 16640, Note_on_c, 1, 57, 100
3, 16720, Note_on_c, 1, 57, 0
3, 16720, Note_on_c, 1, 55, 100
3, 16800, Note_on_c, 1, 55, 0
3, 16800, Note_on_c, 1, 54, 100
3, 16880, Note_on_c, 1, 54, 0
3, 16880, Note_on_c, 1, 55, 100
3, 16960, Note_on_c, 1, 55, 0
3, 16960, Note_on_c, 1, 54, 100
3, 17040, Note_on_c, 1, 54, 0
3, 17040, Note_on_c, 1, 52, 100
3, 17120, Note_on_c, 1, 52, 0
3, 17120, Note_on_c, 1, 54, 100
3, 17200, Note_on_c, 1, 54, 0
3, 17200, Note_on_c, 1, 52, 100
3, 17280, Note_on_c, 1, 52, 0
3, 17280, Note_on_c, 1, 50, 100
3, 17520, Note_on_c, 1, 50, 0
3, 17520, Note_on_c, 1, 57, 100
3, 17760, Note_on_c, 1, 57, 0
3, 17760, Note_on_c, 1, 66, 100
3, 18000, Note_on_c, 1, 66, 0
3, 18000, Note_on_c, 1, 57, 100
3, 18240, Note_on_c, 1, 57, 0
3, 18240, Note_on_c, 1, 50, 100
3, 18480, Note_on_c, 1, 50, 0
3, 18480, Note_on_c, 1, 60, 100
3, 18720, Note_on_c, 1, 60, 0
3, 18720, Note_on_c, 1, 59, 100
3, 18800, Note_on_c, 1, 59, 0
3, 18800, Note_on_c, 1, 55, 100
3, 18880, Note_on_c, 1, 55, 0
3, 18880, Note_on_c, 1, 62, 100
3, 18960, Note_on_c, 1, 62, 0
3, 18960, Note_on_c, 1, 61, 100
3, 19040, Note_on_c, 1, 61, 0
3, 19040, Note_on_c, 1, 57, 100
3, 19120, Note_on_c, 1, 57, 0
3, 19120, Note_on_c, 1, 64, 100
3, 19200, Note_on_c, 1, 64, 0
3, 19200, Note_on_c, 1, 62, 100
3, 19280, Note_on_c, 1, 62, 0
3, 19280, Note_on_c, 1, 59, 100
3, 19360, Note_on_c, 1, 59, 0
3, 19360, Note_on_c, 1, 66, 100
3, 19440, Note_on_c, 1, 66, 0
3, 19440, Note_on_c, 1, 64, 100
3, 19520, Note_on_c, 1, 64, 0
3, 19520, Note_on_c, 1, 61, 100
3, 19600, Note_on_c, 1, 61, 0
3, 19600, Note_on_c, 1, 67, 100
3, 19680, Note_on_c, 1, 67, 0
3, 19680, Note_on_c, 1, 66, 100
3, 19760, Note_on_c, 1, 66, 0
3, 19760, Note_on_c, 1, 62, 100
3, 19840, Note_on_c, 1, 62, 0
3, 19840, Note_on_c, 1, 69, 100
3, 19920, Note_on_c, 1, 69, 0
3, 19920, Note_on_c, 1, 67, 100
3, 20000, Note_on_c, 1, 67, 0
3, 20000, Note_on_c, 1, 64, 100
3, 20080, Note_on_c, 1, 64, 0
3, 20080, Note_on_c, 1, 71, 100
3, 20160, Note_on_c, 1, 71, 0
3, 20160, Note_on_c, 1, 69, 100
3, 20480, Note_on_c, 1, 69, 0
3, 20480, Note_on_c, 1, 71, 100
3, 20560, Note_on_c, 1, 71, 0
3, 20560, Note_on_c, 1, 73, 100
3, 20640, Note_on_c, 1, 73, 0
3, 20640, Note_on_c, 1, 74, 100
3, 20720, Note_on_c, 1, 74, 0
3, 20720, Note_on_c, 1, 73, 100
3, 20800, Note_on_c, 1, 73, 0
3, 20800, Note_on_c, 1, 71, 100
3, 20880, Note_on_c, 1, 71, 0
3, 20880, Note_on_c, 1, 69, 100
3, 21200, Note_on_c, 1, 69, 0
3, 21200, Note_on_c, 1, 67, 100
3, 21280, Note_on_c, 1, 67, 0
3, 21280, Note_on_c, 1, 66, 100
3, 21360, Note_on_c, 1, 66, 0
3, 21360, Note_on_c, 1, 64, 100
3, 21440, Note_on_c, 1, 64, 0
3, 21440, Note_on_c, 1, 66, 100
3, 21520, Note_on_c, 1, 66, 0
3, 21520, Note_on_c, 1, 67, 100
3, 21600, Note_on_c, 1, 67, 0
3, 21600, Note_on_c, 1, 66, 100
3, 21840, Note_on_c, 1, 66, 0
3, 22160, Note_on_c, 1, 66, 100
3, 22240, Note_on_c, 1, 66, 0
3, 22240, Note_on_c, 1, 69, 100
3, 22320, Note_on_c, 1, 69, 0
3, 22320, Note_on_c, 1, 74, 100
3, 22400, Note_on_c, 1, 74, 0
3, 22400, Note_on_c, 1, 78, 100
3, 22480, Note_on_c, 1, 78, 0
3, 22480, Note_on_c, 1, 81, 100
3, 22560, Note_on_c, 1, 81, 0
3, 22560, Note_on_c, 1, 86, 100
3, 22800, Note_on_c, 1, 86, 0
3, 23040, Note_on_c, 1, 55, 100
3, 23280, Note_on_c, 1, 55, 0
3, 23280, Note_on_c, 1, 59, 100
3, 23520, Note_on_c, 1, 59, 0
3, 23520, Note_on_c, 1, 62, 100
3, 23760, Note_on_c, 1, 62, 0
3, 23760, Note_on_c, 1, 67, 100
3, 24000, Note_on_c, 1, 67, 0
3, 24000, Note_on_c, 1, 71, 100
3, 24240, Note_on_c, 1, 71, 0
3, 24240, Note_on_c, 1, 73, 100
3, 24480, Note_on_c, 1, 73, 0
3, 24600, Note_on_c, 1, 74, 100
3, 24720, Note_on_c, 1, 74, 0
3, 24840, Note_on_c, 1, 69, 100
3, 24960, Note_on_c, 1, 69, 0
3, 25080, Note_on_c, 1, 66, 100
3, 25200, Note_on_c, 1, 66, 0
3, 25320, Note_on_c, 1, 62, 100
3, 25440, Note_on_c, 1, 62, 0
3, 25560, Note_on_c, 1, 57, 100
3, 25680, Note_on_c, 1, 57, 0
3, 25680, Note_on_c, 1, 55, 100
3, 25800, Note_on_c, 1, 55, 0
3, 25800, Note_on_c, 1, 54, 100
3, 25920, Note_on_c, 1, 54, 0
3, 25920, Note_on_c, 1, 52, 100
3, 26160, Note_on_c, 1, 52, 0
3, 26160, Note_on_c, 1, 55, 100
3, 26400, Note_on_c, 1, 55, 0
3, 26400, Note_on_c, 1, 57, 100
3, 26640, Note_on_c, 1, 57, 0
3, 26640, Note_on_c, 1, 61, 100
3, 26880, Note_on_c, 1, 61, 0
3, 26880, Note_on_c, 1, 64, 100
3, 27120, Note_on_c, 1, 64, 0
3, 27120, Note_on_c, 1, 67, 100
3, 27360, Note_on_c, 1, 67, 0
3, 27480, Note_on_c, 1, 66, 100
3, 27600, Note_on_c, 1, 66, 0
3, 27720, Note_on_c, 1, 62, 100
3, 27840, Note_on_c, 1, 62, 0
3, 27960, Note_on_c, 1, 57, 100
3, 28080, Note_on_c, 1, 57, 0
3, 28200, Note_on_c, 1, 54, 100
3, 28320, Note_on_c, 1, 54, 0
3, 28440, Note_on_c, 1, 52, 100
3, 28560, Note_on_c, 1, 52, 0
3, 28560, Note_on_c, 1, 50, 100
3, 28680, Note_on_c, 1, 50, 0
3, 28680, Note_on_c, 1, 48, 100
3, 28800, Note_on_c, 1, 48, 0
3, 28800, Note_on_c, 1, 47, 100
3, 29040, Note_on_c, 1, 47, 0
3, 29040, Note_on_c, 1, 50, 100
3, 29280, Note_on_c, 1, 50, 0
3, 29280, Note_on_c, 1, 55, 100
3, 29520, Note_on_c, 1, 55, 0
3, 29520, Note_on_c, 1, 59, 100
3, 29760, Note_on_c, 1, 59, 0
3, 29760, Note_on_c, 1, 62, 100
3, 30000, Note_on_c, 1, 62, 0
3, 30000, Note_on_c, 1, 65, 100
3, 30240, Note_on_c, 1, 65, 0
3, 30360, Note_on_c, 1, 64, 100
3, 30480, Note_on_c, 1, 64, 0
3, 30600, Note_on_c, 1, 60, 100
3, 30720, Note_on_c, 1, 60, 0
3, 30840, Note_on_c, 1, 55, 100
3, 30960, Note_on_c, 1, 55, 0
3, 31080, Note_on_c, 1, 52, 100
3, 31200, Note_on_c, 1, 52, 0
3, 31320, Note_on_c, 1, 48, 100
3, 31440, Note_on_c, 1, 48, 0
3, 31440, Note_on_c, 1, 47, 100
3, 31560, Note_on_c, 1, 47, 0
3, 31560, Note_on_c, 1, 45, 100
3, 31680, Note_on_c, 1, 45, 0
3, 31680, Note_on_c, 1, 50, 100
3, 31920, Note_on_c, 1, 50, 0
3, 31920, Note_on_c, 1, 54, 100
3, 32160, Note_on_c, 1, 54, 0
3, 32160, Note_on_c, 1, 57, 100
3, 32400, Note_on_c, 1, 57, 0
3, 32400, Note_on_c, 1, 62, 100
3, 32640, Note_on_c, 1, 62, 0
3, 32640, Note_on_c, 1, 66, 100
3, 32880, Note_on_c, 1, 66, 0
3, 32880, Note_on_c, 1, 69, 100
3, 33120, Note_on_c, 1, 69, 0
3, 33240, Note_on_c, 1, 71, 100
3, 33360, Note_on_c, 1, 71, 0
3, 33480, Note_on_c, 1, 67, 100
3, 33600, Note_on_c, 1, 67, 0
3, 33720, Note_on_c, 1, 62, 100
3, 33840, Note_on_c, 1, 62, 0
3, 33960, Note_on_c, 1, 59, 100
3, 34080, Note_on_c, 1, 59, 0
3, 34200, Note_on_c, 1, 57, 100
3, 34320, Note_on_c, 1, 57, 0
3, 34320, Note_on_c, 1, 55, 100
3, 34440, Note_on_c, 1, 55, 0
3, 34440, Note_on_c, 1, 54, 100
3, 34560, Note_on_c, 1, 54, 0
3, 34560, Note_on_c, 1, 55, 100
3, 34800, Note_on_c, 1, 55, 0
3, 35040, Note_on_c, 1, 83, 100
3, 35080, Note_on_c, 1, 83, 0
3, 35080, Note_on_c, 1, 81, 100
3, 35120, Note_on_c, 1, 81, 0
3, 35120, Note_on_c, 1, 83, 100
3, 35520, Note_on_c, 1, 83, 0
3, 35760, Note_on_c, 1, 64, 100
3, 36000, Note_on_c, 1, 64, 0
3, 36000, Note_on_c, 1, 54, 100
3, 36240, Note_on_c, 1, 54, 0
3, 36480, Note_on_c, 1, 81, 100
3, 36520, Note_on_c, 1, 81, 0
3, 36520, Note_on_c, 1, 79, 100
3, 36560, Note_on_c, 1, 79, 0
3, 36560, Note_on_c, 1, 81, 100
3, 36960, Note_on_c, 1, 81, 0
3, 37200, Note_on_c, 1, 62, 100
3, 37440, Note_on_c, 1, 62, 0
3, 37440, Note_on_c, 1, 71, 100
3, 37520, Note_on_c, 1, 71, 0
3, 37520, Note_on_c, 1, 72, 100
3, 37600, Note_on_c, 1, 72, 0
3, 37600, Note_on_c, 1, 71, 100
3, 37680, Note_on_c, 1, 71, 0
3, 37680, Note_on_c, 1, 69, 100
3, 37760, Note_on_c, 1, 69, 0
3, 37760, Note_on_c, 1, 71, 100
3, 37840, Note_on_c, 1, 71, 0
3, 37840, Note_on_c, 1, 69, 100
3, 37920, Note_on_c, 1, 69, 0
3, 37920, Note_on_c, 1, 67, 100
3, 38000, Note_on_c, 1, 67, 0
3, 38000, Note_on_c, 1, 69, 100
3, 38080, Note_on_c, 1, 69, 0
3, 38080, Note_on_c, 1, 67, 100
3, 38160, Note_on_c, 1, 67, 0
3, 38160, Note_on_c, 1, 66, 100
3, 38240, Note_on_c, 1, 66, 0
3, 38240, Note_on_c, 1, 67, 100
3, 38320, Note_on_c, 1, 67, 0
3, 38320, Note_on_c, 1, 66, 100
3, 38400, Note_on_c, 1, 66, 0
3, 38400, Note_on_c, 1, 64, 100
3, 38480, Note_on_c, 1, 64, 0
3, 38480, Note_on_c, 1, 66, 100
3, 38560, Note_on_c, 1, 66, 0
3, 38560, Note_on_c, 1, 64, 100
3, 38640, Note_on_c, 1, 64, 0
3, 38640, Note_on_c, 1, 62, 100
3, 38720, Note_on_c, 1, 62, 0
3, 38720, Note_on_c, 1, 64, 100
3, 38800, Note_on_c, 1, 64, 0
3, 38800, Note_on_c, 1, 62, 100
3, 38880, Note_on_c, 1, 62, 0
3, 38880, Note_on_c, 1, 61, 100
3, 38960, Note_on_c, 1, 61, 0
3, 38960, Note_on_c, 1, 62, 100
3, 39040, Note_on_c, 1, 62, 0
3, 39040, Note_on_c, 1, 61, 100
3, 39120, Note_on_c, 1, 61, 0
3, 39120, Note_on_c, 1, 59, 100
3, 39200, Note_on_c, 1, 59, 0
3, 39200, Note_on_c, 1, 61, 100
3, 39280, Note_on_c, 1, 61, 0
3, 39280, Note_on_c, 1, 59, 100
3, 39360, Note_on_c, 1, 59, 0
3, 39360, Note_on_c, 1, 57, 100
3, 39440, Note_on_c, 1, 57, 0
3, 39440, Note_on_c, 1, 59, 100
3, 39520, Note_on_c, 1, 59, 0
3, 39520, Note_on_c, 1, 57, 100
3, 39600, Note_on_c, 1, 57, 0
3, 39600, Note_on_c, 1, 55, 100
3, 39680, Note_on_c, 1, 55, 0
3, 39680, Note_on_c, 1, 57, 100
3, 39760, Note_on_c, 1, 57, 0
3, 39760, Note_on_c, 1, 55, 100
3, 39840, Note_on_c, 1, 55, 0
3, 39840, Note_on_c, 1, 54, 100
3, 39920, Note_on_c, 1, 54, 0
3, 39920, Note_on_c, 1, 55, 100
3, 40000, Note_on_c, 1, 55, 0
3, 40000, Note_on_c, 1, 54, 100
3, 40080, Note_on_c, 1, 54, 0
3, 40080, Note_on_c, 1, 52, 100
3, 40160, Note_on_c, 1, 52, 0
3, 40160, Note_on_c, 1, 54, 100
3, 40240, Note_on_c, 1, 54, 0
3, 40240, Note_on_c, 1, 52, 100
3, 40320, Note_on_c, 1, 52, 0
3, 40320, Note_on_c, 1, 50, 100
3, 40560, Note_on_c, 1, 50, 0
3, 40560, Note_on_c, 1, 57, 100
3, 40800, Note_on_c, 1, 57, 0
3, 40800, Note_on_c, 1, 66, 100
3, 41040, Note_on_c, 1, 66, 0
3, 41040, Note_on_c, 1, 57, 100
3, 41280, Note_on_c, 1, 57, 0
3, 41280, Note_on_c, 1, 50, 100
3, 41520, Note_on_c, 1, 50, 0
3, 41520, Note_on_c, 1, 60, 100
3, 41760, Note_on_c, 1, 60, 0
3, 41760, Note_on_c, 1, 59, 100
3, 41840, Note_on_c, 1, 59, 0
3, 41840, Note_on_c, 1, 55, 100
3, 41920, Note_on_c, 1, 55, 0
3, 41920, Note_on_c, 1, 62, 100
3, 42000, Note_on_c, 1, 62, 0
3, 42000, Note_on_c, 1, 61, 100
3, 42080, Note_on_c, 1, 61, 0
3, 42080, Note_on_c, 1, 57, 100
3, 42160, Note_on_c, 1, 57, 0
3, 42160, Note_on_c, 1, 64, 100
3, 42240, Note_on_c, 1, 64, 0
3, 42240, Note_on_c, 1, 62, 100
3, 42320, Note_on_c, 1, 62, 0
3, 42320, Note_on_c, 1, 59, 100
3, 42400, Note_on_c, 1, 59, 0
3, 42400, Note_on_c, 1, 66, 100
3, 42480, Note_on_c, 1, 66, 0
3, 42480, Note_on_c, 1, 64, 100
3, 42560, Note_on_c, 1, 64, 0
3, 42560, Note_on_c, 1, 61, 100
3, 42640, Note_on_c, 1, 61, 0
3, 42640, Note_on_c, 1, 67, 100
3, 42720, Note_on_c, 1, 67, 0
3, 42720, Note_on_c, 1, 66, 100
3, 42800, Note_on_c, 1, 66, 0
3, 42800, Note_on_c, 1, 62, 100
3, 42880, Note_on_c, 1, 62, 0
3, 42880, Note_on_c, 1, 69, 100
3, 42960, Note_on_c, 1, 69, 0
3, 42960, Note_on_c, 1, 67, 100
3, 43040, Note_on_c, 1, 67, 0
3, 43040, Note_on_c, 1, 64, 100
3, 43120, Note_on_c, 1, 64, 0
3, 43120, Note_on_c, 1, 71, 100
3, 43200, Note_on_c, 1, 71, 0
3, 43200, Note_on_c, 1, 69, 100
3, 43520, Note_on_c, 1, 69, 0
3, 43520, Note_on_c, 1, 71, 100
3, 43600, Note_on_c, 1, 71, 0
3, 43600, Note_on_c, 1, 73, 100
3, 43680, Note_on_c, 1, 73, 0
3, 43680, Note_on_c, 1, 74, 100
3, 43760, Note_on_c, 1, 74, 0
3, 43760, Note_on_c, 1, 73, 100
3, 43840, Note_on_c, 1, 73, 0
3, 43840, Note_on_c, 1, 71, 100
3, 43920, Note_on_c, 1, 71, 0
3, 43920, Note_on_c, 1, 69, 100
3, 44240, Note_on_c, 1, 69, 0
3, 44240, Note_on_c, 1, 67, 100
3, 44320, Note_on_c, 1, 67, 0
3, 44320, Note_on_c, 1, 66, 100
3, 44400, Note_on_c, 1, 66, 0
3, 44400, Note_on_c, 1, 64, 100
3, 44480, Note_on_c, 1, 64, 0
3, 44480, Note_on_c, 1, 66, 100
3, 44560, Note_on_c, 1, 66, 0
3, 44560, Note_on_c, 1, 67, 100
3, 44640, Note_on_c, 1, 67, 0
3, 44640, Note_on_c, 1, 66, 100
3, 44880, Note_on_c, 1, 66, 0
3, 45200, Note_on_c, 1, 66, 100
3, 45280, Note_on_c, 1, 66, 0
3, 45280, Note_on_c, 1, 69, 100
3, 45360, Note_on_c, 1, 69, 0
3, 45360, Note_on_c, 1, 74, 100
3, 45440, Note_on_c, 1, 74, 0
3, 45440, Note_on_c, 1, 78, 100
3, 45520, Note_on_c, 1, 78, 0
3, 45520, Note_on_c, 1, 81, 100
3, 45600, Note_on_c, 1, 81, 0
3, 45600, Note_on_c, 1, 86, 100
3, 45840, Note_on_c, 1, 86, 0
3, 46080, Note_on_c, 1, 50, 100
3, 46320, Note_on_c, 1, 50, 0
3, 46320, Note_on_c, 1, 38, 100
3, 46560, Note_on_c, 1, 38, 0
3, 46560, Note_on_c, 1, 42, 100
3, 46800, Note_on_c, 1, 42, 0
3, 46800, Note_on_c, 1, 45, 100
3, 47040, Note_on_c, 1, 45, 0
3, 47040, Note_on_c, 1, 50, 100
3, 47280, Note_on_c, 1, 50, 0
3, 47280, Note_on_c, 1, 54, 100
3, 47520, Note_on_c, 1, 54, 0
3, 47520, Note_on_c, 1, 55, 100
3, 47760, Note_on_c, 1, 55, 0
3, 47760, Note_on_c, 1, 59, 100
3, 48000, Note_on_c, 1, 59, 0
3, 48000, Note_on_c, 1, 62, 100
3, 48240, Note_on_c, 1, 62, 0
3, 48240, Note_on_c, 1, 67, 100
3, 48480, Note_on_c, 1, 67, 0
3, 48480, Note_on_c, 1, 71, 100
3, 48540, Note_on_c, 1, 71, 0
3, 48540, Note_on_c, 1, 69, 100
3, 48600, Note_on_c, 1, 69, 0
3, 48600, Note_on_c, 1, 71, 100
3, 49020, Note_on_c, 1, 71, 0
3, 49040, Note_on_c, 1, 64, 100
3, 49120, Note_on_c, 1, 64, 0
3, 49120, Note_on_c, 1, 63, 100
3, 49200, Note_on_c, 1, 63, 0
3, 49200, Note_on_c, 1, 64, 100
3, 49280, Note_on_c, 1, 64, 0
3, 49280, Note_on_c, 1, 66, 100
3, 49360, Note_on_c, 1, 66, 0
3, 49360, Note_on_c, 1, 67, 100
3, 49440, Note_on_c, 1, 67, 0
3, 49440, Note_on_c, 1, 69, 100
3, 49520, Note_on_c, 1, 69, 0
3, 49520, Note_on_c, 1, 67, 100
3, 49600, Note_on_c, 1, 67, 0
3, 49600, Note_on_c, 1, 66, 100
3, 49680, Note_on_c, 1, 66, 0
3, 49680, Note_on_c, 1, 67, 100
3, 49760, Note_on_c, 1, 67, 0
3, 49760, Note_on_c, 1, 69, 100
3, 49840, Note_on_c, 1, 69, 0
3, 49840, Note_on_c, 1, 71, 100
3, 49920, Note_on_c, 1, 71, 0
3, 49920, Note_on_c, 1, 72, 100
3, 50000, Note_on_c, 1, 72, 0
3, 50000, Note_on_c, 1, 71, 100
3, 50080, Note_on_c, 1, 71, 0
3, 50080, Note_on_c, 1, 69, 100
3, 50160, Note_on_c, 1, 69, 0
3, 50160, Note_on_c, 1, 67, 100
3, 50240, Note_on_c, 1, 67, 0
3, 50240, Note_on_c, 1, 66, 100
3, 50320, Note_on_c, 1, 66, 0
3, 50320, Note_on_c, 1, 64, 100
3, 50400, Note_on_c, 1, 64, 0
3, 50400, Note_on_c, 1, 63, 100
3, 50720, Note_on_c, 1, 63, 0
3, 50720, Note_on_c, 1, 64, 100
3, 50800, Note_on_c, 1, 64, 0
3, 50800, Note_on_c, 1, 66, 100
3, 50880, Note_on_c, 1, 66, 0
3, 50880, Note_on_c, 1, 67, 100
3, 50960, Note_on_c, 1, 67, 0
3, 50960, Note_on_c, 1, 66, 100
3, 51040, Note_on_c, 1, 66, 0
3, 51040, Note_on_c, 1, 64, 100
3, 51120, Note_on_c, 1, 64, 0
3, 51120, Note_on_c, 1, 66, 100
3, 51200, Note_on_c, 1, 66, 0
3, 51200, Note_on_c, 1, 67, 100
3, 51280, Note_on_c, 1, 67, 0
3, 51280, Note_on_c, 1, 69, 100
3, 51360, Note_on_c, 1, 69, 0
3, 51360, Note_on_c, 1, 59, 100
3, 51600, Note_on_c, 1, 59, 0
3, 51600, Note_on_c, 1, 57, 100
3, 51840, Note_on_c, 1, 57, 0
3, 51840, Note_on_c, 1, 55, 100
3, 51920, Note_on_c, 1, 55, 0
3, 51920, Note_on_c, 1, 54, 100
3, 52000, Note_on_c, 1, 54, 0
3, 52000, Note_on_c, 1, 52, 100
3, 52160, Note_on_c, 1, 52, 0
3, 52160, Note_on_c, 1, 51, 100
3, 52240, Note_on_c, 1, 51, 0
3, 52240, Note_on_c, 1, 52, 100
3, 52320, Note_on_c, 1, 52, 0
3, 52320, Note_on_c, 1, 53, 100
3, 52400, Note_on_c, 1, 53, 0
3, 52400, Note_on_c, 1, 52, 100
3, 52480, Note_on_c, 1, 52, 0
3, 52480, Note_on_c, 1, 53, 100
3, 52560, Note_on_c, 1, 53, 0
3, 52560, Note_on_c, 1, 54, 100
3, 52640, Note_on_c, 1, 54, 0
3, 52640, Note_on_c, 1, 52, 100
3, 52720, Note_on_c, 1, 52, 0
3, 52720, Note_on_c, 1, 54, 100
3, 52800, Note_on_c, 1, 54, 0
3, 52800, Note_on_c, 1, 55, 100
3, 52880, Note_on_c, 1, 55, 0
3, 52880, Note_on_c, 1, 54, 100
3, 52960, Note_on_c, 1, 54, 0
3, 52960, Note_on_c, 1, 55, 100
3, 53040, Note_on_c, 1, 55, 0
3, 53040, Note_on_c, 1, 56, 100
3, 53120, Note_on_c, 1, 56, 0
3, 53120, Note_on_c, 1, 54, 100
3, 53200, Note_on_c, 1, 54, 0
3, 53200, Note_on_c, 1, 56, 100
3, 53280, Note_on_c, 1, 56, 0
3, 53280, Note_on_c, 1, 57, 100
3, 53600, Note_on_c, 1, 57, 0
3, 53610, Note_on_c, 1, 58, 100
3, 53680, Note_on_c, 1, 59, 100
3, 53690, Note_on_c, 1, 58, 0
3, 53760, Note_on_c, 1, 59, 0
3, 53760, Note_on_c, 1, 60, 100
3, 53840, Note_on_c, 1, 60, 0
3, 53840, Note_on_c, 1, 59, 100
3, 53920, Note_on_c, 1, 59, 0
3, 53920, Note_on_c, 1, 60, 100
3, 54000, Note_on_c, 1, 60, 0
3, 54000, Note_on_c, 1, 61, 100
3, 54080, Note_on_c, 1, 61, 0
3, 54080, Note_on_c, 1, 59, 100
3, 54160, Note_on_c, 1, 59, 0
3, 54160, Note_on_c, 1, 61, 100
3, 54240, Note_on_c, 1, 61, 0
3, 54240, Note_on_c, 1, 62, 100
3, 54320, Note_on_c, 1, 62, 0
3, 54320, Note_on_c, 1, 61, 100
3, 54400, Note_on_c, 1, 61, 0
3, 54400, Note_on_c, 1, 62, 100
3, 54480, Note_on_c, 1, 62, 0
3, 54480, Note_on_c, 1, 63, 100
3, 54560, Note_on_c, 1, 63, 0
3, 54560, Note_on_c, 1, 61, 100
3, 54640, Note_on_c, 1, 61, 0
3, 54640, Note_on_c, 1, 63, 100
3, 54720, Note_on_c, 1, 63, 0
3, 54720, Note_on_c, 1, 64, 100
3, 54800, Note_on_c, 1, 64, 0
3, 54800, Note_on_c, 1, 63, 100
3, 54880, Note_on_c, 1, 63, 0
3, 54880, Note_on_c, 1, 64, 100
3, 54960, Note_on_c, 1, 64, 0
3, 54960, Note_on_c, 1, 66, 100
3, 55040, Note_on_c, 1, 66, 0
3, 55040, Note_on_c, 1, 64, 100
3, 55120, Note_on_c, 1, 64, 0
3, 55120, Note_on_c, 1, 66, 100
3, 55200, Note_on_c, 1, 66, 0
3, 55200, Note_on_c, 1, 67, 100
3, 55280, Note_on_c, 1, 67, 0
3, 55280, Note_on_c, 1, 66, 100
3, 55360, Note_on_c, 1, 66, 0
3, 55360, Note_on_c, 1, 67, 100
3, 55440, Note_on_c, 1, 67, 0
3, 55440, Note_on_c, 1, 69, 100
3, 55520, Note_on_c, 1, 69, 0
3, 55520, Note_on_c, 1, 67, 100
3, 55600, Note_on_c, 1, 67, 0
3, 55600, Note_on_c, 1, 69, 100
3, 55680, Note_on_c, 1, 69, 0
3, 55680, Note_on_c, 1, 71, 100
3, 55760, Note_on_c, 1, 71, 0
3, 55760, Note_on_c, 1, 69, 100
3, 55840, Note_on_c, 1, 69, 0
3, 55840, Note_on_c, 1, 71, 100
3, 55920, Note_on_c, 1, 71, 0
3, 55920, Note_on_c, 1, 72, 100
3, 56000, Note_on_c, 1, 72, 0
3, 56000, Note_on_c, 1, 71, 100
3, 56080, Note_on_c, 1, 71, 0
3, 56080, Note_on_c, 1, 69, 100
3, 56160, Note_on_c, 1, 69, 0
3, 56160, Note_on_c, 1, 67, 100
3, 56240, Note_on_c, 1, 67, 0
3, 56240, Note_on_c, 1, 66, 100
3, 56320, Note_on_c, 1, 66, 0
3, 56320, Note_on_c, 1, 67, 100
3, 56400, Note_on_c, 1, 67, 0
3, 56400, Note_on_c, 1, 69, 100
3, 56480, Note_on_c, 1, 69, 0
3, 56480, Note_on_c, 1, 67, 100
3, 56560, Note_on_c, 1, 67, 0
3, 56560, Note_on_c, 1, 66, 100
3, 56640, Note_on_c, 1, 66, 0
3, 56640, Note_on_c, 1, 64, 100
3, 57360, Note_on_c, 1, 64, 0
3, 57360, Note_on_c, 1, 50, 100
3, 57600, Note_on_c, 1, 50, 0
3, 57600, Note_on_c, 1, 48, 100
3, 57840, Note_on_c, 1, 48, 0
3, 57840, Note_on_c, 1, 64, 100
3, 57960, Note_on_c, 1, 64, 0
3, 58080, Note_on_c, 1, 64, 100
3, 58200, Note_on_c, 1, 64, 0
3, 58320, Note_on_c, 1, 64, 100
3, 58440, Note_on_c, 1, 64, 0
3, 58560, Note_on_c, 1, 64, 100
3, 58680, Note_on_c, 1, 64, 0
3, 58800, Note_on_c, 1, 48, 100
3, 59040, Note_on_c, 1, 48, 0
3, 59040, Note_on_c, 1, 47, 100
3, 59280, Note_on_c, 1, 47, 0
3, 59280, Note_on_c, 1, 62, 100
3, 59400, Note_on_c, 1, 62, 0
3, 59520, Note_on_c, 1, 62, 100
3, 59640, Note_on_c, 1, 62, 0
3, 59760, Note_on_c, 1, 62, 100
3, 59880, Note_on_c, 1, 62, 0
3, 60000, Note_on_c, 1, 62, 100
3, 60120, Note_on_c, 1, 62, 0
3, 60240, Note_on_c, 1, 47, 100
3, 60480, Note_on_c, 1, 47, 0
3, 60480, Note_on_c, 1, 45, 100
3, 60720, Note_on_c, 1, 45, 0
3, 60800, Note_on_c, 1, 59, 100
3, 60880, Note_on_c, 1, 59, 0
3, 60880, Note_on_c, 1, 67, 100
3, 60960, Note_on_c, 1, 67, 0
3, 61040, Note_on_c, 1, 57, 100
3, 61120, Note_on_c, 1, 57, 0
3, 61120, Note_on_c, 1, 66, 100
3, 61200, Note_on_c, 1, 66, 0
3, 61280, Note_on_c, 1, 55, 100
3, 61360, Note_on_c, 1, 55, 0
3, 61360, Note_on_c, 1, 64, 100
3, 61440, Note_on_c, 1, 64, 0
3, 61520, Note_on_c, 1, 54, 100
3, 61600, Note_on_c, 1, 54, 0
3, 61600, Note_on_c, 1, 62, 100
3, 61680, Note_on_c, 1, 62, 0
3, 61760, Note_on_c, 1, 55, 100
3, 61840, Note_on_c, 1, 55, 0
3, 61840, Note_on_c, 1, 64, 100
3, 61920, Note_on_c, 1, 64, 0
3, 61920, Note_on_c, 1, 50, 100
3, 62160, Note_on_c, 1, 50, 0
3, 62240, Note_on_c, 1, 57, 100
3, 62320, Note_on_c, 1, 57, 0
3, 62320, Note_on_c, 1, 66, 100
3, 62400, Note_on_c, 1, 66, 0
3, 62480, Note_on_c, 1, 59, 100
3, 62560, Note_on_c, 1, 59, 0
3, 62560, Note_on_c, 1, 67, 100
3, 62640, Note_on_c, 1, 67, 0
3, 62720, Note_on_c, 1, 60, 100
3, 62800, Note_on_c, 1, 60, 0
3, 62800, Note_on_c, 1, 69, 100
3, 62880, Note_on_c, 1, 69, 0
3, 62960, Note_on_c, 1, 59, 100
3, 63040, Note_on_c, 1, 59, 0
3, 63040, Note_on_c, 1, 67, 100
3, 63120, Note_on_c, 1, 67, 0
3, 63200, Note_on_c, 1, 57, 100
3, 63280, Note_on_c, 1, 57, 0
3, 63280, Note_on_c, 1, 66, 100
3, 63360, Note_on_c, 1, 66, 0
3, 63360, Note_on_c, 1, 55, 100
3, 63600, Note_on_c, 1, 55, 0
3, 63600, Note_on_c, 1, 67, 100
3, 63920, Note_on_c, 1, 67, 0
3, 63920, Note_on_c, 1, 71, 100
3, 64000, Note_on_c, 1, 71, 0
3, 64000, Note_on_c, 1, 64, 100
3, 64080, Note_on_c, 1, 64, 0
3, 64080, Note_on_c, 1, 65, 100
3, 64160, Note_on_c, 1, 65, 0
3, 64160, Note_on_c, 1, 69, 100
3, 64240, Note_on_c, 1, 69, 0
3, 64240, Note_on_c, 1, 62, 100
3, 64320, Note_on_c, 1, 62, 0
3, 64320, Note_on_c, 1, 64, 100
3, 64400, Note_on_c, 1, 64, 0
3, 64400, Note_on_c, 1, 67, 100
3, 64480, Note_on_c, 1, 67, 0
3, 64480, Note_on_c, 1, 60, 100
3, 64560, Note_on_c, 1, 60, 0
3, 64560, Note_on_c, 1, 62, 100
3, 64640, Note_on_c, 1, 62, 0
3, 64640, Note_on_c, 1, 65, 100
3, 64720, Note_on_c, 1, 65, 0
3, 64720, Note_on_c, 1, 59, 100
3, 64800, Note_on_c, 1, 59, 0
3, 64800, Note_on_c, 1, 60, 100
3, 64880, Note_on_c, 1, 60, 0
3, 64880, Note_on_c, 1, 55, 100
3, 64960, Note_on_c, 1, 55, 0
3, 64960, Note_on_c, 1, 64, 100
3, 65040, Note_on_c, 1, 64, 0
3, 65040, Note_on_c, 1, 62, 100
3, 65120, Note_on_c, 1, 62, 0
3, 65120, Note_on_c, 1, 59, 100
3, 65200, Note_on_c, 1, 59, 0
3, 65200, Note_on_c, 1, 65, 100
3, 65280, Note_on_c, 1, 65, 0
3, 65280, Note_on_c, 1, 64, 100
3, 65520, Note_on_c, 1, 64, 0
3, 65520, Note_on_c, 1, 79, 100
3, 65760, Note_on_c, 1, 79, 0
3, 65760, Note_on_c, 1, 84, 100
3, 66000, Note_on_c, 1, 84, 0
3, 66000, Note_on_c, 1, 76, 100
3, 66240, Note_on_c, 1, 76, 0
3, 66240, Note_on_c, 1, 74, 100
3, 66560, Note_on_c, 1, 74, 0
3, 66560, Note_on_c, 1, 76, 100
3, 66640, Note_on_c, 1, 76, 0
3, 66640, Note_on_c, 1, 78, 100
3, 66720, Note_on_c, 1, 78, 0
3, 66720, Note_on_c, 1, 79, 100
3, 66800, Note_on_c, 1, 79, 0
3, 66800, Note_on_c, 1, 78, 100
3, 66880, Note_on_c, 1, 78, 0
3, 66880, Note_on_c, 1, 76, 100
3, 66960, Note_on_c, 1, 76, 0
3, 66960, Note_on_c, 1, 74, 100
3, 67280, Note_on_c, 1, 74, 0
3, 67280, Note_on_c, 1, 72, 100
3, 67360, Note_on_c, 1, 72, 0
3, 67360, Note_on_c, 1, 71, 100
3, 67440, Note_on_c, 1, 71, 0
3, 67440, Note_on_c, 1, 69, 100
3, 67520, Note_on_c, 1, 69, 0
3, 67520, Note_on_c, 1, 71, 100
3, 67600, Note_on_c, 1, 71, 0
3, 67600, Note_on_c, 1, 72, 100
3, 67680, Note_on_c, 1, 72, 0
3, 67680, Note_on_c, 1, 71, 100
3, 67920, Note_on_c, 1, 71, 0
3, 68240, Note_on_c, 1, 59, 100
3, 68320, Note_on_c, 1, 59, 0
3, 68320, Note_on_c, 1, 62, 100
3, 68400, Note_on_c, 1, 62, 0
3, 68400, Note_on_c, 1, 67, 100
3, 68480, Note_on_c, 1, 67, 0
3, 68480, Note_on_c, 1, 71, 100
3, 68560, Note_on_c, 1, 71, 0
3, 68560, Note_on_c, 1, 74, 100
3, 68640, Note_on_c, 1, 74, 0
3, 68640, Note_on_c, 1, 79, 100
3, 68880, Note_on_c, 1, 79, 0
3, 69120, Note_on_c, 1, 50, 100
3, 69360, Note_on_c, 1, 50, 0
3, 69360, Note_on_c, 1, 38, 100
3, 69600, Note_on_c, 1, 38, 0
3, 69600, Note_on_c, 1, 42, 100
3, 69840, Note_on_c, 1, 42, 0
3, 69840, Note_on_c, 1, 45, 100
3, 70080, Note_on_c, 1, 45, 0
3, 70080, Note_on_c, 1, 50, 100
3, 70320, Note_on_c, 1, 50, 0
3, 70320, Note_on_c, 1, 54, 100
3, 70560, Note_on_c, 1, 54, 0
3, 70560, Note_on_c, 1, 55, 100
3, 70800, Note_on_c, 1, 55, 0
3, 70800, Note_on_c, 1, 59, 100
3, 71040, Note_on_c, 1, 59, 0
3, 71040, Note_on_c, 1, 62, 100
3, 71280, Note_on_c, 1, 62, 0
3, 71280, Note_on_c, 1, 67, 100
3, 71520, Note_on_c, 1, 67, 0
3, 71520, Note_on_c, 1, 71, 100
3, 71580, Note_on_c, 1, 71, 0
3, 71580, Note_on_c, 1, 69, 100
3, 71640, Note_on_c, 1, 69, 0
3, 71640, Note_on_c, 1, 71, 100
3, 72060, Note_on_c, 1, 71, 0
3, 72080, Note_on_c, 1, 64, 100
3, 72160, Note_on_c, 1, 64, 0
3, 72160, Note_on_c, 1, 63, 100
3, 72240, Note_on_c, 1, 63, 0
3, 72240, Note_on_c, 1, 64, 100
3, 72320, Note_on_c, 1, 64, 0
3, 72320, Note_on_c, 1, 66, 100
3, 72400, Note_on_c, 1, 66, 0
3, 72400, Note_on_c, 1, 67, 100
3, 72480, Note_on_c, 1, 67, 0
3, 72480, Note_on_c, 1, 69, 100
3, 72560, Note_on_c, 1, 69, 0
3, 72560, Note_on_c, 1, 67, 100
3, 72640, Note_on_c, 1, 67, 0
3, 72640, Note_on_c, 1, 66, 100
3, 72720, Note_on_c, 1, 66, 0
3, 72720, Note_on_c, 1, 67, 100
3, 72800, Note_on_c, 1, 67, 0
3, 72800, Note_on_c, 1, 69, 100
3, 72880, Note_on_c, 1, 69, 0
3, 72880, Note_on_c, 1, 71, 100
3, 72960, Note_on_c, 1, 71, 0
3, 72960, Note_on_c, 1, 72, 100
3, 73040, Note_on_c, 1, 72, 0
3, 73040, Note_on_c, 1, 71, 100
3, 73120, Note_on_c, 1, 71, 0
3, 73120, Note_on_c, 1, 69, 100
3, 73200, Note_on_c, 1, 69, 0
3, 73200, Note_on_c, 1, 67, 100
3, 73280, Note_on_c, 1, 67, 0
3, 73280, Note_on_c, 1, 66, 100
3, 73360, Note_on_c, 1, 66, 0
3, 73360, Note_on_c, 1, 64, 100
3, 73440, Note_on_c, 1, 64, 0
3, 73440, Note_on_c, 1, 63, 100
3, 73760, Note_on_c, 1, 63, 0
3, 73760, Note_on_c, 1, 64, 100
3, 73840, Note_on_c, 1, 64, 0
3, 73840, Note_on_c, 1, 66, 100
3, 73920, Note_on_c, 1, 66, 0
3, 73920, Note_on_c, 1, 67, 100
3, 74000, Note_on_c, 1, 67, 0
3, 74000, Note_on_c, 1, 66, 100
3, 74080, Note_on_c, 1, 66, 0
3, 74080, Note_on_c, 1, 64, 100
3, 74160, Note_on_c, 1, 64, 0
3, 74160, Note_on_c, 1, 66, 100
3, 74240, Note_on_c, 1, 66, 0
3, 74240, Note_on_c, 1, 67, 100
3, 74320, Note_on_c, 1, 67, 0
3, 74320, Note_on_c, 1, 69, 100
3, 74400, Note_on_c, 1, 69, 0
3, 74400, Note_on_c, 1, 59, 100
3, 74640, Note_on_c, 1, 59, 0
3, 74640, Note_on_c, 1, 57, 100
3, 74880, Note_on_c, 1, 57, 0
3, 74880, Note_on_c, 1, 55, 100
3, 74960, Note_on_c, 1, 55, 0
3, 74960, Note_on_c, 1, 54, 100
3, 75040, Note_on_c, 1, 54, 0
3, 75040, Note_on_c, 1, 52, 100
3, 75200, Note_on_c, 1, 52, 0
3, 75200, Note_on_c, 1, 51, 100
3, 75280, Note_on_c, 1, 51, 0
3, 75280, Note_on_c, 1, 52, 100
3, 75360, Note_on_c, 1, 52, 0
3, 75360, Note_on_c, 1, 53, 100
3, 75440, Note_on_c, 1, 53, 0
3, 75440, Note_on_c, 1, 52, 100
3, 75520, Note_on_c, 1, 52, 0
3, 75520, Note_on_c, 1, 53, 100
3, 75600, Note_on_c, 1, 53, 0
3, 75600, Note_on_c, 1, 54, 100
3, 75680, Note_on_c, 1, 54, 0
3, 75680, Note_on_c, 1, 52, 100
3, 75760, Note_on_c, 1, 52, 0
3, 75760, Note_on_c, 1, 54, 100
3, 75840, Note_on_c, 1, 54, 0
3, 75840, Note_on_c, 1, 55, 100
3, 75920, Note_on_c, 1, 55, 0
3, 75920, Note_on_c, 1, 54, 100
3, 76000, Note_on_c, 1, 54, 0
3, 76000, Note_on_c, 1, 55, 100
3, 76080, Note_on_c, 1, 55, 0
3, 76080, Note_on_c, 1, 56, 100
3, 76160, Note_on_c, 1, 56, 0
3, 76160, Note_on_c, 1, 54, 100
3, 76240, Note_on_c, 1, 54, 0
3, 76240, Note_on_c, 1, 56, 100
3, 76320, Note_on_c, 1, 56, 0
3, 76320, Note_on_c, 1, 57, 100
3, 76640, Note_on_c, 1, 57, 0
3, 76650, Note_on_c, 1, 58, 100
3, 76720, Note_on_c, 1, 59, 100
3, 76730, Note_on_c, 1, 58, 0
3, 76800, Note_on_c, 1, 59, 0
3, 76800, Note_on_c, 1, 60, 100
3, 76880, Note_on_c, 1, 60, 0
3, 76880, Note_on_c, 1, 59, 100
3, 76960, Note_on_c, 1, 59, 0
3, 76960, Note_on_c, 1, 60, 100
3, 77040, Note_on_c, 1, 60, 0
3, 77040, Note_on_c, 1, 61, 100
3, 77120, Note_on_c, 1, 61, 0
3, 77120, Note_on_c, 1, 59, 100
3, 77200, Note_on_c, 1, 59, 0
3, 77200, Note_on_c, 1, 61, 100
3, 77280, Note_on_c, 1, 61, 0
3, 77280, Note_on_c, 1, 62, 100
3, 77360, Note_on_c, 1, 62, 0
3, 77360, Note_on_c, 1, 61, 100
3, 77440, Note_on_c, 1, 61, 0
3, 77440, Note_on_c, 1, 62, 100
3, 77520, Note_on_c, 1, 62, 0
3, 77520, Note_on_c, 1, 63, 100
3, 77600, Note_on_c, 1, 63, 0
3, 77600, Note_on_c, 1, 61, 100
3, 77680, Note_on_c, 1, 61, 0
3, 77680, Note_on_c, 1, 63, 100
3, 77760, Note_on_c, 1, 63, 0
3, 77760, Note_on_c, 1, 64, 100
3, 77840, Note_on_c, 1, 64, 0
3, 77840, Note_on_c, 1, 63, 100
3, 77920, Note_on_c, 1, 63, 0
3, 77920, Note_on_c, 1, 64, 100
3, 78000, Note_on_c, 1, 64, 0
3, 78000, Note_on_c, 1, 66, 100
3, 78080, Note_on_c, 1, 66, 0
3, 78080, Note_on_c, 1, 64, 100
3, 78160, Note_on_c, 1, 64, 0
3, 78160, Note_on_c, 1, 66, 100
3, 78240, Note_on_c, 1, 66, 0
3, 78240, Note_on_c, 1, 67, 100
3, 78320, Note_on_c, 1, 67, 0
3, 78320, Note_on_c, 1, 66, 100
3, 78400, Note_on_c, 1, 66, 0
3, 78400, Note_on_c, 1, 67, 100
3, 78480, Note_on_c, 1, 67, 0
3, 78480, Note_on_c, 1, 69, 100
3, 78560, Note_on_c, 1, 69, 0
3, 78560, Note_on_c, 1, 67, 100
3, 78640, Note_on_c, 1, 67, 0
3, 78640, Note_on_c, 1, 69, 100
3, 78720, Note_on_c, 1, 69, 0
3, 78720, Note_on_c, 1, 71, 100
3, 78800, Note_on_c, 1, 71, 0
3, 78800, Note_on_c, 1, 69, 100
3, 78880, Note_on_c, 1, 69, 0
3, 78880, Note_on_c, 1, 71, 100
3, 78960, Note_on_c, 1, 71, 0
3, 78960, Note_on_c, 1, 72, 100
3, 79040, Note_on_c, 1, 72, 0
3, 79040, Note_on_c, 1, 71, 100
3, 79120, Note_on_c, 1, 71, 0
3, 79120, Note_on_c, 1, 69, 100
3, 79200, Note_on_c, 1, 69, 0
3, 79200, Note_on_c, 1, 67, 100
3, 79280, Note_on_c, 1, 67, 0
3, 79280, Note_on_c, 1, 66, 100
3, 79360, Note_on_c, 1, 66, 0
3, 79360, Note_on_c, 1, 67, 100
3, 79440, Note_on_c, 1, 67, 0
3, 79440, Note_on_c, 1, 69, 100
3, 79520, Note_on_c, 1, 69, 0
3, 79520, Note_on_c, 1, 67, 100
3, 79600, Note_on_c, 1, 67, 0
3, 79600, Note_on_c, 1, 66, 100
3, 79680, Note_on_c, 1, 66, 0
3, 79680, Note_on_c, 1, 64, 100
3, 80400, Note_on_c, 1, 64, 0
3, 80400, Note_on_c, 1, 50, 100
3, 80640, Note_on_c, 1, 50, 0
3, 80640, Note_on_c, 1, 48, 100
3, 80880, Note_on_c, 1, 48, 0
3, 80880, Note_on_c, 1, 64, 100
3, 81000, Note_on_c, 1, 64, 0
3, 81120, Note_on_c, 1, 64, 100
3, 81240, Note_on_c, 1, 64, 0
3, 81360, Note_on_c, 1, 64, 100
3, 81480, Note_on_c, 1, 64, 0
3, 81600, Note_on_c, 1, 64, 100
3, 81720, Note_on_c, 1, 64, 0
3, 81840, Note_on_c, 1, 48, 100
3, 82080, Note_on_c, 1, 48, 0
3, 82080, Note_on_c, 1, 47, 100
3, 82320, Note_on_c, 1, 47, 0
3, 82320, Note_on_c, 1, 62, 100
3, 82440, Note_on_c, 1, 62, 0
3, 82560, Note_on_c, 1, 62, 100
3, 82680, Note_on_c, 1, 62, 0
3, 82800, Note_on_c, 1, 62, 100
3, 82920, Note_on_c, 1, 62, 0
3, 83040, Note_on_c, 1, 62, 100
3, 83160, Note_on_c, 1, 62, 0
3, 83280, Note_on_c, 1, 47, 100
3, 83520, Note_on_c, 1, 47, 0
3, 83520, Note_on_c, 1, 45, 100
3, 83760, Note_on_c, 1, 45, 0
3, 83840, Note_on_c, 1, 59, 100
3, 83920, Note_on_c, 1, 59, 0
3, 83920, Note_on_c, 1, 67, 100
3, 84000, Note_on_c, 1, 67, 0
3, 84080, Note_on_c, 1, 57, 100
3, 84160, Note_on_c, 1, 57, 0
3, 84160, Note_on_c, 1, 66, 100
3, 84240, Note_on_c, 1, 66, 0
3, 84320, Note_on_c, 1, 55, 100
3, 84400, Note_on_c, 1, 55, 0
3, 84400, Note_on_c, 1, 64, 100
3, 84480, Note_on_c, 1, 64, 0
3, 84560, Note_on_c, 1, 54, 100
3, 84640, Note_on_c, 1, 54, 0
3, 84640, Note_on_c, 1, 62, 100
3, 84720, Note_on_c, 1, 62, 0
3, 84800, Note_on_c, 1, 55, 100
3, 84880, Note_on_c, 1, 55, 0
3, 84880, Note_on_c, 1, 64, 100
3, 84960, Note_on_c, 1, 64, 0
3, 84960, Note_on_c, 1, 50, 100
3, 85200, Note_on_c, 1, 50, 0
3, 85280, Note_on_c, 1, 57, 100
3, 85360, Note_on_c, 1, 57, 0
3, 85360, Note_on_c, 1, 66, 100
3, 85440, Note_on_c, 1, 66, 0
3, 85520, Note_on_c, 1, 59, 100
3, 85600, Note_on_c, 1, 59, 0
3, 85600, Note_on_c, 1, 67, 100
3, 85680, Note_on_c, 1, 67, 0
3, 85760, Note_on_c, 1, 60, 100
3, 85840, Note_on_c, 1, 60, 0
3, 85840, Note_on_c, 1, 69, 100
3, 85920, Note_on_c, 1, 69, 0
3, 86000, Note_on_c, 1, 59, 100
3, 86080, Note_on_c, 1, 59, 0
3, 86080, Note_on_c, 1, 67, 100
3, 86160, Note_on_c, 1, 67, 0
3, 86240, Note_on_c, 1, 57, 100
3, 86320, Note_on_c, 1, 57, 0
3, 86320, Note_on_c, 1, 66, 100
3, 86400, Note_on_c, 1, 66, 0
3, 86400, Note_on_c, 1, 55, 100
3, 86640, Note_on_c, 1, 55, 0
3, 86640, Note_on_c, 1, 67, 100
3, 86960, Note_on_c, 1, 67, 0
3, 86960, Note_on_c, 1, 71, 100
3, 87040, Note_on_c, 1, 71, 0
3, 87040, Note_on_c, 1, 64, 100
3, 87120, Note_on_c, 1, 64, 0
3, 87120, Note_on_c, 1, 65, 100
3, 87200, Note_on_c, 1, 65, 0
3, 87200, Note_on_c, 1, 69, 100
3, 87280, Note_on_c, 1, 69, 0
3, 87280, Note_on_c, 1, 62, 100
3, 87360, Note_on_c, 1, 62, 0
3, 87360, Note_on_c, 1, 64, 100
3, 87440, Note_on_c, 1, 64, 0
3, 87440, Note_on_c, 1, 67, 100
3, 87520, Note_on_c, 1, 67, 0
3, 87520, Note_on_c, 1, 60, 100
3, 87600, Note_on_c, 1, 60, 0
3, 87600, Note_on_c, 1, 62, 100
3, 87680, Note_on_c, 1, 62, 0
3, 87680, Note_on_c, 1, 65, 100
3, 87760, Note_on_c, 1, 65, 0
3, 87760, Note_on_c, 1, 59, 100
3, 87840, Note_on_c, 1, 59, 0
3, 87840, Note_on_c, 1, 60, 100
3, 87920, Note_on_c, 1, 60, 0
3, 87920, Note_on_c, 1, 55, 100
3, 88000, Note_on_c, 1, 55, 0
3, 88000, Note_on_c, 1, 64, 100
3, 88080, Note_on_c, 1, 64, 0
3, 88080, Note_on_c, 1, 62, 100
3, 88160, Note_on_c, 1, 62, 0
3, 88160, Note_on_c, 1, 59, 100
3, 88240, Note_on_c, 1, 59, 0
3, 88240, Note_on_c, 1, 65, 100
3, 88320, Note_on_c, 1, 65, 0
3, 88320, Note_on_c, 1, 64, 100
3, 88560, Note_on_c, 1, 64, 0
3, 88560, Note_on_c, 1, 79, 100
3, 88800, Note_on_c, 1, 79, 0
3, 88800, Note_on_c, 1, 84, 100
3, 89040, Note_on_c, 1, 84, 0
3, 89040, Note_on_c, 1, 76, 100
3, 89280, Note_on_c, 1, 76, 0
3, 89280, Note_on_c, 1, 74, 100
3, 89600, Note_on_c, 1, 74, 0
3, 89600, Note_on_c, 1, 76, 100
3, 89680, Note_on_c, 1, 76, 0
3, 89680, Note_on_c, 1, 78, 100
3, 89760, Note_on_c, 1, 78, 0
3, 89760, Note_on_c, 1, 79, 100
3, 89840, Note_on_c, 1, 79, 0
3, 89840, Note_on_c, 1, 78, 100
3, 89920, Note_on_c, 1, 78, 0
3, 89920, Note_on_c, 1, 76, 100
3, 90000, Note_on_c, 1, 76, 0
3, 90000, Note_on_c, 1, 74, 100
3, 90320, Note_on_c, 1, 74, 0
3, 90320, Note_on_c, 1, 72, 100
3, 90400, Note_on_c, 1, 72, 0
3, 90400, Note_on_c, 1, 71, 100
3, 90480, Note_on_c, 1, 71, 0
3, 90480, Note_on_c, 1, 69, 100
3, 90560, Note_on_c, 1, 69, 0
3, 90560, Note_on_c, 1, 71, 100
3, 90640, Note_on_c, 1, 71, 0
3, 90640, Note_on_c, 1, 72, 100
3, 90720, Note_on_c, 1, 72, 0
3, 90720, Note_on_c, 1, 71, 100
3, 90960, Note_on_c, 1, 71, 0
3, 91280, Note_on_c, 1, 59, 100
3, 91360, Note_on_c, 1, 59, 0
3, 91360, Note_on_c, 1, 62, 100
3, 91440, Note_on_c, 1, 62, 0
3, 91440, Note_on_c, 1, 67, 100
3, 91520, Note_on_c, 1, 67, 0
3, 91520, Note_on_c, 1, 71, 100
3, 91600, Note_on_c, 1, 71, 0
3, 91600, Note_on_c, 1, 74, 100
3, 91680, Note_on_c, 1, 74, 0
3, 91680, Note_on_c, 1, 79, 100
3, 91920, Note_on_c, 1, 79, 0
3, 91920, End_track
4, 0, Start_track
4, 0, MIDI_port, 0
4, 0, Title_t, "Johann Sebastian Bach  (1685-1750)"
4, 0, End_track
5, 0, Start_track
5, 0, MIDI_port, 0
5, 0, Title_t, "The Goldberg Variations - BWV 988"
5, 0, End_track
6, 0, Start_track
6, 0, MIDI_port, 0
6, 0, Title_t, "Aria with 30 Variations for Harpsichord with 2 Manuals"
6, 0, End_track
7, 0, Start_track
7, 0, MIDI_port, 0
7, 0, Title_t, "--------------------------------------"
7, 0, End_track
8, 0, Start_track
8, 0, MIDI_port, 0
8, 0, Title_t, "Variatio 20 a 2 Clav."
8, 0, End_track
9, 0, Start_track
9, 0, MIDI_port, 0
9, 0, Title_t, "--------------------------------------"
9, 0, End_track
10, 0, Start_track
10, 0, MIDI_port, 0
10, 0, Title_t, "Sequenced with Cakewalk Pro Audio by"
10, 0, End_track
11, 0, Start_track
11, 0, MIDI_port, 0
11, 0, Title_t, "David J. Grossman - dave@unpronounceable.com"
11, 0, End_track
12, 0, Start_track
12, 0, MIDI_port, 0
12, 0, Title_t, "This and other Bach MIDI files can be found at:"
12, 0, End_track
13, 0, Start_track
13, 0, MIDI_port, 0
13, 0, Title_t, "Dave's J.S. Bach Page"
13, 0, End_track
14, 0, Start_track
14, 0, MIDI_port, 0
14, 0, Title_t, "http://www.unpronounceable.com/bach"
14, 0, End_track
15, 0, Start_track
15, 0, MIDI_port, 0
15, 0, Title_t, "--------------------------------------"
15, 0, End_track
16, 0, Start_track
16, 0, MIDI_port, 0
16, 0, Title_t, "Original Filename: 988-v20.mid"
16, 0, End_track
17, 0, Start_track
17, 0, MIDI_port, 0
17, 0, Title_t, "Last Modified: March 14, 1997"
17, 0, End_track
0, 0, End_of_file
