0, 0, Header, 1, 17, 480
1, 0, Start_track
1, 0, Title_t, "untitled"
1, 0, Copyright_t, "Copyright © 1997 by David J. Grossman"
1, 0, Text_t, "David J. Grossman"
1, 0, SMPTE_offset, 96, 0, 3, 0, 0
1, 0, Time_signature, 3, 2, 24, 8
1, 0, Key_signature, -3, "major"
1, 0, Tempo, 1200000
1, 0, Marker_t, "A"
1, 21600, Marker_t, "1."
1, 23040, Marker_t, "A'"
1, 44640, Marker_t, "2."
1, 46080, Marker_t, "B"
1, 67680, Marker_t, "1."
1, 69120, Marker_t, "B'"
1, 90720, Marker_t, "2."
1, 90720, End_track
2, 0, Start_track
2, 0, MIDI_port, 0
2, 0, Title_t, "Solo Lute or Keyboard"
2, 0, Program_c, 0, 24
2, 0, Control_c, 0, 7, 100
2, 0, Control_c, 0, 10, 84
2, 0, Note_on_c, 0, 84, 100
2, 360, Note_on_c, 0, 84, 0
2, 360, Note_on_c, 0, 86, 100
2, 420, Note_on_c, 0, 86, 0
2, 420, Note_on_c, 0, 87, 100
2, 480, Note_on_c, 0, 87, 0
2, 480, Note_on_c, 0, 86, 100
2, 720, Note_on_c, 0, 86, 0
2, 720, Note_on_c, 0, 84, 100
2, 960, Note_on_c, 0, 84, 0
2, 960, Note_on_c, 0, 83, 100
2, 1200, Note_on_c, 0, 83, 0
2, 1200, Note_on_c, 0, 84, 100
2, 1440, Note_on_c, 0, 84, 0
2, 1440, Note_on_c, 0, 77, 100
2, 2400, Note_on_c, 0, 77, 0
2, 2880, Note_on_c, 0, 77, 100
2, 3000, Note_on_c, 0, 77, 0
2, 3000, Note_on_c, 0, 80, 100
2, 3120, Note_on_c, 0, 80, 0
2, 3120, Note_on_c, 0, 79, 100
2, 3240, Note_on_c, 0, 79, 0
2, 3240, Note_on_c, 0, 77, 100
2, 3360, Note_on_c, 0, 77, 0
2, 3360, Note_on_c, 0, 86, 100
2, 3720, Note_on_c, 0, 86, 0
2, 3720, Note_on_c, 0, 84, 100
2, 3840, Note_on_c, 0, 84, 0
2, 3840, Note_on_c, 0, 83, 100
2, 3960, Note_on_c, 0, 83, 0
2, 3960, Note_on_c, 0, 80, 100
2, 4080, Note_on_c, 0, 80, 0
2, 4080, Note_on_c, 0, 79, 100
2, 4200, Note_on_c, 0, 79, 0
2, 4200, Note_on_c, 0, 77, 100
2, 4320, Note_on_c, 0, 77, 0
2, 4320, Note_on_c, 0, 75, 100
2, 4440, Note_on_c, 0, 75, 0
2, 4440, Note_on_c, 0, 74, 100
2, 4560, Note_on_c, 0, 74, 0
2, 4560, Note_on_c, 0, 75, 100
2, 4680, Note_on_c, 0, 75, 0
2, 4680, Note_on_c, 0, 74, 100
2, 4800, Note_on_c, 0, 74, 0
2, 4800, Note_on_c, 0, 72, 100
2, 4920, Note_on_c, 0, 72, 0
2, 4920, Note_on_c, 0, 67, 100
2, 5040, Note_on_c, 0, 67, 0
2, 5040, Note_on_c, 0, 72, 100
2, 5160, Note_on_c, 0, 72, 0
2, 5160, Note_on_c, 0, 74, 100
2, 5280, Note_on_c, 0, 74, 0
2, 5280, Note_on_c, 0, 75, 100
2, 5400, Note_on_c, 0, 75, 0
2, 5400, Note_on_c, 0, 77, 100
2, 5520, Note_on_c, 0, 77, 0
2, 5520, Note_on_c, 0, 79, 100
2, 5640, Note_on_c, 0, 79, 0
2, 5640, Note_on_c, 0, 80, 100
2, 5760, Note_on_c, 0, 80, 0
2, 5760, Note_on_c, 0, 82, 100
2, 5880, Note_on_c, 0, 82, 0
2, 5880, Note_on_c, 0, 79, 100
2, 6000, Note_on_c, 0, 79, 0
2, 6000, Note_on_c, 0, 76, 100
2, 6480, Note_on_c, 0, 76, 0
2, 10080, Note_on_c, 0, 75, 100
2, 10560, Note_on_c, 0, 75, 0
2, 10560, Note_on_c, 0, 74, 100
2, 11040, Note_on_c, 0, 74, 0
2, 21600, Note_on_c, 0, 70, 100
2, 23040, Note_on_c, 0, 70, 0
2, 23040, Note_on_c, 0, 84, 100
2, 23400, Note_on_c, 0, 84, 0
2, 23400, Note_on_c, 0, 86, 100
2, 23460, Note_on_c, 0, 86, 0
2, 23460, Note_on_c, 0, 87, 100
2, 23520, Note_on_c, 0, 87, 0
2, 23520, Note_on_c, 0, 86, 100
2, 23760, Note_on_c, 0, 86, 0
2, 23760, Note_on_c, 0, 84, 100
2, 24000, Note_on_c, 0, 84, 0
2, 24000, Note_on_c, 0, 83, 100
2, 24240, Note_on_c, 0, 83, 0
2, 24240, Note_on_c, 0, 84, 100
2, 24480, Note_on_c, 0, 84, 0
2, 24480, Note_on_c, 0, 77, 100
2, 25440, Note_on_c, 0, 77, 0
2, 25920, Note_on_c, 0, 77, 100
2, 26040, Note_on_c, 0, 77, 0
2, 26040, Note_on_c, 0, 80, 100
2, 26160, Note_on_c, 0, 80, 0
2, 26160, Note_on_c, 0, 79, 100
2, 26280, Note_on_c, 0, 79, 0
2, 26280, Note_on_c, 0, 77, 100
2, 26400, Note_on_c, 0, 77, 0
2, 26400, Note_on_c, 0, 86, 100
2, 26760, Note_on_c, 0, 86, 0
2, 26760, Note_on_c, 0, 84, 100
2, 26880, Note_on_c, 0, 84, 0
2, 26880, Note_on_c, 0, 83, 100
2, 27000, Note_on_c, 0, 83, 0
2, 27000, Note_on_c, 0, 80, 100
2, 27120, Note_on_c, 0, 80, 0
2, 27120, Note_on_c, 0, 79, 100
2, 27240, Note_on_c, 0, 79, 0
2, 27240, Note_on_c, 0, 77, 100
2, 27360, Note_on_c, 0, 77, 0
2, 27360, Note_on_c, 0, 75, 100
2, 27480, Note_on_c, 0, 75, 0
2, 27480, Note_on_c, 0, 74, 100
2, 27600, Note_on_c, 0, 74, 0
2, 27600, Note_on_c, 0, 75, 100
2, 27720, Note_on_c, 0, 75, 0
2, 27720, Note_on_c, 0, 74, 100
2, 27840, Note_on_c, 0, 74, 0
2, 27840, Note_on_c, 0, 72, 100
2, 27960, Note_on_c, 0, 72, 0
2, 27960, Note_on_c, 0, 67, 100
2, 28080, Note_on_c, 0, 67, 0
2, 28080, Note_on_c, 0, 72, 100
2, 28200, Note_on_c, 0, 72, 0
2, 28200, Note_on_c, 0, 74, 100
2, 28320, Note_on_c, 0, 74, 0
2, 28320, Note_on_c, 0, 75, 100
2, 28440, Note_on_c, 0, 75, 0
2, 28440, Note_on_c, 0, 77, 100
2, 28560, Note_on_c, 0, 77, 0
2, 28560, Note_on_c, 0, 79, 100
2, 28680, Note_on_c, 0, 79, 0
2, 28680, Note_on_c, 0, 80, 100
2, 28800, Note_on_c, 0, 80, 0
2, 28800, Note_on_c, 0, 82, 100
2, 28920, Note_on_c, 0, 82, 0
2, 28920, Note_on_c, 0, 79, 100
2, 29040, Note_on_c, 0, 79, 0
2, 29040, Note_on_c, 0, 76, 100
2, 29520, Note_on_c, 0, 76, 0
2, 33120, Note_on_c, 0, 75, 100
2, 33600, Note_on_c, 0, 75, 0
2, 33600, Note_on_c, 0, 74, 100
2, 34080, Note_on_c, 0, 74, 0
2, 44640, Note_on_c, 0, 70, 100
2, 46080, Note_on_c, 0, 70, 0
2, 46080, Note_on_c, 0, 79, 100
2, 46440, Note_on_c, 0, 79, 0
2, 46440, Note_on_c, 0, 80, 100
2, 46500, Note_on_c, 0, 80, 0
2, 46500, Note_on_c, 0, 82, 100
2, 46560, Note_on_c, 0, 82, 0
2, 46560, Note_on_c, 0, 80, 100
2, 46800, Note_on_c, 0, 80, 0
2, 46800, Note_on_c, 0, 79, 100
2, 47040, Note_on_c, 0, 79, 0
2, 47040, Note_on_c, 0, 77, 100
2, 47280, Note_on_c, 0, 77, 0
2, 47280, Note_on_c, 0, 75, 100
2, 47520, Note_on_c, 0, 75, 0
2, 47550, Note_on_c, 0, 81, 100
2, 48960, Note_on_c, 0, 81, 0
2, 48960, Note_on_c, 0, 82, 100
2, 49320, Note_on_c, 0, 82, 0
2, 49320, Note_on_c, 0, 84, 100
2, 49380, Note_on_c, 0, 84, 0
2, 49380, Note_on_c, 0, 86, 100
2, 49440, Note_on_c, 0, 86, 0
2, 49440, Note_on_c, 0, 84, 100
2, 49560, Note_on_c, 0, 84, 0
2, 49560, Note_on_c, 0, 82, 100
2, 49680, Note_on_c, 0, 82, 0
2, 49680, Note_on_c, 0, 81, 100
2, 49800, Note_on_c, 0, 81, 0
2, 49800, Note_on_c, 0, 79, 100
2, 49920, Note_on_c, 0, 79, 0
2, 49920, Note_on_c, 0, 77, 100
2, 50040, Note_on_c, 0, 77, 0
2, 50040, Note_on_c, 0, 74, 100
2, 50160, Note_on_c, 0, 74, 0
2, 50160, Note_on_c, 0, 75, 100
2, 50280, Note_on_c, 0, 75, 0
2, 50280, Note_on_c, 0, 84, 100
2, 50400, Note_on_c, 0, 84, 0
2, 50400, Note_on_c, 0, 75, 100
2, 50520, Note_on_c, 0, 75, 0
2, 50520, Note_on_c, 0, 74, 100
2, 50640, Note_on_c, 0, 74, 0
2, 50640, Note_on_c, 0, 75, 100
2, 50760, Note_on_c, 0, 75, 0
2, 50760, Note_on_c, 0, 77, 100
2, 50880, Note_on_c, 0, 77, 0
2, 50880, Note_on_c, 0, 74, 100
2, 51360, Note_on_c, 0, 74, 0
2, 51360, Note_on_c, 0, 86, 100
2, 52080, Note_on_c, 0, 86, 0
2, 52080, Note_on_c, 0, 84, 100
2, 52320, Note_on_c, 0, 84, 0
2, 52320, Note_on_c, 0, 84, 100
2, 52560, Note_on_c, 0, 84, 0
2, 52560, Note_on_c, 0, 82, 100
2, 52800, Note_on_c, 0, 82, 0
2, 52800, Note_on_c, 0, 82, 100
2, 53040, Note_on_c, 0, 82, 0
2, 53040, Note_on_c, 0, 81, 100
2, 53280, Note_on_c, 0, 81, 0
2, 53280, Note_on_c, 0, 81, 100
2, 53520, Note_on_c, 0, 81, 0
2, 53520, Note_on_c, 0, 82, 100
2, 53640, Note_on_c, 0, 82, 0
2, 53640, Note_on_c, 0, 84, 100
2, 53760, Note_on_c, 0, 84, 0
2, 53760, Note_on_c, 0, 75, 100
2, 54240, Note_on_c, 0, 75, 0
2, 54240, Note_on_c, 0, 74, 100
2, 54840, Note_on_c, 0, 74, 0
2, 54840, Note_on_c, 0, 76, 100
2, 54960, Note_on_c, 0, 76, 0
2, 54960, Note_on_c, 0, 78, 100
2, 55080, Note_on_c, 0, 78, 0
2, 55080, Note_on_c, 0, 79, 100
2, 55200, Note_on_c, 0, 79, 0
2, 55200, Note_on_c, 0, 81, 100
2, 55320, Note_on_c, 0, 81, 0
2, 55320, Note_on_c, 0, 84, 100
2, 55440, Note_on_c, 0, 84, 0
2, 55440, Note_on_c, 0, 82, 100
2, 55560, Note_on_c, 0, 82, 0
2, 55560, Note_on_c, 0, 81, 100
2, 55680, Note_on_c, 0, 81, 0
2, 55680, Note_on_c, 0, 82, 100
2, 55800, Note_on_c, 0, 82, 0
2, 55800, Note_on_c, 0, 79, 100
2, 55920, Note_on_c, 0, 79, 0
2, 55920, Note_on_c, 0, 81, 100
2, 56040, Note_on_c, 0, 81, 0
2, 56040, Note_on_c, 0, 78, 100
2, 56160, Note_on_c, 0, 78, 0
2, 56160, Note_on_c, 0, 79, 100
2, 56640, Note_on_c, 0, 79, 0
2, 56640, Note_on_c, 0, 82, 100
2, 57720, Note_on_c, 0, 82, 0
2, 57720, Note_on_c, 0, 80, 100
2, 57840, Note_on_c, 0, 80, 0
2, 57840, Note_on_c, 0, 79, 100
2, 57960, Note_on_c, 0, 79, 0
2, 57960, Note_on_c, 0, 79, 100
2, 58080, Note_on_c, 0, 79, 0
2, 58080, Note_on_c, 0, 79, 100
2, 58200, Note_on_c, 0, 79, 0
2, 58200, Note_on_c, 0, 77, 100
2, 58320, Note_on_c, 0, 77, 0
2, 58320, Note_on_c, 0, 76, 100
2, 58440, Note_on_c, 0, 76, 0
2, 58440, Note_on_c, 0, 76, 100
2, 58560, Note_on_c, 0, 76, 0
2, 58560, Note_on_c, 0, 76, 100
2, 58680, Note_on_c, 0, 76, 0
2, 58680, Note_on_c, 0, 74, 100
2, 58800, Note_on_c, 0, 74, 0
2, 58800, Note_on_c, 0, 72, 100
2, 58920, Note_on_c, 0, 72, 0
2, 58920, Note_on_c, 0, 72, 100
2, 59040, Note_on_c, 0, 72, 0
2, 59040, Note_on_c, 0, 72, 100
2, 59160, Note_on_c, 0, 72, 0
2, 59160, Note_on_c, 0, 76, 100
2, 59280, Note_on_c, 0, 76, 0
2, 59280, Note_on_c, 0, 76, 100
2, 59400, Note_on_c, 0, 76, 0
2, 59400, Note_on_c, 0, 79, 100
2, 59520, Note_on_c, 0, 79, 0
2, 59520, Note_on_c, 0, 79, 100
2, 59640, Note_on_c, 0, 79, 0
2, 59640, Note_on_c, 0, 82, 100
2, 59760, Note_on_c, 0, 82, 0
2, 59760, Note_on_c, 0, 82, 100
2, 59880, Note_on_c, 0, 82, 0
2, 59880, Note_on_c, 0, 85, 100
2, 60000, Note_on_c, 0, 85, 0
2, 60000, Note_on_c, 0, 84, 100
2, 60120, Note_on_c, 0, 84, 0
2, 60120, Note_on_c, 0, 82, 100
2, 60240, Note_on_c, 0, 82, 0
2, 60240, Note_on_c, 0, 80, 100
2, 60360, Note_on_c, 0, 80, 0
2, 60360, Note_on_c, 0, 79, 100
2, 60480, Note_on_c, 0, 79, 0
2, 60480, Note_on_c, 0, 80, 100
2, 60600, Note_on_c, 0, 80, 0
2, 60600, Note_on_c, 0, 79, 100
2, 60720, Note_on_c, 0, 79, 0
2, 60720, Note_on_c, 0, 77, 100
2, 60840, Note_on_c, 0, 77, 0
2, 60840, Note_on_c, 0, 77, 100
2, 60960, Note_on_c, 0, 77, 0
2, 60960, Note_on_c, 0, 77, 100
2, 61080, Note_on_c, 0, 77, 0
2, 61080, Note_on_c, 0, 75, 100
2, 61200, Note_on_c, 0, 75, 0
2, 61200, Note_on_c, 0, 74, 100
2, 61320, Note_on_c, 0, 74, 0
2, 61320, Note_on_c, 0, 74, 100
2, 61440, Note_on_c, 0, 74, 0
2, 61440, Note_on_c, 0, 74, 100
2, 61560, Note_on_c, 0, 74, 0
2, 61560, Note_on_c, 0, 72, 100
2, 61680, Note_on_c, 0, 72, 0
2, 61680, Note_on_c, 0, 70, 100
2, 61800, Note_on_c, 0, 70, 0
2, 61800, Note_on_c, 0, 70, 100
2, 61920, Note_on_c, 0, 70, 0
2, 61920, Note_on_c, 0, 70, 100
2, 62040, Note_on_c, 0, 70, 0
2, 62040, Note_on_c, 0, 74, 100
2, 62160, Note_on_c, 0, 74, 0
2, 62160, Note_on_c, 0, 74, 100
2, 62280, Note_on_c, 0, 74, 0
2, 62280, Note_on_c, 0, 77, 100
2, 62400, Note_on_c, 0, 77, 0
2, 62400, Note_on_c, 0, 77, 100
2, 62520, Note_on_c, 0, 77, 0
2, 62520, Note_on_c, 0, 80, 100
2, 62640, Note_on_c, 0, 80, 0
2, 62640, Note_on_c, 0, 80, 100
2, 62760, Note_on_c, 0, 80, 0
2, 62760, Note_on_c, 0, 84, 100
2, 62880, Note_on_c, 0, 84, 0
2, 62880, Note_on_c, 0, 82, 100
2, 63000, Note_on_c, 0, 82, 0
2, 63000, Note_on_c, 0, 80, 100
2, 63120, Note_on_c, 0, 80, 0
2, 63120, Note_on_c, 0, 79, 100
2, 63240, Note_on_c, 0, 79, 0
2, 63240, Note_on_c, 0, 77, 100
2, 63360, Note_on_c, 0, 77, 0
2, 63360, Note_on_c, 0, 79, 100
2, 63480, Note_on_c, 0, 79, 0
2, 63480, Note_on_c, 0, 80, 100
2, 63600, Note_on_c, 0, 80, 0
2, 63600, Note_on_c, 0, 79, 100
2, 63720, Note_on_c, 0, 79, 0
2, 63720, Note_on_c, 0, 77, 100
2, 63840, Note_on_c, 0, 77, 0
2, 63840, Note_on_c, 0, 75, 100
2, 63960, Note_on_c, 0, 75, 0
2, 63960, Note_on_c, 0, 74, 100
2, 64080, Note_on_c, 0, 74, 0
2, 64080, Note_on_c, 0, 72, 100
2, 64200, Note_on_c, 0, 72, 0
2, 64200, Note_on_c, 0, 71, 100
2, 64320, Note_on_c, 0, 71, 0
2, 64320, Note_on_c, 0, 72, 100
2, 64440, Note_on_c, 0, 72, 0
2, 64440, Note_on_c, 0, 75, 100
2, 64560, Note_on_c, 0, 75, 0
2, 64560, Note_on_c, 0, 79, 100
2, 64680, Note_on_c, 0, 79, 0
2, 64680, Note_on_c, 0, 70, 100
2, 64800, Note_on_c, 0, 70, 0
2, 64800, Note_on_c, 0, 68, 100
2, 64920, Note_on_c, 0, 68, 0
2, 64920, Note_on_c, 0, 77, 100
2, 65040, Note_on_c, 0, 77, 0
2, 65040, Note_on_c, 0, 67, 100
2, 65160, Note_on_c, 0, 67, 0
2, 65160, Note_on_c, 0, 75, 100
2, 65280, Note_on_c, 0, 75, 0
2, 65280, Note_on_c, 0, 65, 100
2, 65400, Note_on_c, 0, 65, 0
2, 65400, Note_on_c, 0, 74, 100
2, 65520, Note_on_c, 0, 74, 0
2, 65520, Note_on_c, 0, 63, 100
2, 65640, Note_on_c, 0, 63, 0
2, 65640, Note_on_c, 0, 72, 100
2, 65760, Note_on_c, 0, 72, 0
2, 65760, Note_on_c, 0, 62, 100
2, 65880, Note_on_c, 0, 62, 0
2, 65880, Note_on_c, 0, 71, 100
2, 66000, Note_on_c, 0, 71, 0
2, 66000, Note_on_c, 0, 77, 100
2, 66120, Note_on_c, 0, 77, 0
2, 66120, Note_on_c, 0, 80, 100
2, 66240, Note_on_c, 0, 80, 0
2, 66240, Note_on_c, 0, 79, 100
2, 66360, Note_on_c, 0, 79, 0
2, 66360, Note_on_c, 0, 83, 100
2, 66480, Note_on_c, 0, 83, 0
2, 66480, Note_on_c, 0, 84, 100
2, 66600, Note_on_c, 0, 84, 0
2, 66600, Note_on_c, 0, 80, 100
2, 66720, Note_on_c, 0, 80, 0
2, 66720, Note_on_c, 0, 78, 100
2, 66840, Note_on_c, 0, 78, 0
2, 66840, Note_on_c, 0, 79, 100
2, 66960, Note_on_c, 0, 79, 0
2, 66960, Note_on_c, 0, 71, 100
2, 67080, Note_on_c, 0, 71, 0
2, 67080, Note_on_c, 0, 72, 100
2, 67200, Note_on_c, 0, 72, 0
2, 67200, Note_on_c, 0, 77, 100
2, 67320, Note_on_c, 0, 77, 0
2, 67320, Note_on_c, 0, 75, 100
2, 67440, Note_on_c, 0, 75, 0
2, 67440, Note_on_c, 0, 74, 100
2, 67560, Note_on_c, 0, 74, 0
2, 67560, Note_on_c, 0, 72, 100
2, 67680, Note_on_c, 0, 72, 0
2, 67680, Note_on_c, 0, 72, 100
2, 69120, Note_on_c, 0, 72, 0
2, 69120, Note_on_c, 0, 79, 100
2, 69480, Note_on_c, 0, 79, 0
2, 69480, Note_on_c, 0, 80, 100
2, 69540, Note_on_c, 0, 80, 0
2, 69540, Note_on_c, 0, 82, 100
2, 69600, Note_on_c, 0, 82, 0
2, 69600, Note_on_c, 0, 80, 100
2, 69840, Note_on_c, 0, 80, 0
2, 69840, Note_on_c, 0, 79, 100
2, 70080, Note_on_c, 0, 79, 0
2, 70080, Note_on_c, 0, 77, 100
2, 70320, Note_on_c, 0, 77, 0
2, 70320, Note_on_c, 0, 75, 100
2, 70560, Note_on_c, 0, 75, 0
2, 70590, Note_on_c, 0, 81, 100
2, 72000, Note_on_c, 0, 81, 0
2, 72000, Note_on_c, 0, 82, 100
2, 72360, Note_on_c, 0, 82, 0
2, 72360, Note_on_c, 0, 84, 100
2, 72420, Note_on_c, 0, 84, 0
2, 72420, Note_on_c, 0, 86, 100
2, 72480, Note_on_c, 0, 86, 0
2, 72480, Note_on_c, 0, 84, 100
2, 72600, Note_on_c, 0, 84, 0
2, 72600, Note_on_c, 0, 82, 100
2, 72720, Note_on_c, 0, 82, 0
2, 72720, Note_on_c, 0, 81, 100
2, 72840, Note_on_c, 0, 81, 0
2, 72840, Note_on_c, 0, 79, 100
2, 72960, Note_on_c, 0, 79, 0
2, 72960, Note_on_c, 0, 77, 100
2, 73080, Note_on_c, 0, 77, 0
2, 73080, Note_on_c, 0, 74, 100
2, 73200, Note_on_c, 0, 74, 0
2, 73200, Note_on_c, 0, 75, 100
2, 73320, Note_on_c, 0, 75, 0
2, 73320, Note_on_c, 0, 84, 100
2, 73440, Note_on_c, 0, 84, 0
2, 73440, Note_on_c, 0, 75, 100
2, 73560, Note_on_c, 0, 75, 0
2, 73560, Note_on_c, 0, 74, 100
2, 73680, Note_on_c, 0, 74, 0
2, 73680, Note_on_c, 0, 75, 100
2, 73800, Note_on_c, 0, 75, 0
2, 73800, Note_on_c, 0, 77, 100
2, 73920, Note_on_c, 0, 77, 0
2, 73920, Note_on_c, 0, 74, 100
2, 74400, Note_on_c, 0, 74, 0
2, 74400, Note_on_c, 0, 86, 100
2, 75120, Note_on_c, 0, 86, 0
2, 75120, Note_on_c, 0, 84, 100
2, 75360, Note_on_c, 0, 84, 0
2, 75360, Note_on_c, 0, 84, 100
2, 75600, Note_on_c, 0, 84, 0
2, 75600, Note_on_c, 0, 82, 100
2, 75840, Note_on_c, 0, 82, 0
2, 75840, Note_on_c, 0, 82, 100
2, 76080, Note_on_c, 0, 82, 0
2, 76080, Note_on_c, 0, 81, 100
2, 76320, Note_on_c, 0, 81, 0
2, 76320, Note_on_c, 0, 81, 100
2, 76560, Note_on_c, 0, 81, 0
2, 76560, Note_on_c, 0, 82, 100
2, 76680, Note_on_c, 0, 82, 0
2, 76680, Note_on_c, 0, 84, 100
2, 76800, Note_on_c, 0, 84, 0
2, 76800, Note_on_c, 0, 75, 100
2, 77280, Note_on_c, 0, 75, 0
2, 77280, Note_on_c, 0, 74, 100
2, 77880, Note_on_c, 0, 74, 0
2, 77880, Note_on_c, 0, 76, 100
2, 78000, Note_on_c, 0, 76, 0
2, 78000, Note_on_c, 0, 78, 100
2, 78120, Note_on_c, 0, 78, 0
2, 78120, Note_on_c, 0, 79, 100
2, 78240, Note_on_c, 0, 79, 0
2, 78240, Note_on_c, 0, 81, 100
2, 78360, Note_on_c, 0, 81, 0
2, 78360, Note_on_c, 0, 84, 100
2, 78480, Note_on_c, 0, 84, 0
2, 78480, Note_on_c, 0, 82, 100
2, 78600, Note_on_c, 0, 82, 0
2, 78600, Note_on_c, 0, 81, 100
2, 78720, Note_on_c, 0, 81, 0
2, 78720, Note_on_c, 0, 82, 100
2, 78840, Note_on_c, 0, 82, 0
2, 78840, Note_on_c, 0, 79, 100
2, 78960, Note_on_c, 0, 79, 0
2, 78960, Note_on_c, 0, 81, 100
2, 79080, Note_on_c, 0, 81, 0
2, 79080, Note_on_c, 0, 78, 100
2, 79200, Note_on_c, 0, 78, 0
2, 79200, Note_on_c, 0, 79, 100
2, 79680, Note_on_c, 0, 79, 0
2, 79680, Note_on_c, 0, 82, 100
2, 80760, Note_on_c, 0, 82, 0
2, 80760, Note_on_c, 0, 80, 100
2, 80880, Note_on_c, 0, 80, 0
2, 80880, Note_on_c, 0, 79, 100
2, 81000, Note_on_c, 0, 79, 0
2, 81000, Note_on_c, 0, 79, 100
2, 81120, Note_on_c, 0, 79, 0
2, 81120, Note_on_c, 0, 79, 100
2, 81240, Note_on_c, 0, 79, 0
2, 81240, Note_on_c, 0, 77, 100
2, 81360, Note_on_c, 0, 77, 0
2, 81360, Note_on_c, 0, 76, 100
2, 81480, Note_on_c, 0, 76, 0
2, 81480, Note_on_c, 0, 76, 100
2, 81600, Note_on_c, 0, 76, 0
2, 81600, Note_on_c, 0, 76, 100
2, 81720, Note_on_c, 0, 76, 0
2, 81720, Note_on_c, 0, 74, 100
2, 81840, Note_on_c, 0, 74, 0
2, 81840, Note_on_c, 0, 72, 100
2, 81960, Note_on_c, 0, 72, 0
2, 81960, Note_on_c, 0, 72, 100
2, 82080, Note_on_c, 0, 72, 0
2, 82080, Note_on_c, 0, 72, 100
2, 82200, Note_on_c, 0, 72, 0
2, 82200, Note_on_c, 0, 76, 100
2, 82320, Note_on_c, 0, 76, 0
2, 82320, Note_on_c, 0, 76, 100
2, 82440, Note_on_c, 0, 76, 0
2, 82440, Note_on_c, 0, 79, 100
2, 82560, Note_on_c, 0, 79, 0
2, 82560, Note_on_c, 0, 79, 100
2, 82680, Note_on_c, 0, 79, 0
2, 82680, Note_on_c, 0, 82, 100
2, 82800, Note_on_c, 0, 82, 0
2, 82800, Note_on_c, 0, 82, 100
2, 82920, Note_on_c, 0, 82, 0
2, 82920, Note_on_c, 0, 85, 100
2, 83040, Note_on_c, 0, 85, 0
2, 83040, Note_on_c, 0, 84, 100
2, 83160, Note_on_c, 0, 84, 0
2, 83160, Note_on_c, 0, 82, 100
2, 83280, Note_on_c, 0, 82, 0
2, 83280, Note_on_c, 0, 80, 100
2, 83400, Note_on_c, 0, 80, 0
2, 83400, Note_on_c, 0, 79, 100
2, 83520, Note_on_c, 0, 79, 0
2, 83520, Note_on_c, 0, 80, 100
2, 83640, Note_on_c, 0, 80, 0
2, 83640, Note_on_c, 0, 79, 100
2, 83760, Note_on_c, 0, 79, 0
2, 83760, Note_on_c, 0, 77, 100
2, 83880, Note_on_c, 0, 77, 0
2, 83880, Note_on_c, 0, 77, 100
2, 84000, Note_on_c, 0, 77, 0
2, 84000, Note_on_c, 0, 77, 100
2, 84120, Note_on_c, 0, 77, 0
2, 84120, Note_on_c, 0, 75, 100
2, 84240, Note_on_c, 0, 75, 0
2, 84240, Note_on_c, 0, 74, 100
2, 84360, Note_on_c, 0, 74, 0
2, 84360, Note_on_c, 0, 74, 100
2, 84480, Note_on_c, 0, 74, 0
2, 84480, Note_on_c, 0, 74, 100
2, 84600, Note_on_c, 0, 74, 0
2, 84600, Note_on_c, 0, 72, 100
2, 84720, Note_on_c, 0, 72, 0
2, 84720, Note_on_c, 0, 70, 100
2, 84840, Note_on_c, 0, 70, 0
2, 84840, Note_on_c, 0, 70, 100
2, 84960, Note_on_c, 0, 70, 0
2, 84960, Note_on_c, 0, 70, 100
2, 85080, Note_on_c, 0, 70, 0
2, 85080, Note_on_c, 0, 74, 100
2, 85200, Note_on_c, 0, 74, 0
2, 85200, Note_on_c, 0, 74, 100
2, 85320, Note_on_c, 0, 74, 0
2, 85320, Note_on_c, 0, 77, 100
2, 85440, Note_on_c, 0, 77, 0
2, 85440, Note_on_c, 0, 77, 100
2, 85560, Note_on_c, 0, 77, 0
2, 85560, Note_on_c, 0, 80, 100
2, 85680, Note_on_c, 0, 80, 0
2, 85680, Note_on_c, 0, 80, 100
2, 85800, Note_on_c, 0, 80, 0
2, 85800, Note_on_c, 0, 84, 100
2, 85920, Note_on_c, 0, 84, 0
2, 85920, Note_on_c, 0, 82, 100
2, 86040, Note_on_c, 0, 82, 0
2, 86040, Note_on_c, 0, 80, 100
2, 86160, Note_on_c, 0, 80, 0
2, 86160, Note_on_c, 0, 79, 100
2, 86280, Note_on_c, 0, 79, 0
2, 86280, Note_on_c, 0, 77, 100
2, 86400, Note_on_c, 0, 77, 0
2, 86400, Note_on_c, 0, 79, 100
2, 86520, Note_on_c, 0, 79, 0
2, 86520, Note_on_c, 0, 80, 100
2, 86640, Note_on_c, 0, 80, 0
2, 86640, Note_on_c, 0, 79, 100
2, 86760, Note_on_c, 0, 79, 0
2, 86760, Note_on_c, 0, 77, 100
2, 86880, Note_on_c, 0, 77, 0
2, 86880, Note_on_c, 0, 75, 100
2, 87000, Note_on_c, 0, 75, 0
2, 87000, Note_on_c, 0, 74, 100
2, 87120, Note_on_c, 0, 74, 0
2, 87120, Note_on_c, 0, 72, 100
2, 87240, Note_on_c, 0, 72, 0
2, 87240, Note_on_c, 0, 71, 100
2, 87360, Note_on_c, 0, 71, 0
2, 87360, Note_on_c, 0, 72, 100
2, 87480, Note_on_c, 0, 72, 0
2, 87480, Note_on_c, 0, 75, 100
2, 87600, Note_on_c, 0, 75, 0
2, 87600, Note_on_c, 0, 79, 100
2, 87720, Note_on_c, 0, 79, 0
2, 87720, Note_on_c, 0, 70, 100
2, 87840, Note_on_c, 0, 70, 0
2, 87840, Note_on_c, 0, 68, 100
2, 87960, Note_on_c, 0, 68, 0
2, 87960, Note_on_c, 0, 77, 100
2, 88080, Note_on_c, 0, 77, 0
2, 88080, Note_on_c, 0, 67, 100
2, 88200, Note_on_c, 0, 67, 0
2, 88200, Note_on_c, 0, 75, 100
2, 88320, Note_on_c, 0, 75, 0
2, 88320, Note_on_c, 0, 65, 100
2, 88440, Note_on_c, 0, 65, 0
2, 88440, Note_on_c, 0, 74, 100
2, 88560, Note_on_c, 0, 74, 0
2, 88560, Note_on_c, 0, 63, 100
2, 88680, Note_on_c, 0, 63, 0
2, 88680, Note_on_c, 0, 72, 100
2, 88800, Note_on_c, 0, 72, 0
2, 88800, Note_on_c, 0, 62, 100
2, 88920, Note_on_c, 0, 62, 0
2, 88920, Note_on_c, 0, 71, 100
2, 89040, Note_on_c, 0, 71, 0
2, 89040, Note_on_c, 0, 77, 100
2, 89160, Note_on_c, 0, 77, 0
2, 89160, Note_on_c, 0, 80, 100
2, 89280, Note_on_c, 0, 80, 0
2, 89280, Note_on_c, 0, 79, 100
2, 89400, Note_on_c, 0, 79, 0
2, 89400, Note_on_c, 0, 83, 100
2, 89520, Note_on_c, 0, 83, 0
2, 89520, Note_on_c, 0, 84, 100
2, 89640, Note_on_c, 0, 84, 0
2, 89640, Note_on_c, 0, 80, 100
2, 89760, Note_on_c, 0, 80, 0
2, 89760, Note_on_c, 0, 78, 100
2, 89880, Note_on_c, 0, 78, 0
2, 89880, Note_on_c, 0, 79, 100
2, 90000, Note_on_c, 0, 79, 0
2, 90000, Note_on_c, 0, 71, 100
2, 90120, Note_on_c, 0, 71, 0
2, 90120, Note_on_c, 0, 72, 100
2, 90240, Note_on_c, 0, 72, 0
2, 90240, Note_on_c, 0, 77, 100
2, 90360, Note_on_c, 0, 77, 0
2, 90360, Note_on_c, 0, 75, 100
2, 90480, Note_on_c, 0, 75, 0
2, 90480, Note_on_c, 0, 74, 100
2, 90600, Note_on_c, 0, 74, 0
2, 90600, Note_on_c, 0, 72, 100
2, 90720, Note_on_c, 0, 72, 0
2, 90720, Note_on_c, 0, 72, 100
2, 92160, Note_on_c, 0, 72, 0
2, 92160, End_track
3, 0, Start_track
3, 0, MIDI_port, 0
3, 0, Title_t, "--------------------------------------"
3, 0, Program_c, 1, 24
3, 0, Control_c, 1, 7, 100
3, 0, Control_c, 1, 10, 74
3, 0, Note_on_c, 1, 75, 100
3, 480, Note_on_c, 1, 75, 0
3, 480, Note_on_c, 1, 77, 100
3, 720, Note_on_c, 1, 77, 0
3, 720, Note_on_c, 1, 75, 100
3, 960, Note_on_c, 1, 75, 0
3, 960, Note_on_c, 1, 74, 100
3, 1200, Note_on_c, 1, 74, 0
3, 1200, Note_on_c, 1, 75, 100
3, 1440, Note_on_c, 1, 75, 0
3, 1440, Note_on_c, 1, 68, 100
3, 2400, Note_on_c, 1, 68, 0
3, 2880, Note_on_c, 1, 68, 100
3, 3000, Note_on_c, 1, 68, 0
3, 3360, Note_on_c, 1, 71, 100
3, 3600, Note_on_c, 1, 71, 0
3, 6000, Note_on_c, 1, 70, 100
3, 6360, Note_on_c, 1, 70, 0
3, 6360, Note_on_c, 1, 73, 100
3, 6480, Note_on_c, 1, 73, 0
3, 6480, Note_on_c, 1, 72, 100
3, 6600, Note_on_c, 1, 72, 0
3, 6600, Note_on_c, 1, 70, 100
3, 6720, Note_on_c, 1, 70, 0
3, 6720, Note_on_c, 1, 72, 100
3, 6840, Note_on_c, 1, 72, 0
3, 6840, Note_on_c, 1, 70, 100
3, 6960, Note_on_c, 1, 70, 0
3, 6960, Note_on_c, 1, 68, 100
3, 7080, Note_on_c, 1, 68, 0
3, 7080, Note_on_c, 1, 67, 100
3, 7200, Note_on_c, 1, 67, 0
3, 7200, Note_on_c, 1, 68, 100
3, 7320, Note_on_c, 1, 68, 0
3, 7320, Note_on_c, 1, 76, 100
3, 7440, Note_on_c, 1, 76, 0
3, 7440, Note_on_c, 1, 77, 100
3, 7560, Note_on_c, 1, 77, 0
3, 7560, Note_on_c, 1, 83, 100
3, 7680, Note_on_c, 1, 83, 0
3, 7680, Note_on_c, 1, 84, 100
3, 7800, Note_on_c, 1, 84, 0
3, 7800, Note_on_c, 1, 68, 100
3, 7920, Note_on_c, 1, 68, 0
3, 7920, Note_on_c, 1, 67, 100
3, 8040, Note_on_c, 1, 67, 0
3, 8040, Note_on_c, 1, 65, 100
3, 8160, Note_on_c, 1, 65, 0
3, 8160, Note_on_c, 1, 67, 100
3, 8280, Note_on_c, 1, 67, 0
3, 8280, Note_on_c, 1, 77, 100
3, 8400, Note_on_c, 1, 77, 0
3, 8400, Note_on_c, 1, 75, 100
3, 8520, Note_on_c, 1, 75, 0
3, 8520, Note_on_c, 1, 83, 100
3, 8640, Note_on_c, 1, 83, 0
3, 8640, Note_on_c, 1, 84, 100
3, 8760, Note_on_c, 1, 84, 0
3, 8760, Note_on_c, 1, 67, 100
3, 8880, Note_on_c, 1, 67, 0
3, 8880, Note_on_c, 1, 66, 100
3, 9000, Note_on_c, 1, 66, 0
3, 9000, Note_on_c, 1, 64, 100
3, 9120, Note_on_c, 1, 64, 0
3, 9120, Note_on_c, 1, 66, 100
3, 9240, Note_on_c, 1, 66, 0
3, 9240, Note_on_c, 1, 69, 100
3, 9360, Note_on_c, 1, 69, 0
3, 9360, Note_on_c, 1, 72, 100
3, 9480, Note_on_c, 1, 72, 0
3, 9480, Note_on_c, 1, 75, 100
3, 9600, Note_on_c, 1, 75, 0
3, 9600, Note_on_c, 1, 74, 100
3, 9720, Note_on_c, 1, 74, 0
3, 9720, Note_on_c, 1, 71, 100
3, 9840, Note_on_c, 1, 71, 0
3, 9840, Note_on_c, 1, 72, 100
3, 9960, Note_on_c, 1, 72, 0
3, 9960, Note_on_c, 1, 81, 100
3, 10080, Note_on_c, 1, 81, 0
3, 10080, Note_on_c, 1, 69, 100
3, 10560, Note_on_c, 1, 69, 0
3, 11520, Note_on_c, 1, 75, 100
3, 11640, Note_on_c, 1, 75, 0
3, 11640, Note_on_c, 1, 77, 100
3, 11760, Note_on_c, 1, 77, 0
3, 11760, Note_on_c, 1, 79, 100
3, 11880, Note_on_c, 1, 79, 0
3, 11880, Note_on_c, 1, 79, 100
3, 12000, Note_on_c, 1, 79, 0
3, 12000, Note_on_c, 1, 79, 100
3, 12120, Note_on_c, 1, 79, 0
3, 12120, Note_on_c, 1, 80, 100
3, 12240, Note_on_c, 1, 80, 0
3, 12240, Note_on_c, 1, 82, 100
3, 12360, Note_on_c, 1, 82, 0
3, 12360, Note_on_c, 1, 82, 100
3, 12480, Note_on_c, 1, 82, 0
3, 12480, Note_on_c, 1, 82, 100
3, 12600, Note_on_c, 1, 82, 0
3, 12600, Note_on_c, 1, 84, 100
3, 12720, Note_on_c, 1, 84, 0
3, 12720, Note_on_c, 1, 85, 100
3, 12840, Note_on_c, 1, 85, 0
3, 12840, Note_on_c, 1, 85, 100
3, 12960, Note_on_c, 1, 85, 0
3, 12960, Note_on_c, 1, 85, 100
3, 13080, Note_on_c, 1, 85, 0
3, 13080, Note_on_c, 1, 82, 100
3, 13200, Note_on_c, 1, 82, 0
3, 13200, Note_on_c, 1, 82, 100
3, 13320, Note_on_c, 1, 82, 0
3, 13320, Note_on_c, 1, 79, 100
3, 13440, Note_on_c, 1, 79, 0
3, 13440, Note_on_c, 1, 79, 100
3, 13560, Note_on_c, 1, 79, 0
3, 13560, Note_on_c, 1, 75, 100
3, 13680, Note_on_c, 1, 75, 0
3, 13680, Note_on_c, 1, 75, 100
3, 13800, Note_on_c, 1, 75, 0
3, 13800, Note_on_c, 1, 73, 100
3, 13920, Note_on_c, 1, 73, 0
3, 13920, Note_on_c, 1, 73, 100
3, 14040, Note_on_c, 1, 73, 0
3, 14040, Note_on_c, 1, 72, 100
3, 14160, Note_on_c, 1, 72, 0
3, 14160, Note_on_c, 1, 73, 100
3, 14280, Note_on_c, 1, 73, 0
3, 14280, Note_on_c, 1, 82, 100
3, 14400, Note_on_c, 1, 82, 0
3, 14400, Note_on_c, 1, 72, 100
3, 14520, Note_on_c, 1, 72, 0
3, 14520, Note_on_c, 1, 73, 100
3, 14640, Note_on_c, 1, 73, 0
3, 14640, Note_on_c, 1, 75, 100
3, 14760, Note_on_c, 1, 75, 0
3, 14760, Note_on_c, 1, 75, 100
3, 14880, Note_on_c, 1, 75, 0
3, 14880, Note_on_c, 1, 75, 100
3, 15000, Note_on_c, 1, 75, 0
3, 15000, Note_on_c, 1, 77, 100
3, 15120, Note_on_c, 1, 77, 0
3, 15120, Note_on_c, 1, 79, 100
3, 15240, Note_on_c, 1, 79, 0
3, 15240, Note_on_c, 1, 79, 100
3, 15360, Note_on_c, 1, 79, 0
3, 15360, Note_on_c, 1, 79, 100
3, 15480, Note_on_c, 1, 79, 0
3, 15480, Note_on_c, 1, 80, 100
3, 15600, Note_on_c, 1, 80, 0
3, 15600, Note_on_c, 1, 82, 100
3, 15720, Note_on_c, 1, 82, 0
3, 15720, Note_on_c, 1, 82, 100
3, 15840, Note_on_c, 1, 82, 0
3, 15840, Note_on_c, 1, 82, 100
3, 15960, Note_on_c, 1, 82, 0
3, 15960, Note_on_c, 1, 79, 100
3, 16080, Note_on_c, 1, 79, 0
3, 16080, Note_on_c, 1, 79, 100
3, 16200, Note_on_c, 1, 79, 0
3, 16200, Note_on_c, 1, 76, 100
3, 16320, Note_on_c, 1, 76, 0
3, 16320, Note_on_c, 1, 76, 100
3, 16440, Note_on_c, 1, 76, 0
3, 16440, Note_on_c, 1, 72, 100
3, 16560, Note_on_c, 1, 72, 0
3, 16560, Note_on_c, 1, 72, 100
3, 16680, Note_on_c, 1, 72, 0
3, 16680, Note_on_c, 1, 70, 100
3, 16800, Note_on_c, 1, 70, 0
3, 16800, Note_on_c, 1, 70, 100
3, 16920, Note_on_c, 1, 70, 0
3, 16920, Note_on_c, 1, 68, 100
3, 17040, Note_on_c, 1, 68, 0
3, 17040, Note_on_c, 1, 70, 100
3, 17160, Note_on_c, 1, 70, 0
3, 17160, Note_on_c, 1, 79, 100
3, 17280, Note_on_c, 1, 79, 0
3, 17280, Note_on_c, 1, 68, 100
3, 17400, Note_on_c, 1, 68, 0
3, 17400, Note_on_c, 1, 67, 100
3, 17520, Note_on_c, 1, 67, 0
3, 17520, Note_on_c, 1, 65, 100
3, 17640, Note_on_c, 1, 65, 0
3, 17640, Note_on_c, 1, 67, 100
3, 17760, Note_on_c, 1, 67, 0
3, 17760, Note_on_c, 1, 68, 100
3, 17880, Note_on_c, 1, 68, 0
3, 17880, Note_on_c, 1, 70, 100
3, 18000, Note_on_c, 1, 70, 0
3, 18000, Note_on_c, 1, 72, 100
3, 18120, Note_on_c, 1, 72, 0
3, 18120, Note_on_c, 1, 74, 100
3, 18240, Note_on_c, 1, 74, 0
3, 18240, Note_on_c, 1, 75, 100
3, 18360, Note_on_c, 1, 75, 0
3, 18360, Note_on_c, 1, 74, 100
3, 18480, Note_on_c, 1, 74, 0
3, 18480, Note_on_c, 1, 72, 100
3, 18600, Note_on_c, 1, 72, 0
3, 18600, Note_on_c, 1, 75, 100
3, 18720, Note_on_c, 1, 75, 0
3, 18720, Note_on_c, 1, 74, 100
3, 18840, Note_on_c, 1, 74, 0
3, 18840, Note_on_c, 1, 72, 100
3, 18960, Note_on_c, 1, 72, 0
3, 18960, Note_on_c, 1, 70, 100
3, 19080, Note_on_c, 1, 70, 0
3, 19080, Note_on_c, 1, 72, 100
3, 19200, Note_on_c, 1, 72, 0
3, 19200, Note_on_c, 1, 74, 100
3, 19320, Note_on_c, 1, 74, 0
3, 19320, Note_on_c, 1, 75, 100
3, 19440, Note_on_c, 1, 75, 0
3, 19440, Note_on_c, 1, 77, 100
3, 19560, Note_on_c, 1, 77, 0
3, 19560, Note_on_c, 1, 79, 100
3, 19680, Note_on_c, 1, 79, 0
3, 19680, Note_on_c, 1, 80, 100
3, 19800, Note_on_c, 1, 80, 0
3, 19800, Note_on_c, 1, 79, 100
3, 19920, Note_on_c, 1, 79, 0
3, 19920, Note_on_c, 1, 77, 100
3, 20040, Note_on_c, 1, 77, 0
3, 20040, Note_on_c, 1, 80, 100
3, 20160, Note_on_c, 1, 80, 0
3, 20160, Note_on_c, 1, 79, 100
3, 20280, Note_on_c, 1, 79, 0
3, 20280, Note_on_c, 1, 82, 100
3, 20400, Note_on_c, 1, 82, 0
3, 20400, Note_on_c, 1, 80, 100
3, 20520, Note_on_c, 1, 80, 0
3, 20520, Note_on_c, 1, 84, 100
3, 20640, Note_on_c, 1, 84, 0
3, 20640, Note_on_c, 1, 82, 100
3, 20760, Note_on_c, 1, 82, 0
3, 20760, Note_on_c, 1, 75, 100
3, 20880, Note_on_c, 1, 75, 0
3, 20880, Note_on_c, 1, 74, 100
3, 21000, Note_on_c, 1, 74, 0
3, 21000, Note_on_c, 1, 75, 100
3, 21120, Note_on_c, 1, 75, 0
3, 21120, Note_on_c, 1, 80, 100
3, 21240, Note_on_c, 1, 80, 0
3, 21240, Note_on_c, 1, 79, 100
3, 21360, Note_on_c, 1, 79, 0
3, 21360, Note_on_c, 1, 77, 100
3, 21480, Note_on_c, 1, 77, 0
3, 21480, Note_on_c, 1, 75, 100
3, 21600, Note_on_c, 1, 75, 0
3, 21600, Note_on_c, 1, 75, 100
3, 23040, Note_on_c, 1, 75, 0
3, 23040, Note_on_c, 1, 75, 100
3, 23520, Note_on_c, 1, 75, 0
3, 23520, Note_on_c, 1, 77, 100
3, 23760, Note_on_c, 1, 77, 0
3, 23760, Note_on_c, 1, 75, 100
3, 24000, Note_on_c, 1, 75, 0
3, 24000, Note_on_c, 1, 74, 100
3, 24240, Note_on_c, 1, 74, 0
3, 24240, Note_on_c, 1, 75, 100
3, 24480, Note_on_c, 1, 75, 0
3, 24480, Note_on_c, 1, 68, 100
3, 25440, Note_on_c, 1, 68, 0
3, 25920, Note_on_c, 1, 68, 100
3, 26040, Note_on_c, 1, 68, 0
3, 26400, Note_on_c, 1, 71, 100
3, 26640, Note_on_c, 1, 71, 0
3, 29040, Note_on_c, 1, 70, 100
3, 29400, Note_on_c, 1, 70, 0
3, 29400, Note_on_c, 1, 73, 100
3, 29520, Note_on_c, 1, 73, 0
3, 29520, Note_on_c, 1, 72, 100
3, 29640, Note_on_c, 1, 72, 0
3, 29640, Note_on_c, 1, 70, 100
3, 29760, Note_on_c, 1, 70, 0
3, 29760, Note_on_c, 1, 72, 100
3, 29880, Note_on_c, 1, 72, 0
3, 29880, Note_on_c, 1, 70, 100
3, 30000, Note_on_c, 1, 70, 0
3, 30000, Note_on_c, 1, 68, 100
3, 30120, Note_on_c, 1, 68, 0
3, 30120, Note_on_c, 1, 67, 100
3, 30240, Note_on_c, 1, 67, 0
3, 30240, Note_on_c, 1, 68, 100
3, 30360, Note_on_c, 1, 68, 0
3, 30360, Note_on_c, 1, 76, 100
3, 30480, Note_on_c, 1, 76, 0
3, 30480, Note_on_c, 1, 77, 100
3, 30600, Note_on_c, 1, 77, 0
3, 30600, Note_on_c, 1, 83, 100
3, 30720, Note_on_c, 1, 83, 0
3, 30720, Note_on_c, 1, 84, 100
3, 30840, Note_on_c, 1, 84, 0
3, 30840, Note_on_c, 1, 68, 100
3, 30960, Note_on_c, 1, 68, 0
3, 30960, Note_on_c, 1, 67, 100
3, 31080, Note_on_c, 1, 67, 0
3, 31080, Note_on_c, 1, 65, 100
3, 31200, Note_on_c, 1, 65, 0
3, 31200, Note_on_c, 1, 67, 100
3, 31320, Note_on_c, 1, 67, 0
3, 31320, Note_on_c, 1, 77, 100
3, 31440, Note_on_c, 1, 77, 0
3, 31440, Note_on_c, 1, 75, 100
3, 31560, Note_on_c, 1, 75, 0
3, 31560, Note_on_c, 1, 83, 100
3, 31680, Note_on_c, 1, 83, 0
3, 31680, Note_on_c, 1, 84, 100
3, 31800, Note_on_c, 1, 84, 0
3, 31800, Note_on_c, 1, 67, 100
3, 31920, Note_on_c, 1, 67, 0
3, 31920, Note_on_c, 1, 66, 100
3, 32040, Note_on_c, 1, 66, 0
3, 32040, Note_on_c, 1, 64, 100
3, 32160, Note_on_c, 1, 64, 0
3, 32160, Note_on_c, 1, 66, 100
3, 32280, Note_on_c, 1, 66, 0
3, 32280, Note_on_c, 1, 69, 100
3, 32400, Note_on_c, 1, 69, 0
3, 32400, Note_on_c, 1, 72, 100
3, 32520, Note_on_c, 1, 72, 0
3, 32520, Note_on_c, 1, 75, 100
3, 32640, Note_on_c, 1, 75, 0
3, 32640, Note_on_c, 1, 74, 100
3, 32760, Note_on_c, 1, 74, 0
3, 32760, Note_on_c, 1, 71, 100
3, 32880, Note_on_c, 1, 71, 0
3, 32880, Note_on_c, 1, 72, 100
3, 33000, Note_on_c, 1, 72, 0
3, 33000, Note_on_c, 1, 81, 100
3, 33120, Note_on_c, 1, 81, 0
3, 33120, Note_on_c, 1, 69, 100
3, 33600, Note_on_c, 1, 69, 0
3, 34560, Note_on_c, 1, 75, 100
3, 34680, Note_on_c, 1, 75, 0
3, 34680, Note_on_c, 1, 77, 100
3, 34800, Note_on_c, 1, 77, 0
3, 34800, Note_on_c, 1, 79, 100
3, 34920, Note_on_c, 1, 79, 0
3, 34920, Note_on_c, 1, 79, 100
3, 35040, Note_on_c, 1, 79, 0
3, 35040, Note_on_c, 1, 79, 100
3, 35160, Note_on_c, 1, 79, 0
3, 35160, Note_on_c, 1, 80, 100
3, 35280, Note_on_c, 1, 80, 0
3, 35280, Note_on_c, 1, 82, 100
3, 35400, Note_on_c, 1, 82, 0
3, 35400, Note_on_c, 1, 82, 100
3, 35520, Note_on_c, 1, 82, 0
3, 35520, Note_on_c, 1, 82, 100
3, 35640, Note_on_c, 1, 82, 0
3, 35640, Note_on_c, 1, 84, 100
3, 35760, Note_on_c, 1, 84, 0
3, 35760, Note_on_c, 1, 85, 100
3, 35880, Note_on_c, 1, 85, 0
3, 35880, Note_on_c, 1, 85, 100
3, 36000, Note_on_c, 1, 85, 0
3, 36000, Note_on_c, 1, 85, 100
3, 36120, Note_on_c, 1, 85, 0
3, 36120, Note_on_c, 1, 82, 100
3, 36240, Note_on_c, 1, 82, 0
3, 36240, Note_on_c, 1, 82, 100
3, 36360, Note_on_c, 1, 82, 0
3, 36360, Note_on_c, 1, 79, 100
3, 36480, Note_on_c, 1, 79, 0
3, 36480, Note_on_c, 1, 79, 100
3, 36600, Note_on_c, 1, 79, 0
3, 36600, Note_on_c, 1, 75, 100
3, 36720, Note_on_c, 1, 75, 0
3, 36720, Note_on_c, 1, 75, 100
3, 36840, Note_on_c, 1, 75, 0
3, 36840, Note_on_c, 1, 73, 100
3, 36960, Note_on_c, 1, 73, 0
3, 36960, Note_on_c, 1, 73, 100
3, 37080, Note_on_c, 1, 73, 0
3, 37080, Note_on_c, 1, 72, 100
3, 37200, Note_on_c, 1, 72, 0
3, 37200, Note_on_c, 1, 73, 100
3, 37320, Note_on_c, 1, 73, 0
3, 37320, Note_on_c, 1, 82, 100
3, 37440, Note_on_c, 1, 82, 0
3, 37440, Note_on_c, 1, 72, 100
3, 37560, Note_on_c, 1, 72, 0
3, 37560, Note_on_c, 1, 73, 100
3, 37680, Note_on_c, 1, 73, 0
3, 37680, Note_on_c, 1, 75, 100
3, 37800, Note_on_c, 1, 75, 0
3, 37800, Note_on_c, 1, 75, 100
3, 37920, Note_on_c, 1, 75, 0
3, 37920, Note_on_c, 1, 75, 100
3, 38040, Note_on_c, 1, 75, 0
3, 38040, Note_on_c, 1, 77, 100
3, 38160, Note_on_c, 1, 77, 0
3, 38160, Note_on_c, 1, 79, 100
3, 38280, Note_on_c, 1, 79, 0
3, 38280, Note_on_c, 1, 79, 100
3, 38400, Note_on_c, 1, 79, 0
3, 38400, Note_on_c, 1, 79, 100
3, 38520, Note_on_c, 1, 79, 0
3, 38520, Note_on_c, 1, 80, 100
3, 38640, Note_on_c, 1, 80, 0
3, 38640, Note_on_c, 1, 82, 100
3, 38760, Note_on_c, 1, 82, 0
3, 38760, Note_on_c, 1, 82, 100
3, 38880, Note_on_c, 1, 82, 0
3, 38880, Note_on_c, 1, 82, 100
3, 39000, Note_on_c, 1, 82, 0
3, 39000, Note_on_c, 1, 79, 100
3, 39120, Note_on_c, 1, 79, 0
3, 39120, Note_on_c, 1, 79, 100
3, 39240, Note_on_c, 1, 79, 0
3, 39240, Note_on_c, 1, 76, 100
3, 39360, Note_on_c, 1, 76, 0
3, 39360, Note_on_c, 1, 76, 100
3, 39480, Note_on_c, 1, 76, 0
3, 39480, Note_on_c, 1, 72, 100
3, 39600, Note_on_c, 1, 72, 0
3, 39600, Note_on_c, 1, 72, 100
3, 39720, Note_on_c, 1, 72, 0
3, 39720, Note_on_c, 1, 70, 100
3, 39840, Note_on_c, 1, 70, 0
3, 39840, Note_on_c, 1, 70, 100
3, 39960, Note_on_c, 1, 70, 0
3, 39960, Note_on_c, 1, 68, 100
3, 40080, Note_on_c, 1, 68, 0
3, 40080, Note_on_c, 1, 70, 100
3, 40200, Note_on_c, 1, 70, 0
3, 40200, Note_on_c, 1, 79, 100
3, 40320, Note_on_c, 1, 79, 0
3, 40320, Note_on_c, 1, 68, 100
3, 40440, Note_on_c, 1, 68, 0
3, 40440, Note_on_c, 1, 67, 100
3, 40560, Note_on_c, 1, 67, 0
3, 40560, Note_on_c, 1, 65, 100
3, 40680, Note_on_c, 1, 65, 0
3, 40680, Note_on_c, 1, 67, 100
3, 40800, Note_on_c, 1, 67, 0
3, 40800, Note_on_c, 1, 68, 100
3, 40920, Note_on_c, 1, 68, 0
3, 40920, Note_on_c, 1, 70, 100
3, 41040, Note_on_c, 1, 70, 0
3, 41040, Note_on_c, 1, 72, 100
3, 41160, Note_on_c, 1, 72, 0
3, 41160, Note_on_c, 1, 74, 100
3, 41280, Note_on_c, 1, 74, 0
3, 41280, Note_on_c, 1, 75, 100
3, 41400, Note_on_c, 1, 75, 0
3, 41400, Note_on_c, 1, 74, 100
3, 41520, Note_on_c, 1, 74, 0
3, 41520, Note_on_c, 1, 72, 100
3, 41640, Note_on_c, 1, 72, 0
3, 41640, Note_on_c, 1, 75, 100
3, 41760, Note_on_c, 1, 75, 0
3, 41760, Note_on_c, 1, 74, 100
3, 41880, Note_on_c, 1, 74, 0
3, 41880, Note_on_c, 1, 72, 100
3, 42000, Note_on_c, 1, 72, 0
3, 42000, Note_on_c, 1, 70, 100
3, 42120, Note_on_c, 1, 70, 0
3, 42120, Note_on_c, 1, 72, 100
3, 42240, Note_on_c, 1, 72, 0
3, 42240, Note_on_c, 1, 74, 100
3, 42360, Note_on_c, 1, 74, 0
3, 42360, Note_on_c, 1, 75, 100
3, 42480, Note_on_c, 1, 75, 0
3, 42480, Note_on_c, 1, 77, 100
3, 42600, Note_on_c, 1, 77, 0
3, 42600, Note_on_c, 1, 79, 100
3, 42720, Note_on_c, 1, 79, 0
3, 42720, Note_on_c, 1, 80, 100
3, 42840, Note_on_c, 1, 80, 0
3, 42840, Note_on_c, 1, 79, 100
3, 42960, Note_on_c, 1, 79, 0
3, 42960, Note_on_c, 1, 77, 100
3, 43080, Note_on_c, 1, 77, 0
3, 43080, Note_on_c, 1, 80, 100
3, 43200, Note_on_c, 1, 80, 0
3, 43200, Note_on_c, 1, 79, 100
3, 43320, Note_on_c, 1, 79, 0
3, 43320, Note_on_c, 1, 82, 100
3, 43440, Note_on_c, 1, 82, 0
3, 43440, Note_on_c, 1, 80, 100
3, 43560, Note_on_c, 1, 80, 0
3, 43560, Note_on_c, 1, 84, 100
3, 43680, Note_on_c, 1, 84, 0
3, 43680, Note_on_c, 1, 82, 100
3, 43800, Note_on_c, 1, 82, 0
3, 43800, Note_on_c, 1, 75, 100
3, 43920, Note_on_c, 1, 75, 0
3, 43920, Note_on_c, 1, 74, 100
3, 44040, Note_on_c, 1, 74, 0
3, 44040, Note_on_c, 1, 75, 100
3, 44160, Note_on_c, 1, 75, 0
3, 44160, Note_on_c, 1, 80, 100
3, 44280, Note_on_c, 1, 80, 0
3, 44280, Note_on_c, 1, 79, 100
3, 44400, Note_on_c, 1, 79, 0
3, 44400, Note_on_c, 1, 77, 100
3, 44520, Note_on_c, 1, 77, 0
3, 44520, Note_on_c, 1, 75, 100
3, 44640, Note_on_c, 1, 75, 0
3, 44640, Note_on_c, 1, 75, 100
3, 46080, Note_on_c, 1, 75, 0
3, 46080, Note_on_c, 1, 75, 100
3, 46560, Note_on_c, 1, 75, 0
3, 47535, Note_on_c, 1, 72, 100
3, 48960, Note_on_c, 1, 72, 0
3, 48960, Note_on_c, 1, 77, 100
3, 49440, Note_on_c, 1, 77, 0
3, 56160, Note_on_c, 1, 74, 100
3, 56640, Note_on_c, 1, 74, 0
3, 67680, Note_on_c, 1, 67, 100
3, 69120, Note_on_c, 1, 67, 0
3, 69120, Note_on_c, 1, 75, 100
3, 69600, Note_on_c, 1, 75, 0
3, 70575, Note_on_c, 1, 72, 100
3, 72000, Note_on_c, 1, 72, 0
3, 72000, Note_on_c, 1, 77, 100
3, 72480, Note_on_c, 1, 77, 0
3, 79200, Note_on_c, 1, 74, 100
3, 79680, Note_on_c, 1, 74, 0
3, 90720, Note_on_c, 1, 67, 100
3, 92160, Note_on_c, 1, 67, 0
3, 92160, End_track
4, 0, Start_track
4, 0, MIDI_port, 0
4, 0, Title_t, "Johann Sebastian Bach  (1685-1750)"
4, 0, Program_c, 2, 24
4, 0, Control_c, 2, 7, 100
4, 0, Control_c, 2, 10, 64
4, 0, Note_on_c, 2, 79, 100
4, 480, Note_on_c, 2, 79, 0
4, 1440, Note_on_c, 2, 74, 100
4, 2400, Note_on_c, 2, 74, 0
4, 2880, Note_on_c, 2, 74, 100
4, 3000, Note_on_c, 2, 74, 0
4, 3360, Note_on_c, 2, 77, 100
4, 3600, Note_on_c, 2, 77, 0
4, 10080, Note_on_c, 2, 72, 100
4, 10560, Note_on_c, 2, 72, 0
4, 10560, Note_on_c, 2, 71, 100
4, 11040, Note_on_c, 2, 71, 0
4, 21600, Note_on_c, 2, 67, 100
4, 23040, Note_on_c, 2, 67, 0
4, 23040, Note_on_c, 2, 79, 100
4, 23520, Note_on_c, 2, 79, 0
4, 24480, Note_on_c, 2, 74, 100
4, 25440, Note_on_c, 2, 74, 0
4, 25920, Note_on_c, 2, 74, 100
4, 26040, Note_on_c, 2, 74, 0
4, 26400, Note_on_c, 2, 77, 100
4, 26640, Note_on_c, 2, 77, 0
4, 33120, Note_on_c, 2, 72, 100
4, 33600, Note_on_c, 2, 72, 0
4, 33600, Note_on_c, 2, 71, 100
4, 34080, Note_on_c, 2, 71, 0
4, 44640, Note_on_c, 2, 67, 100
4, 46080, Note_on_c, 2, 67, 0
4, 46080, Note_on_c, 2, 70, 100
4, 46560, Note_on_c, 2, 70, 0
4, 46560, Note_on_c, 2, 72, 100
4, 46800, Note_on_c, 2, 72, 0
4, 46800, Note_on_c, 2, 70, 100
4, 47040, Note_on_c, 2, 70, 0
4, 47040, Note_on_c, 2, 68, 100
4, 47280, Note_on_c, 2, 68, 0
4, 47280, Note_on_c, 2, 67, 100
4, 47520, Note_on_c, 2, 67, 0
4, 47520, Note_on_c, 2, 65, 100
4, 48960, Note_on_c, 2, 65, 0
4, 48960, Note_on_c, 2, 70, 100
4, 49440, Note_on_c, 2, 70, 0
4, 50160, Note_on_c, 2, 72, 100
4, 50400, Note_on_c, 2, 72, 0
4, 50400, Note_on_c, 2, 72, 100
4, 50880, Note_on_c, 2, 72, 0
4, 50880, Note_on_c, 2, 70, 100
4, 51360, Note_on_c, 2, 70, 0
4, 51360, Note_on_c, 2, 82, 100
4, 52080, Note_on_c, 2, 82, 0
4, 52080, Note_on_c, 2, 81, 100
4, 52320, Note_on_c, 2, 81, 0
4, 52320, Note_on_c, 2, 81, 100
4, 52560, Note_on_c, 2, 81, 0
4, 52560, Note_on_c, 2, 79, 100
4, 52800, Note_on_c, 2, 79, 0
4, 52800, Note_on_c, 2, 79, 100
4, 53040, Note_on_c, 2, 79, 0
4, 53040, Note_on_c, 2, 78, 100
4, 53280, Note_on_c, 2, 78, 0
4, 53280, Note_on_c, 2, 78, 100
4, 53520, Note_on_c, 2, 78, 0
4, 53520, Note_on_c, 2, 79, 100
4, 53760, Note_on_c, 2, 79, 0
4, 53760, Note_on_c, 2, 72, 100
4, 54720, Note_on_c, 2, 72, 0
4, 56160, Note_on_c, 2, 70, 100
4, 56640, Note_on_c, 2, 70, 0
4, 56880, Note_on_c, 2, 73, 100
4, 57120, Note_on_c, 2, 73, 0
4, 57120, Note_on_c, 2, 73, 100
4, 57360, Note_on_c, 2, 73, 0
4, 57360, Note_on_c, 2, 72, 100
4, 57600, Note_on_c, 2, 72, 0
4, 57600, Note_on_c, 2, 72, 100
4, 58080, Note_on_c, 2, 72, 0
4, 67680, Note_on_c, 2, 63, 100
4, 69120, Note_on_c, 2, 63, 0
4, 69120, Note_on_c, 2, 70, 100
4, 69600, Note_on_c, 2, 70, 0
4, 69600, Note_on_c, 2, 72, 100
4, 69840, Note_on_c, 2, 72, 0
4, 69840, Note_on_c, 2, 70, 100
4, 70080, Note_on_c, 2, 70, 0
4, 70080, Note_on_c, 2, 68, 100
4, 70320, Note_on_c, 2, 68, 0
4, 70320, Note_on_c, 2, 67, 100
4, 70560, Note_on_c, 2, 67, 0
4, 70560, Note_on_c, 2, 65, 100
4, 72000, Note_on_c, 2, 65, 0
4, 72000, Note_on_c, 2, 70, 100
4, 72480, Note_on_c, 2, 70, 0
4, 73200, Note_on_c, 2, 72, 100
4, 73440, Note_on_c, 2, 72, 0
4, 73440, Note_on_c, 2, 72, 100
4, 73920, Note_on_c, 2, 72, 0
4, 73920, Note_on_c, 2, 70, 100
4, 74400, Note_on_c, 2, 70, 0
4, 74400, Note_on_c, 2, 82, 100
4, 75120, Note_on_c, 2, 82, 0
4, 75120, Note_on_c, 2, 81, 100
4, 75360, Note_on_c, 2, 81, 0
4, 75360, Note_on_c, 2, 81, 100
4, 75600, Note_on_c, 2, 81, 0
4, 75600, Note_on_c, 2, 79, 100
4, 75840, Note_on_c, 2, 79, 0
4, 75840, Note_on_c, 2, 79, 100
4, 76080, Note_on_c, 2, 79, 0
4, 76080, Note_on_c, 2, 78, 100
4, 76320, Note_on_c, 2, 78, 0
4, 76320, Note_on_c, 2, 78, 100
4, 76560, Note_on_c, 2, 78, 0
4, 76560, Note_on_c, 2, 79, 100
4, 76800, Note_on_c, 2, 79, 0
4, 76800, Note_on_c, 2, 72, 100
4, 77760, Note_on_c, 2, 72, 0
4, 79200, Note_on_c, 2, 70, 100
4, 79680, Note_on_c, 2, 70, 0
4, 79920, Note_on_c, 2, 73, 100
4, 80160, Note_on_c, 2, 73, 0
4, 80160, Note_on_c, 2, 73, 100
4, 80400, Note_on_c, 2, 73, 0
4, 80400, Note_on_c, 2, 72, 100
4, 80640, Note_on_c, 2, 72, 0
4, 80640, Note_on_c, 2, 72, 100
4, 81120, Note_on_c, 2, 72, 0
4, 90720, Note_on_c, 2, 63, 100
4, 92160, Note_on_c, 2, 63, 0
4, 92160, End_track
5, 0, Start_track
5, 0, MIDI_port, 0
5, 0, Title_t, "Partita in C minor - BWV 997"
5, 0, Program_c, 3, 24
5, 0, Control_c, 3, 7, 100
5, 0, Control_c, 3, 10, 54
5, 10080, Note_on_c, 3, 66, 100
5, 10560, Note_on_c, 3, 66, 0
5, 10560, Note_on_c, 3, 67, 100
5, 11040, Note_on_c, 3, 67, 0
5, 33120, Note_on_c, 3, 66, 100
5, 33600, Note_on_c, 3, 66, 0
5, 33600, Note_on_c, 3, 67, 100
5, 34080, Note_on_c, 3, 67, 0
5, 48960, Note_on_c, 3, 53, 100
5, 49440, Note_on_c, 3, 53, 0
5, 49440, Note_on_c, 3, 55, 100
5, 49920, Note_on_c, 3, 55, 0
5, 49920, Note_on_c, 3, 57, 100
5, 50400, Note_on_c, 3, 57, 0
5, 50400, Note_on_c, 3, 53, 100
5, 50880, Note_on_c, 3, 53, 0
5, 57600, Note_on_c, 3, 55, 100
5, 58080, Note_on_c, 3, 55, 0
5, 72000, Note_on_c, 3, 53, 100
5, 72480, Note_on_c, 3, 53, 0
5, 72480, Note_on_c, 3, 55, 100
5, 72960, Note_on_c, 3, 55, 0
5, 72960, Note_on_c, 3, 57, 100
5, 73440, Note_on_c, 3, 57, 0
5, 73440, Note_on_c, 3, 53, 100
5, 73920, Note_on_c, 3, 53, 0
5, 80640, Note_on_c, 3, 55, 100
5, 81120, Note_on_c, 3, 55, 0
5, 81120, End_track
6, 0, Start_track
6, 0, MIDI_port, 0
6, 0, Title_t, "for Lute or Keyboard"
6, 0, Program_c, 4, 24
6, 0, Control_c, 4, 7, 100
6, 0, Control_c, 4, 10, 44
6, 0, Note_on_c, 4, 48, 100
6, 480, Note_on_c, 4, 48, 0
6, 480, Note_on_c, 4, 36, 100
6, 960, Note_on_c, 4, 36, 0
6, 960, Note_on_c, 4, 36, 100
6, 1440, Note_on_c, 4, 36, 0
6, 1440, Note_on_c, 4, 48, 100
6, 1800, Note_on_c, 4, 48, 0
6, 1800, Note_on_c, 4, 50, 100
6, 1860, Note_on_c, 4, 50, 0
6, 1860, Note_on_c, 4, 51, 100
6, 1920, Note_on_c, 4, 51, 0
6, 1920, Note_on_c, 4, 50, 100
6, 2160, Note_on_c, 4, 50, 0
6, 2160, Note_on_c, 4, 48, 100
6, 2400, Note_on_c, 4, 48, 0
6, 2400, Note_on_c, 4, 47, 100
6, 2640, Note_on_c, 4, 47, 0
6, 2640, Note_on_c, 4, 48, 100
6, 2880, Note_on_c, 4, 48, 0
6, 2880, Note_on_c, 4, 47, 100
6, 3360, Note_on_c, 4, 47, 0
6, 3360, Note_on_c, 4, 36, 100
6, 3840, Note_on_c, 4, 36, 0
6, 3840, Note_on_c, 4, 36, 100
6, 4320, Note_on_c, 4, 36, 0
6, 4320, Note_on_c, 4, 48, 100
6, 4800, Note_on_c, 4, 48, 0
6, 5760, Note_on_c, 4, 48, 100
6, 6240, Note_on_c, 4, 48, 0
6, 6240, Note_on_c, 4, 36, 100
6, 6720, Note_on_c, 4, 36, 0
6, 6720, Note_on_c, 4, 36, 100
6, 7200, Note_on_c, 4, 36, 0
6, 7200, Note_on_c, 4, 48, 100
6, 7680, Note_on_c, 4, 48, 0
6, 7680, Note_on_c, 4, 36, 100
6, 8160, Note_on_c, 4, 36, 0
6, 8160, Note_on_c, 4, 36, 100
6, 8640, Note_on_c, 4, 36, 0
6, 8640, Note_on_c, 4, 48, 100
6, 9120, Note_on_c, 4, 48, 0
6, 9120, Note_on_c, 4, 36, 100
6, 9600, Note_on_c, 4, 36, 0
6, 9600, Note_on_c, 4, 36, 100
6, 10080, Note_on_c, 4, 36, 0
6, 10080, Note_on_c, 4, 43, 100
6, 10560, Note_on_c, 4, 43, 0
6, 10560, Note_on_c, 4, 55, 100
6, 10800, Note_on_c, 4, 55, 0
6, 10800, Note_on_c, 4, 53, 100
6, 11040, Note_on_c, 4, 53, 0
6, 11040, Note_on_c, 4, 51, 100
6, 11280, Note_on_c, 4, 51, 0
6, 11280, Note_on_c, 4, 50, 100
6, 11520, Note_on_c, 4, 50, 0
6, 11520, Note_on_c, 4, 48, 100
6, 11760, Note_on_c, 4, 48, 0
6, 12000, Note_on_c, 4, 46, 100
6, 12240, Note_on_c, 4, 46, 0
6, 12480, Note_on_c, 4, 44, 100
6, 12720, Note_on_c, 4, 44, 0
6, 12960, Note_on_c, 4, 43, 100
6, 13440, Note_on_c, 4, 43, 0
6, 13680, Note_on_c, 4, 58, 100
6, 13920, Note_on_c, 4, 58, 0
6, 13920, Note_on_c, 4, 51, 100
6, 14160, Note_on_c, 4, 51, 0
6, 14160, Note_on_c, 4, 55, 100
6, 14400, Note_on_c, 4, 55, 0
6, 14400, Note_on_c, 4, 56, 100
6, 14640, Note_on_c, 4, 56, 0
6, 14880, Note_on_c, 4, 55, 100
6, 15120, Note_on_c, 4, 55, 0
6, 15360, Note_on_c, 4, 53, 100
6, 15600, Note_on_c, 4, 53, 0
6, 15840, Note_on_c, 4, 52, 100
6, 16320, Note_on_c, 4, 52, 0
6, 16560, Note_on_c, 4, 55, 100
6, 16800, Note_on_c, 4, 55, 0
6, 16800, Note_on_c, 4, 48, 100
6, 17040, Note_on_c, 4, 48, 0
6, 17040, Note_on_c, 4, 52, 100
6, 17280, Note_on_c, 4, 52, 0
6, 17280, Note_on_c, 4, 53, 100
6, 17760, Note_on_c, 4, 53, 0
6, 18000, Note_on_c, 4, 41, 100
6, 18240, Note_on_c, 4, 41, 0
6, 18240, Note_on_c, 4, 43, 100
6, 18480, Note_on_c, 4, 43, 0
6, 18480, Note_on_c, 4, 44, 100
6, 18720, Note_on_c, 4, 44, 0
6, 18720, Note_on_c, 4, 46, 100
6, 19200, Note_on_c, 4, 46, 0
6, 19440, Note_on_c, 4, 46, 100
6, 19680, Note_on_c, 4, 46, 0
6, 19680, Note_on_c, 4, 48, 100
6, 19920, Note_on_c, 4, 48, 0
6, 19920, Note_on_c, 4, 50, 100
6, 20160, Note_on_c, 4, 50, 0
6, 20160, Note_on_c, 4, 51, 100
6, 20400, Note_on_c, 4, 51, 0
6, 20400, Note_on_c, 4, 48, 100
6, 20640, Note_on_c, 4, 48, 0
6, 20640, Note_on_c, 4, 43, 100
6, 20880, Note_on_c, 4, 43, 0
6, 20880, Note_on_c, 4, 44, 100
6, 21120, Note_on_c, 4, 44, 0
6, 21120, Note_on_c, 4, 46, 100
6, 21360, Note_on_c, 4, 46, 0
6, 21360, Note_on_c, 4, 34, 100
6, 21600, Note_on_c, 4, 34, 0
6, 21600, Note_on_c, 4, 39, 100
6, 21840, Note_on_c, 4, 39, 0
6, 21840, Note_on_c, 4, 51, 100
6, 22080, Note_on_c, 4, 51, 0
6, 22080, Note_on_c, 4, 51, 100
6, 22320, Note_on_c, 4, 51, 0
6, 22320, Note_on_c, 4, 50, 100
6, 22560, Note_on_c, 4, 50, 0
6, 22560, Note_on_c, 4, 50, 100
6, 22800, Note_on_c, 4, 50, 0
6, 22800, Note_on_c, 4, 48, 100
6, 23040, Note_on_c, 4, 48, 0
6, 23040, Note_on_c, 4, 48, 100
6, 23520, Note_on_c, 4, 48, 0
6, 23520, Note_on_c, 4, 36, 100
6, 24000, Note_on_c, 4, 36, 0
6, 24000, Note_on_c, 4, 36, 100
6, 24480, Note_on_c, 4, 36, 0
6, 24480, Note_on_c, 4, 48, 100
6, 24840, Note_on_c, 4, 48, 0
6, 24840, Note_on_c, 4, 50, 100
6, 24900, Note_on_c, 4, 50, 0
6, 24900, Note_on_c, 4, 51, 100
6, 24960, Note_on_c, 4, 51, 0
6, 24960, Note_on_c, 4, 50, 100
6, 25200, Note_on_c, 4, 50, 0
6, 25200, Note_on_c, 4, 48, 100
6, 25440, Note_on_c, 4, 48, 0
6, 25440, Note_on_c, 4, 47, 100
6, 25680, Note_on_c, 4, 47, 0
6, 25680, Note_on_c, 4, 48, 100
6, 25920, Note_on_c, 4, 48, 0
6, 25920, Note_on_c, 4, 47, 100
6, 26400, Note_on_c, 4, 47, 0
6, 26400, Note_on_c, 4, 36, 100
6, 26880, Note_on_c, 4, 36, 0
6, 26880, Note_on_c, 4, 36, 100
6, 27360, Note_on_c, 4, 36, 0
6, 27360, Note_on_c, 4, 48, 100
6, 27840, Note_on_c, 4, 48, 0
6, 28800, Note_on_c, 4, 48, 100
6, 29280, Note_on_c, 4, 48, 0
6, 29280, Note_on_c, 4, 36, 100
6, 29760, Note_on_c, 4, 36, 0
6, 29760, Note_on_c, 4, 36, 100
6, 30240, Note_on_c, 4, 36, 0
6, 30240, Note_on_c, 4, 48, 100
6, 30720, Note_on_c, 4, 48, 0
6, 30720, Note_on_c, 4, 36, 100
6, 31200, Note_on_c, 4, 36, 0
6, 31200, Note_on_c, 4, 36, 100
6, 31680, Note_on_c, 4, 36, 0
6, 31680, Note_on_c, 4, 48, 100
6, 32160, Note_on_c, 4, 48, 0
6, 32160, Note_on_c, 4, 36, 100
6, 32640, Note_on_c, 4, 36, 0
6, 32640, Note_on_c, 4, 36, 100
6, 33120, Note_on_c, 4, 36, 0
6, 33120, Note_on_c, 4, 43, 100
6, 33600, Note_on_c, 4, 43, 0
6, 33600, Note_on_c, 4, 55, 100
6, 33840, Note_on_c, 4, 55, 0
6, 33840, Note_on_c, 4, 53, 100
6, 34080, Note_on_c, 4, 53, 0
6, 34080, Note_on_c, 4, 51, 100
6, 34320, Note_on_c, 4, 51, 0
6, 34320, Note_on_c, 4, 50, 100
6, 34560, Note_on_c, 4, 50, 0
6, 34560, Note_on_c, 4, 48, 100
6, 34800, Note_on_c, 4, 48, 0
6, 35040, Note_on_c, 4, 46, 100
6, 35280, Note_on_c, 4, 46, 0
6, 35520, Note_on_c, 4, 44, 100
6, 35760, Note_on_c, 4, 44, 0
6, 36000, Note_on_c, 4, 43, 100
6, 36480, Note_on_c, 4, 43, 0
6, 36720, Note_on_c, 4, 58, 100
6, 36960, Note_on_c, 4, 58, 0
6, 36960, Note_on_c, 4, 51, 100
6, 37200, Note_on_c, 4, 51, 0
6, 37200, Note_on_c, 4, 55, 100
6, 37440, Note_on_c, 4, 55, 0
6, 37440, Note_on_c, 4, 56, 100
6, 37680, Note_on_c, 4, 56, 0
6, 37920, Note_on_c, 4, 55, 100
6, 38160, Note_on_c, 4, 55, 0
6, 38400, Note_on_c, 4, 53, 100
6, 38640, Note_on_c, 4, 53, 0
6, 38880, Note_on_c, 4, 52, 100
6, 39360, Note_on_c, 4, 52, 0
6, 39600, Note_on_c, 4, 55, 100
6, 39840, Note_on_c, 4, 55, 0
6, 39840, Note_on_c, 4, 48, 100
6, 40080, Note_on_c, 4, 48, 0
6, 40080, Note_on_c, 4, 52, 100
6, 40320, Note_on_c, 4, 52, 0
6, 40320, Note_on_c, 4, 53, 100
6, 40800, Note_on_c, 4, 53, 0
6, 41040, Note_on_c, 4, 41, 100
6, 41280, Note_on_c, 4, 41, 0
6, 41280, Note_on_c, 4, 43, 100
6, 41520, Note_on_c, 4, 43, 0
6, 41520, Note_on_c, 4, 44, 100
6, 41760, Note_on_c, 4, 44, 0
6, 41760, Note_on_c, 4, 46, 100
6, 42240, Note_on_c, 4, 46, 0
6, 42480, Note_on_c, 4, 46, 100
6, 42720, Note_on_c, 4, 46, 0
6, 42720, Note_on_c, 4, 48, 100
6, 42960, Note_on_c, 4, 48, 0
6, 42960, Note_on_c, 4, 50, 100
6, 43200, Note_on_c, 4, 50, 0
6, 43200, Note_on_c, 4, 51, 100
6, 43440, Note_on_c, 4, 51, 0
6, 43440, Note_on_c, 4, 48, 100
6, 43680, Note_on_c, 4, 48, 0
6, 43680, Note_on_c, 4, 43, 100
6, 43920, Note_on_c, 4, 43, 0
6, 43920, Note_on_c, 4, 44, 100
6, 44160, Note_on_c, 4, 44, 0
6, 44160, Note_on_c, 4, 46, 100
6, 44400, Note_on_c, 4, 46, 0
6, 44400, Note_on_c, 4, 34, 100
6, 44640, Note_on_c, 4, 34, 0
6, 44640, Note_on_c, 4, 39, 100
6, 46080, Note_on_c, 4, 39, 0
6, 46080, Note_on_c, 4, 51, 100
6, 46560, Note_on_c, 4, 51, 0
6, 46560, Note_on_c, 4, 39, 100
6, 47040, Note_on_c, 4, 39, 0
6, 47040, Note_on_c, 4, 39, 100
6, 47520, Note_on_c, 4, 39, 0
6, 47520, Note_on_c, 4, 51, 100
6, 47880, Note_on_c, 4, 51, 0
6, 47880, Note_on_c, 4, 53, 100
6, 47940, Note_on_c, 4, 53, 0
6, 47940, Note_on_c, 4, 55, 100
6, 48000, Note_on_c, 4, 55, 0
6, 48000, Note_on_c, 4, 53, 100
6, 48240, Note_on_c, 4, 53, 0
6, 48240, Note_on_c, 4, 51, 100
6, 48480, Note_on_c, 4, 51, 0
6, 48480, Note_on_c, 4, 50, 100
6, 48720, Note_on_c, 4, 50, 0
6, 48720, Note_on_c, 4, 48, 100
6, 48960, Note_on_c, 4, 48, 0
6, 48960, Note_on_c, 4, 50, 100
6, 49440, Note_on_c, 4, 50, 0
6, 49440, Note_on_c, 4, 51, 100
6, 49920, Note_on_c, 4, 51, 0
6, 49920, Note_on_c, 4, 53, 100
6, 50400, Note_on_c, 4, 53, 0
6, 50400, Note_on_c, 4, 46, 100
6, 51120, Note_on_c, 4, 46, 0
6, 51120, Note_on_c, 4, 50, 100
6, 51360, Note_on_c, 4, 50, 0
6, 51360, Note_on_c, 4, 43, 100
6, 51600, Note_on_c, 4, 43, 0
6, 51600, Note_on_c, 4, 46, 100
6, 51840, Note_on_c, 4, 46, 0
6, 51840, Note_on_c, 4, 39, 100
6, 52320, Note_on_c, 4, 39, 0
6, 53040, Note_on_c, 4, 60, 100
6, 53520, Note_on_c, 4, 60, 0
6, 53520, Note_on_c, 4, 58, 100
6, 53760, Note_on_c, 4, 58, 0
6, 53760, Note_on_c, 4, 57, 100
6, 54000, Note_on_c, 4, 57, 0
6, 54000, Note_on_c, 4, 55, 100
6, 54240, Note_on_c, 4, 55, 0
6, 54240, Note_on_c, 4, 54, 100
6, 54480, Note_on_c, 4, 54, 0
6, 54480, Note_on_c, 4, 55, 100
6, 54600, Note_on_c, 4, 55, 0
6, 54600, Note_on_c, 4, 57, 100
6, 54720, Note_on_c, 4, 57, 0
6, 54720, Note_on_c, 4, 46, 100
6, 55200, Note_on_c, 4, 46, 0
6, 55200, Note_on_c, 4, 48, 100
6, 55680, Note_on_c, 4, 48, 0
6, 55680, Note_on_c, 4, 50, 100
6, 56160, Note_on_c, 4, 50, 0
6, 56160, Note_on_c, 4, 43, 100
6, 56400, Note_on_c, 4, 43, 0
6, 56400, Note_on_c, 4, 55, 100
6, 56640, Note_on_c, 4, 55, 0
6, 56640, Note_on_c, 4, 55, 100
6, 56880, Note_on_c, 4, 55, 0
6, 56880, Note_on_c, 4, 53, 100
6, 57120, Note_on_c, 4, 53, 0
6, 57120, Note_on_c, 4, 53, 100
6, 57360, Note_on_c, 4, 53, 0
6, 57360, Note_on_c, 4, 52, 100
6, 57600, Note_on_c, 4, 52, 0
6, 57600, Note_on_c, 4, 52, 100
6, 58080, Note_on_c, 4, 52, 0
6, 58320, Note_on_c, 4, 48, 100
6, 58560, Note_on_c, 4, 48, 0
6, 58560, Note_on_c, 4, 55, 100
6, 58800, Note_on_c, 4, 55, 0
6, 58800, Note_on_c, 4, 52, 100
6, 59040, Note_on_c, 4, 52, 0
6, 59040, Note_on_c, 4, 58, 100
6, 59280, Note_on_c, 4, 58, 0
6, 59280, Note_on_c, 4, 55, 100
6, 59520, Note_on_c, 4, 55, 0
6, 59520, Note_on_c, 4, 52, 100
6, 59760, Note_on_c, 4, 52, 0
6, 59760, Note_on_c, 4, 55, 100
6, 60000, Note_on_c, 4, 55, 0
6, 60000, Note_on_c, 4, 52, 100
6, 60240, Note_on_c, 4, 52, 0
6, 60240, Note_on_c, 4, 48, 100
6, 60480, Note_on_c, 4, 48, 0
6, 60480, Note_on_c, 4, 53, 100
6, 60960, Note_on_c, 4, 53, 0
6, 61200, Note_on_c, 4, 41, 100
6, 61440, Note_on_c, 4, 41, 0
6, 61440, Note_on_c, 4, 53, 100
6, 61680, Note_on_c, 4, 53, 0
6, 61680, Note_on_c, 4, 50, 100
6, 61920, Note_on_c, 4, 50, 0
6, 61920, Note_on_c, 4, 56, 100
6, 62160, Note_on_c, 4, 56, 0
6, 62160, Note_on_c, 4, 53, 100
6, 62400, Note_on_c, 4, 53, 0
6, 62400, Note_on_c, 4, 50, 100
6, 62640, Note_on_c, 4, 50, 0
6, 62640, Note_on_c, 4, 53, 100
6, 62880, Note_on_c, 4, 53, 0
6, 62880, Note_on_c, 4, 50, 100
6, 63120, Note_on_c, 4, 50, 0
6, 63120, Note_on_c, 4, 46, 100
6, 63360, Note_on_c, 4, 46, 0
6, 63360, Note_on_c, 4, 51, 100
6, 63840, Note_on_c, 4, 51, 0
6, 64080, Note_on_c, 4, 55, 100
6, 64320, Note_on_c, 4, 55, 0
6, 64320, Note_on_c, 4, 51, 100
6, 64560, Note_on_c, 4, 51, 0
6, 64560, Note_on_c, 4, 48, 100
6, 64800, Note_on_c, 4, 48, 0
6, 64800, Note_on_c, 4, 41, 100
6, 65040, Note_on_c, 4, 41, 0
6, 65040, Note_on_c, 4, 43, 100
6, 65280, Note_on_c, 4, 43, 0
6, 65280, Note_on_c, 4, 44, 100
6, 65520, Note_on_c, 4, 44, 0
6, 65520, Note_on_c, 4, 43, 100
6, 65760, Note_on_c, 4, 43, 0
6, 65760, Note_on_c, 4, 41, 100
6, 66000, Note_on_c, 4, 41, 0
6, 66000, Note_on_c, 4, 38, 100
6, 66240, Note_on_c, 4, 38, 0
6, 66240, Note_on_c, 4, 39, 100
6, 66480, Note_on_c, 4, 39, 0
6, 66480, Note_on_c, 4, 38, 100
6, 66720, Note_on_c, 4, 38, 0
6, 66720, Note_on_c, 4, 39, 100
6, 66960, Note_on_c, 4, 39, 0
6, 66960, Note_on_c, 4, 44, 100
6, 67200, Note_on_c, 4, 44, 0
6, 67200, Note_on_c, 4, 43, 100
6, 67440, Note_on_c, 4, 43, 0
6, 67440, Note_on_c, 4, 43, 100
6, 67680, Note_on_c, 4, 43, 0
6, 67680, Note_on_c, 4, 36, 100
6, 67920, Note_on_c, 4, 36, 0
6, 67920, Note_on_c, 4, 48, 100
6, 68160, Note_on_c, 4, 48, 0
6, 68160, Note_on_c, 4, 48, 100
6, 68400, Note_on_c, 4, 48, 0
6, 68400, Note_on_c, 4, 50, 100
6, 68640, Note_on_c, 4, 50, 0
6, 68640, Note_on_c, 4, 50, 100
6, 68880, Note_on_c, 4, 50, 0
6, 68880, Note_on_c, 4, 51, 100
6, 69120, Note_on_c, 4, 51, 0
6, 69120, Note_on_c, 4, 51, 100
6, 69600, Note_on_c, 4, 51, 0
6, 69600, Note_on_c, 4, 39, 100
6, 70080, Note_on_c, 4, 39, 0
6, 70080, Note_on_c, 4, 39, 100
6, 70560, Note_on_c, 4, 39, 0
6, 70560, Note_on_c, 4, 51, 100
6, 70920, Note_on_c, 4, 51, 0
6, 70920, Note_on_c, 4, 53, 100
6, 70980, Note_on_c, 4, 53, 0
6, 70980, Note_on_c, 4, 55, 100
6, 71040, Note_on_c, 4, 55, 0
6, 71040, Note_on_c, 4, 53, 100
6, 71280, Note_on_c, 4, 53, 0
6, 71280, Note_on_c, 4, 51, 100
6, 71520, Note_on_c, 4, 51, 0
6, 71520, Note_on_c, 4, 50, 100
6, 71760, Note_on_c, 4, 50, 0
6, 71760, Note_on_c, 4, 48, 100
6, 72000, Note_on_c, 4, 48, 0
6, 72000, Note_on_c, 4, 50, 100
6, 72480, Note_on_c, 4, 50, 0
6, 72480, Note_on_c, 4, 51, 100
6, 72960, Note_on_c, 4, 51, 0
6, 72960, Note_on_c, 4, 53, 100
6, 73440, Note_on_c, 4, 53, 0
6, 73440, Note_on_c, 4, 46, 100
6, 74160, Note_on_c, 4, 46, 0
6, 74160, Note_on_c, 4, 50, 100
6, 74400, Note_on_c, 4, 50, 0
6, 74400, Note_on_c, 4, 43, 100
6, 74640, Note_on_c, 4, 43, 0
6, 74640, Note_on_c, 4, 46, 100
6, 74880, Note_on_c, 4, 46, 0
6, 74880, Note_on_c, 4, 39, 100
6, 75360, Note_on_c, 4, 39, 0
6, 76080, Note_on_c, 4, 60, 100
6, 76560, Note_on_c, 4, 60, 0
6, 76560, Note_on_c, 4, 58, 100
6, 76800, Note_on_c, 4, 58, 0
6, 76800, Note_on_c, 4, 57, 100
6, 77040, Note_on_c, 4, 57, 0
6, 77040, Note_on_c, 4, 55, 100
6, 77280, Note_on_c, 4, 55, 0
6, 77280, Note_on_c, 4, 54, 100
6, 77520, Note_on_c, 4, 54, 0
6, 77520, Note_on_c, 4, 55, 100
6, 77640, Note_on_c, 4, 55, 0
6, 77640, Note_on_c, 4, 57, 100
6, 77760, Note_on_c, 4, 57, 0
6, 77760, Note_on_c, 4, 46, 100
6, 78240, Note_on_c, 4, 46, 0
6, 78240, Note_on_c, 4, 48, 100
6, 78720, Note_on_c, 4, 48, 0
6, 78720, Note_on_c, 4, 50, 100
6, 79200, Note_on_c, 4, 50, 0
6, 79200, Note_on_c, 4, 43, 100
6, 79440, Note_on_c, 4, 43, 0
6, 79440, Note_on_c, 4, 55, 100
6, 79680, Note_on_c, 4, 55, 0
6, 79680, Note_on_c, 4, 55, 100
6, 79920, Note_on_c, 4, 55, 0
6, 79920, Note_on_c, 4, 53, 100
6, 80160, Note_on_c, 4, 53, 0
6, 80160, Note_on_c, 4, 53, 100
6, 80400, Note_on_c, 4, 53, 0
6, 80400, Note_on_c, 4, 52, 100
6, 80640, Note_on_c, 4, 52, 0
6, 80640, Note_on_c, 4, 52, 100
6, 81120, Note_on_c, 4, 52, 0
6, 81360, Note_on_c, 4, 48, 100
6, 81600, Note_on_c, 4, 48, 0
6, 81600, Note_on_c, 4, 55, 100
6, 81840, Note_on_c, 4, 55, 0
6, 81840, Note_on_c, 4, 52, 100
6, 82080, Note_on_c, 4, 52, 0
6, 82080, Note_on_c, 4, 58, 100
6, 82320, Note_on_c, 4, 58, 0
6, 82320, Note_on_c, 4, 55, 100
6, 82560, Note_on_c, 4, 55, 0
6, 82560, Note_on_c, 4, 52, 100
6, 82800, Note_on_c, 4, 52, 0
6, 82800, Note_on_c, 4, 55, 100
6, 83040, Note_on_c, 4, 55, 0
6, 83040, Note_on_c, 4, 52, 100
6, 83280, Note_on_c, 4, 52, 0
6, 83280, Note_on_c, 4, 48, 100
6, 83520, Note_on_c, 4, 48, 0
6, 83520, Note_on_c, 4, 53, 100
6, 84000, Note_on_c, 4, 53, 0
6, 84240, Note_on_c, 4, 41, 100
6, 84480, Note_on_c, 4, 41, 0
6, 84480, Note_on_c, 4, 53, 100
6, 84720, Note_on_c, 4, 53, 0
6, 84720, Note_on_c, 4, 50, 100
6, 84960, Note_on_c, 4, 50, 0
6, 84960, Note_on_c, 4, 56, 100
6, 85200, Note_on_c, 4, 56, 0
6, 85200, Note_on_c, 4, 53, 100
6, 85440, Note_on_c, 4, 53, 0
6, 85440, Note_on_c, 4, 50, 100
6, 85680, Note_on_c, 4, 50, 0
6, 85680, Note_on_c, 4, 53, 100
6, 85920, Note_on_c, 4, 53, 0
6, 85920, Note_on_c, 4, 50, 100
6, 86160, Note_on_c, 4, 50, 0
6, 86160, Note_on_c, 4, 46, 100
6, 86400, Note_on_c, 4, 46, 0
6, 86400, Note_on_c, 4, 51, 100
6, 86880, Note_on_c, 4, 51, 0
6, 87120, Note_on_c, 4, 55, 100
6, 87360, Note_on_c, 4, 55, 0
6, 87360, Note_on_c, 4, 51, 100
6, 87600, Note_on_c, 4, 51, 0
6, 87600, Note_on_c, 4, 48, 100
6, 87840, Note_on_c, 4, 48, 0
6, 87840, Note_on_c, 4, 41, 100
6, 88080, Note_on_c, 4, 41, 0
6, 88080, Note_on_c, 4, 43, 100
6, 88320, Note_on_c, 4, 43, 0
6, 88320, Note_on_c, 4, 44, 100
6, 88560, Note_on_c, 4, 44, 0
6, 88560, Note_on_c, 4, 43, 100
6, 88800, Note_on_c, 4, 43, 0
6, 88800, Note_on_c, 4, 41, 100
6, 89040, Note_on_c, 4, 41, 0
6, 89040, Note_on_c, 4, 38, 100
6, 89280, Note_on_c, 4, 38, 0
6, 89280, Note_on_c, 4, 39, 100
6, 89520, Note_on_c, 4, 39, 0
6, 89520, Note_on_c, 4, 38, 100
6, 89760, Note_on_c, 4, 38, 0
6, 89760, Note_on_c, 4, 39, 100
6, 90000, Note_on_c, 4, 39, 0
6, 90000, Note_on_c, 4, 44, 100
6, 90240, Note_on_c, 4, 44, 0
6, 90240, Note_on_c, 4, 43, 100
6, 90480, Note_on_c, 4, 43, 0
6, 90480, Note_on_c, 4, 43, 100
6, 90720, Note_on_c, 4, 43, 0
6, 90720, Note_on_c, 4, 36, 100
6, 92160, Note_on_c, 4, 36, 0
6, 92160, End_track
7, 0, Start_track
7, 0, MIDI_port, 0
7, 0, Title_t, "--------------------------------------"
7, 0, End_track
8, 0, Start_track
8, 0, MIDI_port, 0
8, 0, Title_t, "3rd Movement: Sarabande"
8, 0, End_track
9, 0, Start_track
9, 0, MIDI_port, 0
9, 0, Title_t, "--------------------------------------"
9, 0, End_track
10, 0, Start_track
10, 0, MIDI_port, 0
10, 0, Title_t, "Sequenced with Cakewalk Pro Audio by"
10, 0, End_track
11, 0, Start_track
11, 0, MIDI_port, 0
11, 0, Title_t, "David J. Grossman - dave@unpronounceable.com"
11, 0, End_track
12, 0, Start_track
12, 0, MIDI_port, 0
12, 0, Title_t, "This and other Bach MIDI files can be found at:"
12, 0, End_track
13, 0, Start_track
13, 0, MIDI_port, 0
13, 0, Title_t, "Dave's J.S. Bach Page"
13, 0, End_track
14, 0, Start_track
14, 0, MIDI_port, 0
14, 0, Title_t, "http://www.unpronounceable.com/bach"
14, 0, End_track
15, 0, Start_track
15, 0, MIDI_port, 0
15, 0, Title_t, "--------------------------------------"
15, 0, End_track
16, 0, Start_track
16, 0, MIDI_port, 0
16, 0, Title_t, "Original Filename: 997-3sar.mid"
16, 0, End_track
17, 0, Start_track
17, 0, MIDI_port, 0
17, 0, Title_t, "Last Modified: March 29, 1997"
17, 0, End_track
0, 0, End_of_file
