0, 0, Header, 1, 17, 480
1, 0, Start_track
1, 0, Title_t, "untitled"
1, 0, Copyright_t, "Copyright © 1997 by David J. Grossman"
1, 0, Text_t, "David J. Grossman"
1, 0, SMPTE_offset, 96, 0, 3, 0, 0
1, 0, Time_signature, 6, 3, 12, 8
1, 0, Key_signature, -3, "major"
1, 0, Tempo, 240000
1, 1200, Tempo, 600000
1, 1440, Marker_t, "A"
1, 24480, Marker_t, "A'"
1, 47520, Marker_t, "B"
1, 93600, Marker_t, "B'"
1, 138960, Tempo, 1818182
1, 138960, End_track
2, 0, Start_track
2, 0, MIDI_port, 0
2, 0, Title_t, "Solo Lute or Keyboard"
2, 0, Program_c, 0, 24
2, 0, Control_c, 0, 7, 100
2, 0, Control_c, 0, 10, 69
2, 1200, Note_on_c, 0, 79, 100
2, 1440, Note_on_c, 0, 79, 0
2, 1440, Note_on_c, 0, 77, 100
2, 1680, Note_on_c, 0, 77, 0
2, 1680, Note_on_c, 0, 75, 100
2, 1920, Note_on_c, 0, 75, 0
2, 1920, Note_on_c, 0, 79, 100
2, 2160, Note_on_c, 0, 79, 0
2, 2160, Note_on_c, 0, 75, 100
2, 2400, Note_on_c, 0, 75, 0
2, 2400, Note_on_c, 0, 74, 100
2, 2640, Note_on_c, 0, 74, 0
2, 2640, Note_on_c, 0, 79, 100
2, 2880, Note_on_c, 0, 79, 0
2, 2880, Note_on_c, 0, 74, 100
2, 3240, Note_on_c, 0, 74, 0
2, 3240, Note_on_c, 0, 71, 100
2, 3360, Note_on_c, 0, 71, 0
2, 3360, Note_on_c, 0, 72, 100
2, 3600, Note_on_c, 0, 72, 0
2, 3600, Note_on_c, 0, 84, 100
2, 4080, Note_on_c, 0, 84, 0
2, 4080, Note_on_c, 0, 79, 100
2, 4320, Note_on_c, 0, 79, 0
2, 4320, Note_on_c, 0, 79, 100
2, 4380, Note_on_c, 0, 79, 0
2, 4380, Note_on_c, 0, 80, 100
2, 4440, Note_on_c, 0, 80, 0
2, 4440, Note_on_c, 0, 82, 100
2, 4500, Note_on_c, 0, 82, 0
2, 4500, Note_on_c, 0, 80, 100
2, 4680, Note_on_c, 0, 80, 0
2, 4680, Note_on_c, 0, 79, 100
2, 4800, Note_on_c, 0, 79, 0
2, 4800, Note_on_c, 0, 77, 100
2, 5040, Note_on_c, 0, 77, 0
2, 5040, Note_on_c, 0, 77, 100
2, 5100, Note_on_c, 0, 77, 0
2, 5100, Note_on_c, 0, 75, 100
2, 5160, Note_on_c, 0, 75, 0
2, 5160, Note_on_c, 0, 77, 100
2, 5220, Note_on_c, 0, 77, 0
2, 5220, Note_on_c, 0, 75, 100
2, 5400, Note_on_c, 0, 75, 0
2, 5400, Note_on_c, 0, 77, 100
2, 5520, Note_on_c, 0, 77, 0
2, 5520, Note_on_c, 0, 74, 100
2, 5760, Note_on_c, 0, 74, 0
2, 5760, Note_on_c, 0, 74, 100
2, 5820, Note_on_c, 0, 74, 0
2, 5820, Note_on_c, 0, 75, 100
2, 5880, Note_on_c, 0, 75, 0
2, 5880, Note_on_c, 0, 77, 100
2, 5940, Note_on_c, 0, 77, 0
2, 5940, Note_on_c, 0, 75, 100
2, 6120, Note_on_c, 0, 75, 0
2, 6120, Note_on_c, 0, 74, 100
2, 6240, Note_on_c, 0, 74, 0
2, 6240, Note_on_c, 0, 72, 100
2, 6480, Note_on_c, 0, 72, 0
2, 6480, Note_on_c, 0, 72, 100
2, 6960, Note_on_c, 0, 72, 0
2, 6960, Note_on_c, 0, 79, 100
2, 7200, Note_on_c, 0, 79, 0
2, 7200, Note_on_c, 0, 72, 100
2, 7440, Note_on_c, 0, 72, 0
2, 7440, Note_on_c, 0, 71, 100
2, 7680, Note_on_c, 0, 71, 0
2, 7680, Note_on_c, 0, 79, 100
2, 7920, Note_on_c, 0, 79, 0
2, 7920, Note_on_c, 0, 74, 100
2, 8160, Note_on_c, 0, 74, 0
2, 8160, Note_on_c, 0, 72, 100
2, 8400, Note_on_c, 0, 72, 0
2, 8400, Note_on_c, 0, 79, 100
2, 8640, Note_on_c, 0, 79, 0
2, 8640, Note_on_c, 0, 75, 100
2, 8880, Note_on_c, 0, 75, 0
2, 8880, Note_on_c, 0, 74, 100
2, 9120, Note_on_c, 0, 74, 0
2, 9120, Note_on_c, 0, 79, 100
2, 9360, Note_on_c, 0, 79, 0
2, 9360, Note_on_c, 0, 77, 100
2, 9600, Note_on_c, 0, 77, 0
2, 9600, Note_on_c, 0, 75, 100
2, 9840, Note_on_c, 0, 75, 0
2, 9840, Note_on_c, 0, 79, 100
2, 10080, Note_on_c, 0, 79, 0
2, 10080, Note_on_c, 0, 86, 100
2, 10120, Note_on_c, 0, 86, 0
2, 10120, Note_on_c, 0, 84, 100
2, 10160, Note_on_c, 0, 84, 0
2, 10160, Note_on_c, 0, 86, 100
2, 10200, Note_on_c, 0, 86, 0
2, 10200, Note_on_c, 0, 84, 100
2, 10440, Note_on_c, 0, 84, 0
2, 10440, Note_on_c, 0, 83, 100
2, 10560, Note_on_c, 0, 83, 0
2, 10560, Note_on_c, 0, 84, 100
2, 10800, Note_on_c, 0, 84, 0
2, 10800, Note_on_c, 0, 86, 100
2, 11160, Note_on_c, 0, 86, 0
2, 11160, Note_on_c, 0, 87, 100
2, 11280, Note_on_c, 0, 87, 0
2, 11280, Note_on_c, 0, 84, 100
2, 11520, Note_on_c, 0, 84, 0
2, 11520, Note_on_c, 0, 84, 100
2, 11760, Note_on_c, 0, 84, 0
2, 11760, Note_on_c, 0, 83, 100
2, 12720, Note_on_c, 0, 83, 0
2, 12720, Note_on_c, 0, 86, 100
2, 12960, Note_on_c, 0, 86, 0
2, 12960, Note_on_c, 0, 86, 100
2, 13200, Note_on_c, 0, 86, 0
2, 13200, Note_on_c, 0, 87, 100
2, 13440, Note_on_c, 0, 87, 0
2, 13440, Note_on_c, 0, 83, 100
2, 13680, Note_on_c, 0, 83, 0
2, 13680, Note_on_c, 0, 83, 100
2, 13920, Note_on_c, 0, 83, 0
2, 13920, Note_on_c, 0, 84, 100
2, 14160, Note_on_c, 0, 84, 0
2, 14160, Note_on_c, 0, 79, 100
2, 14400, Note_on_c, 0, 79, 0
2, 14400, Note_on_c, 0, 79, 100
2, 14640, Note_on_c, 0, 79, 0
2, 14640, Note_on_c, 0, 80, 100
2, 14880, Note_on_c, 0, 80, 0
2, 14880, Note_on_c, 0, 76, 100
2, 15120, Note_on_c, 0, 76, 0
2, 15120, Note_on_c, 0, 76, 100
2, 15360, Note_on_c, 0, 76, 0
2, 15360, Note_on_c, 0, 77, 100
2, 15600, Note_on_c, 0, 77, 0
2, 15600, Note_on_c, 0, 84, 100
2, 15840, Note_on_c, 0, 84, 0
2, 15840, Note_on_c, 0, 84, 100
2, 16080, Note_on_c, 0, 84, 0
2, 16080, Note_on_c, 0, 86, 100
2, 16320, Note_on_c, 0, 86, 0
2, 16320, Note_on_c, 0, 81, 100
2, 16560, Note_on_c, 0, 81, 0
2, 16560, Note_on_c, 0, 81, 100
2, 16800, Note_on_c, 0, 81, 0
2, 16800, Note_on_c, 0, 82, 100
2, 17040, Note_on_c, 0, 82, 0
2, 17040, Note_on_c, 0, 78, 100
2, 17280, Note_on_c, 0, 78, 0
2, 17280, Note_on_c, 0, 78, 100
2, 17520, Note_on_c, 0, 78, 0
2, 17520, Note_on_c, 0, 79, 100
2, 17760, Note_on_c, 0, 79, 0
2, 17760, Note_on_c, 0, 74, 100
2, 18000, Note_on_c, 0, 74, 0
2, 18000, Note_on_c, 0, 74, 100
2, 18240, Note_on_c, 0, 74, 0
2, 18240, Note_on_c, 0, 75, 100
2, 18480, Note_on_c, 0, 75, 0
2, 18480, Note_on_c, 0, 83, 100
2, 18720, Note_on_c, 0, 83, 0
2, 18720, Note_on_c, 0, 83, 100
2, 18960, Note_on_c, 0, 83, 0
2, 18960, Note_on_c, 0, 84, 100
2, 19200, Note_on_c, 0, 84, 0
2, 19200, Note_on_c, 0, 79, 100
2, 19440, Note_on_c, 0, 79, 0
2, 19440, Note_on_c, 0, 79, 100
2, 19680, Note_on_c, 0, 79, 0
2, 19680, Note_on_c, 0, 80, 100
2, 19920, Note_on_c, 0, 80, 0
2, 19920, Note_on_c, 0, 86, 100
2, 20160, Note_on_c, 0, 86, 0
2, 20160, Note_on_c, 0, 86, 100
2, 20400, Note_on_c, 0, 86, 0
2, 20400, Note_on_c, 0, 87, 100
2, 20640, Note_on_c, 0, 87, 0
2, 20640, Note_on_c, 0, 79, 100
2, 20880, Note_on_c, 0, 79, 0
2, 20880, Note_on_c, 0, 79, 100
2, 21120, Note_on_c, 0, 79, 0
2, 21120, Note_on_c, 0, 78, 100
2, 21360, Note_on_c, 0, 78, 0
2, 21360, Note_on_c, 0, 84, 100
2, 21420, Note_on_c, 0, 84, 0
2, 21420, Note_on_c, 0, 86, 100
2, 21480, Note_on_c, 0, 86, 0
2, 21480, Note_on_c, 0, 87, 100
2, 21600, Note_on_c, 0, 87, 0
2, 21600, Note_on_c, 0, 86, 100
2, 21960, Note_on_c, 0, 86, 0
2, 21960, Note_on_c, 0, 78, 100
2, 22080, Note_on_c, 0, 78, 0
2, 22080, Note_on_c, 0, 79, 100
2, 22320, Note_on_c, 0, 79, 0
2, 22320, Note_on_c, 0, 81, 100
2, 22440, Note_on_c, 0, 81, 0
2, 22440, Note_on_c, 0, 82, 100
2, 22560, Note_on_c, 0, 82, 0
2, 22560, Note_on_c, 0, 84, 100
2, 22680, Note_on_c, 0, 84, 0
2, 22680, Note_on_c, 0, 82, 100
2, 22800, Note_on_c, 0, 82, 0
2, 22800, Note_on_c, 0, 82, 100
2, 22840, Note_on_c, 0, 82, 0
2, 22840, Note_on_c, 0, 81, 100
2, 22880, Note_on_c, 0, 81, 0
2, 22880, Note_on_c, 0, 82, 100
2, 22920, Note_on_c, 0, 82, 0
2, 22920, Note_on_c, 0, 81, 100
2, 23040, Note_on_c, 0, 81, 0
2, 23040, Note_on_c, 0, 81, 100
2, 23280, Note_on_c, 0, 81, 0
2, 23280, Note_on_c, 0, 79, 100
2, 24240, Note_on_c, 0, 79, 0
2, 24240, Note_on_c, 0, 79, 100
2, 24480, Note_on_c, 0, 79, 0
2, 24480, Note_on_c, 0, 77, 100
2, 24720, Note_on_c, 0, 77, 0
2, 24720, Note_on_c, 0, 75, 100
2, 24960, Note_on_c, 0, 75, 0
2, 24960, Note_on_c, 0, 79, 100
2, 25200, Note_on_c, 0, 79, 0
2, 25200, Note_on_c, 0, 75, 100
2, 25440, Note_on_c, 0, 75, 0
2, 25440, Note_on_c, 0, 74, 100
2, 25680, Note_on_c, 0, 74, 0
2, 25680, Note_on_c, 0, 79, 100
2, 25920, Note_on_c, 0, 79, 0
2, 25920, Note_on_c, 0, 74, 100
2, 26280, Note_on_c, 0, 74, 0
2, 26280, Note_on_c, 0, 71, 100
2, 26400, Note_on_c, 0, 71, 0
2, 26400, Note_on_c, 0, 72, 100
2, 26640, Note_on_c, 0, 72, 0
2, 26640, Note_on_c, 0, 84, 100
2, 27120, Note_on_c, 0, 84, 0
2, 27120, Note_on_c, 0, 79, 100
2, 27360, Note_on_c, 0, 79, 0
2, 27360, Note_on_c, 0, 79, 100
2, 27420, Note_on_c, 0, 79, 0
2, 27420, Note_on_c, 0, 80, 100
2, 27480, Note_on_c, 0, 80, 0
2, 27480, Note_on_c, 0, 82, 100
2, 27540, Note_on_c, 0, 82, 0
2, 27540, Note_on_c, 0, 80, 100
2, 27720, Note_on_c, 0, 80, 0
2, 27720, Note_on_c, 0, 79, 100
2, 27840, Note_on_c, 0, 79, 0
2, 27840, Note_on_c, 0, 77, 100
2, 28080, Note_on_c, 0, 77, 0
2, 28080, Note_on_c, 0, 77, 100
2, 28140, Note_on_c, 0, 77, 0
2, 28140, Note_on_c, 0, 75, 100
2, 28200, Note_on_c, 0, 75, 0
2, 28200, Note_on_c, 0, 77, 100
2, 28260, Note_on_c, 0, 77, 0
2, 28260, Note_on_c, 0, 75, 100
2, 28440, Note_on_c, 0, 75, 0
2, 28440, Note_on_c, 0, 77, 100
2, 28560, Note_on_c, 0, 77, 0
2, 28560, Note_on_c, 0, 74, 100
2, 28800, Note_on_c, 0, 74, 0
2, 28800, Note_on_c, 0, 74, 100
2, 28860, Note_on_c, 0, 74, 0
2, 28860, Note_on_c, 0, 75, 100
2, 28920, Note_on_c, 0, 75, 0
2, 28920, Note_on_c, 0, 77, 100
2, 28980, Note_on_c, 0, 77, 0
2, 28980, Note_on_c, 0, 75, 100
2, 29160, Note_on_c, 0, 75, 0
2, 29160, Note_on_c, 0, 74, 100
2, 29280, Note_on_c, 0, 74, 0
2, 29280, Note_on_c, 0, 72, 100
2, 29520, Note_on_c, 0, 72, 0
2, 29520, Note_on_c, 0, 72, 100
2, 30000, Note_on_c, 0, 72, 0
2, 30000, Note_on_c, 0, 79, 100
2, 30240, Note_on_c, 0, 79, 0
2, 30240, Note_on_c, 0, 72, 100
2, 30480, Note_on_c, 0, 72, 0
2, 30480, Note_on_c, 0, 71, 100
2, 30720, Note_on_c, 0, 71, 0
2, 30720, Note_on_c, 0, 79, 100
2, 30960, Note_on_c, 0, 79, 0
2, 30960, Note_on_c, 0, 74, 100
2, 31200, Note_on_c, 0, 74, 0
2, 31200, Note_on_c, 0, 72, 100
2, 31440, Note_on_c, 0, 72, 0
2, 31440, Note_on_c, 0, 79, 100
2, 31680, Note_on_c, 0, 79, 0
2, 31680, Note_on_c, 0, 75, 100
2, 31920, Note_on_c, 0, 75, 0
2, 31920, Note_on_c, 0, 74, 100
2, 32160, Note_on_c, 0, 74, 0
2, 32160, Note_on_c, 0, 79, 100
2, 32400, Note_on_c, 0, 79, 0
2, 32400, Note_on_c, 0, 77, 100
2, 32640, Note_on_c, 0, 77, 0
2, 32640, Note_on_c, 0, 75, 100
2, 32880, Note_on_c, 0, 75, 0
2, 32880, Note_on_c, 0, 79, 100
2, 33120, Note_on_c, 0, 79, 0
2, 33120, Note_on_c, 0, 86, 100
2, 33160, Note_on_c, 0, 86, 0
2, 33160, Note_on_c, 0, 84, 100
2, 33200, Note_on_c, 0, 84, 0
2, 33200, Note_on_c, 0, 86, 100
2, 33240, Note_on_c, 0, 86, 0
2, 33240, Note_on_c, 0, 84, 100
2, 33480, Note_on_c, 0, 84, 0
2, 33480, Note_on_c, 0, 83, 100
2, 33600, Note_on_c, 0, 83, 0
2, 33600, Note_on_c, 0, 84, 100
2, 33840, Note_on_c, 0, 84, 0
2, 33840, Note_on_c, 0, 86, 100
2, 34200, Note_on_c, 0, 86, 0
2, 34200, Note_on_c, 0, 87, 100
2, 34320, Note_on_c, 0, 87, 0
2, 34320, Note_on_c, 0, 84, 100
2, 34560, Note_on_c, 0, 84, 0
2, 34560, Note_on_c, 0, 84, 100
2, 34800, Note_on_c, 0, 84, 0
2, 34800, Note_on_c, 0, 83, 100
2, 35760, Note_on_c, 0, 83, 0
2, 35760, Note_on_c, 0, 86, 100
2, 36000, Note_on_c, 0, 86, 0
2, 36000, Note_on_c, 0, 86, 100
2, 36240, Note_on_c, 0, 86, 0
2, 36240, Note_on_c, 0, 87, 100
2, 36480, Note_on_c, 0, 87, 0
2, 36480, Note_on_c, 0, 83, 100
2, 36720, Note_on_c, 0, 83, 0
2, 36720, Note_on_c, 0, 83, 100
2, 36960, Note_on_c, 0, 83, 0
2, 36960, Note_on_c, 0, 84, 100
2, 37200, Note_on_c, 0, 84, 0
2, 37200, Note_on_c, 0, 79, 100
2, 37440, Note_on_c, 0, 79, 0
2, 37440, Note_on_c, 0, 79, 100
2, 37680, Note_on_c, 0, 79, 0
2, 37680, Note_on_c, 0, 80, 100
2, 37920, Note_on_c, 0, 80, 0
2, 37920, Note_on_c, 0, 76, 100
2, 38160, Note_on_c, 0, 76, 0
2, 38160, Note_on_c, 0, 76, 100
2, 38400, Note_on_c, 0, 76, 0
2, 38400, Note_on_c, 0, 77, 100
2, 38640, Note_on_c, 0, 77, 0
2, 38640, Note_on_c, 0, 84, 100
2, 38880, Note_on_c, 0, 84, 0
2, 38880, Note_on_c, 0, 84, 100
2, 39120, Note_on_c, 0, 84, 0
2, 39120, Note_on_c, 0, 86, 100
2, 39360, Note_on_c, 0, 86, 0
2, 39360, Note_on_c, 0, 81, 100
2, 39600, Note_on_c, 0, 81, 0
2, 39600, Note_on_c, 0, 81, 100
2, 39840, Note_on_c, 0, 81, 0
2, 39840, Note_on_c, 0, 82, 100
2, 40080, Note_on_c, 0, 82, 0
2, 40080, Note_on_c, 0, 78, 100
2, 40320, Note_on_c, 0, 78, 0
2, 40320, Note_on_c, 0, 78, 100
2, 40560, Note_on_c, 0, 78, 0
2, 40560, Note_on_c, 0, 79, 100
2, 40800, Note_on_c, 0, 79, 0
2, 40800, Note_on_c, 0, 74, 100
2, 41040, Note_on_c, 0, 74, 0
2, 41040, Note_on_c, 0, 74, 100
2, 41280, Note_on_c, 0, 74, 0
2, 41280, Note_on_c, 0, 75, 100
2, 41520, Note_on_c, 0, 75, 0
2, 41520, Note_on_c, 0, 83, 100
2, 41760, Note_on_c, 0, 83, 0
2, 41760, Note_on_c, 0, 83, 100
2, 42000, Note_on_c, 0, 83, 0
2, 42000, Note_on_c, 0, 84, 100
2, 42240, Note_on_c, 0, 84, 0
2, 42240, Note_on_c, 0, 79, 100
2, 42480, Note_on_c, 0, 79, 0
2, 42480, Note_on_c, 0, 79, 100
2, 42720, Note_on_c, 0, 79, 0
2, 42720, Note_on_c, 0, 80, 100
2, 42960, Note_on_c, 0, 80, 0
2, 42960, Note_on_c, 0, 86, 100
2, 43200, Note_on_c, 0, 86, 0
2, 43200, Note_on_c, 0, 86, 100
2, 43440, Note_on_c, 0, 86, 0
2, 43440, Note_on_c, 0, 87, 100
2, 43680, Note_on_c, 0, 87, 0
2, 43680, Note_on_c, 0, 79, 100
2, 43920, Note_on_c, 0, 79, 0
2, 43920, Note_on_c, 0, 79, 100
2, 44160, Note_on_c, 0, 79, 0
2, 44160, Note_on_c, 0, 78, 100
2, 44400, Note_on_c, 0, 78, 0
2, 44400, Note_on_c, 0, 84, 100
2, 44460, Note_on_c, 0, 84, 0
2, 44460, Note_on_c, 0, 86, 100
2, 44520, Note_on_c, 0, 86, 0
2, 44520, Note_on_c, 0, 87, 100
2, 44640, Note_on_c, 0, 87, 0
2, 44640, Note_on_c, 0, 86, 100
2, 45000, Note_on_c, 0, 86, 0
2, 45000, Note_on_c, 0, 78, 100
2, 45120, Note_on_c, 0, 78, 0
2, 45120, Note_on_c, 0, 79, 100
2, 45360, Note_on_c, 0, 79, 0
2, 45360, Note_on_c, 0, 81, 100
2, 45480, Note_on_c, 0, 81, 0
2, 45480, Note_on_c, 0, 82, 100
2, 45600, Note_on_c, 0, 82, 0
2, 45600, Note_on_c, 0, 84, 100
2, 45720, Note_on_c, 0, 84, 0
2, 45720, Note_on_c, 0, 82, 100
2, 45840, Note_on_c, 0, 82, 0
2, 45840, Note_on_c, 0, 82, 100
2, 45880, Note_on_c, 0, 82, 0
2, 45880, Note_on_c, 0, 81, 100
2, 45920, Note_on_c, 0, 81, 0
2, 45920, Note_on_c, 0, 82, 100
2, 45960, Note_on_c, 0, 82, 0
2, 45960, Note_on_c, 0, 81, 100
2, 46080, Note_on_c, 0, 81, 0
2, 46080, Note_on_c, 0, 81, 100
2, 46320, Note_on_c, 0, 81, 0
2, 46320, Note_on_c, 0, 79, 100
2, 47280, Note_on_c, 0, 79, 0
2, 47280, Note_on_c, 0, 86, 100
2, 47520, Note_on_c, 0, 86, 0
2, 47520, Note_on_c, 0, 84, 100
2, 47760, Note_on_c, 0, 84, 0
2, 47760, Note_on_c, 0, 83, 100
2, 48000, Note_on_c, 0, 83, 0
2, 48000, Note_on_c, 0, 86, 100
2, 48240, Note_on_c, 0, 86, 0
2, 48240, Note_on_c, 0, 80, 100
2, 48480, Note_on_c, 0, 80, 0
2, 48480, Note_on_c, 0, 79, 100
2, 48720, Note_on_c, 0, 79, 0
2, 48720, Note_on_c, 0, 86, 100
2, 48960, Note_on_c, 0, 86, 0
2, 48960, Note_on_c, 0, 77, 100
2, 49200, Note_on_c, 0, 77, 0
2, 49200, Note_on_c, 0, 76, 100
2, 49440, Note_on_c, 0, 76, 0
2, 49440, Note_on_c, 0, 82, 100
2, 49680, Note_on_c, 0, 82, 0
2, 49680, Note_on_c, 0, 73, 100
2, 49920, Note_on_c, 0, 73, 0
2, 49920, Note_on_c, 0, 72, 100
2, 50160, Note_on_c, 0, 72, 0
2, 50160, Note_on_c, 0, 82, 100
2, 50220, Note_on_c, 0, 82, 0
2, 50220, Note_on_c, 0, 84, 100
2, 50280, Note_on_c, 0, 84, 0
2, 50280, Note_on_c, 0, 85, 100
2, 50400, Note_on_c, 0, 85, 0
2, 50400, Note_on_c, 0, 84, 100
2, 50760, Note_on_c, 0, 84, 0
2, 50760, Note_on_c, 0, 76, 100
2, 50880, Note_on_c, 0, 76, 0
2, 50880, Note_on_c, 0, 77, 100
2, 51120, Note_on_c, 0, 77, 0
2, 51120, Note_on_c, 0, 79, 100
2, 51240, Note_on_c, 0, 79, 0
2, 51240, Note_on_c, 0, 80, 100
2, 51360, Note_on_c, 0, 80, 0
2, 51360, Note_on_c, 0, 82, 100
2, 51480, Note_on_c, 0, 82, 0
2, 51480, Note_on_c, 0, 80, 100
2, 51600, Note_on_c, 0, 80, 0
2, 51600, Note_on_c, 0, 79, 100
2, 51840, Note_on_c, 0, 79, 0
2, 51840, Note_on_c, 0, 82, 100
2, 51900, Note_on_c, 0, 82, 0
2, 51900, Note_on_c, 0, 80, 100
2, 52200, Note_on_c, 0, 80, 0
2, 52200, Note_on_c, 0, 79, 100
2, 52320, Note_on_c, 0, 79, 0
2, 52320, Note_on_c, 0, 80, 100
2, 52560, Note_on_c, 0, 80, 0
2, 52560, Note_on_c, 0, 77, 100
2, 53040, Note_on_c, 0, 77, 0
2, 53040, Note_on_c, 0, 80, 100
2, 53280, Note_on_c, 0, 80, 0
2, 53280, Note_on_c, 0, 75, 100
2, 53520, Note_on_c, 0, 75, 0
2, 53520, Note_on_c, 0, 74, 100
2, 53760, Note_on_c, 0, 74, 0
2, 53760, Note_on_c, 0, 80, 100
2, 54000, Note_on_c, 0, 80, 0
2, 54000, Note_on_c, 0, 72, 100
2, 54240, Note_on_c, 0, 72, 0
2, 54240, Note_on_c, 0, 70, 100
2, 54480, Note_on_c, 0, 70, 0
2, 54480, Note_on_c, 0, 80, 100
2, 54720, Note_on_c, 0, 80, 0
2, 54720, Note_on_c, 0, 80, 100
2, 54960, Note_on_c, 0, 80, 0
2, 54960, Note_on_c, 0, 79, 100
2, 55200, Note_on_c, 0, 79, 0
2, 55200, Note_on_c, 0, 85, 100
2, 55440, Note_on_c, 0, 85, 0
2, 55440, Note_on_c, 0, 85, 100
2, 55680, Note_on_c, 0, 85, 0
2, 55680, Note_on_c, 0, 84, 100
2, 55920, Note_on_c, 0, 84, 0
2, 55920, Note_on_c, 0, 75, 100
2, 56160, Note_on_c, 0, 75, 0
2, 56160, Note_on_c, 0, 74, 100
2, 56280, Note_on_c, 0, 74, 0
2, 56280, Note_on_c, 0, 75, 100
2, 56400, Note_on_c, 0, 75, 0
2, 56400, Note_on_c, 0, 77, 100
2, 56520, Note_on_c, 0, 77, 0
2, 56520, Note_on_c, 0, 79, 100
2, 56640, Note_on_c, 0, 79, 0
2, 56640, Note_on_c, 0, 80, 100
2, 57000, Note_on_c, 0, 80, 0
2, 57000, Note_on_c, 0, 79, 100
2, 57120, Note_on_c, 0, 79, 0
2, 57120, Note_on_c, 0, 77, 100
2, 57240, Note_on_c, 0, 77, 0
2, 57240, Note_on_c, 0, 75, 100
2, 57360, Note_on_c, 0, 75, 0
2, 57360, Note_on_c, 0, 81, 100
2, 57600, Note_on_c, 0, 81, 0
2, 57600, Note_on_c, 0, 81, 100
2, 57840, Note_on_c, 0, 81, 0
2, 57840, Note_on_c, 0, 82, 100
2, 58320, Note_on_c, 0, 82, 0
2, 58320, Note_on_c, 0, 82, 100
2, 58380, Note_on_c, 0, 82, 0
2, 58380, Note_on_c, 0, 81, 100
2, 58440, Note_on_c, 0, 81, 0
2, 58440, Note_on_c, 0, 82, 100
2, 58800, Note_on_c, 0, 82, 0
2, 58800, Note_on_c, 0, 70, 100
2, 59040, Note_on_c, 0, 70, 0
2, 59040, Note_on_c, 0, 77, 100
2, 59280, Note_on_c, 0, 77, 0
2, 59280, Note_on_c, 0, 75, 100
2, 59520, Note_on_c, 0, 75, 0
2, 59520, Note_on_c, 0, 70, 100
2, 59760, Note_on_c, 0, 70, 0
2, 59760, Note_on_c, 0, 79, 100
2, 60000, Note_on_c, 0, 79, 0
2, 60000, Note_on_c, 0, 77, 100
2, 60240, Note_on_c, 0, 77, 0
2, 60240, Note_on_c, 0, 70, 100
2, 60480, Note_on_c, 0, 70, 0
2, 60480, Note_on_c, 0, 80, 100
2, 60720, Note_on_c, 0, 80, 0
2, 60720, Note_on_c, 0, 79, 100
2, 60960, Note_on_c, 0, 79, 0
2, 60960, Note_on_c, 0, 70, 100
2, 61200, Note_on_c, 0, 70, 0
2, 61200, Note_on_c, 0, 82, 100
2, 61440, Note_on_c, 0, 82, 0
2, 61440, Note_on_c, 0, 80, 100
2, 61680, Note_on_c, 0, 80, 0
2, 61680, Note_on_c, 0, 70, 100
2, 61920, Note_on_c, 0, 70, 0
2, 61920, Note_on_c, 0, 82, 100
2, 62040, Note_on_c, 0, 82, 0
2, 62040, Note_on_c, 0, 80, 100
2, 62160, Note_on_c, 0, 80, 0
2, 62160, Note_on_c, 0, 79, 100
2, 62280, Note_on_c, 0, 79, 0
2, 62280, Note_on_c, 0, 80, 100
2, 62400, Note_on_c, 0, 80, 0
2, 62400, Note_on_c, 0, 82, 100
2, 62640, Note_on_c, 0, 82, 0
2, 62640, Note_on_c, 0, 73, 100
2, 62880, Note_on_c, 0, 73, 0
2, 62880, Note_on_c, 0, 72, 100
2, 63120, Note_on_c, 0, 72, 0
2, 63120, Note_on_c, 0, 84, 100
2, 63360, Note_on_c, 0, 84, 0
2, 63360, Note_on_c, 0, 86, 100
2, 63480, Note_on_c, 0, 86, 0
2, 63480, Note_on_c, 0, 84, 100
2, 63600, Note_on_c, 0, 84, 0
2, 63600, Note_on_c, 0, 83, 100
2, 63720, Note_on_c, 0, 83, 0
2, 63720, Note_on_c, 0, 84, 100
2, 63840, Note_on_c, 0, 84, 0
2, 63840, Note_on_c, 0, 86, 100
2, 64080, Note_on_c, 0, 86, 0
2, 64080, Note_on_c, 0, 77, 100
2, 64320, Note_on_c, 0, 77, 0
2, 64320, Note_on_c, 0, 75, 100
2, 64560, Note_on_c, 0, 75, 0
2, 64560, Note_on_c, 0, 87, 100
2, 64800, Note_on_c, 0, 87, 0
2, 64800, Note_on_c, 0, 82, 100
2, 65040, Note_on_c, 0, 82, 0
2, 65040, Note_on_c, 0, 81, 100
2, 65280, Note_on_c, 0, 81, 0
2, 65280, Note_on_c, 0, 84, 100
2, 65520, Note_on_c, 0, 84, 0
2, 65520, Note_on_c, 0, 78, 100
2, 65760, Note_on_c, 0, 78, 0
2, 65760, Note_on_c, 0, 77, 100
2, 66000, Note_on_c, 0, 77, 0
2, 66000, Note_on_c, 0, 84, 100
2, 66240, Note_on_c, 0, 84, 0
2, 66240, Note_on_c, 0, 75, 100
2, 66480, Note_on_c, 0, 75, 0
2, 66480, Note_on_c, 0, 74, 100
2, 66720, Note_on_c, 0, 74, 0
2, 66720, Note_on_c, 0, 80, 100
2, 66960, Note_on_c, 0, 80, 0
2, 66960, Note_on_c, 0, 71, 100
2, 67200, Note_on_c, 0, 71, 0
2, 67200, Note_on_c, 0, 70, 100
2, 67440, Note_on_c, 0, 70, 0
2, 67440, Note_on_c, 0, 77, 100
2, 67500, Note_on_c, 0, 77, 0
2, 67500, Note_on_c, 0, 79, 100
2, 67560, Note_on_c, 0, 79, 0
2, 67560, Note_on_c, 0, 80, 100
2, 67680, Note_on_c, 0, 80, 0
2, 67680, Note_on_c, 0, 79, 100
2, 68040, Note_on_c, 0, 79, 0
2, 68040, Note_on_c, 0, 84, 100
2, 68160, Note_on_c, 0, 84, 0
2, 68160, Note_on_c, 0, 82, 100
2, 68400, Note_on_c, 0, 82, 0
2, 68400, Note_on_c, 0, 80, 100
2, 68440, Note_on_c, 0, 80, 0
2, 68440, Note_on_c, 0, 79, 100
2, 68480, Note_on_c, 0, 79, 0
2, 68480, Note_on_c, 0, 80, 100
2, 68520, Note_on_c, 0, 80, 0
2, 68520, Note_on_c, 0, 79, 100
2, 68760, Note_on_c, 0, 79, 0
2, 68760, Note_on_c, 0, 77, 100
2, 68880, Note_on_c, 0, 77, 0
2, 68880, Note_on_c, 0, 75, 100
2, 69120, Note_on_c, 0, 75, 0
2, 69120, Note_on_c, 0, 75, 100
2, 70320, Note_on_c, 0, 75, 0
2, 70320, Note_on_c, 0, 87, 100
2, 70560, Note_on_c, 0, 87, 0
2, 70560, Note_on_c, 0, 83, 100
2, 70800, Note_on_c, 0, 83, 0
2, 70800, Note_on_c, 0, 84, 100
2, 71040, Note_on_c, 0, 84, 0
2, 71040, Note_on_c, 0, 79, 100
2, 71280, Note_on_c, 0, 79, 0
2, 71280, Note_on_c, 0, 79, 100
2, 71520, Note_on_c, 0, 79, 0
2, 71520, Note_on_c, 0, 80, 100
2, 71760, Note_on_c, 0, 80, 0
2, 71760, Note_on_c, 0, 82, 100
2, 72000, Note_on_c, 0, 82, 0
2, 72000, Note_on_c, 0, 76, 100
2, 72240, Note_on_c, 0, 76, 0
2, 72240, Note_on_c, 0, 77, 100
2, 72480, Note_on_c, 0, 77, 0
2, 72480, Note_on_c, 0, 72, 100
2, 72720, Note_on_c, 0, 72, 0
2, 72720, Note_on_c, 0, 72, 100
2, 72960, Note_on_c, 0, 72, 0
2, 72960, Note_on_c, 0, 73, 100
2, 73200, Note_on_c, 0, 73, 0
2, 73200, Note_on_c, 0, 77, 100
2, 73440, Note_on_c, 0, 77, 0
2, 73440, Note_on_c, 0, 71, 100
2, 73560, Note_on_c, 0, 71, 0
2, 73560, Note_on_c, 0, 72, 100
2, 73680, Note_on_c, 0, 72, 0
2, 73680, Note_on_c, 0, 74, 100
2, 73800, Note_on_c, 0, 74, 0
2, 73800, Note_on_c, 0, 77, 100
2, 73920, Note_on_c, 0, 77, 0
2, 73920, Note_on_c, 0, 75, 100
2, 74040, Note_on_c, 0, 75, 0
2, 74040, Note_on_c, 0, 74, 100
2, 74160, Note_on_c, 0, 74, 0
2, 74160, Note_on_c, 0, 75, 100
2, 74280, Note_on_c, 0, 75, 0
2, 74280, Note_on_c, 0, 80, 100
2, 74400, Note_on_c, 0, 80, 0
2, 74400, Note_on_c, 0, 79, 100
2, 74520, Note_on_c, 0, 79, 0
2, 74520, Note_on_c, 0, 77, 100
2, 74640, Note_on_c, 0, 77, 0
2, 74640, Note_on_c, 0, 75, 100
2, 74760, Note_on_c, 0, 75, 0
2, 74760, Note_on_c, 0, 74, 100
2, 74880, Note_on_c, 0, 74, 0
2, 74880, Note_on_c, 0, 72, 100
2, 75120, Note_on_c, 0, 72, 0
2, 75120, Note_on_c, 0, 71, 100
2, 75240, Note_on_c, 0, 71, 0
2, 75240, Note_on_c, 0, 72, 100
2, 75360, Note_on_c, 0, 72, 0
2, 75360, Note_on_c, 0, 74, 100
2, 75600, Note_on_c, 0, 74, 0
2, 75600, Note_on_c, 0, 67, 100
2, 76080, Note_on_c, 0, 67, 0
2, 76080, Note_on_c, 0, 79, 100
2, 76320, Note_on_c, 0, 79, 0
2, 76320, Note_on_c, 0, 77, 100
2, 76560, Note_on_c, 0, 77, 0
2, 76560, Note_on_c, 0, 75, 100
2, 76800, Note_on_c, 0, 75, 0
2, 76800, Note_on_c, 0, 79, 100
2, 77040, Note_on_c, 0, 79, 0
2, 77040, Note_on_c, 0, 75, 100
2, 77280, Note_on_c, 0, 75, 0
2, 77280, Note_on_c, 0, 74, 100
2, 77520, Note_on_c, 0, 74, 0
2, 77520, Note_on_c, 0, 79, 100
2, 77760, Note_on_c, 0, 79, 0
2, 77760, Note_on_c, 0, 74, 100
2, 78120, Note_on_c, 0, 74, 0
2, 78120, Note_on_c, 0, 71, 100
2, 78240, Note_on_c, 0, 71, 0
2, 78240, Note_on_c, 0, 72, 100
2, 78480, Note_on_c, 0, 72, 0
2, 78480, Note_on_c, 0, 84, 100
2, 78960, Note_on_c, 0, 84, 0
2, 78960, Note_on_c, 0, 79, 100
2, 79200, Note_on_c, 0, 79, 0
2, 79200, Note_on_c, 0, 79, 100
2, 79260, Note_on_c, 0, 79, 0
2, 79260, Note_on_c, 0, 80, 100
2, 79320, Note_on_c, 0, 80, 0
2, 79320, Note_on_c, 0, 82, 100
2, 79380, Note_on_c, 0, 82, 0
2, 79380, Note_on_c, 0, 80, 100
2, 79560, Note_on_c, 0, 80, 0
2, 79560, Note_on_c, 0, 79, 100
2, 79680, Note_on_c, 0, 79, 0
2, 79680, Note_on_c, 0, 77, 100
2, 79920, Note_on_c, 0, 77, 0
2, 79920, Note_on_c, 0, 77, 100
2, 80040, Note_on_c, 0, 77, 0
2, 80040, Note_on_c, 0, 75, 100
2, 80280, Note_on_c, 0, 75, 0
2, 80280, Note_on_c, 0, 77, 100
2, 80400, Note_on_c, 0, 77, 0
2, 80400, Note_on_c, 0, 74, 100
2, 80640, Note_on_c, 0, 74, 0
2, 80640, Note_on_c, 0, 74, 100
2, 80700, Note_on_c, 0, 74, 0
2, 80700, Note_on_c, 0, 75, 100
2, 80760, Note_on_c, 0, 75, 0
2, 80760, Note_on_c, 0, 77, 100
2, 80820, Note_on_c, 0, 77, 0
2, 80820, Note_on_c, 0, 75, 100
2, 81000, Note_on_c, 0, 75, 0
2, 81000, Note_on_c, 0, 74, 100
2, 81120, Note_on_c, 0, 74, 0
2, 81120, Note_on_c, 0, 72, 100
2, 81360, Note_on_c, 0, 72, 0
2, 81360, Note_on_c, 0, 82, 100
2, 81840, Note_on_c, 0, 82, 0
2, 81840, Note_on_c, 0, 84, 100
2, 81900, Note_on_c, 0, 84, 0
2, 81900, Note_on_c, 0, 82, 100
2, 81960, Note_on_c, 0, 82, 0
2, 81960, Note_on_c, 0, 80, 100
2, 82020, Note_on_c, 0, 80, 0
2, 82020, Note_on_c, 0, 79, 100
2, 82080, Note_on_c, 0, 79, 0
2, 82080, Note_on_c, 0, 79, 100
2, 82320, Note_on_c, 0, 79, 0
2, 82320, Note_on_c, 0, 80, 100
2, 82560, Note_on_c, 0, 80, 0
2, 82560, Note_on_c, 0, 76, 100
2, 82800, Note_on_c, 0, 76, 0
2, 82800, Note_on_c, 0, 76, 100
2, 83040, Note_on_c, 0, 76, 0
2, 83040, Note_on_c, 0, 77, 100
2, 83280, Note_on_c, 0, 77, 0
2, 83280, Note_on_c, 0, 72, 100
2, 83520, Note_on_c, 0, 72, 0
2, 83520, Note_on_c, 0, 72, 100
2, 83760, Note_on_c, 0, 72, 0
2, 83760, Note_on_c, 0, 73, 100
2, 84000, Note_on_c, 0, 73, 0
2, 84000, Note_on_c, 0, 69, 100
2, 84240, Note_on_c, 0, 69, 0
2, 84240, Note_on_c, 0, 69, 100
2, 84480, Note_on_c, 0, 69, 0
2, 84480, Note_on_c, 0, 70, 100
2, 84720, Note_on_c, 0, 70, 0
2, 84720, Note_on_c, 0, 77, 100
2, 84960, Note_on_c, 0, 77, 0
2, 84960, Note_on_c, 0, 77, 100
2, 85200, Note_on_c, 0, 77, 0
2, 85200, Note_on_c, 0, 79, 100
2, 85440, Note_on_c, 0, 79, 0
2, 85440, Note_on_c, 0, 74, 100
2, 85680, Note_on_c, 0, 74, 0
2, 85680, Note_on_c, 0, 74, 100
2, 85920, Note_on_c, 0, 74, 0
2, 85920, Note_on_c, 0, 75, 100
2, 86160, Note_on_c, 0, 75, 0
2, 86160, Note_on_c, 0, 71, 100
2, 86400, Note_on_c, 0, 71, 0
2, 86400, Note_on_c, 0, 71, 100
2, 86640, Note_on_c, 0, 71, 0
2, 86640, Note_on_c, 0, 72, 100
2, 86880, Note_on_c, 0, 72, 0
2, 86880, Note_on_c, 0, 67, 100
2, 87120, Note_on_c, 0, 67, 0
2, 87120, Note_on_c, 0, 67, 100
2, 87360, Note_on_c, 0, 67, 0
2, 87360, Note_on_c, 0, 68, 100
2, 87600, Note_on_c, 0, 68, 0
2, 87600, Note_on_c, 0, 76, 100
2, 87840, Note_on_c, 0, 76, 0
2, 87840, Note_on_c, 0, 76, 100
2, 88080, Note_on_c, 0, 76, 0
2, 88080, Note_on_c, 0, 77, 100
2, 88320, Note_on_c, 0, 77, 0
2, 88320, Note_on_c, 0, 72, 100
2, 88560, Note_on_c, 0, 72, 0
2, 88560, Note_on_c, 0, 72, 100
2, 88800, Note_on_c, 0, 72, 0
2, 88800, Note_on_c, 0, 73, 100
2, 89040, Note_on_c, 0, 73, 0
2, 89040, Note_on_c, 0, 79, 100
2, 89280, Note_on_c, 0, 79, 0
2, 89280, Note_on_c, 0, 79, 100
2, 89520, Note_on_c, 0, 79, 0
2, 89520, Note_on_c, 0, 80, 100
2, 89760, Note_on_c, 0, 80, 0
2, 89760, Note_on_c, 0, 72, 100
2, 90000, Note_on_c, 0, 72, 0
2, 90000, Note_on_c, 0, 72, 100
2, 90240, Note_on_c, 0, 72, 0
2, 90240, Note_on_c, 0, 71, 100
2, 90480, Note_on_c, 0, 71, 0
2, 90480, Note_on_c, 0, 77, 100
2, 90540, Note_on_c, 0, 77, 0
2, 90540, Note_on_c, 0, 79, 100
2, 90600, Note_on_c, 0, 79, 0
2, 90600, Note_on_c, 0, 80, 100
2, 90720, Note_on_c, 0, 80, 0
2, 90720, Note_on_c, 0, 79, 100
2, 91080, Note_on_c, 0, 79, 0
2, 91080, Note_on_c, 0, 71, 100
2, 91200, Note_on_c, 0, 71, 0
2, 91200, Note_on_c, 0, 72, 100
2, 91440, Note_on_c, 0, 72, 0
2, 91440, Note_on_c, 0, 74, 100
2, 91560, Note_on_c, 0, 74, 0
2, 91560, Note_on_c, 0, 75, 100
2, 91680, Note_on_c, 0, 75, 0
2, 91680, Note_on_c, 0, 77, 100
2, 91800, Note_on_c, 0, 77, 0
2, 91800, Note_on_c, 0, 75, 100
2, 91920, Note_on_c, 0, 75, 0
2, 91920, Note_on_c, 0, 75, 100
2, 91960, Note_on_c, 0, 75, 0
2, 91960, Note_on_c, 0, 74, 100
2, 92000, Note_on_c, 0, 74, 0
2, 92000, Note_on_c, 0, 75, 100
2, 92040, Note_on_c, 0, 75, 0
2, 92040, Note_on_c, 0, 74, 100
2, 92160, Note_on_c, 0, 74, 0
2, 92160, Note_on_c, 0, 74, 100
2, 92400, Note_on_c, 0, 74, 0
2, 92400, Note_on_c, 0, 72, 100
2, 93360, Note_on_c, 0, 72, 0
2, 93360, Note_on_c, 0, 86, 100
2, 93600, Note_on_c, 0, 86, 0
2, 93600, Note_on_c, 0, 84, 100
2, 93840, Note_on_c, 0, 84, 0
2, 93840, Note_on_c, 0, 83, 100
2, 94080, Note_on_c, 0, 83, 0
2, 94080, Note_on_c, 0, 86, 100
2, 94320, Note_on_c, 0, 86, 0
2, 94320, Note_on_c, 0, 80, 100
2, 94560, Note_on_c, 0, 80, 0
2, 94560, Note_on_c, 0, 79, 100
2, 94800, Note_on_c, 0, 79, 0
2, 94800, Note_on_c, 0, 86, 100
2, 95040, Note_on_c, 0, 86, 0
2, 95040, Note_on_c, 0, 77, 100
2, 95280, Note_on_c, 0, 77, 0
2, 95280, Note_on_c, 0, 76, 100
2, 95520, Note_on_c, 0, 76, 0
2, 95520, Note_on_c, 0, 82, 100
2, 95760, Note_on_c, 0, 82, 0
2, 95760, Note_on_c, 0, 73, 100
2, 96000, Note_on_c, 0, 73, 0
2, 96000, Note_on_c, 0, 72, 100
2, 96240, Note_on_c, 0, 72, 0
2, 96240, Note_on_c, 0, 82, 100
2, 96300, Note_on_c, 0, 82, 0
2, 96300, Note_on_c, 0, 84, 100
2, 96360, Note_on_c, 0, 84, 0
2, 96360, Note_on_c, 0, 85, 100
2, 96480, Note_on_c, 0, 85, 0
2, 96480, Note_on_c, 0, 84, 100
2, 96840, Note_on_c, 0, 84, 0
2, 96840, Note_on_c, 0, 76, 100
2, 96960, Note_on_c, 0, 76, 0
2, 96960, Note_on_c, 0, 77, 100
2, 97200, Note_on_c, 0, 77, 0
2, 97200, Note_on_c, 0, 79, 100
2, 97320, Note_on_c, 0, 79, 0
2, 97320, Note_on_c, 0, 80, 100
2, 97440, Note_on_c, 0, 80, 0
2, 97440, Note_on_c, 0, 82, 100
2, 97560, Note_on_c, 0, 82, 0
2, 97560, Note_on_c, 0, 80, 100
2, 97680, Note_on_c, 0, 80, 0
2, 97680, Note_on_c, 0, 79, 100
2, 97920, Note_on_c, 0, 79, 0
2, 97920, Note_on_c, 0, 82, 100
2, 97980, Note_on_c, 0, 82, 0
2, 97980, Note_on_c, 0, 80, 100
2, 98280, Note_on_c, 0, 80, 0
2, 98280, Note_on_c, 0, 79, 100
2, 98400, Note_on_c, 0, 79, 0
2, 98400, Note_on_c, 0, 80, 100
2, 98640, Note_on_c, 0, 80, 0
2, 98640, Note_on_c, 0, 77, 100
2, 99120, Note_on_c, 0, 77, 0
2, 99120, Note_on_c, 0, 80, 100
2, 99360, Note_on_c, 0, 80, 0
2, 99360, Note_on_c, 0, 75, 100
2, 99600, Note_on_c, 0, 75, 0
2, 99600, Note_on_c, 0, 74, 100
2, 99840, Note_on_c, 0, 74, 0
2, 99840, Note_on_c, 0, 80, 100
2, 100080, Note_on_c, 0, 80, 0
2, 100080, Note_on_c, 0, 72, 100
2, 100320, Note_on_c, 0, 72, 0
2, 100320, Note_on_c, 0, 70, 100
2, 100560, Note_on_c, 0, 70, 0
2, 100560, Note_on_c, 0, 80, 100
2, 100800, Note_on_c, 0, 80, 0
2, 100800, Note_on_c, 0, 80, 100
2, 101040, Note_on_c, 0, 80, 0
2, 101040, Note_on_c, 0, 79, 100
2, 101280, Note_on_c, 0, 79, 0
2, 101280, Note_on_c, 0, 85, 100
2, 101520, Note_on_c, 0, 85, 0
2, 101520, Note_on_c, 0, 85, 100
2, 101760, Note_on_c, 0, 85, 0
2, 101760, Note_on_c, 0, 84, 100
2, 102000, Note_on_c, 0, 84, 0
2, 102000, Note_on_c, 0, 75, 100
2, 102240, Note_on_c, 0, 75, 0
2, 102240, Note_on_c, 0, 74, 100
2, 102360, Note_on_c, 0, 74, 0
2, 102360, Note_on_c, 0, 75, 100
2, 102480, Note_on_c, 0, 75, 0
2, 102480, Note_on_c, 0, 77, 100
2, 102600, Note_on_c, 0, 77, 0
2, 102600, Note_on_c, 0, 79, 100
2, 102720, Note_on_c, 0, 79, 0
2, 102720, Note_on_c, 0, 80, 100
2, 103080, Note_on_c, 0, 80, 0
2, 103080, Note_on_c, 0, 79, 100
2, 103200, Note_on_c, 0, 79, 0
2, 103200, Note_on_c, 0, 77, 100
2, 103320, Note_on_c, 0, 77, 0
2, 103320, Note_on_c, 0, 75, 100
2, 103440, Note_on_c, 0, 75, 0
2, 103440, Note_on_c, 0, 81, 100
2, 103680, Note_on_c, 0, 81, 0
2, 103680, Note_on_c, 0, 81, 100
2, 103920, Note_on_c, 0, 81, 0
2, 103920, Note_on_c, 0, 82, 100
2, 104400, Note_on_c, 0, 82, 0
2, 104400, Note_on_c, 0, 82, 100
2, 104460, Note_on_c, 0, 82, 0
2, 104460, Note_on_c, 0, 81, 100
2, 104520, Note_on_c, 0, 81, 0
2, 104520, Note_on_c, 0, 82, 100
2, 104880, Note_on_c, 0, 82, 0
2, 104880, Note_on_c, 0, 70, 100
2, 105120, Note_on_c, 0, 70, 0
2, 105120, Note_on_c, 0, 77, 100
2, 105360, Note_on_c, 0, 77, 0
2, 105360, Note_on_c, 0, 75, 100
2, 105600, Note_on_c, 0, 75, 0
2, 105600, Note_on_c, 0, 70, 100
2, 105840, Note_on_c, 0, 70, 0
2, 105840, Note_on_c, 0, 79, 100
2, 106080, Note_on_c, 0, 79, 0
2, 106080, Note_on_c, 0, 77, 100
2, 106320, Note_on_c, 0, 77, 0
2, 106320, Note_on_c, 0, 70, 100
2, 106560, Note_on_c, 0, 70, 0
2, 106560, Note_on_c, 0, 80, 100
2, 106800, Note_on_c, 0, 80, 0
2, 106800, Note_on_c, 0, 79, 100
2, 107040, Note_on_c, 0, 79, 0
2, 107040, Note_on_c, 0, 70, 100
2, 107280, Note_on_c, 0, 70, 0
2, 107280, Note_on_c, 0, 82, 100
2, 107520, Note_on_c, 0, 82, 0
2, 107520, Note_on_c, 0, 80, 100
2, 107760, Note_on_c, 0, 80, 0
2, 107760, Note_on_c, 0, 70, 100
2, 108000, Note_on_c, 0, 70, 0
2, 108000, Note_on_c, 0, 82, 100
2, 108120, Note_on_c, 0, 82, 0
2, 108120, Note_on_c, 0, 80, 100
2, 108240, Note_on_c, 0, 80, 0
2, 108240, Note_on_c, 0, 79, 100
2, 108360, Note_on_c, 0, 79, 0
2, 108360, Note_on_c, 0, 80, 100
2, 108480, Note_on_c, 0, 80, 0
2, 108480, Note_on_c, 0, 82, 100
2, 108720, Note_on_c, 0, 82, 0
2, 108720, Note_on_c, 0, 73, 100
2, 108960, Note_on_c, 0, 73, 0
2, 108960, Note_on_c, 0, 72, 100
2, 109200, Note_on_c, 0, 72, 0
2, 109200, Note_on_c, 0, 84, 100
2, 109440, Note_on_c, 0, 84, 0
2, 109440, Note_on_c, 0, 86, 100
2, 109560, Note_on_c, 0, 86, 0
2, 109560, Note_on_c, 0, 84, 100
2, 109680, Note_on_c, 0, 84, 0
2, 109680, Note_on_c, 0, 83, 100
2, 109800, Note_on_c, 0, 83, 0
2, 109800, Note_on_c, 0, 84, 100
2, 109920, Note_on_c, 0, 84, 0
2, 109920, Note_on_c, 0, 86, 100
2, 110160, Note_on_c, 0, 86, 0
2, 110160, Note_on_c, 0, 77, 100
2, 110400, Note_on_c, 0, 77, 0
2, 110400, Note_on_c, 0, 75, 100
2, 110640, Note_on_c, 0, 75, 0
2, 110640, Note_on_c, 0, 87, 100
2, 110880, Note_on_c, 0, 87, 0
2, 110880, Note_on_c, 0, 82, 100
2, 111120, Note_on_c, 0, 82, 0
2, 111120, Note_on_c, 0, 81, 100
2, 111360, Note_on_c, 0, 81, 0
2, 111360, Note_on_c, 0, 84, 100
2, 111600, Note_on_c, 0, 84, 0
2, 111600, Note_on_c, 0, 78, 100
2, 111840, Note_on_c, 0, 78, 0
2, 111840, Note_on_c, 0, 77, 100
2, 112080, Note_on_c, 0, 77, 0
2, 112080, Note_on_c, 0, 84, 100
2, 112320, Note_on_c, 0, 84, 0
2, 112320, Note_on_c, 0, 75, 100
2, 112560, Note_on_c, 0, 75, 0
2, 112560, Note_on_c, 0, 74, 100
2, 112800, Note_on_c, 0, 74, 0
2, 112800, Note_on_c, 0, 80, 100
2, 113040, Note_on_c, 0, 80, 0
2, 113040, Note_on_c, 0, 71, 100
2, 113280, Note_on_c, 0, 71, 0
2, 113280, Note_on_c, 0, 70, 100
2, 113520, Note_on_c, 0, 70, 0
2, 113520, Note_on_c, 0, 77, 100
2, 113580, Note_on_c, 0, 77, 0
2, 113580, Note_on_c, 0, 79, 100
2, 113640, Note_on_c, 0, 79, 0
2, 113640, Note_on_c, 0, 80, 100
2, 113760, Note_on_c, 0, 80, 0
2, 113760, Note_on_c, 0, 79, 100
2, 114120, Note_on_c, 0, 79, 0
2, 114120, Note_on_c, 0, 84, 100
2, 114240, Note_on_c, 0, 84, 0
2, 114240, Note_on_c, 0, 82, 100
2, 114480, Note_on_c, 0, 82, 0
2, 114480, Note_on_c, 0, 80, 100
2, 114520, Note_on_c, 0, 80, 0
2, 114520, Note_on_c, 0, 79, 100
2, 114560, Note_on_c, 0, 79, 0
2, 114560, Note_on_c, 0, 80, 100
2, 114600, Note_on_c, 0, 80, 0
2, 114600, Note_on_c, 0, 79, 100
2, 114840, Note_on_c, 0, 79, 0
2, 114840, Note_on_c, 0, 77, 100
2, 114960, Note_on_c, 0, 77, 0
2, 114960, Note_on_c, 0, 75, 100
2, 115200, Note_on_c, 0, 75, 0
2, 115200, Note_on_c, 0, 75, 100
2, 116400, Note_on_c, 0, 75, 0
2, 116400, Note_on_c, 0, 87, 100
2, 116640, Note_on_c, 0, 87, 0
2, 116640, Note_on_c, 0, 83, 100
2, 116880, Note_on_c, 0, 83, 0
2, 116880, Note_on_c, 0, 84, 100
2, 117120, Note_on_c, 0, 84, 0
2, 117120, Note_on_c, 0, 79, 100
2, 117360, Note_on_c, 0, 79, 0
2, 117360, Note_on_c, 0, 79, 100
2, 117600, Note_on_c, 0, 79, 0
2, 117600, Note_on_c, 0, 80, 100
2, 117840, Note_on_c, 0, 80, 0
2, 117840, Note_on_c, 0, 82, 100
2, 118080, Note_on_c, 0, 82, 0
2, 118080, Note_on_c, 0, 76, 100
2, 118320, Note_on_c, 0, 76, 0
2, 118320, Note_on_c, 0, 77, 100
2, 118560, Note_on_c, 0, 77, 0
2, 118560, Note_on_c, 0, 72, 100
2, 118800, Note_on_c, 0, 72, 0
2, 118800, Note_on_c, 0, 72, 100
2, 119040, Note_on_c, 0, 72, 0
2, 119040, Note_on_c, 0, 73, 100
2, 119280, Note_on_c, 0, 73, 0
2, 119280, Note_on_c, 0, 77, 100
2, 119520, Note_on_c, 0, 77, 0
2, 119520, Note_on_c, 0, 71, 100
2, 119640, Note_on_c, 0, 71, 0
2, 119640, Note_on_c, 0, 72, 100
2, 119760, Note_on_c, 0, 72, 0
2, 119760, Note_on_c, 0, 74, 100
2, 119880, Note_on_c, 0, 74, 0
2, 119880, Note_on_c, 0, 77, 100
2, 120000, Note_on_c, 0, 77, 0
2, 120000, Note_on_c, 0, 75, 100
2, 120120, Note_on_c, 0, 75, 0
2, 120120, Note_on_c, 0, 74, 100
2, 120240, Note_on_c, 0, 74, 0
2, 120240, Note_on_c, 0, 75, 100
2, 120360, Note_on_c, 0, 75, 0
2, 120360, Note_on_c, 0, 80, 100
2, 120480, Note_on_c, 0, 80, 0
2, 120480, Note_on_c, 0, 79, 100
2, 120600, Note_on_c, 0, 79, 0
2, 120600, Note_on_c, 0, 77, 100
2, 120720, Note_on_c, 0, 77, 0
2, 120720, Note_on_c, 0, 75, 100
2, 120840, Note_on_c, 0, 75, 0
2, 120840, Note_on_c, 0, 74, 100
2, 120960, Note_on_c, 0, 74, 0
2, 120960, Note_on_c, 0, 72, 100
2, 121200, Note_on_c, 0, 72, 0
2, 121200, Note_on_c, 0, 71, 100
2, 121320, Note_on_c, 0, 71, 0
2, 121320, Note_on_c, 0, 72, 100
2, 121440, Note_on_c, 0, 72, 0
2, 121440, Note_on_c, 0, 74, 100
2, 121680, Note_on_c, 0, 74, 0
2, 121680, Note_on_c, 0, 67, 100
2, 122160, Note_on_c, 0, 67, 0
2, 122160, Note_on_c, 0, 79, 100
2, 122400, Note_on_c, 0, 79, 0
2, 122400, Note_on_c, 0, 77, 100
2, 122640, Note_on_c, 0, 77, 0
2, 122640, Note_on_c, 0, 75, 100
2, 122880, Note_on_c, 0, 75, 0
2, 122880, Note_on_c, 0, 79, 100
2, 123120, Note_on_c, 0, 79, 0
2, 123120, Note_on_c, 0, 75, 100
2, 123360, Note_on_c, 0, 75, 0
2, 123360, Note_on_c, 0, 74, 100
2, 123600, Note_on_c, 0, 74, 0
2, 123600, Note_on_c, 0, 79, 100
2, 123840, Note_on_c, 0, 79, 0
2, 123840, Note_on_c, 0, 74, 100
2, 124200, Note_on_c, 0, 74, 0
2, 124200, Note_on_c, 0, 71, 100
2, 124320, Note_on_c, 0, 71, 0
2, 124320, Note_on_c, 0, 72, 100
2, 124560, Note_on_c, 0, 72, 0
2, 124560, Note_on_c, 0, 84, 100
2, 125040, Note_on_c, 0, 84, 0
2, 125040, Note_on_c, 0, 79, 100
2, 125280, Note_on_c, 0, 79, 0
2, 125280, Note_on_c, 0, 79, 100
2, 125340, Note_on_c, 0, 79, 0
2, 125340, Note_on_c, 0, 80, 100
2, 125400, Note_on_c, 0, 80, 0
2, 125400, Note_on_c, 0, 82, 100
2, 125460, Note_on_c, 0, 82, 0
2, 125460, Note_on_c, 0, 80, 100
2, 125640, Note_on_c, 0, 80, 0
2, 125640, Note_on_c, 0, 79, 100
2, 125760, Note_on_c, 0, 79, 0
2, 125760, Note_on_c, 0, 77, 100
2, 126000, Note_on_c, 0, 77, 0
2, 126000, Note_on_c, 0, 77, 100
2, 126120, Note_on_c, 0, 77, 0
2, 126120, Note_on_c, 0, 75, 100
2, 126360, Note_on_c, 0, 75, 0
2, 126360, Note_on_c, 0, 77, 100
2, 126480, Note_on_c, 0, 77, 0
2, 126480, Note_on_c, 0, 74, 100
2, 126720, Note_on_c, 0, 74, 0
2, 126720, Note_on_c, 0, 74, 100
2, 126780, Note_on_c, 0, 74, 0
2, 126780, Note_on_c, 0, 75, 100
2, 126840, Note_on_c, 0, 75, 0
2, 126840, Note_on_c, 0, 77, 100
2, 126900, Note_on_c, 0, 77, 0
2, 126900, Note_on_c, 0, 75, 100
2, 127080, Note_on_c, 0, 75, 0
2, 127080, Note_on_c, 0, 74, 100
2, 127200, Note_on_c, 0, 74, 0
2, 127200, Note_on_c, 0, 72, 100
2, 127440, Note_on_c, 0, 72, 0
2, 127440, Note_on_c, 0, 82, 100
2, 127920, Note_on_c, 0, 82, 0
2, 127920, Note_on_c, 0, 84, 100
2, 127980, Note_on_c, 0, 84, 0
2, 127980, Note_on_c, 0, 82, 100
2, 128040, Note_on_c, 0, 82, 0
2, 128040, Note_on_c, 0, 80, 100
2, 128100, Note_on_c, 0, 80, 0
2, 128100, Note_on_c, 0, 79, 100
2, 128160, Note_on_c, 0, 79, 0
2, 128160, Note_on_c, 0, 79, 100
2, 128400, Note_on_c, 0, 79, 0
2, 128400, Note_on_c, 0, 80, 100
2, 128640, Note_on_c, 0, 80, 0
2, 128640, Note_on_c, 0, 76, 100
2, 128880, Note_on_c, 0, 76, 0
2, 128880, Note_on_c, 0, 76, 100
2, 129120, Note_on_c, 0, 76, 0
2, 129120, Note_on_c, 0, 77, 100
2, 129360, Note_on_c, 0, 77, 0
2, 129360, Note_on_c, 0, 72, 100
2, 129600, Note_on_c, 0, 72, 0
2, 129600, Note_on_c, 0, 72, 100
2, 129840, Note_on_c, 0, 72, 0
2, 129840, Note_on_c, 0, 73, 100
2, 130080, Note_on_c, 0, 73, 0
2, 130080, Note_on_c, 0, 69, 100
2, 130320, Note_on_c, 0, 69, 0
2, 130320, Note_on_c, 0, 69, 100
2, 130560, Note_on_c, 0, 69, 0
2, 130560, Note_on_c, 0, 70, 100
2, 130800, Note_on_c, 0, 70, 0
2, 130800, Note_on_c, 0, 77, 100
2, 131040, Note_on_c, 0, 77, 0
2, 131040, Note_on_c, 0, 77, 100
2, 131280, Note_on_c, 0, 77, 0
2, 131280, Note_on_c, 0, 79, 100
2, 131520, Note_on_c, 0, 79, 0
2, 131520, Note_on_c, 0, 74, 100
2, 131760, Note_on_c, 0, 74, 0
2, 131760, Note_on_c, 0, 74, 100
2, 132000, Note_on_c, 0, 74, 0
2, 132000, Note_on_c, 0, 75, 100
2, 132240, Note_on_c, 0, 75, 0
2, 132240, Note_on_c, 0, 71, 100
2, 132480, Note_on_c, 0, 71, 0
2, 132480, Note_on_c, 0, 71, 100
2, 132720, Note_on_c, 0, 71, 0
2, 132720, Note_on_c, 0, 72, 100
2, 132960, Note_on_c, 0, 72, 0
2, 132960, Note_on_c, 0, 67, 100
2, 133200, Note_on_c, 0, 67, 0
2, 133200, Note_on_c, 0, 67, 100
2, 133440, Note_on_c, 0, 67, 0
2, 133440, Note_on_c, 0, 68, 100
2, 133680, Note_on_c, 0, 68, 0
2, 133680, Note_on_c, 0, 76, 100
2, 133920, Note_on_c, 0, 76, 0
2, 133920, Note_on_c, 0, 76, 100
2, 134160, Note_on_c, 0, 76, 0
2, 134160, Note_on_c, 0, 77, 100
2, 134400, Note_on_c, 0, 77, 0
2, 134400, Note_on_c, 0, 72, 100
2, 134640, Note_on_c, 0, 72, 0
2, 134640, Note_on_c, 0, 72, 100
2, 134880, Note_on_c, 0, 72, 0
2, 134880, Note_on_c, 0, 73, 100
2, 135120, Note_on_c, 0, 73, 0
2, 135120, Note_on_c, 0, 79, 100
2, 135360, Note_on_c, 0, 79, 0
2, 135360, Note_on_c, 0, 79, 100
2, 135600, Note_on_c, 0, 79, 0
2, 135600, Note_on_c, 0, 80, 100
2, 135840, Note_on_c, 0, 80, 0
2, 135840, Note_on_c, 0, 72, 100
2, 136080, Note_on_c, 0, 72, 0
2, 136080, Note_on_c, 0, 72, 100
2, 136320, Note_on_c, 0, 72, 0
2, 136320, Note_on_c, 0, 71, 100
2, 136560, Note_on_c, 0, 71, 0
2, 136560, Note_on_c, 0, 77, 100
2, 136620, Note_on_c, 0, 77, 0
2, 136620, Note_on_c, 0, 79, 100
2, 136680, Note_on_c, 0, 79, 0
2, 136680, Note_on_c, 0, 80, 100
2, 136800, Note_on_c, 0, 80, 0
2, 136800, Note_on_c, 0, 79, 100
2, 137160, Note_on_c, 0, 79, 0
2, 137160, Note_on_c, 0, 71, 100
2, 137280, Note_on_c, 0, 71, 0
2, 137280, Note_on_c, 0, 72, 100
2, 137520, Note_on_c, 0, 72, 0
2, 137520, Note_on_c, 0, 74, 100
2, 137640, Note_on_c, 0, 74, 0
2, 137640, Note_on_c, 0, 75, 100
2, 137760, Note_on_c, 0, 75, 0
2, 137760, Note_on_c, 0, 77, 100
2, 137880, Note_on_c, 0, 77, 0
2, 137880, Note_on_c, 0, 75, 100
2, 138000, Note_on_c, 0, 75, 0
2, 138000, Note_on_c, 0, 75, 100
2, 138040, Note_on_c, 0, 75, 0
2, 138040, Note_on_c, 0, 74, 100
2, 138080, Note_on_c, 0, 74, 0
2, 138080, Note_on_c, 0, 75, 100
2, 138120, Note_on_c, 0, 75, 0
2, 138120, Note_on_c, 0, 74, 100
2, 138240, Note_on_c, 0, 74, 0
2, 138240, Note_on_c, 0, 74, 100
2, 138480, Note_on_c, 0, 74, 0
2, 138480, Note_on_c, 0, 72, 100
2, 139440, Note_on_c, 0, 72, 0
2, 139440, End_track
3, 0, Start_track
3, 0, MIDI_port, 0
3, 0, Title_t, "--------------------------------------"
3, 0, Program_c, 1, 24
3, 0, Control_c, 1, 7, 100
3, 0, Control_c, 1, 10, 59
3, 1440, Note_on_c, 1, 48, 100
3, 1920, Note_on_c, 1, 48, 0
3, 2160, Note_on_c, 1, 46, 100
3, 2640, Note_on_c, 1, 46, 0
3, 2880, Note_on_c, 1, 44, 100
3, 3360, Note_on_c, 1, 44, 0
3, 3600, Note_on_c, 1, 39, 100
3, 4080, Note_on_c, 1, 39, 0
3, 4320, Note_on_c, 1, 41, 100
3, 4800, Note_on_c, 1, 41, 0
3, 5040, Note_on_c, 1, 43, 100
3, 5520, Note_on_c, 1, 43, 0
3, 5760, Note_on_c, 1, 36, 100
3, 6240, Note_on_c, 1, 36, 0
3, 6240, Note_on_c, 1, 38, 100
3, 6480, Note_on_c, 1, 38, 0
3, 6480, Note_on_c, 1, 39, 100
3, 6720, Note_on_c, 1, 39, 0
3, 6720, Note_on_c, 1, 38, 100
3, 6960, Note_on_c, 1, 38, 0
3, 6960, Note_on_c, 1, 36, 100
3, 7200, Note_on_c, 1, 36, 0
3, 7200, Note_on_c, 1, 43, 100
3, 7680, Note_on_c, 1, 43, 0
3, 7920, Note_on_c, 1, 45, 100
3, 8400, Note_on_c, 1, 45, 0
3, 8640, Note_on_c, 1, 47, 100
3, 9120, Note_on_c, 1, 47, 0
3, 9360, Note_on_c, 1, 48, 100
3, 9840, Note_on_c, 1, 48, 0
3, 10080, Note_on_c, 1, 44, 100
3, 10560, Note_on_c, 1, 44, 0
3, 10800, Note_on_c, 1, 41, 100
3, 11280, Note_on_c, 1, 41, 0
3, 11520, Note_on_c, 1, 43, 100
3, 11880, Note_on_c, 1, 43, 0
3, 11880, Note_on_c, 1, 47, 100
3, 12000, Note_on_c, 1, 47, 0
3, 12000, Note_on_c, 1, 50, 100
3, 12240, Note_on_c, 1, 50, 0
3, 12240, Note_on_c, 1, 55, 100
3, 12600, Note_on_c, 1, 55, 0
3, 12600, Note_on_c, 1, 57, 100
3, 12720, Note_on_c, 1, 57, 0
3, 12720, Note_on_c, 1, 59, 100
3, 12960, Note_on_c, 1, 59, 0
3, 12960, Note_on_c, 1, 48, 100
3, 13440, Note_on_c, 1, 48, 0
3, 13440, Note_on_c, 1, 50, 100
3, 13680, Note_on_c, 1, 50, 0
3, 13680, Note_on_c, 1, 51, 100
3, 14160, Note_on_c, 1, 51, 0
3, 14160, Note_on_c, 1, 52, 100
3, 14400, Note_on_c, 1, 52, 0
3, 14400, Note_on_c, 1, 53, 100
3, 14880, Note_on_c, 1, 53, 0
3, 14880, Note_on_c, 1, 55, 100
3, 15120, Note_on_c, 1, 55, 0
3, 15120, Note_on_c, 1, 56, 100
3, 15600, Note_on_c, 1, 56, 0
3, 15600, Note_on_c, 1, 57, 100
3, 15840, Note_on_c, 1, 57, 0
3, 15840, Note_on_c, 1, 46, 100
3, 16320, Note_on_c, 1, 46, 0
3, 16320, Note_on_c, 1, 48, 100
3, 16560, Note_on_c, 1, 48, 0
3, 16560, Note_on_c, 1, 50, 100
3, 17040, Note_on_c, 1, 50, 0
3, 17040, Note_on_c, 1, 48, 100
3, 17280, Note_on_c, 1, 48, 0
3, 17280, Note_on_c, 1, 46, 100
3, 17760, Note_on_c, 1, 46, 0
3, 17760, Note_on_c, 1, 44, 100
3, 18000, Note_on_c, 1, 44, 0
3, 18000, Note_on_c, 1, 43, 100
3, 18480, Note_on_c, 1, 43, 0
3, 18480, Note_on_c, 1, 41, 100
3, 18720, Note_on_c, 1, 41, 0
3, 18720, Note_on_c, 1, 39, 100
3, 19200, Note_on_c, 1, 39, 0
3, 19440, Note_on_c, 1, 47, 100
3, 19920, Note_on_c, 1, 47, 0
3, 20160, Note_on_c, 1, 48, 100
3, 20640, Note_on_c, 1, 48, 0
3, 20880, Note_on_c, 1, 45, 100
3, 21360, Note_on_c, 1, 45, 0
3, 21600, Note_on_c, 1, 46, 100
3, 22080, Note_on_c, 1, 46, 0
3, 22080, Note_on_c, 1, 43, 100
3, 22320, Note_on_c, 1, 43, 0
3, 22320, Note_on_c, 1, 50, 100
3, 22800, Note_on_c, 1, 50, 0
3, 22800, Note_on_c, 1, 38, 100
3, 23040, Note_on_c, 1, 38, 0
3, 23040, Note_on_c, 1, 43, 100
3, 23400, Note_on_c, 1, 43, 0
3, 23400, Note_on_c, 1, 47, 100
3, 23520, Note_on_c, 1, 47, 0
3, 23520, Note_on_c, 1, 50, 100
3, 23760, Note_on_c, 1, 50, 0
3, 23760, Note_on_c, 1, 55, 100
3, 24240, Note_on_c, 1, 55, 0
3, 24480, Note_on_c, 1, 48, 100
3, 24960, Note_on_c, 1, 48, 0
3, 25200, Note_on_c, 1, 46, 100
3, 25680, Note_on_c, 1, 46, 0
3, 25920, Note_on_c, 1, 44, 100
3, 26400, Note_on_c, 1, 44, 0
3, 26640, Note_on_c, 1, 39, 100
3, 27120, Note_on_c, 1, 39, 0
3, 27360, Note_on_c, 1, 41, 100
3, 27840, Note_on_c, 1, 41, 0
3, 28080, Note_on_c, 1, 43, 100
3, 28560, Note_on_c, 1, 43, 0
3, 28800, Note_on_c, 1, 36, 100
3, 29280, Note_on_c, 1, 36, 0
3, 29280, Note_on_c, 1, 38, 100
3, 29520, Note_on_c, 1, 38, 0
3, 29520, Note_on_c, 1, 39, 100
3, 29760, Note_on_c, 1, 39, 0
3, 29760, Note_on_c, 1, 38, 100
3, 30000, Note_on_c, 1, 38, 0
3, 30000, Note_on_c, 1, 36, 100
3, 30240, Note_on_c, 1, 36, 0
3, 30240, Note_on_c, 1, 43, 100
3, 30720, Note_on_c, 1, 43, 0
3, 30960, Note_on_c, 1, 45, 100
3, 31440, Note_on_c, 1, 45, 0
3, 31680, Note_on_c, 1, 47, 100
3, 32160, Note_on_c, 1, 47, 0
3, 32400, Note_on_c, 1, 48, 100
3, 32880, Note_on_c, 1, 48, 0
3, 33120, Note_on_c, 1, 44, 100
3, 33600, Note_on_c, 1, 44, 0
3, 33840, Note_on_c, 1, 41, 100
3, 34320, Note_on_c, 1, 41, 0
3, 34560, Note_on_c, 1, 43, 100
3, 34920, Note_on_c, 1, 43, 0
3, 34920, Note_on_c, 1, 47, 100
3, 35040, Note_on_c, 1, 47, 0
3, 35040, Note_on_c, 1, 50, 100
3, 35280, Note_on_c, 1, 50, 0
3, 35280, Note_on_c, 1, 55, 100
3, 35640, Note_on_c, 1, 55, 0
3, 35640, Note_on_c, 1, 57, 100
3, 35760, Note_on_c, 1, 57, 0
3, 35760, Note_on_c, 1, 59, 100
3, 36000, Note_on_c, 1, 59, 0
3, 36000, Note_on_c, 1, 48, 100
3, 36480, Note_on_c, 1, 48, 0
3, 36480, Note_on_c, 1, 50, 100
3, 36720, Note_on_c, 1, 50, 0
3, 36720, Note_on_c, 1, 51, 100
3, 37200, Note_on_c, 1, 51, 0
3, 37200, Note_on_c, 1, 52, 100
3, 37440, Note_on_c, 1, 52, 0
3, 37440, Note_on_c, 1, 53, 100
3, 37920, Note_on_c, 1, 53, 0
3, 37920, Note_on_c, 1, 55, 100
3, 38160, Note_on_c, 1, 55, 0
3, 38160, Note_on_c, 1, 56, 100
3, 38640, Note_on_c, 1, 56, 0
3, 38640, Note_on_c, 1, 57, 100
3, 38880, Note_on_c, 1, 57, 0
3, 38880, Note_on_c, 1, 46, 100
3, 39360, Note_on_c, 1, 46, 0
3, 39360, Note_on_c, 1, 48, 100
3, 39600, Note_on_c, 1, 48, 0
3, 39600, Note_on_c, 1, 50, 100
3, 40080, Note_on_c, 1, 50, 0
3, 40080, Note_on_c, 1, 48, 100
3, 40320, Note_on_c, 1, 48, 0
3, 40320, Note_on_c, 1, 46, 100
3, 40800, Note_on_c, 1, 46, 0
3, 40800, Note_on_c, 1, 44, 100
3, 41040, Note_on_c, 1, 44, 0
3, 41040, Note_on_c, 1, 43, 100
3, 41520, Note_on_c, 1, 43, 0
3, 41520, Note_on_c, 1, 41, 100
3, 41760, Note_on_c, 1, 41, 0
3, 41760, Note_on_c, 1, 39, 100
3, 42240, Note_on_c, 1, 39, 0
3, 42480, Note_on_c, 1, 47, 100
3, 42960, Note_on_c, 1, 47, 0
3, 43200, Note_on_c, 1, 48, 100
3, 43680, Note_on_c, 1, 48, 0
3, 43920, Note_on_c, 1, 45, 100
3, 44400, Note_on_c, 1, 45, 0
3, 44640, Note_on_c, 1, 46, 100
3, 45120, Note_on_c, 1, 46, 0
3, 45120, Note_on_c, 1, 43, 100
3, 45360, Note_on_c, 1, 43, 0
3, 45360, Note_on_c, 1, 50, 100
3, 45840, Note_on_c, 1, 50, 0
3, 45840, Note_on_c, 1, 38, 100
3, 46080, Note_on_c, 1, 38, 0
3, 46080, Note_on_c, 1, 43, 100
3, 46440, Note_on_c, 1, 43, 0
3, 46440, Note_on_c, 1, 47, 100
3, 46560, Note_on_c, 1, 47, 0
3, 46560, Note_on_c, 1, 50, 100
3, 46800, Note_on_c, 1, 50, 0
3, 46800, Note_on_c, 1, 55, 100
3, 47280, Note_on_c, 1, 55, 0
3, 47520, Note_on_c, 1, 43, 100
3, 48000, Note_on_c, 1, 43, 0
3, 48240, Note_on_c, 1, 47, 100
3, 48720, Note_on_c, 1, 47, 0
3, 48960, Note_on_c, 1, 48, 100
3, 49440, Note_on_c, 1, 48, 0
3, 49680, Note_on_c, 1, 52, 100
3, 50160, Note_on_c, 1, 52, 0
3, 50400, Note_on_c, 1, 53, 100
3, 50880, Note_on_c, 1, 53, 0
3, 50880, Note_on_c, 1, 49, 100
3, 51120, Note_on_c, 1, 49, 0
3, 51120, Note_on_c, 1, 46, 100
3, 51600, Note_on_c, 1, 46, 0
3, 51600, Note_on_c, 1, 48, 100
3, 51840, Note_on_c, 1, 48, 0
3, 51840, Note_on_c, 1, 41, 100
3, 52320, Note_on_c, 1, 41, 0
3, 52320, Note_on_c, 1, 43, 100
3, 52560, Note_on_c, 1, 43, 0
3, 52560, Note_on_c, 1, 44, 100
3, 52800, Note_on_c, 1, 44, 0
3, 52800, Note_on_c, 1, 43, 100
3, 53040, Note_on_c, 1, 43, 0
3, 53040, Note_on_c, 1, 41, 100
3, 53280, Note_on_c, 1, 41, 0
3, 53280, Note_on_c, 1, 46, 100
3, 53760, Note_on_c, 1, 46, 0
3, 54000, Note_on_c, 1, 50, 100
3, 54480, Note_on_c, 1, 50, 0
3, 54720, Note_on_c, 1, 51, 100
3, 55200, Note_on_c, 1, 51, 0
3, 55440, Note_on_c, 1, 56, 100
3, 55920, Note_on_c, 1, 56, 0
3, 55920, Note_on_c, 1, 55, 100
3, 56160, Note_on_c, 1, 55, 0
3, 56160, Note_on_c, 1, 53, 100
3, 56640, Note_on_c, 1, 53, 0
3, 56640, Note_on_c, 1, 50, 100
3, 56880, Note_on_c, 1, 50, 0
3, 56880, Note_on_c, 1, 51, 100
3, 57360, Note_on_c, 1, 51, 0
3, 57360, Note_on_c, 1, 48, 100
3, 57600, Note_on_c, 1, 48, 0
3, 57600, Note_on_c, 1, 46, 100
3, 57840, Note_on_c, 1, 46, 0
3, 57840, Note_on_c, 1, 50, 100
3, 58080, Note_on_c, 1, 50, 0
3, 58080, Note_on_c, 1, 53, 100
3, 58320, Note_on_c, 1, 53, 0
3, 58320, Note_on_c, 1, 56, 100
3, 58560, Note_on_c, 1, 56, 0
3, 58560, Note_on_c, 1, 55, 100
3, 58800, Note_on_c, 1, 55, 0
3, 58800, Note_on_c, 1, 56, 100
3, 59040, Note_on_c, 1, 56, 0
3, 59040, Note_on_c, 1, 55, 100
3, 59520, Note_on_c, 1, 55, 0
3, 59760, Note_on_c, 1, 50, 100
3, 60240, Note_on_c, 1, 50, 0
3, 60480, Note_on_c, 1, 51, 100
3, 60960, Note_on_c, 1, 51, 0
3, 61200, Note_on_c, 1, 53, 100
3, 61680, Note_on_c, 1, 53, 0
3, 61920, Note_on_c, 1, 55, 100
3, 62400, Note_on_c, 1, 55, 0
3, 62640, Note_on_c, 1, 56, 100
3, 63120, Note_on_c, 1, 56, 0
3, 63360, Note_on_c, 1, 47, 100
3, 63840, Note_on_c, 1, 47, 0
3, 64080, Note_on_c, 1, 48, 100
3, 64560, Note_on_c, 1, 48, 0
3, 64800, Note_on_c, 1, 41, 100
3, 65280, Note_on_c, 1, 41, 0
3, 65520, Note_on_c, 1, 45, 100
3, 66000, Note_on_c, 1, 45, 0
3, 66240, Note_on_c, 1, 46, 100
3, 66720, Note_on_c, 1, 46, 0
3, 66960, Note_on_c, 1, 50, 100
3, 67440, Note_on_c, 1, 50, 0
3, 67680, Note_on_c, 1, 51, 100
3, 68160, Note_on_c, 1, 51, 0
3, 68160, Note_on_c, 1, 55, 100
3, 68400, Note_on_c, 1, 55, 0
3, 68400, Note_on_c, 1, 58, 100
3, 68880, Note_on_c, 1, 58, 0
3, 68880, Note_on_c, 1, 46, 100
3, 69120, Note_on_c, 1, 46, 0
3, 69120, Note_on_c, 1, 51, 100
3, 69480, Note_on_c, 1, 51, 0
3, 69480, Note_on_c, 1, 55, 100
3, 69600, Note_on_c, 1, 55, 0
3, 69600, Note_on_c, 1, 53, 100
3, 69840, Note_on_c, 1, 53, 0
3, 69840, Note_on_c, 1, 51, 100
3, 70080, Note_on_c, 1, 51, 0
3, 70080, Note_on_c, 1, 50, 100
3, 70320, Note_on_c, 1, 50, 0
3, 70320, Note_on_c, 1, 48, 100
3, 70560, Note_on_c, 1, 48, 0
3, 70560, Note_on_c, 1, 50, 100
3, 71040, Note_on_c, 1, 50, 0
3, 71040, Note_on_c, 1, 52, 100
3, 71280, Note_on_c, 1, 52, 0
3, 71280, Note_on_c, 1, 53, 100
3, 71760, Note_on_c, 1, 53, 0
3, 71760, Note_on_c, 1, 55, 100
3, 72000, Note_on_c, 1, 55, 0
3, 72000, Note_on_c, 1, 56, 100
3, 72480, Note_on_c, 1, 56, 0
3, 72480, Note_on_c, 1, 55, 100
3, 72720, Note_on_c, 1, 55, 0
3, 72720, Note_on_c, 1, 53, 100
3, 73200, Note_on_c, 1, 53, 0
3, 73200, Note_on_c, 1, 51, 100
3, 73440, Note_on_c, 1, 51, 0
3, 73440, Note_on_c, 1, 50, 100
3, 73920, Note_on_c, 1, 50, 0
3, 73920, Note_on_c, 1, 43, 100
3, 74160, Note_on_c, 1, 43, 0
3, 74160, Note_on_c, 1, 48, 100
3, 74640, Note_on_c, 1, 48, 0
3, 74640, Note_on_c, 1, 44, 100
3, 74880, Note_on_c, 1, 44, 0
3, 74880, Note_on_c, 1, 43, 100
3, 75960, Note_on_c, 1, 43, 0
3, 75960, Note_on_c, 1, 45, 100
3, 76080, Note_on_c, 1, 45, 0
3, 76080, Note_on_c, 1, 47, 100
3, 76320, Note_on_c, 1, 47, 0
3, 76320, Note_on_c, 1, 48, 100
3, 76800, Note_on_c, 1, 48, 0
3, 77040, Note_on_c, 1, 46, 100
3, 77520, Note_on_c, 1, 46, 0
3, 77760, Note_on_c, 1, 44, 100
3, 78240, Note_on_c, 1, 44, 0
3, 78480, Note_on_c, 1, 39, 100
3, 78960, Note_on_c, 1, 39, 0
3, 79200, Note_on_c, 1, 41, 100
3, 79680, Note_on_c, 1, 41, 0
3, 79920, Note_on_c, 1, 43, 100
3, 80400, Note_on_c, 1, 43, 0
3, 80640, Note_on_c, 1, 48, 100
3, 81120, Note_on_c, 1, 48, 0
3, 81120, Note_on_c, 1, 50, 100
3, 81360, Note_on_c, 1, 50, 0
3, 81360, Note_on_c, 1, 52, 100
3, 81840, Note_on_c, 1, 52, 0
3, 81840, Note_on_c, 1, 48, 100
3, 82080, Note_on_c, 1, 48, 0
3, 82080, Note_on_c, 1, 41, 100
3, 82560, Note_on_c, 1, 41, 0
3, 82560, Note_on_c, 1, 43, 100
3, 82800, Note_on_c, 1, 43, 0
3, 82800, Note_on_c, 1, 44, 100
3, 83280, Note_on_c, 1, 44, 0
3, 83280, Note_on_c, 1, 45, 100
3, 83520, Note_on_c, 1, 45, 0
3, 83520, Note_on_c, 1, 46, 100
3, 84000, Note_on_c, 1, 46, 0
3, 84000, Note_on_c, 1, 48, 100
3, 84240, Note_on_c, 1, 48, 0
3, 84240, Note_on_c, 1, 49, 100
3, 84720, Note_on_c, 1, 49, 0
3, 84720, Note_on_c, 1, 50, 100
3, 84960, Note_on_c, 1, 50, 0
3, 84960, Note_on_c, 1, 51, 100
3, 85440, Note_on_c, 1, 51, 0
3, 85440, Note_on_c, 1, 53, 100
3, 85680, Note_on_c, 1, 53, 0
3, 85680, Note_on_c, 1, 55, 100
3, 86160, Note_on_c, 1, 55, 0
3, 86160, Note_on_c, 1, 53, 100
3, 86400, Note_on_c, 1, 53, 0
3, 86400, Note_on_c, 1, 51, 100
3, 86880, Note_on_c, 1, 51, 0
3, 86880, Note_on_c, 1, 49, 100
3, 87120, Note_on_c, 1, 49, 0
3, 87120, Note_on_c, 1, 48, 100
3, 87600, Note_on_c, 1, 48, 0
3, 87600, Note_on_c, 1, 46, 100
3, 87840, Note_on_c, 1, 46, 0
3, 87840, Note_on_c, 1, 44, 100
3, 88320, Note_on_c, 1, 44, 0
3, 88560, Note_on_c, 1, 52, 100
3, 89040, Note_on_c, 1, 52, 0
3, 89280, Note_on_c, 1, 53, 100
3, 89760, Note_on_c, 1, 53, 0
3, 90000, Note_on_c, 1, 50, 100
3, 90480, Note_on_c, 1, 50, 0
3, 90720, Note_on_c, 1, 51, 100
3, 91200, Note_on_c, 1, 51, 0
3, 91200, Note_on_c, 1, 48, 100
3, 91440, Note_on_c, 1, 48, 0
3, 91440, Note_on_c, 1, 55, 100
3, 91920, Note_on_c, 1, 55, 0
3, 91920, Note_on_c, 1, 43, 100
3, 92160, Note_on_c, 1, 43, 0
3, 92160, Note_on_c, 1, 48, 100
3, 92520, Note_on_c, 1, 48, 0
3, 92520, Note_on_c, 1, 39, 100
3, 92640, Note_on_c, 1, 39, 0
3, 92640, Note_on_c, 1, 43, 100
3, 92880, Note_on_c, 1, 43, 0
3, 92880, Note_on_c, 1, 36, 100
3, 93360, Note_on_c, 1, 36, 0
3, 93600, Note_on_c, 1, 43, 100
3, 94080, Note_on_c, 1, 43, 0
3, 94320, Note_on_c, 1, 47, 100
3, 94800, Note_on_c, 1, 47, 0
3, 95040, Note_on_c, 1, 48, 100
3, 95520, Note_on_c, 1, 48, 0
3, 95760, Note_on_c, 1, 52, 100
3, 96240, Note_on_c, 1, 52, 0
3, 96480, Note_on_c, 1, 53, 100
3, 96960, Note_on_c, 1, 53, 0
3, 96960, Note_on_c, 1, 49, 100
3, 97200, Note_on_c, 1, 49, 0
3, 97200, Note_on_c, 1, 46, 100
3, 97680, Note_on_c, 1, 46, 0
3, 97680, Note_on_c, 1, 48, 100
3, 97920, Note_on_c, 1, 48, 0
3, 97920, Note_on_c, 1, 41, 100
3, 98400, Note_on_c, 1, 41, 0
3, 98400, Note_on_c, 1, 43, 100
3, 98640, Note_on_c, 1, 43, 0
3, 98640, Note_on_c, 1, 44, 100
3, 98880, Note_on_c, 1, 44, 0
3, 98880, Note_on_c, 1, 43, 100
3, 99120, Note_on_c, 1, 43, 0
3, 99120, Note_on_c, 1, 41, 100
3, 99360, Note_on_c, 1, 41, 0
3, 99360, Note_on_c, 1, 46, 100
3, 99840, Note_on_c, 1, 46, 0
3, 100080, Note_on_c, 1, 50, 100
3, 100560, Note_on_c, 1, 50, 0
3, 100800, Note_on_c, 1, 51, 100
3, 101280, Note_on_c, 1, 51, 0
3, 101520, Note_on_c, 1, 56, 100
3, 102000, Note_on_c, 1, 56, 0
3, 102000, Note_on_c, 1, 55, 100
3, 102240, Note_on_c, 1, 55, 0
3, 102240, Note_on_c, 1, 53, 100
3, 102720, Note_on_c, 1, 53, 0
3, 102720, Note_on_c, 1, 50, 100
3, 102960, Note_on_c, 1, 50, 0
3, 102960, Note_on_c, 1, 51, 100
3, 103440, Note_on_c, 1, 51, 0
3, 103440, Note_on_c, 1, 48, 100
3, 103680, Note_on_c, 1, 48, 0
3, 103680, Note_on_c, 1, 46, 100
3, 103920, Note_on_c, 1, 46, 0
3, 103920, Note_on_c, 1, 50, 100
3, 104160, Note_on_c, 1, 50, 0
3, 104160, Note_on_c, 1, 53, 100
3, 104400, Note_on_c, 1, 53, 0
3, 104400, Note_on_c, 1, 56, 100
3, 104640, Note_on_c, 1, 56, 0
3, 104640, Note_on_c, 1, 55, 100
3, 104880, Note_on_c, 1, 55, 0
3, 104880, Note_on_c, 1, 56, 100
3, 105120, Note_on_c, 1, 56, 0
3, 105120, Note_on_c, 1, 55, 100
3, 105600, Note_on_c, 1, 55, 0
3, 105840, Note_on_c, 1, 50, 100
3, 106320, Note_on_c, 1, 50, 0
3, 106560, Note_on_c, 1, 51, 100
3, 107040, Note_on_c, 1, 51, 0
3, 107280, Note_on_c, 1, 53, 100
3, 107760, Note_on_c, 1, 53, 0
3, 108000, Note_on_c, 1, 55, 100
3, 108480, Note_on_c, 1, 55, 0
3, 108720, Note_on_c, 1, 56, 100
3, 109200, Note_on_c, 1, 56, 0
3, 109440, Note_on_c, 1, 47, 100
3, 109920, Note_on_c, 1, 47, 0
3, 110160, Note_on_c, 1, 48, 100
3, 110640, Note_on_c, 1, 48, 0
3, 110880, Note_on_c, 1, 41, 100
3, 111360, Note_on_c, 1, 41, 0
3, 111600, Note_on_c, 1, 45, 100
3, 112080, Note_on_c, 1, 45, 0
3, 112320, Note_on_c, 1, 46, 100
3, 112800, Note_on_c, 1, 46, 0
3, 113040, Note_on_c, 1, 50, 100
3, 113520, Note_on_c, 1, 50, 0
3, 113760, Note_on_c, 1, 51, 100
3, 114240, Note_on_c, 1, 51, 0
3, 114240, Note_on_c, 1, 55, 100
3, 114480, Note_on_c, 1, 55, 0
3, 114480, Note_on_c, 1, 58, 100
3, 114960, Note_on_c, 1, 58, 0
3, 114960, Note_on_c, 1, 46, 100
3, 115200, Note_on_c, 1, 46, 0
3, 115200, Note_on_c, 1, 51, 100
3, 115560, Note_on_c, 1, 51, 0
3, 115560, Note_on_c, 1, 55, 100
3, 115680, Note_on_c, 1, 55, 0
3, 115680, Note_on_c, 1, 53, 100
3, 115920, Note_on_c, 1, 53, 0
3, 115920, Note_on_c, 1, 51, 100
3, 116160, Note_on_c, 1, 51, 0
3, 116160, Note_on_c, 1, 50, 100
3, 116400, Note_on_c, 1, 50, 0
3, 116400, Note_on_c, 1, 48, 100
3, 116640, Note_on_c, 1, 48, 0
3, 116640, Note_on_c, 1, 50, 100
3, 117120, Note_on_c, 1, 50, 0
3, 117120, Note_on_c, 1, 52, 100
3, 117360, Note_on_c, 1, 52, 0
3, 117360, Note_on_c, 1, 53, 100
3, 117840, Note_on_c, 1, 53, 0
3, 117840, Note_on_c, 1, 55, 100
3, 118080, Note_on_c, 1, 55, 0
3, 118080, Note_on_c, 1, 56, 100
3, 118560, Note_on_c, 1, 56, 0
3, 118560, Note_on_c, 1, 55, 100
3, 118800, Note_on_c, 1, 55, 0
3, 118800, Note_on_c, 1, 53, 100
3, 119280, Note_on_c, 1, 53, 0
3, 119280, Note_on_c, 1, 51, 100
3, 119520, Note_on_c, 1, 51, 0
3, 119520, Note_on_c, 1, 50, 100
3, 120000, Note_on_c, 1, 50, 0
3, 120000, Note_on_c, 1, 43, 100
3, 120240, Note_on_c, 1, 43, 0
3, 120240, Note_on_c, 1, 48, 100
3, 120720, Note_on_c, 1, 48, 0
3, 120720, Note_on_c, 1, 44, 100
3, 120960, Note_on_c, 1, 44, 0
3, 120960, Note_on_c, 1, 43, 100
3, 122040, Note_on_c, 1, 43, 0
3, 122040, Note_on_c, 1, 45, 100
3, 122160, Note_on_c, 1, 45, 0
3, 122160, Note_on_c, 1, 47, 100
3, 122400, Note_on_c, 1, 47, 0
3, 122400, Note_on_c, 1, 48, 100
3, 122880, Note_on_c, 1, 48, 0
3, 123120, Note_on_c, 1, 46, 100
3, 123600, Note_on_c, 1, 46, 0
3, 123840, Note_on_c, 1, 44, 100
3, 124320, Note_on_c, 1, 44, 0
3, 124560, Note_on_c, 1, 39, 100
3, 125040, Note_on_c, 1, 39, 0
3, 125280, Note_on_c, 1, 41, 100
3, 125760, Note_on_c, 1, 41, 0
3, 126000, Note_on_c, 1, 43, 100
3, 126480, Note_on_c, 1, 43, 0
3, 126720, Note_on_c, 1, 48, 100
3, 127200, Note_on_c, 1, 48, 0
3, 127200, Note_on_c, 1, 50, 100
3, 127440, Note_on_c, 1, 50, 0
3, 127440, Note_on_c, 1, 52, 100
3, 127920, Note_on_c, 1, 52, 0
3, 127920, Note_on_c, 1, 48, 100
3, 128160, Note_on_c, 1, 48, 0
3, 128160, Note_on_c, 1, 41, 100
3, 128640, Note_on_c, 1, 41, 0
3, 128640, Note_on_c, 1, 43, 100
3, 128880, Note_on_c, 1, 43, 0
3, 128880, Note_on_c, 1, 44, 100
3, 129360, Note_on_c, 1, 44, 0
3, 129360, Note_on_c, 1, 45, 100
3, 129600, Note_on_c, 1, 45, 0
3, 129600, Note_on_c, 1, 46, 100
3, 130080, Note_on_c, 1, 46, 0
3, 130080, Note_on_c, 1, 48, 100
3, 130320, Note_on_c, 1, 48, 0
3, 130320, Note_on_c, 1, 49, 100
3, 130800, Note_on_c, 1, 49, 0
3, 130800, Note_on_c, 1, 50, 100
3, 131040, Note_on_c, 1, 50, 0
3, 131040, Note_on_c, 1, 51, 100
3, 131520, Note_on_c, 1, 51, 0
3, 131520, Note_on_c, 1, 53, 100
3, 131760, Note_on_c, 1, 53, 0
3, 131760, Note_on_c, 1, 55, 100
3, 132240, Note_on_c, 1, 55, 0
3, 132240, Note_on_c, 1, 53, 100
3, 132480, Note_on_c, 1, 53, 0
3, 132480, Note_on_c, 1, 51, 100
3, 132960, Note_on_c, 1, 51, 0
3, 132960, Note_on_c, 1, 49, 100
3, 133200, Note_on_c, 1, 49, 0
3, 133200, Note_on_c, 1, 48, 100
3, 133680, Note_on_c, 1, 48, 0
3, 133680, Note_on_c, 1, 46, 100
3, 133920, Note_on_c, 1, 46, 0
3, 133920, Note_on_c, 1, 44, 100
3, 134400, Note_on_c, 1, 44, 0
3, 134640, Note_on_c, 1, 52, 100
3, 135120, Note_on_c, 1, 52, 0
3, 135360, Note_on_c, 1, 53, 100
3, 135840, Note_on_c, 1, 53, 0
3, 136080, Note_on_c, 1, 50, 100
3, 136560, Note_on_c, 1, 50, 0
3, 136800, Note_on_c, 1, 51, 100
3, 137280, Note_on_c, 1, 51, 0
3, 137280, Note_on_c, 1, 48, 100
3, 137520, Note_on_c, 1, 48, 0
3, 137520, Note_on_c, 1, 55, 100
3, 138000, Note_on_c, 1, 55, 0
3, 138000, Note_on_c, 1, 43, 100
3, 138240, Note_on_c, 1, 43, 0
3, 138240, Note_on_c, 1, 48, 100
3, 138600, Note_on_c, 1, 48, 0
3, 138600, Note_on_c, 1, 39, 100
3, 138720, Note_on_c, 1, 39, 0
3, 138720, Note_on_c, 1, 43, 100
3, 138960, Note_on_c, 1, 43, 0
3, 138960, Note_on_c, 1, 36, 100
3, 139440, Note_on_c, 1, 36, 0
3, 139440, End_track
4, 0, Start_track
4, 0, MIDI_port, 0
4, 0, Title_t, "Johann Sebastian Bach  (1685-1750)"
4, 0, End_track
5, 0, Start_track
5, 0, MIDI_port, 0
5, 0, Title_t, "Partita in C minor - BWV 997"
5, 0, End_track
6, 0, Start_track
6, 0, MIDI_port, 0
6, 0, Title_t, "for Lute or Keyboard"
6, 0, End_track
7, 0, Start_track
7, 0, MIDI_port, 0
7, 0, Title_t, "--------------------------------------"
7, 0, End_track
8, 0, Start_track
8, 0, MIDI_port, 0
8, 0, Title_t, "4th Movement: Gigue"
8, 0, End_track
9, 0, Start_track
9, 0, MIDI_port, 0
9, 0, Title_t, "--------------------------------------"
9, 0, End_track
10, 0, Start_track
10, 0, MIDI_port, 0
10, 0, Title_t, "Sequenced with Cakewalk Pro Audio by"
10, 0, End_track
11, 0, Start_track
11, 0, MIDI_port, 0
11, 0, Title_t, "David J. Grossman - dave@unpronounceable.com"
11, 0, End_track
12, 0, Start_track
12, 0, MIDI_port, 0
12, 0, Title_t, "This and other Bach MIDI files can be found at:"
12, 0, End_track
13, 0, Start_track
13, 0, MIDI_port, 0
13, 0, Title_t, "Dave's J.S. Bach Page"
13, 0, End_track
14, 0, Start_track
14, 0, MIDI_port, 0
14, 0, Title_t, "http://www.unpronounceable.com/bach"
14, 0, End_track
15, 0, Start_track
15, 0, MIDI_port, 0
15, 0, Title_t, "--------------------------------------"
15, 0, End_track
16, 0, Start_track
16, 0, MIDI_port, 0
16, 0, Title_t, "Original Filename: 997-4gig.mid"
16, 0, End_track
17, 0, Start_track
17, 0, MIDI_port, 0
17, 0, Title_t, "Last Modified: March 29, 1997"
17, 0, End_track
0, 0, End_of_file
