0, 0, Header, 1, 17, 480
1, 0, Start_track
1, 0, Title_t, "untitled"
1, 0, Copyright_t, "Copyright © 1997 by David J. Grossman"
1, 0, Text_t, "David J. Grossman"
1, 0, SMPTE_offset, 96, 0, 3, 0, 0
1, 0, Time_signature, 6, 3, 12, 8
1, 0, Key_signature, -3, "major"
1, 0, Tempo, 600000
1, 1440, Marker_t, "$"
1, 56640, Marker_t, "*"
1, 68640, Marker_t, "*"
1, 70560, Marker_t, "^"
1, 156960, Marker_t, "Dal signo $"
1, 224640, Tempo, 2400000
1, 224640, End_track
2, 0, Start_track
2, 0, MIDI_port, 0
2, 0, Title_t, "Solo Lute or Keyboard"
2, 0, Program_c, 0, 24
2, 0, Control_c, 0, 7, 100
2, 0, Control_c, 0, 10, 79
2, 240, Note_on_c, 0, 72, 100
2, 480, Note_on_c, 0, 72, 0
2, 480, Note_on_c, 0, 74, 100
2, 720, Note_on_c, 0, 74, 0
2, 720, Note_on_c, 0, 75, 100
2, 960, Note_on_c, 0, 75, 0
2, 960, Note_on_c, 0, 77, 100
2, 1200, Note_on_c, 0, 77, 0
2, 1200, Note_on_c, 0, 79, 100
2, 1440, Note_on_c, 0, 79, 0
2, 1440, Note_on_c, 0, 68, 100
2, 2160, Note_on_c, 0, 68, 0
2, 2160, Note_on_c, 0, 69, 100
2, 2880, Note_on_c, 0, 69, 0
2, 2880, Note_on_c, 0, 70, 100
2, 3600, Note_on_c, 0, 70, 0
2, 3600, Note_on_c, 0, 71, 100
2, 4320, Note_on_c, 0, 71, 0
2, 4320, Note_on_c, 0, 72, 100
2, 4560, Note_on_c, 0, 72, 0
2, 4560, Note_on_c, 0, 67, 100
2, 4800, Note_on_c, 0, 67, 0
2, 4800, Note_on_c, 0, 72, 100
2, 5280, Note_on_c, 0, 72, 0
2, 5280, Note_on_c, 0, 71, 100
2, 5400, Note_on_c, 0, 71, 0
2, 5400, Note_on_c, 0, 69, 100
2, 5520, Note_on_c, 0, 69, 0
2, 5520, Note_on_c, 0, 71, 100
2, 5760, Note_on_c, 0, 71, 0
2, 5760, Note_on_c, 0, 75, 100
2, 6480, Note_on_c, 0, 75, 0
2, 6480, Note_on_c, 0, 74, 100
2, 6960, Note_on_c, 0, 74, 0
2, 6960, Note_on_c, 0, 79, 100
2, 7200, Note_on_c, 0, 79, 0
2, 7200, Note_on_c, 0, 72, 100
2, 8160, Note_on_c, 0, 72, 0
2, 8160, Note_on_c, 0, 74, 100
2, 8280, Note_on_c, 0, 74, 0
2, 8280, Note_on_c, 0, 72, 100
2, 8400, Note_on_c, 0, 72, 0
2, 8400, Note_on_c, 0, 70, 100
2, 8520, Note_on_c, 0, 70, 0
2, 8520, Note_on_c, 0, 69, 100
2, 8640, Note_on_c, 0, 69, 0
2, 8640, Note_on_c, 0, 70, 100
2, 9120, Note_on_c, 0, 70, 0
2, 9120, Note_on_c, 0, 72, 100
2, 9360, Note_on_c, 0, 72, 0
2, 9360, Note_on_c, 0, 74, 100
2, 10080, Note_on_c, 0, 74, 0
2, 10320, Note_on_c, 0, 74, 100
2, 10560, Note_on_c, 0, 74, 0
2, 10560, Note_on_c, 0, 72, 100
2, 10800, Note_on_c, 0, 72, 0
2, 10800, Note_on_c, 0, 70, 100
2, 11040, Note_on_c, 0, 70, 0
2, 11040, Note_on_c, 0, 69, 100
2, 11280, Note_on_c, 0, 69, 0
2, 11280, Note_on_c, 0, 67, 100
2, 11520, Note_on_c, 0, 67, 0
2, 11520, Note_on_c, 0, 69, 100
2, 11760, Note_on_c, 0, 69, 0
2, 11760, Note_on_c, 0, 75, 100
2, 12000, Note_on_c, 0, 75, 0
2, 12000, Note_on_c, 0, 74, 100
2, 12240, Note_on_c, 0, 74, 0
2, 12240, Note_on_c, 0, 72, 100
2, 12480, Note_on_c, 0, 72, 0
2, 12480, Note_on_c, 0, 70, 100
2, 12720, Note_on_c, 0, 70, 0
2, 12720, Note_on_c, 0, 69, 100
2, 12960, Note_on_c, 0, 69, 0
2, 12960, Note_on_c, 0, 70, 100
2, 13680, Note_on_c, 0, 70, 0
2, 13680, Note_on_c, 0, 69, 100
2, 14400, Note_on_c, 0, 69, 0
2, 14400, Note_on_c, 0, 67, 100
2, 14880, Note_on_c, 0, 67, 0
2, 16320, Note_on_c, 0, 75, 100
2, 16560, Note_on_c, 0, 75, 0
2, 16560, Note_on_c, 0, 74, 100
2, 17040, Note_on_c, 0, 74, 0
2, 17040, Note_on_c, 0, 79, 100
2, 17280, Note_on_c, 0, 79, 0
2, 17280, Note_on_c, 0, 76, 100
2, 17520, Note_on_c, 0, 76, 0
2, 17520, Note_on_c, 0, 72, 100
2, 17760, Note_on_c, 0, 72, 0
2, 17760, Note_on_c, 0, 77, 100
2, 18240, Note_on_c, 0, 77, 0
2, 18240, Note_on_c, 0, 75, 100
2, 18360, Note_on_c, 0, 75, 0
2, 18360, Note_on_c, 0, 74, 100
2, 18480, Note_on_c, 0, 74, 0
2, 18480, Note_on_c, 0, 75, 100
2, 18960, Note_on_c, 0, 75, 0
2, 18960, Note_on_c, 0, 74, 100
2, 19080, Note_on_c, 0, 74, 0
2, 19080, Note_on_c, 0, 72, 100
2, 19200, Note_on_c, 0, 72, 0
2, 19200, Note_on_c, 0, 74, 100
2, 19440, Note_on_c, 0, 74, 0
2, 19440, Note_on_c, 0, 72, 100
2, 19920, Note_on_c, 0, 72, 0
2, 19920, Note_on_c, 0, 72, 100
2, 20160, Note_on_c, 0, 72, 0
2, 20160, Note_on_c, 0, 74, 100
2, 20640, Note_on_c, 0, 74, 0
2, 20640, Note_on_c, 0, 75, 100
2, 21120, Note_on_c, 0, 75, 0
2, 21120, Note_on_c, 0, 74, 100
2, 21240, Note_on_c, 0, 74, 0
2, 21240, Note_on_c, 0, 72, 100
2, 21360, Note_on_c, 0, 72, 0
2, 21360, Note_on_c, 0, 74, 100
2, 21840, Note_on_c, 0, 74, 0
2, 21840, Note_on_c, 0, 67, 100
2, 22080, Note_on_c, 0, 67, 0
2, 22080, Note_on_c, 0, 72, 100
2, 22560, Note_on_c, 0, 72, 0
2, 22560, Note_on_c, 0, 71, 100
2, 22680, Note_on_c, 0, 71, 0
2, 22680, Note_on_c, 0, 69, 100
2, 22800, Note_on_c, 0, 69, 0
2, 22800, Note_on_c, 0, 71, 100
2, 23040, Note_on_c, 0, 71, 0
2, 23040, Note_on_c, 0, 72, 100
2, 23280, Note_on_c, 0, 72, 0
2, 23280, Note_on_c, 0, 75, 100
2, 23520, Note_on_c, 0, 75, 0
2, 23520, Note_on_c, 0, 74, 100
2, 24000, Note_on_c, 0, 74, 0
2, 24000, Note_on_c, 0, 72, 100
2, 24240, Note_on_c, 0, 72, 0
2, 24240, Note_on_c, 0, 71, 100
2, 24480, Note_on_c, 0, 71, 0
2, 24480, Note_on_c, 0, 72, 100
2, 24720, Note_on_c, 0, 72, 0
2, 24720, Note_on_c, 0, 55, 100
2, 24960, Note_on_c, 0, 55, 0
2, 24960, Note_on_c, 0, 53, 100
2, 25200, Note_on_c, 0, 53, 0
2, 25200, Note_on_c, 0, 51, 100
2, 25440, Note_on_c, 0, 51, 0
2, 25440, Note_on_c, 0, 50, 100
2, 25680, Note_on_c, 0, 50, 0
2, 25680, Note_on_c, 0, 48, 100
2, 25920, Note_on_c, 0, 48, 0
2, 25920, Note_on_c, 0, 50, 100
2, 26160, Note_on_c, 0, 50, 0
2, 26160, Note_on_c, 0, 56, 100
2, 26400, Note_on_c, 0, 56, 0
2, 26400, Note_on_c, 0, 55, 100
2, 26640, Note_on_c, 0, 55, 0
2, 26640, Note_on_c, 0, 53, 100
2, 26880, Note_on_c, 0, 53, 0
2, 26880, Note_on_c, 0, 51, 100
2, 27120, Note_on_c, 0, 51, 0
2, 27120, Note_on_c, 0, 50, 100
2, 27360, Note_on_c, 0, 50, 0
2, 27360, Note_on_c, 0, 51, 100
2, 28080, Note_on_c, 0, 51, 0
2, 28080, Note_on_c, 0, 50, 100
2, 28800, Note_on_c, 0, 50, 0
2, 28800, Note_on_c, 0, 48, 100
2, 29280, Note_on_c, 0, 48, 0
2, 30480, Note_on_c, 0, 53, 100
2, 30720, Note_on_c, 0, 53, 0
2, 30720, Note_on_c, 0, 51, 100
2, 30960, Note_on_c, 0, 51, 0
2, 30960, Note_on_c, 0, 50, 100
2, 31200, Note_on_c, 0, 50, 0
2, 31200, Note_on_c, 0, 48, 100
2, 31440, Note_on_c, 0, 48, 0
2, 31440, Note_on_c, 0, 46, 100
2, 31680, Note_on_c, 0, 46, 0
2, 31680, Note_on_c, 0, 51, 100
2, 32880, Note_on_c, 0, 51, 0
2, 32880, Note_on_c, 0, 50, 100
2, 33120, Note_on_c, 0, 50, 0
2, 33120, Note_on_c, 0, 48, 100
2, 33840, Note_on_c, 0, 48, 0
2, 34320, Note_on_c, 0, 48, 100
2, 34560, Note_on_c, 0, 48, 0
2, 34560, Note_on_c, 0, 41, 100
2, 35280, Note_on_c, 0, 41, 0
2, 35760, Note_on_c, 0, 50, 100
2, 36000, Note_on_c, 0, 50, 0
2, 36000, Note_on_c, 0, 43, 100
2, 36480, Note_on_c, 0, 43, 0
2, 36480, Note_on_c, 0, 39, 100
2, 36720, Note_on_c, 0, 39, 0
2, 36720, Note_on_c, 0, 36, 100
2, 37200, Note_on_c, 0, 36, 0
2, 37200, Note_on_c, 0, 38, 100
2, 37440, Note_on_c, 0, 38, 0
2, 37440, Note_on_c, 0, 43, 100
2, 38400, Note_on_c, 0, 43, 0
2, 38400, Note_on_c, 0, 44, 100
2, 38640, Note_on_c, 0, 44, 0
2, 38640, Note_on_c, 0, 46, 100
2, 38880, Note_on_c, 0, 46, 0
2, 38880, Note_on_c, 0, 48, 100
2, 39360, Note_on_c, 0, 48, 0
2, 39360, Note_on_c, 0, 50, 100
2, 39600, Note_on_c, 0, 50, 0
2, 39600, Note_on_c, 0, 52, 100
2, 40320, Note_on_c, 0, 52, 0
2, 40320, Note_on_c, 0, 53, 100
2, 40800, Note_on_c, 0, 53, 0
2, 41040, Note_on_c, 0, 41, 100
2, 41280, Note_on_c, 0, 41, 0
2, 41280, Note_on_c, 0, 43, 100
2, 41520, Note_on_c, 0, 43, 0
2, 41520, Note_on_c, 0, 44, 100
2, 41760, Note_on_c, 0, 44, 0
2, 41760, Note_on_c, 0, 46, 100
2, 42240, Note_on_c, 0, 46, 0
2, 42240, Note_on_c, 0, 48, 100
2, 42480, Note_on_c, 0, 48, 0
2, 42480, Note_on_c, 0, 50, 100
2, 43200, Note_on_c, 0, 50, 0
2, 43200, Note_on_c, 0, 51, 100
2, 43920, Note_on_c, 0, 51, 0
2, 43920, Note_on_c, 0, 58, 100
2, 44640, Note_on_c, 0, 58, 0
2, 44640, Note_on_c, 0, 65, 100
2, 45360, Note_on_c, 0, 65, 0
2, 45360, Note_on_c, 0, 60, 100
2, 46080, Note_on_c, 0, 60, 0
2, 46080, Note_on_c, 0, 67, 100
2, 46800, Note_on_c, 0, 67, 0
2, 46800, Note_on_c, 0, 60, 100
2, 47040, Note_on_c, 0, 60, 0
2, 47040, Note_on_c, 0, 62, 100
2, 47280, Note_on_c, 0, 62, 0
2, 47280, Note_on_c, 0, 63, 100
2, 47520, Note_on_c, 0, 63, 0
2, 47520, Note_on_c, 0, 53, 100
2, 47760, Note_on_c, 0, 53, 0
2, 47760, Note_on_c, 0, 55, 100
2, 48000, Note_on_c, 0, 55, 0
2, 48000, Note_on_c, 0, 56, 100
2, 48240, Note_on_c, 0, 56, 0
2, 48240, Note_on_c, 0, 58, 100
2, 48480, Note_on_c, 0, 58, 0
2, 48480, Note_on_c, 0, 60, 100
2, 48720, Note_on_c, 0, 60, 0
2, 48720, Note_on_c, 0, 62, 100
2, 48960, Note_on_c, 0, 62, 0
2, 48960, Note_on_c, 0, 51, 100
2, 49440, Note_on_c, 0, 51, 0
2, 49920, Note_on_c, 0, 56, 100
2, 50160, Note_on_c, 0, 56, 0
2, 50160, Note_on_c, 0, 55, 100
2, 50400, Note_on_c, 0, 55, 0
2, 50400, Note_on_c, 0, 53, 100
2, 51120, Note_on_c, 0, 53, 0
2, 51360, Note_on_c, 0, 55, 100
2, 51600, Note_on_c, 0, 55, 0
2, 51600, Note_on_c, 0, 53, 100
2, 51840, Note_on_c, 0, 53, 0
2, 51840, Note_on_c, 0, 51, 100
2, 52320, Note_on_c, 0, 51, 0
2, 52320, Note_on_c, 0, 52, 100
2, 52560, Note_on_c, 0, 52, 0
2, 52560, Note_on_c, 0, 53, 100
2, 53040, Note_on_c, 0, 53, 0
2, 53040, Note_on_c, 0, 55, 100
2, 53280, Note_on_c, 0, 55, 0
2, 53280, Note_on_c, 0, 56, 100
2, 54240, Note_on_c, 0, 56, 0
2, 54240, Note_on_c, 0, 55, 100
2, 54480, Note_on_c, 0, 55, 0
2, 54480, Note_on_c, 0, 53, 100
2, 54720, Note_on_c, 0, 53, 0
2, 54720, Note_on_c, 0, 51, 100
2, 54960, Note_on_c, 0, 51, 0
2, 54960, Note_on_c, 0, 50, 100
2, 55200, Note_on_c, 0, 50, 0
2, 55200, Note_on_c, 0, 48, 100
2, 55440, Note_on_c, 0, 48, 0
2, 55440, Note_on_c, 0, 41, 100
2, 55680, Note_on_c, 0, 41, 0
2, 55680, Note_on_c, 0, 43, 100
2, 55920, Note_on_c, 0, 43, 0
2, 55920, Note_on_c, 0, 44, 100
2, 56160, Note_on_c, 0, 44, 0
2, 56160, Note_on_c, 0, 43, 100
2, 56400, Note_on_c, 0, 43, 0
2, 56400, Note_on_c, 0, 41, 100
2, 56640, Note_on_c, 0, 41, 0
2, 56640, Note_on_c, 0, 43, 100
2, 56880, Note_on_c, 0, 43, 0
2, 56880, Note_on_c, 0, 44, 100
2, 57360, Note_on_c, 0, 44, 0
2, 57600, Note_on_c, 0, 32, 100
2, 58080, Note_on_c, 0, 32, 0
2, 58320, Note_on_c, 0, 44, 100
2, 58800, Note_on_c, 0, 44, 0
2, 59040, Note_on_c, 0, 43, 100
2, 59520, Note_on_c, 0, 43, 0
2, 60720, Note_on_c, 0, 48, 100
2, 60960, Note_on_c, 0, 48, 0
2, 60960, Note_on_c, 0, 50, 100
2, 61200, Note_on_c, 0, 50, 0
2, 61200, Note_on_c, 0, 51, 100
2, 61440, Note_on_c, 0, 51, 0
2, 61440, Note_on_c, 0, 53, 100
2, 61680, Note_on_c, 0, 53, 0
2, 61680, Note_on_c, 0, 55, 100
2, 61920, Note_on_c, 0, 55, 0
2, 61920, Note_on_c, 0, 44, 100
2, 63120, Note_on_c, 0, 44, 0
2, 63120, Note_on_c, 0, 43, 100
2, 63360, Note_on_c, 0, 43, 0
2, 63360, Note_on_c, 0, 41, 100
2, 63600, Note_on_c, 0, 41, 0
2, 63600, Note_on_c, 0, 55, 100
2, 63840, Note_on_c, 0, 55, 0
2, 63840, Note_on_c, 0, 53, 100
2, 64080, Note_on_c, 0, 53, 0
2, 64080, Note_on_c, 0, 51, 100
2, 64320, Note_on_c, 0, 51, 0
2, 64320, Note_on_c, 0, 50, 100
2, 64560, Note_on_c, 0, 50, 0
2, 64560, Note_on_c, 0, 48, 100
2, 64800, Note_on_c, 0, 48, 0
2, 64800, Note_on_c, 0, 50, 100
2, 65280, Note_on_c, 0, 50, 0
2, 65520, Note_on_c, 0, 55, 100
2, 66000, Note_on_c, 0, 55, 0
2, 66240, Note_on_c, 0, 48, 100
2, 66720, Note_on_c, 0, 48, 0
2, 66720, Note_on_c, 0, 44, 100
2, 66960, Note_on_c, 0, 44, 0
2, 66960, Note_on_c, 0, 41, 100
2, 67200, Note_on_c, 0, 41, 0
2, 67200, Note_on_c, 0, 43, 100
2, 67440, Note_on_c, 0, 43, 0
2, 67440, Note_on_c, 0, 41, 100
2, 67680, Note_on_c, 0, 41, 0
2, 67680, Note_on_c, 0, 39, 100
2, 67920, Note_on_c, 0, 39, 0
2, 67920, Note_on_c, 0, 44, 100
2, 68160, Note_on_c, 0, 44, 0
2, 68160, Note_on_c, 0, 41, 100
2, 68400, Note_on_c, 0, 41, 0
2, 68400, Note_on_c, 0, 43, 100
2, 69120, Note_on_c, 0, 43, 0
2, 69120, Note_on_c, 0, 36, 100
2, 69360, Note_on_c, 0, 36, 0
2, 69360, Note_on_c, 0, 43, 100
2, 69600, Note_on_c, 0, 43, 0
2, 69600, Note_on_c, 0, 48, 100
2, 70080, Note_on_c, 0, 48, 0
2, 70080, Note_on_c, 0, 47, 100
2, 70560, Note_on_c, 0, 47, 0
2, 70560, Note_on_c, 0, 48, 100
2, 71040, Note_on_c, 0, 48, 0
2, 71040, Note_on_c, 0, 39, 100
2, 71280, Note_on_c, 0, 39, 0
2, 71280, Note_on_c, 0, 38, 100
2, 71760, Note_on_c, 0, 38, 0
2, 71760, Note_on_c, 0, 43, 100
2, 72000, Note_on_c, 0, 43, 0
2, 72000, Note_on_c, 0, 36, 100
2, 72240, Note_on_c, 0, 36, 0
2, 72240, Note_on_c, 0, 43, 100
2, 72480, Note_on_c, 0, 43, 0
2, 72480, Note_on_c, 0, 48, 100
2, 72720, Note_on_c, 0, 48, 0
2, 72720, Note_on_c, 0, 44, 100
2, 72960, Note_on_c, 0, 44, 0
2, 72960, Note_on_c, 0, 41, 100
2, 73200, Note_on_c, 0, 41, 0
2, 73200, Note_on_c, 0, 46, 100
2, 73440, Note_on_c, 0, 46, 0
2, 73440, Note_on_c, 0, 39, 100
2, 73920, Note_on_c, 0, 39, 0
2, 73920, Note_on_c, 0, 43, 100
2, 74160, Note_on_c, 0, 43, 0
2, 74160, Note_on_c, 0, 44, 100
2, 74400, Note_on_c, 0, 44, 0
2, 74400, Note_on_c, 0, 41, 100
2, 74640, Note_on_c, 0, 41, 0
2, 74640, Note_on_c, 0, 46, 100
2, 74880, Note_on_c, 0, 46, 0
2, 74880, Note_on_c, 0, 39, 100
2, 75360, Note_on_c, 0, 39, 0
2, 75360, Note_on_c, 0, 43, 100
2, 75600, Note_on_c, 0, 43, 0
2, 75600, Note_on_c, 0, 44, 100
2, 76080, Note_on_c, 0, 44, 0
2, 76080, Note_on_c, 0, 41, 100
2, 76320, Note_on_c, 0, 41, 0
2, 76320, Note_on_c, 0, 46, 100
2, 76800, Note_on_c, 0, 46, 0
2, 76800, Note_on_c, 0, 47, 100
2, 77040, Note_on_c, 0, 47, 0
2, 77040, Note_on_c, 0, 48, 100
2, 77280, Note_on_c, 0, 48, 0
2, 77280, Note_on_c, 0, 50, 100
2, 77520, Note_on_c, 0, 50, 0
2, 77520, Note_on_c, 0, 51, 100
2, 77760, Note_on_c, 0, 51, 0
2, 77760, Note_on_c, 0, 50, 100
2, 78000, Note_on_c, 0, 50, 0
2, 78000, Note_on_c, 0, 52, 100
2, 78240, Note_on_c, 0, 52, 0
2, 78240, Note_on_c, 0, 54, 100
2, 78480, Note_on_c, 0, 54, 0
2, 78480, Note_on_c, 0, 55, 100
2, 78720, Note_on_c, 0, 55, 0
2, 78720, Note_on_c, 0, 57, 100
2, 78960, Note_on_c, 0, 57, 0
2, 78960, Note_on_c, 0, 58, 100
2, 79200, Note_on_c, 0, 58, 0
2, 79200, Note_on_c, 0, 48, 100
2, 79320, Note_on_c, 0, 48, 0
2, 79320, Note_on_c, 0, 51, 100
2, 79440, Note_on_c, 0, 51, 0
2, 79440, Note_on_c, 0, 48, 100
2, 79560, Note_on_c, 0, 48, 0
2, 79560, Note_on_c, 0, 51, 100
2, 79680, Note_on_c, 0, 51, 0
2, 79680, Note_on_c, 0, 48, 100
2, 79800, Note_on_c, 0, 48, 0
2, 79800, Note_on_c, 0, 51, 100
2, 79920, Note_on_c, 0, 51, 0
2, 79920, Note_on_c, 0, 49, 100
2, 80040, Note_on_c, 0, 49, 0
2, 80040, Note_on_c, 0, 52, 100
2, 80160, Note_on_c, 0, 52, 0
2, 80160, Note_on_c, 0, 49, 100
2, 80280, Note_on_c, 0, 49, 0
2, 80280, Note_on_c, 0, 52, 100
2, 80400, Note_on_c, 0, 52, 0
2, 80400, Note_on_c, 0, 49, 100
2, 80520, Note_on_c, 0, 49, 0
2, 80520, Note_on_c, 0, 52, 100
2, 80640, Note_on_c, 0, 52, 0
2, 80640, Note_on_c, 0, 50, 100
2, 80760, Note_on_c, 0, 50, 0
2, 80760, Note_on_c, 0, 54, 100
2, 80880, Note_on_c, 0, 54, 0
2, 80880, Note_on_c, 0, 50, 100
2, 81000, Note_on_c, 0, 50, 0
2, 81000, Note_on_c, 0, 54, 100
2, 81120, Note_on_c, 0, 54, 0
2, 81120, Note_on_c, 0, 50, 100
2, 81240, Note_on_c, 0, 50, 0
2, 81240, Note_on_c, 0, 54, 100
2, 81360, Note_on_c, 0, 54, 0
2, 81360, Note_on_c, 0, 51, 100
2, 81480, Note_on_c, 0, 51, 0
2, 81480, Note_on_c, 0, 55, 100
2, 81600, Note_on_c, 0, 55, 0
2, 81600, Note_on_c, 0, 51, 100
2, 81720, Note_on_c, 0, 51, 0
2, 81720, Note_on_c, 0, 55, 100
2, 81840, Note_on_c, 0, 55, 0
2, 81840, Note_on_c, 0, 51, 100
2, 81960, Note_on_c, 0, 51, 0
2, 81960, Note_on_c, 0, 55, 100
2, 82080, Note_on_c, 0, 55, 0
2, 82080, Note_on_c, 0, 52, 100
2, 82320, Note_on_c, 0, 52, 0
2, 82320, Note_on_c, 0, 50, 100
2, 82560, Note_on_c, 0, 50, 0
2, 82560, Note_on_c, 0, 49, 100
2, 82800, Note_on_c, 0, 49, 0
2, 82800, Note_on_c, 0, 50, 100
2, 83280, Note_on_c, 0, 50, 0
2, 83280, Note_on_c, 0, 38, 100
2, 83520, Note_on_c, 0, 38, 0
2, 83520, Note_on_c, 0, 43, 100
2, 84480, Note_on_c, 0, 43, 0
2, 84480, Note_on_c, 0, 45, 100
2, 84720, Note_on_c, 0, 45, 0
2, 84720, Note_on_c, 0, 46, 100
2, 84960, Note_on_c, 0, 46, 0
2, 84960, Note_on_c, 0, 45, 100
2, 85200, Note_on_c, 0, 45, 0
2, 85200, Note_on_c, 0, 47, 100
2, 85440, Note_on_c, 0, 47, 0
2, 85440, Note_on_c, 0, 48, 100
2, 85680, Note_on_c, 0, 48, 0
2, 85680, Note_on_c, 0, 47, 100
2, 85920, Note_on_c, 0, 47, 0
2, 85920, Note_on_c, 0, 48, 100
2, 86160, Note_on_c, 0, 48, 0
2, 86160, Note_on_c, 0, 50, 100
2, 86400, Note_on_c, 0, 50, 0
2, 86400, Note_on_c, 0, 48, 100
2, 86640, Note_on_c, 0, 48, 0
2, 86640, Note_on_c, 0, 60, 100
2, 86880, Note_on_c, 0, 60, 0
2, 86880, Note_on_c, 0, 58, 100
2, 87120, Note_on_c, 0, 58, 0
2, 87120, Note_on_c, 0, 57, 100
2, 87360, Note_on_c, 0, 57, 0
2, 87360, Note_on_c, 0, 55, 100
2, 87600, Note_on_c, 0, 55, 0
2, 87600, Note_on_c, 0, 54, 100
2, 87840, Note_on_c, 0, 54, 0
2, 87840, Note_on_c, 0, 55, 100
2, 88080, Note_on_c, 0, 55, 0
2, 88080, Note_on_c, 0, 53, 100
2, 88320, Note_on_c, 0, 53, 0
2, 88320, Note_on_c, 0, 51, 100
2, 88560, Note_on_c, 0, 51, 0
2, 88560, Note_on_c, 0, 56, 100
2, 88800, Note_on_c, 0, 56, 0
2, 88800, Note_on_c, 0, 53, 100
2, 89040, Note_on_c, 0, 53, 0
2, 89040, Note_on_c, 0, 55, 100
2, 89280, Note_on_c, 0, 55, 0
2, 89280, Note_on_c, 0, 48, 100
2, 89760, Note_on_c, 0, 48, 0
2, 90000, Note_on_c, 0, 60, 100
2, 90240, Note_on_c, 0, 60, 0
2, 90240, Note_on_c, 0, 58, 100
2, 90480, Note_on_c, 0, 58, 0
2, 90480, Note_on_c, 0, 56, 100
2, 90720, Note_on_c, 0, 56, 0
2, 90720, Note_on_c, 0, 55, 100
2, 90960, Note_on_c, 0, 55, 0
2, 91440, Note_on_c, 0, 48, 100
2, 91680, Note_on_c, 0, 48, 0
2, 92160, Note_on_c, 0, 53, 100
2, 92400, Note_on_c, 0, 53, 0
2, 92400, Note_on_c, 0, 65, 100
2, 92640, Note_on_c, 0, 65, 0
2, 92640, Note_on_c, 0, 63, 100
2, 92880, Note_on_c, 0, 63, 0
2, 92880, Note_on_c, 0, 61, 100
2, 93120, Note_on_c, 0, 61, 0
2, 93120, Note_on_c, 0, 60, 100
2, 93360, Note_on_c, 0, 60, 0
2, 93360, Note_on_c, 0, 59, 100
2, 93600, Note_on_c, 0, 59, 0
2, 93600, Note_on_c, 0, 60, 100
2, 93840, Note_on_c, 0, 60, 0
2, 93840, Note_on_c, 0, 58, 100
2, 94080, Note_on_c, 0, 58, 0
2, 94080, Note_on_c, 0, 56, 100
2, 94560, Note_on_c, 0, 56, 0
2, 94560, Note_on_c, 0, 55, 100
2, 94800, Note_on_c, 0, 55, 0
2, 94800, Note_on_c, 0, 60, 100
2, 95040, Note_on_c, 0, 60, 0
2, 95040, Note_on_c, 0, 53, 100
2, 95520, Note_on_c, 0, 53, 0
2, 96000, Note_on_c, 0, 53, 100
2, 96240, Note_on_c, 0, 53, 0
2, 96240, Note_on_c, 0, 51, 100
2, 96480, Note_on_c, 0, 51, 0
2, 96480, Note_on_c, 0, 49, 100
2, 96720, Note_on_c, 0, 49, 0
2, 96720, Note_on_c, 0, 48, 100
2, 96960, Note_on_c, 0, 48, 0
2, 96960, Note_on_c, 0, 46, 100
2, 97200, Note_on_c, 0, 46, 0
2, 97200, Note_on_c, 0, 45, 100
2, 97440, Note_on_c, 0, 45, 0
2, 97440, Note_on_c, 0, 48, 100
2, 97680, Note_on_c, 0, 48, 0
2, 97680, Note_on_c, 0, 41, 100
2, 97920, Note_on_c, 0, 41, 0
2, 97920, Note_on_c, 0, 46, 100
2, 98400, Note_on_c, 0, 46, 0
2, 98880, Note_on_c, 0, 58, 100
2, 99120, Note_on_c, 0, 58, 0
2, 99120, Note_on_c, 0, 56, 100
2, 99360, Note_on_c, 0, 56, 0
2, 99360, Note_on_c, 0, 55, 100
2, 99600, Note_on_c, 0, 55, 0
2, 99600, Note_on_c, 0, 53, 100
2, 99840, Note_on_c, 0, 53, 0
2, 99840, Note_on_c, 0, 51, 100
2, 100080, Note_on_c, 0, 51, 0
2, 100080, Note_on_c, 0, 50, 100
2, 100320, Note_on_c, 0, 50, 0
2, 100320, Note_on_c, 0, 53, 100
2, 100560, Note_on_c, 0, 53, 0
2, 100560, Note_on_c, 0, 46, 100
2, 100800, Note_on_c, 0, 46, 0
2, 100800, Note_on_c, 0, 51, 100
2, 101040, Note_on_c, 0, 51, 0
2, 101040, Note_on_c, 0, 39, 100
2, 101280, Note_on_c, 0, 39, 0
2, 101280, Note_on_c, 0, 38, 100
2, 101520, Note_on_c, 0, 38, 0
2, 101520, Note_on_c, 0, 36, 100
2, 101760, Note_on_c, 0, 36, 0
2, 101760, Note_on_c, 0, 63, 100
2, 102000, Note_on_c, 0, 63, 0
2, 102000, Note_on_c, 0, 60, 100
2, 102240, Note_on_c, 0, 60, 0
2, 102240, Note_on_c, 0, 56, 100
2, 102480, Note_on_c, 0, 56, 0
2, 102480, Note_on_c, 0, 38, 100
2, 102720, Note_on_c, 0, 38, 0
2, 102720, Note_on_c, 0, 36, 100
2, 102960, Note_on_c, 0, 36, 0
2, 102960, Note_on_c, 0, 34, 100
2, 103200, Note_on_c, 0, 34, 0
2, 103200, Note_on_c, 0, 62, 100
2, 103440, Note_on_c, 0, 62, 0
2, 103440, Note_on_c, 0, 58, 100
2, 103680, Note_on_c, 0, 58, 0
2, 103680, Note_on_c, 0, 55, 100
2, 103920, Note_on_c, 0, 55, 0
2, 103920, Note_on_c, 0, 36, 100
2, 104160, Note_on_c, 0, 36, 0
2, 104160, Note_on_c, 0, 34, 100
2, 104400, Note_on_c, 0, 34, 0
2, 104400, Note_on_c, 0, 32, 100
2, 104640, Note_on_c, 0, 32, 0
2, 104640, Note_on_c, 0, 60, 100
2, 104880, Note_on_c, 0, 60, 0
2, 104880, Note_on_c, 0, 56, 100
2, 105120, Note_on_c, 0, 56, 0
2, 105120, Note_on_c, 0, 53, 100
2, 105360, Note_on_c, 0, 53, 0
2, 105360, Note_on_c, 0, 56, 100
2, 105600, Note_on_c, 0, 56, 0
2, 105600, Note_on_c, 0, 53, 100
2, 105840, Note_on_c, 0, 53, 0
2, 105840, Note_on_c, 0, 50, 100
2, 106080, Note_on_c, 0, 50, 0
2, 106080, Note_on_c, 0, 53, 100
2, 106320, Note_on_c, 0, 53, 0
2, 106320, Note_on_c, 0, 50, 100
2, 106560, Note_on_c, 0, 50, 0
2, 106560, Note_on_c, 0, 47, 100
2, 106680, Note_on_c, 0, 47, 0
2, 106680, Note_on_c, 0, 55, 100
2, 106800, Note_on_c, 0, 55, 0
2, 106800, Note_on_c, 0, 53, 100
2, 106920, Note_on_c, 0, 53, 0
2, 106920, Note_on_c, 0, 55, 100
2, 107040, Note_on_c, 0, 55, 0
2, 107040, Note_on_c, 0, 51, 100
2, 107160, Note_on_c, 0, 51, 0
2, 107160, Note_on_c, 0, 53, 100
2, 107280, Note_on_c, 0, 53, 0
2, 107280, Note_on_c, 0, 50, 100
2, 107400, Note_on_c, 0, 50, 0
2, 107400, Note_on_c, 0, 53, 100
2, 107520, Note_on_c, 0, 53, 0
2, 107520, Note_on_c, 0, 48, 100
2, 107640, Note_on_c, 0, 48, 0
2, 107640, Note_on_c, 0, 53, 100
2, 107760, Note_on_c, 0, 53, 0
2, 107760, Note_on_c, 0, 47, 100
2, 107880, Note_on_c, 0, 47, 0
2, 107880, Note_on_c, 0, 53, 100
2, 108000, Note_on_c, 0, 53, 0
2, 108000, Note_on_c, 0, 48, 100
2, 108120, Note_on_c, 0, 48, 0
2, 108120, Note_on_c, 0, 60, 100
2, 108240, Note_on_c, 0, 60, 0
2, 108240, Note_on_c, 0, 58, 100
2, 108360, Note_on_c, 0, 58, 0
2, 108360, Note_on_c, 0, 61, 100
2, 108480, Note_on_c, 0, 61, 0
2, 108480, Note_on_c, 0, 56, 100
2, 108600, Note_on_c, 0, 56, 0
2, 108600, Note_on_c, 0, 60, 100
2, 108720, Note_on_c, 0, 60, 0
2, 108720, Note_on_c, 0, 55, 100
2, 108840, Note_on_c, 0, 55, 0
2, 108840, Note_on_c, 0, 58, 100
2, 108960, Note_on_c, 0, 58, 0
2, 108960, Note_on_c, 0, 48, 100
2, 109080, Note_on_c, 0, 48, 0
2, 109080, Note_on_c, 0, 56, 100
2, 109200, Note_on_c, 0, 56, 0
2, 109200, Note_on_c, 0, 46, 100
2, 109320, Note_on_c, 0, 46, 0
2, 109320, Note_on_c, 0, 55, 100
2, 109440, Note_on_c, 0, 55, 0
2, 109440, Note_on_c, 0, 44, 100
2, 109560, Note_on_c, 0, 44, 0
2, 109560, Note_on_c, 0, 62, 100
2, 109680, Note_on_c, 0, 62, 0
2, 109680, Note_on_c, 0, 60, 100
2, 109800, Note_on_c, 0, 60, 0
2, 109800, Note_on_c, 0, 63, 100
2, 109920, Note_on_c, 0, 63, 0
2, 109920, Note_on_c, 0, 58, 100
2, 110040, Note_on_c, 0, 58, 0
2, 110040, Note_on_c, 0, 62, 100
2, 110160, Note_on_c, 0, 62, 0
2, 110160, Note_on_c, 0, 57, 100
2, 110280, Note_on_c, 0, 57, 0
2, 110280, Note_on_c, 0, 60, 100
2, 110400, Note_on_c, 0, 60, 0
2, 110400, Note_on_c, 0, 50, 100
2, 110520, Note_on_c, 0, 50, 0
2, 110520, Note_on_c, 0, 58, 100
2, 110640, Note_on_c, 0, 58, 0
2, 110640, Note_on_c, 0, 48, 100
2, 110760, Note_on_c, 0, 48, 0
2, 110760, Note_on_c, 0, 57, 100
2, 110880, Note_on_c, 0, 57, 0
2, 110880, Note_on_c, 0, 50, 100
2, 111120, Note_on_c, 0, 50, 0
2, 112560, Note_on_c, 0, 74, 100
2, 112800, Note_on_c, 0, 74, 0
2, 112800, Note_on_c, 0, 79, 100
2, 113280, Note_on_c, 0, 79, 0
2, 113280, Note_on_c, 0, 78, 100
2, 113400, Note_on_c, 0, 78, 0
2, 113400, Note_on_c, 0, 79, 100
2, 113520, Note_on_c, 0, 79, 0
2, 113520, Note_on_c, 0, 81, 100
2, 113640, Note_on_c, 0, 81, 0
2, 113640, Note_on_c, 0, 78, 100
2, 113760, Note_on_c, 0, 78, 0
2, 113760, Note_on_c, 0, 74, 100
2, 114360, Note_on_c, 0, 74, 0
2, 114360, Note_on_c, 0, 74, 100
2, 114480, Note_on_c, 0, 74, 0
2, 114480, Note_on_c, 0, 72, 100
2, 115080, Note_on_c, 0, 72, 0
2, 115080, Note_on_c, 0, 72, 100
2, 115200, Note_on_c, 0, 72, 0
2, 115200, Note_on_c, 0, 70, 100
2, 115800, Note_on_c, 0, 70, 0
2, 115800, Note_on_c, 0, 70, 100
2, 115920, Note_on_c, 0, 70, 0
2, 115920, Note_on_c, 0, 69, 100
2, 116520, Note_on_c, 0, 69, 0
2, 116520, Note_on_c, 0, 69, 100
2, 116640, Note_on_c, 0, 69, 0
2, 116640, Note_on_c, 0, 67, 100
2, 117120, Note_on_c, 0, 67, 0
2, 117360, Note_on_c, 0, 67, 100
2, 117840, Note_on_c, 0, 67, 0
2, 118080, Note_on_c, 0, 69, 100
2, 118320, Note_on_c, 0, 69, 0
2, 118320, Note_on_c, 0, 78, 100
2, 118560, Note_on_c, 0, 78, 0
2, 118560, Note_on_c, 0, 79, 100
2, 118800, Note_on_c, 0, 79, 0
2, 118800, Note_on_c, 0, 81, 100
2, 119040, Note_on_c, 0, 81, 0
2, 119040, Note_on_c, 0, 67, 100
2, 119280, Note_on_c, 0, 67, 0
2, 119280, Note_on_c, 0, 66, 100
2, 119520, Note_on_c, 0, 66, 0
2, 119760, Note_on_c, 0, 79, 100
2, 120000, Note_on_c, 0, 79, 0
2, 120000, Note_on_c, 0, 81, 100
2, 120240, Note_on_c, 0, 81, 0
2, 120240, Note_on_c, 0, 82, 100
2, 120480, Note_on_c, 0, 82, 0
2, 120480, Note_on_c, 0, 72, 100
2, 120720, Note_on_c, 0, 72, 0
2, 120720, Note_on_c, 0, 70, 100
2, 120960, Note_on_c, 0, 70, 0
2, 121200, Note_on_c, 0, 75, 100
2, 121320, Note_on_c, 0, 75, 0
2, 121320, Note_on_c, 0, 84, 100
2, 121440, Note_on_c, 0, 84, 0
2, 121440, Note_on_c, 0, 74, 100
2, 121560, Note_on_c, 0, 74, 0
2, 121560, Note_on_c, 0, 82, 100
2, 121680, Note_on_c, 0, 82, 0
2, 121680, Note_on_c, 0, 72, 100
2, 121800, Note_on_c, 0, 72, 0
2, 121800, Note_on_c, 0, 81, 100
2, 121920, Note_on_c, 0, 81, 0
2, 121920, Note_on_c, 0, 70, 100
2, 122040, Note_on_c, 0, 70, 0
2, 122040, Note_on_c, 0, 79, 100
2, 122160, Note_on_c, 0, 79, 0
2, 122160, Note_on_c, 0, 69, 100
2, 122280, Note_on_c, 0, 69, 0
2, 122280, Note_on_c, 0, 78, 100
2, 122400, Note_on_c, 0, 78, 0
2, 122400, Note_on_c, 0, 77, 100
2, 122520, Note_on_c, 0, 77, 0
2, 122520, Note_on_c, 0, 79, 100
2, 122640, Note_on_c, 0, 79, 0
2, 122640, Note_on_c, 0, 77, 100
2, 122760, Note_on_c, 0, 77, 0
2, 122760, Note_on_c, 0, 79, 100
2, 122880, Note_on_c, 0, 79, 0
2, 122880, Note_on_c, 0, 77, 100
2, 123000, Note_on_c, 0, 77, 0
2, 123000, Note_on_c, 0, 79, 100
2, 123120, Note_on_c, 0, 79, 0
2, 123120, Note_on_c, 0, 76, 100
2, 123240, Note_on_c, 0, 76, 0
2, 123240, Note_on_c, 0, 79, 100
2, 123360, Note_on_c, 0, 79, 0
2, 123360, Note_on_c, 0, 76, 100
2, 123480, Note_on_c, 0, 76, 0
2, 123480, Note_on_c, 0, 79, 100
2, 123600, Note_on_c, 0, 79, 0
2, 123600, Note_on_c, 0, 76, 100
2, 123720, Note_on_c, 0, 76, 0
2, 123720, Note_on_c, 0, 79, 100
2, 123840, Note_on_c, 0, 79, 0
2, 123840, Note_on_c, 0, 75, 100
2, 123960, Note_on_c, 0, 75, 0
2, 123960, Note_on_c, 0, 81, 100
2, 124080, Note_on_c, 0, 81, 0
2, 124080, Note_on_c, 0, 75, 100
2, 124200, Note_on_c, 0, 75, 0
2, 124200, Note_on_c, 0, 81, 100
2, 124320, Note_on_c, 0, 81, 0
2, 124320, Note_on_c, 0, 75, 100
2, 124440, Note_on_c, 0, 75, 0
2, 124440, Note_on_c, 0, 81, 100
2, 124560, Note_on_c, 0, 81, 0
2, 124560, Note_on_c, 0, 74, 100
2, 124680, Note_on_c, 0, 74, 0
2, 124680, Note_on_c, 0, 83, 100
2, 124800, Note_on_c, 0, 83, 0
2, 124800, Note_on_c, 0, 74, 100
2, 124920, Note_on_c, 0, 74, 0
2, 124920, Note_on_c, 0, 83, 100
2, 125040, Note_on_c, 0, 83, 0
2, 125040, Note_on_c, 0, 74, 100
2, 125160, Note_on_c, 0, 74, 0
2, 125160, Note_on_c, 0, 83, 100
2, 125280, Note_on_c, 0, 83, 0
2, 125280, Note_on_c, 0, 84, 100
2, 125400, Note_on_c, 0, 84, 0
2, 125400, Note_on_c, 0, 79, 100
2, 125520, Note_on_c, 0, 79, 0
2, 125520, Note_on_c, 0, 75, 100
2, 125640, Note_on_c, 0, 75, 0
2, 125640, Note_on_c, 0, 79, 100
2, 125760, Note_on_c, 0, 79, 0
2, 125760, Note_on_c, 0, 74, 100
2, 125880, Note_on_c, 0, 74, 0
2, 125880, Note_on_c, 0, 79, 100
2, 126000, Note_on_c, 0, 79, 0
2, 126000, Note_on_c, 0, 72, 100
2, 126120, Note_on_c, 0, 72, 0
2, 126120, Note_on_c, 0, 79, 100
2, 126240, Note_on_c, 0, 79, 0
2, 126240, Note_on_c, 0, 80, 100
2, 126360, Note_on_c, 0, 80, 0
2, 126360, Note_on_c, 0, 77, 100
2, 126480, Note_on_c, 0, 77, 0
2, 126480, Note_on_c, 0, 82, 100
2, 126600, Note_on_c, 0, 82, 0
2, 126600, Note_on_c, 0, 76, 100
2, 126720, Note_on_c, 0, 76, 0
2, 126720, Note_on_c, 0, 80, 100
2, 126840, Note_on_c, 0, 80, 0
2, 126840, Note_on_c, 0, 77, 100
2, 126960, Note_on_c, 0, 77, 0
2, 126960, Note_on_c, 0, 74, 100
2, 127080, Note_on_c, 0, 74, 0
2, 127080, Note_on_c, 0, 80, 100
2, 127200, Note_on_c, 0, 80, 0
2, 127200, Note_on_c, 0, 72, 100
2, 127320, Note_on_c, 0, 72, 0
2, 127320, Note_on_c, 0, 80, 100
2, 127440, Note_on_c, 0, 80, 0
2, 127440, Note_on_c, 0, 70, 100
2, 127560, Note_on_c, 0, 70, 0
2, 127560, Note_on_c, 0, 77, 100
2, 127680, Note_on_c, 0, 77, 0
2, 127680, Note_on_c, 0, 75, 100
2, 127800, Note_on_c, 0, 75, 0
2, 127800, Note_on_c, 0, 80, 100
2, 127920, Note_on_c, 0, 80, 0
2, 127920, Note_on_c, 0, 74, 100
2, 128040, Note_on_c, 0, 74, 0
2, 128040, Note_on_c, 0, 80, 100
2, 128160, Note_on_c, 0, 80, 0
2, 128160, Note_on_c, 0, 79, 100
2, 128280, Note_on_c, 0, 79, 0
2, 128280, Note_on_c, 0, 75, 100
2, 128400, Note_on_c, 0, 75, 0
2, 128400, Note_on_c, 0, 72, 100
2, 128520, Note_on_c, 0, 72, 0
2, 128520, Note_on_c, 0, 79, 100
2, 128640, Note_on_c, 0, 79, 0
2, 128640, Note_on_c, 0, 70, 100
2, 128760, Note_on_c, 0, 70, 0
2, 128760, Note_on_c, 0, 79, 100
2, 128880, Note_on_c, 0, 79, 0
2, 128880, Note_on_c, 0, 68, 100
2, 129000, Note_on_c, 0, 68, 0
2, 129000, Note_on_c, 0, 75, 100
2, 129120, Note_on_c, 0, 75, 0
2, 129120, Note_on_c, 0, 73, 100
2, 129240, Note_on_c, 0, 73, 0
2, 129240, Note_on_c, 0, 79, 100
2, 129360, Note_on_c, 0, 79, 0
2, 129360, Note_on_c, 0, 72, 100
2, 129480, Note_on_c, 0, 72, 0
2, 129480, Note_on_c, 0, 79, 100
2, 129600, Note_on_c, 0, 79, 0
2, 129600, Note_on_c, 0, 77, 100
2, 129720, Note_on_c, 0, 77, 0
2, 129720, Note_on_c, 0, 74, 100
2, 129840, Note_on_c, 0, 74, 0
2, 129840, Note_on_c, 0, 71, 100
2, 129960, Note_on_c, 0, 71, 0
2, 129960, Note_on_c, 0, 77, 100
2, 130080, Note_on_c, 0, 77, 0
2, 130080, Note_on_c, 0, 68, 100
2, 130200, Note_on_c, 0, 68, 0
2, 130200, Note_on_c, 0, 77, 100
2, 130320, Note_on_c, 0, 77, 0
2, 130320, Note_on_c, 0, 67, 100
2, 130440, Note_on_c, 0, 67, 0
2, 130440, Note_on_c, 0, 74, 100
2, 130560, Note_on_c, 0, 74, 0
2, 130560, Note_on_c, 0, 72, 100
2, 130680, Note_on_c, 0, 72, 0
2, 130680, Note_on_c, 0, 77, 100
2, 130800, Note_on_c, 0, 77, 0
2, 130800, Note_on_c, 0, 71, 100
2, 130920, Note_on_c, 0, 71, 0
2, 130920, Note_on_c, 0, 77, 100
2, 131040, Note_on_c, 0, 77, 0
2, 131040, Note_on_c, 0, 75, 100
2, 131160, Note_on_c, 0, 75, 0
2, 131160, Note_on_c, 0, 72, 100
2, 131280, Note_on_c, 0, 72, 0
2, 131280, Note_on_c, 0, 68, 100
2, 131400, Note_on_c, 0, 68, 0
2, 131400, Note_on_c, 0, 75, 100
2, 131520, Note_on_c, 0, 75, 0
2, 131520, Note_on_c, 0, 67, 100
2, 131640, Note_on_c, 0, 67, 0
2, 131640, Note_on_c, 0, 75, 100
2, 131760, Note_on_c, 0, 75, 0
2, 131760, Note_on_c, 0, 65, 100
2, 131880, Note_on_c, 0, 65, 0
2, 131880, Note_on_c, 0, 68, 100
2, 132000, Note_on_c, 0, 68, 0
2, 132000, Note_on_c, 0, 72, 100
2, 132120, Note_on_c, 0, 72, 0
2, 132120, Note_on_c, 0, 75, 100
2, 132240, Note_on_c, 0, 75, 0
2, 132240, Note_on_c, 0, 74, 100
2, 132360, Note_on_c, 0, 74, 0
2, 132360, Note_on_c, 0, 77, 100
2, 132480, Note_on_c, 0, 77, 0
2, 132480, Note_on_c, 0, 71, 100
2, 132720, Note_on_c, 0, 71, 0
2, 132720, Note_on_c, 0, 74, 100
2, 132960, Note_on_c, 0, 74, 0
2, 132960, Note_on_c, 0, 75, 100
2, 133200, Note_on_c, 0, 75, 0
2, 133200, Note_on_c, 0, 77, 100
2, 133440, Note_on_c, 0, 77, 0
2, 133440, Note_on_c, 0, 72, 100
2, 133680, Note_on_c, 0, 72, 0
2, 133680, Note_on_c, 0, 71, 100
2, 133920, Note_on_c, 0, 71, 0
2, 134160, Note_on_c, 0, 75, 100
2, 134400, Note_on_c, 0, 75, 0
2, 134400, Note_on_c, 0, 77, 100
2, 134640, Note_on_c, 0, 77, 0
2, 134640, Note_on_c, 0, 79, 100
2, 134880, Note_on_c, 0, 79, 0
2, 134880, Note_on_c, 0, 71, 100
2, 135120, Note_on_c, 0, 71, 0
2, 135120, Note_on_c, 0, 72, 100
2, 135360, Note_on_c, 0, 72, 0
2, 135600, Note_on_c, 0, 77, 100
2, 135720, Note_on_c, 0, 77, 0
2, 135720, Note_on_c, 0, 80, 100
2, 135840, Note_on_c, 0, 80, 0
2, 135840, Note_on_c, 0, 75, 100
2, 135960, Note_on_c, 0, 75, 0
2, 135960, Note_on_c, 0, 79, 100
2, 136080, Note_on_c, 0, 79, 0
2, 136080, Note_on_c, 0, 74, 100
2, 136200, Note_on_c, 0, 74, 0
2, 136200, Note_on_c, 0, 77, 100
2, 136320, Note_on_c, 0, 77, 0
2, 136320, Note_on_c, 0, 72, 100
2, 136440, Note_on_c, 0, 72, 0
2, 136440, Note_on_c, 0, 75, 100
2, 136560, Note_on_c, 0, 75, 0
2, 136560, Note_on_c, 0, 71, 100
2, 136680, Note_on_c, 0, 71, 0
2, 136680, Note_on_c, 0, 74, 100
2, 136800, Note_on_c, 0, 74, 0
2, 136800, Note_on_c, 0, 70, 100
2, 136920, Note_on_c, 0, 70, 0
2, 136920, Note_on_c, 0, 72, 100
2, 137040, Note_on_c, 0, 72, 0
2, 137040, Note_on_c, 0, 70, 100
2, 137160, Note_on_c, 0, 70, 0
2, 137160, Note_on_c, 0, 72, 100
2, 137280, Note_on_c, 0, 72, 0
2, 137280, Note_on_c, 0, 70, 100
2, 137400, Note_on_c, 0, 70, 0
2, 137400, Note_on_c, 0, 72, 100
2, 137520, Note_on_c, 0, 72, 0
2, 137520, Note_on_c, 0, 69, 100
2, 137640, Note_on_c, 0, 69, 0
2, 137640, Note_on_c, 0, 72, 100
2, 137760, Note_on_c, 0, 72, 0
2, 137760, Note_on_c, 0, 69, 100
2, 137880, Note_on_c, 0, 69, 0
2, 137880, Note_on_c, 0, 72, 100
2, 138000, Note_on_c, 0, 72, 0
2, 138000, Note_on_c, 0, 69, 100
2, 138120, Note_on_c, 0, 69, 0
2, 138120, Note_on_c, 0, 72, 100
2, 138240, Note_on_c, 0, 72, 0
2, 138240, Note_on_c, 0, 68, 100
2, 138360, Note_on_c, 0, 68, 0
2, 138360, Note_on_c, 0, 74, 100
2, 138480, Note_on_c, 0, 74, 0
2, 138480, Note_on_c, 0, 68, 100
2, 138600, Note_on_c, 0, 68, 0
2, 138600, Note_on_c, 0, 74, 100
2, 138720, Note_on_c, 0, 74, 0
2, 138720, Note_on_c, 0, 68, 100
2, 138840, Note_on_c, 0, 68, 0
2, 138840, Note_on_c, 0, 74, 100
2, 138960, Note_on_c, 0, 74, 0
2, 138960, Note_on_c, 0, 67, 100
2, 139080, Note_on_c, 0, 67, 0
2, 139080, Note_on_c, 0, 76, 100
2, 139200, Note_on_c, 0, 76, 0
2, 139200, Note_on_c, 0, 67, 100
2, 139320, Note_on_c, 0, 67, 0
2, 139320, Note_on_c, 0, 76, 100
2, 139440, Note_on_c, 0, 76, 0
2, 139440, Note_on_c, 0, 67, 100
2, 139560, Note_on_c, 0, 67, 0
2, 139560, Note_on_c, 0, 76, 100
2, 139680, Note_on_c, 0, 76, 0
2, 139680, Note_on_c, 0, 53, 100
2, 139800, Note_on_c, 0, 53, 0
2, 139800, Note_on_c, 0, 65, 100
2, 139920, Note_on_c, 0, 65, 0
2, 139920, Note_on_c, 0, 63, 100
2, 140040, Note_on_c, 0, 63, 0
2, 140040, Note_on_c, 0, 66, 100
2, 140160, Note_on_c, 0, 66, 0
2, 140160, Note_on_c, 0, 61, 100
2, 140280, Note_on_c, 0, 61, 0
2, 140280, Note_on_c, 0, 65, 100
2, 140400, Note_on_c, 0, 65, 0
2, 140400, Note_on_c, 0, 60, 100
2, 140520, Note_on_c, 0, 60, 0
2, 140520, Note_on_c, 0, 63, 100
2, 140640, Note_on_c, 0, 63, 0
2, 140640, Note_on_c, 0, 53, 100
2, 140760, Note_on_c, 0, 53, 0
2, 140760, Note_on_c, 0, 61, 100
2, 140880, Note_on_c, 0, 61, 0
2, 140880, Note_on_c, 0, 51, 100
2, 141000, Note_on_c, 0, 51, 0
2, 141000, Note_on_c, 0, 60, 100
2, 141120, Note_on_c, 0, 60, 0
2, 141120, Note_on_c, 0, 49, 100
2, 141240, Note_on_c, 0, 49, 0
2, 141240, Note_on_c, 0, 67, 100
2, 141360, Note_on_c, 0, 67, 0
2, 141360, Note_on_c, 0, 65, 100
2, 141480, Note_on_c, 0, 65, 0
2, 141480, Note_on_c, 0, 68, 100
2, 141600, Note_on_c, 0, 68, 0
2, 141600, Note_on_c, 0, 63, 100
2, 141720, Note_on_c, 0, 63, 0
2, 141720, Note_on_c, 0, 67, 100
2, 141840, Note_on_c, 0, 67, 0
2, 141840, Note_on_c, 0, 62, 100
2, 141960, Note_on_c, 0, 62, 0
2, 141960, Note_on_c, 0, 65, 100
2, 142080, Note_on_c, 0, 65, 0
2, 142080, Note_on_c, 0, 55, 100
2, 142200, Note_on_c, 0, 55, 0
2, 142200, Note_on_c, 0, 63, 100
2, 142320, Note_on_c, 0, 63, 0
2, 142320, Note_on_c, 0, 53, 100
2, 142440, Note_on_c, 0, 53, 0
2, 142440, Note_on_c, 0, 62, 100
2, 142560, Note_on_c, 0, 62, 0
2, 142560, Note_on_c, 0, 55, 100
2, 142800, Note_on_c, 0, 55, 0
2, 144240, Note_on_c, 0, 79, 100
2, 144480, Note_on_c, 0, 79, 0
2, 144480, Note_on_c, 0, 84, 100
2, 144960, Note_on_c, 0, 84, 0
2, 144960, Note_on_c, 0, 83, 100
2, 145080, Note_on_c, 0, 83, 0
2, 145080, Note_on_c, 0, 84, 100
2, 145200, Note_on_c, 0, 84, 0
2, 145200, Note_on_c, 0, 86, 100
2, 145320, Note_on_c, 0, 86, 0
2, 145320, Note_on_c, 0, 83, 100
2, 145440, Note_on_c, 0, 83, 0
2, 145440, Note_on_c, 0, 79, 100
2, 146040, Note_on_c, 0, 79, 0
2, 146040, Note_on_c, 0, 79, 100
2, 146160, Note_on_c, 0, 79, 0
2, 146160, Note_on_c, 0, 77, 100
2, 146760, Note_on_c, 0, 77, 0
2, 146760, Note_on_c, 0, 77, 100
2, 146880, Note_on_c, 0, 77, 0
2, 146880, Note_on_c, 0, 75, 100
2, 147480, Note_on_c, 0, 75, 0
2, 147480, Note_on_c, 0, 75, 100
2, 147600, Note_on_c, 0, 75, 0
2, 147600, Note_on_c, 0, 74, 100
2, 148200, Note_on_c, 0, 74, 0
2, 148200, Note_on_c, 0, 74, 100
2, 148320, Note_on_c, 0, 74, 0
2, 148320, Note_on_c, 0, 72, 100
2, 148560, Note_on_c, 0, 72, 0
2, 149760, Note_on_c, 0, 74, 100
2, 150240, Note_on_c, 0, 74, 0
2, 156960, Note_on_c, 0, 68, 100
2, 157680, Note_on_c, 0, 68, 0
2, 157680, Note_on_c, 0, 69, 100
2, 158400, Note_on_c, 0, 69, 0
2, 158400, Note_on_c, 0, 70, 100
2, 159120, Note_on_c, 0, 70, 0
2, 159120, Note_on_c, 0, 71, 100
2, 159840, Note_on_c, 0, 71, 0
2, 159840, Note_on_c, 0, 72, 100
2, 160080, Note_on_c, 0, 72, 0
2, 160080, Note_on_c, 0, 67, 100
2, 160320, Note_on_c, 0, 67, 0
2, 160320, Note_on_c, 0, 72, 100
2, 160800, Note_on_c, 0, 72, 0
2, 160800, Note_on_c, 0, 71, 100
2, 160920, Note_on_c, 0, 71, 0
2, 160920, Note_on_c, 0, 69, 100
2, 161040, Note_on_c, 0, 69, 0
2, 161040, Note_on_c, 0, 71, 100
2, 161280, Note_on_c, 0, 71, 0
2, 161280, Note_on_c, 0, 75, 100
2, 162000, Note_on_c, 0, 75, 0
2, 162000, Note_on_c, 0, 74, 100
2, 162480, Note_on_c, 0, 74, 0
2, 162480, Note_on_c, 0, 79, 100
2, 162720, Note_on_c, 0, 79, 0
2, 162720, Note_on_c, 0, 72, 100
2, 163680, Note_on_c, 0, 72, 0
2, 163680, Note_on_c, 0, 74, 100
2, 163800, Note_on_c, 0, 74, 0
2, 163800, Note_on_c, 0, 72, 100
2, 163920, Note_on_c, 0, 72, 0
2, 163920, Note_on_c, 0, 70, 100
2, 164040, Note_on_c, 0, 70, 0
2, 164040, Note_on_c, 0, 69, 100
2, 164160, Note_on_c, 0, 69, 0
2, 164160, Note_on_c, 0, 70, 100
2, 164640, Note_on_c, 0, 70, 0
2, 164640, Note_on_c, 0, 72, 100
2, 164880, Note_on_c, 0, 72, 0
2, 164880, Note_on_c, 0, 74, 100
2, 165600, Note_on_c, 0, 74, 0
2, 165840, Note_on_c, 0, 74, 100
2, 166080, Note_on_c, 0, 74, 0
2, 166080, Note_on_c, 0, 72, 100
2, 166320, Note_on_c, 0, 72, 0
2, 166320, Note_on_c, 0, 70, 100
2, 166560, Note_on_c, 0, 70, 0
2, 166560, Note_on_c, 0, 69, 100
2, 166800, Note_on_c, 0, 69, 0
2, 166800, Note_on_c, 0, 67, 100
2, 167040, Note_on_c, 0, 67, 0
2, 167040, Note_on_c, 0, 69, 100
2, 167280, Note_on_c, 0, 69, 0
2, 167280, Note_on_c, 0, 75, 100
2, 167520, Note_on_c, 0, 75, 0
2, 167520, Note_on_c, 0, 74, 100
2, 167760, Note_on_c, 0, 74, 0
2, 167760, Note_on_c, 0, 72, 100
2, 168000, Note_on_c, 0, 72, 0
2, 168000, Note_on_c, 0, 70, 100
2, 168240, Note_on_c, 0, 70, 0
2, 168240, Note_on_c, 0, 69, 100
2, 168480, Note_on_c, 0, 69, 0
2, 168480, Note_on_c, 0, 70, 100
2, 169200, Note_on_c, 0, 70, 0
2, 169200, Note_on_c, 0, 69, 100
2, 169920, Note_on_c, 0, 69, 0
2, 169920, Note_on_c, 0, 67, 100
2, 170400, Note_on_c, 0, 67, 0
2, 171840, Note_on_c, 0, 75, 100
2, 172080, Note_on_c, 0, 75, 0
2, 172080, Note_on_c, 0, 74, 100
2, 172560, Note_on_c, 0, 74, 0
2, 172560, Note_on_c, 0, 79, 100
2, 172800, Note_on_c, 0, 79, 0
2, 172800, Note_on_c, 0, 76, 100
2, 173040, Note_on_c, 0, 76, 0
2, 173040, Note_on_c, 0, 72, 100
2, 173280, Note_on_c, 0, 72, 0
2, 173280, Note_on_c, 0, 77, 100
2, 173760, Note_on_c, 0, 77, 0
2, 173760, Note_on_c, 0, 75, 100
2, 173880, Note_on_c, 0, 75, 0
2, 173880, Note_on_c, 0, 74, 100
2, 174000, Note_on_c, 0, 74, 0
2, 174000, Note_on_c, 0, 75, 100
2, 174480, Note_on_c, 0, 75, 0
2, 174480, Note_on_c, 0, 74, 100
2, 174600, Note_on_c, 0, 74, 0
2, 174600, Note_on_c, 0, 72, 100
2, 174720, Note_on_c, 0, 72, 0
2, 174720, Note_on_c, 0, 74, 100
2, 174960, Note_on_c, 0, 74, 0
2, 174960, Note_on_c, 0, 72, 100
2, 175440, Note_on_c, 0, 72, 0
2, 175440, Note_on_c, 0, 72, 100
2, 175680, Note_on_c, 0, 72, 0
2, 175680, Note_on_c, 0, 74, 100
2, 176160, Note_on_c, 0, 74, 0
2, 176160, Note_on_c, 0, 75, 100
2, 176640, Note_on_c, 0, 75, 0
2, 176640, Note_on_c, 0, 74, 100
2, 176760, Note_on_c, 0, 74, 0
2, 176760, Note_on_c, 0, 72, 100
2, 176880, Note_on_c, 0, 72, 0
2, 176880, Note_on_c, 0, 74, 100
2, 177360, Note_on_c, 0, 74, 0
2, 177360, Note_on_c, 0, 67, 100
2, 177600, Note_on_c, 0, 67, 0
2, 177600, Note_on_c, 0, 72, 100
2, 178080, Note_on_c, 0, 72, 0
2, 178080, Note_on_c, 0, 71, 100
2, 178200, Note_on_c, 0, 71, 0
2, 178200, Note_on_c, 0, 69, 100
2, 178320, Note_on_c, 0, 69, 0
2, 178320, Note_on_c, 0, 71, 100
2, 178560, Note_on_c, 0, 71, 0
2, 178560, Note_on_c, 0, 72, 100
2, 178800, Note_on_c, 0, 72, 0
2, 178800, Note_on_c, 0, 75, 100
2, 179040, Note_on_c, 0, 75, 0
2, 179040, Note_on_c, 0, 74, 100
2, 179520, Note_on_c, 0, 74, 0
2, 179520, Note_on_c, 0, 72, 100
2, 179760, Note_on_c, 0, 72, 0
2, 179760, Note_on_c, 0, 71, 100
2, 180000, Note_on_c, 0, 71, 0
2, 180000, Note_on_c, 0, 72, 100
2, 180240, Note_on_c, 0, 72, 0
2, 180240, Note_on_c, 0, 55, 100
2, 180480, Note_on_c, 0, 55, 0
2, 180480, Note_on_c, 0, 53, 100
2, 180720, Note_on_c, 0, 53, 0
2, 180720, Note_on_c, 0, 51, 100
2, 180960, Note_on_c, 0, 51, 0
2, 180960, Note_on_c, 0, 50, 100
2, 181200, Note_on_c, 0, 50, 0
2, 181200, Note_on_c, 0, 48, 100
2, 181440, Note_on_c, 0, 48, 0
2, 181440, Note_on_c, 0, 50, 100
2, 181680, Note_on_c, 0, 50, 0
2, 181680, Note_on_c, 0, 56, 100
2, 181920, Note_on_c, 0, 56, 0
2, 181920, Note_on_c, 0, 55, 100
2, 182160, Note_on_c, 0, 55, 0
2, 182160, Note_on_c, 0, 53, 100
2, 182400, Note_on_c, 0, 53, 0
2, 182400, Note_on_c, 0, 51, 100
2, 182640, Note_on_c, 0, 51, 0
2, 182640, Note_on_c, 0, 50, 100
2, 182880, Note_on_c, 0, 50, 0
2, 182880, Note_on_c, 0, 51, 100
2, 183600, Note_on_c, 0, 51, 0
2, 183600, Note_on_c, 0, 50, 100
2, 184320, Note_on_c, 0, 50, 0
2, 184320, Note_on_c, 0, 48, 100
2, 184800, Note_on_c, 0, 48, 0
2, 186000, Note_on_c, 0, 53, 100
2, 186240, Note_on_c, 0, 53, 0
2, 186240, Note_on_c, 0, 51, 100
2, 186480, Note_on_c, 0, 51, 0
2, 186480, Note_on_c, 0, 50, 100
2, 186720, Note_on_c, 0, 50, 0
2, 186720, Note_on_c, 0, 48, 100
2, 186960, Note_on_c, 0, 48, 0
2, 186960, Note_on_c, 0, 46, 100
2, 187200, Note_on_c, 0, 46, 0
2, 187200, Note_on_c, 0, 51, 100
2, 188400, Note_on_c, 0, 51, 0
2, 188400, Note_on_c, 0, 50, 100
2, 188640, Note_on_c, 0, 50, 0
2, 188640, Note_on_c, 0, 48, 100
2, 189360, Note_on_c, 0, 48, 0
2, 189840, Note_on_c, 0, 48, 100
2, 190080, Note_on_c, 0, 48, 0
2, 190080, Note_on_c, 0, 41, 100
2, 190800, Note_on_c, 0, 41, 0
2, 191280, Note_on_c, 0, 50, 100
2, 191520, Note_on_c, 0, 50, 0
2, 191520, Note_on_c, 0, 43, 100
2, 192000, Note_on_c, 0, 43, 0
2, 192000, Note_on_c, 0, 39, 100
2, 192240, Note_on_c, 0, 39, 0
2, 192240, Note_on_c, 0, 36, 100
2, 192720, Note_on_c, 0, 36, 0
2, 192720, Note_on_c, 0, 38, 100
2, 192960, Note_on_c, 0, 38, 0
2, 192960, Note_on_c, 0, 43, 100
2, 193920, Note_on_c, 0, 43, 0
2, 193920, Note_on_c, 0, 44, 100
2, 194160, Note_on_c, 0, 44, 0
2, 194160, Note_on_c, 0, 46, 100
2, 194400, Note_on_c, 0, 46, 0
2, 194400, Note_on_c, 0, 48, 100
2, 194880, Note_on_c, 0, 48, 0
2, 194880, Note_on_c, 0, 50, 100
2, 195120, Note_on_c, 0, 50, 0
2, 195120, Note_on_c, 0, 52, 100
2, 195840, Note_on_c, 0, 52, 0
2, 195840, Note_on_c, 0, 53, 100
2, 196320, Note_on_c, 0, 53, 0
2, 196560, Note_on_c, 0, 41, 100
2, 196800, Note_on_c, 0, 41, 0
2, 196800, Note_on_c, 0, 43, 100
2, 197040, Note_on_c, 0, 43, 0
2, 197040, Note_on_c, 0, 44, 100
2, 197280, Note_on_c, 0, 44, 0
2, 197280, Note_on_c, 0, 46, 100
2, 197760, Note_on_c, 0, 46, 0
2, 197760, Note_on_c, 0, 48, 100
2, 198000, Note_on_c, 0, 48, 0
2, 198000, Note_on_c, 0, 50, 100
2, 198720, Note_on_c, 0, 50, 0
2, 198720, Note_on_c, 0, 51, 100
2, 199440, Note_on_c, 0, 51, 0
2, 199440, Note_on_c, 0, 58, 100
2, 200160, Note_on_c, 0, 58, 0
2, 200160, Note_on_c, 0, 65, 100
2, 200880, Note_on_c, 0, 65, 0
2, 200880, Note_on_c, 0, 60, 100
2, 201600, Note_on_c, 0, 60, 0
2, 201600, Note_on_c, 0, 67, 100
2, 202320, Note_on_c, 0, 67, 0
2, 202320, Note_on_c, 0, 60, 100
2, 202560, Note_on_c, 0, 60, 0
2, 202560, Note_on_c, 0, 62, 100
2, 202800, Note_on_c, 0, 62, 0
2, 202800, Note_on_c, 0, 63, 100
2, 203040, Note_on_c, 0, 63, 0
2, 203040, Note_on_c, 0, 53, 100
2, 203280, Note_on_c, 0, 53, 0
2, 203280, Note_on_c, 0, 55, 100
2, 203520, Note_on_c, 0, 55, 0
2, 203520, Note_on_c, 0, 56, 100
2, 203760, Note_on_c, 0, 56, 0
2, 203760, Note_on_c, 0, 58, 100
2, 204000, Note_on_c, 0, 58, 0
2, 204000, Note_on_c, 0, 60, 100
2, 204240, Note_on_c, 0, 60, 0
2, 204240, Note_on_c, 0, 62, 100
2, 204480, Note_on_c, 0, 62, 0
2, 204480, Note_on_c, 0, 51, 100
2, 204960, Note_on_c, 0, 51, 0
2, 205440, Note_on_c, 0, 56, 100
2, 205680, Note_on_c, 0, 56, 0
2, 205680, Note_on_c, 0, 55, 100
2, 205920, Note_on_c, 0, 55, 0
2, 205920, Note_on_c, 0, 53, 100
2, 206640, Note_on_c, 0, 53, 0
2, 206880, Note_on_c, 0, 55, 100
2, 207120, Note_on_c, 0, 55, 0
2, 207120, Note_on_c, 0, 53, 100
2, 207360, Note_on_c, 0, 53, 0
2, 207360, Note_on_c, 0, 51, 100
2, 207840, Note_on_c, 0, 51, 0
2, 207840, Note_on_c, 0, 52, 100
2, 208080, Note_on_c, 0, 52, 0
2, 208080, Note_on_c, 0, 53, 100
2, 208560, Note_on_c, 0, 53, 0
2, 208560, Note_on_c, 0, 55, 100
2, 208800, Note_on_c, 0, 55, 0
2, 208800, Note_on_c, 0, 56, 100
2, 209760, Note_on_c, 0, 56, 0
2, 209760, Note_on_c, 0, 55, 100
2, 210000, Note_on_c, 0, 55, 0
2, 210000, Note_on_c, 0, 53, 100
2, 210240, Note_on_c, 0, 53, 0
2, 210240, Note_on_c, 0, 51, 100
2, 210480, Note_on_c, 0, 51, 0
2, 210480, Note_on_c, 0, 50, 100
2, 210720, Note_on_c, 0, 50, 0
2, 210720, Note_on_c, 0, 48, 100
2, 210960, Note_on_c, 0, 48, 0
2, 210960, Note_on_c, 0, 41, 100
2, 211200, Note_on_c, 0, 41, 0
2, 211200, Note_on_c, 0, 43, 100
2, 211440, Note_on_c, 0, 43, 0
2, 211440, Note_on_c, 0, 44, 100
2, 211680, Note_on_c, 0, 44, 0
2, 211680, Note_on_c, 0, 43, 100
2, 211920, Note_on_c, 0, 43, 0
2, 211920, Note_on_c, 0, 41, 100
2, 212160, Note_on_c, 0, 41, 0
2, 212160, Note_on_c, 0, 43, 100
2, 212400, Note_on_c, 0, 43, 0
2, 212400, Note_on_c, 0, 44, 100
2, 212880, Note_on_c, 0, 44, 0
2, 213120, Note_on_c, 0, 32, 100
2, 213600, Note_on_c, 0, 32, 0
2, 213840, Note_on_c, 0, 44, 100
2, 214320, Note_on_c, 0, 44, 0
2, 214560, Note_on_c, 0, 43, 100
2, 215040, Note_on_c, 0, 43, 0
2, 216240, Note_on_c, 0, 48, 100
2, 216480, Note_on_c, 0, 48, 0
2, 216480, Note_on_c, 0, 50, 100
2, 216720, Note_on_c, 0, 50, 0
2, 216720, Note_on_c, 0, 51, 100
2, 216960, Note_on_c, 0, 51, 0
2, 216960, Note_on_c, 0, 53, 100
2, 217200, Note_on_c, 0, 53, 0
2, 217200, Note_on_c, 0, 55, 100
2, 217440, Note_on_c, 0, 55, 0
2, 217440, Note_on_c, 0, 44, 100
2, 218640, Note_on_c, 0, 44, 0
2, 218640, Note_on_c, 0, 43, 100
2, 218880, Note_on_c, 0, 43, 0
2, 218880, Note_on_c, 0, 41, 100
2, 219120, Note_on_c, 0, 41, 0
2, 219120, Note_on_c, 0, 55, 100
2, 219360, Note_on_c, 0, 55, 0
2, 219360, Note_on_c, 0, 53, 100
2, 219600, Note_on_c, 0, 53, 0
2, 219600, Note_on_c, 0, 51, 100
2, 219840, Note_on_c, 0, 51, 0
2, 219840, Note_on_c, 0, 50, 100
2, 220080, Note_on_c, 0, 50, 0
2, 220080, Note_on_c, 0, 48, 100
2, 220320, Note_on_c, 0, 48, 0
2, 220320, Note_on_c, 0, 50, 100
2, 220800, Note_on_c, 0, 50, 0
2, 221040, Note_on_c, 0, 55, 100
2, 221520, Note_on_c, 0, 55, 0
2, 221760, Note_on_c, 0, 48, 100
2, 222240, Note_on_c, 0, 48, 0
2, 222240, Note_on_c, 0, 44, 100
2, 222480, Note_on_c, 0, 44, 0
2, 222480, Note_on_c, 0, 41, 100
2, 222720, Note_on_c, 0, 41, 0
2, 222720, Note_on_c, 0, 43, 100
2, 222960, Note_on_c, 0, 43, 0
2, 222960, Note_on_c, 0, 41, 100
2, 223200, Note_on_c, 0, 41, 0
2, 223200, Note_on_c, 0, 39, 100
2, 223440, Note_on_c, 0, 39, 0
2, 223440, Note_on_c, 0, 44, 100
2, 223680, Note_on_c, 0, 44, 0
2, 223680, Note_on_c, 0, 41, 100
2, 223920, Note_on_c, 0, 41, 0
2, 223920, Note_on_c, 0, 43, 100
2, 224640, Note_on_c, 0, 43, 0
2, 224640, Note_on_c, 0, 36, 100
2, 225120, Note_on_c, 0, 36, 0
2, 225120, End_track
3, 0, Start_track
3, 0, MIDI_port, 0
3, 0, Title_t, "--------------------------------------"
3, 0, Program_c, 1, 24
3, 0, Control_c, 1, 7, 100
3, 0, Control_c, 1, 10, 69
3, 1680, Note_on_c, 1, 67, 100
3, 1920, Note_on_c, 1, 67, 0
3, 1920, Note_on_c, 1, 65, 100
3, 2160, Note_on_c, 1, 65, 0
3, 2160, Note_on_c, 1, 63, 100
3, 2400, Note_on_c, 1, 63, 0
3, 2400, Note_on_c, 1, 62, 100
3, 2640, Note_on_c, 1, 62, 0
3, 2640, Note_on_c, 1, 60, 100
3, 2880, Note_on_c, 1, 60, 0
3, 2880, Note_on_c, 1, 62, 100
3, 3120, Note_on_c, 1, 62, 0
3, 3120, Note_on_c, 1, 68, 100
3, 3360, Note_on_c, 1, 68, 0
3, 3360, Note_on_c, 1, 67, 100
3, 3600, Note_on_c, 1, 67, 0
3, 3600, Note_on_c, 1, 65, 100
3, 3840, Note_on_c, 1, 65, 0
3, 3840, Note_on_c, 1, 63, 100
3, 4080, Note_on_c, 1, 63, 0
3, 4080, Note_on_c, 1, 62, 100
3, 4320, Note_on_c, 1, 62, 0
3, 4320, Note_on_c, 1, 63, 100
3, 5040, Note_on_c, 1, 63, 0
3, 5040, Note_on_c, 1, 62, 100
3, 5760, Note_on_c, 1, 62, 0
3, 5760, Note_on_c, 1, 60, 100
3, 6000, Note_on_c, 1, 60, 0
3, 6000, Note_on_c, 1, 67, 100
3, 6240, Note_on_c, 1, 67, 0
3, 6240, Note_on_c, 1, 72, 100
3, 6720, Note_on_c, 1, 72, 0
3, 6720, Note_on_c, 1, 70, 100
3, 6840, Note_on_c, 1, 70, 0
3, 6840, Note_on_c, 1, 69, 100
3, 6960, Note_on_c, 1, 69, 0
3, 6960, Note_on_c, 1, 70, 100
3, 7440, Note_on_c, 1, 70, 0
3, 7440, Note_on_c, 1, 69, 100
3, 7680, Note_on_c, 1, 69, 0
3, 7680, Note_on_c, 1, 67, 100
3, 7920, Note_on_c, 1, 67, 0
3, 7920, Note_on_c, 1, 66, 100
3, 8640, Note_on_c, 1, 66, 0
3, 8880, Note_on_c, 1, 79, 100
3, 9120, Note_on_c, 1, 79, 0
3, 9120, Note_on_c, 1, 81, 100
3, 9360, Note_on_c, 1, 81, 0
3, 9360, Note_on_c, 1, 82, 100
3, 9600, Note_on_c, 1, 82, 0
3, 9600, Note_on_c, 1, 84, 100
3, 9840, Note_on_c, 1, 84, 0
3, 9840, Note_on_c, 1, 86, 100
3, 10080, Note_on_c, 1, 86, 0
3, 10080, Note_on_c, 1, 75, 100
3, 10800, Note_on_c, 1, 75, 0
3, 10800, Note_on_c, 1, 76, 100
3, 11520, Note_on_c, 1, 76, 0
3, 11520, Note_on_c, 1, 77, 100
3, 12240, Note_on_c, 1, 77, 0
3, 12240, Note_on_c, 1, 78, 100
3, 12960, Note_on_c, 1, 78, 0
3, 12960, Note_on_c, 1, 79, 100
3, 13200, Note_on_c, 1, 79, 0
3, 13200, Note_on_c, 1, 74, 100
3, 13440, Note_on_c, 1, 74, 0
3, 13440, Note_on_c, 1, 79, 100
3, 13920, Note_on_c, 1, 79, 0
3, 13920, Note_on_c, 1, 78, 100
3, 14040, Note_on_c, 1, 78, 0
3, 14040, Note_on_c, 1, 76, 100
3, 14160, Note_on_c, 1, 76, 0
3, 14160, Note_on_c, 1, 78, 100
3, 14400, Note_on_c, 1, 78, 0
3, 14400, Note_on_c, 1, 82, 100
3, 15120, Note_on_c, 1, 82, 0
3, 15120, Note_on_c, 1, 81, 100
3, 15600, Note_on_c, 1, 81, 0
3, 15600, Note_on_c, 1, 86, 100
3, 15840, Note_on_c, 1, 86, 0
3, 15840, Note_on_c, 1, 83, 100
3, 16080, Note_on_c, 1, 83, 0
3, 16080, Note_on_c, 1, 79, 100
3, 16320, Note_on_c, 1, 79, 0
3, 16320, Note_on_c, 1, 84, 100
3, 16800, Note_on_c, 1, 84, 0
3, 16800, Note_on_c, 1, 82, 100
3, 16920, Note_on_c, 1, 82, 0
3, 16920, Note_on_c, 1, 80, 100
3, 17040, Note_on_c, 1, 80, 0
3, 17040, Note_on_c, 1, 82, 100
3, 17760, Note_on_c, 1, 82, 0
3, 17760, Note_on_c, 1, 80, 100
3, 18000, Note_on_c, 1, 80, 0
3, 18000, Note_on_c, 1, 79, 100
3, 18480, Note_on_c, 1, 79, 0
3, 18480, Note_on_c, 1, 84, 100
3, 18720, Note_on_c, 1, 84, 0
3, 18720, Note_on_c, 1, 77, 100
3, 19440, Note_on_c, 1, 77, 0
3, 19440, Note_on_c, 1, 75, 100
3, 19680, Note_on_c, 1, 75, 0
3, 19680, Note_on_c, 1, 77, 100
3, 20400, Note_on_c, 1, 77, 0
3, 20400, Note_on_c, 1, 82, 100
3, 20880, Note_on_c, 1, 82, 0
3, 20880, Note_on_c, 1, 80, 100
3, 21600, Note_on_c, 1, 80, 0
3, 21600, Note_on_c, 1, 79, 100
3, 22320, Note_on_c, 1, 79, 0
3, 22320, Note_on_c, 1, 77, 100
3, 23040, Note_on_c, 1, 77, 0
3, 23040, Note_on_c, 1, 75, 100
3, 23280, Note_on_c, 1, 75, 0
3, 23280, Note_on_c, 1, 79, 100
3, 23520, Note_on_c, 1, 79, 0
3, 23520, Note_on_c, 1, 77, 100
3, 24000, Note_on_c, 1, 77, 0
3, 24000, Note_on_c, 1, 75, 100
3, 24240, Note_on_c, 1, 75, 0
3, 24240, Note_on_c, 1, 74, 100
3, 24480, Note_on_c, 1, 74, 0
3, 24480, Note_on_c, 1, 72, 100
3, 25200, Note_on_c, 1, 72, 0
3, 25680, Note_on_c, 1, 77, 100
3, 26160, Note_on_c, 1, 77, 0
3, 26160, Note_on_c, 1, 74, 100
3, 26400, Note_on_c, 1, 74, 0
3, 26400, Note_on_c, 1, 75, 100
3, 26640, Note_on_c, 1, 75, 0
3, 26640, Note_on_c, 1, 74, 100
3, 27600, Note_on_c, 1, 74, 0
3, 27600, Note_on_c, 1, 72, 100
3, 27720, Note_on_c, 1, 72, 0
3, 27720, Note_on_c, 1, 71, 100
3, 27840, Note_on_c, 1, 71, 0
3, 27840, Note_on_c, 1, 72, 100
3, 28080, Note_on_c, 1, 72, 0
3, 28080, Note_on_c, 1, 77, 100
3, 29040, Note_on_c, 1, 77, 0
3, 29040, Note_on_c, 1, 75, 100
3, 29160, Note_on_c, 1, 75, 0
3, 29160, Note_on_c, 1, 74, 100
3, 29280, Note_on_c, 1, 74, 0
3, 29280, Note_on_c, 1, 75, 100
3, 29400, Note_on_c, 1, 75, 0
3, 29400, Note_on_c, 1, 77, 100
3, 29520, Note_on_c, 1, 77, 0
3, 29520, Note_on_c, 1, 79, 100
3, 30480, Note_on_c, 1, 79, 0
3, 30480, Note_on_c, 1, 77, 100
3, 30600, Note_on_c, 1, 77, 0
3, 30600, Note_on_c, 1, 75, 100
3, 30720, Note_on_c, 1, 75, 0
3, 30720, Note_on_c, 1, 77, 100
3, 30840, Note_on_c, 1, 77, 0
3, 30840, Note_on_c, 1, 79, 100
3, 30960, Note_on_c, 1, 79, 0
3, 30960, Note_on_c, 1, 80, 100
3, 31920, Note_on_c, 1, 80, 0
3, 31920, Note_on_c, 1, 82, 100
3, 32040, Note_on_c, 1, 82, 0
3, 32040, Note_on_c, 1, 80, 100
3, 32160, Note_on_c, 1, 80, 0
3, 32160, Note_on_c, 1, 79, 100
3, 32280, Note_on_c, 1, 79, 0
3, 32280, Note_on_c, 1, 77, 100
3, 32400, Note_on_c, 1, 77, 0
3, 32400, Note_on_c, 1, 79, 100
3, 32640, Note_on_c, 1, 79, 0
3, 32640, Note_on_c, 1, 81, 100
3, 32880, Note_on_c, 1, 81, 0
3, 32880, Note_on_c, 1, 82, 100
3, 33360, Note_on_c, 1, 82, 0
3, 33360, Note_on_c, 1, 86, 100
3, 33600, Note_on_c, 1, 86, 0
3, 33600, Note_on_c, 1, 84, 100
3, 33840, Note_on_c, 1, 84, 0
3, 33840, Note_on_c, 1, 82, 100
3, 34080, Note_on_c, 1, 82, 0
3, 34080, Note_on_c, 1, 81, 100
3, 34320, Note_on_c, 1, 81, 0
3, 34320, Note_on_c, 1, 79, 100
3, 34560, Note_on_c, 1, 79, 0
3, 34560, Note_on_c, 1, 81, 100
3, 34800, Note_on_c, 1, 81, 0
3, 34800, Note_on_c, 1, 87, 100
3, 35040, Note_on_c, 1, 87, 0
3, 35040, Note_on_c, 1, 86, 100
3, 35280, Note_on_c, 1, 86, 0
3, 35280, Note_on_c, 1, 84, 100
3, 35520, Note_on_c, 1, 84, 0
3, 35520, Note_on_c, 1, 82, 100
3, 35760, Note_on_c, 1, 82, 0
3, 35760, Note_on_c, 1, 81, 100
3, 36000, Note_on_c, 1, 81, 0
3, 36000, Note_on_c, 1, 82, 100
3, 36720, Note_on_c, 1, 82, 0
3, 36720, Note_on_c, 1, 81, 100
3, 37440, Note_on_c, 1, 81, 0
3, 37440, Note_on_c, 1, 82, 100
3, 37920, Note_on_c, 1, 82, 0
3, 39120, Note_on_c, 1, 73, 100
3, 39360, Note_on_c, 1, 73, 0
3, 39360, Note_on_c, 1, 72, 100
3, 39600, Note_on_c, 1, 72, 0
3, 39600, Note_on_c, 1, 70, 100
3, 39840, Note_on_c, 1, 70, 0
3, 39840, Note_on_c, 1, 68, 100
3, 40080, Note_on_c, 1, 68, 0
3, 40080, Note_on_c, 1, 67, 100
3, 40320, Note_on_c, 1, 67, 0
3, 40320, Note_on_c, 1, 68, 100
3, 40800, Note_on_c, 1, 68, 0
3, 42000, Note_on_c, 1, 72, 100
3, 42240, Note_on_c, 1, 72, 0
3, 42240, Note_on_c, 1, 70, 100
3, 42480, Note_on_c, 1, 70, 0
3, 42480, Note_on_c, 1, 68, 100
3, 42720, Note_on_c, 1, 68, 0
3, 42720, Note_on_c, 1, 67, 100
3, 42960, Note_on_c, 1, 67, 0
3, 42960, Note_on_c, 1, 65, 100
3, 43200, Note_on_c, 1, 65, 0
3, 43200, Note_on_c, 1, 67, 100
3, 43920, Note_on_c, 1, 67, 0
3, 44160, Note_on_c, 1, 65, 100
3, 44400, Note_on_c, 1, 65, 0
3, 44400, Note_on_c, 1, 70, 100
3, 44880, Note_on_c, 1, 70, 0
3, 44880, Note_on_c, 1, 68, 100
3, 45000, Note_on_c, 1, 68, 0
3, 45000, Note_on_c, 1, 67, 100
3, 45120, Note_on_c, 1, 67, 0
3, 45120, Note_on_c, 1, 68, 100
3, 45240, Note_on_c, 1, 68, 0
3, 45240, Note_on_c, 1, 70, 100
3, 45360, Note_on_c, 1, 70, 0
3, 45360, Note_on_c, 1, 67, 100
3, 45840, Note_on_c, 1, 67, 0
3, 45840, Note_on_c, 1, 72, 100
3, 46320, Note_on_c, 1, 72, 0
3, 46320, Note_on_c, 1, 71, 100
3, 46440, Note_on_c, 1, 71, 0
3, 46440, Note_on_c, 1, 69, 100
3, 46560, Note_on_c, 1, 69, 0
3, 46560, Note_on_c, 1, 71, 100
3, 46800, Note_on_c, 1, 71, 0
3, 46800, Note_on_c, 1, 72, 100
3, 47280, Note_on_c, 1, 72, 0
3, 49200, Note_on_c, 1, 87, 100
3, 49440, Note_on_c, 1, 87, 0
3, 49440, Note_on_c, 1, 86, 100
3, 49680, Note_on_c, 1, 86, 0
3, 49680, Note_on_c, 1, 84, 100
3, 50400, Note_on_c, 1, 84, 0
3, 50640, Note_on_c, 1, 86, 100
3, 50880, Note_on_c, 1, 86, 0
3, 50880, Note_on_c, 1, 84, 100
3, 51120, Note_on_c, 1, 84, 0
3, 51120, Note_on_c, 1, 83, 100
3, 51840, Note_on_c, 1, 83, 0
3, 52080, Note_on_c, 1, 84, 100
3, 52320, Note_on_c, 1, 84, 0
3, 52320, Note_on_c, 1, 82, 100
3, 52560, Note_on_c, 1, 82, 0
3, 52560, Note_on_c, 1, 80, 100
3, 53040, Note_on_c, 1, 80, 0
3, 53040, Note_on_c, 1, 79, 100
3, 53280, Note_on_c, 1, 79, 0
3, 53280, Note_on_c, 1, 77, 100
3, 54240, Note_on_c, 1, 77, 0
3, 54240, Note_on_c, 1, 75, 100
3, 54480, Note_on_c, 1, 75, 0
3, 54480, Note_on_c, 1, 74, 100
3, 54720, Note_on_c, 1, 74, 0
3, 54720, Note_on_c, 1, 79, 100
3, 54960, Note_on_c, 1, 79, 0
3, 54960, Note_on_c, 1, 77, 100
3, 55200, Note_on_c, 1, 77, 0
3, 55200, Note_on_c, 1, 75, 100
3, 55440, Note_on_c, 1, 75, 0
3, 55440, Note_on_c, 1, 80, 100
3, 55680, Note_on_c, 1, 80, 0
3, 55680, Note_on_c, 1, 79, 100
3, 55920, Note_on_c, 1, 79, 0
3, 55920, Note_on_c, 1, 77, 100
3, 56160, Note_on_c, 1, 77, 0
3, 56160, Note_on_c, 1, 75, 100
3, 56400, Note_on_c, 1, 75, 0
3, 56400, Note_on_c, 1, 77, 100
3, 56640, Note_on_c, 1, 77, 0
3, 56640, Note_on_c, 1, 75, 100
3, 56680, Note_on_c, 1, 75, 0
3, 56680, Note_on_c, 1, 74, 100
3, 56720, Note_on_c, 1, 74, 0
3, 56720, Note_on_c, 1, 75, 100
3, 56760, Note_on_c, 1, 75, 0
3, 56760, Note_on_c, 1, 74, 100
3, 56880, Note_on_c, 1, 74, 0
3, 56880, Note_on_c, 1, 72, 100
3, 57120, Note_on_c, 1, 72, 0
3, 57120, Note_on_c, 1, 84, 100
3, 57240, Note_on_c, 1, 84, 0
3, 57240, Note_on_c, 1, 82, 100
3, 57360, Note_on_c, 1, 82, 0
3, 57360, Note_on_c, 1, 80, 100
3, 57480, Note_on_c, 1, 80, 0
3, 57480, Note_on_c, 1, 79, 100
3, 57600, Note_on_c, 1, 79, 0
3, 57600, Note_on_c, 1, 77, 100
3, 57720, Note_on_c, 1, 77, 0
3, 57720, Note_on_c, 1, 79, 100
3, 57840, Note_on_c, 1, 79, 0
3, 57840, Note_on_c, 1, 80, 100
3, 57960, Note_on_c, 1, 80, 0
3, 57960, Note_on_c, 1, 79, 100
3, 58080, Note_on_c, 1, 79, 0
3, 58080, Note_on_c, 1, 77, 100
3, 58200, Note_on_c, 1, 77, 0
3, 58200, Note_on_c, 1, 75, 100
3, 58320, Note_on_c, 1, 75, 0
3, 58320, Note_on_c, 1, 74, 100
3, 58440, Note_on_c, 1, 74, 0
3, 58440, Note_on_c, 1, 75, 100
3, 58560, Note_on_c, 1, 75, 0
3, 58560, Note_on_c, 1, 77, 100
3, 58680, Note_on_c, 1, 77, 0
3, 58680, Note_on_c, 1, 75, 100
3, 58800, Note_on_c, 1, 75, 0
3, 58800, Note_on_c, 1, 74, 100
3, 58920, Note_on_c, 1, 74, 0
3, 58920, Note_on_c, 1, 72, 100
3, 59040, Note_on_c, 1, 72, 0
3, 59040, Note_on_c, 1, 79, 100
3, 61440, Note_on_c, 1, 79, 0
3, 61440, Note_on_c, 1, 81, 100
3, 61680, Note_on_c, 1, 81, 0
3, 61680, Note_on_c, 1, 83, 100
3, 61920, Note_on_c, 1, 83, 0
3, 61920, Note_on_c, 1, 84, 100
3, 62880, Note_on_c, 1, 84, 0
3, 62880, Note_on_c, 1, 86, 100
3, 63120, Note_on_c, 1, 86, 0
3, 63120, Note_on_c, 1, 87, 100
3, 63360, Note_on_c, 1, 87, 0
3, 63360, Note_on_c, 1, 80, 100
3, 64080, Note_on_c, 1, 80, 0
3, 64080, Note_on_c, 1, 81, 100
3, 64800, Note_on_c, 1, 81, 0
3, 64800, Note_on_c, 1, 82, 100
3, 65520, Note_on_c, 1, 82, 0
3, 65520, Note_on_c, 1, 83, 100
3, 66240, Note_on_c, 1, 83, 0
3, 66240, Note_on_c, 1, 84, 100
3, 66480, Note_on_c, 1, 84, 0
3, 66480, Note_on_c, 1, 79, 100
3, 66720, Note_on_c, 1, 79, 0
3, 66720, Note_on_c, 1, 84, 100
3, 67200, Note_on_c, 1, 84, 0
3, 67200, Note_on_c, 1, 83, 100
3, 67320, Note_on_c, 1, 83, 0
3, 67320, Note_on_c, 1, 81, 100
3, 67440, Note_on_c, 1, 81, 0
3, 67440, Note_on_c, 1, 83, 100
3, 67680, Note_on_c, 1, 83, 0
3, 67680, Note_on_c, 1, 84, 100
3, 67920, Note_on_c, 1, 84, 0
3, 67920, Note_on_c, 1, 72, 100
3, 68160, Note_on_c, 1, 72, 0
3, 68160, Note_on_c, 1, 77, 100
3, 68400, Note_on_c, 1, 77, 0
3, 68400, Note_on_c, 1, 75, 100
3, 68520, Note_on_c, 1, 75, 0
3, 68520, Note_on_c, 1, 74, 100
3, 68640, Note_on_c, 1, 74, 0
3, 68640, Note_on_c, 1, 75, 100
3, 68700, Note_on_c, 1, 75, 0
3, 68700, Note_on_c, 1, 74, 100
3, 68760, Note_on_c, 1, 74, 0
3, 68760, Note_on_c, 1, 75, 100
3, 68820, Note_on_c, 1, 75, 0
3, 68820, Note_on_c, 1, 74, 100
3, 68880, Note_on_c, 1, 74, 0
3, 68880, Note_on_c, 1, 75, 100
3, 68940, Note_on_c, 1, 75, 0
3, 68940, Note_on_c, 1, 74, 100
3, 69000, Note_on_c, 1, 74, 0
3, 69000, Note_on_c, 1, 72, 100
3, 69120, Note_on_c, 1, 72, 0
3, 69120, Note_on_c, 1, 72, 100
3, 69600, Note_on_c, 1, 72, 0
3, 69600, Note_on_c, 1, 75, 100
3, 69840, Note_on_c, 1, 75, 0
3, 69840, Note_on_c, 1, 74, 100
3, 69960, Note_on_c, 1, 74, 0
3, 69960, Note_on_c, 1, 75, 100
3, 70080, Note_on_c, 1, 75, 0
3, 70080, Note_on_c, 1, 77, 100
3, 70200, Note_on_c, 1, 77, 0
3, 70200, Note_on_c, 1, 80, 100
3, 70320, Note_on_c, 1, 80, 0
3, 70320, Note_on_c, 1, 79, 100
3, 70440, Note_on_c, 1, 79, 0
3, 70440, Note_on_c, 1, 77, 100
3, 70560, Note_on_c, 1, 77, 0
3, 70560, Note_on_c, 1, 75, 100
3, 70680, Note_on_c, 1, 75, 0
3, 70680, Note_on_c, 1, 74, 100
3, 70800, Note_on_c, 1, 74, 0
3, 70800, Note_on_c, 1, 72, 100
3, 70920, Note_on_c, 1, 72, 0
3, 70920, Note_on_c, 1, 71, 100
3, 71040, Note_on_c, 1, 71, 0
3, 71040, Note_on_c, 1, 72, 100
3, 71160, Note_on_c, 1, 72, 0
3, 71160, Note_on_c, 1, 67, 100
3, 71280, Note_on_c, 1, 67, 0
3, 71280, Note_on_c, 1, 65, 100
3, 71400, Note_on_c, 1, 65, 0
3, 71400, Note_on_c, 1, 68, 100
3, 71520, Note_on_c, 1, 68, 0
3, 71520, Note_on_c, 1, 67, 100
3, 71640, Note_on_c, 1, 67, 0
3, 71640, Note_on_c, 1, 65, 100
3, 71760, Note_on_c, 1, 65, 0
3, 71760, Note_on_c, 1, 63, 100
3, 71880, Note_on_c, 1, 63, 0
3, 71880, Note_on_c, 1, 62, 100
3, 72000, Note_on_c, 1, 62, 0
3, 72000, Note_on_c, 1, 65, 100
3, 72120, Note_on_c, 1, 65, 0
3, 72120, Note_on_c, 1, 63, 100
3, 72240, Note_on_c, 1, 63, 0
3, 72240, Note_on_c, 1, 62, 100
3, 72360, Note_on_c, 1, 62, 0
3, 72360, Note_on_c, 1, 60, 100
3, 72480, Note_on_c, 1, 60, 0
3, 72480, Note_on_c, 1, 79, 100
3, 72720, Note_on_c, 1, 79, 0
3, 72720, Note_on_c, 1, 77, 100
3, 72840, Note_on_c, 1, 77, 0
3, 72840, Note_on_c, 1, 79, 100
3, 72960, Note_on_c, 1, 79, 0
3, 72960, Note_on_c, 1, 80, 100
3, 73080, Note_on_c, 1, 80, 0
3, 73080, Note_on_c, 1, 84, 100
3, 73200, Note_on_c, 1, 84, 0
3, 73200, Note_on_c, 1, 82, 100
3, 73320, Note_on_c, 1, 82, 0
3, 73320, Note_on_c, 1, 80, 100
3, 73440, Note_on_c, 1, 80, 0
3, 73440, Note_on_c, 1, 79, 100
3, 73560, Note_on_c, 1, 79, 0
3, 73560, Note_on_c, 1, 77, 100
3, 73680, Note_on_c, 1, 77, 0
3, 73680, Note_on_c, 1, 75, 100
3, 73800, Note_on_c, 1, 75, 0
3, 73800, Note_on_c, 1, 74, 100
3, 73920, Note_on_c, 1, 74, 0
3, 73920, Note_on_c, 1, 75, 100
3, 74040, Note_on_c, 1, 75, 0
3, 74040, Note_on_c, 1, 70, 100
3, 74160, Note_on_c, 1, 70, 0
3, 74160, Note_on_c, 1, 72, 100
3, 74280, Note_on_c, 1, 72, 0
3, 74280, Note_on_c, 1, 75, 100
3, 74400, Note_on_c, 1, 75, 0
3, 74400, Note_on_c, 1, 74, 100
3, 74520, Note_on_c, 1, 74, 0
3, 74520, Note_on_c, 1, 72, 100
3, 74640, Note_on_c, 1, 72, 0
3, 74640, Note_on_c, 1, 70, 100
3, 74760, Note_on_c, 1, 70, 0
3, 74760, Note_on_c, 1, 68, 100
3, 74880, Note_on_c, 1, 68, 0
3, 74880, Note_on_c, 1, 68, 100
3, 75000, Note_on_c, 1, 68, 0
3, 75000, Note_on_c, 1, 67, 100
3, 75120, Note_on_c, 1, 67, 0
3, 75120, Note_on_c, 1, 65, 100
3, 75240, Note_on_c, 1, 65, 0
3, 75240, Note_on_c, 1, 63, 100
3, 75360, Note_on_c, 1, 63, 0
3, 75360, Note_on_c, 1, 82, 100
3, 75480, Note_on_c, 1, 82, 0
3, 75480, Note_on_c, 1, 70, 100
3, 75600, Note_on_c, 1, 70, 0
3, 75600, Note_on_c, 1, 73, 100
3, 75720, Note_on_c, 1, 73, 0
3, 75720, Note_on_c, 1, 72, 100
3, 75840, Note_on_c, 1, 72, 0
3, 75840, Note_on_c, 1, 70, 100
3, 75960, Note_on_c, 1, 70, 0
3, 75960, Note_on_c, 1, 68, 100
3, 76080, Note_on_c, 1, 68, 0
3, 76080, Note_on_c, 1, 80, 100
3, 76200, Note_on_c, 1, 80, 0
3, 76200, Note_on_c, 1, 72, 100
3, 76320, Note_on_c, 1, 72, 0
3, 76320, Note_on_c, 1, 75, 100
3, 76440, Note_on_c, 1, 75, 0
3, 76440, Note_on_c, 1, 74, 100
3, 76560, Note_on_c, 1, 74, 0
3, 76560, Note_on_c, 1, 72, 100
3, 76680, Note_on_c, 1, 72, 0
3, 76680, Note_on_c, 1, 70, 100
3, 76800, Note_on_c, 1, 70, 0
3, 76800, Note_on_c, 1, 79, 100
3, 76920, Note_on_c, 1, 79, 0
3, 76920, Note_on_c, 1, 74, 100
3, 77040, Note_on_c, 1, 74, 0
3, 77040, Note_on_c, 1, 77, 100
3, 77160, Note_on_c, 1, 77, 0
3, 77160, Note_on_c, 1, 75, 100
3, 77280, Note_on_c, 1, 75, 0
3, 77280, Note_on_c, 1, 74, 100
3, 77400, Note_on_c, 1, 74, 0
3, 77400, Note_on_c, 1, 72, 100
3, 77520, Note_on_c, 1, 72, 0
3, 77520, Note_on_c, 1, 84, 100
3, 77760, Note_on_c, 1, 84, 0
3, 77760, Note_on_c, 1, 84, 100
3, 78120, Note_on_c, 1, 84, 0
3, 78120, Note_on_c, 1, 82, 100
3, 78240, Note_on_c, 1, 82, 0
3, 78240, Note_on_c, 1, 81, 100
3, 78360, Note_on_c, 1, 81, 0
3, 78360, Note_on_c, 1, 84, 100
3, 78480, Note_on_c, 1, 84, 0
3, 78480, Note_on_c, 1, 82, 100
3, 78600, Note_on_c, 1, 82, 0
3, 78600, Note_on_c, 1, 81, 100
3, 78720, Note_on_c, 1, 81, 0
3, 78720, Note_on_c, 1, 79, 100
3, 78840, Note_on_c, 1, 79, 0
3, 78840, Note_on_c, 1, 77, 100
3, 78960, Note_on_c, 1, 77, 0
3, 78960, Note_on_c, 1, 75, 100
3, 79080, Note_on_c, 1, 75, 0
3, 79080, Note_on_c, 1, 74, 100
3, 79200, Note_on_c, 1, 74, 0
3, 79200, Note_on_c, 1, 75, 100
3, 79440, Note_on_c, 1, 75, 0
3, 79440, Note_on_c, 1, 86, 100
3, 79680, Note_on_c, 1, 86, 0
3, 79680, Note_on_c, 1, 84, 100
3, 79920, Note_on_c, 1, 84, 0
3, 79920, Note_on_c, 1, 82, 100
3, 80160, Note_on_c, 1, 82, 0
3, 80160, Note_on_c, 1, 81, 100
3, 80400, Note_on_c, 1, 81, 0
3, 80400, Note_on_c, 1, 79, 100
3, 80640, Note_on_c, 1, 79, 0
3, 80640, Note_on_c, 1, 78, 100
3, 80880, Note_on_c, 1, 78, 0
3, 80880, Note_on_c, 1, 87, 100
3, 81120, Note_on_c, 1, 87, 0
3, 81120, Note_on_c, 1, 86, 100
3, 81360, Note_on_c, 1, 86, 0
3, 81360, Note_on_c, 1, 84, 100
3, 81600, Note_on_c, 1, 84, 0
3, 81600, Note_on_c, 1, 82, 100
3, 81840, Note_on_c, 1, 82, 0
3, 81840, Note_on_c, 1, 81, 100
3, 82080, Note_on_c, 1, 81, 0
3, 82080, Note_on_c, 1, 82, 100
3, 82200, Note_on_c, 1, 82, 0
3, 82200, Note_on_c, 1, 81, 100
3, 82320, Note_on_c, 1, 81, 0
3, 82320, Note_on_c, 1, 79, 100
3, 82440, Note_on_c, 1, 79, 0
3, 82440, Note_on_c, 1, 78, 100
3, 82560, Note_on_c, 1, 78, 0
3, 82560, Note_on_c, 1, 79, 100
3, 82680, Note_on_c, 1, 79, 0
3, 82680, Note_on_c, 1, 70, 100
3, 82800, Note_on_c, 1, 70, 0
3, 82800, Note_on_c, 1, 69, 100
3, 82920, Note_on_c, 1, 69, 0
3, 82920, Note_on_c, 1, 67, 100
3, 83040, Note_on_c, 1, 67, 0
3, 83040, Note_on_c, 1, 69, 100
3, 83160, Note_on_c, 1, 69, 0
3, 83160, Note_on_c, 1, 72, 100
3, 83280, Note_on_c, 1, 72, 0
3, 83280, Note_on_c, 1, 79, 100
3, 83400, Note_on_c, 1, 79, 0
3, 83400, Note_on_c, 1, 78, 100
3, 83520, Note_on_c, 1, 78, 0
3, 83520, Note_on_c, 1, 79, 100
3, 83760, Note_on_c, 1, 79, 0
3, 83760, Note_on_c, 1, 74, 100
3, 84000, Note_on_c, 1, 74, 0
3, 84000, Note_on_c, 1, 72, 100
3, 84240, Note_on_c, 1, 72, 0
3, 84240, Note_on_c, 1, 70, 100
3, 84480, Note_on_c, 1, 70, 0
3, 84480, Note_on_c, 1, 69, 100
3, 84720, Note_on_c, 1, 69, 0
3, 84720, Note_on_c, 1, 67, 100
3, 84960, Note_on_c, 1, 67, 0
3, 84960, Note_on_c, 1, 78, 100
3, 85680, Note_on_c, 1, 78, 0
3, 85680, Note_on_c, 1, 77, 100
3, 86400, Note_on_c, 1, 77, 0
3, 86400, Note_on_c, 1, 76, 100
3, 87120, Note_on_c, 1, 76, 0
3, 87120, Note_on_c, 1, 75, 100
3, 87840, Note_on_c, 1, 75, 0
3, 87840, Note_on_c, 1, 74, 100
3, 88080, Note_on_c, 1, 74, 0
3, 88080, Note_on_c, 1, 79, 100
3, 88320, Note_on_c, 1, 79, 0
3, 88320, Note_on_c, 1, 72, 100
3, 88800, Note_on_c, 1, 72, 0
3, 88800, Note_on_c, 1, 74, 100
3, 88920, Note_on_c, 1, 74, 0
3, 88920, Note_on_c, 1, 75, 100
3, 89040, Note_on_c, 1, 75, 0
3, 89040, Note_on_c, 1, 77, 100
3, 89160, Note_on_c, 1, 77, 0
3, 89160, Note_on_c, 1, 74, 100
3, 89280, Note_on_c, 1, 74, 0
3, 89280, Note_on_c, 1, 75, 100
3, 89400, Note_on_c, 1, 75, 0
3, 89400, Note_on_c, 1, 74, 100
3, 89520, Note_on_c, 1, 74, 0
3, 89520, Note_on_c, 1, 75, 100
3, 89640, Note_on_c, 1, 75, 0
3, 89640, Note_on_c, 1, 77, 100
3, 89760, Note_on_c, 1, 77, 0
3, 89760, Note_on_c, 1, 74, 100
3, 89880, Note_on_c, 1, 74, 0
3, 89880, Note_on_c, 1, 75, 100
3, 90000, Note_on_c, 1, 75, 0
3, 90000, Note_on_c, 1, 72, 100
3, 90720, Note_on_c, 1, 72, 0
3, 90720, Note_on_c, 1, 71, 100
3, 91440, Note_on_c, 1, 71, 0
3, 91440, Note_on_c, 1, 70, 100
3, 92160, Note_on_c, 1, 70, 0
3, 92160, Note_on_c, 1, 69, 100
3, 92880, Note_on_c, 1, 69, 0
3, 92880, Note_on_c, 1, 68, 100
3, 93600, Note_on_c, 1, 68, 0
3, 93600, Note_on_c, 1, 67, 100
3, 93840, Note_on_c, 1, 67, 0
3, 93840, Note_on_c, 1, 72, 100
3, 94080, Note_on_c, 1, 72, 0
3, 94080, Note_on_c, 1, 65, 100
3, 94560, Note_on_c, 1, 65, 0
3, 94560, Note_on_c, 1, 67, 100
3, 94680, Note_on_c, 1, 67, 0
3, 94680, Note_on_c, 1, 68, 100
3, 94800, Note_on_c, 1, 68, 0
3, 94800, Note_on_c, 1, 70, 100
3, 94920, Note_on_c, 1, 70, 0
3, 94920, Note_on_c, 1, 67, 100
3, 95040, Note_on_c, 1, 67, 0
3, 95040, Note_on_c, 1, 68, 100
3, 95160, Note_on_c, 1, 68, 0
3, 95160, Note_on_c, 1, 70, 100
3, 95280, Note_on_c, 1, 70, 0
3, 95280, Note_on_c, 1, 68, 100
3, 95400, Note_on_c, 1, 68, 0
3, 95400, Note_on_c, 1, 67, 100
3, 95520, Note_on_c, 1, 67, 0
3, 95520, Note_on_c, 1, 68, 100
3, 95640, Note_on_c, 1, 68, 0
3, 95640, Note_on_c, 1, 72, 100
3, 95760, Note_on_c, 1, 72, 0
3, 95760, Note_on_c, 1, 77, 100
3, 95880, Note_on_c, 1, 77, 0
3, 95880, Note_on_c, 1, 70, 100
3, 96000, Note_on_c, 1, 70, 0
3, 96000, Note_on_c, 1, 68, 100
3, 96120, Note_on_c, 1, 68, 0
3, 96120, Note_on_c, 1, 67, 100
3, 96240, Note_on_c, 1, 67, 0
3, 96240, Note_on_c, 1, 68, 100
3, 96360, Note_on_c, 1, 68, 0
3, 96360, Note_on_c, 1, 72, 100
3, 96480, Note_on_c, 1, 72, 0
3, 96480, Note_on_c, 1, 65, 100
3, 96600, Note_on_c, 1, 65, 0
3, 96600, Note_on_c, 1, 70, 100
3, 96720, Note_on_c, 1, 70, 0
3, 96720, Note_on_c, 1, 69, 100
3, 96840, Note_on_c, 1, 69, 0
3, 96840, Note_on_c, 1, 67, 100
3, 96960, Note_on_c, 1, 67, 0
3, 96960, Note_on_c, 1, 69, 100
3, 97080, Note_on_c, 1, 69, 0
3, 97080, Note_on_c, 1, 72, 100
3, 97200, Note_on_c, 1, 72, 0
3, 97200, Note_on_c, 1, 75, 100
3, 97320, Note_on_c, 1, 75, 0
3, 97320, Note_on_c, 1, 70, 100
3, 97440, Note_on_c, 1, 70, 0
3, 97440, Note_on_c, 1, 69, 100
3, 97560, Note_on_c, 1, 69, 0
3, 97560, Note_on_c, 1, 67, 100
3, 97680, Note_on_c, 1, 67, 0
3, 97680, Note_on_c, 1, 69, 100
3, 97800, Note_on_c, 1, 69, 0
3, 97800, Note_on_c, 1, 72, 100
3, 97920, Note_on_c, 1, 72, 0
3, 97920, Note_on_c, 1, 65, 100
3, 98040, Note_on_c, 1, 65, 0
3, 98040, Note_on_c, 1, 75, 100
3, 98160, Note_on_c, 1, 75, 0
3, 98160, Note_on_c, 1, 74, 100
3, 98280, Note_on_c, 1, 74, 0
3, 98280, Note_on_c, 1, 72, 100
3, 98400, Note_on_c, 1, 72, 0
3, 98400, Note_on_c, 1, 74, 100
3, 98520, Note_on_c, 1, 74, 0
3, 98520, Note_on_c, 1, 77, 100
3, 98640, Note_on_c, 1, 77, 0
3, 98640, Note_on_c, 1, 82, 100
3, 98760, Note_on_c, 1, 82, 0
3, 98760, Note_on_c, 1, 75, 100
3, 98880, Note_on_c, 1, 75, 0
3, 98880, Note_on_c, 1, 74, 100
3, 99000, Note_on_c, 1, 74, 0
3, 99000, Note_on_c, 1, 72, 100
3, 99120, Note_on_c, 1, 72, 0
3, 99120, Note_on_c, 1, 74, 100
3, 99240, Note_on_c, 1, 74, 0
3, 99240, Note_on_c, 1, 77, 100
3, 99360, Note_on_c, 1, 77, 0
3, 99360, Note_on_c, 1, 70, 100
3, 99480, Note_on_c, 1, 70, 0
3, 99480, Note_on_c, 1, 75, 100
3, 99600, Note_on_c, 1, 75, 0
3, 99600, Note_on_c, 1, 74, 100
3, 99720, Note_on_c, 1, 74, 0
3, 99720, Note_on_c, 1, 72, 100
3, 99840, Note_on_c, 1, 72, 0
3, 99840, Note_on_c, 1, 74, 100
3, 99960, Note_on_c, 1, 74, 0
3, 99960, Note_on_c, 1, 77, 100
3, 100080, Note_on_c, 1, 77, 0
3, 100080, Note_on_c, 1, 80, 100
3, 100200, Note_on_c, 1, 80, 0
3, 100200, Note_on_c, 1, 75, 100
3, 100320, Note_on_c, 1, 75, 0
3, 100320, Note_on_c, 1, 74, 100
3, 100440, Note_on_c, 1, 74, 0
3, 100440, Note_on_c, 1, 72, 100
3, 100560, Note_on_c, 1, 72, 0
3, 100560, Note_on_c, 1, 74, 100
3, 100680, Note_on_c, 1, 74, 0
3, 100680, Note_on_c, 1, 77, 100
3, 100800, Note_on_c, 1, 77, 0
3, 100800, Note_on_c, 1, 70, 100
3, 100920, Note_on_c, 1, 70, 0
3, 100920, Note_on_c, 1, 80, 100
3, 101040, Note_on_c, 1, 80, 0
3, 101040, Note_on_c, 1, 79, 100
3, 101160, Note_on_c, 1, 79, 0
3, 101160, Note_on_c, 1, 77, 100
3, 101280, Note_on_c, 1, 77, 0
3, 101280, Note_on_c, 1, 79, 100
3, 101400, Note_on_c, 1, 79, 0
3, 101400, Note_on_c, 1, 82, 100
3, 101520, Note_on_c, 1, 82, 0
3, 101520, Note_on_c, 1, 87, 100
3, 101640, Note_on_c, 1, 87, 0
3, 101640, Note_on_c, 1, 86, 100
3, 101760, Note_on_c, 1, 86, 0
3, 101760, Note_on_c, 1, 84, 100
3, 101880, Note_on_c, 1, 84, 0
3, 101880, Note_on_c, 1, 83, 100
3, 102000, Note_on_c, 1, 83, 0
3, 102000, Note_on_c, 1, 84, 100
3, 102120, Note_on_c, 1, 84, 0
3, 102120, Note_on_c, 1, 87, 100
3, 102240, Note_on_c, 1, 87, 0
3, 102240, Note_on_c, 1, 77, 100
3, 102360, Note_on_c, 1, 77, 0
3, 102360, Note_on_c, 1, 79, 100
3, 102480, Note_on_c, 1, 79, 0
3, 102480, Note_on_c, 1, 77, 100
3, 102600, Note_on_c, 1, 77, 0
3, 102600, Note_on_c, 1, 75, 100
3, 102720, Note_on_c, 1, 75, 0
3, 102720, Note_on_c, 1, 77, 100
3, 102840, Note_on_c, 1, 77, 0
3, 102840, Note_on_c, 1, 80, 100
3, 102960, Note_on_c, 1, 80, 0
3, 102960, Note_on_c, 1, 86, 100
3, 103080, Note_on_c, 1, 86, 0
3, 103080, Note_on_c, 1, 84, 100
3, 103200, Note_on_c, 1, 84, 0
3, 103200, Note_on_c, 1, 82, 100
3, 103320, Note_on_c, 1, 82, 0
3, 103320, Note_on_c, 1, 80, 100
3, 103440, Note_on_c, 1, 80, 0
3, 103440, Note_on_c, 1, 82, 100
3, 103560, Note_on_c, 1, 82, 0
3, 103560, Note_on_c, 1, 86, 100
3, 103680, Note_on_c, 1, 86, 0
3, 103680, Note_on_c, 1, 75, 100
3, 103800, Note_on_c, 1, 75, 0
3, 103800, Note_on_c, 1, 77, 100
3, 103920, Note_on_c, 1, 77, 0
3, 103920, Note_on_c, 1, 75, 100
3, 104040, Note_on_c, 1, 75, 0
3, 104040, Note_on_c, 1, 74, 100
3, 104160, Note_on_c, 1, 74, 0
3, 104160, Note_on_c, 1, 75, 100
3, 104280, Note_on_c, 1, 75, 0
3, 104280, Note_on_c, 1, 79, 100
3, 104400, Note_on_c, 1, 79, 0
3, 104400, Note_on_c, 1, 84, 100
3, 104520, Note_on_c, 1, 84, 0
3, 104520, Note_on_c, 1, 82, 100
3, 104640, Note_on_c, 1, 82, 0
3, 104640, Note_on_c, 1, 80, 100
3, 104760, Note_on_c, 1, 80, 0
3, 104760, Note_on_c, 1, 79, 100
3, 104880, Note_on_c, 1, 79, 0
3, 104880, Note_on_c, 1, 80, 100
3, 105000, Note_on_c, 1, 80, 0
3, 105000, Note_on_c, 1, 84, 100
3, 105120, Note_on_c, 1, 84, 0
3, 105120, Note_on_c, 1, 74, 100
3, 105240, Note_on_c, 1, 74, 0
3, 105240, Note_on_c, 1, 75, 100
3, 105360, Note_on_c, 1, 75, 0
3, 105360, Note_on_c, 1, 74, 100
3, 105480, Note_on_c, 1, 74, 0
3, 105480, Note_on_c, 1, 72, 100
3, 105600, Note_on_c, 1, 72, 0
3, 105600, Note_on_c, 1, 74, 100
3, 105720, Note_on_c, 1, 74, 0
3, 105720, Note_on_c, 1, 77, 100
3, 105840, Note_on_c, 1, 77, 0
3, 105840, Note_on_c, 1, 80, 100
3, 105960, Note_on_c, 1, 80, 0
3, 105960, Note_on_c, 1, 72, 100
3, 106080, Note_on_c, 1, 72, 0
3, 106080, Note_on_c, 1, 71, 100
3, 106200, Note_on_c, 1, 71, 0
3, 106200, Note_on_c, 1, 69, 100
3, 106320, Note_on_c, 1, 69, 0
3, 106320, Note_on_c, 1, 71, 100
3, 106440, Note_on_c, 1, 71, 0
3, 106440, Note_on_c, 1, 74, 100
3, 106560, Note_on_c, 1, 74, 0
3, 106560, Note_on_c, 1, 67, 100
3, 106800, Note_on_c, 1, 67, 0
3, 106800, Note_on_c, 1, 79, 100
3, 107040, Note_on_c, 1, 79, 0
3, 107040, Note_on_c, 1, 81, 100
3, 107280, Note_on_c, 1, 81, 0
3, 107280, Note_on_c, 1, 83, 100
3, 107520, Note_on_c, 1, 83, 0
3, 107520, Note_on_c, 1, 84, 100
3, 107760, Note_on_c, 1, 84, 0
3, 107760, Note_on_c, 1, 86, 100
3, 108000, Note_on_c, 1, 86, 0
3, 108000, Note_on_c, 1, 75, 100
3, 108720, Note_on_c, 1, 75, 0
3, 108720, Note_on_c, 1, 76, 100
3, 109440, Note_on_c, 1, 76, 0
3, 109440, Note_on_c, 1, 77, 100
3, 110160, Note_on_c, 1, 77, 0
3, 110160, Note_on_c, 1, 78, 100
3, 110880, Note_on_c, 1, 78, 0
3, 110880, Note_on_c, 1, 79, 100
3, 111120, Note_on_c, 1, 79, 0
3, 111120, Note_on_c, 1, 74, 100
3, 111360, Note_on_c, 1, 74, 0
3, 111360, Note_on_c, 1, 79, 100
3, 111840, Note_on_c, 1, 79, 0
3, 111840, Note_on_c, 1, 78, 100
3, 111960, Note_on_c, 1, 78, 0
3, 111960, Note_on_c, 1, 79, 100
3, 112080, Note_on_c, 1, 79, 0
3, 112080, Note_on_c, 1, 81, 100
3, 112200, Note_on_c, 1, 81, 0
3, 112200, Note_on_c, 1, 78, 100
3, 112320, Note_on_c, 1, 78, 0
3, 112320, Note_on_c, 1, 82, 100
3, 113040, Note_on_c, 1, 82, 0
3, 113040, Note_on_c, 1, 81, 100
3, 113880, Note_on_c, 1, 81, 0
3, 113880, Note_on_c, 1, 81, 100
3, 114000, Note_on_c, 1, 81, 0
3, 114000, Note_on_c, 1, 79, 100
3, 114120, Note_on_c, 1, 79, 0
3, 114120, Note_on_c, 1, 78, 100
3, 114240, Note_on_c, 1, 78, 0
3, 114240, Note_on_c, 1, 79, 100
3, 114600, Note_on_c, 1, 79, 0
3, 114600, Note_on_c, 1, 79, 100
3, 114720, Note_on_c, 1, 79, 0
3, 114720, Note_on_c, 1, 77, 100
3, 114840, Note_on_c, 1, 77, 0
3, 114840, Note_on_c, 1, 75, 100
3, 114960, Note_on_c, 1, 75, 0
3, 114960, Note_on_c, 1, 77, 100
3, 115320, Note_on_c, 1, 77, 0
3, 115320, Note_on_c, 1, 77, 100
3, 115440, Note_on_c, 1, 77, 0
3, 115440, Note_on_c, 1, 75, 100
3, 115560, Note_on_c, 1, 75, 0
3, 115560, Note_on_c, 1, 74, 100
3, 115680, Note_on_c, 1, 74, 0
3, 115680, Note_on_c, 1, 75, 100
3, 116040, Note_on_c, 1, 75, 0
3, 116040, Note_on_c, 1, 75, 100
3, 116160, Note_on_c, 1, 75, 0
3, 116160, Note_on_c, 1, 74, 100
3, 116280, Note_on_c, 1, 74, 0
3, 116280, Note_on_c, 1, 72, 100
3, 116400, Note_on_c, 1, 72, 0
3, 116400, Note_on_c, 1, 74, 100
3, 116760, Note_on_c, 1, 74, 0
3, 116760, Note_on_c, 1, 74, 100
3, 116880, Note_on_c, 1, 74, 0
3, 116880, Note_on_c, 1, 79, 100
3, 117000, Note_on_c, 1, 79, 0
3, 117000, Note_on_c, 1, 77, 100
3, 117120, Note_on_c, 1, 77, 0
3, 117120, Note_on_c, 1, 75, 100
3, 117240, Note_on_c, 1, 75, 0
3, 117240, Note_on_c, 1, 74, 100
3, 117360, Note_on_c, 1, 74, 0
3, 117360, Note_on_c, 1, 72, 100
3, 117480, Note_on_c, 1, 72, 0
3, 117480, Note_on_c, 1, 82, 100
3, 117600, Note_on_c, 1, 82, 0
3, 117600, Note_on_c, 1, 81, 100
3, 117720, Note_on_c, 1, 81, 0
3, 117720, Note_on_c, 1, 79, 100
3, 117840, Note_on_c, 1, 79, 0
3, 117840, Note_on_c, 1, 78, 100
3, 117960, Note_on_c, 1, 78, 0
3, 117960, Note_on_c, 1, 79, 100
3, 118080, Note_on_c, 1, 79, 0
3, 118080, Note_on_c, 1, 78, 100
3, 118320, Note_on_c, 1, 78, 0
3, 118320, Note_on_c, 1, 81, 100
3, 118560, Note_on_c, 1, 81, 0
3, 118560, Note_on_c, 1, 82, 100
3, 118800, Note_on_c, 1, 82, 0
3, 118800, Note_on_c, 1, 84, 100
3, 119040, Note_on_c, 1, 84, 0
3, 119040, Note_on_c, 1, 75, 100
3, 119280, Note_on_c, 1, 75, 0
3, 119280, Note_on_c, 1, 74, 100
3, 119520, Note_on_c, 1, 74, 0
3, 119760, Note_on_c, 1, 82, 100
3, 120000, Note_on_c, 1, 82, 0
3, 120000, Note_on_c, 1, 84, 100
3, 120240, Note_on_c, 1, 84, 0
3, 120240, Note_on_c, 1, 86, 100
3, 120480, Note_on_c, 1, 86, 0
3, 120480, Note_on_c, 1, 78, 100
3, 120720, Note_on_c, 1, 78, 0
3, 120720, Note_on_c, 1, 79, 100
3, 120960, Note_on_c, 1, 79, 0
3, 122400, Note_on_c, 1, 67, 100
3, 122880, Note_on_c, 1, 67, 0
3, 123120, Note_on_c, 1, 79, 100
3, 123840, Note_on_c, 1, 79, 0
3, 123840, Note_on_c, 1, 78, 100
3, 124560, Note_on_c, 1, 78, 0
3, 124560, Note_on_c, 1, 77, 100
3, 125280, Note_on_c, 1, 77, 0
3, 125280, Note_on_c, 1, 75, 100
3, 125520, Note_on_c, 1, 75, 0
3, 132720, Note_on_c, 1, 83, 100
3, 132960, Note_on_c, 1, 83, 0
3, 132960, Note_on_c, 1, 84, 100
3, 133200, Note_on_c, 1, 84, 0
3, 133200, Note_on_c, 1, 86, 100
3, 133440, Note_on_c, 1, 86, 0
3, 133440, Note_on_c, 1, 80, 100
3, 133680, Note_on_c, 1, 80, 0
3, 133680, Note_on_c, 1, 79, 100
3, 133920, Note_on_c, 1, 79, 0
3, 134160, Note_on_c, 1, 84, 100
3, 134400, Note_on_c, 1, 84, 0
3, 134400, Note_on_c, 1, 86, 100
3, 134640, Note_on_c, 1, 86, 0
3, 134640, Note_on_c, 1, 87, 100
3, 134880, Note_on_c, 1, 87, 0
3, 134880, Note_on_c, 1, 77, 100
3, 135120, Note_on_c, 1, 77, 0
3, 135120, Note_on_c, 1, 75, 100
3, 135360, Note_on_c, 1, 75, 0
3, 137520, Note_on_c, 1, 84, 100
3, 138240, Note_on_c, 1, 84, 0
3, 138240, Note_on_c, 1, 83, 100
3, 138960, Note_on_c, 1, 83, 0
3, 138960, Note_on_c, 1, 82, 100
3, 139680, Note_on_c, 1, 82, 0
3, 139680, Note_on_c, 1, 80, 100
3, 140400, Note_on_c, 1, 80, 0
3, 140400, Note_on_c, 1, 81, 100
3, 141120, Note_on_c, 1, 81, 0
3, 141120, Note_on_c, 1, 82, 100
3, 141840, Note_on_c, 1, 82, 0
3, 141840, Note_on_c, 1, 83, 100
3, 142560, Note_on_c, 1, 83, 0
3, 142560, Note_on_c, 1, 84, 100
3, 142800, Note_on_c, 1, 84, 0
3, 142800, Note_on_c, 1, 79, 100
3, 143040, Note_on_c, 1, 79, 0
3, 143040, Note_on_c, 1, 84, 100
3, 143520, Note_on_c, 1, 84, 0
3, 143520, Note_on_c, 1, 83, 100
3, 143640, Note_on_c, 1, 83, 0
3, 143640, Note_on_c, 1, 84, 100
3, 143760, Note_on_c, 1, 84, 0
3, 143760, Note_on_c, 1, 86, 100
3, 143880, Note_on_c, 1, 86, 0
3, 143880, Note_on_c, 1, 83, 100
3, 144000, Note_on_c, 1, 83, 0
3, 144000, Note_on_c, 1, 87, 100
3, 144720, Note_on_c, 1, 87, 0
3, 144720, Note_on_c, 1, 86, 100
3, 145560, Note_on_c, 1, 86, 0
3, 145560, Note_on_c, 1, 86, 100
3, 145680, Note_on_c, 1, 86, 0
3, 145680, Note_on_c, 1, 84, 100
3, 145800, Note_on_c, 1, 84, 0
3, 145800, Note_on_c, 1, 83, 100
3, 145920, Note_on_c, 1, 83, 0
3, 145920, Note_on_c, 1, 84, 100
3, 146280, Note_on_c, 1, 84, 0
3, 146280, Note_on_c, 1, 84, 100
3, 146400, Note_on_c, 1, 84, 0
3, 146400, Note_on_c, 1, 82, 100
3, 146520, Note_on_c, 1, 82, 0
3, 146520, Note_on_c, 1, 80, 100
3, 146640, Note_on_c, 1, 80, 0
3, 146640, Note_on_c, 1, 82, 100
3, 147000, Note_on_c, 1, 82, 0
3, 147000, Note_on_c, 1, 82, 100
3, 147120, Note_on_c, 1, 82, 0
3, 147120, Note_on_c, 1, 80, 100
3, 147240, Note_on_c, 1, 80, 0
3, 147240, Note_on_c, 1, 79, 100
3, 147360, Note_on_c, 1, 79, 0
3, 147360, Note_on_c, 1, 80, 100
3, 147720, Note_on_c, 1, 80, 0
3, 147720, Note_on_c, 1, 80, 100
3, 147840, Note_on_c, 1, 80, 0
3, 147840, Note_on_c, 1, 79, 100
3, 147960, Note_on_c, 1, 79, 0
3, 147960, Note_on_c, 1, 77, 100
3, 148080, Note_on_c, 1, 77, 0
3, 148080, Note_on_c, 1, 79, 100
3, 148440, Note_on_c, 1, 79, 0
3, 148440, Note_on_c, 1, 79, 100
3, 148560, Note_on_c, 1, 79, 0
3, 148560, Note_on_c, 1, 84, 100
3, 148680, Note_on_c, 1, 84, 0
3, 148680, Note_on_c, 1, 82, 100
3, 148800, Note_on_c, 1, 82, 0
3, 148800, Note_on_c, 1, 80, 100
3, 148920, Note_on_c, 1, 80, 0
3, 148920, Note_on_c, 1, 79, 100
3, 149040, Note_on_c, 1, 79, 0
3, 149040, Note_on_c, 1, 77, 100
3, 149160, Note_on_c, 1, 77, 0
3, 149160, Note_on_c, 1, 75, 100
3, 149280, Note_on_c, 1, 75, 0
3, 149280, Note_on_c, 1, 74, 100
3, 149400, Note_on_c, 1, 74, 0
3, 149400, Note_on_c, 1, 72, 100
3, 149520, Note_on_c, 1, 72, 0
3, 149520, Note_on_c, 1, 71, 100
3, 149640, Note_on_c, 1, 71, 0
3, 149640, Note_on_c, 1, 72, 100
3, 149760, Note_on_c, 1, 72, 0
3, 149760, Note_on_c, 1, 77, 100
3, 150120, Note_on_c, 1, 77, 0
3, 150120, Note_on_c, 1, 75, 100
3, 150240, Note_on_c, 1, 75, 0
3, 150240, Note_on_c, 1, 74, 100
3, 150360, Note_on_c, 1, 74, 0
3, 150360, Note_on_c, 1, 77, 100
3, 150480, Note_on_c, 1, 77, 0
3, 150480, Note_on_c, 1, 75, 100
3, 150600, Note_on_c, 1, 75, 0
3, 150600, Note_on_c, 1, 74, 100
3, 150720, Note_on_c, 1, 74, 0
3, 150720, Note_on_c, 1, 72, 100
3, 150840, Note_on_c, 1, 72, 0
3, 150840, Note_on_c, 1, 71, 100
3, 150960, Note_on_c, 1, 71, 0
3, 150960, Note_on_c, 1, 72, 100
3, 151080, Note_on_c, 1, 72, 0
3, 151080, Note_on_c, 1, 75, 100
3, 151200, Note_on_c, 1, 75, 0
3, 151200, Note_on_c, 1, 68, 100
3, 151440, Note_on_c, 1, 68, 0
3, 151440, Note_on_c, 1, 79, 100
3, 151680, Note_on_c, 1, 79, 0
3, 151680, Note_on_c, 1, 77, 100
3, 151920, Note_on_c, 1, 77, 0
3, 151920, Note_on_c, 1, 75, 100
3, 152160, Note_on_c, 1, 75, 0
3, 152160, Note_on_c, 1, 74, 100
3, 152400, Note_on_c, 1, 74, 0
3, 152400, Note_on_c, 1, 72, 100
3, 152640, Note_on_c, 1, 72, 0
3, 152640, Note_on_c, 1, 71, 100
3, 152880, Note_on_c, 1, 71, 0
3, 152880, Note_on_c, 1, 80, 100
3, 153120, Note_on_c, 1, 80, 0
3, 153120, Note_on_c, 1, 79, 100
3, 153360, Note_on_c, 1, 79, 0
3, 153360, Note_on_c, 1, 77, 100
3, 153600, Note_on_c, 1, 77, 0
3, 153600, Note_on_c, 1, 75, 100
3, 153840, Note_on_c, 1, 75, 0
3, 153840, Note_on_c, 1, 74, 100
3, 154080, Note_on_c, 1, 74, 0
3, 154080, Note_on_c, 1, 75, 100
3, 154200, Note_on_c, 1, 75, 0
3, 154200, Note_on_c, 1, 78, 100
3, 154320, Note_on_c, 1, 78, 0
3, 154320, Note_on_c, 1, 81, 100
3, 154440, Note_on_c, 1, 81, 0
3, 154440, Note_on_c, 1, 83, 100
3, 154560, Note_on_c, 1, 83, 0
3, 154560, Note_on_c, 1, 84, 100
3, 154680, Note_on_c, 1, 84, 0
3, 154680, Note_on_c, 1, 75, 100
3, 154800, Note_on_c, 1, 75, 0
3, 154800, Note_on_c, 1, 74, 100
3, 154920, Note_on_c, 1, 74, 0
3, 154920, Note_on_c, 1, 72, 100
3, 155040, Note_on_c, 1, 72, 0
3, 155040, Note_on_c, 1, 74, 100
3, 155160, Note_on_c, 1, 74, 0
3, 155160, Note_on_c, 1, 77, 100
3, 155280, Note_on_c, 1, 77, 0
3, 155280, Note_on_c, 1, 84, 100
3, 155400, Note_on_c, 1, 84, 0
3, 155400, Note_on_c, 1, 83, 100
3, 155520, Note_on_c, 1, 83, 0
3, 155520, Note_on_c, 1, 84, 100
3, 155760, Note_on_c, 1, 84, 0
3, 155760, Note_on_c, 1, 72, 100
3, 156000, Note_on_c, 1, 72, 0
3, 156000, Note_on_c, 1, 74, 100
3, 156240, Note_on_c, 1, 74, 0
3, 156240, Note_on_c, 1, 75, 100
3, 156480, Note_on_c, 1, 75, 0
3, 156480, Note_on_c, 1, 77, 100
3, 156720, Note_on_c, 1, 77, 0
3, 156720, Note_on_c, 1, 79, 100
3, 156960, Note_on_c, 1, 79, 0
3, 157200, Note_on_c, 1, 67, 100
3, 157440, Note_on_c, 1, 67, 0
3, 157440, Note_on_c, 1, 65, 100
3, 157680, Note_on_c, 1, 65, 0
3, 157680, Note_on_c, 1, 63, 100
3, 157920, Note_on_c, 1, 63, 0
3, 157920, Note_on_c, 1, 62, 100
3, 158160, Note_on_c, 1, 62, 0
3, 158160, Note_on_c, 1, 60, 100
3, 158400, Note_on_c, 1, 60, 0
3, 158400, Note_on_c, 1, 62, 100
3, 158640, Note_on_c, 1, 62, 0
3, 158640, Note_on_c, 1, 68, 100
3, 158880, Note_on_c, 1, 68, 0
3, 158880, Note_on_c, 1, 67, 100
3, 159120, Note_on_c, 1, 67, 0
3, 159120, Note_on_c, 1, 65, 100
3, 159360, Note_on_c, 1, 65, 0
3, 159360, Note_on_c, 1, 63, 100
3, 159600, Note_on_c, 1, 63, 0
3, 159600, Note_on_c, 1, 62, 100
3, 159840, Note_on_c, 1, 62, 0
3, 159840, Note_on_c, 1, 63, 100
3, 160560, Note_on_c, 1, 63, 0
3, 160560, Note_on_c, 1, 62, 100
3, 161280, Note_on_c, 1, 62, 0
3, 161280, Note_on_c, 1, 60, 100
3, 161520, Note_on_c, 1, 60, 0
3, 161520, Note_on_c, 1, 67, 100
3, 161760, Note_on_c, 1, 67, 0
3, 161760, Note_on_c, 1, 72, 100
3, 162240, Note_on_c, 1, 72, 0
3, 162240, Note_on_c, 1, 70, 100
3, 162360, Note_on_c, 1, 70, 0
3, 162360, Note_on_c, 1, 69, 100
3, 162480, Note_on_c, 1, 69, 0
3, 162480, Note_on_c, 1, 70, 100
3, 162960, Note_on_c, 1, 70, 0
3, 162960, Note_on_c, 1, 69, 100
3, 163200, Note_on_c, 1, 69, 0
3, 163200, Note_on_c, 1, 67, 100
3, 163440, Note_on_c, 1, 67, 0
3, 163440, Note_on_c, 1, 66, 100
3, 164160, Note_on_c, 1, 66, 0
3, 164400, Note_on_c, 1, 79, 100
3, 164640, Note_on_c, 1, 79, 0
3, 164640, Note_on_c, 1, 81, 100
3, 164880, Note_on_c, 1, 81, 0
3, 164880, Note_on_c, 1, 82, 100
3, 165120, Note_on_c, 1, 82, 0
3, 165120, Note_on_c, 1, 84, 100
3, 165360, Note_on_c, 1, 84, 0
3, 165360, Note_on_c, 1, 86, 100
3, 165600, Note_on_c, 1, 86, 0
3, 165600, Note_on_c, 1, 75, 100
3, 166320, Note_on_c, 1, 75, 0
3, 166320, Note_on_c, 1, 76, 100
3, 167040, Note_on_c, 1, 76, 0
3, 167040, Note_on_c, 1, 77, 100
3, 167760, Note_on_c, 1, 77, 0
3, 167760, Note_on_c, 1, 78, 100
3, 168480, Note_on_c, 1, 78, 0
3, 168480, Note_on_c, 1, 79, 100
3, 168720, Note_on_c, 1, 79, 0
3, 168720, Note_on_c, 1, 74, 100
3, 168960, Note_on_c, 1, 74, 0
3, 168960, Note_on_c, 1, 79, 100
3, 169440, Note_on_c, 1, 79, 0
3, 169440, Note_on_c, 1, 78, 100
3, 169560, Note_on_c, 1, 78, 0
3, 169560, Note_on_c, 1, 76, 100
3, 169680, Note_on_c, 1, 76, 0
3, 169680, Note_on_c, 1, 78, 100
3, 169920, Note_on_c, 1, 78, 0
3, 169920, Note_on_c, 1, 82, 100
3, 170640, Note_on_c, 1, 82, 0
3, 170640, Note_on_c, 1, 81, 100
3, 171120, Note_on_c, 1, 81, 0
3, 171120, Note_on_c, 1, 86, 100
3, 171360, Note_on_c, 1, 86, 0
3, 171360, Note_on_c, 1, 83, 100
3, 171600, Note_on_c, 1, 83, 0
3, 171600, Note_on_c, 1, 79, 100
3, 171840, Note_on_c, 1, 79, 0
3, 171840, Note_on_c, 1, 84, 100
3, 172320, Note_on_c, 1, 84, 0
3, 172320, Note_on_c, 1, 82, 100
3, 172440, Note_on_c, 1, 82, 0
3, 172440, Note_on_c, 1, 80, 100
3, 172560, Note_on_c, 1, 80, 0
3, 172560, Note_on_c, 1, 82, 100
3, 173280, Note_on_c, 1, 82, 0
3, 173280, Note_on_c, 1, 80, 100
3, 173520, Note_on_c, 1, 80, 0
3, 173520, Note_on_c, 1, 79, 100
3, 174000, Note_on_c, 1, 79, 0
3, 174000, Note_on_c, 1, 84, 100
3, 174240, Note_on_c, 1, 84, 0
3, 174240, Note_on_c, 1, 77, 100
3, 174960, Note_on_c, 1, 77, 0
3, 174960, Note_on_c, 1, 75, 100
3, 175200, Note_on_c, 1, 75, 0
3, 175200, Note_on_c, 1, 77, 100
3, 175920, Note_on_c, 1, 77, 0
3, 175920, Note_on_c, 1, 82, 100
3, 176400, Note_on_c, 1, 82, 0
3, 176400, Note_on_c, 1, 80, 100
3, 177120, Note_on_c, 1, 80, 0
3, 177120, Note_on_c, 1, 79, 100
3, 177840, Note_on_c, 1, 79, 0
3, 177840, Note_on_c, 1, 77, 100
3, 178560, Note_on_c, 1, 77, 0
3, 178560, Note_on_c, 1, 75, 100
3, 178800, Note_on_c, 1, 75, 0
3, 178800, Note_on_c, 1, 79, 100
3, 179040, Note_on_c, 1, 79, 0
3, 179040, Note_on_c, 1, 77, 100
3, 179520, Note_on_c, 1, 77, 0
3, 179520, Note_on_c, 1, 75, 100
3, 179760, Note_on_c, 1, 75, 0
3, 179760, Note_on_c, 1, 74, 100
3, 180000, Note_on_c, 1, 74, 0
3, 180000, Note_on_c, 1, 72, 100
3, 180720, Note_on_c, 1, 72, 0
3, 181200, Note_on_c, 1, 77, 100
3, 181680, Note_on_c, 1, 77, 0
3, 181680, Note_on_c, 1, 74, 100
3, 181920, Note_on_c, 1, 74, 0
3, 181920, Note_on_c, 1, 75, 100
3, 182160, Note_on_c, 1, 75, 0
3, 182160, Note_on_c, 1, 74, 100
3, 183120, Note_on_c, 1, 74, 0
3, 183120, Note_on_c, 1, 72, 100
3, 183240, Note_on_c, 1, 72, 0
3, 183240, Note_on_c, 1, 71, 100
3, 183360, Note_on_c, 1, 71, 0
3, 183360, Note_on_c, 1, 72, 100
3, 183600, Note_on_c, 1, 72, 0
3, 183600, Note_on_c, 1, 77, 100
3, 184560, Note_on_c, 1, 77, 0
3, 184560, Note_on_c, 1, 75, 100
3, 184680, Note_on_c, 1, 75, 0
3, 184680, Note_on_c, 1, 74, 100
3, 184800, Note_on_c, 1, 74, 0
3, 184800, Note_on_c, 1, 75, 100
3, 184920, Note_on_c, 1, 75, 0
3, 184920, Note_on_c, 1, 77, 100
3, 185040, Note_on_c, 1, 77, 0
3, 185040, Note_on_c, 1, 79, 100
3, 186000, Note_on_c, 1, 79, 0
3, 186000, Note_on_c, 1, 77, 100
3, 186120, Note_on_c, 1, 77, 0
3, 186120, Note_on_c, 1, 75, 100
3, 186240, Note_on_c, 1, 75, 0
3, 186240, Note_on_c, 1, 77, 100
3, 186360, Note_on_c, 1, 77, 0
3, 186360, Note_on_c, 1, 79, 100
3, 186480, Note_on_c, 1, 79, 0
3, 186480, Note_on_c, 1, 80, 100
3, 187440, Note_on_c, 1, 80, 0
3, 187440, Note_on_c, 1, 82, 100
3, 187560, Note_on_c, 1, 82, 0
3, 187560, Note_on_c, 1, 80, 100
3, 187680, Note_on_c, 1, 80, 0
3, 187680, Note_on_c, 1, 79, 100
3, 187800, Note_on_c, 1, 79, 0
3, 187800, Note_on_c, 1, 77, 100
3, 187920, Note_on_c, 1, 77, 0
3, 187920, Note_on_c, 1, 79, 100
3, 188160, Note_on_c, 1, 79, 0
3, 188160, Note_on_c, 1, 81, 100
3, 188400, Note_on_c, 1, 81, 0
3, 188400, Note_on_c, 1, 82, 100
3, 188880, Note_on_c, 1, 82, 0
3, 188880, Note_on_c, 1, 86, 100
3, 189120, Note_on_c, 1, 86, 0
3, 189120, Note_on_c, 1, 84, 100
3, 189360, Note_on_c, 1, 84, 0
3, 189360, Note_on_c, 1, 82, 100
3, 189600, Note_on_c, 1, 82, 0
3, 189600, Note_on_c, 1, 81, 100
3, 189840, Note_on_c, 1, 81, 0
3, 189840, Note_on_c, 1, 79, 100
3, 190080, Note_on_c, 1, 79, 0
3, 190080, Note_on_c, 1, 81, 100
3, 190320, Note_on_c, 1, 81, 0
3, 190320, Note_on_c, 1, 87, 100
3, 190560, Note_on_c, 1, 87, 0
3, 190560, Note_on_c, 1, 86, 100
3, 190800, Note_on_c, 1, 86, 0
3, 190800, Note_on_c, 1, 84, 100
3, 191040, Note_on_c, 1, 84, 0
3, 191040, Note_on_c, 1, 82, 100
3, 191280, Note_on_c, 1, 82, 0
3, 191280, Note_on_c, 1, 81, 100
3, 191520, Note_on_c, 1, 81, 0
3, 191520, Note_on_c, 1, 82, 100
3, 192240, Note_on_c, 1, 82, 0
3, 192240, Note_on_c, 1, 81, 100
3, 192960, Note_on_c, 1, 81, 0
3, 192960, Note_on_c, 1, 82, 100
3, 193440, Note_on_c, 1, 82, 0
3, 194640, Note_on_c, 1, 73, 100
3, 194880, Note_on_c, 1, 73, 0
3, 194880, Note_on_c, 1, 72, 100
3, 195120, Note_on_c, 1, 72, 0
3, 195120, Note_on_c, 1, 70, 100
3, 195360, Note_on_c, 1, 70, 0
3, 195360, Note_on_c, 1, 68, 100
3, 195600, Note_on_c, 1, 68, 0
3, 195600, Note_on_c, 1, 67, 100
3, 195840, Note_on_c, 1, 67, 0
3, 195840, Note_on_c, 1, 68, 100
3, 196320, Note_on_c, 1, 68, 0
3, 197520, Note_on_c, 1, 72, 100
3, 197760, Note_on_c, 1, 72, 0
3, 197760, Note_on_c, 1, 70, 100
3, 198000, Note_on_c, 1, 70, 0
3, 198000, Note_on_c, 1, 68, 100
3, 198240, Note_on_c, 1, 68, 0
3, 198240, Note_on_c, 1, 67, 100
3, 198480, Note_on_c, 1, 67, 0
3, 198480, Note_on_c, 1, 65, 100
3, 198720, Note_on_c, 1, 65, 0
3, 198720, Note_on_c, 1, 67, 100
3, 199440, Note_on_c, 1, 67, 0
3, 199680, Note_on_c, 1, 65, 100
3, 199920, Note_on_c, 1, 65, 0
3, 199920, Note_on_c, 1, 70, 100
3, 200400, Note_on_c, 1, 70, 0
3, 200400, Note_on_c, 1, 68, 100
3, 200520, Note_on_c, 1, 68, 0
3, 200520, Note_on_c, 1, 67, 100
3, 200640, Note_on_c, 1, 67, 0
3, 200640, Note_on_c, 1, 68, 100
3, 200760, Note_on_c, 1, 68, 0
3, 200760, Note_on_c, 1, 70, 100
3, 200880, Note_on_c, 1, 70, 0
3, 200880, Note_on_c, 1, 67, 100
3, 201360, Note_on_c, 1, 67, 0
3, 201360, Note_on_c, 1, 72, 100
3, 201840, Note_on_c, 1, 72, 0
3, 201840, Note_on_c, 1, 71, 100
3, 201960, Note_on_c, 1, 71, 0
3, 201960, Note_on_c, 1, 69, 100
3, 202080, Note_on_c, 1, 69, 0
3, 202080, Note_on_c, 1, 71, 100
3, 202320, Note_on_c, 1, 71, 0
3, 202320, Note_on_c, 1, 72, 100
3, 202800, Note_on_c, 1, 72, 0
3, 204720, Note_on_c, 1, 87, 100
3, 204960, Note_on_c, 1, 87, 0
3, 204960, Note_on_c, 1, 86, 100
3, 205200, Note_on_c, 1, 86, 0
3, 205200, Note_on_c, 1, 84, 100
3, 205920, Note_on_c, 1, 84, 0
3, 206160, Note_on_c, 1, 86, 100
3, 206400, Note_on_c, 1, 86, 0
3, 206400, Note_on_c, 1, 84, 100
3, 206640, Note_on_c, 1, 84, 0
3, 206640, Note_on_c, 1, 83, 100
3, 207360, Note_on_c, 1, 83, 0
3, 207600, Note_on_c, 1, 84, 100
3, 207840, Note_on_c, 1, 84, 0
3, 207840, Note_on_c, 1, 82, 100
3, 208080, Note_on_c, 1, 82, 0
3, 208080, Note_on_c, 1, 80, 100
3, 208560, Note_on_c, 1, 80, 0
3, 208560, Note_on_c, 1, 79, 100
3, 208800, Note_on_c, 1, 79, 0
3, 208800, Note_on_c, 1, 77, 100
3, 209760, Note_on_c, 1, 77, 0
3, 209760, Note_on_c, 1, 75, 100
3, 210000, Note_on_c, 1, 75, 0
3, 210000, Note_on_c, 1, 74, 100
3, 210240, Note_on_c, 1, 74, 0
3, 210240, Note_on_c, 1, 79, 100
3, 210480, Note_on_c, 1, 79, 0
3, 210480, Note_on_c, 1, 77, 100
3, 210720, Note_on_c, 1, 77, 0
3, 210720, Note_on_c, 1, 75, 100
3, 210960, Note_on_c, 1, 75, 0
3, 210960, Note_on_c, 1, 80, 100
3, 211200, Note_on_c, 1, 80, 0
3, 211200, Note_on_c, 1, 79, 100
3, 211440, Note_on_c, 1, 79, 0
3, 211440, Note_on_c, 1, 77, 100
3, 211680, Note_on_c, 1, 77, 0
3, 211680, Note_on_c, 1, 75, 100
3, 211920, Note_on_c, 1, 75, 0
3, 211920, Note_on_c, 1, 77, 100
3, 212160, Note_on_c, 1, 77, 0
3, 212160, Note_on_c, 1, 75, 100
3, 212200, Note_on_c, 1, 75, 0
3, 212200, Note_on_c, 1, 74, 100
3, 212240, Note_on_c, 1, 74, 0
3, 212240, Note_on_c, 1, 75, 100
3, 212280, Note_on_c, 1, 75, 0
3, 212280, Note_on_c, 1, 74, 100
3, 212400, Note_on_c, 1, 74, 0
3, 212400, Note_on_c, 1, 72, 100
3, 212640, Note_on_c, 1, 72, 0
3, 212640, Note_on_c, 1, 84, 100
3, 212760, Note_on_c, 1, 84, 0
3, 212760, Note_on_c, 1, 82, 100
3, 212880, Note_on_c, 1, 82, 0
3, 212880, Note_on_c, 1, 80, 100
3, 213000, Note_on_c, 1, 80, 0
3, 213000, Note_on_c, 1, 79, 100
3, 213120, Note_on_c, 1, 79, 0
3, 213120, Note_on_c, 1, 77, 100
3, 213240, Note_on_c, 1, 77, 0
3, 213240, Note_on_c, 1, 79, 100
3, 213360, Note_on_c, 1, 79, 0
3, 213360, Note_on_c, 1, 80, 100
3, 213480, Note_on_c, 1, 80, 0
3, 213480, Note_on_c, 1, 79, 100
3, 213600, Note_on_c, 1, 79, 0
3, 213600, Note_on_c, 1, 77, 100
3, 213720, Note_on_c, 1, 77, 0
3, 213720, Note_on_c, 1, 75, 100
3, 213840, Note_on_c, 1, 75, 0
3, 213840, Note_on_c, 1, 74, 100
3, 213960, Note_on_c, 1, 74, 0
3, 213960, Note_on_c, 1, 75, 100
3, 214080, Note_on_c, 1, 75, 0
3, 214080, Note_on_c, 1, 77, 100
3, 214200, Note_on_c, 1, 77, 0
3, 214200, Note_on_c, 1, 75, 100
3, 214320, Note_on_c, 1, 75, 0
3, 214320, Note_on_c, 1, 74, 100
3, 214440, Note_on_c, 1, 74, 0
3, 214440, Note_on_c, 1, 72, 100
3, 214560, Note_on_c, 1, 72, 0
3, 214560, Note_on_c, 1, 79, 100
3, 216960, Note_on_c, 1, 79, 0
3, 216960, Note_on_c, 1, 81, 100
3, 217200, Note_on_c, 1, 81, 0
3, 217200, Note_on_c, 1, 83, 100
3, 217440, Note_on_c, 1, 83, 0
3, 217440, Note_on_c, 1, 84, 100
3, 218400, Note_on_c, 1, 84, 0
3, 218400, Note_on_c, 1, 86, 100
3, 218640, Note_on_c, 1, 86, 0
3, 218640, Note_on_c, 1, 87, 100
3, 218880, Note_on_c, 1, 87, 0
3, 218880, Note_on_c, 1, 80, 100
3, 219600, Note_on_c, 1, 80, 0
3, 219600, Note_on_c, 1, 81, 100
3, 220320, Note_on_c, 1, 81, 0
3, 220320, Note_on_c, 1, 82, 100
3, 221040, Note_on_c, 1, 82, 0
3, 221040, Note_on_c, 1, 83, 100
3, 221760, Note_on_c, 1, 83, 0
3, 221760, Note_on_c, 1, 84, 100
3, 222000, Note_on_c, 1, 84, 0
3, 222000, Note_on_c, 1, 79, 100
3, 222240, Note_on_c, 1, 79, 0
3, 222240, Note_on_c, 1, 84, 100
3, 222720, Note_on_c, 1, 84, 0
3, 222720, Note_on_c, 1, 83, 100
3, 222840, Note_on_c, 1, 83, 0
3, 222840, Note_on_c, 1, 81, 100
3, 222960, Note_on_c, 1, 81, 0
3, 222960, Note_on_c, 1, 83, 100
3, 223200, Note_on_c, 1, 83, 0
3, 223200, Note_on_c, 1, 84, 100
3, 223440, Note_on_c, 1, 84, 0
3, 223440, Note_on_c, 1, 72, 100
3, 223680, Note_on_c, 1, 72, 0
3, 223680, Note_on_c, 1, 77, 100
3, 223920, Note_on_c, 1, 77, 0
3, 223920, Note_on_c, 1, 75, 100
3, 224040, Note_on_c, 1, 75, 0
3, 224040, Note_on_c, 1, 74, 100
3, 224160, Note_on_c, 1, 74, 0
3, 224160, Note_on_c, 1, 75, 100
3, 224220, Note_on_c, 1, 75, 0
3, 224220, Note_on_c, 1, 74, 100
3, 224280, Note_on_c, 1, 74, 0
3, 224280, Note_on_c, 1, 75, 100
3, 224340, Note_on_c, 1, 75, 0
3, 224340, Note_on_c, 1, 74, 100
3, 224400, Note_on_c, 1, 74, 0
3, 224400, Note_on_c, 1, 75, 100
3, 224460, Note_on_c, 1, 75, 0
3, 224460, Note_on_c, 1, 74, 100
3, 224520, Note_on_c, 1, 74, 0
3, 224520, Note_on_c, 1, 72, 100
3, 224640, Note_on_c, 1, 72, 0
3, 224640, Note_on_c, 1, 72, 100
3, 225120, Note_on_c, 1, 72, 0
3, 225120, End_track
4, 0, Start_track
4, 0, MIDI_port, 0
4, 0, Title_t, "Johann Sebastian Bach  (1685-1750)"
4, 0, Program_c, 2, 24
4, 0, Control_c, 2, 7, 100
4, 0, Control_c, 2, 10, 59
4, 8640, Note_on_c, 2, 55, 100
4, 9600, Note_on_c, 2, 55, 0
4, 9600, Note_on_c, 2, 57, 100
4, 9840, Note_on_c, 2, 57, 0
4, 9840, Note_on_c, 2, 58, 100
4, 10080, Note_on_c, 2, 58, 0
4, 10080, Note_on_c, 2, 48, 100
4, 10800, Note_on_c, 2, 48, 0
4, 11280, Note_on_c, 2, 48, 100
4, 11520, Note_on_c, 2, 48, 0
4, 11520, Note_on_c, 2, 53, 100
4, 12240, Note_on_c, 2, 53, 0
4, 12720, Note_on_c, 2, 50, 100
4, 12960, Note_on_c, 2, 50, 0
4, 12960, Note_on_c, 2, 55, 100
4, 13440, Note_on_c, 2, 55, 0
4, 13440, Note_on_c, 2, 51, 100
4, 13680, Note_on_c, 2, 51, 0
4, 13680, Note_on_c, 2, 48, 100
4, 14160, Note_on_c, 2, 48, 0
4, 14160, Note_on_c, 2, 50, 100
4, 14400, Note_on_c, 2, 50, 0
4, 14400, Note_on_c, 2, 55, 100
4, 14640, Note_on_c, 2, 55, 0
4, 14640, Note_on_c, 2, 62, 100
4, 14880, Note_on_c, 2, 62, 0
4, 14880, Note_on_c, 2, 67, 100
4, 15360, Note_on_c, 2, 67, 0
4, 15360, Note_on_c, 2, 65, 100
4, 15480, Note_on_c, 2, 65, 0
4, 15480, Note_on_c, 2, 63, 100
4, 15600, Note_on_c, 2, 63, 0
4, 15600, Note_on_c, 2, 65, 100
4, 16080, Note_on_c, 2, 65, 0
4, 16080, Note_on_c, 2, 63, 100
4, 16320, Note_on_c, 2, 63, 0
4, 16320, Note_on_c, 2, 68, 100
4, 16560, Note_on_c, 2, 68, 0
4, 16560, Note_on_c, 2, 65, 100
4, 16800, Note_on_c, 2, 65, 0
4, 16800, Note_on_c, 2, 67, 100
4, 17040, Note_on_c, 2, 67, 0
4, 17040, Note_on_c, 2, 55, 100
4, 17280, Note_on_c, 2, 55, 0
4, 17280, Note_on_c, 2, 60, 100
4, 17760, Note_on_c, 2, 60, 0
4, 17760, Note_on_c, 2, 61, 100
4, 18000, Note_on_c, 2, 61, 0
4, 18000, Note_on_c, 2, 58, 100
4, 18240, Note_on_c, 2, 58, 0
4, 18240, Note_on_c, 2, 60, 100
4, 18480, Note_on_c, 2, 60, 0
4, 18480, Note_on_c, 2, 55, 100
4, 18720, Note_on_c, 2, 55, 0
4, 18720, Note_on_c, 2, 57, 100
4, 18960, Note_on_c, 2, 57, 0
4, 18960, Note_on_c, 2, 53, 100
4, 19200, Note_on_c, 2, 53, 0
4, 19200, Note_on_c, 2, 58, 100
4, 19680, Note_on_c, 2, 58, 0
4, 19680, Note_on_c, 2, 56, 100
4, 19800, Note_on_c, 2, 56, 0
4, 19800, Note_on_c, 2, 55, 100
4, 19920, Note_on_c, 2, 55, 0
4, 19920, Note_on_c, 2, 56, 100
4, 20400, Note_on_c, 2, 56, 0
4, 20400, Note_on_c, 2, 55, 100
4, 20640, Note_on_c, 2, 55, 0
4, 20640, Note_on_c, 2, 60, 100
4, 20880, Note_on_c, 2, 60, 0
4, 20880, Note_on_c, 2, 53, 100
4, 21120, Note_on_c, 2, 53, 0
4, 21120, Note_on_c, 2, 58, 100
4, 21360, Note_on_c, 2, 58, 0
4, 21360, Note_on_c, 2, 46, 100
4, 21600, Note_on_c, 2, 46, 0
4, 21600, Note_on_c, 2, 39, 100
4, 22080, Note_on_c, 2, 39, 0
4, 22080, Note_on_c, 2, 51, 100
4, 22320, Note_on_c, 2, 51, 0
4, 22320, Note_on_c, 2, 50, 100
4, 22800, Note_on_c, 2, 50, 0
4, 22800, Note_on_c, 2, 43, 100
4, 23040, Note_on_c, 2, 43, 0
4, 23040, Note_on_c, 2, 36, 100
4, 23280, Note_on_c, 2, 36, 0
4, 23280, Note_on_c, 2, 48, 100
4, 23520, Note_on_c, 2, 48, 0
4, 23520, Note_on_c, 2, 50, 100
4, 23760, Note_on_c, 2, 50, 0
4, 23760, Note_on_c, 2, 51, 100
4, 24000, Note_on_c, 2, 51, 0
4, 24000, Note_on_c, 2, 53, 100
4, 24240, Note_on_c, 2, 53, 0
4, 24240, Note_on_c, 2, 55, 100
4, 24480, Note_on_c, 2, 55, 0
4, 24480, Note_on_c, 2, 44, 100
4, 25200, Note_on_c, 2, 44, 0
4, 25200, Note_on_c, 2, 45, 100
4, 25920, Note_on_c, 2, 45, 0
4, 25920, Note_on_c, 2, 46, 100
4, 26640, Note_on_c, 2, 46, 0
4, 26640, Note_on_c, 2, 47, 100
4, 27360, Note_on_c, 2, 47, 0
4, 27360, Note_on_c, 2, 48, 100
4, 27600, Note_on_c, 2, 48, 0
4, 27600, Note_on_c, 2, 43, 100
4, 27840, Note_on_c, 2, 43, 0
4, 27840, Note_on_c, 2, 48, 100
4, 28320, Note_on_c, 2, 48, 0
4, 28320, Note_on_c, 2, 47, 100
4, 28440, Note_on_c, 2, 47, 0
4, 28440, Note_on_c, 2, 45, 100
4, 28560, Note_on_c, 2, 45, 0
4, 28560, Note_on_c, 2, 47, 100
4, 28800, Note_on_c, 2, 47, 0
4, 28800, Note_on_c, 2, 48, 100
4, 29040, Note_on_c, 2, 48, 0
4, 29040, Note_on_c, 2, 48, 100
4, 29280, Note_on_c, 2, 48, 0
4, 29280, Note_on_c, 2, 50, 100
4, 29520, Note_on_c, 2, 50, 0
4, 29520, Note_on_c, 2, 51, 100
4, 29760, Note_on_c, 2, 51, 0
4, 29760, Note_on_c, 2, 53, 100
4, 30000, Note_on_c, 2, 53, 0
4, 30000, Note_on_c, 2, 55, 100
4, 30240, Note_on_c, 2, 55, 0
4, 30240, Note_on_c, 2, 56, 100
4, 30720, Note_on_c, 2, 56, 0
4, 31920, Note_on_c, 2, 55, 100
4, 32160, Note_on_c, 2, 55, 0
4, 32160, Note_on_c, 2, 56, 100
4, 32400, Note_on_c, 2, 56, 0
4, 32400, Note_on_c, 2, 58, 100
4, 32640, Note_on_c, 2, 58, 0
4, 32640, Note_on_c, 2, 60, 100
4, 32880, Note_on_c, 2, 60, 0
4, 32880, Note_on_c, 2, 62, 100
4, 33120, Note_on_c, 2, 62, 0
4, 33120, Note_on_c, 2, 51, 100
4, 33840, Note_on_c, 2, 51, 0
4, 33840, Note_on_c, 2, 52, 100
4, 34560, Note_on_c, 2, 52, 0
4, 34560, Note_on_c, 2, 53, 100
4, 35280, Note_on_c, 2, 53, 0
4, 35280, Note_on_c, 2, 54, 100
4, 36000, Note_on_c, 2, 54, 0
4, 36000, Note_on_c, 2, 55, 100
4, 36240, Note_on_c, 2, 55, 0
4, 36240, Note_on_c, 2, 74, 100
4, 36480, Note_on_c, 2, 74, 0
4, 36480, Note_on_c, 2, 79, 100
4, 36960, Note_on_c, 2, 79, 0
4, 36960, Note_on_c, 2, 78, 100
4, 37080, Note_on_c, 2, 78, 0
4, 37080, Note_on_c, 2, 76, 100
4, 37200, Note_on_c, 2, 76, 0
4, 37200, Note_on_c, 2, 78, 100
4, 37440, Note_on_c, 2, 78, 0
4, 37680, Note_on_c, 2, 79, 100
4, 37920, Note_on_c, 2, 79, 0
4, 37920, Note_on_c, 2, 80, 100
4, 38160, Note_on_c, 2, 80, 0
4, 38160, Note_on_c, 2, 82, 100
4, 38400, Note_on_c, 2, 82, 0
4, 38400, Note_on_c, 2, 84, 100
4, 38640, Note_on_c, 2, 84, 0
4, 38640, Note_on_c, 2, 85, 100
4, 38880, Note_on_c, 2, 85, 0
4, 38880, Note_on_c, 2, 76, 100
4, 39360, Note_on_c, 2, 76, 0
4, 39360, Note_on_c, 2, 77, 100
4, 39600, Note_on_c, 2, 77, 0
4, 39600, Note_on_c, 2, 79, 100
4, 40560, Note_on_c, 2, 79, 0
4, 40560, Note_on_c, 2, 77, 100
4, 40800, Note_on_c, 2, 77, 0
4, 40800, Note_on_c, 2, 79, 100
4, 41040, Note_on_c, 2, 79, 0
4, 41040, Note_on_c, 2, 80, 100
4, 41280, Note_on_c, 2, 80, 0
4, 41280, Note_on_c, 2, 82, 100
4, 41520, Note_on_c, 2, 82, 0
4, 41520, Note_on_c, 2, 84, 100
4, 41760, Note_on_c, 2, 84, 0
4, 41760, Note_on_c, 2, 74, 100
4, 42240, Note_on_c, 2, 74, 0
4, 42240, Note_on_c, 2, 75, 100
4, 42480, Note_on_c, 2, 75, 0
4, 42480, Note_on_c, 2, 77, 100
4, 43440, Note_on_c, 2, 77, 0
4, 43440, Note_on_c, 2, 70, 100
4, 43680, Note_on_c, 2, 70, 0
4, 43680, Note_on_c, 2, 75, 100
4, 44160, Note_on_c, 2, 75, 0
4, 44160, Note_on_c, 2, 74, 100
4, 44280, Note_on_c, 2, 74, 0
4, 44280, Note_on_c, 2, 72, 100
4, 44400, Note_on_c, 2, 72, 0
4, 44400, Note_on_c, 2, 74, 100
4, 44640, Note_on_c, 2, 74, 0
4, 44640, Note_on_c, 2, 72, 100
4, 45120, Note_on_c, 2, 72, 0
4, 45120, Note_on_c, 2, 77, 100
4, 45600, Note_on_c, 2, 77, 0
4, 45600, Note_on_c, 2, 75, 100
4, 45720, Note_on_c, 2, 75, 0
4, 45720, Note_on_c, 2, 74, 100
4, 45840, Note_on_c, 2, 74, 0
4, 45840, Note_on_c, 2, 75, 100
4, 46080, Note_on_c, 2, 75, 0
4, 46080, Note_on_c, 2, 74, 100
4, 46320, Note_on_c, 2, 74, 0
4, 46320, Note_on_c, 2, 86, 100
4, 46560, Note_on_c, 2, 86, 0
4, 46560, Note_on_c, 2, 79, 100
4, 46800, Note_on_c, 2, 79, 0
4, 46800, Note_on_c, 2, 87, 100
4, 46920, Note_on_c, 2, 87, 0
4, 46920, Note_on_c, 2, 86, 100
4, 47040, Note_on_c, 2, 86, 0
4, 47040, Note_on_c, 2, 84, 100
4, 47160, Note_on_c, 2, 84, 0
4, 47160, Note_on_c, 2, 82, 100
4, 47280, Note_on_c, 2, 82, 0
4, 47280, Note_on_c, 2, 80, 100
4, 47400, Note_on_c, 2, 80, 0
4, 47400, Note_on_c, 2, 79, 100
4, 47520, Note_on_c, 2, 79, 0
4, 47520, Note_on_c, 2, 80, 100
4, 47640, Note_on_c, 2, 80, 0
4, 47640, Note_on_c, 2, 79, 100
4, 47760, Note_on_c, 2, 79, 0
4, 47760, Note_on_c, 2, 77, 100
4, 47880, Note_on_c, 2, 77, 0
4, 47880, Note_on_c, 2, 75, 100
4, 48000, Note_on_c, 2, 75, 0
4, 48000, Note_on_c, 2, 74, 100
4, 48120, Note_on_c, 2, 74, 0
4, 48120, Note_on_c, 2, 72, 100
4, 48240, Note_on_c, 2, 72, 0
4, 48240, Note_on_c, 2, 74, 100
4, 48360, Note_on_c, 2, 74, 0
4, 48360, Note_on_c, 2, 72, 100
4, 48480, Note_on_c, 2, 72, 0
4, 48480, Note_on_c, 2, 70, 100
4, 48600, Note_on_c, 2, 70, 0
4, 48600, Note_on_c, 2, 68, 100
4, 48720, Note_on_c, 2, 68, 0
4, 48720, Note_on_c, 2, 67, 100
4, 48840, Note_on_c, 2, 67, 0
4, 48840, Note_on_c, 2, 65, 100
4, 48960, Note_on_c, 2, 65, 0
4, 48960, Note_on_c, 2, 67, 100
4, 49200, Note_on_c, 2, 67, 0
4, 49200, Note_on_c, 2, 79, 100
4, 49440, Note_on_c, 2, 79, 0
4, 49440, Note_on_c, 2, 77, 100
4, 49680, Note_on_c, 2, 77, 0
4, 49680, Note_on_c, 2, 75, 100
4, 50400, Note_on_c, 2, 75, 0
4, 50640, Note_on_c, 2, 77, 100
4, 50880, Note_on_c, 2, 77, 0
4, 50880, Note_on_c, 2, 75, 100
4, 51120, Note_on_c, 2, 75, 0
4, 51120, Note_on_c, 2, 74, 100
4, 51840, Note_on_c, 2, 74, 0
4, 52320, Note_on_c, 2, 79, 100
4, 52800, Note_on_c, 2, 79, 0
4, 52800, Note_on_c, 2, 77, 100
4, 53040, Note_on_c, 2, 77, 0
4, 53040, Note_on_c, 2, 75, 100
4, 53520, Note_on_c, 2, 75, 0
4, 53520, Note_on_c, 2, 74, 100
4, 53760, Note_on_c, 2, 74, 0
4, 53760, Note_on_c, 2, 72, 100
4, 54000, Note_on_c, 2, 72, 0
4, 54000, Note_on_c, 2, 71, 100
4, 54720, Note_on_c, 2, 71, 0
4, 54720, Note_on_c, 2, 72, 100
4, 55200, Note_on_c, 2, 72, 0
4, 55440, Note_on_c, 2, 72, 100
4, 55920, Note_on_c, 2, 72, 0
4, 56160, Note_on_c, 2, 72, 100
4, 56640, Note_on_c, 2, 72, 0
4, 56640, Note_on_c, 2, 71, 100
4, 56880, Note_on_c, 2, 71, 0
4, 56880, Note_on_c, 2, 72, 100
4, 57360, Note_on_c, 2, 72, 0
4, 59280, Note_on_c, 2, 67, 100
4, 59520, Note_on_c, 2, 67, 0
4, 59520, Note_on_c, 2, 69, 100
4, 59760, Note_on_c, 2, 69, 0
4, 59760, Note_on_c, 2, 71, 100
4, 60000, Note_on_c, 2, 71, 0
4, 60000, Note_on_c, 2, 72, 100
4, 60240, Note_on_c, 2, 72, 0
4, 60240, Note_on_c, 2, 74, 100
4, 60480, Note_on_c, 2, 74, 0
4, 60480, Note_on_c, 2, 63, 100
4, 60960, Note_on_c, 2, 63, 0
4, 62160, Note_on_c, 2, 72, 100
4, 62400, Note_on_c, 2, 72, 0
4, 62400, Note_on_c, 2, 74, 100
4, 62640, Note_on_c, 2, 74, 0
4, 62640, Note_on_c, 2, 75, 100
4, 62880, Note_on_c, 2, 75, 0
4, 62880, Note_on_c, 2, 77, 100
4, 63120, Note_on_c, 2, 77, 0
4, 63120, Note_on_c, 2, 79, 100
4, 63360, Note_on_c, 2, 79, 0
4, 63360, Note_on_c, 2, 72, 100
4, 63840, Note_on_c, 2, 72, 0
4, 64080, Note_on_c, 2, 72, 100
4, 64560, Note_on_c, 2, 72, 0
4, 64800, Note_on_c, 2, 77, 100
4, 65040, Note_on_c, 2, 77, 0
4, 65040, Note_on_c, 2, 80, 100
4, 65280, Note_on_c, 2, 80, 0
4, 65280, Note_on_c, 2, 79, 100
4, 65520, Note_on_c, 2, 79, 0
4, 65520, Note_on_c, 2, 77, 100
4, 65760, Note_on_c, 2, 77, 0
4, 65760, Note_on_c, 2, 75, 100
4, 66000, Note_on_c, 2, 75, 0
4, 66000, Note_on_c, 2, 74, 100
4, 66240, Note_on_c, 2, 74, 0
4, 66240, Note_on_c, 2, 75, 100
4, 66720, Note_on_c, 2, 75, 0
4, 66720, Note_on_c, 2, 75, 100
4, 66960, Note_on_c, 2, 75, 0
4, 66960, Note_on_c, 2, 74, 100
4, 67680, Note_on_c, 2, 74, 0
4, 67680, Note_on_c, 2, 79, 100
4, 67920, Note_on_c, 2, 79, 0
4, 67920, Note_on_c, 2, 72, 100
4, 68640, Note_on_c, 2, 72, 0
4, 68640, Note_on_c, 2, 71, 100
4, 69120, Note_on_c, 2, 71, 0
4, 69120, Note_on_c, 2, 67, 100
4, 69120, Note_on_c, 2, 63, 100
4, 69600, Note_on_c, 2, 63, 0
4, 69600, Note_on_c, 2, 67, 0
4, 72480, Note_on_c, 2, 51, 100
4, 72960, Note_on_c, 2, 51, 0
4, 72960, Note_on_c, 2, 50, 100
4, 73440, Note_on_c, 2, 50, 0
4, 73440, Note_on_c, 2, 51, 100
4, 73920, Note_on_c, 2, 51, 0
4, 77760, Note_on_c, 2, 78, 100
4, 78240, Note_on_c, 2, 78, 0
4, 85080, Note_on_c, 2, 75, 100
4, 85200, Note_on_c, 2, 75, 0
4, 85200, Note_on_c, 2, 74, 100
4, 85320, Note_on_c, 2, 74, 0
4, 85320, Note_on_c, 2, 72, 100
4, 85440, Note_on_c, 2, 72, 0
4, 85440, Note_on_c, 2, 71, 100
4, 85560, Note_on_c, 2, 71, 0
4, 85560, Note_on_c, 2, 72, 100
4, 85680, Note_on_c, 2, 72, 0
4, 85800, Note_on_c, 2, 74, 100
4, 85920, Note_on_c, 2, 74, 0
4, 85920, Note_on_c, 2, 72, 100
4, 86040, Note_on_c, 2, 72, 0
4, 86040, Note_on_c, 2, 71, 100
4, 86160, Note_on_c, 2, 71, 0
4, 86160, Note_on_c, 2, 69, 100
4, 86280, Note_on_c, 2, 69, 0
4, 86280, Note_on_c, 2, 71, 100
4, 86400, Note_on_c, 2, 71, 0
4, 86400, Note_on_c, 2, 72, 100
4, 86640, Note_on_c, 2, 72, 0
4, 87240, Note_on_c, 2, 74, 100
4, 87360, Note_on_c, 2, 74, 0
4, 87360, Note_on_c, 2, 72, 100
4, 87480, Note_on_c, 2, 72, 0
4, 87480, Note_on_c, 2, 71, 100
4, 87600, Note_on_c, 2, 71, 0
4, 87600, Note_on_c, 2, 72, 100
4, 87720, Note_on_c, 2, 72, 0
4, 87720, Note_on_c, 2, 69, 100
4, 87840, Note_on_c, 2, 69, 0
4, 87840, Note_on_c, 2, 71, 100
4, 88320, Note_on_c, 2, 71, 0
4, 89520, Note_on_c, 2, 67, 100
4, 89760, Note_on_c, 2, 67, 0
4, 89760, Note_on_c, 2, 65, 100
4, 90000, Note_on_c, 2, 65, 0
4, 90000, Note_on_c, 2, 63, 100
4, 90240, Note_on_c, 2, 63, 0
4, 90240, Note_on_c, 2, 62, 100
4, 90480, Note_on_c, 2, 62, 0
4, 90480, Note_on_c, 2, 60, 100
4, 90720, Note_on_c, 2, 60, 0
4, 90720, Note_on_c, 2, 62, 100
4, 90960, Note_on_c, 2, 62, 0
4, 90960, Note_on_c, 2, 64, 100
4, 91200, Note_on_c, 2, 64, 0
4, 91200, Note_on_c, 2, 65, 100
4, 91440, Note_on_c, 2, 65, 0
4, 91440, Note_on_c, 2, 64, 100
4, 91680, Note_on_c, 2, 64, 0
4, 91680, Note_on_c, 2, 65, 100
4, 91920, Note_on_c, 2, 65, 0
4, 91920, Note_on_c, 2, 67, 100
4, 92160, Note_on_c, 2, 67, 0
4, 92160, Note_on_c, 2, 60, 100
4, 92880, Note_on_c, 2, 60, 0
4, 110880, Note_on_c, 2, 46, 100
4, 111360, Note_on_c, 2, 46, 0
4, 111360, Note_on_c, 2, 51, 100
4, 111600, Note_on_c, 2, 51, 0
4, 111600, Note_on_c, 2, 48, 100
4, 111840, Note_on_c, 2, 48, 0
4, 111840, Note_on_c, 2, 50, 100
4, 112080, Note_on_c, 2, 50, 0
4, 112080, Note_on_c, 2, 38, 100
4, 112320, Note_on_c, 2, 38, 0
4, 112320, Note_on_c, 2, 43, 100
4, 112800, Note_on_c, 2, 43, 0
4, 112800, Note_on_c, 2, 39, 100
4, 113040, Note_on_c, 2, 39, 0
4, 113040, Note_on_c, 2, 36, 100
4, 113280, Note_on_c, 2, 36, 0
4, 113280, Note_on_c, 2, 38, 100
4, 113520, Note_on_c, 2, 38, 0
4, 113520, Note_on_c, 2, 36, 100
4, 113760, Note_on_c, 2, 36, 0
4, 113760, Note_on_c, 2, 34, 100
4, 114000, Note_on_c, 2, 34, 0
4, 114000, Note_on_c, 2, 46, 100
4, 114240, Note_on_c, 2, 46, 0
4, 114240, Note_on_c, 2, 51, 100
4, 114480, Note_on_c, 2, 51, 0
4, 114480, Note_on_c, 2, 45, 100
4, 114720, Note_on_c, 2, 45, 0
4, 114720, Note_on_c, 2, 50, 100
4, 114960, Note_on_c, 2, 50, 0
4, 114960, Note_on_c, 2, 38, 100
4, 115200, Note_on_c, 2, 38, 0
4, 115200, Note_on_c, 2, 43, 100
4, 115440, Note_on_c, 2, 43, 0
4, 115440, Note_on_c, 2, 55, 100
4, 115680, Note_on_c, 2, 55, 0
4, 115680, Note_on_c, 2, 48, 100
4, 115920, Note_on_c, 2, 48, 0
4, 115920, Note_on_c, 2, 41, 100
4, 116160, Note_on_c, 2, 41, 0
4, 116160, Note_on_c, 2, 53, 100
4, 116400, Note_on_c, 2, 53, 0
4, 116400, Note_on_c, 2, 46, 100
4, 116640, Note_on_c, 2, 46, 0
4, 116640, Note_on_c, 2, 39, 100
4, 117120, Note_on_c, 2, 39, 0
4, 117360, Note_on_c, 2, 51, 100
4, 117840, Note_on_c, 2, 51, 0
4, 118080, Note_on_c, 2, 50, 100
4, 118560, Note_on_c, 2, 50, 0
4, 119520, Note_on_c, 2, 38, 100
4, 120000, Note_on_c, 2, 38, 0
4, 120960, Note_on_c, 2, 50, 100
4, 121680, Note_on_c, 2, 50, 0
4, 121920, Note_on_c, 2, 50, 100
4, 122160, Note_on_c, 2, 50, 0
4, 122160, Note_on_c, 2, 48, 100
4, 122400, Note_on_c, 2, 48, 0
4, 122400, Note_on_c, 2, 47, 100
4, 122640, Note_on_c, 2, 47, 0
4, 122640, Note_on_c, 2, 45, 100
4, 122880, Note_on_c, 2, 45, 0
4, 122880, Note_on_c, 2, 43, 100
4, 123120, Note_on_c, 2, 43, 0
4, 123120, Note_on_c, 2, 48, 100
4, 123360, Note_on_c, 2, 48, 0
4, 123360, Note_on_c, 2, 36, 100
4, 123600, Note_on_c, 2, 36, 0
4, 123600, Note_on_c, 2, 48, 100
4, 123840, Note_on_c, 2, 48, 0
4, 123840, Note_on_c, 2, 48, 100
4, 124080, Note_on_c, 2, 48, 0
4, 124080, Note_on_c, 2, 36, 100
4, 124320, Note_on_c, 2, 36, 0
4, 124320, Note_on_c, 2, 48, 100
4, 124560, Note_on_c, 2, 48, 0
4, 124560, Note_on_c, 2, 48, 100
4, 124800, Note_on_c, 2, 48, 0
4, 124800, Note_on_c, 2, 36, 100
4, 125040, Note_on_c, 2, 36, 0
4, 125040, Note_on_c, 2, 48, 100
4, 125280, Note_on_c, 2, 48, 0
4, 125280, Note_on_c, 2, 48, 100
4, 125520, Note_on_c, 2, 48, 0
4, 125520, Note_on_c, 2, 55, 100
4, 125760, Note_on_c, 2, 55, 0
4, 125760, Note_on_c, 2, 53, 100
4, 126000, Note_on_c, 2, 53, 0
4, 126000, Note_on_c, 2, 52, 100
4, 126240, Note_on_c, 2, 52, 0
4, 126240, Note_on_c, 2, 50, 100
4, 126480, Note_on_c, 2, 50, 0
4, 126480, Note_on_c, 2, 48, 100
4, 126720, Note_on_c, 2, 48, 0
4, 126720, Note_on_c, 2, 41, 100
4, 126960, Note_on_c, 2, 41, 0
4, 126960, Note_on_c, 2, 53, 100
4, 127200, Note_on_c, 2, 53, 0
4, 127200, Note_on_c, 2, 51, 100
4, 127440, Note_on_c, 2, 51, 0
4, 127440, Note_on_c, 2, 50, 100
4, 127680, Note_on_c, 2, 50, 0
4, 127680, Note_on_c, 2, 48, 100
4, 127920, Note_on_c, 2, 48, 0
4, 127920, Note_on_c, 2, 46, 100
4, 128160, Note_on_c, 2, 46, 0
4, 128160, Note_on_c, 2, 39, 100
4, 128400, Note_on_c, 2, 39, 0
4, 128400, Note_on_c, 2, 51, 100
4, 128640, Note_on_c, 2, 51, 0
4, 128640, Note_on_c, 2, 50, 100
4, 128880, Note_on_c, 2, 50, 0
4, 128880, Note_on_c, 2, 48, 100
4, 129120, Note_on_c, 2, 48, 0
4, 129120, Note_on_c, 2, 46, 100
4, 129360, Note_on_c, 2, 46, 0
4, 129360, Note_on_c, 2, 44, 100
4, 129600, Note_on_c, 2, 44, 0
4, 129600, Note_on_c, 2, 38, 100
4, 129840, Note_on_c, 2, 38, 0
4, 129840, Note_on_c, 2, 50, 100
4, 130080, Note_on_c, 2, 50, 0
4, 130080, Note_on_c, 2, 48, 100
4, 130320, Note_on_c, 2, 48, 0
4, 130320, Note_on_c, 2, 47, 100
4, 130560, Note_on_c, 2, 47, 0
4, 130560, Note_on_c, 2, 45, 100
4, 130800, Note_on_c, 2, 45, 0
4, 130800, Note_on_c, 2, 43, 100
4, 131040, Note_on_c, 2, 43, 0
4, 131040, Note_on_c, 2, 36, 100
4, 131280, Note_on_c, 2, 36, 0
4, 131280, Note_on_c, 2, 48, 100
4, 131520, Note_on_c, 2, 48, 0
4, 131520, Note_on_c, 2, 46, 100
4, 131760, Note_on_c, 2, 46, 0
4, 131760, Note_on_c, 2, 44, 100
4, 132000, Note_on_c, 2, 44, 0
4, 132000, Note_on_c, 2, 43, 100
4, 132240, Note_on_c, 2, 43, 0
4, 132240, Note_on_c, 2, 41, 100
4, 132480, Note_on_c, 2, 41, 0
4, 132480, Note_on_c, 2, 43, 100
4, 132960, Note_on_c, 2, 43, 0
4, 133920, Note_on_c, 2, 55, 100
4, 134400, Note_on_c, 2, 55, 0
4, 135360, Note_on_c, 2, 43, 100
4, 135840, Note_on_c, 2, 43, 0
4, 136320, Note_on_c, 2, 67, 100
4, 136560, Note_on_c, 2, 67, 0
4, 136560, Note_on_c, 2, 65, 100
4, 136800, Note_on_c, 2, 65, 0
4, 136800, Note_on_c, 2, 64, 100
4, 137040, Note_on_c, 2, 64, 0
4, 137040, Note_on_c, 2, 62, 100
4, 137280, Note_on_c, 2, 62, 0
4, 137280, Note_on_c, 2, 60, 100
4, 137520, Note_on_c, 2, 60, 0
4, 137520, Note_on_c, 2, 65, 100
4, 138240, Note_on_c, 2, 65, 0
4, 138240, Note_on_c, 2, 65, 100
4, 138960, Note_on_c, 2, 65, 0
4, 138960, Note_on_c, 2, 65, 100
4, 139680, Note_on_c, 2, 65, 0
4, 142560, Note_on_c, 2, 51, 100
4, 143040, Note_on_c, 2, 51, 0
4, 143040, Note_on_c, 2, 56, 100
4, 143280, Note_on_c, 2, 56, 0
4, 143280, Note_on_c, 2, 53, 100
4, 143520, Note_on_c, 2, 53, 0
4, 143520, Note_on_c, 2, 55, 100
4, 143760, Note_on_c, 2, 55, 0
4, 143760, Note_on_c, 2, 43, 100
4, 144000, Note_on_c, 2, 43, 0
4, 144000, Note_on_c, 2, 48, 100
4, 144480, Note_on_c, 2, 48, 0
4, 144480, Note_on_c, 2, 44, 100
4, 144720, Note_on_c, 2, 44, 0
4, 144720, Note_on_c, 2, 41, 100
4, 144960, Note_on_c, 2, 41, 0
4, 144960, Note_on_c, 2, 43, 100
4, 145200, Note_on_c, 2, 43, 0
4, 145200, Note_on_c, 2, 41, 100
4, 145440, Note_on_c, 2, 41, 0
4, 145440, Note_on_c, 2, 39, 100
4, 145680, Note_on_c, 2, 39, 0
4, 145680, Note_on_c, 2, 51, 100
4, 145920, Note_on_c, 2, 51, 0
4, 145920, Note_on_c, 2, 56, 100
4, 146160, Note_on_c, 2, 56, 0
4, 146160, Note_on_c, 2, 50, 100
4, 146400, Note_on_c, 2, 50, 0
4, 146400, Note_on_c, 2, 55, 100
4, 146640, Note_on_c, 2, 55, 0
4, 146640, Note_on_c, 2, 43, 100
4, 146880, Note_on_c, 2, 43, 0
4, 146880, Note_on_c, 2, 48, 100
4, 147120, Note_on_c, 2, 48, 0
4, 147120, Note_on_c, 2, 60, 100
4, 147360, Note_on_c, 2, 60, 0
4, 147360, Note_on_c, 2, 53, 100
4, 147600, Note_on_c, 2, 53, 0
4, 147600, Note_on_c, 2, 46, 100
4, 147840, Note_on_c, 2, 46, 0
4, 147840, Note_on_c, 2, 58, 100
4, 148080, Note_on_c, 2, 58, 0
4, 148080, Note_on_c, 2, 51, 100
4, 148320, Note_on_c, 2, 51, 0
4, 148320, Note_on_c, 2, 44, 100
4, 149040, Note_on_c, 2, 44, 0
4, 149760, Note_on_c, 2, 43, 100
4, 150000, Note_on_c, 2, 43, 0
4, 150000, Note_on_c, 2, 45, 100
4, 150240, Note_on_c, 2, 45, 0
4, 150240, Note_on_c, 2, 47, 100
4, 150480, Note_on_c, 2, 47, 0
4, 150480, Note_on_c, 2, 48, 100
4, 150720, Note_on_c, 2, 48, 0
4, 150720, Note_on_c, 2, 50, 100
4, 150960, Note_on_c, 2, 50, 0
4, 150960, Note_on_c, 2, 51, 100
4, 151200, Note_on_c, 2, 51, 0
4, 151200, Note_on_c, 2, 53, 100
4, 151320, Note_on_c, 2, 53, 0
4, 151320, Note_on_c, 2, 56, 100
4, 151440, Note_on_c, 2, 56, 0
4, 151440, Note_on_c, 2, 53, 100
4, 151560, Note_on_c, 2, 53, 0
4, 151560, Note_on_c, 2, 56, 100
4, 151680, Note_on_c, 2, 56, 0
4, 151680, Note_on_c, 2, 53, 100
4, 151800, Note_on_c, 2, 53, 0
4, 151800, Note_on_c, 2, 56, 100
4, 151920, Note_on_c, 2, 56, 0
4, 151920, Note_on_c, 2, 54, 100
4, 152040, Note_on_c, 2, 54, 0
4, 152040, Note_on_c, 2, 57, 100
4, 152160, Note_on_c, 2, 57, 0
4, 152160, Note_on_c, 2, 54, 100
4, 152280, Note_on_c, 2, 54, 0
4, 152280, Note_on_c, 2, 57, 100
4, 152400, Note_on_c, 2, 57, 0
4, 152400, Note_on_c, 2, 54, 100
4, 152520, Note_on_c, 2, 54, 0
4, 152520, Note_on_c, 2, 57, 100
4, 152640, Note_on_c, 2, 57, 0
4, 152640, Note_on_c, 2, 55, 100
4, 152760, Note_on_c, 2, 55, 0
4, 152760, Note_on_c, 2, 59, 100
4, 152880, Note_on_c, 2, 59, 0
4, 152880, Note_on_c, 2, 55, 100
4, 153000, Note_on_c, 2, 55, 0
4, 153000, Note_on_c, 2, 59, 100
4, 153120, Note_on_c, 2, 59, 0
4, 153120, Note_on_c, 2, 55, 100
4, 153240, Note_on_c, 2, 55, 0
4, 153240, Note_on_c, 2, 59, 100
4, 153360, Note_on_c, 2, 59, 0
4, 153360, Note_on_c, 2, 56, 100
4, 153480, Note_on_c, 2, 56, 0
4, 153480, Note_on_c, 2, 60, 100
4, 153600, Note_on_c, 2, 60, 0
4, 153600, Note_on_c, 2, 56, 100
4, 153720, Note_on_c, 2, 56, 0
4, 153720, Note_on_c, 2, 60, 100
4, 153840, Note_on_c, 2, 60, 0
4, 153840, Note_on_c, 2, 56, 100
4, 153960, Note_on_c, 2, 56, 0
4, 153960, Note_on_c, 2, 60, 100
4, 154080, Note_on_c, 2, 60, 0
4, 154080, Note_on_c, 2, 57, 100
4, 154320, Note_on_c, 2, 57, 0
4, 154320, Note_on_c, 2, 55, 100
4, 154560, Note_on_c, 2, 55, 0
4, 154560, Note_on_c, 2, 54, 100
4, 154800, Note_on_c, 2, 54, 0
4, 154800, Note_on_c, 2, 55, 100
4, 155280, Note_on_c, 2, 55, 0
4, 155280, Note_on_c, 2, 43, 100
4, 155520, Note_on_c, 2, 43, 0
4, 155520, Note_on_c, 2, 36, 100
4, 156000, Note_on_c, 2, 36, 0
4, 164160, Note_on_c, 2, 55, 100
4, 165120, Note_on_c, 2, 55, 0
4, 165120, Note_on_c, 2, 57, 100
4, 165360, Note_on_c, 2, 57, 0
4, 165360, Note_on_c, 2, 58, 100
4, 165600, Note_on_c, 2, 58, 0
4, 165600, Note_on_c, 2, 48, 100
4, 166320, Note_on_c, 2, 48, 0
4, 166800, Note_on_c, 2, 48, 100
4, 167040, Note_on_c, 2, 48, 0
4, 167040, Note_on_c, 2, 53, 100
4, 167760, Note_on_c, 2, 53, 0
4, 168240, Note_on_c, 2, 50, 100
4, 168480, Note_on_c, 2, 50, 0
4, 168480, Note_on_c, 2, 55, 100
4, 168960, Note_on_c, 2, 55, 0
4, 168960, Note_on_c, 2, 51, 100
4, 169200, Note_on_c, 2, 51, 0
4, 169200, Note_on_c, 2, 48, 100
4, 169680, Note_on_c, 2, 48, 0
4, 169680, Note_on_c, 2, 50, 100
4, 169920, Note_on_c, 2, 50, 0
4, 169920, Note_on_c, 2, 55, 100
4, 170160, Note_on_c, 2, 55, 0
4, 170160, Note_on_c, 2, 62, 100
4, 170400, Note_on_c, 2, 62, 0
4, 170400, Note_on_c, 2, 67, 100
4, 170880, Note_on_c, 2, 67, 0
4, 170880, Note_on_c, 2, 65, 100
4, 171000, Note_on_c, 2, 65, 0
4, 171000, Note_on_c, 2, 63, 100
4, 171120, Note_on_c, 2, 63, 0
4, 171120, Note_on_c, 2, 65, 100
4, 171600, Note_on_c, 2, 65, 0
4, 171600, Note_on_c, 2, 63, 100
4, 171840, Note_on_c, 2, 63, 0
4, 171840, Note_on_c, 2, 68, 100
4, 172080, Note_on_c, 2, 68, 0
4, 172080, Note_on_c, 2, 65, 100
4, 172320, Note_on_c, 2, 65, 0
4, 172320, Note_on_c, 2, 67, 100
4, 172560, Note_on_c, 2, 67, 0
4, 172560, Note_on_c, 2, 55, 100
4, 172800, Note_on_c, 2, 55, 0
4, 172800, Note_on_c, 2, 60, 100
4, 173280, Note_on_c, 2, 60, 0
4, 173280, Note_on_c, 2, 61, 100
4, 173520, Note_on_c, 2, 61, 0
4, 173520, Note_on_c, 2, 58, 100
4, 173760, Note_on_c, 2, 58, 0
4, 173760, Note_on_c, 2, 60, 100
4, 174000, Note_on_c, 2, 60, 0
4, 174000, Note_on_c, 2, 55, 100
4, 174240, Note_on_c, 2, 55, 0
4, 174240, Note_on_c, 2, 57, 100
4, 174480, Note_on_c, 2, 57, 0
4, 174480, Note_on_c, 2, 53, 100
4, 174720, Note_on_c, 2, 53, 0
4, 174720, Note_on_c, 2, 58, 100
4, 175200, Note_on_c, 2, 58, 0
4, 175200, Note_on_c, 2, 56, 100
4, 175320, Note_on_c, 2, 56, 0
4, 175320, Note_on_c, 2, 55, 100
4, 175440, Note_on_c, 2, 55, 0
4, 175440, Note_on_c, 2, 56, 100
4, 175920, Note_on_c, 2, 56, 0
4, 175920, Note_on_c, 2, 55, 100
4, 176160, Note_on_c, 2, 55, 0
4, 176160, Note_on_c, 2, 60, 100
4, 176400, Note_on_c, 2, 60, 0
4, 176400, Note_on_c, 2, 53, 100
4, 176640, Note_on_c, 2, 53, 0
4, 176640, Note_on_c, 2, 58, 100
4, 176880, Note_on_c, 2, 58, 0
4, 176880, Note_on_c, 2, 46, 100
4, 177120, Note_on_c, 2, 46, 0
4, 177120, Note_on_c, 2, 39, 100
4, 177600, Note_on_c, 2, 39, 0
4, 177600, Note_on_c, 2, 51, 100
4, 177840, Note_on_c, 2, 51, 0
4, 177840, Note_on_c, 2, 50, 100
4, 178320, Note_on_c, 2, 50, 0
4, 178320, Note_on_c, 2, 43, 100
4, 178560, Note_on_c, 2, 43, 0
4, 178560, Note_on_c, 2, 36, 100
4, 178800, Note_on_c, 2, 36, 0
4, 178800, Note_on_c, 2, 48, 100
4, 179040, Note_on_c, 2, 48, 0
4, 179040, Note_on_c, 2, 50, 100
4, 179280, Note_on_c, 2, 50, 0
4, 179280, Note_on_c, 2, 51, 100
4, 179520, Note_on_c, 2, 51, 0
4, 179520, Note_on_c, 2, 53, 100
4, 179760, Note_on_c, 2, 53, 0
4, 179760, Note_on_c, 2, 55, 100
4, 180000, Note_on_c, 2, 55, 0
4, 180000, Note_on_c, 2, 44, 100
4, 180720, Note_on_c, 2, 44, 0
4, 180720, Note_on_c, 2, 45, 100
4, 181440, Note_on_c, 2, 45, 0
4, 181440, Note_on_c, 2, 46, 100
4, 182160, Note_on_c, 2, 46, 0
4, 182160, Note_on_c, 2, 47, 100
4, 182880, Note_on_c, 2, 47, 0
4, 182880, Note_on_c, 2, 48, 100
4, 183120, Note_on_c, 2, 48, 0
4, 183120, Note_on_c, 2, 43, 100
4, 183360, Note_on_c, 2, 43, 0
4, 183360, Note_on_c, 2, 48, 100
4, 183840, Note_on_c, 2, 48, 0
4, 183840, Note_on_c, 2, 47, 100
4, 183960, Note_on_c, 2, 47, 0
4, 183960, Note_on_c, 2, 45, 100
4, 184080, Note_on_c, 2, 45, 0
4, 184080, Note_on_c, 2, 47, 100
4, 184320, Note_on_c, 2, 47, 0
4, 184320, Note_on_c, 2, 48, 100
4, 184560, Note_on_c, 2, 48, 0
4, 184560, Note_on_c, 2, 48, 100
4, 184800, Note_on_c, 2, 48, 0
4, 184800, Note_on_c, 2, 50, 100
4, 185040, Note_on_c, 2, 50, 0
4, 185040, Note_on_c, 2, 51, 100
4, 185280, Note_on_c, 2, 51, 0
4, 185280, Note_on_c, 2, 53, 100
4, 185520, Note_on_c, 2, 53, 0
4, 185520, Note_on_c, 2, 55, 100
4, 185760, Note_on_c, 2, 55, 0
4, 185760, Note_on_c, 2, 56, 100
4, 186240, Note_on_c, 2, 56, 0
4, 187440, Note_on_c, 2, 55, 100
4, 187680, Note_on_c, 2, 55, 0
4, 187680, Note_on_c, 2, 56, 100
4, 187920, Note_on_c, 2, 56, 0
4, 187920, Note_on_c, 2, 58, 100
4, 188160, Note_on_c, 2, 58, 0
4, 188160, Note_on_c, 2, 60, 100
4, 188400, Note_on_c, 2, 60, 0
4, 188400, Note_on_c, 2, 62, 100
4, 188640, Note_on_c, 2, 62, 0
4, 188640, Note_on_c, 2, 51, 100
4, 189360, Note_on_c, 2, 51, 0
4, 189360, Note_on_c, 2, 52, 100
4, 190080, Note_on_c, 2, 52, 0
4, 190080, Note_on_c, 2, 53, 100
4, 190800, Note_on_c, 2, 53, 0
4, 190800, Note_on_c, 2, 54, 100
4, 191520, Note_on_c, 2, 54, 0
4, 191520, Note_on_c, 2, 55, 100
4, 191760, Note_on_c, 2, 55, 0
4, 191760, Note_on_c, 2, 74, 100
4, 192000, Note_on_c, 2, 74, 0
4, 192000, Note_on_c, 2, 79, 100
4, 192480, Note_on_c, 2, 79, 0
4, 192480, Note_on_c, 2, 78, 100
4, 192600, Note_on_c, 2, 78, 0
4, 192600, Note_on_c, 2, 76, 100
4, 192720, Note_on_c, 2, 76, 0
4, 192720, Note_on_c, 2, 78, 100
4, 192960, Note_on_c, 2, 78, 0
4, 193200, Note_on_c, 2, 79, 100
4, 193440, Note_on_c, 2, 79, 0
4, 193440, Note_on_c, 2, 80, 100
4, 193680, Note_on_c, 2, 80, 0
4, 193680, Note_on_c, 2, 82, 100
4, 193920, Note_on_c, 2, 82, 0
4, 193920, Note_on_c, 2, 84, 100
4, 194160, Note_on_c, 2, 84, 0
4, 194160, Note_on_c, 2, 85, 100
4, 194400, Note_on_c, 2, 85, 0
4, 194400, Note_on_c, 2, 76, 100
4, 194880, Note_on_c, 2, 76, 0
4, 194880, Note_on_c, 2, 77, 100
4, 195120, Note_on_c, 2, 77, 0
4, 195120, Note_on_c, 2, 79, 100
4, 196080, Note_on_c, 2, 79, 0
4, 196080, Note_on_c, 2, 77, 100
4, 196320, Note_on_c, 2, 77, 0
4, 196320, Note_on_c, 2, 79, 100
4, 196560, Note_on_c, 2, 79, 0
4, 196560, Note_on_c, 2, 80, 100
4, 196800, Note_on_c, 2, 80, 0
4, 196800, Note_on_c, 2, 82, 100
4, 197040, Note_on_c, 2, 82, 0
4, 197040, Note_on_c, 2, 84, 100
4, 197280, Note_on_c, 2, 84, 0
4, 197280, Note_on_c, 2, 74, 100
4, 197760, Note_on_c, 2, 74, 0
4, 197760, Note_on_c, 2, 75, 100
4, 198000, Note_on_c, 2, 75, 0
4, 198000, Note_on_c, 2, 77, 100
4, 198960, Note_on_c, 2, 77, 0
4, 198960, Note_on_c, 2, 70, 100
4, 199200, Note_on_c, 2, 70, 0
4, 199200, Note_on_c, 2, 75, 100
4, 199680, Note_on_c, 2, 75, 0
4, 199680, Note_on_c, 2, 74, 100
4, 199800, Note_on_c, 2, 74, 0
4, 199800, Note_on_c, 2, 72, 100
4, 199920, Note_on_c, 2, 72, 0
4, 199920, Note_on_c, 2, 74, 100
4, 200160, Note_on_c, 2, 74, 0
4, 200160, Note_on_c, 2, 72, 100
4, 200640, Note_on_c, 2, 72, 0
4, 200640, Note_on_c, 2, 77, 100
4, 201120, Note_on_c, 2, 77, 0
4, 201120, Note_on_c, 2, 75, 100
4, 201240, Note_on_c, 2, 75, 0
4, 201240, Note_on_c, 2, 74, 100
4, 201360, Note_on_c, 2, 74, 0
4, 201360, Note_on_c, 2, 75, 100
4, 201600, Note_on_c, 2, 75, 0
4, 201600, Note_on_c, 2, 74, 100
4, 201840, Note_on_c, 2, 74, 0
4, 201840, Note_on_c, 2, 86, 100
4, 202080, Note_on_c, 2, 86, 0
4, 202080, Note_on_c, 2, 79, 100
4, 202320, Note_on_c, 2, 79, 0
4, 202320, Note_on_c, 2, 87, 100
4, 202440, Note_on_c, 2, 87, 0
4, 202440, Note_on_c, 2, 86, 100
4, 202560, Note_on_c, 2, 86, 0
4, 202560, Note_on_c, 2, 84, 100
4, 202680, Note_on_c, 2, 84, 0
4, 202680, Note_on_c, 2, 82, 100
4, 202800, Note_on_c, 2, 82, 0
4, 202800, Note_on_c, 2, 80, 100
4, 202920, Note_on_c, 2, 80, 0
4, 202920, Note_on_c, 2, 79, 100
4, 203040, Note_on_c, 2, 79, 0
4, 203040, Note_on_c, 2, 80, 100
4, 203160, Note_on_c, 2, 80, 0
4, 203160, Note_on_c, 2, 79, 100
4, 203280, Note_on_c, 2, 79, 0
4, 203280, Note_on_c, 2, 77, 100
4, 203400, Note_on_c, 2, 77, 0
4, 203400, Note_on_c, 2, 75, 100
4, 203520, Note_on_c, 2, 75, 0
4, 203520, Note_on_c, 2, 74, 100
4, 203640, Note_on_c, 2, 74, 0
4, 203640, Note_on_c, 2, 72, 100
4, 203760, Note_on_c, 2, 72, 0
4, 203760, Note_on_c, 2, 74, 100
4, 203880, Note_on_c, 2, 74, 0
4, 203880, Note_on_c, 2, 72, 100
4, 204000, Note_on_c, 2, 72, 0
4, 204000, Note_on_c, 2, 70, 100
4, 204120, Note_on_c, 2, 70, 0
4, 204120, Note_on_c, 2, 68, 100
4, 204240, Note_on_c, 2, 68, 0
4, 204240, Note_on_c, 2, 67, 100
4, 204360, Note_on_c, 2, 67, 0
4, 204360, Note_on_c, 2, 65, 100
4, 204480, Note_on_c, 2, 65, 0
4, 204480, Note_on_c, 2, 67, 100
4, 204720, Note_on_c, 2, 67, 0
4, 204720, Note_on_c, 2, 79, 100
4, 204960, Note_on_c, 2, 79, 0
4, 204960, Note_on_c, 2, 77, 100
4, 205200, Note_on_c, 2, 77, 0
4, 205200, Note_on_c, 2, 75, 100
4, 205920, Note_on_c, 2, 75, 0
4, 206160, Note_on_c, 2, 77, 100
4, 206400, Note_on_c, 2, 77, 0
4, 206400, Note_on_c, 2, 75, 100
4, 206640, Note_on_c, 2, 75, 0
4, 206640, Note_on_c, 2, 74, 100
4, 207360, Note_on_c, 2, 74, 0
4, 207840, Note_on_c, 2, 79, 100
4, 208320, Note_on_c, 2, 79, 0
4, 208320, Note_on_c, 2, 77, 100
4, 208560, Note_on_c, 2, 77, 0
4, 208560, Note_on_c, 2, 75, 100
4, 209040, Note_on_c, 2, 75, 0
4, 209040, Note_on_c, 2, 74, 100
4, 209280, Note_on_c, 2, 74, 0
4, 209280, Note_on_c, 2, 72, 100
4, 209520, Note_on_c, 2, 72, 0
4, 209520, Note_on_c, 2, 71, 100
4, 210240, Note_on_c, 2, 71, 0
4, 210240, Note_on_c, 2, 72, 100
4, 210720, Note_on_c, 2, 72, 0
4, 210960, Note_on_c, 2, 72, 100
4, 211440, Note_on_c, 2, 72, 0
4, 211680, Note_on_c, 2, 72, 100
4, 212160, Note_on_c, 2, 72, 0
4, 212160, Note_on_c, 2, 71, 100
4, 212400, Note_on_c, 2, 71, 0
4, 212400, Note_on_c, 2, 72, 100
4, 212880, Note_on_c, 2, 72, 0
4, 214800, Note_on_c, 2, 67, 100
4, 215040, Note_on_c, 2, 67, 0
4, 215040, Note_on_c, 2, 69, 100
4, 215280, Note_on_c, 2, 69, 0
4, 215280, Note_on_c, 2, 71, 100
4, 215520, Note_on_c, 2, 71, 0
4, 215520, Note_on_c, 2, 72, 100
4, 215760, Note_on_c, 2, 72, 0
4, 215760, Note_on_c, 2, 74, 100
4, 216000, Note_on_c, 2, 74, 0
4, 216000, Note_on_c, 2, 63, 100
4, 216480, Note_on_c, 2, 63, 0
4, 217680, Note_on_c, 2, 72, 100
4, 217920, Note_on_c, 2, 72, 0
4, 217920, Note_on_c, 2, 74, 100
4, 218160, Note_on_c, 2, 74, 0
4, 218160, Note_on_c, 2, 75, 100
4, 218400, Note_on_c, 2, 75, 0
4, 218400, Note_on_c, 2, 77, 100
4, 218640, Note_on_c, 2, 77, 0
4, 218640, Note_on_c, 2, 79, 100
4, 218880, Note_on_c, 2, 79, 0
4, 218880, Note_on_c, 2, 72, 100
4, 219360, Note_on_c, 2, 72, 0
4, 219600, Note_on_c, 2, 72, 100
4, 220080, Note_on_c, 2, 72, 0
4, 220320, Note_on_c, 2, 77, 100
4, 220560, Note_on_c, 2, 77, 0
4, 220560, Note_on_c, 2, 80, 100
4, 220800, Note_on_c, 2, 80, 0
4, 220800, Note_on_c, 2, 79, 100
4, 221040, Note_on_c, 2, 79, 0
4, 221040, Note_on_c, 2, 77, 100
4, 221280, Note_on_c, 2, 77, 0
4, 221280, Note_on_c, 2, 75, 100
4, 221520, Note_on_c, 2, 75, 0
4, 221520, Note_on_c, 2, 74, 100
4, 221760, Note_on_c, 2, 74, 0
4, 221760, Note_on_c, 2, 75, 100
4, 222240, Note_on_c, 2, 75, 0
4, 222240, Note_on_c, 2, 75, 100
4, 222480, Note_on_c, 2, 75, 0
4, 222480, Note_on_c, 2, 74, 100
4, 223200, Note_on_c, 2, 74, 0
4, 223200, Note_on_c, 2, 79, 100
4, 223440, Note_on_c, 2, 79, 0
4, 223440, Note_on_c, 2, 72, 100
4, 224160, Note_on_c, 2, 72, 0
4, 224160, Note_on_c, 2, 71, 100
4, 224640, Note_on_c, 2, 71, 0
4, 224640, Note_on_c, 2, 67, 100
4, 224640, Note_on_c, 2, 63, 100
4, 225120, Note_on_c, 2, 63, 0
4, 225120, Note_on_c, 2, 67, 0
4, 225120, End_track
5, 0, Start_track
5, 0, MIDI_port, 0
5, 0, Title_t, "Partita in C minor - BWV 997"
5, 0, Program_c, 3, 24
5, 0, Control_c, 3, 7, 100
5, 0, Control_c, 3, 10, 49
5, 77760, Note_on_c, 3, 57, 100
5, 78240, Note_on_c, 3, 57, 0
5, 90480, Note_on_c, 3, 77, 100
5, 90840, Note_on_c, 3, 77, 0
5, 90840, Note_on_c, 3, 80, 100
5, 90960, Note_on_c, 3, 80, 0
5, 90960, Note_on_c, 3, 79, 100
5, 91080, Note_on_c, 3, 79, 0
5, 91080, Note_on_c, 3, 77, 100
5, 91200, Note_on_c, 3, 77, 0
5, 91200, Note_on_c, 3, 76, 100
5, 91320, Note_on_c, 3, 76, 0
5, 91320, Note_on_c, 3, 77, 100
5, 91440, Note_on_c, 3, 77, 0
5, 91560, Note_on_c, 3, 79, 100
5, 91680, Note_on_c, 3, 79, 0
5, 91680, Note_on_c, 3, 77, 100
5, 91800, Note_on_c, 3, 77, 0
5, 91800, Note_on_c, 3, 76, 100
5, 91920, Note_on_c, 3, 76, 0
5, 91920, Note_on_c, 3, 74, 100
5, 92040, Note_on_c, 3, 74, 0
5, 92040, Note_on_c, 3, 76, 100
5, 92160, Note_on_c, 3, 76, 0
5, 92160, Note_on_c, 3, 77, 100
5, 92400, Note_on_c, 3, 77, 0
5, 92400, Note_on_c, 3, 72, 100
5, 92640, Note_on_c, 3, 72, 0
5, 92640, Note_on_c, 3, 77, 100
5, 93000, Note_on_c, 3, 77, 0
5, 93000, Note_on_c, 3, 79, 100
5, 93120, Note_on_c, 3, 79, 0
5, 93120, Note_on_c, 3, 77, 100
5, 93240, Note_on_c, 3, 77, 0
5, 93240, Note_on_c, 3, 76, 100
5, 93360, Note_on_c, 3, 76, 0
5, 93360, Note_on_c, 3, 77, 100
5, 93480, Note_on_c, 3, 77, 0
5, 93480, Note_on_c, 3, 74, 100
5, 93600, Note_on_c, 3, 74, 0
5, 93600, Note_on_c, 3, 76, 100
5, 94080, Note_on_c, 3, 76, 0
5, 94080, Note_on_c, 3, 84, 100
5, 94320, Note_on_c, 3, 84, 0
5, 94320, Note_on_c, 3, 74, 100
5, 94560, Note_on_c, 3, 74, 0
5, 94560, Note_on_c, 3, 76, 100
5, 95040, Note_on_c, 3, 76, 0
5, 95040, Note_on_c, 3, 77, 100
5, 95520, Note_on_c, 3, 77, 0
5, 149760, Note_on_c, 3, 71, 100
5, 150240, Note_on_c, 3, 71, 0
5, 150240, End_track
6, 0, Start_track
6, 0, MIDI_port, 0
6, 0, Title_t, "for Lute or Keyboard"
6, 0, End_track
7, 0, Start_track
7, 0, MIDI_port, 0
7, 0, Title_t, "--------------------------------------"
7, 0, End_track
8, 0, Start_track
8, 0, MIDI_port, 0
8, 0, Title_t, "2nd Movement: Fuga"
8, 0, End_track
9, 0, Start_track
9, 0, MIDI_port, 0
9, 0, Title_t, "--------------------------------------"
9, 0, End_track
10, 0, Start_track
10, 0, MIDI_port, 0
10, 0, Title_t, "Sequenced with Cakewalk Pro Audio by"
10, 0, End_track
11, 0, Start_track
11, 0, MIDI_port, 0
11, 0, Title_t, "David J. Grossman - dave@unpronounceable.com"
11, 0, End_track
12, 0, Start_track
12, 0, MIDI_port, 0
12, 0, Title_t, "This and other Bach MIDI files can be found at:"
12, 0, End_track
13, 0, Start_track
13, 0, MIDI_port, 0
13, 0, Title_t, "Dave's J.S. Bach Page"
13, 0, End_track
14, 0, Start_track
14, 0, MIDI_port, 0
14, 0, Title_t, "http://www.unpronounceable.com/bach"
14, 0, End_track
15, 0, Start_track
15, 0, MIDI_port, 0
15, 0, Title_t, "--------------------------------------"
15, 0, End_track
16, 0, Start_track
16, 0, MIDI_port, 0
16, 0, Title_t, "Original Filename: 997-2fug.mid"
16, 0, End_track
17, 0, Start_track
17, 0, MIDI_port, 0
17, 0, Title_t, "Last Modified: March 29, 1997"
17, 0, End_track
0, 0, End_of_file
