0, 0, Header, 1, 9, 240
1, 0, Start_track
1, 0, Time_signature, 4, 2, 12, 8
1, 0, Tempo, 1764706
1, 3708, Tempo, 1875000
1, 3840, Tempo, 1764706
1, 4644, Tempo, 1875000
1, 4800, Tempo, 1764706
1, 5628, Tempo, 1935484
1, 5760, Tempo, 1764706
1, 6096, Tempo, 2000000
1, 6396, Tempo, 1764706
1, 6588, Tempo, 1935484
1, 6660, Tempo, 1875000
1, 6684, Tempo, 2000000
1, 6720, Tempo, 1764706
1, 6732, Tempo, 2000000
1, 6828, Tempo, 1764706
1, 9264, Tempo, 1875000
1, 9600, Tempo, 1764706
1, 10296, Tempo, 1875000
1, 10560, Tempo, 1764706
1, 11844, Tempo, 1935484
1, 12108, Tempo, 1818182
1, 12336, Tempo, 2068966
1, 12480, Tempo, 1764706
1, 12492, Tempo, 2068966
1, 12564, Tempo, 1764706
1, 15372, Tempo, 1875000
1, 15696, Tempo, 2000000
1, 15960, Tempo, 1764706
1, 17748, Tempo, 1875000
1, 18108, Tempo, 1764706
1, 18276, Tempo, 1875000
1, 18612, Tempo, 1764706
1, 18792, Tempo, 1875000
1, 19044, Tempo, 1764706
1, 23124, Tempo, 1875000
1, 23508, Tempo, 2000000
1, 23952, Tempo, 2500000
1, 24000, Tempo, 1764706
1, 25212, Tempo, 1875000
1, 25668, Tempo, 1764706
1, 26424, Tempo, 1935484
1, 26712, Tempo, 1764706
1, 26892, Tempo, 1818182
1, 27288, Tempo, 1764706
1, 27804, Tempo, 2068966
1, 27840, Tempo, 1764706
1, 29340, Tempo, 1935484
1, 29532, Tempo, 2000000
1, 29664, Tempo, 1764706
1, 31044, Tempo, 1935484
1, 31320, Tempo, 1875000
1, 31536, Tempo, 1818182
1, 31644, Tempo, 2142857
1, 31680, Tempo, 1764706
1, 34356, Tempo, 1875000
1, 34476, Tempo, 1935484
1, 34560, Tempo, 1764706
1, 34584, Tempo, 1875000
1, 34896, Tempo, 2000000
1, 34944, Tempo, 2307692
1, 35004, Tempo, 2608696
1, 35148, Tempo, 1818182
1, 35208, Tempo, 1764706
1, 35208, End_track
2, 0, Start_track
2, 0, Title_t, "Violin"
2, 0, Program_c, 6, 40
2, 0, Control_c, 6, 7, 100
2, 957, Note_on_c, 6, 78, 48
2, 2030, Note_off_c, 6, 78, 64
2, 2042, Note_on_c, 6, 83, 64
2, 2102, Note_on_c, 6, 79, 53
2, 2107, Note_off_c, 6, 83, 64
2, 2154, Note_off_c, 6, 79, 64
2, 2161, Note_on_c, 6, 78, 59
2, 2188, Note_on_c, 6, 76, 64
2, 2202, Note_off_c, 6, 78, 64
2, 2228, Note_on_c, 6, 74, 51
2, 2229, Note_off_c, 6, 76, 64
2, 2271, Note_off_c, 6, 74, 64
2, 2279, Note_on_c, 6, 73, 53
2, 2341, Note_on_c, 6, 74, 57
2, 2347, Note_off_c, 6, 73, 64
2, 2394, Note_off_c, 6, 74, 64
2, 2404, Note_on_c, 6, 73, 41
2, 2624, Note_off_c, 6, 73, 64
2, 2629, Note_on_c, 6, 71, 44
2, 2704, Note_on_c, 6, 69, 30
2, 2707, Note_off_c, 6, 71, 64
2, 2828, Note_off_c, 6, 69, 64
2, 2873, Note_on_c, 6, 81, 58
2, 3407, Note_off_c, 6, 81, 64
2, 3411, Note_on_c, 6, 78, 42
2, 3463, Note_off_c, 6, 78, 64
2, 3475, Note_on_c, 6, 72, 60
2, 3536, Note_on_c, 6, 71, 52
2, 3541, Note_off_c, 6, 72, 64
2, 3574, Note_off_c, 6, 71, 64
2, 3595, Note_on_c, 6, 76, 63
2, 3656, Note_on_c, 6, 75, 42
2, 3659, Note_off_c, 6, 76, 64
2, 3697, Note_off_c, 6, 75, 64
2, 3715, Note_on_c, 6, 81, 52
2, 3779, Note_on_c, 6, 79, 51
2, 3788, Note_off_c, 6, 81, 64
2, 3825, Note_off_c, 6, 79, 64
2, 3845, Note_on_c, 6, 79, 55
2, 4356, Note_off_c, 6, 79, 64
2, 4370, Note_on_c, 6, 76, 57
2, 4418, Note_off_c, 6, 76, 64
2, 4432, Note_on_c, 6, 71, 51
2, 4496, Note_on_c, 6, 69, 48
2, 4499, Note_off_c, 6, 71, 64
2, 4539, Note_off_c, 6, 69, 64
2, 4556, Note_on_c, 6, 74, 66
2, 4613, Note_on_c, 6, 73, 47
2, 4618, Note_off_c, 6, 74, 64
2, 4660, Note_off_c, 6, 73, 64
2, 4674, Note_on_c, 6, 79, 58
2, 4736, Note_on_c, 6, 78, 40
2, 4744, Note_off_c, 6, 79, 64
2, 4788, Note_off_c, 6, 78, 64
2, 4801, Note_on_c, 6, 78, 52
2, 5140, Note_off_c, 6, 78, 64
2, 5154, Note_on_c, 6, 80, 57
2, 5215, Note_on_c, 6, 81, 60
2, 5227, Note_off_c, 6, 80, 64
2, 5275, Note_off_c, 6, 81, 64
2, 5277, Note_on_c, 6, 74, 51
2, 5385, Note_off_c, 6, 74, 64
2, 5402, Note_on_c, 6, 74, 56
2, 5432, Note_on_c, 6, 76, 68
2, 5439, Note_off_c, 6, 74, 64
2, 5465, Note_on_c, 6, 78, 51
2, 5466, Note_off_c, 6, 76, 64
2, 5580, Note_on_c, 6, 76, 38
2, 5588, Note_off_c, 6, 78, 64
2, 5618, Note_off_c, 6, 76, 64
2, 5640, Note_on_c, 6, 76, 63
2, 5698, Note_on_c, 6, 74, 51
2, 5704, Note_off_c, 6, 76, 64
2, 5737, Note_off_c, 6, 74, 64
2, 5758, Note_on_c, 6, 73, 52
2, 5817, Note_on_c, 6, 71, 47
2, 5826, Note_off_c, 6, 73, 64
2, 5869, Note_off_c, 6, 71, 64
2, 5881, Note_on_c, 6, 71, 58
2, 5918, Note_on_c, 6, 73, 53
2, 5925, Note_off_c, 6, 71, 64
2, 5954, Note_on_c, 6, 74, 57
2, 5965, Note_off_c, 6, 73, 64
2, 5990, Note_off_c, 6, 74, 64
2, 6000, Note_on_c, 6, 74, 57
2, 6117, Note_on_c, 6, 73, 53
2, 6118, Note_off_c, 6, 74, 64
2, 6175, Note_on_c, 6, 71, 51
2, 6183, Note_off_c, 6, 73, 64
2, 6236, Note_off_c, 6, 71, 64
2, 6243, Note_on_c, 6, 69, 43
2, 6667, Note_off_c, 6, 69, 64
2, 6715, Note_on_c, 6, 78, 52
2, 7784, Note_off_c, 6, 78, 64
2, 7796, Note_on_c, 6, 83, 62
2, 7855, Note_on_c, 6, 79, 57
2, 7862, Note_off_c, 6, 83, 64
2, 7911, Note_off_c, 6, 79, 64
2, 7920, Note_on_c, 6, 78, 61
2, 7945, Note_on_c, 6, 76, 68
2, 7959, Note_off_c, 6, 78, 64
2, 7982, Note_on_c, 6, 74, 59
2, 7988, Note_off_c, 6, 76, 64
2, 8035, Note_off_c, 6, 74, 64
2, 8036, Note_on_c, 6, 73, 52
2, 8094, Note_on_c, 6, 74, 64
2, 8105, Note_off_c, 6, 73, 64
2, 8143, Note_off_c, 6, 74, 64
2, 8153, Note_on_c, 6, 74, 59
2, 8196, Note_on_c, 6, 73, 41
2, 8200, Note_off_c, 6, 74, 64
2, 8218, Note_on_c, 6, 74, 56
2, 8223, Note_off_c, 6, 73, 64
2, 8239, Note_on_c, 6, 73, 52
2, 8242, Note_off_c, 6, 74, 64
2, 8252, Note_on_c, 6, 74, 59
2, 8253, Note_off_c, 6, 73, 64
2, 8265, Note_on_c, 6, 73, 57
2, 8267, Note_off_c, 6, 74, 64
2, 8275, Note_off_c, 6, 73, 64
2, 8276, Note_on_c, 6, 74, 60
2, 8287, Note_on_c, 6, 73, 55
2, 8294, Note_off_c, 6, 74, 64
2, 8389, Note_off_c, 6, 73, 64
2, 8396, Note_on_c, 6, 71, 68
2, 8466, Note_on_c, 6, 69, 42
2, 8468, Note_off_c, 6, 71, 64
2, 8616, Note_off_c, 6, 69, 64
2, 8633, Note_on_c, 6, 81, 64
2, 9164, Note_off_c, 6, 81, 64
2, 9173, Note_on_c, 6, 78, 53
2, 9219, Note_off_c, 6, 78, 64
2, 9237, Note_on_c, 6, 72, 68
2, 9295, Note_on_c, 6, 71, 38
2, 9301, Note_off_c, 6, 72, 64
2, 9328, Note_off_c, 6, 71, 64
2, 9358, Note_on_c, 6, 76, 55
2, 9420, Note_on_c, 6, 75, 49
2, 9421, Note_off_c, 6, 76, 64
2, 9455, Note_off_c, 6, 75, 64
2, 9479, Note_on_c, 6, 81, 62
2, 9536, Note_on_c, 6, 79, 57
2, 9545, Note_off_c, 6, 81, 64
2, 9579, Note_off_c, 6, 79, 64
2, 9604, Note_on_c, 6, 79, 60
2, 9626, Note_on_c, 6, 78, 55
2, 9632, Note_off_c, 6, 79, 64
2, 9655, Note_on_c, 6, 79, 51
2, 9663, Note_off_c, 6, 78, 64
2, 10117, Note_off_c, 6, 79, 64
2, 10127, Note_on_c, 6, 76, 61
2, 10173, Note_off_c, 6, 76, 64
2, 10191, Note_on_c, 6, 71, 52
2, 10251, Note_on_c, 6, 69, 42
2, 10261, Note_off_c, 6, 71, 64
2, 10286, Note_off_c, 6, 69, 64
2, 10312, Note_on_c, 6, 74, 64
2, 10372, Note_on_c, 6, 73, 55
2, 10373, Note_off_c, 6, 74, 64
2, 10419, Note_off_c, 6, 73, 64
2, 10433, Note_on_c, 6, 79, 59
2, 10495, Note_on_c, 6, 78, 41
2, 10503, Note_off_c, 6, 79, 64
2, 10540, Note_off_c, 6, 78, 64
2, 10562, Note_on_c, 6, 78, 44
2, 10890, Note_off_c, 6, 78, 64
2, 10912, Note_on_c, 6, 78, 59
2, 10949, Note_on_c, 6, 80, 58
2, 10957, Note_off_c, 6, 78, 64
2, 10982, Note_on_c, 6, 81, 63
2, 10987, Note_off_c, 6, 80, 64
2, 11014, Note_off_c, 6, 81, 64
2, 11027, Note_on_c, 6, 81, 64
2, 11098, Note_on_c, 6, 74, 46
2, 11102, Note_off_c, 6, 81, 64
2, 11147, Note_off_c, 6, 74, 64
2, 11159, Note_on_c, 6, 74, 68
2, 11203, Note_on_c, 6, 76, 63
2, 11208, Note_off_c, 6, 74, 64
2, 11235, Note_on_c, 6, 78, 57
2, 11244, Note_off_c, 6, 76, 64
2, 11264, Note_off_c, 6, 78, 64
2, 11274, Note_on_c, 6, 78, 68
2, 11338, Note_on_c, 6, 76, 48
2, 11345, Note_off_c, 6, 78, 64
2, 11378, Note_off_c, 6, 76, 64
2, 11395, Note_on_c, 6, 76, 55
2, 11454, Note_on_c, 6, 74, 51
2, 11458, Note_off_c, 6, 76, 64
2, 11498, Note_off_c, 6, 74, 64
2, 11518, Note_on_c, 6, 73, 59
2, 11579, Note_on_c, 6, 71, 47
2, 11587, Note_off_c, 6, 73, 64
2, 11636, Note_off_c, 6, 71, 64
2, 11644, Note_on_c, 6, 71, 63
2, 11689, Note_on_c, 6, 73, 53
2, 11700, Note_off_c, 6, 71, 64
2, 11723, Note_on_c, 6, 74, 66
2, 11736, Note_off_c, 6, 73, 64
2, 11755, Note_off_c, 6, 74, 64
2, 11766, Note_on_c, 6, 74, 63
2, 11847, Note_off_c, 6, 74, 64
2, 11867, Note_on_c, 6, 74, 52
2, 11900, Note_on_c, 6, 73, 41
2, 11904, Note_off_c, 6, 74, 64
2, 11914, Note_on_c, 6, 74, 58
2, 11920, Note_off_c, 6, 73, 64
2, 11928, Note_on_c, 6, 73, 45
2, 11937, Note_off_c, 6, 74, 64
2, 11964, Note_on_c, 6, 71, 57
2, 11974, Note_off_c, 6, 73, 64
2, 11989, Note_off_c, 6, 71, 64
2, 12001, Note_on_c, 6, 71, 60
2, 12111, Note_on_c, 6, 69, 33
2, 12123, Note_off_c, 6, 71, 64
2, 12401, Note_off_c, 6, 69, 64
2, 23996, Note_on_c, 6, 73, 51
2, 24276, Note_off_c, 6, 73, 64
2, 24294, Note_on_c, 6, 74, 58
2, 24321, Note_on_c, 6, 73, 50
2, 24328, Note_off_c, 6, 74, 64
2, 24353, Note_on_c, 6, 71, 51
2, 24359, Note_off_c, 6, 73, 64
2, 24384, Note_on_c, 6, 73, 53
2, 24387, Note_off_c, 6, 71, 64
2, 24414, Note_off_c, 6, 73, 64
2, 24417, Note_on_c, 6, 69, 56
2, 24459, Note_off_c, 6, 69, 64
2, 24475, Note_on_c, 6, 69, 59
2, 24540, Note_off_c, 6, 69, 64
2, 24542, Note_on_c, 6, 81, 57
2, 24819, Note_off_c, 6, 81, 64
2, 24835, Note_on_c, 6, 72, 63
2, 24937, Note_off_c, 6, 72, 64
2, 24952, Note_on_c, 6, 71, 58
2, 25062, Note_off_c, 6, 71, 64
2, 25077, Note_on_c, 6, 83, 70
2, 25257, Note_on_c, 6, 81, 74
2, 25258, Note_off_c, 6, 83, 64
2, 25317, Note_off_c, 6, 81, 64
2, 25320, Note_on_c, 6, 79, 70
2, 25375, Note_off_c, 6, 79, 64
2, 25375, Note_on_c, 6, 78, 58
2, 25424, Note_off_c, 6, 78, 64
2, 25442, Note_on_c, 6, 78, 68
2, 25558, Note_on_c, 6, 79, 60
2, 25561, Note_off_c, 6, 78, 64
2, 25710, Note_off_c, 6, 79, 64
2, 25711, Note_on_c, 6, 78, 59
2, 25733, Note_on_c, 6, 76, 64
2, 25741, Note_off_c, 6, 78, 64
2, 25764, Note_on_c, 6, 74, 58
2, 25768, Note_off_c, 6, 76, 64
2, 25788, Note_off_c, 6, 74, 64
2, 25796, Note_on_c, 6, 73, 52
2, 25855, Note_on_c, 6, 71, 59
2, 25857, Note_off_c, 6, 73, 64
2, 25909, Note_off_c, 6, 71, 64
2, 25918, Note_on_c, 6, 70, 57
2, 25974, Note_on_c, 6, 71, 57
2, 25979, Note_off_c, 6, 70, 64
2, 26025, Note_off_c, 6, 71, 64
2, 26036, Note_on_c, 6, 73, 47
2, 26206, Note_off_c, 6, 73, 64
2, 26210, Note_on_c, 6, 74, 70
2, 26261, Note_off_c, 6, 74, 64
2, 26272, Note_on_c, 6, 76, 66
2, 26445, Note_off_c, 6, 76, 64
2, 26454, Note_on_c, 6, 78, 58
2, 26506, Note_off_c, 6, 78, 64
2, 26515, Note_on_c, 6, 79, 74
2, 26730, Note_off_c, 6, 79, 64
2, 26755, Note_on_c, 6, 78, 43
2, 26850, Note_off_c, 6, 78, 64
2, 26876, Note_on_c, 6, 76, 70
2, 26936, Note_on_c, 6, 74, 49
2, 26944, Note_off_c, 6, 76, 64
2, 26974, Note_off_c, 6, 74, 64
2, 26997, Note_on_c, 6, 73, 60
2, 27055, Note_on_c, 6, 71, 52
2, 27062, Note_off_c, 6, 73, 64
2, 27097, Note_off_c, 6, 71, 64
2, 27117, Note_on_c, 6, 73, 57
2, 27176, Note_on_c, 6, 74, 64
2, 27181, Note_off_c, 6, 73, 64
2, 27204, Note_on_c, 6, 76, 62
2, 27214, Note_off_c, 6, 74, 64
2, 27227, Note_off_c, 6, 76, 64
2, 27238, Note_on_c, 6, 76, 70
2, 27270, Note_on_c, 6, 74, 49
2, 27273, Note_off_c, 6, 76, 64
2, 27285, Note_on_c, 6, 76, 59
2, 27287, Note_off_c, 6, 74, 64
2, 27299, Note_on_c, 6, 74, 59
2, 27304, Note_off_c, 6, 76, 64
2, 27338, Note_on_c, 6, 73, 57
2, 27340, Note_off_c, 6, 74, 64
2, 27365, Note_off_c, 6, 73, 64
2, 27375, Note_on_c, 6, 73, 55
2, 27487, Note_on_c, 6, 71, 47
2, 27502, Note_off_c, 6, 73, 64
2, 27798, Note_off_c, 6, 71, 64
2, 27836, Note_on_c, 6, 74, 52
2, 28128, Note_off_c, 6, 74, 64
2, 28136, Note_on_c, 6, 78, 60
2, 28195, Note_on_c, 6, 76, 78
2, 28201, Note_off_c, 6, 78, 64
2, 28251, Note_on_c, 6, 74, 72
2, 28257, Note_off_c, 6, 76, 64
2, 28316, Note_off_c, 6, 74, 64
2, 28321, Note_on_c, 6, 83, 76
2, 28666, Note_off_c, 6, 83, 64
2, 28680, Note_on_c, 6, 81, 57
2, 28743, Note_on_c, 6, 80, 68
2, 28745, Note_off_c, 6, 81, 64
2, 28792, Note_off_c, 6, 80, 64
2, 28800, Note_on_c, 6, 78, 64
2, 28829, Note_on_c, 6, 76, 80
2, 28836, Note_off_c, 6, 78, 64
2, 28858, Note_off_c, 6, 76, 64
2, 28865, Note_on_c, 6, 81, 66
2, 28908, Note_off_c, 6, 81, 64
2, 28924, Note_on_c, 6, 69, 57
2, 29031, Note_off_c, 6, 69, 64
2, 29039, Note_on_c, 6, 71, 60
2, 29205, Note_on_c, 6, 73, 57
2, 29210, Note_off_c, 6, 71, 64
2, 29233, Note_on_c, 6, 74, 70
2, 29245, Note_off_c, 6, 73, 64
2, 29263, Note_off_c, 6, 74, 64
2, 29272, Note_on_c, 6, 74, 63
2, 29313, Note_on_c, 6, 73, 43
2, 29319, Note_off_c, 6, 74, 64
2, 29332, Note_on_c, 6, 74, 57
2, 29336, Note_off_c, 6, 73, 64
2, 29352, Note_on_c, 6, 73, 43
2, 29354, Note_off_c, 6, 74, 64
2, 29364, Note_on_c, 6, 74, 59
2, 29368, Note_off_c, 6, 73, 64
2, 29379, Note_on_c, 6, 73, 55
2, 29383, Note_off_c, 6, 74, 64
2, 29439, Note_on_c, 6, 71, 54
2, 29440, Note_off_c, 6, 73, 64
2, 29513, Note_on_c, 6, 69, 47
2, 29520, Note_off_c, 6, 71, 64
2, 29737, Note_off_c, 6, 69, 64
2, 29754, Note_on_c, 6, 74, 55
2, 30107, Note_off_c, 6, 74, 64
2, 30117, Note_on_c, 6, 78, 63
2, 30181, Note_on_c, 6, 76, 57
2, 30187, Note_off_c, 6, 78, 64
2, 30232, Note_off_c, 6, 76, 64
2, 30249, Note_on_c, 6, 76, 62
2, 30587, Note_off_c, 6, 76, 64
2, 30595, Note_on_c, 6, 79, 85
2, 30661, Note_on_c, 6, 78, 53
2, 30664, Note_off_c, 6, 79, 64
2, 30711, Note_off_c, 6, 78, 64
2, 30722, Note_on_c, 6, 78, 68
2, 31045, Note_off_c, 6, 78, 64
2, 31062, Note_on_c, 6, 81, 85
2, 31113, Note_on_c, 6, 83, 76
2, 31118, Note_off_c, 6, 81, 64
2, 31135, Note_on_c, 6, 81, 70
2, 31143, Note_off_c, 6, 83, 64
2, 31160, Note_on_c, 6, 79, 72
2, 31164, Note_off_c, 6, 81, 64
2, 31197, Note_off_c, 6, 79, 64
2, 31207, Note_on_c, 6, 79, 58
2, 31656, Note_off_c, 6, 79, 64
2, 31672, Note_on_c, 6, 69, 53
2, 31964, Note_on_c, 6, 73, 60
2, 31965, Note_off_c, 6, 69, 64
2, 32021, Note_off_c, 6, 73, 64
2, 32024, Note_on_c, 6, 76, 68
2, 32085, Note_off_c, 6, 76, 64
2, 32088, Note_on_c, 6, 79, 78
2, 32138, Note_off_c, 6, 79, 64
2, 32147, Note_on_c, 6, 79, 78
2, 32211, Note_on_c, 6, 76, 63
2, 32218, Note_off_c, 6, 79, 64
2, 32273, Note_off_c, 6, 76, 64
2, 32279, Note_on_c, 6, 78, 52
2, 32572, Note_on_c, 6, 79, 66
2, 32573, Note_off_c, 6, 78, 64
2, 32596, Note_on_c, 6, 81, 76
2, 32603, Note_off_c, 6, 79, 64
2, 32624, Note_off_c, 6, 81, 64
2, 32637, Note_on_c, 6, 81, 78
2, 32709, Note_on_c, 6, 74, 66
2, 32712, Note_off_c, 6, 81, 64
2, 32928, Note_on_c, 6, 78, 62
2, 32934, Note_off_c, 6, 74, 64
2, 32984, Note_off_c, 6, 78, 64
2, 32987, Note_on_c, 6, 81, 82
2, 33046, Note_on_c, 6, 83, 80
2, 33051, Note_off_c, 6, 81, 64
2, 33074, Note_on_c, 6, 84, 89
2, 33076, Note_off_c, 6, 83, 64
2, 33107, Note_off_c, 6, 84, 64
2, 33119, Note_on_c, 6, 84, 87
2, 33232, Note_on_c, 6, 83, 60
2, 33240, Note_off_c, 6, 84, 64
2, 33454, Note_off_c, 6, 83, 64
2, 33470, Note_on_c, 6, 74, 54
2, 33580, Note_off_c, 6, 74, 64
2, 33599, Note_on_c, 6, 73, 48
2, 33658, Note_on_c, 6, 76, 52
2, 33664, Note_off_c, 6, 73, 64
2, 33717, Note_off_c, 6, 76, 64
2, 33728, Note_on_c, 6, 79, 66
2, 33934, Note_off_c, 6, 79, 64
2, 33960, Note_on_c, 6, 71, 46
2, 34071, Note_off_c, 6, 71, 64
2, 34082, Note_on_c, 6, 69, 30
2, 34171, Note_off_c, 6, 69, 64
2, 34193, Note_on_c, 6, 76, 66
2, 34248, Note_on_c, 6, 78, 57
2, 34255, Note_off_c, 6, 76, 64
2, 34274, Note_on_c, 6, 79, 70
2, 34281, Note_off_c, 6, 78, 64
2, 34299, Note_off_c, 6, 79, 64
2, 34313, Note_on_c, 6, 79, 72
2, 34373, Note_on_c, 6, 78, 57
2, 34376, Note_off_c, 6, 79, 64
2, 34390, Note_off_c, 6, 78, 64
2, 34441, Note_on_c, 6, 78, 60
2, 34499, Note_on_c, 6, 76, 48
2, 34508, Note_off_c, 6, 78, 64
2, 34530, Note_off_c, 6, 76, 64
2, 34567, Note_on_c, 6, 74, 63
2, 34604, Note_on_c, 6, 73, 47
2, 34612, Note_off_c, 6, 74, 64
2, 34648, Note_on_c, 6, 71, 52
2, 34651, Note_off_c, 6, 73, 64
2, 34736, Note_off_c, 6, 71, 64
2, 34736, Note_on_c, 6, 73, 57
2, 34787, Note_off_c, 6, 73, 64
2, 34792, Note_on_c, 6, 74, 59
2, 34833, Note_on_c, 6, 73, 40
2, 34836, Note_off_c, 6, 74, 64
2, 34849, Note_on_c, 6, 74, 59
2, 34850, Note_off_c, 6, 73, 64
2, 34865, Note_on_c, 6, 73, 53
2, 34867, Note_off_c, 6, 74, 64
2, 34878, Note_on_c, 6, 74, 63
2, 34879, Note_off_c, 6, 73, 64
2, 34890, Note_on_c, 6, 73, 61
2, 34892, Note_off_c, 6, 74, 64
2, 34900, Note_on_c, 6, 74, 68
2, 34902, Note_off_c, 6, 73, 64
2, 34914, Note_on_c, 6, 73, 52
2, 34921, Note_off_c, 6, 74, 64
2, 34983, Note_on_c, 6, 74, 60
2, 34986, Note_off_c, 6, 73, 64
2, 35044, Note_off_c, 6, 74, 64
2, 35055, Note_on_c, 6, 74, 60
2, 35433, Note_off_c, 6, 74, 64
2, 35433, End_track
3, 0, Start_track
3, 0, Title_t, "Violin"
3, 0, Program_c, 7, 40
3, 0, Control_c, 7, 7, 100
3, 960, Note_on_c, 7, 74, 38
3, 2051, Note_off_c, 7, 74, 64
3, 2162, Note_on_c, 7, 71, 37
3, 2286, Note_off_c, 7, 71, 64
3, 2396, Note_on_c, 7, 69, 37
3, 2956, Note_off_c, 7, 69, 64
3, 2995, Note_on_c, 7, 72, 52
3, 3052, Note_on_c, 7, 71, 44
3, 3059, Note_off_c, 7, 72, 64
3, 3118, Note_off_c, 7, 71, 64
3, 3124, Note_on_c, 7, 72, 49
3, 3226, Note_off_c, 7, 72, 64
3, 3239, Note_on_c, 7, 81, 60
3, 3299, Note_off_c, 7, 81, 64
3, 3300, Note_on_c, 7, 72, 47
3, 3362, Note_off_c, 7, 72, 64
3, 3367, Note_on_c, 7, 71, 45
3, 3482, Note_off_c, 7, 71, 64
3, 3837, Note_on_c, 7, 71, 50
3, 3939, Note_off_c, 7, 71, 64
3, 3962, Note_on_c, 7, 76, 48
3, 4014, Note_on_c, 7, 74, 63
3, 4023, Note_off_c, 7, 76, 64
3, 4074, Note_off_c, 7, 74, 64
3, 4077, Note_on_c, 7, 76, 57
3, 4133, Note_on_c, 7, 78, 54
3, 4140, Note_off_c, 7, 76, 64
3, 4191, Note_off_c, 7, 78, 64
3, 4191, Note_on_c, 7, 79, 68
3, 4254, Note_off_c, 7, 79, 64
3, 4254, Note_on_c, 7, 76, 47
3, 4318, Note_off_c, 7, 76, 64
3, 4327, Note_on_c, 7, 69, 50
3, 4441, Note_off_c, 7, 69, 64
3, 4804, Note_on_c, 7, 69, 48
3, 5384, Note_off_c, 7, 69, 64
3, 5400, Note_on_c, 7, 68, 57
3, 5457, Note_off_c, 7, 68, 64
3, 5458, Note_on_c, 7, 69, 49
3, 5511, Note_off_c, 7, 69, 64
3, 5517, Note_on_c, 7, 71, 60
3, 5598, Note_off_c, 7, 71, 64
3, 5631, Note_on_c, 7, 68, 40
3, 5717, Note_off_c, 7, 68, 64
3, 5754, Note_on_c, 7, 69, 52
3, 5824, Note_off_c, 7, 69, 64
3, 5882, Note_on_c, 7, 69, 46
3, 6110, Note_off_c, 7, 69, 64
3, 6123, Note_on_c, 7, 68, 47
3, 6219, Note_off_c, 7, 68, 64
3, 6243, Note_on_c, 7, 64, 36
3, 6675, Note_off_c, 7, 64, 64
3, 6728, Note_on_c, 7, 74, 50
3, 7801, Note_off_c, 7, 74, 64
3, 7917, Note_on_c, 7, 71, 43
3, 8056, Note_off_c, 7, 71, 64
3, 8152, Note_on_c, 7, 69, 43
3, 8726, Note_off_c, 7, 69, 64
3, 8754, Note_on_c, 7, 72, 51
3, 8811, Note_on_c, 7, 71, 57
3, 8819, Note_off_c, 7, 72, 64
3, 8872, Note_off_c, 7, 71, 64
3, 8878, Note_on_c, 7, 72, 60
3, 8983, Note_off_c, 7, 72, 64
3, 8995, Note_on_c, 7, 81, 68
3, 9053, Note_off_c, 7, 81, 64
3, 9054, Note_on_c, 7, 72, 64
3, 9110, Note_off_c, 7, 72, 64
3, 9118, Note_on_c, 7, 71, 34
3, 9233, Note_off_c, 7, 71, 64
3, 9599, Note_on_c, 7, 71, 53
3, 9697, Note_off_c, 7, 71, 64
3, 9718, Note_on_c, 7, 76, 58
3, 9776, Note_off_c, 7, 76, 64
3, 9778, Note_on_c, 7, 74, 60
3, 9838, Note_off_c, 7, 74, 64
3, 9839, Note_on_c, 7, 76, 60
3, 9897, Note_on_c, 7, 78, 57
3, 9903, Note_off_c, 7, 76, 64
3, 9959, Note_on_c, 7, 79, 66
3, 9960, Note_off_c, 7, 78, 64
3, 10022, Note_on_c, 7, 76, 52
3, 10027, Note_off_c, 7, 79, 64
3, 10086, Note_off_c, 7, 76, 64
3, 10088, Note_on_c, 7, 69, 47
3, 10206, Note_off_c, 7, 69, 64
3, 10562, Note_on_c, 7, 69, 47
3, 11139, Note_off_c, 7, 69, 64
3, 11153, Note_on_c, 7, 68, 51
3, 11212, Note_on_c, 7, 69, 56
3, 11215, Note_off_c, 7, 68, 64
3, 11271, Note_off_c, 7, 69, 64
3, 11277, Note_on_c, 7, 71, 57
3, 11366, Note_off_c, 7, 71, 64
3, 11393, Note_on_c, 7, 68, 34
3, 11475, Note_off_c, 7, 68, 64
3, 11515, Note_on_c, 7, 69, 34
3, 11585, Note_off_c, 7, 69, 64
3, 11644, Note_on_c, 7, 69, 57
3, 11865, Note_off_c, 7, 69, 64
3, 11880, Note_on_c, 7, 68, 46
3, 11985, Note_off_c, 7, 68, 64
3, 12010, Note_on_c, 7, 64, 33
3, 12404, Note_off_c, 7, 64, 64
3, 24007, Note_on_c, 7, 69, 43
3, 24537, Note_on_c, 7, 71, 59
3, 24544, Note_off_c, 7, 69, 64
3, 24602, Note_off_c, 7, 71, 64
3, 24602, Note_on_c, 7, 72, 46
3, 24766, Note_off_c, 7, 72, 64
3, 24767, Note_on_c, 7, 71, 57
3, 24821, Note_off_c, 7, 71, 64
3, 24827, Note_on_c, 7, 69, 52
3, 24886, Note_off_c, 7, 69, 64
3, 24887, Note_on_c, 7, 67, 66
3, 24955, Note_on_c, 7, 66, 48
3, 24960, Note_off_c, 7, 67, 64
3, 25208, Note_off_c, 7, 66, 64
3, 25315, Note_on_c, 7, 75, 55
3, 25385, Note_off_c, 7, 75, 64
3, 25440, Note_on_c, 7, 76, 50
3, 26450, Note_on_c, 7, 74, 64
3, 26463, Note_off_c, 7, 76, 64
3, 26510, Note_on_c, 7, 73, 51
3, 26511, Note_off_c, 7, 74, 64
3, 26573, Note_on_c, 7, 71, 62
3, 26578, Note_off_c, 7, 73, 64
3, 26633, Note_on_c, 7, 70, 62
3, 26636, Note_off_c, 7, 71, 64
3, 26695, Note_on_c, 7, 71, 63
3, 26700, Note_off_c, 7, 70, 64
3, 26763, Note_off_c, 7, 71, 64
3, 26763, Note_on_c, 7, 73, 52
3, 26880, Note_on_c, 7, 71, 50
3, 26882, Note_off_c, 7, 73, 64
3, 26950, Note_off_c, 7, 71, 64
3, 26998, Note_on_c, 7, 71, 50
3, 27076, Note_off_c, 7, 71, 64
3, 27119, Note_on_c, 7, 71, 56
3, 27192, Note_off_c, 7, 71, 64
3, 27240, Note_on_c, 7, 70, 56
3, 27316, Note_off_c, 7, 70, 64
3, 27363, Note_on_c, 7, 66, 43
3, 27788, Note_off_c, 7, 66, 64
3, 27839, Note_on_c, 7, 64, 52
3, 28037, Note_off_c, 7, 64, 64
3, 28077, Note_on_c, 7, 66, 43
3, 28255, Note_off_c, 7, 66, 64
3, 28309, Note_on_c, 7, 59, 57
3, 28431, Note_off_c, 7, 59, 64
3, 28433, Note_on_c, 7, 64, 58
3, 28495, Note_on_c, 7, 66, 60
3, 28499, Note_off_c, 7, 64, 64
3, 28550, Note_on_c, 7, 68, 53
3, 28553, Note_off_c, 7, 66, 64
3, 28613, Note_on_c, 7, 69, 64
3, 28617, Note_off_c, 7, 68, 64
3, 28680, Note_on_c, 7, 71, 66
3, 28681, Note_off_c, 7, 69, 64
3, 28902, Note_off_c, 7, 71, 64
3, 28927, Note_on_c, 7, 69, 45
3, 29154, Note_off_c, 7, 69, 64
3, 29157, Note_on_c, 7, 68, 45
3, 29268, Note_off_c, 7, 68, 64
3, 29274, Note_on_c, 7, 69, 47
3, 29782, Note_off_c, 7, 69, 64
3, 29868, Note_on_c, 7, 71, 55
3, 29931, Note_on_c, 7, 72, 54
3, 29937, Note_off_c, 7, 71, 64
3, 29996, Note_on_c, 7, 71, 57
3, 29997, Note_off_c, 7, 72, 64
3, 30056, Note_on_c, 7, 73, 50
3, 30062, Note_off_c, 7, 71, 64
3, 30118, Note_off_c, 7, 73, 64
3, 30120, Note_on_c, 7, 74, 56
3, 30311, Note_off_c, 7, 74, 64
3, 30356, Note_on_c, 7, 73, 54
3, 30415, Note_on_c, 7, 71, 59
3, 30423, Note_off_c, 7, 73, 64
3, 30476, Note_off_c, 7, 71, 64
3, 30481, Note_on_c, 7, 73, 45
3, 30536, Note_on_c, 7, 75, 61
3, 30544, Note_off_c, 7, 73, 64
3, 30595, Note_off_c, 7, 75, 64
3, 30603, Note_on_c, 7, 76, 54
3, 30812, Note_off_c, 7, 76, 64
3, 30843, Note_on_c, 7, 75, 33
3, 30900, Note_on_c, 7, 73, 57
3, 30905, Note_off_c, 7, 75, 64
3, 30958, Note_off_c, 7, 73, 64
3, 30959, Note_on_c, 7, 75, 59
3, 31014, Note_on_c, 7, 76, 70
3, 31017, Note_off_c, 7, 75, 64
3, 31080, Note_off_c, 7, 76, 64
3, 31081, Note_on_c, 7, 78, 57
3, 31258, Note_off_c, 7, 78, 64
3, 31262, Note_on_c, 7, 75, 53
3, 31326, Note_on_c, 7, 76, 60
3, 31330, Note_off_c, 7, 75, 64
3, 31381, Note_on_c, 7, 71, 55
3, 31386, Note_off_c, 7, 76, 64
3, 31442, Note_off_c, 7, 71, 64
3, 31446, Note_on_c, 7, 64, 47
3, 31703, Note_off_c, 7, 64, 64
3, 31734, Note_on_c, 7, 61, 47
3, 31798, Note_on_c, 7, 64, 61
3, 31800, Note_off_c, 7, 61, 64
3, 31853, Note_off_c, 7, 64, 64
3, 31859, Note_on_c, 7, 69, 57
3, 31909, Note_off_c, 7, 69, 64
3, 31922, Note_on_c, 7, 73, 43
3, 32012, Note_off_c, 7, 73, 64
3, 32036, Note_on_c, 7, 69, 52
3, 32242, Note_off_c, 7, 69, 64
3, 32271, Note_on_c, 7, 73, 58
3, 32330, Note_off_c, 7, 73, 64
3, 32332, Note_on_c, 7, 74, 58
3, 32388, Note_off_c, 7, 74, 64
3, 32401, Note_on_c, 7, 62, 55
3, 32753, Note_off_c, 7, 62, 64
3, 32758, Note_on_c, 7, 64, 47
3, 32863, Note_off_c, 7, 64, 64
3, 32874, Note_on_c, 7, 66, 58
3, 33072, Note_off_c, 7, 66, 64
3, 33118, Note_on_c, 7, 67, 52
3, 33706, Note_off_c, 7, 67, 64
3, 33718, Note_on_c, 7, 71, 44
3, 33807, Note_off_c, 7, 71, 64
3, 33841, Note_on_c, 7, 76, 59
3, 34125, Note_on_c, 7, 74, 63
3, 34134, Note_off_c, 7, 76, 64
3, 34180, Note_off_c, 7, 74, 64
3, 34191, Note_on_c, 7, 73, 52
3, 34248, Note_on_c, 7, 71, 46
3, 34256, Note_off_c, 7, 73, 64
3, 34313, Note_off_c, 7, 71, 64
3, 34316, Note_on_c, 7, 69, 55
3, 34396, Note_off_c, 7, 69, 64
3, 34436, Note_on_c, 7, 71, 53
3, 34510, Note_off_c, 7, 71, 64
3, 34555, Note_on_c, 7, 69, 46
3, 34773, Note_off_c, 7, 69, 64
3, 34797, Note_on_c, 7, 69, 59
3, 34813, Note_on_c, 7, 67, 52
3, 34816, Note_off_c, 7, 69, 64
3, 34828, Note_on_c, 7, 69, 59
3, 34830, Note_off_c, 7, 67, 64
3, 34841, Note_on_c, 7, 67, 58
3, 34843, Note_off_c, 7, 69, 64
3, 34863, Note_on_c, 7, 66, 54
3, 34868, Note_off_c, 7, 67, 64
3, 34918, Note_off_c, 7, 66, 64
3, 34918, Note_on_c, 7, 67, 53
3, 35016, Note_off_c, 7, 67, 64
3, 35039, Note_on_c, 7, 66, 55
3, 35461, Note_off_c, 7, 66, 64
3, 35461, End_track
4, 0, Start_track
4, 0, Title_t, "Viola"
4, 0, Program_c, 8, 41
4, 0, Control_c, 8, 7, 100
4, 959, Note_on_c, 8, 69, 48
4, 1438, Note_off_c, 8, 69, 64
4, 1440, Note_on_c, 8, 71, 30
4, 1905, Note_off_c, 8, 71, 64
4, 1932, Note_on_c, 8, 59, 39
4, 2058, Note_off_c, 8, 59, 64
4, 2170, Note_on_c, 8, 64, 44
4, 2298, Note_off_c, 8, 64, 64
4, 2403, Note_on_c, 8, 64, 40
4, 2967, Note_off_c, 8, 64, 64
4, 2999, Note_on_c, 8, 63, 51
4, 3235, Note_on_c, 8, 64, 52
4, 3245, Note_off_c, 8, 63, 64
4, 3362, Note_off_c, 8, 64, 64
4, 3362, Note_on_c, 8, 66, 46
4, 3494, Note_off_c, 8, 66, 64
4, 3847, Note_on_c, 8, 64, 47
4, 3924, Note_off_c, 8, 64, 64
4, 3969, Note_on_c, 8, 59, 48
4, 4183, Note_off_c, 8, 59, 64
4, 4188, Note_on_c, 8, 64, 38
4, 4291, Note_off_c, 8, 64, 64
4, 4318, Note_on_c, 8, 64, 44
4, 4444, Note_off_c, 8, 64, 64
4, 4805, Note_on_c, 8, 62, 48
4, 5142, Note_off_c, 8, 62, 64
4, 5155, Note_on_c, 8, 64, 50
4, 5267, Note_off_c, 8, 64, 64
4, 5276, Note_on_c, 8, 66, 62
4, 5386, Note_off_c, 8, 66, 64
4, 5403, Note_on_c, 8, 62, 40
4, 5500, Note_off_c, 8, 62, 64
4, 5518, Note_on_c, 8, 59, 38
4, 5612, Note_off_c, 8, 59, 64
4, 5639, Note_on_c, 8, 64, 52
4, 5870, Note_off_c, 8, 64, 64
4, 5880, Note_on_c, 8, 66, 58
4, 5981, Note_off_c, 8, 66, 64
4, 6004, Note_on_c, 8, 59, 51
4, 6108, Note_off_c, 8, 59, 64
4, 6127, Note_on_c, 8, 64, 46
4, 6218, Note_off_c, 8, 64, 64
4, 6247, Note_on_c, 8, 61, 42
4, 6681, Note_off_c, 8, 61, 64
4, 6726, Note_on_c, 8, 69, 44
4, 7191, Note_off_c, 8, 69, 64
4, 7202, Note_on_c, 8, 71, 48
4, 7667, Note_off_c, 8, 71, 64
4, 7681, Note_on_c, 8, 59, 52
4, 7833, Note_off_c, 8, 59, 64
4, 7922, Note_on_c, 8, 64, 42
4, 8063, Note_off_c, 8, 64, 64
4, 8156, Note_on_c, 8, 64, 42
4, 8737, Note_off_c, 8, 64, 64
4, 8764, Note_on_c, 8, 63, 43
4, 8997, Note_off_c, 8, 63, 64
4, 8997, Note_on_c, 8, 64, 44
4, 9112, Note_off_c, 8, 64, 64
4, 9112, Note_on_c, 8, 66, 42
4, 9236, Note_off_c, 8, 66, 64
4, 9607, Note_on_c, 8, 64, 44
4, 9702, Note_off_c, 8, 64, 64
4, 9732, Note_on_c, 8, 59, 39
4, 9943, Note_off_c, 8, 59, 64
4, 9955, Note_on_c, 8, 64, 52
4, 10061, Note_off_c, 8, 64, 64
4, 10082, Note_on_c, 8, 64, 57
4, 10202, Note_off_c, 8, 64, 64
4, 10569, Note_on_c, 8, 62, 45
4, 10916, Note_off_c, 8, 62, 64
4, 10919, Note_on_c, 8, 64, 47
4, 11031, Note_off_c, 8, 64, 64
4, 11038, Note_on_c, 8, 66, 64
4, 11139, Note_off_c, 8, 66, 64
4, 11157, Note_on_c, 8, 62, 34
4, 11244, Note_off_c, 8, 62, 64
4, 11279, Note_on_c, 8, 59, 42
4, 11365, Note_off_c, 8, 59, 64
4, 11404, Note_on_c, 8, 64, 48
4, 11639, Note_off_c, 8, 64, 64
4, 11642, Note_on_c, 8, 66, 38
4, 11756, Note_off_c, 8, 66, 64
4, 11767, Note_on_c, 8, 59, 55
4, 11883, Note_off_c, 8, 59, 64
4, 11883, Note_on_c, 8, 64, 58
4, 11989, Note_off_c, 8, 64, 64
4, 12010, Note_on_c, 8, 61, 30
4, 12414, Note_off_c, 8, 61, 64
4, 24001, Note_on_c, 8, 64, 52
4, 24591, Note_off_c, 8, 64, 64
4, 24599, Note_on_c, 8, 63, 51
4, 24655, Note_off_c, 8, 63, 64
4, 24655, Note_on_c, 8, 64, 54
4, 24708, Note_off_c, 8, 64, 64
4, 24722, Note_on_c, 8, 66, 62
4, 25013, Note_on_c, 8, 67, 57
4, 25015, Note_off_c, 8, 66, 64
4, 25067, Note_off_c, 8, 67, 64
4, 25072, Note_on_c, 8, 69, 60
4, 25132, Note_off_c, 8, 69, 64
4, 25135, Note_on_c, 8, 66, 55
4, 25194, Note_off_c, 8, 66, 64
4, 25206, Note_on_c, 8, 63, 46
4, 25281, Note_off_c, 8, 63, 64
4, 25318, Note_on_c, 8, 71, 58
4, 25380, Note_off_c, 8, 71, 64
4, 25444, Note_on_c, 8, 71, 47
4, 25612, Note_off_c, 8, 71, 64
4, 25675, Note_on_c, 8, 59, 57
4, 25844, Note_off_c, 8, 59, 64
4, 25906, Note_on_c, 8, 61, 57
4, 25969, Note_on_c, 8, 62, 60
4, 25985, Note_off_c, 8, 61, 64
4, 26033, Note_on_c, 8, 64, 59
4, 26034, Note_off_c, 8, 62, 64
4, 26092, Note_on_c, 8, 66, 60
4, 26098, Note_off_c, 8, 64, 64
4, 26150, Note_off_c, 8, 66, 64
4, 26154, Note_on_c, 8, 67, 58
4, 26213, Note_on_c, 8, 66, 53
4, 26220, Note_off_c, 8, 67, 64
4, 26274, Note_off_c, 8, 66, 64
4, 26274, Note_on_c, 8, 67, 58
4, 26328, Note_on_c, 8, 64, 48
4, 26334, Note_off_c, 8, 67, 64
4, 26383, Note_off_c, 8, 64, 64
4, 26395, Note_on_c, 8, 66, 53
4, 26504, Note_off_c, 8, 66, 64
4, 26514, Note_on_c, 8, 64, 48
4, 26571, Note_on_c, 8, 62, 57
4, 26578, Note_off_c, 8, 64, 64
4, 26632, Note_off_c, 8, 62, 64
4, 26637, Note_on_c, 8, 61, 53
4, 26726, Note_off_c, 8, 61, 64
4, 26757, Note_on_c, 8, 66, 49
4, 26827, Note_off_c, 8, 66, 64
4, 26880, Note_on_c, 8, 66, 52
4, 26993, Note_off_c, 8, 66, 64
4, 26993, Note_on_c, 8, 64, 59
4, 27049, Note_on_c, 8, 62, 56
4, 27051, Note_off_c, 8, 64, 64
4, 27094, Note_off_c, 8, 62, 64
4, 27119, Note_on_c, 8, 67, 57
4, 27220, Note_off_c, 8, 67, 64
4, 27236, Note_on_c, 8, 66, 52
4, 27299, Note_on_c, 8, 64, 53
4, 27303, Note_off_c, 8, 66, 64
4, 27350, Note_off_c, 8, 64, 64
4, 27371, Note_on_c, 8, 62, 42
4, 27779, Note_off_c, 8, 62, 64
4, 27837, Note_on_c, 8, 59, 45
4, 27938, Note_off_c, 8, 59, 64
4, 27966, Note_on_c, 8, 71, 49
4, 28062, Note_off_c, 8, 71, 64
4, 28084, Note_on_c, 8, 69, 55
4, 28139, Note_on_c, 8, 68, 57
4, 28141, Note_off_c, 8, 69, 64
4, 28190, Note_off_c, 8, 68, 64
4, 28195, Note_on_c, 8, 69, 57
4, 28290, Note_off_c, 8, 69, 64
4, 28317, Note_on_c, 8, 68, 39
4, 28485, Note_off_c, 8, 68, 64
4, 28490, Note_on_c, 8, 66, 52
4, 28549, Note_off_c, 8, 66, 64
4, 28556, Note_on_c, 8, 64, 52
4, 28891, Note_off_c, 8, 64, 64
4, 28918, Note_on_c, 8, 64, 46
4, 29026, Note_off_c, 8, 64, 64
4, 29041, Note_on_c, 8, 66, 55
4, 29136, Note_off_c, 8, 66, 64
4, 29162, Note_on_c, 8, 64, 44
4, 29256, Note_off_c, 8, 64, 64
4, 29282, Note_on_c, 8, 64, 47
4, 29444, Note_off_c, 8, 64, 64
4, 29448, Note_on_c, 8, 62, 49
4, 29505, Note_off_c, 8, 62, 64
4, 29510, Note_on_c, 8, 61, 66
4, 29571, Note_on_c, 8, 62, 66
4, 29575, Note_off_c, 8, 61, 64
4, 29623, Note_off_c, 8, 62, 64
4, 29627, Note_on_c, 8, 64, 57
4, 29685, Note_off_c, 8, 64, 64
4, 29688, Note_on_c, 8, 61, 42
4, 29745, Note_off_c, 8, 61, 64
4, 29756, Note_on_c, 8, 57, 30
4, 29832, Note_off_c, 8, 57, 64
4, 29882, Note_on_c, 8, 62, 43
4, 30094, Note_off_c, 8, 62, 64
4, 30117, Note_on_c, 8, 59, 48
4, 30320, Note_off_c, 8, 59, 64
4, 30363, Note_on_c, 8, 64, 54
4, 30592, Note_off_c, 8, 64, 64
4, 30600, Note_on_c, 8, 61, 53
4, 30806, Note_off_c, 8, 61, 64
4, 30847, Note_on_c, 8, 66, 64
4, 31069, Note_off_c, 8, 66, 64
4, 31077, Note_on_c, 8, 63, 56
4, 31185, Note_off_c, 8, 63, 64
4, 31197, Note_on_c, 8, 59, 59
4, 31483, Note_off_c, 8, 59, 64
4, 31493, Note_on_c, 8, 71, 60
4, 31549, Note_off_c, 8, 71, 64
4, 31553, Note_on_c, 8, 67, 57
4, 31612, Note_on_c, 8, 64, 57
4, 31616, Note_off_c, 8, 67, 64
4, 31670, Note_off_c, 8, 64, 64
4, 31676, Note_on_c, 8, 69, 55
4, 31774, Note_off_c, 8, 69, 64
4, 31795, Note_on_c, 8, 67, 41
4, 31888, Note_off_c, 8, 67, 64
4, 31913, Note_on_c, 8, 66, 54
4, 32002, Note_off_c, 8, 66, 64
4, 32033, Note_on_c, 8, 64, 52
4, 32111, Note_off_c, 8, 64, 64
4, 32152, Note_on_c, 8, 62, 46
4, 32342, Note_off_c, 8, 62, 64
4, 32392, Note_on_c, 8, 69, 57
4, 32743, Note_off_c, 8, 69, 64
4, 32756, Note_on_c, 8, 67, 47
4, 32850, Note_off_c, 8, 67, 64
4, 32880, Note_on_c, 8, 69, 47
4, 33086, Note_off_c, 8, 69, 64
4, 33117, Note_on_c, 8, 62, 40
4, 33560, Note_off_c, 8, 62, 64
4, 33598, Note_on_c, 8, 64, 49
4, 33655, Note_on_c, 8, 59, 58
4, 33665, Note_off_c, 8, 64, 64
4, 33715, Note_on_c, 8, 64, 66
4, 33719, Note_off_c, 8, 59, 64
4, 33770, Note_off_c, 8, 64, 64
4, 33772, Note_on_c, 8, 67, 53
4, 33829, Note_off_c, 8, 67, 64
4, 33835, Note_on_c, 8, 71, 60
4, 33896, Note_on_c, 8, 69, 53
4, 33905, Note_off_c, 8, 71, 64
4, 33958, Note_on_c, 8, 67, 57
4, 33963, Note_off_c, 8, 69, 64
4, 34017, Note_on_c, 8, 66, 58
4, 34019, Note_off_c, 8, 67, 64
4, 34064, Note_off_c, 8, 66, 64
4, 34076, Note_on_c, 8, 64, 50
4, 34169, Note_off_c, 8, 64, 64
4, 34191, Note_on_c, 8, 69, 57
4, 34418, Note_off_c, 8, 69, 64
4, 34439, Note_on_c, 8, 67, 47
4, 34508, Note_off_c, 8, 67, 64
4, 34563, Note_on_c, 8, 66, 47
4, 34745, Note_off_c, 8, 66, 64
4, 34799, Note_on_c, 8, 64, 41
4, 34887, Note_off_c, 8, 64, 64
4, 34918, Note_on_c, 8, 57, 44
4, 34994, Note_off_c, 8, 57, 64
4, 35047, Note_on_c, 8, 57, 55
4, 35471, Note_off_c, 8, 57, 64
4, 35471, End_track
5, 0, Start_track
5, 0, Title_t, "Cello"
5, 0, Program_c, 10, 42
5, 0, Control_c, 10, 7, 100
5, 960, Note_on_c, 10, 50, 48
5, 1036, Note_off_c, 10, 50, 64
5, 1077, Note_on_c, 10, 62, 46
5, 1150, Note_off_c, 10, 62, 64
5, 1198, Note_on_c, 10, 61, 35
5, 1272, Note_off_c, 10, 61, 64
5, 1321, Note_on_c, 10, 49, 43
5, 1395, Note_off_c, 10, 49, 64
5, 1438, Note_on_c, 10, 47, 46
5, 1520, Note_off_c, 10, 47, 64
5, 1556, Note_on_c, 10, 59, 53
5, 1631, Note_off_c, 10, 59, 64
5, 1682, Note_on_c, 10, 57, 57
5, 1761, Note_off_c, 10, 57, 64
5, 1801, Note_on_c, 10, 45, 41
5, 1874, Note_off_c, 10, 45, 64
5, 1916, Note_on_c, 10, 43, 53
5, 2008, Note_off_c, 10, 43, 64
5, 2037, Note_on_c, 10, 55, 53
5, 2121, Note_off_c, 10, 55, 64
5, 2165, Note_on_c, 10, 56, 54
5, 2243, Note_off_c, 10, 56, 64
5, 2283, Note_on_c, 10, 44, 48
5, 2355, Note_off_c, 10, 44, 64
5, 2399, Note_on_c, 10, 45, 53
5, 2482, Note_off_c, 10, 45, 64
5, 2522, Note_on_c, 10, 57, 52
5, 2596, Note_off_c, 10, 57, 64
5, 2642, Note_on_c, 10, 55, 39
5, 2716, Note_off_c, 10, 55, 64
5, 2763, Note_on_c, 10, 43, 48
5, 2835, Note_off_c, 10, 43, 64
5, 2885, Note_on_c, 10, 42, 52
5, 2971, Note_off_c, 10, 42, 64
5, 3000, Note_on_c, 10, 54, 58
5, 3075, Note_off_c, 10, 54, 64
5, 3118, Note_on_c, 10, 52, 55
5, 3190, Note_off_c, 10, 52, 64
5, 3242, Note_on_c, 10, 40, 53
5, 3318, Note_off_c, 10, 40, 64
5, 3364, Note_on_c, 10, 39, 35
5, 3442, Note_off_c, 10, 39, 64
5, 3477, Note_on_c, 10, 51, 42
5, 3545, Note_off_c, 10, 51, 64
5, 3598, Note_on_c, 10, 47, 53
5, 3681, Note_off_c, 10, 47, 64
5, 3722, Note_on_c, 10, 59, 51
5, 3790, Note_off_c, 10, 59, 64
5, 3848, Note_on_c, 10, 40, 54
5, 3929, Note_off_c, 10, 40, 64
5, 3960, Note_on_c, 10, 52, 53
5, 4026, Note_off_c, 10, 52, 64
5, 4076, Note_on_c, 10, 50, 47
5, 4143, Note_off_c, 10, 50, 64
5, 4203, Note_on_c, 10, 38, 45
5, 4276, Note_off_c, 10, 38, 64
5, 4316, Note_on_c, 10, 37, 47
5, 4396, Note_off_c, 10, 37, 64
5, 4430, Note_on_c, 10, 49, 47
5, 4504, Note_off_c, 10, 49, 64
5, 4559, Note_on_c, 10, 45, 55
5, 4635, Note_off_c, 10, 45, 64
5, 4678, Note_on_c, 10, 57, 42
5, 4748, Note_off_c, 10, 57, 64
5, 4805, Note_on_c, 10, 50, 52
5, 4878, Note_off_c, 10, 50, 64
5, 4917, Note_on_c, 10, 62, 57
5, 4989, Note_off_c, 10, 62, 64
5, 5034, Note_on_c, 10, 61, 47
5, 5105, Note_off_c, 10, 61, 64
5, 5158, Note_on_c, 10, 49, 51
5, 5224, Note_off_c, 10, 49, 64
5, 5280, Note_on_c, 10, 47, 53
5, 5366, Note_off_c, 10, 47, 64
5, 5400, Note_on_c, 10, 59, 49
5, 5478, Note_off_c, 10, 59, 64
5, 5516, Note_on_c, 10, 56, 47
5, 5594, Note_off_c, 10, 56, 64
5, 5631, Note_on_c, 10, 52, 46
5, 5705, Note_off_c, 10, 52, 64
5, 5759, Note_on_c, 10, 57, 42
5, 5836, Note_off_c, 10, 57, 64
5, 5880, Note_on_c, 10, 50, 42
5, 5965, Note_off_c, 10, 50, 64
5, 5997, Note_on_c, 10, 52, 32
5, 6085, Note_off_c, 10, 52, 64
5, 6117, Note_on_c, 10, 40, 43
5, 6200, Note_off_c, 10, 40, 64
5, 6237, Note_on_c, 10, 45, 48
5, 6298, Note_on_c, 10, 47, 53
5, 6309, Note_off_c, 10, 45, 64
5, 6356, Note_on_c, 10, 49, 51
5, 6363, Note_off_c, 10, 47, 64
5, 6411, Note_on_c, 10, 50, 52
5, 6418, Note_off_c, 10, 49, 64
5, 6471, Note_on_c, 10, 52, 56
5, 6480, Note_off_c, 10, 50, 64
5, 6529, Note_on_c, 10, 55, 60
5, 6537, Note_off_c, 10, 52, 64
5, 6597, Note_on_c, 10, 54, 51
5, 6600, Note_off_c, 10, 55, 64
5, 6663, Note_on_c, 10, 52, 49
5, 6671, Note_off_c, 10, 54, 64
5, 6720, Note_on_c, 10, 50, 46
5, 6722, Note_off_c, 10, 52, 64
5, 6813, Note_off_c, 10, 50, 64
5, 6843, Note_on_c, 10, 62, 33
5, 6926, Note_off_c, 10, 62, 64
5, 6959, Note_on_c, 10, 61, 33
5, 7038, Note_off_c, 10, 61, 64
5, 7074, Note_on_c, 10, 49, 44
5, 7148, Note_off_c, 10, 49, 64
5, 7200, Note_on_c, 10, 47, 55
5, 7278, Note_off_c, 10, 47, 64
5, 7316, Note_on_c, 10, 59, 46
5, 7388, Note_off_c, 10, 59, 64
5, 7436, Note_on_c, 10, 57, 46
5, 7508, Note_off_c, 10, 57, 64
5, 7555, Note_on_c, 10, 45, 41
5, 7632, Note_off_c, 10, 45, 64
5, 7684, Note_on_c, 10, 43, 55
5, 7760, Note_off_c, 10, 43, 64
5, 7798, Note_on_c, 10, 55, 41
5, 7876, Note_off_c, 10, 55, 64
5, 7917, Note_on_c, 10, 56, 46
5, 7998, Note_off_c, 10, 56, 64
5, 8040, Note_on_c, 10, 44, 43
5, 8115, Note_off_c, 10, 44, 64
5, 8159, Note_on_c, 10, 45, 55
5, 8242, Note_off_c, 10, 45, 64
5, 8278, Note_on_c, 10, 57, 53
5, 8347, Note_off_c, 10, 57, 64
5, 8395, Note_on_c, 10, 55, 47
5, 8483, Note_off_c, 10, 55, 64
5, 8526, Note_on_c, 10, 43, 45
5, 8598, Note_off_c, 10, 43, 64
5, 8639, Note_on_c, 10, 42, 45
5, 8720, Note_off_c, 10, 42, 64
5, 8754, Note_on_c, 10, 54, 53
5, 8827, Note_off_c, 10, 54, 64
5, 8875, Note_on_c, 10, 52, 37
5, 8948, Note_off_c, 10, 52, 64
5, 8993, Note_on_c, 10, 40, 52
5, 9073, Note_off_c, 10, 40, 64
5, 9118, Note_on_c, 10, 39, 40
5, 9194, Note_off_c, 10, 39, 64
5, 9240, Note_on_c, 10, 51, 36
5, 9310, Note_off_c, 10, 51, 64
5, 9356, Note_on_c, 10, 47, 52
5, 9432, Note_off_c, 10, 47, 64
5, 9479, Note_on_c, 10, 59, 51
5, 9548, Note_off_c, 10, 59, 64
5, 9606, Note_on_c, 10, 40, 51
5, 9693, Note_off_c, 10, 40, 64
5, 9720, Note_on_c, 10, 52, 52
5, 9796, Note_off_c, 10, 52, 64
5, 9840, Note_on_c, 10, 50, 37
5, 9916, Note_off_c, 10, 50, 64
5, 9959, Note_on_c, 10, 38, 45
5, 10032, Note_off_c, 10, 38, 64
5, 10070, Note_on_c, 10, 37, 46
5, 10149, Note_off_c, 10, 37, 64
5, 10193, Note_on_c, 10, 49, 52
5, 10265, Note_off_c, 10, 49, 64
5, 10314, Note_on_c, 10, 45, 56
5, 10392, Note_off_c, 10, 45, 64
5, 10441, Note_on_c, 10, 57, 43
5, 10506, Note_off_c, 10, 57, 64
5, 10561, Note_on_c, 10, 50, 57
5, 10632, Note_off_c, 10, 50, 64
5, 10675, Note_on_c, 10, 62, 57
5, 10740, Note_off_c, 10, 62, 64
5, 10795, Note_on_c, 10, 61, 52
5, 10864, Note_off_c, 10, 61, 64
5, 10919, Note_on_c, 10, 49, 52
5, 10984, Note_off_c, 10, 49, 64
5, 11040, Note_on_c, 10, 47, 57
5, 11113, Note_off_c, 10, 47, 64
5, 11157, Note_on_c, 10, 59, 49
5, 11227, Note_off_c, 10, 59, 64
5, 11276, Note_on_c, 10, 56, 52
5, 11355, Note_off_c, 10, 56, 64
5, 11398, Note_on_c, 10, 52, 39
5, 11476, Note_off_c, 10, 52, 64
5, 11521, Note_on_c, 10, 57, 44
5, 11610, Note_off_c, 10, 57, 64
5, 11636, Note_on_c, 10, 50, 48
5, 11724, Note_off_c, 10, 50, 64
5, 11764, Note_on_c, 10, 52, 42
5, 11850, Note_off_c, 10, 52, 64
5, 11883, Note_on_c, 10, 40, 58
5, 11965, Note_off_c, 10, 40, 64
5, 12003, Note_on_c, 10, 45, 40
5, 12412, Note_off_c, 10, 45, 64
5, 23996, Note_on_c, 10, 45, 52
5, 24086, Note_off_c, 10, 45, 64
5, 24120, Note_on_c, 10, 57, 45
5, 24185, Note_off_c, 10, 57, 64
5, 24235, Note_on_c, 10, 55, 53
5, 24304, Note_off_c, 10, 55, 64
5, 24348, Note_on_c, 10, 43, 48
5, 24421, Note_off_c, 10, 43, 64
5, 24469, Note_on_c, 10, 42, 48
5, 24552, Note_off_c, 10, 42, 64
5, 24596, Note_on_c, 10, 54, 59
5, 24671, Note_off_c, 10, 54, 64
5, 24715, Note_on_c, 10, 52, 51
5, 24786, Note_off_c, 10, 52, 64
5, 24835, Note_on_c, 10, 40, 50
5, 24914, Note_off_c, 10, 40, 64
5, 24953, Note_on_c, 10, 39, 44
5, 25032, Note_off_c, 10, 39, 64
5, 25082, Note_on_c, 10, 51, 46
5, 25166, Note_off_c, 10, 51, 64
5, 25202, Note_on_c, 10, 54, 48
5, 25275, Note_off_c, 10, 54, 64
5, 25313, Note_on_c, 10, 47, 57
5, 25386, Note_off_c, 10, 47, 64
5, 25436, Note_on_c, 10, 52, 52
5, 25515, Note_off_c, 10, 52, 64
5, 25554, Note_on_c, 10, 64, 49
5, 25624, Note_off_c, 10, 64, 64
5, 25674, Note_on_c, 10, 62, 49
5, 25749, Note_off_c, 10, 62, 64
5, 25785, Note_on_c, 10, 50, 42
5, 25866, Note_off_c, 10, 50, 64
5, 25907, Note_on_c, 10, 49, 38
5, 25994, Note_off_c, 10, 49, 64
5, 26034, Note_on_c, 10, 61, 54
5, 26114, Note_off_c, 10, 61, 64
5, 26154, Note_on_c, 10, 59, 50
5, 26233, Note_off_c, 10, 59, 64
5, 26268, Note_on_c, 10, 47, 52
5, 26357, Note_off_c, 10, 47, 64
5, 26398, Note_on_c, 10, 46, 32
5, 26479, Note_off_c, 10, 46, 64
5, 26512, Note_on_c, 10, 47, 59
5, 26604, Note_off_c, 10, 47, 64
5, 26637, Note_on_c, 10, 49, 52
5, 26717, Note_off_c, 10, 49, 64
5, 26753, Note_on_c, 10, 46, 39
5, 26828, Note_off_c, 10, 46, 64
5, 26877, Note_on_c, 10, 47, 53
5, 26963, Note_off_c, 10, 47, 64
5, 27001, Note_on_c, 10, 55, 50
5, 27070, Note_off_c, 10, 55, 64
5, 27118, Note_on_c, 10, 52, 41
5, 27207, Note_off_c, 10, 52, 64
5, 27238, Note_on_c, 10, 54, 29
5, 27305, Note_off_c, 10, 54, 64
5, 27362, Note_on_c, 10, 47, 58
5, 27438, Note_off_c, 10, 47, 64
5, 27474, Note_on_c, 10, 59, 56
5, 27543, Note_off_c, 10, 59, 64
5, 27597, Note_on_c, 10, 57, 57
5, 27668, Note_off_c, 10, 57, 64
5, 27724, Note_on_c, 10, 45, 48
5, 27793, Note_off_c, 10, 45, 64
5, 27841, Note_on_c, 10, 44, 52
5, 27930, Note_off_c, 10, 44, 64
5, 27962, Note_on_c, 10, 56, 62
5, 28036, Note_off_c, 10, 56, 64
5, 28079, Note_on_c, 10, 54, 46
5, 28152, Note_off_c, 10, 54, 64
5, 28191, Note_on_c, 10, 42, 46
5, 28271, Note_off_c, 10, 42, 64
5, 28311, Note_on_c, 10, 40, 59
5, 28391, Note_off_c, 10, 40, 64
5, 28438, Note_on_c, 10, 52, 52
5, 28513, Note_off_c, 10, 52, 64
5, 28558, Note_on_c, 10, 50, 59
5, 28633, Note_off_c, 10, 50, 64
5, 28684, Note_on_c, 10, 38, 49
5, 28767, Note_off_c, 10, 38, 64
5, 28800, Note_on_c, 10, 37, 56
5, 28888, Note_off_c, 10, 37, 64
5, 28917, Note_on_c, 10, 49, 53
5, 29015, Note_off_c, 10, 49, 64
5, 29048, Note_on_c, 10, 50, 52
5, 29134, Note_off_c, 10, 50, 64
5, 29154, Note_on_c, 10, 52, 52
5, 29237, Note_off_c, 10, 52, 64
5, 29268, Note_on_c, 10, 45, 52
5, 29348, Note_off_c, 10, 45, 64
5, 29397, Note_on_c, 10, 57, 53
5, 29466, Note_off_c, 10, 57, 64
5, 29511, Note_on_c, 10, 55, 55
5, 29587, Note_off_c, 10, 55, 64
5, 29641, Note_on_c, 10, 43, 45
5, 29708, Note_off_c, 10, 43, 64
5, 29757, Note_on_c, 10, 42, 40
5, 29838, Note_off_c, 10, 42, 64
5, 29874, Note_on_c, 10, 54, 52
5, 29946, Note_off_c, 10, 54, 64
5, 29997, Note_on_c, 10, 55, 52
5, 30066, Note_off_c, 10, 55, 64
5, 30118, Note_on_c, 10, 43, 52
5, 30192, Note_off_c, 10, 43, 64
5, 30237, Note_on_c, 10, 44, 53
5, 30307, Note_off_c, 10, 44, 64
5, 30357, Note_on_c, 10, 56, 50
5, 30427, Note_off_c, 10, 56, 64
5, 30479, Note_on_c, 10, 57, 46
5, 30550, Note_off_c, 10, 57, 64
5, 30602, Note_on_c, 10, 45, 50
5, 30673, Note_off_c, 10, 45, 64
5, 30728, Note_on_c, 10, 46, 47
5, 30801, Note_off_c, 10, 46, 64
5, 30840, Note_on_c, 10, 58, 49
5, 30906, Note_off_c, 10, 58, 64
5, 30954, Note_on_c, 10, 59, 60
5, 31022, Note_off_c, 10, 59, 64
5, 31074, Note_on_c, 10, 47, 52
5, 31148, Note_off_c, 10, 47, 64
5, 31197, Note_on_c, 10, 52, 37
5, 31284, Note_off_c, 10, 52, 64
5, 31318, Note_on_c, 10, 64, 47
5, 31383, Note_off_c, 10, 64, 64
5, 31432, Note_on_c, 10, 62, 52
5, 31509, Note_off_c, 10, 62, 64
5, 31556, Note_on_c, 10, 50, 42
5, 31630, Note_off_c, 10, 50, 64
5, 31674, Note_on_c, 10, 49, 42
5, 31757, Note_off_c, 10, 49, 64
5, 31795, Note_on_c, 10, 61, 44
5, 31873, Note_off_c, 10, 61, 64
5, 31906, Note_on_c, 10, 57, 39
5, 31983, Note_off_c, 10, 57, 64
5, 32033, Note_on_c, 10, 61, 36
5, 32101, Note_off_c, 10, 61, 64
5, 32148, Note_on_c, 10, 62, 51
5, 32223, Note_off_c, 10, 62, 64
5, 32276, Note_on_c, 10, 50, 57
5, 32345, Note_off_c, 10, 50, 64
5, 32399, Note_on_c, 10, 48, 53
5, 32472, Note_off_c, 10, 48, 64
5, 32516, Note_on_c, 10, 60, 47
5, 32581, Note_off_c, 10, 60, 64
5, 32631, Note_on_c, 10, 59, 57
5, 32716, Note_off_c, 10, 59, 64
5, 32763, Note_on_c, 10, 47, 47
5, 32830, Note_off_c, 10, 47, 64
5, 32880, Note_on_c, 10, 45, 42
5, 32948, Note_off_c, 10, 45, 64
5, 32993, Note_on_c, 10, 57, 44
5, 33063, Note_off_c, 10, 57, 64
5, 33112, Note_on_c, 10, 55, 44
5, 33195, Note_off_c, 10, 55, 64
5, 33242, Note_on_c, 10, 43, 42
5, 33309, Note_off_c, 10, 43, 64
5, 33354, Note_on_c, 10, 42, 52
5, 33433, Note_off_c, 10, 42, 64
5, 33475, Note_on_c, 10, 54, 51
5, 33546, Note_off_c, 10, 54, 64
5, 33594, Note_on_c, 10, 52, 56
5, 33676, Note_off_c, 10, 52, 64
5, 33719, Note_on_c, 10, 40, 51
5, 33781, Note_off_c, 10, 40, 64
5, 33839, Note_on_c, 10, 38, 48
5, 33914, Note_off_c, 10, 38, 64
5, 33956, Note_on_c, 10, 50, 58
5, 34048, Note_off_c, 10, 50, 64
5, 34068, Note_on_c, 10, 49, 41
5, 34149, Note_off_c, 10, 49, 64
5, 34191, Note_on_c, 10, 45, 48
5, 34273, Note_off_c, 10, 45, 64
5, 34314, Note_on_c, 10, 50, 51
5, 34403, Note_off_c, 10, 50, 64
5, 34432, Note_on_c, 10, 55, 47
5, 34515, Note_off_c, 10, 55, 64
5, 34552, Note_on_c, 10, 57, 53
5, 34649, Note_off_c, 10, 57, 64
5, 34675, Note_on_c, 10, 55, 48
5, 34760, Note_off_c, 10, 55, 64
5, 34796, Note_on_c, 10, 57, 42
5, 34891, Note_off_c, 10, 57, 64
5, 34927, Note_on_c, 10, 45, 41
5, 35001, Note_off_c, 10, 45, 64
5, 35046, Note_on_c, 10, 38, 47
5, 35445, Note_off_c, 10, 38, 64
5, 35445, End_track
6, 0, Start_track
6, 0, Title_t, "Violin"
6, 0, Program_c, 6, 40
6, 0, Control_c, 6, 7, 100
6, 12486, Note_on_c, 6, 73, 52
6, 12759, Note_off_c, 6, 73, 64
6, 12766, Note_on_c, 6, 74, 60
6, 12797, Note_on_c, 6, 73, 57
6, 12806, Note_off_c, 6, 74, 64
6, 12827, Note_on_c, 6, 71, 51
6, 12832, Note_off_c, 6, 73, 64
6, 12856, Note_on_c, 6, 73, 53
6, 12858, Note_off_c, 6, 71, 64
6, 12887, Note_off_c, 6, 73, 64
6, 12893, Note_on_c, 6, 69, 62
6, 12950, Note_off_c, 6, 69, 64
6, 12955, Note_on_c, 6, 81, 57
6, 13286, Note_off_c, 6, 81, 64
6, 13312, Note_on_c, 6, 72, 57
6, 13429, Note_on_c, 6, 71, 47
6, 13430, Note_off_c, 6, 72, 64
6, 13522, Note_off_c, 6, 71, 64
6, 13557, Note_on_c, 6, 83, 66
6, 13732, Note_on_c, 6, 81, 60
6, 13738, Note_off_c, 6, 83, 64
6, 13794, Note_off_c, 6, 81, 64
6, 13798, Note_on_c, 6, 79, 52
6, 13856, Note_on_c, 6, 78, 51
6, 13858, Note_off_c, 6, 79, 64
6, 13912, Note_off_c, 6, 78, 64
6, 13920, Note_on_c, 6, 79, 60
6, 14176, Note_on_c, 6, 78, 60
6, 14181, Note_off_c, 6, 79, 64
6, 14207, Note_on_c, 6, 76, 64
6, 14210, Note_off_c, 6, 78, 64
6, 14236, Note_on_c, 6, 74, 53
6, 14237, Note_off_c, 6, 76, 64
6, 14263, Note_off_c, 6, 74, 64
6, 14269, Note_on_c, 6, 73, 37
6, 14325, Note_on_c, 6, 71, 53
6, 14330, Note_off_c, 6, 73, 64
6, 14379, Note_off_c, 6, 71, 64
6, 14387, Note_on_c, 6, 70, 59
6, 14446, Note_on_c, 6, 71, 59
6, 14456, Note_off_c, 6, 70, 64
6, 14499, Note_off_c, 6, 71, 64
6, 14514, Note_on_c, 6, 73, 41
6, 14681, Note_off_c, 6, 73, 64
6, 14684, Note_on_c, 6, 74, 53
6, 14734, Note_off_c, 6, 74, 64
6, 14752, Note_on_c, 6, 76, 60
6, 14931, Note_off_c, 6, 76, 64
6, 14931, Note_on_c, 6, 78, 56
6, 14986, Note_off_c, 6, 78, 64
6, 14996, Note_on_c, 6, 79, 72
6, 15231, Note_off_c, 6, 79, 64
6, 15236, Note_on_c, 6, 78, 49
6, 15339, Note_off_c, 6, 78, 64
6, 15355, Note_on_c, 6, 76, 55
6, 15417, Note_on_c, 6, 74, 58
6, 15424, Note_off_c, 6, 76, 64
6, 15460, Note_off_c, 6, 74, 64
6, 15474, Note_on_c, 6, 73, 52
6, 15534, Note_on_c, 6, 71, 57
6, 15539, Note_off_c, 6, 73, 64
6, 15584, Note_off_c, 6, 71, 64
6, 15599, Note_on_c, 6, 73, 57
6, 15657, Note_on_c, 6, 74, 59
6, 15665, Note_off_c, 6, 73, 64
6, 15682, Note_on_c, 6, 76, 66
6, 15684, Note_off_c, 6, 74, 64
6, 15708, Note_off_c, 6, 76, 64
6, 15720, Note_on_c, 6, 74, 52
6, 15796, Note_on_c, 6, 73, 48
6, 15803, Note_off_c, 6, 74, 64
6, 15821, Note_off_c, 6, 73, 64
6, 15835, Note_on_c, 6, 73, 52
6, 15957, Note_on_c, 6, 71, 47
6, 15965, Note_off_c, 6, 73, 64
6, 16277, Note_off_c, 6, 71, 64
6, 16325, Note_on_c, 6, 74, 58
6, 16605, Note_off_c, 6, 74, 64
6, 16605, Note_on_c, 6, 78, 58
6, 16670, Note_on_c, 6, 76, 66
6, 16674, Note_off_c, 6, 78, 64
6, 16730, Note_off_c, 6, 76, 64
6, 16730, Note_on_c, 6, 74, 70
6, 16792, Note_off_c, 6, 74, 64
6, 16796, Note_on_c, 6, 83, 70
6, 17148, Note_off_c, 6, 83, 64
6, 17156, Note_on_c, 6, 81, 62
6, 17218, Note_on_c, 6, 80, 57
6, 17219, Note_off_c, 6, 81, 64
6, 17274, Note_off_c, 6, 80, 64
6, 17281, Note_on_c, 6, 78, 64
6, 17305, Note_on_c, 6, 76, 66
6, 17313, Note_off_c, 6, 78, 64
6, 17335, Note_off_c, 6, 76, 64
6, 17341, Note_on_c, 6, 81, 61
6, 17397, Note_off_c, 6, 81, 64
6, 17403, Note_on_c, 6, 69, 51
6, 17514, Note_off_c, 6, 69, 64
6, 17514, Note_on_c, 6, 71, 61
6, 17683, Note_on_c, 6, 73, 42
6, 17692, Note_off_c, 6, 71, 64
6, 17714, Note_on_c, 6, 74, 66
6, 17727, Note_off_c, 6, 73, 64
6, 17745, Note_off_c, 6, 74, 64
6, 17754, Note_on_c, 6, 74, 68
6, 17790, Note_on_c, 6, 73, 51
6, 17798, Note_off_c, 6, 74, 64
6, 17817, Note_on_c, 6, 74, 58
6, 17821, Note_off_c, 6, 73, 64
6, 17834, Note_on_c, 6, 73, 52
6, 17837, Note_off_c, 6, 74, 64
6, 17845, Note_on_c, 6, 74, 68
6, 17848, Note_off_c, 6, 73, 64
6, 17860, Note_on_c, 6, 73, 54
6, 17877, Note_off_c, 6, 74, 64
6, 17921, Note_on_c, 6, 71, 56
6, 17927, Note_off_c, 6, 73, 64
6, 17988, Note_on_c, 6, 69, 55
6, 17992, Note_off_c, 6, 71, 64
6, 18204, Note_off_c, 6, 69, 64
6, 18230, Note_on_c, 6, 74, 49
6, 18594, Note_off_c, 6, 74, 64
6, 18598, Note_on_c, 6, 78, 63
6, 18652, Note_on_c, 6, 76, 60
6, 18661, Note_off_c, 6, 78, 64
6, 18701, Note_off_c, 6, 76, 64
6, 18721, Note_on_c, 6, 76, 45
6, 19068, Note_off_c, 6, 76, 64
6, 19078, Note_on_c, 6, 79, 66
6, 19139, Note_on_c, 6, 78, 49
6, 19145, Note_off_c, 6, 79, 64
6, 19191, Note_off_c, 6, 78, 64
6, 19203, Note_on_c, 6, 78, 58
6, 19541, Note_off_c, 6, 78, 64
6, 19555, Note_on_c, 6, 81, 80
6, 19617, Note_on_c, 6, 79, 52
6, 19625, Note_off_c, 6, 81, 64
6, 19672, Note_off_c, 6, 79, 64
6, 19687, Note_on_c, 6, 79, 60
6, 20136, Note_off_c, 6, 79, 64
6, 20158, Note_on_c, 6, 69, 56
6, 20441, Note_on_c, 6, 73, 51
6, 20448, Note_off_c, 6, 69, 64
6, 20502, Note_off_c, 6, 73, 64
6, 20503, Note_on_c, 6, 76, 66
6, 20567, Note_on_c, 6, 79, 74
6, 20568, Note_off_c, 6, 76, 64
6, 20624, Note_off_c, 6, 79, 64
6, 20635, Note_on_c, 6, 79, 78
6, 20697, Note_on_c, 6, 76, 52
6, 20705, Note_off_c, 6, 79, 64
6, 20759, Note_off_c, 6, 76, 64
6, 20763, Note_on_c, 6, 78, 41
6, 21057, Note_off_c, 6, 78, 64
6, 21057, Note_on_c, 6, 79, 68
6, 21081, Note_on_c, 6, 81, 76
6, 21090, Note_off_c, 6, 79, 64
6, 21120, Note_off_c, 6, 81, 64
6, 21127, Note_on_c, 6, 74, 53
6, 21410, Note_on_c, 6, 78, 60
6, 21414, Note_off_c, 6, 74, 64
6, 21472, Note_off_c, 6, 78, 64
6, 21472, Note_on_c, 6, 81, 76
6, 21537, Note_off_c, 6, 81, 64
6, 21537, Note_on_c, 6, 84, 63
6, 21598, Note_off_c, 6, 84, 64
6, 21602, Note_on_c, 6, 83, 68
6, 21933, Note_off_c, 6, 83, 64
6, 21950, Note_on_c, 6, 74, 53
6, 22063, Note_off_c, 6, 74, 64
6, 22074, Note_on_c, 6, 73, 52
6, 22132, Note_on_c, 6, 76, 60
6, 22138, Note_off_c, 6, 73, 64
6, 22188, Note_off_c, 6, 76, 64
6, 22201, Note_on_c, 6, 79, 64
6, 22410, Note_off_c, 6, 79, 64
6, 22427, Note_on_c, 6, 71, 42
6, 22537, Note_off_c, 6, 71, 64
6, 22550, Note_on_c, 6, 69, 51
6, 22658, Note_off_c, 6, 69, 64
6, 22671, Note_on_c, 6, 76, 61
6, 22736, Note_on_c, 6, 78, 57
6, 22741, Note_off_c, 6, 76, 64
6, 22762, Note_on_c, 6, 79, 76
6, 22772, Note_off_c, 6, 78, 64
6, 22856, Note_on_c, 6, 78, 51
6, 22861, Note_off_c, 6, 79, 64
6, 22927, Note_off_c, 6, 78, 64
6, 22971, Note_on_c, 6, 76, 53
6, 23019, Note_off_c, 6, 76, 64
6, 23039, Note_on_c, 6, 74, 55
6, 23074, Note_on_c, 6, 73, 51
6, 23082, Note_off_c, 6, 74, 64
6, 23106, Note_on_c, 6, 71, 46
6, 23118, Note_off_c, 6, 73, 64
6, 23213, Note_off_c, 6, 71, 64
6, 23216, Note_on_c, 6, 73, 51
6, 23272, Note_off_c, 6, 73, 64
6, 23274, Note_on_c, 6, 74, 52
6, 23374, Note_off_c, 6, 74, 64
6, 23383, Note_on_c, 6, 74, 60
6, 23409, Note_on_c, 6, 73, 48
6, 23412, Note_off_c, 6, 74, 64
6, 23422, Note_on_c, 6, 74, 60
6, 23424, Note_off_c, 6, 73, 64
6, 23438, Note_on_c, 6, 73, 46
6, 23445, Note_off_c, 6, 74, 64
6, 23483, Note_on_c, 6, 74, 59
6, 23490, Note_off_c, 6, 73, 64
6, 23519, Note_off_c, 6, 74, 64
6, 23528, Note_on_c, 6, 74, 64
6, 23928, Note_off_c, 6, 74, 64
6, 23928, End_track
7, 0, Start_track
7, 0, Title_t, "Violin"
7, 0, Program_c, 7, 40
7, 0, Control_c, 7, 7, 100
7, 12487, Note_on_c, 7, 69, 43
7, 13017, Note_on_c, 7, 71, 59
7, 13024, Note_off_c, 7, 69, 64
7, 13082, Note_off_c, 7, 71, 64
7, 13082, Note_on_c, 7, 72, 46
7, 13246, Note_off_c, 7, 72, 64
7, 13247, Note_on_c, 7, 71, 57
7, 13301, Note_off_c, 7, 71, 64
7, 13307, Note_on_c, 7, 69, 52
7, 13366, Note_off_c, 7, 69, 64
7, 13367, Note_on_c, 7, 67, 66
7, 13435, Note_on_c, 7, 66, 48
7, 13440, Note_off_c, 7, 67, 64
7, 13688, Note_off_c, 7, 66, 64
7, 13795, Note_on_c, 7, 75, 55
7, 13865, Note_off_c, 7, 75, 64
7, 13920, Note_on_c, 7, 76, 50
7, 14930, Note_on_c, 7, 74, 64
7, 14943, Note_off_c, 7, 76, 64
7, 14990, Note_on_c, 7, 73, 51
7, 14991, Note_off_c, 7, 74, 64
7, 15053, Note_on_c, 7, 71, 62
7, 15058, Note_off_c, 7, 73, 64
7, 15113, Note_on_c, 7, 70, 62
7, 15116, Note_off_c, 7, 71, 64
7, 15175, Note_on_c, 7, 71, 63
7, 15180, Note_off_c, 7, 70, 64
7, 15243, Note_off_c, 7, 71, 64
7, 15243, Note_on_c, 7, 73, 52
7, 15360, Note_on_c, 7, 71, 50
7, 15362, Note_off_c, 7, 73, 64
7, 15430, Note_off_c, 7, 71, 64
7, 15478, Note_on_c, 7, 71, 50
7, 15556, Note_off_c, 7, 71, 64
7, 15599, Note_on_c, 7, 71, 56
7, 15672, Note_off_c, 7, 71, 64
7, 15720, Note_on_c, 7, 70, 56
7, 15796, Note_off_c, 7, 70, 64
7, 15843, Note_on_c, 7, 66, 43
7, 16268, Note_off_c, 7, 66, 64
7, 16319, Note_on_c, 7, 64, 52
7, 16517, Note_off_c, 7, 64, 64
7, 16557, Note_on_c, 7, 66, 43
7, 16735, Note_off_c, 7, 66, 64
7, 16789, Note_on_c, 7, 59, 57
7, 16911, Note_off_c, 7, 59, 64
7, 16913, Note_on_c, 7, 64, 58
7, 16975, Note_on_c, 7, 66, 60
7, 16979, Note_off_c, 7, 64, 64
7, 17030, Note_on_c, 7, 68, 53
7, 17033, Note_off_c, 7, 66, 64
7, 17093, Note_on_c, 7, 69, 64
7, 17097, Note_off_c, 7, 68, 64
7, 17160, Note_on_c, 7, 71, 66
7, 17161, Note_off_c, 7, 69, 64
7, 17382, Note_off_c, 7, 71, 64
7, 17407, Note_on_c, 7, 69, 45
7, 17634, Note_off_c, 7, 69, 64
7, 17637, Note_on_c, 7, 68, 45
7, 17748, Note_off_c, 7, 68, 64
7, 17754, Note_on_c, 7, 69, 47
7, 18262, Note_off_c, 7, 69, 64
7, 18348, Note_on_c, 7, 71, 55
7, 18411, Note_on_c, 7, 72, 54
7, 18417, Note_off_c, 7, 71, 64
7, 18476, Note_on_c, 7, 71, 57
7, 18477, Note_off_c, 7, 72, 64
7, 18536, Note_on_c, 7, 73, 50
7, 18542, Note_off_c, 7, 71, 64
7, 18598, Note_off_c, 7, 73, 64
7, 18600, Note_on_c, 7, 74, 56
7, 18791, Note_off_c, 7, 74, 64
7, 18836, Note_on_c, 7, 73, 54
7, 18895, Note_on_c, 7, 71, 59
7, 18903, Note_off_c, 7, 73, 64
7, 18956, Note_off_c, 7, 71, 64
7, 18961, Note_on_c, 7, 73, 45
7, 19016, Note_on_c, 7, 75, 61
7, 19024, Note_off_c, 7, 73, 64
7, 19075, Note_off_c, 7, 75, 64
7, 19083, Note_on_c, 7, 76, 54
7, 19292, Note_off_c, 7, 76, 64
7, 19323, Note_on_c, 7, 75, 33
7, 19380, Note_on_c, 7, 73, 57
7, 19385, Note_off_c, 7, 75, 64
7, 19438, Note_off_c, 7, 73, 64
7, 19439, Note_on_c, 7, 75, 59
7, 19494, Note_on_c, 7, 76, 70
7, 19497, Note_off_c, 7, 75, 64
7, 19560, Note_off_c, 7, 76, 64
7, 19561, Note_on_c, 7, 78, 57
7, 19738, Note_off_c, 7, 78, 64
7, 19742, Note_on_c, 7, 75, 53
7, 19806, Note_on_c, 7, 76, 60
7, 19810, Note_off_c, 7, 75, 64
7, 19861, Note_on_c, 7, 71, 55
7, 19866, Note_off_c, 7, 76, 64
7, 19922, Note_off_c, 7, 71, 64
7, 19926, Note_on_c, 7, 64, 47
7, 20183, Note_off_c, 7, 64, 64
7, 20214, Note_on_c, 7, 61, 47
7, 20278, Note_on_c, 7, 64, 61
7, 20280, Note_off_c, 7, 61, 64
7, 20333, Note_off_c, 7, 64, 64
7, 20339, Note_on_c, 7, 69, 57
7, 20389, Note_off_c, 7, 69, 64
7, 20402, Note_on_c, 7, 73, 43
7, 20492, Note_off_c, 7, 73, 64
7, 20516, Note_on_c, 7, 69, 52
7, 20722, Note_off_c, 7, 69, 64
7, 20751, Note_on_c, 7, 73, 58
7, 20810, Note_off_c, 7, 73, 64
7, 20812, Note_on_c, 7, 74, 58
7, 20868, Note_off_c, 7, 74, 64
7, 20881, Note_on_c, 7, 62, 55
7, 21233, Note_off_c, 7, 62, 64
7, 21238, Note_on_c, 7, 64, 47
7, 21343, Note_off_c, 7, 64, 64
7, 21354, Note_on_c, 7, 66, 58
7, 21552, Note_off_c, 7, 66, 64
7, 21598, Note_on_c, 7, 67, 52
7, 22186, Note_off_c, 7, 67, 64
7, 22198, Note_on_c, 7, 71, 44
7, 22287, Note_off_c, 7, 71, 64
7, 22321, Note_on_c, 7, 76, 59
7, 22605, Note_on_c, 7, 74, 63
7, 22614, Note_off_c, 7, 76, 64
7, 22660, Note_off_c, 7, 74, 64
7, 22671, Note_on_c, 7, 73, 52
7, 22728, Note_on_c, 7, 71, 46
7, 22736, Note_off_c, 7, 73, 64
7, 22793, Note_off_c, 7, 71, 64
7, 22796, Note_on_c, 7, 69, 55
7, 22876, Note_off_c, 7, 69, 64
7, 22916, Note_on_c, 7, 71, 53
7, 22990, Note_off_c, 7, 71, 64
7, 23035, Note_on_c, 7, 69, 46
7, 23253, Note_off_c, 7, 69, 64
7, 23277, Note_on_c, 7, 69, 59
7, 23293, Note_on_c, 7, 67, 52
7, 23296, Note_off_c, 7, 69, 64
7, 23308, Note_on_c, 7, 69, 59
7, 23310, Note_off_c, 7, 67, 64
7, 23321, Note_on_c, 7, 67, 58
7, 23323, Note_off_c, 7, 69, 64
7, 23343, Note_on_c, 7, 66, 54
7, 23348, Note_off_c, 7, 67, 64
7, 23398, Note_off_c, 7, 66, 64
7, 23398, Note_on_c, 7, 67, 53
7, 23496, Note_off_c, 7, 67, 64
7, 23519, Note_on_c, 7, 66, 55
7, 23941, Note_off_c, 7, 66, 64
7, 23941, End_track
8, 0, Start_track
8, 0, Title_t, "Viola"
8, 0, Program_c, 8, 41
8, 0, Control_c, 8, 7, 100
8, 12481, Note_on_c, 8, 64, 52
8, 13071, Note_off_c, 8, 64, 64
8, 13079, Note_on_c, 8, 63, 51
8, 13135, Note_off_c, 8, 63, 64
8, 13135, Note_on_c, 8, 64, 54
8, 13188, Note_off_c, 8, 64, 64
8, 13202, Note_on_c, 8, 66, 62
8, 13493, Note_on_c, 8, 67, 57
8, 13495, Note_off_c, 8, 66, 64
8, 13547, Note_off_c, 8, 67, 64
8, 13552, Note_on_c, 8, 69, 60
8, 13612, Note_off_c, 8, 69, 64
8, 13615, Note_on_c, 8, 66, 55
8, 13674, Note_off_c, 8, 66, 64
8, 13686, Note_on_c, 8, 63, 46
8, 13761, Note_off_c, 8, 63, 64
8, 13798, Note_on_c, 8, 71, 58
8, 13860, Note_off_c, 8, 71, 64
8, 13924, Note_on_c, 8, 71, 47
8, 14092, Note_off_c, 8, 71, 64
8, 14155, Note_on_c, 8, 59, 57
8, 14324, Note_off_c, 8, 59, 64
8, 14386, Note_on_c, 8, 61, 57
8, 14449, Note_on_c, 8, 62, 60
8, 14465, Note_off_c, 8, 61, 64
8, 14513, Note_on_c, 8, 64, 59
8, 14514, Note_off_c, 8, 62, 64
8, 14572, Note_on_c, 8, 66, 60
8, 14578, Note_off_c, 8, 64, 64
8, 14630, Note_off_c, 8, 66, 64
8, 14634, Note_on_c, 8, 67, 58
8, 14693, Note_on_c, 8, 66, 53
8, 14700, Note_off_c, 8, 67, 64
8, 14754, Note_off_c, 8, 66, 64
8, 14754, Note_on_c, 8, 67, 58
8, 14808, Note_on_c, 8, 64, 48
8, 14814, Note_off_c, 8, 67, 64
8, 14863, Note_off_c, 8, 64, 64
8, 14875, Note_on_c, 8, 66, 53
8, 14984, Note_off_c, 8, 66, 64
8, 14994, Note_on_c, 8, 64, 48
8, 15051, Note_on_c, 8, 62, 57
8, 15058, Note_off_c, 8, 64, 64
8, 15112, Note_off_c, 8, 62, 64
8, 15117, Note_on_c, 8, 61, 53
8, 15206, Note_off_c, 8, 61, 64
8, 15237, Note_on_c, 8, 66, 49
8, 15307, Note_off_c, 8, 66, 64
8, 15360, Note_on_c, 8, 66, 52
8, 15473, Note_off_c, 8, 66, 64
8, 15473, Note_on_c, 8, 64, 59
8, 15529, Note_on_c, 8, 62, 56
8, 15531, Note_off_c, 8, 64, 64
8, 15574, Note_off_c, 8, 62, 64
8, 15599, Note_on_c, 8, 67, 57
8, 15700, Note_off_c, 8, 67, 64
8, 15716, Note_on_c, 8, 66, 52
8, 15779, Note_on_c, 8, 64, 53
8, 15783, Note_off_c, 8, 66, 64
8, 15830, Note_off_c, 8, 64, 64
8, 15851, Note_on_c, 8, 62, 42
8, 16259, Note_off_c, 8, 62, 64
8, 16317, Note_on_c, 8, 59, 45
8, 16418, Note_off_c, 8, 59, 64
8, 16446, Note_on_c, 8, 71, 49
8, 16542, Note_off_c, 8, 71, 64
8, 16564, Note_on_c, 8, 69, 55
8, 16619, Note_on_c, 8, 68, 57
8, 16621, Note_off_c, 8, 69, 64
8, 16670, Note_off_c, 8, 68, 64
8, 16675, Note_on_c, 8, 69, 57
8, 16770, Note_off_c, 8, 69, 64
8, 16797, Note_on_c, 8, 68, 39
8, 16965, Note_off_c, 8, 68, 64
8, 16970, Note_on_c, 8, 66, 52
8, 17029, Note_off_c, 8, 66, 64
8, 17036, Note_on_c, 8, 64, 52
8, 17371, Note_off_c, 8, 64, 64
8, 17398, Note_on_c, 8, 64, 46
8, 17506, Note_off_c, 8, 64, 64
8, 17521, Note_on_c, 8, 66, 55
8, 17616, Note_off_c, 8, 66, 64
8, 17642, Note_on_c, 8, 64, 44
8, 17736, Note_off_c, 8, 64, 64
8, 17762, Note_on_c, 8, 64, 47
8, 17924, Note_off_c, 8, 64, 64
8, 17928, Note_on_c, 8, 62, 49
8, 17985, Note_off_c, 8, 62, 64
8, 17990, Note_on_c, 8, 61, 66
8, 18051, Note_on_c, 8, 62, 66
8, 18055, Note_off_c, 8, 61, 64
8, 18103, Note_off_c, 8, 62, 64
8, 18107, Note_on_c, 8, 64, 57
8, 18165, Note_off_c, 8, 64, 64
8, 18168, Note_on_c, 8, 61, 42
8, 18225, Note_off_c, 8, 61, 64
8, 18236, Note_on_c, 8, 57, 30
8, 18312, Note_off_c, 8, 57, 64
8, 18362, Note_on_c, 8, 62, 43
8, 18574, Note_off_c, 8, 62, 64
8, 18597, Note_on_c, 8, 59, 48
8, 18800, Note_off_c, 8, 59, 64
8, 18843, Note_on_c, 8, 64, 54
8, 19072, Note_off_c, 8, 64, 64
8, 19080, Note_on_c, 8, 61, 53
8, 19286, Note_off_c, 8, 61, 64
8, 19327, Note_on_c, 8, 66, 64
8, 19549, Note_off_c, 8, 66, 64
8, 19557, Note_on_c, 8, 63, 56
8, 19665, Note_off_c, 8, 63, 64
8, 19677, Note_on_c, 8, 59, 59
8, 19963, Note_off_c, 8, 59, 64
8, 19973, Note_on_c, 8, 71, 60
8, 20029, Note_off_c, 8, 71, 64
8, 20033, Note_on_c, 8, 67, 57
8, 20092, Note_on_c, 8, 64, 57
8, 20096, Note_off_c, 8, 67, 64
8, 20150, Note_off_c, 8, 64, 64
8, 20156, Note_on_c, 8, 69, 55
8, 20254, Note_off_c, 8, 69, 64
8, 20275, Note_on_c, 8, 67, 41
8, 20368, Note_off_c, 8, 67, 64
8, 20393, Note_on_c, 8, 66, 54
8, 20482, Note_off_c, 8, 66, 64
8, 20513, Note_on_c, 8, 64, 52
8, 20591, Note_off_c, 8, 64, 64
8, 20632, Note_on_c, 8, 62, 46
8, 20822, Note_off_c, 8, 62, 64
8, 20872, Note_on_c, 8, 69, 57
8, 21223, Note_off_c, 8, 69, 64
8, 21236, Note_on_c, 8, 67, 47
8, 21330, Note_off_c, 8, 67, 64
8, 21360, Note_on_c, 8, 69, 47
8, 21566, Note_off_c, 8, 69, 64
8, 21597, Note_on_c, 8, 62, 40
8, 22040, Note_off_c, 8, 62, 64
8, 22078, Note_on_c, 8, 64, 49
8, 22135, Note_on_c, 8, 59, 58
8, 22145, Note_off_c, 8, 64, 64
8, 22195, Note_on_c, 8, 64, 66
8, 22199, Note_off_c, 8, 59, 64
8, 22250, Note_off_c, 8, 64, 64
8, 22252, Note_on_c, 8, 67, 53
8, 22309, Note_off_c, 8, 67, 64
8, 22315, Note_on_c, 8, 71, 60
8, 22376, Note_on_c, 8, 69, 53
8, 22385, Note_off_c, 8, 71, 64
8, 22438, Note_on_c, 8, 67, 57
8, 22443, Note_off_c, 8, 69, 64
8, 22497, Note_on_c, 8, 66, 58
8, 22499, Note_off_c, 8, 67, 64
8, 22544, Note_off_c, 8, 66, 64
8, 22556, Note_on_c, 8, 64, 50
8, 22649, Note_off_c, 8, 64, 64
8, 22671, Note_on_c, 8, 69, 57
8, 22898, Note_off_c, 8, 69, 64
8, 22919, Note_on_c, 8, 67, 47
8, 22988, Note_off_c, 8, 67, 64
8, 23043, Note_on_c, 8, 66, 47
8, 23225, Note_off_c, 8, 66, 64
8, 23279, Note_on_c, 8, 64, 41
8, 23367, Note_off_c, 8, 64, 64
8, 23398, Note_on_c, 8, 57, 44
8, 23474, Note_off_c, 8, 57, 64
8, 23527, Note_on_c, 8, 57, 55
8, 23951, Note_off_c, 8, 57, 64
8, 23951, End_track
9, 0, Start_track
9, 0, Title_t, "Cello"
9, 0, Program_c, 10, 42
9, 0, Control_c, 10, 7, 100
9, 12476, Note_on_c, 10, 45, 52
9, 12566, Note_off_c, 10, 45, 64
9, 12600, Note_on_c, 10, 57, 45
9, 12665, Note_off_c, 10, 57, 64
9, 12715, Note_on_c, 10, 55, 53
9, 12784, Note_off_c, 10, 55, 64
9, 12828, Note_on_c, 10, 43, 48
9, 12901, Note_off_c, 10, 43, 64
9, 12949, Note_on_c, 10, 42, 48
9, 13032, Note_off_c, 10, 42, 64
9, 13076, Note_on_c, 10, 54, 59
9, 13151, Note_off_c, 10, 54, 64
9, 13195, Note_on_c, 10, 52, 51
9, 13266, Note_off_c, 10, 52, 64
9, 13315, Note_on_c, 10, 40, 50
9, 13394, Note_off_c, 10, 40, 64
9, 13433, Note_on_c, 10, 39, 44
9, 13512, Note_off_c, 10, 39, 64
9, 13562, Note_on_c, 10, 51, 46
9, 13646, Note_off_c, 10, 51, 64
9, 13682, Note_on_c, 10, 54, 48
9, 13755, Note_off_c, 10, 54, 64
9, 13793, Note_on_c, 10, 47, 57
9, 13866, Note_off_c, 10, 47, 64
9, 13916, Note_on_c, 10, 52, 52
9, 13995, Note_off_c, 10, 52, 64
9, 14034, Note_on_c, 10, 64, 49
9, 14104, Note_off_c, 10, 64, 64
9, 14154, Note_on_c, 10, 62, 49
9, 14229, Note_off_c, 10, 62, 64
9, 14265, Note_on_c, 10, 50, 42
9, 14346, Note_off_c, 10, 50, 64
9, 14387, Note_on_c, 10, 49, 38
9, 14474, Note_off_c, 10, 49, 64
9, 14514, Note_on_c, 10, 61, 54
9, 14594, Note_off_c, 10, 61, 64
9, 14634, Note_on_c, 10, 59, 50
9, 14713, Note_off_c, 10, 59, 64
9, 14748, Note_on_c, 10, 47, 52
9, 14837, Note_off_c, 10, 47, 64
9, 14878, Note_on_c, 10, 46, 32
9, 14959, Note_off_c, 10, 46, 64
9, 14992, Note_on_c, 10, 47, 59
9, 15084, Note_off_c, 10, 47, 64
9, 15117, Note_on_c, 10, 49, 52
9, 15197, Note_off_c, 10, 49, 64
9, 15233, Note_on_c, 10, 46, 39
9, 15308, Note_off_c, 10, 46, 64
9, 15357, Note_on_c, 10, 47, 53
9, 15443, Note_off_c, 10, 47, 64
9, 15481, Note_on_c, 10, 55, 50
9, 15550, Note_off_c, 10, 55, 64
9, 15598, Note_on_c, 10, 52, 41
9, 15687, Note_off_c, 10, 52, 64
9, 15718, Note_on_c, 10, 54, 29
9, 15785, Note_off_c, 10, 54, 64
9, 15842, Note_on_c, 10, 47, 58
9, 15918, Note_off_c, 10, 47, 64
9, 15954, Note_on_c, 10, 59, 56
9, 16023, Note_off_c, 10, 59, 64
9, 16077, Note_on_c, 10, 57, 57
9, 16148, Note_off_c, 10, 57, 64
9, 16204, Note_on_c, 10, 45, 48
9, 16273, Note_off_c, 10, 45, 64
9, 16321, Note_on_c, 10, 44, 52
9, 16410, Note_off_c, 10, 44, 64
9, 16442, Note_on_c, 10, 56, 62
9, 16516, Note_off_c, 10, 56, 64
9, 16559, Note_on_c, 10, 54, 46
9, 16632, Note_off_c, 10, 54, 64
9, 16671, Note_on_c, 10, 42, 46
9, 16751, Note_off_c, 10, 42, 64
9, 16791, Note_on_c, 10, 40, 59
9, 16871, Note_off_c, 10, 40, 64
9, 16918, Note_on_c, 10, 52, 52
9, 16993, Note_off_c, 10, 52, 64
9, 17038, Note_on_c, 10, 50, 59
9, 17113, Note_off_c, 10, 50, 64
9, 17164, Note_on_c, 10, 38, 49
9, 17247, Note_off_c, 10, 38, 64
9, 17280, Note_on_c, 10, 37, 56
9, 17368, Note_off_c, 10, 37, 64
9, 17397, Note_on_c, 10, 49, 53
9, 17495, Note_off_c, 10, 49, 64
9, 17528, Note_on_c, 10, 50, 52
9, 17614, Note_off_c, 10, 50, 64
9, 17634, Note_on_c, 10, 52, 52
9, 17717, Note_off_c, 10, 52, 64
9, 17748, Note_on_c, 10, 45, 52
9, 17828, Note_off_c, 10, 45, 64
9, 17877, Note_on_c, 10, 57, 53
9, 17946, Note_off_c, 10, 57, 64
9, 17991, Note_on_c, 10, 55, 55
9, 18067, Note_off_c, 10, 55, 64
9, 18121, Note_on_c, 10, 43, 45
9, 18188, Note_off_c, 10, 43, 64
9, 18237, Note_on_c, 10, 42, 40
9, 18318, Note_off_c, 10, 42, 64
9, 18354, Note_on_c, 10, 54, 52
9, 18426, Note_off_c, 10, 54, 64
9, 18477, Note_on_c, 10, 55, 52
9, 18546, Note_off_c, 10, 55, 64
9, 18598, Note_on_c, 10, 43, 52
9, 18672, Note_off_c, 10, 43, 64
9, 18717, Note_on_c, 10, 44, 53
9, 18787, Note_off_c, 10, 44, 64
9, 18837, Note_on_c, 10, 56, 50
9, 18907, Note_off_c, 10, 56, 64
9, 18959, Note_on_c, 10, 57, 46
9, 19030, Note_off_c, 10, 57, 64
9, 19082, Note_on_c, 10, 45, 50
9, 19153, Note_off_c, 10, 45, 64
9, 19208, Note_on_c, 10, 46, 47
9, 19281, Note_off_c, 10, 46, 64
9, 19320, Note_on_c, 10, 58, 49
9, 19386, Note_off_c, 10, 58, 64
9, 19434, Note_on_c, 10, 59, 60
9, 19502, Note_off_c, 10, 59, 64
9, 19554, Note_on_c, 10, 47, 52
9, 19628, Note_off_c, 10, 47, 64
9, 19677, Note_on_c, 10, 52, 37
9, 19764, Note_off_c, 10, 52, 64
9, 19798, Note_on_c, 10, 64, 47
9, 19863, Note_off_c, 10, 64, 64
9, 19912, Note_on_c, 10, 62, 52
9, 19989, Note_off_c, 10, 62, 64
9, 20036, Note_on_c, 10, 50, 42
9, 20110, Note_off_c, 10, 50, 64
9, 20154, Note_on_c, 10, 49, 42
9, 20237, Note_off_c, 10, 49, 64
9, 20275, Note_on_c, 10, 61, 44
9, 20353, Note_off_c, 10, 61, 64
9, 20386, Note_on_c, 10, 57, 39
9, 20463, Note_off_c, 10, 57, 64
9, 20513, Note_on_c, 10, 61, 36
9, 20581, Note_off_c, 10, 61, 64
9, 20628, Note_on_c, 10, 62, 51
9, 20703, Note_off_c, 10, 62, 64
9, 20756, Note_on_c, 10, 50, 57
9, 20825, Note_off_c, 10, 50, 64
9, 20879, Note_on_c, 10, 48, 53
9, 20952, Note_off_c, 10, 48, 64
9, 20996, Note_on_c, 10, 60, 47
9, 21061, Note_off_c, 10, 60, 64
9, 21111, Note_on_c, 10, 59, 57
9, 21196, Note_off_c, 10, 59, 64
9, 21243, Note_on_c, 10, 47, 47
9, 21310, Note_off_c, 10, 47, 64
9, 21360, Note_on_c, 10, 45, 42
9, 21428, Note_off_c, 10, 45, 64
9, 21473, Note_on_c, 10, 57, 44
9, 21543, Note_off_c, 10, 57, 64
9, 21592, Note_on_c, 10, 55, 44
9, 21675, Note_off_c, 10, 55, 64
9, 21722, Note_on_c, 10, 43, 42
9, 21789, Note_off_c, 10, 43, 64
9, 21834, Note_on_c, 10, 42, 52
9, 21913, Note_off_c, 10, 42, 64
9, 21955, Note_on_c, 10, 54, 51
9, 22026, Note_off_c, 10, 54, 64
9, 22074, Note_on_c, 10, 52, 56
9, 22156, Note_off_c, 10, 52, 64
9, 22199, Note_on_c, 10, 40, 51
9, 22261, Note_off_c, 10, 40, 64
9, 22319, Note_on_c, 10, 38, 48
9, 22394, Note_off_c, 10, 38, 64
9, 22436, Note_on_c, 10, 50, 58
9, 22528, Note_off_c, 10, 50, 64
9, 22548, Note_on_c, 10, 49, 41
9, 22629, Note_off_c, 10, 49, 64
9, 22671, Note_on_c, 10, 45, 48
9, 22753, Note_off_c, 10, 45, 64
9, 22794, Note_on_c, 10, 50, 51
9, 22883, Note_off_c, 10, 50, 64
9, 22912, Note_on_c, 10, 55, 47
9, 22995, Note_off_c, 10, 55, 64
9, 23032, Note_on_c, 10, 57, 53
9, 23129, Note_off_c, 10, 57, 64
9, 23155, Note_on_c, 10, 55, 48
9, 23240, Note_off_c, 10, 55, 64
9, 23276, Note_on_c, 10, 57, 42
9, 23371, Note_off_c, 10, 57, 64
9, 23407, Note_on_c, 10, 45, 41
9, 23481, Note_off_c, 10, 45, 64
9, 23526, Note_on_c, 10, 38, 47
9, 23925, Note_off_c, 10, 38, 64
9, 23925, End_track
0, 0, End_of_file
