0, 0, Header, 1, 11, 240
1, 0, Start_track
1, 0, Time_signature, 2, 2, 12, 8
1, 0, Tempo, 500000
1, 38184, Tempo, 535714
1, 38244, Tempo, 625000
1, 38400, Tempo, 500000
1, 38436, Tempo, 666667
1, 38496, Tempo, 789474
1, 38640, Tempo, 504202
1, 38640, End_track
2, 0, Start_track
2, 0, Title_t, "Violin1"
2, 0, Program_c, 0, 40
2, 0, Control_c, 0, 7, 100
2, 239, Note_on_c, 0, 83, 82
2, 306, Note_off_c, 0, 83, 64
2, 474, Note_on_c, 0, 78, 70
2, 546, Note_off_c, 0, 78, 64
2, 695, Note_on_c, 0, 74, 82
2, 771, Note_off_c, 0, 74, 64
2, 942, Note_on_c, 0, 71, 74
2, 1029, Note_off_c, 0, 71, 64
2, 1191, Note_on_c, 0, 71, 80
2, 1240, Note_off_c, 0, 71, 64
2, 1306, Note_on_c, 0, 74, 80
2, 1358, Note_off_c, 0, 74, 64
2, 1423, Note_on_c, 0, 73, 78
2, 1479, Note_off_c, 0, 73, 64
2, 1547, Note_on_c, 0, 73, 78
2, 1603, Note_off_c, 0, 73, 64
2, 1661, Note_on_c, 0, 73, 76
2, 1722, Note_off_c, 0, 73, 64
2, 1785, Note_on_c, 0, 76, 82
2, 1834, Note_off_c, 0, 76, 64
2, 1910, Note_on_c, 0, 74, 85
2, 1958, Note_off_c, 0, 74, 64
2, 2031, Note_on_c, 0, 71, 78
2, 2089, Note_off_c, 0, 71, 64
2, 2155, Note_on_c, 0, 83, 87
2, 2219, Note_off_c, 0, 83, 64
2, 2391, Note_on_c, 0, 78, 82
2, 2453, Note_off_c, 0, 78, 64
2, 2623, Note_on_c, 0, 74, 85
2, 2690, Note_off_c, 0, 74, 64
2, 2862, Note_on_c, 0, 71, 82
2, 2926, Note_off_c, 0, 71, 64
2, 3111, Note_on_c, 0, 74, 82
2, 3163, Note_on_c, 0, 73, 64
2, 3168, Note_off_c, 0, 74, 64
2, 3217, Note_off_c, 0, 73, 64
2, 3221, Note_on_c, 0, 74, 70
2, 3372, Note_off_c, 0, 74, 64
2, 3401, Note_on_c, 0, 73, 78
2, 3450, Note_off_c, 0, 73, 64
2, 3461, Note_on_c, 0, 74, 70
2, 3610, Note_off_c, 0, 74, 64
2, 3643, Note_on_c, 0, 83, 82
2, 3681, Note_off_c, 0, 83, 64
2, 3702, Note_on_c, 0, 74, 85
2, 3796, Note_off_c, 0, 74, 64
2, 3826, Note_on_c, 0, 76, 85
2, 3859, Note_off_c, 0, 76, 64
2, 3860, Note_on_c, 0, 74, 87
2, 3886, Note_on_c, 0, 76, 70
2, 3891, Note_off_c, 0, 74, 64
2, 3909, Note_on_c, 0, 74, 82
2, 3914, Note_off_c, 0, 76, 64
2, 3949, Note_on_c, 0, 73, 78
2, 3953, Note_off_c, 0, 74, 64
2, 4029, Note_off_c, 0, 73, 64
2, 4066, Note_on_c, 0, 78, 63
2, 4117, Note_off_c, 0, 78, 64
2, 4117, Note_on_c, 0, 77, 66
2, 4174, Note_off_c, 0, 77, 64
2, 4186, Note_on_c, 0, 78, 68
2, 4335, Note_off_c, 0, 78, 64
2, 4356, Note_on_c, 0, 77, 82
2, 4399, Note_off_c, 0, 77, 64
2, 4421, Note_on_c, 0, 78, 85
2, 4569, Note_off_c, 0, 78, 64
2, 4595, Note_on_c, 0, 86, 85
2, 4639, Note_off_c, 0, 86, 64
2, 4656, Note_on_c, 0, 78, 87
2, 4740, Note_off_c, 0, 78, 64
2, 4779, Note_on_c, 0, 80, 78
2, 4801, Note_on_c, 0, 78, 66
2, 4806, Note_off_c, 0, 80, 64
2, 4833, Note_off_c, 0, 78, 64
2, 4836, Note_on_c, 0, 80, 68
2, 4860, Note_on_c, 0, 78, 70
2, 4877, Note_off_c, 0, 80, 64
2, 4888, Note_on_c, 0, 77, 80
2, 4906, Note_off_c, 0, 78, 64
2, 4975, Note_off_c, 0, 77, 64
2, 5021, Note_on_c, 0, 78, 68
2, 5080, Note_off_c, 0, 78, 64
2, 5145, Note_on_c, 0, 81, 82
2, 5201, Note_off_c, 0, 81, 64
2, 5266, Note_on_c, 0, 80, 74
2, 5324, Note_off_c, 0, 80, 64
2, 5385, Note_on_c, 0, 80, 72
2, 5446, Note_off_c, 0, 80, 64
2, 5503, Note_on_c, 0, 80, 78
2, 5556, Note_off_c, 0, 80, 64
2, 5621, Note_on_c, 0, 83, 70
2, 5674, Note_off_c, 0, 83, 64
2, 5742, Note_on_c, 0, 81, 82
2, 5799, Note_off_c, 0, 81, 64
2, 5860, Note_on_c, 0, 78, 82
2, 5908, Note_on_c, 0, 77, 80
2, 5922, Note_off_c, 0, 78, 64
2, 5962, Note_off_c, 0, 77, 64
2, 5976, Note_on_c, 0, 78, 87
2, 6034, Note_off_c, 0, 78, 64
2, 6100, Note_on_c, 0, 73, 59
2, 6158, Note_off_c, 0, 73, 64
2, 6225, Note_on_c, 0, 78, 78
2, 6277, Note_off_c, 0, 78, 64
2, 6347, Note_on_c, 0, 71, 74
2, 6406, Note_off_c, 0, 71, 64
2, 6466, Note_on_c, 0, 78, 70
2, 6518, Note_off_c, 0, 78, 64
2, 6588, Note_on_c, 0, 69, 78
2, 6643, Note_off_c, 0, 69, 64
2, 6711, Note_on_c, 0, 78, 87
2, 6764, Note_off_c, 0, 78, 64
2, 6829, Note_on_c, 0, 68, 85
2, 6874, Note_off_c, 0, 68, 64
2, 6950, Note_on_c, 0, 78, 82
2, 7005, Note_off_c, 0, 78, 64
2, 7065, Note_on_c, 0, 77, 82
2, 7128, Note_off_c, 0, 77, 64
2, 7176, Note_on_c, 0, 78, 78
2, 7232, Note_off_c, 0, 78, 64
2, 7301, Note_on_c, 0, 80, 87
2, 7359, Note_off_c, 0, 80, 64
2, 7424, Note_on_c, 0, 73, 72
2, 7485, Note_off_c, 0, 73, 64
2, 7547, Note_on_c, 0, 77, 87
2, 7600, Note_off_c, 0, 77, 64
2, 7672, Note_on_c, 0, 78, 87
2, 7798, Note_off_c, 0, 78, 64
2, 15589, Note_on_c, 0, 78, 76
2, 15664, Note_off_c, 0, 78, 64
2, 15827, Note_on_c, 0, 73, 76
2, 15900, Note_off_c, 0, 73, 64
2, 16064, Note_on_c, 0, 69, 78
2, 16152, Note_off_c, 0, 69, 64
2, 16310, Note_on_c, 0, 66, 68
2, 16398, Note_off_c, 0, 66, 64
2, 16558, Note_on_c, 0, 69, 85
2, 16635, Note_off_c, 0, 69, 64
2, 16796, Note_on_c, 0, 67, 80
2, 16881, Note_off_c, 0, 67, 64
2, 17035, Note_on_c, 0, 66, 66
2, 17122, Note_off_c, 0, 66, 64
2, 17261, Note_on_c, 0, 64, 62
2, 17360, Note_off_c, 0, 64, 64
2, 17508, Note_on_c, 0, 79, 93
2, 17598, Note_off_c, 0, 79, 64
2, 17746, Note_on_c, 0, 79, 85
2, 17831, Note_off_c, 0, 79, 64
2, 17982, Note_on_c, 0, 76, 82
2, 18071, Note_off_c, 0, 76, 64
2, 18232, Note_on_c, 0, 73, 62
2, 18326, Note_off_c, 0, 73, 64
2, 18470, Note_on_c, 0, 74, 80
2, 18529, Note_off_c, 0, 74, 64
2, 18585, Note_on_c, 0, 78, 68
2, 18644, Note_off_c, 0, 78, 64
2, 18704, Note_on_c, 0, 76, 82
2, 18767, Note_off_c, 0, 76, 64
2, 18826, Note_on_c, 0, 76, 78
2, 18885, Note_off_c, 0, 76, 64
2, 18946, Note_on_c, 0, 76, 80
2, 19009, Note_off_c, 0, 76, 64
2, 19066, Note_on_c, 0, 79, 80
2, 19126, Note_off_c, 0, 79, 64
2, 19194, Note_on_c, 0, 78, 80
2, 19256, Note_off_c, 0, 78, 64
2, 19306, Note_on_c, 0, 74, 78
2, 19357, Note_on_c, 0, 73, 63
2, 19366, Note_off_c, 0, 74, 64
2, 19407, Note_off_c, 0, 73, 64
2, 19426, Note_on_c, 0, 74, 85
2, 19478, Note_off_c, 0, 74, 64
2, 19548, Note_on_c, 0, 69, 68
2, 19601, Note_off_c, 0, 69, 64
2, 19665, Note_on_c, 0, 74, 74
2, 19718, Note_off_c, 0, 74, 64
2, 19781, Note_on_c, 0, 67, 63
2, 19842, Note_off_c, 0, 67, 64
2, 19902, Note_on_c, 0, 74, 85
2, 19953, Note_off_c, 0, 74, 64
2, 20023, Note_on_c, 0, 66, 66
2, 20075, Note_off_c, 0, 66, 64
2, 20140, Note_on_c, 0, 74, 80
2, 20192, Note_off_c, 0, 74, 64
2, 20260, Note_on_c, 0, 64, 72
2, 20317, Note_off_c, 0, 64, 64
2, 20377, Note_on_c, 0, 74, 82
2, 20429, Note_off_c, 0, 74, 64
2, 20502, Note_on_c, 0, 73, 68
2, 20563, Note_off_c, 0, 73, 64
2, 20619, Note_on_c, 0, 74, 82
2, 20680, Note_off_c, 0, 74, 64
2, 20739, Note_on_c, 0, 76, 85
2, 20809, Note_off_c, 0, 76, 64
2, 20861, Note_on_c, 0, 69, 80
2, 20918, Note_off_c, 0, 69, 64
2, 20984, Note_on_c, 0, 73, 70
2, 21028, Note_off_c, 0, 73, 64
2, 21107, Note_on_c, 0, 74, 82
2, 21232, Note_off_c, 0, 74, 64
2, 21350, Note_on_c, 0, 78, 93
2, 21400, Note_on_c, 0, 76, 85
2, 21407, Note_off_c, 0, 78, 64
2, 21452, Note_off_c, 0, 76, 64
2, 21462, Note_on_c, 0, 78, 87
2, 21616, Note_off_c, 0, 78, 64
2, 21640, Note_on_c, 0, 76, 72
2, 21679, Note_off_c, 0, 76, 64
2, 21706, Note_on_c, 0, 78, 85
2, 21858, Note_off_c, 0, 78, 64
2, 21877, Note_on_c, 0, 86, 85
2, 21923, Note_off_c, 0, 86, 64
2, 21937, Note_on_c, 0, 78, 85
2, 22033, Note_off_c, 0, 78, 64
2, 22065, Note_on_c, 0, 79, 72
2, 22094, Note_on_c, 0, 78, 91
2, 22101, Note_off_c, 0, 79, 64
2, 22126, Note_off_c, 0, 78, 64
2, 22127, Note_on_c, 0, 79, 68
2, 22155, Note_on_c, 0, 78, 64
2, 22174, Note_off_c, 0, 79, 64
2, 22185, Note_on_c, 0, 76, 80
2, 22202, Note_off_c, 0, 78, 64
2, 22275, Note_off_c, 0, 76, 64
2, 22307, Note_on_c, 0, 76, 82
2, 22360, Note_on_c, 0, 74, 82
2, 22361, Note_off_c, 0, 76, 64
2, 22409, Note_off_c, 0, 74, 64
2, 22426, Note_on_c, 0, 76, 87
2, 22580, Note_off_c, 0, 76, 64
2, 22600, Note_on_c, 0, 74, 80
2, 22644, Note_off_c, 0, 74, 64
2, 22666, Note_on_c, 0, 76, 85
2, 22814, Note_off_c, 0, 76, 64
2, 22845, Note_on_c, 0, 85, 85
2, 22880, Note_off_c, 0, 85, 64
2, 22901, Note_on_c, 0, 76, 72
2, 22988, Note_off_c, 0, 76, 64
2, 23017, Note_on_c, 0, 78, 85
2, 23039, Note_on_c, 0, 76, 66
2, 23045, Note_off_c, 0, 78, 64
2, 23069, Note_on_c, 0, 78, 72
2, 23072, Note_off_c, 0, 76, 64
2, 23092, Note_on_c, 0, 76, 76
2, 23112, Note_off_c, 0, 78, 64
2, 23127, Note_on_c, 0, 74, 78
2, 23139, Note_off_c, 0, 76, 64
2, 23236, Note_off_c, 0, 74, 64
2, 23620, Note_on_c, 0, 79, 91
2, 23671, Note_off_c, 0, 79, 64
2, 23679, Note_on_c, 0, 76, 82
2, 23726, Note_off_c, 0, 76, 64
2, 23742, Note_on_c, 0, 71, 68
2, 23819, Note_off_c, 0, 71, 64
2, 24117, Note_on_c, 0, 76, 87
2, 24161, Note_off_c, 0, 76, 64
2, 24174, Note_on_c, 0, 71, 78
2, 24223, Note_off_c, 0, 71, 64
2, 24239, Note_on_c, 0, 67, 64
2, 24326, Note_off_c, 0, 67, 64
2, 24588, Note_on_c, 0, 72, 78
2, 24638, Note_off_c, 0, 72, 64
2, 24701, Note_on_c, 0, 76, 80
2, 24754, Note_off_c, 0, 76, 64
2, 24825, Note_on_c, 0, 79, 91
2, 24871, Note_off_c, 0, 79, 64
2, 24944, Note_on_c, 0, 79, 89
2, 25071, Note_on_c, 0, 78, 60
2, 25076, Note_off_c, 0, 79, 64
2, 25130, Note_off_c, 0, 78, 64
2, 25197, Note_on_c, 0, 76, 76
2, 25273, Note_off_c, 0, 76, 64
2, 25434, Note_on_c, 0, 74, 80
2, 25509, Note_off_c, 0, 74, 64
2, 25662, Note_on_c, 0, 73, 63
2, 25738, Note_off_c, 0, 73, 64
2, 25907, Note_on_c, 0, 71, 82
2, 25979, Note_off_c, 0, 71, 64
2, 26031, Note_on_c, 0, 66, 78
2, 26088, Note_on_c, 0, 71, 85
2, 26093, Note_off_c, 0, 66, 64
2, 26131, Note_off_c, 0, 71, 64
2, 26152, Note_on_c, 0, 74, 85
2, 26187, Note_off_c, 0, 74, 64
2, 26205, Note_on_c, 0, 71, 89
2, 26247, Note_off_c, 0, 71, 64
2, 26267, Note_on_c, 0, 74, 85
2, 26308, Note_off_c, 0, 74, 64
2, 26321, Note_on_c, 0, 78, 87
2, 26367, Note_off_c, 0, 78, 64
2, 26385, Note_on_c, 0, 83, 85
2, 26454, Note_off_c, 0, 83, 64
2, 26505, Note_on_c, 0, 78, 72
2, 26553, Note_off_c, 0, 78, 64
2, 26631, Note_on_c, 0, 76, 82
2, 26676, Note_off_c, 0, 76, 64
2, 26682, Note_on_c, 0, 74, 70
2, 26740, Note_off_c, 0, 74, 64
2, 26743, Note_on_c, 0, 73, 76
2, 26780, Note_off_c, 0, 73, 64
2, 26797, Note_on_c, 0, 74, 95
2, 26833, Note_off_c, 0, 74, 64
2, 26866, Note_on_c, 0, 73, 102
2, 26984, Note_on_c, 0, 71, 68
2, 26990, Note_off_c, 0, 73, 64
2, 27039, Note_off_c, 0, 71, 64
2, 27039, End_track
3, 0, Start_track
3, 0, Title_t, "Violin2"
3, 0, Program_c, 1, 40
3, 0, Control_c, 1, 7, 100
3, 235, Note_on_c, 1, 78, 85
3, 319, Note_off_c, 1, 78, 64
3, 472, Note_on_c, 1, 74, 85
3, 547, Note_off_c, 1, 74, 64
3, 704, Note_on_c, 1, 71, 80
3, 785, Note_off_c, 1, 71, 64
3, 950, Note_on_c, 1, 66, 70
3, 1039, Note_off_c, 1, 66, 64
3, 1190, Note_on_c, 1, 66, 78
3, 1254, Note_off_c, 1, 66, 64
3, 1302, Note_on_c, 1, 71, 82
3, 1365, Note_off_c, 1, 71, 64
3, 1422, Note_on_c, 1, 71, 74
3, 1496, Note_off_c, 1, 71, 64
3, 1543, Note_on_c, 1, 71, 82
3, 1614, Note_off_c, 1, 71, 64
3, 1670, Note_on_c, 1, 70, 85
3, 1746, Note_off_c, 1, 70, 64
3, 1789, Note_on_c, 1, 70, 72
3, 1866, Note_off_c, 1, 70, 64
3, 1906, Note_on_c, 1, 71, 82
3, 1970, Note_off_c, 1, 71, 64
3, 2033, Note_on_c, 1, 66, 74
3, 2102, Note_off_c, 1, 66, 64
3, 2153, Note_on_c, 1, 78, 74
3, 2225, Note_off_c, 1, 78, 64
3, 2391, Note_on_c, 1, 74, 89
3, 2468, Note_off_c, 1, 74, 64
3, 2626, Note_on_c, 1, 71, 85
3, 2705, Note_off_c, 1, 71, 64
3, 2870, Note_on_c, 1, 66, 70
3, 2948, Note_off_c, 1, 66, 64
3, 3103, Note_on_c, 1, 66, 72
3, 3164, Note_off_c, 1, 66, 64
3, 3226, Note_on_c, 1, 71, 80
3, 3279, Note_off_c, 1, 71, 64
3, 3348, Note_on_c, 1, 64, 82
3, 3410, Note_off_c, 1, 64, 64
3, 3467, Note_on_c, 1, 71, 87
3, 3530, Note_off_c, 1, 71, 64
3, 3586, Note_on_c, 1, 68, 82
3, 3652, Note_off_c, 1, 68, 64
3, 3710, Note_on_c, 1, 71, 87
3, 3763, Note_off_c, 1, 71, 64
3, 3820, Note_on_c, 1, 69, 85
3, 3885, Note_off_c, 1, 69, 64
3, 3943, Note_on_c, 1, 64, 80
3, 4001, Note_off_c, 1, 64, 64
3, 4060, Note_on_c, 1, 69, 82
3, 4124, Note_off_c, 1, 69, 64
3, 4184, Note_on_c, 1, 74, 89
3, 4244, Note_off_c, 1, 74, 64
3, 4302, Note_on_c, 1, 68, 76
3, 4375, Note_off_c, 1, 68, 64
3, 4421, Note_on_c, 1, 74, 85
3, 4478, Note_off_c, 1, 74, 64
3, 4542, Note_on_c, 1, 71, 80
3, 4604, Note_off_c, 1, 71, 64
3, 4660, Note_on_c, 1, 74, 82
3, 4726, Note_off_c, 1, 74, 64
3, 4782, Note_on_c, 1, 73, 80
3, 4843, Note_off_c, 1, 73, 64
3, 4899, Note_on_c, 1, 68, 68
3, 4961, Note_off_c, 1, 68, 64
3, 5022, Note_on_c, 1, 73, 78
3, 5086, Note_off_c, 1, 73, 64
3, 5141, Note_on_c, 1, 78, 64
3, 5199, Note_off_c, 1, 78, 64
3, 5268, Note_on_c, 1, 78, 74
3, 5337, Note_off_c, 1, 78, 64
3, 5389, Note_on_c, 1, 78, 72
3, 5449, Note_off_c, 1, 78, 64
3, 5507, Note_on_c, 1, 77, 85
3, 5569, Note_off_c, 1, 77, 64
3, 5624, Note_on_c, 1, 77, 82
3, 5688, Note_off_c, 1, 77, 64
3, 5742, Note_on_c, 1, 78, 82
3, 5800, Note_off_c, 1, 78, 64
3, 5860, Note_on_c, 1, 69, 68
3, 5926, Note_off_c, 1, 69, 64
3, 5986, Note_on_c, 1, 73, 76
3, 6055, Note_off_c, 1, 73, 64
3, 6230, Note_on_c, 1, 71, 87
3, 6306, Note_off_c, 1, 71, 64
3, 6469, Note_on_c, 1, 69, 87
3, 6548, Note_off_c, 1, 69, 64
3, 6714, Note_on_c, 1, 68, 85
3, 6793, Note_off_c, 1, 68, 64
3, 6952, Note_on_c, 1, 71, 85
3, 7011, Note_off_c, 1, 71, 64
3, 7069, Note_on_c, 1, 74, 82
3, 7133, Note_off_c, 1, 74, 64
3, 7185, Note_on_c, 1, 73, 70
3, 7250, Note_off_c, 1, 73, 64
3, 7304, Note_on_c, 1, 71, 78
3, 7366, Note_off_c, 1, 71, 64
3, 7422, Note_on_c, 1, 69, 82
3, 7481, Note_off_c, 1, 69, 64
3, 7544, Note_on_c, 1, 73, 76
3, 7597, Note_off_c, 1, 73, 64
3, 7671, Note_on_c, 1, 73, 85
3, 7802, Note_off_c, 1, 73, 64
3, 15597, Note_on_c, 1, 73, 82
3, 15670, Note_off_c, 1, 73, 64
3, 15830, Note_on_c, 1, 69, 85
3, 15903, Note_off_c, 1, 69, 64
3, 16069, Note_on_c, 1, 66, 74
3, 16149, Note_off_c, 1, 66, 64
3, 16312, Note_on_c, 1, 61, 64
3, 16401, Note_off_c, 1, 61, 64
3, 16545, Note_on_c, 1, 66, 62
3, 16635, Note_off_c, 1, 66, 64
3, 16785, Note_on_c, 1, 64, 66
3, 16879, Note_off_c, 1, 64, 64
3, 17034, Note_on_c, 1, 63, 61
3, 17120, Note_off_c, 1, 63, 64
3, 17264, Note_on_c, 1, 64, 61
3, 17362, Note_off_c, 1, 64, 64
3, 17512, Note_on_c, 1, 76, 95
3, 17596, Note_off_c, 1, 76, 64
3, 17750, Note_on_c, 1, 76, 89
3, 17837, Note_off_c, 1, 76, 64
3, 17998, Note_on_c, 1, 73, 76
3, 18076, Note_off_c, 1, 73, 64
3, 18236, Note_on_c, 1, 69, 66
3, 18338, Note_off_c, 1, 69, 64
3, 18472, Note_on_c, 1, 69, 74
3, 18537, Note_off_c, 1, 69, 64
3, 18588, Note_on_c, 1, 74, 82
3, 18646, Note_off_c, 1, 74, 64
3, 18710, Note_on_c, 1, 74, 80
3, 18773, Note_off_c, 1, 74, 64
3, 18831, Note_on_c, 1, 74, 82
3, 18896, Note_off_c, 1, 74, 64
3, 18951, Note_on_c, 1, 73, 76
3, 19009, Note_off_c, 1, 73, 64
3, 19068, Note_on_c, 1, 73, 74
3, 19119, Note_off_c, 1, 73, 64
3, 19189, Note_on_c, 1, 74, 87
3, 19246, Note_off_c, 1, 74, 64
3, 19304, Note_on_c, 1, 66, 64
3, 19365, Note_off_c, 1, 66, 64
3, 19428, Note_on_c, 1, 69, 87
3, 19512, Note_off_c, 1, 69, 64
3, 19673, Note_on_c, 1, 67, 85
3, 19752, Note_off_c, 1, 67, 64
3, 19908, Note_on_c, 1, 66, 76
3, 19988, Note_off_c, 1, 66, 64
3, 20144, Note_on_c, 1, 64, 80
3, 20230, Note_off_c, 1, 64, 64
3, 20382, Note_on_c, 1, 71, 78
3, 20445, Note_off_c, 1, 71, 64
3, 20503, Note_on_c, 1, 76, 85
3, 20565, Note_off_c, 1, 76, 64
3, 20623, Note_on_c, 1, 69, 74
3, 20691, Note_off_c, 1, 69, 64
3, 20742, Note_on_c, 1, 67, 76
3, 20802, Note_off_c, 1, 67, 64
3, 20863, Note_on_c, 1, 66, 72
3, 20925, Note_off_c, 1, 66, 64
3, 20987, Note_on_c, 1, 69, 82
3, 21028, Note_off_c, 1, 69, 64
3, 21112, Note_on_c, 1, 69, 78
3, 21259, Note_off_c, 1, 69, 64
3, 21355, Note_on_c, 1, 69, 80
3, 21401, Note_off_c, 1, 69, 64
3, 21470, Note_on_c, 1, 74, 85
3, 21522, Note_off_c, 1, 74, 64
3, 21589, Note_on_c, 1, 69, 76
3, 21644, Note_off_c, 1, 69, 64
3, 21706, Note_on_c, 1, 74, 82
3, 21751, Note_off_c, 1, 74, 64
3, 21828, Note_on_c, 1, 69, 80
3, 21880, Note_off_c, 1, 69, 64
3, 21950, Note_on_c, 1, 74, 82
3, 22000, Note_off_c, 1, 74, 64
3, 22061, Note_on_c, 1, 76, 93
3, 22088, Note_on_c, 1, 74, 68
3, 22098, Note_off_c, 1, 76, 64
3, 22109, Note_on_c, 1, 76, 53
3, 22122, Note_off_c, 1, 74, 64
3, 22136, Note_on_c, 1, 74, 70
3, 22149, Note_off_c, 1, 76, 64
3, 22185, Note_on_c, 1, 73, 80
3, 22186, Note_off_c, 1, 74, 64
3, 22224, Note_off_c, 1, 73, 64
3, 22311, Note_on_c, 1, 66, 70
3, 22368, Note_off_c, 1, 66, 64
3, 22429, Note_on_c, 1, 73, 80
3, 22486, Note_off_c, 1, 73, 64
3, 22545, Note_on_c, 1, 66, 63
3, 22599, Note_off_c, 1, 66, 64
3, 22664, Note_on_c, 1, 73, 74
3, 22718, Note_off_c, 1, 73, 64
3, 22782, Note_on_c, 1, 70, 78
3, 22838, Note_off_c, 1, 70, 64
3, 22908, Note_on_c, 1, 73, 80
3, 22970, Note_off_c, 1, 73, 64
3, 23016, Note_on_c, 1, 74, 80
3, 23045, Note_on_c, 1, 73, 57
3, 23053, Note_off_c, 1, 74, 64
3, 23067, Note_on_c, 1, 74, 55
3, 23073, Note_off_c, 1, 73, 64
3, 23103, Note_on_c, 1, 73, 68
3, 23114, Note_off_c, 1, 74, 64
3, 23134, Note_on_c, 1, 71, 78
3, 23147, Note_off_c, 1, 73, 64
3, 23207, Note_off_c, 1, 71, 64
3, 23625, Note_on_c, 1, 76, 93
3, 23671, Note_off_c, 1, 76, 64
3, 23677, Note_on_c, 1, 71, 82
3, 23730, Note_off_c, 1, 71, 64
3, 23738, Note_on_c, 1, 67, 61
3, 23802, Note_off_c, 1, 67, 64
3, 24114, Note_on_c, 1, 71, 87
3, 24166, Note_off_c, 1, 71, 64
3, 24169, Note_on_c, 1, 67, 85
3, 24214, Note_off_c, 1, 67, 64
3, 24226, Note_on_c, 1, 64, 59
3, 24302, Note_off_c, 1, 64, 64
3, 24589, Note_on_c, 1, 64, 72
3, 24637, Note_off_c, 1, 64, 64
3, 24706, Note_on_c, 1, 67, 74
3, 24755, Note_off_c, 1, 67, 64
3, 24823, Note_on_c, 1, 72, 85
3, 24864, Note_off_c, 1, 72, 64
3, 24937, Note_on_c, 1, 71, 82
3, 25052, Note_off_c, 1, 71, 64
3, 25052, Note_on_c, 1, 70, 64
3, 25129, Note_off_c, 1, 70, 64
3, 25189, Note_on_c, 1, 73, 76
3, 25262, Note_off_c, 1, 73, 64
3, 25432, Note_on_c, 1, 71, 82
3, 25506, Note_off_c, 1, 71, 64
3, 25669, Note_on_c, 1, 70, 72
3, 25743, Note_off_c, 1, 70, 64
3, 25898, Note_on_c, 1, 71, 70
3, 26008, Note_off_c, 1, 71, 64
3, 26274, Note_on_c, 1, 71, 87
3, 26324, Note_on_c, 1, 74, 82
3, 26325, Note_off_c, 1, 71, 64
3, 26377, Note_off_c, 1, 74, 64
3, 26383, Note_on_c, 1, 78, 82
3, 26445, Note_off_c, 1, 78, 64
3, 26507, Note_on_c, 1, 71, 85
3, 26565, Note_off_c, 1, 71, 64
3, 26629, Note_on_c, 1, 71, 87
3, 26678, Note_off_c, 1, 71, 64
3, 26749, Note_on_c, 1, 70, 78
3, 26800, Note_off_c, 1, 70, 64
3, 26871, Note_on_c, 1, 66, 66
3, 27060, Note_off_c, 1, 66, 64
3, 27060, End_track
4, 0, Start_track
4, 0, Title_t, "Viola"
4, 0, Program_c, 2, 41
4, 0, Control_c, 2, 7, 100
4, 236, Note_on_c, 2, 74, 91
4, 305, Note_off_c, 2, 74, 64
4, 475, Note_on_c, 2, 71, 85
4, 547, Note_off_c, 2, 71, 64
4, 708, Note_on_c, 2, 66, 82
4, 781, Note_off_c, 2, 66, 64
4, 948, Note_on_c, 2, 62, 82
4, 1032, Note_off_c, 2, 62, 64
4, 1189, Note_on_c, 2, 62, 80
4, 1249, Note_off_c, 2, 62, 64
4, 1304, Note_on_c, 2, 66, 74
4, 1370, Note_off_c, 2, 66, 64
4, 1416, Note_on_c, 2, 67, 82
4, 1483, Note_off_c, 2, 67, 64
4, 1543, Note_on_c, 2, 64, 74
4, 1607, Note_off_c, 2, 64, 64
4, 1669, Note_on_c, 2, 66, 85
4, 1735, Note_off_c, 2, 66, 64
4, 1788, Note_on_c, 2, 66, 82
4, 1849, Note_off_c, 2, 66, 64
4, 1906, Note_on_c, 2, 66, 82
4, 1969, Note_off_c, 2, 66, 64
4, 2031, Note_on_c, 2, 62, 78
4, 2096, Note_off_c, 2, 62, 64
4, 2154, Note_on_c, 2, 74, 85
4, 2224, Note_off_c, 2, 74, 64
4, 2391, Note_on_c, 2, 71, 80
4, 2458, Note_off_c, 2, 71, 64
4, 2626, Note_on_c, 2, 66, 82
4, 2699, Note_off_c, 2, 66, 64
4, 2856, Note_on_c, 2, 62, 80
4, 2946, Note_off_c, 2, 62, 64
4, 3107, Note_on_c, 2, 71, 87
4, 3160, Note_off_c, 2, 71, 64
4, 3224, Note_on_c, 2, 66, 78
4, 3282, Note_off_c, 2, 66, 64
4, 3345, Note_on_c, 2, 71, 87
4, 3405, Note_off_c, 2, 71, 64
4, 3465, Note_on_c, 2, 68, 70
4, 3528, Note_off_c, 2, 68, 64
4, 3589, Note_on_c, 2, 71, 89
4, 3654, Note_off_c, 2, 71, 64
4, 3709, Note_on_c, 2, 64, 82
4, 3771, Note_off_c, 2, 64, 64
4, 3829, Note_on_c, 2, 64, 82
4, 3890, Note_off_c, 2, 64, 64
4, 3948, Note_on_c, 2, 69, 82
4, 4003, Note_off_c, 2, 69, 64
4, 4067, Note_on_c, 2, 66, 80
4, 4131, Note_off_c, 2, 66, 64
4, 4189, Note_on_c, 2, 69, 82
4, 4250, Note_off_c, 2, 69, 64
4, 4306, Note_on_c, 2, 74, 87
4, 4362, Note_off_c, 2, 74, 64
4, 4427, Note_on_c, 2, 71, 80
4, 4487, Note_off_c, 2, 71, 64
4, 4539, Note_on_c, 2, 74, 85
4, 4595, Note_off_c, 2, 74, 64
4, 4658, Note_on_c, 2, 68, 74
4, 4716, Note_off_c, 2, 68, 64
4, 4782, Note_on_c, 2, 68, 80
4, 4849, Note_off_c, 2, 68, 64
4, 4903, Note_on_c, 2, 73, 82
4, 4954, Note_off_c, 2, 73, 64
4, 5022, Note_on_c, 2, 66, 80
4, 5085, Note_off_c, 2, 66, 64
4, 5143, Note_on_c, 2, 73, 82
4, 5201, Note_off_c, 2, 73, 64
4, 5265, Note_on_c, 2, 74, 89
4, 5335, Note_off_c, 2, 74, 64
4, 5384, Note_on_c, 2, 74, 85
4, 5444, Note_off_c, 2, 74, 64
4, 5507, Note_on_c, 2, 73, 82
4, 5565, Note_off_c, 2, 73, 64
4, 5623, Note_on_c, 2, 73, 80
4, 5671, Note_off_c, 2, 73, 64
4, 5747, Note_on_c, 2, 61, 89
4, 5800, Note_off_c, 2, 61, 64
4, 5860, Note_on_c, 2, 73, 87
4, 5932, Note_off_c, 2, 73, 64
4, 5984, Note_on_c, 2, 69, 89
4, 6056, Note_off_c, 2, 69, 64
4, 6231, Note_on_c, 2, 66, 85
4, 6301, Note_off_c, 2, 66, 64
4, 6467, Note_on_c, 2, 69, 89
4, 6537, Note_off_c, 2, 69, 64
4, 6711, Note_on_c, 2, 71, 87
4, 6780, Note_off_c, 2, 71, 64
4, 6949, Note_on_c, 2, 68, 74
4, 7010, Note_off_c, 2, 68, 64
4, 7069, Note_on_c, 2, 71, 82
4, 7125, Note_off_c, 2, 71, 64
4, 7191, Note_on_c, 2, 69, 80
4, 7253, Note_off_c, 2, 69, 64
4, 7311, Note_on_c, 2, 74, 89
4, 7377, Note_off_c, 2, 74, 64
4, 7434, Note_on_c, 2, 73, 87
4, 7486, Note_off_c, 2, 73, 64
4, 7550, Note_on_c, 2, 71, 82
4, 7604, Note_off_c, 2, 71, 64
4, 7671, Note_on_c, 2, 69, 80
4, 7803, Note_off_c, 2, 69, 64
4, 15587, Note_on_c, 2, 69, 91
4, 15663, Note_off_c, 2, 69, 64
4, 15822, Note_on_c, 2, 66, 82
4, 15905, Note_off_c, 2, 66, 64
4, 16073, Note_on_c, 2, 61, 82
4, 16145, Note_off_c, 2, 61, 64
4, 16306, Note_on_c, 2, 57, 70
4, 16390, Note_off_c, 2, 57, 64
4, 16549, Note_on_c, 2, 54, 57
4, 16635, Note_off_c, 2, 54, 64
4, 16797, Note_on_c, 2, 55, 72
4, 16886, Note_off_c, 2, 55, 64
4, 17031, Note_on_c, 2, 59, 74
4, 17115, Note_off_c, 2, 59, 64
4, 17271, Note_on_c, 2, 59, 66
4, 17361, Note_off_c, 2, 59, 64
4, 17511, Note_on_c, 2, 71, 98
4, 17597, Note_off_c, 2, 71, 64
4, 17753, Note_on_c, 2, 69, 85
4, 17834, Note_off_c, 2, 69, 64
4, 17993, Note_on_c, 2, 69, 85
4, 18083, Note_off_c, 2, 69, 64
4, 18229, Note_on_c, 2, 64, 74
4, 18324, Note_off_c, 2, 64, 64
4, 18473, Note_on_c, 2, 69, 87
4, 18535, Note_off_c, 2, 69, 64
4, 18589, Note_on_c, 2, 66, 80
4, 18644, Note_off_c, 2, 66, 64
4, 18702, Note_on_c, 2, 71, 85
4, 18757, Note_off_c, 2, 71, 64
4, 18817, Note_on_c, 2, 67, 68
4, 18879, Note_off_c, 2, 67, 64
4, 18944, Note_on_c, 2, 69, 87
4, 19008, Note_off_c, 2, 69, 64
4, 19062, Note_on_c, 2, 69, 82
4, 19127, Note_off_c, 2, 69, 64
4, 19188, Note_on_c, 2, 57, 85
4, 19256, Note_off_c, 2, 57, 64
4, 19298, Note_on_c, 2, 69, 87
4, 19359, Note_off_c, 2, 69, 64
4, 19425, Note_on_c, 2, 66, 78
4, 19515, Note_off_c, 2, 66, 64
4, 19663, Note_on_c, 2, 62, 74
4, 19746, Note_off_c, 2, 62, 64
4, 19901, Note_on_c, 2, 66, 78
4, 19987, Note_off_c, 2, 66, 64
4, 20142, Note_on_c, 2, 67, 78
4, 20236, Note_off_c, 2, 67, 64
4, 20381, Note_on_c, 2, 64, 78
4, 20443, Note_off_c, 2, 64, 64
4, 20500, Note_on_c, 2, 67, 87
4, 20560, Note_off_c, 2, 67, 64
4, 20617, Note_on_c, 2, 66, 76
4, 20687, Note_off_c, 2, 66, 64
4, 20736, Note_on_c, 2, 71, 89
4, 20804, Note_off_c, 2, 71, 64
4, 20855, Note_on_c, 2, 69, 82
4, 20915, Note_off_c, 2, 69, 64
4, 20979, Note_on_c, 2, 67, 82
4, 21042, Note_off_c, 2, 67, 64
4, 21110, Note_on_c, 2, 66, 70
4, 21260, Note_off_c, 2, 66, 64
4, 21352, Note_on_c, 2, 74, 78
4, 21408, Note_off_c, 2, 74, 64
4, 21469, Note_on_c, 2, 69, 82
4, 21527, Note_off_c, 2, 69, 64
4, 21582, Note_on_c, 2, 62, 68
4, 21637, Note_off_c, 2, 62, 64
4, 21703, Note_on_c, 2, 69, 82
4, 21761, Note_off_c, 2, 69, 64
4, 21823, Note_on_c, 2, 66, 78
4, 21874, Note_off_c, 2, 66, 64
4, 21940, Note_on_c, 2, 69, 85
4, 21984, Note_off_c, 2, 69, 64
4, 22065, Note_on_c, 2, 69, 85
4, 22216, Note_off_c, 2, 69, 64
4, 22314, Note_on_c, 2, 73, 87
4, 22368, Note_off_c, 2, 73, 64
4, 22432, Note_on_c, 2, 70, 76
4, 22480, Note_off_c, 2, 70, 64
4, 22544, Note_on_c, 2, 73, 85
4, 22599, Note_off_c, 2, 73, 64
4, 22662, Note_on_c, 2, 70, 74
4, 22713, Note_off_c, 2, 70, 64
4, 22782, Note_on_c, 2, 73, 80
4, 22832, Note_off_c, 2, 73, 64
4, 22907, Note_on_c, 2, 66, 85
4, 22950, Note_off_c, 2, 66, 64
4, 23034, Note_on_c, 2, 66, 82
4, 23254, Note_off_c, 2, 66, 64
4, 23622, Note_on_c, 2, 71, 87
4, 23677, Note_on_c, 2, 67, 82
4, 23681, Note_off_c, 2, 71, 64
4, 23725, Note_off_c, 2, 67, 64
4, 23740, Note_on_c, 2, 64, 74
4, 23817, Note_off_c, 2, 64, 64
4, 24116, Note_on_c, 2, 67, 89
4, 24167, Note_off_c, 2, 67, 64
4, 24170, Note_on_c, 2, 64, 85
4, 24221, Note_off_c, 2, 64, 64
4, 24233, Note_on_c, 2, 59, 78
4, 24305, Note_off_c, 2, 59, 64
4, 24590, Note_on_c, 2, 55, 82
4, 24654, Note_off_c, 2, 55, 64
4, 24707, Note_on_c, 2, 60, 72
4, 24767, Note_off_c, 2, 60, 64
4, 24828, Note_on_c, 2, 64, 89
4, 24882, Note_off_c, 2, 64, 64
4, 24955, Note_on_c, 2, 61, 80
4, 25044, Note_off_c, 2, 61, 64
4, 25202, Note_on_c, 2, 61, 91
4, 25283, Note_off_c, 2, 61, 64
4, 25448, Note_on_c, 2, 62, 85
4, 25527, Note_off_c, 2, 62, 64
4, 25674, Note_on_c, 2, 66, 80
4, 25756, Note_off_c, 2, 66, 64
4, 25919, Note_on_c, 2, 66, 82
4, 26014, Note_off_c, 2, 66, 64
4, 26270, Note_on_c, 2, 66, 61
4, 26319, Note_on_c, 2, 71, 68
4, 26320, Note_off_c, 2, 66, 64
4, 26370, Note_off_c, 2, 71, 64
4, 26388, Note_on_c, 2, 74, 89
4, 26438, Note_off_c, 2, 74, 64
4, 26502, Note_on_c, 2, 62, 68
4, 26559, Note_off_c, 2, 62, 64
4, 26627, Note_on_c, 2, 61, 85
4, 26682, Note_off_c, 2, 61, 64
4, 26750, Note_on_c, 2, 66, 91
4, 26795, Note_off_c, 2, 66, 64
4, 26877, Note_on_c, 2, 62, 80
4, 27117, Note_off_c, 2, 62, 64
4, 27117, End_track
5, 0, Start_track
5, 0, Title_t, "Cello"
5, 0, Program_c, 3, 42
5, 0, Control_c, 3, 7, 100
5, 230, Note_on_c, 3, 47, 87
5, 289, Note_off_c, 3, 47, 64
5, 354, Note_on_c, 3, 47, 82
5, 425, Note_off_c, 3, 47, 64
5, 466, Note_on_c, 3, 50, 85
5, 519, Note_off_c, 3, 50, 64
5, 584, Note_on_c, 3, 47, 87
5, 645, Note_off_c, 3, 47, 64
5, 697, Note_on_c, 3, 54, 89
5, 751, Note_off_c, 3, 54, 64
5, 815, Note_on_c, 3, 50, 80
5, 885, Note_off_c, 3, 50, 64
5, 944, Note_on_c, 3, 59, 91
5, 1008, Note_off_c, 3, 59, 64
5, 1063, Note_on_c, 3, 54, 82
5, 1122, Note_off_c, 3, 54, 64
5, 1185, Note_on_c, 3, 50, 82
5, 1246, Note_off_c, 3, 50, 64
5, 1300, Note_on_c, 3, 47, 74
5, 1359, Note_off_c, 3, 47, 64
5, 1425, Note_on_c, 3, 52, 80
5, 1489, Note_off_c, 3, 52, 64
5, 1546, Note_on_c, 3, 49, 68
5, 1599, Note_off_c, 3, 49, 64
5, 1662, Note_on_c, 3, 54, 85
5, 1715, Note_off_c, 3, 54, 64
5, 1787, Note_on_c, 3, 42, 82
5, 1844, Note_off_c, 3, 42, 64
5, 1910, Note_on_c, 3, 47, 85
5, 1956, Note_off_c, 3, 47, 64
5, 1963, Note_on_c, 3, 49, 95
5, 2017, Note_off_c, 3, 49, 64
5, 2019, Note_on_c, 3, 50, 95
5, 2063, Note_off_c, 3, 50, 64
5, 2079, Note_on_c, 3, 49, 105
5, 2122, Note_off_c, 3, 49, 64
5, 2146, Note_on_c, 3, 47, 87
5, 2203, Note_off_c, 3, 47, 64
5, 2270, Note_on_c, 3, 47, 85
5, 2323, Note_off_c, 3, 47, 64
5, 2390, Note_on_c, 3, 50, 87
5, 2445, Note_off_c, 3, 50, 64
5, 2502, Note_on_c, 3, 47, 74
5, 2562, Note_off_c, 3, 47, 64
5, 2623, Note_on_c, 3, 54, 82
5, 2678, Note_off_c, 3, 54, 64
5, 2740, Note_on_c, 3, 50, 68
5, 2804, Note_off_c, 3, 50, 64
5, 2861, Note_on_c, 3, 59, 85
5, 2919, Note_off_c, 3, 59, 64
5, 2988, Note_on_c, 3, 54, 80
5, 3045, Note_off_c, 3, 54, 64
5, 3110, Note_on_c, 3, 59, 89
5, 3196, Note_off_c, 3, 59, 64
5, 3224, Note_on_c, 3, 62, 82
5, 3270, Note_off_c, 3, 62, 64
5, 3280, Note_on_c, 3, 59, 85
5, 3322, Note_off_c, 3, 59, 64
5, 3348, Note_on_c, 3, 56, 85
5, 3445, Note_off_c, 3, 56, 64
5, 3463, Note_on_c, 3, 59, 80
5, 3508, Note_off_c, 3, 59, 64
5, 3517, Note_on_c, 3, 56, 78
5, 3559, Note_off_c, 3, 56, 64
5, 3588, Note_on_c, 3, 52, 95
5, 3687, Note_off_c, 3, 52, 64
5, 3705, Note_on_c, 3, 56, 74
5, 3747, Note_off_c, 3, 56, 64
5, 3755, Note_on_c, 3, 52, 87
5, 3795, Note_off_c, 3, 52, 64
5, 3825, Note_on_c, 3, 57, 82
5, 3917, Note_off_c, 3, 57, 64
5, 3946, Note_on_c, 3, 61, 70
5, 3983, Note_off_c, 3, 61, 64
5, 3992, Note_on_c, 3, 57, 82
5, 4035, Note_off_c, 3, 57, 64
5, 4071, Note_on_c, 3, 62, 95
5, 4169, Note_off_c, 3, 62, 64
5, 4193, Note_on_c, 3, 66, 66
5, 4226, Note_off_c, 3, 66, 64
5, 4248, Note_on_c, 3, 62, 80
5, 4290, Note_off_c, 3, 62, 64
5, 4317, Note_on_c, 3, 59, 91
5, 4396, Note_off_c, 3, 59, 64
5, 4430, Note_on_c, 3, 62, 68
5, 4468, Note_off_c, 3, 62, 64
5, 4479, Note_on_c, 3, 59, 76
5, 4521, Note_off_c, 3, 59, 64
5, 4549, Note_on_c, 3, 56, 95
5, 4637, Note_off_c, 3, 56, 64
5, 4661, Note_on_c, 3, 59, 64
5, 4713, Note_off_c, 3, 59, 64
5, 4720, Note_on_c, 3, 56, 66
5, 4758, Note_off_c, 3, 56, 64
5, 4785, Note_on_c, 3, 61, 89
5, 4837, Note_off_c, 3, 61, 64
5, 4843, Note_on_c, 3, 62, 85
5, 4882, Note_off_c, 3, 62, 64
5, 4899, Note_on_c, 3, 61, 63
5, 4939, Note_off_c, 3, 61, 64
5, 4959, Note_on_c, 3, 59, 85
5, 5003, Note_off_c, 3, 59, 64
5, 5024, Note_on_c, 3, 57, 89
5, 5092, Note_off_c, 3, 57, 64
5, 5145, Note_on_c, 3, 54, 68
5, 5201, Note_off_c, 3, 54, 64
5, 5259, Note_on_c, 3, 59, 82
5, 5318, Note_off_c, 3, 59, 64
5, 5383, Note_on_c, 3, 56, 76
5, 5440, Note_off_c, 3, 56, 64
5, 5511, Note_on_c, 3, 61, 89
5, 5561, Note_off_c, 3, 61, 64
5, 5628, Note_on_c, 3, 49, 78
5, 5688, Note_off_c, 3, 49, 64
5, 5741, Note_on_c, 3, 54, 87
5, 5796, Note_off_c, 3, 54, 64
5, 5867, Note_on_c, 3, 42, 64
5, 5923, Note_off_c, 3, 42, 64
5, 5984, Note_on_c, 3, 54, 74
5, 6045, Note_off_c, 3, 54, 64
5, 6105, Note_on_c, 3, 57, 85
5, 6151, Note_off_c, 3, 57, 64
5, 6229, Note_on_c, 3, 50, 89
5, 6290, Note_off_c, 3, 50, 64
5, 6352, Note_on_c, 3, 59, 82
5, 6411, Note_off_c, 3, 59, 64
5, 6476, Note_on_c, 3, 49, 85
5, 6540, Note_off_c, 3, 49, 64
5, 6590, Note_on_c, 3, 61, 72
5, 6646, Note_off_c, 3, 61, 64
5, 6709, Note_on_c, 3, 47, 87
5, 6775, Note_off_c, 3, 47, 64
5, 6822, Note_on_c, 3, 62, 85
5, 6882, Note_off_c, 3, 62, 64
5, 6940, Note_on_c, 3, 59, 80
5, 7001, Note_off_c, 3, 59, 64
5, 7061, Note_on_c, 3, 56, 76
5, 7129, Note_off_c, 3, 56, 64
5, 7185, Note_on_c, 3, 57, 89
5, 7253, Note_off_c, 3, 57, 64
5, 7309, Note_on_c, 3, 59, 87
5, 7364, Note_off_c, 3, 59, 64
5, 7429, Note_on_c, 3, 61, 87
5, 7482, Note_off_c, 3, 61, 64
5, 7553, Note_on_c, 3, 49, 82
5, 7602, Note_off_c, 3, 49, 64
5, 7668, Note_on_c, 3, 54, 80
5, 7788, Note_off_c, 3, 54, 64
5, 15599, Note_on_c, 3, 42, 66
5, 15655, Note_off_c, 3, 42, 64
5, 15717, Note_on_c, 3, 42, 68
5, 15776, Note_off_c, 3, 42, 64
5, 15832, Note_on_c, 3, 45, 78
5, 15883, Note_off_c, 3, 45, 64
5, 15944, Note_on_c, 3, 42, 70
5, 15995, Note_off_c, 3, 42, 64
5, 16065, Note_on_c, 3, 49, 80
5, 16118, Note_off_c, 3, 49, 64
5, 16187, Note_on_c, 3, 45, 72
5, 16240, Note_off_c, 3, 45, 64
5, 16313, Note_on_c, 3, 54, 85
5, 16409, Note_off_c, 3, 54, 64
5, 16428, Note_on_c, 3, 57, 70
5, 16474, Note_off_c, 3, 57, 64
5, 16474, Note_on_c, 3, 54, 82
5, 16518, Note_off_c, 3, 54, 64
5, 16545, Note_on_c, 3, 51, 89
5, 16639, Note_off_c, 3, 51, 64
5, 16665, Note_on_c, 3, 54, 59
5, 16718, Note_on_c, 3, 51, 63
5, 16719, Note_off_c, 3, 54, 64
5, 16760, Note_off_c, 3, 51, 64
5, 16783, Note_on_c, 3, 47, 60
5, 16889, Note_off_c, 3, 47, 64
5, 16905, Note_on_c, 3, 47, 64
5, 17005, Note_off_c, 3, 47, 64
5, 17025, Note_on_c, 3, 47, 78
5, 17113, Note_off_c, 3, 47, 64
5, 17136, Note_on_c, 3, 47, 70
5, 17215, Note_off_c, 3, 47, 64
5, 17260, Note_on_c, 3, 52, 85
5, 17341, Note_off_c, 3, 52, 64
5, 17377, Note_on_c, 3, 59, 80
5, 17428, Note_off_c, 3, 59, 64
5, 17431, Note_on_c, 3, 55, 82
5, 17474, Note_off_c, 3, 55, 64
5, 17496, Note_on_c, 3, 52, 82
5, 17586, Note_off_c, 3, 52, 64
5, 17617, Note_on_c, 3, 55, 72
5, 17670, Note_on_c, 3, 52, 80
5, 17671, Note_off_c, 3, 55, 64
5, 17706, Note_off_c, 3, 52, 64
5, 17742, Note_on_c, 3, 49, 68
5, 17817, Note_off_c, 3, 49, 64
5, 17870, Note_on_c, 3, 45, 61
5, 17939, Note_off_c, 3, 45, 64
5, 17993, Note_on_c, 3, 52, 80
5, 18049, Note_off_c, 3, 52, 64
5, 18104, Note_on_c, 3, 49, 63
5, 18165, Note_off_c, 3, 49, 64
5, 18230, Note_on_c, 3, 55, 82
5, 18302, Note_off_c, 3, 55, 64
5, 18345, Note_on_c, 3, 52, 78
5, 18427, Note_off_c, 3, 52, 64
5, 18466, Note_on_c, 3, 54, 68
5, 18539, Note_off_c, 3, 54, 64
5, 18589, Note_on_c, 3, 59, 85
5, 18649, Note_off_c, 3, 59, 64
5, 18705, Note_on_c, 3, 55, 80
5, 18775, Note_off_c, 3, 55, 64
5, 18821, Note_on_c, 3, 52, 64
5, 18886, Note_off_c, 3, 52, 64
5, 18940, Note_on_c, 3, 57, 89
5, 19004, Note_off_c, 3, 57, 64
5, 19066, Note_on_c, 3, 45, 85
5, 19135, Note_off_c, 3, 45, 64
5, 19184, Note_on_c, 3, 50, 85
5, 19252, Note_off_c, 3, 50, 64
5, 19310, Note_on_c, 3, 38, 87
5, 19374, Note_off_c, 3, 38, 64
5, 19427, Note_on_c, 3, 48, 85
5, 19491, Note_off_c, 3, 48, 64
5, 19546, Note_on_c, 3, 54, 78
5, 19607, Note_off_c, 3, 54, 64
5, 19672, Note_on_c, 3, 47, 93
5, 19740, Note_off_c, 3, 47, 64
5, 19783, Note_on_c, 3, 55, 85
5, 19844, Note_off_c, 3, 55, 64
5, 19907, Note_on_c, 3, 45, 85
5, 19970, Note_off_c, 3, 45, 64
5, 20016, Note_on_c, 3, 57, 82
5, 20077, Note_off_c, 3, 57, 64
5, 20140, Note_on_c, 3, 43, 87
5, 20201, Note_off_c, 3, 43, 64
5, 20255, Note_on_c, 3, 59, 85
5, 20320, Note_off_c, 3, 59, 64
5, 20376, Note_on_c, 3, 55, 78
5, 20437, Note_off_c, 3, 55, 64
5, 20494, Note_on_c, 3, 52, 74
5, 20557, Note_off_c, 3, 52, 64
5, 20625, Note_on_c, 3, 54, 76
5, 20691, Note_off_c, 3, 54, 64
5, 20738, Note_on_c, 3, 55, 78
5, 20810, Note_off_c, 3, 55, 64
5, 20858, Note_on_c, 3, 57, 87
5, 20913, Note_off_c, 3, 57, 64
5, 20981, Note_on_c, 3, 45, 89
5, 21037, Note_off_c, 3, 45, 64
5, 21102, Note_on_c, 3, 50, 87
5, 21169, Note_off_c, 3, 50, 64
5, 21228, Note_on_c, 3, 45, 82
5, 21275, Note_on_c, 3, 42, 89
5, 21282, Note_off_c, 3, 45, 64
5, 21316, Note_off_c, 3, 42, 64
5, 21340, Note_on_c, 3, 38, 100
5, 21407, Note_off_c, 3, 38, 64
5, 21463, Note_on_c, 3, 62, 80
5, 21512, Note_on_c, 3, 57, 85
5, 21515, Note_off_c, 3, 62, 64
5, 21558, Note_off_c, 3, 57, 64
5, 21575, Note_on_c, 3, 54, 89
5, 21652, Note_off_c, 3, 54, 64
5, 21706, Note_on_c, 3, 57, 85
5, 21750, Note_off_c, 3, 57, 64
5, 21755, Note_on_c, 3, 54, 68
5, 21796, Note_off_c, 3, 54, 64
5, 21819, Note_on_c, 3, 50, 89
5, 21899, Note_off_c, 3, 50, 64
5, 21941, Note_on_c, 3, 54, 64
5, 21987, Note_on_c, 3, 50, 82
5, 21996, Note_off_c, 3, 54, 64
5, 22031, Note_off_c, 3, 50, 64
5, 22066, Note_on_c, 3, 57, 59
5, 22070, Note_on_c, 3, 55, 68
5, 22080, Note_off_c, 3, 55, 64
5, 22135, Note_off_c, 3, 57, 64
5, 22184, Note_on_c, 3, 52, 78
5, 22232, Note_off_c, 3, 52, 64
5, 22237, Note_on_c, 3, 49, 89
5, 22278, Note_off_c, 3, 49, 64
5, 22304, Note_on_c, 3, 46, 91
5, 22362, Note_off_c, 3, 46, 64
5, 22428, Note_on_c, 3, 64, 80
5, 22473, Note_off_c, 3, 64, 64
5, 22485, Note_on_c, 3, 61, 82
5, 22523, Note_off_c, 3, 61, 64
5, 22544, Note_on_c, 3, 58, 100
5, 22620, Note_off_c, 3, 58, 64
5, 22668, Note_on_c, 3, 61, 66
5, 22715, Note_on_c, 3, 58, 70
5, 22720, Note_off_c, 3, 61, 64
5, 22760, Note_off_c, 3, 58, 64
5, 22782, Note_on_c, 3, 54, 87
5, 22863, Note_off_c, 3, 54, 64
5, 22894, Note_on_c, 3, 58, 70
5, 22948, Note_on_c, 3, 54, 87
5, 22949, Note_off_c, 3, 58, 64
5, 22993, Note_off_c, 3, 54, 64
5, 23020, Note_on_c, 3, 59, 82
5, 23082, Note_off_c, 3, 59, 64
5, 23145, Note_on_c, 3, 54, 72
5, 23203, Note_off_c, 3, 54, 64
5, 23268, Note_on_c, 3, 50, 82
5, 23325, Note_off_c, 3, 50, 64
5, 23379, Note_on_c, 3, 47, 74
5, 23446, Note_off_c, 3, 47, 64
5, 23494, Note_on_c, 3, 52, 68
5, 23717, Note_off_c, 3, 52, 64
5, 23749, Note_on_c, 3, 52, 68
5, 23816, Note_off_c, 3, 52, 64
5, 23872, Note_on_c, 3, 40, 68
5, 23932, Note_off_c, 3, 40, 64
5, 23987, Note_on_c, 3, 52, 80
5, 24110, Note_off_c, 3, 52, 64
5, 24119, Note_on_c, 3, 52, 53
5, 24217, Note_off_c, 3, 52, 64
5, 24244, Note_on_c, 3, 52, 62
5, 24291, Note_off_c, 3, 52, 64
5, 24360, Note_on_c, 3, 40, 70
5, 24426, Note_off_c, 3, 40, 64
5, 24473, Note_on_c, 3, 52, 85
5, 24588, Note_off_c, 3, 52, 64
5, 24604, Note_on_c, 3, 52, 66
5, 24701, Note_off_c, 3, 52, 64
5, 24727, Note_on_c, 3, 52, 52
5, 24790, Note_off_c, 3, 52, 64
5, 24838, Note_on_c, 3, 40, 66
5, 24891, Note_off_c, 3, 40, 64
5, 24958, Note_on_c, 3, 52, 76
5, 25043, Note_off_c, 3, 52, 64
5, 25080, Note_on_c, 3, 64, 87
5, 25125, Note_off_c, 3, 64, 64
5, 25127, Note_on_c, 3, 61, 82
5, 25167, Note_off_c, 3, 61, 64
5, 25193, Note_on_c, 3, 58, 100
5, 25271, Note_off_c, 3, 58, 64
5, 25312, Note_on_c, 3, 61, 62
5, 25360, Note_on_c, 3, 58, 64
5, 25371, Note_off_c, 3, 61, 64
5, 25406, Note_off_c, 3, 58, 64
5, 25427, Note_on_c, 3, 54, 68
5, 25500, Note_off_c, 3, 54, 64
5, 25556, Note_on_c, 3, 54, 66
5, 25619, Note_off_c, 3, 54, 64
5, 25672, Note_on_c, 3, 54, 70
5, 25736, Note_off_c, 3, 54, 64
5, 25789, Note_on_c, 3, 54, 64
5, 25860, Note_off_c, 3, 54, 64
5, 25910, Note_on_c, 3, 59, 82
5, 26001, Note_off_c, 3, 59, 64
5, 26029, Note_on_c, 3, 62, 85
5, 26078, Note_off_c, 3, 62, 64
5, 26079, Note_on_c, 3, 59, 78
5, 26119, Note_off_c, 3, 59, 64
5, 26146, Note_on_c, 3, 54, 89
5, 26230, Note_off_c, 3, 54, 64
5, 26270, Note_on_c, 3, 59, 82
5, 26321, Note_on_c, 3, 54, 70
5, 26322, Note_off_c, 3, 59, 64
5, 26360, Note_off_c, 3, 54, 64
5, 26387, Note_on_c, 3, 50, 89
5, 26463, Note_off_c, 3, 50, 64
5, 26500, Note_on_c, 3, 47, 85
5, 26551, Note_on_c, 3, 50, 85
5, 26553, Note_off_c, 3, 47, 64
5, 26594, Note_off_c, 3, 50, 64
5, 26614, Note_on_c, 3, 54, 105
5, 26676, Note_off_c, 3, 54, 64
5, 26750, Note_on_c, 3, 42, 87
5, 26806, Note_off_c, 3, 42, 64
5, 26879, Note_on_c, 3, 47, 87
5, 27133, Note_off_c, 3, 47, 64
5, 27133, End_track
6, 0, Start_track
6, 0, Title_t, "Flute"
6, 0, Program_c, 4, 73
6, 0, Control_c, 4, 7, 127
6, 232, Note_on_c, 4, 83, 82
6, 318, Note_off_c, 4, 83, 64
6, 347, Note_on_c, 4, 86, 78
6, 389, Note_off_c, 4, 86, 64
6, 404, Note_on_c, 4, 83, 72
6, 432, Note_off_c, 4, 83, 64
6, 470, Note_on_c, 4, 78, 93
6, 569, Note_off_c, 4, 78, 64
6, 586, Note_on_c, 4, 83, 63
6, 621, Note_off_c, 4, 83, 64
6, 641, Note_on_c, 4, 78, 58
6, 672, Note_off_c, 4, 78, 64
6, 715, Note_on_c, 4, 74, 87
6, 811, Note_off_c, 4, 74, 64
6, 836, Note_on_c, 4, 78, 49
6, 864, Note_off_c, 4, 78, 64
6, 882, Note_on_c, 4, 74, 62
6, 918, Note_off_c, 4, 74, 64
6, 948, Note_on_c, 4, 71, 82
6, 1080, Note_off_c, 4, 71, 64
6, 1184, Note_on_c, 4, 66, 76
6, 1239, Note_off_c, 4, 66, 64
6, 1246, Note_on_c, 4, 71, 60
6, 1289, Note_off_c, 4, 71, 64
6, 1314, Note_on_c, 4, 74, 60
6, 1365, Note_off_c, 4, 74, 64
6, 1365, Note_on_c, 4, 71, 54
6, 1401, Note_off_c, 4, 71, 64
6, 1429, Note_on_c, 4, 73, 80
6, 1478, Note_off_c, 4, 73, 64
6, 1483, Note_on_c, 4, 71, 58
6, 1521, Note_off_c, 4, 71, 64
6, 1549, Note_on_c, 4, 73, 68
6, 1600, Note_off_c, 4, 73, 64
6, 1602, Note_on_c, 4, 71, 53
6, 1648, Note_off_c, 4, 71, 64
6, 1672, Note_on_c, 4, 70, 70
6, 1715, Note_off_c, 4, 70, 64
6, 1725, Note_on_c, 4, 73, 60
6, 1775, Note_off_c, 4, 73, 64
6, 1785, Note_on_c, 4, 76, 82
6, 1834, Note_off_c, 4, 76, 64
6, 1842, Note_on_c, 4, 73, 64
6, 1880, Note_off_c, 4, 73, 64
6, 1908, Note_on_c, 4, 74, 80
6, 1961, Note_off_c, 4, 74, 64
6, 2028, Note_on_c, 4, 71, 66
6, 2069, Note_off_c, 4, 71, 64
6, 2148, Note_on_c, 4, 83, 87
6, 2249, Note_off_c, 4, 83, 64
6, 2263, Note_on_c, 4, 86, 66
6, 2306, Note_off_c, 4, 86, 64
6, 2317, Note_on_c, 4, 83, 66
6, 2347, Note_off_c, 4, 83, 64
6, 2388, Note_on_c, 4, 78, 80
6, 2489, Note_off_c, 4, 78, 64
6, 2511, Note_on_c, 4, 83, 66
6, 2544, Note_off_c, 4, 83, 64
6, 2559, Note_on_c, 4, 78, 62
6, 2596, Note_off_c, 4, 78, 64
6, 2628, Note_on_c, 4, 74, 85
6, 2726, Note_off_c, 4, 74, 64
6, 2748, Note_on_c, 4, 78, 59
6, 2786, Note_off_c, 4, 78, 64
6, 2805, Note_on_c, 4, 74, 66
6, 2842, Note_off_c, 4, 74, 64
6, 2870, Note_on_c, 4, 71, 74
6, 3029, Note_off_c, 4, 71, 64
6, 3107, Note_on_c, 4, 74, 76
6, 3168, Note_off_c, 4, 74, 64
6, 3225, Note_on_c, 4, 74, 68
6, 3287, Note_off_c, 4, 74, 64
6, 3349, Note_on_c, 4, 74, 74
6, 3409, Note_off_c, 4, 74, 64
6, 3473, Note_on_c, 4, 74, 72
6, 3535, Note_off_c, 4, 74, 64
6, 3595, Note_on_c, 4, 83, 82
6, 3644, Note_off_c, 4, 83, 64
6, 3706, Note_on_c, 4, 74, 82
6, 3770, Note_off_c, 4, 74, 64
6, 3829, Note_on_c, 4, 76, 85
6, 3856, Note_on_c, 4, 74, 66
6, 3859, Note_off_c, 4, 76, 64
6, 3882, Note_on_c, 4, 76, 70
6, 3896, Note_off_c, 4, 74, 64
6, 3904, Note_on_c, 4, 74, 57
6, 3913, Note_off_c, 4, 76, 64
6, 3947, Note_on_c, 4, 73, 78
6, 3953, Note_off_c, 4, 74, 64
6, 4023, Note_off_c, 4, 73, 64
6, 4071, Note_on_c, 4, 78, 78
6, 4128, Note_off_c, 4, 78, 64
6, 4195, Note_on_c, 4, 78, 68
6, 4250, Note_off_c, 4, 78, 64
6, 4317, Note_on_c, 4, 78, 64
6, 4372, Note_off_c, 4, 78, 64
6, 4434, Note_on_c, 4, 78, 68
6, 4491, Note_off_c, 4, 78, 64
6, 4554, Note_on_c, 4, 86, 80
6, 4612, Note_off_c, 4, 86, 64
6, 4675, Note_on_c, 4, 78, 63
6, 4745, Note_off_c, 4, 78, 64
6, 4792, Note_on_c, 4, 80, 74
6, 4815, Note_on_c, 4, 78, 87
6, 4822, Note_off_c, 4, 80, 64
6, 4851, Note_off_c, 4, 78, 64
6, 4854, Note_on_c, 4, 80, 68
6, 4876, Note_on_c, 4, 78, 66
6, 4896, Note_off_c, 4, 80, 64
6, 4906, Note_on_c, 4, 77, 74
6, 4930, Note_off_c, 4, 78, 64
6, 4973, Note_off_c, 4, 77, 64
6, 5038, Note_on_c, 4, 73, 80
6, 5089, Note_on_c, 4, 78, 68
6, 5094, Note_off_c, 4, 73, 64
6, 5132, Note_off_c, 4, 78, 64
6, 5156, Note_on_c, 4, 81, 70
6, 5196, Note_off_c, 4, 81, 64
6, 5210, Note_on_c, 4, 78, 74
6, 5251, Note_off_c, 4, 78, 64
6, 5274, Note_on_c, 4, 80, 78
6, 5324, Note_off_c, 4, 80, 64
6, 5327, Note_on_c, 4, 78, 62
6, 5360, Note_off_c, 4, 78, 64
6, 5384, Note_on_c, 4, 80, 76
6, 5433, Note_off_c, 4, 80, 64
6, 5444, Note_on_c, 4, 78, 91
6, 5485, Note_off_c, 4, 78, 64
6, 5502, Note_on_c, 4, 77, 80
6, 5551, Note_off_c, 4, 77, 64
6, 5564, Note_on_c, 4, 80, 66
6, 5600, Note_off_c, 4, 80, 64
6, 5623, Note_on_c, 4, 83, 80
6, 5670, Note_off_c, 4, 83, 64
6, 5682, Note_on_c, 4, 80, 76
6, 5713, Note_off_c, 4, 80, 64
6, 5743, Note_on_c, 4, 81, 82
6, 5787, Note_off_c, 4, 81, 64
6, 5805, Note_on_c, 4, 80, 98
6, 5838, Note_off_c, 4, 80, 64
6, 5864, Note_on_c, 4, 81, 82
6, 5908, Note_off_c, 4, 81, 64
6, 5927, Note_on_c, 4, 80, 85
6, 5963, Note_off_c, 4, 80, 64
6, 5991, Note_on_c, 4, 78, 70
6, 6024, Note_off_c, 4, 78, 64
6, 6049, Note_on_c, 4, 81, 66
6, 6079, Note_off_c, 4, 81, 64
6, 6110, Note_on_c, 4, 78, 91
6, 6163, Note_on_c, 4, 77, 64
6, 6179, Note_off_c, 4, 78, 64
6, 6220, Note_off_c, 4, 77, 64
6, 6226, Note_on_c, 4, 78, 82
6, 6260, Note_off_c, 4, 78, 64
6, 6287, Note_on_c, 4, 83, 85
6, 6320, Note_off_c, 4, 83, 64
6, 6347, Note_on_c, 4, 78, 100
6, 6400, Note_on_c, 4, 77, 66
6, 6421, Note_off_c, 4, 78, 64
6, 6472, Note_on_c, 4, 78, 80
6, 6475, Note_off_c, 4, 77, 64
6, 6500, Note_off_c, 4, 78, 64
6, 6530, Note_on_c, 4, 85, 82
6, 6574, Note_off_c, 4, 85, 64
6, 6587, Note_on_c, 4, 78, 64
6, 6647, Note_off_c, 4, 78, 64
6, 6647, Note_on_c, 4, 77, 63
6, 6706, Note_on_c, 4, 78, 70
6, 6717, Note_off_c, 4, 77, 64
6, 6737, Note_off_c, 4, 78, 64
6, 6765, Note_on_c, 4, 86, 89
6, 6802, Note_off_c, 4, 86, 64
6, 6823, Note_on_c, 4, 78, 85
6, 6875, Note_off_c, 4, 78, 64
6, 6879, Note_on_c, 4, 77, 76
6, 6943, Note_on_c, 4, 78, 80
6, 6955, Note_off_c, 4, 77, 64
6, 6977, Note_off_c, 4, 78, 64
6, 6998, Note_on_c, 4, 86, 87
6, 7037, Note_off_c, 4, 86, 64
6, 7057, Note_on_c, 4, 85, 59
6, 7094, Note_off_c, 4, 85, 64
6, 7119, Note_on_c, 4, 83, 64
6, 7166, Note_off_c, 4, 83, 64
6, 7191, Note_on_c, 4, 85, 72
6, 7230, Note_off_c, 4, 85, 64
6, 7248, Note_on_c, 4, 81, 80
6, 7288, Note_off_c, 4, 81, 64
6, 7308, Note_on_c, 4, 80, 85
6, 7336, Note_off_c, 4, 80, 64
6, 7355, Note_on_c, 4, 78, 61
6, 7397, Note_off_c, 4, 78, 64
6, 7430, Note_on_c, 4, 81, 78
6, 7480, Note_off_c, 4, 81, 64
6, 7550, Note_on_c, 4, 81, 85
6, 7573, Note_on_c, 4, 80, 89
6, 7577, Note_off_c, 4, 81, 64
6, 7598, Note_on_c, 4, 81, 64
6, 7601, Note_off_c, 4, 80, 64
6, 7623, Note_on_c, 4, 80, 72
6, 7631, Note_off_c, 4, 81, 64
6, 7665, Note_on_c, 4, 78, 78
6, 7668, Note_off_c, 4, 80, 64
6, 7771, Note_off_c, 4, 78, 64
6, 15597, Note_on_c, 4, 78, 93
6, 15693, Note_off_c, 4, 78, 64
6, 15716, Note_on_c, 4, 81, 80
6, 15757, Note_off_c, 4, 81, 64
6, 15776, Note_on_c, 4, 78, 70
6, 15802, Note_off_c, 4, 78, 64
6, 15836, Note_on_c, 4, 73, 68
6, 15946, Note_off_c, 4, 73, 64
6, 15954, Note_on_c, 4, 78, 58
6, 15993, Note_off_c, 4, 78, 64
6, 16013, Note_on_c, 4, 73, 55
6, 16054, Note_off_c, 4, 73, 64
6, 16080, Note_on_c, 4, 69, 87
6, 16182, Note_off_c, 4, 69, 64
6, 16201, Note_on_c, 4, 73, 60
6, 16233, Note_off_c, 4, 73, 64
6, 16243, Note_on_c, 4, 69, 64
6, 16292, Note_off_c, 4, 69, 64
6, 16316, Note_on_c, 4, 66, 72
6, 16439, Note_off_c, 4, 66, 64
6, 16553, Note_on_c, 4, 72, 64
6, 16664, Note_on_c, 4, 71, 66
6, 16678, Note_off_c, 4, 72, 64
6, 16741, Note_off_c, 4, 71, 64
6, 16789, Note_on_c, 4, 76, 80
6, 16898, Note_off_c, 4, 76, 64
6, 16910, Note_on_c, 4, 75, 66
6, 16958, Note_off_c, 4, 75, 64
6, 16964, Note_on_c, 4, 78, 80
6, 17001, Note_off_c, 4, 78, 64
6, 17030, Note_on_c, 4, 81, 82
6, 17106, Note_off_c, 4, 81, 64
6, 17140, Note_on_c, 4, 79, 68
6, 17177, Note_off_c, 4, 79, 64
6, 17196, Note_on_c, 4, 78, 63
6, 17232, Note_off_c, 4, 78, 64
6, 17263, Note_on_c, 4, 79, 78
6, 17308, Note_off_c, 4, 79, 64
6, 17390, Note_on_c, 4, 76, 64
6, 17431, Note_off_c, 4, 76, 64
6, 17511, Note_on_c, 4, 79, 87
6, 17617, Note_off_c, 4, 79, 64
6, 17628, Note_on_c, 4, 83, 63
6, 17668, Note_off_c, 4, 83, 64
6, 17682, Note_on_c, 4, 79, 68
6, 17716, Note_off_c, 4, 79, 64
6, 17747, Note_on_c, 4, 76, 76
6, 17844, Note_off_c, 4, 76, 64
6, 17870, Note_on_c, 4, 79, 68
6, 17908, Note_off_c, 4, 79, 64
6, 17925, Note_on_c, 4, 76, 68
6, 17959, Note_off_c, 4, 76, 64
6, 17990, Note_on_c, 4, 73, 76
6, 18091, Note_off_c, 4, 73, 64
6, 18112, Note_on_c, 4, 76, 64
6, 18152, Note_off_c, 4, 76, 64
6, 18164, Note_on_c, 4, 73, 48
6, 18200, Note_off_c, 4, 73, 64
6, 18231, Note_on_c, 4, 69, 70
6, 18472, Note_off_c, 4, 69, 64
6, 18525, Note_on_c, 4, 74, 68
6, 18568, Note_off_c, 4, 74, 64
6, 18583, Note_on_c, 4, 78, 63
6, 18613, Note_off_c, 4, 78, 64
6, 18641, Note_on_c, 4, 74, 68
6, 18679, Note_off_c, 4, 74, 64
6, 18704, Note_on_c, 4, 76, 82
6, 18763, Note_off_c, 4, 76, 64
6, 18766, Note_on_c, 4, 74, 66
6, 18804, Note_off_c, 4, 74, 64
6, 18830, Note_on_c, 4, 76, 72
6, 18881, Note_on_c, 4, 74, 82
6, 18884, Note_off_c, 4, 76, 64
6, 18933, Note_off_c, 4, 74, 64
6, 18948, Note_on_c, 4, 73, 78
6, 18996, Note_off_c, 4, 73, 64
6, 19003, Note_on_c, 4, 76, 64
6, 19060, Note_off_c, 4, 76, 64
6, 19066, Note_on_c, 4, 79, 80
6, 19111, Note_off_c, 4, 79, 64
6, 19121, Note_on_c, 4, 76, 76
6, 19168, Note_off_c, 4, 76, 64
6, 19183, Note_on_c, 4, 78, 70
6, 19224, Note_off_c, 4, 78, 64
6, 19238, Note_on_c, 4, 76, 68
6, 19282, Note_off_c, 4, 76, 64
6, 19299, Note_on_c, 4, 78, 80
6, 19348, Note_off_c, 4, 78, 64
6, 19362, Note_on_c, 4, 76, 64
6, 19400, Note_off_c, 4, 76, 64
6, 19421, Note_on_c, 4, 74, 72
6, 19466, Note_off_c, 4, 74, 64
6, 19477, Note_on_c, 4, 78, 68
6, 19508, Note_off_c, 4, 78, 64
6, 19533, Note_on_c, 4, 74, 68
6, 19594, Note_on_c, 4, 73, 62
6, 19606, Note_off_c, 4, 74, 64
6, 19659, Note_on_c, 4, 74, 80
6, 19664, Note_off_c, 4, 73, 64
6, 19693, Note_off_c, 4, 74, 64
6, 19719, Note_on_c, 4, 79, 87
6, 19776, Note_on_c, 4, 74, 72
6, 19781, Note_off_c, 4, 79, 64
6, 19840, Note_on_c, 4, 73, 58
6, 19849, Note_off_c, 4, 74, 64
6, 19901, Note_on_c, 4, 74, 82
6, 19904, Note_off_c, 4, 73, 64
6, 19934, Note_off_c, 4, 74, 64
6, 19958, Note_on_c, 4, 81, 87
6, 20007, Note_off_c, 4, 81, 64
6, 20019, Note_on_c, 4, 74, 80
6, 20078, Note_on_c, 4, 73, 64
6, 20084, Note_off_c, 4, 74, 64
6, 20139, Note_on_c, 4, 74, 70
6, 20142, Note_off_c, 4, 73, 64
6, 20173, Note_off_c, 4, 74, 64
6, 20198, Note_on_c, 4, 83, 80
6, 20246, Note_off_c, 4, 83, 64
6, 20262, Note_on_c, 4, 74, 66
6, 20316, Note_off_c, 4, 74, 64
6, 20323, Note_on_c, 4, 73, 61
6, 20385, Note_off_c, 4, 73, 64
6, 20386, Note_on_c, 4, 74, 78
6, 20421, Note_off_c, 4, 74, 64
6, 20447, Note_on_c, 4, 83, 78
6, 20487, Note_off_c, 4, 83, 64
6, 20507, Note_on_c, 4, 81, 72
6, 20558, Note_off_c, 4, 81, 64
6, 20570, Note_on_c, 4, 79, 64
6, 20602, Note_off_c, 4, 79, 64
6, 20630, Note_on_c, 4, 81, 85
6, 20677, Note_off_c, 4, 81, 64
6, 20686, Note_on_c, 4, 78, 64
6, 20731, Note_off_c, 4, 78, 64
6, 20746, Note_on_c, 4, 76, 72
6, 20790, Note_off_c, 4, 76, 64
6, 20797, Note_on_c, 4, 74, 70
6, 20845, Note_off_c, 4, 74, 64
6, 20867, Note_on_c, 4, 78, 85
6, 20935, Note_off_c, 4, 78, 64
6, 20980, Note_on_c, 4, 78, 87
6, 21006, Note_on_c, 4, 76, 78
6, 21009, Note_off_c, 4, 78, 64
6, 21038, Note_off_c, 4, 76, 64
6, 21038, Note_on_c, 4, 78, 63
6, 21063, Note_on_c, 4, 76, 80
6, 21076, Note_off_c, 4, 78, 64
6, 21101, Note_off_c, 4, 76, 64
6, 21102, Note_on_c, 4, 74, 68
6, 21249, Note_off_c, 4, 74, 64
6, 21349, Note_on_c, 4, 78, 66
6, 21398, Note_off_c, 4, 78, 64
6, 21467, Note_on_c, 4, 78, 68
6, 21520, Note_off_c, 4, 78, 64
6, 21591, Note_on_c, 4, 78, 64
6, 21639, Note_off_c, 4, 78, 64
6, 21710, Note_on_c, 4, 78, 63
6, 21762, Note_off_c, 4, 78, 64
6, 21832, Note_on_c, 4, 86, 82
6, 21878, Note_off_c, 4, 86, 64
6, 21947, Note_on_c, 4, 78, 64
6, 22011, Note_off_c, 4, 78, 64
6, 22072, Note_on_c, 4, 79, 87
6, 22104, Note_on_c, 4, 78, 66
6, 22105, Note_off_c, 4, 79, 64
6, 22131, Note_on_c, 4, 79, 70
6, 22136, Note_off_c, 4, 78, 64
6, 22156, Note_on_c, 4, 78, 60
6, 22165, Note_off_c, 4, 79, 64
6, 22188, Note_on_c, 4, 76, 60
6, 22201, Note_off_c, 4, 78, 64
6, 22258, Note_off_c, 4, 76, 64
6, 22313, Note_on_c, 4, 76, 78
6, 22372, Note_off_c, 4, 76, 64
6, 22437, Note_on_c, 4, 76, 70
6, 22493, Note_off_c, 4, 76, 64
6, 22551, Note_on_c, 4, 76, 66
6, 22610, Note_off_c, 4, 76, 64
6, 22671, Note_on_c, 4, 76, 66
6, 22735, Note_off_c, 4, 76, 64
6, 22788, Note_on_c, 4, 85, 68
6, 22834, Note_off_c, 4, 85, 64
6, 22904, Note_on_c, 4, 76, 78
6, 22965, Note_off_c, 4, 76, 64
6, 23015, Note_on_c, 4, 78, 80
6, 23043, Note_on_c, 4, 76, 58
6, 23046, Note_off_c, 4, 78, 64
6, 23071, Note_on_c, 4, 78, 61
6, 23075, Note_off_c, 4, 76, 64
6, 23099, Note_on_c, 4, 76, 72
6, 23115, Note_off_c, 4, 78, 64
6, 23134, Note_on_c, 4, 74, 64
6, 23141, Note_off_c, 4, 76, 64
6, 23205, Note_off_c, 4, 74, 64
6, 23264, Note_on_c, 4, 83, 85
6, 23320, Note_off_c, 4, 83, 64
6, 23377, Note_on_c, 4, 86, 80
6, 23416, Note_off_c, 4, 86, 64
6, 23435, Note_on_c, 4, 83, 80
6, 23467, Note_off_c, 4, 83, 64
6, 23494, Note_on_c, 4, 81, 82
6, 23613, Note_on_c, 4, 79, 60
6, 23618, Note_off_c, 4, 81, 64
6, 23777, Note_off_c, 4, 79, 64
6, 23865, Note_on_c, 4, 83, 63
6, 23890, Note_on_c, 4, 81, 74
6, 23919, Note_off_c, 4, 83, 64
6, 23924, Note_on_c, 4, 79, 60
6, 23941, Note_on_c, 4, 78, 78
6, 23948, Note_off_c, 4, 81, 64
6, 23956, Note_off_c, 4, 79, 64
6, 23990, Note_off_c, 4, 78, 64
6, 23991, Note_on_c, 4, 76, 85
6, 24267, Note_off_c, 4, 76, 64
6, 24346, Note_on_c, 4, 79, 72
6, 24374, Note_on_c, 4, 78, 53
6, 24403, Note_off_c, 4, 79, 64
6, 24403, Note_on_c, 4, 76, 64
6, 24423, Note_off_c, 4, 78, 64
6, 24430, Note_on_c, 4, 74, 74
6, 24439, Note_off_c, 4, 76, 64
6, 24474, Note_on_c, 4, 72, 78
6, 24475, Note_off_c, 4, 74, 64
6, 24519, Note_off_c, 4, 72, 64
6, 24531, Note_on_c, 4, 76, 70
6, 24577, Note_off_c, 4, 76, 64
6, 24582, Note_on_c, 4, 79, 74
6, 24630, Note_off_c, 4, 79, 64
6, 24639, Note_on_c, 4, 76, 61
6, 24670, Note_off_c, 4, 76, 64
6, 24698, Note_on_c, 4, 72, 78
6, 24750, Note_on_c, 4, 71, 72
6, 24757, Note_off_c, 4, 72, 64
6, 24784, Note_off_c, 4, 71, 64
6, 24815, Note_on_c, 4, 72, 68
6, 24872, Note_on_c, 4, 71, 70
6, 24877, Note_off_c, 4, 72, 64
6, 24903, Note_off_c, 4, 71, 64
6, 24944, Note_on_c, 4, 70, 85
6, 24993, Note_off_c, 4, 70, 64
6, 25064, Note_on_c, 4, 66, 63
6, 25118, Note_off_c, 4, 66, 64
6, 25188, Note_on_c, 4, 67, 87
6, 25299, Note_off_c, 4, 67, 64
6, 25313, Note_on_c, 4, 66, 63
6, 25357, Note_off_c, 4, 66, 64
6, 25425, Note_on_c, 4, 71, 76
6, 25516, Note_off_c, 4, 71, 64
6, 25540, Note_on_c, 4, 70, 66
6, 25588, Note_off_c, 4, 70, 64
6, 25600, Note_on_c, 4, 73, 78
6, 25641, Note_off_c, 4, 73, 64
6, 25663, Note_on_c, 4, 76, 89
6, 25761, Note_off_c, 4, 76, 64
6, 25783, Note_on_c, 4, 74, 72
6, 25826, Note_off_c, 4, 74, 64
6, 25836, Note_on_c, 4, 73, 61
6, 25876, Note_off_c, 4, 73, 64
6, 25902, Note_on_c, 4, 74, 82
6, 25991, Note_off_c, 4, 74, 64
6, 26023, Note_on_c, 4, 71, 68
6, 26049, Note_on_c, 4, 73, 59
6, 26070, Note_on_c, 4, 74, 68
6, 26076, Note_off_c, 4, 71, 64
6, 26098, Note_off_c, 4, 73, 64
6, 26101, Note_on_c, 4, 76, 66
6, 26118, Note_off_c, 4, 74, 64
6, 26141, Note_on_c, 4, 78, 82
6, 26151, Note_off_c, 4, 76, 64
6, 26202, Note_off_c, 4, 78, 64
6, 26265, Note_on_c, 4, 74, 80
6, 26312, Note_off_c, 4, 74, 64
6, 26318, Note_on_c, 4, 78, 68
6, 26360, Note_off_c, 4, 78, 64
6, 26383, Note_on_c, 4, 83, 89
6, 26432, Note_off_c, 4, 83, 64
6, 26506, Note_on_c, 4, 78, 70
6, 26541, Note_off_c, 4, 78, 64
6, 26630, Note_on_c, 4, 76, 78
6, 26670, Note_off_c, 4, 76, 64
6, 26676, Note_on_c, 4, 74, 62
6, 26732, Note_off_c, 4, 74, 64
6, 26743, Note_on_c, 4, 73, 64
6, 26787, Note_off_c, 4, 73, 64
6, 26801, Note_on_c, 4, 74, 87
6, 26827, Note_off_c, 4, 74, 64
6, 26870, Note_on_c, 4, 73, 87
6, 26986, Note_on_c, 4, 71, 64
6, 26997, Note_off_c, 4, 73, 64
6, 27021, Note_off_c, 4, 71, 64
6, 27021, End_track
7, 0, Start_track
7, 0, Title_t, "Violin1"
7, 0, Program_c, 0, 40
7, 0, Control_c, 0, 7, 100
7, 7919, Note_on_c, 0, 83, 82
7, 7986, Note_off_c, 0, 83, 64
7, 8154, Note_on_c, 0, 78, 70
7, 8226, Note_off_c, 0, 78, 64
7, 8375, Note_on_c, 0, 74, 82
7, 8451, Note_off_c, 0, 74, 64
7, 8622, Note_on_c, 0, 71, 74
7, 8709, Note_off_c, 0, 71, 64
7, 8871, Note_on_c, 0, 71, 80
7, 8920, Note_off_c, 0, 71, 64
7, 8986, Note_on_c, 0, 74, 80
7, 9038, Note_off_c, 0, 74, 64
7, 9103, Note_on_c, 0, 73, 78
7, 9159, Note_off_c, 0, 73, 64
7, 9227, Note_on_c, 0, 73, 78
7, 9283, Note_off_c, 0, 73, 64
7, 9341, Note_on_c, 0, 73, 76
7, 9402, Note_off_c, 0, 73, 64
7, 9465, Note_on_c, 0, 76, 82
7, 9514, Note_off_c, 0, 76, 64
7, 9590, Note_on_c, 0, 74, 85
7, 9638, Note_off_c, 0, 74, 64
7, 9711, Note_on_c, 0, 71, 78
7, 9769, Note_off_c, 0, 71, 64
7, 9835, Note_on_c, 0, 83, 87
7, 9899, Note_off_c, 0, 83, 64
7, 10071, Note_on_c, 0, 78, 82
7, 10133, Note_off_c, 0, 78, 64
7, 10303, Note_on_c, 0, 74, 85
7, 10370, Note_off_c, 0, 74, 64
7, 10542, Note_on_c, 0, 71, 82
7, 10606, Note_off_c, 0, 71, 64
7, 10791, Note_on_c, 0, 74, 82
7, 10843, Note_on_c, 0, 73, 64
7, 10848, Note_off_c, 0, 74, 64
7, 10897, Note_off_c, 0, 73, 64
7, 10901, Note_on_c, 0, 74, 70
7, 11052, Note_off_c, 0, 74, 64
7, 11081, Note_on_c, 0, 73, 78
7, 11130, Note_off_c, 0, 73, 64
7, 11141, Note_on_c, 0, 74, 70
7, 11290, Note_off_c, 0, 74, 64
7, 11323, Note_on_c, 0, 83, 82
7, 11361, Note_off_c, 0, 83, 64
7, 11382, Note_on_c, 0, 74, 85
7, 11476, Note_off_c, 0, 74, 64
7, 11506, Note_on_c, 0, 76, 85
7, 11539, Note_off_c, 0, 76, 64
7, 11540, Note_on_c, 0, 74, 87
7, 11566, Note_on_c, 0, 76, 70
7, 11571, Note_off_c, 0, 74, 64
7, 11589, Note_on_c, 0, 74, 82
7, 11594, Note_off_c, 0, 76, 64
7, 11629, Note_on_c, 0, 73, 78
7, 11633, Note_off_c, 0, 74, 64
7, 11709, Note_off_c, 0, 73, 64
7, 11746, Note_on_c, 0, 78, 63
7, 11797, Note_off_c, 0, 78, 64
7, 11797, Note_on_c, 0, 77, 66
7, 11854, Note_off_c, 0, 77, 64
7, 11866, Note_on_c, 0, 78, 68
7, 12015, Note_off_c, 0, 78, 64
7, 12036, Note_on_c, 0, 77, 82
7, 12079, Note_off_c, 0, 77, 64
7, 12101, Note_on_c, 0, 78, 85
7, 12249, Note_off_c, 0, 78, 64
7, 12275, Note_on_c, 0, 86, 85
7, 12319, Note_off_c, 0, 86, 64
7, 12336, Note_on_c, 0, 78, 87
7, 12420, Note_off_c, 0, 78, 64
7, 12459, Note_on_c, 0, 80, 78
7, 12481, Note_on_c, 0, 78, 66
7, 12486, Note_off_c, 0, 80, 64
7, 12513, Note_off_c, 0, 78, 64
7, 12516, Note_on_c, 0, 80, 68
7, 12540, Note_on_c, 0, 78, 70
7, 12557, Note_off_c, 0, 80, 64
7, 12568, Note_on_c, 0, 77, 80
7, 12586, Note_off_c, 0, 78, 64
7, 12655, Note_off_c, 0, 77, 64
7, 12701, Note_on_c, 0, 78, 68
7, 12760, Note_off_c, 0, 78, 64
7, 12825, Note_on_c, 0, 81, 82
7, 12881, Note_off_c, 0, 81, 64
7, 12946, Note_on_c, 0, 80, 74
7, 13004, Note_off_c, 0, 80, 64
7, 13065, Note_on_c, 0, 80, 72
7, 13126, Note_off_c, 0, 80, 64
7, 13183, Note_on_c, 0, 80, 78
7, 13236, Note_off_c, 0, 80, 64
7, 13301, Note_on_c, 0, 83, 70
7, 13354, Note_off_c, 0, 83, 64
7, 13422, Note_on_c, 0, 81, 82
7, 13479, Note_off_c, 0, 81, 64
7, 13540, Note_on_c, 0, 78, 82
7, 13588, Note_on_c, 0, 77, 80
7, 13602, Note_off_c, 0, 78, 64
7, 13642, Note_off_c, 0, 77, 64
7, 13656, Note_on_c, 0, 78, 87
7, 13714, Note_off_c, 0, 78, 64
7, 13780, Note_on_c, 0, 73, 59
7, 13838, Note_off_c, 0, 73, 64
7, 13905, Note_on_c, 0, 78, 78
7, 13957, Note_off_c, 0, 78, 64
7, 14027, Note_on_c, 0, 71, 74
7, 14086, Note_off_c, 0, 71, 64
7, 14146, Note_on_c, 0, 78, 70
7, 14198, Note_off_c, 0, 78, 64
7, 14268, Note_on_c, 0, 69, 78
7, 14323, Note_off_c, 0, 69, 64
7, 14391, Note_on_c, 0, 78, 87
7, 14444, Note_off_c, 0, 78, 64
7, 14509, Note_on_c, 0, 68, 85
7, 14554, Note_off_c, 0, 68, 64
7, 14630, Note_on_c, 0, 78, 82
7, 14685, Note_off_c, 0, 78, 64
7, 14745, Note_on_c, 0, 77, 82
7, 14808, Note_off_c, 0, 77, 64
7, 14856, Note_on_c, 0, 78, 78
7, 14912, Note_off_c, 0, 78, 64
7, 14981, Note_on_c, 0, 80, 87
7, 15039, Note_off_c, 0, 80, 64
7, 15104, Note_on_c, 0, 73, 72
7, 15165, Note_off_c, 0, 73, 64
7, 15227, Note_on_c, 0, 77, 87
7, 15280, Note_off_c, 0, 77, 64
7, 15352, Note_on_c, 0, 78, 87
7, 15478, Note_off_c, 0, 78, 64
7, 27109, Note_on_c, 0, 78, 76
7, 27184, Note_off_c, 0, 78, 64
7, 27347, Note_on_c, 0, 73, 76
7, 27420, Note_off_c, 0, 73, 64
7, 27584, Note_on_c, 0, 69, 78
7, 27672, Note_off_c, 0, 69, 64
7, 27830, Note_on_c, 0, 66, 68
7, 27918, Note_off_c, 0, 66, 64
7, 28078, Note_on_c, 0, 69, 85
7, 28155, Note_off_c, 0, 69, 64
7, 28316, Note_on_c, 0, 67, 80
7, 28401, Note_off_c, 0, 67, 64
7, 28555, Note_on_c, 0, 66, 66
7, 28642, Note_off_c, 0, 66, 64
7, 28781, Note_on_c, 0, 64, 62
7, 28880, Note_off_c, 0, 64, 64
7, 29028, Note_on_c, 0, 79, 93
7, 29118, Note_off_c, 0, 79, 64
7, 29266, Note_on_c, 0, 79, 85
7, 29351, Note_off_c, 0, 79, 64
7, 29502, Note_on_c, 0, 76, 82
7, 29591, Note_off_c, 0, 76, 64
7, 29752, Note_on_c, 0, 73, 62
7, 29846, Note_off_c, 0, 73, 64
7, 29990, Note_on_c, 0, 74, 80
7, 30049, Note_off_c, 0, 74, 64
7, 30105, Note_on_c, 0, 78, 68
7, 30164, Note_off_c, 0, 78, 64
7, 30224, Note_on_c, 0, 76, 82
7, 30287, Note_off_c, 0, 76, 64
7, 30346, Note_on_c, 0, 76, 78
7, 30405, Note_off_c, 0, 76, 64
7, 30466, Note_on_c, 0, 76, 80
7, 30529, Note_off_c, 0, 76, 64
7, 30586, Note_on_c, 0, 79, 80
7, 30646, Note_off_c, 0, 79, 64
7, 30714, Note_on_c, 0, 78, 80
7, 30776, Note_off_c, 0, 78, 64
7, 30826, Note_on_c, 0, 74, 78
7, 30877, Note_on_c, 0, 73, 63
7, 30886, Note_off_c, 0, 74, 64
7, 30927, Note_off_c, 0, 73, 64
7, 30946, Note_on_c, 0, 74, 85
7, 30998, Note_off_c, 0, 74, 64
7, 31068, Note_on_c, 0, 69, 68
7, 31121, Note_off_c, 0, 69, 64
7, 31185, Note_on_c, 0, 74, 74
7, 31238, Note_off_c, 0, 74, 64
7, 31301, Note_on_c, 0, 67, 63
7, 31362, Note_off_c, 0, 67, 64
7, 31422, Note_on_c, 0, 74, 85
7, 31473, Note_off_c, 0, 74, 64
7, 31543, Note_on_c, 0, 66, 66
7, 31595, Note_off_c, 0, 66, 64
7, 31660, Note_on_c, 0, 74, 80
7, 31712, Note_off_c, 0, 74, 64
7, 31780, Note_on_c, 0, 64, 72
7, 31837, Note_off_c, 0, 64, 64
7, 31897, Note_on_c, 0, 74, 82
7, 31949, Note_off_c, 0, 74, 64
7, 32022, Note_on_c, 0, 73, 68
7, 32083, Note_off_c, 0, 73, 64
7, 32139, Note_on_c, 0, 74, 82
7, 32200, Note_off_c, 0, 74, 64
7, 32259, Note_on_c, 0, 76, 85
7, 32329, Note_off_c, 0, 76, 64
7, 32381, Note_on_c, 0, 69, 80
7, 32438, Note_off_c, 0, 69, 64
7, 32504, Note_on_c, 0, 73, 70
7, 32548, Note_off_c, 0, 73, 64
7, 32627, Note_on_c, 0, 74, 82
7, 32752, Note_off_c, 0, 74, 64
7, 32870, Note_on_c, 0, 78, 93
7, 32920, Note_on_c, 0, 76, 85
7, 32927, Note_off_c, 0, 78, 64
7, 32972, Note_off_c, 0, 76, 64
7, 32982, Note_on_c, 0, 78, 87
7, 33136, Note_off_c, 0, 78, 64
7, 33160, Note_on_c, 0, 76, 72
7, 33199, Note_off_c, 0, 76, 64
7, 33226, Note_on_c, 0, 78, 85
7, 33378, Note_off_c, 0, 78, 64
7, 33397, Note_on_c, 0, 86, 85
7, 33443, Note_off_c, 0, 86, 64
7, 33457, Note_on_c, 0, 78, 85
7, 33553, Note_off_c, 0, 78, 64
7, 33585, Note_on_c, 0, 79, 72
7, 33614, Note_on_c, 0, 78, 91
7, 33621, Note_off_c, 0, 79, 64
7, 33646, Note_off_c, 0, 78, 64
7, 33647, Note_on_c, 0, 79, 68
7, 33675, Note_on_c, 0, 78, 64
7, 33694, Note_off_c, 0, 79, 64
7, 33705, Note_on_c, 0, 76, 80
7, 33722, Note_off_c, 0, 78, 64
7, 33795, Note_off_c, 0, 76, 64
7, 33827, Note_on_c, 0, 76, 82
7, 33880, Note_on_c, 0, 74, 82
7, 33881, Note_off_c, 0, 76, 64
7, 33929, Note_off_c, 0, 74, 64
7, 33946, Note_on_c, 0, 76, 87
7, 34100, Note_off_c, 0, 76, 64
7, 34120, Note_on_c, 0, 74, 80
7, 34164, Note_off_c, 0, 74, 64
7, 34186, Note_on_c, 0, 76, 85
7, 34334, Note_off_c, 0, 76, 64
7, 34365, Note_on_c, 0, 85, 85
7, 34400, Note_off_c, 0, 85, 64
7, 34421, Note_on_c, 0, 76, 72
7, 34508, Note_off_c, 0, 76, 64
7, 34537, Note_on_c, 0, 78, 85
7, 34559, Note_on_c, 0, 76, 66
7, 34565, Note_off_c, 0, 78, 64
7, 34589, Note_on_c, 0, 78, 72
7, 34592, Note_off_c, 0, 76, 64
7, 34612, Note_on_c, 0, 76, 76
7, 34632, Note_off_c, 0, 78, 64
7, 34647, Note_on_c, 0, 74, 78
7, 34659, Note_off_c, 0, 76, 64
7, 34756, Note_off_c, 0, 74, 64
7, 35140, Note_on_c, 0, 79, 91
7, 35191, Note_off_c, 0, 79, 64
7, 35199, Note_on_c, 0, 76, 82
7, 35246, Note_off_c, 0, 76, 64
7, 35262, Note_on_c, 0, 71, 68
7, 35339, Note_off_c, 0, 71, 64
7, 35637, Note_on_c, 0, 76, 87
7, 35681, Note_off_c, 0, 76, 64
7, 35694, Note_on_c, 0, 71, 78
7, 35743, Note_off_c, 0, 71, 64
7, 35759, Note_on_c, 0, 67, 64
7, 35846, Note_off_c, 0, 67, 64
7, 36108, Note_on_c, 0, 72, 78
7, 36158, Note_off_c, 0, 72, 64
7, 36221, Note_on_c, 0, 76, 80
7, 36274, Note_off_c, 0, 76, 64
7, 36345, Note_on_c, 0, 79, 91
7, 36391, Note_off_c, 0, 79, 64
7, 36464, Note_on_c, 0, 79, 89
7, 36591, Note_on_c, 0, 78, 60
7, 36596, Note_off_c, 0, 79, 64
7, 36650, Note_off_c, 0, 78, 64
7, 36717, Note_on_c, 0, 76, 76
7, 36793, Note_off_c, 0, 76, 64
7, 36954, Note_on_c, 0, 74, 80
7, 37029, Note_off_c, 0, 74, 64
7, 37182, Note_on_c, 0, 73, 63
7, 37258, Note_off_c, 0, 73, 64
7, 37427, Note_on_c, 0, 71, 82
7, 37499, Note_off_c, 0, 71, 64
7, 37551, Note_on_c, 0, 66, 78
7, 37608, Note_on_c, 0, 71, 85
7, 37613, Note_off_c, 0, 66, 64
7, 37651, Note_off_c, 0, 71, 64
7, 37672, Note_on_c, 0, 74, 85
7, 37707, Note_off_c, 0, 74, 64
7, 37725, Note_on_c, 0, 71, 89
7, 37767, Note_off_c, 0, 71, 64
7, 37787, Note_on_c, 0, 74, 85
7, 37828, Note_off_c, 0, 74, 64
7, 37841, Note_on_c, 0, 78, 87
7, 37887, Note_off_c, 0, 78, 64
7, 37905, Note_on_c, 0, 83, 85
7, 37974, Note_off_c, 0, 83, 64
7, 38025, Note_on_c, 0, 78, 72
7, 38073, Note_off_c, 0, 78, 64
7, 38151, Note_on_c, 0, 76, 82
7, 38196, Note_off_c, 0, 76, 64
7, 38202, Note_on_c, 0, 74, 70
7, 38260, Note_off_c, 0, 74, 64
7, 38263, Note_on_c, 0, 73, 76
7, 38300, Note_off_c, 0, 73, 64
7, 38317, Note_on_c, 0, 74, 95
7, 38353, Note_off_c, 0, 74, 64
7, 38386, Note_on_c, 0, 73, 102
7, 38504, Note_on_c, 0, 71, 68
7, 38510, Note_off_c, 0, 73, 64
7, 38644, Note_off_c, 0, 71, 64
7, 38644, End_track
8, 0, Start_track
8, 0, Title_t, "Violin2"
8, 0, Program_c, 1, 40
8, 0, Control_c, 1, 7, 100
8, 7915, Note_on_c, 1, 78, 85
8, 7999, Note_off_c, 1, 78, 64
8, 8152, Note_on_c, 1, 74, 85
8, 8227, Note_off_c, 1, 74, 64
8, 8384, Note_on_c, 1, 71, 80
8, 8465, Note_off_c, 1, 71, 64
8, 8630, Note_on_c, 1, 66, 70
8, 8719, Note_off_c, 1, 66, 64
8, 8870, Note_on_c, 1, 66, 78
8, 8934, Note_off_c, 1, 66, 64
8, 8982, Note_on_c, 1, 71, 82
8, 9045, Note_off_c, 1, 71, 64
8, 9102, Note_on_c, 1, 71, 74
8, 9176, Note_off_c, 1, 71, 64
8, 9223, Note_on_c, 1, 71, 82
8, 9294, Note_off_c, 1, 71, 64
8, 9350, Note_on_c, 1, 70, 85
8, 9426, Note_off_c, 1, 70, 64
8, 9469, Note_on_c, 1, 70, 72
8, 9546, Note_off_c, 1, 70, 64
8, 9586, Note_on_c, 1, 71, 82
8, 9650, Note_off_c, 1, 71, 64
8, 9713, Note_on_c, 1, 66, 74
8, 9782, Note_off_c, 1, 66, 64
8, 9833, Note_on_c, 1, 78, 74
8, 9905, Note_off_c, 1, 78, 64
8, 10071, Note_on_c, 1, 74, 89
8, 10148, Note_off_c, 1, 74, 64
8, 10306, Note_on_c, 1, 71, 85
8, 10385, Note_off_c, 1, 71, 64
8, 10550, Note_on_c, 1, 66, 70
8, 10628, Note_off_c, 1, 66, 64
8, 10783, Note_on_c, 1, 66, 72
8, 10844, Note_off_c, 1, 66, 64
8, 10906, Note_on_c, 1, 71, 80
8, 10959, Note_off_c, 1, 71, 64
8, 11028, Note_on_c, 1, 64, 82
8, 11090, Note_off_c, 1, 64, 64
8, 11147, Note_on_c, 1, 71, 87
8, 11210, Note_off_c, 1, 71, 64
8, 11266, Note_on_c, 1, 68, 82
8, 11332, Note_off_c, 1, 68, 64
8, 11390, Note_on_c, 1, 71, 87
8, 11443, Note_off_c, 1, 71, 64
8, 11500, Note_on_c, 1, 69, 85
8, 11565, Note_off_c, 1, 69, 64
8, 11623, Note_on_c, 1, 64, 80
8, 11681, Note_off_c, 1, 64, 64
8, 11740, Note_on_c, 1, 69, 82
8, 11804, Note_off_c, 1, 69, 64
8, 11864, Note_on_c, 1, 74, 89
8, 11924, Note_off_c, 1, 74, 64
8, 11982, Note_on_c, 1, 68, 76
8, 12055, Note_off_c, 1, 68, 64
8, 12101, Note_on_c, 1, 74, 85
8, 12158, Note_off_c, 1, 74, 64
8, 12222, Note_on_c, 1, 71, 80
8, 12284, Note_off_c, 1, 71, 64
8, 12340, Note_on_c, 1, 74, 82
8, 12406, Note_off_c, 1, 74, 64
8, 12462, Note_on_c, 1, 73, 80
8, 12523, Note_off_c, 1, 73, 64
8, 12579, Note_on_c, 1, 68, 68
8, 12641, Note_off_c, 1, 68, 64
8, 12702, Note_on_c, 1, 73, 78
8, 12766, Note_off_c, 1, 73, 64
8, 12821, Note_on_c, 1, 78, 64
8, 12879, Note_off_c, 1, 78, 64
8, 12948, Note_on_c, 1, 78, 74
8, 13017, Note_off_c, 1, 78, 64
8, 13069, Note_on_c, 1, 78, 72
8, 13129, Note_off_c, 1, 78, 64
8, 13187, Note_on_c, 1, 77, 85
8, 13249, Note_off_c, 1, 77, 64
8, 13304, Note_on_c, 1, 77, 82
8, 13368, Note_off_c, 1, 77, 64
8, 13422, Note_on_c, 1, 78, 82
8, 13480, Note_off_c, 1, 78, 64
8, 13540, Note_on_c, 1, 69, 68
8, 13606, Note_off_c, 1, 69, 64
8, 13666, Note_on_c, 1, 73, 76
8, 13735, Note_off_c, 1, 73, 64
8, 13910, Note_on_c, 1, 71, 87
8, 13986, Note_off_c, 1, 71, 64
8, 14149, Note_on_c, 1, 69, 87
8, 14228, Note_off_c, 1, 69, 64
8, 14394, Note_on_c, 1, 68, 85
8, 14473, Note_off_c, 1, 68, 64
8, 14632, Note_on_c, 1, 71, 85
8, 14691, Note_off_c, 1, 71, 64
8, 14749, Note_on_c, 1, 74, 82
8, 14813, Note_off_c, 1, 74, 64
8, 14865, Note_on_c, 1, 73, 70
8, 14930, Note_off_c, 1, 73, 64
8, 14984, Note_on_c, 1, 71, 78
8, 15046, Note_off_c, 1, 71, 64
8, 15102, Note_on_c, 1, 69, 82
8, 15161, Note_off_c, 1, 69, 64
8, 15224, Note_on_c, 1, 73, 76
8, 15277, Note_off_c, 1, 73, 64
8, 15351, Note_on_c, 1, 73, 85
8, 15482, Note_off_c, 1, 73, 64
8, 27117, Note_on_c, 1, 73, 82
8, 27190, Note_off_c, 1, 73, 64
8, 27350, Note_on_c, 1, 69, 85
8, 27423, Note_off_c, 1, 69, 64
8, 27589, Note_on_c, 1, 66, 74
8, 27669, Note_off_c, 1, 66, 64
8, 27832, Note_on_c, 1, 61, 64
8, 27921, Note_off_c, 1, 61, 64
8, 28065, Note_on_c, 1, 66, 62
8, 28155, Note_off_c, 1, 66, 64
8, 28305, Note_on_c, 1, 64, 66
8, 28399, Note_off_c, 1, 64, 64
8, 28554, Note_on_c, 1, 63, 61
8, 28640, Note_off_c, 1, 63, 64
8, 28784, Note_on_c, 1, 64, 61
8, 28882, Note_off_c, 1, 64, 64
8, 29032, Note_on_c, 1, 76, 95
8, 29116, Note_off_c, 1, 76, 64
8, 29270, Note_on_c, 1, 76, 89
8, 29357, Note_off_c, 1, 76, 64
8, 29518, Note_on_c, 1, 73, 76
8, 29596, Note_off_c, 1, 73, 64
8, 29756, Note_on_c, 1, 69, 66
8, 29858, Note_off_c, 1, 69, 64
8, 29992, Note_on_c, 1, 69, 74
8, 30057, Note_off_c, 1, 69, 64
8, 30108, Note_on_c, 1, 74, 82
8, 30166, Note_off_c, 1, 74, 64
8, 30230, Note_on_c, 1, 74, 80
8, 30293, Note_off_c, 1, 74, 64
8, 30351, Note_on_c, 1, 74, 82
8, 30416, Note_off_c, 1, 74, 64
8, 30471, Note_on_c, 1, 73, 76
8, 30529, Note_off_c, 1, 73, 64
8, 30588, Note_on_c, 1, 73, 74
8, 30639, Note_off_c, 1, 73, 64
8, 30709, Note_on_c, 1, 74, 87
8, 30766, Note_off_c, 1, 74, 64
8, 30824, Note_on_c, 1, 66, 64
8, 30885, Note_off_c, 1, 66, 64
8, 30948, Note_on_c, 1, 69, 87
8, 31032, Note_off_c, 1, 69, 64
8, 31193, Note_on_c, 1, 67, 85
8, 31272, Note_off_c, 1, 67, 64
8, 31428, Note_on_c, 1, 66, 76
8, 31508, Note_off_c, 1, 66, 64
8, 31664, Note_on_c, 1, 64, 80
8, 31750, Note_off_c, 1, 64, 64
8, 31902, Note_on_c, 1, 71, 78
8, 31965, Note_off_c, 1, 71, 64
8, 32023, Note_on_c, 1, 76, 85
8, 32085, Note_off_c, 1, 76, 64
8, 32143, Note_on_c, 1, 69, 74
8, 32211, Note_off_c, 1, 69, 64
8, 32262, Note_on_c, 1, 67, 76
8, 32322, Note_off_c, 1, 67, 64
8, 32383, Note_on_c, 1, 66, 72
8, 32445, Note_off_c, 1, 66, 64
8, 32507, Note_on_c, 1, 69, 82
8, 32548, Note_off_c, 1, 69, 64
8, 32632, Note_on_c, 1, 69, 78
8, 32779, Note_off_c, 1, 69, 64
8, 32875, Note_on_c, 1, 69, 80
8, 32921, Note_off_c, 1, 69, 64
8, 32990, Note_on_c, 1, 74, 85
8, 33042, Note_off_c, 1, 74, 64
8, 33109, Note_on_c, 1, 69, 76
8, 33164, Note_off_c, 1, 69, 64
8, 33226, Note_on_c, 1, 74, 82
8, 33271, Note_off_c, 1, 74, 64
8, 33348, Note_on_c, 1, 69, 80
8, 33400, Note_off_c, 1, 69, 64
8, 33470, Note_on_c, 1, 74, 82
8, 33520, Note_off_c, 1, 74, 64
8, 33581, Note_on_c, 1, 76, 93
8, 33608, Note_on_c, 1, 74, 68
8, 33618, Note_off_c, 1, 76, 64
8, 33629, Note_on_c, 1, 76, 53
8, 33642, Note_off_c, 1, 74, 64
8, 33656, Note_on_c, 1, 74, 70
8, 33669, Note_off_c, 1, 76, 64
8, 33705, Note_on_c, 1, 73, 80
8, 33706, Note_off_c, 1, 74, 64
8, 33744, Note_off_c, 1, 73, 64
8, 33831, Note_on_c, 1, 66, 70
8, 33888, Note_off_c, 1, 66, 64
8, 33949, Note_on_c, 1, 73, 80
8, 34006, Note_off_c, 1, 73, 64
8, 34065, Note_on_c, 1, 66, 63
8, 34119, Note_off_c, 1, 66, 64
8, 34184, Note_on_c, 1, 73, 74
8, 34238, Note_off_c, 1, 73, 64
8, 34302, Note_on_c, 1, 70, 78
8, 34358, Note_off_c, 1, 70, 64
8, 34428, Note_on_c, 1, 73, 80
8, 34490, Note_off_c, 1, 73, 64
8, 34536, Note_on_c, 1, 74, 80
8, 34565, Note_on_c, 1, 73, 57
8, 34573, Note_off_c, 1, 74, 64
8, 34587, Note_on_c, 1, 74, 55
8, 34593, Note_off_c, 1, 73, 64
8, 34623, Note_on_c, 1, 73, 68
8, 34634, Note_off_c, 1, 74, 64
8, 34654, Note_on_c, 1, 71, 78
8, 34667, Note_off_c, 1, 73, 64
8, 34727, Note_off_c, 1, 71, 64
8, 35145, Note_on_c, 1, 76, 93
8, 35191, Note_off_c, 1, 76, 64
8, 35197, Note_on_c, 1, 71, 82
8, 35250, Note_off_c, 1, 71, 64
8, 35258, Note_on_c, 1, 67, 61
8, 35322, Note_off_c, 1, 67, 64
8, 35634, Note_on_c, 1, 71, 87
8, 35686, Note_off_c, 1, 71, 64
8, 35689, Note_on_c, 1, 67, 85
8, 35734, Note_off_c, 1, 67, 64
8, 35746, Note_on_c, 1, 64, 59
8, 35822, Note_off_c, 1, 64, 64
8, 36109, Note_on_c, 1, 64, 72
8, 36157, Note_off_c, 1, 64, 64
8, 36226, Note_on_c, 1, 67, 74
8, 36275, Note_off_c, 1, 67, 64
8, 36343, Note_on_c, 1, 72, 85
8, 36384, Note_off_c, 1, 72, 64
8, 36457, Note_on_c, 1, 71, 82
8, 36572, Note_off_c, 1, 71, 64
8, 36572, Note_on_c, 1, 70, 64
8, 36649, Note_off_c, 1, 70, 64
8, 36709, Note_on_c, 1, 73, 76
8, 36782, Note_off_c, 1, 73, 64
8, 36952, Note_on_c, 1, 71, 82
8, 37026, Note_off_c, 1, 71, 64
8, 37189, Note_on_c, 1, 70, 72
8, 37263, Note_off_c, 1, 70, 64
8, 37418, Note_on_c, 1, 71, 70
8, 37528, Note_off_c, 1, 71, 64
8, 37794, Note_on_c, 1, 71, 87
8, 37844, Note_on_c, 1, 74, 82
8, 37845, Note_off_c, 1, 71, 64
8, 37897, Note_off_c, 1, 74, 64
8, 37903, Note_on_c, 1, 78, 82
8, 37965, Note_off_c, 1, 78, 64
8, 38027, Note_on_c, 1, 71, 85
8, 38085, Note_off_c, 1, 71, 64
8, 38149, Note_on_c, 1, 71, 87
8, 38198, Note_off_c, 1, 71, 64
8, 38269, Note_on_c, 1, 70, 78
8, 38320, Note_off_c, 1, 70, 64
8, 38391, Note_on_c, 1, 66, 66
8, 38580, Note_off_c, 1, 66, 64
8, 38580, End_track
9, 0, Start_track
9, 0, Title_t, "Viola"
9, 0, Program_c, 2, 41
9, 0, Control_c, 2, 7, 100
9, 7916, Note_on_c, 2, 74, 91
9, 7985, Note_off_c, 2, 74, 64
9, 8155, Note_on_c, 2, 71, 85
9, 8227, Note_off_c, 2, 71, 64
9, 8388, Note_on_c, 2, 66, 82
9, 8461, Note_off_c, 2, 66, 64
9, 8628, Note_on_c, 2, 62, 82
9, 8712, Note_off_c, 2, 62, 64
9, 8869, Note_on_c, 2, 62, 80
9, 8929, Note_off_c, 2, 62, 64
9, 8984, Note_on_c, 2, 66, 74
9, 9050, Note_off_c, 2, 66, 64
9, 9096, Note_on_c, 2, 67, 82
9, 9163, Note_off_c, 2, 67, 64
9, 9223, Note_on_c, 2, 64, 74
9, 9287, Note_off_c, 2, 64, 64
9, 9349, Note_on_c, 2, 66, 85
9, 9415, Note_off_c, 2, 66, 64
9, 9468, Note_on_c, 2, 66, 82
9, 9529, Note_off_c, 2, 66, 64
9, 9586, Note_on_c, 2, 66, 82
9, 9649, Note_off_c, 2, 66, 64
9, 9711, Note_on_c, 2, 62, 78
9, 9776, Note_off_c, 2, 62, 64
9, 9834, Note_on_c, 2, 74, 85
9, 9904, Note_off_c, 2, 74, 64
9, 10071, Note_on_c, 2, 71, 80
9, 10138, Note_off_c, 2, 71, 64
9, 10306, Note_on_c, 2, 66, 82
9, 10379, Note_off_c, 2, 66, 64
9, 10536, Note_on_c, 2, 62, 80
9, 10626, Note_off_c, 2, 62, 64
9, 10787, Note_on_c, 2, 71, 87
9, 10840, Note_off_c, 2, 71, 64
9, 10904, Note_on_c, 2, 66, 78
9, 10962, Note_off_c, 2, 66, 64
9, 11025, Note_on_c, 2, 71, 87
9, 11085, Note_off_c, 2, 71, 64
9, 11145, Note_on_c, 2, 68, 70
9, 11208, Note_off_c, 2, 68, 64
9, 11269, Note_on_c, 2, 71, 89
9, 11334, Note_off_c, 2, 71, 64
9, 11389, Note_on_c, 2, 64, 82
9, 11451, Note_off_c, 2, 64, 64
9, 11509, Note_on_c, 2, 64, 82
9, 11570, Note_off_c, 2, 64, 64
9, 11628, Note_on_c, 2, 69, 82
9, 11683, Note_off_c, 2, 69, 64
9, 11747, Note_on_c, 2, 66, 80
9, 11811, Note_off_c, 2, 66, 64
9, 11869, Note_on_c, 2, 69, 82
9, 11930, Note_off_c, 2, 69, 64
9, 11986, Note_on_c, 2, 74, 87
9, 12042, Note_off_c, 2, 74, 64
9, 12107, Note_on_c, 2, 71, 80
9, 12167, Note_off_c, 2, 71, 64
9, 12219, Note_on_c, 2, 74, 85
9, 12275, Note_off_c, 2, 74, 64
9, 12338, Note_on_c, 2, 68, 74
9, 12396, Note_off_c, 2, 68, 64
9, 12462, Note_on_c, 2, 68, 80
9, 12529, Note_off_c, 2, 68, 64
9, 12583, Note_on_c, 2, 73, 82
9, 12634, Note_off_c, 2, 73, 64
9, 12702, Note_on_c, 2, 66, 80
9, 12765, Note_off_c, 2, 66, 64
9, 12823, Note_on_c, 2, 73, 82
9, 12881, Note_off_c, 2, 73, 64
9, 12945, Note_on_c, 2, 74, 89
9, 13015, Note_off_c, 2, 74, 64
9, 13064, Note_on_c, 2, 74, 85
9, 13124, Note_off_c, 2, 74, 64
9, 13187, Note_on_c, 2, 73, 82
9, 13245, Note_off_c, 2, 73, 64
9, 13303, Note_on_c, 2, 73, 80
9, 13351, Note_off_c, 2, 73, 64
9, 13427, Note_on_c, 2, 61, 89
9, 13480, Note_off_c, 2, 61, 64
9, 13540, Note_on_c, 2, 73, 87
9, 13612, Note_off_c, 2, 73, 64
9, 13664, Note_on_c, 2, 69, 89
9, 13736, Note_off_c, 2, 69, 64
9, 13911, Note_on_c, 2, 66, 85
9, 13981, Note_off_c, 2, 66, 64
9, 14147, Note_on_c, 2, 69, 89
9, 14217, Note_off_c, 2, 69, 64
9, 14391, Note_on_c, 2, 71, 87
9, 14460, Note_off_c, 2, 71, 64
9, 14629, Note_on_c, 2, 68, 74
9, 14690, Note_off_c, 2, 68, 64
9, 14749, Note_on_c, 2, 71, 82
9, 14805, Note_off_c, 2, 71, 64
9, 14871, Note_on_c, 2, 69, 80
9, 14933, Note_off_c, 2, 69, 64
9, 14991, Note_on_c, 2, 74, 89
9, 15057, Note_off_c, 2, 74, 64
9, 15114, Note_on_c, 2, 73, 87
9, 15166, Note_off_c, 2, 73, 64
9, 15230, Note_on_c, 2, 71, 82
9, 15284, Note_off_c, 2, 71, 64
9, 15351, Note_on_c, 2, 69, 80
9, 15483, Note_off_c, 2, 69, 64
9, 27107, Note_on_c, 2, 69, 91
9, 27183, Note_off_c, 2, 69, 64
9, 27342, Note_on_c, 2, 66, 82
9, 27425, Note_off_c, 2, 66, 64
9, 27593, Note_on_c, 2, 61, 82
9, 27665, Note_off_c, 2, 61, 64
9, 27826, Note_on_c, 2, 57, 70
9, 27910, Note_off_c, 2, 57, 64
9, 28069, Note_on_c, 2, 54, 57
9, 28155, Note_off_c, 2, 54, 64
9, 28317, Note_on_c, 2, 55, 72
9, 28406, Note_off_c, 2, 55, 64
9, 28551, Note_on_c, 2, 59, 74
9, 28635, Note_off_c, 2, 59, 64
9, 28791, Note_on_c, 2, 59, 66
9, 28881, Note_off_c, 2, 59, 64
9, 29031, Note_on_c, 2, 71, 98
9, 29117, Note_off_c, 2, 71, 64
9, 29273, Note_on_c, 2, 69, 85
9, 29354, Note_off_c, 2, 69, 64
9, 29513, Note_on_c, 2, 69, 85
9, 29603, Note_off_c, 2, 69, 64
9, 29749, Note_on_c, 2, 64, 74
9, 29844, Note_off_c, 2, 64, 64
9, 29993, Note_on_c, 2, 69, 87
9, 30055, Note_off_c, 2, 69, 64
9, 30109, Note_on_c, 2, 66, 80
9, 30164, Note_off_c, 2, 66, 64
9, 30222, Note_on_c, 2, 71, 85
9, 30277, Note_off_c, 2, 71, 64
9, 30337, Note_on_c, 2, 67, 68
9, 30399, Note_off_c, 2, 67, 64
9, 30464, Note_on_c, 2, 69, 87
9, 30528, Note_off_c, 2, 69, 64
9, 30582, Note_on_c, 2, 69, 82
9, 30647, Note_off_c, 2, 69, 64
9, 30708, Note_on_c, 2, 57, 85
9, 30776, Note_off_c, 2, 57, 64
9, 30818, Note_on_c, 2, 69, 87
9, 30879, Note_off_c, 2, 69, 64
9, 30945, Note_on_c, 2, 66, 78
9, 31035, Note_off_c, 2, 66, 64
9, 31183, Note_on_c, 2, 62, 74
9, 31266, Note_off_c, 2, 62, 64
9, 31421, Note_on_c, 2, 66, 78
9, 31507, Note_off_c, 2, 66, 64
9, 31662, Note_on_c, 2, 67, 78
9, 31756, Note_off_c, 2, 67, 64
9, 31901, Note_on_c, 2, 64, 78
9, 31963, Note_off_c, 2, 64, 64
9, 32020, Note_on_c, 2, 67, 87
9, 32080, Note_off_c, 2, 67, 64
9, 32137, Note_on_c, 2, 66, 76
9, 32207, Note_off_c, 2, 66, 64
9, 32256, Note_on_c, 2, 71, 89
9, 32324, Note_off_c, 2, 71, 64
9, 32375, Note_on_c, 2, 69, 82
9, 32435, Note_off_c, 2, 69, 64
9, 32499, Note_on_c, 2, 67, 82
9, 32562, Note_off_c, 2, 67, 64
9, 32630, Note_on_c, 2, 66, 70
9, 32780, Note_off_c, 2, 66, 64
9, 32872, Note_on_c, 2, 74, 78
9, 32928, Note_off_c, 2, 74, 64
9, 32989, Note_on_c, 2, 69, 82
9, 33047, Note_off_c, 2, 69, 64
9, 33102, Note_on_c, 2, 62, 68
9, 33157, Note_off_c, 2, 62, 64
9, 33223, Note_on_c, 2, 69, 82
9, 33281, Note_off_c, 2, 69, 64
9, 33343, Note_on_c, 2, 66, 78
9, 33394, Note_off_c, 2, 66, 64
9, 33460, Note_on_c, 2, 69, 85
9, 33504, Note_off_c, 2, 69, 64
9, 33585, Note_on_c, 2, 69, 85
9, 33736, Note_off_c, 2, 69, 64
9, 33834, Note_on_c, 2, 73, 87
9, 33888, Note_off_c, 2, 73, 64
9, 33952, Note_on_c, 2, 70, 76
9, 34000, Note_off_c, 2, 70, 64
9, 34064, Note_on_c, 2, 73, 85
9, 34119, Note_off_c, 2, 73, 64
9, 34182, Note_on_c, 2, 70, 74
9, 34233, Note_off_c, 2, 70, 64
9, 34302, Note_on_c, 2, 73, 80
9, 34352, Note_off_c, 2, 73, 64
9, 34427, Note_on_c, 2, 66, 85
9, 34470, Note_off_c, 2, 66, 64
9, 34554, Note_on_c, 2, 66, 82
9, 34774, Note_off_c, 2, 66, 64
9, 35142, Note_on_c, 2, 71, 87
9, 35197, Note_on_c, 2, 67, 82
9, 35201, Note_off_c, 2, 71, 64
9, 35245, Note_off_c, 2, 67, 64
9, 35260, Note_on_c, 2, 64, 74
9, 35337, Note_off_c, 2, 64, 64
9, 35636, Note_on_c, 2, 67, 89
9, 35687, Note_off_c, 2, 67, 64
9, 35690, Note_on_c, 2, 64, 85
9, 35741, Note_off_c, 2, 64, 64
9, 35753, Note_on_c, 2, 59, 78
9, 35825, Note_off_c, 2, 59, 64
9, 36110, Note_on_c, 2, 55, 82
9, 36174, Note_off_c, 2, 55, 64
9, 36227, Note_on_c, 2, 60, 72
9, 36287, Note_off_c, 2, 60, 64
9, 36348, Note_on_c, 2, 64, 89
9, 36402, Note_off_c, 2, 64, 64
9, 36475, Note_on_c, 2, 61, 80
9, 36564, Note_off_c, 2, 61, 64
9, 36722, Note_on_c, 2, 61, 91
9, 36803, Note_off_c, 2, 61, 64
9, 36968, Note_on_c, 2, 62, 85
9, 37047, Note_off_c, 2, 62, 64
9, 37194, Note_on_c, 2, 66, 80
9, 37276, Note_off_c, 2, 66, 64
9, 37439, Note_on_c, 2, 66, 82
9, 37534, Note_off_c, 2, 66, 64
9, 37790, Note_on_c, 2, 66, 61
9, 37839, Note_on_c, 2, 71, 68
9, 37840, Note_off_c, 2, 66, 64
9, 37890, Note_off_c, 2, 71, 64
9, 37908, Note_on_c, 2, 74, 89
9, 37958, Note_off_c, 2, 74, 64
9, 38022, Note_on_c, 2, 62, 68
9, 38079, Note_off_c, 2, 62, 64
9, 38147, Note_on_c, 2, 61, 85
9, 38202, Note_off_c, 2, 61, 64
9, 38270, Note_on_c, 2, 66, 91
9, 38315, Note_off_c, 2, 66, 64
9, 38397, Note_on_c, 2, 62, 80
9, 38637, Note_off_c, 2, 62, 64
9, 38637, End_track
10, 0, Start_track
10, 0, Title_t, "Cello"
10, 0, Program_c, 3, 42
10, 0, Control_c, 3, 7, 100
10, 7910, Note_on_c, 3, 47, 87
10, 7969, Note_off_c, 3, 47, 64
10, 8034, Note_on_c, 3, 47, 82
10, 8105, Note_off_c, 3, 47, 64
10, 8146, Note_on_c, 3, 50, 85
10, 8199, Note_off_c, 3, 50, 64
10, 8264, Note_on_c, 3, 47, 87
10, 8325, Note_off_c, 3, 47, 64
10, 8377, Note_on_c, 3, 54, 89
10, 8431, Note_off_c, 3, 54, 64
10, 8495, Note_on_c, 3, 50, 80
10, 8565, Note_off_c, 3, 50, 64
10, 8624, Note_on_c, 3, 59, 91
10, 8688, Note_off_c, 3, 59, 64
10, 8743, Note_on_c, 3, 54, 82
10, 8802, Note_off_c, 3, 54, 64
10, 8865, Note_on_c, 3, 50, 82
10, 8926, Note_off_c, 3, 50, 64
10, 8980, Note_on_c, 3, 47, 74
10, 9039, Note_off_c, 3, 47, 64
10, 9105, Note_on_c, 3, 52, 80
10, 9169, Note_off_c, 3, 52, 64
10, 9226, Note_on_c, 3, 49, 68
10, 9279, Note_off_c, 3, 49, 64
10, 9342, Note_on_c, 3, 54, 85
10, 9395, Note_off_c, 3, 54, 64
10, 9467, Note_on_c, 3, 42, 82
10, 9524, Note_off_c, 3, 42, 64
10, 9590, Note_on_c, 3, 47, 85
10, 9636, Note_off_c, 3, 47, 64
10, 9643, Note_on_c, 3, 49, 95
10, 9697, Note_off_c, 3, 49, 64
10, 9699, Note_on_c, 3, 50, 95
10, 9743, Note_off_c, 3, 50, 64
10, 9759, Note_on_c, 3, 49, 105
10, 9802, Note_off_c, 3, 49, 64
10, 9826, Note_on_c, 3, 47, 87
10, 9883, Note_off_c, 3, 47, 64
10, 9950, Note_on_c, 3, 47, 85
10, 10003, Note_off_c, 3, 47, 64
10, 10070, Note_on_c, 3, 50, 87
10, 10125, Note_off_c, 3, 50, 64
10, 10182, Note_on_c, 3, 47, 74
10, 10242, Note_off_c, 3, 47, 64
10, 10303, Note_on_c, 3, 54, 82
10, 10358, Note_off_c, 3, 54, 64
10, 10420, Note_on_c, 3, 50, 68
10, 10484, Note_off_c, 3, 50, 64
10, 10541, Note_on_c, 3, 59, 85
10, 10599, Note_off_c, 3, 59, 64
10, 10668, Note_on_c, 3, 54, 80
10, 10725, Note_off_c, 3, 54, 64
10, 10790, Note_on_c, 3, 59, 89
10, 10876, Note_off_c, 3, 59, 64
10, 10904, Note_on_c, 3, 62, 82
10, 10950, Note_off_c, 3, 62, 64
10, 10960, Note_on_c, 3, 59, 85
10, 11002, Note_off_c, 3, 59, 64
10, 11028, Note_on_c, 3, 56, 85
10, 11125, Note_off_c, 3, 56, 64
10, 11143, Note_on_c, 3, 59, 80
10, 11188, Note_off_c, 3, 59, 64
10, 11197, Note_on_c, 3, 56, 78
10, 11239, Note_off_c, 3, 56, 64
10, 11268, Note_on_c, 3, 52, 95
10, 11367, Note_off_c, 3, 52, 64
10, 11385, Note_on_c, 3, 56, 74
10, 11427, Note_off_c, 3, 56, 64
10, 11435, Note_on_c, 3, 52, 87
10, 11475, Note_off_c, 3, 52, 64
10, 11505, Note_on_c, 3, 57, 82
10, 11597, Note_off_c, 3, 57, 64
10, 11626, Note_on_c, 3, 61, 70
10, 11663, Note_off_c, 3, 61, 64
10, 11672, Note_on_c, 3, 57, 82
10, 11715, Note_off_c, 3, 57, 64
10, 11751, Note_on_c, 3, 62, 95
10, 11849, Note_off_c, 3, 62, 64
10, 11873, Note_on_c, 3, 66, 66
10, 11906, Note_off_c, 3, 66, 64
10, 11928, Note_on_c, 3, 62, 80
10, 11970, Note_off_c, 3, 62, 64
10, 11997, Note_on_c, 3, 59, 91
10, 12076, Note_off_c, 3, 59, 64
10, 12110, Note_on_c, 3, 62, 68
10, 12148, Note_off_c, 3, 62, 64
10, 12159, Note_on_c, 3, 59, 76
10, 12201, Note_off_c, 3, 59, 64
10, 12229, Note_on_c, 3, 56, 95
10, 12317, Note_off_c, 3, 56, 64
10, 12341, Note_on_c, 3, 59, 64
10, 12393, Note_off_c, 3, 59, 64
10, 12400, Note_on_c, 3, 56, 66
10, 12438, Note_off_c, 3, 56, 64
10, 12465, Note_on_c, 3, 61, 89
10, 12517, Note_off_c, 3, 61, 64
10, 12523, Note_on_c, 3, 62, 85
10, 12562, Note_off_c, 3, 62, 64
10, 12579, Note_on_c, 3, 61, 63
10, 12619, Note_off_c, 3, 61, 64
10, 12639, Note_on_c, 3, 59, 85
10, 12683, Note_off_c, 3, 59, 64
10, 12704, Note_on_c, 3, 57, 89
10, 12772, Note_off_c, 3, 57, 64
10, 12825, Note_on_c, 3, 54, 68
10, 12881, Note_off_c, 3, 54, 64
10, 12939, Note_on_c, 3, 59, 82
10, 12998, Note_off_c, 3, 59, 64
10, 13063, Note_on_c, 3, 56, 76
10, 13120, Note_off_c, 3, 56, 64
10, 13191, Note_on_c, 3, 61, 89
10, 13241, Note_off_c, 3, 61, 64
10, 13308, Note_on_c, 3, 49, 78
10, 13368, Note_off_c, 3, 49, 64
10, 13421, Note_on_c, 3, 54, 87
10, 13476, Note_off_c, 3, 54, 64
10, 13547, Note_on_c, 3, 42, 64
10, 13603, Note_off_c, 3, 42, 64
10, 13664, Note_on_c, 3, 54, 74
10, 13725, Note_off_c, 3, 54, 64
10, 13785, Note_on_c, 3, 57, 85
10, 13831, Note_off_c, 3, 57, 64
10, 13909, Note_on_c, 3, 50, 89
10, 13970, Note_off_c, 3, 50, 64
10, 14032, Note_on_c, 3, 59, 82
10, 14091, Note_off_c, 3, 59, 64
10, 14156, Note_on_c, 3, 49, 85
10, 14220, Note_off_c, 3, 49, 64
10, 14270, Note_on_c, 3, 61, 72
10, 14326, Note_off_c, 3, 61, 64
10, 14389, Note_on_c, 3, 47, 87
10, 14455, Note_off_c, 3, 47, 64
10, 14502, Note_on_c, 3, 62, 85
10, 14562, Note_off_c, 3, 62, 64
10, 14620, Note_on_c, 3, 59, 80
10, 14681, Note_off_c, 3, 59, 64
10, 14741, Note_on_c, 3, 56, 76
10, 14809, Note_off_c, 3, 56, 64
10, 14865, Note_on_c, 3, 57, 89
10, 14933, Note_off_c, 3, 57, 64
10, 14989, Note_on_c, 3, 59, 87
10, 15044, Note_off_c, 3, 59, 64
10, 15109, Note_on_c, 3, 61, 87
10, 15162, Note_off_c, 3, 61, 64
10, 15233, Note_on_c, 3, 49, 82
10, 15282, Note_off_c, 3, 49, 64
10, 15348, Note_on_c, 3, 54, 80
10, 15468, Note_off_c, 3, 54, 64
10, 27119, Note_on_c, 3, 42, 66
10, 27175, Note_off_c, 3, 42, 64
10, 27237, Note_on_c, 3, 42, 68
10, 27296, Note_off_c, 3, 42, 64
10, 27352, Note_on_c, 3, 45, 78
10, 27403, Note_off_c, 3, 45, 64
10, 27464, Note_on_c, 3, 42, 70
10, 27515, Note_off_c, 3, 42, 64
10, 27585, Note_on_c, 3, 49, 80
10, 27638, Note_off_c, 3, 49, 64
10, 27707, Note_on_c, 3, 45, 72
10, 27760, Note_off_c, 3, 45, 64
10, 27833, Note_on_c, 3, 54, 85
10, 27929, Note_off_c, 3, 54, 64
10, 27948, Note_on_c, 3, 57, 70
10, 27994, Note_off_c, 3, 57, 64
10, 27994, Note_on_c, 3, 54, 82
10, 28038, Note_off_c, 3, 54, 64
10, 28065, Note_on_c, 3, 51, 89
10, 28159, Note_off_c, 3, 51, 64
10, 28185, Note_on_c, 3, 54, 59
10, 28238, Note_on_c, 3, 51, 63
10, 28239, Note_off_c, 3, 54, 64
10, 28280, Note_off_c, 3, 51, 64
10, 28303, Note_on_c, 3, 47, 60
10, 28409, Note_off_c, 3, 47, 64
10, 28425, Note_on_c, 3, 47, 64
10, 28525, Note_off_c, 3, 47, 64
10, 28545, Note_on_c, 3, 47, 78
10, 28633, Note_off_c, 3, 47, 64
10, 28656, Note_on_c, 3, 47, 70
10, 28735, Note_off_c, 3, 47, 64
10, 28780, Note_on_c, 3, 52, 85
10, 28861, Note_off_c, 3, 52, 64
10, 28897, Note_on_c, 3, 59, 80
10, 28948, Note_off_c, 3, 59, 64
10, 28951, Note_on_c, 3, 55, 82
10, 28994, Note_off_c, 3, 55, 64
10, 29016, Note_on_c, 3, 52, 82
10, 29106, Note_off_c, 3, 52, 64
10, 29137, Note_on_c, 3, 55, 72
10, 29190, Note_on_c, 3, 52, 80
10, 29191, Note_off_c, 3, 55, 64
10, 29226, Note_off_c, 3, 52, 64
10, 29262, Note_on_c, 3, 49, 68
10, 29337, Note_off_c, 3, 49, 64
10, 29390, Note_on_c, 3, 45, 61
10, 29459, Note_off_c, 3, 45, 64
10, 29513, Note_on_c, 3, 52, 80
10, 29569, Note_off_c, 3, 52, 64
10, 29624, Note_on_c, 3, 49, 63
10, 29685, Note_off_c, 3, 49, 64
10, 29750, Note_on_c, 3, 55, 82
10, 29822, Note_off_c, 3, 55, 64
10, 29865, Note_on_c, 3, 52, 78
10, 29947, Note_off_c, 3, 52, 64
10, 29986, Note_on_c, 3, 54, 68
10, 30059, Note_off_c, 3, 54, 64
10, 30109, Note_on_c, 3, 59, 85
10, 30169, Note_off_c, 3, 59, 64
10, 30225, Note_on_c, 3, 55, 80
10, 30295, Note_off_c, 3, 55, 64
10, 30341, Note_on_c, 3, 52, 64
10, 30406, Note_off_c, 3, 52, 64
10, 30460, Note_on_c, 3, 57, 89
10, 30524, Note_off_c, 3, 57, 64
10, 30586, Note_on_c, 3, 45, 85
10, 30655, Note_off_c, 3, 45, 64
10, 30704, Note_on_c, 3, 50, 85
10, 30772, Note_off_c, 3, 50, 64
10, 30830, Note_on_c, 3, 38, 87
10, 30894, Note_off_c, 3, 38, 64
10, 30947, Note_on_c, 3, 48, 85
10, 31011, Note_off_c, 3, 48, 64
10, 31066, Note_on_c, 3, 54, 78
10, 31127, Note_off_c, 3, 54, 64
10, 31192, Note_on_c, 3, 47, 93
10, 31260, Note_off_c, 3, 47, 64
10, 31303, Note_on_c, 3, 55, 85
10, 31364, Note_off_c, 3, 55, 64
10, 31427, Note_on_c, 3, 45, 85
10, 31490, Note_off_c, 3, 45, 64
10, 31536, Note_on_c, 3, 57, 82
10, 31597, Note_off_c, 3, 57, 64
10, 31660, Note_on_c, 3, 43, 87
10, 31721, Note_off_c, 3, 43, 64
10, 31775, Note_on_c, 3, 59, 85
10, 31840, Note_off_c, 3, 59, 64
10, 31896, Note_on_c, 3, 55, 78
10, 31957, Note_off_c, 3, 55, 64
10, 32014, Note_on_c, 3, 52, 74
10, 32077, Note_off_c, 3, 52, 64
10, 32145, Note_on_c, 3, 54, 76
10, 32211, Note_off_c, 3, 54, 64
10, 32258, Note_on_c, 3, 55, 78
10, 32330, Note_off_c, 3, 55, 64
10, 32378, Note_on_c, 3, 57, 87
10, 32433, Note_off_c, 3, 57, 64
10, 32501, Note_on_c, 3, 45, 89
10, 32557, Note_off_c, 3, 45, 64
10, 32622, Note_on_c, 3, 50, 87
10, 32689, Note_off_c, 3, 50, 64
10, 32748, Note_on_c, 3, 45, 82
10, 32795, Note_on_c, 3, 42, 89
10, 32802, Note_off_c, 3, 45, 64
10, 32836, Note_off_c, 3, 42, 64
10, 32860, Note_on_c, 3, 38, 100
10, 32927, Note_off_c, 3, 38, 64
10, 32983, Note_on_c, 3, 62, 80
10, 33032, Note_on_c, 3, 57, 85
10, 33035, Note_off_c, 3, 62, 64
10, 33078, Note_off_c, 3, 57, 64
10, 33095, Note_on_c, 3, 54, 89
10, 33172, Note_off_c, 3, 54, 64
10, 33226, Note_on_c, 3, 57, 85
10, 33270, Note_off_c, 3, 57, 64
10, 33275, Note_on_c, 3, 54, 68
10, 33316, Note_off_c, 3, 54, 64
10, 33339, Note_on_c, 3, 50, 89
10, 33419, Note_off_c, 3, 50, 64
10, 33461, Note_on_c, 3, 54, 64
10, 33507, Note_on_c, 3, 50, 82
10, 33516, Note_off_c, 3, 54, 64
10, 33551, Note_off_c, 3, 50, 64
10, 33586, Note_on_c, 3, 57, 59
10, 33590, Note_on_c, 3, 55, 68
10, 33600, Note_off_c, 3, 55, 64
10, 33655, Note_off_c, 3, 57, 64
10, 33704, Note_on_c, 3, 52, 78
10, 33752, Note_off_c, 3, 52, 64
10, 33757, Note_on_c, 3, 49, 89
10, 33798, Note_off_c, 3, 49, 64
10, 33824, Note_on_c, 3, 46, 91
10, 33882, Note_off_c, 3, 46, 64
10, 33948, Note_on_c, 3, 64, 80
10, 33993, Note_off_c, 3, 64, 64
10, 34005, Note_on_c, 3, 61, 82
10, 34043, Note_off_c, 3, 61, 64
10, 34064, Note_on_c, 3, 58, 100
10, 34140, Note_off_c, 3, 58, 64
10, 34188, Note_on_c, 3, 61, 66
10, 34235, Note_on_c, 3, 58, 70
10, 34240, Note_off_c, 3, 61, 64
10, 34280, Note_off_c, 3, 58, 64
10, 34302, Note_on_c, 3, 54, 87
10, 34383, Note_off_c, 3, 54, 64
10, 34414, Note_on_c, 3, 58, 70
10, 34468, Note_on_c, 3, 54, 87
10, 34469, Note_off_c, 3, 58, 64
10, 34513, Note_off_c, 3, 54, 64
10, 34540, Note_on_c, 3, 59, 82
10, 34602, Note_off_c, 3, 59, 64
10, 34665, Note_on_c, 3, 54, 72
10, 34723, Note_off_c, 3, 54, 64
10, 34788, Note_on_c, 3, 50, 82
10, 34845, Note_off_c, 3, 50, 64
10, 34899, Note_on_c, 3, 47, 74
10, 34966, Note_off_c, 3, 47, 64
10, 35014, Note_on_c, 3, 52, 68
10, 35237, Note_off_c, 3, 52, 64
10, 35269, Note_on_c, 3, 52, 68
10, 35336, Note_off_c, 3, 52, 64
10, 35392, Note_on_c, 3, 40, 68
10, 35452, Note_off_c, 3, 40, 64
10, 35507, Note_on_c, 3, 52, 80
10, 35630, Note_off_c, 3, 52, 64
10, 35639, Note_on_c, 3, 52, 53
10, 35737, Note_off_c, 3, 52, 64
10, 35764, Note_on_c, 3, 52, 62
10, 35811, Note_off_c, 3, 52, 64
10, 35880, Note_on_c, 3, 40, 70
10, 35946, Note_off_c, 3, 40, 64
10, 35993, Note_on_c, 3, 52, 85
10, 36108, Note_off_c, 3, 52, 64
10, 36124, Note_on_c, 3, 52, 66
10, 36221, Note_off_c, 3, 52, 64
10, 36247, Note_on_c, 3, 52, 52
10, 36310, Note_off_c, 3, 52, 64
10, 36358, Note_on_c, 3, 40, 66
10, 36411, Note_off_c, 3, 40, 64
10, 36478, Note_on_c, 3, 52, 76
10, 36563, Note_off_c, 3, 52, 64
10, 36600, Note_on_c, 3, 64, 87
10, 36645, Note_off_c, 3, 64, 64
10, 36647, Note_on_c, 3, 61, 82
10, 36687, Note_off_c, 3, 61, 64
10, 36713, Note_on_c, 3, 58, 100
10, 36791, Note_off_c, 3, 58, 64
10, 36832, Note_on_c, 3, 61, 62
10, 36880, Note_on_c, 3, 58, 64
10, 36891, Note_off_c, 3, 61, 64
10, 36926, Note_off_c, 3, 58, 64
10, 36947, Note_on_c, 3, 54, 68
10, 37020, Note_off_c, 3, 54, 64
10, 37076, Note_on_c, 3, 54, 66
10, 37139, Note_off_c, 3, 54, 64
10, 37192, Note_on_c, 3, 54, 70
10, 37256, Note_off_c, 3, 54, 64
10, 37309, Note_on_c, 3, 54, 64
10, 37380, Note_off_c, 3, 54, 64
10, 37430, Note_on_c, 3, 59, 82
10, 37521, Note_off_c, 3, 59, 64
10, 37549, Note_on_c, 3, 62, 85
10, 37598, Note_off_c, 3, 62, 64
10, 37599, Note_on_c, 3, 59, 78
10, 37639, Note_off_c, 3, 59, 64
10, 37666, Note_on_c, 3, 54, 89
10, 37750, Note_off_c, 3, 54, 64
10, 37790, Note_on_c, 3, 59, 82
10, 37841, Note_on_c, 3, 54, 70
10, 37842, Note_off_c, 3, 59, 64
10, 37880, Note_off_c, 3, 54, 64
10, 37907, Note_on_c, 3, 50, 89
10, 37983, Note_off_c, 3, 50, 64
10, 38020, Note_on_c, 3, 47, 85
10, 38071, Note_on_c, 3, 50, 85
10, 38073, Note_off_c, 3, 47, 64
10, 38114, Note_off_c, 3, 50, 64
10, 38134, Note_on_c, 3, 54, 105
10, 38196, Note_off_c, 3, 54, 64
10, 38270, Note_on_c, 3, 42, 87
10, 38326, Note_off_c, 3, 42, 64
10, 38399, Note_on_c, 3, 47, 87
10, 38653, Note_off_c, 3, 47, 64
10, 38653, End_track
11, 0, Start_track
11, 0, Title_t, "Flute"
11, 0, Program_c, 4, 73
11, 0, Control_c, 4, 7, 127
11, 7912, Note_on_c, 4, 83, 82
11, 7998, Note_off_c, 4, 83, 64
11, 8027, Note_on_c, 4, 86, 78
11, 8069, Note_off_c, 4, 86, 64
11, 8084, Note_on_c, 4, 83, 72
11, 8112, Note_off_c, 4, 83, 64
11, 8150, Note_on_c, 4, 78, 93
11, 8249, Note_off_c, 4, 78, 64
11, 8266, Note_on_c, 4, 83, 63
11, 8301, Note_off_c, 4, 83, 64
11, 8321, Note_on_c, 4, 78, 58
11, 8352, Note_off_c, 4, 78, 64
11, 8395, Note_on_c, 4, 74, 87
11, 8491, Note_off_c, 4, 74, 64
11, 8516, Note_on_c, 4, 78, 49
11, 8544, Note_off_c, 4, 78, 64
11, 8562, Note_on_c, 4, 74, 62
11, 8598, Note_off_c, 4, 74, 64
11, 8628, Note_on_c, 4, 71, 82
11, 8760, Note_off_c, 4, 71, 64
11, 8864, Note_on_c, 4, 66, 76
11, 8919, Note_off_c, 4, 66, 64
11, 8926, Note_on_c, 4, 71, 60
11, 8969, Note_off_c, 4, 71, 64
11, 8994, Note_on_c, 4, 74, 60
11, 9045, Note_off_c, 4, 74, 64
11, 9045, Note_on_c, 4, 71, 54
11, 9081, Note_off_c, 4, 71, 64
11, 9109, Note_on_c, 4, 73, 80
11, 9158, Note_off_c, 4, 73, 64
11, 9163, Note_on_c, 4, 71, 58
11, 9201, Note_off_c, 4, 71, 64
11, 9229, Note_on_c, 4, 73, 68
11, 9280, Note_off_c, 4, 73, 64
11, 9282, Note_on_c, 4, 71, 53
11, 9328, Note_off_c, 4, 71, 64
11, 9352, Note_on_c, 4, 70, 70
11, 9395, Note_off_c, 4, 70, 64
11, 9405, Note_on_c, 4, 73, 60
11, 9455, Note_off_c, 4, 73, 64
11, 9465, Note_on_c, 4, 76, 82
11, 9514, Note_off_c, 4, 76, 64
11, 9522, Note_on_c, 4, 73, 64
11, 9560, Note_off_c, 4, 73, 64
11, 9588, Note_on_c, 4, 74, 80
11, 9641, Note_off_c, 4, 74, 64
11, 9708, Note_on_c, 4, 71, 66
11, 9749, Note_off_c, 4, 71, 64
11, 9828, Note_on_c, 4, 83, 87
11, 9929, Note_off_c, 4, 83, 64
11, 9943, Note_on_c, 4, 86, 66
11, 9986, Note_off_c, 4, 86, 64
11, 9997, Note_on_c, 4, 83, 66
11, 10027, Note_off_c, 4, 83, 64
11, 10068, Note_on_c, 4, 78, 80
11, 10169, Note_off_c, 4, 78, 64
11, 10191, Note_on_c, 4, 83, 66
11, 10224, Note_off_c, 4, 83, 64
11, 10239, Note_on_c, 4, 78, 62
11, 10276, Note_off_c, 4, 78, 64
11, 10308, Note_on_c, 4, 74, 85
11, 10406, Note_off_c, 4, 74, 64
11, 10428, Note_on_c, 4, 78, 59
11, 10466, Note_off_c, 4, 78, 64
11, 10485, Note_on_c, 4, 74, 66
11, 10522, Note_off_c, 4, 74, 64
11, 10550, Note_on_c, 4, 71, 74
11, 10709, Note_off_c, 4, 71, 64
11, 10787, Note_on_c, 4, 74, 76
11, 10848, Note_off_c, 4, 74, 64
11, 10905, Note_on_c, 4, 74, 68
11, 10967, Note_off_c, 4, 74, 64
11, 11029, Note_on_c, 4, 74, 74
11, 11089, Note_off_c, 4, 74, 64
11, 11153, Note_on_c, 4, 74, 72
11, 11215, Note_off_c, 4, 74, 64
11, 11275, Note_on_c, 4, 83, 82
11, 11324, Note_off_c, 4, 83, 64
11, 11386, Note_on_c, 4, 74, 82
11, 11450, Note_off_c, 4, 74, 64
11, 11509, Note_on_c, 4, 76, 85
11, 11536, Note_on_c, 4, 74, 66
11, 11539, Note_off_c, 4, 76, 64
11, 11562, Note_on_c, 4, 76, 70
11, 11576, Note_off_c, 4, 74, 64
11, 11584, Note_on_c, 4, 74, 57
11, 11593, Note_off_c, 4, 76, 64
11, 11627, Note_on_c, 4, 73, 78
11, 11633, Note_off_c, 4, 74, 64
11, 11703, Note_off_c, 4, 73, 64
11, 11751, Note_on_c, 4, 78, 78
11, 11808, Note_off_c, 4, 78, 64
11, 11875, Note_on_c, 4, 78, 68
11, 11930, Note_off_c, 4, 78, 64
11, 11997, Note_on_c, 4, 78, 64
11, 12052, Note_off_c, 4, 78, 64
11, 12114, Note_on_c, 4, 78, 68
11, 12171, Note_off_c, 4, 78, 64
11, 12234, Note_on_c, 4, 86, 80
11, 12292, Note_off_c, 4, 86, 64
11, 12355, Note_on_c, 4, 78, 63
11, 12425, Note_off_c, 4, 78, 64
11, 12472, Note_on_c, 4, 80, 74
11, 12495, Note_on_c, 4, 78, 87
11, 12502, Note_off_c, 4, 80, 64
11, 12531, Note_off_c, 4, 78, 64
11, 12534, Note_on_c, 4, 80, 68
11, 12556, Note_on_c, 4, 78, 66
11, 12576, Note_off_c, 4, 80, 64
11, 12586, Note_on_c, 4, 77, 74
11, 12610, Note_off_c, 4, 78, 64
11, 12653, Note_off_c, 4, 77, 64
11, 12718, Note_on_c, 4, 73, 80
11, 12769, Note_on_c, 4, 78, 68
11, 12774, Note_off_c, 4, 73, 64
11, 12812, Note_off_c, 4, 78, 64
11, 12836, Note_on_c, 4, 81, 70
11, 12876, Note_off_c, 4, 81, 64
11, 12890, Note_on_c, 4, 78, 74
11, 12931, Note_off_c, 4, 78, 64
11, 12954, Note_on_c, 4, 80, 78
11, 13004, Note_off_c, 4, 80, 64
11, 13007, Note_on_c, 4, 78, 62
11, 13040, Note_off_c, 4, 78, 64
11, 13064, Note_on_c, 4, 80, 76
11, 13113, Note_off_c, 4, 80, 64
11, 13124, Note_on_c, 4, 78, 91
11, 13165, Note_off_c, 4, 78, 64
11, 13182, Note_on_c, 4, 77, 80
11, 13231, Note_off_c, 4, 77, 64
11, 13244, Note_on_c, 4, 80, 66
11, 13280, Note_off_c, 4, 80, 64
11, 13303, Note_on_c, 4, 83, 80
11, 13350, Note_off_c, 4, 83, 64
11, 13362, Note_on_c, 4, 80, 76
11, 13393, Note_off_c, 4, 80, 64
11, 13423, Note_on_c, 4, 81, 82
11, 13467, Note_off_c, 4, 81, 64
11, 13485, Note_on_c, 4, 80, 98
11, 13518, Note_off_c, 4, 80, 64
11, 13544, Note_on_c, 4, 81, 82
11, 13588, Note_off_c, 4, 81, 64
11, 13607, Note_on_c, 4, 80, 85
11, 13643, Note_off_c, 4, 80, 64
11, 13671, Note_on_c, 4, 78, 70
11, 13704, Note_off_c, 4, 78, 64
11, 13729, Note_on_c, 4, 81, 66
11, 13759, Note_off_c, 4, 81, 64
11, 13790, Note_on_c, 4, 78, 91
11, 13843, Note_on_c, 4, 77, 64
11, 13859, Note_off_c, 4, 78, 64
11, 13900, Note_off_c, 4, 77, 64
11, 13906, Note_on_c, 4, 78, 82
11, 13940, Note_off_c, 4, 78, 64
11, 13967, Note_on_c, 4, 83, 85
11, 14000, Note_off_c, 4, 83, 64
11, 14027, Note_on_c, 4, 78, 100
11, 14080, Note_on_c, 4, 77, 66
11, 14101, Note_off_c, 4, 78, 64
11, 14152, Note_on_c, 4, 78, 80
11, 14155, Note_off_c, 4, 77, 64
11, 14180, Note_off_c, 4, 78, 64
11, 14210, Note_on_c, 4, 85, 82
11, 14254, Note_off_c, 4, 85, 64
11, 14267, Note_on_c, 4, 78, 64
11, 14327, Note_off_c, 4, 78, 64
11, 14327, Note_on_c, 4, 77, 63
11, 14386, Note_on_c, 4, 78, 70
11, 14397, Note_off_c, 4, 77, 64
11, 14417, Note_off_c, 4, 78, 64
11, 14445, Note_on_c, 4, 86, 89
11, 14482, Note_off_c, 4, 86, 64
11, 14503, Note_on_c, 4, 78, 85
11, 14555, Note_off_c, 4, 78, 64
11, 14559, Note_on_c, 4, 77, 76
11, 14623, Note_on_c, 4, 78, 80
11, 14635, Note_off_c, 4, 77, 64
11, 14657, Note_off_c, 4, 78, 64
11, 14678, Note_on_c, 4, 86, 87
11, 14717, Note_off_c, 4, 86, 64
11, 14737, Note_on_c, 4, 85, 59
11, 14774, Note_off_c, 4, 85, 64
11, 14799, Note_on_c, 4, 83, 64
11, 14846, Note_off_c, 4, 83, 64
11, 14871, Note_on_c, 4, 85, 72
11, 14910, Note_off_c, 4, 85, 64
11, 14928, Note_on_c, 4, 81, 80
11, 14968, Note_off_c, 4, 81, 64
11, 14988, Note_on_c, 4, 80, 85
11, 15016, Note_off_c, 4, 80, 64
11, 15035, Note_on_c, 4, 78, 61
11, 15077, Note_off_c, 4, 78, 64
11, 15110, Note_on_c, 4, 81, 78
11, 15160, Note_off_c, 4, 81, 64
11, 15230, Note_on_c, 4, 81, 85
11, 15253, Note_on_c, 4, 80, 89
11, 15257, Note_off_c, 4, 81, 64
11, 15278, Note_on_c, 4, 81, 64
11, 15281, Note_off_c, 4, 80, 64
11, 15303, Note_on_c, 4, 80, 72
11, 15311, Note_off_c, 4, 81, 64
11, 15345, Note_on_c, 4, 78, 78
11, 15348, Note_off_c, 4, 80, 64
11, 15451, Note_off_c, 4, 78, 64
11, 27117, Note_on_c, 4, 78, 93
11, 27213, Note_off_c, 4, 78, 64
11, 27236, Note_on_c, 4, 81, 80
11, 27277, Note_off_c, 4, 81, 64
11, 27296, Note_on_c, 4, 78, 70
11, 27322, Note_off_c, 4, 78, 64
11, 27356, Note_on_c, 4, 73, 68
11, 27466, Note_off_c, 4, 73, 64
11, 27474, Note_on_c, 4, 78, 58
11, 27513, Note_off_c, 4, 78, 64
11, 27533, Note_on_c, 4, 73, 55
11, 27574, Note_off_c, 4, 73, 64
11, 27600, Note_on_c, 4, 69, 87
11, 27702, Note_off_c, 4, 69, 64
11, 27721, Note_on_c, 4, 73, 60
11, 27753, Note_off_c, 4, 73, 64
11, 27763, Note_on_c, 4, 69, 64
11, 27812, Note_off_c, 4, 69, 64
11, 27836, Note_on_c, 4, 66, 72
11, 27959, Note_off_c, 4, 66, 64
11, 28073, Note_on_c, 4, 72, 64
11, 28184, Note_on_c, 4, 71, 66
11, 28198, Note_off_c, 4, 72, 64
11, 28261, Note_off_c, 4, 71, 64
11, 28309, Note_on_c, 4, 76, 80
11, 28418, Note_off_c, 4, 76, 64
11, 28430, Note_on_c, 4, 75, 66
11, 28478, Note_off_c, 4, 75, 64
11, 28484, Note_on_c, 4, 78, 80
11, 28521, Note_off_c, 4, 78, 64
11, 28550, Note_on_c, 4, 81, 82
11, 28626, Note_off_c, 4, 81, 64
11, 28660, Note_on_c, 4, 79, 68
11, 28697, Note_off_c, 4, 79, 64
11, 28716, Note_on_c, 4, 78, 63
11, 28752, Note_off_c, 4, 78, 64
11, 28783, Note_on_c, 4, 79, 78
11, 28828, Note_off_c, 4, 79, 64
11, 28910, Note_on_c, 4, 76, 64
11, 28951, Note_off_c, 4, 76, 64
11, 29031, Note_on_c, 4, 79, 87
11, 29137, Note_off_c, 4, 79, 64
11, 29148, Note_on_c, 4, 83, 63
11, 29188, Note_off_c, 4, 83, 64
11, 29202, Note_on_c, 4, 79, 68
11, 29236, Note_off_c, 4, 79, 64
11, 29267, Note_on_c, 4, 76, 76
11, 29364, Note_off_c, 4, 76, 64
11, 29390, Note_on_c, 4, 79, 68
11, 29428, Note_off_c, 4, 79, 64
11, 29445, Note_on_c, 4, 76, 68
11, 29479, Note_off_c, 4, 76, 64
11, 29510, Note_on_c, 4, 73, 76
11, 29611, Note_off_c, 4, 73, 64
11, 29632, Note_on_c, 4, 76, 64
11, 29672, Note_off_c, 4, 76, 64
11, 29684, Note_on_c, 4, 73, 48
11, 29720, Note_off_c, 4, 73, 64
11, 29751, Note_on_c, 4, 69, 70
11, 29992, Note_off_c, 4, 69, 64
11, 30045, Note_on_c, 4, 74, 68
11, 30088, Note_off_c, 4, 74, 64
11, 30103, Note_on_c, 4, 78, 63
11, 30133, Note_off_c, 4, 78, 64
11, 30161, Note_on_c, 4, 74, 68
11, 30199, Note_off_c, 4, 74, 64
11, 30224, Note_on_c, 4, 76, 82
11, 30283, Note_off_c, 4, 76, 64
11, 30286, Note_on_c, 4, 74, 66
11, 30324, Note_off_c, 4, 74, 64
11, 30350, Note_on_c, 4, 76, 72
11, 30401, Note_on_c, 4, 74, 82
11, 30404, Note_off_c, 4, 76, 64
11, 30453, Note_off_c, 4, 74, 64
11, 30468, Note_on_c, 4, 73, 78
11, 30516, Note_off_c, 4, 73, 64
11, 30523, Note_on_c, 4, 76, 64
11, 30580, Note_off_c, 4, 76, 64
11, 30586, Note_on_c, 4, 79, 80
11, 30631, Note_off_c, 4, 79, 64
11, 30641, Note_on_c, 4, 76, 76
11, 30688, Note_off_c, 4, 76, 64
11, 30703, Note_on_c, 4, 78, 70
11, 30744, Note_off_c, 4, 78, 64
11, 30758, Note_on_c, 4, 76, 68
11, 30802, Note_off_c, 4, 76, 64
11, 30819, Note_on_c, 4, 78, 80
11, 30868, Note_off_c, 4, 78, 64
11, 30882, Note_on_c, 4, 76, 64
11, 30920, Note_off_c, 4, 76, 64
11, 30941, Note_on_c, 4, 74, 72
11, 30986, Note_off_c, 4, 74, 64
11, 30997, Note_on_c, 4, 78, 68
11, 31028, Note_off_c, 4, 78, 64
11, 31053, Note_on_c, 4, 74, 68
11, 31114, Note_on_c, 4, 73, 62
11, 31126, Note_off_c, 4, 74, 64
11, 31179, Note_on_c, 4, 74, 80
11, 31184, Note_off_c, 4, 73, 64
11, 31213, Note_off_c, 4, 74, 64
11, 31239, Note_on_c, 4, 79, 87
11, 31296, Note_on_c, 4, 74, 72
11, 31301, Note_off_c, 4, 79, 64
11, 31360, Note_on_c, 4, 73, 58
11, 31369, Note_off_c, 4, 74, 64
11, 31421, Note_on_c, 4, 74, 82
11, 31424, Note_off_c, 4, 73, 64
11, 31454, Note_off_c, 4, 74, 64
11, 31478, Note_on_c, 4, 81, 87
11, 31527, Note_off_c, 4, 81, 64
11, 31539, Note_on_c, 4, 74, 80
11, 31598, Note_on_c, 4, 73, 64
11, 31604, Note_off_c, 4, 74, 64
11, 31659, Note_on_c, 4, 74, 70
11, 31662, Note_off_c, 4, 73, 64
11, 31693, Note_off_c, 4, 74, 64
11, 31718, Note_on_c, 4, 83, 80
11, 31766, Note_off_c, 4, 83, 64
11, 31782, Note_on_c, 4, 74, 66
11, 31836, Note_off_c, 4, 74, 64
11, 31843, Note_on_c, 4, 73, 61
11, 31905, Note_off_c, 4, 73, 64
11, 31906, Note_on_c, 4, 74, 78
11, 31941, Note_off_c, 4, 74, 64
11, 31967, Note_on_c, 4, 83, 78
11, 32007, Note_off_c, 4, 83, 64
11, 32027, Note_on_c, 4, 81, 72
11, 32078, Note_off_c, 4, 81, 64
11, 32090, Note_on_c, 4, 79, 64
11, 32122, Note_off_c, 4, 79, 64
11, 32150, Note_on_c, 4, 81, 85
11, 32197, Note_off_c, 4, 81, 64
11, 32206, Note_on_c, 4, 78, 64
11, 32251, Note_off_c, 4, 78, 64
11, 32266, Note_on_c, 4, 76, 72
11, 32310, Note_off_c, 4, 76, 64
11, 32317, Note_on_c, 4, 74, 70
11, 32365, Note_off_c, 4, 74, 64
11, 32387, Note_on_c, 4, 78, 85
11, 32455, Note_off_c, 4, 78, 64
11, 32500, Note_on_c, 4, 78, 87
11, 32526, Note_on_c, 4, 76, 78
11, 32529, Note_off_c, 4, 78, 64
11, 32558, Note_off_c, 4, 76, 64
11, 32558, Note_on_c, 4, 78, 63
11, 32583, Note_on_c, 4, 76, 80
11, 32596, Note_off_c, 4, 78, 64
11, 32621, Note_off_c, 4, 76, 64
11, 32622, Note_on_c, 4, 74, 68
11, 32769, Note_off_c, 4, 74, 64
11, 32869, Note_on_c, 4, 78, 66
11, 32918, Note_off_c, 4, 78, 64
11, 32987, Note_on_c, 4, 78, 68
11, 33040, Note_off_c, 4, 78, 64
11, 33111, Note_on_c, 4, 78, 64
11, 33159, Note_off_c, 4, 78, 64
11, 33230, Note_on_c, 4, 78, 63
11, 33282, Note_off_c, 4, 78, 64
11, 33352, Note_on_c, 4, 86, 82
11, 33398, Note_off_c, 4, 86, 64
11, 33467, Note_on_c, 4, 78, 64
11, 33531, Note_off_c, 4, 78, 64
11, 33592, Note_on_c, 4, 79, 87
11, 33624, Note_on_c, 4, 78, 66
11, 33625, Note_off_c, 4, 79, 64
11, 33651, Note_on_c, 4, 79, 70
11, 33656, Note_off_c, 4, 78, 64
11, 33676, Note_on_c, 4, 78, 60
11, 33685, Note_off_c, 4, 79, 64
11, 33708, Note_on_c, 4, 76, 60
11, 33721, Note_off_c, 4, 78, 64
11, 33778, Note_off_c, 4, 76, 64
11, 33833, Note_on_c, 4, 76, 78
11, 33892, Note_off_c, 4, 76, 64
11, 33957, Note_on_c, 4, 76, 70
11, 34013, Note_off_c, 4, 76, 64
11, 34071, Note_on_c, 4, 76, 66
11, 34130, Note_off_c, 4, 76, 64
11, 34191, Note_on_c, 4, 76, 66
11, 34255, Note_off_c, 4, 76, 64
11, 34308, Note_on_c, 4, 85, 68
11, 34354, Note_off_c, 4, 85, 64
11, 34424, Note_on_c, 4, 76, 78
11, 34485, Note_off_c, 4, 76, 64
11, 34535, Note_on_c, 4, 78, 80
11, 34563, Note_on_c, 4, 76, 58
11, 34566, Note_off_c, 4, 78, 64
11, 34591, Note_on_c, 4, 78, 61
11, 34595, Note_off_c, 4, 76, 64
11, 34619, Note_on_c, 4, 76, 72
11, 34635, Note_off_c, 4, 78, 64
11, 34654, Note_on_c, 4, 74, 64
11, 34661, Note_off_c, 4, 76, 64
11, 34725, Note_off_c, 4, 74, 64
11, 34784, Note_on_c, 4, 83, 85
11, 34840, Note_off_c, 4, 83, 64
11, 34897, Note_on_c, 4, 86, 80
11, 34936, Note_off_c, 4, 86, 64
11, 34955, Note_on_c, 4, 83, 80
11, 34987, Note_off_c, 4, 83, 64
11, 35014, Note_on_c, 4, 81, 82
11, 35133, Note_on_c, 4, 79, 60
11, 35138, Note_off_c, 4, 81, 64
11, 35297, Note_off_c, 4, 79, 64
11, 35385, Note_on_c, 4, 83, 63
11, 35410, Note_on_c, 4, 81, 74
11, 35439, Note_off_c, 4, 83, 64
11, 35444, Note_on_c, 4, 79, 60
11, 35461, Note_on_c, 4, 78, 78
11, 35468, Note_off_c, 4, 81, 64
11, 35476, Note_off_c, 4, 79, 64
11, 35510, Note_off_c, 4, 78, 64
11, 35511, Note_on_c, 4, 76, 85
11, 35787, Note_off_c, 4, 76, 64
11, 35866, Note_on_c, 4, 79, 72
11, 35894, Note_on_c, 4, 78, 53
11, 35923, Note_off_c, 4, 79, 64
11, 35923, Note_on_c, 4, 76, 64
11, 35943, Note_off_c, 4, 78, 64
11, 35950, Note_on_c, 4, 74, 74
11, 35959, Note_off_c, 4, 76, 64
11, 35994, Note_on_c, 4, 72, 78
11, 35995, Note_off_c, 4, 74, 64
11, 36039, Note_off_c, 4, 72, 64
11, 36051, Note_on_c, 4, 76, 70
11, 36097, Note_off_c, 4, 76, 64
11, 36102, Note_on_c, 4, 79, 74
11, 36150, Note_off_c, 4, 79, 64
11, 36159, Note_on_c, 4, 76, 61
11, 36190, Note_off_c, 4, 76, 64
11, 36218, Note_on_c, 4, 72, 78
11, 36270, Note_on_c, 4, 71, 72
11, 36277, Note_off_c, 4, 72, 64
11, 36304, Note_off_c, 4, 71, 64
11, 36335, Note_on_c, 4, 72, 68
11, 36392, Note_on_c, 4, 71, 70
11, 36397, Note_off_c, 4, 72, 64
11, 36423, Note_off_c, 4, 71, 64
11, 36464, Note_on_c, 4, 70, 85
11, 36513, Note_off_c, 4, 70, 64
11, 36584, Note_on_c, 4, 66, 63
11, 36638, Note_off_c, 4, 66, 64
11, 36708, Note_on_c, 4, 67, 87
11, 36819, Note_off_c, 4, 67, 64
11, 36833, Note_on_c, 4, 66, 63
11, 36877, Note_off_c, 4, 66, 64
11, 36945, Note_on_c, 4, 71, 76
11, 37036, Note_off_c, 4, 71, 64
11, 37060, Note_on_c, 4, 70, 66
11, 37108, Note_off_c, 4, 70, 64
11, 37120, Note_on_c, 4, 73, 78
11, 37161, Note_off_c, 4, 73, 64
11, 37183, Note_on_c, 4, 76, 89
11, 37281, Note_off_c, 4, 76, 64
11, 37303, Note_on_c, 4, 74, 72
11, 37346, Note_off_c, 4, 74, 64
11, 37356, Note_on_c, 4, 73, 61
11, 37396, Note_off_c, 4, 73, 64
11, 37422, Note_on_c, 4, 74, 82
11, 37511, Note_off_c, 4, 74, 64
11, 37543, Note_on_c, 4, 71, 68
11, 37569, Note_on_c, 4, 73, 59
11, 37590, Note_on_c, 4, 74, 68
11, 37596, Note_off_c, 4, 71, 64
11, 37618, Note_off_c, 4, 73, 64
11, 37621, Note_on_c, 4, 76, 66
11, 37638, Note_off_c, 4, 74, 64
11, 37661, Note_on_c, 4, 78, 82
11, 37671, Note_off_c, 4, 76, 64
11, 37722, Note_off_c, 4, 78, 64
11, 37785, Note_on_c, 4, 74, 80
11, 37832, Note_off_c, 4, 74, 64
11, 37838, Note_on_c, 4, 78, 68
11, 37880, Note_off_c, 4, 78, 64
11, 37903, Note_on_c, 4, 83, 89
11, 37952, Note_off_c, 4, 83, 64
11, 38026, Note_on_c, 4, 78, 70
11, 38061, Note_off_c, 4, 78, 64
11, 38150, Note_on_c, 4, 76, 78
11, 38190, Note_off_c, 4, 76, 64
11, 38196, Note_on_c, 4, 74, 62
11, 38252, Note_off_c, 4, 74, 64
11, 38263, Note_on_c, 4, 73, 64
11, 38307, Note_off_c, 4, 73, 64
11, 38321, Note_on_c, 4, 74, 87
11, 38347, Note_off_c, 4, 74, 64
11, 38390, Note_on_c, 4, 73, 87
11, 38506, Note_on_c, 4, 71, 64
11, 38517, Note_off_c, 4, 73, 64
11, 38576, Note_off_c, 4, 71, 64
11, 38576, End_track
0, 0, End_of_file
