0, 0, Header, 1, 12, 96
1, 0, Start_track
1, 0, Time_signature, 3, 2, 96, 8
1, 0, Tempo, 1714285
1, 0, End_track
2, 0, Start_track
2, 0, Title_t, "Oboe I | Sequenced by:"
2, 0, Control_c, 2, 0, 0
2, 0, Program_c, 2, 68
2, 0, Time_signature, 3, 2, 96, 8
2, 0, Tempo, 1714285
2, 96, Note_on_c, 2, 81, 96
2, 234, Note_off_c, 2, 81, 0
2, 240, Note_on_c, 2, 82, 96
2, 261, Note_off_c, 2, 82, 0
2, 264, Note_on_c, 2, 81, 96
2, 285, Note_off_c, 2, 81, 0
2, 288, Note_on_c, 2, 79, 96
2, 309, Note_off_c, 2, 79, 0
2, 312, Note_on_c, 2, 77, 96
2, 333, Note_off_c, 2, 77, 0
2, 336, Note_on_c, 2, 76, 96
2, 357, Note_off_c, 2, 76, 0
2, 360, Note_on_c, 2, 79, 96
2, 370, Note_off_c, 2, 79, 0
2, 372, Note_on_c, 2, 77, 96
2, 382, Note_off_c, 2, 77, 0
2, 384, Note_on_c, 2, 79, 96
2, 522, Note_off_c, 2, 79, 0
2, 528, Note_on_c, 2, 81, 96
2, 549, Note_off_c, 2, 81, 0
2, 552, Note_on_c, 2, 82, 96
2, 573, Note_off_c, 2, 82, 0
2, 576, Note_on_c, 2, 81, 96
2, 597, Note_off_c, 2, 81, 0
2, 600, Note_on_c, 2, 79, 96
2, 621, Note_off_c, 2, 79, 0
2, 624, Note_on_c, 2, 77, 96
2, 645, Note_off_c, 2, 77, 0
2, 648, Note_on_c, 2, 79, 96
2, 658, Note_off_c, 2, 79, 0
2, 660, Note_on_c, 2, 76, 96
2, 670, Note_off_c, 2, 76, 0
2, 672, Note_on_c, 2, 77, 96
2, 682, Note_off_c, 2, 77, 0
2, 684, Note_on_c, 2, 79, 96
2, 694, Note_off_c, 2, 79, 0
2, 696, Note_on_c, 2, 77, 96
2, 706, Note_off_c, 2, 77, 0
2, 708, Note_on_c, 2, 76, 96
2, 718, Note_off_c, 2, 76, 0
2, 720, Note_on_c, 2, 74, 96
2, 741, Note_off_c, 2, 74, 0
2, 744, Note_on_c, 2, 76, 96
2, 754, Note_off_c, 2, 76, 0
2, 756, Note_on_c, 2, 73, 96
2, 766, Note_off_c, 2, 73, 0
2, 768, Note_on_c, 2, 74, 96
2, 831, Note_off_c, 2, 74, 0
2, 840, Note_on_c, 2, 73, 96
2, 850, Note_off_c, 2, 73, 0
2, 852, Note_on_c, 2, 74, 96
2, 862, Note_off_c, 2, 74, 0
2, 864, Note_on_c, 2, 76, 96
2, 869, Note_off_c, 2, 76, 0
2, 870, Note_on_c, 2, 74, 96
2, 875, Note_off_c, 2, 74, 0
2, 876, Note_on_c, 2, 76, 96
2, 881, Note_off_c, 2, 76, 0
2, 882, Note_on_c, 2, 74, 96
2, 887, Note_off_c, 2, 74, 0
2, 888, Note_on_c, 2, 76, 96
2, 893, Note_off_c, 2, 76, 0
2, 894, Note_on_c, 2, 74, 96
2, 899, Note_off_c, 2, 74, 0
2, 900, Note_on_c, 2, 73, 96
2, 910, Note_off_c, 2, 73, 0
2, 912, Note_on_c, 2, 74, 96
2, 922, Note_off_c, 2, 74, 0
2, 924, Note_on_c, 2, 76, 96
2, 934, Note_off_c, 2, 76, 0
2, 936, Note_on_c, 2, 73, 96
2, 957, Note_off_c, 2, 73, 0
2, 960, Note_on_c, 2, 74, 96
2, 965, Note_off_c, 2, 74, 0
2, 966, Note_on_c, 2, 73, 96
2, 971, Note_off_c, 2, 73, 0
2, 972, Note_on_c, 2, 74, 96
2, 977, Note_off_c, 2, 74, 0
2, 978, Note_on_c, 2, 73, 96
2, 983, Note_off_c, 2, 73, 0
2, 984, Note_on_c, 2, 74, 96
2, 989, Note_off_c, 2, 74, 0
2, 990, Note_on_c, 2, 73, 96
2, 995, Note_off_c, 2, 73, 0
2, 996, Note_on_c, 2, 74, 96
2, 1001, Note_off_c, 2, 74, 0
2, 1002, Note_on_c, 2, 73, 96
2, 1007, Note_off_c, 2, 73, 0
2, 1008, Note_on_c, 2, 74, 96
2, 1013, Note_off_c, 2, 74, 0
2, 1014, Note_on_c, 2, 73, 96
2, 1019, Note_off_c, 2, 73, 0
2, 1020, Note_on_c, 2, 74, 96
2, 1025, Note_off_c, 2, 74, 0
2, 1026, Note_on_c, 2, 73, 96
2, 1031, Note_off_c, 2, 73, 0
2, 1032, Note_on_c, 2, 82, 96
2, 1053, Note_off_c, 2, 82, 0
2, 1056, Note_on_c, 2, 81, 96
2, 1077, Note_off_c, 2, 81, 0
2, 1080, Note_on_c, 2, 79, 96
2, 1090, Note_off_c, 2, 79, 0
2, 1092, Note_on_c, 2, 77, 96
2, 1102, Note_off_c, 2, 77, 0
2, 1104, Note_on_c, 2, 76, 96
2, 1114, Note_off_c, 2, 76, 0
2, 1116, Note_on_c, 2, 74, 96
2, 1126, Note_off_c, 2, 74, 0
2, 1128, Note_on_c, 2, 73, 96
2, 1138, Note_off_c, 2, 73, 0
2, 1140, Note_on_c, 2, 74, 96
2, 1150, Note_off_c, 2, 74, 0
2, 1152, Note_on_c, 2, 76, 96
2, 1173, Note_off_c, 2, 76, 0
2, 1176, Note_on_c, 2, 77, 96
2, 1186, Note_off_c, 2, 77, 0
2, 1188, Note_on_c, 2, 79, 96
2, 1198, Note_off_c, 2, 79, 0
2, 1200, Note_on_c, 2, 77, 96
2, 1221, Note_off_c, 2, 77, 0
2, 1224, Note_on_c, 2, 79, 96
2, 1234, Note_off_c, 2, 79, 0
2, 1236, Note_on_c, 2, 76, 96
2, 1246, Note_off_c, 2, 76, 0
2, 1248, Note_on_c, 2, 77, 49
2, 1290, Note_off_c, 2, 77, 0
2, 1296, Note_on_c, 2, 77, 49
2, 1338, Note_off_c, 2, 77, 0
2, 1344, Note_on_c, 2, 77, 49
2, 1386, Note_off_c, 2, 77, 0
2, 1392, Note_on_c, 2, 77, 49
2, 1434, Note_off_c, 2, 77, 0
2, 1440, Note_on_c, 2, 77, 49
2, 1482, Note_off_c, 2, 77, 0
2, 1488, Note_on_c, 2, 77, 49
2, 1530, Note_off_c, 2, 77, 0
2, 1536, Note_on_c, 2, 78, 49
2, 1578, Note_off_c, 2, 78, 0
2, 1584, Note_on_c, 2, 78, 49
2, 1626, Note_off_c, 2, 78, 0
2, 1632, Note_on_c, 2, 78, 49
2, 1674, Note_off_c, 2, 78, 0
2, 1680, Note_on_c, 2, 78, 49
2, 1722, Note_off_c, 2, 78, 0
2, 1728, Note_on_c, 2, 78, 49
2, 1770, Note_off_c, 2, 78, 0
2, 1776, Note_on_c, 2, 78, 49
2, 1818, Note_off_c, 2, 78, 0
2, 1824, Note_on_c, 2, 79, 49
2, 1866, Note_off_c, 2, 79, 0
2, 1872, Note_on_c, 2, 79, 49
2, 1914, Note_off_c, 2, 79, 0
2, 1920, Note_on_c, 2, 79, 49
2, 1962, Note_off_c, 2, 79, 0
2, 1968, Note_on_c, 2, 79, 49
2, 2010, Note_off_c, 2, 79, 0
2, 2016, Note_on_c, 2, 79, 49
2, 2058, Note_off_c, 2, 79, 0
2, 2064, Note_on_c, 2, 79, 49
2, 2106, Note_off_c, 2, 79, 0
2, 2112, Note_on_c, 2, 81, 49
2, 2196, Note_off_c, 2, 81, 0
2, 2400, Note_on_c, 2, 79, 49
2, 2442, Note_off_c, 2, 79, 0
2, 2448, Note_on_c, 2, 78, 49
2, 2490, Note_off_c, 2, 78, 0
2, 2496, Note_on_c, 2, 79, 49
2, 2580, Note_off_c, 2, 79, 0
2, 2688, Note_on_c, 2, 79, 49
2, 2730, Note_off_c, 2, 79, 0
2, 2736, Note_on_c, 2, 77, 49
2, 2778, Note_off_c, 2, 77, 0
2, 2784, Note_on_c, 2, 79, 49
2, 2868, Note_off_c, 2, 79, 0
2, 2976, Note_on_c, 2, 79, 49
2, 3018, Note_off_c, 2, 79, 0
2, 3024, Note_on_c, 2, 77, 49
2, 3066, Note_off_c, 2, 77, 0
2, 3072, Note_on_c, 2, 79, 49
2, 3156, Note_off_c, 2, 79, 0
2, 3264, Note_on_c, 2, 77, 96
2, 3381, Note_off_c, 2, 77, 0
2, 3384, Note_on_c, 2, 79, 96
2, 3405, Note_off_c, 2, 79, 0
2, 3408, Note_on_c, 2, 77, 96
2, 3429, Note_off_c, 2, 77, 0
2, 3432, Note_on_c, 2, 76, 96
2, 3453, Note_off_c, 2, 76, 0
2, 3456, Note_on_c, 2, 74, 96
2, 3477, Note_off_c, 2, 74, 0
2, 3480, Note_on_c, 2, 72, 96
2, 3501, Note_off_c, 2, 72, 0
2, 3504, Note_on_c, 2, 71, 96
2, 3525, Note_off_c, 2, 71, 0
2, 3528, Note_on_c, 2, 74, 96
2, 3538, Note_off_c, 2, 74, 0
2, 3540, Note_on_c, 2, 72, 96
2, 3550, Note_off_c, 2, 72, 0
2, 3552, Note_on_c, 2, 74, 96
2, 3690, Note_off_c, 2, 74, 0
2, 3696, Note_on_c, 2, 76, 96
2, 3717, Note_off_c, 2, 76, 0
2, 3720, Note_on_c, 2, 77, 96
2, 3741, Note_off_c, 2, 77, 0
2, 3744, Note_on_c, 2, 76, 96
2, 3765, Note_off_c, 2, 76, 0
2, 3768, Note_on_c, 2, 74, 96
2, 3789, Note_off_c, 2, 74, 0
2, 3792, Note_on_c, 2, 72, 96
2, 3813, Note_off_c, 2, 72, 0
2, 3816, Note_on_c, 2, 74, 96
2, 3826, Note_off_c, 2, 74, 0
2, 3828, Note_on_c, 2, 71, 96
2, 3838, Note_off_c, 2, 71, 0
2, 3840, Note_on_c, 2, 72, 96
2, 3850, Note_off_c, 2, 72, 0
2, 3852, Note_on_c, 2, 74, 96
2, 3862, Note_off_c, 2, 74, 0
2, 3864, Note_on_c, 2, 72, 96
2, 3874, Note_off_c, 2, 72, 0
2, 3876, Note_on_c, 2, 71, 96
2, 3886, Note_off_c, 2, 71, 0
2, 3888, Note_on_c, 2, 69, 96
2, 3898, Note_off_c, 2, 69, 0
2, 3900, Note_on_c, 2, 71, 96
2, 3910, Note_off_c, 2, 71, 0
2, 3912, Note_on_c, 2, 68, 96
2, 3922, Note_off_c, 2, 68, 0
2, 3924, Note_on_c, 2, 69, 96
2, 3934, Note_off_c, 2, 69, 0
2, 3936, Note_on_c, 2, 71, 96
2, 3941, Note_off_c, 2, 71, 0
2, 3942, Note_on_c, 2, 69, 96
2, 3947, Note_off_c, 2, 69, 0
2, 3948, Note_on_c, 2, 71, 96
2, 3953, Note_off_c, 2, 71, 0
2, 3954, Note_on_c, 2, 69, 96
2, 3959, Note_off_c, 2, 69, 0
2, 3960, Note_on_c, 2, 71, 96
2, 3965, Note_off_c, 2, 71, 0
2, 3966, Note_on_c, 2, 69, 96
2, 3971, Note_off_c, 2, 69, 0
2, 3972, Note_on_c, 2, 71, 96
2, 3977, Note_off_c, 2, 71, 0
2, 3978, Note_on_c, 2, 69, 96
2, 3983, Note_off_c, 2, 69, 0
2, 3984, Note_on_c, 2, 71, 96
2, 3989, Note_off_c, 2, 71, 0
2, 3990, Note_on_c, 2, 69, 96
2, 3995, Note_off_c, 2, 69, 0
2, 3996, Note_on_c, 2, 71, 96
2, 4001, Note_off_c, 2, 71, 0
2, 4002, Note_on_c, 2, 69, 96
2, 4007, Note_off_c, 2, 69, 0
2, 4008, Note_on_c, 2, 71, 96
2, 4013, Note_off_c, 2, 71, 0
2, 4014, Note_on_c, 2, 69, 96
2, 4019, Note_off_c, 2, 69, 0
2, 4020, Note_on_c, 2, 71, 96
2, 4025, Note_off_c, 2, 71, 0
2, 4026, Note_on_c, 2, 69, 96
2, 4031, Note_off_c, 2, 69, 0
2, 4032, Note_on_c, 2, 69, 96
2, 4053, Note_off_c, 2, 69, 0
2, 4056, Note_on_c, 2, 68, 96
2, 4077, Note_off_c, 2, 68, 0
2, 4080, Note_on_c, 2, 69, 96
2, 4101, Note_off_c, 2, 69, 0
2, 4104, Note_on_c, 2, 71, 96
2, 4114, Note_off_c, 2, 71, 0
2, 4116, Note_on_c, 2, 68, 96
2, 4126, Note_off_c, 2, 68, 0
2, 4128, Note_on_c, 2, 69, 96
2, 4133, Note_off_c, 2, 69, 0
2, 4134, Note_on_c, 2, 68, 96
2, 4139, Note_off_c, 2, 68, 0
2, 4140, Note_on_c, 2, 69, 96
2, 4145, Note_off_c, 2, 69, 0
2, 4146, Note_on_c, 2, 68, 96
2, 4151, Note_off_c, 2, 68, 0
2, 4152, Note_on_c, 2, 69, 96
2, 4157, Note_off_c, 2, 69, 0
2, 4158, Note_on_c, 2, 68, 96
2, 4163, Note_off_c, 2, 68, 0
2, 4164, Note_on_c, 2, 69, 96
2, 4169, Note_off_c, 2, 69, 0
2, 4170, Note_on_c, 2, 68, 96
2, 4175, Note_off_c, 2, 68, 0
2, 4176, Note_on_c, 2, 69, 96
2, 4181, Note_off_c, 2, 69, 0
2, 4182, Note_on_c, 2, 68, 96
2, 4187, Note_off_c, 2, 68, 0
2, 4188, Note_on_c, 2, 69, 96
2, 4193, Note_off_c, 2, 69, 0
2, 4194, Note_on_c, 2, 68, 96
2, 4199, Note_off_c, 2, 68, 0
2, 4200, Note_on_c, 2, 77, 96
2, 4221, Note_off_c, 2, 77, 0
2, 4224, Note_on_c, 2, 76, 96
2, 4245, Note_off_c, 2, 76, 0
2, 4248, Note_on_c, 2, 74, 96
2, 4258, Note_off_c, 2, 74, 0
2, 4260, Note_on_c, 2, 72, 96
2, 4270, Note_off_c, 2, 72, 0
2, 4272, Note_on_c, 2, 71, 96
2, 4282, Note_off_c, 2, 71, 0
2, 4284, Note_on_c, 2, 69, 96
2, 4294, Note_off_c, 2, 69, 0
2, 4296, Note_on_c, 2, 68, 96
2, 4306, Note_off_c, 2, 68, 0
2, 4308, Note_on_c, 2, 69, 96
2, 4318, Note_off_c, 2, 69, 0
2, 4320, Note_on_c, 2, 71, 96
2, 4341, Note_off_c, 2, 71, 0
2, 4344, Note_on_c, 2, 72, 96
2, 4354, Note_off_c, 2, 72, 0
2, 4356, Note_on_c, 2, 74, 96
2, 4366, Note_off_c, 2, 74, 0
2, 4368, Note_on_c, 2, 72, 96
2, 4389, Note_off_c, 2, 72, 0
2, 4392, Note_on_c, 2, 74, 96
2, 4402, Note_off_c, 2, 74, 0
2, 4404, Note_on_c, 2, 71, 96
2, 4414, Note_off_c, 2, 71, 0
2, 4416, Note_on_c, 2, 72, 96
2, 4548, Note_off_c, 2, 72, 0
2, 4560, Note_on_c, 2, 71, 96
2, 4602, Note_off_c, 2, 71, 0
2, 4608, Note_on_c, 2, 70, 96
2, 4650, Note_off_c, 2, 70, 0
2, 4656, Note_on_c, 2, 69, 96
2, 4698, Note_off_c, 2, 69, 0
2, 4704, Note_on_c, 2, 69, 96
2, 4788, Note_off_c, 2, 69, 0
2, 4800, Note_on_c, 2, 81, 96
2, 5013, Note_off_c, 2, 81, 0
2, 5016, Note_on_c, 2, 80, 96
2, 5037, Note_off_c, 2, 80, 0
2, 5040, Note_on_c, 2, 81, 96
2, 5061, Note_off_c, 2, 81, 0
2, 5064, Note_on_c, 2, 78, 96
2, 5085, Note_off_c, 2, 78, 0
2, 5088, Note_on_c, 2, 79, 96
2, 5109, Note_off_c, 2, 79, 0
2, 5112, Note_on_c, 2, 76, 96
2, 5133, Note_off_c, 2, 76, 0
2, 5136, Note_on_c, 2, 77, 96
2, 5157, Note_off_c, 2, 77, 0
2, 5160, Note_on_c, 2, 75, 96
2, 5181, Note_off_c, 2, 75, 0
2, 5184, Note_on_c, 2, 76, 96
2, 5322, Note_off_c, 2, 76, 0
2, 5328, Note_on_c, 2, 77, 96
2, 5370, Note_off_c, 2, 77, 0
2, 5376, Note_on_c, 2, 71, 96
2, 5508, Note_off_c, 2, 71, 0
2, 5520, Note_on_c, 2, 69, 96
2, 5562, Note_off_c, 2, 69, 0
2, 5568, Note_on_c, 2, 69, 49
2, 5652, Note_off_c, 2, 69, 0
2, 5664, Note_on_c, 2, 72, 49
2, 5706, Note_off_c, 2, 72, 0
2, 5712, Note_on_c, 2, 71, 49
2, 5754, Note_off_c, 2, 71, 0
2, 5760, Note_on_c, 2, 72, 49
2, 5844, Note_off_c, 2, 72, 0
2, 5952, Note_on_c, 2, 73, 49
2, 5994, Note_off_c, 2, 73, 0
2, 6000, Note_on_c, 2, 71, 49
2, 6042, Note_off_c, 2, 71, 0
2, 6048, Note_on_c, 2, 73, 49
2, 6132, Note_off_c, 2, 73, 0
2, 6240, Note_on_c, 2, 74, 49
2, 6282, Note_off_c, 2, 74, 0
2, 6288, Note_on_c, 2, 73, 49
2, 6330, Note_off_c, 2, 73, 0
2, 6336, Note_on_c, 2, 74, 49
2, 6420, Note_off_c, 2, 74, 0
2, 6528, Note_on_c, 2, 82, 96
2, 6645, Note_off_c, 2, 82, 0
2, 6648, Note_on_c, 2, 84, 96
2, 6669, Note_off_c, 2, 84, 0
2, 6672, Note_on_c, 2, 82, 96
2, 6693, Note_off_c, 2, 82, 0
2, 6696, Note_on_c, 2, 81, 96
2, 6717, Note_off_c, 2, 81, 0
2, 6720, Note_on_c, 2, 79, 96
2, 6741, Note_off_c, 2, 79, 0
2, 6744, Note_on_c, 2, 77, 96
2, 6765, Note_off_c, 2, 77, 0
2, 6768, Note_on_c, 2, 76, 96
2, 6789, Note_off_c, 2, 76, 0
2, 6792, Note_on_c, 2, 79, 96
2, 6802, Note_off_c, 2, 79, 0
2, 6804, Note_on_c, 2, 77, 96
2, 6814, Note_off_c, 2, 77, 0
2, 6816, Note_on_c, 2, 79, 96
2, 6954, Note_off_c, 2, 79, 0
2, 6960, Note_on_c, 2, 81, 96
2, 6981, Note_off_c, 2, 81, 0
2, 6984, Note_on_c, 2, 82, 96
2, 7005, Note_off_c, 2, 82, 0
2, 7008, Note_on_c, 2, 81, 96
2, 7029, Note_off_c, 2, 81, 0
2, 7032, Note_on_c, 2, 79, 96
2, 7053, Note_off_c, 2, 79, 0
2, 7056, Note_on_c, 2, 77, 96
2, 7077, Note_off_c, 2, 77, 0
2, 7080, Note_on_c, 2, 79, 96
2, 7090, Note_off_c, 2, 79, 0
2, 7092, Note_on_c, 2, 76, 96
2, 7102, Note_off_c, 2, 76, 0
2, 7104, Note_on_c, 2, 77, 96
2, 7125, Note_off_c, 2, 77, 0
2, 7128, Note_on_c, 2, 79, 96
2, 7149, Note_off_c, 2, 79, 0
2, 7152, Note_on_c, 2, 77, 96
2, 7173, Note_off_c, 2, 77, 0
2, 7176, Note_on_c, 2, 76, 96
2, 7197, Note_off_c, 2, 76, 0
2, 7200, Note_on_c, 2, 74, 96
2, 7221, Note_off_c, 2, 74, 0
2, 7224, Note_on_c, 2, 76, 96
2, 7245, Note_off_c, 2, 76, 0
2, 7248, Note_on_c, 2, 73, 96
2, 7269, Note_off_c, 2, 73, 0
2, 7272, Note_on_c, 2, 74, 96
2, 7293, Note_off_c, 2, 74, 0
2, 7296, Note_on_c, 2, 76, 96
2, 7338, Note_off_c, 2, 76, 0
2, 7344, Note_on_c, 2, 69, 96
2, 7386, Note_off_c, 2, 69, 0
2, 7392, Note_on_c, 2, 81, 96
2, 7413, Note_off_c, 2, 81, 0
2, 7416, Note_on_c, 2, 82, 96
2, 7426, Note_off_c, 2, 82, 0
2, 7428, Note_on_c, 2, 81, 96
2, 7438, Note_off_c, 2, 81, 0
2, 7440, Note_on_c, 2, 79, 96
2, 7450, Note_off_c, 2, 79, 0
2, 7452, Note_on_c, 2, 77, 96
2, 7462, Note_off_c, 2, 77, 0
2, 7464, Note_on_c, 2, 76, 96
2, 7474, Note_off_c, 2, 76, 0
2, 7476, Note_on_c, 2, 74, 96
2, 7486, Note_off_c, 2, 74, 0
2, 7488, Note_on_c, 2, 73, 96
2, 7509, Note_off_c, 2, 73, 0
2, 7512, Note_on_c, 2, 74, 96
2, 7522, Note_off_c, 2, 74, 0
2, 7524, Note_on_c, 2, 76, 96
2, 7534, Note_off_c, 2, 76, 0
2, 7536, Note_on_c, 2, 74, 96
2, 7557, Note_off_c, 2, 74, 0
2, 7560, Note_on_c, 2, 76, 96
2, 7570, Note_off_c, 2, 76, 0
2, 7572, Note_on_c, 2, 73, 96
2, 7582, Note_off_c, 2, 73, 0
2, 7584, Note_on_c, 2, 74, 96
2, 7647, Note_off_c, 2, 74, 0
2, 7656, Note_on_c, 2, 75, 96
2, 7677, Note_off_c, 2, 75, 0
2, 7680, Note_on_c, 2, 74, 96
2, 7701, Note_off_c, 2, 74, 0
2, 7704, Note_on_c, 2, 72, 96
2, 7714, Note_off_c, 2, 72, 0
2, 7716, Note_on_c, 2, 70, 96
2, 7726, Note_off_c, 2, 70, 0
2, 7728, Note_on_c, 2, 69, 96
2, 7738, Note_off_c, 2, 69, 0
2, 7740, Note_on_c, 2, 67, 96
2, 7750, Note_off_c, 2, 67, 0
2, 7752, Note_on_c, 2, 66, 96
2, 7762, Note_off_c, 2, 66, 0
2, 7764, Note_on_c, 2, 67, 96
2, 7774, Note_off_c, 2, 67, 0
2, 7776, Note_on_c, 2, 69, 96
2, 7797, Note_off_c, 2, 69, 0
2, 7800, Note_on_c, 2, 70, 96
2, 7810, Note_off_c, 2, 70, 0
2, 7812, Note_on_c, 2, 72, 96
2, 7822, Note_off_c, 2, 72, 0
2, 7824, Note_on_c, 2, 70, 96
2, 7845, Note_off_c, 2, 70, 0
2, 7848, Note_on_c, 2, 72, 96
2, 7858, Note_off_c, 2, 72, 0
2, 7860, Note_on_c, 2, 69, 96
2, 7870, Note_off_c, 2, 69, 0
2, 7872, Note_on_c, 2, 70, 96
2, 8004, Note_off_c, 2, 70, 0
2, 8016, Note_on_c, 2, 69, 96
2, 8058, Note_off_c, 2, 69, 0
2, 8064, Note_on_c, 2, 68, 96
2, 8106, Note_off_c, 2, 68, 0
2, 8112, Note_on_c, 2, 67, 96
2, 8154, Note_off_c, 2, 67, 0
2, 8160, Note_on_c, 2, 67, 96
2, 8244, Note_off_c, 2, 67, 0
2, 8256, Note_on_c, 2, 79, 96
2, 8373, Note_off_c, 2, 79, 0
2, 8376, Note_on_c, 2, 76, 96
2, 8397, Note_off_c, 2, 76, 0
2, 8400, Note_on_c, 2, 77, 96
2, 8421, Note_off_c, 2, 77, 0
2, 8424, Note_on_c, 2, 74, 96
2, 8445, Note_off_c, 2, 74, 0
2, 8448, Note_on_c, 2, 75, 96
2, 8469, Note_off_c, 2, 75, 0
2, 8472, Note_on_c, 2, 73, 96
2, 8493, Note_off_c, 2, 73, 0
2, 8496, Note_on_c, 2, 74, 96
2, 8517, Note_off_c, 2, 74, 0
2, 8520, Note_on_c, 2, 76, 96
2, 8541, Note_off_c, 2, 76, 0
2, 8544, Note_on_c, 2, 74, 96
2, 8549, Note_off_c, 2, 74, 0
2, 8550, Note_on_c, 2, 73, 96
2, 8555, Note_off_c, 2, 73, 0
2, 8556, Note_on_c, 2, 74, 96
2, 8561, Note_off_c, 2, 74, 0
2, 8562, Note_on_c, 2, 73, 96
2, 8567, Note_off_c, 2, 73, 0
2, 8568, Note_on_c, 2, 74, 96
2, 8573, Note_off_c, 2, 74, 0
2, 8574, Note_on_c, 2, 73, 96
2, 8579, Note_off_c, 2, 73, 0
2, 8580, Note_on_c, 2, 74, 96
2, 8585, Note_off_c, 2, 74, 0
2, 8586, Note_on_c, 2, 73, 96
2, 8591, Note_off_c, 2, 73, 0
2, 8592, Note_on_c, 2, 74, 96
2, 8597, Note_off_c, 2, 74, 0
2, 8598, Note_on_c, 2, 73, 96
2, 8603, Note_off_c, 2, 73, 0
2, 8604, Note_on_c, 2, 74, 96
2, 8609, Note_off_c, 2, 74, 0
2, 8610, Note_on_c, 2, 73, 96
2, 8615, Note_off_c, 2, 73, 0
2, 8616, Note_on_c, 2, 74, 96
2, 8621, Note_off_c, 2, 74, 0
2, 8622, Note_on_c, 2, 73, 96
2, 8627, Note_off_c, 2, 73, 0
2, 8628, Note_on_c, 2, 74, 96
2, 8633, Note_off_c, 2, 74, 0
2, 8634, Note_on_c, 2, 73, 96
2, 8639, Note_off_c, 2, 73, 0
2, 8640, Note_on_c, 2, 74, 96
2, 8645, Note_off_c, 2, 74, 0
2, 8646, Note_on_c, 2, 73, 96
2, 8651, Note_off_c, 2, 73, 0
2, 8652, Note_on_c, 2, 74, 96
2, 8657, Note_off_c, 2, 74, 0
2, 8658, Note_on_c, 2, 73, 96
2, 8663, Note_off_c, 2, 73, 0
2, 8664, Note_on_c, 2, 74, 96
2, 8669, Note_off_c, 2, 74, 0
2, 8670, Note_on_c, 2, 73, 96
2, 8675, Note_off_c, 2, 73, 0
2, 8676, Note_on_c, 2, 74, 96
2, 8681, Note_off_c, 2, 74, 0
2, 8682, Note_on_c, 2, 73, 96
2, 8687, Note_off_c, 2, 73, 0
2, 8688, Note_on_c, 2, 74, 96
2, 8730, Note_off_c, 2, 74, 0
2, 8736, Note_on_c, 2, 74, 49
2, 8778, Note_off_c, 2, 74, 0
2, 8784, Note_on_c, 2, 73, 49
2, 8826, Note_off_c, 2, 73, 0
2, 8832, Note_on_c, 2, 74, 49
2, 8916, Note_off_c, 2, 74, 0
2, 9024, Note_on_c, 2, 74, 49
2, 9066, Note_off_c, 2, 74, 0
2, 9072, Note_on_c, 2, 72, 49
2, 9114, Note_off_c, 2, 72, 0
2, 9120, Note_on_c, 2, 74, 49
2, 9204, Note_off_c, 2, 74, 0
2, 9312, Note_on_c, 2, 74, 49
2, 9354, Note_off_c, 2, 74, 0
2, 9360, Note_on_c, 2, 72, 49
2, 9402, Note_off_c, 2, 72, 0
2, 9408, Note_on_c, 2, 74, 49
2, 9492, Note_off_c, 2, 74, 0
2, 9600, Note_on_c, 2, 82, 96
2, 9706, Note_off_c, 2, 82, 0
2, 9708, Note_on_c, 2, 81, 96
2, 9718, Note_off_c, 2, 81, 0
2, 9720, Note_on_c, 2, 79, 96
2, 9730, Note_off_c, 2, 79, 0
2, 9732, Note_on_c, 2, 77, 96
2, 9742, Note_off_c, 2, 77, 0
2, 9744, Note_on_c, 2, 76, 96
2, 9754, Note_off_c, 2, 76, 0
2, 9756, Note_on_c, 2, 74, 96
2, 9766, Note_off_c, 2, 74, 0
2, 9768, Note_on_c, 2, 73, 96
2, 9778, Note_off_c, 2, 73, 0
2, 9780, Note_on_c, 2, 74, 96
2, 9790, Note_off_c, 2, 74, 0
2, 9792, Note_on_c, 2, 76, 96
2, 9802, Note_off_c, 2, 76, 0
2, 9804, Note_on_c, 2, 69, 96
2, 9814, Note_off_c, 2, 69, 0
2, 9816, Note_on_c, 2, 71, 96
2, 9826, Note_off_c, 2, 71, 0
2, 9828, Note_on_c, 2, 73, 96
2, 9838, Note_off_c, 2, 73, 0
2, 9840, Note_on_c, 2, 74, 96
2, 9850, Note_off_c, 2, 74, 0
2, 9852, Note_on_c, 2, 76, 96
2, 9862, Note_off_c, 2, 76, 0
2, 9864, Note_on_c, 2, 77, 96
2, 9874, Note_off_c, 2, 77, 0
2, 9876, Note_on_c, 2, 79, 96
2, 9881, Note_off_c, 2, 79, 0
2, 9882, Note_on_c, 2, 76, 96
2, 9887, Note_off_c, 2, 76, 0
2, 9888, Note_on_c, 2, 77, 49
2, 9951, Note_off_c, 2, 77, 0
2, 9960, Note_on_c, 2, 79, 49
2, 9981, Note_off_c, 2, 79, 0
2, 9984, Note_on_c, 2, 73, 49
2, 10116, Note_off_c, 2, 73, 0
2, 10128, Note_on_c, 2, 74, 49
2, 10170, Note_off_c, 2, 74, 0
2, 10272, Note_on_c, 2, 70, 36
2, 10356, Note_off_c, 2, 70, 0
2, 10560, Note_on_c, 2, 69, 36
2, 10644, Note_off_c, 2, 69, 0
2, 10848, Note_on_c, 2, 74, 75
2, 10932, Note_off_c, 2, 74, 0
2, 11040, Note_on_c, 2, 73, 75
2, 11316, Note_off_c, 2, 73, 0
2, 11316, End_track
3, 0, Start_track
3, 0, Title_t, "Oboe II | Darrell Goforth"
3, 0, Control_c, 3, 0, 0
3, 0, Program_c, 3, 68
3, 0, Time_signature, 3, 2, 96, 8
3, 0, Tempo, 1714285
3, 96, Note_on_c, 3, 76, 49
3, 180, Note_off_c, 3, 76, 0
3, 384, Note_on_c, 3, 73, 49
3, 468, Note_off_c, 3, 73, 0
3, 672, Note_on_c, 3, 71, 49
3, 756, Note_off_c, 3, 71, 0
3, 960, Note_on_c, 3, 69, 49
3, 1044, Note_off_c, 3, 69, 0
3, 1056, Note_on_c, 3, 69, 49
3, 1098, Note_off_c, 3, 69, 0
3, 1104, Note_on_c, 3, 71, 49
3, 1146, Note_off_c, 3, 71, 0
3, 1152, Note_on_c, 3, 73, 49
3, 1236, Note_off_c, 3, 73, 0
3, 1248, Note_on_c, 3, 74, 49
3, 1290, Note_off_c, 3, 74, 0
3, 1296, Note_on_c, 3, 74, 49
3, 1338, Note_off_c, 3, 74, 0
3, 1344, Note_on_c, 3, 74, 49
3, 1386, Note_off_c, 3, 74, 0
3, 1392, Note_on_c, 3, 74, 49
3, 1434, Note_off_c, 3, 74, 0
3, 1440, Note_on_c, 3, 74, 49
3, 1482, Note_off_c, 3, 74, 0
3, 1488, Note_on_c, 3, 74, 49
3, 1530, Note_off_c, 3, 74, 0
3, 1536, Note_on_c, 3, 74, 49
3, 1578, Note_off_c, 3, 74, 0
3, 1584, Note_on_c, 3, 74, 49
3, 1626, Note_off_c, 3, 74, 0
3, 1632, Note_on_c, 3, 74, 49
3, 1674, Note_off_c, 3, 74, 0
3, 1680, Note_on_c, 3, 74, 49
3, 1722, Note_off_c, 3, 74, 0
3, 1728, Note_on_c, 3, 74, 49
3, 1770, Note_off_c, 3, 74, 0
3, 1776, Note_on_c, 3, 74, 49
3, 1818, Note_off_c, 3, 74, 0
3, 1824, Note_on_c, 3, 76, 49
3, 1866, Note_off_c, 3, 76, 0
3, 1872, Note_on_c, 3, 76, 49
3, 1914, Note_off_c, 3, 76, 0
3, 1920, Note_on_c, 3, 76, 49
3, 1962, Note_off_c, 3, 76, 0
3, 1968, Note_on_c, 3, 76, 49
3, 2010, Note_off_c, 3, 76, 0
3, 2016, Note_on_c, 3, 76, 49
3, 2058, Note_off_c, 3, 76, 0
3, 2064, Note_on_c, 3, 76, 49
3, 2106, Note_off_c, 3, 76, 0
3, 2112, Note_on_c, 3, 78, 49
3, 2196, Note_off_c, 3, 78, 0
3, 2400, Note_on_c, 3, 74, 49
3, 2442, Note_off_c, 3, 74, 0
3, 2448, Note_on_c, 3, 72, 49
3, 2490, Note_off_c, 3, 72, 0
3, 2496, Note_on_c, 3, 74, 49
3, 2580, Note_off_c, 3, 74, 0
3, 2688, Note_on_c, 3, 74, 49
3, 2730, Note_off_c, 3, 74, 0
3, 2736, Note_on_c, 3, 72, 49
3, 2778, Note_off_c, 3, 72, 0
3, 2784, Note_on_c, 3, 74, 49
3, 2868, Note_off_c, 3, 74, 0
3, 2976, Note_on_c, 3, 75, 49
3, 3018, Note_off_c, 3, 75, 0
3, 3024, Note_on_c, 3, 74, 49
3, 3066, Note_off_c, 3, 74, 0
3, 3072, Note_on_c, 3, 75, 49
3, 3156, Note_off_c, 3, 75, 0
3, 3264, Note_on_c, 3, 74, 49
3, 3348, Note_off_c, 3, 74, 0
3, 3552, Note_on_c, 3, 71, 49
3, 3636, Note_off_c, 3, 71, 0
3, 3840, Note_on_c, 3, 69, 49
3, 3924, Note_off_c, 3, 69, 0
3, 4128, Note_on_c, 3, 71, 49
3, 4170, Note_off_c, 3, 71, 0
3, 4176, Note_on_c, 3, 68, 49
3, 4218, Note_off_c, 3, 68, 0
3, 4224, Note_on_c, 3, 69, 49
3, 4308, Note_off_c, 3, 69, 0
3, 4320, Note_on_c, 3, 62, 49
3, 4404, Note_off_c, 3, 62, 0
3, 4416, Note_on_c, 3, 69, 49
3, 4500, Note_off_c, 3, 69, 0
3, 4704, Note_on_c, 3, 74, 49
3, 4788, Note_off_c, 3, 74, 0
3, 4800, Note_on_c, 3, 72, 49
3, 4980, Note_off_c, 3, 72, 0
3, 4992, Note_on_c, 3, 69, 49
3, 5076, Note_off_c, 3, 69, 0
3, 5088, Note_on_c, 3, 71, 49
3, 5172, Note_off_c, 3, 71, 0
3, 5184, Note_on_c, 3, 64, 49
3, 5268, Note_off_c, 3, 64, 0
3, 5280, Note_on_c, 3, 62, 49
3, 5364, Note_off_c, 3, 62, 0
3, 5376, Note_on_c, 3, 62, 49
3, 5460, Note_off_c, 3, 62, 0
3, 5472, Note_on_c, 3, 62, 49
3, 5556, Note_off_c, 3, 62, 0
3, 5568, Note_on_c, 3, 60, 49
3, 5652, Note_off_c, 3, 60, 0
3, 5664, Note_on_c, 3, 69, 49
3, 5706, Note_off_c, 3, 69, 0
3, 5712, Note_on_c, 3, 68, 49
3, 5754, Note_off_c, 3, 68, 0
3, 5760, Note_on_c, 3, 69, 49
3, 5844, Note_off_c, 3, 69, 0
3, 5952, Note_on_c, 3, 69, 49
3, 5994, Note_off_c, 3, 69, 0
3, 6000, Note_on_c, 3, 67, 49
3, 6042, Note_off_c, 3, 67, 0
3, 6048, Note_on_c, 3, 69, 49
3, 6132, Note_off_c, 3, 69, 0
3, 6240, Note_on_c, 3, 69, 49
3, 6282, Note_off_c, 3, 69, 0
3, 6288, Note_on_c, 3, 67, 49
3, 6330, Note_off_c, 3, 67, 0
3, 6336, Note_on_c, 3, 69, 49
3, 6420, Note_off_c, 3, 69, 0
3, 6528, Note_on_c, 3, 79, 49
3, 6612, Note_off_c, 3, 79, 0
3, 6816, Note_on_c, 3, 76, 49
3, 6900, Note_off_c, 3, 76, 0
3, 7104, Note_on_c, 3, 74, 49
3, 7188, Note_off_c, 3, 74, 0
3, 7296, Note_on_c, 3, 73, 49
3, 7380, Note_off_c, 3, 73, 0
3, 7584, Note_on_c, 3, 77, 49
3, 7668, Note_off_c, 3, 77, 0
3, 7680, Note_on_c, 3, 70, 49
3, 7764, Note_off_c, 3, 70, 0
3, 7776, Note_on_c, 3, 69, 49
3, 7860, Note_off_c, 3, 69, 0
3, 7872, Note_on_c, 3, 67, 49
3, 7956, Note_off_c, 3, 67, 0
3, 8160, Note_on_c, 3, 71, 49
3, 8244, Note_off_c, 3, 71, 0
3, 8256, Note_on_c, 3, 76, 49
3, 8298, Note_off_c, 3, 76, 0
3, 8304, Note_on_c, 3, 73, 49
3, 8346, Note_off_c, 3, 73, 0
3, 8352, Note_on_c, 3, 74, 49
3, 8394, Note_off_c, 3, 74, 0
3, 8400, Note_on_c, 3, 69, 49
3, 8442, Note_off_c, 3, 69, 0
3, 8448, Note_on_c, 3, 70, 49
3, 8490, Note_off_c, 3, 70, 0
3, 8496, Note_on_c, 3, 74, 49
3, 8538, Note_off_c, 3, 74, 0
3, 8544, Note_on_c, 3, 69, 49
3, 8628, Note_off_c, 3, 69, 0
3, 8640, Note_on_c, 3, 69, 49
3, 8724, Note_off_c, 3, 69, 0
3, 8736, Note_on_c, 3, 69, 49
3, 8778, Note_off_c, 3, 69, 0
3, 8784, Note_on_c, 3, 67, 49
3, 8826, Note_off_c, 3, 67, 0
3, 8832, Note_on_c, 3, 69, 49
3, 8916, Note_off_c, 3, 69, 0
3, 9024, Note_on_c, 3, 69, 49
3, 9066, Note_off_c, 3, 69, 0
3, 9072, Note_on_c, 3, 67, 49
3, 9114, Note_off_c, 3, 67, 0
3, 9120, Note_on_c, 3, 69, 49
3, 9204, Note_off_c, 3, 69, 0
3, 9312, Note_on_c, 3, 70, 49
3, 9354, Note_off_c, 3, 70, 0
3, 9360, Note_on_c, 3, 69, 49
3, 9402, Note_off_c, 3, 69, 0
3, 9408, Note_on_c, 3, 70, 49
3, 9492, Note_off_c, 3, 70, 0
3, 9600, Note_on_c, 3, 67, 49
3, 9780, Note_off_c, 3, 67, 0
3, 9888, Note_on_c, 3, 74, 49
3, 9930, Note_off_c, 3, 74, 0
3, 9936, Note_on_c, 3, 70, 49
3, 9978, Note_off_c, 3, 70, 0
3, 9984, Note_on_c, 3, 69, 49
3, 10068, Note_off_c, 3, 69, 0
3, 10080, Note_on_c, 3, 69, 49
3, 10085, Note_off_c, 3, 69, 0
3, 10086, Note_on_c, 3, 67, 49
3, 10091, Note_off_c, 3, 67, 0
3, 10092, Note_on_c, 3, 69, 49
3, 10097, Note_off_c, 3, 69, 0
3, 10098, Note_on_c, 3, 67, 49
3, 10103, Note_off_c, 3, 67, 0
3, 10104, Note_on_c, 3, 69, 49
3, 10109, Note_off_c, 3, 69, 0
3, 10110, Note_on_c, 3, 67, 49
3, 10115, Note_off_c, 3, 67, 0
3, 10116, Note_on_c, 3, 69, 49
3, 10121, Note_off_c, 3, 69, 0
3, 10122, Note_on_c, 3, 67, 49
3, 10127, Note_off_c, 3, 67, 0
3, 10128, Note_on_c, 3, 69, 49
3, 10133, Note_off_c, 3, 69, 0
3, 10134, Note_on_c, 3, 67, 49
3, 10139, Note_off_c, 3, 67, 0
3, 10140, Note_on_c, 3, 69, 49
3, 10145, Note_off_c, 3, 69, 0
3, 10146, Note_on_c, 3, 67, 49
3, 10151, Note_off_c, 3, 67, 0
3, 10152, Note_on_c, 3, 69, 49
3, 10157, Note_off_c, 3, 69, 0
3, 10158, Note_on_c, 3, 67, 49
3, 10163, Note_off_c, 3, 67, 0
3, 10164, Note_on_c, 3, 69, 49
3, 10169, Note_off_c, 3, 69, 0
3, 10170, Note_on_c, 3, 67, 49
3, 10175, Note_off_c, 3, 67, 0
3, 10272, Note_on_c, 3, 65, 36
3, 10356, Note_off_c, 3, 65, 0
3, 10560, Note_on_c, 3, 64, 36
3, 10644, Note_off_c, 3, 64, 0
3, 10848, Note_on_c, 3, 67, 75
3, 10932, Note_off_c, 3, 67, 0
3, 11040, Note_on_c, 3, 69, 75
3, 11316, Note_off_c, 3, 69, 0
3, 11316, End_track
4, 0, Start_track
4, 0, Title_t, "dgo4th@earthlink.net"
4, 0, Control_c, 4, 0, 0
4, 0, Program_c, 4, 68
4, 0, Time_signature, 3, 2, 96, 8
4, 0, Tempo, 1714285
4, 96, Note_on_c, 4, 73, 49
4, 180, Note_off_c, 4, 73, 0
4, 384, Note_on_c, 4, 64, 49
4, 468, Note_off_c, 4, 64, 0
4, 672, Note_on_c, 4, 68, 49
4, 756, Note_off_c, 4, 68, 0
4, 960, Note_on_c, 4, 64, 49
4, 1044, Note_off_c, 4, 64, 0
4, 1056, Note_on_c, 4, 65, 49
4, 1140, Note_off_c, 4, 65, 0
4, 1152, Note_on_c, 4, 67, 49
4, 1236, Note_off_c, 4, 67, 0
4, 1248, Note_on_c, 4, 69, 49
4, 1290, Note_off_c, 4, 69, 0
4, 1296, Note_on_c, 4, 69, 49
4, 1338, Note_off_c, 4, 69, 0
4, 1344, Note_on_c, 4, 69, 49
4, 1386, Note_off_c, 4, 69, 0
4, 1392, Note_on_c, 4, 69, 49
4, 1434, Note_off_c, 4, 69, 0
4, 1440, Note_on_c, 4, 69, 49
4, 1482, Note_off_c, 4, 69, 0
4, 1488, Note_on_c, 4, 69, 49
4, 1530, Note_off_c, 4, 69, 0
4, 1536, Note_on_c, 4, 69, 49
4, 1578, Note_off_c, 4, 69, 0
4, 1584, Note_on_c, 4, 69, 49
4, 1626, Note_off_c, 4, 69, 0
4, 1632, Note_on_c, 4, 69, 49
4, 1674, Note_off_c, 4, 69, 0
4, 1680, Note_on_c, 4, 69, 49
4, 1722, Note_off_c, 4, 69, 0
4, 1728, Note_on_c, 4, 69, 49
4, 1770, Note_off_c, 4, 69, 0
4, 1776, Note_on_c, 4, 69, 49
4, 1818, Note_off_c, 4, 69, 0
4, 1824, Note_on_c, 4, 67, 49
4, 1866, Note_off_c, 4, 67, 0
4, 1872, Note_on_c, 4, 67, 49
4, 1914, Note_off_c, 4, 67, 0
4, 1920, Note_on_c, 4, 67, 49
4, 1962, Note_off_c, 4, 67, 0
4, 1968, Note_on_c, 4, 67, 49
4, 2010, Note_off_c, 4, 67, 0
4, 2016, Note_on_c, 4, 67, 49
4, 2058, Note_off_c, 4, 67, 0
4, 2064, Note_on_c, 4, 67, 49
4, 2106, Note_off_c, 4, 67, 0
4, 2112, Note_on_c, 4, 74, 49
4, 2196, Note_off_c, 4, 74, 0
4, 2400, Note_on_c, 4, 70, 49
4, 2442, Note_off_c, 4, 70, 0
4, 2448, Note_on_c, 4, 69, 49
4, 2490, Note_off_c, 4, 69, 0
4, 2496, Note_on_c, 4, 70, 49
4, 2580, Note_off_c, 4, 70, 0
4, 2688, Note_on_c, 4, 71, 49
4, 2730, Note_off_c, 4, 71, 0
4, 2736, Note_on_c, 4, 69, 49
4, 2778, Note_off_c, 4, 69, 0
4, 2784, Note_on_c, 4, 71, 49
4, 2868, Note_off_c, 4, 71, 0
4, 2976, Note_on_c, 4, 72, 49
4, 3018, Note_off_c, 4, 72, 0
4, 3024, Note_on_c, 4, 71, 49
4, 3066, Note_off_c, 4, 71, 0
4, 3072, Note_on_c, 4, 72, 49
4, 3156, Note_off_c, 4, 72, 0
4, 3264, Note_on_c, 4, 71, 49
4, 3348, Note_off_c, 4, 71, 0
4, 3552, Note_on_c, 4, 68, 49
4, 3636, Note_off_c, 4, 68, 0
4, 3840, Note_on_c, 4, 64, 49
4, 3924, Note_off_c, 4, 64, 0
4, 4128, Note_on_c, 4, 64, 49
4, 4212, Note_off_c, 4, 64, 0
4, 4224, Note_on_c, 4, 64, 49
4, 4266, Note_off_c, 4, 64, 0
4, 4272, Note_on_c, 4, 66, 49
4, 4314, Note_off_c, 4, 66, 0
4, 4320, Note_on_c, 4, 68, 49
4, 4404, Note_off_c, 4, 68, 0
4, 4416, Note_on_c, 4, 64, 49
4, 4500, Note_off_c, 4, 64, 0
4, 4704, Note_on_c, 4, 65, 49
4, 4788, Note_off_c, 4, 65, 0
4, 4800, Note_on_c, 4, 69, 49
4, 4980, Note_off_c, 4, 69, 0
4, 4992, Note_on_c, 4, 66, 49
4, 5076, Note_off_c, 4, 66, 0
4, 5088, Note_on_c, 4, 62, 49
4, 5172, Note_off_c, 4, 62, 0
4, 5184, Note_on_c, 4, 69, 49
4, 5268, Note_off_c, 4, 69, 0
4, 5280, Note_on_c, 4, 65, 49
4, 5364, Note_off_c, 4, 65, 0
4, 5376, Note_on_c, 4, 64, 49
4, 5460, Note_off_c, 4, 64, 0
4, 5472, Note_on_c, 4, 64, 49
4, 5556, Note_off_c, 4, 64, 0
4, 5568, Note_on_c, 4, 64, 49
4, 5652, Note_off_c, 4, 64, 0
4, 5664, Note_on_c, 4, 64, 49
4, 5706, Note_off_c, 4, 64, 0
4, 5712, Note_on_c, 4, 62, 49
4, 5754, Note_off_c, 4, 62, 0
4, 5760, Note_on_c, 4, 64, 49
4, 5844, Note_off_c, 4, 64, 0
4, 5952, Note_on_c, 4, 64, 49
4, 5994, Note_off_c, 4, 64, 0
4, 6000, Note_on_c, 4, 62, 49
4, 6042, Note_off_c, 4, 62, 0
4, 6048, Note_on_c, 4, 64, 49
4, 6132, Note_off_c, 4, 64, 0
4, 6240, Note_on_c, 4, 65, 49
4, 6282, Note_off_c, 4, 65, 0
4, 6288, Note_on_c, 4, 64, 49
4, 6330, Note_off_c, 4, 64, 0
4, 6336, Note_on_c, 4, 65, 49
4, 6420, Note_off_c, 4, 65, 0
4, 6528, Note_on_c, 4, 74, 49
4, 6612, Note_off_c, 4, 74, 0
4, 6816, Note_on_c, 4, 69, 49
4, 6900, Note_off_c, 4, 69, 0
4, 7104, Note_on_c, 4, 71, 49
4, 7188, Note_off_c, 4, 71, 0
4, 7296, Note_on_c, 4, 69, 49
4, 7380, Note_off_c, 4, 69, 0
4, 7584, Note_on_c, 4, 69, 49
4, 7668, Note_off_c, 4, 69, 0
4, 7680, Note_on_c, 4, 67, 49
4, 7764, Note_off_c, 4, 67, 0
4, 7776, Note_on_c, 4, 62, 49
4, 7860, Note_off_c, 4, 62, 0
4, 7872, Note_on_c, 4, 62, 49
4, 7956, Note_off_c, 4, 62, 0
4, 8160, Note_on_c, 4, 62, 49
4, 8244, Note_off_c, 4, 62, 0
4, 8256, Note_on_c, 4, 67, 49
4, 8298, Note_off_c, 4, 67, 0
4, 8304, Note_on_c, 4, 64, 49
4, 8346, Note_off_c, 4, 64, 0
4, 8352, Note_on_c, 4, 69, 49
4, 8436, Note_off_c, 4, 69, 0
4, 8448, Note_on_c, 4, 67, 49
4, 8490, Note_off_c, 4, 67, 0
4, 8496, Note_on_c, 4, 65, 49
4, 8538, Note_off_c, 4, 65, 0
4, 8544, Note_on_c, 4, 64, 49
4, 8628, Note_off_c, 4, 64, 0
4, 8640, Note_on_c, 4, 64, 49
4, 8724, Note_off_c, 4, 64, 0
4, 8736, Note_on_c, 4, 65, 49
4, 8778, Note_off_c, 4, 65, 0
4, 8784, Note_on_c, 4, 64, 49
4, 8826, Note_off_c, 4, 64, 0
4, 8832, Note_on_c, 4, 65, 49
4, 8916, Note_off_c, 4, 65, 0
4, 9024, Note_on_c, 4, 66, 49
4, 9066, Note_off_c, 4, 66, 0
4, 9072, Note_on_c, 4, 64, 49
4, 9114, Note_off_c, 4, 64, 0
4, 9120, Note_on_c, 4, 66, 49
4, 9204, Note_off_c, 4, 66, 0
4, 9312, Note_on_c, 4, 67, 49
4, 9354, Note_off_c, 4, 67, 0
4, 9360, Note_on_c, 4, 66, 49
4, 9402, Note_off_c, 4, 66, 0
4, 9408, Note_on_c, 4, 67, 49
4, 9492, Note_off_c, 4, 67, 0
4, 9600, Note_on_c, 4, 64, 49
4, 9780, Note_off_c, 4, 64, 0
4, 9888, Note_on_c, 4, 69, 49
4, 9930, Note_off_c, 4, 69, 0
4, 9936, Note_on_c, 4, 67, 49
4, 9978, Note_off_c, 4, 67, 0
4, 9984, Note_on_c, 4, 65, 49
4, 10026, Note_off_c, 4, 65, 0
4, 10032, Note_on_c, 4, 62, 49
4, 10074, Note_off_c, 4, 62, 0
4, 10080, Note_on_c, 4, 64, 49
4, 10164, Note_off_c, 4, 64, 0
4, 10272, Note_on_c, 4, 62, 36
4, 10356, Note_off_c, 4, 62, 0
4, 10560, Note_on_c, 4, 60, 36
4, 10644, Note_off_c, 4, 60, 0
4, 10848, Note_on_c, 4, 70, 75
4, 10932, Note_off_c, 4, 70, 0
4, 11040, Note_on_c, 4, 64, 75
4, 11316, Note_off_c, 4, 64, 0
4, 11316, End_track
5, 0, Start_track
5, 0, Title_t, "Fagotto"
5, 0, Control_c, 5, 0, 0
5, 0, Program_c, 5, 70
5, 0, Time_signature, 3, 2, 96, 8
5, 0, Tempo, 1714285
5, 96, Note_on_c, 5, 45, 49
5, 180, Note_off_c, 5, 45, 0
5, 384, Note_on_c, 5, 45, 49
5, 468, Note_off_c, 5, 45, 0
5, 672, Note_on_c, 5, 45, 49
5, 756, Note_off_c, 5, 45, 0
5, 960, Note_on_c, 5, 43, 49
5, 1002, Note_off_c, 5, 43, 0
5, 1008, Note_on_c, 5, 43, 49
5, 1050, Note_off_c, 5, 43, 0
5, 1056, Note_on_c, 5, 41, 49
5, 1098, Note_off_c, 5, 41, 0
5, 1104, Note_on_c, 5, 41, 49
5, 1146, Note_off_c, 5, 41, 0
5, 1152, Note_on_c, 5, 40, 49
5, 1194, Note_off_c, 5, 40, 0
5, 1200, Note_on_c, 5, 40, 49
5, 1242, Note_off_c, 5, 40, 0
5, 1248, Note_on_c, 5, 38, 49
5, 1332, Note_off_c, 5, 38, 0
5, 1536, Note_on_c, 5, 50, 49
5, 1620, Note_off_c, 5, 50, 0
5, 1824, Note_on_c, 5, 50, 49
5, 1908, Note_off_c, 5, 50, 0
5, 2112, Note_on_c, 5, 48, 49
5, 2154, Note_off_c, 5, 48, 0
5, 2160, Note_on_c, 5, 48, 49
5, 2202, Note_off_c, 5, 48, 0
5, 2208, Note_on_c, 5, 46, 49
5, 2250, Note_off_c, 5, 46, 0
5, 2256, Note_on_c, 5, 46, 49
5, 2298, Note_off_c, 5, 46, 0
5, 2304, Note_on_c, 5, 45, 49
5, 2346, Note_off_c, 5, 45, 0
5, 2352, Note_on_c, 5, 45, 49
5, 2394, Note_off_c, 5, 45, 0
5, 2400, Note_on_c, 5, 55, 75
5, 2538, Note_off_c, 5, 55, 0
5, 2544, Note_on_c, 5, 56, 75
5, 2565, Note_off_c, 5, 56, 0
5, 2568, Note_on_c, 5, 55, 75
5, 2589, Note_off_c, 5, 55, 0
5, 2592, Note_on_c, 5, 53, 75
5, 2613, Note_off_c, 5, 53, 0
5, 2616, Note_on_c, 5, 51, 75
5, 2637, Note_off_c, 5, 51, 0
5, 2640, Note_on_c, 5, 50, 75
5, 2661, Note_off_c, 5, 50, 0
5, 2664, Note_on_c, 5, 53, 75
5, 2674, Note_off_c, 5, 53, 0
5, 2676, Note_on_c, 5, 51, 75
5, 2686, Note_off_c, 5, 51, 0
5, 2688, Note_on_c, 5, 53, 75
5, 2826, Note_off_c, 5, 53, 0
5, 2832, Note_on_c, 5, 55, 75
5, 2853, Note_off_c, 5, 55, 0
5, 2856, Note_on_c, 5, 56, 75
5, 2877, Note_off_c, 5, 56, 0
5, 2880, Note_on_c, 5, 55, 75
5, 2901, Note_off_c, 5, 55, 0
5, 2904, Note_on_c, 5, 53, 75
5, 2925, Note_off_c, 5, 53, 0
5, 2928, Note_on_c, 5, 51, 75
5, 2949, Note_off_c, 5, 51, 0
5, 2952, Note_on_c, 5, 53, 75
5, 2962, Note_off_c, 5, 53, 0
5, 2964, Note_on_c, 5, 50, 75
5, 2974, Note_off_c, 5, 50, 0
5, 2976, Note_on_c, 5, 51, 75
5, 3093, Note_off_c, 5, 51, 0
5, 3096, Note_on_c, 5, 53, 75
5, 3117, Note_off_c, 5, 53, 0
5, 3120, Note_on_c, 5, 51, 75
5, 3141, Note_off_c, 5, 51, 0
5, 3144, Note_on_c, 5, 50, 75
5, 3165, Note_off_c, 5, 50, 0
5, 3168, Note_on_c, 5, 48, 75
5, 3189, Note_off_c, 5, 48, 0
5, 3192, Note_on_c, 5, 50, 75
5, 3213, Note_off_c, 5, 50, 0
5, 3216, Note_on_c, 5, 47, 75
5, 3237, Note_off_c, 5, 47, 0
5, 3240, Note_on_c, 5, 48, 75
5, 3261, Note_off_c, 5, 48, 0
5, 3264, Note_on_c, 5, 44, 49
5, 3306, Note_off_c, 5, 44, 0
5, 3312, Note_on_c, 5, 44, 49
5, 3354, Note_off_c, 5, 44, 0
5, 3360, Note_on_c, 5, 44, 49
5, 3402, Note_off_c, 5, 44, 0
5, 3408, Note_on_c, 5, 44, 49
5, 3450, Note_off_c, 5, 44, 0
5, 3456, Note_on_c, 5, 44, 49
5, 3498, Note_off_c, 5, 44, 0
5, 3504, Note_on_c, 5, 44, 49
5, 3546, Note_off_c, 5, 44, 0
5, 3552, Note_on_c, 5, 40, 49
5, 3594, Note_off_c, 5, 40, 0
5, 3600, Note_on_c, 5, 40, 49
5, 3642, Note_off_c, 5, 40, 0
5, 3648, Note_on_c, 5, 40, 49
5, 3690, Note_off_c, 5, 40, 0
5, 3696, Note_on_c, 5, 40, 49
5, 3738, Note_off_c, 5, 40, 0
5, 3744, Note_on_c, 5, 40, 49
5, 3786, Note_off_c, 5, 40, 0
5, 3792, Note_on_c, 5, 40, 49
5, 3834, Note_off_c, 5, 40, 0
5, 3840, Note_on_c, 5, 40, 49
5, 3882, Note_off_c, 5, 40, 0
5, 3888, Note_on_c, 5, 40, 49
5, 3930, Note_off_c, 5, 40, 0
5, 3936, Note_on_c, 5, 39, 49
5, 3978, Note_off_c, 5, 39, 0
5, 3984, Note_on_c, 5, 39, 49
5, 4026, Note_off_c, 5, 39, 0
5, 4032, Note_on_c, 5, 39, 49
5, 4074, Note_off_c, 5, 39, 0
5, 4080, Note_on_c, 5, 39, 49
5, 4122, Note_off_c, 5, 39, 0
5, 4128, Note_on_c, 5, 50, 49
5, 4170, Note_off_c, 5, 50, 0
5, 4176, Note_on_c, 5, 50, 49
5, 4218, Note_off_c, 5, 50, 0
5, 4224, Note_on_c, 5, 48, 49
5, 4266, Note_off_c, 5, 48, 0
5, 4272, Note_on_c, 5, 48, 49
5, 4314, Note_off_c, 5, 48, 0
5, 4320, Note_on_c, 5, 47, 49
5, 4362, Note_off_c, 5, 47, 0
5, 4368, Note_on_c, 5, 47, 49
5, 4410, Note_off_c, 5, 47, 0
5, 4416, Note_on_c, 5, 45, 49
5, 4458, Note_off_c, 5, 45, 0
5, 4464, Note_on_c, 5, 45, 49
5, 4506, Note_off_c, 5, 45, 0
5, 4512, Note_on_c, 5, 47, 49
5, 4554, Note_off_c, 5, 47, 0
5, 4560, Note_on_c, 5, 47, 49
5, 4602, Note_off_c, 5, 47, 0
5, 4608, Note_on_c, 5, 49, 49
5, 4650, Note_off_c, 5, 49, 0
5, 4656, Note_on_c, 5, 49, 49
5, 4698, Note_off_c, 5, 49, 0
5, 4704, Note_on_c, 5, 50, 49
5, 4746, Note_off_c, 5, 50, 0
5, 4752, Note_on_c, 5, 50, 49
5, 4794, Note_off_c, 5, 50, 0
5, 4800, Note_on_c, 5, 52, 49
5, 4842, Note_off_c, 5, 52, 0
5, 4848, Note_on_c, 5, 52, 49
5, 4890, Note_off_c, 5, 52, 0
5, 4896, Note_on_c, 5, 54, 49
5, 4938, Note_off_c, 5, 54, 0
5, 4944, Note_on_c, 5, 54, 49
5, 4986, Note_off_c, 5, 54, 0
5, 4992, Note_on_c, 5, 48, 49
5, 5034, Note_off_c, 5, 48, 0
5, 5040, Note_on_c, 5, 48, 49
5, 5082, Note_off_c, 5, 48, 0
5, 5088, Note_on_c, 5, 47, 49
5, 5130, Note_off_c, 5, 47, 0
5, 5136, Note_on_c, 5, 47, 49
5, 5178, Note_off_c, 5, 47, 0
5, 5184, Note_on_c, 5, 45, 49
5, 5226, Note_off_c, 5, 45, 0
5, 5232, Note_on_c, 5, 45, 49
5, 5274, Note_off_c, 5, 45, 0
5, 5280, Note_on_c, 5, 38, 49
5, 5322, Note_off_c, 5, 38, 0
5, 5328, Note_on_c, 5, 38, 49
5, 5370, Note_off_c, 5, 38, 0
5, 5376, Note_on_c, 5, 40, 49
5, 5418, Note_off_c, 5, 40, 0
5, 5424, Note_on_c, 5, 40, 49
5, 5466, Note_off_c, 5, 40, 0
5, 5472, Note_on_c, 5, 40, 49
5, 5514, Note_off_c, 5, 40, 0
5, 5520, Note_on_c, 5, 40, 49
5, 5562, Note_off_c, 5, 40, 0
5, 5568, Note_on_c, 5, 57, 75
5, 5706, Note_off_c, 5, 57, 0
5, 5712, Note_on_c, 5, 58, 75
5, 5733, Note_off_c, 5, 58, 0
5, 5736, Note_on_c, 5, 57, 75
5, 5757, Note_off_c, 5, 57, 0
5, 5760, Note_on_c, 5, 55, 75
5, 5781, Note_off_c, 5, 55, 0
5, 5784, Note_on_c, 5, 53, 75
5, 5805, Note_off_c, 5, 53, 0
5, 5808, Note_on_c, 5, 52, 75
5, 5829, Note_off_c, 5, 52, 0
5, 5832, Note_on_c, 5, 55, 75
5, 5842, Note_off_c, 5, 55, 0
5, 5844, Note_on_c, 5, 53, 75
5, 5854, Note_off_c, 5, 53, 0
5, 5856, Note_on_c, 5, 55, 75
5, 5994, Note_off_c, 5, 55, 0
5, 6000, Note_on_c, 5, 57, 75
5, 6021, Note_off_c, 5, 57, 0
5, 6024, Note_on_c, 5, 58, 75
5, 6045, Note_off_c, 5, 58, 0
5, 6048, Note_on_c, 5, 57, 75
5, 6069, Note_off_c, 5, 57, 0
5, 6072, Note_on_c, 5, 55, 75
5, 6093, Note_off_c, 5, 55, 0
5, 6096, Note_on_c, 5, 53, 75
5, 6117, Note_off_c, 5, 53, 0
5, 6120, Note_on_c, 5, 55, 75
5, 6130, Note_off_c, 5, 55, 0
5, 6132, Note_on_c, 5, 52, 75
5, 6142, Note_off_c, 5, 52, 0
5, 6144, Note_on_c, 5, 53, 75
5, 6261, Note_off_c, 5, 53, 0
5, 6264, Note_on_c, 5, 55, 75
5, 6285, Note_off_c, 5, 55, 0
5, 6288, Note_on_c, 5, 53, 75
5, 6309, Note_off_c, 5, 53, 0
5, 6312, Note_on_c, 5, 52, 75
5, 6333, Note_off_c, 5, 52, 0
5, 6336, Note_on_c, 5, 50, 75
5, 6357, Note_off_c, 5, 50, 0
5, 6360, Note_on_c, 5, 52, 75
5, 6381, Note_off_c, 5, 52, 0
5, 6384, Note_on_c, 5, 49, 75
5, 6405, Note_off_c, 5, 49, 0
5, 6408, Note_on_c, 5, 50, 75
5, 6429, Note_off_c, 5, 50, 0
5, 6432, Note_on_c, 5, 43, 49
5, 6474, Note_off_c, 5, 43, 0
5, 6480, Note_on_c, 5, 43, 49
5, 6522, Note_off_c, 5, 43, 0
5, 6528, Note_on_c, 5, 43, 49
5, 6570, Note_off_c, 5, 43, 0
5, 6576, Note_on_c, 5, 43, 49
5, 6618, Note_off_c, 5, 43, 0
5, 6624, Note_on_c, 5, 43, 49
5, 6666, Note_off_c, 5, 43, 0
5, 6672, Note_on_c, 5, 43, 49
5, 6714, Note_off_c, 5, 43, 0
5, 6720, Note_on_c, 5, 40, 49
5, 6762, Note_off_c, 5, 40, 0
5, 6768, Note_on_c, 5, 40, 49
5, 6810, Note_off_c, 5, 40, 0
5, 6816, Note_on_c, 5, 49, 49
5, 6858, Note_off_c, 5, 49, 0
5, 6864, Note_on_c, 5, 49, 49
5, 6906, Note_off_c, 5, 49, 0
5, 6912, Note_on_c, 5, 45, 49
5, 6954, Note_off_c, 5, 45, 0
5, 6960, Note_on_c, 5, 45, 49
5, 7002, Note_off_c, 5, 45, 0
5, 7008, Note_on_c, 5, 50, 49
5, 7050, Note_off_c, 5, 50, 0
5, 7056, Note_on_c, 5, 50, 49
5, 7098, Note_off_c, 5, 50, 0
5, 7104, Note_on_c, 5, 44, 49
5, 7146, Note_off_c, 5, 44, 0
5, 7152, Note_on_c, 5, 44, 49
5, 7194, Note_off_c, 5, 44, 0
5, 7200, Note_on_c, 5, 44, 49
5, 7242, Note_off_c, 5, 44, 0
5, 7248, Note_on_c, 5, 44, 49
5, 7290, Note_off_c, 5, 44, 0
5, 7296, Note_on_c, 5, 55, 49
5, 7338, Note_off_c, 5, 55, 0
5, 7344, Note_on_c, 5, 55, 49
5, 7386, Note_off_c, 5, 55, 0
5, 7392, Note_on_c, 5, 53, 49
5, 7434, Note_off_c, 5, 53, 0
5, 7440, Note_on_c, 5, 53, 49
5, 7482, Note_off_c, 5, 53, 0
5, 7488, Note_on_c, 5, 52, 49
5, 7530, Note_off_c, 5, 52, 0
5, 7536, Note_on_c, 5, 52, 49
5, 7578, Note_off_c, 5, 52, 0
5, 7584, Note_on_c, 5, 50, 49
5, 7626, Note_off_c, 5, 50, 0
5, 7632, Note_on_c, 5, 50, 49
5, 7674, Note_off_c, 5, 50, 0
5, 7680, Note_on_c, 5, 52, 49
5, 7722, Note_off_c, 5, 52, 0
5, 7728, Note_on_c, 5, 52, 49
5, 7770, Note_off_c, 5, 52, 0
5, 7776, Note_on_c, 5, 54, 49
5, 7818, Note_off_c, 5, 54, 0
5, 7824, Note_on_c, 5, 54, 49
5, 7866, Note_off_c, 5, 54, 0
5, 7872, Note_on_c, 5, 55, 49
5, 7914, Note_off_c, 5, 55, 0
5, 7920, Note_on_c, 5, 55, 49
5, 7962, Note_off_c, 5, 55, 0
5, 7968, Note_on_c, 5, 57, 49
5, 8010, Note_off_c, 5, 57, 0
5, 8016, Note_on_c, 5, 57, 49
5, 8058, Note_off_c, 5, 57, 0
5, 8064, Note_on_c, 5, 59, 49
5, 8106, Note_off_c, 5, 59, 0
5, 8112, Note_on_c, 5, 59, 49
5, 8154, Note_off_c, 5, 59, 0
5, 8160, Note_on_c, 5, 53, 49
5, 8202, Note_off_c, 5, 53, 0
5, 8208, Note_on_c, 5, 53, 49
5, 8250, Note_off_c, 5, 53, 0
5, 8256, Note_on_c, 5, 52, 49
5, 8298, Note_off_c, 5, 52, 0
5, 8304, Note_on_c, 5, 52, 49
5, 8346, Note_off_c, 5, 52, 0
5, 8352, Note_on_c, 5, 50, 49
5, 8394, Note_off_c, 5, 50, 0
5, 8400, Note_on_c, 5, 50, 49
5, 8442, Note_off_c, 5, 50, 0
5, 8448, Note_on_c, 5, 55, 49
5, 8490, Note_off_c, 5, 55, 0
5, 8496, Note_on_c, 5, 55, 49
5, 8538, Note_off_c, 5, 55, 0
5, 8544, Note_on_c, 5, 57, 49
5, 8586, Note_off_c, 5, 57, 0
5, 8592, Note_on_c, 5, 57, 49
5, 8634, Note_off_c, 5, 57, 0
5, 8640, Note_on_c, 5, 45, 49
5, 8682, Note_off_c, 5, 45, 0
5, 8688, Note_on_c, 5, 45, 49
5, 8730, Note_off_c, 5, 45, 0
5, 8736, Note_on_c, 5, 50, 75
5, 8874, Note_off_c, 5, 50, 0
5, 8880, Note_on_c, 5, 51, 75
5, 8901, Note_off_c, 5, 51, 0
5, 8904, Note_on_c, 5, 50, 75
5, 8925, Note_off_c, 5, 50, 0
5, 8928, Note_on_c, 5, 48, 75
5, 8949, Note_off_c, 5, 48, 0
5, 8952, Note_on_c, 5, 46, 75
5, 8973, Note_off_c, 5, 46, 0
5, 8976, Note_on_c, 5, 45, 75
5, 8997, Note_off_c, 5, 45, 0
5, 9000, Note_on_c, 5, 48, 75
5, 9010, Note_off_c, 5, 48, 0
5, 9012, Note_on_c, 5, 46, 75
5, 9022, Note_off_c, 5, 46, 0
5, 9024, Note_on_c, 5, 48, 75
5, 9162, Note_off_c, 5, 48, 0
5, 9168, Note_on_c, 5, 50, 75
5, 9189, Note_off_c, 5, 50, 0
5, 9192, Note_on_c, 5, 51, 75
5, 9213, Note_off_c, 5, 51, 0
5, 9216, Note_on_c, 5, 50, 75
5, 9237, Note_off_c, 5, 50, 0
5, 9240, Note_on_c, 5, 48, 75
5, 9261, Note_off_c, 5, 48, 0
5, 9264, Note_on_c, 5, 46, 75
5, 9285, Note_off_c, 5, 46, 0
5, 9288, Note_on_c, 5, 48, 75
5, 9298, Note_off_c, 5, 48, 0
5, 9300, Note_on_c, 5, 45, 75
5, 9310, Note_off_c, 5, 45, 0
5, 9312, Note_on_c, 5, 46, 75
5, 9429, Note_off_c, 5, 46, 0
5, 9432, Note_on_c, 5, 48, 75
5, 9453, Note_off_c, 5, 48, 0
5, 9456, Note_on_c, 5, 46, 75
5, 9477, Note_off_c, 5, 46, 0
5, 9480, Note_on_c, 5, 45, 75
5, 9501, Note_off_c, 5, 45, 0
5, 9504, Note_on_c, 5, 43, 75
5, 9525, Note_off_c, 5, 43, 0
5, 9528, Note_on_c, 5, 45, 75
5, 9549, Note_off_c, 5, 45, 0
5, 9552, Note_on_c, 5, 42, 75
5, 9573, Note_off_c, 5, 42, 0
5, 9576, Note_on_c, 5, 43, 75
5, 9597, Note_off_c, 5, 43, 0
5, 9600, Note_on_c, 5, 37, 49
5, 9780, Note_off_c, 5, 37, 0
5, 9888, Note_on_c, 5, 38, 49
5, 9930, Note_off_c, 5, 38, 0
5, 9936, Note_on_c, 5, 43, 49
5, 9978, Note_off_c, 5, 43, 0
5, 9984, Note_on_c, 5, 45, 49
5, 10026, Note_off_c, 5, 45, 0
5, 10032, Note_on_c, 5, 45, 49
5, 10074, Note_off_c, 5, 45, 0
5, 10080, Note_on_c, 5, 45, 49
5, 10122, Note_off_c, 5, 45, 0
5, 10128, Note_on_c, 5, 45, 49
5, 10170, Note_off_c, 5, 45, 0
5, 10176, Note_on_c, 5, 50, 36
5, 10260, Note_off_c, 5, 50, 0
5, 10464, Note_on_c, 5, 48, 36
5, 10548, Note_off_c, 5, 48, 0
5, 10752, Note_on_c, 5, 46, 75
5, 10836, Note_off_c, 5, 46, 0
5, 11040, Note_on_c, 5, 45, 75
5, 11316, Note_off_c, 5, 45, 0
5, 11316, End_track
6, 0, Start_track
6, 0, Title_t, "Violino piccolo"
6, 0, Control_c, 6, 0, 0
6, 0, Program_c, 6, 40
6, 0, Time_signature, 3, 2, 96, 8
6, 0, Tempo, 1714285
6, 96, Note_on_c, 6, 73, 49
6, 138, Note_off_c, 6, 73, 0
6, 144, Note_on_c, 6, 73, 49
6, 186, Note_off_c, 6, 73, 0
6, 192, Note_on_c, 6, 73, 49
6, 234, Note_off_c, 6, 73, 0
6, 240, Note_on_c, 6, 73, 49
6, 282, Note_off_c, 6, 73, 0
6, 288, Note_on_c, 6, 73, 49
6, 330, Note_off_c, 6, 73, 0
6, 336, Note_on_c, 6, 73, 49
6, 378, Note_off_c, 6, 73, 0
6, 384, Note_on_c, 6, 73, 49
6, 426, Note_off_c, 6, 73, 0
6, 432, Note_on_c, 6, 73, 49
6, 474, Note_off_c, 6, 73, 0
6, 480, Note_on_c, 6, 73, 49
6, 522, Note_off_c, 6, 73, 0
6, 528, Note_on_c, 6, 73, 49
6, 570, Note_off_c, 6, 73, 0
6, 576, Note_on_c, 6, 73, 49
6, 618, Note_off_c, 6, 73, 0
6, 624, Note_on_c, 6, 73, 49
6, 666, Note_off_c, 6, 73, 0
6, 672, Note_on_c, 6, 74, 49
6, 714, Note_off_c, 6, 74, 0
6, 720, Note_on_c, 6, 74, 49
6, 762, Note_off_c, 6, 74, 0
6, 768, Note_on_c, 6, 74, 49
6, 810, Note_off_c, 6, 74, 0
6, 816, Note_on_c, 6, 74, 49
6, 858, Note_off_c, 6, 74, 0
6, 864, Note_on_c, 6, 74, 49
6, 906, Note_off_c, 6, 74, 0
6, 912, Note_on_c, 6, 74, 49
6, 954, Note_off_c, 6, 74, 0
6, 960, Note_on_c, 6, 76, 49
6, 1044, Note_off_c, 6, 76, 0
6, 1248, Note_on_c, 6, 86, 96
6, 1386, Note_off_c, 6, 86, 0
6, 1392, Note_on_c, 6, 87, 96
6, 1413, Note_off_c, 6, 87, 0
6, 1416, Note_on_c, 6, 86, 96
6, 1437, Note_off_c, 6, 86, 0
6, 1440, Note_on_c, 6, 84, 96
6, 1461, Note_off_c, 6, 84, 0
6, 1464, Note_on_c, 6, 82, 96
6, 1485, Note_off_c, 6, 82, 0
6, 1488, Note_on_c, 6, 81, 96
6, 1509, Note_off_c, 6, 81, 0
6, 1512, Note_on_c, 6, 84, 96
6, 1522, Note_off_c, 6, 84, 0
6, 1524, Note_on_c, 6, 81, 96
6, 1534, Note_off_c, 6, 81, 0
6, 1536, Note_on_c, 6, 84, 96
6, 1674, Note_off_c, 6, 84, 0
6, 1680, Note_on_c, 6, 86, 96
6, 1701, Note_off_c, 6, 86, 0
6, 1704, Note_on_c, 6, 87, 96
6, 1725, Note_off_c, 6, 87, 0
6, 1728, Note_on_c, 6, 86, 96
6, 1749, Note_off_c, 6, 86, 0
6, 1752, Note_on_c, 6, 84, 96
6, 1773, Note_off_c, 6, 84, 0
6, 1776, Note_on_c, 6, 82, 96
6, 1797, Note_off_c, 6, 82, 0
6, 1800, Note_on_c, 6, 84, 96
6, 1810, Note_off_c, 6, 84, 0
6, 1812, Note_on_c, 6, 81, 96
6, 1822, Note_off_c, 6, 81, 0
6, 1824, Note_on_c, 6, 82, 96
6, 1834, Note_off_c, 6, 82, 0
6, 1836, Note_on_c, 6, 84, 96
6, 1846, Note_off_c, 6, 84, 0
6, 1848, Note_on_c, 6, 82, 96
6, 1858, Note_off_c, 6, 82, 0
6, 1860, Note_on_c, 6, 81, 96
6, 1870, Note_off_c, 6, 81, 0
6, 1872, Note_on_c, 6, 79, 96
6, 1893, Note_off_c, 6, 79, 0
6, 1896, Note_on_c, 6, 81, 96
6, 1906, Note_off_c, 6, 81, 0
6, 1908, Note_on_c, 6, 78, 96
6, 1918, Note_off_c, 6, 78, 0
6, 1920, Note_on_c, 6, 79, 96
6, 1983, Note_off_c, 6, 79, 0
6, 1992, Note_on_c, 6, 78, 96
6, 2002, Note_off_c, 6, 78, 0
6, 2004, Note_on_c, 6, 79, 96
6, 2014, Note_off_c, 6, 79, 0
6, 2016, Note_on_c, 6, 81, 96
6, 2021, Note_off_c, 6, 81, 0
6, 2022, Note_on_c, 6, 79, 96
6, 2027, Note_off_c, 6, 79, 0
6, 2028, Note_on_c, 6, 81, 96
6, 2033, Note_off_c, 6, 81, 0
6, 2034, Note_on_c, 6, 79, 96
6, 2039, Note_off_c, 6, 79, 0
6, 2040, Note_on_c, 6, 81, 96
6, 2045, Note_off_c, 6, 81, 0
6, 2046, Note_on_c, 6, 79, 96
6, 2051, Note_off_c, 6, 79, 0
6, 2052, Note_on_c, 6, 78, 96
6, 2062, Note_off_c, 6, 78, 0
6, 2064, Note_on_c, 6, 79, 96
6, 2074, Note_off_c, 6, 79, 0
6, 2076, Note_on_c, 6, 81, 96
6, 2086, Note_off_c, 6, 81, 0
6, 2088, Note_on_c, 6, 78, 96
6, 2109, Note_off_c, 6, 78, 0
6, 2112, Note_on_c, 6, 79, 96
6, 2117, Note_off_c, 6, 79, 0
6, 2118, Note_on_c, 6, 78, 96
6, 2123, Note_off_c, 6, 78, 0
6, 2124, Note_on_c, 6, 79, 96
6, 2129, Note_off_c, 6, 79, 0
6, 2130, Note_on_c, 6, 78, 96
6, 2135, Note_off_c, 6, 78, 0
6, 2136, Note_on_c, 6, 79, 96
6, 2141, Note_off_c, 6, 79, 0
6, 2142, Note_on_c, 6, 78, 96
6, 2147, Note_off_c, 6, 78, 0
6, 2148, Note_on_c, 6, 79, 96
6, 2153, Note_off_c, 6, 79, 0
6, 2154, Note_on_c, 6, 78, 96
6, 2159, Note_off_c, 6, 78, 0
6, 2160, Note_on_c, 6, 79, 96
6, 2165, Note_off_c, 6, 79, 0
6, 2166, Note_on_c, 6, 78, 96
6, 2171, Note_off_c, 6, 78, 0
6, 2172, Note_on_c, 6, 79, 96
6, 2177, Note_off_c, 6, 79, 0
6, 2178, Note_on_c, 6, 78, 96
6, 2183, Note_off_c, 6, 78, 0
6, 2184, Note_on_c, 6, 87, 96
6, 2205, Note_off_c, 6, 87, 0
6, 2208, Note_on_c, 6, 86, 96
6, 2229, Note_off_c, 6, 86, 0
6, 2232, Note_on_c, 6, 84, 96
6, 2242, Note_off_c, 6, 84, 0
6, 2244, Note_on_c, 6, 82, 96
6, 2254, Note_off_c, 6, 82, 0
6, 2256, Note_on_c, 6, 81, 96
6, 2266, Note_off_c, 6, 81, 0
6, 2268, Note_on_c, 6, 79, 96
6, 2278, Note_off_c, 6, 79, 0
6, 2280, Note_on_c, 6, 78, 96
6, 2290, Note_off_c, 6, 78, 0
6, 2292, Note_on_c, 6, 79, 96
6, 2302, Note_off_c, 6, 79, 0
6, 2304, Note_on_c, 6, 81, 96
6, 2325, Note_off_c, 6, 81, 0
6, 2328, Note_on_c, 6, 82, 96
6, 2338, Note_off_c, 6, 82, 0
6, 2340, Note_on_c, 6, 84, 96
6, 2350, Note_off_c, 6, 84, 0
6, 2352, Note_on_c, 6, 82, 96
6, 2373, Note_off_c, 6, 82, 0
6, 2376, Note_on_c, 6, 84, 96
6, 2386, Note_off_c, 6, 84, 0
6, 2388, Note_on_c, 6, 81, 96
6, 2398, Note_off_c, 6, 81, 0
6, 2400, Note_on_c, 6, 82, 49
6, 2484, Note_off_c, 6, 82, 0
6, 2496, Note_on_c, 6, 70, 49
6, 2538, Note_off_c, 6, 70, 0
6, 2544, Note_on_c, 6, 69, 49
6, 2586, Note_off_c, 6, 69, 0
6, 2592, Note_on_c, 6, 70, 49
6, 2676, Note_off_c, 6, 70, 0
6, 2784, Note_on_c, 6, 71, 49
6, 2826, Note_off_c, 6, 71, 0
6, 2832, Note_on_c, 6, 69, 49
6, 2874, Note_off_c, 6, 69, 0
6, 2880, Note_on_c, 6, 71, 49
6, 2964, Note_off_c, 6, 71, 0
6, 3072, Note_on_c, 6, 72, 49
6, 3114, Note_off_c, 6, 72, 0
6, 3120, Note_on_c, 6, 71, 49
6, 3162, Note_off_c, 6, 71, 0
6, 3168, Note_on_c, 6, 72, 49
6, 3252, Note_off_c, 6, 72, 0
6, 3360, Note_on_c, 6, 77, 96
6, 3477, Note_off_c, 6, 77, 0
6, 3480, Note_on_c, 6, 79, 96
6, 3501, Note_off_c, 6, 79, 0
6, 3504, Note_on_c, 6, 77, 96
6, 3525, Note_off_c, 6, 77, 0
6, 3528, Note_on_c, 6, 76, 96
6, 3549, Note_off_c, 6, 76, 0
6, 3552, Note_on_c, 6, 74, 96
6, 3573, Note_off_c, 6, 74, 0
6, 3576, Note_on_c, 6, 72, 96
6, 3597, Note_off_c, 6, 72, 0
6, 3600, Note_on_c, 6, 71, 96
6, 3621, Note_off_c, 6, 71, 0
6, 3624, Note_on_c, 6, 74, 96
6, 3634, Note_off_c, 6, 74, 0
6, 3636, Note_on_c, 6, 72, 96
6, 3646, Note_off_c, 6, 72, 0
6, 3648, Note_on_c, 6, 74, 96
6, 3786, Note_off_c, 6, 74, 0
6, 3792, Note_on_c, 6, 76, 96
6, 3813, Note_off_c, 6, 76, 0
6, 3816, Note_on_c, 6, 77, 96
6, 3837, Note_off_c, 6, 77, 0
6, 3840, Note_on_c, 6, 76, 96
6, 3861, Note_off_c, 6, 76, 0
6, 3864, Note_on_c, 6, 74, 96
6, 3885, Note_off_c, 6, 74, 0
6, 3888, Note_on_c, 6, 72, 96
6, 3909, Note_off_c, 6, 72, 0
6, 3912, Note_on_c, 6, 74, 96
6, 3922, Note_off_c, 6, 74, 0
6, 3924, Note_on_c, 6, 71, 96
6, 3934, Note_off_c, 6, 71, 0
6, 3936, Note_on_c, 6, 72, 96
6, 3957, Note_off_c, 6, 72, 0
6, 3960, Note_on_c, 6, 74, 96
6, 3981, Note_off_c, 6, 74, 0
6, 3984, Note_on_c, 6, 72, 96
6, 4005, Note_off_c, 6, 72, 0
6, 4008, Note_on_c, 6, 71, 96
6, 4029, Note_off_c, 6, 71, 0
6, 4032, Note_on_c, 6, 69, 96
6, 4053, Note_off_c, 6, 69, 0
6, 4056, Note_on_c, 6, 71, 96
6, 4077, Note_off_c, 6, 71, 0
6, 4080, Note_on_c, 6, 68, 96
6, 4101, Note_off_c, 6, 68, 0
6, 4104, Note_on_c, 6, 69, 96
6, 4125, Note_off_c, 6, 69, 0
6, 4128, Note_on_c, 6, 71, 96
6, 4170, Note_off_c, 6, 71, 0
6, 4176, Note_on_c, 6, 64, 96
6, 4218, Note_off_c, 6, 64, 0
6, 4224, Note_on_c, 6, 76, 96
6, 4245, Note_off_c, 6, 76, 0
6, 4248, Note_on_c, 6, 77, 96
6, 4258, Note_off_c, 6, 77, 0
6, 4260, Note_on_c, 6, 76, 96
6, 4270, Note_off_c, 6, 76, 0
6, 4272, Note_on_c, 6, 74, 96
6, 4282, Note_off_c, 6, 74, 0
6, 4284, Note_on_c, 6, 72, 96
6, 4294, Note_off_c, 6, 72, 0
6, 4296, Note_on_c, 6, 71, 96
6, 4306, Note_off_c, 6, 71, 0
6, 4308, Note_on_c, 6, 69, 96
6, 4318, Note_off_c, 6, 69, 0
6, 4320, Note_on_c, 6, 68, 96
6, 4341, Note_off_c, 6, 68, 0
6, 4344, Note_on_c, 6, 69, 96
6, 4354, Note_off_c, 6, 69, 0
6, 4356, Note_on_c, 6, 71, 96
6, 4366, Note_off_c, 6, 71, 0
6, 4368, Note_on_c, 6, 69, 96
6, 4389, Note_off_c, 6, 69, 0
6, 4392, Note_on_c, 6, 71, 96
6, 4402, Note_off_c, 6, 71, 0
6, 4404, Note_on_c, 6, 68, 96
6, 4414, Note_off_c, 6, 68, 0
6, 4416, Note_on_c, 6, 69, 96
6, 4479, Note_off_c, 6, 69, 0
6, 4488, Note_on_c, 6, 82, 96
6, 4509, Note_off_c, 6, 82, 0
6, 4512, Note_on_c, 6, 81, 96
6, 4533, Note_off_c, 6, 81, 0
6, 4536, Note_on_c, 6, 79, 96
6, 4546, Note_off_c, 6, 79, 0
6, 4548, Note_on_c, 6, 77, 96
6, 4558, Note_off_c, 6, 77, 0
6, 4560, Note_on_c, 6, 76, 96
6, 4570, Note_off_c, 6, 76, 0
6, 4572, Note_on_c, 6, 74, 96
6, 4582, Note_off_c, 6, 74, 0
6, 4584, Note_on_c, 6, 73, 96
6, 4594, Note_off_c, 6, 73, 0
6, 4596, Note_on_c, 6, 74, 96
6, 4606, Note_off_c, 6, 74, 0
6, 4608, Note_on_c, 6, 76, 96
6, 4629, Note_off_c, 6, 76, 0
6, 4632, Note_on_c, 6, 77, 96
6, 4642, Note_off_c, 6, 77, 0
6, 4644, Note_on_c, 6, 79, 96
6, 4654, Note_off_c, 6, 79, 0
6, 4656, Note_on_c, 6, 77, 96
6, 4677, Note_off_c, 6, 77, 0
6, 4680, Note_on_c, 6, 79, 96
6, 4690, Note_off_c, 6, 79, 0
6, 4692, Note_on_c, 6, 76, 96
6, 4702, Note_off_c, 6, 76, 0
6, 4704, Note_on_c, 6, 77, 96
6, 4836, Note_off_c, 6, 77, 0
6, 4848, Note_on_c, 6, 76, 96
6, 4890, Note_off_c, 6, 76, 0
6, 4896, Note_on_c, 6, 75, 96
6, 4938, Note_off_c, 6, 75, 0
6, 4944, Note_on_c, 6, 74, 96
6, 4986, Note_off_c, 6, 74, 0
6, 4992, Note_on_c, 6, 74, 96
6, 5076, Note_off_c, 6, 74, 0
6, 5088, Note_on_c, 6, 86, 96
6, 5205, Note_off_c, 6, 86, 0
6, 5208, Note_on_c, 6, 83, 96
6, 5229, Note_off_c, 6, 83, 0
6, 5232, Note_on_c, 6, 84, 96
6, 5253, Note_off_c, 6, 84, 0
6, 5256, Note_on_c, 6, 81, 96
6, 5277, Note_off_c, 6, 81, 0
6, 5280, Note_on_c, 6, 82, 96
6, 5301, Note_off_c, 6, 82, 0
6, 5304, Note_on_c, 6, 80, 96
6, 5325, Note_off_c, 6, 80, 0
6, 5328, Note_on_c, 6, 81, 96
6, 5349, Note_off_c, 6, 81, 0
6, 5352, Note_on_c, 6, 83, 96
6, 5373, Note_off_c, 6, 83, 0
6, 5376, Note_on_c, 6, 81, 96
6, 5381, Note_off_c, 6, 81, 0
6, 5382, Note_on_c, 6, 80, 96
6, 5387, Note_off_c, 6, 80, 0
6, 5388, Note_on_c, 6, 81, 96
6, 5393, Note_off_c, 6, 81, 0
6, 5394, Note_on_c, 6, 80, 96
6, 5399, Note_off_c, 6, 80, 0
6, 5400, Note_on_c, 6, 81, 96
6, 5405, Note_off_c, 6, 81, 0
6, 5406, Note_on_c, 6, 80, 96
6, 5411, Note_off_c, 6, 80, 0
6, 5412, Note_on_c, 6, 81, 96
6, 5417, Note_off_c, 6, 81, 0
6, 5418, Note_on_c, 6, 80, 96
6, 5423, Note_off_c, 6, 80, 0
6, 5424, Note_on_c, 6, 81, 96
6, 5429, Note_off_c, 6, 81, 0
6, 5430, Note_on_c, 6, 80, 96
6, 5435, Note_off_c, 6, 80, 0
6, 5436, Note_on_c, 6, 81, 96
6, 5441, Note_off_c, 6, 81, 0
6, 5442, Note_on_c, 6, 80, 96
6, 5447, Note_off_c, 6, 80, 0
6, 5448, Note_on_c, 6, 81, 96
6, 5453, Note_off_c, 6, 81, 0
6, 5454, Note_on_c, 6, 80, 96
6, 5459, Note_off_c, 6, 80, 0
6, 5460, Note_on_c, 6, 81, 96
6, 5465, Note_off_c, 6, 81, 0
6, 5466, Note_on_c, 6, 80, 96
6, 5471, Note_off_c, 6, 80, 0
6, 5472, Note_on_c, 6, 81, 96
6, 5477, Note_off_c, 6, 81, 0
6, 5478, Note_on_c, 6, 80, 96
6, 5483, Note_off_c, 6, 80, 0
6, 5484, Note_on_c, 6, 81, 96
6, 5489, Note_off_c, 6, 81, 0
6, 5490, Note_on_c, 6, 80, 96
6, 5495, Note_off_c, 6, 80, 0
6, 5496, Note_on_c, 6, 81, 96
6, 5501, Note_off_c, 6, 81, 0
6, 5502, Note_on_c, 6, 80, 96
6, 5507, Note_off_c, 6, 80, 0
6, 5508, Note_on_c, 6, 81, 96
6, 5513, Note_off_c, 6, 81, 0
6, 5514, Note_on_c, 6, 80, 96
6, 5519, Note_off_c, 6, 80, 0
6, 5520, Note_on_c, 6, 81, 96
6, 5562, Note_off_c, 6, 81, 0
6, 5568, Note_on_c, 6, 81, 49
6, 5610, Note_off_c, 6, 81, 0
6, 5616, Note_on_c, 6, 80, 49
6, 5658, Note_off_c, 6, 80, 0
6, 5664, Note_on_c, 6, 81, 49
6, 5748, Note_off_c, 6, 81, 0
6, 5856, Note_on_c, 6, 81, 49
6, 5898, Note_off_c, 6, 81, 0
6, 5904, Note_on_c, 6, 79, 49
6, 5946, Note_off_c, 6, 79, 0
6, 5952, Note_on_c, 6, 81, 49
6, 6036, Note_off_c, 6, 81, 0
6, 6144, Note_on_c, 6, 81, 49
6, 6186, Note_off_c, 6, 81, 0
6, 6192, Note_on_c, 6, 79, 49
6, 6234, Note_off_c, 6, 79, 0
6, 6240, Note_on_c, 6, 81, 49
6, 6324, Note_off_c, 6, 81, 0
6, 6432, Note_on_c, 6, 82, 96
6, 6549, Note_off_c, 6, 82, 0
6, 6552, Note_on_c, 6, 84, 96
6, 6573, Note_off_c, 6, 84, 0
6, 6576, Note_on_c, 6, 82, 96
6, 6597, Note_off_c, 6, 82, 0
6, 6600, Note_on_c, 6, 81, 96
6, 6621, Note_off_c, 6, 81, 0
6, 6624, Note_on_c, 6, 79, 96
6, 6645, Note_off_c, 6, 79, 0
6, 6648, Note_on_c, 6, 77, 96
6, 6669, Note_off_c, 6, 77, 0
6, 6672, Note_on_c, 6, 76, 96
6, 6693, Note_off_c, 6, 76, 0
6, 6696, Note_on_c, 6, 79, 96
6, 6706, Note_off_c, 6, 79, 0
6, 6708, Note_on_c, 6, 77, 96
6, 6718, Note_off_c, 6, 77, 0
6, 6720, Note_on_c, 6, 79, 96
6, 6858, Note_off_c, 6, 79, 0
6, 6864, Note_on_c, 6, 81, 96
6, 6885, Note_off_c, 6, 81, 0
6, 6888, Note_on_c, 6, 82, 96
6, 6909, Note_off_c, 6, 82, 0
6, 6912, Note_on_c, 6, 81, 96
6, 6933, Note_off_c, 6, 81, 0
6, 6936, Note_on_c, 6, 79, 96
6, 6957, Note_off_c, 6, 79, 0
6, 6960, Note_on_c, 6, 77, 96
6, 6981, Note_off_c, 6, 77, 0
6, 6984, Note_on_c, 6, 79, 96
6, 6994, Note_off_c, 6, 79, 0
6, 6996, Note_on_c, 6, 76, 96
6, 7006, Note_off_c, 6, 76, 0
6, 7008, Note_on_c, 6, 77, 96
6, 7018, Note_off_c, 6, 77, 0
6, 7020, Note_on_c, 6, 79, 96
6, 7030, Note_off_c, 6, 79, 0
6, 7032, Note_on_c, 6, 77, 96
6, 7042, Note_off_c, 6, 77, 0
6, 7044, Note_on_c, 6, 76, 96
6, 7054, Note_off_c, 6, 76, 0
6, 7056, Note_on_c, 6, 74, 96
6, 7066, Note_off_c, 6, 74, 0
6, 7068, Note_on_c, 6, 76, 96
6, 7078, Note_off_c, 6, 76, 0
6, 7080, Note_on_c, 6, 73, 96
6, 7090, Note_off_c, 6, 73, 0
6, 7092, Note_on_c, 6, 74, 96
6, 7102, Note_off_c, 6, 74, 0
6, 7104, Note_on_c, 6, 74, 96
6, 7231, Note_off_c, 6, 74, 0
6, 7236, Note_on_c, 6, 73, 96
6, 7246, Note_off_c, 6, 73, 0
6, 7248, Note_on_c, 6, 74, 96
6, 7269, Note_off_c, 6, 74, 0
6, 7272, Note_on_c, 6, 76, 96
6, 7282, Note_off_c, 6, 76, 0
6, 7284, Note_on_c, 6, 73, 96
6, 7294, Note_off_c, 6, 73, 0
6, 7296, Note_on_c, 6, 74, 96
6, 7301, Note_off_c, 6, 74, 0
6, 7302, Note_on_c, 6, 73, 96
6, 7307, Note_off_c, 6, 73, 0
6, 7308, Note_on_c, 6, 74, 96
6, 7313, Note_off_c, 6, 74, 0
6, 7314, Note_on_c, 6, 73, 96
6, 7319, Note_off_c, 6, 73, 0
6, 7320, Note_on_c, 6, 74, 96
6, 7325, Note_off_c, 6, 74, 0
6, 7326, Note_on_c, 6, 73, 96
6, 7331, Note_off_c, 6, 73, 0
6, 7332, Note_on_c, 6, 74, 96
6, 7337, Note_off_c, 6, 74, 0
6, 7338, Note_on_c, 6, 73, 96
6, 7343, Note_off_c, 6, 73, 0
6, 7344, Note_on_c, 6, 74, 96
6, 7349, Note_off_c, 6, 74, 0
6, 7350, Note_on_c, 6, 73, 96
6, 7355, Note_off_c, 6, 73, 0
6, 7356, Note_on_c, 6, 74, 96
6, 7361, Note_off_c, 6, 74, 0
6, 7362, Note_on_c, 6, 73, 96
6, 7367, Note_off_c, 6, 73, 0
6, 7368, Note_on_c, 6, 82, 96
6, 7389, Note_off_c, 6, 82, 0
6, 7392, Note_on_c, 6, 81, 96
6, 7413, Note_off_c, 6, 81, 0
6, 7416, Note_on_c, 6, 79, 96
6, 7426, Note_off_c, 6, 79, 0
6, 7428, Note_on_c, 6, 77, 96
6, 7438, Note_off_c, 6, 77, 0
6, 7440, Note_on_c, 6, 76, 96
6, 7450, Note_off_c, 6, 76, 0
6, 7452, Note_on_c, 6, 74, 96
6, 7462, Note_off_c, 6, 74, 0
6, 7464, Note_on_c, 6, 73, 96
6, 7474, Note_off_c, 6, 73, 0
6, 7476, Note_on_c, 6, 74, 96
6, 7486, Note_off_c, 6, 74, 0
6, 7488, Note_on_c, 6, 76, 96
6, 7509, Note_off_c, 6, 76, 0
6, 7512, Note_on_c, 6, 77, 96
6, 7522, Note_off_c, 6, 77, 0
6, 7524, Note_on_c, 6, 79, 96
6, 7534, Note_off_c, 6, 79, 0
6, 7536, Note_on_c, 6, 77, 96
6, 7557, Note_off_c, 6, 77, 0
6, 7560, Note_on_c, 6, 79, 96
6, 7570, Note_off_c, 6, 79, 0
6, 7572, Note_on_c, 6, 76, 96
6, 7582, Note_off_c, 6, 76, 0
6, 7584, Note_on_c, 6, 77, 96
6, 7716, Note_off_c, 6, 77, 0
6, 7728, Note_on_c, 6, 76, 96
6, 7770, Note_off_c, 6, 76, 0
6, 7776, Note_on_c, 6, 75, 96
6, 7818, Note_off_c, 6, 75, 0
6, 7824, Note_on_c, 6, 74, 96
6, 7866, Note_off_c, 6, 74, 0
6, 7872, Note_on_c, 6, 74, 96
6, 7956, Note_off_c, 6, 74, 0
6, 7968, Note_on_c, 6, 86, 96
6, 8181, Note_off_c, 6, 86, 0
6, 8184, Note_on_c, 6, 85, 96
6, 8205, Note_off_c, 6, 85, 0
6, 8208, Note_on_c, 6, 86, 96
6, 8229, Note_off_c, 6, 86, 0
6, 8232, Note_on_c, 6, 83, 96
6, 8253, Note_off_c, 6, 83, 0
6, 8256, Note_on_c, 6, 84, 96
6, 8277, Note_off_c, 6, 84, 0
6, 8280, Note_on_c, 6, 81, 96
6, 8301, Note_off_c, 6, 81, 0
6, 8304, Note_on_c, 6, 82, 96
6, 8325, Note_off_c, 6, 82, 0
6, 8328, Note_on_c, 6, 80, 96
6, 8349, Note_off_c, 6, 80, 0
6, 8352, Note_on_c, 6, 81, 96
6, 8490, Note_off_c, 6, 81, 0
6, 8496, Note_on_c, 6, 82, 96
6, 8538, Note_off_c, 6, 82, 0
6, 8544, Note_on_c, 6, 77, 96
6, 8549, Note_off_c, 6, 77, 0
6, 8550, Note_on_c, 6, 76, 96
6, 8555, Note_off_c, 6, 76, 0
6, 8556, Note_on_c, 6, 77, 96
6, 8561, Note_off_c, 6, 77, 0
6, 8562, Note_on_c, 6, 76, 96
6, 8567, Note_off_c, 6, 76, 0
6, 8568, Note_on_c, 6, 77, 96
6, 8573, Note_off_c, 6, 77, 0
6, 8574, Note_on_c, 6, 76, 96
6, 8579, Note_off_c, 6, 76, 0
6, 8580, Note_on_c, 6, 77, 96
6, 8585, Note_off_c, 6, 77, 0
6, 8586, Note_on_c, 6, 76, 96
6, 8591, Note_off_c, 6, 76, 0
6, 8592, Note_on_c, 6, 77, 96
6, 8597, Note_off_c, 6, 77, 0
6, 8598, Note_on_c, 6, 76, 96
6, 8603, Note_off_c, 6, 76, 0
6, 8604, Note_on_c, 6, 77, 96
6, 8609, Note_off_c, 6, 77, 0
6, 8610, Note_on_c, 6, 76, 96
6, 8615, Note_off_c, 6, 76, 0
6, 8616, Note_on_c, 6, 77, 96
6, 8621, Note_off_c, 6, 77, 0
6, 8622, Note_on_c, 6, 76, 96
6, 8627, Note_off_c, 6, 76, 0
6, 8628, Note_on_c, 6, 77, 96
6, 8633, Note_off_c, 6, 77, 0
6, 8634, Note_on_c, 6, 76, 96
6, 8639, Note_off_c, 6, 76, 0
6, 8640, Note_on_c, 6, 77, 96
6, 8645, Note_off_c, 6, 77, 0
6, 8646, Note_on_c, 6, 76, 96
6, 8651, Note_off_c, 6, 76, 0
6, 8652, Note_on_c, 6, 77, 96
6, 8657, Note_off_c, 6, 77, 0
6, 8658, Note_on_c, 6, 76, 96
6, 8663, Note_off_c, 6, 76, 0
6, 8664, Note_on_c, 6, 77, 96
6, 8669, Note_off_c, 6, 77, 0
6, 8670, Note_on_c, 6, 76, 96
6, 8675, Note_off_c, 6, 76, 0
6, 8676, Note_on_c, 6, 77, 96
6, 8681, Note_off_c, 6, 77, 0
6, 8682, Note_on_c, 6, 76, 96
6, 8687, Note_off_c, 6, 76, 0
6, 8688, Note_on_c, 6, 74, 96
6, 8730, Note_off_c, 6, 74, 0
6, 8736, Note_on_c, 6, 74, 49
6, 8820, Note_off_c, 6, 74, 0
6, 8832, Note_on_c, 6, 77, 49
6, 8874, Note_off_c, 6, 77, 0
6, 8880, Note_on_c, 6, 76, 49
6, 8922, Note_off_c, 6, 76, 0
6, 8928, Note_on_c, 6, 77, 49
6, 9012, Note_off_c, 6, 77, 0
6, 9120, Note_on_c, 6, 78, 49
6, 9162, Note_off_c, 6, 78, 0
6, 9168, Note_on_c, 6, 76, 49
6, 9210, Note_off_c, 6, 76, 0
6, 9216, Note_on_c, 6, 78, 49
6, 9300, Note_off_c, 6, 78, 0
6, 9408, Note_on_c, 6, 79, 49
6, 9450, Note_off_c, 6, 79, 0
6, 9456, Note_on_c, 6, 78, 49
6, 9498, Note_off_c, 6, 78, 0
6, 9504, Note_on_c, 6, 79, 49
6, 9588, Note_off_c, 6, 79, 0
6, 9600, Note_on_c, 6, 79, 49
6, 9780, Note_off_c, 6, 79, 0
6, 9888, Note_on_c, 6, 69, 49
6, 9951, Note_off_c, 6, 69, 0
6, 9960, Note_on_c, 6, 70, 49
6, 9981, Note_off_c, 6, 70, 0
6, 9984, Note_on_c, 6, 65, 49
6, 10068, Note_off_c, 6, 65, 0
6, 10080, Note_on_c, 6, 65, 49
6, 10085, Note_off_c, 6, 65, 0
6, 10086, Note_on_c, 6, 64, 49
6, 10091, Note_off_c, 6, 64, 0
6, 10092, Note_on_c, 6, 65, 49
6, 10097, Note_off_c, 6, 65, 0
6, 10098, Note_on_c, 6, 64, 49
6, 10103, Note_off_c, 6, 64, 0
6, 10104, Note_on_c, 6, 65, 49
6, 10109, Note_off_c, 6, 65, 0
6, 10110, Note_on_c, 6, 64, 49
6, 10115, Note_off_c, 6, 64, 0
6, 10116, Note_on_c, 6, 65, 49
6, 10121, Note_off_c, 6, 65, 0
6, 10122, Note_on_c, 6, 64, 49
6, 10127, Note_off_c, 6, 64, 0
6, 10128, Note_on_c, 6, 65, 49
6, 10133, Note_off_c, 6, 65, 0
6, 10134, Note_on_c, 6, 64, 49
6, 10139, Note_off_c, 6, 64, 0
6, 10140, Note_on_c, 6, 65, 49
6, 10145, Note_off_c, 6, 65, 0
6, 10146, Note_on_c, 6, 64, 49
6, 10151, Note_off_c, 6, 64, 0
6, 10152, Note_on_c, 6, 62, 49
6, 10173, Note_off_c, 6, 62, 0
6, 10368, Note_on_c, 6, 68, 36
6, 10452, Note_off_c, 6, 68, 0
6, 10656, Note_on_c, 6, 78, 36
6, 10740, Note_off_c, 6, 78, 0
6, 10944, Note_on_c, 6, 80, 75
6, 11028, Note_off_c, 6, 80, 0
6, 11040, Note_on_c, 6, 81, 75
6, 11316, Note_off_c, 6, 81, 0
6, 11316, End_track
7, 0, Start_track
7, 0, Title_t, "Violin I"
7, 0, Control_c, 7, 0, 0
7, 0, Program_c, 7, 40
7, 0, Time_signature, 3, 2, 96, 8
7, 0, Tempo, 1714285
7, 96, Note_on_c, 7, 73, 49
7, 138, Note_off_c, 7, 73, 0
7, 144, Note_on_c, 7, 73, 49
7, 186, Note_off_c, 7, 73, 0
7, 192, Note_on_c, 7, 73, 49
7, 234, Note_off_c, 7, 73, 0
7, 240, Note_on_c, 7, 73, 49
7, 282, Note_off_c, 7, 73, 0
7, 288, Note_on_c, 7, 73, 49
7, 330, Note_off_c, 7, 73, 0
7, 336, Note_on_c, 7, 73, 49
7, 378, Note_off_c, 7, 73, 0
7, 384, Note_on_c, 7, 73, 49
7, 426, Note_off_c, 7, 73, 0
7, 432, Note_on_c, 7, 73, 49
7, 474, Note_off_c, 7, 73, 0
7, 480, Note_on_c, 7, 73, 49
7, 522, Note_off_c, 7, 73, 0
7, 528, Note_on_c, 7, 73, 49
7, 570, Note_off_c, 7, 73, 0
7, 576, Note_on_c, 7, 73, 49
7, 618, Note_off_c, 7, 73, 0
7, 624, Note_on_c, 7, 73, 49
7, 666, Note_off_c, 7, 73, 0
7, 672, Note_on_c, 7, 74, 49
7, 714, Note_off_c, 7, 74, 0
7, 720, Note_on_c, 7, 74, 49
7, 762, Note_off_c, 7, 74, 0
7, 768, Note_on_c, 7, 74, 49
7, 810, Note_off_c, 7, 74, 0
7, 816, Note_on_c, 7, 74, 49
7, 858, Note_off_c, 7, 74, 0
7, 864, Note_on_c, 7, 74, 49
7, 906, Note_off_c, 7, 74, 0
7, 912, Note_on_c, 7, 74, 49
7, 954, Note_off_c, 7, 74, 0
7, 960, Note_on_c, 7, 76, 49
7, 1044, Note_off_c, 7, 76, 0
7, 1248, Note_on_c, 7, 74, 49
7, 1332, Note_off_c, 7, 74, 0
7, 1536, Note_on_c, 7, 74, 49
7, 1620, Note_off_c, 7, 74, 0
7, 1824, Note_on_c, 7, 76, 49
7, 1908, Note_off_c, 7, 76, 0
7, 2112, Note_on_c, 7, 78, 49
7, 2196, Note_off_c, 7, 78, 0
7, 2208, Note_on_c, 7, 79, 49
7, 2292, Note_off_c, 7, 79, 0
7, 2304, Note_on_c, 7, 81, 49
7, 2388, Note_off_c, 7, 81, 0
7, 2400, Note_on_c, 7, 82, 49
7, 2484, Note_off_c, 7, 82, 0
7, 2496, Note_on_c, 7, 70, 49
7, 2538, Note_off_c, 7, 70, 0
7, 2544, Note_on_c, 7, 69, 49
7, 2586, Note_off_c, 7, 69, 0
7, 2592, Note_on_c, 7, 70, 49
7, 2676, Note_off_c, 7, 70, 0
7, 2784, Note_on_c, 7, 71, 49
7, 2826, Note_off_c, 7, 71, 0
7, 2832, Note_on_c, 7, 69, 49
7, 2874, Note_off_c, 7, 69, 0
7, 2880, Note_on_c, 7, 71, 49
7, 2964, Note_off_c, 7, 71, 0
7, 3072, Note_on_c, 7, 72, 49
7, 3114, Note_off_c, 7, 72, 0
7, 3120, Note_on_c, 7, 71, 49
7, 3162, Note_off_c, 7, 71, 0
7, 3168, Note_on_c, 7, 72, 49
7, 3252, Note_off_c, 7, 72, 0
7, 3360, Note_on_c, 7, 77, 49
7, 3444, Note_off_c, 7, 77, 0
7, 3648, Note_on_c, 7, 74, 49
7, 3732, Note_off_c, 7, 74, 0
7, 3936, Note_on_c, 7, 72, 49
7, 4020, Note_off_c, 7, 72, 0
7, 4128, Note_on_c, 7, 71, 49
7, 4212, Note_off_c, 7, 71, 0
7, 4416, Note_on_c, 7, 72, 49
7, 4500, Note_off_c, 7, 72, 0
7, 4512, Note_on_c, 7, 74, 49
7, 4596, Note_off_c, 7, 74, 0
7, 4608, Note_on_c, 7, 76, 49
7, 4692, Note_off_c, 7, 76, 0
7, 4704, Note_on_c, 7, 77, 49
7, 4788, Note_off_c, 7, 77, 0
7, 4992, Note_on_c, 7, 74, 49
7, 5076, Note_off_c, 7, 74, 0
7, 5088, Note_on_c, 7, 86, 49
7, 5220, Note_off_c, 7, 86, 0
7, 5232, Note_on_c, 7, 84, 49
7, 5274, Note_off_c, 7, 84, 0
7, 5280, Note_on_c, 7, 82, 49
7, 5322, Note_off_c, 7, 82, 0
7, 5328, Note_on_c, 7, 81, 49
7, 5370, Note_off_c, 7, 81, 0
7, 5376, Note_on_c, 7, 81, 49
7, 5381, Note_off_c, 7, 81, 0
7, 5382, Note_on_c, 7, 80, 49
7, 5387, Note_off_c, 7, 80, 0
7, 5388, Note_on_c, 7, 81, 49
7, 5393, Note_off_c, 7, 81, 0
7, 5394, Note_on_c, 7, 80, 49
7, 5399, Note_off_c, 7, 80, 0
7, 5400, Note_on_c, 7, 81, 49
7, 5405, Note_off_c, 7, 81, 0
7, 5406, Note_on_c, 7, 80, 49
7, 5411, Note_off_c, 7, 80, 0
7, 5412, Note_on_c, 7, 81, 49
7, 5417, Note_off_c, 7, 81, 0
7, 5418, Note_on_c, 7, 80, 49
7, 5423, Note_off_c, 7, 80, 0
7, 5424, Note_on_c, 7, 81, 49
7, 5429, Note_off_c, 7, 81, 0
7, 5430, Note_on_c, 7, 80, 49
7, 5435, Note_off_c, 7, 80, 0
7, 5436, Note_on_c, 7, 81, 49
7, 5441, Note_off_c, 7, 81, 0
7, 5442, Note_on_c, 7, 80, 49
7, 5447, Note_off_c, 7, 80, 0
7, 5448, Note_on_c, 7, 81, 49
7, 5453, Note_off_c, 7, 81, 0
7, 5454, Note_on_c, 7, 80, 49
7, 5459, Note_off_c, 7, 80, 0
7, 5460, Note_on_c, 7, 81, 49
7, 5465, Note_off_c, 7, 81, 0
7, 5466, Note_on_c, 7, 80, 49
7, 5471, Note_off_c, 7, 80, 0
7, 5472, Note_on_c, 7, 81, 49
7, 5477, Note_off_c, 7, 81, 0
7, 5478, Note_on_c, 7, 80, 49
7, 5483, Note_off_c, 7, 80, 0
7, 5484, Note_on_c, 7, 81, 49
7, 5489, Note_off_c, 7, 81, 0
7, 5490, Note_on_c, 7, 80, 49
7, 5495, Note_off_c, 7, 80, 0
7, 5496, Note_on_c, 7, 81, 49
7, 5501, Note_off_c, 7, 81, 0
7, 5502, Note_on_c, 7, 80, 49
7, 5507, Note_off_c, 7, 80, 0
7, 5508, Note_on_c, 7, 81, 49
7, 5513, Note_off_c, 7, 81, 0
7, 5514, Note_on_c, 7, 80, 49
7, 5519, Note_off_c, 7, 80, 0
7, 5520, Note_on_c, 7, 81, 49
7, 5562, Note_off_c, 7, 81, 0
7, 5568, Note_on_c, 7, 81, 49
7, 5610, Note_off_c, 7, 81, 0
7, 5616, Note_on_c, 7, 80, 49
7, 5658, Note_off_c, 7, 80, 0
7, 5664, Note_on_c, 7, 81, 49
7, 5748, Note_off_c, 7, 81, 0
7, 5856, Note_on_c, 7, 81, 49
7, 5898, Note_off_c, 7, 81, 0
7, 5904, Note_on_c, 7, 79, 49
7, 5946, Note_off_c, 7, 79, 0
7, 5952, Note_on_c, 7, 81, 49
7, 6036, Note_off_c, 7, 81, 0
7, 6144, Note_on_c, 7, 81, 49
7, 6186, Note_off_c, 7, 81, 0
7, 6192, Note_on_c, 7, 79, 49
7, 6234, Note_off_c, 7, 79, 0
7, 6240, Note_on_c, 7, 81, 49
7, 6324, Note_off_c, 7, 81, 0
7, 6432, Note_on_c, 7, 82, 49
7, 6516, Note_off_c, 7, 82, 0
7, 6720, Note_on_c, 7, 79, 49
7, 6804, Note_off_c, 7, 79, 0
7, 7008, Note_on_c, 7, 77, 49
7, 7092, Note_off_c, 7, 77, 0
7, 7296, Note_on_c, 7, 76, 49
7, 7380, Note_off_c, 7, 76, 0
7, 7392, Note_on_c, 7, 77, 49
7, 7476, Note_off_c, 7, 77, 0
7, 7488, Note_on_c, 7, 79, 49
7, 7572, Note_off_c, 7, 79, 0
7, 7584, Note_on_c, 7, 77, 49
7, 7668, Note_off_c, 7, 77, 0
7, 7872, Note_on_c, 7, 74, 49
7, 7956, Note_off_c, 7, 74, 0
7, 7968, Note_on_c, 7, 86, 49
7, 8244, Note_off_c, 7, 86, 0
7, 8256, Note_on_c, 7, 84, 49
7, 8298, Note_off_c, 7, 84, 0
7, 8304, Note_on_c, 7, 82, 49
7, 8346, Note_off_c, 7, 82, 0
7, 8352, Note_on_c, 7, 81, 49
7, 8490, Note_off_c, 7, 81, 0
7, 8496, Note_on_c, 7, 82, 49
7, 8538, Note_off_c, 7, 82, 0
7, 8544, Note_on_c, 7, 77, 49
7, 8549, Note_off_c, 7, 77, 0
7, 8550, Note_on_c, 7, 76, 49
7, 8555, Note_off_c, 7, 76, 0
7, 8556, Note_on_c, 7, 77, 49
7, 8561, Note_off_c, 7, 77, 0
7, 8562, Note_on_c, 7, 76, 49
7, 8567, Note_off_c, 7, 76, 0
7, 8568, Note_on_c, 7, 77, 49
7, 8573, Note_off_c, 7, 77, 0
7, 8574, Note_on_c, 7, 76, 49
7, 8579, Note_off_c, 7, 76, 0
7, 8580, Note_on_c, 7, 77, 49
7, 8585, Note_off_c, 7, 77, 0
7, 8586, Note_on_c, 7, 76, 49
7, 8591, Note_off_c, 7, 76, 0
7, 8592, Note_on_c, 7, 77, 49
7, 8597, Note_off_c, 7, 77, 0
7, 8598, Note_on_c, 7, 76, 49
7, 8603, Note_off_c, 7, 76, 0
7, 8604, Note_on_c, 7, 77, 49
7, 8609, Note_off_c, 7, 77, 0
7, 8610, Note_on_c, 7, 76, 49
7, 8615, Note_off_c, 7, 76, 0
7, 8616, Note_on_c, 7, 77, 49
7, 8621, Note_off_c, 7, 77, 0
7, 8622, Note_on_c, 7, 76, 49
7, 8627, Note_off_c, 7, 76, 0
7, 8628, Note_on_c, 7, 77, 49
7, 8633, Note_off_c, 7, 77, 0
7, 8634, Note_on_c, 7, 76, 49
7, 8639, Note_off_c, 7, 76, 0
7, 8640, Note_on_c, 7, 77, 49
7, 8645, Note_off_c, 7, 77, 0
7, 8646, Note_on_c, 7, 76, 49
7, 8651, Note_off_c, 7, 76, 0
7, 8652, Note_on_c, 7, 77, 49
7, 8657, Note_off_c, 7, 77, 0
7, 8658, Note_on_c, 7, 76, 49
7, 8663, Note_off_c, 7, 76, 0
7, 8664, Note_on_c, 7, 77, 49
7, 8669, Note_off_c, 7, 77, 0
7, 8670, Note_on_c, 7, 76, 49
7, 8675, Note_off_c, 7, 76, 0
7, 8676, Note_on_c, 7, 77, 49
7, 8681, Note_off_c, 7, 77, 0
7, 8682, Note_on_c, 7, 76, 49
7, 8687, Note_off_c, 7, 76, 0
7, 8688, Note_on_c, 7, 74, 49
7, 8730, Note_off_c, 7, 74, 0
7, 8736, Note_on_c, 7, 74, 49
7, 8820, Note_off_c, 7, 74, 0
7, 8832, Note_on_c, 7, 77, 49
7, 8874, Note_off_c, 7, 77, 0
7, 8880, Note_on_c, 7, 76, 49
7, 8922, Note_off_c, 7, 76, 0
7, 8928, Note_on_c, 7, 77, 49
7, 9012, Note_off_c, 7, 77, 0
7, 9120, Note_on_c, 7, 78, 49
7, 9162, Note_off_c, 7, 78, 0
7, 9168, Note_on_c, 7, 76, 49
7, 9210, Note_off_c, 7, 76, 0
7, 9216, Note_on_c, 7, 78, 49
7, 9300, Note_off_c, 7, 78, 0
7, 9408, Note_on_c, 7, 79, 49
7, 9450, Note_off_c, 7, 79, 0
7, 9456, Note_on_c, 7, 78, 49
7, 9498, Note_off_c, 7, 78, 0
7, 9504, Note_on_c, 7, 79, 49
7, 9588, Note_off_c, 7, 79, 0
7, 9600, Note_on_c, 7, 79, 49
7, 9780, Note_off_c, 7, 79, 0
7, 9888, Note_on_c, 7, 69, 49
7, 9951, Note_off_c, 7, 69, 0
7, 9960, Note_on_c, 7, 70, 49
7, 9981, Note_off_c, 7, 70, 0
7, 9984, Note_on_c, 7, 65, 49
7, 10068, Note_off_c, 7, 65, 0
7, 10080, Note_on_c, 7, 64, 49
7, 10143, Note_off_c, 7, 64, 0
7, 10152, Note_on_c, 7, 62, 49
7, 10173, Note_off_c, 7, 62, 0
7, 10368, Note_on_c, 7, 68, 36
7, 10452, Note_off_c, 7, 68, 0
7, 10656, Note_on_c, 7, 78, 36
7, 10740, Note_off_c, 7, 78, 0
7, 10944, Note_on_c, 7, 80, 75
7, 11028, Note_off_c, 7, 80, 0
7, 11040, Note_on_c, 7, 81, 75
7, 11316, Note_off_c, 7, 81, 0
7, 11316, End_track
8, 0, Start_track
8, 0, Title_t, "Violin II"
8, 0, Control_c, 8, 0, 0
8, 0, Program_c, 8, 40
8, 0, Time_signature, 3, 2, 96, 8
8, 0, Tempo, 1714285
8, 96, Note_on_c, 8, 69, 49
8, 138, Note_off_c, 8, 69, 0
8, 144, Note_on_c, 8, 69, 49
8, 186, Note_off_c, 8, 69, 0
8, 192, Note_on_c, 8, 69, 49
8, 234, Note_off_c, 8, 69, 0
8, 240, Note_on_c, 8, 69, 49
8, 282, Note_off_c, 8, 69, 0
8, 288, Note_on_c, 8, 69, 49
8, 330, Note_off_c, 8, 69, 0
8, 336, Note_on_c, 8, 69, 49
8, 378, Note_off_c, 8, 69, 0
8, 384, Note_on_c, 8, 69, 49
8, 426, Note_off_c, 8, 69, 0
8, 432, Note_on_c, 8, 69, 49
8, 474, Note_off_c, 8, 69, 0
8, 480, Note_on_c, 8, 69, 49
8, 522, Note_off_c, 8, 69, 0
8, 528, Note_on_c, 8, 69, 49
8, 570, Note_off_c, 8, 69, 0
8, 576, Note_on_c, 8, 69, 49
8, 618, Note_off_c, 8, 69, 0
8, 624, Note_on_c, 8, 69, 49
8, 666, Note_off_c, 8, 69, 0
8, 672, Note_on_c, 8, 71, 49
8, 714, Note_off_c, 8, 71, 0
8, 720, Note_on_c, 8, 71, 49
8, 762, Note_off_c, 8, 71, 0
8, 768, Note_on_c, 8, 71, 49
8, 810, Note_off_c, 8, 71, 0
8, 816, Note_on_c, 8, 71, 49
8, 858, Note_off_c, 8, 71, 0
8, 864, Note_on_c, 8, 71, 49
8, 906, Note_off_c, 8, 71, 0
8, 912, Note_on_c, 8, 71, 49
8, 954, Note_off_c, 8, 71, 0
8, 960, Note_on_c, 8, 73, 49
8, 1044, Note_off_c, 8, 73, 0
8, 1248, Note_on_c, 8, 69, 49
8, 1332, Note_off_c, 8, 69, 0
8, 1536, Note_on_c, 8, 66, 49
8, 1620, Note_off_c, 8, 66, 0
8, 1824, Note_on_c, 8, 64, 49
8, 1908, Note_off_c, 8, 64, 0
8, 2112, Note_on_c, 8, 62, 49
8, 2196, Note_off_c, 8, 62, 0
8, 2208, Note_on_c, 8, 74, 49
8, 2250, Note_off_c, 8, 74, 0
8, 2256, Note_on_c, 8, 76, 49
8, 2298, Note_off_c, 8, 76, 0
8, 2304, Note_on_c, 8, 78, 49
8, 2388, Note_off_c, 8, 78, 0
8, 2400, Note_on_c, 8, 79, 49
8, 2484, Note_off_c, 8, 79, 0
8, 2496, Note_on_c, 8, 67, 49
8, 2538, Note_off_c, 8, 67, 0
8, 2544, Note_on_c, 8, 66, 49
8, 2586, Note_off_c, 8, 66, 0
8, 2592, Note_on_c, 8, 67, 49
8, 2676, Note_off_c, 8, 67, 0
8, 2784, Note_on_c, 8, 67, 49
8, 2826, Note_off_c, 8, 67, 0
8, 2832, Note_on_c, 8, 65, 49
8, 2874, Note_off_c, 8, 65, 0
8, 2880, Note_on_c, 8, 67, 49
8, 2964, Note_off_c, 8, 67, 0
8, 3072, Note_on_c, 8, 67, 49
8, 3114, Note_off_c, 8, 67, 0
8, 3120, Note_on_c, 8, 65, 49
8, 3162, Note_off_c, 8, 65, 0
8, 3168, Note_on_c, 8, 67, 49
8, 3252, Note_off_c, 8, 67, 0
8, 3360, Note_on_c, 8, 74, 49
8, 3444, Note_off_c, 8, 74, 0
8, 3648, Note_on_c, 8, 71, 49
8, 3732, Note_off_c, 8, 71, 0
8, 3936, Note_on_c, 8, 69, 49
8, 4020, Note_off_c, 8, 69, 0
8, 4128, Note_on_c, 8, 68, 49
8, 4212, Note_off_c, 8, 68, 0
8, 4416, Note_on_c, 8, 72, 49
8, 4500, Note_off_c, 8, 72, 0
8, 4512, Note_on_c, 8, 77, 49
8, 4596, Note_off_c, 8, 77, 0
8, 4608, Note_on_c, 8, 76, 49
8, 4692, Note_off_c, 8, 76, 0
8, 4704, Note_on_c, 8, 74, 49
8, 4788, Note_off_c, 8, 74, 0
8, 4992, Note_on_c, 8, 69, 49
8, 5076, Note_off_c, 8, 69, 0
8, 5088, Note_on_c, 8, 74, 49
8, 5130, Note_off_c, 8, 74, 0
8, 5136, Note_on_c, 8, 71, 49
8, 5178, Note_off_c, 8, 71, 0
8, 5184, Note_on_c, 8, 76, 49
8, 5268, Note_off_c, 8, 76, 0
8, 5280, Note_on_c, 8, 74, 49
8, 5322, Note_off_c, 8, 74, 0
8, 5328, Note_on_c, 8, 72, 49
8, 5370, Note_off_c, 8, 72, 0
8, 5376, Note_on_c, 8, 71, 49
8, 5460, Note_off_c, 8, 71, 0
8, 5472, Note_on_c, 8, 76, 49
8, 5556, Note_off_c, 8, 76, 0
8, 5568, Note_on_c, 8, 76, 49
8, 5610, Note_off_c, 8, 76, 0
8, 5616, Note_on_c, 8, 74, 49
8, 5658, Note_off_c, 8, 74, 0
8, 5664, Note_on_c, 8, 76, 49
8, 5748, Note_off_c, 8, 76, 0
8, 5856, Note_on_c, 8, 76, 49
8, 5898, Note_off_c, 8, 76, 0
8, 5904, Note_on_c, 8, 74, 49
8, 5946, Note_off_c, 8, 74, 0
8, 5952, Note_on_c, 8, 76, 49
8, 6036, Note_off_c, 8, 76, 0
8, 6144, Note_on_c, 8, 77, 49
8, 6186, Note_off_c, 8, 77, 0
8, 6192, Note_on_c, 8, 76, 49
8, 6234, Note_off_c, 8, 76, 0
8, 6240, Note_on_c, 8, 77, 49
8, 6324, Note_off_c, 8, 77, 0
8, 6432, Note_on_c, 8, 79, 49
8, 6516, Note_off_c, 8, 79, 0
8, 6720, Note_on_c, 8, 73, 49
8, 6804, Note_off_c, 8, 73, 0
8, 7008, Note_on_c, 8, 74, 49
8, 7092, Note_off_c, 8, 74, 0
8, 7296, Note_on_c, 8, 76, 49
8, 7338, Note_off_c, 8, 76, 0
8, 7344, Note_on_c, 8, 73, 49
8, 7386, Note_off_c, 8, 73, 0
8, 7392, Note_on_c, 8, 74, 49
8, 7476, Note_off_c, 8, 74, 0
8, 7488, Note_on_c, 8, 67, 49
8, 7572, Note_off_c, 8, 67, 0
8, 7584, Note_on_c, 8, 74, 49
8, 7668, Note_off_c, 8, 74, 0
8, 7872, Note_on_c, 8, 79, 49
8, 7956, Note_off_c, 8, 79, 0
8, 7968, Note_on_c, 8, 77, 49
8, 8148, Note_off_c, 8, 77, 0
8, 8160, Note_on_c, 8, 74, 49
8, 8244, Note_off_c, 8, 74, 0
8, 8256, Note_on_c, 8, 76, 49
8, 8340, Note_off_c, 8, 76, 0
8, 8352, Note_on_c, 8, 69, 49
8, 8436, Note_off_c, 8, 69, 0
8, 8448, Note_on_c, 8, 67, 49
8, 8532, Note_off_c, 8, 67, 0
8, 8544, Note_on_c, 8, 67, 49
8, 8628, Note_off_c, 8, 67, 0
8, 8640, Note_on_c, 8, 67, 49
8, 8724, Note_off_c, 8, 67, 0
8, 8736, Note_on_c, 8, 65, 49
8, 8820, Note_off_c, 8, 65, 0
8, 8832, Note_on_c, 8, 74, 49
8, 8874, Note_off_c, 8, 74, 0
8, 8880, Note_on_c, 8, 73, 49
8, 8922, Note_off_c, 8, 73, 0
8, 8928, Note_on_c, 8, 74, 49
8, 9012, Note_off_c, 8, 74, 0
8, 9120, Note_on_c, 8, 74, 49
8, 9162, Note_off_c, 8, 74, 0
8, 9168, Note_on_c, 8, 72, 49
8, 9210, Note_off_c, 8, 72, 0
8, 9216, Note_on_c, 8, 74, 49
8, 9300, Note_off_c, 8, 74, 0
8, 9408, Note_on_c, 8, 74, 49
8, 9450, Note_off_c, 8, 74, 0
8, 9456, Note_on_c, 8, 72, 49
8, 9498, Note_off_c, 8, 72, 0
8, 9504, Note_on_c, 8, 74, 49
8, 9588, Note_off_c, 8, 74, 0
8, 9600, Note_on_c, 8, 76, 49
8, 9780, Note_off_c, 8, 76, 0
8, 9888, Note_on_c, 8, 65, 49
8, 9930, Note_off_c, 8, 65, 0
8, 9936, Note_on_c, 8, 64, 49
8, 9978, Note_off_c, 8, 64, 0
8, 9984, Note_on_c, 8, 65, 49
8, 10026, Note_off_c, 8, 65, 0
8, 10032, Note_on_c, 8, 67, 49
8, 10074, Note_off_c, 8, 67, 0
8, 10080, Note_on_c, 8, 69, 49
8, 10164, Note_off_c, 8, 69, 0
8, 10368, Note_on_c, 8, 64, 36
8, 10452, Note_off_c, 8, 64, 0
8, 10656, Note_on_c, 8, 75, 36
8, 10740, Note_off_c, 8, 75, 0
8, 10944, Note_on_c, 8, 77, 75
8, 10986, Note_off_c, 8, 77, 0
8, 10992, Note_on_c, 8, 76, 75
8, 11034, Note_off_c, 8, 76, 0
8, 11040, Note_on_c, 8, 76, 75
8, 11316, Note_off_c, 8, 76, 0
8, 11316, End_track
9, 0, Start_track
9, 0, Title_t, "Viola"
9, 0, Control_c, 9, 0, 0
9, 0, Program_c, 9, 41
9, 0, Time_signature, 3, 2, 96, 8
9, 0, Tempo, 1714285
9, 96, Note_on_c, 9, 64, 49
9, 138, Note_off_c, 9, 64, 0
9, 144, Note_on_c, 9, 64, 49
9, 186, Note_off_c, 9, 64, 0
9, 192, Note_on_c, 9, 64, 49
9, 234, Note_off_c, 9, 64, 0
9, 240, Note_on_c, 9, 64, 49
9, 282, Note_off_c, 9, 64, 0
9, 288, Note_on_c, 9, 64, 49
9, 330, Note_off_c, 9, 64, 0
9, 336, Note_on_c, 9, 64, 49
9, 378, Note_off_c, 9, 64, 0
9, 384, Note_on_c, 9, 64, 49
9, 426, Note_off_c, 9, 64, 0
9, 432, Note_on_c, 9, 64, 49
9, 474, Note_off_c, 9, 64, 0
9, 480, Note_on_c, 9, 64, 49
9, 522, Note_off_c, 9, 64, 0
9, 528, Note_on_c, 9, 64, 49
9, 570, Note_off_c, 9, 64, 0
9, 576, Note_on_c, 9, 64, 49
9, 618, Note_off_c, 9, 64, 0
9, 624, Note_on_c, 9, 64, 49
9, 666, Note_off_c, 9, 64, 0
9, 672, Note_on_c, 9, 62, 49
9, 714, Note_off_c, 9, 62, 0
9, 720, Note_on_c, 9, 62, 49
9, 762, Note_off_c, 9, 62, 0
9, 768, Note_on_c, 9, 62, 49
9, 810, Note_off_c, 9, 62, 0
9, 816, Note_on_c, 9, 62, 49
9, 858, Note_off_c, 9, 62, 0
9, 864, Note_on_c, 9, 62, 49
9, 906, Note_off_c, 9, 62, 0
9, 912, Note_on_c, 9, 62, 49
9, 954, Note_off_c, 9, 62, 0
9, 960, Note_on_c, 9, 69, 49
9, 1044, Note_off_c, 9, 69, 0
9, 1248, Note_on_c, 9, 65, 49
9, 1332, Note_off_c, 9, 65, 0
9, 1536, Note_on_c, 9, 57, 49
9, 1620, Note_off_c, 9, 57, 0
9, 1824, Note_on_c, 9, 61, 49
9, 1908, Note_off_c, 9, 61, 0
9, 2112, Note_on_c, 9, 69, 49
9, 2196, Note_off_c, 9, 69, 0
9, 2208, Note_on_c, 9, 70, 49
9, 2292, Note_off_c, 9, 70, 0
9, 2304, Note_on_c, 9, 72, 49
9, 2388, Note_off_c, 9, 72, 0
9, 2400, Note_on_c, 9, 74, 49
9, 2484, Note_off_c, 9, 74, 0
9, 2496, Note_on_c, 9, 62, 49
9, 2538, Note_off_c, 9, 62, 0
9, 2544, Note_on_c, 9, 60, 49
9, 2586, Note_off_c, 9, 60, 0
9, 2592, Note_on_c, 9, 62, 49
9, 2676, Note_off_c, 9, 62, 0
9, 2784, Note_on_c, 9, 62, 49
9, 2826, Note_off_c, 9, 62, 0
9, 2832, Note_on_c, 9, 60, 49
9, 2874, Note_off_c, 9, 60, 0
9, 2880, Note_on_c, 9, 62, 49
9, 2964, Note_off_c, 9, 62, 0
9, 3072, Note_on_c, 9, 63, 49
9, 3114, Note_off_c, 9, 63, 0
9, 3120, Note_on_c, 9, 62, 49
9, 3162, Note_off_c, 9, 62, 0
9, 3168, Note_on_c, 9, 63, 49
9, 3252, Note_off_c, 9, 63, 0
9, 3360, Note_on_c, 9, 71, 49
9, 3444, Note_off_c, 9, 71, 0
9, 3648, Note_on_c, 9, 68, 49
9, 3732, Note_off_c, 9, 68, 0
9, 3936, Note_on_c, 9, 66, 49
9, 4020, Note_off_c, 9, 66, 0
9, 4128, Note_on_c, 9, 64, 49
9, 4212, Note_off_c, 9, 64, 0
9, 4416, Note_on_c, 9, 64, 49
9, 4500, Note_off_c, 9, 64, 0
9, 4512, Note_on_c, 9, 62, 49
9, 4596, Note_off_c, 9, 62, 0
9, 4608, Note_on_c, 9, 69, 49
9, 4692, Note_off_c, 9, 69, 0
9, 4704, Note_on_c, 9, 69, 49
9, 4788, Note_off_c, 9, 69, 0
9, 4992, Note_on_c, 9, 66, 49
9, 5076, Note_off_c, 9, 66, 0
9, 5088, Note_on_c, 9, 71, 49
9, 5130, Note_off_c, 9, 71, 0
9, 5136, Note_on_c, 9, 68, 49
9, 5178, Note_off_c, 9, 68, 0
9, 5184, Note_on_c, 9, 69, 49
9, 5226, Note_off_c, 9, 69, 0
9, 5232, Note_on_c, 9, 64, 49
9, 5274, Note_off_c, 9, 64, 0
9, 5280, Note_on_c, 9, 65, 49
9, 5322, Note_off_c, 9, 65, 0
9, 5328, Note_on_c, 9, 69, 49
9, 5370, Note_off_c, 9, 69, 0
9, 5376, Note_on_c, 9, 64, 49
9, 5460, Note_off_c, 9, 64, 0
9, 5472, Note_on_c, 9, 71, 49
9, 5556, Note_off_c, 9, 71, 0
9, 5568, Note_on_c, 9, 72, 49
9, 5610, Note_off_c, 9, 72, 0
9, 5616, Note_on_c, 9, 71, 49
9, 5658, Note_off_c, 9, 71, 0
9, 5664, Note_on_c, 9, 72, 49
9, 5748, Note_off_c, 9, 72, 0
9, 5856, Note_on_c, 9, 73, 49
9, 5898, Note_off_c, 9, 73, 0
9, 5904, Note_on_c, 9, 71, 49
9, 5946, Note_off_c, 9, 71, 0
9, 5952, Note_on_c, 9, 72, 49
9, 6036, Note_off_c, 9, 72, 0
9, 6144, Note_on_c, 9, 74, 49
9, 6186, Note_off_c, 9, 74, 0
9, 6192, Note_on_c, 9, 73, 49
9, 6234, Note_off_c, 9, 73, 0
9, 6240, Note_on_c, 9, 74, 49
9, 6324, Note_off_c, 9, 74, 0
9, 6432, Note_on_c, 9, 74, 49
9, 6516, Note_off_c, 9, 74, 0
9, 6720, Note_on_c, 9, 70, 49
9, 6804, Note_off_c, 9, 70, 0
9, 7008, Note_on_c, 9, 69, 49
9, 7092, Note_off_c, 9, 69, 0
9, 7296, Note_on_c, 9, 69, 49
9, 7380, Note_off_c, 9, 69, 0
9, 7392, Note_on_c, 9, 69, 49
9, 7434, Note_off_c, 9, 69, 0
9, 7440, Note_on_c, 9, 71, 49
9, 7482, Note_off_c, 9, 71, 0
9, 7488, Note_on_c, 9, 73, 49
9, 7572, Note_off_c, 9, 73, 0
9, 7584, Note_on_c, 9, 69, 49
9, 7668, Note_off_c, 9, 69, 0
9, 7872, Note_on_c, 9, 70, 49
9, 7956, Note_off_c, 9, 70, 0
9, 7968, Note_on_c, 9, 74, 49
9, 8148, Note_off_c, 9, 74, 0
9, 8160, Note_on_c, 9, 71, 49
9, 8244, Note_off_c, 9, 71, 0
9, 8256, Note_on_c, 9, 67, 49
9, 8340, Note_off_c, 9, 67, 0
9, 8352, Note_on_c, 9, 74, 49
9, 8436, Note_off_c, 9, 74, 0
9, 8448, Note_on_c, 9, 70, 49
9, 8532, Note_off_c, 9, 70, 0
9, 8544, Note_on_c, 9, 69, 49
9, 8628, Note_off_c, 9, 69, 0
9, 8640, Note_on_c, 9, 69, 49
9, 8724, Note_off_c, 9, 69, 0
9, 8736, Note_on_c, 9, 69, 49
9, 8820, Note_off_c, 9, 69, 0
9, 8832, Note_on_c, 9, 69, 49
9, 8874, Note_off_c, 9, 69, 0
9, 8880, Note_on_c, 9, 67, 49
9, 8922, Note_off_c, 9, 67, 0
9, 8928, Note_on_c, 9, 69, 49
9, 9012, Note_off_c, 9, 69, 0
9, 9120, Note_on_c, 9, 69, 49
9, 9162, Note_off_c, 9, 69, 0
9, 9168, Note_on_c, 9, 67, 49
9, 9210, Note_off_c, 9, 67, 0
9, 9216, Note_on_c, 9, 69, 49
9, 9300, Note_off_c, 9, 69, 0
9, 9408, Note_on_c, 9, 70, 49
9, 9450, Note_off_c, 9, 70, 0
9, 9456, Note_on_c, 9, 69, 49
9, 9498, Note_off_c, 9, 69, 0
9, 9504, Note_on_c, 9, 70, 49
9, 9588, Note_off_c, 9, 70, 0
9, 9600, Note_on_c, 9, 70, 49
9, 9780, Note_off_c, 9, 70, 0
9, 9888, Note_on_c, 9, 62, 49
9, 9930, Note_off_c, 9, 62, 0
9, 9936, Note_on_c, 9, 62, 49
9, 9978, Note_off_c, 9, 62, 0
9, 9984, Note_on_c, 9, 57, 49
9, 10026, Note_off_c, 9, 57, 0
9, 10032, Note_on_c, 9, 59, 49
9, 10074, Note_off_c, 9, 59, 0
9, 10080, Note_on_c, 9, 61, 49
9, 10164, Note_off_c, 9, 61, 0
9, 10368, Note_on_c, 9, 59, 36
9, 10452, Note_off_c, 9, 59, 0
9, 10656, Note_on_c, 9, 69, 36
9, 10740, Note_off_c, 9, 69, 0
9, 10944, Note_on_c, 9, 74, 75
9, 11028, Note_off_c, 9, 74, 0
9, 11040, Note_on_c, 9, 73, 75
9, 11316, Note_off_c, 9, 73, 0
9, 11316, End_track
10, 0, Start_track
10, 0, Title_t, "Cello"
10, 0, Control_c, 11, 0, 0
10, 0, Program_c, 11, 42
10, 0, Time_signature, 3, 2, 96, 8
10, 0, Tempo, 1714285
10, 96, Note_on_c, 11, 45, 49
10, 180, Note_off_c, 11, 45, 0
10, 384, Note_on_c, 11, 45, 49
10, 468, Note_off_c, 11, 45, 0
10, 672, Note_on_c, 11, 45, 49
10, 756, Note_off_c, 11, 45, 0
10, 960, Note_on_c, 11, 55, 49
10, 1002, Note_off_c, 11, 55, 0
10, 1008, Note_on_c, 11, 55, 49
10, 1050, Note_off_c, 11, 55, 0
10, 1056, Note_on_c, 11, 53, 49
10, 1098, Note_off_c, 11, 53, 0
10, 1104, Note_on_c, 11, 53, 49
10, 1146, Note_off_c, 11, 53, 0
10, 1152, Note_on_c, 11, 52, 49
10, 1194, Note_off_c, 11, 52, 0
10, 1200, Note_on_c, 11, 52, 49
10, 1242, Note_off_c, 11, 52, 0
10, 1248, Note_on_c, 11, 50, 49
10, 1332, Note_off_c, 11, 50, 0
10, 1536, Note_on_c, 11, 50, 49
10, 1620, Note_off_c, 11, 50, 0
10, 1824, Note_on_c, 11, 50, 49
10, 1908, Note_off_c, 11, 50, 0
10, 2112, Note_on_c, 11, 48, 49
10, 2154, Note_off_c, 11, 48, 0
10, 2160, Note_on_c, 11, 48, 49
10, 2202, Note_off_c, 11, 48, 0
10, 2208, Note_on_c, 11, 46, 49
10, 2250, Note_off_c, 11, 46, 0
10, 2256, Note_on_c, 11, 46, 49
10, 2298, Note_off_c, 11, 46, 0
10, 2304, Note_on_c, 11, 45, 49
10, 2346, Note_off_c, 11, 45, 0
10, 2352, Note_on_c, 11, 45, 49
10, 2394, Note_off_c, 11, 45, 0
10, 2400, Note_on_c, 11, 55, 49
10, 2538, Note_off_c, 11, 55, 0
10, 2544, Note_on_c, 11, 56, 49
10, 2565, Note_off_c, 11, 56, 0
10, 2568, Note_on_c, 11, 55, 49
10, 2589, Note_off_c, 11, 55, 0
10, 2592, Note_on_c, 11, 53, 49
10, 2613, Note_off_c, 11, 53, 0
10, 2616, Note_on_c, 11, 51, 49
10, 2637, Note_off_c, 11, 51, 0
10, 2640, Note_on_c, 11, 50, 49
10, 2661, Note_off_c, 11, 50, 0
10, 2664, Note_on_c, 11, 53, 49
10, 2674, Note_off_c, 11, 53, 0
10, 2676, Note_on_c, 11, 51, 49
10, 2686, Note_off_c, 11, 51, 0
10, 2688, Note_on_c, 11, 53, 49
10, 2826, Note_off_c, 11, 53, 0
10, 2832, Note_on_c, 11, 55, 49
10, 2853, Note_off_c, 11, 55, 0
10, 2856, Note_on_c, 11, 56, 49
10, 2877, Note_off_c, 11, 56, 0
10, 2880, Note_on_c, 11, 55, 49
10, 2901, Note_off_c, 11, 55, 0
10, 2904, Note_on_c, 11, 53, 49
10, 2925, Note_off_c, 11, 53, 0
10, 2928, Note_on_c, 11, 51, 49
10, 2949, Note_off_c, 11, 51, 0
10, 2952, Note_on_c, 11, 53, 49
10, 2962, Note_off_c, 11, 53, 0
10, 2964, Note_on_c, 11, 50, 49
10, 2974, Note_off_c, 11, 50, 0
10, 2976, Note_on_c, 11, 51, 49
10, 3093, Note_off_c, 11, 51, 0
10, 3096, Note_on_c, 11, 53, 49
10, 3117, Note_off_c, 11, 53, 0
10, 3120, Note_on_c, 11, 51, 49
10, 3141, Note_off_c, 11, 51, 0
10, 3144, Note_on_c, 11, 50, 49
10, 3165, Note_off_c, 11, 50, 0
10, 3168, Note_on_c, 11, 48, 49
10, 3189, Note_off_c, 11, 48, 0
10, 3192, Note_on_c, 11, 50, 49
10, 3213, Note_off_c, 11, 50, 0
10, 3216, Note_on_c, 11, 47, 49
10, 3237, Note_off_c, 11, 47, 0
10, 3240, Note_on_c, 11, 48, 49
10, 3261, Note_off_c, 11, 48, 0
10, 3264, Note_on_c, 11, 44, 49
10, 3306, Note_off_c, 11, 44, 0
10, 3312, Note_on_c, 11, 44, 49
10, 3354, Note_off_c, 11, 44, 0
10, 3360, Note_on_c, 11, 44, 49
10, 3402, Note_off_c, 11, 44, 0
10, 3408, Note_on_c, 11, 44, 49
10, 3450, Note_off_c, 11, 44, 0
10, 3456, Note_on_c, 11, 44, 49
10, 3498, Note_off_c, 11, 44, 0
10, 3504, Note_on_c, 11, 44, 49
10, 3546, Note_off_c, 11, 44, 0
10, 3552, Note_on_c, 11, 40, 49
10, 3594, Note_off_c, 11, 40, 0
10, 3600, Note_on_c, 11, 40, 49
10, 3642, Note_off_c, 11, 40, 0
10, 3648, Note_on_c, 11, 40, 49
10, 3690, Note_off_c, 11, 40, 0
10, 3696, Note_on_c, 11, 40, 49
10, 3738, Note_off_c, 11, 40, 0
10, 3744, Note_on_c, 11, 40, 49
10, 3786, Note_off_c, 11, 40, 0
10, 3792, Note_on_c, 11, 40, 49
10, 3834, Note_off_c, 11, 40, 0
10, 3840, Note_on_c, 11, 40, 49
10, 3882, Note_off_c, 11, 40, 0
10, 3888, Note_on_c, 11, 40, 49
10, 3930, Note_off_c, 11, 40, 0
10, 3936, Note_on_c, 11, 39, 49
10, 3978, Note_off_c, 11, 39, 0
10, 3984, Note_on_c, 11, 39, 49
10, 4026, Note_off_c, 11, 39, 0
10, 4032, Note_on_c, 11, 39, 49
10, 4074, Note_off_c, 11, 39, 0
10, 4080, Note_on_c, 11, 39, 49
10, 4122, Note_off_c, 11, 39, 0
10, 4128, Note_on_c, 11, 50, 49
10, 4170, Note_off_c, 11, 50, 0
10, 4176, Note_on_c, 11, 50, 49
10, 4218, Note_off_c, 11, 50, 0
10, 4224, Note_on_c, 11, 48, 49
10, 4266, Note_off_c, 11, 48, 0
10, 4272, Note_on_c, 11, 48, 49
10, 4314, Note_off_c, 11, 48, 0
10, 4320, Note_on_c, 11, 47, 49
10, 4362, Note_off_c, 11, 47, 0
10, 4368, Note_on_c, 11, 47, 49
10, 4410, Note_off_c, 11, 47, 0
10, 4416, Note_on_c, 11, 45, 49
10, 4458, Note_off_c, 11, 45, 0
10, 4464, Note_on_c, 11, 45, 49
10, 4506, Note_off_c, 11, 45, 0
10, 4512, Note_on_c, 11, 47, 49
10, 4554, Note_off_c, 11, 47, 0
10, 4560, Note_on_c, 11, 47, 49
10, 4602, Note_off_c, 11, 47, 0
10, 4608, Note_on_c, 11, 49, 49
10, 4650, Note_off_c, 11, 49, 0
10, 4656, Note_on_c, 11, 49, 49
10, 4698, Note_off_c, 11, 49, 0
10, 4704, Note_on_c, 11, 50, 49
10, 4746, Note_off_c, 11, 50, 0
10, 4752, Note_on_c, 11, 50, 49
10, 4794, Note_off_c, 11, 50, 0
10, 4800, Note_on_c, 11, 52, 49
10, 4842, Note_off_c, 11, 52, 0
10, 4848, Note_on_c, 11, 52, 49
10, 4890, Note_off_c, 11, 52, 0
10, 4896, Note_on_c, 11, 54, 49
10, 4938, Note_off_c, 11, 54, 0
10, 4944, Note_on_c, 11, 54, 49
10, 4986, Note_off_c, 11, 54, 0
10, 4992, Note_on_c, 11, 48, 49
10, 5034, Note_off_c, 11, 48, 0
10, 5040, Note_on_c, 11, 48, 49
10, 5082, Note_off_c, 11, 48, 0
10, 5088, Note_on_c, 11, 47, 49
10, 5130, Note_off_c, 11, 47, 0
10, 5136, Note_on_c, 11, 47, 49
10, 5178, Note_off_c, 11, 47, 0
10, 5184, Note_on_c, 11, 45, 49
10, 5226, Note_off_c, 11, 45, 0
10, 5232, Note_on_c, 11, 45, 49
10, 5274, Note_off_c, 11, 45, 0
10, 5280, Note_on_c, 11, 38, 49
10, 5322, Note_off_c, 11, 38, 0
10, 5328, Note_on_c, 11, 38, 49
10, 5370, Note_off_c, 11, 38, 0
10, 5376, Note_on_c, 11, 40, 49
10, 5418, Note_off_c, 11, 40, 0
10, 5424, Note_on_c, 11, 40, 49
10, 5466, Note_off_c, 11, 40, 0
10, 5472, Note_on_c, 11, 40, 49
10, 5514, Note_off_c, 11, 40, 0
10, 5520, Note_on_c, 11, 40, 49
10, 5562, Note_off_c, 11, 40, 0
10, 5568, Note_on_c, 11, 57, 49
10, 5706, Note_off_c, 11, 57, 0
10, 5712, Note_on_c, 11, 58, 49
10, 5733, Note_off_c, 11, 58, 0
10, 5736, Note_on_c, 11, 57, 49
10, 5757, Note_off_c, 11, 57, 0
10, 5760, Note_on_c, 11, 55, 49
10, 5781, Note_off_c, 11, 55, 0
10, 5784, Note_on_c, 11, 53, 49
10, 5805, Note_off_c, 11, 53, 0
10, 5808, Note_on_c, 11, 52, 49
10, 5829, Note_off_c, 11, 52, 0
10, 5832, Note_on_c, 11, 55, 49
10, 5842, Note_off_c, 11, 55, 0
10, 5844, Note_on_c, 11, 53, 49
10, 5854, Note_off_c, 11, 53, 0
10, 5856, Note_on_c, 11, 55, 49
10, 5994, Note_off_c, 11, 55, 0
10, 6000, Note_on_c, 11, 57, 49
10, 6021, Note_off_c, 11, 57, 0
10, 6024, Note_on_c, 11, 58, 49
10, 6045, Note_off_c, 11, 58, 0
10, 6048, Note_on_c, 11, 57, 49
10, 6069, Note_off_c, 11, 57, 0
10, 6072, Note_on_c, 11, 55, 49
10, 6093, Note_off_c, 11, 55, 0
10, 6096, Note_on_c, 11, 53, 49
10, 6117, Note_off_c, 11, 53, 0
10, 6120, Note_on_c, 11, 55, 49
10, 6130, Note_off_c, 11, 55, 0
10, 6132, Note_on_c, 11, 52, 49
10, 6142, Note_off_c, 11, 52, 0
10, 6144, Note_on_c, 11, 53, 49
10, 6261, Note_off_c, 11, 53, 0
10, 6264, Note_on_c, 11, 55, 49
10, 6285, Note_off_c, 11, 55, 0
10, 6288, Note_on_c, 11, 53, 49
10, 6309, Note_off_c, 11, 53, 0
10, 6312, Note_on_c, 11, 52, 49
10, 6333, Note_off_c, 11, 52, 0
10, 6336, Note_on_c, 11, 50, 49
10, 6357, Note_off_c, 11, 50, 0
10, 6360, Note_on_c, 11, 52, 49
10, 6381, Note_off_c, 11, 52, 0
10, 6384, Note_on_c, 11, 49, 49
10, 6405, Note_off_c, 11, 49, 0
10, 6408, Note_on_c, 11, 50, 49
10, 6429, Note_off_c, 11, 50, 0
10, 6432, Note_on_c, 11, 43, 49
10, 6474, Note_off_c, 11, 43, 0
10, 6480, Note_on_c, 11, 43, 49
10, 6522, Note_off_c, 11, 43, 0
10, 6528, Note_on_c, 11, 43, 49
10, 6570, Note_off_c, 11, 43, 0
10, 6576, Note_on_c, 11, 43, 49
10, 6618, Note_off_c, 11, 43, 0
10, 6624, Note_on_c, 11, 43, 49
10, 6666, Note_off_c, 11, 43, 0
10, 6672, Note_on_c, 11, 43, 49
10, 6714, Note_off_c, 11, 43, 0
10, 6720, Note_on_c, 11, 40, 49
10, 6762, Note_off_c, 11, 40, 0
10, 6768, Note_on_c, 11, 40, 49
10, 6810, Note_off_c, 11, 40, 0
10, 6816, Note_on_c, 11, 49, 49
10, 6858, Note_off_c, 11, 49, 0
10, 6864, Note_on_c, 11, 49, 49
10, 6906, Note_off_c, 11, 49, 0
10, 6912, Note_on_c, 11, 45, 49
10, 6954, Note_off_c, 11, 45, 0
10, 6960, Note_on_c, 11, 45, 49
10, 7002, Note_off_c, 11, 45, 0
10, 7008, Note_on_c, 11, 50, 49
10, 7050, Note_off_c, 11, 50, 0
10, 7056, Note_on_c, 11, 50, 49
10, 7098, Note_off_c, 11, 50, 0
10, 7104, Note_on_c, 11, 44, 49
10, 7146, Note_off_c, 11, 44, 0
10, 7152, Note_on_c, 11, 44, 49
10, 7194, Note_off_c, 11, 44, 0
10, 7200, Note_on_c, 11, 44, 49
10, 7242, Note_off_c, 11, 44, 0
10, 7248, Note_on_c, 11, 44, 49
10, 7290, Note_off_c, 11, 44, 0
10, 7296, Note_on_c, 11, 55, 49
10, 7338, Note_off_c, 11, 55, 0
10, 7344, Note_on_c, 11, 55, 49
10, 7386, Note_off_c, 11, 55, 0
10, 7392, Note_on_c, 11, 53, 49
10, 7434, Note_off_c, 11, 53, 0
10, 7440, Note_on_c, 11, 53, 49
10, 7482, Note_off_c, 11, 53, 0
10, 7488, Note_on_c, 11, 52, 49
10, 7530, Note_off_c, 11, 52, 0
10, 7536, Note_on_c, 11, 52, 49
10, 7578, Note_off_c, 11, 52, 0
10, 7584, Note_on_c, 11, 50, 49
10, 7626, Note_off_c, 11, 50, 0
10, 7632, Note_on_c, 11, 50, 49
10, 7674, Note_off_c, 11, 50, 0
10, 7680, Note_on_c, 11, 52, 49
10, 7722, Note_off_c, 11, 52, 0
10, 7728, Note_on_c, 11, 52, 49
10, 7770, Note_off_c, 11, 52, 0
10, 7776, Note_on_c, 11, 54, 49
10, 7818, Note_off_c, 11, 54, 0
10, 7824, Note_on_c, 11, 54, 49
10, 7866, Note_off_c, 11, 54, 0
10, 7872, Note_on_c, 11, 55, 49
10, 7914, Note_off_c, 11, 55, 0
10, 7920, Note_on_c, 11, 55, 49
10, 7962, Note_off_c, 11, 55, 0
10, 7968, Note_on_c, 11, 57, 49
10, 8010, Note_off_c, 11, 57, 0
10, 8016, Note_on_c, 11, 57, 49
10, 8058, Note_off_c, 11, 57, 0
10, 8064, Note_on_c, 11, 59, 49
10, 8106, Note_off_c, 11, 59, 0
10, 8112, Note_on_c, 11, 59, 49
10, 8154, Note_off_c, 11, 59, 0
10, 8160, Note_on_c, 11, 53, 49
10, 8202, Note_off_c, 11, 53, 0
10, 8208, Note_on_c, 11, 53, 49
10, 8250, Note_off_c, 11, 53, 0
10, 8256, Note_on_c, 11, 52, 49
10, 8298, Note_off_c, 11, 52, 0
10, 8304, Note_on_c, 11, 52, 49
10, 8346, Note_off_c, 11, 52, 0
10, 8352, Note_on_c, 11, 50, 49
10, 8394, Note_off_c, 11, 50, 0
10, 8400, Note_on_c, 11, 50, 49
10, 8442, Note_off_c, 11, 50, 0
10, 8448, Note_on_c, 11, 55, 49
10, 8490, Note_off_c, 11, 55, 0
10, 8496, Note_on_c, 11, 55, 49
10, 8538, Note_off_c, 11, 55, 0
10, 8544, Note_on_c, 11, 57, 49
10, 8586, Note_off_c, 11, 57, 0
10, 8592, Note_on_c, 11, 57, 49
10, 8634, Note_off_c, 11, 57, 0
10, 8640, Note_on_c, 11, 45, 49
10, 8682, Note_off_c, 11, 45, 0
10, 8688, Note_on_c, 11, 45, 49
10, 8730, Note_off_c, 11, 45, 0
10, 8736, Note_on_c, 11, 50, 49
10, 8874, Note_off_c, 11, 50, 0
10, 8880, Note_on_c, 11, 51, 49
10, 8901, Note_off_c, 11, 51, 0
10, 8904, Note_on_c, 11, 50, 49
10, 8925, Note_off_c, 11, 50, 0
10, 8928, Note_on_c, 11, 48, 49
10, 8949, Note_off_c, 11, 48, 0
10, 8952, Note_on_c, 11, 46, 49
10, 8973, Note_off_c, 11, 46, 0
10, 8976, Note_on_c, 11, 45, 49
10, 8997, Note_off_c, 11, 45, 0
10, 9000, Note_on_c, 11, 48, 49
10, 9010, Note_off_c, 11, 48, 0
10, 9012, Note_on_c, 11, 46, 49
10, 9022, Note_off_c, 11, 46, 0
10, 9024, Note_on_c, 11, 48, 49
10, 9162, Note_off_c, 11, 48, 0
10, 9168, Note_on_c, 11, 50, 49
10, 9189, Note_off_c, 11, 50, 0
10, 9192, Note_on_c, 11, 51, 49
10, 9213, Note_off_c, 11, 51, 0
10, 9216, Note_on_c, 11, 50, 49
10, 9237, Note_off_c, 11, 50, 0
10, 9240, Note_on_c, 11, 48, 49
10, 9261, Note_off_c, 11, 48, 0
10, 9264, Note_on_c, 11, 46, 49
10, 9285, Note_off_c, 11, 46, 0
10, 9288, Note_on_c, 11, 48, 49
10, 9298, Note_off_c, 11, 48, 0
10, 9300, Note_on_c, 11, 45, 49
10, 9310, Note_off_c, 11, 45, 0
10, 9312, Note_on_c, 11, 46, 49
10, 9429, Note_off_c, 11, 46, 0
10, 9432, Note_on_c, 11, 48, 49
10, 9453, Note_off_c, 11, 48, 0
10, 9456, Note_on_c, 11, 46, 49
10, 9477, Note_off_c, 11, 46, 0
10, 9480, Note_on_c, 11, 45, 49
10, 9501, Note_off_c, 11, 45, 0
10, 9504, Note_on_c, 11, 43, 49
10, 9525, Note_off_c, 11, 43, 0
10, 9528, Note_on_c, 11, 45, 49
10, 9549, Note_off_c, 11, 45, 0
10, 9552, Note_on_c, 11, 42, 49
10, 9573, Note_off_c, 11, 42, 0
10, 9576, Note_on_c, 11, 43, 49
10, 9597, Note_off_c, 11, 43, 0
10, 9600, Note_on_c, 11, 37, 49
10, 9780, Note_off_c, 11, 37, 0
10, 9888, Note_on_c, 11, 38, 49
10, 9930, Note_off_c, 11, 38, 0
10, 9936, Note_on_c, 11, 43, 49
10, 9978, Note_off_c, 11, 43, 0
10, 9984, Note_on_c, 11, 45, 49
10, 10026, Note_off_c, 11, 45, 0
10, 10032, Note_on_c, 11, 45, 49
10, 10074, Note_off_c, 11, 45, 0
10, 10080, Note_on_c, 11, 45, 49
10, 10122, Note_off_c, 11, 45, 0
10, 10128, Note_on_c, 11, 45, 49
10, 10170, Note_off_c, 11, 45, 0
10, 10176, Note_on_c, 11, 50, 36
10, 10260, Note_off_c, 11, 50, 0
10, 10464, Note_on_c, 11, 48, 36
10, 10548, Note_off_c, 11, 48, 0
10, 10752, Note_on_c, 11, 46, 75
10, 10836, Note_off_c, 11, 46, 0
10, 11040, Note_on_c, 11, 45, 75
10, 11316, Note_off_c, 11, 45, 0
10, 11316, End_track
11, 0, Start_track
11, 0, Title_t, "Contrabass"
11, 0, Control_c, 12, 0, 0
11, 0, Program_c, 12, 43
11, 0, Time_signature, 3, 2, 96, 8
11, 0, Tempo, 1714285
11, 96, Note_on_c, 12, 33, 49
11, 180, Note_off_c, 12, 33, 0
11, 384, Note_on_c, 12, 33, 49
11, 468, Note_off_c, 12, 33, 0
11, 672, Note_on_c, 12, 33, 49
11, 756, Note_off_c, 12, 33, 0
11, 960, Note_on_c, 12, 43, 49
11, 1002, Note_off_c, 12, 43, 0
11, 1008, Note_on_c, 12, 43, 49
11, 1050, Note_off_c, 12, 43, 0
11, 1056, Note_on_c, 12, 41, 49
11, 1098, Note_off_c, 12, 41, 0
11, 1104, Note_on_c, 12, 41, 49
11, 1146, Note_off_c, 12, 41, 0
11, 1152, Note_on_c, 12, 40, 49
11, 1194, Note_off_c, 12, 40, 0
11, 1200, Note_on_c, 12, 40, 49
11, 1242, Note_off_c, 12, 40, 0
11, 1248, Note_on_c, 12, 38, 49
11, 1332, Note_off_c, 12, 38, 0
11, 1536, Note_on_c, 12, 38, 49
11, 1620, Note_off_c, 12, 38, 0
11, 1824, Note_on_c, 12, 38, 49
11, 1908, Note_off_c, 12, 38, 0
11, 2112, Note_on_c, 12, 36, 49
11, 2154, Note_off_c, 12, 36, 0
11, 2160, Note_on_c, 12, 36, 49
11, 2202, Note_off_c, 12, 36, 0
11, 2208, Note_on_c, 12, 34, 49
11, 2250, Note_off_c, 12, 34, 0
11, 2256, Note_on_c, 12, 34, 49
11, 2298, Note_off_c, 12, 34, 0
11, 2304, Note_on_c, 12, 33, 49
11, 2346, Note_off_c, 12, 33, 0
11, 2352, Note_on_c, 12, 33, 49
11, 2394, Note_off_c, 12, 33, 0
11, 2400, Note_on_c, 12, 31, 49
11, 2400, Note_on_c, 12, 43, 49
11, 2484, Note_off_c, 12, 31, 0
11, 2538, Note_off_c, 12, 43, 0
11, 2544, Note_on_c, 12, 44, 49
11, 2565, Note_off_c, 12, 44, 0
11, 2568, Note_on_c, 12, 43, 49
11, 2589, Note_off_c, 12, 43, 0
11, 2592, Note_on_c, 12, 41, 49
11, 2613, Note_off_c, 12, 41, 0
11, 2616, Note_on_c, 12, 39, 49
11, 2637, Note_off_c, 12, 39, 0
11, 2640, Note_on_c, 12, 38, 49
11, 2661, Note_off_c, 12, 38, 0
11, 2664, Note_on_c, 12, 41, 49
11, 2674, Note_off_c, 12, 41, 0
11, 2676, Note_on_c, 12, 39, 49
11, 2686, Note_off_c, 12, 39, 0
11, 2688, Note_on_c, 12, 41, 49
11, 2826, Note_off_c, 12, 41, 0
11, 2832, Note_on_c, 12, 43, 49
11, 2853, Note_off_c, 12, 43, 0
11, 2856, Note_on_c, 12, 44, 49
11, 2877, Note_off_c, 12, 44, 0
11, 2880, Note_on_c, 12, 43, 49
11, 2901, Note_off_c, 12, 43, 0
11, 2904, Note_on_c, 12, 41, 49
11, 2925, Note_off_c, 12, 41, 0
11, 2928, Note_on_c, 12, 39, 49
11, 2949, Note_off_c, 12, 39, 0
11, 2952, Note_on_c, 12, 41, 49
11, 2962, Note_off_c, 12, 41, 0
11, 2964, Note_on_c, 12, 38, 49
11, 2974, Note_off_c, 12, 38, 0
11, 2976, Note_on_c, 12, 39, 49
11, 3093, Note_off_c, 12, 39, 0
11, 3096, Note_on_c, 12, 41, 49
11, 3117, Note_off_c, 12, 41, 0
11, 3120, Note_on_c, 12, 40, 49
11, 3141, Note_off_c, 12, 40, 0
11, 3144, Note_on_c, 12, 38, 49
11, 3165, Note_off_c, 12, 38, 0
11, 3168, Note_on_c, 12, 36, 49
11, 3189, Note_off_c, 12, 36, 0
11, 3192, Note_on_c, 12, 38, 49
11, 3213, Note_off_c, 12, 38, 0
11, 3216, Note_on_c, 12, 35, 49
11, 3237, Note_off_c, 12, 35, 0
11, 3240, Note_on_c, 12, 36, 49
11, 3261, Note_off_c, 12, 36, 0
11, 3264, Note_on_c, 12, 32, 49
11, 3306, Note_off_c, 12, 32, 0
11, 3312, Note_on_c, 12, 32, 49
11, 3354, Note_off_c, 12, 32, 0
11, 3360, Note_on_c, 12, 32, 49
11, 3402, Note_off_c, 12, 32, 0
11, 3408, Note_on_c, 12, 32, 49
11, 3450, Note_off_c, 12, 32, 0
11, 3456, Note_on_c, 12, 32, 49
11, 3498, Note_off_c, 12, 32, 0
11, 3504, Note_on_c, 12, 32, 49
11, 3546, Note_off_c, 12, 32, 0
11, 3552, Note_on_c, 12, 28, 49
11, 3594, Note_off_c, 12, 28, 0
11, 3600, Note_on_c, 12, 28, 49
11, 3642, Note_off_c, 12, 28, 0
11, 3648, Note_on_c, 12, 28, 49
11, 3690, Note_off_c, 12, 28, 0
11, 3696, Note_on_c, 12, 28, 49
11, 3738, Note_off_c, 12, 28, 0
11, 3744, Note_on_c, 12, 28, 49
11, 3786, Note_off_c, 12, 28, 0
11, 3792, Note_on_c, 12, 28, 49
11, 3834, Note_off_c, 12, 28, 0
11, 3840, Note_on_c, 12, 28, 49
11, 3882, Note_off_c, 12, 28, 0
11, 3888, Note_on_c, 12, 28, 49
11, 3930, Note_off_c, 12, 28, 0
11, 3936, Note_on_c, 12, 27, 49
11, 3978, Note_off_c, 12, 27, 0
11, 3984, Note_on_c, 12, 27, 49
11, 4026, Note_off_c, 12, 27, 0
11, 4032, Note_on_c, 12, 27, 49
11, 4074, Note_off_c, 12, 27, 0
11, 4080, Note_on_c, 12, 27, 49
11, 4122, Note_off_c, 12, 27, 0
11, 4128, Note_on_c, 12, 38, 49
11, 4170, Note_off_c, 12, 38, 0
11, 4176, Note_on_c, 12, 38, 49
11, 4218, Note_off_c, 12, 38, 0
11, 4224, Note_on_c, 12, 36, 49
11, 4266, Note_off_c, 12, 36, 0
11, 4272, Note_on_c, 12, 36, 49
11, 4314, Note_off_c, 12, 36, 0
11, 4320, Note_on_c, 12, 35, 49
11, 4362, Note_off_c, 12, 35, 0
11, 4368, Note_on_c, 12, 35, 49
11, 4410, Note_off_c, 12, 35, 0
11, 4416, Note_on_c, 12, 33, 49
11, 4458, Note_off_c, 12, 33, 0
11, 4464, Note_on_c, 12, 33, 49
11, 4506, Note_off_c, 12, 33, 0
11, 4512, Note_on_c, 12, 35, 49
11, 4554, Note_off_c, 12, 35, 0
11, 4560, Note_on_c, 12, 35, 49
11, 4602, Note_off_c, 12, 35, 0
11, 4608, Note_on_c, 12, 37, 49
11, 4650, Note_off_c, 12, 37, 0
11, 4656, Note_on_c, 12, 37, 49
11, 4698, Note_off_c, 12, 37, 0
11, 4704, Note_on_c, 12, 38, 49
11, 4746, Note_off_c, 12, 38, 0
11, 4752, Note_on_c, 12, 38, 49
11, 4794, Note_off_c, 12, 38, 0
11, 4800, Note_on_c, 12, 40, 49
11, 4842, Note_off_c, 12, 40, 0
11, 4848, Note_on_c, 12, 40, 49
11, 4890, Note_off_c, 12, 40, 0
11, 4896, Note_on_c, 12, 42, 49
11, 4938, Note_off_c, 12, 42, 0
11, 4944, Note_on_c, 12, 42, 49
11, 4986, Note_off_c, 12, 42, 0
11, 4992, Note_on_c, 12, 36, 49
11, 5034, Note_off_c, 12, 36, 0
11, 5040, Note_on_c, 12, 36, 49
11, 5082, Note_off_c, 12, 36, 0
11, 5088, Note_on_c, 12, 35, 49
11, 5130, Note_off_c, 12, 35, 0
11, 5136, Note_on_c, 12, 35, 49
11, 5178, Note_off_c, 12, 35, 0
11, 5184, Note_on_c, 12, 33, 49
11, 5226, Note_off_c, 12, 33, 0
11, 5232, Note_on_c, 12, 33, 49
11, 5274, Note_off_c, 12, 33, 0
11, 5280, Note_on_c, 12, 26, 49
11, 5322, Note_off_c, 12, 26, 0
11, 5328, Note_on_c, 12, 26, 49
11, 5370, Note_off_c, 12, 26, 0
11, 5376, Note_on_c, 12, 28, 49
11, 5418, Note_off_c, 12, 28, 0
11, 5424, Note_on_c, 12, 28, 49
11, 5466, Note_off_c, 12, 28, 0
11, 5472, Note_on_c, 12, 28, 49
11, 5514, Note_off_c, 12, 28, 0
11, 5520, Note_on_c, 12, 28, 49
11, 5562, Note_off_c, 12, 28, 0
11, 5568, Note_on_c, 12, 33, 49
11, 5568, Note_on_c, 12, 45, 49
11, 5652, Note_off_c, 12, 33, 0
11, 5706, Note_off_c, 12, 45, 0
11, 5712, Note_on_c, 12, 46, 49
11, 5733, Note_off_c, 12, 46, 0
11, 5736, Note_on_c, 12, 45, 49
11, 5757, Note_off_c, 12, 45, 0
11, 5760, Note_on_c, 12, 43, 49
11, 5781, Note_off_c, 12, 43, 0
11, 5784, Note_on_c, 12, 41, 49
11, 5805, Note_off_c, 12, 41, 0
11, 5808, Note_on_c, 12, 40, 49
11, 5829, Note_off_c, 12, 40, 0
11, 5832, Note_on_c, 12, 43, 49
11, 5842, Note_off_c, 12, 43, 0
11, 5844, Note_on_c, 12, 41, 49
11, 5854, Note_off_c, 12, 41, 0
11, 5856, Note_on_c, 12, 43, 49
11, 5994, Note_off_c, 12, 43, 0
11, 6000, Note_on_c, 12, 45, 49
11, 6021, Note_off_c, 12, 45, 0
11, 6024, Note_on_c, 12, 46, 49
11, 6045, Note_off_c, 12, 46, 0
11, 6048, Note_on_c, 12, 45, 49
11, 6069, Note_off_c, 12, 45, 0
11, 6072, Note_on_c, 12, 43, 49
11, 6093, Note_off_c, 12, 43, 0
11, 6096, Note_on_c, 12, 41, 49
11, 6117, Note_off_c, 12, 41, 0
11, 6120, Note_on_c, 12, 43, 49
11, 6130, Note_off_c, 12, 43, 0
11, 6132, Note_on_c, 12, 40, 49
11, 6142, Note_off_c, 12, 40, 0
11, 6144, Note_on_c, 12, 41, 49
11, 6261, Note_off_c, 12, 41, 0
11, 6264, Note_on_c, 12, 43, 49
11, 6285, Note_off_c, 12, 43, 0
11, 6288, Note_on_c, 12, 41, 49
11, 6309, Note_off_c, 12, 41, 0
11, 6312, Note_on_c, 12, 40, 49
11, 6333, Note_off_c, 12, 40, 0
11, 6336, Note_on_c, 12, 38, 49
11, 6357, Note_off_c, 12, 38, 0
11, 6360, Note_on_c, 12, 40, 49
11, 6381, Note_off_c, 12, 40, 0
11, 6384, Note_on_c, 12, 37, 49
11, 6405, Note_off_c, 12, 37, 0
11, 6408, Note_on_c, 12, 38, 49
11, 6429, Note_off_c, 12, 38, 0
11, 6432, Note_on_c, 12, 31, 49
11, 6474, Note_off_c, 12, 31, 0
11, 6480, Note_on_c, 12, 31, 49
11, 6522, Note_off_c, 12, 31, 0
11, 6528, Note_on_c, 12, 31, 49
11, 6570, Note_off_c, 12, 31, 0
11, 6576, Note_on_c, 12, 31, 49
11, 6618, Note_off_c, 12, 31, 0
11, 6624, Note_on_c, 12, 31, 49
11, 6666, Note_off_c, 12, 31, 0
11, 6672, Note_on_c, 12, 31, 49
11, 6714, Note_off_c, 12, 31, 0
11, 6720, Note_on_c, 12, 28, 49
11, 6762, Note_off_c, 12, 28, 0
11, 6768, Note_on_c, 12, 28, 49
11, 6810, Note_off_c, 12, 28, 0
11, 6816, Note_on_c, 12, 37, 49
11, 6858, Note_off_c, 12, 37, 0
11, 6864, Note_on_c, 12, 37, 49
11, 6906, Note_off_c, 12, 37, 0
11, 6912, Note_on_c, 12, 33, 49
11, 6954, Note_off_c, 12, 33, 0
11, 6960, Note_on_c, 12, 33, 49
11, 7002, Note_off_c, 12, 33, 0
11, 7008, Note_on_c, 12, 38, 49
11, 7050, Note_off_c, 12, 38, 0
11, 7056, Note_on_c, 12, 38, 49
11, 7098, Note_off_c, 12, 38, 0
11, 7104, Note_on_c, 12, 32, 49
11, 7146, Note_off_c, 12, 32, 0
11, 7152, Note_on_c, 12, 32, 49
11, 7194, Note_off_c, 12, 32, 0
11, 7200, Note_on_c, 12, 32, 49
11, 7242, Note_off_c, 12, 32, 0
11, 7248, Note_on_c, 12, 32, 49
11, 7290, Note_off_c, 12, 32, 0
11, 7296, Note_on_c, 12, 43, 49
11, 7338, Note_off_c, 12, 43, 0
11, 7344, Note_on_c, 12, 43, 49
11, 7386, Note_off_c, 12, 43, 0
11, 7392, Note_on_c, 12, 41, 49
11, 7434, Note_off_c, 12, 41, 0
11, 7440, Note_on_c, 12, 41, 49
11, 7482, Note_off_c, 12, 41, 0
11, 7488, Note_on_c, 12, 40, 49
11, 7530, Note_off_c, 12, 40, 0
11, 7536, Note_on_c, 12, 40, 49
11, 7578, Note_off_c, 12, 40, 0
11, 7584, Note_on_c, 12, 38, 49
11, 7626, Note_off_c, 12, 38, 0
11, 7632, Note_on_c, 12, 38, 49
11, 7674, Note_off_c, 12, 38, 0
11, 7680, Note_on_c, 12, 40, 49
11, 7722, Note_off_c, 12, 40, 0
11, 7728, Note_on_c, 12, 40, 49
11, 7770, Note_off_c, 12, 40, 0
11, 7776, Note_on_c, 12, 42, 49
11, 7818, Note_off_c, 12, 42, 0
11, 7824, Note_on_c, 12, 42, 49
11, 7866, Note_off_c, 12, 42, 0
11, 7872, Note_on_c, 12, 43, 49
11, 7914, Note_off_c, 12, 43, 0
11, 7920, Note_on_c, 12, 43, 49
11, 7962, Note_off_c, 12, 43, 0
11, 7968, Note_on_c, 12, 45, 49
11, 8010, Note_off_c, 12, 45, 0
11, 8016, Note_on_c, 12, 45, 49
11, 8058, Note_off_c, 12, 45, 0
11, 8064, Note_on_c, 12, 47, 49
11, 8106, Note_off_c, 12, 47, 0
11, 8112, Note_on_c, 12, 47, 49
11, 8154, Note_off_c, 12, 47, 0
11, 8160, Note_on_c, 12, 41, 49
11, 8202, Note_off_c, 12, 41, 0
11, 8208, Note_on_c, 12, 41, 49
11, 8250, Note_off_c, 12, 41, 0
11, 8256, Note_on_c, 12, 40, 49
11, 8298, Note_off_c, 12, 40, 0
11, 8304, Note_on_c, 12, 40, 49
11, 8346, Note_off_c, 12, 40, 0
11, 8352, Note_on_c, 12, 38, 49
11, 8394, Note_off_c, 12, 38, 0
11, 8400, Note_on_c, 12, 38, 49
11, 8442, Note_off_c, 12, 38, 0
11, 8448, Note_on_c, 12, 43, 49
11, 8490, Note_off_c, 12, 43, 0
11, 8496, Note_on_c, 12, 43, 49
11, 8538, Note_off_c, 12, 43, 0
11, 8544, Note_on_c, 12, 45, 49
11, 8586, Note_off_c, 12, 45, 0
11, 8592, Note_on_c, 12, 45, 49
11, 8634, Note_off_c, 12, 45, 0
11, 8640, Note_on_c, 12, 33, 49
11, 8682, Note_off_c, 12, 33, 0
11, 8688, Note_on_c, 12, 33, 49
11, 8730, Note_off_c, 12, 33, 0
11, 8736, Note_on_c, 12, 38, 49
11, 8874, Note_off_c, 12, 38, 0
11, 8880, Note_on_c, 12, 39, 49
11, 8901, Note_off_c, 12, 39, 0
11, 8904, Note_on_c, 12, 38, 49
11, 8925, Note_off_c, 12, 38, 0
11, 8928, Note_on_c, 12, 36, 49
11, 8949, Note_off_c, 12, 36, 0
11, 8952, Note_on_c, 12, 34, 49
11, 8973, Note_off_c, 12, 34, 0
11, 8976, Note_on_c, 12, 33, 49
11, 8997, Note_off_c, 12, 33, 0
11, 9000, Note_on_c, 12, 36, 49
11, 9010, Note_off_c, 12, 36, 0
11, 9012, Note_on_c, 12, 34, 49
11, 9022, Note_off_c, 12, 34, 0
11, 9024, Note_on_c, 12, 36, 49
11, 9162, Note_off_c, 12, 36, 0
11, 9168, Note_on_c, 12, 38, 49
11, 9189, Note_off_c, 12, 38, 0
11, 9192, Note_on_c, 12, 39, 49
11, 9213, Note_off_c, 12, 39, 0
11, 9216, Note_on_c, 12, 38, 49
11, 9237, Note_off_c, 12, 38, 0
11, 9240, Note_on_c, 12, 36, 49
11, 9261, Note_off_c, 12, 36, 0
11, 9264, Note_on_c, 12, 34, 49
11, 9285, Note_off_c, 12, 34, 0
11, 9288, Note_on_c, 12, 36, 49
11, 9298, Note_off_c, 12, 36, 0
11, 9300, Note_on_c, 12, 33, 49
11, 9310, Note_off_c, 12, 33, 0
11, 9312, Note_on_c, 12, 34, 49
11, 9429, Note_off_c, 12, 34, 0
11, 9432, Note_on_c, 12, 36, 49
11, 9453, Note_off_c, 12, 36, 0
11, 9456, Note_on_c, 12, 34, 49
11, 9477, Note_off_c, 12, 34, 0
11, 9480, Note_on_c, 12, 33, 49
11, 9501, Note_off_c, 12, 33, 0
11, 9504, Note_on_c, 12, 31, 49
11, 9525, Note_off_c, 12, 31, 0
11, 9528, Note_on_c, 12, 33, 49
11, 9549, Note_off_c, 12, 33, 0
11, 9552, Note_on_c, 12, 30, 49
11, 9573, Note_off_c, 12, 30, 0
11, 9576, Note_on_c, 12, 31, 49
11, 9597, Note_off_c, 12, 31, 0
11, 9600, Note_on_c, 12, 25, 49
11, 9780, Note_off_c, 12, 25, 0
11, 9888, Note_on_c, 12, 26, 49
11, 9930, Note_off_c, 12, 26, 0
11, 9936, Note_on_c, 12, 31, 49
11, 9978, Note_off_c, 12, 31, 0
11, 9984, Note_on_c, 12, 33, 49
11, 10026, Note_off_c, 12, 33, 0
11, 10032, Note_on_c, 12, 33, 49
11, 10074, Note_off_c, 12, 33, 0
11, 10080, Note_on_c, 12, 33, 49
11, 10122, Note_off_c, 12, 33, 0
11, 10128, Note_on_c, 12, 33, 49
11, 10170, Note_off_c, 12, 33, 0
11, 10176, Note_on_c, 12, 38, 36
11, 10260, Note_off_c, 12, 38, 0
11, 10464, Note_on_c, 12, 36, 36
11, 10548, Note_off_c, 12, 36, 0
11, 10752, Note_on_c, 12, 34, 75
11, 10836, Note_off_c, 12, 34, 0
11, 11040, Note_on_c, 12, 33, 75
11, 11316, Note_off_c, 12, 33, 0
11, 11316, End_track
12, 0, Start_track
12, 0, Title_t, "Continuo"
12, 0, Control_c, 13, 0, 0
12, 0, Program_c, 13, 6
12, 0, Time_signature, 3, 2, 96, 8
12, 0, Tempo, 1714285
12, 96, Note_on_c, 13, 64, 49
12, 96, Note_on_c, 13, 73, 49
12, 96, Note_on_c, 13, 45, 49
12, 180, Note_off_c, 13, 64, 0
12, 180, Note_off_c, 13, 73, 0
12, 180, Note_off_c, 13, 45, 0
12, 384, Note_on_c, 13, 64, 49
12, 384, Note_on_c, 13, 73, 49
12, 384, Note_on_c, 13, 45, 49
12, 468, Note_off_c, 13, 64, 0
12, 468, Note_off_c, 13, 73, 0
12, 468, Note_off_c, 13, 45, 0
12, 672, Note_on_c, 13, 62, 49
12, 672, Note_on_c, 13, 71, 49
12, 672, Note_on_c, 13, 45, 49
12, 756, Note_off_c, 13, 62, 0
12, 756, Note_off_c, 13, 71, 0
12, 756, Note_off_c, 13, 45, 0
12, 960, Note_on_c, 13, 64, 49
12, 960, Note_on_c, 13, 73, 49
12, 960, Note_on_c, 13, 43, 49
12, 1044, Note_off_c, 13, 64, 0
12, 1044, Note_off_c, 13, 73, 0
12, 1044, Note_off_c, 13, 43, 0
12, 1056, Note_on_c, 13, 69, 49
12, 1056, Note_on_c, 13, 41, 49
12, 1140, Note_off_c, 13, 69, 0
12, 1140, Note_off_c, 13, 41, 0
12, 1152, Note_on_c, 13, 67, 49
12, 1152, Note_on_c, 13, 73, 49
12, 1152, Note_on_c, 13, 40, 49
12, 1236, Note_off_c, 13, 67, 0
12, 1236, Note_off_c, 13, 73, 0
12, 1236, Note_off_c, 13, 40, 0
12, 1248, Note_on_c, 13, 65, 49
12, 1248, Note_on_c, 13, 69, 49
12, 1248, Note_on_c, 13, 38, 49
12, 1332, Note_off_c, 13, 65, 0
12, 1332, Note_off_c, 13, 69, 0
12, 1332, Note_off_c, 13, 38, 0
12, 1536, Note_on_c, 13, 66, 49
12, 1536, Note_on_c, 13, 69, 49
12, 1536, Note_on_c, 13, 50, 49
12, 1620, Note_off_c, 13, 66, 0
12, 1620, Note_off_c, 13, 69, 0
12, 1620, Note_off_c, 13, 50, 0
12, 1824, Note_on_c, 13, 67, 49
12, 1824, Note_on_c, 13, 76, 49
12, 1824, Note_on_c, 13, 50, 49
12, 1908, Note_off_c, 13, 67, 0
12, 1908, Note_off_c, 13, 76, 0
12, 1908, Note_off_c, 13, 50, 0
12, 2112, Note_on_c, 13, 66, 49
12, 2112, Note_on_c, 13, 69, 49
12, 2112, Note_on_c, 13, 48, 49
12, 2196, Note_off_c, 13, 66, 0
12, 2196, Note_off_c, 13, 69, 0
12, 2196, Note_off_c, 13, 48, 0
12, 2208, Note_on_c, 13, 62, 49
12, 2208, Note_on_c, 13, 67, 49
12, 2208, Note_on_c, 13, 46, 49
12, 2292, Note_off_c, 13, 62, 0
12, 2292, Note_off_c, 13, 67, 0
12, 2292, Note_off_c, 13, 46, 0
12, 2304, Note_on_c, 13, 60, 49
12, 2304, Note_on_c, 13, 66, 49
12, 2304, Note_on_c, 13, 45, 49
12, 2388, Note_off_c, 13, 60, 0
12, 2388, Note_off_c, 13, 66, 0
12, 2388, Note_off_c, 13, 45, 0
12, 2400, Note_on_c, 13, 62, 49
12, 2400, Note_on_c, 13, 70, 49
12, 2400, Note_on_c, 13, 43, 49
12, 2400, Note_on_c, 13, 55, 49
12, 2484, Note_off_c, 13, 62, 0
12, 2484, Note_off_c, 13, 70, 0
12, 2484, Note_off_c, 13, 43, 0
12, 2484, Note_off_c, 13, 55, 0
12, 2688, Note_on_c, 13, 62, 49
12, 2688, Note_on_c, 13, 71, 49
12, 2688, Note_on_c, 13, 41, 49
12, 2688, Note_on_c, 13, 53, 49
12, 2772, Note_off_c, 13, 62, 0
12, 2772, Note_off_c, 13, 71, 0
12, 2772, Note_off_c, 13, 41, 0
12, 2772, Note_off_c, 13, 53, 0
12, 2976, Note_on_c, 13, 60, 49
12, 2976, Note_on_c, 13, 67, 49
12, 2976, Note_on_c, 13, 39, 49
12, 2976, Note_on_c, 13, 51, 49
12, 3060, Note_off_c, 13, 60, 0
12, 3060, Note_off_c, 13, 67, 0
12, 3060, Note_off_c, 13, 39, 0
12, 3060, Note_off_c, 13, 51, 0
12, 3264, Note_on_c, 13, 62, 49
12, 3264, Note_on_c, 13, 71, 49
12, 3264, Note_on_c, 13, 44, 49
12, 3348, Note_off_c, 13, 62, 0
12, 3348, Note_off_c, 13, 71, 0
12, 3348, Note_off_c, 13, 44, 0
12, 3360, Note_on_c, 13, 62, 49
12, 3360, Note_on_c, 13, 71, 49
12, 3360, Note_on_c, 13, 44, 49
12, 3444, Note_off_c, 13, 62, 0
12, 3444, Note_off_c, 13, 71, 0
12, 3444, Note_off_c, 13, 44, 0
12, 3456, Note_on_c, 13, 62, 49
12, 3456, Note_on_c, 13, 71, 49
12, 3456, Note_on_c, 13, 44, 49
12, 3540, Note_off_c, 13, 62, 0
12, 3540, Note_off_c, 13, 71, 0
12, 3540, Note_off_c, 13, 44, 0
12, 3552, Note_on_c, 13, 68, 49
12, 3552, Note_on_c, 13, 71, 49
12, 3552, Note_on_c, 13, 40, 49
12, 3636, Note_off_c, 13, 68, 0
12, 3636, Note_off_c, 13, 71, 0
12, 3636, Note_off_c, 13, 40, 0
12, 3648, Note_on_c, 13, 68, 49
12, 3648, Note_on_c, 13, 71, 49
12, 3648, Note_on_c, 13, 40, 49
12, 3732, Note_off_c, 13, 68, 0
12, 3732, Note_off_c, 13, 71, 0
12, 3732, Note_off_c, 13, 40, 0
12, 3744, Note_on_c, 13, 68, 49
12, 3744, Note_on_c, 13, 71, 49
12, 3744, Note_on_c, 13, 40, 49
12, 3828, Note_off_c, 13, 68, 0
12, 3828, Note_off_c, 13, 71, 0
12, 3828, Note_off_c, 13, 40, 0
12, 3840, Note_on_c, 13, 60, 49
12, 3840, Note_on_c, 13, 69, 49
12, 3840, Note_on_c, 13, 40, 49
12, 3924, Note_off_c, 13, 60, 0
12, 3924, Note_off_c, 13, 69, 0
12, 3924, Note_off_c, 13, 40, 0
12, 3936, Note_on_c, 13, 66, 49
12, 3936, Note_on_c, 13, 69, 49
12, 3936, Note_on_c, 13, 39, 49
12, 4020, Note_off_c, 13, 66, 0
12, 4020, Note_off_c, 13, 69, 0
12, 4020, Note_off_c, 13, 39, 0
12, 4032, Note_on_c, 13, 57, 49
12, 4032, Note_on_c, 13, 69, 49
12, 4032, Note_on_c, 13, 39, 49
12, 4116, Note_off_c, 13, 57, 0
12, 4116, Note_off_c, 13, 69, 0
12, 4116, Note_off_c, 13, 39, 0
12, 4128, Note_on_c, 13, 58, 49
12, 4128, Note_on_c, 13, 68, 49
12, 4128, Note_on_c, 13, 50, 49
12, 4212, Note_off_c, 13, 58, 0
12, 4212, Note_off_c, 13, 68, 0
12, 4212, Note_off_c, 13, 50, 0
12, 4224, Note_on_c, 13, 64, 49
12, 4224, Note_on_c, 13, 69, 49
12, 4224, Note_on_c, 13, 48, 49
12, 4308, Note_off_c, 13, 64, 0
12, 4308, Note_off_c, 13, 69, 0
12, 4308, Note_off_c, 13, 48, 0
12, 4320, Note_on_c, 13, 62, 49
12, 4320, Note_on_c, 13, 68, 49
12, 4320, Note_on_c, 13, 47, 49
12, 4404, Note_off_c, 13, 62, 0
12, 4404, Note_off_c, 13, 68, 0
12, 4404, Note_off_c, 13, 47, 0
12, 4416, Note_on_c, 13, 64, 49
12, 4416, Note_on_c, 13, 72, 49
12, 4416, Note_on_c, 13, 45, 49
12, 4500, Note_off_c, 13, 64, 0
12, 4500, Note_off_c, 13, 72, 0
12, 4500, Note_off_c, 13, 45, 0
12, 4512, Note_on_c, 13, 65, 49
12, 4512, Note_on_c, 13, 74, 49
12, 4512, Note_on_c, 13, 47, 49
12, 4596, Note_off_c, 13, 65, 0
12, 4596, Note_off_c, 13, 74, 0
12, 4596, Note_off_c, 13, 47, 0
12, 4608, Note_on_c, 13, 69, 49
12, 4608, Note_on_c, 13, 76, 49
12, 4608, Note_on_c, 13, 49, 49
12, 4692, Note_off_c, 13, 69, 0
12, 4692, Note_off_c, 13, 76, 0
12, 4692, Note_off_c, 13, 49, 0
12, 4704, Note_on_c, 13, 65, 49
12, 4704, Note_on_c, 13, 69, 49
12, 4704, Note_on_c, 13, 50, 49
12, 4788, Note_off_c, 13, 65, 0
12, 4788, Note_off_c, 13, 69, 0
12, 4788, Note_off_c, 13, 50, 0
12, 4800, Note_on_c, 13, 64, 49
12, 4800, Note_on_c, 13, 69, 49
12, 4800, Note_on_c, 13, 52, 49
12, 4884, Note_off_c, 13, 52, 0
12, 4896, Note_on_c, 13, 54, 49
12, 4980, Note_off_c, 13, 64, 0
12, 4980, Note_off_c, 13, 69, 0
12, 4980, Note_off_c, 13, 54, 0
12, 4992, Note_on_c, 13, 66, 49
12, 4992, Note_on_c, 13, 69, 49
12, 4992, Note_on_c, 13, 48, 49
12, 5076, Note_off_c, 13, 66, 0
12, 5076, Note_off_c, 13, 69, 0
12, 5076, Note_off_c, 13, 48, 0
12, 5088, Note_on_c, 13, 62, 49
12, 5088, Note_on_c, 13, 67, 49
12, 5088, Note_on_c, 13, 47, 49
12, 5172, Note_off_c, 13, 62, 0
12, 5172, Note_off_c, 13, 67, 0
12, 5172, Note_off_c, 13, 47, 0
12, 5184, Note_on_c, 13, 64, 49
12, 5184, Note_on_c, 13, 72, 49
12, 5184, Note_on_c, 13, 45, 49
12, 5268, Note_off_c, 13, 64, 0
12, 5268, Note_off_c, 13, 72, 0
12, 5268, Note_off_c, 13, 45, 0
12, 5280, Note_on_c, 13, 65, 49
12, 5280, Note_on_c, 13, 69, 49
12, 5280, Note_on_c, 13, 38, 49
12, 5364, Note_off_c, 13, 65, 0
12, 5364, Note_off_c, 13, 69, 0
12, 5364, Note_off_c, 13, 38, 0
12, 5376, Note_on_c, 13, 58, 49
12, 5376, Note_on_c, 13, 68, 49
12, 5376, Note_on_c, 13, 40, 49
12, 5460, Note_off_c, 13, 58, 0
12, 5460, Note_off_c, 13, 68, 0
12, 5460, Note_off_c, 13, 40, 0
12, 5472, Note_on_c, 13, 40, 49
12, 5556, Note_off_c, 13, 40, 0
12, 5568, Note_on_c, 13, 64, 49
12, 5568, Note_on_c, 13, 72, 49
12, 5568, Note_on_c, 13, 45, 49
12, 5568, Note_on_c, 13, 57, 49
12, 5652, Note_off_c, 13, 64, 0
12, 5652, Note_off_c, 13, 72, 0
12, 5652, Note_off_c, 13, 45, 0
12, 5652, Note_off_c, 13, 57, 0
12, 5856, Note_on_c, 13, 62, 49
12, 5856, Note_on_c, 13, 70, 49
12, 5856, Note_on_c, 13, 43, 49
12, 5856, Note_on_c, 13, 55, 49
12, 5940, Note_off_c, 13, 62, 0
12, 5940, Note_off_c, 13, 70, 0
12, 5940, Note_off_c, 13, 43, 0
12, 5940, Note_off_c, 13, 55, 0
12, 6144, Note_on_c, 13, 62, 49
12, 6144, Note_on_c, 13, 69, 49
12, 6144, Note_on_c, 13, 41, 49
12, 6144, Note_on_c, 13, 53, 49
12, 6228, Note_off_c, 13, 62, 0
12, 6228, Note_off_c, 13, 69, 0
12, 6228, Note_off_c, 13, 41, 0
12, 6228, Note_off_c, 13, 53, 0
12, 6432, Note_on_c, 13, 62, 49
12, 6432, Note_on_c, 13, 70, 49
12, 6432, Note_on_c, 13, 43, 49
12, 6516, Note_off_c, 13, 62, 0
12, 6516, Note_off_c, 13, 70, 0
12, 6516, Note_off_c, 13, 43, 0
12, 6528, Note_on_c, 13, 62, 49
12, 6528, Note_on_c, 13, 70, 49
12, 6528, Note_on_c, 13, 43, 49
12, 6612, Note_off_c, 13, 62, 0
12, 6612, Note_off_c, 13, 70, 0
12, 6612, Note_off_c, 13, 43, 0
12, 6624, Note_on_c, 13, 43, 49
12, 6708, Note_off_c, 13, 43, 0
12, 6720, Note_on_c, 13, 58, 49
12, 6720, Note_on_c, 13, 67, 49
12, 6720, Note_on_c, 13, 40, 49
12, 6804, Note_off_c, 13, 58, 0
12, 6804, Note_off_c, 13, 67, 0
12, 6804, Note_off_c, 13, 40, 0
12, 6816, Note_on_c, 13, 64, 49
12, 6816, Note_on_c, 13, 69, 49
12, 6816, Note_on_c, 13, 49, 49
12, 6900, Note_off_c, 13, 64, 0
12, 6900, Note_off_c, 13, 69, 0
12, 6900, Note_off_c, 13, 49, 0
12, 6912, Note_on_c, 13, 69, 49
12, 6912, Note_on_c, 13, 45, 49
12, 6996, Note_off_c, 13, 69, 0
12, 6996, Note_off_c, 13, 45, 0
12, 7008, Note_on_c, 13, 65, 49
12, 7008, Note_on_c, 13, 69, 49
12, 7008, Note_on_c, 13, 50, 49
12, 7092, Note_off_c, 13, 65, 0
12, 7092, Note_off_c, 13, 69, 0
12, 7092, Note_off_c, 13, 50, 0
12, 7104, Note_on_c, 13, 62, 49
12, 7104, Note_on_c, 13, 71, 49
12, 7104, Note_on_c, 13, 44, 49
12, 7188, Note_off_c, 13, 62, 0
12, 7188, Note_off_c, 13, 71, 0
12, 7188, Note_off_c, 13, 44, 0
12, 7200, Note_on_c, 13, 44, 49
12, 7284, Note_off_c, 13, 44, 0
12, 7296, Note_on_c, 13, 64, 49
12, 7296, Note_on_c, 13, 73, 49
12, 7296, Note_on_c, 13, 55, 49
12, 7380, Note_off_c, 13, 64, 0
12, 7380, Note_off_c, 13, 73, 0
12, 7380, Note_off_c, 13, 55, 0
12, 7392, Note_on_c, 13, 65, 49
12, 7392, Note_on_c, 13, 69, 49
12, 7392, Note_on_c, 13, 53, 49
12, 7476, Note_off_c, 13, 65, 0
12, 7476, Note_off_c, 13, 69, 0
12, 7476, Note_off_c, 13, 53, 0
12, 7488, Note_on_c, 13, 61, 49
12, 7488, Note_on_c, 13, 67, 49
12, 7488, Note_on_c, 13, 52, 49
12, 7572, Note_off_c, 13, 61, 0
12, 7572, Note_off_c, 13, 67, 0
12, 7572, Note_off_c, 13, 52, 0
12, 7584, Note_on_c, 13, 57, 49
12, 7584, Note_on_c, 13, 65, 49
12, 7584, Note_on_c, 13, 50, 49
12, 7668, Note_off_c, 13, 57, 0
12, 7668, Note_off_c, 13, 65, 0
12, 7668, Note_off_c, 13, 50, 0
12, 7680, Note_on_c, 13, 58, 49
12, 7680, Note_on_c, 13, 67, 49
12, 7680, Note_on_c, 13, 52, 49
12, 7764, Note_off_c, 13, 58, 0
12, 7764, Note_off_c, 13, 67, 0
12, 7764, Note_off_c, 13, 52, 0
12, 7776, Note_on_c, 13, 62, 49
12, 7776, Note_on_c, 13, 69, 49
12, 7776, Note_on_c, 13, 54, 49
12, 7860, Note_off_c, 13, 62, 0
12, 7860, Note_off_c, 13, 69, 0
12, 7860, Note_off_c, 13, 54, 0
12, 7872, Note_on_c, 13, 62, 49
12, 7872, Note_on_c, 13, 70, 49
12, 7872, Note_on_c, 13, 55, 49
12, 7956, Note_off_c, 13, 62, 0
12, 7956, Note_off_c, 13, 70, 0
12, 7956, Note_off_c, 13, 55, 0
12, 7968, Note_on_c, 13, 65, 49
12, 7968, Note_on_c, 13, 74, 49
12, 7968, Note_on_c, 13, 57, 49
12, 8052, Note_off_c, 13, 57, 0
12, 8064, Note_on_c, 13, 59, 49
12, 8148, Note_off_c, 13, 65, 0
12, 8148, Note_off_c, 13, 74, 0
12, 8148, Note_off_c, 13, 59, 0
12, 8160, Note_on_c, 13, 62, 49
12, 8160, Note_on_c, 13, 71, 49
12, 8160, Note_on_c, 13, 53, 49
12, 8244, Note_off_c, 13, 62, 0
12, 8244, Note_off_c, 13, 71, 0
12, 8244, Note_off_c, 13, 53, 0
12, 8256, Note_on_c, 13, 60, 49
12, 8256, Note_on_c, 13, 67, 49
12, 8256, Note_on_c, 13, 52, 49
12, 8340, Note_off_c, 13, 60, 0
12, 8340, Note_off_c, 13, 67, 0
12, 8340, Note_off_c, 13, 52, 0
12, 8352, Note_on_c, 13, 65, 49
12, 8352, Note_on_c, 13, 69, 49
12, 8352, Note_on_c, 13, 50, 49
12, 8436, Note_off_c, 13, 65, 0
12, 8436, Note_off_c, 13, 69, 0
12, 8436, Note_off_c, 13, 50, 0
12, 8448, Note_on_c, 13, 62, 49
12, 8448, Note_on_c, 13, 70, 49
12, 8448, Note_on_c, 13, 55, 49
12, 8532, Note_off_c, 13, 62, 0
12, 8532, Note_off_c, 13, 70, 0
12, 8532, Note_off_c, 13, 55, 0
12, 8544, Note_on_c, 13, 64, 49
12, 8544, Note_on_c, 13, 72, 49
12, 8544, Note_on_c, 13, 57, 49
12, 8628, Note_off_c, 13, 64, 0
12, 8628, Note_off_c, 13, 72, 0
12, 8628, Note_off_c, 13, 57, 0
12, 8640, Note_on_c, 13, 64, 49
12, 8640, Note_on_c, 13, 72, 49
12, 8640, Note_on_c, 13, 45, 49
12, 8724, Note_off_c, 13, 64, 0
12, 8724, Note_off_c, 13, 72, 0
12, 8724, Note_off_c, 13, 45, 0
12, 8736, Note_on_c, 13, 65, 49
12, 8736, Note_on_c, 13, 69, 49
12, 8736, Note_on_c, 13, 38, 49
12, 8736, Note_on_c, 13, 50, 49
12, 8820, Note_off_c, 13, 65, 0
12, 8820, Note_off_c, 13, 69, 0
12, 8820, Note_off_c, 13, 38, 0
12, 8820, Note_off_c, 13, 50, 0
12, 9024, Note_on_c, 13, 66, 49
12, 9024, Note_on_c, 13, 69, 49
12, 9024, Note_on_c, 13, 36, 49
12, 9024, Note_on_c, 13, 48, 49
12, 9108, Note_off_c, 13, 66, 0
12, 9108, Note_off_c, 13, 69, 0
12, 9108, Note_off_c, 13, 36, 0
12, 9108, Note_off_c, 13, 48, 0
12, 9312, Note_on_c, 13, 62, 49
12, 9312, Note_on_c, 13, 70, 49
12, 9312, Note_on_c, 13, 34, 49
12, 9312, Note_on_c, 13, 46, 49
12, 9396, Note_off_c, 13, 62, 0
12, 9396, Note_off_c, 13, 70, 0
12, 9396, Note_off_c, 13, 34, 0
12, 9396, Note_off_c, 13, 46, 0
12, 9600, Note_on_c, 13, 64, 49
12, 9600, Note_on_c, 13, 67, 49
12, 9600, Note_on_c, 13, 70, 49
12, 9600, Note_on_c, 13, 37, 49
12, 9780, Note_off_c, 13, 64, 0
12, 9780, Note_off_c, 13, 67, 0
12, 9780, Note_off_c, 13, 70, 0
12, 9780, Note_off_c, 13, 37, 0
12, 9888, Note_on_c, 13, 65, 49
12, 9888, Note_on_c, 13, 74, 49
12, 9888, Note_on_c, 13, 38, 49
12, 9972, Note_off_c, 13, 65, 0
12, 9972, Note_off_c, 13, 74, 0
12, 9972, Note_off_c, 13, 38, 0
12, 9984, Note_on_c, 13, 65, 49
12, 9984, Note_on_c, 13, 74, 49
12, 9984, Note_on_c, 13, 45, 49
12, 10068, Note_off_c, 13, 65, 0
12, 10068, Note_off_c, 13, 74, 0
12, 10068, Note_off_c, 13, 45, 0
12, 10080, Note_on_c, 13, 64, 49
12, 10080, Note_on_c, 13, 73, 49
12, 10080, Note_on_c, 13, 45, 49
12, 10164, Note_off_c, 13, 64, 0
12, 10164, Note_off_c, 13, 73, 0
12, 10164, Note_off_c, 13, 45, 0
12, 10176, Note_on_c, 13, 62, 36
12, 10176, Note_on_c, 13, 50, 36
12, 10260, Note_off_c, 13, 62, 0
12, 10260, Note_off_c, 13, 50, 0
12, 10464, Note_on_c, 13, 60, 36
12, 10464, Note_on_c, 13, 48, 36
12, 10548, Note_off_c, 13, 60, 0
12, 10548, Note_off_c, 13, 48, 0
12, 10752, Note_on_c, 13, 58, 75
12, 10752, Note_on_c, 13, 46, 75
12, 10836, Note_off_c, 13, 58, 0
12, 10836, Note_off_c, 13, 46, 0
12, 11040, Note_on_c, 13, 64, 75
12, 11040, Note_on_c, 13, 73, 75
12, 11040, Note_on_c, 13, 45, 75
12, 11316, Note_off_c, 13, 45, 0
12, 11316, Note_off_c, 13, 64, 0
12, 11316, Note_off_c, 13, 73, 0
12, 11316, End_track
0, 0, End_of_file
