0, 0, Header, 1, 14, 96
1, 0, Start_track
1, 0, Time_signature, 4, 2, 96, 8
1, 0, Tempo, 681818
1, 0, End_track
2, 0, Start_track
2, 0, Title_t, "Corno I"
2, 0, Control_c, 0, 0, 0
2, 0, Program_c, 0, 60
2, 0, Time_signature, 4, 2, 96, 8
2, 0, Tempo, 681818
2, 528, Note_on_c, 0, 60, 127
2, 570, Note_off_c, 0, 60, 0
2, 576, Note_on_c, 0, 65, 127
2, 618, Note_off_c, 0, 65, 0
2, 624, Note_on_c, 0, 69, 127
2, 666, Note_off_c, 0, 69, 0
2, 672, Note_on_c, 0, 72, 127
2, 714, Note_off_c, 0, 72, 0
2, 720, Note_on_c, 0, 67, 127
2, 762, Note_off_c, 0, 67, 0
2, 768, Note_on_c, 0, 67, 127
2, 789, Note_off_c, 0, 67, 0
2, 792, Note_on_c, 0, 60, 127
2, 813, Note_off_c, 0, 60, 0
2, 816, Note_on_c, 0, 67, 127
2, 858, Note_off_c, 0, 67, 0
2, 864, Note_on_c, 0, 67, 127
2, 892, Note_off_c, 0, 67, 0
2, 895, Note_on_c, 0, 67, 127
2, 924, Note_off_c, 0, 67, 0
2, 927, Note_on_c, 0, 67, 127
2, 955, Note_off_c, 0, 67, 0
2, 960, Note_on_c, 0, 67, 127
2, 1023, Note_off_c, 0, 67, 0
2, 1032, Note_on_c, 0, 72, 127
2, 1053, Note_off_c, 0, 72, 0
2, 3024, Note_on_c, 0, 60, 127
2, 3066, Note_off_c, 0, 60, 0
2, 3072, Note_on_c, 0, 60, 127
2, 3100, Note_off_c, 0, 60, 0
2, 3103, Note_on_c, 0, 60, 127
2, 3132, Note_off_c, 0, 60, 0
2, 3135, Note_on_c, 0, 60, 127
2, 3163, Note_off_c, 0, 60, 0
2, 3168, Note_on_c, 0, 60, 127
2, 3196, Note_off_c, 0, 60, 0
2, 3199, Note_on_c, 0, 53, 127
2, 3228, Note_off_c, 0, 53, 0
2, 3231, Note_on_c, 0, 60, 127
2, 3259, Note_off_c, 0, 60, 0
2, 3264, Note_on_c, 0, 60, 127
2, 3292, Note_off_c, 0, 60, 0
2, 3295, Note_on_c, 0, 60, 127
2, 3324, Note_off_c, 0, 60, 0
2, 3327, Note_on_c, 0, 60, 127
2, 3355, Note_off_c, 0, 60, 0
2, 3360, Note_on_c, 0, 60, 127
2, 3423, Note_off_c, 0, 60, 0
2, 3432, Note_on_c, 0, 65, 127
2, 3453, Note_off_c, 0, 65, 0
2, 4368, Note_on_c, 0, 60, 127
2, 4410, Note_off_c, 0, 60, 0
2, 4416, Note_on_c, 0, 65, 127
2, 4444, Note_off_c, 0, 65, 0
2, 4447, Note_on_c, 0, 65, 127
2, 4476, Note_off_c, 0, 65, 0
2, 4479, Note_on_c, 0, 65, 127
2, 4507, Note_off_c, 0, 65, 0
2, 4512, Note_on_c, 0, 65, 127
2, 4540, Note_off_c, 0, 65, 0
2, 4543, Note_on_c, 0, 60, 127
2, 4572, Note_off_c, 0, 60, 0
2, 4575, Note_on_c, 0, 65, 127
2, 4603, Note_off_c, 0, 65, 0
2, 4608, Note_on_c, 0, 60, 127
2, 4636, Note_off_c, 0, 60, 0
2, 4639, Note_on_c, 0, 57, 127
2, 4668, Note_off_c, 0, 57, 0
2, 4671, Note_on_c, 0, 60, 127
2, 4699, Note_off_c, 0, 60, 0
2, 4704, Note_on_c, 0, 57, 127
2, 4746, Note_off_c, 0, 57, 0
2, 4752, Note_on_c, 0, 72, 127
2, 4773, Note_off_c, 0, 72, 0
2, 4776, Note_on_c, 0, 70, 127
2, 4797, Note_off_c, 0, 70, 0
2, 4800, Note_on_c, 0, 72, 127
2, 4821, Note_off_c, 0, 72, 0
2, 4824, Note_on_c, 0, 70, 127
2, 4845, Note_off_c, 0, 70, 0
2, 4848, Note_on_c, 0, 72, 127
2, 4869, Note_off_c, 0, 72, 0
2, 4872, Note_on_c, 0, 70, 127
2, 4893, Note_off_c, 0, 70, 0
2, 4896, Note_on_c, 0, 69, 127
2, 4917, Note_off_c, 0, 69, 0
2, 4920, Note_on_c, 0, 70, 127
2, 4941, Note_off_c, 0, 70, 0
2, 4944, Note_on_c, 0, 72, 127
2, 4965, Note_off_c, 0, 72, 0
2, 4968, Note_on_c, 0, 74, 127
2, 4989, Note_off_c, 0, 74, 0
2, 4992, Note_on_c, 0, 70, 127
2, 5013, Note_off_c, 0, 70, 0
2, 5016, Note_on_c, 0, 69, 127
2, 5037, Note_off_c, 0, 69, 0
2, 5040, Note_on_c, 0, 70, 127
2, 5061, Note_off_c, 0, 70, 0
2, 5064, Note_on_c, 0, 67, 127
2, 5085, Note_off_c, 0, 67, 0
2, 5088, Note_on_c, 0, 69, 127
2, 5130, Note_off_c, 0, 69, 0
2, 5136, Note_on_c, 0, 60, 127
2, 5178, Note_off_c, 0, 60, 0
2, 5184, Note_on_c, 0, 65, 127
2, 5226, Note_off_c, 0, 65, 0
2, 5232, Note_on_c, 0, 69, 127
2, 5242, Note_off_c, 0, 69, 0
2, 5244, Note_on_c, 0, 67, 127
2, 5254, Note_off_c, 0, 67, 0
2, 5256, Note_on_c, 0, 69, 127
2, 5266, Note_off_c, 0, 69, 0
2, 5268, Note_on_c, 0, 67, 127
2, 5278, Note_off_c, 0, 67, 0
2, 5280, Note_on_c, 0, 69, 127
2, 5301, Note_off_c, 0, 69, 0
2, 5304, Note_on_c, 0, 70, 127
2, 5325, Note_off_c, 0, 70, 0
2, 5328, Note_on_c, 0, 69, 127
2, 5349, Note_off_c, 0, 69, 0
2, 5352, Note_on_c, 0, 70, 127
2, 5373, Note_off_c, 0, 70, 0
2, 5376, Note_on_c, 0, 72, 127
2, 5397, Note_off_c, 0, 72, 0
2, 5400, Note_on_c, 0, 70, 127
2, 5421, Note_off_c, 0, 70, 0
2, 5424, Note_on_c, 0, 69, 127
2, 5445, Note_off_c, 0, 69, 0
2, 5448, Note_on_c, 0, 70, 127
2, 5469, Note_off_c, 0, 70, 0
2, 5472, Note_on_c, 0, 67, 127
2, 5556, Note_off_c, 0, 67, 0
2, 5904, Note_on_c, 0, 67, 127
2, 5925, Note_off_c, 0, 67, 0
2, 5928, Note_on_c, 0, 65, 127
2, 5949, Note_off_c, 0, 65, 0
2, 5952, Note_on_c, 0, 67, 127
2, 5973, Note_off_c, 0, 67, 0
2, 5976, Note_on_c, 0, 69, 127
2, 5997, Note_off_c, 0, 69, 0
2, 6000, Note_on_c, 0, 70, 127
2, 6021, Note_off_c, 0, 70, 0
2, 6024, Note_on_c, 0, 67, 127
2, 6045, Note_off_c, 0, 67, 0
2, 6048, Note_on_c, 0, 69, 127
2, 6069, Note_off_c, 0, 69, 0
2, 6072, Note_on_c, 0, 67, 127
2, 6093, Note_off_c, 0, 67, 0
2, 6096, Note_on_c, 0, 69, 127
2, 6117, Note_off_c, 0, 69, 0
2, 6120, Note_on_c, 0, 67, 127
2, 6141, Note_off_c, 0, 67, 0
2, 6144, Note_on_c, 0, 69, 127
2, 6165, Note_off_c, 0, 69, 0
2, 6168, Note_on_c, 0, 71, 127
2, 6189, Note_off_c, 0, 71, 0
2, 6192, Note_on_c, 0, 72, 127
2, 6213, Note_off_c, 0, 72, 0
2, 6216, Note_on_c, 0, 69, 127
2, 6237, Note_off_c, 0, 69, 0
2, 6240, Note_on_c, 0, 71, 127
2, 6261, Note_off_c, 0, 71, 0
2, 6264, Note_on_c, 0, 69, 127
2, 6285, Note_off_c, 0, 69, 0
2, 6288, Note_on_c, 0, 71, 127
2, 6309, Note_off_c, 0, 71, 0
2, 6312, Note_on_c, 0, 69, 127
2, 6333, Note_off_c, 0, 69, 0
2, 6336, Note_on_c, 0, 71, 127
2, 6357, Note_off_c, 0, 71, 0
2, 6360, Note_on_c, 0, 72, 127
2, 6381, Note_off_c, 0, 72, 0
2, 6384, Note_on_c, 0, 74, 127
2, 6405, Note_off_c, 0, 74, 0
2, 6408, Note_on_c, 0, 71, 127
2, 6429, Note_off_c, 0, 71, 0
2, 6432, Note_on_c, 0, 72, 127
2, 6495, Note_off_c, 0, 72, 0
2, 6504, Note_on_c, 0, 74, 127
2, 6525, Note_off_c, 0, 74, 0
2, 6528, Note_on_c, 0, 71, 127
2, 6538, Note_off_c, 0, 71, 0
2, 6540, Note_on_c, 0, 72, 127
2, 6550, Note_off_c, 0, 72, 0
2, 6552, Note_on_c, 0, 71, 127
2, 6562, Note_off_c, 0, 71, 0
2, 6564, Note_on_c, 0, 72, 127
2, 6574, Note_off_c, 0, 72, 0
2, 6576, Note_on_c, 0, 71, 127
2, 6597, Note_off_c, 0, 71, 0
2, 6600, Note_on_c, 0, 72, 127
2, 6621, Note_off_c, 0, 72, 0
2, 6624, Note_on_c, 0, 72, 127
2, 6708, Note_off_c, 0, 72, 0
2, 7440, Note_on_c, 0, 65, 127
2, 7482, Note_off_c, 0, 65, 0
2, 7488, Note_on_c, 0, 67, 127
2, 7530, Note_off_c, 0, 67, 0
2, 7536, Note_on_c, 0, 69, 127
2, 7578, Note_off_c, 0, 69, 0
2, 7584, Note_on_c, 0, 70, 127
2, 7626, Note_off_c, 0, 70, 0
2, 7632, Note_on_c, 0, 72, 127
2, 7653, Note_off_c, 0, 72, 0
2, 7656, Note_on_c, 0, 74, 127
2, 7677, Note_off_c, 0, 74, 0
2, 7680, Note_on_c, 0, 72, 127
2, 7701, Note_off_c, 0, 72, 0
2, 7704, Note_on_c, 0, 70, 127
2, 7725, Note_off_c, 0, 70, 0
2, 7728, Note_on_c, 0, 69, 127
2, 7749, Note_off_c, 0, 69, 0
2, 7752, Note_on_c, 0, 67, 127
2, 7773, Note_off_c, 0, 67, 0
2, 7776, Note_on_c, 0, 69, 127
2, 7860, Note_off_c, 0, 69, 0
2, 8976, Note_on_c, 0, 74, 127
2, 8997, Note_off_c, 0, 74, 0
2, 9000, Note_on_c, 0, 72, 127
2, 9021, Note_off_c, 0, 72, 0
2, 9024, Note_on_c, 0, 74, 127
2, 9045, Note_off_c, 0, 74, 0
2, 9048, Note_on_c, 0, 75, 127
2, 9069, Note_off_c, 0, 75, 0
2, 9072, Note_on_c, 0, 74, 127
2, 9093, Note_off_c, 0, 74, 0
2, 9096, Note_on_c, 0, 72, 127
2, 9117, Note_off_c, 0, 72, 0
2, 9120, Note_on_c, 0, 70, 127
2, 9162, Note_off_c, 0, 70, 0
2, 9168, Note_on_c, 0, 72, 127
2, 9189, Note_off_c, 0, 72, 0
2, 9192, Note_on_c, 0, 70, 127
2, 9213, Note_off_c, 0, 70, 0
2, 9216, Note_on_c, 0, 72, 127
2, 9237, Note_off_c, 0, 72, 0
2, 9240, Note_on_c, 0, 74, 127
2, 9261, Note_off_c, 0, 74, 0
2, 9264, Note_on_c, 0, 72, 127
2, 9285, Note_off_c, 0, 72, 0
2, 9288, Note_on_c, 0, 70, 127
2, 9309, Note_off_c, 0, 70, 0
2, 9312, Note_on_c, 0, 69, 127
2, 9396, Note_off_c, 0, 69, 0
2, 10128, Note_on_c, 0, 57, 127
2, 10149, Note_off_c, 0, 57, 0
2, 10152, Note_on_c, 0, 57, 127
2, 10173, Note_off_c, 0, 57, 0
2, 10176, Note_on_c, 0, 57, 127
2, 10197, Note_off_c, 0, 57, 0
2, 10200, Note_on_c, 0, 57, 127
2, 10221, Note_off_c, 0, 57, 0
2, 10224, Note_on_c, 0, 57, 127
2, 10245, Note_off_c, 0, 57, 0
2, 10248, Note_on_c, 0, 57, 127
2, 10269, Note_off_c, 0, 57, 0
2, 10272, Note_on_c, 0, 53, 127
2, 10356, Note_off_c, 0, 53, 0
2, 10896, Note_on_c, 0, 57, 127
2, 10917, Note_off_c, 0, 57, 0
2, 10920, Note_on_c, 0, 57, 127
2, 10941, Note_off_c, 0, 57, 0
2, 10944, Note_on_c, 0, 57, 127
2, 10965, Note_off_c, 0, 57, 0
2, 10968, Note_on_c, 0, 57, 127
2, 10989, Note_off_c, 0, 57, 0
2, 10992, Note_on_c, 0, 57, 127
2, 11013, Note_off_c, 0, 57, 0
2, 11016, Note_on_c, 0, 57, 127
2, 11037, Note_off_c, 0, 57, 0
2, 11040, Note_on_c, 0, 57, 127
2, 11124, Note_off_c, 0, 57, 0
2, 11280, Note_on_c, 0, 69, 127
2, 11301, Note_off_c, 0, 69, 0
2, 11304, Note_on_c, 0, 69, 127
2, 11325, Note_off_c, 0, 69, 0
2, 11328, Note_on_c, 0, 69, 127
2, 11349, Note_off_c, 0, 69, 0
2, 11352, Note_on_c, 0, 69, 127
2, 11373, Note_off_c, 0, 69, 0
2, 11376, Note_on_c, 0, 69, 127
2, 11397, Note_off_c, 0, 69, 0
2, 11400, Note_on_c, 0, 69, 127
2, 11421, Note_off_c, 0, 69, 0
2, 11424, Note_on_c, 0, 69, 127
2, 11487, Note_off_c, 0, 69, 0
2, 11496, Note_on_c, 0, 74, 127
2, 11517, Note_off_c, 0, 74, 0
2, 11856, Note_on_c, 0, 57, 127
2, 11877, Note_off_c, 0, 57, 0
2, 11880, Note_on_c, 0, 57, 127
2, 11901, Note_off_c, 0, 57, 0
2, 11904, Note_on_c, 0, 57, 127
2, 11925, Note_off_c, 0, 57, 0
2, 11928, Note_on_c, 0, 57, 127
2, 11949, Note_off_c, 0, 57, 0
2, 11952, Note_on_c, 0, 57, 127
2, 11973, Note_off_c, 0, 57, 0
2, 11976, Note_on_c, 0, 57, 127
2, 11997, Note_off_c, 0, 57, 0
2, 12000, Note_on_c, 0, 57, 127
2, 12084, Note_off_c, 0, 57, 0
2, 12240, Note_on_c, 0, 69, 127
2, 12261, Note_off_c, 0, 69, 0
2, 12264, Note_on_c, 0, 67, 127
2, 12285, Note_off_c, 0, 67, 0
2, 12288, Note_on_c, 0, 69, 127
2, 12309, Note_off_c, 0, 69, 0
2, 12312, Note_on_c, 0, 67, 127
2, 12333, Note_off_c, 0, 67, 0
2, 12336, Note_on_c, 0, 69, 127
2, 12357, Note_off_c, 0, 69, 0
2, 12360, Note_on_c, 0, 67, 127
2, 12381, Note_off_c, 0, 67, 0
2, 12384, Note_on_c, 0, 65, 127
2, 12426, Note_off_c, 0, 65, 0
2, 12432, Note_on_c, 0, 69, 127
2, 12453, Note_off_c, 0, 69, 0
2, 12456, Note_on_c, 0, 67, 127
2, 12477, Note_off_c, 0, 67, 0
2, 12480, Note_on_c, 0, 69, 127
2, 12501, Note_off_c, 0, 69, 0
2, 12504, Note_on_c, 0, 67, 127
2, 12525, Note_off_c, 0, 67, 0
2, 12528, Note_on_c, 0, 69, 127
2, 12549, Note_off_c, 0, 69, 0
2, 12552, Note_on_c, 0, 70, 127
2, 12573, Note_off_c, 0, 70, 0
2, 12576, Note_on_c, 0, 72, 127
2, 12597, Note_off_c, 0, 72, 0
2, 12600, Note_on_c, 0, 71, 127
2, 12621, Note_off_c, 0, 71, 0
2, 12624, Note_on_c, 0, 72, 127
2, 12645, Note_off_c, 0, 72, 0
2, 12648, Note_on_c, 0, 74, 127
2, 12669, Note_off_c, 0, 74, 0
2, 12672, Note_on_c, 0, 72, 127
2, 12693, Note_off_c, 0, 72, 0
2, 12696, Note_on_c, 0, 74, 127
2, 12717, Note_off_c, 0, 74, 0
2, 12720, Note_on_c, 0, 72, 127
2, 12741, Note_off_c, 0, 72, 0
2, 12744, Note_on_c, 0, 74, 127
2, 12765, Note_off_c, 0, 74, 0
2, 12768, Note_on_c, 0, 71, 127
2, 12810, Note_off_c, 0, 71, 0
2, 13536, Note_on_c, 0, 72, 127
2, 13716, Note_off_c, 0, 72, 0
2, 13728, Note_on_c, 0, 70, 127
2, 13908, Note_off_c, 0, 70, 0
2, 13920, Note_on_c, 0, 69, 127
2, 14100, Note_off_c, 0, 69, 0
2, 14112, Note_on_c, 0, 67, 127
2, 14133, Note_off_c, 0, 67, 0
2, 14136, Note_on_c, 0, 69, 127
2, 14157, Note_off_c, 0, 69, 0
2, 14160, Note_on_c, 0, 67, 127
2, 14181, Note_off_c, 0, 67, 0
2, 14184, Note_on_c, 0, 69, 127
2, 14205, Note_off_c, 0, 69, 0
2, 14208, Note_on_c, 0, 70, 127
2, 14229, Note_off_c, 0, 70, 0
2, 14232, Note_on_c, 0, 72, 127
2, 14253, Note_off_c, 0, 72, 0
2, 14256, Note_on_c, 0, 70, 127
2, 14277, Note_off_c, 0, 70, 0
2, 14280, Note_on_c, 0, 72, 127
2, 14301, Note_off_c, 0, 72, 0
2, 14304, Note_on_c, 0, 69, 127
2, 14517, Note_off_c, 0, 69, 0
2, 14520, Note_on_c, 0, 70, 127
2, 14541, Note_off_c, 0, 70, 0
2, 14544, Note_on_c, 0, 69, 127
2, 14565, Note_off_c, 0, 69, 0
2, 14568, Note_on_c, 0, 71, 127
2, 14589, Note_off_c, 0, 71, 0
2, 14592, Note_on_c, 0, 72, 127
2, 14613, Note_off_c, 0, 72, 0
2, 14616, Note_on_c, 0, 74, 127
2, 14637, Note_off_c, 0, 74, 0
2, 14640, Note_on_c, 0, 72, 127
2, 14661, Note_off_c, 0, 72, 0
2, 14664, Note_on_c, 0, 74, 127
2, 14685, Note_off_c, 0, 74, 0
2, 14688, Note_on_c, 0, 71, 127
2, 14901, Note_off_c, 0, 71, 0
2, 14904, Note_on_c, 0, 72, 127
2, 14925, Note_off_c, 0, 72, 0
2, 14928, Note_on_c, 0, 71, 127
2, 14949, Note_off_c, 0, 71, 0
2, 14952, Note_on_c, 0, 72, 127
2, 14973, Note_off_c, 0, 72, 0
2, 14976, Note_on_c, 0, 74, 127
2, 14997, Note_off_c, 0, 74, 0
2, 15000, Note_on_c, 0, 76, 127
2, 15021, Note_off_c, 0, 76, 0
2, 15024, Note_on_c, 0, 74, 127
2, 15045, Note_off_c, 0, 74, 0
2, 15048, Note_on_c, 0, 76, 127
2, 15069, Note_off_c, 0, 76, 0
2, 15072, Note_on_c, 0, 72, 127
2, 15285, Note_off_c, 0, 72, 0
2, 15288, Note_on_c, 0, 71, 127
2, 15309, Note_off_c, 0, 71, 0
2, 15312, Note_on_c, 0, 72, 127
2, 15333, Note_off_c, 0, 72, 0
2, 15336, Note_on_c, 0, 71, 127
2, 15357, Note_off_c, 0, 71, 0
2, 15360, Note_on_c, 0, 72, 127
2, 15477, Note_off_c, 0, 72, 0
2, 15480, Note_on_c, 0, 71, 127
2, 15501, Note_off_c, 0, 71, 0
2, 15504, Note_on_c, 0, 72, 127
2, 15525, Note_off_c, 0, 72, 0
2, 15528, Note_on_c, 0, 71, 127
2, 15549, Note_off_c, 0, 71, 0
2, 15552, Note_on_c, 0, 72, 127
2, 15669, Note_off_c, 0, 72, 0
2, 15672, Note_on_c, 0, 71, 127
2, 15693, Note_off_c, 0, 71, 0
2, 15696, Note_on_c, 0, 72, 127
2, 15717, Note_off_c, 0, 72, 0
2, 15720, Note_on_c, 0, 71, 127
2, 15741, Note_off_c, 0, 71, 0
2, 15744, Note_on_c, 0, 72, 127
2, 15765, Note_off_c, 0, 72, 0
2, 15768, Note_on_c, 0, 71, 127
2, 15789, Note_off_c, 0, 71, 0
2, 15792, Note_on_c, 0, 72, 127
2, 15813, Note_off_c, 0, 72, 0
2, 15816, Note_on_c, 0, 74, 127
2, 15837, Note_off_c, 0, 74, 0
2, 15840, Note_on_c, 0, 71, 127
2, 15861, Note_off_c, 0, 71, 0
2, 15864, Note_on_c, 0, 69, 127
2, 15885, Note_off_c, 0, 69, 0
2, 15888, Note_on_c, 0, 71, 127
2, 15909, Note_off_c, 0, 71, 0
2, 15912, Note_on_c, 0, 69, 127
2, 15933, Note_off_c, 0, 69, 0
2, 15936, Note_on_c, 0, 71, 127
2, 15957, Note_off_c, 0, 71, 0
2, 15960, Note_on_c, 0, 72, 127
2, 15981, Note_off_c, 0, 72, 0
2, 15984, Note_on_c, 0, 69, 127
2, 16005, Note_off_c, 0, 69, 0
2, 16008, Note_on_c, 0, 71, 127
2, 16029, Note_off_c, 0, 71, 0
2, 16032, Note_on_c, 0, 67, 127
2, 16074, Note_off_c, 0, 67, 0
2, 16080, Note_on_c, 0, 72, 127
2, 16101, Note_off_c, 0, 72, 0
2, 16104, Note_on_c, 0, 74, 127
2, 16125, Note_off_c, 0, 74, 0
2, 16128, Note_on_c, 0, 71, 127
2, 16138, Note_off_c, 0, 71, 0
2, 16140, Note_on_c, 0, 72, 127
2, 16150, Note_off_c, 0, 72, 0
2, 16152, Note_on_c, 0, 71, 127
2, 16162, Note_off_c, 0, 71, 0
2, 16164, Note_on_c, 0, 72, 127
2, 16174, Note_off_c, 0, 72, 0
2, 16176, Note_on_c, 0, 71, 127
2, 16197, Note_off_c, 0, 71, 0
2, 16200, Note_on_c, 0, 72, 127
2, 16221, Note_off_c, 0, 72, 0
2, 16224, Note_on_c, 0, 72, 127
2, 16308, Note_off_c, 0, 72, 0
2, 18192, Note_on_c, 0, 72, 127
2, 18213, Note_off_c, 0, 72, 0
2, 18216, Note_on_c, 0, 70, 127
2, 18237, Note_off_c, 0, 70, 0
2, 18240, Note_on_c, 0, 72, 127
2, 18261, Note_off_c, 0, 72, 0
2, 18264, Note_on_c, 0, 74, 127
2, 18285, Note_off_c, 0, 74, 0
2, 18288, Note_on_c, 0, 72, 127
2, 18309, Note_off_c, 0, 72, 0
2, 18312, Note_on_c, 0, 70, 127
2, 18333, Note_off_c, 0, 70, 0
2, 18336, Note_on_c, 0, 69, 127
2, 18378, Note_off_c, 0, 69, 0
2, 18384, Note_on_c, 0, 70, 127
2, 18405, Note_off_c, 0, 70, 0
2, 18408, Note_on_c, 0, 69, 127
2, 18429, Note_off_c, 0, 69, 0
2, 18432, Note_on_c, 0, 70, 127
2, 18453, Note_off_c, 0, 70, 0
2, 18456, Note_on_c, 0, 72, 127
2, 18477, Note_off_c, 0, 72, 0
2, 18480, Note_on_c, 0, 70, 127
2, 18501, Note_off_c, 0, 70, 0
2, 18504, Note_on_c, 0, 69, 127
2, 18525, Note_off_c, 0, 69, 0
2, 18528, Note_on_c, 0, 67, 127
2, 18570, Note_off_c, 0, 67, 0
2, 20112, Note_on_c, 0, 70, 127
2, 20133, Note_off_c, 0, 70, 0
2, 20136, Note_on_c, 0, 69, 127
2, 20157, Note_off_c, 0, 69, 0
2, 20160, Note_on_c, 0, 70, 127
2, 20181, Note_off_c, 0, 70, 0
2, 20184, Note_on_c, 0, 72, 127
2, 20205, Note_off_c, 0, 72, 0
2, 20208, Note_on_c, 0, 70, 127
2, 20229, Note_off_c, 0, 70, 0
2, 20232, Note_on_c, 0, 69, 127
2, 20253, Note_off_c, 0, 69, 0
2, 20256, Note_on_c, 0, 67, 127
2, 20298, Note_off_c, 0, 67, 0
2, 20304, Note_on_c, 0, 69, 127
2, 20325, Note_off_c, 0, 69, 0
2, 20328, Note_on_c, 0, 67, 127
2, 20349, Note_off_c, 0, 67, 0
2, 20352, Note_on_c, 0, 69, 127
2, 20373, Note_off_c, 0, 69, 0
2, 20376, Note_on_c, 0, 70, 127
2, 20397, Note_off_c, 0, 70, 0
2, 20400, Note_on_c, 0, 69, 127
2, 20421, Note_off_c, 0, 69, 0
2, 20424, Note_on_c, 0, 67, 127
2, 20445, Note_off_c, 0, 67, 0
2, 20448, Note_on_c, 0, 65, 127
2, 20490, Note_off_c, 0, 65, 0
2, 20688, Note_on_c, 0, 74, 127
2, 20709, Note_off_c, 0, 74, 0
2, 20712, Note_on_c, 0, 72, 127
2, 20733, Note_off_c, 0, 72, 0
2, 20736, Note_on_c, 0, 74, 127
2, 20757, Note_off_c, 0, 74, 0
2, 20760, Note_on_c, 0, 76, 127
2, 20781, Note_off_c, 0, 76, 0
2, 20784, Note_on_c, 0, 74, 127
2, 20805, Note_off_c, 0, 74, 0
2, 20808, Note_on_c, 0, 72, 127
2, 20829, Note_off_c, 0, 72, 0
2, 20832, Note_on_c, 0, 71, 127
2, 20853, Note_off_c, 0, 71, 0
2, 20856, Note_on_c, 0, 69, 127
2, 20877, Note_off_c, 0, 69, 0
2, 20880, Note_on_c, 0, 67, 127
2, 20901, Note_off_c, 0, 67, 0
2, 20904, Note_on_c, 0, 69, 127
2, 20925, Note_off_c, 0, 69, 0
2, 20928, Note_on_c, 0, 71, 127
2, 20949, Note_off_c, 0, 71, 0
2, 20952, Note_on_c, 0, 72, 127
2, 20973, Note_off_c, 0, 72, 0
2, 20976, Note_on_c, 0, 74, 127
2, 20997, Note_off_c, 0, 74, 0
2, 21000, Note_on_c, 0, 71, 127
2, 21021, Note_off_c, 0, 71, 0
2, 21024, Note_on_c, 0, 72, 127
2, 21045, Note_off_c, 0, 72, 0
2, 21048, Note_on_c, 0, 70, 127
2, 21069, Note_off_c, 0, 70, 0
2, 21072, Note_on_c, 0, 72, 127
2, 21093, Note_off_c, 0, 72, 0
2, 21096, Note_on_c, 0, 70, 127
2, 21117, Note_off_c, 0, 70, 0
2, 21120, Note_on_c, 0, 72, 127
2, 21141, Note_off_c, 0, 72, 0
2, 21144, Note_on_c, 0, 74, 127
2, 21165, Note_off_c, 0, 74, 0
2, 21168, Note_on_c, 0, 72, 127
2, 21189, Note_off_c, 0, 72, 0
2, 21192, Note_on_c, 0, 70, 127
2, 21213, Note_off_c, 0, 70, 0
2, 21216, Note_on_c, 0, 69, 127
2, 21237, Note_off_c, 0, 69, 0
2, 21240, Note_on_c, 0, 67, 127
2, 21261, Note_off_c, 0, 67, 0
2, 21264, Note_on_c, 0, 69, 127
2, 21285, Note_off_c, 0, 69, 0
2, 21288, Note_on_c, 0, 70, 127
2, 21309, Note_off_c, 0, 70, 0
2, 21312, Note_on_c, 0, 69, 127
2, 21333, Note_off_c, 0, 69, 0
2, 21336, Note_on_c, 0, 67, 127
2, 21357, Note_off_c, 0, 67, 0
2, 21360, Note_on_c, 0, 65, 127
2, 21381, Note_off_c, 0, 65, 0
2, 21384, Note_on_c, 0, 64, 127
2, 21405, Note_off_c, 0, 64, 0
2, 21408, Note_on_c, 0, 65, 127
2, 21429, Note_off_c, 0, 65, 0
2, 21432, Note_on_c, 0, 70, 127
2, 21453, Note_off_c, 0, 70, 0
2, 21456, Note_on_c, 0, 69, 127
2, 21477, Note_off_c, 0, 69, 0
2, 21480, Note_on_c, 0, 67, 127
2, 21501, Note_off_c, 0, 67, 0
2, 21504, Note_on_c, 0, 67, 127
2, 21567, Note_off_c, 0, 67, 0
2, 21576, Note_on_c, 0, 65, 127
2, 21597, Note_off_c, 0, 65, 0
2, 21600, Note_on_c, 0, 65, 127
2, 21684, Note_off_c, 0, 65, 0
2, 22032, Note_on_c, 0, 72, 127
2, 22053, Note_off_c, 0, 72, 0
2, 22056, Note_on_c, 0, 70, 127
2, 22077, Note_off_c, 0, 70, 0
2, 22080, Note_on_c, 0, 72, 127
2, 22101, Note_off_c, 0, 72, 0
2, 22104, Note_on_c, 0, 70, 127
2, 22125, Note_off_c, 0, 70, 0
2, 22128, Note_on_c, 0, 72, 127
2, 22149, Note_off_c, 0, 72, 0
2, 22152, Note_on_c, 0, 70, 127
2, 22173, Note_off_c, 0, 70, 0
2, 22176, Note_on_c, 0, 69, 127
2, 22197, Note_off_c, 0, 69, 0
2, 22200, Note_on_c, 0, 70, 127
2, 22221, Note_off_c, 0, 70, 0
2, 22224, Note_on_c, 0, 72, 127
2, 22245, Note_off_c, 0, 72, 0
2, 22248, Note_on_c, 0, 74, 127
2, 22269, Note_off_c, 0, 74, 0
2, 22272, Note_on_c, 0, 70, 127
2, 22293, Note_off_c, 0, 70, 0
2, 22296, Note_on_c, 0, 69, 127
2, 22317, Note_off_c, 0, 69, 0
2, 22320, Note_on_c, 0, 70, 127
2, 22341, Note_off_c, 0, 70, 0
2, 22344, Note_on_c, 0, 67, 127
2, 22365, Note_off_c, 0, 67, 0
2, 22368, Note_on_c, 0, 69, 127
2, 22410, Note_off_c, 0, 69, 0
2, 22416, Note_on_c, 0, 60, 127
2, 22458, Note_off_c, 0, 60, 0
2, 22464, Note_on_c, 0, 65, 127
2, 22506, Note_off_c, 0, 65, 0
2, 22512, Note_on_c, 0, 67, 127
2, 22554, Note_off_c, 0, 67, 0
2, 22560, Note_on_c, 0, 69, 127
2, 22581, Note_off_c, 0, 69, 0
2, 22584, Note_on_c, 0, 70, 127
2, 22605, Note_off_c, 0, 70, 0
2, 22608, Note_on_c, 0, 69, 127
2, 22629, Note_off_c, 0, 69, 0
2, 22632, Note_on_c, 0, 70, 127
2, 22653, Note_off_c, 0, 70, 0
2, 22656, Note_on_c, 0, 72, 127
2, 22677, Note_off_c, 0, 72, 0
2, 22680, Note_on_c, 0, 70, 127
2, 22701, Note_off_c, 0, 70, 0
2, 22704, Note_on_c, 0, 69, 127
2, 22725, Note_off_c, 0, 69, 0
2, 22728, Note_on_c, 0, 70, 127
2, 22749, Note_off_c, 0, 70, 0
2, 22752, Note_on_c, 0, 67, 127
2, 22836, Note_off_c, 0, 67, 0
2, 23184, Note_on_c, 0, 67, 127
2, 23205, Note_off_c, 0, 67, 0
2, 23208, Note_on_c, 0, 65, 127
2, 23229, Note_off_c, 0, 65, 0
2, 23232, Note_on_c, 0, 67, 127
2, 23253, Note_off_c, 0, 67, 0
2, 23256, Note_on_c, 0, 69, 127
2, 23277, Note_off_c, 0, 69, 0
2, 23280, Note_on_c, 0, 70, 127
2, 23301, Note_off_c, 0, 70, 0
2, 23304, Note_on_c, 0, 67, 127
2, 23325, Note_off_c, 0, 67, 0
2, 23328, Note_on_c, 0, 69, 127
2, 23349, Note_off_c, 0, 69, 0
2, 23352, Note_on_c, 0, 67, 127
2, 23373, Note_off_c, 0, 67, 0
2, 23376, Note_on_c, 0, 69, 127
2, 23397, Note_off_c, 0, 69, 0
2, 23400, Note_on_c, 0, 67, 127
2, 23421, Note_off_c, 0, 67, 0
2, 23424, Note_on_c, 0, 69, 127
2, 23445, Note_off_c, 0, 69, 0
2, 23448, Note_on_c, 0, 71, 127
2, 23469, Note_off_c, 0, 71, 0
2, 23472, Note_on_c, 0, 72, 127
2, 23493, Note_off_c, 0, 72, 0
2, 23496, Note_on_c, 0, 69, 127
2, 23517, Note_off_c, 0, 69, 0
2, 23520, Note_on_c, 0, 71, 127
2, 23541, Note_off_c, 0, 71, 0
2, 23544, Note_on_c, 0, 69, 127
2, 23565, Note_off_c, 0, 69, 0
2, 23568, Note_on_c, 0, 71, 127
2, 23589, Note_off_c, 0, 71, 0
2, 23592, Note_on_c, 0, 69, 127
2, 23613, Note_off_c, 0, 69, 0
2, 23616, Note_on_c, 0, 71, 127
2, 23637, Note_off_c, 0, 71, 0
2, 23640, Note_on_c, 0, 72, 127
2, 23661, Note_off_c, 0, 72, 0
2, 23664, Note_on_c, 0, 74, 127
2, 23685, Note_off_c, 0, 74, 0
2, 23688, Note_on_c, 0, 71, 127
2, 23709, Note_off_c, 0, 71, 0
2, 23712, Note_on_c, 0, 72, 127
2, 23775, Note_off_c, 0, 72, 0
2, 23784, Note_on_c, 0, 74, 127
2, 23805, Note_off_c, 0, 74, 0
2, 23808, Note_on_c, 0, 72, 127
2, 23818, Note_off_c, 0, 72, 0
2, 23820, Note_on_c, 0, 71, 127
2, 23830, Note_off_c, 0, 71, 0
2, 23832, Note_on_c, 0, 72, 127
2, 23842, Note_off_c, 0, 72, 0
2, 23844, Note_on_c, 0, 71, 127
2, 23854, Note_off_c, 0, 71, 0
2, 23856, Note_on_c, 0, 71, 127
2, 23877, Note_off_c, 0, 71, 0
2, 23880, Note_on_c, 0, 72, 127
2, 23901, Note_off_c, 0, 72, 0
2, 23904, Note_on_c, 0, 72, 127
2, 23988, Note_off_c, 0, 72, 0
2, 24672, Note_on_c, 0, 77, 127
2, 24852, Note_off_c, 0, 77, 0
2, 24864, Note_on_c, 0, 75, 127
2, 25044, Note_off_c, 0, 75, 0
2, 25056, Note_on_c, 0, 74, 127
2, 25236, Note_off_c, 0, 74, 0
2, 25248, Note_on_c, 0, 72, 127
2, 25269, Note_off_c, 0, 72, 0
2, 25272, Note_on_c, 0, 70, 127
2, 25293, Note_off_c, 0, 70, 0
2, 25296, Note_on_c, 0, 72, 127
2, 25317, Note_off_c, 0, 72, 0
2, 25320, Note_on_c, 0, 70, 127
2, 25341, Note_off_c, 0, 70, 0
2, 25344, Note_on_c, 0, 72, 127
2, 25365, Note_off_c, 0, 72, 0
2, 25368, Note_on_c, 0, 74, 127
2, 25389, Note_off_c, 0, 74, 0
2, 25392, Note_on_c, 0, 75, 127
2, 25413, Note_off_c, 0, 75, 0
2, 25416, Note_on_c, 0, 72, 127
2, 25437, Note_off_c, 0, 72, 0
2, 25440, Note_on_c, 0, 74, 127
2, 25653, Note_off_c, 0, 74, 0
2, 25656, Note_on_c, 0, 72, 127
2, 25677, Note_off_c, 0, 72, 0
2, 25680, Note_on_c, 0, 74, 127
2, 25701, Note_off_c, 0, 74, 0
2, 25704, Note_on_c, 0, 72, 127
2, 25725, Note_off_c, 0, 72, 0
2, 25728, Note_on_c, 0, 74, 127
2, 25749, Note_off_c, 0, 74, 0
2, 25752, Note_on_c, 0, 72, 127
2, 25773, Note_off_c, 0, 72, 0
2, 25776, Note_on_c, 0, 70, 127
2, 25797, Note_off_c, 0, 70, 0
2, 25800, Note_on_c, 0, 69, 127
2, 25821, Note_off_c, 0, 69, 0
2, 25824, Note_on_c, 0, 67, 127
2, 25845, Note_off_c, 0, 67, 0
2, 25848, Note_on_c, 0, 65, 127
2, 25869, Note_off_c, 0, 65, 0
2, 25872, Note_on_c, 0, 67, 127
2, 25893, Note_off_c, 0, 67, 0
2, 25896, Note_on_c, 0, 69, 127
2, 25917, Note_off_c, 0, 69, 0
2, 25920, Note_on_c, 0, 67, 127
2, 25941, Note_off_c, 0, 67, 0
2, 25944, Note_on_c, 0, 70, 127
2, 25965, Note_off_c, 0, 70, 0
2, 25968, Note_on_c, 0, 69, 127
2, 25989, Note_off_c, 0, 69, 0
2, 25992, Note_on_c, 0, 70, 127
2, 26013, Note_off_c, 0, 70, 0
2, 26016, Note_on_c, 0, 72, 127
2, 26037, Note_off_c, 0, 72, 0
2, 26040, Note_on_c, 0, 70, 127
2, 26061, Note_off_c, 0, 70, 0
2, 26064, Note_on_c, 0, 72, 127
2, 26085, Note_off_c, 0, 72, 0
2, 26088, Note_on_c, 0, 70, 127
2, 26109, Note_off_c, 0, 70, 0
2, 26112, Note_on_c, 0, 72, 127
2, 26133, Note_off_c, 0, 72, 0
2, 26136, Note_on_c, 0, 70, 127
2, 26157, Note_off_c, 0, 70, 0
2, 26160, Note_on_c, 0, 72, 127
2, 26181, Note_off_c, 0, 72, 0
2, 26184, Note_on_c, 0, 70, 127
2, 26205, Note_off_c, 0, 70, 0
2, 26208, Note_on_c, 0, 69, 127
2, 26229, Note_off_c, 0, 69, 0
2, 26232, Note_on_c, 0, 67, 127
2, 26253, Note_off_c, 0, 67, 0
2, 26256, Note_on_c, 0, 69, 127
2, 26277, Note_off_c, 0, 69, 0
2, 26280, Note_on_c, 0, 70, 127
2, 26301, Note_off_c, 0, 70, 0
2, 26304, Note_on_c, 0, 69, 127
2, 26325, Note_off_c, 0, 69, 0
2, 26328, Note_on_c, 0, 72, 127
2, 26349, Note_off_c, 0, 72, 0
2, 26352, Note_on_c, 0, 70, 127
2, 26373, Note_off_c, 0, 70, 0
2, 26376, Note_on_c, 0, 72, 127
2, 26397, Note_off_c, 0, 72, 0
2, 26400, Note_on_c, 0, 74, 127
2, 26421, Note_off_c, 0, 74, 0
2, 26424, Note_on_c, 0, 72, 127
2, 26445, Note_off_c, 0, 72, 0
2, 26448, Note_on_c, 0, 74, 127
2, 26469, Note_off_c, 0, 74, 0
2, 26472, Note_on_c, 0, 72, 127
2, 26493, Note_off_c, 0, 72, 0
2, 26496, Note_on_c, 0, 74, 127
2, 26613, Note_off_c, 0, 74, 0
2, 26616, Note_on_c, 0, 72, 127
2, 26637, Note_off_c, 0, 72, 0
2, 26640, Note_on_c, 0, 74, 127
2, 26661, Note_off_c, 0, 74, 0
2, 26664, Note_on_c, 0, 72, 127
2, 26685, Note_off_c, 0, 72, 0
2, 26688, Note_on_c, 0, 74, 127
2, 26805, Note_off_c, 0, 74, 0
2, 26808, Note_on_c, 0, 72, 127
2, 26829, Note_off_c, 0, 72, 0
2, 26832, Note_on_c, 0, 74, 127
2, 26853, Note_off_c, 0, 74, 0
2, 26856, Note_on_c, 0, 72, 127
2, 26877, Note_off_c, 0, 72, 0
2, 26880, Note_on_c, 0, 74, 127
2, 26901, Note_off_c, 0, 74, 0
2, 26904, Note_on_c, 0, 76, 127
2, 26925, Note_off_c, 0, 76, 0
2, 26928, Note_on_c, 0, 72, 127
2, 26949, Note_off_c, 0, 72, 0
2, 26952, Note_on_c, 0, 74, 127
2, 26973, Note_off_c, 0, 74, 0
2, 26976, Note_on_c, 0, 76, 127
2, 26997, Note_off_c, 0, 76, 0
2, 27000, Note_on_c, 0, 74, 127
2, 27021, Note_off_c, 0, 74, 0
2, 27024, Note_on_c, 0, 76, 127
2, 27045, Note_off_c, 0, 76, 0
2, 27048, Note_on_c, 0, 74, 127
2, 27069, Note_off_c, 0, 74, 0
2, 27072, Note_on_c, 0, 76, 127
2, 27093, Note_off_c, 0, 76, 0
2, 27096, Note_on_c, 0, 77, 127
2, 27117, Note_off_c, 0, 77, 0
2, 27120, Note_on_c, 0, 74, 127
2, 27141, Note_off_c, 0, 74, 0
2, 27144, Note_on_c, 0, 76, 127
2, 27165, Note_off_c, 0, 76, 0
2, 27168, Note_on_c, 0, 77, 127
2, 27189, Note_off_c, 0, 77, 0
2, 27192, Note_on_c, 0, 70, 127
2, 27213, Note_off_c, 0, 70, 0
2, 27216, Note_on_c, 0, 69, 127
2, 27237, Note_off_c, 0, 69, 0
2, 27240, Note_on_c, 0, 67, 127
2, 27261, Note_off_c, 0, 67, 0
2, 27264, Note_on_c, 0, 67, 127
2, 27327, Note_off_c, 0, 67, 0
2, 27336, Note_on_c, 0, 65, 127
2, 27357, Note_off_c, 0, 65, 0
2, 27360, Note_on_c, 0, 65, 127
2, 27444, Note_off_c, 0, 65, 0
2, 27792, Note_on_c, 0, 60, 127
2, 27834, Note_off_c, 0, 60, 0
2, 27840, Note_on_c, 0, 65, 127
2, 27882, Note_off_c, 0, 65, 0
2, 27888, Note_on_c, 0, 69, 127
2, 27930, Note_off_c, 0, 69, 0
2, 27936, Note_on_c, 0, 72, 127
2, 27978, Note_off_c, 0, 72, 0
2, 27984, Note_on_c, 0, 67, 127
2, 28026, Note_off_c, 0, 67, 0
2, 28032, Note_on_c, 0, 67, 127
2, 28053, Note_off_c, 0, 67, 0
2, 28056, Note_on_c, 0, 60, 127
2, 28077, Note_off_c, 0, 60, 0
2, 28080, Note_on_c, 0, 67, 127
2, 28122, Note_off_c, 0, 67, 0
2, 28128, Note_on_c, 0, 67, 127
2, 28156, Note_off_c, 0, 67, 0
2, 28159, Note_on_c, 0, 67, 127
2, 28188, Note_off_c, 0, 67, 0
2, 28191, Note_on_c, 0, 67, 127
2, 28219, Note_off_c, 0, 67, 0
2, 28224, Note_on_c, 0, 67, 127
2, 28287, Note_off_c, 0, 67, 0
2, 28296, Note_on_c, 0, 72, 127
2, 28317, Note_off_c, 0, 72, 0
2, 30288, Note_on_c, 0, 60, 127
2, 30330, Note_off_c, 0, 60, 0
2, 30336, Note_on_c, 0, 60, 127
2, 30364, Note_off_c, 0, 60, 0
2, 30367, Note_on_c, 0, 60, 127
2, 30396, Note_off_c, 0, 60, 0
2, 30399, Note_on_c, 0, 60, 127
2, 30427, Note_off_c, 0, 60, 0
2, 30432, Note_on_c, 0, 60, 127
2, 30460, Note_off_c, 0, 60, 0
2, 30463, Note_on_c, 0, 53, 127
2, 30492, Note_off_c, 0, 53, 0
2, 30495, Note_on_c, 0, 60, 127
2, 30523, Note_off_c, 0, 60, 0
2, 30528, Note_on_c, 0, 60, 127
2, 30556, Note_off_c, 0, 60, 0
2, 30559, Note_on_c, 0, 60, 127
2, 30588, Note_off_c, 0, 60, 0
2, 30591, Note_on_c, 0, 60, 127
2, 30619, Note_off_c, 0, 60, 0
2, 30624, Note_on_c, 0, 60, 127
2, 30687, Note_off_c, 0, 60, 0
2, 30696, Note_on_c, 0, 65, 127
2, 30717, Note_off_c, 0, 65, 0
2, 31632, Note_on_c, 0, 60, 127
2, 31674, Note_off_c, 0, 60, 0
2, 31680, Note_on_c, 0, 65, 127
2, 31708, Note_off_c, 0, 65, 0
2, 31711, Note_on_c, 0, 65, 127
2, 31740, Note_off_c, 0, 65, 0
2, 31743, Note_on_c, 0, 65, 127
2, 31771, Note_off_c, 0, 65, 0
2, 31776, Note_on_c, 0, 65, 127
2, 31804, Note_off_c, 0, 65, 0
2, 31807, Note_on_c, 0, 60, 127
2, 31836, Note_off_c, 0, 60, 0
2, 31839, Note_on_c, 0, 65, 127
2, 31867, Note_off_c, 0, 65, 0
2, 31872, Note_on_c, 0, 60, 127
2, 31900, Note_off_c, 0, 60, 0
2, 31903, Note_on_c, 0, 57, 127
2, 31932, Note_off_c, 0, 57, 0
2, 31935, Note_on_c, 0, 60, 127
2, 31963, Note_off_c, 0, 60, 0
2, 31968, Note_on_c, 0, 57, 127
2, 31996, Note_off_c, 0, 57, 0
2, 31999, Note_on_c, 0, 57, 127
2, 32028, Note_off_c, 0, 57, 0
2, 32031, Note_on_c, 0, 57, 127
2, 32059, Note_off_c, 0, 57, 0
2, 32064, Note_on_c, 0, 57, 127
2, 32092, Note_off_c, 0, 57, 0
2, 32095, Note_on_c, 0, 57, 127
2, 32124, Note_off_c, 0, 57, 0
2, 32127, Note_on_c, 0, 57, 127
2, 32155, Note_off_c, 0, 57, 0
2, 32160, Note_on_c, 0, 57, 127
2, 32340, Note_off_c, 0, 57, 0
2, 32340, End_track
3, 0, Start_track
3, 0, Title_t, "Corno II"
3, 0, Control_c, 1, 0, 0
3, 0, Program_c, 1, 60
3, 0, Time_signature, 4, 2, 96, 8
3, 0, Tempo, 681818
3, 144, Note_on_c, 1, 53, 127
3, 186, Note_off_c, 1, 53, 0
3, 192, Note_on_c, 1, 57, 127
3, 234, Note_off_c, 1, 57, 0
3, 240, Note_on_c, 1, 60, 127
3, 282, Note_off_c, 1, 60, 0
3, 288, Note_on_c, 1, 65, 127
3, 330, Note_off_c, 1, 65, 0
3, 336, Note_on_c, 1, 60, 127
3, 378, Note_off_c, 1, 60, 0
3, 384, Note_on_c, 1, 57, 127
3, 405, Note_off_c, 1, 57, 0
3, 408, Note_on_c, 1, 53, 127
3, 429, Note_off_c, 1, 53, 0
3, 432, Note_on_c, 1, 60, 127
3, 474, Note_off_c, 1, 60, 0
3, 480, Note_on_c, 1, 60, 127
3, 508, Note_off_c, 1, 60, 0
3, 511, Note_on_c, 1, 60, 127
3, 540, Note_off_c, 1, 60, 0
3, 543, Note_on_c, 1, 60, 127
3, 571, Note_off_c, 1, 60, 0
3, 576, Note_on_c, 1, 60, 127
3, 604, Note_off_c, 1, 60, 0
3, 607, Note_on_c, 1, 60, 127
3, 636, Note_off_c, 1, 60, 0
3, 639, Note_on_c, 1, 60, 127
3, 667, Note_off_c, 1, 60, 0
3, 672, Note_on_c, 1, 60, 127
3, 735, Note_off_c, 1, 60, 0
3, 744, Note_on_c, 1, 67, 127
3, 765, Note_off_c, 1, 67, 0
3, 3408, Note_on_c, 1, 53, 127
3, 3450, Note_off_c, 1, 53, 0
3, 3456, Note_on_c, 1, 53, 127
3, 3484, Note_off_c, 1, 53, 0
3, 3487, Note_on_c, 1, 53, 127
3, 3516, Note_off_c, 1, 53, 0
3, 3519, Note_on_c, 1, 53, 127
3, 3547, Note_off_c, 1, 53, 0
3, 3552, Note_on_c, 1, 53, 127
3, 3580, Note_off_c, 1, 53, 0
3, 3583, Note_on_c, 1, 48, 127
3, 3612, Note_off_c, 1, 48, 0
3, 3615, Note_on_c, 1, 53, 127
3, 3643, Note_off_c, 1, 53, 0
3, 3648, Note_on_c, 1, 53, 127
3, 3676, Note_off_c, 1, 53, 0
3, 3679, Note_on_c, 1, 53, 127
3, 3708, Note_off_c, 1, 53, 0
3, 3711, Note_on_c, 1, 53, 127
3, 3739, Note_off_c, 1, 53, 0
3, 3744, Note_on_c, 1, 53, 127
3, 3807, Note_off_c, 1, 53, 0
3, 3816, Note_on_c, 1, 60, 127
3, 3837, Note_off_c, 1, 60, 0
3, 4272, Note_on_c, 1, 60, 127
3, 4314, Note_off_c, 1, 60, 0
3, 4320, Note_on_c, 1, 65, 127
3, 4348, Note_off_c, 1, 65, 0
3, 4351, Note_on_c, 1, 65, 127
3, 4380, Note_off_c, 1, 65, 0
3, 4383, Note_on_c, 1, 65, 127
3, 4411, Note_off_c, 1, 65, 0
3, 4416, Note_on_c, 1, 65, 127
3, 4444, Note_off_c, 1, 65, 0
3, 4447, Note_on_c, 1, 60, 127
3, 4476, Note_off_c, 1, 60, 0
3, 4479, Note_on_c, 1, 65, 127
3, 4507, Note_off_c, 1, 65, 0
3, 4512, Note_on_c, 1, 60, 127
3, 4540, Note_off_c, 1, 60, 0
3, 4543, Note_on_c, 1, 57, 127
3, 4572, Note_off_c, 1, 57, 0
3, 4575, Note_on_c, 1, 60, 127
3, 4603, Note_off_c, 1, 60, 0
3, 4608, Note_on_c, 1, 57, 127
3, 4636, Note_off_c, 1, 57, 0
3, 4639, Note_on_c, 1, 53, 127
3, 4668, Note_off_c, 1, 53, 0
3, 4671, Note_on_c, 1, 57, 127
3, 4699, Note_off_c, 1, 57, 0
3, 4704, Note_on_c, 1, 53, 127
3, 4746, Note_off_c, 1, 53, 0
3, 4752, Note_on_c, 1, 69, 127
3, 4773, Note_off_c, 1, 69, 0
3, 4776, Note_on_c, 1, 67, 127
3, 4797, Note_off_c, 1, 67, 0
3, 4800, Note_on_c, 1, 69, 127
3, 4821, Note_off_c, 1, 69, 0
3, 4824, Note_on_c, 1, 67, 127
3, 4845, Note_off_c, 1, 67, 0
3, 4848, Note_on_c, 1, 69, 127
3, 4869, Note_off_c, 1, 69, 0
3, 4872, Note_on_c, 1, 67, 127
3, 4893, Note_off_c, 1, 67, 0
3, 4896, Note_on_c, 1, 65, 127
3, 4917, Note_off_c, 1, 65, 0
3, 4920, Note_on_c, 1, 67, 127
3, 4941, Note_off_c, 1, 67, 0
3, 4944, Note_on_c, 1, 69, 127
3, 4965, Note_off_c, 1, 69, 0
3, 4968, Note_on_c, 1, 70, 127
3, 4989, Note_off_c, 1, 70, 0
3, 4992, Note_on_c, 1, 67, 127
3, 5034, Note_off_c, 1, 67, 0
3, 5040, Note_on_c, 1, 60, 127
3, 5082, Note_off_c, 1, 60, 0
3, 5088, Note_on_c, 1, 65, 127
3, 5130, Note_off_c, 1, 65, 0
3, 5136, Note_on_c, 1, 57, 127
3, 5178, Note_off_c, 1, 57, 0
3, 5184, Note_on_c, 1, 60, 127
3, 5226, Note_off_c, 1, 60, 0
3, 5232, Note_on_c, 1, 60, 127
3, 5253, Note_off_c, 1, 60, 0
3, 5256, Note_on_c, 1, 60, 127
3, 5277, Note_off_c, 1, 60, 0
3, 5280, Note_on_c, 1, 60, 127
3, 5322, Note_off_c, 1, 60, 0
3, 5328, Note_on_c, 1, 65, 127
3, 5349, Note_off_c, 1, 65, 0
3, 5352, Note_on_c, 1, 67, 127
3, 5373, Note_off_c, 1, 67, 0
3, 5376, Note_on_c, 1, 69, 127
3, 5397, Note_off_c, 1, 69, 0
3, 5400, Note_on_c, 1, 67, 127
3, 5421, Note_off_c, 1, 67, 0
3, 5424, Note_on_c, 1, 65, 127
3, 5445, Note_off_c, 1, 65, 0
3, 5448, Note_on_c, 1, 67, 127
3, 5469, Note_off_c, 1, 67, 0
3, 5472, Note_on_c, 1, 60, 127
3, 5556, Note_off_c, 1, 60, 0
3, 5904, Note_on_c, 1, 60, 127
3, 5925, Note_off_c, 1, 60, 0
3, 5928, Note_on_c, 1, 60, 127
3, 5949, Note_off_c, 1, 60, 0
3, 5952, Note_on_c, 1, 60, 127
3, 5994, Note_off_c, 1, 60, 0
3, 6000, Note_on_c, 1, 60, 127
3, 6042, Note_off_c, 1, 60, 0
3, 6048, Note_on_c, 1, 60, 127
3, 6090, Note_off_c, 1, 60, 0
3, 6096, Note_on_c, 1, 60, 127
3, 6138, Note_off_c, 1, 60, 0
3, 6144, Note_on_c, 1, 65, 127
3, 6165, Note_off_c, 1, 65, 0
3, 6168, Note_on_c, 1, 67, 127
3, 6189, Note_off_c, 1, 67, 0
3, 6192, Note_on_c, 1, 69, 127
3, 6213, Note_off_c, 1, 69, 0
3, 6216, Note_on_c, 1, 65, 127
3, 6237, Note_off_c, 1, 65, 0
3, 6240, Note_on_c, 1, 67, 127
3, 6261, Note_off_c, 1, 67, 0
3, 6264, Note_on_c, 1, 65, 127
3, 6285, Note_off_c, 1, 65, 0
3, 6288, Note_on_c, 1, 67, 127
3, 6309, Note_off_c, 1, 67, 0
3, 6312, Note_on_c, 1, 65, 127
3, 6333, Note_off_c, 1, 65, 0
3, 6336, Note_on_c, 1, 67, 127
3, 6357, Note_off_c, 1, 67, 0
3, 6360, Note_on_c, 1, 69, 127
3, 6381, Note_off_c, 1, 69, 0
3, 6384, Note_on_c, 1, 71, 127
3, 6405, Note_off_c, 1, 71, 0
3, 6408, Note_on_c, 1, 67, 127
3, 6429, Note_off_c, 1, 67, 0
3, 6432, Note_on_c, 1, 69, 127
3, 6495, Note_off_c, 1, 69, 0
3, 6504, Note_on_c, 1, 71, 127
3, 6525, Note_off_c, 1, 71, 0
3, 6528, Note_on_c, 1, 67, 127
3, 6591, Note_off_c, 1, 67, 0
3, 6600, Note_on_c, 1, 67, 127
3, 6621, Note_off_c, 1, 67, 0
3, 6624, Note_on_c, 1, 67, 127
3, 6708, Note_off_c, 1, 67, 0
3, 7440, Note_on_c, 1, 57, 127
3, 7482, Note_off_c, 1, 57, 0
3, 7488, Note_on_c, 1, 60, 127
3, 7530, Note_off_c, 1, 60, 0
3, 7536, Note_on_c, 1, 65, 127
3, 7578, Note_off_c, 1, 65, 0
3, 7584, Note_on_c, 1, 67, 127
3, 7626, Note_off_c, 1, 67, 0
3, 7632, Note_on_c, 1, 69, 127
3, 7653, Note_off_c, 1, 69, 0
3, 7656, Note_on_c, 1, 70, 127
3, 7677, Note_off_c, 1, 70, 0
3, 7680, Note_on_c, 1, 69, 127
3, 7701, Note_off_c, 1, 69, 0
3, 7704, Note_on_c, 1, 67, 127
3, 7725, Note_off_c, 1, 67, 0
3, 7728, Note_on_c, 1, 65, 127
3, 7749, Note_off_c, 1, 65, 0
3, 7752, Note_on_c, 1, 60, 127
3, 7773, Note_off_c, 1, 60, 0
3, 7776, Note_on_c, 1, 65, 127
3, 7860, Note_off_c, 1, 65, 0
3, 8976, Note_on_c, 1, 70, 127
3, 8997, Note_off_c, 1, 70, 0
3, 9000, Note_on_c, 1, 69, 127
3, 9021, Note_off_c, 1, 69, 0
3, 9024, Note_on_c, 1, 70, 127
3, 9045, Note_off_c, 1, 70, 0
3, 9048, Note_on_c, 1, 72, 127
3, 9069, Note_off_c, 1, 72, 0
3, 9072, Note_on_c, 1, 70, 127
3, 9093, Note_off_c, 1, 70, 0
3, 9096, Note_on_c, 1, 69, 127
3, 9117, Note_off_c, 1, 69, 0
3, 9120, Note_on_c, 1, 67, 127
3, 9162, Note_off_c, 1, 67, 0
3, 9168, Note_on_c, 1, 69, 127
3, 9189, Note_off_c, 1, 69, 0
3, 9192, Note_on_c, 1, 67, 127
3, 9213, Note_off_c, 1, 67, 0
3, 9216, Note_on_c, 1, 69, 127
3, 9237, Note_off_c, 1, 69, 0
3, 9240, Note_on_c, 1, 70, 127
3, 9261, Note_off_c, 1, 70, 0
3, 9264, Note_on_c, 1, 69, 127
3, 9285, Note_off_c, 1, 69, 0
3, 9288, Note_on_c, 1, 67, 127
3, 9309, Note_off_c, 1, 67, 0
3, 9312, Note_on_c, 1, 65, 127
3, 9396, Note_off_c, 1, 65, 0
3, 10320, Note_on_c, 1, 57, 127
3, 10341, Note_off_c, 1, 57, 0
3, 10344, Note_on_c, 1, 57, 127
3, 10365, Note_off_c, 1, 57, 0
3, 10368, Note_on_c, 1, 57, 127
3, 10389, Note_off_c, 1, 57, 0
3, 10392, Note_on_c, 1, 57, 127
3, 10413, Note_off_c, 1, 57, 0
3, 10416, Note_on_c, 1, 57, 127
3, 10437, Note_off_c, 1, 57, 0
3, 10440, Note_on_c, 1, 57, 127
3, 10461, Note_off_c, 1, 57, 0
3, 10464, Note_on_c, 1, 57, 127
3, 10506, Note_off_c, 1, 57, 0
3, 10512, Note_on_c, 1, 53, 127
3, 10554, Note_off_c, 1, 53, 0
3, 11088, Note_on_c, 1, 57, 127
3, 11109, Note_off_c, 1, 57, 0
3, 11112, Note_on_c, 1, 57, 127
3, 11133, Note_off_c, 1, 57, 0
3, 11136, Note_on_c, 1, 57, 127
3, 11157, Note_off_c, 1, 57, 0
3, 11160, Note_on_c, 1, 57, 127
3, 11181, Note_off_c, 1, 57, 0
3, 11184, Note_on_c, 1, 57, 127
3, 11205, Note_off_c, 1, 57, 0
3, 11208, Note_on_c, 1, 57, 127
3, 11229, Note_off_c, 1, 57, 0
3, 11232, Note_on_c, 1, 57, 127
3, 11316, Note_off_c, 1, 57, 0
3, 11472, Note_on_c, 1, 69, 127
3, 11493, Note_off_c, 1, 69, 0
3, 11496, Note_on_c, 1, 69, 127
3, 11517, Note_off_c, 1, 69, 0
3, 11520, Note_on_c, 1, 69, 127
3, 11541, Note_off_c, 1, 69, 0
3, 11544, Note_on_c, 1, 69, 127
3, 11565, Note_off_c, 1, 69, 0
3, 11568, Note_on_c, 1, 69, 127
3, 11589, Note_off_c, 1, 69, 0
3, 11592, Note_on_c, 1, 69, 127
3, 11613, Note_off_c, 1, 69, 0
3, 11616, Note_on_c, 1, 67, 127
3, 11679, Note_off_c, 1, 67, 0
3, 11688, Note_on_c, 1, 72, 127
3, 11709, Note_off_c, 1, 72, 0
3, 12048, Note_on_c, 1, 57, 127
3, 12069, Note_off_c, 1, 57, 0
3, 12072, Note_on_c, 1, 57, 127
3, 12093, Note_off_c, 1, 57, 0
3, 12096, Note_on_c, 1, 57, 127
3, 12117, Note_off_c, 1, 57, 0
3, 12120, Note_on_c, 1, 57, 127
3, 12141, Note_off_c, 1, 57, 0
3, 12144, Note_on_c, 1, 57, 127
3, 12165, Note_off_c, 1, 57, 0
3, 12168, Note_on_c, 1, 57, 127
3, 12189, Note_off_c, 1, 57, 0
3, 12192, Note_on_c, 1, 57, 127
3, 12234, Note_off_c, 1, 57, 0
3, 12240, Note_on_c, 1, 57, 127
3, 12261, Note_off_c, 1, 57, 0
3, 12264, Note_on_c, 1, 57, 127
3, 12285, Note_off_c, 1, 57, 0
3, 12288, Note_on_c, 1, 57, 127
3, 12309, Note_off_c, 1, 57, 0
3, 12312, Note_on_c, 1, 57, 127
3, 12333, Note_off_c, 1, 57, 0
3, 12336, Note_on_c, 1, 57, 127
3, 12357, Note_off_c, 1, 57, 0
3, 12360, Note_on_c, 1, 57, 127
3, 12381, Note_off_c, 1, 57, 0
3, 12384, Note_on_c, 1, 57, 127
3, 12426, Note_off_c, 1, 57, 0
3, 12432, Note_on_c, 1, 65, 127
3, 12453, Note_off_c, 1, 65, 0
3, 12456, Note_on_c, 1, 64, 127
3, 12477, Note_off_c, 1, 64, 0
3, 12480, Note_on_c, 1, 65, 127
3, 12501, Note_off_c, 1, 65, 0
3, 12504, Note_on_c, 1, 64, 127
3, 12525, Note_off_c, 1, 64, 0
3, 12528, Note_on_c, 1, 65, 127
3, 12549, Note_off_c, 1, 65, 0
3, 12552, Note_on_c, 1, 67, 127
3, 12573, Note_off_c, 1, 67, 0
3, 12576, Note_on_c, 1, 69, 127
3, 12597, Note_off_c, 1, 69, 0
3, 12600, Note_on_c, 1, 67, 127
3, 12621, Note_off_c, 1, 67, 0
3, 12624, Note_on_c, 1, 69, 127
3, 12645, Note_off_c, 1, 69, 0
3, 12648, Note_on_c, 1, 71, 127
3, 12669, Note_off_c, 1, 71, 0
3, 12672, Note_on_c, 1, 69, 127
3, 12693, Note_off_c, 1, 69, 0
3, 12696, Note_on_c, 1, 71, 127
3, 12717, Note_off_c, 1, 71, 0
3, 12720, Note_on_c, 1, 69, 127
3, 12741, Note_off_c, 1, 69, 0
3, 12744, Note_on_c, 1, 71, 127
3, 12765, Note_off_c, 1, 71, 0
3, 12768, Note_on_c, 1, 67, 127
3, 12810, Note_off_c, 1, 67, 0
3, 13632, Note_on_c, 1, 69, 127
3, 13812, Note_off_c, 1, 69, 0
3, 13824, Note_on_c, 1, 67, 127
3, 14004, Note_off_c, 1, 67, 0
3, 14016, Note_on_c, 1, 65, 127
3, 14154, Note_off_c, 1, 65, 0
3, 14160, Note_on_c, 1, 60, 127
3, 14181, Note_off_c, 1, 60, 0
3, 14184, Note_on_c, 1, 65, 127
3, 14205, Note_off_c, 1, 65, 0
3, 14208, Note_on_c, 1, 67, 127
3, 14229, Note_off_c, 1, 67, 0
3, 14232, Note_on_c, 1, 69, 127
3, 14253, Note_off_c, 1, 69, 0
3, 14256, Note_on_c, 1, 67, 127
3, 14277, Note_off_c, 1, 67, 0
3, 14280, Note_on_c, 1, 69, 127
3, 14301, Note_off_c, 1, 69, 0
3, 14304, Note_on_c, 1, 65, 127
3, 14517, Note_off_c, 1, 65, 0
3, 14520, Note_on_c, 1, 67, 127
3, 14541, Note_off_c, 1, 67, 0
3, 14544, Note_on_c, 1, 65, 127
3, 14565, Note_off_c, 1, 65, 0
3, 14568, Note_on_c, 1, 67, 127
3, 14589, Note_off_c, 1, 67, 0
3, 14592, Note_on_c, 1, 69, 127
3, 14613, Note_off_c, 1, 69, 0
3, 14616, Note_on_c, 1, 71, 127
3, 14637, Note_off_c, 1, 71, 0
3, 14640, Note_on_c, 1, 69, 127
3, 14661, Note_off_c, 1, 69, 0
3, 14664, Note_on_c, 1, 71, 127
3, 14685, Note_off_c, 1, 71, 0
3, 14688, Note_on_c, 1, 67, 127
3, 14901, Note_off_c, 1, 67, 0
3, 14904, Note_on_c, 1, 69, 127
3, 14925, Note_off_c, 1, 69, 0
3, 14928, Note_on_c, 1, 67, 127
3, 14949, Note_off_c, 1, 67, 0
3, 14952, Note_on_c, 1, 69, 127
3, 14973, Note_off_c, 1, 69, 0
3, 14976, Note_on_c, 1, 71, 127
3, 14997, Note_off_c, 1, 71, 0
3, 15000, Note_on_c, 1, 72, 127
3, 15021, Note_off_c, 1, 72, 0
3, 15024, Note_on_c, 1, 71, 127
3, 15045, Note_off_c, 1, 71, 0
3, 15048, Note_on_c, 1, 72, 127
3, 15069, Note_off_c, 1, 72, 0
3, 15072, Note_on_c, 1, 69, 127
3, 15285, Note_off_c, 1, 69, 0
3, 15288, Note_on_c, 1, 67, 127
3, 15309, Note_off_c, 1, 67, 0
3, 15312, Note_on_c, 1, 69, 127
3, 15333, Note_off_c, 1, 69, 0
3, 15336, Note_on_c, 1, 67, 127
3, 15357, Note_off_c, 1, 67, 0
3, 15360, Note_on_c, 1, 69, 127
3, 15477, Note_off_c, 1, 69, 0
3, 15480, Note_on_c, 1, 67, 127
3, 15501, Note_off_c, 1, 67, 0
3, 15504, Note_on_c, 1, 69, 127
3, 15525, Note_off_c, 1, 69, 0
3, 15528, Note_on_c, 1, 67, 127
3, 15549, Note_off_c, 1, 67, 0
3, 15552, Note_on_c, 1, 69, 127
3, 15669, Note_off_c, 1, 69, 0
3, 15672, Note_on_c, 1, 67, 127
3, 15693, Note_off_c, 1, 67, 0
3, 15696, Note_on_c, 1, 69, 127
3, 15717, Note_off_c, 1, 69, 0
3, 15720, Note_on_c, 1, 67, 127
3, 15741, Note_off_c, 1, 67, 0
3, 15744, Note_on_c, 1, 69, 127
3, 15765, Note_off_c, 1, 69, 0
3, 15768, Note_on_c, 1, 67, 127
3, 15789, Note_off_c, 1, 67, 0
3, 15792, Note_on_c, 1, 69, 127
3, 15813, Note_off_c, 1, 69, 0
3, 15816, Note_on_c, 1, 71, 127
3, 15837, Note_off_c, 1, 71, 0
3, 15840, Note_on_c, 1, 67, 127
3, 15861, Note_off_c, 1, 67, 0
3, 15864, Note_on_c, 1, 65, 127
3, 15885, Note_off_c, 1, 65, 0
3, 15888, Note_on_c, 1, 67, 127
3, 15909, Note_off_c, 1, 67, 0
3, 15912, Note_on_c, 1, 65, 127
3, 15933, Note_off_c, 1, 65, 0
3, 15936, Note_on_c, 1, 67, 127
3, 15957, Note_off_c, 1, 67, 0
3, 15960, Note_on_c, 1, 69, 127
3, 15981, Note_off_c, 1, 69, 0
3, 15984, Note_on_c, 1, 65, 127
3, 16005, Note_off_c, 1, 65, 0
3, 16008, Note_on_c, 1, 67, 127
3, 16029, Note_off_c, 1, 67, 0
3, 16032, Note_on_c, 1, 60, 127
3, 16074, Note_off_c, 1, 60, 0
3, 16080, Note_on_c, 1, 69, 127
3, 16122, Note_off_c, 1, 69, 0
3, 16128, Note_on_c, 1, 67, 127
3, 16170, Note_off_c, 1, 67, 0
3, 16176, Note_on_c, 1, 67, 127
3, 16218, Note_off_c, 1, 67, 0
3, 16224, Note_on_c, 1, 67, 127
3, 16308, Note_off_c, 1, 67, 0
3, 18192, Note_on_c, 1, 69, 127
3, 18213, Note_off_c, 1, 69, 0
3, 18216, Note_on_c, 1, 67, 127
3, 18237, Note_off_c, 1, 67, 0
3, 18240, Note_on_c, 1, 69, 127
3, 18261, Note_off_c, 1, 69, 0
3, 18264, Note_on_c, 1, 70, 127
3, 18285, Note_off_c, 1, 70, 0
3, 18288, Note_on_c, 1, 69, 127
3, 18309, Note_off_c, 1, 69, 0
3, 18312, Note_on_c, 1, 67, 127
3, 18333, Note_off_c, 1, 67, 0
3, 18336, Note_on_c, 1, 65, 127
3, 18378, Note_off_c, 1, 65, 0
3, 18384, Note_on_c, 1, 67, 127
3, 18405, Note_off_c, 1, 67, 0
3, 18408, Note_on_c, 1, 65, 127
3, 18429, Note_off_c, 1, 65, 0
3, 18432, Note_on_c, 1, 67, 127
3, 18453, Note_off_c, 1, 67, 0
3, 18456, Note_on_c, 1, 69, 127
3, 18477, Note_off_c, 1, 69, 0
3, 18480, Note_on_c, 1, 67, 127
3, 18501, Note_off_c, 1, 67, 0
3, 18504, Note_on_c, 1, 65, 127
3, 18525, Note_off_c, 1, 65, 0
3, 18528, Note_on_c, 1, 60, 127
3, 18570, Note_off_c, 1, 60, 0
3, 20112, Note_on_c, 1, 67, 127
3, 20133, Note_off_c, 1, 67, 0
3, 20136, Note_on_c, 1, 65, 127
3, 20157, Note_off_c, 1, 65, 0
3, 20160, Note_on_c, 1, 67, 127
3, 20181, Note_off_c, 1, 67, 0
3, 20184, Note_on_c, 1, 69, 127
3, 20205, Note_off_c, 1, 69, 0
3, 20208, Note_on_c, 1, 67, 127
3, 20229, Note_off_c, 1, 67, 0
3, 20232, Note_on_c, 1, 65, 127
3, 20253, Note_off_c, 1, 65, 0
3, 20256, Note_on_c, 1, 60, 127
3, 20298, Note_off_c, 1, 60, 0
3, 20880, Note_on_c, 1, 67, 127
3, 20901, Note_off_c, 1, 67, 0
3, 20904, Note_on_c, 1, 65, 127
3, 20925, Note_off_c, 1, 65, 0
3, 20928, Note_on_c, 1, 67, 127
3, 20949, Note_off_c, 1, 67, 0
3, 20952, Note_on_c, 1, 69, 127
3, 20973, Note_off_c, 1, 69, 0
3, 20976, Note_on_c, 1, 67, 127
3, 20997, Note_off_c, 1, 67, 0
3, 21000, Note_on_c, 1, 65, 127
3, 21021, Note_off_c, 1, 65, 0
3, 21024, Note_on_c, 1, 67, 127
3, 21066, Note_off_c, 1, 67, 0
3, 21072, Note_on_c, 1, 60, 127
3, 21093, Note_off_c, 1, 60, 0
3, 21096, Note_on_c, 1, 60, 127
3, 21117, Note_off_c, 1, 60, 0
3, 21120, Note_on_c, 1, 60, 127
3, 21141, Note_off_c, 1, 60, 0
3, 21144, Note_on_c, 1, 60, 127
3, 21165, Note_off_c, 1, 60, 0
3, 21168, Note_on_c, 1, 60, 127
3, 21189, Note_off_c, 1, 60, 0
3, 21192, Note_on_c, 1, 60, 127
3, 21213, Note_off_c, 1, 60, 0
3, 21216, Note_on_c, 1, 60, 127
3, 21258, Note_off_c, 1, 60, 0
3, 21264, Note_on_c, 1, 53, 127
3, 21306, Note_off_c, 1, 53, 0
3, 21312, Note_on_c, 1, 57, 127
3, 21354, Note_off_c, 1, 57, 0
3, 21360, Note_on_c, 1, 60, 127
3, 21402, Note_off_c, 1, 60, 0
3, 21408, Note_on_c, 1, 57, 127
3, 21450, Note_off_c, 1, 57, 0
3, 21456, Note_on_c, 1, 53, 127
3, 21498, Note_off_c, 1, 53, 0
3, 21504, Note_on_c, 1, 60, 127
3, 21546, Note_off_c, 1, 60, 0
3, 21552, Note_on_c, 1, 60, 127
3, 21573, Note_off_c, 1, 60, 0
3, 21576, Note_on_c, 1, 60, 127
3, 21597, Note_off_c, 1, 60, 0
3, 21600, Note_on_c, 1, 57, 127
3, 21684, Note_off_c, 1, 57, 0
3, 22032, Note_on_c, 1, 69, 127
3, 22053, Note_off_c, 1, 69, 0
3, 22056, Note_on_c, 1, 67, 127
3, 22077, Note_off_c, 1, 67, 0
3, 22080, Note_on_c, 1, 69, 127
3, 22101, Note_off_c, 1, 69, 0
3, 22104, Note_on_c, 1, 67, 127
3, 22125, Note_off_c, 1, 67, 0
3, 22128, Note_on_c, 1, 69, 127
3, 22149, Note_off_c, 1, 69, 0
3, 22152, Note_on_c, 1, 67, 127
3, 22173, Note_off_c, 1, 67, 0
3, 22176, Note_on_c, 1, 65, 127
3, 22197, Note_off_c, 1, 65, 0
3, 22200, Note_on_c, 1, 67, 127
3, 22221, Note_off_c, 1, 67, 0
3, 22224, Note_on_c, 1, 69, 127
3, 22245, Note_off_c, 1, 69, 0
3, 22248, Note_on_c, 1, 70, 127
3, 22269, Note_off_c, 1, 70, 0
3, 22272, Note_on_c, 1, 67, 127
3, 22314, Note_off_c, 1, 67, 0
3, 22320, Note_on_c, 1, 60, 127
3, 22362, Note_off_c, 1, 60, 0
3, 22368, Note_on_c, 1, 65, 127
3, 22410, Note_off_c, 1, 65, 0
3, 22416, Note_on_c, 1, 57, 127
3, 22458, Note_off_c, 1, 57, 0
3, 22464, Note_on_c, 1, 60, 127
3, 22506, Note_off_c, 1, 60, 0
3, 22512, Note_on_c, 1, 60, 127
3, 22533, Note_off_c, 1, 60, 0
3, 22536, Note_on_c, 1, 60, 127
3, 22557, Note_off_c, 1, 60, 0
3, 22560, Note_on_c, 1, 60, 127
3, 22602, Note_off_c, 1, 60, 0
3, 22608, Note_on_c, 1, 65, 127
3, 22629, Note_off_c, 1, 65, 0
3, 22632, Note_on_c, 1, 67, 127
3, 22653, Note_off_c, 1, 67, 0
3, 22656, Note_on_c, 1, 69, 127
3, 22677, Note_off_c, 1, 69, 0
3, 22680, Note_on_c, 1, 67, 127
3, 22701, Note_off_c, 1, 67, 0
3, 22704, Note_on_c, 1, 65, 127
3, 22725, Note_off_c, 1, 65, 0
3, 22728, Note_on_c, 1, 67, 127
3, 22749, Note_off_c, 1, 67, 0
3, 22752, Note_on_c, 1, 60, 127
3, 22836, Note_off_c, 1, 60, 0
3, 23184, Note_on_c, 1, 60, 127
3, 23205, Note_off_c, 1, 60, 0
3, 23208, Note_on_c, 1, 60, 127
3, 23229, Note_off_c, 1, 60, 0
3, 23232, Note_on_c, 1, 60, 127
3, 23274, Note_off_c, 1, 60, 0
3, 23280, Note_on_c, 1, 60, 127
3, 23322, Note_off_c, 1, 60, 0
3, 23328, Note_on_c, 1, 60, 127
3, 23370, Note_off_c, 1, 60, 0
3, 23376, Note_on_c, 1, 60, 127
3, 23418, Note_off_c, 1, 60, 0
3, 23424, Note_on_c, 1, 65, 127
3, 23445, Note_off_c, 1, 65, 0
3, 23448, Note_on_c, 1, 67, 127
3, 23469, Note_off_c, 1, 67, 0
3, 23472, Note_on_c, 1, 69, 127
3, 23493, Note_off_c, 1, 69, 0
3, 23496, Note_on_c, 1, 65, 127
3, 23517, Note_off_c, 1, 65, 0
3, 23520, Note_on_c, 1, 67, 127
3, 23541, Note_off_c, 1, 67, 0
3, 23544, Note_on_c, 1, 65, 127
3, 23565, Note_off_c, 1, 65, 0
3, 23568, Note_on_c, 1, 67, 127
3, 23589, Note_off_c, 1, 67, 0
3, 23592, Note_on_c, 1, 65, 127
3, 23613, Note_off_c, 1, 65, 0
3, 23616, Note_on_c, 1, 67, 127
3, 23637, Note_off_c, 1, 67, 0
3, 23640, Note_on_c, 1, 69, 127
3, 23661, Note_off_c, 1, 69, 0
3, 23664, Note_on_c, 1, 71, 127
3, 23685, Note_off_c, 1, 71, 0
3, 23688, Note_on_c, 1, 67, 127
3, 23709, Note_off_c, 1, 67, 0
3, 23712, Note_on_c, 1, 69, 127
3, 23775, Note_off_c, 1, 69, 0
3, 23784, Note_on_c, 1, 71, 127
3, 23805, Note_off_c, 1, 71, 0
3, 23808, Note_on_c, 1, 67, 127
3, 23871, Note_off_c, 1, 67, 0
3, 23880, Note_on_c, 1, 67, 127
3, 23901, Note_off_c, 1, 67, 0
3, 23904, Note_on_c, 1, 67, 127
3, 23988, Note_off_c, 1, 67, 0
3, 24768, Note_on_c, 1, 74, 127
3, 24948, Note_off_c, 1, 74, 0
3, 24960, Note_on_c, 1, 72, 127
3, 25140, Note_off_c, 1, 72, 0
3, 25152, Note_on_c, 1, 70, 127
3, 25290, Note_off_c, 1, 70, 0
3, 25296, Note_on_c, 1, 69, 127
3, 25317, Note_off_c, 1, 69, 0
3, 25320, Note_on_c, 1, 67, 127
3, 25341, Note_off_c, 1, 67, 0
3, 25344, Note_on_c, 1, 69, 127
3, 25365, Note_off_c, 1, 69, 0
3, 25368, Note_on_c, 1, 70, 127
3, 25389, Note_off_c, 1, 70, 0
3, 25392, Note_on_c, 1, 72, 127
3, 25413, Note_off_c, 1, 72, 0
3, 25416, Note_on_c, 1, 69, 127
3, 25437, Note_off_c, 1, 69, 0
3, 25440, Note_on_c, 1, 70, 127
3, 25653, Note_off_c, 1, 70, 0
3, 25656, Note_on_c, 1, 69, 127
3, 25677, Note_off_c, 1, 69, 0
3, 25680, Note_on_c, 1, 70, 127
3, 25701, Note_off_c, 1, 70, 0
3, 25704, Note_on_c, 1, 69, 127
3, 25725, Note_off_c, 1, 69, 0
3, 25728, Note_on_c, 1, 67, 127
3, 25770, Note_off_c, 1, 67, 0
3, 25776, Note_on_c, 1, 65, 127
3, 25818, Note_off_c, 1, 65, 0
3, 25824, Note_on_c, 1, 60, 127
3, 25866, Note_off_c, 1, 60, 0
3, 25872, Note_on_c, 1, 60, 127
3, 25893, Note_off_c, 1, 60, 0
3, 25896, Note_on_c, 1, 60, 127
3, 25917, Note_off_c, 1, 60, 0
3, 25920, Note_on_c, 1, 60, 127
3, 25962, Note_off_c, 1, 60, 0
3, 25968, Note_on_c, 1, 65, 127
3, 25989, Note_off_c, 1, 65, 0
3, 25992, Note_on_c, 1, 67, 127
3, 26013, Note_off_c, 1, 67, 0
3, 26016, Note_on_c, 1, 69, 127
3, 26037, Note_off_c, 1, 69, 0
3, 26040, Note_on_c, 1, 67, 127
3, 26061, Note_off_c, 1, 67, 0
3, 26064, Note_on_c, 1, 69, 127
3, 26085, Note_off_c, 1, 69, 0
3, 26088, Note_on_c, 1, 67, 127
3, 26109, Note_off_c, 1, 67, 0
3, 26112, Note_on_c, 1, 69, 127
3, 26133, Note_off_c, 1, 69, 0
3, 26136, Note_on_c, 1, 67, 127
3, 26157, Note_off_c, 1, 67, 0
3, 26160, Note_on_c, 1, 69, 127
3, 26181, Note_off_c, 1, 69, 0
3, 26184, Note_on_c, 1, 67, 127
3, 26205, Note_off_c, 1, 67, 0
3, 26208, Note_on_c, 1, 65, 127
3, 26250, Note_off_c, 1, 65, 0
3, 26256, Note_on_c, 1, 65, 127
3, 26277, Note_off_c, 1, 65, 0
3, 26280, Note_on_c, 1, 65, 127
3, 26301, Note_off_c, 1, 65, 0
3, 26304, Note_on_c, 1, 65, 127
3, 26325, Note_off_c, 1, 65, 0
3, 26328, Note_on_c, 1, 69, 127
3, 26349, Note_off_c, 1, 69, 0
3, 26352, Note_on_c, 1, 67, 127
3, 26373, Note_off_c, 1, 67, 0
3, 26376, Note_on_c, 1, 69, 127
3, 26397, Note_off_c, 1, 69, 0
3, 26400, Note_on_c, 1, 65, 127
3, 26421, Note_off_c, 1, 65, 0
3, 26424, Note_on_c, 1, 67, 127
3, 26445, Note_off_c, 1, 67, 0
3, 26448, Note_on_c, 1, 65, 127
3, 26469, Note_off_c, 1, 65, 0
3, 26472, Note_on_c, 1, 67, 127
3, 26493, Note_off_c, 1, 67, 0
3, 26496, Note_on_c, 1, 65, 127
3, 26613, Note_off_c, 1, 65, 0
3, 26616, Note_on_c, 1, 67, 127
3, 26637, Note_off_c, 1, 67, 0
3, 26640, Note_on_c, 1, 65, 127
3, 26661, Note_off_c, 1, 65, 0
3, 26664, Note_on_c, 1, 67, 127
3, 26685, Note_off_c, 1, 67, 0
3, 26688, Note_on_c, 1, 65, 127
3, 26805, Note_off_c, 1, 65, 0
3, 26808, Note_on_c, 1, 67, 127
3, 26829, Note_off_c, 1, 67, 0
3, 26832, Note_on_c, 1, 65, 127
3, 26853, Note_off_c, 1, 65, 0
3, 26856, Note_on_c, 1, 67, 127
3, 26877, Note_off_c, 1, 67, 0
3, 26880, Note_on_c, 1, 65, 127
3, 26901, Note_off_c, 1, 65, 0
3, 26904, Note_on_c, 1, 69, 127
3, 26925, Note_off_c, 1, 69, 0
3, 26928, Note_on_c, 1, 67, 127
3, 26949, Note_off_c, 1, 67, 0
3, 26952, Note_on_c, 1, 65, 127
3, 26973, Note_off_c, 1, 65, 0
3, 26976, Note_on_c, 1, 67, 127
3, 26997, Note_off_c, 1, 67, 0
3, 27000, Note_on_c, 1, 65, 127
3, 27021, Note_off_c, 1, 65, 0
3, 27024, Note_on_c, 1, 67, 127
3, 27045, Note_off_c, 1, 67, 0
3, 27048, Note_on_c, 1, 65, 127
3, 27069, Note_off_c, 1, 65, 0
3, 27072, Note_on_c, 1, 67, 127
3, 27093, Note_off_c, 1, 67, 0
3, 27096, Note_on_c, 1, 69, 127
3, 27117, Note_off_c, 1, 69, 0
3, 27120, Note_on_c, 1, 65, 127
3, 27141, Note_off_c, 1, 65, 0
3, 27144, Note_on_c, 1, 67, 127
3, 27165, Note_off_c, 1, 67, 0
3, 27168, Note_on_c, 1, 69, 127
3, 27210, Note_off_c, 1, 69, 0
3, 27216, Note_on_c, 1, 53, 127
3, 27258, Note_off_c, 1, 53, 0
3, 27264, Note_on_c, 1, 57, 127
3, 27306, Note_off_c, 1, 57, 0
3, 27312, Note_on_c, 1, 60, 127
3, 27354, Note_off_c, 1, 60, 0
3, 27360, Note_on_c, 1, 57, 127
3, 27402, Note_off_c, 1, 57, 0
3, 27408, Note_on_c, 1, 53, 127
3, 27450, Note_off_c, 1, 53, 0
3, 27456, Note_on_c, 1, 57, 127
3, 27498, Note_off_c, 1, 57, 0
3, 27504, Note_on_c, 1, 60, 127
3, 27546, Note_off_c, 1, 60, 0
3, 27552, Note_on_c, 1, 65, 127
3, 27594, Note_off_c, 1, 65, 0
3, 27600, Note_on_c, 1, 60, 127
3, 27642, Note_off_c, 1, 60, 0
3, 27648, Note_on_c, 1, 57, 127
3, 27669, Note_off_c, 1, 57, 0
3, 27672, Note_on_c, 1, 53, 127
3, 27693, Note_off_c, 1, 53, 0
3, 27696, Note_on_c, 1, 57, 127
3, 27738, Note_off_c, 1, 57, 0
3, 27744, Note_on_c, 1, 60, 127
3, 27772, Note_off_c, 1, 60, 0
3, 27775, Note_on_c, 1, 60, 127
3, 27804, Note_off_c, 1, 60, 0
3, 27807, Note_on_c, 1, 60, 127
3, 27835, Note_off_c, 1, 60, 0
3, 27840, Note_on_c, 1, 60, 127
3, 27868, Note_off_c, 1, 60, 0
3, 27871, Note_on_c, 1, 60, 127
3, 27900, Note_off_c, 1, 60, 0
3, 27903, Note_on_c, 1, 60, 127
3, 27931, Note_off_c, 1, 60, 0
3, 27936, Note_on_c, 1, 60, 127
3, 27999, Note_off_c, 1, 60, 0
3, 28008, Note_on_c, 1, 65, 127
3, 28029, Note_off_c, 1, 65, 0
3, 30672, Note_on_c, 1, 53, 127
3, 30714, Note_off_c, 1, 53, 0
3, 30720, Note_on_c, 1, 53, 127
3, 30748, Note_off_c, 1, 53, 0
3, 30751, Note_on_c, 1, 53, 127
3, 30780, Note_off_c, 1, 53, 0
3, 30783, Note_on_c, 1, 53, 127
3, 30811, Note_off_c, 1, 53, 0
3, 30816, Note_on_c, 1, 53, 127
3, 30844, Note_off_c, 1, 53, 0
3, 30847, Note_on_c, 1, 48, 127
3, 30876, Note_off_c, 1, 48, 0
3, 30879, Note_on_c, 1, 53, 127
3, 30907, Note_off_c, 1, 53, 0
3, 30912, Note_on_c, 1, 53, 127
3, 30940, Note_off_c, 1, 53, 0
3, 30943, Note_on_c, 1, 53, 127
3, 30972, Note_off_c, 1, 53, 0
3, 30975, Note_on_c, 1, 53, 127
3, 31003, Note_off_c, 1, 53, 0
3, 31008, Note_on_c, 1, 53, 127
3, 31071, Note_off_c, 1, 53, 0
3, 31080, Note_on_c, 1, 60, 127
3, 31101, Note_off_c, 1, 60, 0
3, 31536, Note_on_c, 1, 60, 127
3, 31578, Note_off_c, 1, 60, 0
3, 31584, Note_on_c, 1, 65, 127
3, 31612, Note_off_c, 1, 65, 0
3, 31615, Note_on_c, 1, 65, 127
3, 31644, Note_off_c, 1, 65, 0
3, 31647, Note_on_c, 1, 65, 127
3, 31675, Note_off_c, 1, 65, 0
3, 31680, Note_on_c, 1, 65, 127
3, 31708, Note_off_c, 1, 65, 0
3, 31711, Note_on_c, 1, 60, 127
3, 31740, Note_off_c, 1, 60, 0
3, 31743, Note_on_c, 1, 65, 127
3, 31771, Note_off_c, 1, 65, 0
3, 31776, Note_on_c, 1, 60, 127
3, 31804, Note_off_c, 1, 60, 0
3, 31807, Note_on_c, 1, 57, 127
3, 31836, Note_off_c, 1, 57, 0
3, 31839, Note_on_c, 1, 60, 127
3, 31867, Note_off_c, 1, 60, 0
3, 31872, Note_on_c, 1, 57, 127
3, 31900, Note_off_c, 1, 57, 0
3, 31903, Note_on_c, 1, 53, 127
3, 31932, Note_off_c, 1, 53, 0
3, 31935, Note_on_c, 1, 57, 127
3, 31963, Note_off_c, 1, 57, 0
3, 31968, Note_on_c, 1, 53, 127
3, 31996, Note_off_c, 1, 53, 0
3, 31999, Note_on_c, 1, 53, 127
3, 32028, Note_off_c, 1, 53, 0
3, 32031, Note_on_c, 1, 53, 127
3, 32059, Note_off_c, 1, 53, 0
3, 32064, Note_on_c, 1, 53, 127
3, 32092, Note_off_c, 1, 53, 0
3, 32095, Note_on_c, 1, 53, 127
3, 32124, Note_off_c, 1, 53, 0
3, 32127, Note_on_c, 1, 53, 127
3, 32155, Note_off_c, 1, 53, 0
3, 32160, Note_on_c, 1, 53, 127
3, 32340, Note_off_c, 1, 53, 0
3, 32340, End_track
4, 0, Start_track
4, 0, Title_t, "Oboe I (Sequenced by)"
4, 0, Control_c, 2, 0, 0
4, 0, Program_c, 2, 68
4, 0, Time_signature, 4, 2, 96, 8
4, 0, Tempo, 681818
4, 144, Note_on_c, 2, 77, 62
4, 165, Note_off_c, 2, 77, 0
4, 168, Note_on_c, 2, 76, 62
4, 189, Note_off_c, 2, 76, 0
4, 192, Note_on_c, 2, 77, 62
4, 213, Note_off_c, 2, 77, 0
4, 216, Note_on_c, 2, 76, 62
4, 237, Note_off_c, 2, 76, 0
4, 240, Note_on_c, 2, 77, 62
4, 261, Note_off_c, 2, 77, 0
4, 264, Note_on_c, 2, 76, 62
4, 285, Note_off_c, 2, 76, 0
4, 288, Note_on_c, 2, 77, 62
4, 330, Note_off_c, 2, 77, 0
4, 336, Note_on_c, 2, 72, 62
4, 378, Note_off_c, 2, 72, 0
4, 384, Note_on_c, 2, 74, 62
4, 426, Note_off_c, 2, 74, 0
4, 432, Note_on_c, 2, 72, 62
4, 453, Note_off_c, 2, 72, 0
4, 456, Note_on_c, 2, 70, 62
4, 477, Note_off_c, 2, 70, 0
4, 480, Note_on_c, 2, 69, 62
4, 501, Note_off_c, 2, 69, 0
4, 504, Note_on_c, 2, 67, 62
4, 525, Note_off_c, 2, 67, 0
4, 528, Note_on_c, 2, 65, 62
4, 549, Note_off_c, 2, 65, 0
4, 552, Note_on_c, 2, 67, 62
4, 573, Note_off_c, 2, 67, 0
4, 576, Note_on_c, 2, 69, 62
4, 597, Note_off_c, 2, 69, 0
4, 600, Note_on_c, 2, 71, 62
4, 621, Note_off_c, 2, 71, 0
4, 624, Note_on_c, 2, 69, 62
4, 645, Note_off_c, 2, 69, 0
4, 648, Note_on_c, 2, 71, 62
4, 669, Note_off_c, 2, 71, 0
4, 672, Note_on_c, 2, 72, 62
4, 693, Note_off_c, 2, 72, 0
4, 696, Note_on_c, 2, 74, 62
4, 717, Note_off_c, 2, 74, 0
4, 720, Note_on_c, 2, 76, 62
4, 741, Note_off_c, 2, 76, 0
4, 744, Note_on_c, 2, 72, 62
4, 765, Note_off_c, 2, 72, 0
4, 768, Note_on_c, 2, 77, 62
4, 789, Note_off_c, 2, 77, 0
4, 792, Note_on_c, 2, 76, 62
4, 813, Note_off_c, 2, 76, 0
4, 816, Note_on_c, 2, 77, 62
4, 837, Note_off_c, 2, 77, 0
4, 840, Note_on_c, 2, 79, 62
4, 861, Note_off_c, 2, 79, 0
4, 864, Note_on_c, 2, 76, 62
4, 885, Note_off_c, 2, 76, 0
4, 888, Note_on_c, 2, 77, 62
4, 909, Note_off_c, 2, 77, 0
4, 912, Note_on_c, 2, 79, 62
4, 933, Note_off_c, 2, 79, 0
4, 936, Note_on_c, 2, 77, 62
4, 957, Note_off_c, 2, 77, 0
4, 960, Note_on_c, 2, 79, 62
4, 981, Note_off_c, 2, 79, 0
4, 984, Note_on_c, 2, 77, 62
4, 1005, Note_off_c, 2, 77, 0
4, 1008, Note_on_c, 2, 79, 62
4, 1029, Note_off_c, 2, 79, 0
4, 1032, Note_on_c, 2, 77, 62
4, 1053, Note_off_c, 2, 77, 0
4, 1056, Note_on_c, 2, 79, 62
4, 1077, Note_off_c, 2, 79, 0
4, 1080, Note_on_c, 2, 72, 62
4, 1101, Note_off_c, 2, 72, 0
4, 1104, Note_on_c, 2, 77, 62
4, 1125, Note_off_c, 2, 77, 0
4, 1128, Note_on_c, 2, 76, 62
4, 1149, Note_off_c, 2, 76, 0
4, 1152, Note_on_c, 2, 77, 62
4, 1173, Note_off_c, 2, 77, 0
4, 1176, Note_on_c, 2, 76, 62
4, 1197, Note_off_c, 2, 76, 0
4, 1200, Note_on_c, 2, 77, 62
4, 1221, Note_off_c, 2, 77, 0
4, 1224, Note_on_c, 2, 76, 62
4, 1245, Note_off_c, 2, 76, 0
4, 1248, Note_on_c, 2, 77, 62
4, 1269, Note_off_c, 2, 77, 0
4, 1272, Note_on_c, 2, 71, 62
4, 1293, Note_off_c, 2, 71, 0
4, 1296, Note_on_c, 2, 76, 62
4, 1317, Note_off_c, 2, 76, 0
4, 1320, Note_on_c, 2, 74, 62
4, 1341, Note_off_c, 2, 74, 0
4, 1344, Note_on_c, 2, 76, 62
4, 1365, Note_off_c, 2, 76, 0
4, 1368, Note_on_c, 2, 74, 62
4, 1389, Note_off_c, 2, 74, 0
4, 1392, Note_on_c, 2, 76, 62
4, 1413, Note_off_c, 2, 76, 0
4, 1416, Note_on_c, 2, 74, 62
4, 1437, Note_off_c, 2, 74, 0
4, 1440, Note_on_c, 2, 76, 62
4, 1461, Note_off_c, 2, 76, 0
4, 1464, Note_on_c, 2, 69, 62
4, 1485, Note_off_c, 2, 69, 0
4, 1488, Note_on_c, 2, 81, 62
4, 1509, Note_off_c, 2, 81, 0
4, 1512, Note_on_c, 2, 79, 62
4, 1533, Note_off_c, 2, 79, 0
4, 1536, Note_on_c, 2, 77, 62
4, 1557, Note_off_c, 2, 77, 0
4, 1560, Note_on_c, 2, 76, 62
4, 1581, Note_off_c, 2, 76, 0
4, 1584, Note_on_c, 2, 74, 62
4, 1605, Note_off_c, 2, 74, 0
4, 1608, Note_on_c, 2, 72, 62
4, 1629, Note_off_c, 2, 72, 0
4, 1632, Note_on_c, 2, 71, 62
4, 1653, Note_off_c, 2, 71, 0
4, 1656, Note_on_c, 2, 69, 62
4, 1677, Note_off_c, 2, 69, 0
4, 1680, Note_on_c, 2, 67, 62
4, 1701, Note_off_c, 2, 67, 0
4, 1704, Note_on_c, 2, 69, 62
4, 1725, Note_off_c, 2, 69, 0
4, 1728, Note_on_c, 2, 71, 62
4, 1749, Note_off_c, 2, 71, 0
4, 1752, Note_on_c, 2, 72, 62
4, 1773, Note_off_c, 2, 72, 0
4, 1776, Note_on_c, 2, 74, 62
4, 1797, Note_off_c, 2, 74, 0
4, 1800, Note_on_c, 2, 76, 62
4, 1821, Note_off_c, 2, 76, 0
4, 1824, Note_on_c, 2, 77, 62
4, 1887, Note_off_c, 2, 77, 0
4, 1896, Note_on_c, 2, 79, 62
4, 1917, Note_off_c, 2, 79, 0
4, 1920, Note_on_c, 2, 74, 62
4, 1983, Note_off_c, 2, 74, 0
4, 1992, Note_on_c, 2, 72, 62
4, 2013, Note_off_c, 2, 72, 0
4, 2016, Note_on_c, 2, 72, 62
4, 2058, Note_off_c, 2, 72, 0
4, 2064, Note_on_c, 2, 67, 62
4, 2106, Note_off_c, 2, 67, 0
4, 2112, Note_on_c, 2, 69, 62
4, 2154, Note_off_c, 2, 69, 0
4, 2160, Note_on_c, 2, 70, 62
4, 2202, Note_off_c, 2, 70, 0
4, 2208, Note_on_c, 2, 72, 62
4, 2250, Note_off_c, 2, 72, 0
4, 2256, Note_on_c, 2, 74, 62
4, 2277, Note_off_c, 2, 74, 0
4, 2280, Note_on_c, 2, 75, 62
4, 2301, Note_off_c, 2, 75, 0
4, 2304, Note_on_c, 2, 74, 62
4, 2325, Note_off_c, 2, 74, 0
4, 2328, Note_on_c, 2, 72, 62
4, 2349, Note_off_c, 2, 72, 0
4, 2352, Note_on_c, 2, 70, 62
4, 2373, Note_off_c, 2, 70, 0
4, 2376, Note_on_c, 2, 69, 62
4, 2397, Note_off_c, 2, 69, 0
4, 2400, Note_on_c, 2, 70, 62
4, 2442, Note_off_c, 2, 70, 0
4, 2640, Note_on_c, 2, 81, 62
4, 2661, Note_off_c, 2, 81, 0
4, 2664, Note_on_c, 2, 82, 62
4, 2685, Note_off_c, 2, 82, 0
4, 2688, Note_on_c, 2, 81, 62
4, 2709, Note_off_c, 2, 81, 0
4, 2712, Note_on_c, 2, 79, 62
4, 2733, Note_off_c, 2, 79, 0
4, 2736, Note_on_c, 2, 77, 62
4, 2757, Note_off_c, 2, 77, 0
4, 2760, Note_on_c, 2, 76, 62
4, 2781, Note_off_c, 2, 76, 0
4, 2784, Note_on_c, 2, 77, 62
4, 2805, Note_off_c, 2, 77, 0
4, 2808, Note_on_c, 2, 74, 62
4, 2829, Note_off_c, 2, 74, 0
4, 2832, Note_on_c, 2, 82, 62
4, 2853, Note_off_c, 2, 82, 0
4, 2856, Note_on_c, 2, 84, 62
4, 2877, Note_off_c, 2, 84, 0
4, 2880, Note_on_c, 2, 82, 62
4, 2901, Note_off_c, 2, 82, 0
4, 2904, Note_on_c, 2, 81, 62
4, 2925, Note_off_c, 2, 81, 0
4, 2928, Note_on_c, 2, 79, 62
4, 2949, Note_off_c, 2, 79, 0
4, 2952, Note_on_c, 2, 77, 62
4, 2973, Note_off_c, 2, 77, 0
4, 2976, Note_on_c, 2, 76, 62
4, 3018, Note_off_c, 2, 76, 0
4, 3024, Note_on_c, 2, 79, 62
4, 3045, Note_off_c, 2, 79, 0
4, 3048, Note_on_c, 2, 77, 62
4, 3069, Note_off_c, 2, 77, 0
4, 3072, Note_on_c, 2, 79, 62
4, 3093, Note_off_c, 2, 79, 0
4, 3096, Note_on_c, 2, 77, 62
4, 3117, Note_off_c, 2, 77, 0
4, 3120, Note_on_c, 2, 79, 62
4, 3141, Note_off_c, 2, 79, 0
4, 3144, Note_on_c, 2, 77, 62
4, 3165, Note_off_c, 2, 77, 0
4, 3168, Note_on_c, 2, 79, 62
4, 3210, Note_off_c, 2, 79, 0
4, 3216, Note_on_c, 2, 72, 62
4, 3237, Note_off_c, 2, 72, 0
4, 3240, Note_on_c, 2, 74, 62
4, 3261, Note_off_c, 2, 74, 0
4, 3264, Note_on_c, 2, 72, 62
4, 3285, Note_off_c, 2, 72, 0
4, 3288, Note_on_c, 2, 70, 62
4, 3309, Note_off_c, 2, 70, 0
4, 3312, Note_on_c, 2, 69, 62
4, 3333, Note_off_c, 2, 69, 0
4, 3336, Note_on_c, 2, 67, 62
4, 3357, Note_off_c, 2, 67, 0
4, 3360, Note_on_c, 2, 69, 62
4, 3402, Note_off_c, 2, 69, 0
4, 3408, Note_on_c, 2, 84, 62
4, 3429, Note_off_c, 2, 84, 0
4, 3432, Note_on_c, 2, 82, 62
4, 3453, Note_off_c, 2, 82, 0
4, 3456, Note_on_c, 2, 84, 62
4, 3477, Note_off_c, 2, 84, 0
4, 3480, Note_on_c, 2, 82, 62
4, 3501, Note_off_c, 2, 82, 0
4, 3504, Note_on_c, 2, 84, 62
4, 3525, Note_off_c, 2, 84, 0
4, 3528, Note_on_c, 2, 82, 62
4, 3549, Note_off_c, 2, 82, 0
4, 3552, Note_on_c, 2, 84, 62
4, 3594, Note_off_c, 2, 84, 0
4, 3600, Note_on_c, 2, 77, 62
4, 3621, Note_off_c, 2, 77, 0
4, 3624, Note_on_c, 2, 79, 62
4, 3645, Note_off_c, 2, 79, 0
4, 3648, Note_on_c, 2, 77, 62
4, 3669, Note_off_c, 2, 77, 0
4, 3672, Note_on_c, 2, 75, 62
4, 3693, Note_off_c, 2, 75, 0
4, 3696, Note_on_c, 2, 74, 62
4, 3717, Note_off_c, 2, 74, 0
4, 3720, Note_on_c, 2, 72, 62
4, 3741, Note_off_c, 2, 72, 0
4, 3744, Note_on_c, 2, 74, 62
4, 3786, Note_off_c, 2, 74, 0
4, 3792, Note_on_c, 2, 79, 62
4, 3813, Note_off_c, 2, 79, 0
4, 3816, Note_on_c, 2, 81, 62
4, 3837, Note_off_c, 2, 81, 0
4, 3840, Note_on_c, 2, 79, 62
4, 3861, Note_off_c, 2, 79, 0
4, 3864, Note_on_c, 2, 77, 62
4, 3885, Note_off_c, 2, 77, 0
4, 3888, Note_on_c, 2, 76, 62
4, 3909, Note_off_c, 2, 76, 0
4, 3912, Note_on_c, 2, 74, 62
4, 3933, Note_off_c, 2, 74, 0
4, 3936, Note_on_c, 2, 72, 62
4, 3999, Note_off_c, 2, 72, 0
4, 4008, Note_on_c, 2, 74, 62
4, 4029, Note_off_c, 2, 74, 0
4, 4032, Note_on_c, 2, 76, 62
4, 4053, Note_off_c, 2, 76, 0
4, 4056, Note_on_c, 2, 77, 62
4, 4077, Note_off_c, 2, 77, 0
4, 4080, Note_on_c, 2, 79, 62
4, 4101, Note_off_c, 2, 79, 0
4, 4104, Note_on_c, 2, 81, 62
4, 4125, Note_off_c, 2, 81, 0
4, 4128, Note_on_c, 2, 82, 62
4, 4149, Note_off_c, 2, 82, 0
4, 4152, Note_on_c, 2, 84, 62
4, 4162, Note_off_c, 2, 84, 0
4, 4164, Note_on_c, 2, 82, 62
4, 4174, Note_off_c, 2, 82, 0
4, 4176, Note_on_c, 2, 81, 62
4, 4186, Note_off_c, 2, 81, 0
4, 4188, Note_on_c, 2, 82, 62
4, 4198, Note_off_c, 2, 82, 0
4, 4200, Note_on_c, 2, 84, 62
4, 4221, Note_off_c, 2, 84, 0
4, 4224, Note_on_c, 2, 79, 62
4, 4287, Note_off_c, 2, 79, 0
4, 4296, Note_on_c, 2, 77, 62
4, 4317, Note_off_c, 2, 77, 0
4, 4320, Note_on_c, 2, 77, 62
4, 4341, Note_off_c, 2, 77, 0
4, 4344, Note_on_c, 2, 76, 62
4, 4365, Note_off_c, 2, 76, 0
4, 4368, Note_on_c, 2, 77, 62
4, 4389, Note_off_c, 2, 77, 0
4, 4392, Note_on_c, 2, 76, 62
4, 4413, Note_off_c, 2, 76, 0
4, 4416, Note_on_c, 2, 74, 62
4, 4437, Note_off_c, 2, 74, 0
4, 4440, Note_on_c, 2, 72, 62
4, 4461, Note_off_c, 2, 72, 0
4, 4464, Note_on_c, 2, 74, 62
4, 4485, Note_off_c, 2, 74, 0
4, 4488, Note_on_c, 2, 72, 62
4, 4509, Note_off_c, 2, 72, 0
4, 4512, Note_on_c, 2, 70, 62
4, 4533, Note_off_c, 2, 70, 0
4, 4536, Note_on_c, 2, 72, 62
4, 4546, Note_off_c, 2, 72, 0
4, 4548, Note_on_c, 2, 70, 62
4, 4558, Note_off_c, 2, 70, 0
4, 4560, Note_on_c, 2, 69, 62
4, 4570, Note_off_c, 2, 69, 0
4, 4572, Note_on_c, 2, 70, 62
4, 4582, Note_off_c, 2, 70, 0
4, 4584, Note_on_c, 2, 72, 62
4, 4605, Note_off_c, 2, 72, 0
4, 4608, Note_on_c, 2, 67, 62
4, 4671, Note_off_c, 2, 67, 0
4, 4680, Note_on_c, 2, 65, 62
4, 4701, Note_off_c, 2, 65, 0
4, 4704, Note_on_c, 2, 65, 62
4, 4746, Note_off_c, 2, 65, 0
4, 4752, Note_on_c, 2, 65, 62
4, 4794, Note_off_c, 2, 65, 0
4, 4800, Note_on_c, 2, 69, 62
4, 4842, Note_off_c, 2, 69, 0
4, 4848, Note_on_c, 2, 72, 62
4, 4890, Note_off_c, 2, 72, 0
4, 4896, Note_on_c, 2, 77, 62
4, 4938, Note_off_c, 2, 77, 0
4, 4944, Note_on_c, 2, 72, 62
4, 4986, Note_off_c, 2, 72, 0
4, 4992, Note_on_c, 2, 74, 62
4, 5034, Note_off_c, 2, 74, 0
4, 5040, Note_on_c, 2, 72, 62
4, 5061, Note_off_c, 2, 72, 0
4, 5064, Note_on_c, 2, 70, 62
4, 5085, Note_off_c, 2, 70, 0
4, 5088, Note_on_c, 2, 69, 62
4, 5130, Note_off_c, 2, 69, 0
4, 5136, Note_on_c, 2, 77, 62
4, 5157, Note_off_c, 2, 77, 0
4, 5160, Note_on_c, 2, 76, 62
4, 5181, Note_off_c, 2, 76, 0
4, 5184, Note_on_c, 2, 77, 62
4, 5205, Note_off_c, 2, 77, 0
4, 5208, Note_on_c, 2, 76, 62
4, 5229, Note_off_c, 2, 76, 0
4, 5232, Note_on_c, 2, 77, 62
4, 5253, Note_off_c, 2, 77, 0
4, 5256, Note_on_c, 2, 76, 62
4, 5277, Note_off_c, 2, 76, 0
4, 5280, Note_on_c, 2, 77, 62
4, 5364, Note_off_c, 2, 77, 0
4, 5520, Note_on_c, 2, 72, 62
4, 5562, Note_off_c, 2, 72, 0
4, 5568, Note_on_c, 2, 76, 62
4, 5610, Note_off_c, 2, 76, 0
4, 5616, Note_on_c, 2, 79, 62
4, 5658, Note_off_c, 2, 79, 0
4, 5664, Note_on_c, 2, 84, 62
4, 5706, Note_off_c, 2, 84, 0
4, 5712, Note_on_c, 2, 79, 62
4, 5754, Note_off_c, 2, 79, 0
4, 5760, Note_on_c, 2, 81, 62
4, 5802, Note_off_c, 2, 81, 0
4, 5808, Note_on_c, 2, 79, 62
4, 5829, Note_off_c, 2, 79, 0
4, 5832, Note_on_c, 2, 77, 62
4, 5853, Note_off_c, 2, 77, 0
4, 5856, Note_on_c, 2, 76, 62
4, 5940, Note_off_c, 2, 76, 0
4, 6000, Note_on_c, 2, 76, 62
4, 6042, Note_off_c, 2, 76, 0
4, 6048, Note_on_c, 2, 72, 62
4, 6132, Note_off_c, 2, 72, 0
4, 6192, Note_on_c, 2, 77, 62
4, 6234, Note_off_c, 2, 77, 0
4, 6240, Note_on_c, 2, 74, 62
4, 6324, Note_off_c, 2, 74, 0
4, 6384, Note_on_c, 2, 79, 62
4, 6426, Note_off_c, 2, 79, 0
4, 6432, Note_on_c, 2, 76, 62
4, 6495, Note_off_c, 2, 76, 0
4, 6504, Note_on_c, 2, 77, 62
4, 6525, Note_off_c, 2, 77, 0
4, 6528, Note_on_c, 2, 74, 62
4, 6591, Note_off_c, 2, 74, 0
4, 6600, Note_on_c, 2, 72, 62
4, 6621, Note_off_c, 2, 72, 0
4, 6624, Note_on_c, 2, 72, 62
4, 6708, Note_off_c, 2, 72, 0
4, 7056, Note_on_c, 2, 74, 62
4, 7098, Note_off_c, 2, 74, 0
4, 7104, Note_on_c, 2, 76, 62
4, 7146, Note_off_c, 2, 76, 0
4, 7152, Note_on_c, 2, 77, 62
4, 7194, Note_off_c, 2, 77, 0
4, 7200, Note_on_c, 2, 79, 62
4, 7242, Note_off_c, 2, 79, 0
4, 7248, Note_on_c, 2, 81, 62
4, 7269, Note_off_c, 2, 81, 0
4, 7272, Note_on_c, 2, 82, 62
4, 7293, Note_off_c, 2, 82, 0
4, 7296, Note_on_c, 2, 81, 62
4, 7317, Note_off_c, 2, 81, 0
4, 7320, Note_on_c, 2, 79, 62
4, 7341, Note_off_c, 2, 79, 0
4, 7344, Note_on_c, 2, 77, 62
4, 7365, Note_off_c, 2, 77, 0
4, 7368, Note_on_c, 2, 76, 62
4, 7389, Note_off_c, 2, 76, 0
4, 7392, Note_on_c, 2, 77, 62
4, 7476, Note_off_c, 2, 77, 0
4, 7800, Note_on_c, 2, 72, 62
4, 7821, Note_off_c, 2, 72, 0
4, 7824, Note_on_c, 2, 77, 62
4, 7845, Note_off_c, 2, 77, 0
4, 7848, Note_on_c, 2, 75, 62
4, 7869, Note_off_c, 2, 75, 0
4, 7872, Note_on_c, 2, 77, 62
4, 7893, Note_off_c, 2, 77, 0
4, 7896, Note_on_c, 2, 75, 62
4, 7917, Note_off_c, 2, 75, 0
4, 7920, Note_on_c, 2, 77, 62
4, 7941, Note_off_c, 2, 77, 0
4, 7944, Note_on_c, 2, 75, 62
4, 7965, Note_off_c, 2, 75, 0
4, 7968, Note_on_c, 2, 77, 62
4, 7989, Note_off_c, 2, 77, 0
4, 7992, Note_on_c, 2, 70, 62
4, 8013, Note_off_c, 2, 70, 0
4, 8016, Note_on_c, 2, 75, 62
4, 8037, Note_off_c, 2, 75, 0
4, 8040, Note_on_c, 2, 74, 62
4, 8061, Note_off_c, 2, 74, 0
4, 8064, Note_on_c, 2, 75, 62
4, 8085, Note_off_c, 2, 75, 0
4, 8088, Note_on_c, 2, 74, 62
4, 8109, Note_off_c, 2, 74, 0
4, 8112, Note_on_c, 2, 75, 62
4, 8133, Note_off_c, 2, 75, 0
4, 8136, Note_on_c, 2, 74, 62
4, 8157, Note_off_c, 2, 74, 0
4, 8160, Note_on_c, 2, 75, 62
4, 8181, Note_off_c, 2, 75, 0
4, 8184, Note_on_c, 2, 69, 62
4, 8205, Note_off_c, 2, 69, 0
4, 8208, Note_on_c, 2, 74, 62
4, 8229, Note_off_c, 2, 74, 0
4, 8232, Note_on_c, 2, 72, 62
4, 8253, Note_off_c, 2, 72, 0
4, 8256, Note_on_c, 2, 74, 62
4, 8277, Note_off_c, 2, 74, 0
4, 8280, Note_on_c, 2, 72, 62
4, 8301, Note_off_c, 2, 72, 0
4, 8304, Note_on_c, 2, 74, 62
4, 8325, Note_off_c, 2, 74, 0
4, 8328, Note_on_c, 2, 72, 62
4, 8349, Note_off_c, 2, 72, 0
4, 8352, Note_on_c, 2, 74, 62
4, 8373, Note_off_c, 2, 74, 0
4, 8376, Note_on_c, 2, 67, 62
4, 8397, Note_off_c, 2, 67, 0
4, 8400, Note_on_c, 2, 79, 62
4, 8421, Note_off_c, 2, 79, 0
4, 8424, Note_on_c, 2, 77, 62
4, 8445, Note_off_c, 2, 77, 0
4, 8448, Note_on_c, 2, 75, 62
4, 8469, Note_off_c, 2, 75, 0
4, 8472, Note_on_c, 2, 74, 62
4, 8493, Note_off_c, 2, 74, 0
4, 8496, Note_on_c, 2, 72, 62
4, 8517, Note_off_c, 2, 72, 0
4, 8520, Note_on_c, 2, 70, 62
4, 8541, Note_off_c, 2, 70, 0
4, 8544, Note_on_c, 2, 69, 62
4, 8565, Note_off_c, 2, 69, 0
4, 8568, Note_on_c, 2, 67, 62
4, 8589, Note_off_c, 2, 67, 0
4, 8592, Note_on_c, 2, 65, 62
4, 8613, Note_off_c, 2, 65, 0
4, 8616, Note_on_c, 2, 67, 62
4, 8637, Note_off_c, 2, 67, 0
4, 8640, Note_on_c, 2, 69, 62
4, 8661, Note_off_c, 2, 69, 0
4, 8664, Note_on_c, 2, 70, 62
4, 8685, Note_off_c, 2, 70, 0
4, 8688, Note_on_c, 2, 72, 62
4, 8709, Note_off_c, 2, 72, 0
4, 8712, Note_on_c, 2, 74, 62
4, 8733, Note_off_c, 2, 74, 0
4, 8736, Note_on_c, 2, 75, 62
4, 8799, Note_off_c, 2, 75, 0
4, 8808, Note_on_c, 2, 77, 62
4, 8829, Note_off_c, 2, 77, 0
4, 8832, Note_on_c, 2, 72, 62
4, 8895, Note_off_c, 2, 72, 0
4, 8904, Note_on_c, 2, 70, 62
4, 8925, Note_off_c, 2, 70, 0
4, 8928, Note_on_c, 2, 70, 62
4, 9012, Note_off_c, 2, 70, 0
4, 9360, Note_on_c, 2, 79, 62
4, 9381, Note_off_c, 2, 79, 0
4, 9384, Note_on_c, 2, 77, 62
4, 9405, Note_off_c, 2, 77, 0
4, 9408, Note_on_c, 2, 79, 62
4, 9429, Note_off_c, 2, 79, 0
4, 9432, Note_on_c, 2, 81, 62
4, 9453, Note_off_c, 2, 81, 0
4, 9456, Note_on_c, 2, 79, 62
4, 9477, Note_off_c, 2, 79, 0
4, 9480, Note_on_c, 2, 77, 62
4, 9501, Note_off_c, 2, 77, 0
4, 9504, Note_on_c, 2, 76, 62
4, 9546, Note_off_c, 2, 76, 0
4, 9552, Note_on_c, 2, 77, 62
4, 9573, Note_off_c, 2, 77, 0
4, 9576, Note_on_c, 2, 76, 62
4, 9597, Note_off_c, 2, 76, 0
4, 9600, Note_on_c, 2, 77, 62
4, 9621, Note_off_c, 2, 77, 0
4, 9624, Note_on_c, 2, 79, 62
4, 9645, Note_off_c, 2, 79, 0
4, 9648, Note_on_c, 2, 77, 62
4, 9669, Note_off_c, 2, 77, 0
4, 9672, Note_on_c, 2, 76, 62
4, 9693, Note_off_c, 2, 76, 0
4, 9696, Note_on_c, 2, 74, 62
4, 9780, Note_off_c, 2, 74, 0
4, 10128, Note_on_c, 2, 74, 62
4, 10149, Note_off_c, 2, 74, 0
4, 10152, Note_on_c, 2, 73, 62
4, 10173, Note_off_c, 2, 73, 0
4, 10176, Note_on_c, 2, 74, 62
4, 10197, Note_off_c, 2, 74, 0
4, 10200, Note_on_c, 2, 73, 62
4, 10221, Note_off_c, 2, 73, 0
4, 10224, Note_on_c, 2, 74, 62
4, 10245, Note_off_c, 2, 74, 0
4, 10248, Note_on_c, 2, 73, 62
4, 10269, Note_off_c, 2, 73, 0
4, 10272, Note_on_c, 2, 74, 62
4, 10314, Note_off_c, 2, 74, 0
4, 10320, Note_on_c, 2, 69, 62
4, 10362, Note_off_c, 2, 69, 0
4, 10368, Note_on_c, 2, 70, 62
4, 10410, Note_off_c, 2, 70, 0
4, 10416, Note_on_c, 2, 69, 62
4, 10437, Note_off_c, 2, 69, 0
4, 10440, Note_on_c, 2, 67, 62
4, 10461, Note_off_c, 2, 67, 0
4, 10464, Note_on_c, 2, 65, 62
4, 10485, Note_off_c, 2, 65, 0
4, 10488, Note_on_c, 2, 64, 62
4, 10509, Note_off_c, 2, 64, 0
4, 10512, Note_on_c, 2, 62, 62
4, 10533, Note_off_c, 2, 62, 0
4, 10536, Note_on_c, 2, 64, 62
4, 10557, Note_off_c, 2, 64, 0
4, 10560, Note_on_c, 2, 65, 62
4, 10581, Note_off_c, 2, 65, 0
4, 10584, Note_on_c, 2, 67, 62
4, 10605, Note_off_c, 2, 67, 0
4, 10608, Note_on_c, 2, 65, 62
4, 10629, Note_off_c, 2, 65, 0
4, 10632, Note_on_c, 2, 67, 62
4, 10653, Note_off_c, 2, 67, 0
4, 10656, Note_on_c, 2, 69, 62
4, 10677, Note_off_c, 2, 69, 0
4, 10680, Note_on_c, 2, 70, 62
4, 10701, Note_off_c, 2, 70, 0
4, 10704, Note_on_c, 2, 72, 62
4, 10725, Note_off_c, 2, 72, 0
4, 10728, Note_on_c, 2, 69, 62
4, 10749, Note_off_c, 2, 69, 0
4, 10752, Note_on_c, 2, 74, 62
4, 10773, Note_off_c, 2, 74, 0
4, 10776, Note_on_c, 2, 77, 62
4, 10797, Note_off_c, 2, 77, 0
4, 10800, Note_on_c, 2, 76, 62
4, 10821, Note_off_c, 2, 76, 0
4, 10824, Note_on_c, 2, 74, 62
4, 10845, Note_off_c, 2, 74, 0
4, 10848, Note_on_c, 2, 73, 62
4, 10890, Note_off_c, 2, 73, 0
4, 10896, Note_on_c, 2, 76, 62
4, 10917, Note_off_c, 2, 76, 0
4, 10920, Note_on_c, 2, 74, 62
4, 10941, Note_off_c, 2, 74, 0
4, 10944, Note_on_c, 2, 76, 62
4, 10965, Note_off_c, 2, 76, 0
4, 10968, Note_on_c, 2, 74, 62
4, 10989, Note_off_c, 2, 74, 0
4, 10992, Note_on_c, 2, 76, 62
4, 11013, Note_off_c, 2, 76, 0
4, 11016, Note_on_c, 2, 74, 62
4, 11037, Note_off_c, 2, 74, 0
4, 11040, Note_on_c, 2, 76, 62
4, 11082, Note_off_c, 2, 76, 0
4, 11088, Note_on_c, 2, 69, 62
4, 11109, Note_off_c, 2, 69, 0
4, 11112, Note_on_c, 2, 70, 62
4, 11133, Note_off_c, 2, 70, 0
4, 11136, Note_on_c, 2, 69, 62
4, 11157, Note_off_c, 2, 69, 0
4, 11160, Note_on_c, 2, 67, 62
4, 11181, Note_off_c, 2, 67, 0
4, 11184, Note_on_c, 2, 65, 62
4, 11205, Note_off_c, 2, 65, 0
4, 11208, Note_on_c, 2, 64, 62
4, 11229, Note_off_c, 2, 64, 0
4, 11232, Note_on_c, 2, 65, 62
4, 11274, Note_off_c, 2, 65, 0
4, 11280, Note_on_c, 2, 81, 62
4, 11301, Note_off_c, 2, 81, 0
4, 11304, Note_on_c, 2, 79, 62
4, 11325, Note_off_c, 2, 79, 0
4, 11328, Note_on_c, 2, 81, 62
4, 11349, Note_off_c, 2, 81, 0
4, 11352, Note_on_c, 2, 79, 62
4, 11373, Note_off_c, 2, 79, 0
4, 11376, Note_on_c, 2, 81, 62
4, 11397, Note_off_c, 2, 81, 0
4, 11400, Note_on_c, 2, 79, 62
4, 11421, Note_off_c, 2, 79, 0
4, 11424, Note_on_c, 2, 81, 62
4, 11466, Note_off_c, 2, 81, 0
4, 11472, Note_on_c, 2, 74, 62
4, 11493, Note_off_c, 2, 74, 0
4, 11496, Note_on_c, 2, 75, 62
4, 11517, Note_off_c, 2, 75, 0
4, 11520, Note_on_c, 2, 74, 62
4, 11541, Note_off_c, 2, 74, 0
4, 11544, Note_on_c, 2, 72, 62
4, 11565, Note_off_c, 2, 72, 0
4, 11568, Note_on_c, 2, 70, 62
4, 11589, Note_off_c, 2, 70, 0
4, 11592, Note_on_c, 2, 69, 62
4, 11613, Note_off_c, 2, 69, 0
4, 11616, Note_on_c, 2, 70, 62
4, 11637, Note_off_c, 2, 70, 0
4, 11640, Note_on_c, 2, 74, 62
4, 11661, Note_off_c, 2, 74, 0
4, 11664, Note_on_c, 2, 79, 62
4, 11685, Note_off_c, 2, 79, 0
4, 11688, Note_on_c, 2, 81, 62
4, 11709, Note_off_c, 2, 81, 0
4, 11712, Note_on_c, 2, 79, 62
4, 11733, Note_off_c, 2, 79, 0
4, 11736, Note_on_c, 2, 77, 62
4, 11757, Note_off_c, 2, 77, 0
4, 11760, Note_on_c, 2, 76, 62
4, 11781, Note_off_c, 2, 76, 0
4, 11784, Note_on_c, 2, 74, 62
4, 11805, Note_off_c, 2, 74, 0
4, 11808, Note_on_c, 2, 73, 62
4, 11829, Note_off_c, 2, 73, 0
4, 11832, Note_on_c, 2, 71, 62
4, 11853, Note_off_c, 2, 71, 0
4, 11856, Note_on_c, 2, 69, 62
4, 11877, Note_off_c, 2, 69, 0
4, 11880, Note_on_c, 2, 71, 62
4, 11901, Note_off_c, 2, 71, 0
4, 11904, Note_on_c, 2, 73, 62
4, 11925, Note_off_c, 2, 73, 0
4, 11928, Note_on_c, 2, 74, 62
4, 11949, Note_off_c, 2, 74, 0
4, 11952, Note_on_c, 2, 76, 62
4, 11973, Note_off_c, 2, 76, 0
4, 11976, Note_on_c, 2, 77, 62
4, 11997, Note_off_c, 2, 77, 0
4, 12000, Note_on_c, 2, 79, 62
4, 12021, Note_off_c, 2, 79, 0
4, 12024, Note_on_c, 2, 77, 62
4, 12045, Note_off_c, 2, 77, 0
4, 12048, Note_on_c, 2, 79, 62
4, 12069, Note_off_c, 2, 79, 0
4, 12072, Note_on_c, 2, 77, 62
4, 12093, Note_off_c, 2, 77, 0
4, 12096, Note_on_c, 2, 79, 62
4, 12117, Note_off_c, 2, 79, 0
4, 12120, Note_on_c, 2, 77, 62
4, 12141, Note_off_c, 2, 77, 0
4, 12144, Note_on_c, 2, 79, 62
4, 12165, Note_off_c, 2, 79, 0
4, 12168, Note_on_c, 2, 77, 62
4, 12189, Note_off_c, 2, 77, 0
4, 12192, Note_on_c, 2, 79, 62
4, 12213, Note_off_c, 2, 79, 0
4, 12216, Note_on_c, 2, 81, 62
4, 12226, Note_off_c, 2, 81, 0
4, 12228, Note_on_c, 2, 79, 62
4, 12238, Note_off_c, 2, 79, 0
4, 12240, Note_on_c, 2, 77, 62
4, 12250, Note_off_c, 2, 77, 0
4, 12252, Note_on_c, 2, 79, 62
4, 12262, Note_off_c, 2, 79, 0
4, 12264, Note_on_c, 2, 81, 62
4, 12285, Note_off_c, 2, 81, 0
4, 12288, Note_on_c, 2, 76, 62
4, 12351, Note_off_c, 2, 76, 0
4, 12360, Note_on_c, 2, 74, 62
4, 12381, Note_off_c, 2, 74, 0
4, 12384, Note_on_c, 2, 74, 62
4, 12426, Note_off_c, 2, 74, 0
4, 12432, Note_on_c, 2, 74, 62
4, 12474, Note_off_c, 2, 74, 0
4, 12480, Note_on_c, 2, 72, 62
4, 12522, Note_off_c, 2, 72, 0
4, 12528, Note_on_c, 2, 70, 62
4, 12570, Note_off_c, 2, 70, 0
4, 12576, Note_on_c, 2, 69, 62
4, 12618, Note_off_c, 2, 69, 0
4, 12624, Note_on_c, 2, 67, 62
4, 12666, Note_off_c, 2, 67, 0
4, 12672, Note_on_c, 2, 66, 62
4, 12714, Note_off_c, 2, 66, 0
4, 12720, Note_on_c, 2, 64, 62
4, 12762, Note_off_c, 2, 64, 0
4, 12768, Note_on_c, 2, 67, 62
4, 12810, Note_off_c, 2, 67, 0
4, 12816, Note_on_c, 2, 74, 62
4, 12837, Note_off_c, 2, 74, 0
4, 12840, Note_on_c, 2, 72, 62
4, 12861, Note_off_c, 2, 72, 0
4, 12864, Note_on_c, 2, 74, 62
4, 12885, Note_off_c, 2, 74, 0
4, 12888, Note_on_c, 2, 72, 62
4, 12909, Note_off_c, 2, 72, 0
4, 12912, Note_on_c, 2, 74, 62
4, 12933, Note_off_c, 2, 74, 0
4, 12936, Note_on_c, 2, 76, 62
4, 12957, Note_off_c, 2, 76, 0
4, 12960, Note_on_c, 2, 77, 62
4, 12981, Note_off_c, 2, 77, 0
4, 12984, Note_on_c, 2, 76, 62
4, 13005, Note_off_c, 2, 76, 0
4, 13008, Note_on_c, 2, 77, 62
4, 13029, Note_off_c, 2, 77, 0
4, 13032, Note_on_c, 2, 79, 62
4, 13053, Note_off_c, 2, 79, 0
4, 13056, Note_on_c, 2, 77, 62
4, 13077, Note_off_c, 2, 77, 0
4, 13080, Note_on_c, 2, 79, 62
4, 13101, Note_off_c, 2, 79, 0
4, 13104, Note_on_c, 2, 77, 62
4, 13125, Note_off_c, 2, 77, 0
4, 13128, Note_on_c, 2, 79, 62
4, 13149, Note_off_c, 2, 79, 0
4, 13152, Note_on_c, 2, 76, 62
4, 13194, Note_off_c, 2, 76, 0
4, 13584, Note_on_c, 2, 72, 62
4, 13626, Note_off_c, 2, 72, 0
4, 13632, Note_on_c, 2, 75, 62
4, 13674, Note_off_c, 2, 75, 0
4, 13680, Note_on_c, 2, 81, 62
4, 13722, Note_off_c, 2, 81, 0
4, 13776, Note_on_c, 2, 70, 62
4, 13818, Note_off_c, 2, 70, 0
4, 13824, Note_on_c, 2, 74, 62
4, 13866, Note_off_c, 2, 74, 0
4, 13872, Note_on_c, 2, 79, 62
4, 13914, Note_off_c, 2, 79, 0
4, 13968, Note_on_c, 2, 69, 62
4, 14010, Note_off_c, 2, 69, 0
4, 14016, Note_on_c, 2, 72, 62
4, 14058, Note_off_c, 2, 72, 0
4, 14064, Note_on_c, 2, 77, 62
4, 14106, Note_off_c, 2, 77, 0
4, 14208, Note_on_c, 2, 79, 62
4, 14346, Note_off_c, 2, 79, 0
4, 14352, Note_on_c, 2, 69, 62
4, 14394, Note_off_c, 2, 69, 0
4, 14400, Note_on_c, 2, 72, 62
4, 14442, Note_off_c, 2, 72, 0
4, 14448, Note_on_c, 2, 77, 62
4, 14490, Note_off_c, 2, 77, 0
4, 14496, Note_on_c, 2, 81, 62
4, 14730, Note_off_c, 2, 81, 0
4, 14736, Note_on_c, 2, 71, 62
4, 14778, Note_off_c, 2, 71, 0
4, 14784, Note_on_c, 2, 74, 62
4, 14826, Note_off_c, 2, 74, 0
4, 14832, Note_on_c, 2, 79, 62
4, 14874, Note_off_c, 2, 79, 0
4, 14880, Note_on_c, 2, 83, 62
4, 15114, Note_off_c, 2, 83, 0
4, 15120, Note_on_c, 2, 72, 62
4, 15162, Note_off_c, 2, 72, 0
4, 15168, Note_on_c, 2, 76, 62
4, 15210, Note_off_c, 2, 76, 0
4, 15216, Note_on_c, 2, 81, 62
4, 15258, Note_off_c, 2, 81, 0
4, 15264, Note_on_c, 2, 84, 62
4, 15381, Note_off_c, 2, 84, 0
4, 15384, Note_on_c, 2, 83, 62
4, 15405, Note_off_c, 2, 83, 0
4, 15408, Note_on_c, 2, 84, 62
4, 15429, Note_off_c, 2, 84, 0
4, 15432, Note_on_c, 2, 83, 62
4, 15453, Note_off_c, 2, 83, 0
4, 15456, Note_on_c, 2, 84, 62
4, 15573, Note_off_c, 2, 84, 0
4, 15576, Note_on_c, 2, 83, 62
4, 15597, Note_off_c, 2, 83, 0
4, 15600, Note_on_c, 2, 84, 62
4, 15621, Note_off_c, 2, 84, 0
4, 15624, Note_on_c, 2, 83, 62
4, 15645, Note_off_c, 2, 83, 0
4, 15648, Note_on_c, 2, 84, 62
4, 15732, Note_off_c, 2, 84, 0
4, 15792, Note_on_c, 2, 69, 62
4, 15834, Note_off_c, 2, 69, 0
4, 15840, Note_on_c, 2, 71, 62
4, 15882, Note_off_c, 2, 71, 0
4, 15888, Note_on_c, 2, 74, 62
4, 15930, Note_off_c, 2, 74, 0
4, 15936, Note_on_c, 2, 67, 62
4, 15978, Note_off_c, 2, 67, 0
4, 15984, Note_on_c, 2, 71, 62
4, 16026, Note_off_c, 2, 71, 0
4, 16032, Note_on_c, 2, 72, 62
4, 16053, Note_off_c, 2, 72, 0
4, 16056, Note_on_c, 2, 77, 62
4, 16077, Note_off_c, 2, 77, 0
4, 16080, Note_on_c, 2, 76, 62
4, 16101, Note_off_c, 2, 76, 0
4, 16104, Note_on_c, 2, 74, 62
4, 16125, Note_off_c, 2, 74, 0
4, 16128, Note_on_c, 2, 74, 62
4, 16191, Note_off_c, 2, 74, 0
4, 16200, Note_on_c, 2, 72, 62
4, 16221, Note_off_c, 2, 72, 0
4, 16224, Note_on_c, 2, 72, 62
4, 16266, Note_off_c, 2, 72, 0
4, 16272, Note_on_c, 2, 72, 62
4, 16293, Note_off_c, 2, 72, 0
4, 16296, Note_on_c, 2, 71, 62
4, 16317, Note_off_c, 2, 71, 0
4, 16320, Note_on_c, 2, 72, 62
4, 16341, Note_off_c, 2, 72, 0
4, 16344, Note_on_c, 2, 71, 62
4, 16365, Note_off_c, 2, 71, 0
4, 16368, Note_on_c, 2, 72, 62
4, 16389, Note_off_c, 2, 72, 0
4, 16392, Note_on_c, 2, 71, 62
4, 16413, Note_off_c, 2, 71, 0
4, 16416, Note_on_c, 2, 72, 62
4, 16458, Note_off_c, 2, 72, 0
4, 16464, Note_on_c, 2, 67, 62
4, 16506, Note_off_c, 2, 67, 0
4, 16512, Note_on_c, 2, 69, 62
4, 16554, Note_off_c, 2, 69, 0
4, 16560, Note_on_c, 2, 67, 62
4, 16581, Note_off_c, 2, 67, 0
4, 16584, Note_on_c, 2, 65, 62
4, 16605, Note_off_c, 2, 65, 0
4, 16608, Note_on_c, 2, 64, 62
4, 16629, Note_off_c, 2, 64, 0
4, 16632, Note_on_c, 2, 62, 62
4, 16653, Note_off_c, 2, 62, 0
4, 16656, Note_on_c, 2, 60, 62
4, 16677, Note_off_c, 2, 60, 0
4, 16680, Note_on_c, 2, 62, 62
4, 16701, Note_off_c, 2, 62, 0
4, 16704, Note_on_c, 2, 64, 62
4, 16725, Note_off_c, 2, 64, 0
4, 16728, Note_on_c, 2, 66, 62
4, 16749, Note_off_c, 2, 66, 0
4, 16752, Note_on_c, 2, 64, 62
4, 16773, Note_off_c, 2, 64, 0
4, 16776, Note_on_c, 2, 66, 62
4, 16797, Note_off_c, 2, 66, 0
4, 16800, Note_on_c, 2, 67, 62
4, 16821, Note_off_c, 2, 67, 0
4, 16824, Note_on_c, 2, 69, 62
4, 16845, Note_off_c, 2, 69, 0
4, 16848, Note_on_c, 2, 71, 62
4, 16869, Note_off_c, 2, 71, 0
4, 16872, Note_on_c, 2, 67, 62
4, 16893, Note_off_c, 2, 67, 0
4, 16896, Note_on_c, 2, 72, 62
4, 16917, Note_off_c, 2, 72, 0
4, 16920, Note_on_c, 2, 71, 62
4, 16941, Note_off_c, 2, 71, 0
4, 16944, Note_on_c, 2, 72, 62
4, 16965, Note_off_c, 2, 72, 0
4, 16968, Note_on_c, 2, 74, 62
4, 16989, Note_off_c, 2, 74, 0
4, 16992, Note_on_c, 2, 71, 62
4, 17034, Note_off_c, 2, 71, 0
4, 17040, Note_on_c, 2, 74, 62
4, 17061, Note_off_c, 2, 74, 0
4, 17064, Note_on_c, 2, 72, 62
4, 17085, Note_off_c, 2, 72, 0
4, 17088, Note_on_c, 2, 74, 62
4, 17109, Note_off_c, 2, 74, 0
4, 17112, Note_on_c, 2, 72, 62
4, 17133, Note_off_c, 2, 72, 0
4, 17136, Note_on_c, 2, 74, 62
4, 17157, Note_off_c, 2, 74, 0
4, 17160, Note_on_c, 2, 72, 62
4, 17181, Note_off_c, 2, 72, 0
4, 17184, Note_on_c, 2, 74, 62
4, 17226, Note_off_c, 2, 74, 0
4, 17232, Note_on_c, 2, 76, 62
4, 17253, Note_off_c, 2, 76, 0
4, 17256, Note_on_c, 2, 77, 62
4, 17277, Note_off_c, 2, 77, 0
4, 17280, Note_on_c, 2, 76, 62
4, 17301, Note_off_c, 2, 76, 0
4, 17304, Note_on_c, 2, 74, 62
4, 17325, Note_off_c, 2, 74, 0
4, 17328, Note_on_c, 2, 72, 62
4, 17349, Note_off_c, 2, 72, 0
4, 17352, Note_on_c, 2, 71, 62
4, 17373, Note_off_c, 2, 71, 0
4, 17376, Note_on_c, 2, 72, 62
4, 17418, Note_off_c, 2, 72, 0
4, 17424, Note_on_c, 2, 76, 62
4, 17445, Note_off_c, 2, 76, 0
4, 17448, Note_on_c, 2, 74, 62
4, 17469, Note_off_c, 2, 74, 0
4, 17472, Note_on_c, 2, 76, 62
4, 17493, Note_off_c, 2, 76, 0
4, 17496, Note_on_c, 2, 74, 62
4, 17517, Note_off_c, 2, 74, 0
4, 17520, Note_on_c, 2, 76, 62
4, 17541, Note_off_c, 2, 76, 0
4, 17544, Note_on_c, 2, 74, 62
4, 17565, Note_off_c, 2, 74, 0
4, 17568, Note_on_c, 2, 76, 62
4, 17610, Note_off_c, 2, 76, 0
4, 17616, Note_on_c, 2, 77, 62
4, 17637, Note_off_c, 2, 77, 0
4, 17640, Note_on_c, 2, 79, 62
4, 17661, Note_off_c, 2, 79, 0
4, 17664, Note_on_c, 2, 77, 62
4, 17685, Note_off_c, 2, 77, 0
4, 17688, Note_on_c, 2, 76, 62
4, 17709, Note_off_c, 2, 76, 0
4, 17712, Note_on_c, 2, 74, 62
4, 17733, Note_off_c, 2, 74, 0
4, 17736, Note_on_c, 2, 73, 62
4, 17757, Note_off_c, 2, 73, 0
4, 17760, Note_on_c, 2, 74, 62
4, 17802, Note_off_c, 2, 74, 0
4, 17808, Note_on_c, 2, 76, 62
4, 17829, Note_off_c, 2, 76, 0
4, 17832, Note_on_c, 2, 77, 62
4, 17853, Note_off_c, 2, 77, 0
4, 17856, Note_on_c, 2, 76, 62
4, 17877, Note_off_c, 2, 76, 0
4, 17880, Note_on_c, 2, 74, 62
4, 17901, Note_off_c, 2, 74, 0
4, 17904, Note_on_c, 2, 72, 62
4, 17925, Note_off_c, 2, 72, 0
4, 17928, Note_on_c, 2, 71, 62
4, 17949, Note_off_c, 2, 71, 0
4, 17952, Note_on_c, 2, 72, 62
4, 18015, Note_off_c, 2, 72, 0
4, 18024, Note_on_c, 2, 74, 62
4, 18045, Note_off_c, 2, 74, 0
4, 18048, Note_on_c, 2, 71, 62
4, 18111, Note_off_c, 2, 71, 0
4, 18120, Note_on_c, 2, 69, 62
4, 18141, Note_off_c, 2, 69, 0
4, 18144, Note_on_c, 2, 69, 62
4, 18228, Note_off_c, 2, 69, 0
4, 18576, Note_on_c, 2, 77, 62
4, 18597, Note_off_c, 2, 77, 0
4, 18600, Note_on_c, 2, 76, 62
4, 18621, Note_off_c, 2, 76, 0
4, 18624, Note_on_c, 2, 77, 62
4, 18645, Note_off_c, 2, 77, 0
4, 18648, Note_on_c, 2, 79, 62
4, 18669, Note_off_c, 2, 79, 0
4, 18672, Note_on_c, 2, 77, 62
4, 18693, Note_off_c, 2, 77, 0
4, 18696, Note_on_c, 2, 76, 62
4, 18717, Note_off_c, 2, 76, 0
4, 18720, Note_on_c, 2, 74, 62
4, 18762, Note_off_c, 2, 74, 0
4, 18768, Note_on_c, 2, 76, 62
4, 18789, Note_off_c, 2, 76, 0
4, 18792, Note_on_c, 2, 74, 62
4, 18813, Note_off_c, 2, 74, 0
4, 18816, Note_on_c, 2, 76, 62
4, 18837, Note_off_c, 2, 76, 0
4, 18840, Note_on_c, 2, 77, 62
4, 18861, Note_off_c, 2, 77, 0
4, 18864, Note_on_c, 2, 76, 62
4, 18885, Note_off_c, 2, 76, 0
4, 18888, Note_on_c, 2, 74, 62
4, 18909, Note_off_c, 2, 74, 0
4, 18912, Note_on_c, 2, 73, 62
4, 18954, Note_off_c, 2, 73, 0
4, 19728, Note_on_c, 2, 79, 62
4, 19749, Note_off_c, 2, 79, 0
4, 19752, Note_on_c, 2, 78, 62
4, 19773, Note_off_c, 2, 78, 0
4, 19776, Note_on_c, 2, 79, 62
4, 19797, Note_off_c, 2, 79, 0
4, 19800, Note_on_c, 2, 78, 62
4, 19821, Note_off_c, 2, 78, 0
4, 19824, Note_on_c, 2, 79, 62
4, 19845, Note_off_c, 2, 79, 0
4, 19848, Note_on_c, 2, 78, 62
4, 19869, Note_off_c, 2, 78, 0
4, 19872, Note_on_c, 2, 79, 62
4, 19914, Note_off_c, 2, 79, 0
4, 19920, Note_on_c, 2, 74, 62
4, 19962, Note_off_c, 2, 74, 0
4, 19968, Note_on_c, 2, 75, 62
4, 20010, Note_off_c, 2, 75, 0
4, 20016, Note_on_c, 2, 74, 62
4, 20037, Note_off_c, 2, 74, 0
4, 20040, Note_on_c, 2, 72, 62
4, 20061, Note_off_c, 2, 72, 0
4, 20064, Note_on_c, 2, 70, 62
4, 20106, Note_off_c, 2, 70, 0
4, 20304, Note_on_c, 2, 77, 62
4, 20325, Note_off_c, 2, 77, 0
4, 20328, Note_on_c, 2, 76, 62
4, 20349, Note_off_c, 2, 76, 0
4, 20352, Note_on_c, 2, 77, 62
4, 20373, Note_off_c, 2, 77, 0
4, 20376, Note_on_c, 2, 79, 62
4, 20397, Note_off_c, 2, 79, 0
4, 20400, Note_on_c, 2, 77, 62
4, 20421, Note_off_c, 2, 77, 0
4, 20424, Note_on_c, 2, 76, 62
4, 20445, Note_off_c, 2, 76, 0
4, 20448, Note_on_c, 2, 74, 62
4, 20490, Note_off_c, 2, 74, 0
4, 20496, Note_on_c, 2, 76, 62
4, 20517, Note_off_c, 2, 76, 0
4, 20520, Note_on_c, 2, 74, 62
4, 20541, Note_off_c, 2, 74, 0
4, 20544, Note_on_c, 2, 76, 62
4, 20565, Note_off_c, 2, 76, 0
4, 20568, Note_on_c, 2, 77, 62
4, 20589, Note_off_c, 2, 77, 0
4, 20592, Note_on_c, 2, 76, 62
4, 20613, Note_off_c, 2, 76, 0
4, 20616, Note_on_c, 2, 74, 62
4, 20637, Note_off_c, 2, 74, 0
4, 20640, Note_on_c, 2, 72, 62
4, 20682, Note_off_c, 2, 72, 0
4, 21072, Note_on_c, 2, 76, 62
4, 21093, Note_off_c, 2, 76, 0
4, 21096, Note_on_c, 2, 74, 62
4, 21117, Note_off_c, 2, 74, 0
4, 21120, Note_on_c, 2, 76, 62
4, 21141, Note_off_c, 2, 76, 0
4, 21144, Note_on_c, 2, 77, 62
4, 21165, Note_off_c, 2, 77, 0
4, 21168, Note_on_c, 2, 79, 62
4, 21189, Note_off_c, 2, 79, 0
4, 21192, Note_on_c, 2, 76, 62
4, 21213, Note_off_c, 2, 76, 0
4, 21216, Note_on_c, 2, 77, 62
4, 21258, Note_off_c, 2, 77, 0
4, 21264, Note_on_c, 2, 81, 62
4, 21306, Note_off_c, 2, 81, 0
4, 21312, Note_on_c, 2, 77, 62
4, 21354, Note_off_c, 2, 77, 0
4, 21360, Note_on_c, 2, 72, 62
4, 21402, Note_off_c, 2, 72, 0
4, 21408, Note_on_c, 2, 65, 62
4, 21450, Note_off_c, 2, 65, 0
4, 21456, Note_on_c, 2, 74, 62
4, 21498, Note_off_c, 2, 74, 0
4, 21504, Note_on_c, 2, 67, 62
4, 21546, Note_off_c, 2, 67, 0
4, 21552, Note_on_c, 2, 69, 62
4, 21573, Note_off_c, 2, 69, 0
4, 21576, Note_on_c, 2, 70, 62
4, 21597, Note_off_c, 2, 70, 0
4, 21600, Note_on_c, 2, 69, 62
4, 21642, Note_off_c, 2, 69, 0
4, 21648, Note_on_c, 2, 77, 62
4, 21669, Note_off_c, 2, 77, 0
4, 21672, Note_on_c, 2, 76, 62
4, 21693, Note_off_c, 2, 76, 0
4, 21696, Note_on_c, 2, 77, 62
4, 21717, Note_off_c, 2, 77, 0
4, 21720, Note_on_c, 2, 76, 62
4, 21741, Note_off_c, 2, 76, 0
4, 21744, Note_on_c, 2, 77, 62
4, 21765, Note_off_c, 2, 77, 0
4, 21768, Note_on_c, 2, 76, 62
4, 21789, Note_off_c, 2, 76, 0
4, 21792, Note_on_c, 2, 77, 62
4, 21834, Note_off_c, 2, 77, 0
4, 21840, Note_on_c, 2, 72, 62
4, 21882, Note_off_c, 2, 72, 0
4, 21888, Note_on_c, 2, 74, 62
4, 21930, Note_off_c, 2, 74, 0
4, 21936, Note_on_c, 2, 72, 62
4, 21957, Note_off_c, 2, 72, 0
4, 21960, Note_on_c, 2, 70, 62
4, 21981, Note_off_c, 2, 70, 0
4, 21984, Note_on_c, 2, 69, 62
4, 22026, Note_off_c, 2, 69, 0
4, 22032, Note_on_c, 2, 65, 62
4, 22074, Note_off_c, 2, 65, 0
4, 22080, Note_on_c, 2, 69, 62
4, 22122, Note_off_c, 2, 69, 0
4, 22128, Note_on_c, 2, 72, 62
4, 22170, Note_off_c, 2, 72, 0
4, 22176, Note_on_c, 2, 77, 62
4, 22218, Note_off_c, 2, 77, 0
4, 22224, Note_on_c, 2, 72, 62
4, 22266, Note_off_c, 2, 72, 0
4, 22272, Note_on_c, 2, 74, 62
4, 22314, Note_off_c, 2, 74, 0
4, 22320, Note_on_c, 2, 72, 62
4, 22341, Note_off_c, 2, 72, 0
4, 22344, Note_on_c, 2, 70, 62
4, 22365, Note_off_c, 2, 70, 0
4, 22368, Note_on_c, 2, 69, 62
4, 22410, Note_off_c, 2, 69, 0
4, 22416, Note_on_c, 2, 77, 62
4, 22437, Note_off_c, 2, 77, 0
4, 22440, Note_on_c, 2, 76, 62
4, 22461, Note_off_c, 2, 76, 0
4, 22464, Note_on_c, 2, 77, 62
4, 22485, Note_off_c, 2, 77, 0
4, 22488, Note_on_c, 2, 76, 62
4, 22509, Note_off_c, 2, 76, 0
4, 22512, Note_on_c, 2, 77, 62
4, 22533, Note_off_c, 2, 77, 0
4, 22536, Note_on_c, 2, 76, 62
4, 22557, Note_off_c, 2, 76, 0
4, 22560, Note_on_c, 2, 77, 62
4, 22644, Note_off_c, 2, 77, 0
4, 22800, Note_on_c, 2, 72, 62
4, 22842, Note_off_c, 2, 72, 0
4, 22848, Note_on_c, 2, 76, 62
4, 22890, Note_off_c, 2, 76, 0
4, 22896, Note_on_c, 2, 79, 62
4, 22938, Note_off_c, 2, 79, 0
4, 22944, Note_on_c, 2, 84, 62
4, 22986, Note_off_c, 2, 84, 0
4, 22992, Note_on_c, 2, 79, 62
4, 23034, Note_off_c, 2, 79, 0
4, 23040, Note_on_c, 2, 81, 62
4, 23082, Note_off_c, 2, 81, 0
4, 23088, Note_on_c, 2, 79, 62
4, 23109, Note_off_c, 2, 79, 0
4, 23112, Note_on_c, 2, 77, 62
4, 23133, Note_off_c, 2, 77, 0
4, 23136, Note_on_c, 2, 76, 62
4, 23220, Note_off_c, 2, 76, 0
4, 23280, Note_on_c, 2, 76, 62
4, 23322, Note_off_c, 2, 76, 0
4, 23328, Note_on_c, 2, 72, 62
4, 23412, Note_off_c, 2, 72, 0
4, 23472, Note_on_c, 2, 77, 62
4, 23514, Note_off_c, 2, 77, 0
4, 23520, Note_on_c, 2, 74, 62
4, 23604, Note_off_c, 2, 74, 0
4, 23664, Note_on_c, 2, 79, 62
4, 23706, Note_off_c, 2, 79, 0
4, 23712, Note_on_c, 2, 76, 62
4, 23775, Note_off_c, 2, 76, 0
4, 23784, Note_on_c, 2, 77, 62
4, 23805, Note_off_c, 2, 77, 0
4, 23808, Note_on_c, 2, 74, 62
4, 23871, Note_off_c, 2, 74, 0
4, 23880, Note_on_c, 2, 72, 62
4, 23901, Note_off_c, 2, 72, 0
4, 23904, Note_on_c, 2, 72, 62
4, 23946, Note_off_c, 2, 72, 0
4, 23952, Note_on_c, 2, 79, 62
4, 23973, Note_off_c, 2, 79, 0
4, 23976, Note_on_c, 2, 77, 62
4, 23997, Note_off_c, 2, 77, 0
4, 24000, Note_on_c, 2, 79, 62
4, 24021, Note_off_c, 2, 79, 0
4, 24024, Note_on_c, 2, 77, 62
4, 24045, Note_off_c, 2, 77, 0
4, 24048, Note_on_c, 2, 79, 62
4, 24069, Note_off_c, 2, 79, 0
4, 24072, Note_on_c, 2, 81, 62
4, 24093, Note_off_c, 2, 81, 0
4, 24096, Note_on_c, 2, 82, 62
4, 24117, Note_off_c, 2, 82, 0
4, 24120, Note_on_c, 2, 81, 62
4, 24141, Note_off_c, 2, 81, 0
4, 24144, Note_on_c, 2, 82, 62
4, 24165, Note_off_c, 2, 82, 0
4, 24168, Note_on_c, 2, 84, 62
4, 24189, Note_off_c, 2, 84, 0
4, 24192, Note_on_c, 2, 82, 62
4, 24213, Note_off_c, 2, 82, 0
4, 24216, Note_on_c, 2, 84, 62
4, 24237, Note_off_c, 2, 84, 0
4, 24240, Note_on_c, 2, 82, 62
4, 24261, Note_off_c, 2, 82, 0
4, 24264, Note_on_c, 2, 84, 62
4, 24285, Note_off_c, 2, 84, 0
4, 24288, Note_on_c, 2, 81, 62
4, 24330, Note_off_c, 2, 81, 0
4, 24816, Note_on_c, 2, 80, 62
4, 24858, Note_off_c, 2, 80, 0
4, 24864, Note_on_c, 2, 75, 62
4, 24906, Note_off_c, 2, 75, 0
4, 24912, Note_on_c, 2, 79, 62
4, 24954, Note_off_c, 2, 79, 0
4, 25008, Note_on_c, 2, 79, 62
4, 25050, Note_off_c, 2, 79, 0
4, 25056, Note_on_c, 2, 74, 62
4, 25098, Note_off_c, 2, 74, 0
4, 25104, Note_on_c, 2, 77, 62
4, 25146, Note_off_c, 2, 77, 0
4, 25200, Note_on_c, 2, 77, 62
4, 25242, Note_off_c, 2, 77, 0
4, 25248, Note_on_c, 2, 72, 62
4, 25290, Note_off_c, 2, 72, 0
4, 25296, Note_on_c, 2, 75, 62
4, 25338, Note_off_c, 2, 75, 0
4, 25440, Note_on_c, 2, 77, 62
4, 25620, Note_off_c, 2, 77, 0
4, 25632, Note_on_c, 2, 79, 62
4, 26004, Note_off_c, 2, 79, 0
4, 26016, Note_on_c, 2, 81, 62
4, 26388, Note_off_c, 2, 81, 0
4, 26448, Note_on_c, 2, 71, 62
4, 26490, Note_off_c, 2, 71, 0
4, 26496, Note_on_c, 2, 74, 62
4, 26538, Note_off_c, 2, 74, 0
4, 26544, Note_on_c, 2, 77, 62
4, 26586, Note_off_c, 2, 77, 0
4, 26592, Note_on_c, 2, 80, 62
4, 26634, Note_off_c, 2, 80, 0
4, 26640, Note_on_c, 2, 74, 62
4, 26682, Note_off_c, 2, 74, 0
4, 26688, Note_on_c, 2, 77, 62
4, 26730, Note_off_c, 2, 77, 0
4, 26736, Note_on_c, 2, 80, 62
4, 26778, Note_off_c, 2, 80, 0
4, 26784, Note_on_c, 2, 83, 62
4, 26826, Note_off_c, 2, 83, 0
4, 26832, Note_on_c, 2, 86, 62
4, 26874, Note_off_c, 2, 86, 0
4, 26880, Note_on_c, 2, 79, 62
4, 26922, Note_off_c, 2, 79, 0
4, 26928, Note_on_c, 2, 83, 62
4, 26970, Note_off_c, 2, 83, 0
4, 26976, Note_on_c, 2, 84, 62
4, 27060, Note_off_c, 2, 84, 0
4, 27120, Note_on_c, 2, 79, 62
4, 27162, Note_off_c, 2, 79, 0
4, 27168, Note_on_c, 2, 81, 62
4, 27189, Note_off_c, 2, 81, 0
4, 27192, Note_on_c, 2, 79, 62
4, 27213, Note_off_c, 2, 79, 0
4, 27216, Note_on_c, 2, 77, 62
4, 27237, Note_off_c, 2, 77, 0
4, 27240, Note_on_c, 2, 79, 62
4, 27261, Note_off_c, 2, 79, 0
4, 27264, Note_on_c, 2, 76, 62
4, 27327, Note_off_c, 2, 76, 0
4, 27336, Note_on_c, 2, 77, 62
4, 27357, Note_off_c, 2, 77, 0
4, 27360, Note_on_c, 2, 77, 62
4, 27402, Note_off_c, 2, 77, 0
4, 27408, Note_on_c, 2, 77, 62
4, 27429, Note_off_c, 2, 77, 0
4, 27432, Note_on_c, 2, 76, 62
4, 27453, Note_off_c, 2, 76, 0
4, 27456, Note_on_c, 2, 77, 62
4, 27477, Note_off_c, 2, 77, 0
4, 27480, Note_on_c, 2, 76, 62
4, 27501, Note_off_c, 2, 76, 0
4, 27504, Note_on_c, 2, 77, 62
4, 27525, Note_off_c, 2, 77, 0
4, 27528, Note_on_c, 2, 76, 62
4, 27549, Note_off_c, 2, 76, 0
4, 27552, Note_on_c, 2, 77, 62
4, 27594, Note_off_c, 2, 77, 0
4, 27600, Note_on_c, 2, 72, 62
4, 27642, Note_off_c, 2, 72, 0
4, 27648, Note_on_c, 2, 74, 62
4, 27690, Note_off_c, 2, 74, 0
4, 27696, Note_on_c, 2, 72, 62
4, 27717, Note_off_c, 2, 72, 0
4, 27720, Note_on_c, 2, 70, 62
4, 27741, Note_off_c, 2, 70, 0
4, 27744, Note_on_c, 2, 69, 62
4, 27765, Note_off_c, 2, 69, 0
4, 27768, Note_on_c, 2, 67, 62
4, 27789, Note_off_c, 2, 67, 0
4, 27792, Note_on_c, 2, 65, 62
4, 27813, Note_off_c, 2, 65, 0
4, 27816, Note_on_c, 2, 67, 62
4, 27837, Note_off_c, 2, 67, 0
4, 27840, Note_on_c, 2, 69, 62
4, 27861, Note_off_c, 2, 69, 0
4, 27864, Note_on_c, 2, 71, 62
4, 27885, Note_off_c, 2, 71, 0
4, 27888, Note_on_c, 2, 69, 62
4, 27909, Note_off_c, 2, 69, 0
4, 27912, Note_on_c, 2, 71, 62
4, 27933, Note_off_c, 2, 71, 0
4, 27936, Note_on_c, 2, 72, 62
4, 27957, Note_off_c, 2, 72, 0
4, 27960, Note_on_c, 2, 74, 62
4, 27981, Note_off_c, 2, 74, 0
4, 27984, Note_on_c, 2, 76, 62
4, 28005, Note_off_c, 2, 76, 0
4, 28008, Note_on_c, 2, 72, 62
4, 28029, Note_off_c, 2, 72, 0
4, 28032, Note_on_c, 2, 77, 62
4, 28053, Note_off_c, 2, 77, 0
4, 28056, Note_on_c, 2, 76, 62
4, 28077, Note_off_c, 2, 76, 0
4, 28080, Note_on_c, 2, 77, 62
4, 28101, Note_off_c, 2, 77, 0
4, 28104, Note_on_c, 2, 79, 62
4, 28125, Note_off_c, 2, 79, 0
4, 28128, Note_on_c, 2, 76, 62
4, 28149, Note_off_c, 2, 76, 0
4, 28152, Note_on_c, 2, 77, 62
4, 28173, Note_off_c, 2, 77, 0
4, 28176, Note_on_c, 2, 79, 62
4, 28197, Note_off_c, 2, 79, 0
4, 28200, Note_on_c, 2, 77, 62
4, 28221, Note_off_c, 2, 77, 0
4, 28224, Note_on_c, 2, 79, 62
4, 28245, Note_off_c, 2, 79, 0
4, 28248, Note_on_c, 2, 77, 62
4, 28269, Note_off_c, 2, 77, 0
4, 28272, Note_on_c, 2, 79, 62
4, 28293, Note_off_c, 2, 79, 0
4, 28296, Note_on_c, 2, 77, 62
4, 28317, Note_off_c, 2, 77, 0
4, 28320, Note_on_c, 2, 79, 62
4, 28341, Note_off_c, 2, 79, 0
4, 28344, Note_on_c, 2, 72, 62
4, 28365, Note_off_c, 2, 72, 0
4, 28368, Note_on_c, 2, 77, 62
4, 28389, Note_off_c, 2, 77, 0
4, 28392, Note_on_c, 2, 76, 62
4, 28413, Note_off_c, 2, 76, 0
4, 28416, Note_on_c, 2, 77, 62
4, 28437, Note_off_c, 2, 77, 0
4, 28440, Note_on_c, 2, 76, 62
4, 28461, Note_off_c, 2, 76, 0
4, 28464, Note_on_c, 2, 77, 62
4, 28485, Note_off_c, 2, 77, 0
4, 28488, Note_on_c, 2, 76, 62
4, 28509, Note_off_c, 2, 76, 0
4, 28512, Note_on_c, 2, 77, 62
4, 28533, Note_off_c, 2, 77, 0
4, 28536, Note_on_c, 2, 71, 62
4, 28557, Note_off_c, 2, 71, 0
4, 28560, Note_on_c, 2, 76, 62
4, 28581, Note_off_c, 2, 76, 0
4, 28584, Note_on_c, 2, 74, 62
4, 28605, Note_off_c, 2, 74, 0
4, 28608, Note_on_c, 2, 76, 62
4, 28629, Note_off_c, 2, 76, 0
4, 28632, Note_on_c, 2, 74, 62
4, 28653, Note_off_c, 2, 74, 0
4, 28656, Note_on_c, 2, 76, 62
4, 28677, Note_off_c, 2, 76, 0
4, 28680, Note_on_c, 2, 74, 62
4, 28701, Note_off_c, 2, 74, 0
4, 28704, Note_on_c, 2, 76, 62
4, 28725, Note_off_c, 2, 76, 0
4, 28728, Note_on_c, 2, 69, 62
4, 28749, Note_off_c, 2, 69, 0
4, 28752, Note_on_c, 2, 81, 62
4, 28773, Note_off_c, 2, 81, 0
4, 28776, Note_on_c, 2, 79, 62
4, 28797, Note_off_c, 2, 79, 0
4, 28800, Note_on_c, 2, 77, 62
4, 28821, Note_off_c, 2, 77, 0
4, 28824, Note_on_c, 2, 76, 62
4, 28845, Note_off_c, 2, 76, 0
4, 28848, Note_on_c, 2, 74, 62
4, 28869, Note_off_c, 2, 74, 0
4, 28872, Note_on_c, 2, 72, 62
4, 28893, Note_off_c, 2, 72, 0
4, 28896, Note_on_c, 2, 71, 62
4, 28917, Note_off_c, 2, 71, 0
4, 28920, Note_on_c, 2, 69, 62
4, 28941, Note_off_c, 2, 69, 0
4, 28944, Note_on_c, 2, 67, 62
4, 28965, Note_off_c, 2, 67, 0
4, 28968, Note_on_c, 2, 69, 62
4, 28989, Note_off_c, 2, 69, 0
4, 28992, Note_on_c, 2, 71, 62
4, 29013, Note_off_c, 2, 71, 0
4, 29016, Note_on_c, 2, 72, 62
4, 29037, Note_off_c, 2, 72, 0
4, 29040, Note_on_c, 2, 74, 62
4, 29061, Note_off_c, 2, 74, 0
4, 29064, Note_on_c, 2, 76, 62
4, 29085, Note_off_c, 2, 76, 0
4, 29088, Note_on_c, 2, 77, 62
4, 29151, Note_off_c, 2, 77, 0
4, 29160, Note_on_c, 2, 79, 62
4, 29181, Note_off_c, 2, 79, 0
4, 29184, Note_on_c, 2, 74, 62
4, 29247, Note_off_c, 2, 74, 0
4, 29256, Note_on_c, 2, 72, 62
4, 29277, Note_off_c, 2, 72, 0
4, 29280, Note_on_c, 2, 72, 62
4, 29322, Note_off_c, 2, 72, 0
4, 29328, Note_on_c, 2, 67, 62
4, 29370, Note_off_c, 2, 67, 0
4, 29376, Note_on_c, 2, 69, 62
4, 29418, Note_off_c, 2, 69, 0
4, 29424, Note_on_c, 2, 70, 62
4, 29466, Note_off_c, 2, 70, 0
4, 29472, Note_on_c, 2, 72, 62
4, 29514, Note_off_c, 2, 72, 0
4, 29520, Note_on_c, 2, 74, 62
4, 29541, Note_off_c, 2, 74, 0
4, 29544, Note_on_c, 2, 75, 62
4, 29565, Note_off_c, 2, 75, 0
4, 29568, Note_on_c, 2, 74, 62
4, 29589, Note_off_c, 2, 74, 0
4, 29592, Note_on_c, 2, 72, 62
4, 29613, Note_off_c, 2, 72, 0
4, 29616, Note_on_c, 2, 70, 62
4, 29637, Note_off_c, 2, 70, 0
4, 29640, Note_on_c, 2, 69, 62
4, 29661, Note_off_c, 2, 69, 0
4, 29664, Note_on_c, 2, 70, 62
4, 29706, Note_off_c, 2, 70, 0
4, 29904, Note_on_c, 2, 81, 62
4, 29925, Note_off_c, 2, 81, 0
4, 29928, Note_on_c, 2, 82, 62
4, 29949, Note_off_c, 2, 82, 0
4, 29952, Note_on_c, 2, 81, 62
4, 29973, Note_off_c, 2, 81, 0
4, 29976, Note_on_c, 2, 79, 62
4, 29997, Note_off_c, 2, 79, 0
4, 30000, Note_on_c, 2, 77, 62
4, 30021, Note_off_c, 2, 77, 0
4, 30024, Note_on_c, 2, 76, 62
4, 30045, Note_off_c, 2, 76, 0
4, 30048, Note_on_c, 2, 77, 62
4, 30069, Note_off_c, 2, 77, 0
4, 30072, Note_on_c, 2, 74, 62
4, 30093, Note_off_c, 2, 74, 0
4, 30096, Note_on_c, 2, 82, 62
4, 30117, Note_off_c, 2, 82, 0
4, 30120, Note_on_c, 2, 84, 62
4, 30141, Note_off_c, 2, 84, 0
4, 30144, Note_on_c, 2, 82, 62
4, 30165, Note_off_c, 2, 82, 0
4, 30168, Note_on_c, 2, 81, 62
4, 30189, Note_off_c, 2, 81, 0
4, 30192, Note_on_c, 2, 79, 62
4, 30213, Note_off_c, 2, 79, 0
4, 30216, Note_on_c, 2, 77, 62
4, 30237, Note_off_c, 2, 77, 0
4, 30240, Note_on_c, 2, 76, 62
4, 30282, Note_off_c, 2, 76, 0
4, 30288, Note_on_c, 2, 79, 62
4, 30309, Note_off_c, 2, 79, 0
4, 30312, Note_on_c, 2, 77, 62
4, 30333, Note_off_c, 2, 77, 0
4, 30336, Note_on_c, 2, 79, 62
4, 30357, Note_off_c, 2, 79, 0
4, 30360, Note_on_c, 2, 77, 62
4, 30381, Note_off_c, 2, 77, 0
4, 30384, Note_on_c, 2, 79, 62
4, 30405, Note_off_c, 2, 79, 0
4, 30408, Note_on_c, 2, 77, 62
4, 30429, Note_off_c, 2, 77, 0
4, 30432, Note_on_c, 2, 79, 62
4, 30474, Note_off_c, 2, 79, 0
4, 30480, Note_on_c, 2, 72, 62
4, 30501, Note_off_c, 2, 72, 0
4, 30504, Note_on_c, 2, 74, 62
4, 30525, Note_off_c, 2, 74, 0
4, 30528, Note_on_c, 2, 72, 62
4, 30549, Note_off_c, 2, 72, 0
4, 30552, Note_on_c, 2, 70, 62
4, 30573, Note_off_c, 2, 70, 0
4, 30576, Note_on_c, 2, 69, 62
4, 30597, Note_off_c, 2, 69, 0
4, 30600, Note_on_c, 2, 67, 62
4, 30621, Note_off_c, 2, 67, 0
4, 30624, Note_on_c, 2, 69, 62
4, 30666, Note_off_c, 2, 69, 0
4, 30672, Note_on_c, 2, 84, 62
4, 30693, Note_off_c, 2, 84, 0
4, 30696, Note_on_c, 2, 82, 62
4, 30717, Note_off_c, 2, 82, 0
4, 30720, Note_on_c, 2, 84, 62
4, 30741, Note_off_c, 2, 84, 0
4, 30744, Note_on_c, 2, 82, 62
4, 30765, Note_off_c, 2, 82, 0
4, 30768, Note_on_c, 2, 84, 62
4, 30789, Note_off_c, 2, 84, 0
4, 30792, Note_on_c, 2, 82, 62
4, 30813, Note_off_c, 2, 82, 0
4, 30816, Note_on_c, 2, 84, 62
4, 30858, Note_off_c, 2, 84, 0
4, 30864, Note_on_c, 2, 77, 62
4, 30885, Note_off_c, 2, 77, 0
4, 30888, Note_on_c, 2, 79, 62
4, 30909, Note_off_c, 2, 79, 0
4, 30912, Note_on_c, 2, 77, 62
4, 30933, Note_off_c, 2, 77, 0
4, 30936, Note_on_c, 2, 75, 62
4, 30957, Note_off_c, 2, 75, 0
4, 30960, Note_on_c, 2, 74, 62
4, 30981, Note_off_c, 2, 74, 0
4, 30984, Note_on_c, 2, 72, 62
4, 31005, Note_off_c, 2, 72, 0
4, 31008, Note_on_c, 2, 74, 62
4, 31050, Note_off_c, 2, 74, 0
4, 31056, Note_on_c, 2, 79, 62
4, 31077, Note_off_c, 2, 79, 0
4, 31080, Note_on_c, 2, 81, 62
4, 31101, Note_off_c, 2, 81, 0
4, 31104, Note_on_c, 2, 79, 62
4, 31125, Note_off_c, 2, 79, 0
4, 31128, Note_on_c, 2, 77, 62
4, 31149, Note_off_c, 2, 77, 0
4, 31152, Note_on_c, 2, 76, 62
4, 31173, Note_off_c, 2, 76, 0
4, 31176, Note_on_c, 2, 74, 62
4, 31197, Note_off_c, 2, 74, 0
4, 31200, Note_on_c, 2, 72, 62
4, 31263, Note_off_c, 2, 72, 0
4, 31272, Note_on_c, 2, 74, 62
4, 31293, Note_off_c, 2, 74, 0
4, 31296, Note_on_c, 2, 76, 62
4, 31317, Note_off_c, 2, 76, 0
4, 31320, Note_on_c, 2, 77, 62
4, 31341, Note_off_c, 2, 77, 0
4, 31344, Note_on_c, 2, 79, 62
4, 31365, Note_off_c, 2, 79, 0
4, 31368, Note_on_c, 2, 81, 62
4, 31389, Note_off_c, 2, 81, 0
4, 31392, Note_on_c, 2, 82, 62
4, 31413, Note_off_c, 2, 82, 0
4, 31416, Note_on_c, 2, 84, 62
4, 31426, Note_off_c, 2, 84, 0
4, 31428, Note_on_c, 2, 82, 62
4, 31438, Note_off_c, 2, 82, 0
4, 31440, Note_on_c, 2, 81, 62
4, 31450, Note_off_c, 2, 81, 0
4, 31452, Note_on_c, 2, 82, 62
4, 31462, Note_off_c, 2, 82, 0
4, 31464, Note_on_c, 2, 84, 62
4, 31485, Note_off_c, 2, 84, 0
4, 31488, Note_on_c, 2, 79, 62
4, 31551, Note_off_c, 2, 79, 0
4, 31560, Note_on_c, 2, 77, 62
4, 31581, Note_off_c, 2, 77, 0
4, 31584, Note_on_c, 2, 77, 62
4, 31605, Note_off_c, 2, 77, 0
4, 31608, Note_on_c, 2, 76, 62
4, 31629, Note_off_c, 2, 76, 0
4, 31632, Note_on_c, 2, 77, 62
4, 31653, Note_off_c, 2, 77, 0
4, 31656, Note_on_c, 2, 76, 62
4, 31677, Note_off_c, 2, 76, 0
4, 31680, Note_on_c, 2, 74, 62
4, 31701, Note_off_c, 2, 74, 0
4, 31704, Note_on_c, 2, 72, 62
4, 31725, Note_off_c, 2, 72, 0
4, 31728, Note_on_c, 2, 74, 62
4, 31749, Note_off_c, 2, 74, 0
4, 31752, Note_on_c, 2, 72, 62
4, 31773, Note_off_c, 2, 72, 0
4, 31776, Note_on_c, 2, 70, 62
4, 31797, Note_off_c, 2, 70, 0
4, 31800, Note_on_c, 2, 72, 62
4, 31810, Note_off_c, 2, 72, 0
4, 31812, Note_on_c, 2, 70, 62
4, 31822, Note_off_c, 2, 70, 0
4, 31824, Note_on_c, 2, 69, 62
4, 31834, Note_off_c, 2, 69, 0
4, 31836, Note_on_c, 2, 70, 62
4, 31846, Note_off_c, 2, 70, 0
4, 31848, Note_on_c, 2, 72, 62
4, 31869, Note_off_c, 2, 72, 0
4, 31872, Note_on_c, 2, 67, 62
4, 31935, Note_off_c, 2, 67, 0
4, 31944, Note_on_c, 2, 65, 62
4, 31965, Note_off_c, 2, 65, 0
4, 31968, Note_on_c, 2, 65, 62
4, 32010, Note_off_c, 2, 65, 0
4, 32016, Note_on_c, 2, 77, 62
4, 32037, Note_off_c, 2, 77, 0
4, 32040, Note_on_c, 2, 76, 62
4, 32061, Note_off_c, 2, 76, 0
4, 32064, Note_on_c, 2, 77, 62
4, 32085, Note_off_c, 2, 77, 0
4, 32088, Note_on_c, 2, 76, 62
4, 32109, Note_off_c, 2, 76, 0
4, 32112, Note_on_c, 2, 77, 62
4, 32133, Note_off_c, 2, 77, 0
4, 32136, Note_on_c, 2, 76, 62
4, 32157, Note_off_c, 2, 76, 0
4, 32160, Note_on_c, 2, 77, 62
4, 32340, Note_off_c, 2, 77, 0
4, 32340, End_track
5, 0, Start_track
5, 0, Title_t, "Oboe II (D H Goforth)"
5, 0, Control_c, 3, 0, 0
5, 0, Program_c, 3, 68
5, 0, Time_signature, 4, 2, 96, 8
5, 0, Tempo, 681818
5, 144, Note_on_c, 3, 72, 62
5, 165, Note_off_c, 3, 72, 0
5, 168, Note_on_c, 3, 70, 62
5, 189, Note_off_c, 3, 70, 0
5, 192, Note_on_c, 3, 72, 62
5, 213, Note_off_c, 3, 72, 0
5, 216, Note_on_c, 3, 70, 62
5, 237, Note_off_c, 3, 70, 0
5, 240, Note_on_c, 3, 72, 62
5, 261, Note_off_c, 3, 72, 0
5, 264, Note_on_c, 3, 70, 62
5, 285, Note_off_c, 3, 70, 0
5, 288, Note_on_c, 3, 69, 62
5, 309, Note_off_c, 3, 69, 0
5, 312, Note_on_c, 3, 67, 62
5, 333, Note_off_c, 3, 67, 0
5, 336, Note_on_c, 3, 69, 62
5, 357, Note_off_c, 3, 69, 0
5, 360, Note_on_c, 3, 67, 62
5, 381, Note_off_c, 3, 67, 0
5, 384, Note_on_c, 3, 69, 62
5, 405, Note_off_c, 3, 69, 0
5, 408, Note_on_c, 3, 67, 62
5, 429, Note_off_c, 3, 67, 0
5, 432, Note_on_c, 3, 69, 62
5, 453, Note_off_c, 3, 69, 0
5, 456, Note_on_c, 3, 67, 62
5, 477, Note_off_c, 3, 67, 0
5, 480, Note_on_c, 3, 65, 62
5, 522, Note_off_c, 3, 65, 0
5, 528, Note_on_c, 3, 69, 62
5, 549, Note_off_c, 3, 69, 0
5, 552, Note_on_c, 3, 67, 62
5, 573, Note_off_c, 3, 67, 0
5, 576, Note_on_c, 3, 65, 62
5, 597, Note_off_c, 3, 65, 0
5, 600, Note_on_c, 3, 67, 62
5, 621, Note_off_c, 3, 67, 0
5, 624, Note_on_c, 3, 69, 62
5, 645, Note_off_c, 3, 69, 0
5, 648, Note_on_c, 3, 65, 62
5, 669, Note_off_c, 3, 65, 0
5, 672, Note_on_c, 3, 67, 62
5, 714, Note_off_c, 3, 67, 0
5, 720, Note_on_c, 3, 72, 62
5, 762, Note_off_c, 3, 72, 0
5, 768, Note_on_c, 3, 72, 62
5, 810, Note_off_c, 3, 72, 0
5, 816, Note_on_c, 3, 71, 62
5, 858, Note_off_c, 3, 71, 0
5, 864, Note_on_c, 3, 72, 62
5, 885, Note_off_c, 3, 72, 0
5, 888, Note_on_c, 3, 74, 62
5, 909, Note_off_c, 3, 74, 0
5, 912, Note_on_c, 3, 72, 62
5, 933, Note_off_c, 3, 72, 0
5, 936, Note_on_c, 3, 74, 62
5, 957, Note_off_c, 3, 74, 0
5, 960, Note_on_c, 3, 76, 62
5, 1098, Note_off_c, 3, 76, 0
5, 1104, Note_on_c, 3, 74, 62
5, 1125, Note_off_c, 3, 74, 0
5, 1128, Note_on_c, 3, 72, 62
5, 1149, Note_off_c, 3, 72, 0
5, 1152, Note_on_c, 3, 74, 62
5, 1290, Note_off_c, 3, 74, 0
5, 1296, Note_on_c, 3, 72, 62
5, 1317, Note_off_c, 3, 72, 0
5, 1320, Note_on_c, 3, 71, 62
5, 1341, Note_off_c, 3, 71, 0
5, 1344, Note_on_c, 3, 72, 62
5, 1461, Note_off_c, 3, 72, 0
5, 1464, Note_on_c, 3, 74, 62
5, 1485, Note_off_c, 3, 74, 0
5, 1488, Note_on_c, 3, 72, 62
5, 1509, Note_off_c, 3, 72, 0
5, 1512, Note_on_c, 3, 70, 62
5, 1533, Note_off_c, 3, 70, 0
5, 1536, Note_on_c, 3, 69, 62
5, 1557, Note_off_c, 3, 69, 0
5, 1560, Note_on_c, 3, 67, 62
5, 1581, Note_off_c, 3, 67, 0
5, 1584, Note_on_c, 3, 65, 62
5, 1605, Note_off_c, 3, 65, 0
5, 1608, Note_on_c, 3, 64, 62
5, 1629, Note_off_c, 3, 64, 0
5, 1632, Note_on_c, 3, 62, 62
5, 1716, Note_off_c, 3, 62, 0
5, 1776, Note_on_c, 3, 77, 62
5, 1818, Note_off_c, 3, 77, 0
5, 1824, Note_on_c, 3, 71, 62
5, 1866, Note_off_c, 3, 71, 0
5, 1872, Note_on_c, 3, 72, 62
5, 1893, Note_off_c, 3, 72, 0
5, 1896, Note_on_c, 3, 74, 62
5, 1917, Note_off_c, 3, 74, 0
5, 1920, Note_on_c, 3, 71, 62
5, 1983, Note_off_c, 3, 71, 0
5, 1992, Note_on_c, 3, 72, 62
5, 2013, Note_off_c, 3, 72, 0
5, 2016, Note_on_c, 3, 72, 62
5, 2058, Note_off_c, 3, 72, 0
5, 2064, Note_on_c, 3, 64, 62
5, 2106, Note_off_c, 3, 64, 0
5, 2112, Note_on_c, 3, 66, 62
5, 2154, Note_off_c, 3, 66, 0
5, 2160, Note_on_c, 3, 67, 62
5, 2202, Note_off_c, 3, 67, 0
5, 2208, Note_on_c, 3, 69, 62
5, 2250, Note_off_c, 3, 69, 0
5, 2256, Note_on_c, 3, 66, 62
5, 2298, Note_off_c, 3, 66, 0
5, 2304, Note_on_c, 3, 67, 62
5, 2346, Note_off_c, 3, 67, 0
5, 2352, Note_on_c, 3, 69, 62
5, 2394, Note_off_c, 3, 69, 0
5, 2400, Note_on_c, 3, 62, 62
5, 2442, Note_off_c, 3, 62, 0
5, 2640, Note_on_c, 3, 72, 62
5, 2682, Note_off_c, 3, 72, 0
5, 2688, Note_on_c, 3, 74, 62
5, 2730, Note_off_c, 3, 74, 0
5, 2736, Note_on_c, 3, 76, 62
5, 2778, Note_off_c, 3, 76, 0
5, 2784, Note_on_c, 3, 69, 62
5, 2826, Note_off_c, 3, 69, 0
5, 2832, Note_on_c, 3, 74, 62
5, 2853, Note_off_c, 3, 74, 0
5, 2856, Note_on_c, 3, 75, 62
5, 2877, Note_off_c, 3, 75, 0
5, 2880, Note_on_c, 3, 74, 62
5, 2901, Note_off_c, 3, 74, 0
5, 2904, Note_on_c, 3, 72, 62
5, 2925, Note_off_c, 3, 72, 0
5, 2928, Note_on_c, 3, 70, 62
5, 2949, Note_off_c, 3, 70, 0
5, 2952, Note_on_c, 3, 69, 62
5, 2973, Note_off_c, 3, 69, 0
5, 2976, Note_on_c, 3, 67, 62
5, 3018, Note_off_c, 3, 67, 0
5, 3024, Note_on_c, 3, 76, 62
5, 3045, Note_off_c, 3, 76, 0
5, 3048, Note_on_c, 3, 74, 62
5, 3069, Note_off_c, 3, 74, 0
5, 3072, Note_on_c, 3, 76, 62
5, 3093, Note_off_c, 3, 76, 0
5, 3096, Note_on_c, 3, 74, 62
5, 3117, Note_off_c, 3, 74, 0
5, 3120, Note_on_c, 3, 76, 62
5, 3141, Note_off_c, 3, 76, 0
5, 3144, Note_on_c, 3, 74, 62
5, 3165, Note_off_c, 3, 74, 0
5, 3168, Note_on_c, 3, 76, 62
5, 3210, Note_off_c, 3, 76, 0
5, 3216, Note_on_c, 3, 64, 62
5, 3258, Note_off_c, 3, 64, 0
5, 3264, Note_on_c, 3, 65, 62
5, 3306, Note_off_c, 3, 65, 0
5, 3312, Note_on_c, 3, 67, 62
5, 3354, Note_off_c, 3, 67, 0
5, 3360, Note_on_c, 3, 60, 62
5, 3402, Note_off_c, 3, 60, 0
5, 3408, Note_on_c, 3, 81, 62
5, 3429, Note_off_c, 3, 81, 0
5, 3432, Note_on_c, 3, 79, 62
5, 3453, Note_off_c, 3, 79, 0
5, 3456, Note_on_c, 3, 81, 62
5, 3477, Note_off_c, 3, 81, 0
5, 3480, Note_on_c, 3, 79, 62
5, 3501, Note_off_c, 3, 79, 0
5, 3504, Note_on_c, 3, 81, 62
5, 3525, Note_off_c, 3, 81, 0
5, 3528, Note_on_c, 3, 79, 62
5, 3549, Note_off_c, 3, 79, 0
5, 3552, Note_on_c, 3, 81, 62
5, 3594, Note_off_c, 3, 81, 0
5, 3600, Note_on_c, 3, 69, 62
5, 3642, Note_off_c, 3, 69, 0
5, 3648, Note_on_c, 3, 70, 62
5, 3690, Note_off_c, 3, 70, 0
5, 3696, Note_on_c, 3, 72, 62
5, 3738, Note_off_c, 3, 72, 0
5, 3744, Note_on_c, 3, 65, 62
5, 3786, Note_off_c, 3, 65, 0
5, 3792, Note_on_c, 3, 74, 62
5, 3813, Note_off_c, 3, 74, 0
5, 3816, Note_on_c, 3, 75, 62
5, 3837, Note_off_c, 3, 75, 0
5, 3840, Note_on_c, 3, 74, 62
5, 3882, Note_off_c, 3, 74, 0
5, 3888, Note_on_c, 3, 70, 62
5, 3930, Note_off_c, 3, 70, 0
5, 3936, Note_on_c, 3, 67, 62
5, 3999, Note_off_c, 3, 67, 0
5, 4008, Note_on_c, 3, 69, 62
5, 4029, Note_off_c, 3, 69, 0
5, 4032, Note_on_c, 3, 70, 62
5, 4053, Note_off_c, 3, 70, 0
5, 4056, Note_on_c, 3, 69, 62
5, 4077, Note_off_c, 3, 69, 0
5, 4080, Note_on_c, 3, 67, 62
5, 4101, Note_off_c, 3, 67, 0
5, 4104, Note_on_c, 3, 65, 62
5, 4125, Note_off_c, 3, 65, 0
5, 4128, Note_on_c, 3, 64, 62
5, 4170, Note_off_c, 3, 64, 0
5, 4176, Note_on_c, 3, 65, 62
5, 4197, Note_off_c, 3, 65, 0
5, 4200, Note_on_c, 3, 67, 62
5, 4221, Note_off_c, 3, 67, 0
5, 4224, Note_on_c, 3, 64, 62
5, 4287, Note_off_c, 3, 64, 0
5, 4296, Note_on_c, 3, 65, 62
5, 4317, Note_off_c, 3, 65, 0
5, 4320, Note_on_c, 3, 65, 62
5, 4362, Note_off_c, 3, 65, 0
5, 4368, Note_on_c, 3, 69, 62
5, 4410, Note_off_c, 3, 69, 0
5, 4416, Note_on_c, 3, 70, 62
5, 4458, Note_off_c, 3, 70, 0
5, 4464, Note_on_c, 3, 62, 62
5, 4506, Note_off_c, 3, 62, 0
5, 4512, Note_on_c, 3, 62, 62
5, 4533, Note_off_c, 3, 62, 0
5, 4536, Note_on_c, 3, 64, 62
5, 4557, Note_off_c, 3, 64, 0
5, 4560, Note_on_c, 3, 65, 62
5, 4581, Note_off_c, 3, 65, 0
5, 4584, Note_on_c, 3, 67, 62
5, 4605, Note_off_c, 3, 67, 0
5, 4608, Note_on_c, 3, 64, 62
5, 4671, Note_off_c, 3, 64, 0
5, 4680, Note_on_c, 3, 65, 62
5, 4701, Note_off_c, 3, 65, 0
5, 4704, Note_on_c, 3, 65, 62
5, 4746, Note_off_c, 3, 65, 0
5, 4752, Note_on_c, 3, 60, 62
5, 4794, Note_off_c, 3, 60, 0
5, 4800, Note_on_c, 3, 65, 62
5, 4842, Note_off_c, 3, 65, 0
5, 4848, Note_on_c, 3, 69, 62
5, 4890, Note_off_c, 3, 69, 0
5, 4896, Note_on_c, 3, 74, 62
5, 4938, Note_off_c, 3, 74, 0
5, 4944, Note_on_c, 3, 72, 62
5, 4986, Note_off_c, 3, 72, 0
5, 4992, Note_on_c, 3, 70, 62
5, 5034, Note_off_c, 3, 70, 0
5, 5040, Note_on_c, 3, 67, 62
5, 5082, Note_off_c, 3, 67, 0
5, 5088, Note_on_c, 3, 65, 62
5, 5130, Note_off_c, 3, 65, 0
5, 5136, Note_on_c, 3, 72, 62
5, 5157, Note_off_c, 3, 72, 0
5, 5160, Note_on_c, 3, 70, 62
5, 5181, Note_off_c, 3, 70, 0
5, 5184, Note_on_c, 3, 72, 62
5, 5205, Note_off_c, 3, 72, 0
5, 5208, Note_on_c, 3, 70, 62
5, 5229, Note_off_c, 3, 70, 0
5, 5232, Note_on_c, 3, 72, 62
5, 5253, Note_off_c, 3, 72, 0
5, 5256, Note_on_c, 3, 70, 62
5, 5277, Note_off_c, 3, 70, 0
5, 5280, Note_on_c, 3, 72, 62
5, 5364, Note_off_c, 3, 72, 0
5, 5520, Note_on_c, 3, 67, 62
5, 5562, Note_off_c, 3, 67, 0
5, 5568, Note_on_c, 3, 72, 62
5, 5610, Note_off_c, 3, 72, 0
5, 5616, Note_on_c, 3, 74, 62
5, 5658, Note_off_c, 3, 74, 0
5, 5664, Note_on_c, 3, 72, 62
5, 5706, Note_off_c, 3, 72, 0
5, 5712, Note_on_c, 3, 76, 62
5, 5733, Note_off_c, 3, 76, 0
5, 5736, Note_on_c, 3, 74, 62
5, 5757, Note_off_c, 3, 74, 0
5, 5760, Note_on_c, 3, 76, 62
5, 5781, Note_off_c, 3, 76, 0
5, 5784, Note_on_c, 3, 74, 62
5, 5805, Note_off_c, 3, 74, 0
5, 5808, Note_on_c, 3, 76, 62
5, 5829, Note_off_c, 3, 76, 0
5, 5832, Note_on_c, 3, 74, 62
5, 5853, Note_off_c, 3, 74, 0
5, 5856, Note_on_c, 3, 72, 62
5, 5940, Note_off_c, 3, 72, 0
5, 6000, Note_on_c, 3, 72, 62
5, 6042, Note_off_c, 3, 72, 0
5, 6048, Note_on_c, 3, 69, 62
5, 6132, Note_off_c, 3, 69, 0
5, 6192, Note_on_c, 3, 74, 62
5, 6234, Note_off_c, 3, 74, 0
5, 6240, Note_on_c, 3, 71, 62
5, 6324, Note_off_c, 3, 71, 0
5, 6384, Note_on_c, 3, 76, 62
5, 6426, Note_off_c, 3, 76, 0
5, 6432, Note_on_c, 3, 72, 62
5, 6453, Note_off_c, 3, 72, 0
5, 6456, Note_on_c, 3, 71, 62
5, 6477, Note_off_c, 3, 71, 0
5, 6480, Note_on_c, 3, 72, 62
5, 6501, Note_off_c, 3, 72, 0
5, 6504, Note_on_c, 3, 74, 62
5, 6525, Note_off_c, 3, 74, 0
5, 6528, Note_on_c, 3, 67, 62
5, 6570, Note_off_c, 3, 67, 0
5, 6576, Note_on_c, 3, 67, 62
5, 6618, Note_off_c, 3, 67, 0
5, 6624, Note_on_c, 3, 67, 62
5, 6708, Note_off_c, 3, 67, 0
5, 7056, Note_on_c, 3, 74, 62
5, 7098, Note_off_c, 3, 74, 0
5, 7104, Note_on_c, 3, 73, 62
5, 7146, Note_off_c, 3, 73, 0
5, 7152, Note_on_c, 3, 74, 62
5, 7194, Note_off_c, 3, 74, 0
5, 7200, Note_on_c, 3, 76, 62
5, 7242, Note_off_c, 3, 76, 0
5, 7248, Note_on_c, 3, 73, 62
5, 7290, Note_off_c, 3, 73, 0
5, 7296, Note_on_c, 3, 74, 62
5, 7338, Note_off_c, 3, 74, 0
5, 7344, Note_on_c, 3, 76, 62
5, 7386, Note_off_c, 3, 76, 0
5, 7392, Note_on_c, 3, 69, 62
5, 7476, Note_off_c, 3, 69, 0
5, 7800, Note_on_c, 3, 69, 62
5, 7821, Note_off_c, 3, 69, 0
5, 7824, Note_on_c, 3, 70, 62
5, 7845, Note_off_c, 3, 70, 0
5, 7848, Note_on_c, 3, 72, 62
5, 7869, Note_off_c, 3, 72, 0
5, 7872, Note_on_c, 3, 74, 62
5, 8010, Note_off_c, 3, 74, 0
5, 8016, Note_on_c, 3, 72, 62
5, 8037, Note_off_c, 3, 72, 0
5, 8040, Note_on_c, 3, 70, 62
5, 8061, Note_off_c, 3, 70, 0
5, 8064, Note_on_c, 3, 72, 62
5, 8202, Note_off_c, 3, 72, 0
5, 8208, Note_on_c, 3, 70, 62
5, 8229, Note_off_c, 3, 70, 0
5, 8232, Note_on_c, 3, 69, 62
5, 8253, Note_off_c, 3, 69, 0
5, 8256, Note_on_c, 3, 70, 62
5, 8373, Note_off_c, 3, 70, 0
5, 8376, Note_on_c, 3, 72, 62
5, 8397, Note_off_c, 3, 72, 0
5, 8400, Note_on_c, 3, 70, 62
5, 8421, Note_off_c, 3, 70, 0
5, 8424, Note_on_c, 3, 68, 62
5, 8445, Note_off_c, 3, 68, 0
5, 8448, Note_on_c, 3, 67, 62
5, 8469, Note_off_c, 3, 67, 0
5, 8472, Note_on_c, 3, 65, 62
5, 8493, Note_off_c, 3, 65, 0
5, 8496, Note_on_c, 3, 63, 62
5, 8517, Note_off_c, 3, 63, 0
5, 8520, Note_on_c, 3, 62, 62
5, 8541, Note_off_c, 3, 62, 0
5, 8544, Note_on_c, 3, 60, 62
5, 8628, Note_off_c, 3, 60, 0
5, 8688, Note_on_c, 3, 75, 62
5, 8730, Note_off_c, 3, 75, 0
5, 8736, Note_on_c, 3, 69, 62
5, 8778, Note_off_c, 3, 69, 0
5, 8784, Note_on_c, 3, 70, 62
5, 8805, Note_off_c, 3, 70, 0
5, 8808, Note_on_c, 3, 72, 62
5, 8829, Note_off_c, 3, 72, 0
5, 8832, Note_on_c, 3, 69, 62
5, 8895, Note_off_c, 3, 69, 0
5, 8904, Note_on_c, 3, 70, 62
5, 8925, Note_off_c, 3, 70, 0
5, 8928, Note_on_c, 3, 70, 62
5, 9012, Note_off_c, 3, 70, 0
5, 9360, Note_on_c, 3, 70, 62
5, 9381, Note_off_c, 3, 70, 0
5, 9384, Note_on_c, 3, 69, 62
5, 9405, Note_off_c, 3, 69, 0
5, 9408, Note_on_c, 3, 70, 62
5, 9429, Note_off_c, 3, 70, 0
5, 9432, Note_on_c, 3, 72, 62
5, 9453, Note_off_c, 3, 72, 0
5, 9456, Note_on_c, 3, 70, 62
5, 9477, Note_off_c, 3, 70, 0
5, 9480, Note_on_c, 3, 69, 62
5, 9501, Note_off_c, 3, 69, 0
5, 9504, Note_on_c, 3, 67, 62
5, 9546, Note_off_c, 3, 67, 0
5, 9552, Note_on_c, 3, 69, 62
5, 9573, Note_off_c, 3, 69, 0
5, 9576, Note_on_c, 3, 67, 62
5, 9597, Note_off_c, 3, 67, 0
5, 9600, Note_on_c, 3, 69, 62
5, 9621, Note_off_c, 3, 69, 0
5, 9624, Note_on_c, 3, 70, 62
5, 9645, Note_off_c, 3, 70, 0
5, 9648, Note_on_c, 3, 69, 62
5, 9669, Note_off_c, 3, 69, 0
5, 9672, Note_on_c, 3, 67, 62
5, 9693, Note_off_c, 3, 67, 0
5, 9696, Note_on_c, 3, 65, 62
5, 9780, Note_off_c, 3, 65, 0
5, 10128, Note_on_c, 3, 69, 62
5, 10149, Note_off_c, 3, 69, 0
5, 10152, Note_on_c, 3, 67, 62
5, 10173, Note_off_c, 3, 67, 0
5, 10176, Note_on_c, 3, 69, 62
5, 10197, Note_off_c, 3, 69, 0
5, 10200, Note_on_c, 3, 67, 62
5, 10221, Note_off_c, 3, 67, 0
5, 10224, Note_on_c, 3, 65, 62
5, 10245, Note_off_c, 3, 65, 0
5, 10248, Note_on_c, 3, 67, 62
5, 10269, Note_off_c, 3, 67, 0
5, 10272, Note_on_c, 3, 65, 62
5, 10293, Note_off_c, 3, 65, 0
5, 10296, Note_on_c, 3, 64, 62
5, 10317, Note_off_c, 3, 64, 0
5, 10320, Note_on_c, 3, 65, 62
5, 10341, Note_off_c, 3, 65, 0
5, 10344, Note_on_c, 3, 64, 62
5, 10365, Note_off_c, 3, 64, 0
5, 10368, Note_on_c, 3, 65, 62
5, 10389, Note_off_c, 3, 65, 0
5, 10392, Note_on_c, 3, 64, 62
5, 10413, Note_off_c, 3, 64, 0
5, 10416, Note_on_c, 3, 65, 62
5, 10437, Note_off_c, 3, 65, 0
5, 10440, Note_on_c, 3, 64, 62
5, 10461, Note_off_c, 3, 64, 0
5, 10464, Note_on_c, 3, 62, 62
5, 10506, Note_off_c, 3, 62, 0
5, 10512, Note_on_c, 3, 65, 62
5, 10533, Note_off_c, 3, 65, 0
5, 10536, Note_on_c, 3, 64, 62
5, 10557, Note_off_c, 3, 64, 0
5, 10560, Note_on_c, 3, 62, 62
5, 10581, Note_off_c, 3, 62, 0
5, 10584, Note_on_c, 3, 64, 62
5, 10605, Note_off_c, 3, 64, 0
5, 10608, Note_on_c, 3, 65, 62
5, 10629, Note_off_c, 3, 65, 0
5, 10632, Note_on_c, 3, 62, 62
5, 10653, Note_off_c, 3, 62, 0
5, 10656, Note_on_c, 3, 64, 62
5, 10698, Note_off_c, 3, 64, 0
5, 10704, Note_on_c, 3, 69, 62
5, 10746, Note_off_c, 3, 69, 0
5, 10752, Note_on_c, 3, 65, 62
5, 10794, Note_off_c, 3, 65, 0
5, 10800, Note_on_c, 3, 70, 62
5, 10842, Note_off_c, 3, 70, 0
5, 10848, Note_on_c, 3, 69, 62
5, 10890, Note_off_c, 3, 69, 0
5, 10896, Note_on_c, 3, 73, 62
5, 10917, Note_off_c, 3, 73, 0
5, 10920, Note_on_c, 3, 71, 62
5, 10941, Note_off_c, 3, 71, 0
5, 10944, Note_on_c, 3, 73, 62
5, 10965, Note_off_c, 3, 73, 0
5, 10968, Note_on_c, 3, 71, 62
5, 10989, Note_off_c, 3, 71, 0
5, 10992, Note_on_c, 3, 73, 62
5, 11013, Note_off_c, 3, 73, 0
5, 11016, Note_on_c, 3, 71, 62
5, 11037, Note_off_c, 3, 71, 0
5, 11040, Note_on_c, 3, 73, 62
5, 11082, Note_off_c, 3, 73, 0
5, 11088, Note_on_c, 3, 73, 62
5, 11130, Note_off_c, 3, 73, 0
5, 11136, Note_on_c, 3, 74, 62
5, 11178, Note_off_c, 3, 74, 0
5, 11184, Note_on_c, 3, 76, 62
5, 11226, Note_off_c, 3, 76, 0
5, 11232, Note_on_c, 3, 69, 62
5, 11274, Note_off_c, 3, 69, 0
5, 11280, Note_on_c, 3, 78, 62
5, 11301, Note_off_c, 3, 78, 0
5, 11304, Note_on_c, 3, 76, 62
5, 11325, Note_off_c, 3, 76, 0
5, 11328, Note_on_c, 3, 78, 62
5, 11349, Note_off_c, 3, 78, 0
5, 11352, Note_on_c, 3, 76, 62
5, 11373, Note_off_c, 3, 76, 0
5, 11376, Note_on_c, 3, 78, 62
5, 11397, Note_off_c, 3, 78, 0
5, 11400, Note_on_c, 3, 76, 62
5, 11421, Note_off_c, 3, 76, 0
5, 11424, Note_on_c, 3, 78, 62
5, 11466, Note_off_c, 3, 78, 0
5, 11472, Note_on_c, 3, 78, 62
5, 11514, Note_off_c, 3, 78, 0
5, 11520, Note_on_c, 3, 79, 62
5, 11562, Note_off_c, 3, 79, 0
5, 11568, Note_on_c, 3, 81, 62
5, 11610, Note_off_c, 3, 81, 0
5, 11616, Note_on_c, 3, 74, 62
5, 11658, Note_off_c, 3, 74, 0
5, 11664, Note_on_c, 3, 72, 62
5, 11706, Note_off_c, 3, 72, 0
5, 11712, Note_on_c, 3, 74, 62
5, 11754, Note_off_c, 3, 74, 0
5, 11760, Note_on_c, 3, 70, 62
5, 11802, Note_off_c, 3, 70, 0
5, 11808, Note_on_c, 3, 69, 62
5, 11850, Note_off_c, 3, 69, 0
5, 11856, Note_on_c, 3, 64, 62
5, 11898, Note_off_c, 3, 64, 0
5, 11904, Note_on_c, 3, 69, 62
5, 11925, Note_off_c, 3, 69, 0
5, 11928, Note_on_c, 3, 71, 62
5, 11949, Note_off_c, 3, 71, 0
5, 11952, Note_on_c, 3, 73, 62
5, 11973, Note_off_c, 3, 73, 0
5, 11976, Note_on_c, 3, 74, 62
5, 11997, Note_off_c, 3, 74, 0
5, 12000, Note_on_c, 3, 76, 62
5, 12021, Note_off_c, 3, 76, 0
5, 12024, Note_on_c, 3, 74, 62
5, 12045, Note_off_c, 3, 74, 0
5, 12048, Note_on_c, 3, 73, 62
5, 12069, Note_off_c, 3, 73, 0
5, 12072, Note_on_c, 3, 74, 62
5, 12093, Note_off_c, 3, 74, 0
5, 12096, Note_on_c, 3, 76, 62
5, 12117, Note_off_c, 3, 76, 0
5, 12120, Note_on_c, 3, 74, 62
5, 12141, Note_off_c, 3, 74, 0
5, 12144, Note_on_c, 3, 73, 62
5, 12165, Note_off_c, 3, 73, 0
5, 12168, Note_on_c, 3, 74, 62
5, 12189, Note_off_c, 3, 74, 0
5, 12192, Note_on_c, 3, 76, 62
5, 12213, Note_off_c, 3, 76, 0
5, 12216, Note_on_c, 3, 69, 62
5, 12237, Note_off_c, 3, 69, 0
5, 12240, Note_on_c, 3, 74, 62
5, 12261, Note_off_c, 3, 74, 0
5, 12264, Note_on_c, 3, 76, 62
5, 12285, Note_off_c, 3, 76, 0
5, 12288, Note_on_c, 3, 73, 62
5, 12351, Note_off_c, 3, 73, 0
5, 12360, Note_on_c, 3, 74, 62
5, 12381, Note_off_c, 3, 74, 0
5, 12384, Note_on_c, 3, 74, 62
5, 12426, Note_off_c, 3, 74, 0
5, 12432, Note_on_c, 3, 74, 62
5, 12474, Note_off_c, 3, 74, 0
5, 12480, Note_on_c, 3, 72, 62
5, 12522, Note_off_c, 3, 72, 0
5, 12528, Note_on_c, 3, 70, 62
5, 12570, Note_off_c, 3, 70, 0
5, 12576, Note_on_c, 3, 69, 62
5, 12618, Note_off_c, 3, 69, 0
5, 12624, Note_on_c, 3, 67, 62
5, 12666, Note_off_c, 3, 67, 0
5, 12672, Note_on_c, 3, 66, 62
5, 12714, Note_off_c, 3, 66, 0
5, 12720, Note_on_c, 3, 62, 62
5, 12762, Note_off_c, 3, 62, 0
5, 12768, Note_on_c, 3, 67, 62
5, 12810, Note_off_c, 3, 67, 0
5, 12816, Note_on_c, 3, 71, 62
5, 12837, Note_off_c, 3, 71, 0
5, 12840, Note_on_c, 3, 69, 62
5, 12861, Note_off_c, 3, 69, 0
5, 12864, Note_on_c, 3, 71, 62
5, 12885, Note_off_c, 3, 71, 0
5, 12888, Note_on_c, 3, 69, 62
5, 12909, Note_off_c, 3, 69, 0
5, 12912, Note_on_c, 3, 71, 62
5, 12933, Note_off_c, 3, 71, 0
5, 12936, Note_on_c, 3, 72, 62
5, 12957, Note_off_c, 3, 72, 0
5, 12960, Note_on_c, 3, 74, 62
5, 12981, Note_off_c, 3, 74, 0
5, 12984, Note_on_c, 3, 72, 62
5, 13005, Note_off_c, 3, 72, 0
5, 13008, Note_on_c, 3, 74, 62
5, 13029, Note_off_c, 3, 74, 0
5, 13032, Note_on_c, 3, 76, 62
5, 13053, Note_off_c, 3, 76, 0
5, 13056, Note_on_c, 3, 74, 62
5, 13077, Note_off_c, 3, 74, 0
5, 13080, Note_on_c, 3, 76, 62
5, 13101, Note_off_c, 3, 76, 0
5, 13104, Note_on_c, 3, 74, 62
5, 13125, Note_off_c, 3, 74, 0
5, 13128, Note_on_c, 3, 76, 62
5, 13149, Note_off_c, 3, 76, 0
5, 13152, Note_on_c, 3, 72, 62
5, 13194, Note_off_c, 3, 72, 0
5, 13584, Note_on_c, 3, 69, 62
5, 13626, Note_off_c, 3, 69, 0
5, 13632, Note_on_c, 3, 72, 62
5, 13674, Note_off_c, 3, 72, 0
5, 13680, Note_on_c, 3, 75, 62
5, 13722, Note_off_c, 3, 75, 0
5, 13776, Note_on_c, 3, 65, 62
5, 13818, Note_off_c, 3, 65, 0
5, 13824, Note_on_c, 3, 70, 62
5, 13866, Note_off_c, 3, 70, 0
5, 13872, Note_on_c, 3, 74, 62
5, 13914, Note_off_c, 3, 74, 0
5, 13968, Note_on_c, 3, 64, 62
5, 14010, Note_off_c, 3, 64, 0
5, 14016, Note_on_c, 3, 69, 62
5, 14058, Note_off_c, 3, 69, 0
5, 14064, Note_on_c, 3, 72, 62
5, 14106, Note_off_c, 3, 72, 0
5, 14208, Note_on_c, 3, 76, 62
5, 14346, Note_off_c, 3, 76, 0
5, 14352, Note_on_c, 3, 65, 62
5, 14394, Note_off_c, 3, 65, 0
5, 14400, Note_on_c, 3, 69, 62
5, 14442, Note_off_c, 3, 69, 0
5, 14448, Note_on_c, 3, 72, 62
5, 14490, Note_off_c, 3, 72, 0
5, 14496, Note_on_c, 3, 77, 62
5, 14730, Note_off_c, 3, 77, 0
5, 14736, Note_on_c, 3, 67, 62
5, 14778, Note_off_c, 3, 67, 0
5, 14784, Note_on_c, 3, 71, 62
5, 14826, Note_off_c, 3, 71, 0
5, 14832, Note_on_c, 3, 74, 62
5, 14874, Note_off_c, 3, 74, 0
5, 14880, Note_on_c, 3, 79, 62
5, 15114, Note_off_c, 3, 79, 0
5, 15120, Note_on_c, 3, 69, 62
5, 15162, Note_off_c, 3, 69, 0
5, 15168, Note_on_c, 3, 72, 62
5, 15210, Note_off_c, 3, 72, 0
5, 15216, Note_on_c, 3, 76, 62
5, 15258, Note_off_c, 3, 76, 0
5, 15264, Note_on_c, 3, 81, 62
5, 15381, Note_off_c, 3, 81, 0
5, 15384, Note_on_c, 3, 79, 62
5, 15405, Note_off_c, 3, 79, 0
5, 15408, Note_on_c, 3, 81, 62
5, 15429, Note_off_c, 3, 81, 0
5, 15432, Note_on_c, 3, 79, 62
5, 15453, Note_off_c, 3, 79, 0
5, 15456, Note_on_c, 3, 81, 62
5, 15573, Note_off_c, 3, 81, 0
5, 15576, Note_on_c, 3, 79, 62
5, 15597, Note_off_c, 3, 79, 0
5, 15600, Note_on_c, 3, 81, 62
5, 15621, Note_off_c, 3, 81, 0
5, 15624, Note_on_c, 3, 79, 62
5, 15645, Note_off_c, 3, 79, 0
5, 15648, Note_on_c, 3, 78, 62
5, 15732, Note_off_c, 3, 78, 0
5, 15792, Note_on_c, 3, 66, 62
5, 15834, Note_off_c, 3, 66, 0
5, 15840, Note_on_c, 3, 67, 62
5, 15882, Note_off_c, 3, 67, 0
5, 15888, Note_on_c, 3, 71, 62
5, 15930, Note_off_c, 3, 71, 0
5, 15936, Note_on_c, 3, 62, 62
5, 15978, Note_off_c, 3, 62, 0
5, 15984, Note_on_c, 3, 67, 62
5, 16026, Note_off_c, 3, 67, 0
5, 16032, Note_on_c, 3, 67, 62
5, 16074, Note_off_c, 3, 67, 0
5, 16080, Note_on_c, 3, 69, 62
5, 16101, Note_off_c, 3, 69, 0
5, 16104, Note_on_c, 3, 71, 62
5, 16125, Note_off_c, 3, 71, 0
5, 16128, Note_on_c, 3, 72, 62
5, 16138, Note_off_c, 3, 72, 0
5, 16140, Note_on_c, 3, 71, 62
5, 16150, Note_off_c, 3, 71, 0
5, 16152, Note_on_c, 3, 72, 62
5, 16162, Note_off_c, 3, 72, 0
5, 16164, Note_on_c, 3, 71, 62
5, 16174, Note_off_c, 3, 71, 0
5, 16176, Note_on_c, 3, 71, 62
5, 16197, Note_off_c, 3, 71, 0
5, 16200, Note_on_c, 3, 67, 62
5, 16221, Note_off_c, 3, 67, 0
5, 16224, Note_on_c, 3, 67, 62
5, 16266, Note_off_c, 3, 67, 0
5, 16272, Note_on_c, 3, 67, 62
5, 16293, Note_off_c, 3, 67, 0
5, 16296, Note_on_c, 3, 65, 62
5, 16317, Note_off_c, 3, 65, 0
5, 16320, Note_on_c, 3, 67, 62
5, 16341, Note_off_c, 3, 67, 0
5, 16344, Note_on_c, 3, 65, 62
5, 16365, Note_off_c, 3, 65, 0
5, 16368, Note_on_c, 3, 67, 62
5, 16389, Note_off_c, 3, 67, 0
5, 16392, Note_on_c, 3, 65, 62
5, 16413, Note_off_c, 3, 65, 0
5, 16416, Note_on_c, 3, 64, 62
5, 16437, Note_off_c, 3, 64, 0
5, 16440, Note_on_c, 3, 62, 62
5, 16461, Note_off_c, 3, 62, 0
5, 16464, Note_on_c, 3, 64, 62
5, 16485, Note_off_c, 3, 64, 0
5, 16488, Note_on_c, 3, 62, 62
5, 16509, Note_off_c, 3, 62, 0
5, 16512, Note_on_c, 3, 64, 62
5, 16533, Note_off_c, 3, 64, 0
5, 16536, Note_on_c, 3, 62, 62
5, 16557, Note_off_c, 3, 62, 0
5, 16560, Note_on_c, 3, 64, 62
5, 16581, Note_off_c, 3, 64, 0
5, 16584, Note_on_c, 3, 62, 62
5, 16605, Note_off_c, 3, 62, 0
5, 16608, Note_on_c, 3, 60, 62
5, 16650, Note_off_c, 3, 60, 0
5, 16656, Note_on_c, 3, 64, 62
5, 16677, Note_off_c, 3, 64, 0
5, 16680, Note_on_c, 3, 62, 62
5, 16701, Note_off_c, 3, 62, 0
5, 16704, Note_on_c, 3, 60, 62
5, 16725, Note_off_c, 3, 60, 0
5, 16728, Note_on_c, 3, 62, 62
5, 16749, Note_off_c, 3, 62, 0
5, 16752, Note_on_c, 3, 64, 62
5, 16773, Note_off_c, 3, 64, 0
5, 16776, Note_on_c, 3, 60, 62
5, 16797, Note_off_c, 3, 60, 0
5, 16800, Note_on_c, 3, 62, 62
5, 16842, Note_off_c, 3, 62, 0
5, 16848, Note_on_c, 3, 67, 62
5, 16890, Note_off_c, 3, 67, 0
5, 16896, Note_on_c, 3, 67, 62
5, 16938, Note_off_c, 3, 67, 0
5, 16944, Note_on_c, 3, 66, 62
5, 16986, Note_off_c, 3, 66, 0
5, 16992, Note_on_c, 3, 67, 62
5, 17034, Note_off_c, 3, 67, 0
5, 17040, Note_on_c, 3, 71, 62
5, 17061, Note_off_c, 3, 71, 0
5, 17064, Note_on_c, 3, 69, 62
5, 17085, Note_off_c, 3, 69, 0
5, 17088, Note_on_c, 3, 71, 62
5, 17109, Note_off_c, 3, 71, 0
5, 17112, Note_on_c, 3, 69, 62
5, 17133, Note_off_c, 3, 69, 0
5, 17136, Note_on_c, 3, 71, 62
5, 17157, Note_off_c, 3, 71, 0
5, 17160, Note_on_c, 3, 69, 62
5, 17181, Note_off_c, 3, 69, 0
5, 17184, Note_on_c, 3, 71, 62
5, 17226, Note_off_c, 3, 71, 0
5, 17232, Note_on_c, 3, 76, 62
5, 17253, Note_off_c, 3, 76, 0
5, 17256, Note_on_c, 3, 74, 62
5, 17277, Note_off_c, 3, 74, 0
5, 17280, Note_on_c, 3, 72, 62
5, 17322, Note_off_c, 3, 72, 0
5, 17328, Note_on_c, 3, 71, 62
5, 17370, Note_off_c, 3, 71, 0
5, 17376, Note_on_c, 3, 69, 62
5, 17418, Note_off_c, 3, 69, 0
5, 17424, Note_on_c, 3, 73, 62
5, 17445, Note_off_c, 3, 73, 0
5, 17448, Note_on_c, 3, 71, 62
5, 17469, Note_off_c, 3, 71, 0
5, 17472, Note_on_c, 3, 73, 62
5, 17493, Note_off_c, 3, 73, 0
5, 17496, Note_on_c, 3, 71, 62
5, 17517, Note_off_c, 3, 71, 0
5, 17520, Note_on_c, 3, 73, 62
5, 17541, Note_off_c, 3, 73, 0
5, 17544, Note_on_c, 3, 71, 62
5, 17565, Note_off_c, 3, 71, 0
5, 17568, Note_on_c, 3, 73, 62
5, 17610, Note_off_c, 3, 73, 0
5, 17616, Note_on_c, 3, 73, 62
5, 17658, Note_off_c, 3, 73, 0
5, 17664, Note_on_c, 3, 74, 62
5, 17706, Note_off_c, 3, 74, 0
5, 17712, Note_on_c, 3, 67, 62
5, 17754, Note_off_c, 3, 67, 0
5, 17760, Note_on_c, 3, 69, 62
5, 17844, Note_off_c, 3, 69, 0
5, 17904, Note_on_c, 3, 64, 62
5, 17946, Note_off_c, 3, 64, 0
5, 17952, Note_on_c, 3, 69, 62
5, 18015, Note_off_c, 3, 69, 0
5, 18024, Note_on_c, 3, 71, 62
5, 18045, Note_off_c, 3, 71, 0
5, 18048, Note_on_c, 3, 68, 62
5, 18111, Note_off_c, 3, 68, 0
5, 18120, Note_on_c, 3, 64, 62
5, 18141, Note_off_c, 3, 64, 0
5, 18144, Note_on_c, 3, 64, 62
5, 18228, Note_off_c, 3, 64, 0
5, 18576, Note_on_c, 3, 69, 62
5, 18597, Note_off_c, 3, 69, 0
5, 18600, Note_on_c, 3, 67, 62
5, 18621, Note_off_c, 3, 67, 0
5, 18624, Note_on_c, 3, 69, 62
5, 18645, Note_off_c, 3, 69, 0
5, 18648, Note_on_c, 3, 70, 62
5, 18669, Note_off_c, 3, 70, 0
5, 18672, Note_on_c, 3, 69, 62
5, 18693, Note_off_c, 3, 69, 0
5, 18696, Note_on_c, 3, 67, 62
5, 18717, Note_off_c, 3, 67, 0
5, 18720, Note_on_c, 3, 65, 62
5, 18762, Note_off_c, 3, 65, 0
5, 18768, Note_on_c, 3, 67, 62
5, 18789, Note_off_c, 3, 67, 0
5, 18792, Note_on_c, 3, 65, 62
5, 18813, Note_off_c, 3, 65, 0
5, 18816, Note_on_c, 3, 67, 62
5, 18837, Note_off_c, 3, 67, 0
5, 18840, Note_on_c, 3, 69, 62
5, 18861, Note_off_c, 3, 69, 0
5, 18864, Note_on_c, 3, 67, 62
5, 18885, Note_off_c, 3, 67, 0
5, 18888, Note_on_c, 3, 65, 62
5, 18909, Note_off_c, 3, 65, 0
5, 18912, Note_on_c, 3, 64, 62
5, 18954, Note_off_c, 3, 64, 0
5, 19728, Note_on_c, 3, 74, 62
5, 19749, Note_off_c, 3, 74, 0
5, 19752, Note_on_c, 3, 72, 62
5, 19773, Note_off_c, 3, 72, 0
5, 19776, Note_on_c, 3, 74, 62
5, 19797, Note_off_c, 3, 74, 0
5, 19800, Note_on_c, 3, 72, 62
5, 19821, Note_off_c, 3, 72, 0
5, 19824, Note_on_c, 3, 74, 62
5, 19845, Note_off_c, 3, 74, 0
5, 19848, Note_on_c, 3, 72, 62
5, 19869, Note_off_c, 3, 72, 0
5, 19872, Note_on_c, 3, 70, 62
5, 19893, Note_off_c, 3, 70, 0
5, 19896, Note_on_c, 3, 69, 62
5, 19917, Note_off_c, 3, 69, 0
5, 19920, Note_on_c, 3, 70, 62
5, 19941, Note_off_c, 3, 70, 0
5, 19944, Note_on_c, 3, 69, 62
5, 19965, Note_off_c, 3, 69, 0
5, 19968, Note_on_c, 3, 70, 62
5, 19989, Note_off_c, 3, 70, 0
5, 19992, Note_on_c, 3, 69, 62
5, 20013, Note_off_c, 3, 69, 0
5, 20016, Note_on_c, 3, 70, 62
5, 20037, Note_off_c, 3, 70, 0
5, 20040, Note_on_c, 3, 69, 62
5, 20061, Note_off_c, 3, 69, 0
5, 20064, Note_on_c, 3, 67, 62
5, 20106, Note_off_c, 3, 67, 0
5, 21648, Note_on_c, 3, 72, 62
5, 21669, Note_off_c, 3, 72, 0
5, 21672, Note_on_c, 3, 70, 62
5, 21693, Note_off_c, 3, 70, 0
5, 21696, Note_on_c, 3, 72, 62
5, 21717, Note_off_c, 3, 72, 0
5, 21720, Note_on_c, 3, 70, 62
5, 21741, Note_off_c, 3, 70, 0
5, 21744, Note_on_c, 3, 72, 62
5, 21765, Note_off_c, 3, 72, 0
5, 21768, Note_on_c, 3, 70, 62
5, 21789, Note_off_c, 3, 70, 0
5, 21792, Note_on_c, 3, 69, 62
5, 21813, Note_off_c, 3, 69, 0
5, 21816, Note_on_c, 3, 67, 62
5, 21837, Note_off_c, 3, 67, 0
5, 21840, Note_on_c, 3, 69, 62
5, 21861, Note_off_c, 3, 69, 0
5, 21864, Note_on_c, 3, 67, 62
5, 21885, Note_off_c, 3, 67, 0
5, 21888, Note_on_c, 3, 69, 62
5, 21909, Note_off_c, 3, 69, 0
5, 21912, Note_on_c, 3, 67, 62
5, 21933, Note_off_c, 3, 67, 0
5, 21936, Note_on_c, 3, 69, 62
5, 21957, Note_off_c, 3, 69, 0
5, 21960, Note_on_c, 3, 67, 62
5, 21981, Note_off_c, 3, 67, 0
5, 21984, Note_on_c, 3, 65, 62
5, 22026, Note_off_c, 3, 65, 0
5, 22032, Note_on_c, 3, 60, 62
5, 22074, Note_off_c, 3, 60, 0
5, 22080, Note_on_c, 3, 65, 62
5, 22122, Note_off_c, 3, 65, 0
5, 22128, Note_on_c, 3, 69, 62
5, 22170, Note_off_c, 3, 69, 0
5, 22176, Note_on_c, 3, 74, 62
5, 22218, Note_off_c, 3, 74, 0
5, 22224, Note_on_c, 3, 72, 62
5, 22266, Note_off_c, 3, 72, 0
5, 22272, Note_on_c, 3, 70, 62
5, 22314, Note_off_c, 3, 70, 0
5, 22320, Note_on_c, 3, 67, 62
5, 22362, Note_off_c, 3, 67, 0
5, 22368, Note_on_c, 3, 65, 62
5, 22410, Note_off_c, 3, 65, 0
5, 22416, Note_on_c, 3, 72, 62
5, 22437, Note_off_c, 3, 72, 0
5, 22440, Note_on_c, 3, 70, 62
5, 22461, Note_off_c, 3, 70, 0
5, 22464, Note_on_c, 3, 72, 62
5, 22485, Note_off_c, 3, 72, 0
5, 22488, Note_on_c, 3, 70, 62
5, 22509, Note_off_c, 3, 70, 0
5, 22512, Note_on_c, 3, 72, 62
5, 22533, Note_off_c, 3, 72, 0
5, 22536, Note_on_c, 3, 70, 62
5, 22557, Note_off_c, 3, 70, 0
5, 22560, Note_on_c, 3, 72, 62
5, 22644, Note_off_c, 3, 72, 0
5, 22800, Note_on_c, 3, 67, 62
5, 22842, Note_off_c, 3, 67, 0
5, 22848, Note_on_c, 3, 72, 62
5, 22890, Note_off_c, 3, 72, 0
5, 22896, Note_on_c, 3, 74, 62
5, 22938, Note_off_c, 3, 74, 0
5, 22944, Note_on_c, 3, 72, 62
5, 22986, Note_off_c, 3, 72, 0
5, 22992, Note_on_c, 3, 76, 62
5, 23013, Note_off_c, 3, 76, 0
5, 23016, Note_on_c, 3, 74, 62
5, 23037, Note_off_c, 3, 74, 0
5, 23040, Note_on_c, 3, 76, 62
5, 23061, Note_off_c, 3, 76, 0
5, 23064, Note_on_c, 3, 74, 62
5, 23085, Note_off_c, 3, 74, 0
5, 23088, Note_on_c, 3, 76, 62
5, 23109, Note_off_c, 3, 76, 0
5, 23112, Note_on_c, 3, 74, 62
5, 23133, Note_off_c, 3, 74, 0
5, 23136, Note_on_c, 3, 72, 62
5, 23220, Note_off_c, 3, 72, 0
5, 23280, Note_on_c, 3, 72, 62
5, 23322, Note_off_c, 3, 72, 0
5, 23328, Note_on_c, 3, 69, 62
5, 23412, Note_off_c, 3, 69, 0
5, 23472, Note_on_c, 3, 74, 62
5, 23514, Note_off_c, 3, 74, 0
5, 23520, Note_on_c, 3, 71, 62
5, 23604, Note_off_c, 3, 71, 0
5, 23664, Note_on_c, 3, 76, 62
5, 23706, Note_off_c, 3, 76, 0
5, 23712, Note_on_c, 3, 72, 62
5, 23733, Note_off_c, 3, 72, 0
5, 23736, Note_on_c, 3, 71, 62
5, 23757, Note_off_c, 3, 71, 0
5, 23760, Note_on_c, 3, 72, 62
5, 23781, Note_off_c, 3, 72, 0
5, 23784, Note_on_c, 3, 74, 62
5, 23805, Note_off_c, 3, 74, 0
5, 23808, Note_on_c, 3, 67, 62
5, 23850, Note_off_c, 3, 67, 0
5, 23856, Note_on_c, 3, 67, 62
5, 23898, Note_off_c, 3, 67, 0
5, 23904, Note_on_c, 3, 67, 62
5, 23946, Note_off_c, 3, 67, 0
5, 23952, Note_on_c, 3, 76, 62
5, 23973, Note_off_c, 3, 76, 0
5, 23976, Note_on_c, 3, 74, 62
5, 23997, Note_off_c, 3, 74, 0
5, 24000, Note_on_c, 3, 76, 62
5, 24021, Note_off_c, 3, 76, 0
5, 24024, Note_on_c, 3, 74, 62
5, 24045, Note_off_c, 3, 74, 0
5, 24048, Note_on_c, 3, 76, 62
5, 24069, Note_off_c, 3, 76, 0
5, 24072, Note_on_c, 3, 77, 62
5, 24093, Note_off_c, 3, 77, 0
5, 24096, Note_on_c, 3, 79, 62
5, 24117, Note_off_c, 3, 79, 0
5, 24120, Note_on_c, 3, 77, 62
5, 24141, Note_off_c, 3, 77, 0
5, 24144, Note_on_c, 3, 79, 62
5, 24165, Note_off_c, 3, 79, 0
5, 24168, Note_on_c, 3, 81, 62
5, 24189, Note_off_c, 3, 81, 0
5, 24192, Note_on_c, 3, 79, 62
5, 24213, Note_off_c, 3, 79, 0
5, 24216, Note_on_c, 3, 81, 62
5, 24237, Note_off_c, 3, 81, 0
5, 24240, Note_on_c, 3, 79, 62
5, 24261, Note_off_c, 3, 79, 0
5, 24264, Note_on_c, 3, 81, 62
5, 24285, Note_off_c, 3, 81, 0
5, 24288, Note_on_c, 3, 77, 62
5, 24330, Note_off_c, 3, 77, 0
5, 24816, Note_on_c, 3, 74, 62
5, 24858, Note_off_c, 3, 74, 0
5, 24864, Note_on_c, 3, 74, 62
5, 24906, Note_off_c, 3, 74, 0
5, 24912, Note_on_c, 3, 75, 62
5, 24954, Note_off_c, 3, 75, 0
5, 25008, Note_on_c, 3, 72, 62
5, 25050, Note_off_c, 3, 72, 0
5, 25056, Note_on_c, 3, 72, 62
5, 25098, Note_off_c, 3, 72, 0
5, 25104, Note_on_c, 3, 74, 62
5, 25146, Note_off_c, 3, 74, 0
5, 25200, Note_on_c, 3, 70, 62
5, 25242, Note_off_c, 3, 70, 0
5, 25248, Note_on_c, 3, 70, 62
5, 25290, Note_off_c, 3, 70, 0
5, 25296, Note_on_c, 3, 72, 62
5, 25338, Note_off_c, 3, 72, 0
5, 25440, Note_on_c, 3, 74, 62
5, 25812, Note_off_c, 3, 74, 0
5, 25824, Note_on_c, 3, 76, 62
5, 26196, Note_off_c, 3, 76, 0
5, 26208, Note_on_c, 3, 77, 62
5, 26388, Note_off_c, 3, 77, 0
5, 26448, Note_on_c, 3, 65, 62
5, 26490, Note_off_c, 3, 65, 0
5, 26496, Note_on_c, 3, 71, 62
5, 26538, Note_off_c, 3, 71, 0
5, 26544, Note_on_c, 3, 74, 62
5, 26586, Note_off_c, 3, 74, 0
5, 26592, Note_on_c, 3, 77, 62
5, 26634, Note_off_c, 3, 77, 0
5, 26640, Note_on_c, 3, 71, 62
5, 26682, Note_off_c, 3, 71, 0
5, 26688, Note_on_c, 3, 74, 62
5, 26730, Note_off_c, 3, 74, 0
5, 26736, Note_on_c, 3, 77, 62
5, 26778, Note_off_c, 3, 77, 0
5, 26784, Note_on_c, 3, 77, 62
5, 26826, Note_off_c, 3, 77, 0
5, 26832, Note_on_c, 3, 80, 62
5, 26874, Note_off_c, 3, 80, 0
5, 26880, Note_on_c, 3, 74, 62
5, 26922, Note_off_c, 3, 74, 0
5, 26928, Note_on_c, 3, 79, 62
5, 26970, Note_off_c, 3, 79, 0
5, 26976, Note_on_c, 3, 79, 62
5, 27060, Note_off_c, 3, 79, 0
5, 27120, Note_on_c, 3, 76, 62
5, 27162, Note_off_c, 3, 76, 0
5, 27168, Note_on_c, 3, 77, 62
5, 27189, Note_off_c, 3, 77, 0
5, 27192, Note_on_c, 3, 76, 62
5, 27213, Note_off_c, 3, 76, 0
5, 27216, Note_on_c, 3, 74, 62
5, 27237, Note_off_c, 3, 74, 0
5, 27240, Note_on_c, 3, 76, 62
5, 27261, Note_off_c, 3, 76, 0
5, 27264, Note_on_c, 3, 72, 62
5, 27327, Note_off_c, 3, 72, 0
5, 27336, Note_on_c, 3, 72, 62
5, 27357, Note_off_c, 3, 72, 0
5, 27360, Note_on_c, 3, 72, 62
5, 27402, Note_off_c, 3, 72, 0
5, 27408, Note_on_c, 3, 72, 62
5, 27429, Note_off_c, 3, 72, 0
5, 27432, Note_on_c, 3, 70, 62
5, 27453, Note_off_c, 3, 70, 0
5, 27456, Note_on_c, 3, 72, 62
5, 27477, Note_off_c, 3, 72, 0
5, 27480, Note_on_c, 3, 70, 62
5, 27501, Note_off_c, 3, 70, 0
5, 27504, Note_on_c, 3, 72, 62
5, 27525, Note_off_c, 3, 72, 0
5, 27528, Note_on_c, 3, 70, 62
5, 27549, Note_off_c, 3, 70, 0
5, 27552, Note_on_c, 3, 69, 62
5, 27573, Note_off_c, 3, 69, 0
5, 27576, Note_on_c, 3, 67, 62
5, 27597, Note_off_c, 3, 67, 0
5, 27600, Note_on_c, 3, 69, 62
5, 27621, Note_off_c, 3, 69, 0
5, 27624, Note_on_c, 3, 67, 62
5, 27645, Note_off_c, 3, 67, 0
5, 27648, Note_on_c, 3, 69, 62
5, 27669, Note_off_c, 3, 69, 0
5, 27672, Note_on_c, 3, 67, 62
5, 27693, Note_off_c, 3, 67, 0
5, 27696, Note_on_c, 3, 69, 62
5, 27717, Note_off_c, 3, 69, 0
5, 27720, Note_on_c, 3, 67, 62
5, 27741, Note_off_c, 3, 67, 0
5, 27744, Note_on_c, 3, 65, 62
5, 27786, Note_off_c, 3, 65, 0
5, 27792, Note_on_c, 3, 69, 62
5, 27813, Note_off_c, 3, 69, 0
5, 27816, Note_on_c, 3, 67, 62
5, 27837, Note_off_c, 3, 67, 0
5, 27840, Note_on_c, 3, 65, 62
5, 27861, Note_off_c, 3, 65, 0
5, 27864, Note_on_c, 3, 67, 62
5, 27885, Note_off_c, 3, 67, 0
5, 27888, Note_on_c, 3, 69, 62
5, 27909, Note_off_c, 3, 69, 0
5, 27912, Note_on_c, 3, 65, 62
5, 27933, Note_off_c, 3, 65, 0
5, 27936, Note_on_c, 3, 67, 62
5, 27978, Note_off_c, 3, 67, 0
5, 27984, Note_on_c, 3, 72, 62
5, 28026, Note_off_c, 3, 72, 0
5, 28032, Note_on_c, 3, 72, 62
5, 28074, Note_off_c, 3, 72, 0
5, 28080, Note_on_c, 3, 71, 62
5, 28122, Note_off_c, 3, 71, 0
5, 28128, Note_on_c, 3, 72, 62
5, 28149, Note_off_c, 3, 72, 0
5, 28152, Note_on_c, 3, 74, 62
5, 28173, Note_off_c, 3, 74, 0
5, 28176, Note_on_c, 3, 72, 62
5, 28197, Note_off_c, 3, 72, 0
5, 28200, Note_on_c, 3, 74, 62
5, 28221, Note_off_c, 3, 74, 0
5, 28224, Note_on_c, 3, 76, 62
5, 28362, Note_off_c, 3, 76, 0
5, 28368, Note_on_c, 3, 74, 62
5, 28389, Note_off_c, 3, 74, 0
5, 28392, Note_on_c, 3, 72, 62
5, 28413, Note_off_c, 3, 72, 0
5, 28416, Note_on_c, 3, 74, 62
5, 28554, Note_off_c, 3, 74, 0
5, 28560, Note_on_c, 3, 72, 62
5, 28581, Note_off_c, 3, 72, 0
5, 28584, Note_on_c, 3, 71, 62
5, 28605, Note_off_c, 3, 71, 0
5, 28608, Note_on_c, 3, 72, 62
5, 28692, Note_off_c, 3, 72, 0
5, 28704, Note_on_c, 3, 72, 62
5, 28725, Note_off_c, 3, 72, 0
5, 28728, Note_on_c, 3, 74, 62
5, 28749, Note_off_c, 3, 74, 0
5, 28752, Note_on_c, 3, 72, 62
5, 28773, Note_off_c, 3, 72, 0
5, 28776, Note_on_c, 3, 70, 62
5, 28797, Note_off_c, 3, 70, 0
5, 28800, Note_on_c, 3, 69, 62
5, 28821, Note_off_c, 3, 69, 0
5, 28824, Note_on_c, 3, 67, 62
5, 28845, Note_off_c, 3, 67, 0
5, 28848, Note_on_c, 3, 65, 62
5, 28869, Note_off_c, 3, 65, 0
5, 28872, Note_on_c, 3, 64, 62
5, 28893, Note_off_c, 3, 64, 0
5, 28896, Note_on_c, 3, 62, 62
5, 28980, Note_off_c, 3, 62, 0
5, 29040, Note_on_c, 3, 77, 62
5, 29082, Note_off_c, 3, 77, 0
5, 29088, Note_on_c, 3, 71, 62
5, 29130, Note_off_c, 3, 71, 0
5, 29136, Note_on_c, 3, 72, 62
5, 29157, Note_off_c, 3, 72, 0
5, 29160, Note_on_c, 3, 74, 62
5, 29181, Note_off_c, 3, 74, 0
5, 29184, Note_on_c, 3, 71, 62
5, 29247, Note_off_c, 3, 71, 0
5, 29256, Note_on_c, 3, 72, 62
5, 29277, Note_off_c, 3, 72, 0
5, 29280, Note_on_c, 3, 72, 62
5, 29322, Note_off_c, 3, 72, 0
5, 29328, Note_on_c, 3, 64, 62
5, 29370, Note_off_c, 3, 64, 0
5, 29376, Note_on_c, 3, 66, 62
5, 29418, Note_off_c, 3, 66, 0
5, 29424, Note_on_c, 3, 67, 62
5, 29466, Note_off_c, 3, 67, 0
5, 29472, Note_on_c, 3, 69, 62
5, 29514, Note_off_c, 3, 69, 0
5, 29520, Note_on_c, 3, 66, 62
5, 29562, Note_off_c, 3, 66, 0
5, 29568, Note_on_c, 3, 67, 62
5, 29610, Note_off_c, 3, 67, 0
5, 29616, Note_on_c, 3, 69, 62
5, 29658, Note_off_c, 3, 69, 0
5, 29664, Note_on_c, 3, 62, 62
5, 29706, Note_off_c, 3, 62, 0
5, 29904, Note_on_c, 3, 72, 62
5, 29946, Note_off_c, 3, 72, 0
5, 29952, Note_on_c, 3, 74, 62
5, 29994, Note_off_c, 3, 74, 0
5, 30000, Note_on_c, 3, 76, 62
5, 30042, Note_off_c, 3, 76, 0
5, 30048, Note_on_c, 3, 69, 62
5, 30090, Note_off_c, 3, 69, 0
5, 30096, Note_on_c, 3, 74, 62
5, 30117, Note_off_c, 3, 74, 0
5, 30120, Note_on_c, 3, 75, 62
5, 30141, Note_off_c, 3, 75, 0
5, 30144, Note_on_c, 3, 74, 62
5, 30165, Note_off_c, 3, 74, 0
5, 30168, Note_on_c, 3, 72, 62
5, 30189, Note_off_c, 3, 72, 0
5, 30192, Note_on_c, 3, 70, 62
5, 30213, Note_off_c, 3, 70, 0
5, 30216, Note_on_c, 3, 69, 62
5, 30237, Note_off_c, 3, 69, 0
5, 30240, Note_on_c, 3, 67, 62
5, 30282, Note_off_c, 3, 67, 0
5, 30288, Note_on_c, 3, 76, 62
5, 30309, Note_off_c, 3, 76, 0
5, 30312, Note_on_c, 3, 74, 62
5, 30333, Note_off_c, 3, 74, 0
5, 30336, Note_on_c, 3, 76, 62
5, 30357, Note_off_c, 3, 76, 0
5, 30360, Note_on_c, 3, 74, 62
5, 30381, Note_off_c, 3, 74, 0
5, 30384, Note_on_c, 3, 76, 62
5, 30405, Note_off_c, 3, 76, 0
5, 30408, Note_on_c, 3, 74, 62
5, 30429, Note_off_c, 3, 74, 0
5, 30432, Note_on_c, 3, 76, 62
5, 30474, Note_off_c, 3, 76, 0
5, 30480, Note_on_c, 3, 64, 62
5, 30522, Note_off_c, 3, 64, 0
5, 30528, Note_on_c, 3, 65, 62
5, 30570, Note_off_c, 3, 65, 0
5, 30576, Note_on_c, 3, 67, 62
5, 30618, Note_off_c, 3, 67, 0
5, 30624, Note_on_c, 3, 60, 62
5, 30666, Note_off_c, 3, 60, 0
5, 30672, Note_on_c, 3, 81, 62
5, 30693, Note_off_c, 3, 81, 0
5, 30696, Note_on_c, 3, 79, 62
5, 30717, Note_off_c, 3, 79, 0
5, 30720, Note_on_c, 3, 81, 62
5, 30741, Note_off_c, 3, 81, 0
5, 30744, Note_on_c, 3, 79, 62
5, 30765, Note_off_c, 3, 79, 0
5, 30768, Note_on_c, 3, 81, 62
5, 30789, Note_off_c, 3, 81, 0
5, 30792, Note_on_c, 3, 79, 62
5, 30813, Note_off_c, 3, 79, 0
5, 30816, Note_on_c, 3, 81, 62
5, 30858, Note_off_c, 3, 81, 0
5, 30864, Note_on_c, 3, 69, 62
5, 30906, Note_off_c, 3, 69, 0
5, 30912, Note_on_c, 3, 70, 62
5, 30954, Note_off_c, 3, 70, 0
5, 30960, Note_on_c, 3, 72, 62
5, 31002, Note_off_c, 3, 72, 0
5, 31008, Note_on_c, 3, 65, 62
5, 31050, Note_off_c, 3, 65, 0
5, 31056, Note_on_c, 3, 74, 62
5, 31077, Note_off_c, 3, 74, 0
5, 31080, Note_on_c, 3, 75, 62
5, 31101, Note_off_c, 3, 75, 0
5, 31104, Note_on_c, 3, 74, 62
5, 31146, Note_off_c, 3, 74, 0
5, 31152, Note_on_c, 3, 70, 62
5, 31194, Note_off_c, 3, 70, 0
5, 31200, Note_on_c, 3, 67, 62
5, 31263, Note_off_c, 3, 67, 0
5, 31272, Note_on_c, 3, 69, 62
5, 31293, Note_off_c, 3, 69, 0
5, 31296, Note_on_c, 3, 70, 62
5, 31317, Note_off_c, 3, 70, 0
5, 31320, Note_on_c, 3, 69, 62
5, 31341, Note_off_c, 3, 69, 0
5, 31344, Note_on_c, 3, 67, 62
5, 31365, Note_off_c, 3, 67, 0
5, 31368, Note_on_c, 3, 65, 62
5, 31389, Note_off_c, 3, 65, 0
5, 31392, Note_on_c, 3, 64, 62
5, 31434, Note_off_c, 3, 64, 0
5, 31440, Note_on_c, 3, 65, 62
5, 31461, Note_off_c, 3, 65, 0
5, 31464, Note_on_c, 3, 67, 62
5, 31485, Note_off_c, 3, 67, 0
5, 31488, Note_on_c, 3, 64, 62
5, 31551, Note_off_c, 3, 64, 0
5, 31560, Note_on_c, 3, 65, 62
5, 31581, Note_off_c, 3, 65, 0
5, 31584, Note_on_c, 3, 65, 62
5, 31626, Note_off_c, 3, 65, 0
5, 31632, Note_on_c, 3, 69, 62
5, 31674, Note_off_c, 3, 69, 0
5, 31680, Note_on_c, 3, 70, 62
5, 31722, Note_off_c, 3, 70, 0
5, 31728, Note_on_c, 3, 62, 62
5, 31770, Note_off_c, 3, 62, 0
5, 31776, Note_on_c, 3, 62, 62
5, 31797, Note_off_c, 3, 62, 0
5, 31800, Note_on_c, 3, 64, 62
5, 31821, Note_off_c, 3, 64, 0
5, 31824, Note_on_c, 3, 65, 62
5, 31845, Note_off_c, 3, 65, 0
5, 31848, Note_on_c, 3, 67, 62
5, 31869, Note_off_c, 3, 67, 0
5, 31872, Note_on_c, 3, 64, 62
5, 31935, Note_off_c, 3, 64, 0
5, 31944, Note_on_c, 3, 65, 62
5, 31965, Note_off_c, 3, 65, 0
5, 31968, Note_on_c, 3, 65, 62
5, 32010, Note_off_c, 3, 65, 0
5, 32016, Note_on_c, 3, 72, 62
5, 32037, Note_off_c, 3, 72, 0
5, 32040, Note_on_c, 3, 70, 62
5, 32061, Note_off_c, 3, 70, 0
5, 32064, Note_on_c, 3, 72, 62
5, 32085, Note_off_c, 3, 72, 0
5, 32088, Note_on_c, 3, 70, 62
5, 32109, Note_off_c, 3, 70, 0
5, 32112, Note_on_c, 3, 72, 62
5, 32133, Note_off_c, 3, 72, 0
5, 32136, Note_on_c, 3, 70, 62
5, 32157, Note_off_c, 3, 70, 0
5, 32160, Note_on_c, 3, 72, 62
5, 32340, Note_off_c, 3, 72, 0
5, 32340, End_track
6, 0, Start_track
6, 0, Title_t, "dgo4th@earthlink.net"
6, 0, Control_c, 4, 0, 0
6, 0, Program_c, 4, 68
6, 0, Time_signature, 4, 2, 96, 8
6, 0, Tempo, 681818
6, 144, Note_on_c, 4, 69, 62
6, 165, Note_off_c, 4, 69, 0
6, 168, Note_on_c, 4, 67, 62
6, 189, Note_off_c, 4, 67, 0
6, 192, Note_on_c, 4, 69, 62
6, 213, Note_off_c, 4, 69, 0
6, 216, Note_on_c, 4, 67, 62
6, 237, Note_off_c, 4, 67, 0
6, 240, Note_on_c, 4, 69, 62
6, 261, Note_off_c, 4, 69, 0
6, 264, Note_on_c, 4, 67, 62
6, 285, Note_off_c, 4, 67, 0
6, 288, Note_on_c, 4, 65, 62
6, 309, Note_off_c, 4, 65, 0
6, 312, Note_on_c, 4, 64, 62
6, 333, Note_off_c, 4, 64, 0
6, 336, Note_on_c, 4, 65, 62
6, 357, Note_off_c, 4, 65, 0
6, 360, Note_on_c, 4, 64, 62
6, 381, Note_off_c, 4, 64, 0
6, 384, Note_on_c, 4, 62, 62
6, 426, Note_off_c, 4, 62, 0
6, 432, Note_on_c, 4, 64, 62
6, 474, Note_off_c, 4, 64, 0
6, 480, Note_on_c, 4, 60, 62
6, 522, Note_off_c, 4, 60, 0
6, 528, Note_on_c, 4, 60, 62
6, 570, Note_off_c, 4, 60, 0
6, 576, Note_on_c, 4, 60, 62
6, 618, Note_off_c, 4, 60, 0
6, 624, Note_on_c, 4, 65, 62
6, 666, Note_off_c, 4, 65, 0
6, 672, Note_on_c, 4, 64, 62
6, 693, Note_off_c, 4, 64, 0
6, 696, Note_on_c, 4, 65, 62
6, 717, Note_off_c, 4, 65, 0
6, 720, Note_on_c, 4, 67, 62
6, 741, Note_off_c, 4, 67, 0
6, 744, Note_on_c, 4, 69, 62
6, 765, Note_off_c, 4, 69, 0
6, 768, Note_on_c, 4, 65, 62
6, 810, Note_off_c, 4, 65, 0
6, 816, Note_on_c, 4, 67, 62
6, 858, Note_off_c, 4, 67, 0
6, 864, Note_on_c, 4, 67, 62
6, 906, Note_off_c, 4, 67, 0
6, 912, Note_on_c, 4, 67, 62
6, 954, Note_off_c, 4, 67, 0
6, 960, Note_on_c, 4, 72, 62
6, 1092, Note_off_c, 4, 72, 0
6, 1104, Note_on_c, 4, 69, 62
6, 1146, Note_off_c, 4, 69, 0
6, 1152, Note_on_c, 4, 67, 62
6, 1194, Note_off_c, 4, 67, 0
6, 1200, Note_on_c, 4, 69, 62
6, 1242, Note_off_c, 4, 69, 0
6, 1248, Note_on_c, 4, 71, 62
6, 1290, Note_off_c, 4, 71, 0
6, 1296, Note_on_c, 4, 64, 62
6, 1338, Note_off_c, 4, 64, 0
6, 1344, Note_on_c, 4, 69, 62
6, 1476, Note_off_c, 4, 69, 0
6, 1488, Note_on_c, 4, 65, 62
6, 1530, Note_off_c, 4, 65, 0
6, 1536, Note_on_c, 4, 60, 62
6, 1578, Note_off_c, 4, 60, 0
6, 1584, Note_on_c, 4, 69, 62
6, 1626, Note_off_c, 4, 69, 0
6, 1632, Note_on_c, 4, 67, 62
6, 1716, Note_off_c, 4, 67, 0
6, 1776, Note_on_c, 4, 67, 62
6, 1818, Note_off_c, 4, 67, 0
6, 1824, Note_on_c, 4, 62, 62
6, 1866, Note_off_c, 4, 62, 0
6, 1872, Note_on_c, 4, 64, 62
6, 1893, Note_off_c, 4, 64, 0
6, 1896, Note_on_c, 4, 65, 62
6, 1917, Note_off_c, 4, 65, 0
6, 1920, Note_on_c, 4, 67, 62
6, 1962, Note_off_c, 4, 67, 0
6, 1968, Note_on_c, 4, 62, 62
6, 2010, Note_off_c, 4, 62, 0
6, 2016, Note_on_c, 4, 64, 62
6, 2058, Note_off_c, 4, 64, 0
6, 2256, Note_on_c, 4, 74, 62
6, 2277, Note_off_c, 4, 74, 0
6, 2280, Note_on_c, 4, 72, 62
6, 2301, Note_off_c, 4, 72, 0
6, 2304, Note_on_c, 4, 70, 62
6, 2346, Note_off_c, 4, 70, 0
6, 2352, Note_on_c, 4, 69, 62
6, 2394, Note_off_c, 4, 69, 0
6, 2400, Note_on_c, 4, 67, 62
6, 2442, Note_off_c, 4, 67, 0
6, 2640, Note_on_c, 4, 69, 62
6, 2661, Note_off_c, 4, 69, 0
6, 2664, Note_on_c, 4, 67, 62
6, 2685, Note_off_c, 4, 67, 0
6, 2688, Note_on_c, 4, 65, 62
6, 2730, Note_off_c, 4, 65, 0
6, 2736, Note_on_c, 4, 64, 62
6, 2778, Note_off_c, 4, 64, 0
6, 2784, Note_on_c, 4, 62, 62
6, 2826, Note_off_c, 4, 62, 0
6, 2832, Note_on_c, 4, 62, 62
6, 2874, Note_off_c, 4, 62, 0
6, 2880, Note_on_c, 4, 60, 62
6, 2922, Note_off_c, 4, 60, 0
6, 2928, Note_on_c, 4, 62, 62
6, 2970, Note_off_c, 4, 62, 0
6, 2976, Note_on_c, 4, 64, 62
6, 3018, Note_off_c, 4, 64, 0
6, 3024, Note_on_c, 4, 70, 62
6, 3045, Note_off_c, 4, 70, 0
6, 3048, Note_on_c, 4, 69, 62
6, 3069, Note_off_c, 4, 69, 0
6, 3072, Note_on_c, 4, 70, 62
6, 3093, Note_off_c, 4, 70, 0
6, 3096, Note_on_c, 4, 69, 62
6, 3117, Note_off_c, 4, 69, 0
6, 3120, Note_on_c, 4, 70, 62
6, 3141, Note_off_c, 4, 70, 0
6, 3144, Note_on_c, 4, 69, 62
6, 3165, Note_off_c, 4, 69, 0
6, 3168, Note_on_c, 4, 70, 62
6, 3210, Note_off_c, 4, 70, 0
6, 3216, Note_on_c, 4, 72, 62
6, 3237, Note_off_c, 4, 72, 0
6, 3240, Note_on_c, 4, 70, 62
6, 3261, Note_off_c, 4, 70, 0
6, 3264, Note_on_c, 4, 69, 62
6, 3306, Note_off_c, 4, 69, 0
6, 3312, Note_on_c, 4, 67, 62
6, 3354, Note_off_c, 4, 67, 0
6, 3360, Note_on_c, 4, 65, 62
6, 3402, Note_off_c, 4, 65, 0
6, 3408, Note_on_c, 4, 75, 62
6, 3429, Note_off_c, 4, 75, 0
6, 3432, Note_on_c, 4, 74, 62
6, 3453, Note_off_c, 4, 74, 0
6, 3456, Note_on_c, 4, 75, 62
6, 3477, Note_off_c, 4, 75, 0
6, 3480, Note_on_c, 4, 74, 62
6, 3501, Note_off_c, 4, 74, 0
6, 3504, Note_on_c, 4, 75, 62
6, 3525, Note_off_c, 4, 75, 0
6, 3528, Note_on_c, 4, 74, 62
6, 3549, Note_off_c, 4, 74, 0
6, 3552, Note_on_c, 4, 75, 62
6, 3594, Note_off_c, 4, 75, 0
6, 3600, Note_on_c, 4, 77, 62
6, 3621, Note_off_c, 4, 77, 0
6, 3624, Note_on_c, 4, 75, 62
6, 3645, Note_off_c, 4, 75, 0
6, 3648, Note_on_c, 4, 74, 62
6, 3690, Note_off_c, 4, 74, 0
6, 3696, Note_on_c, 4, 72, 62
6, 3738, Note_off_c, 4, 72, 0
6, 3744, Note_on_c, 4, 70, 62
6, 3786, Note_off_c, 4, 70, 0
6, 3792, Note_on_c, 4, 70, 62
6, 3813, Note_off_c, 4, 70, 0
6, 3816, Note_on_c, 4, 72, 62
6, 3837, Note_off_c, 4, 72, 0
6, 3840, Note_on_c, 4, 70, 62
6, 3882, Note_off_c, 4, 70, 0
6, 3888, Note_on_c, 4, 67, 62
6, 3930, Note_off_c, 4, 67, 0
6, 3936, Note_on_c, 4, 64, 62
6, 3999, Note_off_c, 4, 64, 0
6, 4008, Note_on_c, 4, 65, 62
6, 4029, Note_off_c, 4, 65, 0
6, 4032, Note_on_c, 4, 67, 62
6, 4053, Note_off_c, 4, 67, 0
6, 4056, Note_on_c, 4, 69, 62
6, 4077, Note_off_c, 4, 69, 0
6, 4080, Note_on_c, 4, 70, 62
6, 4101, Note_off_c, 4, 70, 0
6, 4104, Note_on_c, 4, 67, 62
6, 4125, Note_off_c, 4, 67, 0
6, 4128, Note_on_c, 4, 72, 62
6, 4245, Note_off_c, 4, 72, 0
6, 4248, Note_on_c, 4, 70, 62
6, 4269, Note_off_c, 4, 70, 0
6, 4272, Note_on_c, 4, 72, 62
6, 4293, Note_off_c, 4, 72, 0
6, 4296, Note_on_c, 4, 70, 62
6, 4317, Note_off_c, 4, 70, 0
6, 4320, Note_on_c, 4, 69, 62
6, 4362, Note_off_c, 4, 69, 0
6, 4368, Note_on_c, 4, 65, 62
6, 4410, Note_off_c, 4, 65, 0
6, 4416, Note_on_c, 4, 65, 62
6, 4458, Note_off_c, 4, 65, 0
6, 4464, Note_on_c, 4, 65, 62
6, 4506, Note_off_c, 4, 65, 0
6, 4512, Note_on_c, 4, 67, 62
6, 4554, Note_off_c, 4, 67, 0
6, 4560, Note_on_c, 4, 60, 62
6, 4602, Note_off_c, 4, 60, 0
6, 4608, Note_on_c, 4, 60, 62
6, 4671, Note_off_c, 4, 60, 0
6, 4680, Note_on_c, 4, 60, 62
6, 4701, Note_off_c, 4, 60, 0
6, 4704, Note_on_c, 4, 60, 62
6, 4746, Note_off_c, 4, 60, 0
6, 4752, Note_on_c, 4, 60, 62
6, 4794, Note_off_c, 4, 60, 0
6, 4800, Note_on_c, 4, 60, 62
6, 4842, Note_off_c, 4, 60, 0
6, 4848, Note_on_c, 4, 64, 62
6, 4890, Note_off_c, 4, 64, 0
6, 4896, Note_on_c, 4, 69, 62
6, 4938, Note_off_c, 4, 69, 0
6, 4944, Note_on_c, 4, 65, 62
6, 4986, Note_off_c, 4, 65, 0
6, 4992, Note_on_c, 4, 65, 62
6, 5034, Note_off_c, 4, 65, 0
6, 5040, Note_on_c, 4, 64, 62
6, 5082, Note_off_c, 4, 64, 0
6, 5088, Note_on_c, 4, 60, 62
6, 5130, Note_off_c, 4, 60, 0
6, 5136, Note_on_c, 4, 69, 62
6, 5157, Note_off_c, 4, 69, 0
6, 5160, Note_on_c, 4, 67, 62
6, 5181, Note_off_c, 4, 67, 0
6, 5184, Note_on_c, 4, 69, 62
6, 5205, Note_off_c, 4, 69, 0
6, 5208, Note_on_c, 4, 67, 62
6, 5229, Note_off_c, 4, 67, 0
6, 5232, Note_on_c, 4, 69, 62
6, 5253, Note_off_c, 4, 69, 0
6, 5256, Note_on_c, 4, 67, 62
6, 5277, Note_off_c, 4, 67, 0
6, 5280, Note_on_c, 4, 69, 62
6, 5364, Note_off_c, 4, 69, 0
6, 5520, Note_on_c, 4, 64, 62
6, 5562, Note_off_c, 4, 64, 0
6, 5568, Note_on_c, 4, 67, 62
6, 5610, Note_off_c, 4, 67, 0
6, 5616, Note_on_c, 4, 71, 62
6, 5658, Note_off_c, 4, 71, 0
6, 5664, Note_on_c, 4, 64, 62
6, 5706, Note_off_c, 4, 64, 0
6, 5712, Note_on_c, 4, 72, 62
6, 5733, Note_off_c, 4, 72, 0
6, 5736, Note_on_c, 4, 71, 62
6, 5757, Note_off_c, 4, 71, 0
6, 5760, Note_on_c, 4, 69, 62
6, 5802, Note_off_c, 4, 69, 0
6, 5808, Note_on_c, 4, 71, 62
6, 5850, Note_off_c, 4, 71, 0
6, 5856, Note_on_c, 4, 67, 62
6, 5940, Note_off_c, 4, 67, 0
6, 6000, Note_on_c, 4, 67, 62
6, 6042, Note_off_c, 4, 67, 0
6, 6048, Note_on_c, 4, 65, 62
6, 6132, Note_off_c, 4, 65, 0
6, 6192, Note_on_c, 4, 69, 62
6, 6234, Note_off_c, 4, 69, 0
6, 6240, Note_on_c, 4, 67, 62
6, 6324, Note_off_c, 4, 67, 0
6, 6384, Note_on_c, 4, 71, 62
6, 6426, Note_off_c, 4, 71, 0
6, 6432, Note_on_c, 4, 69, 62
6, 6453, Note_off_c, 4, 69, 0
6, 6456, Note_on_c, 4, 71, 62
6, 6477, Note_off_c, 4, 71, 0
6, 6480, Note_on_c, 4, 69, 62
6, 6501, Note_off_c, 4, 69, 0
6, 6504, Note_on_c, 4, 67, 62
6, 6525, Note_off_c, 4, 67, 0
6, 6528, Note_on_c, 4, 65, 62
6, 6549, Note_off_c, 4, 65, 0
6, 6552, Note_on_c, 4, 64, 62
6, 6573, Note_off_c, 4, 64, 0
6, 6576, Note_on_c, 4, 65, 62
6, 6597, Note_off_c, 4, 65, 0
6, 6600, Note_on_c, 4, 62, 62
6, 6621, Note_off_c, 4, 62, 0
6, 6624, Note_on_c, 4, 64, 62
6, 6708, Note_off_c, 4, 64, 0
6, 7248, Note_on_c, 4, 69, 62
6, 7269, Note_off_c, 4, 69, 0
6, 7272, Note_on_c, 4, 67, 62
6, 7293, Note_off_c, 4, 67, 0
6, 7296, Note_on_c, 4, 65, 62
6, 7338, Note_off_c, 4, 65, 0
6, 7344, Note_on_c, 4, 64, 62
6, 7386, Note_off_c, 4, 64, 0
6, 7392, Note_on_c, 4, 62, 62
6, 7476, Note_off_c, 4, 62, 0
6, 7824, Note_on_c, 4, 65, 62
6, 7866, Note_off_c, 4, 65, 0
6, 7872, Note_on_c, 4, 70, 62
6, 8004, Note_off_c, 4, 70, 0
6, 8016, Note_on_c, 4, 67, 62
6, 8058, Note_off_c, 4, 67, 0
6, 8064, Note_on_c, 4, 65, 62
6, 8106, Note_off_c, 4, 65, 0
6, 8112, Note_on_c, 4, 67, 62
6, 8154, Note_off_c, 4, 67, 0
6, 8160, Note_on_c, 4, 69, 62
6, 8202, Note_off_c, 4, 69, 0
6, 8208, Note_on_c, 4, 62, 62
6, 8250, Note_off_c, 4, 62, 0
6, 8256, Note_on_c, 4, 67, 62
6, 8388, Note_off_c, 4, 67, 0
6, 8400, Note_on_c, 4, 63, 62
6, 8442, Note_off_c, 4, 63, 0
6, 8448, Note_on_c, 4, 70, 62
6, 8490, Note_off_c, 4, 70, 0
6, 8496, Note_on_c, 4, 67, 62
6, 8538, Note_off_c, 4, 67, 0
6, 8544, Note_on_c, 4, 65, 62
6, 8628, Note_off_c, 4, 65, 0
6, 8688, Note_on_c, 4, 65, 62
6, 8730, Note_off_c, 4, 65, 0
6, 8736, Note_on_c, 4, 60, 62
6, 8778, Note_off_c, 4, 60, 0
6, 8784, Note_on_c, 4, 62, 62
6, 8805, Note_off_c, 4, 62, 0
6, 8808, Note_on_c, 4, 63, 62
6, 8829, Note_off_c, 4, 63, 0
6, 8832, Note_on_c, 4, 65, 62
6, 8874, Note_off_c, 4, 65, 0
6, 8880, Note_on_c, 4, 60, 62
6, 8922, Note_off_c, 4, 60, 0
6, 8928, Note_on_c, 4, 62, 62
6, 9012, Note_off_c, 4, 62, 0
6, 10128, Note_on_c, 4, 65, 62
6, 10149, Note_off_c, 4, 65, 0
6, 10152, Note_on_c, 4, 64, 62
6, 10173, Note_off_c, 4, 64, 0
6, 10176, Note_on_c, 4, 65, 62
6, 10197, Note_off_c, 4, 65, 0
6, 10200, Note_on_c, 4, 64, 62
6, 10221, Note_off_c, 4, 64, 0
6, 10224, Note_on_c, 4, 65, 62
6, 10245, Note_off_c, 4, 65, 0
6, 10248, Note_on_c, 4, 64, 62
6, 10269, Note_off_c, 4, 64, 0
6, 10272, Note_on_c, 4, 62, 62
6, 10314, Note_off_c, 4, 62, 0
6, 10320, Note_on_c, 4, 74, 62
6, 10362, Note_off_c, 4, 74, 0
6, 10368, Note_on_c, 4, 74, 62
6, 10410, Note_off_c, 4, 74, 0
6, 10416, Note_on_c, 4, 73, 62
6, 10458, Note_off_c, 4, 73, 0
6, 10464, Note_on_c, 4, 74, 62
6, 10506, Note_off_c, 4, 74, 0
6, 10512, Note_on_c, 4, 69, 62
6, 10554, Note_off_c, 4, 69, 0
6, 10560, Note_on_c, 4, 65, 62
6, 10602, Note_off_c, 4, 65, 0
6, 10608, Note_on_c, 4, 62, 62
6, 10650, Note_off_c, 4, 62, 0
6, 10656, Note_on_c, 4, 69, 62
6, 10698, Note_off_c, 4, 69, 0
6, 10704, Note_on_c, 4, 64, 62
6, 10746, Note_off_c, 4, 64, 0
6, 10752, Note_on_c, 4, 62, 62
6, 10794, Note_off_c, 4, 62, 0
6, 10800, Note_on_c, 4, 67, 62
6, 10842, Note_off_c, 4, 67, 0
6, 10848, Note_on_c, 4, 64, 62
6, 10890, Note_off_c, 4, 64, 0
6, 10896, Note_on_c, 4, 67, 62
6, 10917, Note_off_c, 4, 67, 0
6, 10920, Note_on_c, 4, 65, 62
6, 10941, Note_off_c, 4, 65, 0
6, 10944, Note_on_c, 4, 67, 62
6, 10965, Note_off_c, 4, 67, 0
6, 10968, Note_on_c, 4, 65, 62
6, 10989, Note_off_c, 4, 65, 0
6, 10992, Note_on_c, 4, 67, 62
6, 11013, Note_off_c, 4, 67, 0
6, 11016, Note_on_c, 4, 65, 62
6, 11037, Note_off_c, 4, 65, 0
6, 11040, Note_on_c, 4, 67, 62
6, 11082, Note_off_c, 4, 67, 0
6, 11088, Note_on_c, 4, 69, 62
6, 11109, Note_off_c, 4, 69, 0
6, 11112, Note_on_c, 4, 67, 62
6, 11133, Note_off_c, 4, 67, 0
6, 11136, Note_on_c, 4, 65, 62
6, 11178, Note_off_c, 4, 65, 0
6, 11184, Note_on_c, 4, 64, 62
6, 11226, Note_off_c, 4, 64, 0
6, 11232, Note_on_c, 4, 62, 62
6, 11274, Note_off_c, 4, 62, 0
6, 11280, Note_on_c, 4, 72, 62
6, 11301, Note_off_c, 4, 72, 0
6, 11304, Note_on_c, 4, 70, 62
6, 11325, Note_off_c, 4, 70, 0
6, 11328, Note_on_c, 4, 72, 62
6, 11349, Note_off_c, 4, 72, 0
6, 11352, Note_on_c, 4, 70, 62
6, 11373, Note_off_c, 4, 70, 0
6, 11376, Note_on_c, 4, 72, 62
6, 11397, Note_off_c, 4, 72, 0
6, 11400, Note_on_c, 4, 70, 62
6, 11421, Note_off_c, 4, 70, 0
6, 11424, Note_on_c, 4, 72, 62
6, 11466, Note_off_c, 4, 72, 0
6, 11472, Note_on_c, 4, 74, 62
6, 11493, Note_off_c, 4, 74, 0
6, 11496, Note_on_c, 4, 72, 62
6, 11517, Note_off_c, 4, 72, 0
6, 11520, Note_on_c, 4, 74, 62
6, 11562, Note_off_c, 4, 74, 0
6, 11568, Note_on_c, 4, 62, 62
6, 11610, Note_off_c, 4, 62, 0
6, 11616, Note_on_c, 4, 67, 62
6, 11658, Note_off_c, 4, 67, 0
6, 11664, Note_on_c, 4, 66, 62
6, 11706, Note_off_c, 4, 66, 0
6, 11712, Note_on_c, 4, 62, 62
6, 11754, Note_off_c, 4, 62, 0
6, 11760, Note_on_c, 4, 67, 62
6, 11802, Note_off_c, 4, 67, 0
6, 11808, Note_on_c, 4, 64, 62
6, 11850, Note_off_c, 4, 64, 0
6, 11856, Note_on_c, 4, 69, 62
6, 11898, Note_off_c, 4, 69, 0
6, 11904, Note_on_c, 4, 64, 62
6, 11946, Note_off_c, 4, 64, 0
6, 11952, Note_on_c, 4, 69, 62
6, 11994, Note_off_c, 4, 69, 0
6, 12000, Note_on_c, 4, 69, 62
6, 12042, Note_off_c, 4, 69, 0
6, 12048, Note_on_c, 4, 67, 62
6, 12069, Note_off_c, 4, 67, 0
6, 12072, Note_on_c, 4, 69, 62
6, 12093, Note_off_c, 4, 69, 0
6, 12096, Note_on_c, 4, 70, 62
6, 12138, Note_off_c, 4, 70, 0
6, 12144, Note_on_c, 4, 64, 62
6, 12186, Note_off_c, 4, 64, 0
6, 12192, Note_on_c, 4, 69, 62
6, 12234, Note_off_c, 4, 69, 0
6, 12240, Note_on_c, 4, 69, 62
6, 12282, Note_off_c, 4, 69, 0
6, 12288, Note_on_c, 4, 69, 62
6, 12330, Note_off_c, 4, 69, 0
6, 12336, Note_on_c, 4, 64, 62
6, 12378, Note_off_c, 4, 64, 0
6, 12384, Note_on_c, 4, 65, 62
6, 12426, Note_off_c, 4, 65, 0
6, 12432, Note_on_c, 4, 74, 62
6, 12474, Note_off_c, 4, 74, 0
6, 12480, Note_on_c, 4, 72, 62
6, 12522, Note_off_c, 4, 72, 0
6, 12528, Note_on_c, 4, 70, 62
6, 12570, Note_off_c, 4, 70, 0
6, 12576, Note_on_c, 4, 69, 62
6, 12618, Note_off_c, 4, 69, 0
6, 12624, Note_on_c, 4, 67, 62
6, 12666, Note_off_c, 4, 67, 0
6, 12672, Note_on_c, 4, 66, 62
6, 12714, Note_off_c, 4, 66, 0
6, 12720, Note_on_c, 4, 62, 62
6, 12762, Note_off_c, 4, 62, 0
6, 12768, Note_on_c, 4, 67, 62
6, 12810, Note_off_c, 4, 67, 0
6, 13584, Note_on_c, 4, 63, 62
6, 13626, Note_off_c, 4, 63, 0
6, 13632, Note_on_c, 4, 69, 62
6, 13674, Note_off_c, 4, 69, 0
6, 13680, Note_on_c, 4, 72, 62
6, 13722, Note_off_c, 4, 72, 0
6, 13776, Note_on_c, 4, 62, 62
6, 13818, Note_off_c, 4, 62, 0
6, 13824, Note_on_c, 4, 67, 62
6, 13866, Note_off_c, 4, 67, 0
6, 13872, Note_on_c, 4, 70, 62
6, 13914, Note_off_c, 4, 70, 0
6, 13968, Note_on_c, 4, 60, 62
6, 14010, Note_off_c, 4, 60, 0
6, 14016, Note_on_c, 4, 65, 62
6, 14058, Note_off_c, 4, 65, 0
6, 14064, Note_on_c, 4, 69, 62
6, 14106, Note_off_c, 4, 69, 0
6, 14208, Note_on_c, 4, 72, 62
6, 14346, Note_off_c, 4, 72, 0
6, 14352, Note_on_c, 4, 60, 62
6, 14394, Note_off_c, 4, 60, 0
6, 14400, Note_on_c, 4, 65, 62
6, 14442, Note_off_c, 4, 65, 0
6, 14448, Note_on_c, 4, 69, 62
6, 14490, Note_off_c, 4, 69, 0
6, 14496, Note_on_c, 4, 74, 62
6, 14730, Note_off_c, 4, 74, 0
6, 14736, Note_on_c, 4, 62, 62
6, 14778, Note_off_c, 4, 62, 0
6, 14784, Note_on_c, 4, 67, 62
6, 14826, Note_off_c, 4, 67, 0
6, 14832, Note_on_c, 4, 71, 62
6, 14874, Note_off_c, 4, 71, 0
6, 14880, Note_on_c, 4, 76, 62
6, 15114, Note_off_c, 4, 76, 0
6, 15120, Note_on_c, 4, 64, 62
6, 15162, Note_off_c, 4, 64, 0
6, 15168, Note_on_c, 4, 69, 62
6, 15210, Note_off_c, 4, 69, 0
6, 15216, Note_on_c, 4, 72, 62
6, 15258, Note_off_c, 4, 72, 0
6, 15264, Note_on_c, 4, 75, 62
6, 15381, Note_off_c, 4, 75, 0
6, 15384, Note_on_c, 4, 74, 62
6, 15405, Note_off_c, 4, 74, 0
6, 15408, Note_on_c, 4, 75, 62
6, 15429, Note_off_c, 4, 75, 0
6, 15432, Note_on_c, 4, 74, 62
6, 15453, Note_off_c, 4, 74, 0
6, 15456, Note_on_c, 4, 75, 62
6, 15573, Note_off_c, 4, 75, 0
6, 15576, Note_on_c, 4, 74, 62
6, 15597, Note_off_c, 4, 74, 0
6, 15600, Note_on_c, 4, 75, 62
6, 15621, Note_off_c, 4, 75, 0
6, 15624, Note_on_c, 4, 72, 62
6, 15645, Note_off_c, 4, 72, 0
6, 15648, Note_on_c, 4, 74, 62
6, 15732, Note_off_c, 4, 74, 0
6, 15792, Note_on_c, 4, 62, 62
6, 15834, Note_off_c, 4, 62, 0
6, 15840, Note_on_c, 4, 62, 62
6, 15882, Note_off_c, 4, 62, 0
6, 15888, Note_on_c, 4, 67, 62
6, 15930, Note_off_c, 4, 67, 0
6, 15936, Note_on_c, 4, 71, 62
6, 15978, Note_off_c, 4, 71, 0
6, 15984, Note_on_c, 4, 62, 62
6, 16026, Note_off_c, 4, 62, 0
6, 16032, Note_on_c, 4, 64, 62
6, 16074, Note_off_c, 4, 64, 0
6, 16080, Note_on_c, 4, 69, 62
6, 16122, Note_off_c, 4, 69, 0
6, 16128, Note_on_c, 4, 62, 62
6, 16170, Note_off_c, 4, 62, 0
6, 16176, Note_on_c, 4, 67, 62
6, 16218, Note_off_c, 4, 67, 0
6, 16224, Note_on_c, 4, 64, 62
6, 16266, Note_off_c, 4, 64, 0
6, 16272, Note_on_c, 4, 64, 62
6, 16293, Note_off_c, 4, 64, 0
6, 16296, Note_on_c, 4, 62, 62
6, 16317, Note_off_c, 4, 62, 0
6, 16320, Note_on_c, 4, 64, 62
6, 16341, Note_off_c, 4, 64, 0
6, 16344, Note_on_c, 4, 62, 62
6, 16365, Note_off_c, 4, 62, 0
6, 16368, Note_on_c, 4, 64, 62
6, 16389, Note_off_c, 4, 64, 0
6, 16392, Note_on_c, 4, 62, 62
6, 16413, Note_off_c, 4, 62, 0
6, 16416, Note_on_c, 4, 60, 62
6, 16458, Note_off_c, 4, 60, 0
6, 16464, Note_on_c, 4, 72, 62
6, 16506, Note_off_c, 4, 72, 0
6, 16512, Note_on_c, 4, 72, 62
6, 16554, Note_off_c, 4, 72, 0
6, 16560, Note_on_c, 4, 71, 62
6, 16602, Note_off_c, 4, 71, 0
6, 16608, Note_on_c, 4, 72, 62
6, 16650, Note_off_c, 4, 72, 0
6, 16656, Note_on_c, 4, 67, 62
6, 16698, Note_off_c, 4, 67, 0
6, 16704, Note_on_c, 4, 64, 62
6, 16746, Note_off_c, 4, 64, 0
6, 16752, Note_on_c, 4, 60, 62
6, 16794, Note_off_c, 4, 60, 0
6, 16800, Note_on_c, 4, 67, 62
6, 16842, Note_off_c, 4, 67, 0
6, 16848, Note_on_c, 4, 67, 62
6, 16890, Note_off_c, 4, 67, 0
6, 16896, Note_on_c, 4, 64, 62
6, 16938, Note_off_c, 4, 64, 0
6, 16944, Note_on_c, 4, 62, 62
6, 16986, Note_off_c, 4, 62, 0
6, 16992, Note_on_c, 4, 62, 62
6, 17034, Note_off_c, 4, 62, 0
6, 17040, Note_on_c, 4, 65, 62
6, 17061, Note_off_c, 4, 65, 0
6, 17064, Note_on_c, 4, 64, 62
6, 17085, Note_off_c, 4, 64, 0
6, 17088, Note_on_c, 4, 65, 62
6, 17109, Note_off_c, 4, 65, 0
6, 17112, Note_on_c, 4, 64, 62
6, 17133, Note_off_c, 4, 64, 0
6, 17136, Note_on_c, 4, 65, 62
6, 17157, Note_off_c, 4, 65, 0
6, 17160, Note_on_c, 4, 64, 62
6, 17181, Note_off_c, 4, 64, 0
6, 17184, Note_on_c, 4, 64, 62
6, 17226, Note_off_c, 4, 64, 0
6, 17232, Note_on_c, 4, 68, 62
6, 17274, Note_off_c, 4, 68, 0
6, 17280, Note_on_c, 4, 69, 62
6, 17322, Note_off_c, 4, 69, 0
6, 17328, Note_on_c, 4, 71, 62
6, 17370, Note_off_c, 4, 71, 0
6, 17376, Note_on_c, 4, 64, 62
6, 17418, Note_off_c, 4, 64, 0
6, 17424, Note_on_c, 4, 67, 62
6, 17445, Note_off_c, 4, 67, 0
6, 17448, Note_on_c, 4, 65, 62
6, 17469, Note_off_c, 4, 65, 0
6, 17472, Note_on_c, 4, 67, 62
6, 17493, Note_off_c, 4, 67, 0
6, 17496, Note_on_c, 4, 65, 62
6, 17517, Note_off_c, 4, 65, 0
6, 17520, Note_on_c, 4, 67, 62
6, 17541, Note_off_c, 4, 67, 0
6, 17544, Note_on_c, 4, 65, 62
6, 17565, Note_off_c, 4, 65, 0
6, 17568, Note_on_c, 4, 67, 62
6, 17610, Note_off_c, 4, 67, 0
6, 17616, Note_on_c, 4, 69, 62
6, 17637, Note_off_c, 4, 69, 0
6, 17640, Note_on_c, 4, 70, 62
6, 17661, Note_off_c, 4, 70, 0
6, 17664, Note_on_c, 4, 69, 62
6, 17685, Note_off_c, 4, 69, 0
6, 17688, Note_on_c, 4, 67, 62
6, 17709, Note_off_c, 4, 67, 0
6, 17712, Note_on_c, 4, 65, 62
6, 17733, Note_off_c, 4, 65, 0
6, 17736, Note_on_c, 4, 64, 62
6, 17757, Note_off_c, 4, 64, 0
6, 17760, Note_on_c, 4, 62, 62
6, 17844, Note_off_c, 4, 62, 0
6, 17904, Note_on_c, 4, 64, 62
6, 17946, Note_off_c, 4, 64, 0
6, 17952, Note_on_c, 4, 64, 62
6, 17994, Note_off_c, 4, 64, 0
6, 18000, Note_on_c, 4, 65, 62
6, 18042, Note_off_c, 4, 65, 0
6, 18048, Note_on_c, 4, 64, 62
6, 18090, Note_off_c, 4, 64, 0
6, 18096, Note_on_c, 4, 64, 62
6, 18138, Note_off_c, 4, 64, 0
6, 18144, Note_on_c, 4, 60, 62
6, 18228, Note_off_c, 4, 60, 0
6, 19728, Note_on_c, 4, 70, 62
6, 19749, Note_off_c, 4, 70, 0
6, 19752, Note_on_c, 4, 69, 62
6, 19773, Note_off_c, 4, 69, 0
6, 19776, Note_on_c, 4, 70, 62
6, 19797, Note_off_c, 4, 70, 0
6, 19800, Note_on_c, 4, 69, 62
6, 19821, Note_off_c, 4, 69, 0
6, 19824, Note_on_c, 4, 70, 62
6, 19845, Note_off_c, 4, 70, 0
6, 19848, Note_on_c, 4, 69, 62
6, 19869, Note_off_c, 4, 69, 0
6, 19872, Note_on_c, 4, 67, 62
6, 19893, Note_off_c, 4, 67, 0
6, 19896, Note_on_c, 4, 66, 62
6, 19917, Note_off_c, 4, 66, 0
6, 19920, Note_on_c, 4, 67, 62
6, 19941, Note_off_c, 4, 67, 0
6, 19944, Note_on_c, 4, 66, 62
6, 19965, Note_off_c, 4, 66, 0
6, 19968, Note_on_c, 4, 67, 62
6, 19989, Note_off_c, 4, 67, 0
6, 19992, Note_on_c, 4, 66, 62
6, 20013, Note_off_c, 4, 66, 0
6, 20016, Note_on_c, 4, 67, 62
6, 20037, Note_off_c, 4, 67, 0
6, 20040, Note_on_c, 4, 66, 62
6, 20061, Note_off_c, 4, 66, 0
6, 20064, Note_on_c, 4, 67, 62
6, 20106, Note_off_c, 4, 67, 0
6, 21648, Note_on_c, 4, 69, 62
6, 21669, Note_off_c, 4, 69, 0
6, 21672, Note_on_c, 4, 67, 62
6, 21693, Note_off_c, 4, 67, 0
6, 21696, Note_on_c, 4, 69, 62
6, 21717, Note_off_c, 4, 69, 0
6, 21720, Note_on_c, 4, 67, 62
6, 21741, Note_off_c, 4, 67, 0
6, 21744, Note_on_c, 4, 69, 62
6, 21765, Note_off_c, 4, 69, 0
6, 21768, Note_on_c, 4, 67, 62
6, 21789, Note_off_c, 4, 67, 0
6, 21792, Note_on_c, 4, 65, 62
6, 21813, Note_off_c, 4, 65, 0
6, 21816, Note_on_c, 4, 64, 62
6, 21837, Note_off_c, 4, 64, 0
6, 21840, Note_on_c, 4, 65, 62
6, 21861, Note_off_c, 4, 65, 0
6, 21864, Note_on_c, 4, 64, 62
6, 21885, Note_off_c, 4, 64, 0
6, 21888, Note_on_c, 4, 62, 62
6, 21930, Note_off_c, 4, 62, 0
6, 21936, Note_on_c, 4, 64, 62
6, 21978, Note_off_c, 4, 64, 0
6, 21984, Note_on_c, 4, 60, 62
6, 22026, Note_off_c, 4, 60, 0
6, 22032, Note_on_c, 4, 60, 62
6, 22074, Note_off_c, 4, 60, 0
6, 22080, Note_on_c, 4, 60, 62
6, 22122, Note_off_c, 4, 60, 0
6, 22128, Note_on_c, 4, 64, 62
6, 22170, Note_off_c, 4, 64, 0
6, 22176, Note_on_c, 4, 69, 62
6, 22218, Note_off_c, 4, 69, 0
6, 22224, Note_on_c, 4, 65, 62
6, 22266, Note_off_c, 4, 65, 0
6, 22272, Note_on_c, 4, 65, 62
6, 22314, Note_off_c, 4, 65, 0
6, 22320, Note_on_c, 4, 64, 62
6, 22362, Note_off_c, 4, 64, 0
6, 22368, Note_on_c, 4, 60, 62
6, 22410, Note_off_c, 4, 60, 0
6, 22416, Note_on_c, 4, 69, 62
6, 22437, Note_off_c, 4, 69, 0
6, 22440, Note_on_c, 4, 67, 62
6, 22461, Note_off_c, 4, 67, 0
6, 22464, Note_on_c, 4, 69, 62
6, 22485, Note_off_c, 4, 69, 0
6, 22488, Note_on_c, 4, 67, 62
6, 22509, Note_off_c, 4, 67, 0
6, 22512, Note_on_c, 4, 69, 62
6, 22533, Note_off_c, 4, 69, 0
6, 22536, Note_on_c, 4, 67, 62
6, 22557, Note_off_c, 4, 67, 0
6, 22560, Note_on_c, 4, 69, 62
6, 22644, Note_off_c, 4, 69, 0
6, 22800, Note_on_c, 4, 64, 62
6, 22842, Note_off_c, 4, 64, 0
6, 22848, Note_on_c, 4, 67, 62
6, 22890, Note_off_c, 4, 67, 0
6, 22896, Note_on_c, 4, 71, 62
6, 22938, Note_off_c, 4, 71, 0
6, 22944, Note_on_c, 4, 64, 62
6, 22986, Note_off_c, 4, 64, 0
6, 22992, Note_on_c, 4, 72, 62
6, 23013, Note_off_c, 4, 72, 0
6, 23016, Note_on_c, 4, 71, 62
6, 23037, Note_off_c, 4, 71, 0
6, 23040, Note_on_c, 4, 69, 62
6, 23082, Note_off_c, 4, 69, 0
6, 23088, Note_on_c, 4, 71, 62
6, 23130, Note_off_c, 4, 71, 0
6, 23136, Note_on_c, 4, 67, 62
6, 23220, Note_off_c, 4, 67, 0
6, 23280, Note_on_c, 4, 67, 62
6, 23322, Note_off_c, 4, 67, 0
6, 23328, Note_on_c, 4, 65, 62
6, 23412, Note_off_c, 4, 65, 0
6, 23472, Note_on_c, 4, 69, 62
6, 23514, Note_off_c, 4, 69, 0
6, 23520, Note_on_c, 4, 67, 62
6, 23604, Note_off_c, 4, 67, 0
6, 23664, Note_on_c, 4, 71, 62
6, 23706, Note_off_c, 4, 71, 0
6, 23712, Note_on_c, 4, 69, 62
6, 23733, Note_off_c, 4, 69, 0
6, 23736, Note_on_c, 4, 71, 62
6, 23757, Note_off_c, 4, 71, 0
6, 23760, Note_on_c, 4, 69, 62
6, 23781, Note_off_c, 4, 69, 0
6, 23784, Note_on_c, 4, 67, 62
6, 23805, Note_off_c, 4, 67, 0
6, 23808, Note_on_c, 4, 65, 62
6, 23829, Note_off_c, 4, 65, 0
6, 23832, Note_on_c, 4, 64, 62
6, 23853, Note_off_c, 4, 64, 0
6, 23856, Note_on_c, 4, 65, 62
6, 23877, Note_off_c, 4, 65, 0
6, 23880, Note_on_c, 4, 62, 62
6, 23901, Note_off_c, 4, 62, 0
6, 23904, Note_on_c, 4, 64, 62
6, 23946, Note_off_c, 4, 64, 0
6, 23952, Note_on_c, 4, 72, 62
6, 23994, Note_off_c, 4, 72, 0
6, 24000, Note_on_c, 4, 70, 62
6, 24042, Note_off_c, 4, 70, 0
6, 24048, Note_on_c, 4, 69, 62
6, 24090, Note_off_c, 4, 69, 0
6, 24096, Note_on_c, 4, 67, 62
6, 24138, Note_off_c, 4, 67, 0
6, 24144, Note_on_c, 4, 65, 62
6, 24186, Note_off_c, 4, 65, 0
6, 24192, Note_on_c, 4, 64, 62
6, 24234, Note_off_c, 4, 64, 0
6, 24240, Note_on_c, 4, 60, 62
6, 24282, Note_off_c, 4, 60, 0
6, 24288, Note_on_c, 4, 65, 62
6, 24330, Note_off_c, 4, 65, 0
6, 24816, Note_on_c, 4, 68, 62
6, 24858, Note_off_c, 4, 68, 0
6, 24864, Note_on_c, 4, 68, 62
6, 24906, Note_off_c, 4, 68, 0
6, 24912, Note_on_c, 4, 67, 62
6, 24954, Note_off_c, 4, 67, 0
6, 25008, Note_on_c, 4, 67, 62
6, 25050, Note_off_c, 4, 67, 0
6, 25056, Note_on_c, 4, 67, 62
6, 25098, Note_off_c, 4, 67, 0
6, 25104, Note_on_c, 4, 65, 62
6, 25146, Note_off_c, 4, 65, 0
6, 25200, Note_on_c, 4, 65, 62
6, 25242, Note_off_c, 4, 65, 0
6, 25248, Note_on_c, 4, 65, 62
6, 25290, Note_off_c, 4, 65, 0
6, 25296, Note_on_c, 4, 69, 62
6, 25338, Note_off_c, 4, 69, 0
6, 25440, Note_on_c, 4, 70, 62
6, 25812, Note_off_c, 4, 70, 0
6, 25824, Note_on_c, 4, 72, 62
6, 26196, Note_off_c, 4, 72, 0
6, 26208, Note_on_c, 4, 74, 62
6, 26388, Note_off_c, 4, 74, 0
6, 26448, Note_on_c, 4, 62, 62
6, 26490, Note_off_c, 4, 62, 0
6, 26496, Note_on_c, 4, 65, 62
6, 26538, Note_off_c, 4, 65, 0
6, 26544, Note_on_c, 4, 71, 62
6, 26586, Note_off_c, 4, 71, 0
6, 26592, Note_on_c, 4, 74, 62
6, 26634, Note_off_c, 4, 74, 0
6, 26640, Note_on_c, 4, 65, 62
6, 26682, Note_off_c, 4, 65, 0
6, 26688, Note_on_c, 4, 68, 62
6, 26730, Note_off_c, 4, 68, 0
6, 26736, Note_on_c, 4, 74, 62
6, 26778, Note_off_c, 4, 74, 0
6, 26784, Note_on_c, 4, 74, 62
6, 26826, Note_off_c, 4, 74, 0
6, 26832, Note_on_c, 4, 77, 62
6, 26874, Note_off_c, 4, 77, 0
6, 26880, Note_on_c, 4, 71, 62
6, 26922, Note_off_c, 4, 71, 0
6, 26928, Note_on_c, 4, 74, 62
6, 26970, Note_off_c, 4, 74, 0
6, 26976, Note_on_c, 4, 76, 62
6, 27060, Note_off_c, 4, 76, 0
6, 27120, Note_on_c, 4, 72, 62
6, 27162, Note_off_c, 4, 72, 0
6, 27168, Note_on_c, 4, 72, 62
6, 27210, Note_off_c, 4, 72, 0
6, 27216, Note_on_c, 4, 74, 62
6, 27237, Note_off_c, 4, 74, 0
6, 27240, Note_on_c, 4, 72, 62
6, 27261, Note_off_c, 4, 72, 0
6, 27264, Note_on_c, 4, 70, 62
6, 27285, Note_off_c, 4, 70, 0
6, 27288, Note_on_c, 4, 69, 62
6, 27309, Note_off_c, 4, 69, 0
6, 27312, Note_on_c, 4, 70, 62
6, 27333, Note_off_c, 4, 70, 0
6, 27336, Note_on_c, 4, 67, 62
6, 27357, Note_off_c, 4, 67, 0
6, 27360, Note_on_c, 4, 69, 62
6, 27402, Note_off_c, 4, 69, 0
6, 27408, Note_on_c, 4, 69, 62
6, 27429, Note_off_c, 4, 69, 0
6, 27432, Note_on_c, 4, 67, 62
6, 27453, Note_off_c, 4, 67, 0
6, 27456, Note_on_c, 4, 69, 62
6, 27477, Note_off_c, 4, 69, 0
6, 27480, Note_on_c, 4, 67, 62
6, 27501, Note_off_c, 4, 67, 0
6, 27504, Note_on_c, 4, 69, 62
6, 27525, Note_off_c, 4, 69, 0
6, 27528, Note_on_c, 4, 67, 62
6, 27549, Note_off_c, 4, 67, 0
6, 27552, Note_on_c, 4, 65, 62
6, 27573, Note_off_c, 4, 65, 0
6, 27576, Note_on_c, 4, 64, 62
6, 27597, Note_off_c, 4, 64, 0
6, 27600, Note_on_c, 4, 65, 62
6, 27621, Note_off_c, 4, 65, 0
6, 27624, Note_on_c, 4, 64, 62
6, 27645, Note_off_c, 4, 64, 0
6, 27648, Note_on_c, 4, 62, 62
6, 27690, Note_off_c, 4, 62, 0
6, 27696, Note_on_c, 4, 64, 62
6, 27738, Note_off_c, 4, 64, 0
6, 27744, Note_on_c, 4, 60, 62
6, 27786, Note_off_c, 4, 60, 0
6, 27792, Note_on_c, 4, 72, 62
6, 27834, Note_off_c, 4, 72, 0
6, 27840, Note_on_c, 4, 69, 62
6, 27882, Note_off_c, 4, 69, 0
6, 27888, Note_on_c, 4, 65, 62
6, 27930, Note_off_c, 4, 65, 0
6, 27936, Note_on_c, 4, 64, 62
6, 27957, Note_off_c, 4, 64, 0
6, 27960, Note_on_c, 4, 65, 62
6, 27981, Note_off_c, 4, 65, 0
6, 27984, Note_on_c, 4, 67, 62
6, 28005, Note_off_c, 4, 67, 0
6, 28008, Note_on_c, 4, 69, 62
6, 28029, Note_off_c, 4, 69, 0
6, 28032, Note_on_c, 4, 65, 62
6, 28074, Note_off_c, 4, 65, 0
6, 28080, Note_on_c, 4, 67, 62
6, 28170, Note_off_c, 4, 67, 0
6, 28176, Note_on_c, 4, 67, 62
6, 28218, Note_off_c, 4, 67, 0
6, 28224, Note_on_c, 4, 72, 62
6, 28356, Note_off_c, 4, 72, 0
6, 28368, Note_on_c, 4, 69, 62
6, 28410, Note_off_c, 4, 69, 0
6, 28416, Note_on_c, 4, 67, 62
6, 28458, Note_off_c, 4, 67, 0
6, 28464, Note_on_c, 4, 69, 62
6, 28506, Note_off_c, 4, 69, 0
6, 28512, Note_on_c, 4, 71, 62
6, 28554, Note_off_c, 4, 71, 0
6, 28560, Note_on_c, 4, 64, 62
6, 28602, Note_off_c, 4, 64, 0
6, 28608, Note_on_c, 4, 69, 62
6, 28740, Note_off_c, 4, 69, 0
6, 28752, Note_on_c, 4, 65, 62
6, 28794, Note_off_c, 4, 65, 0
6, 28800, Note_on_c, 4, 60, 62
6, 28842, Note_off_c, 4, 60, 0
6, 28848, Note_on_c, 4, 69, 62
6, 28890, Note_off_c, 4, 69, 0
6, 28896, Note_on_c, 4, 67, 62
6, 28980, Note_off_c, 4, 67, 0
6, 29040, Note_on_c, 4, 67, 62
6, 29082, Note_off_c, 4, 67, 0
6, 29088, Note_on_c, 4, 62, 62
6, 29130, Note_off_c, 4, 62, 0
6, 29136, Note_on_c, 4, 64, 62
6, 29157, Note_off_c, 4, 64, 0
6, 29160, Note_on_c, 4, 65, 62
6, 29181, Note_off_c, 4, 65, 0
6, 29184, Note_on_c, 4, 67, 62
6, 29226, Note_off_c, 4, 67, 0
6, 29232, Note_on_c, 4, 62, 62
6, 29274, Note_off_c, 4, 62, 0
6, 29280, Note_on_c, 4, 64, 62
6, 29322, Note_off_c, 4, 64, 0
6, 29520, Note_on_c, 4, 74, 62
6, 29541, Note_off_c, 4, 74, 0
6, 29544, Note_on_c, 4, 72, 62
6, 29565, Note_off_c, 4, 72, 0
6, 29568, Note_on_c, 4, 70, 62
6, 29610, Note_off_c, 4, 70, 0
6, 29616, Note_on_c, 4, 69, 62
6, 29658, Note_off_c, 4, 69, 0
6, 29664, Note_on_c, 4, 67, 62
6, 29706, Note_off_c, 4, 67, 0
6, 29904, Note_on_c, 4, 69, 62
6, 29925, Note_off_c, 4, 69, 0
6, 29928, Note_on_c, 4, 67, 62
6, 29949, Note_off_c, 4, 67, 0
6, 29952, Note_on_c, 4, 65, 62
6, 29994, Note_off_c, 4, 65, 0
6, 30000, Note_on_c, 4, 64, 62
6, 30042, Note_off_c, 4, 64, 0
6, 30048, Note_on_c, 4, 62, 62
6, 30090, Note_off_c, 4, 62, 0
6, 30096, Note_on_c, 4, 62, 62
6, 30138, Note_off_c, 4, 62, 0
6, 30144, Note_on_c, 4, 60, 62
6, 30186, Note_off_c, 4, 60, 0
6, 30192, Note_on_c, 4, 62, 62
6, 30234, Note_off_c, 4, 62, 0
6, 30240, Note_on_c, 4, 64, 62
6, 30282, Note_off_c, 4, 64, 0
6, 30288, Note_on_c, 4, 70, 62
6, 30309, Note_off_c, 4, 70, 0
6, 30312, Note_on_c, 4, 69, 62
6, 30333, Note_off_c, 4, 69, 0
6, 30336, Note_on_c, 4, 70, 62
6, 30357, Note_off_c, 4, 70, 0
6, 30360, Note_on_c, 4, 69, 62
6, 30381, Note_off_c, 4, 69, 0
6, 30384, Note_on_c, 4, 70, 62
6, 30405, Note_off_c, 4, 70, 0
6, 30408, Note_on_c, 4, 69, 62
6, 30429, Note_off_c, 4, 69, 0
6, 30432, Note_on_c, 4, 70, 62
6, 30474, Note_off_c, 4, 70, 0
6, 30480, Note_on_c, 4, 72, 62
6, 30501, Note_off_c, 4, 72, 0
6, 30504, Note_on_c, 4, 70, 62
6, 30525, Note_off_c, 4, 70, 0
6, 30528, Note_on_c, 4, 69, 62
6, 30570, Note_off_c, 4, 69, 0
6, 30576, Note_on_c, 4, 67, 62
6, 30618, Note_off_c, 4, 67, 0
6, 30624, Note_on_c, 4, 65, 62
6, 30666, Note_off_c, 4, 65, 0
6, 30672, Note_on_c, 4, 75, 62
6, 30693, Note_off_c, 4, 75, 0
6, 30696, Note_on_c, 4, 74, 62
6, 30717, Note_off_c, 4, 74, 0
6, 30720, Note_on_c, 4, 75, 62
6, 30741, Note_off_c, 4, 75, 0
6, 30744, Note_on_c, 4, 74, 62
6, 30765, Note_off_c, 4, 74, 0
6, 30768, Note_on_c, 4, 75, 62
6, 30789, Note_off_c, 4, 75, 0
6, 30792, Note_on_c, 4, 74, 62
6, 30813, Note_off_c, 4, 74, 0
6, 30816, Note_on_c, 4, 75, 62
6, 30858, Note_off_c, 4, 75, 0
6, 30864, Note_on_c, 4, 77, 62
6, 30885, Note_off_c, 4, 77, 0
6, 30888, Note_on_c, 4, 75, 62
6, 30909, Note_off_c, 4, 75, 0
6, 30912, Note_on_c, 4, 74, 62
6, 30954, Note_off_c, 4, 74, 0
6, 30960, Note_on_c, 4, 72, 62
6, 31002, Note_off_c, 4, 72, 0
6, 31008, Note_on_c, 4, 70, 62
6, 31050, Note_off_c, 4, 70, 0
6, 31056, Note_on_c, 4, 70, 62
6, 31077, Note_off_c, 4, 70, 0
6, 31080, Note_on_c, 4, 72, 62
6, 31101, Note_off_c, 4, 72, 0
6, 31104, Note_on_c, 4, 70, 62
6, 31146, Note_off_c, 4, 70, 0
6, 31152, Note_on_c, 4, 67, 62
6, 31194, Note_off_c, 4, 67, 0
6, 31200, Note_on_c, 4, 64, 62
6, 31263, Note_off_c, 4, 64, 0
6, 31272, Note_on_c, 4, 65, 62
6, 31293, Note_off_c, 4, 65, 0
6, 31296, Note_on_c, 4, 67, 62
6, 31317, Note_off_c, 4, 67, 0
6, 31320, Note_on_c, 4, 69, 62
6, 31341, Note_off_c, 4, 69, 0
6, 31344, Note_on_c, 4, 70, 62
6, 31365, Note_off_c, 4, 70, 0
6, 31368, Note_on_c, 4, 67, 62
6, 31389, Note_off_c, 4, 67, 0
6, 31392, Note_on_c, 4, 72, 62
6, 31509, Note_off_c, 4, 72, 0
6, 31512, Note_on_c, 4, 70, 62
6, 31533, Note_off_c, 4, 70, 0
6, 31536, Note_on_c, 4, 72, 62
6, 31557, Note_off_c, 4, 72, 0
6, 31560, Note_on_c, 4, 70, 62
6, 31581, Note_off_c, 4, 70, 0
6, 31584, Note_on_c, 4, 69, 62
6, 31626, Note_off_c, 4, 69, 0
6, 31632, Note_on_c, 4, 65, 62
6, 31674, Note_off_c, 4, 65, 0
6, 31680, Note_on_c, 4, 65, 62
6, 31722, Note_off_c, 4, 65, 0
6, 31728, Note_on_c, 4, 65, 62
6, 31770, Note_off_c, 4, 65, 0
6, 31776, Note_on_c, 4, 67, 62
6, 31818, Note_off_c, 4, 67, 0
6, 31824, Note_on_c, 4, 60, 62
6, 31866, Note_off_c, 4, 60, 0
6, 31872, Note_on_c, 4, 60, 62
6, 31935, Note_off_c, 4, 60, 0
6, 31944, Note_on_c, 4, 60, 62
6, 31965, Note_off_c, 4, 60, 0
6, 31968, Note_on_c, 4, 60, 62
6, 32010, Note_off_c, 4, 60, 0
6, 32016, Note_on_c, 4, 69, 62
6, 32037, Note_off_c, 4, 69, 0
6, 32040, Note_on_c, 4, 67, 62
6, 32061, Note_off_c, 4, 67, 0
6, 32064, Note_on_c, 4, 69, 62
6, 32085, Note_off_c, 4, 69, 0
6, 32088, Note_on_c, 4, 67, 62
6, 32109, Note_off_c, 4, 67, 0
6, 32112, Note_on_c, 4, 69, 62
6, 32133, Note_off_c, 4, 69, 0
6, 32136, Note_on_c, 4, 67, 62
6, 32157, Note_off_c, 4, 67, 0
6, 32160, Note_on_c, 4, 69, 62
6, 32340, Note_off_c, 4, 69, 0
6, 32340, End_track
7, 0, Start_track
7, 0, Title_t, "Fagotto"
7, 0, Control_c, 5, 0, 0
7, 0, Program_c, 5, 70
7, 0, Time_signature, 4, 2, 96, 8
7, 0, Tempo, 681818
7, 96, Note_on_c, 5, 53, 62
7, 180, Note_off_c, 5, 53, 0
7, 240, Note_on_c, 5, 48, 62
7, 282, Note_off_c, 5, 48, 0
7, 288, Note_on_c, 5, 50, 62
7, 330, Note_off_c, 5, 50, 0
7, 336, Note_on_c, 5, 45, 62
7, 378, Note_off_c, 5, 45, 0
7, 384, Note_on_c, 5, 46, 62
7, 426, Note_off_c, 5, 46, 0
7, 432, Note_on_c, 5, 48, 62
7, 474, Note_off_c, 5, 48, 0
7, 480, Note_on_c, 5, 41, 62
7, 522, Note_off_c, 5, 41, 0
7, 528, Note_on_c, 5, 53, 62
7, 549, Note_off_c, 5, 53, 0
7, 552, Note_on_c, 5, 52, 62
7, 573, Note_off_c, 5, 52, 0
7, 576, Note_on_c, 5, 53, 62
7, 597, Note_off_c, 5, 53, 0
7, 600, Note_on_c, 5, 52, 62
7, 621, Note_off_c, 5, 52, 0
7, 624, Note_on_c, 5, 53, 62
7, 645, Note_off_c, 5, 53, 0
7, 648, Note_on_c, 5, 50, 62
7, 669, Note_off_c, 5, 50, 0
7, 672, Note_on_c, 5, 52, 62
7, 714, Note_off_c, 5, 52, 0
7, 720, Note_on_c, 5, 48, 62
7, 762, Note_off_c, 5, 48, 0
7, 768, Note_on_c, 5, 50, 62
7, 810, Note_off_c, 5, 50, 0
7, 816, Note_on_c, 5, 43, 62
7, 858, Note_off_c, 5, 43, 0
7, 864, Note_on_c, 5, 48, 62
7, 906, Note_off_c, 5, 48, 0
7, 912, Note_on_c, 5, 52, 62
7, 954, Note_off_c, 5, 52, 0
7, 960, Note_on_c, 5, 48, 62
7, 1002, Note_off_c, 5, 48, 0
7, 1008, Note_on_c, 5, 47, 62
7, 1050, Note_off_c, 5, 47, 0
7, 1056, Note_on_c, 5, 45, 62
7, 1098, Note_off_c, 5, 45, 0
7, 1104, Note_on_c, 5, 50, 62
7, 1146, Note_off_c, 5, 50, 0
7, 1152, Note_on_c, 5, 47, 62
7, 1194, Note_off_c, 5, 47, 0
7, 1200, Note_on_c, 5, 45, 62
7, 1242, Note_off_c, 5, 45, 0
7, 1248, Note_on_c, 5, 43, 62
7, 1290, Note_off_c, 5, 43, 0
7, 1296, Note_on_c, 5, 48, 62
7, 1338, Note_off_c, 5, 48, 0
7, 1344, Note_on_c, 5, 45, 62
7, 1386, Note_off_c, 5, 45, 0
7, 1392, Note_on_c, 5, 43, 62
7, 1434, Note_off_c, 5, 43, 0
7, 1440, Note_on_c, 5, 41, 62
7, 1524, Note_off_c, 5, 41, 0
7, 1584, Note_on_c, 5, 53, 62
7, 1653, Note_off_c, 5, 53, 0
7, 1656, Note_on_c, 5, 55, 62
7, 1677, Note_off_c, 5, 55, 0
7, 1680, Note_on_c, 5, 53, 62
7, 1701, Note_off_c, 5, 53, 0
7, 1704, Note_on_c, 5, 52, 62
7, 1725, Note_off_c, 5, 52, 0
7, 1728, Note_on_c, 5, 50, 62
7, 1749, Note_off_c, 5, 50, 0
7, 1752, Note_on_c, 5, 48, 62
7, 1773, Note_off_c, 5, 48, 0
7, 1776, Note_on_c, 5, 47, 62
7, 1797, Note_off_c, 5, 47, 0
7, 1800, Note_on_c, 5, 45, 62
7, 1821, Note_off_c, 5, 45, 0
7, 1824, Note_on_c, 5, 43, 62
7, 1866, Note_off_c, 5, 43, 0
7, 1872, Note_on_c, 5, 48, 62
7, 1914, Note_off_c, 5, 48, 0
7, 1920, Note_on_c, 5, 55, 62
7, 1962, Note_off_c, 5, 55, 0
7, 1968, Note_on_c, 5, 43, 62
7, 2010, Note_off_c, 5, 43, 0
7, 2016, Note_on_c, 5, 48, 62
7, 2058, Note_off_c, 5, 48, 0
7, 2064, Note_on_c, 5, 60, 62
7, 2085, Note_off_c, 5, 60, 0
7, 2088, Note_on_c, 5, 62, 62
7, 2109, Note_off_c, 5, 62, 0
7, 2112, Note_on_c, 5, 60, 62
7, 2133, Note_off_c, 5, 60, 0
7, 2136, Note_on_c, 5, 58, 62
7, 2157, Note_off_c, 5, 58, 0
7, 2160, Note_on_c, 5, 57, 62
7, 2181, Note_off_c, 5, 57, 0
7, 2184, Note_on_c, 5, 55, 62
7, 2205, Note_off_c, 5, 55, 0
7, 2208, Note_on_c, 5, 54, 62
7, 2250, Note_off_c, 5, 54, 0
7, 2256, Note_on_c, 5, 50, 62
7, 2298, Note_off_c, 5, 50, 0
7, 2304, Note_on_c, 5, 52, 62
7, 2346, Note_off_c, 5, 52, 0
7, 2352, Note_on_c, 5, 54, 62
7, 2394, Note_off_c, 5, 54, 0
7, 2400, Note_on_c, 5, 55, 62
7, 2442, Note_off_c, 5, 55, 0
7, 2640, Note_on_c, 5, 45, 62
7, 2682, Note_off_c, 5, 45, 0
7, 2688, Note_on_c, 5, 46, 62
7, 2730, Note_off_c, 5, 46, 0
7, 2736, Note_on_c, 5, 48, 62
7, 2778, Note_off_c, 5, 48, 0
7, 2784, Note_on_c, 5, 50, 62
7, 2826, Note_off_c, 5, 50, 0
7, 2832, Note_on_c, 5, 43, 62
7, 2874, Note_off_c, 5, 43, 0
7, 2880, Note_on_c, 5, 45, 62
7, 2922, Note_off_c, 5, 45, 0
7, 2928, Note_on_c, 5, 46, 62
7, 2970, Note_off_c, 5, 46, 0
7, 2976, Note_on_c, 5, 48, 62
7, 3018, Note_off_c, 5, 48, 0
7, 3024, Note_on_c, 5, 36, 62
7, 3066, Note_off_c, 5, 36, 0
7, 3216, Note_on_c, 5, 48, 62
7, 3258, Note_off_c, 5, 48, 0
7, 3264, Note_on_c, 5, 50, 62
7, 3306, Note_off_c, 5, 50, 0
7, 3312, Note_on_c, 5, 52, 62
7, 3354, Note_off_c, 5, 52, 0
7, 3360, Note_on_c, 5, 53, 62
7, 3402, Note_off_c, 5, 53, 0
7, 3408, Note_on_c, 5, 41, 62
7, 3450, Note_off_c, 5, 41, 0
7, 3600, Note_on_c, 5, 53, 62
7, 3642, Note_off_c, 5, 53, 0
7, 3648, Note_on_c, 5, 55, 62
7, 3690, Note_off_c, 5, 55, 0
7, 3696, Note_on_c, 5, 57, 62
7, 3738, Note_off_c, 5, 57, 0
7, 3744, Note_on_c, 5, 58, 62
7, 3765, Note_off_c, 5, 58, 0
7, 3768, Note_on_c, 5, 53, 62
7, 3789, Note_off_c, 5, 53, 0
7, 3792, Note_on_c, 5, 58, 62
7, 3813, Note_off_c, 5, 58, 0
7, 3816, Note_on_c, 5, 57, 62
7, 3837, Note_off_c, 5, 57, 0
7, 3840, Note_on_c, 5, 58, 62
7, 3861, Note_off_c, 5, 58, 0
7, 3864, Note_on_c, 5, 57, 62
7, 3885, Note_off_c, 5, 57, 0
7, 3888, Note_on_c, 5, 58, 62
7, 3909, Note_off_c, 5, 58, 0
7, 3912, Note_on_c, 5, 57, 62
7, 3933, Note_off_c, 5, 57, 0
7, 3936, Note_on_c, 5, 58, 62
7, 3957, Note_off_c, 5, 58, 0
7, 3960, Note_on_c, 5, 60, 62
7, 3981, Note_off_c, 5, 60, 0
7, 3984, Note_on_c, 5, 58, 62
7, 4005, Note_off_c, 5, 58, 0
7, 4008, Note_on_c, 5, 57, 62
7, 4029, Note_off_c, 5, 57, 0
7, 4032, Note_on_c, 5, 55, 62
7, 4053, Note_off_c, 5, 55, 0
7, 4056, Note_on_c, 5, 53, 62
7, 4077, Note_off_c, 5, 53, 0
7, 4080, Note_on_c, 5, 52, 62
7, 4101, Note_off_c, 5, 52, 0
7, 4104, Note_on_c, 5, 50, 62
7, 4125, Note_off_c, 5, 50, 0
7, 4128, Note_on_c, 5, 48, 62
7, 4170, Note_off_c, 5, 48, 0
7, 4176, Note_on_c, 5, 53, 62
7, 4218, Note_off_c, 5, 53, 0
7, 4224, Note_on_c, 5, 60, 62
7, 4266, Note_off_c, 5, 60, 0
7, 4272, Note_on_c, 5, 48, 62
7, 4314, Note_off_c, 5, 48, 0
7, 4320, Note_on_c, 5, 50, 62
7, 4341, Note_off_c, 5, 50, 0
7, 4344, Note_on_c, 5, 48, 62
7, 4365, Note_off_c, 5, 48, 0
7, 4368, Note_on_c, 5, 50, 62
7, 4389, Note_off_c, 5, 50, 0
7, 4392, Note_on_c, 5, 48, 62
7, 4413, Note_off_c, 5, 48, 0
7, 4416, Note_on_c, 5, 46, 62
7, 4437, Note_off_c, 5, 46, 0
7, 4440, Note_on_c, 5, 45, 62
7, 4461, Note_off_c, 5, 45, 0
7, 4464, Note_on_c, 5, 46, 62
7, 4485, Note_off_c, 5, 46, 0
7, 4488, Note_on_c, 5, 45, 62
7, 4509, Note_off_c, 5, 45, 0
7, 4512, Note_on_c, 5, 43, 62
7, 4554, Note_off_c, 5, 43, 0
7, 4560, Note_on_c, 5, 41, 62
7, 4602, Note_off_c, 5, 41, 0
7, 4608, Note_on_c, 5, 48, 62
7, 4650, Note_off_c, 5, 48, 0
7, 4656, Note_on_c, 5, 36, 62
7, 4698, Note_off_c, 5, 36, 0
7, 4704, Note_on_c, 5, 41, 62
7, 4788, Note_off_c, 5, 41, 0
7, 5136, Note_on_c, 5, 41, 62
7, 5178, Note_off_c, 5, 41, 0
7, 5184, Note_on_c, 5, 45, 62
7, 5226, Note_off_c, 5, 45, 0
7, 5232, Note_on_c, 5, 48, 62
7, 5274, Note_off_c, 5, 48, 0
7, 5280, Note_on_c, 5, 53, 62
7, 5322, Note_off_c, 5, 53, 0
7, 5328, Note_on_c, 5, 50, 62
7, 5370, Note_off_c, 5, 50, 0
7, 5376, Note_on_c, 5, 45, 62
7, 5418, Note_off_c, 5, 45, 0
7, 5424, Note_on_c, 5, 46, 62
7, 5466, Note_off_c, 5, 46, 0
7, 5472, Note_on_c, 5, 48, 62
7, 5556, Note_off_c, 5, 48, 0
7, 5616, Note_on_c, 5, 43, 62
7, 5658, Note_off_c, 5, 43, 0
7, 5664, Note_on_c, 5, 45, 62
7, 5706, Note_off_c, 5, 45, 0
7, 5712, Note_on_c, 5, 40, 62
7, 5754, Note_off_c, 5, 40, 0
7, 5760, Note_on_c, 5, 41, 62
7, 5802, Note_off_c, 5, 41, 0
7, 5808, Note_on_c, 5, 43, 62
7, 5850, Note_off_c, 5, 43, 0
7, 5856, Note_on_c, 5, 36, 62
7, 5898, Note_off_c, 5, 36, 0
7, 5904, Note_on_c, 5, 43, 62
7, 5946, Note_off_c, 5, 43, 0
7, 5952, Note_on_c, 5, 48, 62
7, 5994, Note_off_c, 5, 48, 0
7, 6000, Note_on_c, 5, 36, 62
7, 6042, Note_off_c, 5, 36, 0
7, 6048, Note_on_c, 5, 41, 62
7, 6090, Note_off_c, 5, 41, 0
7, 6096, Note_on_c, 5, 45, 62
7, 6138, Note_off_c, 5, 45, 0
7, 6144, Note_on_c, 5, 50, 62
7, 6186, Note_off_c, 5, 50, 0
7, 6192, Note_on_c, 5, 38, 62
7, 6234, Note_off_c, 5, 38, 0
7, 6240, Note_on_c, 5, 43, 62
7, 6282, Note_off_c, 5, 43, 0
7, 6288, Note_on_c, 5, 47, 62
7, 6330, Note_off_c, 5, 47, 0
7, 6336, Note_on_c, 5, 52, 62
7, 6378, Note_off_c, 5, 52, 0
7, 6384, Note_on_c, 5, 40, 62
7, 6426, Note_off_c, 5, 40, 0
7, 6432, Note_on_c, 5, 45, 62
7, 6474, Note_off_c, 5, 45, 0
7, 6480, Note_on_c, 5, 53, 62
7, 6522, Note_off_c, 5, 53, 0
7, 6528, Note_on_c, 5, 55, 62
7, 6570, Note_off_c, 5, 55, 0
7, 6576, Note_on_c, 5, 43, 62
7, 6618, Note_off_c, 5, 43, 0
7, 6624, Note_on_c, 5, 48, 62
7, 6708, Note_off_c, 5, 48, 0
7, 7056, Note_on_c, 5, 55, 62
7, 7077, Note_off_c, 5, 55, 0
7, 7080, Note_on_c, 5, 57, 62
7, 7101, Note_off_c, 5, 57, 0
7, 7104, Note_on_c, 5, 55, 62
7, 7125, Note_off_c, 5, 55, 0
7, 7128, Note_on_c, 5, 53, 62
7, 7149, Note_off_c, 5, 53, 0
7, 7152, Note_on_c, 5, 52, 62
7, 7173, Note_off_c, 5, 52, 0
7, 7176, Note_on_c, 5, 50, 62
7, 7197, Note_off_c, 5, 50, 0
7, 7200, Note_on_c, 5, 49, 62
7, 7242, Note_off_c, 5, 49, 0
7, 7248, Note_on_c, 5, 45, 62
7, 7290, Note_off_c, 5, 45, 0
7, 7296, Note_on_c, 5, 47, 62
7, 7338, Note_off_c, 5, 47, 0
7, 7344, Note_on_c, 5, 49, 62
7, 7386, Note_off_c, 5, 49, 0
7, 7392, Note_on_c, 5, 50, 62
7, 7413, Note_off_c, 5, 50, 0
7, 7416, Note_on_c, 5, 52, 62
7, 7437, Note_off_c, 5, 52, 0
7, 7440, Note_on_c, 5, 50, 62
7, 7461, Note_off_c, 5, 50, 0
7, 7464, Note_on_c, 5, 48, 62
7, 7485, Note_off_c, 5, 48, 0
7, 7488, Note_on_c, 5, 46, 62
7, 7509, Note_off_c, 5, 46, 0
7, 7512, Note_on_c, 5, 45, 62
7, 7533, Note_off_c, 5, 45, 0
7, 7536, Note_on_c, 5, 43, 62
7, 7557, Note_off_c, 5, 43, 0
7, 7560, Note_on_c, 5, 41, 62
7, 7581, Note_off_c, 5, 41, 0
7, 7584, Note_on_c, 5, 40, 62
7, 7626, Note_off_c, 5, 40, 0
7, 7632, Note_on_c, 5, 48, 62
7, 7674, Note_off_c, 5, 48, 0
7, 7680, Note_on_c, 5, 50, 62
7, 7722, Note_off_c, 5, 50, 0
7, 7728, Note_on_c, 5, 52, 62
7, 7770, Note_off_c, 5, 52, 0
7, 7776, Note_on_c, 5, 53, 62
7, 7818, Note_off_c, 5, 53, 0
7, 7824, Note_on_c, 5, 50, 62
7, 7866, Note_off_c, 5, 50, 0
7, 7872, Note_on_c, 5, 46, 62
7, 7914, Note_off_c, 5, 46, 0
7, 7920, Note_on_c, 5, 45, 62
7, 7962, Note_off_c, 5, 45, 0
7, 7968, Note_on_c, 5, 43, 62
7, 8010, Note_off_c, 5, 43, 0
7, 8016, Note_on_c, 5, 48, 62
7, 8058, Note_off_c, 5, 48, 0
7, 8064, Note_on_c, 5, 45, 62
7, 8106, Note_off_c, 5, 45, 0
7, 8112, Note_on_c, 5, 43, 62
7, 8154, Note_off_c, 5, 43, 0
7, 8160, Note_on_c, 5, 41, 62
7, 8202, Note_off_c, 5, 41, 0
7, 8208, Note_on_c, 5, 46, 62
7, 8250, Note_off_c, 5, 46, 0
7, 8256, Note_on_c, 5, 43, 62
7, 8298, Note_off_c, 5, 43, 0
7, 8304, Note_on_c, 5, 41, 62
7, 8346, Note_off_c, 5, 41, 0
7, 8352, Note_on_c, 5, 39, 62
7, 8436, Note_off_c, 5, 39, 0
7, 8496, Note_on_c, 5, 51, 62
7, 8565, Note_off_c, 5, 51, 0
7, 8568, Note_on_c, 5, 53, 62
7, 8589, Note_off_c, 5, 53, 0
7, 8592, Note_on_c, 5, 51, 62
7, 8613, Note_off_c, 5, 51, 0
7, 8616, Note_on_c, 5, 50, 62
7, 8637, Note_off_c, 5, 50, 0
7, 8640, Note_on_c, 5, 48, 62
7, 8661, Note_off_c, 5, 48, 0
7, 8664, Note_on_c, 5, 46, 62
7, 8685, Note_off_c, 5, 46, 0
7, 8688, Note_on_c, 5, 45, 62
7, 8709, Note_off_c, 5, 45, 0
7, 8712, Note_on_c, 5, 43, 62
7, 8733, Note_off_c, 5, 43, 0
7, 8736, Note_on_c, 5, 41, 62
7, 8778, Note_off_c, 5, 41, 0
7, 8784, Note_on_c, 5, 46, 62
7, 8826, Note_off_c, 5, 46, 0
7, 8832, Note_on_c, 5, 53, 62
7, 8874, Note_off_c, 5, 53, 0
7, 8880, Note_on_c, 5, 41, 62
7, 8922, Note_off_c, 5, 41, 0
7, 8928, Note_on_c, 5, 46, 62
7, 8970, Note_off_c, 5, 46, 0
7, 8976, Note_on_c, 5, 58, 62
7, 9018, Note_off_c, 5, 58, 0
7, 9024, Note_on_c, 5, 60, 62
7, 9066, Note_off_c, 5, 60, 0
7, 9072, Note_on_c, 5, 62, 62
7, 9114, Note_off_c, 5, 62, 0
7, 9120, Note_on_c, 5, 63, 62
7, 9162, Note_off_c, 5, 63, 0
7, 9168, Note_on_c, 5, 57, 62
7, 9210, Note_off_c, 5, 57, 0
7, 9216, Note_on_c, 5, 58, 62
7, 9258, Note_off_c, 5, 58, 0
7, 9264, Note_on_c, 5, 60, 62
7, 9306, Note_off_c, 5, 60, 0
7, 9312, Note_on_c, 5, 62, 62
7, 9354, Note_off_c, 5, 62, 0
7, 9360, Note_on_c, 5, 55, 62
7, 9402, Note_off_c, 5, 55, 0
7, 9408, Note_on_c, 5, 57, 62
7, 9450, Note_off_c, 5, 57, 0
7, 9456, Note_on_c, 5, 58, 62
7, 9498, Note_off_c, 5, 58, 0
7, 9504, Note_on_c, 5, 60, 62
7, 9546, Note_off_c, 5, 60, 0
7, 9552, Note_on_c, 5, 53, 62
7, 9594, Note_off_c, 5, 53, 0
7, 9600, Note_on_c, 5, 55, 62
7, 9642, Note_off_c, 5, 55, 0
7, 9648, Note_on_c, 5, 57, 62
7, 9690, Note_off_c, 5, 57, 0
7, 9696, Note_on_c, 5, 58, 62
7, 9738, Note_off_c, 5, 58, 0
7, 9744, Note_on_c, 5, 52, 62
7, 9786, Note_off_c, 5, 52, 0
7, 9792, Note_on_c, 5, 53, 62
7, 9834, Note_off_c, 5, 53, 0
7, 9840, Note_on_c, 5, 55, 62
7, 9882, Note_off_c, 5, 55, 0
7, 9888, Note_on_c, 5, 57, 62
7, 9930, Note_off_c, 5, 57, 0
7, 9936, Note_on_c, 5, 52, 62
7, 9978, Note_off_c, 5, 52, 0
7, 9984, Note_on_c, 5, 49, 62
7, 10026, Note_off_c, 5, 49, 0
7, 10032, Note_on_c, 5, 45, 62
7, 10074, Note_off_c, 5, 45, 0
7, 10080, Note_on_c, 5, 50, 62
7, 10164, Note_off_c, 5, 50, 0
7, 10224, Note_on_c, 5, 45, 62
7, 10266, Note_off_c, 5, 45, 0
7, 10272, Note_on_c, 5, 46, 62
7, 10314, Note_off_c, 5, 46, 0
7, 10320, Note_on_c, 5, 41, 62
7, 10362, Note_off_c, 5, 41, 0
7, 10368, Note_on_c, 5, 43, 62
7, 10410, Note_off_c, 5, 43, 0
7, 10416, Note_on_c, 5, 45, 62
7, 10458, Note_off_c, 5, 45, 0
7, 10464, Note_on_c, 5, 38, 62
7, 10506, Note_off_c, 5, 38, 0
7, 10512, Note_on_c, 5, 50, 62
7, 10533, Note_off_c, 5, 50, 0
7, 10536, Note_on_c, 5, 49, 62
7, 10557, Note_off_c, 5, 49, 0
7, 10560, Note_on_c, 5, 50, 62
7, 10581, Note_off_c, 5, 50, 0
7, 10584, Note_on_c, 5, 49, 62
7, 10605, Note_off_c, 5, 49, 0
7, 10608, Note_on_c, 5, 50, 62
7, 10629, Note_off_c, 5, 50, 0
7, 10632, Note_on_c, 5, 46, 62
7, 10653, Note_off_c, 5, 46, 0
7, 10656, Note_on_c, 5, 48, 62
7, 10698, Note_off_c, 5, 48, 0
7, 10704, Note_on_c, 5, 45, 62
7, 10746, Note_off_c, 5, 45, 0
7, 10752, Note_on_c, 5, 46, 62
7, 10794, Note_off_c, 5, 46, 0
7, 10800, Note_on_c, 5, 43, 62
7, 10842, Note_off_c, 5, 43, 0
7, 10848, Note_on_c, 5, 45, 62
7, 10890, Note_off_c, 5, 45, 0
7, 10896, Note_on_c, 5, 57, 62
7, 10938, Note_off_c, 5, 57, 0
7, 11088, Note_on_c, 5, 45, 62
7, 11130, Note_off_c, 5, 45, 0
7, 11136, Note_on_c, 5, 47, 62
7, 11178, Note_off_c, 5, 47, 0
7, 11184, Note_on_c, 5, 49, 62
7, 11226, Note_off_c, 5, 49, 0
7, 11232, Note_on_c, 5, 38, 62
7, 11274, Note_off_c, 5, 38, 0
7, 11280, Note_on_c, 5, 50, 62
7, 11322, Note_off_c, 5, 50, 0
7, 11472, Note_on_c, 5, 50, 62
7, 11514, Note_off_c, 5, 50, 0
7, 11520, Note_on_c, 5, 52, 62
7, 11562, Note_off_c, 5, 52, 0
7, 11568, Note_on_c, 5, 54, 62
7, 11610, Note_off_c, 5, 54, 0
7, 11616, Note_on_c, 5, 55, 62
7, 11658, Note_off_c, 5, 55, 0
7, 11664, Note_on_c, 5, 57, 62
7, 11706, Note_off_c, 5, 57, 0
7, 11712, Note_on_c, 5, 58, 62
7, 11754, Note_off_c, 5, 58, 0
7, 11760, Note_on_c, 5, 55, 62
7, 11802, Note_off_c, 5, 55, 0
7, 11808, Note_on_c, 5, 57, 62
7, 11850, Note_off_c, 5, 57, 0
7, 11856, Note_on_c, 5, 58, 62
7, 11877, Note_off_c, 5, 58, 0
7, 11880, Note_on_c, 5, 57, 62
7, 11901, Note_off_c, 5, 57, 0
7, 11904, Note_on_c, 5, 55, 62
7, 11925, Note_off_c, 5, 55, 0
7, 11928, Note_on_c, 5, 53, 62
7, 11949, Note_off_c, 5, 53, 0
7, 11952, Note_on_c, 5, 52, 62
7, 11973, Note_off_c, 5, 52, 0
7, 11976, Note_on_c, 5, 50, 62
7, 11997, Note_off_c, 5, 50, 0
7, 12000, Note_on_c, 5, 49, 62
7, 12021, Note_off_c, 5, 49, 0
7, 12024, Note_on_c, 5, 50, 62
7, 12045, Note_off_c, 5, 50, 0
7, 12048, Note_on_c, 5, 52, 62
7, 12069, Note_off_c, 5, 52, 0
7, 12072, Note_on_c, 5, 50, 62
7, 12093, Note_off_c, 5, 50, 0
7, 12096, Note_on_c, 5, 49, 62
7, 12117, Note_off_c, 5, 49, 0
7, 12120, Note_on_c, 5, 47, 62
7, 12141, Note_off_c, 5, 47, 0
7, 12144, Note_on_c, 5, 45, 62
7, 12165, Note_off_c, 5, 45, 0
7, 12168, Note_on_c, 5, 43, 62
7, 12189, Note_off_c, 5, 43, 0
7, 12192, Note_on_c, 5, 41, 62
7, 12234, Note_off_c, 5, 41, 0
7, 12240, Note_on_c, 5, 50, 62
7, 12282, Note_off_c, 5, 50, 0
7, 12288, Note_on_c, 5, 57, 62
7, 12330, Note_off_c, 5, 57, 0
7, 12336, Note_on_c, 5, 45, 62
7, 12378, Note_off_c, 5, 45, 0
7, 12384, Note_on_c, 5, 50, 62
7, 12468, Note_off_c, 5, 50, 0
7, 12768, Note_on_c, 5, 43, 62
7, 12852, Note_off_c, 5, 43, 0
7, 13152, Note_on_c, 5, 48, 62
7, 13194, Note_off_c, 5, 48, 0
7, 13200, Note_on_c, 5, 60, 62
7, 13242, Note_off_c, 5, 60, 0
7, 13248, Note_on_c, 5, 58, 62
7, 13290, Note_off_c, 5, 58, 0
7, 13296, Note_on_c, 5, 57, 62
7, 13338, Note_off_c, 5, 57, 0
7, 13344, Note_on_c, 5, 55, 62
7, 13386, Note_off_c, 5, 55, 0
7, 13392, Note_on_c, 5, 53, 62
7, 13434, Note_off_c, 5, 53, 0
7, 13440, Note_on_c, 5, 52, 62
7, 13482, Note_off_c, 5, 52, 0
7, 13488, Note_on_c, 5, 48, 62
7, 13530, Note_off_c, 5, 48, 0
7, 13536, Note_on_c, 5, 53, 62
7, 13578, Note_off_c, 5, 53, 0
7, 13584, Note_on_c, 5, 48, 62
7, 13605, Note_off_c, 5, 48, 0
7, 13608, Note_on_c, 5, 46, 62
7, 13629, Note_off_c, 5, 46, 0
7, 13632, Note_on_c, 5, 48, 62
7, 13653, Note_off_c, 5, 48, 0
7, 13656, Note_on_c, 5, 46, 62
7, 13677, Note_off_c, 5, 46, 0
7, 13680, Note_on_c, 5, 48, 62
7, 13701, Note_off_c, 5, 48, 0
7, 13704, Note_on_c, 5, 50, 62
7, 13725, Note_off_c, 5, 50, 0
7, 13728, Note_on_c, 5, 51, 62
7, 13749, Note_off_c, 5, 51, 0
7, 13752, Note_on_c, 5, 53, 62
7, 13773, Note_off_c, 5, 53, 0
7, 13776, Note_on_c, 5, 46, 62
7, 13797, Note_off_c, 5, 46, 0
7, 13800, Note_on_c, 5, 45, 62
7, 13821, Note_off_c, 5, 45, 0
7, 13824, Note_on_c, 5, 46, 62
7, 13845, Note_off_c, 5, 46, 0
7, 13848, Note_on_c, 5, 45, 62
7, 13869, Note_off_c, 5, 45, 0
7, 13872, Note_on_c, 5, 46, 62
7, 13893, Note_off_c, 5, 46, 0
7, 13896, Note_on_c, 5, 48, 62
7, 13917, Note_off_c, 5, 48, 0
7, 13920, Note_on_c, 5, 50, 62
7, 13941, Note_off_c, 5, 50, 0
7, 13944, Note_on_c, 5, 52, 62
7, 13965, Note_off_c, 5, 52, 0
7, 13968, Note_on_c, 5, 45, 62
7, 13989, Note_off_c, 5, 45, 0
7, 13992, Note_on_c, 5, 43, 62
7, 14013, Note_off_c, 5, 43, 0
7, 14016, Note_on_c, 5, 45, 62
7, 14037, Note_off_c, 5, 45, 0
7, 14040, Note_on_c, 5, 43, 62
7, 14061, Note_off_c, 5, 43, 0
7, 14064, Note_on_c, 5, 45, 62
7, 14085, Note_off_c, 5, 45, 0
7, 14088, Note_on_c, 5, 46, 62
7, 14109, Note_off_c, 5, 46, 0
7, 14112, Note_on_c, 5, 48, 62
7, 14154, Note_off_c, 5, 48, 0
7, 14160, Note_on_c, 5, 43, 62
7, 14202, Note_off_c, 5, 43, 0
7, 14208, Note_on_c, 5, 40, 62
7, 14250, Note_off_c, 5, 40, 0
7, 14256, Note_on_c, 5, 36, 62
7, 14298, Note_off_c, 5, 36, 0
7, 14304, Note_on_c, 5, 41, 62
7, 14325, Note_off_c, 5, 41, 0
7, 14328, Note_on_c, 5, 48, 62
7, 14349, Note_off_c, 5, 48, 0
7, 14352, Note_on_c, 5, 53, 62
7, 14373, Note_off_c, 5, 53, 0
7, 14376, Note_on_c, 5, 52, 62
7, 14397, Note_off_c, 5, 52, 0
7, 14400, Note_on_c, 5, 53, 62
7, 14421, Note_off_c, 5, 53, 0
7, 14424, Note_on_c, 5, 52, 62
7, 14445, Note_off_c, 5, 52, 0
7, 14448, Note_on_c, 5, 53, 62
7, 14469, Note_off_c, 5, 53, 0
7, 14472, Note_on_c, 5, 52, 62
7, 14493, Note_off_c, 5, 52, 0
7, 14496, Note_on_c, 5, 50, 62
7, 14538, Note_off_c, 5, 50, 0
7, 14544, Note_on_c, 5, 45, 62
7, 14586, Note_off_c, 5, 45, 0
7, 14592, Note_on_c, 5, 41, 62
7, 14634, Note_off_c, 5, 41, 0
7, 14640, Note_on_c, 5, 38, 62
7, 14682, Note_off_c, 5, 38, 0
7, 14688, Note_on_c, 5, 43, 62
7, 14709, Note_off_c, 5, 43, 0
7, 14712, Note_on_c, 5, 50, 62
7, 14733, Note_off_c, 5, 50, 0
7, 14736, Note_on_c, 5, 55, 62
7, 14757, Note_off_c, 5, 55, 0
7, 14760, Note_on_c, 5, 53, 62
7, 14781, Note_off_c, 5, 53, 0
7, 14784, Note_on_c, 5, 55, 62
7, 14805, Note_off_c, 5, 55, 0
7, 14808, Note_on_c, 5, 53, 62
7, 14829, Note_off_c, 5, 53, 0
7, 14832, Note_on_c, 5, 55, 62
7, 14853, Note_off_c, 5, 55, 0
7, 14856, Note_on_c, 5, 53, 62
7, 14877, Note_off_c, 5, 53, 0
7, 14880, Note_on_c, 5, 52, 62
7, 14922, Note_off_c, 5, 52, 0
7, 14928, Note_on_c, 5, 47, 62
7, 14970, Note_off_c, 5, 47, 0
7, 14976, Note_on_c, 5, 43, 62
7, 15018, Note_off_c, 5, 43, 0
7, 15024, Note_on_c, 5, 40, 62
7, 15066, Note_off_c, 5, 40, 0
7, 15072, Note_on_c, 5, 45, 62
7, 15093, Note_off_c, 5, 45, 0
7, 15096, Note_on_c, 5, 52, 62
7, 15117, Note_off_c, 5, 52, 0
7, 15120, Note_on_c, 5, 57, 62
7, 15141, Note_off_c, 5, 57, 0
7, 15144, Note_on_c, 5, 55, 62
7, 15165, Note_off_c, 5, 55, 0
7, 15168, Note_on_c, 5, 57, 62
7, 15189, Note_off_c, 5, 57, 0
7, 15192, Note_on_c, 5, 55, 62
7, 15213, Note_off_c, 5, 55, 0
7, 15216, Note_on_c, 5, 57, 62
7, 15237, Note_off_c, 5, 57, 0
7, 15240, Note_on_c, 5, 55, 62
7, 15261, Note_off_c, 5, 55, 0
7, 15264, Note_on_c, 5, 54, 62
7, 15306, Note_off_c, 5, 54, 0
7, 15312, Note_on_c, 5, 63, 62
7, 15354, Note_off_c, 5, 63, 0
7, 15360, Note_on_c, 5, 60, 62
7, 15402, Note_off_c, 5, 60, 0
7, 15408, Note_on_c, 5, 57, 62
7, 15450, Note_off_c, 5, 57, 0
7, 15456, Note_on_c, 5, 54, 62
7, 15498, Note_off_c, 5, 54, 0
7, 15504, Note_on_c, 5, 60, 62
7, 15546, Note_off_c, 5, 60, 0
7, 15552, Note_on_c, 5, 57, 62
7, 15594, Note_off_c, 5, 57, 0
7, 15600, Note_on_c, 5, 54, 62
7, 15642, Note_off_c, 5, 54, 0
7, 15648, Note_on_c, 5, 50, 62
7, 15690, Note_off_c, 5, 50, 0
7, 15696, Note_on_c, 5, 45, 62
7, 15738, Note_off_c, 5, 45, 0
7, 15744, Note_on_c, 5, 42, 62
7, 15786, Note_off_c, 5, 42, 0
7, 15792, Note_on_c, 5, 38, 62
7, 15834, Note_off_c, 5, 38, 0
7, 15840, Note_on_c, 5, 53, 62
7, 15924, Note_off_c, 5, 53, 0
7, 15984, Note_on_c, 5, 53, 62
7, 16026, Note_off_c, 5, 53, 0
7, 16032, Note_on_c, 5, 52, 62
7, 16074, Note_off_c, 5, 52, 0
7, 16080, Note_on_c, 5, 53, 62
7, 16122, Note_off_c, 5, 53, 0
7, 16128, Note_on_c, 5, 55, 62
7, 16170, Note_off_c, 5, 55, 0
7, 16176, Note_on_c, 5, 43, 62
7, 16218, Note_off_c, 5, 43, 0
7, 16224, Note_on_c, 5, 48, 62
7, 16308, Note_off_c, 5, 48, 0
7, 16368, Note_on_c, 5, 43, 62
7, 16410, Note_off_c, 5, 43, 0
7, 16416, Note_on_c, 5, 45, 62
7, 16458, Note_off_c, 5, 45, 0
7, 16464, Note_on_c, 5, 40, 62
7, 16506, Note_off_c, 5, 40, 0
7, 16512, Note_on_c, 5, 41, 62
7, 16554, Note_off_c, 5, 41, 0
7, 16560, Note_on_c, 5, 43, 62
7, 16602, Note_off_c, 5, 43, 0
7, 16608, Note_on_c, 5, 36, 62
7, 16650, Note_off_c, 5, 36, 0
7, 16656, Note_on_c, 5, 48, 62
7, 16677, Note_off_c, 5, 48, 0
7, 16680, Note_on_c, 5, 47, 62
7, 16701, Note_off_c, 5, 47, 0
7, 16704, Note_on_c, 5, 48, 62
7, 16725, Note_off_c, 5, 48, 0
7, 16728, Note_on_c, 5, 47, 62
7, 16749, Note_off_c, 5, 47, 0
7, 16752, Note_on_c, 5, 48, 62
7, 16773, Note_off_c, 5, 48, 0
7, 16776, Note_on_c, 5, 45, 62
7, 16797, Note_off_c, 5, 45, 0
7, 16800, Note_on_c, 5, 47, 62
7, 16842, Note_off_c, 5, 47, 0
7, 16848, Note_on_c, 5, 43, 62
7, 16890, Note_off_c, 5, 43, 0
7, 16896, Note_on_c, 5, 45, 62
7, 16938, Note_off_c, 5, 45, 0
7, 16944, Note_on_c, 5, 38, 62
7, 16986, Note_off_c, 5, 38, 0
7, 16992, Note_on_c, 5, 43, 62
7, 17034, Note_off_c, 5, 43, 0
7, 17040, Note_on_c, 5, 55, 62
7, 17082, Note_off_c, 5, 55, 0
7, 17232, Note_on_c, 5, 52, 62
7, 17274, Note_off_c, 5, 52, 0
7, 17280, Note_on_c, 5, 54, 62
7, 17322, Note_off_c, 5, 54, 0
7, 17328, Note_on_c, 5, 56, 62
7, 17370, Note_off_c, 5, 56, 0
7, 17376, Note_on_c, 5, 57, 62
7, 17418, Note_off_c, 5, 57, 0
7, 17424, Note_on_c, 5, 45, 62
7, 17466, Note_off_c, 5, 45, 0
7, 17616, Note_on_c, 5, 45, 62
7, 17658, Note_off_c, 5, 45, 0
7, 17664, Note_on_c, 5, 50, 62
7, 17706, Note_off_c, 5, 50, 0
7, 17712, Note_on_c, 5, 52, 62
7, 17754, Note_off_c, 5, 52, 0
7, 17760, Note_on_c, 5, 53, 62
7, 17802, Note_off_c, 5, 53, 0
7, 17808, Note_on_c, 5, 52, 62
7, 17829, Note_off_c, 5, 52, 0
7, 17832, Note_on_c, 5, 50, 62
7, 17853, Note_off_c, 5, 50, 0
7, 17856, Note_on_c, 5, 48, 62
7, 17877, Note_off_c, 5, 48, 0
7, 17880, Note_on_c, 5, 47, 62
7, 17901, Note_off_c, 5, 47, 0
7, 17904, Note_on_c, 5, 45, 62
7, 17925, Note_off_c, 5, 45, 0
7, 17928, Note_on_c, 5, 44, 62
7, 17949, Note_off_c, 5, 44, 0
7, 17952, Note_on_c, 5, 45, 62
7, 17994, Note_off_c, 5, 45, 0
7, 18000, Note_on_c, 5, 50, 62
7, 18042, Note_off_c, 5, 50, 0
7, 18048, Note_on_c, 5, 52, 62
7, 18090, Note_off_c, 5, 52, 0
7, 18096, Note_on_c, 5, 40, 62
7, 18138, Note_off_c, 5, 40, 0
7, 18144, Note_on_c, 5, 45, 62
7, 18186, Note_off_c, 5, 45, 0
7, 18192, Note_on_c, 5, 57, 62
7, 18234, Note_off_c, 5, 57, 0
7, 18240, Note_on_c, 5, 58, 62
7, 18282, Note_off_c, 5, 58, 0
7, 18288, Note_on_c, 5, 60, 62
7, 18330, Note_off_c, 5, 60, 0
7, 18336, Note_on_c, 5, 62, 62
7, 18378, Note_off_c, 5, 62, 0
7, 18384, Note_on_c, 5, 55, 62
7, 18426, Note_off_c, 5, 55, 0
7, 18432, Note_on_c, 5, 57, 62
7, 18474, Note_off_c, 5, 57, 0
7, 18480, Note_on_c, 5, 58, 62
7, 18522, Note_off_c, 5, 58, 0
7, 18528, Note_on_c, 5, 60, 62
7, 18570, Note_off_c, 5, 60, 0
7, 18576, Note_on_c, 5, 53, 62
7, 18618, Note_off_c, 5, 53, 0
7, 18624, Note_on_c, 5, 55, 62
7, 18666, Note_off_c, 5, 55, 0
7, 18672, Note_on_c, 5, 57, 62
7, 18714, Note_off_c, 5, 57, 0
7, 18720, Note_on_c, 5, 58, 62
7, 18762, Note_off_c, 5, 58, 0
7, 18768, Note_on_c, 5, 52, 62
7, 18810, Note_off_c, 5, 52, 0
7, 18816, Note_on_c, 5, 53, 62
7, 18858, Note_off_c, 5, 53, 0
7, 18864, Note_on_c, 5, 55, 62
7, 18906, Note_off_c, 5, 55, 0
7, 18912, Note_on_c, 5, 57, 62
7, 18954, Note_off_c, 5, 57, 0
7, 18960, Note_on_c, 5, 55, 62
7, 19002, Note_off_c, 5, 55, 0
7, 19008, Note_on_c, 5, 53, 62
7, 19050, Note_off_c, 5, 53, 0
7, 19056, Note_on_c, 5, 52, 62
7, 19098, Note_off_c, 5, 52, 0
7, 19104, Note_on_c, 5, 50, 62
7, 19146, Note_off_c, 5, 50, 0
7, 19152, Note_on_c, 5, 48, 62
7, 19194, Note_off_c, 5, 48, 0
7, 19200, Note_on_c, 5, 46, 62
7, 19242, Note_off_c, 5, 46, 0
7, 19248, Note_on_c, 5, 45, 62
7, 19290, Note_off_c, 5, 45, 0
7, 19296, Note_on_c, 5, 43, 62
7, 19338, Note_off_c, 5, 43, 0
7, 19344, Note_on_c, 5, 46, 62
7, 19386, Note_off_c, 5, 46, 0
7, 19392, Note_on_c, 5, 48, 62
7, 19434, Note_off_c, 5, 48, 0
7, 19440, Note_on_c, 5, 50, 62
7, 19482, Note_off_c, 5, 50, 0
7, 19488, Note_on_c, 5, 51, 62
7, 19530, Note_off_c, 5, 51, 0
7, 19536, Note_on_c, 5, 48, 62
7, 19578, Note_off_c, 5, 48, 0
7, 19584, Note_on_c, 5, 50, 62
7, 19626, Note_off_c, 5, 50, 0
7, 19632, Note_on_c, 5, 38, 62
7, 19674, Note_off_c, 5, 38, 0
7, 19680, Note_on_c, 5, 43, 62
7, 19764, Note_off_c, 5, 43, 0
7, 19824, Note_on_c, 5, 50, 62
7, 19866, Note_off_c, 5, 50, 0
7, 19872, Note_on_c, 5, 51, 62
7, 19914, Note_off_c, 5, 51, 0
7, 19920, Note_on_c, 5, 46, 62
7, 19962, Note_off_c, 5, 46, 0
7, 19968, Note_on_c, 5, 48, 62
7, 20010, Note_off_c, 5, 48, 0
7, 20016, Note_on_c, 5, 50, 62
7, 20058, Note_off_c, 5, 50, 0
7, 20064, Note_on_c, 5, 43, 62
7, 20106, Note_off_c, 5, 43, 0
7, 20112, Note_on_c, 5, 55, 62
7, 20154, Note_off_c, 5, 55, 0
7, 20160, Note_on_c, 5, 57, 62
7, 20202, Note_off_c, 5, 57, 0
7, 20208, Note_on_c, 5, 58, 62
7, 20250, Note_off_c, 5, 58, 0
7, 20256, Note_on_c, 5, 60, 62
7, 20298, Note_off_c, 5, 60, 0
7, 20304, Note_on_c, 5, 53, 62
7, 20346, Note_off_c, 5, 53, 0
7, 20352, Note_on_c, 5, 55, 62
7, 20394, Note_off_c, 5, 55, 0
7, 20400, Note_on_c, 5, 57, 62
7, 20442, Note_off_c, 5, 57, 0
7, 20448, Note_on_c, 5, 58, 62
7, 20490, Note_off_c, 5, 58, 0
7, 20496, Note_on_c, 5, 52, 62
7, 20538, Note_off_c, 5, 52, 0
7, 20544, Note_on_c, 5, 53, 62
7, 20586, Note_off_c, 5, 53, 0
7, 20592, Note_on_c, 5, 55, 62
7, 20634, Note_off_c, 5, 55, 0
7, 20640, Note_on_c, 5, 57, 62
7, 20682, Note_off_c, 5, 57, 0
7, 20688, Note_on_c, 5, 50, 62
7, 20730, Note_off_c, 5, 50, 0
7, 20736, Note_on_c, 5, 52, 62
7, 20778, Note_off_c, 5, 52, 0
7, 20784, Note_on_c, 5, 53, 62
7, 20826, Note_off_c, 5, 53, 0
7, 20832, Note_on_c, 5, 55, 62
7, 20874, Note_off_c, 5, 55, 0
7, 20880, Note_on_c, 5, 53, 62
7, 20922, Note_off_c, 5, 53, 0
7, 20928, Note_on_c, 5, 52, 62
7, 20970, Note_off_c, 5, 52, 0
7, 20976, Note_on_c, 5, 50, 62
7, 21018, Note_off_c, 5, 50, 0
7, 21024, Note_on_c, 5, 48, 62
7, 21066, Note_off_c, 5, 48, 0
7, 21072, Note_on_c, 5, 46, 62
7, 21114, Note_off_c, 5, 46, 0
7, 21120, Note_on_c, 5, 45, 62
7, 21162, Note_off_c, 5, 45, 0
7, 21168, Note_on_c, 5, 43, 62
7, 21210, Note_off_c, 5, 43, 0
7, 21216, Note_on_c, 5, 41, 62
7, 21258, Note_off_c, 5, 41, 0
7, 21264, Note_on_c, 5, 45, 62
7, 21306, Note_off_c, 5, 45, 0
7, 21312, Note_on_c, 5, 46, 62
7, 21354, Note_off_c, 5, 46, 0
7, 21360, Note_on_c, 5, 48, 62
7, 21402, Note_off_c, 5, 48, 0
7, 21408, Note_on_c, 5, 50, 62
7, 21450, Note_off_c, 5, 50, 0
7, 21456, Note_on_c, 5, 46, 62
7, 21498, Note_off_c, 5, 46, 0
7, 21504, Note_on_c, 5, 48, 62
7, 21546, Note_off_c, 5, 48, 0
7, 21552, Note_on_c, 5, 36, 62
7, 21594, Note_off_c, 5, 36, 0
7, 21600, Note_on_c, 5, 41, 62
7, 21684, Note_off_c, 5, 41, 0
7, 21744, Note_on_c, 5, 48, 62
7, 21786, Note_off_c, 5, 48, 0
7, 21792, Note_on_c, 5, 50, 62
7, 21834, Note_off_c, 5, 50, 0
7, 21840, Note_on_c, 5, 45, 62
7, 21882, Note_off_c, 5, 45, 0
7, 21888, Note_on_c, 5, 46, 62
7, 21930, Note_off_c, 5, 46, 0
7, 21936, Note_on_c, 5, 48, 62
7, 21978, Note_off_c, 5, 48, 0
7, 21984, Note_on_c, 5, 41, 62
7, 22068, Note_off_c, 5, 41, 0
7, 22416, Note_on_c, 5, 41, 62
7, 22458, Note_off_c, 5, 41, 0
7, 22464, Note_on_c, 5, 45, 62
7, 22506, Note_off_c, 5, 45, 0
7, 22512, Note_on_c, 5, 48, 62
7, 22554, Note_off_c, 5, 48, 0
7, 22560, Note_on_c, 5, 53, 62
7, 22602, Note_off_c, 5, 53, 0
7, 22608, Note_on_c, 5, 50, 62
7, 22650, Note_off_c, 5, 50, 0
7, 22656, Note_on_c, 5, 45, 62
7, 22698, Note_off_c, 5, 45, 0
7, 22704, Note_on_c, 5, 46, 62
7, 22746, Note_off_c, 5, 46, 0
7, 22752, Note_on_c, 5, 48, 62
7, 22836, Note_off_c, 5, 48, 0
7, 22896, Note_on_c, 5, 43, 62
7, 22938, Note_off_c, 5, 43, 0
7, 22944, Note_on_c, 5, 45, 62
7, 22986, Note_off_c, 5, 45, 0
7, 22992, Note_on_c, 5, 40, 62
7, 23034, Note_off_c, 5, 40, 0
7, 23040, Note_on_c, 5, 41, 62
7, 23082, Note_off_c, 5, 41, 0
7, 23088, Note_on_c, 5, 43, 62
7, 23130, Note_off_c, 5, 43, 0
7, 23136, Note_on_c, 5, 36, 62
7, 23178, Note_off_c, 5, 36, 0
7, 23184, Note_on_c, 5, 43, 62
7, 23226, Note_off_c, 5, 43, 0
7, 23232, Note_on_c, 5, 48, 62
7, 23274, Note_off_c, 5, 48, 0
7, 23280, Note_on_c, 5, 36, 62
7, 23322, Note_off_c, 5, 36, 0
7, 23328, Note_on_c, 5, 41, 62
7, 23370, Note_off_c, 5, 41, 0
7, 23376, Note_on_c, 5, 45, 62
7, 23418, Note_off_c, 5, 45, 0
7, 23424, Note_on_c, 5, 50, 62
7, 23466, Note_off_c, 5, 50, 0
7, 23472, Note_on_c, 5, 38, 62
7, 23514, Note_off_c, 5, 38, 0
7, 23520, Note_on_c, 5, 43, 62
7, 23562, Note_off_c, 5, 43, 0
7, 23568, Note_on_c, 5, 47, 62
7, 23610, Note_off_c, 5, 47, 0
7, 23616, Note_on_c, 5, 52, 62
7, 23658, Note_off_c, 5, 52, 0
7, 23664, Note_on_c, 5, 40, 62
7, 23706, Note_off_c, 5, 40, 0
7, 23712, Note_on_c, 5, 45, 62
7, 23754, Note_off_c, 5, 45, 0
7, 23760, Note_on_c, 5, 53, 62
7, 23802, Note_off_c, 5, 53, 0
7, 23808, Note_on_c, 5, 55, 62
7, 23850, Note_off_c, 5, 55, 0
7, 23856, Note_on_c, 5, 43, 62
7, 23898, Note_off_c, 5, 43, 0
7, 23904, Note_on_c, 5, 48, 62
7, 23988, Note_off_c, 5, 48, 0
7, 24288, Note_on_c, 5, 41, 62
7, 24372, Note_off_c, 5, 41, 0
7, 24672, Note_on_c, 5, 46, 62
7, 24714, Note_off_c, 5, 46, 0
7, 24720, Note_on_c, 5, 53, 62
7, 24741, Note_off_c, 5, 53, 0
7, 24744, Note_on_c, 5, 51, 62
7, 24765, Note_off_c, 5, 51, 0
7, 24768, Note_on_c, 5, 53, 62
7, 24789, Note_off_c, 5, 53, 0
7, 24792, Note_on_c, 5, 51, 62
7, 24813, Note_off_c, 5, 51, 0
7, 24816, Note_on_c, 5, 53, 62
7, 24837, Note_off_c, 5, 53, 0
7, 24840, Note_on_c, 5, 55, 62
7, 24861, Note_off_c, 5, 55, 0
7, 24864, Note_on_c, 5, 56, 62
7, 24885, Note_off_c, 5, 56, 0
7, 24888, Note_on_c, 5, 58, 62
7, 24909, Note_off_c, 5, 58, 0
7, 24912, Note_on_c, 5, 51, 62
7, 24933, Note_off_c, 5, 51, 0
7, 24936, Note_on_c, 5, 50, 62
7, 24957, Note_off_c, 5, 50, 0
7, 24960, Note_on_c, 5, 51, 62
7, 24981, Note_off_c, 5, 51, 0
7, 24984, Note_on_c, 5, 50, 62
7, 25005, Note_off_c, 5, 50, 0
7, 25008, Note_on_c, 5, 51, 62
7, 25029, Note_off_c, 5, 51, 0
7, 25032, Note_on_c, 5, 53, 62
7, 25053, Note_off_c, 5, 53, 0
7, 25056, Note_on_c, 5, 55, 62
7, 25077, Note_off_c, 5, 55, 0
7, 25080, Note_on_c, 5, 57, 62
7, 25101, Note_off_c, 5, 57, 0
7, 25104, Note_on_c, 5, 50, 62
7, 25125, Note_off_c, 5, 50, 0
7, 25128, Note_on_c, 5, 48, 62
7, 25149, Note_off_c, 5, 48, 0
7, 25152, Note_on_c, 5, 50, 62
7, 25173, Note_off_c, 5, 50, 0
7, 25176, Note_on_c, 5, 48, 62
7, 25197, Note_off_c, 5, 48, 0
7, 25200, Note_on_c, 5, 50, 62
7, 25221, Note_off_c, 5, 50, 0
7, 25224, Note_on_c, 5, 51, 62
7, 25245, Note_off_c, 5, 51, 0
7, 25248, Note_on_c, 5, 53, 62
7, 25290, Note_off_c, 5, 53, 0
7, 25296, Note_on_c, 5, 48, 62
7, 25338, Note_off_c, 5, 48, 0
7, 25344, Note_on_c, 5, 45, 62
7, 25386, Note_off_c, 5, 45, 0
7, 25392, Note_on_c, 5, 41, 62
7, 25434, Note_off_c, 5, 41, 0
7, 25440, Note_on_c, 5, 46, 62
7, 25461, Note_off_c, 5, 46, 0
7, 25464, Note_on_c, 5, 53, 62
7, 25485, Note_off_c, 5, 53, 0
7, 25488, Note_on_c, 5, 58, 62
7, 25509, Note_off_c, 5, 58, 0
7, 25512, Note_on_c, 5, 57, 62
7, 25533, Note_off_c, 5, 57, 0
7, 25536, Note_on_c, 5, 58, 62
7, 25557, Note_off_c, 5, 58, 0
7, 25560, Note_on_c, 5, 57, 62
7, 25581, Note_off_c, 5, 57, 0
7, 25584, Note_on_c, 5, 58, 62
7, 25605, Note_off_c, 5, 58, 0
7, 25608, Note_on_c, 5, 57, 62
7, 25629, Note_off_c, 5, 57, 0
7, 25632, Note_on_c, 5, 55, 62
7, 25674, Note_off_c, 5, 55, 0
7, 25680, Note_on_c, 5, 50, 62
7, 25722, Note_off_c, 5, 50, 0
7, 25728, Note_on_c, 5, 46, 62
7, 25770, Note_off_c, 5, 46, 0
7, 25776, Note_on_c, 5, 43, 62
7, 25818, Note_off_c, 5, 43, 0
7, 25824, Note_on_c, 5, 48, 62
7, 25845, Note_off_c, 5, 48, 0
7, 25848, Note_on_c, 5, 55, 62
7, 25869, Note_off_c, 5, 55, 0
7, 25872, Note_on_c, 5, 60, 62
7, 25893, Note_off_c, 5, 60, 0
7, 25896, Note_on_c, 5, 58, 62
7, 25917, Note_off_c, 5, 58, 0
7, 25920, Note_on_c, 5, 60, 62
7, 25941, Note_off_c, 5, 60, 0
7, 25944, Note_on_c, 5, 58, 62
7, 25965, Note_off_c, 5, 58, 0
7, 25968, Note_on_c, 5, 60, 62
7, 25989, Note_off_c, 5, 60, 0
7, 25992, Note_on_c, 5, 58, 62
7, 26013, Note_off_c, 5, 58, 0
7, 26016, Note_on_c, 5, 57, 62
7, 26058, Note_off_c, 5, 57, 0
7, 26064, Note_on_c, 5, 52, 62
7, 26106, Note_off_c, 5, 52, 0
7, 26112, Note_on_c, 5, 48, 62
7, 26154, Note_off_c, 5, 48, 0
7, 26160, Note_on_c, 5, 45, 62
7, 26202, Note_off_c, 5, 45, 0
7, 26208, Note_on_c, 5, 50, 62
7, 26229, Note_off_c, 5, 50, 0
7, 26232, Note_on_c, 5, 57, 62
7, 26253, Note_off_c, 5, 57, 0
7, 26256, Note_on_c, 5, 62, 62
7, 26277, Note_off_c, 5, 62, 0
7, 26280, Note_on_c, 5, 60, 62
7, 26301, Note_off_c, 5, 60, 0
7, 26304, Note_on_c, 5, 62, 62
7, 26325, Note_off_c, 5, 62, 0
7, 26328, Note_on_c, 5, 60, 62
7, 26349, Note_off_c, 5, 60, 0
7, 26352, Note_on_c, 5, 62, 62
7, 26373, Note_off_c, 5, 62, 0
7, 26376, Note_on_c, 5, 60, 62
7, 26397, Note_off_c, 5, 60, 0
7, 26400, Note_on_c, 5, 59, 62
7, 26442, Note_off_c, 5, 59, 0
7, 26448, Note_on_c, 5, 56, 62
7, 26490, Note_off_c, 5, 56, 0
7, 26496, Note_on_c, 5, 53, 62
7, 26538, Note_off_c, 5, 53, 0
7, 26544, Note_on_c, 5, 50, 62
7, 26586, Note_off_c, 5, 50, 0
7, 26592, Note_on_c, 5, 47, 62
7, 26634, Note_off_c, 5, 47, 0
7, 26640, Note_on_c, 5, 53, 62
7, 26682, Note_off_c, 5, 53, 0
7, 26688, Note_on_c, 5, 50, 62
7, 26730, Note_off_c, 5, 50, 0
7, 26736, Note_on_c, 5, 47, 62
7, 26778, Note_off_c, 5, 47, 0
7, 26784, Note_on_c, 5, 43, 62
7, 26826, Note_off_c, 5, 43, 0
7, 26832, Note_on_c, 5, 50, 62
7, 26874, Note_off_c, 5, 50, 0
7, 26880, Note_on_c, 5, 47, 62
7, 26922, Note_off_c, 5, 47, 0
7, 26928, Note_on_c, 5, 43, 62
7, 26970, Note_off_c, 5, 43, 0
7, 26976, Note_on_c, 5, 58, 62
7, 27060, Note_off_c, 5, 58, 0
7, 27120, Note_on_c, 5, 46, 62
7, 27162, Note_off_c, 5, 46, 0
7, 27168, Note_on_c, 5, 45, 62
7, 27210, Note_off_c, 5, 45, 0
7, 27216, Note_on_c, 5, 46, 62
7, 27258, Note_off_c, 5, 46, 0
7, 27264, Note_on_c, 5, 48, 62
7, 27306, Note_off_c, 5, 48, 0
7, 27312, Note_on_c, 5, 36, 62
7, 27354, Note_off_c, 5, 36, 0
7, 27360, Note_on_c, 5, 41, 62
7, 27444, Note_off_c, 5, 41, 0
7, 27504, Note_on_c, 5, 48, 62
7, 27546, Note_off_c, 5, 48, 0
7, 27552, Note_on_c, 5, 50, 62
7, 27594, Note_off_c, 5, 50, 0
7, 27600, Note_on_c, 5, 45, 62
7, 27642, Note_off_c, 5, 45, 0
7, 27648, Note_on_c, 5, 46, 62
7, 27690, Note_off_c, 5, 46, 0
7, 27696, Note_on_c, 5, 48, 62
7, 27738, Note_off_c, 5, 48, 0
7, 27744, Note_on_c, 5, 41, 62
7, 27786, Note_off_c, 5, 41, 0
7, 27792, Note_on_c, 5, 53, 62
7, 27813, Note_off_c, 5, 53, 0
7, 27816, Note_on_c, 5, 52, 62
7, 27837, Note_off_c, 5, 52, 0
7, 27840, Note_on_c, 5, 53, 62
7, 27861, Note_off_c, 5, 53, 0
7, 27864, Note_on_c, 5, 52, 62
7, 27885, Note_off_c, 5, 52, 0
7, 27888, Note_on_c, 5, 53, 62
7, 27909, Note_off_c, 5, 53, 0
7, 27912, Note_on_c, 5, 50, 62
7, 27933, Note_off_c, 5, 50, 0
7, 27936, Note_on_c, 5, 52, 62
7, 27978, Note_off_c, 5, 52, 0
7, 27984, Note_on_c, 5, 48, 62
7, 28026, Note_off_c, 5, 48, 0
7, 28032, Note_on_c, 5, 50, 62
7, 28074, Note_off_c, 5, 50, 0
7, 28080, Note_on_c, 5, 43, 62
7, 28122, Note_off_c, 5, 43, 0
7, 28128, Note_on_c, 5, 48, 62
7, 28170, Note_off_c, 5, 48, 0
7, 28176, Note_on_c, 5, 52, 62
7, 28218, Note_off_c, 5, 52, 0
7, 28224, Note_on_c, 5, 48, 62
7, 28266, Note_off_c, 5, 48, 0
7, 28272, Note_on_c, 5, 47, 62
7, 28314, Note_off_c, 5, 47, 0
7, 28320, Note_on_c, 5, 45, 62
7, 28362, Note_off_c, 5, 45, 0
7, 28368, Note_on_c, 5, 50, 62
7, 28410, Note_off_c, 5, 50, 0
7, 28416, Note_on_c, 5, 47, 62
7, 28458, Note_off_c, 5, 47, 0
7, 28464, Note_on_c, 5, 45, 62
7, 28506, Note_off_c, 5, 45, 0
7, 28512, Note_on_c, 5, 43, 62
7, 28554, Note_off_c, 5, 43, 0
7, 28560, Note_on_c, 5, 48, 62
7, 28602, Note_off_c, 5, 48, 0
7, 28608, Note_on_c, 5, 45, 62
7, 28650, Note_off_c, 5, 45, 0
7, 28656, Note_on_c, 5, 43, 62
7, 28698, Note_off_c, 5, 43, 0
7, 28704, Note_on_c, 5, 41, 62
7, 28788, Note_off_c, 5, 41, 0
7, 28848, Note_on_c, 5, 53, 62
7, 28917, Note_off_c, 5, 53, 0
7, 28920, Note_on_c, 5, 55, 62
7, 28941, Note_off_c, 5, 55, 0
7, 28944, Note_on_c, 5, 53, 62
7, 28965, Note_off_c, 5, 53, 0
7, 28968, Note_on_c, 5, 52, 62
7, 28989, Note_off_c, 5, 52, 0
7, 28992, Note_on_c, 5, 50, 62
7, 29013, Note_off_c, 5, 50, 0
7, 29016, Note_on_c, 5, 48, 62
7, 29037, Note_off_c, 5, 48, 0
7, 29040, Note_on_c, 5, 47, 62
7, 29061, Note_off_c, 5, 47, 0
7, 29064, Note_on_c, 5, 45, 62
7, 29085, Note_off_c, 5, 45, 0
7, 29088, Note_on_c, 5, 43, 62
7, 29130, Note_off_c, 5, 43, 0
7, 29136, Note_on_c, 5, 48, 62
7, 29178, Note_off_c, 5, 48, 0
7, 29184, Note_on_c, 5, 55, 62
7, 29226, Note_off_c, 5, 55, 0
7, 29232, Note_on_c, 5, 43, 62
7, 29274, Note_off_c, 5, 43, 0
7, 29280, Note_on_c, 5, 48, 62
7, 29322, Note_off_c, 5, 48, 0
7, 29328, Note_on_c, 5, 60, 62
7, 29349, Note_off_c, 5, 60, 0
7, 29352, Note_on_c, 5, 62, 62
7, 29373, Note_off_c, 5, 62, 0
7, 29376, Note_on_c, 5, 60, 62
7, 29397, Note_off_c, 5, 60, 0
7, 29400, Note_on_c, 5, 58, 62
7, 29421, Note_off_c, 5, 58, 0
7, 29424, Note_on_c, 5, 57, 62
7, 29445, Note_off_c, 5, 57, 0
7, 29448, Note_on_c, 5, 55, 62
7, 29469, Note_off_c, 5, 55, 0
7, 29472, Note_on_c, 5, 54, 62
7, 29514, Note_off_c, 5, 54, 0
7, 29520, Note_on_c, 5, 50, 62
7, 29562, Note_off_c, 5, 50, 0
7, 29568, Note_on_c, 5, 52, 62
7, 29610, Note_off_c, 5, 52, 0
7, 29616, Note_on_c, 5, 54, 62
7, 29658, Note_off_c, 5, 54, 0
7, 29664, Note_on_c, 5, 55, 62
7, 29706, Note_off_c, 5, 55, 0
7, 29904, Note_on_c, 5, 45, 62
7, 29946, Note_off_c, 5, 45, 0
7, 29952, Note_on_c, 5, 46, 62
7, 29994, Note_off_c, 5, 46, 0
7, 30000, Note_on_c, 5, 48, 62
7, 30042, Note_off_c, 5, 48, 0
7, 30048, Note_on_c, 5, 50, 62
7, 30090, Note_off_c, 5, 50, 0
7, 30096, Note_on_c, 5, 43, 62
7, 30138, Note_off_c, 5, 43, 0
7, 30144, Note_on_c, 5, 45, 62
7, 30186, Note_off_c, 5, 45, 0
7, 30192, Note_on_c, 5, 46, 62
7, 30234, Note_off_c, 5, 46, 0
7, 30240, Note_on_c, 5, 48, 62
7, 30282, Note_off_c, 5, 48, 0
7, 30288, Note_on_c, 5, 36, 62
7, 30330, Note_off_c, 5, 36, 0
7, 30480, Note_on_c, 5, 48, 62
7, 30522, Note_off_c, 5, 48, 0
7, 30528, Note_on_c, 5, 50, 62
7, 30570, Note_off_c, 5, 50, 0
7, 30576, Note_on_c, 5, 52, 62
7, 30618, Note_off_c, 5, 52, 0
7, 30624, Note_on_c, 5, 53, 62
7, 30666, Note_off_c, 5, 53, 0
7, 30672, Note_on_c, 5, 41, 62
7, 30714, Note_off_c, 5, 41, 0
7, 30864, Note_on_c, 5, 53, 62
7, 30906, Note_off_c, 5, 53, 0
7, 30912, Note_on_c, 5, 55, 62
7, 30954, Note_off_c, 5, 55, 0
7, 30960, Note_on_c, 5, 57, 62
7, 31002, Note_off_c, 5, 57, 0
7, 31008, Note_on_c, 5, 58, 62
7, 31029, Note_off_c, 5, 58, 0
7, 31032, Note_on_c, 5, 46, 62
7, 31053, Note_off_c, 5, 46, 0
7, 31056, Note_on_c, 5, 58, 62
7, 31077, Note_off_c, 5, 58, 0
7, 31080, Note_on_c, 5, 57, 62
7, 31101, Note_off_c, 5, 57, 0
7, 31104, Note_on_c, 5, 58, 62
7, 31125, Note_off_c, 5, 58, 0
7, 31128, Note_on_c, 5, 57, 62
7, 31149, Note_off_c, 5, 57, 0
7, 31152, Note_on_c, 5, 58, 62
7, 31173, Note_off_c, 5, 58, 0
7, 31176, Note_on_c, 5, 57, 62
7, 31197, Note_off_c, 5, 57, 0
7, 31200, Note_on_c, 5, 58, 62
7, 31221, Note_off_c, 5, 58, 0
7, 31224, Note_on_c, 5, 60, 62
7, 31245, Note_off_c, 5, 60, 0
7, 31248, Note_on_c, 5, 58, 62
7, 31269, Note_off_c, 5, 58, 0
7, 31272, Note_on_c, 5, 57, 62
7, 31293, Note_off_c, 5, 57, 0
7, 31296, Note_on_c, 5, 55, 62
7, 31317, Note_off_c, 5, 55, 0
7, 31320, Note_on_c, 5, 53, 62
7, 31341, Note_off_c, 5, 53, 0
7, 31344, Note_on_c, 5, 52, 62
7, 31365, Note_off_c, 5, 52, 0
7, 31368, Note_on_c, 5, 50, 62
7, 31389, Note_off_c, 5, 50, 0
7, 31392, Note_on_c, 5, 48, 62
7, 31434, Note_off_c, 5, 48, 0
7, 31440, Note_on_c, 5, 53, 62
7, 31482, Note_off_c, 5, 53, 0
7, 31488, Note_on_c, 5, 60, 62
7, 31530, Note_off_c, 5, 60, 0
7, 31536, Note_on_c, 5, 48, 62
7, 31578, Note_off_c, 5, 48, 0
7, 31584, Note_on_c, 5, 50, 62
7, 31605, Note_off_c, 5, 50, 0
7, 31608, Note_on_c, 5, 48, 62
7, 31629, Note_off_c, 5, 48, 0
7, 31632, Note_on_c, 5, 50, 62
7, 31653, Note_off_c, 5, 50, 0
7, 31656, Note_on_c, 5, 48, 62
7, 31677, Note_off_c, 5, 48, 0
7, 31680, Note_on_c, 5, 46, 62
7, 31701, Note_off_c, 5, 46, 0
7, 31704, Note_on_c, 5, 45, 62
7, 31725, Note_off_c, 5, 45, 0
7, 31728, Note_on_c, 5, 46, 62
7, 31749, Note_off_c, 5, 46, 0
7, 31752, Note_on_c, 5, 45, 62
7, 31773, Note_off_c, 5, 45, 0
7, 31776, Note_on_c, 5, 43, 62
7, 31818, Note_off_c, 5, 43, 0
7, 31824, Note_on_c, 5, 41, 62
7, 31866, Note_off_c, 5, 41, 0
7, 31872, Note_on_c, 5, 48, 62
7, 31914, Note_off_c, 5, 48, 0
7, 31920, Note_on_c, 5, 36, 62
7, 31962, Note_off_c, 5, 36, 0
7, 31968, Note_on_c, 5, 41, 62
7, 32010, Note_off_c, 5, 41, 0
7, 32016, Note_on_c, 5, 41, 62
7, 32037, Note_off_c, 5, 41, 0
7, 32040, Note_on_c, 5, 41, 62
7, 32061, Note_off_c, 5, 41, 0
7, 32064, Note_on_c, 5, 41, 62
7, 32085, Note_off_c, 5, 41, 0
7, 32088, Note_on_c, 5, 41, 62
7, 32109, Note_off_c, 5, 41, 0
7, 32112, Note_on_c, 5, 41, 62
7, 32133, Note_off_c, 5, 41, 0
7, 32136, Note_on_c, 5, 41, 62
7, 32157, Note_off_c, 5, 41, 0
7, 32160, Note_on_c, 5, 41, 62
7, 32340, Note_off_c, 5, 41, 0
7, 32340, End_track
8, 0, Start_track
8, 0, Title_t, "Violino Piccolo"
8, 0, Control_c, 6, 0, 0
8, 0, Program_c, 6, 40
8, 0, Time_signature, 4, 2, 96, 8
8, 0, Tempo, 681818
8, 144, Note_on_c, 6, 65, 75
8, 186, Note_off_c, 6, 65, 0
8, 192, Note_on_c, 6, 69, 75
8, 234, Note_off_c, 6, 69, 0
8, 240, Note_on_c, 6, 72, 75
8, 282, Note_off_c, 6, 72, 0
8, 288, Note_on_c, 6, 77, 75
8, 330, Note_off_c, 6, 77, 0
8, 336, Note_on_c, 6, 72, 75
8, 378, Note_off_c, 6, 72, 0
8, 384, Note_on_c, 6, 74, 75
8, 426, Note_off_c, 6, 74, 0
8, 432, Note_on_c, 6, 72, 75
8, 453, Note_off_c, 6, 72, 0
8, 456, Note_on_c, 6, 70, 75
8, 477, Note_off_c, 6, 70, 0
8, 480, Note_on_c, 6, 69, 75
8, 501, Note_off_c, 6, 69, 0
8, 504, Note_on_c, 6, 67, 75
8, 525, Note_off_c, 6, 67, 0
8, 528, Note_on_c, 6, 65, 75
8, 549, Note_off_c, 6, 65, 0
8, 552, Note_on_c, 6, 67, 75
8, 573, Note_off_c, 6, 67, 0
8, 576, Note_on_c, 6, 69, 75
8, 597, Note_off_c, 6, 69, 0
8, 600, Note_on_c, 6, 71, 75
8, 621, Note_off_c, 6, 71, 0
8, 624, Note_on_c, 6, 69, 75
8, 645, Note_off_c, 6, 69, 0
8, 648, Note_on_c, 6, 71, 75
8, 669, Note_off_c, 6, 71, 0
8, 672, Note_on_c, 6, 72, 75
8, 693, Note_off_c, 6, 72, 0
8, 696, Note_on_c, 6, 74, 75
8, 717, Note_off_c, 6, 74, 0
8, 720, Note_on_c, 6, 76, 75
8, 741, Note_off_c, 6, 76, 0
8, 744, Note_on_c, 6, 72, 75
8, 765, Note_off_c, 6, 72, 0
8, 768, Note_on_c, 6, 77, 75
8, 789, Note_off_c, 6, 77, 0
8, 792, Note_on_c, 6, 76, 75
8, 813, Note_off_c, 6, 76, 0
8, 816, Note_on_c, 6, 77, 75
8, 837, Note_off_c, 6, 77, 0
8, 840, Note_on_c, 6, 79, 75
8, 861, Note_off_c, 6, 79, 0
8, 864, Note_on_c, 6, 76, 75
8, 885, Note_off_c, 6, 76, 0
8, 888, Note_on_c, 6, 77, 75
8, 909, Note_off_c, 6, 77, 0
8, 912, Note_on_c, 6, 79, 75
8, 933, Note_off_c, 6, 79, 0
8, 936, Note_on_c, 6, 77, 75
8, 957, Note_off_c, 6, 77, 0
8, 960, Note_on_c, 6, 79, 75
8, 981, Note_off_c, 6, 79, 0
8, 984, Note_on_c, 6, 77, 75
8, 1005, Note_off_c, 6, 77, 0
8, 1008, Note_on_c, 6, 79, 75
8, 1029, Note_off_c, 6, 79, 0
8, 1032, Note_on_c, 6, 77, 75
8, 1053, Note_off_c, 6, 77, 0
8, 1056, Note_on_c, 6, 79, 75
8, 1077, Note_off_c, 6, 79, 0
8, 1080, Note_on_c, 6, 72, 75
8, 1101, Note_off_c, 6, 72, 0
8, 1104, Note_on_c, 6, 77, 75
8, 1125, Note_off_c, 6, 77, 0
8, 1128, Note_on_c, 6, 76, 75
8, 1149, Note_off_c, 6, 76, 0
8, 1152, Note_on_c, 6, 77, 75
8, 1173, Note_off_c, 6, 77, 0
8, 1176, Note_on_c, 6, 76, 75
8, 1197, Note_off_c, 6, 76, 0
8, 1200, Note_on_c, 6, 77, 75
8, 1221, Note_off_c, 6, 77, 0
8, 1224, Note_on_c, 6, 76, 75
8, 1245, Note_off_c, 6, 76, 0
8, 1248, Note_on_c, 6, 77, 75
8, 1269, Note_off_c, 6, 77, 0
8, 1272, Note_on_c, 6, 71, 75
8, 1293, Note_off_c, 6, 71, 0
8, 1296, Note_on_c, 6, 76, 75
8, 1317, Note_off_c, 6, 76, 0
8, 1320, Note_on_c, 6, 74, 75
8, 1341, Note_off_c, 6, 74, 0
8, 1344, Note_on_c, 6, 76, 75
8, 1365, Note_off_c, 6, 76, 0
8, 1368, Note_on_c, 6, 74, 75
8, 1389, Note_off_c, 6, 74, 0
8, 1392, Note_on_c, 6, 76, 75
8, 1413, Note_off_c, 6, 76, 0
8, 1416, Note_on_c, 6, 74, 75
8, 1437, Note_off_c, 6, 74, 0
8, 1440, Note_on_c, 6, 76, 75
8, 1461, Note_off_c, 6, 76, 0
8, 1464, Note_on_c, 6, 72, 75
8, 1485, Note_off_c, 6, 72, 0
8, 1488, Note_on_c, 6, 81, 75
8, 1509, Note_off_c, 6, 81, 0
8, 1512, Note_on_c, 6, 79, 75
8, 1533, Note_off_c, 6, 79, 0
8, 1536, Note_on_c, 6, 77, 75
8, 1557, Note_off_c, 6, 77, 0
8, 1560, Note_on_c, 6, 76, 75
8, 1581, Note_off_c, 6, 76, 0
8, 1584, Note_on_c, 6, 74, 75
8, 1605, Note_off_c, 6, 74, 0
8, 1608, Note_on_c, 6, 72, 75
8, 1629, Note_off_c, 6, 72, 0
8, 1632, Note_on_c, 6, 71, 75
8, 1653, Note_off_c, 6, 71, 0
8, 1656, Note_on_c, 6, 69, 75
8, 1677, Note_off_c, 6, 69, 0
8, 1680, Note_on_c, 6, 67, 75
8, 1701, Note_off_c, 6, 67, 0
8, 1704, Note_on_c, 6, 69, 75
8, 1725, Note_off_c, 6, 69, 0
8, 1728, Note_on_c, 6, 71, 75
8, 1749, Note_off_c, 6, 71, 0
8, 1752, Note_on_c, 6, 72, 75
8, 1773, Note_off_c, 6, 72, 0
8, 1776, Note_on_c, 6, 74, 75
8, 1797, Note_off_c, 6, 74, 0
8, 1800, Note_on_c, 6, 76, 75
8, 1821, Note_off_c, 6, 76, 0
8, 1824, Note_on_c, 6, 77, 75
8, 1887, Note_off_c, 6, 77, 0
8, 1896, Note_on_c, 6, 79, 75
8, 1917, Note_off_c, 6, 79, 0
8, 1920, Note_on_c, 6, 74, 75
8, 1983, Note_off_c, 6, 74, 0
8, 1992, Note_on_c, 6, 72, 75
8, 2013, Note_off_c, 6, 72, 0
8, 2016, Note_on_c, 6, 72, 75
8, 2058, Note_off_c, 6, 72, 0
8, 2256, Note_on_c, 6, 74, 75
8, 2277, Note_off_c, 6, 74, 0
8, 2280, Note_on_c, 6, 75, 75
8, 2301, Note_off_c, 6, 75, 0
8, 2304, Note_on_c, 6, 74, 75
8, 2325, Note_off_c, 6, 74, 0
8, 2328, Note_on_c, 6, 72, 75
8, 2349, Note_off_c, 6, 72, 0
8, 2352, Note_on_c, 6, 70, 75
8, 2373, Note_off_c, 6, 70, 0
8, 2376, Note_on_c, 6, 69, 75
8, 2397, Note_off_c, 6, 69, 0
8, 2400, Note_on_c, 6, 70, 75
8, 2442, Note_off_c, 6, 70, 0
8, 2448, Note_on_c, 6, 74, 75
8, 2490, Note_off_c, 6, 74, 0
8, 2496, Note_on_c, 6, 76, 75
8, 2538, Note_off_c, 6, 76, 0
8, 2544, Note_on_c, 6, 79, 75
8, 2554, Note_off_c, 6, 79, 0
8, 2556, Note_on_c, 6, 77, 75
8, 2566, Note_off_c, 6, 77, 0
8, 2568, Note_on_c, 6, 79, 75
8, 2578, Note_off_c, 6, 79, 0
8, 2580, Note_on_c, 6, 77, 75
8, 2590, Note_off_c, 6, 77, 0
8, 2592, Note_on_c, 6, 79, 75
8, 2634, Note_off_c, 6, 79, 0
8, 2640, Note_on_c, 6, 81, 75
8, 2661, Note_off_c, 6, 81, 0
8, 2664, Note_on_c, 6, 82, 75
8, 2685, Note_off_c, 6, 82, 0
8, 2688, Note_on_c, 6, 81, 75
8, 2709, Note_off_c, 6, 81, 0
8, 2712, Note_on_c, 6, 79, 75
8, 2733, Note_off_c, 6, 79, 0
8, 2736, Note_on_c, 6, 77, 75
8, 2757, Note_off_c, 6, 77, 0
8, 2760, Note_on_c, 6, 76, 75
8, 2781, Note_off_c, 6, 76, 0
8, 2784, Note_on_c, 6, 77, 75
8, 2805, Note_off_c, 6, 77, 0
8, 2808, Note_on_c, 6, 74, 75
8, 2829, Note_off_c, 6, 74, 0
8, 2832, Note_on_c, 6, 82, 75
8, 2853, Note_off_c, 6, 82, 0
8, 2856, Note_on_c, 6, 84, 75
8, 2877, Note_off_c, 6, 84, 0
8, 2880, Note_on_c, 6, 82, 75
8, 2901, Note_off_c, 6, 82, 0
8, 2904, Note_on_c, 6, 81, 75
8, 2925, Note_off_c, 6, 81, 0
8, 2928, Note_on_c, 6, 79, 75
8, 2949, Note_off_c, 6, 79, 0
8, 2952, Note_on_c, 6, 77, 75
8, 2973, Note_off_c, 6, 77, 0
8, 2976, Note_on_c, 6, 76, 75
8, 3018, Note_off_c, 6, 76, 0
8, 3024, Note_on_c, 6, 60, 75
8, 3066, Note_off_c, 6, 60, 0
8, 3072, Note_on_c, 6, 64, 75
8, 3114, Note_off_c, 6, 64, 0
8, 3120, Note_on_c, 6, 67, 75
8, 3162, Note_off_c, 6, 67, 0
8, 3168, Note_on_c, 6, 70, 75
8, 3210, Note_off_c, 6, 70, 0
8, 3216, Note_on_c, 6, 72, 75
8, 3237, Note_off_c, 6, 72, 0
8, 3240, Note_on_c, 6, 74, 75
8, 3261, Note_off_c, 6, 74, 0
8, 3264, Note_on_c, 6, 72, 75
8, 3285, Note_off_c, 6, 72, 0
8, 3288, Note_on_c, 6, 70, 75
8, 3309, Note_off_c, 6, 70, 0
8, 3312, Note_on_c, 6, 69, 75
8, 3333, Note_off_c, 6, 69, 0
8, 3336, Note_on_c, 6, 67, 75
8, 3357, Note_off_c, 6, 67, 0
8, 3360, Note_on_c, 6, 69, 75
8, 3402, Note_off_c, 6, 69, 0
8, 3408, Note_on_c, 6, 65, 75
8, 3450, Note_off_c, 6, 65, 0
8, 3456, Note_on_c, 6, 69, 75
8, 3498, Note_off_c, 6, 69, 0
8, 3504, Note_on_c, 6, 72, 75
8, 3546, Note_off_c, 6, 72, 0
8, 3552, Note_on_c, 6, 75, 75
8, 3594, Note_off_c, 6, 75, 0
8, 3600, Note_on_c, 6, 77, 75
8, 3621, Note_off_c, 6, 77, 0
8, 3624, Note_on_c, 6, 79, 75
8, 3645, Note_off_c, 6, 79, 0
8, 3648, Note_on_c, 6, 77, 75
8, 3669, Note_off_c, 6, 77, 0
8, 3672, Note_on_c, 6, 75, 75
8, 3693, Note_off_c, 6, 75, 0
8, 3696, Note_on_c, 6, 74, 75
8, 3717, Note_off_c, 6, 74, 0
8, 3720, Note_on_c, 6, 72, 75
8, 3741, Note_off_c, 6, 72, 0
8, 3744, Note_on_c, 6, 74, 75
8, 3786, Note_off_c, 6, 74, 0
8, 3792, Note_on_c, 6, 79, 75
8, 3813, Note_off_c, 6, 79, 0
8, 3816, Note_on_c, 6, 81, 75
8, 3837, Note_off_c, 6, 81, 0
8, 3840, Note_on_c, 6, 79, 75
8, 3861, Note_off_c, 6, 79, 0
8, 3864, Note_on_c, 6, 77, 75
8, 3885, Note_off_c, 6, 77, 0
8, 3888, Note_on_c, 6, 76, 75
8, 3909, Note_off_c, 6, 76, 0
8, 3912, Note_on_c, 6, 74, 75
8, 3933, Note_off_c, 6, 74, 0
8, 3936, Note_on_c, 6, 72, 75
8, 3999, Note_off_c, 6, 72, 0
8, 4008, Note_on_c, 6, 74, 75
8, 4029, Note_off_c, 6, 74, 0
8, 4032, Note_on_c, 6, 76, 75
8, 4053, Note_off_c, 6, 76, 0
8, 4056, Note_on_c, 6, 77, 75
8, 4077, Note_off_c, 6, 77, 0
8, 4080, Note_on_c, 6, 79, 75
8, 4101, Note_off_c, 6, 79, 0
8, 4104, Note_on_c, 6, 81, 75
8, 4125, Note_off_c, 6, 81, 0
8, 4128, Note_on_c, 6, 82, 75
8, 4149, Note_off_c, 6, 82, 0
8, 4152, Note_on_c, 6, 84, 75
8, 4162, Note_off_c, 6, 84, 0
8, 4164, Note_on_c, 6, 82, 75
8, 4174, Note_off_c, 6, 82, 0
8, 4176, Note_on_c, 6, 81, 75
8, 4186, Note_off_c, 6, 81, 0
8, 4188, Note_on_c, 6, 82, 75
8, 4198, Note_off_c, 6, 82, 0
8, 4200, Note_on_c, 6, 84, 75
8, 4221, Note_off_c, 6, 84, 0
8, 4224, Note_on_c, 6, 79, 75
8, 4287, Note_off_c, 6, 79, 0
8, 4296, Note_on_c, 6, 77, 75
8, 4317, Note_off_c, 6, 77, 0
8, 4320, Note_on_c, 6, 77, 75
8, 4341, Note_off_c, 6, 77, 0
8, 4344, Note_on_c, 6, 76, 75
8, 4365, Note_off_c, 6, 76, 0
8, 4368, Note_on_c, 6, 77, 75
8, 4389, Note_off_c, 6, 77, 0
8, 4392, Note_on_c, 6, 76, 75
8, 4413, Note_off_c, 6, 76, 0
8, 4416, Note_on_c, 6, 74, 75
8, 4437, Note_off_c, 6, 74, 0
8, 4440, Note_on_c, 6, 72, 75
8, 4461, Note_off_c, 6, 72, 0
8, 4464, Note_on_c, 6, 74, 75
8, 4485, Note_off_c, 6, 74, 0
8, 4488, Note_on_c, 6, 72, 75
8, 4509, Note_off_c, 6, 72, 0
8, 4512, Note_on_c, 6, 70, 75
8, 4533, Note_off_c, 6, 70, 0
8, 4536, Note_on_c, 6, 72, 75
8, 4546, Note_off_c, 6, 72, 0
8, 4548, Note_on_c, 6, 70, 75
8, 4558, Note_off_c, 6, 70, 0
8, 4560, Note_on_c, 6, 69, 75
8, 4570, Note_off_c, 6, 69, 0
8, 4572, Note_on_c, 6, 70, 75
8, 4582, Note_off_c, 6, 70, 0
8, 4584, Note_on_c, 6, 72, 75
8, 4605, Note_off_c, 6, 72, 0
8, 4608, Note_on_c, 6, 67, 75
8, 4671, Note_off_c, 6, 67, 0
8, 4680, Note_on_c, 6, 65, 75
8, 4701, Note_off_c, 6, 65, 0
8, 4704, Note_on_c, 6, 65, 75
8, 4788, Note_off_c, 6, 65, 0
8, 4848, Note_on_c, 6, 72, 75
8, 4890, Note_off_c, 6, 72, 0
8, 4896, Note_on_c, 6, 74, 75
8, 4938, Note_off_c, 6, 74, 0
8, 4944, Note_on_c, 6, 69, 75
8, 4986, Note_off_c, 6, 69, 0
8, 4992, Note_on_c, 6, 70, 75
8, 5034, Note_off_c, 6, 70, 0
8, 5040, Note_on_c, 6, 72, 75
8, 5082, Note_off_c, 6, 72, 0
8, 5088, Note_on_c, 6, 65, 75
8, 5130, Note_off_c, 6, 65, 0
8, 5136, Note_on_c, 6, 77, 75
8, 5157, Note_off_c, 6, 77, 0
8, 5160, Note_on_c, 6, 79, 75
8, 5181, Note_off_c, 6, 79, 0
8, 5184, Note_on_c, 6, 77, 75
8, 5205, Note_off_c, 6, 77, 0
8, 5208, Note_on_c, 6, 79, 75
8, 5229, Note_off_c, 6, 79, 0
8, 5232, Note_on_c, 6, 77, 75
8, 5253, Note_off_c, 6, 77, 0
8, 5256, Note_on_c, 6, 79, 75
8, 5277, Note_off_c, 6, 79, 0
8, 5280, Note_on_c, 6, 77, 75
8, 5364, Note_off_c, 6, 77, 0
8, 5520, Note_on_c, 6, 84, 75
8, 5541, Note_off_c, 6, 84, 0
8, 5544, Note_on_c, 6, 83, 75
8, 5565, Note_off_c, 6, 83, 0
8, 5568, Note_on_c, 6, 84, 75
8, 5589, Note_off_c, 6, 84, 0
8, 5592, Note_on_c, 6, 83, 75
8, 5613, Note_off_c, 6, 83, 0
8, 5616, Note_on_c, 6, 84, 75
8, 5637, Note_off_c, 6, 84, 0
8, 5640, Note_on_c, 6, 83, 75
8, 5661, Note_off_c, 6, 83, 0
8, 5664, Note_on_c, 6, 84, 75
8, 5706, Note_off_c, 6, 84, 0
8, 5712, Note_on_c, 6, 79, 75
8, 5754, Note_off_c, 6, 79, 0
8, 5760, Note_on_c, 6, 81, 75
8, 5802, Note_off_c, 6, 81, 0
8, 5808, Note_on_c, 6, 79, 75
8, 5829, Note_off_c, 6, 79, 0
8, 5832, Note_on_c, 6, 77, 75
8, 5853, Note_off_c, 6, 77, 0
8, 5856, Note_on_c, 6, 76, 75
8, 5877, Note_off_c, 6, 76, 0
8, 5880, Note_on_c, 6, 74, 75
8, 5901, Note_off_c, 6, 74, 0
8, 5904, Note_on_c, 6, 72, 75
8, 5925, Note_off_c, 6, 72, 0
8, 5928, Note_on_c, 6, 74, 75
8, 5949, Note_off_c, 6, 74, 0
8, 5952, Note_on_c, 6, 76, 75
8, 5973, Note_off_c, 6, 76, 0
8, 5976, Note_on_c, 6, 77, 75
8, 5997, Note_off_c, 6, 77, 0
8, 6000, Note_on_c, 6, 79, 75
8, 6090, Note_off_c, 6, 79, 0
8, 6096, Note_on_c, 6, 77, 75
8, 6117, Note_off_c, 6, 77, 0
8, 6120, Note_on_c, 6, 76, 75
8, 6141, Note_off_c, 6, 76, 0
8, 6144, Note_on_c, 6, 77, 75
8, 6282, Note_off_c, 6, 77, 0
8, 6288, Note_on_c, 6, 76, 75
8, 6309, Note_off_c, 6, 76, 0
8, 6312, Note_on_c, 6, 74, 75
8, 6333, Note_off_c, 6, 74, 0
8, 6336, Note_on_c, 6, 76, 75
8, 6453, Note_off_c, 6, 76, 0
8, 6456, Note_on_c, 6, 74, 75
8, 6477, Note_off_c, 6, 74, 0
8, 6480, Note_on_c, 6, 76, 75
8, 6501, Note_off_c, 6, 76, 0
8, 6504, Note_on_c, 6, 77, 75
8, 6525, Note_off_c, 6, 77, 0
8, 6528, Note_on_c, 6, 74, 75
8, 6591, Note_off_c, 6, 74, 0
8, 6600, Note_on_c, 6, 72, 75
8, 6621, Note_off_c, 6, 72, 0
8, 6624, Note_on_c, 6, 72, 75
8, 6666, Note_off_c, 6, 72, 0
8, 6672, Note_on_c, 6, 67, 75
8, 6714, Note_off_c, 6, 67, 0
8, 6720, Note_on_c, 6, 69, 75
8, 6762, Note_off_c, 6, 69, 0
8, 6768, Note_on_c, 6, 70, 75
8, 6810, Note_off_c, 6, 70, 0
8, 6816, Note_on_c, 6, 72, 75
8, 6858, Note_off_c, 6, 72, 0
8, 6864, Note_on_c, 6, 74, 75
8, 6885, Note_off_c, 6, 74, 0
8, 6888, Note_on_c, 6, 75, 75
8, 6909, Note_off_c, 6, 75, 0
8, 6912, Note_on_c, 6, 74, 75
8, 6933, Note_off_c, 6, 74, 0
8, 6936, Note_on_c, 6, 72, 75
8, 6957, Note_off_c, 6, 72, 0
8, 6960, Note_on_c, 6, 70, 75
8, 6981, Note_off_c, 6, 70, 0
8, 6984, Note_on_c, 6, 69, 75
8, 7005, Note_off_c, 6, 69, 0
8, 7008, Note_on_c, 6, 70, 75
8, 7092, Note_off_c, 6, 70, 0
8, 7800, Note_on_c, 6, 72, 75
8, 7821, Note_off_c, 6, 72, 0
8, 7824, Note_on_c, 6, 77, 75
8, 7845, Note_off_c, 6, 77, 0
8, 7848, Note_on_c, 6, 75, 75
8, 7869, Note_off_c, 6, 75, 0
8, 7872, Note_on_c, 6, 77, 75
8, 7893, Note_off_c, 6, 77, 0
8, 7896, Note_on_c, 6, 75, 75
8, 7917, Note_off_c, 6, 75, 0
8, 7920, Note_on_c, 6, 77, 75
8, 7941, Note_off_c, 6, 77, 0
8, 7944, Note_on_c, 6, 75, 75
8, 7965, Note_off_c, 6, 75, 0
8, 7968, Note_on_c, 6, 77, 75
8, 7989, Note_off_c, 6, 77, 0
8, 7992, Note_on_c, 6, 70, 75
8, 8013, Note_off_c, 6, 70, 0
8, 8016, Note_on_c, 6, 75, 75
8, 8037, Note_off_c, 6, 75, 0
8, 8040, Note_on_c, 6, 74, 75
8, 8061, Note_off_c, 6, 74, 0
8, 8064, Note_on_c, 6, 75, 75
8, 8085, Note_off_c, 6, 75, 0
8, 8088, Note_on_c, 6, 74, 75
8, 8109, Note_off_c, 6, 74, 0
8, 8112, Note_on_c, 6, 75, 75
8, 8133, Note_off_c, 6, 75, 0
8, 8136, Note_on_c, 6, 74, 75
8, 8157, Note_off_c, 6, 74, 0
8, 8160, Note_on_c, 6, 75, 75
8, 8181, Note_off_c, 6, 75, 0
8, 8184, Note_on_c, 6, 69, 75
8, 8205, Note_off_c, 6, 69, 0
8, 8208, Note_on_c, 6, 74, 75
8, 8229, Note_off_c, 6, 74, 0
8, 8232, Note_on_c, 6, 72, 75
8, 8253, Note_off_c, 6, 72, 0
8, 8256, Note_on_c, 6, 74, 75
8, 8277, Note_off_c, 6, 74, 0
8, 8280, Note_on_c, 6, 72, 75
8, 8301, Note_off_c, 6, 72, 0
8, 8304, Note_on_c, 6, 74, 75
8, 8325, Note_off_c, 6, 74, 0
8, 8328, Note_on_c, 6, 72, 75
8, 8349, Note_off_c, 6, 72, 0
8, 8352, Note_on_c, 6, 74, 75
8, 8373, Note_off_c, 6, 74, 0
8, 8376, Note_on_c, 6, 67, 75
8, 8397, Note_off_c, 6, 67, 0
8, 8400, Note_on_c, 6, 79, 75
8, 8421, Note_off_c, 6, 79, 0
8, 8424, Note_on_c, 6, 77, 75
8, 8445, Note_off_c, 6, 77, 0
8, 8448, Note_on_c, 6, 75, 75
8, 8469, Note_off_c, 6, 75, 0
8, 8472, Note_on_c, 6, 74, 75
8, 8493, Note_off_c, 6, 74, 0
8, 8496, Note_on_c, 6, 72, 75
8, 8517, Note_off_c, 6, 72, 0
8, 8520, Note_on_c, 6, 70, 75
8, 8541, Note_off_c, 6, 70, 0
8, 8544, Note_on_c, 6, 69, 75
8, 8565, Note_off_c, 6, 69, 0
8, 8568, Note_on_c, 6, 67, 75
8, 8589, Note_off_c, 6, 67, 0
8, 8592, Note_on_c, 6, 65, 75
8, 8613, Note_off_c, 6, 65, 0
8, 8616, Note_on_c, 6, 67, 75
8, 8637, Note_off_c, 6, 67, 0
8, 8640, Note_on_c, 6, 69, 75
8, 8661, Note_off_c, 6, 69, 0
8, 8664, Note_on_c, 6, 70, 75
8, 8685, Note_off_c, 6, 70, 0
8, 8688, Note_on_c, 6, 72, 75
8, 8709, Note_off_c, 6, 72, 0
8, 8712, Note_on_c, 6, 74, 75
8, 8733, Note_off_c, 6, 74, 0
8, 8736, Note_on_c, 6, 75, 75
8, 8799, Note_off_c, 6, 75, 0
8, 8808, Note_on_c, 6, 77, 75
8, 8829, Note_off_c, 6, 77, 0
8, 8832, Note_on_c, 6, 72, 75
8, 8895, Note_off_c, 6, 72, 0
8, 8904, Note_on_c, 6, 70, 75
8, 8925, Note_off_c, 6, 70, 0
8, 8928, Note_on_c, 6, 70, 75
8, 9012, Note_off_c, 6, 70, 0
8, 9744, Note_on_c, 6, 76, 75
8, 9765, Note_off_c, 6, 76, 0
8, 9768, Note_on_c, 6, 74, 75
8, 9789, Note_off_c, 6, 74, 0
8, 9792, Note_on_c, 6, 76, 75
8, 9813, Note_off_c, 6, 76, 0
8, 9816, Note_on_c, 6, 77, 75
8, 9837, Note_off_c, 6, 77, 0
8, 9840, Note_on_c, 6, 76, 75
8, 9861, Note_off_c, 6, 76, 0
8, 9864, Note_on_c, 6, 74, 75
8, 9885, Note_off_c, 6, 74, 0
8, 9888, Note_on_c, 6, 73, 75
8, 9909, Note_off_c, 6, 73, 0
8, 9912, Note_on_c, 6, 74, 75
8, 9933, Note_off_c, 6, 74, 0
8, 9936, Note_on_c, 6, 76, 75
8, 9957, Note_off_c, 6, 76, 0
8, 9960, Note_on_c, 6, 77, 75
8, 9981, Note_off_c, 6, 77, 0
8, 9984, Note_on_c, 6, 79, 75
8, 10005, Note_off_c, 6, 79, 0
8, 10008, Note_on_c, 6, 77, 75
8, 10029, Note_off_c, 6, 77, 0
8, 10032, Note_on_c, 6, 79, 75
8, 10053, Note_off_c, 6, 79, 0
8, 10056, Note_on_c, 6, 76, 75
8, 10077, Note_off_c, 6, 76, 0
8, 10080, Note_on_c, 6, 77, 75
8, 10122, Note_off_c, 6, 77, 0
8, 10128, Note_on_c, 6, 62, 75
8, 10170, Note_off_c, 6, 62, 0
8, 10176, Note_on_c, 6, 65, 75
8, 10218, Note_off_c, 6, 65, 0
8, 10224, Note_on_c, 6, 69, 75
8, 10266, Note_off_c, 6, 69, 0
8, 10272, Note_on_c, 6, 74, 75
8, 10314, Note_off_c, 6, 74, 0
8, 10320, Note_on_c, 6, 69, 75
8, 10362, Note_off_c, 6, 69, 0
8, 10368, Note_on_c, 6, 70, 75
8, 10410, Note_off_c, 6, 70, 0
8, 10416, Note_on_c, 6, 69, 75
8, 10437, Note_off_c, 6, 69, 0
8, 10440, Note_on_c, 6, 67, 75
8, 10461, Note_off_c, 6, 67, 0
8, 10464, Note_on_c, 6, 65, 75
8, 10485, Note_off_c, 6, 65, 0
8, 10488, Note_on_c, 6, 64, 75
8, 10509, Note_off_c, 6, 64, 0
8, 10512, Note_on_c, 6, 62, 75
8, 10533, Note_off_c, 6, 62, 0
8, 10536, Note_on_c, 6, 64, 75
8, 10557, Note_off_c, 6, 64, 0
8, 10560, Note_on_c, 6, 65, 75
8, 10581, Note_off_c, 6, 65, 0
8, 10584, Note_on_c, 6, 67, 75
8, 10605, Note_off_c, 6, 67, 0
8, 10608, Note_on_c, 6, 65, 75
8, 10629, Note_off_c, 6, 65, 0
8, 10632, Note_on_c, 6, 67, 75
8, 10653, Note_off_c, 6, 67, 0
8, 10656, Note_on_c, 6, 69, 75
8, 10677, Note_off_c, 6, 69, 0
8, 10680, Note_on_c, 6, 70, 75
8, 10701, Note_off_c, 6, 70, 0
8, 10704, Note_on_c, 6, 72, 75
8, 10725, Note_off_c, 6, 72, 0
8, 10728, Note_on_c, 6, 69, 75
8, 10749, Note_off_c, 6, 69, 0
8, 10752, Note_on_c, 6, 74, 75
8, 10773, Note_off_c, 6, 74, 0
8, 10776, Note_on_c, 6, 77, 75
8, 10797, Note_off_c, 6, 77, 0
8, 10800, Note_on_c, 6, 76, 75
8, 10821, Note_off_c, 6, 76, 0
8, 10824, Note_on_c, 6, 74, 75
8, 10845, Note_off_c, 6, 74, 0
8, 10848, Note_on_c, 6, 73, 75
8, 10890, Note_off_c, 6, 73, 0
8, 10896, Note_on_c, 6, 69, 75
8, 10938, Note_off_c, 6, 69, 0
8, 10944, Note_on_c, 6, 73, 75
8, 10986, Note_off_c, 6, 73, 0
8, 10992, Note_on_c, 6, 76, 75
8, 11034, Note_off_c, 6, 76, 0
8, 11040, Note_on_c, 6, 81, 75
8, 11082, Note_off_c, 6, 81, 0
8, 11088, Note_on_c, 6, 69, 75
8, 11109, Note_off_c, 6, 69, 0
8, 11112, Note_on_c, 6, 70, 75
8, 11133, Note_off_c, 6, 70, 0
8, 11136, Note_on_c, 6, 69, 75
8, 11157, Note_off_c, 6, 69, 0
8, 11160, Note_on_c, 6, 67, 75
8, 11181, Note_off_c, 6, 67, 0
8, 11184, Note_on_c, 6, 65, 75
8, 11205, Note_off_c, 6, 65, 0
8, 11208, Note_on_c, 6, 64, 75
8, 11229, Note_off_c, 6, 64, 0
8, 11232, Note_on_c, 6, 65, 75
8, 11274, Note_off_c, 6, 65, 0
8, 11280, Note_on_c, 6, 62, 75
8, 11322, Note_off_c, 6, 62, 0
8, 11328, Note_on_c, 6, 66, 75
8, 11370, Note_off_c, 6, 66, 0
8, 11376, Note_on_c, 6, 69, 75
8, 11418, Note_off_c, 6, 69, 0
8, 11424, Note_on_c, 6, 72, 75
8, 11466, Note_off_c, 6, 72, 0
8, 11472, Note_on_c, 6, 74, 75
8, 11493, Note_off_c, 6, 74, 0
8, 11496, Note_on_c, 6, 75, 75
8, 11517, Note_off_c, 6, 75, 0
8, 11520, Note_on_c, 6, 74, 75
8, 11541, Note_off_c, 6, 74, 0
8, 11544, Note_on_c, 6, 72, 75
8, 11565, Note_off_c, 6, 72, 0
8, 11568, Note_on_c, 6, 70, 75
8, 11589, Note_off_c, 6, 70, 0
8, 11592, Note_on_c, 6, 69, 75
8, 11613, Note_off_c, 6, 69, 0
8, 11616, Note_on_c, 6, 70, 75
8, 11637, Note_off_c, 6, 70, 0
8, 11640, Note_on_c, 6, 74, 75
8, 11661, Note_off_c, 6, 74, 0
8, 11664, Note_on_c, 6, 79, 75
8, 11685, Note_off_c, 6, 79, 0
8, 11688, Note_on_c, 6, 81, 75
8, 11709, Note_off_c, 6, 81, 0
8, 11712, Note_on_c, 6, 79, 75
8, 11733, Note_off_c, 6, 79, 0
8, 11736, Note_on_c, 6, 77, 75
8, 11757, Note_off_c, 6, 77, 0
8, 11760, Note_on_c, 6, 76, 75
8, 11781, Note_off_c, 6, 76, 0
8, 11784, Note_on_c, 6, 74, 75
8, 11805, Note_off_c, 6, 74, 0
8, 11808, Note_on_c, 6, 73, 75
8, 11829, Note_off_c, 6, 73, 0
8, 11832, Note_on_c, 6, 71, 75
8, 11853, Note_off_c, 6, 71, 0
8, 11856, Note_on_c, 6, 69, 75
8, 11877, Note_off_c, 6, 69, 0
8, 11880, Note_on_c, 6, 71, 75
8, 11901, Note_off_c, 6, 71, 0
8, 11904, Note_on_c, 6, 73, 75
8, 11925, Note_off_c, 6, 73, 0
8, 11928, Note_on_c, 6, 74, 75
8, 11949, Note_off_c, 6, 74, 0
8, 11952, Note_on_c, 6, 76, 75
8, 11973, Note_off_c, 6, 76, 0
8, 11976, Note_on_c, 6, 77, 75
8, 11997, Note_off_c, 6, 77, 0
8, 12000, Note_on_c, 6, 79, 75
8, 12084, Note_off_c, 6, 79, 0
8, 12144, Note_on_c, 6, 79, 75
8, 12213, Note_off_c, 6, 79, 0
8, 12216, Note_on_c, 6, 81, 75
8, 12226, Note_off_c, 6, 81, 0
8, 12228, Note_on_c, 6, 79, 75
8, 12238, Note_off_c, 6, 79, 0
8, 12240, Note_on_c, 6, 77, 75
8, 12250, Note_off_c, 6, 77, 0
8, 12252, Note_on_c, 6, 79, 75
8, 12262, Note_off_c, 6, 79, 0
8, 12264, Note_on_c, 6, 81, 75
8, 12285, Note_off_c, 6, 81, 0
8, 12288, Note_on_c, 6, 76, 75
8, 12351, Note_off_c, 6, 76, 0
8, 12360, Note_on_c, 6, 74, 75
8, 12381, Note_off_c, 6, 74, 0
8, 12384, Note_on_c, 6, 74, 75
8, 12468, Note_off_c, 6, 74, 0
8, 13200, Note_on_c, 6, 79, 75
8, 13221, Note_off_c, 6, 79, 0
8, 13224, Note_on_c, 6, 77, 75
8, 13245, Note_off_c, 6, 77, 0
8, 13248, Note_on_c, 6, 79, 75
8, 13269, Note_off_c, 6, 79, 0
8, 13272, Note_on_c, 6, 77, 75
8, 13293, Note_off_c, 6, 77, 0
8, 13296, Note_on_c, 6, 79, 75
8, 13317, Note_off_c, 6, 79, 0
8, 13320, Note_on_c, 6, 81, 75
8, 13341, Note_off_c, 6, 81, 0
8, 13344, Note_on_c, 6, 82, 75
8, 13365, Note_off_c, 6, 82, 0
8, 13368, Note_on_c, 6, 81, 75
8, 13389, Note_off_c, 6, 81, 0
8, 13392, Note_on_c, 6, 82, 75
8, 13413, Note_off_c, 6, 82, 0
8, 13416, Note_on_c, 6, 84, 75
8, 13437, Note_off_c, 6, 84, 0
8, 13440, Note_on_c, 6, 82, 75
8, 13461, Note_off_c, 6, 82, 0
8, 13464, Note_on_c, 6, 84, 75
8, 13485, Note_off_c, 6, 84, 0
8, 13488, Note_on_c, 6, 82, 75
8, 13509, Note_off_c, 6, 82, 0
8, 13512, Note_on_c, 6, 84, 75
8, 13533, Note_off_c, 6, 84, 0
8, 13536, Note_on_c, 6, 81, 75
8, 13620, Note_off_c, 6, 81, 0
8, 13680, Note_on_c, 6, 75, 75
8, 13722, Note_off_c, 6, 75, 0
8, 13728, Note_on_c, 6, 70, 75
8, 13770, Note_off_c, 6, 70, 0
8, 13776, Note_on_c, 6, 74, 75
8, 13818, Note_off_c, 6, 74, 0
8, 13872, Note_on_c, 6, 74, 75
8, 13914, Note_off_c, 6, 74, 0
8, 13920, Note_on_c, 6, 69, 75
8, 13962, Note_off_c, 6, 69, 0
8, 13968, Note_on_c, 6, 72, 75
8, 14010, Note_off_c, 6, 72, 0
8, 14064, Note_on_c, 6, 72, 75
8, 14106, Note_off_c, 6, 72, 0
8, 14112, Note_on_c, 6, 67, 75
8, 14154, Note_off_c, 6, 67, 0
8, 14160, Note_on_c, 6, 70, 75
8, 14202, Note_off_c, 6, 70, 0
8, 14304, Note_on_c, 6, 72, 75
8, 14484, Note_off_c, 6, 72, 0
8, 14496, Note_on_c, 6, 74, 75
8, 14868, Note_off_c, 6, 74, 0
8, 14880, Note_on_c, 6, 76, 75
8, 15252, Note_off_c, 6, 76, 0
8, 15312, Note_on_c, 6, 66, 75
8, 15354, Note_off_c, 6, 66, 0
8, 15360, Note_on_c, 6, 69, 75
8, 15402, Note_off_c, 6, 69, 0
8, 15408, Note_on_c, 6, 72, 75
8, 15450, Note_off_c, 6, 72, 0
8, 15456, Note_on_c, 6, 75, 75
8, 15498, Note_off_c, 6, 75, 0
8, 15504, Note_on_c, 6, 69, 75
8, 15546, Note_off_c, 6, 69, 0
8, 15552, Note_on_c, 6, 72, 75
8, 15594, Note_off_c, 6, 72, 0
8, 15600, Note_on_c, 6, 75, 75
8, 15642, Note_off_c, 6, 75, 0
8, 15648, Note_on_c, 6, 78, 75
8, 15690, Note_off_c, 6, 78, 0
8, 15696, Note_on_c, 6, 81, 75
8, 15738, Note_off_c, 6, 81, 0
8, 15744, Note_on_c, 6, 74, 75
8, 15786, Note_off_c, 6, 74, 0
8, 15792, Note_on_c, 6, 78, 75
8, 15834, Note_off_c, 6, 78, 0
8, 15840, Note_on_c, 6, 79, 75
8, 15924, Note_off_c, 6, 79, 0
8, 15984, Note_on_c, 6, 74, 75
8, 16026, Note_off_c, 6, 74, 0
8, 16032, Note_on_c, 6, 76, 75
8, 16053, Note_off_c, 6, 76, 0
8, 16056, Note_on_c, 6, 77, 75
8, 16077, Note_off_c, 6, 77, 0
8, 16080, Note_on_c, 6, 76, 75
8, 16101, Note_off_c, 6, 76, 0
8, 16104, Note_on_c, 6, 74, 75
8, 16125, Note_off_c, 6, 74, 0
8, 16128, Note_on_c, 6, 74, 75
8, 16191, Note_off_c, 6, 74, 0
8, 16200, Note_on_c, 6, 72, 75
8, 16221, Note_off_c, 6, 72, 0
8, 16224, Note_on_c, 6, 72, 75
8, 16266, Note_off_c, 6, 72, 0
8, 16272, Note_on_c, 6, 60, 75
8, 16314, Note_off_c, 6, 60, 0
8, 16320, Note_on_c, 6, 64, 75
8, 16362, Note_off_c, 6, 64, 0
8, 16368, Note_on_c, 6, 67, 75
8, 16410, Note_off_c, 6, 67, 0
8, 16416, Note_on_c, 6, 72, 75
8, 16458, Note_off_c, 6, 72, 0
8, 16464, Note_on_c, 6, 67, 75
8, 16506, Note_off_c, 6, 67, 0
8, 16512, Note_on_c, 6, 69, 75
8, 16554, Note_off_c, 6, 69, 0
8, 16560, Note_on_c, 6, 67, 75
8, 16581, Note_off_c, 6, 67, 0
8, 16584, Note_on_c, 6, 65, 75
8, 16605, Note_off_c, 6, 65, 0
8, 16608, Note_on_c, 6, 64, 75
8, 16629, Note_off_c, 6, 64, 0
8, 16632, Note_on_c, 6, 62, 75
8, 16653, Note_off_c, 6, 62, 0
8, 16656, Note_on_c, 6, 60, 75
8, 16677, Note_off_c, 6, 60, 0
8, 16680, Note_on_c, 6, 62, 75
8, 16701, Note_off_c, 6, 62, 0
8, 16704, Note_on_c, 6, 64, 75
8, 16725, Note_off_c, 6, 64, 0
8, 16728, Note_on_c, 6, 66, 75
8, 16749, Note_off_c, 6, 66, 0
8, 16752, Note_on_c, 6, 64, 75
8, 16773, Note_off_c, 6, 64, 0
8, 16776, Note_on_c, 6, 66, 75
8, 16797, Note_off_c, 6, 66, 0
8, 16800, Note_on_c, 6, 67, 75
8, 16821, Note_off_c, 6, 67, 0
8, 16824, Note_on_c, 6, 69, 75
8, 16845, Note_off_c, 6, 69, 0
8, 16848, Note_on_c, 6, 71, 75
8, 16869, Note_off_c, 6, 71, 0
8, 16872, Note_on_c, 6, 67, 75
8, 16893, Note_off_c, 6, 67, 0
8, 16896, Note_on_c, 6, 72, 75
8, 16917, Note_off_c, 6, 72, 0
8, 16920, Note_on_c, 6, 71, 75
8, 16941, Note_off_c, 6, 71, 0
8, 16944, Note_on_c, 6, 72, 75
8, 16965, Note_off_c, 6, 72, 0
8, 16968, Note_on_c, 6, 74, 75
8, 16989, Note_off_c, 6, 74, 0
8, 16992, Note_on_c, 6, 71, 75
8, 17034, Note_off_c, 6, 71, 0
8, 17040, Note_on_c, 6, 62, 75
8, 17082, Note_off_c, 6, 62, 0
8, 17088, Note_on_c, 6, 67, 75
8, 17130, Note_off_c, 6, 67, 0
8, 17136, Note_on_c, 6, 71, 75
8, 17178, Note_off_c, 6, 71, 0
8, 17184, Note_on_c, 6, 74, 75
8, 17226, Note_off_c, 6, 74, 0
8, 17232, Note_on_c, 6, 76, 75
8, 17253, Note_off_c, 6, 76, 0
8, 17256, Note_on_c, 6, 77, 75
8, 17277, Note_off_c, 6, 77, 0
8, 17280, Note_on_c, 6, 76, 75
8, 17301, Note_off_c, 6, 76, 0
8, 17304, Note_on_c, 6, 74, 75
8, 17325, Note_off_c, 6, 74, 0
8, 17328, Note_on_c, 6, 72, 75
8, 17349, Note_off_c, 6, 72, 0
8, 17352, Note_on_c, 6, 71, 75
8, 17373, Note_off_c, 6, 71, 0
8, 17376, Note_on_c, 6, 72, 75
8, 17418, Note_off_c, 6, 72, 0
8, 17424, Note_on_c, 6, 64, 75
8, 17466, Note_off_c, 6, 64, 0
8, 17472, Note_on_c, 6, 69, 75
8, 17514, Note_off_c, 6, 69, 0
8, 17520, Note_on_c, 6, 73, 75
8, 17562, Note_off_c, 6, 73, 0
8, 17568, Note_on_c, 6, 76, 75
8, 17610, Note_off_c, 6, 76, 0
8, 17616, Note_on_c, 6, 77, 75
8, 17637, Note_off_c, 6, 77, 0
8, 17640, Note_on_c, 6, 79, 75
8, 17661, Note_off_c, 6, 79, 0
8, 17664, Note_on_c, 6, 77, 75
8, 17685, Note_off_c, 6, 77, 0
8, 17688, Note_on_c, 6, 76, 75
8, 17709, Note_off_c, 6, 76, 0
8, 17712, Note_on_c, 6, 74, 75
8, 17733, Note_off_c, 6, 74, 0
8, 17736, Note_on_c, 6, 73, 75
8, 17757, Note_off_c, 6, 73, 0
8, 17760, Note_on_c, 6, 74, 75
8, 17802, Note_off_c, 6, 74, 0
8, 17808, Note_on_c, 6, 76, 75
8, 17829, Note_off_c, 6, 76, 0
8, 17832, Note_on_c, 6, 77, 75
8, 17853, Note_off_c, 6, 77, 0
8, 17856, Note_on_c, 6, 76, 75
8, 17877, Note_off_c, 6, 76, 0
8, 17880, Note_on_c, 6, 74, 75
8, 17901, Note_off_c, 6, 74, 0
8, 17904, Note_on_c, 6, 72, 75
8, 17925, Note_off_c, 6, 72, 0
8, 17928, Note_on_c, 6, 71, 75
8, 17949, Note_off_c, 6, 71, 0
8, 17952, Note_on_c, 6, 72, 75
8, 18015, Note_off_c, 6, 72, 0
8, 18024, Note_on_c, 6, 74, 75
8, 18045, Note_off_c, 6, 74, 0
8, 18048, Note_on_c, 6, 71, 75
8, 18111, Note_off_c, 6, 71, 0
8, 18120, Note_on_c, 6, 69, 75
8, 18141, Note_off_c, 6, 69, 0
8, 18144, Note_on_c, 6, 69, 75
8, 18228, Note_off_c, 6, 69, 0
8, 18960, Note_on_c, 6, 81, 75
8, 18981, Note_off_c, 6, 81, 0
8, 18984, Note_on_c, 6, 79, 75
8, 19005, Note_off_c, 6, 79, 0
8, 19008, Note_on_c, 6, 81, 75
8, 19029, Note_off_c, 6, 81, 0
8, 19032, Note_on_c, 6, 82, 75
8, 19053, Note_off_c, 6, 82, 0
8, 19056, Note_on_c, 6, 81, 75
8, 19077, Note_off_c, 6, 81, 0
8, 19080, Note_on_c, 6, 79, 75
8, 19101, Note_off_c, 6, 79, 0
8, 19104, Note_on_c, 6, 78, 75
8, 19125, Note_off_c, 6, 78, 0
8, 19128, Note_on_c, 6, 79, 75
8, 19149, Note_off_c, 6, 79, 0
8, 19152, Note_on_c, 6, 81, 75
8, 19173, Note_off_c, 6, 81, 0
8, 19176, Note_on_c, 6, 82, 75
8, 19197, Note_off_c, 6, 82, 0
8, 19200, Note_on_c, 6, 84, 75
8, 19221, Note_off_c, 6, 84, 0
8, 19224, Note_on_c, 6, 82, 75
8, 19245, Note_off_c, 6, 82, 0
8, 19248, Note_on_c, 6, 84, 75
8, 19269, Note_off_c, 6, 84, 0
8, 19272, Note_on_c, 6, 81, 75
8, 19293, Note_off_c, 6, 81, 0
8, 19296, Note_on_c, 6, 82, 75
8, 19317, Note_off_c, 6, 82, 0
8, 19320, Note_on_c, 6, 81, 75
8, 19341, Note_off_c, 6, 81, 0
8, 19344, Note_on_c, 6, 82, 75
8, 19365, Note_off_c, 6, 82, 0
8, 19368, Note_on_c, 6, 84, 75
8, 19389, Note_off_c, 6, 84, 0
8, 19392, Note_on_c, 6, 82, 75
8, 19413, Note_off_c, 6, 82, 0
8, 19416, Note_on_c, 6, 81, 75
8, 19437, Note_off_c, 6, 81, 0
8, 19440, Note_on_c, 6, 79, 75
8, 19461, Note_off_c, 6, 79, 0
8, 19464, Note_on_c, 6, 78, 75
8, 19485, Note_off_c, 6, 78, 0
8, 19488, Note_on_c, 6, 79, 75
8, 19551, Note_off_c, 6, 79, 0
8, 19560, Note_on_c, 6, 81, 75
8, 19581, Note_off_c, 6, 81, 0
8, 19584, Note_on_c, 6, 78, 75
8, 19647, Note_off_c, 6, 78, 0
8, 19656, Note_on_c, 6, 79, 75
8, 19677, Note_off_c, 6, 79, 0
8, 19680, Note_on_c, 6, 79, 75
8, 19722, Note_off_c, 6, 79, 0
8, 19728, Note_on_c, 6, 67, 75
8, 19770, Note_off_c, 6, 67, 0
8, 19776, Note_on_c, 6, 70, 75
8, 19818, Note_off_c, 6, 70, 0
8, 19824, Note_on_c, 6, 74, 75
8, 19866, Note_off_c, 6, 74, 0
8, 19872, Note_on_c, 6, 79, 75
8, 19914, Note_off_c, 6, 79, 0
8, 19920, Note_on_c, 6, 74, 75
8, 19962, Note_off_c, 6, 74, 0
8, 19968, Note_on_c, 6, 75, 75
8, 20010, Note_off_c, 6, 75, 0
8, 20016, Note_on_c, 6, 74, 75
8, 20037, Note_off_c, 6, 74, 0
8, 20040, Note_on_c, 6, 72, 75
8, 20061, Note_off_c, 6, 72, 0
8, 20064, Note_on_c, 6, 70, 75
8, 20106, Note_off_c, 6, 70, 0
8, 20496, Note_on_c, 6, 79, 75
8, 20517, Note_off_c, 6, 79, 0
8, 20520, Note_on_c, 6, 77, 75
8, 20541, Note_off_c, 6, 77, 0
8, 20544, Note_on_c, 6, 79, 75
8, 20565, Note_off_c, 6, 79, 0
8, 20568, Note_on_c, 6, 81, 75
8, 20589, Note_off_c, 6, 81, 0
8, 20592, Note_on_c, 6, 79, 75
8, 20613, Note_off_c, 6, 79, 0
8, 20616, Note_on_c, 6, 77, 75
8, 20637, Note_off_c, 6, 77, 0
8, 20640, Note_on_c, 6, 76, 75
8, 20682, Note_off_c, 6, 76, 0
8, 20688, Note_on_c, 6, 77, 75
8, 20709, Note_off_c, 6, 77, 0
8, 20712, Note_on_c, 6, 76, 75
8, 20733, Note_off_c, 6, 76, 0
8, 20736, Note_on_c, 6, 77, 75
8, 20757, Note_off_c, 6, 77, 0
8, 20760, Note_on_c, 6, 79, 75
8, 20781, Note_off_c, 6, 79, 0
8, 20784, Note_on_c, 6, 77, 75
8, 20805, Note_off_c, 6, 77, 0
8, 20808, Note_on_c, 6, 76, 75
8, 20829, Note_off_c, 6, 76, 0
8, 20832, Note_on_c, 6, 74, 75
8, 20874, Note_off_c, 6, 74, 0
8, 21264, Note_on_c, 6, 84, 75
8, 21285, Note_off_c, 6, 84, 0
8, 21288, Note_on_c, 6, 86, 75
8, 21309, Note_off_c, 6, 86, 0
8, 21312, Note_on_c, 6, 84, 75
8, 21333, Note_off_c, 6, 84, 0
8, 21336, Note_on_c, 6, 82, 75
8, 21357, Note_off_c, 6, 82, 0
8, 21360, Note_on_c, 6, 81, 75
8, 21381, Note_off_c, 6, 81, 0
8, 21384, Note_on_c, 6, 79, 75
8, 21405, Note_off_c, 6, 79, 0
8, 21408, Note_on_c, 6, 77, 75
8, 21471, Note_off_c, 6, 77, 0
8, 21480, Note_on_c, 6, 79, 75
8, 21501, Note_off_c, 6, 79, 0
8, 21504, Note_on_c, 6, 76, 75
8, 21567, Note_off_c, 6, 76, 0
8, 21576, Note_on_c, 6, 77, 75
8, 21597, Note_off_c, 6, 77, 0
8, 21600, Note_on_c, 6, 77, 75
8, 21642, Note_off_c, 6, 77, 0
8, 21648, Note_on_c, 6, 65, 75
8, 21690, Note_off_c, 6, 65, 0
8, 21696, Note_on_c, 6, 69, 75
8, 21738, Note_off_c, 6, 69, 0
8, 21744, Note_on_c, 6, 72, 75
8, 21786, Note_off_c, 6, 72, 0
8, 21792, Note_on_c, 6, 77, 75
8, 21834, Note_off_c, 6, 77, 0
8, 21840, Note_on_c, 6, 72, 75
8, 21882, Note_off_c, 6, 72, 0
8, 21888, Note_on_c, 6, 74, 75
8, 21930, Note_off_c, 6, 74, 0
8, 21936, Note_on_c, 6, 72, 75
8, 21957, Note_off_c, 6, 72, 0
8, 21960, Note_on_c, 6, 70, 75
8, 21981, Note_off_c, 6, 70, 0
8, 21984, Note_on_c, 6, 69, 75
8, 22068, Note_off_c, 6, 69, 0
8, 22128, Note_on_c, 6, 72, 75
8, 22170, Note_off_c, 6, 72, 0
8, 22176, Note_on_c, 6, 74, 75
8, 22218, Note_off_c, 6, 74, 0
8, 22224, Note_on_c, 6, 69, 75
8, 22266, Note_off_c, 6, 69, 0
8, 22272, Note_on_c, 6, 70, 75
8, 22314, Note_off_c, 6, 70, 0
8, 22320, Note_on_c, 6, 72, 75
8, 22362, Note_off_c, 6, 72, 0
8, 22368, Note_on_c, 6, 65, 75
8, 22410, Note_off_c, 6, 65, 0
8, 22416, Note_on_c, 6, 77, 75
8, 22437, Note_off_c, 6, 77, 0
8, 22440, Note_on_c, 6, 79, 75
8, 22461, Note_off_c, 6, 79, 0
8, 22464, Note_on_c, 6, 77, 75
8, 22485, Note_off_c, 6, 77, 0
8, 22488, Note_on_c, 6, 79, 75
8, 22509, Note_off_c, 6, 79, 0
8, 22512, Note_on_c, 6, 77, 75
8, 22533, Note_off_c, 6, 77, 0
8, 22536, Note_on_c, 6, 79, 75
8, 22557, Note_off_c, 6, 79, 0
8, 22560, Note_on_c, 6, 77, 75
8, 22644, Note_off_c, 6, 77, 0
8, 22800, Note_on_c, 6, 84, 75
8, 22821, Note_off_c, 6, 84, 0
8, 22824, Note_on_c, 6, 83, 75
8, 22845, Note_off_c, 6, 83, 0
8, 22848, Note_on_c, 6, 84, 75
8, 22869, Note_off_c, 6, 84, 0
8, 22872, Note_on_c, 6, 83, 75
8, 22893, Note_off_c, 6, 83, 0
8, 22896, Note_on_c, 6, 84, 75
8, 22917, Note_off_c, 6, 84, 0
8, 22920, Note_on_c, 6, 83, 75
8, 22941, Note_off_c, 6, 83, 0
8, 22944, Note_on_c, 6, 84, 75
8, 22986, Note_off_c, 6, 84, 0
8, 22992, Note_on_c, 6, 79, 75
8, 23034, Note_off_c, 6, 79, 0
8, 23040, Note_on_c, 6, 81, 75
8, 23082, Note_off_c, 6, 81, 0
8, 23088, Note_on_c, 6, 79, 75
8, 23109, Note_off_c, 6, 79, 0
8, 23112, Note_on_c, 6, 77, 75
8, 23133, Note_off_c, 6, 77, 0
8, 23136, Note_on_c, 6, 76, 75
8, 23157, Note_off_c, 6, 76, 0
8, 23160, Note_on_c, 6, 74, 75
8, 23181, Note_off_c, 6, 74, 0
8, 23184, Note_on_c, 6, 72, 75
8, 23205, Note_off_c, 6, 72, 0
8, 23208, Note_on_c, 6, 74, 75
8, 23229, Note_off_c, 6, 74, 0
8, 23232, Note_on_c, 6, 76, 75
8, 23253, Note_off_c, 6, 76, 0
8, 23256, Note_on_c, 6, 77, 75
8, 23277, Note_off_c, 6, 77, 0
8, 23280, Note_on_c, 6, 79, 75
8, 23370, Note_off_c, 6, 79, 0
8, 23376, Note_on_c, 6, 77, 75
8, 23397, Note_off_c, 6, 77, 0
8, 23400, Note_on_c, 6, 76, 75
8, 23421, Note_off_c, 6, 76, 0
8, 23424, Note_on_c, 6, 77, 75
8, 23562, Note_off_c, 6, 77, 0
8, 23568, Note_on_c, 6, 76, 75
8, 23589, Note_off_c, 6, 76, 0
8, 23592, Note_on_c, 6, 74, 75
8, 23613, Note_off_c, 6, 74, 0
8, 23616, Note_on_c, 6, 76, 75
8, 23733, Note_off_c, 6, 76, 0
8, 23736, Note_on_c, 6, 74, 75
8, 23757, Note_off_c, 6, 74, 0
8, 23760, Note_on_c, 6, 76, 75
8, 23781, Note_off_c, 6, 76, 0
8, 23784, Note_on_c, 6, 77, 75
8, 23805, Note_off_c, 6, 77, 0
8, 23808, Note_on_c, 6, 74, 75
8, 23871, Note_off_c, 6, 74, 0
8, 23880, Note_on_c, 6, 72, 75
8, 23901, Note_off_c, 6, 72, 0
8, 23904, Note_on_c, 6, 72, 75
8, 23988, Note_off_c, 6, 72, 0
8, 24336, Note_on_c, 6, 81, 75
8, 24357, Note_off_c, 6, 81, 0
8, 24360, Note_on_c, 6, 79, 75
8, 24381, Note_off_c, 6, 79, 0
8, 24384, Note_on_c, 6, 81, 75
8, 24405, Note_off_c, 6, 81, 0
8, 24408, Note_on_c, 6, 79, 75
8, 24429, Note_off_c, 6, 79, 0
8, 24432, Note_on_c, 6, 81, 75
8, 24453, Note_off_c, 6, 81, 0
8, 24456, Note_on_c, 6, 82, 75
8, 24477, Note_off_c, 6, 82, 0
8, 24480, Note_on_c, 6, 84, 75
8, 24501, Note_off_c, 6, 84, 0
8, 24504, Note_on_c, 6, 82, 75
8, 24525, Note_off_c, 6, 82, 0
8, 24528, Note_on_c, 6, 84, 75
8, 24549, Note_off_c, 6, 84, 0
8, 24552, Note_on_c, 6, 86, 75
8, 24573, Note_off_c, 6, 86, 0
8, 24576, Note_on_c, 6, 84, 75
8, 24597, Note_off_c, 6, 84, 0
8, 24600, Note_on_c, 6, 86, 75
8, 24621, Note_off_c, 6, 86, 0
8, 24624, Note_on_c, 6, 84, 75
8, 24645, Note_off_c, 6, 84, 0
8, 24648, Note_on_c, 6, 86, 75
8, 24669, Note_off_c, 6, 86, 0
8, 24672, Note_on_c, 6, 82, 75
8, 24714, Note_off_c, 6, 82, 0
8, 24720, Note_on_c, 6, 77, 75
8, 24762, Note_off_c, 6, 77, 0
8, 24768, Note_on_c, 6, 80, 75
8, 24810, Note_off_c, 6, 80, 0
8, 24816, Note_on_c, 6, 86, 75
8, 24858, Note_off_c, 6, 86, 0
8, 24912, Note_on_c, 6, 75, 75
8, 24954, Note_off_c, 6, 75, 0
8, 24960, Note_on_c, 6, 79, 75
8, 25002, Note_off_c, 6, 79, 0
8, 25008, Note_on_c, 6, 84, 75
8, 25050, Note_off_c, 6, 84, 0
8, 25104, Note_on_c, 6, 74, 75
8, 25146, Note_off_c, 6, 74, 0
8, 25152, Note_on_c, 6, 77, 75
8, 25194, Note_off_c, 6, 77, 0
8, 25200, Note_on_c, 6, 82, 75
8, 25242, Note_off_c, 6, 82, 0
8, 25344, Note_on_c, 6, 72, 75
8, 25482, Note_off_c, 6, 72, 0
8, 25488, Note_on_c, 6, 62, 75
8, 25530, Note_off_c, 6, 62, 0
8, 25536, Note_on_c, 6, 65, 75
8, 25578, Note_off_c, 6, 65, 0
8, 25584, Note_on_c, 6, 70, 75
8, 25626, Note_off_c, 6, 70, 0
8, 25632, Note_on_c, 6, 74, 75
8, 25866, Note_off_c, 6, 74, 0
8, 25872, Note_on_c, 6, 64, 75
8, 25914, Note_off_c, 6, 64, 0
8, 25920, Note_on_c, 6, 67, 75
8, 25962, Note_off_c, 6, 67, 0
8, 25968, Note_on_c, 6, 70, 75
8, 26010, Note_off_c, 6, 70, 0
8, 26016, Note_on_c, 6, 76, 75
8, 26250, Note_off_c, 6, 76, 0
8, 26256, Note_on_c, 6, 65, 75
8, 26298, Note_off_c, 6, 65, 0
8, 26304, Note_on_c, 6, 69, 75
8, 26346, Note_off_c, 6, 69, 0
8, 26352, Note_on_c, 6, 74, 75
8, 26394, Note_off_c, 6, 74, 0
8, 26400, Note_on_c, 6, 77, 75
8, 26517, Note_off_c, 6, 77, 0
8, 26520, Note_on_c, 6, 76, 75
8, 26541, Note_off_c, 6, 76, 0
8, 26544, Note_on_c, 6, 77, 75
8, 26565, Note_off_c, 6, 77, 0
8, 26568, Note_on_c, 6, 76, 75
8, 26589, Note_off_c, 6, 76, 0
8, 26592, Note_on_c, 6, 77, 75
8, 26709, Note_off_c, 6, 77, 0
8, 26712, Note_on_c, 6, 76, 75
8, 26733, Note_off_c, 6, 76, 0
8, 26736, Note_on_c, 6, 77, 75
8, 26757, Note_off_c, 6, 77, 0
8, 26760, Note_on_c, 6, 76, 75
8, 26781, Note_off_c, 6, 76, 0
8, 26784, Note_on_c, 6, 77, 75
8, 26868, Note_off_c, 6, 77, 0
8, 26928, Note_on_c, 6, 74, 75
8, 26970, Note_off_c, 6, 74, 0
8, 26976, Note_on_c, 6, 76, 75
8, 27018, Note_off_c, 6, 76, 0
8, 27024, Note_on_c, 6, 79, 75
8, 27066, Note_off_c, 6, 79, 0
8, 27072, Note_on_c, 6, 72, 75
8, 27114, Note_off_c, 6, 72, 0
8, 27120, Note_on_c, 6, 76, 75
8, 27162, Note_off_c, 6, 76, 0
8, 27168, Note_on_c, 6, 81, 75
8, 27189, Note_off_c, 6, 81, 0
8, 27192, Note_on_c, 6, 79, 75
8, 27213, Note_off_c, 6, 79, 0
8, 27216, Note_on_c, 6, 77, 75
8, 27237, Note_off_c, 6, 77, 0
8, 27240, Note_on_c, 6, 79, 75
8, 27261, Note_off_c, 6, 79, 0
8, 27264, Note_on_c, 6, 76, 75
8, 27327, Note_off_c, 6, 76, 0
8, 27336, Note_on_c, 6, 77, 75
8, 27357, Note_off_c, 6, 77, 0
8, 27360, Note_on_c, 6, 77, 75
8, 27402, Note_off_c, 6, 77, 0
8, 27408, Note_on_c, 6, 65, 75
8, 27450, Note_off_c, 6, 65, 0
8, 27456, Note_on_c, 6, 69, 75
8, 27498, Note_off_c, 6, 69, 0
8, 27504, Note_on_c, 6, 72, 75
8, 27546, Note_off_c, 6, 72, 0
8, 27552, Note_on_c, 6, 77, 75
8, 27594, Note_off_c, 6, 77, 0
8, 27600, Note_on_c, 6, 72, 75
8, 27642, Note_off_c, 6, 72, 0
8, 27648, Note_on_c, 6, 74, 75
8, 27690, Note_off_c, 6, 74, 0
8, 27696, Note_on_c, 6, 72, 75
8, 27717, Note_off_c, 6, 72, 0
8, 27720, Note_on_c, 6, 70, 75
8, 27741, Note_off_c, 6, 70, 0
8, 27744, Note_on_c, 6, 69, 75
8, 27765, Note_off_c, 6, 69, 0
8, 27768, Note_on_c, 6, 67, 75
8, 27789, Note_off_c, 6, 67, 0
8, 27792, Note_on_c, 6, 65, 75
8, 27813, Note_off_c, 6, 65, 0
8, 27816, Note_on_c, 6, 67, 75
8, 27837, Note_off_c, 6, 67, 0
8, 27840, Note_on_c, 6, 69, 75
8, 27861, Note_off_c, 6, 69, 0
8, 27864, Note_on_c, 6, 71, 75
8, 27885, Note_off_c, 6, 71, 0
8, 27888, Note_on_c, 6, 69, 75
8, 27909, Note_off_c, 6, 69, 0
8, 27912, Note_on_c, 6, 71, 75
8, 27933, Note_off_c, 6, 71, 0
8, 27936, Note_on_c, 6, 72, 75
8, 27957, Note_off_c, 6, 72, 0
8, 27960, Note_on_c, 6, 74, 75
8, 27981, Note_off_c, 6, 74, 0
8, 27984, Note_on_c, 6, 76, 75
8, 28005, Note_off_c, 6, 76, 0
8, 28008, Note_on_c, 6, 72, 75
8, 28029, Note_off_c, 6, 72, 0
8, 28032, Note_on_c, 6, 77, 75
8, 28053, Note_off_c, 6, 77, 0
8, 28056, Note_on_c, 6, 76, 75
8, 28077, Note_off_c, 6, 76, 0
8, 28080, Note_on_c, 6, 77, 75
8, 28101, Note_off_c, 6, 77, 0
8, 28104, Note_on_c, 6, 79, 75
8, 28125, Note_off_c, 6, 79, 0
8, 28128, Note_on_c, 6, 76, 75
8, 28149, Note_off_c, 6, 76, 0
8, 28152, Note_on_c, 6, 77, 75
8, 28173, Note_off_c, 6, 77, 0
8, 28176, Note_on_c, 6, 79, 75
8, 28197, Note_off_c, 6, 79, 0
8, 28200, Note_on_c, 6, 77, 75
8, 28221, Note_off_c, 6, 77, 0
8, 28224, Note_on_c, 6, 79, 75
8, 28245, Note_off_c, 6, 79, 0
8, 28248, Note_on_c, 6, 77, 75
8, 28269, Note_off_c, 6, 77, 0
8, 28272, Note_on_c, 6, 79, 75
8, 28293, Note_off_c, 6, 79, 0
8, 28296, Note_on_c, 6, 77, 75
8, 28317, Note_off_c, 6, 77, 0
8, 28320, Note_on_c, 6, 79, 75
8, 28341, Note_off_c, 6, 79, 0
8, 28344, Note_on_c, 6, 72, 75
8, 28365, Note_off_c, 6, 72, 0
8, 28368, Note_on_c, 6, 77, 75
8, 28389, Note_off_c, 6, 77, 0
8, 28392, Note_on_c, 6, 76, 75
8, 28413, Note_off_c, 6, 76, 0
8, 28416, Note_on_c, 6, 77, 75
8, 28437, Note_off_c, 6, 77, 0
8, 28440, Note_on_c, 6, 76, 75
8, 28461, Note_off_c, 6, 76, 0
8, 28464, Note_on_c, 6, 77, 75
8, 28485, Note_off_c, 6, 77, 0
8, 28488, Note_on_c, 6, 76, 75
8, 28509, Note_off_c, 6, 76, 0
8, 28512, Note_on_c, 6, 77, 75
8, 28533, Note_off_c, 6, 77, 0
8, 28536, Note_on_c, 6, 71, 75
8, 28557, Note_off_c, 6, 71, 0
8, 28560, Note_on_c, 6, 76, 75
8, 28581, Note_off_c, 6, 76, 0
8, 28584, Note_on_c, 6, 74, 75
8, 28605, Note_off_c, 6, 74, 0
8, 28608, Note_on_c, 6, 76, 75
8, 28629, Note_off_c, 6, 76, 0
8, 28632, Note_on_c, 6, 74, 75
8, 28653, Note_off_c, 6, 74, 0
8, 28656, Note_on_c, 6, 76, 75
8, 28677, Note_off_c, 6, 76, 0
8, 28680, Note_on_c, 6, 74, 75
8, 28701, Note_off_c, 6, 74, 0
8, 28704, Note_on_c, 6, 76, 75
8, 28725, Note_off_c, 6, 76, 0
8, 28728, Note_on_c, 6, 69, 75
8, 28749, Note_off_c, 6, 69, 0
8, 28752, Note_on_c, 6, 81, 75
8, 28773, Note_off_c, 6, 81, 0
8, 28776, Note_on_c, 6, 79, 75
8, 28797, Note_off_c, 6, 79, 0
8, 28800, Note_on_c, 6, 77, 75
8, 28821, Note_off_c, 6, 77, 0
8, 28824, Note_on_c, 6, 76, 75
8, 28845, Note_off_c, 6, 76, 0
8, 28848, Note_on_c, 6, 74, 75
8, 28869, Note_off_c, 6, 74, 0
8, 28872, Note_on_c, 6, 72, 75
8, 28893, Note_off_c, 6, 72, 0
8, 28896, Note_on_c, 6, 71, 75
8, 28917, Note_off_c, 6, 71, 0
8, 28920, Note_on_c, 6, 69, 75
8, 28941, Note_off_c, 6, 69, 0
8, 28944, Note_on_c, 6, 67, 75
8, 28965, Note_off_c, 6, 67, 0
8, 28968, Note_on_c, 6, 69, 75
8, 28989, Note_off_c, 6, 69, 0
8, 28992, Note_on_c, 6, 71, 75
8, 29013, Note_off_c, 6, 71, 0
8, 29016, Note_on_c, 6, 72, 75
8, 29037, Note_off_c, 6, 72, 0
8, 29040, Note_on_c, 6, 74, 75
8, 29061, Note_off_c, 6, 74, 0
8, 29064, Note_on_c, 6, 76, 75
8, 29085, Note_off_c, 6, 76, 0
8, 29088, Note_on_c, 6, 77, 75
8, 29151, Note_off_c, 6, 77, 0
8, 29160, Note_on_c, 6, 79, 75
8, 29181, Note_off_c, 6, 79, 0
8, 29184, Note_on_c, 6, 74, 75
8, 29247, Note_off_c, 6, 74, 0
8, 29256, Note_on_c, 6, 72, 75
8, 29277, Note_off_c, 6, 72, 0
8, 29280, Note_on_c, 6, 72, 75
8, 29322, Note_off_c, 6, 72, 0
8, 29520, Note_on_c, 6, 74, 75
8, 29541, Note_off_c, 6, 74, 0
8, 29544, Note_on_c, 6, 75, 75
8, 29565, Note_off_c, 6, 75, 0
8, 29568, Note_on_c, 6, 74, 75
8, 29589, Note_off_c, 6, 74, 0
8, 29592, Note_on_c, 6, 72, 75
8, 29613, Note_off_c, 6, 72, 0
8, 29616, Note_on_c, 6, 70, 75
8, 29637, Note_off_c, 6, 70, 0
8, 29640, Note_on_c, 6, 69, 75
8, 29661, Note_off_c, 6, 69, 0
8, 29664, Note_on_c, 6, 70, 75
8, 29706, Note_off_c, 6, 70, 0
8, 29712, Note_on_c, 6, 74, 75
8, 29754, Note_off_c, 6, 74, 0
8, 29760, Note_on_c, 6, 76, 75
8, 29802, Note_off_c, 6, 76, 0
8, 29808, Note_on_c, 6, 77, 75
8, 29850, Note_off_c, 6, 77, 0
8, 29856, Note_on_c, 6, 79, 75
8, 29898, Note_off_c, 6, 79, 0
8, 29904, Note_on_c, 6, 81, 75
8, 29925, Note_off_c, 6, 81, 0
8, 29928, Note_on_c, 6, 82, 75
8, 29949, Note_off_c, 6, 82, 0
8, 29952, Note_on_c, 6, 81, 75
8, 29973, Note_off_c, 6, 81, 0
8, 29976, Note_on_c, 6, 79, 75
8, 29997, Note_off_c, 6, 79, 0
8, 30000, Note_on_c, 6, 77, 75
8, 30021, Note_off_c, 6, 77, 0
8, 30024, Note_on_c, 6, 76, 75
8, 30045, Note_off_c, 6, 76, 0
8, 30048, Note_on_c, 6, 77, 75
8, 30069, Note_off_c, 6, 77, 0
8, 30072, Note_on_c, 6, 74, 75
8, 30093, Note_off_c, 6, 74, 0
8, 30096, Note_on_c, 6, 82, 75
8, 30117, Note_off_c, 6, 82, 0
8, 30120, Note_on_c, 6, 84, 75
8, 30141, Note_off_c, 6, 84, 0
8, 30144, Note_on_c, 6, 82, 75
8, 30165, Note_off_c, 6, 82, 0
8, 30168, Note_on_c, 6, 81, 75
8, 30189, Note_off_c, 6, 81, 0
8, 30192, Note_on_c, 6, 79, 75
8, 30213, Note_off_c, 6, 79, 0
8, 30216, Note_on_c, 6, 77, 75
8, 30237, Note_off_c, 6, 77, 0
8, 30240, Note_on_c, 6, 76, 75
8, 30282, Note_off_c, 6, 76, 0
8, 30288, Note_on_c, 6, 60, 75
8, 30330, Note_off_c, 6, 60, 0
8, 30336, Note_on_c, 6, 64, 75
8, 30378, Note_off_c, 6, 64, 0
8, 30384, Note_on_c, 6, 67, 75
8, 30426, Note_off_c, 6, 67, 0
8, 30432, Note_on_c, 6, 70, 75
8, 30474, Note_off_c, 6, 70, 0
8, 30480, Note_on_c, 6, 72, 75
8, 30501, Note_off_c, 6, 72, 0
8, 30504, Note_on_c, 6, 74, 75
8, 30525, Note_off_c, 6, 74, 0
8, 30528, Note_on_c, 6, 72, 75
8, 30549, Note_off_c, 6, 72, 0
8, 30552, Note_on_c, 6, 70, 75
8, 30573, Note_off_c, 6, 70, 0
8, 30576, Note_on_c, 6, 69, 75
8, 30597, Note_off_c, 6, 69, 0
8, 30600, Note_on_c, 6, 67, 75
8, 30621, Note_off_c, 6, 67, 0
8, 30624, Note_on_c, 6, 69, 75
8, 30666, Note_off_c, 6, 69, 0
8, 30672, Note_on_c, 6, 65, 75
8, 30714, Note_off_c, 6, 65, 0
8, 30720, Note_on_c, 6, 69, 75
8, 30762, Note_off_c, 6, 69, 0
8, 30768, Note_on_c, 6, 72, 75
8, 30810, Note_off_c, 6, 72, 0
8, 30816, Note_on_c, 6, 75, 75
8, 30858, Note_off_c, 6, 75, 0
8, 30864, Note_on_c, 6, 77, 75
8, 30885, Note_off_c, 6, 77, 0
8, 30888, Note_on_c, 6, 79, 75
8, 30909, Note_off_c, 6, 79, 0
8, 30912, Note_on_c, 6, 77, 75
8, 30933, Note_off_c, 6, 77, 0
8, 30936, Note_on_c, 6, 75, 75
8, 30957, Note_off_c, 6, 75, 0
8, 30960, Note_on_c, 6, 74, 75
8, 30981, Note_off_c, 6, 74, 0
8, 30984, Note_on_c, 6, 72, 75
8, 31005, Note_off_c, 6, 72, 0
8, 31008, Note_on_c, 6, 74, 75
8, 31050, Note_off_c, 6, 74, 0
8, 31056, Note_on_c, 6, 79, 75
8, 31077, Note_off_c, 6, 79, 0
8, 31080, Note_on_c, 6, 81, 75
8, 31101, Note_off_c, 6, 81, 0
8, 31104, Note_on_c, 6, 79, 75
8, 31125, Note_off_c, 6, 79, 0
8, 31128, Note_on_c, 6, 77, 75
8, 31149, Note_off_c, 6, 77, 0
8, 31152, Note_on_c, 6, 76, 75
8, 31173, Note_off_c, 6, 76, 0
8, 31176, Note_on_c, 6, 74, 75
8, 31197, Note_off_c, 6, 74, 0
8, 31200, Note_on_c, 6, 72, 75
8, 31263, Note_off_c, 6, 72, 0
8, 31272, Note_on_c, 6, 74, 75
8, 31293, Note_off_c, 6, 74, 0
8, 31296, Note_on_c, 6, 76, 75
8, 31317, Note_off_c, 6, 76, 0
8, 31320, Note_on_c, 6, 77, 75
8, 31341, Note_off_c, 6, 77, 0
8, 31344, Note_on_c, 6, 79, 75
8, 31365, Note_off_c, 6, 79, 0
8, 31368, Note_on_c, 6, 81, 75
8, 31389, Note_off_c, 6, 81, 0
8, 31392, Note_on_c, 6, 82, 75
8, 31413, Note_off_c, 6, 82, 0
8, 31416, Note_on_c, 6, 84, 75
8, 31426, Note_off_c, 6, 84, 0
8, 31428, Note_on_c, 6, 82, 75
8, 31438, Note_off_c, 6, 82, 0
8, 31440, Note_on_c, 6, 81, 75
8, 31450, Note_off_c, 6, 81, 0
8, 31452, Note_on_c, 6, 82, 75
8, 31462, Note_off_c, 6, 82, 0
8, 31464, Note_on_c, 6, 84, 75
8, 31485, Note_off_c, 6, 84, 0
8, 31488, Note_on_c, 6, 79, 75
8, 31551, Note_off_c, 6, 79, 0
8, 31560, Note_on_c, 6, 77, 75
8, 31581, Note_off_c, 6, 77, 0
8, 31584, Note_on_c, 6, 77, 75
8, 31605, Note_off_c, 6, 77, 0
8, 31608, Note_on_c, 6, 76, 75
8, 31629, Note_off_c, 6, 76, 0
8, 31632, Note_on_c, 6, 77, 75
8, 31653, Note_off_c, 6, 77, 0
8, 31656, Note_on_c, 6, 76, 75
8, 31677, Note_off_c, 6, 76, 0
8, 31680, Note_on_c, 6, 74, 75
8, 31701, Note_off_c, 6, 74, 0
8, 31704, Note_on_c, 6, 72, 75
8, 31725, Note_off_c, 6, 72, 0
8, 31728, Note_on_c, 6, 74, 75
8, 31749, Note_off_c, 6, 74, 0
8, 31752, Note_on_c, 6, 72, 75
8, 31773, Note_off_c, 6, 72, 0
8, 31776, Note_on_c, 6, 70, 75
8, 31797, Note_off_c, 6, 70, 0
8, 31800, Note_on_c, 6, 72, 75
8, 31810, Note_off_c, 6, 72, 0
8, 31812, Note_on_c, 6, 70, 75
8, 31822, Note_off_c, 6, 70, 0
8, 31824, Note_on_c, 6, 69, 75
8, 31834, Note_off_c, 6, 69, 0
8, 31836, Note_on_c, 6, 70, 75
8, 31846, Note_off_c, 6, 70, 0
8, 31848, Note_on_c, 6, 72, 75
8, 31869, Note_off_c, 6, 72, 0
8, 31872, Note_on_c, 6, 67, 75
8, 31935, Note_off_c, 6, 67, 0
8, 31944, Note_on_c, 6, 65, 75
8, 31965, Note_off_c, 6, 65, 0
8, 31968, Note_on_c, 6, 65, 75
8, 32010, Note_off_c, 6, 65, 0
8, 32016, Note_on_c, 6, 65, 75
8, 32058, Note_off_c, 6, 65, 0
8, 32064, Note_on_c, 6, 69, 75
8, 32106, Note_off_c, 6, 69, 0
8, 32112, Note_on_c, 6, 72, 75
8, 32154, Note_off_c, 6, 72, 0
8, 32160, Note_on_c, 6, 77, 75
8, 32340, Note_off_c, 6, 77, 0
8, 32340, End_track
9, 0, Start_track
9, 0, Title_t, "Violin I"
9, 0, Control_c, 7, 0, 0
9, 0, Program_c, 7, 40
9, 0, Time_signature, 4, 2, 96, 8
9, 0, Tempo, 681818
9, 144, Note_on_c, 7, 65, 75
9, 186, Note_off_c, 7, 65, 0
9, 192, Note_on_c, 7, 69, 75
9, 234, Note_off_c, 7, 69, 0
9, 240, Note_on_c, 7, 72, 75
9, 282, Note_off_c, 7, 72, 0
9, 288, Note_on_c, 7, 77, 75
9, 330, Note_off_c, 7, 77, 0
9, 336, Note_on_c, 7, 72, 75
9, 378, Note_off_c, 7, 72, 0
9, 384, Note_on_c, 7, 74, 75
9, 426, Note_off_c, 7, 74, 0
9, 432, Note_on_c, 7, 72, 75
9, 453, Note_off_c, 7, 72, 0
9, 456, Note_on_c, 7, 70, 75
9, 477, Note_off_c, 7, 70, 0
9, 480, Note_on_c, 7, 69, 75
9, 501, Note_off_c, 7, 69, 0
9, 504, Note_on_c, 7, 67, 75
9, 525, Note_off_c, 7, 67, 0
9, 528, Note_on_c, 7, 65, 75
9, 549, Note_off_c, 7, 65, 0
9, 552, Note_on_c, 7, 67, 75
9, 573, Note_off_c, 7, 67, 0
9, 576, Note_on_c, 7, 69, 75
9, 597, Note_off_c, 7, 69, 0
9, 600, Note_on_c, 7, 71, 75
9, 621, Note_off_c, 7, 71, 0
9, 624, Note_on_c, 7, 69, 75
9, 645, Note_off_c, 7, 69, 0
9, 648, Note_on_c, 7, 71, 75
9, 669, Note_off_c, 7, 71, 0
9, 672, Note_on_c, 7, 72, 75
9, 693, Note_off_c, 7, 72, 0
9, 696, Note_on_c, 7, 74, 75
9, 717, Note_off_c, 7, 74, 0
9, 720, Note_on_c, 7, 76, 75
9, 741, Note_off_c, 7, 76, 0
9, 744, Note_on_c, 7, 72, 75
9, 765, Note_off_c, 7, 72, 0
9, 768, Note_on_c, 7, 77, 75
9, 789, Note_off_c, 7, 77, 0
9, 792, Note_on_c, 7, 76, 75
9, 813, Note_off_c, 7, 76, 0
9, 816, Note_on_c, 7, 77, 75
9, 837, Note_off_c, 7, 77, 0
9, 840, Note_on_c, 7, 79, 75
9, 861, Note_off_c, 7, 79, 0
9, 864, Note_on_c, 7, 76, 75
9, 885, Note_off_c, 7, 76, 0
9, 888, Note_on_c, 7, 77, 75
9, 909, Note_off_c, 7, 77, 0
9, 912, Note_on_c, 7, 79, 75
9, 933, Note_off_c, 7, 79, 0
9, 936, Note_on_c, 7, 77, 75
9, 957, Note_off_c, 7, 77, 0
9, 960, Note_on_c, 7, 79, 75
9, 981, Note_off_c, 7, 79, 0
9, 984, Note_on_c, 7, 77, 75
9, 1005, Note_off_c, 7, 77, 0
9, 1008, Note_on_c, 7, 79, 75
9, 1029, Note_off_c, 7, 79, 0
9, 1032, Note_on_c, 7, 77, 75
9, 1053, Note_off_c, 7, 77, 0
9, 1056, Note_on_c, 7, 79, 75
9, 1077, Note_off_c, 7, 79, 0
9, 1080, Note_on_c, 7, 72, 75
9, 1101, Note_off_c, 7, 72, 0
9, 1104, Note_on_c, 7, 77, 75
9, 1125, Note_off_c, 7, 77, 0
9, 1128, Note_on_c, 7, 76, 75
9, 1149, Note_off_c, 7, 76, 0
9, 1152, Note_on_c, 7, 77, 75
9, 1173, Note_off_c, 7, 77, 0
9, 1176, Note_on_c, 7, 76, 75
9, 1197, Note_off_c, 7, 76, 0
9, 1200, Note_on_c, 7, 77, 75
9, 1221, Note_off_c, 7, 77, 0
9, 1224, Note_on_c, 7, 76, 75
9, 1245, Note_off_c, 7, 76, 0
9, 1248, Note_on_c, 7, 77, 75
9, 1269, Note_off_c, 7, 77, 0
9, 1272, Note_on_c, 7, 71, 75
9, 1293, Note_off_c, 7, 71, 0
9, 1296, Note_on_c, 7, 76, 75
9, 1317, Note_off_c, 7, 76, 0
9, 1320, Note_on_c, 7, 74, 75
9, 1341, Note_off_c, 7, 74, 0
9, 1344, Note_on_c, 7, 76, 75
9, 1365, Note_off_c, 7, 76, 0
9, 1368, Note_on_c, 7, 74, 75
9, 1389, Note_off_c, 7, 74, 0
9, 1392, Note_on_c, 7, 76, 75
9, 1413, Note_off_c, 7, 76, 0
9, 1416, Note_on_c, 7, 74, 75
9, 1437, Note_off_c, 7, 74, 0
9, 1440, Note_on_c, 7, 76, 75
9, 1461, Note_off_c, 7, 76, 0
9, 1464, Note_on_c, 7, 69, 75
9, 1485, Note_off_c, 7, 69, 0
9, 1488, Note_on_c, 7, 81, 75
9, 1509, Note_off_c, 7, 81, 0
9, 1512, Note_on_c, 7, 79, 75
9, 1533, Note_off_c, 7, 79, 0
9, 1536, Note_on_c, 7, 77, 75
9, 1557, Note_off_c, 7, 77, 0
9, 1560, Note_on_c, 7, 76, 75
9, 1581, Note_off_c, 7, 76, 0
9, 1584, Note_on_c, 7, 74, 75
9, 1605, Note_off_c, 7, 74, 0
9, 1608, Note_on_c, 7, 72, 75
9, 1629, Note_off_c, 7, 72, 0
9, 1632, Note_on_c, 7, 71, 75
9, 1653, Note_off_c, 7, 71, 0
9, 1656, Note_on_c, 7, 69, 75
9, 1677, Note_off_c, 7, 69, 0
9, 1680, Note_on_c, 7, 67, 75
9, 1701, Note_off_c, 7, 67, 0
9, 1704, Note_on_c, 7, 69, 75
9, 1725, Note_off_c, 7, 69, 0
9, 1728, Note_on_c, 7, 71, 75
9, 1749, Note_off_c, 7, 71, 0
9, 1752, Note_on_c, 7, 72, 75
9, 1773, Note_off_c, 7, 72, 0
9, 1776, Note_on_c, 7, 74, 75
9, 1797, Note_off_c, 7, 74, 0
9, 1800, Note_on_c, 7, 76, 75
9, 1821, Note_off_c, 7, 76, 0
9, 1824, Note_on_c, 7, 77, 75
9, 1887, Note_off_c, 7, 77, 0
9, 1896, Note_on_c, 7, 79, 75
9, 1917, Note_off_c, 7, 79, 0
9, 1920, Note_on_c, 7, 74, 75
9, 1983, Note_off_c, 7, 74, 0
9, 1992, Note_on_c, 7, 72, 75
9, 2013, Note_off_c, 7, 72, 0
9, 2016, Note_on_c, 7, 72, 75
9, 2058, Note_off_c, 7, 72, 0
9, 2256, Note_on_c, 7, 74, 75
9, 2277, Note_off_c, 7, 74, 0
9, 2280, Note_on_c, 7, 75, 75
9, 2301, Note_off_c, 7, 75, 0
9, 2304, Note_on_c, 7, 74, 75
9, 2325, Note_off_c, 7, 74, 0
9, 2328, Note_on_c, 7, 72, 75
9, 2349, Note_off_c, 7, 72, 0
9, 2352, Note_on_c, 7, 70, 75
9, 2373, Note_off_c, 7, 70, 0
9, 2376, Note_on_c, 7, 69, 75
9, 2397, Note_off_c, 7, 69, 0
9, 2400, Note_on_c, 7, 70, 75
9, 2442, Note_off_c, 7, 70, 0
9, 2448, Note_on_c, 7, 74, 75
9, 2490, Note_off_c, 7, 74, 0
9, 2496, Note_on_c, 7, 76, 75
9, 2538, Note_off_c, 7, 76, 0
9, 2544, Note_on_c, 7, 79, 75
9, 2554, Note_off_c, 7, 79, 0
9, 2556, Note_on_c, 7, 77, 75
9, 2566, Note_off_c, 7, 77, 0
9, 2568, Note_on_c, 7, 79, 75
9, 2578, Note_off_c, 7, 79, 0
9, 2580, Note_on_c, 7, 77, 75
9, 2590, Note_off_c, 7, 77, 0
9, 2592, Note_on_c, 7, 79, 75
9, 2634, Note_off_c, 7, 79, 0
9, 2640, Note_on_c, 7, 81, 75
9, 2661, Note_off_c, 7, 81, 0
9, 2664, Note_on_c, 7, 82, 75
9, 2685, Note_off_c, 7, 82, 0
9, 2688, Note_on_c, 7, 81, 75
9, 2709, Note_off_c, 7, 81, 0
9, 2712, Note_on_c, 7, 79, 75
9, 2733, Note_off_c, 7, 79, 0
9, 2736, Note_on_c, 7, 77, 75
9, 2757, Note_off_c, 7, 77, 0
9, 2760, Note_on_c, 7, 76, 75
9, 2781, Note_off_c, 7, 76, 0
9, 2784, Note_on_c, 7, 77, 75
9, 2805, Note_off_c, 7, 77, 0
9, 2808, Note_on_c, 7, 74, 75
9, 2829, Note_off_c, 7, 74, 0
9, 2832, Note_on_c, 7, 82, 75
9, 2853, Note_off_c, 7, 82, 0
9, 2856, Note_on_c, 7, 84, 75
9, 2877, Note_off_c, 7, 84, 0
9, 2880, Note_on_c, 7, 82, 75
9, 2901, Note_off_c, 7, 82, 0
9, 2904, Note_on_c, 7, 81, 75
9, 2925, Note_off_c, 7, 81, 0
9, 2928, Note_on_c, 7, 79, 75
9, 2949, Note_off_c, 7, 79, 0
9, 2952, Note_on_c, 7, 77, 75
9, 2973, Note_off_c, 7, 77, 0
9, 2976, Note_on_c, 7, 76, 75
9, 3018, Note_off_c, 7, 76, 0
9, 3024, Note_on_c, 7, 60, 75
9, 3066, Note_off_c, 7, 60, 0
9, 3072, Note_on_c, 7, 64, 75
9, 3114, Note_off_c, 7, 64, 0
9, 3120, Note_on_c, 7, 67, 75
9, 3162, Note_off_c, 7, 67, 0
9, 3168, Note_on_c, 7, 70, 75
9, 3210, Note_off_c, 7, 70, 0
9, 3216, Note_on_c, 7, 72, 75
9, 3237, Note_off_c, 7, 72, 0
9, 3240, Note_on_c, 7, 74, 75
9, 3261, Note_off_c, 7, 74, 0
9, 3264, Note_on_c, 7, 72, 75
9, 3285, Note_off_c, 7, 72, 0
9, 3288, Note_on_c, 7, 70, 75
9, 3309, Note_off_c, 7, 70, 0
9, 3312, Note_on_c, 7, 69, 75
9, 3333, Note_off_c, 7, 69, 0
9, 3336, Note_on_c, 7, 67, 75
9, 3357, Note_off_c, 7, 67, 0
9, 3360, Note_on_c, 7, 69, 75
9, 3402, Note_off_c, 7, 69, 0
9, 3408, Note_on_c, 7, 65, 75
9, 3450, Note_off_c, 7, 65, 0
9, 3456, Note_on_c, 7, 69, 75
9, 3498, Note_off_c, 7, 69, 0
9, 3504, Note_on_c, 7, 72, 75
9, 3546, Note_off_c, 7, 72, 0
9, 3552, Note_on_c, 7, 75, 75
9, 3594, Note_off_c, 7, 75, 0
9, 3600, Note_on_c, 7, 77, 75
9, 3621, Note_off_c, 7, 77, 0
9, 3624, Note_on_c, 7, 79, 75
9, 3645, Note_off_c, 7, 79, 0
9, 3648, Note_on_c, 7, 77, 75
9, 3669, Note_off_c, 7, 77, 0
9, 3672, Note_on_c, 7, 75, 75
9, 3693, Note_off_c, 7, 75, 0
9, 3696, Note_on_c, 7, 74, 75
9, 3717, Note_off_c, 7, 74, 0
9, 3720, Note_on_c, 7, 72, 75
9, 3741, Note_off_c, 7, 72, 0
9, 3744, Note_on_c, 7, 74, 75
9, 3786, Note_off_c, 7, 74, 0
9, 3792, Note_on_c, 7, 79, 75
9, 3813, Note_off_c, 7, 79, 0
9, 3816, Note_on_c, 7, 81, 75
9, 3837, Note_off_c, 7, 81, 0
9, 3840, Note_on_c, 7, 79, 75
9, 3861, Note_off_c, 7, 79, 0
9, 3864, Note_on_c, 7, 77, 75
9, 3885, Note_off_c, 7, 77, 0
9, 3888, Note_on_c, 7, 76, 75
9, 3909, Note_off_c, 7, 76, 0
9, 3912, Note_on_c, 7, 74, 75
9, 3933, Note_off_c, 7, 74, 0
9, 3936, Note_on_c, 7, 72, 75
9, 3999, Note_off_c, 7, 72, 0
9, 4008, Note_on_c, 7, 74, 75
9, 4029, Note_off_c, 7, 74, 0
9, 4032, Note_on_c, 7, 76, 75
9, 4053, Note_off_c, 7, 76, 0
9, 4056, Note_on_c, 7, 77, 75
9, 4077, Note_off_c, 7, 77, 0
9, 4080, Note_on_c, 7, 79, 75
9, 4101, Note_off_c, 7, 79, 0
9, 4104, Note_on_c, 7, 81, 75
9, 4125, Note_off_c, 7, 81, 0
9, 4128, Note_on_c, 7, 82, 75
9, 4149, Note_off_c, 7, 82, 0
9, 4152, Note_on_c, 7, 84, 75
9, 4162, Note_off_c, 7, 84, 0
9, 4164, Note_on_c, 7, 82, 75
9, 4174, Note_off_c, 7, 82, 0
9, 4176, Note_on_c, 7, 81, 75
9, 4186, Note_off_c, 7, 81, 0
9, 4188, Note_on_c, 7, 82, 75
9, 4198, Note_off_c, 7, 82, 0
9, 4200, Note_on_c, 7, 84, 75
9, 4221, Note_off_c, 7, 84, 0
9, 4224, Note_on_c, 7, 79, 75
9, 4287, Note_off_c, 7, 79, 0
9, 4296, Note_on_c, 7, 77, 75
9, 4317, Note_off_c, 7, 77, 0
9, 4320, Note_on_c, 7, 77, 75
9, 4341, Note_off_c, 7, 77, 0
9, 4344, Note_on_c, 7, 76, 75
9, 4365, Note_off_c, 7, 76, 0
9, 4368, Note_on_c, 7, 77, 75
9, 4389, Note_off_c, 7, 77, 0
9, 4392, Note_on_c, 7, 76, 75
9, 4413, Note_off_c, 7, 76, 0
9, 4416, Note_on_c, 7, 74, 75
9, 4437, Note_off_c, 7, 74, 0
9, 4440, Note_on_c, 7, 72, 75
9, 4461, Note_off_c, 7, 72, 0
9, 4464, Note_on_c, 7, 74, 75
9, 4485, Note_off_c, 7, 74, 0
9, 4488, Note_on_c, 7, 72, 75
9, 4509, Note_off_c, 7, 72, 0
9, 4512, Note_on_c, 7, 70, 75
9, 4533, Note_off_c, 7, 70, 0
9, 4536, Note_on_c, 7, 72, 75
9, 4546, Note_off_c, 7, 72, 0
9, 4548, Note_on_c, 7, 70, 75
9, 4558, Note_off_c, 7, 70, 0
9, 4560, Note_on_c, 7, 69, 75
9, 4570, Note_off_c, 7, 69, 0
9, 4572, Note_on_c, 7, 70, 75
9, 4582, Note_off_c, 7, 70, 0
9, 4584, Note_on_c, 7, 72, 75
9, 4605, Note_off_c, 7, 72, 0
9, 4608, Note_on_c, 7, 67, 75
9, 4671, Note_off_c, 7, 67, 0
9, 4680, Note_on_c, 7, 65, 75
9, 4701, Note_off_c, 7, 65, 0
9, 4704, Note_on_c, 7, 65, 75
9, 4788, Note_off_c, 7, 65, 0
9, 4848, Note_on_c, 7, 60, 75
9, 4890, Note_off_c, 7, 60, 0
9, 4896, Note_on_c, 7, 62, 75
9, 4938, Note_off_c, 7, 62, 0
9, 4944, Note_on_c, 7, 57, 75
9, 4986, Note_off_c, 7, 57, 0
9, 4992, Note_on_c, 7, 58, 75
9, 5034, Note_off_c, 7, 58, 0
9, 5040, Note_on_c, 7, 60, 75
9, 5082, Note_off_c, 7, 60, 0
9, 5088, Note_on_c, 7, 65, 75
9, 5130, Note_off_c, 7, 65, 0
9, 5136, Note_on_c, 7, 77, 75
9, 5157, Note_off_c, 7, 77, 0
9, 5160, Note_on_c, 7, 79, 75
9, 5181, Note_off_c, 7, 79, 0
9, 5184, Note_on_c, 7, 77, 75
9, 5205, Note_off_c, 7, 77, 0
9, 5208, Note_on_c, 7, 79, 75
9, 5229, Note_off_c, 7, 79, 0
9, 5232, Note_on_c, 7, 77, 75
9, 5253, Note_off_c, 7, 77, 0
9, 5256, Note_on_c, 7, 79, 75
9, 5277, Note_off_c, 7, 79, 0
9, 5280, Note_on_c, 7, 77, 75
9, 5364, Note_off_c, 7, 77, 0
9, 5520, Note_on_c, 7, 84, 75
9, 5541, Note_off_c, 7, 84, 0
9, 5544, Note_on_c, 7, 83, 75
9, 5565, Note_off_c, 7, 83, 0
9, 5568, Note_on_c, 7, 84, 75
9, 5589, Note_off_c, 7, 84, 0
9, 5592, Note_on_c, 7, 83, 75
9, 5613, Note_off_c, 7, 83, 0
9, 5616, Note_on_c, 7, 84, 75
9, 5637, Note_off_c, 7, 84, 0
9, 5640, Note_on_c, 7, 83, 75
9, 5661, Note_off_c, 7, 83, 0
9, 5664, Note_on_c, 7, 84, 75
9, 5706, Note_off_c, 7, 84, 0
9, 5712, Note_on_c, 7, 79, 75
9, 5754, Note_off_c, 7, 79, 0
9, 5760, Note_on_c, 7, 81, 75
9, 5802, Note_off_c, 7, 81, 0
9, 5808, Note_on_c, 7, 79, 75
9, 5829, Note_off_c, 7, 79, 0
9, 5832, Note_on_c, 7, 77, 75
9, 5853, Note_off_c, 7, 77, 0
9, 5856, Note_on_c, 7, 76, 75
9, 5877, Note_off_c, 7, 76, 0
9, 5880, Note_on_c, 7, 74, 75
9, 5901, Note_off_c, 7, 74, 0
9, 5904, Note_on_c, 7, 72, 75
9, 5925, Note_off_c, 7, 72, 0
9, 5928, Note_on_c, 7, 74, 75
9, 5949, Note_off_c, 7, 74, 0
9, 5952, Note_on_c, 7, 76, 75
9, 5973, Note_off_c, 7, 76, 0
9, 5976, Note_on_c, 7, 77, 75
9, 5997, Note_off_c, 7, 77, 0
9, 6000, Note_on_c, 7, 79, 75
9, 6090, Note_off_c, 7, 79, 0
9, 6096, Note_on_c, 7, 77, 75
9, 6117, Note_off_c, 7, 77, 0
9, 6120, Note_on_c, 7, 76, 75
9, 6141, Note_off_c, 7, 76, 0
9, 6144, Note_on_c, 7, 77, 75
9, 6282, Note_off_c, 7, 77, 0
9, 6288, Note_on_c, 7, 76, 75
9, 6309, Note_off_c, 7, 76, 0
9, 6312, Note_on_c, 7, 74, 75
9, 6333, Note_off_c, 7, 74, 0
9, 6336, Note_on_c, 7, 76, 75
9, 6453, Note_off_c, 7, 76, 0
9, 6456, Note_on_c, 7, 74, 75
9, 6477, Note_off_c, 7, 74, 0
9, 6480, Note_on_c, 7, 76, 75
9, 6501, Note_off_c, 7, 76, 0
9, 6504, Note_on_c, 7, 77, 75
9, 6525, Note_off_c, 7, 77, 0
9, 6528, Note_on_c, 7, 74, 75
9, 6591, Note_off_c, 7, 74, 0
9, 6600, Note_on_c, 7, 72, 75
9, 6621, Note_off_c, 7, 72, 0
9, 6624, Note_on_c, 7, 72, 75
9, 6666, Note_off_c, 7, 72, 0
9, 6672, Note_on_c, 7, 67, 75
9, 6714, Note_off_c, 7, 67, 0
9, 6720, Note_on_c, 7, 69, 75
9, 6762, Note_off_c, 7, 69, 0
9, 6768, Note_on_c, 7, 70, 75
9, 6810, Note_off_c, 7, 70, 0
9, 6816, Note_on_c, 7, 72, 75
9, 6858, Note_off_c, 7, 72, 0
9, 6864, Note_on_c, 7, 74, 75
9, 6885, Note_off_c, 7, 74, 0
9, 6888, Note_on_c, 7, 75, 75
9, 6909, Note_off_c, 7, 75, 0
9, 6912, Note_on_c, 7, 74, 75
9, 6933, Note_off_c, 7, 74, 0
9, 6936, Note_on_c, 7, 72, 75
9, 6957, Note_off_c, 7, 72, 0
9, 6960, Note_on_c, 7, 70, 75
9, 6981, Note_off_c, 7, 70, 0
9, 6984, Note_on_c, 7, 69, 75
9, 7005, Note_off_c, 7, 69, 0
9, 7008, Note_on_c, 7, 70, 75
9, 7092, Note_off_c, 7, 70, 0
9, 7800, Note_on_c, 7, 72, 75
9, 7821, Note_off_c, 7, 72, 0
9, 7824, Note_on_c, 7, 77, 75
9, 7845, Note_off_c, 7, 77, 0
9, 7848, Note_on_c, 7, 75, 75
9, 7869, Note_off_c, 7, 75, 0
9, 7872, Note_on_c, 7, 77, 75
9, 7893, Note_off_c, 7, 77, 0
9, 7896, Note_on_c, 7, 75, 75
9, 7917, Note_off_c, 7, 75, 0
9, 7920, Note_on_c, 7, 77, 75
9, 7941, Note_off_c, 7, 77, 0
9, 7944, Note_on_c, 7, 75, 75
9, 7965, Note_off_c, 7, 75, 0
9, 7968, Note_on_c, 7, 77, 75
9, 7989, Note_off_c, 7, 77, 0
9, 7992, Note_on_c, 7, 70, 75
9, 8013, Note_off_c, 7, 70, 0
9, 8016, Note_on_c, 7, 75, 75
9, 8037, Note_off_c, 7, 75, 0
9, 8040, Note_on_c, 7, 74, 75
9, 8061, Note_off_c, 7, 74, 0
9, 8064, Note_on_c, 7, 75, 75
9, 8085, Note_off_c, 7, 75, 0
9, 8088, Note_on_c, 7, 74, 75
9, 8109, Note_off_c, 7, 74, 0
9, 8112, Note_on_c, 7, 75, 75
9, 8133, Note_off_c, 7, 75, 0
9, 8136, Note_on_c, 7, 74, 75
9, 8157, Note_off_c, 7, 74, 0
9, 8160, Note_on_c, 7, 75, 75
9, 8181, Note_off_c, 7, 75, 0
9, 8184, Note_on_c, 7, 69, 75
9, 8205, Note_off_c, 7, 69, 0
9, 8208, Note_on_c, 7, 74, 75
9, 8229, Note_off_c, 7, 74, 0
9, 8232, Note_on_c, 7, 72, 75
9, 8253, Note_off_c, 7, 72, 0
9, 8256, Note_on_c, 7, 74, 75
9, 8277, Note_off_c, 7, 74, 0
9, 8280, Note_on_c, 7, 72, 75
9, 8301, Note_off_c, 7, 72, 0
9, 8304, Note_on_c, 7, 74, 75
9, 8325, Note_off_c, 7, 74, 0
9, 8328, Note_on_c, 7, 72, 75
9, 8349, Note_off_c, 7, 72, 0
9, 8352, Note_on_c, 7, 74, 75
9, 8373, Note_off_c, 7, 74, 0
9, 8376, Note_on_c, 7, 67, 75
9, 8397, Note_off_c, 7, 67, 0
9, 8400, Note_on_c, 7, 79, 75
9, 8421, Note_off_c, 7, 79, 0
9, 8424, Note_on_c, 7, 77, 75
9, 8445, Note_off_c, 7, 77, 0
9, 8448, Note_on_c, 7, 75, 75
9, 8469, Note_off_c, 7, 75, 0
9, 8472, Note_on_c, 7, 74, 75
9, 8493, Note_off_c, 7, 74, 0
9, 8496, Note_on_c, 7, 72, 75
9, 8517, Note_off_c, 7, 72, 0
9, 8520, Note_on_c, 7, 70, 75
9, 8541, Note_off_c, 7, 70, 0
9, 8544, Note_on_c, 7, 69, 75
9, 8565, Note_off_c, 7, 69, 0
9, 8568, Note_on_c, 7, 67, 75
9, 8589, Note_off_c, 7, 67, 0
9, 8592, Note_on_c, 7, 65, 75
9, 8613, Note_off_c, 7, 65, 0
9, 8616, Note_on_c, 7, 67, 75
9, 8637, Note_off_c, 7, 67, 0
9, 8640, Note_on_c, 7, 69, 75
9, 8661, Note_off_c, 7, 69, 0
9, 8664, Note_on_c, 7, 70, 75
9, 8685, Note_off_c, 7, 70, 0
9, 8688, Note_on_c, 7, 72, 75
9, 8709, Note_off_c, 7, 72, 0
9, 8712, Note_on_c, 7, 74, 75
9, 8733, Note_off_c, 7, 74, 0
9, 8736, Note_on_c, 7, 75, 75
9, 8799, Note_off_c, 7, 75, 0
9, 8808, Note_on_c, 7, 77, 75
9, 8829, Note_off_c, 7, 77, 0
9, 8832, Note_on_c, 7, 72, 75
9, 8895, Note_off_c, 7, 72, 0
9, 8904, Note_on_c, 7, 70, 75
9, 8925, Note_off_c, 7, 70, 0
9, 8928, Note_on_c, 7, 70, 75
9, 9012, Note_off_c, 7, 70, 0
9, 9744, Note_on_c, 7, 76, 75
9, 9765, Note_off_c, 7, 76, 0
9, 9768, Note_on_c, 7, 74, 75
9, 9789, Note_off_c, 7, 74, 0
9, 9792, Note_on_c, 7, 76, 75
9, 9813, Note_off_c, 7, 76, 0
9, 9816, Note_on_c, 7, 77, 75
9, 9837, Note_off_c, 7, 77, 0
9, 9840, Note_on_c, 7, 76, 75
9, 9861, Note_off_c, 7, 76, 0
9, 9864, Note_on_c, 7, 74, 75
9, 9885, Note_off_c, 7, 74, 0
9, 9888, Note_on_c, 7, 73, 75
9, 9909, Note_off_c, 7, 73, 0
9, 9912, Note_on_c, 7, 74, 75
9, 9933, Note_off_c, 7, 74, 0
9, 9936, Note_on_c, 7, 76, 75
9, 9957, Note_off_c, 7, 76, 0
9, 9960, Note_on_c, 7, 77, 75
9, 9981, Note_off_c, 7, 77, 0
9, 9984, Note_on_c, 7, 79, 75
9, 10005, Note_off_c, 7, 79, 0
9, 10008, Note_on_c, 7, 77, 75
9, 10029, Note_off_c, 7, 77, 0
9, 10032, Note_on_c, 7, 79, 75
9, 10053, Note_off_c, 7, 79, 0
9, 10056, Note_on_c, 7, 76, 75
9, 10077, Note_off_c, 7, 76, 0
9, 10080, Note_on_c, 7, 77, 75
9, 10122, Note_off_c, 7, 77, 0
9, 10128, Note_on_c, 7, 62, 75
9, 10170, Note_off_c, 7, 62, 0
9, 10176, Note_on_c, 7, 65, 75
9, 10218, Note_off_c, 7, 65, 0
9, 10224, Note_on_c, 7, 69, 75
9, 10266, Note_off_c, 7, 69, 0
9, 10272, Note_on_c, 7, 74, 75
9, 10314, Note_off_c, 7, 74, 0
9, 10320, Note_on_c, 7, 69, 75
9, 10362, Note_off_c, 7, 69, 0
9, 10368, Note_on_c, 7, 70, 75
9, 10410, Note_off_c, 7, 70, 0
9, 10416, Note_on_c, 7, 69, 75
9, 10437, Note_off_c, 7, 69, 0
9, 10440, Note_on_c, 7, 67, 75
9, 10461, Note_off_c, 7, 67, 0
9, 10464, Note_on_c, 7, 65, 75
9, 10485, Note_off_c, 7, 65, 0
9, 10488, Note_on_c, 7, 64, 75
9, 10509, Note_off_c, 7, 64, 0
9, 10512, Note_on_c, 7, 62, 75
9, 10533, Note_off_c, 7, 62, 0
9, 10536, Note_on_c, 7, 64, 75
9, 10557, Note_off_c, 7, 64, 0
9, 10560, Note_on_c, 7, 65, 75
9, 10581, Note_off_c, 7, 65, 0
9, 10584, Note_on_c, 7, 67, 75
9, 10605, Note_off_c, 7, 67, 0
9, 10608, Note_on_c, 7, 65, 75
9, 10629, Note_off_c, 7, 65, 0
9, 10632, Note_on_c, 7, 67, 75
9, 10653, Note_off_c, 7, 67, 0
9, 10656, Note_on_c, 7, 69, 75
9, 10677, Note_off_c, 7, 69, 0
9, 10680, Note_on_c, 7, 70, 75
9, 10701, Note_off_c, 7, 70, 0
9, 10704, Note_on_c, 7, 72, 75
9, 10725, Note_off_c, 7, 72, 0
9, 10728, Note_on_c, 7, 69, 75
9, 10749, Note_off_c, 7, 69, 0
9, 10752, Note_on_c, 7, 74, 75
9, 10773, Note_off_c, 7, 74, 0
9, 10776, Note_on_c, 7, 77, 75
9, 10797, Note_off_c, 7, 77, 0
9, 10800, Note_on_c, 7, 76, 75
9, 10821, Note_off_c, 7, 76, 0
9, 10824, Note_on_c, 7, 74, 75
9, 10845, Note_off_c, 7, 74, 0
9, 10848, Note_on_c, 7, 73, 75
9, 10890, Note_off_c, 7, 73, 0
9, 10896, Note_on_c, 7, 69, 75
9, 10938, Note_off_c, 7, 69, 0
9, 10944, Note_on_c, 7, 73, 75
9, 10986, Note_off_c, 7, 73, 0
9, 10992, Note_on_c, 7, 76, 75
9, 11034, Note_off_c, 7, 76, 0
9, 11040, Note_on_c, 7, 81, 75
9, 11082, Note_off_c, 7, 81, 0
9, 11088, Note_on_c, 7, 69, 75
9, 11109, Note_off_c, 7, 69, 0
9, 11112, Note_on_c, 7, 70, 75
9, 11133, Note_off_c, 7, 70, 0
9, 11136, Note_on_c, 7, 69, 75
9, 11157, Note_off_c, 7, 69, 0
9, 11160, Note_on_c, 7, 67, 75
9, 11181, Note_off_c, 7, 67, 0
9, 11184, Note_on_c, 7, 65, 75
9, 11205, Note_off_c, 7, 65, 0
9, 11208, Note_on_c, 7, 64, 75
9, 11229, Note_off_c, 7, 64, 0
9, 11232, Note_on_c, 7, 65, 75
9, 11274, Note_off_c, 7, 65, 0
9, 11280, Note_on_c, 7, 62, 75
9, 11322, Note_off_c, 7, 62, 0
9, 11328, Note_on_c, 7, 66, 75
9, 11370, Note_off_c, 7, 66, 0
9, 11376, Note_on_c, 7, 69, 75
9, 11418, Note_off_c, 7, 69, 0
9, 11424, Note_on_c, 7, 72, 75
9, 11466, Note_off_c, 7, 72, 0
9, 11472, Note_on_c, 7, 74, 75
9, 11493, Note_off_c, 7, 74, 0
9, 11496, Note_on_c, 7, 75, 75
9, 11517, Note_off_c, 7, 75, 0
9, 11520, Note_on_c, 7, 74, 75
9, 11541, Note_off_c, 7, 74, 0
9, 11544, Note_on_c, 7, 72, 75
9, 11565, Note_off_c, 7, 72, 0
9, 11568, Note_on_c, 7, 70, 75
9, 11589, Note_off_c, 7, 70, 0
9, 11592, Note_on_c, 7, 69, 75
9, 11613, Note_off_c, 7, 69, 0
9, 11616, Note_on_c, 7, 70, 75
9, 11637, Note_off_c, 7, 70, 0
9, 11640, Note_on_c, 7, 74, 75
9, 11661, Note_off_c, 7, 74, 0
9, 11664, Note_on_c, 7, 79, 75
9, 11685, Note_off_c, 7, 79, 0
9, 11688, Note_on_c, 7, 81, 75
9, 11709, Note_off_c, 7, 81, 0
9, 11712, Note_on_c, 7, 79, 75
9, 11733, Note_off_c, 7, 79, 0
9, 11736, Note_on_c, 7, 77, 75
9, 11757, Note_off_c, 7, 77, 0
9, 11760, Note_on_c, 7, 76, 75
9, 11781, Note_off_c, 7, 76, 0
9, 11784, Note_on_c, 7, 74, 75
9, 11805, Note_off_c, 7, 74, 0
9, 11808, Note_on_c, 7, 73, 75
9, 11829, Note_off_c, 7, 73, 0
9, 11832, Note_on_c, 7, 71, 75
9, 11853, Note_off_c, 7, 71, 0
9, 11856, Note_on_c, 7, 69, 75
9, 11877, Note_off_c, 7, 69, 0
9, 11880, Note_on_c, 7, 71, 75
9, 11901, Note_off_c, 7, 71, 0
9, 11904, Note_on_c, 7, 73, 75
9, 11925, Note_off_c, 7, 73, 0
9, 11928, Note_on_c, 7, 74, 75
9, 11949, Note_off_c, 7, 74, 0
9, 11952, Note_on_c, 7, 76, 75
9, 11973, Note_off_c, 7, 76, 0
9, 11976, Note_on_c, 7, 77, 75
9, 11997, Note_off_c, 7, 77, 0
9, 12000, Note_on_c, 7, 79, 75
9, 12084, Note_off_c, 7, 79, 0
9, 12144, Note_on_c, 7, 79, 75
9, 12213, Note_off_c, 7, 79, 0
9, 12216, Note_on_c, 7, 81, 75
9, 12226, Note_off_c, 7, 81, 0
9, 12228, Note_on_c, 7, 79, 75
9, 12238, Note_off_c, 7, 79, 0
9, 12240, Note_on_c, 7, 77, 75
9, 12250, Note_off_c, 7, 77, 0
9, 12252, Note_on_c, 7, 79, 75
9, 12262, Note_off_c, 7, 79, 0
9, 12264, Note_on_c, 7, 81, 75
9, 12285, Note_off_c, 7, 81, 0
9, 12288, Note_on_c, 7, 76, 75
9, 12351, Note_off_c, 7, 76, 0
9, 12360, Note_on_c, 7, 74, 75
9, 12381, Note_off_c, 7, 74, 0
9, 12384, Note_on_c, 7, 74, 75
9, 12468, Note_off_c, 7, 74, 0
9, 12816, Note_on_c, 7, 67, 75
9, 12858, Note_off_c, 7, 67, 0
9, 12864, Note_on_c, 7, 65, 75
9, 12906, Note_off_c, 7, 65, 0
9, 12912, Note_on_c, 7, 64, 75
9, 12954, Note_off_c, 7, 64, 0
9, 12960, Note_on_c, 7, 62, 75
9, 13002, Note_off_c, 7, 62, 0
9, 13008, Note_on_c, 7, 60, 75
9, 13050, Note_off_c, 7, 60, 0
9, 13056, Note_on_c, 7, 59, 75
9, 13098, Note_off_c, 7, 59, 0
9, 13104, Note_on_c, 7, 55, 75
9, 13146, Note_off_c, 7, 55, 0
9, 13152, Note_on_c, 7, 60, 75
9, 13194, Note_off_c, 7, 60, 0
9, 13200, Note_on_c, 7, 79, 75
9, 13221, Note_off_c, 7, 79, 0
9, 13224, Note_on_c, 7, 77, 75
9, 13245, Note_off_c, 7, 77, 0
9, 13248, Note_on_c, 7, 79, 75
9, 13269, Note_off_c, 7, 79, 0
9, 13272, Note_on_c, 7, 77, 75
9, 13293, Note_off_c, 7, 77, 0
9, 13296, Note_on_c, 7, 79, 75
9, 13317, Note_off_c, 7, 79, 0
9, 13320, Note_on_c, 7, 81, 75
9, 13341, Note_off_c, 7, 81, 0
9, 13344, Note_on_c, 7, 82, 75
9, 13365, Note_off_c, 7, 82, 0
9, 13368, Note_on_c, 7, 81, 75
9, 13389, Note_off_c, 7, 81, 0
9, 13392, Note_on_c, 7, 82, 75
9, 13413, Note_off_c, 7, 82, 0
9, 13416, Note_on_c, 7, 84, 75
9, 13437, Note_off_c, 7, 84, 0
9, 13440, Note_on_c, 7, 82, 75
9, 13461, Note_off_c, 7, 82, 0
9, 13464, Note_on_c, 7, 84, 75
9, 13485, Note_off_c, 7, 84, 0
9, 13488, Note_on_c, 7, 82, 75
9, 13509, Note_off_c, 7, 82, 0
9, 13512, Note_on_c, 7, 84, 75
9, 13533, Note_off_c, 7, 84, 0
9, 13536, Note_on_c, 7, 81, 75
9, 13620, Note_off_c, 7, 81, 0
9, 13680, Note_on_c, 7, 75, 75
9, 13722, Note_off_c, 7, 75, 0
9, 13728, Note_on_c, 7, 70, 75
9, 13770, Note_off_c, 7, 70, 0
9, 13776, Note_on_c, 7, 74, 75
9, 13818, Note_off_c, 7, 74, 0
9, 13872, Note_on_c, 7, 74, 75
9, 13914, Note_off_c, 7, 74, 0
9, 13920, Note_on_c, 7, 69, 75
9, 13962, Note_off_c, 7, 69, 0
9, 13968, Note_on_c, 7, 72, 75
9, 14010, Note_off_c, 7, 72, 0
9, 14064, Note_on_c, 7, 72, 75
9, 14106, Note_off_c, 7, 72, 0
9, 14112, Note_on_c, 7, 67, 75
9, 14154, Note_off_c, 7, 67, 0
9, 14160, Note_on_c, 7, 70, 75
9, 14202, Note_off_c, 7, 70, 0
9, 14304, Note_on_c, 7, 72, 75
9, 14484, Note_off_c, 7, 72, 0
9, 14496, Note_on_c, 7, 74, 75
9, 14868, Note_off_c, 7, 74, 0
9, 14880, Note_on_c, 7, 76, 75
9, 15252, Note_off_c, 7, 76, 0
9, 15312, Note_on_c, 7, 66, 75
9, 15354, Note_off_c, 7, 66, 0
9, 15360, Note_on_c, 7, 69, 75
9, 15402, Note_off_c, 7, 69, 0
9, 15408, Note_on_c, 7, 72, 75
9, 15450, Note_off_c, 7, 72, 0
9, 15456, Note_on_c, 7, 75, 75
9, 15498, Note_off_c, 7, 75, 0
9, 15504, Note_on_c, 7, 69, 75
9, 15546, Note_off_c, 7, 69, 0
9, 15552, Note_on_c, 7, 72, 75
9, 15594, Note_off_c, 7, 72, 0
9, 15600, Note_on_c, 7, 75, 75
9, 15642, Note_off_c, 7, 75, 0
9, 15648, Note_on_c, 7, 78, 75
9, 15690, Note_off_c, 7, 78, 0
9, 15696, Note_on_c, 7, 81, 75
9, 15738, Note_off_c, 7, 81, 0
9, 15744, Note_on_c, 7, 74, 75
9, 15786, Note_off_c, 7, 74, 0
9, 15792, Note_on_c, 7, 78, 75
9, 15834, Note_off_c, 7, 78, 0
9, 15840, Note_on_c, 7, 79, 75
9, 15924, Note_off_c, 7, 79, 0
9, 15984, Note_on_c, 7, 74, 75
9, 16026, Note_off_c, 7, 74, 0
9, 16032, Note_on_c, 7, 76, 75
9, 16053, Note_off_c, 7, 76, 0
9, 16056, Note_on_c, 7, 77, 75
9, 16077, Note_off_c, 7, 77, 0
9, 16080, Note_on_c, 7, 76, 75
9, 16101, Note_off_c, 7, 76, 0
9, 16104, Note_on_c, 7, 74, 75
9, 16125, Note_off_c, 7, 74, 0
9, 16128, Note_on_c, 7, 74, 75
9, 16191, Note_off_c, 7, 74, 0
9, 16200, Note_on_c, 7, 72, 75
9, 16221, Note_off_c, 7, 72, 0
9, 16224, Note_on_c, 7, 72, 75
9, 16266, Note_off_c, 7, 72, 0
9, 16272, Note_on_c, 7, 60, 75
9, 16314, Note_off_c, 7, 60, 0
9, 16320, Note_on_c, 7, 64, 75
9, 16362, Note_off_c, 7, 64, 0
9, 16368, Note_on_c, 7, 67, 75
9, 16410, Note_off_c, 7, 67, 0
9, 16416, Note_on_c, 7, 72, 75
9, 16458, Note_off_c, 7, 72, 0
9, 16464, Note_on_c, 7, 67, 75
9, 16506, Note_off_c, 7, 67, 0
9, 16512, Note_on_c, 7, 69, 75
9, 16554, Note_off_c, 7, 69, 0
9, 16560, Note_on_c, 7, 67, 75
9, 16581, Note_off_c, 7, 67, 0
9, 16584, Note_on_c, 7, 65, 75
9, 16605, Note_off_c, 7, 65, 0
9, 16608, Note_on_c, 7, 64, 75
9, 16629, Note_off_c, 7, 64, 0
9, 16632, Note_on_c, 7, 62, 75
9, 16653, Note_off_c, 7, 62, 0
9, 16656, Note_on_c, 7, 60, 75
9, 16677, Note_off_c, 7, 60, 0
9, 16680, Note_on_c, 7, 62, 75
9, 16701, Note_off_c, 7, 62, 0
9, 16704, Note_on_c, 7, 64, 75
9, 16725, Note_off_c, 7, 64, 0
9, 16728, Note_on_c, 7, 66, 75
9, 16749, Note_off_c, 7, 66, 0
9, 16752, Note_on_c, 7, 64, 75
9, 16773, Note_off_c, 7, 64, 0
9, 16776, Note_on_c, 7, 66, 75
9, 16797, Note_off_c, 7, 66, 0
9, 16800, Note_on_c, 7, 67, 75
9, 16821, Note_off_c, 7, 67, 0
9, 16824, Note_on_c, 7, 69, 75
9, 16845, Note_off_c, 7, 69, 0
9, 16848, Note_on_c, 7, 71, 75
9, 16869, Note_off_c, 7, 71, 0
9, 16872, Note_on_c, 7, 67, 75
9, 16893, Note_off_c, 7, 67, 0
9, 16896, Note_on_c, 7, 72, 75
9, 16917, Note_off_c, 7, 72, 0
9, 16920, Note_on_c, 7, 71, 75
9, 16941, Note_off_c, 7, 71, 0
9, 16944, Note_on_c, 7, 72, 75
9, 16965, Note_off_c, 7, 72, 0
9, 16968, Note_on_c, 7, 74, 75
9, 16989, Note_off_c, 7, 74, 0
9, 16992, Note_on_c, 7, 71, 75
9, 17034, Note_off_c, 7, 71, 0
9, 17040, Note_on_c, 7, 62, 75
9, 17082, Note_off_c, 7, 62, 0
9, 17088, Note_on_c, 7, 67, 75
9, 17130, Note_off_c, 7, 67, 0
9, 17136, Note_on_c, 7, 71, 75
9, 17178, Note_off_c, 7, 71, 0
9, 17184, Note_on_c, 7, 74, 75
9, 17226, Note_off_c, 7, 74, 0
9, 17232, Note_on_c, 7, 76, 75
9, 17253, Note_off_c, 7, 76, 0
9, 17256, Note_on_c, 7, 77, 75
9, 17277, Note_off_c, 7, 77, 0
9, 17280, Note_on_c, 7, 76, 75
9, 17301, Note_off_c, 7, 76, 0
9, 17304, Note_on_c, 7, 74, 75
9, 17325, Note_off_c, 7, 74, 0
9, 17328, Note_on_c, 7, 72, 75
9, 17349, Note_off_c, 7, 72, 0
9, 17352, Note_on_c, 7, 71, 75
9, 17373, Note_off_c, 7, 71, 0
9, 17376, Note_on_c, 7, 72, 75
9, 17418, Note_off_c, 7, 72, 0
9, 17424, Note_on_c, 7, 64, 75
9, 17466, Note_off_c, 7, 64, 0
9, 17472, Note_on_c, 7, 69, 75
9, 17514, Note_off_c, 7, 69, 0
9, 17520, Note_on_c, 7, 73, 75
9, 17562, Note_off_c, 7, 73, 0
9, 17568, Note_on_c, 7, 76, 75
9, 17610, Note_off_c, 7, 76, 0
9, 17616, Note_on_c, 7, 77, 75
9, 17637, Note_off_c, 7, 77, 0
9, 17640, Note_on_c, 7, 79, 75
9, 17661, Note_off_c, 7, 79, 0
9, 17664, Note_on_c, 7, 77, 75
9, 17685, Note_off_c, 7, 77, 0
9, 17688, Note_on_c, 7, 76, 75
9, 17709, Note_off_c, 7, 76, 0
9, 17712, Note_on_c, 7, 74, 75
9, 17733, Note_off_c, 7, 74, 0
9, 17736, Note_on_c, 7, 73, 75
9, 17757, Note_off_c, 7, 73, 0
9, 17760, Note_on_c, 7, 74, 75
9, 17802, Note_off_c, 7, 74, 0
9, 17808, Note_on_c, 7, 76, 75
9, 17829, Note_off_c, 7, 76, 0
9, 17832, Note_on_c, 7, 77, 75
9, 17853, Note_off_c, 7, 77, 0
9, 17856, Note_on_c, 7, 76, 75
9, 17877, Note_off_c, 7, 76, 0
9, 17880, Note_on_c, 7, 74, 75
9, 17901, Note_off_c, 7, 74, 0
9, 17904, Note_on_c, 7, 72, 75
9, 17925, Note_off_c, 7, 72, 0
9, 17928, Note_on_c, 7, 71, 75
9, 17949, Note_off_c, 7, 71, 0
9, 17952, Note_on_c, 7, 72, 75
9, 18015, Note_off_c, 7, 72, 0
9, 18024, Note_on_c, 7, 74, 75
9, 18045, Note_off_c, 7, 74, 0
9, 18048, Note_on_c, 7, 71, 75
9, 18111, Note_off_c, 7, 71, 0
9, 18120, Note_on_c, 7, 69, 75
9, 18141, Note_off_c, 7, 69, 0
9, 18144, Note_on_c, 7, 69, 75
9, 18228, Note_off_c, 7, 69, 0
9, 18960, Note_on_c, 7, 81, 75
9, 18981, Note_off_c, 7, 81, 0
9, 18984, Note_on_c, 7, 79, 75
9, 19005, Note_off_c, 7, 79, 0
9, 19008, Note_on_c, 7, 81, 75
9, 19029, Note_off_c, 7, 81, 0
9, 19032, Note_on_c, 7, 82, 75
9, 19053, Note_off_c, 7, 82, 0
9, 19056, Note_on_c, 7, 81, 75
9, 19077, Note_off_c, 7, 81, 0
9, 19080, Note_on_c, 7, 79, 75
9, 19101, Note_off_c, 7, 79, 0
9, 19104, Note_on_c, 7, 78, 75
9, 19125, Note_off_c, 7, 78, 0
9, 19128, Note_on_c, 7, 79, 75
9, 19149, Note_off_c, 7, 79, 0
9, 19152, Note_on_c, 7, 81, 75
9, 19173, Note_off_c, 7, 81, 0
9, 19176, Note_on_c, 7, 82, 75
9, 19197, Note_off_c, 7, 82, 0
9, 19200, Note_on_c, 7, 84, 75
9, 19221, Note_off_c, 7, 84, 0
9, 19224, Note_on_c, 7, 82, 75
9, 19245, Note_off_c, 7, 82, 0
9, 19248, Note_on_c, 7, 84, 75
9, 19269, Note_off_c, 7, 84, 0
9, 19272, Note_on_c, 7, 81, 75
9, 19293, Note_off_c, 7, 81, 0
9, 19296, Note_on_c, 7, 82, 75
9, 19317, Note_off_c, 7, 82, 0
9, 19320, Note_on_c, 7, 81, 75
9, 19341, Note_off_c, 7, 81, 0
9, 19344, Note_on_c, 7, 82, 75
9, 19365, Note_off_c, 7, 82, 0
9, 19368, Note_on_c, 7, 84, 75
9, 19389, Note_off_c, 7, 84, 0
9, 19392, Note_on_c, 7, 82, 75
9, 19413, Note_off_c, 7, 82, 0
9, 19416, Note_on_c, 7, 81, 75
9, 19437, Note_off_c, 7, 81, 0
9, 19440, Note_on_c, 7, 79, 75
9, 19461, Note_off_c, 7, 79, 0
9, 19464, Note_on_c, 7, 78, 75
9, 19485, Note_off_c, 7, 78, 0
9, 19488, Note_on_c, 7, 79, 75
9, 19551, Note_off_c, 7, 79, 0
9, 19560, Note_on_c, 7, 81, 75
9, 19581, Note_off_c, 7, 81, 0
9, 19584, Note_on_c, 7, 78, 75
9, 19647, Note_off_c, 7, 78, 0
9, 19656, Note_on_c, 7, 79, 75
9, 19677, Note_off_c, 7, 79, 0
9, 19680, Note_on_c, 7, 79, 75
9, 19722, Note_off_c, 7, 79, 0
9, 19728, Note_on_c, 7, 67, 75
9, 19770, Note_off_c, 7, 67, 0
9, 19776, Note_on_c, 7, 70, 75
9, 19818, Note_off_c, 7, 70, 0
9, 19824, Note_on_c, 7, 74, 75
9, 19866, Note_off_c, 7, 74, 0
9, 19872, Note_on_c, 7, 79, 75
9, 19914, Note_off_c, 7, 79, 0
9, 19920, Note_on_c, 7, 74, 75
9, 19962, Note_off_c, 7, 74, 0
9, 19968, Note_on_c, 7, 75, 75
9, 20010, Note_off_c, 7, 75, 0
9, 20016, Note_on_c, 7, 74, 75
9, 20037, Note_off_c, 7, 74, 0
9, 20040, Note_on_c, 7, 72, 75
9, 20061, Note_off_c, 7, 72, 0
9, 20064, Note_on_c, 7, 70, 75
9, 20106, Note_off_c, 7, 70, 0
9, 21648, Note_on_c, 7, 65, 75
9, 21690, Note_off_c, 7, 65, 0
9, 21696, Note_on_c, 7, 69, 75
9, 21738, Note_off_c, 7, 69, 0
9, 21744, Note_on_c, 7, 72, 75
9, 21786, Note_off_c, 7, 72, 0
9, 21792, Note_on_c, 7, 77, 75
9, 21834, Note_off_c, 7, 77, 0
9, 21840, Note_on_c, 7, 72, 75
9, 21882, Note_off_c, 7, 72, 0
9, 21888, Note_on_c, 7, 74, 75
9, 21930, Note_off_c, 7, 74, 0
9, 21936, Note_on_c, 7, 72, 75
9, 21957, Note_off_c, 7, 72, 0
9, 21960, Note_on_c, 7, 70, 75
9, 21981, Note_off_c, 7, 70, 0
9, 21984, Note_on_c, 7, 69, 75
9, 22068, Note_off_c, 7, 69, 0
9, 22128, Note_on_c, 7, 60, 75
9, 22170, Note_off_c, 7, 60, 0
9, 22176, Note_on_c, 7, 62, 75
9, 22218, Note_off_c, 7, 62, 0
9, 22224, Note_on_c, 7, 57, 75
9, 22266, Note_off_c, 7, 57, 0
9, 22272, Note_on_c, 7, 58, 75
9, 22314, Note_off_c, 7, 58, 0
9, 22320, Note_on_c, 7, 60, 75
9, 22362, Note_off_c, 7, 60, 0
9, 22368, Note_on_c, 7, 65, 75
9, 22410, Note_off_c, 7, 65, 0
9, 22416, Note_on_c, 7, 77, 75
9, 22437, Note_off_c, 7, 77, 0
9, 22440, Note_on_c, 7, 79, 75
9, 22461, Note_off_c, 7, 79, 0
9, 22464, Note_on_c, 7, 77, 75
9, 22485, Note_off_c, 7, 77, 0
9, 22488, Note_on_c, 7, 79, 75
9, 22509, Note_off_c, 7, 79, 0
9, 22512, Note_on_c, 7, 77, 75
9, 22533, Note_off_c, 7, 77, 0
9, 22536, Note_on_c, 7, 79, 75
9, 22557, Note_off_c, 7, 79, 0
9, 22560, Note_on_c, 7, 77, 75
9, 22644, Note_off_c, 7, 77, 0
9, 22800, Note_on_c, 7, 84, 75
9, 22821, Note_off_c, 7, 84, 0
9, 22824, Note_on_c, 7, 83, 75
9, 22845, Note_off_c, 7, 83, 0
9, 22848, Note_on_c, 7, 84, 75
9, 22869, Note_off_c, 7, 84, 0
9, 22872, Note_on_c, 7, 83, 75
9, 22893, Note_off_c, 7, 83, 0
9, 22896, Note_on_c, 7, 84, 75
9, 22917, Note_off_c, 7, 84, 0
9, 22920, Note_on_c, 7, 83, 75
9, 22941, Note_off_c, 7, 83, 0
9, 22944, Note_on_c, 7, 84, 75
9, 22986, Note_off_c, 7, 84, 0
9, 22992, Note_on_c, 7, 79, 75
9, 23034, Note_off_c, 7, 79, 0
9, 23040, Note_on_c, 7, 81, 75
9, 23082, Note_off_c, 7, 81, 0
9, 23088, Note_on_c, 7, 79, 75
9, 23109, Note_off_c, 7, 79, 0
9, 23112, Note_on_c, 7, 77, 75
9, 23133, Note_off_c, 7, 77, 0
9, 23136, Note_on_c, 7, 76, 75
9, 23157, Note_off_c, 7, 76, 0
9, 23160, Note_on_c, 7, 74, 75
9, 23181, Note_off_c, 7, 74, 0
9, 23184, Note_on_c, 7, 72, 75
9, 23205, Note_off_c, 7, 72, 0
9, 23208, Note_on_c, 7, 74, 75
9, 23229, Note_off_c, 7, 74, 0
9, 23232, Note_on_c, 7, 76, 75
9, 23253, Note_off_c, 7, 76, 0
9, 23256, Note_on_c, 7, 77, 75
9, 23277, Note_off_c, 7, 77, 0
9, 23280, Note_on_c, 7, 79, 75
9, 23370, Note_off_c, 7, 79, 0
9, 23376, Note_on_c, 7, 77, 75
9, 23397, Note_off_c, 7, 77, 0
9, 23400, Note_on_c, 7, 76, 75
9, 23421, Note_off_c, 7, 76, 0
9, 23424, Note_on_c, 7, 77, 75
9, 23562, Note_off_c, 7, 77, 0
9, 23568, Note_on_c, 7, 76, 75
9, 23589, Note_off_c, 7, 76, 0
9, 23592, Note_on_c, 7, 74, 75
9, 23613, Note_off_c, 7, 74, 0
9, 23616, Note_on_c, 7, 76, 75
9, 23733, Note_off_c, 7, 76, 0
9, 23736, Note_on_c, 7, 74, 75
9, 23757, Note_off_c, 7, 74, 0
9, 23760, Note_on_c, 7, 76, 75
9, 23781, Note_off_c, 7, 76, 0
9, 23784, Note_on_c, 7, 77, 75
9, 23805, Note_off_c, 7, 77, 0
9, 23808, Note_on_c, 7, 74, 75
9, 23871, Note_off_c, 7, 74, 0
9, 23880, Note_on_c, 7, 72, 75
9, 23901, Note_off_c, 7, 72, 0
9, 23904, Note_on_c, 7, 72, 75
9, 23988, Note_off_c, 7, 72, 0
9, 24336, Note_on_c, 7, 81, 75
9, 24357, Note_off_c, 7, 81, 0
9, 24360, Note_on_c, 7, 79, 75
9, 24381, Note_off_c, 7, 79, 0
9, 24384, Note_on_c, 7, 81, 75
9, 24405, Note_off_c, 7, 81, 0
9, 24408, Note_on_c, 7, 79, 75
9, 24429, Note_off_c, 7, 79, 0
9, 24432, Note_on_c, 7, 81, 75
9, 24453, Note_off_c, 7, 81, 0
9, 24456, Note_on_c, 7, 82, 75
9, 24477, Note_off_c, 7, 82, 0
9, 24480, Note_on_c, 7, 84, 75
9, 24501, Note_off_c, 7, 84, 0
9, 24504, Note_on_c, 7, 82, 75
9, 24525, Note_off_c, 7, 82, 0
9, 24528, Note_on_c, 7, 84, 75
9, 24549, Note_off_c, 7, 84, 0
9, 24552, Note_on_c, 7, 86, 75
9, 24573, Note_off_c, 7, 86, 0
9, 24576, Note_on_c, 7, 84, 75
9, 24597, Note_off_c, 7, 84, 0
9, 24600, Note_on_c, 7, 86, 75
9, 24621, Note_off_c, 7, 86, 0
9, 24624, Note_on_c, 7, 84, 75
9, 24645, Note_off_c, 7, 84, 0
9, 24648, Note_on_c, 7, 86, 75
9, 24669, Note_off_c, 7, 86, 0
9, 24672, Note_on_c, 7, 82, 75
9, 24714, Note_off_c, 7, 82, 0
9, 24720, Note_on_c, 7, 77, 75
9, 24762, Note_off_c, 7, 77, 0
9, 24768, Note_on_c, 7, 80, 75
9, 24810, Note_off_c, 7, 80, 0
9, 24816, Note_on_c, 7, 86, 75
9, 24858, Note_off_c, 7, 86, 0
9, 24912, Note_on_c, 7, 75, 75
9, 24954, Note_off_c, 7, 75, 0
9, 24960, Note_on_c, 7, 79, 75
9, 25002, Note_off_c, 7, 79, 0
9, 25008, Note_on_c, 7, 84, 75
9, 25050, Note_off_c, 7, 84, 0
9, 25104, Note_on_c, 7, 74, 75
9, 25146, Note_off_c, 7, 74, 0
9, 25152, Note_on_c, 7, 77, 75
9, 25194, Note_off_c, 7, 77, 0
9, 25200, Note_on_c, 7, 82, 75
9, 25242, Note_off_c, 7, 82, 0
9, 25344, Note_on_c, 7, 72, 75
9, 25482, Note_off_c, 7, 72, 0
9, 25488, Note_on_c, 7, 62, 75
9, 25530, Note_off_c, 7, 62, 0
9, 25536, Note_on_c, 7, 65, 75
9, 25578, Note_off_c, 7, 65, 0
9, 25584, Note_on_c, 7, 70, 75
9, 25626, Note_off_c, 7, 70, 0
9, 25632, Note_on_c, 7, 74, 75
9, 25866, Note_off_c, 7, 74, 0
9, 25872, Note_on_c, 7, 64, 75
9, 25914, Note_off_c, 7, 64, 0
9, 25920, Note_on_c, 7, 67, 75
9, 25962, Note_off_c, 7, 67, 0
9, 25968, Note_on_c, 7, 72, 75
9, 26010, Note_off_c, 7, 72, 0
9, 26016, Note_on_c, 7, 76, 75
9, 26250, Note_off_c, 7, 76, 0
9, 26256, Note_on_c, 7, 65, 75
9, 26298, Note_off_c, 7, 65, 0
9, 26304, Note_on_c, 7, 69, 75
9, 26346, Note_off_c, 7, 69, 0
9, 26352, Note_on_c, 7, 74, 75
9, 26394, Note_off_c, 7, 74, 0
9, 26400, Note_on_c, 7, 77, 75
9, 26517, Note_off_c, 7, 77, 0
9, 26520, Note_on_c, 7, 76, 75
9, 26541, Note_off_c, 7, 76, 0
9, 26544, Note_on_c, 7, 77, 75
9, 26565, Note_off_c, 7, 77, 0
9, 26568, Note_on_c, 7, 76, 75
9, 26589, Note_off_c, 7, 76, 0
9, 26592, Note_on_c, 7, 77, 75
9, 26709, Note_off_c, 7, 77, 0
9, 26712, Note_on_c, 7, 76, 75
9, 26733, Note_off_c, 7, 76, 0
9, 26736, Note_on_c, 7, 77, 75
9, 26757, Note_off_c, 7, 77, 0
9, 26760, Note_on_c, 7, 76, 75
9, 26781, Note_off_c, 7, 76, 0
9, 26784, Note_on_c, 7, 77, 75
9, 26868, Note_off_c, 7, 77, 0
9, 26928, Note_on_c, 7, 74, 75
9, 26970, Note_off_c, 7, 74, 0
9, 26976, Note_on_c, 7, 76, 75
9, 27018, Note_off_c, 7, 76, 0
9, 27024, Note_on_c, 7, 79, 75
9, 27066, Note_off_c, 7, 79, 0
9, 27072, Note_on_c, 7, 72, 75
9, 27114, Note_off_c, 7, 72, 0
9, 27120, Note_on_c, 7, 76, 75
9, 27162, Note_off_c, 7, 76, 0
9, 27168, Note_on_c, 7, 81, 75
9, 27189, Note_off_c, 7, 81, 0
9, 27192, Note_on_c, 7, 79, 75
9, 27213, Note_off_c, 7, 79, 0
9, 27216, Note_on_c, 7, 77, 75
9, 27237, Note_off_c, 7, 77, 0
9, 27240, Note_on_c, 7, 79, 75
9, 27261, Note_off_c, 7, 79, 0
9, 27264, Note_on_c, 7, 76, 75
9, 27327, Note_off_c, 7, 76, 0
9, 27336, Note_on_c, 7, 77, 75
9, 27357, Note_off_c, 7, 77, 0
9, 27360, Note_on_c, 7, 77, 75
9, 27402, Note_off_c, 7, 77, 0
9, 27408, Note_on_c, 7, 65, 75
9, 27450, Note_off_c, 7, 65, 0
9, 27456, Note_on_c, 7, 69, 75
9, 27498, Note_off_c, 7, 69, 0
9, 27504, Note_on_c, 7, 72, 75
9, 27546, Note_off_c, 7, 72, 0
9, 27552, Note_on_c, 7, 77, 75
9, 27594, Note_off_c, 7, 77, 0
9, 27600, Note_on_c, 7, 72, 75
9, 27642, Note_off_c, 7, 72, 0
9, 27648, Note_on_c, 7, 74, 75
9, 27690, Note_off_c, 7, 74, 0
9, 27696, Note_on_c, 7, 72, 75
9, 27717, Note_off_c, 7, 72, 0
9, 27720, Note_on_c, 7, 70, 75
9, 27741, Note_off_c, 7, 70, 0
9, 27744, Note_on_c, 7, 69, 75
9, 27765, Note_off_c, 7, 69, 0
9, 27768, Note_on_c, 7, 67, 75
9, 27789, Note_off_c, 7, 67, 0
9, 27792, Note_on_c, 7, 65, 75
9, 27813, Note_off_c, 7, 65, 0
9, 27816, Note_on_c, 7, 67, 75
9, 27837, Note_off_c, 7, 67, 0
9, 27840, Note_on_c, 7, 69, 75
9, 27861, Note_off_c, 7, 69, 0
9, 27864, Note_on_c, 7, 71, 75
9, 27885, Note_off_c, 7, 71, 0
9, 27888, Note_on_c, 7, 69, 75
9, 27909, Note_off_c, 7, 69, 0
9, 27912, Note_on_c, 7, 71, 75
9, 27933, Note_off_c, 7, 71, 0
9, 27936, Note_on_c, 7, 72, 75
9, 27957, Note_off_c, 7, 72, 0
9, 27960, Note_on_c, 7, 74, 75
9, 27981, Note_off_c, 7, 74, 0
9, 27984, Note_on_c, 7, 76, 75
9, 28005, Note_off_c, 7, 76, 0
9, 28008, Note_on_c, 7, 72, 75
9, 28029, Note_off_c, 7, 72, 0
9, 28032, Note_on_c, 7, 77, 75
9, 28053, Note_off_c, 7, 77, 0
9, 28056, Note_on_c, 7, 76, 75
9, 28077, Note_off_c, 7, 76, 0
9, 28080, Note_on_c, 7, 77, 75
9, 28101, Note_off_c, 7, 77, 0
9, 28104, Note_on_c, 7, 79, 75
9, 28125, Note_off_c, 7, 79, 0
9, 28128, Note_on_c, 7, 76, 75
9, 28149, Note_off_c, 7, 76, 0
9, 28152, Note_on_c, 7, 77, 75
9, 28173, Note_off_c, 7, 77, 0
9, 28176, Note_on_c, 7, 79, 75
9, 28197, Note_off_c, 7, 79, 0
9, 28200, Note_on_c, 7, 77, 75
9, 28221, Note_off_c, 7, 77, 0
9, 28224, Note_on_c, 7, 79, 75
9, 28245, Note_off_c, 7, 79, 0
9, 28248, Note_on_c, 7, 77, 75
9, 28269, Note_off_c, 7, 77, 0
9, 28272, Note_on_c, 7, 79, 75
9, 28293, Note_off_c, 7, 79, 0
9, 28296, Note_on_c, 7, 77, 75
9, 28317, Note_off_c, 7, 77, 0
9, 28320, Note_on_c, 7, 79, 75
9, 28341, Note_off_c, 7, 79, 0
9, 28344, Note_on_c, 7, 72, 75
9, 28365, Note_off_c, 7, 72, 0
9, 28368, Note_on_c, 7, 77, 75
9, 28389, Note_off_c, 7, 77, 0
9, 28392, Note_on_c, 7, 76, 75
9, 28413, Note_off_c, 7, 76, 0
9, 28416, Note_on_c, 7, 77, 75
9, 28437, Note_off_c, 7, 77, 0
9, 28440, Note_on_c, 7, 76, 75
9, 28461, Note_off_c, 7, 76, 0
9, 28464, Note_on_c, 7, 77, 75
9, 28485, Note_off_c, 7, 77, 0
9, 28488, Note_on_c, 7, 76, 75
9, 28509, Note_off_c, 7, 76, 0
9, 28512, Note_on_c, 7, 77, 75
9, 28533, Note_off_c, 7, 77, 0
9, 28536, Note_on_c, 7, 71, 75
9, 28557, Note_off_c, 7, 71, 0
9, 28560, Note_on_c, 7, 76, 75
9, 28581, Note_off_c, 7, 76, 0
9, 28584, Note_on_c, 7, 74, 75
9, 28605, Note_off_c, 7, 74, 0
9, 28608, Note_on_c, 7, 76, 75
9, 28629, Note_off_c, 7, 76, 0
9, 28632, Note_on_c, 7, 74, 75
9, 28653, Note_off_c, 7, 74, 0
9, 28656, Note_on_c, 7, 76, 75
9, 28677, Note_off_c, 7, 76, 0
9, 28680, Note_on_c, 7, 74, 75
9, 28701, Note_off_c, 7, 74, 0
9, 28704, Note_on_c, 7, 76, 75
9, 28725, Note_off_c, 7, 76, 0
9, 28728, Note_on_c, 7, 69, 75
9, 28749, Note_off_c, 7, 69, 0
9, 28752, Note_on_c, 7, 81, 75
9, 28773, Note_off_c, 7, 81, 0
9, 28776, Note_on_c, 7, 79, 75
9, 28797, Note_off_c, 7, 79, 0
9, 28800, Note_on_c, 7, 77, 75
9, 28821, Note_off_c, 7, 77, 0
9, 28824, Note_on_c, 7, 76, 75
9, 28845, Note_off_c, 7, 76, 0
9, 28848, Note_on_c, 7, 74, 75
9, 28869, Note_off_c, 7, 74, 0
9, 28872, Note_on_c, 7, 72, 75
9, 28893, Note_off_c, 7, 72, 0
9, 28896, Note_on_c, 7, 71, 75
9, 28917, Note_off_c, 7, 71, 0
9, 28920, Note_on_c, 7, 69, 75
9, 28941, Note_off_c, 7, 69, 0
9, 28944, Note_on_c, 7, 67, 75
9, 28965, Note_off_c, 7, 67, 0
9, 28968, Note_on_c, 7, 69, 75
9, 28989, Note_off_c, 7, 69, 0
9, 28992, Note_on_c, 7, 71, 75
9, 29013, Note_off_c, 7, 71, 0
9, 29016, Note_on_c, 7, 72, 75
9, 29037, Note_off_c, 7, 72, 0
9, 29040, Note_on_c, 7, 74, 75
9, 29061, Note_off_c, 7, 74, 0
9, 29064, Note_on_c, 7, 76, 75
9, 29085, Note_off_c, 7, 76, 0
9, 29088, Note_on_c, 7, 77, 75
9, 29151, Note_off_c, 7, 77, 0
9, 29160, Note_on_c, 7, 79, 75
9, 29181, Note_off_c, 7, 79, 0
9, 29184, Note_on_c, 7, 74, 75
9, 29247, Note_off_c, 7, 74, 0
9, 29256, Note_on_c, 7, 72, 75
9, 29277, Note_off_c, 7, 72, 0
9, 29280, Note_on_c, 7, 72, 75
9, 29322, Note_off_c, 7, 72, 0
9, 29520, Note_on_c, 7, 74, 75
9, 29541, Note_off_c, 7, 74, 0
9, 29544, Note_on_c, 7, 75, 75
9, 29565, Note_off_c, 7, 75, 0
9, 29568, Note_on_c, 7, 74, 75
9, 29589, Note_off_c, 7, 74, 0
9, 29592, Note_on_c, 7, 72, 75
9, 29613, Note_off_c, 7, 72, 0
9, 29616, Note_on_c, 7, 70, 75
9, 29637, Note_off_c, 7, 70, 0
9, 29640, Note_on_c, 7, 69, 75
9, 29661, Note_off_c, 7, 69, 0
9, 29664, Note_on_c, 7, 70, 75
9, 29706, Note_off_c, 7, 70, 0
9, 29712, Note_on_c, 7, 74, 75
9, 29754, Note_off_c, 7, 74, 0
9, 29760, Note_on_c, 7, 76, 75
9, 29802, Note_off_c, 7, 76, 0
9, 29808, Note_on_c, 7, 77, 75
9, 29850, Note_off_c, 7, 77, 0
9, 29856, Note_on_c, 7, 79, 75
9, 29898, Note_off_c, 7, 79, 0
9, 29904, Note_on_c, 7, 81, 75
9, 29925, Note_off_c, 7, 81, 0
9, 29928, Note_on_c, 7, 82, 75
9, 29949, Note_off_c, 7, 82, 0
9, 29952, Note_on_c, 7, 81, 75
9, 29973, Note_off_c, 7, 81, 0
9, 29976, Note_on_c, 7, 79, 75
9, 29997, Note_off_c, 7, 79, 0
9, 30000, Note_on_c, 7, 77, 75
9, 30021, Note_off_c, 7, 77, 0
9, 30024, Note_on_c, 7, 76, 75
9, 30045, Note_off_c, 7, 76, 0
9, 30048, Note_on_c, 7, 77, 75
9, 30069, Note_off_c, 7, 77, 0
9, 30072, Note_on_c, 7, 74, 75
9, 30093, Note_off_c, 7, 74, 0
9, 30096, Note_on_c, 7, 82, 75
9, 30117, Note_off_c, 7, 82, 0
9, 30120, Note_on_c, 7, 84, 75
9, 30141, Note_off_c, 7, 84, 0
9, 30144, Note_on_c, 7, 82, 75
9, 30165, Note_off_c, 7, 82, 0
9, 30168, Note_on_c, 7, 81, 75
9, 30189, Note_off_c, 7, 81, 0
9, 30192, Note_on_c, 7, 79, 75
9, 30213, Note_off_c, 7, 79, 0
9, 30216, Note_on_c, 7, 77, 75
9, 30237, Note_off_c, 7, 77, 0
9, 30240, Note_on_c, 7, 76, 75
9, 30282, Note_off_c, 7, 76, 0
9, 30288, Note_on_c, 7, 60, 75
9, 30330, Note_off_c, 7, 60, 0
9, 30336, Note_on_c, 7, 64, 75
9, 30378, Note_off_c, 7, 64, 0
9, 30384, Note_on_c, 7, 67, 75
9, 30426, Note_off_c, 7, 67, 0
9, 30432, Note_on_c, 7, 70, 75
9, 30474, Note_off_c, 7, 70, 0
9, 30480, Note_on_c, 7, 72, 75
9, 30501, Note_off_c, 7, 72, 0
9, 30504, Note_on_c, 7, 74, 75
9, 30525, Note_off_c, 7, 74, 0
9, 30528, Note_on_c, 7, 72, 75
9, 30549, Note_off_c, 7, 72, 0
9, 30552, Note_on_c, 7, 70, 75
9, 30573, Note_off_c, 7, 70, 0
9, 30576, Note_on_c, 7, 69, 75
9, 30597, Note_off_c, 7, 69, 0
9, 30600, Note_on_c, 7, 67, 75
9, 30621, Note_off_c, 7, 67, 0
9, 30624, Note_on_c, 7, 69, 75
9, 30666, Note_off_c, 7, 69, 0
9, 30672, Note_on_c, 7, 65, 75
9, 30714, Note_off_c, 7, 65, 0
9, 30720, Note_on_c, 7, 69, 75
9, 30762, Note_off_c, 7, 69, 0
9, 30768, Note_on_c, 7, 72, 75
9, 30810, Note_off_c, 7, 72, 0
9, 30816, Note_on_c, 7, 75, 75
9, 30858, Note_off_c, 7, 75, 0
9, 30864, Note_on_c, 7, 77, 75
9, 30885, Note_off_c, 7, 77, 0
9, 30888, Note_on_c, 7, 79, 75
9, 30909, Note_off_c, 7, 79, 0
9, 30912, Note_on_c, 7, 77, 75
9, 30933, Note_off_c, 7, 77, 0
9, 30936, Note_on_c, 7, 75, 75
9, 30957, Note_off_c, 7, 75, 0
9, 30960, Note_on_c, 7, 74, 75
9, 30981, Note_off_c, 7, 74, 0
9, 30984, Note_on_c, 7, 72, 75
9, 31005, Note_off_c, 7, 72, 0
9, 31008, Note_on_c, 7, 74, 75
9, 31050, Note_off_c, 7, 74, 0
9, 31056, Note_on_c, 7, 79, 75
9, 31077, Note_off_c, 7, 79, 0
9, 31080, Note_on_c, 7, 81, 75
9, 31101, Note_off_c, 7, 81, 0
9, 31104, Note_on_c, 7, 79, 75
9, 31125, Note_off_c, 7, 79, 0
9, 31128, Note_on_c, 7, 77, 75
9, 31149, Note_off_c, 7, 77, 0
9, 31152, Note_on_c, 7, 76, 75
9, 31173, Note_off_c, 7, 76, 0
9, 31176, Note_on_c, 7, 74, 75
9, 31197, Note_off_c, 7, 74, 0
9, 31200, Note_on_c, 7, 72, 75
9, 31263, Note_off_c, 7, 72, 0
9, 31272, Note_on_c, 7, 74, 75
9, 31293, Note_off_c, 7, 74, 0
9, 31296, Note_on_c, 7, 76, 75
9, 31317, Note_off_c, 7, 76, 0
9, 31320, Note_on_c, 7, 77, 75
9, 31341, Note_off_c, 7, 77, 0
9, 31344, Note_on_c, 7, 79, 75
9, 31365, Note_off_c, 7, 79, 0
9, 31368, Note_on_c, 7, 81, 75
9, 31389, Note_off_c, 7, 81, 0
9, 31392, Note_on_c, 7, 82, 75
9, 31413, Note_off_c, 7, 82, 0
9, 31416, Note_on_c, 7, 84, 75
9, 31426, Note_off_c, 7, 84, 0
9, 31428, Note_on_c, 7, 82, 75
9, 31438, Note_off_c, 7, 82, 0
9, 31440, Note_on_c, 7, 81, 75
9, 31450, Note_off_c, 7, 81, 0
9, 31452, Note_on_c, 7, 82, 75
9, 31462, Note_off_c, 7, 82, 0
9, 31464, Note_on_c, 7, 84, 75
9, 31485, Note_off_c, 7, 84, 0
9, 31488, Note_on_c, 7, 79, 75
9, 31551, Note_off_c, 7, 79, 0
9, 31560, Note_on_c, 7, 77, 75
9, 31581, Note_off_c, 7, 77, 0
9, 31584, Note_on_c, 7, 77, 75
9, 31605, Note_off_c, 7, 77, 0
9, 31608, Note_on_c, 7, 76, 75
9, 31629, Note_off_c, 7, 76, 0
9, 31632, Note_on_c, 7, 77, 75
9, 31653, Note_off_c, 7, 77, 0
9, 31656, Note_on_c, 7, 76, 75
9, 31677, Note_off_c, 7, 76, 0
9, 31680, Note_on_c, 7, 74, 75
9, 31701, Note_off_c, 7, 74, 0
9, 31704, Note_on_c, 7, 72, 75
9, 31725, Note_off_c, 7, 72, 0
9, 31728, Note_on_c, 7, 74, 75
9, 31749, Note_off_c, 7, 74, 0
9, 31752, Note_on_c, 7, 72, 75
9, 31773, Note_off_c, 7, 72, 0
9, 31776, Note_on_c, 7, 70, 75
9, 31797, Note_off_c, 7, 70, 0
9, 31800, Note_on_c, 7, 72, 75
9, 31810, Note_off_c, 7, 72, 0
9, 31812, Note_on_c, 7, 70, 75
9, 31822, Note_off_c, 7, 70, 0
9, 31824, Note_on_c, 7, 69, 75
9, 31834, Note_off_c, 7, 69, 0
9, 31836, Note_on_c, 7, 70, 75
9, 31846, Note_off_c, 7, 70, 0
9, 31848, Note_on_c, 7, 72, 75
9, 31869, Note_off_c, 7, 72, 0
9, 31872, Note_on_c, 7, 67, 75
9, 31935, Note_off_c, 7, 67, 0
9, 31944, Note_on_c, 7, 65, 75
9, 31965, Note_off_c, 7, 65, 0
9, 31968, Note_on_c, 7, 65, 75
9, 32010, Note_off_c, 7, 65, 0
9, 32016, Note_on_c, 7, 65, 75
9, 32058, Note_off_c, 7, 65, 0
9, 32064, Note_on_c, 7, 69, 75
9, 32106, Note_off_c, 7, 69, 0
9, 32112, Note_on_c, 7, 72, 75
9, 32154, Note_off_c, 7, 72, 0
9, 32160, Note_on_c, 7, 77, 75
9, 32340, Note_off_c, 7, 77, 0
9, 32340, End_track
10, 0, Start_track
10, 0, Title_t, "Violin II"
10, 0, Control_c, 8, 0, 0
10, 0, Program_c, 8, 40
10, 0, Time_signature, 4, 2, 96, 8
10, 0, Tempo, 681818
10, 144, Note_on_c, 8, 60, 75
10, 186, Note_off_c, 8, 60, 0
10, 192, Note_on_c, 8, 65, 75
10, 234, Note_off_c, 8, 65, 0
10, 240, Note_on_c, 8, 67, 75
10, 282, Note_off_c, 8, 67, 0
10, 288, Note_on_c, 8, 65, 75
10, 330, Note_off_c, 8, 65, 0
10, 336, Note_on_c, 8, 69, 75
10, 357, Note_off_c, 8, 69, 0
10, 360, Note_on_c, 8, 67, 75
10, 381, Note_off_c, 8, 67, 0
10, 384, Note_on_c, 8, 69, 75
10, 405, Note_off_c, 8, 69, 0
10, 408, Note_on_c, 8, 67, 75
10, 429, Note_off_c, 8, 67, 0
10, 432, Note_on_c, 8, 69, 75
10, 453, Note_off_c, 8, 69, 0
10, 456, Note_on_c, 8, 67, 75
10, 477, Note_off_c, 8, 67, 0
10, 480, Note_on_c, 8, 65, 75
10, 522, Note_off_c, 8, 65, 0
10, 528, Note_on_c, 8, 60, 75
10, 570, Note_off_c, 8, 60, 0
10, 576, Note_on_c, 8, 65, 75
10, 597, Note_off_c, 8, 65, 0
10, 600, Note_on_c, 8, 67, 75
10, 621, Note_off_c, 8, 67, 0
10, 624, Note_on_c, 8, 69, 75
10, 645, Note_off_c, 8, 69, 0
10, 648, Note_on_c, 8, 65, 75
10, 669, Note_off_c, 8, 65, 0
10, 672, Note_on_c, 8, 67, 75
10, 714, Note_off_c, 8, 67, 0
10, 720, Note_on_c, 8, 72, 75
10, 762, Note_off_c, 8, 72, 0
10, 768, Note_on_c, 8, 72, 75
10, 810, Note_off_c, 8, 72, 0
10, 816, Note_on_c, 8, 71, 75
10, 858, Note_off_c, 8, 71, 0
10, 864, Note_on_c, 8, 72, 75
10, 885, Note_off_c, 8, 72, 0
10, 888, Note_on_c, 8, 74, 75
10, 909, Note_off_c, 8, 74, 0
10, 912, Note_on_c, 8, 72, 75
10, 933, Note_off_c, 8, 72, 0
10, 936, Note_on_c, 8, 74, 75
10, 957, Note_off_c, 8, 74, 0
10, 960, Note_on_c, 8, 76, 75
10, 1098, Note_off_c, 8, 76, 0
10, 1104, Note_on_c, 8, 74, 75
10, 1125, Note_off_c, 8, 74, 0
10, 1128, Note_on_c, 8, 72, 75
10, 1149, Note_off_c, 8, 72, 0
10, 1152, Note_on_c, 8, 74, 75
10, 1290, Note_off_c, 8, 74, 0
10, 1296, Note_on_c, 8, 72, 75
10, 1317, Note_off_c, 8, 72, 0
10, 1320, Note_on_c, 8, 71, 75
10, 1341, Note_off_c, 8, 71, 0
10, 1344, Note_on_c, 8, 72, 75
10, 1461, Note_off_c, 8, 72, 0
10, 1464, Note_on_c, 8, 74, 75
10, 1485, Note_off_c, 8, 74, 0
10, 1488, Note_on_c, 8, 72, 75
10, 1509, Note_off_c, 8, 72, 0
10, 1512, Note_on_c, 8, 70, 75
10, 1533, Note_off_c, 8, 70, 0
10, 1536, Note_on_c, 8, 69, 75
10, 1557, Note_off_c, 8, 69, 0
10, 1560, Note_on_c, 8, 67, 75
10, 1581, Note_off_c, 8, 67, 0
10, 1584, Note_on_c, 8, 65, 75
10, 1605, Note_off_c, 8, 65, 0
10, 1608, Note_on_c, 8, 64, 75
10, 1629, Note_off_c, 8, 64, 0
10, 1632, Note_on_c, 8, 62, 75
10, 1716, Note_off_c, 8, 62, 0
10, 1776, Note_on_c, 8, 77, 75
10, 1818, Note_off_c, 8, 77, 0
10, 1824, Note_on_c, 8, 71, 75
10, 1866, Note_off_c, 8, 71, 0
10, 1872, Note_on_c, 8, 72, 75
10, 1893, Note_off_c, 8, 72, 0
10, 1896, Note_on_c, 8, 74, 75
10, 1917, Note_off_c, 8, 74, 0
10, 1920, Note_on_c, 8, 71, 75
10, 1983, Note_off_c, 8, 71, 0
10, 1992, Note_on_c, 8, 72, 75
10, 2013, Note_off_c, 8, 72, 0
10, 2016, Note_on_c, 8, 67, 75
10, 2058, Note_off_c, 8, 67, 0
10, 2256, Note_on_c, 8, 66, 75
10, 2298, Note_off_c, 8, 66, 0
10, 2304, Note_on_c, 8, 67, 75
10, 2346, Note_off_c, 8, 67, 0
10, 2352, Note_on_c, 8, 69, 75
10, 2394, Note_off_c, 8, 69, 0
10, 2400, Note_on_c, 8, 67, 75
10, 2442, Note_off_c, 8, 67, 0
10, 2448, Note_on_c, 8, 70, 75
10, 2490, Note_off_c, 8, 70, 0
10, 2496, Note_on_c, 8, 67, 75
10, 2538, Note_off_c, 8, 67, 0
10, 2544, Note_on_c, 8, 69, 75
10, 2586, Note_off_c, 8, 69, 0
10, 2592, Note_on_c, 8, 70, 75
10, 2634, Note_off_c, 8, 70, 0
10, 2640, Note_on_c, 8, 72, 75
10, 2682, Note_off_c, 8, 72, 0
10, 2688, Note_on_c, 8, 74, 75
10, 2730, Note_off_c, 8, 74, 0
10, 2736, Note_on_c, 8, 76, 75
10, 2778, Note_off_c, 8, 76, 0
10, 2784, Note_on_c, 8, 69, 75
10, 2826, Note_off_c, 8, 69, 0
10, 2832, Note_on_c, 8, 74, 75
10, 2853, Note_off_c, 8, 74, 0
10, 2856, Note_on_c, 8, 75, 75
10, 2877, Note_off_c, 8, 75, 0
10, 2880, Note_on_c, 8, 74, 75
10, 2901, Note_off_c, 8, 74, 0
10, 2904, Note_on_c, 8, 72, 75
10, 2925, Note_off_c, 8, 72, 0
10, 2928, Note_on_c, 8, 70, 75
10, 2949, Note_off_c, 8, 70, 0
10, 2952, Note_on_c, 8, 69, 75
10, 2973, Note_off_c, 8, 69, 0
10, 2976, Note_on_c, 8, 67, 75
10, 3018, Note_off_c, 8, 67, 0
10, 3024, Note_on_c, 8, 55, 75
10, 3066, Note_off_c, 8, 55, 0
10, 3072, Note_on_c, 8, 60, 75
10, 3114, Note_off_c, 8, 60, 0
10, 3120, Note_on_c, 8, 64, 75
10, 3162, Note_off_c, 8, 64, 0
10, 3168, Note_on_c, 8, 67, 75
10, 3210, Note_off_c, 8, 67, 0
10, 3216, Note_on_c, 8, 69, 75
10, 3237, Note_off_c, 8, 69, 0
10, 3240, Note_on_c, 8, 70, 75
10, 3261, Note_off_c, 8, 70, 0
10, 3264, Note_on_c, 8, 69, 75
10, 3306, Note_off_c, 8, 69, 0
10, 3312, Note_on_c, 8, 67, 75
10, 3354, Note_off_c, 8, 67, 0
10, 3360, Note_on_c, 8, 65, 75
10, 3402, Note_off_c, 8, 65, 0
10, 3408, Note_on_c, 8, 60, 75
10, 3450, Note_off_c, 8, 60, 0
10, 3456, Note_on_c, 8, 65, 75
10, 3498, Note_off_c, 8, 65, 0
10, 3504, Note_on_c, 8, 69, 75
10, 3546, Note_off_c, 8, 69, 0
10, 3552, Note_on_c, 8, 72, 75
10, 3594, Note_off_c, 8, 72, 0
10, 3600, Note_on_c, 8, 74, 75
10, 3621, Note_off_c, 8, 74, 0
10, 3624, Note_on_c, 8, 75, 75
10, 3645, Note_off_c, 8, 75, 0
10, 3648, Note_on_c, 8, 74, 75
10, 3690, Note_off_c, 8, 74, 0
10, 3696, Note_on_c, 8, 72, 75
10, 3738, Note_off_c, 8, 72, 0
10, 3744, Note_on_c, 8, 70, 75
10, 3786, Note_off_c, 8, 70, 0
10, 3792, Note_on_c, 8, 74, 75
10, 3813, Note_off_c, 8, 74, 0
10, 3816, Note_on_c, 8, 75, 75
10, 3837, Note_off_c, 8, 75, 0
10, 3840, Note_on_c, 8, 74, 75
10, 3882, Note_off_c, 8, 74, 0
10, 3888, Note_on_c, 8, 70, 75
10, 3930, Note_off_c, 8, 70, 0
10, 3936, Note_on_c, 8, 67, 75
10, 3999, Note_off_c, 8, 67, 0
10, 4008, Note_on_c, 8, 69, 75
10, 4029, Note_off_c, 8, 69, 0
10, 4032, Note_on_c, 8, 70, 75
10, 4053, Note_off_c, 8, 70, 0
10, 4056, Note_on_c, 8, 69, 75
10, 4077, Note_off_c, 8, 69, 0
10, 4080, Note_on_c, 8, 67, 75
10, 4101, Note_off_c, 8, 67, 0
10, 4104, Note_on_c, 8, 65, 75
10, 4125, Note_off_c, 8, 65, 0
10, 4128, Note_on_c, 8, 64, 75
10, 4170, Note_off_c, 8, 64, 0
10, 4176, Note_on_c, 8, 65, 75
10, 4197, Note_off_c, 8, 65, 0
10, 4200, Note_on_c, 8, 67, 75
10, 4221, Note_off_c, 8, 67, 0
10, 4224, Note_on_c, 8, 64, 75
10, 4287, Note_off_c, 8, 64, 0
10, 4296, Note_on_c, 8, 65, 75
10, 4317, Note_off_c, 8, 65, 0
10, 4320, Note_on_c, 8, 65, 75
10, 4362, Note_off_c, 8, 65, 0
10, 4368, Note_on_c, 8, 69, 75
10, 4410, Note_off_c, 8, 69, 0
10, 4416, Note_on_c, 8, 70, 75
10, 4458, Note_off_c, 8, 70, 0
10, 4464, Note_on_c, 8, 62, 75
10, 4506, Note_off_c, 8, 62, 0
10, 4512, Note_on_c, 8, 62, 75
10, 4533, Note_off_c, 8, 62, 0
10, 4536, Note_on_c, 8, 64, 75
10, 4557, Note_off_c, 8, 64, 0
10, 4560, Note_on_c, 8, 65, 75
10, 4581, Note_off_c, 8, 65, 0
10, 4584, Note_on_c, 8, 67, 75
10, 4605, Note_off_c, 8, 67, 0
10, 4608, Note_on_c, 8, 64, 75
10, 4671, Note_off_c, 8, 64, 0
10, 4680, Note_on_c, 8, 65, 75
10, 4701, Note_off_c, 8, 65, 0
10, 4704, Note_on_c, 8, 65, 75
10, 4788, Note_off_c, 8, 65, 0
10, 4848, Note_on_c, 8, 60, 75
10, 4890, Note_off_c, 8, 60, 0
10, 4896, Note_on_c, 8, 62, 75
10, 4938, Note_off_c, 8, 62, 0
10, 4944, Note_on_c, 8, 57, 75
10, 4986, Note_off_c, 8, 57, 0
10, 4992, Note_on_c, 8, 58, 75
10, 5034, Note_off_c, 8, 58, 0
10, 5040, Note_on_c, 8, 60, 75
10, 5082, Note_off_c, 8, 60, 0
10, 5088, Note_on_c, 8, 65, 75
10, 5130, Note_off_c, 8, 65, 0
10, 5136, Note_on_c, 8, 72, 75
10, 5157, Note_off_c, 8, 72, 0
10, 5160, Note_on_c, 8, 74, 75
10, 5181, Note_off_c, 8, 74, 0
10, 5184, Note_on_c, 8, 72, 75
10, 5205, Note_off_c, 8, 72, 0
10, 5208, Note_on_c, 8, 74, 75
10, 5229, Note_off_c, 8, 74, 0
10, 5232, Note_on_c, 8, 72, 75
10, 5253, Note_off_c, 8, 72, 0
10, 5256, Note_on_c, 8, 74, 75
10, 5277, Note_off_c, 8, 74, 0
10, 5280, Note_on_c, 8, 72, 75
10, 5364, Note_off_c, 8, 72, 0
10, 5520, Note_on_c, 8, 79, 75
10, 5541, Note_off_c, 8, 79, 0
10, 5544, Note_on_c, 8, 77, 75
10, 5565, Note_off_c, 8, 77, 0
10, 5568, Note_on_c, 8, 79, 75
10, 5589, Note_off_c, 8, 79, 0
10, 5592, Note_on_c, 8, 77, 75
10, 5613, Note_off_c, 8, 77, 0
10, 5616, Note_on_c, 8, 79, 75
10, 5637, Note_off_c, 8, 79, 0
10, 5640, Note_on_c, 8, 77, 75
10, 5661, Note_off_c, 8, 77, 0
10, 5664, Note_on_c, 8, 76, 75
10, 5685, Note_off_c, 8, 76, 0
10, 5688, Note_on_c, 8, 74, 75
10, 5709, Note_off_c, 8, 74, 0
10, 5712, Note_on_c, 8, 76, 75
10, 5733, Note_off_c, 8, 76, 0
10, 5736, Note_on_c, 8, 74, 75
10, 5757, Note_off_c, 8, 74, 0
10, 5760, Note_on_c, 8, 76, 75
10, 5781, Note_off_c, 8, 76, 0
10, 5784, Note_on_c, 8, 74, 75
10, 5805, Note_off_c, 8, 74, 0
10, 5808, Note_on_c, 8, 76, 75
10, 5829, Note_off_c, 8, 76, 0
10, 5832, Note_on_c, 8, 74, 75
10, 5853, Note_off_c, 8, 74, 0
10, 5856, Note_on_c, 8, 72, 75
10, 5877, Note_off_c, 8, 72, 0
10, 5880, Note_on_c, 8, 71, 75
10, 5901, Note_off_c, 8, 71, 0
10, 5904, Note_on_c, 8, 72, 75
10, 5925, Note_off_c, 8, 72, 0
10, 5928, Note_on_c, 8, 71, 75
10, 5949, Note_off_c, 8, 71, 0
10, 5952, Note_on_c, 8, 72, 75
10, 5973, Note_off_c, 8, 72, 0
10, 5976, Note_on_c, 8, 74, 75
10, 5997, Note_off_c, 8, 74, 0
10, 6000, Note_on_c, 8, 76, 75
10, 6090, Note_off_c, 8, 76, 0
10, 6096, Note_on_c, 8, 74, 75
10, 6117, Note_off_c, 8, 74, 0
10, 6120, Note_on_c, 8, 72, 75
10, 6141, Note_off_c, 8, 72, 0
10, 6144, Note_on_c, 8, 74, 75
10, 6420, Note_off_c, 8, 74, 0
10, 6432, Note_on_c, 8, 72, 75
10, 6453, Note_off_c, 8, 72, 0
10, 6456, Note_on_c, 8, 71, 75
10, 6477, Note_off_c, 8, 71, 0
10, 6480, Note_on_c, 8, 72, 75
10, 6501, Note_off_c, 8, 72, 0
10, 6504, Note_on_c, 8, 74, 75
10, 6525, Note_off_c, 8, 74, 0
10, 6528, Note_on_c, 8, 67, 75
10, 6570, Note_off_c, 8, 67, 0
10, 6576, Note_on_c, 8, 67, 75
10, 6618, Note_off_c, 8, 67, 0
10, 6624, Note_on_c, 8, 67, 75
10, 6666, Note_off_c, 8, 67, 0
10, 6672, Note_on_c, 8, 64, 75
10, 6714, Note_off_c, 8, 64, 0
10, 6720, Note_on_c, 8, 66, 75
10, 6762, Note_off_c, 8, 66, 0
10, 6768, Note_on_c, 8, 67, 75
10, 6810, Note_off_c, 8, 67, 0
10, 6816, Note_on_c, 8, 69, 75
10, 6858, Note_off_c, 8, 69, 0
10, 6864, Note_on_c, 8, 66, 75
10, 6906, Note_off_c, 8, 66, 0
10, 6912, Note_on_c, 8, 67, 75
10, 6954, Note_off_c, 8, 67, 0
10, 6960, Note_on_c, 8, 69, 75
10, 7002, Note_off_c, 8, 69, 0
10, 7008, Note_on_c, 8, 62, 75
10, 7092, Note_off_c, 8, 62, 0
10, 7800, Note_on_c, 8, 69, 75
10, 7821, Note_off_c, 8, 69, 0
10, 7824, Note_on_c, 8, 70, 75
10, 7845, Note_off_c, 8, 70, 0
10, 7848, Note_on_c, 8, 72, 75
10, 7869, Note_off_c, 8, 72, 0
10, 7872, Note_on_c, 8, 74, 75
10, 8010, Note_off_c, 8, 74, 0
10, 8016, Note_on_c, 8, 72, 75
10, 8037, Note_off_c, 8, 72, 0
10, 8040, Note_on_c, 8, 70, 75
10, 8061, Note_off_c, 8, 70, 0
10, 8064, Note_on_c, 8, 72, 75
10, 8202, Note_off_c, 8, 72, 0
10, 8208, Note_on_c, 8, 70, 75
10, 8229, Note_off_c, 8, 70, 0
10, 8232, Note_on_c, 8, 69, 75
10, 8253, Note_off_c, 8, 69, 0
10, 8256, Note_on_c, 8, 70, 75
10, 8373, Note_off_c, 8, 70, 0
10, 8376, Note_on_c, 8, 72, 75
10, 8397, Note_off_c, 8, 72, 0
10, 8400, Note_on_c, 8, 70, 75
10, 8421, Note_off_c, 8, 70, 0
10, 8424, Note_on_c, 8, 68, 75
10, 8445, Note_off_c, 8, 68, 0
10, 8448, Note_on_c, 8, 67, 75
10, 8469, Note_off_c, 8, 67, 0
10, 8472, Note_on_c, 8, 65, 75
10, 8493, Note_off_c, 8, 65, 0
10, 8496, Note_on_c, 8, 63, 75
10, 8517, Note_off_c, 8, 63, 0
10, 8520, Note_on_c, 8, 62, 75
10, 8541, Note_off_c, 8, 62, 0
10, 8544, Note_on_c, 8, 60, 75
10, 8628, Note_off_c, 8, 60, 0
10, 8688, Note_on_c, 8, 75, 75
10, 8730, Note_off_c, 8, 75, 0
10, 8736, Note_on_c, 8, 69, 75
10, 8778, Note_off_c, 8, 69, 0
10, 8784, Note_on_c, 8, 70, 75
10, 8805, Note_off_c, 8, 70, 0
10, 8808, Note_on_c, 8, 72, 75
10, 8829, Note_off_c, 8, 72, 0
10, 8832, Note_on_c, 8, 70, 75
10, 8842, Note_off_c, 8, 70, 0
10, 8844, Note_on_c, 8, 69, 75
10, 8854, Note_off_c, 8, 69, 0
10, 8856, Note_on_c, 8, 70, 75
10, 8866, Note_off_c, 8, 70, 0
10, 8868, Note_on_c, 8, 69, 75
10, 8878, Note_off_c, 8, 69, 0
10, 8880, Note_on_c, 8, 70, 75
10, 8890, Note_off_c, 8, 70, 0
10, 8892, Note_on_c, 8, 69, 75
10, 8902, Note_off_c, 8, 69, 0
10, 8904, Note_on_c, 8, 65, 75
10, 8925, Note_off_c, 8, 65, 0
10, 8928, Note_on_c, 8, 65, 75
10, 9012, Note_off_c, 8, 65, 0
10, 9744, Note_on_c, 8, 67, 75
10, 9765, Note_off_c, 8, 67, 0
10, 9768, Note_on_c, 8, 65, 75
10, 9789, Note_off_c, 8, 65, 0
10, 9792, Note_on_c, 8, 67, 75
10, 9813, Note_off_c, 8, 67, 0
10, 9816, Note_on_c, 8, 69, 75
10, 9837, Note_off_c, 8, 69, 0
10, 9840, Note_on_c, 8, 67, 75
10, 9861, Note_off_c, 8, 67, 0
10, 9864, Note_on_c, 8, 65, 75
10, 9885, Note_off_c, 8, 65, 0
10, 9888, Note_on_c, 8, 64, 75
10, 9909, Note_off_c, 8, 64, 0
10, 9912, Note_on_c, 8, 62, 75
10, 9933, Note_off_c, 8, 62, 0
10, 9936, Note_on_c, 8, 61, 75
10, 9957, Note_off_c, 8, 61, 0
10, 9960, Note_on_c, 8, 62, 75
10, 9981, Note_off_c, 8, 62, 0
10, 9984, Note_on_c, 8, 64, 75
10, 10005, Note_off_c, 8, 64, 0
10, 10008, Note_on_c, 8, 62, 75
10, 10029, Note_off_c, 8, 62, 0
10, 10032, Note_on_c, 8, 64, 75
10, 10053, Note_off_c, 8, 64, 0
10, 10056, Note_on_c, 8, 61, 75
10, 10077, Note_off_c, 8, 61, 0
10, 10080, Note_on_c, 8, 62, 75
10, 10122, Note_off_c, 8, 62, 0
10, 10128, Note_on_c, 8, 57, 75
10, 10170, Note_off_c, 8, 57, 0
10, 10176, Note_on_c, 8, 62, 75
10, 10218, Note_off_c, 8, 62, 0
10, 10224, Note_on_c, 8, 65, 75
10, 10266, Note_off_c, 8, 65, 0
10, 10272, Note_on_c, 8, 62, 75
10, 10314, Note_off_c, 8, 62, 0
10, 10320, Note_on_c, 8, 65, 75
10, 10341, Note_off_c, 8, 65, 0
10, 10344, Note_on_c, 8, 64, 75
10, 10365, Note_off_c, 8, 64, 0
10, 10368, Note_on_c, 8, 65, 75
10, 10389, Note_off_c, 8, 65, 0
10, 10392, Note_on_c, 8, 64, 75
10, 10413, Note_off_c, 8, 64, 0
10, 10416, Note_on_c, 8, 65, 75
10, 10437, Note_off_c, 8, 65, 0
10, 10440, Note_on_c, 8, 64, 75
10, 10461, Note_off_c, 8, 64, 0
10, 10464, Note_on_c, 8, 62, 75
10, 10506, Note_off_c, 8, 62, 0
10, 10512, Note_on_c, 8, 65, 75
10, 10533, Note_off_c, 8, 65, 0
10, 10536, Note_on_c, 8, 64, 75
10, 10557, Note_off_c, 8, 64, 0
10, 10560, Note_on_c, 8, 62, 75
10, 10581, Note_off_c, 8, 62, 0
10, 10584, Note_on_c, 8, 64, 75
10, 10605, Note_off_c, 8, 64, 0
10, 10608, Note_on_c, 8, 65, 75
10, 10629, Note_off_c, 8, 65, 0
10, 10632, Note_on_c, 8, 62, 75
10, 10653, Note_off_c, 8, 62, 0
10, 10656, Note_on_c, 8, 64, 75
10, 10698, Note_off_c, 8, 64, 0
10, 10704, Note_on_c, 8, 69, 75
10, 10746, Note_off_c, 8, 69, 0
10, 10752, Note_on_c, 8, 65, 75
10, 10794, Note_off_c, 8, 65, 0
10, 10800, Note_on_c, 8, 70, 75
10, 10842, Note_off_c, 8, 70, 0
10, 10848, Note_on_c, 8, 69, 75
10, 10890, Note_off_c, 8, 69, 0
10, 10896, Note_on_c, 8, 64, 75
10, 10938, Note_off_c, 8, 64, 0
10, 10944, Note_on_c, 8, 69, 75
10, 10986, Note_off_c, 8, 69, 0
10, 10992, Note_on_c, 8, 73, 75
10, 11034, Note_off_c, 8, 73, 0
10, 11040, Note_on_c, 8, 76, 75
10, 11082, Note_off_c, 8, 76, 0
10, 11088, Note_on_c, 8, 73, 75
10, 11130, Note_off_c, 8, 73, 0
10, 11136, Note_on_c, 8, 74, 75
10, 11178, Note_off_c, 8, 74, 0
10, 11184, Note_on_c, 8, 76, 75
10, 11226, Note_off_c, 8, 76, 0
10, 11232, Note_on_c, 8, 69, 75
10, 11274, Note_off_c, 8, 69, 0
10, 11280, Note_on_c, 8, 57, 75
10, 11322, Note_off_c, 8, 57, 0
10, 11328, Note_on_c, 8, 62, 75
10, 11370, Note_off_c, 8, 62, 0
10, 11376, Note_on_c, 8, 66, 75
10, 11418, Note_off_c, 8, 66, 0
10, 11424, Note_on_c, 8, 69, 75
10, 11466, Note_off_c, 8, 69, 0
10, 11472, Note_on_c, 8, 78, 75
10, 11514, Note_off_c, 8, 78, 0
10, 11520, Note_on_c, 8, 79, 75
10, 11562, Note_off_c, 8, 79, 0
10, 11568, Note_on_c, 8, 81, 75
10, 11610, Note_off_c, 8, 81, 0
10, 11616, Note_on_c, 8, 74, 75
10, 11658, Note_off_c, 8, 74, 0
10, 11664, Note_on_c, 8, 72, 75
10, 11706, Note_off_c, 8, 72, 0
10, 11712, Note_on_c, 8, 74, 75
10, 11754, Note_off_c, 8, 74, 0
10, 11760, Note_on_c, 8, 70, 75
10, 11802, Note_off_c, 8, 70, 0
10, 11808, Note_on_c, 8, 69, 75
10, 11850, Note_off_c, 8, 69, 0
10, 11856, Note_on_c, 8, 64, 75
10, 11898, Note_off_c, 8, 64, 0
10, 11904, Note_on_c, 8, 69, 75
10, 11925, Note_off_c, 8, 69, 0
10, 11928, Note_on_c, 8, 71, 75
10, 11949, Note_off_c, 8, 71, 0
10, 11952, Note_on_c, 8, 73, 75
10, 11973, Note_off_c, 8, 73, 0
10, 11976, Note_on_c, 8, 74, 75
10, 11997, Note_off_c, 8, 74, 0
10, 12000, Note_on_c, 8, 76, 75
10, 12084, Note_off_c, 8, 76, 0
10, 12144, Note_on_c, 8, 76, 75
10, 12213, Note_off_c, 8, 76, 0
10, 12216, Note_on_c, 8, 69, 75
10, 12237, Note_off_c, 8, 69, 0
10, 12240, Note_on_c, 8, 74, 75
10, 12261, Note_off_c, 8, 74, 0
10, 12264, Note_on_c, 8, 76, 75
10, 12285, Note_off_c, 8, 76, 0
10, 12288, Note_on_c, 8, 73, 75
10, 12351, Note_off_c, 8, 73, 0
10, 12360, Note_on_c, 8, 74, 75
10, 12381, Note_off_c, 8, 74, 0
10, 12384, Note_on_c, 8, 74, 75
10, 12468, Note_off_c, 8, 74, 0
10, 12816, Note_on_c, 8, 67, 75
10, 12858, Note_off_c, 8, 67, 0
10, 12864, Note_on_c, 8, 65, 75
10, 12906, Note_off_c, 8, 65, 0
10, 12912, Note_on_c, 8, 64, 75
10, 12954, Note_off_c, 8, 64, 0
10, 12960, Note_on_c, 8, 62, 75
10, 13002, Note_off_c, 8, 62, 0
10, 13008, Note_on_c, 8, 60, 75
10, 13050, Note_off_c, 8, 60, 0
10, 13056, Note_on_c, 8, 59, 75
10, 13098, Note_off_c, 8, 59, 0
10, 13104, Note_on_c, 8, 57, 75
10, 13146, Note_off_c, 8, 57, 0
10, 13152, Note_on_c, 8, 60, 75
10, 13194, Note_off_c, 8, 60, 0
10, 13200, Note_on_c, 8, 76, 75
10, 13221, Note_off_c, 8, 76, 0
10, 13224, Note_on_c, 8, 74, 75
10, 13245, Note_off_c, 8, 74, 0
10, 13248, Note_on_c, 8, 76, 75
10, 13269, Note_off_c, 8, 76, 0
10, 13272, Note_on_c, 8, 74, 75
10, 13293, Note_off_c, 8, 74, 0
10, 13296, Note_on_c, 8, 76, 75
10, 13317, Note_off_c, 8, 76, 0
10, 13320, Note_on_c, 8, 77, 75
10, 13341, Note_off_c, 8, 77, 0
10, 13344, Note_on_c, 8, 79, 75
10, 13365, Note_off_c, 8, 79, 0
10, 13368, Note_on_c, 8, 77, 75
10, 13389, Note_off_c, 8, 77, 0
10, 13392, Note_on_c, 8, 79, 75
10, 13413, Note_off_c, 8, 79, 0
10, 13416, Note_on_c, 8, 81, 75
10, 13437, Note_off_c, 8, 81, 0
10, 13440, Note_on_c, 8, 79, 75
10, 13461, Note_off_c, 8, 79, 0
10, 13464, Note_on_c, 8, 81, 75
10, 13485, Note_off_c, 8, 81, 0
10, 13488, Note_on_c, 8, 79, 75
10, 13509, Note_off_c, 8, 79, 0
10, 13512, Note_on_c, 8, 81, 75
10, 13533, Note_off_c, 8, 81, 0
10, 13536, Note_on_c, 8, 77, 75
10, 13620, Note_off_c, 8, 77, 0
10, 13680, Note_on_c, 8, 69, 75
10, 13722, Note_off_c, 8, 69, 0
10, 13728, Note_on_c, 8, 69, 75
10, 13770, Note_off_c, 8, 69, 0
10, 13776, Note_on_c, 8, 70, 75
10, 13818, Note_off_c, 8, 70, 0
10, 13872, Note_on_c, 8, 67, 75
10, 13914, Note_off_c, 8, 67, 0
10, 13920, Note_on_c, 8, 67, 75
10, 13962, Note_off_c, 8, 67, 0
10, 13968, Note_on_c, 8, 69, 75
10, 14010, Note_off_c, 8, 69, 0
10, 14064, Note_on_c, 8, 65, 75
10, 14106, Note_off_c, 8, 65, 0
10, 14112, Note_on_c, 8, 65, 75
10, 14154, Note_off_c, 8, 65, 0
10, 14160, Note_on_c, 8, 67, 75
10, 14202, Note_off_c, 8, 67, 0
10, 14304, Note_on_c, 8, 69, 75
10, 14676, Note_off_c, 8, 69, 0
10, 14688, Note_on_c, 8, 71, 75
10, 15060, Note_off_c, 8, 71, 0
10, 15072, Note_on_c, 8, 72, 75
10, 15252, Note_off_c, 8, 72, 0
10, 15312, Note_on_c, 8, 60, 75
10, 15354, Note_off_c, 8, 60, 0
10, 15360, Note_on_c, 8, 66, 75
10, 15402, Note_off_c, 8, 66, 0
10, 15408, Note_on_c, 8, 69, 75
10, 15450, Note_off_c, 8, 69, 0
10, 15456, Note_on_c, 8, 72, 75
10, 15498, Note_off_c, 8, 72, 0
10, 15504, Note_on_c, 8, 66, 75
10, 15546, Note_off_c, 8, 66, 0
10, 15552, Note_on_c, 8, 69, 75
10, 15594, Note_off_c, 8, 69, 0
10, 15600, Note_on_c, 8, 72, 75
10, 15642, Note_off_c, 8, 72, 0
10, 15648, Note_on_c, 8, 72, 75
10, 15690, Note_off_c, 8, 72, 0
10, 15696, Note_on_c, 8, 75, 75
10, 15738, Note_off_c, 8, 75, 0
10, 15744, Note_on_c, 8, 69, 75
10, 15786, Note_off_c, 8, 69, 0
10, 15792, Note_on_c, 8, 74, 75
10, 15834, Note_off_c, 8, 74, 0
10, 15840, Note_on_c, 8, 74, 75
10, 15924, Note_off_c, 8, 74, 0
10, 15984, Note_on_c, 8, 71, 75
10, 16026, Note_off_c, 8, 71, 0
10, 16032, Note_on_c, 8, 67, 75
10, 16074, Note_off_c, 8, 67, 0
10, 16080, Note_on_c, 8, 69, 75
10, 16101, Note_off_c, 8, 69, 0
10, 16104, Note_on_c, 8, 71, 75
10, 16125, Note_off_c, 8, 71, 0
10, 16128, Note_on_c, 8, 71, 75
10, 16191, Note_off_c, 8, 71, 0
10, 16200, Note_on_c, 8, 69, 75
10, 16221, Note_off_c, 8, 69, 0
10, 16224, Note_on_c, 8, 67, 75
10, 16266, Note_off_c, 8, 67, 0
10, 16272, Note_on_c, 8, 55, 75
10, 16314, Note_off_c, 8, 55, 0
10, 16320, Note_on_c, 8, 60, 75
10, 16362, Note_off_c, 8, 60, 0
10, 16368, Note_on_c, 8, 62, 75
10, 16410, Note_off_c, 8, 62, 0
10, 16416, Note_on_c, 8, 60, 75
10, 16458, Note_off_c, 8, 60, 0
10, 16464, Note_on_c, 8, 64, 75
10, 16485, Note_off_c, 8, 64, 0
10, 16488, Note_on_c, 8, 62, 75
10, 16509, Note_off_c, 8, 62, 0
10, 16512, Note_on_c, 8, 64, 75
10, 16533, Note_off_c, 8, 64, 0
10, 16536, Note_on_c, 8, 62, 75
10, 16557, Note_off_c, 8, 62, 0
10, 16560, Note_on_c, 8, 64, 75
10, 16581, Note_off_c, 8, 64, 0
10, 16584, Note_on_c, 8, 62, 75
10, 16605, Note_off_c, 8, 62, 0
10, 16608, Note_on_c, 8, 60, 75
10, 16650, Note_off_c, 8, 60, 0
10, 16656, Note_on_c, 8, 64, 75
10, 16677, Note_off_c, 8, 64, 0
10, 16680, Note_on_c, 8, 62, 75
10, 16701, Note_off_c, 8, 62, 0
10, 16704, Note_on_c, 8, 60, 75
10, 16725, Note_off_c, 8, 60, 0
10, 16728, Note_on_c, 8, 62, 75
10, 16749, Note_off_c, 8, 62, 0
10, 16752, Note_on_c, 8, 64, 75
10, 16773, Note_off_c, 8, 64, 0
10, 16776, Note_on_c, 8, 60, 75
10, 16797, Note_off_c, 8, 60, 0
10, 16800, Note_on_c, 8, 62, 75
10, 16842, Note_off_c, 8, 62, 0
10, 16848, Note_on_c, 8, 67, 75
10, 16890, Note_off_c, 8, 67, 0
10, 16896, Note_on_c, 8, 67, 75
10, 16938, Note_off_c, 8, 67, 0
10, 16944, Note_on_c, 8, 66, 75
10, 16986, Note_off_c, 8, 66, 0
10, 16992, Note_on_c, 8, 67, 75
10, 17034, Note_off_c, 8, 67, 0
10, 17040, Note_on_c, 8, 59, 75
10, 17082, Note_off_c, 8, 59, 0
10, 17088, Note_on_c, 8, 62, 75
10, 17130, Note_off_c, 8, 62, 0
10, 17136, Note_on_c, 8, 67, 75
10, 17178, Note_off_c, 8, 67, 0
10, 17184, Note_on_c, 8, 71, 75
10, 17226, Note_off_c, 8, 71, 0
10, 17232, Note_on_c, 8, 76, 75
10, 17253, Note_off_c, 8, 76, 0
10, 17256, Note_on_c, 8, 74, 75
10, 17277, Note_off_c, 8, 74, 0
10, 17280, Note_on_c, 8, 72, 75
10, 17322, Note_off_c, 8, 72, 0
10, 17328, Note_on_c, 8, 71, 75
10, 17370, Note_off_c, 8, 71, 0
10, 17376, Note_on_c, 8, 69, 75
10, 17418, Note_off_c, 8, 69, 0
10, 17424, Note_on_c, 8, 61, 75
10, 17466, Note_off_c, 8, 61, 0
10, 17472, Note_on_c, 8, 64, 75
10, 17514, Note_off_c, 8, 64, 0
10, 17520, Note_on_c, 8, 69, 75
10, 17562, Note_off_c, 8, 69, 0
10, 17568, Note_on_c, 8, 73, 75
10, 17610, Note_off_c, 8, 73, 0
10, 17616, Note_on_c, 8, 73, 75
10, 17658, Note_off_c, 8, 73, 0
10, 17664, Note_on_c, 8, 74, 75
10, 17706, Note_off_c, 8, 74, 0
10, 17712, Note_on_c, 8, 67, 75
10, 17754, Note_off_c, 8, 67, 0
10, 17760, Note_on_c, 8, 69, 75
10, 17844, Note_off_c, 8, 69, 0
10, 17904, Note_on_c, 8, 64, 75
10, 17946, Note_off_c, 8, 64, 0
10, 17952, Note_on_c, 8, 69, 75
10, 18015, Note_off_c, 8, 69, 0
10, 18024, Note_on_c, 8, 70, 75
10, 18045, Note_off_c, 8, 70, 0
10, 18048, Note_on_c, 8, 68, 75
10, 18111, Note_off_c, 8, 68, 0
10, 18120, Note_on_c, 8, 69, 75
10, 18141, Note_off_c, 8, 69, 0
10, 18144, Note_on_c, 8, 69, 75
10, 18228, Note_off_c, 8, 69, 0
10, 18960, Note_on_c, 8, 73, 75
10, 18981, Note_off_c, 8, 73, 0
10, 18984, Note_on_c, 8, 71, 75
10, 19005, Note_off_c, 8, 71, 0
10, 19008, Note_on_c, 8, 73, 75
10, 19029, Note_off_c, 8, 73, 0
10, 19032, Note_on_c, 8, 74, 75
10, 19053, Note_off_c, 8, 74, 0
10, 19056, Note_on_c, 8, 76, 75
10, 19077, Note_off_c, 8, 76, 0
10, 19080, Note_on_c, 8, 73, 75
10, 19101, Note_off_c, 8, 73, 0
10, 19104, Note_on_c, 8, 74, 75
10, 19125, Note_off_c, 8, 74, 0
10, 19128, Note_on_c, 8, 76, 75
10, 19149, Note_off_c, 8, 76, 0
10, 19152, Note_on_c, 8, 78, 75
10, 19173, Note_off_c, 8, 78, 0
10, 19176, Note_on_c, 8, 79, 75
10, 19197, Note_off_c, 8, 79, 0
10, 19200, Note_on_c, 8, 81, 75
10, 19221, Note_off_c, 8, 81, 0
10, 19224, Note_on_c, 8, 79, 75
10, 19245, Note_off_c, 8, 79, 0
10, 19248, Note_on_c, 8, 78, 75
10, 19269, Note_off_c, 8, 78, 0
10, 19272, Note_on_c, 8, 81, 75
10, 19293, Note_off_c, 8, 81, 0
10, 19296, Note_on_c, 8, 74, 75
10, 19317, Note_off_c, 8, 74, 0
10, 19320, Note_on_c, 8, 72, 75
10, 19341, Note_off_c, 8, 72, 0
10, 19344, Note_on_c, 8, 74, 75
10, 19365, Note_off_c, 8, 74, 0
10, 19368, Note_on_c, 8, 75, 75
10, 19389, Note_off_c, 8, 75, 0
10, 19392, Note_on_c, 8, 74, 75
10, 19413, Note_off_c, 8, 74, 0
10, 19416, Note_on_c, 8, 72, 75
10, 19437, Note_off_c, 8, 72, 0
10, 19440, Note_on_c, 8, 70, 75
10, 19461, Note_off_c, 8, 70, 0
10, 19464, Note_on_c, 8, 69, 75
10, 19485, Note_off_c, 8, 69, 0
10, 19488, Note_on_c, 8, 67, 75
10, 19509, Note_off_c, 8, 67, 0
10, 19512, Note_on_c, 8, 75, 75
10, 19533, Note_off_c, 8, 75, 0
10, 19536, Note_on_c, 8, 74, 75
10, 19557, Note_off_c, 8, 74, 0
10, 19560, Note_on_c, 8, 72, 75
10, 19581, Note_off_c, 8, 72, 0
10, 19584, Note_on_c, 8, 72, 75
10, 19594, Note_off_c, 8, 72, 0
10, 19596, Note_on_c, 8, 70, 75
10, 19606, Note_off_c, 8, 70, 0
10, 19608, Note_on_c, 8, 72, 75
10, 19618, Note_off_c, 8, 72, 0
10, 19620, Note_on_c, 8, 70, 75
10, 19630, Note_off_c, 8, 70, 0
10, 19632, Note_on_c, 8, 69, 75
10, 19653, Note_off_c, 8, 69, 0
10, 19656, Note_on_c, 8, 67, 75
10, 19677, Note_off_c, 8, 67, 0
10, 19680, Note_on_c, 8, 67, 75
10, 19722, Note_off_c, 8, 67, 0
10, 19728, Note_on_c, 8, 62, 75
10, 19770, Note_off_c, 8, 62, 0
10, 19776, Note_on_c, 8, 67, 75
10, 19818, Note_off_c, 8, 67, 0
10, 19824, Note_on_c, 8, 69, 75
10, 19866, Note_off_c, 8, 69, 0
10, 19872, Note_on_c, 8, 67, 75
10, 19914, Note_off_c, 8, 67, 0
10, 19920, Note_on_c, 8, 70, 75
10, 19941, Note_off_c, 8, 70, 0
10, 19944, Note_on_c, 8, 69, 75
10, 19965, Note_off_c, 8, 69, 0
10, 19968, Note_on_c, 8, 70, 75
10, 19989, Note_off_c, 8, 70, 0
10, 19992, Note_on_c, 8, 69, 75
10, 20013, Note_off_c, 8, 69, 0
10, 20016, Note_on_c, 8, 70, 75
10, 20037, Note_off_c, 8, 70, 0
10, 20040, Note_on_c, 8, 69, 75
10, 20061, Note_off_c, 8, 69, 0
10, 20064, Note_on_c, 8, 67, 75
10, 20106, Note_off_c, 8, 67, 0
10, 21648, Note_on_c, 8, 60, 75
10, 21690, Note_off_c, 8, 60, 0
10, 21696, Note_on_c, 8, 65, 75
10, 21738, Note_off_c, 8, 65, 0
10, 21744, Note_on_c, 8, 67, 75
10, 21786, Note_off_c, 8, 67, 0
10, 21792, Note_on_c, 8, 65, 75
10, 21834, Note_off_c, 8, 65, 0
10, 21840, Note_on_c, 8, 69, 75
10, 21861, Note_off_c, 8, 69, 0
10, 21864, Note_on_c, 8, 67, 75
10, 21885, Note_off_c, 8, 67, 0
10, 21888, Note_on_c, 8, 69, 75
10, 21909, Note_off_c, 8, 69, 0
10, 21912, Note_on_c, 8, 67, 75
10, 21933, Note_off_c, 8, 67, 0
10, 21936, Note_on_c, 8, 69, 75
10, 21957, Note_off_c, 8, 69, 0
10, 21960, Note_on_c, 8, 67, 75
10, 21981, Note_off_c, 8, 67, 0
10, 21984, Note_on_c, 8, 65, 75
10, 22068, Note_off_c, 8, 65, 0
10, 22128, Note_on_c, 8, 60, 75
10, 22170, Note_off_c, 8, 60, 0
10, 22176, Note_on_c, 8, 62, 75
10, 22218, Note_off_c, 8, 62, 0
10, 22224, Note_on_c, 8, 57, 75
10, 22266, Note_off_c, 8, 57, 0
10, 22272, Note_on_c, 8, 58, 75
10, 22314, Note_off_c, 8, 58, 0
10, 22320, Note_on_c, 8, 60, 75
10, 22362, Note_off_c, 8, 60, 0
10, 22368, Note_on_c, 8, 65, 75
10, 22410, Note_off_c, 8, 65, 0
10, 22416, Note_on_c, 8, 72, 75
10, 22437, Note_off_c, 8, 72, 0
10, 22440, Note_on_c, 8, 74, 75
10, 22461, Note_off_c, 8, 74, 0
10, 22464, Note_on_c, 8, 72, 75
10, 22485, Note_off_c, 8, 72, 0
10, 22488, Note_on_c, 8, 74, 75
10, 22509, Note_off_c, 8, 74, 0
10, 22512, Note_on_c, 8, 72, 75
10, 22533, Note_off_c, 8, 72, 0
10, 22536, Note_on_c, 8, 74, 75
10, 22557, Note_off_c, 8, 74, 0
10, 22560, Note_on_c, 8, 72, 75
10, 22644, Note_off_c, 8, 72, 0
10, 22800, Note_on_c, 8, 79, 75
10, 22821, Note_off_c, 8, 79, 0
10, 22824, Note_on_c, 8, 77, 75
10, 22845, Note_off_c, 8, 77, 0
10, 22848, Note_on_c, 8, 79, 75
10, 22869, Note_off_c, 8, 79, 0
10, 22872, Note_on_c, 8, 77, 75
10, 22893, Note_off_c, 8, 77, 0
10, 22896, Note_on_c, 8, 79, 75
10, 22917, Note_off_c, 8, 79, 0
10, 22920, Note_on_c, 8, 77, 75
10, 22941, Note_off_c, 8, 77, 0
10, 22944, Note_on_c, 8, 76, 75
10, 22965, Note_off_c, 8, 76, 0
10, 22968, Note_on_c, 8, 74, 75
10, 22989, Note_off_c, 8, 74, 0
10, 22992, Note_on_c, 8, 76, 75
10, 23013, Note_off_c, 8, 76, 0
10, 23016, Note_on_c, 8, 74, 75
10, 23037, Note_off_c, 8, 74, 0
10, 23040, Note_on_c, 8, 76, 75
10, 23061, Note_off_c, 8, 76, 0
10, 23064, Note_on_c, 8, 74, 75
10, 23085, Note_off_c, 8, 74, 0
10, 23088, Note_on_c, 8, 76, 75
10, 23109, Note_off_c, 8, 76, 0
10, 23112, Note_on_c, 8, 74, 75
10, 23133, Note_off_c, 8, 74, 0
10, 23136, Note_on_c, 8, 72, 75
10, 23157, Note_off_c, 8, 72, 0
10, 23160, Note_on_c, 8, 71, 75
10, 23181, Note_off_c, 8, 71, 0
10, 23184, Note_on_c, 8, 72, 75
10, 23205, Note_off_c, 8, 72, 0
10, 23208, Note_on_c, 8, 71, 75
10, 23229, Note_off_c, 8, 71, 0
10, 23232, Note_on_c, 8, 72, 75
10, 23253, Note_off_c, 8, 72, 0
10, 23256, Note_on_c, 8, 74, 75
10, 23277, Note_off_c, 8, 74, 0
10, 23280, Note_on_c, 8, 76, 75
10, 23370, Note_off_c, 8, 76, 0
10, 23376, Note_on_c, 8, 74, 75
10, 23397, Note_off_c, 8, 74, 0
10, 23400, Note_on_c, 8, 72, 75
10, 23421, Note_off_c, 8, 72, 0
10, 23424, Note_on_c, 8, 74, 75
10, 23700, Note_off_c, 8, 74, 0
10, 23712, Note_on_c, 8, 72, 75
10, 23733, Note_off_c, 8, 72, 0
10, 23736, Note_on_c, 8, 71, 75
10, 23757, Note_off_c, 8, 71, 0
10, 23760, Note_on_c, 8, 72, 75
10, 23781, Note_off_c, 8, 72, 0
10, 23784, Note_on_c, 8, 74, 75
10, 23805, Note_off_c, 8, 74, 0
10, 23808, Note_on_c, 8, 67, 75
10, 23850, Note_off_c, 8, 67, 0
10, 23856, Note_on_c, 8, 67, 75
10, 23898, Note_off_c, 8, 67, 0
10, 23904, Note_on_c, 8, 67, 75
10, 23988, Note_off_c, 8, 67, 0
10, 24336, Note_on_c, 8, 72, 75
10, 24357, Note_off_c, 8, 72, 0
10, 24360, Note_on_c, 8, 70, 75
10, 24381, Note_off_c, 8, 70, 0
10, 24384, Note_on_c, 8, 72, 75
10, 24405, Note_off_c, 8, 72, 0
10, 24408, Note_on_c, 8, 70, 75
10, 24429, Note_off_c, 8, 70, 0
10, 24432, Note_on_c, 8, 72, 75
10, 24453, Note_off_c, 8, 72, 0
10, 24456, Note_on_c, 8, 74, 75
10, 24477, Note_off_c, 8, 74, 0
10, 24480, Note_on_c, 8, 75, 75
10, 24501, Note_off_c, 8, 75, 0
10, 24504, Note_on_c, 8, 74, 75
10, 24525, Note_off_c, 8, 74, 0
10, 24528, Note_on_c, 8, 75, 75
10, 24549, Note_off_c, 8, 75, 0
10, 24552, Note_on_c, 8, 77, 75
10, 24573, Note_off_c, 8, 77, 0
10, 24576, Note_on_c, 8, 75, 75
10, 24597, Note_off_c, 8, 75, 0
10, 24600, Note_on_c, 8, 77, 75
10, 24621, Note_off_c, 8, 77, 0
10, 24624, Note_on_c, 8, 75, 75
10, 24645, Note_off_c, 8, 75, 0
10, 24648, Note_on_c, 8, 77, 75
10, 24669, Note_off_c, 8, 77, 0
10, 24672, Note_on_c, 8, 74, 75
10, 24714, Note_off_c, 8, 74, 0
10, 24720, Note_on_c, 8, 74, 75
10, 24762, Note_off_c, 8, 74, 0
10, 24768, Note_on_c, 8, 77, 75
10, 24810, Note_off_c, 8, 77, 0
10, 24816, Note_on_c, 8, 80, 75
10, 24858, Note_off_c, 8, 80, 0
10, 24912, Note_on_c, 8, 70, 75
10, 24954, Note_off_c, 8, 70, 0
10, 24960, Note_on_c, 8, 75, 75
10, 25002, Note_off_c, 8, 75, 0
10, 25008, Note_on_c, 8, 79, 75
10, 25050, Note_off_c, 8, 79, 0
10, 25104, Note_on_c, 8, 69, 75
10, 25146, Note_off_c, 8, 69, 0
10, 25152, Note_on_c, 8, 74, 75
10, 25194, Note_off_c, 8, 74, 0
10, 25200, Note_on_c, 8, 77, 75
10, 25242, Note_off_c, 8, 77, 0
10, 25344, Note_on_c, 8, 69, 75
10, 25482, Note_off_c, 8, 69, 0
10, 25488, Note_on_c, 8, 58, 75
10, 25530, Note_off_c, 8, 58, 0
10, 25536, Note_on_c, 8, 62, 75
10, 25578, Note_off_c, 8, 62, 0
10, 25584, Note_on_c, 8, 65, 75
10, 25626, Note_off_c, 8, 65, 0
10, 25632, Note_on_c, 8, 70, 75
10, 25866, Note_off_c, 8, 70, 0
10, 25872, Note_on_c, 8, 60, 75
10, 25914, Note_off_c, 8, 60, 0
10, 25920, Note_on_c, 8, 64, 75
10, 25962, Note_off_c, 8, 64, 0
10, 25968, Note_on_c, 8, 67, 75
10, 26010, Note_off_c, 8, 67, 0
10, 26016, Note_on_c, 8, 72, 75
10, 26250, Note_off_c, 8, 72, 0
10, 26256, Note_on_c, 8, 62, 75
10, 26298, Note_off_c, 8, 62, 0
10, 26304, Note_on_c, 8, 65, 75
10, 26346, Note_off_c, 8, 65, 0
10, 26352, Note_on_c, 8, 69, 75
10, 26394, Note_off_c, 8, 69, 0
10, 26400, Note_on_c, 8, 74, 75
10, 26517, Note_off_c, 8, 74, 0
10, 26520, Note_on_c, 8, 72, 75
10, 26541, Note_off_c, 8, 72, 0
10, 26544, Note_on_c, 8, 74, 75
10, 26565, Note_off_c, 8, 74, 0
10, 26568, Note_on_c, 8, 72, 75
10, 26589, Note_off_c, 8, 72, 0
10, 26592, Note_on_c, 8, 74, 75
10, 26709, Note_off_c, 8, 74, 0
10, 26712, Note_on_c, 8, 72, 75
10, 26733, Note_off_c, 8, 72, 0
10, 26736, Note_on_c, 8, 74, 75
10, 26757, Note_off_c, 8, 74, 0
10, 26760, Note_on_c, 8, 72, 75
10, 26781, Note_off_c, 8, 72, 0
10, 26784, Note_on_c, 8, 71, 75
10, 26868, Note_off_c, 8, 71, 0
10, 26928, Note_on_c, 8, 71, 75
10, 26970, Note_off_c, 8, 71, 0
10, 26976, Note_on_c, 8, 67, 75
10, 27018, Note_off_c, 8, 67, 0
10, 27024, Note_on_c, 8, 76, 75
10, 27066, Note_off_c, 8, 76, 0
10, 27072, Note_on_c, 8, 67, 75
10, 27114, Note_off_c, 8, 67, 0
10, 27120, Note_on_c, 8, 72, 75
10, 27162, Note_off_c, 8, 72, 0
10, 27168, Note_on_c, 8, 77, 75
10, 27189, Note_off_c, 8, 77, 0
10, 27192, Note_on_c, 8, 76, 75
10, 27213, Note_off_c, 8, 76, 0
10, 27216, Note_on_c, 8, 74, 75
10, 27237, Note_off_c, 8, 74, 0
10, 27240, Note_on_c, 8, 76, 75
10, 27261, Note_off_c, 8, 76, 0
10, 27264, Note_on_c, 8, 72, 75
10, 27327, Note_off_c, 8, 72, 0
10, 27336, Note_on_c, 8, 72, 75
10, 27357, Note_off_c, 8, 72, 0
10, 27360, Note_on_c, 8, 72, 75
10, 27402, Note_off_c, 8, 72, 0
10, 27408, Note_on_c, 8, 60, 75
10, 27450, Note_off_c, 8, 60, 0
10, 27456, Note_on_c, 8, 65, 75
10, 27498, Note_off_c, 8, 65, 0
10, 27504, Note_on_c, 8, 67, 75
10, 27546, Note_off_c, 8, 67, 0
10, 27552, Note_on_c, 8, 65, 75
10, 27594, Note_off_c, 8, 65, 0
10, 27600, Note_on_c, 8, 69, 75
10, 27621, Note_off_c, 8, 69, 0
10, 27624, Note_on_c, 8, 67, 75
10, 27645, Note_off_c, 8, 67, 0
10, 27648, Note_on_c, 8, 69, 75
10, 27669, Note_off_c, 8, 69, 0
10, 27672, Note_on_c, 8, 67, 75
10, 27693, Note_off_c, 8, 67, 0
10, 27696, Note_on_c, 8, 69, 75
10, 27717, Note_off_c, 8, 69, 0
10, 27720, Note_on_c, 8, 67, 75
10, 27741, Note_off_c, 8, 67, 0
10, 27744, Note_on_c, 8, 65, 75
10, 27786, Note_off_c, 8, 65, 0
10, 27792, Note_on_c, 8, 60, 75
10, 27834, Note_off_c, 8, 60, 0
10, 27840, Note_on_c, 8, 65, 75
10, 27861, Note_off_c, 8, 65, 0
10, 27864, Note_on_c, 8, 67, 75
10, 27885, Note_off_c, 8, 67, 0
10, 27888, Note_on_c, 8, 69, 75
10, 27909, Note_off_c, 8, 69, 0
10, 27912, Note_on_c, 8, 65, 75
10, 27933, Note_off_c, 8, 65, 0
10, 27936, Note_on_c, 8, 67, 75
10, 27978, Note_off_c, 8, 67, 0
10, 27984, Note_on_c, 8, 72, 75
10, 28026, Note_off_c, 8, 72, 0
10, 28032, Note_on_c, 8, 72, 75
10, 28074, Note_off_c, 8, 72, 0
10, 28080, Note_on_c, 8, 71, 75
10, 28122, Note_off_c, 8, 71, 0
10, 28128, Note_on_c, 8, 72, 75
10, 28149, Note_off_c, 8, 72, 0
10, 28152, Note_on_c, 8, 74, 75
10, 28173, Note_off_c, 8, 74, 0
10, 28176, Note_on_c, 8, 72, 75
10, 28197, Note_off_c, 8, 72, 0
10, 28200, Note_on_c, 8, 74, 75
10, 28221, Note_off_c, 8, 74, 0
10, 28224, Note_on_c, 8, 76, 75
10, 28362, Note_off_c, 8, 76, 0
10, 28368, Note_on_c, 8, 74, 75
10, 28389, Note_off_c, 8, 74, 0
10, 28392, Note_on_c, 8, 72, 75
10, 28413, Note_off_c, 8, 72, 0
10, 28416, Note_on_c, 8, 74, 75
10, 28554, Note_off_c, 8, 74, 0
10, 28560, Note_on_c, 8, 72, 75
10, 28581, Note_off_c, 8, 72, 0
10, 28584, Note_on_c, 8, 71, 75
10, 28605, Note_off_c, 8, 71, 0
10, 28608, Note_on_c, 8, 72, 75
10, 28725, Note_off_c, 8, 72, 0
10, 28728, Note_on_c, 8, 74, 75
10, 28749, Note_off_c, 8, 74, 0
10, 28752, Note_on_c, 8, 72, 75
10, 28773, Note_off_c, 8, 72, 0
10, 28776, Note_on_c, 8, 70, 75
10, 28797, Note_off_c, 8, 70, 0
10, 28800, Note_on_c, 8, 69, 75
10, 28821, Note_off_c, 8, 69, 0
10, 28824, Note_on_c, 8, 67, 75
10, 28845, Note_off_c, 8, 67, 0
10, 28848, Note_on_c, 8, 65, 75
10, 28869, Note_off_c, 8, 65, 0
10, 28872, Note_on_c, 8, 64, 75
10, 28893, Note_off_c, 8, 64, 0
10, 28896, Note_on_c, 8, 62, 75
10, 28980, Note_off_c, 8, 62, 0
10, 29040, Note_on_c, 8, 77, 75
10, 29082, Note_off_c, 8, 77, 0
10, 29088, Note_on_c, 8, 71, 75
10, 29130, Note_off_c, 8, 71, 0
10, 29136, Note_on_c, 8, 72, 75
10, 29157, Note_off_c, 8, 72, 0
10, 29160, Note_on_c, 8, 74, 75
10, 29181, Note_off_c, 8, 74, 0
10, 29184, Note_on_c, 8, 71, 75
10, 29247, Note_off_c, 8, 71, 0
10, 29256, Note_on_c, 8, 67, 75
10, 29277, Note_off_c, 8, 67, 0
10, 29280, Note_on_c, 8, 67, 75
10, 29322, Note_off_c, 8, 67, 0
10, 29520, Note_on_c, 8, 66, 75
10, 29562, Note_off_c, 8, 66, 0
10, 29568, Note_on_c, 8, 67, 75
10, 29610, Note_off_c, 8, 67, 0
10, 29616, Note_on_c, 8, 69, 75
10, 29658, Note_off_c, 8, 69, 0
10, 29664, Note_on_c, 8, 62, 75
10, 29706, Note_off_c, 8, 62, 0
10, 29712, Note_on_c, 8, 70, 75
10, 29754, Note_off_c, 8, 70, 0
10, 29760, Note_on_c, 8, 67, 75
10, 29802, Note_off_c, 8, 67, 0
10, 29808, Note_on_c, 8, 69, 75
10, 29850, Note_off_c, 8, 69, 0
10, 29856, Note_on_c, 8, 70, 75
10, 29898, Note_off_c, 8, 70, 0
10, 29904, Note_on_c, 8, 72, 75
10, 29946, Note_off_c, 8, 72, 0
10, 29952, Note_on_c, 8, 74, 75
10, 29994, Note_off_c, 8, 74, 0
10, 30000, Note_on_c, 8, 76, 75
10, 30042, Note_off_c, 8, 76, 0
10, 30048, Note_on_c, 8, 69, 75
10, 30090, Note_off_c, 8, 69, 0
10, 30096, Note_on_c, 8, 74, 75
10, 30117, Note_off_c, 8, 74, 0
10, 30120, Note_on_c, 8, 75, 75
10, 30141, Note_off_c, 8, 75, 0
10, 30144, Note_on_c, 8, 74, 75
10, 30165, Note_off_c, 8, 74, 0
10, 30168, Note_on_c, 8, 72, 75
10, 30189, Note_off_c, 8, 72, 0
10, 30192, Note_on_c, 8, 70, 75
10, 30213, Note_off_c, 8, 70, 0
10, 30216, Note_on_c, 8, 69, 75
10, 30237, Note_off_c, 8, 69, 0
10, 30240, Note_on_c, 8, 67, 75
10, 30282, Note_off_c, 8, 67, 0
10, 30288, Note_on_c, 8, 55, 75
10, 30330, Note_off_c, 8, 55, 0
10, 30336, Note_on_c, 8, 60, 75
10, 30378, Note_off_c, 8, 60, 0
10, 30384, Note_on_c, 8, 64, 75
10, 30426, Note_off_c, 8, 64, 0
10, 30432, Note_on_c, 8, 67, 75
10, 30474, Note_off_c, 8, 67, 0
10, 30480, Note_on_c, 8, 69, 75
10, 30501, Note_off_c, 8, 69, 0
10, 30504, Note_on_c, 8, 70, 75
10, 30525, Note_off_c, 8, 70, 0
10, 30528, Note_on_c, 8, 69, 75
10, 30570, Note_off_c, 8, 69, 0
10, 30576, Note_on_c, 8, 67, 75
10, 30618, Note_off_c, 8, 67, 0
10, 30624, Note_on_c, 8, 65, 75
10, 30666, Note_off_c, 8, 65, 0
10, 30672, Note_on_c, 8, 60, 75
10, 30714, Note_off_c, 8, 60, 0
10, 30720, Note_on_c, 8, 65, 75
10, 30762, Note_off_c, 8, 65, 0
10, 30768, Note_on_c, 8, 69, 75
10, 30810, Note_off_c, 8, 69, 0
10, 30816, Note_on_c, 8, 72, 75
10, 30858, Note_off_c, 8, 72, 0
10, 30864, Note_on_c, 8, 74, 75
10, 30885, Note_off_c, 8, 74, 0
10, 30888, Note_on_c, 8, 75, 75
10, 30909, Note_off_c, 8, 75, 0
10, 30912, Note_on_c, 8, 74, 75
10, 30954, Note_off_c, 8, 74, 0
10, 30960, Note_on_c, 8, 72, 75
10, 31002, Note_off_c, 8, 72, 0
10, 31008, Note_on_c, 8, 70, 75
10, 31050, Note_off_c, 8, 70, 0
10, 31056, Note_on_c, 8, 74, 75
10, 31077, Note_off_c, 8, 74, 0
10, 31080, Note_on_c, 8, 75, 75
10, 31101, Note_off_c, 8, 75, 0
10, 31104, Note_on_c, 8, 74, 75
10, 31146, Note_off_c, 8, 74, 0
10, 31152, Note_on_c, 8, 70, 75
10, 31194, Note_off_c, 8, 70, 0
10, 31200, Note_on_c, 8, 67, 75
10, 31263, Note_off_c, 8, 67, 0
10, 31272, Note_on_c, 8, 69, 75
10, 31293, Note_off_c, 8, 69, 0
10, 31296, Note_on_c, 8, 70, 75
10, 31317, Note_off_c, 8, 70, 0
10, 31320, Note_on_c, 8, 69, 75
10, 31341, Note_off_c, 8, 69, 0
10, 31344, Note_on_c, 8, 67, 75
10, 31365, Note_off_c, 8, 67, 0
10, 31368, Note_on_c, 8, 65, 75
10, 31389, Note_off_c, 8, 65, 0
10, 31392, Note_on_c, 8, 64, 75
10, 31434, Note_off_c, 8, 64, 0
10, 31440, Note_on_c, 8, 65, 75
10, 31461, Note_off_c, 8, 65, 0
10, 31464, Note_on_c, 8, 67, 75
10, 31485, Note_off_c, 8, 67, 0
10, 31488, Note_on_c, 8, 64, 75
10, 31551, Note_off_c, 8, 64, 0
10, 31560, Note_on_c, 8, 65, 75
10, 31581, Note_off_c, 8, 65, 0
10, 31584, Note_on_c, 8, 65, 75
10, 31626, Note_off_c, 8, 65, 0
10, 31632, Note_on_c, 8, 69, 75
10, 31674, Note_off_c, 8, 69, 0
10, 31680, Note_on_c, 8, 70, 75
10, 31722, Note_off_c, 8, 70, 0
10, 31728, Note_on_c, 8, 62, 75
10, 31770, Note_off_c, 8, 62, 0
10, 31776, Note_on_c, 8, 62, 75
10, 31797, Note_off_c, 8, 62, 0
10, 31800, Note_on_c, 8, 64, 75
10, 31821, Note_off_c, 8, 64, 0
10, 31824, Note_on_c, 8, 65, 75
10, 31845, Note_off_c, 8, 65, 0
10, 31848, Note_on_c, 8, 67, 75
10, 31869, Note_off_c, 8, 67, 0
10, 31872, Note_on_c, 8, 64, 75
10, 31935, Note_off_c, 8, 64, 0
10, 31944, Note_on_c, 8, 65, 75
10, 31965, Note_off_c, 8, 65, 0
10, 31968, Note_on_c, 8, 65, 75
10, 32010, Note_off_c, 8, 65, 0
10, 32016, Note_on_c, 8, 60, 75
10, 32058, Note_off_c, 8, 60, 0
10, 32064, Note_on_c, 8, 65, 75
10, 32106, Note_off_c, 8, 65, 0
10, 32112, Note_on_c, 8, 69, 75
10, 32154, Note_off_c, 8, 69, 0
10, 32160, Note_on_c, 8, 72, 75
10, 32340, Note_off_c, 8, 72, 0
10, 32340, End_track
11, 0, Start_track
11, 0, Title_t, "Viola"
11, 0, Control_c, 10, 0, 0
11, 0, Program_c, 10, 41
11, 0, Time_signature, 4, 2, 96, 8
11, 0, Tempo, 681818
11, 144, Note_on_c, 10, 57, 75
11, 186, Note_off_c, 10, 57, 0
11, 192, Note_on_c, 10, 60, 75
11, 234, Note_off_c, 10, 60, 0
11, 240, Note_on_c, 10, 64, 75
11, 282, Note_off_c, 10, 64, 0
11, 288, Note_on_c, 10, 57, 75
11, 330, Note_off_c, 10, 57, 0
11, 336, Note_on_c, 10, 65, 75
11, 357, Note_off_c, 10, 65, 0
11, 360, Note_on_c, 10, 64, 75
11, 381, Note_off_c, 10, 64, 0
11, 384, Note_on_c, 10, 62, 75
11, 426, Note_off_c, 10, 62, 0
11, 432, Note_on_c, 10, 64, 75
11, 474, Note_off_c, 10, 64, 0
11, 480, Note_on_c, 10, 60, 75
11, 522, Note_off_c, 10, 60, 0
11, 528, Note_on_c, 10, 57, 75
11, 570, Note_off_c, 10, 57, 0
11, 576, Note_on_c, 10, 60, 75
11, 618, Note_off_c, 10, 60, 0
11, 624, Note_on_c, 10, 65, 75
11, 666, Note_off_c, 10, 65, 0
11, 672, Note_on_c, 10, 64, 75
11, 693, Note_off_c, 10, 64, 0
11, 696, Note_on_c, 10, 65, 75
11, 717, Note_off_c, 10, 65, 0
11, 720, Note_on_c, 10, 67, 75
11, 741, Note_off_c, 10, 67, 0
11, 744, Note_on_c, 10, 69, 75
11, 765, Note_off_c, 10, 69, 0
11, 768, Note_on_c, 10, 65, 75
11, 810, Note_off_c, 10, 65, 0
11, 816, Note_on_c, 10, 67, 75
11, 858, Note_off_c, 10, 67, 0
11, 864, Note_on_c, 10, 67, 75
11, 906, Note_off_c, 10, 67, 0
11, 912, Note_on_c, 10, 67, 75
11, 954, Note_off_c, 10, 67, 0
11, 960, Note_on_c, 10, 64, 75
11, 1002, Note_off_c, 10, 64, 0
11, 1008, Note_on_c, 10, 62, 75
11, 1050, Note_off_c, 10, 62, 0
11, 1056, Note_on_c, 10, 60, 75
11, 1098, Note_off_c, 10, 60, 0
11, 1104, Note_on_c, 10, 69, 75
11, 1146, Note_off_c, 10, 69, 0
11, 1152, Note_on_c, 10, 62, 75
11, 1194, Note_off_c, 10, 62, 0
11, 1200, Note_on_c, 10, 60, 75
11, 1242, Note_off_c, 10, 60, 0
11, 1248, Note_on_c, 10, 59, 75
11, 1290, Note_off_c, 10, 59, 0
11, 1296, Note_on_c, 10, 67, 75
11, 1338, Note_off_c, 10, 67, 0
11, 1344, Note_on_c, 10, 60, 75
11, 1386, Note_off_c, 10, 60, 0
11, 1392, Note_on_c, 10, 58, 75
11, 1434, Note_off_c, 10, 58, 0
11, 1440, Note_on_c, 10, 57, 75
11, 1482, Note_off_c, 10, 57, 0
11, 1488, Note_on_c, 10, 60, 75
11, 1530, Note_off_c, 10, 60, 0
11, 1536, Note_on_c, 10, 65, 75
11, 1578, Note_off_c, 10, 65, 0
11, 1584, Note_on_c, 10, 69, 75
11, 1626, Note_off_c, 10, 69, 0
11, 1632, Note_on_c, 10, 67, 75
11, 1716, Note_off_c, 10, 67, 0
11, 1776, Note_on_c, 10, 67, 75
11, 1818, Note_off_c, 10, 67, 0
11, 1824, Note_on_c, 10, 62, 75
11, 1866, Note_off_c, 10, 62, 0
11, 1872, Note_on_c, 10, 64, 75
11, 1893, Note_off_c, 10, 64, 0
11, 1896, Note_on_c, 10, 65, 75
11, 1917, Note_off_c, 10, 65, 0
11, 1920, Note_on_c, 10, 67, 75
11, 1962, Note_off_c, 10, 67, 0
11, 1968, Note_on_c, 10, 62, 75
11, 2010, Note_off_c, 10, 62, 0
11, 2016, Note_on_c, 10, 64, 75
11, 2058, Note_off_c, 10, 64, 0
11, 2256, Note_on_c, 10, 62, 75
11, 2298, Note_off_c, 10, 62, 0
11, 2304, Note_on_c, 10, 55, 75
11, 2346, Note_off_c, 10, 55, 0
11, 2352, Note_on_c, 10, 62, 75
11, 2394, Note_off_c, 10, 62, 0
11, 2400, Note_on_c, 10, 62, 75
11, 2442, Note_off_c, 10, 62, 0
11, 2640, Note_on_c, 10, 64, 75
11, 2682, Note_off_c, 10, 64, 0
11, 2688, Note_on_c, 10, 62, 75
11, 2730, Note_off_c, 10, 62, 0
11, 2736, Note_on_c, 10, 69, 75
11, 2778, Note_off_c, 10, 69, 0
11, 2784, Note_on_c, 10, 57, 75
11, 2826, Note_off_c, 10, 57, 0
11, 2832, Note_on_c, 10, 58, 75
11, 2874, Note_off_c, 10, 58, 0
11, 2880, Note_on_c, 10, 60, 75
11, 2922, Note_off_c, 10, 60, 0
11, 2928, Note_on_c, 10, 62, 75
11, 2970, Note_off_c, 10, 62, 0
11, 2976, Note_on_c, 10, 55, 75
11, 3018, Note_off_c, 10, 55, 0
11, 3024, Note_on_c, 10, 52, 75
11, 3066, Note_off_c, 10, 52, 0
11, 3072, Note_on_c, 10, 55, 75
11, 3114, Note_off_c, 10, 55, 0
11, 3120, Note_on_c, 10, 60, 75
11, 3162, Note_off_c, 10, 60, 0
11, 3168, Note_on_c, 10, 48, 75
11, 3210, Note_off_c, 10, 48, 0
11, 3216, Note_on_c, 10, 64, 75
11, 3258, Note_off_c, 10, 64, 0
11, 3264, Note_on_c, 10, 65, 75
11, 3306, Note_off_c, 10, 65, 0
11, 3312, Note_on_c, 10, 67, 75
11, 3354, Note_off_c, 10, 67, 0
11, 3360, Note_on_c, 10, 60, 75
11, 3402, Note_off_c, 10, 60, 0
11, 3408, Note_on_c, 10, 57, 75
11, 3450, Note_off_c, 10, 57, 0
11, 3456, Note_on_c, 10, 60, 75
11, 3498, Note_off_c, 10, 60, 0
11, 3504, Note_on_c, 10, 65, 75
11, 3546, Note_off_c, 10, 65, 0
11, 3552, Note_on_c, 10, 53, 75
11, 3594, Note_off_c, 10, 53, 0
11, 3600, Note_on_c, 10, 69, 75
11, 3642, Note_off_c, 10, 69, 0
11, 3648, Note_on_c, 10, 70, 75
11, 3690, Note_off_c, 10, 70, 0
11, 3696, Note_on_c, 10, 72, 75
11, 3738, Note_off_c, 10, 72, 0
11, 3744, Note_on_c, 10, 65, 75
11, 3786, Note_off_c, 10, 65, 0
11, 3792, Note_on_c, 10, 70, 75
11, 3813, Note_off_c, 10, 70, 0
11, 3816, Note_on_c, 10, 72, 75
11, 3837, Note_off_c, 10, 72, 0
11, 3840, Note_on_c, 10, 70, 75
11, 3882, Note_off_c, 10, 70, 0
11, 3888, Note_on_c, 10, 67, 75
11, 3930, Note_off_c, 10, 67, 0
11, 3936, Note_on_c, 10, 64, 75
11, 3999, Note_off_c, 10, 64, 0
11, 4008, Note_on_c, 10, 65, 75
11, 4029, Note_off_c, 10, 65, 0
11, 4032, Note_on_c, 10, 67, 75
11, 4053, Note_off_c, 10, 67, 0
11, 4056, Note_on_c, 10, 69, 75
11, 4077, Note_off_c, 10, 69, 0
11, 4080, Note_on_c, 10, 70, 75
11, 4101, Note_off_c, 10, 70, 0
11, 4104, Note_on_c, 10, 67, 75
11, 4125, Note_off_c, 10, 67, 0
11, 4128, Note_on_c, 10, 72, 75
11, 4245, Note_off_c, 10, 72, 0
11, 4248, Note_on_c, 10, 70, 75
11, 4269, Note_off_c, 10, 70, 0
11, 4272, Note_on_c, 10, 72, 75
11, 4293, Note_off_c, 10, 72, 0
11, 4296, Note_on_c, 10, 70, 75
11, 4317, Note_off_c, 10, 70, 0
11, 4320, Note_on_c, 10, 69, 75
11, 4362, Note_off_c, 10, 69, 0
11, 4368, Note_on_c, 10, 65, 75
11, 4410, Note_off_c, 10, 65, 0
11, 4416, Note_on_c, 10, 65, 75
11, 4458, Note_off_c, 10, 65, 0
11, 4464, Note_on_c, 10, 65, 75
11, 4506, Note_off_c, 10, 65, 0
11, 4512, Note_on_c, 10, 67, 75
11, 4554, Note_off_c, 10, 67, 0
11, 4560, Note_on_c, 10, 60, 75
11, 4602, Note_off_c, 10, 60, 0
11, 4608, Note_on_c, 10, 60, 75
11, 4671, Note_off_c, 10, 60, 0
11, 4680, Note_on_c, 10, 60, 75
11, 4701, Note_off_c, 10, 60, 0
11, 4704, Note_on_c, 10, 57, 75
11, 4788, Note_off_c, 10, 57, 0
11, 4848, Note_on_c, 10, 60, 75
11, 4890, Note_off_c, 10, 60, 0
11, 4896, Note_on_c, 10, 62, 75
11, 4938, Note_off_c, 10, 62, 0
11, 4944, Note_on_c, 10, 57, 75
11, 4986, Note_off_c, 10, 57, 0
11, 4992, Note_on_c, 10, 58, 75
11, 5034, Note_off_c, 10, 58, 0
11, 5040, Note_on_c, 10, 60, 75
11, 5082, Note_off_c, 10, 60, 0
11, 5088, Note_on_c, 10, 53, 75
11, 5130, Note_off_c, 10, 53, 0
11, 5136, Note_on_c, 10, 69, 75
11, 5157, Note_off_c, 10, 69, 0
11, 5160, Note_on_c, 10, 70, 75
11, 5181, Note_off_c, 10, 70, 0
11, 5184, Note_on_c, 10, 69, 75
11, 5205, Note_off_c, 10, 69, 0
11, 5208, Note_on_c, 10, 70, 75
11, 5229, Note_off_c, 10, 70, 0
11, 5232, Note_on_c, 10, 69, 75
11, 5253, Note_off_c, 10, 69, 0
11, 5256, Note_on_c, 10, 70, 75
11, 5277, Note_off_c, 10, 70, 0
11, 5280, Note_on_c, 10, 69, 75
11, 5364, Note_off_c, 10, 69, 0
11, 5520, Note_on_c, 10, 76, 75
11, 5541, Note_off_c, 10, 76, 0
11, 5544, Note_on_c, 10, 74, 75
11, 5565, Note_off_c, 10, 74, 0
11, 5568, Note_on_c, 10, 76, 75
11, 5589, Note_off_c, 10, 76, 0
11, 5592, Note_on_c, 10, 74, 75
11, 5613, Note_off_c, 10, 74, 0
11, 5616, Note_on_c, 10, 76, 75
11, 5637, Note_off_c, 10, 76, 0
11, 5640, Note_on_c, 10, 74, 75
11, 5661, Note_off_c, 10, 74, 0
11, 5664, Note_on_c, 10, 72, 75
11, 5685, Note_off_c, 10, 72, 0
11, 5688, Note_on_c, 10, 71, 75
11, 5709, Note_off_c, 10, 71, 0
11, 5712, Note_on_c, 10, 72, 75
11, 5733, Note_off_c, 10, 72, 0
11, 5736, Note_on_c, 10, 71, 75
11, 5757, Note_off_c, 10, 71, 0
11, 5760, Note_on_c, 10, 69, 75
11, 5802, Note_off_c, 10, 69, 0
11, 5808, Note_on_c, 10, 71, 75
11, 5850, Note_off_c, 10, 71, 0
11, 5856, Note_on_c, 10, 67, 75
11, 5877, Note_off_c, 10, 67, 0
11, 5880, Note_on_c, 10, 65, 75
11, 5901, Note_off_c, 10, 65, 0
11, 5904, Note_on_c, 10, 64, 75
11, 5925, Note_off_c, 10, 64, 0
11, 5928, Note_on_c, 10, 62, 75
11, 5949, Note_off_c, 10, 62, 0
11, 5952, Note_on_c, 10, 60, 75
11, 5994, Note_off_c, 10, 60, 0
11, 6000, Note_on_c, 10, 72, 75
11, 6042, Note_off_c, 10, 72, 0
11, 6048, Note_on_c, 10, 72, 75
11, 6228, Note_off_c, 10, 72, 0
11, 6240, Note_on_c, 10, 71, 75
11, 6324, Note_off_c, 10, 71, 0
11, 6336, Note_on_c, 10, 67, 75
11, 6453, Note_off_c, 10, 67, 0
11, 6456, Note_on_c, 10, 64, 75
11, 6477, Note_off_c, 10, 64, 0
11, 6480, Note_on_c, 10, 69, 75
11, 6501, Note_off_c, 10, 69, 0
11, 6504, Note_on_c, 10, 67, 75
11, 6525, Note_off_c, 10, 67, 0
11, 6528, Note_on_c, 10, 65, 75
11, 6549, Note_off_c, 10, 65, 0
11, 6552, Note_on_c, 10, 64, 75
11, 6573, Note_off_c, 10, 64, 0
11, 6576, Note_on_c, 10, 65, 75
11, 6597, Note_off_c, 10, 65, 0
11, 6600, Note_on_c, 10, 62, 75
11, 6621, Note_off_c, 10, 62, 0
11, 6624, Note_on_c, 10, 64, 75
11, 6708, Note_off_c, 10, 64, 0
11, 6864, Note_on_c, 10, 62, 75
11, 6885, Note_off_c, 10, 62, 0
11, 6888, Note_on_c, 10, 60, 75
11, 6909, Note_off_c, 10, 60, 0
11, 6912, Note_on_c, 10, 58, 75
11, 6954, Note_off_c, 10, 58, 0
11, 6960, Note_on_c, 10, 57, 75
11, 7002, Note_off_c, 10, 57, 0
11, 7008, Note_on_c, 10, 55, 75
11, 7092, Note_off_c, 10, 55, 0
11, 7824, Note_on_c, 10, 65, 75
11, 7866, Note_off_c, 10, 65, 0
11, 7872, Note_on_c, 10, 62, 75
11, 7914, Note_off_c, 10, 62, 0
11, 7920, Note_on_c, 10, 60, 75
11, 7962, Note_off_c, 10, 60, 0
11, 7968, Note_on_c, 10, 58, 75
11, 8010, Note_off_c, 10, 58, 0
11, 8016, Note_on_c, 10, 67, 75
11, 8058, Note_off_c, 10, 67, 0
11, 8064, Note_on_c, 10, 60, 75
11, 8106, Note_off_c, 10, 60, 0
11, 8112, Note_on_c, 10, 58, 75
11, 8154, Note_off_c, 10, 58, 0
11, 8160, Note_on_c, 10, 57, 75
11, 8202, Note_off_c, 10, 57, 0
11, 8208, Note_on_c, 10, 65, 75
11, 8250, Note_off_c, 10, 65, 0
11, 8256, Note_on_c, 10, 58, 75
11, 8298, Note_off_c, 10, 58, 0
11, 8304, Note_on_c, 10, 57, 75
11, 8346, Note_off_c, 10, 57, 0
11, 8352, Note_on_c, 10, 55, 75
11, 8394, Note_off_c, 10, 55, 0
11, 8400, Note_on_c, 10, 58, 75
11, 8442, Note_off_c, 10, 58, 0
11, 8448, Note_on_c, 10, 63, 75
11, 8490, Note_off_c, 10, 63, 0
11, 8496, Note_on_c, 10, 67, 75
11, 8538, Note_off_c, 10, 67, 0
11, 8544, Note_on_c, 10, 65, 75
11, 8628, Note_off_c, 10, 65, 0
11, 8688, Note_on_c, 10, 65, 75
11, 8730, Note_off_c, 10, 65, 0
11, 8736, Note_on_c, 10, 60, 75
11, 8778, Note_off_c, 10, 60, 0
11, 8784, Note_on_c, 10, 62, 75
11, 8805, Note_off_c, 10, 62, 0
11, 8808, Note_on_c, 10, 63, 75
11, 8829, Note_off_c, 10, 63, 0
11, 8832, Note_on_c, 10, 65, 75
11, 8874, Note_off_c, 10, 65, 0
11, 8880, Note_on_c, 10, 60, 75
11, 8922, Note_off_c, 10, 60, 0
11, 8928, Note_on_c, 10, 62, 75
11, 9012, Note_off_c, 10, 62, 0
11, 10128, Note_on_c, 10, 53, 75
11, 10170, Note_off_c, 10, 53, 0
11, 10176, Note_on_c, 10, 57, 75
11, 10218, Note_off_c, 10, 57, 0
11, 10224, Note_on_c, 10, 61, 75
11, 10266, Note_off_c, 10, 61, 0
11, 10272, Note_on_c, 10, 65, 75
11, 10314, Note_off_c, 10, 65, 0
11, 10320, Note_on_c, 10, 62, 75
11, 10362, Note_off_c, 10, 62, 0
11, 10368, Note_on_c, 10, 62, 75
11, 10410, Note_off_c, 10, 62, 0
11, 10416, Note_on_c, 10, 57, 75
11, 10458, Note_off_c, 10, 57, 0
11, 10464, Note_on_c, 10, 57, 75
11, 10506, Note_off_c, 10, 57, 0
11, 10512, Note_on_c, 10, 53, 75
11, 10554, Note_off_c, 10, 53, 0
11, 10560, Note_on_c, 10, 57, 75
11, 10602, Note_off_c, 10, 57, 0
11, 10608, Note_on_c, 10, 62, 75
11, 10650, Note_off_c, 10, 62, 0
11, 10656, Note_on_c, 10, 57, 75
11, 10698, Note_off_c, 10, 57, 0
11, 10704, Note_on_c, 10, 64, 75
11, 10746, Note_off_c, 10, 64, 0
11, 10752, Note_on_c, 10, 62, 75
11, 10794, Note_off_c, 10, 62, 0
11, 10800, Note_on_c, 10, 67, 75
11, 10842, Note_off_c, 10, 67, 0
11, 10848, Note_on_c, 10, 64, 75
11, 10890, Note_off_c, 10, 64, 0
11, 10896, Note_on_c, 10, 61, 75
11, 10938, Note_off_c, 10, 61, 0
11, 10944, Note_on_c, 10, 64, 75
11, 10986, Note_off_c, 10, 64, 0
11, 10992, Note_on_c, 10, 69, 75
11, 11034, Note_off_c, 10, 69, 0
11, 11040, Note_on_c, 10, 57, 75
11, 11082, Note_off_c, 10, 57, 0
11, 11088, Note_on_c, 10, 69, 75
11, 11109, Note_off_c, 10, 69, 0
11, 11112, Note_on_c, 10, 67, 75
11, 11133, Note_off_c, 10, 67, 0
11, 11136, Note_on_c, 10, 65, 75
11, 11178, Note_off_c, 10, 65, 0
11, 11184, Note_on_c, 10, 64, 75
11, 11226, Note_off_c, 10, 64, 0
11, 11232, Note_on_c, 10, 62, 75
11, 11274, Note_off_c, 10, 62, 0
11, 11280, Note_on_c, 10, 50, 75
11, 11322, Note_off_c, 10, 50, 0
11, 11328, Note_on_c, 10, 57, 75
11, 11370, Note_off_c, 10, 57, 0
11, 11376, Note_on_c, 10, 62, 75
11, 11418, Note_off_c, 10, 62, 0
11, 11424, Note_on_c, 10, 50, 75
11, 11466, Note_off_c, 10, 50, 0
11, 11472, Note_on_c, 10, 74, 75
11, 11493, Note_off_c, 10, 74, 0
11, 11496, Note_on_c, 10, 72, 75
11, 11517, Note_off_c, 10, 72, 0
11, 11520, Note_on_c, 10, 74, 75
11, 11562, Note_off_c, 10, 74, 0
11, 11568, Note_on_c, 10, 62, 75
11, 11610, Note_off_c, 10, 62, 0
11, 11616, Note_on_c, 10, 67, 75
11, 11658, Note_off_c, 10, 67, 0
11, 11664, Note_on_c, 10, 66, 75
11, 11706, Note_off_c, 10, 66, 0
11, 11712, Note_on_c, 10, 62, 75
11, 11754, Note_off_c, 10, 62, 0
11, 11760, Note_on_c, 10, 67, 75
11, 11802, Note_off_c, 10, 67, 0
11, 11808, Note_on_c, 10, 64, 75
11, 11850, Note_off_c, 10, 64, 0
11, 11856, Note_on_c, 10, 61, 75
11, 11898, Note_off_c, 10, 61, 0
11, 11904, Note_on_c, 10, 64, 75
11, 11946, Note_off_c, 10, 64, 0
11, 11952, Note_on_c, 10, 69, 75
11, 11994, Note_off_c, 10, 69, 0
11, 12000, Note_on_c, 10, 69, 75
11, 12084, Note_off_c, 10, 69, 0
11, 12144, Note_on_c, 10, 69, 75
11, 12234, Note_off_c, 10, 69, 0
11, 12240, Note_on_c, 10, 69, 75
11, 12282, Note_off_c, 10, 69, 0
11, 12288, Note_on_c, 10, 69, 75
11, 12330, Note_off_c, 10, 69, 0
11, 12336, Note_on_c, 10, 64, 75
11, 12378, Note_off_c, 10, 64, 0
11, 12384, Note_on_c, 10, 65, 75
11, 12468, Note_off_c, 10, 65, 0
11, 12816, Note_on_c, 10, 67, 75
11, 12858, Note_off_c, 10, 67, 0
11, 12864, Note_on_c, 10, 65, 75
11, 12906, Note_off_c, 10, 65, 0
11, 12912, Note_on_c, 10, 64, 75
11, 12954, Note_off_c, 10, 64, 0
11, 12960, Note_on_c, 10, 62, 75
11, 13002, Note_off_c, 10, 62, 0
11, 13008, Note_on_c, 10, 60, 75
11, 13050, Note_off_c, 10, 60, 0
11, 13056, Note_on_c, 10, 59, 75
11, 13098, Note_off_c, 10, 59, 0
11, 13104, Note_on_c, 10, 55, 75
11, 13146, Note_off_c, 10, 55, 0
11, 13152, Note_on_c, 10, 60, 75
11, 13236, Note_off_c, 10, 60, 0
11, 13680, Note_on_c, 10, 63, 75
11, 13722, Note_off_c, 10, 63, 0
11, 13728, Note_on_c, 10, 63, 75
11, 13770, Note_off_c, 10, 63, 0
11, 13776, Note_on_c, 10, 62, 75
11, 13818, Note_off_c, 10, 62, 0
11, 13872, Note_on_c, 10, 62, 75
11, 13914, Note_off_c, 10, 62, 0
11, 13920, Note_on_c, 10, 62, 75
11, 13962, Note_off_c, 10, 62, 0
11, 13968, Note_on_c, 10, 60, 75
11, 14010, Note_off_c, 10, 60, 0
11, 14064, Note_on_c, 10, 60, 75
11, 14106, Note_off_c, 10, 60, 0
11, 14112, Note_on_c, 10, 60, 75
11, 14154, Note_off_c, 10, 60, 0
11, 14160, Note_on_c, 10, 64, 75
11, 14202, Note_off_c, 10, 64, 0
11, 14304, Note_on_c, 10, 65, 75
11, 14676, Note_off_c, 10, 65, 0
11, 14688, Note_on_c, 10, 67, 75
11, 15060, Note_off_c, 10, 67, 0
11, 15072, Note_on_c, 10, 69, 75
11, 15252, Note_off_c, 10, 69, 0
11, 15312, Note_on_c, 10, 57, 75
11, 15354, Note_off_c, 10, 57, 0
11, 15360, Note_on_c, 10, 60, 75
11, 15402, Note_off_c, 10, 60, 0
11, 15408, Note_on_c, 10, 66, 75
11, 15450, Note_off_c, 10, 66, 0
11, 15456, Note_on_c, 10, 69, 75
11, 15498, Note_off_c, 10, 69, 0
11, 15504, Note_on_c, 10, 60, 75
11, 15546, Note_off_c, 10, 60, 0
11, 15552, Note_on_c, 10, 66, 75
11, 15594, Note_off_c, 10, 66, 0
11, 15600, Note_on_c, 10, 69, 75
11, 15642, Note_off_c, 10, 69, 0
11, 15648, Note_on_c, 10, 69, 75
11, 15690, Note_off_c, 10, 69, 0
11, 15696, Note_on_c, 10, 72, 75
11, 15738, Note_off_c, 10, 72, 0
11, 15744, Note_on_c, 10, 66, 75
11, 15786, Note_off_c, 10, 66, 0
11, 15792, Note_on_c, 10, 69, 75
11, 15834, Note_off_c, 10, 69, 0
11, 15840, Note_on_c, 10, 71, 75
11, 15924, Note_off_c, 10, 71, 0
11, 15984, Note_on_c, 10, 67, 75
11, 16026, Note_off_c, 10, 67, 0
11, 16032, Note_on_c, 10, 60, 75
11, 16074, Note_off_c, 10, 60, 0
11, 16080, Note_on_c, 10, 60, 75
11, 16122, Note_off_c, 10, 60, 0
11, 16128, Note_on_c, 10, 67, 75
11, 16170, Note_off_c, 10, 67, 0
11, 16176, Note_on_c, 10, 62, 75
11, 16218, Note_off_c, 10, 62, 0
11, 16224, Note_on_c, 10, 64, 75
11, 16266, Note_off_c, 10, 64, 0
11, 16272, Note_on_c, 10, 52, 75
11, 16314, Note_off_c, 10, 52, 0
11, 16320, Note_on_c, 10, 55, 75
11, 16362, Note_off_c, 10, 55, 0
11, 16368, Note_on_c, 10, 59, 75
11, 16410, Note_off_c, 10, 59, 0
11, 16416, Note_on_c, 10, 52, 75
11, 16458, Note_off_c, 10, 52, 0
11, 16464, Note_on_c, 10, 60, 75
11, 16485, Note_off_c, 10, 60, 0
11, 16488, Note_on_c, 10, 59, 75
11, 16509, Note_off_c, 10, 59, 0
11, 16512, Note_on_c, 10, 57, 75
11, 16554, Note_off_c, 10, 57, 0
11, 16560, Note_on_c, 10, 59, 75
11, 16602, Note_off_c, 10, 59, 0
11, 16608, Note_on_c, 10, 55, 75
11, 16650, Note_off_c, 10, 55, 0
11, 16656, Note_on_c, 10, 52, 75
11, 16698, Note_off_c, 10, 52, 0
11, 16704, Note_on_c, 10, 55, 75
11, 16746, Note_off_c, 10, 55, 0
11, 16752, Note_on_c, 10, 60, 75
11, 16794, Note_off_c, 10, 60, 0
11, 16800, Note_on_c, 10, 67, 75
11, 16842, Note_off_c, 10, 67, 0
11, 16848, Note_on_c, 10, 62, 75
11, 16890, Note_off_c, 10, 62, 0
11, 16896, Note_on_c, 10, 60, 75
11, 16938, Note_off_c, 10, 60, 0
11, 16944, Note_on_c, 10, 62, 75
11, 16986, Note_off_c, 10, 62, 0
11, 16992, Note_on_c, 10, 62, 75
11, 17034, Note_off_c, 10, 62, 0
11, 17040, Note_on_c, 10, 55, 75
11, 17082, Note_off_c, 10, 55, 0
11, 17088, Note_on_c, 10, 59, 75
11, 17130, Note_off_c, 10, 59, 0
11, 17136, Note_on_c, 10, 62, 75
11, 17178, Note_off_c, 10, 62, 0
11, 17184, Note_on_c, 10, 68, 75
11, 17226, Note_off_c, 10, 68, 0
11, 17232, Note_on_c, 10, 68, 75
11, 17274, Note_off_c, 10, 68, 0
11, 17280, Note_on_c, 10, 69, 75
11, 17322, Note_off_c, 10, 69, 0
11, 17328, Note_on_c, 10, 71, 75
11, 17370, Note_off_c, 10, 71, 0
11, 17376, Note_on_c, 10, 64, 75
11, 17418, Note_off_c, 10, 64, 0
11, 17424, Note_on_c, 10, 57, 75
11, 17466, Note_off_c, 10, 57, 0
11, 17472, Note_on_c, 10, 61, 75
11, 17514, Note_off_c, 10, 61, 0
11, 17520, Note_on_c, 10, 64, 75
11, 17562, Note_off_c, 10, 64, 0
11, 17568, Note_on_c, 10, 67, 75
11, 17610, Note_off_c, 10, 67, 0
11, 17616, Note_on_c, 10, 69, 75
11, 17637, Note_off_c, 10, 69, 0
11, 17640, Note_on_c, 10, 70, 75
11, 17661, Note_off_c, 10, 70, 0
11, 17664, Note_on_c, 10, 69, 75
11, 17685, Note_off_c, 10, 69, 0
11, 17688, Note_on_c, 10, 67, 75
11, 17709, Note_off_c, 10, 67, 0
11, 17712, Note_on_c, 10, 65, 75
11, 17733, Note_off_c, 10, 65, 0
11, 17736, Note_on_c, 10, 64, 75
11, 17757, Note_off_c, 10, 64, 0
11, 17760, Note_on_c, 10, 62, 75
11, 17844, Note_off_c, 10, 62, 0
11, 17904, Note_on_c, 10, 64, 75
11, 17946, Note_off_c, 10, 64, 0
11, 17952, Note_on_c, 10, 64, 75
11, 17994, Note_off_c, 10, 64, 0
11, 18000, Note_on_c, 10, 65, 75
11, 18042, Note_off_c, 10, 65, 0
11, 18048, Note_on_c, 10, 59, 75
11, 18090, Note_off_c, 10, 59, 0
11, 18096, Note_on_c, 10, 64, 75
11, 18138, Note_off_c, 10, 64, 0
11, 18144, Note_on_c, 10, 60, 75
11, 18228, Note_off_c, 10, 60, 0
11, 19728, Note_on_c, 10, 58, 75
11, 19770, Note_off_c, 10, 58, 0
11, 19776, Note_on_c, 10, 62, 75
11, 19818, Note_off_c, 10, 62, 0
11, 19824, Note_on_c, 10, 66, 75
11, 19866, Note_off_c, 10, 66, 0
11, 19872, Note_on_c, 10, 70, 75
11, 19914, Note_off_c, 10, 70, 0
11, 19920, Note_on_c, 10, 67, 75
11, 19962, Note_off_c, 10, 67, 0
11, 19968, Note_on_c, 10, 67, 75
11, 20010, Note_off_c, 10, 67, 0
11, 20016, Note_on_c, 10, 62, 75
11, 20058, Note_off_c, 10, 62, 0
11, 20064, Note_on_c, 10, 62, 75
11, 20106, Note_off_c, 10, 62, 0
11, 21648, Note_on_c, 10, 57, 75
11, 21690, Note_off_c, 10, 57, 0
11, 21696, Note_on_c, 10, 60, 75
11, 21738, Note_off_c, 10, 60, 0
11, 21744, Note_on_c, 10, 64, 75
11, 21786, Note_off_c, 10, 64, 0
11, 21792, Note_on_c, 10, 57, 75
11, 21834, Note_off_c, 10, 57, 0
11, 21840, Note_on_c, 10, 65, 75
11, 21861, Note_off_c, 10, 65, 0
11, 21864, Note_on_c, 10, 64, 75
11, 21885, Note_off_c, 10, 64, 0
11, 21888, Note_on_c, 10, 62, 75
11, 21930, Note_off_c, 10, 62, 0
11, 21936, Note_on_c, 10, 64, 75
11, 21978, Note_off_c, 10, 64, 0
11, 21984, Note_on_c, 10, 60, 75
11, 22068, Note_off_c, 10, 60, 0
11, 22128, Note_on_c, 10, 60, 75
11, 22170, Note_off_c, 10, 60, 0
11, 22176, Note_on_c, 10, 62, 75
11, 22218, Note_off_c, 10, 62, 0
11, 22224, Note_on_c, 10, 57, 75
11, 22266, Note_off_c, 10, 57, 0
11, 22272, Note_on_c, 10, 58, 75
11, 22314, Note_off_c, 10, 58, 0
11, 22320, Note_on_c, 10, 60, 75
11, 22362, Note_off_c, 10, 60, 0
11, 22368, Note_on_c, 10, 53, 75
11, 22410, Note_off_c, 10, 53, 0
11, 22416, Note_on_c, 10, 69, 75
11, 22437, Note_off_c, 10, 69, 0
11, 22440, Note_on_c, 10, 70, 75
11, 22461, Note_off_c, 10, 70, 0
11, 22464, Note_on_c, 10, 69, 75
11, 22485, Note_off_c, 10, 69, 0
11, 22488, Note_on_c, 10, 70, 75
11, 22509, Note_off_c, 10, 70, 0
11, 22512, Note_on_c, 10, 69, 75
11, 22533, Note_off_c, 10, 69, 0
11, 22536, Note_on_c, 10, 70, 75
11, 22557, Note_off_c, 10, 70, 0
11, 22560, Note_on_c, 10, 69, 75
11, 22644, Note_off_c, 10, 69, 0
11, 22800, Note_on_c, 10, 76, 75
11, 22821, Note_off_c, 10, 76, 0
11, 22824, Note_on_c, 10, 74, 75
11, 22845, Note_off_c, 10, 74, 0
11, 22848, Note_on_c, 10, 76, 75
11, 22869, Note_off_c, 10, 76, 0
11, 22872, Note_on_c, 10, 74, 75
11, 22893, Note_off_c, 10, 74, 0
11, 22896, Note_on_c, 10, 76, 75
11, 22917, Note_off_c, 10, 76, 0
11, 22920, Note_on_c, 10, 74, 75
11, 22941, Note_off_c, 10, 74, 0
11, 22944, Note_on_c, 10, 72, 75
11, 22965, Note_off_c, 10, 72, 0
11, 22968, Note_on_c, 10, 71, 75
11, 22989, Note_off_c, 10, 71, 0
11, 22992, Note_on_c, 10, 72, 75
11, 23013, Note_off_c, 10, 72, 0
11, 23016, Note_on_c, 10, 71, 75
11, 23037, Note_off_c, 10, 71, 0
11, 23040, Note_on_c, 10, 69, 75
11, 23082, Note_off_c, 10, 69, 0
11, 23088, Note_on_c, 10, 71, 75
11, 23130, Note_off_c, 10, 71, 0
11, 23136, Note_on_c, 10, 67, 75
11, 23157, Note_off_c, 10, 67, 0
11, 23160, Note_on_c, 10, 65, 75
11, 23181, Note_off_c, 10, 65, 0
11, 23184, Note_on_c, 10, 64, 75
11, 23205, Note_off_c, 10, 64, 0
11, 23208, Note_on_c, 10, 62, 75
11, 23229, Note_off_c, 10, 62, 0
11, 23232, Note_on_c, 10, 60, 75
11, 23274, Note_off_c, 10, 60, 0
11, 23280, Note_on_c, 10, 72, 75
11, 23322, Note_off_c, 10, 72, 0
11, 23328, Note_on_c, 10, 72, 75
11, 23508, Note_off_c, 10, 72, 0
11, 23520, Note_on_c, 10, 71, 75
11, 23604, Note_off_c, 10, 71, 0
11, 23616, Note_on_c, 10, 67, 75
11, 23733, Note_off_c, 10, 67, 0
11, 23736, Note_on_c, 10, 64, 75
11, 23757, Note_off_c, 10, 64, 0
11, 23760, Note_on_c, 10, 69, 75
11, 23781, Note_off_c, 10, 69, 0
11, 23784, Note_on_c, 10, 67, 75
11, 23805, Note_off_c, 10, 67, 0
11, 23808, Note_on_c, 10, 65, 75
11, 23829, Note_off_c, 10, 65, 0
11, 23832, Note_on_c, 10, 64, 75
11, 23853, Note_off_c, 10, 64, 0
11, 23856, Note_on_c, 10, 65, 75
11, 23877, Note_off_c, 10, 65, 0
11, 23880, Note_on_c, 10, 62, 75
11, 23901, Note_off_c, 10, 62, 0
11, 23904, Note_on_c, 10, 64, 75
11, 23988, Note_off_c, 10, 64, 0
11, 24336, Note_on_c, 10, 65, 75
11, 24378, Note_off_c, 10, 65, 0
11, 24384, Note_on_c, 10, 63, 75
11, 24426, Note_off_c, 10, 63, 0
11, 24432, Note_on_c, 10, 62, 75
11, 24474, Note_off_c, 10, 62, 0
11, 24480, Note_on_c, 10, 60, 75
11, 24522, Note_off_c, 10, 60, 0
11, 24528, Note_on_c, 10, 58, 75
11, 24570, Note_off_c, 10, 58, 0
11, 24576, Note_on_c, 10, 57, 75
11, 24618, Note_off_c, 10, 57, 0
11, 24624, Note_on_c, 10, 53, 75
11, 24666, Note_off_c, 10, 53, 0
11, 24672, Note_on_c, 10, 58, 75
11, 24714, Note_off_c, 10, 58, 0
11, 24720, Note_on_c, 10, 68, 75
11, 24762, Note_off_c, 10, 68, 0
11, 24768, Note_on_c, 10, 74, 75
11, 24810, Note_off_c, 10, 74, 0
11, 24816, Note_on_c, 10, 77, 75
11, 24858, Note_off_c, 10, 77, 0
11, 24912, Note_on_c, 10, 67, 75
11, 24954, Note_off_c, 10, 67, 0
11, 24960, Note_on_c, 10, 72, 75
11, 25002, Note_off_c, 10, 72, 0
11, 25008, Note_on_c, 10, 75, 75
11, 25050, Note_off_c, 10, 75, 0
11, 25104, Note_on_c, 10, 65, 75
11, 25146, Note_off_c, 10, 65, 0
11, 25152, Note_on_c, 10, 70, 75
11, 25194, Note_off_c, 10, 70, 0
11, 25200, Note_on_c, 10, 74, 75
11, 25242, Note_off_c, 10, 74, 0
11, 25344, Note_on_c, 10, 65, 75
11, 25482, Note_off_c, 10, 65, 0
11, 25488, Note_on_c, 10, 53, 75
11, 25530, Note_off_c, 10, 53, 0
11, 25536, Note_on_c, 10, 58, 75
11, 25578, Note_off_c, 10, 58, 0
11, 25584, Note_on_c, 10, 62, 75
11, 25626, Note_off_c, 10, 62, 0
11, 25632, Note_on_c, 10, 67, 75
11, 25866, Note_off_c, 10, 67, 0
11, 25872, Note_on_c, 10, 55, 75
11, 25914, Note_off_c, 10, 55, 0
11, 25920, Note_on_c, 10, 60, 75
11, 25962, Note_off_c, 10, 60, 0
11, 25968, Note_on_c, 10, 64, 75
11, 26010, Note_off_c, 10, 64, 0
11, 26016, Note_on_c, 10, 69, 75
11, 26250, Note_off_c, 10, 69, 0
11, 26256, Note_on_c, 10, 57, 75
11, 26298, Note_off_c, 10, 57, 0
11, 26304, Note_on_c, 10, 62, 75
11, 26346, Note_off_c, 10, 62, 0
11, 26352, Note_on_c, 10, 65, 75
11, 26394, Note_off_c, 10, 65, 0
11, 26400, Note_on_c, 10, 68, 75
11, 26517, Note_off_c, 10, 68, 0
11, 26520, Note_on_c, 10, 67, 75
11, 26541, Note_off_c, 10, 67, 0
11, 26544, Note_on_c, 10, 68, 75
11, 26565, Note_off_c, 10, 68, 0
11, 26568, Note_on_c, 10, 67, 75
11, 26589, Note_off_c, 10, 67, 0
11, 26592, Note_on_c, 10, 68, 75
11, 26709, Note_off_c, 10, 68, 0
11, 26712, Note_on_c, 10, 67, 75
11, 26733, Note_off_c, 10, 67, 0
11, 26736, Note_on_c, 10, 68, 75
11, 26757, Note_off_c, 10, 68, 0
11, 26760, Note_on_c, 10, 65, 75
11, 26781, Note_off_c, 10, 65, 0
11, 26784, Note_on_c, 10, 67, 75
11, 26868, Note_off_c, 10, 67, 0
11, 26928, Note_on_c, 10, 67, 75
11, 26970, Note_off_c, 10, 67, 0
11, 26976, Note_on_c, 10, 60, 75
11, 27018, Note_off_c, 10, 60, 0
11, 27024, Note_on_c, 10, 72, 75
11, 27066, Note_off_c, 10, 72, 0
11, 27072, Note_on_c, 10, 64, 75
11, 27114, Note_off_c, 10, 64, 0
11, 27120, Note_on_c, 10, 67, 75
11, 27162, Note_off_c, 10, 67, 0
11, 27168, Note_on_c, 10, 72, 75
11, 27210, Note_off_c, 10, 72, 0
11, 27216, Note_on_c, 10, 74, 75
11, 27237, Note_off_c, 10, 74, 0
11, 27240, Note_on_c, 10, 72, 75
11, 27261, Note_off_c, 10, 72, 0
11, 27264, Note_on_c, 10, 70, 75
11, 27285, Note_off_c, 10, 70, 0
11, 27288, Note_on_c, 10, 69, 75
11, 27309, Note_off_c, 10, 69, 0
11, 27312, Note_on_c, 10, 70, 75
11, 27333, Note_off_c, 10, 70, 0
11, 27336, Note_on_c, 10, 67, 75
11, 27357, Note_off_c, 10, 67, 0
11, 27360, Note_on_c, 10, 69, 75
11, 27402, Note_off_c, 10, 69, 0
11, 27408, Note_on_c, 10, 57, 75
11, 27450, Note_off_c, 10, 57, 0
11, 27456, Note_on_c, 10, 60, 75
11, 27498, Note_off_c, 10, 60, 0
11, 27504, Note_on_c, 10, 64, 75
11, 27546, Note_off_c, 10, 64, 0
11, 27552, Note_on_c, 10, 57, 75
11, 27594, Note_off_c, 10, 57, 0
11, 27600, Note_on_c, 10, 65, 75
11, 27621, Note_off_c, 10, 65, 0
11, 27624, Note_on_c, 10, 64, 75
11, 27645, Note_off_c, 10, 64, 0
11, 27648, Note_on_c, 10, 62, 75
11, 27690, Note_off_c, 10, 62, 0
11, 27696, Note_on_c, 10, 64, 75
11, 27738, Note_off_c, 10, 64, 0
11, 27744, Note_on_c, 10, 60, 75
11, 27786, Note_off_c, 10, 60, 0
11, 27792, Note_on_c, 10, 57, 75
11, 27834, Note_off_c, 10, 57, 0
11, 27840, Note_on_c, 10, 60, 75
11, 27882, Note_off_c, 10, 60, 0
11, 27888, Note_on_c, 10, 65, 75
11, 27930, Note_off_c, 10, 65, 0
11, 27936, Note_on_c, 10, 64, 75
11, 27957, Note_off_c, 10, 64, 0
11, 27960, Note_on_c, 10, 65, 75
11, 27981, Note_off_c, 10, 65, 0
11, 27984, Note_on_c, 10, 67, 75
11, 28005, Note_off_c, 10, 67, 0
11, 28008, Note_on_c, 10, 69, 75
11, 28029, Note_off_c, 10, 69, 0
11, 28032, Note_on_c, 10, 65, 75
11, 28074, Note_off_c, 10, 65, 0
11, 28080, Note_on_c, 10, 67, 75
11, 28122, Note_off_c, 10, 67, 0
11, 28128, Note_on_c, 10, 67, 75
11, 28170, Note_off_c, 10, 67, 0
11, 28176, Note_on_c, 10, 67, 75
11, 28218, Note_off_c, 10, 67, 0
11, 28224, Note_on_c, 10, 64, 75
11, 28266, Note_off_c, 10, 64, 0
11, 28272, Note_on_c, 10, 62, 75
11, 28314, Note_off_c, 10, 62, 0
11, 28320, Note_on_c, 10, 60, 75
11, 28362, Note_off_c, 10, 60, 0
11, 28368, Note_on_c, 10, 69, 75
11, 28410, Note_off_c, 10, 69, 0
11, 28416, Note_on_c, 10, 62, 75
11, 28458, Note_off_c, 10, 62, 0
11, 28464, Note_on_c, 10, 60, 75
11, 28506, Note_off_c, 10, 60, 0
11, 28512, Note_on_c, 10, 59, 75
11, 28554, Note_off_c, 10, 59, 0
11, 28560, Note_on_c, 10, 67, 75
11, 28602, Note_off_c, 10, 67, 0
11, 28608, Note_on_c, 10, 60, 75
11, 28650, Note_off_c, 10, 60, 0
11, 28656, Note_on_c, 10, 58, 75
11, 28698, Note_off_c, 10, 58, 0
11, 28704, Note_on_c, 10, 57, 75
11, 28746, Note_off_c, 10, 57, 0
11, 28752, Note_on_c, 10, 60, 75
11, 28794, Note_off_c, 10, 60, 0
11, 28800, Note_on_c, 10, 65, 75
11, 28842, Note_off_c, 10, 65, 0
11, 28848, Note_on_c, 10, 69, 75
11, 28890, Note_off_c, 10, 69, 0
11, 28896, Note_on_c, 10, 67, 75
11, 28980, Note_off_c, 10, 67, 0
11, 29040, Note_on_c, 10, 67, 75
11, 29082, Note_off_c, 10, 67, 0
11, 29088, Note_on_c, 10, 62, 75
11, 29130, Note_off_c, 10, 62, 0
11, 29136, Note_on_c, 10, 64, 75
11, 29157, Note_off_c, 10, 64, 0
11, 29160, Note_on_c, 10, 65, 75
11, 29181, Note_off_c, 10, 65, 0
11, 29184, Note_on_c, 10, 67, 75
11, 29226, Note_off_c, 10, 67, 0
11, 29232, Note_on_c, 10, 62, 75
11, 29274, Note_off_c, 10, 62, 0
11, 29280, Note_on_c, 10, 64, 75
11, 29322, Note_off_c, 10, 64, 0
11, 29520, Note_on_c, 10, 62, 75
11, 29562, Note_off_c, 10, 62, 0
11, 29568, Note_on_c, 10, 55, 75
11, 29610, Note_off_c, 10, 55, 0
11, 29616, Note_on_c, 10, 62, 75
11, 29658, Note_off_c, 10, 62, 0
11, 29664, Note_on_c, 10, 67, 75
11, 29706, Note_off_c, 10, 67, 0
11, 29904, Note_on_c, 10, 64, 75
11, 29946, Note_off_c, 10, 64, 0
11, 29952, Note_on_c, 10, 62, 75
11, 29994, Note_off_c, 10, 62, 0
11, 30000, Note_on_c, 10, 69, 75
11, 30042, Note_off_c, 10, 69, 0
11, 30048, Note_on_c, 10, 57, 75
11, 30090, Note_off_c, 10, 57, 0
11, 30096, Note_on_c, 10, 58, 75
11, 30138, Note_off_c, 10, 58, 0
11, 30144, Note_on_c, 10, 60, 75
11, 30186, Note_off_c, 10, 60, 0
11, 30192, Note_on_c, 10, 62, 75
11, 30234, Note_off_c, 10, 62, 0
11, 30240, Note_on_c, 10, 55, 75
11, 30282, Note_off_c, 10, 55, 0
11, 30288, Note_on_c, 10, 52, 75
11, 30330, Note_off_c, 10, 52, 0
11, 30336, Note_on_c, 10, 55, 75
11, 30378, Note_off_c, 10, 55, 0
11, 30384, Note_on_c, 10, 60, 75
11, 30426, Note_off_c, 10, 60, 0
11, 30432, Note_on_c, 10, 48, 75
11, 30474, Note_off_c, 10, 48, 0
11, 30480, Note_on_c, 10, 64, 75
11, 30522, Note_off_c, 10, 64, 0
11, 30528, Note_on_c, 10, 65, 75
11, 30570, Note_off_c, 10, 65, 0
11, 30576, Note_on_c, 10, 67, 75
11, 30618, Note_off_c, 10, 67, 0
11, 30624, Note_on_c, 10, 60, 75
11, 30666, Note_off_c, 10, 60, 0
11, 30672, Note_on_c, 10, 57, 75
11, 30714, Note_off_c, 10, 57, 0
11, 30720, Note_on_c, 10, 60, 75
11, 30762, Note_off_c, 10, 60, 0
11, 30768, Note_on_c, 10, 65, 75
11, 30810, Note_off_c, 10, 65, 0
11, 30816, Note_on_c, 10, 53, 75
11, 30858, Note_off_c, 10, 53, 0
11, 30864, Note_on_c, 10, 69, 75
11, 30906, Note_off_c, 10, 69, 0
11, 30912, Note_on_c, 10, 70, 75
11, 30954, Note_off_c, 10, 70, 0
11, 30960, Note_on_c, 10, 72, 75
11, 31002, Note_off_c, 10, 72, 0
11, 31008, Note_on_c, 10, 65, 75
11, 31050, Note_off_c, 10, 65, 0
11, 31056, Note_on_c, 10, 70, 75
11, 31077, Note_off_c, 10, 70, 0
11, 31080, Note_on_c, 10, 72, 75
11, 31101, Note_off_c, 10, 72, 0
11, 31104, Note_on_c, 10, 70, 75
11, 31146, Note_off_c, 10, 70, 0
11, 31152, Note_on_c, 10, 67, 75
11, 31194, Note_off_c, 10, 67, 0
11, 31200, Note_on_c, 10, 64, 75
11, 31263, Note_off_c, 10, 64, 0
11, 31272, Note_on_c, 10, 65, 75
11, 31293, Note_off_c, 10, 65, 0
11, 31296, Note_on_c, 10, 67, 75
11, 31317, Note_off_c, 10, 67, 0
11, 31320, Note_on_c, 10, 69, 75
11, 31341, Note_off_c, 10, 69, 0
11, 31344, Note_on_c, 10, 70, 75
11, 31365, Note_off_c, 10, 70, 0
11, 31368, Note_on_c, 10, 67, 75
11, 31389, Note_off_c, 10, 67, 0
11, 31392, Note_on_c, 10, 72, 75
11, 31509, Note_off_c, 10, 72, 0
11, 31512, Note_on_c, 10, 70, 75
11, 31533, Note_off_c, 10, 70, 0
11, 31536, Note_on_c, 10, 72, 75
11, 31557, Note_off_c, 10, 72, 0
11, 31560, Note_on_c, 10, 70, 75
11, 31581, Note_off_c, 10, 70, 0
11, 31584, Note_on_c, 10, 69, 75
11, 31626, Note_off_c, 10, 69, 0
11, 31632, Note_on_c, 10, 65, 75
11, 31674, Note_off_c, 10, 65, 0
11, 31680, Note_on_c, 10, 65, 75
11, 31722, Note_off_c, 10, 65, 0
11, 31728, Note_on_c, 10, 65, 75
11, 31770, Note_off_c, 10, 65, 0
11, 31776, Note_on_c, 10, 67, 75
11, 31818, Note_off_c, 10, 67, 0
11, 31824, Note_on_c, 10, 60, 75
11, 31866, Note_off_c, 10, 60, 0
11, 31872, Note_on_c, 10, 60, 75
11, 31935, Note_off_c, 10, 60, 0
11, 31944, Note_on_c, 10, 60, 75
11, 31965, Note_off_c, 10, 60, 0
11, 31968, Note_on_c, 10, 60, 75
11, 32010, Note_off_c, 10, 60, 0
11, 32016, Note_on_c, 10, 57, 75
11, 32058, Note_off_c, 10, 57, 0
11, 32064, Note_on_c, 10, 60, 75
11, 32106, Note_off_c, 10, 60, 0
11, 32112, Note_on_c, 10, 65, 75
11, 32154, Note_off_c, 10, 65, 0
11, 32160, Note_on_c, 10, 69, 75
11, 32340, Note_off_c, 10, 69, 0
11, 32340, End_track
12, 0, Start_track
12, 0, Title_t, "Cello"
12, 0, Control_c, 11, 0, 0
12, 0, Program_c, 11, 42
12, 0, Time_signature, 4, 2, 96, 8
12, 0, Tempo, 681818
12, 96, Note_on_c, 11, 53, 49
12, 180, Note_off_c, 11, 53, 0
12, 240, Note_on_c, 11, 48, 49
12, 282, Note_off_c, 11, 48, 0
12, 288, Note_on_c, 11, 50, 49
12, 330, Note_off_c, 11, 50, 0
12, 336, Note_on_c, 11, 45, 49
12, 378, Note_off_c, 11, 45, 0
12, 384, Note_on_c, 11, 46, 49
12, 426, Note_off_c, 11, 46, 0
12, 432, Note_on_c, 11, 48, 49
12, 474, Note_off_c, 11, 48, 0
12, 480, Note_on_c, 11, 41, 49
12, 522, Note_off_c, 11, 41, 0
12, 528, Note_on_c, 11, 53, 49
12, 549, Note_off_c, 11, 53, 0
12, 552, Note_on_c, 11, 52, 49
12, 573, Note_off_c, 11, 52, 0
12, 576, Note_on_c, 11, 53, 49
12, 597, Note_off_c, 11, 53, 0
12, 600, Note_on_c, 11, 52, 49
12, 621, Note_off_c, 11, 52, 0
12, 624, Note_on_c, 11, 53, 49
12, 645, Note_off_c, 11, 53, 0
12, 648, Note_on_c, 11, 50, 49
12, 669, Note_off_c, 11, 50, 0
12, 672, Note_on_c, 11, 52, 49
12, 714, Note_off_c, 11, 52, 0
12, 720, Note_on_c, 11, 48, 49
12, 762, Note_off_c, 11, 48, 0
12, 768, Note_on_c, 11, 50, 49
12, 810, Note_off_c, 11, 50, 0
12, 816, Note_on_c, 11, 43, 49
12, 858, Note_off_c, 11, 43, 0
12, 864, Note_on_c, 11, 48, 49
12, 906, Note_off_c, 11, 48, 0
12, 912, Note_on_c, 11, 52, 49
12, 954, Note_off_c, 11, 52, 0
12, 960, Note_on_c, 11, 48, 49
12, 1002, Note_off_c, 11, 48, 0
12, 1008, Note_on_c, 11, 47, 49
12, 1050, Note_off_c, 11, 47, 0
12, 1056, Note_on_c, 11, 45, 49
12, 1098, Note_off_c, 11, 45, 0
12, 1104, Note_on_c, 11, 50, 49
12, 1146, Note_off_c, 11, 50, 0
12, 1152, Note_on_c, 11, 47, 49
12, 1194, Note_off_c, 11, 47, 0
12, 1200, Note_on_c, 11, 45, 49
12, 1242, Note_off_c, 11, 45, 0
12, 1248, Note_on_c, 11, 43, 49
12, 1290, Note_off_c, 11, 43, 0
12, 1296, Note_on_c, 11, 48, 49
12, 1338, Note_off_c, 11, 48, 0
12, 1344, Note_on_c, 11, 45, 49
12, 1386, Note_off_c, 11, 45, 0
12, 1392, Note_on_c, 11, 43, 49
12, 1434, Note_off_c, 11, 43, 0
12, 1440, Note_on_c, 11, 41, 49
12, 1524, Note_off_c, 11, 41, 0
12, 1584, Note_on_c, 11, 53, 49
12, 1653, Note_off_c, 11, 53, 0
12, 1656, Note_on_c, 11, 55, 49
12, 1677, Note_off_c, 11, 55, 0
12, 1680, Note_on_c, 11, 53, 49
12, 1701, Note_off_c, 11, 53, 0
12, 1704, Note_on_c, 11, 52, 49
12, 1725, Note_off_c, 11, 52, 0
12, 1728, Note_on_c, 11, 50, 49
12, 1749, Note_off_c, 11, 50, 0
12, 1752, Note_on_c, 11, 48, 49
12, 1773, Note_off_c, 11, 48, 0
12, 1776, Note_on_c, 11, 47, 49
12, 1797, Note_off_c, 11, 47, 0
12, 1800, Note_on_c, 11, 45, 49
12, 1821, Note_off_c, 11, 45, 0
12, 1824, Note_on_c, 11, 43, 49
12, 1866, Note_off_c, 11, 43, 0
12, 1872, Note_on_c, 11, 48, 49
12, 1914, Note_off_c, 11, 48, 0
12, 1920, Note_on_c, 11, 55, 49
12, 1962, Note_off_c, 11, 55, 0
12, 1968, Note_on_c, 11, 43, 49
12, 2010, Note_off_c, 11, 43, 0
12, 2016, Note_on_c, 11, 48, 49
12, 2058, Note_off_c, 11, 48, 0
12, 2256, Note_on_c, 11, 50, 49
12, 2298, Note_off_c, 11, 50, 0
12, 2304, Note_on_c, 11, 52, 49
12, 2346, Note_off_c, 11, 52, 0
12, 2352, Note_on_c, 11, 54, 49
12, 2394, Note_off_c, 11, 54, 0
12, 2400, Note_on_c, 11, 55, 49
12, 2421, Note_off_c, 11, 55, 0
12, 2424, Note_on_c, 11, 50, 49
12, 2445, Note_off_c, 11, 50, 0
12, 2448, Note_on_c, 11, 55, 49
12, 2469, Note_off_c, 11, 55, 0
12, 2472, Note_on_c, 11, 57, 49
12, 2493, Note_off_c, 11, 57, 0
12, 2496, Note_on_c, 11, 55, 49
12, 2517, Note_off_c, 11, 55, 0
12, 2520, Note_on_c, 11, 53, 49
12, 2541, Note_off_c, 11, 53, 0
12, 2544, Note_on_c, 11, 52, 49
12, 2565, Note_off_c, 11, 52, 0
12, 2568, Note_on_c, 11, 50, 49
12, 2589, Note_off_c, 11, 50, 0
12, 2592, Note_on_c, 11, 48, 49
12, 2634, Note_off_c, 11, 48, 0
12, 2640, Note_on_c, 11, 45, 49
12, 2682, Note_off_c, 11, 45, 0
12, 2688, Note_on_c, 11, 46, 49
12, 2730, Note_off_c, 11, 46, 0
12, 2736, Note_on_c, 11, 48, 49
12, 2778, Note_off_c, 11, 48, 0
12, 2784, Note_on_c, 11, 50, 49
12, 2826, Note_off_c, 11, 50, 0
12, 2832, Note_on_c, 11, 43, 49
12, 2874, Note_off_c, 11, 43, 0
12, 2880, Note_on_c, 11, 45, 49
12, 2922, Note_off_c, 11, 45, 0
12, 2928, Note_on_c, 11, 46, 49
12, 2970, Note_off_c, 11, 46, 0
12, 2976, Note_on_c, 11, 48, 49
12, 3018, Note_off_c, 11, 48, 0
12, 3024, Note_on_c, 11, 36, 49
12, 3066, Note_off_c, 11, 36, 0
12, 3216, Note_on_c, 11, 48, 49
12, 3258, Note_off_c, 11, 48, 0
12, 3264, Note_on_c, 11, 50, 49
12, 3306, Note_off_c, 11, 50, 0
12, 3312, Note_on_c, 11, 52, 49
12, 3354, Note_off_c, 11, 52, 0
12, 3360, Note_on_c, 11, 53, 49
12, 3402, Note_off_c, 11, 53, 0
12, 3408, Note_on_c, 11, 41, 49
12, 3450, Note_off_c, 11, 41, 0
12, 3600, Note_on_c, 11, 53, 49
12, 3642, Note_off_c, 11, 53, 0
12, 3648, Note_on_c, 11, 55, 49
12, 3690, Note_off_c, 11, 55, 0
12, 3696, Note_on_c, 11, 57, 49
12, 3738, Note_off_c, 11, 57, 0
12, 3744, Note_on_c, 11, 58, 49
12, 3765, Note_off_c, 11, 58, 0
12, 3768, Note_on_c, 11, 53, 49
12, 3789, Note_off_c, 11, 53, 0
12, 3792, Note_on_c, 11, 58, 49
12, 3813, Note_off_c, 11, 58, 0
12, 3816, Note_on_c, 11, 57, 49
12, 3837, Note_off_c, 11, 57, 0
12, 3840, Note_on_c, 11, 58, 49
12, 3861, Note_off_c, 11, 58, 0
12, 3864, Note_on_c, 11, 57, 49
12, 3885, Note_off_c, 11, 57, 0
12, 3888, Note_on_c, 11, 58, 49
12, 3909, Note_off_c, 11, 58, 0
12, 3912, Note_on_c, 11, 57, 49
12, 3933, Note_off_c, 11, 57, 0
12, 3936, Note_on_c, 11, 58, 49
12, 3957, Note_off_c, 11, 58, 0
12, 3960, Note_on_c, 11, 60, 49
12, 3981, Note_off_c, 11, 60, 0
12, 3984, Note_on_c, 11, 58, 49
12, 4005, Note_off_c, 11, 58, 0
12, 4008, Note_on_c, 11, 57, 49
12, 4029, Note_off_c, 11, 57, 0
12, 4032, Note_on_c, 11, 55, 49
12, 4053, Note_off_c, 11, 55, 0
12, 4056, Note_on_c, 11, 53, 49
12, 4077, Note_off_c, 11, 53, 0
12, 4080, Note_on_c, 11, 52, 49
12, 4101, Note_off_c, 11, 52, 0
12, 4104, Note_on_c, 11, 50, 49
12, 4125, Note_off_c, 11, 50, 0
12, 4128, Note_on_c, 11, 48, 49
12, 4170, Note_off_c, 11, 48, 0
12, 4176, Note_on_c, 11, 53, 49
12, 4218, Note_off_c, 11, 53, 0
12, 4224, Note_on_c, 11, 60, 49
12, 4266, Note_off_c, 11, 60, 0
12, 4272, Note_on_c, 11, 48, 49
12, 4314, Note_off_c, 11, 48, 0
12, 4320, Note_on_c, 11, 50, 49
12, 4341, Note_off_c, 11, 50, 0
12, 4344, Note_on_c, 11, 48, 49
12, 4365, Note_off_c, 11, 48, 0
12, 4368, Note_on_c, 11, 50, 49
12, 4389, Note_off_c, 11, 50, 0
12, 4392, Note_on_c, 11, 48, 49
12, 4413, Note_off_c, 11, 48, 0
12, 4416, Note_on_c, 11, 46, 49
12, 4437, Note_off_c, 11, 46, 0
12, 4440, Note_on_c, 11, 45, 49
12, 4461, Note_off_c, 11, 45, 0
12, 4464, Note_on_c, 11, 46, 49
12, 4485, Note_off_c, 11, 46, 0
12, 4488, Note_on_c, 11, 45, 49
12, 4509, Note_off_c, 11, 45, 0
12, 4512, Note_on_c, 11, 43, 49
12, 4554, Note_off_c, 11, 43, 0
12, 4560, Note_on_c, 11, 41, 49
12, 4602, Note_off_c, 11, 41, 0
12, 4608, Note_on_c, 11, 48, 49
12, 4650, Note_off_c, 11, 48, 0
12, 4656, Note_on_c, 11, 36, 49
12, 4698, Note_off_c, 11, 36, 0
12, 4704, Note_on_c, 11, 41, 49
12, 4788, Note_off_c, 11, 41, 0
12, 5136, Note_on_c, 11, 41, 49
12, 5178, Note_off_c, 11, 41, 0
12, 5184, Note_on_c, 11, 45, 49
12, 5226, Note_off_c, 11, 45, 0
12, 5232, Note_on_c, 11, 48, 49
12, 5274, Note_off_c, 11, 48, 0
12, 5280, Note_on_c, 11, 53, 49
12, 5322, Note_off_c, 11, 53, 0
12, 5328, Note_on_c, 11, 50, 49
12, 5370, Note_off_c, 11, 50, 0
12, 5376, Note_on_c, 11, 45, 49
12, 5418, Note_off_c, 11, 45, 0
12, 5424, Note_on_c, 11, 46, 49
12, 5466, Note_off_c, 11, 46, 0
12, 5472, Note_on_c, 11, 48, 49
12, 5556, Note_off_c, 11, 48, 0
12, 5616, Note_on_c, 11, 43, 49
12, 5658, Note_off_c, 11, 43, 0
12, 5664, Note_on_c, 11, 45, 49
12, 5706, Note_off_c, 11, 45, 0
12, 5712, Note_on_c, 11, 40, 49
12, 5754, Note_off_c, 11, 40, 0
12, 5760, Note_on_c, 11, 41, 49
12, 5802, Note_off_c, 11, 41, 0
12, 5808, Note_on_c, 11, 43, 49
12, 5850, Note_off_c, 11, 43, 0
12, 5856, Note_on_c, 11, 36, 49
12, 5898, Note_off_c, 11, 36, 0
12, 5904, Note_on_c, 11, 43, 49
12, 5946, Note_off_c, 11, 43, 0
12, 5952, Note_on_c, 11, 48, 49
12, 5994, Note_off_c, 11, 48, 0
12, 6000, Note_on_c, 11, 36, 49
12, 6042, Note_off_c, 11, 36, 0
12, 6048, Note_on_c, 11, 41, 49
12, 6090, Note_off_c, 11, 41, 0
12, 6096, Note_on_c, 11, 45, 49
12, 6138, Note_off_c, 11, 45, 0
12, 6144, Note_on_c, 11, 50, 49
12, 6186, Note_off_c, 11, 50, 0
12, 6192, Note_on_c, 11, 38, 49
12, 6234, Note_off_c, 11, 38, 0
12, 6240, Note_on_c, 11, 43, 49
12, 6282, Note_off_c, 11, 43, 0
12, 6288, Note_on_c, 11, 47, 49
12, 6330, Note_off_c, 11, 47, 0
12, 6336, Note_on_c, 11, 52, 49
12, 6378, Note_off_c, 11, 52, 0
12, 6384, Note_on_c, 11, 40, 49
12, 6426, Note_off_c, 11, 40, 0
12, 6432, Note_on_c, 11, 45, 49
12, 6474, Note_off_c, 11, 45, 0
12, 6480, Note_on_c, 11, 53, 49
12, 6522, Note_off_c, 11, 53, 0
12, 6528, Note_on_c, 11, 55, 49
12, 6570, Note_off_c, 11, 55, 0
12, 6576, Note_on_c, 11, 43, 49
12, 6618, Note_off_c, 11, 43, 0
12, 6624, Note_on_c, 11, 48, 49
12, 6666, Note_off_c, 11, 48, 0
12, 6672, Note_on_c, 11, 60, 49
12, 6693, Note_off_c, 11, 60, 0
12, 6696, Note_on_c, 11, 62, 49
12, 6717, Note_off_c, 11, 62, 0
12, 6720, Note_on_c, 11, 60, 49
12, 6741, Note_off_c, 11, 60, 0
12, 6744, Note_on_c, 11, 58, 49
12, 6765, Note_off_c, 11, 58, 0
12, 6768, Note_on_c, 11, 57, 49
12, 6789, Note_off_c, 11, 57, 0
12, 6792, Note_on_c, 11, 55, 49
12, 6813, Note_off_c, 11, 55, 0
12, 6816, Note_on_c, 11, 54, 49
12, 6858, Note_off_c, 11, 54, 0
12, 6864, Note_on_c, 11, 50, 49
12, 6906, Note_off_c, 11, 50, 0
12, 6912, Note_on_c, 11, 52, 49
12, 6954, Note_off_c, 11, 52, 0
12, 6960, Note_on_c, 11, 54, 49
12, 7002, Note_off_c, 11, 54, 0
12, 7008, Note_on_c, 11, 55, 49
12, 7092, Note_off_c, 11, 55, 0
12, 7248, Note_on_c, 11, 45, 49
12, 7290, Note_off_c, 11, 45, 0
12, 7296, Note_on_c, 11, 47, 49
12, 7338, Note_off_c, 11, 47, 0
12, 7344, Note_on_c, 11, 49, 49
12, 7386, Note_off_c, 11, 49, 0
12, 7392, Note_on_c, 11, 50, 49
12, 7413, Note_off_c, 11, 50, 0
12, 7416, Note_on_c, 11, 52, 49
12, 7437, Note_off_c, 11, 52, 0
12, 7440, Note_on_c, 11, 50, 49
12, 7461, Note_off_c, 11, 50, 0
12, 7464, Note_on_c, 11, 48, 49
12, 7485, Note_off_c, 11, 48, 0
12, 7488, Note_on_c, 11, 46, 49
12, 7509, Note_off_c, 11, 46, 0
12, 7512, Note_on_c, 11, 45, 49
12, 7533, Note_off_c, 11, 45, 0
12, 7536, Note_on_c, 11, 43, 49
12, 7557, Note_off_c, 11, 43, 0
12, 7560, Note_on_c, 11, 41, 49
12, 7581, Note_off_c, 11, 41, 0
12, 7584, Note_on_c, 11, 40, 49
12, 7626, Note_off_c, 11, 40, 0
12, 7632, Note_on_c, 11, 48, 49
12, 7674, Note_off_c, 11, 48, 0
12, 7680, Note_on_c, 11, 50, 49
12, 7722, Note_off_c, 11, 50, 0
12, 7728, Note_on_c, 11, 52, 49
12, 7770, Note_off_c, 11, 52, 0
12, 7776, Note_on_c, 11, 53, 49
12, 7818, Note_off_c, 11, 53, 0
12, 7824, Note_on_c, 11, 50, 49
12, 7866, Note_off_c, 11, 50, 0
12, 7872, Note_on_c, 11, 46, 49
12, 7914, Note_off_c, 11, 46, 0
12, 7920, Note_on_c, 11, 45, 49
12, 7962, Note_off_c, 11, 45, 0
12, 7968, Note_on_c, 11, 43, 49
12, 8010, Note_off_c, 11, 43, 0
12, 8016, Note_on_c, 11, 48, 49
12, 8058, Note_off_c, 11, 48, 0
12, 8064, Note_on_c, 11, 45, 49
12, 8106, Note_off_c, 11, 45, 0
12, 8112, Note_on_c, 11, 43, 49
12, 8154, Note_off_c, 11, 43, 0
12, 8160, Note_on_c, 11, 41, 49
12, 8202, Note_off_c, 11, 41, 0
12, 8208, Note_on_c, 11, 46, 49
12, 8250, Note_off_c, 11, 46, 0
12, 8256, Note_on_c, 11, 43, 49
12, 8298, Note_off_c, 11, 43, 0
12, 8304, Note_on_c, 11, 41, 49
12, 8346, Note_off_c, 11, 41, 0
12, 8352, Note_on_c, 11, 39, 49
12, 8436, Note_off_c, 11, 39, 0
12, 8496, Note_on_c, 11, 51, 49
12, 8565, Note_off_c, 11, 51, 0
12, 8568, Note_on_c, 11, 53, 49
12, 8589, Note_off_c, 11, 53, 0
12, 8592, Note_on_c, 11, 51, 49
12, 8613, Note_off_c, 11, 51, 0
12, 8616, Note_on_c, 11, 50, 49
12, 8637, Note_off_c, 11, 50, 0
12, 8640, Note_on_c, 11, 48, 49
12, 8661, Note_off_c, 11, 48, 0
12, 8664, Note_on_c, 11, 46, 49
12, 8685, Note_off_c, 11, 46, 0
12, 8688, Note_on_c, 11, 45, 49
12, 8709, Note_off_c, 11, 45, 0
12, 8712, Note_on_c, 11, 43, 49
12, 8733, Note_off_c, 11, 43, 0
12, 8736, Note_on_c, 11, 41, 49
12, 8778, Note_off_c, 11, 41, 0
12, 8784, Note_on_c, 11, 46, 49
12, 8826, Note_off_c, 11, 46, 0
12, 8832, Note_on_c, 11, 53, 49
12, 8874, Note_off_c, 11, 53, 0
12, 8880, Note_on_c, 11, 41, 49
12, 8922, Note_off_c, 11, 41, 0
12, 8928, Note_on_c, 11, 46, 49
12, 8970, Note_off_c, 11, 46, 0
12, 8976, Note_on_c, 11, 58, 49
12, 9018, Note_off_c, 11, 58, 0
12, 9024, Note_on_c, 11, 60, 49
12, 9066, Note_off_c, 11, 60, 0
12, 9072, Note_on_c, 11, 62, 49
12, 9114, Note_off_c, 11, 62, 0
12, 9120, Note_on_c, 11, 63, 49
12, 9162, Note_off_c, 11, 63, 0
12, 9168, Note_on_c, 11, 57, 49
12, 9210, Note_off_c, 11, 57, 0
12, 9216, Note_on_c, 11, 58, 49
12, 9258, Note_off_c, 11, 58, 0
12, 9264, Note_on_c, 11, 60, 49
12, 9306, Note_off_c, 11, 60, 0
12, 9312, Note_on_c, 11, 62, 49
12, 9354, Note_off_c, 11, 62, 0
12, 9360, Note_on_c, 11, 55, 49
12, 9402, Note_off_c, 11, 55, 0
12, 9408, Note_on_c, 11, 57, 49
12, 9450, Note_off_c, 11, 57, 0
12, 9456, Note_on_c, 11, 58, 49
12, 9498, Note_off_c, 11, 58, 0
12, 9504, Note_on_c, 11, 60, 49
12, 9546, Note_off_c, 11, 60, 0
12, 9552, Note_on_c, 11, 53, 49
12, 9594, Note_off_c, 11, 53, 0
12, 9600, Note_on_c, 11, 55, 49
12, 9642, Note_off_c, 11, 55, 0
12, 9648, Note_on_c, 11, 57, 49
12, 9690, Note_off_c, 11, 57, 0
12, 9696, Note_on_c, 11, 58, 49
12, 9738, Note_off_c, 11, 58, 0
12, 9744, Note_on_c, 11, 52, 49
12, 9786, Note_off_c, 11, 52, 0
12, 9792, Note_on_c, 11, 53, 49
12, 9834, Note_off_c, 11, 53, 0
12, 9840, Note_on_c, 11, 55, 49
12, 9882, Note_off_c, 11, 55, 0
12, 9888, Note_on_c, 11, 57, 49
12, 9930, Note_off_c, 11, 57, 0
12, 9936, Note_on_c, 11, 52, 49
12, 9978, Note_off_c, 11, 52, 0
12, 9984, Note_on_c, 11, 49, 49
12, 10026, Note_off_c, 11, 49, 0
12, 10032, Note_on_c, 11, 45, 49
12, 10074, Note_off_c, 11, 45, 0
12, 10080, Note_on_c, 11, 50, 49
12, 10164, Note_off_c, 11, 50, 0
12, 10224, Note_on_c, 11, 45, 49
12, 10266, Note_off_c, 11, 45, 0
12, 10272, Note_on_c, 11, 46, 49
12, 10314, Note_off_c, 11, 46, 0
12, 10320, Note_on_c, 11, 41, 49
12, 10362, Note_off_c, 11, 41, 0
12, 10368, Note_on_c, 11, 43, 49
12, 10410, Note_off_c, 11, 43, 0
12, 10416, Note_on_c, 11, 45, 49
12, 10458, Note_off_c, 11, 45, 0
12, 10464, Note_on_c, 11, 38, 49
12, 10506, Note_off_c, 11, 38, 0
12, 10512, Note_on_c, 11, 50, 49
12, 10533, Note_off_c, 11, 50, 0
12, 10536, Note_on_c, 11, 49, 49
12, 10557, Note_off_c, 11, 49, 0
12, 10560, Note_on_c, 11, 50, 49
12, 10581, Note_off_c, 11, 50, 0
12, 10584, Note_on_c, 11, 49, 49
12, 10605, Note_off_c, 11, 49, 0
12, 10608, Note_on_c, 11, 50, 49
12, 10629, Note_off_c, 11, 50, 0
12, 10632, Note_on_c, 11, 46, 49
12, 10653, Note_off_c, 11, 46, 0
12, 10656, Note_on_c, 11, 48, 49
12, 10698, Note_off_c, 11, 48, 0
12, 10704, Note_on_c, 11, 45, 49
12, 10746, Note_off_c, 11, 45, 0
12, 10752, Note_on_c, 11, 46, 49
12, 10794, Note_off_c, 11, 46, 0
12, 10800, Note_on_c, 11, 43, 49
12, 10842, Note_off_c, 11, 43, 0
12, 10848, Note_on_c, 11, 45, 49
12, 10890, Note_off_c, 11, 45, 0
12, 10896, Note_on_c, 11, 57, 49
12, 10938, Note_off_c, 11, 57, 0
12, 11088, Note_on_c, 11, 45, 49
12, 11130, Note_off_c, 11, 45, 0
12, 11136, Note_on_c, 11, 47, 49
12, 11178, Note_off_c, 11, 47, 0
12, 11184, Note_on_c, 11, 49, 49
12, 11226, Note_off_c, 11, 49, 0
12, 11232, Note_on_c, 11, 38, 49
12, 11274, Note_off_c, 11, 38, 0
12, 11280, Note_on_c, 11, 50, 49
12, 11322, Note_off_c, 11, 50, 0
12, 11472, Note_on_c, 11, 50, 49
12, 11514, Note_off_c, 11, 50, 0
12, 11520, Note_on_c, 11, 52, 49
12, 11562, Note_off_c, 11, 52, 0
12, 11568, Note_on_c, 11, 54, 49
12, 11610, Note_off_c, 11, 54, 0
12, 11616, Note_on_c, 11, 55, 49
12, 11658, Note_off_c, 11, 55, 0
12, 11664, Note_on_c, 11, 57, 49
12, 11706, Note_off_c, 11, 57, 0
12, 11712, Note_on_c, 11, 58, 49
12, 11754, Note_off_c, 11, 58, 0
12, 11760, Note_on_c, 11, 55, 49
12, 11802, Note_off_c, 11, 55, 0
12, 11808, Note_on_c, 11, 57, 49
12, 11850, Note_off_c, 11, 57, 0
12, 11856, Note_on_c, 11, 58, 49
12, 11877, Note_off_c, 11, 58, 0
12, 11880, Note_on_c, 11, 57, 49
12, 11901, Note_off_c, 11, 57, 0
12, 11904, Note_on_c, 11, 55, 49
12, 11925, Note_off_c, 11, 55, 0
12, 11928, Note_on_c, 11, 53, 49
12, 11949, Note_off_c, 11, 53, 0
12, 11952, Note_on_c, 11, 52, 49
12, 11973, Note_off_c, 11, 52, 0
12, 11976, Note_on_c, 11, 50, 49
12, 11997, Note_off_c, 11, 50, 0
12, 12000, Note_on_c, 11, 49, 49
12, 12021, Note_off_c, 11, 49, 0
12, 12024, Note_on_c, 11, 50, 49
12, 12045, Note_off_c, 11, 50, 0
12, 12048, Note_on_c, 11, 52, 49
12, 12069, Note_off_c, 11, 52, 0
12, 12072, Note_on_c, 11, 50, 49
12, 12093, Note_off_c, 11, 50, 0
12, 12096, Note_on_c, 11, 49, 49
12, 12117, Note_off_c, 11, 49, 0
12, 12120, Note_on_c, 11, 47, 49
12, 12141, Note_off_c, 11, 47, 0
12, 12144, Note_on_c, 11, 45, 49
12, 12165, Note_off_c, 11, 45, 0
12, 12168, Note_on_c, 11, 43, 49
12, 12189, Note_off_c, 11, 43, 0
12, 12192, Note_on_c, 11, 41, 49
12, 12234, Note_off_c, 11, 41, 0
12, 12240, Note_on_c, 11, 50, 49
12, 12282, Note_off_c, 11, 50, 0
12, 12288, Note_on_c, 11, 57, 49
12, 12330, Note_off_c, 11, 57, 0
12, 12336, Note_on_c, 11, 45, 49
12, 12378, Note_off_c, 11, 45, 0
12, 12384, Note_on_c, 11, 50, 49
12, 12468, Note_off_c, 11, 50, 0
12, 12768, Note_on_c, 11, 43, 49
12, 12852, Note_off_c, 11, 43, 0
12, 13152, Note_on_c, 11, 48, 49
12, 13194, Note_off_c, 11, 48, 0
12, 13200, Note_on_c, 11, 60, 49
12, 13242, Note_off_c, 11, 60, 0
12, 13248, Note_on_c, 11, 58, 49
12, 13290, Note_off_c, 11, 58, 0
12, 13296, Note_on_c, 11, 57, 49
12, 13338, Note_off_c, 11, 57, 0
12, 13344, Note_on_c, 11, 55, 49
12, 13386, Note_off_c, 11, 55, 0
12, 13392, Note_on_c, 11, 53, 49
12, 13434, Note_off_c, 11, 53, 0
12, 13440, Note_on_c, 11, 52, 49
12, 13482, Note_off_c, 11, 52, 0
12, 13488, Note_on_c, 11, 48, 49
12, 13530, Note_off_c, 11, 48, 0
12, 13536, Note_on_c, 11, 53, 49
12, 13578, Note_off_c, 11, 53, 0
12, 13584, Note_on_c, 11, 48, 49
12, 13605, Note_off_c, 11, 48, 0
12, 13608, Note_on_c, 11, 46, 49
12, 13629, Note_off_c, 11, 46, 0
12, 13632, Note_on_c, 11, 48, 49
12, 13653, Note_off_c, 11, 48, 0
12, 13656, Note_on_c, 11, 46, 49
12, 13677, Note_off_c, 11, 46, 0
12, 13680, Note_on_c, 11, 48, 49
12, 13701, Note_off_c, 11, 48, 0
12, 13704, Note_on_c, 11, 50, 49
12, 13725, Note_off_c, 11, 50, 0
12, 13728, Note_on_c, 11, 51, 49
12, 13749, Note_off_c, 11, 51, 0
12, 13752, Note_on_c, 11, 53, 49
12, 13773, Note_off_c, 11, 53, 0
12, 13776, Note_on_c, 11, 46, 49
12, 13797, Note_off_c, 11, 46, 0
12, 13800, Note_on_c, 11, 45, 49
12, 13821, Note_off_c, 11, 45, 0
12, 13824, Note_on_c, 11, 46, 49
12, 13845, Note_off_c, 11, 46, 0
12, 13848, Note_on_c, 11, 45, 49
12, 13869, Note_off_c, 11, 45, 0
12, 13872, Note_on_c, 11, 46, 49
12, 13893, Note_off_c, 11, 46, 0
12, 13896, Note_on_c, 11, 48, 49
12, 13917, Note_off_c, 11, 48, 0
12, 13920, Note_on_c, 11, 50, 49
12, 13941, Note_off_c, 11, 50, 0
12, 13944, Note_on_c, 11, 52, 49
12, 13965, Note_off_c, 11, 52, 0
12, 13968, Note_on_c, 11, 45, 49
12, 13989, Note_off_c, 11, 45, 0
12, 13992, Note_on_c, 11, 43, 49
12, 14013, Note_off_c, 11, 43, 0
12, 14016, Note_on_c, 11, 45, 49
12, 14037, Note_off_c, 11, 45, 0
12, 14040, Note_on_c, 11, 43, 49
12, 14061, Note_off_c, 11, 43, 0
12, 14064, Note_on_c, 11, 45, 49
12, 14085, Note_off_c, 11, 45, 0
12, 14088, Note_on_c, 11, 46, 49
12, 14109, Note_off_c, 11, 46, 0
12, 14112, Note_on_c, 11, 48, 49
12, 14154, Note_off_c, 11, 48, 0
12, 14160, Note_on_c, 11, 43, 49
12, 14202, Note_off_c, 11, 43, 0
12, 14208, Note_on_c, 11, 40, 49
12, 14250, Note_off_c, 11, 40, 0
12, 14256, Note_on_c, 11, 36, 49
12, 14298, Note_off_c, 11, 36, 0
12, 14304, Note_on_c, 11, 41, 49
12, 14325, Note_off_c, 11, 41, 0
12, 14328, Note_on_c, 11, 48, 49
12, 14349, Note_off_c, 11, 48, 0
12, 14352, Note_on_c, 11, 53, 49
12, 14373, Note_off_c, 11, 53, 0
12, 14376, Note_on_c, 11, 52, 49
12, 14397, Note_off_c, 11, 52, 0
12, 14400, Note_on_c, 11, 53, 49
12, 14421, Note_off_c, 11, 53, 0
12, 14424, Note_on_c, 11, 52, 49
12, 14445, Note_off_c, 11, 52, 0
12, 14448, Note_on_c, 11, 53, 49
12, 14469, Note_off_c, 11, 53, 0
12, 14472, Note_on_c, 11, 52, 49
12, 14493, Note_off_c, 11, 52, 0
12, 14496, Note_on_c, 11, 50, 49
12, 14538, Note_off_c, 11, 50, 0
12, 14544, Note_on_c, 11, 45, 49
12, 14586, Note_off_c, 11, 45, 0
12, 14592, Note_on_c, 11, 41, 49
12, 14634, Note_off_c, 11, 41, 0
12, 14640, Note_on_c, 11, 38, 49
12, 14682, Note_off_c, 11, 38, 0
12, 14688, Note_on_c, 11, 43, 49
12, 14709, Note_off_c, 11, 43, 0
12, 14712, Note_on_c, 11, 50, 49
12, 14733, Note_off_c, 11, 50, 0
12, 14736, Note_on_c, 11, 55, 49
12, 14757, Note_off_c, 11, 55, 0
12, 14760, Note_on_c, 11, 53, 49
12, 14781, Note_off_c, 11, 53, 0
12, 14784, Note_on_c, 11, 55, 49
12, 14805, Note_off_c, 11, 55, 0
12, 14808, Note_on_c, 11, 53, 49
12, 14829, Note_off_c, 11, 53, 0
12, 14832, Note_on_c, 11, 55, 49
12, 14853, Note_off_c, 11, 55, 0
12, 14856, Note_on_c, 11, 53, 49
12, 14877, Note_off_c, 11, 53, 0
12, 14880, Note_on_c, 11, 52, 49
12, 14922, Note_off_c, 11, 52, 0
12, 14928, Note_on_c, 11, 47, 49
12, 14970, Note_off_c, 11, 47, 0
12, 14976, Note_on_c, 11, 43, 49
12, 15018, Note_off_c, 11, 43, 0
12, 15024, Note_on_c, 11, 40, 49
12, 15066, Note_off_c, 11, 40, 0
12, 15072, Note_on_c, 11, 45, 49
12, 15093, Note_off_c, 11, 45, 0
12, 15096, Note_on_c, 11, 52, 49
12, 15117, Note_off_c, 11, 52, 0
12, 15120, Note_on_c, 11, 57, 49
12, 15141, Note_off_c, 11, 57, 0
12, 15144, Note_on_c, 11, 55, 49
12, 15165, Note_off_c, 11, 55, 0
12, 15168, Note_on_c, 11, 57, 49
12, 15189, Note_off_c, 11, 57, 0
12, 15192, Note_on_c, 11, 55, 49
12, 15213, Note_off_c, 11, 55, 0
12, 15216, Note_on_c, 11, 57, 49
12, 15237, Note_off_c, 11, 57, 0
12, 15240, Note_on_c, 11, 55, 49
12, 15261, Note_off_c, 11, 55, 0
12, 15264, Note_on_c, 11, 54, 49
12, 15306, Note_off_c, 11, 54, 0
12, 15312, Note_on_c, 11, 63, 49
12, 15354, Note_off_c, 11, 63, 0
12, 15360, Note_on_c, 11, 60, 49
12, 15402, Note_off_c, 11, 60, 0
12, 15408, Note_on_c, 11, 57, 49
12, 15450, Note_off_c, 11, 57, 0
12, 15456, Note_on_c, 11, 54, 49
12, 15498, Note_off_c, 11, 54, 0
12, 15504, Note_on_c, 11, 60, 49
12, 15546, Note_off_c, 11, 60, 0
12, 15552, Note_on_c, 11, 57, 49
12, 15594, Note_off_c, 11, 57, 0
12, 15600, Note_on_c, 11, 54, 49
12, 15642, Note_off_c, 11, 54, 0
12, 15648, Note_on_c, 11, 50, 49
12, 15690, Note_off_c, 11, 50, 0
12, 15696, Note_on_c, 11, 45, 49
12, 15738, Note_off_c, 11, 45, 0
12, 15744, Note_on_c, 11, 42, 49
12, 15786, Note_off_c, 11, 42, 0
12, 15792, Note_on_c, 11, 38, 49
12, 15834, Note_off_c, 11, 38, 0
12, 15840, Note_on_c, 11, 53, 49
12, 15924, Note_off_c, 11, 53, 0
12, 15984, Note_on_c, 11, 53, 49
12, 16026, Note_off_c, 11, 53, 0
12, 16032, Note_on_c, 11, 52, 49
12, 16074, Note_off_c, 11, 52, 0
12, 16080, Note_on_c, 11, 53, 49
12, 16122, Note_off_c, 11, 53, 0
12, 16128, Note_on_c, 11, 55, 49
12, 16170, Note_off_c, 11, 55, 0
12, 16176, Note_on_c, 11, 43, 49
12, 16218, Note_off_c, 11, 43, 0
12, 16224, Note_on_c, 11, 48, 49
12, 16308, Note_off_c, 11, 48, 0
12, 16368, Note_on_c, 11, 43, 49
12, 16410, Note_off_c, 11, 43, 0
12, 16416, Note_on_c, 11, 45, 49
12, 16458, Note_off_c, 11, 45, 0
12, 16464, Note_on_c, 11, 40, 49
12, 16506, Note_off_c, 11, 40, 0
12, 16512, Note_on_c, 11, 41, 49
12, 16554, Note_off_c, 11, 41, 0
12, 16560, Note_on_c, 11, 43, 49
12, 16602, Note_off_c, 11, 43, 0
12, 16608, Note_on_c, 11, 36, 49
12, 16650, Note_off_c, 11, 36, 0
12, 16656, Note_on_c, 11, 48, 49
12, 16677, Note_off_c, 11, 48, 0
12, 16680, Note_on_c, 11, 47, 49
12, 16701, Note_off_c, 11, 47, 0
12, 16704, Note_on_c, 11, 48, 49
12, 16725, Note_off_c, 11, 48, 0
12, 16728, Note_on_c, 11, 47, 49
12, 16749, Note_off_c, 11, 47, 0
12, 16752, Note_on_c, 11, 48, 49
12, 16773, Note_off_c, 11, 48, 0
12, 16776, Note_on_c, 11, 45, 49
12, 16797, Note_off_c, 11, 45, 0
12, 16800, Note_on_c, 11, 47, 49
12, 16842, Note_off_c, 11, 47, 0
12, 16848, Note_on_c, 11, 43, 49
12, 16890, Note_off_c, 11, 43, 0
12, 16896, Note_on_c, 11, 45, 49
12, 16938, Note_off_c, 11, 45, 0
12, 16944, Note_on_c, 11, 38, 49
12, 16986, Note_off_c, 11, 38, 0
12, 16992, Note_on_c, 11, 43, 49
12, 17034, Note_off_c, 11, 43, 0
12, 17040, Note_on_c, 11, 55, 49
12, 17082, Note_off_c, 11, 55, 0
12, 17232, Note_on_c, 11, 40, 49
12, 17274, Note_off_c, 11, 40, 0
12, 17280, Note_on_c, 11, 42, 49
12, 17322, Note_off_c, 11, 42, 0
12, 17328, Note_on_c, 11, 44, 49
12, 17370, Note_off_c, 11, 44, 0
12, 17376, Note_on_c, 11, 45, 49
12, 17418, Note_off_c, 11, 45, 0
12, 17424, Note_on_c, 11, 57, 49
12, 17466, Note_off_c, 11, 57, 0
12, 17616, Note_on_c, 11, 45, 49
12, 17658, Note_off_c, 11, 45, 0
12, 17664, Note_on_c, 11, 50, 49
12, 17706, Note_off_c, 11, 50, 0
12, 17712, Note_on_c, 11, 52, 49
12, 17754, Note_off_c, 11, 52, 0
12, 17760, Note_on_c, 11, 53, 49
12, 17802, Note_off_c, 11, 53, 0
12, 17808, Note_on_c, 11, 52, 49
12, 17829, Note_off_c, 11, 52, 0
12, 17832, Note_on_c, 11, 50, 49
12, 17853, Note_off_c, 11, 50, 0
12, 17856, Note_on_c, 11, 48, 49
12, 17877, Note_off_c, 11, 48, 0
12, 17880, Note_on_c, 11, 47, 49
12, 17901, Note_off_c, 11, 47, 0
12, 17904, Note_on_c, 11, 45, 49
12, 17925, Note_off_c, 11, 45, 0
12, 17928, Note_on_c, 11, 44, 49
12, 17949, Note_off_c, 11, 44, 0
12, 17952, Note_on_c, 11, 45, 49
12, 17994, Note_off_c, 11, 45, 0
12, 18000, Note_on_c, 11, 50, 49
12, 18042, Note_off_c, 11, 50, 0
12, 18048, Note_on_c, 11, 52, 49
12, 18090, Note_off_c, 11, 52, 0
12, 18096, Note_on_c, 11, 40, 49
12, 18138, Note_off_c, 11, 40, 0
12, 18144, Note_on_c, 11, 45, 49
12, 18186, Note_off_c, 11, 45, 0
12, 18192, Note_on_c, 11, 57, 49
12, 18234, Note_off_c, 11, 57, 0
12, 18240, Note_on_c, 11, 58, 49
12, 18282, Note_off_c, 11, 58, 0
12, 18288, Note_on_c, 11, 60, 49
12, 18330, Note_off_c, 11, 60, 0
12, 18336, Note_on_c, 11, 62, 49
12, 18378, Note_off_c, 11, 62, 0
12, 18384, Note_on_c, 11, 55, 49
12, 18426, Note_off_c, 11, 55, 0
12, 18432, Note_on_c, 11, 57, 49
12, 18474, Note_off_c, 11, 57, 0
12, 18480, Note_on_c, 11, 58, 49
12, 18522, Note_off_c, 11, 58, 0
12, 18528, Note_on_c, 11, 60, 49
12, 18570, Note_off_c, 11, 60, 0
12, 18576, Note_on_c, 11, 53, 49
12, 18618, Note_off_c, 11, 53, 0
12, 18624, Note_on_c, 11, 55, 49
12, 18666, Note_off_c, 11, 55, 0
12, 18672, Note_on_c, 11, 57, 49
12, 18714, Note_off_c, 11, 57, 0
12, 18720, Note_on_c, 11, 58, 49
12, 18762, Note_off_c, 11, 58, 0
12, 18768, Note_on_c, 11, 52, 49
12, 18810, Note_off_c, 11, 52, 0
12, 18816, Note_on_c, 11, 53, 49
12, 18858, Note_off_c, 11, 53, 0
12, 18864, Note_on_c, 11, 55, 49
12, 18906, Note_off_c, 11, 55, 0
12, 18912, Note_on_c, 11, 57, 49
12, 18954, Note_off_c, 11, 57, 0
12, 18960, Note_on_c, 11, 55, 49
12, 19002, Note_off_c, 11, 55, 0
12, 19008, Note_on_c, 11, 53, 49
12, 19050, Note_off_c, 11, 53, 0
12, 19056, Note_on_c, 11, 52, 49
12, 19098, Note_off_c, 11, 52, 0
12, 19104, Note_on_c, 11, 50, 49
12, 19146, Note_off_c, 11, 50, 0
12, 19152, Note_on_c, 11, 48, 49
12, 19194, Note_off_c, 11, 48, 0
12, 19200, Note_on_c, 11, 46, 49
12, 19242, Note_off_c, 11, 46, 0
12, 19248, Note_on_c, 11, 45, 49
12, 19290, Note_off_c, 11, 45, 0
12, 19296, Note_on_c, 11, 43, 49
12, 19338, Note_off_c, 11, 43, 0
12, 19344, Note_on_c, 11, 46, 49
12, 19386, Note_off_c, 11, 46, 0
12, 19392, Note_on_c, 11, 48, 49
12, 19434, Note_off_c, 11, 48, 0
12, 19440, Note_on_c, 11, 50, 49
12, 19482, Note_off_c, 11, 50, 0
12, 19488, Note_on_c, 11, 51, 49
12, 19530, Note_off_c, 11, 51, 0
12, 19536, Note_on_c, 11, 48, 49
12, 19578, Note_off_c, 11, 48, 0
12, 19584, Note_on_c, 11, 50, 49
12, 19626, Note_off_c, 11, 50, 0
12, 19632, Note_on_c, 11, 38, 49
12, 19674, Note_off_c, 11, 38, 0
12, 19680, Note_on_c, 11, 43, 49
12, 19764, Note_off_c, 11, 43, 0
12, 19824, Note_on_c, 11, 50, 49
12, 19866, Note_off_c, 11, 50, 0
12, 19872, Note_on_c, 11, 51, 49
12, 19914, Note_off_c, 11, 51, 0
12, 19920, Note_on_c, 11, 46, 49
12, 19962, Note_off_c, 11, 46, 0
12, 19968, Note_on_c, 11, 48, 49
12, 20010, Note_off_c, 11, 48, 0
12, 20016, Note_on_c, 11, 50, 49
12, 20058, Note_off_c, 11, 50, 0
12, 20064, Note_on_c, 11, 43, 49
12, 20106, Note_off_c, 11, 43, 0
12, 20112, Note_on_c, 11, 55, 49
12, 20154, Note_off_c, 11, 55, 0
12, 20160, Note_on_c, 11, 57, 49
12, 20202, Note_off_c, 11, 57, 0
12, 20208, Note_on_c, 11, 58, 49
12, 20250, Note_off_c, 11, 58, 0
12, 20256, Note_on_c, 11, 60, 49
12, 20298, Note_off_c, 11, 60, 0
12, 20304, Note_on_c, 11, 53, 49
12, 20346, Note_off_c, 11, 53, 0
12, 20352, Note_on_c, 11, 55, 49
12, 20394, Note_off_c, 11, 55, 0
12, 20400, Note_on_c, 11, 57, 49
12, 20442, Note_off_c, 11, 57, 0
12, 20448, Note_on_c, 11, 58, 49
12, 20490, Note_off_c, 11, 58, 0
12, 20496, Note_on_c, 11, 52, 49
12, 20538, Note_off_c, 11, 52, 0
12, 20544, Note_on_c, 11, 53, 49
12, 20586, Note_off_c, 11, 53, 0
12, 20592, Note_on_c, 11, 55, 49
12, 20634, Note_off_c, 11, 55, 0
12, 20640, Note_on_c, 11, 57, 49
12, 20682, Note_off_c, 11, 57, 0
12, 20688, Note_on_c, 11, 50, 49
12, 20730, Note_off_c, 11, 50, 0
12, 20736, Note_on_c, 11, 52, 49
12, 20778, Note_off_c, 11, 52, 0
12, 20784, Note_on_c, 11, 53, 49
12, 20826, Note_off_c, 11, 53, 0
12, 20832, Note_on_c, 11, 55, 49
12, 20874, Note_off_c, 11, 55, 0
12, 20880, Note_on_c, 11, 53, 49
12, 20922, Note_off_c, 11, 53, 0
12, 20928, Note_on_c, 11, 52, 49
12, 20970, Note_off_c, 11, 52, 0
12, 20976, Note_on_c, 11, 50, 49
12, 21018, Note_off_c, 11, 50, 0
12, 21024, Note_on_c, 11, 48, 49
12, 21066, Note_off_c, 11, 48, 0
12, 21072, Note_on_c, 11, 46, 49
12, 21114, Note_off_c, 11, 46, 0
12, 21120, Note_on_c, 11, 45, 49
12, 21162, Note_off_c, 11, 45, 0
12, 21168, Note_on_c, 11, 43, 49
12, 21210, Note_off_c, 11, 43, 0
12, 21216, Note_on_c, 11, 41, 49
12, 21258, Note_off_c, 11, 41, 0
12, 21264, Note_on_c, 11, 45, 49
12, 21306, Note_off_c, 11, 45, 0
12, 21312, Note_on_c, 11, 46, 49
12, 21354, Note_off_c, 11, 46, 0
12, 21360, Note_on_c, 11, 48, 49
12, 21402, Note_off_c, 11, 48, 0
12, 21408, Note_on_c, 11, 50, 49
12, 21450, Note_off_c, 11, 50, 0
12, 21456, Note_on_c, 11, 46, 49
12, 21498, Note_off_c, 11, 46, 0
12, 21504, Note_on_c, 11, 48, 49
12, 21546, Note_off_c, 11, 48, 0
12, 21552, Note_on_c, 11, 36, 49
12, 21594, Note_off_c, 11, 36, 0
12, 21600, Note_on_c, 11, 41, 49
12, 21684, Note_off_c, 11, 41, 0
12, 21744, Note_on_c, 11, 48, 49
12, 21786, Note_off_c, 11, 48, 0
12, 21792, Note_on_c, 11, 50, 49
12, 21834, Note_off_c, 11, 50, 0
12, 21840, Note_on_c, 11, 45, 49
12, 21882, Note_off_c, 11, 45, 0
12, 21888, Note_on_c, 11, 46, 49
12, 21930, Note_off_c, 11, 46, 0
12, 21936, Note_on_c, 11, 48, 49
12, 21978, Note_off_c, 11, 48, 0
12, 21984, Note_on_c, 11, 41, 49
12, 22068, Note_off_c, 11, 41, 0
12, 22416, Note_on_c, 11, 41, 49
12, 22458, Note_off_c, 11, 41, 0
12, 22464, Note_on_c, 11, 45, 49
12, 22506, Note_off_c, 11, 45, 0
12, 22512, Note_on_c, 11, 48, 49
12, 22554, Note_off_c, 11, 48, 0
12, 22560, Note_on_c, 11, 53, 49
12, 22602, Note_off_c, 11, 53, 0
12, 22608, Note_on_c, 11, 50, 49
12, 22650, Note_off_c, 11, 50, 0
12, 22656, Note_on_c, 11, 45, 49
12, 22698, Note_off_c, 11, 45, 0
12, 22704, Note_on_c, 11, 46, 49
12, 22746, Note_off_c, 11, 46, 0
12, 22752, Note_on_c, 11, 48, 49
12, 22836, Note_off_c, 11, 48, 0
12, 22896, Note_on_c, 11, 43, 49
12, 22938, Note_off_c, 11, 43, 0
12, 22944, Note_on_c, 11, 45, 49
12, 22986, Note_off_c, 11, 45, 0
12, 22992, Note_on_c, 11, 40, 49
12, 23034, Note_off_c, 11, 40, 0
12, 23040, Note_on_c, 11, 41, 49
12, 23082, Note_off_c, 11, 41, 0
12, 23088, Note_on_c, 11, 43, 49
12, 23130, Note_off_c, 11, 43, 0
12, 23136, Note_on_c, 11, 36, 49
12, 23178, Note_off_c, 11, 36, 0
12, 23184, Note_on_c, 11, 43, 49
12, 23226, Note_off_c, 11, 43, 0
12, 23232, Note_on_c, 11, 48, 49
12, 23274, Note_off_c, 11, 48, 0
12, 23280, Note_on_c, 11, 36, 49
12, 23322, Note_off_c, 11, 36, 0
12, 23328, Note_on_c, 11, 41, 49
12, 23370, Note_off_c, 11, 41, 0
12, 23376, Note_on_c, 11, 45, 49
12, 23418, Note_off_c, 11, 45, 0
12, 23424, Note_on_c, 11, 50, 49
12, 23466, Note_off_c, 11, 50, 0
12, 23472, Note_on_c, 11, 38, 49
12, 23514, Note_off_c, 11, 38, 0
12, 23520, Note_on_c, 11, 43, 49
12, 23562, Note_off_c, 11, 43, 0
12, 23568, Note_on_c, 11, 47, 49
12, 23610, Note_off_c, 11, 47, 0
12, 23616, Note_on_c, 11, 52, 49
12, 23658, Note_off_c, 11, 52, 0
12, 23664, Note_on_c, 11, 40, 49
12, 23706, Note_off_c, 11, 40, 0
12, 23712, Note_on_c, 11, 45, 49
12, 23754, Note_off_c, 11, 45, 0
12, 23760, Note_on_c, 11, 53, 49
12, 23802, Note_off_c, 11, 53, 0
12, 23808, Note_on_c, 11, 55, 49
12, 23850, Note_off_c, 11, 55, 0
12, 23856, Note_on_c, 11, 43, 49
12, 23898, Note_off_c, 11, 43, 0
12, 23904, Note_on_c, 11, 48, 49
12, 23988, Note_off_c, 11, 48, 0
12, 24288, Note_on_c, 11, 41, 49
12, 24372, Note_off_c, 11, 41, 0
12, 24672, Note_on_c, 11, 46, 49
12, 24714, Note_off_c, 11, 46, 0
12, 24720, Note_on_c, 11, 53, 49
12, 24741, Note_off_c, 11, 53, 0
12, 24744, Note_on_c, 11, 51, 49
12, 24765, Note_off_c, 11, 51, 0
12, 24768, Note_on_c, 11, 53, 49
12, 24789, Note_off_c, 11, 53, 0
12, 24792, Note_on_c, 11, 51, 49
12, 24813, Note_off_c, 11, 51, 0
12, 24816, Note_on_c, 11, 53, 49
12, 24837, Note_off_c, 11, 53, 0
12, 24840, Note_on_c, 11, 55, 49
12, 24861, Note_off_c, 11, 55, 0
12, 24864, Note_on_c, 11, 56, 49
12, 24885, Note_off_c, 11, 56, 0
12, 24888, Note_on_c, 11, 58, 49
12, 24909, Note_off_c, 11, 58, 0
12, 24912, Note_on_c, 11, 51, 49
12, 24933, Note_off_c, 11, 51, 0
12, 24936, Note_on_c, 11, 50, 49
12, 24957, Note_off_c, 11, 50, 0
12, 24960, Note_on_c, 11, 51, 49
12, 24981, Note_off_c, 11, 51, 0
12, 24984, Note_on_c, 11, 50, 49
12, 25005, Note_off_c, 11, 50, 0
12, 25008, Note_on_c, 11, 51, 49
12, 25029, Note_off_c, 11, 51, 0
12, 25032, Note_on_c, 11, 53, 49
12, 25053, Note_off_c, 11, 53, 0
12, 25056, Note_on_c, 11, 55, 49
12, 25077, Note_off_c, 11, 55, 0
12, 25080, Note_on_c, 11, 57, 49
12, 25101, Note_off_c, 11, 57, 0
12, 25104, Note_on_c, 11, 50, 49
12, 25125, Note_off_c, 11, 50, 0
12, 25128, Note_on_c, 11, 48, 49
12, 25149, Note_off_c, 11, 48, 0
12, 25152, Note_on_c, 11, 50, 49
12, 25173, Note_off_c, 11, 50, 0
12, 25176, Note_on_c, 11, 48, 49
12, 25197, Note_off_c, 11, 48, 0
12, 25200, Note_on_c, 11, 50, 49
12, 25221, Note_off_c, 11, 50, 0
12, 25224, Note_on_c, 11, 51, 49
12, 25245, Note_off_c, 11, 51, 0
12, 25248, Note_on_c, 11, 53, 49
12, 25290, Note_off_c, 11, 53, 0
12, 25296, Note_on_c, 11, 48, 49
12, 25338, Note_off_c, 11, 48, 0
12, 25344, Note_on_c, 11, 45, 49
12, 25386, Note_off_c, 11, 45, 0
12, 25392, Note_on_c, 11, 41, 49
12, 25434, Note_off_c, 11, 41, 0
12, 25440, Note_on_c, 11, 46, 49
12, 25461, Note_off_c, 11, 46, 0
12, 25464, Note_on_c, 11, 53, 49
12, 25485, Note_off_c, 11, 53, 0
12, 25488, Note_on_c, 11, 58, 49
12, 25509, Note_off_c, 11, 58, 0
12, 25512, Note_on_c, 11, 57, 49
12, 25533, Note_off_c, 11, 57, 0
12, 25536, Note_on_c, 11, 58, 49
12, 25557, Note_off_c, 11, 58, 0
12, 25560, Note_on_c, 11, 57, 49
12, 25581, Note_off_c, 11, 57, 0
12, 25584, Note_on_c, 11, 58, 49
12, 25605, Note_off_c, 11, 58, 0
12, 25608, Note_on_c, 11, 57, 49
12, 25629, Note_off_c, 11, 57, 0
12, 25632, Note_on_c, 11, 55, 49
12, 25674, Note_off_c, 11, 55, 0
12, 25680, Note_on_c, 11, 50, 49
12, 25722, Note_off_c, 11, 50, 0
12, 25728, Note_on_c, 11, 46, 49
12, 25770, Note_off_c, 11, 46, 0
12, 25776, Note_on_c, 11, 43, 49
12, 25818, Note_off_c, 11, 43, 0
12, 25824, Note_on_c, 11, 48, 49
12, 25845, Note_off_c, 11, 48, 0
12, 25848, Note_on_c, 11, 55, 49
12, 25869, Note_off_c, 11, 55, 0
12, 25872, Note_on_c, 11, 60, 49
12, 25893, Note_off_c, 11, 60, 0
12, 25896, Note_on_c, 11, 58, 49
12, 25917, Note_off_c, 11, 58, 0
12, 25920, Note_on_c, 11, 60, 49
12, 25941, Note_off_c, 11, 60, 0
12, 25944, Note_on_c, 11, 58, 49
12, 25965, Note_off_c, 11, 58, 0
12, 25968, Note_on_c, 11, 60, 49
12, 25989, Note_off_c, 11, 60, 0
12, 25992, Note_on_c, 11, 58, 49
12, 26013, Note_off_c, 11, 58, 0
12, 26016, Note_on_c, 11, 57, 49
12, 26058, Note_off_c, 11, 57, 0
12, 26064, Note_on_c, 11, 52, 49
12, 26106, Note_off_c, 11, 52, 0
12, 26112, Note_on_c, 11, 48, 49
12, 26154, Note_off_c, 11, 48, 0
12, 26160, Note_on_c, 11, 45, 49
12, 26202, Note_off_c, 11, 45, 0
12, 26208, Note_on_c, 11, 50, 49
12, 26229, Note_off_c, 11, 50, 0
12, 26232, Note_on_c, 11, 57, 49
12, 26253, Note_off_c, 11, 57, 0
12, 26256, Note_on_c, 11, 62, 49
12, 26277, Note_off_c, 11, 62, 0
12, 26280, Note_on_c, 11, 60, 49
12, 26301, Note_off_c, 11, 60, 0
12, 26304, Note_on_c, 11, 62, 49
12, 26325, Note_off_c, 11, 62, 0
12, 26328, Note_on_c, 11, 60, 49
12, 26349, Note_off_c, 11, 60, 0
12, 26352, Note_on_c, 11, 62, 49
12, 26373, Note_off_c, 11, 62, 0
12, 26376, Note_on_c, 11, 60, 49
12, 26397, Note_off_c, 11, 60, 0
12, 26400, Note_on_c, 11, 59, 49
12, 26442, Note_off_c, 11, 59, 0
12, 26448, Note_on_c, 11, 56, 49
12, 26490, Note_off_c, 11, 56, 0
12, 26496, Note_on_c, 11, 53, 49
12, 26538, Note_off_c, 11, 53, 0
12, 26544, Note_on_c, 11, 50, 49
12, 26586, Note_off_c, 11, 50, 0
12, 26592, Note_on_c, 11, 47, 49
12, 26634, Note_off_c, 11, 47, 0
12, 26640, Note_on_c, 11, 53, 49
12, 26682, Note_off_c, 11, 53, 0
12, 26688, Note_on_c, 11, 50, 49
12, 26730, Note_off_c, 11, 50, 0
12, 26736, Note_on_c, 11, 47, 49
12, 26778, Note_off_c, 11, 47, 0
12, 26784, Note_on_c, 11, 43, 49
12, 26826, Note_off_c, 11, 43, 0
12, 26832, Note_on_c, 11, 50, 49
12, 26874, Note_off_c, 11, 50, 0
12, 26880, Note_on_c, 11, 47, 49
12, 26922, Note_off_c, 11, 47, 0
12, 26928, Note_on_c, 11, 43, 49
12, 26970, Note_off_c, 11, 43, 0
12, 26976, Note_on_c, 11, 58, 49
12, 27060, Note_off_c, 11, 58, 0
12, 27120, Note_on_c, 11, 46, 49
12, 27162, Note_off_c, 11, 46, 0
12, 27168, Note_on_c, 11, 45, 49
12, 27210, Note_off_c, 11, 45, 0
12, 27216, Note_on_c, 11, 46, 49
12, 27258, Note_off_c, 11, 46, 0
12, 27264, Note_on_c, 11, 48, 49
12, 27306, Note_off_c, 11, 48, 0
12, 27312, Note_on_c, 11, 36, 49
12, 27354, Note_off_c, 11, 36, 0
12, 27360, Note_on_c, 11, 41, 49
12, 27444, Note_off_c, 11, 41, 0
12, 27504, Note_on_c, 11, 48, 49
12, 27546, Note_off_c, 11, 48, 0
12, 27552, Note_on_c, 11, 50, 49
12, 27594, Note_off_c, 11, 50, 0
12, 27600, Note_on_c, 11, 45, 49
12, 27642, Note_off_c, 11, 45, 0
12, 27648, Note_on_c, 11, 46, 49
12, 27690, Note_off_c, 11, 46, 0
12, 27696, Note_on_c, 11, 48, 49
12, 27738, Note_off_c, 11, 48, 0
12, 27744, Note_on_c, 11, 41, 49
12, 27786, Note_off_c, 11, 41, 0
12, 27792, Note_on_c, 11, 53, 49
12, 27813, Note_off_c, 11, 53, 0
12, 27816, Note_on_c, 11, 52, 49
12, 27837, Note_off_c, 11, 52, 0
12, 27840, Note_on_c, 11, 53, 49
12, 27861, Note_off_c, 11, 53, 0
12, 27864, Note_on_c, 11, 52, 49
12, 27885, Note_off_c, 11, 52, 0
12, 27888, Note_on_c, 11, 53, 49
12, 27909, Note_off_c, 11, 53, 0
12, 27912, Note_on_c, 11, 50, 49
12, 27933, Note_off_c, 11, 50, 0
12, 27936, Note_on_c, 11, 52, 49
12, 27978, Note_off_c, 11, 52, 0
12, 27984, Note_on_c, 11, 48, 49
12, 28026, Note_off_c, 11, 48, 0
12, 28032, Note_on_c, 11, 50, 49
12, 28074, Note_off_c, 11, 50, 0
12, 28080, Note_on_c, 11, 43, 49
12, 28122, Note_off_c, 11, 43, 0
12, 28128, Note_on_c, 11, 48, 49
12, 28170, Note_off_c, 11, 48, 0
12, 28176, Note_on_c, 11, 52, 49
12, 28218, Note_off_c, 11, 52, 0
12, 28224, Note_on_c, 11, 48, 49
12, 28266, Note_off_c, 11, 48, 0
12, 28272, Note_on_c, 11, 47, 49
12, 28314, Note_off_c, 11, 47, 0
12, 28320, Note_on_c, 11, 45, 49
12, 28362, Note_off_c, 11, 45, 0
12, 28368, Note_on_c, 11, 50, 49
12, 28410, Note_off_c, 11, 50, 0
12, 28416, Note_on_c, 11, 47, 49
12, 28458, Note_off_c, 11, 47, 0
12, 28464, Note_on_c, 11, 45, 49
12, 28506, Note_off_c, 11, 45, 0
12, 28512, Note_on_c, 11, 43, 49
12, 28554, Note_off_c, 11, 43, 0
12, 28560, Note_on_c, 11, 48, 49
12, 28602, Note_off_c, 11, 48, 0
12, 28608, Note_on_c, 11, 45, 49
12, 28650, Note_off_c, 11, 45, 0
12, 28656, Note_on_c, 11, 43, 49
12, 28698, Note_off_c, 11, 43, 0
12, 28704, Note_on_c, 11, 41, 49
12, 28788, Note_off_c, 11, 41, 0
12, 28848, Note_on_c, 11, 53, 49
12, 28917, Note_off_c, 11, 53, 0
12, 28920, Note_on_c, 11, 55, 49
12, 28941, Note_off_c, 11, 55, 0
12, 28944, Note_on_c, 11, 53, 49
12, 28965, Note_off_c, 11, 53, 0
12, 28968, Note_on_c, 11, 52, 49
12, 28989, Note_off_c, 11, 52, 0
12, 28992, Note_on_c, 11, 50, 49
12, 29013, Note_off_c, 11, 50, 0
12, 29016, Note_on_c, 11, 48, 49
12, 29037, Note_off_c, 11, 48, 0
12, 29040, Note_on_c, 11, 47, 49
12, 29061, Note_off_c, 11, 47, 0
12, 29064, Note_on_c, 11, 45, 49
12, 29085, Note_off_c, 11, 45, 0
12, 29088, Note_on_c, 11, 43, 49
12, 29130, Note_off_c, 11, 43, 0
12, 29136, Note_on_c, 11, 48, 49
12, 29178, Note_off_c, 11, 48, 0
12, 29184, Note_on_c, 11, 55, 49
12, 29226, Note_off_c, 11, 55, 0
12, 29232, Note_on_c, 11, 43, 49
12, 29274, Note_off_c, 11, 43, 0
12, 29280, Note_on_c, 11, 48, 49
12, 29322, Note_off_c, 11, 48, 0
12, 29520, Note_on_c, 11, 50, 49
12, 29562, Note_off_c, 11, 50, 0
12, 29568, Note_on_c, 11, 52, 49
12, 29610, Note_off_c, 11, 52, 0
12, 29616, Note_on_c, 11, 54, 49
12, 29658, Note_off_c, 11, 54, 0
12, 29664, Note_on_c, 11, 55, 49
12, 29685, Note_off_c, 11, 55, 0
12, 29688, Note_on_c, 11, 50, 49
12, 29709, Note_off_c, 11, 50, 0
12, 29712, Note_on_c, 11, 55, 49
12, 29733, Note_off_c, 11, 55, 0
12, 29736, Note_on_c, 11, 57, 49
12, 29757, Note_off_c, 11, 57, 0
12, 29760, Note_on_c, 11, 55, 49
12, 29781, Note_off_c, 11, 55, 0
12, 29784, Note_on_c, 11, 53, 49
12, 29805, Note_off_c, 11, 53, 0
12, 29808, Note_on_c, 11, 52, 49
12, 29829, Note_off_c, 11, 52, 0
12, 29832, Note_on_c, 11, 50, 49
12, 29853, Note_off_c, 11, 50, 0
12, 29856, Note_on_c, 11, 48, 49
12, 29898, Note_off_c, 11, 48, 0
12, 29904, Note_on_c, 11, 45, 49
12, 29946, Note_off_c, 11, 45, 0
12, 29952, Note_on_c, 11, 46, 49
12, 29994, Note_off_c, 11, 46, 0
12, 30000, Note_on_c, 11, 48, 49
12, 30042, Note_off_c, 11, 48, 0
12, 30048, Note_on_c, 11, 50, 49
12, 30090, Note_off_c, 11, 50, 0
12, 30096, Note_on_c, 11, 43, 49
12, 30138, Note_off_c, 11, 43, 0
12, 30144, Note_on_c, 11, 45, 49
12, 30186, Note_off_c, 11, 45, 0
12, 30192, Note_on_c, 11, 46, 49
12, 30234, Note_off_c, 11, 46, 0
12, 30240, Note_on_c, 11, 48, 49
12, 30282, Note_off_c, 11, 48, 0
12, 30288, Note_on_c, 11, 36, 49
12, 30330, Note_off_c, 11, 36, 0
12, 30480, Note_on_c, 11, 48, 49
12, 30522, Note_off_c, 11, 48, 0
12, 30528, Note_on_c, 11, 50, 49
12, 30570, Note_off_c, 11, 50, 0
12, 30576, Note_on_c, 11, 52, 49
12, 30618, Note_off_c, 11, 52, 0
12, 30624, Note_on_c, 11, 53, 49
12, 30666, Note_off_c, 11, 53, 0
12, 30672, Note_on_c, 11, 41, 49
12, 30714, Note_off_c, 11, 41, 0
12, 30864, Note_on_c, 11, 53, 49
12, 30906, Note_off_c, 11, 53, 0
12, 30912, Note_on_c, 11, 55, 49
12, 30954, Note_off_c, 11, 55, 0
12, 30960, Note_on_c, 11, 57, 49
12, 31002, Note_off_c, 11, 57, 0
12, 31008, Note_on_c, 11, 58, 49
12, 31029, Note_off_c, 11, 58, 0
12, 31032, Note_on_c, 11, 46, 49
12, 31053, Note_off_c, 11, 46, 0
12, 31056, Note_on_c, 11, 58, 49
12, 31077, Note_off_c, 11, 58, 0
12, 31080, Note_on_c, 11, 57, 49
12, 31101, Note_off_c, 11, 57, 0
12, 31104, Note_on_c, 11, 58, 49
12, 31125, Note_off_c, 11, 58, 0
12, 31128, Note_on_c, 11, 57, 49
12, 31149, Note_off_c, 11, 57, 0
12, 31152, Note_on_c, 11, 58, 49
12, 31173, Note_off_c, 11, 58, 0
12, 31176, Note_on_c, 11, 57, 49
12, 31197, Note_off_c, 11, 57, 0
12, 31200, Note_on_c, 11, 58, 49
12, 31221, Note_off_c, 11, 58, 0
12, 31224, Note_on_c, 11, 60, 49
12, 31245, Note_off_c, 11, 60, 0
12, 31248, Note_on_c, 11, 58, 49
12, 31269, Note_off_c, 11, 58, 0
12, 31272, Note_on_c, 11, 57, 49
12, 31293, Note_off_c, 11, 57, 0
12, 31296, Note_on_c, 11, 55, 49
12, 31317, Note_off_c, 11, 55, 0
12, 31320, Note_on_c, 11, 53, 49
12, 31341, Note_off_c, 11, 53, 0
12, 31344, Note_on_c, 11, 52, 49
12, 31365, Note_off_c, 11, 52, 0
12, 31368, Note_on_c, 11, 50, 49
12, 31389, Note_off_c, 11, 50, 0
12, 31392, Note_on_c, 11, 48, 49
12, 31434, Note_off_c, 11, 48, 0
12, 31440, Note_on_c, 11, 53, 49
12, 31482, Note_off_c, 11, 53, 0
12, 31488, Note_on_c, 11, 60, 49
12, 31530, Note_off_c, 11, 60, 0
12, 31536, Note_on_c, 11, 48, 49
12, 31578, Note_off_c, 11, 48, 0
12, 31584, Note_on_c, 11, 50, 49
12, 31605, Note_off_c, 11, 50, 0
12, 31608, Note_on_c, 11, 48, 49
12, 31629, Note_off_c, 11, 48, 0
12, 31632, Note_on_c, 11, 50, 49
12, 31653, Note_off_c, 11, 50, 0
12, 31656, Note_on_c, 11, 48, 49
12, 31677, Note_off_c, 11, 48, 0
12, 31680, Note_on_c, 11, 46, 49
12, 31701, Note_off_c, 11, 46, 0
12, 31704, Note_on_c, 11, 45, 49
12, 31725, Note_off_c, 11, 45, 0
12, 31728, Note_on_c, 11, 46, 49
12, 31749, Note_off_c, 11, 46, 0
12, 31752, Note_on_c, 11, 45, 49
12, 31773, Note_off_c, 11, 45, 0
12, 31776, Note_on_c, 11, 43, 49
12, 31818, Note_off_c, 11, 43, 0
12, 31824, Note_on_c, 11, 41, 49
12, 31866, Note_off_c, 11, 41, 0
12, 31872, Note_on_c, 11, 48, 49
12, 31914, Note_off_c, 11, 48, 0
12, 31920, Note_on_c, 11, 36, 49
12, 31962, Note_off_c, 11, 36, 0
12, 31968, Note_on_c, 11, 41, 49
12, 32010, Note_off_c, 11, 41, 0
12, 32016, Note_on_c, 11, 41, 49
12, 32037, Note_off_c, 11, 41, 0
12, 32040, Note_on_c, 11, 41, 49
12, 32061, Note_off_c, 11, 41, 0
12, 32064, Note_on_c, 11, 41, 49
12, 32085, Note_off_c, 11, 41, 0
12, 32088, Note_on_c, 11, 41, 49
12, 32109, Note_off_c, 11, 41, 0
12, 32112, Note_on_c, 11, 41, 49
12, 32133, Note_off_c, 11, 41, 0
12, 32136, Note_on_c, 11, 41, 49
12, 32157, Note_off_c, 11, 41, 0
12, 32160, Note_on_c, 11, 41, 49
12, 32340, Note_off_c, 11, 41, 0
12, 32340, End_track
13, 0, Start_track
13, 0, Title_t, "Contrabass"
13, 0, Control_c, 12, 0, 0
13, 0, Program_c, 12, 43
13, 0, Time_signature, 4, 2, 96, 8
13, 0, Tempo, 681818
13, 96, Note_on_c, 12, 41, 101
13, 180, Note_off_c, 12, 41, 0
13, 240, Note_on_c, 12, 36, 101
13, 282, Note_off_c, 12, 36, 0
13, 288, Note_on_c, 12, 38, 101
13, 330, Note_off_c, 12, 38, 0
13, 336, Note_on_c, 12, 33, 101
13, 378, Note_off_c, 12, 33, 0
13, 384, Note_on_c, 12, 34, 101
13, 426, Note_off_c, 12, 34, 0
13, 432, Note_on_c, 12, 36, 101
13, 474, Note_off_c, 12, 36, 0
13, 480, Note_on_c, 12, 29, 101
13, 522, Note_off_c, 12, 29, 0
13, 528, Note_on_c, 12, 41, 101
13, 549, Note_off_c, 12, 41, 0
13, 552, Note_on_c, 12, 40, 101
13, 573, Note_off_c, 12, 40, 0
13, 576, Note_on_c, 12, 41, 101
13, 597, Note_off_c, 12, 41, 0
13, 600, Note_on_c, 12, 40, 101
13, 621, Note_off_c, 12, 40, 0
13, 624, Note_on_c, 12, 41, 101
13, 645, Note_off_c, 12, 41, 0
13, 648, Note_on_c, 12, 38, 101
13, 669, Note_off_c, 12, 38, 0
13, 672, Note_on_c, 12, 40, 101
13, 714, Note_off_c, 12, 40, 0
13, 720, Note_on_c, 12, 36, 101
13, 762, Note_off_c, 12, 36, 0
13, 768, Note_on_c, 12, 38, 101
13, 810, Note_off_c, 12, 38, 0
13, 816, Note_on_c, 12, 31, 101
13, 858, Note_off_c, 12, 31, 0
13, 864, Note_on_c, 12, 36, 101
13, 906, Note_off_c, 12, 36, 0
13, 912, Note_on_c, 12, 40, 101
13, 954, Note_off_c, 12, 40, 0
13, 960, Note_on_c, 12, 36, 101
13, 1002, Note_off_c, 12, 36, 0
13, 1008, Note_on_c, 12, 35, 101
13, 1050, Note_off_c, 12, 35, 0
13, 1056, Note_on_c, 12, 33, 101
13, 1098, Note_off_c, 12, 33, 0
13, 1104, Note_on_c, 12, 38, 101
13, 1146, Note_off_c, 12, 38, 0
13, 1152, Note_on_c, 12, 35, 101
13, 1194, Note_off_c, 12, 35, 0
13, 1200, Note_on_c, 12, 33, 101
13, 1242, Note_off_c, 12, 33, 0
13, 1248, Note_on_c, 12, 31, 101
13, 1290, Note_off_c, 12, 31, 0
13, 1296, Note_on_c, 12, 36, 101
13, 1338, Note_off_c, 12, 36, 0
13, 1344, Note_on_c, 12, 33, 101
13, 1386, Note_off_c, 12, 33, 0
13, 1392, Note_on_c, 12, 31, 101
13, 1434, Note_off_c, 12, 31, 0
13, 1440, Note_on_c, 12, 29, 101
13, 1524, Note_off_c, 12, 29, 0
13, 1584, Note_on_c, 12, 41, 101
13, 1653, Note_off_c, 12, 41, 0
13, 1656, Note_on_c, 12, 43, 101
13, 1677, Note_off_c, 12, 43, 0
13, 1680, Note_on_c, 12, 41, 101
13, 1701, Note_off_c, 12, 41, 0
13, 1704, Note_on_c, 12, 40, 101
13, 1725, Note_off_c, 12, 40, 0
13, 1728, Note_on_c, 12, 38, 101
13, 1749, Note_off_c, 12, 38, 0
13, 1752, Note_on_c, 12, 36, 101
13, 1773, Note_off_c, 12, 36, 0
13, 1776, Note_on_c, 12, 35, 101
13, 1797, Note_off_c, 12, 35, 0
13, 1800, Note_on_c, 12, 33, 101
13, 1821, Note_off_c, 12, 33, 0
13, 1824, Note_on_c, 12, 31, 101
13, 1866, Note_off_c, 12, 31, 0
13, 1872, Note_on_c, 12, 36, 101
13, 1914, Note_off_c, 12, 36, 0
13, 1920, Note_on_c, 12, 43, 101
13, 1962, Note_off_c, 12, 43, 0
13, 1968, Note_on_c, 12, 31, 101
13, 2010, Note_off_c, 12, 31, 0
13, 2016, Note_on_c, 12, 36, 101
13, 2058, Note_off_c, 12, 36, 0
13, 2256, Note_on_c, 12, 38, 101
13, 2298, Note_off_c, 12, 38, 0
13, 2304, Note_on_c, 12, 40, 101
13, 2346, Note_off_c, 12, 40, 0
13, 2352, Note_on_c, 12, 42, 101
13, 2394, Note_off_c, 12, 42, 0
13, 2400, Note_on_c, 12, 43, 101
13, 2442, Note_off_c, 12, 43, 0
13, 2640, Note_on_c, 12, 33, 101
13, 2682, Note_off_c, 12, 33, 0
13, 2688, Note_on_c, 12, 34, 101
13, 2730, Note_off_c, 12, 34, 0
13, 2736, Note_on_c, 12, 36, 101
13, 2778, Note_off_c, 12, 36, 0
13, 2784, Note_on_c, 12, 38, 101
13, 2826, Note_off_c, 12, 38, 0
13, 2832, Note_on_c, 12, 31, 101
13, 2874, Note_off_c, 12, 31, 0
13, 2880, Note_on_c, 12, 33, 101
13, 2922, Note_off_c, 12, 33, 0
13, 2928, Note_on_c, 12, 34, 101
13, 2970, Note_off_c, 12, 34, 0
13, 2976, Note_on_c, 12, 36, 101
13, 3018, Note_off_c, 12, 36, 0
13, 3024, Note_on_c, 12, 24, 101
13, 3066, Note_off_c, 12, 24, 0
13, 3216, Note_on_c, 12, 36, 101
13, 3258, Note_off_c, 12, 36, 0
13, 3264, Note_on_c, 12, 38, 101
13, 3306, Note_off_c, 12, 38, 0
13, 3312, Note_on_c, 12, 40, 101
13, 3354, Note_off_c, 12, 40, 0
13, 3360, Note_on_c, 12, 41, 101
13, 3402, Note_off_c, 12, 41, 0
13, 3408, Note_on_c, 12, 29, 101
13, 3450, Note_off_c, 12, 29, 0
13, 3600, Note_on_c, 12, 41, 101
13, 3642, Note_off_c, 12, 41, 0
13, 3648, Note_on_c, 12, 43, 101
13, 3690, Note_off_c, 12, 43, 0
13, 3696, Note_on_c, 12, 45, 101
13, 3738, Note_off_c, 12, 45, 0
13, 3744, Note_on_c, 12, 46, 101
13, 3765, Note_off_c, 12, 46, 0
13, 3768, Note_on_c, 12, 41, 101
13, 3789, Note_off_c, 12, 41, 0
13, 3792, Note_on_c, 12, 46, 101
13, 3813, Note_off_c, 12, 46, 0
13, 3816, Note_on_c, 12, 45, 101
13, 3837, Note_off_c, 12, 45, 0
13, 3840, Note_on_c, 12, 46, 101
13, 3861, Note_off_c, 12, 46, 0
13, 3864, Note_on_c, 12, 45, 101
13, 3885, Note_off_c, 12, 45, 0
13, 3888, Note_on_c, 12, 46, 101
13, 3909, Note_off_c, 12, 46, 0
13, 3912, Note_on_c, 12, 45, 101
13, 3933, Note_off_c, 12, 45, 0
13, 3936, Note_on_c, 12, 46, 101
13, 3957, Note_off_c, 12, 46, 0
13, 3960, Note_on_c, 12, 48, 101
13, 3981, Note_off_c, 12, 48, 0
13, 3984, Note_on_c, 12, 46, 101
13, 4005, Note_off_c, 12, 46, 0
13, 4008, Note_on_c, 12, 45, 101
13, 4029, Note_off_c, 12, 45, 0
13, 4032, Note_on_c, 12, 43, 101
13, 4053, Note_off_c, 12, 43, 0
13, 4056, Note_on_c, 12, 41, 101
13, 4077, Note_off_c, 12, 41, 0
13, 4080, Note_on_c, 12, 40, 101
13, 4101, Note_off_c, 12, 40, 0
13, 4104, Note_on_c, 12, 38, 101
13, 4125, Note_off_c, 12, 38, 0
13, 4128, Note_on_c, 12, 36, 101
13, 4170, Note_off_c, 12, 36, 0
13, 4176, Note_on_c, 12, 41, 101
13, 4218, Note_off_c, 12, 41, 0
13, 4224, Note_on_c, 12, 48, 101
13, 4266, Note_off_c, 12, 48, 0
13, 4272, Note_on_c, 12, 36, 101
13, 4314, Note_off_c, 12, 36, 0
13, 4320, Note_on_c, 12, 38, 101
13, 4341, Note_off_c, 12, 38, 0
13, 4344, Note_on_c, 12, 36, 101
13, 4365, Note_off_c, 12, 36, 0
13, 4368, Note_on_c, 12, 38, 101
13, 4389, Note_off_c, 12, 38, 0
13, 4392, Note_on_c, 12, 36, 101
13, 4413, Note_off_c, 12, 36, 0
13, 4416, Note_on_c, 12, 34, 101
13, 4437, Note_off_c, 12, 34, 0
13, 4440, Note_on_c, 12, 33, 101
13, 4461, Note_off_c, 12, 33, 0
13, 4464, Note_on_c, 12, 34, 101
13, 4485, Note_off_c, 12, 34, 0
13, 4488, Note_on_c, 12, 33, 101
13, 4509, Note_off_c, 12, 33, 0
13, 4512, Note_on_c, 12, 31, 101
13, 4554, Note_off_c, 12, 31, 0
13, 4560, Note_on_c, 12, 29, 101
13, 4602, Note_off_c, 12, 29, 0
13, 4608, Note_on_c, 12, 36, 101
13, 4650, Note_off_c, 12, 36, 0
13, 4656, Note_on_c, 12, 24, 101
13, 4698, Note_off_c, 12, 24, 0
13, 4704, Note_on_c, 12, 29, 101
13, 4788, Note_off_c, 12, 29, 0
13, 5136, Note_on_c, 12, 29, 101
13, 5178, Note_off_c, 12, 29, 0
13, 5184, Note_on_c, 12, 33, 101
13, 5226, Note_off_c, 12, 33, 0
13, 5232, Note_on_c, 12, 36, 101
13, 5274, Note_off_c, 12, 36, 0
13, 5280, Note_on_c, 12, 41, 101
13, 5322, Note_off_c, 12, 41, 0
13, 5328, Note_on_c, 12, 38, 101
13, 5370, Note_off_c, 12, 38, 0
13, 5376, Note_on_c, 12, 33, 101
13, 5418, Note_off_c, 12, 33, 0
13, 5424, Note_on_c, 12, 34, 101
13, 5466, Note_off_c, 12, 34, 0
13, 5472, Note_on_c, 12, 36, 101
13, 5556, Note_off_c, 12, 36, 0
13, 5616, Note_on_c, 12, 31, 101
13, 5658, Note_off_c, 12, 31, 0
13, 5664, Note_on_c, 12, 33, 101
13, 5706, Note_off_c, 12, 33, 0
13, 5712, Note_on_c, 12, 28, 101
13, 5754, Note_off_c, 12, 28, 0
13, 5760, Note_on_c, 12, 29, 101
13, 5802, Note_off_c, 12, 29, 0
13, 5808, Note_on_c, 12, 31, 101
13, 5850, Note_off_c, 12, 31, 0
13, 5856, Note_on_c, 12, 24, 101
13, 5898, Note_off_c, 12, 24, 0
13, 5904, Note_on_c, 12, 31, 101
13, 5946, Note_off_c, 12, 31, 0
13, 5952, Note_on_c, 12, 36, 101
13, 5994, Note_off_c, 12, 36, 0
13, 6000, Note_on_c, 12, 24, 101
13, 6042, Note_off_c, 12, 24, 0
13, 6048, Note_on_c, 12, 29, 101
13, 6090, Note_off_c, 12, 29, 0
13, 6096, Note_on_c, 12, 33, 101
13, 6138, Note_off_c, 12, 33, 0
13, 6144, Note_on_c, 12, 38, 101
13, 6186, Note_off_c, 12, 38, 0
13, 6192, Note_on_c, 12, 26, 101
13, 6234, Note_off_c, 12, 26, 0
13, 6240, Note_on_c, 12, 31, 101
13, 6282, Note_off_c, 12, 31, 0
13, 6288, Note_on_c, 12, 35, 101
13, 6330, Note_off_c, 12, 35, 0
13, 6336, Note_on_c, 12, 40, 101
13, 6378, Note_off_c, 12, 40, 0
13, 6384, Note_on_c, 12, 28, 101
13, 6426, Note_off_c, 12, 28, 0
13, 6432, Note_on_c, 12, 33, 101
13, 6474, Note_off_c, 12, 33, 0
13, 6480, Note_on_c, 12, 41, 101
13, 6522, Note_off_c, 12, 41, 0
13, 6528, Note_on_c, 12, 43, 101
13, 6570, Note_off_c, 12, 43, 0
13, 6576, Note_on_c, 12, 31, 101
13, 6618, Note_off_c, 12, 31, 0
13, 6624, Note_on_c, 12, 36, 101
13, 6708, Note_off_c, 12, 36, 0
13, 6864, Note_on_c, 12, 38, 101
13, 6906, Note_off_c, 12, 38, 0
13, 6912, Note_on_c, 12, 40, 101
13, 6954, Note_off_c, 12, 40, 0
13, 6960, Note_on_c, 12, 42, 101
13, 7002, Note_off_c, 12, 42, 0
13, 7008, Note_on_c, 12, 43, 101
13, 7092, Note_off_c, 12, 43, 0
13, 7248, Note_on_c, 12, 33, 101
13, 7290, Note_off_c, 12, 33, 0
13, 7296, Note_on_c, 12, 35, 101
13, 7338, Note_off_c, 12, 35, 0
13, 7344, Note_on_c, 12, 37, 101
13, 7386, Note_off_c, 12, 37, 0
13, 7392, Note_on_c, 12, 38, 101
13, 7413, Note_off_c, 12, 38, 0
13, 7416, Note_on_c, 12, 40, 101
13, 7437, Note_off_c, 12, 40, 0
13, 7440, Note_on_c, 12, 38, 101
13, 7461, Note_off_c, 12, 38, 0
13, 7464, Note_on_c, 12, 36, 101
13, 7485, Note_off_c, 12, 36, 0
13, 7488, Note_on_c, 12, 34, 101
13, 7509, Note_off_c, 12, 34, 0
13, 7512, Note_on_c, 12, 33, 101
13, 7533, Note_off_c, 12, 33, 0
13, 7536, Note_on_c, 12, 31, 101
13, 7557, Note_off_c, 12, 31, 0
13, 7560, Note_on_c, 12, 29, 101
13, 7581, Note_off_c, 12, 29, 0
13, 7584, Note_on_c, 12, 28, 101
13, 7626, Note_off_c, 12, 28, 0
13, 7632, Note_on_c, 12, 36, 101
13, 7674, Note_off_c, 12, 36, 0
13, 7680, Note_on_c, 12, 38, 101
13, 7722, Note_off_c, 12, 38, 0
13, 7728, Note_on_c, 12, 40, 101
13, 7770, Note_off_c, 12, 40, 0
13, 7776, Note_on_c, 12, 41, 101
13, 7818, Note_off_c, 12, 41, 0
13, 7824, Note_on_c, 12, 38, 101
13, 7866, Note_off_c, 12, 38, 0
13, 7872, Note_on_c, 12, 34, 101
13, 7914, Note_off_c, 12, 34, 0
13, 7920, Note_on_c, 12, 33, 101
13, 7962, Note_off_c, 12, 33, 0
13, 7968, Note_on_c, 12, 31, 101
13, 8010, Note_off_c, 12, 31, 0
13, 8016, Note_on_c, 12, 36, 101
13, 8058, Note_off_c, 12, 36, 0
13, 8064, Note_on_c, 12, 33, 101
13, 8106, Note_off_c, 12, 33, 0
13, 8112, Note_on_c, 12, 31, 101
13, 8154, Note_off_c, 12, 31, 0
13, 8160, Note_on_c, 12, 29, 101
13, 8202, Note_off_c, 12, 29, 0
13, 8208, Note_on_c, 12, 34, 101
13, 8250, Note_off_c, 12, 34, 0
13, 8256, Note_on_c, 12, 31, 101
13, 8298, Note_off_c, 12, 31, 0
13, 8304, Note_on_c, 12, 29, 101
13, 8346, Note_off_c, 12, 29, 0
13, 8352, Note_on_c, 12, 27, 101
13, 8436, Note_off_c, 12, 27, 0
13, 8496, Note_on_c, 12, 39, 101
13, 8565, Note_off_c, 12, 39, 0
13, 8568, Note_on_c, 12, 41, 101
13, 8589, Note_off_c, 12, 41, 0
13, 8592, Note_on_c, 12, 39, 101
13, 8613, Note_off_c, 12, 39, 0
13, 8616, Note_on_c, 12, 38, 101
13, 8637, Note_off_c, 12, 38, 0
13, 8640, Note_on_c, 12, 36, 101
13, 8661, Note_off_c, 12, 36, 0
13, 8664, Note_on_c, 12, 34, 101
13, 8685, Note_off_c, 12, 34, 0
13, 8688, Note_on_c, 12, 33, 101
13, 8709, Note_off_c, 12, 33, 0
13, 8712, Note_on_c, 12, 31, 101
13, 8733, Note_off_c, 12, 31, 0
13, 8736, Note_on_c, 12, 29, 101
13, 8778, Note_off_c, 12, 29, 0
13, 8784, Note_on_c, 12, 34, 101
13, 8826, Note_off_c, 12, 34, 0
13, 8832, Note_on_c, 12, 41, 101
13, 8874, Note_off_c, 12, 41, 0
13, 8880, Note_on_c, 12, 29, 101
13, 8922, Note_off_c, 12, 29, 0
13, 8928, Note_on_c, 12, 34, 101
13, 8970, Note_off_c, 12, 34, 0
13, 8976, Note_on_c, 12, 46, 101
13, 9018, Note_off_c, 12, 46, 0
13, 9024, Note_on_c, 12, 48, 101
13, 9066, Note_off_c, 12, 48, 0
13, 9072, Note_on_c, 12, 50, 101
13, 9114, Note_off_c, 12, 50, 0
13, 9120, Note_on_c, 12, 51, 101
13, 9162, Note_off_c, 12, 51, 0
13, 9168, Note_on_c, 12, 45, 101
13, 9210, Note_off_c, 12, 45, 0
13, 9216, Note_on_c, 12, 46, 101
13, 9258, Note_off_c, 12, 46, 0
13, 9264, Note_on_c, 12, 48, 101
13, 9306, Note_off_c, 12, 48, 0
13, 9312, Note_on_c, 12, 50, 101
13, 9354, Note_off_c, 12, 50, 0
13, 9360, Note_on_c, 12, 43, 101
13, 9402, Note_off_c, 12, 43, 0
13, 9408, Note_on_c, 12, 45, 101
13, 9450, Note_off_c, 12, 45, 0
13, 9456, Note_on_c, 12, 46, 101
13, 9498, Note_off_c, 12, 46, 0
13, 9504, Note_on_c, 12, 48, 101
13, 9546, Note_off_c, 12, 48, 0
13, 9552, Note_on_c, 12, 41, 101
13, 9594, Note_off_c, 12, 41, 0
13, 9600, Note_on_c, 12, 43, 101
13, 9642, Note_off_c, 12, 43, 0
13, 9648, Note_on_c, 12, 45, 101
13, 9690, Note_off_c, 12, 45, 0
13, 9696, Note_on_c, 12, 46, 101
13, 9738, Note_off_c, 12, 46, 0
13, 9744, Note_on_c, 12, 40, 101
13, 9786, Note_off_c, 12, 40, 0
13, 9792, Note_on_c, 12, 41, 101
13, 9834, Note_off_c, 12, 41, 0
13, 9840, Note_on_c, 12, 43, 101
13, 9882, Note_off_c, 12, 43, 0
13, 9888, Note_on_c, 12, 45, 101
13, 9930, Note_off_c, 12, 45, 0
13, 9936, Note_on_c, 12, 40, 101
13, 9978, Note_off_c, 12, 40, 0
13, 9984, Note_on_c, 12, 37, 101
13, 10026, Note_off_c, 12, 37, 0
13, 10032, Note_on_c, 12, 33, 101
13, 10074, Note_off_c, 12, 33, 0
13, 10080, Note_on_c, 12, 38, 101
13, 10164, Note_off_c, 12, 38, 0
13, 10224, Note_on_c, 12, 33, 101
13, 10266, Note_off_c, 12, 33, 0
13, 10272, Note_on_c, 12, 34, 101
13, 10314, Note_off_c, 12, 34, 0
13, 10320, Note_on_c, 12, 29, 101
13, 10362, Note_off_c, 12, 29, 0
13, 10368, Note_on_c, 12, 31, 101
13, 10410, Note_off_c, 12, 31, 0
13, 10416, Note_on_c, 12, 33, 101
13, 10458, Note_off_c, 12, 33, 0
13, 10464, Note_on_c, 12, 26, 101
13, 10506, Note_off_c, 12, 26, 0
13, 10512, Note_on_c, 12, 38, 101
13, 10533, Note_off_c, 12, 38, 0
13, 10536, Note_on_c, 12, 37, 101
13, 10557, Note_off_c, 12, 37, 0
13, 10560, Note_on_c, 12, 38, 101
13, 10581, Note_off_c, 12, 38, 0
13, 10584, Note_on_c, 12, 37, 101
13, 10605, Note_off_c, 12, 37, 0
13, 10608, Note_on_c, 12, 38, 101
13, 10629, Note_off_c, 12, 38, 0
13, 10632, Note_on_c, 12, 34, 101
13, 10653, Note_off_c, 12, 34, 0
13, 10656, Note_on_c, 12, 36, 101
13, 10698, Note_off_c, 12, 36, 0
13, 10704, Note_on_c, 12, 33, 101
13, 10746, Note_off_c, 12, 33, 0
13, 10752, Note_on_c, 12, 34, 101
13, 10794, Note_off_c, 12, 34, 0
13, 10800, Note_on_c, 12, 31, 101
13, 10842, Note_off_c, 12, 31, 0
13, 10848, Note_on_c, 12, 33, 101
13, 10890, Note_off_c, 12, 33, 0
13, 10896, Note_on_c, 12, 45, 101
13, 10938, Note_off_c, 12, 45, 0
13, 11088, Note_on_c, 12, 33, 101
13, 11130, Note_off_c, 12, 33, 0
13, 11136, Note_on_c, 12, 35, 101
13, 11178, Note_off_c, 12, 35, 0
13, 11184, Note_on_c, 12, 37, 101
13, 11226, Note_off_c, 12, 37, 0
13, 11232, Note_on_c, 12, 26, 101
13, 11274, Note_off_c, 12, 26, 0
13, 11280, Note_on_c, 12, 38, 101
13, 11322, Note_off_c, 12, 38, 0
13, 11472, Note_on_c, 12, 38, 101
13, 11514, Note_off_c, 12, 38, 0
13, 11520, Note_on_c, 12, 40, 101
13, 11562, Note_off_c, 12, 40, 0
13, 11568, Note_on_c, 12, 42, 101
13, 11610, Note_off_c, 12, 42, 0
13, 11616, Note_on_c, 12, 43, 101
13, 11658, Note_off_c, 12, 43, 0
13, 11664, Note_on_c, 12, 45, 101
13, 11706, Note_off_c, 12, 45, 0
13, 11712, Note_on_c, 12, 46, 101
13, 11754, Note_off_c, 12, 46, 0
13, 11760, Note_on_c, 12, 43, 101
13, 11802, Note_off_c, 12, 43, 0
13, 11808, Note_on_c, 12, 45, 101
13, 11850, Note_off_c, 12, 45, 0
13, 11856, Note_on_c, 12, 46, 101
13, 11877, Note_off_c, 12, 46, 0
13, 11880, Note_on_c, 12, 45, 101
13, 11901, Note_off_c, 12, 45, 0
13, 11904, Note_on_c, 12, 43, 101
13, 11925, Note_off_c, 12, 43, 0
13, 11928, Note_on_c, 12, 41, 101
13, 11949, Note_off_c, 12, 41, 0
13, 11952, Note_on_c, 12, 40, 101
13, 11973, Note_off_c, 12, 40, 0
13, 11976, Note_on_c, 12, 38, 101
13, 11997, Note_off_c, 12, 38, 0
13, 12000, Note_on_c, 12, 37, 101
13, 12021, Note_off_c, 12, 37, 0
13, 12024, Note_on_c, 12, 38, 101
13, 12045, Note_off_c, 12, 38, 0
13, 12048, Note_on_c, 12, 40, 101
13, 12069, Note_off_c, 12, 40, 0
13, 12072, Note_on_c, 12, 38, 101
13, 12093, Note_off_c, 12, 38, 0
13, 12096, Note_on_c, 12, 37, 101
13, 12117, Note_off_c, 12, 37, 0
13, 12120, Note_on_c, 12, 35, 101
13, 12141, Note_off_c, 12, 35, 0
13, 12144, Note_on_c, 12, 33, 101
13, 12165, Note_off_c, 12, 33, 0
13, 12168, Note_on_c, 12, 31, 101
13, 12189, Note_off_c, 12, 31, 0
13, 12192, Note_on_c, 12, 29, 101
13, 12234, Note_off_c, 12, 29, 0
13, 12240, Note_on_c, 12, 38, 101
13, 12282, Note_off_c, 12, 38, 0
13, 12288, Note_on_c, 12, 45, 101
13, 12330, Note_off_c, 12, 45, 0
13, 12336, Note_on_c, 12, 33, 101
13, 12378, Note_off_c, 12, 33, 0
13, 12384, Note_on_c, 12, 38, 101
13, 12468, Note_off_c, 12, 38, 0
13, 12768, Note_on_c, 12, 31, 101
13, 12852, Note_off_c, 12, 31, 0
13, 13152, Note_on_c, 12, 36, 101
13, 13194, Note_off_c, 12, 36, 0
13, 13200, Note_on_c, 12, 48, 101
13, 13242, Note_off_c, 12, 48, 0
13, 13248, Note_on_c, 12, 46, 101
13, 13290, Note_off_c, 12, 46, 0
13, 13296, Note_on_c, 12, 45, 101
13, 13338, Note_off_c, 12, 45, 0
13, 13344, Note_on_c, 12, 43, 101
13, 13386, Note_off_c, 12, 43, 0
13, 13392, Note_on_c, 12, 41, 101
13, 13434, Note_off_c, 12, 41, 0
13, 13440, Note_on_c, 12, 40, 101
13, 13482, Note_off_c, 12, 40, 0
13, 13488, Note_on_c, 12, 36, 101
13, 13530, Note_off_c, 12, 36, 0
13, 13536, Note_on_c, 12, 41, 101
13, 13578, Note_off_c, 12, 41, 0
13, 13584, Note_on_c, 12, 36, 101
13, 13605, Note_off_c, 12, 36, 0
13, 13608, Note_on_c, 12, 34, 101
13, 13629, Note_off_c, 12, 34, 0
13, 13632, Note_on_c, 12, 36, 101
13, 13653, Note_off_c, 12, 36, 0
13, 13656, Note_on_c, 12, 34, 101
13, 13677, Note_off_c, 12, 34, 0
13, 13680, Note_on_c, 12, 36, 101
13, 13701, Note_off_c, 12, 36, 0
13, 13704, Note_on_c, 12, 38, 101
13, 13725, Note_off_c, 12, 38, 0
13, 13728, Note_on_c, 12, 39, 101
13, 13749, Note_off_c, 12, 39, 0
13, 13752, Note_on_c, 12, 41, 101
13, 13773, Note_off_c, 12, 41, 0
13, 13776, Note_on_c, 12, 34, 101
13, 13797, Note_off_c, 12, 34, 0
13, 13800, Note_on_c, 12, 33, 101
13, 13821, Note_off_c, 12, 33, 0
13, 13824, Note_on_c, 12, 34, 101
13, 13845, Note_off_c, 12, 34, 0
13, 13848, Note_on_c, 12, 33, 101
13, 13869, Note_off_c, 12, 33, 0
13, 13872, Note_on_c, 12, 34, 101
13, 13893, Note_off_c, 12, 34, 0
13, 13896, Note_on_c, 12, 36, 101
13, 13917, Note_off_c, 12, 36, 0
13, 13920, Note_on_c, 12, 38, 101
13, 13941, Note_off_c, 12, 38, 0
13, 13944, Note_on_c, 12, 40, 101
13, 13965, Note_off_c, 12, 40, 0
13, 13968, Note_on_c, 12, 33, 101
13, 13989, Note_off_c, 12, 33, 0
13, 13992, Note_on_c, 12, 31, 101
13, 14013, Note_off_c, 12, 31, 0
13, 14016, Note_on_c, 12, 33, 101
13, 14037, Note_off_c, 12, 33, 0
13, 14040, Note_on_c, 12, 31, 101
13, 14061, Note_off_c, 12, 31, 0
13, 14064, Note_on_c, 12, 33, 101
13, 14085, Note_off_c, 12, 33, 0
13, 14088, Note_on_c, 12, 34, 101
13, 14109, Note_off_c, 12, 34, 0
13, 14112, Note_on_c, 12, 36, 101
13, 14154, Note_off_c, 12, 36, 0
13, 14160, Note_on_c, 12, 31, 101
13, 14202, Note_off_c, 12, 31, 0
13, 14208, Note_on_c, 12, 28, 101
13, 14250, Note_off_c, 12, 28, 0
13, 14256, Note_on_c, 12, 24, 101
13, 14298, Note_off_c, 12, 24, 0
13, 14304, Note_on_c, 12, 29, 101
13, 14325, Note_off_c, 12, 29, 0
13, 14328, Note_on_c, 12, 36, 101
13, 14349, Note_off_c, 12, 36, 0
13, 14352, Note_on_c, 12, 41, 101
13, 14373, Note_off_c, 12, 41, 0
13, 14376, Note_on_c, 12, 40, 101
13, 14397, Note_off_c, 12, 40, 0
13, 14400, Note_on_c, 12, 41, 101
13, 14421, Note_off_c, 12, 41, 0
13, 14424, Note_on_c, 12, 40, 101
13, 14445, Note_off_c, 12, 40, 0
13, 14448, Note_on_c, 12, 41, 101
13, 14469, Note_off_c, 12, 41, 0
13, 14472, Note_on_c, 12, 40, 101
13, 14493, Note_off_c, 12, 40, 0
13, 14496, Note_on_c, 12, 38, 101
13, 14538, Note_off_c, 12, 38, 0
13, 14544, Note_on_c, 12, 33, 101
13, 14586, Note_off_c, 12, 33, 0
13, 14592, Note_on_c, 12, 29, 101
13, 14634, Note_off_c, 12, 29, 0
13, 14640, Note_on_c, 12, 26, 101
13, 14682, Note_off_c, 12, 26, 0
13, 14688, Note_on_c, 12, 31, 101
13, 14709, Note_off_c, 12, 31, 0
13, 14712, Note_on_c, 12, 38, 101
13, 14733, Note_off_c, 12, 38, 0
13, 14736, Note_on_c, 12, 43, 101
13, 14757, Note_off_c, 12, 43, 0
13, 14760, Note_on_c, 12, 41, 101
13, 14781, Note_off_c, 12, 41, 0
13, 14784, Note_on_c, 12, 43, 101
13, 14805, Note_off_c, 12, 43, 0
13, 14808, Note_on_c, 12, 41, 101
13, 14829, Note_off_c, 12, 41, 0
13, 14832, Note_on_c, 12, 43, 101
13, 14853, Note_off_c, 12, 43, 0
13, 14856, Note_on_c, 12, 41, 101
13, 14877, Note_off_c, 12, 41, 0
13, 14880, Note_on_c, 12, 40, 101
13, 14922, Note_off_c, 12, 40, 0
13, 14928, Note_on_c, 12, 35, 101
13, 14970, Note_off_c, 12, 35, 0
13, 14976, Note_on_c, 12, 31, 101
13, 15018, Note_off_c, 12, 31, 0
13, 15024, Note_on_c, 12, 28, 101
13, 15066, Note_off_c, 12, 28, 0
13, 15072, Note_on_c, 12, 33, 101
13, 15093, Note_off_c, 12, 33, 0
13, 15096, Note_on_c, 12, 40, 101
13, 15117, Note_off_c, 12, 40, 0
13, 15120, Note_on_c, 12, 45, 101
13, 15141, Note_off_c, 12, 45, 0
13, 15144, Note_on_c, 12, 43, 101
13, 15165, Note_off_c, 12, 43, 0
13, 15168, Note_on_c, 12, 45, 101
13, 15189, Note_off_c, 12, 45, 0
13, 15192, Note_on_c, 12, 43, 101
13, 15213, Note_off_c, 12, 43, 0
13, 15216, Note_on_c, 12, 45, 101
13, 15237, Note_off_c, 12, 45, 0
13, 15240, Note_on_c, 12, 43, 101
13, 15261, Note_off_c, 12, 43, 0
13, 15264, Note_on_c, 12, 42, 101
13, 15306, Note_off_c, 12, 42, 0
13, 15312, Note_on_c, 12, 51, 101
13, 15354, Note_off_c, 12, 51, 0
13, 15360, Note_on_c, 12, 48, 101
13, 15402, Note_off_c, 12, 48, 0
13, 15408, Note_on_c, 12, 45, 101
13, 15450, Note_off_c, 12, 45, 0
13, 15456, Note_on_c, 12, 42, 101
13, 15498, Note_off_c, 12, 42, 0
13, 15504, Note_on_c, 12, 48, 101
13, 15546, Note_off_c, 12, 48, 0
13, 15552, Note_on_c, 12, 45, 101
13, 15594, Note_off_c, 12, 45, 0
13, 15600, Note_on_c, 12, 42, 101
13, 15642, Note_off_c, 12, 42, 0
13, 15648, Note_on_c, 12, 38, 101
13, 15690, Note_off_c, 12, 38, 0
13, 15696, Note_on_c, 12, 33, 101
13, 15738, Note_off_c, 12, 33, 0
13, 15744, Note_on_c, 12, 30, 101
13, 15786, Note_off_c, 12, 30, 0
13, 15792, Note_on_c, 12, 26, 101
13, 15834, Note_off_c, 12, 26, 0
13, 15840, Note_on_c, 12, 41, 101
13, 15924, Note_off_c, 12, 41, 0
13, 15984, Note_on_c, 12, 41, 101
13, 16026, Note_off_c, 12, 41, 0
13, 16032, Note_on_c, 12, 40, 101
13, 16074, Note_off_c, 12, 40, 0
13, 16080, Note_on_c, 12, 41, 101
13, 16122, Note_off_c, 12, 41, 0
13, 16128, Note_on_c, 12, 43, 101
13, 16170, Note_off_c, 12, 43, 0
13, 16176, Note_on_c, 12, 31, 101
13, 16218, Note_off_c, 12, 31, 0
13, 16224, Note_on_c, 12, 36, 101
13, 16308, Note_off_c, 12, 36, 0
13, 16368, Note_on_c, 12, 31, 101
13, 16410, Note_off_c, 12, 31, 0
13, 16416, Note_on_c, 12, 33, 101
13, 16458, Note_off_c, 12, 33, 0
13, 16464, Note_on_c, 12, 28, 101
13, 16506, Note_off_c, 12, 28, 0
13, 16512, Note_on_c, 12, 29, 101
13, 16554, Note_off_c, 12, 29, 0
13, 16560, Note_on_c, 12, 31, 101
13, 16602, Note_off_c, 12, 31, 0
13, 16608, Note_on_c, 12, 24, 101
13, 16650, Note_off_c, 12, 24, 0
13, 16656, Note_on_c, 12, 36, 101
13, 16677, Note_off_c, 12, 36, 0
13, 16680, Note_on_c, 12, 35, 101
13, 16701, Note_off_c, 12, 35, 0
13, 16704, Note_on_c, 12, 36, 101
13, 16725, Note_off_c, 12, 36, 0
13, 16728, Note_on_c, 12, 35, 101
13, 16749, Note_off_c, 12, 35, 0
13, 16752, Note_on_c, 12, 36, 101
13, 16773, Note_off_c, 12, 36, 0
13, 16776, Note_on_c, 12, 33, 101
13, 16797, Note_off_c, 12, 33, 0
13, 16800, Note_on_c, 12, 35, 101
13, 16842, Note_off_c, 12, 35, 0
13, 16848, Note_on_c, 12, 31, 101
13, 16890, Note_off_c, 12, 31, 0
13, 16896, Note_on_c, 12, 33, 101
13, 16938, Note_off_c, 12, 33, 0
13, 16944, Note_on_c, 12, 26, 101
13, 16986, Note_off_c, 12, 26, 0
13, 16992, Note_on_c, 12, 31, 101
13, 17034, Note_off_c, 12, 31, 0
13, 17040, Note_on_c, 12, 43, 101
13, 17082, Note_off_c, 12, 43, 0
13, 17232, Note_on_c, 12, 28, 101
13, 17274, Note_off_c, 12, 28, 0
13, 17280, Note_on_c, 12, 30, 101
13, 17322, Note_off_c, 12, 30, 0
13, 17328, Note_on_c, 12, 32, 101
13, 17370, Note_off_c, 12, 32, 0
13, 17376, Note_on_c, 12, 33, 101
13, 17418, Note_off_c, 12, 33, 0
13, 17424, Note_on_c, 12, 45, 101
13, 17466, Note_off_c, 12, 45, 0
13, 17616, Note_on_c, 12, 33, 101
13, 17658, Note_off_c, 12, 33, 0
13, 17664, Note_on_c, 12, 38, 101
13, 17706, Note_off_c, 12, 38, 0
13, 17712, Note_on_c, 12, 40, 101
13, 17754, Note_off_c, 12, 40, 0
13, 17760, Note_on_c, 12, 41, 101
13, 17802, Note_off_c, 12, 41, 0
13, 17808, Note_on_c, 12, 40, 101
13, 17829, Note_off_c, 12, 40, 0
13, 17832, Note_on_c, 12, 38, 101
13, 17853, Note_off_c, 12, 38, 0
13, 17856, Note_on_c, 12, 36, 101
13, 17877, Note_off_c, 12, 36, 0
13, 17880, Note_on_c, 12, 35, 101
13, 17901, Note_off_c, 12, 35, 0
13, 17904, Note_on_c, 12, 33, 101
13, 17925, Note_off_c, 12, 33, 0
13, 17928, Note_on_c, 12, 32, 101
13, 17949, Note_off_c, 12, 32, 0
13, 17952, Note_on_c, 12, 33, 101
13, 17994, Note_off_c, 12, 33, 0
13, 18000, Note_on_c, 12, 38, 101
13, 18042, Note_off_c, 12, 38, 0
13, 18048, Note_on_c, 12, 40, 101
13, 18090, Note_off_c, 12, 40, 0
13, 18096, Note_on_c, 12, 28, 101
13, 18138, Note_off_c, 12, 28, 0
13, 18144, Note_on_c, 12, 33, 101
13, 18186, Note_off_c, 12, 33, 0
13, 18192, Note_on_c, 12, 45, 101
13, 18234, Note_off_c, 12, 45, 0
13, 18240, Note_on_c, 12, 46, 101
13, 18282, Note_off_c, 12, 46, 0
13, 18288, Note_on_c, 12, 48, 101
13, 18330, Note_off_c, 12, 48, 0
13, 18336, Note_on_c, 12, 50, 101
13, 18378, Note_off_c, 12, 50, 0
13, 18384, Note_on_c, 12, 43, 101
13, 18426, Note_off_c, 12, 43, 0
13, 18432, Note_on_c, 12, 45, 101
13, 18474, Note_off_c, 12, 45, 0
13, 18480, Note_on_c, 12, 46, 101
13, 18522, Note_off_c, 12, 46, 0
13, 18528, Note_on_c, 12, 48, 101
13, 18570, Note_off_c, 12, 48, 0
13, 18576, Note_on_c, 12, 41, 101
13, 18618, Note_off_c, 12, 41, 0
13, 18624, Note_on_c, 12, 43, 101
13, 18666, Note_off_c, 12, 43, 0
13, 18672, Note_on_c, 12, 45, 101
13, 18714, Note_off_c, 12, 45, 0
13, 18720, Note_on_c, 12, 46, 101
13, 18762, Note_off_c, 12, 46, 0
13, 18768, Note_on_c, 12, 40, 101
13, 18810, Note_off_c, 12, 40, 0
13, 18816, Note_on_c, 12, 41, 101
13, 18858, Note_off_c, 12, 41, 0
13, 18864, Note_on_c, 12, 43, 101
13, 18906, Note_off_c, 12, 43, 0
13, 18912, Note_on_c, 12, 45, 101
13, 18954, Note_off_c, 12, 45, 0
13, 18960, Note_on_c, 12, 43, 101
13, 19002, Note_off_c, 12, 43, 0
13, 19008, Note_on_c, 12, 41, 101
13, 19050, Note_off_c, 12, 41, 0
13, 19056, Note_on_c, 12, 40, 101
13, 19098, Note_off_c, 12, 40, 0
13, 19104, Note_on_c, 12, 38, 101
13, 19146, Note_off_c, 12, 38, 0
13, 19152, Note_on_c, 12, 36, 101
13, 19194, Note_off_c, 12, 36, 0
13, 19200, Note_on_c, 12, 34, 101
13, 19242, Note_off_c, 12, 34, 0
13, 19248, Note_on_c, 12, 33, 101
13, 19290, Note_off_c, 12, 33, 0
13, 19296, Note_on_c, 12, 31, 101
13, 19338, Note_off_c, 12, 31, 0
13, 19344, Note_on_c, 12, 34, 101
13, 19386, Note_off_c, 12, 34, 0
13, 19392, Note_on_c, 12, 36, 101
13, 19434, Note_off_c, 12, 36, 0
13, 19440, Note_on_c, 12, 38, 101
13, 19482, Note_off_c, 12, 38, 0
13, 19488, Note_on_c, 12, 39, 101
13, 19530, Note_off_c, 12, 39, 0
13, 19536, Note_on_c, 12, 36, 101
13, 19578, Note_off_c, 12, 36, 0
13, 19584, Note_on_c, 12, 38, 101
13, 19626, Note_off_c, 12, 38, 0
13, 19632, Note_on_c, 12, 26, 101
13, 19674, Note_off_c, 12, 26, 0
13, 19680, Note_on_c, 12, 31, 101
13, 19764, Note_off_c, 12, 31, 0
13, 19824, Note_on_c, 12, 38, 101
13, 19866, Note_off_c, 12, 38, 0
13, 19872, Note_on_c, 12, 39, 101
13, 19914, Note_off_c, 12, 39, 0
13, 19920, Note_on_c, 12, 34, 101
13, 19962, Note_off_c, 12, 34, 0
13, 19968, Note_on_c, 12, 36, 101
13, 20010, Note_off_c, 12, 36, 0
13, 20016, Note_on_c, 12, 38, 101
13, 20058, Note_off_c, 12, 38, 0
13, 20064, Note_on_c, 12, 31, 101
13, 20106, Note_off_c, 12, 31, 0
13, 20112, Note_on_c, 12, 43, 101
13, 20154, Note_off_c, 12, 43, 0
13, 20160, Note_on_c, 12, 45, 101
13, 20202, Note_off_c, 12, 45, 0
13, 20208, Note_on_c, 12, 46, 101
13, 20250, Note_off_c, 12, 46, 0
13, 20256, Note_on_c, 12, 48, 101
13, 20298, Note_off_c, 12, 48, 0
13, 20304, Note_on_c, 12, 41, 101
13, 20346, Note_off_c, 12, 41, 0
13, 20352, Note_on_c, 12, 43, 101
13, 20394, Note_off_c, 12, 43, 0
13, 20400, Note_on_c, 12, 45, 101
13, 20442, Note_off_c, 12, 45, 0
13, 20448, Note_on_c, 12, 46, 101
13, 20490, Note_off_c, 12, 46, 0
13, 20496, Note_on_c, 12, 40, 101
13, 20538, Note_off_c, 12, 40, 0
13, 20544, Note_on_c, 12, 41, 101
13, 20586, Note_off_c, 12, 41, 0
13, 20592, Note_on_c, 12, 43, 101
13, 20634, Note_off_c, 12, 43, 0
13, 20640, Note_on_c, 12, 45, 101
13, 20682, Note_off_c, 12, 45, 0
13, 20688, Note_on_c, 12, 38, 101
13, 20730, Note_off_c, 12, 38, 0
13, 20736, Note_on_c, 12, 40, 101
13, 20778, Note_off_c, 12, 40, 0
13, 20784, Note_on_c, 12, 41, 101
13, 20826, Note_off_c, 12, 41, 0
13, 20832, Note_on_c, 12, 43, 101
13, 20874, Note_off_c, 12, 43, 0
13, 20880, Note_on_c, 12, 41, 101
13, 20922, Note_off_c, 12, 41, 0
13, 20928, Note_on_c, 12, 40, 101
13, 20970, Note_off_c, 12, 40, 0
13, 20976, Note_on_c, 12, 38, 101
13, 21018, Note_off_c, 12, 38, 0
13, 21024, Note_on_c, 12, 36, 101
13, 21066, Note_off_c, 12, 36, 0
13, 21072, Note_on_c, 12, 34, 101
13, 21114, Note_off_c, 12, 34, 0
13, 21120, Note_on_c, 12, 33, 101
13, 21162, Note_off_c, 12, 33, 0
13, 21168, Note_on_c, 12, 31, 101
13, 21210, Note_off_c, 12, 31, 0
13, 21216, Note_on_c, 12, 29, 101
13, 21258, Note_off_c, 12, 29, 0
13, 21264, Note_on_c, 12, 33, 101
13, 21306, Note_off_c, 12, 33, 0
13, 21312, Note_on_c, 12, 34, 101
13, 21354, Note_off_c, 12, 34, 0
13, 21360, Note_on_c, 12, 36, 101
13, 21402, Note_off_c, 12, 36, 0
13, 21408, Note_on_c, 12, 38, 101
13, 21450, Note_off_c, 12, 38, 0
13, 21456, Note_on_c, 12, 34, 101
13, 21498, Note_off_c, 12, 34, 0
13, 21504, Note_on_c, 12, 36, 101
13, 21546, Note_off_c, 12, 36, 0
13, 21552, Note_on_c, 12, 24, 101
13, 21594, Note_off_c, 12, 24, 0
13, 21600, Note_on_c, 12, 29, 101
13, 21684, Note_off_c, 12, 29, 0
13, 21744, Note_on_c, 12, 36, 101
13, 21786, Note_off_c, 12, 36, 0
13, 21792, Note_on_c, 12, 38, 101
13, 21834, Note_off_c, 12, 38, 0
13, 21840, Note_on_c, 12, 33, 101
13, 21882, Note_off_c, 12, 33, 0
13, 21888, Note_on_c, 12, 34, 101
13, 21930, Note_off_c, 12, 34, 0
13, 21936, Note_on_c, 12, 36, 101
13, 21978, Note_off_c, 12, 36, 0
13, 21984, Note_on_c, 12, 29, 101
13, 22068, Note_off_c, 12, 29, 0
13, 22416, Note_on_c, 12, 29, 101
13, 22458, Note_off_c, 12, 29, 0
13, 22464, Note_on_c, 12, 33, 101
13, 22506, Note_off_c, 12, 33, 0
13, 22512, Note_on_c, 12, 36, 101
13, 22554, Note_off_c, 12, 36, 0
13, 22560, Note_on_c, 12, 41, 101
13, 22602, Note_off_c, 12, 41, 0
13, 22608, Note_on_c, 12, 38, 101
13, 22650, Note_off_c, 12, 38, 0
13, 22656, Note_on_c, 12, 33, 101
13, 22698, Note_off_c, 12, 33, 0
13, 22704, Note_on_c, 12, 34, 101
13, 22746, Note_off_c, 12, 34, 0
13, 22752, Note_on_c, 12, 36, 101
13, 22836, Note_off_c, 12, 36, 0
13, 22896, Note_on_c, 12, 31, 101
13, 22938, Note_off_c, 12, 31, 0
13, 22944, Note_on_c, 12, 33, 101
13, 22986, Note_off_c, 12, 33, 0
13, 22992, Note_on_c, 12, 28, 101
13, 23034, Note_off_c, 12, 28, 0
13, 23040, Note_on_c, 12, 29, 101
13, 23082, Note_off_c, 12, 29, 0
13, 23088, Note_on_c, 12, 31, 101
13, 23130, Note_off_c, 12, 31, 0
13, 23136, Note_on_c, 12, 24, 101
13, 23178, Note_off_c, 12, 24, 0
13, 23184, Note_on_c, 12, 31, 101
13, 23226, Note_off_c, 12, 31, 0
13, 23232, Note_on_c, 12, 36, 101
13, 23274, Note_off_c, 12, 36, 0
13, 23280, Note_on_c, 12, 24, 101
13, 23322, Note_off_c, 12, 24, 0
13, 23328, Note_on_c, 12, 29, 101
13, 23370, Note_off_c, 12, 29, 0
13, 23376, Note_on_c, 12, 33, 101
13, 23418, Note_off_c, 12, 33, 0
13, 23424, Note_on_c, 12, 38, 101
13, 23466, Note_off_c, 12, 38, 0
13, 23472, Note_on_c, 12, 26, 101
13, 23514, Note_off_c, 12, 26, 0
13, 23520, Note_on_c, 12, 31, 101
13, 23562, Note_off_c, 12, 31, 0
13, 23568, Note_on_c, 12, 35, 101
13, 23610, Note_off_c, 12, 35, 0
13, 23616, Note_on_c, 12, 40, 101
13, 23658, Note_off_c, 12, 40, 0
13, 23664, Note_on_c, 12, 28, 101
13, 23706, Note_off_c, 12, 28, 0
13, 23712, Note_on_c, 12, 33, 101
13, 23754, Note_off_c, 12, 33, 0
13, 23760, Note_on_c, 12, 41, 101
13, 23802, Note_off_c, 12, 41, 0
13, 23808, Note_on_c, 12, 43, 101
13, 23850, Note_off_c, 12, 43, 0
13, 23856, Note_on_c, 12, 31, 101
13, 23898, Note_off_c, 12, 31, 0
13, 23904, Note_on_c, 12, 36, 101
13, 23988, Note_off_c, 12, 36, 0
13, 24288, Note_on_c, 12, 29, 101
13, 24372, Note_off_c, 12, 29, 0
13, 24672, Note_on_c, 12, 34, 101
13, 24714, Note_off_c, 12, 34, 0
13, 24720, Note_on_c, 12, 41, 101
13, 24741, Note_off_c, 12, 41, 0
13, 24744, Note_on_c, 12, 39, 101
13, 24765, Note_off_c, 12, 39, 0
13, 24768, Note_on_c, 12, 41, 101
13, 24789, Note_off_c, 12, 41, 0
13, 24792, Note_on_c, 12, 39, 101
13, 24813, Note_off_c, 12, 39, 0
13, 24816, Note_on_c, 12, 41, 101
13, 24837, Note_off_c, 12, 41, 0
13, 24840, Note_on_c, 12, 43, 101
13, 24861, Note_off_c, 12, 43, 0
13, 24864, Note_on_c, 12, 44, 101
13, 24885, Note_off_c, 12, 44, 0
13, 24888, Note_on_c, 12, 46, 101
13, 24909, Note_off_c, 12, 46, 0
13, 24912, Note_on_c, 12, 39, 101
13, 24933, Note_off_c, 12, 39, 0
13, 24936, Note_on_c, 12, 38, 101
13, 24957, Note_off_c, 12, 38, 0
13, 24960, Note_on_c, 12, 39, 101
13, 24981, Note_off_c, 12, 39, 0
13, 24984, Note_on_c, 12, 38, 101
13, 25005, Note_off_c, 12, 38, 0
13, 25008, Note_on_c, 12, 39, 101
13, 25029, Note_off_c, 12, 39, 0
13, 25032, Note_on_c, 12, 41, 101
13, 25053, Note_off_c, 12, 41, 0
13, 25056, Note_on_c, 12, 43, 101
13, 25077, Note_off_c, 12, 43, 0
13, 25080, Note_on_c, 12, 45, 101
13, 25101, Note_off_c, 12, 45, 0
13, 25104, Note_on_c, 12, 38, 101
13, 25125, Note_off_c, 12, 38, 0
13, 25128, Note_on_c, 12, 36, 101
13, 25149, Note_off_c, 12, 36, 0
13, 25152, Note_on_c, 12, 38, 101
13, 25173, Note_off_c, 12, 38, 0
13, 25176, Note_on_c, 12, 36, 101
13, 25197, Note_off_c, 12, 36, 0
13, 25200, Note_on_c, 12, 38, 101
13, 25221, Note_off_c, 12, 38, 0
13, 25224, Note_on_c, 12, 39, 101
13, 25245, Note_off_c, 12, 39, 0
13, 25248, Note_on_c, 12, 41, 101
13, 25290, Note_off_c, 12, 41, 0
13, 25296, Note_on_c, 12, 36, 101
13, 25338, Note_off_c, 12, 36, 0
13, 25344, Note_on_c, 12, 33, 101
13, 25386, Note_off_c, 12, 33, 0
13, 25392, Note_on_c, 12, 29, 101
13, 25434, Note_off_c, 12, 29, 0
13, 25440, Note_on_c, 12, 34, 101
13, 25461, Note_off_c, 12, 34, 0
13, 25464, Note_on_c, 12, 41, 101
13, 25485, Note_off_c, 12, 41, 0
13, 25488, Note_on_c, 12, 46, 101
13, 25509, Note_off_c, 12, 46, 0
13, 25512, Note_on_c, 12, 45, 101
13, 25533, Note_off_c, 12, 45, 0
13, 25536, Note_on_c, 12, 46, 101
13, 25557, Note_off_c, 12, 46, 0
13, 25560, Note_on_c, 12, 45, 101
13, 25581, Note_off_c, 12, 45, 0
13, 25584, Note_on_c, 12, 46, 101
13, 25605, Note_off_c, 12, 46, 0
13, 25608, Note_on_c, 12, 45, 101
13, 25629, Note_off_c, 12, 45, 0
13, 25632, Note_on_c, 12, 43, 101
13, 25674, Note_off_c, 12, 43, 0
13, 25680, Note_on_c, 12, 38, 101
13, 25722, Note_off_c, 12, 38, 0
13, 25728, Note_on_c, 12, 34, 101
13, 25770, Note_off_c, 12, 34, 0
13, 25776, Note_on_c, 12, 31, 101
13, 25818, Note_off_c, 12, 31, 0
13, 25824, Note_on_c, 12, 33, 101
13, 25845, Note_off_c, 12, 33, 0
13, 25848, Note_on_c, 12, 43, 101
13, 25869, Note_off_c, 12, 43, 0
13, 25872, Note_on_c, 12, 48, 101
13, 25893, Note_off_c, 12, 48, 0
13, 25896, Note_on_c, 12, 46, 101
13, 25917, Note_off_c, 12, 46, 0
13, 25920, Note_on_c, 12, 48, 101
13, 25941, Note_off_c, 12, 48, 0
13, 25944, Note_on_c, 12, 46, 101
13, 25965, Note_off_c, 12, 46, 0
13, 25968, Note_on_c, 12, 48, 101
13, 25989, Note_off_c, 12, 48, 0
13, 25992, Note_on_c, 12, 46, 101
13, 26013, Note_off_c, 12, 46, 0
13, 26016, Note_on_c, 12, 45, 101
13, 26058, Note_off_c, 12, 45, 0
13, 26064, Note_on_c, 12, 40, 101
13, 26106, Note_off_c, 12, 40, 0
13, 26112, Note_on_c, 12, 36, 101
13, 26154, Note_off_c, 12, 36, 0
13, 26160, Note_on_c, 12, 33, 101
13, 26202, Note_off_c, 12, 33, 0
13, 26208, Note_on_c, 12, 34, 101
13, 26229, Note_off_c, 12, 34, 0
13, 26232, Note_on_c, 12, 45, 101
13, 26253, Note_off_c, 12, 45, 0
13, 26256, Note_on_c, 12, 50, 101
13, 26277, Note_off_c, 12, 50, 0
13, 26280, Note_on_c, 12, 48, 101
13, 26301, Note_off_c, 12, 48, 0
13, 26304, Note_on_c, 12, 50, 101
13, 26325, Note_off_c, 12, 50, 0
13, 26328, Note_on_c, 12, 48, 101
13, 26349, Note_off_c, 12, 48, 0
13, 26352, Note_on_c, 12, 50, 101
13, 26373, Note_off_c, 12, 50, 0
13, 26376, Note_on_c, 12, 48, 101
13, 26397, Note_off_c, 12, 48, 0
13, 26400, Note_on_c, 12, 47, 101
13, 26442, Note_off_c, 12, 47, 0
13, 26448, Note_on_c, 12, 44, 101
13, 26490, Note_off_c, 12, 44, 0
13, 26496, Note_on_c, 12, 41, 101
13, 26538, Note_off_c, 12, 41, 0
13, 26544, Note_on_c, 12, 38, 101
13, 26586, Note_off_c, 12, 38, 0
13, 26592, Note_on_c, 12, 35, 101
13, 26634, Note_off_c, 12, 35, 0
13, 26640, Note_on_c, 12, 41, 101
13, 26682, Note_off_c, 12, 41, 0
13, 26688, Note_on_c, 12, 38, 101
13, 26730, Note_off_c, 12, 38, 0
13, 26736, Note_on_c, 12, 35, 101
13, 26778, Note_off_c, 12, 35, 0
13, 26784, Note_on_c, 12, 31, 101
13, 26826, Note_off_c, 12, 31, 0
13, 26832, Note_on_c, 12, 38, 101
13, 26874, Note_off_c, 12, 38, 0
13, 26880, Note_on_c, 12, 35, 101
13, 26922, Note_off_c, 12, 35, 0
13, 26928, Note_on_c, 12, 31, 101
13, 26970, Note_off_c, 12, 31, 0
13, 26976, Note_on_c, 12, 46, 101
13, 27060, Note_off_c, 12, 46, 0
13, 27120, Note_on_c, 12, 34, 101
13, 27162, Note_off_c, 12, 34, 0
13, 27168, Note_on_c, 12, 33, 101
13, 27210, Note_off_c, 12, 33, 0
13, 27216, Note_on_c, 12, 34, 101
13, 27258, Note_off_c, 12, 34, 0
13, 27264, Note_on_c, 12, 36, 101
13, 27306, Note_off_c, 12, 36, 0
13, 27312, Note_on_c, 12, 24, 101
13, 27354, Note_off_c, 12, 24, 0
13, 27360, Note_on_c, 12, 29, 101
13, 27444, Note_off_c, 12, 29, 0
13, 27504, Note_on_c, 12, 36, 101
13, 27546, Note_off_c, 12, 36, 0
13, 27552, Note_on_c, 12, 38, 101
13, 27594, Note_off_c, 12, 38, 0
13, 27600, Note_on_c, 12, 33, 101
13, 27642, Note_off_c, 12, 33, 0
13, 27648, Note_on_c, 12, 34, 101
13, 27690, Note_off_c, 12, 34, 0
13, 27696, Note_on_c, 12, 36, 101
13, 27738, Note_off_c, 12, 36, 0
13, 27744, Note_on_c, 12, 29, 101
13, 27786, Note_off_c, 12, 29, 0
13, 27792, Note_on_c, 12, 41, 101
13, 27813, Note_off_c, 12, 41, 0
13, 27816, Note_on_c, 12, 40, 101
13, 27837, Note_off_c, 12, 40, 0
13, 27840, Note_on_c, 12, 41, 101
13, 27861, Note_off_c, 12, 41, 0
13, 27864, Note_on_c, 12, 40, 101
13, 27885, Note_off_c, 12, 40, 0
13, 27888, Note_on_c, 12, 41, 101
13, 27909, Note_off_c, 12, 41, 0
13, 27912, Note_on_c, 12, 38, 101
13, 27933, Note_off_c, 12, 38, 0
13, 27936, Note_on_c, 12, 40, 101
13, 27978, Note_off_c, 12, 40, 0
13, 27984, Note_on_c, 12, 36, 101
13, 28026, Note_off_c, 12, 36, 0
13, 28032, Note_on_c, 12, 38, 101
13, 28074, Note_off_c, 12, 38, 0
13, 28080, Note_on_c, 12, 31, 101
13, 28122, Note_off_c, 12, 31, 0
13, 28128, Note_on_c, 12, 36, 101
13, 28170, Note_off_c, 12, 36, 0
13, 28176, Note_on_c, 12, 40, 101
13, 28218, Note_off_c, 12, 40, 0
13, 28224, Note_on_c, 12, 36, 101
13, 28266, Note_off_c, 12, 36, 0
13, 28272, Note_on_c, 12, 35, 101
13, 28314, Note_off_c, 12, 35, 0
13, 28320, Note_on_c, 12, 33, 101
13, 28362, Note_off_c, 12, 33, 0
13, 28368, Note_on_c, 12, 38, 101
13, 28410, Note_off_c, 12, 38, 0
13, 28416, Note_on_c, 12, 35, 101
13, 28458, Note_off_c, 12, 35, 0
13, 28464, Note_on_c, 12, 33, 101
13, 28506, Note_off_c, 12, 33, 0
13, 28512, Note_on_c, 12, 31, 101
13, 28554, Note_off_c, 12, 31, 0
13, 28560, Note_on_c, 12, 36, 101
13, 28602, Note_off_c, 12, 36, 0
13, 28608, Note_on_c, 12, 33, 101
13, 28650, Note_off_c, 12, 33, 0
13, 28656, Note_on_c, 12, 31, 101
13, 28698, Note_off_c, 12, 31, 0
13, 28704, Note_on_c, 12, 29, 101
13, 28788, Note_off_c, 12, 29, 0
13, 28848, Note_on_c, 12, 41, 101
13, 28917, Note_off_c, 12, 41, 0
13, 28920, Note_on_c, 12, 43, 101
13, 28941, Note_off_c, 12, 43, 0
13, 28944, Note_on_c, 12, 41, 101
13, 28965, Note_off_c, 12, 41, 0
13, 28968, Note_on_c, 12, 40, 101
13, 28989, Note_off_c, 12, 40, 0
13, 28992, Note_on_c, 12, 38, 101
13, 29013, Note_off_c, 12, 38, 0
13, 29016, Note_on_c, 12, 36, 101
13, 29037, Note_off_c, 12, 36, 0
13, 29040, Note_on_c, 12, 35, 101
13, 29061, Note_off_c, 12, 35, 0
13, 29064, Note_on_c, 12, 33, 101
13, 29085, Note_off_c, 12, 33, 0
13, 29088, Note_on_c, 12, 31, 101
13, 29130, Note_off_c, 12, 31, 0
13, 29136, Note_on_c, 12, 36, 101
13, 29178, Note_off_c, 12, 36, 0
13, 29184, Note_on_c, 12, 43, 101
13, 29226, Note_off_c, 12, 43, 0
13, 29232, Note_on_c, 12, 31, 101
13, 29274, Note_off_c, 12, 31, 0
13, 29280, Note_on_c, 12, 36, 101
13, 29322, Note_off_c, 12, 36, 0
13, 29520, Note_on_c, 12, 38, 101
13, 29562, Note_off_c, 12, 38, 0
13, 29568, Note_on_c, 12, 40, 101
13, 29610, Note_off_c, 12, 40, 0
13, 29616, Note_on_c, 12, 42, 101
13, 29658, Note_off_c, 12, 42, 0
13, 29664, Note_on_c, 12, 43, 101
13, 29706, Note_off_c, 12, 43, 0
13, 29904, Note_on_c, 12, 33, 101
13, 29946, Note_off_c, 12, 33, 0
13, 29952, Note_on_c, 12, 34, 101
13, 29994, Note_off_c, 12, 34, 0
13, 30000, Note_on_c, 12, 36, 101
13, 30042, Note_off_c, 12, 36, 0
13, 30048, Note_on_c, 12, 38, 101
13, 30090, Note_off_c, 12, 38, 0
13, 30096, Note_on_c, 12, 31, 101
13, 30138, Note_off_c, 12, 31, 0
13, 30144, Note_on_c, 12, 33, 101
13, 30186, Note_off_c, 12, 33, 0
13, 30192, Note_on_c, 12, 34, 101
13, 30234, Note_off_c, 12, 34, 0
13, 30240, Note_on_c, 12, 36, 101
13, 30282, Note_off_c, 12, 36, 0
13, 30288, Note_on_c, 12, 24, 101
13, 30330, Note_off_c, 12, 24, 0
13, 30480, Note_on_c, 12, 36, 101
13, 30522, Note_off_c, 12, 36, 0
13, 30528, Note_on_c, 12, 38, 101
13, 30570, Note_off_c, 12, 38, 0
13, 30576, Note_on_c, 12, 40, 101
13, 30618, Note_off_c, 12, 40, 0
13, 30624, Note_on_c, 12, 41, 101
13, 30666, Note_off_c, 12, 41, 0
13, 30672, Note_on_c, 12, 29, 101
13, 30714, Note_off_c, 12, 29, 0
13, 30864, Note_on_c, 12, 41, 101
13, 30906, Note_off_c, 12, 41, 0
13, 30912, Note_on_c, 12, 43, 101
13, 30954, Note_off_c, 12, 43, 0
13, 30960, Note_on_c, 12, 45, 101
13, 31002, Note_off_c, 12, 45, 0
13, 31008, Note_on_c, 12, 46, 101
13, 31029, Note_off_c, 12, 46, 0
13, 31032, Note_on_c, 12, 34, 101
13, 31053, Note_off_c, 12, 34, 0
13, 31056, Note_on_c, 12, 46, 101
13, 31077, Note_off_c, 12, 46, 0
13, 31080, Note_on_c, 12, 45, 101
13, 31101, Note_off_c, 12, 45, 0
13, 31104, Note_on_c, 12, 46, 101
13, 31125, Note_off_c, 12, 46, 0
13, 31128, Note_on_c, 12, 45, 101
13, 31149, Note_off_c, 12, 45, 0
13, 31152, Note_on_c, 12, 46, 101
13, 31173, Note_off_c, 12, 46, 0
13, 31176, Note_on_c, 12, 45, 101
13, 31197, Note_off_c, 12, 45, 0
13, 31200, Note_on_c, 12, 46, 101
13, 31221, Note_off_c, 12, 46, 0
13, 31224, Note_on_c, 12, 48, 101
13, 31245, Note_off_c, 12, 48, 0
13, 31248, Note_on_c, 12, 46, 101
13, 31269, Note_off_c, 12, 46, 0
13, 31272, Note_on_c, 12, 45, 101
13, 31293, Note_off_c, 12, 45, 0
13, 31296, Note_on_c, 12, 43, 101
13, 31317, Note_off_c, 12, 43, 0
13, 31320, Note_on_c, 12, 41, 101
13, 31341, Note_off_c, 12, 41, 0
13, 31344, Note_on_c, 12, 40, 101
13, 31365, Note_off_c, 12, 40, 0
13, 31368, Note_on_c, 12, 38, 101
13, 31389, Note_off_c, 12, 38, 0
13, 31392, Note_on_c, 12, 36, 101
13, 31434, Note_off_c, 12, 36, 0
13, 31440, Note_on_c, 12, 41, 101
13, 31482, Note_off_c, 12, 41, 0
13, 31488, Note_on_c, 12, 48, 101
13, 31530, Note_off_c, 12, 48, 0
13, 31536, Note_on_c, 12, 36, 101
13, 31578, Note_off_c, 12, 36, 0
13, 31584, Note_on_c, 12, 38, 101
13, 31605, Note_off_c, 12, 38, 0
13, 31608, Note_on_c, 12, 36, 101
13, 31629, Note_off_c, 12, 36, 0
13, 31632, Note_on_c, 12, 38, 101
13, 31653, Note_off_c, 12, 38, 0
13, 31656, Note_on_c, 12, 36, 101
13, 31677, Note_off_c, 12, 36, 0
13, 31680, Note_on_c, 12, 34, 101
13, 31701, Note_off_c, 12, 34, 0
13, 31704, Note_on_c, 12, 33, 101
13, 31725, Note_off_c, 12, 33, 0
13, 31728, Note_on_c, 12, 34, 101
13, 31749, Note_off_c, 12, 34, 0
13, 31752, Note_on_c, 12, 33, 101
13, 31773, Note_off_c, 12, 33, 0
13, 31776, Note_on_c, 12, 31, 101
13, 31818, Note_off_c, 12, 31, 0
13, 31824, Note_on_c, 12, 29, 101
13, 31866, Note_off_c, 12, 29, 0
13, 31872, Note_on_c, 12, 36, 101
13, 31914, Note_off_c, 12, 36, 0
13, 31920, Note_on_c, 12, 24, 101
13, 31962, Note_off_c, 12, 24, 0
13, 31968, Note_on_c, 12, 29, 101
13, 32010, Note_off_c, 12, 29, 0
13, 32016, Note_on_c, 12, 29, 101
13, 32037, Note_off_c, 12, 29, 0
13, 32040, Note_on_c, 12, 29, 101
13, 32061, Note_off_c, 12, 29, 0
13, 32064, Note_on_c, 12, 29, 101
13, 32085, Note_off_c, 12, 29, 0
13, 32088, Note_on_c, 12, 29, 101
13, 32109, Note_off_c, 12, 29, 0
13, 32112, Note_on_c, 12, 29, 101
13, 32133, Note_off_c, 12, 29, 0
13, 32136, Note_on_c, 12, 29, 101
13, 32157, Note_off_c, 12, 29, 0
13, 32160, Note_on_c, 12, 29, 101
13, 32340, Note_off_c, 12, 29, 0
13, 32340, End_track
14, 0, Start_track
14, 0, Title_t, "Continuo"
14, 0, Control_c, 13, 0, 0
14, 0, Program_c, 13, 6
14, 0, Time_signature, 4, 2, 96, 8
14, 0, Tempo, 681818
14, 96, Note_on_c, 13, 41, 49
14, 96, Note_on_c, 13, 53, 49
14, 180, Note_off_c, 13, 41, 0
14, 180, Note_off_c, 13, 53, 0
14, 240, Note_on_c, 13, 64, 49
14, 240, Note_on_c, 13, 67, 49
14, 240, Note_on_c, 13, 48, 49
14, 282, Note_off_c, 13, 64, 0
14, 282, Note_off_c, 13, 67, 0
14, 282, Note_off_c, 13, 48, 0
14, 288, Note_on_c, 13, 65, 49
14, 288, Note_on_c, 13, 69, 49
14, 288, Note_on_c, 13, 50, 49
14, 330, Note_off_c, 13, 65, 0
14, 330, Note_off_c, 13, 69, 0
14, 330, Note_off_c, 13, 50, 0
14, 336, Note_on_c, 13, 60, 49
14, 336, Note_on_c, 13, 65, 49
14, 336, Note_on_c, 13, 45, 49
14, 378, Note_off_c, 13, 60, 0
14, 378, Note_off_c, 13, 65, 0
14, 378, Note_off_c, 13, 45, 0
14, 384, Note_on_c, 13, 62, 49
14, 384, Note_on_c, 13, 67, 49
14, 384, Note_on_c, 13, 46, 49
14, 426, Note_off_c, 13, 62, 0
14, 426, Note_off_c, 13, 67, 0
14, 426, Note_off_c, 13, 46, 0
14, 432, Note_on_c, 13, 64, 49
14, 432, Note_on_c, 13, 67, 49
14, 432, Note_on_c, 13, 48, 49
14, 474, Note_off_c, 13, 64, 0
14, 474, Note_off_c, 13, 67, 0
14, 474, Note_off_c, 13, 48, 0
14, 480, Note_on_c, 13, 60, 49
14, 480, Note_on_c, 13, 69, 49
14, 480, Note_on_c, 13, 41, 49
14, 522, Note_off_c, 13, 60, 0
14, 522, Note_off_c, 13, 69, 0
14, 522, Note_off_c, 13, 41, 0
14, 528, Note_on_c, 13, 60, 49
14, 528, Note_on_c, 13, 69, 49
14, 528, Note_on_c, 13, 53, 49
14, 549, Note_off_c, 13, 53, 0
14, 552, Note_on_c, 13, 52, 49
14, 570, Note_off_c, 13, 60, 0
14, 570, Note_off_c, 13, 69, 0
14, 573, Note_off_c, 13, 52, 0
14, 576, Note_on_c, 13, 60, 49
14, 576, Note_on_c, 13, 69, 49
14, 576, Note_on_c, 13, 53, 49
14, 597, Note_off_c, 13, 53, 0
14, 600, Note_on_c, 13, 52, 49
14, 618, Note_off_c, 13, 60, 0
14, 618, Note_off_c, 13, 69, 0
14, 621, Note_off_c, 13, 52, 0
14, 624, Note_on_c, 13, 69, 49
14, 624, Note_on_c, 13, 53, 49
14, 645, Note_off_c, 13, 53, 0
14, 648, Note_on_c, 13, 50, 49
14, 666, Note_off_c, 13, 69, 0
14, 669, Note_off_c, 13, 50, 0
14, 672, Note_on_c, 13, 60, 49
14, 672, Note_on_c, 13, 64, 49
14, 672, Note_on_c, 13, 52, 49
14, 714, Note_off_c, 13, 60, 0
14, 714, Note_off_c, 13, 64, 0
14, 714, Note_off_c, 13, 52, 0
14, 720, Note_on_c, 13, 64, 49
14, 720, Note_on_c, 13, 67, 49
14, 720, Note_on_c, 13, 48, 49
14, 762, Note_off_c, 13, 64, 0
14, 762, Note_off_c, 13, 67, 0
14, 762, Note_off_c, 13, 48, 0
14, 768, Note_on_c, 13, 65, 49
14, 768, Note_on_c, 13, 50, 49
14, 810, Note_off_c, 13, 65, 0
14, 810, Note_off_c, 13, 50, 0
14, 816, Note_on_c, 13, 58, 49
14, 816, Note_on_c, 13, 43, 49
14, 858, Note_off_c, 13, 58, 0
14, 858, Note_off_c, 13, 43, 0
14, 864, Note_on_c, 13, 64, 49
14, 864, Note_on_c, 13, 67, 49
14, 864, Note_on_c, 13, 48, 49
14, 906, Note_off_c, 13, 64, 0
14, 906, Note_off_c, 13, 67, 0
14, 906, Note_off_c, 13, 48, 0
14, 912, Note_on_c, 13, 60, 49
14, 912, Note_on_c, 13, 67, 49
14, 912, Note_on_c, 13, 52, 49
14, 954, Note_off_c, 13, 60, 0
14, 954, Note_off_c, 13, 67, 0
14, 954, Note_off_c, 13, 52, 0
14, 960, Note_on_c, 13, 60, 49
14, 960, Note_on_c, 13, 65, 49
14, 960, Note_on_c, 13, 48, 49
14, 1002, Note_off_c, 13, 60, 0
14, 1002, Note_off_c, 13, 65, 0
14, 1002, Note_off_c, 13, 48, 0
14, 1008, Note_on_c, 13, 64, 49
14, 1008, Note_on_c, 13, 47, 49
14, 1050, Note_off_c, 13, 64, 0
14, 1050, Note_off_c, 13, 47, 0
14, 1056, Note_on_c, 13, 60, 49
14, 1056, Note_on_c, 13, 64, 49
14, 1056, Note_on_c, 13, 45, 49
14, 1098, Note_off_c, 13, 60, 0
14, 1098, Note_off_c, 13, 64, 0
14, 1098, Note_off_c, 13, 45, 0
14, 1104, Note_on_c, 13, 57, 49
14, 1104, Note_on_c, 13, 65, 49
14, 1104, Note_on_c, 13, 50, 49
14, 1146, Note_off_c, 13, 57, 0
14, 1146, Note_off_c, 13, 65, 0
14, 1146, Note_off_c, 13, 50, 0
14, 1152, Note_on_c, 13, 62, 49
14, 1152, Note_on_c, 13, 65, 49
14, 1152, Note_on_c, 13, 47, 49
14, 1194, Note_off_c, 13, 62, 0
14, 1194, Note_off_c, 13, 65, 0
14, 1194, Note_off_c, 13, 47, 0
14, 1200, Note_on_c, 13, 62, 49
14, 1200, Note_on_c, 13, 69, 49
14, 1200, Note_on_c, 13, 45, 49
14, 1242, Note_off_c, 13, 62, 0
14, 1242, Note_off_c, 13, 69, 0
14, 1242, Note_off_c, 13, 45, 0
14, 1248, Note_on_c, 13, 62, 49
14, 1248, Note_on_c, 13, 71, 49
14, 1248, Note_on_c, 13, 43, 49
14, 1290, Note_off_c, 13, 62, 0
14, 1290, Note_off_c, 13, 71, 0
14, 1290, Note_off_c, 13, 43, 0
14, 1296, Note_on_c, 13, 64, 49
14, 1296, Note_on_c, 13, 67, 49
14, 1296, Note_on_c, 13, 48, 49
14, 1338, Note_off_c, 13, 64, 0
14, 1338, Note_off_c, 13, 67, 0
14, 1338, Note_off_c, 13, 48, 0
14, 1344, Note_on_c, 13, 64, 49
14, 1344, Note_on_c, 13, 72, 49
14, 1344, Note_on_c, 13, 45, 49
14, 1386, Note_off_c, 13, 64, 0
14, 1386, Note_off_c, 13, 72, 0
14, 1386, Note_off_c, 13, 45, 0
14, 1392, Note_on_c, 13, 64, 49
14, 1392, Note_on_c, 13, 72, 49
14, 1392, Note_on_c, 13, 43, 49
14, 1434, Note_off_c, 13, 64, 0
14, 1434, Note_off_c, 13, 72, 0
14, 1434, Note_off_c, 13, 43, 0
14, 1440, Note_on_c, 13, 60, 49
14, 1440, Note_on_c, 13, 69, 49
14, 1440, Note_on_c, 13, 41, 49
14, 1524, Note_off_c, 13, 60, 0
14, 1524, Note_off_c, 13, 69, 0
14, 1524, Note_off_c, 13, 41, 0
14, 1584, Note_on_c, 13, 62, 49
14, 1584, Note_on_c, 13, 69, 49
14, 1584, Note_on_c, 13, 53, 49
14, 1653, Note_off_c, 13, 53, 0
14, 1656, Note_on_c, 13, 55, 49
14, 1674, Note_off_c, 13, 62, 0
14, 1674, Note_off_c, 13, 69, 0
14, 1677, Note_off_c, 13, 55, 0
14, 1680, Note_on_c, 13, 62, 49
14, 1680, Note_on_c, 13, 69, 49
14, 1680, Note_on_c, 13, 53, 49
14, 1701, Note_off_c, 13, 53, 0
14, 1704, Note_on_c, 13, 52, 49
14, 1722, Note_off_c, 13, 62, 0
14, 1722, Note_off_c, 13, 69, 0
14, 1725, Note_off_c, 13, 52, 0
14, 1728, Note_on_c, 13, 67, 49
14, 1728, Note_on_c, 13, 70, 49
14, 1728, Note_on_c, 13, 50, 49
14, 1749, Note_off_c, 13, 50, 0
14, 1752, Note_on_c, 13, 48, 49
14, 1770, Note_off_c, 13, 67, 0
14, 1770, Note_off_c, 13, 70, 0
14, 1773, Note_off_c, 13, 48, 0
14, 1776, Note_on_c, 13, 62, 49
14, 1776, Note_on_c, 13, 67, 49
14, 1776, Note_on_c, 13, 47, 49
14, 1797, Note_off_c, 13, 47, 0
14, 1800, Note_on_c, 13, 45, 49
14, 1818, Note_off_c, 13, 62, 0
14, 1818, Note_off_c, 13, 67, 0
14, 1821, Note_off_c, 13, 45, 0
14, 1824, Note_on_c, 13, 62, 49
14, 1824, Note_on_c, 13, 71, 49
14, 1824, Note_on_c, 13, 43, 49
14, 1866, Note_off_c, 13, 62, 0
14, 1866, Note_off_c, 13, 71, 0
14, 1866, Note_off_c, 13, 43, 0
14, 1872, Note_on_c, 13, 64, 49
14, 1872, Note_on_c, 13, 67, 49
14, 1872, Note_on_c, 13, 48, 49
14, 1914, Note_off_c, 13, 64, 0
14, 1914, Note_off_c, 13, 67, 0
14, 1914, Note_off_c, 13, 48, 0
14, 1920, Note_on_c, 13, 62, 49
14, 1920, Note_on_c, 13, 70, 49
14, 1920, Note_on_c, 13, 55, 49
14, 1962, Note_off_c, 13, 62, 0
14, 1962, Note_off_c, 13, 70, 0
14, 1962, Note_off_c, 13, 55, 0
14, 1968, Note_on_c, 13, 62, 49
14, 1968, Note_on_c, 13, 70, 49
14, 1968, Note_on_c, 13, 43, 49
14, 2010, Note_off_c, 13, 62, 0
14, 2010, Note_off_c, 13, 70, 0
14, 2010, Note_off_c, 13, 43, 0
14, 2016, Note_on_c, 13, 64, 49
14, 2016, Note_on_c, 13, 67, 49
14, 2016, Note_on_c, 13, 48, 49
14, 2058, Note_off_c, 13, 64, 0
14, 2058, Note_off_c, 13, 67, 0
14, 2058, Note_off_c, 13, 48, 0
14, 2256, Note_on_c, 13, 66, 49
14, 2256, Note_on_c, 13, 50, 49
14, 2298, Note_off_c, 13, 66, 0
14, 2298, Note_off_c, 13, 50, 0
14, 2304, Note_on_c, 13, 67, 49
14, 2304, Note_on_c, 13, 70, 49
14, 2304, Note_on_c, 13, 52, 49
14, 2346, Note_off_c, 13, 67, 0
14, 2346, Note_off_c, 13, 70, 0
14, 2346, Note_off_c, 13, 52, 0
14, 2352, Note_on_c, 13, 62, 49
14, 2352, Note_on_c, 13, 69, 49
14, 2352, Note_on_c, 13, 54, 49
14, 2394, Note_off_c, 13, 62, 0
14, 2394, Note_off_c, 13, 69, 0
14, 2394, Note_off_c, 13, 54, 0
14, 2400, Note_on_c, 13, 62, 49
14, 2400, Note_on_c, 13, 70, 49
14, 2400, Note_on_c, 13, 55, 49
14, 2421, Note_off_c, 13, 55, 0
14, 2424, Note_on_c, 13, 50, 49
14, 2442, Note_off_c, 13, 62, 0
14, 2442, Note_off_c, 13, 70, 0
14, 2445, Note_off_c, 13, 50, 0
14, 2448, Note_on_c, 13, 55, 49
14, 2469, Note_off_c, 13, 55, 0
14, 2472, Note_on_c, 13, 57, 49
14, 2493, Note_off_c, 13, 57, 0
14, 2496, Note_on_c, 13, 55, 49
14, 2517, Note_off_c, 13, 55, 0
14, 2520, Note_on_c, 13, 53, 49
14, 2541, Note_off_c, 13, 53, 0
14, 2544, Note_on_c, 13, 52, 49
14, 2565, Note_off_c, 13, 52, 0
14, 2568, Note_on_c, 13, 50, 49
14, 2589, Note_off_c, 13, 50, 0
14, 2592, Note_on_c, 13, 48, 49
14, 2634, Note_off_c, 13, 48, 0
14, 2640, Note_on_c, 13, 60, 49
14, 2640, Note_on_c, 13, 65, 49
14, 2640, Note_on_c, 13, 45, 49
14, 2682, Note_off_c, 13, 60, 0
14, 2682, Note_off_c, 13, 65, 0
14, 2682, Note_off_c, 13, 45, 0
14, 2688, Note_on_c, 13, 62, 49
14, 2688, Note_on_c, 13, 65, 49
14, 2688, Note_on_c, 13, 46, 49
14, 2730, Note_off_c, 13, 62, 0
14, 2730, Note_off_c, 13, 65, 0
14, 2730, Note_off_c, 13, 46, 0
14, 2736, Note_on_c, 13, 64, 49
14, 2736, Note_on_c, 13, 69, 49
14, 2736, Note_on_c, 13, 48, 49
14, 2778, Note_off_c, 13, 64, 0
14, 2778, Note_off_c, 13, 69, 0
14, 2778, Note_off_c, 13, 48, 0
14, 2784, Note_on_c, 13, 65, 49
14, 2784, Note_on_c, 13, 69, 49
14, 2784, Note_on_c, 13, 50, 49
14, 2826, Note_off_c, 13, 65, 0
14, 2826, Note_off_c, 13, 69, 0
14, 2826, Note_off_c, 13, 50, 0
14, 2832, Note_on_c, 13, 67, 49
14, 2832, Note_on_c, 13, 70, 49
14, 2832, Note_on_c, 13, 43, 49
14, 2874, Note_off_c, 13, 67, 0
14, 2874, Note_off_c, 13, 70, 0
14, 2874, Note_off_c, 13, 43, 0
14, 2880, Note_on_c, 13, 65, 49
14, 2880, Note_on_c, 13, 72, 49
14, 2880, Note_on_c, 13, 45, 49
14, 2922, Note_off_c, 13, 65, 0
14, 2922, Note_off_c, 13, 72, 0
14, 2922, Note_off_c, 13, 45, 0
14, 2928, Note_on_c, 13, 62, 49
14, 2928, Note_on_c, 13, 67, 49
14, 2928, Note_on_c, 13, 46, 49
14, 2970, Note_off_c, 13, 62, 0
14, 2970, Note_off_c, 13, 67, 0
14, 2970, Note_off_c, 13, 46, 0
14, 2976, Note_on_c, 13, 64, 49
14, 2976, Note_on_c, 13, 67, 49
14, 2976, Note_on_c, 13, 48, 49
14, 3018, Note_off_c, 13, 64, 0
14, 3018, Note_off_c, 13, 67, 0
14, 3018, Note_off_c, 13, 48, 0
14, 3024, Note_on_c, 13, 60, 49
14, 3024, Note_on_c, 13, 36, 49
14, 3066, Note_off_c, 13, 60, 0
14, 3066, Note_off_c, 13, 36, 0
14, 3216, Note_on_c, 13, 64, 49
14, 3216, Note_on_c, 13, 69, 49
14, 3216, Note_on_c, 13, 48, 49
14, 3258, Note_off_c, 13, 64, 0
14, 3258, Note_off_c, 13, 69, 0
14, 3258, Note_off_c, 13, 48, 0
14, 3264, Note_on_c, 13, 65, 49
14, 3264, Note_on_c, 13, 69, 49
14, 3264, Note_on_c, 13, 50, 49
14, 3306, Note_off_c, 13, 65, 0
14, 3306, Note_off_c, 13, 69, 0
14, 3306, Note_off_c, 13, 50, 0
14, 3312, Note_on_c, 13, 64, 49
14, 3312, Note_on_c, 13, 67, 49
14, 3312, Note_on_c, 13, 52, 49
14, 3354, Note_off_c, 13, 64, 0
14, 3354, Note_off_c, 13, 67, 0
14, 3354, Note_off_c, 13, 52, 0
14, 3360, Note_on_c, 13, 60, 49
14, 3360, Note_on_c, 13, 65, 49
14, 3360, Note_on_c, 13, 53, 49
14, 3402, Note_off_c, 13, 60, 0
14, 3402, Note_off_c, 13, 65, 0
14, 3402, Note_off_c, 13, 53, 0
14, 3408, Note_on_c, 13, 65, 49
14, 3408, Note_on_c, 13, 41, 49
14, 3450, Note_off_c, 13, 65, 0
14, 3450, Note_off_c, 13, 41, 0
14, 3600, Note_on_c, 13, 65, 49
14, 3600, Note_on_c, 13, 69, 49
14, 3600, Note_on_c, 13, 53, 49
14, 3642, Note_off_c, 13, 65, 0
14, 3642, Note_off_c, 13, 69, 0
14, 3642, Note_off_c, 13, 53, 0
14, 3648, Note_on_c, 13, 62, 49
14, 3648, Note_on_c, 13, 70, 49
14, 3648, Note_on_c, 13, 55, 49
14, 3690, Note_off_c, 13, 62, 0
14, 3690, Note_off_c, 13, 70, 0
14, 3690, Note_off_c, 13, 55, 0
14, 3696, Note_on_c, 13, 60, 49
14, 3696, Note_on_c, 13, 72, 49
14, 3696, Note_on_c, 13, 57, 49
14, 3738, Note_off_c, 13, 60, 0
14, 3738, Note_off_c, 13, 72, 0
14, 3738, Note_off_c, 13, 57, 0
14, 3744, Note_on_c, 13, 65, 49
14, 3744, Note_on_c, 13, 74, 49
14, 3744, Note_on_c, 13, 58, 49
14, 3765, Note_off_c, 13, 58, 0
14, 3768, Note_on_c, 13, 53, 49
14, 3786, Note_off_c, 13, 65, 0
14, 3786, Note_off_c, 13, 74, 0
14, 3789, Note_off_c, 13, 53, 0
14, 3792, Note_on_c, 13, 67, 49
14, 3792, Note_on_c, 13, 74, 49
14, 3792, Note_on_c, 13, 58, 49
14, 3813, Note_off_c, 13, 58, 0
14, 3816, Note_on_c, 13, 57, 49
14, 3834, Note_off_c, 13, 67, 0
14, 3834, Note_off_c, 13, 74, 0
14, 3837, Note_off_c, 13, 57, 0
14, 3840, Note_on_c, 13, 62, 49
14, 3840, Note_on_c, 13, 74, 49
14, 3840, Note_on_c, 13, 58, 49
14, 3861, Note_off_c, 13, 58, 0
14, 3864, Note_on_c, 13, 57, 49
14, 3882, Note_off_c, 13, 62, 0
14, 3882, Note_off_c, 13, 74, 0
14, 3885, Note_off_c, 13, 57, 0
14, 3888, Note_on_c, 13, 67, 49
14, 3888, Note_on_c, 13, 58, 49
14, 3909, Note_off_c, 13, 58, 0
14, 3912, Note_on_c, 13, 57, 49
14, 3930, Note_off_c, 13, 67, 0
14, 3933, Note_off_c, 13, 57, 0
14, 3936, Note_on_c, 13, 64, 49
14, 3936, Note_on_c, 13, 67, 49
14, 3936, Note_on_c, 13, 58, 49
14, 3957, Note_off_c, 13, 58, 0
14, 3960, Note_on_c, 13, 60, 49
14, 3978, Note_off_c, 13, 64, 0
14, 3978, Note_off_c, 13, 67, 0
14, 3981, Note_off_c, 13, 60, 0
14, 3984, Note_on_c, 13, 64, 49
14, 3984, Note_on_c, 13, 67, 49
14, 3984, Note_on_c, 13, 58, 49
14, 4005, Note_off_c, 13, 58, 0
14, 4008, Note_on_c, 13, 57, 49
14, 4026, Note_off_c, 13, 64, 0
14, 4026, Note_off_c, 13, 67, 0
14, 4029, Note_off_c, 13, 57, 0
14, 4032, Note_on_c, 13, 64, 49
14, 4032, Note_on_c, 13, 70, 49
14, 4032, Note_on_c, 13, 55, 49
14, 4053, Note_off_c, 13, 55, 0
14, 4056, Note_on_c, 13, 53, 49
14, 4074, Note_off_c, 13, 64, 0
14, 4074, Note_off_c, 13, 70, 0
14, 4077, Note_off_c, 13, 53, 0
14, 4080, Note_on_c, 13, 67, 49
14, 4080, Note_on_c, 13, 70, 49
14, 4080, Note_on_c, 13, 52, 49
14, 4101, Note_off_c, 13, 52, 0
14, 4104, Note_on_c, 13, 50, 49
14, 4122, Note_off_c, 13, 67, 0
14, 4122, Note_off_c, 13, 70, 0
14, 4125, Note_off_c, 13, 50, 0
14, 4128, Note_on_c, 13, 64, 49
14, 4128, Note_on_c, 13, 67, 49
14, 4128, Note_on_c, 13, 48, 49
14, 4170, Note_off_c, 13, 64, 0
14, 4170, Note_off_c, 13, 67, 0
14, 4170, Note_off_c, 13, 48, 0
14, 4176, Note_on_c, 13, 65, 49
14, 4176, Note_on_c, 13, 69, 49
14, 4176, Note_on_c, 13, 53, 49
14, 4218, Note_off_c, 13, 65, 0
14, 4218, Note_off_c, 13, 69, 0
14, 4218, Note_off_c, 13, 53, 0
14, 4224, Note_on_c, 13, 64, 49
14, 4224, Note_on_c, 13, 67, 49
14, 4224, Note_on_c, 13, 60, 49
14, 4266, Note_off_c, 13, 64, 0
14, 4266, Note_off_c, 13, 67, 0
14, 4266, Note_off_c, 13, 60, 0
14, 4272, Note_on_c, 13, 64, 49
14, 4272, Note_on_c, 13, 67, 49
14, 4272, Note_on_c, 13, 48, 49
14, 4314, Note_off_c, 13, 64, 0
14, 4314, Note_off_c, 13, 67, 0
14, 4314, Note_off_c, 13, 48, 0
14, 4320, Note_on_c, 13, 65, 49
14, 4320, Note_on_c, 13, 69, 49
14, 4320, Note_on_c, 13, 50, 49
14, 4341, Note_off_c, 13, 50, 0
14, 4344, Note_on_c, 13, 48, 49
14, 4362, Note_off_c, 13, 65, 0
14, 4362, Note_off_c, 13, 69, 0
14, 4365, Note_off_c, 13, 48, 0
14, 4368, Note_on_c, 13, 65, 49
14, 4368, Note_on_c, 13, 69, 49
14, 4368, Note_on_c, 13, 50, 49
14, 4389, Note_off_c, 13, 50, 0
14, 4392, Note_on_c, 13, 48, 49
14, 4410, Note_off_c, 13, 65, 0
14, 4410, Note_off_c, 13, 69, 0
14, 4413, Note_off_c, 13, 48, 0
14, 4416, Note_on_c, 13, 62, 49
14, 4416, Note_on_c, 13, 65, 49
14, 4416, Note_on_c, 13, 46, 49
14, 4437, Note_off_c, 13, 46, 0
14, 4440, Note_on_c, 13, 45, 49
14, 4458, Note_off_c, 13, 62, 0
14, 4458, Note_off_c, 13, 65, 0
14, 4461, Note_off_c, 13, 45, 0
14, 4464, Note_on_c, 13, 62, 49
14, 4464, Note_on_c, 13, 65, 49
14, 4464, Note_on_c, 13, 46, 49
14, 4485, Note_off_c, 13, 46, 0
14, 4488, Note_on_c, 13, 45, 49
14, 4506, Note_off_c, 13, 62, 0
14, 4506, Note_off_c, 13, 65, 0
14, 4509, Note_off_c, 13, 45, 0
14, 4512, Note_on_c, 13, 62, 49
14, 4512, Note_on_c, 13, 70, 49
14, 4512, Note_on_c, 13, 43, 49
14, 4554, Note_off_c, 13, 62, 0
14, 4554, Note_off_c, 13, 70, 0
14, 4554, Note_off_c, 13, 43, 0
14, 4560, Note_on_c, 13, 60, 49
14, 4560, Note_on_c, 13, 69, 49
14, 4560, Note_on_c, 13, 41, 49
14, 4602, Note_off_c, 13, 60, 0
14, 4602, Note_off_c, 13, 69, 0
14, 4602, Note_off_c, 13, 41, 0
14, 4608, Note_on_c, 13, 64, 49
14, 4608, Note_on_c, 13, 67, 49
14, 4608, Note_on_c, 13, 48, 49
14, 4650, Note_off_c, 13, 64, 0
14, 4650, Note_off_c, 13, 67, 0
14, 4650, Note_off_c, 13, 48, 0
14, 4656, Note_on_c, 13, 64, 49
14, 4656, Note_on_c, 13, 67, 49
14, 4656, Note_on_c, 13, 36, 49
14, 4698, Note_off_c, 13, 64, 0
14, 4698, Note_off_c, 13, 67, 0
14, 4698, Note_off_c, 13, 36, 0
14, 4704, Note_on_c, 13, 60, 49
14, 4704, Note_on_c, 13, 69, 49
14, 4704, Note_on_c, 13, 41, 49
14, 4788, Note_off_c, 13, 60, 0
14, 4788, Note_off_c, 13, 69, 0
14, 4788, Note_off_c, 13, 41, 0
14, 5136, Note_on_c, 13, 60, 49
14, 5136, Note_on_c, 13, 69, 49
14, 5136, Note_on_c, 13, 41, 49
14, 5178, Note_off_c, 13, 60, 0
14, 5178, Note_off_c, 13, 69, 0
14, 5178, Note_off_c, 13, 41, 0
14, 5184, Note_on_c, 13, 60, 49
14, 5184, Note_on_c, 13, 65, 49
14, 5184, Note_on_c, 13, 45, 49
14, 5226, Note_off_c, 13, 60, 0
14, 5226, Note_off_c, 13, 65, 0
14, 5226, Note_off_c, 13, 45, 0
14, 5232, Note_on_c, 13, 57, 49
14, 5232, Note_on_c, 13, 65, 49
14, 5232, Note_on_c, 13, 48, 49
14, 5274, Note_off_c, 13, 57, 0
14, 5274, Note_off_c, 13, 65, 0
14, 5274, Note_off_c, 13, 48, 0
14, 5280, Note_on_c, 13, 60, 49
14, 5280, Note_on_c, 13, 69, 49
14, 5280, Note_on_c, 13, 53, 49
14, 5322, Note_off_c, 13, 60, 0
14, 5322, Note_off_c, 13, 69, 0
14, 5322, Note_off_c, 13, 53, 0
14, 5328, Note_on_c, 13, 65, 49
14, 5328, Note_on_c, 13, 69, 49
14, 5328, Note_on_c, 13, 50, 49
14, 5370, Note_off_c, 13, 65, 0
14, 5370, Note_off_c, 13, 69, 0
14, 5370, Note_off_c, 13, 50, 0
14, 5376, Note_on_c, 13, 60, 49
14, 5376, Note_on_c, 13, 65, 49
14, 5376, Note_on_c, 13, 45, 49
14, 5418, Note_off_c, 13, 60, 0
14, 5418, Note_off_c, 13, 65, 0
14, 5418, Note_off_c, 13, 45, 0
14, 5424, Note_on_c, 13, 62, 49
14, 5424, Note_on_c, 13, 67, 49
14, 5424, Note_on_c, 13, 46, 49
14, 5466, Note_off_c, 13, 62, 0
14, 5466, Note_off_c, 13, 67, 0
14, 5466, Note_off_c, 13, 46, 0
14, 5472, Note_on_c, 13, 64, 49
14, 5472, Note_on_c, 13, 67, 49
14, 5472, Note_on_c, 13, 48, 49
14, 5556, Note_off_c, 13, 64, 0
14, 5556, Note_off_c, 13, 67, 0
14, 5556, Note_off_c, 13, 48, 0
14, 5616, Note_on_c, 13, 62, 49
14, 5616, Note_on_c, 13, 71, 49
14, 5616, Note_on_c, 13, 43, 49
14, 5658, Note_off_c, 13, 62, 0
14, 5658, Note_off_c, 13, 71, 0
14, 5658, Note_off_c, 13, 43, 0
14, 5664, Note_on_c, 13, 64, 49
14, 5664, Note_on_c, 13, 72, 49
14, 5664, Note_on_c, 13, 45, 49
14, 5706, Note_off_c, 13, 64, 0
14, 5706, Note_off_c, 13, 72, 0
14, 5706, Note_off_c, 13, 45, 0
14, 5712, Note_on_c, 13, 64, 49
14, 5712, Note_on_c, 13, 67, 49
14, 5712, Note_on_c, 13, 40, 49
14, 5754, Note_off_c, 13, 64, 0
14, 5754, Note_off_c, 13, 67, 0
14, 5754, Note_off_c, 13, 40, 0
14, 5760, Note_on_c, 13, 62, 49
14, 5760, Note_on_c, 13, 69, 49
14, 5760, Note_on_c, 13, 41, 49
14, 5802, Note_off_c, 13, 62, 0
14, 5802, Note_off_c, 13, 69, 0
14, 5802, Note_off_c, 13, 41, 0
14, 5808, Note_on_c, 13, 62, 49
14, 5808, Note_on_c, 13, 71, 49
14, 5808, Note_on_c, 13, 43, 49
14, 5850, Note_off_c, 13, 62, 0
14, 5850, Note_off_c, 13, 71, 0
14, 5850, Note_off_c, 13, 43, 0
14, 5856, Note_on_c, 13, 64, 49
14, 5856, Note_on_c, 13, 67, 49
14, 5856, Note_on_c, 13, 36, 49
14, 5898, Note_off_c, 13, 64, 0
14, 5898, Note_off_c, 13, 67, 0
14, 5898, Note_off_c, 13, 36, 0
14, 5904, Note_on_c, 13, 64, 49
14, 5904, Note_on_c, 13, 72, 49
14, 5904, Note_on_c, 13, 43, 49
14, 5946, Note_off_c, 13, 64, 0
14, 5946, Note_off_c, 13, 72, 0
14, 5946, Note_off_c, 13, 43, 0
14, 5952, Note_on_c, 13, 64, 49
14, 5952, Note_on_c, 13, 67, 49
14, 5952, Note_on_c, 13, 48, 49
14, 5994, Note_off_c, 13, 64, 0
14, 5994, Note_off_c, 13, 67, 0
14, 5994, Note_off_c, 13, 48, 0
14, 6000, Note_on_c, 13, 64, 49
14, 6000, Note_on_c, 13, 67, 49
14, 6000, Note_on_c, 13, 36, 49
14, 6042, Note_off_c, 13, 64, 0
14, 6042, Note_off_c, 13, 67, 0
14, 6042, Note_off_c, 13, 36, 0
14, 6048, Note_on_c, 13, 60, 49
14, 6048, Note_on_c, 13, 65, 49
14, 6048, Note_on_c, 13, 41, 49
14, 6090, Note_off_c, 13, 60, 0
14, 6090, Note_off_c, 13, 65, 0
14, 6090, Note_off_c, 13, 41, 0
14, 6096, Note_on_c, 13, 62, 49
14, 6096, Note_on_c, 13, 65, 49
14, 6096, Note_on_c, 13, 45, 49
14, 6138, Note_off_c, 13, 62, 0
14, 6138, Note_off_c, 13, 65, 0
14, 6138, Note_off_c, 13, 45, 0
14, 6144, Note_on_c, 13, 65, 49
14, 6144, Note_on_c, 13, 69, 49
14, 6144, Note_on_c, 13, 50, 49
14, 6186, Note_off_c, 13, 65, 0
14, 6186, Note_off_c, 13, 69, 0
14, 6186, Note_off_c, 13, 50, 0
14, 6192, Note_on_c, 13, 65, 49
14, 6192, Note_on_c, 13, 69, 49
14, 6192, Note_on_c, 13, 38, 49
14, 6234, Note_off_c, 13, 65, 0
14, 6234, Note_off_c, 13, 69, 0
14, 6234, Note_off_c, 13, 38, 0
14, 6240, Note_on_c, 13, 62, 49
14, 6240, Note_on_c, 13, 71, 49
14, 6240, Note_on_c, 13, 43, 49
14, 6282, Note_off_c, 13, 62, 0
14, 6282, Note_off_c, 13, 71, 0
14, 6282, Note_off_c, 13, 43, 0
14, 6288, Note_on_c, 13, 64, 49
14, 6288, Note_on_c, 13, 72, 49
14, 6288, Note_on_c, 13, 47, 49
14, 6330, Note_off_c, 13, 64, 0
14, 6330, Note_off_c, 13, 72, 0
14, 6330, Note_off_c, 13, 47, 0
14, 6336, Note_on_c, 13, 60, 49
14, 6336, Note_on_c, 13, 67, 49
14, 6336, Note_on_c, 13, 52, 49
14, 6378, Note_off_c, 13, 60, 0
14, 6378, Note_off_c, 13, 67, 0
14, 6378, Note_off_c, 13, 52, 0
14, 6384, Note_on_c, 13, 60, 49
14, 6384, Note_on_c, 13, 67, 49
14, 6384, Note_on_c, 13, 40, 49
14, 6426, Note_off_c, 13, 60, 0
14, 6426, Note_off_c, 13, 67, 0
14, 6426, Note_off_c, 13, 40, 0
14, 6432, Note_on_c, 13, 60, 49
14, 6432, Note_on_c, 13, 64, 49
14, 6432, Note_on_c, 13, 45, 49
14, 6474, Note_off_c, 13, 60, 0
14, 6474, Note_off_c, 13, 64, 0
14, 6474, Note_off_c, 13, 45, 0
14, 6480, Note_on_c, 13, 60, 49
14, 6480, Note_on_c, 13, 69, 49
14, 6480, Note_on_c, 13, 53, 49
14, 6522, Note_off_c, 13, 60, 0
14, 6522, Note_off_c, 13, 69, 0
14, 6522, Note_off_c, 13, 53, 0
14, 6528, Note_on_c, 13, 62, 49
14, 6528, Note_on_c, 13, 71, 49
14, 6528, Note_on_c, 13, 55, 49
14, 6570, Note_off_c, 13, 62, 0
14, 6570, Note_off_c, 13, 71, 0
14, 6570, Note_off_c, 13, 55, 0
14, 6576, Note_on_c, 13, 62, 49
14, 6576, Note_on_c, 13, 71, 49
14, 6576, Note_on_c, 13, 43, 49
14, 6618, Note_off_c, 13, 62, 0
14, 6618, Note_off_c, 13, 71, 0
14, 6618, Note_off_c, 13, 43, 0
14, 6624, Note_on_c, 13, 64, 49
14, 6624, Note_on_c, 13, 67, 49
14, 6624, Note_on_c, 13, 48, 49
14, 6708, Note_off_c, 13, 64, 0
14, 6708, Note_off_c, 13, 67, 0
14, 6708, Note_off_c, 13, 48, 0
14, 6864, Note_on_c, 13, 65, 49
14, 6864, Note_on_c, 13, 50, 49
14, 6906, Note_off_c, 13, 65, 0
14, 6906, Note_off_c, 13, 50, 0
14, 6912, Note_on_c, 13, 58, 49
14, 6912, Note_on_c, 13, 67, 49
14, 6912, Note_on_c, 13, 52, 49
14, 6954, Note_off_c, 13, 58, 0
14, 6954, Note_off_c, 13, 67, 0
14, 6954, Note_off_c, 13, 52, 0
14, 6960, Note_on_c, 13, 69, 49
14, 6960, Note_on_c, 13, 54, 49
14, 7002, Note_off_c, 13, 69, 0
14, 7002, Note_off_c, 13, 54, 0
14, 7008, Note_on_c, 13, 62, 49
14, 7008, Note_on_c, 13, 70, 49
14, 7008, Note_on_c, 13, 55, 49
14, 7092, Note_off_c, 13, 62, 0
14, 7092, Note_off_c, 13, 70, 0
14, 7092, Note_off_c, 13, 55, 0
14, 7248, Note_on_c, 13, 60, 49
14, 7248, Note_on_c, 13, 45, 49
14, 7290, Note_off_c, 13, 60, 0
14, 7290, Note_off_c, 13, 45, 0
14, 7296, Note_on_c, 13, 62, 49
14, 7296, Note_on_c, 13, 47, 49
14, 7338, Note_off_c, 13, 62, 0
14, 7338, Note_off_c, 13, 47, 0
14, 7344, Note_on_c, 13, 64, 49
14, 7344, Note_on_c, 13, 49, 49
14, 7386, Note_off_c, 13, 64, 0
14, 7386, Note_off_c, 13, 49, 0
14, 7392, Note_on_c, 13, 65, 49
14, 7392, Note_on_c, 13, 69, 49
14, 7392, Note_on_c, 13, 50, 49
14, 7413, Note_off_c, 13, 50, 0
14, 7416, Note_on_c, 13, 52, 49
14, 7434, Note_off_c, 13, 65, 0
14, 7434, Note_off_c, 13, 69, 0
14, 7437, Note_off_c, 13, 52, 0
14, 7440, Note_on_c, 13, 50, 49
14, 7461, Note_off_c, 13, 50, 0
14, 7464, Note_on_c, 13, 48, 49
14, 7485, Note_off_c, 13, 48, 0
14, 7488, Note_on_c, 13, 46, 49
14, 7509, Note_off_c, 13, 46, 0
14, 7512, Note_on_c, 13, 45, 49
14, 7533, Note_off_c, 13, 45, 0
14, 7536, Note_on_c, 13, 43, 49
14, 7557, Note_off_c, 13, 43, 0
14, 7560, Note_on_c, 13, 41, 49
14, 7581, Note_off_c, 13, 41, 0
14, 7584, Note_on_c, 13, 40, 49
14, 7626, Note_off_c, 13, 40, 0
14, 7632, Note_on_c, 13, 48, 49
14, 7674, Note_off_c, 13, 48, 0
14, 7680, Note_on_c, 13, 50, 49
14, 7722, Note_off_c, 13, 50, 0
14, 7728, Note_on_c, 13, 52, 49
14, 7770, Note_off_c, 13, 52, 0
14, 7776, Note_on_c, 13, 53, 49
14, 7818, Note_off_c, 13, 53, 0
14, 7824, Note_on_c, 13, 65, 49
14, 7824, Note_on_c, 13, 70, 49
14, 7824, Note_on_c, 13, 50, 49
14, 7866, Note_off_c, 13, 65, 0
14, 7866, Note_off_c, 13, 70, 0
14, 7866, Note_off_c, 13, 50, 0
14, 7872, Note_on_c, 13, 62, 49
14, 7872, Note_on_c, 13, 65, 49
14, 7872, Note_on_c, 13, 46, 49
14, 7914, Note_off_c, 13, 62, 0
14, 7914, Note_off_c, 13, 65, 0
14, 7914, Note_off_c, 13, 46, 0
14, 7920, Note_on_c, 13, 62, 49
14, 7920, Note_on_c, 13, 65, 49
14, 7920, Note_on_c, 13, 45, 49
14, 7962, Note_off_c, 13, 62, 0
14, 7962, Note_off_c, 13, 65, 0
14, 7962, Note_off_c, 13, 45, 0
14, 7968, Note_on_c, 13, 62, 49
14, 7968, Note_on_c, 13, 70, 49
14, 7968, Note_on_c, 13, 43, 49
14, 8010, Note_off_c, 13, 62, 0
14, 8010, Note_off_c, 13, 70, 0
14, 8010, Note_off_c, 13, 43, 0
14, 8016, Note_on_c, 13, 64, 49
14, 8016, Note_on_c, 13, 67, 49
14, 8016, Note_on_c, 13, 48, 49
14, 8058, Note_off_c, 13, 64, 0
14, 8058, Note_off_c, 13, 67, 0
14, 8058, Note_off_c, 13, 48, 0
14, 8064, Note_on_c, 13, 64, 49
14, 8064, Note_on_c, 13, 69, 49
14, 8064, Note_on_c, 13, 45, 49
14, 8106, Note_off_c, 13, 64, 0
14, 8106, Note_off_c, 13, 69, 0
14, 8106, Note_off_c, 13, 45, 0
14, 8112, Note_on_c, 13, 60, 49
14, 8112, Note_on_c, 13, 64, 49
14, 8112, Note_on_c, 13, 43, 49
14, 8154, Note_off_c, 13, 60, 0
14, 8154, Note_off_c, 13, 64, 0
14, 8154, Note_off_c, 13, 43, 0
14, 8160, Note_on_c, 13, 60, 49
14, 8160, Note_on_c, 13, 69, 49
14, 8160, Note_on_c, 13, 41, 49
14, 8202, Note_off_c, 13, 60, 0
14, 8202, Note_off_c, 13, 69, 0
14, 8202, Note_off_c, 13, 41, 0
14, 8208, Note_on_c, 13, 62, 49
14, 8208, Note_on_c, 13, 65, 49
14, 8208, Note_on_c, 13, 46, 49
14, 8250, Note_off_c, 13, 62, 0
14, 8250, Note_off_c, 13, 65, 0
14, 8250, Note_off_c, 13, 46, 0
14, 8256, Note_on_c, 13, 62, 49
14, 8256, Note_on_c, 13, 70, 49
14, 8256, Note_on_c, 13, 43, 49
14, 8298, Note_off_c, 13, 62, 0
14, 8298, Note_off_c, 13, 70, 0
14, 8298, Note_off_c, 13, 43, 0
14, 8304, Note_on_c, 13, 62, 49
14, 8304, Note_on_c, 13, 70, 49
14, 8304, Note_on_c, 13, 41, 49
14, 8346, Note_off_c, 13, 62, 0
14, 8346, Note_off_c, 13, 70, 0
14, 8346, Note_off_c, 13, 41, 0
14, 8352, Note_on_c, 13, 67, 49
14, 8352, Note_on_c, 13, 70, 49
14, 8352, Note_on_c, 13, 39, 49
14, 8436, Note_off_c, 13, 67, 0
14, 8436, Note_off_c, 13, 70, 0
14, 8436, Note_off_c, 13, 39, 0
14, 8496, Note_on_c, 13, 51, 49
14, 8544, Note_on_c, 13, 65, 49
14, 8544, Note_on_c, 13, 69, 49
14, 8565, Note_off_c, 13, 51, 0
14, 8568, Note_on_c, 13, 53, 49
14, 8589, Note_off_c, 13, 53, 0
14, 8592, Note_on_c, 13, 51, 49
14, 8613, Note_off_c, 13, 51, 0
14, 8616, Note_on_c, 13, 50, 49
14, 8628, Note_off_c, 13, 65, 0
14, 8628, Note_off_c, 13, 69, 0
14, 8637, Note_off_c, 13, 50, 0
14, 8640, Note_on_c, 13, 48, 49
14, 8661, Note_off_c, 13, 48, 0
14, 8664, Note_on_c, 13, 46, 49
14, 8685, Note_off_c, 13, 46, 0
14, 8688, Note_on_c, 13, 63, 49
14, 8688, Note_on_c, 13, 45, 49
14, 8709, Note_off_c, 13, 45, 0
14, 8712, Note_on_c, 13, 43, 49
14, 8730, Note_off_c, 13, 63, 0
14, 8733, Note_off_c, 13, 43, 0
14, 8736, Note_on_c, 13, 60, 49
14, 8736, Note_on_c, 13, 69, 49
14, 8736, Note_on_c, 13, 41, 49
14, 8778, Note_off_c, 13, 60, 0
14, 8778, Note_off_c, 13, 69, 0
14, 8778, Note_off_c, 13, 41, 0
14, 8784, Note_on_c, 13, 62, 49
14, 8784, Note_on_c, 13, 65, 49
14, 8784, Note_on_c, 13, 46, 49
14, 8826, Note_off_c, 13, 62, 0
14, 8826, Note_off_c, 13, 65, 0
14, 8826, Note_off_c, 13, 46, 0
14, 8832, Note_on_c, 13, 60, 49
14, 8832, Note_on_c, 13, 69, 49
14, 8832, Note_on_c, 13, 53, 49
14, 8874, Note_off_c, 13, 60, 0
14, 8874, Note_off_c, 13, 69, 0
14, 8874, Note_off_c, 13, 53, 0
14, 8880, Note_on_c, 13, 60, 49
14, 8880, Note_on_c, 13, 69, 49
14, 8880, Note_on_c, 13, 41, 49
14, 8922, Note_off_c, 13, 60, 0
14, 8922, Note_off_c, 13, 69, 0
14, 8922, Note_off_c, 13, 41, 0
14, 8928, Note_on_c, 13, 62, 49
14, 8928, Note_on_c, 13, 65, 49
14, 8928, Note_on_c, 13, 46, 49
14, 8970, Note_off_c, 13, 62, 0
14, 8970, Note_off_c, 13, 65, 0
14, 8970, Note_off_c, 13, 46, 0
14, 8976, Note_on_c, 13, 58, 49
14, 9018, Note_off_c, 13, 58, 0
14, 9024, Note_on_c, 13, 60, 49
14, 9066, Note_off_c, 13, 60, 0
14, 9072, Note_on_c, 13, 62, 49
14, 9114, Note_off_c, 13, 62, 0
14, 9120, Note_on_c, 13, 63, 49
14, 9162, Note_off_c, 13, 63, 0
14, 9168, Note_on_c, 13, 57, 49
14, 9210, Note_off_c, 13, 57, 0
14, 9216, Note_on_c, 13, 58, 49
14, 9258, Note_off_c, 13, 58, 0
14, 9264, Note_on_c, 13, 60, 49
14, 9306, Note_off_c, 13, 60, 0
14, 9312, Note_on_c, 13, 62, 49
14, 9354, Note_off_c, 13, 62, 0
14, 9360, Note_on_c, 13, 55, 49
14, 9402, Note_off_c, 13, 55, 0
14, 9408, Note_on_c, 13, 57, 49
14, 9450, Note_off_c, 13, 57, 0
14, 9456, Note_on_c, 13, 58, 49
14, 9498, Note_off_c, 13, 58, 0
14, 9504, Note_on_c, 13, 60, 49
14, 9546, Note_off_c, 13, 60, 0
14, 9552, Note_on_c, 13, 53, 49
14, 9594, Note_off_c, 13, 53, 0
14, 9600, Note_on_c, 13, 55, 49
14, 9642, Note_off_c, 13, 55, 0
14, 9648, Note_on_c, 13, 57, 49
14, 9690, Note_off_c, 13, 57, 0
14, 9696, Note_on_c, 13, 58, 49
14, 9738, Note_off_c, 13, 58, 0
14, 9744, Note_on_c, 13, 52, 49
14, 9786, Note_off_c, 13, 52, 0
14, 9792, Note_on_c, 13, 53, 49
14, 9834, Note_off_c, 13, 53, 0
14, 9840, Note_on_c, 13, 55, 49
14, 9882, Note_off_c, 13, 55, 0
14, 9888, Note_on_c, 13, 57, 49
14, 9930, Note_off_c, 13, 57, 0
14, 9936, Note_on_c, 13, 52, 49
14, 9978, Note_off_c, 13, 52, 0
14, 9984, Note_on_c, 13, 49, 49
14, 10026, Note_off_c, 13, 49, 0
14, 10032, Note_on_c, 13, 45, 49
14, 10074, Note_off_c, 13, 45, 0
14, 10080, Note_on_c, 13, 50, 49
14, 10164, Note_off_c, 13, 50, 0
14, 10224, Note_on_c, 13, 61, 49
14, 10224, Note_on_c, 13, 65, 49
14, 10224, Note_on_c, 13, 45, 49
14, 10266, Note_off_c, 13, 61, 0
14, 10266, Note_off_c, 13, 65, 0
14, 10266, Note_off_c, 13, 45, 0
14, 10272, Note_on_c, 13, 62, 49
14, 10272, Note_on_c, 13, 65, 49
14, 10272, Note_on_c, 13, 46, 49
14, 10314, Note_off_c, 13, 62, 0
14, 10314, Note_off_c, 13, 65, 0
14, 10314, Note_off_c, 13, 46, 0
14, 10320, Note_on_c, 13, 62, 49
14, 10320, Note_on_c, 13, 69, 49
14, 10320, Note_on_c, 13, 41, 49
14, 10362, Note_off_c, 13, 62, 0
14, 10362, Note_off_c, 13, 69, 0
14, 10362, Note_off_c, 13, 41, 0
14, 10368, Note_on_c, 13, 62, 49
14, 10368, Note_on_c, 13, 67, 49
14, 10368, Note_on_c, 13, 43, 49
14, 10410, Note_off_c, 13, 62, 0
14, 10410, Note_off_c, 13, 67, 0
14, 10410, Note_off_c, 13, 43, 0
14, 10416, Note_on_c, 13, 61, 49
14, 10416, Note_on_c, 13, 64, 49
14, 10416, Note_on_c, 13, 45, 49
14, 10458, Note_off_c, 13, 61, 0
14, 10458, Note_off_c, 13, 64, 0
14, 10458, Note_off_c, 13, 45, 0
14, 10464, Note_on_c, 13, 65, 49
14, 10464, Note_on_c, 13, 69, 49
14, 10464, Note_on_c, 13, 38, 49
14, 10506, Note_off_c, 13, 65, 0
14, 10506, Note_off_c, 13, 69, 0
14, 10506, Note_off_c, 13, 38, 0
14, 10512, Note_on_c, 13, 50, 49
14, 10533, Note_off_c, 13, 50, 0
14, 10536, Note_on_c, 13, 49, 49
14, 10557, Note_off_c, 13, 49, 0
14, 10560, Note_on_c, 13, 50, 49
14, 10581, Note_off_c, 13, 50, 0
14, 10584, Note_on_c, 13, 49, 49
14, 10605, Note_off_c, 13, 49, 0
14, 10608, Note_on_c, 13, 50, 49
14, 10629, Note_off_c, 13, 50, 0
14, 10632, Note_on_c, 13, 46, 49
14, 10653, Note_off_c, 13, 46, 0
14, 10656, Note_on_c, 13, 64, 49
14, 10656, Note_on_c, 13, 69, 49
14, 10656, Note_on_c, 13, 48, 49
14, 10698, Note_off_c, 13, 64, 0
14, 10698, Note_off_c, 13, 69, 0
14, 10698, Note_off_c, 13, 48, 0
14, 10704, Note_on_c, 13, 60, 49
14, 10704, Note_on_c, 13, 64, 49
14, 10704, Note_on_c, 13, 45, 49
14, 10746, Note_off_c, 13, 60, 0
14, 10746, Note_off_c, 13, 64, 0
14, 10746, Note_off_c, 13, 45, 0
14, 10752, Note_on_c, 13, 62, 49
14, 10752, Note_on_c, 13, 65, 49
14, 10752, Note_on_c, 13, 46, 49
14, 10794, Note_off_c, 13, 62, 0
14, 10794, Note_off_c, 13, 65, 0
14, 10794, Note_off_c, 13, 46, 0
14, 10800, Note_on_c, 13, 62, 49
14, 10800, Note_on_c, 13, 70, 49
14, 10800, Note_on_c, 13, 43, 49
14, 10842, Note_off_c, 13, 62, 0
14, 10842, Note_off_c, 13, 70, 0
14, 10842, Note_off_c, 13, 43, 0
14, 10848, Note_on_c, 13, 61, 49
14, 10848, Note_on_c, 13, 64, 49
14, 10848, Note_on_c, 13, 45, 49
14, 10890, Note_off_c, 13, 61, 0
14, 10890, Note_off_c, 13, 64, 0
14, 10890, Note_off_c, 13, 45, 0
14, 10896, Note_on_c, 13, 61, 49
14, 10896, Note_on_c, 13, 64, 49
14, 10896, Note_on_c, 13, 57, 49
14, 10938, Note_off_c, 13, 61, 0
14, 10938, Note_off_c, 13, 64, 0
14, 10938, Note_off_c, 13, 57, 0
14, 11088, Note_on_c, 13, 60, 49
14, 11088, Note_on_c, 13, 45, 49
14, 11130, Note_off_c, 13, 60, 0
14, 11130, Note_off_c, 13, 45, 0
14, 11136, Note_on_c, 13, 62, 49
14, 11136, Note_on_c, 13, 47, 49
14, 11178, Note_off_c, 13, 62, 0
14, 11178, Note_off_c, 13, 47, 0
14, 11184, Note_on_c, 13, 64, 49
14, 11184, Note_on_c, 13, 49, 49
14, 11226, Note_off_c, 13, 64, 0
14, 11226, Note_off_c, 13, 49, 0
14, 11232, Note_on_c, 13, 61, 49
14, 11232, Note_on_c, 13, 64, 49
14, 11232, Note_on_c, 13, 38, 49
14, 11274, Note_off_c, 13, 61, 0
14, 11274, Note_off_c, 13, 64, 0
14, 11274, Note_off_c, 13, 38, 0
14, 11280, Note_on_c, 13, 61, 49
14, 11280, Note_on_c, 13, 50, 49
14, 11322, Note_off_c, 13, 61, 0
14, 11322, Note_off_c, 13, 50, 0
14, 11472, Note_on_c, 13, 66, 49
14, 11472, Note_on_c, 13, 50, 49
14, 11514, Note_off_c, 13, 66, 0
14, 11514, Note_off_c, 13, 50, 0
14, 11520, Note_on_c, 13, 67, 49
14, 11520, Note_on_c, 13, 52, 49
14, 11562, Note_off_c, 13, 67, 0
14, 11562, Note_off_c, 13, 52, 0
14, 11568, Note_on_c, 13, 69, 49
14, 11568, Note_on_c, 13, 54, 49
14, 11610, Note_off_c, 13, 69, 0
14, 11610, Note_off_c, 13, 54, 0
14, 11616, Note_on_c, 13, 62, 49
14, 11616, Note_on_c, 13, 70, 49
14, 11616, Note_on_c, 13, 55, 49
14, 11658, Note_off_c, 13, 62, 0
14, 11658, Note_off_c, 13, 70, 0
14, 11658, Note_off_c, 13, 55, 0
14, 11664, Note_on_c, 13, 60, 49
14, 11664, Note_on_c, 13, 66, 49
14, 11664, Note_on_c, 13, 57, 49
14, 11706, Note_off_c, 13, 60, 0
14, 11706, Note_off_c, 13, 66, 0
14, 11706, Note_off_c, 13, 57, 0
14, 11712, Note_on_c, 13, 62, 49
14, 11712, Note_on_c, 13, 67, 49
14, 11712, Note_on_c, 13, 58, 49
14, 11754, Note_off_c, 13, 62, 0
14, 11754, Note_off_c, 13, 67, 0
14, 11754, Note_off_c, 13, 58, 0
14, 11760, Note_on_c, 13, 62, 49
14, 11760, Note_on_c, 13, 70, 49
14, 11760, Note_on_c, 13, 55, 49
14, 11802, Note_off_c, 13, 62, 0
14, 11802, Note_off_c, 13, 70, 0
14, 11802, Note_off_c, 13, 55, 0
14, 11808, Note_on_c, 13, 61, 49
14, 11808, Note_on_c, 13, 64, 49
14, 11808, Note_on_c, 13, 57, 49
14, 11850, Note_off_c, 13, 61, 0
14, 11850, Note_off_c, 13, 64, 0
14, 11850, Note_off_c, 13, 57, 0
14, 11856, Note_on_c, 13, 64, 49
14, 11856, Note_on_c, 13, 69, 49
14, 11856, Note_on_c, 13, 58, 49
14, 11877, Note_off_c, 13, 58, 0
14, 11880, Note_on_c, 13, 57, 49
14, 11898, Note_off_c, 13, 64, 0
14, 11898, Note_off_c, 13, 69, 0
14, 11901, Note_off_c, 13, 57, 0
14, 11904, Note_on_c, 13, 64, 49
14, 11904, Note_on_c, 13, 73, 49
14, 11904, Note_on_c, 13, 55, 49
14, 11925, Note_off_c, 13, 55, 0
14, 11928, Note_on_c, 13, 53, 49
14, 11946, Note_off_c, 13, 64, 0
14, 11946, Note_off_c, 13, 73, 0
14, 11949, Note_off_c, 13, 53, 0
14, 11952, Note_on_c, 13, 64, 49
14, 11952, Note_on_c, 13, 73, 49
14, 11952, Note_on_c, 13, 52, 49
14, 11973, Note_off_c, 13, 52, 0
14, 11976, Note_on_c, 13, 50, 49
14, 11994, Note_off_c, 13, 64, 0
14, 11994, Note_off_c, 13, 73, 0
14, 11997, Note_off_c, 13, 50, 0
14, 12000, Note_on_c, 13, 64, 49
14, 12000, Note_on_c, 13, 69, 49
14, 12000, Note_on_c, 13, 49, 49
14, 12021, Note_off_c, 13, 49, 0
14, 12024, Note_on_c, 13, 50, 49
14, 12045, Note_off_c, 13, 50, 0
14, 12048, Note_on_c, 13, 52, 49
14, 12069, Note_off_c, 13, 52, 0
14, 12072, Note_on_c, 13, 50, 49
14, 12084, Note_off_c, 13, 64, 0
14, 12084, Note_off_c, 13, 69, 0
14, 12093, Note_off_c, 13, 50, 0
14, 12096, Note_on_c, 13, 49, 49
14, 12117, Note_off_c, 13, 49, 0
14, 12120, Note_on_c, 13, 47, 49
14, 12141, Note_off_c, 13, 47, 0
14, 12144, Note_on_c, 13, 64, 49
14, 12144, Note_on_c, 13, 73, 49
14, 12144, Note_on_c, 13, 45, 49
14, 12165, Note_off_c, 13, 45, 0
14, 12168, Note_on_c, 13, 43, 49
14, 12186, Note_off_c, 13, 64, 0
14, 12186, Note_off_c, 13, 73, 0
14, 12189, Note_off_c, 13, 43, 0
14, 12192, Note_on_c, 13, 64, 49
14, 12192, Note_on_c, 13, 69, 49
14, 12192, Note_on_c, 13, 41, 49
14, 12234, Note_off_c, 13, 64, 0
14, 12234, Note_off_c, 13, 69, 0
14, 12234, Note_off_c, 13, 41, 0
14, 12240, Note_on_c, 13, 66, 49
14, 12240, Note_on_c, 13, 69, 49
14, 12240, Note_on_c, 13, 50, 49
14, 12282, Note_off_c, 13, 66, 0
14, 12282, Note_off_c, 13, 69, 0
14, 12282, Note_off_c, 13, 50, 0
14, 12288, Note_on_c, 13, 61, 49
14, 12288, Note_on_c, 13, 69, 49
14, 12288, Note_on_c, 13, 57, 49
14, 12330, Note_off_c, 13, 61, 0
14, 12330, Note_off_c, 13, 69, 0
14, 12330, Note_off_c, 13, 57, 0
14, 12336, Note_on_c, 13, 61, 49
14, 12336, Note_on_c, 13, 69, 49
14, 12336, Note_on_c, 13, 45, 49
14, 12378, Note_off_c, 13, 61, 0
14, 12378, Note_off_c, 13, 69, 0
14, 12378, Note_off_c, 13, 45, 0
14, 12384, Note_on_c, 13, 65, 49
14, 12384, Note_on_c, 13, 70, 49
14, 12384, Note_on_c, 13, 50, 49
14, 12468, Note_off_c, 13, 65, 0
14, 12468, Note_off_c, 13, 70, 0
14, 12468, Note_off_c, 13, 50, 0
14, 12768, Note_on_c, 13, 70, 49
14, 12768, Note_on_c, 13, 43, 49
14, 12852, Note_off_c, 13, 70, 0
14, 12852, Note_off_c, 13, 43, 0
14, 13152, Note_on_c, 13, 60, 49
14, 13152, Note_on_c, 13, 72, 49
14, 13152, Note_on_c, 13, 48, 49
14, 13194, Note_off_c, 13, 48, 0
14, 13200, Note_on_c, 13, 60, 49
14, 13236, Note_off_c, 13, 60, 0
14, 13236, Note_off_c, 13, 72, 0
14, 13242, Note_off_c, 13, 60, 0
14, 13248, Note_on_c, 13, 58, 49
14, 13290, Note_off_c, 13, 58, 0
14, 13296, Note_on_c, 13, 57, 49
14, 13338, Note_off_c, 13, 57, 0
14, 13344, Note_on_c, 13, 55, 49
14, 13386, Note_off_c, 13, 55, 0
14, 13392, Note_on_c, 13, 53, 49
14, 13434, Note_off_c, 13, 53, 0
14, 13440, Note_on_c, 13, 52, 49
14, 13482, Note_off_c, 13, 52, 0
14, 13488, Note_on_c, 13, 48, 49
14, 13530, Note_off_c, 13, 48, 0
14, 13536, Note_on_c, 13, 53, 49
14, 13578, Note_off_c, 13, 53, 0
14, 13584, Note_on_c, 13, 48, 49
14, 13605, Note_off_c, 13, 48, 0
14, 13608, Note_on_c, 13, 46, 49
14, 13629, Note_off_c, 13, 46, 0
14, 13632, Note_on_c, 13, 48, 49
14, 13653, Note_off_c, 13, 48, 0
14, 13656, Note_on_c, 13, 46, 49
14, 13677, Note_off_c, 13, 46, 0
14, 13680, Note_on_c, 13, 63, 49
14, 13680, Note_on_c, 13, 69, 49
14, 13680, Note_on_c, 13, 48, 49
14, 13701, Note_off_c, 13, 48, 0
14, 13704, Note_on_c, 13, 50, 49
14, 13722, Note_off_c, 13, 63, 0
14, 13722, Note_off_c, 13, 69, 0
14, 13725, Note_off_c, 13, 50, 0
14, 13728, Note_on_c, 13, 63, 49
14, 13728, Note_on_c, 13, 70, 49
14, 13728, Note_on_c, 13, 51, 49
14, 13749, Note_off_c, 13, 51, 0
14, 13752, Note_on_c, 13, 53, 49
14, 13770, Note_off_c, 13, 63, 0
14, 13770, Note_off_c, 13, 70, 0
14, 13773, Note_off_c, 13, 53, 0
14, 13776, Note_on_c, 13, 62, 49
14, 13776, Note_on_c, 13, 70, 49
14, 13776, Note_on_c, 13, 46, 49
14, 13797, Note_off_c, 13, 46, 0
14, 13800, Note_on_c, 13, 45, 49
14, 13818, Note_off_c, 13, 62, 0
14, 13818, Note_off_c, 13, 70, 0
14, 13821, Note_off_c, 13, 45, 0
14, 13824, Note_on_c, 13, 46, 49
14, 13845, Note_off_c, 13, 46, 0
14, 13848, Note_on_c, 13, 45, 49
14, 13869, Note_off_c, 13, 45, 0
14, 13872, Note_on_c, 13, 62, 49
14, 13872, Note_on_c, 13, 67, 49
14, 13872, Note_on_c, 13, 46, 49
14, 13893, Note_off_c, 13, 46, 0
14, 13896, Note_on_c, 13, 48, 49
14, 13914, Note_off_c, 13, 62, 0
14, 13914, Note_off_c, 13, 67, 0
14, 13917, Note_off_c, 13, 48, 0
14, 13920, Note_on_c, 13, 57, 49
14, 13920, Note_on_c, 13, 67, 49
14, 13920, Note_on_c, 13, 50, 49
14, 13941, Note_off_c, 13, 50, 0
14, 13944, Note_on_c, 13, 52, 49
14, 13962, Note_off_c, 13, 57, 0
14, 13962, Note_off_c, 13, 67, 0
14, 13965, Note_off_c, 13, 52, 0
14, 13968, Note_on_c, 13, 60, 49
14, 13968, Note_on_c, 13, 64, 49
14, 13968, Note_on_c, 13, 45, 49
14, 13989, Note_off_c, 13, 45, 0
14, 13992, Note_on_c, 13, 43, 49
14, 14010, Note_off_c, 13, 60, 0
14, 14010, Note_off_c, 13, 64, 0
14, 14013, Note_off_c, 13, 43, 0
14, 14016, Note_on_c, 13, 45, 49
14, 14037, Note_off_c, 13, 45, 0
14, 14040, Note_on_c, 13, 43, 49
14, 14061, Note_off_c, 13, 43, 0
14, 14064, Note_on_c, 13, 60, 49
14, 14064, Note_on_c, 13, 65, 49
14, 14064, Note_on_c, 13, 45, 49
14, 14085, Note_off_c, 13, 45, 0
14, 14088, Note_on_c, 13, 46, 49
14, 14106, Note_off_c, 13, 60, 0
14, 14106, Note_off_c, 13, 65, 0
14, 14109, Note_off_c, 13, 46, 0
14, 14112, Note_on_c, 13, 55, 49
14, 14112, Note_on_c, 13, 65, 49
14, 14112, Note_on_c, 13, 48, 49
14, 14154, Note_off_c, 13, 55, 0
14, 14154, Note_off_c, 13, 65, 0
14, 14154, Note_off_c, 13, 48, 0
14, 14160, Note_on_c, 13, 60, 49
14, 14160, Note_on_c, 13, 64, 49
14, 14160, Note_on_c, 13, 43, 49
14, 14202, Note_off_c, 13, 60, 0
14, 14202, Note_off_c, 13, 64, 0
14, 14202, Note_off_c, 13, 43, 0
14, 14208, Note_on_c, 13, 64, 49
14, 14208, Note_on_c, 13, 40, 49
14, 14250, Note_off_c, 13, 64, 0
14, 14250, Note_off_c, 13, 40, 0
14, 14256, Note_on_c, 13, 60, 49
14, 14256, Note_on_c, 13, 36, 49
14, 14298, Note_off_c, 13, 60, 0
14, 14298, Note_off_c, 13, 36, 0
14, 14304, Note_on_c, 13, 41, 49
14, 14325, Note_off_c, 13, 41, 0
14, 14328, Note_on_c, 13, 48, 49
14, 14349, Note_off_c, 13, 48, 0
14, 14352, Note_on_c, 13, 53, 49
14, 14373, Note_off_c, 13, 53, 0
14, 14376, Note_on_c, 13, 52, 49
14, 14397, Note_off_c, 13, 52, 0
14, 14400, Note_on_c, 13, 53, 49
14, 14421, Note_off_c, 13, 53, 0
14, 14424, Note_on_c, 13, 52, 49
14, 14445, Note_off_c, 13, 52, 0
14, 14448, Note_on_c, 13, 53, 49
14, 14469, Note_off_c, 13, 53, 0
14, 14472, Note_on_c, 13, 52, 49
14, 14493, Note_off_c, 13, 52, 0
14, 14496, Note_on_c, 13, 65, 49
14, 14496, Note_on_c, 13, 69, 49
14, 14496, Note_on_c, 13, 50, 49
14, 14538, Note_off_c, 13, 50, 0
14, 14544, Note_on_c, 13, 45, 49
14, 14586, Note_off_c, 13, 45, 0
14, 14592, Note_on_c, 13, 41, 49
14, 14634, Note_off_c, 13, 41, 0
14, 14640, Note_on_c, 13, 38, 49
14, 14676, Note_off_c, 13, 65, 0
14, 14676, Note_off_c, 13, 69, 0
14, 14682, Note_off_c, 13, 38, 0
14, 14688, Note_on_c, 13, 43, 49
14, 14709, Note_off_c, 13, 43, 0
14, 14712, Note_on_c, 13, 50, 49
14, 14733, Note_off_c, 13, 50, 0
14, 14736, Note_on_c, 13, 55, 49
14, 14757, Note_off_c, 13, 55, 0
14, 14760, Note_on_c, 13, 53, 49
14, 14781, Note_off_c, 13, 53, 0
14, 14784, Note_on_c, 13, 55, 49
14, 14805, Note_off_c, 13, 55, 0
14, 14808, Note_on_c, 13, 53, 49
14, 14829, Note_off_c, 13, 53, 0
14, 14832, Note_on_c, 13, 55, 49
14, 14853, Note_off_c, 13, 55, 0
14, 14856, Note_on_c, 13, 53, 49
14, 14877, Note_off_c, 13, 53, 0
14, 14880, Note_on_c, 13, 67, 49
14, 14880, Note_on_c, 13, 70, 49
14, 14880, Note_on_c, 13, 52, 49
14, 14922, Note_off_c, 13, 52, 0
14, 14928, Note_on_c, 13, 47, 49
14, 14970, Note_off_c, 13, 47, 0
14, 14976, Note_on_c, 13, 43, 49
14, 15018, Note_off_c, 13, 43, 0
14, 15024, Note_on_c, 13, 40, 49
14, 15060, Note_off_c, 13, 67, 0
14, 15060, Note_off_c, 13, 70, 0
14, 15066, Note_off_c, 13, 40, 0
14, 15072, Note_on_c, 13, 45, 49
14, 15093, Note_off_c, 13, 45, 0
14, 15096, Note_on_c, 13, 52, 49
14, 15117, Note_off_c, 13, 52, 0
14, 15120, Note_on_c, 13, 57, 49
14, 15141, Note_off_c, 13, 57, 0
14, 15144, Note_on_c, 13, 55, 49
14, 15165, Note_off_c, 13, 55, 0
14, 15168, Note_on_c, 13, 57, 49
14, 15189, Note_off_c, 13, 57, 0
14, 15192, Note_on_c, 13, 55, 49
14, 15213, Note_off_c, 13, 55, 0
14, 15216, Note_on_c, 13, 57, 49
14, 15237, Note_off_c, 13, 57, 0
14, 15240, Note_on_c, 13, 55, 49
14, 15261, Note_off_c, 13, 55, 0
14, 15264, Note_on_c, 13, 54, 49
14, 15306, Note_off_c, 13, 54, 0
14, 15312, Note_on_c, 13, 69, 49
14, 15312, Note_on_c, 13, 72, 49
14, 15312, Note_on_c, 13, 63, 49
14, 15354, Note_off_c, 13, 69, 0
14, 15354, Note_off_c, 13, 72, 0
14, 15354, Note_off_c, 13, 63, 0
14, 15360, Note_on_c, 13, 66, 49
14, 15360, Note_on_c, 13, 69, 49
14, 15360, Note_on_c, 13, 60, 49
14, 15402, Note_off_c, 13, 66, 0
14, 15402, Note_off_c, 13, 69, 0
14, 15402, Note_off_c, 13, 60, 0
14, 15408, Note_on_c, 13, 66, 49
14, 15408, Note_on_c, 13, 72, 49
14, 15408, Note_on_c, 13, 57, 49
14, 15450, Note_off_c, 13, 66, 0
14, 15450, Note_off_c, 13, 72, 0
14, 15450, Note_off_c, 13, 57, 0
14, 15456, Note_on_c, 13, 69, 49
14, 15456, Note_on_c, 13, 75, 49
14, 15456, Note_on_c, 13, 54, 49
14, 15498, Note_off_c, 13, 69, 0
14, 15498, Note_off_c, 13, 75, 0
14, 15498, Note_off_c, 13, 54, 0
14, 15504, Note_on_c, 13, 66, 49
14, 15504, Note_on_c, 13, 69, 49
14, 15504, Note_on_c, 13, 60, 49
14, 15546, Note_off_c, 13, 66, 0
14, 15546, Note_off_c, 13, 69, 0
14, 15546, Note_off_c, 13, 60, 0
14, 15552, Note_on_c, 13, 60, 49
14, 15552, Note_on_c, 13, 66, 49
14, 15552, Note_on_c, 13, 57, 49
14, 15594, Note_off_c, 13, 60, 0
14, 15594, Note_off_c, 13, 66, 0
14, 15594, Note_off_c, 13, 57, 0
14, 15600, Note_on_c, 13, 60, 49
14, 15600, Note_on_c, 13, 69, 49
14, 15600, Note_on_c, 13, 54, 49
14, 15642, Note_off_c, 13, 60, 0
14, 15642, Note_off_c, 13, 69, 0
14, 15642, Note_off_c, 13, 54, 0
14, 15648, Note_on_c, 13, 66, 49
14, 15648, Note_on_c, 13, 72, 49
14, 15648, Note_on_c, 13, 50, 49
14, 15690, Note_off_c, 13, 66, 0
14, 15690, Note_off_c, 13, 72, 0
14, 15690, Note_off_c, 13, 50, 0
14, 15696, Note_on_c, 13, 63, 49
14, 15696, Note_on_c, 13, 72, 49
14, 15696, Note_on_c, 13, 45, 49
14, 15738, Note_off_c, 13, 63, 0
14, 15738, Note_off_c, 13, 72, 0
14, 15738, Note_off_c, 13, 45, 0
14, 15744, Note_on_c, 13, 62, 49
14, 15744, Note_on_c, 13, 69, 49
14, 15744, Note_on_c, 13, 42, 49
14, 15786, Note_off_c, 13, 62, 0
14, 15786, Note_off_c, 13, 69, 0
14, 15786, Note_off_c, 13, 42, 0
14, 15792, Note_on_c, 13, 66, 49
14, 15792, Note_on_c, 13, 69, 49
14, 15792, Note_on_c, 13, 38, 49
14, 15834, Note_off_c, 13, 66, 0
14, 15834, Note_off_c, 13, 69, 0
14, 15834, Note_off_c, 13, 38, 0
14, 15840, Note_on_c, 13, 59, 49
14, 15840, Note_on_c, 13, 67, 49
14, 15840, Note_on_c, 13, 53, 49
14, 15924, Note_off_c, 13, 59, 0
14, 15924, Note_off_c, 13, 67, 0
14, 15924, Note_off_c, 13, 53, 0
14, 15984, Note_on_c, 13, 59, 49
14, 15984, Note_on_c, 13, 67, 49
14, 15984, Note_on_c, 13, 53, 49
14, 16026, Note_off_c, 13, 59, 0
14, 16026, Note_off_c, 13, 67, 0
14, 16026, Note_off_c, 13, 53, 0
14, 16032, Note_on_c, 13, 60, 49
14, 16032, Note_on_c, 13, 67, 49
14, 16032, Note_on_c, 13, 52, 49
14, 16074, Note_off_c, 13, 60, 0
14, 16074, Note_off_c, 13, 67, 0
14, 16074, Note_off_c, 13, 52, 0
14, 16080, Note_on_c, 13, 60, 49
14, 16080, Note_on_c, 13, 69, 49
14, 16080, Note_on_c, 13, 53, 49
14, 16122, Note_off_c, 13, 60, 0
14, 16122, Note_off_c, 13, 69, 0
14, 16122, Note_off_c, 13, 53, 0
14, 16128, Note_on_c, 13, 62, 49
14, 16128, Note_on_c, 13, 71, 49
14, 16128, Note_on_c, 13, 55, 49
14, 16170, Note_off_c, 13, 62, 0
14, 16170, Note_off_c, 13, 71, 0
14, 16170, Note_off_c, 13, 55, 0
14, 16176, Note_on_c, 13, 62, 49
14, 16176, Note_on_c, 13, 71, 49
14, 16176, Note_on_c, 13, 43, 49
14, 16218, Note_off_c, 13, 62, 0
14, 16218, Note_off_c, 13, 71, 0
14, 16218, Note_off_c, 13, 43, 0
14, 16224, Note_on_c, 13, 64, 49
14, 16224, Note_on_c, 13, 67, 49
14, 16224, Note_on_c, 13, 48, 49
14, 16308, Note_off_c, 13, 64, 0
14, 16308, Note_off_c, 13, 67, 0
14, 16308, Note_off_c, 13, 48, 0
14, 16368, Note_on_c, 13, 62, 49
14, 16368, Note_on_c, 13, 71, 49
14, 16368, Note_on_c, 13, 43, 49
14, 16410, Note_off_c, 13, 62, 0
14, 16410, Note_off_c, 13, 71, 0
14, 16410, Note_off_c, 13, 43, 0
14, 16416, Note_on_c, 13, 64, 49
14, 16416, Note_on_c, 13, 72, 49
14, 16416, Note_on_c, 13, 45, 49
14, 16458, Note_off_c, 13, 64, 0
14, 16458, Note_off_c, 13, 72, 0
14, 16458, Note_off_c, 13, 45, 0
14, 16464, Note_on_c, 13, 64, 49
14, 16464, Note_on_c, 13, 67, 49
14, 16464, Note_on_c, 13, 40, 49
14, 16506, Note_off_c, 13, 64, 0
14, 16506, Note_off_c, 13, 67, 0
14, 16506, Note_off_c, 13, 40, 0
14, 16512, Note_on_c, 13, 60, 49
14, 16512, Note_on_c, 13, 69, 49
14, 16512, Note_on_c, 13, 41, 49
14, 16554, Note_off_c, 13, 60, 0
14, 16554, Note_off_c, 13, 69, 0
14, 16554, Note_off_c, 13, 41, 0
14, 16560, Note_on_c, 13, 59, 49
14, 16560, Note_on_c, 13, 62, 49
14, 16560, Note_on_c, 13, 43, 49
14, 16602, Note_off_c, 13, 59, 0
14, 16602, Note_off_c, 13, 62, 0
14, 16602, Note_off_c, 13, 43, 0
14, 16608, Note_on_c, 13, 60, 49
14, 16608, Note_on_c, 13, 64, 49
14, 16608, Note_on_c, 13, 36, 49
14, 16650, Note_off_c, 13, 60, 0
14, 16650, Note_off_c, 13, 64, 0
14, 16650, Note_off_c, 13, 36, 0
14, 16656, Note_on_c, 13, 48, 49
14, 16677, Note_off_c, 13, 48, 0
14, 16680, Note_on_c, 13, 47, 49
14, 16701, Note_off_c, 13, 47, 0
14, 16704, Note_on_c, 13, 48, 49
14, 16725, Note_off_c, 13, 48, 0
14, 16728, Note_on_c, 13, 47, 49
14, 16749, Note_off_c, 13, 47, 0
14, 16752, Note_on_c, 13, 48, 49
14, 16773, Note_off_c, 13, 48, 0
14, 16776, Note_on_c, 13, 45, 49
14, 16797, Note_off_c, 13, 45, 0
14, 16800, Note_on_c, 13, 62, 49
14, 16800, Note_on_c, 13, 67, 49
14, 16800, Note_on_c, 13, 47, 49
14, 16842, Note_off_c, 13, 62, 0
14, 16842, Note_off_c, 13, 67, 0
14, 16842, Note_off_c, 13, 47, 0
14, 16848, Note_on_c, 13, 62, 49
14, 16848, Note_on_c, 13, 71, 49
14, 16848, Note_on_c, 13, 43, 49
14, 16890, Note_off_c, 13, 62, 0
14, 16890, Note_off_c, 13, 71, 0
14, 16890, Note_off_c, 13, 43, 0
14, 16896, Note_on_c, 13, 60, 49
14, 16896, Note_on_c, 13, 64, 49
14, 16896, Note_on_c, 13, 45, 49
14, 16938, Note_off_c, 13, 60, 0
14, 16938, Note_off_c, 13, 64, 0
14, 16938, Note_off_c, 13, 45, 0
14, 16944, Note_on_c, 13, 57, 49
14, 16944, Note_on_c, 13, 66, 49
14, 16944, Note_on_c, 13, 38, 49
14, 16986, Note_off_c, 13, 57, 0
14, 16986, Note_off_c, 13, 66, 0
14, 16986, Note_off_c, 13, 38, 0
14, 16992, Note_on_c, 13, 58, 49
14, 16992, Note_on_c, 13, 62, 49
14, 16992, Note_on_c, 13, 43, 49
14, 17034, Note_off_c, 13, 58, 0
14, 17034, Note_off_c, 13, 62, 0
14, 17034, Note_off_c, 13, 43, 0
14, 17040, Note_on_c, 13, 58, 49
14, 17040, Note_on_c, 13, 62, 49
14, 17040, Note_on_c, 13, 55, 49
14, 17082, Note_off_c, 13, 58, 0
14, 17082, Note_off_c, 13, 62, 0
14, 17082, Note_off_c, 13, 55, 0
14, 17232, Note_on_c, 13, 60, 49
14, 17232, Note_on_c, 13, 68, 49
14, 17232, Note_on_c, 13, 40, 49
14, 17274, Note_off_c, 13, 60, 0
14, 17274, Note_off_c, 13, 68, 0
14, 17274, Note_off_c, 13, 40, 0
14, 17280, Note_on_c, 13, 60, 49
14, 17280, Note_on_c, 13, 69, 49
14, 17280, Note_on_c, 13, 42, 49
14, 17322, Note_off_c, 13, 60, 0
14, 17322, Note_off_c, 13, 69, 0
14, 17322, Note_off_c, 13, 42, 0
14, 17328, Note_on_c, 13, 59, 49
14, 17328, Note_on_c, 13, 71, 49
14, 17328, Note_on_c, 13, 44, 49
14, 17370, Note_off_c, 13, 59, 0
14, 17370, Note_off_c, 13, 71, 0
14, 17370, Note_off_c, 13, 44, 0
14, 17376, Note_on_c, 13, 61, 49
14, 17376, Note_on_c, 13, 64, 49
14, 17376, Note_on_c, 13, 45, 49
14, 17418, Note_off_c, 13, 61, 0
14, 17418, Note_off_c, 13, 64, 0
14, 17418, Note_off_c, 13, 45, 0
14, 17424, Note_on_c, 13, 61, 49
14, 17424, Note_on_c, 13, 64, 49
14, 17424, Note_on_c, 13, 57, 49
14, 17466, Note_off_c, 13, 61, 0
14, 17466, Note_off_c, 13, 64, 0
14, 17466, Note_off_c, 13, 57, 0
14, 17616, Note_on_c, 13, 61, 49
14, 17616, Note_on_c, 13, 64, 49
14, 17616, Note_on_c, 13, 45, 49
14, 17658, Note_off_c, 13, 61, 0
14, 17658, Note_off_c, 13, 64, 0
14, 17658, Note_off_c, 13, 45, 0
14, 17664, Note_on_c, 13, 57, 49
14, 17664, Note_on_c, 13, 65, 49
14, 17664, Note_on_c, 13, 50, 49
14, 17706, Note_off_c, 13, 57, 0
14, 17706, Note_off_c, 13, 65, 0
14, 17706, Note_off_c, 13, 50, 0
14, 17712, Note_on_c, 13, 64, 49
14, 17712, Note_on_c, 13, 67, 49
14, 17712, Note_on_c, 13, 52, 49
14, 17754, Note_off_c, 13, 64, 0
14, 17754, Note_off_c, 13, 67, 0
14, 17754, Note_off_c, 13, 52, 0
14, 17760, Note_on_c, 13, 62, 49
14, 17760, Note_on_c, 13, 69, 49
14, 17760, Note_on_c, 13, 53, 49
14, 17802, Note_off_c, 13, 53, 0
14, 17808, Note_on_c, 13, 52, 49
14, 17829, Note_off_c, 13, 52, 0
14, 17832, Note_on_c, 13, 50, 49
14, 17844, Note_off_c, 13, 62, 0
14, 17844, Note_off_c, 13, 69, 0
14, 17853, Note_off_c, 13, 50, 0
14, 17856, Note_on_c, 13, 48, 49
14, 17877, Note_off_c, 13, 48, 0
14, 17880, Note_on_c, 13, 47, 49
14, 17901, Note_off_c, 13, 47, 0
14, 17904, Note_on_c, 13, 60, 49
14, 17904, Note_on_c, 13, 69, 49
14, 17904, Note_on_c, 13, 45, 49
14, 17925, Note_off_c, 13, 45, 0
14, 17928, Note_on_c, 13, 44, 49
14, 17946, Note_off_c, 13, 60, 0
14, 17946, Note_off_c, 13, 69, 0
14, 17949, Note_off_c, 13, 44, 0
14, 17952, Note_on_c, 13, 60, 49
14, 17952, Note_on_c, 13, 64, 49
14, 17952, Note_on_c, 13, 45, 49
14, 17994, Note_off_c, 13, 60, 0
14, 17994, Note_off_c, 13, 64, 0
14, 17994, Note_off_c, 13, 45, 0
14, 18000, Note_on_c, 13, 59, 49
14, 18000, Note_on_c, 13, 65, 49
14, 18000, Note_on_c, 13, 50, 49
14, 18042, Note_off_c, 13, 59, 0
14, 18042, Note_off_c, 13, 65, 0
14, 18042, Note_off_c, 13, 50, 0
14, 18048, Note_on_c, 13, 59, 49
14, 18048, Note_on_c, 13, 68, 49
14, 18048, Note_on_c, 13, 52, 49
14, 18090, Note_off_c, 13, 59, 0
14, 18090, Note_off_c, 13, 68, 0
14, 18090, Note_off_c, 13, 52, 0
14, 18096, Note_on_c, 13, 59, 49
14, 18096, Note_on_c, 13, 68, 49
14, 18096, Note_on_c, 13, 40, 49
14, 18138, Note_off_c, 13, 59, 0
14, 18138, Note_off_c, 13, 68, 0
14, 18138, Note_off_c, 13, 40, 0
14, 18144, Note_on_c, 13, 60, 49
14, 18144, Note_on_c, 13, 64, 49
14, 18144, Note_on_c, 13, 45, 49
14, 18186, Note_off_c, 13, 60, 0
14, 18186, Note_off_c, 13, 64, 0
14, 18186, Note_off_c, 13, 45, 0
14, 18192, Note_on_c, 13, 57, 49
14, 18234, Note_off_c, 13, 57, 0
14, 18240, Note_on_c, 13, 58, 49
14, 18282, Note_off_c, 13, 58, 0
14, 18288, Note_on_c, 13, 60, 49
14, 18330, Note_off_c, 13, 60, 0
14, 18336, Note_on_c, 13, 62, 49
14, 18378, Note_off_c, 13, 62, 0
14, 18384, Note_on_c, 13, 55, 49
14, 18426, Note_off_c, 13, 55, 0
14, 18432, Note_on_c, 13, 57, 49
14, 18474, Note_off_c, 13, 57, 0
14, 18480, Note_on_c, 13, 58, 49
14, 18522, Note_off_c, 13, 58, 0
14, 18528, Note_on_c, 13, 60, 49
14, 18570, Note_off_c, 13, 60, 0
14, 18576, Note_on_c, 13, 53, 49
14, 18618, Note_off_c, 13, 53, 0
14, 18624, Note_on_c, 13, 55, 49
14, 18666, Note_off_c, 13, 55, 0
14, 18672, Note_on_c, 13, 57, 49
14, 18714, Note_off_c, 13, 57, 0
14, 18720, Note_on_c, 13, 58, 49
14, 18762, Note_off_c, 13, 58, 0
14, 18768, Note_on_c, 13, 52, 49
14, 18810, Note_off_c, 13, 52, 0
14, 18816, Note_on_c, 13, 53, 49
14, 18858, Note_off_c, 13, 53, 0
14, 18864, Note_on_c, 13, 55, 49
14, 18906, Note_off_c, 13, 55, 0
14, 18912, Note_on_c, 13, 57, 49
14, 18954, Note_off_c, 13, 57, 0
14, 18960, Note_on_c, 13, 55, 49
14, 19002, Note_off_c, 13, 55, 0
14, 19008, Note_on_c, 13, 53, 49
14, 19050, Note_off_c, 13, 53, 0
14, 19056, Note_on_c, 13, 52, 49
14, 19098, Note_off_c, 13, 52, 0
14, 19104, Note_on_c, 13, 50, 49
14, 19146, Note_off_c, 13, 50, 0
14, 19152, Note_on_c, 13, 48, 49
14, 19194, Note_off_c, 13, 48, 0
14, 19200, Note_on_c, 13, 46, 49
14, 19242, Note_off_c, 13, 46, 0
14, 19248, Note_on_c, 13, 45, 49
14, 19290, Note_off_c, 13, 45, 0
14, 19296, Note_on_c, 13, 43, 49
14, 19338, Note_off_c, 13, 43, 0
14, 19344, Note_on_c, 13, 46, 49
14, 19386, Note_off_c, 13, 46, 0
14, 19392, Note_on_c, 13, 48, 49
14, 19434, Note_off_c, 13, 48, 0
14, 19440, Note_on_c, 13, 50, 49
14, 19482, Note_off_c, 13, 50, 0
14, 19488, Note_on_c, 13, 51, 49
14, 19530, Note_off_c, 13, 51, 0
14, 19536, Note_on_c, 13, 48, 49
14, 19578, Note_off_c, 13, 48, 0
14, 19584, Note_on_c, 13, 50, 49
14, 19626, Note_off_c, 13, 50, 0
14, 19632, Note_on_c, 13, 38, 49
14, 19674, Note_off_c, 13, 38, 0
14, 19680, Note_on_c, 13, 43, 49
14, 19764, Note_off_c, 13, 43, 0
14, 19824, Note_on_c, 13, 66, 49
14, 19824, Note_on_c, 13, 69, 49
14, 19824, Note_on_c, 13, 50, 49
14, 19866, Note_off_c, 13, 66, 0
14, 19866, Note_off_c, 13, 69, 0
14, 19866, Note_off_c, 13, 50, 0
14, 19872, Note_on_c, 13, 67, 49
14, 19872, Note_on_c, 13, 70, 49
14, 19872, Note_on_c, 13, 51, 49
14, 19914, Note_off_c, 13, 67, 0
14, 19914, Note_off_c, 13, 70, 0
14, 19914, Note_off_c, 13, 51, 0
14, 19920, Note_on_c, 13, 62, 49
14, 19920, Note_on_c, 13, 67, 49
14, 19920, Note_on_c, 13, 46, 49
14, 19962, Note_off_c, 13, 62, 0
14, 19962, Note_off_c, 13, 67, 0
14, 19962, Note_off_c, 13, 46, 0
14, 19968, Note_on_c, 13, 63, 49
14, 19968, Note_on_c, 13, 67, 49
14, 19968, Note_on_c, 13, 48, 49
14, 20010, Note_off_c, 13, 63, 0
14, 20010, Note_off_c, 13, 67, 0
14, 20010, Note_off_c, 13, 48, 0
14, 20016, Note_on_c, 13, 58, 49
14, 20016, Note_on_c, 13, 67, 49
14, 20016, Note_on_c, 13, 50, 49
14, 20058, Note_off_c, 13, 58, 0
14, 20058, Note_off_c, 13, 67, 0
14, 20058, Note_off_c, 13, 50, 0
14, 20064, Note_on_c, 13, 62, 49
14, 20064, Note_on_c, 13, 43, 49
14, 20106, Note_off_c, 13, 62, 0
14, 20106, Note_off_c, 13, 43, 0
14, 20112, Note_on_c, 13, 55, 49
14, 20154, Note_off_c, 13, 55, 0
14, 20160, Note_on_c, 13, 57, 49
14, 20202, Note_off_c, 13, 57, 0
14, 20208, Note_on_c, 13, 58, 49
14, 20250, Note_off_c, 13, 58, 0
14, 20256, Note_on_c, 13, 60, 49
14, 20298, Note_off_c, 13, 60, 0
14, 20304, Note_on_c, 13, 53, 49
14, 20346, Note_off_c, 13, 53, 0
14, 20352, Note_on_c, 13, 55, 49
14, 20394, Note_off_c, 13, 55, 0
14, 20400, Note_on_c, 13, 57, 49
14, 20442, Note_off_c, 13, 57, 0
14, 20448, Note_on_c, 13, 58, 49
14, 20490, Note_off_c, 13, 58, 0
14, 20496, Note_on_c, 13, 52, 49
14, 20538, Note_off_c, 13, 52, 0
14, 20544, Note_on_c, 13, 53, 49
14, 20586, Note_off_c, 13, 53, 0
14, 20592, Note_on_c, 13, 55, 49
14, 20634, Note_off_c, 13, 55, 0
14, 20640, Note_on_c, 13, 57, 49
14, 20682, Note_off_c, 13, 57, 0
14, 20688, Note_on_c, 13, 50, 49
14, 20730, Note_off_c, 13, 50, 0
14, 20736, Note_on_c, 13, 52, 49
14, 20778, Note_off_c, 13, 52, 0
14, 20784, Note_on_c, 13, 53, 49
14, 20826, Note_off_c, 13, 53, 0
14, 20832, Note_on_c, 13, 55, 49
14, 20874, Note_off_c, 13, 55, 0
14, 20880, Note_on_c, 13, 53, 49
14, 20922, Note_off_c, 13, 53, 0
14, 20928, Note_on_c, 13, 52, 49
14, 20970, Note_off_c, 13, 52, 0
14, 20976, Note_on_c, 13, 50, 49
14, 21018, Note_off_c, 13, 50, 0
14, 21024, Note_on_c, 13, 48, 49
14, 21066, Note_off_c, 13, 48, 0
14, 21072, Note_on_c, 13, 46, 49
14, 21114, Note_off_c, 13, 46, 0
14, 21120, Note_on_c, 13, 45, 49
14, 21162, Note_off_c, 13, 45, 0
14, 21168, Note_on_c, 13, 43, 49
14, 21210, Note_off_c, 13, 43, 0
14, 21216, Note_on_c, 13, 41, 49
14, 21258, Note_off_c, 13, 41, 0
14, 21264, Note_on_c, 13, 45, 49
14, 21306, Note_off_c, 13, 45, 0
14, 21312, Note_on_c, 13, 46, 49
14, 21354, Note_off_c, 13, 46, 0
14, 21360, Note_on_c, 13, 48, 49
14, 21402, Note_off_c, 13, 48, 0
14, 21408, Note_on_c, 13, 50, 49
14, 21450, Note_off_c, 13, 50, 0
14, 21456, Note_on_c, 13, 46, 49
14, 21498, Note_off_c, 13, 46, 0
14, 21504, Note_on_c, 13, 48, 49
14, 21546, Note_off_c, 13, 48, 0
14, 21552, Note_on_c, 13, 36, 49
14, 21594, Note_off_c, 13, 36, 0
14, 21600, Note_on_c, 13, 41, 49
14, 21684, Note_off_c, 13, 41, 0
14, 21744, Note_on_c, 13, 64, 49
14, 21744, Note_on_c, 13, 67, 49
14, 21744, Note_on_c, 13, 48, 49
14, 21786, Note_off_c, 13, 64, 0
14, 21786, Note_off_c, 13, 67, 0
14, 21786, Note_off_c, 13, 48, 0
14, 21792, Note_on_c, 13, 65, 49
14, 21792, Note_on_c, 13, 69, 49
14, 21792, Note_on_c, 13, 50, 49
14, 21834, Note_off_c, 13, 65, 0
14, 21834, Note_off_c, 13, 69, 0
14, 21834, Note_off_c, 13, 50, 0
14, 21840, Note_on_c, 13, 65, 49
14, 21840, Note_on_c, 13, 72, 49
14, 21840, Note_on_c, 13, 45, 49
14, 21882, Note_off_c, 13, 65, 0
14, 21882, Note_off_c, 13, 72, 0
14, 21882, Note_off_c, 13, 45, 0
14, 21888, Note_on_c, 13, 67, 49
14, 21888, Note_on_c, 13, 74, 49
14, 21888, Note_on_c, 13, 46, 49
14, 21930, Note_off_c, 13, 67, 0
14, 21930, Note_off_c, 13, 74, 0
14, 21930, Note_off_c, 13, 46, 0
14, 21936, Note_on_c, 13, 67, 49
14, 21936, Note_on_c, 13, 76, 49
14, 21936, Note_on_c, 13, 48, 49
14, 21978, Note_off_c, 13, 67, 0
14, 21978, Note_off_c, 13, 76, 0
14, 21978, Note_off_c, 13, 48, 0
14, 21984, Note_on_c, 13, 62, 49
14, 21984, Note_on_c, 13, 72, 49
14, 21984, Note_on_c, 13, 41, 49
14, 22068, Note_off_c, 13, 62, 0
14, 22068, Note_off_c, 13, 72, 0
14, 22068, Note_off_c, 13, 41, 0
14, 22416, Note_on_c, 13, 60, 49
14, 22416, Note_on_c, 13, 69, 49
14, 22416, Note_on_c, 13, 41, 49
14, 22458, Note_off_c, 13, 60, 0
14, 22458, Note_off_c, 13, 69, 0
14, 22458, Note_off_c, 13, 41, 0
14, 22464, Note_on_c, 13, 60, 49
14, 22464, Note_on_c, 13, 65, 49
14, 22464, Note_on_c, 13, 45, 49
14, 22506, Note_off_c, 13, 60, 0
14, 22506, Note_off_c, 13, 65, 0
14, 22506, Note_off_c, 13, 45, 0
14, 22512, Note_on_c, 13, 65, 49
14, 22512, Note_on_c, 13, 69, 49
14, 22512, Note_on_c, 13, 48, 49
14, 22554, Note_off_c, 13, 65, 0
14, 22554, Note_off_c, 13, 69, 0
14, 22554, Note_off_c, 13, 48, 0
14, 22560, Note_on_c, 13, 53, 49
14, 22602, Note_off_c, 13, 53, 0
14, 22608, Note_on_c, 13, 50, 49
14, 22650, Note_off_c, 13, 50, 0
14, 22656, Note_on_c, 13, 45, 49
14, 22698, Note_off_c, 13, 45, 0
14, 22704, Note_on_c, 13, 46, 49
14, 22746, Note_off_c, 13, 46, 0
14, 22752, Note_on_c, 13, 48, 49
14, 22836, Note_off_c, 13, 48, 0
14, 22896, Note_on_c, 13, 43, 49
14, 22938, Note_off_c, 13, 43, 0
14, 22944, Note_on_c, 13, 45, 49
14, 22986, Note_off_c, 13, 45, 0
14, 22992, Note_on_c, 13, 40, 49
14, 23034, Note_off_c, 13, 40, 0
14, 23040, Note_on_c, 13, 41, 49
14, 23082, Note_off_c, 13, 41, 0
14, 23088, Note_on_c, 13, 43, 49
14, 23130, Note_off_c, 13, 43, 0
14, 23136, Note_on_c, 13, 36, 49
14, 23178, Note_off_c, 13, 36, 0
14, 23184, Note_on_c, 13, 43, 49
14, 23226, Note_off_c, 13, 43, 0
14, 23232, Note_on_c, 13, 48, 49
14, 23274, Note_off_c, 13, 48, 0
14, 23280, Note_on_c, 13, 36, 49
14, 23322, Note_off_c, 13, 36, 0
14, 23328, Note_on_c, 13, 41, 49
14, 23370, Note_off_c, 13, 41, 0
14, 23376, Note_on_c, 13, 45, 49
14, 23418, Note_off_c, 13, 45, 0
14, 23424, Note_on_c, 13, 50, 49
14, 23466, Note_off_c, 13, 50, 0
14, 23472, Note_on_c, 13, 38, 49
14, 23514, Note_off_c, 13, 38, 0
14, 23520, Note_on_c, 13, 43, 49
14, 23562, Note_off_c, 13, 43, 0
14, 23568, Note_on_c, 13, 47, 49
14, 23610, Note_off_c, 13, 47, 0
14, 23616, Note_on_c, 13, 52, 49
14, 23658, Note_off_c, 13, 52, 0
14, 23664, Note_on_c, 13, 40, 49
14, 23706, Note_off_c, 13, 40, 0
14, 23712, Note_on_c, 13, 45, 49
14, 23754, Note_off_c, 13, 45, 0
14, 23760, Note_on_c, 13, 53, 49
14, 23802, Note_off_c, 13, 53, 0
14, 23808, Note_on_c, 13, 55, 49
14, 23850, Note_off_c, 13, 55, 0
14, 23856, Note_on_c, 13, 43, 49
14, 23898, Note_off_c, 13, 43, 0
14, 23904, Note_on_c, 13, 48, 49
14, 23988, Note_off_c, 13, 48, 0
14, 24288, Note_on_c, 13, 41, 49
14, 24372, Note_off_c, 13, 41, 0
14, 24672, Note_on_c, 13, 46, 49
14, 24714, Note_off_c, 13, 46, 0
14, 24720, Note_on_c, 13, 68, 49
14, 24720, Note_on_c, 13, 74, 49
14, 24720, Note_on_c, 13, 53, 49
14, 24741, Note_off_c, 13, 53, 0
14, 24744, Note_on_c, 13, 51, 49
14, 24762, Note_off_c, 13, 68, 0
14, 24762, Note_off_c, 13, 74, 0
14, 24765, Note_off_c, 13, 51, 0
14, 24768, Note_on_c, 13, 68, 49
14, 24768, Note_on_c, 13, 74, 49
14, 24768, Note_on_c, 13, 53, 49
14, 24789, Note_off_c, 13, 53, 0
14, 24792, Note_on_c, 13, 51, 49
14, 24810, Note_off_c, 13, 68, 0
14, 24810, Note_off_c, 13, 74, 0
14, 24813, Note_off_c, 13, 51, 0
14, 24816, Note_on_c, 13, 68, 49
14, 24816, Note_on_c, 13, 74, 49
14, 24816, Note_on_c, 13, 53, 49
14, 24837, Note_off_c, 13, 53, 0
14, 24840, Note_on_c, 13, 55, 49
14, 24858, Note_off_c, 13, 68, 0
14, 24858, Note_off_c, 13, 74, 0
14, 24861, Note_off_c, 13, 55, 0
14, 24864, Note_on_c, 13, 74, 49
14, 24864, Note_on_c, 13, 77, 49
14, 24864, Note_on_c, 13, 56, 49
14, 24885, Note_off_c, 13, 56, 0
14, 24888, Note_on_c, 13, 58, 49
14, 24906, Note_off_c, 13, 74, 0
14, 24906, Note_off_c, 13, 77, 0
14, 24909, Note_off_c, 13, 58, 0
14, 24912, Note_on_c, 13, 67, 49
14, 24912, Note_on_c, 13, 70, 49
14, 24912, Note_on_c, 13, 51, 49
14, 24933, Note_off_c, 13, 51, 0
14, 24936, Note_on_c, 13, 50, 49
14, 24954, Note_off_c, 13, 67, 0
14, 24954, Note_off_c, 13, 70, 0
14, 24957, Note_off_c, 13, 50, 0
14, 24960, Note_on_c, 13, 67, 49
14, 24960, Note_on_c, 13, 72, 49
14, 24960, Note_on_c, 13, 51, 49
14, 24981, Note_off_c, 13, 51, 0
14, 24984, Note_on_c, 13, 50, 49
14, 25002, Note_off_c, 13, 67, 0
14, 25002, Note_off_c, 13, 72, 0
14, 25005, Note_off_c, 13, 50, 0
14, 25008, Note_on_c, 13, 72, 49
14, 25008, Note_on_c, 13, 79, 49
14, 25008, Note_on_c, 13, 51, 49
14, 25029, Note_off_c, 13, 51, 0
14, 25032, Note_on_c, 13, 53, 49
14, 25050, Note_off_c, 13, 72, 0
14, 25050, Note_off_c, 13, 79, 0
14, 25053, Note_off_c, 13, 53, 0
14, 25056, Note_on_c, 13, 60, 49
14, 25056, Note_on_c, 13, 74, 49
14, 25056, Note_on_c, 13, 55, 49
14, 25077, Note_off_c, 13, 55, 0
14, 25080, Note_on_c, 13, 57, 49
14, 25098, Note_off_c, 13, 60, 0
14, 25098, Note_off_c, 13, 74, 0
14, 25101, Note_off_c, 13, 57, 0
14, 25104, Note_on_c, 13, 62, 49
14, 25104, Note_on_c, 13, 69, 49
14, 25104, Note_on_c, 13, 50, 49
14, 25125, Note_off_c, 13, 50, 0
14, 25128, Note_on_c, 13, 48, 49
14, 25146, Note_off_c, 13, 62, 0
14, 25146, Note_off_c, 13, 69, 0
14, 25149, Note_off_c, 13, 48, 0
14, 25152, Note_on_c, 13, 65, 49
14, 25152, Note_on_c, 13, 72, 49
14, 25152, Note_on_c, 13, 50, 49
14, 25173, Note_off_c, 13, 50, 0
14, 25176, Note_on_c, 13, 48, 49
14, 25194, Note_off_c, 13, 65, 0
14, 25194, Note_off_c, 13, 72, 0
14, 25197, Note_off_c, 13, 48, 0
14, 25200, Note_on_c, 13, 65, 49
14, 25200, Note_on_c, 13, 70, 49
14, 25200, Note_on_c, 13, 50, 49
14, 25221, Note_off_c, 13, 50, 0
14, 25224, Note_on_c, 13, 51, 49
14, 25242, Note_off_c, 13, 65, 0
14, 25242, Note_off_c, 13, 70, 0
14, 25245, Note_off_c, 13, 51, 0
14, 25248, Note_on_c, 13, 53, 49
14, 25290, Note_off_c, 13, 53, 0
14, 25296, Note_on_c, 13, 48, 49
14, 25338, Note_off_c, 13, 48, 0
14, 25344, Note_on_c, 13, 65, 49
14, 25344, Note_on_c, 13, 69, 49
14, 25344, Note_on_c, 13, 72, 49
14, 25344, Note_on_c, 13, 45, 49
14, 25386, Note_off_c, 13, 45, 0
14, 25392, Note_on_c, 13, 41, 49
14, 25434, Note_off_c, 13, 41, 0
14, 25440, Note_on_c, 13, 46, 49
14, 25461, Note_off_c, 13, 46, 0
14, 25464, Note_on_c, 13, 53, 49
14, 25482, Note_off_c, 13, 65, 0
14, 25482, Note_off_c, 13, 69, 0
14, 25482, Note_off_c, 13, 72, 0
14, 25485, Note_off_c, 13, 53, 0
14, 25488, Note_on_c, 13, 65, 49
14, 25488, Note_on_c, 13, 74, 49
14, 25488, Note_on_c, 13, 58, 49
14, 25509, Note_off_c, 13, 58, 0
14, 25512, Note_on_c, 13, 57, 49
14, 25530, Note_off_c, 13, 65, 0
14, 25530, Note_off_c, 13, 74, 0
14, 25533, Note_off_c, 13, 57, 0
14, 25536, Note_on_c, 13, 65, 49
14, 25536, Note_on_c, 13, 74, 49
14, 25536, Note_on_c, 13, 58, 49
14, 25557, Note_off_c, 13, 58, 0
14, 25560, Note_on_c, 13, 57, 49
14, 25578, Note_off_c, 13, 65, 0
14, 25578, Note_off_c, 13, 74, 0
14, 25581, Note_off_c, 13, 57, 0
14, 25584, Note_on_c, 13, 65, 49
14, 25584, Note_on_c, 13, 74, 49
14, 25584, Note_on_c, 13, 58, 49
14, 25605, Note_off_c, 13, 58, 0
14, 25608, Note_on_c, 13, 57, 49
14, 25626, Note_off_c, 13, 65, 0
14, 25626, Note_off_c, 13, 74, 0
14, 25629, Note_off_c, 13, 57, 0
14, 25632, Note_on_c, 13, 67, 49
14, 25632, Note_on_c, 13, 70, 49
14, 25632, Note_on_c, 13, 74, 49
14, 25632, Note_on_c, 13, 55, 49
14, 25674, Note_off_c, 13, 55, 0
14, 25680, Note_on_c, 13, 50, 49
14, 25722, Note_off_c, 13, 50, 0
14, 25728, Note_on_c, 13, 46, 49
14, 25770, Note_off_c, 13, 46, 0
14, 25776, Note_on_c, 13, 43, 49
14, 25818, Note_off_c, 13, 43, 0
14, 25824, Note_on_c, 13, 48, 49
14, 25845, Note_off_c, 13, 48, 0
14, 25848, Note_on_c, 13, 55, 49
14, 25866, Note_off_c, 13, 67, 0
14, 25866, Note_off_c, 13, 70, 0
14, 25866, Note_off_c, 13, 74, 0
14, 25869, Note_off_c, 13, 55, 0
14, 25872, Note_on_c, 13, 67, 49
14, 25872, Note_on_c, 13, 76, 49
14, 25872, Note_on_c, 13, 60, 49
14, 25893, Note_off_c, 13, 60, 0
14, 25896, Note_on_c, 13, 58, 49
14, 25914, Note_off_c, 13, 67, 0
14, 25914, Note_off_c, 13, 76, 0
14, 25917, Note_off_c, 13, 58, 0
14, 25920, Note_on_c, 13, 67, 49
14, 25920, Note_on_c, 13, 76, 49
14, 25920, Note_on_c, 13, 60, 49
14, 25941, Note_off_c, 13, 60, 0
14, 25944, Note_on_c, 13, 58, 49
14, 25962, Note_off_c, 13, 67, 0
14, 25962, Note_off_c, 13, 76, 0
14, 25965, Note_off_c, 13, 58, 0
14, 25968, Note_on_c, 13, 67, 49
14, 25968, Note_on_c, 13, 76, 49
14, 25968, Note_on_c, 13, 60, 49
14, 25989, Note_off_c, 13, 60, 0
14, 25992, Note_on_c, 13, 58, 49
14, 26010, Note_off_c, 13, 67, 0
14, 26010, Note_off_c, 13, 76, 0
14, 26013, Note_off_c, 13, 58, 0
14, 26016, Note_on_c, 13, 69, 49
14, 26016, Note_on_c, 13, 72, 49
14, 26016, Note_on_c, 13, 76, 49
14, 26016, Note_on_c, 13, 57, 49
14, 26058, Note_off_c, 13, 57, 0
14, 26064, Note_on_c, 13, 52, 49
14, 26106, Note_off_c, 13, 52, 0
14, 26112, Note_on_c, 13, 48, 49
14, 26154, Note_off_c, 13, 48, 0
14, 26160, Note_on_c, 13, 45, 49
14, 26202, Note_off_c, 13, 45, 0
14, 26208, Note_on_c, 13, 50, 49
14, 26229, Note_off_c, 13, 50, 0
14, 26232, Note_on_c, 13, 57, 49
14, 26250, Note_off_c, 13, 69, 0
14, 26250, Note_off_c, 13, 72, 0
14, 26250, Note_off_c, 13, 76, 0
14, 26253, Note_off_c, 13, 57, 0
14, 26256, Note_on_c, 13, 69, 49
14, 26256, Note_on_c, 13, 77, 49
14, 26256, Note_on_c, 13, 62, 49
14, 26277, Note_off_c, 13, 62, 0
14, 26280, Note_on_c, 13, 60, 49
14, 26298, Note_off_c, 13, 69, 0
14, 26298, Note_off_c, 13, 77, 0
14, 26301, Note_off_c, 13, 60, 0
14, 26304, Note_on_c, 13, 69, 49
14, 26304, Note_on_c, 13, 77, 49
14, 26304, Note_on_c, 13, 62, 49
14, 26325, Note_off_c, 13, 62, 0
14, 26328, Note_on_c, 13, 60, 49
14, 26346, Note_off_c, 13, 69, 0
14, 26346, Note_off_c, 13, 77, 0
14, 26349, Note_off_c, 13, 60, 0
14, 26352, Note_on_c, 13, 69, 49
14, 26352, Note_on_c, 13, 77, 49
14, 26352, Note_on_c, 13, 62, 49
14, 26373, Note_off_c, 13, 62, 0
14, 26376, Note_on_c, 13, 60, 49
14, 26394, Note_off_c, 13, 69, 0
14, 26394, Note_off_c, 13, 77, 0
14, 26397, Note_off_c, 13, 60, 0
14, 26400, Note_on_c, 13, 65, 49
14, 26400, Note_on_c, 13, 74, 49
14, 26400, Note_on_c, 13, 59, 49
14, 26442, Note_off_c, 13, 65, 0
14, 26442, Note_off_c, 13, 74, 0
14, 26442, Note_off_c, 13, 59, 0
14, 26448, Note_on_c, 13, 56, 49
14, 26490, Note_off_c, 13, 56, 0
14, 26496, Note_on_c, 13, 53, 49
14, 26538, Note_off_c, 13, 53, 0
14, 26544, Note_on_c, 13, 50, 49
14, 26586, Note_off_c, 13, 50, 0
14, 26592, Note_on_c, 13, 47, 49
14, 26634, Note_off_c, 13, 47, 0
14, 26640, Note_on_c, 13, 53, 49
14, 26682, Note_off_c, 13, 53, 0
14, 26688, Note_on_c, 13, 50, 49
14, 26730, Note_off_c, 13, 50, 0
14, 26736, Note_on_c, 13, 47, 49
14, 26778, Note_off_c, 13, 47, 0
14, 26784, Note_on_c, 13, 43, 49
14, 26826, Note_off_c, 13, 43, 0
14, 26832, Note_on_c, 13, 50, 49
14, 26874, Note_off_c, 13, 50, 0
14, 26880, Note_on_c, 13, 47, 49
14, 26922, Note_off_c, 13, 47, 0
14, 26928, Note_on_c, 13, 43, 49
14, 26970, Note_off_c, 13, 43, 0
14, 26976, Note_on_c, 13, 64, 49
14, 26976, Note_on_c, 13, 67, 49
14, 26976, Note_on_c, 13, 72, 49
14, 26976, Note_on_c, 13, 58, 49
14, 27060, Note_off_c, 13, 64, 0
14, 27060, Note_off_c, 13, 67, 0
14, 27060, Note_off_c, 13, 72, 0
14, 27060, Note_off_c, 13, 58, 0
14, 27120, Note_on_c, 13, 64, 49
14, 27120, Note_on_c, 13, 67, 49
14, 27120, Note_on_c, 13, 72, 49
14, 27120, Note_on_c, 13, 46, 49
14, 27162, Note_off_c, 13, 64, 0
14, 27162, Note_off_c, 13, 67, 0
14, 27162, Note_off_c, 13, 72, 0
14, 27162, Note_off_c, 13, 46, 0
14, 27168, Note_on_c, 13, 65, 49
14, 27168, Note_on_c, 13, 72, 49
14, 27168, Note_on_c, 13, 45, 49
14, 27210, Note_off_c, 13, 65, 0
14, 27210, Note_off_c, 13, 72, 0
14, 27210, Note_off_c, 13, 45, 0
14, 27216, Note_on_c, 13, 65, 49
14, 27216, Note_on_c, 13, 74, 49
14, 27216, Note_on_c, 13, 46, 49
14, 27258, Note_off_c, 13, 65, 0
14, 27258, Note_off_c, 13, 74, 0
14, 27258, Note_off_c, 13, 46, 0
14, 27264, Note_on_c, 13, 67, 49
14, 27264, Note_on_c, 13, 76, 49
14, 27264, Note_on_c, 13, 48, 49
14, 27306, Note_off_c, 13, 67, 0
14, 27306, Note_off_c, 13, 76, 0
14, 27306, Note_off_c, 13, 48, 0
14, 27312, Note_on_c, 13, 67, 49
14, 27312, Note_on_c, 13, 76, 49
14, 27312, Note_on_c, 13, 36, 49
14, 27354, Note_off_c, 13, 67, 0
14, 27354, Note_off_c, 13, 76, 0
14, 27354, Note_off_c, 13, 36, 0
14, 27360, Note_on_c, 13, 69, 49
14, 27360, Note_on_c, 13, 72, 49
14, 27360, Note_on_c, 13, 77, 49
14, 27360, Note_on_c, 13, 41, 49
14, 27444, Note_off_c, 13, 69, 0
14, 27444, Note_off_c, 13, 72, 0
14, 27444, Note_off_c, 13, 77, 0
14, 27444, Note_off_c, 13, 41, 0
14, 27504, Note_on_c, 13, 67, 49
14, 27504, Note_on_c, 13, 76, 49
14, 27504, Note_on_c, 13, 48, 49
14, 27546, Note_off_c, 13, 67, 0
14, 27546, Note_off_c, 13, 76, 0
14, 27546, Note_off_c, 13, 48, 0
14, 27552, Note_on_c, 13, 69, 49
14, 27552, Note_on_c, 13, 77, 49
14, 27552, Note_on_c, 13, 50, 49
14, 27594, Note_off_c, 13, 69, 0
14, 27594, Note_off_c, 13, 77, 0
14, 27594, Note_off_c, 13, 50, 0
14, 27600, Note_on_c, 13, 65, 49
14, 27600, Note_on_c, 13, 72, 49
14, 27600, Note_on_c, 13, 45, 49
14, 27642, Note_off_c, 13, 65, 0
14, 27642, Note_off_c, 13, 72, 0
14, 27642, Note_off_c, 13, 45, 0
14, 27648, Note_on_c, 13, 65, 49
14, 27648, Note_on_c, 13, 74, 49
14, 27648, Note_on_c, 13, 46, 49
14, 27690, Note_off_c, 13, 65, 0
14, 27690, Note_off_c, 13, 74, 0
14, 27690, Note_off_c, 13, 46, 0
14, 27696, Note_on_c, 13, 67, 49
14, 27696, Note_on_c, 13, 76, 49
14, 27696, Note_on_c, 13, 48, 49
14, 27738, Note_off_c, 13, 67, 0
14, 27738, Note_off_c, 13, 76, 0
14, 27738, Note_off_c, 13, 48, 0
14, 27744, Note_on_c, 13, 69, 49
14, 27744, Note_on_c, 13, 72, 49
14, 27744, Note_on_c, 13, 41, 49
14, 27786, Note_off_c, 13, 69, 0
14, 27786, Note_off_c, 13, 72, 0
14, 27786, Note_off_c, 13, 41, 0
14, 27792, Note_on_c, 13, 69, 49
14, 27792, Note_on_c, 13, 72, 49
14, 27792, Note_on_c, 13, 53, 49
14, 27813, Note_off_c, 13, 53, 0
14, 27816, Note_on_c, 13, 52, 49
14, 27834, Note_off_c, 13, 69, 0
14, 27834, Note_off_c, 13, 72, 0
14, 27837, Note_off_c, 13, 52, 0
14, 27840, Note_on_c, 13, 69, 49
14, 27840, Note_on_c, 13, 72, 49
14, 27840, Note_on_c, 13, 53, 49
14, 27861, Note_off_c, 13, 53, 0
14, 27864, Note_on_c, 13, 52, 49
14, 27882, Note_off_c, 13, 69, 0
14, 27882, Note_off_c, 13, 72, 0
14, 27885, Note_off_c, 13, 52, 0
14, 27888, Note_on_c, 13, 69, 49
14, 27888, Note_on_c, 13, 72, 49
14, 27888, Note_on_c, 13, 53, 49
14, 27909, Note_off_c, 13, 53, 0
14, 27912, Note_on_c, 13, 50, 49
14, 27930, Note_off_c, 13, 69, 0
14, 27930, Note_off_c, 13, 72, 0
14, 27933, Note_off_c, 13, 50, 0
14, 27936, Note_on_c, 13, 67, 49
14, 27936, Note_on_c, 13, 72, 49
14, 27936, Note_on_c, 13, 52, 49
14, 27978, Note_off_c, 13, 67, 0
14, 27978, Note_off_c, 13, 72, 0
14, 27978, Note_off_c, 13, 52, 0
14, 27984, Note_on_c, 13, 67, 49
14, 27984, Note_on_c, 13, 76, 49
14, 27984, Note_on_c, 13, 48, 49
14, 28026, Note_off_c, 13, 67, 0
14, 28026, Note_off_c, 13, 76, 0
14, 28026, Note_off_c, 13, 48, 0
14, 28032, Note_on_c, 13, 67, 49
14, 28032, Note_on_c, 13, 74, 49
14, 28032, Note_on_c, 13, 50, 49
14, 28074, Note_off_c, 13, 67, 0
14, 28074, Note_off_c, 13, 74, 0
14, 28074, Note_off_c, 13, 50, 0
14, 28080, Note_on_c, 13, 71, 49
14, 28080, Note_on_c, 13, 74, 49
14, 28080, Note_on_c, 13, 43, 49
14, 28122, Note_off_c, 13, 71, 0
14, 28122, Note_off_c, 13, 74, 0
14, 28122, Note_off_c, 13, 43, 0
14, 28128, Note_on_c, 13, 67, 49
14, 28128, Note_on_c, 13, 76, 49
14, 28128, Note_on_c, 13, 48, 49
14, 28170, Note_off_c, 13, 67, 0
14, 28170, Note_off_c, 13, 76, 0
14, 28170, Note_off_c, 13, 48, 0
14, 28176, Note_on_c, 13, 67, 49
14, 28176, Note_on_c, 13, 72, 49
14, 28176, Note_on_c, 13, 52, 49
14, 28218, Note_off_c, 13, 67, 0
14, 28218, Note_off_c, 13, 72, 0
14, 28218, Note_off_c, 13, 52, 0
14, 28224, Note_on_c, 13, 67, 49
14, 28224, Note_on_c, 13, 76, 49
14, 28224, Note_on_c, 13, 48, 49
14, 28266, Note_off_c, 13, 67, 0
14, 28266, Note_off_c, 13, 76, 0
14, 28266, Note_off_c, 13, 48, 0
14, 28272, Note_on_c, 13, 67, 49
14, 28272, Note_on_c, 13, 74, 49
14, 28272, Note_on_c, 13, 47, 49
14, 28314, Note_off_c, 13, 67, 0
14, 28314, Note_off_c, 13, 74, 0
14, 28314, Note_off_c, 13, 47, 0
14, 28320, Note_on_c, 13, 64, 49
14, 28320, Note_on_c, 13, 72, 49
14, 28320, Note_on_c, 13, 45, 49
14, 28362, Note_off_c, 13, 64, 0
14, 28362, Note_off_c, 13, 72, 0
14, 28362, Note_off_c, 13, 45, 0
14, 28368, Note_on_c, 13, 65, 49
14, 28368, Note_on_c, 13, 69, 49
14, 28368, Note_on_c, 13, 50, 49
14, 28410, Note_off_c, 13, 65, 0
14, 28410, Note_off_c, 13, 69, 0
14, 28410, Note_off_c, 13, 50, 0
14, 28416, Note_on_c, 13, 65, 49
14, 28416, Note_on_c, 13, 74, 49
14, 28416, Note_on_c, 13, 47, 49
14, 28458, Note_off_c, 13, 65, 0
14, 28458, Note_off_c, 13, 74, 0
14, 28458, Note_off_c, 13, 47, 0
14, 28464, Note_on_c, 13, 69, 49
14, 28464, Note_on_c, 13, 72, 49
14, 28464, Note_on_c, 13, 45, 49
14, 28506, Note_off_c, 13, 69, 0
14, 28506, Note_off_c, 13, 72, 0
14, 28506, Note_off_c, 13, 45, 0
14, 28512, Note_on_c, 13, 62, 49
14, 28512, Note_on_c, 13, 71, 49
14, 28512, Note_on_c, 13, 43, 49
14, 28554, Note_off_c, 13, 62, 0
14, 28554, Note_off_c, 13, 71, 0
14, 28554, Note_off_c, 13, 43, 0
14, 28560, Note_on_c, 13, 67, 49
14, 28560, Note_on_c, 13, 76, 49
14, 28560, Note_on_c, 13, 48, 49
14, 28602, Note_off_c, 13, 67, 0
14, 28602, Note_off_c, 13, 76, 0
14, 28602, Note_off_c, 13, 48, 0
14, 28608, Note_on_c, 13, 65, 49
14, 28608, Note_on_c, 13, 72, 49
14, 28608, Note_on_c, 13, 45, 49
14, 28650, Note_off_c, 13, 65, 0
14, 28650, Note_off_c, 13, 72, 0
14, 28650, Note_off_c, 13, 45, 0
14, 28656, Note_on_c, 13, 70, 49
14, 28656, Note_on_c, 13, 43, 49
14, 28698, Note_off_c, 13, 70, 0
14, 28698, Note_off_c, 13, 43, 0
14, 28704, Note_on_c, 13, 69, 49
14, 28704, Note_on_c, 13, 72, 49
14, 28704, Note_on_c, 13, 41, 49
14, 28788, Note_off_c, 13, 69, 0
14, 28788, Note_off_c, 13, 72, 0
14, 28788, Note_off_c, 13, 41, 0
14, 28848, Note_on_c, 13, 69, 49
14, 28848, Note_on_c, 13, 74, 49
14, 28848, Note_on_c, 13, 53, 49
14, 28890, Note_off_c, 13, 69, 0
14, 28890, Note_off_c, 13, 74, 0
14, 28896, Note_on_c, 13, 62, 49
14, 28896, Note_on_c, 13, 71, 49
14, 28917, Note_off_c, 13, 53, 0
14, 28920, Note_on_c, 13, 55, 49
14, 28941, Note_off_c, 13, 55, 0
14, 28944, Note_on_c, 13, 53, 49
14, 28965, Note_off_c, 13, 53, 0
14, 28968, Note_on_c, 13, 52, 49
14, 28980, Note_off_c, 13, 62, 0
14, 28980, Note_off_c, 13, 71, 0
14, 28989, Note_off_c, 13, 52, 0
14, 28992, Note_on_c, 13, 50, 49
14, 29013, Note_off_c, 13, 50, 0
14, 29016, Note_on_c, 13, 48, 49
14, 29037, Note_off_c, 13, 48, 0
14, 29040, Note_on_c, 13, 47, 49
14, 29061, Note_off_c, 13, 47, 0
14, 29064, Note_on_c, 13, 45, 49
14, 29085, Note_off_c, 13, 45, 0
14, 29088, Note_on_c, 13, 43, 49
14, 29130, Note_off_c, 13, 43, 0
14, 29136, Note_on_c, 13, 67, 49
14, 29136, Note_on_c, 13, 76, 49
14, 29136, Note_on_c, 13, 48, 49
14, 29178, Note_off_c, 13, 67, 0
14, 29178, Note_off_c, 13, 76, 0
14, 29178, Note_off_c, 13, 48, 0
14, 29184, Note_on_c, 13, 71, 49
14, 29184, Note_on_c, 13, 74, 49
14, 29184, Note_on_c, 13, 55, 49
14, 29226, Note_off_c, 13, 71, 0
14, 29226, Note_off_c, 13, 74, 0
14, 29226, Note_off_c, 13, 55, 0
14, 29232, Note_on_c, 13, 62, 49
14, 29232, Note_on_c, 13, 71, 49
14, 29232, Note_on_c, 13, 43, 49
14, 29274, Note_off_c, 13, 62, 0
14, 29274, Note_off_c, 13, 71, 0
14, 29274, Note_off_c, 13, 43, 0
14, 29280, Note_on_c, 13, 67, 49
14, 29280, Note_on_c, 13, 76, 49
14, 29280, Note_on_c, 13, 48, 49
14, 29322, Note_off_c, 13, 67, 0
14, 29322, Note_off_c, 13, 76, 0
14, 29322, Note_off_c, 13, 48, 0
14, 29520, Note_on_c, 13, 66, 49
14, 29520, Note_on_c, 13, 74, 49
14, 29520, Note_on_c, 13, 50, 49
14, 29562, Note_off_c, 13, 66, 0
14, 29562, Note_off_c, 13, 74, 0
14, 29562, Note_off_c, 13, 50, 0
14, 29568, Note_on_c, 13, 67, 49
14, 29568, Note_on_c, 13, 74, 49
14, 29568, Note_on_c, 13, 52, 49
14, 29610, Note_off_c, 13, 67, 0
14, 29610, Note_off_c, 13, 74, 0
14, 29610, Note_off_c, 13, 52, 0
14, 29616, Note_on_c, 13, 69, 49
14, 29616, Note_on_c, 13, 74, 49
14, 29616, Note_on_c, 13, 54, 49
14, 29658, Note_off_c, 13, 69, 0
14, 29658, Note_off_c, 13, 74, 0
14, 29658, Note_off_c, 13, 54, 0
14, 29664, Note_on_c, 13, 62, 49
14, 29664, Note_on_c, 13, 70, 49
14, 29664, Note_on_c, 13, 55, 49
14, 29706, Note_off_c, 13, 62, 0
14, 29706, Note_off_c, 13, 70, 0
14, 29706, Note_off_c, 13, 55, 0
14, 29904, Note_on_c, 13, 69, 49
14, 29904, Note_on_c, 13, 72, 49
14, 29904, Note_on_c, 13, 45, 49
14, 29946, Note_off_c, 13, 69, 0
14, 29946, Note_off_c, 13, 72, 0
14, 29946, Note_off_c, 13, 45, 0
14, 29952, Note_on_c, 13, 70, 49
14, 29952, Note_on_c, 13, 74, 49
14, 29952, Note_on_c, 13, 46, 49
14, 29994, Note_off_c, 13, 70, 0
14, 29994, Note_off_c, 13, 74, 0
14, 29994, Note_off_c, 13, 46, 0
14, 30000, Note_on_c, 13, 69, 49
14, 30000, Note_on_c, 13, 76, 49
14, 30000, Note_on_c, 13, 48, 49
14, 30042, Note_off_c, 13, 69, 0
14, 30042, Note_off_c, 13, 76, 0
14, 30042, Note_off_c, 13, 48, 0
14, 30048, Note_on_c, 13, 65, 49
14, 30048, Note_on_c, 13, 74, 49
14, 30048, Note_on_c, 13, 50, 49
14, 30090, Note_off_c, 13, 65, 0
14, 30090, Note_off_c, 13, 74, 0
14, 30090, Note_off_c, 13, 50, 0
14, 30096, Note_on_c, 13, 62, 49
14, 30096, Note_on_c, 13, 70, 49
14, 30096, Note_on_c, 13, 43, 49
14, 30138, Note_off_c, 13, 62, 0
14, 30138, Note_off_c, 13, 70, 0
14, 30138, Note_off_c, 13, 43, 0
14, 30144, Note_on_c, 13, 65, 49
14, 30144, Note_on_c, 13, 72, 49
14, 30144, Note_on_c, 13, 45, 49
14, 30186, Note_off_c, 13, 65, 0
14, 30186, Note_off_c, 13, 72, 0
14, 30186, Note_off_c, 13, 45, 0
14, 30192, Note_on_c, 13, 67, 49
14, 30192, Note_on_c, 13, 74, 49
14, 30192, Note_on_c, 13, 46, 49
14, 30234, Note_off_c, 13, 67, 0
14, 30234, Note_off_c, 13, 74, 0
14, 30234, Note_off_c, 13, 46, 0
14, 30240, Note_on_c, 13, 67, 49
14, 30240, Note_on_c, 13, 76, 49
14, 30240, Note_on_c, 13, 48, 49
14, 30282, Note_off_c, 13, 67, 0
14, 30282, Note_off_c, 13, 76, 0
14, 30282, Note_off_c, 13, 48, 0
14, 30288, Note_on_c, 13, 67, 49
14, 30288, Note_on_c, 13, 76, 49
14, 30288, Note_on_c, 13, 36, 49
14, 30330, Note_off_c, 13, 67, 0
14, 30330, Note_off_c, 13, 76, 0
14, 30330, Note_off_c, 13, 36, 0
14, 30480, Note_on_c, 13, 64, 49
14, 30480, Note_on_c, 13, 69, 49
14, 30480, Note_on_c, 13, 48, 49
14, 30522, Note_off_c, 13, 64, 0
14, 30522, Note_off_c, 13, 69, 0
14, 30522, Note_off_c, 13, 48, 0
14, 30528, Note_on_c, 13, 65, 49
14, 30528, Note_on_c, 13, 69, 49
14, 30528, Note_on_c, 13, 50, 49
14, 30570, Note_off_c, 13, 65, 0
14, 30570, Note_off_c, 13, 69, 0
14, 30570, Note_off_c, 13, 50, 0
14, 30576, Note_on_c, 13, 67, 49
14, 30576, Note_on_c, 13, 52, 49
14, 30618, Note_off_c, 13, 67, 0
14, 30618, Note_off_c, 13, 52, 0
14, 30624, Note_on_c, 13, 60, 49
14, 30624, Note_on_c, 13, 69, 49
14, 30624, Note_on_c, 13, 53, 49
14, 30666, Note_off_c, 13, 60, 0
14, 30666, Note_off_c, 13, 69, 0
14, 30666, Note_off_c, 13, 53, 0
14, 30672, Note_on_c, 13, 60, 49
14, 30672, Note_on_c, 13, 69, 49
14, 30672, Note_on_c, 13, 41, 49
14, 30714, Note_off_c, 13, 60, 0
14, 30714, Note_off_c, 13, 69, 0
14, 30714, Note_off_c, 13, 41, 0
14, 30864, Note_on_c, 13, 62, 49
14, 30864, Note_on_c, 13, 69, 49
14, 30864, Note_on_c, 13, 53, 49
14, 30906, Note_off_c, 13, 62, 0
14, 30906, Note_off_c, 13, 69, 0
14, 30906, Note_off_c, 13, 53, 0
14, 30912, Note_on_c, 13, 62, 49
14, 30912, Note_on_c, 13, 70, 49
14, 30912, Note_on_c, 13, 55, 49
14, 30954, Note_off_c, 13, 62, 0
14, 30954, Note_off_c, 13, 70, 0
14, 30954, Note_off_c, 13, 55, 0
14, 30960, Note_on_c, 13, 65, 49
14, 30960, Note_on_c, 13, 72, 49
14, 30960, Note_on_c, 13, 57, 49
14, 31002, Note_off_c, 13, 65, 0
14, 31002, Note_off_c, 13, 72, 0
14, 31002, Note_off_c, 13, 57, 0
14, 31008, Note_on_c, 13, 65, 49
14, 31008, Note_on_c, 13, 74, 49
14, 31008, Note_on_c, 13, 58, 49
14, 31029, Note_off_c, 13, 58, 0
14, 31032, Note_on_c, 13, 46, 49
14, 31050, Note_off_c, 13, 65, 0
14, 31050, Note_off_c, 13, 74, 0
14, 31053, Note_off_c, 13, 46, 0
14, 31056, Note_on_c, 13, 67, 49
14, 31056, Note_on_c, 13, 74, 49
14, 31056, Note_on_c, 13, 58, 49
14, 31077, Note_off_c, 13, 58, 0
14, 31080, Note_on_c, 13, 57, 49
14, 31098, Note_off_c, 13, 67, 0
14, 31098, Note_off_c, 13, 74, 0
14, 31101, Note_off_c, 13, 57, 0
14, 31104, Note_on_c, 13, 67, 49
14, 31104, Note_on_c, 13, 74, 49
14, 31104, Note_on_c, 13, 58, 49
14, 31125, Note_off_c, 13, 58, 0
14, 31128, Note_on_c, 13, 57, 49
14, 31146, Note_off_c, 13, 67, 0
14, 31146, Note_off_c, 13, 74, 0
14, 31149, Note_off_c, 13, 57, 0
14, 31152, Note_on_c, 13, 67, 49
14, 31152, Note_on_c, 13, 74, 49
14, 31152, Note_on_c, 13, 58, 49
14, 31173, Note_off_c, 13, 58, 0
14, 31176, Note_on_c, 13, 57, 49
14, 31194, Note_off_c, 13, 67, 0
14, 31194, Note_off_c, 13, 74, 0
14, 31197, Note_off_c, 13, 57, 0
14, 31200, Note_on_c, 13, 67, 49
14, 31200, Note_on_c, 13, 74, 49
14, 31200, Note_on_c, 13, 58, 49
14, 31221, Note_off_c, 13, 58, 0
14, 31224, Note_on_c, 13, 60, 49
14, 31242, Note_off_c, 13, 67, 0
14, 31242, Note_off_c, 13, 74, 0
14, 31245, Note_off_c, 13, 60, 0
14, 31248, Note_on_c, 13, 67, 49
14, 31248, Note_on_c, 13, 74, 49
14, 31248, Note_on_c, 13, 58, 49
14, 31269, Note_off_c, 13, 58, 0
14, 31272, Note_on_c, 13, 57, 49
14, 31290, Note_off_c, 13, 67, 0
14, 31290, Note_off_c, 13, 74, 0
14, 31293, Note_off_c, 13, 57, 0
14, 31296, Note_on_c, 13, 64, 49
14, 31296, Note_on_c, 13, 70, 49
14, 31296, Note_on_c, 13, 55, 49
14, 31317, Note_off_c, 13, 55, 0
14, 31320, Note_on_c, 13, 53, 49
14, 31338, Note_off_c, 13, 64, 0
14, 31338, Note_off_c, 13, 70, 0
14, 31341, Note_off_c, 13, 53, 0
14, 31344, Note_on_c, 13, 67, 49
14, 31344, Note_on_c, 13, 70, 49
14, 31344, Note_on_c, 13, 52, 49
14, 31365, Note_off_c, 13, 52, 0
14, 31368, Note_on_c, 13, 50, 49
14, 31386, Note_off_c, 13, 67, 0
14, 31386, Note_off_c, 13, 70, 0
14, 31389, Note_off_c, 13, 50, 0
14, 31392, Note_on_c, 13, 64, 49
14, 31392, Note_on_c, 13, 67, 49
14, 31392, Note_on_c, 13, 48, 49
14, 31434, Note_off_c, 13, 64, 0
14, 31434, Note_off_c, 13, 67, 0
14, 31434, Note_off_c, 13, 48, 0
14, 31440, Note_on_c, 13, 60, 49
14, 31440, Note_on_c, 13, 69, 49
14, 31440, Note_on_c, 13, 53, 49
14, 31482, Note_off_c, 13, 60, 0
14, 31482, Note_off_c, 13, 69, 0
14, 31482, Note_off_c, 13, 53, 0
14, 31488, Note_on_c, 13, 64, 49
14, 31488, Note_on_c, 13, 67, 49
14, 31488, Note_on_c, 13, 60, 49
14, 31530, Note_off_c, 13, 64, 0
14, 31530, Note_off_c, 13, 67, 0
14, 31530, Note_off_c, 13, 60, 0
14, 31536, Note_on_c, 13, 64, 49
14, 31536, Note_on_c, 13, 67, 49
14, 31536, Note_on_c, 13, 48, 49
14, 31578, Note_off_c, 13, 64, 0
14, 31578, Note_off_c, 13, 67, 0
14, 31578, Note_off_c, 13, 48, 0
14, 31584, Note_on_c, 13, 69, 49
14, 31584, Note_on_c, 13, 77, 49
14, 31584, Note_on_c, 13, 50, 49
14, 31605, Note_off_c, 13, 50, 0
14, 31608, Note_on_c, 13, 48, 49
14, 31626, Note_off_c, 13, 69, 0
14, 31626, Note_off_c, 13, 77, 0
14, 31629, Note_off_c, 13, 48, 0
14, 31632, Note_on_c, 13, 69, 49
14, 31632, Note_on_c, 13, 77, 49
14, 31632, Note_on_c, 13, 50, 49
14, 31653, Note_off_c, 13, 50, 0
14, 31656, Note_on_c, 13, 48, 49
14, 31674, Note_off_c, 13, 69, 0
14, 31674, Note_off_c, 13, 77, 0
14, 31677, Note_off_c, 13, 48, 0
14, 31680, Note_on_c, 13, 65, 49
14, 31680, Note_on_c, 13, 74, 49
14, 31680, Note_on_c, 13, 46, 49
14, 31701, Note_off_c, 13, 46, 0
14, 31704, Note_on_c, 13, 45, 49
14, 31722, Note_off_c, 13, 65, 0
14, 31722, Note_off_c, 13, 74, 0
14, 31725, Note_off_c, 13, 45, 0
14, 31728, Note_on_c, 13, 65, 49
14, 31728, Note_on_c, 13, 74, 49
14, 31728, Note_on_c, 13, 46, 49
14, 31749, Note_off_c, 13, 46, 0
14, 31752, Note_on_c, 13, 45, 49
14, 31770, Note_off_c, 13, 65, 0
14, 31770, Note_off_c, 13, 74, 0
14, 31773, Note_off_c, 13, 45, 0
14, 31776, Note_on_c, 13, 70, 49
14, 31776, Note_on_c, 13, 74, 49
14, 31776, Note_on_c, 13, 43, 49
14, 31818, Note_off_c, 13, 70, 0
14, 31818, Note_off_c, 13, 74, 0
14, 31818, Note_off_c, 13, 43, 0
14, 31824, Note_on_c, 13, 69, 49
14, 31824, Note_on_c, 13, 72, 49
14, 31824, Note_on_c, 13, 41, 49
14, 31866, Note_off_c, 13, 69, 0
14, 31866, Note_off_c, 13, 72, 0
14, 31866, Note_off_c, 13, 41, 0
14, 31872, Note_on_c, 13, 65, 49
14, 31872, Note_on_c, 13, 72, 49
14, 31872, Note_on_c, 13, 48, 49
14, 31914, Note_off_c, 13, 65, 0
14, 31914, Note_off_c, 13, 72, 0
14, 31914, Note_off_c, 13, 48, 0
14, 31920, Note_on_c, 13, 65, 49
14, 31920, Note_on_c, 13, 72, 49
14, 31920, Note_on_c, 13, 36, 49
14, 31962, Note_off_c, 13, 65, 0
14, 31962, Note_off_c, 13, 72, 0
14, 31962, Note_off_c, 13, 36, 0
14, 31968, Note_on_c, 13, 60, 49
14, 31968, Note_on_c, 13, 69, 49
14, 31968, Note_on_c, 13, 41, 49
14, 32010, Note_off_c, 13, 60, 0
14, 32010, Note_off_c, 13, 69, 0
14, 32010, Note_off_c, 13, 41, 0
14, 32016, Note_on_c, 13, 60, 49
14, 32016, Note_on_c, 13, 69, 49
14, 32016, Note_on_c, 13, 41, 49
14, 32037, Note_off_c, 13, 60, 0
14, 32037, Note_off_c, 13, 69, 0
14, 32037, Note_off_c, 13, 41, 0
14, 32040, Note_on_c, 13, 60, 49
14, 32040, Note_on_c, 13, 69, 49
14, 32040, Note_on_c, 13, 41, 49
14, 32061, Note_off_c, 13, 60, 0
14, 32061, Note_off_c, 13, 69, 0
14, 32061, Note_off_c, 13, 41, 0
14, 32064, Note_on_c, 13, 60, 49
14, 32064, Note_on_c, 13, 69, 49
14, 32064, Note_on_c, 13, 41, 49
14, 32085, Note_off_c, 13, 60, 0
14, 32085, Note_off_c, 13, 69, 0
14, 32085, Note_off_c, 13, 41, 0
14, 32088, Note_on_c, 13, 60, 49
14, 32088, Note_on_c, 13, 69, 49
14, 32088, Note_on_c, 13, 41, 49
14, 32109, Note_off_c, 13, 60, 0
14, 32109, Note_off_c, 13, 69, 0
14, 32109, Note_off_c, 13, 41, 0
14, 32112, Note_on_c, 13, 60, 49
14, 32112, Note_on_c, 13, 69, 49
14, 32112, Note_on_c, 13, 41, 49
14, 32133, Note_off_c, 13, 60, 0
14, 32133, Note_off_c, 13, 69, 0
14, 32133, Note_off_c, 13, 41, 0
14, 32136, Note_on_c, 13, 60, 49
14, 32136, Note_on_c, 13, 69, 49
14, 32136, Note_on_c, 13, 41, 49
14, 32157, Note_off_c, 13, 60, 0
14, 32157, Note_off_c, 13, 69, 0
14, 32157, Note_off_c, 13, 41, 0
14, 32160, Note_on_c, 13, 60, 49
14, 32160, Note_on_c, 13, 69, 49
14, 32160, Note_on_c, 13, 41, 49
14, 32340, Note_off_c, 13, 41, 0
14, 32340, Note_off_c, 13, 60, 0
14, 32340, Note_off_c, 13, 69, 0
14, 32340, End_track
0, 0, End_of_file
