0, 0, Header, 1, 14, 96
1, 0, Start_track
1, 0, Time_signature, 6, 2, 96, 8
1, 0, Tempo, 600000
1, 96, Tempo, 600000
1, 23424, Tempo, 1500000
1, 23616, Time_signature, 2, 2, 96, 8
1, 23808, Time_signature, 6, 2, 96, 8
1, 23904, Tempo, 600000
1, 35376, Tempo, 750000
1, 35376, End_track
2, 0, Start_track
2, 0, Title_t, "Corno I"
2, 0, Control_c, 0, 0, 0
2, 0, Program_c, 0, 60
2, 0, Time_signature, 6, 2, 96, 8
2, 0, Tempo, 600000
2, 96, Tempo, 600000
2, 96, Note_on_c, 0, 65, 127
2, 117, Note_off_c, 0, 65, 0
2, 120, Note_on_c, 0, 67, 127
2, 141, Note_off_c, 0, 67, 0
2, 144, Note_on_c, 0, 65, 127
2, 165, Note_off_c, 0, 65, 0
2, 168, Note_on_c, 0, 67, 127
2, 189, Note_off_c, 0, 67, 0
2, 192, Note_on_c, 0, 69, 127
2, 213, Note_off_c, 0, 69, 0
2, 216, Note_on_c, 0, 67, 127
2, 237, Note_off_c, 0, 67, 0
2, 240, Note_on_c, 0, 65, 127
2, 282, Note_off_c, 0, 65, 0
2, 384, Note_on_c, 0, 67, 127
2, 405, Note_off_c, 0, 67, 0
2, 408, Note_on_c, 0, 69, 127
2, 429, Note_off_c, 0, 69, 0
2, 432, Note_on_c, 0, 67, 127
2, 453, Note_off_c, 0, 67, 0
2, 456, Note_on_c, 0, 69, 127
2, 477, Note_off_c, 0, 69, 0
2, 480, Note_on_c, 0, 70, 127
2, 501, Note_off_c, 0, 70, 0
2, 504, Note_on_c, 0, 69, 127
2, 525, Note_off_c, 0, 69, 0
2, 528, Note_on_c, 0, 67, 127
2, 570, Note_off_c, 0, 67, 0
2, 672, Note_on_c, 0, 69, 127
2, 693, Note_off_c, 0, 69, 0
2, 696, Note_on_c, 0, 70, 127
2, 717, Note_off_c, 0, 70, 0
2, 720, Note_on_c, 0, 69, 127
2, 741, Note_off_c, 0, 69, 0
2, 744, Note_on_c, 0, 70, 127
2, 765, Note_off_c, 0, 70, 0
2, 768, Note_on_c, 0, 72, 127
2, 789, Note_off_c, 0, 72, 0
2, 792, Note_on_c, 0, 70, 127
2, 813, Note_off_c, 0, 70, 0
2, 816, Note_on_c, 0, 69, 127
2, 837, Note_off_c, 0, 69, 0
2, 840, Note_on_c, 0, 70, 127
2, 861, Note_off_c, 0, 70, 0
2, 864, Note_on_c, 0, 69, 127
2, 885, Note_off_c, 0, 69, 0
2, 888, Note_on_c, 0, 70, 127
2, 909, Note_off_c, 0, 70, 0
2, 912, Note_on_c, 0, 72, 127
2, 954, Note_off_c, 0, 72, 0
2, 960, Note_on_c, 0, 67, 127
2, 1002, Note_off_c, 0, 67, 0
2, 1008, Note_on_c, 0, 67, 127
2, 1029, Note_off_c, 0, 67, 0
2, 1032, Note_on_c, 0, 67, 127
2, 1053, Note_off_c, 0, 67, 0
2, 1056, Note_on_c, 0, 67, 127
2, 1077, Note_off_c, 0, 67, 0
2, 1080, Note_on_c, 0, 67, 127
2, 1101, Note_off_c, 0, 67, 0
2, 1104, Note_on_c, 0, 67, 127
2, 1146, Note_off_c, 0, 67, 0
2, 2112, Note_on_c, 0, 70, 127
2, 2133, Note_off_c, 0, 70, 0
2, 2136, Note_on_c, 0, 72, 127
2, 2157, Note_off_c, 0, 72, 0
2, 2160, Note_on_c, 0, 70, 127
2, 2181, Note_off_c, 0, 70, 0
2, 2184, Note_on_c, 0, 72, 127
2, 2205, Note_off_c, 0, 72, 0
2, 2208, Note_on_c, 0, 74, 127
2, 2229, Note_off_c, 0, 74, 0
2, 2232, Note_on_c, 0, 72, 127
2, 2253, Note_off_c, 0, 72, 0
2, 2256, Note_on_c, 0, 70, 127
2, 2298, Note_off_c, 0, 70, 0
2, 2304, Note_on_c, 0, 70, 127
2, 2346, Note_off_c, 0, 70, 0
2, 2352, Note_on_c, 0, 70, 127
2, 2394, Note_off_c, 0, 70, 0
2, 2400, Note_on_c, 0, 70, 127
2, 2421, Note_off_c, 0, 70, 0
2, 2424, Note_on_c, 0, 72, 127
2, 2445, Note_off_c, 0, 72, 0
2, 2448, Note_on_c, 0, 70, 127
2, 2469, Note_off_c, 0, 70, 0
2, 2472, Note_on_c, 0, 72, 127
2, 2493, Note_off_c, 0, 72, 0
2, 2496, Note_on_c, 0, 74, 127
2, 2517, Note_off_c, 0, 74, 0
2, 2520, Note_on_c, 0, 72, 127
2, 2541, Note_off_c, 0, 72, 0
2, 2544, Note_on_c, 0, 70, 127
2, 2586, Note_off_c, 0, 70, 0
2, 2592, Note_on_c, 0, 70, 127
2, 2634, Note_off_c, 0, 70, 0
2, 2640, Note_on_c, 0, 70, 127
2, 2682, Note_off_c, 0, 70, 0
2, 2688, Note_on_c, 0, 69, 127
2, 2709, Note_off_c, 0, 69, 0
2, 2712, Note_on_c, 0, 70, 127
2, 2733, Note_off_c, 0, 70, 0
2, 2736, Note_on_c, 0, 69, 127
2, 2757, Note_off_c, 0, 69, 0
2, 2760, Note_on_c, 0, 70, 127
2, 2781, Note_off_c, 0, 70, 0
2, 2784, Note_on_c, 0, 72, 127
2, 2805, Note_off_c, 0, 72, 0
2, 2808, Note_on_c, 0, 70, 127
2, 2829, Note_off_c, 0, 70, 0
2, 2832, Note_on_c, 0, 69, 127
2, 2874, Note_off_c, 0, 69, 0
2, 2880, Note_on_c, 0, 69, 127
2, 2922, Note_off_c, 0, 69, 0
2, 2928, Note_on_c, 0, 69, 127
2, 2970, Note_off_c, 0, 69, 0
2, 2976, Note_on_c, 0, 69, 127
2, 2997, Note_off_c, 0, 69, 0
2, 3000, Note_on_c, 0, 70, 127
2, 3021, Note_off_c, 0, 70, 0
2, 3024, Note_on_c, 0, 69, 127
2, 3045, Note_off_c, 0, 69, 0
2, 3048, Note_on_c, 0, 70, 127
2, 3069, Note_off_c, 0, 70, 0
2, 3072, Note_on_c, 0, 72, 127
2, 3093, Note_off_c, 0, 72, 0
2, 3096, Note_on_c, 0, 70, 127
2, 3117, Note_off_c, 0, 70, 0
2, 3120, Note_on_c, 0, 69, 127
2, 3162, Note_off_c, 0, 69, 0
2, 3168, Note_on_c, 0, 67, 127
2, 3189, Note_off_c, 0, 67, 0
2, 3192, Note_on_c, 0, 69, 127
2, 3213, Note_off_c, 0, 69, 0
2, 3216, Note_on_c, 0, 70, 127
2, 3237, Note_off_c, 0, 70, 0
2, 3240, Note_on_c, 0, 69, 127
2, 3261, Note_off_c, 0, 69, 0
2, 3264, Note_on_c, 0, 67, 127
2, 3306, Note_off_c, 0, 67, 0
2, 3312, Note_on_c, 0, 60, 127
2, 3333, Note_off_c, 0, 60, 0
2, 3336, Note_on_c, 0, 60, 127
2, 3357, Note_off_c, 0, 60, 0
2, 3360, Note_on_c, 0, 60, 127
2, 3381, Note_off_c, 0, 60, 0
2, 3384, Note_on_c, 0, 60, 127
2, 3405, Note_off_c, 0, 60, 0
2, 3408, Note_on_c, 0, 60, 127
2, 3450, Note_off_c, 0, 60, 0
2, 3552, Note_on_c, 0, 70, 127
2, 3594, Note_off_c, 0, 70, 0
2, 3600, Note_on_c, 0, 60, 127
2, 3621, Note_off_c, 0, 60, 0
2, 3624, Note_on_c, 0, 60, 127
2, 3645, Note_off_c, 0, 60, 0
2, 3648, Note_on_c, 0, 60, 127
2, 3669, Note_off_c, 0, 60, 0
2, 3672, Note_on_c, 0, 60, 127
2, 3693, Note_off_c, 0, 60, 0
2, 3696, Note_on_c, 0, 60, 127
2, 3738, Note_off_c, 0, 60, 0
2, 3840, Note_on_c, 0, 69, 127
2, 3861, Note_off_c, 0, 69, 0
2, 3864, Note_on_c, 0, 70, 127
2, 3885, Note_off_c, 0, 70, 0
2, 3888, Note_on_c, 0, 69, 127
2, 3909, Note_off_c, 0, 69, 0
2, 3912, Note_on_c, 0, 70, 127
2, 3933, Note_off_c, 0, 70, 0
2, 3936, Note_on_c, 0, 72, 127
2, 3957, Note_off_c, 0, 72, 0
2, 3960, Note_on_c, 0, 70, 127
2, 3981, Note_off_c, 0, 70, 0
2, 3984, Note_on_c, 0, 69, 127
2, 4026, Note_off_c, 0, 69, 0
2, 4032, Note_on_c, 0, 67, 127
2, 4053, Note_off_c, 0, 67, 0
2, 4056, Note_on_c, 0, 65, 127
2, 4077, Note_off_c, 0, 65, 0
2, 4080, Note_on_c, 0, 67, 127
2, 4101, Note_off_c, 0, 67, 0
2, 4104, Note_on_c, 0, 69, 127
2, 4125, Note_off_c, 0, 69, 0
2, 4128, Note_on_c, 0, 65, 127
2, 4149, Note_off_c, 0, 65, 0
2, 4152, Note_on_c, 0, 67, 127
2, 4173, Note_off_c, 0, 67, 0
2, 4176, Note_on_c, 0, 65, 127
2, 4197, Note_off_c, 0, 65, 0
2, 4200, Note_on_c, 0, 67, 127
2, 4221, Note_off_c, 0, 67, 0
2, 4224, Note_on_c, 0, 69, 127
2, 4245, Note_off_c, 0, 69, 0
2, 4248, Note_on_c, 0, 67, 127
2, 4269, Note_off_c, 0, 67, 0
2, 4272, Note_on_c, 0, 65, 127
2, 4314, Note_off_c, 0, 65, 0
2, 4416, Note_on_c, 0, 65, 127
2, 4437, Note_off_c, 0, 65, 0
2, 4440, Note_on_c, 0, 67, 127
2, 4461, Note_off_c, 0, 67, 0
2, 4464, Note_on_c, 0, 65, 127
2, 4485, Note_off_c, 0, 65, 0
2, 4488, Note_on_c, 0, 67, 127
2, 4509, Note_off_c, 0, 67, 0
2, 4512, Note_on_c, 0, 69, 127
2, 4533, Note_off_c, 0, 69, 0
2, 4536, Note_on_c, 0, 67, 127
2, 4557, Note_off_c, 0, 67, 0
2, 4560, Note_on_c, 0, 65, 127
2, 4602, Note_off_c, 0, 65, 0
2, 4608, Note_on_c, 0, 60, 127
2, 4629, Note_off_c, 0, 60, 0
2, 4632, Note_on_c, 0, 60, 127
2, 4653, Note_off_c, 0, 60, 0
2, 4656, Note_on_c, 0, 60, 127
2, 4677, Note_off_c, 0, 60, 0
2, 4680, Note_on_c, 0, 60, 127
2, 4701, Note_off_c, 0, 60, 0
2, 4704, Note_on_c, 0, 57, 127
2, 4746, Note_off_c, 0, 57, 0
2, 4752, Note_on_c, 0, 57, 127
2, 4773, Note_off_c, 0, 57, 0
2, 4776, Note_on_c, 0, 57, 127
2, 4797, Note_off_c, 0, 57, 0
2, 4800, Note_on_c, 0, 57, 127
2, 4821, Note_off_c, 0, 57, 0
2, 4824, Note_on_c, 0, 57, 127
2, 4845, Note_off_c, 0, 57, 0
2, 4848, Note_on_c, 0, 57, 127
2, 4932, Note_off_c, 0, 57, 0
2, 5760, Note_on_c, 0, 72, 127
2, 5781, Note_off_c, 0, 72, 0
2, 5784, Note_on_c, 0, 70, 127
2, 5805, Note_off_c, 0, 70, 0
2, 5808, Note_on_c, 0, 69, 127
2, 5829, Note_off_c, 0, 69, 0
2, 5832, Note_on_c, 0, 67, 127
2, 5853, Note_off_c, 0, 67, 0
2, 5856, Note_on_c, 0, 65, 127
2, 5877, Note_off_c, 0, 65, 0
2, 5880, Note_on_c, 0, 67, 127
2, 5901, Note_off_c, 0, 67, 0
2, 5904, Note_on_c, 0, 65, 127
2, 5925, Note_off_c, 0, 65, 0
2, 5928, Note_on_c, 0, 67, 127
2, 5949, Note_off_c, 0, 67, 0
2, 5952, Note_on_c, 0, 69, 127
2, 5973, Note_off_c, 0, 69, 0
2, 5976, Note_on_c, 0, 67, 127
2, 5997, Note_off_c, 0, 67, 0
2, 6000, Note_on_c, 0, 65, 127
2, 6042, Note_off_c, 0, 65, 0
2, 6144, Note_on_c, 0, 67, 127
2, 6165, Note_off_c, 0, 67, 0
2, 6168, Note_on_c, 0, 69, 127
2, 6189, Note_off_c, 0, 69, 0
2, 6192, Note_on_c, 0, 67, 127
2, 6213, Note_off_c, 0, 67, 0
2, 6216, Note_on_c, 0, 69, 127
2, 6237, Note_off_c, 0, 69, 0
2, 6240, Note_on_c, 0, 70, 127
2, 6261, Note_off_c, 0, 70, 0
2, 6264, Note_on_c, 0, 69, 127
2, 6285, Note_off_c, 0, 69, 0
2, 6288, Note_on_c, 0, 67, 127
2, 6330, Note_off_c, 0, 67, 0
2, 6432, Note_on_c, 0, 69, 127
2, 6453, Note_off_c, 0, 69, 0
2, 6456, Note_on_c, 0, 70, 127
2, 6477, Note_off_c, 0, 70, 0
2, 6480, Note_on_c, 0, 69, 127
2, 6501, Note_off_c, 0, 69, 0
2, 6504, Note_on_c, 0, 70, 127
2, 6525, Note_off_c, 0, 70, 0
2, 6528, Note_on_c, 0, 72, 127
2, 6549, Note_off_c, 0, 72, 0
2, 6552, Note_on_c, 0, 70, 127
2, 6573, Note_off_c, 0, 70, 0
2, 6576, Note_on_c, 0, 69, 127
2, 6597, Note_off_c, 0, 69, 0
2, 6600, Note_on_c, 0, 70, 127
2, 6621, Note_off_c, 0, 70, 0
2, 6624, Note_on_c, 0, 69, 127
2, 6645, Note_off_c, 0, 69, 0
2, 6648, Note_on_c, 0, 70, 127
2, 6669, Note_off_c, 0, 70, 0
2, 6672, Note_on_c, 0, 72, 127
2, 6714, Note_off_c, 0, 72, 0
2, 6720, Note_on_c, 0, 67, 127
2, 6762, Note_off_c, 0, 67, 0
2, 6768, Note_on_c, 0, 67, 127
2, 6789, Note_off_c, 0, 67, 0
2, 6792, Note_on_c, 0, 67, 127
2, 6813, Note_off_c, 0, 67, 0
2, 6816, Note_on_c, 0, 67, 127
2, 6837, Note_off_c, 0, 67, 0
2, 6840, Note_on_c, 0, 67, 127
2, 6861, Note_off_c, 0, 67, 0
2, 6864, Note_on_c, 0, 67, 127
2, 6906, Note_off_c, 0, 67, 0
2, 7776, Note_on_c, 0, 67, 127
2, 7818, Note_off_c, 0, 67, 0
2, 7824, Note_on_c, 0, 67, 127
2, 7866, Note_off_c, 0, 67, 0
2, 7872, Note_on_c, 0, 67, 127
2, 7914, Note_off_c, 0, 67, 0
2, 7920, Note_on_c, 0, 67, 127
2, 7962, Note_off_c, 0, 67, 0
2, 7968, Note_on_c, 0, 67, 127
2, 8010, Note_off_c, 0, 67, 0
2, 8016, Note_on_c, 0, 67, 127
2, 8058, Note_off_c, 0, 67, 0
2, 8064, Note_on_c, 0, 67, 127
2, 8106, Note_off_c, 0, 67, 0
2, 8112, Note_on_c, 0, 67, 127
2, 8154, Note_off_c, 0, 67, 0
2, 8160, Note_on_c, 0, 67, 127
2, 8202, Note_off_c, 0, 67, 0
2, 8208, Note_on_c, 0, 67, 127
2, 8250, Note_off_c, 0, 67, 0
2, 8256, Note_on_c, 0, 67, 127
2, 8298, Note_off_c, 0, 67, 0
2, 8304, Note_on_c, 0, 67, 127
2, 8346, Note_off_c, 0, 67, 0
2, 8352, Note_on_c, 0, 67, 127
2, 8394, Note_off_c, 0, 67, 0
2, 8400, Note_on_c, 0, 67, 127
2, 8442, Note_off_c, 0, 67, 0
2, 8448, Note_on_c, 0, 67, 127
2, 8490, Note_off_c, 0, 67, 0
2, 8496, Note_on_c, 0, 67, 127
2, 8538, Note_off_c, 0, 67, 0
2, 8544, Note_on_c, 0, 67, 127
2, 8586, Note_off_c, 0, 67, 0
2, 8592, Note_on_c, 0, 67, 127
2, 8613, Note_off_c, 0, 67, 0
2, 8616, Note_on_c, 0, 69, 127
2, 8637, Note_off_c, 0, 69, 0
2, 8640, Note_on_c, 0, 67, 127
2, 8661, Note_off_c, 0, 67, 0
2, 8664, Note_on_c, 0, 65, 127
2, 8685, Note_off_c, 0, 65, 0
2, 8688, Note_on_c, 0, 67, 127
2, 8709, Note_off_c, 0, 67, 0
2, 8712, Note_on_c, 0, 60, 127
2, 8733, Note_off_c, 0, 60, 0
2, 8736, Note_on_c, 0, 69, 127
2, 8778, Note_off_c, 0, 69, 0
2, 8784, Note_on_c, 0, 69, 127
2, 8826, Note_off_c, 0, 69, 0
2, 8832, Note_on_c, 0, 69, 127
2, 8874, Note_off_c, 0, 69, 0
2, 8880, Note_on_c, 0, 69, 127
2, 8901, Note_off_c, 0, 69, 0
2, 8904, Note_on_c, 0, 70, 127
2, 8925, Note_off_c, 0, 70, 0
2, 8928, Note_on_c, 0, 69, 127
2, 8949, Note_off_c, 0, 69, 0
2, 8952, Note_on_c, 0, 67, 127
2, 8973, Note_off_c, 0, 67, 0
2, 8976, Note_on_c, 0, 69, 127
2, 8997, Note_off_c, 0, 69, 0
2, 9000, Note_on_c, 0, 65, 127
2, 9021, Note_off_c, 0, 65, 0
2, 9024, Note_on_c, 0, 71, 127
2, 9066, Note_off_c, 0, 71, 0
2, 9072, Note_on_c, 0, 71, 127
2, 9114, Note_off_c, 0, 71, 0
2, 9120, Note_on_c, 0, 71, 127
2, 9162, Note_off_c, 0, 71, 0
2, 9168, Note_on_c, 0, 71, 127
2, 9189, Note_off_c, 0, 71, 0
2, 9192, Note_on_c, 0, 72, 127
2, 9213, Note_off_c, 0, 72, 0
2, 9216, Note_on_c, 0, 71, 127
2, 9237, Note_off_c, 0, 71, 0
2, 9240, Note_on_c, 0, 69, 127
2, 9261, Note_off_c, 0, 69, 0
2, 9264, Note_on_c, 0, 71, 127
2, 9285, Note_off_c, 0, 71, 0
2, 9288, Note_on_c, 0, 67, 127
2, 9309, Note_off_c, 0, 67, 0
2, 9312, Note_on_c, 0, 72, 127
2, 9354, Note_off_c, 0, 72, 0
2, 9360, Note_on_c, 0, 72, 127
2, 9402, Note_off_c, 0, 72, 0
2, 9408, Note_on_c, 0, 72, 127
2, 9450, Note_off_c, 0, 72, 0
2, 9456, Note_on_c, 0, 72, 127
2, 9477, Note_off_c, 0, 72, 0
2, 9480, Note_on_c, 0, 74, 127
2, 9501, Note_off_c, 0, 74, 0
2, 9504, Note_on_c, 0, 72, 127
2, 9525, Note_off_c, 0, 72, 0
2, 9528, Note_on_c, 0, 71, 127
2, 9549, Note_off_c, 0, 71, 0
2, 9552, Note_on_c, 0, 72, 127
2, 9573, Note_off_c, 0, 72, 0
2, 9576, Note_on_c, 0, 69, 127
2, 9597, Note_off_c, 0, 69, 0
2, 9600, Note_on_c, 0, 71, 127
2, 9621, Note_off_c, 0, 71, 0
2, 9624, Note_on_c, 0, 72, 127
2, 9645, Note_off_c, 0, 72, 0
2, 9648, Note_on_c, 0, 71, 127
2, 9669, Note_off_c, 0, 71, 0
2, 9672, Note_on_c, 0, 69, 127
2, 9693, Note_off_c, 0, 69, 0
2, 9696, Note_on_c, 0, 67, 127
2, 9717, Note_off_c, 0, 67, 0
2, 9720, Note_on_c, 0, 69, 127
2, 9741, Note_off_c, 0, 69, 0
2, 9744, Note_on_c, 0, 71, 127
2, 9765, Note_off_c, 0, 71, 0
2, 9768, Note_on_c, 0, 72, 127
2, 9789, Note_off_c, 0, 72, 0
2, 9792, Note_on_c, 0, 74, 127
2, 9813, Note_off_c, 0, 74, 0
2, 9816, Note_on_c, 0, 72, 127
2, 9837, Note_off_c, 0, 72, 0
2, 9840, Note_on_c, 0, 74, 127
2, 9861, Note_off_c, 0, 74, 0
2, 9864, Note_on_c, 0, 71, 127
2, 9885, Note_off_c, 0, 71, 0
2, 9888, Note_on_c, 0, 72, 127
2, 9909, Note_off_c, 0, 72, 0
2, 9912, Note_on_c, 0, 74, 127
2, 9933, Note_off_c, 0, 74, 0
2, 9936, Note_on_c, 0, 72, 127
2, 9957, Note_off_c, 0, 72, 0
2, 9960, Note_on_c, 0, 74, 127
2, 9981, Note_off_c, 0, 74, 0
2, 9984, Note_on_c, 0, 76, 127
2, 10005, Note_off_c, 0, 76, 0
2, 10008, Note_on_c, 0, 74, 127
2, 10029, Note_off_c, 0, 74, 0
2, 10032, Note_on_c, 0, 72, 127
2, 10074, Note_off_c, 0, 72, 0
2, 10176, Note_on_c, 0, 74, 127
2, 10197, Note_off_c, 0, 74, 0
2, 10200, Note_on_c, 0, 76, 127
2, 10221, Note_off_c, 0, 76, 0
2, 10224, Note_on_c, 0, 74, 127
2, 10245, Note_off_c, 0, 74, 0
2, 10248, Note_on_c, 0, 76, 127
2, 10269, Note_off_c, 0, 76, 0
2, 10272, Note_on_c, 0, 77, 127
2, 10293, Note_off_c, 0, 77, 0
2, 10296, Note_on_c, 0, 76, 127
2, 10317, Note_off_c, 0, 76, 0
2, 10320, Note_on_c, 0, 74, 127
2, 10362, Note_off_c, 0, 74, 0
2, 10464, Note_on_c, 0, 76, 127
2, 10485, Note_off_c, 0, 76, 0
2, 10488, Note_on_c, 0, 77, 127
2, 10509, Note_off_c, 0, 77, 0
2, 10512, Note_on_c, 0, 76, 127
2, 10533, Note_off_c, 0, 76, 0
2, 10536, Note_on_c, 0, 74, 127
2, 10557, Note_off_c, 0, 74, 0
2, 10560, Note_on_c, 0, 76, 127
2, 10581, Note_off_c, 0, 76, 0
2, 10584, Note_on_c, 0, 72, 127
2, 10605, Note_off_c, 0, 72, 0
2, 10608, Note_on_c, 0, 74, 127
2, 10629, Note_off_c, 0, 74, 0
2, 10632, Note_on_c, 0, 76, 127
2, 10653, Note_off_c, 0, 76, 0
2, 10656, Note_on_c, 0, 77, 127
2, 10677, Note_off_c, 0, 77, 0
2, 10680, Note_on_c, 0, 76, 127
2, 10701, Note_off_c, 0, 76, 0
2, 10704, Note_on_c, 0, 74, 127
2, 10725, Note_off_c, 0, 74, 0
2, 10728, Note_on_c, 0, 72, 127
2, 10749, Note_off_c, 0, 72, 0
2, 10752, Note_on_c, 0, 74, 127
2, 10794, Note_off_c, 0, 74, 0
2, 10800, Note_on_c, 0, 74, 127
2, 10821, Note_off_c, 0, 74, 0
2, 10824, Note_on_c, 0, 74, 127
2, 10845, Note_off_c, 0, 74, 0
2, 10848, Note_on_c, 0, 74, 127
2, 10869, Note_off_c, 0, 74, 0
2, 10872, Note_on_c, 0, 74, 127
2, 10893, Note_off_c, 0, 74, 0
2, 10896, Note_on_c, 0, 74, 127
2, 10938, Note_off_c, 0, 74, 0
2, 15552, Note_on_c, 0, 57, 127
2, 15573, Note_off_c, 0, 57, 0
2, 15576, Note_on_c, 0, 57, 127
2, 15597, Note_off_c, 0, 57, 0
2, 15600, Note_on_c, 0, 57, 127
2, 15621, Note_off_c, 0, 57, 0
2, 15624, Note_on_c, 0, 57, 127
2, 15645, Note_off_c, 0, 57, 0
2, 15648, Note_on_c, 0, 57, 127
2, 15690, Note_off_c, 0, 57, 0
2, 17280, Note_on_c, 0, 77, 127
2, 17322, Note_off_c, 0, 77, 0
2, 17328, Note_on_c, 0, 77, 127
2, 17370, Note_off_c, 0, 77, 0
2, 17376, Note_on_c, 0, 77, 127
2, 17397, Note_off_c, 0, 77, 0
2, 17400, Note_on_c, 0, 76, 127
2, 17421, Note_off_c, 0, 76, 0
2, 17424, Note_on_c, 0, 74, 127
2, 17445, Note_off_c, 0, 74, 0
2, 17448, Note_on_c, 0, 72, 127
2, 17469, Note_off_c, 0, 72, 0
2, 17472, Note_on_c, 0, 74, 127
2, 17493, Note_off_c, 0, 74, 0
2, 17496, Note_on_c, 0, 71, 127
2, 17517, Note_off_c, 0, 71, 0
2, 17520, Note_on_c, 0, 76, 127
2, 17562, Note_off_c, 0, 76, 0
2, 17568, Note_on_c, 0, 76, 127
2, 17610, Note_off_c, 0, 76, 0
2, 17616, Note_on_c, 0, 76, 127
2, 17658, Note_off_c, 0, 76, 0
2, 17664, Note_on_c, 0, 76, 127
2, 17685, Note_off_c, 0, 76, 0
2, 17688, Note_on_c, 0, 74, 127
2, 17709, Note_off_c, 0, 74, 0
2, 17712, Note_on_c, 0, 72, 127
2, 17733, Note_off_c, 0, 72, 0
2, 17736, Note_on_c, 0, 71, 127
2, 17757, Note_off_c, 0, 71, 0
2, 17760, Note_on_c, 0, 72, 127
2, 17781, Note_off_c, 0, 72, 0
2, 17784, Note_on_c, 0, 69, 127
2, 17805, Note_off_c, 0, 69, 0
2, 17808, Note_on_c, 0, 74, 127
2, 17829, Note_off_c, 0, 74, 0
2, 17832, Note_on_c, 0, 77, 127
2, 17853, Note_off_c, 0, 77, 0
2, 17856, Note_on_c, 0, 76, 127
2, 17877, Note_off_c, 0, 76, 0
2, 17880, Note_on_c, 0, 74, 127
2, 17901, Note_off_c, 0, 74, 0
2, 17904, Note_on_c, 0, 72, 127
2, 17925, Note_off_c, 0, 72, 0
2, 17928, Note_on_c, 0, 71, 127
2, 17949, Note_off_c, 0, 71, 0
2, 17952, Note_on_c, 0, 72, 127
2, 17973, Note_off_c, 0, 72, 0
2, 17976, Note_on_c, 0, 74, 127
2, 17997, Note_off_c, 0, 74, 0
2, 18000, Note_on_c, 0, 72, 127
2, 18010, Note_off_c, 0, 72, 0
2, 18012, Note_on_c, 0, 71, 127
2, 18022, Note_off_c, 0, 71, 0
2, 18024, Note_on_c, 0, 72, 127
2, 18034, Note_off_c, 0, 72, 0
2, 18036, Note_on_c, 0, 71, 127
2, 18046, Note_off_c, 0, 71, 0
2, 18048, Note_on_c, 0, 72, 127
2, 18058, Note_off_c, 0, 72, 0
2, 18060, Note_on_c, 0, 71, 127
2, 18070, Note_off_c, 0, 71, 0
2, 18072, Note_on_c, 0, 69, 127
2, 18093, Note_off_c, 0, 69, 0
2, 18096, Note_on_c, 0, 69, 127
2, 18180, Note_off_c, 0, 69, 0
2, 20160, Note_on_c, 0, 77, 127
2, 20202, Note_off_c, 0, 77, 0
2, 20208, Note_on_c, 0, 77, 127
2, 20250, Note_off_c, 0, 77, 0
2, 20256, Note_on_c, 0, 77, 127
2, 20277, Note_off_c, 0, 77, 0
2, 20280, Note_on_c, 0, 76, 127
2, 20301, Note_off_c, 0, 76, 0
2, 20304, Note_on_c, 0, 74, 127
2, 20325, Note_off_c, 0, 74, 0
2, 20328, Note_on_c, 0, 72, 127
2, 20349, Note_off_c, 0, 72, 0
2, 20352, Note_on_c, 0, 74, 127
2, 20373, Note_off_c, 0, 74, 0
2, 20376, Note_on_c, 0, 70, 127
2, 20397, Note_off_c, 0, 70, 0
2, 20400, Note_on_c, 0, 76, 127
2, 20442, Note_off_c, 0, 76, 0
2, 20448, Note_on_c, 0, 77, 127
2, 20458, Note_off_c, 0, 77, 0
2, 20460, Note_on_c, 0, 76, 127
2, 20470, Note_off_c, 0, 76, 0
2, 20472, Note_on_c, 0, 77, 127
2, 20482, Note_off_c, 0, 77, 0
2, 20484, Note_on_c, 0, 76, 127
2, 20494, Note_off_c, 0, 76, 0
2, 20496, Note_on_c, 0, 77, 127
2, 20506, Note_off_c, 0, 77, 0
2, 20508, Note_on_c, 0, 76, 127
2, 20518, Note_off_c, 0, 76, 0
2, 20520, Note_on_c, 0, 74, 127
2, 20530, Note_off_c, 0, 74, 0
2, 20532, Note_on_c, 0, 76, 127
2, 20542, Note_off_c, 0, 76, 0
2, 20544, Note_on_c, 0, 77, 127
2, 20586, Note_off_c, 0, 77, 0
2, 21168, Note_on_c, 0, 65, 127
2, 21189, Note_off_c, 0, 65, 0
2, 21192, Note_on_c, 0, 65, 127
2, 21213, Note_off_c, 0, 65, 0
2, 21216, Note_on_c, 0, 65, 127
2, 21237, Note_off_c, 0, 65, 0
2, 21240, Note_on_c, 0, 65, 127
2, 21261, Note_off_c, 0, 65, 0
2, 21264, Note_on_c, 0, 65, 127
2, 21306, Note_off_c, 0, 65, 0
2, 23424, Tempo, 1500000
2, 23616, Time_signature, 2, 2, 96, 8
2, 23808, Time_signature, 6, 2, 96, 8
2, 23904, Tempo, 600000
2, 25056, Note_on_c, 0, 72, 127
2, 25077, Note_off_c, 0, 72, 0
2, 25080, Note_on_c, 0, 70, 127
2, 25101, Note_off_c, 0, 70, 0
2, 25104, Note_on_c, 0, 69, 127
2, 25125, Note_off_c, 0, 69, 0
2, 25128, Note_on_c, 0, 67, 127
2, 25149, Note_off_c, 0, 67, 0
2, 25152, Note_on_c, 0, 65, 127
2, 25173, Note_off_c, 0, 65, 0
2, 25176, Note_on_c, 0, 67, 127
2, 25197, Note_off_c, 0, 67, 0
2, 25200, Note_on_c, 0, 65, 127
2, 25221, Note_off_c, 0, 65, 0
2, 25224, Note_on_c, 0, 67, 127
2, 25245, Note_off_c, 0, 67, 0
2, 25248, Note_on_c, 0, 69, 127
2, 25269, Note_off_c, 0, 69, 0
2, 25272, Note_on_c, 0, 67, 127
2, 25293, Note_off_c, 0, 67, 0
2, 25296, Note_on_c, 0, 65, 127
2, 25338, Note_off_c, 0, 65, 0
2, 25440, Note_on_c, 0, 67, 127
2, 25461, Note_off_c, 0, 67, 0
2, 25464, Note_on_c, 0, 69, 127
2, 25485, Note_off_c, 0, 69, 0
2, 25488, Note_on_c, 0, 67, 127
2, 25509, Note_off_c, 0, 67, 0
2, 25512, Note_on_c, 0, 69, 127
2, 25533, Note_off_c, 0, 69, 0
2, 25536, Note_on_c, 0, 70, 127
2, 25557, Note_off_c, 0, 70, 0
2, 25560, Note_on_c, 0, 69, 127
2, 25581, Note_off_c, 0, 69, 0
2, 25584, Note_on_c, 0, 67, 127
2, 25626, Note_off_c, 0, 67, 0
2, 25728, Note_on_c, 0, 69, 127
2, 25749, Note_off_c, 0, 69, 0
2, 25752, Note_on_c, 0, 70, 127
2, 25773, Note_off_c, 0, 70, 0
2, 25776, Note_on_c, 0, 69, 127
2, 25797, Note_off_c, 0, 69, 0
2, 25800, Note_on_c, 0, 70, 127
2, 25821, Note_off_c, 0, 70, 0
2, 25824, Note_on_c, 0, 72, 127
2, 25845, Note_off_c, 0, 72, 0
2, 25848, Note_on_c, 0, 70, 127
2, 25869, Note_off_c, 0, 70, 0
2, 25872, Note_on_c, 0, 69, 127
2, 25893, Note_off_c, 0, 69, 0
2, 25896, Note_on_c, 0, 70, 127
2, 25917, Note_off_c, 0, 70, 0
2, 25920, Note_on_c, 0, 69, 127
2, 25941, Note_off_c, 0, 69, 0
2, 25944, Note_on_c, 0, 70, 127
2, 25965, Note_off_c, 0, 70, 0
2, 25968, Note_on_c, 0, 72, 127
2, 26010, Note_off_c, 0, 72, 0
2, 26016, Note_on_c, 0, 67, 127
2, 26058, Note_off_c, 0, 67, 0
2, 26064, Note_on_c, 0, 67, 127
2, 26085, Note_off_c, 0, 67, 0
2, 26088, Note_on_c, 0, 67, 127
2, 26109, Note_off_c, 0, 67, 0
2, 26112, Note_on_c, 0, 67, 127
2, 26133, Note_off_c, 0, 67, 0
2, 26136, Note_on_c, 0, 67, 127
2, 26157, Note_off_c, 0, 67, 0
2, 26160, Note_on_c, 0, 67, 127
2, 26202, Note_off_c, 0, 67, 0
2, 26208, Note_on_c, 0, 72, 127
2, 26229, Note_off_c, 0, 72, 0
2, 26232, Note_on_c, 0, 70, 127
2, 26253, Note_off_c, 0, 70, 0
2, 26256, Note_on_c, 0, 72, 127
2, 26277, Note_off_c, 0, 72, 0
2, 26280, Note_on_c, 0, 67, 127
2, 26301, Note_off_c, 0, 67, 0
2, 26304, Note_on_c, 0, 69, 127
2, 26346, Note_off_c, 0, 69, 0
2, 27216, Note_on_c, 0, 60, 127
2, 27258, Note_off_c, 0, 60, 0
2, 27264, Note_on_c, 0, 60, 127
2, 27306, Note_off_c, 0, 60, 0
2, 27312, Note_on_c, 0, 60, 127
2, 27354, Note_off_c, 0, 60, 0
2, 27360, Note_on_c, 0, 60, 127
2, 27402, Note_off_c, 0, 60, 0
2, 27408, Note_on_c, 0, 60, 127
2, 27450, Note_off_c, 0, 60, 0
2, 27456, Note_on_c, 0, 60, 127
2, 27498, Note_off_c, 0, 60, 0
2, 27504, Note_on_c, 0, 60, 127
2, 27546, Note_off_c, 0, 60, 0
2, 27552, Note_on_c, 0, 60, 127
2, 27594, Note_off_c, 0, 60, 0
2, 27600, Note_on_c, 0, 60, 127
2, 27642, Note_off_c, 0, 60, 0
2, 27648, Note_on_c, 0, 60, 127
2, 27690, Note_off_c, 0, 60, 0
2, 27696, Note_on_c, 0, 60, 127
2, 27738, Note_off_c, 0, 60, 0
2, 27744, Note_on_c, 0, 60, 127
2, 27786, Note_off_c, 0, 60, 0
2, 27792, Note_on_c, 0, 60, 127
2, 27834, Note_off_c, 0, 60, 0
2, 27840, Note_on_c, 0, 60, 127
2, 27882, Note_off_c, 0, 60, 0
2, 27888, Note_on_c, 0, 60, 127
2, 27930, Note_off_c, 0, 60, 0
2, 28080, Note_on_c, 0, 65, 127
2, 28122, Note_off_c, 0, 65, 0
2, 28128, Note_on_c, 0, 65, 127
2, 28170, Note_off_c, 0, 65, 0
2, 28176, Note_on_c, 0, 65, 127
2, 28218, Note_off_c, 0, 65, 0
2, 28224, Note_on_c, 0, 70, 127
2, 28245, Note_off_c, 0, 70, 0
2, 28248, Note_on_c, 0, 69, 127
2, 28269, Note_off_c, 0, 69, 0
2, 28272, Note_on_c, 0, 70, 127
2, 28293, Note_off_c, 0, 70, 0
2, 28296, Note_on_c, 0, 65, 127
2, 28317, Note_off_c, 0, 65, 0
2, 28320, Note_on_c, 0, 67, 127
2, 28362, Note_off_c, 0, 67, 0
2, 28368, Note_on_c, 0, 67, 127
2, 28410, Note_off_c, 0, 67, 0
2, 28416, Note_on_c, 0, 67, 127
2, 28458, Note_off_c, 0, 67, 0
2, 28464, Note_on_c, 0, 67, 127
2, 28506, Note_off_c, 0, 67, 0
2, 28512, Note_on_c, 0, 72, 127
2, 28533, Note_off_c, 0, 72, 0
2, 28536, Note_on_c, 0, 70, 127
2, 28557, Note_off_c, 0, 70, 0
2, 28560, Note_on_c, 0, 72, 127
2, 28581, Note_off_c, 0, 72, 0
2, 28584, Note_on_c, 0, 67, 127
2, 28605, Note_off_c, 0, 67, 0
2, 28608, Note_on_c, 0, 69, 127
2, 28650, Note_off_c, 0, 69, 0
2, 28656, Note_on_c, 0, 69, 127
2, 28698, Note_off_c, 0, 69, 0
2, 28704, Note_on_c, 0, 69, 127
2, 28746, Note_off_c, 0, 69, 0
2, 28752, Note_on_c, 0, 69, 127
2, 28794, Note_off_c, 0, 69, 0
2, 28800, Note_on_c, 0, 74, 127
2, 28821, Note_off_c, 0, 74, 0
2, 28824, Note_on_c, 0, 72, 127
2, 28845, Note_off_c, 0, 72, 0
2, 28848, Note_on_c, 0, 74, 127
2, 28869, Note_off_c, 0, 74, 0
2, 28872, Note_on_c, 0, 69, 127
2, 28893, Note_off_c, 0, 69, 0
2, 28896, Note_on_c, 0, 71, 127
2, 28938, Note_off_c, 0, 71, 0
2, 28944, Note_on_c, 0, 72, 127
2, 28954, Note_off_c, 0, 72, 0
2, 28956, Note_on_c, 0, 71, 127
2, 28966, Note_off_c, 0, 71, 0
2, 28968, Note_on_c, 0, 72, 127
2, 28978, Note_off_c, 0, 72, 0
2, 28980, Note_on_c, 0, 71, 127
2, 28990, Note_off_c, 0, 71, 0
2, 28992, Note_on_c, 0, 72, 127
2, 29002, Note_off_c, 0, 72, 0
2, 29004, Note_on_c, 0, 71, 127
2, 29014, Note_off_c, 0, 71, 0
2, 29016, Note_on_c, 0, 69, 127
2, 29026, Note_off_c, 0, 69, 0
2, 29028, Note_on_c, 0, 71, 127
2, 29038, Note_off_c, 0, 71, 0
2, 29040, Note_on_c, 0, 74, 127
2, 29050, Note_off_c, 0, 74, 0
2, 29052, Note_on_c, 0, 72, 127
2, 29062, Note_off_c, 0, 72, 0
2, 29064, Note_on_c, 0, 74, 127
2, 29074, Note_off_c, 0, 74, 0
2, 29076, Note_on_c, 0, 72, 127
2, 29086, Note_off_c, 0, 72, 0
2, 29088, Note_on_c, 0, 74, 127
2, 29098, Note_off_c, 0, 74, 0
2, 29100, Note_on_c, 0, 72, 127
2, 29110, Note_off_c, 0, 72, 0
2, 29112, Note_on_c, 0, 74, 127
2, 29122, Note_off_c, 0, 74, 0
2, 29124, Note_on_c, 0, 72, 127
2, 29134, Note_off_c, 0, 72, 0
2, 29136, Note_on_c, 0, 74, 127
2, 29146, Note_off_c, 0, 74, 0
2, 29148, Note_on_c, 0, 72, 127
2, 29158, Note_off_c, 0, 72, 0
2, 29160, Note_on_c, 0, 74, 127
2, 29170, Note_off_c, 0, 74, 0
2, 29172, Note_on_c, 0, 72, 127
2, 29182, Note_off_c, 0, 72, 0
2, 29184, Note_on_c, 0, 74, 127
2, 29194, Note_off_c, 0, 74, 0
2, 29196, Note_on_c, 0, 72, 127
2, 29206, Note_off_c, 0, 72, 0
2, 29208, Note_on_c, 0, 74, 127
2, 29218, Note_off_c, 0, 74, 0
2, 29220, Note_on_c, 0, 72, 127
2, 29230, Note_off_c, 0, 72, 0
2, 29232, Note_on_c, 0, 74, 127
2, 29242, Note_off_c, 0, 74, 0
2, 29244, Note_on_c, 0, 72, 127
2, 29254, Note_off_c, 0, 72, 0
2, 29256, Note_on_c, 0, 74, 127
2, 29266, Note_off_c, 0, 74, 0
2, 29268, Note_on_c, 0, 72, 127
2, 29278, Note_off_c, 0, 72, 0
2, 29280, Note_on_c, 0, 74, 127
2, 29290, Note_off_c, 0, 74, 0
2, 29292, Note_on_c, 0, 72, 127
2, 29302, Note_off_c, 0, 72, 0
2, 29304, Note_on_c, 0, 74, 127
2, 29314, Note_off_c, 0, 74, 0
2, 29316, Note_on_c, 0, 72, 127
2, 29326, Note_off_c, 0, 72, 0
2, 29328, Note_on_c, 0, 74, 127
2, 29338, Note_off_c, 0, 74, 0
2, 29340, Note_on_c, 0, 72, 127
2, 29350, Note_off_c, 0, 72, 0
2, 29352, Note_on_c, 0, 74, 127
2, 29362, Note_off_c, 0, 74, 0
2, 29364, Note_on_c, 0, 72, 127
2, 29374, Note_off_c, 0, 72, 0
2, 29376, Note_on_c, 0, 74, 127
2, 29386, Note_off_c, 0, 74, 0
2, 29388, Note_on_c, 0, 72, 127
2, 29398, Note_off_c, 0, 72, 0
2, 29400, Note_on_c, 0, 74, 127
2, 29410, Note_off_c, 0, 74, 0
2, 29412, Note_on_c, 0, 72, 127
2, 29422, Note_off_c, 0, 72, 0
2, 29424, Note_on_c, 0, 74, 127
2, 29434, Note_off_c, 0, 74, 0
2, 29436, Note_on_c, 0, 72, 127
2, 29446, Note_off_c, 0, 72, 0
2, 29448, Note_on_c, 0, 74, 127
2, 29458, Note_off_c, 0, 74, 0
2, 29460, Note_on_c, 0, 72, 127
2, 29470, Note_off_c, 0, 72, 0
2, 29472, Note_on_c, 0, 72, 127
2, 29514, Note_off_c, 0, 72, 0
2, 29520, Note_on_c, 0, 69, 127
2, 29562, Note_off_c, 0, 69, 0
2, 29568, Note_on_c, 0, 65, 127
2, 29610, Note_off_c, 0, 65, 0
2, 29616, Note_on_c, 0, 67, 127
2, 29637, Note_off_c, 0, 67, 0
2, 29640, Note_on_c, 0, 69, 127
2, 29661, Note_off_c, 0, 69, 0
2, 29664, Note_on_c, 0, 67, 127
2, 29685, Note_off_c, 0, 67, 0
2, 29688, Note_on_c, 0, 69, 127
2, 29709, Note_off_c, 0, 69, 0
2, 29712, Note_on_c, 0, 70, 127
2, 29733, Note_off_c, 0, 70, 0
2, 29736, Note_on_c, 0, 69, 127
2, 29757, Note_off_c, 0, 69, 0
2, 29760, Note_on_c, 0, 67, 127
2, 29802, Note_off_c, 0, 67, 0
2, 29904, Note_on_c, 0, 69, 127
2, 29925, Note_off_c, 0, 69, 0
2, 29928, Note_on_c, 0, 70, 127
2, 29949, Note_off_c, 0, 70, 0
2, 29952, Note_on_c, 0, 69, 127
2, 29973, Note_off_c, 0, 69, 0
2, 29976, Note_on_c, 0, 70, 127
2, 29997, Note_off_c, 0, 70, 0
2, 30000, Note_on_c, 0, 72, 127
2, 30021, Note_off_c, 0, 72, 0
2, 30024, Note_on_c, 0, 70, 127
2, 30045, Note_off_c, 0, 70, 0
2, 30048, Note_on_c, 0, 69, 127
2, 30069, Note_off_c, 0, 69, 0
2, 30072, Note_on_c, 0, 70, 127
2, 30093, Note_off_c, 0, 70, 0
2, 30096, Note_on_c, 0, 69, 127
2, 30117, Note_off_c, 0, 69, 0
2, 30120, Note_on_c, 0, 70, 127
2, 30141, Note_off_c, 0, 70, 0
2, 30144, Note_on_c, 0, 72, 127
2, 30186, Note_off_c, 0, 72, 0
2, 30192, Note_on_c, 0, 67, 127
2, 30234, Note_off_c, 0, 67, 0
2, 30240, Note_on_c, 0, 67, 127
2, 30261, Note_off_c, 0, 67, 0
2, 30264, Note_on_c, 0, 67, 127
2, 30285, Note_off_c, 0, 67, 0
2, 30288, Note_on_c, 0, 67, 127
2, 30309, Note_off_c, 0, 67, 0
2, 30312, Note_on_c, 0, 67, 127
2, 30333, Note_off_c, 0, 67, 0
2, 30336, Note_on_c, 0, 67, 127
2, 30378, Note_off_c, 0, 67, 0
2, 30912, Note_on_c, 0, 65, 127
2, 30933, Note_off_c, 0, 65, 0
2, 30936, Note_on_c, 0, 67, 127
2, 30957, Note_off_c, 0, 67, 0
2, 30960, Note_on_c, 0, 65, 127
2, 30981, Note_off_c, 0, 65, 0
2, 30984, Note_on_c, 0, 67, 127
2, 31005, Note_off_c, 0, 67, 0
2, 31008, Note_on_c, 0, 69, 127
2, 31029, Note_off_c, 0, 69, 0
2, 31032, Note_on_c, 0, 67, 127
2, 31053, Note_off_c, 0, 67, 0
2, 31056, Note_on_c, 0, 65, 127
2, 31098, Note_off_c, 0, 65, 0
2, 31200, Note_on_c, 0, 67, 127
2, 31221, Note_off_c, 0, 67, 0
2, 31224, Note_on_c, 0, 69, 127
2, 31245, Note_off_c, 0, 69, 0
2, 31248, Note_on_c, 0, 67, 127
2, 31269, Note_off_c, 0, 67, 0
2, 31272, Note_on_c, 0, 69, 127
2, 31293, Note_off_c, 0, 69, 0
2, 31296, Note_on_c, 0, 70, 127
2, 31317, Note_off_c, 0, 70, 0
2, 31320, Note_on_c, 0, 69, 127
2, 31341, Note_off_c, 0, 69, 0
2, 31344, Note_on_c, 0, 67, 127
2, 31386, Note_off_c, 0, 67, 0
2, 31488, Note_on_c, 0, 69, 127
2, 31509, Note_off_c, 0, 69, 0
2, 31512, Note_on_c, 0, 70, 127
2, 31533, Note_off_c, 0, 70, 0
2, 31536, Note_on_c, 0, 69, 127
2, 31557, Note_off_c, 0, 69, 0
2, 31560, Note_on_c, 0, 70, 127
2, 31581, Note_off_c, 0, 70, 0
2, 31584, Note_on_c, 0, 72, 127
2, 31605, Note_off_c, 0, 72, 0
2, 31608, Note_on_c, 0, 70, 127
2, 31629, Note_off_c, 0, 70, 0
2, 31632, Note_on_c, 0, 69, 127
2, 31653, Note_off_c, 0, 69, 0
2, 31656, Note_on_c, 0, 70, 127
2, 31677, Note_off_c, 0, 70, 0
2, 31680, Note_on_c, 0, 69, 127
2, 31701, Note_off_c, 0, 69, 0
2, 31704, Note_on_c, 0, 70, 127
2, 31725, Note_off_c, 0, 70, 0
2, 31728, Note_on_c, 0, 72, 127
2, 31770, Note_off_c, 0, 72, 0
2, 31776, Note_on_c, 0, 67, 127
2, 31818, Note_off_c, 0, 67, 0
2, 31824, Note_on_c, 0, 67, 127
2, 31845, Note_off_c, 0, 67, 0
2, 31848, Note_on_c, 0, 67, 127
2, 31869, Note_off_c, 0, 67, 0
2, 31872, Note_on_c, 0, 67, 127
2, 31893, Note_off_c, 0, 67, 0
2, 31896, Note_on_c, 0, 67, 127
2, 31917, Note_off_c, 0, 67, 0
2, 31920, Note_on_c, 0, 67, 127
2, 31962, Note_off_c, 0, 67, 0
2, 32928, Note_on_c, 0, 70, 127
2, 32949, Note_off_c, 0, 70, 0
2, 32952, Note_on_c, 0, 72, 127
2, 32973, Note_off_c, 0, 72, 0
2, 32976, Note_on_c, 0, 70, 127
2, 32997, Note_off_c, 0, 70, 0
2, 33000, Note_on_c, 0, 72, 127
2, 33021, Note_off_c, 0, 72, 0
2, 33024, Note_on_c, 0, 74, 127
2, 33045, Note_off_c, 0, 74, 0
2, 33048, Note_on_c, 0, 72, 127
2, 33069, Note_off_c, 0, 72, 0
2, 33072, Note_on_c, 0, 70, 127
2, 33114, Note_off_c, 0, 70, 0
2, 33120, Note_on_c, 0, 70, 127
2, 33162, Note_off_c, 0, 70, 0
2, 33168, Note_on_c, 0, 70, 127
2, 33210, Note_off_c, 0, 70, 0
2, 33216, Note_on_c, 0, 70, 127
2, 33237, Note_off_c, 0, 70, 0
2, 33240, Note_on_c, 0, 72, 127
2, 33261, Note_off_c, 0, 72, 0
2, 33264, Note_on_c, 0, 70, 127
2, 33285, Note_off_c, 0, 70, 0
2, 33288, Note_on_c, 0, 72, 127
2, 33309, Note_off_c, 0, 72, 0
2, 33312, Note_on_c, 0, 74, 127
2, 33333, Note_off_c, 0, 74, 0
2, 33336, Note_on_c, 0, 72, 127
2, 33357, Note_off_c, 0, 72, 0
2, 33360, Note_on_c, 0, 70, 127
2, 33402, Note_off_c, 0, 70, 0
2, 33408, Note_on_c, 0, 70, 127
2, 33450, Note_off_c, 0, 70, 0
2, 33456, Note_on_c, 0, 70, 127
2, 33498, Note_off_c, 0, 70, 0
2, 33504, Note_on_c, 0, 69, 127
2, 33525, Note_off_c, 0, 69, 0
2, 33528, Note_on_c, 0, 70, 127
2, 33549, Note_off_c, 0, 70, 0
2, 33552, Note_on_c, 0, 69, 127
2, 33573, Note_off_c, 0, 69, 0
2, 33576, Note_on_c, 0, 70, 127
2, 33597, Note_off_c, 0, 70, 0
2, 33600, Note_on_c, 0, 72, 127
2, 33621, Note_off_c, 0, 72, 0
2, 33624, Note_on_c, 0, 70, 127
2, 33645, Note_off_c, 0, 70, 0
2, 33648, Note_on_c, 0, 69, 127
2, 33690, Note_off_c, 0, 69, 0
2, 33696, Note_on_c, 0, 69, 127
2, 33738, Note_off_c, 0, 69, 0
2, 33744, Note_on_c, 0, 69, 127
2, 33786, Note_off_c, 0, 69, 0
2, 33792, Note_on_c, 0, 69, 127
2, 33813, Note_off_c, 0, 69, 0
2, 33816, Note_on_c, 0, 70, 127
2, 33837, Note_off_c, 0, 70, 0
2, 33840, Note_on_c, 0, 69, 127
2, 33861, Note_off_c, 0, 69, 0
2, 33864, Note_on_c, 0, 70, 127
2, 33885, Note_off_c, 0, 70, 0
2, 33888, Note_on_c, 0, 72, 127
2, 33909, Note_off_c, 0, 72, 0
2, 33912, Note_on_c, 0, 70, 127
2, 33933, Note_off_c, 0, 70, 0
2, 33936, Note_on_c, 0, 69, 127
2, 33978, Note_off_c, 0, 69, 0
2, 33984, Note_on_c, 0, 67, 127
2, 34005, Note_off_c, 0, 67, 0
2, 34008, Note_on_c, 0, 69, 127
2, 34029, Note_off_c, 0, 69, 0
2, 34032, Note_on_c, 0, 70, 127
2, 34053, Note_off_c, 0, 70, 0
2, 34056, Note_on_c, 0, 69, 127
2, 34077, Note_off_c, 0, 69, 0
2, 34080, Note_on_c, 0, 67, 127
2, 34122, Note_off_c, 0, 67, 0
2, 34128, Note_on_c, 0, 60, 127
2, 34149, Note_off_c, 0, 60, 0
2, 34152, Note_on_c, 0, 60, 127
2, 34173, Note_off_c, 0, 60, 0
2, 34176, Note_on_c, 0, 60, 127
2, 34197, Note_off_c, 0, 60, 0
2, 34200, Note_on_c, 0, 60, 127
2, 34221, Note_off_c, 0, 60, 0
2, 34224, Note_on_c, 0, 60, 127
2, 34266, Note_off_c, 0, 60, 0
2, 34368, Note_on_c, 0, 70, 127
2, 34410, Note_off_c, 0, 70, 0
2, 34416, Note_on_c, 0, 60, 127
2, 34437, Note_off_c, 0, 60, 0
2, 34440, Note_on_c, 0, 60, 127
2, 34461, Note_off_c, 0, 60, 0
2, 34464, Note_on_c, 0, 60, 127
2, 34485, Note_off_c, 0, 60, 0
2, 34488, Note_on_c, 0, 60, 127
2, 34509, Note_off_c, 0, 60, 0
2, 34512, Note_on_c, 0, 60, 127
2, 34554, Note_off_c, 0, 60, 0
2, 34656, Note_on_c, 0, 69, 127
2, 34677, Note_off_c, 0, 69, 0
2, 34680, Note_on_c, 0, 70, 127
2, 34701, Note_off_c, 0, 70, 0
2, 34704, Note_on_c, 0, 69, 127
2, 34725, Note_off_c, 0, 69, 0
2, 34728, Note_on_c, 0, 70, 127
2, 34749, Note_off_c, 0, 70, 0
2, 34752, Note_on_c, 0, 72, 127
2, 34773, Note_off_c, 0, 72, 0
2, 34776, Note_on_c, 0, 70, 127
2, 34797, Note_off_c, 0, 70, 0
2, 34800, Note_on_c, 0, 69, 127
2, 34842, Note_off_c, 0, 69, 0
2, 34848, Note_on_c, 0, 67, 127
2, 34869, Note_off_c, 0, 67, 0
2, 34872, Note_on_c, 0, 65, 127
2, 34893, Note_off_c, 0, 65, 0
2, 34896, Note_on_c, 0, 67, 127
2, 34917, Note_off_c, 0, 67, 0
2, 34920, Note_on_c, 0, 69, 127
2, 34941, Note_off_c, 0, 69, 0
2, 34944, Note_on_c, 0, 65, 127
2, 34965, Note_off_c, 0, 65, 0
2, 34968, Note_on_c, 0, 67, 127
2, 34989, Note_off_c, 0, 67, 0
2, 34992, Note_on_c, 0, 65, 127
2, 35013, Note_off_c, 0, 65, 0
2, 35016, Note_on_c, 0, 67, 127
2, 35037, Note_off_c, 0, 67, 0
2, 35040, Note_on_c, 0, 69, 127
2, 35061, Note_off_c, 0, 69, 0
2, 35064, Note_on_c, 0, 67, 127
2, 35085, Note_off_c, 0, 67, 0
2, 35088, Note_on_c, 0, 65, 127
2, 35130, Note_off_c, 0, 65, 0
2, 35232, Note_on_c, 0, 65, 127
2, 35253, Note_off_c, 0, 65, 0
2, 35256, Note_on_c, 0, 67, 127
2, 35277, Note_off_c, 0, 67, 0
2, 35280, Note_on_c, 0, 65, 127
2, 35301, Note_off_c, 0, 65, 0
2, 35304, Note_on_c, 0, 67, 127
2, 35325, Note_off_c, 0, 67, 0
2, 35328, Note_on_c, 0, 69, 127
2, 35349, Note_off_c, 0, 69, 0
2, 35352, Note_on_c, 0, 67, 127
2, 35373, Note_off_c, 0, 67, 0
2, 35376, Tempo, 750000
2, 35376, Note_on_c, 0, 65, 127
2, 35418, Note_off_c, 0, 65, 0
2, 35424, Note_on_c, 0, 60, 127
2, 35445, Note_off_c, 0, 60, 0
2, 35448, Note_on_c, 0, 60, 127
2, 35469, Note_off_c, 0, 60, 0
2, 35472, Note_on_c, 0, 60, 127
2, 35493, Note_off_c, 0, 60, 0
2, 35496, Note_on_c, 0, 60, 127
2, 35517, Note_off_c, 0, 60, 0
2, 35520, Note_on_c, 0, 57, 127
2, 35796, Note_off_c, 0, 57, 0
2, 35796, End_track
3, 0, Start_track
3, 0, Title_t, "Corno II"
3, 0, Control_c, 1, 0, 0
3, 0, Program_c, 1, 60
3, 0, Time_signature, 6, 2, 96, 8
3, 0, Tempo, 600000
3, 96, Tempo, 600000
3, 96, Note_on_c, 1, 57, 127
3, 138, Note_off_c, 1, 57, 0
3, 144, Note_on_c, 1, 57, 127
3, 165, Note_off_c, 1, 57, 0
3, 168, Note_on_c, 1, 57, 127
3, 189, Note_off_c, 1, 57, 0
3, 192, Note_on_c, 1, 57, 127
3, 213, Note_off_c, 1, 57, 0
3, 216, Note_on_c, 1, 57, 127
3, 237, Note_off_c, 1, 57, 0
3, 240, Note_on_c, 1, 57, 127
3, 282, Note_off_c, 1, 57, 0
3, 384, Note_on_c, 1, 60, 127
3, 426, Note_off_c, 1, 60, 0
3, 432, Note_on_c, 1, 60, 127
3, 453, Note_off_c, 1, 60, 0
3, 456, Note_on_c, 1, 60, 127
3, 477, Note_off_c, 1, 60, 0
3, 480, Note_on_c, 1, 60, 127
3, 501, Note_off_c, 1, 60, 0
3, 504, Note_on_c, 1, 60, 127
3, 525, Note_off_c, 1, 60, 0
3, 528, Note_on_c, 1, 60, 127
3, 570, Note_off_c, 1, 60, 0
3, 672, Note_on_c, 1, 65, 127
3, 693, Note_off_c, 1, 65, 0
3, 696, Note_on_c, 1, 67, 127
3, 717, Note_off_c, 1, 67, 0
3, 720, Note_on_c, 1, 65, 127
3, 741, Note_off_c, 1, 65, 0
3, 744, Note_on_c, 1, 67, 127
3, 765, Note_off_c, 1, 67, 0
3, 768, Note_on_c, 1, 69, 127
3, 789, Note_off_c, 1, 69, 0
3, 792, Note_on_c, 1, 67, 127
3, 813, Note_off_c, 1, 67, 0
3, 816, Note_on_c, 1, 65, 127
3, 837, Note_off_c, 1, 65, 0
3, 840, Note_on_c, 1, 67, 127
3, 861, Note_off_c, 1, 67, 0
3, 864, Note_on_c, 1, 65, 127
3, 885, Note_off_c, 1, 65, 0
3, 888, Note_on_c, 1, 67, 127
3, 909, Note_off_c, 1, 67, 0
3, 912, Note_on_c, 1, 69, 127
3, 954, Note_off_c, 1, 69, 0
3, 960, Note_on_c, 1, 60, 127
3, 1002, Note_off_c, 1, 60, 0
3, 1008, Note_on_c, 1, 60, 127
3, 1029, Note_off_c, 1, 60, 0
3, 1032, Note_on_c, 1, 60, 127
3, 1053, Note_off_c, 1, 60, 0
3, 1056, Note_on_c, 1, 60, 127
3, 1077, Note_off_c, 1, 60, 0
3, 1080, Note_on_c, 1, 60, 127
3, 1101, Note_off_c, 1, 60, 0
3, 1104, Note_on_c, 1, 60, 127
3, 1146, Note_off_c, 1, 60, 0
3, 2112, Note_on_c, 1, 67, 127
3, 2133, Note_off_c, 1, 67, 0
3, 2136, Note_on_c, 1, 69, 127
3, 2157, Note_off_c, 1, 69, 0
3, 2160, Note_on_c, 1, 67, 127
3, 2181, Note_off_c, 1, 67, 0
3, 2184, Note_on_c, 1, 69, 127
3, 2205, Note_off_c, 1, 69, 0
3, 2208, Note_on_c, 1, 70, 127
3, 2229, Note_off_c, 1, 70, 0
3, 2232, Note_on_c, 1, 69, 127
3, 2253, Note_off_c, 1, 69, 0
3, 2256, Note_on_c, 1, 67, 127
3, 2298, Note_off_c, 1, 67, 0
3, 2304, Note_on_c, 1, 67, 127
3, 2346, Note_off_c, 1, 67, 0
3, 2352, Note_on_c, 1, 67, 127
3, 2394, Note_off_c, 1, 67, 0
3, 2400, Note_on_c, 1, 67, 127
3, 2421, Note_off_c, 1, 67, 0
3, 2424, Note_on_c, 1, 69, 127
3, 2445, Note_off_c, 1, 69, 0
3, 2448, Note_on_c, 1, 67, 127
3, 2469, Note_off_c, 1, 67, 0
3, 2472, Note_on_c, 1, 69, 127
3, 2493, Note_off_c, 1, 69, 0
3, 2496, Note_on_c, 1, 70, 127
3, 2517, Note_off_c, 1, 70, 0
3, 2520, Note_on_c, 1, 69, 127
3, 2541, Note_off_c, 1, 69, 0
3, 2544, Note_on_c, 1, 67, 127
3, 2586, Note_off_c, 1, 67, 0
3, 2592, Note_on_c, 1, 67, 127
3, 2634, Note_off_c, 1, 67, 0
3, 2640, Note_on_c, 1, 67, 127
3, 2682, Note_off_c, 1, 67, 0
3, 2688, Note_on_c, 1, 65, 127
3, 2709, Note_off_c, 1, 65, 0
3, 2712, Note_on_c, 1, 67, 127
3, 2733, Note_off_c, 1, 67, 0
3, 2736, Note_on_c, 1, 65, 127
3, 2757, Note_off_c, 1, 65, 0
3, 2760, Note_on_c, 1, 67, 127
3, 2781, Note_off_c, 1, 67, 0
3, 2784, Note_on_c, 1, 69, 127
3, 2805, Note_off_c, 1, 69, 0
3, 2808, Note_on_c, 1, 67, 127
3, 2829, Note_off_c, 1, 67, 0
3, 2832, Note_on_c, 1, 65, 127
3, 2874, Note_off_c, 1, 65, 0
3, 2880, Note_on_c, 1, 65, 127
3, 2922, Note_off_c, 1, 65, 0
3, 2928, Note_on_c, 1, 65, 127
3, 2970, Note_off_c, 1, 65, 0
3, 2976, Note_on_c, 1, 65, 127
3, 2997, Note_off_c, 1, 65, 0
3, 3000, Note_on_c, 1, 67, 127
3, 3021, Note_off_c, 1, 67, 0
3, 3024, Note_on_c, 1, 65, 127
3, 3045, Note_off_c, 1, 65, 0
3, 3048, Note_on_c, 1, 67, 127
3, 3069, Note_off_c, 1, 67, 0
3, 3072, Note_on_c, 1, 69, 127
3, 3093, Note_off_c, 1, 69, 0
3, 3096, Note_on_c, 1, 67, 127
3, 3117, Note_off_c, 1, 67, 0
3, 3120, Note_on_c, 1, 65, 127
3, 3162, Note_off_c, 1, 65, 0
3, 3168, Note_on_c, 1, 65, 127
3, 3210, Note_off_c, 1, 65, 0
3, 3216, Note_on_c, 1, 65, 127
3, 3258, Note_off_c, 1, 65, 0
3, 3264, Note_on_c, 1, 60, 127
3, 3306, Note_off_c, 1, 60, 0
3, 3408, Note_on_c, 1, 67, 127
3, 3450, Note_off_c, 1, 67, 0
3, 3456, Note_on_c, 1, 60, 127
3, 3477, Note_off_c, 1, 60, 0
3, 3480, Note_on_c, 1, 60, 127
3, 3501, Note_off_c, 1, 60, 0
3, 3504, Note_on_c, 1, 60, 127
3, 3525, Note_off_c, 1, 60, 0
3, 3528, Note_on_c, 1, 60, 127
3, 3549, Note_off_c, 1, 60, 0
3, 3552, Note_on_c, 1, 60, 127
3, 3594, Note_off_c, 1, 60, 0
3, 3696, Note_on_c, 1, 70, 127
3, 3738, Note_off_c, 1, 70, 0
3, 3744, Note_on_c, 1, 60, 127
3, 3765, Note_off_c, 1, 60, 0
3, 3768, Note_on_c, 1, 60, 127
3, 3789, Note_off_c, 1, 60, 0
3, 3792, Note_on_c, 1, 60, 127
3, 3813, Note_off_c, 1, 60, 0
3, 3816, Note_on_c, 1, 60, 127
3, 3837, Note_off_c, 1, 60, 0
3, 3840, Note_on_c, 1, 65, 127
3, 3861, Note_off_c, 1, 65, 0
3, 3864, Note_on_c, 1, 67, 127
3, 3885, Note_off_c, 1, 67, 0
3, 3888, Note_on_c, 1, 65, 127
3, 3909, Note_off_c, 1, 65, 0
3, 3912, Note_on_c, 1, 67, 127
3, 3933, Note_off_c, 1, 67, 0
3, 3936, Note_on_c, 1, 69, 127
3, 3957, Note_off_c, 1, 69, 0
3, 3960, Note_on_c, 1, 67, 127
3, 3981, Note_off_c, 1, 67, 0
3, 3984, Note_on_c, 1, 65, 127
3, 4026, Note_off_c, 1, 65, 0
3, 4032, Note_on_c, 1, 60, 127
3, 4053, Note_off_c, 1, 60, 0
3, 4056, Note_on_c, 1, 60, 127
3, 4077, Note_off_c, 1, 60, 0
3, 4080, Note_on_c, 1, 60, 127
3, 4101, Note_off_c, 1, 60, 0
3, 4104, Note_on_c, 1, 60, 127
3, 4125, Note_off_c, 1, 60, 0
3, 4128, Note_on_c, 1, 57, 127
3, 4170, Note_off_c, 1, 57, 0
3, 4176, Note_on_c, 1, 57, 127
3, 4197, Note_off_c, 1, 57, 0
3, 4200, Note_on_c, 1, 57, 127
3, 4221, Note_off_c, 1, 57, 0
3, 4224, Note_on_c, 1, 57, 127
3, 4245, Note_off_c, 1, 57, 0
3, 4248, Note_on_c, 1, 57, 127
3, 4269, Note_off_c, 1, 57, 0
3, 4272, Note_on_c, 1, 57, 127
3, 4314, Note_off_c, 1, 57, 0
3, 4416, Note_on_c, 1, 57, 127
3, 4458, Note_off_c, 1, 57, 0
3, 4464, Note_on_c, 1, 57, 127
3, 4485, Note_off_c, 1, 57, 0
3, 4488, Note_on_c, 1, 57, 127
3, 4509, Note_off_c, 1, 57, 0
3, 4512, Note_on_c, 1, 57, 127
3, 4533, Note_off_c, 1, 57, 0
3, 4536, Note_on_c, 1, 57, 127
3, 4557, Note_off_c, 1, 57, 0
3, 4560, Note_on_c, 1, 57, 127
3, 4602, Note_off_c, 1, 57, 0
3, 4608, Note_on_c, 1, 57, 127
3, 4629, Note_off_c, 1, 57, 0
3, 4632, Note_on_c, 1, 57, 127
3, 4653, Note_off_c, 1, 57, 0
3, 4656, Note_on_c, 1, 57, 127
3, 4677, Note_off_c, 1, 57, 0
3, 4680, Note_on_c, 1, 57, 127
3, 4701, Note_off_c, 1, 57, 0
3, 4704, Note_on_c, 1, 53, 127
3, 4746, Note_off_c, 1, 53, 0
3, 4752, Note_on_c, 1, 53, 127
3, 4773, Note_off_c, 1, 53, 0
3, 4776, Note_on_c, 1, 53, 127
3, 4797, Note_off_c, 1, 53, 0
3, 4800, Note_on_c, 1, 53, 127
3, 4821, Note_off_c, 1, 53, 0
3, 4824, Note_on_c, 1, 53, 127
3, 4845, Note_off_c, 1, 53, 0
3, 4848, Note_on_c, 1, 53, 127
3, 4932, Note_off_c, 1, 53, 0
3, 5760, Note_on_c, 1, 60, 127
3, 5781, Note_off_c, 1, 60, 0
3, 5784, Note_on_c, 1, 60, 127
3, 5805, Note_off_c, 1, 60, 0
3, 5808, Note_on_c, 1, 60, 127
3, 5829, Note_off_c, 1, 60, 0
3, 5832, Note_on_c, 1, 60, 127
3, 5853, Note_off_c, 1, 60, 0
3, 5856, Note_on_c, 1, 57, 127
3, 5898, Note_off_c, 1, 57, 0
3, 5904, Note_on_c, 1, 57, 127
3, 5925, Note_off_c, 1, 57, 0
3, 5928, Note_on_c, 1, 57, 127
3, 5949, Note_off_c, 1, 57, 0
3, 5952, Note_on_c, 1, 57, 127
3, 5973, Note_off_c, 1, 57, 0
3, 5976, Note_on_c, 1, 57, 127
3, 5997, Note_off_c, 1, 57, 0
3, 6000, Note_on_c, 1, 57, 127
3, 6042, Note_off_c, 1, 57, 0
3, 6144, Note_on_c, 1, 60, 127
3, 6186, Note_off_c, 1, 60, 0
3, 6192, Note_on_c, 1, 60, 127
3, 6213, Note_off_c, 1, 60, 0
3, 6216, Note_on_c, 1, 60, 127
3, 6237, Note_off_c, 1, 60, 0
3, 6240, Note_on_c, 1, 60, 127
3, 6261, Note_off_c, 1, 60, 0
3, 6264, Note_on_c, 1, 60, 127
3, 6285, Note_off_c, 1, 60, 0
3, 6288, Note_on_c, 1, 60, 127
3, 6330, Note_off_c, 1, 60, 0
3, 6432, Note_on_c, 1, 65, 127
3, 6453, Note_off_c, 1, 65, 0
3, 6456, Note_on_c, 1, 67, 127
3, 6477, Note_off_c, 1, 67, 0
3, 6480, Note_on_c, 1, 65, 127
3, 6501, Note_off_c, 1, 65, 0
3, 6504, Note_on_c, 1, 67, 127
3, 6525, Note_off_c, 1, 67, 0
3, 6528, Note_on_c, 1, 69, 127
3, 6549, Note_off_c, 1, 69, 0
3, 6552, Note_on_c, 1, 67, 127
3, 6573, Note_off_c, 1, 67, 0
3, 6576, Note_on_c, 1, 65, 127
3, 6597, Note_off_c, 1, 65, 0
3, 6600, Note_on_c, 1, 67, 127
3, 6621, Note_off_c, 1, 67, 0
3, 6624, Note_on_c, 1, 65, 127
3, 6645, Note_off_c, 1, 65, 0
3, 6648, Note_on_c, 1, 67, 127
3, 6669, Note_off_c, 1, 67, 0
3, 6672, Note_on_c, 1, 69, 127
3, 6714, Note_off_c, 1, 69, 0
3, 6720, Note_on_c, 1, 60, 127
3, 6762, Note_off_c, 1, 60, 0
3, 6768, Note_on_c, 1, 60, 127
3, 6789, Note_off_c, 1, 60, 0
3, 6792, Note_on_c, 1, 60, 127
3, 6813, Note_off_c, 1, 60, 0
3, 6816, Note_on_c, 1, 60, 127
3, 6837, Note_off_c, 1, 60, 0
3, 6840, Note_on_c, 1, 60, 127
3, 6861, Note_off_c, 1, 60, 0
3, 6864, Note_on_c, 1, 60, 127
3, 6906, Note_off_c, 1, 60, 0
3, 7776, Note_on_c, 1, 67, 127
3, 7818, Note_off_c, 1, 67, 0
3, 7824, Note_on_c, 1, 67, 127
3, 7866, Note_off_c, 1, 67, 0
3, 7872, Note_on_c, 1, 67, 127
3, 7914, Note_off_c, 1, 67, 0
3, 7920, Note_on_c, 1, 67, 127
3, 7962, Note_off_c, 1, 67, 0
3, 7968, Note_on_c, 1, 67, 127
3, 8010, Note_off_c, 1, 67, 0
3, 8016, Note_on_c, 1, 67, 127
3, 8058, Note_off_c, 1, 67, 0
3, 8064, Note_on_c, 1, 67, 127
3, 8106, Note_off_c, 1, 67, 0
3, 8112, Note_on_c, 1, 67, 127
3, 8154, Note_off_c, 1, 67, 0
3, 8160, Note_on_c, 1, 67, 127
3, 8202, Note_off_c, 1, 67, 0
3, 8208, Note_on_c, 1, 67, 127
3, 8250, Note_off_c, 1, 67, 0
3, 8256, Note_on_c, 1, 67, 127
3, 8298, Note_off_c, 1, 67, 0
3, 8304, Note_on_c, 1, 67, 127
3, 8346, Note_off_c, 1, 67, 0
3, 8352, Note_on_c, 1, 67, 127
3, 8394, Note_off_c, 1, 67, 0
3, 8400, Note_on_c, 1, 67, 127
3, 8442, Note_off_c, 1, 67, 0
3, 8448, Note_on_c, 1, 67, 127
3, 8490, Note_off_c, 1, 67, 0
3, 8496, Note_on_c, 1, 60, 127
3, 8538, Note_off_c, 1, 60, 0
3, 9888, Note_on_c, 1, 67, 127
3, 9930, Note_off_c, 1, 67, 0
3, 9936, Note_on_c, 1, 67, 127
3, 9957, Note_off_c, 1, 67, 0
3, 9960, Note_on_c, 1, 67, 127
3, 9981, Note_off_c, 1, 67, 0
3, 9984, Note_on_c, 1, 67, 127
3, 10005, Note_off_c, 1, 67, 0
3, 10008, Note_on_c, 1, 67, 127
3, 10029, Note_off_c, 1, 67, 0
3, 10032, Note_on_c, 1, 67, 127
3, 10074, Note_off_c, 1, 67, 0
3, 10176, Note_on_c, 1, 67, 127
3, 10218, Note_off_c, 1, 67, 0
3, 10224, Note_on_c, 1, 67, 127
3, 10245, Note_off_c, 1, 67, 0
3, 10248, Note_on_c, 1, 67, 127
3, 10269, Note_off_c, 1, 67, 0
3, 10272, Note_on_c, 1, 67, 127
3, 10293, Note_off_c, 1, 67, 0
3, 10296, Note_on_c, 1, 67, 127
3, 10317, Note_off_c, 1, 67, 0
3, 10320, Note_on_c, 1, 67, 127
3, 10362, Note_off_c, 1, 67, 0
3, 10464, Note_on_c, 1, 72, 127
3, 10506, Note_off_c, 1, 72, 0
3, 10512, Note_on_c, 1, 67, 127
3, 10554, Note_off_c, 1, 67, 0
3, 10560, Note_on_c, 1, 60, 127
3, 10602, Note_off_c, 1, 60, 0
3, 10608, Note_on_c, 1, 65, 127
3, 10650, Note_off_c, 1, 65, 0
3, 10656, Note_on_c, 1, 69, 127
3, 10698, Note_off_c, 1, 69, 0
3, 10704, Note_on_c, 1, 72, 127
3, 10746, Note_off_c, 1, 72, 0
3, 10752, Note_on_c, 1, 67, 127
3, 10794, Note_off_c, 1, 67, 0
3, 10800, Note_on_c, 1, 67, 127
3, 10821, Note_off_c, 1, 67, 0
3, 10824, Note_on_c, 1, 67, 127
3, 10845, Note_off_c, 1, 67, 0
3, 10848, Note_on_c, 1, 67, 127
3, 10869, Note_off_c, 1, 67, 0
3, 10872, Note_on_c, 1, 67, 127
3, 10893, Note_off_c, 1, 67, 0
3, 10896, Note_on_c, 1, 67, 127
3, 10938, Note_off_c, 1, 67, 0
3, 15552, Note_on_c, 1, 57, 127
3, 15573, Note_off_c, 1, 57, 0
3, 15576, Note_on_c, 1, 57, 127
3, 15597, Note_off_c, 1, 57, 0
3, 15600, Note_on_c, 1, 57, 127
3, 15621, Note_off_c, 1, 57, 0
3, 15624, Note_on_c, 1, 57, 127
3, 15645, Note_off_c, 1, 57, 0
3, 15648, Note_on_c, 1, 57, 127
3, 15690, Note_off_c, 1, 57, 0
3, 17136, Note_on_c, 1, 72, 127
3, 17178, Note_off_c, 1, 72, 0
3, 17184, Note_on_c, 1, 72, 127
3, 17226, Note_off_c, 1, 72, 0
3, 17232, Note_on_c, 1, 72, 127
3, 17253, Note_off_c, 1, 72, 0
3, 17256, Note_on_c, 1, 71, 127
3, 17277, Note_off_c, 1, 71, 0
3, 17280, Note_on_c, 1, 69, 127
3, 17301, Note_off_c, 1, 69, 0
3, 17304, Note_on_c, 1, 67, 127
3, 17325, Note_off_c, 1, 67, 0
3, 17328, Note_on_c, 1, 69, 127
3, 17349, Note_off_c, 1, 69, 0
3, 17352, Note_on_c, 1, 65, 127
3, 17373, Note_off_c, 1, 65, 0
3, 17376, Note_on_c, 1, 71, 127
3, 17418, Note_off_c, 1, 71, 0
3, 17424, Note_on_c, 1, 71, 127
3, 17466, Note_off_c, 1, 71, 0
3, 17472, Note_on_c, 1, 71, 127
3, 17514, Note_off_c, 1, 71, 0
3, 17520, Note_on_c, 1, 71, 127
3, 17541, Note_off_c, 1, 71, 0
3, 17544, Note_on_c, 1, 69, 127
3, 17565, Note_off_c, 1, 69, 0
3, 17568, Note_on_c, 1, 67, 127
3, 17589, Note_off_c, 1, 67, 0
3, 17592, Note_on_c, 1, 65, 127
3, 17613, Note_off_c, 1, 65, 0
3, 17616, Note_on_c, 1, 67, 127
3, 17637, Note_off_c, 1, 67, 0
3, 17640, Note_on_c, 1, 60, 127
3, 17661, Note_off_c, 1, 60, 0
3, 17664, Note_on_c, 1, 69, 127
3, 17706, Note_off_c, 1, 69, 0
3, 20448, Note_on_c, 1, 67, 127
3, 20469, Note_off_c, 1, 67, 0
3, 20472, Note_on_c, 1, 67, 127
3, 20493, Note_off_c, 1, 67, 0
3, 20496, Note_on_c, 1, 67, 127
3, 20517, Note_off_c, 1, 67, 0
3, 20520, Note_on_c, 1, 67, 127
3, 20541, Note_off_c, 1, 67, 0
3, 20544, Note_on_c, 1, 69, 127
3, 20586, Note_off_c, 1, 69, 0
3, 20880, Note_on_c, 1, 70, 127
3, 20922, Note_off_c, 1, 70, 0
3, 20928, Note_on_c, 1, 70, 127
3, 20970, Note_off_c, 1, 70, 0
3, 20976, Note_on_c, 1, 70, 127
3, 20997, Note_off_c, 1, 70, 0
3, 21000, Note_on_c, 1, 69, 127
3, 21021, Note_off_c, 1, 69, 0
3, 21024, Note_on_c, 1, 67, 127
3, 21045, Note_off_c, 1, 67, 0
3, 21048, Note_on_c, 1, 65, 127
3, 21069, Note_off_c, 1, 65, 0
3, 21072, Note_on_c, 1, 67, 127
3, 21093, Note_off_c, 1, 67, 0
3, 21096, Note_on_c, 1, 63, 127
3, 21117, Note_off_c, 1, 63, 0
3, 21120, Note_on_c, 1, 69, 127
3, 21162, Note_off_c, 1, 69, 0
3, 21168, Note_on_c, 1, 70, 127
3, 21178, Note_off_c, 1, 70, 0
3, 21180, Note_on_c, 1, 69, 127
3, 21190, Note_off_c, 1, 69, 0
3, 21192, Note_on_c, 1, 70, 127
3, 21202, Note_off_c, 1, 70, 0
3, 21204, Note_on_c, 1, 69, 127
3, 21214, Note_off_c, 1, 69, 0
3, 21216, Note_on_c, 1, 70, 127
3, 21226, Note_off_c, 1, 70, 0
3, 21228, Note_on_c, 1, 69, 127
3, 21238, Note_off_c, 1, 69, 0
3, 21240, Note_on_c, 1, 67, 127
3, 21250, Note_off_c, 1, 67, 0
3, 21252, Note_on_c, 1, 69, 127
3, 21262, Note_off_c, 1, 69, 0
3, 21264, Note_on_c, 1, 70, 127
3, 21306, Note_off_c, 1, 70, 0
3, 23424, Tempo, 1500000
3, 23616, Time_signature, 2, 2, 96, 8
3, 23808, Time_signature, 6, 2, 96, 8
3, 23904, Tempo, 600000
3, 25056, Note_on_c, 1, 60, 127
3, 25077, Note_off_c, 1, 60, 0
3, 25080, Note_on_c, 1, 60, 127
3, 25101, Note_off_c, 1, 60, 0
3, 25104, Note_on_c, 1, 60, 127
3, 25125, Note_off_c, 1, 60, 0
3, 25128, Note_on_c, 1, 60, 127
3, 25149, Note_off_c, 1, 60, 0
3, 25152, Note_on_c, 1, 57, 127
3, 25194, Note_off_c, 1, 57, 0
3, 25200, Note_on_c, 1, 57, 127
3, 25221, Note_off_c, 1, 57, 0
3, 25224, Note_on_c, 1, 57, 127
3, 25245, Note_off_c, 1, 57, 0
3, 25248, Note_on_c, 1, 57, 127
3, 25269, Note_off_c, 1, 57, 0
3, 25272, Note_on_c, 1, 57, 127
3, 25293, Note_off_c, 1, 57, 0
3, 25296, Note_on_c, 1, 57, 127
3, 25338, Note_off_c, 1, 57, 0
3, 25440, Note_on_c, 1, 60, 127
3, 25482, Note_off_c, 1, 60, 0
3, 25488, Note_on_c, 1, 60, 127
3, 25509, Note_off_c, 1, 60, 0
3, 25512, Note_on_c, 1, 60, 127
3, 25533, Note_off_c, 1, 60, 0
3, 25536, Note_on_c, 1, 60, 127
3, 25557, Note_off_c, 1, 60, 0
3, 25560, Note_on_c, 1, 60, 127
3, 25581, Note_off_c, 1, 60, 0
3, 25584, Note_on_c, 1, 60, 127
3, 25626, Note_off_c, 1, 60, 0
3, 25728, Note_on_c, 1, 65, 127
3, 25749, Note_off_c, 1, 65, 0
3, 25752, Note_on_c, 1, 67, 127
3, 25773, Note_off_c, 1, 67, 0
3, 25776, Note_on_c, 1, 65, 127
3, 25797, Note_off_c, 1, 65, 0
3, 25800, Note_on_c, 1, 67, 127
3, 25821, Note_off_c, 1, 67, 0
3, 25824, Note_on_c, 1, 69, 127
3, 25845, Note_off_c, 1, 69, 0
3, 25848, Note_on_c, 1, 67, 127
3, 25869, Note_off_c, 1, 67, 0
3, 25872, Note_on_c, 1, 65, 127
3, 25893, Note_off_c, 1, 65, 0
3, 25896, Note_on_c, 1, 67, 127
3, 25917, Note_off_c, 1, 67, 0
3, 25920, Note_on_c, 1, 65, 127
3, 25941, Note_off_c, 1, 65, 0
3, 25944, Note_on_c, 1, 67, 127
3, 25965, Note_off_c, 1, 67, 0
3, 25968, Note_on_c, 1, 69, 127
3, 26010, Note_off_c, 1, 69, 0
3, 26016, Note_on_c, 1, 60, 127
3, 26058, Note_off_c, 1, 60, 0
3, 26064, Note_on_c, 1, 60, 127
3, 26085, Note_off_c, 1, 60, 0
3, 26088, Note_on_c, 1, 60, 127
3, 26109, Note_off_c, 1, 60, 0
3, 26112, Note_on_c, 1, 60, 127
3, 26133, Note_off_c, 1, 60, 0
3, 26136, Note_on_c, 1, 60, 127
3, 26157, Note_off_c, 1, 60, 0
3, 26160, Note_on_c, 1, 60, 127
3, 26202, Note_off_c, 1, 60, 0
3, 26208, Note_on_c, 1, 67, 127
3, 26229, Note_off_c, 1, 67, 0
3, 26232, Note_on_c, 1, 67, 127
3, 26253, Note_off_c, 1, 67, 0
3, 26256, Note_on_c, 1, 67, 127
3, 26277, Note_off_c, 1, 67, 0
3, 26280, Note_on_c, 1, 67, 127
3, 26301, Note_off_c, 1, 67, 0
3, 26304, Note_on_c, 1, 65, 127
3, 26346, Note_off_c, 1, 65, 0
3, 27216, Note_on_c, 1, 60, 127
3, 27258, Note_off_c, 1, 60, 0
3, 27264, Note_on_c, 1, 60, 127
3, 27306, Note_off_c, 1, 60, 0
3, 27312, Note_on_c, 1, 60, 127
3, 27354, Note_off_c, 1, 60, 0
3, 27360, Note_on_c, 1, 60, 127
3, 27402, Note_off_c, 1, 60, 0
3, 27408, Note_on_c, 1, 60, 127
3, 27450, Note_off_c, 1, 60, 0
3, 27456, Note_on_c, 1, 60, 127
3, 27498, Note_off_c, 1, 60, 0
3, 27504, Note_on_c, 1, 60, 127
3, 27546, Note_off_c, 1, 60, 0
3, 27552, Note_on_c, 1, 60, 127
3, 27594, Note_off_c, 1, 60, 0
3, 27600, Note_on_c, 1, 60, 127
3, 27642, Note_off_c, 1, 60, 0
3, 27648, Note_on_c, 1, 60, 127
3, 27690, Note_off_c, 1, 60, 0
3, 27696, Note_on_c, 1, 60, 127
3, 27738, Note_off_c, 1, 60, 0
3, 27744, Note_on_c, 1, 60, 127
3, 27786, Note_off_c, 1, 60, 0
3, 27792, Note_on_c, 1, 60, 127
3, 27834, Note_off_c, 1, 60, 0
3, 27840, Note_on_c, 1, 60, 127
3, 27882, Note_off_c, 1, 60, 0
3, 27888, Note_on_c, 1, 60, 127
3, 27930, Note_off_c, 1, 60, 0
3, 29328, Note_on_c, 1, 65, 127
3, 29349, Note_off_c, 1, 65, 0
3, 29352, Note_on_c, 1, 67, 127
3, 29373, Note_off_c, 1, 67, 0
3, 29376, Note_on_c, 1, 65, 127
3, 29397, Note_off_c, 1, 65, 0
3, 29400, Note_on_c, 1, 67, 127
3, 29421, Note_off_c, 1, 67, 0
3, 29424, Note_on_c, 1, 69, 127
3, 29445, Note_off_c, 1, 69, 0
3, 29448, Note_on_c, 1, 67, 127
3, 29469, Note_off_c, 1, 67, 0
3, 29472, Note_on_c, 1, 65, 127
3, 29514, Note_off_c, 1, 65, 0
3, 29520, Note_on_c, 1, 60, 127
3, 29562, Note_off_c, 1, 60, 0
3, 29568, Note_on_c, 1, 57, 127
3, 29610, Note_off_c, 1, 57, 0
3, 29616, Note_on_c, 1, 60, 127
3, 29658, Note_off_c, 1, 60, 0
3, 29664, Note_on_c, 1, 60, 127
3, 29685, Note_off_c, 1, 60, 0
3, 29688, Note_on_c, 1, 60, 127
3, 29709, Note_off_c, 1, 60, 0
3, 29712, Note_on_c, 1, 60, 127
3, 29733, Note_off_c, 1, 60, 0
3, 29736, Note_on_c, 1, 60, 127
3, 29757, Note_off_c, 1, 60, 0
3, 29760, Note_on_c, 1, 60, 127
3, 29802, Note_off_c, 1, 60, 0
3, 29904, Note_on_c, 1, 65, 127
3, 29925, Note_off_c, 1, 65, 0
3, 29928, Note_on_c, 1, 67, 127
3, 29949, Note_off_c, 1, 67, 0
3, 29952, Note_on_c, 1, 65, 127
3, 29973, Note_off_c, 1, 65, 0
3, 29976, Note_on_c, 1, 67, 127
3, 29997, Note_off_c, 1, 67, 0
3, 30000, Note_on_c, 1, 69, 127
3, 30021, Note_off_c, 1, 69, 0
3, 30024, Note_on_c, 1, 67, 127
3, 30045, Note_off_c, 1, 67, 0
3, 30048, Note_on_c, 1, 65, 127
3, 30069, Note_off_c, 1, 65, 0
3, 30072, Note_on_c, 1, 67, 127
3, 30093, Note_off_c, 1, 67, 0
3, 30096, Note_on_c, 1, 65, 127
3, 30117, Note_off_c, 1, 65, 0
3, 30120, Note_on_c, 1, 67, 127
3, 30141, Note_off_c, 1, 67, 0
3, 30144, Note_on_c, 1, 69, 127
3, 30186, Note_off_c, 1, 69, 0
3, 30192, Note_on_c, 1, 60, 127
3, 30234, Note_off_c, 1, 60, 0
3, 30240, Note_on_c, 1, 60, 127
3, 30261, Note_off_c, 1, 60, 0
3, 30264, Note_on_c, 1, 60, 127
3, 30285, Note_off_c, 1, 60, 0
3, 30288, Note_on_c, 1, 60, 127
3, 30309, Note_off_c, 1, 60, 0
3, 30312, Note_on_c, 1, 60, 127
3, 30333, Note_off_c, 1, 60, 0
3, 30336, Note_on_c, 1, 60, 127
3, 30378, Note_off_c, 1, 60, 0
3, 30912, Note_on_c, 1, 57, 127
3, 30954, Note_off_c, 1, 57, 0
3, 30960, Note_on_c, 1, 57, 127
3, 30981, Note_off_c, 1, 57, 0
3, 30984, Note_on_c, 1, 57, 127
3, 31005, Note_off_c, 1, 57, 0
3, 31008, Note_on_c, 1, 57, 127
3, 31029, Note_off_c, 1, 57, 0
3, 31032, Note_on_c, 1, 57, 127
3, 31053, Note_off_c, 1, 57, 0
3, 31056, Note_on_c, 1, 57, 127
3, 31098, Note_off_c, 1, 57, 0
3, 31200, Note_on_c, 1, 60, 127
3, 31242, Note_off_c, 1, 60, 0
3, 31248, Note_on_c, 1, 60, 127
3, 31269, Note_off_c, 1, 60, 0
3, 31272, Note_on_c, 1, 60, 127
3, 31293, Note_off_c, 1, 60, 0
3, 31296, Note_on_c, 1, 60, 127
3, 31317, Note_off_c, 1, 60, 0
3, 31320, Note_on_c, 1, 60, 127
3, 31341, Note_off_c, 1, 60, 0
3, 31344, Note_on_c, 1, 60, 127
3, 31386, Note_off_c, 1, 60, 0
3, 31488, Note_on_c, 1, 65, 127
3, 31509, Note_off_c, 1, 65, 0
3, 31512, Note_on_c, 1, 67, 127
3, 31533, Note_off_c, 1, 67, 0
3, 31536, Note_on_c, 1, 65, 127
3, 31557, Note_off_c, 1, 65, 0
3, 31560, Note_on_c, 1, 67, 127
3, 31581, Note_off_c, 1, 67, 0
3, 31584, Note_on_c, 1, 69, 127
3, 31605, Note_off_c, 1, 69, 0
3, 31608, Note_on_c, 1, 67, 127
3, 31629, Note_off_c, 1, 67, 0
3, 31632, Note_on_c, 1, 65, 127
3, 31653, Note_off_c, 1, 65, 0
3, 31656, Note_on_c, 1, 67, 127
3, 31677, Note_off_c, 1, 67, 0
3, 31680, Note_on_c, 1, 65, 127
3, 31701, Note_off_c, 1, 65, 0
3, 31704, Note_on_c, 1, 67, 127
3, 31725, Note_off_c, 1, 67, 0
3, 31728, Note_on_c, 1, 69, 127
3, 31770, Note_off_c, 1, 69, 0
3, 31776, Note_on_c, 1, 60, 127
3, 31818, Note_off_c, 1, 60, 0
3, 31824, Note_on_c, 1, 60, 127
3, 31845, Note_off_c, 1, 60, 0
3, 31848, Note_on_c, 1, 60, 127
3, 31869, Note_off_c, 1, 60, 0
3, 31872, Note_on_c, 1, 60, 127
3, 31893, Note_off_c, 1, 60, 0
3, 31896, Note_on_c, 1, 60, 127
3, 31917, Note_off_c, 1, 60, 0
3, 31920, Note_on_c, 1, 60, 127
3, 31962, Note_off_c, 1, 60, 0
3, 32928, Note_on_c, 1, 67, 127
3, 32949, Note_off_c, 1, 67, 0
3, 32952, Note_on_c, 1, 69, 127
3, 32973, Note_off_c, 1, 69, 0
3, 32976, Note_on_c, 1, 67, 127
3, 32997, Note_off_c, 1, 67, 0
3, 33000, Note_on_c, 1, 69, 127
3, 33021, Note_off_c, 1, 69, 0
3, 33024, Note_on_c, 1, 70, 127
3, 33045, Note_off_c, 1, 70, 0
3, 33048, Note_on_c, 1, 69, 127
3, 33069, Note_off_c, 1, 69, 0
3, 33072, Note_on_c, 1, 67, 127
3, 33114, Note_off_c, 1, 67, 0
3, 33120, Note_on_c, 1, 67, 127
3, 33162, Note_off_c, 1, 67, 0
3, 33168, Note_on_c, 1, 67, 127
3, 33210, Note_off_c, 1, 67, 0
3, 33216, Note_on_c, 1, 67, 127
3, 33237, Note_off_c, 1, 67, 0
3, 33240, Note_on_c, 1, 69, 127
3, 33261, Note_off_c, 1, 69, 0
3, 33264, Note_on_c, 1, 67, 127
3, 33285, Note_off_c, 1, 67, 0
3, 33288, Note_on_c, 1, 69, 127
3, 33309, Note_off_c, 1, 69, 0
3, 33312, Note_on_c, 1, 70, 127
3, 33333, Note_off_c, 1, 70, 0
3, 33336, Note_on_c, 1, 69, 127
3, 33357, Note_off_c, 1, 69, 0
3, 33360, Note_on_c, 1, 67, 127
3, 33402, Note_off_c, 1, 67, 0
3, 33408, Note_on_c, 1, 67, 127
3, 33450, Note_off_c, 1, 67, 0
3, 33456, Note_on_c, 1, 67, 127
3, 33498, Note_off_c, 1, 67, 0
3, 33504, Note_on_c, 1, 65, 127
3, 33525, Note_off_c, 1, 65, 0
3, 33528, Note_on_c, 1, 67, 127
3, 33549, Note_off_c, 1, 67, 0
3, 33552, Note_on_c, 1, 65, 127
3, 33573, Note_off_c, 1, 65, 0
3, 33576, Note_on_c, 1, 67, 127
3, 33597, Note_off_c, 1, 67, 0
3, 33600, Note_on_c, 1, 69, 127
3, 33621, Note_off_c, 1, 69, 0
3, 33624, Note_on_c, 1, 67, 127
3, 33645, Note_off_c, 1, 67, 0
3, 33648, Note_on_c, 1, 65, 127
3, 33690, Note_off_c, 1, 65, 0
3, 33696, Note_on_c, 1, 65, 127
3, 33738, Note_off_c, 1, 65, 0
3, 33744, Note_on_c, 1, 65, 127
3, 33786, Note_off_c, 1, 65, 0
3, 33792, Note_on_c, 1, 65, 127
3, 33813, Note_off_c, 1, 65, 0
3, 33816, Note_on_c, 1, 67, 127
3, 33837, Note_off_c, 1, 67, 0
3, 33840, Note_on_c, 1, 65, 127
3, 33861, Note_off_c, 1, 65, 0
3, 33864, Note_on_c, 1, 67, 127
3, 33885, Note_off_c, 1, 67, 0
3, 33888, Note_on_c, 1, 69, 127
3, 33909, Note_off_c, 1, 69, 0
3, 33912, Note_on_c, 1, 67, 127
3, 33933, Note_off_c, 1, 67, 0
3, 33936, Note_on_c, 1, 65, 127
3, 33978, Note_off_c, 1, 65, 0
3, 33984, Note_on_c, 1, 65, 127
3, 34026, Note_off_c, 1, 65, 0
3, 34032, Note_on_c, 1, 65, 127
3, 34074, Note_off_c, 1, 65, 0
3, 34080, Note_on_c, 1, 60, 127
3, 34122, Note_off_c, 1, 60, 0
3, 34224, Note_on_c, 1, 67, 127
3, 34266, Note_off_c, 1, 67, 0
3, 34272, Note_on_c, 1, 60, 127
3, 34293, Note_off_c, 1, 60, 0
3, 34296, Note_on_c, 1, 60, 127
3, 34317, Note_off_c, 1, 60, 0
3, 34320, Note_on_c, 1, 60, 127
3, 34341, Note_off_c, 1, 60, 0
3, 34344, Note_on_c, 1, 60, 127
3, 34365, Note_off_c, 1, 60, 0
3, 34368, Note_on_c, 1, 60, 127
3, 34410, Note_off_c, 1, 60, 0
3, 34512, Note_on_c, 1, 70, 127
3, 34554, Note_off_c, 1, 70, 0
3, 34560, Note_on_c, 1, 60, 127
3, 34581, Note_off_c, 1, 60, 0
3, 34584, Note_on_c, 1, 60, 127
3, 34605, Note_off_c, 1, 60, 0
3, 34608, Note_on_c, 1, 60, 127
3, 34629, Note_off_c, 1, 60, 0
3, 34632, Note_on_c, 1, 60, 127
3, 34653, Note_off_c, 1, 60, 0
3, 34656, Note_on_c, 1, 65, 127
3, 34677, Note_off_c, 1, 65, 0
3, 34680, Note_on_c, 1, 67, 127
3, 34701, Note_off_c, 1, 67, 0
3, 34704, Note_on_c, 1, 65, 127
3, 34725, Note_off_c, 1, 65, 0
3, 34728, Note_on_c, 1, 67, 127
3, 34749, Note_off_c, 1, 67, 0
3, 34752, Note_on_c, 1, 69, 127
3, 34773, Note_off_c, 1, 69, 0
3, 34776, Note_on_c, 1, 67, 127
3, 34797, Note_off_c, 1, 67, 0
3, 34800, Note_on_c, 1, 65, 127
3, 34842, Note_off_c, 1, 65, 0
3, 34848, Note_on_c, 1, 60, 127
3, 34869, Note_off_c, 1, 60, 0
3, 34872, Note_on_c, 1, 60, 127
3, 34893, Note_off_c, 1, 60, 0
3, 34896, Note_on_c, 1, 60, 127
3, 34917, Note_off_c, 1, 60, 0
3, 34920, Note_on_c, 1, 60, 127
3, 34941, Note_off_c, 1, 60, 0
3, 34944, Note_on_c, 1, 57, 127
3, 34986, Note_off_c, 1, 57, 0
3, 34992, Note_on_c, 1, 57, 127
3, 35013, Note_off_c, 1, 57, 0
3, 35016, Note_on_c, 1, 57, 127
3, 35037, Note_off_c, 1, 57, 0
3, 35040, Note_on_c, 1, 57, 127
3, 35061, Note_off_c, 1, 57, 0
3, 35064, Note_on_c, 1, 57, 127
3, 35085, Note_off_c, 1, 57, 0
3, 35088, Note_on_c, 1, 57, 127
3, 35130, Note_off_c, 1, 57, 0
3, 35232, Note_on_c, 1, 57, 127
3, 35274, Note_off_c, 1, 57, 0
3, 35280, Note_on_c, 1, 57, 127
3, 35301, Note_off_c, 1, 57, 0
3, 35304, Note_on_c, 1, 57, 127
3, 35325, Note_off_c, 1, 57, 0
3, 35328, Note_on_c, 1, 57, 127
3, 35349, Note_off_c, 1, 57, 0
3, 35352, Note_on_c, 1, 57, 127
3, 35373, Note_off_c, 1, 57, 0
3, 35376, Tempo, 750000
3, 35376, Note_on_c, 1, 57, 127
3, 35418, Note_off_c, 1, 57, 0
3, 35424, Note_on_c, 1, 57, 127
3, 35445, Note_off_c, 1, 57, 0
3, 35448, Note_on_c, 1, 57, 127
3, 35469, Note_off_c, 1, 57, 0
3, 35472, Note_on_c, 1, 57, 127
3, 35493, Note_off_c, 1, 57, 0
3, 35496, Note_on_c, 1, 57, 127
3, 35517, Note_off_c, 1, 57, 0
3, 35520, Note_on_c, 1, 53, 127
3, 35796, Note_off_c, 1, 53, 0
3, 35796, End_track
4, 0, Start_track
4, 0, Title_t, "Oboe I (Sequenced by:"
4, 0, Control_c, 2, 0, 0
4, 0, Program_c, 2, 68
4, 0, Time_signature, 6, 2, 96, 8
4, 0, Tempo, 600000
4, 96, Tempo, 600000
4, 144, Note_on_c, 2, 65, 62
4, 186, Note_off_c, 2, 65, 0
4, 192, Note_on_c, 2, 65, 62
4, 234, Note_off_c, 2, 65, 0
4, 240, Note_on_c, 2, 65, 62
4, 282, Note_off_c, 2, 65, 0
4, 288, Note_on_c, 2, 69, 62
4, 309, Note_off_c, 2, 69, 0
4, 312, Note_on_c, 2, 67, 62
4, 333, Note_off_c, 2, 67, 0
4, 336, Note_on_c, 2, 69, 62
4, 357, Note_off_c, 2, 69, 0
4, 360, Note_on_c, 2, 65, 62
4, 381, Note_off_c, 2, 65, 0
4, 384, Note_on_c, 2, 72, 62
4, 426, Note_off_c, 2, 72, 0
4, 432, Note_on_c, 2, 72, 62
4, 474, Note_off_c, 2, 72, 0
4, 480, Note_on_c, 2, 72, 62
4, 522, Note_off_c, 2, 72, 0
4, 528, Note_on_c, 2, 72, 62
4, 570, Note_off_c, 2, 72, 0
4, 576, Note_on_c, 2, 76, 62
4, 597, Note_off_c, 2, 76, 0
4, 600, Note_on_c, 2, 74, 62
4, 621, Note_off_c, 2, 74, 0
4, 624, Note_on_c, 2, 76, 62
4, 645, Note_off_c, 2, 76, 0
4, 648, Note_on_c, 2, 72, 62
4, 669, Note_off_c, 2, 72, 0
4, 672, Note_on_c, 2, 77, 62
4, 714, Note_off_c, 2, 77, 0
4, 720, Note_on_c, 2, 77, 62
4, 762, Note_off_c, 2, 77, 0
4, 768, Note_on_c, 2, 77, 62
4, 810, Note_off_c, 2, 77, 0
4, 816, Note_on_c, 2, 77, 62
4, 858, Note_off_c, 2, 77, 0
4, 864, Note_on_c, 2, 79, 62
4, 885, Note_off_c, 2, 79, 0
4, 888, Note_on_c, 2, 77, 62
4, 909, Note_off_c, 2, 77, 0
4, 912, Note_on_c, 2, 76, 62
4, 933, Note_off_c, 2, 76, 0
4, 936, Note_on_c, 2, 74, 62
4, 957, Note_off_c, 2, 74, 0
4, 960, Note_on_c, 2, 76, 62
4, 981, Note_off_c, 2, 76, 0
4, 984, Note_on_c, 2, 77, 62
4, 1005, Note_off_c, 2, 77, 0
4, 1008, Note_on_c, 2, 79, 62
4, 1018, Note_off_c, 2, 79, 0
4, 1020, Note_on_c, 2, 77, 62
4, 1030, Note_off_c, 2, 77, 0
4, 1032, Note_on_c, 2, 79, 62
4, 1042, Note_off_c, 2, 79, 0
4, 1044, Note_on_c, 2, 77, 62
4, 1054, Note_off_c, 2, 77, 0
4, 1056, Note_on_c, 2, 79, 62
4, 1066, Note_off_c, 2, 79, 0
4, 1068, Note_on_c, 2, 77, 62
4, 1078, Note_off_c, 2, 77, 0
4, 1080, Note_on_c, 2, 76, 62
4, 1090, Note_off_c, 2, 76, 0
4, 1092, Note_on_c, 2, 77, 62
4, 1102, Note_off_c, 2, 77, 0
4, 1104, Note_on_c, 2, 79, 62
4, 1146, Note_off_c, 2, 79, 0
4, 1152, Note_on_c, 2, 72, 62
4, 1194, Note_off_c, 2, 72, 0
4, 1200, Note_on_c, 2, 79, 62
4, 1242, Note_off_c, 2, 79, 0
4, 1248, Note_on_c, 2, 81, 62
4, 1269, Note_off_c, 2, 81, 0
4, 1272, Note_on_c, 2, 79, 62
4, 1293, Note_off_c, 2, 79, 0
4, 1296, Note_on_c, 2, 77, 62
4, 1317, Note_off_c, 2, 77, 0
4, 1320, Note_on_c, 2, 76, 62
4, 1341, Note_off_c, 2, 76, 0
4, 1344, Note_on_c, 2, 77, 62
4, 1365, Note_off_c, 2, 77, 0
4, 1368, Note_on_c, 2, 74, 62
4, 1389, Note_off_c, 2, 74, 0
4, 1392, Note_on_c, 2, 79, 62
4, 1413, Note_off_c, 2, 79, 0
4, 1416, Note_on_c, 2, 67, 62
4, 1437, Note_off_c, 2, 67, 0
4, 1440, Note_on_c, 2, 72, 62
4, 1461, Note_off_c, 2, 72, 0
4, 1464, Note_on_c, 2, 74, 62
4, 1485, Note_off_c, 2, 74, 0
4, 1488, Note_on_c, 2, 76, 62
4, 1509, Note_off_c, 2, 76, 0
4, 1512, Note_on_c, 2, 72, 62
4, 1533, Note_off_c, 2, 72, 0
4, 1536, Note_on_c, 2, 77, 62
4, 1557, Note_off_c, 2, 77, 0
4, 1560, Note_on_c, 2, 76, 62
4, 1581, Note_off_c, 2, 76, 0
4, 1584, Note_on_c, 2, 74, 62
4, 1605, Note_off_c, 2, 74, 0
4, 1608, Note_on_c, 2, 72, 62
4, 1629, Note_off_c, 2, 72, 0
4, 1632, Note_on_c, 2, 74, 62
4, 1653, Note_off_c, 2, 74, 0
4, 1656, Note_on_c, 2, 70, 62
4, 1677, Note_off_c, 2, 70, 0
4, 1680, Note_on_c, 2, 76, 62
4, 1701, Note_off_c, 2, 76, 0
4, 1704, Note_on_c, 2, 64, 62
4, 1725, Note_off_c, 2, 64, 0
4, 1728, Note_on_c, 2, 69, 62
4, 1749, Note_off_c, 2, 69, 0
4, 1752, Note_on_c, 2, 70, 62
4, 1773, Note_off_c, 2, 70, 0
4, 1776, Note_on_c, 2, 72, 62
4, 1797, Note_off_c, 2, 72, 0
4, 1800, Note_on_c, 2, 69, 62
4, 1821, Note_off_c, 2, 69, 0
4, 1824, Note_on_c, 2, 74, 62
4, 1845, Note_off_c, 2, 74, 0
4, 1848, Note_on_c, 2, 72, 62
4, 1869, Note_off_c, 2, 72, 0
4, 1872, Note_on_c, 2, 70, 62
4, 1893, Note_off_c, 2, 70, 0
4, 1896, Note_on_c, 2, 69, 62
4, 1917, Note_off_c, 2, 69, 0
4, 1920, Note_on_c, 2, 70, 62
4, 1941, Note_off_c, 2, 70, 0
4, 1944, Note_on_c, 2, 67, 62
4, 1965, Note_off_c, 2, 67, 0
4, 1968, Note_on_c, 2, 72, 62
4, 1989, Note_off_c, 2, 72, 0
4, 1992, Note_on_c, 2, 60, 62
4, 2013, Note_off_c, 2, 60, 0
4, 2016, Note_on_c, 2, 65, 62
4, 2037, Note_off_c, 2, 65, 0
4, 2040, Note_on_c, 2, 67, 62
4, 2061, Note_off_c, 2, 67, 0
4, 2064, Note_on_c, 2, 69, 62
4, 2085, Note_off_c, 2, 69, 0
4, 2088, Note_on_c, 2, 65, 62
4, 2109, Note_off_c, 2, 65, 0
4, 2112, Note_on_c, 2, 70, 62
4, 2154, Note_off_c, 2, 70, 0
4, 2160, Note_on_c, 2, 70, 62
4, 2202, Note_off_c, 2, 70, 0
4, 2208, Note_on_c, 2, 70, 62
4, 2250, Note_off_c, 2, 70, 0
4, 2256, Note_on_c, 2, 70, 62
4, 2277, Note_off_c, 2, 70, 0
4, 2280, Note_on_c, 2, 72, 62
4, 2301, Note_off_c, 2, 72, 0
4, 2304, Note_on_c, 2, 70, 62
4, 2325, Note_off_c, 2, 70, 0
4, 2328, Note_on_c, 2, 69, 62
4, 2349, Note_off_c, 2, 69, 0
4, 2352, Note_on_c, 2, 70, 62
4, 2373, Note_off_c, 2, 70, 0
4, 2376, Note_on_c, 2, 67, 62
4, 2397, Note_off_c, 2, 67, 0
4, 2400, Note_on_c, 2, 79, 62
4, 2442, Note_off_c, 2, 79, 0
4, 2448, Note_on_c, 2, 70, 62
4, 2490, Note_off_c, 2, 70, 0
4, 2496, Note_on_c, 2, 70, 62
4, 2538, Note_off_c, 2, 70, 0
4, 2544, Note_on_c, 2, 70, 62
4, 2586, Note_off_c, 2, 70, 0
4, 2592, Note_on_c, 2, 72, 62
4, 2613, Note_off_c, 2, 72, 0
4, 2616, Note_on_c, 2, 70, 62
4, 2637, Note_off_c, 2, 70, 0
4, 2640, Note_on_c, 2, 69, 62
4, 2661, Note_off_c, 2, 69, 0
4, 2664, Note_on_c, 2, 67, 62
4, 2685, Note_off_c, 2, 67, 0
4, 2688, Note_on_c, 2, 69, 62
4, 2730, Note_off_c, 2, 69, 0
4, 2736, Note_on_c, 2, 69, 62
4, 2778, Note_off_c, 2, 69, 0
4, 2784, Note_on_c, 2, 69, 62
4, 2826, Note_off_c, 2, 69, 0
4, 2832, Note_on_c, 2, 69, 62
4, 2853, Note_off_c, 2, 69, 0
4, 2856, Note_on_c, 2, 70, 62
4, 2877, Note_off_c, 2, 70, 0
4, 2880, Note_on_c, 2, 69, 62
4, 2901, Note_off_c, 2, 69, 0
4, 2904, Note_on_c, 2, 67, 62
4, 2925, Note_off_c, 2, 67, 0
4, 2928, Note_on_c, 2, 69, 62
4, 2949, Note_off_c, 2, 69, 0
4, 2952, Note_on_c, 2, 65, 62
4, 2973, Note_off_c, 2, 65, 0
4, 2976, Note_on_c, 2, 77, 62
4, 3018, Note_off_c, 2, 77, 0
4, 3024, Note_on_c, 2, 69, 62
4, 3066, Note_off_c, 2, 69, 0
4, 3072, Note_on_c, 2, 69, 62
4, 3114, Note_off_c, 2, 69, 0
4, 3120, Note_on_c, 2, 69, 62
4, 3162, Note_off_c, 2, 69, 0
4, 3168, Note_on_c, 2, 70, 62
4, 3189, Note_off_c, 2, 70, 0
4, 3192, Note_on_c, 2, 69, 62
4, 3213, Note_off_c, 2, 69, 0
4, 3216, Note_on_c, 2, 67, 62
4, 3237, Note_off_c, 2, 67, 0
4, 3240, Note_on_c, 2, 65, 62
4, 3261, Note_off_c, 2, 65, 0
4, 3264, Note_on_c, 2, 64, 62
4, 3285, Note_off_c, 2, 64, 0
4, 3288, Note_on_c, 2, 62, 62
4, 3309, Note_off_c, 2, 62, 0
4, 3312, Note_on_c, 2, 64, 62
4, 3333, Note_off_c, 2, 64, 0
4, 3336, Note_on_c, 2, 60, 62
4, 3357, Note_off_c, 2, 60, 0
4, 3360, Note_on_c, 2, 67, 62
4, 3381, Note_off_c, 2, 67, 0
4, 3384, Note_on_c, 2, 65, 62
4, 3405, Note_off_c, 2, 65, 0
4, 3408, Note_on_c, 2, 67, 62
4, 3429, Note_off_c, 2, 67, 0
4, 3432, Note_on_c, 2, 64, 62
4, 3453, Note_off_c, 2, 64, 0
4, 3456, Note_on_c, 2, 70, 62
4, 3477, Note_off_c, 2, 70, 0
4, 3480, Note_on_c, 2, 69, 62
4, 3501, Note_off_c, 2, 69, 0
4, 3504, Note_on_c, 2, 70, 62
4, 3525, Note_off_c, 2, 70, 0
4, 3528, Note_on_c, 2, 67, 62
4, 3549, Note_off_c, 2, 67, 0
4, 3552, Note_on_c, 2, 76, 62
4, 3573, Note_off_c, 2, 76, 0
4, 3576, Note_on_c, 2, 74, 62
4, 3597, Note_off_c, 2, 74, 0
4, 3600, Note_on_c, 2, 76, 62
4, 3621, Note_off_c, 2, 76, 0
4, 3624, Note_on_c, 2, 72, 62
4, 3645, Note_off_c, 2, 72, 0
4, 3648, Note_on_c, 2, 79, 62
4, 3669, Note_off_c, 2, 79, 0
4, 3672, Note_on_c, 2, 77, 62
4, 3693, Note_off_c, 2, 77, 0
4, 3696, Note_on_c, 2, 79, 62
4, 3717, Note_off_c, 2, 79, 0
4, 3720, Note_on_c, 2, 76, 62
4, 3741, Note_off_c, 2, 76, 0
4, 3744, Note_on_c, 2, 82, 62
4, 3765, Note_off_c, 2, 82, 0
4, 3768, Note_on_c, 2, 81, 62
4, 3789, Note_off_c, 2, 81, 0
4, 3792, Note_on_c, 2, 82, 62
4, 3813, Note_off_c, 2, 82, 0
4, 3816, Note_on_c, 2, 79, 62
4, 3837, Note_off_c, 2, 79, 0
4, 3840, Note_on_c, 2, 81, 62
4, 3861, Note_off_c, 2, 81, 0
4, 3864, Note_on_c, 2, 79, 62
4, 3885, Note_off_c, 2, 79, 0
4, 3888, Note_on_c, 2, 81, 62
4, 3909, Note_off_c, 2, 81, 0
4, 3912, Note_on_c, 2, 76, 62
4, 3933, Note_off_c, 2, 76, 0
4, 3936, Note_on_c, 2, 77, 62
4, 3957, Note_off_c, 2, 77, 0
4, 3960, Note_on_c, 2, 76, 62
4, 3981, Note_off_c, 2, 76, 0
4, 3984, Note_on_c, 2, 77, 62
4, 4005, Note_off_c, 2, 77, 0
4, 4008, Note_on_c, 2, 79, 62
4, 4029, Note_off_c, 2, 79, 0
4, 4032, Note_on_c, 2, 79, 62
4, 4095, Note_off_c, 2, 79, 0
4, 4104, Note_on_c, 2, 77, 62
4, 4125, Note_off_c, 2, 77, 0
4, 4128, Note_on_c, 2, 77, 62
4, 4149, Note_off_c, 2, 77, 0
4, 4152, Note_on_c, 2, 76, 62
4, 4173, Note_off_c, 2, 76, 0
4, 4176, Note_on_c, 2, 77, 62
4, 4197, Note_off_c, 2, 77, 0
4, 4200, Note_on_c, 2, 72, 62
4, 4221, Note_off_c, 2, 72, 0
4, 4224, Note_on_c, 2, 74, 62
4, 4245, Note_off_c, 2, 74, 0
4, 4248, Note_on_c, 2, 72, 62
4, 4269, Note_off_c, 2, 72, 0
4, 4272, Note_on_c, 2, 74, 62
4, 4293, Note_off_c, 2, 74, 0
4, 4296, Note_on_c, 2, 69, 62
4, 4317, Note_off_c, 2, 69, 0
4, 4320, Note_on_c, 2, 70, 62
4, 4341, Note_off_c, 2, 70, 0
4, 4344, Note_on_c, 2, 69, 62
4, 4365, Note_off_c, 2, 69, 0
4, 4368, Note_on_c, 2, 70, 62
4, 4389, Note_off_c, 2, 70, 0
4, 4392, Note_on_c, 2, 67, 62
4, 4413, Note_off_c, 2, 67, 0
4, 4416, Note_on_c, 2, 69, 62
4, 4437, Note_off_c, 2, 69, 0
4, 4440, Note_on_c, 2, 67, 62
4, 4461, Note_off_c, 2, 67, 0
4, 4464, Note_on_c, 2, 69, 62
4, 4485, Note_off_c, 2, 69, 0
4, 4488, Note_on_c, 2, 64, 62
4, 4509, Note_off_c, 2, 64, 0
4, 4512, Note_on_c, 2, 65, 62
4, 4533, Note_off_c, 2, 65, 0
4, 4536, Note_on_c, 2, 64, 62
4, 4557, Note_off_c, 2, 64, 0
4, 4560, Note_on_c, 2, 65, 62
4, 4581, Note_off_c, 2, 65, 0
4, 4584, Note_on_c, 2, 67, 62
4, 4605, Note_off_c, 2, 67, 0
4, 4608, Note_on_c, 2, 67, 62
4, 4671, Note_off_c, 2, 67, 0
4, 4680, Note_on_c, 2, 65, 62
4, 4701, Note_off_c, 2, 65, 0
4, 4704, Note_on_c, 2, 65, 62
4, 4746, Note_off_c, 2, 65, 0
4, 5904, Note_on_c, 2, 65, 62
4, 5946, Note_off_c, 2, 65, 0
4, 5952, Note_on_c, 2, 65, 62
4, 5994, Note_off_c, 2, 65, 0
4, 6000, Note_on_c, 2, 65, 62
4, 6042, Note_off_c, 2, 65, 0
4, 6048, Note_on_c, 2, 69, 62
4, 6069, Note_off_c, 2, 69, 0
4, 6072, Note_on_c, 2, 67, 62
4, 6093, Note_off_c, 2, 67, 0
4, 6096, Note_on_c, 2, 69, 62
4, 6117, Note_off_c, 2, 69, 0
4, 6120, Note_on_c, 2, 65, 62
4, 6141, Note_off_c, 2, 65, 0
4, 6144, Note_on_c, 2, 72, 62
4, 6186, Note_off_c, 2, 72, 0
4, 6192, Note_on_c, 2, 72, 62
4, 6234, Note_off_c, 2, 72, 0
4, 6240, Note_on_c, 2, 72, 62
4, 6282, Note_off_c, 2, 72, 0
4, 6288, Note_on_c, 2, 72, 62
4, 6330, Note_off_c, 2, 72, 0
4, 6336, Note_on_c, 2, 76, 62
4, 6357, Note_off_c, 2, 76, 0
4, 6360, Note_on_c, 2, 74, 62
4, 6381, Note_off_c, 2, 74, 0
4, 6384, Note_on_c, 2, 76, 62
4, 6405, Note_off_c, 2, 76, 0
4, 6408, Note_on_c, 2, 72, 62
4, 6429, Note_off_c, 2, 72, 0
4, 6432, Note_on_c, 2, 77, 62
4, 6474, Note_off_c, 2, 77, 0
4, 6480, Note_on_c, 2, 77, 62
4, 6522, Note_off_c, 2, 77, 0
4, 6528, Note_on_c, 2, 77, 62
4, 6570, Note_off_c, 2, 77, 0
4, 6576, Note_on_c, 2, 77, 62
4, 6618, Note_off_c, 2, 77, 0
4, 6624, Note_on_c, 2, 79, 62
4, 6645, Note_off_c, 2, 79, 0
4, 6648, Note_on_c, 2, 77, 62
4, 6669, Note_off_c, 2, 77, 0
4, 6672, Note_on_c, 2, 76, 62
4, 6693, Note_off_c, 2, 76, 0
4, 6696, Note_on_c, 2, 74, 62
4, 6717, Note_off_c, 2, 74, 0
4, 6720, Note_on_c, 2, 76, 62
4, 6741, Note_off_c, 2, 76, 0
4, 6744, Note_on_c, 2, 77, 62
4, 6765, Note_off_c, 2, 77, 0
4, 6768, Note_on_c, 2, 79, 62
4, 6778, Note_off_c, 2, 79, 0
4, 6780, Note_on_c, 2, 77, 62
4, 6790, Note_off_c, 2, 77, 0
4, 6792, Note_on_c, 2, 79, 62
4, 6802, Note_off_c, 2, 79, 0
4, 6804, Note_on_c, 2, 77, 62
4, 6814, Note_off_c, 2, 77, 0
4, 6816, Note_on_c, 2, 79, 62
4, 6826, Note_off_c, 2, 79, 0
4, 6828, Note_on_c, 2, 77, 62
4, 6838, Note_off_c, 2, 77, 0
4, 6840, Note_on_c, 2, 76, 62
4, 6850, Note_off_c, 2, 76, 0
4, 6852, Note_on_c, 2, 77, 62
4, 6862, Note_off_c, 2, 77, 0
4, 6864, Note_on_c, 2, 79, 62
4, 6906, Note_off_c, 2, 79, 0
4, 6912, Note_on_c, 2, 72, 62
4, 6954, Note_off_c, 2, 72, 0
4, 6960, Note_on_c, 2, 76, 62
4, 7002, Note_off_c, 2, 76, 0
4, 7008, Note_on_c, 2, 76, 62
4, 7029, Note_off_c, 2, 76, 0
4, 7032, Note_on_c, 2, 74, 62
4, 7053, Note_off_c, 2, 74, 0
4, 7056, Note_on_c, 2, 72, 62
4, 7077, Note_off_c, 2, 72, 0
4, 7080, Note_on_c, 2, 71, 62
4, 7101, Note_off_c, 2, 71, 0
4, 7104, Note_on_c, 2, 72, 62
4, 7125, Note_off_c, 2, 72, 0
4, 7128, Note_on_c, 2, 69, 62
4, 7149, Note_off_c, 2, 69, 0
4, 7152, Note_on_c, 2, 74, 62
4, 7194, Note_off_c, 2, 74, 0
4, 7200, Note_on_c, 2, 74, 62
4, 7242, Note_off_c, 2, 74, 0
4, 7248, Note_on_c, 2, 74, 62
4, 7290, Note_off_c, 2, 74, 0
4, 7296, Note_on_c, 2, 74, 62
4, 7317, Note_off_c, 2, 74, 0
4, 7320, Note_on_c, 2, 72, 62
4, 7341, Note_off_c, 2, 72, 0
4, 7344, Note_on_c, 2, 71, 62
4, 7365, Note_off_c, 2, 71, 0
4, 7368, Note_on_c, 2, 69, 62
4, 7389, Note_off_c, 2, 69, 0
4, 7392, Note_on_c, 2, 71, 62
4, 7413, Note_off_c, 2, 71, 0
4, 7416, Note_on_c, 2, 67, 62
4, 7437, Note_off_c, 2, 67, 0
4, 7440, Note_on_c, 2, 72, 62
4, 7482, Note_off_c, 2, 72, 0
4, 7488, Note_on_c, 2, 72, 62
4, 7530, Note_off_c, 2, 72, 0
4, 7536, Note_on_c, 2, 72, 62
4, 7578, Note_off_c, 2, 72, 0
4, 7584, Note_on_c, 2, 72, 62
4, 7605, Note_off_c, 2, 72, 0
4, 7608, Note_on_c, 2, 71, 62
4, 7629, Note_off_c, 2, 71, 0
4, 7632, Note_on_c, 2, 69, 62
4, 7653, Note_off_c, 2, 69, 0
4, 7656, Note_on_c, 2, 67, 62
4, 7677, Note_off_c, 2, 67, 0
4, 7680, Note_on_c, 2, 69, 62
4, 7701, Note_off_c, 2, 69, 0
4, 7704, Note_on_c, 2, 65, 62
4, 7725, Note_off_c, 2, 65, 0
4, 7728, Note_on_c, 2, 71, 62
4, 7749, Note_off_c, 2, 71, 0
4, 7752, Note_on_c, 2, 72, 62
4, 7773, Note_off_c, 2, 72, 0
4, 7776, Note_on_c, 2, 71, 62
4, 7797, Note_off_c, 2, 71, 0
4, 7800, Note_on_c, 2, 69, 62
4, 7821, Note_off_c, 2, 69, 0
4, 7824, Note_on_c, 2, 71, 62
4, 7845, Note_off_c, 2, 71, 0
4, 7848, Note_on_c, 2, 67, 62
4, 7869, Note_off_c, 2, 67, 0
4, 7872, Note_on_c, 2, 72, 62
4, 7893, Note_off_c, 2, 72, 0
4, 7896, Note_on_c, 2, 71, 62
4, 7917, Note_off_c, 2, 71, 0
4, 7920, Note_on_c, 2, 72, 62
4, 7941, Note_off_c, 2, 72, 0
4, 7944, Note_on_c, 2, 74, 62
4, 7965, Note_off_c, 2, 74, 0
4, 7968, Note_on_c, 2, 76, 62
4, 7989, Note_off_c, 2, 76, 0
4, 7992, Note_on_c, 2, 72, 62
4, 8013, Note_off_c, 2, 72, 0
4, 8016, Note_on_c, 2, 77, 62
4, 8058, Note_off_c, 2, 77, 0
4, 8064, Note_on_c, 2, 77, 62
4, 8106, Note_off_c, 2, 77, 0
4, 8112, Note_on_c, 2, 77, 62
4, 8154, Note_off_c, 2, 77, 0
4, 8160, Note_on_c, 2, 77, 62
4, 8181, Note_off_c, 2, 77, 0
4, 8184, Note_on_c, 2, 79, 62
4, 8205, Note_off_c, 2, 79, 0
4, 8208, Note_on_c, 2, 77, 62
4, 8229, Note_off_c, 2, 77, 0
4, 8232, Note_on_c, 2, 76, 62
4, 8253, Note_off_c, 2, 76, 0
4, 8256, Note_on_c, 2, 77, 62
4, 8277, Note_off_c, 2, 77, 0
4, 8280, Note_on_c, 2, 74, 62
4, 8301, Note_off_c, 2, 74, 0
4, 8304, Note_on_c, 2, 76, 62
4, 8325, Note_off_c, 2, 76, 0
4, 8328, Note_on_c, 2, 74, 62
4, 8349, Note_off_c, 2, 74, 0
4, 8352, Note_on_c, 2, 76, 62
4, 8373, Note_off_c, 2, 76, 0
4, 8376, Note_on_c, 2, 79, 62
4, 8397, Note_off_c, 2, 79, 0
4, 8400, Note_on_c, 2, 78, 62
4, 8421, Note_off_c, 2, 78, 0
4, 8424, Note_on_c, 2, 81, 62
4, 8445, Note_off_c, 2, 81, 0
4, 8448, Note_on_c, 2, 79, 62
4, 8490, Note_off_c, 2, 79, 0
4, 8496, Note_on_c, 2, 67, 62
4, 8538, Note_off_c, 2, 67, 0
4, 9936, Note_on_c, 2, 72, 62
4, 9978, Note_off_c, 2, 72, 0
4, 9984, Note_on_c, 2, 72, 62
4, 10026, Note_off_c, 2, 72, 0
4, 10032, Note_on_c, 2, 72, 62
4, 10074, Note_off_c, 2, 72, 0
4, 10080, Note_on_c, 2, 76, 62
4, 10101, Note_off_c, 2, 76, 0
4, 10104, Note_on_c, 2, 74, 62
4, 10125, Note_off_c, 2, 74, 0
4, 10128, Note_on_c, 2, 76, 62
4, 10149, Note_off_c, 2, 76, 0
4, 10152, Note_on_c, 2, 72, 62
4, 10173, Note_off_c, 2, 72, 0
4, 10176, Note_on_c, 2, 79, 62
4, 10218, Note_off_c, 2, 79, 0
4, 10224, Note_on_c, 2, 79, 62
4, 10266, Note_off_c, 2, 79, 0
4, 10272, Note_on_c, 2, 79, 62
4, 10314, Note_off_c, 2, 79, 0
4, 10320, Note_on_c, 2, 79, 62
4, 10362, Note_off_c, 2, 79, 0
4, 10368, Note_on_c, 2, 83, 62
4, 10389, Note_off_c, 2, 83, 0
4, 10392, Note_on_c, 2, 81, 62
4, 10413, Note_off_c, 2, 81, 0
4, 10416, Note_on_c, 2, 83, 62
4, 10437, Note_off_c, 2, 83, 0
4, 10440, Note_on_c, 2, 79, 62
4, 10461, Note_off_c, 2, 79, 0
4, 10464, Note_on_c, 2, 84, 62
4, 10506, Note_off_c, 2, 84, 0
4, 10512, Note_on_c, 2, 84, 62
4, 10554, Note_off_c, 2, 84, 0
4, 10560, Note_on_c, 2, 84, 62
4, 10602, Note_off_c, 2, 84, 0
4, 10608, Note_on_c, 2, 84, 62
4, 10650, Note_off_c, 2, 84, 0
4, 10656, Note_on_c, 2, 86, 62
4, 10677, Note_off_c, 2, 86, 0
4, 10680, Note_on_c, 2, 84, 62
4, 10701, Note_off_c, 2, 84, 0
4, 10704, Note_on_c, 2, 83, 62
4, 10725, Note_off_c, 2, 83, 0
4, 10728, Note_on_c, 2, 81, 62
4, 10749, Note_off_c, 2, 81, 0
4, 10752, Note_on_c, 2, 83, 62
4, 10773, Note_off_c, 2, 83, 0
4, 10776, Note_on_c, 2, 84, 62
4, 10797, Note_off_c, 2, 84, 0
4, 10800, Note_on_c, 2, 86, 62
4, 10810, Note_off_c, 2, 86, 0
4, 10812, Note_on_c, 2, 84, 62
4, 10822, Note_off_c, 2, 84, 0
4, 10824, Note_on_c, 2, 86, 62
4, 10834, Note_off_c, 2, 86, 0
4, 10836, Note_on_c, 2, 84, 62
4, 10846, Note_off_c, 2, 84, 0
4, 10848, Note_on_c, 2, 86, 62
4, 10858, Note_off_c, 2, 86, 0
4, 10860, Note_on_c, 2, 84, 62
4, 10870, Note_off_c, 2, 84, 0
4, 10872, Note_on_c, 2, 83, 62
4, 10882, Note_off_c, 2, 83, 0
4, 10884, Note_on_c, 2, 84, 62
4, 10894, Note_off_c, 2, 84, 0
4, 10896, Note_on_c, 2, 86, 62
4, 10938, Note_off_c, 2, 86, 0
4, 10944, Note_on_c, 2, 79, 62
4, 10986, Note_off_c, 2, 79, 0
4, 12480, Note_on_c, 2, 74, 96
4, 12501, Note_off_c, 2, 74, 0
4, 12504, Note_on_c, 2, 76, 96
4, 12525, Note_off_c, 2, 76, 0
4, 12528, Note_on_c, 2, 74, 96
4, 12549, Note_off_c, 2, 74, 0
4, 12552, Note_on_c, 2, 76, 96
4, 12573, Note_off_c, 2, 76, 0
4, 12576, Note_on_c, 2, 77, 96
4, 12597, Note_off_c, 2, 77, 0
4, 12600, Note_on_c, 2, 76, 96
4, 12621, Note_off_c, 2, 76, 0
4, 12624, Note_on_c, 2, 74, 96
4, 12666, Note_off_c, 2, 74, 0
4, 12672, Note_on_c, 2, 74, 96
4, 12714, Note_off_c, 2, 74, 0
4, 12720, Note_on_c, 2, 74, 96
4, 12762, Note_off_c, 2, 74, 0
4, 12768, Note_on_c, 2, 74, 96
4, 12789, Note_off_c, 2, 74, 0
4, 12792, Note_on_c, 2, 76, 96
4, 12813, Note_off_c, 2, 76, 0
4, 12816, Note_on_c, 2, 74, 96
4, 12837, Note_off_c, 2, 74, 0
4, 12840, Note_on_c, 2, 76, 96
4, 12861, Note_off_c, 2, 76, 0
4, 12864, Note_on_c, 2, 77, 96
4, 12885, Note_off_c, 2, 77, 0
4, 12888, Note_on_c, 2, 76, 96
4, 12909, Note_off_c, 2, 76, 0
4, 12912, Note_on_c, 2, 74, 96
4, 12954, Note_off_c, 2, 74, 0
4, 12960, Note_on_c, 2, 74, 96
4, 13002, Note_off_c, 2, 74, 0
4, 13008, Note_on_c, 2, 74, 96
4, 13050, Note_off_c, 2, 74, 0
4, 13056, Note_on_c, 2, 72, 96
4, 13077, Note_off_c, 2, 72, 0
4, 13080, Note_on_c, 2, 74, 96
4, 13101, Note_off_c, 2, 74, 0
4, 13104, Note_on_c, 2, 72, 96
4, 13125, Note_off_c, 2, 72, 0
4, 13128, Note_on_c, 2, 74, 96
4, 13149, Note_off_c, 2, 74, 0
4, 13152, Note_on_c, 2, 76, 96
4, 13173, Note_off_c, 2, 76, 0
4, 13176, Note_on_c, 2, 74, 96
4, 13197, Note_off_c, 2, 74, 0
4, 13200, Note_on_c, 2, 72, 96
4, 13242, Note_off_c, 2, 72, 0
4, 13248, Note_on_c, 2, 72, 96
4, 13290, Note_off_c, 2, 72, 0
4, 13296, Note_on_c, 2, 72, 96
4, 13338, Note_off_c, 2, 72, 0
4, 13344, Note_on_c, 2, 72, 96
4, 13365, Note_off_c, 2, 72, 0
4, 13368, Note_on_c, 2, 74, 96
4, 13389, Note_off_c, 2, 74, 0
4, 13392, Note_on_c, 2, 72, 96
4, 13413, Note_off_c, 2, 72, 0
4, 13416, Note_on_c, 2, 74, 96
4, 13437, Note_off_c, 2, 74, 0
4, 13440, Note_on_c, 2, 76, 96
4, 13461, Note_off_c, 2, 76, 0
4, 13464, Note_on_c, 2, 74, 96
4, 13485, Note_off_c, 2, 74, 0
4, 13488, Note_on_c, 2, 72, 96
4, 13530, Note_off_c, 2, 72, 0
4, 13536, Note_on_c, 2, 74, 96
4, 13557, Note_off_c, 2, 74, 0
4, 13560, Note_on_c, 2, 72, 96
4, 13581, Note_off_c, 2, 72, 0
4, 13584, Note_on_c, 2, 71, 96
4, 13605, Note_off_c, 2, 71, 0
4, 13608, Note_on_c, 2, 72, 96
4, 13629, Note_off_c, 2, 72, 0
4, 13632, Note_on_c, 2, 74, 96
4, 13674, Note_off_c, 2, 74, 0
4, 13776, Note_on_c, 2, 79, 96
4, 13818, Note_off_c, 2, 79, 0
4, 13920, Note_on_c, 2, 74, 96
4, 13962, Note_off_c, 2, 74, 0
4, 14064, Note_on_c, 2, 71, 96
4, 14106, Note_off_c, 2, 71, 0
4, 14208, Note_on_c, 2, 72, 96
4, 14229, Note_off_c, 2, 72, 0
4, 14232, Note_on_c, 2, 74, 96
4, 14253, Note_off_c, 2, 74, 0
4, 14256, Note_on_c, 2, 72, 96
4, 14277, Note_off_c, 2, 72, 0
4, 14280, Note_on_c, 2, 74, 96
4, 14301, Note_off_c, 2, 74, 0
4, 14304, Note_on_c, 2, 76, 96
4, 14325, Note_off_c, 2, 76, 0
4, 14328, Note_on_c, 2, 74, 96
4, 14349, Note_off_c, 2, 74, 0
4, 14352, Note_on_c, 2, 72, 96
4, 14373, Note_off_c, 2, 72, 0
4, 14376, Note_on_c, 2, 74, 96
4, 14397, Note_off_c, 2, 74, 0
4, 14400, Note_on_c, 2, 71, 96
4, 14463, Note_off_c, 2, 71, 0
4, 14472, Note_on_c, 2, 72, 96
4, 14493, Note_off_c, 2, 72, 0
4, 14496, Note_on_c, 2, 72, 96
4, 14538, Note_off_c, 2, 72, 0
4, 15264, Note_on_c, 2, 77, 62
4, 15285, Note_off_c, 2, 77, 0
4, 15288, Note_on_c, 2, 76, 62
4, 15309, Note_off_c, 2, 76, 0
4, 15312, Note_on_c, 2, 77, 62
4, 15333, Note_off_c, 2, 77, 0
4, 15336, Note_on_c, 2, 72, 62
4, 15357, Note_off_c, 2, 72, 0
4, 15360, Note_on_c, 2, 74, 62
4, 15402, Note_off_c, 2, 74, 0
4, 15600, Note_on_c, 2, 81, 62
4, 15690, Note_off_c, 2, 81, 0
4, 15696, Note_on_c, 2, 83, 62
4, 15738, Note_off_c, 2, 83, 0
4, 15744, Note_on_c, 2, 81, 62
4, 15754, Note_off_c, 2, 81, 0
4, 15756, Note_on_c, 2, 80, 62
4, 15766, Note_off_c, 2, 80, 0
4, 15768, Note_on_c, 2, 81, 62
4, 15778, Note_off_c, 2, 81, 0
4, 15780, Note_on_c, 2, 80, 62
4, 15790, Note_off_c, 2, 80, 0
4, 15792, Note_on_c, 2, 81, 62
4, 15802, Note_off_c, 2, 81, 0
4, 15804, Note_on_c, 2, 80, 62
4, 15814, Note_off_c, 2, 80, 0
4, 15816, Note_on_c, 2, 83, 62
4, 15837, Note_off_c, 2, 83, 0
4, 15840, Note_on_c, 2, 81, 62
4, 15861, Note_off_c, 2, 81, 0
4, 15864, Note_on_c, 2, 80, 62
4, 15885, Note_off_c, 2, 80, 0
4, 15888, Note_on_c, 2, 81, 62
4, 15909, Note_off_c, 2, 81, 0
4, 15912, Note_on_c, 2, 83, 62
4, 15933, Note_off_c, 2, 83, 0
4, 15936, Note_on_c, 2, 76, 62
4, 16122, Note_off_c, 2, 76, 0
4, 16128, Note_on_c, 2, 69, 62
4, 16138, Note_off_c, 2, 69, 0
4, 16140, Note_on_c, 2, 68, 62
4, 16150, Note_off_c, 2, 68, 0
4, 16152, Note_on_c, 2, 69, 62
4, 16162, Note_off_c, 2, 69, 0
4, 16164, Note_on_c, 2, 68, 62
4, 16174, Note_off_c, 2, 68, 0
4, 16176, Note_on_c, 2, 69, 62
4, 16218, Note_off_c, 2, 69, 0
4, 16224, Note_on_c, 2, 71, 62
4, 16245, Note_off_c, 2, 71, 0
4, 16248, Note_on_c, 2, 72, 62
4, 16269, Note_off_c, 2, 72, 0
4, 16272, Note_on_c, 2, 71, 62
4, 16293, Note_off_c, 2, 71, 0
4, 16296, Note_on_c, 2, 68, 62
4, 16317, Note_off_c, 2, 68, 0
4, 16320, Note_on_c, 2, 69, 62
4, 16341, Note_off_c, 2, 69, 0
4, 16344, Note_on_c, 2, 71, 62
4, 16365, Note_off_c, 2, 71, 0
4, 16368, Note_on_c, 2, 64, 62
4, 16410, Note_off_c, 2, 64, 0
4, 16416, Note_on_c, 2, 76, 62
4, 16554, Note_off_c, 2, 76, 0
4, 16560, Note_on_c, 2, 74, 62
4, 16602, Note_off_c, 2, 74, 0
4, 16608, Note_on_c, 2, 81, 62
4, 16698, Note_off_c, 2, 81, 0
4, 16704, Note_on_c, 2, 81, 62
4, 16714, Note_off_c, 2, 81, 0
4, 16716, Note_on_c, 2, 80, 62
4, 16726, Note_off_c, 2, 80, 0
4, 16728, Note_on_c, 2, 81, 62
4, 16738, Note_off_c, 2, 81, 0
4, 16740, Note_on_c, 2, 80, 62
4, 16750, Note_off_c, 2, 80, 0
4, 16752, Note_on_c, 2, 81, 62
4, 16794, Note_off_c, 2, 81, 0
4, 16800, Note_on_c, 2, 74, 62
4, 16842, Note_off_c, 2, 74, 0
4, 16848, Note_on_c, 2, 71, 62
4, 16890, Note_off_c, 2, 71, 0
4, 16896, Note_on_c, 2, 72, 62
4, 16965, Note_off_c, 2, 72, 0
4, 16968, Note_on_c, 2, 74, 62
4, 16989, Note_off_c, 2, 74, 0
4, 16992, Note_on_c, 2, 68, 62
4, 17055, Note_off_c, 2, 68, 0
4, 17064, Note_on_c, 2, 69, 62
4, 17085, Note_off_c, 2, 69, 0
4, 17088, Note_on_c, 2, 69, 62
4, 17130, Note_off_c, 2, 69, 0
4, 17136, Note_on_c, 2, 81, 62
4, 17157, Note_off_c, 2, 81, 0
4, 17160, Note_on_c, 2, 80, 62
4, 17181, Note_off_c, 2, 80, 0
4, 17184, Note_on_c, 2, 81, 62
4, 17205, Note_off_c, 2, 81, 0
4, 17208, Note_on_c, 2, 76, 62
4, 17229, Note_off_c, 2, 76, 0
4, 17232, Note_on_c, 2, 77, 62
4, 17274, Note_off_c, 2, 77, 0
4, 17424, Note_on_c, 2, 79, 62
4, 17445, Note_off_c, 2, 79, 0
4, 17448, Note_on_c, 2, 78, 62
4, 17469, Note_off_c, 2, 78, 0
4, 17472, Note_on_c, 2, 79, 62
4, 17493, Note_off_c, 2, 79, 0
4, 17496, Note_on_c, 2, 74, 62
4, 17517, Note_off_c, 2, 74, 0
4, 17520, Note_on_c, 2, 76, 62
4, 17562, Note_off_c, 2, 76, 0
4, 18120, Note_on_c, 2, 64, 127
4, 18141, Note_off_c, 2, 64, 0
4, 18144, Note_on_c, 2, 69, 127
4, 18165, Note_off_c, 2, 69, 0
4, 18168, Note_on_c, 2, 71, 127
4, 18189, Note_off_c, 2, 71, 0
4, 18192, Note_on_c, 2, 72, 127
4, 18213, Note_off_c, 2, 72, 0
4, 18216, Note_on_c, 2, 69, 127
4, 18237, Note_off_c, 2, 69, 0
4, 18240, Note_on_c, 2, 74, 127
4, 18282, Note_off_c, 2, 74, 0
4, 18288, Note_on_c, 2, 74, 127
4, 18330, Note_off_c, 2, 74, 0
4, 18336, Note_on_c, 2, 74, 127
4, 18378, Note_off_c, 2, 74, 0
4, 18384, Note_on_c, 2, 74, 127
4, 18405, Note_off_c, 2, 74, 0
4, 18408, Note_on_c, 2, 76, 127
4, 18429, Note_off_c, 2, 76, 0
4, 18432, Note_on_c, 2, 74, 127
4, 18453, Note_off_c, 2, 74, 0
4, 18456, Note_on_c, 2, 72, 127
4, 18477, Note_off_c, 2, 72, 0
4, 18480, Note_on_c, 2, 74, 127
4, 18501, Note_off_c, 2, 74, 0
4, 18504, Note_on_c, 2, 71, 127
4, 18525, Note_off_c, 2, 71, 0
4, 18528, Note_on_c, 2, 83, 127
4, 18570, Note_off_c, 2, 83, 0
4, 18576, Note_on_c, 2, 74, 127
4, 18618, Note_off_c, 2, 74, 0
4, 18624, Note_on_c, 2, 74, 127
4, 18666, Note_off_c, 2, 74, 0
4, 18672, Note_on_c, 2, 74, 127
4, 18714, Note_off_c, 2, 74, 0
4, 18720, Note_on_c, 2, 76, 127
4, 18741, Note_off_c, 2, 76, 0
4, 18744, Note_on_c, 2, 74, 127
4, 18765, Note_off_c, 2, 74, 0
4, 18768, Note_on_c, 2, 72, 127
4, 18789, Note_off_c, 2, 72, 0
4, 18792, Note_on_c, 2, 71, 127
4, 18813, Note_off_c, 2, 71, 0
4, 18816, Note_on_c, 2, 72, 127
4, 18858, Note_off_c, 2, 72, 0
4, 18864, Note_on_c, 2, 72, 127
4, 18906, Note_off_c, 2, 72, 0
4, 18912, Note_on_c, 2, 72, 127
4, 18954, Note_off_c, 2, 72, 0
4, 18960, Note_on_c, 2, 72, 127
4, 18981, Note_off_c, 2, 72, 0
4, 18984, Note_on_c, 2, 74, 127
4, 19005, Note_off_c, 2, 74, 0
4, 19008, Note_on_c, 2, 72, 127
4, 19029, Note_off_c, 2, 72, 0
4, 19032, Note_on_c, 2, 71, 127
4, 19053, Note_off_c, 2, 71, 0
4, 19056, Note_on_c, 2, 72, 127
4, 19077, Note_off_c, 2, 72, 0
4, 19080, Note_on_c, 2, 69, 127
4, 19101, Note_off_c, 2, 69, 0
4, 19104, Note_on_c, 2, 81, 127
4, 19146, Note_off_c, 2, 81, 0
4, 19152, Note_on_c, 2, 72, 127
4, 19194, Note_off_c, 2, 72, 0
4, 19200, Note_on_c, 2, 72, 127
4, 19242, Note_off_c, 2, 72, 0
4, 19248, Note_on_c, 2, 72, 127
4, 19290, Note_off_c, 2, 72, 0
4, 19296, Note_on_c, 2, 74, 127
4, 19317, Note_off_c, 2, 74, 0
4, 19320, Note_on_c, 2, 72, 127
4, 19341, Note_off_c, 2, 72, 0
4, 19344, Note_on_c, 2, 71, 127
4, 19365, Note_off_c, 2, 71, 0
4, 19368, Note_on_c, 2, 69, 127
4, 19389, Note_off_c, 2, 69, 0
4, 19392, Note_on_c, 2, 68, 127
4, 19413, Note_off_c, 2, 68, 0
4, 19416, Note_on_c, 2, 66, 127
4, 19437, Note_off_c, 2, 66, 0
4, 19440, Note_on_c, 2, 68, 127
4, 19461, Note_off_c, 2, 68, 0
4, 19464, Note_on_c, 2, 64, 127
4, 19485, Note_off_c, 2, 64, 0
4, 19488, Note_on_c, 2, 71, 127
4, 19509, Note_off_c, 2, 71, 0
4, 19512, Note_on_c, 2, 69, 127
4, 19533, Note_off_c, 2, 69, 0
4, 19536, Note_on_c, 2, 71, 127
4, 19557, Note_off_c, 2, 71, 0
4, 19560, Note_on_c, 2, 68, 127
4, 19581, Note_off_c, 2, 68, 0
4, 19584, Note_on_c, 2, 74, 127
4, 19605, Note_off_c, 2, 74, 0
4, 19608, Note_on_c, 2, 72, 127
4, 19629, Note_off_c, 2, 72, 0
4, 19632, Note_on_c, 2, 74, 127
4, 19653, Note_off_c, 2, 74, 0
4, 19656, Note_on_c, 2, 71, 127
4, 19677, Note_off_c, 2, 71, 0
4, 19680, Note_on_c, 2, 72, 127
4, 19701, Note_off_c, 2, 72, 0
4, 19704, Note_on_c, 2, 71, 127
4, 19725, Note_off_c, 2, 71, 0
4, 19728, Note_on_c, 2, 72, 127
4, 19749, Note_off_c, 2, 72, 0
4, 19752, Note_on_c, 2, 68, 127
4, 19773, Note_off_c, 2, 68, 0
4, 19776, Note_on_c, 2, 69, 127
4, 19797, Note_off_c, 2, 69, 0
4, 19800, Note_on_c, 2, 68, 127
4, 19821, Note_off_c, 2, 68, 0
4, 19824, Note_on_c, 2, 69, 127
4, 19845, Note_off_c, 2, 69, 0
4, 19848, Note_on_c, 2, 71, 127
4, 19869, Note_off_c, 2, 71, 0
4, 19872, Note_on_c, 2, 71, 127
4, 19935, Note_off_c, 2, 71, 0
4, 19944, Note_on_c, 2, 69, 127
4, 19965, Note_off_c, 2, 69, 0
4, 19968, Note_on_c, 2, 69, 62
4, 20010, Note_off_c, 2, 69, 0
4, 20160, Note_on_c, 2, 69, 62
4, 20202, Note_off_c, 2, 69, 0
4, 20208, Note_on_c, 2, 74, 62
4, 20250, Note_off_c, 2, 74, 0
4, 20256, Note_on_c, 2, 70, 62
4, 20298, Note_off_c, 2, 70, 0
4, 20448, Note_on_c, 2, 67, 62
4, 20490, Note_off_c, 2, 67, 0
4, 20496, Note_on_c, 2, 72, 62
4, 20538, Note_off_c, 2, 72, 0
4, 20544, Note_on_c, 2, 69, 62
4, 20586, Note_off_c, 2, 69, 0
4, 20880, Note_on_c, 2, 74, 62
4, 20922, Note_off_c, 2, 74, 0
4, 20928, Note_on_c, 2, 79, 62
4, 20970, Note_off_c, 2, 79, 0
4, 20976, Note_on_c, 2, 75, 62
4, 21018, Note_off_c, 2, 75, 0
4, 21168, Note_on_c, 2, 72, 62
4, 21210, Note_off_c, 2, 72, 0
4, 21216, Note_on_c, 2, 77, 62
4, 21258, Note_off_c, 2, 77, 0
4, 21264, Note_on_c, 2, 74, 62
4, 21285, Note_off_c, 2, 74, 0
4, 21288, Note_on_c, 2, 75, 62
4, 21309, Note_off_c, 2, 75, 0
4, 21312, Note_on_c, 2, 74, 62
4, 21333, Note_off_c, 2, 74, 0
4, 21336, Note_on_c, 2, 75, 62
4, 21357, Note_off_c, 2, 75, 0
4, 21360, Note_on_c, 2, 77, 62
4, 21381, Note_off_c, 2, 77, 0
4, 21384, Note_on_c, 2, 74, 62
4, 21405, Note_off_c, 2, 74, 0
4, 21408, Note_on_c, 2, 75, 62
4, 21450, Note_off_c, 2, 75, 0
4, 22896, Note_on_c, 2, 82, 49
4, 22938, Note_off_c, 2, 82, 0
4, 22944, Note_on_c, 2, 82, 49
4, 22986, Note_off_c, 2, 82, 0
4, 22992, Note_on_c, 2, 82, 49
4, 23013, Note_off_c, 2, 82, 0
4, 23016, Note_on_c, 2, 81, 49
4, 23037, Note_off_c, 2, 81, 0
4, 23040, Note_on_c, 2, 79, 49
4, 23061, Note_off_c, 2, 79, 0
4, 23064, Note_on_c, 2, 77, 49
4, 23085, Note_off_c, 2, 77, 0
4, 23088, Note_on_c, 2, 79, 49
4, 23109, Note_off_c, 2, 79, 0
4, 23112, Note_on_c, 2, 75, 49
4, 23133, Note_off_c, 2, 75, 0
4, 23136, Note_on_c, 2, 81, 49
4, 23178, Note_off_c, 2, 81, 0
4, 23184, Note_on_c, 2, 82, 49
4, 23194, Note_off_c, 2, 82, 0
4, 23196, Note_on_c, 2, 81, 49
4, 23206, Note_off_c, 2, 81, 0
4, 23208, Note_on_c, 2, 82, 49
4, 23218, Note_off_c, 2, 82, 0
4, 23220, Note_on_c, 2, 81, 49
4, 23230, Note_off_c, 2, 81, 0
4, 23232, Note_on_c, 2, 82, 49
4, 23242, Note_off_c, 2, 82, 0
4, 23244, Note_on_c, 2, 81, 49
4, 23254, Note_off_c, 2, 81, 0
4, 23256, Note_on_c, 2, 79, 49
4, 23266, Note_off_c, 2, 79, 0
4, 23268, Note_on_c, 2, 81, 49
4, 23278, Note_off_c, 2, 81, 0
4, 23280, Note_on_c, 2, 82, 49
4, 23322, Note_off_c, 2, 82, 0
4, 23424, Tempo, 1500000
4, 23616, Time_signature, 2, 2, 96, 8
4, 23808, Time_signature, 6, 2, 96, 8
4, 23904, Tempo, 600000
4, 23904, Note_on_c, 2, 77, 96
4, 23946, Note_off_c, 2, 77, 0
4, 23952, Note_on_c, 2, 82, 96
4, 23994, Note_off_c, 2, 82, 0
4, 24000, Note_on_c, 2, 81, 62
4, 24042, Note_off_c, 2, 81, 0
4, 24048, Note_on_c, 2, 77, 62
4, 24090, Note_off_c, 2, 77, 0
4, 25200, Note_on_c, 2, 65, 62
4, 25242, Note_off_c, 2, 65, 0
4, 25248, Note_on_c, 2, 65, 62
4, 25290, Note_off_c, 2, 65, 0
4, 25296, Note_on_c, 2, 65, 62
4, 25338, Note_off_c, 2, 65, 0
4, 25344, Note_on_c, 2, 69, 62
4, 25365, Note_off_c, 2, 69, 0
4, 25368, Note_on_c, 2, 67, 62
4, 25389, Note_off_c, 2, 67, 0
4, 25392, Note_on_c, 2, 69, 62
4, 25413, Note_off_c, 2, 69, 0
4, 25416, Note_on_c, 2, 65, 62
4, 25437, Note_off_c, 2, 65, 0
4, 25440, Note_on_c, 2, 72, 62
4, 25482, Note_off_c, 2, 72, 0
4, 25488, Note_on_c, 2, 72, 62
4, 25530, Note_off_c, 2, 72, 0
4, 25536, Note_on_c, 2, 72, 62
4, 25578, Note_off_c, 2, 72, 0
4, 25584, Note_on_c, 2, 72, 62
4, 25626, Note_off_c, 2, 72, 0
4, 25632, Note_on_c, 2, 76, 62
4, 25653, Note_off_c, 2, 76, 0
4, 25656, Note_on_c, 2, 74, 62
4, 25677, Note_off_c, 2, 74, 0
4, 25680, Note_on_c, 2, 76, 62
4, 25701, Note_off_c, 2, 76, 0
4, 25704, Note_on_c, 2, 72, 62
4, 25725, Note_off_c, 2, 72, 0
4, 25728, Note_on_c, 2, 77, 62
4, 25770, Note_off_c, 2, 77, 0
4, 25776, Note_on_c, 2, 77, 62
4, 25818, Note_off_c, 2, 77, 0
4, 25824, Note_on_c, 2, 77, 62
4, 25866, Note_off_c, 2, 77, 0
4, 25872, Note_on_c, 2, 77, 62
4, 25914, Note_off_c, 2, 77, 0
4, 25920, Note_on_c, 2, 79, 62
4, 25941, Note_off_c, 2, 79, 0
4, 25944, Note_on_c, 2, 77, 62
4, 25965, Note_off_c, 2, 77, 0
4, 25968, Note_on_c, 2, 76, 62
4, 25989, Note_off_c, 2, 76, 0
4, 25992, Note_on_c, 2, 74, 62
4, 26013, Note_off_c, 2, 74, 0
4, 26016, Note_on_c, 2, 76, 62
4, 26037, Note_off_c, 2, 76, 0
4, 26040, Note_on_c, 2, 77, 62
4, 26061, Note_off_c, 2, 77, 0
4, 26064, Note_on_c, 2, 79, 62
4, 26074, Note_off_c, 2, 79, 0
4, 26076, Note_on_c, 2, 77, 62
4, 26086, Note_off_c, 2, 77, 0
4, 26088, Note_on_c, 2, 79, 62
4, 26098, Note_off_c, 2, 79, 0
4, 26100, Note_on_c, 2, 77, 62
4, 26110, Note_off_c, 2, 77, 0
4, 26112, Note_on_c, 2, 79, 62
4, 26122, Note_off_c, 2, 79, 0
4, 26124, Note_on_c, 2, 77, 62
4, 26134, Note_off_c, 2, 77, 0
4, 26136, Note_on_c, 2, 76, 62
4, 26146, Note_off_c, 2, 76, 0
4, 26148, Note_on_c, 2, 77, 62
4, 26158, Note_off_c, 2, 77, 0
4, 26160, Note_on_c, 2, 79, 62
4, 26202, Note_off_c, 2, 79, 0
4, 26208, Note_on_c, 2, 72, 62
4, 26250, Note_off_c, 2, 72, 0
4, 26352, Note_on_c, 2, 77, 62
4, 26373, Note_off_c, 2, 77, 0
4, 26376, Note_on_c, 2, 76, 62
4, 26397, Note_off_c, 2, 76, 0
4, 26400, Note_on_c, 2, 77, 62
4, 26421, Note_off_c, 2, 77, 0
4, 26424, Note_on_c, 2, 72, 62
4, 26445, Note_off_c, 2, 72, 0
4, 26448, Note_on_c, 2, 74, 62
4, 26490, Note_off_c, 2, 74, 0
4, 26496, Note_on_c, 2, 74, 62
4, 26538, Note_off_c, 2, 74, 0
4, 26544, Note_on_c, 2, 74, 62
4, 26586, Note_off_c, 2, 74, 0
4, 26592, Note_on_c, 2, 74, 62
4, 26613, Note_off_c, 2, 74, 0
4, 26616, Note_on_c, 2, 72, 62
4, 26637, Note_off_c, 2, 72, 0
4, 26640, Note_on_c, 2, 70, 62
4, 26661, Note_off_c, 2, 70, 0
4, 26664, Note_on_c, 2, 69, 62
4, 26685, Note_off_c, 2, 69, 0
4, 26688, Note_on_c, 2, 70, 62
4, 26709, Note_off_c, 2, 70, 0
4, 26712, Note_on_c, 2, 67, 62
4, 26733, Note_off_c, 2, 67, 0
4, 26736, Note_on_c, 2, 72, 62
4, 26778, Note_off_c, 2, 72, 0
4, 26784, Note_on_c, 2, 72, 62
4, 26826, Note_off_c, 2, 72, 0
4, 26832, Note_on_c, 2, 72, 62
4, 26874, Note_off_c, 2, 72, 0
4, 26880, Note_on_c, 2, 72, 62
4, 26901, Note_off_c, 2, 72, 0
4, 26904, Note_on_c, 2, 70, 62
4, 26925, Note_off_c, 2, 70, 0
4, 26928, Note_on_c, 2, 69, 62
4, 26949, Note_off_c, 2, 69, 0
4, 26952, Note_on_c, 2, 67, 62
4, 26973, Note_off_c, 2, 67, 0
4, 26976, Note_on_c, 2, 69, 62
4, 26997, Note_off_c, 2, 69, 0
4, 27000, Note_on_c, 2, 65, 62
4, 27021, Note_off_c, 2, 65, 0
4, 27024, Note_on_c, 2, 70, 62
4, 27066, Note_off_c, 2, 70, 0
4, 27072, Note_on_c, 2, 70, 62
4, 27114, Note_off_c, 2, 70, 0
4, 27120, Note_on_c, 2, 70, 62
4, 27162, Note_off_c, 2, 70, 0
4, 27168, Note_on_c, 2, 70, 62
4, 27189, Note_off_c, 2, 70, 0
4, 27192, Note_on_c, 2, 69, 62
4, 27213, Note_off_c, 2, 69, 0
4, 27216, Note_on_c, 2, 67, 62
4, 27237, Note_off_c, 2, 67, 0
4, 27240, Note_on_c, 2, 65, 62
4, 27261, Note_off_c, 2, 65, 0
4, 27264, Note_on_c, 2, 67, 62
4, 27285, Note_off_c, 2, 67, 0
4, 27288, Note_on_c, 2, 64, 62
4, 27309, Note_off_c, 2, 64, 0
4, 27312, Note_on_c, 2, 69, 62
4, 27354, Note_off_c, 2, 69, 0
4, 27360, Note_on_c, 2, 69, 62
4, 27402, Note_off_c, 2, 69, 0
4, 27408, Note_on_c, 2, 69, 62
4, 27450, Note_off_c, 2, 69, 0
4, 27456, Note_on_c, 2, 69, 62
4, 27477, Note_off_c, 2, 69, 0
4, 27480, Note_on_c, 2, 70, 62
4, 27501, Note_off_c, 2, 70, 0
4, 27504, Note_on_c, 2, 69, 62
4, 27525, Note_off_c, 2, 69, 0
4, 27528, Note_on_c, 2, 67, 62
4, 27549, Note_off_c, 2, 67, 0
4, 27552, Note_on_c, 2, 69, 62
4, 27573, Note_off_c, 2, 69, 0
4, 27576, Note_on_c, 2, 65, 62
4, 27597, Note_off_c, 2, 65, 0
4, 27600, Note_on_c, 2, 67, 62
4, 27621, Note_off_c, 2, 67, 0
4, 27624, Note_on_c, 2, 69, 62
4, 27645, Note_off_c, 2, 69, 0
4, 27648, Note_on_c, 2, 67, 62
4, 27669, Note_off_c, 2, 67, 0
4, 27672, Note_on_c, 2, 65, 62
4, 27693, Note_off_c, 2, 65, 0
4, 27696, Note_on_c, 2, 67, 62
4, 27717, Note_off_c, 2, 67, 0
4, 27720, Note_on_c, 2, 64, 62
4, 27741, Note_off_c, 2, 64, 0
4, 27744, Note_on_c, 2, 65, 62
4, 27765, Note_off_c, 2, 65, 0
4, 27768, Note_on_c, 2, 67, 62
4, 27789, Note_off_c, 2, 67, 0
4, 27792, Note_on_c, 2, 65, 62
4, 27813, Note_off_c, 2, 65, 0
4, 27816, Note_on_c, 2, 64, 62
4, 27837, Note_off_c, 2, 64, 0
4, 27840, Note_on_c, 2, 65, 62
4, 27861, Note_off_c, 2, 65, 0
4, 27864, Note_on_c, 2, 62, 62
4, 27885, Note_off_c, 2, 62, 0
4, 27888, Note_on_c, 2, 64, 62
4, 27930, Note_off_c, 2, 64, 0
4, 27936, Note_on_c, 2, 60, 62
4, 27978, Note_off_c, 2, 60, 0
4, 29376, Note_on_c, 2, 65, 62
4, 29418, Note_off_c, 2, 65, 0
4, 29424, Note_on_c, 2, 65, 62
4, 29466, Note_off_c, 2, 65, 0
4, 29472, Note_on_c, 2, 65, 62
4, 29514, Note_off_c, 2, 65, 0
4, 29520, Note_on_c, 2, 69, 62
4, 29541, Note_off_c, 2, 69, 0
4, 29544, Note_on_c, 2, 67, 62
4, 29565, Note_off_c, 2, 67, 0
4, 29568, Note_on_c, 2, 69, 62
4, 29589, Note_off_c, 2, 69, 0
4, 29592, Note_on_c, 2, 65, 62
4, 29613, Note_off_c, 2, 65, 0
4, 29616, Note_on_c, 2, 72, 62
4, 29658, Note_off_c, 2, 72, 0
4, 29664, Note_on_c, 2, 72, 62
4, 29706, Note_off_c, 2, 72, 0
4, 29712, Note_on_c, 2, 72, 62
4, 29754, Note_off_c, 2, 72, 0
4, 29760, Note_on_c, 2, 72, 62
4, 29802, Note_off_c, 2, 72, 0
4, 29808, Note_on_c, 2, 76, 62
4, 29829, Note_off_c, 2, 76, 0
4, 29832, Note_on_c, 2, 74, 62
4, 29853, Note_off_c, 2, 74, 0
4, 29856, Note_on_c, 2, 76, 62
4, 29877, Note_off_c, 2, 76, 0
4, 29880, Note_on_c, 2, 72, 62
4, 29901, Note_off_c, 2, 72, 0
4, 29904, Note_on_c, 2, 77, 62
4, 29946, Note_off_c, 2, 77, 0
4, 29952, Note_on_c, 2, 77, 62
4, 29994, Note_off_c, 2, 77, 0
4, 30000, Note_on_c, 2, 77, 62
4, 30042, Note_off_c, 2, 77, 0
4, 30048, Note_on_c, 2, 77, 62
4, 30090, Note_off_c, 2, 77, 0
4, 30096, Note_on_c, 2, 79, 62
4, 30117, Note_off_c, 2, 79, 0
4, 30120, Note_on_c, 2, 77, 62
4, 30141, Note_off_c, 2, 77, 0
4, 30144, Note_on_c, 2, 76, 62
4, 30165, Note_off_c, 2, 76, 0
4, 30168, Note_on_c, 2, 74, 62
4, 30189, Note_off_c, 2, 74, 0
4, 30192, Note_on_c, 2, 76, 62
4, 30213, Note_off_c, 2, 76, 0
4, 30216, Note_on_c, 2, 77, 62
4, 30237, Note_off_c, 2, 77, 0
4, 30240, Note_on_c, 2, 79, 62
4, 30250, Note_off_c, 2, 79, 0
4, 30252, Note_on_c, 2, 77, 62
4, 30262, Note_off_c, 2, 77, 0
4, 30264, Note_on_c, 2, 79, 62
4, 30274, Note_off_c, 2, 79, 0
4, 30276, Note_on_c, 2, 77, 62
4, 30286, Note_off_c, 2, 77, 0
4, 30288, Note_on_c, 2, 79, 62
4, 30298, Note_off_c, 2, 79, 0
4, 30300, Note_on_c, 2, 77, 62
4, 30310, Note_off_c, 2, 77, 0
4, 30312, Note_on_c, 2, 76, 62
4, 30322, Note_off_c, 2, 76, 0
4, 30324, Note_on_c, 2, 77, 62
4, 30334, Note_off_c, 2, 77, 0
4, 30336, Note_on_c, 2, 79, 62
4, 30378, Note_off_c, 2, 79, 0
4, 30384, Note_on_c, 2, 72, 62
4, 30426, Note_off_c, 2, 72, 0
4, 30960, Note_on_c, 2, 65, 62
4, 31002, Note_off_c, 2, 65, 0
4, 31008, Note_on_c, 2, 65, 62
4, 31050, Note_off_c, 2, 65, 0
4, 31056, Note_on_c, 2, 65, 62
4, 31098, Note_off_c, 2, 65, 0
4, 31104, Note_on_c, 2, 69, 62
4, 31125, Note_off_c, 2, 69, 0
4, 31128, Note_on_c, 2, 67, 62
4, 31149, Note_off_c, 2, 67, 0
4, 31152, Note_on_c, 2, 69, 62
4, 31173, Note_off_c, 2, 69, 0
4, 31176, Note_on_c, 2, 65, 62
4, 31197, Note_off_c, 2, 65, 0
4, 31200, Note_on_c, 2, 72, 62
4, 31242, Note_off_c, 2, 72, 0
4, 31248, Note_on_c, 2, 72, 62
4, 31290, Note_off_c, 2, 72, 0
4, 31296, Note_on_c, 2, 72, 62
4, 31338, Note_off_c, 2, 72, 0
4, 31344, Note_on_c, 2, 72, 62
4, 31386, Note_off_c, 2, 72, 0
4, 31392, Note_on_c, 2, 76, 62
4, 31413, Note_off_c, 2, 76, 0
4, 31416, Note_on_c, 2, 74, 62
4, 31437, Note_off_c, 2, 74, 0
4, 31440, Note_on_c, 2, 76, 62
4, 31461, Note_off_c, 2, 76, 0
4, 31464, Note_on_c, 2, 72, 62
4, 31485, Note_off_c, 2, 72, 0
4, 31488, Note_on_c, 2, 77, 62
4, 31530, Note_off_c, 2, 77, 0
4, 31536, Note_on_c, 2, 77, 62
4, 31578, Note_off_c, 2, 77, 0
4, 31584, Note_on_c, 2, 77, 62
4, 31626, Note_off_c, 2, 77, 0
4, 31632, Note_on_c, 2, 77, 62
4, 31674, Note_off_c, 2, 77, 0
4, 31680, Note_on_c, 2, 79, 62
4, 31701, Note_off_c, 2, 79, 0
4, 31704, Note_on_c, 2, 77, 62
4, 31725, Note_off_c, 2, 77, 0
4, 31728, Note_on_c, 2, 76, 62
4, 31749, Note_off_c, 2, 76, 0
4, 31752, Note_on_c, 2, 74, 62
4, 31773, Note_off_c, 2, 74, 0
4, 31776, Note_on_c, 2, 76, 62
4, 31797, Note_off_c, 2, 76, 0
4, 31800, Note_on_c, 2, 77, 62
4, 31821, Note_off_c, 2, 77, 0
4, 31824, Note_on_c, 2, 79, 62
4, 31834, Note_off_c, 2, 79, 0
4, 31836, Note_on_c, 2, 77, 62
4, 31846, Note_off_c, 2, 77, 0
4, 31848, Note_on_c, 2, 79, 62
4, 31858, Note_off_c, 2, 79, 0
4, 31860, Note_on_c, 2, 77, 62
4, 31870, Note_off_c, 2, 77, 0
4, 31872, Note_on_c, 2, 79, 62
4, 31882, Note_off_c, 2, 79, 0
4, 31884, Note_on_c, 2, 77, 62
4, 31894, Note_off_c, 2, 77, 0
4, 31896, Note_on_c, 2, 76, 62
4, 31906, Note_off_c, 2, 76, 0
4, 31908, Note_on_c, 2, 77, 62
4, 31918, Note_off_c, 2, 77, 0
4, 31920, Note_on_c, 2, 79, 62
4, 31962, Note_off_c, 2, 79, 0
4, 31968, Note_on_c, 2, 72, 62
4, 32010, Note_off_c, 2, 72, 0
4, 32016, Note_on_c, 2, 79, 62
4, 32058, Note_off_c, 2, 79, 0
4, 32064, Note_on_c, 2, 81, 62
4, 32085, Note_off_c, 2, 81, 0
4, 32088, Note_on_c, 2, 79, 62
4, 32109, Note_off_c, 2, 79, 0
4, 32112, Note_on_c, 2, 77, 62
4, 32133, Note_off_c, 2, 77, 0
4, 32136, Note_on_c, 2, 76, 62
4, 32157, Note_off_c, 2, 76, 0
4, 32160, Note_on_c, 2, 77, 62
4, 32181, Note_off_c, 2, 77, 0
4, 32184, Note_on_c, 2, 74, 62
4, 32205, Note_off_c, 2, 74, 0
4, 32208, Note_on_c, 2, 79, 62
4, 32229, Note_off_c, 2, 79, 0
4, 32232, Note_on_c, 2, 67, 62
4, 32253, Note_off_c, 2, 67, 0
4, 32256, Note_on_c, 2, 72, 62
4, 32277, Note_off_c, 2, 72, 0
4, 32280, Note_on_c, 2, 74, 62
4, 32301, Note_off_c, 2, 74, 0
4, 32304, Note_on_c, 2, 76, 62
4, 32325, Note_off_c, 2, 76, 0
4, 32328, Note_on_c, 2, 72, 62
4, 32349, Note_off_c, 2, 72, 0
4, 32352, Note_on_c, 2, 77, 62
4, 32373, Note_off_c, 2, 77, 0
4, 32376, Note_on_c, 2, 76, 62
4, 32397, Note_off_c, 2, 76, 0
4, 32400, Note_on_c, 2, 74, 62
4, 32421, Note_off_c, 2, 74, 0
4, 32424, Note_on_c, 2, 72, 62
4, 32445, Note_off_c, 2, 72, 0
4, 32448, Note_on_c, 2, 74, 62
4, 32469, Note_off_c, 2, 74, 0
4, 32472, Note_on_c, 2, 70, 62
4, 32493, Note_off_c, 2, 70, 0
4, 32496, Note_on_c, 2, 76, 62
4, 32517, Note_off_c, 2, 76, 0
4, 32520, Note_on_c, 2, 64, 62
4, 32541, Note_off_c, 2, 64, 0
4, 32544, Note_on_c, 2, 69, 62
4, 32565, Note_off_c, 2, 69, 0
4, 32568, Note_on_c, 2, 70, 62
4, 32589, Note_off_c, 2, 70, 0
4, 32592, Note_on_c, 2, 72, 62
4, 32613, Note_off_c, 2, 72, 0
4, 32616, Note_on_c, 2, 69, 62
4, 32637, Note_off_c, 2, 69, 0
4, 32640, Note_on_c, 2, 74, 62
4, 32661, Note_off_c, 2, 74, 0
4, 32664, Note_on_c, 2, 72, 62
4, 32685, Note_off_c, 2, 72, 0
4, 32688, Note_on_c, 2, 70, 62
4, 32709, Note_off_c, 2, 70, 0
4, 32712, Note_on_c, 2, 69, 62
4, 32733, Note_off_c, 2, 69, 0
4, 32736, Note_on_c, 2, 70, 62
4, 32757, Note_off_c, 2, 70, 0
4, 32760, Note_on_c, 2, 67, 62
4, 32781, Note_off_c, 2, 67, 0
4, 32784, Note_on_c, 2, 72, 62
4, 32805, Note_off_c, 2, 72, 0
4, 32808, Note_on_c, 2, 60, 62
4, 32829, Note_off_c, 2, 60, 0
4, 32832, Note_on_c, 2, 65, 62
4, 32853, Note_off_c, 2, 65, 0
4, 32856, Note_on_c, 2, 67, 62
4, 32877, Note_off_c, 2, 67, 0
4, 32880, Note_on_c, 2, 69, 62
4, 32901, Note_off_c, 2, 69, 0
4, 32904, Note_on_c, 2, 65, 62
4, 32925, Note_off_c, 2, 65, 0
4, 32928, Note_on_c, 2, 70, 62
4, 32970, Note_off_c, 2, 70, 0
4, 32976, Note_on_c, 2, 70, 62
4, 33018, Note_off_c, 2, 70, 0
4, 33024, Note_on_c, 2, 70, 62
4, 33066, Note_off_c, 2, 70, 0
4, 33072, Note_on_c, 2, 70, 62
4, 33093, Note_off_c, 2, 70, 0
4, 33096, Note_on_c, 2, 72, 62
4, 33117, Note_off_c, 2, 72, 0
4, 33120, Note_on_c, 2, 70, 62
4, 33141, Note_off_c, 2, 70, 0
4, 33144, Note_on_c, 2, 69, 62
4, 33165, Note_off_c, 2, 69, 0
4, 33168, Note_on_c, 2, 70, 62
4, 33189, Note_off_c, 2, 70, 0
4, 33192, Note_on_c, 2, 67, 62
4, 33213, Note_off_c, 2, 67, 0
4, 33216, Note_on_c, 2, 79, 62
4, 33258, Note_off_c, 2, 79, 0
4, 33264, Note_on_c, 2, 70, 62
4, 33306, Note_off_c, 2, 70, 0
4, 33312, Note_on_c, 2, 70, 62
4, 33354, Note_off_c, 2, 70, 0
4, 33360, Note_on_c, 2, 70, 62
4, 33402, Note_off_c, 2, 70, 0
4, 33408, Note_on_c, 2, 72, 62
4, 33429, Note_off_c, 2, 72, 0
4, 33432, Note_on_c, 2, 70, 62
4, 33453, Note_off_c, 2, 70, 0
4, 33456, Note_on_c, 2, 69, 62
4, 33477, Note_off_c, 2, 69, 0
4, 33480, Note_on_c, 2, 67, 62
4, 33501, Note_off_c, 2, 67, 0
4, 33504, Note_on_c, 2, 69, 62
4, 33546, Note_off_c, 2, 69, 0
4, 33552, Note_on_c, 2, 69, 62
4, 33594, Note_off_c, 2, 69, 0
4, 33600, Note_on_c, 2, 69, 62
4, 33642, Note_off_c, 2, 69, 0
4, 33648, Note_on_c, 2, 69, 62
4, 33669, Note_off_c, 2, 69, 0
4, 33672, Note_on_c, 2, 70, 62
4, 33693, Note_off_c, 2, 70, 0
4, 33696, Note_on_c, 2, 69, 62
4, 33717, Note_off_c, 2, 69, 0
4, 33720, Note_on_c, 2, 67, 62
4, 33741, Note_off_c, 2, 67, 0
4, 33744, Note_on_c, 2, 69, 62
4, 33765, Note_off_c, 2, 69, 0
4, 33768, Note_on_c, 2, 65, 62
4, 33789, Note_off_c, 2, 65, 0
4, 33792, Note_on_c, 2, 77, 62
4, 33834, Note_off_c, 2, 77, 0
4, 33840, Note_on_c, 2, 69, 62
4, 33882, Note_off_c, 2, 69, 0
4, 33888, Note_on_c, 2, 69, 62
4, 33930, Note_off_c, 2, 69, 0
4, 33936, Note_on_c, 2, 69, 62
4, 33978, Note_off_c, 2, 69, 0
4, 33984, Note_on_c, 2, 70, 62
4, 34005, Note_off_c, 2, 70, 0
4, 34008, Note_on_c, 2, 69, 62
4, 34029, Note_off_c, 2, 69, 0
4, 34032, Note_on_c, 2, 67, 62
4, 34053, Note_off_c, 2, 67, 0
4, 34056, Note_on_c, 2, 65, 62
4, 34077, Note_off_c, 2, 65, 0
4, 34080, Note_on_c, 2, 64, 62
4, 34101, Note_off_c, 2, 64, 0
4, 34104, Note_on_c, 2, 62, 62
4, 34125, Note_off_c, 2, 62, 0
4, 34128, Note_on_c, 2, 64, 62
4, 34149, Note_off_c, 2, 64, 0
4, 34152, Note_on_c, 2, 60, 62
4, 34173, Note_off_c, 2, 60, 0
4, 34176, Note_on_c, 2, 67, 62
4, 34197, Note_off_c, 2, 67, 0
4, 34200, Note_on_c, 2, 65, 62
4, 34221, Note_off_c, 2, 65, 0
4, 34224, Note_on_c, 2, 67, 62
4, 34245, Note_off_c, 2, 67, 0
4, 34248, Note_on_c, 2, 64, 62
4, 34269, Note_off_c, 2, 64, 0
4, 34272, Note_on_c, 2, 70, 62
4, 34293, Note_off_c, 2, 70, 0
4, 34296, Note_on_c, 2, 69, 62
4, 34317, Note_off_c, 2, 69, 0
4, 34320, Note_on_c, 2, 70, 62
4, 34341, Note_off_c, 2, 70, 0
4, 34344, Note_on_c, 2, 67, 62
4, 34365, Note_off_c, 2, 67, 0
4, 34368, Note_on_c, 2, 76, 62
4, 34389, Note_off_c, 2, 76, 0
4, 34392, Note_on_c, 2, 74, 62
4, 34413, Note_off_c, 2, 74, 0
4, 34416, Note_on_c, 2, 76, 62
4, 34437, Note_off_c, 2, 76, 0
4, 34440, Note_on_c, 2, 72, 62
4, 34461, Note_off_c, 2, 72, 0
4, 34464, Note_on_c, 2, 79, 62
4, 34485, Note_off_c, 2, 79, 0
4, 34488, Note_on_c, 2, 77, 62
4, 34509, Note_off_c, 2, 77, 0
4, 34512, Note_on_c, 2, 79, 62
4, 34533, Note_off_c, 2, 79, 0
4, 34536, Note_on_c, 2, 76, 62
4, 34557, Note_off_c, 2, 76, 0
4, 34560, Note_on_c, 2, 82, 62
4, 34581, Note_off_c, 2, 82, 0
4, 34584, Note_on_c, 2, 81, 62
4, 34605, Note_off_c, 2, 81, 0
4, 34608, Note_on_c, 2, 82, 62
4, 34629, Note_off_c, 2, 82, 0
4, 34632, Note_on_c, 2, 79, 62
4, 34653, Note_off_c, 2, 79, 0
4, 34656, Note_on_c, 2, 81, 62
4, 34677, Note_off_c, 2, 81, 0
4, 34680, Note_on_c, 2, 79, 62
4, 34701, Note_off_c, 2, 79, 0
4, 34704, Note_on_c, 2, 81, 62
4, 34725, Note_off_c, 2, 81, 0
4, 34728, Note_on_c, 2, 76, 62
4, 34749, Note_off_c, 2, 76, 0
4, 34752, Note_on_c, 2, 77, 62
4, 34773, Note_off_c, 2, 77, 0
4, 34776, Note_on_c, 2, 76, 62
4, 34797, Note_off_c, 2, 76, 0
4, 34800, Note_on_c, 2, 77, 62
4, 34821, Note_off_c, 2, 77, 0
4, 34824, Note_on_c, 2, 79, 62
4, 34845, Note_off_c, 2, 79, 0
4, 34848, Note_on_c, 2, 79, 62
4, 34911, Note_off_c, 2, 79, 0
4, 34920, Note_on_c, 2, 77, 62
4, 34941, Note_off_c, 2, 77, 0
4, 34944, Note_on_c, 2, 77, 62
4, 34965, Note_off_c, 2, 77, 0
4, 34968, Note_on_c, 2, 76, 62
4, 34989, Note_off_c, 2, 76, 0
4, 34992, Note_on_c, 2, 77, 62
4, 35013, Note_off_c, 2, 77, 0
4, 35016, Note_on_c, 2, 72, 62
4, 35037, Note_off_c, 2, 72, 0
4, 35040, Note_on_c, 2, 74, 62
4, 35061, Note_off_c, 2, 74, 0
4, 35064, Note_on_c, 2, 72, 62
4, 35085, Note_off_c, 2, 72, 0
4, 35088, Note_on_c, 2, 74, 62
4, 35109, Note_off_c, 2, 74, 0
4, 35112, Note_on_c, 2, 69, 62
4, 35133, Note_off_c, 2, 69, 0
4, 35136, Note_on_c, 2, 70, 62
4, 35157, Note_off_c, 2, 70, 0
4, 35160, Note_on_c, 2, 69, 62
4, 35181, Note_off_c, 2, 69, 0
4, 35184, Note_on_c, 2, 70, 62
4, 35205, Note_off_c, 2, 70, 0
4, 35208, Note_on_c, 2, 67, 62
4, 35229, Note_off_c, 2, 67, 0
4, 35232, Note_on_c, 2, 69, 62
4, 35253, Note_off_c, 2, 69, 0
4, 35256, Note_on_c, 2, 67, 62
4, 35277, Note_off_c, 2, 67, 0
4, 35280, Note_on_c, 2, 69, 62
4, 35301, Note_off_c, 2, 69, 0
4, 35304, Note_on_c, 2, 64, 62
4, 35325, Note_off_c, 2, 64, 0
4, 35328, Note_on_c, 2, 65, 62
4, 35349, Note_off_c, 2, 65, 0
4, 35352, Note_on_c, 2, 64, 62
4, 35373, Note_off_c, 2, 64, 0
4, 35376, Tempo, 750000
4, 35376, Note_on_c, 2, 65, 62
4, 35397, Note_off_c, 2, 65, 0
4, 35400, Note_on_c, 2, 67, 62
4, 35421, Note_off_c, 2, 67, 0
4, 35424, Note_on_c, 2, 67, 62
4, 35487, Note_off_c, 2, 67, 0
4, 35496, Note_on_c, 2, 65, 62
4, 35517, Note_off_c, 2, 65, 0
4, 35520, Note_on_c, 2, 65, 62
4, 35796, Note_off_c, 2, 65, 0
4, 35796, End_track
5, 0, Start_track
5, 0, Title_t, "Oboe II (D H Goforth)"
5, 0, Control_c, 3, 0, 0
5, 0, Program_c, 3, 68
5, 0, Time_signature, 6, 2, 96, 8
5, 0, Tempo, 600000
5, 96, Tempo, 600000
5, 144, Note_on_c, 3, 65, 62
5, 186, Note_off_c, 3, 65, 0
5, 192, Note_on_c, 3, 65, 62
5, 234, Note_off_c, 3, 65, 0
5, 240, Note_on_c, 3, 65, 62
5, 282, Note_off_c, 3, 65, 0
5, 288, Note_on_c, 3, 65, 62
5, 309, Note_off_c, 3, 65, 0
5, 312, Note_on_c, 3, 64, 62
5, 333, Note_off_c, 3, 64, 0
5, 336, Note_on_c, 3, 65, 62
5, 357, Note_off_c, 3, 65, 0
5, 360, Note_on_c, 3, 60, 62
5, 381, Note_off_c, 3, 60, 0
5, 384, Note_on_c, 3, 67, 62
5, 426, Note_off_c, 3, 67, 0
5, 432, Note_on_c, 3, 67, 62
5, 474, Note_off_c, 3, 67, 0
5, 480, Note_on_c, 3, 67, 62
5, 522, Note_off_c, 3, 67, 0
5, 528, Note_on_c, 3, 67, 62
5, 570, Note_off_c, 3, 67, 0
5, 576, Note_on_c, 3, 72, 62
5, 597, Note_off_c, 3, 72, 0
5, 600, Note_on_c, 3, 71, 62
5, 621, Note_off_c, 3, 71, 0
5, 624, Note_on_c, 3, 72, 62
5, 645, Note_off_c, 3, 72, 0
5, 648, Note_on_c, 3, 67, 62
5, 669, Note_off_c, 3, 67, 0
5, 672, Note_on_c, 3, 74, 62
5, 714, Note_off_c, 3, 74, 0
5, 720, Note_on_c, 3, 74, 62
5, 762, Note_off_c, 3, 74, 0
5, 768, Note_on_c, 3, 74, 62
5, 810, Note_off_c, 3, 74, 0
5, 816, Note_on_c, 3, 72, 62
5, 858, Note_off_c, 3, 72, 0
5, 864, Note_on_c, 3, 76, 62
5, 885, Note_off_c, 3, 76, 0
5, 888, Note_on_c, 3, 74, 62
5, 909, Note_off_c, 3, 74, 0
5, 912, Note_on_c, 3, 72, 62
5, 933, Note_off_c, 3, 72, 0
5, 936, Note_on_c, 3, 71, 62
5, 957, Note_off_c, 3, 71, 0
5, 960, Note_on_c, 3, 72, 62
5, 981, Note_off_c, 3, 72, 0
5, 984, Note_on_c, 3, 74, 62
5, 1005, Note_off_c, 3, 74, 0
5, 1008, Note_on_c, 3, 76, 62
5, 1018, Note_off_c, 3, 76, 0
5, 1020, Note_on_c, 3, 74, 62
5, 1030, Note_off_c, 3, 74, 0
5, 1032, Note_on_c, 3, 76, 62
5, 1042, Note_off_c, 3, 76, 0
5, 1044, Note_on_c, 3, 74, 62
5, 1054, Note_off_c, 3, 74, 0
5, 1056, Note_on_c, 3, 76, 62
5, 1066, Note_off_c, 3, 76, 0
5, 1068, Note_on_c, 3, 74, 62
5, 1078, Note_off_c, 3, 74, 0
5, 1080, Note_on_c, 3, 72, 62
5, 1090, Note_off_c, 3, 72, 0
5, 1092, Note_on_c, 3, 74, 62
5, 1102, Note_off_c, 3, 74, 0
5, 1104, Note_on_c, 3, 76, 62
5, 1188, Note_off_c, 3, 76, 0
5, 1200, Note_on_c, 3, 72, 62
5, 1242, Note_off_c, 3, 72, 0
5, 1248, Note_on_c, 3, 72, 62
5, 1290, Note_off_c, 3, 72, 0
5, 1392, Note_on_c, 3, 72, 62
5, 1434, Note_off_c, 3, 72, 0
5, 1536, Note_on_c, 3, 74, 62
5, 1578, Note_off_c, 3, 74, 0
5, 1680, Note_on_c, 3, 69, 62
5, 1722, Note_off_c, 3, 69, 0
5, 1824, Note_on_c, 3, 70, 62
5, 1866, Note_off_c, 3, 70, 0
5, 1968, Note_on_c, 3, 65, 62
5, 2010, Note_off_c, 3, 65, 0
5, 2112, Note_on_c, 3, 67, 62
5, 2154, Note_off_c, 3, 67, 0
5, 2160, Note_on_c, 3, 67, 62
5, 2202, Note_off_c, 3, 67, 0
5, 2208, Note_on_c, 3, 67, 62
5, 2250, Note_off_c, 3, 67, 0
5, 2256, Note_on_c, 3, 67, 62
5, 2298, Note_off_c, 3, 67, 0
5, 2400, Note_on_c, 3, 67, 62
5, 2442, Note_off_c, 3, 67, 0
5, 2448, Note_on_c, 3, 67, 62
5, 2490, Note_off_c, 3, 67, 0
5, 2496, Note_on_c, 3, 67, 62
5, 2538, Note_off_c, 3, 67, 0
5, 2544, Note_on_c, 3, 67, 62
5, 2586, Note_off_c, 3, 67, 0
5, 2592, Note_on_c, 3, 69, 62
5, 2613, Note_off_c, 3, 69, 0
5, 2616, Note_on_c, 3, 67, 62
5, 2637, Note_off_c, 3, 67, 0
5, 2640, Note_on_c, 3, 65, 62
5, 2661, Note_off_c, 3, 65, 0
5, 2664, Note_on_c, 3, 64, 62
5, 2685, Note_off_c, 3, 64, 0
5, 2688, Note_on_c, 3, 65, 62
5, 2730, Note_off_c, 3, 65, 0
5, 2736, Note_on_c, 3, 65, 62
5, 2778, Note_off_c, 3, 65, 0
5, 2784, Note_on_c, 3, 65, 62
5, 2826, Note_off_c, 3, 65, 0
5, 2832, Note_on_c, 3, 65, 62
5, 2874, Note_off_c, 3, 65, 0
5, 2976, Note_on_c, 3, 65, 62
5, 3018, Note_off_c, 3, 65, 0
5, 3024, Note_on_c, 3, 65, 62
5, 3066, Note_off_c, 3, 65, 0
5, 3072, Note_on_c, 3, 65, 62
5, 3114, Note_off_c, 3, 65, 0
5, 3120, Note_on_c, 3, 65, 62
5, 3162, Note_off_c, 3, 65, 0
5, 3168, Note_on_c, 3, 67, 62
5, 3210, Note_off_c, 3, 67, 0
5, 3216, Note_on_c, 3, 62, 62
5, 3258, Note_off_c, 3, 62, 0
5, 3264, Note_on_c, 3, 60, 62
5, 3306, Note_off_c, 3, 60, 0
5, 3312, Note_on_c, 3, 60, 62
5, 3354, Note_off_c, 3, 60, 0
5, 3360, Note_on_c, 3, 64, 62
5, 3381, Note_off_c, 3, 64, 0
5, 3384, Note_on_c, 3, 62, 62
5, 3405, Note_off_c, 3, 62, 0
5, 3408, Note_on_c, 3, 64, 62
5, 3429, Note_off_c, 3, 64, 0
5, 3432, Note_on_c, 3, 60, 62
5, 3453, Note_off_c, 3, 60, 0
5, 3456, Note_on_c, 3, 67, 62
5, 3477, Note_off_c, 3, 67, 0
5, 3480, Note_on_c, 3, 65, 62
5, 3501, Note_off_c, 3, 65, 0
5, 3504, Note_on_c, 3, 67, 62
5, 3525, Note_off_c, 3, 67, 0
5, 3528, Note_on_c, 3, 64, 62
5, 3549, Note_off_c, 3, 64, 0
5, 3552, Note_on_c, 3, 70, 62
5, 3573, Note_off_c, 3, 70, 0
5, 3576, Note_on_c, 3, 69, 62
5, 3597, Note_off_c, 3, 69, 0
5, 3600, Note_on_c, 3, 70, 62
5, 3621, Note_off_c, 3, 70, 0
5, 3624, Note_on_c, 3, 67, 62
5, 3645, Note_off_c, 3, 67, 0
5, 3648, Note_on_c, 3, 76, 62
5, 3669, Note_off_c, 3, 76, 0
5, 3672, Note_on_c, 3, 74, 62
5, 3693, Note_off_c, 3, 74, 0
5, 3696, Note_on_c, 3, 76, 62
5, 3717, Note_off_c, 3, 76, 0
5, 3720, Note_on_c, 3, 72, 62
5, 3741, Note_off_c, 3, 72, 0
5, 3744, Note_on_c, 3, 79, 62
5, 3765, Note_off_c, 3, 79, 0
5, 3768, Note_on_c, 3, 77, 62
5, 3789, Note_off_c, 3, 77, 0
5, 3792, Note_on_c, 3, 79, 62
5, 3813, Note_off_c, 3, 79, 0
5, 3816, Note_on_c, 3, 76, 62
5, 3837, Note_off_c, 3, 76, 0
5, 3840, Note_on_c, 3, 77, 62
5, 3882, Note_off_c, 3, 77, 0
5, 3888, Note_on_c, 3, 72, 62
5, 3930, Note_off_c, 3, 72, 0
5, 3936, Note_on_c, 3, 74, 62
5, 4005, Note_off_c, 3, 74, 0
5, 4008, Note_on_c, 3, 77, 62
5, 4029, Note_off_c, 3, 77, 0
5, 4032, Note_on_c, 3, 76, 62
5, 4095, Note_off_c, 3, 76, 0
5, 4104, Note_on_c, 3, 77, 62
5, 4125, Note_off_c, 3, 77, 0
5, 4128, Note_on_c, 3, 77, 62
5, 4170, Note_off_c, 3, 77, 0
5, 4176, Note_on_c, 3, 72, 62
5, 4218, Note_off_c, 3, 72, 0
5, 4224, Note_on_c, 3, 69, 62
5, 4266, Note_off_c, 3, 69, 0
5, 4272, Note_on_c, 3, 69, 62
5, 4314, Note_off_c, 3, 69, 0
5, 4320, Note_on_c, 3, 67, 62
5, 4362, Note_off_c, 3, 67, 0
5, 4368, Note_on_c, 3, 64, 62
5, 4410, Note_off_c, 3, 64, 0
5, 4416, Note_on_c, 3, 65, 62
5, 4479, Note_off_c, 3, 65, 0
5, 4488, Note_on_c, 3, 64, 62
5, 4509, Note_off_c, 3, 64, 0
5, 4512, Note_on_c, 3, 62, 62
5, 4581, Note_off_c, 3, 62, 0
5, 4584, Note_on_c, 3, 65, 62
5, 4605, Note_off_c, 3, 65, 0
5, 4608, Note_on_c, 3, 64, 62
5, 4671, Note_off_c, 3, 64, 0
5, 4680, Note_on_c, 3, 65, 62
5, 4701, Note_off_c, 3, 65, 0
5, 4704, Note_on_c, 3, 65, 62
5, 4746, Note_off_c, 3, 65, 0
5, 5904, Note_on_c, 3, 65, 62
5, 5946, Note_off_c, 3, 65, 0
5, 5952, Note_on_c, 3, 65, 62
5, 5994, Note_off_c, 3, 65, 0
5, 6000, Note_on_c, 3, 65, 62
5, 6042, Note_off_c, 3, 65, 0
5, 6048, Note_on_c, 3, 65, 62
5, 6069, Note_off_c, 3, 65, 0
5, 6072, Note_on_c, 3, 64, 62
5, 6093, Note_off_c, 3, 64, 0
5, 6096, Note_on_c, 3, 65, 62
5, 6117, Note_off_c, 3, 65, 0
5, 6120, Note_on_c, 3, 60, 62
5, 6141, Note_off_c, 3, 60, 0
5, 6144, Note_on_c, 3, 67, 62
5, 6186, Note_off_c, 3, 67, 0
5, 6192, Note_on_c, 3, 67, 62
5, 6234, Note_off_c, 3, 67, 0
5, 6240, Note_on_c, 3, 67, 62
5, 6282, Note_off_c, 3, 67, 0
5, 6288, Note_on_c, 3, 67, 62
5, 6330, Note_off_c, 3, 67, 0
5, 6336, Note_on_c, 3, 72, 62
5, 6357, Note_off_c, 3, 72, 0
5, 6360, Note_on_c, 3, 71, 62
5, 6381, Note_off_c, 3, 71, 0
5, 6384, Note_on_c, 3, 72, 62
5, 6405, Note_off_c, 3, 72, 0
5, 6408, Note_on_c, 3, 67, 62
5, 6429, Note_off_c, 3, 67, 0
5, 6432, Note_on_c, 3, 74, 62
5, 6474, Note_off_c, 3, 74, 0
5, 6480, Note_on_c, 3, 74, 62
5, 6522, Note_off_c, 3, 74, 0
5, 6528, Note_on_c, 3, 74, 62
5, 6570, Note_off_c, 3, 74, 0
5, 6576, Note_on_c, 3, 72, 62
5, 6618, Note_off_c, 3, 72, 0
5, 6624, Note_on_c, 3, 76, 62
5, 6645, Note_off_c, 3, 76, 0
5, 6648, Note_on_c, 3, 74, 62
5, 6669, Note_off_c, 3, 74, 0
5, 6672, Note_on_c, 3, 72, 62
5, 6693, Note_off_c, 3, 72, 0
5, 6696, Note_on_c, 3, 71, 62
5, 6717, Note_off_c, 3, 71, 0
5, 6720, Note_on_c, 3, 72, 62
5, 6741, Note_off_c, 3, 72, 0
5, 6744, Note_on_c, 3, 74, 62
5, 6765, Note_off_c, 3, 74, 0
5, 6768, Note_on_c, 3, 76, 62
5, 6778, Note_off_c, 3, 76, 0
5, 6780, Note_on_c, 3, 74, 62
5, 6790, Note_off_c, 3, 74, 0
5, 6792, Note_on_c, 3, 76, 62
5, 6802, Note_off_c, 3, 76, 0
5, 6804, Note_on_c, 3, 74, 62
5, 6814, Note_off_c, 3, 74, 0
5, 6816, Note_on_c, 3, 76, 62
5, 6826, Note_off_c, 3, 76, 0
5, 6828, Note_on_c, 3, 74, 62
5, 6838, Note_off_c, 3, 74, 0
5, 6840, Note_on_c, 3, 72, 62
5, 6850, Note_off_c, 3, 72, 0
5, 6852, Note_on_c, 3, 74, 62
5, 6862, Note_off_c, 3, 74, 0
5, 6864, Note_on_c, 3, 76, 62
5, 6906, Note_off_c, 3, 76, 0
5, 6912, Note_on_c, 3, 67, 62
5, 6954, Note_off_c, 3, 67, 0
5, 6960, Note_on_c, 3, 72, 62
5, 7002, Note_off_c, 3, 72, 0
5, 7008, Note_on_c, 3, 72, 62
5, 7050, Note_off_c, 3, 72, 0
5, 7200, Note_on_c, 3, 71, 62
5, 7242, Note_off_c, 3, 71, 0
5, 7248, Note_on_c, 3, 71, 62
5, 7290, Note_off_c, 3, 71, 0
5, 7296, Note_on_c, 3, 71, 62
5, 7338, Note_off_c, 3, 71, 0
5, 7488, Note_on_c, 3, 69, 62
5, 7530, Note_off_c, 3, 69, 0
5, 7536, Note_on_c, 3, 69, 62
5, 7578, Note_off_c, 3, 69, 0
5, 7584, Note_on_c, 3, 69, 62
5, 7626, Note_off_c, 3, 69, 0
5, 7776, Note_on_c, 3, 67, 62
5, 7818, Note_off_c, 3, 67, 0
5, 7824, Note_on_c, 3, 67, 62
5, 7866, Note_off_c, 3, 67, 0
5, 7872, Note_on_c, 3, 67, 62
5, 7914, Note_off_c, 3, 67, 0
5, 7920, Note_on_c, 3, 67, 62
5, 7962, Note_off_c, 3, 67, 0
5, 7968, Note_on_c, 3, 67, 62
5, 8010, Note_off_c, 3, 67, 0
5, 8016, Note_on_c, 3, 69, 62
5, 8058, Note_off_c, 3, 69, 0
5, 8064, Note_on_c, 3, 69, 62
5, 8106, Note_off_c, 3, 69, 0
5, 8112, Note_on_c, 3, 69, 62
5, 8154, Note_off_c, 3, 69, 0
5, 8160, Note_on_c, 3, 71, 62
5, 8202, Note_off_c, 3, 71, 0
5, 8208, Note_on_c, 3, 71, 62
5, 8250, Note_off_c, 3, 71, 0
5, 8256, Note_on_c, 3, 71, 62
5, 8298, Note_off_c, 3, 71, 0
5, 8304, Note_on_c, 3, 72, 62
5, 8346, Note_off_c, 3, 72, 0
5, 8352, Note_on_c, 3, 72, 62
5, 8394, Note_off_c, 3, 72, 0
5, 8400, Note_on_c, 3, 72, 62
5, 8442, Note_off_c, 3, 72, 0
5, 8448, Note_on_c, 3, 71, 62
5, 8532, Note_off_c, 3, 71, 0
5, 9936, Note_on_c, 3, 67, 62
5, 9978, Note_off_c, 3, 67, 0
5, 9984, Note_on_c, 3, 67, 62
5, 10026, Note_off_c, 3, 67, 0
5, 10032, Note_on_c, 3, 67, 62
5, 10074, Note_off_c, 3, 67, 0
5, 10080, Note_on_c, 3, 72, 62
5, 10101, Note_off_c, 3, 72, 0
5, 10104, Note_on_c, 3, 71, 62
5, 10125, Note_off_c, 3, 71, 0
5, 10128, Note_on_c, 3, 72, 62
5, 10149, Note_off_c, 3, 72, 0
5, 10152, Note_on_c, 3, 67, 62
5, 10173, Note_off_c, 3, 67, 0
5, 10176, Note_on_c, 3, 74, 62
5, 10218, Note_off_c, 3, 74, 0
5, 10224, Note_on_c, 3, 74, 62
5, 10266, Note_off_c, 3, 74, 0
5, 10272, Note_on_c, 3, 74, 62
5, 10314, Note_off_c, 3, 74, 0
5, 10320, Note_on_c, 3, 74, 62
5, 10362, Note_off_c, 3, 74, 0
5, 10368, Note_on_c, 3, 79, 62
5, 10389, Note_off_c, 3, 79, 0
5, 10392, Note_on_c, 3, 77, 62
5, 10413, Note_off_c, 3, 77, 0
5, 10416, Note_on_c, 3, 79, 62
5, 10437, Note_off_c, 3, 79, 0
5, 10440, Note_on_c, 3, 74, 62
5, 10461, Note_off_c, 3, 74, 0
5, 10464, Note_on_c, 3, 81, 62
5, 10506, Note_off_c, 3, 81, 0
5, 10512, Note_on_c, 3, 81, 62
5, 10554, Note_off_c, 3, 81, 0
5, 10560, Note_on_c, 3, 81, 62
5, 10602, Note_off_c, 3, 81, 0
5, 10608, Note_on_c, 3, 81, 62
5, 10650, Note_off_c, 3, 81, 0
5, 10656, Note_on_c, 3, 77, 62
5, 10698, Note_off_c, 3, 77, 0
5, 10704, Note_on_c, 3, 81, 62
5, 10746, Note_off_c, 3, 81, 0
5, 10752, Note_on_c, 3, 79, 62
5, 10773, Note_off_c, 3, 79, 0
5, 10776, Note_on_c, 3, 81, 62
5, 10797, Note_off_c, 3, 81, 0
5, 10800, Note_on_c, 3, 83, 62
5, 10810, Note_off_c, 3, 83, 0
5, 10812, Note_on_c, 3, 81, 62
5, 10822, Note_off_c, 3, 81, 0
5, 10824, Note_on_c, 3, 83, 62
5, 10834, Note_off_c, 3, 83, 0
5, 10836, Note_on_c, 3, 81, 62
5, 10846, Note_off_c, 3, 81, 0
5, 10848, Note_on_c, 3, 83, 62
5, 10858, Note_off_c, 3, 83, 0
5, 10860, Note_on_c, 3, 81, 62
5, 10870, Note_off_c, 3, 81, 0
5, 10872, Note_on_c, 3, 79, 62
5, 10882, Note_off_c, 3, 79, 0
5, 10884, Note_on_c, 3, 81, 62
5, 10894, Note_off_c, 3, 81, 0
5, 10896, Note_on_c, 3, 83, 62
5, 10938, Note_off_c, 3, 83, 0
5, 12480, Note_on_c, 3, 69, 96
5, 12501, Note_off_c, 3, 69, 0
5, 12504, Note_on_c, 3, 70, 96
5, 12525, Note_off_c, 3, 70, 0
5, 12528, Note_on_c, 3, 69, 96
5, 12549, Note_off_c, 3, 69, 0
5, 12552, Note_on_c, 3, 67, 96
5, 12573, Note_off_c, 3, 67, 0
5, 12576, Note_on_c, 3, 65, 96
5, 12597, Note_off_c, 3, 65, 0
5, 12600, Note_on_c, 3, 67, 96
5, 12621, Note_off_c, 3, 67, 0
5, 12624, Note_on_c, 3, 69, 96
5, 12666, Note_off_c, 3, 69, 0
5, 12672, Note_on_c, 3, 69, 96
5, 12714, Note_off_c, 3, 69, 0
5, 12720, Note_on_c, 3, 69, 96
5, 12762, Note_off_c, 3, 69, 0
5, 12768, Note_on_c, 3, 67, 96
5, 12810, Note_off_c, 3, 67, 0
5, 12816, Note_on_c, 3, 71, 96
5, 12837, Note_off_c, 3, 71, 0
5, 12840, Note_on_c, 3, 72, 96
5, 12861, Note_off_c, 3, 72, 0
5, 12864, Note_on_c, 3, 74, 96
5, 12885, Note_off_c, 3, 74, 0
5, 12888, Note_on_c, 3, 72, 96
5, 12909, Note_off_c, 3, 72, 0
5, 12912, Note_on_c, 3, 71, 96
5, 12954, Note_off_c, 3, 71, 0
5, 12960, Note_on_c, 3, 67, 96
5, 13002, Note_off_c, 3, 67, 0
5, 13008, Note_on_c, 3, 67, 96
5, 13050, Note_off_c, 3, 67, 0
5, 13056, Note_on_c, 3, 67, 96
5, 13077, Note_off_c, 3, 67, 0
5, 13080, Note_on_c, 3, 69, 96
5, 13101, Note_off_c, 3, 69, 0
5, 13104, Note_on_c, 3, 67, 96
5, 13125, Note_off_c, 3, 67, 0
5, 13128, Note_on_c, 3, 65, 96
5, 13149, Note_off_c, 3, 65, 0
5, 13152, Note_on_c, 3, 64, 96
5, 13173, Note_off_c, 3, 64, 0
5, 13176, Note_on_c, 3, 65, 96
5, 13197, Note_off_c, 3, 65, 0
5, 13200, Note_on_c, 3, 67, 96
5, 13242, Note_off_c, 3, 67, 0
5, 13248, Note_on_c, 3, 67, 96
5, 13290, Note_off_c, 3, 67, 0
5, 13296, Note_on_c, 3, 67, 96
5, 13338, Note_off_c, 3, 67, 0
5, 13344, Note_on_c, 3, 69, 96
5, 13365, Note_off_c, 3, 69, 0
5, 13368, Note_on_c, 3, 71, 96
5, 13389, Note_off_c, 3, 71, 0
5, 13392, Note_on_c, 3, 69, 96
5, 13413, Note_off_c, 3, 69, 0
5, 13416, Note_on_c, 3, 71, 96
5, 13437, Note_off_c, 3, 71, 0
5, 13440, Note_on_c, 3, 72, 96
5, 13461, Note_off_c, 3, 72, 0
5, 13464, Note_on_c, 3, 71, 96
5, 13485, Note_off_c, 3, 71, 0
5, 13488, Note_on_c, 3, 69, 96
5, 13530, Note_off_c, 3, 69, 0
5, 13536, Note_on_c, 3, 69, 96
5, 13578, Note_off_c, 3, 69, 0
5, 13584, Note_on_c, 3, 69, 96
5, 13626, Note_off_c, 3, 69, 0
5, 13632, Note_on_c, 3, 71, 96
5, 13674, Note_off_c, 3, 71, 0
5, 13776, Note_on_c, 3, 74, 96
5, 13818, Note_off_c, 3, 74, 0
5, 13920, Note_on_c, 3, 71, 96
5, 13962, Note_off_c, 3, 71, 0
5, 14064, Note_on_c, 3, 67, 96
5, 14106, Note_off_c, 3, 67, 0
5, 14208, Note_on_c, 3, 67, 96
5, 14229, Note_off_c, 3, 67, 0
5, 14232, Note_on_c, 3, 69, 96
5, 14253, Note_off_c, 3, 69, 0
5, 14256, Note_on_c, 3, 67, 96
5, 14298, Note_off_c, 3, 67, 0
5, 14304, Note_on_c, 3, 72, 96
5, 14373, Note_off_c, 3, 72, 0
5, 14376, Note_on_c, 3, 69, 96
5, 14397, Note_off_c, 3, 69, 0
5, 14400, Note_on_c, 3, 67, 96
5, 14463, Note_off_c, 3, 67, 0
5, 14472, Note_on_c, 3, 67, 96
5, 14493, Note_off_c, 3, 67, 0
5, 14496, Note_on_c, 3, 67, 96
5, 14538, Note_off_c, 3, 67, 0
5, 15264, Note_on_c, 3, 72, 62
5, 15285, Note_off_c, 3, 72, 0
5, 15288, Note_on_c, 3, 70, 62
5, 15309, Note_off_c, 3, 70, 0
5, 15312, Note_on_c, 3, 72, 62
5, 15333, Note_off_c, 3, 72, 0
5, 15336, Note_on_c, 3, 69, 62
5, 15357, Note_off_c, 3, 69, 0
5, 15360, Note_on_c, 3, 70, 62
5, 15402, Note_off_c, 3, 70, 0
5, 17136, Note_on_c, 3, 76, 62
5, 17157, Note_off_c, 3, 76, 0
5, 17160, Note_on_c, 3, 74, 62
5, 17181, Note_off_c, 3, 74, 0
5, 17184, Note_on_c, 3, 76, 62
5, 17205, Note_off_c, 3, 76, 0
5, 17208, Note_on_c, 3, 72, 62
5, 17229, Note_off_c, 3, 72, 0
5, 17232, Note_on_c, 3, 74, 62
5, 17274, Note_off_c, 3, 74, 0
5, 17424, Note_on_c, 3, 74, 62
5, 17466, Note_off_c, 3, 74, 0
5, 17472, Note_on_c, 3, 74, 62
5, 17514, Note_off_c, 3, 74, 0
5, 17520, Note_on_c, 3, 72, 62
5, 17562, Note_off_c, 3, 72, 0
5, 18144, Note_on_c, 3, 69, 127
5, 18165, Note_off_c, 3, 69, 0
5, 18168, Note_on_c, 3, 68, 127
5, 18189, Note_off_c, 3, 68, 0
5, 18192, Note_on_c, 3, 69, 127
5, 18234, Note_off_c, 3, 69, 0
5, 18240, Note_on_c, 3, 68, 127
5, 18282, Note_off_c, 3, 68, 0
5, 18288, Note_on_c, 3, 68, 127
5, 18330, Note_off_c, 3, 68, 0
5, 18336, Note_on_c, 3, 68, 127
5, 18378, Note_off_c, 3, 68, 0
5, 18384, Note_on_c, 3, 71, 127
5, 18426, Note_off_c, 3, 71, 0
5, 18528, Note_on_c, 3, 71, 127
5, 18570, Note_off_c, 3, 71, 0
5, 18576, Note_on_c, 3, 71, 127
5, 18618, Note_off_c, 3, 71, 0
5, 18624, Note_on_c, 3, 71, 127
5, 18666, Note_off_c, 3, 71, 0
5, 18672, Note_on_c, 3, 71, 127
5, 18714, Note_off_c, 3, 71, 0
5, 18720, Note_on_c, 3, 72, 127
5, 18741, Note_off_c, 3, 72, 0
5, 18744, Note_on_c, 3, 71, 127
5, 18765, Note_off_c, 3, 71, 0
5, 18768, Note_on_c, 3, 69, 127
5, 18789, Note_off_c, 3, 69, 0
5, 18792, Note_on_c, 3, 68, 127
5, 18813, Note_off_c, 3, 68, 0
5, 18816, Note_on_c, 3, 69, 127
5, 18858, Note_off_c, 3, 69, 0
5, 18864, Note_on_c, 3, 69, 127
5, 18906, Note_off_c, 3, 69, 0
5, 18912, Note_on_c, 3, 69, 127
5, 18954, Note_off_c, 3, 69, 0
5, 18960, Note_on_c, 3, 69, 127
5, 19002, Note_off_c, 3, 69, 0
5, 19104, Note_on_c, 3, 69, 127
5, 19146, Note_off_c, 3, 69, 0
5, 19152, Note_on_c, 3, 69, 127
5, 19194, Note_off_c, 3, 69, 0
5, 19200, Note_on_c, 3, 69, 127
5, 19242, Note_off_c, 3, 69, 0
5, 19248, Note_on_c, 3, 69, 127
5, 19290, Note_off_c, 3, 69, 0
5, 19296, Note_on_c, 3, 69, 127
5, 19338, Note_off_c, 3, 69, 0
5, 19344, Note_on_c, 3, 62, 127
5, 19386, Note_off_c, 3, 62, 0
5, 19392, Note_on_c, 3, 62, 127
5, 19434, Note_off_c, 3, 62, 0
5, 19440, Note_on_c, 3, 62, 127
5, 19482, Note_off_c, 3, 62, 0
5, 19488, Note_on_c, 3, 68, 127
5, 19509, Note_off_c, 3, 68, 0
5, 19512, Note_on_c, 3, 66, 127
5, 19533, Note_off_c, 3, 66, 0
5, 19536, Note_on_c, 3, 68, 127
5, 19557, Note_off_c, 3, 68, 0
5, 19560, Note_on_c, 3, 64, 127
5, 19581, Note_off_c, 3, 64, 0
5, 19584, Note_on_c, 3, 71, 127
5, 19605, Note_off_c, 3, 71, 0
5, 19608, Note_on_c, 3, 69, 127
5, 19629, Note_off_c, 3, 69, 0
5, 19632, Note_on_c, 3, 71, 127
5, 19653, Note_off_c, 3, 71, 0
5, 19656, Note_on_c, 3, 68, 127
5, 19677, Note_off_c, 3, 68, 0
5, 19680, Note_on_c, 3, 69, 127
5, 19743, Note_off_c, 3, 69, 0
5, 19752, Note_on_c, 3, 71, 127
5, 19773, Note_off_c, 3, 71, 0
5, 19776, Note_on_c, 3, 69, 127
5, 19845, Note_off_c, 3, 69, 0
5, 19848, Note_on_c, 3, 69, 127
5, 19869, Note_off_c, 3, 69, 0
5, 19872, Note_on_c, 3, 68, 127
5, 19935, Note_off_c, 3, 68, 0
5, 19944, Note_on_c, 3, 69, 127
5, 19965, Note_off_c, 3, 69, 0
5, 19968, Note_on_c, 3, 64, 62
5, 20010, Note_off_c, 3, 64, 0
5, 20160, Note_on_c, 3, 65, 62
5, 20202, Note_off_c, 3, 65, 0
5, 20208, Note_on_c, 3, 69, 62
5, 20250, Note_off_c, 3, 69, 0
5, 20256, Note_on_c, 3, 67, 62
5, 20298, Note_off_c, 3, 67, 0
5, 20448, Note_on_c, 3, 64, 62
5, 20490, Note_off_c, 3, 64, 0
5, 20496, Note_on_c, 3, 67, 62
5, 20538, Note_off_c, 3, 67, 0
5, 20544, Note_on_c, 3, 65, 62
5, 20586, Note_off_c, 3, 65, 0
5, 20880, Note_on_c, 3, 70, 62
5, 20922, Note_off_c, 3, 70, 0
5, 20928, Note_on_c, 3, 74, 62
5, 20970, Note_off_c, 3, 74, 0
5, 20976, Note_on_c, 3, 72, 62
5, 21018, Note_off_c, 3, 72, 0
5, 21168, Note_on_c, 3, 69, 62
5, 21210, Note_off_c, 3, 69, 0
5, 21216, Note_on_c, 3, 72, 62
5, 21258, Note_off_c, 3, 72, 0
5, 21264, Note_on_c, 3, 70, 62
5, 21306, Note_off_c, 3, 70, 0
5, 21312, Note_on_c, 3, 70, 62
5, 21354, Note_off_c, 3, 70, 0
5, 21360, Note_on_c, 3, 74, 62
5, 21402, Note_off_c, 3, 74, 0
5, 21408, Note_on_c, 3, 72, 62
5, 21450, Note_off_c, 3, 72, 0
5, 22896, Note_on_c, 3, 79, 49
5, 22917, Note_off_c, 3, 79, 0
5, 22920, Note_on_c, 3, 77, 49
5, 22941, Note_off_c, 3, 77, 0
5, 22944, Note_on_c, 3, 79, 49
5, 22965, Note_off_c, 3, 79, 0
5, 22968, Note_on_c, 3, 74, 49
5, 22989, Note_off_c, 3, 74, 0
5, 22992, Note_on_c, 3, 75, 49
5, 23034, Note_off_c, 3, 75, 0
5, 23184, Note_on_c, 3, 77, 49
5, 23205, Note_off_c, 3, 77, 0
5, 23208, Note_on_c, 3, 75, 49
5, 23229, Note_off_c, 3, 75, 0
5, 23232, Note_on_c, 3, 77, 49
5, 23253, Note_off_c, 3, 77, 0
5, 23256, Note_on_c, 3, 72, 49
5, 23277, Note_off_c, 3, 72, 0
5, 23280, Note_on_c, 3, 74, 49
5, 23322, Note_off_c, 3, 74, 0
5, 23424, Tempo, 1500000
5, 23616, Time_signature, 2, 2, 96, 8
5, 23808, Time_signature, 6, 2, 96, 8
5, 23904, Tempo, 600000
5, 23904, Note_on_c, 3, 74, 96
5, 23946, Note_off_c, 3, 74, 0
5, 23952, Note_on_c, 3, 76, 96
5, 23994, Note_off_c, 3, 76, 0
5, 24000, Note_on_c, 3, 77, 62
5, 24042, Note_off_c, 3, 77, 0
5, 24048, Note_on_c, 3, 72, 62
5, 24090, Note_off_c, 3, 72, 0
5, 25200, Note_on_c, 3, 65, 62
5, 25242, Note_off_c, 3, 65, 0
5, 25248, Note_on_c, 3, 65, 62
5, 25290, Note_off_c, 3, 65, 0
5, 25296, Note_on_c, 3, 65, 62
5, 25338, Note_off_c, 3, 65, 0
5, 25344, Note_on_c, 3, 65, 62
5, 25365, Note_off_c, 3, 65, 0
5, 25368, Note_on_c, 3, 64, 62
5, 25389, Note_off_c, 3, 64, 0
5, 25392, Note_on_c, 3, 65, 62
5, 25413, Note_off_c, 3, 65, 0
5, 25416, Note_on_c, 3, 60, 62
5, 25437, Note_off_c, 3, 60, 0
5, 25440, Note_on_c, 3, 67, 62
5, 25482, Note_off_c, 3, 67, 0
5, 25488, Note_on_c, 3, 67, 62
5, 25530, Note_off_c, 3, 67, 0
5, 25536, Note_on_c, 3, 67, 62
5, 25578, Note_off_c, 3, 67, 0
5, 25584, Note_on_c, 3, 67, 62
5, 25626, Note_off_c, 3, 67, 0
5, 25632, Note_on_c, 3, 72, 62
5, 25653, Note_off_c, 3, 72, 0
5, 25656, Note_on_c, 3, 71, 62
5, 25677, Note_off_c, 3, 71, 0
5, 25680, Note_on_c, 3, 72, 62
5, 25701, Note_off_c, 3, 72, 0
5, 25704, Note_on_c, 3, 67, 62
5, 25725, Note_off_c, 3, 67, 0
5, 25728, Note_on_c, 3, 74, 62
5, 25770, Note_off_c, 3, 74, 0
5, 25776, Note_on_c, 3, 74, 62
5, 25818, Note_off_c, 3, 74, 0
5, 25824, Note_on_c, 3, 74, 62
5, 25866, Note_off_c, 3, 74, 0
5, 25872, Note_on_c, 3, 72, 62
5, 25914, Note_off_c, 3, 72, 0
5, 25920, Note_on_c, 3, 76, 62
5, 25941, Note_off_c, 3, 76, 0
5, 25944, Note_on_c, 3, 74, 62
5, 25965, Note_off_c, 3, 74, 0
5, 25968, Note_on_c, 3, 72, 62
5, 25989, Note_off_c, 3, 72, 0
5, 25992, Note_on_c, 3, 71, 62
5, 26013, Note_off_c, 3, 71, 0
5, 26016, Note_on_c, 3, 72, 62
5, 26037, Note_off_c, 3, 72, 0
5, 26040, Note_on_c, 3, 74, 62
5, 26061, Note_off_c, 3, 74, 0
5, 26064, Note_on_c, 3, 76, 62
5, 26074, Note_off_c, 3, 76, 0
5, 26076, Note_on_c, 3, 74, 62
5, 26086, Note_off_c, 3, 74, 0
5, 26088, Note_on_c, 3, 76, 62
5, 26098, Note_off_c, 3, 76, 0
5, 26100, Note_on_c, 3, 74, 62
5, 26110, Note_off_c, 3, 74, 0
5, 26112, Note_on_c, 3, 76, 62
5, 26122, Note_off_c, 3, 76, 0
5, 26124, Note_on_c, 3, 74, 62
5, 26134, Note_off_c, 3, 74, 0
5, 26136, Note_on_c, 3, 72, 62
5, 26146, Note_off_c, 3, 72, 0
5, 26148, Note_on_c, 3, 74, 62
5, 26158, Note_off_c, 3, 74, 0
5, 26160, Note_on_c, 3, 76, 62
5, 26202, Note_off_c, 3, 76, 0
5, 26208, Note_on_c, 3, 67, 62
5, 26250, Note_off_c, 3, 67, 0
5, 26496, Note_on_c, 3, 70, 62
5, 26538, Note_off_c, 3, 70, 0
5, 26544, Note_on_c, 3, 70, 62
5, 26586, Note_off_c, 3, 70, 0
5, 26592, Note_on_c, 3, 70, 62
5, 26634, Note_off_c, 3, 70, 0
5, 26784, Note_on_c, 3, 69, 62
5, 26826, Note_off_c, 3, 69, 0
5, 26832, Note_on_c, 3, 69, 62
5, 26874, Note_off_c, 3, 69, 0
5, 26880, Note_on_c, 3, 69, 62
5, 26922, Note_off_c, 3, 69, 0
5, 27072, Note_on_c, 3, 67, 62
5, 27114, Note_off_c, 3, 67, 0
5, 27120, Note_on_c, 3, 67, 62
5, 27162, Note_off_c, 3, 67, 0
5, 27168, Note_on_c, 3, 67, 62
5, 27210, Note_off_c, 3, 67, 0
5, 27216, Note_on_c, 3, 67, 62
5, 27258, Note_off_c, 3, 67, 0
5, 27264, Note_on_c, 3, 67, 62
5, 27306, Note_off_c, 3, 67, 0
5, 27312, Note_on_c, 3, 65, 62
5, 27354, Note_off_c, 3, 65, 0
5, 27360, Note_on_c, 3, 65, 62
5, 27402, Note_off_c, 3, 65, 0
5, 27408, Note_on_c, 3, 65, 62
5, 27450, Note_off_c, 3, 65, 0
5, 27456, Note_on_c, 3, 65, 62
5, 27498, Note_off_c, 3, 65, 0
5, 27504, Note_on_c, 3, 65, 62
5, 27546, Note_off_c, 3, 65, 0
5, 27552, Note_on_c, 3, 65, 62
5, 27594, Note_off_c, 3, 65, 0
5, 27600, Note_on_c, 3, 60, 62
5, 27642, Note_off_c, 3, 60, 0
5, 27648, Note_on_c, 3, 60, 62
5, 27690, Note_off_c, 3, 60, 0
5, 27696, Note_on_c, 3, 60, 62
5, 27738, Note_off_c, 3, 60, 0
5, 27744, Note_on_c, 3, 60, 62
5, 27786, Note_off_c, 3, 60, 0
5, 27792, Note_on_c, 3, 60, 62
5, 27834, Note_off_c, 3, 60, 0
5, 27840, Note_on_c, 3, 62, 62
5, 27882, Note_off_c, 3, 62, 0
5, 27888, Note_on_c, 3, 60, 62
5, 27972, Note_off_c, 3, 60, 0
5, 29376, Note_on_c, 3, 65, 62
5, 29418, Note_off_c, 3, 65, 0
5, 29424, Note_on_c, 3, 65, 62
5, 29466, Note_off_c, 3, 65, 0
5, 29472, Note_on_c, 3, 65, 62
5, 29514, Note_off_c, 3, 65, 0
5, 29520, Note_on_c, 3, 65, 62
5, 29541, Note_off_c, 3, 65, 0
5, 29544, Note_on_c, 3, 64, 62
5, 29565, Note_off_c, 3, 64, 0
5, 29568, Note_on_c, 3, 65, 62
5, 29589, Note_off_c, 3, 65, 0
5, 29592, Note_on_c, 3, 60, 62
5, 29613, Note_off_c, 3, 60, 0
5, 29616, Note_on_c, 3, 67, 62
5, 29658, Note_off_c, 3, 67, 0
5, 29664, Note_on_c, 3, 67, 62
5, 29706, Note_off_c, 3, 67, 0
5, 29712, Note_on_c, 3, 67, 62
5, 29754, Note_off_c, 3, 67, 0
5, 29760, Note_on_c, 3, 67, 62
5, 29802, Note_off_c, 3, 67, 0
5, 29808, Note_on_c, 3, 72, 62
5, 29829, Note_off_c, 3, 72, 0
5, 29832, Note_on_c, 3, 71, 62
5, 29853, Note_off_c, 3, 71, 0
5, 29856, Note_on_c, 3, 72, 62
5, 29877, Note_off_c, 3, 72, 0
5, 29880, Note_on_c, 3, 67, 62
5, 29901, Note_off_c, 3, 67, 0
5, 29904, Note_on_c, 3, 74, 62
5, 29946, Note_off_c, 3, 74, 0
5, 29952, Note_on_c, 3, 74, 62
5, 29994, Note_off_c, 3, 74, 0
5, 30000, Note_on_c, 3, 74, 62
5, 30042, Note_off_c, 3, 74, 0
5, 30048, Note_on_c, 3, 72, 62
5, 30090, Note_off_c, 3, 72, 0
5, 30096, Note_on_c, 3, 76, 62
5, 30117, Note_off_c, 3, 76, 0
5, 30120, Note_on_c, 3, 74, 62
5, 30141, Note_off_c, 3, 74, 0
5, 30144, Note_on_c, 3, 72, 62
5, 30165, Note_off_c, 3, 72, 0
5, 30168, Note_on_c, 3, 71, 62
5, 30189, Note_off_c, 3, 71, 0
5, 30192, Note_on_c, 3, 72, 62
5, 30213, Note_off_c, 3, 72, 0
5, 30216, Note_on_c, 3, 74, 62
5, 30237, Note_off_c, 3, 74, 0
5, 30240, Note_on_c, 3, 76, 62
5, 30250, Note_off_c, 3, 76, 0
5, 30252, Note_on_c, 3, 74, 62
5, 30262, Note_off_c, 3, 74, 0
5, 30264, Note_on_c, 3, 76, 62
5, 30274, Note_off_c, 3, 76, 0
5, 30276, Note_on_c, 3, 74, 62
5, 30286, Note_off_c, 3, 74, 0
5, 30288, Note_on_c, 3, 76, 62
5, 30298, Note_off_c, 3, 76, 0
5, 30300, Note_on_c, 3, 74, 62
5, 30310, Note_off_c, 3, 74, 0
5, 30312, Note_on_c, 3, 72, 62
5, 30322, Note_off_c, 3, 72, 0
5, 30324, Note_on_c, 3, 74, 62
5, 30334, Note_off_c, 3, 74, 0
5, 30336, Note_on_c, 3, 76, 62
5, 30420, Note_off_c, 3, 76, 0
5, 30960, Note_on_c, 3, 65, 62
5, 31002, Note_off_c, 3, 65, 0
5, 31008, Note_on_c, 3, 65, 62
5, 31050, Note_off_c, 3, 65, 0
5, 31056, Note_on_c, 3, 65, 62
5, 31098, Note_off_c, 3, 65, 0
5, 31104, Note_on_c, 3, 65, 62
5, 31125, Note_off_c, 3, 65, 0
5, 31128, Note_on_c, 3, 64, 62
5, 31149, Note_off_c, 3, 64, 0
5, 31152, Note_on_c, 3, 65, 62
5, 31173, Note_off_c, 3, 65, 0
5, 31176, Note_on_c, 3, 60, 62
5, 31197, Note_off_c, 3, 60, 0
5, 31200, Note_on_c, 3, 67, 62
5, 31242, Note_off_c, 3, 67, 0
5, 31248, Note_on_c, 3, 67, 62
5, 31290, Note_off_c, 3, 67, 0
5, 31296, Note_on_c, 3, 67, 62
5, 31338, Note_off_c, 3, 67, 0
5, 31344, Note_on_c, 3, 67, 62
5, 31386, Note_off_c, 3, 67, 0
5, 31392, Note_on_c, 3, 72, 62
5, 31413, Note_off_c, 3, 72, 0
5, 31416, Note_on_c, 3, 71, 62
5, 31437, Note_off_c, 3, 71, 0
5, 31440, Note_on_c, 3, 72, 62
5, 31461, Note_off_c, 3, 72, 0
5, 31464, Note_on_c, 3, 67, 62
5, 31485, Note_off_c, 3, 67, 0
5, 31488, Note_on_c, 3, 74, 62
5, 31530, Note_off_c, 3, 74, 0
5, 31536, Note_on_c, 3, 74, 62
5, 31578, Note_off_c, 3, 74, 0
5, 31584, Note_on_c, 3, 74, 62
5, 31626, Note_off_c, 3, 74, 0
5, 31632, Note_on_c, 3, 72, 62
5, 31674, Note_off_c, 3, 72, 0
5, 31680, Note_on_c, 3, 76, 62
5, 31701, Note_off_c, 3, 76, 0
5, 31704, Note_on_c, 3, 74, 62
5, 31725, Note_off_c, 3, 74, 0
5, 31728, Note_on_c, 3, 72, 62
5, 31749, Note_off_c, 3, 72, 0
5, 31752, Note_on_c, 3, 71, 62
5, 31773, Note_off_c, 3, 71, 0
5, 31776, Note_on_c, 3, 72, 62
5, 31797, Note_off_c, 3, 72, 0
5, 31800, Note_on_c, 3, 74, 62
5, 31821, Note_off_c, 3, 74, 0
5, 31824, Note_on_c, 3, 76, 62
5, 31834, Note_off_c, 3, 76, 0
5, 31836, Note_on_c, 3, 74, 62
5, 31846, Note_off_c, 3, 74, 0
5, 31848, Note_on_c, 3, 76, 62
5, 31858, Note_off_c, 3, 76, 0
5, 31860, Note_on_c, 3, 74, 62
5, 31870, Note_off_c, 3, 74, 0
5, 31872, Note_on_c, 3, 76, 62
5, 31882, Note_off_c, 3, 76, 0
5, 31884, Note_on_c, 3, 74, 62
5, 31894, Note_off_c, 3, 74, 0
5, 31896, Note_on_c, 3, 72, 62
5, 31906, Note_off_c, 3, 72, 0
5, 31908, Note_on_c, 3, 74, 62
5, 31918, Note_off_c, 3, 74, 0
5, 31920, Note_on_c, 3, 76, 62
5, 32004, Note_off_c, 3, 76, 0
5, 32016, Note_on_c, 3, 72, 62
5, 32058, Note_off_c, 3, 72, 0
5, 32064, Note_on_c, 3, 72, 62
5, 32106, Note_off_c, 3, 72, 0
5, 32208, Note_on_c, 3, 72, 62
5, 32250, Note_off_c, 3, 72, 0
5, 32352, Note_on_c, 3, 74, 62
5, 32394, Note_off_c, 3, 74, 0
5, 32496, Note_on_c, 3, 69, 62
5, 32538, Note_off_c, 3, 69, 0
5, 32640, Note_on_c, 3, 70, 62
5, 32682, Note_off_c, 3, 70, 0
5, 32784, Note_on_c, 3, 65, 62
5, 32826, Note_off_c, 3, 65, 0
5, 32928, Note_on_c, 3, 67, 62
5, 32970, Note_off_c, 3, 67, 0
5, 32976, Note_on_c, 3, 67, 62
5, 33018, Note_off_c, 3, 67, 0
5, 33024, Note_on_c, 3, 67, 62
5, 33066, Note_off_c, 3, 67, 0
5, 33072, Note_on_c, 3, 67, 62
5, 33114, Note_off_c, 3, 67, 0
5, 33216, Note_on_c, 3, 67, 62
5, 33258, Note_off_c, 3, 67, 0
5, 33264, Note_on_c, 3, 67, 62
5, 33306, Note_off_c, 3, 67, 0
5, 33312, Note_on_c, 3, 67, 62
5, 33354, Note_off_c, 3, 67, 0
5, 33360, Note_on_c, 3, 67, 62
5, 33402, Note_off_c, 3, 67, 0
5, 33408, Note_on_c, 3, 69, 62
5, 33429, Note_off_c, 3, 69, 0
5, 33432, Note_on_c, 3, 67, 62
5, 33453, Note_off_c, 3, 67, 0
5, 33456, Note_on_c, 3, 65, 62
5, 33477, Note_off_c, 3, 65, 0
5, 33480, Note_on_c, 3, 64, 62
5, 33501, Note_off_c, 3, 64, 0
5, 33504, Note_on_c, 3, 65, 62
5, 33546, Note_off_c, 3, 65, 0
5, 33552, Note_on_c, 3, 65, 62
5, 33594, Note_off_c, 3, 65, 0
5, 33600, Note_on_c, 3, 65, 62
5, 33642, Note_off_c, 3, 65, 0
5, 33648, Note_on_c, 3, 65, 62
5, 33690, Note_off_c, 3, 65, 0
5, 33792, Note_on_c, 3, 65, 62
5, 33834, Note_off_c, 3, 65, 0
5, 33840, Note_on_c, 3, 65, 62
5, 33882, Note_off_c, 3, 65, 0
5, 33888, Note_on_c, 3, 65, 62
5, 33930, Note_off_c, 3, 65, 0
5, 33936, Note_on_c, 3, 65, 62
5, 33978, Note_off_c, 3, 65, 0
5, 33984, Note_on_c, 3, 67, 62
5, 34026, Note_off_c, 3, 67, 0
5, 34032, Note_on_c, 3, 62, 62
5, 34074, Note_off_c, 3, 62, 0
5, 34080, Note_on_c, 3, 60, 62
5, 34122, Note_off_c, 3, 60, 0
5, 34128, Note_on_c, 3, 60, 62
5, 34170, Note_off_c, 3, 60, 0
5, 34176, Note_on_c, 3, 64, 62
5, 34197, Note_off_c, 3, 64, 0
5, 34200, Note_on_c, 3, 62, 62
5, 34221, Note_off_c, 3, 62, 0
5, 34224, Note_on_c, 3, 64, 62
5, 34245, Note_off_c, 3, 64, 0
5, 34248, Note_on_c, 3, 60, 62
5, 34269, Note_off_c, 3, 60, 0
5, 34272, Note_on_c, 3, 67, 62
5, 34293, Note_off_c, 3, 67, 0
5, 34296, Note_on_c, 3, 65, 62
5, 34317, Note_off_c, 3, 65, 0
5, 34320, Note_on_c, 3, 67, 62
5, 34341, Note_off_c, 3, 67, 0
5, 34344, Note_on_c, 3, 64, 62
5, 34365, Note_off_c, 3, 64, 0
5, 34368, Note_on_c, 3, 70, 62
5, 34389, Note_off_c, 3, 70, 0
5, 34392, Note_on_c, 3, 69, 62
5, 34413, Note_off_c, 3, 69, 0
5, 34416, Note_on_c, 3, 70, 62
5, 34437, Note_off_c, 3, 70, 0
5, 34440, Note_on_c, 3, 67, 62
5, 34461, Note_off_c, 3, 67, 0
5, 34464, Note_on_c, 3, 76, 62
5, 34485, Note_off_c, 3, 76, 0
5, 34488, Note_on_c, 3, 72, 62
5, 34509, Note_off_c, 3, 72, 0
5, 34512, Note_on_c, 3, 79, 62
5, 34533, Note_off_c, 3, 79, 0
5, 34536, Note_on_c, 3, 77, 62
5, 34557, Note_off_c, 3, 77, 0
5, 34560, Note_on_c, 3, 79, 62
5, 34581, Note_off_c, 3, 79, 0
5, 34584, Note_on_c, 3, 76, 62
5, 34605, Note_off_c, 3, 76, 0
5, 34656, Note_on_c, 3, 77, 62
5, 34698, Note_off_c, 3, 77, 0
5, 34704, Note_on_c, 3, 72, 62
5, 34746, Note_off_c, 3, 72, 0
5, 34752, Note_on_c, 3, 74, 62
5, 34821, Note_off_c, 3, 74, 0
5, 34824, Note_on_c, 3, 77, 62
5, 34845, Note_off_c, 3, 77, 0
5, 34848, Note_on_c, 3, 76, 62
5, 34911, Note_off_c, 3, 76, 0
5, 34920, Note_on_c, 3, 77, 62
5, 34941, Note_off_c, 3, 77, 0
5, 34944, Note_on_c, 3, 77, 62
5, 34986, Note_off_c, 3, 77, 0
5, 34992, Note_on_c, 3, 72, 62
5, 35034, Note_off_c, 3, 72, 0
5, 35040, Note_on_c, 3, 69, 62
5, 35082, Note_off_c, 3, 69, 0
5, 35088, Note_on_c, 3, 69, 62
5, 35130, Note_off_c, 3, 69, 0
5, 35136, Note_on_c, 3, 67, 62
5, 35178, Note_off_c, 3, 67, 0
5, 35184, Note_on_c, 3, 64, 62
5, 35226, Note_off_c, 3, 64, 0
5, 35232, Note_on_c, 3, 65, 62
5, 35295, Note_off_c, 3, 65, 0
5, 35304, Note_on_c, 3, 64, 62
5, 35325, Note_off_c, 3, 64, 0
5, 35328, Note_on_c, 3, 62, 62
5, 35376, Tempo, 750000
5, 35397, Note_off_c, 3, 62, 0
5, 35400, Note_on_c, 3, 65, 62
5, 35421, Note_off_c, 3, 65, 0
5, 35424, Note_on_c, 3, 64, 62
5, 35487, Note_off_c, 3, 64, 0
5, 35496, Note_on_c, 3, 65, 62
5, 35517, Note_off_c, 3, 65, 0
5, 35520, Note_on_c, 3, 65, 62
5, 35796, Note_off_c, 3, 65, 0
5, 35796, End_track
6, 0, Start_track
6, 0, Title_t, "dgo4th@earthlink.net"
6, 0, Control_c, 4, 0, 0
6, 0, Program_c, 4, 68
6, 0, Time_signature, 6, 2, 96, 8
6, 0, Tempo, 600000
6, 96, Tempo, 600000
6, 144, Note_on_c, 4, 60, 62
6, 186, Note_off_c, 4, 60, 0
6, 192, Note_on_c, 4, 60, 62
6, 234, Note_off_c, 4, 60, 0
6, 240, Note_on_c, 4, 60, 62
6, 282, Note_off_c, 4, 60, 0
6, 288, Note_on_c, 4, 60, 62
6, 330, Note_off_c, 4, 60, 0
6, 336, Note_on_c, 4, 60, 62
6, 378, Note_off_c, 4, 60, 0
6, 384, Note_on_c, 4, 64, 62
6, 426, Note_off_c, 4, 64, 0
6, 432, Note_on_c, 4, 64, 62
6, 474, Note_off_c, 4, 64, 0
6, 480, Note_on_c, 4, 64, 62
6, 522, Note_off_c, 4, 64, 0
6, 528, Note_on_c, 4, 64, 62
6, 570, Note_off_c, 4, 64, 0
6, 576, Note_on_c, 4, 67, 62
6, 597, Note_off_c, 4, 67, 0
6, 600, Note_on_c, 4, 65, 62
6, 621, Note_off_c, 4, 65, 0
6, 624, Note_on_c, 4, 67, 62
6, 645, Note_off_c, 4, 67, 0
6, 648, Note_on_c, 4, 64, 62
6, 669, Note_off_c, 4, 64, 0
6, 672, Note_on_c, 4, 69, 62
6, 714, Note_off_c, 4, 69, 0
6, 720, Note_on_c, 4, 69, 62
6, 762, Note_off_c, 4, 69, 0
6, 768, Note_on_c, 4, 69, 62
6, 810, Note_off_c, 4, 69, 0
6, 816, Note_on_c, 4, 69, 62
6, 858, Note_off_c, 4, 69, 0
6, 864, Note_on_c, 4, 60, 62
6, 906, Note_off_c, 4, 60, 0
6, 912, Note_on_c, 4, 65, 62
6, 954, Note_off_c, 4, 65, 0
6, 960, Note_on_c, 4, 67, 62
6, 1002, Note_off_c, 4, 67, 0
6, 1008, Note_on_c, 4, 60, 62
6, 1050, Note_off_c, 4, 60, 0
6, 1056, Note_on_c, 4, 67, 62
6, 1098, Note_off_c, 4, 67, 0
6, 1104, Note_on_c, 4, 72, 62
6, 1188, Note_off_c, 4, 72, 0
6, 1200, Note_on_c, 4, 67, 62
6, 1242, Note_off_c, 4, 67, 0
6, 1248, Note_on_c, 4, 65, 62
6, 1290, Note_off_c, 4, 65, 0
6, 1392, Note_on_c, 4, 67, 62
6, 1434, Note_off_c, 4, 67, 0
6, 1536, Note_on_c, 4, 69, 62
6, 1578, Note_off_c, 4, 69, 0
6, 1680, Note_on_c, 4, 64, 62
6, 1722, Note_off_c, 4, 64, 0
6, 1824, Note_on_c, 4, 65, 62
6, 1866, Note_off_c, 4, 65, 0
6, 1968, Note_on_c, 4, 60, 62
6, 2010, Note_off_c, 4, 60, 0
6, 2112, Note_on_c, 4, 62, 62
6, 2154, Note_off_c, 4, 62, 0
6, 2160, Note_on_c, 4, 62, 62
6, 2202, Note_off_c, 4, 62, 0
6, 2208, Note_on_c, 4, 62, 62
6, 2250, Note_off_c, 4, 62, 0
6, 2256, Note_on_c, 4, 62, 62
6, 2298, Note_off_c, 4, 62, 0
6, 2400, Note_on_c, 4, 60, 62
6, 2442, Note_off_c, 4, 60, 0
6, 2448, Note_on_c, 4, 60, 62
6, 2490, Note_off_c, 4, 60, 0
6, 2496, Note_on_c, 4, 60, 62
6, 2538, Note_off_c, 4, 60, 0
6, 2544, Note_on_c, 4, 60, 62
6, 2586, Note_off_c, 4, 60, 0
6, 2592, Note_on_c, 4, 64, 62
6, 2634, Note_off_c, 4, 64, 0
6, 2640, Note_on_c, 4, 60, 62
6, 2682, Note_off_c, 4, 60, 0
6, 2688, Note_on_c, 4, 60, 62
6, 2730, Note_off_c, 4, 60, 0
6, 2736, Note_on_c, 4, 60, 62
6, 2778, Note_off_c, 4, 60, 0
6, 2784, Note_on_c, 4, 60, 62
6, 2826, Note_off_c, 4, 60, 0
6, 2832, Note_on_c, 4, 60, 62
6, 2874, Note_off_c, 4, 60, 0
6, 2976, Note_on_c, 4, 62, 62
6, 3018, Note_off_c, 4, 62, 0
6, 3024, Note_on_c, 4, 62, 62
6, 3066, Note_off_c, 4, 62, 0
6, 3072, Note_on_c, 4, 62, 62
6, 3114, Note_off_c, 4, 62, 0
6, 3120, Note_on_c, 4, 62, 62
6, 3162, Note_off_c, 4, 62, 0
6, 3168, Note_on_c, 4, 62, 62
6, 3210, Note_off_c, 4, 62, 0
6, 3216, Note_on_c, 4, 62, 62
6, 3258, Note_off_c, 4, 62, 0
6, 3264, Note_on_c, 4, 64, 62
6, 3306, Note_off_c, 4, 64, 0
6, 3312, Note_on_c, 4, 67, 62
6, 3354, Note_off_c, 4, 67, 0
6, 3360, Note_on_c, 4, 64, 62
6, 3402, Note_off_c, 4, 64, 0
6, 3408, Note_on_c, 4, 60, 62
6, 3450, Note_off_c, 4, 60, 0
6, 3456, Note_on_c, 4, 60, 62
6, 3498, Note_off_c, 4, 60, 0
6, 3504, Note_on_c, 4, 64, 62
6, 3546, Note_off_c, 4, 64, 0
6, 3552, Note_on_c, 4, 67, 62
6, 3573, Note_off_c, 4, 67, 0
6, 3576, Note_on_c, 4, 65, 62
6, 3597, Note_off_c, 4, 65, 0
6, 3600, Note_on_c, 4, 67, 62
6, 3621, Note_off_c, 4, 67, 0
6, 3624, Note_on_c, 4, 64, 62
6, 3645, Note_off_c, 4, 64, 0
6, 3648, Note_on_c, 4, 70, 62
6, 3669, Note_off_c, 4, 70, 0
6, 3672, Note_on_c, 4, 69, 62
6, 3693, Note_off_c, 4, 69, 0
6, 3696, Note_on_c, 4, 70, 62
6, 3717, Note_off_c, 4, 70, 0
6, 3720, Note_on_c, 4, 67, 62
6, 3741, Note_off_c, 4, 67, 0
6, 3744, Note_on_c, 4, 76, 62
6, 3786, Note_off_c, 4, 76, 0
6, 3792, Note_on_c, 4, 76, 62
6, 3834, Note_off_c, 4, 76, 0
6, 3840, Note_on_c, 4, 72, 62
6, 3882, Note_off_c, 4, 72, 0
6, 3888, Note_on_c, 4, 69, 62
6, 3930, Note_off_c, 4, 69, 0
6, 3936, Note_on_c, 4, 69, 62
6, 4005, Note_off_c, 4, 69, 0
6, 4008, Note_on_c, 4, 74, 62
6, 4029, Note_off_c, 4, 74, 0
6, 4032, Note_on_c, 4, 72, 62
6, 4074, Note_off_c, 4, 72, 0
6, 4080, Note_on_c, 4, 70, 62
6, 4122, Note_off_c, 4, 70, 0
6, 4128, Note_on_c, 4, 69, 62
6, 4170, Note_off_c, 4, 69, 0
6, 4176, Note_on_c, 4, 65, 62
6, 4218, Note_off_c, 4, 65, 0
6, 4224, Note_on_c, 4, 65, 62
6, 4266, Note_off_c, 4, 65, 0
6, 4272, Note_on_c, 4, 65, 62
6, 4314, Note_off_c, 4, 65, 0
6, 4320, Note_on_c, 4, 62, 62
6, 4362, Note_off_c, 4, 62, 0
6, 4368, Note_on_c, 4, 60, 62
6, 4410, Note_off_c, 4, 60, 0
6, 4416, Note_on_c, 4, 60, 62
6, 4479, Note_off_c, 4, 60, 0
6, 4488, Note_on_c, 4, 60, 62
6, 4509, Note_off_c, 4, 60, 0
6, 4512, Note_on_c, 4, 62, 62
6, 4581, Note_off_c, 4, 62, 0
6, 4584, Note_on_c, 4, 62, 62
6, 4605, Note_off_c, 4, 62, 0
6, 4608, Note_on_c, 4, 60, 62
6, 4671, Note_off_c, 4, 60, 0
6, 4680, Note_on_c, 4, 60, 62
6, 4701, Note_off_c, 4, 60, 0
6, 4704, Note_on_c, 4, 60, 62
6, 4746, Note_off_c, 4, 60, 0
6, 5904, Note_on_c, 4, 60, 62
6, 5946, Note_off_c, 4, 60, 0
6, 5952, Note_on_c, 4, 60, 62
6, 5994, Note_off_c, 4, 60, 0
6, 6000, Note_on_c, 4, 60, 62
6, 6042, Note_off_c, 4, 60, 0
6, 6048, Note_on_c, 4, 60, 62
6, 6090, Note_off_c, 4, 60, 0
6, 6096, Note_on_c, 4, 60, 62
6, 6138, Note_off_c, 4, 60, 0
6, 6144, Note_on_c, 4, 64, 62
6, 6186, Note_off_c, 4, 64, 0
6, 6192, Note_on_c, 4, 64, 62
6, 6234, Note_off_c, 4, 64, 0
6, 6240, Note_on_c, 4, 64, 62
6, 6282, Note_off_c, 4, 64, 0
6, 6288, Note_on_c, 4, 64, 62
6, 6330, Note_off_c, 4, 64, 0
6, 6336, Note_on_c, 4, 67, 62
6, 6357, Note_off_c, 4, 67, 0
6, 6360, Note_on_c, 4, 65, 62
6, 6381, Note_off_c, 4, 65, 0
6, 6384, Note_on_c, 4, 67, 62
6, 6405, Note_off_c, 4, 67, 0
6, 6408, Note_on_c, 4, 64, 62
6, 6429, Note_off_c, 4, 64, 0
6, 6432, Note_on_c, 4, 69, 62
6, 6474, Note_off_c, 4, 69, 0
6, 6480, Note_on_c, 4, 69, 62
6, 6522, Note_off_c, 4, 69, 0
6, 6528, Note_on_c, 4, 69, 62
6, 6570, Note_off_c, 4, 69, 0
6, 6576, Note_on_c, 4, 69, 62
6, 6618, Note_off_c, 4, 69, 0
6, 6624, Note_on_c, 4, 60, 62
6, 6666, Note_off_c, 4, 60, 0
6, 6672, Note_on_c, 4, 65, 62
6, 6714, Note_off_c, 4, 65, 0
6, 6720, Note_on_c, 4, 67, 62
6, 6762, Note_off_c, 4, 67, 0
6, 6768, Note_on_c, 4, 60, 62
6, 6810, Note_off_c, 4, 60, 0
6, 6816, Note_on_c, 4, 67, 62
6, 6858, Note_off_c, 4, 67, 0
6, 6864, Note_on_c, 4, 72, 62
6, 6906, Note_off_c, 4, 72, 0
6, 6912, Note_on_c, 4, 64, 62
6, 6954, Note_off_c, 4, 64, 0
6, 6960, Note_on_c, 4, 67, 62
6, 7002, Note_off_c, 4, 67, 0
6, 7008, Note_on_c, 4, 69, 62
6, 7050, Note_off_c, 4, 69, 0
6, 7200, Note_on_c, 4, 69, 62
6, 7242, Note_off_c, 4, 69, 0
6, 7248, Note_on_c, 4, 69, 62
6, 7290, Note_off_c, 4, 69, 0
6, 7296, Note_on_c, 4, 67, 62
6, 7338, Note_off_c, 4, 67, 0
6, 7488, Note_on_c, 4, 67, 62
6, 7530, Note_off_c, 4, 67, 0
6, 7536, Note_on_c, 4, 67, 62
6, 7578, Note_off_c, 4, 67, 0
6, 7584, Note_on_c, 4, 65, 62
6, 7626, Note_off_c, 4, 65, 0
6, 7776, Note_on_c, 4, 65, 62
6, 7818, Note_off_c, 4, 65, 0
6, 7824, Note_on_c, 4, 65, 62
6, 7866, Note_off_c, 4, 65, 0
6, 7872, Note_on_c, 4, 64, 62
6, 7914, Note_off_c, 4, 64, 0
6, 7920, Note_on_c, 4, 64, 62
6, 7962, Note_off_c, 4, 64, 0
6, 7968, Note_on_c, 4, 64, 62
6, 8010, Note_off_c, 4, 64, 0
6, 8016, Note_on_c, 4, 60, 62
6, 8058, Note_off_c, 4, 60, 0
6, 8064, Note_on_c, 4, 60, 62
6, 8106, Note_off_c, 4, 60, 0
6, 8112, Note_on_c, 4, 60, 62
6, 8154, Note_off_c, 4, 60, 0
6, 8160, Note_on_c, 4, 67, 62
6, 8202, Note_off_c, 4, 67, 0
6, 8208, Note_on_c, 4, 67, 62
6, 8250, Note_off_c, 4, 67, 0
6, 8256, Note_on_c, 4, 67, 62
6, 8298, Note_off_c, 4, 67, 0
6, 8304, Note_on_c, 4, 67, 62
6, 8346, Note_off_c, 4, 67, 0
6, 8352, Note_on_c, 4, 67, 62
6, 8394, Note_off_c, 4, 67, 0
6, 8400, Note_on_c, 4, 69, 62
6, 8442, Note_off_c, 4, 69, 0
6, 8448, Note_on_c, 4, 62, 62
6, 8532, Note_off_c, 4, 62, 0
6, 9936, Note_on_c, 4, 64, 62
6, 9978, Note_off_c, 4, 64, 0
6, 9984, Note_on_c, 4, 64, 62
6, 10026, Note_off_c, 4, 64, 0
6, 10032, Note_on_c, 4, 64, 62
6, 10074, Note_off_c, 4, 64, 0
6, 10080, Note_on_c, 4, 67, 62
6, 10101, Note_off_c, 4, 67, 0
6, 10104, Note_on_c, 4, 65, 62
6, 10125, Note_off_c, 4, 65, 0
6, 10128, Note_on_c, 4, 67, 62
6, 10149, Note_off_c, 4, 67, 0
6, 10152, Note_on_c, 4, 64, 62
6, 10173, Note_off_c, 4, 64, 0
6, 10176, Note_on_c, 4, 67, 62
6, 10218, Note_off_c, 4, 67, 0
6, 10224, Note_on_c, 4, 67, 62
6, 10266, Note_off_c, 4, 67, 0
6, 10272, Note_on_c, 4, 67, 62
6, 10314, Note_off_c, 4, 67, 0
6, 10320, Note_on_c, 4, 67, 62
6, 10362, Note_off_c, 4, 67, 0
6, 10368, Note_on_c, 4, 74, 62
6, 10389, Note_off_c, 4, 74, 0
6, 10392, Note_on_c, 4, 72, 62
6, 10413, Note_off_c, 4, 72, 0
6, 10416, Note_on_c, 4, 74, 62
6, 10437, Note_off_c, 4, 74, 0
6, 10440, Note_on_c, 4, 71, 62
6, 10461, Note_off_c, 4, 71, 0
6, 10464, Note_on_c, 4, 76, 62
6, 10506, Note_off_c, 4, 76, 0
6, 10512, Note_on_c, 4, 76, 62
6, 10554, Note_off_c, 4, 76, 0
6, 10560, Note_on_c, 4, 76, 62
6, 10602, Note_off_c, 4, 76, 0
6, 10608, Note_on_c, 4, 74, 62
6, 10650, Note_off_c, 4, 74, 0
6, 10656, Note_on_c, 4, 69, 62
6, 10698, Note_off_c, 4, 69, 0
6, 10704, Note_on_c, 4, 74, 62
6, 10746, Note_off_c, 4, 74, 0
6, 10752, Note_on_c, 4, 74, 62
6, 10794, Note_off_c, 4, 74, 0
6, 10800, Note_on_c, 4, 69, 62
6, 10842, Note_off_c, 4, 69, 0
6, 10848, Note_on_c, 4, 78, 62
6, 10890, Note_off_c, 4, 78, 0
6, 10896, Note_on_c, 4, 79, 62
6, 10938, Note_off_c, 4, 79, 0
6, 12480, Note_on_c, 4, 65, 96
6, 12501, Note_off_c, 4, 65, 0
6, 12504, Note_on_c, 4, 67, 96
6, 12525, Note_off_c, 4, 67, 0
6, 12528, Note_on_c, 4, 65, 96
6, 12549, Note_off_c, 4, 65, 0
6, 12552, Note_on_c, 4, 67, 96
6, 12573, Note_off_c, 4, 67, 0
6, 12576, Note_on_c, 4, 69, 96
6, 12597, Note_off_c, 4, 69, 0
6, 12600, Note_on_c, 4, 67, 96
6, 12621, Note_off_c, 4, 67, 0
6, 12624, Note_on_c, 4, 65, 96
6, 12666, Note_off_c, 4, 65, 0
6, 12672, Note_on_c, 4, 65, 96
6, 12714, Note_off_c, 4, 65, 0
6, 12720, Note_on_c, 4, 65, 96
6, 12762, Note_off_c, 4, 65, 0
6, 12768, Note_on_c, 4, 65, 96
6, 12789, Note_off_c, 4, 65, 0
6, 12792, Note_on_c, 4, 67, 96
6, 12813, Note_off_c, 4, 67, 0
6, 12816, Note_on_c, 4, 65, 96
6, 12837, Note_off_c, 4, 65, 0
6, 12840, Note_on_c, 4, 67, 96
6, 12861, Note_off_c, 4, 67, 0
6, 12864, Note_on_c, 4, 69, 96
6, 12885, Note_off_c, 4, 69, 0
6, 12888, Note_on_c, 4, 67, 96
6, 12909, Note_off_c, 4, 67, 0
6, 12912, Note_on_c, 4, 65, 96
6, 12954, Note_off_c, 4, 65, 0
6, 12960, Note_on_c, 4, 65, 96
6, 13002, Note_off_c, 4, 65, 0
6, 13008, Note_on_c, 4, 65, 96
6, 13050, Note_off_c, 4, 65, 0
6, 13056, Note_on_c, 4, 64, 96
6, 13077, Note_off_c, 4, 64, 0
6, 13080, Note_on_c, 4, 65, 96
6, 13101, Note_off_c, 4, 65, 0
6, 13104, Note_on_c, 4, 64, 96
6, 13125, Note_off_c, 4, 64, 0
6, 13128, Note_on_c, 4, 65, 96
6, 13149, Note_off_c, 4, 65, 0
6, 13152, Note_on_c, 4, 67, 96
6, 13173, Note_off_c, 4, 67, 0
6, 13176, Note_on_c, 4, 65, 96
6, 13197, Note_off_c, 4, 65, 0
6, 13200, Note_on_c, 4, 64, 96
6, 13242, Note_off_c, 4, 64, 0
6, 13248, Note_on_c, 4, 64, 96
6, 13290, Note_off_c, 4, 64, 0
6, 13296, Note_on_c, 4, 64, 96
6, 13338, Note_off_c, 4, 64, 0
6, 13344, Note_on_c, 4, 64, 96
6, 13365, Note_off_c, 4, 64, 0
6, 13368, Note_on_c, 4, 65, 96
6, 13389, Note_off_c, 4, 65, 0
6, 13392, Note_on_c, 4, 64, 96
6, 13413, Note_off_c, 4, 64, 0
6, 13416, Note_on_c, 4, 65, 96
6, 13437, Note_off_c, 4, 65, 0
6, 13440, Note_on_c, 4, 67, 96
6, 13461, Note_off_c, 4, 67, 0
6, 13464, Note_on_c, 4, 65, 96
6, 13485, Note_off_c, 4, 65, 0
6, 13488, Note_on_c, 4, 64, 96
6, 13530, Note_off_c, 4, 64, 0
6, 13536, Note_on_c, 4, 62, 96
6, 13557, Note_off_c, 4, 62, 0
6, 13560, Note_on_c, 4, 64, 96
6, 13581, Note_off_c, 4, 64, 0
6, 13584, Note_on_c, 4, 65, 96
6, 13605, Note_off_c, 4, 65, 0
6, 13608, Note_on_c, 4, 64, 96
6, 13629, Note_off_c, 4, 64, 0
6, 13632, Note_on_c, 4, 65, 96
6, 13674, Note_off_c, 4, 65, 0
6, 13776, Note_on_c, 4, 71, 96
6, 13818, Note_off_c, 4, 71, 0
6, 13920, Note_on_c, 4, 67, 96
6, 13962, Note_off_c, 4, 67, 0
6, 14064, Note_on_c, 4, 62, 96
6, 14106, Note_off_c, 4, 62, 0
6, 14208, Note_on_c, 4, 64, 96
6, 14229, Note_off_c, 4, 64, 0
6, 14232, Note_on_c, 4, 65, 96
6, 14253, Note_off_c, 4, 65, 0
6, 14256, Note_on_c, 4, 64, 96
6, 14277, Note_off_c, 4, 64, 0
6, 14280, Note_on_c, 4, 65, 96
6, 14301, Note_off_c, 4, 65, 0
6, 14304, Note_on_c, 4, 67, 96
6, 14325, Note_off_c, 4, 67, 0
6, 14328, Note_on_c, 4, 65, 96
6, 14349, Note_off_c, 4, 65, 0
6, 14352, Note_on_c, 4, 64, 96
6, 14373, Note_off_c, 4, 64, 0
6, 14376, Note_on_c, 4, 65, 96
6, 14397, Note_off_c, 4, 65, 0
6, 14400, Note_on_c, 4, 62, 96
6, 14463, Note_off_c, 4, 62, 0
6, 14472, Note_on_c, 4, 64, 96
6, 14493, Note_off_c, 4, 64, 0
6, 14496, Note_on_c, 4, 64, 96
6, 14538, Note_off_c, 4, 64, 0
6, 15264, Note_on_c, 4, 65, 62
6, 15306, Note_off_c, 4, 65, 0
6, 15312, Note_on_c, 4, 65, 62
6, 15354, Note_off_c, 4, 65, 0
6, 15360, Note_on_c, 4, 65, 62
6, 15402, Note_off_c, 4, 65, 0
6, 17136, Note_on_c, 4, 69, 62
6, 17178, Note_off_c, 4, 69, 0
6, 17184, Note_on_c, 4, 69, 62
6, 17226, Note_off_c, 4, 69, 0
6, 17232, Note_on_c, 4, 69, 62
6, 17274, Note_off_c, 4, 69, 0
6, 17424, Note_on_c, 4, 67, 62
6, 17466, Note_off_c, 4, 67, 0
6, 17472, Note_on_c, 4, 67, 62
6, 17514, Note_off_c, 4, 67, 0
6, 17520, Note_on_c, 4, 67, 62
6, 17562, Note_off_c, 4, 67, 0
6, 18144, Note_on_c, 4, 60, 127
6, 18165, Note_off_c, 4, 60, 0
6, 18168, Note_on_c, 4, 62, 127
6, 18189, Note_off_c, 4, 62, 0
6, 18192, Note_on_c, 4, 64, 127
6, 18213, Note_off_c, 4, 64, 0
6, 18216, Note_on_c, 4, 65, 127
6, 18237, Note_off_c, 4, 65, 0
6, 18240, Note_on_c, 4, 62, 127
6, 18282, Note_off_c, 4, 62, 0
6, 18288, Note_on_c, 4, 62, 127
6, 18330, Note_off_c, 4, 62, 0
6, 18336, Note_on_c, 4, 62, 127
6, 18378, Note_off_c, 4, 62, 0
6, 18384, Note_on_c, 4, 65, 127
6, 18426, Note_off_c, 4, 65, 0
6, 18528, Note_on_c, 4, 64, 127
6, 18570, Note_off_c, 4, 64, 0
6, 18576, Note_on_c, 4, 64, 127
6, 18618, Note_off_c, 4, 64, 0
6, 18624, Note_on_c, 4, 64, 127
6, 18666, Note_off_c, 4, 64, 0
6, 18672, Note_on_c, 4, 64, 127
6, 18714, Note_off_c, 4, 64, 0
6, 18720, Note_on_c, 4, 68, 127
6, 18762, Note_off_c, 4, 68, 0
6, 18768, Note_on_c, 4, 64, 127
6, 18810, Note_off_c, 4, 64, 0
6, 18816, Note_on_c, 4, 64, 127
6, 18858, Note_off_c, 4, 64, 0
6, 18864, Note_on_c, 4, 64, 127
6, 18906, Note_off_c, 4, 64, 0
6, 18912, Note_on_c, 4, 64, 127
6, 18954, Note_off_c, 4, 64, 0
6, 18960, Note_on_c, 4, 64, 127
6, 19002, Note_off_c, 4, 64, 0
6, 19104, Note_on_c, 4, 65, 127
6, 19146, Note_off_c, 4, 65, 0
6, 19152, Note_on_c, 4, 65, 127
6, 19194, Note_off_c, 4, 65, 0
6, 19200, Note_on_c, 4, 65, 127
6, 19242, Note_off_c, 4, 65, 0
6, 19248, Note_on_c, 4, 65, 127
6, 19290, Note_off_c, 4, 65, 0
6, 19296, Note_on_c, 4, 69, 127
6, 19338, Note_off_c, 4, 69, 0
6, 19344, Note_on_c, 4, 71, 127
6, 19386, Note_off_c, 4, 71, 0
6, 19392, Note_on_c, 4, 71, 127
6, 19434, Note_off_c, 4, 71, 0
6, 19440, Note_on_c, 4, 68, 127
6, 19482, Note_off_c, 4, 68, 0
6, 19488, Note_on_c, 4, 62, 127
6, 19509, Note_off_c, 4, 62, 0
6, 19512, Note_on_c, 4, 60, 127
6, 19533, Note_off_c, 4, 60, 0
6, 19536, Note_on_c, 4, 62, 127
6, 19578, Note_off_c, 4, 62, 0
6, 19584, Note_on_c, 4, 64, 127
6, 19626, Note_off_c, 4, 64, 0
6, 19632, Note_on_c, 4, 68, 127
6, 19674, Note_off_c, 4, 68, 0
6, 19680, Note_on_c, 4, 64, 127
6, 19743, Note_off_c, 4, 64, 0
6, 19752, Note_on_c, 4, 62, 127
6, 19773, Note_off_c, 4, 62, 0
6, 19776, Note_on_c, 4, 60, 127
6, 19845, Note_off_c, 4, 60, 0
6, 19848, Note_on_c, 4, 65, 127
6, 19869, Note_off_c, 4, 65, 0
6, 19872, Note_on_c, 4, 64, 127
6, 19935, Note_off_c, 4, 64, 0
6, 19944, Note_on_c, 4, 64, 127
6, 19965, Note_off_c, 4, 64, 0
6, 19968, Note_on_c, 4, 60, 62
6, 20010, Note_off_c, 4, 60, 0
6, 20160, Note_on_c, 4, 62, 62
6, 20202, Note_off_c, 4, 62, 0
6, 20208, Note_on_c, 4, 65, 62
6, 20250, Note_off_c, 4, 65, 0
6, 20256, Note_on_c, 4, 62, 62
6, 20298, Note_off_c, 4, 62, 0
6, 20448, Note_on_c, 4, 60, 62
6, 20490, Note_off_c, 4, 60, 0
6, 20496, Note_on_c, 4, 64, 62
6, 20538, Note_off_c, 4, 64, 0
6, 20544, Note_on_c, 4, 60, 62
6, 20586, Note_off_c, 4, 60, 0
6, 20880, Note_on_c, 4, 67, 62
6, 20922, Note_off_c, 4, 67, 0
6, 20928, Note_on_c, 4, 70, 62
6, 20970, Note_off_c, 4, 70, 0
6, 20976, Note_on_c, 4, 67, 62
6, 21018, Note_off_c, 4, 67, 0
6, 21168, Note_on_c, 4, 65, 62
6, 21210, Note_off_c, 4, 65, 0
6, 21216, Note_on_c, 4, 67, 62
6, 21258, Note_off_c, 4, 67, 0
6, 21264, Note_on_c, 4, 65, 62
6, 21306, Note_off_c, 4, 65, 0
6, 21312, Note_on_c, 4, 65, 62
6, 21354, Note_off_c, 4, 65, 0
6, 21360, Note_on_c, 4, 70, 62
6, 21402, Note_off_c, 4, 70, 0
6, 21408, Note_on_c, 4, 67, 62
6, 21450, Note_off_c, 4, 67, 0
6, 22896, Note_on_c, 4, 74, 49
6, 22938, Note_off_c, 4, 74, 0
6, 22944, Note_on_c, 4, 74, 49
6, 22986, Note_off_c, 4, 74, 0
6, 22992, Note_on_c, 4, 72, 49
6, 23034, Note_off_c, 4, 72, 0
6, 23184, Note_on_c, 4, 72, 49
6, 23226, Note_off_c, 4, 72, 0
6, 23232, Note_on_c, 4, 72, 49
6, 23274, Note_off_c, 4, 72, 0
6, 23280, Note_on_c, 4, 70, 49
6, 23322, Note_off_c, 4, 70, 0
6, 23424, Tempo, 1500000
6, 23616, Time_signature, 2, 2, 96, 8
6, 23808, Time_signature, 6, 2, 96, 8
6, 23904, Tempo, 600000
6, 23904, Note_on_c, 4, 70, 96
6, 23946, Note_off_c, 4, 70, 0
6, 23952, Note_on_c, 4, 70, 96
6, 23994, Note_off_c, 4, 70, 0
6, 24000, Note_on_c, 4, 72, 62
6, 24042, Note_off_c, 4, 72, 0
6, 24048, Note_on_c, 4, 69, 62
6, 24090, Note_off_c, 4, 69, 0
6, 25200, Note_on_c, 4, 60, 62
6, 25242, Note_off_c, 4, 60, 0
6, 25248, Note_on_c, 4, 60, 62
6, 25290, Note_off_c, 4, 60, 0
6, 25296, Note_on_c, 4, 60, 62
6, 25338, Note_off_c, 4, 60, 0
6, 25344, Note_on_c, 4, 60, 62
6, 25386, Note_off_c, 4, 60, 0
6, 25392, Note_on_c, 4, 60, 62
6, 25434, Note_off_c, 4, 60, 0
6, 25440, Note_on_c, 4, 64, 62
6, 25482, Note_off_c, 4, 64, 0
6, 25488, Note_on_c, 4, 64, 62
6, 25530, Note_off_c, 4, 64, 0
6, 25536, Note_on_c, 4, 64, 62
6, 25578, Note_off_c, 4, 64, 0
6, 25584, Note_on_c, 4, 64, 62
6, 25626, Note_off_c, 4, 64, 0
6, 25632, Note_on_c, 4, 67, 62
6, 25653, Note_off_c, 4, 67, 0
6, 25656, Note_on_c, 4, 65, 62
6, 25677, Note_off_c, 4, 65, 0
6, 25680, Note_on_c, 4, 67, 62
6, 25701, Note_off_c, 4, 67, 0
6, 25704, Note_on_c, 4, 64, 62
6, 25725, Note_off_c, 4, 64, 0
6, 25728, Note_on_c, 4, 69, 62
6, 25770, Note_off_c, 4, 69, 0
6, 25776, Note_on_c, 4, 69, 62
6, 25818, Note_off_c, 4, 69, 0
6, 25824, Note_on_c, 4, 69, 62
6, 25866, Note_off_c, 4, 69, 0
6, 25872, Note_on_c, 4, 69, 62
6, 25914, Note_off_c, 4, 69, 0
6, 25920, Note_on_c, 4, 60, 62
6, 25962, Note_off_c, 4, 60, 0
6, 25968, Note_on_c, 4, 65, 62
6, 26010, Note_off_c, 4, 65, 0
6, 26016, Note_on_c, 4, 67, 62
6, 26058, Note_off_c, 4, 67, 0
6, 26064, Note_on_c, 4, 60, 62
6, 26106, Note_off_c, 4, 60, 0
6, 26112, Note_on_c, 4, 67, 62
6, 26154, Note_off_c, 4, 67, 0
6, 26160, Note_on_c, 4, 72, 62
6, 26202, Note_off_c, 4, 72, 0
6, 26208, Note_on_c, 4, 64, 62
6, 26250, Note_off_c, 4, 64, 0
6, 26496, Note_on_c, 4, 69, 62
6, 26538, Note_off_c, 4, 69, 0
6, 26544, Note_on_c, 4, 69, 62
6, 26586, Note_off_c, 4, 69, 0
6, 26592, Note_on_c, 4, 67, 62
6, 26634, Note_off_c, 4, 67, 0
6, 26784, Note_on_c, 4, 67, 62
6, 26826, Note_off_c, 4, 67, 0
6, 26832, Note_on_c, 4, 67, 62
6, 26874, Note_off_c, 4, 67, 0
6, 26880, Note_on_c, 4, 65, 62
6, 26922, Note_off_c, 4, 65, 0
6, 27072, Note_on_c, 4, 65, 62
6, 27114, Note_off_c, 4, 65, 0
6, 27120, Note_on_c, 4, 65, 62
6, 27162, Note_off_c, 4, 65, 0
6, 27168, Note_on_c, 4, 64, 62
6, 27210, Note_off_c, 4, 64, 0
6, 27216, Note_on_c, 4, 64, 62
6, 27258, Note_off_c, 4, 64, 0
6, 27264, Note_on_c, 4, 64, 62
6, 27306, Note_off_c, 4, 64, 0
6, 27312, Note_on_c, 4, 60, 62
6, 27354, Note_off_c, 4, 60, 0
6, 27360, Note_on_c, 4, 60, 62
6, 27402, Note_off_c, 4, 60, 0
6, 27408, Note_on_c, 4, 60, 62
6, 27450, Note_off_c, 4, 60, 0
6, 27456, Note_on_c, 4, 62, 62
6, 27498, Note_off_c, 4, 62, 0
6, 27504, Note_on_c, 4, 62, 62
6, 27546, Note_off_c, 4, 62, 0
6, 27552, Note_on_c, 4, 62, 62
6, 27594, Note_off_c, 4, 62, 0
6, 27600, Note_on_c, 4, 64, 62
6, 27642, Note_off_c, 4, 64, 0
6, 27648, Note_on_c, 4, 64, 62
6, 27690, Note_off_c, 4, 64, 0
6, 27696, Note_on_c, 4, 60, 62
6, 27738, Note_off_c, 4, 60, 0
6, 27744, Note_on_c, 4, 65, 62
6, 27786, Note_off_c, 4, 65, 0
6, 27792, Note_on_c, 4, 65, 62
6, 27834, Note_off_c, 4, 65, 0
6, 27840, Note_on_c, 4, 65, 62
6, 27882, Note_off_c, 4, 65, 0
6, 27888, Note_on_c, 4, 67, 62
6, 27972, Note_off_c, 4, 67, 0
6, 29376, Note_on_c, 4, 60, 62
6, 29418, Note_off_c, 4, 60, 0
6, 29424, Note_on_c, 4, 60, 62
6, 29466, Note_off_c, 4, 60, 0
6, 29472, Note_on_c, 4, 60, 62
6, 29514, Note_off_c, 4, 60, 0
6, 29520, Note_on_c, 4, 60, 62
6, 29562, Note_off_c, 4, 60, 0
6, 29568, Note_on_c, 4, 60, 62
6, 29610, Note_off_c, 4, 60, 0
6, 29616, Note_on_c, 4, 64, 62
6, 29658, Note_off_c, 4, 64, 0
6, 29664, Note_on_c, 4, 64, 62
6, 29706, Note_off_c, 4, 64, 0
6, 29712, Note_on_c, 4, 64, 62
6, 29754, Note_off_c, 4, 64, 0
6, 29760, Note_on_c, 4, 64, 62
6, 29802, Note_off_c, 4, 64, 0
6, 29808, Note_on_c, 4, 67, 62
6, 29829, Note_off_c, 4, 67, 0
6, 29832, Note_on_c, 4, 65, 62
6, 29853, Note_off_c, 4, 65, 0
6, 29856, Note_on_c, 4, 67, 62
6, 29877, Note_off_c, 4, 67, 0
6, 29880, Note_on_c, 4, 64, 62
6, 29901, Note_off_c, 4, 64, 0
6, 29904, Note_on_c, 4, 69, 62
6, 29946, Note_off_c, 4, 69, 0
6, 29952, Note_on_c, 4, 69, 62
6, 29994, Note_off_c, 4, 69, 0
6, 30000, Note_on_c, 4, 69, 62
6, 30042, Note_off_c, 4, 69, 0
6, 30048, Note_on_c, 4, 69, 62
6, 30090, Note_off_c, 4, 69, 0
6, 30096, Note_on_c, 4, 60, 62
6, 30138, Note_off_c, 4, 60, 0
6, 30144, Note_on_c, 4, 65, 62
6, 30186, Note_off_c, 4, 65, 0
6, 30192, Note_on_c, 4, 67, 62
6, 30234, Note_off_c, 4, 67, 0
6, 30240, Note_on_c, 4, 67, 62
6, 30282, Note_off_c, 4, 67, 0
6, 30288, Note_on_c, 4, 71, 62
6, 30330, Note_off_c, 4, 71, 0
6, 30336, Note_on_c, 4, 72, 62
6, 30420, Note_off_c, 4, 72, 0
6, 30960, Note_on_c, 4, 60, 62
6, 31002, Note_off_c, 4, 60, 0
6, 31008, Note_on_c, 4, 60, 62
6, 31050, Note_off_c, 4, 60, 0
6, 31056, Note_on_c, 4, 60, 62
6, 31098, Note_off_c, 4, 60, 0
6, 31104, Note_on_c, 4, 60, 62
6, 31146, Note_off_c, 4, 60, 0
6, 31152, Note_on_c, 4, 60, 62
6, 31194, Note_off_c, 4, 60, 0
6, 31200, Note_on_c, 4, 64, 62
6, 31242, Note_off_c, 4, 64, 0
6, 31248, Note_on_c, 4, 64, 62
6, 31290, Note_off_c, 4, 64, 0
6, 31296, Note_on_c, 4, 64, 62
6, 31338, Note_off_c, 4, 64, 0
6, 31344, Note_on_c, 4, 64, 62
6, 31386, Note_off_c, 4, 64, 0
6, 31392, Note_on_c, 4, 67, 62
6, 31413, Note_off_c, 4, 67, 0
6, 31416, Note_on_c, 4, 65, 62
6, 31437, Note_off_c, 4, 65, 0
6, 31440, Note_on_c, 4, 67, 62
6, 31461, Note_off_c, 4, 67, 0
6, 31464, Note_on_c, 4, 64, 62
6, 31485, Note_off_c, 4, 64, 0
6, 31488, Note_on_c, 4, 69, 62
6, 31530, Note_off_c, 4, 69, 0
6, 31536, Note_on_c, 4, 69, 62
6, 31578, Note_off_c, 4, 69, 0
6, 31584, Note_on_c, 4, 69, 62
6, 31626, Note_off_c, 4, 69, 0
6, 31632, Note_on_c, 4, 69, 62
6, 31674, Note_off_c, 4, 69, 0
6, 31680, Note_on_c, 4, 60, 62
6, 31722, Note_off_c, 4, 60, 0
6, 31728, Note_on_c, 4, 65, 62
6, 31770, Note_off_c, 4, 65, 0
6, 31776, Note_on_c, 4, 67, 62
6, 31818, Note_off_c, 4, 67, 0
6, 31824, Note_on_c, 4, 60, 62
6, 31866, Note_off_c, 4, 60, 0
6, 31872, Note_on_c, 4, 67, 62
6, 31914, Note_off_c, 4, 67, 0
6, 31920, Note_on_c, 4, 72, 62
6, 32004, Note_off_c, 4, 72, 0
6, 32016, Note_on_c, 4, 67, 62
6, 32058, Note_off_c, 4, 67, 0
6, 32064, Note_on_c, 4, 65, 62
6, 32106, Note_off_c, 4, 65, 0
6, 32208, Note_on_c, 4, 67, 62
6, 32250, Note_off_c, 4, 67, 0
6, 32352, Note_on_c, 4, 69, 62
6, 32394, Note_off_c, 4, 69, 0
6, 32496, Note_on_c, 4, 64, 62
6, 32538, Note_off_c, 4, 64, 0
6, 32640, Note_on_c, 4, 65, 62
6, 32682, Note_off_c, 4, 65, 0
6, 32784, Note_on_c, 4, 60, 62
6, 32826, Note_off_c, 4, 60, 0
6, 32928, Note_on_c, 4, 62, 62
6, 32970, Note_off_c, 4, 62, 0
6, 32976, Note_on_c, 4, 62, 62
6, 33018, Note_off_c, 4, 62, 0
6, 33024, Note_on_c, 4, 62, 62
6, 33066, Note_off_c, 4, 62, 0
6, 33072, Note_on_c, 4, 62, 62
6, 33114, Note_off_c, 4, 62, 0
6, 33216, Note_on_c, 4, 60, 62
6, 33258, Note_off_c, 4, 60, 0
6, 33264, Note_on_c, 4, 60, 62
6, 33306, Note_off_c, 4, 60, 0
6, 33312, Note_on_c, 4, 60, 62
6, 33354, Note_off_c, 4, 60, 0
6, 33360, Note_on_c, 4, 60, 62
6, 33402, Note_off_c, 4, 60, 0
6, 33408, Note_on_c, 4, 64, 62
6, 33450, Note_off_c, 4, 64, 0
6, 33456, Note_on_c, 4, 60, 62
6, 33498, Note_off_c, 4, 60, 0
6, 33504, Note_on_c, 4, 60, 62
6, 33546, Note_off_c, 4, 60, 0
6, 33552, Note_on_c, 4, 60, 62
6, 33594, Note_off_c, 4, 60, 0
6, 33600, Note_on_c, 4, 60, 62
6, 33642, Note_off_c, 4, 60, 0
6, 33648, Note_on_c, 4, 60, 62
6, 33690, Note_off_c, 4, 60, 0
6, 33792, Note_on_c, 4, 62, 62
6, 33834, Note_off_c, 4, 62, 0
6, 33840, Note_on_c, 4, 62, 62
6, 33882, Note_off_c, 4, 62, 0
6, 33888, Note_on_c, 4, 62, 62
6, 33930, Note_off_c, 4, 62, 0
6, 33936, Note_on_c, 4, 62, 62
6, 33978, Note_off_c, 4, 62, 0
6, 33984, Note_on_c, 4, 62, 62
6, 34026, Note_off_c, 4, 62, 0
6, 34032, Note_on_c, 4, 62, 62
6, 34074, Note_off_c, 4, 62, 0
6, 34080, Note_on_c, 4, 64, 62
6, 34122, Note_off_c, 4, 64, 0
6, 34128, Note_on_c, 4, 67, 62
6, 34170, Note_off_c, 4, 67, 0
6, 34176, Note_on_c, 4, 64, 62
6, 34218, Note_off_c, 4, 64, 0
6, 34224, Note_on_c, 4, 60, 62
6, 34266, Note_off_c, 4, 60, 0
6, 34272, Note_on_c, 4, 60, 62
6, 34314, Note_off_c, 4, 60, 0
6, 34320, Note_on_c, 4, 64, 62
6, 34362, Note_off_c, 4, 64, 0
6, 34368, Note_on_c, 4, 67, 62
6, 34389, Note_off_c, 4, 67, 0
6, 34392, Note_on_c, 4, 65, 62
6, 34413, Note_off_c, 4, 65, 0
6, 34416, Note_on_c, 4, 67, 62
6, 34437, Note_off_c, 4, 67, 0
6, 34440, Note_on_c, 4, 64, 62
6, 34461, Note_off_c, 4, 64, 0
6, 34464, Note_on_c, 4, 70, 62
6, 34485, Note_off_c, 4, 70, 0
6, 34488, Note_on_c, 4, 69, 62
6, 34509, Note_off_c, 4, 69, 0
6, 34512, Note_on_c, 4, 70, 62
6, 34533, Note_off_c, 4, 70, 0
6, 34536, Note_on_c, 4, 67, 62
6, 34557, Note_off_c, 4, 67, 0
6, 34560, Note_on_c, 4, 76, 62
6, 34602, Note_off_c, 4, 76, 0
6, 34608, Note_on_c, 4, 76, 62
6, 34650, Note_off_c, 4, 76, 0
6, 34656, Note_on_c, 4, 72, 62
6, 34698, Note_off_c, 4, 72, 0
6, 34704, Note_on_c, 4, 69, 62
6, 34746, Note_off_c, 4, 69, 0
6, 34752, Note_on_c, 4, 69, 62
6, 34821, Note_off_c, 4, 69, 0
6, 34824, Note_on_c, 4, 74, 62
6, 34845, Note_off_c, 4, 74, 0
6, 34848, Note_on_c, 4, 72, 62
6, 34890, Note_off_c, 4, 72, 0
6, 34896, Note_on_c, 4, 70, 62
6, 34938, Note_off_c, 4, 70, 0
6, 34944, Note_on_c, 4, 69, 62
6, 34986, Note_off_c, 4, 69, 0
6, 34992, Note_on_c, 4, 65, 62
6, 35034, Note_off_c, 4, 65, 0
6, 35040, Note_on_c, 4, 65, 62
6, 35082, Note_off_c, 4, 65, 0
6, 35088, Note_on_c, 4, 65, 62
6, 35130, Note_off_c, 4, 65, 0
6, 35136, Note_on_c, 4, 62, 62
6, 35178, Note_off_c, 4, 62, 0
6, 35184, Note_on_c, 4, 60, 62
6, 35226, Note_off_c, 4, 60, 0
6, 35232, Note_on_c, 4, 60, 62
6, 35295, Note_off_c, 4, 60, 0
6, 35304, Note_on_c, 4, 60, 62
6, 35325, Note_off_c, 4, 60, 0
6, 35328, Note_on_c, 4, 62, 62
6, 35376, Tempo, 750000
6, 35397, Note_off_c, 4, 62, 0
6, 35400, Note_on_c, 4, 62, 62
6, 35421, Note_off_c, 4, 62, 0
6, 35424, Note_on_c, 4, 60, 62
6, 35487, Note_off_c, 4, 60, 0
6, 35496, Note_on_c, 4, 60, 62
6, 35517, Note_off_c, 4, 60, 0
6, 35520, Note_on_c, 4, 60, 62
6, 35796, Note_off_c, 4, 60, 0
6, 35796, End_track
7, 0, Start_track
7, 0, Title_t, "Fagotto "
7, 0, Control_c, 5, 0, 0
7, 0, Program_c, 5, 70
7, 0, Time_signature, 6, 2, 96, 8
7, 0, Tempo, 600000
7, 96, Tempo, 600000
7, 96, Note_on_c, 5, 53, 62
7, 138, Note_off_c, 5, 53, 0
7, 144, Note_on_c, 5, 57, 62
7, 186, Note_off_c, 5, 57, 0
7, 192, Note_on_c, 5, 60, 62
7, 234, Note_off_c, 5, 60, 0
7, 240, Note_on_c, 5, 57, 62
7, 282, Note_off_c, 5, 57, 0
7, 288, Note_on_c, 5, 53, 62
7, 330, Note_off_c, 5, 53, 0
7, 384, Note_on_c, 5, 52, 62
7, 426, Note_off_c, 5, 52, 0
7, 432, Note_on_c, 5, 55, 62
7, 474, Note_off_c, 5, 55, 0
7, 480, Note_on_c, 5, 60, 62
7, 522, Note_off_c, 5, 60, 0
7, 528, Note_on_c, 5, 52, 62
7, 570, Note_off_c, 5, 52, 0
7, 576, Note_on_c, 5, 48, 62
7, 618, Note_off_c, 5, 48, 0
7, 672, Note_on_c, 5, 50, 62
7, 714, Note_off_c, 5, 50, 0
7, 720, Note_on_c, 5, 53, 62
7, 762, Note_off_c, 5, 53, 0
7, 768, Note_on_c, 5, 50, 62
7, 810, Note_off_c, 5, 50, 0
7, 816, Note_on_c, 5, 45, 62
7, 858, Note_off_c, 5, 45, 0
7, 864, Note_on_c, 5, 41, 62
7, 906, Note_off_c, 5, 41, 0
7, 960, Note_on_c, 5, 48, 62
7, 1002, Note_off_c, 5, 48, 0
7, 1008, Note_on_c, 5, 48, 62
7, 1050, Note_off_c, 5, 48, 0
7, 1056, Note_on_c, 5, 48, 62
7, 1098, Note_off_c, 5, 48, 0
7, 1104, Note_on_c, 5, 48, 62
7, 1146, Note_off_c, 5, 48, 0
7, 1152, Note_on_c, 5, 52, 62
7, 1173, Note_off_c, 5, 52, 0
7, 1176, Note_on_c, 5, 50, 62
7, 1197, Note_off_c, 5, 50, 0
7, 1200, Note_on_c, 5, 52, 62
7, 1221, Note_off_c, 5, 52, 0
7, 1224, Note_on_c, 5, 48, 62
7, 1245, Note_off_c, 5, 48, 0
7, 1248, Note_on_c, 5, 53, 62
7, 1290, Note_off_c, 5, 53, 0
7, 1296, Note_on_c, 5, 57, 62
7, 1338, Note_off_c, 5, 57, 0
7, 1344, Note_on_c, 5, 62, 62
7, 1386, Note_off_c, 5, 62, 0
7, 1392, Note_on_c, 5, 52, 62
7, 1434, Note_off_c, 5, 52, 0
7, 1440, Note_on_c, 5, 55, 62
7, 1482, Note_off_c, 5, 55, 0
7, 1488, Note_on_c, 5, 60, 62
7, 1530, Note_off_c, 5, 60, 0
7, 1536, Note_on_c, 5, 50, 62
7, 1578, Note_off_c, 5, 50, 0
7, 1584, Note_on_c, 5, 53, 62
7, 1626, Note_off_c, 5, 53, 0
7, 1632, Note_on_c, 5, 58, 62
7, 1674, Note_off_c, 5, 58, 0
7, 1680, Note_on_c, 5, 48, 62
7, 1722, Note_off_c, 5, 48, 0
7, 1728, Note_on_c, 5, 52, 62
7, 1770, Note_off_c, 5, 52, 0
7, 1776, Note_on_c, 5, 57, 62
7, 1818, Note_off_c, 5, 57, 0
7, 1824, Note_on_c, 5, 46, 62
7, 1866, Note_off_c, 5, 46, 0
7, 1872, Note_on_c, 5, 50, 62
7, 1914, Note_off_c, 5, 50, 0
7, 1920, Note_on_c, 5, 55, 62
7, 1962, Note_off_c, 5, 55, 0
7, 1968, Note_on_c, 5, 45, 62
7, 2010, Note_off_c, 5, 45, 0
7, 2016, Note_on_c, 5, 48, 62
7, 2058, Note_off_c, 5, 48, 0
7, 2064, Note_on_c, 5, 53, 62
7, 2106, Note_off_c, 5, 53, 0
7, 2112, Note_on_c, 5, 43, 62
7, 2154, Note_off_c, 5, 43, 0
7, 2160, Note_on_c, 5, 50, 62
7, 2202, Note_off_c, 5, 50, 0
7, 2208, Note_on_c, 5, 55, 62
7, 2250, Note_off_c, 5, 55, 0
7, 2256, Note_on_c, 5, 41, 62
7, 2298, Note_off_c, 5, 41, 0
7, 2304, Note_on_c, 5, 50, 62
7, 2346, Note_off_c, 5, 50, 0
7, 2352, Note_on_c, 5, 55, 62
7, 2394, Note_off_c, 5, 55, 0
7, 2400, Note_on_c, 5, 40, 62
7, 2442, Note_off_c, 5, 40, 0
7, 2448, Note_on_c, 5, 48, 62
7, 2490, Note_off_c, 5, 48, 0
7, 2496, Note_on_c, 5, 55, 62
7, 2538, Note_off_c, 5, 55, 0
7, 2544, Note_on_c, 5, 52, 62
7, 2586, Note_off_c, 5, 52, 0
7, 2592, Note_on_c, 5, 48, 62
7, 2634, Note_off_c, 5, 48, 0
7, 2640, Note_on_c, 5, 60, 62
7, 2682, Note_off_c, 5, 60, 0
7, 2688, Note_on_c, 5, 41, 62
7, 2730, Note_off_c, 5, 41, 0
7, 2736, Note_on_c, 5, 48, 62
7, 2778, Note_off_c, 5, 48, 0
7, 2784, Note_on_c, 5, 53, 62
7, 2826, Note_off_c, 5, 53, 0
7, 2832, Note_on_c, 5, 40, 62
7, 2874, Note_off_c, 5, 40, 0
7, 2880, Note_on_c, 5, 48, 62
7, 2922, Note_off_c, 5, 48, 0
7, 2928, Note_on_c, 5, 53, 62
7, 2970, Note_off_c, 5, 53, 0
7, 2976, Note_on_c, 5, 38, 62
7, 3018, Note_off_c, 5, 38, 0
7, 3024, Note_on_c, 5, 50, 62
7, 3066, Note_off_c, 5, 50, 0
7, 3072, Note_on_c, 5, 45, 62
7, 3114, Note_off_c, 5, 45, 0
7, 3120, Note_on_c, 5, 46, 62
7, 3162, Note_off_c, 5, 46, 0
7, 3168, Note_on_c, 5, 50, 62
7, 3210, Note_off_c, 5, 50, 0
7, 3216, Note_on_c, 5, 43, 62
7, 3258, Note_off_c, 5, 43, 0
7, 3264, Note_on_c, 5, 48, 62
7, 3306, Note_off_c, 5, 48, 0
7, 3312, Note_on_c, 5, 52, 62
7, 3354, Note_off_c, 5, 52, 0
7, 3360, Note_on_c, 5, 55, 62
7, 3402, Note_off_c, 5, 55, 0
7, 3408, Note_on_c, 5, 48, 62
7, 3450, Note_off_c, 5, 48, 0
7, 3456, Note_on_c, 5, 52, 62
7, 3498, Note_off_c, 5, 52, 0
7, 3504, Note_on_c, 5, 55, 62
7, 3546, Note_off_c, 5, 55, 0
7, 3552, Note_on_c, 5, 48, 62
7, 3594, Note_off_c, 5, 48, 0
7, 3600, Note_on_c, 5, 52, 62
7, 3642, Note_off_c, 5, 52, 0
7, 3648, Note_on_c, 5, 55, 62
7, 3690, Note_off_c, 5, 55, 0
7, 3696, Note_on_c, 5, 48, 62
7, 3738, Note_off_c, 5, 48, 0
7, 3744, Note_on_c, 5, 52, 62
7, 3786, Note_off_c, 5, 52, 0
7, 3792, Note_on_c, 5, 48, 62
7, 3834, Note_off_c, 5, 48, 0
7, 3840, Note_on_c, 5, 53, 62
7, 3861, Note_off_c, 5, 53, 0
7, 3864, Note_on_c, 5, 52, 62
7, 3885, Note_off_c, 5, 52, 0
7, 3888, Note_on_c, 5, 53, 62
7, 3909, Note_off_c, 5, 53, 0
7, 3912, Note_on_c, 5, 52, 62
7, 3933, Note_off_c, 5, 52, 0
7, 3936, Note_on_c, 5, 50, 62
7, 4005, Note_off_c, 5, 50, 0
7, 4008, Note_on_c, 5, 46, 62
7, 4029, Note_off_c, 5, 46, 0
7, 4032, Note_on_c, 5, 48, 62
7, 4074, Note_off_c, 5, 48, 0
7, 4080, Note_on_c, 5, 36, 62
7, 4122, Note_off_c, 5, 36, 0
7, 4128, Note_on_c, 5, 41, 62
7, 4170, Note_off_c, 5, 41, 0
7, 4176, Note_on_c, 5, 45, 62
7, 4218, Note_off_c, 5, 45, 0
7, 4224, Note_on_c, 5, 41, 62
7, 4266, Note_off_c, 5, 41, 0
7, 4272, Note_on_c, 5, 38, 62
7, 4314, Note_off_c, 5, 38, 0
7, 4320, Note_on_c, 5, 43, 62
7, 4362, Note_off_c, 5, 43, 0
7, 4368, Note_on_c, 5, 36, 62
7, 4410, Note_off_c, 5, 36, 0
7, 4416, Note_on_c, 5, 41, 62
7, 4458, Note_off_c, 5, 41, 0
7, 4464, Note_on_c, 5, 45, 62
7, 4506, Note_off_c, 5, 45, 0
7, 4512, Note_on_c, 5, 50, 62
7, 4581, Note_off_c, 5, 50, 0
7, 4584, Note_on_c, 5, 46, 62
7, 4605, Note_off_c, 5, 46, 0
7, 4608, Note_on_c, 5, 48, 62
7, 4650, Note_off_c, 5, 48, 0
7, 4656, Note_on_c, 5, 36, 62
7, 4698, Note_off_c, 5, 36, 0
7, 4704, Note_on_c, 5, 41, 62
7, 4746, Note_off_c, 5, 41, 0
7, 5856, Note_on_c, 5, 53, 62
7, 5898, Note_off_c, 5, 53, 0
7, 5904, Note_on_c, 5, 57, 62
7, 5946, Note_off_c, 5, 57, 0
7, 5952, Note_on_c, 5, 60, 62
7, 5994, Note_off_c, 5, 60, 0
7, 6000, Note_on_c, 5, 57, 62
7, 6042, Note_off_c, 5, 57, 0
7, 6048, Note_on_c, 5, 53, 62
7, 6090, Note_off_c, 5, 53, 0
7, 6144, Note_on_c, 5, 52, 62
7, 6186, Note_off_c, 5, 52, 0
7, 6192, Note_on_c, 5, 55, 62
7, 6234, Note_off_c, 5, 55, 0
7, 6240, Note_on_c, 5, 60, 62
7, 6282, Note_off_c, 5, 60, 0
7, 6288, Note_on_c, 5, 52, 62
7, 6330, Note_off_c, 5, 52, 0
7, 6336, Note_on_c, 5, 48, 62
7, 6378, Note_off_c, 5, 48, 0
7, 6432, Note_on_c, 5, 50, 62
7, 6474, Note_off_c, 5, 50, 0
7, 6480, Note_on_c, 5, 53, 62
7, 6522, Note_off_c, 5, 53, 0
7, 6528, Note_on_c, 5, 50, 62
7, 6570, Note_off_c, 5, 50, 0
7, 6576, Note_on_c, 5, 45, 62
7, 6618, Note_off_c, 5, 45, 0
7, 6624, Note_on_c, 5, 41, 62
7, 6666, Note_off_c, 5, 41, 0
7, 6720, Note_on_c, 5, 48, 62
7, 6762, Note_off_c, 5, 48, 0
7, 6768, Note_on_c, 5, 48, 62
7, 6810, Note_off_c, 5, 48, 0
7, 6816, Note_on_c, 5, 48, 62
7, 6858, Note_off_c, 5, 48, 0
7, 6864, Note_on_c, 5, 48, 62
7, 6885, Note_off_c, 5, 48, 0
7, 6888, Note_on_c, 5, 50, 62
7, 6909, Note_off_c, 5, 50, 0
7, 6912, Note_on_c, 5, 52, 62
7, 6933, Note_off_c, 5, 52, 0
7, 6936, Note_on_c, 5, 50, 62
7, 6957, Note_off_c, 5, 50, 0
7, 6960, Note_on_c, 5, 52, 62
7, 6981, Note_off_c, 5, 52, 0
7, 6984, Note_on_c, 5, 48, 62
7, 7005, Note_off_c, 5, 48, 0
7, 7008, Note_on_c, 5, 53, 62
7, 7029, Note_off_c, 5, 53, 0
7, 7032, Note_on_c, 5, 55, 62
7, 7053, Note_off_c, 5, 55, 0
7, 7056, Note_on_c, 5, 57, 62
7, 7077, Note_off_c, 5, 57, 0
7, 7080, Note_on_c, 5, 55, 62
7, 7101, Note_off_c, 5, 55, 0
7, 7104, Note_on_c, 5, 57, 62
7, 7125, Note_off_c, 5, 57, 0
7, 7128, Note_on_c, 5, 53, 62
7, 7149, Note_off_c, 5, 53, 0
7, 7152, Note_on_c, 5, 47, 62
7, 7173, Note_off_c, 5, 47, 0
7, 7176, Note_on_c, 5, 48, 62
7, 7197, Note_off_c, 5, 48, 0
7, 7200, Note_on_c, 5, 50, 62
7, 7221, Note_off_c, 5, 50, 0
7, 7224, Note_on_c, 5, 48, 62
7, 7245, Note_off_c, 5, 48, 0
7, 7248, Note_on_c, 5, 50, 62
7, 7269, Note_off_c, 5, 50, 0
7, 7272, Note_on_c, 5, 47, 62
7, 7293, Note_off_c, 5, 47, 0
7, 7296, Note_on_c, 5, 52, 62
7, 7317, Note_off_c, 5, 52, 0
7, 7320, Note_on_c, 5, 53, 62
7, 7341, Note_off_c, 5, 53, 0
7, 7344, Note_on_c, 5, 55, 62
7, 7365, Note_off_c, 5, 55, 0
7, 7368, Note_on_c, 5, 53, 62
7, 7389, Note_off_c, 5, 53, 0
7, 7392, Note_on_c, 5, 55, 62
7, 7413, Note_off_c, 5, 55, 0
7, 7416, Note_on_c, 5, 52, 62
7, 7437, Note_off_c, 5, 52, 0
7, 7440, Note_on_c, 5, 45, 62
7, 7461, Note_off_c, 5, 45, 0
7, 7464, Note_on_c, 5, 47, 62
7, 7485, Note_off_c, 5, 47, 0
7, 7488, Note_on_c, 5, 48, 62
7, 7509, Note_off_c, 5, 48, 0
7, 7512, Note_on_c, 5, 47, 62
7, 7533, Note_off_c, 5, 47, 0
7, 7536, Note_on_c, 5, 48, 62
7, 7557, Note_off_c, 5, 48, 0
7, 7560, Note_on_c, 5, 45, 62
7, 7581, Note_off_c, 5, 45, 0
7, 7584, Note_on_c, 5, 50, 62
7, 7605, Note_off_c, 5, 50, 0
7, 7608, Note_on_c, 5, 52, 62
7, 7629, Note_off_c, 5, 52, 0
7, 7632, Note_on_c, 5, 53, 62
7, 7653, Note_off_c, 5, 53, 0
7, 7656, Note_on_c, 5, 52, 62
7, 7677, Note_off_c, 5, 52, 0
7, 7680, Note_on_c, 5, 53, 62
7, 7701, Note_off_c, 5, 53, 0
7, 7704, Note_on_c, 5, 50, 62
7, 7725, Note_off_c, 5, 50, 0
7, 7728, Note_on_c, 5, 43, 62
7, 7770, Note_off_c, 5, 43, 0
7, 7776, Note_on_c, 5, 43, 62
7, 7818, Note_off_c, 5, 43, 0
7, 7824, Note_on_c, 5, 43, 62
7, 7866, Note_off_c, 5, 43, 0
7, 7872, Note_on_c, 5, 43, 62
7, 7914, Note_off_c, 5, 43, 0
7, 7920, Note_on_c, 5, 43, 62
7, 7962, Note_off_c, 5, 43, 0
7, 7968, Note_on_c, 5, 43, 62
7, 8010, Note_off_c, 5, 43, 0
7, 8016, Note_on_c, 5, 43, 62
7, 8058, Note_off_c, 5, 43, 0
7, 8064, Note_on_c, 5, 43, 62
7, 8106, Note_off_c, 5, 43, 0
7, 8112, Note_on_c, 5, 43, 62
7, 8154, Note_off_c, 5, 43, 0
7, 8160, Note_on_c, 5, 43, 62
7, 8202, Note_off_c, 5, 43, 0
7, 8208, Note_on_c, 5, 43, 62
7, 8250, Note_off_c, 5, 43, 0
7, 8256, Note_on_c, 5, 43, 62
7, 8298, Note_off_c, 5, 43, 0
7, 8304, Note_on_c, 5, 43, 62
7, 8346, Note_off_c, 5, 43, 0
7, 8352, Note_on_c, 5, 43, 62
7, 8394, Note_off_c, 5, 43, 0
7, 8400, Note_on_c, 5, 43, 62
7, 8442, Note_off_c, 5, 43, 0
7, 8448, Note_on_c, 5, 43, 62
7, 8532, Note_off_c, 5, 43, 0
7, 9888, Note_on_c, 5, 48, 62
7, 9930, Note_off_c, 5, 48, 0
7, 9936, Note_on_c, 5, 52, 62
7, 9978, Note_off_c, 5, 52, 0
7, 9984, Note_on_c, 5, 55, 62
7, 10026, Note_off_c, 5, 55, 0
7, 10032, Note_on_c, 5, 52, 62
7, 10074, Note_off_c, 5, 52, 0
7, 10080, Note_on_c, 5, 48, 62
7, 10122, Note_off_c, 5, 48, 0
7, 10176, Note_on_c, 5, 47, 62
7, 10218, Note_off_c, 5, 47, 0
7, 10224, Note_on_c, 5, 50, 62
7, 10266, Note_off_c, 5, 50, 0
7, 10272, Note_on_c, 5, 55, 62
7, 10314, Note_off_c, 5, 55, 0
7, 10320, Note_on_c, 5, 47, 62
7, 10362, Note_off_c, 5, 47, 0
7, 10368, Note_on_c, 5, 43, 62
7, 10410, Note_off_c, 5, 43, 0
7, 10464, Note_on_c, 5, 45, 62
7, 10506, Note_off_c, 5, 45, 0
7, 10512, Note_on_c, 5, 48, 62
7, 10554, Note_off_c, 5, 48, 0
7, 10560, Note_on_c, 5, 45, 62
7, 10602, Note_off_c, 5, 45, 0
7, 10608, Note_on_c, 5, 41, 62
7, 10650, Note_off_c, 5, 41, 0
7, 10656, Note_on_c, 5, 38, 62
7, 10698, Note_off_c, 5, 38, 0
7, 10752, Note_on_c, 5, 43, 62
7, 10794, Note_off_c, 5, 43, 0
7, 10800, Note_on_c, 5, 43, 62
7, 10842, Note_off_c, 5, 43, 0
7, 10848, Note_on_c, 5, 43, 62
7, 10890, Note_off_c, 5, 43, 0
7, 10896, Note_on_c, 5, 43, 62
7, 10980, Note_off_c, 5, 43, 0
7, 12480, Note_on_c, 5, 50, 62
7, 12522, Note_off_c, 5, 50, 0
7, 12528, Note_on_c, 5, 57, 62
7, 12570, Note_off_c, 5, 57, 0
7, 12576, Note_on_c, 5, 62, 62
7, 12618, Note_off_c, 5, 62, 0
7, 12624, Note_on_c, 5, 48, 62
7, 12666, Note_off_c, 5, 48, 0
7, 12672, Note_on_c, 5, 57, 62
7, 12714, Note_off_c, 5, 57, 0
7, 12720, Note_on_c, 5, 62, 62
7, 12762, Note_off_c, 5, 62, 0
7, 12768, Note_on_c, 5, 47, 62
7, 12810, Note_off_c, 5, 47, 0
7, 12816, Note_on_c, 5, 43, 62
7, 12858, Note_off_c, 5, 43, 0
7, 12864, Note_on_c, 5, 50, 62
7, 12906, Note_off_c, 5, 50, 0
7, 12912, Note_on_c, 5, 55, 62
7, 12954, Note_off_c, 5, 55, 0
7, 12960, Note_on_c, 5, 43, 62
7, 13002, Note_off_c, 5, 43, 0
7, 13008, Note_on_c, 5, 55, 62
7, 13050, Note_off_c, 5, 55, 0
7, 13056, Note_on_c, 5, 48, 62
7, 13098, Note_off_c, 5, 48, 0
7, 13104, Note_on_c, 5, 55, 62
7, 13146, Note_off_c, 5, 55, 0
7, 13152, Note_on_c, 5, 60, 62
7, 13194, Note_off_c, 5, 60, 0
7, 13200, Note_on_c, 5, 47, 62
7, 13242, Note_off_c, 5, 47, 0
7, 13248, Note_on_c, 5, 55, 62
7, 13290, Note_off_c, 5, 55, 0
7, 13296, Note_on_c, 5, 60, 62
7, 13338, Note_off_c, 5, 60, 0
7, 13344, Note_on_c, 5, 45, 62
7, 13386, Note_off_c, 5, 45, 0
7, 13392, Note_on_c, 5, 57, 62
7, 13434, Note_off_c, 5, 57, 0
7, 13440, Note_on_c, 5, 52, 62
7, 13482, Note_off_c, 5, 52, 0
7, 13488, Note_on_c, 5, 53, 62
7, 13530, Note_off_c, 5, 53, 0
7, 13536, Note_on_c, 5, 57, 62
7, 13578, Note_off_c, 5, 57, 0
7, 13584, Note_on_c, 5, 50, 62
7, 13626, Note_off_c, 5, 50, 0
7, 13632, Note_on_c, 5, 43, 62
7, 13674, Note_off_c, 5, 43, 0
7, 13680, Note_on_c, 5, 47, 62
7, 13722, Note_off_c, 5, 47, 0
7, 13728, Note_on_c, 5, 50, 62
7, 13770, Note_off_c, 5, 50, 0
7, 13776, Note_on_c, 5, 43, 62
7, 13818, Note_off_c, 5, 43, 0
7, 13824, Note_on_c, 5, 47, 62
7, 13866, Note_off_c, 5, 47, 0
7, 13872, Note_on_c, 5, 50, 62
7, 13914, Note_off_c, 5, 50, 0
7, 13920, Note_on_c, 5, 43, 62
7, 13962, Note_off_c, 5, 43, 0
7, 13968, Note_on_c, 5, 47, 62
7, 14010, Note_off_c, 5, 47, 0
7, 14016, Note_on_c, 5, 50, 62
7, 14058, Note_off_c, 5, 50, 0
7, 14064, Note_on_c, 5, 55, 62
7, 14106, Note_off_c, 5, 55, 0
7, 14112, Note_on_c, 5, 59, 62
7, 14154, Note_off_c, 5, 59, 0
7, 14160, Note_on_c, 5, 55, 62
7, 14202, Note_off_c, 5, 55, 0
7, 14208, Note_on_c, 5, 60, 62
7, 14229, Note_off_c, 5, 60, 0
7, 14232, Note_on_c, 5, 59, 62
7, 14253, Note_off_c, 5, 59, 0
7, 14256, Note_on_c, 5, 60, 62
7, 14277, Note_off_c, 5, 60, 0
7, 14280, Note_on_c, 5, 59, 62
7, 14301, Note_off_c, 5, 59, 0
7, 14304, Note_on_c, 5, 57, 62
7, 14373, Note_off_c, 5, 57, 0
7, 14376, Note_on_c, 5, 53, 62
7, 14397, Note_off_c, 5, 53, 0
7, 14400, Note_on_c, 5, 55, 62
7, 14442, Note_off_c, 5, 55, 0
7, 14448, Note_on_c, 5, 43, 62
7, 14490, Note_off_c, 5, 43, 0
7, 14496, Note_on_c, 5, 48, 62
7, 14538, Note_off_c, 5, 48, 0
7, 15264, Note_on_c, 5, 57, 62
7, 15285, Note_off_c, 5, 57, 0
7, 15288, Note_on_c, 5, 55, 62
7, 15309, Note_off_c, 5, 55, 0
7, 15312, Note_on_c, 5, 57, 62
7, 15333, Note_off_c, 5, 57, 0
7, 15336, Note_on_c, 5, 53, 62
7, 15357, Note_off_c, 5, 53, 0
7, 15360, Note_on_c, 5, 58, 62
7, 15402, Note_off_c, 5, 58, 0
7, 17088, Note_on_c, 5, 45, 62
7, 17109, Note_off_c, 5, 45, 0
7, 17112, Note_on_c, 5, 47, 62
7, 17133, Note_off_c, 5, 47, 0
7, 17136, Note_on_c, 5, 48, 62
7, 17157, Note_off_c, 5, 48, 0
7, 17160, Note_on_c, 5, 47, 62
7, 17181, Note_off_c, 5, 47, 0
7, 17184, Note_on_c, 5, 48, 62
7, 17205, Note_off_c, 5, 48, 0
7, 17208, Note_on_c, 5, 45, 62
7, 17229, Note_off_c, 5, 45, 0
7, 17232, Note_on_c, 5, 50, 62
7, 17253, Note_off_c, 5, 50, 0
7, 17256, Note_on_c, 5, 52, 62
7, 17277, Note_off_c, 5, 52, 0
7, 17280, Note_on_c, 5, 53, 62
7, 17301, Note_off_c, 5, 53, 0
7, 17304, Note_on_c, 5, 52, 62
7, 17325, Note_off_c, 5, 52, 0
7, 17328, Note_on_c, 5, 53, 62
7, 17349, Note_off_c, 5, 53, 0
7, 17352, Note_on_c, 5, 50, 62
7, 17373, Note_off_c, 5, 50, 0
7, 17376, Note_on_c, 5, 43, 62
7, 17397, Note_off_c, 5, 43, 0
7, 17400, Note_on_c, 5, 45, 62
7, 17421, Note_off_c, 5, 45, 0
7, 17424, Note_on_c, 5, 47, 62
7, 17445, Note_off_c, 5, 47, 0
7, 17448, Note_on_c, 5, 45, 62
7, 17469, Note_off_c, 5, 45, 0
7, 17472, Note_on_c, 5, 47, 62
7, 17493, Note_off_c, 5, 47, 0
7, 17496, Note_on_c, 5, 43, 62
7, 17517, Note_off_c, 5, 43, 0
7, 17520, Note_on_c, 5, 48, 62
7, 17541, Note_off_c, 5, 48, 0
7, 17544, Note_on_c, 5, 50, 62
7, 17565, Note_off_c, 5, 50, 0
7, 17568, Note_on_c, 5, 52, 62
7, 17589, Note_off_c, 5, 52, 0
7, 17592, Note_on_c, 5, 50, 62
7, 17613, Note_off_c, 5, 50, 0
7, 17616, Note_on_c, 5, 52, 62
7, 17637, Note_off_c, 5, 52, 0
7, 17640, Note_on_c, 5, 48, 62
7, 17661, Note_off_c, 5, 48, 0
7, 17664, Note_on_c, 5, 53, 62
7, 17706, Note_off_c, 5, 53, 0
7, 18096, Note_on_c, 5, 45, 127
7, 18138, Note_off_c, 5, 45, 0
7, 18144, Note_on_c, 5, 52, 127
7, 18186, Note_off_c, 5, 52, 0
7, 18192, Note_on_c, 5, 57, 127
7, 18234, Note_off_c, 5, 57, 0
7, 18240, Note_on_c, 5, 47, 127
7, 18282, Note_off_c, 5, 47, 0
7, 18288, Note_on_c, 5, 50, 127
7, 18330, Note_off_c, 5, 50, 0
7, 18336, Note_on_c, 5, 56, 127
7, 18378, Note_off_c, 5, 56, 0
7, 18384, Note_on_c, 5, 45, 127
7, 18426, Note_off_c, 5, 45, 0
7, 18432, Note_on_c, 5, 50, 127
7, 18474, Note_off_c, 5, 50, 0
7, 18480, Note_on_c, 5, 57, 127
7, 18522, Note_off_c, 5, 57, 0
7, 18528, Note_on_c, 5, 44, 127
7, 18570, Note_off_c, 5, 44, 0
7, 18576, Note_on_c, 5, 50, 127
7, 18618, Note_off_c, 5, 50, 0
7, 18624, Note_on_c, 5, 59, 127
7, 18666, Note_off_c, 5, 59, 0
7, 18672, Note_on_c, 5, 56, 127
7, 18714, Note_off_c, 5, 56, 0
7, 18720, Note_on_c, 5, 52, 127
7, 18762, Note_off_c, 5, 52, 0
7, 18768, Note_on_c, 5, 40, 127
7, 18810, Note_off_c, 5, 40, 0
7, 18816, Note_on_c, 5, 45, 127
7, 18858, Note_off_c, 5, 45, 0
7, 18864, Note_on_c, 5, 52, 127
7, 18906, Note_off_c, 5, 52, 0
7, 18912, Note_on_c, 5, 57, 127
7, 18954, Note_off_c, 5, 57, 0
7, 18960, Note_on_c, 5, 43, 127
7, 19002, Note_off_c, 5, 43, 0
7, 19008, Note_on_c, 5, 52, 127
7, 19050, Note_off_c, 5, 52, 0
7, 19056, Note_on_c, 5, 57, 127
7, 19098, Note_off_c, 5, 57, 0
7, 19104, Note_on_c, 5, 41, 127
7, 19146, Note_off_c, 5, 41, 0
7, 19152, Note_on_c, 5, 53, 127
7, 19194, Note_off_c, 5, 53, 0
7, 19200, Note_on_c, 5, 48, 127
7, 19242, Note_off_c, 5, 48, 0
7, 19248, Note_on_c, 5, 50, 127
7, 19290, Note_off_c, 5, 50, 0
7, 19296, Note_on_c, 5, 53, 127
7, 19338, Note_off_c, 5, 53, 0
7, 19344, Note_on_c, 5, 47, 127
7, 19386, Note_off_c, 5, 47, 0
7, 19392, Note_on_c, 5, 40, 127
7, 19434, Note_off_c, 5, 40, 0
7, 19440, Note_on_c, 5, 44, 127
7, 19482, Note_off_c, 5, 44, 0
7, 19488, Note_on_c, 5, 47, 127
7, 19530, Note_off_c, 5, 47, 0
7, 19536, Note_on_c, 5, 52, 127
7, 19578, Note_off_c, 5, 52, 0
7, 19584, Note_on_c, 5, 56, 127
7, 19626, Note_off_c, 5, 56, 0
7, 19632, Note_on_c, 5, 52, 127
7, 19674, Note_off_c, 5, 52, 0
7, 19680, Note_on_c, 5, 57, 127
7, 19701, Note_off_c, 5, 57, 0
7, 19704, Note_on_c, 5, 56, 127
7, 19725, Note_off_c, 5, 56, 0
7, 19728, Note_on_c, 5, 57, 127
7, 19749, Note_off_c, 5, 57, 0
7, 19752, Note_on_c, 5, 52, 127
7, 19773, Note_off_c, 5, 52, 0
7, 19776, Note_on_c, 5, 53, 127
7, 19845, Note_off_c, 5, 53, 0
7, 19848, Note_on_c, 5, 50, 127
7, 19869, Note_off_c, 5, 50, 0
7, 19872, Note_on_c, 5, 52, 127
7, 19914, Note_off_c, 5, 52, 0
7, 19920, Note_on_c, 5, 40, 127
7, 19962, Note_off_c, 5, 40, 0
7, 19968, Note_on_c, 5, 45, 62
7, 19989, Note_off_c, 5, 45, 0
7, 19992, Note_on_c, 5, 47, 62
7, 20013, Note_off_c, 5, 47, 0
7, 20016, Note_on_c, 5, 48, 62
7, 20037, Note_off_c, 5, 48, 0
7, 20040, Note_on_c, 5, 47, 62
7, 20061, Note_off_c, 5, 47, 0
7, 20064, Note_on_c, 5, 48, 62
7, 20085, Note_off_c, 5, 48, 0
7, 20088, Note_on_c, 5, 45, 62
7, 20109, Note_off_c, 5, 45, 0
7, 20112, Note_on_c, 5, 50, 62
7, 20133, Note_off_c, 5, 50, 0
7, 20136, Note_on_c, 5, 52, 62
7, 20157, Note_off_c, 5, 52, 0
7, 20160, Note_on_c, 5, 53, 62
7, 20181, Note_off_c, 5, 53, 0
7, 20184, Note_on_c, 5, 52, 62
7, 20205, Note_off_c, 5, 52, 0
7, 20208, Note_on_c, 5, 53, 62
7, 20229, Note_off_c, 5, 53, 0
7, 20232, Note_on_c, 5, 50, 62
7, 20253, Note_off_c, 5, 50, 0
7, 20256, Note_on_c, 5, 43, 62
7, 20277, Note_off_c, 5, 43, 0
7, 20280, Note_on_c, 5, 45, 62
7, 20301, Note_off_c, 5, 45, 0
7, 20304, Note_on_c, 5, 46, 62
7, 20325, Note_off_c, 5, 46, 0
7, 20328, Note_on_c, 5, 45, 62
7, 20349, Note_off_c, 5, 45, 0
7, 20352, Note_on_c, 5, 46, 62
7, 20373, Note_off_c, 5, 46, 0
7, 20376, Note_on_c, 5, 43, 62
7, 20397, Note_off_c, 5, 43, 0
7, 20400, Note_on_c, 5, 48, 62
7, 20421, Note_off_c, 5, 48, 0
7, 20424, Note_on_c, 5, 50, 62
7, 20445, Note_off_c, 5, 50, 0
7, 20448, Note_on_c, 5, 52, 62
7, 20469, Note_off_c, 5, 52, 0
7, 20472, Note_on_c, 5, 50, 62
7, 20493, Note_off_c, 5, 50, 0
7, 20496, Note_on_c, 5, 52, 62
7, 20517, Note_off_c, 5, 52, 0
7, 20520, Note_on_c, 5, 48, 62
7, 20541, Note_off_c, 5, 48, 0
7, 20544, Note_on_c, 5, 41, 62
7, 20565, Note_off_c, 5, 41, 0
7, 20568, Note_on_c, 5, 43, 62
7, 20589, Note_off_c, 5, 43, 0
7, 20592, Note_on_c, 5, 45, 62
7, 20613, Note_off_c, 5, 45, 0
7, 20616, Note_on_c, 5, 43, 62
7, 20637, Note_off_c, 5, 43, 0
7, 20640, Note_on_c, 5, 41, 62
7, 20661, Note_off_c, 5, 41, 0
7, 20664, Note_on_c, 5, 39, 62
7, 20685, Note_off_c, 5, 39, 0
7, 20688, Note_on_c, 5, 38, 62
7, 20709, Note_off_c, 5, 38, 0
7, 20712, Note_on_c, 5, 39, 62
7, 20733, Note_off_c, 5, 39, 0
7, 20736, Note_on_c, 5, 41, 62
7, 20757, Note_off_c, 5, 41, 0
7, 20760, Note_on_c, 5, 39, 62
7, 20781, Note_off_c, 5, 39, 0
7, 20784, Note_on_c, 5, 41, 62
7, 20805, Note_off_c, 5, 41, 0
7, 20808, Note_on_c, 5, 38, 62
7, 20829, Note_off_c, 5, 38, 0
7, 20832, Note_on_c, 5, 43, 62
7, 20853, Note_off_c, 5, 43, 0
7, 20856, Note_on_c, 5, 45, 62
7, 20877, Note_off_c, 5, 45, 0
7, 20880, Note_on_c, 5, 46, 62
7, 20901, Note_off_c, 5, 46, 0
7, 20904, Note_on_c, 5, 45, 62
7, 20925, Note_off_c, 5, 45, 0
7, 20928, Note_on_c, 5, 46, 62
7, 20949, Note_off_c, 5, 46, 0
7, 20952, Note_on_c, 5, 43, 62
7, 20973, Note_off_c, 5, 43, 0
7, 20976, Note_on_c, 5, 48, 62
7, 20997, Note_off_c, 5, 48, 0
7, 21000, Note_on_c, 5, 50, 62
7, 21021, Note_off_c, 5, 50, 0
7, 21024, Note_on_c, 5, 51, 62
7, 21045, Note_off_c, 5, 51, 0
7, 21048, Note_on_c, 5, 50, 62
7, 21069, Note_off_c, 5, 50, 0
7, 21072, Note_on_c, 5, 51, 62
7, 21093, Note_off_c, 5, 51, 0
7, 21096, Note_on_c, 5, 48, 62
7, 21117, Note_off_c, 5, 48, 0
7, 21120, Note_on_c, 5, 53, 62
7, 21141, Note_off_c, 5, 53, 0
7, 21144, Note_on_c, 5, 55, 62
7, 21165, Note_off_c, 5, 55, 0
7, 21168, Note_on_c, 5, 57, 62
7, 21189, Note_off_c, 5, 57, 0
7, 21192, Note_on_c, 5, 55, 62
7, 21213, Note_off_c, 5, 55, 0
7, 21216, Note_on_c, 5, 57, 62
7, 21237, Note_off_c, 5, 57, 0
7, 21240, Note_on_c, 5, 53, 62
7, 21261, Note_off_c, 5, 53, 0
7, 21264, Note_on_c, 5, 58, 62
7, 21285, Note_off_c, 5, 58, 0
7, 21288, Note_on_c, 5, 60, 62
7, 21309, Note_off_c, 5, 60, 0
7, 21312, Note_on_c, 5, 62, 62
7, 21333, Note_off_c, 5, 62, 0
7, 21336, Note_on_c, 5, 60, 62
7, 21357, Note_off_c, 5, 60, 0
7, 21360, Note_on_c, 5, 62, 62
7, 21381, Note_off_c, 5, 62, 0
7, 21384, Note_on_c, 5, 58, 62
7, 21405, Note_off_c, 5, 58, 0
7, 21408, Note_on_c, 5, 60, 62
7, 21450, Note_off_c, 5, 60, 0
7, 22848, Note_on_c, 5, 43, 49
7, 22869, Note_off_c, 5, 43, 0
7, 22872, Note_on_c, 5, 45, 49
7, 22893, Note_off_c, 5, 45, 0
7, 22896, Note_on_c, 5, 46, 49
7, 22917, Note_off_c, 5, 46, 0
7, 22920, Note_on_c, 5, 45, 49
7, 22941, Note_off_c, 5, 45, 0
7, 22944, Note_on_c, 5, 46, 49
7, 22965, Note_off_c, 5, 46, 0
7, 22968, Note_on_c, 5, 43, 49
7, 22989, Note_off_c, 5, 43, 0
7, 22992, Note_on_c, 5, 48, 49
7, 23013, Note_off_c, 5, 48, 0
7, 23016, Note_on_c, 5, 50, 49
7, 23037, Note_off_c, 5, 50, 0
7, 23040, Note_on_c, 5, 51, 49
7, 23061, Note_off_c, 5, 51, 0
7, 23064, Note_on_c, 5, 50, 49
7, 23085, Note_off_c, 5, 50, 0
7, 23088, Note_on_c, 5, 51, 49
7, 23109, Note_off_c, 5, 51, 0
7, 23112, Note_on_c, 5, 48, 49
7, 23133, Note_off_c, 5, 48, 0
7, 23136, Note_on_c, 5, 53, 49
7, 23157, Note_off_c, 5, 53, 0
7, 23160, Note_on_c, 5, 55, 49
7, 23181, Note_off_c, 5, 55, 0
7, 23184, Note_on_c, 5, 57, 49
7, 23205, Note_off_c, 5, 57, 0
7, 23208, Note_on_c, 5, 55, 49
7, 23229, Note_off_c, 5, 55, 0
7, 23232, Note_on_c, 5, 57, 49
7, 23253, Note_off_c, 5, 57, 0
7, 23256, Note_on_c, 5, 53, 49
7, 23277, Note_off_c, 5, 53, 0
7, 23280, Note_on_c, 5, 58, 49
7, 23322, Note_off_c, 5, 58, 0
7, 23424, Tempo, 1500000
7, 23616, Time_signature, 2, 2, 96, 8
7, 23808, Time_signature, 6, 2, 96, 8
7, 23904, Tempo, 600000
7, 23904, Note_on_c, 5, 45, 96
7, 23946, Note_off_c, 5, 45, 0
7, 23952, Note_on_c, 5, 43, 96
7, 23994, Note_off_c, 5, 43, 0
7, 24000, Note_on_c, 5, 41, 62
7, 24084, Note_off_c, 5, 41, 0
7, 25152, Note_on_c, 5, 53, 62
7, 25194, Note_off_c, 5, 53, 0
7, 25200, Note_on_c, 5, 57, 62
7, 25242, Note_off_c, 5, 57, 0
7, 25248, Note_on_c, 5, 60, 62
7, 25290, Note_off_c, 5, 60, 0
7, 25296, Note_on_c, 5, 57, 62
7, 25338, Note_off_c, 5, 57, 0
7, 25344, Note_on_c, 5, 53, 62
7, 25386, Note_off_c, 5, 53, 0
7, 25440, Note_on_c, 5, 52, 62
7, 25482, Note_off_c, 5, 52, 0
7, 25488, Note_on_c, 5, 55, 62
7, 25530, Note_off_c, 5, 55, 0
7, 25536, Note_on_c, 5, 60, 62
7, 25578, Note_off_c, 5, 60, 0
7, 25584, Note_on_c, 5, 52, 62
7, 25626, Note_off_c, 5, 52, 0
7, 25632, Note_on_c, 5, 48, 62
7, 25674, Note_off_c, 5, 48, 0
7, 25728, Note_on_c, 5, 50, 62
7, 25770, Note_off_c, 5, 50, 0
7, 25776, Note_on_c, 5, 53, 62
7, 25818, Note_off_c, 5, 53, 0
7, 25824, Note_on_c, 5, 50, 62
7, 25866, Note_off_c, 5, 50, 0
7, 25872, Note_on_c, 5, 45, 62
7, 25914, Note_off_c, 5, 45, 0
7, 25920, Note_on_c, 5, 41, 62
7, 25962, Note_off_c, 5, 41, 0
7, 26016, Note_on_c, 5, 48, 62
7, 26058, Note_off_c, 5, 48, 0
7, 26064, Note_on_c, 5, 48, 62
7, 26106, Note_off_c, 5, 48, 0
7, 26112, Note_on_c, 5, 48, 62
7, 26154, Note_off_c, 5, 48, 0
7, 26160, Note_on_c, 5, 48, 62
7, 26181, Note_off_c, 5, 48, 0
7, 26184, Note_on_c, 5, 50, 62
7, 26205, Note_off_c, 5, 50, 0
7, 26208, Note_on_c, 5, 52, 62
7, 26229, Note_off_c, 5, 52, 0
7, 26232, Note_on_c, 5, 50, 62
7, 26253, Note_off_c, 5, 50, 0
7, 26256, Note_on_c, 5, 52, 62
7, 26277, Note_off_c, 5, 52, 0
7, 26280, Note_on_c, 5, 48, 62
7, 26301, Note_off_c, 5, 48, 0
7, 26304, Note_on_c, 5, 53, 62
7, 26325, Note_off_c, 5, 53, 0
7, 26328, Note_on_c, 5, 55, 62
7, 26349, Note_off_c, 5, 55, 0
7, 26352, Note_on_c, 5, 57, 62
7, 26373, Note_off_c, 5, 57, 0
7, 26376, Note_on_c, 5, 55, 62
7, 26397, Note_off_c, 5, 55, 0
7, 26400, Note_on_c, 5, 57, 62
7, 26421, Note_off_c, 5, 57, 0
7, 26424, Note_on_c, 5, 53, 62
7, 26445, Note_off_c, 5, 53, 0
7, 26448, Note_on_c, 5, 46, 62
7, 26469, Note_off_c, 5, 46, 0
7, 26472, Note_on_c, 5, 48, 62
7, 26493, Note_off_c, 5, 48, 0
7, 26496, Note_on_c, 5, 50, 62
7, 26517, Note_off_c, 5, 50, 0
7, 26520, Note_on_c, 5, 48, 62
7, 26541, Note_off_c, 5, 48, 0
7, 26544, Note_on_c, 5, 50, 62
7, 26565, Note_off_c, 5, 50, 0
7, 26568, Note_on_c, 5, 46, 62
7, 26589, Note_off_c, 5, 46, 0
7, 26592, Note_on_c, 5, 52, 62
7, 26613, Note_off_c, 5, 52, 0
7, 26616, Note_on_c, 5, 53, 62
7, 26637, Note_off_c, 5, 53, 0
7, 26640, Note_on_c, 5, 55, 62
7, 26661, Note_off_c, 5, 55, 0
7, 26664, Note_on_c, 5, 53, 62
7, 26685, Note_off_c, 5, 53, 0
7, 26688, Note_on_c, 5, 55, 62
7, 26709, Note_off_c, 5, 55, 0
7, 26712, Note_on_c, 5, 52, 62
7, 26733, Note_off_c, 5, 52, 0
7, 26736, Note_on_c, 5, 45, 62
7, 26757, Note_off_c, 5, 45, 0
7, 26760, Note_on_c, 5, 46, 62
7, 26781, Note_off_c, 5, 46, 0
7, 26784, Note_on_c, 5, 48, 62
7, 26805, Note_off_c, 5, 48, 0
7, 26808, Note_on_c, 5, 46, 62
7, 26829, Note_off_c, 5, 46, 0
7, 26832, Note_on_c, 5, 48, 62
7, 26853, Note_off_c, 5, 48, 0
7, 26856, Note_on_c, 5, 45, 62
7, 26877, Note_off_c, 5, 45, 0
7, 26880, Note_on_c, 5, 50, 62
7, 26901, Note_off_c, 5, 50, 0
7, 26904, Note_on_c, 5, 52, 62
7, 26925, Note_off_c, 5, 52, 0
7, 26928, Note_on_c, 5, 53, 62
7, 26949, Note_off_c, 5, 53, 0
7, 26952, Note_on_c, 5, 52, 62
7, 26973, Note_off_c, 5, 52, 0
7, 26976, Note_on_c, 5, 53, 62
7, 26997, Note_off_c, 5, 53, 0
7, 27000, Note_on_c, 5, 50, 62
7, 27021, Note_off_c, 5, 50, 0
7, 27024, Note_on_c, 5, 43, 62
7, 27045, Note_off_c, 5, 43, 0
7, 27048, Note_on_c, 5, 45, 62
7, 27069, Note_off_c, 5, 45, 0
7, 27072, Note_on_c, 5, 46, 62
7, 27093, Note_off_c, 5, 46, 0
7, 27096, Note_on_c, 5, 45, 62
7, 27117, Note_off_c, 5, 45, 0
7, 27120, Note_on_c, 5, 46, 62
7, 27141, Note_off_c, 5, 46, 0
7, 27144, Note_on_c, 5, 43, 62
7, 27165, Note_off_c, 5, 43, 0
7, 27168, Note_on_c, 5, 48, 62
7, 27210, Note_off_c, 5, 48, 0
7, 27216, Note_on_c, 5, 48, 62
7, 27258, Note_off_c, 5, 48, 0
7, 27264, Note_on_c, 5, 48, 62
7, 27306, Note_off_c, 5, 48, 0
7, 27312, Note_on_c, 5, 48, 62
7, 27354, Note_off_c, 5, 48, 0
7, 27360, Note_on_c, 5, 48, 62
7, 27402, Note_off_c, 5, 48, 0
7, 27408, Note_on_c, 5, 48, 62
7, 27450, Note_off_c, 5, 48, 0
7, 27456, Note_on_c, 5, 48, 62
7, 27498, Note_off_c, 5, 48, 0
7, 27504, Note_on_c, 5, 48, 62
7, 27546, Note_off_c, 5, 48, 0
7, 27552, Note_on_c, 5, 48, 62
7, 27594, Note_off_c, 5, 48, 0
7, 27600, Note_on_c, 5, 48, 62
7, 27642, Note_off_c, 5, 48, 0
7, 27648, Note_on_c, 5, 48, 62
7, 27690, Note_off_c, 5, 48, 0
7, 27696, Note_on_c, 5, 48, 62
7, 27738, Note_off_c, 5, 48, 0
7, 27744, Note_on_c, 5, 48, 62
7, 27786, Note_off_c, 5, 48, 0
7, 27792, Note_on_c, 5, 48, 62
7, 27834, Note_off_c, 5, 48, 0
7, 27840, Note_on_c, 5, 48, 62
7, 27882, Note_off_c, 5, 48, 0
7, 27888, Note_on_c, 5, 48, 62
7, 27972, Note_off_c, 5, 48, 0
7, 29328, Note_on_c, 5, 53, 62
7, 29370, Note_off_c, 5, 53, 0
7, 29376, Note_on_c, 5, 57, 62
7, 29418, Note_off_c, 5, 57, 0
7, 29424, Note_on_c, 5, 60, 62
7, 29466, Note_off_c, 5, 60, 0
7, 29472, Note_on_c, 5, 57, 62
7, 29514, Note_off_c, 5, 57, 0
7, 29520, Note_on_c, 5, 53, 62
7, 29562, Note_off_c, 5, 53, 0
7, 29616, Note_on_c, 5, 52, 62
7, 29658, Note_off_c, 5, 52, 0
7, 29664, Note_on_c, 5, 55, 62
7, 29706, Note_off_c, 5, 55, 0
7, 29712, Note_on_c, 5, 60, 62
7, 29754, Note_off_c, 5, 60, 0
7, 29760, Note_on_c, 5, 52, 62
7, 29802, Note_off_c, 5, 52, 0
7, 29808, Note_on_c, 5, 48, 62
7, 29850, Note_off_c, 5, 48, 0
7, 29904, Note_on_c, 5, 50, 62
7, 29946, Note_off_c, 5, 50, 0
7, 29952, Note_on_c, 5, 53, 62
7, 29994, Note_off_c, 5, 53, 0
7, 30000, Note_on_c, 5, 50, 62
7, 30042, Note_off_c, 5, 50, 0
7, 30048, Note_on_c, 5, 45, 62
7, 30090, Note_off_c, 5, 45, 0
7, 30096, Note_on_c, 5, 41, 62
7, 30138, Note_off_c, 5, 41, 0
7, 30192, Note_on_c, 5, 48, 62
7, 30234, Note_off_c, 5, 48, 0
7, 30240, Note_on_c, 5, 48, 62
7, 30282, Note_off_c, 5, 48, 0
7, 30288, Note_on_c, 5, 48, 62
7, 30330, Note_off_c, 5, 48, 0
7, 30336, Note_on_c, 5, 48, 62
7, 30420, Note_off_c, 5, 48, 0
7, 30912, Note_on_c, 5, 53, 62
7, 30954, Note_off_c, 5, 53, 0
7, 30960, Note_on_c, 5, 57, 62
7, 31002, Note_off_c, 5, 57, 0
7, 31008, Note_on_c, 5, 60, 62
7, 31050, Note_off_c, 5, 60, 0
7, 31056, Note_on_c, 5, 57, 62
7, 31098, Note_off_c, 5, 57, 0
7, 31104, Note_on_c, 5, 53, 62
7, 31146, Note_off_c, 5, 53, 0
7, 31200, Note_on_c, 5, 52, 62
7, 31242, Note_off_c, 5, 52, 0
7, 31248, Note_on_c, 5, 55, 62
7, 31290, Note_off_c, 5, 55, 0
7, 31296, Note_on_c, 5, 60, 62
7, 31338, Note_off_c, 5, 60, 0
7, 31344, Note_on_c, 5, 52, 62
7, 31386, Note_off_c, 5, 52, 0
7, 31392, Note_on_c, 5, 48, 62
7, 31434, Note_off_c, 5, 48, 0
7, 31488, Note_on_c, 5, 50, 62
7, 31530, Note_off_c, 5, 50, 0
7, 31536, Note_on_c, 5, 53, 62
7, 31578, Note_off_c, 5, 53, 0
7, 31584, Note_on_c, 5, 50, 62
7, 31626, Note_off_c, 5, 50, 0
7, 31632, Note_on_c, 5, 45, 62
7, 31674, Note_off_c, 5, 45, 0
7, 31680, Note_on_c, 5, 41, 62
7, 31722, Note_off_c, 5, 41, 0
7, 31776, Note_on_c, 5, 48, 62
7, 31818, Note_off_c, 5, 48, 0
7, 31824, Note_on_c, 5, 48, 62
7, 31866, Note_off_c, 5, 48, 0
7, 31872, Note_on_c, 5, 48, 62
7, 31914, Note_off_c, 5, 48, 0
7, 31920, Note_on_c, 5, 48, 62
7, 31962, Note_off_c, 5, 48, 0
7, 31968, Note_on_c, 5, 52, 62
7, 31989, Note_off_c, 5, 52, 0
7, 31992, Note_on_c, 5, 50, 62
7, 32013, Note_off_c, 5, 50, 0
7, 32016, Note_on_c, 5, 52, 62
7, 32037, Note_off_c, 5, 52, 0
7, 32040, Note_on_c, 5, 48, 62
7, 32061, Note_off_c, 5, 48, 0
7, 32064, Note_on_c, 5, 53, 62
7, 32106, Note_off_c, 5, 53, 0
7, 32112, Note_on_c, 5, 57, 62
7, 32154, Note_off_c, 5, 57, 0
7, 32160, Note_on_c, 5, 62, 62
7, 32202, Note_off_c, 5, 62, 0
7, 32208, Note_on_c, 5, 52, 62
7, 32250, Note_off_c, 5, 52, 0
7, 32256, Note_on_c, 5, 55, 62
7, 32298, Note_off_c, 5, 55, 0
7, 32304, Note_on_c, 5, 60, 62
7, 32346, Note_off_c, 5, 60, 0
7, 32352, Note_on_c, 5, 50, 62
7, 32394, Note_off_c, 5, 50, 0
7, 32400, Note_on_c, 5, 53, 62
7, 32442, Note_off_c, 5, 53, 0
7, 32448, Note_on_c, 5, 58, 62
7, 32490, Note_off_c, 5, 58, 0
7, 32496, Note_on_c, 5, 48, 62
7, 32538, Note_off_c, 5, 48, 0
7, 32544, Note_on_c, 5, 52, 62
7, 32586, Note_off_c, 5, 52, 0
7, 32592, Note_on_c, 5, 57, 62
7, 32634, Note_off_c, 5, 57, 0
7, 32640, Note_on_c, 5, 46, 62
7, 32682, Note_off_c, 5, 46, 0
7, 32688, Note_on_c, 5, 50, 62
7, 32730, Note_off_c, 5, 50, 0
7, 32736, Note_on_c, 5, 55, 62
7, 32778, Note_off_c, 5, 55, 0
7, 32784, Note_on_c, 5, 45, 62
7, 32826, Note_off_c, 5, 45, 0
7, 32832, Note_on_c, 5, 48, 62
7, 32874, Note_off_c, 5, 48, 0
7, 32880, Note_on_c, 5, 53, 62
7, 32922, Note_off_c, 5, 53, 0
7, 32928, Note_on_c, 5, 43, 62
7, 32970, Note_off_c, 5, 43, 0
7, 32976, Note_on_c, 5, 50, 62
7, 33018, Note_off_c, 5, 50, 0
7, 33024, Note_on_c, 5, 55, 62
7, 33066, Note_off_c, 5, 55, 0
7, 33072, Note_on_c, 5, 41, 62
7, 33114, Note_off_c, 5, 41, 0
7, 33120, Note_on_c, 5, 50, 62
7, 33162, Note_off_c, 5, 50, 0
7, 33168, Note_on_c, 5, 55, 62
7, 33210, Note_off_c, 5, 55, 0
7, 33216, Note_on_c, 5, 40, 62
7, 33258, Note_off_c, 5, 40, 0
7, 33264, Note_on_c, 5, 48, 62
7, 33306, Note_off_c, 5, 48, 0
7, 33312, Note_on_c, 5, 55, 62
7, 33354, Note_off_c, 5, 55, 0
7, 33360, Note_on_c, 5, 52, 62
7, 33402, Note_off_c, 5, 52, 0
7, 33408, Note_on_c, 5, 48, 62
7, 33450, Note_off_c, 5, 48, 0
7, 33456, Note_on_c, 5, 60, 62
7, 33498, Note_off_c, 5, 60, 0
7, 33504, Note_on_c, 5, 41, 62
7, 33546, Note_off_c, 5, 41, 0
7, 33552, Note_on_c, 5, 48, 62
7, 33594, Note_off_c, 5, 48, 0
7, 33600, Note_on_c, 5, 53, 62
7, 33642, Note_off_c, 5, 53, 0
7, 33648, Note_on_c, 5, 40, 62
7, 33690, Note_off_c, 5, 40, 0
7, 33696, Note_on_c, 5, 48, 62
7, 33738, Note_off_c, 5, 48, 0
7, 33744, Note_on_c, 5, 53, 62
7, 33786, Note_off_c, 5, 53, 0
7, 33792, Note_on_c, 5, 38, 62
7, 33834, Note_off_c, 5, 38, 0
7, 33840, Note_on_c, 5, 50, 62
7, 33882, Note_off_c, 5, 50, 0
7, 33888, Note_on_c, 5, 45, 62
7, 33930, Note_off_c, 5, 45, 0
7, 33936, Note_on_c, 5, 46, 62
7, 33978, Note_off_c, 5, 46, 0
7, 33984, Note_on_c, 5, 50, 62
7, 34026, Note_off_c, 5, 50, 0
7, 34032, Note_on_c, 5, 43, 62
7, 34074, Note_off_c, 5, 43, 0
7, 34080, Note_on_c, 5, 48, 62
7, 34122, Note_off_c, 5, 48, 0
7, 34128, Note_on_c, 5, 52, 62
7, 34170, Note_off_c, 5, 52, 0
7, 34176, Note_on_c, 5, 55, 62
7, 34218, Note_off_c, 5, 55, 0
7, 34224, Note_on_c, 5, 48, 62
7, 34266, Note_off_c, 5, 48, 0
7, 34272, Note_on_c, 5, 52, 62
7, 34314, Note_off_c, 5, 52, 0
7, 34320, Note_on_c, 5, 55, 62
7, 34362, Note_off_c, 5, 55, 0
7, 34368, Note_on_c, 5, 48, 62
7, 34410, Note_off_c, 5, 48, 0
7, 34416, Note_on_c, 5, 52, 62
7, 34458, Note_off_c, 5, 52, 0
7, 34464, Note_on_c, 5, 55, 62
7, 34506, Note_off_c, 5, 55, 0
7, 34512, Note_on_c, 5, 48, 62
7, 34554, Note_off_c, 5, 48, 0
7, 34560, Note_on_c, 5, 52, 62
7, 34602, Note_off_c, 5, 52, 0
7, 34608, Note_on_c, 5, 48, 62
7, 34650, Note_off_c, 5, 48, 0
7, 34656, Note_on_c, 5, 53, 62
7, 34677, Note_off_c, 5, 53, 0
7, 34680, Note_on_c, 5, 52, 62
7, 34701, Note_off_c, 5, 52, 0
7, 34704, Note_on_c, 5, 53, 62
7, 34725, Note_off_c, 5, 53, 0
7, 34728, Note_on_c, 5, 52, 62
7, 34749, Note_off_c, 5, 52, 0
7, 34752, Note_on_c, 5, 50, 62
7, 34821, Note_off_c, 5, 50, 0
7, 34824, Note_on_c, 5, 46, 62
7, 34845, Note_off_c, 5, 46, 0
7, 34848, Note_on_c, 5, 48, 62
7, 34890, Note_off_c, 5, 48, 0
7, 34896, Note_on_c, 5, 36, 62
7, 34938, Note_off_c, 5, 36, 0
7, 34944, Note_on_c, 5, 41, 62
7, 34986, Note_off_c, 5, 41, 0
7, 34992, Note_on_c, 5, 45, 62
7, 35034, Note_off_c, 5, 45, 0
7, 35040, Note_on_c, 5, 41, 62
7, 35082, Note_off_c, 5, 41, 0
7, 35088, Note_on_c, 5, 38, 62
7, 35130, Note_off_c, 5, 38, 0
7, 35136, Note_on_c, 5, 43, 62
7, 35178, Note_off_c, 5, 43, 0
7, 35184, Note_on_c, 5, 36, 62
7, 35226, Note_off_c, 5, 36, 0
7, 35232, Note_on_c, 5, 41, 62
7, 35274, Note_off_c, 5, 41, 0
7, 35280, Note_on_c, 5, 45, 62
7, 35322, Note_off_c, 5, 45, 0
7, 35328, Note_on_c, 5, 50, 62
7, 35376, Tempo, 750000
7, 35397, Note_off_c, 5, 50, 0
7, 35400, Note_on_c, 5, 46, 62
7, 35421, Note_off_c, 5, 46, 0
7, 35424, Note_on_c, 5, 48, 62
7, 35466, Note_off_c, 5, 48, 0
7, 35472, Note_on_c, 5, 36, 62
7, 35514, Note_off_c, 5, 36, 0
7, 35520, Note_on_c, 5, 41, 62
7, 35796, Note_off_c, 5, 41, 0
7, 35796, End_track
8, 0, Start_track
8, 0, Title_t, "Violino Piccolo"
8, 0, Control_c, 6, 0, 0
8, 0, Program_c, 6, 40
8, 0, Time_signature, 6, 2, 96, 8
8, 0, Tempo, 600000
8, 96, Tempo, 600000
8, 144, Note_on_c, 6, 65, 75
8, 186, Note_off_c, 6, 65, 0
8, 192, Note_on_c, 6, 65, 75
8, 234, Note_off_c, 6, 65, 0
8, 240, Note_on_c, 6, 65, 75
8, 282, Note_off_c, 6, 65, 0
8, 288, Note_on_c, 6, 69, 75
8, 309, Note_off_c, 6, 69, 0
8, 312, Note_on_c, 6, 67, 75
8, 333, Note_off_c, 6, 67, 0
8, 336, Note_on_c, 6, 69, 75
8, 357, Note_off_c, 6, 69, 0
8, 360, Note_on_c, 6, 65, 75
8, 381, Note_off_c, 6, 65, 0
8, 384, Note_on_c, 6, 72, 75
8, 426, Note_off_c, 6, 72, 0
8, 432, Note_on_c, 6, 72, 75
8, 474, Note_off_c, 6, 72, 0
8, 480, Note_on_c, 6, 72, 75
8, 522, Note_off_c, 6, 72, 0
8, 528, Note_on_c, 6, 72, 75
8, 570, Note_off_c, 6, 72, 0
8, 576, Note_on_c, 6, 76, 75
8, 597, Note_off_c, 6, 76, 0
8, 600, Note_on_c, 6, 74, 75
8, 621, Note_off_c, 6, 74, 0
8, 624, Note_on_c, 6, 76, 75
8, 645, Note_off_c, 6, 76, 0
8, 648, Note_on_c, 6, 72, 75
8, 669, Note_off_c, 6, 72, 0
8, 672, Note_on_c, 6, 77, 75
8, 714, Note_off_c, 6, 77, 0
8, 720, Note_on_c, 6, 77, 75
8, 762, Note_off_c, 6, 77, 0
8, 768, Note_on_c, 6, 77, 75
8, 810, Note_off_c, 6, 77, 0
8, 816, Note_on_c, 6, 77, 75
8, 858, Note_off_c, 6, 77, 0
8, 864, Note_on_c, 6, 79, 75
8, 885, Note_off_c, 6, 79, 0
8, 888, Note_on_c, 6, 77, 75
8, 909, Note_off_c, 6, 77, 0
8, 912, Note_on_c, 6, 76, 75
8, 933, Note_off_c, 6, 76, 0
8, 936, Note_on_c, 6, 74, 75
8, 957, Note_off_c, 6, 74, 0
8, 960, Note_on_c, 6, 76, 75
8, 981, Note_off_c, 6, 76, 0
8, 984, Note_on_c, 6, 77, 75
8, 1005, Note_off_c, 6, 77, 0
8, 1008, Note_on_c, 6, 79, 75
8, 1018, Note_off_c, 6, 79, 0
8, 1020, Note_on_c, 6, 77, 75
8, 1030, Note_off_c, 6, 77, 0
8, 1032, Note_on_c, 6, 79, 75
8, 1042, Note_off_c, 6, 79, 0
8, 1044, Note_on_c, 6, 77, 75
8, 1054, Note_off_c, 6, 77, 0
8, 1056, Note_on_c, 6, 79, 75
8, 1066, Note_off_c, 6, 79, 0
8, 1068, Note_on_c, 6, 77, 75
8, 1078, Note_off_c, 6, 77, 0
8, 1080, Note_on_c, 6, 76, 75
8, 1090, Note_off_c, 6, 76, 0
8, 1092, Note_on_c, 6, 77, 75
8, 1102, Note_off_c, 6, 77, 0
8, 1104, Note_on_c, 6, 79, 75
8, 1146, Note_off_c, 6, 79, 0
8, 1152, Note_on_c, 6, 72, 75
8, 1194, Note_off_c, 6, 72, 0
8, 1200, Note_on_c, 6, 79, 75
8, 1242, Note_off_c, 6, 79, 0
8, 1248, Note_on_c, 6, 81, 75
8, 1269, Note_off_c, 6, 81, 0
8, 1272, Note_on_c, 6, 79, 75
8, 1293, Note_off_c, 6, 79, 0
8, 1296, Note_on_c, 6, 77, 75
8, 1317, Note_off_c, 6, 77, 0
8, 1320, Note_on_c, 6, 76, 75
8, 1341, Note_off_c, 6, 76, 0
8, 1344, Note_on_c, 6, 77, 75
8, 1365, Note_off_c, 6, 77, 0
8, 1368, Note_on_c, 6, 74, 75
8, 1389, Note_off_c, 6, 74, 0
8, 1392, Note_on_c, 6, 79, 75
8, 1413, Note_off_c, 6, 79, 0
8, 1416, Note_on_c, 6, 67, 75
8, 1437, Note_off_c, 6, 67, 0
8, 1440, Note_on_c, 6, 72, 75
8, 1461, Note_off_c, 6, 72, 0
8, 1464, Note_on_c, 6, 74, 75
8, 1485, Note_off_c, 6, 74, 0
8, 1488, Note_on_c, 6, 76, 75
8, 1509, Note_off_c, 6, 76, 0
8, 1512, Note_on_c, 6, 72, 75
8, 1533, Note_off_c, 6, 72, 0
8, 1536, Note_on_c, 6, 77, 75
8, 1557, Note_off_c, 6, 77, 0
8, 1560, Note_on_c, 6, 76, 75
8, 1581, Note_off_c, 6, 76, 0
8, 1584, Note_on_c, 6, 74, 75
8, 1605, Note_off_c, 6, 74, 0
8, 1608, Note_on_c, 6, 72, 75
8, 1629, Note_off_c, 6, 72, 0
8, 1632, Note_on_c, 6, 74, 75
8, 1653, Note_off_c, 6, 74, 0
8, 1656, Note_on_c, 6, 70, 75
8, 1677, Note_off_c, 6, 70, 0
8, 1680, Note_on_c, 6, 76, 75
8, 1701, Note_off_c, 6, 76, 0
8, 1704, Note_on_c, 6, 64, 75
8, 1725, Note_off_c, 6, 64, 0
8, 1728, Note_on_c, 6, 69, 75
8, 1749, Note_off_c, 6, 69, 0
8, 1752, Note_on_c, 6, 70, 75
8, 1773, Note_off_c, 6, 70, 0
8, 1776, Note_on_c, 6, 72, 75
8, 1797, Note_off_c, 6, 72, 0
8, 1800, Note_on_c, 6, 69, 75
8, 1821, Note_off_c, 6, 69, 0
8, 1824, Note_on_c, 6, 74, 75
8, 1845, Note_off_c, 6, 74, 0
8, 1848, Note_on_c, 6, 72, 75
8, 1869, Note_off_c, 6, 72, 0
8, 1872, Note_on_c, 6, 70, 75
8, 1893, Note_off_c, 6, 70, 0
8, 1896, Note_on_c, 6, 69, 75
8, 1917, Note_off_c, 6, 69, 0
8, 1920, Note_on_c, 6, 70, 75
8, 1941, Note_off_c, 6, 70, 0
8, 1944, Note_on_c, 6, 67, 75
8, 1965, Note_off_c, 6, 67, 0
8, 1968, Note_on_c, 6, 72, 75
8, 1989, Note_off_c, 6, 72, 0
8, 1992, Note_on_c, 6, 60, 75
8, 2013, Note_off_c, 6, 60, 0
8, 2016, Note_on_c, 6, 65, 75
8, 2037, Note_off_c, 6, 65, 0
8, 2040, Note_on_c, 6, 67, 75
8, 2061, Note_off_c, 6, 67, 0
8, 2064, Note_on_c, 6, 69, 75
8, 2085, Note_off_c, 6, 69, 0
8, 2088, Note_on_c, 6, 65, 75
8, 2109, Note_off_c, 6, 65, 0
8, 2112, Note_on_c, 6, 70, 75
8, 2154, Note_off_c, 6, 70, 0
8, 2160, Note_on_c, 6, 70, 75
8, 2202, Note_off_c, 6, 70, 0
8, 2208, Note_on_c, 6, 70, 75
8, 2250, Note_off_c, 6, 70, 0
8, 2256, Note_on_c, 6, 70, 75
8, 2277, Note_off_c, 6, 70, 0
8, 2280, Note_on_c, 6, 72, 75
8, 2301, Note_off_c, 6, 72, 0
8, 2304, Note_on_c, 6, 70, 75
8, 2325, Note_off_c, 6, 70, 0
8, 2328, Note_on_c, 6, 69, 75
8, 2349, Note_off_c, 6, 69, 0
8, 2352, Note_on_c, 6, 70, 75
8, 2373, Note_off_c, 6, 70, 0
8, 2376, Note_on_c, 6, 67, 75
8, 2397, Note_off_c, 6, 67, 0
8, 2400, Note_on_c, 6, 79, 75
8, 2442, Note_off_c, 6, 79, 0
8, 2448, Note_on_c, 6, 70, 75
8, 2490, Note_off_c, 6, 70, 0
8, 2496, Note_on_c, 6, 70, 75
8, 2538, Note_off_c, 6, 70, 0
8, 2544, Note_on_c, 6, 70, 75
8, 2586, Note_off_c, 6, 70, 0
8, 2592, Note_on_c, 6, 72, 75
8, 2613, Note_off_c, 6, 72, 0
8, 2616, Note_on_c, 6, 70, 75
8, 2637, Note_off_c, 6, 70, 0
8, 2640, Note_on_c, 6, 69, 75
8, 2661, Note_off_c, 6, 69, 0
8, 2664, Note_on_c, 6, 67, 75
8, 2685, Note_off_c, 6, 67, 0
8, 2688, Note_on_c, 6, 69, 75
8, 2730, Note_off_c, 6, 69, 0
8, 2736, Note_on_c, 6, 69, 75
8, 2778, Note_off_c, 6, 69, 0
8, 2784, Note_on_c, 6, 69, 75
8, 2826, Note_off_c, 6, 69, 0
8, 2832, Note_on_c, 6, 69, 75
8, 2853, Note_off_c, 6, 69, 0
8, 2856, Note_on_c, 6, 70, 75
8, 2877, Note_off_c, 6, 70, 0
8, 2880, Note_on_c, 6, 69, 75
8, 2901, Note_off_c, 6, 69, 0
8, 2904, Note_on_c, 6, 67, 75
8, 2925, Note_off_c, 6, 67, 0
8, 2928, Note_on_c, 6, 69, 75
8, 2949, Note_off_c, 6, 69, 0
8, 2952, Note_on_c, 6, 65, 75
8, 2973, Note_off_c, 6, 65, 0
8, 2976, Note_on_c, 6, 77, 75
8, 3018, Note_off_c, 6, 77, 0
8, 3024, Note_on_c, 6, 69, 75
8, 3066, Note_off_c, 6, 69, 0
8, 3072, Note_on_c, 6, 69, 75
8, 3114, Note_off_c, 6, 69, 0
8, 3120, Note_on_c, 6, 69, 75
8, 3162, Note_off_c, 6, 69, 0
8, 3168, Note_on_c, 6, 70, 75
8, 3189, Note_off_c, 6, 70, 0
8, 3192, Note_on_c, 6, 69, 75
8, 3213, Note_off_c, 6, 69, 0
8, 3216, Note_on_c, 6, 67, 75
8, 3237, Note_off_c, 6, 67, 0
8, 3240, Note_on_c, 6, 65, 75
8, 3261, Note_off_c, 6, 65, 0
8, 3264, Note_on_c, 6, 64, 75
8, 3285, Note_off_c, 6, 64, 0
8, 3288, Note_on_c, 6, 62, 75
8, 3309, Note_off_c, 6, 62, 0
8, 3312, Note_on_c, 6, 64, 75
8, 3333, Note_off_c, 6, 64, 0
8, 3336, Note_on_c, 6, 60, 75
8, 3357, Note_off_c, 6, 60, 0
8, 3360, Note_on_c, 6, 67, 75
8, 3381, Note_off_c, 6, 67, 0
8, 3384, Note_on_c, 6, 65, 75
8, 3405, Note_off_c, 6, 65, 0
8, 3408, Note_on_c, 6, 67, 75
8, 3429, Note_off_c, 6, 67, 0
8, 3432, Note_on_c, 6, 64, 75
8, 3453, Note_off_c, 6, 64, 0
8, 3456, Note_on_c, 6, 70, 75
8, 3477, Note_off_c, 6, 70, 0
8, 3480, Note_on_c, 6, 69, 75
8, 3501, Note_off_c, 6, 69, 0
8, 3504, Note_on_c, 6, 70, 75
8, 3525, Note_off_c, 6, 70, 0
8, 3528, Note_on_c, 6, 67, 75
8, 3549, Note_off_c, 6, 67, 0
8, 3552, Note_on_c, 6, 76, 75
8, 3573, Note_off_c, 6, 76, 0
8, 3576, Note_on_c, 6, 74, 75
8, 3597, Note_off_c, 6, 74, 0
8, 3600, Note_on_c, 6, 76, 75
8, 3621, Note_off_c, 6, 76, 0
8, 3624, Note_on_c, 6, 72, 75
8, 3645, Note_off_c, 6, 72, 0
8, 3648, Note_on_c, 6, 79, 75
8, 3669, Note_off_c, 6, 79, 0
8, 3672, Note_on_c, 6, 77, 75
8, 3693, Note_off_c, 6, 77, 0
8, 3696, Note_on_c, 6, 79, 75
8, 3717, Note_off_c, 6, 79, 0
8, 3720, Note_on_c, 6, 76, 75
8, 3741, Note_off_c, 6, 76, 0
8, 3744, Note_on_c, 6, 82, 75
8, 3765, Note_off_c, 6, 82, 0
8, 3768, Note_on_c, 6, 81, 75
8, 3789, Note_off_c, 6, 81, 0
8, 3792, Note_on_c, 6, 82, 75
8, 3813, Note_off_c, 6, 82, 0
8, 3816, Note_on_c, 6, 79, 75
8, 3837, Note_off_c, 6, 79, 0
8, 3840, Note_on_c, 6, 81, 75
8, 3861, Note_off_c, 6, 81, 0
8, 3864, Note_on_c, 6, 79, 75
8, 3885, Note_off_c, 6, 79, 0
8, 3888, Note_on_c, 6, 81, 75
8, 3909, Note_off_c, 6, 81, 0
8, 3912, Note_on_c, 6, 76, 75
8, 3933, Note_off_c, 6, 76, 0
8, 3936, Note_on_c, 6, 77, 75
8, 3957, Note_off_c, 6, 77, 0
8, 3960, Note_on_c, 6, 76, 75
8, 3981, Note_off_c, 6, 76, 0
8, 3984, Note_on_c, 6, 77, 75
8, 4005, Note_off_c, 6, 77, 0
8, 4008, Note_on_c, 6, 79, 75
8, 4029, Note_off_c, 6, 79, 0
8, 4032, Note_on_c, 6, 79, 75
8, 4095, Note_off_c, 6, 79, 0
8, 4104, Note_on_c, 6, 77, 75
8, 4125, Note_off_c, 6, 77, 0
8, 4128, Note_on_c, 6, 77, 75
8, 4149, Note_off_c, 6, 77, 0
8, 4152, Note_on_c, 6, 76, 75
8, 4173, Note_off_c, 6, 76, 0
8, 4176, Note_on_c, 6, 77, 75
8, 4197, Note_off_c, 6, 77, 0
8, 4200, Note_on_c, 6, 72, 75
8, 4221, Note_off_c, 6, 72, 0
8, 4224, Note_on_c, 6, 74, 75
8, 4245, Note_off_c, 6, 74, 0
8, 4248, Note_on_c, 6, 72, 75
8, 4269, Note_off_c, 6, 72, 0
8, 4272, Note_on_c, 6, 74, 75
8, 4293, Note_off_c, 6, 74, 0
8, 4296, Note_on_c, 6, 69, 75
8, 4317, Note_off_c, 6, 69, 0
8, 4320, Note_on_c, 6, 70, 75
8, 4341, Note_off_c, 6, 70, 0
8, 4344, Note_on_c, 6, 69, 75
8, 4365, Note_off_c, 6, 69, 0
8, 4368, Note_on_c, 6, 70, 75
8, 4389, Note_off_c, 6, 70, 0
8, 4392, Note_on_c, 6, 67, 75
8, 4413, Note_off_c, 6, 67, 0
8, 4416, Note_on_c, 6, 69, 75
8, 4437, Note_off_c, 6, 69, 0
8, 4440, Note_on_c, 6, 67, 75
8, 4461, Note_off_c, 6, 67, 0
8, 4464, Note_on_c, 6, 69, 75
8, 4485, Note_off_c, 6, 69, 0
8, 4488, Note_on_c, 6, 64, 75
8, 4509, Note_off_c, 6, 64, 0
8, 4512, Note_on_c, 6, 65, 75
8, 4533, Note_off_c, 6, 65, 0
8, 4536, Note_on_c, 6, 64, 75
8, 4557, Note_off_c, 6, 64, 0
8, 4560, Note_on_c, 6, 65, 75
8, 4581, Note_off_c, 6, 65, 0
8, 4584, Note_on_c, 6, 67, 75
8, 4605, Note_off_c, 6, 67, 0
8, 4608, Note_on_c, 6, 67, 75
8, 4671, Note_off_c, 6, 67, 0
8, 4680, Note_on_c, 6, 65, 75
8, 4701, Note_off_c, 6, 65, 0
8, 4704, Note_on_c, 6, 65, 96
8, 4746, Note_off_c, 6, 65, 0
8, 4752, Note_on_c, 6, 65, 96
8, 4794, Note_off_c, 6, 65, 0
8, 4800, Note_on_c, 6, 65, 96
8, 4842, Note_off_c, 6, 65, 0
8, 4848, Note_on_c, 6, 65, 96
8, 4890, Note_off_c, 6, 65, 0
8, 4896, Note_on_c, 6, 69, 96
8, 4917, Note_off_c, 6, 69, 0
8, 4920, Note_on_c, 6, 67, 96
8, 4941, Note_off_c, 6, 67, 0
8, 4944, Note_on_c, 6, 69, 96
8, 4965, Note_off_c, 6, 69, 0
8, 4968, Note_on_c, 6, 65, 96
8, 4989, Note_off_c, 6, 65, 0
8, 4992, Note_on_c, 6, 72, 96
8, 5034, Note_off_c, 6, 72, 0
8, 5040, Note_on_c, 6, 72, 96
8, 5082, Note_off_c, 6, 72, 0
8, 5088, Note_on_c, 6, 72, 96
8, 5130, Note_off_c, 6, 72, 0
8, 5136, Note_on_c, 6, 72, 96
8, 5178, Note_off_c, 6, 72, 0
8, 5184, Note_on_c, 6, 76, 96
8, 5205, Note_off_c, 6, 76, 0
8, 5208, Note_on_c, 6, 74, 96
8, 5229, Note_off_c, 6, 74, 0
8, 5232, Note_on_c, 6, 76, 96
8, 5253, Note_off_c, 6, 76, 0
8, 5256, Note_on_c, 6, 72, 96
8, 5277, Note_off_c, 6, 72, 0
8, 5280, Note_on_c, 6, 77, 96
8, 5322, Note_off_c, 6, 77, 0
8, 5328, Note_on_c, 6, 76, 96
8, 5349, Note_off_c, 6, 76, 0
8, 5352, Note_on_c, 6, 74, 96
8, 5373, Note_off_c, 6, 74, 0
8, 5376, Note_on_c, 6, 72, 96
8, 5397, Note_off_c, 6, 72, 0
8, 5400, Note_on_c, 6, 70, 96
8, 5421, Note_off_c, 6, 70, 0
8, 5424, Note_on_c, 6, 69, 96
8, 5445, Note_off_c, 6, 69, 0
8, 5448, Note_on_c, 6, 70, 96
8, 5469, Note_off_c, 6, 70, 0
8, 5472, Note_on_c, 6, 72, 96
8, 5482, Note_off_c, 6, 72, 0
8, 5484, Note_on_c, 6, 70, 96
8, 5494, Note_off_c, 6, 70, 0
8, 5496, Note_on_c, 6, 72, 96
8, 5506, Note_off_c, 6, 72, 0
8, 5508, Note_on_c, 6, 70, 96
8, 5518, Note_off_c, 6, 70, 0
8, 5520, Note_on_c, 6, 72, 96
8, 5530, Note_off_c, 6, 72, 0
8, 5532, Note_on_c, 6, 70, 96
8, 5542, Note_off_c, 6, 70, 0
8, 5544, Note_on_c, 6, 69, 96
8, 5554, Note_off_c, 6, 69, 0
8, 5556, Note_on_c, 6, 70, 96
8, 5566, Note_off_c, 6, 70, 0
8, 5568, Note_on_c, 6, 72, 96
8, 5589, Note_off_c, 6, 72, 0
8, 5592, Note_on_c, 6, 69, 96
8, 5613, Note_off_c, 6, 69, 0
8, 5616, Note_on_c, 6, 67, 96
8, 5626, Note_off_c, 6, 67, 0
8, 5628, Note_on_c, 6, 65, 96
8, 5638, Note_off_c, 6, 65, 0
8, 5640, Note_on_c, 6, 67, 96
8, 5650, Note_off_c, 6, 67, 0
8, 5652, Note_on_c, 6, 65, 96
8, 5662, Note_off_c, 6, 65, 0
8, 5664, Note_on_c, 6, 67, 96
8, 5674, Note_off_c, 6, 67, 0
8, 5676, Note_on_c, 6, 65, 96
8, 5686, Note_off_c, 6, 65, 0
8, 5688, Note_on_c, 6, 70, 96
8, 5698, Note_off_c, 6, 70, 0
8, 5700, Note_on_c, 6, 69, 96
8, 5710, Note_off_c, 6, 69, 0
8, 5712, Note_on_c, 6, 60, 96
8, 5712, Note_on_c, 6, 67, 96
8, 5796, Note_off_c, 6, 60, 0
8, 5796, Note_off_c, 6, 67, 0
8, 5904, Note_on_c, 6, 65, 96
8, 5946, Note_off_c, 6, 65, 0
8, 5952, Note_on_c, 6, 65, 96
8, 5994, Note_off_c, 6, 65, 0
8, 6000, Note_on_c, 6, 65, 96
8, 6042, Note_off_c, 6, 65, 0
8, 6048, Note_on_c, 6, 69, 96
8, 6069, Note_off_c, 6, 69, 0
8, 6072, Note_on_c, 6, 67, 96
8, 6093, Note_off_c, 6, 67, 0
8, 6096, Note_on_c, 6, 69, 96
8, 6117, Note_off_c, 6, 69, 0
8, 6120, Note_on_c, 6, 65, 96
8, 6141, Note_off_c, 6, 65, 0
8, 6144, Note_on_c, 6, 72, 96
8, 6186, Note_off_c, 6, 72, 0
8, 6192, Note_on_c, 6, 72, 96
8, 6234, Note_off_c, 6, 72, 0
8, 6240, Note_on_c, 6, 72, 96
8, 6282, Note_off_c, 6, 72, 0
8, 6288, Note_on_c, 6, 72, 96
8, 6330, Note_off_c, 6, 72, 0
8, 6336, Note_on_c, 6, 76, 96
8, 6357, Note_off_c, 6, 76, 0
8, 6360, Note_on_c, 6, 74, 96
8, 6381, Note_off_c, 6, 74, 0
8, 6384, Note_on_c, 6, 76, 96
8, 6405, Note_off_c, 6, 76, 0
8, 6408, Note_on_c, 6, 72, 96
8, 6429, Note_off_c, 6, 72, 0
8, 6432, Note_on_c, 6, 62, 96
8, 6432, Note_on_c, 6, 69, 96
8, 6432, Note_on_c, 6, 77, 96
8, 6474, Note_off_c, 6, 62, 0
8, 6474, Note_off_c, 6, 69, 0
8, 6474, Note_off_c, 6, 77, 0
8, 6480, Note_on_c, 6, 77, 96
8, 6522, Note_off_c, 6, 77, 0
8, 6528, Note_on_c, 6, 77, 96
8, 6570, Note_off_c, 6, 77, 0
8, 6576, Note_on_c, 6, 77, 96
8, 6618, Note_off_c, 6, 77, 0
8, 6624, Note_on_c, 6, 79, 96
8, 6645, Note_off_c, 6, 79, 0
8, 6648, Note_on_c, 6, 77, 96
8, 6669, Note_off_c, 6, 77, 0
8, 6672, Note_on_c, 6, 76, 96
8, 6693, Note_off_c, 6, 76, 0
8, 6696, Note_on_c, 6, 74, 96
8, 6717, Note_off_c, 6, 74, 0
8, 6720, Note_on_c, 6, 76, 96
8, 6741, Note_off_c, 6, 76, 0
8, 6744, Note_on_c, 6, 77, 96
8, 6765, Note_off_c, 6, 77, 0
8, 6768, Note_on_c, 6, 79, 96
8, 6778, Note_off_c, 6, 79, 0
8, 6780, Note_on_c, 6, 77, 96
8, 6790, Note_off_c, 6, 77, 0
8, 6792, Note_on_c, 6, 79, 96
8, 6802, Note_off_c, 6, 79, 0
8, 6804, Note_on_c, 6, 77, 96
8, 6814, Note_off_c, 6, 77, 0
8, 6816, Note_on_c, 6, 79, 96
8, 6826, Note_off_c, 6, 79, 0
8, 6828, Note_on_c, 6, 77, 96
8, 6838, Note_off_c, 6, 77, 0
8, 6840, Note_on_c, 6, 76, 96
8, 6850, Note_off_c, 6, 76, 0
8, 6852, Note_on_c, 6, 77, 96
8, 6862, Note_off_c, 6, 77, 0
8, 6864, Note_on_c, 6, 79, 96
8, 6906, Note_off_c, 6, 79, 0
8, 7056, Note_on_c, 6, 65, 96
8, 7056, Note_on_c, 6, 72, 96
8, 7056, Note_on_c, 6, 81, 96
8, 7098, Note_off_c, 6, 65, 0
8, 7098, Note_off_c, 6, 72, 0
8, 7098, Note_off_c, 6, 81, 0
8, 7104, Note_on_c, 6, 65, 96
8, 7104, Note_on_c, 6, 72, 96
8, 7104, Note_on_c, 6, 81, 96
8, 7146, Note_off_c, 6, 65, 0
8, 7146, Note_off_c, 6, 72, 0
8, 7146, Note_off_c, 6, 81, 0
8, 7152, Note_on_c, 6, 71, 96
8, 7152, Note_on_c, 6, 74, 96
8, 7152, Note_on_c, 6, 81, 96
8, 7173, Note_off_c, 6, 71, 0
8, 7173, Note_off_c, 6, 74, 0
8, 7173, Note_off_c, 6, 81, 0
8, 7176, Note_on_c, 6, 79, 96
8, 7197, Note_off_c, 6, 79, 0
8, 7200, Note_on_c, 6, 77, 96
8, 7221, Note_off_c, 6, 77, 0
8, 7224, Note_on_c, 6, 76, 96
8, 7245, Note_off_c, 6, 76, 0
8, 7248, Note_on_c, 6, 77, 96
8, 7269, Note_off_c, 6, 77, 0
8, 7272, Note_on_c, 6, 74, 96
8, 7293, Note_off_c, 6, 74, 0
8, 7296, Note_on_c, 6, 79, 96
8, 7338, Note_off_c, 6, 79, 0
8, 7344, Note_on_c, 6, 64, 96
8, 7344, Note_on_c, 6, 71, 96
8, 7344, Note_on_c, 6, 76, 96
8, 7344, Note_on_c, 6, 79, 96
8, 7386, Note_off_c, 6, 64, 0
8, 7386, Note_off_c, 6, 71, 0
8, 7386, Note_off_c, 6, 76, 0
8, 7386, Note_off_c, 6, 79, 0
8, 7392, Note_on_c, 6, 64, 96
8, 7392, Note_on_c, 6, 71, 96
8, 7392, Note_on_c, 6, 76, 96
8, 7392, Note_on_c, 6, 79, 96
8, 7434, Note_off_c, 6, 64, 0
8, 7434, Note_off_c, 6, 71, 0
8, 7434, Note_off_c, 6, 76, 0
8, 7434, Note_off_c, 6, 79, 0
8, 7440, Note_on_c, 6, 69, 96
8, 7440, Note_on_c, 6, 72, 96
8, 7440, Note_on_c, 6, 79, 96
8, 7461, Note_off_c, 6, 69, 0
8, 7461, Note_off_c, 6, 72, 0
8, 7461, Note_off_c, 6, 79, 0
8, 7464, Note_on_c, 6, 77, 96
8, 7485, Note_off_c, 6, 77, 0
8, 7488, Note_on_c, 6, 76, 96
8, 7509, Note_off_c, 6, 76, 0
8, 7512, Note_on_c, 6, 74, 96
8, 7533, Note_off_c, 6, 74, 0
8, 7536, Note_on_c, 6, 76, 96
8, 7557, Note_off_c, 6, 76, 0
8, 7560, Note_on_c, 6, 72, 96
8, 7581, Note_off_c, 6, 72, 0
8, 7584, Note_on_c, 6, 77, 96
8, 7626, Note_off_c, 6, 77, 0
8, 7632, Note_on_c, 6, 62, 96
8, 7632, Note_on_c, 6, 69, 96
8, 7632, Note_on_c, 6, 77, 96
8, 7674, Note_off_c, 6, 62, 0
8, 7674, Note_off_c, 6, 69, 0
8, 7674, Note_off_c, 6, 77, 0
8, 7680, Note_on_c, 6, 62, 96
8, 7680, Note_on_c, 6, 69, 96
8, 7680, Note_on_c, 6, 77, 96
8, 7722, Note_off_c, 6, 62, 0
8, 7722, Note_off_c, 6, 69, 0
8, 7722, Note_off_c, 6, 77, 0
8, 7728, Note_on_c, 6, 62, 96
8, 7728, Note_on_c, 6, 71, 96
8, 7728, Note_on_c, 6, 77, 96
8, 7749, Note_off_c, 6, 62, 0
8, 7749, Note_off_c, 6, 71, 0
8, 7749, Note_off_c, 6, 77, 0
8, 7752, Note_on_c, 6, 76, 96
8, 7773, Note_off_c, 6, 76, 0
8, 7776, Note_on_c, 6, 74, 96
8, 7797, Note_off_c, 6, 74, 0
8, 7800, Note_on_c, 6, 72, 96
8, 7821, Note_off_c, 6, 72, 0
8, 7824, Note_on_c, 6, 74, 96
8, 7845, Note_off_c, 6, 74, 0
8, 7848, Note_on_c, 6, 71, 96
8, 7869, Note_off_c, 6, 71, 0
8, 7872, Note_on_c, 6, 76, 96
8, 7914, Note_off_c, 6, 76, 0
8, 7920, Note_on_c, 6, 60, 96
8, 7920, Note_on_c, 6, 67, 96
8, 7920, Note_on_c, 6, 76, 96
8, 7962, Note_off_c, 6, 60, 0
8, 7962, Note_off_c, 6, 67, 0
8, 7962, Note_off_c, 6, 76, 0
8, 7968, Note_on_c, 6, 60, 96
8, 7968, Note_on_c, 6, 67, 96
8, 7968, Note_on_c, 6, 76, 96
8, 8010, Note_off_c, 6, 60, 0
8, 8010, Note_off_c, 6, 67, 0
8, 8010, Note_off_c, 6, 76, 0
8, 8016, Note_on_c, 6, 65, 96
8, 8016, Note_on_c, 6, 69, 96
8, 8016, Note_on_c, 6, 76, 96
8, 8037, Note_off_c, 6, 65, 0
8, 8037, Note_off_c, 6, 69, 0
8, 8037, Note_off_c, 6, 76, 0
8, 8040, Note_on_c, 6, 77, 96
8, 8061, Note_off_c, 6, 77, 0
8, 8064, Note_on_c, 6, 76, 96
8, 8085, Note_off_c, 6, 76, 0
8, 8088, Note_on_c, 6, 74, 96
8, 8109, Note_off_c, 6, 74, 0
8, 8112, Note_on_c, 6, 76, 96
8, 8133, Note_off_c, 6, 76, 0
8, 8136, Note_on_c, 6, 72, 96
8, 8157, Note_off_c, 6, 72, 0
8, 8160, Note_on_c, 6, 74, 96
8, 8181, Note_off_c, 6, 74, 0
8, 8184, Note_on_c, 6, 76, 96
8, 8205, Note_off_c, 6, 76, 0
8, 8208, Note_on_c, 6, 74, 96
8, 8229, Note_off_c, 6, 74, 0
8, 8232, Note_on_c, 6, 72, 96
8, 8253, Note_off_c, 6, 72, 0
8, 8256, Note_on_c, 6, 74, 96
8, 8277, Note_off_c, 6, 74, 0
8, 8280, Note_on_c, 6, 71, 96
8, 8301, Note_off_c, 6, 71, 0
8, 8304, Note_on_c, 6, 72, 96
8, 8325, Note_off_c, 6, 72, 0
8, 8328, Note_on_c, 6, 74, 96
8, 8349, Note_off_c, 6, 74, 0
8, 8352, Note_on_c, 6, 72, 96
8, 8373, Note_off_c, 6, 72, 0
8, 8376, Note_on_c, 6, 71, 96
8, 8397, Note_off_c, 6, 71, 0
8, 8400, Note_on_c, 6, 72, 96
8, 8421, Note_off_c, 6, 72, 0
8, 8424, Note_on_c, 6, 69, 96
8, 8445, Note_off_c, 6, 69, 0
8, 8448, Note_on_c, 6, 71, 96
8, 8469, Note_off_c, 6, 71, 0
8, 8472, Note_on_c, 6, 74, 96
8, 8493, Note_off_c, 6, 74, 0
8, 8496, Note_on_c, 6, 72, 96
8, 8517, Note_off_c, 6, 72, 0
8, 8520, Note_on_c, 6, 71, 96
8, 8541, Note_off_c, 6, 71, 0
8, 8544, Note_on_c, 6, 69, 96
8, 8565, Note_off_c, 6, 69, 0
8, 8568, Note_on_c, 6, 67, 96
8, 8589, Note_off_c, 6, 67, 0
8, 8640, Note_on_c, 6, 60, 96
8, 8640, Note_on_c, 6, 67, 96
8, 8640, Note_on_c, 6, 72, 96
8, 8682, Note_off_c, 6, 60, 0
8, 8682, Note_off_c, 6, 67, 0
8, 8682, Note_off_c, 6, 72, 0
8, 8688, Note_on_c, 6, 60, 96
8, 8688, Note_on_c, 6, 67, 96
8, 8688, Note_on_c, 6, 72, 96
8, 8730, Note_off_c, 6, 60, 0
8, 8730, Note_off_c, 6, 67, 0
8, 8730, Note_off_c, 6, 72, 0
8, 8736, Note_on_c, 6, 65, 96
8, 8736, Note_on_c, 6, 69, 96
8, 8736, Note_on_c, 6, 72, 96
8, 8757, Note_off_c, 6, 65, 0
8, 8757, Note_off_c, 6, 69, 0
8, 8757, Note_off_c, 6, 72, 0
8, 8760, Note_on_c, 6, 70, 96
8, 8781, Note_off_c, 6, 70, 0
8, 8784, Note_on_c, 6, 69, 96
8, 8805, Note_off_c, 6, 69, 0
8, 8808, Note_on_c, 6, 67, 96
8, 8829, Note_off_c, 6, 67, 0
8, 8832, Note_on_c, 6, 69, 96
8, 8853, Note_off_c, 6, 69, 0
8, 8856, Note_on_c, 6, 65, 96
8, 8877, Note_off_c, 6, 65, 0
8, 8880, Note_on_c, 6, 74, 96
8, 8922, Note_off_c, 6, 74, 0
8, 8928, Note_on_c, 6, 62, 96
8, 8928, Note_on_c, 6, 69, 96
8, 8928, Note_on_c, 6, 74, 96
8, 8970, Note_off_c, 6, 62, 0
8, 8970, Note_off_c, 6, 69, 0
8, 8970, Note_off_c, 6, 74, 0
8, 8976, Note_on_c, 6, 62, 96
8, 8976, Note_on_c, 6, 69, 96
8, 8976, Note_on_c, 6, 74, 96
8, 9018, Note_off_c, 6, 62, 0
8, 9018, Note_off_c, 6, 69, 0
8, 9018, Note_off_c, 6, 74, 0
8, 9024, Note_on_c, 6, 59, 96
8, 9024, Note_on_c, 6, 67, 96
8, 9024, Note_on_c, 6, 74, 96
8, 9045, Note_off_c, 6, 59, 0
8, 9045, Note_off_c, 6, 67, 0
8, 9045, Note_off_c, 6, 74, 0
8, 9048, Note_on_c, 6, 72, 96
8, 9069, Note_off_c, 6, 72, 0
8, 9072, Note_on_c, 6, 71, 96
8, 9093, Note_off_c, 6, 71, 0
8, 9096, Note_on_c, 6, 69, 96
8, 9117, Note_off_c, 6, 69, 0
8, 9120, Note_on_c, 6, 71, 96
8, 9141, Note_off_c, 6, 71, 0
8, 9144, Note_on_c, 6, 67, 96
8, 9165, Note_off_c, 6, 67, 0
8, 9168, Note_on_c, 6, 76, 96
8, 9210, Note_off_c, 6, 76, 0
8, 9216, Note_on_c, 6, 64, 96
8, 9216, Note_on_c, 6, 71, 96
8, 9216, Note_on_c, 6, 76, 96
8, 9258, Note_off_c, 6, 64, 0
8, 9258, Note_off_c, 6, 71, 0
8, 9258, Note_off_c, 6, 76, 0
8, 9264, Note_on_c, 6, 64, 96
8, 9264, Note_on_c, 6, 71, 96
8, 9264, Note_on_c, 6, 76, 96
8, 9306, Note_off_c, 6, 64, 0
8, 9306, Note_off_c, 6, 71, 0
8, 9306, Note_off_c, 6, 76, 0
8, 9312, Note_on_c, 6, 60, 96
8, 9312, Note_on_c, 6, 69, 96
8, 9312, Note_on_c, 6, 76, 96
8, 9333, Note_off_c, 6, 60, 0
8, 9333, Note_off_c, 6, 69, 0
8, 9333, Note_off_c, 6, 76, 0
8, 9336, Note_on_c, 6, 74, 96
8, 9357, Note_off_c, 6, 74, 0
8, 9360, Note_on_c, 6, 72, 96
8, 9381, Note_off_c, 6, 72, 0
8, 9384, Note_on_c, 6, 71, 96
8, 9405, Note_off_c, 6, 71, 0
8, 9408, Note_on_c, 6, 72, 96
8, 9429, Note_off_c, 6, 72, 0
8, 9432, Note_on_c, 6, 69, 96
8, 9453, Note_off_c, 6, 69, 0
8, 9456, Note_on_c, 6, 77, 96
8, 9498, Note_off_c, 6, 77, 0
8, 9504, Note_on_c, 6, 60, 96
8, 9504, Note_on_c, 6, 69, 96
8, 9504, Note_on_c, 6, 77, 96
8, 9546, Note_off_c, 6, 60, 0
8, 9546, Note_off_c, 6, 69, 0
8, 9546, Note_off_c, 6, 77, 0
8, 9552, Note_on_c, 6, 60, 96
8, 9552, Note_on_c, 6, 69, 96
8, 9552, Note_on_c, 6, 77, 96
8, 9594, Note_off_c, 6, 60, 0
8, 9594, Note_off_c, 6, 69, 0
8, 9594, Note_off_c, 6, 77, 0
8, 9600, Note_on_c, 6, 59, 96
8, 9600, Note_on_c, 6, 67, 96
8, 9600, Note_on_c, 6, 77, 96
8, 9621, Note_off_c, 6, 59, 0
8, 9621, Note_off_c, 6, 67, 0
8, 9621, Note_off_c, 6, 77, 0
8, 9624, Note_on_c, 6, 76, 96
8, 9645, Note_off_c, 6, 76, 0
8, 9648, Note_on_c, 6, 74, 96
8, 9669, Note_off_c, 6, 74, 0
8, 9672, Note_on_c, 6, 72, 96
8, 9693, Note_off_c, 6, 72, 0
8, 9696, Note_on_c, 6, 74, 96
8, 9717, Note_off_c, 6, 74, 0
8, 9720, Note_on_c, 6, 71, 96
8, 9741, Note_off_c, 6, 71, 0
8, 9744, Note_on_c, 6, 79, 96
8, 9786, Note_off_c, 6, 79, 0
8, 9792, Note_on_c, 6, 79, 96
8, 9834, Note_off_c, 6, 79, 0
8, 9840, Note_on_c, 6, 79, 96
8, 9882, Note_off_c, 6, 79, 0
8, 9888, Note_on_c, 6, 79, 96
8, 10485, Note_off_c, 6, 79, 0
8, 10488, Note_on_c, 6, 81, 96
8, 10509, Note_off_c, 6, 81, 0
8, 10512, Note_on_c, 6, 79, 96
8, 10533, Note_off_c, 6, 79, 0
8, 10536, Note_on_c, 6, 77, 96
8, 10557, Note_off_c, 6, 77, 0
8, 10560, Note_on_c, 6, 79, 96
8, 10581, Note_off_c, 6, 79, 0
8, 10584, Note_on_c, 6, 76, 96
8, 10605, Note_off_c, 6, 76, 0
8, 10608, Note_on_c, 6, 81, 96
8, 10629, Note_off_c, 6, 81, 0
8, 10632, Note_on_c, 6, 82, 96
8, 10653, Note_off_c, 6, 82, 0
8, 10656, Note_on_c, 6, 81, 96
8, 10677, Note_off_c, 6, 81, 0
8, 10680, Note_on_c, 6, 79, 96
8, 10701, Note_off_c, 6, 79, 0
8, 10704, Note_on_c, 6, 77, 96
8, 10725, Note_off_c, 6, 77, 0
8, 10728, Note_on_c, 6, 76, 96
8, 10749, Note_off_c, 6, 76, 0
8, 10752, Note_on_c, 6, 74, 96
8, 10794, Note_off_c, 6, 74, 0
8, 10800, Note_on_c, 6, 72, 96
8, 10821, Note_off_c, 6, 72, 0
8, 10824, Note_on_c, 6, 71, 96
8, 10845, Note_off_c, 6, 71, 0
8, 10848, Note_on_c, 6, 69, 96
8, 10869, Note_off_c, 6, 69, 0
8, 10872, Note_on_c, 6, 67, 96
8, 10893, Note_off_c, 6, 67, 0
8, 10896, Note_on_c, 6, 74, 96
8, 10917, Note_off_c, 6, 74, 0
8, 10920, Note_on_c, 6, 76, 96
8, 10941, Note_off_c, 6, 76, 0
8, 10944, Note_on_c, 6, 77, 96
8, 10954, Note_off_c, 6, 77, 0
8, 10956, Note_on_c, 6, 76, 96
8, 10966, Note_off_c, 6, 76, 0
8, 10968, Note_on_c, 6, 77, 96
8, 10978, Note_off_c, 6, 77, 0
8, 10980, Note_on_c, 6, 76, 96
8, 10990, Note_off_c, 6, 76, 0
8, 10992, Note_on_c, 6, 77, 96
8, 11002, Note_off_c, 6, 77, 0
8, 11004, Note_on_c, 6, 76, 96
8, 11014, Note_off_c, 6, 76, 0
8, 11016, Note_on_c, 6, 74, 96
8, 11026, Note_off_c, 6, 74, 0
8, 11028, Note_on_c, 6, 76, 96
8, 11038, Note_off_c, 6, 76, 0
8, 11040, Note_on_c, 6, 77, 96
8, 11061, Note_off_c, 6, 77, 0
8, 11064, Note_on_c, 6, 76, 96
8, 11085, Note_off_c, 6, 76, 0
8, 11088, Note_on_c, 6, 74, 96
8, 11109, Note_off_c, 6, 74, 0
8, 11112, Note_on_c, 6, 72, 96
8, 11133, Note_off_c, 6, 72, 0
8, 11136, Note_on_c, 6, 74, 96
8, 11157, Note_off_c, 6, 74, 0
8, 11160, Note_on_c, 6, 71, 96
8, 11181, Note_off_c, 6, 71, 0
8, 11184, Note_on_c, 6, 79, 96
8, 11205, Note_off_c, 6, 79, 0
8, 11208, Note_on_c, 6, 74, 96
8, 11229, Note_off_c, 6, 74, 0
8, 11232, Note_on_c, 6, 76, 96
8, 11253, Note_off_c, 6, 76, 0
8, 11256, Note_on_c, 6, 71, 96
8, 11277, Note_off_c, 6, 71, 0
8, 11280, Note_on_c, 6, 72, 96
8, 11301, Note_off_c, 6, 72, 0
8, 11304, Note_on_c, 6, 71, 96
8, 11325, Note_off_c, 6, 71, 0
8, 11328, Note_on_c, 6, 72, 96
8, 11349, Note_off_c, 6, 72, 0
8, 11352, Note_on_c, 6, 77, 96
8, 11373, Note_off_c, 6, 77, 0
8, 11376, Note_on_c, 6, 67, 96
8, 11376, Note_on_c, 6, 74, 96
8, 11439, Note_off_c, 6, 67, 0
8, 11439, Note_off_c, 6, 74, 0
8, 11448, Note_on_c, 6, 72, 96
8, 11469, Note_off_c, 6, 72, 0
8, 11472, Note_on_c, 6, 60, 96
8, 11472, Note_on_c, 6, 67, 96
8, 11472, Note_on_c, 6, 72, 96
8, 11556, Note_off_c, 6, 60, 0
8, 11556, Note_off_c, 6, 67, 0
8, 11556, Note_off_c, 6, 72, 0
8, 15120, Note_on_c, 6, 67, 96
8, 15162, Note_off_c, 6, 67, 0
8, 15168, Note_on_c, 6, 69, 96
8, 15189, Note_off_c, 6, 69, 0
8, 15192, Note_on_c, 6, 70, 96
8, 15202, Note_off_c, 6, 70, 0
8, 15204, Note_on_c, 6, 72, 96
8, 15214, Note_off_c, 6, 72, 0
8, 15216, Note_on_c, 6, 70, 96
8, 15226, Note_off_c, 6, 70, 0
8, 15228, Note_on_c, 6, 69, 96
8, 15238, Note_off_c, 6, 69, 0
8, 15240, Note_on_c, 6, 70, 96
8, 15250, Note_off_c, 6, 70, 0
8, 15252, Note_on_c, 6, 69, 96
8, 15262, Note_off_c, 6, 69, 0
8, 15264, Note_on_c, 6, 67, 96
8, 15285, Note_off_c, 6, 67, 0
8, 15288, Note_on_c, 6, 65, 96
8, 15309, Note_off_c, 6, 65, 0
8, 15312, Note_on_c, 6, 77, 96
8, 15381, Note_off_c, 6, 77, 0
8, 15384, Note_on_c, 6, 79, 96
8, 15394, Note_off_c, 6, 79, 0
8, 15396, Note_on_c, 6, 77, 96
8, 15406, Note_off_c, 6, 77, 0
8, 15408, Note_on_c, 6, 76, 96
8, 15418, Note_off_c, 6, 76, 0
8, 15420, Note_on_c, 6, 77, 96
8, 15430, Note_off_c, 6, 77, 0
8, 15432, Note_on_c, 6, 79, 96
8, 15453, Note_off_c, 6, 79, 0
8, 15456, Note_on_c, 6, 77, 96
8, 15477, Note_off_c, 6, 77, 0
8, 15480, Note_on_c, 6, 76, 96
8, 15501, Note_off_c, 6, 76, 0
8, 15504, Note_on_c, 6, 74, 96
8, 15514, Note_off_c, 6, 74, 0
8, 15516, Note_on_c, 6, 73, 96
8, 15526, Note_off_c, 6, 73, 0
8, 15528, Note_on_c, 6, 74, 96
8, 15538, Note_off_c, 6, 74, 0
8, 15540, Note_on_c, 6, 73, 96
8, 15550, Note_off_c, 6, 73, 0
8, 15552, Note_on_c, 6, 74, 96
8, 15562, Note_off_c, 6, 74, 0
8, 15564, Note_on_c, 6, 73, 96
8, 15574, Note_off_c, 6, 73, 0
8, 15576, Note_on_c, 6, 71, 96
8, 15597, Note_off_c, 6, 71, 0
8, 15600, Note_on_c, 6, 69, 96
8, 15642, Note_off_c, 6, 69, 0
8, 15696, Note_on_c, 6, 77, 96
8, 15717, Note_off_c, 6, 77, 0
8, 15720, Note_on_c, 6, 76, 96
8, 15741, Note_off_c, 6, 76, 0
8, 15744, Note_on_c, 6, 76, 96
8, 15765, Note_off_c, 6, 76, 0
8, 15768, Note_on_c, 6, 74, 96
8, 15789, Note_off_c, 6, 74, 0
8, 15792, Note_on_c, 6, 74, 96
8, 15813, Note_off_c, 6, 74, 0
8, 15816, Note_on_c, 6, 72, 96
8, 15837, Note_off_c, 6, 72, 0
8, 15840, Note_on_c, 6, 72, 96
8, 15861, Note_off_c, 6, 72, 0
8, 15864, Note_on_c, 6, 71, 96
8, 15885, Note_off_c, 6, 71, 0
8, 15888, Note_on_c, 6, 71, 96
8, 15909, Note_off_c, 6, 71, 0
8, 15912, Note_on_c, 6, 76, 96
8, 15933, Note_off_c, 6, 76, 0
8, 15936, Note_on_c, 6, 76, 96
8, 15957, Note_off_c, 6, 76, 0
8, 15960, Note_on_c, 6, 74, 96
8, 15981, Note_off_c, 6, 74, 0
8, 15984, Note_on_c, 6, 74, 96
8, 16005, Note_off_c, 6, 74, 0
8, 16008, Note_on_c, 6, 71, 96
8, 16029, Note_off_c, 6, 71, 0
8, 16032, Note_on_c, 6, 72, 96
8, 16053, Note_off_c, 6, 72, 0
8, 16056, Note_on_c, 6, 69, 96
8, 16077, Note_off_c, 6, 69, 0
8, 16080, Note_on_c, 6, 68, 96
8, 16122, Note_off_c, 6, 68, 0
8, 16128, Note_on_c, 6, 71, 96
8, 16149, Note_off_c, 6, 71, 0
8, 16152, Note_on_c, 6, 72, 96
8, 16173, Note_off_c, 6, 72, 0
8, 16176, Note_on_c, 6, 74, 96
8, 16186, Note_off_c, 6, 74, 0
8, 16188, Note_on_c, 6, 72, 96
8, 16198, Note_off_c, 6, 72, 0
8, 16200, Note_on_c, 6, 74, 96
8, 16210, Note_off_c, 6, 74, 0
8, 16212, Note_on_c, 6, 72, 96
8, 16222, Note_off_c, 6, 72, 0
8, 16224, Note_on_c, 6, 74, 96
8, 16287, Note_off_c, 6, 74, 0
8, 16296, Note_on_c, 6, 76, 96
8, 16306, Note_off_c, 6, 76, 0
8, 16308, Note_on_c, 6, 77, 96
8, 16318, Note_off_c, 6, 77, 0
8, 16320, Note_on_c, 6, 76, 96
8, 16341, Note_off_c, 6, 76, 0
8, 16344, Note_on_c, 6, 74, 96
8, 16365, Note_off_c, 6, 74, 0
8, 16368, Note_on_c, 6, 72, 96
8, 16389, Note_off_c, 6, 72, 0
8, 16392, Note_on_c, 6, 71, 96
8, 16413, Note_off_c, 6, 71, 0
8, 16416, Note_on_c, 6, 74, 96
8, 16437, Note_off_c, 6, 74, 0
8, 16440, Note_on_c, 6, 72, 96
8, 16461, Note_off_c, 6, 72, 0
8, 16464, Note_on_c, 6, 71, 96
8, 16485, Note_off_c, 6, 71, 0
8, 16488, Note_on_c, 6, 69, 96
8, 16509, Note_off_c, 6, 69, 0
8, 16512, Note_on_c, 6, 77, 96
8, 16533, Note_off_c, 6, 77, 0
8, 16536, Note_on_c, 6, 69, 96
8, 16557, Note_off_c, 6, 69, 0
8, 16560, Note_on_c, 6, 62, 96
8, 16581, Note_off_c, 6, 62, 0
8, 16584, Note_on_c, 6, 69, 96
8, 16605, Note_off_c, 6, 69, 0
8, 16608, Note_on_c, 6, 77, 96
8, 16650, Note_off_c, 6, 77, 0
8, 16704, Note_on_c, 6, 71, 96
8, 16725, Note_off_c, 6, 71, 0
8, 16728, Note_on_c, 6, 72, 96
8, 16749, Note_off_c, 6, 72, 0
8, 16752, Note_on_c, 6, 72, 96
8, 16773, Note_off_c, 6, 72, 0
8, 16776, Note_on_c, 6, 74, 96
8, 16797, Note_off_c, 6, 74, 0
8, 16800, Note_on_c, 6, 68, 96
8, 16821, Note_off_c, 6, 68, 0
8, 16824, Note_on_c, 6, 71, 96
8, 16845, Note_off_c, 6, 71, 0
8, 16848, Note_on_c, 6, 74, 96
8, 16869, Note_off_c, 6, 74, 0
8, 16872, Note_on_c, 6, 77, 96
8, 16893, Note_off_c, 6, 77, 0
8, 16896, Note_on_c, 6, 76, 96
8, 16965, Note_off_c, 6, 76, 0
8, 16968, Note_on_c, 6, 74, 96
8, 16989, Note_off_c, 6, 74, 0
8, 16992, Note_on_c, 6, 72, 96
8, 17034, Note_off_c, 6, 72, 0
8, 17040, Note_on_c, 6, 72, 96
8, 17050, Note_off_c, 6, 72, 0
8, 17052, Note_on_c, 6, 71, 96
8, 17062, Note_off_c, 6, 71, 0
8, 17064, Note_on_c, 6, 69, 96
8, 17085, Note_off_c, 6, 69, 0
8, 17088, Note_on_c, 6, 69, 96
8, 17130, Note_off_c, 6, 69, 0
8, 17136, Note_on_c, 6, 76, 96
8, 17178, Note_off_c, 6, 76, 0
8, 17184, Note_on_c, 6, 81, 96
8, 17226, Note_off_c, 6, 81, 0
8, 17232, Note_on_c, 6, 79, 96
8, 17242, Note_off_c, 6, 79, 0
8, 17244, Note_on_c, 6, 77, 96
8, 17254, Note_off_c, 6, 77, 0
8, 17256, Note_on_c, 6, 79, 96
8, 17266, Note_off_c, 6, 79, 0
8, 17268, Note_on_c, 6, 77, 96
8, 17278, Note_off_c, 6, 77, 0
8, 17280, Note_on_c, 6, 76, 96
8, 17301, Note_off_c, 6, 76, 0
8, 17304, Note_on_c, 6, 77, 96
8, 17325, Note_off_c, 6, 77, 0
8, 17328, Note_on_c, 6, 74, 96
8, 17370, Note_off_c, 6, 74, 0
8, 17424, Note_on_c, 6, 74, 96
8, 17466, Note_off_c, 6, 74, 0
8, 17472, Note_on_c, 6, 76, 96
8, 17482, Note_off_c, 6, 76, 0
8, 17484, Note_on_c, 6, 77, 96
8, 17494, Note_off_c, 6, 77, 0
8, 17496, Note_on_c, 6, 79, 96
8, 17517, Note_off_c, 6, 79, 0
8, 17520, Note_on_c, 6, 77, 96
8, 17541, Note_off_c, 6, 77, 0
8, 17544, Note_on_c, 6, 76, 96
8, 17565, Note_off_c, 6, 76, 0
8, 17568, Note_on_c, 6, 74, 96
8, 17589, Note_off_c, 6, 74, 0
8, 17592, Note_on_c, 6, 76, 96
8, 17613, Note_off_c, 6, 76, 0
8, 17616, Note_on_c, 6, 72, 96
8, 17658, Note_off_c, 6, 72, 0
8, 17712, Note_on_c, 6, 77, 96
8, 17733, Note_off_c, 6, 77, 0
8, 17736, Note_on_c, 6, 76, 96
8, 17757, Note_off_c, 6, 76, 0
8, 17760, Note_on_c, 6, 76, 96
8, 17781, Note_off_c, 6, 76, 0
8, 17784, Note_on_c, 6, 74, 96
8, 17805, Note_off_c, 6, 74, 0
8, 17808, Note_on_c, 6, 74, 96
8, 17829, Note_off_c, 6, 74, 0
8, 17832, Note_on_c, 6, 71, 96
8, 17853, Note_off_c, 6, 71, 0
8, 17856, Note_on_c, 6, 68, 96
8, 17877, Note_off_c, 6, 68, 0
8, 17880, Note_on_c, 6, 77, 96
8, 17901, Note_off_c, 6, 77, 0
8, 17904, Note_on_c, 6, 76, 96
8, 17925, Note_off_c, 6, 76, 0
8, 17928, Note_on_c, 6, 74, 96
8, 17949, Note_off_c, 6, 74, 0
8, 17952, Note_on_c, 6, 76, 96
8, 17973, Note_off_c, 6, 76, 0
8, 17976, Note_on_c, 6, 69, 96
8, 17997, Note_off_c, 6, 69, 0
8, 18000, Note_on_c, 6, 68, 96
8, 18063, Note_off_c, 6, 68, 0
8, 18072, Note_on_c, 6, 69, 96
8, 18093, Note_off_c, 6, 69, 0
8, 18096, Note_on_c, 6, 69, 96
8, 18180, Note_off_c, 6, 69, 0
8, 20016, Note_on_c, 6, 72, 96
8, 20058, Note_off_c, 6, 72, 0
8, 20064, Note_on_c, 6, 72, 96
8, 20106, Note_off_c, 6, 72, 0
8, 20112, Note_on_c, 6, 72, 96
8, 20133, Note_off_c, 6, 72, 0
8, 20136, Note_on_c, 6, 75, 96
8, 20157, Note_off_c, 6, 75, 0
8, 20160, Note_on_c, 6, 74, 96
8, 20181, Note_off_c, 6, 74, 0
8, 20184, Note_on_c, 6, 72, 96
8, 20205, Note_off_c, 6, 72, 0
8, 20208, Note_on_c, 6, 70, 96
8, 20229, Note_off_c, 6, 70, 0
8, 20232, Note_on_c, 6, 69, 96
8, 20253, Note_off_c, 6, 69, 0
8, 20256, Note_on_c, 6, 70, 96
8, 20298, Note_off_c, 6, 70, 0
8, 20304, Note_on_c, 6, 69, 96
8, 20325, Note_off_c, 6, 69, 0
8, 20328, Note_on_c, 6, 67, 96
8, 20349, Note_off_c, 6, 67, 0
8, 20352, Note_on_c, 6, 70, 96
8, 20421, Note_off_c, 6, 70, 0
8, 20424, Note_on_c, 6, 72, 96
8, 20434, Note_off_c, 6, 72, 0
8, 20436, Note_on_c, 6, 74, 96
8, 20446, Note_off_c, 6, 74, 0
8, 20448, Note_on_c, 6, 72, 96
8, 20469, Note_off_c, 6, 72, 0
8, 20472, Note_on_c, 6, 70, 96
8, 20493, Note_off_c, 6, 70, 0
8, 20496, Note_on_c, 6, 69, 96
8, 20517, Note_off_c, 6, 69, 0
8, 20520, Note_on_c, 6, 70, 96
8, 20541, Note_off_c, 6, 70, 0
8, 20544, Note_on_c, 6, 70, 96
8, 20554, Note_off_c, 6, 70, 0
8, 20556, Note_on_c, 6, 69, 96
8, 20566, Note_off_c, 6, 69, 0
8, 20568, Note_on_c, 6, 70, 96
8, 20578, Note_off_c, 6, 70, 0
8, 20580, Note_on_c, 6, 69, 96
8, 20590, Note_off_c, 6, 69, 0
8, 20592, Note_on_c, 6, 67, 96
8, 20613, Note_off_c, 6, 67, 0
8, 20616, Note_on_c, 6, 69, 96
8, 20637, Note_off_c, 6, 69, 0
8, 20640, Note_on_c, 6, 65, 96
8, 20682, Note_off_c, 6, 65, 0
8, 20736, Note_on_c, 6, 77, 96
8, 20778, Note_off_c, 6, 77, 0
8, 20784, Note_on_c, 6, 77, 96
8, 20826, Note_off_c, 6, 77, 0
8, 20832, Note_on_c, 6, 77, 96
8, 20853, Note_off_c, 6, 77, 0
8, 20856, Note_on_c, 6, 80, 96
8, 20877, Note_off_c, 6, 80, 0
8, 20880, Note_on_c, 6, 79, 96
8, 20901, Note_off_c, 6, 79, 0
8, 20904, Note_on_c, 6, 77, 96
8, 20925, Note_off_c, 6, 77, 0
8, 20928, Note_on_c, 6, 75, 96
8, 20949, Note_off_c, 6, 75, 0
8, 20952, Note_on_c, 6, 74, 96
8, 20973, Note_off_c, 6, 74, 0
8, 20976, Note_on_c, 6, 75, 96
8, 21018, Note_off_c, 6, 75, 0
8, 21024, Note_on_c, 6, 74, 96
8, 21045, Note_off_c, 6, 74, 0
8, 21048, Note_on_c, 6, 72, 96
8, 21069, Note_off_c, 6, 72, 0
8, 21072, Note_on_c, 6, 75, 96
8, 21141, Note_off_c, 6, 75, 0
8, 21144, Note_on_c, 6, 77, 96
8, 21154, Note_off_c, 6, 77, 0
8, 21156, Note_on_c, 6, 79, 96
8, 21166, Note_off_c, 6, 79, 0
8, 21168, Note_on_c, 6, 77, 96
8, 21189, Note_off_c, 6, 77, 0
8, 21192, Note_on_c, 6, 75, 96
8, 21213, Note_off_c, 6, 75, 0
8, 21216, Note_on_c, 6, 74, 96
8, 21237, Note_off_c, 6, 74, 0
8, 21240, Note_on_c, 6, 75, 96
8, 21261, Note_off_c, 6, 75, 0
8, 21264, Note_on_c, 6, 75, 96
8, 21274, Note_off_c, 6, 75, 0
8, 21276, Note_on_c, 6, 74, 96
8, 21286, Note_off_c, 6, 74, 0
8, 21288, Note_on_c, 6, 75, 96
8, 21298, Note_off_c, 6, 75, 0
8, 21300, Note_on_c, 6, 74, 96
8, 21310, Note_off_c, 6, 74, 0
8, 21312, Note_on_c, 6, 72, 96
8, 21333, Note_off_c, 6, 72, 0
8, 21336, Note_on_c, 6, 74, 96
8, 21357, Note_off_c, 6, 74, 0
8, 21360, Note_on_c, 6, 70, 96
8, 21402, Note_off_c, 6, 70, 0
8, 21456, Note_on_c, 6, 75, 96
8, 21477, Note_off_c, 6, 75, 0
8, 21480, Note_on_c, 6, 74, 96
8, 21501, Note_off_c, 6, 74, 0
8, 21504, Note_on_c, 6, 74, 96
8, 21525, Note_off_c, 6, 74, 0
8, 21528, Note_on_c, 6, 72, 96
8, 21549, Note_off_c, 6, 72, 0
8, 21552, Note_on_c, 6, 72, 96
8, 21573, Note_off_c, 6, 72, 0
8, 21576, Note_on_c, 6, 70, 96
8, 21597, Note_off_c, 6, 70, 0
8, 21600, Note_on_c, 6, 70, 96
8, 21621, Note_off_c, 6, 70, 0
8, 21624, Note_on_c, 6, 69, 96
8, 21645, Note_off_c, 6, 69, 0
8, 21648, Note_on_c, 6, 69, 96
8, 21669, Note_off_c, 6, 69, 0
8, 21672, Note_on_c, 6, 74, 96
8, 21693, Note_off_c, 6, 74, 0
8, 21696, Note_on_c, 6, 74, 96
8, 21717, Note_off_c, 6, 74, 0
8, 21720, Note_on_c, 6, 72, 96
8, 21741, Note_off_c, 6, 72, 0
8, 21744, Note_on_c, 6, 72, 96
8, 21765, Note_off_c, 6, 72, 0
8, 21768, Note_on_c, 6, 69, 96
8, 21789, Note_off_c, 6, 69, 0
8, 21792, Note_on_c, 6, 70, 96
8, 21813, Note_off_c, 6, 70, 0
8, 21816, Note_on_c, 6, 67, 96
8, 21837, Note_off_c, 6, 67, 0
8, 21840, Note_on_c, 6, 66, 96
8, 21882, Note_off_c, 6, 66, 0
8, 21888, Note_on_c, 6, 69, 96
8, 21909, Note_off_c, 6, 69, 0
8, 21912, Note_on_c, 6, 70, 96
8, 21933, Note_off_c, 6, 70, 0
8, 21936, Note_on_c, 6, 72, 96
8, 21946, Note_off_c, 6, 72, 0
8, 21948, Note_on_c, 6, 70, 96
8, 21958, Note_off_c, 6, 70, 0
8, 21960, Note_on_c, 6, 72, 96
8, 21970, Note_off_c, 6, 72, 0
8, 21972, Note_on_c, 6, 70, 96
8, 21982, Note_off_c, 6, 70, 0
8, 21984, Note_on_c, 6, 72, 96
8, 22047, Note_off_c, 6, 72, 0
8, 22056, Note_on_c, 6, 74, 96
8, 22066, Note_off_c, 6, 74, 0
8, 22068, Note_on_c, 6, 75, 96
8, 22078, Note_off_c, 6, 75, 0
8, 22080, Note_on_c, 6, 74, 96
8, 22101, Note_off_c, 6, 74, 0
8, 22104, Note_on_c, 6, 72, 96
8, 22125, Note_off_c, 6, 72, 0
8, 22128, Note_on_c, 6, 70, 96
8, 22149, Note_off_c, 6, 70, 0
8, 22152, Note_on_c, 6, 69, 96
8, 22173, Note_off_c, 6, 69, 0
8, 22176, Note_on_c, 6, 72, 96
8, 22197, Note_off_c, 6, 72, 0
8, 22200, Note_on_c, 6, 70, 96
8, 22221, Note_off_c, 6, 70, 0
8, 22224, Note_on_c, 6, 69, 96
8, 22245, Note_off_c, 6, 69, 0
8, 22248, Note_on_c, 6, 67, 96
8, 22269, Note_off_c, 6, 67, 0
8, 22272, Note_on_c, 6, 75, 96
8, 22293, Note_off_c, 6, 75, 0
8, 22296, Note_on_c, 6, 67, 96
8, 22317, Note_off_c, 6, 67, 0
8, 22320, Note_on_c, 6, 60, 96
8, 22341, Note_off_c, 6, 60, 0
8, 22344, Note_on_c, 6, 67, 96
8, 22365, Note_off_c, 6, 67, 0
8, 22368, Note_on_c, 6, 75, 96
8, 22410, Note_off_c, 6, 75, 0
8, 22464, Note_on_c, 6, 69, 96
8, 22485, Note_off_c, 6, 69, 0
8, 22488, Note_on_c, 6, 70, 96
8, 22509, Note_off_c, 6, 70, 0
8, 22512, Note_on_c, 6, 70, 96
8, 22533, Note_off_c, 6, 70, 0
8, 22536, Note_on_c, 6, 72, 96
8, 22557, Note_off_c, 6, 72, 0
8, 22560, Note_on_c, 6, 66, 96
8, 22581, Note_off_c, 6, 66, 0
8, 22584, Note_on_c, 6, 69, 96
8, 22605, Note_off_c, 6, 69, 0
8, 22608, Note_on_c, 6, 72, 96
8, 22629, Note_off_c, 6, 72, 0
8, 22632, Note_on_c, 6, 75, 96
8, 22653, Note_off_c, 6, 75, 0
8, 22656, Note_on_c, 6, 74, 96
8, 22725, Note_off_c, 6, 74, 0
8, 22728, Note_on_c, 6, 72, 96
8, 22749, Note_off_c, 6, 72, 0
8, 22752, Note_on_c, 6, 72, 96
8, 22762, Note_off_c, 6, 72, 0
8, 22764, Note_on_c, 6, 70, 96
8, 22774, Note_off_c, 6, 70, 0
8, 22776, Note_on_c, 6, 72, 96
8, 22786, Note_off_c, 6, 72, 0
8, 22788, Note_on_c, 6, 70, 96
8, 22798, Note_off_c, 6, 70, 0
8, 22800, Note_on_c, 6, 69, 96
8, 22821, Note_off_c, 6, 69, 0
8, 22824, Note_on_c, 6, 67, 96
8, 22845, Note_off_c, 6, 67, 0
8, 22848, Note_on_c, 6, 67, 96
8, 22890, Note_off_c, 6, 67, 0
8, 22896, Note_on_c, 6, 74, 96
8, 22938, Note_off_c, 6, 74, 0
8, 22944, Note_on_c, 6, 79, 96
8, 22986, Note_off_c, 6, 79, 0
8, 22992, Note_on_c, 6, 77, 96
8, 23002, Note_off_c, 6, 77, 0
8, 23004, Note_on_c, 6, 75, 96
8, 23014, Note_off_c, 6, 75, 0
8, 23016, Note_on_c, 6, 77, 96
8, 23026, Note_off_c, 6, 77, 0
8, 23028, Note_on_c, 6, 75, 96
8, 23038, Note_off_c, 6, 75, 0
8, 23040, Note_on_c, 6, 74, 96
8, 23061, Note_off_c, 6, 74, 0
8, 23064, Note_on_c, 6, 75, 96
8, 23085, Note_off_c, 6, 75, 0
8, 23088, Note_on_c, 6, 72, 96
8, 23130, Note_off_c, 6, 72, 0
8, 23184, Note_on_c, 6, 72, 96
8, 23226, Note_off_c, 6, 72, 0
8, 23232, Note_on_c, 6, 74, 96
8, 23253, Note_off_c, 6, 74, 0
8, 23256, Note_on_c, 6, 75, 96
8, 23266, Note_off_c, 6, 75, 0
8, 23268, Note_on_c, 6, 77, 96
8, 23278, Note_off_c, 6, 77, 0
8, 23280, Note_on_c, 6, 76, 96
8, 23301, Note_off_c, 6, 76, 0
8, 23304, Note_on_c, 6, 74, 96
8, 23325, Note_off_c, 6, 74, 0
8, 23328, Note_on_c, 6, 72, 96
8, 23349, Note_off_c, 6, 72, 0
8, 23352, Note_on_c, 6, 74, 96
8, 23373, Note_off_c, 6, 74, 0
8, 23376, Note_on_c, 6, 70, 96
8, 23418, Note_off_c, 6, 70, 0
8, 23424, Tempo, 1500000
8, 23472, Note_on_c, 6, 77, 96
8, 23514, Note_off_c, 6, 77, 0
8, 23520, Note_on_c, 6, 68, 96
8, 23562, Note_off_c, 6, 68, 0
8, 23568, Note_on_c, 6, 67, 96
8, 23616, Time_signature, 2, 2, 96, 8
8, 23631, Note_off_c, 6, 67, 0
8, 23640, Note_on_c, 6, 75, 96
8, 23661, Note_off_c, 6, 75, 0
8, 23664, Note_on_c, 6, 74, 96
8, 23722, Note_off_c, 6, 74, 0
8, 23724, Note_on_c, 6, 75, 96
8, 23734, Note_off_c, 6, 75, 0
8, 23736, Note_on_c, 6, 77, 96
8, 23757, Note_off_c, 6, 77, 0
8, 23760, Note_on_c, 6, 69, 96
8, 23808, Time_signature, 6, 2, 96, 8
8, 23823, Note_off_c, 6, 69, 0
8, 23832, Note_on_c, 6, 70, 96
8, 23853, Note_off_c, 6, 70, 0
8, 23856, Note_on_c, 6, 70, 96
8, 23904, Tempo, 600000
8, 23946, Note_off_c, 6, 70, 0
8, 24048, Note_on_c, 6, 65, 127
8, 24090, Note_off_c, 6, 65, 0
8, 24096, Note_on_c, 6, 65, 127
8, 24138, Note_off_c, 6, 65, 0
8, 24144, Note_on_c, 6, 65, 127
8, 24186, Note_off_c, 6, 65, 0
8, 24192, Note_on_c, 6, 69, 127
8, 24213, Note_off_c, 6, 69, 0
8, 24216, Note_on_c, 6, 67, 127
8, 24237, Note_off_c, 6, 67, 0
8, 24240, Note_on_c, 6, 69, 127
8, 24261, Note_off_c, 6, 69, 0
8, 24264, Note_on_c, 6, 65, 127
8, 24285, Note_off_c, 6, 65, 0
8, 24288, Note_on_c, 6, 72, 127
8, 24330, Note_off_c, 6, 72, 0
8, 24336, Note_on_c, 6, 72, 127
8, 24378, Note_off_c, 6, 72, 0
8, 24384, Note_on_c, 6, 72, 127
8, 24426, Note_off_c, 6, 72, 0
8, 24432, Note_on_c, 6, 72, 127
8, 24474, Note_off_c, 6, 72, 0
8, 24480, Note_on_c, 6, 76, 127
8, 24501, Note_off_c, 6, 76, 0
8, 24504, Note_on_c, 6, 74, 127
8, 24525, Note_off_c, 6, 74, 0
8, 24528, Note_on_c, 6, 76, 127
8, 24549, Note_off_c, 6, 76, 0
8, 24552, Note_on_c, 6, 72, 127
8, 24573, Note_off_c, 6, 72, 0
8, 24576, Note_on_c, 6, 60, 127
8, 24576, Note_on_c, 6, 69, 127
8, 24576, Note_on_c, 6, 77, 127
8, 24618, Note_off_c, 6, 60, 0
8, 24618, Note_off_c, 6, 69, 0
8, 24618, Note_off_c, 6, 77, 0
8, 24624, Note_on_c, 6, 76, 127
8, 24645, Note_off_c, 6, 76, 0
8, 24648, Note_on_c, 6, 74, 127
8, 24669, Note_off_c, 6, 74, 0
8, 24672, Note_on_c, 6, 72, 127
8, 24693, Note_off_c, 6, 72, 0
8, 24696, Note_on_c, 6, 70, 127
8, 24717, Note_off_c, 6, 70, 0
8, 24720, Note_on_c, 6, 69, 127
8, 24741, Note_off_c, 6, 69, 0
8, 24744, Note_on_c, 6, 70, 127
8, 24765, Note_off_c, 6, 70, 0
8, 24768, Note_on_c, 6, 72, 127
8, 24778, Note_off_c, 6, 72, 0
8, 24780, Note_on_c, 6, 70, 127
8, 24790, Note_off_c, 6, 70, 0
8, 24792, Note_on_c, 6, 72, 127
8, 24802, Note_off_c, 6, 72, 0
8, 24804, Note_on_c, 6, 70, 127
8, 24814, Note_off_c, 6, 70, 0
8, 24816, Note_on_c, 6, 72, 127
8, 24826, Note_off_c, 6, 72, 0
8, 24828, Note_on_c, 6, 70, 127
8, 24838, Note_off_c, 6, 70, 0
8, 24840, Note_on_c, 6, 69, 127
8, 24850, Note_off_c, 6, 69, 0
8, 24852, Note_on_c, 6, 70, 127
8, 24862, Note_off_c, 6, 70, 0
8, 24864, Note_on_c, 6, 72, 127
8, 24885, Note_off_c, 6, 72, 0
8, 24888, Note_on_c, 6, 69, 127
8, 24909, Note_off_c, 6, 69, 0
8, 24912, Note_on_c, 6, 67, 127
8, 24922, Note_off_c, 6, 67, 0
8, 24924, Note_on_c, 6, 65, 127
8, 24934, Note_off_c, 6, 65, 0
8, 24936, Note_on_c, 6, 67, 127
8, 24946, Note_off_c, 6, 67, 0
8, 24948, Note_on_c, 6, 65, 127
8, 24958, Note_off_c, 6, 65, 0
8, 24960, Note_on_c, 6, 67, 127
8, 24970, Note_off_c, 6, 67, 0
8, 24972, Note_on_c, 6, 65, 127
8, 24982, Note_off_c, 6, 65, 0
8, 24984, Note_on_c, 6, 70, 127
8, 24994, Note_off_c, 6, 70, 0
8, 24996, Note_on_c, 6, 69, 127
8, 25006, Note_off_c, 6, 69, 0
8, 25008, Note_on_c, 6, 60, 127
8, 25008, Note_on_c, 6, 67, 127
8, 25092, Note_off_c, 6, 60, 0
8, 25092, Note_off_c, 6, 67, 0
8, 25200, Note_on_c, 6, 65, 127
8, 25242, Note_off_c, 6, 65, 0
8, 25248, Note_on_c, 6, 65, 127
8, 25290, Note_off_c, 6, 65, 0
8, 25296, Note_on_c, 6, 65, 127
8, 25338, Note_off_c, 6, 65, 0
8, 25344, Note_on_c, 6, 69, 127
8, 25365, Note_off_c, 6, 69, 0
8, 25368, Note_on_c, 6, 67, 127
8, 25389, Note_off_c, 6, 67, 0
8, 25392, Note_on_c, 6, 69, 127
8, 25413, Note_off_c, 6, 69, 0
8, 25416, Note_on_c, 6, 65, 127
8, 25437, Note_off_c, 6, 65, 0
8, 25440, Note_on_c, 6, 72, 127
8, 25482, Note_off_c, 6, 72, 0
8, 25488, Note_on_c, 6, 72, 127
8, 25530, Note_off_c, 6, 72, 0
8, 25536, Note_on_c, 6, 72, 127
8, 25578, Note_off_c, 6, 72, 0
8, 25584, Note_on_c, 6, 72, 127
8, 25626, Note_off_c, 6, 72, 0
8, 25632, Note_on_c, 6, 76, 127
8, 25653, Note_off_c, 6, 76, 0
8, 25656, Note_on_c, 6, 74, 127
8, 25677, Note_off_c, 6, 74, 0
8, 25680, Note_on_c, 6, 76, 127
8, 25701, Note_off_c, 6, 76, 0
8, 25704, Note_on_c, 6, 72, 127
8, 25725, Note_off_c, 6, 72, 0
8, 25728, Note_on_c, 6, 77, 127
8, 25770, Note_off_c, 6, 77, 0
8, 25776, Note_on_c, 6, 62, 127
8, 25776, Note_on_c, 6, 69, 127
8, 25776, Note_on_c, 6, 77, 127
8, 25818, Note_off_c, 6, 62, 0
8, 25818, Note_off_c, 6, 69, 0
8, 25818, Note_off_c, 6, 77, 0
8, 25824, Note_on_c, 6, 62, 127
8, 25824, Note_on_c, 6, 69, 127
8, 25824, Note_on_c, 6, 77, 127
8, 25866, Note_off_c, 6, 62, 0
8, 25866, Note_off_c, 6, 69, 0
8, 25866, Note_off_c, 6, 77, 0
8, 25872, Note_on_c, 6, 60, 127
8, 25872, Note_on_c, 6, 69, 127
8, 25872, Note_on_c, 6, 77, 127
8, 25914, Note_off_c, 6, 60, 0
8, 25914, Note_off_c, 6, 69, 0
8, 25914, Note_off_c, 6, 77, 0
8, 25920, Note_on_c, 6, 79, 127
8, 25941, Note_off_c, 6, 79, 0
8, 25944, Note_on_c, 6, 77, 127
8, 25965, Note_off_c, 6, 77, 0
8, 25968, Note_on_c, 6, 76, 127
8, 25989, Note_off_c, 6, 76, 0
8, 25992, Note_on_c, 6, 74, 127
8, 26013, Note_off_c, 6, 74, 0
8, 26016, Note_on_c, 6, 76, 127
8, 26037, Note_off_c, 6, 76, 0
8, 26040, Note_on_c, 6, 77, 127
8, 26061, Note_off_c, 6, 77, 0
8, 26064, Note_on_c, 6, 79, 127
8, 26074, Note_off_c, 6, 79, 0
8, 26076, Note_on_c, 6, 77, 127
8, 26086, Note_off_c, 6, 77, 0
8, 26088, Note_on_c, 6, 79, 127
8, 26098, Note_off_c, 6, 79, 0
8, 26100, Note_on_c, 6, 77, 127
8, 26110, Note_off_c, 6, 77, 0
8, 26112, Note_on_c, 6, 79, 127
8, 26122, Note_off_c, 6, 79, 0
8, 26124, Note_on_c, 6, 77, 127
8, 26134, Note_off_c, 6, 77, 0
8, 26136, Note_on_c, 6, 76, 127
8, 26146, Note_off_c, 6, 76, 0
8, 26148, Note_on_c, 6, 77, 127
8, 26158, Note_off_c, 6, 77, 0
8, 26160, Note_on_c, 6, 79, 127
8, 26202, Note_off_c, 6, 79, 0
8, 26352, Note_on_c, 6, 81, 127
8, 26352, Note_on_c, 6, 65, 127
8, 26352, Note_on_c, 6, 72, 127
8, 26394, Note_off_c, 6, 81, 0
8, 26394, Note_off_c, 6, 65, 0
8, 26394, Note_off_c, 6, 72, 0
8, 26400, Note_on_c, 6, 81, 127
8, 26400, Note_on_c, 6, 65, 127
8, 26400, Note_on_c, 6, 72, 127
8, 26442, Note_off_c, 6, 81, 0
8, 26442, Note_off_c, 6, 65, 0
8, 26442, Note_off_c, 6, 72, 0
8, 26448, Note_on_c, 6, 81, 127
8, 26448, Note_on_c, 6, 70, 127
8, 26448, Note_on_c, 6, 74, 127
8, 26469, Note_off_c, 6, 81, 0
8, 26472, Note_on_c, 6, 79, 127
8, 26490, Note_off_c, 6, 70, 0
8, 26490, Note_off_c, 6, 74, 0
8, 26493, Note_off_c, 6, 79, 0
8, 26496, Note_on_c, 6, 77, 127
8, 26517, Note_off_c, 6, 77, 0
8, 26520, Note_on_c, 6, 76, 127
8, 26541, Note_off_c, 6, 76, 0
8, 26544, Note_on_c, 6, 77, 127
8, 26565, Note_off_c, 6, 77, 0
8, 26568, Note_on_c, 6, 74, 127
8, 26589, Note_off_c, 6, 74, 0
8, 26592, Note_on_c, 6, 79, 127
8, 26634, Note_off_c, 6, 79, 0
8, 26640, Note_on_c, 6, 79, 127
8, 26640, Note_on_c, 6, 70, 127
8, 26640, Note_on_c, 6, 74, 127
8, 26682, Note_off_c, 6, 79, 0
8, 26682, Note_off_c, 6, 70, 0
8, 26682, Note_off_c, 6, 74, 0
8, 26688, Note_on_c, 6, 79, 127
8, 26688, Note_on_c, 6, 70, 127
8, 26688, Note_on_c, 6, 74, 127
8, 26730, Note_off_c, 6, 79, 0
8, 26730, Note_off_c, 6, 70, 0
8, 26730, Note_off_c, 6, 74, 0
8, 26736, Note_on_c, 6, 79, 127
8, 26736, Note_on_c, 6, 69, 127
8, 26736, Note_on_c, 6, 72, 127
8, 26757, Note_off_c, 6, 79, 0
8, 26760, Note_on_c, 6, 77, 127
8, 26778, Note_off_c, 6, 69, 0
8, 26778, Note_off_c, 6, 72, 0
8, 26781, Note_off_c, 6, 77, 0
8, 26784, Note_on_c, 6, 76, 127
8, 26805, Note_off_c, 6, 76, 0
8, 26808, Note_on_c, 6, 74, 127
8, 26829, Note_off_c, 6, 74, 0
8, 26832, Note_on_c, 6, 76, 127
8, 26853, Note_off_c, 6, 76, 0
8, 26856, Note_on_c, 6, 72, 127
8, 26877, Note_off_c, 6, 72, 0
8, 26880, Note_on_c, 6, 77, 127
8, 26922, Note_off_c, 6, 77, 0
8, 26928, Note_on_c, 6, 77, 127
8, 26928, Note_on_c, 6, 62, 127
8, 26928, Note_on_c, 6, 69, 127
8, 26970, Note_off_c, 6, 77, 0
8, 26970, Note_off_c, 6, 62, 0
8, 26970, Note_off_c, 6, 69, 0
8, 26976, Note_on_c, 6, 77, 127
8, 26976, Note_on_c, 6, 62, 127
8, 26976, Note_on_c, 6, 69, 127
8, 27018, Note_off_c, 6, 77, 0
8, 27018, Note_off_c, 6, 62, 0
8, 27018, Note_off_c, 6, 69, 0
8, 27024, Note_on_c, 6, 77, 127
8, 27024, Note_on_c, 6, 58, 127
8, 27024, Note_on_c, 6, 67, 127
8, 27045, Note_off_c, 6, 77, 0
8, 27048, Note_on_c, 6, 76, 127
8, 27066, Note_off_c, 6, 58, 0
8, 27066, Note_off_c, 6, 67, 0
8, 27069, Note_off_c, 6, 76, 0
8, 27072, Note_on_c, 6, 74, 127
8, 27093, Note_off_c, 6, 74, 0
8, 27096, Note_on_c, 6, 72, 127
8, 27117, Note_off_c, 6, 72, 0
8, 27120, Note_on_c, 6, 74, 127
8, 27141, Note_off_c, 6, 74, 0
8, 27144, Note_on_c, 6, 70, 127
8, 27165, Note_off_c, 6, 70, 0
8, 27168, Note_on_c, 6, 76, 127
8, 27189, Note_off_c, 6, 76, 0
8, 27192, Note_on_c, 6, 77, 127
8, 27213, Note_off_c, 6, 77, 0
8, 27216, Note_on_c, 6, 76, 127
8, 27237, Note_off_c, 6, 76, 0
8, 27240, Note_on_c, 6, 74, 127
8, 27261, Note_off_c, 6, 74, 0
8, 27264, Note_on_c, 6, 76, 127
8, 27285, Note_off_c, 6, 76, 0
8, 27288, Note_on_c, 6, 72, 127
8, 27309, Note_off_c, 6, 72, 0
8, 27312, Note_on_c, 6, 77, 127
8, 27333, Note_off_c, 6, 77, 0
8, 27336, Note_on_c, 6, 76, 127
8, 27357, Note_off_c, 6, 76, 0
8, 27360, Note_on_c, 6, 77, 127
8, 27381, Note_off_c, 6, 77, 0
8, 27384, Note_on_c, 6, 79, 127
8, 27405, Note_off_c, 6, 79, 0
8, 27408, Note_on_c, 6, 81, 127
8, 27429, Note_off_c, 6, 81, 0
8, 27432, Note_on_c, 6, 77, 127
8, 27453, Note_off_c, 6, 77, 0
8, 27456, Note_on_c, 6, 82, 127
8, 27498, Note_off_c, 6, 82, 0
8, 27504, Note_on_c, 6, 82, 127
8, 27546, Note_off_c, 6, 82, 0
8, 27552, Note_on_c, 6, 82, 127
8, 27594, Note_off_c, 6, 82, 0
8, 27600, Note_on_c, 6, 82, 127
8, 27621, Note_off_c, 6, 82, 0
8, 27624, Note_on_c, 6, 84, 127
8, 27645, Note_off_c, 6, 84, 0
8, 27648, Note_on_c, 6, 82, 127
8, 27669, Note_off_c, 6, 82, 0
8, 27672, Note_on_c, 6, 81, 127
8, 27693, Note_off_c, 6, 81, 0
8, 27696, Note_on_c, 6, 82, 127
8, 27717, Note_off_c, 6, 82, 0
8, 27720, Note_on_c, 6, 79, 127
8, 27741, Note_off_c, 6, 79, 0
8, 27744, Note_on_c, 6, 81, 127
8, 27765, Note_off_c, 6, 81, 0
8, 27768, Note_on_c, 6, 79, 127
8, 27789, Note_off_c, 6, 79, 0
8, 27792, Note_on_c, 6, 81, 127
8, 27813, Note_off_c, 6, 81, 0
8, 27816, Note_on_c, 6, 84, 127
8, 27837, Note_off_c, 6, 84, 0
8, 27840, Note_on_c, 6, 83, 127
8, 27861, Note_off_c, 6, 83, 0
8, 27864, Note_on_c, 6, 86, 127
8, 27885, Note_off_c, 6, 86, 0
8, 27888, Note_on_c, 6, 84, 127
8, 27930, Note_off_c, 6, 84, 0
8, 27936, Note_on_c, 6, 72, 127
8, 27936, Note_on_c, 6, 72, 127
8, 27978, Note_off_c, 6, 72, 0
8, 27978, Note_off_c, 6, 72, 0
8, 27984, Note_on_c, 6, 72, 127
8, 27984, Note_on_c, 6, 72, 127
8, 28026, Note_off_c, 6, 72, 0
8, 28026, Note_off_c, 6, 72, 0
8, 28032, Note_on_c, 6, 72, 127
8, 28032, Note_on_c, 6, 72, 127
8, 28053, Note_off_c, 6, 72, 0
8, 28053, Note_off_c, 6, 72, 0
8, 28056, Note_on_c, 6, 74, 127
8, 28077, Note_off_c, 6, 74, 0
8, 28080, Note_on_c, 6, 72, 127
8, 28101, Note_off_c, 6, 72, 0
8, 28104, Note_on_c, 6, 70, 127
8, 28125, Note_off_c, 6, 70, 0
8, 28128, Note_on_c, 6, 72, 127
8, 28149, Note_off_c, 6, 72, 0
8, 28152, Note_on_c, 6, 69, 127
8, 28173, Note_off_c, 6, 69, 0
8, 28176, Note_on_c, 6, 74, 127
8, 28218, Note_off_c, 6, 74, 0
8, 28224, Note_on_c, 6, 74, 127
8, 28224, Note_on_c, 6, 58, 127
8, 28224, Note_on_c, 6, 65, 127
8, 28266, Note_off_c, 6, 74, 0
8, 28266, Note_off_c, 6, 58, 0
8, 28266, Note_off_c, 6, 65, 0
8, 28272, Note_on_c, 6, 74, 127
8, 28272, Note_on_c, 6, 58, 127
8, 28272, Note_on_c, 6, 65, 127
8, 28314, Note_off_c, 6, 74, 0
8, 28314, Note_off_c, 6, 58, 0
8, 28314, Note_off_c, 6, 65, 0
8, 28320, Note_on_c, 6, 74, 127
8, 28320, Note_on_c, 6, 58, 127
8, 28320, Note_on_c, 6, 67, 127
8, 28362, Note_off_c, 6, 74, 0
8, 28362, Note_off_c, 6, 58, 0
8, 28362, Note_off_c, 6, 67, 0
8, 28368, Note_on_c, 6, 79, 127
8, 28389, Note_off_c, 6, 79, 0
8, 28392, Note_on_c, 6, 77, 127
8, 28413, Note_off_c, 6, 77, 0
8, 28416, Note_on_c, 6, 79, 127
8, 28437, Note_off_c, 6, 79, 0
8, 28440, Note_on_c, 6, 74, 127
8, 28461, Note_off_c, 6, 74, 0
8, 28464, Note_on_c, 6, 76, 127
8, 28506, Note_off_c, 6, 76, 0
8, 28512, Note_on_c, 6, 76, 127
8, 28512, Note_on_c, 6, 60, 127
8, 28512, Note_on_c, 6, 67, 127
8, 28554, Note_off_c, 6, 76, 0
8, 28554, Note_off_c, 6, 60, 0
8, 28554, Note_off_c, 6, 67, 0
8, 28560, Note_on_c, 6, 76, 127
8, 28560, Note_on_c, 6, 60, 127
8, 28560, Note_on_c, 6, 67, 127
8, 28602, Note_off_c, 6, 76, 0
8, 28602, Note_off_c, 6, 60, 0
8, 28602, Note_off_c, 6, 67, 0
8, 28608, Note_on_c, 6, 76, 127
8, 28608, Note_on_c, 6, 60, 127
8, 28608, Note_on_c, 6, 69, 127
8, 28650, Note_off_c, 6, 76, 0
8, 28650, Note_off_c, 6, 60, 0
8, 28650, Note_off_c, 6, 69, 0
8, 28656, Note_on_c, 6, 81, 127
8, 28677, Note_off_c, 6, 81, 0
8, 28680, Note_on_c, 6, 79, 127
8, 28701, Note_off_c, 6, 79, 0
8, 28704, Note_on_c, 6, 81, 127
8, 28725, Note_off_c, 6, 81, 0
8, 28728, Note_on_c, 6, 76, 127
8, 28749, Note_off_c, 6, 76, 0
8, 28752, Note_on_c, 6, 77, 127
8, 28794, Note_off_c, 6, 77, 0
8, 28800, Note_on_c, 6, 77, 127
8, 28800, Note_on_c, 6, 62, 127
8, 28800, Note_on_c, 6, 69, 127
8, 28842, Note_off_c, 6, 77, 0
8, 28842, Note_off_c, 6, 62, 0
8, 28842, Note_off_c, 6, 69, 0
8, 28848, Note_on_c, 6, 77, 127
8, 28848, Note_on_c, 6, 62, 127
8, 28848, Note_on_c, 6, 69, 127
8, 28890, Note_off_c, 6, 77, 0
8, 28890, Note_off_c, 6, 62, 0
8, 28890, Note_off_c, 6, 69, 0
8, 28896, Note_on_c, 6, 77, 127
8, 28896, Note_on_c, 6, 62, 127
8, 28896, Note_on_c, 6, 71, 127
8, 28938, Note_off_c, 6, 77, 0
8, 28938, Note_off_c, 6, 62, 0
8, 28938, Note_off_c, 6, 71, 0
8, 28944, Note_on_c, 6, 79, 127
8, 28965, Note_off_c, 6, 79, 0
8, 28968, Note_on_c, 6, 77, 127
8, 28989, Note_off_c, 6, 77, 0
8, 28992, Note_on_c, 6, 76, 127
8, 29013, Note_off_c, 6, 76, 0
8, 29016, Note_on_c, 6, 74, 127
8, 29037, Note_off_c, 6, 74, 0
8, 29040, Note_on_c, 6, 76, 127
8, 29061, Note_off_c, 6, 76, 0
8, 29064, Note_on_c, 6, 77, 127
8, 29085, Note_off_c, 6, 77, 0
8, 29088, Note_on_c, 6, 76, 127
8, 29109, Note_off_c, 6, 76, 0
8, 29112, Note_on_c, 6, 74, 127
8, 29133, Note_off_c, 6, 74, 0
8, 29136, Note_on_c, 6, 72, 127
8, 29157, Note_off_c, 6, 72, 0
8, 29160, Note_on_c, 6, 74, 127
8, 29181, Note_off_c, 6, 74, 0
8, 29184, Note_on_c, 6, 76, 127
8, 29205, Note_off_c, 6, 76, 0
8, 29208, Note_on_c, 6, 77, 127
8, 29229, Note_off_c, 6, 77, 0
8, 29232, Note_on_c, 6, 79, 127
8, 29253, Note_off_c, 6, 79, 0
8, 29256, Note_on_c, 6, 77, 127
8, 29277, Note_off_c, 6, 77, 0
8, 29280, Note_on_c, 6, 79, 127
8, 29301, Note_off_c, 6, 79, 0
8, 29304, Note_on_c, 6, 76, 127
8, 29325, Note_off_c, 6, 76, 0
8, 29328, Note_on_c, 6, 77, 127
8, 29370, Note_off_c, 6, 77, 0
8, 29376, Note_on_c, 6, 77, 127
8, 29386, Note_off_c, 6, 77, 0
8, 29388, Note_on_c, 6, 76, 127
8, 29398, Note_off_c, 6, 76, 0
8, 29400, Note_on_c, 6, 74, 127
8, 29421, Note_off_c, 6, 74, 0
8, 29424, Note_on_c, 6, 72, 127
8, 29466, Note_off_c, 6, 72, 0
8, 29520, Note_on_c, 6, 72, 127
8, 29562, Note_off_c, 6, 72, 0
8, 29568, Note_on_c, 6, 72, 127
8, 29610, Note_off_c, 6, 72, 0
8, 29616, Note_on_c, 6, 74, 127
8, 29626, Note_off_c, 6, 74, 0
8, 29628, Note_on_c, 6, 72, 127
8, 29638, Note_off_c, 6, 72, 0
8, 29640, Note_on_c, 6, 74, 127
8, 29650, Note_off_c, 6, 74, 0
8, 29652, Note_on_c, 6, 72, 127
8, 29662, Note_off_c, 6, 72, 0
8, 29664, Note_on_c, 6, 74, 127
8, 29674, Note_off_c, 6, 74, 0
8, 29676, Note_on_c, 6, 72, 127
8, 29686, Note_off_c, 6, 72, 0
8, 29688, Note_on_c, 6, 74, 127
8, 29698, Note_off_c, 6, 74, 0
8, 29700, Note_on_c, 6, 72, 127
8, 29710, Note_off_c, 6, 72, 0
8, 29712, Note_on_c, 6, 74, 127
8, 29722, Note_off_c, 6, 74, 0
8, 29724, Note_on_c, 6, 72, 127
8, 29734, Note_off_c, 6, 72, 0
8, 29736, Note_on_c, 6, 74, 127
8, 29746, Note_off_c, 6, 74, 0
8, 29748, Note_on_c, 6, 72, 127
8, 29781, Note_off_c, 6, 72, 0
8, 29784, Note_on_c, 6, 74, 127
8, 29805, Note_off_c, 6, 74, 0
8, 29808, Note_on_c, 6, 72, 127
8, 29829, Note_off_c, 6, 72, 0
8, 29832, Note_on_c, 6, 70, 127
8, 29853, Note_off_c, 6, 70, 0
8, 29856, Note_on_c, 6, 69, 127
8, 29877, Note_off_c, 6, 69, 0
8, 29880, Note_on_c, 6, 67, 127
8, 29901, Note_off_c, 6, 67, 0
8, 29904, Note_on_c, 6, 65, 127
8, 29946, Note_off_c, 6, 65, 0
8, 29952, Note_on_c, 6, 62, 127
8, 29952, Note_on_c, 6, 69, 127
8, 29952, Note_on_c, 6, 77, 127
8, 29994, Note_off_c, 6, 62, 0
8, 29994, Note_off_c, 6, 69, 0
8, 29994, Note_off_c, 6, 77, 0
8, 30000, Note_on_c, 6, 62, 127
8, 30000, Note_on_c, 6, 69, 127
8, 30000, Note_on_c, 6, 77, 127
8, 30042, Note_off_c, 6, 62, 0
8, 30042, Note_off_c, 6, 69, 0
8, 30042, Note_off_c, 6, 77, 0
8, 30048, Note_on_c, 6, 60, 127
8, 30048, Note_on_c, 6, 69, 127
8, 30048, Note_on_c, 6, 77, 127
8, 30090, Note_off_c, 6, 60, 0
8, 30090, Note_off_c, 6, 69, 0
8, 30090, Note_off_c, 6, 77, 0
8, 30096, Note_on_c, 6, 79, 127
8, 30117, Note_off_c, 6, 79, 0
8, 30120, Note_on_c, 6, 77, 127
8, 30141, Note_off_c, 6, 77, 0
8, 30144, Note_on_c, 6, 76, 127
8, 30165, Note_off_c, 6, 76, 0
8, 30168, Note_on_c, 6, 74, 127
8, 30189, Note_off_c, 6, 74, 0
8, 30192, Note_on_c, 6, 76, 127
8, 30234, Note_off_c, 6, 76, 0
8, 30240, Note_on_c, 6, 72, 127
8, 30282, Note_off_c, 6, 72, 0
8, 30288, Note_on_c, 6, 67, 127
8, 30357, Note_off_c, 6, 67, 0
8, 30360, Note_on_c, 6, 69, 127
8, 30381, Note_off_c, 6, 69, 0
8, 30384, Note_on_c, 6, 70, 127
8, 30394, Note_off_c, 6, 70, 0
8, 30396, Note_on_c, 6, 69, 127
8, 30406, Note_off_c, 6, 69, 0
8, 30408, Note_on_c, 6, 70, 127
8, 30418, Note_off_c, 6, 70, 0
8, 30420, Note_on_c, 6, 69, 127
8, 30430, Note_off_c, 6, 69, 0
8, 30432, Note_on_c, 6, 70, 127
8, 30442, Note_off_c, 6, 70, 0
8, 30444, Note_on_c, 6, 69, 127
8, 30454, Note_off_c, 6, 69, 0
8, 30456, Note_on_c, 6, 67, 127
8, 30466, Note_off_c, 6, 67, 0
8, 30468, Note_on_c, 6, 69, 127
8, 30478, Note_off_c, 6, 69, 0
8, 30480, Note_on_c, 6, 70, 127
8, 30501, Note_off_c, 6, 70, 0
8, 30504, Note_on_c, 6, 69, 127
8, 30525, Note_off_c, 6, 69, 0
8, 30528, Note_on_c, 6, 67, 127
8, 30549, Note_off_c, 6, 67, 0
8, 30552, Note_on_c, 6, 65, 127
8, 30573, Note_off_c, 6, 65, 0
8, 30576, Note_on_c, 6, 67, 127
8, 30597, Note_off_c, 6, 67, 0
8, 30600, Note_on_c, 6, 64, 127
8, 30621, Note_off_c, 6, 64, 0
8, 30624, Note_on_c, 6, 72, 127
8, 30645, Note_off_c, 6, 72, 0
8, 30648, Note_on_c, 6, 67, 127
8, 30669, Note_off_c, 6, 67, 0
8, 30672, Note_on_c, 6, 69, 127
8, 30693, Note_off_c, 6, 69, 0
8, 30696, Note_on_c, 6, 64, 127
8, 30717, Note_off_c, 6, 64, 0
8, 30720, Note_on_c, 6, 65, 127
8, 30741, Note_off_c, 6, 65, 0
8, 30744, Note_on_c, 6, 64, 127
8, 30765, Note_off_c, 6, 64, 0
8, 30768, Note_on_c, 6, 65, 127
8, 30789, Note_off_c, 6, 65, 0
8, 30792, Note_on_c, 6, 70, 127
8, 30813, Note_off_c, 6, 70, 0
8, 30816, Note_on_c, 6, 67, 127
8, 30816, Note_on_c, 6, 60, 127
8, 30879, Note_off_c, 6, 67, 0
8, 30888, Note_on_c, 6, 65, 127
8, 30900, Note_off_c, 6, 60, 0
8, 30909, Note_off_c, 6, 65, 0
8, 30912, Note_on_c, 6, 65, 127
8, 30954, Note_off_c, 6, 65, 0
8, 30960, Note_on_c, 6, 65, 127
8, 31002, Note_off_c, 6, 65, 0
8, 31008, Note_on_c, 6, 65, 127
8, 31050, Note_off_c, 6, 65, 0
8, 31056, Note_on_c, 6, 65, 127
8, 31098, Note_off_c, 6, 65, 0
8, 31104, Note_on_c, 6, 69, 127
8, 31125, Note_off_c, 6, 69, 0
8, 31128, Note_on_c, 6, 67, 127
8, 31149, Note_off_c, 6, 67, 0
8, 31152, Note_on_c, 6, 69, 127
8, 31173, Note_off_c, 6, 69, 0
8, 31176, Note_on_c, 6, 65, 127
8, 31197, Note_off_c, 6, 65, 0
8, 31200, Note_on_c, 6, 72, 127
8, 31242, Note_off_c, 6, 72, 0
8, 31248, Note_on_c, 6, 72, 127
8, 31290, Note_off_c, 6, 72, 0
8, 31296, Note_on_c, 6, 72, 127
8, 31338, Note_off_c, 6, 72, 0
8, 31344, Note_on_c, 6, 72, 127
8, 31386, Note_off_c, 6, 72, 0
8, 31392, Note_on_c, 6, 76, 127
8, 31413, Note_off_c, 6, 76, 0
8, 31416, Note_on_c, 6, 74, 127
8, 31437, Note_off_c, 6, 74, 0
8, 31440, Note_on_c, 6, 76, 127
8, 31461, Note_off_c, 6, 76, 0
8, 31464, Note_on_c, 6, 72, 127
8, 31485, Note_off_c, 6, 72, 0
8, 31488, Note_on_c, 6, 77, 127
8, 31530, Note_off_c, 6, 77, 0
8, 31536, Note_on_c, 6, 77, 127
8, 31578, Note_off_c, 6, 77, 0
8, 31584, Note_on_c, 6, 77, 127
8, 31626, Note_off_c, 6, 77, 0
8, 31632, Note_on_c, 6, 77, 127
8, 31674, Note_off_c, 6, 77, 0
8, 31680, Note_on_c, 6, 79, 127
8, 31701, Note_off_c, 6, 79, 0
8, 31704, Note_on_c, 6, 77, 127
8, 31725, Note_off_c, 6, 77, 0
8, 31728, Note_on_c, 6, 76, 127
8, 31749, Note_off_c, 6, 76, 0
8, 31752, Note_on_c, 6, 74, 127
8, 31773, Note_off_c, 6, 74, 0
8, 31776, Note_on_c, 6, 76, 127
8, 31797, Note_off_c, 6, 76, 0
8, 31800, Note_on_c, 6, 77, 127
8, 31821, Note_off_c, 6, 77, 0
8, 31824, Note_on_c, 6, 79, 127
8, 31834, Note_off_c, 6, 79, 0
8, 31836, Note_on_c, 6, 77, 127
8, 31846, Note_off_c, 6, 77, 0
8, 31848, Note_on_c, 6, 79, 127
8, 31858, Note_off_c, 6, 79, 0
8, 31860, Note_on_c, 6, 77, 127
8, 31870, Note_off_c, 6, 77, 0
8, 31872, Note_on_c, 6, 79, 127
8, 31882, Note_off_c, 6, 79, 0
8, 31884, Note_on_c, 6, 77, 127
8, 31894, Note_off_c, 6, 77, 0
8, 31896, Note_on_c, 6, 76, 127
8, 31906, Note_off_c, 6, 76, 0
8, 31908, Note_on_c, 6, 77, 127
8, 31918, Note_off_c, 6, 77, 0
8, 31920, Note_on_c, 6, 79, 127
8, 31962, Note_off_c, 6, 79, 0
8, 31968, Note_on_c, 6, 72, 127
8, 32010, Note_off_c, 6, 72, 0
8, 32016, Note_on_c, 6, 79, 127
8, 32058, Note_off_c, 6, 79, 0
8, 32064, Note_on_c, 6, 81, 127
8, 32085, Note_off_c, 6, 81, 0
8, 32088, Note_on_c, 6, 79, 127
8, 32109, Note_off_c, 6, 79, 0
8, 32112, Note_on_c, 6, 77, 127
8, 32133, Note_off_c, 6, 77, 0
8, 32136, Note_on_c, 6, 76, 127
8, 32157, Note_off_c, 6, 76, 0
8, 32160, Note_on_c, 6, 77, 127
8, 32181, Note_off_c, 6, 77, 0
8, 32184, Note_on_c, 6, 74, 127
8, 32205, Note_off_c, 6, 74, 0
8, 32208, Note_on_c, 6, 79, 127
8, 32229, Note_off_c, 6, 79, 0
8, 32232, Note_on_c, 6, 67, 127
8, 32253, Note_off_c, 6, 67, 0
8, 32256, Note_on_c, 6, 72, 127
8, 32277, Note_off_c, 6, 72, 0
8, 32280, Note_on_c, 6, 74, 127
8, 32301, Note_off_c, 6, 74, 0
8, 32304, Note_on_c, 6, 76, 127
8, 32325, Note_off_c, 6, 76, 0
8, 32328, Note_on_c, 6, 72, 127
8, 32349, Note_off_c, 6, 72, 0
8, 32352, Note_on_c, 6, 77, 127
8, 32373, Note_off_c, 6, 77, 0
8, 32376, Note_on_c, 6, 76, 127
8, 32397, Note_off_c, 6, 76, 0
8, 32400, Note_on_c, 6, 74, 127
8, 32421, Note_off_c, 6, 74, 0
8, 32424, Note_on_c, 6, 72, 127
8, 32445, Note_off_c, 6, 72, 0
8, 32448, Note_on_c, 6, 74, 127
8, 32469, Note_off_c, 6, 74, 0
8, 32472, Note_on_c, 6, 70, 127
8, 32493, Note_off_c, 6, 70, 0
8, 32496, Note_on_c, 6, 76, 127
8, 32517, Note_off_c, 6, 76, 0
8, 32520, Note_on_c, 6, 64, 127
8, 32541, Note_off_c, 6, 64, 0
8, 32544, Note_on_c, 6, 69, 127
8, 32565, Note_off_c, 6, 69, 0
8, 32568, Note_on_c, 6, 70, 127
8, 32589, Note_off_c, 6, 70, 0
8, 32592, Note_on_c, 6, 72, 127
8, 32613, Note_off_c, 6, 72, 0
8, 32616, Note_on_c, 6, 69, 127
8, 32637, Note_off_c, 6, 69, 0
8, 32640, Note_on_c, 6, 74, 127
8, 32661, Note_off_c, 6, 74, 0
8, 32664, Note_on_c, 6, 72, 127
8, 32685, Note_off_c, 6, 72, 0
8, 32688, Note_on_c, 6, 70, 127
8, 32709, Note_off_c, 6, 70, 0
8, 32712, Note_on_c, 6, 69, 127
8, 32733, Note_off_c, 6, 69, 0
8, 32736, Note_on_c, 6, 70, 127
8, 32757, Note_off_c, 6, 70, 0
8, 32760, Note_on_c, 6, 67, 127
8, 32781, Note_off_c, 6, 67, 0
8, 32784, Note_on_c, 6, 72, 127
8, 32805, Note_off_c, 6, 72, 0
8, 32808, Note_on_c, 6, 60, 127
8, 32829, Note_off_c, 6, 60, 0
8, 32832, Note_on_c, 6, 65, 127
8, 32853, Note_off_c, 6, 65, 0
8, 32856, Note_on_c, 6, 67, 127
8, 32877, Note_off_c, 6, 67, 0
8, 32880, Note_on_c, 6, 69, 127
8, 32901, Note_off_c, 6, 69, 0
8, 32904, Note_on_c, 6, 65, 127
8, 32925, Note_off_c, 6, 65, 0
8, 32928, Note_on_c, 6, 70, 127
8, 32970, Note_off_c, 6, 70, 0
8, 32976, Note_on_c, 6, 70, 127
8, 33018, Note_off_c, 6, 70, 0
8, 33024, Note_on_c, 6, 70, 127
8, 33066, Note_off_c, 6, 70, 0
8, 33072, Note_on_c, 6, 70, 127
8, 33093, Note_off_c, 6, 70, 0
8, 33096, Note_on_c, 6, 72, 127
8, 33117, Note_off_c, 6, 72, 0
8, 33120, Note_on_c, 6, 70, 127
8, 33141, Note_off_c, 6, 70, 0
8, 33144, Note_on_c, 6, 69, 127
8, 33165, Note_off_c, 6, 69, 0
8, 33168, Note_on_c, 6, 70, 127
8, 33189, Note_off_c, 6, 70, 0
8, 33192, Note_on_c, 6, 67, 127
8, 33213, Note_off_c, 6, 67, 0
8, 33216, Note_on_c, 6, 79, 127
8, 33258, Note_off_c, 6, 79, 0
8, 33264, Note_on_c, 6, 70, 127
8, 33306, Note_off_c, 6, 70, 0
8, 33312, Note_on_c, 6, 70, 127
8, 33354, Note_off_c, 6, 70, 0
8, 33360, Note_on_c, 6, 70, 127
8, 33402, Note_off_c, 6, 70, 0
8, 33408, Note_on_c, 6, 72, 127
8, 33429, Note_off_c, 6, 72, 0
8, 33432, Note_on_c, 6, 70, 127
8, 33453, Note_off_c, 6, 70, 0
8, 33456, Note_on_c, 6, 69, 127
8, 33477, Note_off_c, 6, 69, 0
8, 33480, Note_on_c, 6, 67, 127
8, 33501, Note_off_c, 6, 67, 0
8, 33504, Note_on_c, 6, 69, 127
8, 33546, Note_off_c, 6, 69, 0
8, 33552, Note_on_c, 6, 69, 127
8, 33594, Note_off_c, 6, 69, 0
8, 33600, Note_on_c, 6, 69, 127
8, 33642, Note_off_c, 6, 69, 0
8, 33648, Note_on_c, 6, 69, 127
8, 33669, Note_off_c, 6, 69, 0
8, 33672, Note_on_c, 6, 70, 127
8, 33693, Note_off_c, 6, 70, 0
8, 33696, Note_on_c, 6, 69, 127
8, 33717, Note_off_c, 6, 69, 0
8, 33720, Note_on_c, 6, 67, 127
8, 33741, Note_off_c, 6, 67, 0
8, 33744, Note_on_c, 6, 69, 127
8, 33765, Note_off_c, 6, 69, 0
8, 33768, Note_on_c, 6, 65, 127
8, 33789, Note_off_c, 6, 65, 0
8, 33792, Note_on_c, 6, 77, 127
8, 33834, Note_off_c, 6, 77, 0
8, 33840, Note_on_c, 6, 69, 127
8, 33882, Note_off_c, 6, 69, 0
8, 33888, Note_on_c, 6, 69, 127
8, 33930, Note_off_c, 6, 69, 0
8, 33936, Note_on_c, 6, 69, 127
8, 33978, Note_off_c, 6, 69, 0
8, 33984, Note_on_c, 6, 70, 127
8, 34005, Note_off_c, 6, 70, 0
8, 34008, Note_on_c, 6, 69, 127
8, 34029, Note_off_c, 6, 69, 0
8, 34032, Note_on_c, 6, 67, 127
8, 34053, Note_off_c, 6, 67, 0
8, 34056, Note_on_c, 6, 65, 127
8, 34077, Note_off_c, 6, 65, 0
8, 34080, Note_on_c, 6, 64, 127
8, 34101, Note_off_c, 6, 64, 0
8, 34104, Note_on_c, 6, 62, 127
8, 34125, Note_off_c, 6, 62, 0
8, 34128, Note_on_c, 6, 64, 127
8, 34149, Note_off_c, 6, 64, 0
8, 34152, Note_on_c, 6, 60, 127
8, 34173, Note_off_c, 6, 60, 0
8, 34176, Note_on_c, 6, 67, 127
8, 34197, Note_off_c, 6, 67, 0
8, 34200, Note_on_c, 6, 65, 127
8, 34221, Note_off_c, 6, 65, 0
8, 34224, Note_on_c, 6, 67, 127
8, 34245, Note_off_c, 6, 67, 0
8, 34248, Note_on_c, 6, 64, 127
8, 34269, Note_off_c, 6, 64, 0
8, 34272, Note_on_c, 6, 70, 127
8, 34293, Note_off_c, 6, 70, 0
8, 34296, Note_on_c, 6, 69, 127
8, 34317, Note_off_c, 6, 69, 0
8, 34320, Note_on_c, 6, 70, 127
8, 34341, Note_off_c, 6, 70, 0
8, 34344, Note_on_c, 6, 67, 127
8, 34365, Note_off_c, 6, 67, 0
8, 34368, Note_on_c, 6, 76, 127
8, 34389, Note_off_c, 6, 76, 0
8, 34392, Note_on_c, 6, 74, 127
8, 34413, Note_off_c, 6, 74, 0
8, 34416, Note_on_c, 6, 76, 127
8, 34437, Note_off_c, 6, 76, 0
8, 34440, Note_on_c, 6, 72, 127
8, 34461, Note_off_c, 6, 72, 0
8, 34464, Note_on_c, 6, 79, 127
8, 34485, Note_off_c, 6, 79, 0
8, 34488, Note_on_c, 6, 77, 127
8, 34509, Note_off_c, 6, 77, 0
8, 34512, Note_on_c, 6, 79, 127
8, 34533, Note_off_c, 6, 79, 0
8, 34536, Note_on_c, 6, 76, 127
8, 34557, Note_off_c, 6, 76, 0
8, 34560, Note_on_c, 6, 82, 127
8, 34581, Note_off_c, 6, 82, 0
8, 34584, Note_on_c, 6, 81, 127
8, 34605, Note_off_c, 6, 81, 0
8, 34608, Note_on_c, 6, 82, 127
8, 34629, Note_off_c, 6, 82, 0
8, 34632, Note_on_c, 6, 79, 127
8, 34653, Note_off_c, 6, 79, 0
8, 34656, Note_on_c, 6, 81, 127
8, 34677, Note_off_c, 6, 81, 0
8, 34680, Note_on_c, 6, 79, 127
8, 34701, Note_off_c, 6, 79, 0
8, 34704, Note_on_c, 6, 81, 127
8, 34725, Note_off_c, 6, 81, 0
8, 34728, Note_on_c, 6, 76, 127
8, 34749, Note_off_c, 6, 76, 0
8, 34752, Note_on_c, 6, 77, 127
8, 34773, Note_off_c, 6, 77, 0
8, 34776, Note_on_c, 6, 76, 127
8, 34797, Note_off_c, 6, 76, 0
8, 34800, Note_on_c, 6, 77, 127
8, 34821, Note_off_c, 6, 77, 0
8, 34824, Note_on_c, 6, 79, 127
8, 34845, Note_off_c, 6, 79, 0
8, 34848, Note_on_c, 6, 79, 127
8, 34911, Note_off_c, 6, 79, 0
8, 34920, Note_on_c, 6, 77, 127
8, 34941, Note_off_c, 6, 77, 0
8, 34944, Note_on_c, 6, 77, 127
8, 34965, Note_off_c, 6, 77, 0
8, 34968, Note_on_c, 6, 76, 127
8, 34989, Note_off_c, 6, 76, 0
8, 34992, Note_on_c, 6, 77, 127
8, 35013, Note_off_c, 6, 77, 0
8, 35016, Note_on_c, 6, 72, 127
8, 35037, Note_off_c, 6, 72, 0
8, 35040, Note_on_c, 6, 74, 127
8, 35061, Note_off_c, 6, 74, 0
8, 35064, Note_on_c, 6, 72, 127
8, 35085, Note_off_c, 6, 72, 0
8, 35088, Note_on_c, 6, 74, 127
8, 35109, Note_off_c, 6, 74, 0
8, 35112, Note_on_c, 6, 69, 127
8, 35133, Note_off_c, 6, 69, 0
8, 35136, Note_on_c, 6, 70, 127
8, 35157, Note_off_c, 6, 70, 0
8, 35160, Note_on_c, 6, 69, 127
8, 35181, Note_off_c, 6, 69, 0
8, 35184, Note_on_c, 6, 70, 127
8, 35205, Note_off_c, 6, 70, 0
8, 35208, Note_on_c, 6, 67, 127
8, 35229, Note_off_c, 6, 67, 0
8, 35232, Note_on_c, 6, 69, 127
8, 35253, Note_off_c, 6, 69, 0
8, 35256, Note_on_c, 6, 67, 127
8, 35277, Note_off_c, 6, 67, 0
8, 35280, Note_on_c, 6, 69, 127
8, 35301, Note_off_c, 6, 69, 0
8, 35304, Note_on_c, 6, 64, 127
8, 35325, Note_off_c, 6, 64, 0
8, 35328, Note_on_c, 6, 65, 127
8, 35349, Note_off_c, 6, 65, 0
8, 35352, Note_on_c, 6, 64, 127
8, 35373, Note_off_c, 6, 64, 0
8, 35376, Tempo, 750000
8, 35376, Note_on_c, 6, 65, 127
8, 35397, Note_off_c, 6, 65, 0
8, 35400, Note_on_c, 6, 67, 127
8, 35421, Note_off_c, 6, 67, 0
8, 35424, Note_on_c, 6, 67, 127
8, 35487, Note_off_c, 6, 67, 0
8, 35496, Note_on_c, 6, 65, 127
8, 35517, Note_off_c, 6, 65, 0
8, 35520, Note_on_c, 6, 65, 127
8, 35796, Note_off_c, 6, 65, 0
8, 35796, End_track
9, 0, Start_track
9, 0, Title_t, "Violin I"
9, 0, Control_c, 7, 0, 0
9, 0, Program_c, 7, 40
9, 0, Time_signature, 6, 2, 96, 8
9, 0, Tempo, 600000
9, 96, Tempo, 600000
9, 144, Note_on_c, 7, 65, 75
9, 186, Note_off_c, 7, 65, 0
9, 192, Note_on_c, 7, 65, 75
9, 234, Note_off_c, 7, 65, 0
9, 240, Note_on_c, 7, 65, 75
9, 282, Note_off_c, 7, 65, 0
9, 288, Note_on_c, 7, 69, 75
9, 309, Note_off_c, 7, 69, 0
9, 312, Note_on_c, 7, 67, 75
9, 333, Note_off_c, 7, 67, 0
9, 336, Note_on_c, 7, 69, 75
9, 357, Note_off_c, 7, 69, 0
9, 360, Note_on_c, 7, 65, 75
9, 381, Note_off_c, 7, 65, 0
9, 384, Note_on_c, 7, 72, 75
9, 426, Note_off_c, 7, 72, 0
9, 432, Note_on_c, 7, 72, 75
9, 474, Note_off_c, 7, 72, 0
9, 480, Note_on_c, 7, 72, 75
9, 522, Note_off_c, 7, 72, 0
9, 528, Note_on_c, 7, 72, 75
9, 570, Note_off_c, 7, 72, 0
9, 576, Note_on_c, 7, 76, 75
9, 597, Note_off_c, 7, 76, 0
9, 600, Note_on_c, 7, 74, 75
9, 621, Note_off_c, 7, 74, 0
9, 624, Note_on_c, 7, 76, 75
9, 645, Note_off_c, 7, 76, 0
9, 648, Note_on_c, 7, 72, 75
9, 669, Note_off_c, 7, 72, 0
9, 672, Note_on_c, 7, 77, 75
9, 714, Note_off_c, 7, 77, 0
9, 720, Note_on_c, 7, 77, 75
9, 762, Note_off_c, 7, 77, 0
9, 768, Note_on_c, 7, 77, 75
9, 810, Note_off_c, 7, 77, 0
9, 816, Note_on_c, 7, 77, 75
9, 858, Note_off_c, 7, 77, 0
9, 864, Note_on_c, 7, 79, 75
9, 885, Note_off_c, 7, 79, 0
9, 888, Note_on_c, 7, 77, 75
9, 909, Note_off_c, 7, 77, 0
9, 912, Note_on_c, 7, 76, 75
9, 933, Note_off_c, 7, 76, 0
9, 936, Note_on_c, 7, 74, 75
9, 957, Note_off_c, 7, 74, 0
9, 960, Note_on_c, 7, 76, 75
9, 981, Note_off_c, 7, 76, 0
9, 984, Note_on_c, 7, 77, 75
9, 1005, Note_off_c, 7, 77, 0
9, 1008, Note_on_c, 7, 79, 75
9, 1018, Note_off_c, 7, 79, 0
9, 1020, Note_on_c, 7, 77, 75
9, 1030, Note_off_c, 7, 77, 0
9, 1032, Note_on_c, 7, 79, 75
9, 1042, Note_off_c, 7, 79, 0
9, 1044, Note_on_c, 7, 77, 75
9, 1054, Note_off_c, 7, 77, 0
9, 1056, Note_on_c, 7, 79, 75
9, 1066, Note_off_c, 7, 79, 0
9, 1068, Note_on_c, 7, 77, 75
9, 1078, Note_off_c, 7, 77, 0
9, 1080, Note_on_c, 7, 76, 75
9, 1090, Note_off_c, 7, 76, 0
9, 1092, Note_on_c, 7, 77, 75
9, 1102, Note_off_c, 7, 77, 0
9, 1104, Note_on_c, 7, 79, 75
9, 1146, Note_off_c, 7, 79, 0
9, 1152, Note_on_c, 7, 72, 75
9, 1194, Note_off_c, 7, 72, 0
9, 1200, Note_on_c, 7, 79, 75
9, 1242, Note_off_c, 7, 79, 0
9, 1248, Note_on_c, 7, 81, 75
9, 1269, Note_off_c, 7, 81, 0
9, 1272, Note_on_c, 7, 79, 75
9, 1293, Note_off_c, 7, 79, 0
9, 1296, Note_on_c, 7, 77, 75
9, 1317, Note_off_c, 7, 77, 0
9, 1320, Note_on_c, 7, 76, 75
9, 1341, Note_off_c, 7, 76, 0
9, 1344, Note_on_c, 7, 77, 75
9, 1365, Note_off_c, 7, 77, 0
9, 1368, Note_on_c, 7, 74, 75
9, 1389, Note_off_c, 7, 74, 0
9, 1392, Note_on_c, 7, 79, 75
9, 1413, Note_off_c, 7, 79, 0
9, 1416, Note_on_c, 7, 67, 75
9, 1437, Note_off_c, 7, 67, 0
9, 1440, Note_on_c, 7, 72, 75
9, 1461, Note_off_c, 7, 72, 0
9, 1464, Note_on_c, 7, 74, 75
9, 1485, Note_off_c, 7, 74, 0
9, 1488, Note_on_c, 7, 76, 75
9, 1509, Note_off_c, 7, 76, 0
9, 1512, Note_on_c, 7, 72, 75
9, 1533, Note_off_c, 7, 72, 0
9, 1536, Note_on_c, 7, 77, 75
9, 1557, Note_off_c, 7, 77, 0
9, 1560, Note_on_c, 7, 76, 75
9, 1581, Note_off_c, 7, 76, 0
9, 1584, Note_on_c, 7, 74, 75
9, 1605, Note_off_c, 7, 74, 0
9, 1608, Note_on_c, 7, 72, 75
9, 1629, Note_off_c, 7, 72, 0
9, 1632, Note_on_c, 7, 74, 75
9, 1653, Note_off_c, 7, 74, 0
9, 1656, Note_on_c, 7, 70, 75
9, 1677, Note_off_c, 7, 70, 0
9, 1680, Note_on_c, 7, 76, 75
9, 1701, Note_off_c, 7, 76, 0
9, 1704, Note_on_c, 7, 64, 75
9, 1725, Note_off_c, 7, 64, 0
9, 1728, Note_on_c, 7, 69, 75
9, 1749, Note_off_c, 7, 69, 0
9, 1752, Note_on_c, 7, 70, 75
9, 1773, Note_off_c, 7, 70, 0
9, 1776, Note_on_c, 7, 72, 75
9, 1797, Note_off_c, 7, 72, 0
9, 1800, Note_on_c, 7, 69, 75
9, 1821, Note_off_c, 7, 69, 0
9, 1824, Note_on_c, 7, 74, 75
9, 1845, Note_off_c, 7, 74, 0
9, 1848, Note_on_c, 7, 72, 75
9, 1869, Note_off_c, 7, 72, 0
9, 1872, Note_on_c, 7, 70, 75
9, 1893, Note_off_c, 7, 70, 0
9, 1896, Note_on_c, 7, 69, 75
9, 1917, Note_off_c, 7, 69, 0
9, 1920, Note_on_c, 7, 70, 75
9, 1941, Note_off_c, 7, 70, 0
9, 1944, Note_on_c, 7, 67, 75
9, 1965, Note_off_c, 7, 67, 0
9, 1968, Note_on_c, 7, 72, 75
9, 1989, Note_off_c, 7, 72, 0
9, 1992, Note_on_c, 7, 60, 75
9, 2013, Note_off_c, 7, 60, 0
9, 2016, Note_on_c, 7, 65, 75
9, 2037, Note_off_c, 7, 65, 0
9, 2040, Note_on_c, 7, 67, 75
9, 2061, Note_off_c, 7, 67, 0
9, 2064, Note_on_c, 7, 69, 75
9, 2085, Note_off_c, 7, 69, 0
9, 2088, Note_on_c, 7, 65, 75
9, 2109, Note_off_c, 7, 65, 0
9, 2112, Note_on_c, 7, 70, 75
9, 2154, Note_off_c, 7, 70, 0
9, 2160, Note_on_c, 7, 70, 75
9, 2202, Note_off_c, 7, 70, 0
9, 2208, Note_on_c, 7, 70, 75
9, 2250, Note_off_c, 7, 70, 0
9, 2256, Note_on_c, 7, 70, 75
9, 2277, Note_off_c, 7, 70, 0
9, 2280, Note_on_c, 7, 72, 75
9, 2301, Note_off_c, 7, 72, 0
9, 2304, Note_on_c, 7, 70, 75
9, 2325, Note_off_c, 7, 70, 0
9, 2328, Note_on_c, 7, 69, 75
9, 2349, Note_off_c, 7, 69, 0
9, 2352, Note_on_c, 7, 70, 75
9, 2373, Note_off_c, 7, 70, 0
9, 2376, Note_on_c, 7, 67, 75
9, 2397, Note_off_c, 7, 67, 0
9, 2400, Note_on_c, 7, 79, 75
9, 2442, Note_off_c, 7, 79, 0
9, 2448, Note_on_c, 7, 70, 75
9, 2490, Note_off_c, 7, 70, 0
9, 2496, Note_on_c, 7, 70, 75
9, 2538, Note_off_c, 7, 70, 0
9, 2544, Note_on_c, 7, 70, 75
9, 2586, Note_off_c, 7, 70, 0
9, 2592, Note_on_c, 7, 72, 75
9, 2613, Note_off_c, 7, 72, 0
9, 2616, Note_on_c, 7, 70, 75
9, 2637, Note_off_c, 7, 70, 0
9, 2640, Note_on_c, 7, 69, 75
9, 2661, Note_off_c, 7, 69, 0
9, 2664, Note_on_c, 7, 67, 75
9, 2685, Note_off_c, 7, 67, 0
9, 2688, Note_on_c, 7, 69, 75
9, 2730, Note_off_c, 7, 69, 0
9, 2736, Note_on_c, 7, 69, 75
9, 2778, Note_off_c, 7, 69, 0
9, 2784, Note_on_c, 7, 69, 75
9, 2826, Note_off_c, 7, 69, 0
9, 2832, Note_on_c, 7, 69, 75
9, 2853, Note_off_c, 7, 69, 0
9, 2856, Note_on_c, 7, 70, 75
9, 2877, Note_off_c, 7, 70, 0
9, 2880, Note_on_c, 7, 69, 75
9, 2901, Note_off_c, 7, 69, 0
9, 2904, Note_on_c, 7, 67, 75
9, 2925, Note_off_c, 7, 67, 0
9, 2928, Note_on_c, 7, 69, 75
9, 2949, Note_off_c, 7, 69, 0
9, 2952, Note_on_c, 7, 65, 75
9, 2973, Note_off_c, 7, 65, 0
9, 2976, Note_on_c, 7, 77, 75
9, 3018, Note_off_c, 7, 77, 0
9, 3024, Note_on_c, 7, 69, 75
9, 3066, Note_off_c, 7, 69, 0
9, 3072, Note_on_c, 7, 69, 75
9, 3114, Note_off_c, 7, 69, 0
9, 3120, Note_on_c, 7, 69, 75
9, 3162, Note_off_c, 7, 69, 0
9, 3168, Note_on_c, 7, 70, 75
9, 3189, Note_off_c, 7, 70, 0
9, 3192, Note_on_c, 7, 69, 75
9, 3213, Note_off_c, 7, 69, 0
9, 3216, Note_on_c, 7, 67, 75
9, 3237, Note_off_c, 7, 67, 0
9, 3240, Note_on_c, 7, 65, 75
9, 3261, Note_off_c, 7, 65, 0
9, 3264, Note_on_c, 7, 64, 75
9, 3285, Note_off_c, 7, 64, 0
9, 3288, Note_on_c, 7, 62, 75
9, 3309, Note_off_c, 7, 62, 0
9, 3312, Note_on_c, 7, 64, 75
9, 3333, Note_off_c, 7, 64, 0
9, 3336, Note_on_c, 7, 60, 75
9, 3357, Note_off_c, 7, 60, 0
9, 3360, Note_on_c, 7, 67, 75
9, 3381, Note_off_c, 7, 67, 0
9, 3384, Note_on_c, 7, 65, 75
9, 3405, Note_off_c, 7, 65, 0
9, 3408, Note_on_c, 7, 67, 75
9, 3429, Note_off_c, 7, 67, 0
9, 3432, Note_on_c, 7, 64, 75
9, 3453, Note_off_c, 7, 64, 0
9, 3456, Note_on_c, 7, 70, 75
9, 3477, Note_off_c, 7, 70, 0
9, 3480, Note_on_c, 7, 69, 75
9, 3501, Note_off_c, 7, 69, 0
9, 3504, Note_on_c, 7, 70, 75
9, 3525, Note_off_c, 7, 70, 0
9, 3528, Note_on_c, 7, 67, 75
9, 3549, Note_off_c, 7, 67, 0
9, 3552, Note_on_c, 7, 76, 75
9, 3573, Note_off_c, 7, 76, 0
9, 3576, Note_on_c, 7, 74, 75
9, 3597, Note_off_c, 7, 74, 0
9, 3600, Note_on_c, 7, 76, 75
9, 3621, Note_off_c, 7, 76, 0
9, 3624, Note_on_c, 7, 72, 75
9, 3645, Note_off_c, 7, 72, 0
9, 3648, Note_on_c, 7, 79, 75
9, 3669, Note_off_c, 7, 79, 0
9, 3672, Note_on_c, 7, 77, 75
9, 3693, Note_off_c, 7, 77, 0
9, 3696, Note_on_c, 7, 79, 75
9, 3717, Note_off_c, 7, 79, 0
9, 3720, Note_on_c, 7, 76, 75
9, 3741, Note_off_c, 7, 76, 0
9, 3744, Note_on_c, 7, 82, 75
9, 3765, Note_off_c, 7, 82, 0
9, 3768, Note_on_c, 7, 81, 75
9, 3789, Note_off_c, 7, 81, 0
9, 3792, Note_on_c, 7, 82, 75
9, 3813, Note_off_c, 7, 82, 0
9, 3816, Note_on_c, 7, 79, 75
9, 3837, Note_off_c, 7, 79, 0
9, 3840, Note_on_c, 7, 81, 75
9, 3861, Note_off_c, 7, 81, 0
9, 3864, Note_on_c, 7, 79, 75
9, 3885, Note_off_c, 7, 79, 0
9, 3888, Note_on_c, 7, 81, 75
9, 3909, Note_off_c, 7, 81, 0
9, 3912, Note_on_c, 7, 76, 75
9, 3933, Note_off_c, 7, 76, 0
9, 3936, Note_on_c, 7, 77, 75
9, 3957, Note_off_c, 7, 77, 0
9, 3960, Note_on_c, 7, 76, 75
9, 3981, Note_off_c, 7, 76, 0
9, 3984, Note_on_c, 7, 77, 75
9, 4005, Note_off_c, 7, 77, 0
9, 4008, Note_on_c, 7, 79, 75
9, 4029, Note_off_c, 7, 79, 0
9, 4032, Note_on_c, 7, 79, 75
9, 4095, Note_off_c, 7, 79, 0
9, 4104, Note_on_c, 7, 77, 75
9, 4125, Note_off_c, 7, 77, 0
9, 4128, Note_on_c, 7, 77, 75
9, 4149, Note_off_c, 7, 77, 0
9, 4152, Note_on_c, 7, 76, 75
9, 4173, Note_off_c, 7, 76, 0
9, 4176, Note_on_c, 7, 77, 75
9, 4197, Note_off_c, 7, 77, 0
9, 4200, Note_on_c, 7, 72, 75
9, 4221, Note_off_c, 7, 72, 0
9, 4224, Note_on_c, 7, 74, 75
9, 4245, Note_off_c, 7, 74, 0
9, 4248, Note_on_c, 7, 72, 75
9, 4269, Note_off_c, 7, 72, 0
9, 4272, Note_on_c, 7, 74, 75
9, 4293, Note_off_c, 7, 74, 0
9, 4296, Note_on_c, 7, 69, 75
9, 4317, Note_off_c, 7, 69, 0
9, 4320, Note_on_c, 7, 70, 75
9, 4341, Note_off_c, 7, 70, 0
9, 4344, Note_on_c, 7, 69, 75
9, 4365, Note_off_c, 7, 69, 0
9, 4368, Note_on_c, 7, 70, 75
9, 4389, Note_off_c, 7, 70, 0
9, 4392, Note_on_c, 7, 67, 75
9, 4413, Note_off_c, 7, 67, 0
9, 4416, Note_on_c, 7, 69, 75
9, 4437, Note_off_c, 7, 69, 0
9, 4440, Note_on_c, 7, 67, 75
9, 4461, Note_off_c, 7, 67, 0
9, 4464, Note_on_c, 7, 69, 75
9, 4485, Note_off_c, 7, 69, 0
9, 4488, Note_on_c, 7, 64, 75
9, 4509, Note_off_c, 7, 64, 0
9, 4512, Note_on_c, 7, 65, 75
9, 4533, Note_off_c, 7, 65, 0
9, 4536, Note_on_c, 7, 64, 75
9, 4557, Note_off_c, 7, 64, 0
9, 4560, Note_on_c, 7, 65, 75
9, 4581, Note_off_c, 7, 65, 0
9, 4584, Note_on_c, 7, 67, 75
9, 4605, Note_off_c, 7, 67, 0
9, 4608, Note_on_c, 7, 67, 75
9, 4671, Note_off_c, 7, 67, 0
9, 4680, Note_on_c, 7, 65, 75
9, 4701, Note_off_c, 7, 65, 0
9, 4704, Note_on_c, 7, 65, 75
9, 4746, Note_off_c, 7, 65, 0
9, 4752, Note_on_c, 7, 65, 75
9, 4794, Note_off_c, 7, 65, 0
9, 4800, Note_on_c, 7, 65, 75
9, 4842, Note_off_c, 7, 65, 0
9, 4848, Note_on_c, 7, 65, 75
9, 4890, Note_off_c, 7, 65, 0
9, 5040, Note_on_c, 7, 72, 75
9, 5082, Note_off_c, 7, 72, 0
9, 5088, Note_on_c, 7, 72, 75
9, 5130, Note_off_c, 7, 72, 0
9, 5136, Note_on_c, 7, 72, 75
9, 5178, Note_off_c, 7, 72, 0
9, 5280, Note_on_c, 7, 60, 75
9, 5280, Note_on_c, 7, 69, 75
9, 5322, Note_off_c, 7, 60, 0
9, 5322, Note_off_c, 7, 69, 0
9, 5904, Note_on_c, 7, 65, 75
9, 5946, Note_off_c, 7, 65, 0
9, 5952, Note_on_c, 7, 65, 75
9, 5994, Note_off_c, 7, 65, 0
9, 6000, Note_on_c, 7, 65, 75
9, 6042, Note_off_c, 7, 65, 0
9, 6048, Note_on_c, 7, 69, 75
9, 6069, Note_off_c, 7, 69, 0
9, 6072, Note_on_c, 7, 67, 75
9, 6093, Note_off_c, 7, 67, 0
9, 6096, Note_on_c, 7, 69, 75
9, 6117, Note_off_c, 7, 69, 0
9, 6120, Note_on_c, 7, 65, 75
9, 6141, Note_off_c, 7, 65, 0
9, 6144, Note_on_c, 7, 72, 75
9, 6186, Note_off_c, 7, 72, 0
9, 6192, Note_on_c, 7, 72, 75
9, 6234, Note_off_c, 7, 72, 0
9, 6240, Note_on_c, 7, 72, 75
9, 6282, Note_off_c, 7, 72, 0
9, 6288, Note_on_c, 7, 72, 75
9, 6330, Note_off_c, 7, 72, 0
9, 6336, Note_on_c, 7, 76, 75
9, 6357, Note_off_c, 7, 76, 0
9, 6360, Note_on_c, 7, 74, 75
9, 6381, Note_off_c, 7, 74, 0
9, 6384, Note_on_c, 7, 76, 75
9, 6405, Note_off_c, 7, 76, 0
9, 6408, Note_on_c, 7, 72, 75
9, 6429, Note_off_c, 7, 72, 0
9, 6432, Note_on_c, 7, 77, 75
9, 6474, Note_off_c, 7, 77, 0
9, 6480, Note_on_c, 7, 77, 75
9, 6522, Note_off_c, 7, 77, 0
9, 6528, Note_on_c, 7, 77, 75
9, 6570, Note_off_c, 7, 77, 0
9, 6576, Note_on_c, 7, 77, 75
9, 6618, Note_off_c, 7, 77, 0
9, 6624, Note_on_c, 7, 79, 75
9, 6645, Note_off_c, 7, 79, 0
9, 6648, Note_on_c, 7, 77, 75
9, 6669, Note_off_c, 7, 77, 0
9, 6672, Note_on_c, 7, 76, 75
9, 6693, Note_off_c, 7, 76, 0
9, 6696, Note_on_c, 7, 74, 75
9, 6717, Note_off_c, 7, 74, 0
9, 6720, Note_on_c, 7, 76, 75
9, 6741, Note_off_c, 7, 76, 0
9, 6744, Note_on_c, 7, 77, 75
9, 6765, Note_off_c, 7, 77, 0
9, 6768, Note_on_c, 7, 79, 75
9, 6778, Note_off_c, 7, 79, 0
9, 6780, Note_on_c, 7, 77, 75
9, 6790, Note_off_c, 7, 77, 0
9, 6792, Note_on_c, 7, 79, 75
9, 6802, Note_off_c, 7, 79, 0
9, 6804, Note_on_c, 7, 77, 75
9, 6814, Note_off_c, 7, 77, 0
9, 6816, Note_on_c, 7, 79, 75
9, 6826, Note_off_c, 7, 79, 0
9, 6828, Note_on_c, 7, 77, 75
9, 6838, Note_off_c, 7, 77, 0
9, 6840, Note_on_c, 7, 76, 75
9, 6850, Note_off_c, 7, 76, 0
9, 6852, Note_on_c, 7, 77, 75
9, 6862, Note_off_c, 7, 77, 0
9, 6864, Note_on_c, 7, 79, 75
9, 6906, Note_off_c, 7, 79, 0
9, 6912, Note_on_c, 7, 72, 75
9, 6954, Note_off_c, 7, 72, 0
9, 6960, Note_on_c, 7, 76, 75
9, 7002, Note_off_c, 7, 76, 0
9, 7008, Note_on_c, 7, 76, 75
9, 7029, Note_off_c, 7, 76, 0
9, 7032, Note_on_c, 7, 74, 75
9, 7053, Note_off_c, 7, 74, 0
9, 7056, Note_on_c, 7, 72, 75
9, 7077, Note_off_c, 7, 72, 0
9, 7080, Note_on_c, 7, 71, 75
9, 7101, Note_off_c, 7, 71, 0
9, 7104, Note_on_c, 7, 72, 75
9, 7125, Note_off_c, 7, 72, 0
9, 7128, Note_on_c, 7, 69, 75
9, 7149, Note_off_c, 7, 69, 0
9, 7152, Note_on_c, 7, 74, 75
9, 7194, Note_off_c, 7, 74, 0
9, 7200, Note_on_c, 7, 74, 75
9, 7242, Note_off_c, 7, 74, 0
9, 7248, Note_on_c, 7, 74, 75
9, 7290, Note_off_c, 7, 74, 0
9, 7296, Note_on_c, 7, 74, 75
9, 7317, Note_off_c, 7, 74, 0
9, 7320, Note_on_c, 7, 72, 75
9, 7341, Note_off_c, 7, 72, 0
9, 7344, Note_on_c, 7, 71, 75
9, 7365, Note_off_c, 7, 71, 0
9, 7368, Note_on_c, 7, 69, 75
9, 7389, Note_off_c, 7, 69, 0
9, 7392, Note_on_c, 7, 71, 75
9, 7413, Note_off_c, 7, 71, 0
9, 7416, Note_on_c, 7, 67, 75
9, 7437, Note_off_c, 7, 67, 0
9, 7440, Note_on_c, 7, 72, 75
9, 7482, Note_off_c, 7, 72, 0
9, 7488, Note_on_c, 7, 72, 75
9, 7530, Note_off_c, 7, 72, 0
9, 7536, Note_on_c, 7, 72, 75
9, 7578, Note_off_c, 7, 72, 0
9, 7584, Note_on_c, 7, 72, 75
9, 7605, Note_off_c, 7, 72, 0
9, 7608, Note_on_c, 7, 71, 75
9, 7629, Note_off_c, 7, 71, 0
9, 7632, Note_on_c, 7, 69, 75
9, 7653, Note_off_c, 7, 69, 0
9, 7656, Note_on_c, 7, 67, 75
9, 7677, Note_off_c, 7, 67, 0
9, 7680, Note_on_c, 7, 69, 75
9, 7701, Note_off_c, 7, 69, 0
9, 7704, Note_on_c, 7, 65, 75
9, 7725, Note_off_c, 7, 65, 0
9, 7728, Note_on_c, 7, 71, 75
9, 7749, Note_off_c, 7, 71, 0
9, 7752, Note_on_c, 7, 72, 75
9, 7773, Note_off_c, 7, 72, 0
9, 7776, Note_on_c, 7, 71, 75
9, 7797, Note_off_c, 7, 71, 0
9, 7800, Note_on_c, 7, 69, 75
9, 7821, Note_off_c, 7, 69, 0
9, 7824, Note_on_c, 7, 71, 75
9, 7845, Note_off_c, 7, 71, 0
9, 7848, Note_on_c, 7, 67, 75
9, 7869, Note_off_c, 7, 67, 0
9, 7872, Note_on_c, 7, 72, 75
9, 7893, Note_off_c, 7, 72, 0
9, 7896, Note_on_c, 7, 71, 75
9, 7917, Note_off_c, 7, 71, 0
9, 7920, Note_on_c, 7, 72, 75
9, 7941, Note_off_c, 7, 72, 0
9, 7944, Note_on_c, 7, 74, 75
9, 7965, Note_off_c, 7, 74, 0
9, 7968, Note_on_c, 7, 76, 75
9, 7989, Note_off_c, 7, 76, 0
9, 7992, Note_on_c, 7, 72, 75
9, 8013, Note_off_c, 7, 72, 0
9, 8016, Note_on_c, 7, 77, 75
9, 8058, Note_off_c, 7, 77, 0
9, 8064, Note_on_c, 7, 77, 75
9, 8106, Note_off_c, 7, 77, 0
9, 8112, Note_on_c, 7, 77, 75
9, 8154, Note_off_c, 7, 77, 0
9, 8160, Note_on_c, 7, 77, 75
9, 8181, Note_off_c, 7, 77, 0
9, 8184, Note_on_c, 7, 79, 75
9, 8205, Note_off_c, 7, 79, 0
9, 8208, Note_on_c, 7, 77, 75
9, 8229, Note_off_c, 7, 77, 0
9, 8232, Note_on_c, 7, 76, 75
9, 8253, Note_off_c, 7, 76, 0
9, 8256, Note_on_c, 7, 77, 75
9, 8277, Note_off_c, 7, 77, 0
9, 8280, Note_on_c, 7, 74, 75
9, 8301, Note_off_c, 7, 74, 0
9, 8304, Note_on_c, 7, 76, 75
9, 8325, Note_off_c, 7, 76, 0
9, 8328, Note_on_c, 7, 74, 75
9, 8349, Note_off_c, 7, 74, 0
9, 8352, Note_on_c, 7, 76, 75
9, 8373, Note_off_c, 7, 76, 0
9, 8376, Note_on_c, 7, 79, 75
9, 8397, Note_off_c, 7, 79, 0
9, 8400, Note_on_c, 7, 78, 75
9, 8421, Note_off_c, 7, 78, 0
9, 8424, Note_on_c, 7, 81, 75
9, 8445, Note_off_c, 7, 81, 0
9, 8448, Note_on_c, 7, 79, 75
9, 8490, Note_off_c, 7, 79, 0
9, 8496, Note_on_c, 7, 67, 75
9, 8538, Note_off_c, 7, 67, 0
9, 9936, Note_on_c, 7, 72, 75
9, 9978, Note_off_c, 7, 72, 0
9, 9984, Note_on_c, 7, 72, 75
9, 10026, Note_off_c, 7, 72, 0
9, 10032, Note_on_c, 7, 72, 75
9, 10074, Note_off_c, 7, 72, 0
9, 10080, Note_on_c, 7, 76, 75
9, 10101, Note_off_c, 7, 76, 0
9, 10104, Note_on_c, 7, 74, 75
9, 10125, Note_off_c, 7, 74, 0
9, 10128, Note_on_c, 7, 76, 75
9, 10149, Note_off_c, 7, 76, 0
9, 10152, Note_on_c, 7, 72, 75
9, 10173, Note_off_c, 7, 72, 0
9, 10176, Note_on_c, 7, 79, 75
9, 10218, Note_off_c, 7, 79, 0
9, 10224, Note_on_c, 7, 79, 75
9, 10266, Note_off_c, 7, 79, 0
9, 10272, Note_on_c, 7, 79, 75
9, 10314, Note_off_c, 7, 79, 0
9, 10320, Note_on_c, 7, 79, 75
9, 10362, Note_off_c, 7, 79, 0
9, 10368, Note_on_c, 7, 83, 75
9, 10389, Note_off_c, 7, 83, 0
9, 10392, Note_on_c, 7, 81, 75
9, 10413, Note_off_c, 7, 81, 0
9, 10416, Note_on_c, 7, 83, 75
9, 10437, Note_off_c, 7, 83, 0
9, 10440, Note_on_c, 7, 79, 75
9, 10461, Note_off_c, 7, 79, 0
9, 10464, Note_on_c, 7, 84, 75
9, 10506, Note_off_c, 7, 84, 0
9, 10512, Note_on_c, 7, 84, 75
9, 10554, Note_off_c, 7, 84, 0
9, 10560, Note_on_c, 7, 84, 75
9, 10602, Note_off_c, 7, 84, 0
9, 10608, Note_on_c, 7, 84, 75
9, 10650, Note_off_c, 7, 84, 0
9, 10656, Note_on_c, 7, 86, 75
9, 10677, Note_off_c, 7, 86, 0
9, 10680, Note_on_c, 7, 84, 75
9, 10701, Note_off_c, 7, 84, 0
9, 10704, Note_on_c, 7, 83, 75
9, 10725, Note_off_c, 7, 83, 0
9, 10728, Note_on_c, 7, 81, 75
9, 10749, Note_off_c, 7, 81, 0
9, 10752, Note_on_c, 7, 83, 75
9, 10773, Note_off_c, 7, 83, 0
9, 10776, Note_on_c, 7, 84, 75
9, 10797, Note_off_c, 7, 84, 0
9, 10800, Note_on_c, 7, 86, 75
9, 10810, Note_off_c, 7, 86, 0
9, 10812, Note_on_c, 7, 84, 75
9, 10822, Note_off_c, 7, 84, 0
9, 10824, Note_on_c, 7, 86, 75
9, 10834, Note_off_c, 7, 86, 0
9, 10836, Note_on_c, 7, 84, 75
9, 10846, Note_off_c, 7, 84, 0
9, 10848, Note_on_c, 7, 86, 75
9, 10858, Note_off_c, 7, 86, 0
9, 10860, Note_on_c, 7, 84, 75
9, 10870, Note_off_c, 7, 84, 0
9, 10872, Note_on_c, 7, 83, 75
9, 10882, Note_off_c, 7, 83, 0
9, 10884, Note_on_c, 7, 84, 75
9, 10894, Note_off_c, 7, 84, 0
9, 10896, Note_on_c, 7, 86, 75
9, 10938, Note_off_c, 7, 86, 0
9, 10944, Note_on_c, 7, 79, 75
9, 10986, Note_off_c, 7, 79, 0
9, 11496, Note_on_c, 7, 67, 127
9, 11517, Note_off_c, 7, 67, 0
9, 11520, Note_on_c, 7, 72, 127
9, 11541, Note_off_c, 7, 72, 0
9, 11544, Note_on_c, 7, 76, 127
9, 11565, Note_off_c, 7, 76, 0
9, 11568, Note_on_c, 7, 74, 127
9, 11589, Note_off_c, 7, 74, 0
9, 11592, Note_on_c, 7, 77, 127
9, 11613, Note_off_c, 7, 77, 0
9, 11616, Note_on_c, 7, 76, 127
9, 11637, Note_off_c, 7, 76, 0
9, 11640, Note_on_c, 7, 74, 127
9, 11661, Note_off_c, 7, 74, 0
9, 11664, Note_on_c, 7, 72, 127
9, 11685, Note_off_c, 7, 72, 0
9, 11688, Note_on_c, 7, 71, 127
9, 11709, Note_off_c, 7, 71, 0
9, 11712, Note_on_c, 7, 72, 127
9, 11733, Note_off_c, 7, 72, 0
9, 11736, Note_on_c, 7, 69, 127
9, 11757, Note_off_c, 7, 69, 0
9, 11760, Note_on_c, 7, 74, 127
9, 11781, Note_off_c, 7, 74, 0
9, 11784, Note_on_c, 7, 62, 127
9, 11805, Note_off_c, 7, 62, 0
9, 11808, Note_on_c, 7, 67, 127
9, 11829, Note_off_c, 7, 67, 0
9, 11832, Note_on_c, 7, 69, 127
9, 11853, Note_off_c, 7, 69, 0
9, 11856, Note_on_c, 7, 71, 127
9, 11877, Note_off_c, 7, 71, 0
9, 11880, Note_on_c, 7, 67, 127
9, 11901, Note_off_c, 7, 67, 0
9, 11904, Note_on_c, 7, 72, 127
9, 11925, Note_off_c, 7, 72, 0
9, 11928, Note_on_c, 7, 71, 127
9, 11949, Note_off_c, 7, 71, 0
9, 11952, Note_on_c, 7, 69, 127
9, 11973, Note_off_c, 7, 69, 0
9, 11976, Note_on_c, 7, 67, 127
9, 11997, Note_off_c, 7, 67, 0
9, 12000, Note_on_c, 7, 69, 127
9, 12021, Note_off_c, 7, 69, 0
9, 12024, Note_on_c, 7, 65, 127
9, 12045, Note_off_c, 7, 65, 0
9, 12048, Note_on_c, 7, 71, 127
9, 12069, Note_off_c, 7, 71, 0
9, 12072, Note_on_c, 7, 59, 127
9, 12093, Note_off_c, 7, 59, 0
9, 12096, Note_on_c, 7, 64, 127
9, 12117, Note_off_c, 7, 64, 0
9, 12120, Note_on_c, 7, 65, 127
9, 12141, Note_off_c, 7, 65, 0
9, 12144, Note_on_c, 7, 67, 127
9, 12165, Note_off_c, 7, 67, 0
9, 12168, Note_on_c, 7, 64, 127
9, 12189, Note_off_c, 7, 64, 0
9, 12192, Note_on_c, 7, 69, 127
9, 12213, Note_off_c, 7, 69, 0
9, 12216, Note_on_c, 7, 67, 127
9, 12237, Note_off_c, 7, 67, 0
9, 12240, Note_on_c, 7, 65, 127
9, 12261, Note_off_c, 7, 65, 0
9, 12264, Note_on_c, 7, 64, 127
9, 12285, Note_off_c, 7, 64, 0
9, 12288, Note_on_c, 7, 65, 127
9, 12309, Note_off_c, 7, 65, 0
9, 12312, Note_on_c, 7, 62, 127
9, 12333, Note_off_c, 7, 62, 0
9, 12336, Note_on_c, 7, 67, 127
9, 12357, Note_off_c, 7, 67, 0
9, 12360, Note_on_c, 7, 55, 127
9, 12381, Note_off_c, 7, 55, 0
9, 12384, Note_on_c, 7, 60, 127
9, 12405, Note_off_c, 7, 60, 0
9, 12408, Note_on_c, 7, 62, 127
9, 12429, Note_off_c, 7, 62, 0
9, 12432, Note_on_c, 7, 64, 127
9, 12453, Note_off_c, 7, 64, 0
9, 12456, Note_on_c, 7, 60, 127
9, 12477, Note_off_c, 7, 60, 0
9, 12480, Note_on_c, 7, 65, 127
9, 12522, Note_off_c, 7, 65, 0
9, 12528, Note_on_c, 7, 65, 127
9, 12570, Note_off_c, 7, 65, 0
9, 12576, Note_on_c, 7, 65, 127
9, 12618, Note_off_c, 7, 65, 0
9, 12624, Note_on_c, 7, 65, 127
9, 12645, Note_off_c, 7, 65, 0
9, 12648, Note_on_c, 7, 67, 127
9, 12669, Note_off_c, 7, 67, 0
9, 12672, Note_on_c, 7, 65, 127
9, 12693, Note_off_c, 7, 65, 0
9, 12696, Note_on_c, 7, 64, 127
9, 12717, Note_off_c, 7, 64, 0
9, 12720, Note_on_c, 7, 65, 127
9, 12741, Note_off_c, 7, 65, 0
9, 12744, Note_on_c, 7, 62, 127
9, 12765, Note_off_c, 7, 62, 0
9, 12768, Note_on_c, 7, 74, 127
9, 12810, Note_off_c, 7, 74, 0
9, 12816, Note_on_c, 7, 65, 127
9, 12858, Note_off_c, 7, 65, 0
9, 12864, Note_on_c, 7, 65, 127
9, 12906, Note_off_c, 7, 65, 0
9, 12912, Note_on_c, 7, 65, 127
9, 12954, Note_off_c, 7, 65, 0
9, 12960, Note_on_c, 7, 67, 127
9, 12981, Note_off_c, 7, 67, 0
9, 12984, Note_on_c, 7, 65, 127
9, 13005, Note_off_c, 7, 65, 0
9, 13008, Note_on_c, 7, 64, 127
9, 13029, Note_off_c, 7, 64, 0
9, 13032, Note_on_c, 7, 62, 127
9, 13053, Note_off_c, 7, 62, 0
9, 13056, Note_on_c, 7, 64, 127
9, 13098, Note_off_c, 7, 64, 0
9, 13104, Note_on_c, 7, 64, 127
9, 13146, Note_off_c, 7, 64, 0
9, 13152, Note_on_c, 7, 64, 127
9, 13194, Note_off_c, 7, 64, 0
9, 13200, Note_on_c, 7, 64, 127
9, 13221, Note_off_c, 7, 64, 0
9, 13224, Note_on_c, 7, 65, 127
9, 13245, Note_off_c, 7, 65, 0
9, 13248, Note_on_c, 7, 64, 127
9, 13269, Note_off_c, 7, 64, 0
9, 13272, Note_on_c, 7, 62, 127
9, 13293, Note_off_c, 7, 62, 0
9, 13296, Note_on_c, 7, 64, 127
9, 13317, Note_off_c, 7, 64, 0
9, 13320, Note_on_c, 7, 60, 127
9, 13341, Note_off_c, 7, 60, 0
9, 13344, Note_on_c, 7, 72, 127
9, 13386, Note_off_c, 7, 72, 0
9, 13392, Note_on_c, 7, 64, 127
9, 13434, Note_off_c, 7, 64, 0
9, 13440, Note_on_c, 7, 64, 127
9, 13482, Note_off_c, 7, 64, 0
9, 13488, Note_on_c, 7, 64, 127
9, 13530, Note_off_c, 7, 64, 0
9, 13536, Note_on_c, 7, 65, 127
9, 13557, Note_off_c, 7, 65, 0
9, 13560, Note_on_c, 7, 64, 127
9, 13581, Note_off_c, 7, 64, 0
9, 13584, Note_on_c, 7, 62, 127
9, 13605, Note_off_c, 7, 62, 0
9, 13608, Note_on_c, 7, 60, 127
9, 13629, Note_off_c, 7, 60, 0
9, 13632, Note_on_c, 7, 59, 127
9, 13653, Note_off_c, 7, 59, 0
9, 13656, Note_on_c, 7, 57, 127
9, 13677, Note_off_c, 7, 57, 0
9, 13680, Note_on_c, 7, 59, 127
9, 13701, Note_off_c, 7, 59, 0
9, 13704, Note_on_c, 7, 55, 127
9, 13725, Note_off_c, 7, 55, 0
9, 13728, Note_on_c, 7, 62, 127
9, 13749, Note_off_c, 7, 62, 0
9, 13752, Note_on_c, 7, 60, 127
9, 13773, Note_off_c, 7, 60, 0
9, 13776, Note_on_c, 7, 62, 127
9, 13797, Note_off_c, 7, 62, 0
9, 13800, Note_on_c, 7, 59, 127
9, 13821, Note_off_c, 7, 59, 0
9, 13824, Note_on_c, 7, 65, 127
9, 13845, Note_off_c, 7, 65, 0
9, 13848, Note_on_c, 7, 64, 127
9, 13869, Note_off_c, 7, 64, 0
9, 13872, Note_on_c, 7, 65, 127
9, 13893, Note_off_c, 7, 65, 0
9, 13896, Note_on_c, 7, 62, 127
9, 13917, Note_off_c, 7, 62, 0
9, 13920, Note_on_c, 7, 71, 127
9, 13941, Note_off_c, 7, 71, 0
9, 13944, Note_on_c, 7, 69, 127
9, 13965, Note_off_c, 7, 69, 0
9, 13968, Note_on_c, 7, 71, 127
9, 13989, Note_off_c, 7, 71, 0
9, 13992, Note_on_c, 7, 67, 127
9, 14013, Note_off_c, 7, 67, 0
9, 14016, Note_on_c, 7, 74, 127
9, 14037, Note_off_c, 7, 74, 0
9, 14040, Note_on_c, 7, 72, 127
9, 14061, Note_off_c, 7, 72, 0
9, 14064, Note_on_c, 7, 74, 127
9, 14085, Note_off_c, 7, 74, 0
9, 14088, Note_on_c, 7, 71, 127
9, 14109, Note_off_c, 7, 71, 0
9, 14112, Note_on_c, 7, 77, 127
9, 14133, Note_off_c, 7, 77, 0
9, 14136, Note_on_c, 7, 76, 127
9, 14157, Note_off_c, 7, 76, 0
9, 14160, Note_on_c, 7, 77, 127
9, 14181, Note_off_c, 7, 77, 0
9, 14184, Note_on_c, 7, 74, 127
9, 14205, Note_off_c, 7, 74, 0
9, 14208, Note_on_c, 7, 76, 127
9, 14229, Note_off_c, 7, 76, 0
9, 14232, Note_on_c, 7, 74, 127
9, 14253, Note_off_c, 7, 74, 0
9, 14256, Note_on_c, 7, 76, 127
9, 14277, Note_off_c, 7, 76, 0
9, 14280, Note_on_c, 7, 71, 127
9, 14301, Note_off_c, 7, 71, 0
9, 14304, Note_on_c, 7, 72, 127
9, 14325, Note_off_c, 7, 72, 0
9, 14328, Note_on_c, 7, 71, 127
9, 14349, Note_off_c, 7, 71, 0
9, 14352, Note_on_c, 7, 72, 127
9, 14373, Note_off_c, 7, 72, 0
9, 14376, Note_on_c, 7, 74, 127
9, 14397, Note_off_c, 7, 74, 0
9, 14400, Note_on_c, 7, 74, 127
9, 14463, Note_off_c, 7, 74, 0
9, 14472, Note_on_c, 7, 72, 127
9, 14493, Note_off_c, 7, 72, 0
9, 14496, Note_on_c, 7, 72, 127
9, 14517, Note_off_c, 7, 72, 0
9, 14520, Note_on_c, 7, 71, 127
9, 14541, Note_off_c, 7, 71, 0
9, 14544, Note_on_c, 7, 72, 127
9, 14565, Note_off_c, 7, 72, 0
9, 14568, Note_on_c, 7, 67, 127
9, 14589, Note_off_c, 7, 67, 0
9, 14592, Note_on_c, 7, 69, 127
9, 14613, Note_off_c, 7, 69, 0
9, 14616, Note_on_c, 7, 67, 127
9, 14637, Note_off_c, 7, 67, 0
9, 14640, Note_on_c, 7, 69, 127
9, 14661, Note_off_c, 7, 69, 0
9, 14664, Note_on_c, 7, 64, 127
9, 14685, Note_off_c, 7, 64, 0
9, 14688, Note_on_c, 7, 65, 127
9, 14709, Note_off_c, 7, 65, 0
9, 14712, Note_on_c, 7, 64, 127
9, 14733, Note_off_c, 7, 64, 0
9, 14736, Note_on_c, 7, 65, 127
9, 14757, Note_off_c, 7, 65, 0
9, 14760, Note_on_c, 7, 62, 127
9, 14781, Note_off_c, 7, 62, 0
9, 14784, Note_on_c, 7, 64, 127
9, 14805, Note_off_c, 7, 64, 0
9, 14808, Note_on_c, 7, 62, 127
9, 14829, Note_off_c, 7, 62, 0
9, 14832, Note_on_c, 7, 64, 127
9, 14853, Note_off_c, 7, 64, 0
9, 14856, Note_on_c, 7, 59, 127
9, 14877, Note_off_c, 7, 59, 0
9, 14880, Note_on_c, 7, 60, 127
9, 14901, Note_off_c, 7, 60, 0
9, 14904, Note_on_c, 7, 59, 127
9, 14925, Note_off_c, 7, 59, 0
9, 14928, Note_on_c, 7, 60, 127
9, 14949, Note_off_c, 7, 60, 0
9, 14952, Note_on_c, 7, 62, 127
9, 14973, Note_off_c, 7, 62, 0
9, 14976, Note_on_c, 7, 62, 127
9, 15039, Note_off_c, 7, 62, 0
9, 15048, Note_on_c, 7, 60, 127
9, 15069, Note_off_c, 7, 60, 0
9, 15072, Note_on_c, 7, 60, 127
9, 15114, Note_off_c, 7, 60, 0
9, 15552, Note_on_c, 7, 81, 75
9, 15573, Note_off_c, 7, 81, 0
9, 15576, Note_on_c, 7, 79, 75
9, 15597, Note_off_c, 7, 79, 0
9, 15600, Note_on_c, 7, 81, 75
9, 15621, Note_off_c, 7, 81, 0
9, 15624, Note_on_c, 7, 76, 75
9, 15645, Note_off_c, 7, 76, 0
9, 15648, Note_on_c, 7, 77, 75
9, 15690, Note_off_c, 7, 77, 0
9, 17280, Note_on_c, 7, 74, 75
9, 17301, Note_off_c, 7, 74, 0
9, 17304, Note_on_c, 7, 73, 75
9, 17325, Note_off_c, 7, 73, 0
9, 17328, Note_on_c, 7, 74, 75
9, 17349, Note_off_c, 7, 74, 0
9, 17352, Note_on_c, 7, 69, 75
9, 17373, Note_off_c, 7, 69, 0
9, 17376, Note_on_c, 7, 71, 75
9, 17418, Note_off_c, 7, 71, 0
9, 17568, Note_on_c, 7, 72, 75
9, 17589, Note_off_c, 7, 72, 0
9, 17592, Note_on_c, 7, 71, 75
9, 17613, Note_off_c, 7, 71, 0
9, 17616, Note_on_c, 7, 72, 75
9, 17637, Note_off_c, 7, 72, 0
9, 17640, Note_on_c, 7, 67, 75
9, 17661, Note_off_c, 7, 67, 0
9, 17664, Note_on_c, 7, 69, 75
9, 17706, Note_off_c, 7, 69, 0
9, 18240, Note_on_c, 7, 83, 127
9, 18261, Note_off_c, 7, 83, 0
9, 18264, Note_on_c, 7, 84, 127
9, 18285, Note_off_c, 7, 84, 0
9, 18288, Note_on_c, 7, 83, 127
9, 18309, Note_off_c, 7, 83, 0
9, 18312, Note_on_c, 7, 84, 127
9, 18333, Note_off_c, 7, 84, 0
9, 18336, Note_on_c, 7, 86, 127
9, 18357, Note_off_c, 7, 86, 0
9, 18360, Note_on_c, 7, 84, 127
9, 18381, Note_off_c, 7, 84, 0
9, 18384, Note_on_c, 7, 83, 127
9, 18426, Note_off_c, 7, 83, 0
9, 18432, Note_on_c, 7, 83, 127
9, 18474, Note_off_c, 7, 83, 0
9, 18480, Note_on_c, 7, 83, 127
9, 18522, Note_off_c, 7, 83, 0
9, 18528, Note_on_c, 7, 83, 127
9, 18549, Note_off_c, 7, 83, 0
9, 18552, Note_on_c, 7, 84, 127
9, 18573, Note_off_c, 7, 84, 0
9, 18576, Note_on_c, 7, 83, 127
9, 18597, Note_off_c, 7, 83, 0
9, 18600, Note_on_c, 7, 84, 127
9, 18621, Note_off_c, 7, 84, 0
9, 18624, Note_on_c, 7, 86, 127
9, 18645, Note_off_c, 7, 86, 0
9, 18648, Note_on_c, 7, 84, 127
9, 18669, Note_off_c, 7, 84, 0
9, 18672, Note_on_c, 7, 83, 127
9, 18714, Note_off_c, 7, 83, 0
9, 18720, Note_on_c, 7, 83, 127
9, 18762, Note_off_c, 7, 83, 0
9, 18768, Note_on_c, 7, 83, 127
9, 18810, Note_off_c, 7, 83, 0
9, 18816, Note_on_c, 7, 81, 127
9, 18837, Note_off_c, 7, 81, 0
9, 18840, Note_on_c, 7, 83, 127
9, 18861, Note_off_c, 7, 83, 0
9, 18864, Note_on_c, 7, 81, 127
9, 18885, Note_off_c, 7, 81, 0
9, 18888, Note_on_c, 7, 83, 127
9, 18909, Note_off_c, 7, 83, 0
9, 18912, Note_on_c, 7, 84, 127
9, 18933, Note_off_c, 7, 84, 0
9, 18936, Note_on_c, 7, 83, 127
9, 18957, Note_off_c, 7, 83, 0
9, 18960, Note_on_c, 7, 81, 127
9, 19002, Note_off_c, 7, 81, 0
9, 19008, Note_on_c, 7, 81, 127
9, 19050, Note_off_c, 7, 81, 0
9, 19056, Note_on_c, 7, 81, 127
9, 19098, Note_off_c, 7, 81, 0
9, 19104, Note_on_c, 7, 81, 127
9, 19125, Note_off_c, 7, 81, 0
9, 19128, Note_on_c, 7, 83, 127
9, 19149, Note_off_c, 7, 83, 0
9, 19152, Note_on_c, 7, 81, 127
9, 19173, Note_off_c, 7, 81, 0
9, 19176, Note_on_c, 7, 83, 127
9, 19197, Note_off_c, 7, 83, 0
9, 19200, Note_on_c, 7, 84, 127
9, 19221, Note_off_c, 7, 84, 0
9, 19224, Note_on_c, 7, 83, 127
9, 19245, Note_off_c, 7, 83, 0
9, 19248, Note_on_c, 7, 81, 127
9, 19290, Note_off_c, 7, 81, 0
9, 19296, Note_on_c, 7, 83, 127
9, 19317, Note_off_c, 7, 83, 0
9, 19320, Note_on_c, 7, 81, 127
9, 19341, Note_off_c, 7, 81, 0
9, 19344, Note_on_c, 7, 80, 127
9, 19365, Note_off_c, 7, 80, 0
9, 19368, Note_on_c, 7, 81, 127
9, 19389, Note_off_c, 7, 81, 0
9, 19392, Note_on_c, 7, 83, 127
9, 19434, Note_off_c, 7, 83, 0
9, 20016, Note_on_c, 7, 76, 75
9, 20058, Note_off_c, 7, 76, 0
9, 20064, Note_on_c, 7, 81, 75
9, 20106, Note_off_c, 7, 81, 0
9, 20112, Note_on_c, 7, 77, 75
9, 20154, Note_off_c, 7, 77, 0
9, 20304, Note_on_c, 7, 74, 75
9, 20346, Note_off_c, 7, 74, 0
9, 20352, Note_on_c, 7, 79, 75
9, 20394, Note_off_c, 7, 79, 0
9, 20400, Note_on_c, 7, 76, 75
9, 20442, Note_off_c, 7, 76, 0
9, 20592, Note_on_c, 7, 72, 75
9, 20613, Note_off_c, 7, 72, 0
9, 20616, Note_on_c, 7, 74, 75
9, 20637, Note_off_c, 7, 74, 0
9, 20640, Note_on_c, 7, 75, 75
9, 20661, Note_off_c, 7, 75, 0
9, 20664, Note_on_c, 7, 72, 75
9, 20685, Note_off_c, 7, 72, 0
9, 20688, Note_on_c, 7, 77, 75
9, 20730, Note_off_c, 7, 77, 0
9, 20736, Note_on_c, 7, 69, 75
9, 20778, Note_off_c, 7, 69, 0
9, 20784, Note_on_c, 7, 74, 75
9, 20826, Note_off_c, 7, 74, 0
9, 20832, Note_on_c, 7, 70, 75
9, 20874, Note_off_c, 7, 70, 0
9, 21024, Note_on_c, 7, 67, 75
9, 21066, Note_off_c, 7, 67, 0
9, 21072, Note_on_c, 7, 72, 75
9, 21114, Note_off_c, 7, 72, 0
9, 21120, Note_on_c, 7, 69, 75
9, 21162, Note_off_c, 7, 69, 0
9, 21312, Note_on_c, 7, 77, 75
9, 21354, Note_off_c, 7, 77, 0
9, 21360, Note_on_c, 7, 82, 75
9, 21450, Note_off_c, 7, 82, 0
9, 21456, Note_on_c, 7, 81, 75
9, 21498, Note_off_c, 7, 81, 0
9, 21504, Note_on_c, 7, 79, 75
9, 21514, Note_off_c, 7, 79, 0
9, 21516, Note_on_c, 7, 78, 75
9, 21526, Note_off_c, 7, 78, 0
9, 21528, Note_on_c, 7, 79, 75
9, 21538, Note_off_c, 7, 79, 0
9, 21540, Note_on_c, 7, 78, 75
9, 21550, Note_off_c, 7, 78, 0
9, 21552, Note_on_c, 7, 78, 75
9, 21573, Note_off_c, 7, 78, 0
9, 21576, Note_on_c, 7, 81, 75
9, 21597, Note_off_c, 7, 81, 0
9, 21600, Note_on_c, 7, 79, 75
9, 21621, Note_off_c, 7, 79, 0
9, 21624, Note_on_c, 7, 78, 75
9, 21645, Note_off_c, 7, 78, 0
9, 21648, Note_on_c, 7, 79, 75
9, 21669, Note_off_c, 7, 79, 0
9, 21672, Note_on_c, 7, 81, 75
9, 21693, Note_off_c, 7, 81, 0
9, 21696, Note_on_c, 7, 74, 75
9, 21882, Note_off_c, 7, 74, 0
9, 21888, Note_on_c, 7, 67, 75
9, 21898, Note_off_c, 7, 67, 0
9, 21900, Note_on_c, 7, 66, 75
9, 21910, Note_off_c, 7, 66, 0
9, 21912, Note_on_c, 7, 67, 75
9, 21922, Note_off_c, 7, 67, 0
9, 21924, Note_on_c, 7, 66, 75
9, 21934, Note_off_c, 7, 66, 0
9, 21936, Note_on_c, 7, 67, 75
9, 21978, Note_off_c, 7, 67, 0
9, 21984, Note_on_c, 7, 69, 75
9, 22005, Note_off_c, 7, 69, 0
9, 22008, Note_on_c, 7, 70, 75
9, 22029, Note_off_c, 7, 70, 0
9, 22032, Note_on_c, 7, 69, 75
9, 22053, Note_off_c, 7, 69, 0
9, 22056, Note_on_c, 7, 66, 75
9, 22077, Note_off_c, 7, 66, 0
9, 22080, Note_on_c, 7, 67, 75
9, 22101, Note_off_c, 7, 67, 0
9, 22104, Note_on_c, 7, 69, 75
9, 22125, Note_off_c, 7, 69, 0
9, 22128, Note_on_c, 7, 62, 75
9, 22170, Note_off_c, 7, 62, 0
9, 22176, Note_on_c, 7, 74, 75
9, 22314, Note_off_c, 7, 74, 0
9, 22320, Note_on_c, 7, 72, 75
9, 22362, Note_off_c, 7, 72, 0
9, 22368, Note_on_c, 7, 79, 75
9, 22458, Note_off_c, 7, 79, 0
9, 22464, Note_on_c, 7, 78, 75
9, 22506, Note_off_c, 7, 78, 0
9, 22512, Note_on_c, 7, 79, 75
9, 22554, Note_off_c, 7, 79, 0
9, 22560, Note_on_c, 7, 84, 75
9, 22602, Note_off_c, 7, 84, 0
9, 22608, Note_on_c, 7, 81, 75
9, 22650, Note_off_c, 7, 81, 0
9, 22656, Note_on_c, 7, 82, 75
9, 22725, Note_off_c, 7, 82, 0
9, 22728, Note_on_c, 7, 84, 75
9, 22749, Note_off_c, 7, 84, 0
9, 22752, Note_on_c, 7, 78, 75
9, 22815, Note_off_c, 7, 78, 0
9, 22824, Note_on_c, 7, 79, 75
9, 22845, Note_off_c, 7, 79, 0
9, 22848, Note_on_c, 7, 79, 49
9, 22890, Note_off_c, 7, 79, 0
9, 23040, Note_on_c, 7, 75, 49
9, 23082, Note_off_c, 7, 75, 0
9, 23088, Note_on_c, 7, 75, 49
9, 23130, Note_off_c, 7, 75, 0
9, 23136, Note_on_c, 7, 75, 49
9, 23157, Note_off_c, 7, 75, 0
9, 23160, Note_on_c, 7, 74, 49
9, 23181, Note_off_c, 7, 74, 0
9, 23184, Note_on_c, 7, 72, 49
9, 23205, Note_off_c, 7, 72, 0
9, 23208, Note_on_c, 7, 70, 49
9, 23229, Note_off_c, 7, 70, 0
9, 23232, Note_on_c, 7, 72, 49
9, 23253, Note_off_c, 7, 72, 0
9, 23256, Note_on_c, 7, 69, 49
9, 23277, Note_off_c, 7, 69, 0
9, 23280, Note_on_c, 7, 74, 49
9, 23301, Note_off_c, 7, 74, 0
9, 23304, Note_on_c, 7, 75, 49
9, 23325, Note_off_c, 7, 75, 0
9, 23328, Note_on_c, 7, 74, 49
9, 23349, Note_off_c, 7, 74, 0
9, 23352, Note_on_c, 7, 75, 49
9, 23373, Note_off_c, 7, 75, 0
9, 23376, Note_on_c, 7, 77, 49
9, 23418, Note_off_c, 7, 77, 0
9, 23424, Tempo, 1500000
9, 23424, Note_on_c, 7, 70, 49
9, 23616, Time_signature, 2, 2, 96, 8
9, 23631, Note_off_c, 7, 70, 0
9, 23640, Note_on_c, 7, 69, 49
9, 23661, Note_off_c, 7, 69, 0
9, 23664, Note_on_c, 7, 70, 49
9, 23685, Note_off_c, 7, 70, 0
9, 23688, Note_on_c, 7, 69, 49
9, 23709, Note_off_c, 7, 69, 0
9, 23712, Note_on_c, 7, 70, 49
9, 23733, Note_off_c, 7, 70, 0
9, 23736, Note_on_c, 7, 72, 49
9, 23757, Note_off_c, 7, 72, 0
9, 23760, Note_on_c, 7, 72, 49
9, 23808, Time_signature, 6, 2, 96, 8
9, 23823, Note_off_c, 7, 72, 0
9, 23832, Note_on_c, 7, 70, 49
9, 23853, Note_off_c, 7, 70, 0
9, 23856, Note_on_c, 7, 70, 49
9, 23898, Note_off_c, 7, 70, 0
9, 23904, Tempo, 600000
9, 23904, Note_on_c, 7, 74, 96
9, 23925, Note_off_c, 7, 74, 0
9, 23928, Note_on_c, 7, 72, 96
9, 23949, Note_off_c, 7, 72, 0
9, 23952, Note_on_c, 7, 74, 96
9, 23973, Note_off_c, 7, 74, 0
9, 23976, Note_on_c, 7, 70, 96
9, 23997, Note_off_c, 7, 70, 0
9, 24000, Note_on_c, 7, 72, 75
9, 24042, Note_off_c, 7, 72, 0
9, 24048, Note_on_c, 7, 65, 75
9, 24090, Note_off_c, 7, 65, 0
9, 25200, Note_on_c, 7, 65, 75
9, 25242, Note_off_c, 7, 65, 0
9, 25248, Note_on_c, 7, 65, 75
9, 25290, Note_off_c, 7, 65, 0
9, 25296, Note_on_c, 7, 65, 75
9, 25338, Note_off_c, 7, 65, 0
9, 25344, Note_on_c, 7, 69, 75
9, 25365, Note_off_c, 7, 69, 0
9, 25368, Note_on_c, 7, 67, 75
9, 25389, Note_off_c, 7, 67, 0
9, 25392, Note_on_c, 7, 69, 75
9, 25413, Note_off_c, 7, 69, 0
9, 25416, Note_on_c, 7, 65, 75
9, 25437, Note_off_c, 7, 65, 0
9, 25440, Note_on_c, 7, 72, 75
9, 25482, Note_off_c, 7, 72, 0
9, 25488, Note_on_c, 7, 72, 75
9, 25530, Note_off_c, 7, 72, 0
9, 25536, Note_on_c, 7, 72, 75
9, 25578, Note_off_c, 7, 72, 0
9, 25584, Note_on_c, 7, 72, 75
9, 25626, Note_off_c, 7, 72, 0
9, 25632, Note_on_c, 7, 76, 75
9, 25653, Note_off_c, 7, 76, 0
9, 25656, Note_on_c, 7, 74, 75
9, 25677, Note_off_c, 7, 74, 0
9, 25680, Note_on_c, 7, 76, 75
9, 25701, Note_off_c, 7, 76, 0
9, 25704, Note_on_c, 7, 72, 75
9, 25725, Note_off_c, 7, 72, 0
9, 25728, Note_on_c, 7, 77, 75
9, 25770, Note_off_c, 7, 77, 0
9, 25776, Note_on_c, 7, 77, 75
9, 25818, Note_off_c, 7, 77, 0
9, 25824, Note_on_c, 7, 77, 75
9, 25866, Note_off_c, 7, 77, 0
9, 25872, Note_on_c, 7, 77, 75
9, 25914, Note_off_c, 7, 77, 0
9, 25920, Note_on_c, 7, 79, 75
9, 25941, Note_off_c, 7, 79, 0
9, 25944, Note_on_c, 7, 77, 75
9, 25965, Note_off_c, 7, 77, 0
9, 25968, Note_on_c, 7, 76, 75
9, 25989, Note_off_c, 7, 76, 0
9, 25992, Note_on_c, 7, 74, 75
9, 26013, Note_off_c, 7, 74, 0
9, 26016, Note_on_c, 7, 76, 75
9, 26037, Note_off_c, 7, 76, 0
9, 26040, Note_on_c, 7, 77, 75
9, 26061, Note_off_c, 7, 77, 0
9, 26064, Note_on_c, 7, 79, 75
9, 26074, Note_off_c, 7, 79, 0
9, 26076, Note_on_c, 7, 77, 75
9, 26086, Note_off_c, 7, 77, 0
9, 26088, Note_on_c, 7, 79, 75
9, 26098, Note_off_c, 7, 79, 0
9, 26100, Note_on_c, 7, 77, 75
9, 26110, Note_off_c, 7, 77, 0
9, 26112, Note_on_c, 7, 79, 75
9, 26122, Note_off_c, 7, 79, 0
9, 26124, Note_on_c, 7, 77, 75
9, 26134, Note_off_c, 7, 77, 0
9, 26136, Note_on_c, 7, 76, 75
9, 26146, Note_off_c, 7, 76, 0
9, 26148, Note_on_c, 7, 77, 75
9, 26158, Note_off_c, 7, 77, 0
9, 26160, Note_on_c, 7, 79, 75
9, 26202, Note_off_c, 7, 79, 0
9, 26208, Note_on_c, 7, 72, 75
9, 26250, Note_off_c, 7, 72, 0
9, 26352, Note_on_c, 7, 77, 75
9, 26373, Note_off_c, 7, 77, 0
9, 26376, Note_on_c, 7, 76, 75
9, 26397, Note_off_c, 7, 76, 0
9, 26400, Note_on_c, 7, 77, 75
9, 26421, Note_off_c, 7, 77, 0
9, 26424, Note_on_c, 7, 72, 75
9, 26445, Note_off_c, 7, 72, 0
9, 26448, Note_on_c, 7, 74, 75
9, 26490, Note_off_c, 7, 74, 0
9, 26496, Note_on_c, 7, 74, 75
9, 26538, Note_off_c, 7, 74, 0
9, 26544, Note_on_c, 7, 74, 75
9, 26586, Note_off_c, 7, 74, 0
9, 26592, Note_on_c, 7, 74, 75
9, 26613, Note_off_c, 7, 74, 0
9, 26616, Note_on_c, 7, 72, 75
9, 26637, Note_off_c, 7, 72, 0
9, 26640, Note_on_c, 7, 70, 75
9, 26661, Note_off_c, 7, 70, 0
9, 26664, Note_on_c, 7, 69, 75
9, 26685, Note_off_c, 7, 69, 0
9, 26688, Note_on_c, 7, 70, 75
9, 26709, Note_off_c, 7, 70, 0
9, 26712, Note_on_c, 7, 67, 75
9, 26733, Note_off_c, 7, 67, 0
9, 26736, Note_on_c, 7, 72, 75
9, 26778, Note_off_c, 7, 72, 0
9, 26784, Note_on_c, 7, 72, 75
9, 26826, Note_off_c, 7, 72, 0
9, 26832, Note_on_c, 7, 72, 75
9, 26874, Note_off_c, 7, 72, 0
9, 26880, Note_on_c, 7, 72, 75
9, 26901, Note_off_c, 7, 72, 0
9, 26904, Note_on_c, 7, 70, 75
9, 26925, Note_off_c, 7, 70, 0
9, 26928, Note_on_c, 7, 69, 75
9, 26949, Note_off_c, 7, 69, 0
9, 26952, Note_on_c, 7, 67, 75
9, 26973, Note_off_c, 7, 67, 0
9, 26976, Note_on_c, 7, 69, 75
9, 26997, Note_off_c, 7, 69, 0
9, 27000, Note_on_c, 7, 65, 75
9, 27021, Note_off_c, 7, 65, 0
9, 27024, Note_on_c, 7, 70, 75
9, 27066, Note_off_c, 7, 70, 0
9, 27072, Note_on_c, 7, 70, 75
9, 27114, Note_off_c, 7, 70, 0
9, 27120, Note_on_c, 7, 70, 75
9, 27162, Note_off_c, 7, 70, 0
9, 27168, Note_on_c, 7, 70, 75
9, 27189, Note_off_c, 7, 70, 0
9, 27192, Note_on_c, 7, 69, 75
9, 27213, Note_off_c, 7, 69, 0
9, 27216, Note_on_c, 7, 67, 75
9, 27237, Note_off_c, 7, 67, 0
9, 27240, Note_on_c, 7, 65, 75
9, 27261, Note_off_c, 7, 65, 0
9, 27264, Note_on_c, 7, 67, 75
9, 27285, Note_off_c, 7, 67, 0
9, 27288, Note_on_c, 7, 64, 75
9, 27309, Note_off_c, 7, 64, 0
9, 27312, Note_on_c, 7, 69, 75
9, 27354, Note_off_c, 7, 69, 0
9, 27360, Note_on_c, 7, 69, 75
9, 27402, Note_off_c, 7, 69, 0
9, 27408, Note_on_c, 7, 69, 75
9, 27450, Note_off_c, 7, 69, 0
9, 27456, Note_on_c, 7, 69, 75
9, 27477, Note_off_c, 7, 69, 0
9, 27480, Note_on_c, 7, 70, 75
9, 27501, Note_off_c, 7, 70, 0
9, 27504, Note_on_c, 7, 69, 75
9, 27525, Note_off_c, 7, 69, 0
9, 27528, Note_on_c, 7, 67, 75
9, 27549, Note_off_c, 7, 67, 0
9, 27552, Note_on_c, 7, 69, 75
9, 27573, Note_off_c, 7, 69, 0
9, 27576, Note_on_c, 7, 65, 75
9, 27597, Note_off_c, 7, 65, 0
9, 27600, Note_on_c, 7, 67, 75
9, 27621, Note_off_c, 7, 67, 0
9, 27624, Note_on_c, 7, 69, 75
9, 27645, Note_off_c, 7, 69, 0
9, 27648, Note_on_c, 7, 67, 75
9, 27669, Note_off_c, 7, 67, 0
9, 27672, Note_on_c, 7, 65, 75
9, 27693, Note_off_c, 7, 65, 0
9, 27696, Note_on_c, 7, 67, 75
9, 27717, Note_off_c, 7, 67, 0
9, 27720, Note_on_c, 7, 64, 75
9, 27741, Note_off_c, 7, 64, 0
9, 27744, Note_on_c, 7, 65, 75
9, 27765, Note_off_c, 7, 65, 0
9, 27768, Note_on_c, 7, 67, 75
9, 27789, Note_off_c, 7, 67, 0
9, 27792, Note_on_c, 7, 65, 75
9, 27813, Note_off_c, 7, 65, 0
9, 27816, Note_on_c, 7, 64, 75
9, 27837, Note_off_c, 7, 64, 0
9, 27840, Note_on_c, 7, 65, 75
9, 27861, Note_off_c, 7, 65, 0
9, 27864, Note_on_c, 7, 62, 75
9, 27885, Note_off_c, 7, 62, 0
9, 27888, Note_on_c, 7, 64, 75
9, 27930, Note_off_c, 7, 64, 0
9, 27936, Note_on_c, 7, 60, 75
9, 27978, Note_off_c, 7, 60, 0
9, 29376, Note_on_c, 7, 65, 75
9, 29418, Note_off_c, 7, 65, 0
9, 29424, Note_on_c, 7, 65, 75
9, 29466, Note_off_c, 7, 65, 0
9, 29472, Note_on_c, 7, 65, 75
9, 29514, Note_off_c, 7, 65, 0
9, 29520, Note_on_c, 7, 69, 75
9, 29541, Note_off_c, 7, 69, 0
9, 29544, Note_on_c, 7, 67, 75
9, 29565, Note_off_c, 7, 67, 0
9, 29568, Note_on_c, 7, 69, 75
9, 29589, Note_off_c, 7, 69, 0
9, 29592, Note_on_c, 7, 65, 75
9, 29613, Note_off_c, 7, 65, 0
9, 29616, Note_on_c, 7, 72, 75
9, 29658, Note_off_c, 7, 72, 0
9, 29664, Note_on_c, 7, 72, 75
9, 29706, Note_off_c, 7, 72, 0
9, 29712, Note_on_c, 7, 72, 75
9, 29754, Note_off_c, 7, 72, 0
9, 29760, Note_on_c, 7, 72, 75
9, 29802, Note_off_c, 7, 72, 0
9, 29808, Note_on_c, 7, 76, 75
9, 29829, Note_off_c, 7, 76, 0
9, 29832, Note_on_c, 7, 74, 75
9, 29853, Note_off_c, 7, 74, 0
9, 29856, Note_on_c, 7, 76, 75
9, 29877, Note_off_c, 7, 76, 0
9, 29880, Note_on_c, 7, 72, 75
9, 29901, Note_off_c, 7, 72, 0
9, 29904, Note_on_c, 7, 77, 75
9, 29946, Note_off_c, 7, 77, 0
9, 29952, Note_on_c, 7, 77, 75
9, 29994, Note_off_c, 7, 77, 0
9, 30000, Note_on_c, 7, 77, 75
9, 30042, Note_off_c, 7, 77, 0
9, 30048, Note_on_c, 7, 77, 75
9, 30090, Note_off_c, 7, 77, 0
9, 30096, Note_on_c, 7, 79, 75
9, 30117, Note_off_c, 7, 79, 0
9, 30120, Note_on_c, 7, 77, 75
9, 30141, Note_off_c, 7, 77, 0
9, 30144, Note_on_c, 7, 76, 75
9, 30165, Note_off_c, 7, 76, 0
9, 30168, Note_on_c, 7, 74, 75
9, 30189, Note_off_c, 7, 74, 0
9, 30192, Note_on_c, 7, 76, 75
9, 30213, Note_off_c, 7, 76, 0
9, 30216, Note_on_c, 7, 77, 75
9, 30237, Note_off_c, 7, 77, 0
9, 30240, Note_on_c, 7, 79, 75
9, 30250, Note_off_c, 7, 79, 0
9, 30252, Note_on_c, 7, 77, 75
9, 30262, Note_off_c, 7, 77, 0
9, 30264, Note_on_c, 7, 79, 75
9, 30274, Note_off_c, 7, 79, 0
9, 30276, Note_on_c, 7, 77, 75
9, 30286, Note_off_c, 7, 77, 0
9, 30288, Note_on_c, 7, 79, 75
9, 30298, Note_off_c, 7, 79, 0
9, 30300, Note_on_c, 7, 77, 75
9, 30310, Note_off_c, 7, 77, 0
9, 30312, Note_on_c, 7, 76, 75
9, 30322, Note_off_c, 7, 76, 0
9, 30324, Note_on_c, 7, 77, 75
9, 30334, Note_off_c, 7, 77, 0
9, 30336, Note_on_c, 7, 79, 75
9, 30378, Note_off_c, 7, 79, 0
9, 30384, Note_on_c, 7, 72, 75
9, 30426, Note_off_c, 7, 72, 0
9, 30960, Note_on_c, 7, 65, 75
9, 31002, Note_off_c, 7, 65, 0
9, 31008, Note_on_c, 7, 65, 75
9, 31050, Note_off_c, 7, 65, 0
9, 31056, Note_on_c, 7, 65, 75
9, 31098, Note_off_c, 7, 65, 0
9, 31104, Note_on_c, 7, 69, 75
9, 31125, Note_off_c, 7, 69, 0
9, 31128, Note_on_c, 7, 67, 75
9, 31149, Note_off_c, 7, 67, 0
9, 31152, Note_on_c, 7, 69, 75
9, 31173, Note_off_c, 7, 69, 0
9, 31176, Note_on_c, 7, 65, 75
9, 31197, Note_off_c, 7, 65, 0
9, 31200, Note_on_c, 7, 72, 75
9, 31242, Note_off_c, 7, 72, 0
9, 31248, Note_on_c, 7, 72, 75
9, 31290, Note_off_c, 7, 72, 0
9, 31296, Note_on_c, 7, 72, 75
9, 31338, Note_off_c, 7, 72, 0
9, 31344, Note_on_c, 7, 72, 75
9, 31386, Note_off_c, 7, 72, 0
9, 31392, Note_on_c, 7, 76, 75
9, 31413, Note_off_c, 7, 76, 0
9, 31416, Note_on_c, 7, 74, 75
9, 31437, Note_off_c, 7, 74, 0
9, 31440, Note_on_c, 7, 76, 75
9, 31461, Note_off_c, 7, 76, 0
9, 31464, Note_on_c, 7, 72, 75
9, 31485, Note_off_c, 7, 72, 0
9, 31488, Note_on_c, 7, 77, 75
9, 31530, Note_off_c, 7, 77, 0
9, 31536, Note_on_c, 7, 77, 75
9, 31578, Note_off_c, 7, 77, 0
9, 31584, Note_on_c, 7, 77, 75
9, 31626, Note_off_c, 7, 77, 0
9, 31632, Note_on_c, 7, 77, 75
9, 31674, Note_off_c, 7, 77, 0
9, 31680, Note_on_c, 7, 79, 75
9, 31701, Note_off_c, 7, 79, 0
9, 31704, Note_on_c, 7, 77, 75
9, 31725, Note_off_c, 7, 77, 0
9, 31728, Note_on_c, 7, 76, 75
9, 31749, Note_off_c, 7, 76, 0
9, 31752, Note_on_c, 7, 74, 75
9, 31773, Note_off_c, 7, 74, 0
9, 31776, Note_on_c, 7, 76, 75
9, 31797, Note_off_c, 7, 76, 0
9, 31800, Note_on_c, 7, 77, 75
9, 31821, Note_off_c, 7, 77, 0
9, 31824, Note_on_c, 7, 79, 75
9, 31834, Note_off_c, 7, 79, 0
9, 31836, Note_on_c, 7, 77, 75
9, 31846, Note_off_c, 7, 77, 0
9, 31848, Note_on_c, 7, 79, 75
9, 31858, Note_off_c, 7, 79, 0
9, 31860, Note_on_c, 7, 77, 75
9, 31870, Note_off_c, 7, 77, 0
9, 31872, Note_on_c, 7, 79, 75
9, 31882, Note_off_c, 7, 79, 0
9, 31884, Note_on_c, 7, 77, 75
9, 31894, Note_off_c, 7, 77, 0
9, 31896, Note_on_c, 7, 76, 75
9, 31906, Note_off_c, 7, 76, 0
9, 31908, Note_on_c, 7, 77, 75
9, 31918, Note_off_c, 7, 77, 0
9, 31920, Note_on_c, 7, 79, 75
9, 31962, Note_off_c, 7, 79, 0
9, 31968, Note_on_c, 7, 72, 75
9, 32010, Note_off_c, 7, 72, 0
9, 32016, Note_on_c, 7, 79, 75
9, 32058, Note_off_c, 7, 79, 0
9, 32064, Note_on_c, 7, 81, 75
9, 32085, Note_off_c, 7, 81, 0
9, 32088, Note_on_c, 7, 79, 75
9, 32109, Note_off_c, 7, 79, 0
9, 32112, Note_on_c, 7, 77, 75
9, 32133, Note_off_c, 7, 77, 0
9, 32136, Note_on_c, 7, 76, 75
9, 32157, Note_off_c, 7, 76, 0
9, 32160, Note_on_c, 7, 77, 75
9, 32181, Note_off_c, 7, 77, 0
9, 32184, Note_on_c, 7, 74, 75
9, 32205, Note_off_c, 7, 74, 0
9, 32208, Note_on_c, 7, 79, 75
9, 32229, Note_off_c, 7, 79, 0
9, 32232, Note_on_c, 7, 67, 75
9, 32253, Note_off_c, 7, 67, 0
9, 32256, Note_on_c, 7, 72, 75
9, 32277, Note_off_c, 7, 72, 0
9, 32280, Note_on_c, 7, 74, 75
9, 32301, Note_off_c, 7, 74, 0
9, 32304, Note_on_c, 7, 76, 75
9, 32325, Note_off_c, 7, 76, 0
9, 32328, Note_on_c, 7, 72, 75
9, 32349, Note_off_c, 7, 72, 0
9, 32352, Note_on_c, 7, 77, 75
9, 32373, Note_off_c, 7, 77, 0
9, 32376, Note_on_c, 7, 76, 75
9, 32397, Note_off_c, 7, 76, 0
9, 32400, Note_on_c, 7, 74, 75
9, 32421, Note_off_c, 7, 74, 0
9, 32424, Note_on_c, 7, 72, 75
9, 32445, Note_off_c, 7, 72, 0
9, 32448, Note_on_c, 7, 74, 75
9, 32469, Note_off_c, 7, 74, 0
9, 32472, Note_on_c, 7, 70, 75
9, 32493, Note_off_c, 7, 70, 0
9, 32496, Note_on_c, 7, 76, 75
9, 32517, Note_off_c, 7, 76, 0
9, 32520, Note_on_c, 7, 64, 75
9, 32541, Note_off_c, 7, 64, 0
9, 32544, Note_on_c, 7, 69, 75
9, 32565, Note_off_c, 7, 69, 0
9, 32568, Note_on_c, 7, 70, 75
9, 32589, Note_off_c, 7, 70, 0
9, 32592, Note_on_c, 7, 72, 75
9, 32613, Note_off_c, 7, 72, 0
9, 32616, Note_on_c, 7, 69, 75
9, 32637, Note_off_c, 7, 69, 0
9, 32640, Note_on_c, 7, 74, 75
9, 32661, Note_off_c, 7, 74, 0
9, 32664, Note_on_c, 7, 72, 75
9, 32685, Note_off_c, 7, 72, 0
9, 32688, Note_on_c, 7, 70, 75
9, 32709, Note_off_c, 7, 70, 0
9, 32712, Note_on_c, 7, 69, 75
9, 32733, Note_off_c, 7, 69, 0
9, 32736, Note_on_c, 7, 70, 75
9, 32757, Note_off_c, 7, 70, 0
9, 32760, Note_on_c, 7, 67, 75
9, 32781, Note_off_c, 7, 67, 0
9, 32784, Note_on_c, 7, 72, 75
9, 32805, Note_off_c, 7, 72, 0
9, 32808, Note_on_c, 7, 60, 75
9, 32829, Note_off_c, 7, 60, 0
9, 32832, Note_on_c, 7, 65, 75
9, 32853, Note_off_c, 7, 65, 0
9, 32856, Note_on_c, 7, 67, 75
9, 32877, Note_off_c, 7, 67, 0
9, 32880, Note_on_c, 7, 69, 75
9, 32901, Note_off_c, 7, 69, 0
9, 32904, Note_on_c, 7, 65, 75
9, 32925, Note_off_c, 7, 65, 0
9, 32928, Note_on_c, 7, 70, 75
9, 32970, Note_off_c, 7, 70, 0
9, 32976, Note_on_c, 7, 70, 75
9, 33018, Note_off_c, 7, 70, 0
9, 33024, Note_on_c, 7, 70, 75
9, 33066, Note_off_c, 7, 70, 0
9, 33072, Note_on_c, 7, 70, 75
9, 33093, Note_off_c, 7, 70, 0
9, 33096, Note_on_c, 7, 72, 75
9, 33117, Note_off_c, 7, 72, 0
9, 33120, Note_on_c, 7, 70, 75
9, 33141, Note_off_c, 7, 70, 0
9, 33144, Note_on_c, 7, 69, 75
9, 33165, Note_off_c, 7, 69, 0
9, 33168, Note_on_c, 7, 70, 75
9, 33189, Note_off_c, 7, 70, 0
9, 33192, Note_on_c, 7, 67, 75
9, 33213, Note_off_c, 7, 67, 0
9, 33216, Note_on_c, 7, 79, 75
9, 33258, Note_off_c, 7, 79, 0
9, 33264, Note_on_c, 7, 70, 75
9, 33306, Note_off_c, 7, 70, 0
9, 33312, Note_on_c, 7, 70, 75
9, 33354, Note_off_c, 7, 70, 0
9, 33360, Note_on_c, 7, 70, 75
9, 33402, Note_off_c, 7, 70, 0
9, 33408, Note_on_c, 7, 72, 75
9, 33429, Note_off_c, 7, 72, 0
9, 33432, Note_on_c, 7, 70, 75
9, 33453, Note_off_c, 7, 70, 0
9, 33456, Note_on_c, 7, 69, 75
9, 33477, Note_off_c, 7, 69, 0
9, 33480, Note_on_c, 7, 67, 75
9, 33501, Note_off_c, 7, 67, 0
9, 33504, Note_on_c, 7, 69, 75
9, 33546, Note_off_c, 7, 69, 0
9, 33552, Note_on_c, 7, 69, 75
9, 33594, Note_off_c, 7, 69, 0
9, 33600, Note_on_c, 7, 69, 75
9, 33642, Note_off_c, 7, 69, 0
9, 33648, Note_on_c, 7, 69, 75
9, 33669, Note_off_c, 7, 69, 0
9, 33672, Note_on_c, 7, 70, 75
9, 33693, Note_off_c, 7, 70, 0
9, 33696, Note_on_c, 7, 69, 75
9, 33717, Note_off_c, 7, 69, 0
9, 33720, Note_on_c, 7, 67, 75
9, 33741, Note_off_c, 7, 67, 0
9, 33744, Note_on_c, 7, 69, 75
9, 33765, Note_off_c, 7, 69, 0
9, 33768, Note_on_c, 7, 65, 75
9, 33789, Note_off_c, 7, 65, 0
9, 33792, Note_on_c, 7, 77, 75
9, 33834, Note_off_c, 7, 77, 0
9, 33840, Note_on_c, 7, 69, 75
9, 33882, Note_off_c, 7, 69, 0
9, 33888, Note_on_c, 7, 69, 75
9, 33930, Note_off_c, 7, 69, 0
9, 33936, Note_on_c, 7, 69, 75
9, 33978, Note_off_c, 7, 69, 0
9, 33984, Note_on_c, 7, 70, 75
9, 34005, Note_off_c, 7, 70, 0
9, 34008, Note_on_c, 7, 69, 75
9, 34029, Note_off_c, 7, 69, 0
9, 34032, Note_on_c, 7, 67, 75
9, 34053, Note_off_c, 7, 67, 0
9, 34056, Note_on_c, 7, 65, 75
9, 34077, Note_off_c, 7, 65, 0
9, 34080, Note_on_c, 7, 64, 75
9, 34101, Note_off_c, 7, 64, 0
9, 34104, Note_on_c, 7, 62, 75
9, 34125, Note_off_c, 7, 62, 0
9, 34128, Note_on_c, 7, 64, 75
9, 34149, Note_off_c, 7, 64, 0
9, 34152, Note_on_c, 7, 60, 75
9, 34173, Note_off_c, 7, 60, 0
9, 34176, Note_on_c, 7, 67, 75
9, 34197, Note_off_c, 7, 67, 0
9, 34200, Note_on_c, 7, 65, 75
9, 34221, Note_off_c, 7, 65, 0
9, 34224, Note_on_c, 7, 67, 75
9, 34245, Note_off_c, 7, 67, 0
9, 34248, Note_on_c, 7, 64, 75
9, 34269, Note_off_c, 7, 64, 0
9, 34272, Note_on_c, 7, 70, 75
9, 34293, Note_off_c, 7, 70, 0
9, 34296, Note_on_c, 7, 69, 75
9, 34317, Note_off_c, 7, 69, 0
9, 34320, Note_on_c, 7, 70, 75
9, 34341, Note_off_c, 7, 70, 0
9, 34344, Note_on_c, 7, 67, 75
9, 34365, Note_off_c, 7, 67, 0
9, 34368, Note_on_c, 7, 76, 75
9, 34389, Note_off_c, 7, 76, 0
9, 34392, Note_on_c, 7, 74, 75
9, 34413, Note_off_c, 7, 74, 0
9, 34416, Note_on_c, 7, 76, 75
9, 34437, Note_off_c, 7, 76, 0
9, 34440, Note_on_c, 7, 72, 75
9, 34461, Note_off_c, 7, 72, 0
9, 34464, Note_on_c, 7, 79, 75
9, 34485, Note_off_c, 7, 79, 0
9, 34488, Note_on_c, 7, 77, 75
9, 34509, Note_off_c, 7, 77, 0
9, 34512, Note_on_c, 7, 79, 75
9, 34533, Note_off_c, 7, 79, 0
9, 34536, Note_on_c, 7, 76, 75
9, 34557, Note_off_c, 7, 76, 0
9, 34560, Note_on_c, 7, 82, 75
9, 34581, Note_off_c, 7, 82, 0
9, 34584, Note_on_c, 7, 81, 75
9, 34605, Note_off_c, 7, 81, 0
9, 34608, Note_on_c, 7, 82, 75
9, 34629, Note_off_c, 7, 82, 0
9, 34632, Note_on_c, 7, 79, 75
9, 34653, Note_off_c, 7, 79, 0
9, 34656, Note_on_c, 7, 81, 75
9, 34677, Note_off_c, 7, 81, 0
9, 34680, Note_on_c, 7, 79, 75
9, 34701, Note_off_c, 7, 79, 0
9, 34704, Note_on_c, 7, 81, 75
9, 34725, Note_off_c, 7, 81, 0
9, 34728, Note_on_c, 7, 76, 75
9, 34749, Note_off_c, 7, 76, 0
9, 34752, Note_on_c, 7, 77, 75
9, 34773, Note_off_c, 7, 77, 0
9, 34776, Note_on_c, 7, 76, 75
9, 34797, Note_off_c, 7, 76, 0
9, 34800, Note_on_c, 7, 77, 75
9, 34821, Note_off_c, 7, 77, 0
9, 34824, Note_on_c, 7, 79, 75
9, 34845, Note_off_c, 7, 79, 0
9, 34848, Note_on_c, 7, 79, 75
9, 34911, Note_off_c, 7, 79, 0
9, 34920, Note_on_c, 7, 77, 75
9, 34941, Note_off_c, 7, 77, 0
9, 34944, Note_on_c, 7, 77, 75
9, 34965, Note_off_c, 7, 77, 0
9, 34968, Note_on_c, 7, 76, 75
9, 34989, Note_off_c, 7, 76, 0
9, 34992, Note_on_c, 7, 77, 75
9, 35013, Note_off_c, 7, 77, 0
9, 35016, Note_on_c, 7, 72, 75
9, 35037, Note_off_c, 7, 72, 0
9, 35040, Note_on_c, 7, 74, 75
9, 35061, Note_off_c, 7, 74, 0
9, 35064, Note_on_c, 7, 72, 75
9, 35085, Note_off_c, 7, 72, 0
9, 35088, Note_on_c, 7, 74, 75
9, 35109, Note_off_c, 7, 74, 0
9, 35112, Note_on_c, 7, 69, 75
9, 35133, Note_off_c, 7, 69, 0
9, 35136, Note_on_c, 7, 70, 75
9, 35157, Note_off_c, 7, 70, 0
9, 35160, Note_on_c, 7, 69, 75
9, 35181, Note_off_c, 7, 69, 0
9, 35184, Note_on_c, 7, 70, 75
9, 35205, Note_off_c, 7, 70, 0
9, 35208, Note_on_c, 7, 67, 75
9, 35229, Note_off_c, 7, 67, 0
9, 35232, Note_on_c, 7, 69, 75
9, 35253, Note_off_c, 7, 69, 0
9, 35256, Note_on_c, 7, 67, 75
9, 35277, Note_off_c, 7, 67, 0
9, 35280, Note_on_c, 7, 69, 75
9, 35301, Note_off_c, 7, 69, 0
9, 35304, Note_on_c, 7, 64, 75
9, 35325, Note_off_c, 7, 64, 0
9, 35328, Note_on_c, 7, 65, 75
9, 35349, Note_off_c, 7, 65, 0
9, 35352, Note_on_c, 7, 64, 75
9, 35373, Note_off_c, 7, 64, 0
9, 35376, Tempo, 750000
9, 35376, Note_on_c, 7, 65, 75
9, 35397, Note_off_c, 7, 65, 0
9, 35400, Note_on_c, 7, 67, 75
9, 35421, Note_off_c, 7, 67, 0
9, 35424, Note_on_c, 7, 67, 75
9, 35487, Note_off_c, 7, 67, 0
9, 35496, Note_on_c, 7, 65, 75
9, 35517, Note_off_c, 7, 65, 0
9, 35520, Note_on_c, 7, 65, 75
9, 35796, Note_off_c, 7, 65, 0
9, 35796, End_track
10, 0, Start_track
10, 0, Title_t, "Violin II"
10, 0, Control_c, 8, 0, 0
10, 0, Program_c, 8, 40
10, 0, Time_signature, 6, 2, 96, 8
10, 0, Tempo, 600000
10, 96, Tempo, 600000
10, 144, Note_on_c, 8, 60, 75
10, 186, Note_off_c, 8, 60, 0
10, 192, Note_on_c, 8, 60, 75
10, 234, Note_off_c, 8, 60, 0
10, 240, Note_on_c, 8, 60, 75
10, 282, Note_off_c, 8, 60, 0
10, 288, Note_on_c, 8, 65, 75
10, 309, Note_off_c, 8, 65, 0
10, 312, Note_on_c, 8, 64, 75
10, 333, Note_off_c, 8, 64, 0
10, 336, Note_on_c, 8, 65, 75
10, 357, Note_off_c, 8, 65, 0
10, 360, Note_on_c, 8, 62, 75
10, 381, Note_off_c, 8, 62, 0
10, 384, Note_on_c, 8, 67, 75
10, 426, Note_off_c, 8, 67, 0
10, 432, Note_on_c, 8, 67, 75
10, 474, Note_off_c, 8, 67, 0
10, 480, Note_on_c, 8, 67, 75
10, 522, Note_off_c, 8, 67, 0
10, 528, Note_on_c, 8, 67, 75
10, 570, Note_off_c, 8, 67, 0
10, 576, Note_on_c, 8, 72, 75
10, 597, Note_off_c, 8, 72, 0
10, 600, Note_on_c, 8, 71, 75
10, 621, Note_off_c, 8, 71, 0
10, 624, Note_on_c, 8, 72, 75
10, 645, Note_off_c, 8, 72, 0
10, 648, Note_on_c, 8, 67, 75
10, 669, Note_off_c, 8, 67, 0
10, 672, Note_on_c, 8, 74, 75
10, 714, Note_off_c, 8, 74, 0
10, 720, Note_on_c, 8, 74, 75
10, 762, Note_off_c, 8, 74, 0
10, 768, Note_on_c, 8, 74, 75
10, 810, Note_off_c, 8, 74, 0
10, 816, Note_on_c, 8, 72, 75
10, 858, Note_off_c, 8, 72, 0
10, 864, Note_on_c, 8, 76, 75
10, 885, Note_off_c, 8, 76, 0
10, 888, Note_on_c, 8, 74, 75
10, 909, Note_off_c, 8, 74, 0
10, 912, Note_on_c, 8, 72, 75
10, 933, Note_off_c, 8, 72, 0
10, 936, Note_on_c, 8, 71, 75
10, 957, Note_off_c, 8, 71, 0
10, 960, Note_on_c, 8, 72, 75
10, 981, Note_off_c, 8, 72, 0
10, 984, Note_on_c, 8, 74, 75
10, 1005, Note_off_c, 8, 74, 0
10, 1008, Note_on_c, 8, 76, 75
10, 1018, Note_off_c, 8, 76, 0
10, 1020, Note_on_c, 8, 74, 75
10, 1030, Note_off_c, 8, 74, 0
10, 1032, Note_on_c, 8, 76, 75
10, 1042, Note_off_c, 8, 76, 0
10, 1044, Note_on_c, 8, 74, 75
10, 1054, Note_off_c, 8, 74, 0
10, 1056, Note_on_c, 8, 76, 75
10, 1066, Note_off_c, 8, 76, 0
10, 1068, Note_on_c, 8, 74, 75
10, 1078, Note_off_c, 8, 74, 0
10, 1080, Note_on_c, 8, 72, 75
10, 1090, Note_off_c, 8, 72, 0
10, 1092, Note_on_c, 8, 74, 75
10, 1102, Note_off_c, 8, 74, 0
10, 1104, Note_on_c, 8, 76, 75
10, 1188, Note_off_c, 8, 76, 0
10, 1200, Note_on_c, 8, 72, 75
10, 1242, Note_off_c, 8, 72, 0
10, 1248, Note_on_c, 8, 72, 75
10, 1290, Note_off_c, 8, 72, 0
10, 1392, Note_on_c, 8, 72, 75
10, 1434, Note_off_c, 8, 72, 0
10, 1536, Note_on_c, 8, 74, 75
10, 1578, Note_off_c, 8, 74, 0
10, 1680, Note_on_c, 8, 69, 75
10, 1722, Note_off_c, 8, 69, 0
10, 1824, Note_on_c, 8, 70, 75
10, 1866, Note_off_c, 8, 70, 0
10, 1968, Note_on_c, 8, 65, 75
10, 2010, Note_off_c, 8, 65, 0
10, 2112, Note_on_c, 8, 67, 75
10, 2154, Note_off_c, 8, 67, 0
10, 2160, Note_on_c, 8, 67, 75
10, 2202, Note_off_c, 8, 67, 0
10, 2208, Note_on_c, 8, 67, 75
10, 2250, Note_off_c, 8, 67, 0
10, 2256, Note_on_c, 8, 67, 75
10, 2298, Note_off_c, 8, 67, 0
10, 2400, Note_on_c, 8, 67, 75
10, 2442, Note_off_c, 8, 67, 0
10, 2448, Note_on_c, 8, 67, 75
10, 2490, Note_off_c, 8, 67, 0
10, 2496, Note_on_c, 8, 67, 75
10, 2538, Note_off_c, 8, 67, 0
10, 2544, Note_on_c, 8, 67, 75
10, 2586, Note_off_c, 8, 67, 0
10, 2592, Note_on_c, 8, 69, 75
10, 2613, Note_off_c, 8, 69, 0
10, 2616, Note_on_c, 8, 67, 75
10, 2637, Note_off_c, 8, 67, 0
10, 2640, Note_on_c, 8, 65, 75
10, 2661, Note_off_c, 8, 65, 0
10, 2664, Note_on_c, 8, 64, 75
10, 2685, Note_off_c, 8, 64, 0
10, 2688, Note_on_c, 8, 65, 75
10, 2730, Note_off_c, 8, 65, 0
10, 2736, Note_on_c, 8, 65, 75
10, 2778, Note_off_c, 8, 65, 0
10, 2784, Note_on_c, 8, 65, 75
10, 2826, Note_off_c, 8, 65, 0
10, 2832, Note_on_c, 8, 65, 75
10, 2874, Note_off_c, 8, 65, 0
10, 2976, Note_on_c, 8, 65, 75
10, 3018, Note_off_c, 8, 65, 0
10, 3024, Note_on_c, 8, 65, 75
10, 3066, Note_off_c, 8, 65, 0
10, 3072, Note_on_c, 8, 65, 75
10, 3114, Note_off_c, 8, 65, 0
10, 3120, Note_on_c, 8, 65, 75
10, 3162, Note_off_c, 8, 65, 0
10, 3168, Note_on_c, 8, 67, 75
10, 3210, Note_off_c, 8, 67, 0
10, 3216, Note_on_c, 8, 62, 75
10, 3258, Note_off_c, 8, 62, 0
10, 3264, Note_on_c, 8, 64, 75
10, 3306, Note_off_c, 8, 64, 0
10, 3312, Note_on_c, 8, 60, 75
10, 3354, Note_off_c, 8, 60, 0
10, 3360, Note_on_c, 8, 64, 75
10, 3381, Note_off_c, 8, 64, 0
10, 3384, Note_on_c, 8, 62, 75
10, 3405, Note_off_c, 8, 62, 0
10, 3408, Note_on_c, 8, 64, 75
10, 3429, Note_off_c, 8, 64, 0
10, 3432, Note_on_c, 8, 60, 75
10, 3453, Note_off_c, 8, 60, 0
10, 3456, Note_on_c, 8, 67, 75
10, 3477, Note_off_c, 8, 67, 0
10, 3480, Note_on_c, 8, 65, 75
10, 3501, Note_off_c, 8, 65, 0
10, 3504, Note_on_c, 8, 67, 75
10, 3525, Note_off_c, 8, 67, 0
10, 3528, Note_on_c, 8, 64, 75
10, 3549, Note_off_c, 8, 64, 0
10, 3552, Note_on_c, 8, 70, 75
10, 3573, Note_off_c, 8, 70, 0
10, 3576, Note_on_c, 8, 69, 75
10, 3597, Note_off_c, 8, 69, 0
10, 3600, Note_on_c, 8, 70, 75
10, 3621, Note_off_c, 8, 70, 0
10, 3624, Note_on_c, 8, 67, 75
10, 3645, Note_off_c, 8, 67, 0
10, 3648, Note_on_c, 8, 76, 75
10, 3669, Note_off_c, 8, 76, 0
10, 3672, Note_on_c, 8, 74, 75
10, 3693, Note_off_c, 8, 74, 0
10, 3696, Note_on_c, 8, 76, 75
10, 3717, Note_off_c, 8, 76, 0
10, 3720, Note_on_c, 8, 72, 75
10, 3741, Note_off_c, 8, 72, 0
10, 3744, Note_on_c, 8, 79, 75
10, 3765, Note_off_c, 8, 79, 0
10, 3768, Note_on_c, 8, 77, 75
10, 3789, Note_off_c, 8, 77, 0
10, 3792, Note_on_c, 8, 79, 75
10, 3813, Note_off_c, 8, 79, 0
10, 3816, Note_on_c, 8, 76, 75
10, 3837, Note_off_c, 8, 76, 0
10, 3840, Note_on_c, 8, 77, 75
10, 3882, Note_off_c, 8, 77, 0
10, 3888, Note_on_c, 8, 72, 75
10, 3930, Note_off_c, 8, 72, 0
10, 3936, Note_on_c, 8, 74, 75
10, 4005, Note_off_c, 8, 74, 0
10, 4008, Note_on_c, 8, 77, 75
10, 4029, Note_off_c, 8, 77, 0
10, 4032, Note_on_c, 8, 76, 75
10, 4095, Note_off_c, 8, 76, 0
10, 4104, Note_on_c, 8, 77, 75
10, 4125, Note_off_c, 8, 77, 0
10, 4128, Note_on_c, 8, 77, 75
10, 4170, Note_off_c, 8, 77, 0
10, 4176, Note_on_c, 8, 72, 75
10, 4218, Note_off_c, 8, 72, 0
10, 4224, Note_on_c, 8, 69, 75
10, 4266, Note_off_c, 8, 69, 0
10, 4272, Note_on_c, 8, 69, 75
10, 4314, Note_off_c, 8, 69, 0
10, 4320, Note_on_c, 8, 67, 75
10, 4362, Note_off_c, 8, 67, 0
10, 4368, Note_on_c, 8, 64, 75
10, 4410, Note_off_c, 8, 64, 0
10, 4416, Note_on_c, 8, 65, 75
10, 4479, Note_off_c, 8, 65, 0
10, 4488, Note_on_c, 8, 64, 75
10, 4509, Note_off_c, 8, 64, 0
10, 4512, Note_on_c, 8, 62, 75
10, 4581, Note_off_c, 8, 62, 0
10, 4584, Note_on_c, 8, 65, 75
10, 4605, Note_off_c, 8, 65, 0
10, 4608, Note_on_c, 8, 64, 75
10, 4671, Note_off_c, 8, 64, 0
10, 4680, Note_on_c, 8, 65, 75
10, 4701, Note_off_c, 8, 65, 0
10, 4704, Note_on_c, 8, 65, 75
10, 4746, Note_off_c, 8, 65, 0
10, 5904, Note_on_c, 8, 60, 75
10, 5946, Note_off_c, 8, 60, 0
10, 5952, Note_on_c, 8, 60, 75
10, 5994, Note_off_c, 8, 60, 0
10, 6000, Note_on_c, 8, 60, 75
10, 6042, Note_off_c, 8, 60, 0
10, 6048, Note_on_c, 8, 65, 75
10, 6069, Note_off_c, 8, 65, 0
10, 6072, Note_on_c, 8, 64, 75
10, 6093, Note_off_c, 8, 64, 0
10, 6096, Note_on_c, 8, 65, 75
10, 6117, Note_off_c, 8, 65, 0
10, 6120, Note_on_c, 8, 60, 75
10, 6141, Note_off_c, 8, 60, 0
10, 6144, Note_on_c, 8, 67, 75
10, 6186, Note_off_c, 8, 67, 0
10, 6192, Note_on_c, 8, 67, 75
10, 6234, Note_off_c, 8, 67, 0
10, 6240, Note_on_c, 8, 67, 75
10, 6282, Note_off_c, 8, 67, 0
10, 6288, Note_on_c, 8, 67, 75
10, 6330, Note_off_c, 8, 67, 0
10, 6336, Note_on_c, 8, 72, 75
10, 6357, Note_off_c, 8, 72, 0
10, 6360, Note_on_c, 8, 71, 75
10, 6381, Note_off_c, 8, 71, 0
10, 6384, Note_on_c, 8, 72, 75
10, 6405, Note_off_c, 8, 72, 0
10, 6408, Note_on_c, 8, 67, 75
10, 6429, Note_off_c, 8, 67, 0
10, 6432, Note_on_c, 8, 74, 75
10, 6474, Note_off_c, 8, 74, 0
10, 6480, Note_on_c, 8, 74, 75
10, 6522, Note_off_c, 8, 74, 0
10, 6528, Note_on_c, 8, 74, 75
10, 6570, Note_off_c, 8, 74, 0
10, 6576, Note_on_c, 8, 72, 75
10, 6618, Note_off_c, 8, 72, 0
10, 6624, Note_on_c, 8, 76, 75
10, 6645, Note_off_c, 8, 76, 0
10, 6648, Note_on_c, 8, 74, 75
10, 6669, Note_off_c, 8, 74, 0
10, 6672, Note_on_c, 8, 72, 75
10, 6693, Note_off_c, 8, 72, 0
10, 6696, Note_on_c, 8, 71, 75
10, 6717, Note_off_c, 8, 71, 0
10, 6720, Note_on_c, 8, 72, 75
10, 6741, Note_off_c, 8, 72, 0
10, 6744, Note_on_c, 8, 74, 75
10, 6765, Note_off_c, 8, 74, 0
10, 6768, Note_on_c, 8, 76, 75
10, 6778, Note_off_c, 8, 76, 0
10, 6780, Note_on_c, 8, 74, 75
10, 6790, Note_off_c, 8, 74, 0
10, 6792, Note_on_c, 8, 76, 75
10, 6802, Note_off_c, 8, 76, 0
10, 6804, Note_on_c, 8, 74, 75
10, 6814, Note_off_c, 8, 74, 0
10, 6816, Note_on_c, 8, 76, 75
10, 6826, Note_off_c, 8, 76, 0
10, 6828, Note_on_c, 8, 74, 75
10, 6838, Note_off_c, 8, 74, 0
10, 6840, Note_on_c, 8, 72, 75
10, 6850, Note_off_c, 8, 72, 0
10, 6852, Note_on_c, 8, 74, 75
10, 6862, Note_off_c, 8, 74, 0
10, 6864, Note_on_c, 8, 76, 75
10, 6948, Note_off_c, 8, 76, 0
10, 7056, Note_on_c, 8, 69, 75
10, 7098, Note_off_c, 8, 69, 0
10, 7104, Note_on_c, 8, 69, 75
10, 7146, Note_off_c, 8, 69, 0
10, 7152, Note_on_c, 8, 65, 75
10, 7194, Note_off_c, 8, 65, 0
10, 7344, Note_on_c, 8, 67, 75
10, 7386, Note_off_c, 8, 67, 0
10, 7392, Note_on_c, 8, 67, 75
10, 7434, Note_off_c, 8, 67, 0
10, 7440, Note_on_c, 8, 64, 75
10, 7482, Note_off_c, 8, 64, 0
10, 7632, Note_on_c, 8, 65, 75
10, 7674, Note_off_c, 8, 65, 0
10, 7680, Note_on_c, 8, 65, 75
10, 7722, Note_off_c, 8, 65, 0
10, 7728, Note_on_c, 8, 62, 75
10, 7770, Note_off_c, 8, 62, 0
10, 7776, Note_on_c, 8, 67, 75
10, 7818, Note_off_c, 8, 67, 0
10, 7824, Note_on_c, 8, 67, 75
10, 7866, Note_off_c, 8, 67, 0
10, 7872, Note_on_c, 8, 67, 75
10, 7914, Note_off_c, 8, 67, 0
10, 7920, Note_on_c, 8, 67, 75
10, 7962, Note_off_c, 8, 67, 0
10, 7968, Note_on_c, 8, 67, 75
10, 8010, Note_off_c, 8, 67, 0
10, 8016, Note_on_c, 8, 69, 75
10, 8058, Note_off_c, 8, 69, 0
10, 8064, Note_on_c, 8, 69, 75
10, 8106, Note_off_c, 8, 69, 0
10, 8112, Note_on_c, 8, 69, 75
10, 8154, Note_off_c, 8, 69, 0
10, 8160, Note_on_c, 8, 71, 75
10, 8202, Note_off_c, 8, 71, 0
10, 8208, Note_on_c, 8, 71, 75
10, 8250, Note_off_c, 8, 71, 0
10, 8256, Note_on_c, 8, 71, 75
10, 8298, Note_off_c, 8, 71, 0
10, 8304, Note_on_c, 8, 72, 75
10, 8346, Note_off_c, 8, 72, 0
10, 8352, Note_on_c, 8, 72, 75
10, 8394, Note_off_c, 8, 72, 0
10, 8400, Note_on_c, 8, 72, 75
10, 8442, Note_off_c, 8, 72, 0
10, 8448, Note_on_c, 8, 71, 75
10, 8532, Note_off_c, 8, 71, 0
10, 9936, Note_on_c, 8, 67, 75
10, 9978, Note_off_c, 8, 67, 0
10, 9984, Note_on_c, 8, 67, 75
10, 10026, Note_off_c, 8, 67, 0
10, 10032, Note_on_c, 8, 67, 75
10, 10074, Note_off_c, 8, 67, 0
10, 10080, Note_on_c, 8, 72, 75
10, 10101, Note_off_c, 8, 72, 0
10, 10104, Note_on_c, 8, 71, 75
10, 10125, Note_off_c, 8, 71, 0
10, 10128, Note_on_c, 8, 72, 75
10, 10149, Note_off_c, 8, 72, 0
10, 10152, Note_on_c, 8, 67, 75
10, 10173, Note_off_c, 8, 67, 0
10, 10176, Note_on_c, 8, 74, 75
10, 10218, Note_off_c, 8, 74, 0
10, 10224, Note_on_c, 8, 74, 75
10, 10266, Note_off_c, 8, 74, 0
10, 10272, Note_on_c, 8, 74, 75
10, 10314, Note_off_c, 8, 74, 0
10, 10320, Note_on_c, 8, 74, 75
10, 10362, Note_off_c, 8, 74, 0
10, 10368, Note_on_c, 8, 79, 75
10, 10389, Note_off_c, 8, 79, 0
10, 10392, Note_on_c, 8, 77, 75
10, 10413, Note_off_c, 8, 77, 0
10, 10416, Note_on_c, 8, 79, 75
10, 10437, Note_off_c, 8, 79, 0
10, 10440, Note_on_c, 8, 74, 75
10, 10461, Note_off_c, 8, 74, 0
10, 10464, Note_on_c, 8, 81, 75
10, 10506, Note_off_c, 8, 81, 0
10, 10512, Note_on_c, 8, 81, 75
10, 10554, Note_off_c, 8, 81, 0
10, 10560, Note_on_c, 8, 81, 75
10, 10602, Note_off_c, 8, 81, 0
10, 10608, Note_on_c, 8, 81, 75
10, 10650, Note_off_c, 8, 81, 0
10, 10656, Note_on_c, 8, 77, 75
10, 10698, Note_off_c, 8, 77, 0
10, 10704, Note_on_c, 8, 81, 75
10, 10746, Note_off_c, 8, 81, 0
10, 10752, Note_on_c, 8, 79, 75
10, 10773, Note_off_c, 8, 79, 0
10, 10776, Note_on_c, 8, 81, 75
10, 10797, Note_off_c, 8, 81, 0
10, 10800, Note_on_c, 8, 83, 75
10, 10810, Note_off_c, 8, 83, 0
10, 10812, Note_on_c, 8, 81, 75
10, 10822, Note_off_c, 8, 81, 0
10, 10824, Note_on_c, 8, 83, 75
10, 10834, Note_off_c, 8, 83, 0
10, 10836, Note_on_c, 8, 81, 75
10, 10846, Note_off_c, 8, 81, 0
10, 10848, Note_on_c, 8, 83, 75
10, 10858, Note_off_c, 8, 83, 0
10, 10860, Note_on_c, 8, 81, 75
10, 10870, Note_off_c, 8, 81, 0
10, 10872, Note_on_c, 8, 79, 75
10, 10882, Note_off_c, 8, 79, 0
10, 10884, Note_on_c, 8, 81, 75
10, 10894, Note_off_c, 8, 81, 0
10, 10896, Note_on_c, 8, 83, 75
10, 10980, Note_off_c, 8, 83, 0
10, 11568, Note_on_c, 8, 71, 75
10, 11610, Note_off_c, 8, 71, 0
10, 11616, Note_on_c, 8, 72, 75
10, 11658, Note_off_c, 8, 72, 0
10, 11760, Note_on_c, 8, 67, 75
10, 11802, Note_off_c, 8, 67, 0
10, 11904, Note_on_c, 8, 69, 75
10, 11946, Note_off_c, 8, 69, 0
10, 12048, Note_on_c, 8, 64, 75
10, 12090, Note_off_c, 8, 64, 0
10, 12192, Note_on_c, 8, 65, 75
10, 12234, Note_off_c, 8, 65, 0
10, 12336, Note_on_c, 8, 60, 75
10, 12378, Note_off_c, 8, 60, 0
10, 12480, Note_on_c, 8, 62, 75
10, 12522, Note_off_c, 8, 62, 0
10, 12528, Note_on_c, 8, 62, 75
10, 12570, Note_off_c, 8, 62, 0
10, 12576, Note_on_c, 8, 62, 75
10, 12618, Note_off_c, 8, 62, 0
10, 12624, Note_on_c, 8, 62, 75
10, 12666, Note_off_c, 8, 62, 0
10, 12768, Note_on_c, 8, 62, 75
10, 12810, Note_off_c, 8, 62, 0
10, 12816, Note_on_c, 8, 62, 75
10, 12858, Note_off_c, 8, 62, 0
10, 12864, Note_on_c, 8, 62, 75
10, 12906, Note_off_c, 8, 62, 0
10, 12912, Note_on_c, 8, 62, 75
10, 12954, Note_off_c, 8, 62, 0
10, 12960, Note_on_c, 8, 64, 75
10, 12981, Note_off_c, 8, 64, 0
10, 12984, Note_on_c, 8, 62, 75
10, 13005, Note_off_c, 8, 62, 0
10, 13008, Note_on_c, 8, 60, 75
10, 13029, Note_off_c, 8, 60, 0
10, 13032, Note_on_c, 8, 59, 75
10, 13053, Note_off_c, 8, 59, 0
10, 13056, Note_on_c, 8, 60, 75
10, 13098, Note_off_c, 8, 60, 0
10, 13104, Note_on_c, 8, 60, 75
10, 13146, Note_off_c, 8, 60, 0
10, 13152, Note_on_c, 8, 60, 75
10, 13194, Note_off_c, 8, 60, 0
10, 13200, Note_on_c, 8, 60, 75
10, 13242, Note_off_c, 8, 60, 0
10, 13344, Note_on_c, 8, 60, 75
10, 13386, Note_off_c, 8, 60, 0
10, 13392, Note_on_c, 8, 60, 75
10, 13434, Note_off_c, 8, 60, 0
10, 13440, Note_on_c, 8, 60, 75
10, 13482, Note_off_c, 8, 60, 0
10, 13488, Note_on_c, 8, 60, 75
10, 13530, Note_off_c, 8, 60, 0
10, 13536, Note_on_c, 8, 62, 75
10, 13578, Note_off_c, 8, 62, 0
10, 13584, Note_on_c, 8, 57, 75
10, 13626, Note_off_c, 8, 57, 0
10, 13632, Note_on_c, 8, 55, 75
10, 13674, Note_off_c, 8, 55, 0
10, 13680, Note_on_c, 8, 55, 75
10, 13722, Note_off_c, 8, 55, 0
10, 13728, Note_on_c, 8, 59, 75
10, 13749, Note_off_c, 8, 59, 0
10, 13752, Note_on_c, 8, 57, 75
10, 13773, Note_off_c, 8, 57, 0
10, 13776, Note_on_c, 8, 59, 75
10, 13797, Note_off_c, 8, 59, 0
10, 13800, Note_on_c, 8, 55, 75
10, 13821, Note_off_c, 8, 55, 0
10, 13824, Note_on_c, 8, 62, 75
10, 13845, Note_off_c, 8, 62, 0
10, 13848, Note_on_c, 8, 60, 75
10, 13869, Note_off_c, 8, 60, 0
10, 13872, Note_on_c, 8, 62, 75
10, 13893, Note_off_c, 8, 62, 0
10, 13896, Note_on_c, 8, 59, 75
10, 13917, Note_off_c, 8, 59, 0
10, 13920, Note_on_c, 8, 65, 75
10, 13941, Note_off_c, 8, 65, 0
10, 13944, Note_on_c, 8, 64, 75
10, 13965, Note_off_c, 8, 64, 0
10, 13968, Note_on_c, 8, 65, 75
10, 13989, Note_off_c, 8, 65, 0
10, 13992, Note_on_c, 8, 62, 75
10, 14013, Note_off_c, 8, 62, 0
10, 14016, Note_on_c, 8, 71, 75
10, 14037, Note_off_c, 8, 71, 0
10, 14040, Note_on_c, 8, 69, 75
10, 14061, Note_off_c, 8, 69, 0
10, 14064, Note_on_c, 8, 71, 75
10, 14085, Note_off_c, 8, 71, 0
10, 14088, Note_on_c, 8, 67, 75
10, 14109, Note_off_c, 8, 67, 0
10, 14112, Note_on_c, 8, 74, 75
10, 14133, Note_off_c, 8, 74, 0
10, 14136, Note_on_c, 8, 72, 75
10, 14157, Note_off_c, 8, 72, 0
10, 14160, Note_on_c, 8, 74, 75
10, 14181, Note_off_c, 8, 74, 0
10, 14184, Note_on_c, 8, 71, 75
10, 14205, Note_off_c, 8, 71, 0
10, 14208, Note_on_c, 8, 72, 75
10, 14250, Note_off_c, 8, 72, 0
10, 14256, Note_on_c, 8, 67, 75
10, 14298, Note_off_c, 8, 67, 0
10, 14304, Note_on_c, 8, 60, 75
10, 14373, Note_off_c, 8, 60, 0
10, 14376, Note_on_c, 8, 69, 75
10, 14397, Note_off_c, 8, 69, 0
10, 14400, Note_on_c, 8, 62, 75
10, 14442, Note_off_c, 8, 62, 0
10, 14448, Note_on_c, 8, 67, 75
10, 14490, Note_off_c, 8, 67, 0
10, 14496, Note_on_c, 8, 67, 75
10, 14538, Note_off_c, 8, 67, 0
10, 14544, Note_on_c, 8, 67, 75
10, 14586, Note_off_c, 8, 67, 0
10, 14592, Note_on_c, 8, 64, 75
10, 14682, Note_off_c, 8, 64, 0
10, 14688, Note_on_c, 8, 62, 75
10, 14730, Note_off_c, 8, 62, 0
10, 14736, Note_on_c, 8, 59, 75
10, 14778, Note_off_c, 8, 59, 0
10, 14784, Note_on_c, 8, 60, 75
10, 14826, Note_off_c, 8, 60, 0
10, 14832, Note_on_c, 8, 59, 75
10, 14874, Note_off_c, 8, 59, 0
10, 14880, Note_on_c, 8, 57, 75
10, 14949, Note_off_c, 8, 57, 0
10, 14952, Note_on_c, 8, 60, 75
10, 14973, Note_off_c, 8, 60, 0
10, 14976, Note_on_c, 8, 59, 75
10, 15039, Note_off_c, 8, 59, 0
10, 15048, Note_on_c, 8, 55, 75
10, 15069, Note_off_c, 8, 55, 0
10, 15072, Note_on_c, 8, 55, 75
10, 15114, Note_off_c, 8, 55, 0
10, 15552, Note_on_c, 8, 76, 75
10, 15573, Note_off_c, 8, 76, 0
10, 15576, Note_on_c, 8, 74, 75
10, 15597, Note_off_c, 8, 74, 0
10, 15600, Note_on_c, 8, 76, 75
10, 15621, Note_off_c, 8, 76, 0
10, 15624, Note_on_c, 8, 73, 75
10, 15645, Note_off_c, 8, 73, 0
10, 15648, Note_on_c, 8, 74, 75
10, 15690, Note_off_c, 8, 74, 0
10, 17280, Note_on_c, 8, 69, 75
10, 17322, Note_off_c, 8, 69, 0
10, 17328, Note_on_c, 8, 69, 75
10, 17370, Note_off_c, 8, 69, 0
10, 17376, Note_on_c, 8, 67, 75
10, 17418, Note_off_c, 8, 67, 0
10, 17568, Note_on_c, 8, 67, 75
10, 17610, Note_off_c, 8, 67, 0
10, 17616, Note_on_c, 8, 67, 75
10, 17658, Note_off_c, 8, 67, 0
10, 17664, Note_on_c, 8, 65, 75
10, 17706, Note_off_c, 8, 65, 0
10, 18240, Note_on_c, 8, 80, 127
10, 18261, Note_off_c, 8, 80, 0
10, 18264, Note_on_c, 8, 81, 127
10, 18285, Note_off_c, 8, 81, 0
10, 18288, Note_on_c, 8, 80, 127
10, 18309, Note_off_c, 8, 80, 0
10, 18312, Note_on_c, 8, 81, 127
10, 18333, Note_off_c, 8, 81, 0
10, 18336, Note_on_c, 8, 83, 127
10, 18357, Note_off_c, 8, 83, 0
10, 18360, Note_on_c, 8, 76, 127
10, 18381, Note_off_c, 8, 76, 0
10, 18384, Note_on_c, 8, 77, 127
10, 18426, Note_off_c, 8, 77, 0
10, 18432, Note_on_c, 8, 77, 127
10, 18474, Note_off_c, 8, 77, 0
10, 18480, Note_on_c, 8, 77, 127
10, 18522, Note_off_c, 8, 77, 0
10, 18528, Note_on_c, 8, 76, 127
10, 18570, Note_off_c, 8, 76, 0
10, 18576, Note_on_c, 8, 80, 127
10, 18597, Note_off_c, 8, 80, 0
10, 18600, Note_on_c, 8, 81, 127
10, 18621, Note_off_c, 8, 81, 0
10, 18624, Note_on_c, 8, 83, 127
10, 18645, Note_off_c, 8, 83, 0
10, 18648, Note_on_c, 8, 81, 127
10, 18669, Note_off_c, 8, 81, 0
10, 18672, Note_on_c, 8, 80, 127
10, 18714, Note_off_c, 8, 80, 0
10, 18720, Note_on_c, 8, 80, 127
10, 18762, Note_off_c, 8, 80, 0
10, 18768, Note_on_c, 8, 80, 127
10, 18810, Note_off_c, 8, 80, 0
10, 18816, Note_on_c, 8, 76, 127
10, 18837, Note_off_c, 8, 76, 0
10, 18840, Note_on_c, 8, 77, 127
10, 18861, Note_off_c, 8, 77, 0
10, 18864, Note_on_c, 8, 76, 127
10, 18885, Note_off_c, 8, 76, 0
10, 18888, Note_on_c, 8, 74, 127
10, 18909, Note_off_c, 8, 74, 0
10, 18912, Note_on_c, 8, 72, 127
10, 18933, Note_off_c, 8, 72, 0
10, 18936, Note_on_c, 8, 74, 127
10, 18957, Note_off_c, 8, 74, 0
10, 18960, Note_on_c, 8, 76, 127
10, 19002, Note_off_c, 8, 76, 0
10, 19008, Note_on_c, 8, 76, 127
10, 19050, Note_off_c, 8, 76, 0
10, 19056, Note_on_c, 8, 76, 127
10, 19098, Note_off_c, 8, 76, 0
10, 19104, Note_on_c, 8, 77, 127
10, 19125, Note_off_c, 8, 77, 0
10, 19128, Note_on_c, 8, 79, 127
10, 19149, Note_off_c, 8, 79, 0
10, 19152, Note_on_c, 8, 77, 127
10, 19173, Note_off_c, 8, 77, 0
10, 19176, Note_on_c, 8, 79, 127
10, 19197, Note_off_c, 8, 79, 0
10, 19200, Note_on_c, 8, 81, 127
10, 19221, Note_off_c, 8, 81, 0
10, 19224, Note_on_c, 8, 79, 127
10, 19245, Note_off_c, 8, 79, 0
10, 19248, Note_on_c, 8, 77, 127
10, 19290, Note_off_c, 8, 77, 0
10, 19296, Note_on_c, 8, 77, 127
10, 19338, Note_off_c, 8, 77, 0
10, 19344, Note_on_c, 8, 77, 127
10, 19386, Note_off_c, 8, 77, 0
10, 19392, Note_on_c, 8, 68, 127
10, 19434, Note_off_c, 8, 68, 0
10, 20016, Note_on_c, 8, 72, 75
10, 20058, Note_off_c, 8, 72, 0
10, 20064, Note_on_c, 8, 76, 75
10, 20106, Note_off_c, 8, 76, 0
10, 20112, Note_on_c, 8, 74, 75
10, 20154, Note_off_c, 8, 74, 0
10, 20304, Note_on_c, 8, 70, 75
10, 20346, Note_off_c, 8, 70, 0
10, 20352, Note_on_c, 8, 74, 75
10, 20394, Note_off_c, 8, 74, 0
10, 20400, Note_on_c, 8, 72, 75
10, 20442, Note_off_c, 8, 72, 0
10, 20592, Note_on_c, 8, 69, 75
10, 20613, Note_off_c, 8, 69, 0
10, 20616, Note_on_c, 8, 70, 75
10, 20637, Note_off_c, 8, 70, 0
10, 20640, Note_on_c, 8, 72, 75
10, 20661, Note_off_c, 8, 72, 0
10, 20664, Note_on_c, 8, 69, 75
10, 20685, Note_off_c, 8, 69, 0
10, 20688, Note_on_c, 8, 74, 75
10, 20730, Note_off_c, 8, 74, 0
10, 20736, Note_on_c, 8, 62, 75
10, 20778, Note_off_c, 8, 62, 0
10, 20784, Note_on_c, 8, 69, 75
10, 20826, Note_off_c, 8, 69, 0
10, 20832, Note_on_c, 8, 67, 75
10, 20874, Note_off_c, 8, 67, 0
10, 21024, Note_on_c, 8, 63, 75
10, 21066, Note_off_c, 8, 63, 0
10, 21072, Note_on_c, 8, 67, 75
10, 21114, Note_off_c, 8, 67, 0
10, 21120, Note_on_c, 8, 65, 75
10, 21162, Note_off_c, 8, 65, 0
10, 23040, Note_on_c, 8, 72, 49
10, 23061, Note_off_c, 8, 72, 0
10, 23064, Note_on_c, 8, 71, 49
10, 23085, Note_off_c, 8, 71, 0
10, 23088, Note_on_c, 8, 72, 49
10, 23109, Note_off_c, 8, 72, 0
10, 23112, Note_on_c, 8, 67, 49
10, 23133, Note_off_c, 8, 67, 0
10, 23136, Note_on_c, 8, 69, 49
10, 23178, Note_off_c, 8, 69, 0
10, 23328, Note_on_c, 8, 70, 49
10, 23349, Note_off_c, 8, 70, 0
10, 23352, Note_on_c, 8, 69, 49
10, 23373, Note_off_c, 8, 69, 0
10, 23376, Note_on_c, 8, 70, 49
10, 23397, Note_off_c, 8, 70, 0
10, 23400, Note_on_c, 8, 65, 49
10, 23421, Note_off_c, 8, 65, 0
10, 23424, Tempo, 1500000
10, 23424, Note_on_c, 8, 65, 49
10, 23556, Note_off_c, 8, 65, 0
10, 23568, Note_on_c, 8, 67, 49
10, 23616, Time_signature, 2, 2, 96, 8
10, 23754, Note_off_c, 8, 67, 0
10, 23760, Note_on_c, 8, 65, 49
10, 23802, Note_off_c, 8, 65, 0
10, 23808, Time_signature, 6, 2, 96, 8
10, 23808, Note_on_c, 8, 65, 49
10, 23850, Note_off_c, 8, 65, 0
10, 23856, Note_on_c, 8, 65, 49
10, 23898, Note_off_c, 8, 65, 0
10, 23904, Tempo, 600000
10, 23904, Note_on_c, 8, 65, 96
10, 23946, Note_off_c, 8, 65, 0
10, 23952, Note_on_c, 8, 64, 96
10, 23994, Note_off_c, 8, 64, 0
10, 24000, Note_on_c, 8, 69, 75
10, 24042, Note_off_c, 8, 69, 0
10, 24048, Note_on_c, 8, 60, 75
10, 24090, Note_off_c, 8, 60, 0
10, 25200, Note_on_c, 8, 60, 75
10, 25242, Note_off_c, 8, 60, 0
10, 25248, Note_on_c, 8, 60, 75
10, 25290, Note_off_c, 8, 60, 0
10, 25296, Note_on_c, 8, 60, 75
10, 25338, Note_off_c, 8, 60, 0
10, 25344, Note_on_c, 8, 65, 75
10, 25365, Note_off_c, 8, 65, 0
10, 25368, Note_on_c, 8, 64, 75
10, 25389, Note_off_c, 8, 64, 0
10, 25392, Note_on_c, 8, 65, 75
10, 25413, Note_off_c, 8, 65, 0
10, 25416, Note_on_c, 8, 60, 75
10, 25437, Note_off_c, 8, 60, 0
10, 25440, Note_on_c, 8, 67, 75
10, 25482, Note_off_c, 8, 67, 0
10, 25488, Note_on_c, 8, 67, 75
10, 25530, Note_off_c, 8, 67, 0
10, 25536, Note_on_c, 8, 67, 75
10, 25578, Note_off_c, 8, 67, 0
10, 25584, Note_on_c, 8, 67, 75
10, 25626, Note_off_c, 8, 67, 0
10, 25632, Note_on_c, 8, 72, 75
10, 25653, Note_off_c, 8, 72, 0
10, 25656, Note_on_c, 8, 71, 75
10, 25677, Note_off_c, 8, 71, 0
10, 25680, Note_on_c, 8, 72, 75
10, 25701, Note_off_c, 8, 72, 0
10, 25704, Note_on_c, 8, 67, 75
10, 25725, Note_off_c, 8, 67, 0
10, 25728, Note_on_c, 8, 74, 75
10, 25770, Note_off_c, 8, 74, 0
10, 25776, Note_on_c, 8, 74, 75
10, 25818, Note_off_c, 8, 74, 0
10, 25824, Note_on_c, 8, 74, 75
10, 25866, Note_off_c, 8, 74, 0
10, 25872, Note_on_c, 8, 72, 75
10, 25914, Note_off_c, 8, 72, 0
10, 25920, Note_on_c, 8, 76, 75
10, 25941, Note_off_c, 8, 76, 0
10, 25944, Note_on_c, 8, 74, 75
10, 25965, Note_off_c, 8, 74, 0
10, 25968, Note_on_c, 8, 72, 75
10, 25989, Note_off_c, 8, 72, 0
10, 25992, Note_on_c, 8, 71, 75
10, 26013, Note_off_c, 8, 71, 0
10, 26016, Note_on_c, 8, 72, 75
10, 26037, Note_off_c, 8, 72, 0
10, 26040, Note_on_c, 8, 74, 75
10, 26061, Note_off_c, 8, 74, 0
10, 26064, Note_on_c, 8, 76, 75
10, 26074, Note_off_c, 8, 76, 0
10, 26076, Note_on_c, 8, 74, 75
10, 26086, Note_off_c, 8, 74, 0
10, 26088, Note_on_c, 8, 76, 75
10, 26098, Note_off_c, 8, 76, 0
10, 26100, Note_on_c, 8, 74, 75
10, 26110, Note_off_c, 8, 74, 0
10, 26112, Note_on_c, 8, 76, 75
10, 26122, Note_off_c, 8, 76, 0
10, 26124, Note_on_c, 8, 74, 75
10, 26134, Note_off_c, 8, 74, 0
10, 26136, Note_on_c, 8, 72, 75
10, 26146, Note_off_c, 8, 72, 0
10, 26148, Note_on_c, 8, 74, 75
10, 26158, Note_off_c, 8, 74, 0
10, 26160, Note_on_c, 8, 76, 75
10, 26202, Note_off_c, 8, 76, 0
10, 26208, Note_on_c, 8, 67, 75
10, 26250, Note_off_c, 8, 67, 0
10, 26352, Note_on_c, 8, 72, 75
10, 26394, Note_off_c, 8, 72, 0
10, 26400, Note_on_c, 8, 72, 75
10, 26442, Note_off_c, 8, 72, 0
10, 26448, Note_on_c, 8, 70, 75
10, 26490, Note_off_c, 8, 70, 0
10, 26640, Note_on_c, 8, 67, 75
10, 26682, Note_off_c, 8, 67, 0
10, 26688, Note_on_c, 8, 67, 75
10, 26730, Note_off_c, 8, 67, 0
10, 26736, Note_on_c, 8, 64, 75
10, 26778, Note_off_c, 8, 64, 0
10, 26928, Note_on_c, 8, 65, 75
10, 26970, Note_off_c, 8, 65, 0
10, 26976, Note_on_c, 8, 65, 75
10, 27018, Note_off_c, 8, 65, 0
10, 27024, Note_on_c, 8, 62, 75
10, 27066, Note_off_c, 8, 62, 0
10, 27216, Note_on_c, 8, 64, 75
10, 27258, Note_off_c, 8, 64, 0
10, 27264, Note_on_c, 8, 64, 75
10, 27306, Note_off_c, 8, 64, 0
10, 27312, Note_on_c, 8, 65, 75
10, 27354, Note_off_c, 8, 65, 0
10, 27360, Note_on_c, 8, 65, 75
10, 27402, Note_off_c, 8, 65, 0
10, 27408, Note_on_c, 8, 65, 75
10, 27450, Note_off_c, 8, 65, 0
10, 27456, Note_on_c, 8, 65, 75
10, 27498, Note_off_c, 8, 65, 0
10, 27504, Note_on_c, 8, 65, 75
10, 27546, Note_off_c, 8, 65, 0
10, 27552, Note_on_c, 8, 65, 75
10, 27594, Note_off_c, 8, 65, 0
10, 27600, Note_on_c, 8, 64, 75
10, 27642, Note_off_c, 8, 64, 0
10, 27648, Note_on_c, 8, 64, 75
10, 27690, Note_off_c, 8, 64, 0
10, 27696, Note_on_c, 8, 64, 75
10, 27738, Note_off_c, 8, 64, 0
10, 27744, Note_on_c, 8, 69, 75
10, 27786, Note_off_c, 8, 69, 0
10, 27792, Note_on_c, 8, 69, 75
10, 27834, Note_off_c, 8, 69, 0
10, 27840, Note_on_c, 8, 65, 75
10, 27882, Note_off_c, 8, 65, 0
10, 27888, Note_on_c, 8, 67, 75
10, 27972, Note_off_c, 8, 67, 0
10, 29376, Note_on_c, 8, 60, 75
10, 29418, Note_off_c, 8, 60, 0
10, 29424, Note_on_c, 8, 60, 75
10, 29466, Note_off_c, 8, 60, 0
10, 29472, Note_on_c, 8, 60, 75
10, 29514, Note_off_c, 8, 60, 0
10, 29520, Note_on_c, 8, 65, 75
10, 29541, Note_off_c, 8, 65, 0
10, 29544, Note_on_c, 8, 64, 75
10, 29565, Note_off_c, 8, 64, 0
10, 29568, Note_on_c, 8, 65, 75
10, 29589, Note_off_c, 8, 65, 0
10, 29592, Note_on_c, 8, 60, 75
10, 29613, Note_off_c, 8, 60, 0
10, 29616, Note_on_c, 8, 67, 75
10, 29658, Note_off_c, 8, 67, 0
10, 29664, Note_on_c, 8, 67, 75
10, 29706, Note_off_c, 8, 67, 0
10, 29712, Note_on_c, 8, 67, 75
10, 29754, Note_off_c, 8, 67, 0
10, 29760, Note_on_c, 8, 67, 75
10, 29802, Note_off_c, 8, 67, 0
10, 29808, Note_on_c, 8, 72, 75
10, 29829, Note_off_c, 8, 72, 0
10, 29832, Note_on_c, 8, 71, 75
10, 29853, Note_off_c, 8, 71, 0
10, 29856, Note_on_c, 8, 72, 75
10, 29877, Note_off_c, 8, 72, 0
10, 29880, Note_on_c, 8, 67, 75
10, 29901, Note_off_c, 8, 67, 0
10, 29904, Note_on_c, 8, 74, 75
10, 29946, Note_off_c, 8, 74, 0
10, 29952, Note_on_c, 8, 74, 75
10, 29994, Note_off_c, 8, 74, 0
10, 30000, Note_on_c, 8, 74, 75
10, 30042, Note_off_c, 8, 74, 0
10, 30048, Note_on_c, 8, 72, 75
10, 30090, Note_off_c, 8, 72, 0
10, 30096, Note_on_c, 8, 76, 75
10, 30117, Note_off_c, 8, 76, 0
10, 30120, Note_on_c, 8, 74, 75
10, 30141, Note_off_c, 8, 74, 0
10, 30144, Note_on_c, 8, 72, 75
10, 30165, Note_off_c, 8, 72, 0
10, 30168, Note_on_c, 8, 71, 75
10, 30189, Note_off_c, 8, 71, 0
10, 30192, Note_on_c, 8, 72, 75
10, 30213, Note_off_c, 8, 72, 0
10, 30216, Note_on_c, 8, 74, 75
10, 30237, Note_off_c, 8, 74, 0
10, 30240, Note_on_c, 8, 76, 75
10, 30250, Note_off_c, 8, 76, 0
10, 30252, Note_on_c, 8, 74, 75
10, 30262, Note_off_c, 8, 74, 0
10, 30264, Note_on_c, 8, 76, 75
10, 30274, Note_off_c, 8, 76, 0
10, 30276, Note_on_c, 8, 74, 75
10, 30286, Note_off_c, 8, 74, 0
10, 30288, Note_on_c, 8, 76, 75
10, 30298, Note_off_c, 8, 76, 0
10, 30300, Note_on_c, 8, 74, 75
10, 30310, Note_off_c, 8, 74, 0
10, 30312, Note_on_c, 8, 72, 75
10, 30322, Note_off_c, 8, 72, 0
10, 30324, Note_on_c, 8, 74, 75
10, 30334, Note_off_c, 8, 74, 0
10, 30336, Note_on_c, 8, 76, 75
10, 30420, Note_off_c, 8, 76, 0
10, 30960, Note_on_c, 8, 60, 75
10, 31002, Note_off_c, 8, 60, 0
10, 31008, Note_on_c, 8, 60, 75
10, 31050, Note_off_c, 8, 60, 0
10, 31056, Note_on_c, 8, 60, 75
10, 31098, Note_off_c, 8, 60, 0
10, 31104, Note_on_c, 8, 65, 75
10, 31125, Note_off_c, 8, 65, 0
10, 31128, Note_on_c, 8, 64, 75
10, 31149, Note_off_c, 8, 64, 0
10, 31152, Note_on_c, 8, 65, 75
10, 31173, Note_off_c, 8, 65, 0
10, 31176, Note_on_c, 8, 60, 75
10, 31197, Note_off_c, 8, 60, 0
10, 31200, Note_on_c, 8, 67, 75
10, 31242, Note_off_c, 8, 67, 0
10, 31248, Note_on_c, 8, 67, 75
10, 31290, Note_off_c, 8, 67, 0
10, 31296, Note_on_c, 8, 67, 75
10, 31338, Note_off_c, 8, 67, 0
10, 31344, Note_on_c, 8, 67, 75
10, 31386, Note_off_c, 8, 67, 0
10, 31392, Note_on_c, 8, 72, 75
10, 31413, Note_off_c, 8, 72, 0
10, 31416, Note_on_c, 8, 71, 75
10, 31437, Note_off_c, 8, 71, 0
10, 31440, Note_on_c, 8, 72, 75
10, 31461, Note_off_c, 8, 72, 0
10, 31464, Note_on_c, 8, 67, 75
10, 31485, Note_off_c, 8, 67, 0
10, 31488, Note_on_c, 8, 74, 75
10, 31530, Note_off_c, 8, 74, 0
10, 31536, Note_on_c, 8, 74, 75
10, 31578, Note_off_c, 8, 74, 0
10, 31584, Note_on_c, 8, 74, 75
10, 31626, Note_off_c, 8, 74, 0
10, 31632, Note_on_c, 8, 72, 75
10, 31674, Note_off_c, 8, 72, 0
10, 31680, Note_on_c, 8, 76, 75
10, 31701, Note_off_c, 8, 76, 0
10, 31704, Note_on_c, 8, 74, 75
10, 31725, Note_off_c, 8, 74, 0
10, 31728, Note_on_c, 8, 72, 75
10, 31749, Note_off_c, 8, 72, 0
10, 31752, Note_on_c, 8, 71, 75
10, 31773, Note_off_c, 8, 71, 0
10, 31776, Note_on_c, 8, 72, 75
10, 31797, Note_off_c, 8, 72, 0
10, 31800, Note_on_c, 8, 74, 75
10, 31821, Note_off_c, 8, 74, 0
10, 31824, Note_on_c, 8, 76, 75
10, 31834, Note_off_c, 8, 76, 0
10, 31836, Note_on_c, 8, 74, 75
10, 31846, Note_off_c, 8, 74, 0
10, 31848, Note_on_c, 8, 76, 75
10, 31858, Note_off_c, 8, 76, 0
10, 31860, Note_on_c, 8, 74, 75
10, 31870, Note_off_c, 8, 74, 0
10, 31872, Note_on_c, 8, 76, 75
10, 31882, Note_off_c, 8, 76, 0
10, 31884, Note_on_c, 8, 74, 75
10, 31894, Note_off_c, 8, 74, 0
10, 31896, Note_on_c, 8, 72, 75
10, 31906, Note_off_c, 8, 72, 0
10, 31908, Note_on_c, 8, 74, 75
10, 31918, Note_off_c, 8, 74, 0
10, 31920, Note_on_c, 8, 76, 75
10, 32004, Note_off_c, 8, 76, 0
10, 32016, Note_on_c, 8, 72, 75
10, 32037, Note_off_c, 8, 72, 0
10, 32064, Note_on_c, 8, 72, 75
10, 32106, Note_off_c, 8, 72, 0
10, 32208, Note_on_c, 8, 72, 75
10, 32250, Note_off_c, 8, 72, 0
10, 32352, Note_on_c, 8, 74, 75
10, 32394, Note_off_c, 8, 74, 0
10, 32496, Note_on_c, 8, 69, 75
10, 32538, Note_off_c, 8, 69, 0
10, 32640, Note_on_c, 8, 70, 75
10, 32682, Note_off_c, 8, 70, 0
10, 32784, Note_on_c, 8, 65, 75
10, 32826, Note_off_c, 8, 65, 0
10, 32928, Note_on_c, 8, 67, 75
10, 32970, Note_off_c, 8, 67, 0
10, 32976, Note_on_c, 8, 67, 75
10, 33018, Note_off_c, 8, 67, 0
10, 33024, Note_on_c, 8, 67, 75
10, 33066, Note_off_c, 8, 67, 0
10, 33072, Note_on_c, 8, 67, 75
10, 33114, Note_off_c, 8, 67, 0
10, 33216, Note_on_c, 8, 67, 75
10, 33258, Note_off_c, 8, 67, 0
10, 33264, Note_on_c, 8, 67, 75
10, 33306, Note_off_c, 8, 67, 0
10, 33312, Note_on_c, 8, 67, 75
10, 33354, Note_off_c, 8, 67, 0
10, 33360, Note_on_c, 8, 67, 75
10, 33402, Note_off_c, 8, 67, 0
10, 33408, Note_on_c, 8, 69, 75
10, 33429, Note_off_c, 8, 69, 0
10, 33432, Note_on_c, 8, 67, 75
10, 33453, Note_off_c, 8, 67, 0
10, 33456, Note_on_c, 8, 65, 75
10, 33477, Note_off_c, 8, 65, 0
10, 33480, Note_on_c, 8, 64, 75
10, 33501, Note_off_c, 8, 64, 0
10, 33504, Note_on_c, 8, 65, 75
10, 33546, Note_off_c, 8, 65, 0
10, 33552, Note_on_c, 8, 65, 75
10, 33594, Note_off_c, 8, 65, 0
10, 33600, Note_on_c, 8, 65, 75
10, 33642, Note_off_c, 8, 65, 0
10, 33648, Note_on_c, 8, 65, 75
10, 33690, Note_off_c, 8, 65, 0
10, 33792, Note_on_c, 8, 65, 75
10, 33834, Note_off_c, 8, 65, 0
10, 33840, Note_on_c, 8, 65, 75
10, 33882, Note_off_c, 8, 65, 0
10, 33888, Note_on_c, 8, 65, 75
10, 33930, Note_off_c, 8, 65, 0
10, 33936, Note_on_c, 8, 65, 75
10, 33978, Note_off_c, 8, 65, 0
10, 33984, Note_on_c, 8, 67, 75
10, 34026, Note_off_c, 8, 67, 0
10, 34032, Note_on_c, 8, 62, 75
10, 34074, Note_off_c, 8, 62, 0
10, 34080, Note_on_c, 8, 64, 75
10, 34122, Note_off_c, 8, 64, 0
10, 34128, Note_on_c, 8, 60, 75
10, 34170, Note_off_c, 8, 60, 0
10, 34176, Note_on_c, 8, 64, 75
10, 34197, Note_off_c, 8, 64, 0
10, 34200, Note_on_c, 8, 62, 75
10, 34221, Note_off_c, 8, 62, 0
10, 34224, Note_on_c, 8, 64, 75
10, 34245, Note_off_c, 8, 64, 0
10, 34248, Note_on_c, 8, 60, 75
10, 34269, Note_off_c, 8, 60, 0
10, 34272, Note_on_c, 8, 67, 75
10, 34293, Note_off_c, 8, 67, 0
10, 34296, Note_on_c, 8, 65, 75
10, 34317, Note_off_c, 8, 65, 0
10, 34320, Note_on_c, 8, 67, 75
10, 34341, Note_off_c, 8, 67, 0
10, 34344, Note_on_c, 8, 64, 75
10, 34365, Note_off_c, 8, 64, 0
10, 34368, Note_on_c, 8, 70, 75
10, 34389, Note_off_c, 8, 70, 0
10, 34392, Note_on_c, 8, 69, 75
10, 34413, Note_off_c, 8, 69, 0
10, 34416, Note_on_c, 8, 70, 75
10, 34437, Note_off_c, 8, 70, 0
10, 34440, Note_on_c, 8, 67, 75
10, 34461, Note_off_c, 8, 67, 0
10, 34464, Note_on_c, 8, 76, 75
10, 34485, Note_off_c, 8, 76, 0
10, 34488, Note_on_c, 8, 74, 75
10, 34509, Note_off_c, 8, 74, 0
10, 34512, Note_on_c, 8, 76, 75
10, 34533, Note_off_c, 8, 76, 0
10, 34536, Note_on_c, 8, 72, 75
10, 34557, Note_off_c, 8, 72, 0
10, 34560, Note_on_c, 8, 79, 75
10, 34581, Note_off_c, 8, 79, 0
10, 34584, Note_on_c, 8, 77, 75
10, 34605, Note_off_c, 8, 77, 0
10, 34608, Note_on_c, 8, 79, 75
10, 34629, Note_off_c, 8, 79, 0
10, 34632, Note_on_c, 8, 76, 75
10, 34653, Note_off_c, 8, 76, 0
10, 34656, Note_on_c, 8, 77, 75
10, 34698, Note_off_c, 8, 77, 0
10, 34704, Note_on_c, 8, 72, 75
10, 34746, Note_off_c, 8, 72, 0
10, 34752, Note_on_c, 8, 74, 75
10, 34821, Note_off_c, 8, 74, 0
10, 34824, Note_on_c, 8, 77, 75
10, 34845, Note_off_c, 8, 77, 0
10, 34848, Note_on_c, 8, 76, 75
10, 34911, Note_off_c, 8, 76, 0
10, 34920, Note_on_c, 8, 77, 75
10, 34941, Note_off_c, 8, 77, 0
10, 34944, Note_on_c, 8, 77, 75
10, 34986, Note_off_c, 8, 77, 0
10, 34992, Note_on_c, 8, 72, 75
10, 35034, Note_off_c, 8, 72, 0
10, 35040, Note_on_c, 8, 69, 75
10, 35082, Note_off_c, 8, 69, 0
10, 35088, Note_on_c, 8, 69, 75
10, 35130, Note_off_c, 8, 69, 0
10, 35136, Note_on_c, 8, 67, 75
10, 35178, Note_off_c, 8, 67, 0
10, 35184, Note_on_c, 8, 64, 75
10, 35226, Note_off_c, 8, 64, 0
10, 35232, Note_on_c, 8, 65, 75
10, 35295, Note_off_c, 8, 65, 0
10, 35304, Note_on_c, 8, 64, 75
10, 35325, Note_off_c, 8, 64, 0
10, 35328, Note_on_c, 8, 62, 75
10, 35376, Tempo, 750000
10, 35397, Note_off_c, 8, 62, 0
10, 35400, Note_on_c, 8, 65, 75
10, 35421, Note_off_c, 8, 65, 0
10, 35424, Note_on_c, 8, 64, 75
10, 35487, Note_off_c, 8, 64, 0
10, 35496, Note_on_c, 8, 65, 75
10, 35517, Note_off_c, 8, 65, 0
10, 35520, Note_on_c, 8, 65, 75
10, 35796, Note_off_c, 8, 65, 0
10, 35796, End_track
11, 0, Start_track
11, 0, Title_t, "Cello"
11, 0, Control_c, 11, 0, 0
11, 0, Program_c, 11, 42
11, 0, Time_signature, 6, 2, 96, 8
11, 0, Tempo, 600000
11, 96, Tempo, 600000
11, 96, Note_on_c, 11, 53, 49
11, 138, Note_off_c, 11, 53, 0
11, 144, Note_on_c, 11, 57, 49
11, 186, Note_off_c, 11, 57, 0
11, 192, Note_on_c, 11, 60, 49
11, 234, Note_off_c, 11, 60, 0
11, 240, Note_on_c, 11, 57, 49
11, 282, Note_off_c, 11, 57, 0
11, 288, Note_on_c, 11, 53, 49
11, 330, Note_off_c, 11, 53, 0
11, 384, Note_on_c, 11, 52, 49
11, 426, Note_off_c, 11, 52, 0
11, 432, Note_on_c, 11, 55, 49
11, 474, Note_off_c, 11, 55, 0
11, 480, Note_on_c, 11, 60, 49
11, 522, Note_off_c, 11, 60, 0
11, 528, Note_on_c, 11, 52, 49
11, 570, Note_off_c, 11, 52, 0
11, 576, Note_on_c, 11, 48, 49
11, 618, Note_off_c, 11, 48, 0
11, 672, Note_on_c, 11, 50, 49
11, 714, Note_off_c, 11, 50, 0
11, 720, Note_on_c, 11, 53, 49
11, 762, Note_off_c, 11, 53, 0
11, 768, Note_on_c, 11, 50, 49
11, 810, Note_off_c, 11, 50, 0
11, 816, Note_on_c, 11, 45, 49
11, 858, Note_off_c, 11, 45, 0
11, 864, Note_on_c, 11, 41, 49
11, 906, Note_off_c, 11, 41, 0
11, 960, Note_on_c, 11, 48, 49
11, 1002, Note_off_c, 11, 48, 0
11, 1008, Note_on_c, 11, 48, 49
11, 1050, Note_off_c, 11, 48, 0
11, 1056, Note_on_c, 11, 48, 49
11, 1098, Note_off_c, 11, 48, 0
11, 1104, Note_on_c, 11, 48, 49
11, 1146, Note_off_c, 11, 48, 0
11, 1152, Note_on_c, 11, 52, 49
11, 1173, Note_off_c, 11, 52, 0
11, 1176, Note_on_c, 11, 50, 49
11, 1197, Note_off_c, 11, 50, 0
11, 1200, Note_on_c, 11, 52, 49
11, 1221, Note_off_c, 11, 52, 0
11, 1224, Note_on_c, 11, 48, 49
11, 1245, Note_off_c, 11, 48, 0
11, 1248, Note_on_c, 11, 53, 49
11, 1290, Note_off_c, 11, 53, 0
11, 1296, Note_on_c, 11, 57, 49
11, 1338, Note_off_c, 11, 57, 0
11, 1344, Note_on_c, 11, 62, 49
11, 1386, Note_off_c, 11, 62, 0
11, 1392, Note_on_c, 11, 52, 49
11, 1434, Note_off_c, 11, 52, 0
11, 1440, Note_on_c, 11, 55, 49
11, 1482, Note_off_c, 11, 55, 0
11, 1488, Note_on_c, 11, 60, 49
11, 1530, Note_off_c, 11, 60, 0
11, 1536, Note_on_c, 11, 50, 49
11, 1578, Note_off_c, 11, 50, 0
11, 1584, Note_on_c, 11, 53, 49
11, 1626, Note_off_c, 11, 53, 0
11, 1632, Note_on_c, 11, 58, 49
11, 1674, Note_off_c, 11, 58, 0
11, 1680, Note_on_c, 11, 48, 49
11, 1722, Note_off_c, 11, 48, 0
11, 1728, Note_on_c, 11, 52, 49
11, 1770, Note_off_c, 11, 52, 0
11, 1776, Note_on_c, 11, 57, 49
11, 1818, Note_off_c, 11, 57, 0
11, 1824, Note_on_c, 11, 46, 49
11, 1866, Note_off_c, 11, 46, 0
11, 1872, Note_on_c, 11, 50, 49
11, 1914, Note_off_c, 11, 50, 0
11, 1920, Note_on_c, 11, 55, 49
11, 1962, Note_off_c, 11, 55, 0
11, 1968, Note_on_c, 11, 45, 49
11, 2010, Note_off_c, 11, 45, 0
11, 2016, Note_on_c, 11, 48, 49
11, 2058, Note_off_c, 11, 48, 0
11, 2064, Note_on_c, 11, 53, 49
11, 2106, Note_off_c, 11, 53, 0
11, 2112, Note_on_c, 11, 43, 49
11, 2154, Note_off_c, 11, 43, 0
11, 2160, Note_on_c, 11, 50, 49
11, 2202, Note_off_c, 11, 50, 0
11, 2208, Note_on_c, 11, 55, 49
11, 2250, Note_off_c, 11, 55, 0
11, 2256, Note_on_c, 11, 41, 49
11, 2298, Note_off_c, 11, 41, 0
11, 2304, Note_on_c, 11, 50, 49
11, 2346, Note_off_c, 11, 50, 0
11, 2352, Note_on_c, 11, 55, 49
11, 2394, Note_off_c, 11, 55, 0
11, 2400, Note_on_c, 11, 40, 49
11, 2442, Note_off_c, 11, 40, 0
11, 2448, Note_on_c, 11, 48, 49
11, 2490, Note_off_c, 11, 48, 0
11, 2496, Note_on_c, 11, 55, 49
11, 2538, Note_off_c, 11, 55, 0
11, 2544, Note_on_c, 11, 52, 49
11, 2586, Note_off_c, 11, 52, 0
11, 2592, Note_on_c, 11, 48, 49
11, 2634, Note_off_c, 11, 48, 0
11, 2640, Note_on_c, 11, 60, 49
11, 2682, Note_off_c, 11, 60, 0
11, 2688, Note_on_c, 11, 41, 49
11, 2730, Note_off_c, 11, 41, 0
11, 2736, Note_on_c, 11, 48, 49
11, 2778, Note_off_c, 11, 48, 0
11, 2784, Note_on_c, 11, 53, 49
11, 2826, Note_off_c, 11, 53, 0
11, 2832, Note_on_c, 11, 40, 49
11, 2874, Note_off_c, 11, 40, 0
11, 2880, Note_on_c, 11, 48, 49
11, 2922, Note_off_c, 11, 48, 0
11, 2928, Note_on_c, 11, 53, 49
11, 2970, Note_off_c, 11, 53, 0
11, 2976, Note_on_c, 11, 38, 49
11, 3018, Note_off_c, 11, 38, 0
11, 3024, Note_on_c, 11, 50, 49
11, 3066, Note_off_c, 11, 50, 0
11, 3072, Note_on_c, 11, 45, 49
11, 3114, Note_off_c, 11, 45, 0
11, 3120, Note_on_c, 11, 46, 49
11, 3162, Note_off_c, 11, 46, 0
11, 3168, Note_on_c, 11, 50, 49
11, 3210, Note_off_c, 11, 50, 0
11, 3216, Note_on_c, 11, 43, 49
11, 3258, Note_off_c, 11, 43, 0
11, 3264, Note_on_c, 11, 48, 49
11, 3306, Note_off_c, 11, 48, 0
11, 3312, Note_on_c, 11, 52, 49
11, 3354, Note_off_c, 11, 52, 0
11, 3360, Note_on_c, 11, 55, 49
11, 3402, Note_off_c, 11, 55, 0
11, 3408, Note_on_c, 11, 48, 49
11, 3450, Note_off_c, 11, 48, 0
11, 3456, Note_on_c, 11, 52, 49
11, 3498, Note_off_c, 11, 52, 0
11, 3504, Note_on_c, 11, 55, 49
11, 3546, Note_off_c, 11, 55, 0
11, 3552, Note_on_c, 11, 48, 49
11, 3594, Note_off_c, 11, 48, 0
11, 3600, Note_on_c, 11, 52, 49
11, 3642, Note_off_c, 11, 52, 0
11, 3648, Note_on_c, 11, 55, 49
11, 3690, Note_off_c, 11, 55, 0
11, 3696, Note_on_c, 11, 48, 49
11, 3738, Note_off_c, 11, 48, 0
11, 3744, Note_on_c, 11, 52, 49
11, 3786, Note_off_c, 11, 52, 0
11, 3792, Note_on_c, 11, 48, 49
11, 3834, Note_off_c, 11, 48, 0
11, 3840, Note_on_c, 11, 53, 49
11, 3861, Note_off_c, 11, 53, 0
11, 3864, Note_on_c, 11, 52, 49
11, 3885, Note_off_c, 11, 52, 0
11, 3888, Note_on_c, 11, 53, 49
11, 3909, Note_off_c, 11, 53, 0
11, 3912, Note_on_c, 11, 52, 49
11, 3933, Note_off_c, 11, 52, 0
11, 3936, Note_on_c, 11, 50, 49
11, 4005, Note_off_c, 11, 50, 0
11, 4008, Note_on_c, 11, 46, 49
11, 4029, Note_off_c, 11, 46, 0
11, 4032, Note_on_c, 11, 48, 49
11, 4074, Note_off_c, 11, 48, 0
11, 4080, Note_on_c, 11, 36, 49
11, 4122, Note_off_c, 11, 36, 0
11, 4128, Note_on_c, 11, 41, 49
11, 4170, Note_off_c, 11, 41, 0
11, 4176, Note_on_c, 11, 45, 49
11, 4218, Note_off_c, 11, 45, 0
11, 4224, Note_on_c, 11, 41, 49
11, 4266, Note_off_c, 11, 41, 0
11, 4272, Note_on_c, 11, 38, 49
11, 4314, Note_off_c, 11, 38, 0
11, 4320, Note_on_c, 11, 43, 49
11, 4362, Note_off_c, 11, 43, 0
11, 4368, Note_on_c, 11, 36, 49
11, 4410, Note_off_c, 11, 36, 0
11, 4416, Note_on_c, 11, 41, 49
11, 4458, Note_off_c, 11, 41, 0
11, 4464, Note_on_c, 11, 45, 49
11, 4506, Note_off_c, 11, 45, 0
11, 4512, Note_on_c, 11, 50, 49
11, 4581, Note_off_c, 11, 50, 0
11, 4584, Note_on_c, 11, 46, 49
11, 4605, Note_off_c, 11, 46, 0
11, 4608, Note_on_c, 11, 48, 49
11, 4650, Note_off_c, 11, 48, 0
11, 4656, Note_on_c, 11, 36, 49
11, 4698, Note_off_c, 11, 36, 0
11, 4704, Note_on_c, 11, 41, 36
11, 4725, Note_off_c, 11, 41, 0
11, 4728, Note_on_c, 11, 43, 36
11, 4749, Note_off_c, 11, 43, 0
11, 4752, Note_on_c, 11, 45, 36
11, 4773, Note_off_c, 11, 45, 0
11, 4776, Note_on_c, 11, 43, 36
11, 4797, Note_off_c, 11, 43, 0
11, 4800, Note_on_c, 11, 45, 36
11, 4821, Note_off_c, 11, 45, 0
11, 4824, Note_on_c, 11, 41, 36
11, 4845, Note_off_c, 11, 41, 0
11, 4848, Note_on_c, 11, 53, 36
11, 4890, Note_off_c, 11, 53, 0
11, 4896, Note_on_c, 11, 52, 36
11, 4938, Note_off_c, 11, 52, 0
11, 4944, Note_on_c, 11, 50, 36
11, 4986, Note_off_c, 11, 50, 0
11, 4992, Note_on_c, 11, 48, 36
11, 5013, Note_off_c, 11, 48, 0
11, 5016, Note_on_c, 11, 50, 36
11, 5037, Note_off_c, 11, 50, 0
11, 5040, Note_on_c, 11, 52, 36
11, 5061, Note_off_c, 11, 52, 0
11, 5064, Note_on_c, 11, 50, 36
11, 5085, Note_off_c, 11, 50, 0
11, 5088, Note_on_c, 11, 52, 36
11, 5109, Note_off_c, 11, 52, 0
11, 5112, Note_on_c, 11, 48, 36
11, 5133, Note_off_c, 11, 48, 0
11, 5136, Note_on_c, 11, 58, 36
11, 5178, Note_off_c, 11, 58, 0
11, 5184, Note_on_c, 11, 57, 36
11, 5226, Note_off_c, 11, 57, 0
11, 5232, Note_on_c, 11, 55, 36
11, 5274, Note_off_c, 11, 55, 0
11, 5280, Note_on_c, 11, 57, 36
11, 5322, Note_off_c, 11, 57, 0
11, 5328, Note_on_c, 11, 50, 36
11, 5370, Note_off_c, 11, 50, 0
11, 5376, Note_on_c, 11, 52, 36
11, 5418, Note_off_c, 11, 52, 0
11, 5424, Note_on_c, 11, 53, 36
11, 5466, Note_off_c, 11, 53, 0
11, 5472, Note_on_c, 11, 52, 36
11, 5493, Note_off_c, 11, 52, 0
11, 5496, Note_on_c, 11, 50, 36
11, 5517, Note_off_c, 11, 50, 0
11, 5520, Note_on_c, 11, 48, 36
11, 5541, Note_off_c, 11, 48, 0
11, 5544, Note_on_c, 11, 46, 36
11, 5565, Note_off_c, 11, 46, 0
11, 5568, Note_on_c, 11, 45, 36
11, 5589, Note_off_c, 11, 45, 0
11, 5592, Note_on_c, 11, 46, 36
11, 5613, Note_off_c, 11, 46, 0
11, 5616, Note_on_c, 11, 48, 36
11, 5626, Note_off_c, 11, 48, 0
11, 5628, Note_on_c, 11, 46, 36
11, 5638, Note_off_c, 11, 46, 0
11, 5640, Note_on_c, 11, 48, 36
11, 5650, Note_off_c, 11, 48, 0
11, 5652, Note_on_c, 11, 46, 36
11, 5662, Note_off_c, 11, 46, 0
11, 5664, Note_on_c, 11, 48, 36
11, 5674, Note_off_c, 11, 48, 0
11, 5676, Note_on_c, 11, 46, 36
11, 5686, Note_off_c, 11, 46, 0
11, 5688, Note_on_c, 11, 45, 36
11, 5698, Note_off_c, 11, 45, 0
11, 5700, Note_on_c, 11, 46, 36
11, 5710, Note_off_c, 11, 46, 0
11, 5712, Note_on_c, 11, 48, 36
11, 5733, Note_off_c, 11, 48, 0
11, 5736, Note_on_c, 11, 50, 36
11, 5757, Note_off_c, 11, 50, 0
11, 5760, Note_on_c, 11, 52, 36
11, 5781, Note_off_c, 11, 52, 0
11, 5784, Note_on_c, 11, 50, 36
11, 5805, Note_off_c, 11, 50, 0
11, 5808, Note_on_c, 11, 52, 36
11, 5829, Note_off_c, 11, 52, 0
11, 5832, Note_on_c, 11, 48, 36
11, 5853, Note_off_c, 11, 48, 0
11, 5856, Note_on_c, 11, 53, 36
11, 5898, Note_off_c, 11, 53, 0
11, 5904, Note_on_c, 11, 57, 36
11, 5946, Note_off_c, 11, 57, 0
11, 5952, Note_on_c, 11, 60, 36
11, 5994, Note_off_c, 11, 60, 0
11, 6000, Note_on_c, 11, 57, 36
11, 6042, Note_off_c, 11, 57, 0
11, 6048, Note_on_c, 11, 53, 36
11, 6090, Note_off_c, 11, 53, 0
11, 6144, Note_on_c, 11, 52, 36
11, 6186, Note_off_c, 11, 52, 0
11, 6192, Note_on_c, 11, 55, 36
11, 6234, Note_off_c, 11, 55, 0
11, 6240, Note_on_c, 11, 60, 36
11, 6282, Note_off_c, 11, 60, 0
11, 6288, Note_on_c, 11, 52, 36
11, 6330, Note_off_c, 11, 52, 0
11, 6336, Note_on_c, 11, 48, 36
11, 6378, Note_off_c, 11, 48, 0
11, 6432, Note_on_c, 11, 50, 36
11, 6474, Note_off_c, 11, 50, 0
11, 6480, Note_on_c, 11, 53, 36
11, 6522, Note_off_c, 11, 53, 0
11, 6528, Note_on_c, 11, 50, 36
11, 6570, Note_off_c, 11, 50, 0
11, 6576, Note_on_c, 11, 45, 36
11, 6618, Note_off_c, 11, 45, 0
11, 6624, Note_on_c, 11, 41, 36
11, 6666, Note_off_c, 11, 41, 0
11, 6720, Note_on_c, 11, 48, 36
11, 6762, Note_off_c, 11, 48, 0
11, 6768, Note_on_c, 11, 48, 36
11, 6810, Note_off_c, 11, 48, 0
11, 6816, Note_on_c, 11, 48, 36
11, 6858, Note_off_c, 11, 48, 0
11, 6864, Note_on_c, 11, 48, 36
11, 6885, Note_off_c, 11, 48, 0
11, 6888, Note_on_c, 11, 50, 36
11, 6909, Note_off_c, 11, 50, 0
11, 6912, Note_on_c, 11, 52, 36
11, 6933, Note_off_c, 11, 52, 0
11, 6936, Note_on_c, 11, 50, 36
11, 6957, Note_off_c, 11, 50, 0
11, 6960, Note_on_c, 11, 52, 36
11, 6981, Note_off_c, 11, 52, 0
11, 6984, Note_on_c, 11, 48, 36
11, 7005, Note_off_c, 11, 48, 0
11, 7008, Note_on_c, 11, 53, 36
11, 7029, Note_off_c, 11, 53, 0
11, 7032, Note_on_c, 11, 55, 36
11, 7053, Note_off_c, 11, 55, 0
11, 7056, Note_on_c, 11, 57, 36
11, 7077, Note_off_c, 11, 57, 0
11, 7080, Note_on_c, 11, 55, 36
11, 7101, Note_off_c, 11, 55, 0
11, 7104, Note_on_c, 11, 57, 36
11, 7125, Note_off_c, 11, 57, 0
11, 7128, Note_on_c, 11, 53, 36
11, 7149, Note_off_c, 11, 53, 0
11, 7152, Note_on_c, 11, 47, 36
11, 7173, Note_off_c, 11, 47, 0
11, 7176, Note_on_c, 11, 48, 36
11, 7197, Note_off_c, 11, 48, 0
11, 7200, Note_on_c, 11, 50, 36
11, 7221, Note_off_c, 11, 50, 0
11, 7224, Note_on_c, 11, 48, 36
11, 7245, Note_off_c, 11, 48, 0
11, 7248, Note_on_c, 11, 50, 36
11, 7269, Note_off_c, 11, 50, 0
11, 7272, Note_on_c, 11, 47, 36
11, 7293, Note_off_c, 11, 47, 0
11, 7296, Note_on_c, 11, 52, 36
11, 7317, Note_off_c, 11, 52, 0
11, 7320, Note_on_c, 11, 53, 36
11, 7341, Note_off_c, 11, 53, 0
11, 7344, Note_on_c, 11, 55, 36
11, 7365, Note_off_c, 11, 55, 0
11, 7368, Note_on_c, 11, 53, 36
11, 7389, Note_off_c, 11, 53, 0
11, 7392, Note_on_c, 11, 55, 36
11, 7413, Note_off_c, 11, 55, 0
11, 7416, Note_on_c, 11, 52, 36
11, 7437, Note_off_c, 11, 52, 0
11, 7440, Note_on_c, 11, 45, 36
11, 7461, Note_off_c, 11, 45, 0
11, 7464, Note_on_c, 11, 47, 36
11, 7485, Note_off_c, 11, 47, 0
11, 7488, Note_on_c, 11, 48, 36
11, 7509, Note_off_c, 11, 48, 0
11, 7512, Note_on_c, 11, 47, 36
11, 7533, Note_off_c, 11, 47, 0
11, 7536, Note_on_c, 11, 48, 36
11, 7557, Note_off_c, 11, 48, 0
11, 7560, Note_on_c, 11, 45, 36
11, 7581, Note_off_c, 11, 45, 0
11, 7584, Note_on_c, 11, 50, 36
11, 7605, Note_off_c, 11, 50, 0
11, 7608, Note_on_c, 11, 52, 36
11, 7629, Note_off_c, 11, 52, 0
11, 7632, Note_on_c, 11, 53, 36
11, 7653, Note_off_c, 11, 53, 0
11, 7656, Note_on_c, 11, 52, 36
11, 7677, Note_off_c, 11, 52, 0
11, 7680, Note_on_c, 11, 53, 36
11, 7701, Note_off_c, 11, 53, 0
11, 7704, Note_on_c, 11, 50, 36
11, 7725, Note_off_c, 11, 50, 0
11, 7728, Note_on_c, 11, 43, 36
11, 7770, Note_off_c, 11, 43, 0
11, 7776, Note_on_c, 11, 43, 36
11, 7818, Note_off_c, 11, 43, 0
11, 7824, Note_on_c, 11, 43, 36
11, 7866, Note_off_c, 11, 43, 0
11, 7872, Note_on_c, 11, 43, 36
11, 7914, Note_off_c, 11, 43, 0
11, 7920, Note_on_c, 11, 43, 36
11, 7962, Note_off_c, 11, 43, 0
11, 7968, Note_on_c, 11, 43, 36
11, 8010, Note_off_c, 11, 43, 0
11, 8016, Note_on_c, 11, 43, 36
11, 8058, Note_off_c, 11, 43, 0
11, 8064, Note_on_c, 11, 43, 36
11, 8106, Note_off_c, 11, 43, 0
11, 8112, Note_on_c, 11, 43, 36
11, 8154, Note_off_c, 11, 43, 0
11, 8160, Note_on_c, 11, 43, 36
11, 8202, Note_off_c, 11, 43, 0
11, 8208, Note_on_c, 11, 43, 36
11, 8250, Note_off_c, 11, 43, 0
11, 8256, Note_on_c, 11, 43, 36
11, 8298, Note_off_c, 11, 43, 0
11, 8304, Note_on_c, 11, 43, 36
11, 8346, Note_off_c, 11, 43, 0
11, 8352, Note_on_c, 11, 43, 36
11, 8394, Note_off_c, 11, 43, 0
11, 8400, Note_on_c, 11, 43, 36
11, 8442, Note_off_c, 11, 43, 0
11, 8448, Note_on_c, 11, 43, 36
11, 8490, Note_off_c, 11, 43, 0
11, 8496, Note_on_c, 11, 55, 36
11, 8517, Note_off_c, 11, 55, 0
11, 8520, Note_on_c, 11, 57, 36
11, 8541, Note_off_c, 11, 57, 0
11, 8544, Note_on_c, 11, 55, 36
11, 8565, Note_off_c, 11, 55, 0
11, 8568, Note_on_c, 11, 53, 36
11, 8589, Note_off_c, 11, 53, 0
11, 8592, Note_on_c, 11, 52, 36
11, 8613, Note_off_c, 11, 52, 0
11, 8616, Note_on_c, 11, 53, 36
11, 8637, Note_off_c, 11, 53, 0
11, 8640, Note_on_c, 11, 52, 36
11, 8661, Note_off_c, 11, 52, 0
11, 8664, Note_on_c, 11, 50, 36
11, 8685, Note_off_c, 11, 50, 0
11, 8688, Note_on_c, 11, 52, 36
11, 8709, Note_off_c, 11, 52, 0
11, 8712, Note_on_c, 11, 48, 36
11, 8733, Note_off_c, 11, 48, 0
11, 8736, Note_on_c, 11, 53, 36
11, 8757, Note_off_c, 11, 53, 0
11, 8760, Note_on_c, 11, 55, 36
11, 8781, Note_off_c, 11, 55, 0
11, 8784, Note_on_c, 11, 53, 36
11, 8805, Note_off_c, 11, 53, 0
11, 8808, Note_on_c, 11, 52, 36
11, 8829, Note_off_c, 11, 52, 0
11, 8832, Note_on_c, 11, 53, 36
11, 8853, Note_off_c, 11, 53, 0
11, 8856, Note_on_c, 11, 52, 36
11, 8877, Note_off_c, 11, 52, 0
11, 8880, Note_on_c, 11, 50, 36
11, 8901, Note_off_c, 11, 50, 0
11, 8904, Note_on_c, 11, 55, 36
11, 8925, Note_off_c, 11, 55, 0
11, 8928, Note_on_c, 11, 53, 36
11, 8949, Note_off_c, 11, 53, 0
11, 8952, Note_on_c, 11, 52, 36
11, 8973, Note_off_c, 11, 52, 0
11, 8976, Note_on_c, 11, 53, 36
11, 8997, Note_off_c, 11, 53, 0
11, 9000, Note_on_c, 11, 50, 36
11, 9021, Note_off_c, 11, 50, 0
11, 9024, Note_on_c, 11, 55, 36
11, 9045, Note_off_c, 11, 55, 0
11, 9048, Note_on_c, 11, 57, 36
11, 9069, Note_off_c, 11, 57, 0
11, 9072, Note_on_c, 11, 55, 36
11, 9093, Note_off_c, 11, 55, 0
11, 9096, Note_on_c, 11, 53, 36
11, 9117, Note_off_c, 11, 53, 0
11, 9120, Note_on_c, 11, 55, 36
11, 9141, Note_off_c, 11, 55, 0
11, 9144, Note_on_c, 11, 53, 36
11, 9165, Note_off_c, 11, 53, 0
11, 9168, Note_on_c, 11, 52, 36
11, 9189, Note_off_c, 11, 52, 0
11, 9192, Note_on_c, 11, 57, 36
11, 9213, Note_off_c, 11, 57, 0
11, 9216, Note_on_c, 11, 55, 36
11, 9237, Note_off_c, 11, 55, 0
11, 9240, Note_on_c, 11, 53, 36
11, 9261, Note_off_c, 11, 53, 0
11, 9264, Note_on_c, 11, 55, 36
11, 9285, Note_off_c, 11, 55, 0
11, 9288, Note_on_c, 11, 52, 36
11, 9309, Note_off_c, 11, 52, 0
11, 9312, Note_on_c, 11, 57, 36
11, 9333, Note_off_c, 11, 57, 0
11, 9336, Note_on_c, 11, 58, 36
11, 9357, Note_off_c, 11, 58, 0
11, 9360, Note_on_c, 11, 57, 36
11, 9381, Note_off_c, 11, 57, 0
11, 9384, Note_on_c, 11, 55, 36
11, 9405, Note_off_c, 11, 55, 0
11, 9408, Note_on_c, 11, 57, 36
11, 9429, Note_off_c, 11, 57, 0
11, 9432, Note_on_c, 11, 55, 36
11, 9453, Note_off_c, 11, 55, 0
11, 9456, Note_on_c, 11, 53, 36
11, 9477, Note_off_c, 11, 53, 0
11, 9480, Note_on_c, 11, 58, 36
11, 9501, Note_off_c, 11, 58, 0
11, 9504, Note_on_c, 11, 57, 36
11, 9525, Note_off_c, 11, 57, 0
11, 9528, Note_on_c, 11, 55, 36
11, 9549, Note_off_c, 11, 55, 0
11, 9552, Note_on_c, 11, 57, 36
11, 9573, Note_off_c, 11, 57, 0
11, 9576, Note_on_c, 11, 53, 36
11, 9597, Note_off_c, 11, 53, 0
11, 9600, Note_on_c, 11, 55, 36
11, 9642, Note_off_c, 11, 55, 0
11, 9648, Note_on_c, 11, 43, 36
11, 9690, Note_off_c, 11, 43, 0
11, 9696, Note_on_c, 11, 43, 36
11, 9738, Note_off_c, 11, 43, 0
11, 9744, Note_on_c, 11, 43, 36
11, 9786, Note_off_c, 11, 43, 0
11, 9792, Note_on_c, 11, 47, 36
11, 9813, Note_off_c, 11, 47, 0
11, 9816, Note_on_c, 11, 45, 36
11, 9837, Note_off_c, 11, 45, 0
11, 9840, Note_on_c, 11, 47, 36
11, 9861, Note_off_c, 11, 47, 0
11, 9864, Note_on_c, 11, 43, 36
11, 9885, Note_off_c, 11, 43, 0
11, 9888, Note_on_c, 11, 48, 36
11, 9930, Note_off_c, 11, 48, 0
11, 9936, Note_on_c, 11, 52, 36
11, 9978, Note_off_c, 11, 52, 0
11, 9984, Note_on_c, 11, 55, 36
11, 10026, Note_off_c, 11, 55, 0
11, 10032, Note_on_c, 11, 52, 36
11, 10074, Note_off_c, 11, 52, 0
11, 10080, Note_on_c, 11, 48, 36
11, 10122, Note_off_c, 11, 48, 0
11, 10176, Note_on_c, 11, 47, 36
11, 10218, Note_off_c, 11, 47, 0
11, 10224, Note_on_c, 11, 50, 36
11, 10266, Note_off_c, 11, 50, 0
11, 10272, Note_on_c, 11, 55, 36
11, 10314, Note_off_c, 11, 55, 0
11, 10320, Note_on_c, 11, 47, 36
11, 10362, Note_off_c, 11, 47, 0
11, 10368, Note_on_c, 11, 43, 36
11, 10410, Note_off_c, 11, 43, 0
11, 10464, Note_on_c, 11, 45, 36
11, 10506, Note_off_c, 11, 45, 0
11, 10512, Note_on_c, 11, 48, 36
11, 10554, Note_off_c, 11, 48, 0
11, 10560, Note_on_c, 11, 45, 36
11, 10602, Note_off_c, 11, 45, 0
11, 10608, Note_on_c, 11, 41, 36
11, 10650, Note_off_c, 11, 41, 0
11, 10656, Note_on_c, 11, 38, 36
11, 10698, Note_off_c, 11, 38, 0
11, 10752, Note_on_c, 11, 43, 36
11, 10794, Note_off_c, 11, 43, 0
11, 10800, Note_on_c, 11, 43, 36
11, 10842, Note_off_c, 11, 43, 0
11, 10848, Note_on_c, 11, 43, 36
11, 10890, Note_off_c, 11, 43, 0
11, 10896, Note_on_c, 11, 43, 36
11, 10917, Note_off_c, 11, 43, 0
11, 10920, Note_on_c, 11, 45, 36
11, 10941, Note_off_c, 11, 45, 0
11, 10944, Note_on_c, 11, 47, 36
11, 10965, Note_off_c, 11, 47, 0
11, 10968, Note_on_c, 11, 45, 36
11, 10989, Note_off_c, 11, 45, 0
11, 10992, Note_on_c, 11, 47, 36
11, 11013, Note_off_c, 11, 47, 0
11, 11016, Note_on_c, 11, 43, 36
11, 11037, Note_off_c, 11, 43, 0
11, 11040, Note_on_c, 11, 50, 36
11, 11061, Note_off_c, 11, 50, 0
11, 11064, Note_on_c, 11, 52, 36
11, 11085, Note_off_c, 11, 52, 0
11, 11088, Note_on_c, 11, 53, 36
11, 11109, Note_off_c, 11, 53, 0
11, 11112, Note_on_c, 11, 52, 36
11, 11133, Note_off_c, 11, 52, 0
11, 11136, Note_on_c, 11, 53, 36
11, 11157, Note_off_c, 11, 53, 0
11, 11160, Note_on_c, 11, 50, 36
11, 11181, Note_off_c, 11, 50, 0
11, 11184, Note_on_c, 11, 52, 36
11, 11205, Note_off_c, 11, 52, 0
11, 11208, Note_on_c, 11, 53, 36
11, 11229, Note_off_c, 11, 53, 0
11, 11232, Note_on_c, 11, 55, 36
11, 11253, Note_off_c, 11, 55, 0
11, 11256, Note_on_c, 11, 52, 36
11, 11277, Note_off_c, 11, 52, 0
11, 11280, Note_on_c, 11, 57, 36
11, 11301, Note_off_c, 11, 57, 0
11, 11304, Note_on_c, 11, 55, 36
11, 11325, Note_off_c, 11, 55, 0
11, 11328, Note_on_c, 11, 57, 36
11, 11349, Note_off_c, 11, 57, 0
11, 11352, Note_on_c, 11, 53, 36
11, 11373, Note_off_c, 11, 53, 0
11, 11376, Note_on_c, 11, 55, 36
11, 11418, Note_off_c, 11, 55, 0
11, 11424, Note_on_c, 11, 43, 36
11, 11466, Note_off_c, 11, 43, 0
11, 11472, Note_on_c, 11, 36, 36
11, 11514, Note_off_c, 11, 36, 0
11, 11520, Note_on_c, 11, 40, 36
11, 11562, Note_off_c, 11, 40, 0
11, 11568, Note_on_c, 11, 43, 36
11, 11610, Note_off_c, 11, 43, 0
11, 11616, Note_on_c, 11, 48, 36
11, 11658, Note_off_c, 11, 48, 0
11, 11664, Note_on_c, 11, 52, 36
11, 11706, Note_off_c, 11, 52, 0
11, 11712, Note_on_c, 11, 57, 36
11, 11754, Note_off_c, 11, 57, 0
11, 11760, Note_on_c, 11, 47, 36
11, 11802, Note_off_c, 11, 47, 0
11, 11808, Note_on_c, 11, 50, 36
11, 11850, Note_off_c, 11, 50, 0
11, 11856, Note_on_c, 11, 55, 36
11, 11898, Note_off_c, 11, 55, 0
11, 11904, Note_on_c, 11, 45, 36
11, 11946, Note_off_c, 11, 45, 0
11, 11952, Note_on_c, 11, 48, 36
11, 11994, Note_off_c, 11, 48, 0
11, 12000, Note_on_c, 11, 53, 36
11, 12042, Note_off_c, 11, 53, 0
11, 12048, Note_on_c, 11, 43, 36
11, 12090, Note_off_c, 11, 43, 0
11, 12096, Note_on_c, 11, 47, 36
11, 12138, Note_off_c, 11, 47, 0
11, 12144, Note_on_c, 11, 52, 36
11, 12186, Note_off_c, 11, 52, 0
11, 12192, Note_on_c, 11, 41, 36
11, 12234, Note_off_c, 11, 41, 0
11, 12240, Note_on_c, 11, 45, 36
11, 12282, Note_off_c, 11, 45, 0
11, 12288, Note_on_c, 11, 50, 36
11, 12330, Note_off_c, 11, 50, 0
11, 12336, Note_on_c, 11, 40, 36
11, 12378, Note_off_c, 11, 40, 0
11, 12384, Note_on_c, 11, 43, 36
11, 12426, Note_off_c, 11, 43, 0
11, 12432, Note_on_c, 11, 48, 36
11, 12474, Note_off_c, 11, 48, 0
11, 12480, Note_on_c, 11, 38, 36
11, 12522, Note_off_c, 11, 38, 0
11, 12528, Note_on_c, 11, 45, 36
11, 12570, Note_off_c, 11, 45, 0
11, 12576, Note_on_c, 11, 50, 36
11, 12618, Note_off_c, 11, 50, 0
11, 12624, Note_on_c, 11, 36, 36
11, 12666, Note_off_c, 11, 36, 0
11, 12672, Note_on_c, 11, 45, 36
11, 12714, Note_off_c, 11, 45, 0
11, 12720, Note_on_c, 11, 50, 36
11, 12762, Note_off_c, 11, 50, 0
11, 12768, Note_on_c, 11, 47, 36
11, 12810, Note_off_c, 11, 47, 0
11, 12816, Note_on_c, 11, 43, 36
11, 12858, Note_off_c, 11, 43, 0
11, 12864, Note_on_c, 11, 50, 36
11, 12906, Note_off_c, 11, 50, 0
11, 12912, Note_on_c, 11, 55, 36
11, 12954, Note_off_c, 11, 55, 0
11, 12960, Note_on_c, 11, 43, 36
11, 13002, Note_off_c, 11, 43, 0
11, 13008, Note_on_c, 11, 55, 36
11, 13050, Note_off_c, 11, 55, 0
11, 13056, Note_on_c, 11, 48, 36
11, 13098, Note_off_c, 11, 48, 0
11, 13104, Note_on_c, 11, 55, 36
11, 13146, Note_off_c, 11, 55, 0
11, 13152, Note_on_c, 11, 60, 36
11, 13194, Note_off_c, 11, 60, 0
11, 13200, Note_on_c, 11, 47, 36
11, 13242, Note_off_c, 11, 47, 0
11, 13248, Note_on_c, 11, 55, 36
11, 13290, Note_off_c, 11, 55, 0
11, 13296, Note_on_c, 11, 60, 36
11, 13338, Note_off_c, 11, 60, 0
11, 13344, Note_on_c, 11, 45, 36
11, 13386, Note_off_c, 11, 45, 0
11, 13392, Note_on_c, 11, 57, 36
11, 13434, Note_off_c, 11, 57, 0
11, 13440, Note_on_c, 11, 52, 36
11, 13482, Note_off_c, 11, 52, 0
11, 13488, Note_on_c, 11, 53, 36
11, 13530, Note_off_c, 11, 53, 0
11, 13536, Note_on_c, 11, 57, 36
11, 13578, Note_off_c, 11, 57, 0
11, 13584, Note_on_c, 11, 50, 36
11, 13626, Note_off_c, 11, 50, 0
11, 13632, Note_on_c, 11, 43, 36
11, 13674, Note_off_c, 11, 43, 0
11, 13680, Note_on_c, 11, 47, 36
11, 13722, Note_off_c, 11, 47, 0
11, 13728, Note_on_c, 11, 50, 36
11, 13770, Note_off_c, 11, 50, 0
11, 13776, Note_on_c, 11, 43, 36
11, 13818, Note_off_c, 11, 43, 0
11, 13824, Note_on_c, 11, 47, 36
11, 13866, Note_off_c, 11, 47, 0
11, 13872, Note_on_c, 11, 50, 36
11, 13914, Note_off_c, 11, 50, 0
11, 13920, Note_on_c, 11, 43, 36
11, 13962, Note_off_c, 11, 43, 0
11, 13968, Note_on_c, 11, 47, 36
11, 14010, Note_off_c, 11, 47, 0
11, 14016, Note_on_c, 11, 50, 36
11, 14058, Note_off_c, 11, 50, 0
11, 14064, Note_on_c, 11, 55, 36
11, 14106, Note_off_c, 11, 55, 0
11, 14112, Note_on_c, 11, 59, 36
11, 14154, Note_off_c, 11, 59, 0
11, 14160, Note_on_c, 11, 55, 36
11, 14202, Note_off_c, 11, 55, 0
11, 14208, Note_on_c, 11, 60, 36
11, 14229, Note_off_c, 11, 60, 0
11, 14232, Note_on_c, 11, 59, 36
11, 14253, Note_off_c, 11, 59, 0
11, 14256, Note_on_c, 11, 60, 36
11, 14277, Note_off_c, 11, 60, 0
11, 14280, Note_on_c, 11, 59, 36
11, 14301, Note_off_c, 11, 59, 0
11, 14304, Note_on_c, 11, 57, 36
11, 14373, Note_off_c, 11, 57, 0
11, 14376, Note_on_c, 11, 53, 36
11, 14397, Note_off_c, 11, 53, 0
11, 14400, Note_on_c, 11, 55, 36
11, 14442, Note_off_c, 11, 55, 0
11, 14448, Note_on_c, 11, 43, 36
11, 14490, Note_off_c, 11, 43, 0
11, 14496, Note_on_c, 11, 48, 36
11, 14538, Note_off_c, 11, 48, 0
11, 14544, Note_on_c, 11, 52, 36
11, 14586, Note_off_c, 11, 52, 0
11, 14592, Note_on_c, 11, 48, 36
11, 14634, Note_off_c, 11, 48, 0
11, 14640, Note_on_c, 11, 45, 36
11, 14682, Note_off_c, 11, 45, 0
11, 14688, Note_on_c, 11, 50, 36
11, 14730, Note_off_c, 11, 50, 0
11, 14736, Note_on_c, 11, 43, 36
11, 14778, Note_off_c, 11, 43, 0
11, 14784, Note_on_c, 11, 48, 36
11, 14826, Note_off_c, 11, 48, 0
11, 14832, Note_on_c, 11, 43, 36
11, 14874, Note_off_c, 11, 43, 0
11, 14880, Note_on_c, 11, 45, 36
11, 14949, Note_off_c, 11, 45, 0
11, 14952, Note_on_c, 11, 41, 36
11, 14973, Note_off_c, 11, 41, 0
11, 14976, Note_on_c, 11, 43, 36
11, 15018, Note_off_c, 11, 43, 0
11, 15024, Note_on_c, 11, 43, 36
11, 15066, Note_off_c, 11, 43, 0
11, 15072, Note_on_c, 11, 48, 36
11, 15093, Note_off_c, 11, 48, 0
11, 15096, Note_on_c, 11, 50, 36
11, 15117, Note_off_c, 11, 50, 0
11, 15120, Note_on_c, 11, 52, 36
11, 15141, Note_off_c, 11, 52, 0
11, 15144, Note_on_c, 11, 50, 36
11, 15165, Note_off_c, 11, 50, 0
11, 15168, Note_on_c, 11, 52, 36
11, 15189, Note_off_c, 11, 52, 0
11, 15192, Note_on_c, 11, 48, 36
11, 15213, Note_off_c, 11, 48, 0
11, 15216, Note_on_c, 11, 53, 36
11, 15237, Note_off_c, 11, 53, 0
11, 15240, Note_on_c, 11, 55, 36
11, 15261, Note_off_c, 11, 55, 0
11, 15264, Note_on_c, 11, 57, 36
11, 15285, Note_off_c, 11, 57, 0
11, 15288, Note_on_c, 11, 55, 36
11, 15309, Note_off_c, 11, 55, 0
11, 15312, Note_on_c, 11, 57, 36
11, 15333, Note_off_c, 11, 57, 0
11, 15336, Note_on_c, 11, 53, 36
11, 15357, Note_off_c, 11, 53, 0
11, 15360, Note_on_c, 11, 58, 36
11, 15381, Note_off_c, 11, 58, 0
11, 15384, Note_on_c, 11, 57, 36
11, 15405, Note_off_c, 11, 57, 0
11, 15408, Note_on_c, 11, 55, 36
11, 15429, Note_off_c, 11, 55, 0
11, 15432, Note_on_c, 11, 57, 36
11, 15453, Note_off_c, 11, 57, 0
11, 15456, Note_on_c, 11, 58, 36
11, 15477, Note_off_c, 11, 58, 0
11, 15480, Note_on_c, 11, 55, 36
11, 15501, Note_off_c, 11, 55, 0
11, 15504, Note_on_c, 11, 57, 36
11, 15525, Note_off_c, 11, 57, 0
11, 15528, Note_on_c, 11, 59, 36
11, 15549, Note_off_c, 11, 59, 0
11, 15552, Note_on_c, 11, 61, 36
11, 15573, Note_off_c, 11, 61, 0
11, 15576, Note_on_c, 11, 59, 36
11, 15597, Note_off_c, 11, 59, 0
11, 15600, Note_on_c, 11, 61, 36
11, 15621, Note_off_c, 11, 61, 0
11, 15624, Note_on_c, 11, 57, 36
11, 15645, Note_off_c, 11, 57, 0
11, 15648, Note_on_c, 11, 62, 36
11, 15690, Note_off_c, 11, 62, 0
11, 15696, Note_on_c, 11, 50, 36
11, 15738, Note_off_c, 11, 50, 0
11, 15744, Note_on_c, 11, 52, 36
11, 15786, Note_off_c, 11, 52, 0
11, 15792, Note_on_c, 11, 53, 36
11, 15834, Note_off_c, 11, 53, 0
11, 15840, Note_on_c, 11, 52, 36
11, 15882, Note_off_c, 11, 52, 0
11, 15888, Note_on_c, 11, 50, 36
11, 15930, Note_off_c, 11, 50, 0
11, 15936, Note_on_c, 11, 48, 36
11, 15978, Note_off_c, 11, 48, 0
11, 15984, Note_on_c, 11, 60, 36
11, 16026, Note_off_c, 11, 60, 0
11, 16032, Note_on_c, 11, 62, 36
11, 16074, Note_off_c, 11, 62, 0
11, 16080, Note_on_c, 11, 64, 36
11, 16122, Note_off_c, 11, 64, 0
11, 16128, Note_on_c, 11, 62, 36
11, 16149, Note_off_c, 11, 62, 0
11, 16152, Note_on_c, 11, 60, 36
11, 16173, Note_off_c, 11, 60, 0
11, 16176, Note_on_c, 11, 59, 36
11, 16197, Note_off_c, 11, 59, 0
11, 16200, Note_on_c, 11, 57, 36
11, 16221, Note_off_c, 11, 57, 0
11, 16224, Note_on_c, 11, 56, 36
11, 16266, Note_off_c, 11, 56, 0
11, 16272, Note_on_c, 11, 52, 36
11, 16314, Note_off_c, 11, 52, 0
11, 16320, Note_on_c, 11, 56, 36
11, 16362, Note_off_c, 11, 56, 0
11, 16368, Note_on_c, 11, 57, 36
11, 16410, Note_off_c, 11, 57, 0
11, 16416, Note_on_c, 11, 45, 36
11, 16458, Note_off_c, 11, 45, 0
11, 16464, Note_on_c, 11, 48, 36
11, 16506, Note_off_c, 11, 48, 0
11, 16512, Note_on_c, 11, 50, 36
11, 16533, Note_off_c, 11, 50, 0
11, 16536, Note_on_c, 11, 52, 36
11, 16557, Note_off_c, 11, 52, 0
11, 16560, Note_on_c, 11, 53, 36
11, 16581, Note_off_c, 11, 53, 0
11, 16584, Note_on_c, 11, 50, 36
11, 16605, Note_off_c, 11, 50, 0
11, 16608, Note_on_c, 11, 48, 36
11, 16629, Note_off_c, 11, 48, 0
11, 16632, Note_on_c, 11, 47, 36
11, 16653, Note_off_c, 11, 47, 0
11, 16656, Note_on_c, 11, 48, 36
11, 16677, Note_off_c, 11, 48, 0
11, 16680, Note_on_c, 11, 50, 36
11, 16701, Note_off_c, 11, 50, 0
11, 16704, Note_on_c, 11, 52, 36
11, 16725, Note_off_c, 11, 52, 0
11, 16728, Note_on_c, 11, 48, 36
11, 16749, Note_off_c, 11, 48, 0
11, 16752, Note_on_c, 11, 47, 36
11, 16773, Note_off_c, 11, 47, 0
11, 16776, Note_on_c, 11, 45, 36
11, 16797, Note_off_c, 11, 45, 0
11, 16800, Note_on_c, 11, 47, 36
11, 16821, Note_off_c, 11, 47, 0
11, 16824, Note_on_c, 11, 48, 36
11, 16845, Note_off_c, 11, 48, 0
11, 16848, Note_on_c, 11, 50, 36
11, 16869, Note_off_c, 11, 50, 0
11, 16872, Note_on_c, 11, 47, 36
11, 16893, Note_off_c, 11, 47, 0
11, 16896, Note_on_c, 11, 45, 36
11, 16917, Note_off_c, 11, 45, 0
11, 16920, Note_on_c, 11, 44, 36
11, 16941, Note_off_c, 11, 44, 0
11, 16944, Note_on_c, 11, 45, 36
11, 16965, Note_off_c, 11, 45, 0
11, 16968, Note_on_c, 11, 50, 36
11, 16989, Note_off_c, 11, 50, 0
11, 16992, Note_on_c, 11, 52, 36
11, 17034, Note_off_c, 11, 52, 0
11, 17040, Note_on_c, 11, 40, 36
11, 17082, Note_off_c, 11, 40, 0
11, 17088, Note_on_c, 11, 45, 36
11, 17109, Note_off_c, 11, 45, 0
11, 17112, Note_on_c, 11, 47, 36
11, 17133, Note_off_c, 11, 47, 0
11, 17136, Note_on_c, 11, 48, 36
11, 17157, Note_off_c, 11, 48, 0
11, 17160, Note_on_c, 11, 47, 36
11, 17181, Note_off_c, 11, 47, 0
11, 17184, Note_on_c, 11, 48, 36
11, 17205, Note_off_c, 11, 48, 0
11, 17208, Note_on_c, 11, 45, 36
11, 17229, Note_off_c, 11, 45, 0
11, 17232, Note_on_c, 11, 50, 36
11, 17253, Note_off_c, 11, 50, 0
11, 17256, Note_on_c, 11, 52, 36
11, 17277, Note_off_c, 11, 52, 0
11, 17280, Note_on_c, 11, 53, 36
11, 17301, Note_off_c, 11, 53, 0
11, 17304, Note_on_c, 11, 52, 36
11, 17325, Note_off_c, 11, 52, 0
11, 17328, Note_on_c, 11, 53, 36
11, 17349, Note_off_c, 11, 53, 0
11, 17352, Note_on_c, 11, 50, 36
11, 17373, Note_off_c, 11, 50, 0
11, 17376, Note_on_c, 11, 43, 36
11, 17397, Note_off_c, 11, 43, 0
11, 17400, Note_on_c, 11, 45, 36
11, 17421, Note_off_c, 11, 45, 0
11, 17424, Note_on_c, 11, 47, 36
11, 17445, Note_off_c, 11, 47, 0
11, 17448, Note_on_c, 11, 45, 36
11, 17469, Note_off_c, 11, 45, 0
11, 17472, Note_on_c, 11, 47, 36
11, 17493, Note_off_c, 11, 47, 0
11, 17496, Note_on_c, 11, 43, 36
11, 17517, Note_off_c, 11, 43, 0
11, 17520, Note_on_c, 11, 48, 36
11, 17541, Note_off_c, 11, 48, 0
11, 17544, Note_on_c, 11, 50, 36
11, 17565, Note_off_c, 11, 50, 0
11, 17568, Note_on_c, 11, 52, 36
11, 17589, Note_off_c, 11, 52, 0
11, 17592, Note_on_c, 11, 50, 36
11, 17613, Note_off_c, 11, 50, 0
11, 17616, Note_on_c, 11, 52, 36
11, 17637, Note_off_c, 11, 52, 0
11, 17640, Note_on_c, 11, 48, 36
11, 17661, Note_off_c, 11, 48, 0
11, 17664, Note_on_c, 11, 53, 36
11, 17685, Note_off_c, 11, 53, 0
11, 17688, Note_on_c, 11, 55, 36
11, 17709, Note_off_c, 11, 55, 0
11, 17712, Note_on_c, 11, 57, 36
11, 17733, Note_off_c, 11, 57, 0
11, 17736, Note_on_c, 11, 55, 36
11, 17757, Note_off_c, 11, 55, 0
11, 17760, Note_on_c, 11, 57, 36
11, 17781, Note_off_c, 11, 57, 0
11, 17784, Note_on_c, 11, 53, 36
11, 17805, Note_off_c, 11, 53, 0
11, 17808, Note_on_c, 11, 59, 36
11, 17850, Note_off_c, 11, 59, 0
11, 17856, Note_on_c, 11, 52, 36
11, 17898, Note_off_c, 11, 52, 0
11, 17904, Note_on_c, 11, 57, 36
11, 17946, Note_off_c, 11, 57, 0
11, 17952, Note_on_c, 11, 50, 75
11, 17994, Note_off_c, 11, 50, 0
11, 18000, Note_on_c, 11, 52, 75
11, 18042, Note_off_c, 11, 52, 0
11, 18048, Note_on_c, 11, 40, 75
11, 18090, Note_off_c, 11, 40, 0
11, 18096, Note_on_c, 11, 45, 75
11, 18138, Note_off_c, 11, 45, 0
11, 18144, Note_on_c, 11, 52, 75
11, 18186, Note_off_c, 11, 52, 0
11, 18192, Note_on_c, 11, 57, 75
11, 18234, Note_off_c, 11, 57, 0
11, 18240, Note_on_c, 11, 47, 75
11, 18282, Note_off_c, 11, 47, 0
11, 18288, Note_on_c, 11, 50, 75
11, 18330, Note_off_c, 11, 50, 0
11, 18336, Note_on_c, 11, 56, 75
11, 18378, Note_off_c, 11, 56, 0
11, 18384, Note_on_c, 11, 45, 75
11, 18426, Note_off_c, 11, 45, 0
11, 18432, Note_on_c, 11, 50, 75
11, 18474, Note_off_c, 11, 50, 0
11, 18480, Note_on_c, 11, 57, 75
11, 18522, Note_off_c, 11, 57, 0
11, 18528, Note_on_c, 11, 44, 75
11, 18570, Note_off_c, 11, 44, 0
11, 18576, Note_on_c, 11, 50, 75
11, 18618, Note_off_c, 11, 50, 0
11, 18624, Note_on_c, 11, 59, 75
11, 18666, Note_off_c, 11, 59, 0
11, 18672, Note_on_c, 11, 56, 75
11, 18714, Note_off_c, 11, 56, 0
11, 18720, Note_on_c, 11, 52, 75
11, 18762, Note_off_c, 11, 52, 0
11, 18768, Note_on_c, 11, 40, 75
11, 18810, Note_off_c, 11, 40, 0
11, 18816, Note_on_c, 11, 45, 75
11, 18858, Note_off_c, 11, 45, 0
11, 18864, Note_on_c, 11, 52, 75
11, 18906, Note_off_c, 11, 52, 0
11, 18912, Note_on_c, 11, 57, 75
11, 18954, Note_off_c, 11, 57, 0
11, 18960, Note_on_c, 11, 43, 75
11, 19002, Note_off_c, 11, 43, 0
11, 19008, Note_on_c, 11, 52, 75
11, 19050, Note_off_c, 11, 52, 0
11, 19056, Note_on_c, 11, 57, 75
11, 19098, Note_off_c, 11, 57, 0
11, 19104, Note_on_c, 11, 41, 75
11, 19146, Note_off_c, 11, 41, 0
11, 19152, Note_on_c, 11, 53, 75
11, 19194, Note_off_c, 11, 53, 0
11, 19200, Note_on_c, 11, 48, 75
11, 19242, Note_off_c, 11, 48, 0
11, 19248, Note_on_c, 11, 50, 75
11, 19290, Note_off_c, 11, 50, 0
11, 19296, Note_on_c, 11, 53, 75
11, 19338, Note_off_c, 11, 53, 0
11, 19344, Note_on_c, 11, 47, 75
11, 19386, Note_off_c, 11, 47, 0
11, 19392, Note_on_c, 11, 40, 75
11, 19434, Note_off_c, 11, 40, 0
11, 19440, Note_on_c, 11, 44, 75
11, 19482, Note_off_c, 11, 44, 0
11, 19488, Note_on_c, 11, 47, 75
11, 19530, Note_off_c, 11, 47, 0
11, 19536, Note_on_c, 11, 52, 75
11, 19578, Note_off_c, 11, 52, 0
11, 19584, Note_on_c, 11, 56, 75
11, 19626, Note_off_c, 11, 56, 0
11, 19632, Note_on_c, 11, 52, 75
11, 19674, Note_off_c, 11, 52, 0
11, 19680, Note_on_c, 11, 57, 75
11, 19701, Note_off_c, 11, 57, 0
11, 19704, Note_on_c, 11, 56, 75
11, 19725, Note_off_c, 11, 56, 0
11, 19728, Note_on_c, 11, 57, 75
11, 19749, Note_off_c, 11, 57, 0
11, 19752, Note_on_c, 11, 52, 75
11, 19773, Note_off_c, 11, 52, 0
11, 19776, Note_on_c, 11, 53, 75
11, 19845, Note_off_c, 11, 53, 0
11, 19848, Note_on_c, 11, 50, 75
11, 19869, Note_off_c, 11, 50, 0
11, 19872, Note_on_c, 11, 52, 75
11, 19914, Note_off_c, 11, 52, 0
11, 19920, Note_on_c, 11, 40, 75
11, 19962, Note_off_c, 11, 40, 0
11, 19968, Note_on_c, 11, 45, 49
11, 19989, Note_off_c, 11, 45, 0
11, 19992, Note_on_c, 11, 47, 49
11, 20013, Note_off_c, 11, 47, 0
11, 20016, Note_on_c, 11, 48, 49
11, 20037, Note_off_c, 11, 48, 0
11, 20040, Note_on_c, 11, 47, 49
11, 20061, Note_off_c, 11, 47, 0
11, 20064, Note_on_c, 11, 48, 49
11, 20085, Note_off_c, 11, 48, 0
11, 20088, Note_on_c, 11, 45, 49
11, 20109, Note_off_c, 11, 45, 0
11, 20112, Note_on_c, 11, 50, 49
11, 20133, Note_off_c, 11, 50, 0
11, 20136, Note_on_c, 11, 52, 49
11, 20157, Note_off_c, 11, 52, 0
11, 20160, Note_on_c, 11, 53, 49
11, 20181, Note_off_c, 11, 53, 0
11, 20184, Note_on_c, 11, 52, 49
11, 20205, Note_off_c, 11, 52, 0
11, 20208, Note_on_c, 11, 53, 49
11, 20229, Note_off_c, 11, 53, 0
11, 20232, Note_on_c, 11, 50, 49
11, 20253, Note_off_c, 11, 50, 0
11, 20256, Note_on_c, 11, 43, 49
11, 20277, Note_off_c, 11, 43, 0
11, 20280, Note_on_c, 11, 45, 49
11, 20301, Note_off_c, 11, 45, 0
11, 20304, Note_on_c, 11, 46, 49
11, 20325, Note_off_c, 11, 46, 0
11, 20328, Note_on_c, 11, 45, 49
11, 20349, Note_off_c, 11, 45, 0
11, 20352, Note_on_c, 11, 46, 49
11, 20373, Note_off_c, 11, 46, 0
11, 20376, Note_on_c, 11, 43, 49
11, 20397, Note_off_c, 11, 43, 0
11, 20400, Note_on_c, 11, 48, 49
11, 20421, Note_off_c, 11, 48, 0
11, 20424, Note_on_c, 11, 50, 49
11, 20445, Note_off_c, 11, 50, 0
11, 20448, Note_on_c, 11, 52, 49
11, 20469, Note_off_c, 11, 52, 0
11, 20472, Note_on_c, 11, 50, 49
11, 20493, Note_off_c, 11, 50, 0
11, 20496, Note_on_c, 11, 52, 49
11, 20517, Note_off_c, 11, 52, 0
11, 20520, Note_on_c, 11, 48, 49
11, 20541, Note_off_c, 11, 48, 0
11, 20544, Note_on_c, 11, 41, 49
11, 20565, Note_off_c, 11, 41, 0
11, 20568, Note_on_c, 11, 43, 49
11, 20589, Note_off_c, 11, 43, 0
11, 20592, Note_on_c, 11, 45, 49
11, 20613, Note_off_c, 11, 45, 0
11, 20616, Note_on_c, 11, 43, 49
11, 20637, Note_off_c, 11, 43, 0
11, 20640, Note_on_c, 11, 41, 49
11, 20661, Note_off_c, 11, 41, 0
11, 20664, Note_on_c, 11, 39, 49
11, 20685, Note_off_c, 11, 39, 0
11, 20688, Note_on_c, 11, 38, 49
11, 20709, Note_off_c, 11, 38, 0
11, 20712, Note_on_c, 11, 39, 49
11, 20733, Note_off_c, 11, 39, 0
11, 20736, Note_on_c, 11, 41, 49
11, 20757, Note_off_c, 11, 41, 0
11, 20760, Note_on_c, 11, 39, 49
11, 20781, Note_off_c, 11, 39, 0
11, 20784, Note_on_c, 11, 41, 49
11, 20805, Note_off_c, 11, 41, 0
11, 20808, Note_on_c, 11, 38, 49
11, 20829, Note_off_c, 11, 38, 0
11, 20832, Note_on_c, 11, 43, 49
11, 20853, Note_off_c, 11, 43, 0
11, 20856, Note_on_c, 11, 45, 49
11, 20877, Note_off_c, 11, 45, 0
11, 20880, Note_on_c, 11, 46, 49
11, 20901, Note_off_c, 11, 46, 0
11, 20904, Note_on_c, 11, 45, 49
11, 20925, Note_off_c, 11, 45, 0
11, 20928, Note_on_c, 11, 46, 49
11, 20949, Note_off_c, 11, 46, 0
11, 20952, Note_on_c, 11, 43, 49
11, 20973, Note_off_c, 11, 43, 0
11, 20976, Note_on_c, 11, 48, 49
11, 20997, Note_off_c, 11, 48, 0
11, 21000, Note_on_c, 11, 50, 49
11, 21021, Note_off_c, 11, 50, 0
11, 21024, Note_on_c, 11, 51, 49
11, 21045, Note_off_c, 11, 51, 0
11, 21048, Note_on_c, 11, 50, 49
11, 21069, Note_off_c, 11, 50, 0
11, 21072, Note_on_c, 11, 51, 49
11, 21093, Note_off_c, 11, 51, 0
11, 21096, Note_on_c, 11, 48, 49
11, 21117, Note_off_c, 11, 48, 0
11, 21120, Note_on_c, 11, 53, 49
11, 21141, Note_off_c, 11, 53, 0
11, 21144, Note_on_c, 11, 55, 49
11, 21165, Note_off_c, 11, 55, 0
11, 21168, Note_on_c, 11, 57, 49
11, 21189, Note_off_c, 11, 57, 0
11, 21192, Note_on_c, 11, 55, 49
11, 21213, Note_off_c, 11, 55, 0
11, 21216, Note_on_c, 11, 57, 49
11, 21237, Note_off_c, 11, 57, 0
11, 21240, Note_on_c, 11, 53, 49
11, 21261, Note_off_c, 11, 53, 0
11, 21264, Note_on_c, 11, 58, 49
11, 21285, Note_off_c, 11, 58, 0
11, 21288, Note_on_c, 11, 60, 49
11, 21309, Note_off_c, 11, 60, 0
11, 21312, Note_on_c, 11, 62, 49
11, 21333, Note_off_c, 11, 62, 0
11, 21336, Note_on_c, 11, 60, 49
11, 21357, Note_off_c, 11, 60, 0
11, 21360, Note_on_c, 11, 62, 49
11, 21381, Note_off_c, 11, 62, 0
11, 21384, Note_on_c, 11, 58, 49
11, 21405, Note_off_c, 11, 58, 0
11, 21408, Note_on_c, 11, 60, 49
11, 21450, Note_off_c, 11, 60, 0
11, 21456, Note_on_c, 11, 48, 49
11, 21498, Note_off_c, 11, 48, 0
11, 21504, Note_on_c, 11, 50, 49
11, 21546, Note_off_c, 11, 50, 0
11, 21552, Note_on_c, 11, 51, 49
11, 21594, Note_off_c, 11, 51, 0
11, 21600, Note_on_c, 11, 50, 49
11, 21642, Note_off_c, 11, 50, 0
11, 21648, Note_on_c, 11, 48, 49
11, 21690, Note_off_c, 11, 48, 0
11, 21696, Note_on_c, 11, 46, 49
11, 21738, Note_off_c, 11, 46, 0
11, 21744, Note_on_c, 11, 58, 49
11, 21786, Note_off_c, 11, 58, 0
11, 21792, Note_on_c, 11, 60, 49
11, 21834, Note_off_c, 11, 60, 0
11, 21840, Note_on_c, 11, 62, 49
11, 21882, Note_off_c, 11, 62, 0
11, 21888, Note_on_c, 11, 60, 49
11, 21909, Note_off_c, 11, 60, 0
11, 21912, Note_on_c, 11, 58, 49
11, 21933, Note_off_c, 11, 58, 0
11, 21936, Note_on_c, 11, 57, 49
11, 21957, Note_off_c, 11, 57, 0
11, 21960, Note_on_c, 11, 55, 49
11, 21981, Note_off_c, 11, 55, 0
11, 21984, Note_on_c, 11, 54, 49
11, 22026, Note_off_c, 11, 54, 0
11, 22032, Note_on_c, 11, 50, 49
11, 22074, Note_off_c, 11, 50, 0
11, 22080, Note_on_c, 11, 54, 49
11, 22122, Note_off_c, 11, 54, 0
11, 22128, Note_on_c, 11, 55, 49
11, 22170, Note_off_c, 11, 55, 0
11, 22176, Note_on_c, 11, 43, 49
11, 22218, Note_off_c, 11, 43, 0
11, 22224, Note_on_c, 11, 46, 49
11, 22266, Note_off_c, 11, 46, 0
11, 22272, Note_on_c, 11, 48, 49
11, 22293, Note_off_c, 11, 48, 0
11, 22296, Note_on_c, 11, 50, 49
11, 22317, Note_off_c, 11, 50, 0
11, 22320, Note_on_c, 11, 51, 49
11, 22341, Note_off_c, 11, 51, 0
11, 22344, Note_on_c, 11, 48, 49
11, 22365, Note_off_c, 11, 48, 0
11, 22368, Note_on_c, 11, 46, 49
11, 22389, Note_off_c, 11, 46, 0
11, 22392, Note_on_c, 11, 45, 49
11, 22413, Note_off_c, 11, 45, 0
11, 22416, Note_on_c, 11, 46, 49
11, 22437, Note_off_c, 11, 46, 0
11, 22440, Note_on_c, 11, 48, 49
11, 22461, Note_off_c, 11, 48, 0
11, 22464, Note_on_c, 11, 50, 49
11, 22485, Note_off_c, 11, 50, 0
11, 22488, Note_on_c, 11, 46, 49
11, 22509, Note_off_c, 11, 46, 0
11, 22512, Note_on_c, 11, 45, 49
11, 22533, Note_off_c, 11, 45, 0
11, 22536, Note_on_c, 11, 43, 49
11, 22557, Note_off_c, 11, 43, 0
11, 22560, Note_on_c, 11, 45, 49
11, 22581, Note_off_c, 11, 45, 0
11, 22584, Note_on_c, 11, 46, 49
11, 22605, Note_off_c, 11, 46, 0
11, 22608, Note_on_c, 11, 48, 49
11, 22629, Note_off_c, 11, 48, 0
11, 22632, Note_on_c, 11, 45, 49
11, 22653, Note_off_c, 11, 45, 0
11, 22656, Note_on_c, 11, 43, 49
11, 22677, Note_off_c, 11, 43, 0
11, 22680, Note_on_c, 11, 42, 49
11, 22701, Note_off_c, 11, 42, 0
11, 22704, Note_on_c, 11, 43, 49
11, 22725, Note_off_c, 11, 43, 0
11, 22728, Note_on_c, 11, 48, 49
11, 22749, Note_off_c, 11, 48, 0
11, 22752, Note_on_c, 11, 50, 49
11, 22794, Note_off_c, 11, 50, 0
11, 22800, Note_on_c, 11, 38, 49
11, 22842, Note_off_c, 11, 38, 0
11, 22848, Note_on_c, 11, 43, 49
11, 22869, Note_off_c, 11, 43, 0
11, 22872, Note_on_c, 11, 45, 49
11, 22893, Note_off_c, 11, 45, 0
11, 22896, Note_on_c, 11, 46, 49
11, 22917, Note_off_c, 11, 46, 0
11, 22920, Note_on_c, 11, 45, 49
11, 22941, Note_off_c, 11, 45, 0
11, 22944, Note_on_c, 11, 46, 49
11, 22965, Note_off_c, 11, 46, 0
11, 22968, Note_on_c, 11, 43, 49
11, 22989, Note_off_c, 11, 43, 0
11, 22992, Note_on_c, 11, 48, 49
11, 23013, Note_off_c, 11, 48, 0
11, 23016, Note_on_c, 11, 50, 49
11, 23037, Note_off_c, 11, 50, 0
11, 23040, Note_on_c, 11, 51, 49
11, 23061, Note_off_c, 11, 51, 0
11, 23064, Note_on_c, 11, 50, 49
11, 23085, Note_off_c, 11, 50, 0
11, 23088, Note_on_c, 11, 51, 49
11, 23109, Note_off_c, 11, 51, 0
11, 23112, Note_on_c, 11, 48, 49
11, 23133, Note_off_c, 11, 48, 0
11, 23136, Note_on_c, 11, 53, 49
11, 23157, Note_off_c, 11, 53, 0
11, 23160, Note_on_c, 11, 55, 49
11, 23181, Note_off_c, 11, 55, 0
11, 23184, Note_on_c, 11, 57, 49
11, 23205, Note_off_c, 11, 57, 0
11, 23208, Note_on_c, 11, 55, 49
11, 23229, Note_off_c, 11, 55, 0
11, 23232, Note_on_c, 11, 57, 49
11, 23253, Note_off_c, 11, 57, 0
11, 23256, Note_on_c, 11, 53, 49
11, 23277, Note_off_c, 11, 53, 0
11, 23280, Note_on_c, 11, 58, 49
11, 23301, Note_off_c, 11, 58, 0
11, 23304, Note_on_c, 11, 60, 49
11, 23325, Note_off_c, 11, 60, 0
11, 23328, Note_on_c, 11, 62, 49
11, 23349, Note_off_c, 11, 62, 0
11, 23352, Note_on_c, 11, 60, 49
11, 23373, Note_off_c, 11, 60, 0
11, 23376, Note_on_c, 11, 62, 49
11, 23397, Note_off_c, 11, 62, 0
11, 23400, Note_on_c, 11, 58, 49
11, 23421, Note_off_c, 11, 58, 0
11, 23424, Tempo, 1500000
11, 23424, Note_on_c, 11, 50, 49
11, 23556, Note_off_c, 11, 50, 0
11, 23568, Note_on_c, 11, 51, 49
11, 23589, Note_off_c, 11, 51, 0
11, 23592, Note_on_c, 11, 50, 49
11, 23613, Note_off_c, 11, 50, 0
11, 23616, Time_signature, 2, 2, 96, 8
11, 23616, Note_on_c, 11, 51, 49
11, 23637, Note_off_c, 11, 51, 0
11, 23640, Note_on_c, 11, 48, 49
11, 23661, Note_off_c, 11, 48, 0
11, 23664, Note_on_c, 11, 55, 49
11, 23685, Note_off_c, 11, 55, 0
11, 23688, Note_on_c, 11, 53, 49
11, 23709, Note_off_c, 11, 53, 0
11, 23712, Note_on_c, 11, 55, 49
11, 23733, Note_off_c, 11, 55, 0
11, 23736, Note_on_c, 11, 51, 49
11, 23757, Note_off_c, 11, 51, 0
11, 23760, Note_on_c, 11, 53, 49
11, 23802, Note_off_c, 11, 53, 0
11, 23808, Time_signature, 6, 2, 96, 8
11, 23808, Note_on_c, 11, 41, 49
11, 23850, Note_off_c, 11, 41, 0
11, 23856, Note_on_c, 11, 46, 49
11, 23898, Note_off_c, 11, 46, 0
11, 23904, Tempo, 600000
11, 23904, Note_on_c, 11, 45, 96
11, 23946, Note_off_c, 11, 45, 0
11, 23952, Note_on_c, 11, 43, 96
11, 23994, Note_off_c, 11, 43, 0
11, 24000, Note_on_c, 11, 41, 49
11, 24021, Note_off_c, 11, 41, 0
11, 24024, Note_on_c, 11, 43, 49
11, 24045, Note_off_c, 11, 43, 0
11, 24048, Note_on_c, 11, 45, 49
11, 24069, Note_off_c, 11, 45, 0
11, 24072, Note_on_c, 11, 43, 49
11, 24093, Note_off_c, 11, 43, 0
11, 24096, Note_on_c, 11, 45, 49
11, 24117, Note_off_c, 11, 45, 0
11, 24120, Note_on_c, 11, 41, 49
11, 24141, Note_off_c, 11, 41, 0
11, 24144, Note_on_c, 11, 53, 49
11, 24186, Note_off_c, 11, 53, 0
11, 24192, Note_on_c, 11, 52, 49
11, 24234, Note_off_c, 11, 52, 0
11, 24240, Note_on_c, 11, 50, 49
11, 24282, Note_off_c, 11, 50, 0
11, 24288, Note_on_c, 11, 48, 49
11, 24309, Note_off_c, 11, 48, 0
11, 24312, Note_on_c, 11, 50, 49
11, 24333, Note_off_c, 11, 50, 0
11, 24336, Note_on_c, 11, 52, 49
11, 24357, Note_off_c, 11, 52, 0
11, 24360, Note_on_c, 11, 50, 49
11, 24381, Note_off_c, 11, 50, 0
11, 24384, Note_on_c, 11, 52, 49
11, 24405, Note_off_c, 11, 52, 0
11, 24408, Note_on_c, 11, 48, 49
11, 24429, Note_off_c, 11, 48, 0
11, 24432, Note_on_c, 11, 58, 49
11, 24474, Note_off_c, 11, 58, 0
11, 24480, Note_on_c, 11, 57, 49
11, 24522, Note_off_c, 11, 57, 0
11, 24528, Note_on_c, 11, 55, 49
11, 24570, Note_off_c, 11, 55, 0
11, 24576, Note_on_c, 11, 57, 49
11, 24618, Note_off_c, 11, 57, 0
11, 24624, Note_on_c, 11, 50, 49
11, 24666, Note_off_c, 11, 50, 0
11, 24672, Note_on_c, 11, 52, 49
11, 24714, Note_off_c, 11, 52, 0
11, 24720, Note_on_c, 11, 53, 49
11, 24762, Note_off_c, 11, 53, 0
11, 24768, Note_on_c, 11, 52, 49
11, 24789, Note_off_c, 11, 52, 0
11, 24792, Note_on_c, 11, 50, 49
11, 24813, Note_off_c, 11, 50, 0
11, 24816, Note_on_c, 11, 48, 49
11, 24837, Note_off_c, 11, 48, 0
11, 24840, Note_on_c, 11, 46, 49
11, 24861, Note_off_c, 11, 46, 0
11, 24864, Note_on_c, 11, 45, 49
11, 24885, Note_off_c, 11, 45, 0
11, 24888, Note_on_c, 11, 46, 49
11, 24909, Note_off_c, 11, 46, 0
11, 24912, Note_on_c, 11, 48, 49
11, 24922, Note_off_c, 11, 48, 0
11, 24924, Note_on_c, 11, 46, 49
11, 24934, Note_off_c, 11, 46, 0
11, 24936, Note_on_c, 11, 48, 49
11, 24946, Note_off_c, 11, 48, 0
11, 24948, Note_on_c, 11, 46, 49
11, 24958, Note_off_c, 11, 46, 0
11, 24960, Note_on_c, 11, 48, 49
11, 24970, Note_off_c, 11, 48, 0
11, 24972, Note_on_c, 11, 46, 49
11, 24982, Note_off_c, 11, 46, 0
11, 24984, Note_on_c, 11, 45, 49
11, 24994, Note_off_c, 11, 45, 0
11, 24996, Note_on_c, 11, 46, 49
11, 25006, Note_off_c, 11, 46, 0
11, 25008, Note_on_c, 11, 48, 49
11, 25029, Note_off_c, 11, 48, 0
11, 25032, Note_on_c, 11, 50, 49
11, 25053, Note_off_c, 11, 50, 0
11, 25056, Note_on_c, 11, 52, 49
11, 25077, Note_off_c, 11, 52, 0
11, 25080, Note_on_c, 11, 50, 49
11, 25101, Note_off_c, 11, 50, 0
11, 25104, Note_on_c, 11, 52, 49
11, 25125, Note_off_c, 11, 52, 0
11, 25128, Note_on_c, 11, 48, 49
11, 25149, Note_off_c, 11, 48, 0
11, 25152, Note_on_c, 11, 53, 49
11, 25194, Note_off_c, 11, 53, 0
11, 25200, Note_on_c, 11, 57, 49
11, 25242, Note_off_c, 11, 57, 0
11, 25248, Note_on_c, 11, 60, 49
11, 25290, Note_off_c, 11, 60, 0
11, 25296, Note_on_c, 11, 57, 49
11, 25338, Note_off_c, 11, 57, 0
11, 25344, Note_on_c, 11, 53, 49
11, 25386, Note_off_c, 11, 53, 0
11, 25440, Note_on_c, 11, 52, 49
11, 25482, Note_off_c, 11, 52, 0
11, 25488, Note_on_c, 11, 55, 49
11, 25530, Note_off_c, 11, 55, 0
11, 25536, Note_on_c, 11, 60, 49
11, 25578, Note_off_c, 11, 60, 0
11, 25584, Note_on_c, 11, 52, 49
11, 25626, Note_off_c, 11, 52, 0
11, 25632, Note_on_c, 11, 48, 49
11, 25674, Note_off_c, 11, 48, 0
11, 25728, Note_on_c, 11, 50, 49
11, 25770, Note_off_c, 11, 50, 0
11, 25776, Note_on_c, 11, 53, 49
11, 25818, Note_off_c, 11, 53, 0
11, 25824, Note_on_c, 11, 50, 49
11, 25866, Note_off_c, 11, 50, 0
11, 25872, Note_on_c, 11, 45, 49
11, 25914, Note_off_c, 11, 45, 0
11, 25920, Note_on_c, 11, 41, 49
11, 25962, Note_off_c, 11, 41, 0
11, 26016, Note_on_c, 11, 48, 49
11, 26058, Note_off_c, 11, 48, 0
11, 26064, Note_on_c, 11, 48, 49
11, 26106, Note_off_c, 11, 48, 0
11, 26112, Note_on_c, 11, 48, 49
11, 26154, Note_off_c, 11, 48, 0
11, 26160, Note_on_c, 11, 48, 49
11, 26181, Note_off_c, 11, 48, 0
11, 26184, Note_on_c, 11, 50, 49
11, 26205, Note_off_c, 11, 50, 0
11, 26208, Note_on_c, 11, 52, 49
11, 26229, Note_off_c, 11, 52, 0
11, 26232, Note_on_c, 11, 50, 49
11, 26253, Note_off_c, 11, 50, 0
11, 26256, Note_on_c, 11, 52, 49
11, 26277, Note_off_c, 11, 52, 0
11, 26280, Note_on_c, 11, 48, 49
11, 26301, Note_off_c, 11, 48, 0
11, 26304, Note_on_c, 11, 53, 49
11, 26325, Note_off_c, 11, 53, 0
11, 26328, Note_on_c, 11, 55, 49
11, 26349, Note_off_c, 11, 55, 0
11, 26352, Note_on_c, 11, 57, 49
11, 26373, Note_off_c, 11, 57, 0
11, 26376, Note_on_c, 11, 55, 49
11, 26397, Note_off_c, 11, 55, 0
11, 26400, Note_on_c, 11, 57, 49
11, 26421, Note_off_c, 11, 57, 0
11, 26424, Note_on_c, 11, 53, 49
11, 26445, Note_off_c, 11, 53, 0
11, 26448, Note_on_c, 11, 46, 49
11, 26469, Note_off_c, 11, 46, 0
11, 26472, Note_on_c, 11, 48, 49
11, 26493, Note_off_c, 11, 48, 0
11, 26496, Note_on_c, 11, 50, 49
11, 26517, Note_off_c, 11, 50, 0
11, 26520, Note_on_c, 11, 48, 49
11, 26541, Note_off_c, 11, 48, 0
11, 26544, Note_on_c, 11, 50, 49
11, 26565, Note_off_c, 11, 50, 0
11, 26568, Note_on_c, 11, 46, 49
11, 26589, Note_off_c, 11, 46, 0
11, 26592, Note_on_c, 11, 52, 49
11, 26613, Note_off_c, 11, 52, 0
11, 26616, Note_on_c, 11, 53, 49
11, 26637, Note_off_c, 11, 53, 0
11, 26640, Note_on_c, 11, 55, 49
11, 26661, Note_off_c, 11, 55, 0
11, 26664, Note_on_c, 11, 53, 49
11, 26685, Note_off_c, 11, 53, 0
11, 26688, Note_on_c, 11, 55, 49
11, 26709, Note_off_c, 11, 55, 0
11, 26712, Note_on_c, 11, 52, 49
11, 26733, Note_off_c, 11, 52, 0
11, 26736, Note_on_c, 11, 45, 49
11, 26757, Note_off_c, 11, 45, 0
11, 26760, Note_on_c, 11, 46, 49
11, 26781, Note_off_c, 11, 46, 0
11, 26784, Note_on_c, 11, 48, 49
11, 26805, Note_off_c, 11, 48, 0
11, 26808, Note_on_c, 11, 46, 49
11, 26829, Note_off_c, 11, 46, 0
11, 26832, Note_on_c, 11, 48, 49
11, 26853, Note_off_c, 11, 48, 0
11, 26856, Note_on_c, 11, 45, 49
11, 26877, Note_off_c, 11, 45, 0
11, 26880, Note_on_c, 11, 50, 49
11, 26901, Note_off_c, 11, 50, 0
11, 26904, Note_on_c, 11, 52, 49
11, 26925, Note_off_c, 11, 52, 0
11, 26928, Note_on_c, 11, 53, 49
11, 26949, Note_off_c, 11, 53, 0
11, 26952, Note_on_c, 11, 52, 49
11, 26973, Note_off_c, 11, 52, 0
11, 26976, Note_on_c, 11, 53, 49
11, 26997, Note_off_c, 11, 53, 0
11, 27000, Note_on_c, 11, 50, 49
11, 27021, Note_off_c, 11, 50, 0
11, 27024, Note_on_c, 11, 43, 49
11, 27045, Note_off_c, 11, 43, 0
11, 27048, Note_on_c, 11, 45, 49
11, 27069, Note_off_c, 11, 45, 0
11, 27072, Note_on_c, 11, 46, 49
11, 27093, Note_off_c, 11, 46, 0
11, 27096, Note_on_c, 11, 45, 49
11, 27117, Note_off_c, 11, 45, 0
11, 27120, Note_on_c, 11, 46, 49
11, 27141, Note_off_c, 11, 46, 0
11, 27144, Note_on_c, 11, 43, 49
11, 27165, Note_off_c, 11, 43, 0
11, 27168, Note_on_c, 11, 48, 49
11, 27210, Note_off_c, 11, 48, 0
11, 27216, Note_on_c, 11, 48, 49
11, 27258, Note_off_c, 11, 48, 0
11, 27264, Note_on_c, 11, 48, 49
11, 27306, Note_off_c, 11, 48, 0
11, 27312, Note_on_c, 11, 48, 49
11, 27354, Note_off_c, 11, 48, 0
11, 27360, Note_on_c, 11, 48, 49
11, 27402, Note_off_c, 11, 48, 0
11, 27408, Note_on_c, 11, 48, 49
11, 27450, Note_off_c, 11, 48, 0
11, 27456, Note_on_c, 11, 48, 49
11, 27498, Note_off_c, 11, 48, 0
11, 27504, Note_on_c, 11, 48, 49
11, 27546, Note_off_c, 11, 48, 0
11, 27552, Note_on_c, 11, 48, 49
11, 27594, Note_off_c, 11, 48, 0
11, 27600, Note_on_c, 11, 48, 49
11, 27642, Note_off_c, 11, 48, 0
11, 27648, Note_on_c, 11, 48, 49
11, 27690, Note_off_c, 11, 48, 0
11, 27696, Note_on_c, 11, 48, 49
11, 27738, Note_off_c, 11, 48, 0
11, 27744, Note_on_c, 11, 48, 49
11, 27786, Note_off_c, 11, 48, 0
11, 27792, Note_on_c, 11, 48, 49
11, 27834, Note_off_c, 11, 48, 0
11, 27840, Note_on_c, 11, 48, 49
11, 27882, Note_off_c, 11, 48, 0
11, 27888, Note_on_c, 11, 48, 49
11, 27909, Note_off_c, 11, 48, 0
11, 27912, Note_on_c, 11, 46, 49
11, 27933, Note_off_c, 11, 46, 0
11, 27936, Note_on_c, 11, 48, 49
11, 27957, Note_off_c, 11, 48, 0
11, 27960, Note_on_c, 11, 50, 49
11, 27981, Note_off_c, 11, 50, 0
11, 27984, Note_on_c, 11, 48, 49
11, 28005, Note_off_c, 11, 48, 0
11, 28008, Note_on_c, 11, 46, 49
11, 28029, Note_off_c, 11, 46, 0
11, 28032, Note_on_c, 11, 45, 49
11, 28053, Note_off_c, 11, 45, 0
11, 28056, Note_on_c, 11, 46, 49
11, 28077, Note_off_c, 11, 46, 0
11, 28080, Note_on_c, 11, 45, 49
11, 28101, Note_off_c, 11, 45, 0
11, 28104, Note_on_c, 11, 43, 49
11, 28125, Note_off_c, 11, 43, 0
11, 28128, Note_on_c, 11, 45, 49
11, 28149, Note_off_c, 11, 45, 0
11, 28152, Note_on_c, 11, 41, 49
11, 28173, Note_off_c, 11, 41, 0
11, 28176, Note_on_c, 11, 46, 49
11, 28197, Note_off_c, 11, 46, 0
11, 28200, Note_on_c, 11, 48, 49
11, 28221, Note_off_c, 11, 48, 0
11, 28224, Note_on_c, 11, 50, 49
11, 28245, Note_off_c, 11, 50, 0
11, 28248, Note_on_c, 11, 48, 49
11, 28269, Note_off_c, 11, 48, 0
11, 28272, Note_on_c, 11, 46, 49
11, 28293, Note_off_c, 11, 46, 0
11, 28296, Note_on_c, 11, 45, 49
11, 28317, Note_off_c, 11, 45, 0
11, 28320, Note_on_c, 11, 43, 49
11, 28341, Note_off_c, 11, 43, 0
11, 28344, Note_on_c, 11, 45, 49
11, 28365, Note_off_c, 11, 45, 0
11, 28368, Note_on_c, 11, 46, 49
11, 28389, Note_off_c, 11, 46, 0
11, 28392, Note_on_c, 11, 45, 49
11, 28413, Note_off_c, 11, 45, 0
11, 28416, Note_on_c, 11, 46, 49
11, 28437, Note_off_c, 11, 46, 0
11, 28440, Note_on_c, 11, 43, 49
11, 28461, Note_off_c, 11, 43, 0
11, 28464, Note_on_c, 11, 48, 49
11, 28485, Note_off_c, 11, 48, 0
11, 28488, Note_on_c, 11, 50, 49
11, 28509, Note_off_c, 11, 50, 0
11, 28512, Note_on_c, 11, 52, 49
11, 28533, Note_off_c, 11, 52, 0
11, 28536, Note_on_c, 11, 50, 49
11, 28557, Note_off_c, 11, 50, 0
11, 28560, Note_on_c, 11, 48, 49
11, 28581, Note_off_c, 11, 48, 0
11, 28584, Note_on_c, 11, 46, 49
11, 28605, Note_off_c, 11, 46, 0
11, 28608, Note_on_c, 11, 45, 49
11, 28629, Note_off_c, 11, 45, 0
11, 28632, Note_on_c, 11, 46, 49
11, 28653, Note_off_c, 11, 46, 0
11, 28656, Note_on_c, 11, 48, 49
11, 28677, Note_off_c, 11, 48, 0
11, 28680, Note_on_c, 11, 46, 49
11, 28701, Note_off_c, 11, 46, 0
11, 28704, Note_on_c, 11, 48, 49
11, 28725, Note_off_c, 11, 48, 0
11, 28728, Note_on_c, 11, 45, 49
11, 28749, Note_off_c, 11, 45, 0
11, 28752, Note_on_c, 11, 50, 49
11, 28773, Note_off_c, 11, 50, 0
11, 28776, Note_on_c, 11, 52, 49
11, 28797, Note_off_c, 11, 52, 0
11, 28800, Note_on_c, 11, 53, 49
11, 28821, Note_off_c, 11, 53, 0
11, 28824, Note_on_c, 11, 52, 49
11, 28845, Note_off_c, 11, 52, 0
11, 28848, Note_on_c, 11, 53, 49
11, 28869, Note_off_c, 11, 53, 0
11, 28872, Note_on_c, 11, 50, 49
11, 28893, Note_off_c, 11, 50, 0
11, 28896, Note_on_c, 11, 55, 49
11, 28917, Note_off_c, 11, 55, 0
11, 28920, Note_on_c, 11, 57, 49
11, 28941, Note_off_c, 11, 57, 0
11, 28944, Note_on_c, 11, 59, 49
11, 28965, Note_off_c, 11, 59, 0
11, 28968, Note_on_c, 11, 57, 49
11, 28989, Note_off_c, 11, 57, 0
11, 28992, Note_on_c, 11, 59, 49
11, 29013, Note_off_c, 11, 59, 0
11, 29016, Note_on_c, 11, 55, 49
11, 29037, Note_off_c, 11, 55, 0
11, 29040, Note_on_c, 11, 60, 49
11, 29082, Note_off_c, 11, 60, 0
11, 29088, Note_on_c, 11, 48, 49
11, 29130, Note_off_c, 11, 48, 0
11, 29136, Note_on_c, 11, 48, 49
11, 29178, Note_off_c, 11, 48, 0
11, 29184, Note_on_c, 11, 48, 49
11, 29226, Note_off_c, 11, 48, 0
11, 29232, Note_on_c, 11, 52, 49
11, 29253, Note_off_c, 11, 52, 0
11, 29256, Note_on_c, 11, 50, 49
11, 29277, Note_off_c, 11, 50, 0
11, 29280, Note_on_c, 11, 52, 49
11, 29301, Note_off_c, 11, 52, 0
11, 29304, Note_on_c, 11, 48, 49
11, 29325, Note_off_c, 11, 48, 0
11, 29328, Note_on_c, 11, 53, 49
11, 29370, Note_off_c, 11, 53, 0
11, 29376, Note_on_c, 11, 57, 49
11, 29418, Note_off_c, 11, 57, 0
11, 29424, Note_on_c, 11, 60, 49
11, 29466, Note_off_c, 11, 60, 0
11, 29472, Note_on_c, 11, 57, 49
11, 29514, Note_off_c, 11, 57, 0
11, 29520, Note_on_c, 11, 53, 49
11, 29562, Note_off_c, 11, 53, 0
11, 29616, Note_on_c, 11, 52, 49
11, 29658, Note_off_c, 11, 52, 0
11, 29664, Note_on_c, 11, 55, 49
11, 29706, Note_off_c, 11, 55, 0
11, 29712, Note_on_c, 11, 60, 49
11, 29754, Note_off_c, 11, 60, 0
11, 29760, Note_on_c, 11, 52, 49
11, 29802, Note_off_c, 11, 52, 0
11, 29808, Note_on_c, 11, 48, 49
11, 29850, Note_off_c, 11, 48, 0
11, 29904, Note_on_c, 11, 50, 49
11, 29946, Note_off_c, 11, 50, 0
11, 29952, Note_on_c, 11, 53, 49
11, 29994, Note_off_c, 11, 53, 0
11, 30000, Note_on_c, 11, 50, 49
11, 30042, Note_off_c, 11, 50, 0
11, 30048, Note_on_c, 11, 45, 49
11, 30090, Note_off_c, 11, 45, 0
11, 30096, Note_on_c, 11, 41, 49
11, 30138, Note_off_c, 11, 41, 0
11, 30192, Note_on_c, 11, 48, 49
11, 30234, Note_off_c, 11, 48, 0
11, 30240, Note_on_c, 11, 48, 49
11, 30282, Note_off_c, 11, 48, 0
11, 30288, Note_on_c, 11, 48, 49
11, 30330, Note_off_c, 11, 48, 0
11, 30336, Note_on_c, 11, 48, 49
11, 30357, Note_off_c, 11, 48, 0
11, 30360, Note_on_c, 11, 50, 49
11, 30381, Note_off_c, 11, 50, 0
11, 30384, Note_on_c, 11, 52, 49
11, 30405, Note_off_c, 11, 52, 0
11, 30408, Note_on_c, 11, 50, 49
11, 30429, Note_off_c, 11, 50, 0
11, 30432, Note_on_c, 11, 52, 49
11, 30453, Note_off_c, 11, 52, 0
11, 30456, Note_on_c, 11, 48, 49
11, 30477, Note_off_c, 11, 48, 0
11, 30480, Note_on_c, 11, 55, 49
11, 30501, Note_off_c, 11, 55, 0
11, 30504, Note_on_c, 11, 57, 49
11, 30525, Note_off_c, 11, 57, 0
11, 30528, Note_on_c, 11, 58, 49
11, 30549, Note_off_c, 11, 58, 0
11, 30552, Note_on_c, 11, 57, 49
11, 30573, Note_off_c, 11, 57, 0
11, 30576, Note_on_c, 11, 58, 49
11, 30597, Note_off_c, 11, 58, 0
11, 30600, Note_on_c, 11, 55, 49
11, 30621, Note_off_c, 11, 55, 0
11, 30624, Note_on_c, 11, 57, 49
11, 30645, Note_off_c, 11, 57, 0
11, 30648, Note_on_c, 11, 58, 49
11, 30669, Note_off_c, 11, 58, 0
11, 30672, Note_on_c, 11, 60, 49
11, 30693, Note_off_c, 11, 60, 0
11, 30696, Note_on_c, 11, 57, 49
11, 30717, Note_off_c, 11, 57, 0
11, 30720, Note_on_c, 11, 62, 49
11, 30741, Note_off_c, 11, 62, 0
11, 30744, Note_on_c, 11, 60, 49
11, 30765, Note_off_c, 11, 60, 0
11, 30768, Note_on_c, 11, 62, 49
11, 30789, Note_off_c, 11, 62, 0
11, 30792, Note_on_c, 11, 58, 49
11, 30813, Note_off_c, 11, 58, 0
11, 30816, Note_on_c, 11, 60, 49
11, 30858, Note_off_c, 11, 60, 0
11, 30864, Note_on_c, 11, 48, 49
11, 30906, Note_off_c, 11, 48, 0
11, 30912, Note_on_c, 11, 53, 49
11, 30954, Note_off_c, 11, 53, 0
11, 30960, Note_on_c, 11, 57, 49
11, 31002, Note_off_c, 11, 57, 0
11, 31008, Note_on_c, 11, 60, 49
11, 31050, Note_off_c, 11, 60, 0
11, 31056, Note_on_c, 11, 57, 49
11, 31098, Note_off_c, 11, 57, 0
11, 31104, Note_on_c, 11, 53, 49
11, 31146, Note_off_c, 11, 53, 0
11, 31200, Note_on_c, 11, 52, 49
11, 31242, Note_off_c, 11, 52, 0
11, 31248, Note_on_c, 11, 55, 49
11, 31290, Note_off_c, 11, 55, 0
11, 31296, Note_on_c, 11, 60, 49
11, 31338, Note_off_c, 11, 60, 0
11, 31344, Note_on_c, 11, 52, 49
11, 31386, Note_off_c, 11, 52, 0
11, 31392, Note_on_c, 11, 48, 49
11, 31434, Note_off_c, 11, 48, 0
11, 31488, Note_on_c, 11, 50, 49
11, 31530, Note_off_c, 11, 50, 0
11, 31536, Note_on_c, 11, 53, 49
11, 31578, Note_off_c, 11, 53, 0
11, 31584, Note_on_c, 11, 50, 49
11, 31626, Note_off_c, 11, 50, 0
11, 31632, Note_on_c, 11, 45, 49
11, 31674, Note_off_c, 11, 45, 0
11, 31680, Note_on_c, 11, 41, 49
11, 31722, Note_off_c, 11, 41, 0
11, 31776, Note_on_c, 11, 48, 49
11, 31818, Note_off_c, 11, 48, 0
11, 31824, Note_on_c, 11, 48, 49
11, 31866, Note_off_c, 11, 48, 0
11, 31872, Note_on_c, 11, 48, 49
11, 31914, Note_off_c, 11, 48, 0
11, 31920, Note_on_c, 11, 48, 49
11, 31962, Note_off_c, 11, 48, 0
11, 31968, Note_on_c, 11, 52, 49
11, 31989, Note_off_c, 11, 52, 0
11, 31992, Note_on_c, 11, 50, 49
11, 32013, Note_off_c, 11, 50, 0
11, 32016, Note_on_c, 11, 52, 49
11, 32037, Note_off_c, 11, 52, 0
11, 32040, Note_on_c, 11, 48, 49
11, 32061, Note_off_c, 11, 48, 0
11, 32064, Note_on_c, 11, 53, 49
11, 32106, Note_off_c, 11, 53, 0
11, 32112, Note_on_c, 11, 57, 49
11, 32154, Note_off_c, 11, 57, 0
11, 32160, Note_on_c, 11, 62, 49
11, 32202, Note_off_c, 11, 62, 0
11, 32208, Note_on_c, 11, 52, 49
11, 32250, Note_off_c, 11, 52, 0
11, 32256, Note_on_c, 11, 55, 49
11, 32298, Note_off_c, 11, 55, 0
11, 32304, Note_on_c, 11, 60, 49
11, 32346, Note_off_c, 11, 60, 0
11, 32352, Note_on_c, 11, 50, 49
11, 32394, Note_off_c, 11, 50, 0
11, 32400, Note_on_c, 11, 53, 49
11, 32442, Note_off_c, 11, 53, 0
11, 32448, Note_on_c, 11, 58, 49
11, 32490, Note_off_c, 11, 58, 0
11, 32496, Note_on_c, 11, 48, 49
11, 32538, Note_off_c, 11, 48, 0
11, 32544, Note_on_c, 11, 52, 49
11, 32586, Note_off_c, 11, 52, 0
11, 32592, Note_on_c, 11, 57, 49
11, 32634, Note_off_c, 11, 57, 0
11, 32640, Note_on_c, 11, 46, 49
11, 32682, Note_off_c, 11, 46, 0
11, 32688, Note_on_c, 11, 50, 49
11, 32730, Note_off_c, 11, 50, 0
11, 32736, Note_on_c, 11, 55, 49
11, 32778, Note_off_c, 11, 55, 0
11, 32784, Note_on_c, 11, 45, 49
11, 32826, Note_off_c, 11, 45, 0
11, 32832, Note_on_c, 11, 48, 49
11, 32874, Note_off_c, 11, 48, 0
11, 32880, Note_on_c, 11, 53, 49
11, 32922, Note_off_c, 11, 53, 0
11, 32928, Note_on_c, 11, 43, 49
11, 32970, Note_off_c, 11, 43, 0
11, 32976, Note_on_c, 11, 50, 49
11, 33018, Note_off_c, 11, 50, 0
11, 33024, Note_on_c, 11, 55, 49
11, 33066, Note_off_c, 11, 55, 0
11, 33072, Note_on_c, 11, 41, 49
11, 33114, Note_off_c, 11, 41, 0
11, 33120, Note_on_c, 11, 50, 49
11, 33162, Note_off_c, 11, 50, 0
11, 33168, Note_on_c, 11, 55, 49
11, 33210, Note_off_c, 11, 55, 0
11, 33216, Note_on_c, 11, 40, 49
11, 33258, Note_off_c, 11, 40, 0
11, 33264, Note_on_c, 11, 48, 49
11, 33306, Note_off_c, 11, 48, 0
11, 33312, Note_on_c, 11, 55, 49
11, 33354, Note_off_c, 11, 55, 0
11, 33360, Note_on_c, 11, 52, 49
11, 33402, Note_off_c, 11, 52, 0
11, 33408, Note_on_c, 11, 48, 49
11, 33450, Note_off_c, 11, 48, 0
11, 33456, Note_on_c, 11, 60, 49
11, 33498, Note_off_c, 11, 60, 0
11, 33504, Note_on_c, 11, 41, 49
11, 33546, Note_off_c, 11, 41, 0
11, 33552, Note_on_c, 11, 48, 49
11, 33594, Note_off_c, 11, 48, 0
11, 33600, Note_on_c, 11, 53, 49
11, 33642, Note_off_c, 11, 53, 0
11, 33648, Note_on_c, 11, 40, 49
11, 33690, Note_off_c, 11, 40, 0
11, 33696, Note_on_c, 11, 48, 49
11, 33738, Note_off_c, 11, 48, 0
11, 33744, Note_on_c, 11, 53, 49
11, 33786, Note_off_c, 11, 53, 0
11, 33792, Note_on_c, 11, 38, 49
11, 33834, Note_off_c, 11, 38, 0
11, 33840, Note_on_c, 11, 50, 49
11, 33882, Note_off_c, 11, 50, 0
11, 33888, Note_on_c, 11, 45, 49
11, 33930, Note_off_c, 11, 45, 0
11, 33936, Note_on_c, 11, 46, 49
11, 33978, Note_off_c, 11, 46, 0
11, 33984, Note_on_c, 11, 50, 49
11, 34026, Note_off_c, 11, 50, 0
11, 34032, Note_on_c, 11, 43, 49
11, 34074, Note_off_c, 11, 43, 0
11, 34080, Note_on_c, 11, 48, 49
11, 34122, Note_off_c, 11, 48, 0
11, 34128, Note_on_c, 11, 52, 49
11, 34170, Note_off_c, 11, 52, 0
11, 34176, Note_on_c, 11, 55, 49
11, 34218, Note_off_c, 11, 55, 0
11, 34224, Note_on_c, 11, 48, 49
11, 34266, Note_off_c, 11, 48, 0
11, 34272, Note_on_c, 11, 52, 49
11, 34314, Note_off_c, 11, 52, 0
11, 34320, Note_on_c, 11, 55, 49
11, 34362, Note_off_c, 11, 55, 0
11, 34368, Note_on_c, 11, 48, 49
11, 34410, Note_off_c, 11, 48, 0
11, 34416, Note_on_c, 11, 52, 49
11, 34458, Note_off_c, 11, 52, 0
11, 34464, Note_on_c, 11, 55, 49
11, 34506, Note_off_c, 11, 55, 0
11, 34512, Note_on_c, 11, 48, 49
11, 34554, Note_off_c, 11, 48, 0
11, 34560, Note_on_c, 11, 52, 49
11, 34602, Note_off_c, 11, 52, 0
11, 34608, Note_on_c, 11, 48, 49
11, 34650, Note_off_c, 11, 48, 0
11, 34656, Note_on_c, 11, 53, 49
11, 34677, Note_off_c, 11, 53, 0
11, 34680, Note_on_c, 11, 52, 49
11, 34701, Note_off_c, 11, 52, 0
11, 34704, Note_on_c, 11, 53, 49
11, 34725, Note_off_c, 11, 53, 0
11, 34728, Note_on_c, 11, 52, 49
11, 34749, Note_off_c, 11, 52, 0
11, 34752, Note_on_c, 11, 50, 49
11, 34821, Note_off_c, 11, 50, 0
11, 34824, Note_on_c, 11, 46, 49
11, 34845, Note_off_c, 11, 46, 0
11, 34848, Note_on_c, 11, 48, 49
11, 34890, Note_off_c, 11, 48, 0
11, 34896, Note_on_c, 11, 36, 49
11, 34938, Note_off_c, 11, 36, 0
11, 34944, Note_on_c, 11, 41, 49
11, 34986, Note_off_c, 11, 41, 0
11, 34992, Note_on_c, 11, 45, 49
11, 35034, Note_off_c, 11, 45, 0
11, 35040, Note_on_c, 11, 41, 49
11, 35082, Note_off_c, 11, 41, 0
11, 35088, Note_on_c, 11, 38, 49
11, 35130, Note_off_c, 11, 38, 0
11, 35136, Note_on_c, 11, 43, 49
11, 35178, Note_off_c, 11, 43, 0
11, 35184, Note_on_c, 11, 36, 49
11, 35226, Note_off_c, 11, 36, 0
11, 35232, Note_on_c, 11, 41, 49
11, 35274, Note_off_c, 11, 41, 0
11, 35280, Note_on_c, 11, 45, 49
11, 35322, Note_off_c, 11, 45, 0
11, 35328, Note_on_c, 11, 50, 49
11, 35376, Tempo, 750000
11, 35397, Note_off_c, 11, 50, 0
11, 35400, Note_on_c, 11, 46, 49
11, 35421, Note_off_c, 11, 46, 0
11, 35424, Note_on_c, 11, 48, 49
11, 35466, Note_off_c, 11, 48, 0
11, 35472, Note_on_c, 11, 36, 49
11, 35514, Note_off_c, 11, 36, 0
11, 35520, Note_on_c, 11, 41, 49
11, 35796, Note_off_c, 11, 41, 0
11, 35796, End_track
12, 0, Start_track
12, 0, Title_t, "Contrabass"
12, 0, Control_c, 12, 0, 0
12, 0, Program_c, 12, 43
12, 0, Time_signature, 6, 2, 96, 8
12, 0, Tempo, 600000
12, 96, Tempo, 600000
12, 96, Note_on_c, 12, 41, 49
12, 138, Note_off_c, 12, 41, 0
12, 144, Note_on_c, 12, 45, 49
12, 186, Note_off_c, 12, 45, 0
12, 192, Note_on_c, 12, 48, 49
12, 234, Note_off_c, 12, 48, 0
12, 240, Note_on_c, 12, 45, 49
12, 282, Note_off_c, 12, 45, 0
12, 288, Note_on_c, 12, 41, 49
12, 330, Note_off_c, 12, 41, 0
12, 384, Note_on_c, 12, 40, 49
12, 426, Note_off_c, 12, 40, 0
12, 432, Note_on_c, 12, 43, 49
12, 474, Note_off_c, 12, 43, 0
12, 480, Note_on_c, 12, 48, 49
12, 522, Note_off_c, 12, 48, 0
12, 528, Note_on_c, 12, 40, 49
12, 570, Note_off_c, 12, 40, 0
12, 576, Note_on_c, 12, 36, 49
12, 618, Note_off_c, 12, 36, 0
12, 672, Note_on_c, 12, 38, 49
12, 714, Note_off_c, 12, 38, 0
12, 720, Note_on_c, 12, 41, 49
12, 762, Note_off_c, 12, 41, 0
12, 768, Note_on_c, 12, 38, 49
12, 810, Note_off_c, 12, 38, 0
12, 816, Note_on_c, 12, 33, 49
12, 858, Note_off_c, 12, 33, 0
12, 864, Note_on_c, 12, 29, 49
12, 906, Note_off_c, 12, 29, 0
12, 960, Note_on_c, 12, 36, 49
12, 1002, Note_off_c, 12, 36, 0
12, 1008, Note_on_c, 12, 36, 49
12, 1050, Note_off_c, 12, 36, 0
12, 1056, Note_on_c, 12, 36, 49
12, 1098, Note_off_c, 12, 36, 0
12, 1104, Note_on_c, 12, 36, 49
12, 1146, Note_off_c, 12, 36, 0
12, 1152, Note_on_c, 12, 40, 49
12, 1173, Note_off_c, 12, 40, 0
12, 1176, Note_on_c, 12, 38, 49
12, 1197, Note_off_c, 12, 38, 0
12, 1200, Note_on_c, 12, 40, 49
12, 1221, Note_off_c, 12, 40, 0
12, 1224, Note_on_c, 12, 36, 49
12, 1245, Note_off_c, 12, 36, 0
12, 1248, Note_on_c, 12, 41, 49
12, 1290, Note_off_c, 12, 41, 0
12, 1296, Note_on_c, 12, 45, 49
12, 1338, Note_off_c, 12, 45, 0
12, 1344, Note_on_c, 12, 50, 49
12, 1386, Note_off_c, 12, 50, 0
12, 1392, Note_on_c, 12, 40, 49
12, 1434, Note_off_c, 12, 40, 0
12, 1440, Note_on_c, 12, 43, 49
12, 1482, Note_off_c, 12, 43, 0
12, 1488, Note_on_c, 12, 48, 49
12, 1530, Note_off_c, 12, 48, 0
12, 1536, Note_on_c, 12, 38, 49
12, 1578, Note_off_c, 12, 38, 0
12, 1584, Note_on_c, 12, 41, 49
12, 1626, Note_off_c, 12, 41, 0
12, 1632, Note_on_c, 12, 46, 49
12, 1674, Note_off_c, 12, 46, 0
12, 1680, Note_on_c, 12, 36, 49
12, 1722, Note_off_c, 12, 36, 0
12, 1728, Note_on_c, 12, 40, 49
12, 1770, Note_off_c, 12, 40, 0
12, 1776, Note_on_c, 12, 45, 49
12, 1818, Note_off_c, 12, 45, 0
12, 1824, Note_on_c, 12, 34, 49
12, 1866, Note_off_c, 12, 34, 0
12, 1872, Note_on_c, 12, 38, 49
12, 1914, Note_off_c, 12, 38, 0
12, 1920, Note_on_c, 12, 43, 49
12, 1962, Note_off_c, 12, 43, 0
12, 1968, Note_on_c, 12, 33, 49
12, 2010, Note_off_c, 12, 33, 0
12, 2016, Note_on_c, 12, 36, 49
12, 2058, Note_off_c, 12, 36, 0
12, 2064, Note_on_c, 12, 41, 49
12, 2106, Note_off_c, 12, 41, 0
12, 2112, Note_on_c, 12, 31, 49
12, 2154, Note_off_c, 12, 31, 0
12, 2160, Note_on_c, 12, 38, 49
12, 2202, Note_off_c, 12, 38, 0
12, 2208, Note_on_c, 12, 43, 49
12, 2250, Note_off_c, 12, 43, 0
12, 2256, Note_on_c, 12, 29, 49
12, 2298, Note_off_c, 12, 29, 0
12, 2304, Note_on_c, 12, 38, 49
12, 2346, Note_off_c, 12, 38, 0
12, 2352, Note_on_c, 12, 43, 49
12, 2394, Note_off_c, 12, 43, 0
12, 2400, Note_on_c, 12, 28, 49
12, 2442, Note_off_c, 12, 28, 0
12, 2448, Note_on_c, 12, 36, 49
12, 2490, Note_off_c, 12, 36, 0
12, 2496, Note_on_c, 12, 43, 49
12, 2538, Note_off_c, 12, 43, 0
12, 2544, Note_on_c, 12, 40, 49
12, 2586, Note_off_c, 12, 40, 0
12, 2592, Note_on_c, 12, 36, 49
12, 2634, Note_off_c, 12, 36, 0
12, 2640, Note_on_c, 12, 48, 49
12, 2682, Note_off_c, 12, 48, 0
12, 2688, Note_on_c, 12, 29, 49
12, 2730, Note_off_c, 12, 29, 0
12, 2736, Note_on_c, 12, 36, 49
12, 2778, Note_off_c, 12, 36, 0
12, 2784, Note_on_c, 12, 41, 49
12, 2826, Note_off_c, 12, 41, 0
12, 2832, Note_on_c, 12, 28, 49
12, 2874, Note_off_c, 12, 28, 0
12, 2880, Note_on_c, 12, 36, 49
12, 2922, Note_off_c, 12, 36, 0
12, 2928, Note_on_c, 12, 41, 49
12, 2970, Note_off_c, 12, 41, 0
12, 2976, Note_on_c, 12, 26, 49
12, 3018, Note_off_c, 12, 26, 0
12, 3024, Note_on_c, 12, 38, 49
12, 3066, Note_off_c, 12, 38, 0
12, 3072, Note_on_c, 12, 33, 49
12, 3114, Note_off_c, 12, 33, 0
12, 3120, Note_on_c, 12, 34, 49
12, 3162, Note_off_c, 12, 34, 0
12, 3168, Note_on_c, 12, 38, 49
12, 3210, Note_off_c, 12, 38, 0
12, 3216, Note_on_c, 12, 31, 49
12, 3258, Note_off_c, 12, 31, 0
12, 3264, Note_on_c, 12, 36, 49
12, 3306, Note_off_c, 12, 36, 0
12, 3312, Note_on_c, 12, 40, 49
12, 3354, Note_off_c, 12, 40, 0
12, 3360, Note_on_c, 12, 43, 49
12, 3402, Note_off_c, 12, 43, 0
12, 3408, Note_on_c, 12, 36, 49
12, 3450, Note_off_c, 12, 36, 0
12, 3456, Note_on_c, 12, 40, 49
12, 3498, Note_off_c, 12, 40, 0
12, 3504, Note_on_c, 12, 43, 49
12, 3546, Note_off_c, 12, 43, 0
12, 3552, Note_on_c, 12, 36, 49
12, 3594, Note_off_c, 12, 36, 0
12, 3600, Note_on_c, 12, 40, 49
12, 3642, Note_off_c, 12, 40, 0
12, 3648, Note_on_c, 12, 43, 49
12, 3690, Note_off_c, 12, 43, 0
12, 3696, Note_on_c, 12, 36, 49
12, 3738, Note_off_c, 12, 36, 0
12, 3744, Note_on_c, 12, 40, 49
12, 3786, Note_off_c, 12, 40, 0
12, 3792, Note_on_c, 12, 36, 49
12, 3834, Note_off_c, 12, 36, 0
12, 3840, Note_on_c, 12, 41, 49
12, 3861, Note_off_c, 12, 41, 0
12, 3864, Note_on_c, 12, 40, 49
12, 3885, Note_off_c, 12, 40, 0
12, 3888, Note_on_c, 12, 41, 49
12, 3909, Note_off_c, 12, 41, 0
12, 3912, Note_on_c, 12, 40, 49
12, 3933, Note_off_c, 12, 40, 0
12, 3936, Note_on_c, 12, 38, 49
12, 4005, Note_off_c, 12, 38, 0
12, 4008, Note_on_c, 12, 34, 49
12, 4029, Note_off_c, 12, 34, 0
12, 4032, Note_on_c, 12, 36, 49
12, 4074, Note_off_c, 12, 36, 0
12, 4080, Note_on_c, 12, 24, 49
12, 4122, Note_off_c, 12, 24, 0
12, 4128, Note_on_c, 12, 29, 49
12, 4170, Note_off_c, 12, 29, 0
12, 4176, Note_on_c, 12, 33, 49
12, 4218, Note_off_c, 12, 33, 0
12, 4224, Note_on_c, 12, 29, 49
12, 4266, Note_off_c, 12, 29, 0
12, 4272, Note_on_c, 12, 26, 49
12, 4314, Note_off_c, 12, 26, 0
12, 4320, Note_on_c, 12, 31, 49
12, 4362, Note_off_c, 12, 31, 0
12, 4368, Note_on_c, 12, 24, 49
12, 4410, Note_off_c, 12, 24, 0
12, 4416, Note_on_c, 12, 29, 49
12, 4458, Note_off_c, 12, 29, 0
12, 4464, Note_on_c, 12, 33, 49
12, 4506, Note_off_c, 12, 33, 0
12, 4512, Note_on_c, 12, 38, 49
12, 4581, Note_off_c, 12, 38, 0
12, 4584, Note_on_c, 12, 34, 49
12, 4605, Note_off_c, 12, 34, 0
12, 4608, Note_on_c, 12, 36, 49
12, 4650, Note_off_c, 12, 36, 0
12, 4656, Note_on_c, 12, 24, 49
12, 4698, Note_off_c, 12, 24, 0
12, 4704, Note_on_c, 12, 29, 36
12, 4725, Note_off_c, 12, 29, 0
12, 4728, Note_on_c, 12, 31, 36
12, 4749, Note_off_c, 12, 31, 0
12, 4752, Note_on_c, 12, 33, 36
12, 4773, Note_off_c, 12, 33, 0
12, 4776, Note_on_c, 12, 31, 36
12, 4797, Note_off_c, 12, 31, 0
12, 4800, Note_on_c, 12, 33, 36
12, 4821, Note_off_c, 12, 33, 0
12, 4824, Note_on_c, 12, 29, 36
12, 4845, Note_off_c, 12, 29, 0
12, 4848, Note_on_c, 12, 41, 36
12, 4890, Note_off_c, 12, 41, 0
12, 4896, Note_on_c, 12, 40, 36
12, 4938, Note_off_c, 12, 40, 0
12, 4944, Note_on_c, 12, 38, 36
12, 4986, Note_off_c, 12, 38, 0
12, 4992, Note_on_c, 12, 36, 36
12, 5013, Note_off_c, 12, 36, 0
12, 5016, Note_on_c, 12, 38, 36
12, 5037, Note_off_c, 12, 38, 0
12, 5040, Note_on_c, 12, 40, 36
12, 5061, Note_off_c, 12, 40, 0
12, 5064, Note_on_c, 12, 38, 36
12, 5085, Note_off_c, 12, 38, 0
12, 5088, Note_on_c, 12, 40, 36
12, 5109, Note_off_c, 12, 40, 0
12, 5112, Note_on_c, 12, 36, 36
12, 5133, Note_off_c, 12, 36, 0
12, 5136, Note_on_c, 12, 46, 36
12, 5178, Note_off_c, 12, 46, 0
12, 5184, Note_on_c, 12, 45, 36
12, 5226, Note_off_c, 12, 45, 0
12, 5232, Note_on_c, 12, 43, 36
12, 5274, Note_off_c, 12, 43, 0
12, 5280, Note_on_c, 12, 45, 36
12, 5322, Note_off_c, 12, 45, 0
12, 5328, Note_on_c, 12, 38, 36
12, 5370, Note_off_c, 12, 38, 0
12, 5376, Note_on_c, 12, 40, 36
12, 5418, Note_off_c, 12, 40, 0
12, 5424, Note_on_c, 12, 41, 36
12, 5466, Note_off_c, 12, 41, 0
12, 5472, Note_on_c, 12, 40, 36
12, 5493, Note_off_c, 12, 40, 0
12, 5496, Note_on_c, 12, 38, 36
12, 5517, Note_off_c, 12, 38, 0
12, 5520, Note_on_c, 12, 36, 36
12, 5541, Note_off_c, 12, 36, 0
12, 5544, Note_on_c, 12, 34, 36
12, 5565, Note_off_c, 12, 34, 0
12, 5568, Note_on_c, 12, 33, 36
12, 5589, Note_off_c, 12, 33, 0
12, 5592, Note_on_c, 12, 34, 36
12, 5613, Note_off_c, 12, 34, 0
12, 5616, Note_on_c, 12, 36, 36
12, 5626, Note_off_c, 12, 36, 0
12, 5628, Note_on_c, 12, 34, 36
12, 5638, Note_off_c, 12, 34, 0
12, 5640, Note_on_c, 12, 36, 36
12, 5650, Note_off_c, 12, 36, 0
12, 5652, Note_on_c, 12, 34, 36
12, 5662, Note_off_c, 12, 34, 0
12, 5664, Note_on_c, 12, 36, 36
12, 5674, Note_off_c, 12, 36, 0
12, 5676, Note_on_c, 12, 34, 36
12, 5686, Note_off_c, 12, 34, 0
12, 5688, Note_on_c, 12, 33, 36
12, 5698, Note_off_c, 12, 33, 0
12, 5700, Note_on_c, 12, 34, 36
12, 5710, Note_off_c, 12, 34, 0
12, 5712, Note_on_c, 12, 36, 36
12, 5733, Note_off_c, 12, 36, 0
12, 5736, Note_on_c, 12, 38, 36
12, 5757, Note_off_c, 12, 38, 0
12, 5760, Note_on_c, 12, 40, 36
12, 5781, Note_off_c, 12, 40, 0
12, 5784, Note_on_c, 12, 38, 36
12, 5805, Note_off_c, 12, 38, 0
12, 5808, Note_on_c, 12, 40, 36
12, 5829, Note_off_c, 12, 40, 0
12, 5832, Note_on_c, 12, 36, 36
12, 5853, Note_off_c, 12, 36, 0
12, 5856, Note_on_c, 12, 41, 36
12, 5898, Note_off_c, 12, 41, 0
12, 5904, Note_on_c, 12, 45, 36
12, 5946, Note_off_c, 12, 45, 0
12, 5952, Note_on_c, 12, 48, 36
12, 5994, Note_off_c, 12, 48, 0
12, 6000, Note_on_c, 12, 45, 36
12, 6042, Note_off_c, 12, 45, 0
12, 6048, Note_on_c, 12, 41, 36
12, 6090, Note_off_c, 12, 41, 0
12, 6144, Note_on_c, 12, 40, 36
12, 6186, Note_off_c, 12, 40, 0
12, 6192, Note_on_c, 12, 43, 36
12, 6234, Note_off_c, 12, 43, 0
12, 6240, Note_on_c, 12, 48, 36
12, 6282, Note_off_c, 12, 48, 0
12, 6288, Note_on_c, 12, 40, 36
12, 6330, Note_off_c, 12, 40, 0
12, 6336, Note_on_c, 12, 36, 36
12, 6378, Note_off_c, 12, 36, 0
12, 6432, Note_on_c, 12, 38, 36
12, 6474, Note_off_c, 12, 38, 0
12, 6480, Note_on_c, 12, 41, 36
12, 6522, Note_off_c, 12, 41, 0
12, 6528, Note_on_c, 12, 38, 36
12, 6570, Note_off_c, 12, 38, 0
12, 6576, Note_on_c, 12, 33, 36
12, 6618, Note_off_c, 12, 33, 0
12, 6624, Note_on_c, 12, 29, 36
12, 6666, Note_off_c, 12, 29, 0
12, 6720, Note_on_c, 12, 36, 36
12, 6762, Note_off_c, 12, 36, 0
12, 6768, Note_on_c, 12, 36, 36
12, 6810, Note_off_c, 12, 36, 0
12, 6816, Note_on_c, 12, 36, 36
12, 6858, Note_off_c, 12, 36, 0
12, 6864, Note_on_c, 12, 36, 36
12, 6885, Note_off_c, 12, 36, 0
12, 6888, Note_on_c, 12, 38, 36
12, 6909, Note_off_c, 12, 38, 0
12, 6912, Note_on_c, 12, 40, 36
12, 6933, Note_off_c, 12, 40, 0
12, 6936, Note_on_c, 12, 38, 36
12, 6957, Note_off_c, 12, 38, 0
12, 6960, Note_on_c, 12, 40, 36
12, 6981, Note_off_c, 12, 40, 0
12, 6984, Note_on_c, 12, 36, 36
12, 7005, Note_off_c, 12, 36, 0
12, 7008, Note_on_c, 12, 41, 36
12, 7029, Note_off_c, 12, 41, 0
12, 7032, Note_on_c, 12, 43, 36
12, 7053, Note_off_c, 12, 43, 0
12, 7056, Note_on_c, 12, 45, 36
12, 7077, Note_off_c, 12, 45, 0
12, 7080, Note_on_c, 12, 43, 36
12, 7101, Note_off_c, 12, 43, 0
12, 7104, Note_on_c, 12, 45, 36
12, 7125, Note_off_c, 12, 45, 0
12, 7128, Note_on_c, 12, 41, 36
12, 7149, Note_off_c, 12, 41, 0
12, 7152, Note_on_c, 12, 35, 36
12, 7173, Note_off_c, 12, 35, 0
12, 7176, Note_on_c, 12, 36, 36
12, 7197, Note_off_c, 12, 36, 0
12, 7200, Note_on_c, 12, 38, 36
12, 7221, Note_off_c, 12, 38, 0
12, 7224, Note_on_c, 12, 36, 36
12, 7245, Note_off_c, 12, 36, 0
12, 7248, Note_on_c, 12, 38, 36
12, 7269, Note_off_c, 12, 38, 0
12, 7272, Note_on_c, 12, 35, 36
12, 7293, Note_off_c, 12, 35, 0
12, 7296, Note_on_c, 12, 40, 36
12, 7317, Note_off_c, 12, 40, 0
12, 7320, Note_on_c, 12, 41, 36
12, 7341, Note_off_c, 12, 41, 0
12, 7344, Note_on_c, 12, 43, 36
12, 7365, Note_off_c, 12, 43, 0
12, 7368, Note_on_c, 12, 41, 36
12, 7389, Note_off_c, 12, 41, 0
12, 7392, Note_on_c, 12, 43, 36
12, 7413, Note_off_c, 12, 43, 0
12, 7416, Note_on_c, 12, 40, 36
12, 7437, Note_off_c, 12, 40, 0
12, 7440, Note_on_c, 12, 33, 36
12, 7461, Note_off_c, 12, 33, 0
12, 7464, Note_on_c, 12, 35, 36
12, 7485, Note_off_c, 12, 35, 0
12, 7488, Note_on_c, 12, 36, 36
12, 7509, Note_off_c, 12, 36, 0
12, 7512, Note_on_c, 12, 35, 36
12, 7533, Note_off_c, 12, 35, 0
12, 7536, Note_on_c, 12, 36, 36
12, 7557, Note_off_c, 12, 36, 0
12, 7560, Note_on_c, 12, 33, 36
12, 7581, Note_off_c, 12, 33, 0
12, 7584, Note_on_c, 12, 38, 36
12, 7605, Note_off_c, 12, 38, 0
12, 7608, Note_on_c, 12, 40, 36
12, 7629, Note_off_c, 12, 40, 0
12, 7632, Note_on_c, 12, 41, 36
12, 7653, Note_off_c, 12, 41, 0
12, 7656, Note_on_c, 12, 40, 36
12, 7677, Note_off_c, 12, 40, 0
12, 7680, Note_on_c, 12, 41, 36
12, 7701, Note_off_c, 12, 41, 0
12, 7704, Note_on_c, 12, 38, 36
12, 7725, Note_off_c, 12, 38, 0
12, 7728, Note_on_c, 12, 31, 36
12, 7770, Note_off_c, 12, 31, 0
12, 7776, Note_on_c, 12, 31, 36
12, 7818, Note_off_c, 12, 31, 0
12, 7824, Note_on_c, 12, 31, 36
12, 7866, Note_off_c, 12, 31, 0
12, 7872, Note_on_c, 12, 31, 36
12, 7914, Note_off_c, 12, 31, 0
12, 7920, Note_on_c, 12, 31, 36
12, 7962, Note_off_c, 12, 31, 0
12, 7968, Note_on_c, 12, 31, 36
12, 8010, Note_off_c, 12, 31, 0
12, 8016, Note_on_c, 12, 31, 36
12, 8058, Note_off_c, 12, 31, 0
12, 8064, Note_on_c, 12, 31, 36
12, 8106, Note_off_c, 12, 31, 0
12, 8112, Note_on_c, 12, 31, 36
12, 8154, Note_off_c, 12, 31, 0
12, 8160, Note_on_c, 12, 31, 36
12, 8202, Note_off_c, 12, 31, 0
12, 8208, Note_on_c, 12, 31, 36
12, 8250, Note_off_c, 12, 31, 0
12, 8256, Note_on_c, 12, 31, 36
12, 8298, Note_off_c, 12, 31, 0
12, 8304, Note_on_c, 12, 31, 36
12, 8346, Note_off_c, 12, 31, 0
12, 8352, Note_on_c, 12, 31, 36
12, 8394, Note_off_c, 12, 31, 0
12, 8400, Note_on_c, 12, 31, 36
12, 8442, Note_off_c, 12, 31, 0
12, 8448, Note_on_c, 12, 31, 36
12, 8490, Note_off_c, 12, 31, 0
12, 8496, Note_on_c, 12, 43, 36
12, 8517, Note_off_c, 12, 43, 0
12, 8520, Note_on_c, 12, 45, 36
12, 8541, Note_off_c, 12, 45, 0
12, 8544, Note_on_c, 12, 43, 36
12, 8565, Note_off_c, 12, 43, 0
12, 8568, Note_on_c, 12, 41, 36
12, 8589, Note_off_c, 12, 41, 0
12, 8592, Note_on_c, 12, 40, 36
12, 8613, Note_off_c, 12, 40, 0
12, 8616, Note_on_c, 12, 41, 36
12, 8637, Note_off_c, 12, 41, 0
12, 8640, Note_on_c, 12, 40, 36
12, 8661, Note_off_c, 12, 40, 0
12, 8664, Note_on_c, 12, 38, 36
12, 8685, Note_off_c, 12, 38, 0
12, 8688, Note_on_c, 12, 40, 36
12, 8709, Note_off_c, 12, 40, 0
12, 8712, Note_on_c, 12, 36, 36
12, 8733, Note_off_c, 12, 36, 0
12, 8736, Note_on_c, 12, 41, 36
12, 8757, Note_off_c, 12, 41, 0
12, 8760, Note_on_c, 12, 43, 36
12, 8781, Note_off_c, 12, 43, 0
12, 8784, Note_on_c, 12, 41, 36
12, 8805, Note_off_c, 12, 41, 0
12, 8808, Note_on_c, 12, 40, 36
12, 8829, Note_off_c, 12, 40, 0
12, 8832, Note_on_c, 12, 41, 36
12, 8853, Note_off_c, 12, 41, 0
12, 8856, Note_on_c, 12, 40, 36
12, 8877, Note_off_c, 12, 40, 0
12, 8880, Note_on_c, 12, 38, 36
12, 8901, Note_off_c, 12, 38, 0
12, 8904, Note_on_c, 12, 43, 36
12, 8925, Note_off_c, 12, 43, 0
12, 8928, Note_on_c, 12, 41, 36
12, 8949, Note_off_c, 12, 41, 0
12, 8952, Note_on_c, 12, 40, 36
12, 8973, Note_off_c, 12, 40, 0
12, 8976, Note_on_c, 12, 41, 36
12, 8997, Note_off_c, 12, 41, 0
12, 9000, Note_on_c, 12, 38, 36
12, 9021, Note_off_c, 12, 38, 0
12, 9024, Note_on_c, 12, 43, 36
12, 9045, Note_off_c, 12, 43, 0
12, 9048, Note_on_c, 12, 45, 36
12, 9069, Note_off_c, 12, 45, 0
12, 9072, Note_on_c, 12, 43, 36
12, 9093, Note_off_c, 12, 43, 0
12, 9096, Note_on_c, 12, 41, 36
12, 9117, Note_off_c, 12, 41, 0
12, 9120, Note_on_c, 12, 43, 36
12, 9141, Note_off_c, 12, 43, 0
12, 9144, Note_on_c, 12, 41, 36
12, 9165, Note_off_c, 12, 41, 0
12, 9168, Note_on_c, 12, 40, 36
12, 9189, Note_off_c, 12, 40, 0
12, 9192, Note_on_c, 12, 45, 36
12, 9213, Note_off_c, 12, 45, 0
12, 9216, Note_on_c, 12, 43, 36
12, 9237, Note_off_c, 12, 43, 0
12, 9240, Note_on_c, 12, 41, 36
12, 9261, Note_off_c, 12, 41, 0
12, 9264, Note_on_c, 12, 43, 36
12, 9285, Note_off_c, 12, 43, 0
12, 9288, Note_on_c, 12, 40, 36
12, 9309, Note_off_c, 12, 40, 0
12, 9312, Note_on_c, 12, 45, 36
12, 9333, Note_off_c, 12, 45, 0
12, 9336, Note_on_c, 12, 46, 36
12, 9357, Note_off_c, 12, 46, 0
12, 9360, Note_on_c, 12, 45, 36
12, 9381, Note_off_c, 12, 45, 0
12, 9384, Note_on_c, 12, 43, 36
12, 9405, Note_off_c, 12, 43, 0
12, 9408, Note_on_c, 12, 45, 36
12, 9429, Note_off_c, 12, 45, 0
12, 9432, Note_on_c, 12, 43, 36
12, 9453, Note_off_c, 12, 43, 0
12, 9456, Note_on_c, 12, 41, 36
12, 9477, Note_off_c, 12, 41, 0
12, 9480, Note_on_c, 12, 46, 36
12, 9501, Note_off_c, 12, 46, 0
12, 9504, Note_on_c, 12, 45, 36
12, 9525, Note_off_c, 12, 45, 0
12, 9528, Note_on_c, 12, 43, 36
12, 9549, Note_off_c, 12, 43, 0
12, 9552, Note_on_c, 12, 45, 36
12, 9573, Note_off_c, 12, 45, 0
12, 9576, Note_on_c, 12, 41, 36
12, 9597, Note_off_c, 12, 41, 0
12, 9600, Note_on_c, 12, 43, 36
12, 9642, Note_off_c, 12, 43, 0
12, 9648, Note_on_c, 12, 31, 36
12, 9690, Note_off_c, 12, 31, 0
12, 9696, Note_on_c, 12, 31, 36
12, 9738, Note_off_c, 12, 31, 0
12, 9744, Note_on_c, 12, 31, 36
12, 9786, Note_off_c, 12, 31, 0
12, 9792, Note_on_c, 12, 35, 36
12, 9813, Note_off_c, 12, 35, 0
12, 9816, Note_on_c, 12, 33, 36
12, 9837, Note_off_c, 12, 33, 0
12, 9840, Note_on_c, 12, 35, 36
12, 9861, Note_off_c, 12, 35, 0
12, 9864, Note_on_c, 12, 31, 36
12, 9885, Note_off_c, 12, 31, 0
12, 9888, Note_on_c, 12, 36, 36
12, 9930, Note_off_c, 12, 36, 0
12, 9936, Note_on_c, 12, 40, 36
12, 9978, Note_off_c, 12, 40, 0
12, 9984, Note_on_c, 12, 43, 36
12, 10026, Note_off_c, 12, 43, 0
12, 10032, Note_on_c, 12, 40, 36
12, 10074, Note_off_c, 12, 40, 0
12, 10080, Note_on_c, 12, 36, 36
12, 10122, Note_off_c, 12, 36, 0
12, 10176, Note_on_c, 12, 35, 36
12, 10218, Note_off_c, 12, 35, 0
12, 10224, Note_on_c, 12, 38, 36
12, 10266, Note_off_c, 12, 38, 0
12, 10272, Note_on_c, 12, 43, 36
12, 10314, Note_off_c, 12, 43, 0
12, 10320, Note_on_c, 12, 35, 36
12, 10362, Note_off_c, 12, 35, 0
12, 10368, Note_on_c, 12, 31, 36
12, 10410, Note_off_c, 12, 31, 0
12, 10464, Note_on_c, 12, 33, 36
12, 10506, Note_off_c, 12, 33, 0
12, 10512, Note_on_c, 12, 36, 36
12, 10554, Note_off_c, 12, 36, 0
12, 10560, Note_on_c, 12, 33, 36
12, 10602, Note_off_c, 12, 33, 0
12, 10608, Note_on_c, 12, 29, 36
12, 10650, Note_off_c, 12, 29, 0
12, 10656, Note_on_c, 12, 26, 36
12, 10698, Note_off_c, 12, 26, 0
12, 10752, Note_on_c, 12, 31, 36
12, 10794, Note_off_c, 12, 31, 0
12, 10800, Note_on_c, 12, 31, 36
12, 10842, Note_off_c, 12, 31, 0
12, 10848, Note_on_c, 12, 31, 36
12, 10890, Note_off_c, 12, 31, 0
12, 10896, Note_on_c, 12, 31, 36
12, 10917, Note_off_c, 12, 31, 0
12, 10920, Note_on_c, 12, 33, 36
12, 10941, Note_off_c, 12, 33, 0
12, 10944, Note_on_c, 12, 35, 36
12, 10965, Note_off_c, 12, 35, 0
12, 10968, Note_on_c, 12, 33, 36
12, 10989, Note_off_c, 12, 33, 0
12, 10992, Note_on_c, 12, 35, 36
12, 11013, Note_off_c, 12, 35, 0
12, 11016, Note_on_c, 12, 31, 36
12, 11037, Note_off_c, 12, 31, 0
12, 11040, Note_on_c, 12, 38, 36
12, 11061, Note_off_c, 12, 38, 0
12, 11064, Note_on_c, 12, 40, 36
12, 11085, Note_off_c, 12, 40, 0
12, 11088, Note_on_c, 12, 41, 36
12, 11109, Note_off_c, 12, 41, 0
12, 11112, Note_on_c, 12, 40, 36
12, 11133, Note_off_c, 12, 40, 0
12, 11136, Note_on_c, 12, 41, 36
12, 11157, Note_off_c, 12, 41, 0
12, 11160, Note_on_c, 12, 38, 36
12, 11181, Note_off_c, 12, 38, 0
12, 11184, Note_on_c, 12, 40, 36
12, 11205, Note_off_c, 12, 40, 0
12, 11208, Note_on_c, 12, 41, 36
12, 11229, Note_off_c, 12, 41, 0
12, 11232, Note_on_c, 12, 43, 36
12, 11253, Note_off_c, 12, 43, 0
12, 11256, Note_on_c, 12, 40, 36
12, 11277, Note_off_c, 12, 40, 0
12, 11280, Note_on_c, 12, 45, 36
12, 11301, Note_off_c, 12, 45, 0
12, 11304, Note_on_c, 12, 43, 36
12, 11325, Note_off_c, 12, 43, 0
12, 11328, Note_on_c, 12, 45, 36
12, 11349, Note_off_c, 12, 45, 0
12, 11352, Note_on_c, 12, 41, 36
12, 11373, Note_off_c, 12, 41, 0
12, 11376, Note_on_c, 12, 43, 36
12, 11418, Note_off_c, 12, 43, 0
12, 11424, Note_on_c, 12, 31, 36
12, 11466, Note_off_c, 12, 31, 0
12, 11472, Note_on_c, 12, 24, 36
12, 11514, Note_off_c, 12, 24, 0
12, 11520, Note_on_c, 12, 28, 36
12, 11562, Note_off_c, 12, 28, 0
12, 11568, Note_on_c, 12, 31, 36
12, 11610, Note_off_c, 12, 31, 0
12, 11616, Note_on_c, 12, 36, 36
12, 11658, Note_off_c, 12, 36, 0
12, 11664, Note_on_c, 12, 40, 36
12, 11706, Note_off_c, 12, 40, 0
12, 11712, Note_on_c, 12, 45, 36
12, 11754, Note_off_c, 12, 45, 0
12, 11760, Note_on_c, 12, 35, 36
12, 11802, Note_off_c, 12, 35, 0
12, 11808, Note_on_c, 12, 38, 36
12, 11850, Note_off_c, 12, 38, 0
12, 11856, Note_on_c, 12, 43, 36
12, 11898, Note_off_c, 12, 43, 0
12, 11904, Note_on_c, 12, 33, 36
12, 11946, Note_off_c, 12, 33, 0
12, 11952, Note_on_c, 12, 36, 36
12, 11994, Note_off_c, 12, 36, 0
12, 12000, Note_on_c, 12, 41, 36
12, 12042, Note_off_c, 12, 41, 0
12, 12048, Note_on_c, 12, 31, 36
12, 12090, Note_off_c, 12, 31, 0
12, 12096, Note_on_c, 12, 35, 36
12, 12138, Note_off_c, 12, 35, 0
12, 12144, Note_on_c, 12, 40, 36
12, 12186, Note_off_c, 12, 40, 0
12, 12192, Note_on_c, 12, 29, 36
12, 12234, Note_off_c, 12, 29, 0
12, 12240, Note_on_c, 12, 33, 36
12, 12282, Note_off_c, 12, 33, 0
12, 12288, Note_on_c, 12, 38, 36
12, 12330, Note_off_c, 12, 38, 0
12, 12336, Note_on_c, 12, 28, 36
12, 12378, Note_off_c, 12, 28, 0
12, 12384, Note_on_c, 12, 31, 36
12, 12426, Note_off_c, 12, 31, 0
12, 12432, Note_on_c, 12, 36, 36
12, 12474, Note_off_c, 12, 36, 0
12, 12480, Note_on_c, 12, 26, 36
12, 12522, Note_off_c, 12, 26, 0
12, 12528, Note_on_c, 12, 33, 36
12, 12570, Note_off_c, 12, 33, 0
12, 12576, Note_on_c, 12, 38, 36
12, 12618, Note_off_c, 12, 38, 0
12, 12624, Note_on_c, 12, 24, 36
12, 12666, Note_off_c, 12, 24, 0
12, 12672, Note_on_c, 12, 33, 36
12, 12714, Note_off_c, 12, 33, 0
12, 12720, Note_on_c, 12, 38, 36
12, 12762, Note_off_c, 12, 38, 0
12, 12768, Note_on_c, 12, 35, 36
12, 12810, Note_off_c, 12, 35, 0
12, 12816, Note_on_c, 12, 31, 36
12, 12858, Note_off_c, 12, 31, 0
12, 12864, Note_on_c, 12, 38, 36
12, 12906, Note_off_c, 12, 38, 0
12, 12912, Note_on_c, 12, 43, 36
12, 12954, Note_off_c, 12, 43, 0
12, 12960, Note_on_c, 12, 31, 36
12, 13002, Note_off_c, 12, 31, 0
12, 13008, Note_on_c, 12, 43, 36
12, 13050, Note_off_c, 12, 43, 0
12, 13056, Note_on_c, 12, 36, 36
12, 13098, Note_off_c, 12, 36, 0
12, 13104, Note_on_c, 12, 43, 36
12, 13146, Note_off_c, 12, 43, 0
12, 13152, Note_on_c, 12, 48, 36
12, 13194, Note_off_c, 12, 48, 0
12, 13200, Note_on_c, 12, 35, 36
12, 13242, Note_off_c, 12, 35, 0
12, 13248, Note_on_c, 12, 43, 36
12, 13290, Note_off_c, 12, 43, 0
12, 13296, Note_on_c, 12, 48, 36
12, 13338, Note_off_c, 12, 48, 0
12, 13344, Note_on_c, 12, 33, 36
12, 13386, Note_off_c, 12, 33, 0
12, 13392, Note_on_c, 12, 45, 36
12, 13434, Note_off_c, 12, 45, 0
12, 13440, Note_on_c, 12, 40, 36
12, 13482, Note_off_c, 12, 40, 0
12, 13488, Note_on_c, 12, 41, 36
12, 13530, Note_off_c, 12, 41, 0
12, 13536, Note_on_c, 12, 45, 36
12, 13578, Note_off_c, 12, 45, 0
12, 13584, Note_on_c, 12, 38, 36
12, 13626, Note_off_c, 12, 38, 0
12, 13632, Note_on_c, 12, 31, 36
12, 13674, Note_off_c, 12, 31, 0
12, 13680, Note_on_c, 12, 35, 36
12, 13722, Note_off_c, 12, 35, 0
12, 13728, Note_on_c, 12, 38, 36
12, 13770, Note_off_c, 12, 38, 0
12, 13776, Note_on_c, 12, 31, 36
12, 13818, Note_off_c, 12, 31, 0
12, 13824, Note_on_c, 12, 35, 36
12, 13866, Note_off_c, 12, 35, 0
12, 13872, Note_on_c, 12, 38, 36
12, 13914, Note_off_c, 12, 38, 0
12, 13920, Note_on_c, 12, 31, 36
12, 13962, Note_off_c, 12, 31, 0
12, 13968, Note_on_c, 12, 35, 36
12, 14010, Note_off_c, 12, 35, 0
12, 14016, Note_on_c, 12, 38, 36
12, 14058, Note_off_c, 12, 38, 0
12, 14064, Note_on_c, 12, 43, 36
12, 14106, Note_off_c, 12, 43, 0
12, 14112, Note_on_c, 12, 47, 36
12, 14154, Note_off_c, 12, 47, 0
12, 14160, Note_on_c, 12, 43, 36
12, 14202, Note_off_c, 12, 43, 0
12, 14208, Note_on_c, 12, 48, 36
12, 14229, Note_off_c, 12, 48, 0
12, 14232, Note_on_c, 12, 47, 36
12, 14253, Note_off_c, 12, 47, 0
12, 14256, Note_on_c, 12, 48, 36
12, 14277, Note_off_c, 12, 48, 0
12, 14280, Note_on_c, 12, 47, 36
12, 14301, Note_off_c, 12, 47, 0
12, 14304, Note_on_c, 12, 45, 36
12, 14373, Note_off_c, 12, 45, 0
12, 14376, Note_on_c, 12, 41, 36
12, 14397, Note_off_c, 12, 41, 0
12, 14400, Note_on_c, 12, 43, 36
12, 14442, Note_off_c, 12, 43, 0
12, 14448, Note_on_c, 12, 31, 36
12, 14490, Note_off_c, 12, 31, 0
12, 14496, Note_on_c, 12, 36, 36
12, 14538, Note_off_c, 12, 36, 0
12, 14544, Note_on_c, 12, 40, 36
12, 14586, Note_off_c, 12, 40, 0
12, 14592, Note_on_c, 12, 36, 36
12, 14634, Note_off_c, 12, 36, 0
12, 14640, Note_on_c, 12, 33, 36
12, 14682, Note_off_c, 12, 33, 0
12, 14688, Note_on_c, 12, 38, 36
12, 14730, Note_off_c, 12, 38, 0
12, 14736, Note_on_c, 12, 31, 36
12, 14778, Note_off_c, 12, 31, 0
12, 14784, Note_on_c, 12, 36, 36
12, 14826, Note_off_c, 12, 36, 0
12, 14832, Note_on_c, 12, 31, 36
12, 14874, Note_off_c, 12, 31, 0
12, 14880, Note_on_c, 12, 33, 36
12, 14949, Note_off_c, 12, 33, 0
12, 14952, Note_on_c, 12, 29, 36
12, 14973, Note_off_c, 12, 29, 0
12, 14976, Note_on_c, 12, 31, 36
12, 15018, Note_off_c, 12, 31, 0
12, 15024, Note_on_c, 12, 31, 36
12, 15066, Note_off_c, 12, 31, 0
12, 15072, Note_on_c, 12, 36, 36
12, 15093, Note_off_c, 12, 36, 0
12, 15096, Note_on_c, 12, 38, 36
12, 15117, Note_off_c, 12, 38, 0
12, 15120, Note_on_c, 12, 40, 36
12, 15141, Note_off_c, 12, 40, 0
12, 15144, Note_on_c, 12, 38, 36
12, 15165, Note_off_c, 12, 38, 0
12, 15168, Note_on_c, 12, 40, 36
12, 15189, Note_off_c, 12, 40, 0
12, 15192, Note_on_c, 12, 36, 36
12, 15213, Note_off_c, 12, 36, 0
12, 15216, Note_on_c, 12, 41, 36
12, 15237, Note_off_c, 12, 41, 0
12, 15240, Note_on_c, 12, 43, 36
12, 15261, Note_off_c, 12, 43, 0
12, 15264, Note_on_c, 12, 45, 36
12, 15285, Note_off_c, 12, 45, 0
12, 15288, Note_on_c, 12, 43, 36
12, 15309, Note_off_c, 12, 43, 0
12, 15312, Note_on_c, 12, 45, 36
12, 15333, Note_off_c, 12, 45, 0
12, 15336, Note_on_c, 12, 41, 36
12, 15357, Note_off_c, 12, 41, 0
12, 15360, Note_on_c, 12, 46, 36
12, 15381, Note_off_c, 12, 46, 0
12, 15384, Note_on_c, 12, 45, 36
12, 15405, Note_off_c, 12, 45, 0
12, 15408, Note_on_c, 12, 43, 36
12, 15429, Note_off_c, 12, 43, 0
12, 15432, Note_on_c, 12, 45, 36
12, 15453, Note_off_c, 12, 45, 0
12, 15456, Note_on_c, 12, 46, 36
12, 15477, Note_off_c, 12, 46, 0
12, 15480, Note_on_c, 12, 43, 36
12, 15501, Note_off_c, 12, 43, 0
12, 15504, Note_on_c, 12, 45, 36
12, 15525, Note_off_c, 12, 45, 0
12, 15528, Note_on_c, 12, 47, 36
12, 15549, Note_off_c, 12, 47, 0
12, 15552, Note_on_c, 12, 49, 36
12, 15573, Note_off_c, 12, 49, 0
12, 15576, Note_on_c, 12, 47, 36
12, 15597, Note_off_c, 12, 47, 0
12, 15600, Note_on_c, 12, 49, 36
12, 15621, Note_off_c, 12, 49, 0
12, 15624, Note_on_c, 12, 45, 36
12, 15645, Note_off_c, 12, 45, 0
12, 15648, Note_on_c, 12, 50, 36
12, 15690, Note_off_c, 12, 50, 0
12, 15696, Note_on_c, 12, 38, 36
12, 15738, Note_off_c, 12, 38, 0
12, 15744, Note_on_c, 12, 40, 36
12, 15786, Note_off_c, 12, 40, 0
12, 15792, Note_on_c, 12, 41, 36
12, 15834, Note_off_c, 12, 41, 0
12, 15840, Note_on_c, 12, 40, 36
12, 15882, Note_off_c, 12, 40, 0
12, 15888, Note_on_c, 12, 38, 36
12, 15930, Note_off_c, 12, 38, 0
12, 15936, Note_on_c, 12, 36, 36
12, 15978, Note_off_c, 12, 36, 0
12, 15984, Note_on_c, 12, 48, 36
12, 16026, Note_off_c, 12, 48, 0
12, 16032, Note_on_c, 12, 50, 36
12, 16074, Note_off_c, 12, 50, 0
12, 16080, Note_on_c, 12, 52, 36
12, 16122, Note_off_c, 12, 52, 0
12, 16128, Note_on_c, 12, 50, 36
12, 16149, Note_off_c, 12, 50, 0
12, 16152, Note_on_c, 12, 48, 36
12, 16173, Note_off_c, 12, 48, 0
12, 16176, Note_on_c, 12, 47, 36
12, 16197, Note_off_c, 12, 47, 0
12, 16200, Note_on_c, 12, 43, 36
12, 16221, Note_off_c, 12, 43, 0
12, 16224, Note_on_c, 12, 44, 36
12, 16266, Note_off_c, 12, 44, 0
12, 16272, Note_on_c, 12, 40, 36
12, 16314, Note_off_c, 12, 40, 0
12, 16320, Note_on_c, 12, 44, 36
12, 16362, Note_off_c, 12, 44, 0
12, 16368, Note_on_c, 12, 45, 36
12, 16410, Note_off_c, 12, 45, 0
12, 16416, Note_on_c, 12, 33, 36
12, 16458, Note_off_c, 12, 33, 0
12, 16464, Note_on_c, 12, 36, 36
12, 16506, Note_off_c, 12, 36, 0
12, 16512, Note_on_c, 12, 38, 36
12, 16533, Note_off_c, 12, 38, 0
12, 16536, Note_on_c, 12, 40, 36
12, 16557, Note_off_c, 12, 40, 0
12, 16560, Note_on_c, 12, 41, 36
12, 16581, Note_off_c, 12, 41, 0
12, 16584, Note_on_c, 12, 38, 36
12, 16605, Note_off_c, 12, 38, 0
12, 16608, Note_on_c, 12, 36, 36
12, 16629, Note_off_c, 12, 36, 0
12, 16632, Note_on_c, 12, 35, 36
12, 16653, Note_off_c, 12, 35, 0
12, 16656, Note_on_c, 12, 36, 36
12, 16677, Note_off_c, 12, 36, 0
12, 16680, Note_on_c, 12, 38, 36
12, 16701, Note_off_c, 12, 38, 0
12, 16704, Note_on_c, 12, 40, 36
12, 16725, Note_off_c, 12, 40, 0
12, 16728, Note_on_c, 12, 36, 36
12, 16749, Note_off_c, 12, 36, 0
12, 16752, Note_on_c, 12, 35, 36
12, 16773, Note_off_c, 12, 35, 0
12, 16776, Note_on_c, 12, 33, 36
12, 16797, Note_off_c, 12, 33, 0
12, 16800, Note_on_c, 12, 35, 36
12, 16821, Note_off_c, 12, 35, 0
12, 16824, Note_on_c, 12, 36, 36
12, 16845, Note_off_c, 12, 36, 0
12, 16848, Note_on_c, 12, 38, 36
12, 16869, Note_off_c, 12, 38, 0
12, 16872, Note_on_c, 12, 35, 36
12, 16893, Note_off_c, 12, 35, 0
12, 16896, Note_on_c, 12, 33, 36
12, 16917, Note_off_c, 12, 33, 0
12, 16920, Note_on_c, 12, 32, 36
12, 16941, Note_off_c, 12, 32, 0
12, 16944, Note_on_c, 12, 33, 36
12, 16965, Note_off_c, 12, 33, 0
12, 16968, Note_on_c, 12, 38, 36
12, 16989, Note_off_c, 12, 38, 0
12, 16992, Note_on_c, 12, 40, 36
12, 17034, Note_off_c, 12, 40, 0
12, 17040, Note_on_c, 12, 28, 36
12, 17082, Note_off_c, 12, 28, 0
12, 17088, Note_on_c, 12, 33, 36
12, 17109, Note_off_c, 12, 33, 0
12, 17112, Note_on_c, 12, 35, 36
12, 17133, Note_off_c, 12, 35, 0
12, 17136, Note_on_c, 12, 36, 36
12, 17157, Note_off_c, 12, 36, 0
12, 17160, Note_on_c, 12, 35, 36
12, 17181, Note_off_c, 12, 35, 0
12, 17184, Note_on_c, 12, 36, 36
12, 17205, Note_off_c, 12, 36, 0
12, 17208, Note_on_c, 12, 33, 36
12, 17229, Note_off_c, 12, 33, 0
12, 17232, Note_on_c, 12, 38, 36
12, 17253, Note_off_c, 12, 38, 0
12, 17256, Note_on_c, 12, 40, 36
12, 17277, Note_off_c, 12, 40, 0
12, 17280, Note_on_c, 12, 41, 36
12, 17301, Note_off_c, 12, 41, 0
12, 17304, Note_on_c, 12, 40, 36
12, 17325, Note_off_c, 12, 40, 0
12, 17328, Note_on_c, 12, 41, 36
12, 17349, Note_off_c, 12, 41, 0
12, 17352, Note_on_c, 12, 38, 36
12, 17373, Note_off_c, 12, 38, 0
12, 17376, Note_on_c, 12, 31, 36
12, 17397, Note_off_c, 12, 31, 0
12, 17400, Note_on_c, 12, 33, 36
12, 17421, Note_off_c, 12, 33, 0
12, 17424, Note_on_c, 12, 35, 36
12, 17445, Note_off_c, 12, 35, 0
12, 17448, Note_on_c, 12, 33, 36
12, 17469, Note_off_c, 12, 33, 0
12, 17472, Note_on_c, 12, 35, 36
12, 17493, Note_off_c, 12, 35, 0
12, 17496, Note_on_c, 12, 31, 36
12, 17517, Note_off_c, 12, 31, 0
12, 17520, Note_on_c, 12, 36, 36
12, 17541, Note_off_c, 12, 36, 0
12, 17544, Note_on_c, 12, 38, 36
12, 17565, Note_off_c, 12, 38, 0
12, 17568, Note_on_c, 12, 40, 36
12, 17589, Note_off_c, 12, 40, 0
12, 17592, Note_on_c, 12, 38, 36
12, 17613, Note_off_c, 12, 38, 0
12, 17616, Note_on_c, 12, 40, 36
12, 17637, Note_off_c, 12, 40, 0
12, 17640, Note_on_c, 12, 36, 36
12, 17661, Note_off_c, 12, 36, 0
12, 17664, Note_on_c, 12, 41, 36
12, 17685, Note_off_c, 12, 41, 0
12, 17688, Note_on_c, 12, 43, 36
12, 17709, Note_off_c, 12, 43, 0
12, 17712, Note_on_c, 12, 45, 36
12, 17733, Note_off_c, 12, 45, 0
12, 17736, Note_on_c, 12, 43, 36
12, 17757, Note_off_c, 12, 43, 0
12, 17760, Note_on_c, 12, 45, 36
12, 17781, Note_off_c, 12, 45, 0
12, 17784, Note_on_c, 12, 41, 36
12, 17805, Note_off_c, 12, 41, 0
12, 17808, Note_on_c, 12, 47, 36
12, 17850, Note_off_c, 12, 47, 0
12, 17856, Note_on_c, 12, 40, 36
12, 17898, Note_off_c, 12, 40, 0
12, 17904, Note_on_c, 12, 45, 36
12, 17946, Note_off_c, 12, 45, 0
12, 17952, Note_on_c, 12, 38, 75
12, 17994, Note_off_c, 12, 38, 0
12, 18000, Note_on_c, 12, 40, 75
12, 18042, Note_off_c, 12, 40, 0
12, 18048, Note_on_c, 12, 28, 75
12, 18090, Note_off_c, 12, 28, 0
12, 18096, Note_on_c, 12, 33, 75
12, 18138, Note_off_c, 12, 33, 0
12, 18144, Note_on_c, 12, 40, 75
12, 18186, Note_off_c, 12, 40, 0
12, 18192, Note_on_c, 12, 45, 75
12, 18234, Note_off_c, 12, 45, 0
12, 18240, Note_on_c, 12, 35, 75
12, 18282, Note_off_c, 12, 35, 0
12, 18288, Note_on_c, 12, 38, 75
12, 18330, Note_off_c, 12, 38, 0
12, 18336, Note_on_c, 12, 44, 75
12, 18378, Note_off_c, 12, 44, 0
12, 18384, Note_on_c, 12, 33, 75
12, 18426, Note_off_c, 12, 33, 0
12, 18432, Note_on_c, 12, 38, 75
12, 18474, Note_off_c, 12, 38, 0
12, 18480, Note_on_c, 12, 45, 75
12, 18522, Note_off_c, 12, 45, 0
12, 18528, Note_on_c, 12, 32, 75
12, 18570, Note_off_c, 12, 32, 0
12, 18576, Note_on_c, 12, 38, 75
12, 18618, Note_off_c, 12, 38, 0
12, 18624, Note_on_c, 12, 47, 75
12, 18666, Note_off_c, 12, 47, 0
12, 18672, Note_on_c, 12, 44, 75
12, 18714, Note_off_c, 12, 44, 0
12, 18720, Note_on_c, 12, 40, 75
12, 18762, Note_off_c, 12, 40, 0
12, 18768, Note_on_c, 12, 28, 75
12, 18810, Note_off_c, 12, 28, 0
12, 18816, Note_on_c, 12, 33, 75
12, 18858, Note_off_c, 12, 33, 0
12, 18864, Note_on_c, 12, 40, 75
12, 18906, Note_off_c, 12, 40, 0
12, 18912, Note_on_c, 12, 45, 75
12, 18954, Note_off_c, 12, 45, 0
12, 18960, Note_on_c, 12, 31, 75
12, 19002, Note_off_c, 12, 31, 0
12, 19008, Note_on_c, 12, 40, 75
12, 19050, Note_off_c, 12, 40, 0
12, 19056, Note_on_c, 12, 45, 75
12, 19098, Note_off_c, 12, 45, 0
12, 19104, Note_on_c, 12, 29, 75
12, 19146, Note_off_c, 12, 29, 0
12, 19152, Note_on_c, 12, 41, 75
12, 19194, Note_off_c, 12, 41, 0
12, 19200, Note_on_c, 12, 36, 75
12, 19242, Note_off_c, 12, 36, 0
12, 19248, Note_on_c, 12, 38, 75
12, 19290, Note_off_c, 12, 38, 0
12, 19296, Note_on_c, 12, 41, 75
12, 19338, Note_off_c, 12, 41, 0
12, 19344, Note_on_c, 12, 35, 75
12, 19386, Note_off_c, 12, 35, 0
12, 19392, Note_on_c, 12, 28, 75
12, 19434, Note_off_c, 12, 28, 0
12, 19440, Note_on_c, 12, 32, 75
12, 19482, Note_off_c, 12, 32, 0
12, 19488, Note_on_c, 12, 35, 75
12, 19530, Note_off_c, 12, 35, 0
12, 19536, Note_on_c, 12, 40, 75
12, 19578, Note_off_c, 12, 40, 0
12, 19584, Note_on_c, 12, 44, 75
12, 19626, Note_off_c, 12, 44, 0
12, 19632, Note_on_c, 12, 40, 75
12, 19674, Note_off_c, 12, 40, 0
12, 19680, Note_on_c, 12, 45, 75
12, 19701, Note_off_c, 12, 45, 0
12, 19704, Note_on_c, 12, 44, 75
12, 19725, Note_off_c, 12, 44, 0
12, 19728, Note_on_c, 12, 45, 75
12, 19749, Note_off_c, 12, 45, 0
12, 19752, Note_on_c, 12, 40, 75
12, 19773, Note_off_c, 12, 40, 0
12, 19776, Note_on_c, 12, 41, 75
12, 19845, Note_off_c, 12, 41, 0
12, 19848, Note_on_c, 12, 38, 75
12, 19869, Note_off_c, 12, 38, 0
12, 19872, Note_on_c, 12, 40, 75
12, 19914, Note_off_c, 12, 40, 0
12, 19920, Note_on_c, 12, 28, 75
12, 19962, Note_off_c, 12, 28, 0
12, 19968, Note_on_c, 12, 33, 49
12, 19989, Note_off_c, 12, 33, 0
12, 19992, Note_on_c, 12, 35, 49
12, 20013, Note_off_c, 12, 35, 0
12, 20016, Note_on_c, 12, 36, 49
12, 20037, Note_off_c, 12, 36, 0
12, 20040, Note_on_c, 12, 35, 49
12, 20061, Note_off_c, 12, 35, 0
12, 20064, Note_on_c, 12, 36, 49
12, 20085, Note_off_c, 12, 36, 0
12, 20088, Note_on_c, 12, 33, 49
12, 20109, Note_off_c, 12, 33, 0
12, 20112, Note_on_c, 12, 38, 49
12, 20133, Note_off_c, 12, 38, 0
12, 20136, Note_on_c, 12, 40, 49
12, 20157, Note_off_c, 12, 40, 0
12, 20160, Note_on_c, 12, 41, 49
12, 20181, Note_off_c, 12, 41, 0
12, 20184, Note_on_c, 12, 40, 49
12, 20205, Note_off_c, 12, 40, 0
12, 20208, Note_on_c, 12, 41, 49
12, 20229, Note_off_c, 12, 41, 0
12, 20232, Note_on_c, 12, 38, 49
12, 20253, Note_off_c, 12, 38, 0
12, 20256, Note_on_c, 12, 31, 49
12, 20277, Note_off_c, 12, 31, 0
12, 20280, Note_on_c, 12, 33, 49
12, 20301, Note_off_c, 12, 33, 0
12, 20304, Note_on_c, 12, 34, 49
12, 20325, Note_off_c, 12, 34, 0
12, 20328, Note_on_c, 12, 33, 49
12, 20349, Note_off_c, 12, 33, 0
12, 20352, Note_on_c, 12, 34, 49
12, 20373, Note_off_c, 12, 34, 0
12, 20376, Note_on_c, 12, 31, 49
12, 20397, Note_off_c, 12, 31, 0
12, 20400, Note_on_c, 12, 36, 49
12, 20421, Note_off_c, 12, 36, 0
12, 20424, Note_on_c, 12, 38, 49
12, 20445, Note_off_c, 12, 38, 0
12, 20448, Note_on_c, 12, 40, 49
12, 20469, Note_off_c, 12, 40, 0
12, 20472, Note_on_c, 12, 38, 49
12, 20493, Note_off_c, 12, 38, 0
12, 20496, Note_on_c, 12, 40, 49
12, 20517, Note_off_c, 12, 40, 0
12, 20520, Note_on_c, 12, 36, 49
12, 20541, Note_off_c, 12, 36, 0
12, 20544, Note_on_c, 12, 29, 49
12, 20565, Note_off_c, 12, 29, 0
12, 20568, Note_on_c, 12, 31, 49
12, 20589, Note_off_c, 12, 31, 0
12, 20592, Note_on_c, 12, 33, 49
12, 20613, Note_off_c, 12, 33, 0
12, 20616, Note_on_c, 12, 31, 49
12, 20637, Note_off_c, 12, 31, 0
12, 20640, Note_on_c, 12, 29, 49
12, 20661, Note_off_c, 12, 29, 0
12, 20664, Note_on_c, 12, 27, 49
12, 20685, Note_off_c, 12, 27, 0
12, 20688, Note_on_c, 12, 26, 49
12, 20709, Note_off_c, 12, 26, 0
12, 20712, Note_on_c, 12, 27, 49
12, 20733, Note_off_c, 12, 27, 0
12, 20736, Note_on_c, 12, 29, 49
12, 20757, Note_off_c, 12, 29, 0
12, 20760, Note_on_c, 12, 27, 49
12, 20781, Note_off_c, 12, 27, 0
12, 20784, Note_on_c, 12, 29, 49
12, 20805, Note_off_c, 12, 29, 0
12, 20808, Note_on_c, 12, 26, 49
12, 20829, Note_off_c, 12, 26, 0
12, 20832, Note_on_c, 12, 31, 49
12, 20853, Note_off_c, 12, 31, 0
12, 20856, Note_on_c, 12, 33, 49
12, 20877, Note_off_c, 12, 33, 0
12, 20880, Note_on_c, 12, 34, 49
12, 20901, Note_off_c, 12, 34, 0
12, 20904, Note_on_c, 12, 33, 49
12, 20925, Note_off_c, 12, 33, 0
12, 20928, Note_on_c, 12, 34, 49
12, 20949, Note_off_c, 12, 34, 0
12, 20952, Note_on_c, 12, 31, 49
12, 20973, Note_off_c, 12, 31, 0
12, 20976, Note_on_c, 12, 36, 49
12, 20997, Note_off_c, 12, 36, 0
12, 21000, Note_on_c, 12, 38, 49
12, 21021, Note_off_c, 12, 38, 0
12, 21024, Note_on_c, 12, 39, 49
12, 21045, Note_off_c, 12, 39, 0
12, 21048, Note_on_c, 12, 38, 49
12, 21069, Note_off_c, 12, 38, 0
12, 21072, Note_on_c, 12, 39, 49
12, 21093, Note_off_c, 12, 39, 0
12, 21096, Note_on_c, 12, 36, 49
12, 21117, Note_off_c, 12, 36, 0
12, 21120, Note_on_c, 12, 41, 49
12, 21141, Note_off_c, 12, 41, 0
12, 21144, Note_on_c, 12, 43, 49
12, 21165, Note_off_c, 12, 43, 0
12, 21168, Note_on_c, 12, 45, 49
12, 21189, Note_off_c, 12, 45, 0
12, 21192, Note_on_c, 12, 43, 49
12, 21213, Note_off_c, 12, 43, 0
12, 21216, Note_on_c, 12, 45, 49
12, 21237, Note_off_c, 12, 45, 0
12, 21240, Note_on_c, 12, 41, 49
12, 21261, Note_off_c, 12, 41, 0
12, 21264, Note_on_c, 12, 46, 49
12, 21285, Note_off_c, 12, 46, 0
12, 21288, Note_on_c, 12, 48, 49
12, 21309, Note_off_c, 12, 48, 0
12, 21312, Note_on_c, 12, 50, 49
12, 21333, Note_off_c, 12, 50, 0
12, 21336, Note_on_c, 12, 48, 49
12, 21357, Note_off_c, 12, 48, 0
12, 21360, Note_on_c, 12, 50, 49
12, 21381, Note_off_c, 12, 50, 0
12, 21384, Note_on_c, 12, 46, 49
12, 21405, Note_off_c, 12, 46, 0
12, 21408, Note_on_c, 12, 48, 49
12, 21450, Note_off_c, 12, 48, 0
12, 21456, Note_on_c, 12, 36, 49
12, 21498, Note_off_c, 12, 36, 0
12, 21504, Note_on_c, 12, 38, 49
12, 21546, Note_off_c, 12, 38, 0
12, 21552, Note_on_c, 12, 39, 49
12, 21594, Note_off_c, 12, 39, 0
12, 21600, Note_on_c, 12, 38, 49
12, 21642, Note_off_c, 12, 38, 0
12, 21648, Note_on_c, 12, 36, 49
12, 21690, Note_off_c, 12, 36, 0
12, 21696, Note_on_c, 12, 34, 49
12, 21738, Note_off_c, 12, 34, 0
12, 21744, Note_on_c, 12, 46, 49
12, 21786, Note_off_c, 12, 46, 0
12, 21792, Note_on_c, 12, 48, 49
12, 21834, Note_off_c, 12, 48, 0
12, 21840, Note_on_c, 12, 50, 49
12, 21882, Note_off_c, 12, 50, 0
12, 21888, Note_on_c, 12, 48, 49
12, 21909, Note_off_c, 12, 48, 0
12, 21912, Note_on_c, 12, 46, 49
12, 21933, Note_off_c, 12, 46, 0
12, 21936, Note_on_c, 12, 45, 49
12, 21957, Note_off_c, 12, 45, 0
12, 21960, Note_on_c, 12, 43, 49
12, 21981, Note_off_c, 12, 43, 0
12, 21984, Note_on_c, 12, 42, 49
12, 22026, Note_off_c, 12, 42, 0
12, 22032, Note_on_c, 12, 38, 49
12, 22074, Note_off_c, 12, 38, 0
12, 22080, Note_on_c, 12, 42, 49
12, 22122, Note_off_c, 12, 42, 0
12, 22128, Note_on_c, 12, 43, 49
12, 22170, Note_off_c, 12, 43, 0
12, 22176, Note_on_c, 12, 31, 49
12, 22218, Note_off_c, 12, 31, 0
12, 22224, Note_on_c, 12, 34, 49
12, 22266, Note_off_c, 12, 34, 0
12, 22272, Note_on_c, 12, 36, 49
12, 22293, Note_off_c, 12, 36, 0
12, 22296, Note_on_c, 12, 38, 49
12, 22317, Note_off_c, 12, 38, 0
12, 22320, Note_on_c, 12, 39, 49
12, 22341, Note_off_c, 12, 39, 0
12, 22344, Note_on_c, 12, 36, 49
12, 22365, Note_off_c, 12, 36, 0
12, 22368, Note_on_c, 12, 34, 49
12, 22389, Note_off_c, 12, 34, 0
12, 22392, Note_on_c, 12, 33, 49
12, 22413, Note_off_c, 12, 33, 0
12, 22416, Note_on_c, 12, 34, 49
12, 22437, Note_off_c, 12, 34, 0
12, 22440, Note_on_c, 12, 36, 49
12, 22461, Note_off_c, 12, 36, 0
12, 22464, Note_on_c, 12, 38, 49
12, 22485, Note_off_c, 12, 38, 0
12, 22488, Note_on_c, 12, 34, 49
12, 22509, Note_off_c, 12, 34, 0
12, 22512, Note_on_c, 12, 33, 49
12, 22533, Note_off_c, 12, 33, 0
12, 22536, Note_on_c, 12, 31, 49
12, 22557, Note_off_c, 12, 31, 0
12, 22560, Note_on_c, 12, 33, 49
12, 22581, Note_off_c, 12, 33, 0
12, 22584, Note_on_c, 12, 34, 49
12, 22605, Note_off_c, 12, 34, 0
12, 22608, Note_on_c, 12, 36, 49
12, 22629, Note_off_c, 12, 36, 0
12, 22632, Note_on_c, 12, 33, 49
12, 22653, Note_off_c, 12, 33, 0
12, 22656, Note_on_c, 12, 31, 49
12, 22677, Note_off_c, 12, 31, 0
12, 22680, Note_on_c, 12, 30, 49
12, 22701, Note_off_c, 12, 30, 0
12, 22704, Note_on_c, 12, 31, 49
12, 22725, Note_off_c, 12, 31, 0
12, 22728, Note_on_c, 12, 36, 49
12, 22749, Note_off_c, 12, 36, 0
12, 22752, Note_on_c, 12, 38, 49
12, 22794, Note_off_c, 12, 38, 0
12, 22800, Note_on_c, 12, 26, 49
12, 22842, Note_off_c, 12, 26, 0
12, 22848, Note_on_c, 12, 31, 49
12, 22869, Note_off_c, 12, 31, 0
12, 22872, Note_on_c, 12, 33, 49
12, 22893, Note_off_c, 12, 33, 0
12, 22896, Note_on_c, 12, 34, 49
12, 22917, Note_off_c, 12, 34, 0
12, 22920, Note_on_c, 12, 33, 49
12, 22941, Note_off_c, 12, 33, 0
12, 22944, Note_on_c, 12, 34, 49
12, 22965, Note_off_c, 12, 34, 0
12, 22968, Note_on_c, 12, 31, 49
12, 22989, Note_off_c, 12, 31, 0
12, 22992, Note_on_c, 12, 36, 49
12, 23013, Note_off_c, 12, 36, 0
12, 23016, Note_on_c, 12, 38, 49
12, 23037, Note_off_c, 12, 38, 0
12, 23040, Note_on_c, 12, 39, 49
12, 23061, Note_off_c, 12, 39, 0
12, 23064, Note_on_c, 12, 38, 49
12, 23085, Note_off_c, 12, 38, 0
12, 23088, Note_on_c, 12, 39, 49
12, 23109, Note_off_c, 12, 39, 0
12, 23112, Note_on_c, 12, 36, 49
12, 23133, Note_off_c, 12, 36, 0
12, 23136, Note_on_c, 12, 41, 49
12, 23157, Note_off_c, 12, 41, 0
12, 23160, Note_on_c, 12, 43, 49
12, 23181, Note_off_c, 12, 43, 0
12, 23184, Note_on_c, 12, 45, 49
12, 23205, Note_off_c, 12, 45, 0
12, 23208, Note_on_c, 12, 43, 49
12, 23229, Note_off_c, 12, 43, 0
12, 23232, Note_on_c, 12, 45, 49
12, 23253, Note_off_c, 12, 45, 0
12, 23256, Note_on_c, 12, 41, 49
12, 23277, Note_off_c, 12, 41, 0
12, 23280, Note_on_c, 12, 46, 49
12, 23301, Note_off_c, 12, 46, 0
12, 23304, Note_on_c, 12, 48, 49
12, 23325, Note_off_c, 12, 48, 0
12, 23328, Note_on_c, 12, 50, 49
12, 23349, Note_off_c, 12, 50, 0
12, 23352, Note_on_c, 12, 48, 49
12, 23373, Note_off_c, 12, 48, 0
12, 23376, Note_on_c, 12, 50, 49
12, 23397, Note_off_c, 12, 50, 0
12, 23400, Note_on_c, 12, 46, 49
12, 23421, Note_off_c, 12, 46, 0
12, 23424, Tempo, 1500000
12, 23424, Note_on_c, 12, 38, 49
12, 23556, Note_off_c, 12, 38, 0
12, 23568, Note_on_c, 12, 39, 49
12, 23589, Note_off_c, 12, 39, 0
12, 23592, Note_on_c, 12, 38, 49
12, 23613, Note_off_c, 12, 38, 0
12, 23616, Time_signature, 2, 2, 96, 8
12, 23616, Note_on_c, 12, 39, 49
12, 23637, Note_off_c, 12, 39, 0
12, 23640, Note_on_c, 12, 36, 49
12, 23661, Note_off_c, 12, 36, 0
12, 23664, Note_on_c, 12, 43, 49
12, 23685, Note_off_c, 12, 43, 0
12, 23688, Note_on_c, 12, 41, 49
12, 23709, Note_off_c, 12, 41, 0
12, 23712, Note_on_c, 12, 43, 49
12, 23733, Note_off_c, 12, 43, 0
12, 23736, Note_on_c, 12, 39, 49
12, 23757, Note_off_c, 12, 39, 0
12, 23760, Note_on_c, 12, 41, 49
12, 23802, Note_off_c, 12, 41, 0
12, 23808, Time_signature, 6, 2, 96, 8
12, 23808, Note_on_c, 12, 29, 49
12, 23850, Note_off_c, 12, 29, 0
12, 23856, Note_on_c, 12, 34, 49
12, 23898, Note_off_c, 12, 34, 0
12, 23904, Tempo, 600000
12, 23904, Note_on_c, 12, 33, 96
12, 23946, Note_off_c, 12, 33, 0
12, 23952, Note_on_c, 12, 31, 96
12, 23994, Note_off_c, 12, 31, 0
12, 24000, Note_on_c, 12, 29, 49
12, 24021, Note_off_c, 12, 29, 0
12, 24024, Note_on_c, 12, 31, 49
12, 24045, Note_off_c, 12, 31, 0
12, 24048, Note_on_c, 12, 33, 49
12, 24069, Note_off_c, 12, 33, 0
12, 24072, Note_on_c, 12, 31, 49
12, 24093, Note_off_c, 12, 31, 0
12, 24096, Note_on_c, 12, 33, 49
12, 24117, Note_off_c, 12, 33, 0
12, 24120, Note_on_c, 12, 29, 49
12, 24141, Note_off_c, 12, 29, 0
12, 24144, Note_on_c, 12, 41, 49
12, 24186, Note_off_c, 12, 41, 0
12, 24192, Note_on_c, 12, 40, 49
12, 24234, Note_off_c, 12, 40, 0
12, 24240, Note_on_c, 12, 38, 49
12, 24282, Note_off_c, 12, 38, 0
12, 24288, Note_on_c, 12, 36, 49
12, 24309, Note_off_c, 12, 36, 0
12, 24312, Note_on_c, 12, 38, 49
12, 24333, Note_off_c, 12, 38, 0
12, 24336, Note_on_c, 12, 40, 49
12, 24357, Note_off_c, 12, 40, 0
12, 24360, Note_on_c, 12, 38, 49
12, 24381, Note_off_c, 12, 38, 0
12, 24384, Note_on_c, 12, 40, 49
12, 24405, Note_off_c, 12, 40, 0
12, 24408, Note_on_c, 12, 36, 49
12, 24429, Note_off_c, 12, 36, 0
12, 24432, Note_on_c, 12, 46, 49
12, 24474, Note_off_c, 12, 46, 0
12, 24480, Note_on_c, 12, 45, 49
12, 24522, Note_off_c, 12, 45, 0
12, 24528, Note_on_c, 12, 43, 49
12, 24570, Note_off_c, 12, 43, 0
12, 24576, Note_on_c, 12, 45, 49
12, 24618, Note_off_c, 12, 45, 0
12, 24624, Note_on_c, 12, 38, 49
12, 24666, Note_off_c, 12, 38, 0
12, 24672, Note_on_c, 12, 40, 49
12, 24714, Note_off_c, 12, 40, 0
12, 24720, Note_on_c, 12, 41, 49
12, 24762, Note_off_c, 12, 41, 0
12, 24768, Note_on_c, 12, 40, 49
12, 24789, Note_off_c, 12, 40, 0
12, 24792, Note_on_c, 12, 38, 49
12, 24813, Note_off_c, 12, 38, 0
12, 24816, Note_on_c, 12, 36, 49
12, 24837, Note_off_c, 12, 36, 0
12, 24840, Note_on_c, 12, 34, 49
12, 24861, Note_off_c, 12, 34, 0
12, 24864, Note_on_c, 12, 33, 49
12, 24885, Note_off_c, 12, 33, 0
12, 24888, Note_on_c, 12, 34, 49
12, 24909, Note_off_c, 12, 34, 0
12, 24912, Note_on_c, 12, 36, 49
12, 24922, Note_off_c, 12, 36, 0
12, 24924, Note_on_c, 12, 34, 49
12, 24934, Note_off_c, 12, 34, 0
12, 24936, Note_on_c, 12, 36, 49
12, 24946, Note_off_c, 12, 36, 0
12, 24948, Note_on_c, 12, 34, 49
12, 24958, Note_off_c, 12, 34, 0
12, 24960, Note_on_c, 12, 36, 49
12, 24970, Note_off_c, 12, 36, 0
12, 24972, Note_on_c, 12, 34, 49
12, 24982, Note_off_c, 12, 34, 0
12, 24984, Note_on_c, 12, 33, 49
12, 24994, Note_off_c, 12, 33, 0
12, 24996, Note_on_c, 12, 34, 49
12, 25006, Note_off_c, 12, 34, 0
12, 25008, Note_on_c, 12, 36, 49
12, 25029, Note_off_c, 12, 36, 0
12, 25032, Note_on_c, 12, 38, 49
12, 25053, Note_off_c, 12, 38, 0
12, 25056, Note_on_c, 12, 40, 49
12, 25077, Note_off_c, 12, 40, 0
12, 25080, Note_on_c, 12, 38, 49
12, 25101, Note_off_c, 12, 38, 0
12, 25104, Note_on_c, 12, 40, 49
12, 25125, Note_off_c, 12, 40, 0
12, 25128, Note_on_c, 12, 36, 49
12, 25149, Note_off_c, 12, 36, 0
12, 25152, Note_on_c, 12, 41, 49
12, 25194, Note_off_c, 12, 41, 0
12, 25200, Note_on_c, 12, 45, 49
12, 25242, Note_off_c, 12, 45, 0
12, 25248, Note_on_c, 12, 48, 49
12, 25290, Note_off_c, 12, 48, 0
12, 25296, Note_on_c, 12, 45, 49
12, 25338, Note_off_c, 12, 45, 0
12, 25344, Note_on_c, 12, 41, 49
12, 25386, Note_off_c, 12, 41, 0
12, 25440, Note_on_c, 12, 40, 49
12, 25482, Note_off_c, 12, 40, 0
12, 25488, Note_on_c, 12, 43, 49
12, 25530, Note_off_c, 12, 43, 0
12, 25536, Note_on_c, 12, 48, 49
12, 25578, Note_off_c, 12, 48, 0
12, 25584, Note_on_c, 12, 40, 49
12, 25626, Note_off_c, 12, 40, 0
12, 25632, Note_on_c, 12, 36, 49
12, 25674, Note_off_c, 12, 36, 0
12, 25728, Note_on_c, 12, 38, 49
12, 25770, Note_off_c, 12, 38, 0
12, 25776, Note_on_c, 12, 41, 49
12, 25818, Note_off_c, 12, 41, 0
12, 25824, Note_on_c, 12, 38, 49
12, 25866, Note_off_c, 12, 38, 0
12, 25872, Note_on_c, 12, 33, 49
12, 25914, Note_off_c, 12, 33, 0
12, 25920, Note_on_c, 12, 29, 49
12, 25962, Note_off_c, 12, 29, 0
12, 26016, Note_on_c, 12, 36, 49
12, 26058, Note_off_c, 12, 36, 0
12, 26064, Note_on_c, 12, 36, 49
12, 26106, Note_off_c, 12, 36, 0
12, 26112, Note_on_c, 12, 36, 49
12, 26154, Note_off_c, 12, 36, 0
12, 26160, Note_on_c, 12, 36, 49
12, 26181, Note_off_c, 12, 36, 0
12, 26184, Note_on_c, 12, 38, 49
12, 26205, Note_off_c, 12, 38, 0
12, 26208, Note_on_c, 12, 40, 49
12, 26229, Note_off_c, 12, 40, 0
12, 26232, Note_on_c, 12, 38, 49
12, 26253, Note_off_c, 12, 38, 0
12, 26256, Note_on_c, 12, 40, 49
12, 26277, Note_off_c, 12, 40, 0
12, 26280, Note_on_c, 12, 36, 49
12, 26301, Note_off_c, 12, 36, 0
12, 26304, Note_on_c, 12, 41, 49
12, 26325, Note_off_c, 12, 41, 0
12, 26328, Note_on_c, 12, 43, 49
12, 26349, Note_off_c, 12, 43, 0
12, 26352, Note_on_c, 12, 45, 49
12, 26373, Note_off_c, 12, 45, 0
12, 26376, Note_on_c, 12, 43, 49
12, 26397, Note_off_c, 12, 43, 0
12, 26400, Note_on_c, 12, 45, 49
12, 26421, Note_off_c, 12, 45, 0
12, 26424, Note_on_c, 12, 41, 49
12, 26445, Note_off_c, 12, 41, 0
12, 26448, Note_on_c, 12, 34, 49
12, 26469, Note_off_c, 12, 34, 0
12, 26472, Note_on_c, 12, 36, 49
12, 26493, Note_off_c, 12, 36, 0
12, 26496, Note_on_c, 12, 38, 49
12, 26517, Note_off_c, 12, 38, 0
12, 26520, Note_on_c, 12, 36, 49
12, 26541, Note_off_c, 12, 36, 0
12, 26544, Note_on_c, 12, 38, 49
12, 26565, Note_off_c, 12, 38, 0
12, 26568, Note_on_c, 12, 34, 49
12, 26589, Note_off_c, 12, 34, 0
12, 26592, Note_on_c, 12, 40, 49
12, 26613, Note_off_c, 12, 40, 0
12, 26616, Note_on_c, 12, 41, 49
12, 26637, Note_off_c, 12, 41, 0
12, 26640, Note_on_c, 12, 43, 49
12, 26661, Note_off_c, 12, 43, 0
12, 26664, Note_on_c, 12, 41, 49
12, 26685, Note_off_c, 12, 41, 0
12, 26688, Note_on_c, 12, 43, 49
12, 26709, Note_off_c, 12, 43, 0
12, 26712, Note_on_c, 12, 40, 49
12, 26733, Note_off_c, 12, 40, 0
12, 26736, Note_on_c, 12, 33, 49
12, 26757, Note_off_c, 12, 33, 0
12, 26760, Note_on_c, 12, 34, 49
12, 26781, Note_off_c, 12, 34, 0
12, 26784, Note_on_c, 12, 36, 49
12, 26805, Note_off_c, 12, 36, 0
12, 26808, Note_on_c, 12, 34, 49
12, 26829, Note_off_c, 12, 34, 0
12, 26832, Note_on_c, 12, 36, 49
12, 26853, Note_off_c, 12, 36, 0
12, 26856, Note_on_c, 12, 33, 49
12, 26877, Note_off_c, 12, 33, 0
12, 26880, Note_on_c, 12, 38, 49
12, 26901, Note_off_c, 12, 38, 0
12, 26904, Note_on_c, 12, 40, 49
12, 26925, Note_off_c, 12, 40, 0
12, 26928, Note_on_c, 12, 41, 49
12, 26949, Note_off_c, 12, 41, 0
12, 26952, Note_on_c, 12, 40, 49
12, 26973, Note_off_c, 12, 40, 0
12, 26976, Note_on_c, 12, 41, 49
12, 26997, Note_off_c, 12, 41, 0
12, 27000, Note_on_c, 12, 38, 49
12, 27021, Note_off_c, 12, 38, 0
12, 27024, Note_on_c, 12, 31, 49
12, 27045, Note_off_c, 12, 31, 0
12, 27048, Note_on_c, 12, 33, 49
12, 27069, Note_off_c, 12, 33, 0
12, 27072, Note_on_c, 12, 34, 49
12, 27093, Note_off_c, 12, 34, 0
12, 27096, Note_on_c, 12, 33, 49
12, 27117, Note_off_c, 12, 33, 0
12, 27120, Note_on_c, 12, 34, 49
12, 27141, Note_off_c, 12, 34, 0
12, 27144, Note_on_c, 12, 31, 49
12, 27165, Note_off_c, 12, 31, 0
12, 27168, Note_on_c, 12, 36, 49
12, 27210, Note_off_c, 12, 36, 0
12, 27216, Note_on_c, 12, 36, 49
12, 27258, Note_off_c, 12, 36, 0
12, 27264, Note_on_c, 12, 36, 49
12, 27306, Note_off_c, 12, 36, 0
12, 27312, Note_on_c, 12, 36, 49
12, 27354, Note_off_c, 12, 36, 0
12, 27360, Note_on_c, 12, 36, 49
12, 27402, Note_off_c, 12, 36, 0
12, 27408, Note_on_c, 12, 36, 49
12, 27450, Note_off_c, 12, 36, 0
12, 27456, Note_on_c, 12, 36, 49
12, 27498, Note_off_c, 12, 36, 0
12, 27504, Note_on_c, 12, 36, 49
12, 27546, Note_off_c, 12, 36, 0
12, 27552, Note_on_c, 12, 36, 49
12, 27594, Note_off_c, 12, 36, 0
12, 27600, Note_on_c, 12, 36, 49
12, 27642, Note_off_c, 12, 36, 0
12, 27648, Note_on_c, 12, 36, 49
12, 27690, Note_off_c, 12, 36, 0
12, 27696, Note_on_c, 12, 36, 49
12, 27738, Note_off_c, 12, 36, 0
12, 27744, Note_on_c, 12, 36, 49
12, 27786, Note_off_c, 12, 36, 0
12, 27792, Note_on_c, 12, 36, 49
12, 27834, Note_off_c, 12, 36, 0
12, 27840, Note_on_c, 12, 36, 49
12, 27882, Note_off_c, 12, 36, 0
12, 27888, Note_on_c, 12, 36, 49
12, 27909, Note_off_c, 12, 36, 0
12, 27912, Note_on_c, 12, 34, 49
12, 27933, Note_off_c, 12, 34, 0
12, 27936, Note_on_c, 12, 36, 49
12, 27957, Note_off_c, 12, 36, 0
12, 27960, Note_on_c, 12, 38, 49
12, 27981, Note_off_c, 12, 38, 0
12, 27984, Note_on_c, 12, 36, 49
12, 28005, Note_off_c, 12, 36, 0
12, 28008, Note_on_c, 12, 34, 49
12, 28029, Note_off_c, 12, 34, 0
12, 28032, Note_on_c, 12, 33, 49
12, 28053, Note_off_c, 12, 33, 0
12, 28056, Note_on_c, 12, 34, 49
12, 28077, Note_off_c, 12, 34, 0
12, 28080, Note_on_c, 12, 33, 49
12, 28101, Note_off_c, 12, 33, 0
12, 28104, Note_on_c, 12, 31, 49
12, 28125, Note_off_c, 12, 31, 0
12, 28128, Note_on_c, 12, 33, 49
12, 28149, Note_off_c, 12, 33, 0
12, 28152, Note_on_c, 12, 29, 49
12, 28173, Note_off_c, 12, 29, 0
12, 28176, Note_on_c, 12, 34, 49
12, 28197, Note_off_c, 12, 34, 0
12, 28200, Note_on_c, 12, 36, 49
12, 28221, Note_off_c, 12, 36, 0
12, 28224, Note_on_c, 12, 38, 49
12, 28245, Note_off_c, 12, 38, 0
12, 28248, Note_on_c, 12, 36, 49
12, 28269, Note_off_c, 12, 36, 0
12, 28272, Note_on_c, 12, 34, 49
12, 28293, Note_off_c, 12, 34, 0
12, 28296, Note_on_c, 12, 33, 49
12, 28317, Note_off_c, 12, 33, 0
12, 28320, Note_on_c, 12, 31, 49
12, 28341, Note_off_c, 12, 31, 0
12, 28344, Note_on_c, 12, 33, 49
12, 28365, Note_off_c, 12, 33, 0
12, 28368, Note_on_c, 12, 34, 49
12, 28389, Note_off_c, 12, 34, 0
12, 28392, Note_on_c, 12, 33, 49
12, 28413, Note_off_c, 12, 33, 0
12, 28416, Note_on_c, 12, 34, 49
12, 28437, Note_off_c, 12, 34, 0
12, 28440, Note_on_c, 12, 31, 49
12, 28461, Note_off_c, 12, 31, 0
12, 28464, Note_on_c, 12, 36, 49
12, 28485, Note_off_c, 12, 36, 0
12, 28488, Note_on_c, 12, 38, 49
12, 28509, Note_off_c, 12, 38, 0
12, 28512, Note_on_c, 12, 40, 49
12, 28533, Note_off_c, 12, 40, 0
12, 28536, Note_on_c, 12, 38, 49
12, 28557, Note_off_c, 12, 38, 0
12, 28560, Note_on_c, 12, 36, 49
12, 28581, Note_off_c, 12, 36, 0
12, 28584, Note_on_c, 12, 34, 49
12, 28605, Note_off_c, 12, 34, 0
12, 28608, Note_on_c, 12, 33, 49
12, 28629, Note_off_c, 12, 33, 0
12, 28632, Note_on_c, 12, 34, 49
12, 28653, Note_off_c, 12, 34, 0
12, 28656, Note_on_c, 12, 36, 49
12, 28677, Note_off_c, 12, 36, 0
12, 28680, Note_on_c, 12, 34, 49
12, 28701, Note_off_c, 12, 34, 0
12, 28704, Note_on_c, 12, 36, 49
12, 28725, Note_off_c, 12, 36, 0
12, 28728, Note_on_c, 12, 33, 49
12, 28749, Note_off_c, 12, 33, 0
12, 28752, Note_on_c, 12, 38, 49
12, 28773, Note_off_c, 12, 38, 0
12, 28776, Note_on_c, 12, 40, 49
12, 28797, Note_off_c, 12, 40, 0
12, 28800, Note_on_c, 12, 41, 49
12, 28821, Note_off_c, 12, 41, 0
12, 28824, Note_on_c, 12, 40, 49
12, 28845, Note_off_c, 12, 40, 0
12, 28848, Note_on_c, 12, 41, 49
12, 28869, Note_off_c, 12, 41, 0
12, 28872, Note_on_c, 12, 38, 49
12, 28893, Note_off_c, 12, 38, 0
12, 28896, Note_on_c, 12, 43, 49
12, 28917, Note_off_c, 12, 43, 0
12, 28920, Note_on_c, 12, 45, 49
12, 28941, Note_off_c, 12, 45, 0
12, 28944, Note_on_c, 12, 47, 49
12, 28965, Note_off_c, 12, 47, 0
12, 28968, Note_on_c, 12, 45, 49
12, 28989, Note_off_c, 12, 45, 0
12, 28992, Note_on_c, 12, 47, 49
12, 29013, Note_off_c, 12, 47, 0
12, 29016, Note_on_c, 12, 43, 49
12, 29037, Note_off_c, 12, 43, 0
12, 29040, Note_on_c, 12, 48, 49
12, 29082, Note_off_c, 12, 48, 0
12, 29088, Note_on_c, 12, 36, 49
12, 29130, Note_off_c, 12, 36, 0
12, 29136, Note_on_c, 12, 36, 49
12, 29178, Note_off_c, 12, 36, 0
12, 29184, Note_on_c, 12, 36, 49
12, 29226, Note_off_c, 12, 36, 0
12, 29232, Note_on_c, 12, 40, 49
12, 29253, Note_off_c, 12, 40, 0
12, 29256, Note_on_c, 12, 38, 49
12, 29277, Note_off_c, 12, 38, 0
12, 29280, Note_on_c, 12, 40, 49
12, 29301, Note_off_c, 12, 40, 0
12, 29304, Note_on_c, 12, 36, 49
12, 29325, Note_off_c, 12, 36, 0
12, 29328, Note_on_c, 12, 41, 49
12, 29370, Note_off_c, 12, 41, 0
12, 29376, Note_on_c, 12, 45, 49
12, 29418, Note_off_c, 12, 45, 0
12, 29424, Note_on_c, 12, 48, 49
12, 29466, Note_off_c, 12, 48, 0
12, 29472, Note_on_c, 12, 45, 49
12, 29514, Note_off_c, 12, 45, 0
12, 29520, Note_on_c, 12, 41, 49
12, 29562, Note_off_c, 12, 41, 0
12, 29616, Note_on_c, 12, 40, 49
12, 29658, Note_off_c, 12, 40, 0
12, 29664, Note_on_c, 12, 43, 49
12, 29706, Note_off_c, 12, 43, 0
12, 29712, Note_on_c, 12, 48, 49
12, 29754, Note_off_c, 12, 48, 0
12, 29760, Note_on_c, 12, 40, 49
12, 29802, Note_off_c, 12, 40, 0
12, 29808, Note_on_c, 12, 36, 49
12, 29850, Note_off_c, 12, 36, 0
12, 29904, Note_on_c, 12, 38, 49
12, 29946, Note_off_c, 12, 38, 0
12, 29952, Note_on_c, 12, 41, 49
12, 29994, Note_off_c, 12, 41, 0
12, 30000, Note_on_c, 12, 38, 49
12, 30042, Note_off_c, 12, 38, 0
12, 30048, Note_on_c, 12, 33, 49
12, 30090, Note_off_c, 12, 33, 0
12, 30096, Note_on_c, 12, 29, 49
12, 30138, Note_off_c, 12, 29, 0
12, 30192, Note_on_c, 12, 36, 49
12, 30234, Note_off_c, 12, 36, 0
12, 30240, Note_on_c, 12, 36, 49
12, 30282, Note_off_c, 12, 36, 0
12, 30288, Note_on_c, 12, 36, 49
12, 30330, Note_off_c, 12, 36, 0
12, 30336, Note_on_c, 12, 36, 49
12, 30357, Note_off_c, 12, 36, 0
12, 30360, Note_on_c, 12, 38, 49
12, 30381, Note_off_c, 12, 38, 0
12, 30384, Note_on_c, 12, 40, 49
12, 30405, Note_off_c, 12, 40, 0
12, 30408, Note_on_c, 12, 38, 49
12, 30429, Note_off_c, 12, 38, 0
12, 30432, Note_on_c, 12, 40, 49
12, 30453, Note_off_c, 12, 40, 0
12, 30456, Note_on_c, 12, 36, 49
12, 30477, Note_off_c, 12, 36, 0
12, 30480, Note_on_c, 12, 43, 49
12, 30501, Note_off_c, 12, 43, 0
12, 30504, Note_on_c, 12, 45, 49
12, 30525, Note_off_c, 12, 45, 0
12, 30528, Note_on_c, 12, 46, 49
12, 30549, Note_off_c, 12, 46, 0
12, 30552, Note_on_c, 12, 45, 49
12, 30573, Note_off_c, 12, 45, 0
12, 30576, Note_on_c, 12, 46, 49
12, 30597, Note_off_c, 12, 46, 0
12, 30600, Note_on_c, 12, 43, 49
12, 30621, Note_off_c, 12, 43, 0
12, 30624, Note_on_c, 12, 45, 49
12, 30645, Note_off_c, 12, 45, 0
12, 30648, Note_on_c, 12, 46, 49
12, 30669, Note_off_c, 12, 46, 0
12, 30672, Note_on_c, 12, 48, 49
12, 30693, Note_off_c, 12, 48, 0
12, 30696, Note_on_c, 12, 45, 49
12, 30717, Note_off_c, 12, 45, 0
12, 30720, Note_on_c, 12, 50, 49
12, 30741, Note_off_c, 12, 50, 0
12, 30744, Note_on_c, 12, 48, 49
12, 30765, Note_off_c, 12, 48, 0
12, 30768, Note_on_c, 12, 50, 49
12, 30789, Note_off_c, 12, 50, 0
12, 30792, Note_on_c, 12, 46, 49
12, 30813, Note_off_c, 12, 46, 0
12, 30816, Note_on_c, 12, 48, 49
12, 30858, Note_off_c, 12, 48, 0
12, 30864, Note_on_c, 12, 36, 49
12, 30906, Note_off_c, 12, 36, 0
12, 30912, Note_on_c, 12, 41, 49
12, 30954, Note_off_c, 12, 41, 0
12, 30960, Note_on_c, 12, 45, 49
12, 31002, Note_off_c, 12, 45, 0
12, 31008, Note_on_c, 12, 48, 49
12, 31050, Note_off_c, 12, 48, 0
12, 31056, Note_on_c, 12, 45, 49
12, 31098, Note_off_c, 12, 45, 0
12, 31104, Note_on_c, 12, 41, 49
12, 31146, Note_off_c, 12, 41, 0
12, 31200, Note_on_c, 12, 40, 49
12, 31242, Note_off_c, 12, 40, 0
12, 31248, Note_on_c, 12, 43, 49
12, 31290, Note_off_c, 12, 43, 0
12, 31296, Note_on_c, 12, 48, 49
12, 31338, Note_off_c, 12, 48, 0
12, 31344, Note_on_c, 12, 40, 49
12, 31386, Note_off_c, 12, 40, 0
12, 31392, Note_on_c, 12, 36, 49
12, 31434, Note_off_c, 12, 36, 0
12, 31488, Note_on_c, 12, 38, 49
12, 31530, Note_off_c, 12, 38, 0
12, 31536, Note_on_c, 12, 41, 49
12, 31578, Note_off_c, 12, 41, 0
12, 31584, Note_on_c, 12, 38, 49
12, 31626, Note_off_c, 12, 38, 0
12, 31632, Note_on_c, 12, 33, 49
12, 31674, Note_off_c, 12, 33, 0
12, 31680, Note_on_c, 12, 29, 49
12, 31722, Note_off_c, 12, 29, 0
12, 31776, Note_on_c, 12, 36, 49
12, 31818, Note_off_c, 12, 36, 0
12, 31824, Note_on_c, 12, 36, 49
12, 31866, Note_off_c, 12, 36, 0
12, 31872, Note_on_c, 12, 36, 49
12, 31914, Note_off_c, 12, 36, 0
12, 31920, Note_on_c, 12, 36, 49
12, 31962, Note_off_c, 12, 36, 0
12, 31968, Note_on_c, 12, 40, 49
12, 31989, Note_off_c, 12, 40, 0
12, 31992, Note_on_c, 12, 38, 49
12, 32013, Note_off_c, 12, 38, 0
12, 32016, Note_on_c, 12, 40, 49
12, 32037, Note_off_c, 12, 40, 0
12, 32040, Note_on_c, 12, 36, 49
12, 32061, Note_off_c, 12, 36, 0
12, 32064, Note_on_c, 12, 41, 49
12, 32106, Note_off_c, 12, 41, 0
12, 32112, Note_on_c, 12, 45, 49
12, 32154, Note_off_c, 12, 45, 0
12, 32160, Note_on_c, 12, 50, 49
12, 32202, Note_off_c, 12, 50, 0
12, 32208, Note_on_c, 12, 40, 49
12, 32250, Note_off_c, 12, 40, 0
12, 32256, Note_on_c, 12, 43, 49
12, 32298, Note_off_c, 12, 43, 0
12, 32304, Note_on_c, 12, 48, 49
12, 32346, Note_off_c, 12, 48, 0
12, 32352, Note_on_c, 12, 38, 49
12, 32394, Note_off_c, 12, 38, 0
12, 32400, Note_on_c, 12, 41, 49
12, 32442, Note_off_c, 12, 41, 0
12, 32448, Note_on_c, 12, 46, 49
12, 32490, Note_off_c, 12, 46, 0
12, 32496, Note_on_c, 12, 36, 49
12, 32538, Note_off_c, 12, 36, 0
12, 32544, Note_on_c, 12, 40, 49
12, 32586, Note_off_c, 12, 40, 0
12, 32592, Note_on_c, 12, 45, 49
12, 32634, Note_off_c, 12, 45, 0
12, 32640, Note_on_c, 12, 34, 49
12, 32682, Note_off_c, 12, 34, 0
12, 32688, Note_on_c, 12, 38, 49
12, 32730, Note_off_c, 12, 38, 0
12, 32736, Note_on_c, 12, 43, 49
12, 32778, Note_off_c, 12, 43, 0
12, 32784, Note_on_c, 12, 33, 49
12, 32826, Note_off_c, 12, 33, 0
12, 32832, Note_on_c, 12, 36, 49
12, 32874, Note_off_c, 12, 36, 0
12, 32880, Note_on_c, 12, 41, 49
12, 32922, Note_off_c, 12, 41, 0
12, 32928, Note_on_c, 12, 31, 49
12, 32970, Note_off_c, 12, 31, 0
12, 32976, Note_on_c, 12, 38, 49
12, 33018, Note_off_c, 12, 38, 0
12, 33024, Note_on_c, 12, 43, 49
12, 33066, Note_off_c, 12, 43, 0
12, 33072, Note_on_c, 12, 29, 49
12, 33114, Note_off_c, 12, 29, 0
12, 33120, Note_on_c, 12, 38, 49
12, 33162, Note_off_c, 12, 38, 0
12, 33168, Note_on_c, 12, 43, 49
12, 33210, Note_off_c, 12, 43, 0
12, 33216, Note_on_c, 12, 28, 49
12, 33258, Note_off_c, 12, 28, 0
12, 33264, Note_on_c, 12, 36, 49
12, 33306, Note_off_c, 12, 36, 0
12, 33312, Note_on_c, 12, 43, 49
12, 33354, Note_off_c, 12, 43, 0
12, 33360, Note_on_c, 12, 40, 49
12, 33402, Note_off_c, 12, 40, 0
12, 33408, Note_on_c, 12, 36, 49
12, 33450, Note_off_c, 12, 36, 0
12, 33456, Note_on_c, 12, 48, 49
12, 33498, Note_off_c, 12, 48, 0
12, 33504, Note_on_c, 12, 29, 49
12, 33546, Note_off_c, 12, 29, 0
12, 33552, Note_on_c, 12, 36, 49
12, 33594, Note_off_c, 12, 36, 0
12, 33600, Note_on_c, 12, 41, 49
12, 33642, Note_off_c, 12, 41, 0
12, 33648, Note_on_c, 12, 28, 49
12, 33690, Note_off_c, 12, 28, 0
12, 33696, Note_on_c, 12, 36, 49
12, 33738, Note_off_c, 12, 36, 0
12, 33744, Note_on_c, 12, 41, 49
12, 33786, Note_off_c, 12, 41, 0
12, 33792, Note_on_c, 12, 26, 49
12, 33834, Note_off_c, 12, 26, 0
12, 33840, Note_on_c, 12, 38, 49
12, 33882, Note_off_c, 12, 38, 0
12, 33888, Note_on_c, 12, 33, 49
12, 33930, Note_off_c, 12, 33, 0
12, 33936, Note_on_c, 12, 34, 49
12, 33978, Note_off_c, 12, 34, 0
12, 33984, Note_on_c, 12, 38, 49
12, 34026, Note_off_c, 12, 38, 0
12, 34032, Note_on_c, 12, 31, 49
12, 34074, Note_off_c, 12, 31, 0
12, 34080, Note_on_c, 12, 36, 49
12, 34122, Note_off_c, 12, 36, 0
12, 34128, Note_on_c, 12, 40, 49
12, 34170, Note_off_c, 12, 40, 0
12, 34176, Note_on_c, 12, 43, 49
12, 34218, Note_off_c, 12, 43, 0
12, 34224, Note_on_c, 12, 36, 49
12, 34266, Note_off_c, 12, 36, 0
12, 34272, Note_on_c, 12, 40, 49
12, 34314, Note_off_c, 12, 40, 0
12, 34320, Note_on_c, 12, 43, 49
12, 34362, Note_off_c, 12, 43, 0
12, 34368, Note_on_c, 12, 36, 49
12, 34410, Note_off_c, 12, 36, 0
12, 34416, Note_on_c, 12, 40, 49
12, 34458, Note_off_c, 12, 40, 0
12, 34464, Note_on_c, 12, 43, 49
12, 34506, Note_off_c, 12, 43, 0
12, 34512, Note_on_c, 12, 36, 49
12, 34554, Note_off_c, 12, 36, 0
12, 34560, Note_on_c, 12, 40, 49
12, 34602, Note_off_c, 12, 40, 0
12, 34608, Note_on_c, 12, 36, 49
12, 34650, Note_off_c, 12, 36, 0
12, 34656, Note_on_c, 12, 41, 49
12, 34677, Note_off_c, 12, 41, 0
12, 34680, Note_on_c, 12, 40, 49
12, 34701, Note_off_c, 12, 40, 0
12, 34704, Note_on_c, 12, 41, 49
12, 34725, Note_off_c, 12, 41, 0
12, 34728, Note_on_c, 12, 40, 49
12, 34749, Note_off_c, 12, 40, 0
12, 34752, Note_on_c, 12, 38, 49
12, 34821, Note_off_c, 12, 38, 0
12, 34824, Note_on_c, 12, 34, 49
12, 34845, Note_off_c, 12, 34, 0
12, 34848, Note_on_c, 12, 36, 49
12, 34890, Note_off_c, 12, 36, 0
12, 34896, Note_on_c, 12, 24, 49
12, 34938, Note_off_c, 12, 24, 0
12, 34944, Note_on_c, 12, 29, 49
12, 34986, Note_off_c, 12, 29, 0
12, 34992, Note_on_c, 12, 33, 49
12, 35034, Note_off_c, 12, 33, 0
12, 35040, Note_on_c, 12, 29, 49
12, 35082, Note_off_c, 12, 29, 0
12, 35088, Note_on_c, 12, 26, 49
12, 35130, Note_off_c, 12, 26, 0
12, 35136, Note_on_c, 12, 31, 49
12, 35178, Note_off_c, 12, 31, 0
12, 35184, Note_on_c, 12, 24, 49
12, 35226, Note_off_c, 12, 24, 0
12, 35232, Note_on_c, 12, 29, 49
12, 35274, Note_off_c, 12, 29, 0
12, 35280, Note_on_c, 12, 33, 49
12, 35322, Note_off_c, 12, 33, 0
12, 35328, Note_on_c, 12, 38, 49
12, 35376, Tempo, 750000
12, 35397, Note_off_c, 12, 38, 0
12, 35400, Note_on_c, 12, 34, 49
12, 35421, Note_off_c, 12, 34, 0
12, 35424, Note_on_c, 12, 36, 49
12, 35466, Note_off_c, 12, 36, 0
12, 35472, Note_on_c, 12, 24, 49
12, 35514, Note_off_c, 12, 24, 0
12, 35520, Note_on_c, 12, 29, 49
12, 35796, Note_off_c, 12, 29, 0
12, 35796, End_track
13, 0, Start_track
13, 0, Title_t, "Continuo"
13, 0, Control_c, 13, 0, 0
13, 0, Program_c, 13, 6
13, 0, Time_signature, 6, 2, 96, 8
13, 0, Tempo, 600000
13, 96, Tempo, 600000
13, 96, Note_on_c, 13, 69, 49
13, 96, Note_on_c, 13, 72, 49
13, 96, Note_on_c, 13, 53, 49
13, 138, Note_off_c, 13, 69, 0
13, 138, Note_off_c, 13, 72, 0
13, 138, Note_off_c, 13, 53, 0
13, 144, Note_on_c, 13, 72, 49
13, 144, Note_on_c, 13, 77, 49
13, 144, Note_on_c, 13, 57, 49
13, 186, Note_off_c, 13, 72, 0
13, 186, Note_off_c, 13, 77, 0
13, 186, Note_off_c, 13, 57, 0
13, 192, Note_on_c, 13, 77, 49
13, 192, Note_on_c, 13, 81, 49
13, 192, Note_on_c, 13, 60, 49
13, 234, Note_off_c, 13, 77, 0
13, 234, Note_off_c, 13, 81, 0
13, 234, Note_off_c, 13, 60, 0
13, 240, Note_on_c, 13, 72, 49
13, 240, Note_on_c, 13, 77, 49
13, 240, Note_on_c, 13, 57, 49
13, 282, Note_off_c, 13, 72, 0
13, 282, Note_off_c, 13, 77, 0
13, 282, Note_off_c, 13, 57, 0
13, 288, Note_on_c, 13, 69, 49
13, 288, Note_on_c, 13, 72, 49
13, 288, Note_on_c, 13, 53, 49
13, 330, Note_off_c, 13, 69, 0
13, 330, Note_off_c, 13, 72, 0
13, 330, Note_off_c, 13, 53, 0
13, 384, Note_on_c, 13, 67, 49
13, 384, Note_on_c, 13, 72, 49
13, 384, Note_on_c, 13, 52, 49
13, 426, Note_off_c, 13, 67, 0
13, 426, Note_off_c, 13, 72, 0
13, 426, Note_off_c, 13, 52, 0
13, 432, Note_on_c, 13, 72, 49
13, 432, Note_on_c, 13, 76, 49
13, 432, Note_on_c, 13, 55, 49
13, 474, Note_off_c, 13, 72, 0
13, 474, Note_off_c, 13, 76, 0
13, 474, Note_off_c, 13, 55, 0
13, 480, Note_on_c, 13, 76, 49
13, 480, Note_on_c, 13, 79, 49
13, 480, Note_on_c, 13, 60, 49
13, 522, Note_off_c, 13, 76, 0
13, 522, Note_off_c, 13, 79, 0
13, 522, Note_off_c, 13, 60, 0
13, 528, Note_on_c, 13, 67, 49
13, 528, Note_on_c, 13, 72, 49
13, 528, Note_on_c, 13, 52, 49
13, 570, Note_off_c, 13, 67, 0
13, 570, Note_off_c, 13, 72, 0
13, 570, Note_off_c, 13, 52, 0
13, 576, Note_on_c, 13, 64, 49
13, 576, Note_on_c, 13, 67, 49
13, 576, Note_on_c, 13, 48, 49
13, 618, Note_off_c, 13, 64, 0
13, 618, Note_off_c, 13, 67, 0
13, 618, Note_off_c, 13, 48, 0
13, 672, Note_on_c, 13, 69, 49
13, 672, Note_on_c, 13, 77, 49
13, 672, Note_on_c, 13, 50, 49
13, 714, Note_off_c, 13, 69, 0
13, 714, Note_off_c, 13, 77, 0
13, 714, Note_off_c, 13, 50, 0
13, 720, Note_on_c, 13, 74, 49
13, 720, Note_on_c, 13, 77, 49
13, 720, Note_on_c, 13, 53, 49
13, 762, Note_off_c, 13, 74, 0
13, 762, Note_off_c, 13, 77, 0
13, 762, Note_off_c, 13, 53, 0
13, 768, Note_on_c, 13, 69, 49
13, 768, Note_on_c, 13, 77, 49
13, 768, Note_on_c, 13, 50, 49
13, 810, Note_off_c, 13, 69, 0
13, 810, Note_off_c, 13, 77, 0
13, 810, Note_off_c, 13, 50, 0
13, 816, Note_on_c, 13, 65, 49
13, 816, Note_on_c, 13, 72, 49
13, 816, Note_on_c, 13, 45, 49
13, 858, Note_off_c, 13, 65, 0
13, 858, Note_off_c, 13, 72, 0
13, 858, Note_off_c, 13, 45, 0
13, 864, Note_on_c, 13, 60, 49
13, 864, Note_on_c, 13, 69, 49
13, 864, Note_on_c, 13, 41, 49
13, 906, Note_off_c, 13, 60, 0
13, 906, Note_off_c, 13, 69, 0
13, 906, Note_off_c, 13, 41, 0
13, 960, Note_on_c, 13, 67, 49
13, 960, Note_on_c, 13, 76, 49
13, 960, Note_on_c, 13, 48, 49
13, 1002, Note_off_c, 13, 67, 0
13, 1002, Note_off_c, 13, 76, 0
13, 1002, Note_off_c, 13, 48, 0
13, 1008, Note_on_c, 13, 69, 49
13, 1008, Note_on_c, 13, 74, 49
13, 1008, Note_on_c, 13, 48, 49
13, 1050, Note_off_c, 13, 69, 0
13, 1050, Note_off_c, 13, 74, 0
13, 1050, Note_off_c, 13, 48, 0
13, 1056, Note_on_c, 13, 67, 49
13, 1056, Note_on_c, 13, 76, 49
13, 1056, Note_on_c, 13, 48, 49
13, 1098, Note_off_c, 13, 67, 0
13, 1098, Note_off_c, 13, 76, 0
13, 1098, Note_off_c, 13, 48, 0
13, 1104, Note_on_c, 13, 67, 49
13, 1104, Note_on_c, 13, 76, 49
13, 1104, Note_on_c, 13, 48, 49
13, 1146, Note_off_c, 13, 67, 0
13, 1146, Note_off_c, 13, 76, 0
13, 1146, Note_off_c, 13, 48, 0
13, 1152, Note_on_c, 13, 67, 49
13, 1152, Note_on_c, 13, 72, 49
13, 1152, Note_on_c, 13, 52, 49
13, 1173, Note_off_c, 13, 52, 0
13, 1176, Note_on_c, 13, 50, 49
13, 1194, Note_off_c, 13, 67, 0
13, 1194, Note_off_c, 13, 72, 0
13, 1197, Note_off_c, 13, 50, 0
13, 1200, Note_on_c, 13, 67, 49
13, 1200, Note_on_c, 13, 72, 49
13, 1200, Note_on_c, 13, 52, 49
13, 1221, Note_off_c, 13, 52, 0
13, 1224, Note_on_c, 13, 48, 49
13, 1242, Note_off_c, 13, 67, 0
13, 1242, Note_off_c, 13, 72, 0
13, 1245, Note_off_c, 13, 48, 0
13, 1248, Note_on_c, 13, 69, 49
13, 1248, Note_on_c, 13, 74, 49
13, 1248, Note_on_c, 13, 53, 49
13, 1290, Note_off_c, 13, 69, 0
13, 1290, Note_off_c, 13, 74, 0
13, 1290, Note_off_c, 13, 53, 0
13, 1296, Note_on_c, 13, 65, 49
13, 1296, Note_on_c, 13, 74, 49
13, 1296, Note_on_c, 13, 57, 49
13, 1338, Note_off_c, 13, 65, 0
13, 1338, Note_off_c, 13, 74, 0
13, 1338, Note_off_c, 13, 57, 0
13, 1344, Note_on_c, 13, 62, 49
13, 1344, Note_on_c, 13, 69, 49
13, 1344, Note_on_c, 13, 62, 49
13, 1386, Note_off_c, 13, 62, 0
13, 1386, Note_off_c, 13, 69, 0
13, 1386, Note_off_c, 13, 62, 0
13, 1392, Note_on_c, 13, 67, 49
13, 1392, Note_on_c, 13, 72, 49
13, 1392, Note_on_c, 13, 52, 49
13, 1434, Note_off_c, 13, 67, 0
13, 1434, Note_off_c, 13, 72, 0
13, 1434, Note_off_c, 13, 52, 0
13, 1440, Note_on_c, 13, 64, 49
13, 1440, Note_on_c, 13, 72, 49
13, 1440, Note_on_c, 13, 55, 49
13, 1482, Note_off_c, 13, 64, 0
13, 1482, Note_off_c, 13, 72, 0
13, 1482, Note_off_c, 13, 55, 0
13, 1488, Note_on_c, 13, 64, 49
13, 1488, Note_on_c, 13, 67, 49
13, 1488, Note_on_c, 13, 60, 49
13, 1530, Note_off_c, 13, 64, 0
13, 1530, Note_off_c, 13, 67, 0
13, 1530, Note_off_c, 13, 60, 0
13, 1536, Note_on_c, 13, 65, 49
13, 1536, Note_on_c, 13, 70, 49
13, 1536, Note_on_c, 13, 50, 49
13, 1578, Note_off_c, 13, 65, 0
13, 1578, Note_off_c, 13, 70, 0
13, 1578, Note_off_c, 13, 50, 0
13, 1584, Note_on_c, 13, 62, 49
13, 1584, Note_on_c, 13, 70, 49
13, 1584, Note_on_c, 13, 53, 49
13, 1626, Note_off_c, 13, 62, 0
13, 1626, Note_off_c, 13, 70, 0
13, 1626, Note_off_c, 13, 53, 0
13, 1632, Note_on_c, 13, 65, 49
13, 1632, Note_on_c, 13, 74, 49
13, 1632, Note_on_c, 13, 58, 49
13, 1674, Note_off_c, 13, 65, 0
13, 1674, Note_off_c, 13, 74, 0
13, 1674, Note_off_c, 13, 58, 0
13, 1680, Note_on_c, 13, 69, 49
13, 1680, Note_on_c, 13, 76, 49
13, 1680, Note_on_c, 13, 48, 49
13, 1722, Note_off_c, 13, 69, 0
13, 1722, Note_off_c, 13, 76, 0
13, 1722, Note_off_c, 13, 48, 0
13, 1728, Note_on_c, 13, 69, 49
13, 1728, Note_on_c, 13, 72, 49
13, 1728, Note_on_c, 13, 52, 49
13, 1770, Note_off_c, 13, 69, 0
13, 1770, Note_off_c, 13, 72, 0
13, 1770, Note_off_c, 13, 52, 0
13, 1776, Note_on_c, 13, 64, 49
13, 1776, Note_on_c, 13, 72, 49
13, 1776, Note_on_c, 13, 57, 49
13, 1818, Note_off_c, 13, 64, 0
13, 1818, Note_off_c, 13, 72, 0
13, 1818, Note_off_c, 13, 57, 0
13, 1824, Note_on_c, 13, 67, 49
13, 1824, Note_on_c, 13, 74, 49
13, 1824, Note_on_c, 13, 46, 49
13, 1866, Note_off_c, 13, 67, 0
13, 1866, Note_off_c, 13, 74, 0
13, 1866, Note_off_c, 13, 46, 0
13, 1872, Note_on_c, 13, 67, 49
13, 1872, Note_on_c, 13, 70, 49
13, 1872, Note_on_c, 13, 50, 49
13, 1914, Note_off_c, 13, 67, 0
13, 1914, Note_off_c, 13, 70, 0
13, 1914, Note_off_c, 13, 50, 0
13, 1920, Note_on_c, 13, 62, 49
13, 1920, Note_on_c, 13, 70, 49
13, 1920, Note_on_c, 13, 55, 49
13, 1962, Note_off_c, 13, 62, 0
13, 1962, Note_off_c, 13, 70, 0
13, 1962, Note_off_c, 13, 55, 0
13, 1968, Note_on_c, 13, 65, 49
13, 1968, Note_on_c, 13, 72, 49
13, 1968, Note_on_c, 13, 45, 49
13, 2010, Note_off_c, 13, 65, 0
13, 2010, Note_off_c, 13, 72, 0
13, 2010, Note_off_c, 13, 45, 0
13, 2016, Note_on_c, 13, 65, 49
13, 2016, Note_on_c, 13, 69, 49
13, 2016, Note_on_c, 13, 48, 49
13, 2058, Note_off_c, 13, 65, 0
13, 2058, Note_off_c, 13, 69, 0
13, 2058, Note_off_c, 13, 48, 0
13, 2064, Note_on_c, 13, 69, 49
13, 2064, Note_on_c, 13, 72, 49
13, 2064, Note_on_c, 13, 53, 49
13, 2106, Note_off_c, 13, 69, 0
13, 2106, Note_off_c, 13, 72, 0
13, 2106, Note_off_c, 13, 53, 0
13, 2112, Note_on_c, 13, 62, 49
13, 2112, Note_on_c, 13, 70, 49
13, 2112, Note_on_c, 13, 43, 49
13, 2154, Note_off_c, 13, 62, 0
13, 2154, Note_off_c, 13, 70, 0
13, 2154, Note_off_c, 13, 43, 0
13, 2160, Note_on_c, 13, 67, 49
13, 2160, Note_on_c, 13, 70, 49
13, 2160, Note_on_c, 13, 50, 49
13, 2202, Note_off_c, 13, 67, 0
13, 2202, Note_off_c, 13, 70, 0
13, 2202, Note_off_c, 13, 50, 0
13, 2208, Note_on_c, 13, 62, 49
13, 2208, Note_on_c, 13, 70, 49
13, 2208, Note_on_c, 13, 55, 49
13, 2250, Note_off_c, 13, 62, 0
13, 2250, Note_off_c, 13, 70, 0
13, 2250, Note_off_c, 13, 55, 0
13, 2256, Note_on_c, 13, 62, 49
13, 2256, Note_on_c, 13, 70, 49
13, 2256, Note_on_c, 13, 41, 49
13, 2298, Note_off_c, 13, 62, 0
13, 2298, Note_off_c, 13, 70, 0
13, 2298, Note_off_c, 13, 41, 0
13, 2304, Note_on_c, 13, 62, 49
13, 2304, Note_on_c, 13, 67, 49
13, 2304, Note_on_c, 13, 50, 49
13, 2346, Note_off_c, 13, 62, 0
13, 2346, Note_off_c, 13, 67, 0
13, 2346, Note_off_c, 13, 50, 0
13, 2352, Note_on_c, 13, 62, 49
13, 2352, Note_on_c, 13, 70, 49
13, 2352, Note_on_c, 13, 55, 49
13, 2394, Note_off_c, 13, 62, 0
13, 2394, Note_off_c, 13, 70, 0
13, 2394, Note_off_c, 13, 55, 0
13, 2400, Note_on_c, 13, 67, 49
13, 2400, Note_on_c, 13, 72, 49
13, 2400, Note_on_c, 13, 40, 49
13, 2442, Note_off_c, 13, 67, 0
13, 2442, Note_off_c, 13, 72, 0
13, 2442, Note_off_c, 13, 40, 0
13, 2448, Note_on_c, 13, 67, 49
13, 2448, Note_on_c, 13, 76, 49
13, 2448, Note_on_c, 13, 48, 49
13, 2490, Note_off_c, 13, 67, 0
13, 2490, Note_off_c, 13, 76, 0
13, 2490, Note_off_c, 13, 48, 0
13, 2496, Note_on_c, 13, 64, 49
13, 2496, Note_on_c, 13, 72, 49
13, 2496, Note_on_c, 13, 55, 49
13, 2538, Note_off_c, 13, 64, 0
13, 2538, Note_off_c, 13, 72, 0
13, 2538, Note_off_c, 13, 55, 0
13, 2544, Note_on_c, 13, 67, 49
13, 2544, Note_on_c, 13, 72, 49
13, 2544, Note_on_c, 13, 52, 49
13, 2586, Note_off_c, 13, 67, 0
13, 2586, Note_off_c, 13, 72, 0
13, 2586, Note_off_c, 13, 52, 0
13, 2592, Note_on_c, 13, 67, 49
13, 2592, Note_on_c, 13, 76, 49
13, 2592, Note_on_c, 13, 48, 49
13, 2634, Note_off_c, 13, 67, 0
13, 2634, Note_off_c, 13, 76, 0
13, 2634, Note_off_c, 13, 48, 0
13, 2640, Note_on_c, 13, 72, 49
13, 2640, Note_on_c, 13, 79, 49
13, 2640, Note_on_c, 13, 60, 49
13, 2682, Note_off_c, 13, 72, 0
13, 2682, Note_off_c, 13, 79, 0
13, 2682, Note_off_c, 13, 60, 0
13, 2688, Note_on_c, 13, 60, 49
13, 2688, Note_on_c, 13, 69, 49
13, 2688, Note_on_c, 13, 41, 49
13, 2730, Note_off_c, 13, 60, 0
13, 2730, Note_off_c, 13, 69, 0
13, 2730, Note_off_c, 13, 41, 0
13, 2736, Note_on_c, 13, 65, 49
13, 2736, Note_on_c, 13, 69, 49
13, 2736, Note_on_c, 13, 48, 49
13, 2778, Note_off_c, 13, 65, 0
13, 2778, Note_off_c, 13, 69, 0
13, 2778, Note_off_c, 13, 48, 0
13, 2784, Note_on_c, 13, 69, 49
13, 2784, Note_on_c, 13, 72, 49
13, 2784, Note_on_c, 13, 53, 49
13, 2826, Note_off_c, 13, 69, 0
13, 2826, Note_off_c, 13, 72, 0
13, 2826, Note_off_c, 13, 53, 0
13, 2832, Note_on_c, 13, 60, 49
13, 2832, Note_on_c, 13, 69, 49
13, 2832, Note_on_c, 13, 40, 49
13, 2874, Note_off_c, 13, 60, 0
13, 2874, Note_off_c, 13, 69, 0
13, 2874, Note_off_c, 13, 40, 0
13, 2880, Note_on_c, 13, 65, 49
13, 2880, Note_on_c, 13, 69, 49
13, 2880, Note_on_c, 13, 48, 49
13, 2922, Note_off_c, 13, 65, 0
13, 2922, Note_off_c, 13, 69, 0
13, 2922, Note_off_c, 13, 48, 0
13, 2928, Note_on_c, 13, 69, 49
13, 2928, Note_on_c, 13, 72, 49
13, 2928, Note_on_c, 13, 53, 49
13, 2970, Note_off_c, 13, 69, 0
13, 2970, Note_off_c, 13, 72, 0
13, 2970, Note_off_c, 13, 53, 0
13, 2976, Note_on_c, 13, 65, 49
13, 2976, Note_on_c, 13, 69, 49
13, 2976, Note_on_c, 13, 38, 49
13, 3018, Note_off_c, 13, 65, 0
13, 3018, Note_off_c, 13, 69, 0
13, 3018, Note_off_c, 13, 38, 0
13, 3024, Note_on_c, 13, 69, 49
13, 3024, Note_on_c, 13, 77, 49
13, 3024, Note_on_c, 13, 50, 49
13, 3066, Note_off_c, 13, 69, 0
13, 3066, Note_off_c, 13, 77, 0
13, 3066, Note_off_c, 13, 50, 0
13, 3072, Note_on_c, 13, 65, 49
13, 3072, Note_on_c, 13, 74, 49
13, 3072, Note_on_c, 13, 45, 49
13, 3114, Note_off_c, 13, 65, 0
13, 3114, Note_off_c, 13, 74, 0
13, 3114, Note_off_c, 13, 45, 0
13, 3120, Note_on_c, 13, 67, 49
13, 3120, Note_on_c, 13, 74, 49
13, 3120, Note_on_c, 13, 46, 49
13, 3162, Note_off_c, 13, 67, 0
13, 3162, Note_off_c, 13, 74, 0
13, 3162, Note_off_c, 13, 46, 0
13, 3168, Note_on_c, 13, 70, 49
13, 3168, Note_on_c, 13, 79, 49
13, 3168, Note_on_c, 13, 50, 49
13, 3210, Note_off_c, 13, 70, 0
13, 3210, Note_off_c, 13, 79, 0
13, 3210, Note_off_c, 13, 50, 0
13, 3216, Note_on_c, 13, 62, 49
13, 3216, Note_on_c, 13, 70, 49
13, 3216, Note_on_c, 13, 43, 49
13, 3258, Note_off_c, 13, 62, 0
13, 3258, Note_off_c, 13, 70, 0
13, 3258, Note_off_c, 13, 43, 0
13, 3264, Note_on_c, 13, 67, 49
13, 3264, Note_on_c, 13, 76, 49
13, 3264, Note_on_c, 13, 48, 49
13, 3306, Note_off_c, 13, 67, 0
13, 3306, Note_off_c, 13, 76, 0
13, 3306, Note_off_c, 13, 48, 0
13, 3312, Note_on_c, 13, 67, 49
13, 3312, Note_on_c, 13, 72, 49
13, 3312, Note_on_c, 13, 52, 49
13, 3354, Note_off_c, 13, 67, 0
13, 3354, Note_off_c, 13, 72, 0
13, 3354, Note_off_c, 13, 52, 0
13, 3360, Note_on_c, 13, 64, 49
13, 3360, Note_on_c, 13, 72, 49
13, 3360, Note_on_c, 13, 55, 49
13, 3402, Note_off_c, 13, 64, 0
13, 3402, Note_off_c, 13, 72, 0
13, 3402, Note_off_c, 13, 55, 0
13, 3408, Note_on_c, 13, 67, 49
13, 3408, Note_on_c, 13, 76, 49
13, 3408, Note_on_c, 13, 48, 49
13, 3450, Note_off_c, 13, 67, 0
13, 3450, Note_off_c, 13, 76, 0
13, 3450, Note_off_c, 13, 48, 0
13, 3456, Note_on_c, 13, 67, 49
13, 3456, Note_on_c, 13, 72, 49
13, 3456, Note_on_c, 13, 52, 49
13, 3498, Note_off_c, 13, 67, 0
13, 3498, Note_off_c, 13, 72, 0
13, 3498, Note_off_c, 13, 52, 0
13, 3504, Note_on_c, 13, 64, 49
13, 3504, Note_on_c, 13, 72, 49
13, 3504, Note_on_c, 13, 55, 49
13, 3546, Note_off_c, 13, 64, 0
13, 3546, Note_off_c, 13, 72, 0
13, 3546, Note_off_c, 13, 55, 0
13, 3552, Note_on_c, 13, 67, 49
13, 3552, Note_on_c, 13, 76, 49
13, 3552, Note_on_c, 13, 48, 49
13, 3594, Note_off_c, 13, 67, 0
13, 3594, Note_off_c, 13, 76, 0
13, 3594, Note_off_c, 13, 48, 0
13, 3600, Note_on_c, 13, 67, 49
13, 3600, Note_on_c, 13, 72, 49
13, 3600, Note_on_c, 13, 52, 49
13, 3642, Note_off_c, 13, 67, 0
13, 3642, Note_off_c, 13, 72, 0
13, 3642, Note_off_c, 13, 52, 0
13, 3648, Note_on_c, 13, 64, 49
13, 3648, Note_on_c, 13, 72, 49
13, 3648, Note_on_c, 13, 55, 49
13, 3690, Note_off_c, 13, 64, 0
13, 3690, Note_off_c, 13, 72, 0
13, 3690, Note_off_c, 13, 55, 0
13, 3696, Note_on_c, 13, 67, 49
13, 3696, Note_on_c, 13, 76, 49
13, 3696, Note_on_c, 13, 48, 49
13, 3738, Note_off_c, 13, 67, 0
13, 3738, Note_off_c, 13, 76, 0
13, 3738, Note_off_c, 13, 48, 0
13, 3744, Note_on_c, 13, 67, 49
13, 3744, Note_on_c, 13, 72, 49
13, 3744, Note_on_c, 13, 52, 49
13, 3786, Note_off_c, 13, 67, 0
13, 3786, Note_off_c, 13, 72, 0
13, 3786, Note_off_c, 13, 52, 0
13, 3792, Note_on_c, 13, 67, 49
13, 3792, Note_on_c, 13, 76, 49
13, 3792, Note_on_c, 13, 48, 49
13, 3834, Note_off_c, 13, 67, 0
13, 3834, Note_off_c, 13, 76, 0
13, 3834, Note_off_c, 13, 48, 0
13, 3840, Note_on_c, 13, 60, 49
13, 3840, Note_on_c, 13, 69, 49
13, 3840, Note_on_c, 13, 53, 49
13, 3861, Note_off_c, 13, 53, 0
13, 3864, Note_on_c, 13, 52, 49
13, 3882, Note_off_c, 13, 60, 0
13, 3882, Note_off_c, 13, 69, 0
13, 3885, Note_off_c, 13, 52, 0
13, 3888, Note_on_c, 13, 60, 49
13, 3888, Note_on_c, 13, 69, 49
13, 3888, Note_on_c, 13, 53, 49
13, 3909, Note_off_c, 13, 53, 0
13, 3912, Note_on_c, 13, 52, 49
13, 3930, Note_off_c, 13, 60, 0
13, 3930, Note_off_c, 13, 69, 0
13, 3933, Note_off_c, 13, 52, 0
13, 3936, Note_on_c, 13, 65, 49
13, 3936, Note_on_c, 13, 69, 49
13, 3936, Note_on_c, 13, 50, 49
13, 3978, Note_off_c, 13, 65, 0
13, 3978, Note_off_c, 13, 69, 0
13, 3984, Note_on_c, 13, 57, 49
13, 3984, Note_on_c, 13, 65, 49
13, 4005, Note_off_c, 13, 50, 0
13, 4008, Note_on_c, 13, 46, 49
13, 4026, Note_off_c, 13, 57, 0
13, 4026, Note_off_c, 13, 65, 0
13, 4029, Note_off_c, 13, 46, 0
13, 4032, Note_on_c, 13, 64, 49
13, 4032, Note_on_c, 13, 67, 49
13, 4032, Note_on_c, 13, 48, 49
13, 4074, Note_off_c, 13, 64, 0
13, 4074, Note_off_c, 13, 67, 0
13, 4074, Note_off_c, 13, 48, 0
13, 4080, Note_on_c, 13, 67, 49
13, 4080, Note_on_c, 13, 76, 49
13, 4080, Note_on_c, 13, 36, 49
13, 4122, Note_off_c, 13, 67, 0
13, 4122, Note_off_c, 13, 76, 0
13, 4122, Note_off_c, 13, 36, 0
13, 4128, Note_on_c, 13, 60, 49
13, 4128, Note_on_c, 13, 69, 49
13, 4128, Note_on_c, 13, 41, 49
13, 4170, Note_off_c, 13, 60, 0
13, 4170, Note_off_c, 13, 69, 0
13, 4170, Note_off_c, 13, 41, 0
13, 4176, Note_on_c, 13, 65, 49
13, 4176, Note_on_c, 13, 72, 49
13, 4176, Note_on_c, 13, 45, 49
13, 4218, Note_off_c, 13, 65, 0
13, 4218, Note_off_c, 13, 72, 0
13, 4218, Note_off_c, 13, 45, 0
13, 4224, Note_on_c, 13, 60, 49
13, 4224, Note_on_c, 13, 69, 49
13, 4224, Note_on_c, 13, 41, 49
13, 4266, Note_off_c, 13, 60, 0
13, 4266, Note_off_c, 13, 69, 0
13, 4266, Note_off_c, 13, 41, 0
13, 4272, Note_on_c, 13, 65, 49
13, 4272, Note_on_c, 13, 69, 49
13, 4272, Note_on_c, 13, 38, 49
13, 4314, Note_off_c, 13, 65, 0
13, 4314, Note_off_c, 13, 69, 0
13, 4314, Note_off_c, 13, 38, 0
13, 4320, Note_on_c, 13, 62, 49
13, 4320, Note_on_c, 13, 70, 49
13, 4320, Note_on_c, 13, 43, 49
13, 4362, Note_off_c, 13, 62, 0
13, 4362, Note_off_c, 13, 70, 0
13, 4362, Note_off_c, 13, 43, 0
13, 4368, Note_on_c, 13, 64, 49
13, 4368, Note_on_c, 13, 67, 49
13, 4368, Note_on_c, 13, 36, 49
13, 4410, Note_off_c, 13, 64, 0
13, 4410, Note_off_c, 13, 67, 0
13, 4410, Note_off_c, 13, 36, 0
13, 4416, Note_on_c, 13, 60, 49
13, 4416, Note_on_c, 13, 69, 49
13, 4416, Note_on_c, 13, 41, 49
13, 4458, Note_off_c, 13, 60, 0
13, 4458, Note_off_c, 13, 69, 0
13, 4458, Note_off_c, 13, 41, 0
13, 4464, Note_on_c, 13, 64, 49
13, 4464, Note_on_c, 13, 72, 49
13, 4464, Note_on_c, 13, 45, 49
13, 4506, Note_off_c, 13, 64, 0
13, 4506, Note_off_c, 13, 72, 0
13, 4506, Note_off_c, 13, 45, 0
13, 4512, Note_on_c, 13, 65, 49
13, 4512, Note_on_c, 13, 69, 49
13, 4512, Note_on_c, 13, 50, 49
13, 4554, Note_off_c, 13, 65, 0
13, 4554, Note_off_c, 13, 69, 0
13, 4560, Note_on_c, 13, 65, 49
13, 4560, Note_on_c, 13, 69, 49
13, 4581, Note_off_c, 13, 50, 0
13, 4584, Note_on_c, 13, 46, 49
13, 4602, Note_off_c, 13, 65, 0
13, 4602, Note_off_c, 13, 69, 0
13, 4605, Note_off_c, 13, 46, 0
13, 4608, Note_on_c, 13, 67, 49
13, 4608, Note_on_c, 13, 76, 49
13, 4608, Note_on_c, 13, 48, 49
13, 4650, Note_off_c, 13, 67, 0
13, 4650, Note_off_c, 13, 76, 0
13, 4650, Note_off_c, 13, 48, 0
13, 4656, Note_on_c, 13, 67, 49
13, 4656, Note_on_c, 13, 76, 49
13, 4656, Note_on_c, 13, 36, 49
13, 4698, Note_off_c, 13, 67, 0
13, 4698, Note_off_c, 13, 76, 0
13, 4698, Note_off_c, 13, 36, 0
13, 4704, Note_on_c, 13, 69, 36
13, 4704, Note_on_c, 13, 72, 36
13, 4704, Note_on_c, 13, 41, 36
13, 4725, Note_off_c, 13, 41, 0
13, 4728, Note_on_c, 13, 43, 36
13, 4746, Note_off_c, 13, 69, 0
13, 4746, Note_off_c, 13, 72, 0
13, 4749, Note_off_c, 13, 43, 0
13, 4752, Note_on_c, 13, 65, 36
13, 4752, Note_on_c, 13, 72, 36
13, 4752, Note_on_c, 13, 45, 36
13, 4773, Note_off_c, 13, 45, 0
13, 4776, Note_on_c, 13, 43, 36
13, 4794, Note_off_c, 13, 65, 0
13, 4794, Note_off_c, 13, 72, 0
13, 4797, Note_off_c, 13, 43, 0
13, 4800, Note_on_c, 13, 65, 36
13, 4800, Note_on_c, 13, 72, 36
13, 4800, Note_on_c, 13, 45, 36
13, 4821, Note_off_c, 13, 45, 0
13, 4824, Note_on_c, 13, 41, 36
13, 4842, Note_off_c, 13, 65, 0
13, 4842, Note_off_c, 13, 72, 0
13, 4845, Note_off_c, 13, 41, 0
13, 4848, Note_on_c, 13, 77, 36
13, 4848, Note_on_c, 13, 53, 36
13, 4890, Note_off_c, 13, 77, 0
13, 4890, Note_off_c, 13, 53, 0
13, 4896, Note_on_c, 13, 76, 36
13, 4896, Note_on_c, 13, 52, 36
13, 4938, Note_off_c, 13, 76, 0
13, 4938, Note_off_c, 13, 52, 0
13, 4944, Note_on_c, 13, 74, 36
13, 4944, Note_on_c, 13, 50, 36
13, 4986, Note_off_c, 13, 74, 0
13, 4986, Note_off_c, 13, 50, 0
13, 4992, Note_on_c, 13, 72, 36
13, 4992, Note_on_c, 13, 48, 36
13, 5013, Note_off_c, 13, 72, 0
13, 5013, Note_off_c, 13, 48, 0
13, 5016, Note_on_c, 13, 74, 36
13, 5016, Note_on_c, 13, 50, 36
13, 5037, Note_off_c, 13, 74, 0
13, 5037, Note_off_c, 13, 50, 0
13, 5040, Note_on_c, 13, 76, 36
13, 5040, Note_on_c, 13, 52, 36
13, 5061, Note_off_c, 13, 76, 0
13, 5061, Note_off_c, 13, 52, 0
13, 5064, Note_on_c, 13, 74, 36
13, 5064, Note_on_c, 13, 50, 36
13, 5085, Note_off_c, 13, 74, 0
13, 5085, Note_off_c, 13, 50, 0
13, 5088, Note_on_c, 13, 76, 36
13, 5088, Note_on_c, 13, 52, 36
13, 5109, Note_off_c, 13, 76, 0
13, 5109, Note_off_c, 13, 52, 0
13, 5112, Note_on_c, 13, 72, 36
13, 5112, Note_on_c, 13, 48, 36
13, 5133, Note_off_c, 13, 72, 0
13, 5133, Note_off_c, 13, 48, 0
13, 5136, Note_on_c, 13, 82, 36
13, 5136, Note_on_c, 13, 58, 36
13, 5178, Note_off_c, 13, 82, 0
13, 5178, Note_off_c, 13, 58, 0
13, 5184, Note_on_c, 13, 81, 36
13, 5184, Note_on_c, 13, 57, 36
13, 5226, Note_off_c, 13, 81, 0
13, 5226, Note_off_c, 13, 57, 0
13, 5232, Note_on_c, 13, 79, 36
13, 5232, Note_on_c, 13, 55, 36
13, 5274, Note_off_c, 13, 79, 0
13, 5274, Note_off_c, 13, 55, 0
13, 5280, Note_on_c, 13, 81, 36
13, 5280, Note_on_c, 13, 57, 36
13, 5322, Note_off_c, 13, 81, 0
13, 5322, Note_off_c, 13, 57, 0
13, 5328, Note_on_c, 13, 74, 36
13, 5328, Note_on_c, 13, 50, 36
13, 5370, Note_off_c, 13, 74, 0
13, 5370, Note_off_c, 13, 50, 0
13, 5376, Note_on_c, 13, 76, 36
13, 5376, Note_on_c, 13, 52, 36
13, 5418, Note_off_c, 13, 76, 0
13, 5418, Note_off_c, 13, 52, 0
13, 5424, Note_on_c, 13, 77, 36
13, 5424, Note_on_c, 13, 53, 36
13, 5466, Note_off_c, 13, 77, 0
13, 5466, Note_off_c, 13, 53, 0
13, 5472, Note_on_c, 13, 76, 36
13, 5472, Note_on_c, 13, 52, 36
13, 5493, Note_off_c, 13, 76, 0
13, 5493, Note_off_c, 13, 52, 0
13, 5496, Note_on_c, 13, 74, 36
13, 5496, Note_on_c, 13, 50, 36
13, 5517, Note_off_c, 13, 74, 0
13, 5517, Note_off_c, 13, 50, 0
13, 5520, Note_on_c, 13, 72, 36
13, 5520, Note_on_c, 13, 48, 36
13, 5541, Note_off_c, 13, 72, 0
13, 5541, Note_off_c, 13, 48, 0
13, 5544, Note_on_c, 13, 70, 36
13, 5544, Note_on_c, 13, 46, 36
13, 5565, Note_off_c, 13, 70, 0
13, 5565, Note_off_c, 13, 46, 0
13, 5568, Note_on_c, 13, 69, 36
13, 5568, Note_on_c, 13, 45, 36
13, 5589, Note_off_c, 13, 69, 0
13, 5589, Note_off_c, 13, 45, 0
13, 5592, Note_on_c, 13, 70, 36
13, 5592, Note_on_c, 13, 46, 36
13, 5613, Note_off_c, 13, 70, 0
13, 5613, Note_off_c, 13, 46, 0
13, 5616, Note_on_c, 13, 72, 36
13, 5616, Note_on_c, 13, 48, 36
13, 5626, Note_off_c, 13, 72, 0
13, 5626, Note_off_c, 13, 48, 0
13, 5628, Note_on_c, 13, 70, 36
13, 5628, Note_on_c, 13, 46, 36
13, 5638, Note_off_c, 13, 70, 0
13, 5638, Note_off_c, 13, 46, 0
13, 5640, Note_on_c, 13, 72, 36
13, 5640, Note_on_c, 13, 48, 36
13, 5650, Note_off_c, 13, 72, 0
13, 5650, Note_off_c, 13, 48, 0
13, 5652, Note_on_c, 13, 70, 36
13, 5652, Note_on_c, 13, 46, 36
13, 5662, Note_off_c, 13, 70, 0
13, 5662, Note_off_c, 13, 46, 0
13, 5664, Note_on_c, 13, 72, 36
13, 5664, Note_on_c, 13, 48, 36
13, 5674, Note_off_c, 13, 72, 0
13, 5674, Note_off_c, 13, 48, 0
13, 5676, Note_on_c, 13, 70, 36
13, 5676, Note_on_c, 13, 46, 36
13, 5686, Note_off_c, 13, 70, 0
13, 5686, Note_off_c, 13, 46, 0
13, 5688, Note_on_c, 13, 69, 36
13, 5688, Note_on_c, 13, 45, 36
13, 5698, Note_off_c, 13, 69, 0
13, 5698, Note_off_c, 13, 45, 0
13, 5700, Note_on_c, 13, 70, 36
13, 5700, Note_on_c, 13, 46, 36
13, 5710, Note_off_c, 13, 70, 0
13, 5710, Note_off_c, 13, 46, 0
13, 5712, Note_on_c, 13, 72, 36
13, 5712, Note_on_c, 13, 48, 36
13, 5733, Note_off_c, 13, 72, 0
13, 5733, Note_off_c, 13, 48, 0
13, 5736, Note_on_c, 13, 74, 36
13, 5736, Note_on_c, 13, 50, 36
13, 5757, Note_off_c, 13, 74, 0
13, 5757, Note_off_c, 13, 50, 0
13, 5760, Note_on_c, 13, 76, 36
13, 5760, Note_on_c, 13, 52, 36
13, 5781, Note_off_c, 13, 76, 0
13, 5781, Note_off_c, 13, 52, 0
13, 5784, Note_on_c, 13, 74, 36
13, 5784, Note_on_c, 13, 50, 36
13, 5805, Note_off_c, 13, 74, 0
13, 5805, Note_off_c, 13, 50, 0
13, 5808, Note_on_c, 13, 76, 36
13, 5808, Note_on_c, 13, 52, 36
13, 5829, Note_off_c, 13, 76, 0
13, 5829, Note_off_c, 13, 52, 0
13, 5832, Note_on_c, 13, 72, 36
13, 5832, Note_on_c, 13, 48, 36
13, 5853, Note_off_c, 13, 72, 0
13, 5853, Note_off_c, 13, 48, 0
13, 5856, Note_on_c, 13, 69, 36
13, 5856, Note_on_c, 13, 72, 36
13, 5856, Note_on_c, 13, 53, 36
13, 5898, Note_off_c, 13, 69, 0
13, 5898, Note_off_c, 13, 72, 0
13, 5898, Note_off_c, 13, 53, 0
13, 5904, Note_on_c, 13, 72, 36
13, 5904, Note_on_c, 13, 77, 36
13, 5904, Note_on_c, 13, 57, 36
13, 5946, Note_off_c, 13, 72, 0
13, 5946, Note_off_c, 13, 77, 0
13, 5946, Note_off_c, 13, 57, 0
13, 5952, Note_on_c, 13, 77, 36
13, 5952, Note_on_c, 13, 81, 36
13, 5952, Note_on_c, 13, 60, 36
13, 5994, Note_off_c, 13, 77, 0
13, 5994, Note_off_c, 13, 81, 0
13, 5994, Note_off_c, 13, 60, 0
13, 6000, Note_on_c, 13, 72, 36
13, 6000, Note_on_c, 13, 77, 36
13, 6000, Note_on_c, 13, 57, 36
13, 6042, Note_off_c, 13, 72, 0
13, 6042, Note_off_c, 13, 77, 0
13, 6042, Note_off_c, 13, 57, 0
13, 6048, Note_on_c, 13, 69, 36
13, 6048, Note_on_c, 13, 72, 36
13, 6048, Note_on_c, 13, 53, 36
13, 6090, Note_off_c, 13, 69, 0
13, 6090, Note_off_c, 13, 72, 0
13, 6090, Note_off_c, 13, 53, 0
13, 6144, Note_on_c, 13, 67, 36
13, 6144, Note_on_c, 13, 72, 36
13, 6144, Note_on_c, 13, 52, 36
13, 6186, Note_off_c, 13, 67, 0
13, 6186, Note_off_c, 13, 72, 0
13, 6186, Note_off_c, 13, 52, 0
13, 6192, Note_on_c, 13, 72, 36
13, 6192, Note_on_c, 13, 76, 36
13, 6192, Note_on_c, 13, 55, 36
13, 6234, Note_off_c, 13, 72, 0
13, 6234, Note_off_c, 13, 76, 0
13, 6234, Note_off_c, 13, 55, 0
13, 6240, Note_on_c, 13, 76, 36
13, 6240, Note_on_c, 13, 79, 36
13, 6240, Note_on_c, 13, 60, 36
13, 6282, Note_off_c, 13, 76, 0
13, 6282, Note_off_c, 13, 79, 0
13, 6282, Note_off_c, 13, 60, 0
13, 6288, Note_on_c, 13, 67, 36
13, 6288, Note_on_c, 13, 72, 36
13, 6288, Note_on_c, 13, 52, 36
13, 6330, Note_off_c, 13, 67, 0
13, 6330, Note_off_c, 13, 72, 0
13, 6330, Note_off_c, 13, 52, 0
13, 6336, Note_on_c, 13, 64, 36
13, 6336, Note_on_c, 13, 67, 36
13, 6336, Note_on_c, 13, 48, 36
13, 6378, Note_off_c, 13, 64, 0
13, 6378, Note_off_c, 13, 67, 0
13, 6378, Note_off_c, 13, 48, 0
13, 6432, Note_on_c, 13, 69, 36
13, 6432, Note_on_c, 13, 77, 36
13, 6432, Note_on_c, 13, 50, 36
13, 6474, Note_off_c, 13, 69, 0
13, 6474, Note_off_c, 13, 77, 0
13, 6474, Note_off_c, 13, 50, 0
13, 6480, Note_on_c, 13, 74, 36
13, 6480, Note_on_c, 13, 77, 36
13, 6480, Note_on_c, 13, 53, 36
13, 6522, Note_off_c, 13, 74, 0
13, 6522, Note_off_c, 13, 77, 0
13, 6522, Note_off_c, 13, 53, 0
13, 6528, Note_on_c, 13, 69, 36
13, 6528, Note_on_c, 13, 77, 36
13, 6528, Note_on_c, 13, 50, 36
13, 6570, Note_off_c, 13, 69, 0
13, 6570, Note_off_c, 13, 77, 0
13, 6570, Note_off_c, 13, 50, 0
13, 6576, Note_on_c, 13, 65, 36
13, 6576, Note_on_c, 13, 72, 36
13, 6576, Note_on_c, 13, 45, 36
13, 6618, Note_off_c, 13, 65, 0
13, 6618, Note_off_c, 13, 72, 0
13, 6618, Note_off_c, 13, 45, 0
13, 6624, Note_on_c, 13, 60, 36
13, 6624, Note_on_c, 13, 69, 36
13, 6624, Note_on_c, 13, 41, 36
13, 6666, Note_off_c, 13, 60, 0
13, 6666, Note_off_c, 13, 69, 0
13, 6666, Note_off_c, 13, 41, 0
13, 6720, Note_on_c, 13, 67, 36
13, 6720, Note_on_c, 13, 76, 36
13, 6720, Note_on_c, 13, 48, 36
13, 6762, Note_off_c, 13, 67, 0
13, 6762, Note_off_c, 13, 76, 0
13, 6762, Note_off_c, 13, 48, 0
13, 6768, Note_on_c, 13, 67, 36
13, 6768, Note_on_c, 13, 76, 36
13, 6768, Note_on_c, 13, 48, 36
13, 6810, Note_off_c, 13, 67, 0
13, 6810, Note_off_c, 13, 76, 0
13, 6810, Note_off_c, 13, 48, 0
13, 6816, Note_on_c, 13, 67, 36
13, 6816, Note_on_c, 13, 76, 36
13, 6816, Note_on_c, 13, 48, 36
13, 6858, Note_off_c, 13, 67, 0
13, 6858, Note_off_c, 13, 76, 0
13, 6858, Note_off_c, 13, 48, 0
13, 6864, Note_on_c, 13, 67, 36
13, 6864, Note_on_c, 13, 76, 36
13, 6864, Note_on_c, 13, 48, 36
13, 6885, Note_off_c, 13, 48, 0
13, 6888, Note_on_c, 13, 50, 36
13, 6906, Note_off_c, 13, 67, 0
13, 6906, Note_off_c, 13, 76, 0
13, 6909, Note_off_c, 13, 50, 0
13, 6912, Note_on_c, 13, 67, 36
13, 6912, Note_on_c, 13, 72, 36
13, 6912, Note_on_c, 13, 52, 36
13, 6933, Note_off_c, 13, 52, 0
13, 6936, Note_on_c, 13, 50, 36
13, 6954, Note_off_c, 13, 67, 0
13, 6954, Note_off_c, 13, 72, 0
13, 6957, Note_off_c, 13, 50, 0
13, 6960, Note_on_c, 13, 67, 36
13, 6960, Note_on_c, 13, 76, 36
13, 6960, Note_on_c, 13, 52, 36
13, 6981, Note_off_c, 13, 52, 0
13, 6984, Note_on_c, 13, 48, 36
13, 7002, Note_off_c, 13, 67, 0
13, 7002, Note_off_c, 13, 76, 0
13, 7005, Note_off_c, 13, 48, 0
13, 7008, Note_on_c, 13, 60, 36
13, 7008, Note_on_c, 13, 69, 36
13, 7008, Note_on_c, 13, 53, 36
13, 7029, Note_off_c, 13, 53, 0
13, 7032, Note_on_c, 13, 55, 36
13, 7050, Note_off_c, 13, 60, 0
13, 7050, Note_off_c, 13, 69, 0
13, 7053, Note_off_c, 13, 55, 0
13, 7056, Note_on_c, 13, 65, 36
13, 7056, Note_on_c, 13, 72, 36
13, 7056, Note_on_c, 13, 57, 36
13, 7077, Note_off_c, 13, 57, 0
13, 7080, Note_on_c, 13, 55, 36
13, 7098, Note_off_c, 13, 65, 0
13, 7098, Note_off_c, 13, 72, 0
13, 7101, Note_off_c, 13, 55, 0
13, 7104, Note_on_c, 13, 65, 36
13, 7104, Note_on_c, 13, 72, 36
13, 7104, Note_on_c, 13, 57, 36
13, 7125, Note_off_c, 13, 57, 0
13, 7128, Note_on_c, 13, 53, 36
13, 7146, Note_off_c, 13, 65, 0
13, 7146, Note_off_c, 13, 72, 0
13, 7149, Note_off_c, 13, 53, 0
13, 7152, Note_on_c, 13, 65, 36
13, 7152, Note_on_c, 13, 74, 36
13, 7152, Note_on_c, 13, 47, 36
13, 7173, Note_off_c, 13, 47, 0
13, 7176, Note_on_c, 13, 48, 36
13, 7194, Note_off_c, 13, 65, 0
13, 7194, Note_off_c, 13, 74, 0
13, 7197, Note_off_c, 13, 48, 0
13, 7200, Note_on_c, 13, 65, 36
13, 7200, Note_on_c, 13, 74, 36
13, 7200, Note_on_c, 13, 50, 36
13, 7221, Note_off_c, 13, 50, 0
13, 7224, Note_on_c, 13, 48, 36
13, 7242, Note_off_c, 13, 65, 0
13, 7242, Note_off_c, 13, 74, 0
13, 7245, Note_off_c, 13, 48, 0
13, 7248, Note_on_c, 13, 65, 36
13, 7248, Note_on_c, 13, 74, 36
13, 7248, Note_on_c, 13, 50, 36
13, 7269, Note_off_c, 13, 50, 0
13, 7272, Note_on_c, 13, 47, 36
13, 7290, Note_off_c, 13, 65, 0
13, 7290, Note_off_c, 13, 74, 0
13, 7293, Note_off_c, 13, 47, 0
13, 7296, Note_on_c, 13, 67, 36
13, 7296, Note_on_c, 13, 71, 36
13, 7296, Note_on_c, 13, 52, 36
13, 7317, Note_off_c, 13, 52, 0
13, 7320, Note_on_c, 13, 53, 36
13, 7338, Note_off_c, 13, 67, 0
13, 7338, Note_off_c, 13, 71, 0
13, 7341, Note_off_c, 13, 53, 0
13, 7344, Note_on_c, 13, 64, 36
13, 7344, Note_on_c, 13, 71, 36
13, 7344, Note_on_c, 13, 55, 36
13, 7365, Note_off_c, 13, 55, 0
13, 7368, Note_on_c, 13, 53, 36
13, 7386, Note_off_c, 13, 64, 0
13, 7386, Note_off_c, 13, 71, 0
13, 7389, Note_off_c, 13, 53, 0
13, 7392, Note_on_c, 13, 67, 36
13, 7392, Note_on_c, 13, 71, 36
13, 7392, Note_on_c, 13, 55, 36
13, 7413, Note_off_c, 13, 55, 0
13, 7416, Note_on_c, 13, 52, 36
13, 7434, Note_off_c, 13, 67, 0
13, 7434, Note_off_c, 13, 71, 0
13, 7437, Note_off_c, 13, 52, 0
13, 7440, Note_on_c, 13, 64, 36
13, 7440, Note_on_c, 13, 72, 36
13, 7440, Note_on_c, 13, 45, 36
13, 7461, Note_off_c, 13, 45, 0
13, 7464, Note_on_c, 13, 47, 36
13, 7482, Note_off_c, 13, 64, 0
13, 7482, Note_off_c, 13, 72, 0
13, 7485, Note_off_c, 13, 47, 0
13, 7488, Note_on_c, 13, 64, 36
13, 7488, Note_on_c, 13, 72, 36
13, 7488, Note_on_c, 13, 48, 36
13, 7509, Note_off_c, 13, 48, 0
13, 7512, Note_on_c, 13, 47, 36
13, 7530, Note_off_c, 13, 64, 0
13, 7530, Note_off_c, 13, 72, 0
13, 7533, Note_off_c, 13, 47, 0
13, 7536, Note_on_c, 13, 64, 36
13, 7536, Note_on_c, 13, 72, 36
13, 7536, Note_on_c, 13, 48, 36
13, 7557, Note_off_c, 13, 48, 0
13, 7560, Note_on_c, 13, 45, 36
13, 7578, Note_off_c, 13, 64, 0
13, 7578, Note_off_c, 13, 72, 0
13, 7581, Note_off_c, 13, 45, 0
13, 7584, Note_on_c, 13, 69, 36
13, 7584, Note_on_c, 13, 77, 36
13, 7584, Note_on_c, 13, 50, 36
13, 7605, Note_off_c, 13, 50, 0
13, 7608, Note_on_c, 13, 52, 36
13, 7626, Note_off_c, 13, 69, 0
13, 7626, Note_off_c, 13, 77, 0
13, 7629, Note_off_c, 13, 52, 0
13, 7632, Note_on_c, 13, 69, 36
13, 7632, Note_on_c, 13, 74, 36
13, 7632, Note_on_c, 13, 53, 36
13, 7653, Note_off_c, 13, 53, 0
13, 7656, Note_on_c, 13, 52, 36
13, 7674, Note_off_c, 13, 69, 0
13, 7674, Note_off_c, 13, 74, 0
13, 7677, Note_off_c, 13, 52, 0
13, 7680, Note_on_c, 13, 69, 36
13, 7680, Note_on_c, 13, 74, 36
13, 7680, Note_on_c, 13, 53, 36
13, 7701, Note_off_c, 13, 53, 0
13, 7704, Note_on_c, 13, 50, 36
13, 7722, Note_off_c, 13, 69, 0
13, 7722, Note_off_c, 13, 74, 0
13, 7725, Note_off_c, 13, 50, 0
13, 7728, Note_on_c, 13, 67, 36
13, 7728, Note_on_c, 13, 43, 36
13, 7770, Note_off_c, 13, 67, 0
13, 7770, Note_off_c, 13, 43, 0
13, 7776, Note_on_c, 13, 67, 36
13, 7776, Note_on_c, 13, 43, 36
13, 7818, Note_off_c, 13, 67, 0
13, 7818, Note_off_c, 13, 43, 0
13, 7824, Note_on_c, 13, 67, 36
13, 7824, Note_on_c, 13, 43, 36
13, 7866, Note_off_c, 13, 67, 0
13, 7866, Note_off_c, 13, 43, 0
13, 7872, Note_on_c, 13, 67, 36
13, 7872, Note_on_c, 13, 43, 36
13, 7914, Note_off_c, 13, 67, 0
13, 7914, Note_off_c, 13, 43, 0
13, 7920, Note_on_c, 13, 67, 36
13, 7920, Note_on_c, 13, 43, 36
13, 7962, Note_off_c, 13, 67, 0
13, 7962, Note_off_c, 13, 43, 0
13, 7968, Note_on_c, 13, 67, 36
13, 7968, Note_on_c, 13, 43, 36
13, 8010, Note_off_c, 13, 67, 0
13, 8010, Note_off_c, 13, 43, 0
13, 8016, Note_on_c, 13, 67, 36
13, 8016, Note_on_c, 13, 43, 36
13, 8058, Note_off_c, 13, 67, 0
13, 8058, Note_off_c, 13, 43, 0
13, 8064, Note_on_c, 13, 67, 36
13, 8064, Note_on_c, 13, 43, 36
13, 8106, Note_off_c, 13, 67, 0
13, 8106, Note_off_c, 13, 43, 0
13, 8112, Note_on_c, 13, 67, 36
13, 8112, Note_on_c, 13, 43, 36
13, 8154, Note_off_c, 13, 67, 0
13, 8154, Note_off_c, 13, 43, 0
13, 8160, Note_on_c, 13, 67, 36
13, 8160, Note_on_c, 13, 43, 36
13, 8202, Note_off_c, 13, 67, 0
13, 8202, Note_off_c, 13, 43, 0
13, 8208, Note_on_c, 13, 67, 36
13, 8208, Note_on_c, 13, 43, 36
13, 8250, Note_off_c, 13, 67, 0
13, 8250, Note_off_c, 13, 43, 0
13, 8256, Note_on_c, 13, 67, 36
13, 8256, Note_on_c, 13, 43, 36
13, 8298, Note_off_c, 13, 67, 0
13, 8298, Note_off_c, 13, 43, 0
13, 8304, Note_on_c, 13, 67, 36
13, 8304, Note_on_c, 13, 43, 36
13, 8346, Note_off_c, 13, 67, 0
13, 8346, Note_off_c, 13, 43, 0
13, 8352, Note_on_c, 13, 67, 36
13, 8352, Note_on_c, 13, 43, 36
13, 8394, Note_off_c, 13, 67, 0
13, 8394, Note_off_c, 13, 43, 0
13, 8400, Note_on_c, 13, 67, 36
13, 8400, Note_on_c, 13, 43, 36
13, 8442, Note_off_c, 13, 67, 0
13, 8442, Note_off_c, 13, 43, 0
13, 8448, Note_on_c, 13, 62, 36
13, 8448, Note_on_c, 13, 71, 36
13, 8448, Note_on_c, 13, 43, 36
13, 8490, Note_off_c, 13, 62, 0
13, 8490, Note_off_c, 13, 71, 0
13, 8490, Note_off_c, 13, 43, 0
13, 8496, Note_on_c, 13, 55, 36
13, 8517, Note_off_c, 13, 55, 0
13, 8520, Note_on_c, 13, 57, 36
13, 8541, Note_off_c, 13, 57, 0
13, 8544, Note_on_c, 13, 55, 36
13, 8565, Note_off_c, 13, 55, 0
13, 8568, Note_on_c, 13, 53, 36
13, 8589, Note_off_c, 13, 53, 0
13, 8592, Note_on_c, 13, 52, 36
13, 8613, Note_off_c, 13, 52, 0
13, 8616, Note_on_c, 13, 53, 36
13, 8637, Note_off_c, 13, 53, 0
13, 8640, Note_on_c, 13, 52, 36
13, 8661, Note_off_c, 13, 52, 0
13, 8664, Note_on_c, 13, 50, 36
13, 8685, Note_off_c, 13, 50, 0
13, 8688, Note_on_c, 13, 52, 36
13, 8709, Note_off_c, 13, 52, 0
13, 8712, Note_on_c, 13, 48, 36
13, 8733, Note_off_c, 13, 48, 0
13, 8736, Note_on_c, 13, 53, 36
13, 8757, Note_off_c, 13, 53, 0
13, 8760, Note_on_c, 13, 55, 36
13, 8781, Note_off_c, 13, 55, 0
13, 8784, Note_on_c, 13, 53, 36
13, 8805, Note_off_c, 13, 53, 0
13, 8808, Note_on_c, 13, 52, 36
13, 8829, Note_off_c, 13, 52, 0
13, 8832, Note_on_c, 13, 53, 36
13, 8853, Note_off_c, 13, 53, 0
13, 8856, Note_on_c, 13, 52, 36
13, 8877, Note_off_c, 13, 52, 0
13, 8880, Note_on_c, 13, 50, 36
13, 8901, Note_off_c, 13, 50, 0
13, 8904, Note_on_c, 13, 55, 36
13, 8925, Note_off_c, 13, 55, 0
13, 8928, Note_on_c, 13, 53, 36
13, 8949, Note_off_c, 13, 53, 0
13, 8952, Note_on_c, 13, 52, 36
13, 8973, Note_off_c, 13, 52, 0
13, 8976, Note_on_c, 13, 53, 36
13, 8997, Note_off_c, 13, 53, 0
13, 9000, Note_on_c, 13, 50, 36
13, 9021, Note_off_c, 13, 50, 0
13, 9024, Note_on_c, 13, 55, 36
13, 9045, Note_off_c, 13, 55, 0
13, 9048, Note_on_c, 13, 57, 36
13, 9069, Note_off_c, 13, 57, 0
13, 9072, Note_on_c, 13, 55, 36
13, 9093, Note_off_c, 13, 55, 0
13, 9096, Note_on_c, 13, 53, 36
13, 9117, Note_off_c, 13, 53, 0
13, 9120, Note_on_c, 13, 55, 36
13, 9141, Note_off_c, 13, 55, 0
13, 9144, Note_on_c, 13, 53, 36
13, 9165, Note_off_c, 13, 53, 0
13, 9168, Note_on_c, 13, 52, 36
13, 9189, Note_off_c, 13, 52, 0
13, 9192, Note_on_c, 13, 57, 36
13, 9213, Note_off_c, 13, 57, 0
13, 9216, Note_on_c, 13, 55, 36
13, 9237, Note_off_c, 13, 55, 0
13, 9240, Note_on_c, 13, 53, 36
13, 9261, Note_off_c, 13, 53, 0
13, 9264, Note_on_c, 13, 55, 36
13, 9285, Note_off_c, 13, 55, 0
13, 9288, Note_on_c, 13, 52, 36
13, 9309, Note_off_c, 13, 52, 0
13, 9312, Note_on_c, 13, 57, 36
13, 9333, Note_off_c, 13, 57, 0
13, 9336, Note_on_c, 13, 58, 36
13, 9357, Note_off_c, 13, 58, 0
13, 9360, Note_on_c, 13, 57, 36
13, 9381, Note_off_c, 13, 57, 0
13, 9384, Note_on_c, 13, 55, 36
13, 9405, Note_off_c, 13, 55, 0
13, 9408, Note_on_c, 13, 57, 36
13, 9429, Note_off_c, 13, 57, 0
13, 9432, Note_on_c, 13, 55, 36
13, 9453, Note_off_c, 13, 55, 0
13, 9456, Note_on_c, 13, 53, 36
13, 9477, Note_off_c, 13, 53, 0
13, 9480, Note_on_c, 13, 58, 36
13, 9501, Note_off_c, 13, 58, 0
13, 9504, Note_on_c, 13, 57, 36
13, 9525, Note_off_c, 13, 57, 0
13, 9528, Note_on_c, 13, 55, 36
13, 9549, Note_off_c, 13, 55, 0
13, 9552, Note_on_c, 13, 57, 36
13, 9573, Note_off_c, 13, 57, 0
13, 9576, Note_on_c, 13, 53, 36
13, 9597, Note_off_c, 13, 53, 0
13, 9600, Note_on_c, 13, 55, 36
13, 9642, Note_off_c, 13, 55, 0
13, 9648, Note_on_c, 13, 43, 36
13, 9690, Note_off_c, 13, 43, 0
13, 9696, Note_on_c, 13, 43, 36
13, 9738, Note_off_c, 13, 43, 0
13, 9744, Note_on_c, 13, 43, 36
13, 9786, Note_off_c, 13, 43, 0
13, 9792, Note_on_c, 13, 47, 36
13, 9813, Note_off_c, 13, 47, 0
13, 9816, Note_on_c, 13, 45, 36
13, 9837, Note_off_c, 13, 45, 0
13, 9840, Note_on_c, 13, 47, 36
13, 9861, Note_off_c, 13, 47, 0
13, 9864, Note_on_c, 13, 43, 36
13, 9885, Note_off_c, 13, 43, 0
13, 9888, Note_on_c, 13, 67, 36
13, 9888, Note_on_c, 13, 76, 36
13, 9888, Note_on_c, 13, 48, 36
13, 9930, Note_off_c, 13, 67, 0
13, 9930, Note_off_c, 13, 76, 0
13, 9930, Note_off_c, 13, 48, 0
13, 9936, Note_on_c, 13, 67, 36
13, 9936, Note_on_c, 13, 72, 36
13, 9936, Note_on_c, 13, 52, 36
13, 9978, Note_off_c, 13, 67, 0
13, 9978, Note_off_c, 13, 72, 0
13, 9978, Note_off_c, 13, 52, 0
13, 9984, Note_on_c, 13, 64, 36
13, 9984, Note_on_c, 13, 72, 36
13, 9984, Note_on_c, 13, 55, 36
13, 10026, Note_off_c, 13, 64, 0
13, 10026, Note_off_c, 13, 72, 0
13, 10026, Note_off_c, 13, 55, 0
13, 10032, Note_on_c, 13, 67, 36
13, 10032, Note_on_c, 13, 72, 36
13, 10032, Note_on_c, 13, 52, 36
13, 10074, Note_off_c, 13, 67, 0
13, 10074, Note_off_c, 13, 72, 0
13, 10074, Note_off_c, 13, 52, 0
13, 10080, Note_on_c, 13, 67, 36
13, 10080, Note_on_c, 13, 76, 36
13, 10080, Note_on_c, 13, 48, 36
13, 10122, Note_off_c, 13, 67, 0
13, 10122, Note_off_c, 13, 76, 0
13, 10122, Note_off_c, 13, 48, 0
13, 10176, Note_on_c, 13, 67, 36
13, 10176, Note_on_c, 13, 74, 36
13, 10176, Note_on_c, 13, 47, 36
13, 10218, Note_off_c, 13, 67, 0
13, 10218, Note_off_c, 13, 74, 0
13, 10218, Note_off_c, 13, 47, 0
13, 10224, Note_on_c, 13, 67, 36
13, 10224, Note_on_c, 13, 71, 36
13, 10224, Note_on_c, 13, 50, 36
13, 10266, Note_off_c, 13, 67, 0
13, 10266, Note_off_c, 13, 71, 0
13, 10266, Note_off_c, 13, 50, 0
13, 10272, Note_on_c, 13, 62, 36
13, 10272, Note_on_c, 13, 71, 36
13, 10272, Note_on_c, 13, 55, 36
13, 10314, Note_off_c, 13, 62, 0
13, 10314, Note_off_c, 13, 71, 0
13, 10314, Note_off_c, 13, 55, 0
13, 10320, Note_on_c, 13, 62, 36
13, 10320, Note_on_c, 13, 67, 36
13, 10320, Note_on_c, 13, 47, 36
13, 10362, Note_off_c, 13, 62, 0
13, 10362, Note_off_c, 13, 67, 0
13, 10362, Note_off_c, 13, 47, 0
13, 10368, Note_on_c, 13, 62, 36
13, 10368, Note_on_c, 13, 71, 36
13, 10368, Note_on_c, 13, 43, 36
13, 10410, Note_off_c, 13, 62, 0
13, 10410, Note_off_c, 13, 71, 0
13, 10410, Note_off_c, 13, 43, 0
13, 10464, Note_on_c, 13, 64, 36
13, 10464, Note_on_c, 13, 72, 36
13, 10464, Note_on_c, 13, 45, 36
13, 10506, Note_off_c, 13, 64, 0
13, 10506, Note_off_c, 13, 72, 0
13, 10506, Note_off_c, 13, 45, 0
13, 10512, Note_on_c, 13, 64, 36
13, 10512, Note_on_c, 13, 69, 36
13, 10512, Note_on_c, 13, 48, 36
13, 10554, Note_off_c, 13, 64, 0
13, 10554, Note_off_c, 13, 69, 0
13, 10554, Note_off_c, 13, 48, 0
13, 10560, Note_on_c, 13, 64, 36
13, 10560, Note_on_c, 13, 72, 36
13, 10560, Note_on_c, 13, 45, 36
13, 10602, Note_off_c, 13, 64, 0
13, 10602, Note_off_c, 13, 72, 0
13, 10602, Note_off_c, 13, 45, 0
13, 10608, Note_on_c, 13, 62, 36
13, 10608, Note_on_c, 13, 69, 36
13, 10608, Note_on_c, 13, 41, 36
13, 10650, Note_off_c, 13, 62, 0
13, 10650, Note_off_c, 13, 69, 0
13, 10650, Note_off_c, 13, 41, 0
13, 10656, Note_on_c, 13, 65, 36
13, 10656, Note_on_c, 13, 69, 36
13, 10656, Note_on_c, 13, 38, 36
13, 10698, Note_off_c, 13, 65, 0
13, 10698, Note_off_c, 13, 69, 0
13, 10698, Note_off_c, 13, 38, 0
13, 10752, Note_on_c, 13, 62, 36
13, 10752, Note_on_c, 13, 71, 36
13, 10752, Note_on_c, 13, 43, 36
13, 10794, Note_off_c, 13, 62, 0
13, 10794, Note_off_c, 13, 71, 0
13, 10794, Note_off_c, 13, 43, 0
13, 10800, Note_on_c, 13, 67, 36
13, 10800, Note_on_c, 13, 72, 36
13, 10800, Note_on_c, 13, 43, 36
13, 10842, Note_off_c, 13, 67, 0
13, 10842, Note_off_c, 13, 72, 0
13, 10842, Note_off_c, 13, 43, 0
13, 10848, Note_on_c, 13, 71, 36
13, 10848, Note_on_c, 13, 78, 36
13, 10848, Note_on_c, 13, 43, 36
13, 10890, Note_off_c, 13, 71, 0
13, 10890, Note_off_c, 13, 78, 0
13, 10890, Note_off_c, 13, 43, 0
13, 10896, Note_on_c, 13, 71, 36
13, 10896, Note_on_c, 13, 79, 36
13, 10896, Note_on_c, 13, 43, 36
13, 10917, Note_off_c, 13, 43, 0
13, 10920, Note_on_c, 13, 45, 36
13, 10941, Note_off_c, 13, 45, 0
13, 10944, Note_on_c, 13, 47, 36
13, 10965, Note_off_c, 13, 47, 0
13, 10968, Note_on_c, 13, 45, 36
13, 10980, Note_off_c, 13, 71, 0
13, 10980, Note_off_c, 13, 79, 0
13, 10989, Note_off_c, 13, 45, 0
13, 10992, Note_on_c, 13, 47, 36
13, 11013, Note_off_c, 13, 47, 0
13, 11016, Note_on_c, 13, 43, 36
13, 11037, Note_off_c, 13, 43, 0
13, 11040, Note_on_c, 13, 50, 36
13, 11061, Note_off_c, 13, 50, 0
13, 11064, Note_on_c, 13, 52, 36
13, 11085, Note_off_c, 13, 52, 0
13, 11088, Note_on_c, 13, 53, 36
13, 11109, Note_off_c, 13, 53, 0
13, 11112, Note_on_c, 13, 52, 36
13, 11133, Note_off_c, 13, 52, 0
13, 11136, Note_on_c, 13, 53, 36
13, 11157, Note_off_c, 13, 53, 0
13, 11160, Note_on_c, 13, 50, 36
13, 11181, Note_off_c, 13, 50, 0
13, 11184, Note_on_c, 13, 52, 36
13, 11205, Note_off_c, 13, 52, 0
13, 11208, Note_on_c, 13, 53, 36
13, 11229, Note_off_c, 13, 53, 0
13, 11232, Note_on_c, 13, 55, 36
13, 11253, Note_off_c, 13, 55, 0
13, 11256, Note_on_c, 13, 52, 36
13, 11277, Note_off_c, 13, 52, 0
13, 11280, Note_on_c, 13, 57, 36
13, 11301, Note_off_c, 13, 57, 0
13, 11304, Note_on_c, 13, 55, 36
13, 11325, Note_off_c, 13, 55, 0
13, 11328, Note_on_c, 13, 57, 36
13, 11349, Note_off_c, 13, 57, 0
13, 11352, Note_on_c, 13, 53, 36
13, 11373, Note_off_c, 13, 53, 0
13, 11376, Note_on_c, 13, 55, 36
13, 11418, Note_off_c, 13, 55, 0
13, 11424, Note_on_c, 13, 43, 36
13, 11466, Note_off_c, 13, 43, 0
13, 11472, Note_on_c, 13, 36, 36
13, 11514, Note_off_c, 13, 36, 0
13, 11520, Note_on_c, 13, 40, 36
13, 11562, Note_off_c, 13, 40, 0
13, 11568, Note_on_c, 13, 62, 36
13, 11568, Note_on_c, 13, 71, 36
13, 11568, Note_on_c, 13, 43, 36
13, 11610, Note_off_c, 13, 62, 0
13, 11610, Note_off_c, 13, 71, 0
13, 11610, Note_off_c, 13, 43, 0
13, 11616, Note_on_c, 13, 67, 36
13, 11616, Note_on_c, 13, 76, 36
13, 11616, Note_on_c, 13, 48, 36
13, 11658, Note_off_c, 13, 67, 0
13, 11658, Note_off_c, 13, 76, 0
13, 11658, Note_off_c, 13, 48, 0
13, 11664, Note_on_c, 13, 52, 36
13, 11706, Note_off_c, 13, 52, 0
13, 11712, Note_on_c, 13, 57, 36
13, 11754, Note_off_c, 13, 57, 0
13, 11760, Note_on_c, 13, 67, 36
13, 11760, Note_on_c, 13, 74, 36
13, 11760, Note_on_c, 13, 47, 36
13, 11802, Note_off_c, 13, 67, 0
13, 11802, Note_off_c, 13, 74, 0
13, 11802, Note_off_c, 13, 47, 0
13, 11808, Note_on_c, 13, 50, 36
13, 11850, Note_off_c, 13, 50, 0
13, 11856, Note_on_c, 13, 55, 36
13, 11898, Note_off_c, 13, 55, 0
13, 11904, Note_on_c, 13, 64, 36
13, 11904, Note_on_c, 13, 72, 36
13, 11904, Note_on_c, 13, 45, 36
13, 11946, Note_off_c, 13, 64, 0
13, 11946, Note_off_c, 13, 72, 0
13, 11946, Note_off_c, 13, 45, 0
13, 11952, Note_on_c, 13, 48, 36
13, 11994, Note_off_c, 13, 48, 0
13, 12000, Note_on_c, 13, 53, 36
13, 12042, Note_off_c, 13, 53, 0
13, 12048, Note_on_c, 13, 64, 36
13, 12048, Note_on_c, 13, 71, 36
13, 12048, Note_on_c, 13, 43, 36
13, 12090, Note_off_c, 13, 64, 0
13, 12090, Note_off_c, 13, 71, 0
13, 12090, Note_off_c, 13, 43, 0
13, 12096, Note_on_c, 13, 47, 36
13, 12138, Note_off_c, 13, 47, 0
13, 12144, Note_on_c, 13, 52, 36
13, 12186, Note_off_c, 13, 52, 0
13, 12192, Note_on_c, 13, 69, 36
13, 12192, Note_on_c, 13, 72, 36
13, 12192, Note_on_c, 13, 41, 36
13, 12234, Note_off_c, 13, 69, 0
13, 12234, Note_off_c, 13, 72, 0
13, 12234, Note_off_c, 13, 41, 0
13, 12240, Note_on_c, 13, 45, 36
13, 12282, Note_off_c, 13, 45, 0
13, 12288, Note_on_c, 13, 50, 36
13, 12330, Note_off_c, 13, 50, 0
13, 12336, Note_on_c, 13, 64, 36
13, 12336, Note_on_c, 13, 72, 36
13, 12336, Note_on_c, 13, 40, 36
13, 12378, Note_off_c, 13, 64, 0
13, 12378, Note_off_c, 13, 72, 0
13, 12378, Note_off_c, 13, 40, 0
13, 12384, Note_on_c, 13, 43, 36
13, 12426, Note_off_c, 13, 43, 0
13, 12432, Note_on_c, 13, 48, 36
13, 12474, Note_off_c, 13, 48, 0
13, 12480, Note_on_c, 13, 69, 36
13, 12480, Note_on_c, 13, 77, 36
13, 12480, Note_on_c, 13, 38, 36
13, 12522, Note_off_c, 13, 69, 0
13, 12522, Note_off_c, 13, 77, 0
13, 12522, Note_off_c, 13, 38, 0
13, 12528, Note_on_c, 13, 74, 36
13, 12528, Note_on_c, 13, 77, 36
13, 12528, Note_on_c, 13, 45, 36
13, 12570, Note_off_c, 13, 74, 0
13, 12570, Note_off_c, 13, 77, 0
13, 12570, Note_off_c, 13, 45, 0
13, 12576, Note_on_c, 13, 69, 36
13, 12576, Note_on_c, 13, 77, 36
13, 12576, Note_on_c, 13, 50, 36
13, 12618, Note_off_c, 13, 69, 0
13, 12618, Note_off_c, 13, 77, 0
13, 12618, Note_off_c, 13, 50, 0
13, 12624, Note_on_c, 13, 69, 36
13, 12624, Note_on_c, 13, 77, 36
13, 12624, Note_on_c, 13, 36, 36
13, 12666, Note_off_c, 13, 69, 0
13, 12666, Note_off_c, 13, 77, 0
13, 12666, Note_off_c, 13, 36, 0
13, 12672, Note_on_c, 13, 74, 36
13, 12672, Note_on_c, 13, 77, 36
13, 12672, Note_on_c, 13, 45, 36
13, 12714, Note_off_c, 13, 74, 0
13, 12714, Note_off_c, 13, 77, 0
13, 12714, Note_off_c, 13, 45, 0
13, 12720, Note_on_c, 13, 69, 36
13, 12720, Note_on_c, 13, 77, 36
13, 12720, Note_on_c, 13, 50, 36
13, 12762, Note_off_c, 13, 69, 0
13, 12762, Note_off_c, 13, 77, 0
13, 12762, Note_off_c, 13, 50, 0
13, 12768, Note_on_c, 13, 67, 36
13, 12768, Note_on_c, 13, 74, 36
13, 12768, Note_on_c, 13, 47, 36
13, 12810, Note_off_c, 13, 67, 0
13, 12810, Note_off_c, 13, 74, 0
13, 12810, Note_off_c, 13, 47, 0
13, 12816, Note_on_c, 13, 71, 36
13, 12816, Note_on_c, 13, 74, 36
13, 12816, Note_on_c, 13, 43, 36
13, 12858, Note_off_c, 13, 71, 0
13, 12858, Note_off_c, 13, 74, 0
13, 12858, Note_off_c, 13, 43, 0
13, 12864, Note_on_c, 13, 71, 36
13, 12864, Note_on_c, 13, 79, 36
13, 12864, Note_on_c, 13, 50, 36
13, 12906, Note_off_c, 13, 71, 0
13, 12906, Note_off_c, 13, 79, 0
13, 12906, Note_off_c, 13, 50, 0
13, 12912, Note_on_c, 13, 71, 36
13, 12912, Note_on_c, 13, 74, 36
13, 12912, Note_on_c, 13, 55, 36
13, 12954, Note_off_c, 13, 71, 0
13, 12954, Note_off_c, 13, 74, 0
13, 12954, Note_off_c, 13, 55, 0
13, 12960, Note_on_c, 13, 62, 36
13, 12960, Note_on_c, 13, 71, 36
13, 12960, Note_on_c, 13, 43, 36
13, 13002, Note_off_c, 13, 62, 0
13, 13002, Note_off_c, 13, 71, 0
13, 13002, Note_off_c, 13, 43, 0
13, 13008, Note_on_c, 13, 71, 36
13, 13008, Note_on_c, 13, 74, 36
13, 13008, Note_on_c, 13, 55, 36
13, 13050, Note_off_c, 13, 71, 0
13, 13050, Note_off_c, 13, 74, 0
13, 13050, Note_off_c, 13, 55, 0
13, 13056, Note_on_c, 13, 67, 36
13, 13056, Note_on_c, 13, 76, 36
13, 13056, Note_on_c, 13, 48, 36
13, 13098, Note_off_c, 13, 67, 0
13, 13098, Note_off_c, 13, 76, 0
13, 13098, Note_off_c, 13, 48, 0
13, 13104, Note_on_c, 13, 64, 36
13, 13104, Note_on_c, 13, 72, 36
13, 13104, Note_on_c, 13, 55, 36
13, 13146, Note_off_c, 13, 64, 0
13, 13146, Note_off_c, 13, 72, 0
13, 13146, Note_off_c, 13, 55, 0
13, 13152, Note_on_c, 13, 67, 36
13, 13152, Note_on_c, 13, 72, 36
13, 13152, Note_on_c, 13, 60, 36
13, 13194, Note_off_c, 13, 67, 0
13, 13194, Note_off_c, 13, 72, 0
13, 13194, Note_off_c, 13, 60, 0
13, 13200, Note_on_c, 13, 67, 36
13, 13200, Note_on_c, 13, 76, 36
13, 13200, Note_on_c, 13, 47, 36
13, 13242, Note_off_c, 13, 67, 0
13, 13242, Note_off_c, 13, 76, 0
13, 13242, Note_off_c, 13, 47, 0
13, 13248, Note_on_c, 13, 64, 36
13, 13248, Note_on_c, 13, 72, 36
13, 13248, Note_on_c, 13, 55, 36
13, 13290, Note_off_c, 13, 64, 0
13, 13290, Note_off_c, 13, 72, 0
13, 13290, Note_off_c, 13, 55, 0
13, 13296, Note_on_c, 13, 67, 36
13, 13296, Note_on_c, 13, 72, 36
13, 13296, Note_on_c, 13, 60, 36
13, 13338, Note_off_c, 13, 67, 0
13, 13338, Note_off_c, 13, 72, 0
13, 13338, Note_off_c, 13, 60, 0
13, 13344, Note_on_c, 13, 65, 36
13, 13344, Note_on_c, 13, 72, 36
13, 13344, Note_on_c, 13, 45, 36
13, 13386, Note_off_c, 13, 65, 0
13, 13386, Note_off_c, 13, 72, 0
13, 13386, Note_off_c, 13, 45, 0
13, 13392, Note_on_c, 13, 72, 36
13, 13392, Note_on_c, 13, 77, 36
13, 13392, Note_on_c, 13, 57, 36
13, 13434, Note_off_c, 13, 72, 0
13, 13434, Note_off_c, 13, 77, 0
13, 13434, Note_off_c, 13, 57, 0
13, 13440, Note_on_c, 13, 72, 36
13, 13440, Note_on_c, 13, 81, 36
13, 13440, Note_on_c, 13, 52, 36
13, 13482, Note_off_c, 13, 72, 0
13, 13482, Note_off_c, 13, 81, 0
13, 13482, Note_off_c, 13, 52, 0
13, 13488, Note_on_c, 13, 72, 36
13, 13488, Note_on_c, 13, 81, 36
13, 13488, Note_on_c, 13, 53, 36
13, 13530, Note_off_c, 13, 72, 0
13, 13530, Note_off_c, 13, 81, 0
13, 13530, Note_off_c, 13, 53, 0
13, 13536, Note_on_c, 13, 69, 36
13, 13536, Note_on_c, 13, 74, 36
13, 13536, Note_on_c, 13, 57, 36
13, 13578, Note_off_c, 13, 69, 0
13, 13578, Note_off_c, 13, 74, 0
13, 13578, Note_off_c, 13, 57, 0
13, 13584, Note_on_c, 13, 69, 36
13, 13584, Note_on_c, 13, 77, 36
13, 13584, Note_on_c, 13, 50, 36
13, 13626, Note_off_c, 13, 69, 0
13, 13626, Note_off_c, 13, 77, 0
13, 13626, Note_off_c, 13, 50, 0
13, 13632, Note_on_c, 13, 62, 36
13, 13632, Note_on_c, 13, 71, 36
13, 13632, Note_on_c, 13, 43, 36
13, 13674, Note_off_c, 13, 62, 0
13, 13674, Note_off_c, 13, 71, 0
13, 13674, Note_off_c, 13, 43, 0
13, 13680, Note_on_c, 13, 62, 36
13, 13680, Note_on_c, 13, 67, 36
13, 13680, Note_on_c, 13, 47, 36
13, 13722, Note_off_c, 13, 62, 0
13, 13722, Note_off_c, 13, 67, 0
13, 13722, Note_off_c, 13, 47, 0
13, 13728, Note_on_c, 13, 59, 36
13, 13728, Note_on_c, 13, 67, 36
13, 13728, Note_on_c, 13, 50, 36
13, 13770, Note_off_c, 13, 59, 0
13, 13770, Note_off_c, 13, 67, 0
13, 13770, Note_off_c, 13, 50, 0
13, 13776, Note_on_c, 13, 62, 36
13, 13776, Note_on_c, 13, 71, 36
13, 13776, Note_on_c, 13, 43, 36
13, 13818, Note_off_c, 13, 62, 0
13, 13818, Note_off_c, 13, 71, 0
13, 13818, Note_off_c, 13, 43, 0
13, 13824, Note_on_c, 13, 62, 36
13, 13824, Note_on_c, 13, 67, 36
13, 13824, Note_on_c, 13, 47, 36
13, 13866, Note_off_c, 13, 62, 0
13, 13866, Note_off_c, 13, 67, 0
13, 13866, Note_off_c, 13, 47, 0
13, 13872, Note_on_c, 13, 59, 36
13, 13872, Note_on_c, 13, 67, 36
13, 13872, Note_on_c, 13, 50, 36
13, 13914, Note_off_c, 13, 59, 0
13, 13914, Note_off_c, 13, 67, 0
13, 13914, Note_off_c, 13, 50, 0
13, 13920, Note_on_c, 13, 71, 36
13, 13920, Note_on_c, 13, 74, 36
13, 13920, Note_on_c, 13, 43, 36
13, 13962, Note_off_c, 13, 71, 0
13, 13962, Note_off_c, 13, 74, 0
13, 13962, Note_off_c, 13, 43, 0
13, 13968, Note_on_c, 13, 67, 36
13, 13968, Note_on_c, 13, 74, 36
13, 13968, Note_on_c, 13, 47, 36
13, 14010, Note_off_c, 13, 67, 0
13, 14010, Note_off_c, 13, 74, 0
13, 14010, Note_off_c, 13, 47, 0
13, 14016, Note_on_c, 13, 71, 36
13, 14016, Note_on_c, 13, 79, 36
13, 14016, Note_on_c, 13, 50, 36
13, 14058, Note_off_c, 13, 71, 0
13, 14058, Note_off_c, 13, 79, 0
13, 14058, Note_off_c, 13, 50, 0
13, 14064, Note_on_c, 13, 71, 36
13, 14064, Note_on_c, 13, 74, 36
13, 14064, Note_on_c, 13, 55, 36
13, 14106, Note_off_c, 13, 71, 0
13, 14106, Note_off_c, 13, 74, 0
13, 14106, Note_off_c, 13, 55, 0
13, 14112, Note_on_c, 13, 67, 36
13, 14112, Note_on_c, 13, 74, 36
13, 14112, Note_on_c, 13, 59, 36
13, 14154, Note_off_c, 13, 67, 0
13, 14154, Note_off_c, 13, 74, 0
13, 14154, Note_off_c, 13, 59, 0
13, 14160, Note_on_c, 13, 71, 36
13, 14160, Note_on_c, 13, 74, 36
13, 14160, Note_on_c, 13, 55, 36
13, 14202, Note_off_c, 13, 71, 0
13, 14202, Note_off_c, 13, 74, 0
13, 14202, Note_off_c, 13, 55, 0
13, 14208, Note_on_c, 13, 67, 36
13, 14208, Note_on_c, 13, 76, 36
13, 14208, Note_on_c, 13, 60, 36
13, 14229, Note_off_c, 13, 60, 0
13, 14232, Note_on_c, 13, 59, 36
13, 14250, Note_off_c, 13, 67, 0
13, 14250, Note_off_c, 13, 76, 0
13, 14253, Note_off_c, 13, 59, 0
13, 14256, Note_on_c, 13, 67, 36
13, 14256, Note_on_c, 13, 76, 36
13, 14256, Note_on_c, 13, 60, 36
13, 14277, Note_off_c, 13, 60, 0
13, 14280, Note_on_c, 13, 59, 36
13, 14298, Note_off_c, 13, 67, 0
13, 14298, Note_off_c, 13, 76, 0
13, 14301, Note_off_c, 13, 59, 0
13, 14304, Note_on_c, 13, 72, 36
13, 14304, Note_on_c, 13, 77, 36
13, 14304, Note_on_c, 13, 57, 36
13, 14346, Note_off_c, 13, 72, 0
13, 14346, Note_off_c, 13, 77, 0
13, 14352, Note_on_c, 13, 65, 36
13, 14352, Note_on_c, 13, 74, 36
13, 14373, Note_off_c, 13, 57, 0
13, 14376, Note_on_c, 13, 53, 36
13, 14394, Note_off_c, 13, 65, 0
13, 14394, Note_off_c, 13, 74, 0
13, 14397, Note_off_c, 13, 53, 0
13, 14400, Note_on_c, 13, 62, 36
13, 14400, Note_on_c, 13, 71, 36
13, 14400, Note_on_c, 13, 55, 36
13, 14442, Note_off_c, 13, 62, 0
13, 14442, Note_off_c, 13, 71, 0
13, 14442, Note_off_c, 13, 55, 0
13, 14448, Note_on_c, 13, 64, 36
13, 14448, Note_on_c, 13, 72, 36
13, 14448, Note_on_c, 13, 43, 36
13, 14490, Note_off_c, 13, 64, 0
13, 14490, Note_off_c, 13, 72, 0
13, 14490, Note_off_c, 13, 43, 0
13, 14496, Note_on_c, 13, 67, 36
13, 14496, Note_on_c, 13, 76, 36
13, 14496, Note_on_c, 13, 48, 36
13, 14538, Note_off_c, 13, 67, 0
13, 14538, Note_off_c, 13, 76, 0
13, 14538, Note_off_c, 13, 48, 0
13, 14544, Note_on_c, 13, 67, 36
13, 14544, Note_on_c, 13, 72, 36
13, 14544, Note_on_c, 13, 52, 36
13, 14586, Note_off_c, 13, 67, 0
13, 14586, Note_off_c, 13, 72, 0
13, 14586, Note_off_c, 13, 52, 0
13, 14592, Note_on_c, 13, 67, 36
13, 14592, Note_on_c, 13, 76, 36
13, 14592, Note_on_c, 13, 48, 36
13, 14634, Note_off_c, 13, 67, 0
13, 14634, Note_off_c, 13, 76, 0
13, 14634, Note_off_c, 13, 48, 0
13, 14640, Note_on_c, 13, 64, 36
13, 14640, Note_on_c, 13, 72, 36
13, 14640, Note_on_c, 13, 45, 36
13, 14682, Note_off_c, 13, 64, 0
13, 14682, Note_off_c, 13, 72, 0
13, 14682, Note_off_c, 13, 45, 0
13, 14688, Note_on_c, 13, 69, 36
13, 14688, Note_on_c, 13, 77, 36
13, 14688, Note_on_c, 13, 50, 36
13, 14730, Note_off_c, 13, 69, 0
13, 14730, Note_off_c, 13, 77, 0
13, 14730, Note_off_c, 13, 50, 0
13, 14736, Note_on_c, 13, 62, 36
13, 14736, Note_on_c, 13, 71, 36
13, 14736, Note_on_c, 13, 43, 36
13, 14778, Note_off_c, 13, 62, 0
13, 14778, Note_off_c, 13, 71, 0
13, 14778, Note_off_c, 13, 43, 0
13, 14784, Note_on_c, 13, 67, 36
13, 14784, Note_on_c, 13, 76, 36
13, 14784, Note_on_c, 13, 48, 36
13, 14826, Note_off_c, 13, 67, 0
13, 14826, Note_off_c, 13, 76, 0
13, 14826, Note_off_c, 13, 48, 0
13, 14832, Note_on_c, 13, 71, 36
13, 14832, Note_on_c, 13, 74, 36
13, 14832, Note_on_c, 13, 43, 36
13, 14874, Note_off_c, 13, 71, 0
13, 14874, Note_off_c, 13, 74, 0
13, 14874, Note_off_c, 13, 43, 0
13, 14880, Note_on_c, 13, 64, 36
13, 14880, Note_on_c, 13, 72, 36
13, 14880, Note_on_c, 13, 45, 36
13, 14922, Note_off_c, 13, 64, 0
13, 14922, Note_off_c, 13, 72, 0
13, 14928, Note_on_c, 13, 60, 36
13, 14928, Note_on_c, 13, 69, 36
13, 14949, Note_off_c, 13, 45, 0
13, 14952, Note_on_c, 13, 41, 36
13, 14970, Note_off_c, 13, 60, 0
13, 14970, Note_off_c, 13, 69, 0
13, 14973, Note_off_c, 13, 41, 0
13, 14976, Note_on_c, 13, 62, 36
13, 14976, Note_on_c, 13, 71, 36
13, 14976, Note_on_c, 13, 43, 36
13, 15018, Note_off_c, 13, 62, 0
13, 15018, Note_off_c, 13, 71, 0
13, 15018, Note_off_c, 13, 43, 0
13, 15024, Note_on_c, 13, 62, 36
13, 15024, Note_on_c, 13, 71, 36
13, 15024, Note_on_c, 13, 43, 36
13, 15066, Note_off_c, 13, 62, 0
13, 15066, Note_off_c, 13, 71, 0
13, 15066, Note_off_c, 13, 43, 0
13, 15072, Note_on_c, 13, 67, 36
13, 15072, Note_on_c, 13, 76, 36
13, 15072, Note_on_c, 13, 48, 36
13, 15093, Note_off_c, 13, 48, 0
13, 15096, Note_on_c, 13, 50, 36
13, 15114, Note_off_c, 13, 67, 0
13, 15114, Note_off_c, 13, 76, 0
13, 15117, Note_off_c, 13, 50, 0
13, 15120, Note_on_c, 13, 72, 36
13, 15120, Note_on_c, 13, 79, 36
13, 15120, Note_on_c, 13, 52, 36
13, 15141, Note_off_c, 13, 52, 0
13, 15144, Note_on_c, 13, 50, 36
13, 15162, Note_off_c, 13, 72, 0
13, 15162, Note_off_c, 13, 79, 0
13, 15165, Note_off_c, 13, 50, 0
13, 15168, Note_on_c, 13, 67, 36
13, 15168, Note_on_c, 13, 72, 36
13, 15168, Note_on_c, 13, 52, 36
13, 15189, Note_off_c, 13, 52, 0
13, 15192, Note_on_c, 13, 48, 36
13, 15210, Note_off_c, 13, 67, 0
13, 15210, Note_off_c, 13, 72, 0
13, 15213, Note_off_c, 13, 48, 0
13, 15216, Note_on_c, 13, 72, 36
13, 15216, Note_on_c, 13, 81, 36
13, 15216, Note_on_c, 13, 53, 36
13, 15237, Note_off_c, 13, 53, 0
13, 15240, Note_on_c, 13, 55, 36
13, 15258, Note_off_c, 13, 72, 0
13, 15258, Note_off_c, 13, 81, 0
13, 15261, Note_off_c, 13, 55, 0
13, 15264, Note_on_c, 13, 72, 36
13, 15264, Note_on_c, 13, 77, 36
13, 15264, Note_on_c, 13, 57, 36
13, 15285, Note_off_c, 13, 57, 0
13, 15288, Note_on_c, 13, 55, 36
13, 15306, Note_off_c, 13, 72, 0
13, 15306, Note_off_c, 13, 77, 0
13, 15309, Note_off_c, 13, 55, 0
13, 15312, Note_on_c, 13, 65, 36
13, 15312, Note_on_c, 13, 72, 36
13, 15312, Note_on_c, 13, 57, 36
13, 15333, Note_off_c, 13, 57, 0
13, 15336, Note_on_c, 13, 53, 36
13, 15354, Note_off_c, 13, 65, 0
13, 15354, Note_off_c, 13, 72, 0
13, 15357, Note_off_c, 13, 53, 0
13, 15360, Note_on_c, 13, 65, 36
13, 15360, Note_on_c, 13, 74, 36
13, 15360, Note_on_c, 13, 58, 36
13, 15381, Note_off_c, 13, 58, 0
13, 15384, Note_on_c, 13, 57, 36
13, 15402, Note_off_c, 13, 65, 0
13, 15402, Note_off_c, 13, 74, 0
13, 15405, Note_off_c, 13, 57, 0
13, 15408, Note_on_c, 13, 55, 36
13, 15429, Note_off_c, 13, 55, 0
13, 15432, Note_on_c, 13, 57, 36
13, 15453, Note_off_c, 13, 57, 0
13, 15456, Note_on_c, 13, 58, 36
13, 15477, Note_off_c, 13, 58, 0
13, 15480, Note_on_c, 13, 55, 36
13, 15501, Note_off_c, 13, 55, 0
13, 15504, Note_on_c, 13, 57, 36
13, 15525, Note_off_c, 13, 57, 0
13, 15528, Note_on_c, 13, 59, 36
13, 15549, Note_off_c, 13, 59, 0
13, 15552, Note_on_c, 13, 65, 36
13, 15552, Note_on_c, 13, 72, 36
13, 15552, Note_on_c, 13, 61, 36
13, 15573, Note_off_c, 13, 61, 0
13, 15576, Note_on_c, 13, 59, 36
13, 15594, Note_off_c, 13, 65, 0
13, 15594, Note_off_c, 13, 72, 0
13, 15597, Note_off_c, 13, 59, 0
13, 15600, Note_on_c, 13, 65, 36
13, 15600, Note_on_c, 13, 72, 36
13, 15600, Note_on_c, 13, 61, 36
13, 15621, Note_off_c, 13, 61, 0
13, 15624, Note_on_c, 13, 57, 36
13, 15642, Note_off_c, 13, 65, 0
13, 15642, Note_off_c, 13, 72, 0
13, 15645, Note_off_c, 13, 57, 0
13, 15648, Note_on_c, 13, 65, 36
13, 15648, Note_on_c, 13, 81, 36
13, 15648, Note_on_c, 13, 62, 36
13, 15690, Note_off_c, 13, 65, 0
13, 15690, Note_off_c, 13, 81, 0
13, 15690, Note_off_c, 13, 62, 0
13, 15696, Note_on_c, 13, 50, 36
13, 15738, Note_off_c, 13, 50, 0
13, 15744, Note_on_c, 13, 52, 36
13, 15786, Note_off_c, 13, 52, 0
13, 15792, Note_on_c, 13, 53, 36
13, 15834, Note_off_c, 13, 53, 0
13, 15840, Note_on_c, 13, 52, 36
13, 15882, Note_off_c, 13, 52, 0
13, 15888, Note_on_c, 13, 50, 36
13, 15930, Note_off_c, 13, 50, 0
13, 15936, Note_on_c, 13, 48, 36
13, 15978, Note_off_c, 13, 48, 0
13, 15984, Note_on_c, 13, 60, 36
13, 16026, Note_off_c, 13, 60, 0
13, 16032, Note_on_c, 13, 62, 36
13, 16074, Note_off_c, 13, 62, 0
13, 16080, Note_on_c, 13, 64, 36
13, 16122, Note_off_c, 13, 64, 0
13, 16128, Note_on_c, 13, 62, 36
13, 16149, Note_off_c, 13, 62, 0
13, 16152, Note_on_c, 13, 60, 36
13, 16173, Note_off_c, 13, 60, 0
13, 16176, Note_on_c, 13, 59, 36
13, 16197, Note_off_c, 13, 59, 0
13, 16200, Note_on_c, 13, 55, 36
13, 16221, Note_off_c, 13, 55, 0
13, 16224, Note_on_c, 13, 56, 36
13, 16266, Note_off_c, 13, 56, 0
13, 16272, Note_on_c, 13, 52, 36
13, 16314, Note_off_c, 13, 52, 0
13, 16320, Note_on_c, 13, 56, 36
13, 16362, Note_off_c, 13, 56, 0
13, 16368, Note_on_c, 13, 57, 36
13, 16410, Note_off_c, 13, 57, 0
13, 16416, Note_on_c, 13, 45, 36
13, 16458, Note_off_c, 13, 45, 0
13, 16464, Note_on_c, 13, 48, 36
13, 16506, Note_off_c, 13, 48, 0
13, 16512, Note_on_c, 13, 50, 36
13, 16533, Note_off_c, 13, 50, 0
13, 16536, Note_on_c, 13, 52, 36
13, 16557, Note_off_c, 13, 52, 0
13, 16560, Note_on_c, 13, 53, 36
13, 16581, Note_off_c, 13, 53, 0
13, 16584, Note_on_c, 13, 50, 36
13, 16605, Note_off_c, 13, 50, 0
13, 16608, Note_on_c, 13, 48, 36
13, 16629, Note_off_c, 13, 48, 0
13, 16632, Note_on_c, 13, 47, 36
13, 16653, Note_off_c, 13, 47, 0
13, 16656, Note_on_c, 13, 48, 36
13, 16677, Note_off_c, 13, 48, 0
13, 16680, Note_on_c, 13, 50, 36
13, 16701, Note_off_c, 13, 50, 0
13, 16704, Note_on_c, 13, 52, 36
13, 16725, Note_off_c, 13, 52, 0
13, 16728, Note_on_c, 13, 48, 36
13, 16749, Note_off_c, 13, 48, 0
13, 16752, Note_on_c, 13, 47, 36
13, 16773, Note_off_c, 13, 47, 0
13, 16776, Note_on_c, 13, 45, 36
13, 16797, Note_off_c, 13, 45, 0
13, 16800, Note_on_c, 13, 47, 36
13, 16821, Note_off_c, 13, 47, 0
13, 16824, Note_on_c, 13, 48, 36
13, 16845, Note_off_c, 13, 48, 0
13, 16848, Note_on_c, 13, 50, 36
13, 16869, Note_off_c, 13, 50, 0
13, 16872, Note_on_c, 13, 47, 36
13, 16893, Note_off_c, 13, 47, 0
13, 16896, Note_on_c, 13, 45, 36
13, 16917, Note_off_c, 13, 45, 0
13, 16920, Note_on_c, 13, 44, 36
13, 16941, Note_off_c, 13, 44, 0
13, 16944, Note_on_c, 13, 45, 36
13, 16965, Note_off_c, 13, 45, 0
13, 16968, Note_on_c, 13, 50, 36
13, 16989, Note_off_c, 13, 50, 0
13, 16992, Note_on_c, 13, 52, 36
13, 17034, Note_off_c, 13, 52, 0
13, 17040, Note_on_c, 13, 40, 36
13, 17082, Note_off_c, 13, 40, 0
13, 17088, Note_on_c, 13, 45, 36
13, 17109, Note_off_c, 13, 45, 0
13, 17112, Note_on_c, 13, 47, 36
13, 17133, Note_off_c, 13, 47, 0
13, 17136, Note_on_c, 13, 48, 36
13, 17157, Note_off_c, 13, 48, 0
13, 17160, Note_on_c, 13, 47, 36
13, 17181, Note_off_c, 13, 47, 0
13, 17184, Note_on_c, 13, 48, 36
13, 17205, Note_off_c, 13, 48, 0
13, 17208, Note_on_c, 13, 45, 36
13, 17229, Note_off_c, 13, 45, 0
13, 17232, Note_on_c, 13, 50, 36
13, 17253, Note_off_c, 13, 50, 0
13, 17256, Note_on_c, 13, 52, 36
13, 17277, Note_off_c, 13, 52, 0
13, 17280, Note_on_c, 13, 69, 36
13, 17280, Note_on_c, 13, 74, 36
13, 17280, Note_on_c, 13, 53, 36
13, 17301, Note_off_c, 13, 53, 0
13, 17304, Note_on_c, 13, 52, 36
13, 17322, Note_off_c, 13, 69, 0
13, 17322, Note_off_c, 13, 74, 0
13, 17325, Note_off_c, 13, 52, 0
13, 17328, Note_on_c, 13, 69, 36
13, 17328, Note_on_c, 13, 74, 36
13, 17328, Note_on_c, 13, 53, 36
13, 17349, Note_off_c, 13, 53, 0
13, 17352, Note_on_c, 13, 50, 36
13, 17370, Note_off_c, 13, 69, 0
13, 17370, Note_off_c, 13, 74, 0
13, 17373, Note_off_c, 13, 50, 0
13, 17376, Note_on_c, 13, 71, 36
13, 17376, Note_on_c, 13, 74, 36
13, 17376, Note_on_c, 13, 43, 36
13, 17397, Note_off_c, 13, 43, 0
13, 17400, Note_on_c, 13, 45, 36
13, 17418, Note_off_c, 13, 71, 0
13, 17418, Note_off_c, 13, 74, 0
13, 17421, Note_off_c, 13, 45, 0
13, 17424, Note_on_c, 13, 74, 36
13, 17424, Note_on_c, 13, 79, 36
13, 17424, Note_on_c, 13, 47, 36
13, 17445, Note_off_c, 13, 47, 0
13, 17448, Note_on_c, 13, 45, 36
13, 17466, Note_off_c, 13, 74, 0
13, 17466, Note_off_c, 13, 79, 0
13, 17469, Note_off_c, 13, 45, 0
13, 17472, Note_on_c, 13, 74, 36
13, 17472, Note_on_c, 13, 79, 36
13, 17472, Note_on_c, 13, 47, 36
13, 17493, Note_off_c, 13, 47, 0
13, 17496, Note_on_c, 13, 43, 36
13, 17514, Note_off_c, 13, 74, 0
13, 17514, Note_off_c, 13, 79, 0
13, 17517, Note_off_c, 13, 43, 0
13, 17520, Note_on_c, 13, 67, 36
13, 17520, Note_on_c, 13, 76, 36
13, 17520, Note_on_c, 13, 48, 36
13, 17541, Note_off_c, 13, 48, 0
13, 17544, Note_on_c, 13, 50, 36
13, 17562, Note_off_c, 13, 67, 0
13, 17562, Note_off_c, 13, 76, 0
13, 17565, Note_off_c, 13, 50, 0
13, 17568, Note_on_c, 13, 60, 36
13, 17568, Note_on_c, 13, 67, 36
13, 17568, Note_on_c, 13, 52, 36
13, 17589, Note_off_c, 13, 52, 0
13, 17592, Note_on_c, 13, 50, 36
13, 17610, Note_off_c, 13, 60, 0
13, 17610, Note_off_c, 13, 67, 0
13, 17613, Note_off_c, 13, 50, 0
13, 17616, Note_on_c, 13, 60, 36
13, 17616, Note_on_c, 13, 67, 36
13, 17616, Note_on_c, 13, 52, 36
13, 17637, Note_off_c, 13, 52, 0
13, 17640, Note_on_c, 13, 48, 36
13, 17658, Note_off_c, 13, 60, 0
13, 17658, Note_off_c, 13, 67, 0
13, 17661, Note_off_c, 13, 48, 0
13, 17664, Note_on_c, 13, 62, 36
13, 17664, Note_on_c, 13, 69, 36
13, 17664, Note_on_c, 13, 53, 36
13, 17685, Note_off_c, 13, 53, 0
13, 17688, Note_on_c, 13, 55, 36
13, 17706, Note_off_c, 13, 62, 0
13, 17706, Note_off_c, 13, 69, 0
13, 17709, Note_off_c, 13, 55, 0
13, 17712, Note_on_c, 13, 57, 36
13, 17733, Note_off_c, 13, 57, 0
13, 17736, Note_on_c, 13, 55, 36
13, 17757, Note_off_c, 13, 55, 0
13, 17760, Note_on_c, 13, 57, 36
13, 17781, Note_off_c, 13, 57, 0
13, 17784, Note_on_c, 13, 53, 36
13, 17805, Note_off_c, 13, 53, 0
13, 17808, Note_on_c, 13, 59, 36
13, 17850, Note_off_c, 13, 59, 0
13, 17856, Note_on_c, 13, 52, 36
13, 17898, Note_off_c, 13, 52, 0
13, 17904, Note_on_c, 13, 57, 36
13, 17946, Note_off_c, 13, 57, 0
13, 17952, Note_on_c, 13, 50, 75
13, 17994, Note_off_c, 13, 50, 0
13, 18000, Note_on_c, 13, 52, 75
13, 18042, Note_off_c, 13, 52, 0
13, 18048, Note_on_c, 13, 40, 75
13, 18090, Note_off_c, 13, 40, 0
13, 18096, Note_on_c, 13, 45, 75
13, 18138, Note_off_c, 13, 45, 0
13, 18144, Note_on_c, 13, 60, 75
13, 18144, Note_on_c, 13, 69, 75
13, 18144, Note_on_c, 13, 52, 75
13, 18186, Note_off_c, 13, 60, 0
13, 18186, Note_off_c, 13, 69, 0
13, 18186, Note_off_c, 13, 52, 0
13, 18192, Note_on_c, 13, 64, 75
13, 18192, Note_on_c, 13, 72, 75
13, 18192, Note_on_c, 13, 57, 75
13, 18234, Note_off_c, 13, 64, 0
13, 18234, Note_off_c, 13, 72, 0
13, 18234, Note_off_c, 13, 57, 0
13, 18240, Note_on_c, 13, 68, 75
13, 18240, Note_on_c, 13, 74, 75
13, 18240, Note_on_c, 13, 47, 75
13, 18282, Note_off_c, 13, 68, 0
13, 18282, Note_off_c, 13, 74, 0
13, 18282, Note_off_c, 13, 47, 0
13, 18288, Note_on_c, 13, 71, 75
13, 18288, Note_on_c, 13, 80, 75
13, 18288, Note_on_c, 13, 50, 75
13, 18330, Note_off_c, 13, 71, 0
13, 18330, Note_off_c, 13, 80, 0
13, 18330, Note_off_c, 13, 50, 0
13, 18336, Note_on_c, 13, 71, 75
13, 18336, Note_on_c, 13, 74, 75
13, 18336, Note_on_c, 13, 56, 75
13, 18378, Note_off_c, 13, 71, 0
13, 18378, Note_off_c, 13, 74, 0
13, 18378, Note_off_c, 13, 56, 0
13, 18384, Note_on_c, 13, 65, 75
13, 18384, Note_on_c, 13, 74, 75
13, 18384, Note_on_c, 13, 45, 75
13, 18426, Note_off_c, 13, 65, 0
13, 18426, Note_off_c, 13, 74, 0
13, 18426, Note_off_c, 13, 45, 0
13, 18432, Note_on_c, 13, 65, 75
13, 18432, Note_on_c, 13, 71, 75
13, 18432, Note_on_c, 13, 50, 75
13, 18474, Note_off_c, 13, 65, 0
13, 18474, Note_off_c, 13, 71, 0
13, 18474, Note_off_c, 13, 50, 0
13, 18480, Note_on_c, 13, 65, 75
13, 18480, Note_on_c, 13, 74, 75
13, 18480, Note_on_c, 13, 57, 75
13, 18522, Note_off_c, 13, 65, 0
13, 18522, Note_off_c, 13, 74, 0
13, 18522, Note_off_c, 13, 57, 0
13, 18528, Note_on_c, 13, 64, 75
13, 18528, Note_on_c, 13, 71, 75
13, 18528, Note_on_c, 13, 44, 75
13, 18570, Note_off_c, 13, 64, 0
13, 18570, Note_off_c, 13, 71, 0
13, 18570, Note_off_c, 13, 44, 0
13, 18576, Note_on_c, 13, 62, 75
13, 18576, Note_on_c, 13, 71, 75
13, 18576, Note_on_c, 13, 50, 75
13, 18618, Note_off_c, 13, 62, 0
13, 18618, Note_off_c, 13, 71, 0
13, 18618, Note_off_c, 13, 50, 0
13, 18624, Note_on_c, 13, 71, 75
13, 18624, Note_on_c, 13, 74, 75
13, 18624, Note_on_c, 13, 59, 75
13, 18666, Note_off_c, 13, 71, 0
13, 18666, Note_off_c, 13, 74, 0
13, 18666, Note_off_c, 13, 59, 0
13, 18672, Note_on_c, 13, 71, 75
13, 18672, Note_on_c, 13, 74, 75
13, 18672, Note_on_c, 13, 56, 75
13, 18714, Note_off_c, 13, 71, 0
13, 18714, Note_off_c, 13, 74, 0
13, 18714, Note_off_c, 13, 56, 0
13, 18720, Note_on_c, 13, 68, 75
13, 18720, Note_on_c, 13, 71, 75
13, 18720, Note_on_c, 13, 52, 75
13, 18762, Note_off_c, 13, 68, 0
13, 18762, Note_off_c, 13, 71, 0
13, 18762, Note_off_c, 13, 52, 0
13, 18768, Note_on_c, 13, 69, 75
13, 18768, Note_on_c, 13, 72, 75
13, 18768, Note_on_c, 13, 40, 75
13, 18810, Note_off_c, 13, 69, 0
13, 18810, Note_off_c, 13, 72, 0
13, 18810, Note_off_c, 13, 40, 0
13, 18816, Note_on_c, 13, 64, 75
13, 18816, Note_on_c, 13, 72, 75
13, 18816, Note_on_c, 13, 45, 75
13, 18858, Note_off_c, 13, 64, 0
13, 18858, Note_off_c, 13, 72, 0
13, 18858, Note_off_c, 13, 45, 0
13, 18864, Note_on_c, 13, 69, 75
13, 18864, Note_on_c, 13, 72, 75
13, 18864, Note_on_c, 13, 52, 75
13, 18906, Note_off_c, 13, 69, 0
13, 18906, Note_off_c, 13, 72, 0
13, 18906, Note_off_c, 13, 52, 0
13, 18912, Note_on_c, 13, 64, 75
13, 18912, Note_on_c, 13, 72, 75
13, 18912, Note_on_c, 13, 57, 75
13, 18954, Note_off_c, 13, 64, 0
13, 18954, Note_off_c, 13, 72, 0
13, 18954, Note_off_c, 13, 57, 0
13, 18960, Note_on_c, 13, 64, 75
13, 18960, Note_on_c, 13, 72, 75
13, 18960, Note_on_c, 13, 43, 75
13, 19002, Note_off_c, 13, 64, 0
13, 19002, Note_off_c, 13, 72, 0
13, 19002, Note_off_c, 13, 43, 0
13, 19008, Note_on_c, 13, 69, 75
13, 19008, Note_on_c, 13, 72, 75
13, 19008, Note_on_c, 13, 52, 75
13, 19050, Note_off_c, 13, 69, 0
13, 19050, Note_off_c, 13, 72, 0
13, 19050, Note_off_c, 13, 52, 0
13, 19056, Note_on_c, 13, 64, 75
13, 19056, Note_on_c, 13, 72, 75
13, 19056, Note_on_c, 13, 57, 75
13, 19098, Note_off_c, 13, 64, 0
13, 19098, Note_off_c, 13, 72, 0
13, 19098, Note_off_c, 13, 57, 0
13, 19104, Note_on_c, 13, 60, 75
13, 19104, Note_on_c, 13, 69, 75
13, 19104, Note_on_c, 13, 41, 75
13, 19146, Note_off_c, 13, 60, 0
13, 19146, Note_off_c, 13, 69, 0
13, 19146, Note_off_c, 13, 41, 0
13, 19152, Note_on_c, 13, 69, 75
13, 19152, Note_on_c, 13, 72, 75
13, 19152, Note_on_c, 13, 53, 75
13, 19194, Note_off_c, 13, 69, 0
13, 19194, Note_off_c, 13, 72, 0
13, 19194, Note_off_c, 13, 53, 0
13, 19200, Note_on_c, 13, 69, 75
13, 19200, Note_on_c, 13, 77, 75
13, 19200, Note_on_c, 13, 48, 75
13, 19242, Note_off_c, 13, 69, 0
13, 19242, Note_off_c, 13, 77, 0
13, 19242, Note_off_c, 13, 48, 0
13, 19248, Note_on_c, 13, 69, 75
13, 19248, Note_on_c, 13, 77, 75
13, 19248, Note_on_c, 13, 50, 75
13, 19290, Note_off_c, 13, 69, 0
13, 19290, Note_off_c, 13, 77, 0
13, 19290, Note_off_c, 13, 50, 0
13, 19296, Note_on_c, 13, 69, 75
13, 19296, Note_on_c, 13, 72, 75
13, 19296, Note_on_c, 13, 53, 75
13, 19338, Note_off_c, 13, 69, 0
13, 19338, Note_off_c, 13, 72, 0
13, 19338, Note_off_c, 13, 53, 0
13, 19344, Note_on_c, 13, 68, 75
13, 19344, Note_on_c, 13, 74, 75
13, 19344, Note_on_c, 13, 47, 75
13, 19386, Note_off_c, 13, 68, 0
13, 19386, Note_off_c, 13, 74, 0
13, 19386, Note_off_c, 13, 47, 0
13, 19392, Note_on_c, 13, 68, 75
13, 19392, Note_on_c, 13, 71, 75
13, 19392, Note_on_c, 13, 40, 75
13, 19434, Note_off_c, 13, 68, 0
13, 19434, Note_off_c, 13, 71, 0
13, 19434, Note_off_c, 13, 40, 0
13, 19440, Note_on_c, 13, 44, 75
13, 19482, Note_off_c, 13, 44, 0
13, 19488, Note_on_c, 13, 47, 75
13, 19530, Note_off_c, 13, 47, 0
13, 19536, Note_on_c, 13, 52, 75
13, 19578, Note_off_c, 13, 52, 0
13, 19584, Note_on_c, 13, 56, 75
13, 19626, Note_off_c, 13, 56, 0
13, 19632, Note_on_c, 13, 52, 75
13, 19674, Note_off_c, 13, 52, 0
13, 19680, Note_on_c, 13, 57, 75
13, 19701, Note_off_c, 13, 57, 0
13, 19704, Note_on_c, 13, 56, 75
13, 19725, Note_off_c, 13, 56, 0
13, 19728, Note_on_c, 13, 57, 75
13, 19749, Note_off_c, 13, 57, 0
13, 19752, Note_on_c, 13, 52, 75
13, 19773, Note_off_c, 13, 52, 0
13, 19776, Note_on_c, 13, 53, 75
13, 19845, Note_off_c, 13, 53, 0
13, 19848, Note_on_c, 13, 50, 75
13, 19869, Note_off_c, 13, 50, 0
13, 19872, Note_on_c, 13, 52, 75
13, 19914, Note_off_c, 13, 52, 0
13, 19920, Note_on_c, 13, 40, 75
13, 19962, Note_off_c, 13, 40, 0
13, 19968, Note_on_c, 13, 45, 49
13, 19989, Note_off_c, 13, 45, 0
13, 19992, Note_on_c, 13, 47, 49
13, 20013, Note_off_c, 13, 47, 0
13, 20016, Note_on_c, 13, 69, 49
13, 20016, Note_on_c, 13, 76, 49
13, 20016, Note_on_c, 13, 48, 49
13, 20037, Note_off_c, 13, 48, 0
13, 20040, Note_on_c, 13, 47, 49
13, 20058, Note_off_c, 13, 69, 0
13, 20058, Note_off_c, 13, 76, 0
13, 20061, Note_off_c, 13, 47, 0
13, 20064, Note_on_c, 13, 69, 49
13, 20064, Note_on_c, 13, 76, 49
13, 20064, Note_on_c, 13, 48, 49
13, 20085, Note_off_c, 13, 48, 0
13, 20088, Note_on_c, 13, 45, 49
13, 20106, Note_off_c, 13, 69, 0
13, 20106, Note_off_c, 13, 76, 0
13, 20109, Note_off_c, 13, 45, 0
13, 20112, Note_on_c, 13, 69, 49
13, 20112, Note_on_c, 13, 77, 49
13, 20112, Note_on_c, 13, 50, 49
13, 20133, Note_off_c, 13, 50, 0
13, 20136, Note_on_c, 13, 52, 49
13, 20154, Note_off_c, 13, 69, 0
13, 20154, Note_off_c, 13, 77, 0
13, 20157, Note_off_c, 13, 52, 0
13, 20160, Note_on_c, 13, 69, 49
13, 20160, Note_on_c, 13, 74, 49
13, 20160, Note_on_c, 13, 53, 49
13, 20181, Note_off_c, 13, 53, 0
13, 20184, Note_on_c, 13, 52, 49
13, 20202, Note_off_c, 13, 69, 0
13, 20202, Note_off_c, 13, 74, 0
13, 20205, Note_off_c, 13, 52, 0
13, 20208, Note_on_c, 13, 69, 49
13, 20208, Note_on_c, 13, 74, 49
13, 20208, Note_on_c, 13, 53, 49
13, 20229, Note_off_c, 13, 53, 0
13, 20232, Note_on_c, 13, 50, 49
13, 20250, Note_off_c, 13, 69, 0
13, 20250, Note_off_c, 13, 74, 0
13, 20253, Note_off_c, 13, 50, 0
13, 20256, Note_on_c, 13, 62, 49
13, 20256, Note_on_c, 13, 70, 49
13, 20256, Note_on_c, 13, 43, 49
13, 20277, Note_off_c, 13, 43, 0
13, 20280, Note_on_c, 13, 45, 49
13, 20298, Note_off_c, 13, 62, 0
13, 20298, Note_off_c, 13, 70, 0
13, 20301, Note_off_c, 13, 45, 0
13, 20304, Note_on_c, 13, 62, 49
13, 20304, Note_on_c, 13, 67, 49
13, 20304, Note_on_c, 13, 46, 49
13, 20325, Note_off_c, 13, 46, 0
13, 20328, Note_on_c, 13, 45, 49
13, 20346, Note_off_c, 13, 62, 0
13, 20346, Note_off_c, 13, 67, 0
13, 20349, Note_off_c, 13, 45, 0
13, 20352, Note_on_c, 13, 62, 49
13, 20352, Note_on_c, 13, 67, 49
13, 20352, Note_on_c, 13, 46, 49
13, 20373, Note_off_c, 13, 46, 0
13, 20376, Note_on_c, 13, 43, 49
13, 20394, Note_off_c, 13, 62, 0
13, 20394, Note_off_c, 13, 67, 0
13, 20397, Note_off_c, 13, 43, 0
13, 20400, Note_on_c, 13, 67, 49
13, 20400, Note_on_c, 13, 76, 49
13, 20400, Note_on_c, 13, 48, 49
13, 20421, Note_off_c, 13, 48, 0
13, 20424, Note_on_c, 13, 50, 49
13, 20442, Note_off_c, 13, 67, 0
13, 20442, Note_off_c, 13, 76, 0
13, 20445, Note_off_c, 13, 50, 0
13, 20448, Note_on_c, 13, 60, 49
13, 20448, Note_on_c, 13, 67, 49
13, 20448, Note_on_c, 13, 52, 49
13, 20469, Note_off_c, 13, 52, 0
13, 20472, Note_on_c, 13, 50, 49
13, 20490, Note_off_c, 13, 60, 0
13, 20490, Note_off_c, 13, 67, 0
13, 20493, Note_off_c, 13, 50, 0
13, 20496, Note_on_c, 13, 60, 49
13, 20496, Note_on_c, 13, 67, 49
13, 20496, Note_on_c, 13, 52, 49
13, 20517, Note_off_c, 13, 52, 0
13, 20520, Note_on_c, 13, 48, 49
13, 20538, Note_off_c, 13, 60, 0
13, 20538, Note_off_c, 13, 67, 0
13, 20541, Note_off_c, 13, 48, 0
13, 20544, Note_on_c, 13, 60, 49
13, 20544, Note_on_c, 13, 69, 49
13, 20544, Note_on_c, 13, 41, 49
13, 20565, Note_off_c, 13, 41, 0
13, 20568, Note_on_c, 13, 43, 49
13, 20586, Note_off_c, 13, 60, 0
13, 20586, Note_off_c, 13, 69, 0
13, 20589, Note_off_c, 13, 43, 0
13, 20592, Note_on_c, 13, 60, 49
13, 20592, Note_on_c, 13, 69, 49
13, 20592, Note_on_c, 13, 45, 49
13, 20613, Note_off_c, 13, 45, 0
13, 20616, Note_on_c, 13, 43, 49
13, 20634, Note_off_c, 13, 60, 0
13, 20634, Note_off_c, 13, 69, 0
13, 20637, Note_off_c, 13, 43, 0
13, 20640, Note_on_c, 13, 63, 49
13, 20640, Note_on_c, 13, 69, 49
13, 20640, Note_on_c, 13, 41, 49
13, 20661, Note_off_c, 13, 41, 0
13, 20664, Note_on_c, 13, 39, 49
13, 20682, Note_off_c, 13, 63, 0
13, 20682, Note_off_c, 13, 69, 0
13, 20685, Note_off_c, 13, 39, 0
13, 20688, Note_on_c, 13, 65, 49
13, 20688, Note_on_c, 13, 69, 49
13, 20688, Note_on_c, 13, 38, 49
13, 20709, Note_off_c, 13, 38, 0
13, 20712, Note_on_c, 13, 39, 49
13, 20730, Note_off_c, 13, 65, 0
13, 20730, Note_off_c, 13, 69, 0
13, 20733, Note_off_c, 13, 39, 0
13, 20736, Note_on_c, 13, 62, 49
13, 20736, Note_on_c, 13, 69, 49
13, 20736, Note_on_c, 13, 41, 49
13, 20757, Note_off_c, 13, 41, 0
13, 20760, Note_on_c, 13, 39, 49
13, 20778, Note_off_c, 13, 62, 0
13, 20778, Note_off_c, 13, 69, 0
13, 20781, Note_off_c, 13, 39, 0
13, 20784, Note_on_c, 13, 62, 49
13, 20784, Note_on_c, 13, 69, 49
13, 20784, Note_on_c, 13, 41, 49
13, 20805, Note_off_c, 13, 41, 0
13, 20808, Note_on_c, 13, 38, 49
13, 20826, Note_off_c, 13, 62, 0
13, 20826, Note_off_c, 13, 69, 0
13, 20829, Note_off_c, 13, 38, 0
13, 20832, Note_on_c, 13, 62, 49
13, 20832, Note_on_c, 13, 70, 49
13, 20832, Note_on_c, 13, 43, 49
13, 20853, Note_off_c, 13, 43, 0
13, 20856, Note_on_c, 13, 45, 49
13, 20874, Note_off_c, 13, 62, 0
13, 20874, Note_off_c, 13, 70, 0
13, 20877, Note_off_c, 13, 45, 0
13, 20880, Note_on_c, 13, 70, 49
13, 20880, Note_on_c, 13, 74, 49
13, 20880, Note_on_c, 13, 46, 49
13, 20901, Note_off_c, 13, 46, 0
13, 20904, Note_on_c, 13, 45, 49
13, 20922, Note_off_c, 13, 70, 0
13, 20922, Note_off_c, 13, 74, 0
13, 20925, Note_off_c, 13, 45, 0
13, 20928, Note_on_c, 13, 67, 49
13, 20928, Note_on_c, 13, 74, 49
13, 20928, Note_on_c, 13, 46, 49
13, 20949, Note_off_c, 13, 46, 0
13, 20952, Note_on_c, 13, 43, 49
13, 20970, Note_off_c, 13, 67, 0
13, 20970, Note_off_c, 13, 74, 0
13, 20973, Note_off_c, 13, 43, 0
13, 20976, Note_on_c, 13, 72, 49
13, 20976, Note_on_c, 13, 75, 49
13, 20976, Note_on_c, 13, 48, 49
13, 20997, Note_off_c, 13, 48, 0
13, 21000, Note_on_c, 13, 50, 49
13, 21018, Note_off_c, 13, 72, 0
13, 21018, Note_off_c, 13, 75, 0
13, 21021, Note_off_c, 13, 50, 0
13, 21024, Note_on_c, 13, 67, 49
13, 21024, Note_on_c, 13, 72, 49
13, 21024, Note_on_c, 13, 51, 49
13, 21045, Note_off_c, 13, 51, 0
13, 21048, Note_on_c, 13, 50, 49
13, 21066, Note_off_c, 13, 67, 0
13, 21066, Note_off_c, 13, 72, 0
13, 21069, Note_off_c, 13, 50, 0
13, 21072, Note_on_c, 13, 67, 49
13, 21072, Note_on_c, 13, 72, 49
13, 21072, Note_on_c, 13, 51, 49
13, 21093, Note_off_c, 13, 51, 0
13, 21096, Note_on_c, 13, 48, 49
13, 21114, Note_off_c, 13, 67, 0
13, 21114, Note_off_c, 13, 72, 0
13, 21117, Note_off_c, 13, 48, 0
13, 21120, Note_on_c, 13, 69, 49
13, 21120, Note_on_c, 13, 72, 49
13, 21120, Note_on_c, 13, 53, 49
13, 21141, Note_off_c, 13, 53, 0
13, 21144, Note_on_c, 13, 55, 49
13, 21162, Note_off_c, 13, 69, 0
13, 21162, Note_off_c, 13, 72, 0
13, 21165, Note_off_c, 13, 55, 0
13, 21168, Note_on_c, 13, 65, 49
13, 21168, Note_on_c, 13, 72, 49
13, 21168, Note_on_c, 13, 57, 49
13, 21189, Note_off_c, 13, 57, 0
13, 21192, Note_on_c, 13, 55, 49
13, 21210, Note_off_c, 13, 65, 0
13, 21210, Note_off_c, 13, 72, 0
13, 21213, Note_off_c, 13, 55, 0
13, 21216, Note_on_c, 13, 65, 49
13, 21216, Note_on_c, 13, 72, 49
13, 21216, Note_on_c, 13, 57, 49
13, 21237, Note_off_c, 13, 57, 0
13, 21240, Note_on_c, 13, 53, 49
13, 21258, Note_off_c, 13, 65, 0
13, 21258, Note_off_c, 13, 72, 0
13, 21261, Note_off_c, 13, 53, 0
13, 21264, Note_on_c, 13, 65, 49
13, 21264, Note_on_c, 13, 74, 49
13, 21264, Note_on_c, 13, 58, 49
13, 21285, Note_off_c, 13, 58, 0
13, 21288, Note_on_c, 13, 60, 49
13, 21306, Note_off_c, 13, 65, 0
13, 21306, Note_off_c, 13, 74, 0
13, 21309, Note_off_c, 13, 60, 0
13, 21312, Note_on_c, 13, 65, 49
13, 21312, Note_on_c, 13, 70, 49
13, 21312, Note_on_c, 13, 62, 49
13, 21333, Note_off_c, 13, 62, 0
13, 21336, Note_on_c, 13, 60, 49
13, 21354, Note_off_c, 13, 65, 0
13, 21354, Note_off_c, 13, 70, 0
13, 21357, Note_off_c, 13, 60, 0
13, 21360, Note_on_c, 13, 65, 49
13, 21360, Note_on_c, 13, 70, 49
13, 21360, Note_on_c, 13, 62, 49
13, 21381, Note_off_c, 13, 62, 0
13, 21384, Note_on_c, 13, 58, 49
13, 21402, Note_off_c, 13, 65, 0
13, 21402, Note_off_c, 13, 70, 0
13, 21405, Note_off_c, 13, 58, 0
13, 21408, Note_on_c, 13, 67, 49
13, 21408, Note_on_c, 13, 75, 49
13, 21408, Note_on_c, 13, 60, 49
13, 21450, Note_off_c, 13, 67, 0
13, 21450, Note_off_c, 13, 75, 0
13, 21450, Note_off_c, 13, 60, 0
13, 21456, Note_on_c, 13, 48, 49
13, 21498, Note_off_c, 13, 48, 0
13, 21504, Note_on_c, 13, 50, 49
13, 21546, Note_off_c, 13, 50, 0
13, 21552, Note_on_c, 13, 51, 49
13, 21594, Note_off_c, 13, 51, 0
13, 21600, Note_on_c, 13, 50, 49
13, 21642, Note_off_c, 13, 50, 0
13, 21648, Note_on_c, 13, 48, 49
13, 21690, Note_off_c, 13, 48, 0
13, 21696, Note_on_c, 13, 46, 49
13, 21738, Note_off_c, 13, 46, 0
13, 21744, Note_on_c, 13, 58, 49
13, 21786, Note_off_c, 13, 58, 0
13, 21792, Note_on_c, 13, 60, 49
13, 21834, Note_off_c, 13, 60, 0
13, 21840, Note_on_c, 13, 62, 49
13, 21882, Note_off_c, 13, 62, 0
13, 21888, Note_on_c, 13, 60, 49
13, 21909, Note_off_c, 13, 60, 0
13, 21912, Note_on_c, 13, 58, 49
13, 21933, Note_off_c, 13, 58, 0
13, 21936, Note_on_c, 13, 57, 49
13, 21957, Note_off_c, 13, 57, 0
13, 21960, Note_on_c, 13, 55, 49
13, 21981, Note_off_c, 13, 55, 0
13, 21984, Note_on_c, 13, 54, 49
13, 22026, Note_off_c, 13, 54, 0
13, 22032, Note_on_c, 13, 50, 49
13, 22074, Note_off_c, 13, 50, 0
13, 22080, Note_on_c, 13, 54, 49
13, 22122, Note_off_c, 13, 54, 0
13, 22128, Note_on_c, 13, 55, 49
13, 22170, Note_off_c, 13, 55, 0
13, 22176, Note_on_c, 13, 43, 49
13, 22218, Note_off_c, 13, 43, 0
13, 22224, Note_on_c, 13, 46, 49
13, 22266, Note_off_c, 13, 46, 0
13, 22272, Note_on_c, 13, 48, 49
13, 22293, Note_off_c, 13, 48, 0
13, 22296, Note_on_c, 13, 50, 49
13, 22317, Note_off_c, 13, 50, 0
13, 22320, Note_on_c, 13, 51, 49
13, 22341, Note_off_c, 13, 51, 0
13, 22344, Note_on_c, 13, 48, 49
13, 22365, Note_off_c, 13, 48, 0
13, 22368, Note_on_c, 13, 46, 49
13, 22389, Note_off_c, 13, 46, 0
13, 22392, Note_on_c, 13, 45, 49
13, 22413, Note_off_c, 13, 45, 0
13, 22416, Note_on_c, 13, 46, 49
13, 22437, Note_off_c, 13, 46, 0
13, 22440, Note_on_c, 13, 48, 49
13, 22461, Note_off_c, 13, 48, 0
13, 22464, Note_on_c, 13, 50, 49
13, 22485, Note_off_c, 13, 50, 0
13, 22488, Note_on_c, 13, 46, 49
13, 22509, Note_off_c, 13, 46, 0
13, 22512, Note_on_c, 13, 45, 49
13, 22533, Note_off_c, 13, 45, 0
13, 22536, Note_on_c, 13, 43, 49
13, 22557, Note_off_c, 13, 43, 0
13, 22560, Note_on_c, 13, 45, 49
13, 22581, Note_off_c, 13, 45, 0
13, 22584, Note_on_c, 13, 46, 49
13, 22605, Note_off_c, 13, 46, 0
13, 22608, Note_on_c, 13, 48, 49
13, 22629, Note_off_c, 13, 48, 0
13, 22632, Note_on_c, 13, 45, 49
13, 22653, Note_off_c, 13, 45, 0
13, 22656, Note_on_c, 13, 43, 49
13, 22677, Note_off_c, 13, 43, 0
13, 22680, Note_on_c, 13, 42, 49
13, 22701, Note_off_c, 13, 42, 0
13, 22704, Note_on_c, 13, 43, 49
13, 22725, Note_off_c, 13, 43, 0
13, 22728, Note_on_c, 13, 48, 49
13, 22749, Note_off_c, 13, 48, 0
13, 22752, Note_on_c, 13, 50, 49
13, 22794, Note_off_c, 13, 50, 0
13, 22800, Note_on_c, 13, 38, 49
13, 22842, Note_off_c, 13, 38, 0
13, 22848, Note_on_c, 13, 43, 49
13, 22869, Note_off_c, 13, 43, 0
13, 22872, Note_on_c, 13, 45, 49
13, 22893, Note_off_c, 13, 45, 0
13, 22896, Note_on_c, 13, 62, 49
13, 22896, Note_on_c, 13, 70, 49
13, 22896, Note_on_c, 13, 46, 49
13, 22917, Note_off_c, 13, 46, 0
13, 22920, Note_on_c, 13, 45, 49
13, 22938, Note_off_c, 13, 62, 0
13, 22938, Note_off_c, 13, 70, 0
13, 22941, Note_off_c, 13, 45, 0
13, 22944, Note_on_c, 13, 62, 49
13, 22944, Note_on_c, 13, 67, 49
13, 22944, Note_on_c, 13, 46, 49
13, 22965, Note_off_c, 13, 46, 0
13, 22968, Note_on_c, 13, 43, 49
13, 22986, Note_off_c, 13, 62, 0
13, 22986, Note_off_c, 13, 67, 0
13, 22989, Note_off_c, 13, 43, 0
13, 22992, Note_on_c, 13, 63, 49
13, 22992, Note_on_c, 13, 70, 49
13, 22992, Note_on_c, 13, 48, 49
13, 23013, Note_off_c, 13, 48, 0
13, 23016, Note_on_c, 13, 50, 49
13, 23034, Note_off_c, 13, 63, 0
13, 23034, Note_off_c, 13, 70, 0
13, 23037, Note_off_c, 13, 50, 0
13, 23040, Note_on_c, 13, 67, 49
13, 23040, Note_on_c, 13, 72, 49
13, 23040, Note_on_c, 13, 51, 49
13, 23061, Note_off_c, 13, 51, 0
13, 23064, Note_on_c, 13, 50, 49
13, 23082, Note_off_c, 13, 67, 0
13, 23082, Note_off_c, 13, 72, 0
13, 23085, Note_off_c, 13, 50, 0
13, 23088, Note_on_c, 13, 67, 49
13, 23088, Note_on_c, 13, 72, 49
13, 23088, Note_on_c, 13, 51, 49
13, 23109, Note_off_c, 13, 51, 0
13, 23112, Note_on_c, 13, 48, 49
13, 23130, Note_off_c, 13, 67, 0
13, 23130, Note_off_c, 13, 72, 0
13, 23133, Note_off_c, 13, 48, 0
13, 23136, Note_on_c, 13, 69, 49
13, 23136, Note_on_c, 13, 75, 49
13, 23136, Note_on_c, 13, 53, 49
13, 23157, Note_off_c, 13, 53, 0
13, 23160, Note_on_c, 13, 55, 49
13, 23178, Note_off_c, 13, 69, 0
13, 23178, Note_off_c, 13, 75, 0
13, 23181, Note_off_c, 13, 55, 0
13, 23184, Note_on_c, 13, 65, 49
13, 23184, Note_on_c, 13, 72, 49
13, 23184, Note_on_c, 13, 57, 49
13, 23205, Note_off_c, 13, 57, 0
13, 23208, Note_on_c, 13, 55, 49
13, 23226, Note_off_c, 13, 65, 0
13, 23226, Note_off_c, 13, 72, 0
13, 23229, Note_off_c, 13, 55, 0
13, 23232, Note_on_c, 13, 65, 49
13, 23232, Note_on_c, 13, 72, 49
13, 23232, Note_on_c, 13, 57, 49
13, 23253, Note_off_c, 13, 57, 0
13, 23256, Note_on_c, 13, 53, 49
13, 23274, Note_off_c, 13, 65, 0
13, 23274, Note_off_c, 13, 72, 0
13, 23277, Note_off_c, 13, 53, 0
13, 23280, Note_on_c, 13, 65, 49
13, 23280, Note_on_c, 13, 74, 49
13, 23280, Note_on_c, 13, 58, 49
13, 23301, Note_off_c, 13, 58, 0
13, 23304, Note_on_c, 13, 60, 49
13, 23322, Note_off_c, 13, 65, 0
13, 23322, Note_off_c, 13, 74, 0
13, 23325, Note_off_c, 13, 60, 0
13, 23328, Note_on_c, 13, 65, 49
13, 23328, Note_on_c, 13, 70, 49
13, 23328, Note_on_c, 13, 62, 49
13, 23349, Note_off_c, 13, 62, 0
13, 23352, Note_on_c, 13, 60, 49
13, 23370, Note_off_c, 13, 65, 0
13, 23370, Note_off_c, 13, 70, 0
13, 23373, Note_off_c, 13, 60, 0
13, 23376, Note_on_c, 13, 65, 49
13, 23376, Note_on_c, 13, 70, 49
13, 23376, Note_on_c, 13, 62, 49
13, 23397, Note_off_c, 13, 62, 0
13, 23400, Note_on_c, 13, 58, 49
13, 23418, Note_off_c, 13, 65, 0
13, 23418, Note_off_c, 13, 70, 0
13, 23421, Note_off_c, 13, 58, 0
13, 23424, Tempo, 1500000
13, 23424, Note_on_c, 13, 65, 49
13, 23424, Note_on_c, 13, 70, 49
13, 23424, Note_on_c, 13, 50, 49
13, 23556, Note_off_c, 13, 65, 0
13, 23556, Note_off_c, 13, 70, 0
13, 23556, Note_off_c, 13, 50, 0
13, 23616, Time_signature, 2, 2, 96, 8
13, 23808, Time_signature, 6, 2, 96, 8
13, 23904, Tempo, 600000
13, 23904, Note_on_c, 13, 65, 96
13, 23904, Note_on_c, 13, 74, 96
13, 23904, Note_on_c, 13, 45, 96
13, 23946, Note_off_c, 13, 65, 0
13, 23946, Note_off_c, 13, 74, 0
13, 23946, Note_off_c, 13, 45, 0
13, 23952, Note_on_c, 13, 70, 96
13, 23952, Note_on_c, 13, 76, 96
13, 23952, Note_on_c, 13, 43, 96
13, 23994, Note_off_c, 13, 70, 0
13, 23994, Note_off_c, 13, 76, 0
13, 23994, Note_off_c, 13, 43, 0
13, 24000, Note_on_c, 13, 69, 49
13, 24000, Note_on_c, 13, 72, 49
13, 24000, Note_on_c, 13, 41, 49
13, 24021, Note_off_c, 13, 41, 0
13, 24024, Note_on_c, 13, 43, 49
13, 24042, Note_off_c, 13, 69, 0
13, 24042, Note_off_c, 13, 72, 0
13, 24045, Note_off_c, 13, 43, 0
13, 24048, Note_on_c, 13, 65, 49
13, 24048, Note_on_c, 13, 72, 49
13, 24048, Note_on_c, 13, 45, 49
13, 24069, Note_off_c, 13, 45, 0
13, 24072, Note_on_c, 13, 43, 49
13, 24090, Note_off_c, 13, 65, 0
13, 24090, Note_off_c, 13, 72, 0
13, 24093, Note_off_c, 13, 43, 0
13, 24096, Note_on_c, 13, 45, 49
13, 24117, Note_off_c, 13, 45, 0
13, 24120, Note_on_c, 13, 41, 49
13, 24141, Note_off_c, 13, 41, 0
13, 24144, Note_on_c, 13, 53, 49
13, 24186, Note_off_c, 13, 53, 0
13, 24192, Note_on_c, 13, 52, 49
13, 24234, Note_off_c, 13, 52, 0
13, 24240, Note_on_c, 13, 50, 49
13, 24282, Note_off_c, 13, 50, 0
13, 24288, Note_on_c, 13, 48, 49
13, 24309, Note_off_c, 13, 48, 0
13, 24312, Note_on_c, 13, 50, 49
13, 24333, Note_off_c, 13, 50, 0
13, 24336, Note_on_c, 13, 52, 49
13, 24357, Note_off_c, 13, 52, 0
13, 24360, Note_on_c, 13, 50, 49
13, 24381, Note_off_c, 13, 50, 0
13, 24384, Note_on_c, 13, 52, 49
13, 24405, Note_off_c, 13, 52, 0
13, 24408, Note_on_c, 13, 48, 49
13, 24429, Note_off_c, 13, 48, 0
13, 24432, Note_on_c, 13, 58, 49
13, 24474, Note_off_c, 13, 58, 0
13, 24480, Note_on_c, 13, 57, 49
13, 24522, Note_off_c, 13, 57, 0
13, 24528, Note_on_c, 13, 55, 49
13, 24570, Note_off_c, 13, 55, 0
13, 24576, Note_on_c, 13, 57, 49
13, 24618, Note_off_c, 13, 57, 0
13, 24624, Note_on_c, 13, 50, 49
13, 24666, Note_off_c, 13, 50, 0
13, 24672, Note_on_c, 13, 52, 49
13, 24714, Note_off_c, 13, 52, 0
13, 24720, Note_on_c, 13, 53, 49
13, 24762, Note_off_c, 13, 53, 0
13, 24768, Note_on_c, 13, 52, 49
13, 24789, Note_off_c, 13, 52, 0
13, 24792, Note_on_c, 13, 50, 49
13, 24813, Note_off_c, 13, 50, 0
13, 24816, Note_on_c, 13, 48, 49
13, 24837, Note_off_c, 13, 48, 0
13, 24840, Note_on_c, 13, 46, 49
13, 24861, Note_off_c, 13, 46, 0
13, 24864, Note_on_c, 13, 45, 49
13, 24885, Note_off_c, 13, 45, 0
13, 24888, Note_on_c, 13, 46, 49
13, 24909, Note_off_c, 13, 46, 0
13, 24912, Note_on_c, 13, 48, 49
13, 24922, Note_off_c, 13, 48, 0
13, 24924, Note_on_c, 13, 46, 49
13, 24934, Note_off_c, 13, 46, 0
13, 24936, Note_on_c, 13, 48, 49
13, 24946, Note_off_c, 13, 48, 0
13, 24948, Note_on_c, 13, 46, 49
13, 24958, Note_off_c, 13, 46, 0
13, 24960, Note_on_c, 13, 48, 49
13, 24970, Note_off_c, 13, 48, 0
13, 24972, Note_on_c, 13, 46, 49
13, 24982, Note_off_c, 13, 46, 0
13, 24984, Note_on_c, 13, 45, 49
13, 24994, Note_off_c, 13, 45, 0
13, 24996, Note_on_c, 13, 46, 49
13, 25006, Note_off_c, 13, 46, 0
13, 25008, Note_on_c, 13, 48, 49
13, 25029, Note_off_c, 13, 48, 0
13, 25032, Note_on_c, 13, 50, 49
13, 25053, Note_off_c, 13, 50, 0
13, 25056, Note_on_c, 13, 52, 49
13, 25077, Note_off_c, 13, 52, 0
13, 25080, Note_on_c, 13, 50, 49
13, 25101, Note_off_c, 13, 50, 0
13, 25104, Note_on_c, 13, 52, 49
13, 25125, Note_off_c, 13, 52, 0
13, 25128, Note_on_c, 13, 48, 49
13, 25149, Note_off_c, 13, 48, 0
13, 25152, Note_on_c, 13, 69, 49
13, 25152, Note_on_c, 13, 72, 49
13, 25152, Note_on_c, 13, 53, 49
13, 25194, Note_off_c, 13, 69, 0
13, 25194, Note_off_c, 13, 72, 0
13, 25194, Note_off_c, 13, 53, 0
13, 25200, Note_on_c, 13, 72, 49
13, 25200, Note_on_c, 13, 77, 49
13, 25200, Note_on_c, 13, 57, 49
13, 25242, Note_off_c, 13, 72, 0
13, 25242, Note_off_c, 13, 77, 0
13, 25242, Note_off_c, 13, 57, 0
13, 25248, Note_on_c, 13, 77, 49
13, 25248, Note_on_c, 13, 81, 49
13, 25248, Note_on_c, 13, 60, 49
13, 25290, Note_off_c, 13, 77, 0
13, 25290, Note_off_c, 13, 81, 0
13, 25290, Note_off_c, 13, 60, 0
13, 25296, Note_on_c, 13, 72, 49
13, 25296, Note_on_c, 13, 77, 49
13, 25296, Note_on_c, 13, 57, 49
13, 25338, Note_off_c, 13, 72, 0
13, 25338, Note_off_c, 13, 77, 0
13, 25338, Note_off_c, 13, 57, 0
13, 25344, Note_on_c, 13, 69, 49
13, 25344, Note_on_c, 13, 72, 49
13, 25344, Note_on_c, 13, 53, 49
13, 25386, Note_off_c, 13, 69, 0
13, 25386, Note_off_c, 13, 72, 0
13, 25386, Note_off_c, 13, 53, 0
13, 25440, Note_on_c, 13, 67, 49
13, 25440, Note_on_c, 13, 72, 49
13, 25440, Note_on_c, 13, 52, 49
13, 25482, Note_off_c, 13, 67, 0
13, 25482, Note_off_c, 13, 72, 0
13, 25482, Note_off_c, 13, 52, 0
13, 25488, Note_on_c, 13, 72, 49
13, 25488, Note_on_c, 13, 76, 49
13, 25488, Note_on_c, 13, 55, 49
13, 25530, Note_off_c, 13, 72, 0
13, 25530, Note_off_c, 13, 76, 0
13, 25530, Note_off_c, 13, 55, 0
13, 25536, Note_on_c, 13, 76, 49
13, 25536, Note_on_c, 13, 79, 49
13, 25536, Note_on_c, 13, 60, 49
13, 25578, Note_off_c, 13, 76, 0
13, 25578, Note_off_c, 13, 79, 0
13, 25578, Note_off_c, 13, 60, 0
13, 25584, Note_on_c, 13, 67, 49
13, 25584, Note_on_c, 13, 72, 49
13, 25584, Note_on_c, 13, 52, 49
13, 25626, Note_off_c, 13, 67, 0
13, 25626, Note_off_c, 13, 72, 0
13, 25626, Note_off_c, 13, 52, 0
13, 25632, Note_on_c, 13, 64, 49
13, 25632, Note_on_c, 13, 67, 49
13, 25632, Note_on_c, 13, 48, 49
13, 25674, Note_off_c, 13, 64, 0
13, 25674, Note_off_c, 13, 67, 0
13, 25674, Note_off_c, 13, 48, 0
13, 25728, Note_on_c, 13, 69, 49
13, 25728, Note_on_c, 13, 77, 49
13, 25728, Note_on_c, 13, 50, 49
13, 25770, Note_off_c, 13, 69, 0
13, 25770, Note_off_c, 13, 77, 0
13, 25770, Note_off_c, 13, 50, 0
13, 25776, Note_on_c, 13, 74, 49
13, 25776, Note_on_c, 13, 77, 49
13, 25776, Note_on_c, 13, 53, 49
13, 25818, Note_off_c, 13, 74, 0
13, 25818, Note_off_c, 13, 77, 0
13, 25818, Note_off_c, 13, 53, 0
13, 25824, Note_on_c, 13, 69, 49
13, 25824, Note_on_c, 13, 77, 49
13, 25824, Note_on_c, 13, 50, 49
13, 25866, Note_off_c, 13, 69, 0
13, 25866, Note_off_c, 13, 77, 0
13, 25866, Note_off_c, 13, 50, 0
13, 25872, Note_on_c, 13, 65, 49
13, 25872, Note_on_c, 13, 72, 49
13, 25872, Note_on_c, 13, 45, 49
13, 25914, Note_off_c, 13, 65, 0
13, 25914, Note_off_c, 13, 72, 0
13, 25914, Note_off_c, 13, 45, 0
13, 25920, Note_on_c, 13, 60, 49
13, 25920, Note_on_c, 13, 69, 49
13, 25920, Note_on_c, 13, 41, 49
13, 25962, Note_off_c, 13, 60, 0
13, 25962, Note_off_c, 13, 69, 0
13, 25962, Note_off_c, 13, 41, 0
13, 26016, Note_on_c, 13, 67, 49
13, 26016, Note_on_c, 13, 76, 49
13, 26016, Note_on_c, 13, 48, 49
13, 26058, Note_off_c, 13, 67, 0
13, 26058, Note_off_c, 13, 76, 0
13, 26058, Note_off_c, 13, 48, 0
13, 26064, Note_on_c, 13, 69, 49
13, 26064, Note_on_c, 13, 74, 49
13, 26064, Note_on_c, 13, 48, 49
13, 26106, Note_off_c, 13, 69, 0
13, 26106, Note_off_c, 13, 74, 0
13, 26106, Note_off_c, 13, 48, 0
13, 26112, Note_on_c, 13, 67, 49
13, 26112, Note_on_c, 13, 76, 49
13, 26112, Note_on_c, 13, 48, 49
13, 26154, Note_off_c, 13, 67, 0
13, 26154, Note_off_c, 13, 76, 0
13, 26154, Note_off_c, 13, 48, 0
13, 26160, Note_on_c, 13, 67, 49
13, 26160, Note_on_c, 13, 76, 49
13, 26160, Note_on_c, 13, 48, 49
13, 26181, Note_off_c, 13, 48, 0
13, 26184, Note_on_c, 13, 50, 49
13, 26202, Note_off_c, 13, 67, 0
13, 26202, Note_off_c, 13, 76, 0
13, 26205, Note_off_c, 13, 50, 0
13, 26208, Note_on_c, 13, 67, 49
13, 26208, Note_on_c, 13, 72, 49
13, 26208, Note_on_c, 13, 52, 49
13, 26229, Note_off_c, 13, 52, 0
13, 26232, Note_on_c, 13, 50, 49
13, 26250, Note_off_c, 13, 67, 0
13, 26250, Note_off_c, 13, 72, 0
13, 26253, Note_off_c, 13, 50, 0
13, 26256, Note_on_c, 13, 67, 49
13, 26256, Note_on_c, 13, 72, 49
13, 26256, Note_on_c, 13, 52, 49
13, 26277, Note_off_c, 13, 52, 0
13, 26280, Note_on_c, 13, 48, 49
13, 26298, Note_off_c, 13, 67, 0
13, 26298, Note_off_c, 13, 72, 0
13, 26301, Note_off_c, 13, 48, 0
13, 26304, Note_on_c, 13, 69, 49
13, 26304, Note_on_c, 13, 72, 49
13, 26304, Note_on_c, 13, 53, 49
13, 26325, Note_off_c, 13, 53, 0
13, 26328, Note_on_c, 13, 55, 49
13, 26346, Note_off_c, 13, 69, 0
13, 26346, Note_off_c, 13, 72, 0
13, 26349, Note_off_c, 13, 55, 0
13, 26352, Note_on_c, 13, 65, 49
13, 26352, Note_on_c, 13, 72, 49
13, 26352, Note_on_c, 13, 57, 49
13, 26373, Note_off_c, 13, 57, 0
13, 26376, Note_on_c, 13, 55, 49
13, 26394, Note_off_c, 13, 65, 0
13, 26394, Note_off_c, 13, 72, 0
13, 26397, Note_off_c, 13, 55, 0
13, 26400, Note_on_c, 13, 65, 49
13, 26400, Note_on_c, 13, 72, 49
13, 26400, Note_on_c, 13, 57, 49
13, 26421, Note_off_c, 13, 57, 0
13, 26424, Note_on_c, 13, 53, 49
13, 26442, Note_off_c, 13, 65, 0
13, 26442, Note_off_c, 13, 72, 0
13, 26445, Note_off_c, 13, 53, 0
13, 26448, Note_on_c, 13, 65, 49
13, 26448, Note_on_c, 13, 74, 49
13, 26448, Note_on_c, 13, 46, 49
13, 26469, Note_off_c, 13, 46, 0
13, 26472, Note_on_c, 13, 48, 49
13, 26490, Note_off_c, 13, 65, 0
13, 26490, Note_off_c, 13, 74, 0
13, 26493, Note_off_c, 13, 48, 0
13, 26496, Note_on_c, 13, 65, 49
13, 26496, Note_on_c, 13, 74, 49
13, 26496, Note_on_c, 13, 50, 49
13, 26517, Note_off_c, 13, 50, 0
13, 26520, Note_on_c, 13, 48, 49
13, 26538, Note_off_c, 13, 65, 0
13, 26538, Note_off_c, 13, 74, 0
13, 26541, Note_off_c, 13, 48, 0
13, 26544, Note_on_c, 13, 65, 49
13, 26544, Note_on_c, 13, 70, 49
13, 26544, Note_on_c, 13, 50, 49
13, 26565, Note_off_c, 13, 50, 0
13, 26568, Note_on_c, 13, 46, 49
13, 26586, Note_off_c, 13, 65, 0
13, 26586, Note_off_c, 13, 70, 0
13, 26589, Note_off_c, 13, 46, 0
13, 26592, Note_on_c, 13, 67, 49
13, 26592, Note_on_c, 13, 70, 49
13, 26592, Note_on_c, 13, 52, 49
13, 26613, Note_off_c, 13, 52, 0
13, 26616, Note_on_c, 13, 53, 49
13, 26634, Note_off_c, 13, 67, 0
13, 26634, Note_off_c, 13, 70, 0
13, 26637, Note_off_c, 13, 53, 0
13, 26640, Note_on_c, 13, 70, 49
13, 26640, Note_on_c, 13, 76, 49
13, 26640, Note_on_c, 13, 55, 49
13, 26661, Note_off_c, 13, 55, 0
13, 26664, Note_on_c, 13, 53, 49
13, 26682, Note_off_c, 13, 70, 0
13, 26682, Note_off_c, 13, 76, 0
13, 26685, Note_off_c, 13, 53, 0
13, 26688, Note_on_c, 13, 70, 49
13, 26688, Note_on_c, 13, 76, 49
13, 26688, Note_on_c, 13, 55, 49
13, 26709, Note_off_c, 13, 55, 0
13, 26712, Note_on_c, 13, 52, 49
13, 26730, Note_off_c, 13, 70, 0
13, 26730, Note_off_c, 13, 76, 0
13, 26733, Note_off_c, 13, 52, 0
13, 26736, Note_on_c, 13, 64, 49
13, 26736, Note_on_c, 13, 72, 49
13, 26736, Note_on_c, 13, 45, 49
13, 26757, Note_off_c, 13, 45, 0
13, 26760, Note_on_c, 13, 46, 49
13, 26778, Note_off_c, 13, 64, 0
13, 26778, Note_off_c, 13, 72, 0
13, 26781, Note_off_c, 13, 46, 0
13, 26784, Note_on_c, 13, 69, 49
13, 26784, Note_on_c, 13, 79, 49
13, 26784, Note_on_c, 13, 48, 49
13, 26805, Note_off_c, 13, 48, 0
13, 26808, Note_on_c, 13, 46, 49
13, 26826, Note_off_c, 13, 69, 0
13, 26826, Note_off_c, 13, 79, 0
13, 26829, Note_off_c, 13, 46, 0
13, 26832, Note_on_c, 13, 69, 49
13, 26832, Note_on_c, 13, 79, 49
13, 26832, Note_on_c, 13, 48, 49
13, 26853, Note_off_c, 13, 48, 0
13, 26856, Note_on_c, 13, 45, 49
13, 26874, Note_off_c, 13, 69, 0
13, 26874, Note_off_c, 13, 79, 0
13, 26877, Note_off_c, 13, 45, 0
13, 26880, Note_on_c, 13, 69, 49
13, 26880, Note_on_c, 13, 77, 49
13, 26880, Note_on_c, 13, 50, 49
13, 26901, Note_off_c, 13, 50, 0
13, 26904, Note_on_c, 13, 52, 49
13, 26922, Note_off_c, 13, 69, 0
13, 26922, Note_off_c, 13, 77, 0
13, 26925, Note_off_c, 13, 52, 0
13, 26928, Note_on_c, 13, 69, 49
13, 26928, Note_on_c, 13, 74, 49
13, 26928, Note_on_c, 13, 53, 49
13, 26949, Note_off_c, 13, 53, 0
13, 26952, Note_on_c, 13, 52, 49
13, 26970, Note_off_c, 13, 69, 0
13, 26970, Note_off_c, 13, 74, 0
13, 26973, Note_off_c, 13, 52, 0
13, 26976, Note_on_c, 13, 69, 49
13, 26976, Note_on_c, 13, 74, 49
13, 26976, Note_on_c, 13, 53, 49
13, 26997, Note_off_c, 13, 53, 0
13, 27000, Note_on_c, 13, 50, 49
13, 27018, Note_off_c, 13, 69, 0
13, 27018, Note_off_c, 13, 74, 0
13, 27021, Note_off_c, 13, 50, 0
13, 27024, Note_on_c, 13, 62, 49
13, 27024, Note_on_c, 13, 70, 49
13, 27024, Note_on_c, 13, 43, 49
13, 27045, Note_off_c, 13, 43, 0
13, 27048, Note_on_c, 13, 45, 49
13, 27066, Note_off_c, 13, 62, 0
13, 27066, Note_off_c, 13, 70, 0
13, 27069, Note_off_c, 13, 45, 0
13, 27072, Note_on_c, 13, 67, 49
13, 27072, Note_on_c, 13, 77, 49
13, 27072, Note_on_c, 13, 46, 49
13, 27093, Note_off_c, 13, 46, 0
13, 27096, Note_on_c, 13, 45, 49
13, 27114, Note_off_c, 13, 67, 0
13, 27114, Note_off_c, 13, 77, 0
13, 27117, Note_off_c, 13, 45, 0
13, 27120, Note_on_c, 13, 67, 49
13, 27120, Note_on_c, 13, 77, 49
13, 27120, Note_on_c, 13, 46, 49
13, 27141, Note_off_c, 13, 46, 0
13, 27144, Note_on_c, 13, 43, 49
13, 27162, Note_off_c, 13, 67, 0
13, 27162, Note_off_c, 13, 77, 0
13, 27165, Note_off_c, 13, 43, 0
13, 27168, Note_on_c, 13, 67, 49
13, 27168, Note_on_c, 13, 76, 49
13, 27168, Note_on_c, 13, 48, 49
13, 27210, Note_off_c, 13, 67, 0
13, 27210, Note_off_c, 13, 76, 0
13, 27210, Note_off_c, 13, 48, 0
13, 27216, Note_on_c, 13, 67, 49
13, 27216, Note_on_c, 13, 76, 49
13, 27216, Note_on_c, 13, 48, 49
13, 27258, Note_off_c, 13, 67, 0
13, 27258, Note_off_c, 13, 76, 0
13, 27258, Note_off_c, 13, 48, 0
13, 27264, Note_on_c, 13, 67, 49
13, 27264, Note_on_c, 13, 76, 49
13, 27264, Note_on_c, 13, 48, 49
13, 27306, Note_off_c, 13, 67, 0
13, 27306, Note_off_c, 13, 76, 0
13, 27306, Note_off_c, 13, 48, 0
13, 27312, Note_on_c, 13, 69, 49
13, 27312, Note_on_c, 13, 77, 49
13, 27312, Note_on_c, 13, 48, 49
13, 27354, Note_off_c, 13, 69, 0
13, 27354, Note_off_c, 13, 77, 0
13, 27354, Note_off_c, 13, 48, 0
13, 27360, Note_on_c, 13, 69, 49
13, 27360, Note_on_c, 13, 77, 49
13, 27360, Note_on_c, 13, 48, 49
13, 27402, Note_off_c, 13, 69, 0
13, 27402, Note_off_c, 13, 77, 0
13, 27402, Note_off_c, 13, 48, 0
13, 27408, Note_on_c, 13, 69, 49
13, 27408, Note_on_c, 13, 77, 49
13, 27408, Note_on_c, 13, 48, 49
13, 27450, Note_off_c, 13, 69, 0
13, 27450, Note_off_c, 13, 77, 0
13, 27450, Note_off_c, 13, 48, 0
13, 27456, Note_on_c, 13, 69, 49
13, 27456, Note_on_c, 13, 77, 49
13, 27456, Note_on_c, 13, 48, 49
13, 27498, Note_off_c, 13, 69, 0
13, 27498, Note_off_c, 13, 77, 0
13, 27498, Note_off_c, 13, 48, 0
13, 27504, Note_on_c, 13, 69, 49
13, 27504, Note_on_c, 13, 77, 49
13, 27504, Note_on_c, 13, 48, 49
13, 27546, Note_off_c, 13, 69, 0
13, 27546, Note_off_c, 13, 77, 0
13, 27546, Note_off_c, 13, 48, 0
13, 27552, Note_on_c, 13, 69, 49
13, 27552, Note_on_c, 13, 77, 49
13, 27552, Note_on_c, 13, 48, 49
13, 27594, Note_off_c, 13, 69, 0
13, 27594, Note_off_c, 13, 77, 0
13, 27594, Note_off_c, 13, 48, 0
13, 27600, Note_on_c, 13, 67, 49
13, 27600, Note_on_c, 13, 76, 49
13, 27600, Note_on_c, 13, 48, 49
13, 27642, Note_off_c, 13, 67, 0
13, 27642, Note_off_c, 13, 76, 0
13, 27642, Note_off_c, 13, 48, 0
13, 27648, Note_on_c, 13, 67, 49
13, 27648, Note_on_c, 13, 76, 49
13, 27648, Note_on_c, 13, 48, 49
13, 27690, Note_off_c, 13, 67, 0
13, 27690, Note_off_c, 13, 76, 0
13, 27690, Note_off_c, 13, 48, 0
13, 27696, Note_on_c, 13, 67, 49
13, 27696, Note_on_c, 13, 76, 49
13, 27696, Note_on_c, 13, 48, 49
13, 27738, Note_off_c, 13, 67, 0
13, 27738, Note_off_c, 13, 76, 0
13, 27738, Note_off_c, 13, 48, 0
13, 27744, Note_on_c, 13, 69, 49
13, 27744, Note_on_c, 13, 77, 49
13, 27744, Note_on_c, 13, 48, 49
13, 27786, Note_off_c, 13, 69, 0
13, 27786, Note_off_c, 13, 77, 0
13, 27786, Note_off_c, 13, 48, 0
13, 27792, Note_on_c, 13, 69, 49
13, 27792, Note_on_c, 13, 77, 49
13, 27792, Note_on_c, 13, 48, 49
13, 27834, Note_off_c, 13, 69, 0
13, 27834, Note_off_c, 13, 77, 0
13, 27834, Note_off_c, 13, 48, 0
13, 27840, Note_on_c, 13, 69, 49
13, 27840, Note_on_c, 13, 77, 49
13, 27840, Note_on_c, 13, 48, 49
13, 27882, Note_off_c, 13, 69, 0
13, 27882, Note_off_c, 13, 77, 0
13, 27882, Note_off_c, 13, 48, 0
13, 27888, Note_on_c, 13, 64, 49
13, 27888, Note_on_c, 13, 79, 49
13, 27888, Note_on_c, 13, 48, 49
13, 27909, Note_off_c, 13, 48, 0
13, 27912, Note_on_c, 13, 46, 49
13, 27933, Note_off_c, 13, 46, 0
13, 27936, Note_on_c, 13, 48, 49
13, 27957, Note_off_c, 13, 48, 0
13, 27960, Note_on_c, 13, 50, 49
13, 27972, Note_off_c, 13, 64, 0
13, 27972, Note_off_c, 13, 79, 0
13, 27981, Note_off_c, 13, 50, 0
13, 27984, Note_on_c, 13, 48, 49
13, 28005, Note_off_c, 13, 48, 0
13, 28008, Note_on_c, 13, 46, 49
13, 28029, Note_off_c, 13, 46, 0
13, 28032, Note_on_c, 13, 45, 49
13, 28053, Note_off_c, 13, 45, 0
13, 28056, Note_on_c, 13, 46, 49
13, 28077, Note_off_c, 13, 46, 0
13, 28080, Note_on_c, 13, 45, 49
13, 28101, Note_off_c, 13, 45, 0
13, 28104, Note_on_c, 13, 43, 49
13, 28125, Note_off_c, 13, 43, 0
13, 28128, Note_on_c, 13, 45, 49
13, 28149, Note_off_c, 13, 45, 0
13, 28152, Note_on_c, 13, 41, 49
13, 28173, Note_off_c, 13, 41, 0
13, 28176, Note_on_c, 13, 46, 49
13, 28197, Note_off_c, 13, 46, 0
13, 28200, Note_on_c, 13, 48, 49
13, 28221, Note_off_c, 13, 48, 0
13, 28224, Note_on_c, 13, 58, 49
13, 28224, Note_on_c, 13, 65, 49
13, 28224, Note_on_c, 13, 50, 49
13, 28245, Note_off_c, 13, 50, 0
13, 28248, Note_on_c, 13, 48, 49
13, 28266, Note_off_c, 13, 58, 0
13, 28266, Note_off_c, 13, 65, 0
13, 28269, Note_off_c, 13, 48, 0
13, 28272, Note_on_c, 13, 58, 49
13, 28272, Note_on_c, 13, 65, 49
13, 28272, Note_on_c, 13, 46, 49
13, 28293, Note_off_c, 13, 46, 0
13, 28296, Note_on_c, 13, 45, 49
13, 28314, Note_off_c, 13, 58, 0
13, 28314, Note_off_c, 13, 65, 0
13, 28317, Note_off_c, 13, 45, 0
13, 28320, Note_on_c, 13, 58, 49
13, 28320, Note_on_c, 13, 67, 49
13, 28320, Note_on_c, 13, 43, 49
13, 28341, Note_off_c, 13, 43, 0
13, 28344, Note_on_c, 13, 45, 49
13, 28362, Note_off_c, 13, 58, 0
13, 28362, Note_off_c, 13, 67, 0
13, 28365, Note_off_c, 13, 45, 0
13, 28368, Note_on_c, 13, 46, 49
13, 28389, Note_off_c, 13, 46, 0
13, 28392, Note_on_c, 13, 45, 49
13, 28413, Note_off_c, 13, 45, 0
13, 28416, Note_on_c, 13, 46, 49
13, 28437, Note_off_c, 13, 46, 0
13, 28440, Note_on_c, 13, 43, 49
13, 28461, Note_off_c, 13, 43, 0
13, 28464, Note_on_c, 13, 48, 49
13, 28485, Note_off_c, 13, 48, 0
13, 28488, Note_on_c, 13, 50, 49
13, 28509, Note_off_c, 13, 50, 0
13, 28512, Note_on_c, 13, 60, 49
13, 28512, Note_on_c, 13, 67, 49
13, 28512, Note_on_c, 13, 52, 49
13, 28533, Note_off_c, 13, 52, 0
13, 28536, Note_on_c, 13, 50, 49
13, 28554, Note_off_c, 13, 60, 0
13, 28554, Note_off_c, 13, 67, 0
13, 28557, Note_off_c, 13, 50, 0
13, 28560, Note_on_c, 13, 60, 49
13, 28560, Note_on_c, 13, 67, 49
13, 28560, Note_on_c, 13, 48, 49
13, 28581, Note_off_c, 13, 48, 0
13, 28584, Note_on_c, 13, 46, 49
13, 28602, Note_off_c, 13, 60, 0
13, 28602, Note_off_c, 13, 67, 0
13, 28605, Note_off_c, 13, 46, 0
13, 28608, Note_on_c, 13, 60, 49
13, 28608, Note_on_c, 13, 69, 49
13, 28608, Note_on_c, 13, 45, 49
13, 28629, Note_off_c, 13, 45, 0
13, 28632, Note_on_c, 13, 46, 49
13, 28650, Note_off_c, 13, 60, 0
13, 28650, Note_off_c, 13, 69, 0
13, 28653, Note_off_c, 13, 46, 0
13, 28656, Note_on_c, 13, 48, 49
13, 28677, Note_off_c, 13, 48, 0
13, 28680, Note_on_c, 13, 46, 49
13, 28701, Note_off_c, 13, 46, 0
13, 28704, Note_on_c, 13, 48, 49
13, 28725, Note_off_c, 13, 48, 0
13, 28728, Note_on_c, 13, 45, 49
13, 28749, Note_off_c, 13, 45, 0
13, 28752, Note_on_c, 13, 50, 49
13, 28773, Note_off_c, 13, 50, 0
13, 28776, Note_on_c, 13, 52, 49
13, 28797, Note_off_c, 13, 52, 0
13, 28800, Note_on_c, 13, 62, 49
13, 28800, Note_on_c, 13, 69, 49
13, 28800, Note_on_c, 13, 53, 49
13, 28821, Note_off_c, 13, 53, 0
13, 28824, Note_on_c, 13, 52, 49
13, 28842, Note_off_c, 13, 62, 0
13, 28842, Note_off_c, 13, 69, 0
13, 28845, Note_off_c, 13, 52, 0
13, 28848, Note_on_c, 13, 62, 49
13, 28848, Note_on_c, 13, 69, 49
13, 28848, Note_on_c, 13, 53, 49
13, 28869, Note_off_c, 13, 53, 0
13, 28872, Note_on_c, 13, 50, 49
13, 28890, Note_off_c, 13, 62, 0
13, 28890, Note_off_c, 13, 69, 0
13, 28893, Note_off_c, 13, 50, 0
13, 28896, Note_on_c, 13, 62, 49
13, 28896, Note_on_c, 13, 71, 49
13, 28896, Note_on_c, 13, 55, 49
13, 28917, Note_off_c, 13, 55, 0
13, 28920, Note_on_c, 13, 57, 49
13, 28938, Note_off_c, 13, 62, 0
13, 28938, Note_off_c, 13, 71, 0
13, 28941, Note_off_c, 13, 57, 0
13, 28944, Note_on_c, 13, 59, 49
13, 28965, Note_off_c, 13, 59, 0
13, 28968, Note_on_c, 13, 57, 49
13, 28989, Note_off_c, 13, 57, 0
13, 28992, Note_on_c, 13, 59, 49
13, 29013, Note_off_c, 13, 59, 0
13, 29016, Note_on_c, 13, 55, 49
13, 29037, Note_off_c, 13, 55, 0
13, 29040, Note_on_c, 13, 60, 49
13, 29082, Note_off_c, 13, 60, 0
13, 29088, Note_on_c, 13, 48, 49
13, 29130, Note_off_c, 13, 48, 0
13, 29136, Note_on_c, 13, 48, 49
13, 29178, Note_off_c, 13, 48, 0
13, 29184, Note_on_c, 13, 48, 49
13, 29226, Note_off_c, 13, 48, 0
13, 29232, Note_on_c, 13, 52, 49
13, 29253, Note_off_c, 13, 52, 0
13, 29256, Note_on_c, 13, 50, 49
13, 29277, Note_off_c, 13, 50, 0
13, 29280, Note_on_c, 13, 52, 49
13, 29301, Note_off_c, 13, 52, 0
13, 29304, Note_on_c, 13, 48, 49
13, 29325, Note_off_c, 13, 48, 0
13, 29328, Note_on_c, 13, 69, 49
13, 29328, Note_on_c, 13, 72, 49
13, 29328, Note_on_c, 13, 53, 49
13, 29370, Note_off_c, 13, 69, 0
13, 29370, Note_off_c, 13, 72, 0
13, 29370, Note_off_c, 13, 53, 0
13, 29376, Note_on_c, 13, 72, 49
13, 29376, Note_on_c, 13, 77, 49
13, 29376, Note_on_c, 13, 57, 49
13, 29418, Note_off_c, 13, 72, 0
13, 29418, Note_off_c, 13, 77, 0
13, 29418, Note_off_c, 13, 57, 0
13, 29424, Note_on_c, 13, 77, 49
13, 29424, Note_on_c, 13, 81, 49
13, 29424, Note_on_c, 13, 60, 49
13, 29466, Note_off_c, 13, 77, 0
13, 29466, Note_off_c, 13, 81, 0
13, 29466, Note_off_c, 13, 60, 0
13, 29472, Note_on_c, 13, 72, 49
13, 29472, Note_on_c, 13, 77, 49
13, 29472, Note_on_c, 13, 57, 49
13, 29514, Note_off_c, 13, 72, 0
13, 29514, Note_off_c, 13, 77, 0
13, 29514, Note_off_c, 13, 57, 0
13, 29520, Note_on_c, 13, 69, 49
13, 29520, Note_on_c, 13, 72, 49
13, 29520, Note_on_c, 13, 53, 49
13, 29562, Note_off_c, 13, 69, 0
13, 29562, Note_off_c, 13, 72, 0
13, 29562, Note_off_c, 13, 53, 0
13, 29616, Note_on_c, 13, 67, 49
13, 29616, Note_on_c, 13, 72, 49
13, 29616, Note_on_c, 13, 52, 49
13, 29658, Note_off_c, 13, 67, 0
13, 29658, Note_off_c, 13, 72, 0
13, 29658, Note_off_c, 13, 52, 0
13, 29664, Note_on_c, 13, 72, 49
13, 29664, Note_on_c, 13, 76, 49
13, 29664, Note_on_c, 13, 55, 49
13, 29706, Note_off_c, 13, 72, 0
13, 29706, Note_off_c, 13, 76, 0
13, 29706, Note_off_c, 13, 55, 0
13, 29712, Note_on_c, 13, 76, 49
13, 29712, Note_on_c, 13, 79, 49
13, 29712, Note_on_c, 13, 60, 49
13, 29754, Note_off_c, 13, 76, 0
13, 29754, Note_off_c, 13, 79, 0
13, 29754, Note_off_c, 13, 60, 0
13, 29760, Note_on_c, 13, 67, 49
13, 29760, Note_on_c, 13, 72, 49
13, 29760, Note_on_c, 13, 52, 49
13, 29802, Note_off_c, 13, 67, 0
13, 29802, Note_off_c, 13, 72, 0
13, 29802, Note_off_c, 13, 52, 0
13, 29808, Note_on_c, 13, 64, 49
13, 29808, Note_on_c, 13, 67, 49
13, 29808, Note_on_c, 13, 48, 49
13, 29850, Note_off_c, 13, 64, 0
13, 29850, Note_off_c, 13, 67, 0
13, 29850, Note_off_c, 13, 48, 0
13, 29904, Note_on_c, 13, 69, 49
13, 29904, Note_on_c, 13, 77, 49
13, 29904, Note_on_c, 13, 50, 49
13, 29946, Note_off_c, 13, 69, 0
13, 29946, Note_off_c, 13, 77, 0
13, 29946, Note_off_c, 13, 50, 0
13, 29952, Note_on_c, 13, 74, 49
13, 29952, Note_on_c, 13, 77, 49
13, 29952, Note_on_c, 13, 53, 49
13, 29994, Note_off_c, 13, 74, 0
13, 29994, Note_off_c, 13, 77, 0
13, 29994, Note_off_c, 13, 53, 0
13, 30000, Note_on_c, 13, 69, 49
13, 30000, Note_on_c, 13, 77, 49
13, 30000, Note_on_c, 13, 50, 49
13, 30042, Note_off_c, 13, 69, 0
13, 30042, Note_off_c, 13, 77, 0
13, 30042, Note_off_c, 13, 50, 0
13, 30048, Note_on_c, 13, 65, 49
13, 30048, Note_on_c, 13, 72, 49
13, 30048, Note_on_c, 13, 45, 49
13, 30090, Note_off_c, 13, 65, 0
13, 30090, Note_off_c, 13, 72, 0
13, 30090, Note_off_c, 13, 45, 0
13, 30096, Note_on_c, 13, 60, 49
13, 30096, Note_on_c, 13, 69, 49
13, 30096, Note_on_c, 13, 41, 49
13, 30138, Note_off_c, 13, 60, 0
13, 30138, Note_off_c, 13, 69, 0
13, 30138, Note_off_c, 13, 41, 0
13, 30192, Note_on_c, 13, 67, 49
13, 30192, Note_on_c, 13, 76, 49
13, 30192, Note_on_c, 13, 48, 49
13, 30234, Note_off_c, 13, 67, 0
13, 30234, Note_off_c, 13, 76, 0
13, 30234, Note_off_c, 13, 48, 0
13, 30240, Note_on_c, 13, 67, 49
13, 30240, Note_on_c, 13, 76, 49
13, 30240, Note_on_c, 13, 48, 49
13, 30282, Note_off_c, 13, 67, 0
13, 30282, Note_off_c, 13, 76, 0
13, 30282, Note_off_c, 13, 48, 0
13, 30288, Note_on_c, 13, 67, 49
13, 30288, Note_on_c, 13, 74, 49
13, 30288, Note_on_c, 13, 48, 49
13, 30330, Note_off_c, 13, 67, 0
13, 30330, Note_off_c, 13, 74, 0
13, 30330, Note_off_c, 13, 48, 0
13, 30336, Note_on_c, 13, 67, 49
13, 30336, Note_on_c, 13, 76, 49
13, 30336, Note_on_c, 13, 48, 49
13, 30357, Note_off_c, 13, 48, 0
13, 30360, Note_on_c, 13, 50, 49
13, 30381, Note_off_c, 13, 50, 0
13, 30384, Note_on_c, 13, 52, 49
13, 30405, Note_off_c, 13, 52, 0
13, 30408, Note_on_c, 13, 50, 49
13, 30420, Note_off_c, 13, 67, 0
13, 30420, Note_off_c, 13, 76, 0
13, 30429, Note_off_c, 13, 50, 0
13, 30432, Note_on_c, 13, 52, 49
13, 30453, Note_off_c, 13, 52, 0
13, 30456, Note_on_c, 13, 48, 49
13, 30477, Note_off_c, 13, 48, 0
13, 30480, Note_on_c, 13, 55, 49
13, 30501, Note_off_c, 13, 55, 0
13, 30504, Note_on_c, 13, 57, 49
13, 30525, Note_off_c, 13, 57, 0
13, 30528, Note_on_c, 13, 58, 49
13, 30549, Note_off_c, 13, 58, 0
13, 30552, Note_on_c, 13, 57, 49
13, 30573, Note_off_c, 13, 57, 0
13, 30576, Note_on_c, 13, 58, 49
13, 30597, Note_off_c, 13, 58, 0
13, 30600, Note_on_c, 13, 55, 49
13, 30621, Note_off_c, 13, 55, 0
13, 30624, Note_on_c, 13, 57, 49
13, 30645, Note_off_c, 13, 57, 0
13, 30648, Note_on_c, 13, 58, 49
13, 30669, Note_off_c, 13, 58, 0
13, 30672, Note_on_c, 13, 60, 49
13, 30693, Note_off_c, 13, 60, 0
13, 30696, Note_on_c, 13, 57, 49
13, 30717, Note_off_c, 13, 57, 0
13, 30720, Note_on_c, 13, 62, 49
13, 30741, Note_off_c, 13, 62, 0
13, 30744, Note_on_c, 13, 60, 49
13, 30765, Note_off_c, 13, 60, 0
13, 30768, Note_on_c, 13, 62, 49
13, 30789, Note_off_c, 13, 62, 0
13, 30792, Note_on_c, 13, 58, 49
13, 30813, Note_off_c, 13, 58, 0
13, 30816, Note_on_c, 13, 60, 49
13, 30858, Note_off_c, 13, 60, 0
13, 30864, Note_on_c, 13, 48, 49
13, 30906, Note_off_c, 13, 48, 0
13, 30912, Note_on_c, 13, 69, 49
13, 30912, Note_on_c, 13, 72, 49
13, 30912, Note_on_c, 13, 53, 49
13, 30954, Note_off_c, 13, 69, 0
13, 30954, Note_off_c, 13, 72, 0
13, 30954, Note_off_c, 13, 53, 0
13, 30960, Note_on_c, 13, 72, 49
13, 30960, Note_on_c, 13, 77, 49
13, 30960, Note_on_c, 13, 57, 49
13, 31002, Note_off_c, 13, 72, 0
13, 31002, Note_off_c, 13, 77, 0
13, 31002, Note_off_c, 13, 57, 0
13, 31008, Note_on_c, 13, 77, 49
13, 31008, Note_on_c, 13, 81, 49
13, 31008, Note_on_c, 13, 60, 49
13, 31050, Note_off_c, 13, 77, 0
13, 31050, Note_off_c, 13, 81, 0
13, 31050, Note_off_c, 13, 60, 0
13, 31056, Note_on_c, 13, 72, 49
13, 31056, Note_on_c, 13, 77, 49
13, 31056, Note_on_c, 13, 57, 49
13, 31098, Note_off_c, 13, 72, 0
13, 31098, Note_off_c, 13, 77, 0
13, 31098, Note_off_c, 13, 57, 0
13, 31104, Note_on_c, 13, 69, 49
13, 31104, Note_on_c, 13, 72, 49
13, 31104, Note_on_c, 13, 53, 49
13, 31146, Note_off_c, 13, 69, 0
13, 31146, Note_off_c, 13, 72, 0
13, 31146, Note_off_c, 13, 53, 0
13, 31200, Note_on_c, 13, 67, 49
13, 31200, Note_on_c, 13, 72, 49
13, 31200, Note_on_c, 13, 52, 49
13, 31242, Note_off_c, 13, 67, 0
13, 31242, Note_off_c, 13, 72, 0
13, 31242, Note_off_c, 13, 52, 0
13, 31248, Note_on_c, 13, 72, 49
13, 31248, Note_on_c, 13, 76, 49
13, 31248, Note_on_c, 13, 55, 49
13, 31290, Note_off_c, 13, 72, 0
13, 31290, Note_off_c, 13, 76, 0
13, 31290, Note_off_c, 13, 55, 0
13, 31296, Note_on_c, 13, 76, 49
13, 31296, Note_on_c, 13, 79, 49
13, 31296, Note_on_c, 13, 60, 49
13, 31338, Note_off_c, 13, 76, 0
13, 31338, Note_off_c, 13, 79, 0
13, 31338, Note_off_c, 13, 60, 0
13, 31344, Note_on_c, 13, 67, 49
13, 31344, Note_on_c, 13, 72, 49
13, 31344, Note_on_c, 13, 52, 49
13, 31386, Note_off_c, 13, 67, 0
13, 31386, Note_off_c, 13, 72, 0
13, 31386, Note_off_c, 13, 52, 0
13, 31392, Note_on_c, 13, 64, 49
13, 31392, Note_on_c, 13, 67, 49
13, 31392, Note_on_c, 13, 48, 49
13, 31434, Note_off_c, 13, 64, 0
13, 31434, Note_off_c, 13, 67, 0
13, 31434, Note_off_c, 13, 48, 0
13, 31488, Note_on_c, 13, 69, 49
13, 31488, Note_on_c, 13, 77, 49
13, 31488, Note_on_c, 13, 50, 49
13, 31530, Note_off_c, 13, 69, 0
13, 31530, Note_off_c, 13, 77, 0
13, 31530, Note_off_c, 13, 50, 0
13, 31536, Note_on_c, 13, 74, 49
13, 31536, Note_on_c, 13, 77, 49
13, 31536, Note_on_c, 13, 53, 49
13, 31578, Note_off_c, 13, 74, 0
13, 31578, Note_off_c, 13, 77, 0
13, 31578, Note_off_c, 13, 53, 0
13, 31584, Note_on_c, 13, 69, 49
13, 31584, Note_on_c, 13, 77, 49
13, 31584, Note_on_c, 13, 50, 49
13, 31626, Note_off_c, 13, 69, 0
13, 31626, Note_off_c, 13, 77, 0
13, 31626, Note_off_c, 13, 50, 0
13, 31632, Note_on_c, 13, 65, 49
13, 31632, Note_on_c, 13, 72, 49
13, 31632, Note_on_c, 13, 45, 49
13, 31674, Note_off_c, 13, 65, 0
13, 31674, Note_off_c, 13, 72, 0
13, 31674, Note_off_c, 13, 45, 0
13, 31680, Note_on_c, 13, 60, 49
13, 31680, Note_on_c, 13, 69, 49
13, 31680, Note_on_c, 13, 41, 49
13, 31722, Note_off_c, 13, 60, 0
13, 31722, Note_off_c, 13, 69, 0
13, 31722, Note_off_c, 13, 41, 0
13, 31776, Note_on_c, 13, 67, 49
13, 31776, Note_on_c, 13, 76, 49
13, 31776, Note_on_c, 13, 48, 49
13, 31818, Note_off_c, 13, 67, 0
13, 31818, Note_off_c, 13, 76, 0
13, 31818, Note_off_c, 13, 48, 0
13, 31824, Note_on_c, 13, 69, 49
13, 31824, Note_on_c, 13, 74, 49
13, 31824, Note_on_c, 13, 48, 49
13, 31866, Note_off_c, 13, 69, 0
13, 31866, Note_off_c, 13, 74, 0
13, 31866, Note_off_c, 13, 48, 0
13, 31872, Note_on_c, 13, 67, 49
13, 31872, Note_on_c, 13, 76, 49
13, 31872, Note_on_c, 13, 48, 49
13, 31914, Note_off_c, 13, 67, 0
13, 31914, Note_off_c, 13, 76, 0
13, 31914, Note_off_c, 13, 48, 0
13, 31920, Note_on_c, 13, 67, 49
13, 31920, Note_on_c, 13, 76, 49
13, 31920, Note_on_c, 13, 48, 49
13, 31962, Note_off_c, 13, 67, 0
13, 31962, Note_off_c, 13, 76, 0
13, 31962, Note_off_c, 13, 48, 0
13, 31968, Note_on_c, 13, 67, 49
13, 31968, Note_on_c, 13, 72, 49
13, 31968, Note_on_c, 13, 52, 49
13, 31989, Note_off_c, 13, 52, 0
13, 31992, Note_on_c, 13, 50, 49
13, 32010, Note_off_c, 13, 67, 0
13, 32010, Note_off_c, 13, 72, 0
13, 32013, Note_off_c, 13, 50, 0
13, 32016, Note_on_c, 13, 67, 49
13, 32016, Note_on_c, 13, 72, 49
13, 32016, Note_on_c, 13, 52, 49
13, 32037, Note_off_c, 13, 52, 0
13, 32040, Note_on_c, 13, 48, 49
13, 32058, Note_off_c, 13, 67, 0
13, 32058, Note_off_c, 13, 72, 0
13, 32061, Note_off_c, 13, 48, 0
13, 32064, Note_on_c, 13, 69, 49
13, 32064, Note_on_c, 13, 74, 49
13, 32064, Note_on_c, 13, 53, 49
13, 32106, Note_off_c, 13, 69, 0
13, 32106, Note_off_c, 13, 74, 0
13, 32106, Note_off_c, 13, 53, 0
13, 32112, Note_on_c, 13, 65, 49
13, 32112, Note_on_c, 13, 74, 49
13, 32112, Note_on_c, 13, 57, 49
13, 32154, Note_off_c, 13, 65, 0
13, 32154, Note_off_c, 13, 74, 0
13, 32154, Note_off_c, 13, 57, 0
13, 32160, Note_on_c, 13, 69, 49
13, 32160, Note_on_c, 13, 77, 49
13, 32160, Note_on_c, 13, 62, 49
13, 32202, Note_off_c, 13, 69, 0
13, 32202, Note_off_c, 13, 77, 0
13, 32202, Note_off_c, 13, 62, 0
13, 32208, Note_on_c, 13, 72, 49
13, 32208, Note_on_c, 13, 79, 49
13, 32208, Note_on_c, 13, 52, 49
13, 32250, Note_off_c, 13, 72, 0
13, 32250, Note_off_c, 13, 79, 0
13, 32250, Note_off_c, 13, 52, 0
13, 32256, Note_on_c, 13, 72, 49
13, 32256, Note_on_c, 13, 76, 49
13, 32256, Note_on_c, 13, 55, 49
13, 32298, Note_off_c, 13, 72, 0
13, 32298, Note_off_c, 13, 76, 0
13, 32298, Note_off_c, 13, 55, 0
13, 32304, Note_on_c, 13, 67, 49
13, 32304, Note_on_c, 13, 76, 49
13, 32304, Note_on_c, 13, 60, 49
13, 32346, Note_off_c, 13, 67, 0
13, 32346, Note_off_c, 13, 76, 0
13, 32346, Note_off_c, 13, 60, 0
13, 32352, Note_on_c, 13, 70, 49
13, 32352, Note_on_c, 13, 77, 49
13, 32352, Note_on_c, 13, 50, 49
13, 32394, Note_off_c, 13, 70, 0
13, 32394, Note_off_c, 13, 77, 0
13, 32394, Note_off_c, 13, 50, 0
13, 32400, Note_on_c, 13, 62, 49
13, 32400, Note_on_c, 13, 70, 49
13, 32400, Note_on_c, 13, 53, 49
13, 32442, Note_off_c, 13, 62, 0
13, 32442, Note_off_c, 13, 70, 0
13, 32442, Note_off_c, 13, 53, 0
13, 32448, Note_on_c, 13, 65, 49
13, 32448, Note_on_c, 13, 74, 49
13, 32448, Note_on_c, 13, 58, 49
13, 32490, Note_off_c, 13, 65, 0
13, 32490, Note_off_c, 13, 74, 0
13, 32490, Note_off_c, 13, 58, 0
13, 32496, Note_on_c, 13, 69, 49
13, 32496, Note_on_c, 13, 76, 49
13, 32496, Note_on_c, 13, 48, 49
13, 32538, Note_off_c, 13, 69, 0
13, 32538, Note_off_c, 13, 76, 0
13, 32538, Note_off_c, 13, 48, 0
13, 32544, Note_on_c, 13, 72, 49
13, 32544, Note_on_c, 13, 81, 49
13, 32544, Note_on_c, 13, 52, 49
13, 32586, Note_off_c, 13, 72, 0
13, 32586, Note_off_c, 13, 81, 0
13, 32586, Note_off_c, 13, 52, 0
13, 32592, Note_on_c, 13, 64, 49
13, 32592, Note_on_c, 13, 72, 49
13, 32592, Note_on_c, 13, 57, 49
13, 32634, Note_off_c, 13, 64, 0
13, 32634, Note_off_c, 13, 72, 0
13, 32634, Note_off_c, 13, 57, 0
13, 32640, Note_on_c, 13, 67, 49
13, 32640, Note_on_c, 13, 74, 49
13, 32640, Note_on_c, 13, 46, 49
13, 32682, Note_off_c, 13, 67, 0
13, 32682, Note_off_c, 13, 74, 0
13, 32682, Note_off_c, 13, 46, 0
13, 32688, Note_on_c, 13, 70, 49
13, 32688, Note_on_c, 13, 79, 49
13, 32688, Note_on_c, 13, 50, 49
13, 32730, Note_off_c, 13, 70, 0
13, 32730, Note_off_c, 13, 79, 0
13, 32730, Note_off_c, 13, 50, 0
13, 32736, Note_on_c, 13, 74, 49
13, 32736, Note_on_c, 13, 82, 49
13, 32736, Note_on_c, 13, 55, 49
13, 32778, Note_off_c, 13, 74, 0
13, 32778, Note_off_c, 13, 82, 0
13, 32778, Note_off_c, 13, 55, 0
13, 32784, Note_on_c, 13, 65, 49
13, 32784, Note_on_c, 13, 72, 49
13, 32784, Note_on_c, 13, 45, 49
13, 32826, Note_off_c, 13, 65, 0
13, 32826, Note_off_c, 13, 72, 0
13, 32826, Note_off_c, 13, 45, 0
13, 32832, Note_on_c, 13, 69, 49
13, 32832, Note_on_c, 13, 77, 49
13, 32832, Note_on_c, 13, 48, 49
13, 32874, Note_off_c, 13, 69, 0
13, 32874, Note_off_c, 13, 77, 0
13, 32874, Note_off_c, 13, 48, 0
13, 32880, Note_on_c, 13, 72, 49
13, 32880, Note_on_c, 13, 81, 49
13, 32880, Note_on_c, 13, 53, 49
13, 32922, Note_off_c, 13, 72, 0
13, 32922, Note_off_c, 13, 81, 0
13, 32922, Note_off_c, 13, 53, 0
13, 32928, Note_on_c, 13, 62, 49
13, 32928, Note_on_c, 13, 70, 49
13, 32928, Note_on_c, 13, 43, 49
13, 32970, Note_off_c, 13, 62, 0
13, 32970, Note_off_c, 13, 70, 0
13, 32970, Note_off_c, 13, 43, 0
13, 32976, Note_on_c, 13, 70, 49
13, 32976, Note_on_c, 13, 79, 49
13, 32976, Note_on_c, 13, 50, 49
13, 33018, Note_off_c, 13, 70, 0
13, 33018, Note_off_c, 13, 79, 0
13, 33018, Note_off_c, 13, 50, 0
13, 33024, Note_on_c, 13, 74, 49
13, 33024, Note_on_c, 13, 82, 49
13, 33024, Note_on_c, 13, 55, 49
13, 33066, Note_off_c, 13, 74, 0
13, 33066, Note_off_c, 13, 82, 0
13, 33066, Note_off_c, 13, 55, 0
13, 33072, Note_on_c, 13, 70, 49
13, 33072, Note_on_c, 13, 79, 49
13, 33072, Note_on_c, 13, 41, 49
13, 33114, Note_off_c, 13, 70, 0
13, 33114, Note_off_c, 13, 79, 0
13, 33114, Note_off_c, 13, 41, 0
13, 33120, Note_on_c, 13, 50, 49
13, 33162, Note_off_c, 13, 50, 0
13, 33168, Note_on_c, 13, 55, 49
13, 33210, Note_off_c, 13, 55, 0
13, 33216, Note_on_c, 13, 67, 49
13, 33216, Note_on_c, 13, 72, 49
13, 33216, Note_on_c, 13, 40, 49
13, 33258, Note_off_c, 13, 67, 0
13, 33258, Note_off_c, 13, 72, 0
13, 33258, Note_off_c, 13, 40, 0
13, 33264, Note_on_c, 13, 67, 49
13, 33264, Note_on_c, 13, 76, 49
13, 33264, Note_on_c, 13, 48, 49
13, 33306, Note_off_c, 13, 67, 0
13, 33306, Note_off_c, 13, 76, 0
13, 33306, Note_off_c, 13, 48, 0
13, 33312, Note_on_c, 13, 72, 49
13, 33312, Note_on_c, 13, 76, 49
13, 33312, Note_on_c, 13, 55, 49
13, 33354, Note_off_c, 13, 72, 0
13, 33354, Note_off_c, 13, 76, 0
13, 33354, Note_off_c, 13, 55, 0
13, 33360, Note_on_c, 13, 72, 49
13, 33360, Note_on_c, 13, 79, 49
13, 33360, Note_on_c, 13, 52, 49
13, 33402, Note_off_c, 13, 72, 0
13, 33402, Note_off_c, 13, 79, 0
13, 33402, Note_off_c, 13, 52, 0
13, 33408, Note_on_c, 13, 67, 49
13, 33408, Note_on_c, 13, 76, 49
13, 33408, Note_on_c, 13, 48, 49
13, 33450, Note_off_c, 13, 67, 0
13, 33450, Note_off_c, 13, 76, 0
13, 33450, Note_off_c, 13, 48, 0
13, 33456, Note_on_c, 13, 67, 49
13, 33456, Note_on_c, 13, 76, 49
13, 33456, Note_on_c, 13, 60, 49
13, 33498, Note_off_c, 13, 67, 0
13, 33498, Note_off_c, 13, 76, 0
13, 33498, Note_off_c, 13, 60, 0
13, 33504, Note_on_c, 13, 72, 49
13, 33504, Note_on_c, 13, 81, 49
13, 33504, Note_on_c, 13, 41, 49
13, 33546, Note_off_c, 13, 72, 0
13, 33546, Note_off_c, 13, 81, 0
13, 33546, Note_off_c, 13, 41, 0
13, 33552, Note_on_c, 13, 69, 49
13, 33552, Note_on_c, 13, 77, 49
13, 33552, Note_on_c, 13, 48, 49
13, 33594, Note_off_c, 13, 69, 0
13, 33594, Note_off_c, 13, 77, 0
13, 33594, Note_off_c, 13, 48, 0
13, 33600, Note_on_c, 13, 69, 49
13, 33600, Note_on_c, 13, 72, 49
13, 33600, Note_on_c, 13, 53, 49
13, 33642, Note_off_c, 13, 69, 0
13, 33642, Note_off_c, 13, 72, 0
13, 33642, Note_off_c, 13, 53, 0
13, 33648, Note_on_c, 13, 60, 49
13, 33648, Note_on_c, 13, 69, 49
13, 33648, Note_on_c, 13, 40, 49
13, 33690, Note_off_c, 13, 60, 0
13, 33690, Note_off_c, 13, 69, 0
13, 33690, Note_off_c, 13, 40, 0
13, 33696, Note_on_c, 13, 48, 49
13, 33738, Note_off_c, 13, 48, 0
13, 33744, Note_on_c, 13, 53, 49
13, 33786, Note_off_c, 13, 53, 0
13, 33792, Note_on_c, 13, 69, 49
13, 33792, Note_on_c, 13, 77, 49
13, 33792, Note_on_c, 13, 38, 49
13, 33834, Note_off_c, 13, 69, 0
13, 33834, Note_off_c, 13, 77, 0
13, 33834, Note_off_c, 13, 38, 0
13, 33840, Note_on_c, 13, 65, 49
13, 33840, Note_on_c, 13, 69, 49
13, 33840, Note_on_c, 13, 50, 49
13, 33882, Note_off_c, 13, 65, 0
13, 33882, Note_off_c, 13, 69, 0
13, 33882, Note_off_c, 13, 50, 0
13, 33888, Note_on_c, 13, 65, 49
13, 33888, Note_on_c, 13, 74, 49
13, 33888, Note_on_c, 13, 45, 49
13, 33930, Note_off_c, 13, 65, 0
13, 33930, Note_off_c, 13, 74, 0
13, 33930, Note_off_c, 13, 45, 0
13, 33936, Note_on_c, 13, 65, 49
13, 33936, Note_on_c, 13, 74, 49
13, 33936, Note_on_c, 13, 46, 49
13, 33978, Note_off_c, 13, 65, 0
13, 33978, Note_off_c, 13, 74, 0
13, 33978, Note_off_c, 13, 46, 0
13, 33984, Note_on_c, 13, 67, 49
13, 33984, Note_on_c, 13, 74, 49
13, 33984, Note_on_c, 13, 50, 49
13, 34026, Note_off_c, 13, 67, 0
13, 34026, Note_off_c, 13, 74, 0
13, 34026, Note_off_c, 13, 50, 0
13, 34032, Note_on_c, 13, 74, 49
13, 34032, Note_on_c, 13, 82, 49
13, 34032, Note_on_c, 13, 43, 49
13, 34074, Note_off_c, 13, 74, 0
13, 34074, Note_off_c, 13, 82, 0
13, 34074, Note_off_c, 13, 43, 0
13, 34080, Note_on_c, 13, 67, 49
13, 34080, Note_on_c, 13, 76, 49
13, 34080, Note_on_c, 13, 48, 49
13, 34122, Note_off_c, 13, 67, 0
13, 34122, Note_off_c, 13, 76, 0
13, 34122, Note_off_c, 13, 48, 0
13, 34128, Note_on_c, 13, 67, 49
13, 34128, Note_on_c, 13, 72, 49
13, 34128, Note_on_c, 13, 52, 49
13, 34170, Note_off_c, 13, 67, 0
13, 34170, Note_off_c, 13, 72, 0
13, 34170, Note_off_c, 13, 52, 0
13, 34176, Note_on_c, 13, 64, 49
13, 34176, Note_on_c, 13, 72, 49
13, 34176, Note_on_c, 13, 55, 49
13, 34218, Note_off_c, 13, 64, 0
13, 34218, Note_off_c, 13, 72, 0
13, 34218, Note_off_c, 13, 55, 0
13, 34224, Note_on_c, 13, 67, 49
13, 34224, Note_on_c, 13, 76, 49
13, 34224, Note_on_c, 13, 48, 49
13, 34266, Note_off_c, 13, 67, 0
13, 34266, Note_off_c, 13, 76, 0
13, 34266, Note_off_c, 13, 48, 0
13, 34272, Note_on_c, 13, 67, 49
13, 34272, Note_on_c, 13, 72, 49
13, 34272, Note_on_c, 13, 52, 49
13, 34314, Note_off_c, 13, 67, 0
13, 34314, Note_off_c, 13, 72, 0
13, 34314, Note_off_c, 13, 52, 0
13, 34320, Note_on_c, 13, 64, 49
13, 34320, Note_on_c, 13, 72, 49
13, 34320, Note_on_c, 13, 55, 49
13, 34362, Note_off_c, 13, 64, 0
13, 34362, Note_off_c, 13, 72, 0
13, 34362, Note_off_c, 13, 55, 0
13, 34368, Note_on_c, 13, 67, 49
13, 34368, Note_on_c, 13, 76, 49
13, 34368, Note_on_c, 13, 48, 49
13, 34410, Note_off_c, 13, 67, 0
13, 34410, Note_off_c, 13, 76, 0
13, 34410, Note_off_c, 13, 48, 0
13, 34416, Note_on_c, 13, 67, 49
13, 34416, Note_on_c, 13, 72, 49
13, 34416, Note_on_c, 13, 52, 49
13, 34458, Note_off_c, 13, 67, 0
13, 34458, Note_off_c, 13, 72, 0
13, 34458, Note_off_c, 13, 52, 0
13, 34464, Note_on_c, 13, 64, 49
13, 34464, Note_on_c, 13, 72, 49
13, 34464, Note_on_c, 13, 55, 49
13, 34506, Note_off_c, 13, 64, 0
13, 34506, Note_off_c, 13, 72, 0
13, 34506, Note_off_c, 13, 55, 0
13, 34512, Note_on_c, 13, 67, 49
13, 34512, Note_on_c, 13, 76, 49
13, 34512, Note_on_c, 13, 48, 49
13, 34554, Note_off_c, 13, 67, 0
13, 34554, Note_off_c, 13, 76, 0
13, 34554, Note_off_c, 13, 48, 0
13, 34560, Note_on_c, 13, 67, 49
13, 34560, Note_on_c, 13, 72, 49
13, 34560, Note_on_c, 13, 52, 49
13, 34602, Note_off_c, 13, 67, 0
13, 34602, Note_off_c, 13, 72, 0
13, 34602, Note_off_c, 13, 52, 0
13, 34608, Note_on_c, 13, 67, 49
13, 34608, Note_on_c, 13, 76, 49
13, 34608, Note_on_c, 13, 48, 49
13, 34650, Note_off_c, 13, 67, 0
13, 34650, Note_off_c, 13, 76, 0
13, 34650, Note_off_c, 13, 48, 0
13, 34656, Note_on_c, 13, 72, 49
13, 34656, Note_on_c, 13, 81, 49
13, 34656, Note_on_c, 13, 53, 49
13, 34677, Note_off_c, 13, 53, 0
13, 34680, Note_on_c, 13, 52, 49
13, 34698, Note_off_c, 13, 72, 0
13, 34698, Note_off_c, 13, 81, 0
13, 34701, Note_off_c, 13, 52, 0
13, 34704, Note_on_c, 13, 72, 49
13, 34704, Note_on_c, 13, 81, 49
13, 34704, Note_on_c, 13, 53, 49
13, 34725, Note_off_c, 13, 53, 0
13, 34728, Note_on_c, 13, 52, 49
13, 34746, Note_off_c, 13, 72, 0
13, 34746, Note_off_c, 13, 81, 0
13, 34749, Note_off_c, 13, 52, 0
13, 34752, Note_on_c, 13, 69, 49
13, 34752, Note_on_c, 13, 77, 49
13, 34752, Note_on_c, 13, 50, 49
13, 34794, Note_off_c, 13, 69, 0
13, 34794, Note_off_c, 13, 77, 0
13, 34800, Note_on_c, 13, 70, 49
13, 34800, Note_on_c, 13, 77, 49
13, 34821, Note_off_c, 13, 50, 0
13, 34824, Note_on_c, 13, 46, 49
13, 34842, Note_off_c, 13, 70, 0
13, 34842, Note_off_c, 13, 77, 0
13, 34845, Note_off_c, 13, 46, 0
13, 34848, Note_on_c, 13, 76, 49
13, 34848, Note_on_c, 13, 79, 49
13, 34848, Note_on_c, 13, 48, 49
13, 34890, Note_off_c, 13, 76, 0
13, 34890, Note_off_c, 13, 79, 0
13, 34890, Note_off_c, 13, 48, 0
13, 34896, Note_on_c, 13, 67, 49
13, 34896, Note_on_c, 13, 76, 49
13, 34896, Note_on_c, 13, 36, 49
13, 34938, Note_off_c, 13, 67, 0
13, 34938, Note_off_c, 13, 76, 0
13, 34938, Note_off_c, 13, 36, 0
13, 34944, Note_on_c, 13, 72, 49
13, 34944, Note_on_c, 13, 81, 49
13, 34944, Note_on_c, 13, 41, 49
13, 34986, Note_off_c, 13, 72, 0
13, 34986, Note_off_c, 13, 81, 0
13, 34986, Note_off_c, 13, 41, 0
13, 34992, Note_on_c, 13, 72, 49
13, 34992, Note_on_c, 13, 77, 49
13, 34992, Note_on_c, 13, 45, 49
13, 35034, Note_off_c, 13, 72, 0
13, 35034, Note_off_c, 13, 77, 0
13, 35034, Note_off_c, 13, 45, 0
13, 35040, Note_on_c, 13, 72, 49
13, 35040, Note_on_c, 13, 81, 49
13, 35040, Note_on_c, 13, 41, 49
13, 35082, Note_off_c, 13, 72, 0
13, 35082, Note_off_c, 13, 81, 0
13, 35082, Note_off_c, 13, 41, 0
13, 35088, Note_on_c, 13, 69, 49
13, 35088, Note_on_c, 13, 77, 49
13, 35088, Note_on_c, 13, 38, 49
13, 35130, Note_off_c, 13, 69, 0
13, 35130, Note_off_c, 13, 77, 0
13, 35130, Note_off_c, 13, 38, 0
13, 35136, Note_on_c, 13, 62, 49
13, 35136, Note_on_c, 13, 70, 49
13, 35136, Note_on_c, 13, 43, 49
13, 35178, Note_off_c, 13, 62, 0
13, 35178, Note_off_c, 13, 70, 0
13, 35178, Note_off_c, 13, 43, 0
13, 35184, Note_on_c, 13, 67, 49
13, 35184, Note_on_c, 13, 76, 49
13, 35184, Note_on_c, 13, 36, 49
13, 35226, Note_off_c, 13, 67, 0
13, 35226, Note_off_c, 13, 76, 0
13, 35226, Note_off_c, 13, 36, 0
13, 35232, Note_on_c, 13, 60, 49
13, 35232, Note_on_c, 13, 69, 49
13, 35232, Note_on_c, 13, 41, 49
13, 35274, Note_off_c, 13, 60, 0
13, 35274, Note_off_c, 13, 69, 0
13, 35274, Note_off_c, 13, 41, 0
13, 35280, Note_on_c, 13, 65, 49
13, 35280, Note_on_c, 13, 74, 49
13, 35280, Note_on_c, 13, 45, 49
13, 35322, Note_off_c, 13, 65, 0
13, 35322, Note_off_c, 13, 74, 0
13, 35322, Note_off_c, 13, 45, 0
13, 35328, Note_on_c, 13, 69, 49
13, 35328, Note_on_c, 13, 77, 49
13, 35328, Note_on_c, 13, 50, 49
13, 35370, Note_off_c, 13, 69, 0
13, 35370, Note_off_c, 13, 77, 0
13, 35376, Tempo, 750000
13, 35376, Note_on_c, 13, 65, 49
13, 35376, Note_on_c, 13, 74, 49
13, 35397, Note_off_c, 13, 50, 0
13, 35400, Note_on_c, 13, 46, 49
13, 35418, Note_off_c, 13, 65, 0
13, 35418, Note_off_c, 13, 74, 0
13, 35421, Note_off_c, 13, 46, 0
13, 35424, Note_on_c, 13, 67, 49
13, 35424, Note_on_c, 13, 76, 49
13, 35424, Note_on_c, 13, 48, 49
13, 35466, Note_off_c, 13, 67, 0
13, 35466, Note_off_c, 13, 76, 0
13, 35466, Note_off_c, 13, 48, 0
13, 35472, Note_on_c, 13, 64, 49
13, 35472, Note_on_c, 13, 67, 49
13, 35472, Note_on_c, 13, 36, 49
13, 35514, Note_off_c, 13, 64, 0
13, 35514, Note_off_c, 13, 67, 0
13, 35514, Note_off_c, 13, 36, 0
13, 35520, Note_on_c, 13, 60, 49
13, 35520, Note_on_c, 13, 69, 49
13, 35520, Note_on_c, 13, 41, 49
13, 35796, Note_off_c, 13, 60, 0
13, 35796, Note_off_c, 13, 69, 0
13, 35796, Note_off_c, 13, 41, 0
13, 35796, End_track
14, 0, Start_track
14, 0, Title_t, "Viola"
14, 0, Control_c, 14, 0, 0
14, 0, Program_c, 14, 41
14, 0, Time_signature, 6, 2, 96, 8
14, 0, Tempo, 600000
14, 96, Tempo, 600000
14, 144, Note_on_c, 14, 57, 75
14, 186, Note_off_c, 14, 57, 0
14, 192, Note_on_c, 14, 57, 75
14, 234, Note_off_c, 14, 57, 0
14, 240, Note_on_c, 14, 57, 75
14, 282, Note_off_c, 14, 57, 0
14, 288, Note_on_c, 14, 60, 75
14, 309, Note_off_c, 14, 60, 0
14, 312, Note_on_c, 14, 58, 75
14, 333, Note_off_c, 14, 58, 0
14, 336, Note_on_c, 14, 60, 75
14, 357, Note_off_c, 14, 60, 0
14, 360, Note_on_c, 14, 57, 75
14, 381, Note_off_c, 14, 57, 0
14, 384, Note_on_c, 14, 64, 75
14, 426, Note_off_c, 14, 64, 0
14, 432, Note_on_c, 14, 64, 75
14, 474, Note_off_c, 14, 64, 0
14, 480, Note_on_c, 14, 64, 75
14, 522, Note_off_c, 14, 64, 0
14, 528, Note_on_c, 14, 64, 75
14, 570, Note_off_c, 14, 64, 0
14, 576, Note_on_c, 14, 67, 75
14, 597, Note_off_c, 14, 67, 0
14, 600, Note_on_c, 14, 65, 75
14, 621, Note_off_c, 14, 65, 0
14, 624, Note_on_c, 14, 67, 75
14, 645, Note_off_c, 14, 67, 0
14, 648, Note_on_c, 14, 64, 75
14, 669, Note_off_c, 14, 64, 0
14, 672, Note_on_c, 14, 69, 75
14, 714, Note_off_c, 14, 69, 0
14, 720, Note_on_c, 14, 69, 75
14, 762, Note_off_c, 14, 69, 0
14, 768, Note_on_c, 14, 69, 75
14, 810, Note_off_c, 14, 69, 0
14, 816, Note_on_c, 14, 69, 75
14, 858, Note_off_c, 14, 69, 0
14, 864, Note_on_c, 14, 60, 75
14, 906, Note_off_c, 14, 60, 0
14, 912, Note_on_c, 14, 65, 75
14, 954, Note_off_c, 14, 65, 0
14, 960, Note_on_c, 14, 67, 75
14, 1002, Note_off_c, 14, 67, 0
14, 1008, Note_on_c, 14, 60, 75
14, 1050, Note_off_c, 14, 60, 0
14, 1056, Note_on_c, 14, 67, 75
14, 1098, Note_off_c, 14, 67, 0
14, 1104, Note_on_c, 14, 72, 75
14, 1188, Note_off_c, 14, 72, 0
14, 1200, Note_on_c, 14, 67, 75
14, 1242, Note_off_c, 14, 67, 0
14, 1248, Note_on_c, 14, 65, 75
14, 1290, Note_off_c, 14, 65, 0
14, 1392, Note_on_c, 14, 67, 75
14, 1434, Note_off_c, 14, 67, 0
14, 1536, Note_on_c, 14, 69, 75
14, 1578, Note_off_c, 14, 69, 0
14, 1680, Note_on_c, 14, 64, 75
14, 1722, Note_off_c, 14, 64, 0
14, 1824, Note_on_c, 14, 65, 75
14, 1866, Note_off_c, 14, 65, 0
14, 1968, Note_on_c, 14, 60, 75
14, 2010, Note_off_c, 14, 60, 0
14, 2112, Note_on_c, 14, 62, 75
14, 2154, Note_off_c, 14, 62, 0
14, 2160, Note_on_c, 14, 62, 75
14, 2202, Note_off_c, 14, 62, 0
14, 2208, Note_on_c, 14, 62, 75
14, 2250, Note_off_c, 14, 62, 0
14, 2256, Note_on_c, 14, 62, 75
14, 2298, Note_off_c, 14, 62, 0
14, 2400, Note_on_c, 14, 60, 75
14, 2442, Note_off_c, 14, 60, 0
14, 2448, Note_on_c, 14, 60, 75
14, 2490, Note_off_c, 14, 60, 0
14, 2496, Note_on_c, 14, 60, 75
14, 2538, Note_off_c, 14, 60, 0
14, 2544, Note_on_c, 14, 60, 75
14, 2586, Note_off_c, 14, 60, 0
14, 2592, Note_on_c, 14, 64, 75
14, 2634, Note_off_c, 14, 64, 0
14, 2640, Note_on_c, 14, 60, 75
14, 2682, Note_off_c, 14, 60, 0
14, 2688, Note_on_c, 14, 60, 75
14, 2730, Note_off_c, 14, 60, 0
14, 2736, Note_on_c, 14, 60, 75
14, 2778, Note_off_c, 14, 60, 0
14, 2784, Note_on_c, 14, 60, 75
14, 2826, Note_off_c, 14, 60, 0
14, 2832, Note_on_c, 14, 60, 75
14, 2874, Note_off_c, 14, 60, 0
14, 2976, Note_on_c, 14, 62, 75
14, 3018, Note_off_c, 14, 62, 0
14, 3024, Note_on_c, 14, 62, 75
14, 3066, Note_off_c, 14, 62, 0
14, 3072, Note_on_c, 14, 62, 75
14, 3114, Note_off_c, 14, 62, 0
14, 3120, Note_on_c, 14, 62, 75
14, 3162, Note_off_c, 14, 62, 0
14, 3168, Note_on_c, 14, 62, 75
14, 3210, Note_off_c, 14, 62, 0
14, 3216, Note_on_c, 14, 58, 75
14, 3258, Note_off_c, 14, 58, 0
14, 3264, Note_on_c, 14, 60, 75
14, 3306, Note_off_c, 14, 60, 0
14, 3312, Note_on_c, 14, 67, 75
14, 3354, Note_off_c, 14, 67, 0
14, 3360, Note_on_c, 14, 64, 75
14, 3402, Note_off_c, 14, 64, 0
14, 3408, Note_on_c, 14, 60, 75
14, 3450, Note_off_c, 14, 60, 0
14, 3456, Note_on_c, 14, 60, 75
14, 3498, Note_off_c, 14, 60, 0
14, 3504, Note_on_c, 14, 64, 75
14, 3546, Note_off_c, 14, 64, 0
14, 3552, Note_on_c, 14, 67, 75
14, 3573, Note_off_c, 14, 67, 0
14, 3576, Note_on_c, 14, 65, 75
14, 3597, Note_off_c, 14, 65, 0
14, 3600, Note_on_c, 14, 67, 75
14, 3621, Note_off_c, 14, 67, 0
14, 3624, Note_on_c, 14, 64, 75
14, 3645, Note_off_c, 14, 64, 0
14, 3648, Note_on_c, 14, 70, 75
14, 3669, Note_off_c, 14, 70, 0
14, 3672, Note_on_c, 14, 69, 75
14, 3693, Note_off_c, 14, 69, 0
14, 3696, Note_on_c, 14, 70, 75
14, 3717, Note_off_c, 14, 70, 0
14, 3720, Note_on_c, 14, 67, 75
14, 3741, Note_off_c, 14, 67, 0
14, 3744, Note_on_c, 14, 76, 75
14, 3786, Note_off_c, 14, 76, 0
14, 3792, Note_on_c, 14, 76, 75
14, 3834, Note_off_c, 14, 76, 0
14, 3840, Note_on_c, 14, 72, 75
14, 3882, Note_off_c, 14, 72, 0
14, 3888, Note_on_c, 14, 69, 75
14, 3930, Note_off_c, 14, 69, 0
14, 3936, Note_on_c, 14, 69, 75
14, 4005, Note_off_c, 14, 69, 0
14, 4008, Note_on_c, 14, 74, 75
14, 4029, Note_off_c, 14, 74, 0
14, 4032, Note_on_c, 14, 72, 75
14, 4074, Note_off_c, 14, 72, 0
14, 4080, Note_on_c, 14, 70, 75
14, 4122, Note_off_c, 14, 70, 0
14, 4128, Note_on_c, 14, 69, 75
14, 4170, Note_off_c, 14, 69, 0
14, 4176, Note_on_c, 14, 65, 75
14, 4218, Note_off_c, 14, 65, 0
14, 4224, Note_on_c, 14, 65, 75
14, 4266, Note_off_c, 14, 65, 0
14, 4272, Note_on_c, 14, 65, 75
14, 4314, Note_off_c, 14, 65, 0
14, 4320, Note_on_c, 14, 62, 75
14, 4362, Note_off_c, 14, 62, 0
14, 4368, Note_on_c, 14, 60, 75
14, 4410, Note_off_c, 14, 60, 0
14, 4416, Note_on_c, 14, 60, 75
14, 4479, Note_off_c, 14, 60, 0
14, 4488, Note_on_c, 14, 58, 75
14, 4509, Note_off_c, 14, 58, 0
14, 4512, Note_on_c, 14, 57, 75
14, 4581, Note_off_c, 14, 57, 0
14, 4584, Note_on_c, 14, 62, 75
14, 4605, Note_off_c, 14, 62, 0
14, 4608, Note_on_c, 14, 60, 75
14, 4671, Note_off_c, 14, 60, 0
14, 4680, Note_on_c, 14, 60, 75
14, 4701, Note_off_c, 14, 60, 0
14, 4704, Note_on_c, 14, 60, 75
14, 4746, Note_off_c, 14, 60, 0
14, 5904, Note_on_c, 14, 57, 75
14, 5946, Note_off_c, 14, 57, 0
14, 5952, Note_on_c, 14, 57, 75
14, 5994, Note_off_c, 14, 57, 0
14, 6000, Note_on_c, 14, 57, 75
14, 6042, Note_off_c, 14, 57, 0
14, 6048, Note_on_c, 14, 60, 75
14, 6069, Note_off_c, 14, 60, 0
14, 6072, Note_on_c, 14, 58, 75
14, 6093, Note_off_c, 14, 58, 0
14, 6096, Note_on_c, 14, 60, 75
14, 6117, Note_off_c, 14, 60, 0
14, 6120, Note_on_c, 14, 57, 75
14, 6141, Note_off_c, 14, 57, 0
14, 6144, Note_on_c, 14, 64, 75
14, 6186, Note_off_c, 14, 64, 0
14, 6192, Note_on_c, 14, 64, 75
14, 6234, Note_off_c, 14, 64, 0
14, 6240, Note_on_c, 14, 64, 75
14, 6282, Note_off_c, 14, 64, 0
14, 6288, Note_on_c, 14, 64, 75
14, 6330, Note_off_c, 14, 64, 0
14, 6336, Note_on_c, 14, 67, 75
14, 6357, Note_off_c, 14, 67, 0
14, 6360, Note_on_c, 14, 65, 75
14, 6381, Note_off_c, 14, 65, 0
14, 6384, Note_on_c, 14, 67, 75
14, 6405, Note_off_c, 14, 67, 0
14, 6408, Note_on_c, 14, 64, 75
14, 6429, Note_off_c, 14, 64, 0
14, 6432, Note_on_c, 14, 69, 75
14, 6474, Note_off_c, 14, 69, 0
14, 6480, Note_on_c, 14, 69, 75
14, 6522, Note_off_c, 14, 69, 0
14, 6528, Note_on_c, 14, 69, 75
14, 6570, Note_off_c, 14, 69, 0
14, 6576, Note_on_c, 14, 69, 75
14, 6618, Note_off_c, 14, 69, 0
14, 6624, Note_on_c, 14, 60, 75
14, 6666, Note_off_c, 14, 60, 0
14, 6672, Note_on_c, 14, 65, 75
14, 6714, Note_off_c, 14, 65, 0
14, 6720, Note_on_c, 14, 67, 75
14, 6762, Note_off_c, 14, 67, 0
14, 6768, Note_on_c, 14, 60, 75
14, 6810, Note_off_c, 14, 60, 0
14, 6816, Note_on_c, 14, 67, 75
14, 6858, Note_off_c, 14, 67, 0
14, 6864, Note_on_c, 14, 72, 75
14, 6948, Note_off_c, 14, 72, 0
14, 7056, Note_on_c, 14, 64, 75
14, 7098, Note_off_c, 14, 64, 0
14, 7104, Note_on_c, 14, 64, 75
14, 7146, Note_off_c, 14, 64, 0
14, 7152, Note_on_c, 14, 62, 75
14, 7194, Note_off_c, 14, 62, 0
14, 7344, Note_on_c, 14, 62, 75
14, 7386, Note_off_c, 14, 62, 0
14, 7392, Note_on_c, 14, 62, 75
14, 7434, Note_off_c, 14, 62, 0
14, 7440, Note_on_c, 14, 60, 75
14, 7482, Note_off_c, 14, 60, 0
14, 7632, Note_on_c, 14, 60, 75
14, 7674, Note_off_c, 14, 60, 0
14, 7680, Note_on_c, 14, 60, 75
14, 7722, Note_off_c, 14, 60, 0
14, 7728, Note_on_c, 14, 59, 75
14, 7770, Note_off_c, 14, 59, 0
14, 7776, Note_on_c, 14, 65, 75
14, 7818, Note_off_c, 14, 65, 0
14, 7824, Note_on_c, 14, 65, 75
14, 7866, Note_off_c, 14, 65, 0
14, 7872, Note_on_c, 14, 64, 75
14, 7914, Note_off_c, 14, 64, 0
14, 7920, Note_on_c, 14, 64, 75
14, 7962, Note_off_c, 14, 64, 0
14, 7968, Note_on_c, 14, 64, 75
14, 8010, Note_off_c, 14, 64, 0
14, 8016, Note_on_c, 14, 60, 75
14, 8058, Note_off_c, 14, 60, 0
14, 8064, Note_on_c, 14, 60, 75
14, 8106, Note_off_c, 14, 60, 0
14, 8112, Note_on_c, 14, 60, 75
14, 8154, Note_off_c, 14, 60, 0
14, 8160, Note_on_c, 14, 67, 75
14, 8202, Note_off_c, 14, 67, 0
14, 8208, Note_on_c, 14, 67, 75
14, 8250, Note_off_c, 14, 67, 0
14, 8256, Note_on_c, 14, 67, 75
14, 8298, Note_off_c, 14, 67, 0
14, 8304, Note_on_c, 14, 67, 75
14, 8346, Note_off_c, 14, 67, 0
14, 8352, Note_on_c, 14, 67, 75
14, 8394, Note_off_c, 14, 67, 0
14, 8400, Note_on_c, 14, 69, 75
14, 8442, Note_off_c, 14, 69, 0
14, 8448, Note_on_c, 14, 62, 75
14, 8532, Note_off_c, 14, 62, 0
14, 9936, Note_on_c, 14, 64, 75
14, 9978, Note_off_c, 14, 64, 0
14, 9984, Note_on_c, 14, 64, 75
14, 10026, Note_off_c, 14, 64, 0
14, 10032, Note_on_c, 14, 64, 75
14, 10074, Note_off_c, 14, 64, 0
14, 10080, Note_on_c, 14, 67, 75
14, 10101, Note_off_c, 14, 67, 0
14, 10104, Note_on_c, 14, 65, 75
14, 10125, Note_off_c, 14, 65, 0
14, 10128, Note_on_c, 14, 67, 75
14, 10149, Note_off_c, 14, 67, 0
14, 10152, Note_on_c, 14, 64, 75
14, 10173, Note_off_c, 14, 64, 0
14, 10176, Note_on_c, 14, 67, 75
14, 10218, Note_off_c, 14, 67, 0
14, 10224, Note_on_c, 14, 67, 75
14, 10266, Note_off_c, 14, 67, 0
14, 10272, Note_on_c, 14, 67, 75
14, 10314, Note_off_c, 14, 67, 0
14, 10320, Note_on_c, 14, 67, 75
14, 10362, Note_off_c, 14, 67, 0
14, 10368, Note_on_c, 14, 74, 75
14, 10389, Note_off_c, 14, 74, 0
14, 10392, Note_on_c, 14, 72, 75
14, 10413, Note_off_c, 14, 72, 0
14, 10416, Note_on_c, 14, 74, 75
14, 10437, Note_off_c, 14, 74, 0
14, 10440, Note_on_c, 14, 71, 75
14, 10461, Note_off_c, 14, 71, 0
14, 10464, Note_on_c, 14, 76, 75
14, 10506, Note_off_c, 14, 76, 0
14, 10512, Note_on_c, 14, 76, 75
14, 10554, Note_off_c, 14, 76, 0
14, 10560, Note_on_c, 14, 76, 75
14, 10602, Note_off_c, 14, 76, 0
14, 10608, Note_on_c, 14, 74, 75
14, 10650, Note_off_c, 14, 74, 0
14, 10656, Note_on_c, 14, 69, 75
14, 10698, Note_off_c, 14, 69, 0
14, 10704, Note_on_c, 14, 74, 75
14, 10746, Note_off_c, 14, 74, 0
14, 10752, Note_on_c, 14, 74, 75
14, 10794, Note_off_c, 14, 74, 0
14, 10800, Note_on_c, 14, 69, 75
14, 10842, Note_off_c, 14, 69, 0
14, 10848, Note_on_c, 14, 66, 75
14, 10890, Note_off_c, 14, 66, 0
14, 10896, Note_on_c, 14, 62, 75
14, 10980, Note_off_c, 14, 62, 0
14, 11568, Note_on_c, 14, 67, 75
14, 11610, Note_off_c, 14, 67, 0
14, 11616, Note_on_c, 14, 67, 75
14, 11658, Note_off_c, 14, 67, 0
14, 11760, Note_on_c, 14, 62, 75
14, 11802, Note_off_c, 14, 62, 0
14, 11904, Note_on_c, 14, 64, 75
14, 11946, Note_off_c, 14, 64, 0
14, 12048, Note_on_c, 14, 59, 75
14, 12090, Note_off_c, 14, 59, 0
14, 12192, Note_on_c, 14, 60, 75
14, 12234, Note_off_c, 14, 60, 0
14, 12336, Note_on_c, 14, 55, 75
14, 12378, Note_off_c, 14, 55, 0
14, 12480, Note_on_c, 14, 57, 75
14, 12522, Note_off_c, 14, 57, 0
14, 12528, Note_on_c, 14, 57, 75
14, 12570, Note_off_c, 14, 57, 0
14, 12576, Note_on_c, 14, 57, 75
14, 12618, Note_off_c, 14, 57, 0
14, 12624, Note_on_c, 14, 57, 75
14, 12666, Note_off_c, 14, 57, 0
14, 12768, Note_on_c, 14, 55, 75
14, 12810, Note_off_c, 14, 55, 0
14, 12816, Note_on_c, 14, 55, 75
14, 12858, Note_off_c, 14, 55, 0
14, 12864, Note_on_c, 14, 55, 75
14, 12906, Note_off_c, 14, 55, 0
14, 12912, Note_on_c, 14, 55, 75
14, 12954, Note_off_c, 14, 55, 0
14, 12960, Note_on_c, 14, 59, 75
14, 13002, Note_off_c, 14, 59, 0
14, 13008, Note_on_c, 14, 55, 75
14, 13050, Note_off_c, 14, 55, 0
14, 13056, Note_on_c, 14, 55, 75
14, 13098, Note_off_c, 14, 55, 0
14, 13104, Note_on_c, 14, 55, 75
14, 13146, Note_off_c, 14, 55, 0
14, 13152, Note_on_c, 14, 55, 75
14, 13194, Note_off_c, 14, 55, 0
14, 13200, Note_on_c, 14, 55, 75
14, 13242, Note_off_c, 14, 55, 0
14, 13344, Note_on_c, 14, 57, 75
14, 13386, Note_off_c, 14, 57, 0
14, 13392, Note_on_c, 14, 57, 75
14, 13434, Note_off_c, 14, 57, 0
14, 13440, Note_on_c, 14, 57, 75
14, 13482, Note_off_c, 14, 57, 0
14, 13488, Note_on_c, 14, 57, 75
14, 13530, Note_off_c, 14, 57, 0
14, 13536, Note_on_c, 14, 57, 75
14, 13578, Note_off_c, 14, 57, 0
14, 13584, Note_on_c, 14, 53, 75
14, 13626, Note_off_c, 14, 53, 0
14, 13632, Note_on_c, 14, 50, 75
14, 13674, Note_off_c, 14, 50, 0
14, 13680, Note_on_c, 14, 50, 75
14, 13722, Note_off_c, 14, 50, 0
14, 13728, Note_on_c, 14, 55, 75
14, 13770, Note_off_c, 14, 55, 0
14, 13776, Note_on_c, 14, 55, 75
14, 13818, Note_off_c, 14, 55, 0
14, 13824, Note_on_c, 14, 55, 75
14, 13866, Note_off_c, 14, 55, 0
14, 13872, Note_on_c, 14, 59, 75
14, 13914, Note_off_c, 14, 59, 0
14, 13920, Note_on_c, 14, 62, 75
14, 13941, Note_off_c, 14, 62, 0
14, 13944, Note_on_c, 14, 60, 75
14, 13965, Note_off_c, 14, 60, 0
14, 13968, Note_on_c, 14, 62, 75
14, 13989, Note_off_c, 14, 62, 0
14, 13992, Note_on_c, 14, 59, 75
14, 14013, Note_off_c, 14, 59, 0
14, 14016, Note_on_c, 14, 65, 75
14, 14037, Note_off_c, 14, 65, 0
14, 14040, Note_on_c, 14, 64, 75
14, 14061, Note_off_c, 14, 64, 0
14, 14064, Note_on_c, 14, 65, 75
14, 14085, Note_off_c, 14, 65, 0
14, 14088, Note_on_c, 14, 62, 75
14, 14109, Note_off_c, 14, 62, 0
14, 14112, Note_on_c, 14, 71, 75
14, 14133, Note_off_c, 14, 71, 0
14, 14136, Note_on_c, 14, 72, 75
14, 14157, Note_off_c, 14, 72, 0
14, 14160, Note_on_c, 14, 69, 75
14, 14181, Note_off_c, 14, 69, 0
14, 14184, Note_on_c, 14, 71, 75
14, 14205, Note_off_c, 14, 71, 0
14, 14208, Note_on_c, 14, 67, 75
14, 14250, Note_off_c, 14, 67, 0
14, 14256, Note_on_c, 14, 64, 75
14, 14298, Note_off_c, 14, 64, 0
14, 14304, Note_on_c, 14, 69, 75
14, 14373, Note_off_c, 14, 69, 0
14, 14376, Note_on_c, 14, 62, 75
14, 14397, Note_off_c, 14, 62, 0
14, 14400, Note_on_c, 14, 67, 75
14, 14442, Note_off_c, 14, 67, 0
14, 14448, Note_on_c, 14, 65, 75
14, 14490, Note_off_c, 14, 65, 0
14, 14496, Note_on_c, 14, 64, 75
14, 14538, Note_off_c, 14, 64, 0
14, 14544, Note_on_c, 14, 60, 75
14, 14586, Note_off_c, 14, 60, 0
14, 14592, Note_on_c, 14, 60, 75
14, 14682, Note_off_c, 14, 60, 0
14, 14688, Note_on_c, 14, 57, 75
14, 14730, Note_off_c, 14, 57, 0
14, 14736, Note_on_c, 14, 55, 75
14, 14778, Note_off_c, 14, 55, 0
14, 14784, Note_on_c, 14, 55, 75
14, 14826, Note_off_c, 14, 55, 0
14, 14832, Note_on_c, 14, 55, 75
14, 14874, Note_off_c, 14, 55, 0
14, 14880, Note_on_c, 14, 52, 75
14, 14949, Note_off_c, 14, 52, 0
14, 14952, Note_on_c, 14, 57, 75
14, 14973, Note_off_c, 14, 57, 0
14, 14976, Note_on_c, 14, 55, 75
14, 15018, Note_off_c, 14, 55, 0
14, 15024, Note_on_c, 14, 53, 75
14, 15066, Note_off_c, 14, 53, 0
14, 15072, Note_on_c, 14, 52, 75
14, 15114, Note_off_c, 14, 52, 0
14, 15552, Note_on_c, 14, 69, 75
14, 15594, Note_off_c, 14, 69, 0
14, 15600, Note_on_c, 14, 69, 75
14, 15642, Note_off_c, 14, 69, 0
14, 15648, Note_on_c, 14, 69, 75
14, 15690, Note_off_c, 14, 69, 0
14, 17280, Note_on_c, 14, 62, 75
14, 17322, Note_off_c, 14, 62, 0
14, 17328, Note_on_c, 14, 62, 75
14, 17370, Note_off_c, 14, 62, 0
14, 17376, Note_on_c, 14, 62, 75
14, 17418, Note_off_c, 14, 62, 0
14, 17568, Note_on_c, 14, 60, 75
14, 17610, Note_off_c, 14, 60, 0
14, 17616, Note_on_c, 14, 60, 75
14, 17658, Note_off_c, 14, 60, 0
14, 17664, Note_on_c, 14, 62, 75
14, 17706, Note_off_c, 14, 62, 0
14, 18240, Note_on_c, 14, 74, 127
14, 18261, Note_off_c, 14, 74, 0
14, 18264, Note_on_c, 14, 76, 127
14, 18285, Note_off_c, 14, 76, 0
14, 18288, Note_on_c, 14, 74, 127
14, 18309, Note_off_c, 14, 74, 0
14, 18312, Note_on_c, 14, 76, 127
14, 18333, Note_off_c, 14, 76, 0
14, 18336, Note_on_c, 14, 77, 127
14, 18357, Note_off_c, 14, 77, 0
14, 18360, Note_on_c, 14, 76, 127
14, 18381, Note_off_c, 14, 76, 0
14, 18384, Note_on_c, 14, 74, 127
14, 18426, Note_off_c, 14, 74, 0
14, 18432, Note_on_c, 14, 74, 127
14, 18474, Note_off_c, 14, 74, 0
14, 18480, Note_on_c, 14, 74, 127
14, 18522, Note_off_c, 14, 74, 0
14, 18528, Note_on_c, 14, 74, 127
14, 18549, Note_off_c, 14, 74, 0
14, 18552, Note_on_c, 14, 76, 127
14, 18573, Note_off_c, 14, 76, 0
14, 18576, Note_on_c, 14, 74, 127
14, 18597, Note_off_c, 14, 74, 0
14, 18600, Note_on_c, 14, 76, 127
14, 18621, Note_off_c, 14, 76, 0
14, 18624, Note_on_c, 14, 77, 127
14, 18645, Note_off_c, 14, 77, 0
14, 18648, Note_on_c, 14, 76, 127
14, 18669, Note_off_c, 14, 76, 0
14, 18672, Note_on_c, 14, 74, 127
14, 18714, Note_off_c, 14, 74, 0
14, 18720, Note_on_c, 14, 74, 127
14, 18762, Note_off_c, 14, 74, 0
14, 18768, Note_on_c, 14, 74, 127
14, 18810, Note_off_c, 14, 74, 0
14, 18816, Note_on_c, 14, 72, 127
14, 18837, Note_off_c, 14, 72, 0
14, 18840, Note_on_c, 14, 74, 127
14, 18861, Note_off_c, 14, 74, 0
14, 18864, Note_on_c, 14, 72, 127
14, 18885, Note_off_c, 14, 72, 0
14, 18888, Note_on_c, 14, 74, 127
14, 18909, Note_off_c, 14, 74, 0
14, 18912, Note_on_c, 14, 76, 127
14, 18933, Note_off_c, 14, 76, 0
14, 18936, Note_on_c, 14, 74, 127
14, 18957, Note_off_c, 14, 74, 0
14, 18960, Note_on_c, 14, 72, 127
14, 19002, Note_off_c, 14, 72, 0
14, 19008, Note_on_c, 14, 72, 127
14, 19050, Note_off_c, 14, 72, 0
14, 19056, Note_on_c, 14, 72, 127
14, 19098, Note_off_c, 14, 72, 0
14, 19104, Note_on_c, 14, 72, 127
14, 19125, Note_off_c, 14, 72, 0
14, 19128, Note_on_c, 14, 74, 127
14, 19149, Note_off_c, 14, 74, 0
14, 19152, Note_on_c, 14, 72, 127
14, 19173, Note_off_c, 14, 72, 0
14, 19176, Note_on_c, 14, 74, 127
14, 19197, Note_off_c, 14, 74, 0
14, 19200, Note_on_c, 14, 76, 127
14, 19221, Note_off_c, 14, 76, 0
14, 19224, Note_on_c, 14, 74, 127
14, 19245, Note_off_c, 14, 74, 0
14, 19248, Note_on_c, 14, 72, 127
14, 19290, Note_off_c, 14, 72, 0
14, 19296, Note_on_c, 14, 71, 127
14, 19317, Note_off_c, 14, 71, 0
14, 19320, Note_on_c, 14, 72, 127
14, 19341, Note_off_c, 14, 72, 0
14, 19344, Note_on_c, 14, 74, 127
14, 19365, Note_off_c, 14, 74, 0
14, 19368, Note_on_c, 14, 72, 127
14, 19389, Note_off_c, 14, 72, 0
14, 19392, Note_on_c, 14, 71, 127
14, 19434, Note_off_c, 14, 71, 0
14, 20016, Note_on_c, 14, 69, 75
14, 20058, Note_off_c, 14, 69, 0
14, 20064, Note_on_c, 14, 72, 75
14, 20106, Note_off_c, 14, 72, 0
14, 20112, Note_on_c, 14, 69, 75
14, 20154, Note_off_c, 14, 69, 0
14, 20304, Note_on_c, 14, 67, 75
14, 20346, Note_off_c, 14, 67, 0
14, 20352, Note_on_c, 14, 70, 75
14, 20394, Note_off_c, 14, 70, 0
14, 20400, Note_on_c, 14, 67, 75
14, 20442, Note_off_c, 14, 67, 0
14, 20592, Note_on_c, 14, 72, 75
14, 20613, Note_off_c, 14, 72, 0
14, 20616, Note_on_c, 14, 70, 75
14, 20637, Note_off_c, 14, 70, 0
14, 20640, Note_on_c, 14, 69, 75
14, 20661, Note_off_c, 14, 69, 0
14, 20664, Note_on_c, 14, 67, 75
14, 20685, Note_off_c, 14, 67, 0
14, 20688, Note_on_c, 14, 69, 75
14, 20730, Note_off_c, 14, 69, 0
14, 20736, Note_on_c, 14, 69, 75
14, 20778, Note_off_c, 14, 69, 0
14, 20784, Note_on_c, 14, 65, 75
14, 20826, Note_off_c, 14, 65, 0
14, 20832, Note_on_c, 14, 62, 75
14, 20874, Note_off_c, 14, 62, 0
14, 21024, Note_on_c, 14, 60, 75
14, 21066, Note_off_c, 14, 60, 0
14, 21072, Note_on_c, 14, 60, 75
14, 21114, Note_off_c, 14, 60, 0
14, 21120, Note_on_c, 14, 60, 75
14, 21162, Note_off_c, 14, 60, 0
14, 23040, Note_on_c, 14, 67, 75
14, 23082, Note_off_c, 14, 67, 0
14, 23088, Note_on_c, 14, 67, 75
14, 23130, Note_off_c, 14, 67, 0
14, 23136, Note_on_c, 14, 65, 75
14, 23178, Note_off_c, 14, 65, 0
14, 23328, Note_on_c, 14, 65, 75
14, 23370, Note_off_c, 14, 65, 0
14, 23376, Note_on_c, 14, 65, 75
14, 23418, Note_off_c, 14, 65, 0
14, 23424, Tempo, 1500000
14, 23424, Note_on_c, 14, 56, 49
14, 23508, Note_off_c, 14, 56, 0
14, 23520, Note_on_c, 14, 53, 49
14, 23562, Note_off_c, 14, 53, 0
14, 23568, Note_on_c, 14, 51, 49
14, 23610, Note_off_c, 14, 51, 0
14, 23616, Time_signature, 2, 2, 96, 8
14, 23616, Note_on_c, 14, 58, 49
14, 23637, Note_off_c, 14, 58, 0
14, 23640, Note_on_c, 14, 60, 49
14, 23661, Note_off_c, 14, 60, 0
14, 23664, Note_on_c, 14, 62, 49
14, 23733, Note_off_c, 14, 62, 0
14, 23736, Note_on_c, 14, 60, 49
14, 23757, Note_off_c, 14, 60, 0
14, 23760, Note_on_c, 14, 60, 49
14, 23808, Time_signature, 6, 2, 96, 8
14, 23823, Note_off_c, 14, 60, 0
14, 23832, Note_on_c, 14, 62, 49
14, 23853, Note_off_c, 14, 62, 0
14, 23856, Note_on_c, 14, 62, 49
14, 23898, Note_off_c, 14, 62, 0
14, 23904, Tempo, 600000
14, 23904, Note_on_c, 14, 58, 96
14, 23946, Note_off_c, 14, 58, 0
14, 23952, Note_on_c, 14, 58, 96
14, 23994, Note_off_c, 14, 58, 0
14, 24000, Note_on_c, 14, 65, 75
14, 24042, Note_off_c, 14, 65, 0
14, 24048, Note_on_c, 14, 57, 75
14, 24090, Note_off_c, 14, 57, 0
14, 25200, Note_on_c, 14, 57, 75
14, 25242, Note_off_c, 14, 57, 0
14, 25248, Note_on_c, 14, 57, 75
14, 25290, Note_off_c, 14, 57, 0
14, 25296, Note_on_c, 14, 57, 75
14, 25338, Note_off_c, 14, 57, 0
14, 25344, Note_on_c, 14, 60, 75
14, 25365, Note_off_c, 14, 60, 0
14, 25368, Note_on_c, 14, 58, 75
14, 25389, Note_off_c, 14, 58, 0
14, 25392, Note_on_c, 14, 60, 75
14, 25413, Note_off_c, 14, 60, 0
14, 25416, Note_on_c, 14, 57, 75
14, 25437, Note_off_c, 14, 57, 0
14, 25440, Note_on_c, 14, 64, 75
14, 25482, Note_off_c, 14, 64, 0
14, 25488, Note_on_c, 14, 64, 75
14, 25530, Note_off_c, 14, 64, 0
14, 25536, Note_on_c, 14, 64, 75
14, 25578, Note_off_c, 14, 64, 0
14, 25584, Note_on_c, 14, 64, 75
14, 25626, Note_off_c, 14, 64, 0
14, 25632, Note_on_c, 14, 67, 75
14, 25653, Note_off_c, 14, 67, 0
14, 25656, Note_on_c, 14, 65, 75
14, 25677, Note_off_c, 14, 65, 0
14, 25680, Note_on_c, 14, 67, 75
14, 25701, Note_off_c, 14, 67, 0
14, 25704, Note_on_c, 14, 64, 75
14, 25725, Note_off_c, 14, 64, 0
14, 25728, Note_on_c, 14, 69, 75
14, 25770, Note_off_c, 14, 69, 0
14, 25776, Note_on_c, 14, 69, 75
14, 25818, Note_off_c, 14, 69, 0
14, 25824, Note_on_c, 14, 69, 75
14, 25866, Note_off_c, 14, 69, 0
14, 25872, Note_on_c, 14, 69, 75
14, 25914, Note_off_c, 14, 69, 0
14, 25920, Note_on_c, 14, 60, 75
14, 25962, Note_off_c, 14, 60, 0
14, 25968, Note_on_c, 14, 65, 75
14, 26010, Note_off_c, 14, 65, 0
14, 26016, Note_on_c, 14, 67, 75
14, 26058, Note_off_c, 14, 67, 0
14, 26064, Note_on_c, 14, 60, 75
14, 26106, Note_off_c, 14, 60, 0
14, 26112, Note_on_c, 14, 67, 75
14, 26154, Note_off_c, 14, 67, 0
14, 26160, Note_on_c, 14, 72, 75
14, 26202, Note_off_c, 14, 72, 0
14, 26208, Note_on_c, 14, 64, 75
14, 26250, Note_off_c, 14, 64, 0
14, 26352, Note_on_c, 14, 65, 75
14, 26394, Note_off_c, 14, 65, 0
14, 26400, Note_on_c, 14, 65, 75
14, 26442, Note_off_c, 14, 65, 0
14, 26448, Note_on_c, 14, 65, 75
14, 26490, Note_off_c, 14, 65, 0
14, 26640, Note_on_c, 14, 64, 75
14, 26682, Note_off_c, 14, 64, 0
14, 26688, Note_on_c, 14, 64, 75
14, 26730, Note_off_c, 14, 64, 0
14, 26736, Note_on_c, 14, 60, 75
14, 26778, Note_off_c, 14, 60, 0
14, 26928, Note_on_c, 14, 62, 75
14, 26970, Note_off_c, 14, 62, 0
14, 26976, Note_on_c, 14, 62, 75
14, 27018, Note_off_c, 14, 62, 0
14, 27024, Note_on_c, 14, 58, 75
14, 27066, Note_off_c, 14, 58, 0
14, 27216, Note_on_c, 14, 60, 75
14, 27258, Note_off_c, 14, 60, 0
14, 27264, Note_on_c, 14, 60, 75
14, 27306, Note_off_c, 14, 60, 0
14, 27312, Note_on_c, 14, 60, 75
14, 27354, Note_off_c, 14, 60, 0
14, 27360, Note_on_c, 14, 60, 75
14, 27402, Note_off_c, 14, 60, 0
14, 27408, Note_on_c, 14, 60, 75
14, 27450, Note_off_c, 14, 60, 0
14, 27456, Note_on_c, 14, 62, 75
14, 27498, Note_off_c, 14, 62, 0
14, 27504, Note_on_c, 14, 62, 75
14, 27546, Note_off_c, 14, 62, 0
14, 27552, Note_on_c, 14, 62, 75
14, 27594, Note_off_c, 14, 62, 0
14, 27600, Note_on_c, 14, 55, 75
14, 27642, Note_off_c, 14, 55, 0
14, 27648, Note_on_c, 14, 55, 75
14, 27690, Note_off_c, 14, 55, 0
14, 27696, Note_on_c, 14, 55, 75
14, 27738, Note_off_c, 14, 55, 0
14, 27744, Note_on_c, 14, 60, 75
14, 27786, Note_off_c, 14, 60, 0
14, 27792, Note_on_c, 14, 60, 75
14, 27834, Note_off_c, 14, 60, 0
14, 27840, Note_on_c, 14, 62, 75
14, 27882, Note_off_c, 14, 62, 0
14, 27888, Note_on_c, 14, 55, 75
14, 27972, Note_off_c, 14, 55, 0
14, 29376, Note_on_c, 14, 57, 75
14, 29418, Note_off_c, 14, 57, 0
14, 29424, Note_on_c, 14, 57, 75
14, 29466, Note_off_c, 14, 57, 0
14, 29472, Note_on_c, 14, 57, 75
14, 29514, Note_off_c, 14, 57, 0
14, 29520, Note_on_c, 14, 60, 75
14, 29541, Note_off_c, 14, 60, 0
14, 29544, Note_on_c, 14, 58, 75
14, 29565, Note_off_c, 14, 58, 0
14, 29568, Note_on_c, 14, 60, 75
14, 29589, Note_off_c, 14, 60, 0
14, 29592, Note_on_c, 14, 57, 75
14, 29613, Note_off_c, 14, 57, 0
14, 29616, Note_on_c, 14, 64, 75
14, 29658, Note_off_c, 14, 64, 0
14, 29664, Note_on_c, 14, 64, 75
14, 29706, Note_off_c, 14, 64, 0
14, 29712, Note_on_c, 14, 64, 75
14, 29754, Note_off_c, 14, 64, 0
14, 29760, Note_on_c, 14, 64, 75
14, 29802, Note_off_c, 14, 64, 0
14, 29808, Note_on_c, 14, 67, 75
14, 29829, Note_off_c, 14, 67, 0
14, 29832, Note_on_c, 14, 65, 75
14, 29853, Note_off_c, 14, 65, 0
14, 29856, Note_on_c, 14, 67, 75
14, 29877, Note_off_c, 14, 67, 0
14, 29880, Note_on_c, 14, 64, 75
14, 29901, Note_off_c, 14, 64, 0
14, 29904, Note_on_c, 14, 69, 75
14, 29946, Note_off_c, 14, 69, 0
14, 29952, Note_on_c, 14, 69, 75
14, 29994, Note_off_c, 14, 69, 0
14, 30000, Note_on_c, 14, 69, 75
14, 30042, Note_off_c, 14, 69, 0
14, 30048, Note_on_c, 14, 69, 75
14, 30090, Note_off_c, 14, 69, 0
14, 30096, Note_on_c, 14, 60, 75
14, 30138, Note_off_c, 14, 60, 0
14, 30144, Note_on_c, 14, 65, 75
14, 30186, Note_off_c, 14, 65, 0
14, 30192, Note_on_c, 14, 67, 75
14, 30234, Note_off_c, 14, 67, 0
14, 30240, Note_on_c, 14, 67, 75
14, 30282, Note_off_c, 14, 67, 0
14, 30288, Note_on_c, 14, 71, 75
14, 30330, Note_off_c, 14, 71, 0
14, 30336, Note_on_c, 14, 72, 75
14, 30420, Note_off_c, 14, 72, 0
14, 30960, Note_on_c, 14, 57, 75
14, 31002, Note_off_c, 14, 57, 0
14, 31008, Note_on_c, 14, 57, 75
14, 31050, Note_off_c, 14, 57, 0
14, 31056, Note_on_c, 14, 57, 75
14, 31098, Note_off_c, 14, 57, 0
14, 31104, Note_on_c, 14, 60, 75
14, 31125, Note_off_c, 14, 60, 0
14, 31128, Note_on_c, 14, 58, 75
14, 31149, Note_off_c, 14, 58, 0
14, 31152, Note_on_c, 14, 60, 75
14, 31173, Note_off_c, 14, 60, 0
14, 31176, Note_on_c, 14, 57, 75
14, 31197, Note_off_c, 14, 57, 0
14, 31200, Note_on_c, 14, 64, 75
14, 31242, Note_off_c, 14, 64, 0
14, 31248, Note_on_c, 14, 64, 75
14, 31290, Note_off_c, 14, 64, 0
14, 31296, Note_on_c, 14, 64, 75
14, 31338, Note_off_c, 14, 64, 0
14, 31344, Note_on_c, 14, 64, 75
14, 31386, Note_off_c, 14, 64, 0
14, 31392, Note_on_c, 14, 67, 75
14, 31413, Note_off_c, 14, 67, 0
14, 31416, Note_on_c, 14, 65, 75
14, 31437, Note_off_c, 14, 65, 0
14, 31440, Note_on_c, 14, 67, 75
14, 31461, Note_off_c, 14, 67, 0
14, 31464, Note_on_c, 14, 64, 75
14, 31485, Note_off_c, 14, 64, 0
14, 31488, Note_on_c, 14, 69, 75
14, 31530, Note_off_c, 14, 69, 0
14, 31536, Note_on_c, 14, 69, 75
14, 31578, Note_off_c, 14, 69, 0
14, 31584, Note_on_c, 14, 69, 75
14, 31626, Note_off_c, 14, 69, 0
14, 31632, Note_on_c, 14, 69, 75
14, 31674, Note_off_c, 14, 69, 0
14, 31680, Note_on_c, 14, 60, 75
14, 31722, Note_off_c, 14, 60, 0
14, 31728, Note_on_c, 14, 65, 75
14, 31770, Note_off_c, 14, 65, 0
14, 31776, Note_on_c, 14, 67, 75
14, 31818, Note_off_c, 14, 67, 0
14, 31824, Note_on_c, 14, 60, 75
14, 31866, Note_off_c, 14, 60, 0
14, 31872, Note_on_c, 14, 67, 75
14, 31914, Note_off_c, 14, 67, 0
14, 31920, Note_on_c, 14, 72, 75
14, 32004, Note_off_c, 14, 72, 0
14, 32016, Note_on_c, 14, 67, 75
14, 32058, Note_off_c, 14, 67, 0
14, 32064, Note_on_c, 14, 65, 75
14, 32106, Note_off_c, 14, 65, 0
14, 32208, Note_on_c, 14, 67, 75
14, 32250, Note_off_c, 14, 67, 0
14, 32352, Note_on_c, 14, 69, 75
14, 32394, Note_off_c, 14, 69, 0
14, 32496, Note_on_c, 14, 64, 75
14, 32538, Note_off_c, 14, 64, 0
14, 32640, Note_on_c, 14, 65, 75
14, 32682, Note_off_c, 14, 65, 0
14, 32784, Note_on_c, 14, 60, 75
14, 32826, Note_off_c, 14, 60, 0
14, 32928, Note_on_c, 14, 62, 75
14, 32970, Note_off_c, 14, 62, 0
14, 32976, Note_on_c, 14, 62, 75
14, 33018, Note_off_c, 14, 62, 0
14, 33024, Note_on_c, 14, 62, 75
14, 33066, Note_off_c, 14, 62, 0
14, 33072, Note_on_c, 14, 62, 75
14, 33114, Note_off_c, 14, 62, 0
14, 33216, Note_on_c, 14, 60, 75
14, 33258, Note_off_c, 14, 60, 0
14, 33264, Note_on_c, 14, 60, 75
14, 33306, Note_off_c, 14, 60, 0
14, 33312, Note_on_c, 14, 60, 75
14, 33354, Note_off_c, 14, 60, 0
14, 33360, Note_on_c, 14, 60, 75
14, 33402, Note_off_c, 14, 60, 0
14, 33408, Note_on_c, 14, 64, 75
14, 33450, Note_off_c, 14, 64, 0
14, 33456, Note_on_c, 14, 60, 75
14, 33498, Note_off_c, 14, 60, 0
14, 33504, Note_on_c, 14, 60, 75
14, 33546, Note_off_c, 14, 60, 0
14, 33552, Note_on_c, 14, 60, 75
14, 33594, Note_off_c, 14, 60, 0
14, 33600, Note_on_c, 14, 60, 75
14, 33642, Note_off_c, 14, 60, 0
14, 33648, Note_on_c, 14, 60, 75
14, 33690, Note_off_c, 14, 60, 0
14, 33792, Note_on_c, 14, 62, 75
14, 33834, Note_off_c, 14, 62, 0
14, 33840, Note_on_c, 14, 62, 75
14, 33882, Note_off_c, 14, 62, 0
14, 33888, Note_on_c, 14, 62, 75
14, 33930, Note_off_c, 14, 62, 0
14, 33936, Note_on_c, 14, 62, 75
14, 33978, Note_off_c, 14, 62, 0
14, 33984, Note_on_c, 14, 62, 75
14, 34026, Note_off_c, 14, 62, 0
14, 34032, Note_on_c, 14, 58, 75
14, 34074, Note_off_c, 14, 58, 0
14, 34080, Note_on_c, 14, 60, 75
14, 34122, Note_off_c, 14, 60, 0
14, 34128, Note_on_c, 14, 67, 75
14, 34170, Note_off_c, 14, 67, 0
14, 34176, Note_on_c, 14, 64, 75
14, 34218, Note_off_c, 14, 64, 0
14, 34224, Note_on_c, 14, 60, 75
14, 34266, Note_off_c, 14, 60, 0
14, 34272, Note_on_c, 14, 60, 75
14, 34314, Note_off_c, 14, 60, 0
14, 34320, Note_on_c, 14, 64, 75
14, 34362, Note_off_c, 14, 64, 0
14, 34368, Note_on_c, 14, 67, 75
14, 34389, Note_off_c, 14, 67, 0
14, 34392, Note_on_c, 14, 65, 75
14, 34413, Note_off_c, 14, 65, 0
14, 34416, Note_on_c, 14, 67, 75
14, 34437, Note_off_c, 14, 67, 0
14, 34440, Note_on_c, 14, 64, 75
14, 34461, Note_off_c, 14, 64, 0
14, 34464, Note_on_c, 14, 70, 75
14, 34485, Note_off_c, 14, 70, 0
14, 34488, Note_on_c, 14, 69, 75
14, 34509, Note_off_c, 14, 69, 0
14, 34512, Note_on_c, 14, 70, 75
14, 34533, Note_off_c, 14, 70, 0
14, 34536, Note_on_c, 14, 67, 75
14, 34557, Note_off_c, 14, 67, 0
14, 34560, Note_on_c, 14, 76, 75
14, 34602, Note_off_c, 14, 76, 0
14, 34608, Note_on_c, 14, 76, 75
14, 34650, Note_off_c, 14, 76, 0
14, 34656, Note_on_c, 14, 72, 75
14, 34698, Note_off_c, 14, 72, 0
14, 34704, Note_on_c, 14, 69, 75
14, 34746, Note_off_c, 14, 69, 0
14, 34752, Note_on_c, 14, 69, 75
14, 34821, Note_off_c, 14, 69, 0
14, 34824, Note_on_c, 14, 74, 75
14, 34845, Note_off_c, 14, 74, 0
14, 34848, Note_on_c, 14, 72, 75
14, 34890, Note_off_c, 14, 72, 0
14, 34896, Note_on_c, 14, 70, 75
14, 34938, Note_off_c, 14, 70, 0
14, 34944, Note_on_c, 14, 69, 75
14, 34986, Note_off_c, 14, 69, 0
14, 34992, Note_on_c, 14, 65, 75
14, 35034, Note_off_c, 14, 65, 0
14, 35040, Note_on_c, 14, 65, 75
14, 35082, Note_off_c, 14, 65, 0
14, 35088, Note_on_c, 14, 65, 75
14, 35130, Note_off_c, 14, 65, 0
14, 35136, Note_on_c, 14, 62, 75
14, 35178, Note_off_c, 14, 62, 0
14, 35184, Note_on_c, 14, 60, 75
14, 35226, Note_off_c, 14, 60, 0
14, 35232, Note_on_c, 14, 60, 75
14, 35295, Note_off_c, 14, 60, 0
14, 35304, Note_on_c, 14, 58, 75
14, 35325, Note_off_c, 14, 58, 0
14, 35328, Note_on_c, 14, 57, 75
14, 35376, Tempo, 750000
14, 35397, Note_off_c, 14, 57, 0
14, 35400, Note_on_c, 14, 62, 75
14, 35421, Note_off_c, 14, 62, 0
14, 35424, Note_on_c, 14, 60, 75
14, 35487, Note_off_c, 14, 60, 0
14, 35496, Note_on_c, 14, 60, 75
14, 35517, Note_off_c, 14, 60, 0
14, 35520, Note_on_c, 14, 60, 75
14, 35796, Note_off_c, 14, 60, 0
14, 35796, End_track
0, 0, End_of_file
